500 0 5 0           
7 Unknown 11 ACIS 5.0 NT 24 Fri Mar 26 00:28:27 1999 
-1 9.9999999999999995e-007 1e-010 
body $-1 $5 $-1 $6 #
body $-1 $7 $-1 $8 #
body $-1 $9 $-1 $10 #
body $-1 $11 $-1 $12 #
body $-1 $13 $-1 $14 #
lump $-1 $-1 $15 $0 #
transform $-1 1 0 0 0 1 0 0 0 1 45.954771568956573 18.635194913948595 4 1 rotate no_reflect no_shear #
lump $-1 $-1 $16 $1 #
transform $-1 1 0 0 0 1 0 0 0 1 45.954771568956573 18.635194913948595 4 1 rotate no_reflect no_shear #
lump $-1 $-1 $17 $2 #
transform $-1 1 0 0 0 1 0 0 0 1 45.954771568956573 18.635194913948595 4 1 rotate no_reflect no_shear #
lump $-1 $-1 $18 $3 #
transform $-1 1 0 0 0 1 0 0 0 1 45.954771568956573 18.635194913948595 4 1 rotate no_reflect no_shear #
lump $-1 $-1 $19 $4 #
transform $-1 1 0 0 0 1 0 0 0 1 45.954771568956573 18.635194913948595 4 1 rotate no_reflect no_shear #
shell $-1 $-1 $-1 $20 $-1 $5 #
shell $-1 $-1 $-1 $21 $-1 $7 #
shell $-1 $-1 $-1 $22 $-1 $9 #
shell $-1 $-1 $-1 $23 $-1 $11 #
shell $-1 $-1 $-1 $24 $-1 $13 #
face $-1 $25 $26 $15 $-1 $27 forward single #
face $-1 $28 $29 $16 $-1 $30 forward single #
face $-1 $31 $32 $17 $-1 $33 reversed single #
face $-1 $34 $35 $18 $-1 $36 forward single #
face $-1 $37 $38 $19 $-1 $39 reversed single #
face $-1 $40 $41 $15 $-1 $42 reversed single #
loop $-1 $-1 $43 $20 #
plane-surface $-1 0 0 4 0 0 1 1 0 0 forward_v I I I I #
face $-1 $44 $45 $16 $-1 $46 forward single #
loop $-1 $-1 $47 $21 #
plane-surface $-1 79.596001149933585 6.8016472429485031 126.35096557463962 0 -1 0 -0.86602541151947299 0 -0.49999998660252726 forward_v I I I I #
face $-1 $48 $49 $17 $-1 $50 reversed single #
loop $-1 $51 $52 $22 #
cone-surface $-1 44.388777047790356 2.5270421915002892 2.0292710753374368 -0.86602541151947299 0 -0.49999998660252726 0.24999999330126363 0 -0.43301270575973649 1 I I 0 1 0.5 forward I I I I #
face $-1 $53 $54 $18 $-1 $55 forward single #
loop $-1 $-1 $56 $23 #
plane-surface $-1 -125.55077148753458 -1.7475628599479318 46.754965656061621 0 1 0 -0.86602541151947299 0 0.49999998660252726 forward_v I I I I #
face $-1 $57 $58 $19 $-1 $59 reversed single #
loop $-1 $60 $61 $24 #
cone-surface $-1 -44.388777047790363 2.5270421915002892 2.0292710753374439 0.86602541151947299 0 -0.49999998660252726 0.24999999330126363 0 0.43301270575973649 1 I I 0 1 0.5 forward I I I I #
face $-1 $62 $63 $15 $-1 $64 reversed single #
loop $-1 $-1 $65 $25 #
plane-surface $-1 0 0 -4 0 0 1 1 0 0 forward_v I I I I #
coedge $-1 $66 $67 $68 $69 forward $26 $-1 #
face $-1 $70 $71 $16 $-1 $72 forward single #
loop $-1 $-1 $73 $28 #
plane-surface $-1 1.2313555970422385e-006 2.5270421915002856 80.39619523703864 0.86602541151947299 0 0.49999998660252726 0.49999998660252726 0 -0.86602541151947299 forward_v I I I I #
coedge $-1 $74 $75 $76 $77 reversed $29 $-1 #
face $-1 $78 $79 $17 $-1 $80 forward single #
loop $-1 $81 $82 $31 #
cone-surface $-1 43.52998018786397 2.5270421915002892 1.5334444947939261 -0.86602541151947299 0 -0.49999998660252726 0.12499999665063181 0 -0.21650635287986825 1 I I -0.70710678118654746 0.70710678118654746 0.25 forward I I I I #
loop $-1 $-1 $83 $22 #
coedge $-1 $52 $52 $84 $85 reversed $32 $-1 #
face $-1 $86 $87 $18 $-1 $88 forward single #
loop $-1 $-1 $89 $34 #
plane-surface $-1 -45.954771568956588 2.5270421915002856 0.80019531846064496 -0.86602541151947299 0 0.49999998660252726 0.49999998660252726 0 0.86602541151947299 forward_v I I I I #
coedge $-1 $90 $91 $92 $93 reversed $35 $-1 #
face $-1 $94 $95 $19 $-1 $96 forward single #
loop $-1 $97 $98 $37 #
cone-surface $-1 -43.529980187863977 2.5270421915002892 1.5334444947939332 0.86602541151947299 0 -0.49999998660252726 0.12499999665063181 0 0.21650635287986825 1 I I -0.70710678118654746 0.70710678118654746 0.25 forward I I I I #
loop $-1 $-1 $99 $24 #
coedge $-1 $61 $61 $100 $101 reversed $38 $-1 #
face $-1 $102 $103 $15 $-1 $104 reversed single #
loop $-1 $-1 $105 $40 #
plane-surface $-1 0 -18.635194913948595 0 0 1 0 0 0 1 forward_v I I I I #
coedge $-1 $106 $107 $108 $109 forward $41 $-1 #
coedge $-1 $110 $43 $111 $112 forward $26 $-1 #
coedge $-1 $43 $110 $113 $114 forward $26 $-1 #
coedge $-1 $115 $116 $43 $69 reversed $117 $-1 #
edge $-1 $118 -18.635194913948595 $119 18.635194913948595 $68 $120 forward 7 unknown #
face $-1 $121 $122 $16 $-1 $123 forward single #
loop $-1 $-1 $124 $44 #
plane-surface $-1 79.596001149933585 -1.7475628599479318 126.35096557463962 0 1 0 0.86602541151947299 0 0.49999998660252726 forward_v I I I I #
coedge $-1 $125 $126 $127 $128 reversed $45 $-1 #
coedge $-1 $75 $47 $126 $129 forward $29 $-1 #
coedge $-1 $47 $74 $130 $131 reversed $29 $-1 #
coedge $-1 $132 $127 $47 $77 forward $122 $-1 #
edge $-1 $133 4.3093629657504096 $134 6.156770993989781 $76 $135 forward 7 unknown #
face $-1 $136 $137 $17 $-1 $138 forward single #
loop $-1 $-1 $139 $48 #
plane-surface $-1 79.596001149933585 6.8016472429485031 126.35096557463962 0 -1 0 -0.86602541151947299 0 -0.49999998660252726 forward_v I I I I #
loop $-1 $-1 $140 $31 #
coedge $-1 $82 $82 $83 $141 forward $49 $-1 #
coedge $-1 $83 $83 $82 $141 reversed $51 $-1 #
coedge $-1 $84 $84 $52 $85 forward $137 $-1 #
edge $-1 $142 0 $142 6.2831853071796004 $84 $143 forward 7 unknown #
face $-1 $144 $145 $18 $-1 $146 forward single #
loop $-1 $-1 $147 $53 #
plane-surface $-1 -125.55077148753458 6.8016472429485031 46.754965656061621 0 -1 0 0.86602541151947299 0 -0.49999998660252726 forward_v I I I I #
coedge $-1 $148 $149 $150 $151 reversed $54 $-1 #
coedge $-1 $91 $56 $149 $152 forward $35 $-1 #
coedge $-1 $56 $90 $153 $154 reversed $35 $-1 #
coedge $-1 $155 $150 $56 $93 forward $145 $-1 #
edge $-1 $156 -18.668022203050072 $157 -16.820614174810714 $92 $158 forward 7 unknown #
face $-1 $159 $160 $19 $-1 $161 forward single #
loop $-1 $-1 $162 $57 #
plane-surface $-1 -125.55077148753458 -1.7475628599479318 46.754965656061621 0 1 0 -0.86602541151947299 0 0.49999998660252726 forward_v I I I I #
loop $-1 $-1 $163 $37 #
coedge $-1 $98 $98 $99 $164 forward $58 $-1 #
coedge $-1 $99 $99 $98 $164 reversed $60 $-1 #
coedge $-1 $100 $100 $61 $101 forward $160 $-1 #
edge $-1 $165 0 $165 6.2831853071796004 $100 $166 forward 7 unknown #
face $-1 $167 $168 $15 $-1 $169 reversed single #
loop $-1 $-1 $170 $62 #
plane-surface $-1 -45.954771568956573 0 0 1 0 0 0 0 -1 forward_v I I I I #
coedge $-1 $171 $113 $172 $173 forward $63 $-1 #
coedge $-1 $174 $65 $171 $175 forward $41 $-1 #
coedge $-1 $65 $174 $176 $177 forward $41 $-1 #
coedge $-1 $116 $115 $65 $109 reversed $117 $-1 #
edge $-1 $178 -18.635194913948595 $179 18.635194913948595 $108 $180 forward 7 unknown #
coedge $-1 $67 $66 $181 $182 forward $26 $-1 #
coedge $-1 $183 $184 $66 $112 reversed $168 $-1 #
edge $-1 $119 -45.954771568956573 $185 45.954771568956573 $111 $186 forward 7 unknown #
coedge $-1 $105 $187 $67 $114 reversed $63 $-1 #
edge $-1 $188 -45.954771568956573 $118 45.954771568956573 $113 $189 forward 7 unknown #
coedge $-1 $108 $68 $187 $190 forward $117 $-1 #
coedge $-1 $68 $108 $183 $191 reversed $117 $-1 #
loop $-1 $-1 $115 $167 #
vertex $-1 $69 $192 #
vertex $-1 $69 $193 #
straight-curve $-1 45.954771568956573 0 4 0 1 0 I I #
face $-1 $194 $195 $16 $-1 $196 reversed single #
loop $-1 $-1 $197 $70 #
plane-surface $-1 0 0 4 0 0 1 1 0 0 forward_v I I I I #
coedge $-1 $198 $199 $197 $200 reversed $71 $-1 #
coedge $-1 $201 $73 $199 $202 reversed $45 $-1 #
coedge $-1 $73 $201 $74 $129 reversed $45 $-1 #
coedge $-1 $76 $197 $73 $128 forward $122 $-1 #
edge $-1 $203 -3.0110839556980746 $133 5.5381261471983603 $127 $204 forward 7 unknown #
edge $-1 $133 88.214726982432012 $205 91.909543137913147 $74 $206 forward 7 unknown #
coedge $-1 $207 $208 $75 $131 forward $209 $-1 #
edge $-1 $134 59.175482787319808 $205 62.375287468859156 $130 $210 forward 7 unknown #
coedge $-1 $211 $76 $208 $212 forward $122 $-1 #
vertex $-1 $128 $213 #
vertex $-1 $212 $214 #
straight-curve $-1 39.798000574966792 6.8016472429485031 4 1 0 0 I I #
face $-1 $215 $216 $17 $-1 $217 forward single #
loop $-1 $218 $84 $78 #
plane-surface $-1 1.2313555970422385e-006 2.5270421915002856 80.39619523703864 0.86602541151947299 0 0.49999998660252726 0.49999998660252726 0 -0.86602541151947299 forward_v I I I I #
coedge $-1 $219 $220 $221 $222 reversed $79 $-1 #
coedge $-1 $140 $140 $-1 $223 forward $81 $-1 #
edge $-1 $224 0 $224 6.2831853071796004 $82 $225 forward 7 unknown #
vertex $-1 $85 $226 #
ellipse-curve $-1 45.031067554836888 2.5270421915002892 2.4000976592303229 -0.86602541151947299 0 -0.49999998660252726 0.24999999330126363 0 -0.43301270575973649 1 I I #
face $-1 $227 $228 $18 $-1 $229 reversed single #
loop $-1 $-1 $230 $86 #
plane-surface $-1 0 0 4 0 0 1 1 0 0 forward_v I I I I #
coedge $-1 $231 $232 $230 $233 reversed $87 $-1 #
coedge $-1 $234 $89 $232 $235 reversed $54 $-1 #
coedge $-1 $89 $234 $90 $152 reversed $54 $-1 #
coedge $-1 $92 $230 $89 $151 forward $145 $-1 #
edge $-1 $236 -5.5381261471983603 $156 3.0110839556980746 $150 $237 forward 7 unknown #
edge $-1 $156 -3.6948161554811429 $238 -2.8450313176714033e-014 $90 $239 forward 7 unknown #
coedge $-1 $240 $241 $91 $154 forward $242 $-1 #
edge $-1 $157 19.377482828030811 $238 22.577287509570141 $153 $243 forward 7 unknown #
coedge $-1 $244 $92 $241 $245 forward $145 $-1 #
vertex $-1 $151 $246 #
vertex $-1 $245 $247 #
straight-curve $-1 -62.775385743767288 -1.7475628599479318 4 -1 0 0 I I #
face $-1 $248 $249 $19 $-1 $250 forward single #
loop $-1 $251 $100 $94 #
plane-surface $-1 -45.954771568956588 2.5270421915002856 0.80019531846064496 -0.86602541151947299 0 0.49999998660252726 0.49999998660252726 0 0.86602541151947299 forward_v I I I I #
coedge $-1 $252 $253 $254 $255 reversed $95 $-1 #
coedge $-1 $163 $163 $-1 $256 forward $97 $-1 #
edge $-1 $257 0 $257 6.2831853071796004 $98 $258 forward 7 unknown #
vertex $-1 $101 $259 #
ellipse-curve $-1 -45.031067554836895 2.5270421915002892 2.40009765923033 0.86602541151947299 0 -0.49999998660252726 0.24999999330126363 0 0.43301270575973649 1 I I #
face $-1 $-1 $117 $15 $-1 $260 reversed single #
loop $-1 $-1 $183 $102 #
plane-surface $-1 0 18.635194913948595 0 0 -1 0 0 0 -1 forward_v I I I I #
coedge $-1 $261 $181 $184 $262 forward $103 $-1 #
coedge $-1 $187 $105 $106 $175 reversed $63 $-1 #
coedge $-1 $181 $261 $105 $173 reversed $103 $-1 #
edge $-1 $188 -4 $263 4 $172 $264 forward 7 unknown #
coedge $-1 $107 $106 $261 $265 forward $41 $-1 #
edge $-1 $179 -45.954771568956573 $263 45.954771568956573 $171 $266 forward 7 unknown #
coedge $-1 $184 $183 $107 $177 reversed $168 $-1 #
edge $-1 $267 -45.954771568956573 $178 45.954771568956573 $176 $268 forward 7 unknown #
vertex $-1 $109 $269 #
vertex $-1 $190 $270 #
straight-curve $-1 45.954771568956573 0 -4 0 -1 0 I I #
coedge $-1 $170 $172 $110 $182 reversed $103 $-1 #
edge $-1 $185 -18.635194913948595 $188 18.635194913948595 $181 $271 forward 7 unknown #
coedge $-1 $176 $111 $116 $191 forward $168 $-1 #
coedge $-1 $111 $176 $170 $262 reversed $168 $-1 #
vertex $-1 $112 $272 #
straight-curve $-1 0 18.635194913948595 4 -1 0 0 I I #
coedge $-1 $113 $171 $115 $190 reversed $63 $-1 #
vertex $-1 $182 $273 #
straight-curve $-1 0 -18.635194913948595 4 1 0 0 I I #
edge $-1 $118 -4 $179 4 $115 $274 forward 7 unknown #
edge $-1 $119 -4 $178 4 $116 $275 forward 7 unknown #
point $-1 45.954771568956573 -18.635194913948595 4 #
point $-1 45.954771568956573 18.635194913948595 4 #
face $-1 $276 $277 $16 $-1 $278 reversed single #
loop $-1 $-1 $279 $121 #
plane-surface $-1 0 0 -4 0 0 1 1 0 0 forward_v I I I I #
coedge $-1 $127 $280 $124 $200 forward $122 $-1 #
coedge $-1 $199 $124 $281 $282 reversed $71 $-1 #
coedge $-1 $124 $198 $125 $202 forward $71 $-1 #
edge $-1 $283 -6.156770993989781 $203 -4.3093629657504096 $197 $284 forward 7 unknown #
coedge $-1 $126 $125 $207 $285 reversed $45 $-1 #
edge $-1 $286 -91.909543137913147 $203 -88.214726982432012 $199 $287 forward 7 unknown #
vertex $-1 $128 $288 #
straight-curve $-1 44.107363540717202 1.2635210957501428 4.0000000000000071 0 1 0 I I #
vertex $-1 $285 $289 #
straight-curve $-1 1.2313555970422385e-006 6.8016472429485031 80.39619523703864 0.49999998660252726 0 -0.86602541151947299 I I #
coedge $-1 $281 $130 $201 $285 forward $209 $-1 #
coedge $-1 $130 $290 $132 $212 reversed $209 $-1 #
loop $-1 $-1 $281 $291 #
straight-curve $-1 45.954771568956573 6.8016472429485031 63.175482787319808 0 0 -1 I I #
coedge $-1 $292 $132 $293 $294 forward $122 $-1 #
edge $-1 $134 6.8016472429485031 $295 18.635194913948595 $208 $296 forward 7 unknown #
point $-1 44.107363540717202 6.8016472429485031 4 #
point $-1 45.954771568956573 6.8016472429485031 4 #
face $-1 $297 $298 $17 $-1 $299 forward single #
loop $-1 $-1 $300 $136 #
plane-surface $-1 79.596001149933585 -1.7475628599479318 126.35096557463962 0 1 0 0.86602541151947299 0 0.49999998660252726 forward_v I I I I #
loop $-1 $-1 $301 $78 #
coedge $-1 $220 $139 $302 $303 forward $79 $-1 #
coedge $-1 $139 $219 $304 $305 reversed $79 $-1 #
coedge $-1 $306 $307 $139 $222 forward $298 $-1 #
edge $-1 $308 4.3093629657504096 $309 6.156770993989781 $221 $310 forward 7 unknown #
edge $-1 $311 1 $311 0 $140 $-1 forward 7 unknown #
vertex $-1 $141 $312 #
ellipse-curve $-1 43.746486540743838 2.5270421915002892 1.658444491444558 0.86602541151947299 0 0.49999998660252726 0.24999999330126363 0 -0.43301270575973649 1 I I #
point $-1 45.281067548138147 2.5270421915002892 1.9670849534705792 #
face $-1 $313 $314 $18 $-1 $315 reversed single #
loop $-1 $316 $317 $144 #
cone-surface $-1 44.388777047790356 2.5270421915002892 2.0292710753374368 -0.86602541151947299 0 -0.49999998660252726 0.24999999330126363 0 -0.43301270575973649 1 I I 0 1 0.5 forward I I I I #
coedge $-1 $150 $318 $147 $233 forward $145 $-1 #
coedge $-1 $232 $147 $319 $320 reversed $87 $-1 #
coedge $-1 $147 $231 $148 $235 forward $87 $-1 #
edge $-1 $321 16.820614174810714 $236 18.668022203050072 $230 $322 forward 7 unknown #
coedge $-1 $149 $148 $240 $323 reversed $54 $-1 #
edge $-1 $324 2.8450313176714033e-014 $236 3.6948161554811429 $232 $325 forward 7 unknown #
vertex $-1 $151 $326 #
straight-curve $-1 -44.107363540717216 1.2635210957501428 4 0 -1 0 I I #
vertex $-1 $323 $327 #
straight-curve $-1 -45.954771568956588 -1.7475628599479318 0.80019531846064496 -0.49999998660252726 0 -0.86602541151947299 I I #
coedge $-1 $319 $153 $234 $323 forward $242 $-1 #
coedge $-1 $153 $328 $155 $245 reversed $242 $-1 #
loop $-1 $-1 $319 $329 #
straight-curve $-1 -45.954771568956573 -1.7475628599479318 23.377482828030811 0 0 -1 I I #
coedge $-1 $330 $155 $331 $332 forward $145 $-1 #
edge $-1 $157 1.7475628599479318 $333 18.635194913948595 $241 $334 forward 7 unknown #
point $-1 -44.107363540717216 -1.7475628599479318 4 #
point $-1 -45.954771568956573 -1.7475628599479318 4 #
face $-1 $335 $336 $19 $-1 $337 forward single #
loop $-1 $-1 $338 $159 #
plane-surface $-1 -125.55077148753458 6.8016472429485031 46.754965656061621 0 -1 0 0.86602541151947299 0 -0.49999998660252726 forward_v I I I I #
loop $-1 $-1 $339 $94 #
coedge $-1 $253 $162 $340 $341 forward $95 $-1 #
coedge $-1 $162 $252 $342 $343 reversed $95 $-1 #
coedge $-1 $344 $345 $162 $255 forward $336 $-1 #
edge $-1 $346 -18.668022203050072 $347 -16.820614174810714 $254 $348 forward 7 unknown #
edge $-1 $349 1 $349 0 $163 $-1 forward 7 unknown #
vertex $-1 $164 $350 #
ellipse-curve $-1 -43.746486540743845 2.5270421915002892 1.6584444914445651 -0.86602541151947299 0 0.49999998660252726 0.24999999330126363 0 0.43301270575973649 1 I I #
point $-1 -44.781067561535622 2.5270421915002892 2.8331103649900595 #
plane-surface $-1 45.954771568956573 0 0 -1 0 0 0 0 1 forward_v I I I I #
coedge $-1 $172 $170 $174 $265 reversed $103 $-1 #
edge $-1 $185 -4 $267 4 $184 $351 forward 7 unknown #
vertex $-1 $265 $352 #
straight-curve $-1 -45.954771568956573 -18.635194913948595 0 0 0 -1 I I #
edge $-1 $263 -18.635194913948595 $267 18.635194913948595 $261 $353 forward 7 unknown #
straight-curve $-1 0 -18.635194913948595 -4 -1 0 0 I I #
vertex $-1 $177 $354 #
straight-curve $-1 0 18.635194913948595 -4 1 0 0 I I #
point $-1 45.954771568956573 18.635194913948595 -4 #
point $-1 45.954771568956573 -18.635194913948595 -4 #
straight-curve $-1 -45.954771568956573 0 4 0 -1 0 I I #
point $-1 -45.954771568956573 18.635194913948595 4 #
point $-1 -45.954771568956573 -18.635194913948595 4 #
straight-curve $-1 45.954771568956573 -18.635194913948595 0 0 0 -1 I I #
straight-curve $-1 45.954771568956573 18.635194913948595 0 0 0 -1 I I #
face $-1 $355 $356 $16 $-1 $357 reversed single #
loop $-1 $-1 $358 $194 #
plane-surface $-1 0 -18.635194913948595 0 0 1 0 0 0 1 forward_v I I I I #
coedge $-1 $359 $360 $361 $362 forward $195 $-1 #
coedge $-1 $197 $363 $364 $365 forward $122 $-1 #
coedge $-1 $364 $207 $198 $282 forward $209 $-1 #
edge $-1 $286 -62.375287468859156 $283 -59.175482787319808 $281 $366 forward 7 unknown #
vertex $-1 $282 $367 #
straight-curve $-1 39.798000574966792 -1.7475628599479318 4 -1 0 0 I I #
edge $-1 $205 -5.5381261471983603 $286 3.0110839556980746 $207 $368 forward 7 unknown #
vertex $-1 $285 $369 #
straight-curve $-1 1.2313555970422385e-006 -1.7475628599479318 80.39619523703864 -0.49999998660252726 0 0.86602541151947299 I I #
point $-1 44.107363540717202 -1.7475628599479318 4 #
point $-1 45.954771568956573 6.8016472429485031 0.80019531846065206 #
coedge $-1 $208 $361 $370 $371 reversed $209 $-1 #
face $-1 $-1 $209 $16 $-1 $372 reversed single #
coedge $-1 $363 $211 $373 $374 forward $122 $-1 #
coedge $-1 $370 $375 $211 $294 reversed $376 $-1 #
edge $-1 $295 -45.954771568956573 $377 45.954771568956573 $293 $378 forward 7 unknown #
vertex $-1 $212 $379 #
straight-curve $-1 45.954771568956573 0 4 0 1 0 I I #
face $-1 $380 $381 $17 $-1 $382 reversed single #
loop $-1 $-1 $383 $215 #
plane-surface $-1 0 0 4 0 0 1 1 0 0 forward_v I I I I #
coedge $-1 $384 $385 $383 $386 reversed $216 $-1 #
coedge $-1 $387 $302 $307 $388 reversed $218 $-1 #
coedge $-1 $301 $389 $219 $303 reversed $218 $-1 #
edge $-1 $308 88.214726982432012 $390 91.909543137913147 $219 $391 forward 7 unknown #
coedge $-1 $392 $393 $220 $305 forward $394 $-1 #
edge $-1 $309 59.175482787319808 $390 62.375287468859156 $304 $395 forward 7 unknown #
coedge $-1 $396 $221 $393 $397 forward $298 $-1 #
coedge $-1 $221 $383 $301 $388 forward $298 $-1 #
vertex $-1 $388 $398 #
vertex $-1 $397 $399 #
straight-curve $-1 39.798000574966792 6.8016472429485031 4 1 0 0 I I #
vertex $-1 $223 $400 #
point $-1 43.996486534045104 2.5270421915002892 1.2254317856848214 #
face $-1 $401 $402 $18 $-1 $403 forward single #
loop $-1 $404 $405 $227 #
cone-surface $-1 43.52998018786397 2.5270421915002892 1.5334444947939261 -0.86602541151947299 0 -0.49999998660252726 0.12499999665063181 0 -0.21650635287986825 1 I I -0.70710678118654746 0.70710678118654746 0.25 forward I I I I #
loop $-1 $-1 $406 $144 #
coedge $-1 $317 $317 $407 $408 reversed $228 $-1 #
coedge $-1 $230 $409 $410 $411 forward $145 $-1 #
coedge $-1 $410 $240 $231 $320 forward $242 $-1 #
edge $-1 $324 -22.577287509570141 $321 -19.377482828030811 $319 $412 forward 7 unknown #
vertex $-1 $320 $413 #
straight-curve $-1 -62.775385743767288 6.8016472429485031 4 1 0 0 I I #
edge $-1 $238 -3.0110839556980746 $324 5.5381261471983603 $240 $414 forward 7 unknown #
vertex $-1 $323 $415 #
straight-curve $-1 -45.954771568956588 6.8016472429485031 0.80019531846064496 0.49999998660252726 0 0.86602541151947299 I I #
point $-1 -44.107363540717216 6.8016472429485031 4 #
point $-1 -45.954771568956573 -1.7475628599479318 0.8001953184606696 #
coedge $-1 $241 $416 $417 $418 reversed $242 $-1 #
face $-1 $419 $242 $18 $-1 $420 reversed single #
coedge $-1 $421 $244 $422 $423 forward $145 $-1 #
coedge $-1 $417 $424 $244 $332 reversed $425 $-1 #
edge $-1 $333 -45.954771568956573 $426 45.954771568956573 $331 $427 forward 7 unknown #
vertex $-1 $245 $428 #
straight-curve $-1 -45.954771568956573 0 4 0 -1 0 I I #
face $-1 $429 $430 $19 $-1 $431 reversed single #
loop $-1 $-1 $432 $248 #
plane-surface $-1 0 0 4 0 0 1 1 0 0 forward_v I I I I #
coedge $-1 $433 $434 $432 $435 reversed $249 $-1 #
coedge $-1 $436 $340 $345 $437 reversed $251 $-1 #
coedge $-1 $339 $438 $252 $341 reversed $251 $-1 #
edge $-1 $346 -3.6948161554811429 $439 -2.8450313176714033e-014 $252 $440 forward 7 unknown #
coedge $-1 $441 $442 $253 $343 forward $443 $-1 #
edge $-1 $347 19.377482828030811 $439 22.577287509570141 $342 $444 forward 7 unknown #
coedge $-1 $445 $254 $442 $446 forward $336 $-1 #
coedge $-1 $254 $432 $339 $437 forward $336 $-1 #
vertex $-1 $437 $447 #
vertex $-1 $446 $448 #
straight-curve $-1 -62.775385743767288 -1.7475628599479318 4 -1 0 0 I I #
vertex $-1 $256 $449 #
point $-1 -43.496486547442579 2.5270421915002892 2.0914571972043015 #
straight-curve $-1 -45.954771568956573 18.635194913948595 0 0 0 -1 I I #
point $-1 -45.954771568956573 -18.635194913948595 -4 #
straight-curve $-1 -45.954771568956573 0 -4 0 1 0 I I #
point $-1 -45.954771568956573 18.635194913948595 -4 #
face $-1 $291 $376 $16 $-1 $450 reversed single #
loop $-1 $-1 $451 $276 #
plane-surface $-1 -45.954771568956573 0 0 1 0 0 0 0 -1 forward_v I I I I #
coedge $-1 $452 $453 $454 $455 forward $277 $-1 #
coedge $-1 $456 $279 $452 $457 forward $195 $-1 #
coedge $-1 $279 $456 $458 $459 forward $195 $-1 #
coedge $-1 $290 $460 $279 $362 reversed $209 $-1 #
edge $-1 $461 -18.635194913948595 $462 18.635194913948595 $361 $463 forward 7 unknown #
coedge $-1 $280 $292 $453 $464 forward $122 $-1 #
coedge $-1 $460 $281 $280 $365 reversed $209 $-1 #
edge $-1 $465 -18.635194913948595 $283 -1.7475628599479318 $364 $296 forward 7 unknown #
straight-curve $-1 45.954771568956573 -1.7475628599479318 63.175482787319808 0 0 1 I I #
point $-1 45.954771568956573 -1.7475628599479318 4 #
straight-curve $-1 45.954771568956573 1.2635210957501428 0.80019531846065206 0 -1 0 I I #
point $-1 45.954771568956573 -1.7475628599479318 0.80019531846065206 #
coedge $-1 $458 $293 $290 $371 forward $376 $-1 #
edge $-1 $295 -4 $461 4 $290 $466 forward 7 unknown #
plane-surface $-1 45.954771568956573 0 0 -1 0 0 0 0 1 forward_v I I I I #
coedge $-1 $451 $454 $292 $374 reversed $356 $-1 #
edge $-1 $377 -18.635194913948595 $467 18.635194913948595 $373 $468 forward 7 unknown #
coedge $-1 $293 $458 $451 $469 reversed $376 $-1 #
loop $-1 $-1 $370 $355 #
vertex $-1 $294 $470 #
straight-curve $-1 0 18.635194913948595 4 -1 0 0 I I #
point $-1 45.954771568956573 18.635194913948595 4 #
face $-1 $471 $472 $17 $-1 $473 reversed single #
loop $-1 $-1 $474 $297 #
plane-surface $-1 0 0 -4 0 0 1 1 0 0 forward_v I I I I #
coedge $-1 $307 $475 $300 $386 forward $298 $-1 #
coedge $-1 $385 $300 $476 $477 reversed $216 $-1 #
coedge $-1 $300 $384 $387 $478 forward $216 $-1 #
edge $-1 $479 -6.156770993989781 $480 -4.3093629657504096 $383 $481 forward 7 unknown #
coedge $-1 $389 $301 $385 $478 reversed $218 $-1 #
edge $-1 $480 -3.0110839556980746 $308 5.5381261471983603 $307 $482 forward 7 unknown #
coedge $-1 $302 $387 $392 $483 reversed $218 $-1 #
vertex $-1 $483 $484 #
straight-curve $-1 1.2313555970422385e-006 6.8016472429485031 80.39619523703864 0.49999998660252726 0 -0.86602541151947299 I I #
coedge $-1 $476 $304 $389 $483 forward $394 $-1 #
coedge $-1 $304 $485 $306 $397 reversed $394 $-1 #
loop $-1 $-1 $476 $486 #
straight-curve $-1 45.954771568956573 6.8016472429485031 63.175482787319808 0 0 -1 I I #
coedge $-1 $487 $306 $488 $489 forward $298 $-1 #
edge $-1 $309 6.8016472429485031 $490 18.635194913948595 $393 $491 forward 7 unknown #
point $-1 44.107363540717202 6.8016472429485031 4 #
point $-1 45.954771568956573 6.8016472429485031 4 #
point $-1 43.313473834984102 2.5270421915002892 1.4084444981432942 #
face $-1 $492 $493 $18 $-1 $494 forward single #
loop $-1 $-1 $495 $313 #
plane-surface $-1 79.596001149933585 6.8016472429485031 126.35096557463962 0 -1 0 -0.86602541151947299 0 -0.49999998660252726 forward_v I I I I #
loop $-1 $-1 $496 $227 #
coedge $-1 $405 $405 $406 $497 forward $314 $-1 #
coedge $-1 $406 $406 $405 $497 reversed $316 $-1 #
coedge $-1 $407 $407 $317 $408 forward $493 $-1 #
edge $-1 $498 0 $498 6.2831853071796004 $407 $499 forward 7 unknown #
coedge $-1 $318 $500 $501 $502 forward $145 $-1 #
coedge $-1 $503 $319 $318 $411 reversed $242 $-1 #
edge $-1 $504 -18.635194913948595 $321 -6.8016472429485031 $410 $334 forward 7 unknown #
straight-curve $-1 -45.954771568956573 6.8016472429485031 23.377482828030811 0 0 1 I I #
point $-1 -45.954771568956573 6.8016472429485031 4 #
straight-curve $-1 -45.954771568956573 1.2635210957501428 0.8001953184606716 0 1 0 I I #
point $-1 -45.954771568956573 6.8016472429485031 0.8001953184606696 #
coedge $-1 $328 $503 $505 $506 reversed $242 $-1 #
coedge $-1 $507 $331 $328 $418 forward $425 $-1 #
edge $-1 $333 -4 $508 4 $328 $509 forward 7 unknown #
face $-1 $510 $511 $18 $-1 $512 reversed single #
plane-surface $-1 -45.954771568956573 0 0 1 0 0 0 0 -1 forward_v I I I I #
coedge $-1 $513 $330 $514 $515 forward $145 $-1 #
coedge $-1 $516 $517 $330 $423 reversed $518 $-1 #
edge $-1 $426 -18.635194913948595 $519 -1.7475628599479318 $422 $520 forward 7 unknown #
coedge $-1 $331 $507 $516 $521 reversed $425 $-1 #
loop $-1 $-1 $417 $522 #
vertex $-1 $423 $523 #
straight-curve $-1 0 -18.635194913948595 4 1 0 0 I I #
point $-1 -45.954771568956573 -18.635194913948595 4 #
face $-1 $524 $525 $19 $-1 $526 reversed single #
loop $-1 $527 $528 $335 #
cone-surface $-1 44.388777047790356 2.5270421915002892 2.0292710753374368 -0.86602541151947299 0 -0.49999998660252726 0.24999999330126363 0 -0.43301270575973649 1 I I 0 1 0.5 forward I I I I #
coedge $-1 $345 $529 $338 $435 forward $336 $-1 #
coedge $-1 $434 $338 $530 $531 reversed $249 $-1 #
coedge $-1 $338 $433 $436 $532 forward $249 $-1 #
edge $-1 $533 16.820614174810714 $534 18.668022203050072 $432 $535 forward 7 unknown #
coedge $-1 $438 $339 $434 $532 reversed $251 $-1 #
edge $-1 $534 -5.5381261471983603 $346 3.0110839556980746 $345 $536 forward 7 unknown #
coedge $-1 $340 $436 $441 $537 reversed $251 $-1 #
vertex $-1 $537 $538 #
straight-curve $-1 -45.954771568956588 -1.7475628599479318 0.80019531846064496 -0.49999998660252726 0 -0.86602541151947299 I I #
coedge $-1 $530 $342 $438 $537 forward $443 $-1 #
coedge $-1 $342 $539 $344 $446 reversed $443 $-1 #
loop $-1 $-1 $530 $540 #
straight-curve $-1 -45.954771568956573 -1.7475628599479318 23.377482828030811 0 0 -1 I I #
coedge $-1 $541 $344 $542 $543 forward $336 $-1 #
edge $-1 $347 1.7475628599479318 $544 18.635194913948595 $442 $545 forward 7 unknown #
point $-1 -44.107363540717216 -1.7475628599479318 4 #
point $-1 -45.954771568956573 -1.7475628599479318 4 #
point $-1 -43.313473834984109 2.5270421915002892 1.4084444981433013 #
plane-surface $-1 0 18.635194913948595 0 0 -1 0 0 0 -1 forward_v I I I I #
coedge $-1 $546 $373 $375 $469 forward $356 $-1 #
coedge $-1 $547 $358 $359 $457 reversed $277 $-1 #
coedge $-1 $358 $547 $363 $464 reversed $277 $-1 #
coedge $-1 $373 $546 $358 $455 reversed $356 $-1 #
edge $-1 $467 -4 $548 4 $454 $549 forward 7 unknown #
coedge $-1 $360 $359 $546 $550 forward $195 $-1 #
edge $-1 $462 -45.954771568956573 $548 45.954771568956573 $452 $551 forward 7 unknown #
coedge $-1 $375 $370 $360 $459 reversed $376 $-1 #
edge $-1 $552 -45.954771568956573 $461 45.954771568956573 $458 $553 forward 7 unknown #
coedge $-1 $361 $364 $547 $554 forward $209 $-1 #
vertex $-1 $362 $555 #
vertex $-1 $554 $556 #
straight-curve $-1 45.954771568956573 0 -4 0 -1 0 I I #
edge $-1 $467 -45.954771568956573 $465 45.954771568956573 $453 $557 forward 7 unknown #
vertex $-1 $365 $558 #
straight-curve $-1 45.954771568956573 18.635194913948595 0 0 0 -1 I I #
vertex $-1 $374 $559 #
straight-curve $-1 -45.954771568956573 0 4 0 -1 0 I I #
edge $-1 $377 -4 $552 4 $375 $560 forward 7 unknown #
point $-1 -45.954771568956573 18.635194913948595 4 #
face $-1 $561 $562 $17 $-1 $563 reversed single #
loop $-1 $-1 $564 $380 #
plane-surface $-1 0 -18.635194913948595 0 0 1 0 0 0 1 forward_v I I I I #
coedge $-1 $565 $566 $567 $568 forward $381 $-1 #
coedge $-1 $383 $569 $570 $571 forward $298 $-1 #
coedge $-1 $570 $392 $384 $477 forward $394 $-1 #
edge $-1 $572 -62.375287468859156 $479 -59.175482787319808 $476 $573 forward 7 unknown #
edge $-1 $572 -91.909543137913147 $480 -88.214726982432012 $385 $574 forward 7 unknown #
vertex $-1 $477 $575 #
vertex $-1 $388 $576 #
straight-curve $-1 39.798000574966792 -1.7475628599479318 4 -1 0 0 I I #
straight-curve $-1 44.107363540717202 1.2635210957501428 4.0000000000000071 0 1 0 I I #
edge $-1 $390 -5.5381261471983603 $572 3.0110839556980746 $392 $577 forward 7 unknown #
point $-1 45.954771568956573 6.8016472429485031 0.80019531846065206 #
coedge $-1 $393 $567 $578 $579 reversed $394 $-1 #
face $-1 $-1 $394 $17 $-1 $580 reversed single #
coedge $-1 $569 $396 $581 $582 forward $298 $-1 #
coedge $-1 $578 $583 $396 $489 reversed $584 $-1 #
edge $-1 $490 -45.954771568956573 $585 45.954771568956573 $488 $586 forward 7 unknown #
vertex $-1 $397 $587 #
straight-curve $-1 45.954771568956573 0 4 0 1 0 I I #
face $-1 $588 $589 $18 $-1 $590 forward single #
loop $-1 $591 $407 $401 #
plane-surface $-1 1.2313555970422385e-006 2.5270421915002856 80.39619523703864 0.86602541151947299 0 0.49999998660252726 0.49999998660252726 0 -0.86602541151947299 forward_v I I I I #
coedge $-1 $592 $593 $594 $595 reversed $402 $-1 #
coedge $-1 $496 $496 $-1 $596 forward $404 $-1 #
edge $-1 $597 0 $597 6.2831853071796004 $405 $598 forward 7 unknown #
vertex $-1 $408 $599 #
ellipse-curve $-1 45.031067554836888 2.5270421915002892 2.4000976592303229 -0.86602541151947299 0 -0.49999998660252726 0.24999999330126363 0 -0.43301270575973649 1 I I #
coedge $-1 $409 $594 $600 $601 forward $145 $-1 #
coedge $-1 $602 $603 $409 $502 reversed $511 $-1 #
edge $-1 $604 -45.954771568956573 $504 45.954771568956573 $501 $605 forward 7 unknown #
coedge $-1 $416 $410 $603 $606 forward $242 $-1 #
vertex $-1 $502 $607 #
coedge $-1 $608 $609 $416 $506 forward $610 $-1 #
edge $-1 $508 -18.635194913948595 $611 18.635194913948595 $416 $612 forward 7 unknown #
coedge $-1 $424 $417 $609 $613 reversed $425 $-1 #
vertex $-1 $506 $614 #
straight-curve $-1 -45.954771568956573 -18.635194913948595 0 0 0 -1 I I #
face $-1 $-1 $518 $18 $-1 $615 reversed single #
loop $-1 $-1 $602 $419 #
plane-surface $-1 0 18.635194913948595 0 0 -1 0 0 0 -1 forward_v I I I I #
coedge $-1 $594 $421 $616 $617 forward $145 $-1 #
coedge $-1 $618 $619 $421 $515 reversed $589 $-1 #
edge $-1 $519 -6.156770993989781 $620 -4.3093629657504096 $421 $621 forward 7 unknown #
coedge $-1 $622 $422 $424 $521 forward $518 $-1 #
coedge $-1 $422 $623 $618 $624 forward $518 $-1 #
loop $-1 $-1 $517 $510 #
vertex $-1 $624 $625 #
straight-curve $-1 45.954771568956573 0 4 0 1 0 I I #
edge $-1 $426 -4 $626 4 $516 $627 forward 7 unknown #
face $-1 $329 $425 $18 $-1 $628 reversed single #
point $-1 45.954771568956573 -18.635194913948595 4 #
face $-1 $629 $630 $19 $-1 $631 forward single #
loop $-1 $632 $633 $429 #
cone-surface $-1 43.52998018786397 2.5270421915002892 1.5334444947939261 -0.86602541151947299 0 -0.49999998660252726 0.12499999665063181 0 -0.21650635287986825 1 I I -0.70710678118654746 0.70710678118654746 0.25 forward I I I I #
loop $-1 $-1 $634 $335 #
coedge $-1 $528 $528 $635 $636 reversed $430 $-1 #
coedge $-1 $432 $637 $638 $639 forward $336 $-1 #
coedge $-1 $638 $441 $433 $531 forward $443 $-1 #
edge $-1 $640 -22.577287509570141 $533 -19.377482828030811 $530 $641 forward 7 unknown #
edge $-1 $640 2.8450313176714033e-014 $534 3.6948161554811429 $434 $642 forward 7 unknown #
vertex $-1 $531 $643 #
vertex $-1 $437 $644 #
straight-curve $-1 -62.775385743767288 6.8016472429485031 4 1 0 0 I I #
straight-curve $-1 -44.107363540717216 1.2635210957501428 4 0 -1 0 I I #
edge $-1 $439 -3.0110839556980746 $640 5.5381261471983603 $441 $645 forward 7 unknown #
point $-1 -45.954771568956573 -1.7475628599479318 0.8001953184606696 #
coedge $-1 $442 $646 $647 $648 reversed $443 $-1 #
face $-1 $649 $443 $19 $-1 $650 reversed single #
coedge $-1 $651 $445 $652 $653 forward $336 $-1 #
coedge $-1 $647 $654 $445 $543 reversed $655 $-1 #
edge $-1 $544 -45.954771568956573 $656 45.954771568956573 $542 $657 forward 7 unknown #
vertex $-1 $446 $658 #
straight-curve $-1 -45.954771568956573 0 4 0 -1 0 I I #
coedge $-1 $454 $451 $456 $550 reversed $356 $-1 #
coedge $-1 $453 $452 $460 $554 reversed $277 $-1 #
vertex $-1 $550 $659 #
straight-curve $-1 -45.954771568956573 -18.635194913948595 0 0 0 -1 I I #
edge $-1 $548 -18.635194913948595 $552 18.635194913948595 $546 $660 forward 7 unknown #
straight-curve $-1 0 -18.635194913948595 -4 -1 0 0 I I #
vertex $-1 $459 $661 #
straight-curve $-1 0 18.635194913948595 -4 1 0 0 I I #
edge $-1 $465 -4 $462 4 $460 $662 forward 7 unknown #
point $-1 45.954771568956573 18.635194913948595 -4 #
point $-1 45.954771568956573 -18.635194913948595 -4 #
straight-curve $-1 0 -18.635194913948595 4 1 0 0 I I #
point $-1 45.954771568956573 -18.635194913948595 4 #
point $-1 -45.954771568956573 -18.635194913948595 4 #
straight-curve $-1 -45.954771568956573 18.635194913948595 0 0 0 -1 I I #
face $-1 $486 $584 $17 $-1 $663 reversed single #
loop $-1 $-1 $664 $471 #
plane-surface $-1 -45.954771568956573 0 0 1 0 0 0 0 -1 forward_v I I I I #
coedge $-1 $665 $666 $667 $668 forward $472 $-1 #
coedge $-1 $669 $474 $665 $670 forward $381 $-1 #
coedge $-1 $474 $669 $671 $672 forward $381 $-1 #
coedge $-1 $485 $673 $474 $568 reversed $394 $-1 #
edge $-1 $674 -18.635194913948595 $675 18.635194913948595 $567 $676 forward 7 unknown #
coedge $-1 $475 $487 $666 $677 forward $298 $-1 #
coedge $-1 $673 $476 $475 $571 reversed $394 $-1 #
edge $-1 $678 -18.635194913948595 $479 -1.7475628599479318 $570 $491 forward 7 unknown #
vertex $-1 $483 $679 #
straight-curve $-1 45.954771568956573 -1.7475628599479318 63.175482787319808 0 0 1 I I #
straight-curve $-1 1.2313555970422385e-006 -1.7475628599479318 80.39619523703864 -0.49999998660252726 0 0.86602541151947299 I I #
point $-1 45.954771568956573 -1.7475628599479318 4 #
point $-1 44.107363540717202 -1.7475628599479318 4 #
straight-curve $-1 45.954771568956573 1.2635210957501428 0.80019531846065206 0 -1 0 I I #
coedge $-1 $671 $488 $485 $579 forward $584 $-1 #
edge $-1 $490 -4 $674 4 $485 $680 forward 7 unknown #
plane-surface $-1 45.954771568956573 0 0 -1 0 0 0 0 1 forward_v I I I I #
coedge $-1 $664 $667 $487 $582 reversed $562 $-1 #
edge $-1 $585 -18.635194913948595 $681 18.635194913948595 $581 $682 forward 7 unknown #
coedge $-1 $488 $671 $664 $683 reversed $584 $-1 #
loop $-1 $-1 $578 $561 #
vertex $-1 $489 $684 #
straight-curve $-1 0 18.635194913948595 4 -1 0 0 I I #
point $-1 45.954771568956573 18.635194913948595 4 #
face $-1 $522 $610 $18 $-1 $685 reversed single #
loop $-1 $-1 $514 $492 #
plane-surface $-1 79.596001149933585 -1.7475628599479318 126.35096557463962 0 1 0 0.86602541151947299 0 0.49999998660252726 forward_v I I I I #
loop $-1 $-1 $616 $401 #
coedge $-1 $593 $495 $686 $687 forward $402 $-1 #
coedge $-1 $495 $592 $688 $689 reversed $402 $-1 #
coedge $-1 $500 $513 $495 $595 forward $145 $-1 #
edge $-1 $690 4.3093629657504096 $691 6.156770993989781 $594 $692 forward 7 unknown #
edge $-1 $693 1 $693 0 $496 $-1 forward 7 unknown #
vertex $-1 $497 $694 #
ellipse-curve $-1 43.746486540743838 2.5270421915002892 1.658444491444558 0.86602541151947299 0 0.49999998660252726 0.24999999330126363 0 -0.43301270575973649 1 I I #
point $-1 45.281067548138147 2.5270421915002892 1.9670849534705792 #
coedge $-1 $688 $695 $500 $601 reversed $518 $-1 #
edge $-1 $691 6.8016472429485031 $604 18.635194913948595 $600 $520 forward 7 unknown #
coedge $-1 $696 $501 $695 $697 forward $511 $-1 #
coedge $-1 $501 $696 $503 $606 reversed $511 $-1 #
vertex $-1 $601 $698 #
straight-curve $-1 0 18.635194913948595 4 -1 0 0 I I #
edge $-1 $504 -4 $611 4 $603 $699 forward 7 unknown #
point $-1 -45.954771568956573 18.635194913948595 4 #
coedge $-1 $700 $505 $696 $701 forward $610 $-1 #
coedge $-1 $505 $700 $507 $613 forward $610 $-1 #
loop $-1 $-1 $700 $588 #
vertex $-1 $701 $702 #
straight-curve $-1 -45.954771568956573 0 -4 0 1 0 I I #
edge $-1 $626 -45.954771568956573 $508 45.954771568956573 $507 $703 forward 7 unknown #
point $-1 -45.954771568956573 -18.635194913948595 -4 #
plane-surface $-1 45.954771568956573 0 0 -1 0 0 0 0 1 forward_v I I I I #
coedge $-1 $704 $686 $513 $617 reversed $591 $-1 #
edge $-1 $620 -3.0110839556980746 $690 5.5381261471983603 $513 $705 forward 7 unknown #
coedge $-1 $619 $514 $517 $624 reversed $589 $-1 #
coedge $-1 $514 $618 $704 $706 forward $589 $-1 #
vertex $-1 $617 $707 #
straight-curve $-1 39.798000574966792 -1.7475628599479318 4 -1 0 0 I I #
coedge $-1 $695 $516 $700 $708 reversed $518 $-1 #
coedge $-1 $517 $688 $709 $710 forward $518 $-1 #
edge $-1 $711 -62.375287468859156 $519 -59.175482787319808 $517 $712 forward 7 unknown #
point $-1 45.954771568956573 -1.7475628599479318 4 #
vertex $-1 $521 $713 #
straight-curve $-1 45.954771568956573 -18.635194913948595 0 0 0 -1 I I #
plane-surface $-1 0 -18.635194913948595 0 0 1 0 0 0 1 forward_v I I I I #
face $-1 $714 $715 $19 $-1 $716 forward single #
loop $-1 $-1 $717 $524 #
plane-surface $-1 79.596001149933585 6.8016472429485031 126.35096557463962 0 -1 0 -0.86602541151947299 0 -0.49999998660252726 forward_v I I I I #
loop $-1 $-1 $718 $429 #
coedge $-1 $633 $633 $634 $719 forward $525 $-1 #
coedge $-1 $634 $634 $633 $719 reversed $527 $-1 #
coedge $-1 $635 $635 $528 $636 forward $715 $-1 #
edge $-1 $720 0 $720 6.2831853071796004 $635 $721 forward 7 unknown #
coedge $-1 $529 $722 $723 $724 forward $336 $-1 #
coedge $-1 $725 $530 $529 $639 reversed $443 $-1 #
edge $-1 $726 -18.635194913948595 $533 -6.8016472429485031 $638 $545 forward 7 unknown #
vertex $-1 $537 $727 #
straight-curve $-1 -45.954771568956573 6.8016472429485031 23.377482828030811 0 0 1 I I #
straight-curve $-1 -45.954771568956588 6.8016472429485031 0.80019531846064496 0.49999998660252726 0 0.86602541151947299 I I #
point $-1 -45.954771568956573 6.8016472429485031 4 #
point $-1 -44.107363540717216 6.8016472429485031 4 #
straight-curve $-1 -45.954771568956573 1.2635210957501428 0.8001953184606716 0 1 0 I I #
coedge $-1 $539 $725 $728 $729 reversed $443 $-1 #
coedge $-1 $730 $542 $539 $648 forward $655 $-1 #
edge $-1 $544 -4 $731 4 $539 $732 forward 7 unknown #
face $-1 $733 $734 $19 $-1 $735 reversed single #
plane-surface $-1 -45.954771568956573 0 0 1 0 0 0 0 -1 forward_v I I I I #
coedge $-1 $736 $541 $737 $738 forward $336 $-1 #
coedge $-1 $739 $740 $541 $653 reversed $741 $-1 #
edge $-1 $656 -18.635194913948595 $742 -1.7475628599479318 $652 $743 forward 7 unknown #
coedge $-1 $542 $730 $739 $744 reversed $655 $-1 #
loop $-1 $-1 $647 $745 #
vertex $-1 $653 $746 #
straight-curve $-1 0 -18.635194913948595 4 1 0 0 I I #
point $-1 -45.954771568956573 -18.635194913948595 4 #
point $-1 -45.954771568956573 -18.635194913948595 -4 #
straight-curve $-1 -45.954771568956573 0 -4 0 1 0 I I #
point $-1 -45.954771568956573 18.635194913948595 -4 #
straight-curve $-1 45.954771568956573 -18.635194913948595 0 0 0 -1 I I #
plane-surface $-1 0 18.635194913948595 0 0 -1 0 0 0 -1 forward_v I I I I #
coedge $-1 $747 $581 $583 $683 forward $562 $-1 #
coedge $-1 $748 $564 $565 $670 reversed $472 $-1 #
coedge $-1 $564 $748 $569 $677 reversed $472 $-1 #
coedge $-1 $581 $747 $564 $668 reversed $562 $-1 #
edge $-1 $681 -4 $749 4 $667 $750 forward 7 unknown #
coedge $-1 $566 $565 $747 $751 forward $381 $-1 #
edge $-1 $675 -45.954771568956573 $749 45.954771568956573 $665 $752 forward 7 unknown #
coedge $-1 $583 $578 $566 $672 reversed $584 $-1 #
edge $-1 $753 -45.954771568956573 $674 45.954771568956573 $671 $754 forward 7 unknown #
coedge $-1 $567 $570 $748 $755 forward $394 $-1 #
vertex $-1 $568 $756 #
vertex $-1 $755 $757 #
straight-curve $-1 45.954771568956573 0 -4 0 -1 0 I I #
edge $-1 $681 -45.954771568956573 $678 45.954771568956573 $666 $758 forward 7 unknown #
vertex $-1 $571 $759 #
point $-1 45.954771568956573 -1.7475628599479318 0.80019531846065206 #
straight-curve $-1 45.954771568956573 18.635194913948595 0 0 0 -1 I I #
vertex $-1 $582 $760 #
straight-curve $-1 -45.954771568956573 0 4 0 -1 0 I I #
edge $-1 $585 -4 $753 4 $583 $761 forward 7 unknown #
point $-1 -45.954771568956573 18.635194913948595 4 #
plane-surface $-1 0 0 -4 0 0 1 1 0 0 forward_v I I I I #
coedge $-1 $616 $709 $592 $687 reversed $591 $-1 #
edge $-1 $690 88.214726982432012 $762 91.909543137913147 $592 $763 forward 7 unknown #
coedge $-1 $623 $600 $593 $689 forward $518 $-1 #
edge $-1 $691 59.175482787319808 $762 62.375287468859156 $688 $764 forward 7 unknown #
vertex $-1 $617 $765 #
vertex $-1 $601 $766 #
straight-curve $-1 39.798000574966792 6.8016472429485031 4 1 0 0 I I #
vertex $-1 $596 $767 #
point $-1 43.996486534045104 2.5270421915002892 1.2254317856848214 #
coedge $-1 $600 $622 $602 $697 reversed $518 $-1 #
coedge $-1 $603 $602 $608 $701 reversed $511 $-1 #
edge $-1 $604 -4 $768 4 $695 $769 forward 7 unknown #
point $-1 45.954771568956573 18.635194913948595 4 #
straight-curve $-1 -45.954771568956573 18.635194913948595 0 0 0 -1 I I #
coedge $-1 $609 $608 $622 $708 forward $610 $-1 #
edge $-1 $611 -45.954771568956573 $768 45.954771568956573 $696 $770 forward 7 unknown #
point $-1 -45.954771568956573 18.635194913948595 -4 #
straight-curve $-1 0 -18.635194913948595 -4 -1 0 0 I I #
coedge $-1 $709 $616 $619 $706 reversed $591 $-1 #
straight-curve $-1 44.107363540717202 1.2635210957501428 4.0000000000000071 0 1 0 I I #
edge $-1 $711 -91.909543137913147 $620 -88.214726982432012 $619 $771 forward 7 unknown #
point $-1 44.107363540717202 -1.7475628599479318 4 #
edge $-1 $768 -18.635194913948595 $626 18.635194913948595 $622 $772 forward 7 unknown #
coedge $-1 $686 $704 $623 $710 reversed $591 $-1 #
edge $-1 $762 -5.5381261471983603 $711 3.0110839556980746 $623 $773 forward 7 unknown #
vertex $-1 $710 $774 #
straight-curve $-1 45.954771568956573 -1.7475628599479318 63.175482787319808 0 0 1 I I #
point $-1 45.954771568956573 -18.635194913948595 -4 #
face $-1 $775 $776 $19 $-1 $777 forward single #
loop $-1 $778 $635 $629 #
plane-surface $-1 1.2313555970422385e-006 2.5270421915002856 80.39619523703864 0.86602541151947299 0 0.49999998660252726 0.49999998660252726 0 -0.86602541151947299 forward_v I I I I #
coedge $-1 $779 $780 $781 $782 reversed $630 $-1 #
coedge $-1 $718 $718 $-1 $783 forward $632 $-1 #
edge $-1 $784 0 $784 6.2831853071796004 $633 $785 forward 7 unknown #
vertex $-1 $636 $786 #
ellipse-curve $-1 45.031067554836888 2.5270421915002892 2.4000976592303229 -0.86602541151947299 0 -0.49999998660252726 0.24999999330126363 0 -0.43301270575973649 1 I I #
coedge $-1 $637 $781 $787 $788 forward $336 $-1 #
coedge $-1 $789 $790 $637 $724 reversed $734 $-1 #
edge $-1 $791 -45.954771568956573 $726 45.954771568956573 $723 $792 forward 7 unknown #
coedge $-1 $646 $638 $790 $793 forward $443 $-1 #
vertex $-1 $724 $794 #
point $-1 -45.954771568956573 6.8016472429485031 0.8001953184606696 #
coedge $-1 $795 $796 $646 $729 forward $797 $-1 #
edge $-1 $731 -18.635194913948595 $798 18.635194913948595 $646 $799 forward 7 unknown #
coedge $-1 $654 $647 $796 $800 reversed $655 $-1 #
vertex $-1 $729 $801 #
straight-curve $-1 -45.954771568956573 -18.635194913948595 0 0 0 -1 I I #
face $-1 $-1 $741 $19 $-1 $802 reversed single #
loop $-1 $-1 $789 $649 #
plane-surface $-1 0 18.635194913948595 0 0 -1 0 0 0 -1 forward_v I I I I #
coedge $-1 $781 $651 $803 $804 forward $336 $-1 #
coedge $-1 $805 $806 $651 $738 reversed $776 $-1 #
edge $-1 $742 -6.156770993989781 $807 -4.3093629657504096 $651 $808 forward 7 unknown #
coedge $-1 $809 $652 $654 $744 forward $741 $-1 #
coedge $-1 $652 $810 $805 $811 forward $741 $-1 #
loop $-1 $-1 $740 $733 #
vertex $-1 $811 $812 #
straight-curve $-1 45.954771568956573 0 4 0 1 0 I I #
edge $-1 $656 -4 $813 4 $739 $814 forward 7 unknown #
face $-1 $540 $655 $19 $-1 $815 reversed single #
point $-1 45.954771568956573 -18.635194913948595 4 #
coedge $-1 $667 $664 $669 $751 reversed $562 $-1 #
coedge $-1 $666 $665 $673 $755 reversed $472 $-1 #
vertex $-1 $751 $816 #
straight-curve $-1 -45.954771568956573 -18.635194913948595 0 0 0 -1 I I #
edge $-1 $749 -18.635194913948595 $753 18.635194913948595 $747 $817 forward 7 unknown #
straight-curve $-1 0 -18.635194913948595 -4 -1 0 0 I I #
vertex $-1 $672 $818 #
straight-curve $-1 0 18.635194913948595 -4 1 0 0 I I #
edge $-1 $678 -4 $675 4 $673 $819 forward 7 unknown #
point $-1 45.954771568956573 18.635194913948595 -4 #
point $-1 45.954771568956573 -18.635194913948595 -4 #
straight-curve $-1 0 -18.635194913948595 4 1 0 0 I I #
point $-1 45.954771568956573 -18.635194913948595 4 #
point $-1 -45.954771568956573 -18.635194913948595 4 #
straight-curve $-1 -45.954771568956573 18.635194913948595 0 0 0 -1 I I #
vertex $-1 $710 $820 #
straight-curve $-1 1.2313555970422385e-006 6.8016472429485031 80.39619523703864 0.49999998660252726 0 -0.86602541151947299 I I #
straight-curve $-1 45.954771568956573 6.8016472429485031 63.175482787319808 0 0 -1 I I #
point $-1 44.107363540717202 6.8016472429485031 4 #
point $-1 45.954771568956573 6.8016472429485031 4 #
point $-1 43.313473834984102 2.5270421915002892 1.4084444981432942 #
vertex $-1 $708 $821 #
straight-curve $-1 45.954771568956573 18.635194913948595 0 0 0 -1 I I #
straight-curve $-1 0 18.635194913948595 -4 1 0 0 I I #
straight-curve $-1 1.2313555970422385e-006 -1.7475628599479318 80.39619523703864 -0.49999998660252726 0 0.86602541151947299 I I #
straight-curve $-1 45.954771568956573 0 -4 0 -1 0 I I #
straight-curve $-1 45.954771568956573 1.2635210957501428 0.80019531846065206 0 -1 0 I I #
point $-1 45.954771568956573 -1.7475628599479318 0.80019531846065206 #
face $-1 $745 $797 $19 $-1 $822 reversed single #
loop $-1 $-1 $737 $714 #
plane-surface $-1 79.596001149933585 -1.7475628599479318 126.35096557463962 0 1 0 0.86602541151947299 0 0.49999998660252726 forward_v I I I I #
loop $-1 $-1 $803 $629 #
coedge $-1 $780 $717 $823 $824 forward $630 $-1 #
coedge $-1 $717 $779 $825 $826 reversed $630 $-1 #
coedge $-1 $722 $736 $717 $782 forward $336 $-1 #
edge $-1 $827 4.3093629657504096 $828 6.156770993989781 $781 $829 forward 7 unknown #
edge $-1 $830 1 $830 0 $718 $-1 forward 7 unknown #
vertex $-1 $719 $831 #
ellipse-curve $-1 43.746486540743838 2.5270421915002892 1.658444491444558 0.86602541151947299 0 0.49999998660252726 0.24999999330126363 0 -0.43301270575973649 1 I I #
point $-1 45.281067548138147 2.5270421915002892 1.9670849534705792 #
coedge $-1 $825 $832 $722 $788 reversed $741 $-1 #
edge $-1 $828 6.8016472429485031 $791 18.635194913948595 $787 $743 forward 7 unknown #
coedge $-1 $833 $723 $832 $834 forward $734 $-1 #
coedge $-1 $723 $833 $725 $793 reversed $734 $-1 #
vertex $-1 $788 $835 #
straight-curve $-1 0 18.635194913948595 4 -1 0 0 I I #
edge $-1 $726 -4 $798 4 $790 $836 forward 7 unknown #
point $-1 -45.954771568956573 18.635194913948595 4 #
coedge $-1 $837 $728 $833 $838 forward $797 $-1 #
coedge $-1 $728 $837 $730 $800 forward $797 $-1 #
loop $-1 $-1 $837 $775 #
vertex $-1 $838 $839 #
straight-curve $-1 -45.954771568956573 0 -4 0 1 0 I I #
edge $-1 $813 -45.954771568956573 $731 45.954771568956573 $730 $840 forward 7 unknown #
point $-1 -45.954771568956573 -18.635194913948595 -4 #
plane-surface $-1 45.954771568956573 0 0 -1 0 0 0 0 1 forward_v I I I I #
coedge $-1 $841 $823 $736 $804 reversed $778 $-1 #
edge $-1 $807 -3.0110839556980746 $827 5.5381261471983603 $736 $842 forward 7 unknown #
coedge $-1 $806 $737 $740 $811 reversed $776 $-1 #
coedge $-1 $737 $805 $841 $843 forward $776 $-1 #
vertex $-1 $804 $844 #
straight-curve $-1 39.798000574966792 -1.7475628599479318 4 -1 0 0 I I #
coedge $-1 $832 $739 $837 $845 reversed $741 $-1 #
coedge $-1 $740 $825 $846 $847 forward $741 $-1 #
edge $-1 $848 -62.375287468859156 $742 -59.175482787319808 $740 $849 forward 7 unknown #
point $-1 45.954771568956573 -1.7475628599479318 4 #
vertex $-1 $744 $850 #
straight-curve $-1 45.954771568956573 -18.635194913948595 0 0 0 -1 I I #
plane-surface $-1 0 -18.635194913948595 0 0 1 0 0 0 1 forward_v I I I I #
point $-1 -45.954771568956573 -18.635194913948595 -4 #
straight-curve $-1 -45.954771568956573 0 -4 0 1 0 I I #
point $-1 -45.954771568956573 18.635194913948595 -4 #
straight-curve $-1 45.954771568956573 -18.635194913948595 0 0 0 -1 I I #
point $-1 45.954771568956573 6.8016472429485031 0.80019531846065206 #
point $-1 45.954771568956573 18.635194913948595 -4 #
plane-surface $-1 0 0 -4 0 0 1 1 0 0 forward_v I I I I #
coedge $-1 $803 $846 $779 $824 reversed $778 $-1 #
edge $-1 $827 88.214726982432012 $851 91.909543137913147 $779 $852 forward 7 unknown #
coedge $-1 $810 $787 $780 $826 forward $741 $-1 #
edge $-1 $828 59.175482787319808 $851 62.375287468859156 $825 $853 forward 7 unknown #
vertex $-1 $804 $854 #
vertex $-1 $788 $855 #
straight-curve $-1 39.798000574966792 6.8016472429485031 4 1 0 0 I I #
vertex $-1 $783 $856 #
point $-1 43.996486534045104 2.5270421915002892 1.2254317856848214 #
coedge $-1 $787 $809 $789 $834 reversed $741 $-1 #
coedge $-1 $790 $789 $795 $838 reversed $734 $-1 #
edge $-1 $791 -4 $857 4 $832 $858 forward 7 unknown #
point $-1 45.954771568956573 18.635194913948595 4 #
straight-curve $-1 -45.954771568956573 18.635194913948595 0 0 0 -1 I I #
coedge $-1 $796 $795 $809 $845 forward $797 $-1 #
edge $-1 $798 -45.954771568956573 $857 45.954771568956573 $833 $859 forward 7 unknown #
point $-1 -45.954771568956573 18.635194913948595 -4 #
straight-curve $-1 0 -18.635194913948595 -4 -1 0 0 I I #
coedge $-1 $846 $803 $806 $843 reversed $778 $-1 #
straight-curve $-1 44.107363540717202 1.2635210957501428 4.0000000000000071 0 1 0 I I #
edge $-1 $848 -91.909543137913147 $807 -88.214726982432012 $806 $860 forward 7 unknown #
point $-1 44.107363540717202 -1.7475628599479318 4 #
edge $-1 $857 -18.635194913948595 $813 18.635194913948595 $809 $861 forward 7 unknown #
coedge $-1 $823 $841 $810 $847 reversed $778 $-1 #
edge $-1 $851 -5.5381261471983603 $848 3.0110839556980746 $810 $862 forward 7 unknown #
vertex $-1 $847 $863 #
straight-curve $-1 45.954771568956573 -1.7475628599479318 63.175482787319808 0 0 1 I I #
point $-1 45.954771568956573 -18.635194913948595 -4 #
vertex $-1 $847 $864 #
straight-curve $-1 1.2313555970422385e-006 6.8016472429485031 80.39619523703864 0.49999998660252726 0 -0.86602541151947299 I I #
straight-curve $-1 45.954771568956573 6.8016472429485031 63.175482787319808 0 0 -1 I I #
point $-1 44.107363540717202 6.8016472429485031 4 #
point $-1 45.954771568956573 6.8016472429485031 4 #
point $-1 43.313473834984102 2.5270421915002892 1.4084444981432942 #
vertex $-1 $845 $865 #
straight-curve $-1 45.954771568956573 18.635194913948595 0 0 0 -1 I I #
straight-curve $-1 0 18.635194913948595 -4 1 0 0 I I #
straight-curve $-1 1.2313555970422385e-006 -1.7475628599479318 80.39619523703864 -0.49999998660252726 0 0.86602541151947299 I I #
straight-curve $-1 45.954771568956573 0 -4 0 -1 0 I I #
straight-curve $-1 45.954771568956573 1.2635210957501428 0.80019531846065206 0 -1 0 I I #
point $-1 45.954771568956573 -1.7475628599479318 0.80019531846065206 #
point $-1 45.954771568956573 6.8016472429485031 0.80019531846065206 #
point $-1 45.954771568956573 18.635194913948595 -4 #
End-of-ACIS-data 