500 0 9 0           
7 Unknown 11 ACIS 5.0 NT 24 Fri Mar 26 02:15:33 1999 
-1 9.9999999999999995e-007 1e-010 
body $-1 $9 $-1 $10 #
body $-1 $11 $-1 $12 #
body $-1 $13 $-1 $14 #
body $-1 $15 $-1 $16 #
body $-1 $17 $-1 $18 #
body $-1 $19 $-1 $20 #
body $-1 $21 $-1 $22 #
body $-1 $23 $-1 $24 #
body $-1 $25 $-1 $26 #
lump $-1 $-1 $27 $0 #
transform $-1 1 0 0 0 1 0 0 0 1 60.525528733176671 32.463088162692955 12.356422067138364 1 rotate no_reflect no_shear #
lump $-1 $-1 $28 $1 #
transform $-1 1 0 0 0 1 0 0 0 1 60.525528733176671 32.463088162692955 12.356422067138364 1 rotate no_reflect no_shear #
lump $-1 $-1 $29 $2 #
transform $-1 1 0 0 0 1 0 0 0 1 60.525528733176671 32.463088162692955 12.356422067138364 1 rotate no_reflect no_shear #
lump $-1 $-1 $30 $3 #
transform $-1 1 0 0 0 1 0 0 0 1 60.525528733176671 32.463088162692955 12.356422067138364 1 rotate no_reflect no_shear #
lump $-1 $-1 $31 $4 #
transform $-1 1 0 0 0 1 0 0 0 1 60.525528733176671 32.463088162692955 12.356422067138364 1 rotate no_reflect no_shear #
lump $-1 $-1 $32 $5 #
transform $-1 1 0 0 0 1 0 0 0 1 60.525528733176671 32.463088162692955 12.356422067138364 1 rotate no_reflect no_shear #
lump $-1 $-1 $33 $6 #
transform $-1 1 0 0 0 1 0 0 0 1 60.525528733176671 32.463088162692955 12.356422067138364 1 rotate no_reflect no_shear #
lump $-1 $-1 $34 $7 #
transform $-1 1 0 0 0 1 0 0 0 1 60.525528733176671 32.463088162692955 12.356422067138364 1 rotate no_reflect no_shear #
lump $-1 $-1 $35 $8 #
transform $-1 1 0 0 0 1 0 0 0 1 60.525528733176671 32.463088162692955 12.356422067138364 1 rotate no_reflect no_shear #
shell $-1 $-1 $-1 $36 $-1 $9 #
shell $-1 $-1 $-1 $37 $-1 $11 #
shell $-1 $-1 $-1 $38 $-1 $13 #
shell $-1 $-1 $-1 $39 $-1 $15 #
shell $-1 $-1 $-1 $40 $-1 $17 #
shell $-1 $-1 $-1 $41 $-1 $19 #
shell $-1 $-1 $-1 $42 $-1 $21 #
shell $-1 $-1 $-1 $43 $-1 $23 #
shell $-1 $-1 $-1 $44 $-1 $25 #
face $-1 $45 $46 $27 $-1 $47 forward single #
face $-1 $48 $49 $28 $-1 $50 forward single #
face $-1 $51 $52 $29 $-1 $53 forward single #
face $-1 $54 $55 $30 $-1 $56 reversed single #
face $-1 $57 $58 $31 $-1 $59 forward single #
face $-1 $60 $61 $32 $-1 $62 forward single #
face $-1 $63 $64 $33 $-1 $65 reversed single #
face $-1 $66 $67 $34 $-1 $68 forward single #
face $-1 $69 $70 $35 $-1 $71 forward single #
face $-1 $72 $73 $27 $-1 $74 reversed single #
loop $-1 $-1 $75 $36 #
plane-surface $-1 0 0 12.356422067138364 0 0 1 1 0 0 forward_v I I I I #
face $-1 $76 $77 $28 $-1 $78 reversed single #
loop $-1 $-1 $79 $37 #
plane-surface $-1 0 -25.216158053243358 10.922622156376091 0 0 1 1 0 0 forward_v I I I I #
face $-1 $80 $81 $29 $-1 $82 reversed single #
loop $-1 $-1 $83 $38 #
plane-surface $-1 0 25.196744966661853 -5.868122045690896 0 0 1 1 0 0 forward_v I I I I #
face $-1 $84 $85 $30 $-1 $86 reversed single #
loop $-1 $-1 $87 $39 #
plane-surface $-1 90.25271815278272 11.518438953542013 175.14905970243845 0 1 0 0.81915205242281985 0 0.57357642473473569 forward_v I I I I #
face $-1 $88 $89 $31 $-1 $90 forward single #
loop $-1 $91 $92 $40 #
cone-surface $-1 58.085835000068791 13.350428329853081 9.1703252107080093 -0.81915205242281985 0 -0.57357642473473569 0.28678821236736785 0 -0.40957602621140993 1 I I 0 1 0.5 forward I I I I #
face $-1 $93 $94 $32 $-1 $95 forward single #
loop $-1 $96 $97 $41 #
cone-surface $-1 58.085835000068791 16.098412394319681 9.1703252107080093 -0.81915205242281985 0 -0.57357642473473569 0.28678821236736785 0 -0.40957602621140993 1 I I 0 1 0.5 forward I I I I #
face $-1 $98 $99 $33 $-1 $100 reversed single #
loop $-1 $-1 $101 $42 #
plane-surface $-1 -131.67755599532006 13.292164489168773 107.07948029134627 0 -1 0 0.5877852598018023 0 -0.80901698891910034 forward_v I I I I #
face $-1 $102 $103 $34 $-1 $104 forward single #
loop $-1 $105 $106 $43 #
cone-surface $-1 -57.944586939587381 6.2748310293661405 10.23930468350205 0.5877852598018023 0 -0.80901698891910034 0.80901698891910034 0 0.5877852598018023 1 I I 0 1 1 forward I I I I #
face $-1 $107 $108 $35 $-1 $109 forward single #
loop $-1 $110 $111 $44 #
cone-surface $-1 -57.944586939587381 10.485231105247721 10.23930468350205 0.5877852598018023 0 -0.80901698891910034 0.80901698891910034 0 0.5877852598018023 1 I I 0 1 1 forward I I I I #
face $-1 $112 $113 $27 $-1 $114 reversed single #
loop $-1 $-1 $115 $45 #
plane-surface $-1 0 0 -12.356422067138364 0 0 1 1 0 0 forward_v I I I I #
coedge $-1 $116 $117 $118 $119 forward $46 $-1 #
face $-1 $120 $121 $28 $-1 $122 reversed single #
loop $-1 $-1 $123 $48 #
plane-surface $-1 0 -25.216158053243358 6.4429053588553078 0 0 1 1 0 0 forward_v I I I I #
coedge $-1 $124 $125 $126 $127 reversed $49 $-1 #
face $-1 $128 $129 $29 $-1 $130 reversed single #
loop $-1 $-1 $131 $51 #
plane-surface $-1 0 17.930401770630752 -9.1122720564146302 0 1 0 0 0 1 forward_v I I I I #
coedge $-1 $132 $133 $134 $135 reversed $52 $-1 #
face $-1 $136 $137 $30 $-1 $138 reversed single #
loop $-1 $-1 $139 $54 #
plane-surface $-1 -8.9065040187333295 14.724420362086377 105.71702695052846 0.81915205242281985 0 0.57357642473473569 0.57357642473473569 0 -0.81915205242281985 forward_v I I I I #
coedge $-1 $140 $141 $142 $143 reversed $55 $-1 #
face $-1 $-1 $144 $31 $-1 $145 forward single #
loop $-1 $146 $147 $57 #
cone-surface $-1 57.471470960751674 13.350428329853081 8.7401428921569568 -0.81915205242281985 0 -0.57357642473473569 0.14339410618368392 0 -0.20478801310570496 1 I I -0.70710678118654746 0.70710678118654746 0.25 forward I I I I #
loop $-1 $-1 $148 $40 #
coedge $-1 $92 $92 $149 $150 reversed $58 $-1 #
face $-1 $-1 $151 $32 $-1 $152 forward single #
loop $-1 $153 $154 $60 #
cone-surface $-1 57.471470960751674 16.098412394319681 8.7401428921569568 -0.81915205242281985 0 -0.57357642473473569 0.14339410618368392 0 -0.20478801310570496 1 I I -0.70710678118654746 0.70710678118654746 0.25 forward I I I I #
loop $-1 $-1 $155 $41 #
coedge $-1 $97 $97 $156 $157 reversed $61 $-1 #
face $-1 $158 $159 $33 $-1 $160 reversed single #
loop $-1 $-1 $161 $63 #
plane-surface $-1 -60.525528733176671 8.3800310673069305 9.1471182744441109 -0.5877852598018023 0 0.80901698891910034 0.80901698891910034 0 0.5877852598018023 forward_v I I I I #
coedge $-1 $162 $163 $164 $165 reversed $64 $-1 #
face $-1 $-1 $166 $34 $-1 $167 forward single #
loop $-1 $168 $169 $66 #
cone-surface $-1 -57.278366331768261 6.2748310293661405 9.3223307017533124 0.5877852598018023 0 -0.80901698891910034 0.40450849445955017 0 0.29389262990090115 1 I I -0.70710678118654746 0.70710678118654746 0.5 forward I I I I #
loop $-1 $-1 $170 $43 #
coedge $-1 $106 $106 $171 $172 reversed $67 $-1 #
face $-1 $-1 $173 $35 $-1 $174 forward single #
loop $-1 $175 $176 $69 #
cone-surface $-1 -57.278366331768261 10.485231105247721 9.3223307017533124 0.5877852598018023 0 -0.80901698891910034 0.40450849445955017 0 0.29389262990090115 1 I I -0.70710678118654746 0.70710678118654746 0.5 forward I I I I #
loop $-1 $-1 $177 $44 #
coedge $-1 $111 $111 $178 $179 reversed $70 $-1 #
face $-1 $180 $181 $27 $-1 $182 reversed single #
loop $-1 $-1 $183 $72 #
plane-surface $-1 0 -32.463088162692955 0 0 1 0 0 0 1 forward_v I I I I #
coedge $-1 $184 $185 $186 $187 forward $73 $-1 #
coedge $-1 $188 $75 $189 $190 forward $46 $-1 #
coedge $-1 $75 $188 $191 $192 forward $46 $-1 #
coedge $-1 $193 $194 $75 $119 reversed $195 $-1 #
edge $-1 $196 -32.463088162692955 $197 32.463088162692955 $118 $198 forward 7 unknown #
face $-1 $199 $200 $28 $-1 $201 reversed single #
loop $-1 $-1 $202 $76 #
plane-surface $-1 0 -17.969227943793761 8.6827637576156995 0 -1 0 0 0 -1 forward_v I I I I #
coedge $-1 $203 $204 $205 $206 reversed $77 $-1 #
coedge $-1 $207 $79 $208 $209 forward $49 $-1 #
coedge $-1 $79 $207 $210 $211 reversed $49 $-1 #
coedge $-1 $212 $213 $79 $127 forward $214 $-1 #
edge $-1 $215 5.3611489171720823 $216 19.855009136071274 $126 $217 forward 7 unknown #
face $-1 $218 $219 $29 $-1 $220 reversed single #
loop $-1 $-1 $134 $80 #
plane-surface $-1 60.525528733176671 0 0 -1 0 0 0 0 1 forward_v I I I I #
coedge $-1 $221 $222 $223 $224 reversed $81 $-1 #
coedge $-1 $225 $83 $226 $227 reversed $52 $-1 #
coedge $-1 $83 $225 $222 $228 forward $52 $-1 #
coedge $-1 $229 $230 $83 $135 forward $129 $-1 #
edge $-1 $231 -19.864715679362028 $232 -5.3320292872998252 $134 $233 forward 7 unknown #
face $-1 $234 $235 $30 $-1 $236 forward single #
loop $-1 $-1 $237 $84 #
plane-surface $-1 90.25271815278272 17.930401770630741 175.14905970243845 0 -1 0 -0.81915205242281985 0 -0.57357642473473569 forward_v I I I I #
coedge $-1 $238 $239 $240 $241 reversed $85 $-1 #
coedge $-1 $141 $87 $242 $243 reversed $55 $-1 #
coedge $-1 $87 $140 $238 $244 reversed $55 $-1 #
coedge $-1 $240 $245 $87 $143 forward $246 $-1 #
edge $-1 $247 75.218107784080857 $248 81.016725072206839 $142 $249 forward 7 unknown #
loop $-1 $-1 $149 $88 #
plane-surface $-1 -8.9065040187333295 14.724420362086377 105.71702695052846 0.81915205242281985 0 0.57357642473473569 0.57357642473473569 0 -0.81915205242281985 forward_v I I I I #
loop $-1 $-1 $250 $57 #
coedge $-1 $147 $147 $148 $251 reversed $89 $-1 #
coedge $-1 $148 $148 $147 $251 forward $91 $-1 #
coedge $-1 $149 $149 $92 $150 forward $144 $-1 #
edge $-1 $252 0 $252 6.2831853071796004 $149 $253 forward 7 unknown #
loop $-1 $-1 $156 $93 #
plane-surface $-1 -8.9065040187333295 14.724420362086377 105.71702695052846 0.81915205242281985 0 0.57357642473473569 0.57357642473473569 0 -0.81915205242281985 forward_v I I I I #
loop $-1 $-1 $254 $60 #
coedge $-1 $154 $154 $155 $255 reversed $94 $-1 #
coedge $-1 $155 $155 $154 $255 forward $96 $-1 #
coedge $-1 $156 $156 $97 $157 forward $151 $-1 #
edge $-1 $256 0 $256 6.2831853071796004 $156 $257 forward 7 unknown #
face $-1 $258 $259 $33 $-1 $260 reversed single #
loop $-1 $-1 $261 $98 #
plane-surface $-1 -131.67755599532006 3.4678976454450883 107.07948029134627 0 1 0 -0.5877852598018023 0 0.80901698891910034 forward_v I I I I #
coedge $-1 $262 $263 $264 $265 reversed $99 $-1 #
coedge $-1 $163 $101 $266 $267 reversed $64 $-1 #
coedge $-1 $101 $162 $262 $268 reversed $64 $-1 #
coedge $-1 $264 $269 $101 $165 forward $259 $-1 #
edge $-1 $270 41.183318078534768 $271 44.392621871229025 $164 $272 forward 7 unknown #
loop $-1 $-1 $171 $102 #
plane-surface $-1 -60.525528733176671 8.3800310673069305 9.1471182744441109 -0.5877852598018023 0 0.80901698891910034 0.80901698891910034 0 0.5877852598018023 forward_v I I I I #
loop $-1 $-1 $273 $66 #
coedge $-1 $169 $169 $170 $274 reversed $103 $-1 #
coedge $-1 $170 $170 $169 $274 forward $105 $-1 #
coedge $-1 $171 $171 $106 $172 forward $166 $-1 #
edge $-1 $275 0 $275 6.2831853071796004 $171 $276 forward 7 unknown #
loop $-1 $-1 $178 $107 #
plane-surface $-1 -60.525528733176671 8.3800310673069305 9.1471182744441109 -0.5877852598018023 0 0.80901698891910034 0.80901698891910034 0 0.5877852598018023 forward_v I I I I #
loop $-1 $-1 $277 $69 #
coedge $-1 $176 $176 $177 $278 reversed $108 $-1 #
coedge $-1 $177 $177 $176 $278 forward $110 $-1 #
coedge $-1 $178 $178 $111 $179 forward $173 $-1 #
edge $-1 $279 0 $279 6.2831853071796004 $178 $280 forward 7 unknown #
face $-1 $281 $282 $27 $-1 $283 reversed single #
loop $-1 $-1 $284 $112 #
plane-surface $-1 -60.525528733176671 0 0 1 0 0 0 0 -1 forward_v I I I I #
coedge $-1 $285 $191 $286 $287 forward $113 $-1 #
coedge $-1 $288 $115 $285 $289 forward $73 $-1 #
coedge $-1 $115 $288 $290 $291 forward $73 $-1 #
coedge $-1 $194 $193 $115 $187 reversed $195 $-1 #
edge $-1 $292 -32.463088162692955 $293 32.463088162692955 $186 $294 forward 7 unknown #
coedge $-1 $117 $116 $295 $296 forward $46 $-1 #
coedge $-1 $297 $298 $116 $190 reversed $282 $-1 #
edge $-1 $197 -60.525528733176671 $299 60.525528733176671 $189 $300 forward 7 unknown #
coedge $-1 $183 $301 $117 $192 reversed $113 $-1 #
edge $-1 $302 -60.525528733176671 $196 60.525528733176671 $191 $303 forward 7 unknown #
coedge $-1 $186 $118 $301 $304 forward $195 $-1 #
coedge $-1 $118 $186 $297 $305 reversed $195 $-1 #
loop $-1 $-1 $193 $281 #
vertex $-1 $119 $306 #
vertex $-1 $119 $307 #
straight-curve $-1 60.525528733176671 0 12.356422067138364 0 1 0 I I #
face $-1 $308 $309 $28 $-1 $310 reversed single #
loop $-1 $-1 $311 $120 #
plane-surface $-1 -60.525528733176671 0 0 1 0 0 0 0 -1 forward_v I I I I #
coedge $-1 $312 $208 $213 $313 reversed $121 $-1 #
coedge $-1 $314 $123 $315 $316 reversed $77 $-1 #
coedge $-1 $123 $314 $312 $317 forward $77 $-1 #
coedge $-1 $213 $212 $123 $206 forward $214 $-1 #
edge $-1 $318 -19.855009136071274 $319 -5.3611489171720823 $205 $320 forward 7 unknown #
coedge $-1 $125 $124 $311 $321 reversed $49 $-1 #
coedge $-1 $202 $322 $124 $209 reversed $121 $-1 #
edge $-1 $215 -60.525528733176671 $323 60.525528733176671 $208 $324 forward 7 unknown #
coedge $-1 $325 $326 $125 $211 forward $309 $-1 #
edge $-1 $216 -60.525528733176671 $327 60.525528733176671 $210 $328 forward 7 unknown #
coedge $-1 $205 $126 $326 $329 forward $214 $-1 #
coedge $-1 $126 $205 $202 $313 forward $214 $-1 #
loop $-1 $-1 $126 $308 #
vertex $-1 $127 $330 #
vertex $-1 $329 $331 #
straight-curve $-1 60.525528733176671 -12.608079026621679 10.922622156376091 0 -1 0 I I #
face $-1 $332 $333 $29 $-1 $334 reversed single #
loop $-1 $-1 $335 $128 #
plane-surface $-1 0 0 -12.356422067138364 0 0 1 1 0 0 forward_v I I I I #
coedge $-1 $336 $131 $335 $337 reversed $81 $-1 #
coedge $-1 $131 $336 $133 $228 reversed $81 $-1 #
coedge $-1 $338 $339 $131 $224 forward $333 $-1 #
edge $-1 $340 -7.8002860389310493 $341 -1.3119860174835809 $223 $342 forward 7 unknown #
coedge $-1 $133 $132 $338 $343 reversed $52 $-1 #
coedge $-1 $344 $345 $132 $227 forward $346 $-1 #
edge $-1 $347 -60.525528733176671 $231 60.525528733176671 $226 $348 forward 7 unknown #
edge $-1 $341 -60.525528733176671 $232 60.525528733176671 $222 $349 forward 7 unknown #
coedge $-1 $350 $134 $336 $351 forward $129 $-1 #
coedge $-1 $134 $350 $344 $352 reversed $129 $-1 #
vertex $-1 $352 $353 #
vertex $-1 $135 $354 #
straight-curve $-1 60.525528733176671 12.598372483330927 -5.868122045690896 0 -1 0 I I #
face $-1 $-1 $246 $30 $-1 $355 reversed single #
loop $-1 $-1 $356 $136 #
plane-surface $-1 0 0 12.356422067138364 0 0 1 1 0 0 forward_v I I I I #
coedge $-1 $357 $358 $359 $360 reversed $137 $-1 #
coedge $-1 $361 $139 $141 $244 forward $85 $-1 #
coedge $-1 $139 $361 $357 $362 forward $85 $-1 #
coedge $-1 $359 $142 $139 $241 forward $246 $-1 #
edge $-1 $248 4.1562287724988245 $363 10.568191589587553 $240 $364 forward 7 unknown #
coedge $-1 $365 $366 $140 $243 forward $235 $-1 #
edge $-1 $367 11.338934242992345 $247 15.399169656785311 $242 $368 forward 7 unknown #
edge $-1 $248 -121.05105746635338 $367 -113.97225290134581 $141 $369 forward 7 unknown #
coedge $-1 $142 $359 $365 $370 reversed $246 $-1 #
loop $-1 $-1 $359 $234 #
vertex $-1 $370 $371 #
vertex $-1 $143 $372 #
straight-curve $-1 60.525528733176671 11.518438953542013 87.574529851219225 0 0 -1 I I #
coedge $-1 $250 $250 $-1 $373 reversed $146 $-1 #
edge $-1 $374 0 $374 6.2831853071796004 $147 $375 forward 7 unknown #
vertex $-1 $150 $376 #
ellipse-curve $-1 58.495411026280195 13.350428329853081 9.4571134230753735 0.81915205242281985 0 0.57357642473473569 0.28678821236736785 0 -0.40957602621140993 1 I I #
coedge $-1 $254 $254 $-1 $377 reversed $153 $-1 #
edge $-1 $378 0 $378 6.2831853071796004 $154 $379 forward 7 unknown #
vertex $-1 $157 $380 #
ellipse-curve $-1 58.495411026280195 16.098412394319681 9.4571134230753735 0.81915205242281985 0 0.57357642473473569 0.28678821236736785 0 -0.40957602621140993 1 I I #
face $-1 $-1 $381 $33 $-1 $382 forward single #
loop $-1 $-1 $164 $158 #
plane-surface $-1 -60.525528733176671 0 0 1 0 0 0 0 -1 forward_v I I I I #
coedge $-1 $383 $384 $385 $386 reversed $159 $-1 #
coedge $-1 $387 $161 $163 $268 forward $99 $-1 #
coedge $-1 $161 $387 $383 $388 forward $99 $-1 #
coedge $-1 $385 $164 $161 $265 forward $259 $-1 #
edge $-1 $271 -9.1021489555153074 $389 0.72211788820837697 $264 $390 forward 7 unknown #
coedge $-1 $391 $392 $162 $267 forward $381 $-1 #
edge $-1 $393 -9.7304768958255252 $270 -5.3132492644833604 $266 $394 forward 7 unknown #
edge $-1 $271 0 $393 5.4599936612503894 $163 $395 forward 7 unknown #
coedge $-1 $164 $385 $391 $396 reversed $259 $-1 #
vertex $-1 $396 $397 #
vertex $-1 $165 $398 #
straight-curve $-1 -60.525528733176671 13.292164489168773 53.539740145673136 0 0 -1 I I #
coedge $-1 $273 $273 $-1 $399 reversed $168 $-1 #
edge $-1 $400 0 $400 6.2831853071796004 $169 $401 forward 7 unknown #
vertex $-1 $172 $402 #
ellipse-curve $-1 -58.316914917505592 6.2748310293661405 10.751770170791234 -0.5877852598018023 0 0.80901698891910034 0.80901698891910034 0 0.5877852598018023 1 I I #
coedge $-1 $277 $277 $-1 $403 reversed $175 $-1 #
edge $-1 $404 0 $404 6.2831853071796004 $176 $405 forward 7 unknown #
vertex $-1 $179 $406 #
ellipse-curve $-1 -58.316914917505592 10.485231105247721 10.751770170791234 -0.5877852598018023 0 0.80901698891910034 0.80901698891910034 0 0.5877852598018023 1 I I #
face $-1 $-1 $195 $27 $-1 $407 reversed single #
loop $-1 $-1 $297 $180 #
plane-surface $-1 0 32.463088162692955 0 0 -1 0 0 0 -1 forward_v I I I I #
coedge $-1 $408 $295 $298 $409 forward $181 $-1 #
coedge $-1 $301 $183 $184 $289 reversed $113 $-1 #
coedge $-1 $295 $408 $183 $287 reversed $181 $-1 #
edge $-1 $302 -12.356422067138364 $410 12.356422067138364 $286 $411 forward 7 unknown #
coedge $-1 $185 $184 $408 $412 forward $73 $-1 #
edge $-1 $293 -60.525528733176671 $410 60.525528733176671 $285 $413 forward 7 unknown #
coedge $-1 $298 $297 $185 $291 reversed $282 $-1 #
edge $-1 $414 -60.525528733176671 $292 60.525528733176671 $290 $415 forward 7 unknown #
vertex $-1 $187 $416 #
vertex $-1 $304 $417 #
straight-curve $-1 60.525528733176671 0 -12.356422067138364 0 -1 0 I I #
coedge $-1 $284 $286 $188 $296 reversed $181 $-1 #
edge $-1 $299 -32.463088162692955 $302 32.463088162692955 $295 $418 forward 7 unknown #
coedge $-1 $290 $189 $194 $305 forward $282 $-1 #
coedge $-1 $189 $290 $284 $409 reversed $282 $-1 #
vertex $-1 $190 $419 #
straight-curve $-1 0 32.463088162692955 12.356422067138364 -1 0 0 I I #
coedge $-1 $191 $285 $193 $304 reversed $113 $-1 #
vertex $-1 $296 $420 #
straight-curve $-1 0 -32.463088162692955 12.356422067138364 1 0 0 I I #
edge $-1 $196 -12.356422067138364 $293 12.356422067138364 $193 $421 forward 7 unknown #
edge $-1 $197 -12.356422067138364 $292 12.356422067138364 $194 $422 forward 7 unknown #
point $-1 60.525528733176671 -32.463088162692955 12.356422067138364 #
point $-1 60.525528733176671 32.463088162692955 12.356422067138364 #
face $-1 $-1 $214 $28 $-1 $423 reversed single #
loop $-1 $-1 $210 $199 #
plane-surface $-1 0 -32.463088162692955 0 0 1 0 0 0 1 forward_v I I I I #
coedge $-1 $424 $425 $207 $321 forward $200 $-1 #
coedge $-1 $322 $202 $204 $317 reversed $121 $-1 #
edge $-1 $319 2.101523480047458 $215 6.5812402775682415 $213 $426 forward 7 unknown #
coedge $-1 $204 $203 $427 $428 reversed $77 $-1 #
coedge $-1 $326 $325 $203 $316 forward $309 $-1 #
edge $-1 $429 -60.525528733176671 $318 60.525528733176671 $315 $430 forward 7 unknown #
edge $-1 $431 -60.525528733176671 $319 60.525528733176671 $312 $432 forward 7 unknown #
vertex $-1 $316 $433 #
vertex $-1 $206 $434 #
straight-curve $-1 60.525528733176671 -12.608079026621679 6.4429053588553078 0 1 0 I I #
edge $-1 $327 -19.855009136071274 $323 -5.3611489171720823 $311 $435 forward 7 unknown #
coedge $-1 $208 $312 $424 $436 reversed $121 $-1 #
vertex $-1 $321 $437 #
straight-curve $-1 0 -17.969227943793761 10.922622156376091 -1 0 0 I I #
coedge $-1 $315 $210 $425 $438 forward $309 $-1 #
coedge $-1 $210 $315 $212 $329 reversed $309 $-1 #
vertex $-1 $438 $439 #
straight-curve $-1 0 -32.463088162692955 10.922622156376091 -1 0 0 I I #
edge $-1 $216 -10.922622156376091 $318 -6.4429053588553078 $212 $440 forward 7 unknown #
point $-1 60.525528733176671 -17.969227943793761 10.922622156376091 #
point $-1 60.525528733176671 -32.463088162692955 10.922622156376091 #
face $-1 $-1 $346 $29 $-1 $441 reversed single #
loop $-1 $-1 $338 $218 #
plane-surface $-1 -60.525528733176671 0 0 1 0 0 0 0 -1 forward_v I I I I #
coedge $-1 $442 $443 $221 $337 forward $219 $-1 #
coedge $-1 $222 $221 $229 $351 reversed $81 $-1 #
edge $-1 $444 -60.525528733176671 $340 60.525528733176671 $335 $445 forward 7 unknown #
coedge $-1 $446 $223 $225 $343 forward $333 $-1 #
coedge $-1 $223 $446 $442 $447 reversed $333 $-1 #
vertex $-1 $447 $448 #
vertex $-1 $343 $449 #
straight-curve $-1 -60.525528733176671 17.930401770630752 -4.5561360282073151 0 0 1 I I #
edge $-1 $341 5.3320292872998252 $347 19.864715679362028 $338 $450 forward 7 unknown #
coedge $-1 $451 $226 $230 $352 forward $346 $-1 #
coedge $-1 $226 $451 $446 $452 reversed $346 $-1 #
loop $-1 $-1 $226 $332 #
vertex $-1 $452 $453 #
straight-curve $-1 0 32.463088162692955 -5.868122045690896 1 0 0 I I #
straight-curve $-1 0 17.930401770630752 -5.868122045690896 1 0 0 I I #
coedge $-1 $230 $229 $443 $454 reversed $129 $-1 #
edge $-1 $232 1.3119860174835809 $444 7.8002860389310493 $229 $455 forward 7 unknown #
edge $-1 $231 5.868122045690896 $456 12.356422067138364 $230 $457 forward 7 unknown #
point $-1 60.525528733176671 32.463088162692955 -5.868122045690896 #
point $-1 60.525528733176671 17.930401770630752 -5.868122045690896 #
plane-surface $-1 60.525528733176671 0 0 -1 0 0 0 0 1 forward_v I I I I #
coedge $-1 $366 $365 $358 $458 forward $235 $-1 #
coedge $-1 $358 $237 $239 $362 reversed $137 $-1 #
coedge $-1 $237 $357 $356 $458 reversed $137 $-1 #
coedge $-1 $245 $240 $237 $360 forward $246 $-1 #
edge $-1 $363 -81.016725072206839 $459 -75.218107784080857 $359 $460 forward 7 unknown #
coedge $-1 $239 $238 $366 $461 reversed $85 $-1 #
edge $-1 $462 113.97225290134581 $363 121.05105746635338 $357 $463 forward 7 unknown #
vertex $-1 $241 $464 #
straight-curve $-1 60.525528733176678 7.3622101810431886 6.557804779012379 0 1 0 I I #
coedge $-1 $356 $242 $245 $370 forward $235 $-1 #
coedge $-1 $242 $356 $361 $461 forward $235 $-1 #
vertex $-1 $243 $465 #
straight-curve $-1 45.12635907639136 11.518438953542013 12.356422067138368 1 0 0 I I #
straight-curve $-1 -8.9065040187333295 11.518438953542013 105.71702695052846 -0.57357642473473569 0 0.81915205242281985 I I #
edge $-1 $247 11.518438953542013 $459 17.930401770630741 $245 $466 forward 7 unknown #
point $-1 60.525528733176671 11.518438953542013 12.356422067138364 #
point $-1 60.525528733176671 11.518438953542013 6.5578047790123861 #
edge $-1 $467 1 $467 0 $250 $-1 forward 7 unknown #
vertex $-1 $251 $468 #
ellipse-curve $-1 57.676258973857379 13.350428329853081 8.8835369983406416 0.81915205242281985 0 0.57357642473473569 0.28678821236736785 0 -0.40957602621140993 1 I I #
point $-1 58.782199238647564 13.350428329853081 9.0475373968639659 #
edge $-1 $469 1 $469 0 $254 $-1 forward 7 unknown #
vertex $-1 $255 $470 #
ellipse-curve $-1 57.676258973857379 16.098412394319681 8.8835369983406416 0.81915205242281985 0 0.57357642473473569 0.28678821236736785 0 -0.40957602621140993 1 I I #
point $-1 58.782199238647564 16.098412394319681 9.0475373968639659 #
loop $-1 $-1 $266 $258 #
plane-surface $-1 0 0 12.356422067138364 0 0 1 1 0 0 forward_v I I I I #
coedge $-1 $384 $261 $263 $388 reversed $159 $-1 #
coedge $-1 $261 $383 $471 $472 reversed $159 $-1 #
coedge $-1 $269 $264 $261 $386 forward $259 $-1 #
edge $-1 $389 -44.392621871229025 $473 -41.183318078534768 $385 $474 forward 7 unknown #
coedge $-1 $263 $262 $392 $475 reversed $99 $-1 #
edge $-1 $476 -5.4599936612503894 $389 0 $383 $477 forward 7 unknown #
vertex $-1 $265 $478 #
straight-curve $-1 -60.525528733176671 4.1900155336534652 9.1471182744441109 0 -1 0 I I #
coedge $-1 $471 $266 $269 $396 forward $381 $-1 #
coedge $-1 $266 $471 $387 $475 forward $381 $-1 #
vertex $-1 $267 $479 #
straight-curve $-1 -65.838777997660031 13.292164489168773 12.356422067138368 -1 0 0 I I #
straight-curve $-1 -60.525528733176671 13.292164489168773 9.1471182744441109 0.80901698891910034 0 0.5877852598018023 I I #
edge $-1 $270 -13.292164489168773 $473 -3.4678976454450883 $269 $480 forward 7 unknown #
point $-1 -60.525528733176671 13.292164489168773 12.356422067138364 #
point $-1 -60.525528733176671 13.292164489168773 9.1471182744441109 #
edge $-1 $481 1 $481 0 $273 $-1 forward 7 unknown #
vertex $-1 $274 $482 #
ellipse-curve $-1 -57.572258961669164 6.2748310293661405 9.7268391962128629 -0.5877852598018023 0 0.80901698891910034 0.80901698891910034 0 0.5877852598018023 1 I I #
point $-1 -57.507897928586495 6.2748310293661405 11.339555430593041 #
edge $-1 $483 1 $483 0 $277 $-1 forward 7 unknown #
vertex $-1 $278 $484 #
ellipse-curve $-1 -57.572258961669164 10.485231105247721 9.7268391962128629 -0.5877852598018023 0 0.80901698891910034 0.80901698891910034 0 0.5877852598018023 1 I I #
point $-1 -57.507897928586495 10.485231105247721 11.339555430593041 #
plane-surface $-1 60.525528733176671 0 0 -1 0 0 0 0 1 forward_v I I I I #
coedge $-1 $286 $284 $288 $412 reversed $181 $-1 #
edge $-1 $299 -12.356422067138364 $414 12.356422067138364 $298 $485 forward 7 unknown #
vertex $-1 $412 $486 #
straight-curve $-1 -60.525528733176671 -32.463088162692955 0 0 0 -1 I I #
edge $-1 $410 -32.463088162692955 $414 32.463088162692955 $408 $487 forward 7 unknown #
straight-curve $-1 0 -32.463088162692955 -12.356422067138364 -1 0 0 I I #
vertex $-1 $291 $488 #
straight-curve $-1 0 32.463088162692955 -12.356422067138364 1 0 0 I I #
point $-1 60.525528733176671 32.463088162692955 -12.356422067138364 #
point $-1 60.525528733176671 -32.463088162692955 -12.356422067138364 #
straight-curve $-1 -60.525528733176671 0 12.356422067138364 0 -1 0 I I #
point $-1 -60.525528733176671 32.463088162692955 12.356422067138364 #
point $-1 -60.525528733176671 -32.463088162692955 12.356422067138364 #
straight-curve $-1 60.525528733176671 -32.463088162692955 0 0 0 -1 I I #
straight-curve $-1 60.525528733176671 32.463088162692955 0 0 0 -1 I I #
plane-surface $-1 60.525528733176671 0 0 -1 0 0 0 0 1 forward_v I I I I #
coedge $-1 $427 $311 $322 $436 forward $200 $-1 #
coedge $-1 $311 $427 $325 $438 reversed $200 $-1 #
straight-curve $-1 60.525528733176671 -17.969227943793761 4.3413818788078498 0 0 1 I I #
coedge $-1 $425 $424 $314 $428 forward $200 $-1 #
edge $-1 $431 5.3611489171720823 $429 19.855009136071274 $427 $489 forward 7 unknown #
vertex $-1 $316 $490 #
straight-curve $-1 0 -32.463088162692955 6.4429053588553078 1 0 0 I I #
vertex $-1 $428 $491 #
straight-curve $-1 0 -17.969227943793761 6.4429053588553078 1 0 0 I I #
point $-1 60.525528733176671 -32.463088162692955 6.4429053588553078 #
point $-1 60.525528733176671 -17.969227943793761 6.4429053588553078 #
straight-curve $-1 -60.525528733176671 -12.608079026621679 10.922622156376091 0 1 0 I I #
edge $-1 $323 -6.5812402775682415 $431 -2.101523480047458 $424 $492 forward 7 unknown #
point $-1 -60.525528733176671 -17.969227943793761 10.922622156376091 #
edge $-1 $327 -10.922622156376091 $429 -6.4429053588553078 $425 $493 forward 7 unknown #
point $-1 -60.525528733176671 -32.463088162692955 10.922622156376091 #
straight-curve $-1 60.525528733176671 -32.463088162692955 0 0 0 -1 I I #
plane-surface $-1 0 32.463088162692955 0 0 -1 0 0 0 -1 forward_v I I I I #
coedge $-1 $494 $335 $339 $447 forward $219 $-1 #
coedge $-1 $335 $494 $350 $454 forward $219 $-1 #
vertex $-1 $337 $495 #
straight-curve $-1 0 17.930401770630752 -12.356422067138364 -1 0 0 I I #
coedge $-1 $339 $338 $345 $452 forward $333 $-1 #
edge $-1 $340 17.930401770630752 $496 32.463088162692955 $339 $497 forward 7 unknown #
point $-1 -60.525528733176671 17.930401770630752 -12.356422067138364 #
point $-1 -60.525528733176671 17.930401770630752 -5.868122045690896 #
straight-curve $-1 -60.525528733176671 12.598372483330927 -5.868122045690896 0 1 0 I I #
coedge $-1 $345 $344 $494 $498 reversed $346 $-1 #
edge $-1 $347 5.868122045690896 $496 12.356422067138364 $345 $499 forward 7 unknown #
point $-1 -60.525528733176671 32.463088162692955 -5.868122045690896 #
edge $-1 $456 -32.463088162692955 $444 -17.930401770630752 $350 $500 forward 7 unknown #
straight-curve $-1 60.525528733176671 17.930401770630752 -4.5561360282073151 0 0 -1 I I #
vertex $-1 $454 $501 #
straight-curve $-1 60.525528733176671 32.463088162692955 0 0 0 -1 I I #
edge $-1 $459 -15.399169656785311 $462 -11.338934242992345 $356 $502 forward 7 unknown #
vertex $-1 $458 $503 #
straight-curve $-1 60.525528733176671 17.930401770630741 87.574529851219225 0 0 1 I I #
edge $-1 $462 -10.568191589587553 $367 -4.1562287724988245 $366 $504 forward 7 unknown #
vertex $-1 $461 $505 #
straight-curve $-1 -8.9065040187333295 17.930401770630741 105.71702695052846 0.57357642473473569 0 -0.81915205242281985 I I #
point $-1 60.525528733176671 17.930401770630741 6.5578047790123861 #
point $-1 56.465293319383704 11.518438953542013 12.356422067138368 #
straight-curve $-1 60.525528733176671 0 12.356422067138364 0 1 0 I I #
vertex $-1 $373 $506 #
point $-1 57.963047186224749 13.350428329853081 8.4739609721292304 #
vertex $-1 $377 $507 #
point $-1 57.963047186224749 16.098412394319681 8.4739609721292304 #
coedge $-1 $392 $391 $384 $472 forward $381 $-1 #
edge $-1 $473 5.3132492644833604 $476 9.7304768958255252 $471 $508 forward 7 unknown #
vertex $-1 $472 $509 #
straight-curve $-1 -60.525528733176671 3.4678976454450883 53.539740145673136 0 0 1 I I #
edge $-1 $476 -0.72211788820837697 $393 9.1021489555153074 $392 $510 forward 7 unknown #
vertex $-1 $475 $511 #
straight-curve $-1 -60.525528733176671 3.4678976454450883 9.1471182744441109 -0.80901698891910034 0 -0.5877852598018023 I I #
point $-1 -60.525528733176671 3.4678976454450883 9.1471182744441109 #
point $-1 -56.108301101834506 13.292164489168773 12.356422067138364 #
straight-curve $-1 -60.525528733176671 0 12.356422067138364 0 -1 0 I I #
vertex $-1 $399 $512 #
point $-1 -56.763241972750059 6.2748310293661405 10.314624456014664 #
vertex $-1 $403 $513 #
point $-1 -56.763241972750059 10.485231105247721 10.314624456014664 #
straight-curve $-1 -60.525528733176671 32.463088162692955 0 0 0 -1 I I #
point $-1 -60.525528733176671 -32.463088162692955 -12.356422067138364 #
straight-curve $-1 -60.525528733176671 0 -12.356422067138364 0 1 0 I I #
point $-1 -60.525528733176671 32.463088162692955 -12.356422067138364 #
straight-curve $-1 -60.525528733176671 -12.608079026621679 6.4429053588553078 0 -1 0 I I #
point $-1 -60.525528733176671 -32.463088162692955 6.4429053588553078 #
point $-1 -60.525528733176671 -17.969227943793761 6.4429053588553078 #
straight-curve $-1 -60.525528733176671 -17.969227943793761 4.3413818788078498 0 0 -1 I I #
straight-curve $-1 -60.525528733176671 -32.463088162692955 0 0 0 -1 I I #
coedge $-1 $443 $442 $451 $498 forward $219 $-1 #
point $-1 60.525528733176671 17.930401770630752 -12.356422067138364 #
vertex $-1 $498 $514 #
straight-curve $-1 -60.525528733176671 0 -12.356422067138364 0 1 0 I I #
edge $-1 $496 -60.525528733176671 $456 60.525528733176671 $451 $515 forward 7 unknown #
straight-curve $-1 -60.525528733176671 32.463088162692955 0 0 0 -1 I I #
straight-curve $-1 60.525528733176671 0 -12.356422067138364 0 -1 0 I I #
point $-1 60.525528733176671 32.463088162692955 -12.356422067138364 #
straight-curve $-1 45.12635907639136 17.930401770630741 12.356422067138368 -1 0 0 I I #
point $-1 60.525528733176671 17.930401770630741 12.356422067138364 #
straight-curve $-1 56.465293319383704 7.3622101810431886 12.356422067138368 0 -1 0 I I #
point $-1 56.465293319383704 17.930401770630741 12.356422067138368 #
point $-1 57.266682947645968 13.350428329853081 8.5967487859732721 #
point $-1 57.266682947645968 16.098412394319681 8.5967487859732721 #
straight-curve $-1 -65.838777997660031 3.4678976454450883 12.356422067138368 1 0 0 I I #
point $-1 -60.525528733176671 3.4678976454450883 12.356422067138364 #
straight-curve $-1 -56.108301101834499 4.1900155336534652 12.356422067138363 0 1 0 I I #
point $-1 -56.108301101834506 3.4678976454450883 12.356422067138364 #
point $-1 -56.984473701867358 6.2748310293661405 8.9178222072937618 #
point $-1 -56.984473701867358 10.485231105247721 8.9178222072937618 #
point $-1 -60.525528733176671 32.463088162692955 -12.356422067138364 #
straight-curve $-1 0 32.463088162692955 -12.356422067138364 1 0 0 I I #
End-of-ACIS-data 