500 0 7 0           
7 Unknown 11 ACIS 5.0 NT 24 Fri Mar 26 20:29:26 1999 
-1 9.9999999999999995e-007 1e-010 
body $-1 $7 $-1 $8 #
body $-1 $9 $-1 $10 #
body $-1 $11 $-1 $12 #
body $-1 $13 $-1 $14 #
body $-1 $15 $-1 $16 #
body $-1 $17 $-1 $18 #
body $-1 $19 $-1 $20 #
lump $-1 $-1 $21 $0 #
transform $-1 1 0 0 0 1 0 0 0 1 71.451155125583668 45.47256441834304 18.733719560916111 1 rotate no_reflect no_shear #
lump $-1 $-1 $22 $1 #
transform $-1 0.66913059716165679 0 0.74314483375859142 0 1 0 -0.74314483375859142 0 0.66913059716165679 -106.19711359532239 17.395119265301862 115.76956794078291 1 rotate no_reflect no_shear #
lump $-1 $-1 $23 $2 #
transform $-1 0.66913059716165679 0 0.74314483375859142 0 -1 0 0.74314483375859142 0 -0.66913059716165679 15.413409103911523 17.395119265301862 21.950215177652073 1 rotate no_reflect no_shear #
lump $-1 $-1 $24 $3 #
transform $-1 0.76604443648966558 0 -0.64278761758704617 0 1 0 0.64278761758704617 0 0.76604443648966558 125.28862607577327 67.477012802762445 226.64412169207014 1 rotate no_reflect no_shear #
lump $-1 $-1 $25 $4 #
transform $-1 0.76604443648966558 0 -0.64278761758704617 0 -1 0 -0.64278761758704617 0 -0.76604443648966558 133.84309134742358 60.338595944065041 29.223983897805923 1 rotate no_reflect no_shear #
lump $-1 $-1 $26 $5 #
transform $-1 0.76604443648966558 0 -0.64278761758704617 0 -1 0 -0.64278761758704617 0 -0.76604443648966558 133.84309134742358 67.477012802762445 29.223983897805923 1 rotate no_reflect no_shear #
lump $-1 $-1 $27 $6 #
transform $-1 0.76604443648966558 0 -0.64278761758704617 0 -1 0 -0.64278761758704617 0 -0.76604443648966558 133.84309134742358 74.615429661459856 29.223983897805923 1 rotate no_reflect no_shear #
shell $-1 $-1 $-1 $28 $-1 $7 #
shell $-1 $-1 $-1 $29 $-1 $9 #
shell $-1 $-1 $-1 $30 $-1 $11 #
shell $-1 $-1 $-1 $31 $-1 $13 #
shell $-1 $-1 $-1 $32 $-1 $15 #
shell $-1 $-1 $-1 $33 $-1 $17 #
shell $-1 $-1 $-1 $34 $-1 $19 #
face $-1 $35 $36 $21 $-1 $37 forward single #
face $-1 $38 $39 $22 $-1 $40 forward single #
face $-1 $41 $42 $23 $-1 $43 forward single #
face $-1 $44 $45 $24 $-1 $46 forward single #
face $-1 $47 $48 $25 $-1 $49 forward single #
face $-1 $50 $51 $26 $-1 $52 forward single #
face $-1 $53 $54 $27 $-1 $55 forward single #
face $-1 $56 $57 $21 $-1 $58 reversed single #
loop $-1 $-1 $59 $28 #
plane-surface $-1 0 0 18.733719560916111 0 0 1 1 0 0 forward_v I I I I #
face $-1 $60 $61 $22 $-1 $62 reversed single #
loop $-1 $-1 $63 $29 #
plane-surface $-1 0 0 142.90231025116734 0 0 1 1 0 0 forward_v I I I I #
face $-1 $64 $65 $23 $-1 $66 forward single #
loop $-1 $67 $68 $30 #
cone-surface $-1 0 0 -5.8746604815820795 0 0 1 3 0 0 1 I I 0 1 3 forward I I I I #
face $-1 $69 $70 $24 $-1 $71 reversed single #
loop $-1 $-1 $72 $31 #
plane-surface $-1 0 0 142.90231025116734 0 0 1 1 0 0 forward_v I I I I #
face $-1 $73 $74 $25 $-1 $75 forward single #
loop $-1 $76 $77 $32 #
cone-surface $-1 0 0 -1.6657918027283536 0 0 1 1 0 0 1 I I 0 1 1 forward I I I I #
face $-1 $78 $79 $26 $-1 $80 forward single #
loop $-1 $81 $82 $33 #
cone-surface $-1 0 0 -1.6657918027283536 0 0 1 1 0 0 1 I I 0 1 1 forward I I I I #
face $-1 $83 $84 $27 $-1 $85 forward single #
loop $-1 $86 $87 $34 #
cone-surface $-1 0 0 -1.6657918027283536 0 0 1 1 0 0 1 I I 0 1 1 forward I I I I #
face $-1 $88 $89 $21 $-1 $90 reversed single #
loop $-1 $-1 $91 $35 #
plane-surface $-1 0 0 -18.733719560916111 0 0 1 1 0 0 forward_v I I I I #
coedge $-1 $92 $93 $94 $95 forward $36 $-1 #
face $-1 $96 $97 $22 $-1 $98 reversed single #
loop $-1 $-1 $99 $38 #
plane-surface $-1 0 0 -142.90231025116734 0 0 1 1 0 0 forward_v I I I I #
coedge $-1 $100 $101 $102 $103 forward $39 $-1 #
face $-1 $-1 $104 $23 $-1 $105 forward single #
loop $-1 $-1 $106 $41 #
plane-surface $-1 0 0 -10.249320963164159 0 0 -1 -1 0 0 forward_v I I I I #
loop $-1 $-1 $107 $30 #
coedge $-1 $68 $68 $106 $108 reversed $42 $-1 #
face $-1 $109 $110 $24 $-1 $111 reversed single #
loop $-1 $-1 $112 $44 #
plane-surface $-1 0 0 -142.90231025116734 0 0 1 1 0 0 forward_v I I I I #
coedge $-1 $113 $114 $115 $116 forward $45 $-1 #
face $-1 $-1 $117 $25 $-1 $118 forward single #
loop $-1 $-1 $119 $47 #
plane-surface $-1 0 0 -2.831583605456709 0 0 -1 -1 0 0 forward_v I I I I #
loop $-1 $-1 $120 $32 #
coedge $-1 $77 $77 $119 $121 reversed $48 $-1 #
face $-1 $-1 $122 $26 $-1 $123 forward single #
loop $-1 $-1 $124 $50 #
plane-surface $-1 0 0 -2.831583605456709 0 0 -1 -1 0 0 forward_v I I I I #
loop $-1 $-1 $125 $33 #
coedge $-1 $82 $82 $124 $126 reversed $51 $-1 #
face $-1 $-1 $127 $27 $-1 $128 forward single #
loop $-1 $-1 $129 $53 #
plane-surface $-1 0 0 -2.831583605456709 0 0 -1 -1 0 0 forward_v I I I I #
loop $-1 $-1 $130 $34 #
coedge $-1 $87 $87 $129 $131 reversed $54 $-1 #
face $-1 $132 $133 $21 $-1 $134 reversed single #
loop $-1 $-1 $135 $56 #
plane-surface $-1 0 -45.47256441834304 0 0 1 0 0 0 1 forward_v I I I I #
coedge $-1 $136 $137 $138 $139 forward $57 $-1 #
coedge $-1 $140 $59 $141 $142 forward $36 $-1 #
coedge $-1 $59 $140 $143 $144 forward $36 $-1 #
coedge $-1 $145 $146 $59 $95 reversed $147 $-1 #
edge $-1 $148 -45.47256441834304 $149 45.47256441834304 $94 $150 forward 7 unknown #
face $-1 $151 $152 $22 $-1 $153 reversed single #
loop $-1 $-1 $154 $60 #
plane-surface $-1 0 -12.379467479287975 0 0 1 0 0 0 1 forward_v I I I I #
coedge $-1 $155 $156 $157 $158 forward $61 $-1 #
coedge $-1 $159 $63 $160 $161 forward $39 $-1 #
coedge $-1 $63 $159 $162 $163 forward $39 $-1 #
coedge $-1 $164 $165 $63 $103 reversed $166 $-1 #
edge $-1 $167 -12.379467479287975 $168 12.379467479287975 $102 $169 forward 7 unknown #
loop $-1 $170 $171 $64 #
cone-surface $-1 0 0 0 0 0 1 1.5 0 0 1 I I -0.70710678118654757 0.70710678118654757 1.5 forward I I I I #
coedge $-1 $106 $106 $68 $108 forward $65 $-1 #
coedge $-1 $107 $107 $171 $172 forward $67 $-1 #
edge $-1 $173 0 $173 6.2831853071796004 $106 $174 forward 7 unknown #
face $-1 $175 $176 $24 $-1 $177 reversed single #
loop $-1 $-1 $178 $69 #
plane-surface $-1 0 -11.897361431162349 0 0 1 0 0 0 1 forward_v I I I I #
coedge $-1 $179 $180 $181 $182 forward $70 $-1 #
coedge $-1 $183 $72 $184 $185 forward $45 $-1 #
coedge $-1 $72 $183 $186 $187 forward $45 $-1 #
coedge $-1 $188 $189 $72 $116 reversed $190 $-1 #
edge $-1 $191 -11.897361431162349 $192 11.897361431162349 $115 $193 forward 7 unknown #
loop $-1 $194 $195 $73 #
cone-surface $-1 0 0 0 0 0 1 0.5 0 0 1 I I -0.70710678118654746 0.70710678118654746 0.5 forward I I I I #
coedge $-1 $119 $119 $77 $121 forward $74 $-1 #
coedge $-1 $120 $120 $195 $196 forward $76 $-1 #
edge $-1 $197 0 $197 6.2831853071796004 $119 $198 forward 7 unknown #
loop $-1 $199 $200 $78 #
cone-surface $-1 0 0 0 0 0 1 0.5 0 0 1 I I -0.70710678118654746 0.70710678118654746 0.5 forward I I I I #
coedge $-1 $124 $124 $82 $126 forward $79 $-1 #
coedge $-1 $125 $125 $200 $201 forward $81 $-1 #
edge $-1 $202 0 $202 6.2831853071796004 $124 $203 forward 7 unknown #
loop $-1 $204 $205 $83 #
cone-surface $-1 0 0 0 0 0 1 0.5 0 0 1 I I -0.70710678118654746 0.70710678118654746 0.5 forward I I I I #
coedge $-1 $129 $129 $87 $131 forward $84 $-1 #
coedge $-1 $130 $130 $205 $206 forward $86 $-1 #
edge $-1 $207 0 $207 6.2831853071796004 $129 $208 forward 7 unknown #
face $-1 $209 $210 $21 $-1 $211 reversed single #
loop $-1 $-1 $212 $88 #
plane-surface $-1 -71.451155125583668 0 0 1 0 0 0 0 -1 forward_v I I I I #
coedge $-1 $213 $143 $214 $215 forward $89 $-1 #
coedge $-1 $216 $91 $213 $217 forward $57 $-1 #
coedge $-1 $91 $216 $218 $219 forward $57 $-1 #
coedge $-1 $146 $145 $91 $139 reversed $147 $-1 #
edge $-1 $220 -45.47256441834304 $221 45.47256441834304 $138 $222 forward 7 unknown #
coedge $-1 $93 $92 $223 $224 forward $36 $-1 #
coedge $-1 $225 $226 $92 $142 reversed $210 $-1 #
edge $-1 $149 -71.451155125583668 $227 71.451155125583668 $141 $228 forward 7 unknown #
coedge $-1 $135 $229 $93 $144 reversed $89 $-1 #
edge $-1 $230 -71.451155125583668 $148 71.451155125583668 $143 $231 forward 7 unknown #
coedge $-1 $138 $94 $229 $232 forward $147 $-1 #
coedge $-1 $94 $138 $225 $233 reversed $147 $-1 #
loop $-1 $-1 $145 $209 #
vertex $-1 $95 $234 #
vertex $-1 $95 $235 #
straight-curve $-1 71.451155125583668 0 18.733719560916111 0 1 0 I I #
face $-1 $236 $237 $22 $-1 $238 reversed single #
loop $-1 $-1 $239 $96 #
plane-surface $-1 -285.80462050233467 0 0 1 0 0 0 0 -1 forward_v I I I I #
coedge $-1 $240 $162 $241 $242 forward $97 $-1 #
coedge $-1 $243 $99 $240 $244 forward $61 $-1 #
coedge $-1 $99 $243 $245 $246 forward $61 $-1 #
coedge $-1 $165 $164 $99 $158 reversed $166 $-1 #
edge $-1 $247 -12.379467479287975 $248 12.379467479287975 $157 $249 forward 7 unknown #
coedge $-1 $101 $100 $250 $251 forward $39 $-1 #
coedge $-1 $252 $253 $100 $161 reversed $237 $-1 #
edge $-1 $168 -285.80462050233467 $254 285.80462050233467 $160 $255 forward 7 unknown #
coedge $-1 $154 $256 $101 $163 reversed $97 $-1 #
edge $-1 $257 -285.80462050233467 $167 285.80462050233467 $162 $258 forward 7 unknown #
coedge $-1 $157 $102 $256 $259 forward $166 $-1 #
coedge $-1 $102 $157 $252 $260 reversed $166 $-1 #
loop $-1 $-1 $164 $236 #
vertex $-1 $103 $261 #
vertex $-1 $103 $262 #
straight-curve $-1 285.80462050233467 0 142.90231025116734 0 1 0 I I #
loop $-1 $-1 $263 $64 #
coedge $-1 $171 $171 $107 $172 reversed $104 $-1 #
edge $-1 $264 0 $264 6.2831853071796004 $171 $265 forward 7 unknown #
vertex $-1 $108 $266 #
ellipse-curve $-1 0 0 -10.249320963164159 0 0 -1 3 0 0 1 I I #
face $-1 $267 $268 $24 $-1 $269 reversed single #
loop $-1 $-1 $270 $109 #
plane-surface $-1 -285.80462050233467 0 0 1 0 0 0 0 -1 forward_v I I I I #
coedge $-1 $271 $186 $272 $273 forward $110 $-1 #
coedge $-1 $274 $112 $271 $275 forward $70 $-1 #
coedge $-1 $112 $274 $276 $277 forward $70 $-1 #
coedge $-1 $189 $188 $112 $182 reversed $190 $-1 #
edge $-1 $278 -11.897361431162349 $279 11.897361431162349 $181 $280 forward 7 unknown #
coedge $-1 $114 $113 $281 $282 forward $45 $-1 #
coedge $-1 $283 $284 $113 $185 reversed $268 $-1 #
edge $-1 $192 -285.80462050233467 $285 285.80462050233467 $184 $286 forward 7 unknown #
coedge $-1 $178 $287 $114 $187 reversed $110 $-1 #
edge $-1 $288 -285.80462050233467 $191 285.80462050233467 $186 $289 forward 7 unknown #
coedge $-1 $181 $115 $287 $290 forward $190 $-1 #
coedge $-1 $115 $181 $283 $291 reversed $190 $-1 #
loop $-1 $-1 $188 $267 #
vertex $-1 $116 $292 #
vertex $-1 $116 $293 #
straight-curve $-1 285.80462050233467 0 142.90231025116734 0 1 0 I I #
loop $-1 $-1 $294 $73 #
coedge $-1 $195 $195 $120 $196 reversed $117 $-1 #
edge $-1 $295 0 $295 6.2831853071796004 $195 $296 forward 7 unknown #
vertex $-1 $121 $297 #
ellipse-curve $-1 0 0 -2.831583605456709 0 0 -1 1 0 0 1 I I #
loop $-1 $-1 $298 $78 #
coedge $-1 $200 $200 $125 $201 reversed $122 $-1 #
edge $-1 $299 0 $299 6.2831853071796004 $200 $300 forward 7 unknown #
vertex $-1 $126 $301 #
ellipse-curve $-1 0 0 -2.831583605456709 0 0 -1 1 0 0 1 I I #
loop $-1 $-1 $302 $83 #
coedge $-1 $205 $205 $130 $206 reversed $127 $-1 #
edge $-1 $303 0 $303 6.2831853071796004 $205 $304 forward 7 unknown #
vertex $-1 $131 $305 #
ellipse-curve $-1 0 0 -2.831583605456709 0 0 -1 1 0 0 1 I I #
face $-1 $-1 $147 $21 $-1 $306 reversed single #
loop $-1 $-1 $225 $132 #
plane-surface $-1 0 45.47256441834304 0 0 -1 0 0 0 -1 forward_v I I I I #
coedge $-1 $307 $223 $226 $308 forward $133 $-1 #
coedge $-1 $229 $135 $136 $217 reversed $89 $-1 #
coedge $-1 $223 $307 $135 $215 reversed $133 $-1 #
edge $-1 $230 -18.733719560916111 $309 18.733719560916111 $214 $310 forward 7 unknown #
coedge $-1 $137 $136 $307 $311 forward $57 $-1 #
edge $-1 $221 -71.451155125583668 $309 71.451155125583668 $213 $312 forward 7 unknown #
coedge $-1 $226 $225 $137 $219 reversed $210 $-1 #
edge $-1 $313 -71.451155125583668 $220 71.451155125583668 $218 $314 forward 7 unknown #
vertex $-1 $139 $315 #
vertex $-1 $232 $316 #
straight-curve $-1 71.451155125583668 0 -18.733719560916111 0 -1 0 I I #
coedge $-1 $212 $214 $140 $224 reversed $133 $-1 #
edge $-1 $227 -45.47256441834304 $230 45.47256441834304 $223 $317 forward 7 unknown #
coedge $-1 $218 $141 $146 $233 forward $210 $-1 #
coedge $-1 $141 $218 $212 $308 reversed $210 $-1 #
vertex $-1 $142 $318 #
straight-curve $-1 0 45.47256441834304 18.733719560916111 -1 0 0 I I #
coedge $-1 $143 $213 $145 $232 reversed $89 $-1 #
vertex $-1 $224 $319 #
straight-curve $-1 0 -45.47256441834304 18.733719560916111 1 0 0 I I #
edge $-1 $148 -18.733719560916111 $221 18.733719560916111 $145 $320 forward 7 unknown #
edge $-1 $149 -18.733719560916111 $220 18.733719560916111 $146 $321 forward 7 unknown #
point $-1 71.451155125583668 -45.47256441834304 18.733719560916111 #
point $-1 71.451155125583668 45.47256441834304 18.733719560916111 #
face $-1 $-1 $166 $22 $-1 $322 reversed single #
loop $-1 $-1 $252 $151 #
plane-surface $-1 0 12.379467479287975 0 0 -1 0 0 0 -1 forward_v I I I I #
coedge $-1 $323 $250 $253 $324 forward $152 $-1 #
coedge $-1 $256 $154 $155 $244 reversed $97 $-1 #
coedge $-1 $250 $323 $154 $242 reversed $152 $-1 #
edge $-1 $257 -142.90231025116734 $325 142.90231025116734 $241 $326 forward 7 unknown #
coedge $-1 $156 $155 $323 $327 forward $61 $-1 #
edge $-1 $248 -285.80462050233467 $325 285.80462050233467 $240 $328 forward 7 unknown #
coedge $-1 $253 $252 $156 $246 reversed $237 $-1 #
edge $-1 $329 -285.80462050233467 $247 285.80462050233467 $245 $330 forward 7 unknown #
vertex $-1 $158 $331 #
vertex $-1 $259 $332 #
straight-curve $-1 285.80462050233467 0 -142.90231025116734 0 -1 0 I I #
coedge $-1 $239 $241 $159 $251 reversed $152 $-1 #
edge $-1 $254 -12.379467479287975 $257 12.379467479287975 $250 $333 forward 7 unknown #
coedge $-1 $245 $160 $165 $260 forward $237 $-1 #
coedge $-1 $160 $245 $239 $324 reversed $237 $-1 #
vertex $-1 $161 $334 #
straight-curve $-1 0 12.379467479287975 142.90231025116734 -1 0 0 I I #
coedge $-1 $162 $240 $164 $259 reversed $97 $-1 #
vertex $-1 $251 $335 #
straight-curve $-1 0 -12.379467479287975 142.90231025116734 1 0 0 I I #
edge $-1 $167 -142.90231025116734 $248 142.90231025116734 $164 $336 forward 7 unknown #
edge $-1 $168 -142.90231025116734 $247 142.90231025116734 $165 $337 forward 7 unknown #
point $-1 285.80462050233467 -12.379467479287975 142.90231025116734 #
point $-1 285.80462050233467 12.379467479287975 142.90231025116734 #
coedge $-1 $263 $263 $-1 $338 reversed $170 $-1 #
vertex $-1 $172 $339 #
ellipse-curve $-1 0 0 -1.5 0 0 -1 3 0 0 1 I I #
point $-1 3 0 -10.249320963164159 #
face $-1 $-1 $190 $24 $-1 $340 reversed single #
loop $-1 $-1 $283 $175 #
plane-surface $-1 0 11.897361431162349 0 0 -1 0 0 0 -1 forward_v I I I I #
coedge $-1 $341 $281 $284 $342 forward $176 $-1 #
coedge $-1 $287 $178 $179 $275 reversed $110 $-1 #
coedge $-1 $281 $341 $178 $273 reversed $176 $-1 #
edge $-1 $288 -142.90231025116734 $343 142.90231025116734 $272 $344 forward 7 unknown #
coedge $-1 $180 $179 $341 $345 forward $70 $-1 #
edge $-1 $279 -285.80462050233467 $343 285.80462050233467 $271 $346 forward 7 unknown #
coedge $-1 $284 $283 $180 $277 reversed $268 $-1 #
edge $-1 $347 -285.80462050233467 $278 285.80462050233467 $276 $348 forward 7 unknown #
vertex $-1 $182 $349 #
vertex $-1 $290 $350 #
straight-curve $-1 285.80462050233467 0 -142.90231025116734 0 -1 0 I I #
coedge $-1 $270 $272 $183 $282 reversed $176 $-1 #
edge $-1 $285 -11.897361431162349 $288 11.897361431162349 $281 $351 forward 7 unknown #
coedge $-1 $276 $184 $189 $291 forward $268 $-1 #
coedge $-1 $184 $276 $270 $342 reversed $268 $-1 #
vertex $-1 $185 $352 #
straight-curve $-1 0 11.897361431162349 142.90231025116734 -1 0 0 I I #
coedge $-1 $186 $271 $188 $290 reversed $110 $-1 #
vertex $-1 $282 $353 #
straight-curve $-1 0 -11.897361431162349 142.90231025116734 1 0 0 I I #
edge $-1 $191 -142.90231025116734 $279 142.90231025116734 $188 $354 forward 7 unknown #
edge $-1 $192 -142.90231025116734 $278 142.90231025116734 $189 $355 forward 7 unknown #
point $-1 285.80462050233467 -11.897361431162349 142.90231025116734 #
point $-1 285.80462050233467 11.897361431162349 142.90231025116734 #
coedge $-1 $294 $294 $-1 $356 reversed $194 $-1 #
vertex $-1 $196 $357 #
ellipse-curve $-1 0 0 -0.5 0 0 -1 1 0 0 1 I I #
point $-1 1 0 -2.831583605456709 #
coedge $-1 $298 $298 $-1 $358 reversed $199 $-1 #
vertex $-1 $201 $359 #
ellipse-curve $-1 0 0 -0.5 0 0 -1 1 0 0 1 I I #
point $-1 1 0 -2.831583605456709 #
coedge $-1 $302 $302 $-1 $360 reversed $204 $-1 #
vertex $-1 $206 $361 #
ellipse-curve $-1 0 0 -0.5 0 0 -1 1 0 0 1 I I #
point $-1 1 0 -2.831583605456709 #
plane-surface $-1 71.451155125583668 0 0 -1 0 0 0 0 1 forward_v I I I I #
coedge $-1 $214 $212 $216 $311 reversed $133 $-1 #
edge $-1 $227 -18.733719560916111 $313 18.733719560916111 $226 $362 forward 7 unknown #
vertex $-1 $311 $363 #
straight-curve $-1 -71.451155125583668 -45.47256441834304 0 0 0 -1 I I #
edge $-1 $309 -45.47256441834304 $313 45.47256441834304 $307 $364 forward 7 unknown #
straight-curve $-1 0 -45.47256441834304 -18.733719560916111 -1 0 0 I I #
vertex $-1 $219 $365 #
straight-curve $-1 0 45.47256441834304 -18.733719560916111 1 0 0 I I #
point $-1 71.451155125583668 45.47256441834304 -18.733719560916111 #
point $-1 71.451155125583668 -45.47256441834304 -18.733719560916111 #
straight-curve $-1 -71.451155125583668 0 18.733719560916111 0 -1 0 I I #
point $-1 -71.451155125583668 45.47256441834304 18.733719560916111 #
point $-1 -71.451155125583668 -45.47256441834304 18.733719560916111 #
straight-curve $-1 71.451155125583668 -45.47256441834304 0 0 0 -1 I I #
straight-curve $-1 71.451155125583668 45.47256441834304 0 0 0 -1 I I #
plane-surface $-1 285.80462050233467 0 0 -1 0 0 0 0 1 forward_v I I I I #
coedge $-1 $241 $239 $243 $327 reversed $152 $-1 #
edge $-1 $254 -142.90231025116734 $329 142.90231025116734 $253 $366 forward 7 unknown #
vertex $-1 $327 $367 #
straight-curve $-1 -285.80462050233467 -12.379467479287975 0 0 0 -1 I I #
edge $-1 $325 -12.379467479287975 $329 12.379467479287975 $323 $368 forward 7 unknown #
straight-curve $-1 0 -12.379467479287975 -142.90231025116734 -1 0 0 I I #
vertex $-1 $246 $369 #
straight-curve $-1 0 12.379467479287975 -142.90231025116734 1 0 0 I I #
point $-1 285.80462050233467 12.379467479287975 -142.90231025116734 #
point $-1 285.80462050233467 -12.379467479287975 -142.90231025116734 #
straight-curve $-1 -285.80462050233467 0 142.90231025116734 0 -1 0 I I #
point $-1 -285.80462050233467 12.379467479287975 142.90231025116734 #
point $-1 -285.80462050233467 -12.379467479287975 142.90231025116734 #
straight-curve $-1 285.80462050233467 -12.379467479287975 0 0 0 -1 I I #
straight-curve $-1 285.80462050233467 12.379467479287975 0 0 0 -1 I I #
edge $-1 $370 1 $370 0 $263 $-1 forward 7 unknown #
point $-1 3 0 -1.5 #
plane-surface $-1 285.80462050233467 0 0 -1 0 0 0 0 1 forward_v I I I I #
coedge $-1 $272 $270 $274 $345 reversed $176 $-1 #
edge $-1 $285 -142.90231025116734 $347 142.90231025116734 $284 $371 forward 7 unknown #
vertex $-1 $345 $372 #
straight-curve $-1 -285.80462050233467 -11.897361431162349 0 0 0 -1 I I #
edge $-1 $343 -11.897361431162349 $347 11.897361431162349 $341 $373 forward 7 unknown #
straight-curve $-1 0 -11.897361431162349 -142.90231025116734 -1 0 0 I I #
vertex $-1 $277 $374 #
straight-curve $-1 0 11.897361431162349 -142.90231025116734 1 0 0 I I #
point $-1 285.80462050233467 11.897361431162349 -142.90231025116734 #
point $-1 285.80462050233467 -11.897361431162349 -142.90231025116734 #
straight-curve $-1 -285.80462050233467 0 142.90231025116734 0 -1 0 I I #
point $-1 -285.80462050233467 11.897361431162349 142.90231025116734 #
point $-1 -285.80462050233467 -11.897361431162349 142.90231025116734 #
straight-curve $-1 285.80462050233467 -11.897361431162349 0 0 0 -1 I I #
straight-curve $-1 285.80462050233467 11.897361431162349 0 0 0 -1 I I #
edge $-1 $375 1 $375 0 $294 $-1 forward 7 unknown #
point $-1 1 0 -0.5 #
edge $-1 $376 1 $376 0 $298 $-1 forward 7 unknown #
point $-1 1 0 -0.5 #
edge $-1 $377 1 $377 0 $302 $-1 forward 7 unknown #
point $-1 1 0 -0.5 #
straight-curve $-1 -71.451155125583668 45.47256441834304 0 0 0 -1 I I #
point $-1 -71.451155125583668 -45.47256441834304 -18.733719560916111 #
straight-curve $-1 -71.451155125583668 0 -18.733719560916111 0 1 0 I I #
point $-1 -71.451155125583668 45.47256441834304 -18.733719560916111 #
straight-curve $-1 -285.80462050233467 12.379467479287975 0 0 0 -1 I I #
point $-1 -285.80462050233467 -12.379467479287975 -142.90231025116734 #
straight-curve $-1 -285.80462050233467 0 -142.90231025116734 0 1 0 I I #
point $-1 -285.80462050233467 12.379467479287975 -142.90231025116734 #
vertex $-1 $338 $378 #
straight-curve $-1 -285.80462050233467 11.897361431162349 0 0 0 -1 I I #
point $-1 -285.80462050233467 -11.897361431162349 -142.90231025116734 #
straight-curve $-1 -285.80462050233467 0 -142.90231025116734 0 1 0 I I #
point $-1 -285.80462050233467 11.897361431162349 -142.90231025116734 #
vertex $-1 $356 $379 #
vertex $-1 $358 $380 #
vertex $-1 $360 $381 #
point $-1 0 0 1.5 #
point $-1 0 0 0.5 #
point $-1 0 0 0.5 #
point $-1 0 0 0.5 #
End-of-ACIS-data 