500 0 7 0           
7 Unknown 11 ACIS 5.0 NT 24 Fri Mar 26 01:17:08 1999 
-1 9.9999999999999995e-007 1e-010 
body $-1 $7 $-1 $8 #
body $-1 $9 $-1 $10 #
body $-1 $11 $-1 $12 #
body $-1 $13 $-1 $14 #
body $-1 $15 $-1 $16 #
body $-1 $17 $-1 $18 #
body $-1 $19 $-1 $20 #
lump $-1 $-1 $21 $0 #
transform $-1 1 0 0 0 1 0 0 0 1 65.833307901242108 28.478475992497216 12.16821042452945 1 rotate no_reflect no_shear #
lump $-1 $-1 $22 $1 #
transform $-1 1 0 0 0 1 0 0 0 1 65.833307901242108 28.478475992497216 12.16821042452945 1 rotate no_reflect no_shear #
lump $-1 $-1 $23 $2 #
transform $-1 1 0 0 0 1 0 0 0 1 65.833307901242108 28.478475992497216 12.16821042452945 1 rotate no_reflect no_shear #
lump $-1 $-1 $24 $3 #
transform $-1 1 0 0 0 1 0 0 0 1 65.833307901242108 28.478475992497216 12.16821042452945 1 rotate no_reflect no_shear #
lump $-1 $-1 $25 $4 #
transform $-1 1 0 0 0 1 0 0 0 1 65.833307901242108 28.478475992497216 12.16821042452945 1 rotate no_reflect no_shear #
lump $-1 $-1 $26 $5 #
transform $-1 1 0 0 0 1 0 0 0 1 65.833307901242108 28.478475992497216 12.16821042452945 1 rotate no_reflect no_shear #
lump $-1 $-1 $27 $6 #
transform $-1 1 0 0 0 1 0 0 0 1 65.833307901242108 28.478475992497216 12.16821042452945 1 rotate no_reflect no_shear #
shell $-1 $-1 $-1 $28 $-1 $7 #
shell $-1 $-1 $-1 $29 $-1 $9 #
shell $-1 $-1 $-1 $30 $-1 $11 #
shell $-1 $-1 $-1 $31 $-1 $13 #
shell $-1 $-1 $-1 $32 $-1 $15 #
shell $-1 $-1 $-1 $33 $-1 $17 #
shell $-1 $-1 $-1 $34 $-1 $19 #
face $-1 $35 $36 $21 $-1 $37 forward single #
face $-1 $38 $39 $22 $-1 $40 forward single #
face $-1 $41 $42 $23 $-1 $43 reversed single #
face $-1 $44 $45 $24 $-1 $46 reversed single #
face $-1 $47 $48 $25 $-1 $49 forward single #
face $-1 $50 $51 $26 $-1 $52 reversed single #
face $-1 $53 $54 $27 $-1 $55 forward single #
face $-1 $56 $57 $21 $-1 $58 reversed single #
loop $-1 $-1 $59 $28 #
plane-surface $-1 0 0 12.16821042452945 0 0 1 1 0 0 forward_v I I I I #
face $-1 $60 $61 $22 $-1 $62 reversed single #
loop $-1 $-1 $63 $29 #
plane-surface $-1 0 -28.478475992497216 0 0 1 0 0 0 1 forward_v I I I I #
face $-1 $64 $65 $23 $-1 $66 reversed single #
loop $-1 $-1 $67 $30 #
plane-surface $-1 0 22.760416039653819 7.3590805487476789 0 0 1 1 0 0 forward_v I I I I #
face $-1 $68 $69 $24 $-1 $70 reversed single #
loop $-1 $-1 $71 $31 #
plane-surface $-1 -177.4929318033069 -15.703893789233152 71.280797129440899 0 1 0 -0.84804810408105047 0 0.52991925155115449 forward_v I I I I #
face $-1 $72 $73 $25 $-1 $74 forward single #
loop $-1 $75 $76 $32 #
cone-surface $-1 -61.827487364681907 -12.525622918052921 6.4162300275098563 0.84804810408105047 0 -0.52991925155115449 0.52991925155115449 0 0.84804810408105047 1 I I 0 1 1 forward I I I I #
face $-1 $77 $78 $26 $-1 $79 reversed single #
loop $-1 $-1 $80 $33 #
plane-surface $-1 -177.4929318033069 10.685814344449959 71.280797129440899 0 1 0 -0.84804810408105047 0 0.52991925155115449 forward_v I I I I #
face $-1 $81 $82 $27 $-1 $83 forward single #
loop $-1 $84 $85 $34 #
cone-surface $-1 -61.827487364681907 13.86408521563019 6.4162300275098563 0.84804810408105047 0 -0.52991925155115449 0.52991925155115449 0 0.84804810408105047 1 I I 0 1 1 forward I I I I #
face $-1 $86 $87 $21 $-1 $88 reversed single #
loop $-1 $-1 $89 $35 #
plane-surface $-1 0 0 -12.16821042452945 0 0 1 1 0 0 forward_v I I I I #
coedge $-1 $90 $91 $92 $93 forward $36 $-1 #
face $-1 $94 $95 $22 $-1 $96 forward single #
loop $-1 $-1 $97 $38 #
plane-surface $-1 -65.833307901242108 0 0 1 0 0 0 0 -1 forward_v I I I I #
coedge $-1 $98 $99 $100 $101 forward $39 $-1 #
face $-1 $102 $103 $23 $-1 $104 reversed single #
loop $-1 $-1 $105 $41 #
plane-surface $-1 0 17.042356086810422 9.7636454866385645 0 1 0 0 0 1 forward_v I I I I #
coedge $-1 $106 $107 $108 $109 reversed $42 $-1 #
face $-1 $110 $111 $24 $-1 $112 reversed single #
loop $-1 $-1 $113 $44 #
plane-surface $-1 -65.83330790124208 -12.525622918052921 1.50812262911505 -0.84804810408105047 0 0.52991925155115449 0.52991925155115449 0 0.84804810408105047 forward_v I I I I #
coedge $-1 $114 $115 $116 $117 reversed $45 $-1 #
face $-1 $-1 $118 $25 $-1 $119 forward single #
loop $-1 $120 $121 $47 #
cone-surface $-1 -60.728223741259363 -12.525622918052921 5.7293339024218728 0.84804810408105047 0 -0.52991925155115449 0.26495962577557725 0 0.42402405204052523 1 I I -0.70710678118654746 0.70710678118654746 0.5 forward I I I I #
loop $-1 $-1 $122 $32 #
coedge $-1 $76 $76 $123 $124 reversed $48 $-1 #
face $-1 $125 $126 $26 $-1 $127 forward single #
loop $-1 $-1 $128 $50 #
plane-surface $-1 -65.83330790124208 13.86408521563019 1.50812262911505 -0.84804810408105047 0 0.52991925155115449 0.52991925155115449 0 0.84804810408105047 forward_v I I I I #
coedge $-1 $129 $130 $131 $132 reversed $51 $-1 #
face $-1 $-1 $133 $27 $-1 $134 forward single #
loop $-1 $135 $136 $53 #
cone-surface $-1 -60.728223741259363 13.86408521563019 5.7293339024218728 0.84804810408105047 0 -0.52991925155115449 0.26495962577557725 0 0.42402405204052523 1 I I -0.70710678118654746 0.70710678118654746 0.5 forward I I I I #
loop $-1 $-1 $137 $34 #
coedge $-1 $85 $85 $138 $139 reversed $54 $-1 #
face $-1 $140 $141 $21 $-1 $142 reversed single #
loop $-1 $-1 $143 $56 #
plane-surface $-1 0 -28.478475992497216 0 0 1 0 0 0 1 forward_v I I I I #
coedge $-1 $144 $145 $146 $147 forward $57 $-1 #
coedge $-1 $148 $59 $149 $150 forward $36 $-1 #
coedge $-1 $59 $148 $151 $152 forward $36 $-1 #
coedge $-1 $153 $154 $59 $93 reversed $155 $-1 #
edge $-1 $156 -28.478475992497216 $157 28.478475992497216 $92 $158 forward 7 unknown #
face $-1 $159 $160 $22 $-1 $161 reversed single #
loop $-1 $-1 $162 $60 #
plane-surface $-1 0 -34.865767094129247 -2.2054203103321219 0 0 1 1 0 0 forward_v I I I I #
coedge $-1 $163 $164 $99 $165 forward $61 $-1 #
coedge $-1 $166 $63 $167 $168 reversed $39 $-1 #
coedge $-1 $63 $166 $97 $165 reversed $39 $-1 #
coedge $-1 $169 $162 $63 $101 reversed $95 $-1 #
edge $-1 $170 -65.833307901242108 $171 65.833307901242108 $100 $172 forward 7 unknown #
face $-1 $173 $174 $23 $-1 $175 reversed single #
loop $-1 $-1 $176 $64 #
plane-surface $-1 65.833307901242108 0 0 -1 0 0 0 0 1 forward_v I I I I #
coedge $-1 $177 $178 $179 $180 reversed $65 $-1 #
coedge $-1 $181 $67 $177 $182 forward $42 $-1 #
coedge $-1 $67 $181 $183 $184 reversed $42 $-1 #
coedge $-1 $185 $176 $67 $109 forward $103 $-1 #
edge $-1 $186 5.6621480669835123 $187 17.098267972670307 $108 $188 forward 7 unknown #
face $-1 $189 $190 $24 $-1 $191 reversed single #
loop $-1 $-1 $192 $68 #
plane-surface $-1 -177.4929318033069 -9.3473520468726896 71.280797129440899 0 -1 0 0.84804810408105047 0 -0.52991925155115449 forward_v I I I I #
coedge $-1 $193 $194 $195 $196 reversed $69 $-1 #
coedge $-1 $115 $71 $197 $198 reversed $45 $-1 #
coedge $-1 $71 $114 $193 $199 reversed $45 $-1 #
coedge $-1 $195 $200 $71 $117 forward $201 $-1 #
edge $-1 $202 22.913158000411343 $203 29.57431993076775 $116 $204 forward 7 unknown #
loop $-1 $-1 $123 $72 #
plane-surface $-1 -65.83330790124208 -12.525622918052921 1.50812262911505 -0.84804810408105047 0 0.52991925155115449 0.52991925155115449 0 0.84804810408105047 forward_v I I I I #
loop $-1 $-1 $205 $47 #
coedge $-1 $121 $121 $122 $206 reversed $73 $-1 #
coedge $-1 $122 $122 $121 $206 forward $75 $-1 #
coedge $-1 $123 $123 $76 $124 forward $118 $-1 #
edge $-1 $207 0 $207 6.2831853071796004 $123 $208 forward 7 unknown #
face $-1 $209 $210 $26 $-1 $211 forward single #
loop $-1 $-1 $131 $77 #
plane-surface $-1 0 0 12.16821042452945 0 0 1 1 0 0 forward_v I I I I #
coedge $-1 $212 $213 $214 $215 reversed $78 $-1 #
coedge $-1 $130 $80 $216 $217 reversed $51 $-1 #
coedge $-1 $80 $129 $212 $218 reversed $51 $-1 #
coedge $-1 $214 $219 $80 $132 forward $126 $-1 #
edge $-1 $220 22.913158000411343 $221 29.57431993076775 $131 $222 forward 7 unknown #
loop $-1 $-1 $138 $81 #
plane-surface $-1 -65.83330790124208 13.86408521563019 1.50812262911505 -0.84804810408105047 0 0.52991925155115449 0.52991925155115449 0 0.84804810408105047 forward_v I I I I #
loop $-1 $-1 $223 $53 #
coedge $-1 $136 $136 $137 $224 reversed $82 $-1 #
coedge $-1 $137 $137 $136 $224 forward $84 $-1 #
coedge $-1 $138 $138 $85 $139 forward $133 $-1 #
edge $-1 $225 0 $225 6.2831853071796004 $138 $226 forward 7 unknown #
face $-1 $227 $228 $21 $-1 $229 reversed single #
loop $-1 $-1 $230 $86 #
plane-surface $-1 -65.833307901242108 0 0 1 0 0 0 0 -1 forward_v I I I I #
coedge $-1 $231 $151 $232 $233 forward $87 $-1 #
coedge $-1 $234 $89 $231 $235 forward $57 $-1 #
coedge $-1 $89 $234 $236 $237 forward $57 $-1 #
coedge $-1 $154 $153 $89 $147 reversed $155 $-1 #
edge $-1 $238 -28.478475992497216 $239 28.478475992497216 $146 $240 forward 7 unknown #
coedge $-1 $91 $90 $241 $242 forward $36 $-1 #
coedge $-1 $243 $244 $90 $150 reversed $228 $-1 #
edge $-1 $157 -65.833307901242108 $245 65.833307901242108 $149 $246 forward 7 unknown #
coedge $-1 $143 $247 $91 $152 reversed $87 $-1 #
edge $-1 $248 -65.833307901242108 $156 65.833307901242108 $151 $249 forward 7 unknown #
coedge $-1 $146 $92 $247 $250 forward $155 $-1 #
coedge $-1 $92 $146 $243 $251 reversed $155 $-1 #
loop $-1 $-1 $153 $227 #
vertex $-1 $93 $252 #
vertex $-1 $93 $253 #
straight-curve $-1 65.833307901242108 0 12.16821042452945 0 1 0 I I #
face $-1 $254 $255 $22 $-1 $256 reversed single #
loop $-1 $-1 $257 $94 #
plane-surface $-1 0 -34.865767094129247 -5.3865270377897518 0 0 1 1 0 0 forward_v I I I I #
coedge $-1 $100 $258 $259 $260 forward $95 $-1 #
coedge $-1 $261 $97 $262 $263 reversed $61 $-1 #
coedge $-1 $97 $261 $169 $264 reversed $61 $-1 #
edge $-1 $170 2.2054203103321219 $265 5.3865270377897518 $97 $266 forward 7 unknown #
coedge $-1 $99 $98 $267 $268 forward $39 $-1 #
coedge $-1 $259 $269 $98 $168 forward $270 $-1 #
edge $-1 $271 -5.3865270377897518 $171 -2.2054203103321219 $167 $272 forward 7 unknown #
coedge $-1 $258 $100 $164 $264 forward $95 $-1 #
vertex $-1 $165 $273 #
vertex $-1 $260 $274 #
straight-curve $-1 0 -28.478475992497216 -2.2054203103321219 1 0 0 I I #
face $-1 $275 $276 $23 $-1 $277 forward single #
loop $-1 $-1 $183 $102 #
plane-surface $-1 0 28.478475992497216 0 0 -1 0 0 0 -1 forward_v I I I I #
coedge $-1 $108 $278 $279 $280 forward $103 $-1 #
coedge $-1 $279 $105 $106 $182 reversed $65 $-1 #
coedge $-1 $105 $279 $281 $282 reversed $65 $-1 #
coedge $-1 $283 $284 $105 $180 forward $285 $-1 #
edge $-1 $286 2.4772578054283967 $287 7.2863876812101678 $179 $288 forward 7 unknown #
coedge $-1 $107 $106 $284 $289 reversed $42 $-1 #
edge $-1 $186 -65.833307901242108 $286 65.833307901242108 $177 $290 forward 7 unknown #
coedge $-1 $291 $292 $107 $184 forward $174 $-1 #
edge $-1 $187 -65.833307901242108 $293 65.833307901242108 $183 $294 forward 7 unknown #
coedge $-1 $278 $108 $292 $295 reversed $103 $-1 #
vertex $-1 $109 $296 #
vertex $-1 $184 $297 #
straight-curve $-1 65.833307901242108 11.38020801982691 7.3590805487476789 0 1 0 I I #
face $-1 $-1 $201 $24 $-1 $298 forward single #
loop $-1 $-1 $299 $110 #
plane-surface $-1 -65.833307901242108 0 0 1 0 0 0 0 -1 forward_v I I I I #
coedge $-1 $300 $301 $302 $303 reversed $111 $-1 #
coedge $-1 $304 $113 $115 $199 forward $69 $-1 #
coedge $-1 $113 $304 $300 $305 forward $69 $-1 #
coedge $-1 $302 $116 $113 $196 forward $201 $-1 #
edge $-1 $203 -9.441082330206692 $306 -3.0845405878462291 $195 $307 forward 7 unknown #
coedge $-1 $308 $309 $114 $198 forward $190 $-1 #
edge $-1 $310 -34.132275935605442 $202 -23.472188140191001 $197 $311 forward 7 unknown #
edge $-1 $203 -12.570145188834223 $310 5.3663634765924311e-014 $115 $312 forward 7 unknown #
coedge $-1 $116 $302 $308 $313 forward $201 $-1 #
loop $-1 $-1 $302 $189 #
vertex $-1 $198 $314 #
vertex $-1 $117 $315 #
straight-curve $-1 -88.746465901653451 -15.703893789233152 12.168210424529448 1 0 0 I I #
coedge $-1 $205 $205 $-1 $316 reversed $120 $-1 #
edge $-1 $317 0 $317 6.2831853071796004 $121 $318 forward 7 unknown #
vertex $-1 $124 $319 #
ellipse-curve $-1 -62.502726936063894 -12.525622918052921 6.8381665268222438 -0.84804810408105047 0 0.52991925155115449 0.52991925155115449 0 0.84804810408105047 1 I I #
face $-1 $-1 $320 $26 $-1 $321 reversed single #
loop $-1 $-1 $322 $125 #
plane-surface $-1 0 17.042356086810422 9.7636454866385645 0 1 0 0 0 1 forward_v I I I I #
coedge $-1 $323 $128 $130 $218 forward $78 $-1 #
coedge $-1 $128 $323 $322 $324 forward $78 $-1 #
coedge $-1 $325 $131 $128 $215 forward $126 $-1 #
edge $-1 $221 3.7537717366348637 $326 10.110313478995327 $214 $327 forward 7 unknown #
coedge $-1 $328 $329 $129 $217 forward $320 $-1 #
edge $-1 $330 -34.132275935605442 $220 -23.472188140191001 $216 $331 forward 7 unknown #
edge $-1 $221 -12.570145188834223 $330 5.3663634765924311e-014 $130 $332 forward 7 unknown #
coedge $-1 $131 $325 $328 $333 forward $126 $-1 #
vertex $-1 $217 $334 #
vertex $-1 $132 $335 #
straight-curve $-1 -88.746465901653451 10.685814344449959 12.168210424529448 1 0 0 I I #
coedge $-1 $223 $223 $-1 $336 reversed $135 $-1 #
edge $-1 $337 0 $337 6.2831853071796004 $136 $338 forward 7 unknown #
vertex $-1 $139 $339 #
ellipse-curve $-1 -62.502726936063894 13.86408521563019 6.8381665268222438 -0.84804810408105047 0 0.52991925155115449 0.52991925155115449 0 0.84804810408105047 1 I I #
face $-1 $-1 $155 $21 $-1 $340 reversed single #
loop $-1 $-1 $243 $140 #
plane-surface $-1 0 28.478475992497216 0 0 -1 0 0 0 -1 forward_v I I I I #
coedge $-1 $341 $241 $244 $342 forward $141 $-1 #
coedge $-1 $247 $143 $144 $235 reversed $87 $-1 #
coedge $-1 $241 $341 $143 $233 reversed $141 $-1 #
edge $-1 $248 -12.16821042452945 $343 12.16821042452945 $232 $344 forward 7 unknown #
coedge $-1 $145 $144 $341 $345 forward $57 $-1 #
edge $-1 $239 -65.833307901242108 $343 65.833307901242108 $231 $346 forward 7 unknown #
coedge $-1 $244 $243 $145 $237 reversed $228 $-1 #
edge $-1 $347 -65.833307901242108 $238 65.833307901242108 $236 $348 forward 7 unknown #
vertex $-1 $147 $349 #
vertex $-1 $250 $350 #
straight-curve $-1 65.833307901242108 0 -12.16821042452945 0 -1 0 I I #
coedge $-1 $230 $232 $148 $242 reversed $141 $-1 #
edge $-1 $245 -28.478475992497216 $248 28.478475992497216 $241 $351 forward 7 unknown #
coedge $-1 $236 $149 $154 $251 forward $228 $-1 #
coedge $-1 $149 $236 $230 $342 reversed $228 $-1 #
vertex $-1 $150 $352 #
straight-curve $-1 0 28.478475992497216 12.16821042452945 -1 0 0 I I #
coedge $-1 $151 $231 $153 $250 reversed $87 $-1 #
vertex $-1 $242 $353 #
straight-curve $-1 0 -28.478475992497216 12.16821042452945 1 0 0 I I #
edge $-1 $156 -12.16821042452945 $239 12.16821042452945 $153 $354 forward 7 unknown #
edge $-1 $157 -12.16821042452945 $238 12.16821042452945 $154 $355 forward 7 unknown #
point $-1 65.833307901242108 -28.478475992497216 12.16821042452945 #
point $-1 65.833307901242108 28.478475992497216 12.16821042452945 #
face $-1 $-1 $270 $22 $-1 $356 reversed single #
loop $-1 $-1 $357 $159 #
plane-surface $-1 0 -41.253058195761277 -3.7959736740609369 0 1 0 0 0 1 forward_v I I I I #
coedge $-1 $358 $267 $269 $359 forward $160 $-1 #
coedge $-1 $162 $169 $360 $361 forward $95 $-1 #
coedge $-1 $362 $167 $162 $260 reversed $270 $-1 #
edge $-1 $363 -6.3872911016320302 $171 6.3872911016320337 $259 $364 forward 7 unknown #
coedge $-1 $164 $163 $357 $365 reversed $61 $-1 #
coedge $-1 $267 $358 $163 $263 forward $160 $-1 #
edge $-1 $366 -6.3872911016320302 $265 6.3872911016320337 $163 $367 forward 7 unknown #
edge $-1 $170 -6.3872911016320337 $368 6.3872911016320302 $164 $369 forward 7 unknown #
vertex $-1 $165 $370 #
straight-curve $-1 -65.833307901242108 -28.478475992497216 0 0 0 -1 I I #
coedge $-1 $257 $262 $166 $268 reversed $160 $-1 #
edge $-1 $271 -65.833307901242108 $265 65.833307901242108 $267 $371 forward 7 unknown #
coedge $-1 $167 $362 $257 $359 reversed $270 $-1 #
loop $-1 $-1 $167 $254 #
vertex $-1 $168 $372 #
straight-curve $-1 65.833307901242108 -28.478475992497216 0 0 0 1 I I #
point $-1 -65.833307901242108 -28.478475992497213 -2.2054203103321219 #
point $-1 65.833307901242108 -28.478475992497213 -2.2054203103321219 #
face $-1 $-1 $285 $23 $-1 $373 reversed single #
loop $-1 $-1 $281 $173 #
plane-surface $-1 0 0 12.16821042452945 0 0 1 1 0 0 forward_v I I I I #
coedge $-1 $176 $185 $374 $375 reversed $103 $-1 #
coedge $-1 $178 $177 $176 $280 reversed $65 $-1 #
edge $-1 $376 -7.2863876812101678 $186 -2.4772578054283967 $176 $377 forward 7 unknown #
coedge $-1 $374 $378 $178 $282 forward $276 $-1 #
edge $-1 $287 -65.833307901242108 $376 65.833307901242108 $281 $379 forward 7 unknown #
coedge $-1 $380 $179 $378 $381 reversed $285 $-1 #
coedge $-1 $179 $380 $181 $289 forward $285 $-1 #
loop $-1 $-1 $179 $275 #
vertex $-1 $289 $382 #
vertex $-1 $180 $383 #
straight-curve $-1 -65.833307901242108 17.042356086810422 4.8818227433192822 0 0 1 I I #
edge $-1 $293 -17.098267972670307 $286 -5.6621480669835123 $284 $384 forward 7 unknown #
straight-curve $-1 0 17.042356086810422 7.3590805487476789 -1 0 0 I I #
coedge $-1 $385 $183 $380 $386 reversed $174 $-1 #
coedge $-1 $183 $385 $185 $295 forward $174 $-1 #
vertex $-1 $184 $387 #
straight-curve $-1 0 28.478475992497216 7.3590805487476789 -1 0 0 I I #
edge $-1 $388 -12.16821042452945 $187 -7.3590805487476789 $185 $389 forward 7 unknown #
point $-1 65.833307901242108 17.042356086810422 7.3590805487476789 #
point $-1 65.833307901242108 28.478475992497216 7.3590805487476789 #
plane-surface $-1 0 0 12.16821042452945 0 0 1 1 0 0 forward_v I I I I #
coedge $-1 $309 $308 $301 $390 forward $190 $-1 #
coedge $-1 $301 $192 $194 $305 reversed $111 $-1 #
coedge $-1 $192 $300 $299 $390 reversed $111 $-1 #
coedge $-1 $200 $195 $192 $303 forward $201 $-1 #
edge $-1 $306 -29.57431993076775 $391 -22.913158000411343 $302 $392 forward 7 unknown #
coedge $-1 $194 $193 $309 $393 reversed $69 $-1 #
edge $-1 $394 -5.3663634765924311e-014 $306 12.570145188834223 $300 $395 forward 7 unknown #
vertex $-1 $196 $396 #
straight-curve $-1 -59.172145970885701 -6.2628114590264605 12.16821042452945 0 1 0 I I #
coedge $-1 $299 $197 $200 $313 reversed $190 $-1 #
coedge $-1 $197 $299 $304 $393 forward $190 $-1 #
vertex $-1 $198 $397 #
straight-curve $-1 -65.833307901242108 -15.703893789233152 35.640398564720449 0 0 1 I I #
straight-curve $-1 -65.83330790124208 -15.703893789233152 1.50812262911505 -0.52991925155115449 0 -0.84804810408105047 I I #
edge $-1 $391 9.3473520468726896 $202 15.703893789233152 $308 $398 forward 7 unknown #
point $-1 -65.833307901242108 -15.703893789233152 12.16821042452945 #
point $-1 -59.172145970885701 -15.703893789233152 12.16821042452945 #
edge $-1 $399 1 $399 0 $205 $-1 forward 7 unknown #
vertex $-1 $206 $400 #
ellipse-curve $-1 -61.152247793299885 -12.525622918052921 5.9942935281974501 -0.84804810408105047 0 0.52991925155115449 0.52991925155115449 0 0.84804810408105047 1 I I #
point $-1 -61.972807684512773 -12.525622918052921 7.6862146309033132 #
loop $-1 $-1 $216 $209 #
plane-surface $-1 -65.833307901242108 0 0 1 0 0 0 0 -1 forward_v I I I I #
coedge $-1 $401 $402 $213 $324 reversed $210 $-1 #
coedge $-1 $213 $212 $329 $403 reversed $78 $-1 #
edge $-1 $404 -5.3663634765924311e-014 $326 12.570145188834223 $322 $405 forward 7 unknown #
coedge $-1 $219 $214 $402 $406 forward $126 $-1 #
vertex $-1 $406 $407 #
straight-curve $-1 -59.172145970885701 6.9320426078150952 12.16821042452945 0 1 0 I I #
coedge $-1 $408 $216 $219 $333 reversed $320 $-1 #
coedge $-1 $216 $408 $323 $403 forward $320 $-1 #
vertex $-1 $217 $409 #
straight-curve $-1 -65.833307901242108 10.685814344449959 35.640398564720449 0 0 1 I I #
straight-curve $-1 -65.83330790124208 10.685814344449959 1.50812262911505 -0.52991925155115449 0 -0.84804810408105047 I I #
edge $-1 $410 -17.042356086810422 $220 -10.685814344449959 $328 $411 forward 7 unknown #
point $-1 -65.833307901242108 10.685814344449959 12.16821042452945 #
point $-1 -59.172145970885701 10.685814344449959 12.16821042452945 #
edge $-1 $412 1 $412 0 $223 $-1 forward 7 unknown #
vertex $-1 $224 $413 #
ellipse-curve $-1 -61.152247793299885 13.86408521563019 5.9942935281974501 -0.84804810408105047 0 0.52991925155115449 0.52991925155115449 0 0.84804810408105047 1 I I #
point $-1 -61.972807684512773 13.86408521563019 7.6862146309033132 #
plane-surface $-1 65.833307901242108 0 0 -1 0 0 0 0 1 forward_v I I I I #
coedge $-1 $232 $230 $234 $345 reversed $141 $-1 #
edge $-1 $245 -12.16821042452945 $347 12.16821042452945 $244 $414 forward 7 unknown #
vertex $-1 $345 $415 #
straight-curve $-1 -65.833307901242108 -28.478475992497216 0 0 0 -1 I I #
edge $-1 $343 -28.478475992497216 $347 28.478475992497216 $341 $416 forward 7 unknown #
straight-curve $-1 0 -28.478475992497216 -12.16821042452945 -1 0 0 I I #
vertex $-1 $237 $417 #
straight-curve $-1 0 28.478475992497216 -12.16821042452945 1 0 0 I I #
point $-1 65.833307901242108 28.478475992497216 -12.16821042452945 #
point $-1 65.833307901242108 -28.478475992497216 -12.16821042452945 #
straight-curve $-1 -65.833307901242108 0 12.16821042452945 0 -1 0 I I #
point $-1 -65.833307901242108 28.478475992497216 12.16821042452945 #
point $-1 -65.833307901242108 -28.478475992497216 12.16821042452945 #
straight-curve $-1 65.833307901242108 -28.478475992497216 0 0 0 -1 I I #
straight-curve $-1 65.833307901242108 28.478475992497216 0 0 0 -1 I I #
plane-surface $-1 65.833307901242108 0 0 -1 0 0 0 0 1 forward_v I I I I #
coedge $-1 $418 $360 $261 $365 forward $255 $-1 #
coedge $-1 $262 $257 $418 $419 forward $160 $-1 #
edge $-1 $271 -6.3872911016320337 $420 6.3872911016320302 $269 $421 forward 7 unknown #
coedge $-1 $357 $422 $258 $361 reversed $255 $-1 #
edge $-1 $368 -65.833307901242108 $363 65.833307901242108 $360 $423 forward 7 unknown #
coedge $-1 $269 $259 $422 $424 forward $270 $-1 #
vertex $-1 $260 $425 #
straight-curve $-1 65.833307901242108 -34.865767094129247 -2.2054203103321219 0 1 0 I I #
edge $-1 $368 -1.590553363728815 $366 1.590553363728815 $261 $426 forward 7 unknown #
vertex $-1 $263 $427 #
straight-curve $-1 -65.833307901242108 -34.865767094129247 -5.3865270377897518 0 1 0 I I #
vertex $-1 $264 $428 #
straight-curve $-1 -65.833307901242108 -34.865767094129247 -2.2054203103321219 0 -1 0 I I #
point $-1 -65.833307901242108 -28.478475992497213 -5.3865270377897518 #
straight-curve $-1 0 -28.478475992497216 -5.3865270377897518 -1 0 0 I I #
point $-1 65.833307901242108 -28.478475992497213 -5.3865270377897518 #
plane-surface $-1 -65.833307901242108 0 0 1 0 0 0 0 -1 forward_v I I I I #
coedge $-1 $429 $281 $278 $375 forward $276 $-1 #
edge $-1 $376 17.042356086810422 $388 28.478475992497216 $278 $430 forward 7 unknown #
vertex $-1 $375 $431 #
straight-curve $-1 65.833307901242108 17.042356086810422 4.8818227433192822 0 0 -1 I I #
coedge $-1 $281 $429 $283 $381 forward $276 $-1 #
straight-curve $-1 0 17.042356086810422 12.16821042452945 1 0 0 I I #
coedge $-1 $284 $283 $291 $386 forward $285 $-1 #
edge $-1 $432 -28.478475992497216 $287 -17.042356086810422 $283 $433 forward 7 unknown #
point $-1 -65.833307901242108 17.042356086810422 7.3590805487476789 #
point $-1 -65.833307901242108 17.042356086810422 12.16821042452945 #
straight-curve $-1 -65.833307901242108 11.38020801982691 7.3590805487476789 0 -1 0 I I #
coedge $-1 $292 $291 $429 $434 reversed $174 $-1 #
edge $-1 $432 -12.16821042452945 $293 -7.3590805487476789 $291 $435 forward 7 unknown #
point $-1 -65.833307901242108 28.478475992497216 7.3590805487476789 #
vertex $-1 $375 $436 #
straight-curve $-1 65.833307901242108 28.478475992497216 0 0 0 -1 I I #
edge $-1 $391 23.472188140191001 $394 34.132275935605442 $299 $437 forward 7 unknown #
vertex $-1 $313 $438 #
straight-curve $-1 -88.746465901653451 -9.3473520468726896 12.168210424529448 -1 0 0 I I #
edge $-1 $394 3.0845405878462291 $310 9.441082330206692 $309 $439 forward 7 unknown #
vertex $-1 $393 $440 #
straight-curve $-1 -65.83330790124208 -9.3473520468726896 1.50812262911505 0.52991925155115449 0 0.84804810408105047 I I #
point $-1 -59.172145970885701 -9.3473520468726896 12.16821042452945 #
point $-1 -65.833307901242108 -15.703893789233152 1.5081226291150045 #
straight-curve $-1 -65.833307901242108 0 12.16821042452945 0 -1 0 I I #
vertex $-1 $316 $441 #
point $-1 -60.622328541748736 -12.525622918052921 6.8423416322785009 #
coedge $-1 $402 $322 $408 $442 reversed $210 $-1 #
coedge $-1 $322 $401 $325 $406 reversed $210 $-1 #
edge $-1 $404 -10.110313478995327 $330 -3.7537717366348637 $329 $443 forward 7 unknown #
vertex $-1 $442 $444 #
straight-curve $-1 -65.83330790124208 17.042356086810422 1.50812262911505 0.52991925155115449 0 0.84804810408105047 I I #
edge $-1 $326 59.172145970885701 $410 65.833307901242108 $325 $445 forward 7 unknown #
point $-1 -59.172145970885701 17.042356086810422 12.16821042452945 #
coedge $-1 $329 $328 $401 $442 forward $320 $-1 #
point $-1 -65.833307901242108 10.685814344449959 1.5081226291150045 #
vertex $-1 $333 $446 #
straight-curve $-1 -65.833307901242108 0 12.16821042452945 0 -1 0 I I #
vertex $-1 $336 $447 #
point $-1 -60.622328541748736 13.86408521563019 6.8423416322785009 #
straight-curve $-1 -65.833307901242108 28.478475992497216 0 0 0 -1 I I #
point $-1 -65.833307901242108 -28.478475992497216 -12.16821042452945 #
straight-curve $-1 -65.833307901242108 0 -12.16821042452945 0 1 0 I I #
point $-1 -65.833307901242108 28.478475992497216 -12.16821042452945 #
coedge $-1 $422 $357 $358 $419 reversed $255 $-1 #
edge $-1 $420 -65.833307901242108 $366 65.833307901242108 $418 $448 forward 7 unknown #
vertex $-1 $424 $449 #
straight-curve $-1 65.833307901242108 -34.865767094129247 -5.3865270377897518 0 -1 0 I I #
coedge $-1 $360 $418 $362 $424 reversed $255 $-1 #
straight-curve $-1 0 -41.253058195761277 -2.2054203103321219 1 0 0 I I #
edge $-1 $363 -1.590553363728815 $420 1.590553363728815 $362 $450 forward 7 unknown #
point $-1 65.833307901242108 -41.253058195761277 -2.2054203103321219 #
straight-curve $-1 -65.833307901242108 -41.253058195761277 -3.7959736740609369 0 0 -1 I I #
point $-1 -65.833307901242108 -41.253058195761277 -5.3865270377897518 #
point $-1 -65.833307901242108 -41.253058195761277 -2.2054203103321219 #
coedge $-1 $378 $374 $385 $434 forward $276 $-1 #
straight-curve $-1 65.833307901242108 0 12.16821042452945 0 1 0 I I #
point $-1 65.833307901242108 17.042356086810422 12.16821042452945 #
vertex $-1 $434 $451 #
straight-curve $-1 -65.833307901242108 0 12.16821042452945 0 -1 0 I I #
edge $-1 $388 -65.833307901242108 $432 65.833307901242108 $385 $452 forward 7 unknown #
straight-curve $-1 -65.833307901242108 28.478475992497216 0 0 0 -1 I I #
point $-1 65.833307901242108 28.478475992497216 12.16821042452945 #
straight-curve $-1 -65.833307901242108 -9.3473520468726896 35.640398564720449 0 0 -1 I I #
point $-1 -65.833307901242108 -9.3473520468726896 12.16821042452945 #
straight-curve $-1 -65.833307901242108 -6.2628114590264605 1.5081226291150016 0 -1 0 I I #
point $-1 -65.833307901242108 -9.3473520468726896 1.5081226291150045 #
point $-1 -60.304199689218841 -12.525622918052921 5.4643742766462955 #
edge $-1 $410 23.472188140191001 $404 34.132275935605442 $408 $453 forward 7 unknown #
straight-curve $-1 -65.833307901242108 6.9320426078150952 1.5081226291150016 0 -1 0 I I #
point $-1 -65.833307901242108 17.042356086810422 1.5081226291150045 #
straight-curve $-1 0 17.042356086810422 12.16821042452945 -1 0 0 I I #
point $-1 -65.833307901242108 17.042356086810422 12.16821042452945 #
point $-1 -60.304199689218841 13.86408521563019 5.4643742766462955 #
straight-curve $-1 0 -41.253058195761277 -5.3865270377897518 -1 0 0 I I #
point $-1 65.833307901242108 -41.253058195761277 -5.3865270377897518 #
straight-curve $-1 65.833307901242108 -41.253058195761277 -3.7959736740609369 0 0 -1 I I #
point $-1 -65.833307901242108 28.478475992497216 12.16821042452945 #
straight-curve $-1 0 28.478475992497216 12.16821042452945 -1 0 0 I I #
straight-curve $-1 -65.833307901242108 17.042356086810422 35.640398564720449 0 0 -1 I I #
End-of-ACIS-data 