500 0 6 0           
7 Unknown 11 ACIS 5.0 NT 24 Fri Mar 26 01:27:32 1999 
-1 9.9999999999999995e-007 1e-010 
body $-1 $6 $-1 $7 #
body $-1 $8 $-1 $9 #
body $-1 $10 $-1 $11 #
body $-1 $12 $-1 $13 #
body $-1 $14 $-1 $15 #
body $-1 $16 $-1 $17 #
lump $-1 $-1 $18 $0 #
transform $-1 1 0 0 0 1 0 0 0 1 43.507187108981597 18.89781615546136 8.5268847406007602 1 rotate no_reflect no_shear #
lump $-1 $-1 $19 $1 #
transform $-1 1 0 0 0 1 0 0 0 1 43.507187108981597 18.89781615546136 8.5268847406007602 1 rotate no_reflect no_shear #
lump $-1 $-1 $20 $2 #
transform $-1 1 0 0 0 1 0 0 0 1 43.507187108981597 18.89781615546136 8.5268847406007602 1 rotate no_reflect no_shear #
lump $-1 $-1 $21 $3 #
transform $-1 1 0 0 0 1 0 0 0 1 43.507187108981597 18.89781615546136 8.5268847406007602 1 rotate no_reflect no_shear #
lump $-1 $-1 $22 $4 #
transform $-1 1 0 0 0 1 0 0 0 1 43.507187108981597 18.89781615546136 8.5268847406007602 1 rotate no_reflect no_shear #
lump $-1 $-1 $23 $5 #
transform $-1 1 0 0 0 1 0 0 0 1 43.507187108981597 18.89781615546136 8.5268847406007602 1 rotate no_reflect no_shear #
shell $-1 $-1 $-1 $24 $-1 $6 #
shell $-1 $-1 $-1 $25 $-1 $8 #
shell $-1 $-1 $-1 $26 $-1 $10 #
shell $-1 $-1 $-1 $27 $-1 $12 #
shell $-1 $-1 $-1 $28 $-1 $14 #
shell $-1 $-1 $-1 $29 $-1 $16 #
face $-1 $30 $31 $18 $-1 $32 forward single #
face $-1 $33 $34 $19 $-1 $35 forward single #
face $-1 $36 $37 $20 $-1 $38 reversed single #
face $-1 $39 $40 $21 $-1 $41 forward single #
face $-1 $42 $43 $22 $-1 $44 reversed single #
face $-1 $45 $46 $23 $-1 $47 forward single #
face $-1 $48 $49 $18 $-1 $50 reversed single #
loop $-1 $-1 $51 $24 #
plane-surface $-1 0 0 8.5268847406007602 0 0 1 1 0 0 forward_v I I I I #
face $-1 $52 $53 $19 $-1 $54 reversed single #
loop $-1 $-1 $55 $25 #
plane-surface $-1 0 -18.89781615546136 0 0 1 0 0 0 1 forward_v I I I I #
face $-1 $56 $57 $20 $-1 $58 reversed single #
loop $-1 $-1 $59 $26 #
plane-surface $-1 -98.267107798771889 11.163141620938248 70.753763903265437 0 1 0 -0.62932039886446345 0 0.77714595512881146 forward_v I I I I #
face $-1 $60 $61 $21 $-1 $62 forward single #
loop $-1 $63 $64 $27 #
cone-surface $-1 -39.430203215431462 15.030478888199799 4.90859790341693 0.62932039886446345 0 -0.77714595512881146 0.77714595512881146 0 0.62932039886446345 1 I I 0 1 1 forward I I I I #
face $-1 $65 $66 $22 $-1 $67 reversed single #
loop $-1 $-1 $68 $28 #
plane-surface $-1 30.64423883721706 11.163141620938248 125.51368459305573 0 1 0 0.62932039886446345 0 0.77714595512881146 forward_v I I I I #
face $-1 $69 $70 $23 $-1 $71 forward single #
loop $-1 $72 $73 $29 #
cone-surface $-1 39.430203215431462 15.030478888199799 4.9085979034169336 -0.62932039886446345 0 -0.77714595512881146 0.77714595512881146 0 -0.62932039886446345 1 I I 0 1 1 forward I I I I #
face $-1 $74 $75 $18 $-1 $76 reversed single #
loop $-1 $-1 $77 $30 #
plane-surface $-1 0 0 -8.5268847406007602 0 0 1 1 0 0 forward_v I I I I #
coedge $-1 $78 $79 $80 $81 forward $31 $-1 #
face $-1 $82 $83 $19 $-1 $84 reversed single #
loop $-1 $-1 $85 $33 #
plane-surface $-1 0 0 -8.5268847406007602 0 0 1 1 0 0 forward_v I I I I #
coedge $-1 $86 $87 $88 $89 forward $34 $-1 #
face $-1 $90 $91 $20 $-1 $92 reversed single #
loop $-1 $-1 $93 $36 #
plane-surface $-1 -43.507187108981604 15.030478888199806 3.1308949417106078 -0.62932039886446345 0 0.77714595512881146 0.77714595512881146 0 0.62932039886446345 forward_v I I I I #
coedge $-1 $94 $95 $96 $97 reversed $37 $-1 #
face $-1 $-1 $98 $21 $-1 $99 forward single #
loop $-1 $100 $101 $39 #
cone-surface $-1 -38.370305283617924 15.030478888199799 3.5997329881137716 0.62932039886446345 0 -0.77714595512881146 0.38857297756440573 0 0.31466019943223172 1 I I -0.70710678118654746 0.70710678118654746 0.5 forward I I I I #
loop $-1 $-1 $102 $27 #
coedge $-1 $64 $64 $103 $104 reversed $40 $-1 #
face $-1 $105 $106 $22 $-1 $107 forward single #
loop $-1 $-1 $108 $42 #
plane-surface $-1 -24.115681852573225 15.030478888199806 57.890815631500899 0.62932039886446345 0 0.77714595512881146 0.77714595512881146 0 -0.62932039886446345 forward_v I I I I #
coedge $-1 $109 $110 $111 $112 reversed $43 $-1 #
face $-1 $-1 $113 $23 $-1 $114 forward single #
loop $-1 $115 $116 $45 #
cone-surface $-1 38.370305283617924 15.030478888199799 3.5997329881137752 -0.62932039886446345 0 -0.77714595512881146 0.38857297756440573 0 -0.31466019943223172 1 I I -0.70710678118654746 0.70710678118654746 0.5 forward I I I I #
loop $-1 $-1 $117 $29 #
coedge $-1 $73 $73 $118 $119 reversed $46 $-1 #
face $-1 $120 $121 $18 $-1 $122 reversed single #
loop $-1 $-1 $123 $48 #
plane-surface $-1 0 -18.89781615546136 0 0 1 0 0 0 1 forward_v I I I I #
coedge $-1 $124 $125 $126 $127 forward $49 $-1 #
coedge $-1 $128 $51 $129 $130 forward $31 $-1 #
coedge $-1 $51 $128 $131 $132 forward $31 $-1 #
coedge $-1 $133 $134 $51 $81 reversed $135 $-1 #
edge $-1 $136 -18.89781615546136 $137 18.89781615546136 $80 $138 forward 7 unknown #
face $-1 $139 $140 $19 $-1 $141 forward single #
loop $-1 $-1 $142 $52 #
plane-surface $-1 43.507187108981597 0 0 -1 0 0 0 0 1 forward_v I I I I #
coedge $-1 $143 $144 $145 $146 forward $53 $-1 #
coedge $-1 $145 $55 $142 $147 reversed $34 $-1 #
coedge $-1 $55 $145 $148 $149 reversed $34 $-1 #
coedge $-1 $150 $151 $55 $89 reversed $140 $-1 #
edge $-1 $152 -43.507187108981597 $153 43.507187108981597 $88 $154 forward 7 unknown #
face $-1 $155 $156 $20 $-1 $157 reversed single #
loop $-1 $-1 $158 $56 #
plane-surface $-1 0 18.89781615546136 0 0 -1 0 0 0 -1 forward_v I I I I #
coedge $-1 $159 $160 $161 $162 reversed $57 $-1 #
coedge $-1 $95 $59 $163 $164 reversed $37 $-1 #
coedge $-1 $59 $94 $159 $165 reversed $37 $-1 #
coedge $-1 $161 $166 $59 $97 forward $167 $-1 #
edge $-1 $168 5.6263667904043473 $169 12.289859112741979 $96 $170 forward 7 unknown #
loop $-1 $-1 $103 $60 #
plane-surface $-1 -43.507187108981604 15.030478888199806 3.1308949417106078 -0.62932039886446345 0 0.77714595512881146 0.77714595512881146 0 0.62932039886446345 forward_v I I I I #
loop $-1 $-1 $171 $39 #
coedge $-1 $101 $101 $102 $172 reversed $61 $-1 #
coedge $-1 $102 $102 $101 $172 forward $63 $-1 #
coedge $-1 $103 $103 $64 $104 forward $98 $-1 #
edge $-1 $173 0 $173 6.2831853071796004 $103 $174 forward 7 unknown #
face $-1 $175 $176 $22 $-1 $177 reversed single #
loop $-1 $-1 $178 $65 #
plane-surface $-1 0 0 8.5268847406007602 0 0 1 1 0 0 forward_v I I I I #
coedge $-1 $179 $180 $181 $182 reversed $66 $-1 #
coedge $-1 $110 $68 $183 $184 reversed $43 $-1 #
coedge $-1 $68 $109 $179 $185 reversed $43 $-1 #
coedge $-1 $181 $186 $68 $112 forward $187 $-1 #
edge $-1 $188 54.229957555927101 $189 59.625947354817228 $111 $190 forward 7 unknown #
loop $-1 $-1 $118 $69 #
plane-surface $-1 -24.115681852573225 15.030478888199806 57.890815631500899 0.62932039886446345 0 0.77714595512881146 0.77714595512881146 0 -0.62932039886446345 forward_v I I I I #
loop $-1 $-1 $191 $45 #
coedge $-1 $116 $116 $117 $192 reversed $70 $-1 #
coedge $-1 $117 $117 $116 $192 forward $72 $-1 #
coedge $-1 $118 $118 $73 $119 forward $113 $-1 #
edge $-1 $193 0 $193 6.2831853071796004 $118 $194 forward 7 unknown #
face $-1 $195 $196 $18 $-1 $197 reversed single #
loop $-1 $-1 $198 $74 #
plane-surface $-1 -43.507187108981597 0 0 1 0 0 0 0 -1 forward_v I I I I #
coedge $-1 $131 $199 $133 $200 reversed $75 $-1 #
coedge $-1 $201 $77 $199 $202 forward $49 $-1 #
coedge $-1 $77 $201 $203 $204 forward $49 $-1 #
coedge $-1 $134 $133 $77 $127 reversed $135 $-1 #
edge $-1 $205 -18.89781615546136 $206 18.89781615546136 $126 $207 forward 7 unknown #
coedge $-1 $79 $78 $208 $209 forward $31 $-1 #
coedge $-1 $210 $211 $78 $130 reversed $196 $-1 #
edge $-1 $137 -43.507187108981597 $212 43.507187108981597 $129 $213 forward 7 unknown #
coedge $-1 $214 $123 $79 $132 reversed $75 $-1 #
edge $-1 $215 -43.507187108981597 $136 43.507187108981597 $131 $216 forward 7 unknown #
coedge $-1 $126 $80 $123 $200 forward $135 $-1 #
coedge $-1 $80 $126 $210 $217 reversed $135 $-1 #
loop $-1 $-1 $133 $195 #
vertex $-1 $81 $218 #
vertex $-1 $81 $219 #
straight-curve $-1 43.507187108981597 0 8.5268847406007602 0 1 0 I I #
face $-1 $220 $221 $19 $-1 $222 reversed single #
loop $-1 $-1 $151 $82 #
plane-surface $-1 0 -23.827738386125588 -3.5156777503438299 0 0 1 1 0 0 forward_v I I I I #
coedge $-1 $223 $224 $86 $147 forward $83 $-1 #
coedge $-1 $225 $85 $224 $226 forward $53 $-1 #
coedge $-1 $85 $225 $227 $228 forward $53 $-1 #
coedge $-1 $87 $86 $85 $146 reversed $34 $-1 #
edge $-1 $229 -43.507187108981597 $230 43.507187108981597 $85 $231 forward 7 unknown #
edge $-1 $230 -8.5268847406007602 $153 -3.5156777503438299 $142 $232 forward 7 unknown #
coedge $-1 $227 $233 $87 $149 forward $234 $-1 #
edge $-1 $152 3.5156777503438299 $229 8.5268847406007602 $148 $235 forward 7 unknown #
coedge $-1 $236 $88 $233 $237 forward $140 $-1 #
coedge $-1 $88 $236 $223 $238 forward $140 $-1 #
vertex $-1 $149 $239 #
vertex $-1 $238 $240 #
straight-curve $-1 0 -18.89781615546136 -3.5156777503438299 1 0 0 I I #
face $-1 $-1 $167 $20 $-1 $241 forward single #
loop $-1 $-1 $242 $90 #
plane-surface $-1 -43.507187108981597 0 0 1 0 0 0 0 -1 forward_v I I I I #
coedge $-1 $243 $244 $160 $245 forward $91 $-1 #
coedge $-1 $246 $93 $95 $165 forward $57 $-1 #
coedge $-1 $93 $246 $158 $245 reversed $57 $-1 #
coedge $-1 $247 $96 $93 $162 forward $167 $-1 #
edge $-1 $169 3.6479021768383451 $248 11.382576711361461 $161 $249 forward 7 unknown #
coedge $-1 $250 $242 $94 $164 forward $156 $-1 #
edge $-1 $251 -32.245987009922104 $168 -26.849997211031958 $163 $252 forward 7 unknown #
edge $-1 $169 -8.5743125578427133 $251 -9.1551213131864128e-015 $95 $253 forward 7 unknown #
coedge $-1 $96 $247 $250 $254 forward $167 $-1 #
loop $-1 $-1 $161 $155 #
vertex $-1 $164 $255 #
vertex $-1 $97 $256 #
straight-curve $-1 -49.133553899385944 11.163141620938248 8.5268847406007602 1 0 0 I I #
coedge $-1 $171 $171 $-1 $257 reversed $100 $-1 #
edge $-1 $258 0 $258 6.2831853071796004 $101 $259 forward 7 unknown #
vertex $-1 $104 $260 #
ellipse-curve $-1 -40.175440947812774 15.030478888199799 5.8288898411556911 -0.62932039886446345 0 0.77714595512881146 0.77714595512881146 0 0.62932039886446345 1 I I #
face $-1 $-1 $187 $22 $-1 $261 reversed single #
loop $-1 $-1 $262 $105 #
plane-surface $-1 0 18.89781615546136 0 0 -1 0 0 0 -1 forward_v I I I I #
coedge $-1 $183 $263 $264 $265 forward $106 $-1 #
coedge $-1 $264 $108 $110 $185 forward $66 $-1 #
coedge $-1 $108 $264 $262 $266 reversed $66 $-1 #
coedge $-1 $267 $111 $108 $182 forward $187 $-1 #
edge $-1 $189 3.6479021768383451 $268 11.382576711361457 $181 $269 forward 7 unknown #
coedge $-1 $270 $178 $109 $184 forward $106 $-1 #
edge $-1 $271 21.52157536803545 $188 28.185067690373067 $183 $272 forward 7 unknown #
edge $-1 $189 -87.014374217963166 $271 -78.440061660120492 $110 $273 forward 7 unknown #
coedge $-1 $111 $267 $270 $274 reversed $187 $-1 #
loop $-1 $-1 $181 $175 #
vertex $-1 $274 $275 #
vertex $-1 $112 $276 #
straight-curve $-1 43.507187108981597 11.163141620938248 62.756842296527864 0 0 -1 I I #
coedge $-1 $191 $191 $-1 $277 reversed $115 $-1 #
edge $-1 $278 0 $278 6.2831853071796004 $116 $279 forward 7 unknown #
vertex $-1 $119 $280 #
ellipse-curve $-1 40.175440947812781 15.030478888199799 5.8288898411556982 0.62932039886446345 0 0.77714595512881146 0.77714595512881146 0 -0.62932039886446345 1 I I #
face $-1 $-1 $135 $18 $-1 $281 reversed single #
loop $-1 $-1 $210 $120 #
plane-surface $-1 0 18.89781615546136 0 0 -1 0 0 0 -1 forward_v I I I I #
coedge $-1 $282 $208 $211 $283 forward $121 $-1 #
coedge $-1 $123 $214 $124 $202 reversed $75 $-1 #
edge $-1 $136 -8.5268847406007602 $206 8.5268847406007602 $133 $284 forward 7 unknown #
coedge $-1 $125 $124 $282 $285 forward $49 $-1 #
edge $-1 $206 -43.507187108981597 $286 43.507187108981597 $199 $287 forward 7 unknown #
coedge $-1 $211 $210 $125 $204 reversed $196 $-1 #
edge $-1 $288 -43.507187108981597 $205 43.507187108981597 $203 $289 forward 7 unknown #
vertex $-1 $127 $290 #
vertex $-1 $200 $291 #
straight-curve $-1 43.507187108981597 0 -8.5268847406007602 0 -1 0 I I #
coedge $-1 $198 $292 $128 $209 reversed $121 $-1 #
edge $-1 $212 -18.89781615546136 $215 18.89781615546136 $208 $293 forward 7 unknown #
coedge $-1 $203 $129 $134 $217 forward $196 $-1 #
coedge $-1 $129 $203 $198 $283 reversed $196 $-1 #
vertex $-1 $130 $294 #
straight-curve $-1 0 18.89781615546136 8.5268847406007602 -1 0 0 I I #
coedge $-1 $199 $131 $292 $295 forward $75 $-1 #
vertex $-1 $209 $296 #
straight-curve $-1 0 -18.89781615546136 8.5268847406007602 1 0 0 I I #
edge $-1 $137 -8.5268847406007602 $205 8.5268847406007602 $134 $297 forward 7 unknown #
point $-1 43.507187108981597 -18.89781615546136 8.5268847406007602 #
point $-1 43.507187108981597 18.89781615546136 8.5268847406007602 #
face $-1 $-1 $234 $19 $-1 $298 reversed single #
loop $-1 $-1 $299 $139 #
plane-surface $-1 0 -28.757660616789817 -6.021281245472295 0 1 0 0 0 1 forward_v I I I I #
coedge $-1 $300 $142 $151 $238 reversed $83 $-1 #
coedge $-1 $142 $300 $143 $226 reversed $83 $-1 #
coedge $-1 $144 $143 $301 $302 forward $53 $-1 #
edge $-1 $230 18.89781615546136 $303 28.757660616789817 $224 $304 forward 7 unknown #
coedge $-1 $305 $148 $144 $228 reversed $234 $-1 #
edge $-1 $306 -28.757660616789817 $229 -18.89781615546136 $227 $307 forward 7 unknown #
vertex $-1 $149 $308 #
vertex $-1 $226 $309 #
straight-curve $-1 0 -18.89781615546136 -8.5268847406007602 1 0 0 I I #
straight-curve $-1 43.507187108981597 -18.89781615546136 0 0 0 1 I I #
coedge $-1 $148 $305 $150 $237 reversed $234 $-1 #
loop $-1 $-1 $148 $220 #
straight-curve $-1 -43.507187108981597 -18.89781615546136 0 0 0 -1 I I #
coedge $-1 $151 $150 $310 $311 forward $140 $-1 #
edge $-1 $152 -4.9299222306642285 $312 4.9299222306642285 $233 $313 forward 7 unknown #
edge $-1 $314 -4.9299222306642285 $153 4.9299222306642285 $223 $315 forward 7 unknown #
point $-1 -43.507187108981597 -18.89781615546136 -3.5156777503438299 #
point $-1 43.507187108981597 -18.89781615546136 -3.5156777503438299 #
plane-surface $-1 0 0 8.5268847406007602 0 0 1 1 0 0 forward_v I I I I #
coedge $-1 $163 $316 $246 $317 forward $156 $-1 #
coedge $-1 $244 $158 $316 $318 reversed $91 $-1 #
coedge $-1 $158 $243 $247 $319 reversed $91 $-1 #
edge $-1 $248 7.3462366557859724 $320 15.920549213628675 $158 $321 forward 7 unknown #
coedge $-1 $160 $159 $242 $317 reversed $57 $-1 #
coedge $-1 $166 $161 $244 $319 forward $167 $-1 #
vertex $-1 $319 $322 #
straight-curve $-1 -36.843694786643965 7.5152394440999029 8.5268847406007602 0 1 0 I I #
coedge $-1 $316 $163 $166 $254 reversed $156 $-1 #
vertex $-1 $164 $323 #
straight-curve $-1 -43.507187108981597 11.163141620938248 35.376881951632718 0 0 1 I I #
straight-curve $-1 -43.507187108981604 11.163141620938248 3.1308949417106078 -0.77714595512881146 0 -0.62932039886446345 I I #
edge $-1 $324 -18.89781615546136 $168 -11.163141620938248 $250 $325 forward 7 unknown #
point $-1 -43.507187108981597 11.163141620938248 8.5268847406007602 #
point $-1 -36.843694786643965 11.163141620938248 8.5268847406007602 #
edge $-1 $326 1 $326 0 $171 $-1 forward 7 unknown #
vertex $-1 $172 $327 #
ellipse-curve $-1 -38.684965483050156 15.030478888199799 3.9883059656781774 -0.62932039886446345 0 0.77714595512881146 0.77714595512881146 0 0.62932039886446345 1 I I #
point $-1 -39.398294992683958 15.030478888199799 6.4582102400201462 #
plane-surface $-1 43.507187108981597 0 0 -1 0 0 0 0 1 forward_v I I I I #
coedge $-1 $328 $329 $180 $266 forward $176 $-1 #
coedge $-1 $178 $270 $328 $330 forward $106 $-1 #
coedge $-1 $180 $179 $178 $265 reversed $66 $-1 #
edge $-1 $331 -11.382576711361461 $271 -3.6479021768383451 $178 $332 forward 7 unknown #
edge $-1 $268 -59.427736322610258 $331 -50.853423764767584 $262 $333 forward 7 unknown #
coedge $-1 $186 $181 $329 $334 reversed $187 $-1 #
vertex $-1 $182 $335 #
straight-curve $-1 43.507187108981597 7.5152394440999029 3.1308949417106362 0 1 0 I I #
coedge $-1 $263 $183 $186 $274 forward $106 $-1 #
vertex $-1 $184 $336 #
straight-curve $-1 15.32211941860853 11.163141620938248 8.5268847406007637 1 0 0 I I #
straight-curve $-1 -24.115681852573225 11.163141620938248 57.890815631500899 -0.77714595512881146 0 0.62932039886446345 I I #
edge $-1 $188 11.163141620938248 $337 18.89781615546136 $186 $338 forward 7 unknown #
point $-1 43.507187108981597 11.163141620938248 8.5268847406007602 #
point $-1 43.50718710898159 11.163141620938248 3.1308949417106362 #
edge $-1 $339 1 $339 0 $191 $-1 forward 7 unknown #
vertex $-1 $192 $340 #
ellipse-curve $-1 38.684965483050156 15.030478888199799 3.988305965678181 0.62932039886446345 0 0.77714595512881146 0.77714595512881146 0 -0.62932039886446345 1 I I #
point $-1 40.952586902941583 15.030478888199799 5.1995694422912226 #
plane-surface $-1 43.507187108981597 0 0 -1 0 0 0 0 1 forward_v I I I I #
coedge $-1 $292 $198 $201 $285 reversed $121 $-1 #
edge $-1 $212 -8.5268847406007602 $288 8.5268847406007602 $211 $341 forward 7 unknown #
straight-curve $-1 43.507187108981597 -18.89781615546136 0 0 0 -1 I I #
edge $-1 $286 -18.89781615546136 $288 18.89781615546136 $282 $342 forward 7 unknown #
vertex $-1 $285 $343 #
straight-curve $-1 0 -18.89781615546136 -8.5268847406007602 -1 0 0 I I #
vertex $-1 $204 $344 #
straight-curve $-1 0 18.89781615546136 -8.5268847406007602 1 0 0 I I #
point $-1 43.507187108981597 18.89781615546136 -8.5268847406007602 #
point $-1 43.507187108981597 -18.89781615546136 -8.5268847406007602 #
coedge $-1 $208 $282 $214 $295 reversed $121 $-1 #
straight-curve $-1 -43.507187108981597 0 8.5268847406007602 0 -1 0 I I #
point $-1 -43.507187108981597 18.89781615546136 8.5268847406007602 #
edge $-1 $215 -8.5268847406007602 $286 8.5268847406007602 $292 $345 forward 7 unknown #
point $-1 -43.507187108981597 -18.89781615546136 8.5268847406007602 #
straight-curve $-1 43.507187108981597 18.89781615546136 0 0 0 -1 I I #
plane-surface $-1 -43.507187108981597 0 0 1 0 0 0 0 -1 forward_v I I I I #
coedge $-1 $301 $310 $305 $346 forward $221 $-1 #
coedge $-1 $224 $223 $347 $348 forward $83 $-1 #
coedge $-1 $347 $299 $225 $302 reversed $221 $-1 #
edge $-1 $303 -43.507187108981597 $306 43.507187108981597 $301 $349 forward 7 unknown #
vertex $-1 $348 $350 #
straight-curve $-1 43.507187108981597 0 -8.5268847406007602 0 -1 0 I I #
coedge $-1 $233 $227 $299 $346 reversed $234 $-1 #
vertex $-1 $228 $351 #
straight-curve $-1 -43.507187108981597 0 -8.5268847406007602 0 1 0 I I #
point $-1 -43.507187108981597 -18.89781615546136 -8.5268847406007602 #
point $-1 43.507187108981597 -18.89781615546136 -8.5268847406007602 #
coedge $-1 $299 $347 $236 $311 reversed $221 $-1 #
edge $-1 $312 -43.507187108981597 $314 43.507187108981597 $310 $352 forward 7 unknown #
vertex $-1 $237 $353 #
straight-curve $-1 -43.507187108981597 -23.827738386125588 -3.5156777503438299 0 -1 0 I I #
vertex $-1 $238 $354 #
straight-curve $-1 43.507187108981597 -23.827738386125588 -3.5156777503438299 0 1 0 I I #
coedge $-1 $242 $250 $243 $318 forward $156 $-1 #
edge $-1 $320 -11.382576711361461 $251 -3.6479021768383451 $242 $355 forward 7 unknown #
edge $-1 $324 -8.5268847406007602 $320 -3.1308949417106136 $243 $356 forward 7 unknown #
edge $-1 $248 36.843694786643965 $324 43.507187108981597 $244 $357 forward 7 unknown #
vertex $-1 $245 $358 #
straight-curve $-1 -31.134596684180892 18.89781615546136 13.150021322972732 -0.77714595512881146 0 -0.62932039886446345 I I #
point $-1 -36.843694786643965 18.897816155461364 8.5268847406007602 #
point $-1 -43.507187108981597 11.163141620938248 3.1308949417106136 #
vertex $-1 $319 $359 #
straight-curve $-1 -43.507187108981597 0 8.5268847406007602 0 -1 0 I I #
vertex $-1 $257 $360 #
point $-1 -37.907819527921347 15.030478888199799 4.617626364542641 #
coedge $-1 $329 $262 $263 $330 reversed $176 $-1 #
coedge $-1 $262 $328 $267 $334 forward $176 $-1 #
edge $-1 $337 -43.507187108981597 $331 -36.843694786643979 $328 $361 forward 7 unknown #
vertex $-1 $266 $362 #
straight-curve $-1 36.843694786643979 7.5152394440999029 8.5268847406007637 0 -1 0 I I #
straight-curve $-1 -2.6768377965965193 18.89781615546136 40.529981667867887 -0.77714595512881146 0 0.62932039886446345 I I #
edge $-1 $337 -8.5268847406007602 $268 -3.1308949417106398 $267 $363 forward 7 unknown #
point $-1 43.507187108981597 18.89781615546136 3.1308949417106398 #
point $-1 36.843694786643979 11.163141620938248 8.5268847406007637 #
vertex $-1 $274 $364 #
straight-curve $-1 43.507187108981597 0 8.5268847406007602 0 1 0 I I #
vertex $-1 $277 $365 #
point $-1 39.462111438178965 15.030478888199799 3.3589855668137174 #
straight-curve $-1 -43.507187108981597 18.89781615546136 0 0 0 -1 I I #
straight-curve $-1 -43.507187108981597 0 -8.5268847406007602 0 1 0 I I #
point $-1 -43.507187108981597 -18.89781615546136 -8.5268847406007602 #
point $-1 -43.507187108981597 18.89781615546136 -8.5268847406007602 #
straight-curve $-1 -43.507187108981597 -18.89781615546136 0 0 0 -1 I I #
edge $-1 $312 -2.5056034951284651 $306 2.5056034951284651 $305 $366 forward 7 unknown #
coedge $-1 $310 $301 $300 $348 reversed $221 $-1 #
edge $-1 $314 -2.5056034951284651 $303 2.5056034951284651 $300 $367 forward 7 unknown #
straight-curve $-1 0 -28.757660616789817 -8.5268847406007602 -1 0 0 I I #
point $-1 43.507187108981597 -28.757660616789817 -8.5268847406007602 #
point $-1 -43.507187108981597 -28.757660616789817 -8.5268847406007602 #
straight-curve $-1 0 -28.757660616789817 -3.5156777503438299 1 0 0 I I #
point $-1 -43.507187108981597 -28.757660616789817 -3.5156777503438299 #
point $-1 43.507187108981597 -28.757660616789817 -3.5156777503438299 #
straight-curve $-1 -43.507187108981597 7.5152394440999029 3.1308949417106096 0 -1 0 I I #
straight-curve $-1 -43.507187108981597 18.89781615546136 0 0 0 -1 I I #
straight-curve $-1 0 18.89781615546136 8.5268847406007602 -1 0 0 I I #
point $-1 -43.507187108981597 18.897816155461364 3.1308949417106136 #
point $-1 -43.507187108981597 18.89781615546136 8.5268847406007602 #
point $-1 -38.055645084185691 15.030478888199799 3.2111600105493658 #
straight-curve $-1 0 18.89781615546136 8.5268847406007602 -1 0 0 I I #
point $-1 36.843694786643979 18.897816155461364 8.5268847406007637 #
straight-curve $-1 43.507187108981597 18.89781615546136 0 0 0 -1 I I #
point $-1 43.507187108981597 18.89781615546136 8.5268847406007602 #
point $-1 38.055645084185691 15.030478888199799 3.2111600105493694 #
straight-curve $-1 -43.507187108981597 -28.757660616789817 -6.021281245472295 0 0 -1 I I #
straight-curve $-1 43.507187108981597 -28.757660616789817 -6.021281245472295 0 0 -1 I I #
End-of-ACIS-data 