500 0 2 0           
7 Unknown 11 ACIS 5.0 NT 24 Fri Mar 26 15:19:00 1999 
-1 9.9999999999999995e-007 1e-010 
body $-1 $2 $-1 $3 #
body $-1 $4 $-1 $5 #
lump $-1 $-1 $6 $0 #
transform $-1 1 0 0 0 1 0 0 0 1 71.019013031403546 40.411285740892424 17.280890401971028 1 rotate no_reflect no_shear #
lump $-1 $-1 $7 $1 #
transform $-1 1 0 0 0 1 0 0 0 1 71.019013031403546 40.411285740892424 17.280890401971028 1 rotate no_reflect no_shear #
shell $-1 $-1 $-1 $8 $-1 $2 #
shell $-1 $-1 $-1 $9 $-1 $4 #
face $-1 $10 $11 $6 $-1 $12 forward single #
face $-1 $13 $14 $7 $-1 $15 forward single #
face $-1 $16 $17 $6 $-1 $18 reversed single #
loop $-1 $-1 $19 $8 #
plane-surface $-1 0 0 17.280890401971028 0 0 1 1 0 0 forward_v I I I I #
face $-1 $20 $21 $7 $-1 $22 forward single #
loop $-1 $-1 $23 $9 #
plane-surface $-1 -45.025689100560129 -31.251332684461932 0 1 0 0 0 0 -1 forward_v I I I I #
face $-1 $24 $25 $6 $-1 $26 reversed single #
loop $-1 $-1 $27 $10 #
plane-surface $-1 0 0 -17.280890401971028 0 0 1 1 0 0 forward_v I I I I #
coedge $-1 $28 $29 $30 $31 forward $11 $-1 #
face $-1 $32 $33 $7 $-1 $34 forward single #
loop $-1 $-1 $35 $13 #
plane-surface $-1 -40.741460664010809 -22.09137962803144 0 0 -1 0 0 0 -1 forward_v I I I I #
coedge $-1 $36 $37 $38 $39 reversed $14 $-1 #
face $-1 $40 $41 $6 $-1 $42 reversed single #
loop $-1 $-1 $43 $16 #
plane-surface $-1 0 -40.411285740892424 0 0 1 0 0 0 1 forward_v I I I I #
coedge $-1 $44 $45 $46 $47 forward $17 $-1 #
coedge $-1 $48 $19 $49 $50 forward $11 $-1 #
coedge $-1 $19 $48 $51 $52 forward $11 $-1 #
coedge $-1 $53 $54 $19 $31 reversed $55 $-1 #
edge $-1 $56 -40.411285740892424 $57 40.411285740892424 $30 $58 forward 7 unknown #
face $-1 $59 $60 $7 $-1 $61 forward single #
loop $-1 $-1 $62 $20 #
plane-surface $-1 -36.457232227461489 -31.251332684461932 0 -1 0 0 0 0 1 forward_v I I I I #
coedge $-1 $63 $64 $65 $66 reversed $21 $-1 #
coedge $-1 $67 $23 $68 $69 reversed $14 $-1 #
coedge $-1 $23 $67 $70 $71 reversed $14 $-1 #
coedge $-1 $64 $63 $23 $39 forward $21 $-1 #
edge $-1 $72 -17.280890401971028 $73 17.280890401971028 $38 $74 forward 7 unknown #
face $-1 $75 $76 $6 $-1 $77 reversed single #
loop $-1 $-1 $78 $24 #
plane-surface $-1 -71.019013031403546 0 0 1 0 0 0 0 -1 forward_v I I I I #
coedge $-1 $79 $51 $80 $81 forward $25 $-1 #
coedge $-1 $82 $27 $79 $83 forward $17 $-1 #
coedge $-1 $27 $82 $84 $85 forward $17 $-1 #
coedge $-1 $54 $53 $27 $47 reversed $55 $-1 #
edge $-1 $86 -40.411285740892424 $87 40.411285740892424 $46 $88 forward 7 unknown #
coedge $-1 $29 $28 $89 $90 forward $11 $-1 #
coedge $-1 $91 $92 $28 $50 reversed $76 $-1 #
edge $-1 $57 -71.019013031403546 $93 71.019013031403546 $49 $94 forward 7 unknown #
coedge $-1 $43 $95 $29 $52 reversed $25 $-1 #
edge $-1 $96 -71.019013031403546 $56 71.019013031403546 $51 $97 forward 7 unknown #
coedge $-1 $46 $30 $95 $98 forward $55 $-1 #
coedge $-1 $30 $46 $91 $99 reversed $55 $-1 #
loop $-1 $-1 $53 $75 #
vertex $-1 $31 $100 #
vertex $-1 $31 $101 #
straight-curve $-1 71.019013031403546 0 17.280890401971028 0 1 0 I I #
face $-1 $102 $103 $7 $-1 $104 reversed single #
loop $-1 $-1 $68 $32 #
plane-surface $-1 0 0 17.280890401971028 0 0 1 1 0 0 forward_v I I I I #
coedge $-1 $105 $106 $107 $108 reversed $33 $-1 #
coedge $-1 $38 $35 $109 $110 reversed $21 $-1 #
coedge $-1 $35 $38 $111 $112 reversed $21 $-1 #
coedge $-1 $106 $105 $35 $66 forward $33 $-1 #
edge $-1 $113 -17.280890401971028 $114 17.280890401971028 $65 $115 forward 7 unknown #
coedge $-1 $37 $36 $116 $117 reversed $14 $-1 #
coedge $-1 $109 $118 $36 $69 forward $60 $-1 #
edge $-1 $119 -24.78561939866146 $72 -6.465713285800474 $68 $120 forward 7 unknown #
coedge $-1 $121 $111 $37 $71 forward $122 $-1 #
edge $-1 $73 6.465713285800474 $123 24.78561939866146 $70 $124 forward 7 unknown #
vertex $-1 $69 $125 #
vertex $-1 $71 $126 #
straight-curve $-1 -45.025689100560129 -22.09137962803144 0 0 0 -1 I I #
face $-1 $-1 $55 $6 $-1 $127 reversed single #
loop $-1 $-1 $91 $40 #
plane-surface $-1 0 40.411285740892424 0 0 -1 0 0 0 -1 forward_v I I I I #
coedge $-1 $128 $89 $92 $129 forward $41 $-1 #
coedge $-1 $95 $43 $44 $83 reversed $25 $-1 #
coedge $-1 $89 $128 $43 $81 reversed $41 $-1 #
edge $-1 $96 -17.280890401971028 $130 17.280890401971028 $80 $131 forward 7 unknown #
coedge $-1 $45 $44 $128 $132 forward $17 $-1 #
edge $-1 $87 -71.019013031403546 $130 71.019013031403546 $79 $133 forward 7 unknown #
coedge $-1 $92 $91 $45 $85 reversed $76 $-1 #
edge $-1 $134 -71.019013031403546 $86 71.019013031403546 $84 $135 forward 7 unknown #
vertex $-1 $47 $136 #
vertex $-1 $98 $137 #
straight-curve $-1 71.019013031403546 0 -17.280890401971028 0 -1 0 I I #
coedge $-1 $78 $80 $48 $90 reversed $41 $-1 #
edge $-1 $93 -40.411285740892424 $96 40.411285740892424 $89 $138 forward 7 unknown #
coedge $-1 $84 $49 $54 $99 forward $76 $-1 #
coedge $-1 $49 $84 $78 $129 reversed $76 $-1 #
vertex $-1 $50 $139 #
straight-curve $-1 0 40.411285740892424 17.280890401971028 -1 0 0 I I #
coedge $-1 $51 $79 $53 $98 reversed $25 $-1 #
vertex $-1 $90 $140 #
straight-curve $-1 0 -40.411285740892424 17.280890401971028 1 0 0 I I #
edge $-1 $56 -17.280890401971028 $87 17.280890401971028 $53 $141 forward 7 unknown #
edge $-1 $57 -17.280890401971028 $86 17.280890401971028 $54 $142 forward 7 unknown #
point $-1 71.019013031403546 -40.411285740892424 17.280890401971028 #
point $-1 71.019013031403546 40.411285740892424 17.280890401971028 #
face $-1 $143 $122 $7 $-1 $144 reversed single #
loop $-1 $-1 $107 $59 #
plane-surface $-1 0 -40.411285740892424 0 0 1 0 0 0 1 forward_v I I I I #
coedge $-1 $65 $62 $145 $146 reversed $33 $-1 #
coedge $-1 $62 $65 $147 $148 reversed $33 $-1 #
coedge $-1 $149 $150 $62 $108 forward $103 $-1 #
edge $-1 $151 -17.280890401971028 $152 17.280890401971028 $107 $153 forward 7 unknown #
coedge $-1 $145 $68 $63 $110 forward $60 $-1 #
edge $-1 $72 -24.654958768554724 $113 -16.086501895456085 $109 $154 forward 7 unknown #
coedge $-1 $70 $147 $64 $112 forward $122 $-1 #
edge $-1 $114 16.086501895456085 $73 24.654958768554724 $111 $155 forward 7 unknown #
vertex $-1 $110 $156 #
vertex $-1 $112 $157 #
straight-curve $-1 -36.457232227461489 -22.09137962803144 0 0 0 -1 I I #
coedge $-1 $158 $159 $67 $117 forward $160 $-1 #
edge $-1 $123 -17.280890401971028 $119 17.280890401971028 $116 $161 forward 7 unknown #
coedge $-1 $68 $162 $158 $163 forward $60 $-1 #
vertex $-1 $117 $164 #
straight-curve $-1 -45.025689100560129 -15.625666342230966 17.280890401971028 0 1 0 I I #
coedge $-1 $165 $70 $159 $166 forward $122 $-1 #
loop $-1 $-1 $70 $102 #
vertex $-1 $166 $167 #
straight-curve $-1 -45.025689100560129 -15.625666342230966 -17.280890401971028 0 -1 0 I I #
point $-1 -45.025689100560129 -22.09137962803144 17.280890401971028 #
point $-1 -45.025689100560129 -22.09137962803144 -17.280890401971028 #
plane-surface $-1 71.019013031403546 0 0 -1 0 0 0 0 1 forward_v I I I I #
coedge $-1 $80 $78 $82 $132 reversed $41 $-1 #
edge $-1 $93 -17.280890401971028 $134 17.280890401971028 $92 $168 forward 7 unknown #
vertex $-1 $132 $169 #
straight-curve $-1 -71.019013031403546 -40.411285740892424 0 0 0 -1 I I #
edge $-1 $130 -40.411285740892424 $134 40.411285740892424 $128 $170 forward 7 unknown #
straight-curve $-1 0 -40.411285740892424 -17.280890401971028 -1 0 0 I I #
vertex $-1 $85 $171 #
straight-curve $-1 0 40.411285740892424 -17.280890401971028 1 0 0 I I #
point $-1 71.019013031403546 40.411285740892424 -17.280890401971028 #
point $-1 71.019013031403546 -40.411285740892424 -17.280890401971028 #
straight-curve $-1 -71.019013031403546 0 17.280890401971028 0 -1 0 I I #
point $-1 -71.019013031403546 40.411285740892424 17.280890401971028 #
point $-1 -71.019013031403546 -40.411285740892424 17.280890401971028 #
straight-curve $-1 71.019013031403546 -40.411285740892424 0 0 0 -1 I I #
straight-curve $-1 71.019013031403546 40.411285740892424 0 0 0 -1 I I #
face $-1 $172 $160 $7 $-1 $104 reversed single #
plane-surface $-1 0 0 -17.280890401971028 0 0 1 1 0 0 forward_v I I I I #
coedge $-1 $173 $109 $105 $146 forward $60 $-1 #
edge $-1 $113 6.465713285800474 $151 24.78561939866146 $145 $174 forward 7 unknown #
coedge $-1 $111 $175 $106 $148 forward $122 $-1 #
edge $-1 $152 -24.78561939866146 $114 -6.465713285800474 $147 $176 forward 7 unknown #
coedge $-1 $177 $107 $175 $178 reversed $103 $-1 #
coedge $-1 $107 $177 $173 $179 reversed $103 $-1 #
vertex $-1 $179 $180 #
vertex $-1 $108 $181 #
straight-curve $-1 -36.457232227461489 -40.411285740892424 0 0 0 -1 I I #
straight-curve $-1 -20.370730332005405 -22.09137962803144 17.280890401971028 1 0 0 I I #
straight-curve $-1 -20.370730332005405 -22.09137962803144 -17.280890401971028 -1 0 0 I I #
point $-1 -36.457232227461489 -22.09137962803144 17.280890401971028 #
point $-1 -36.457232227461489 -22.09137962803144 -17.280890401971028 #
coedge $-1 $182 $116 $118 $163 reversed $160 $-1 #
coedge $-1 $116 $182 $121 $166 reversed $160 $-1 #
loop $-1 $-1 $116 $143 #
straight-curve $-1 -45.025689100560129 -40.411285740892424 0 0 0 1 I I #
coedge $-1 $118 $183 $184 $185 forward $60 $-1 #
edge $-1 $186 -71.019013031403546 $119 -45.025689100560129 $158 $187 forward 7 unknown #
point $-1 -45.025689100560129 -40.411285740892424 17.280890401971028 #
coedge $-1 $188 $121 $189 $190 forward $122 $-1 #
edge $-1 $123 45.025689100560129 $191 71.019013031403546 $159 $192 forward 7 unknown #
point $-1 -45.025689100560129 -40.411285740892424 -17.280890401971028 #
straight-curve $-1 -71.019013031403546 40.411285740892424 0 0 0 -1 I I #
point $-1 -71.019013031403546 -40.411285740892424 -17.280890401971028 #
straight-curve $-1 -71.019013031403546 0 -17.280890401971028 0 1 0 I I #
point $-1 -71.019013031403546 40.411285740892424 -17.280890401971028 #
face $-1 $193 $194 $7 $-1 $195 reversed single #
coedge $-1 $196 $145 $150 $179 forward $60 $-1 #
straight-curve $-1 -36.457232227461489 -15.625666342230966 17.280890401971028 0 -1 0 I I #
coedge $-1 $147 $197 $149 $178 forward $122 $-1 #
straight-curve $-1 -36.457232227461489 -15.625666342230966 -17.280890401971028 0 1 0 I I #
coedge $-1 $150 $149 $198 $199 reversed $103 $-1 #
edge $-1 $200 -71.019013031403546 $152 36.457232227461489 $149 $192 forward 7 unknown #
edge $-1 $151 -36.457232227461489 $201 71.019013031403546 $150 $187 forward 7 unknown #
point $-1 -36.457232227461489 -40.411285740892424 17.280890401971028 #
point $-1 -36.457232227461489 -40.411285740892424 -17.280890401971028 #
coedge $-1 $159 $158 $202 $203 forward $160 $-1 #
coedge $-1 $162 $196 $204 $205 forward $60 $-1 #
coedge $-1 $206 $202 $162 $185 reversed $194 $-1 #
edge $-1 $207 -40.411285740892424 $186 40.411285740892424 $184 $208 forward 7 unknown #
vertex $-1 $185 $209 #
straight-curve $-1 0 -40.411285740892424 17.280890401971028 1 0 0 I I #
coedge $-1 $197 $165 $210 $211 forward $122 $-1 #
coedge $-1 $202 $206 $165 $190 reversed $194 $-1 #
edge $-1 $191 -40.411285740892424 $212 40.411285740892424 $189 $213 forward 7 unknown #
vertex $-1 $190 $214 #
straight-curve $-1 0 -40.411285740892424 -17.280890401971028 -1 0 0 I I #
face $-1 $215 $216 $7 $-1 $217 reversed single #
loop $-1 $-1 $206 $172 #
plane-surface $-1 -71.019013031403546 0 0 1 0 0 0 0 -1 forward_v I I I I #
coedge $-1 $183 $173 $218 $219 forward $60 $-1 #
coedge $-1 $175 $188 $220 $221 forward $122 $-1 #
coedge $-1 $220 $218 $177 $199 forward $222 $-1 #
edge $-1 $201 -17.280890401971028 $200 17.280890401971028 $198 $223 forward 7 unknown #
vertex $-1 $199 $224 #
vertex $-1 $219 $225 #
coedge $-1 $184 $189 $182 $203 reversed $194 $-1 #
edge $-1 $186 -17.280890401971028 $191 17.280890401971028 $202 $226 forward 7 unknown #
coedge $-1 $227 $228 $183 $205 reversed $216 $-1 #
edge $-1 $229 -71.019013031403546 $207 71.019013031403546 $204 $230 forward 7 unknown #
coedge $-1 $189 $184 $228 $231 forward $194 $-1 #
vertex $-1 $205 $232 #
straight-curve $-1 -71.019013031403546 0 17.280890401971028 0 -1 0 I I #
point $-1 -71.019013031403546 -40.411285740892424 17.280890401971028 #
coedge $-1 $228 $227 $188 $211 reversed $216 $-1 #
edge $-1 $212 -71.019013031403546 $233 71.019013031403546 $210 $234 forward 7 unknown #
vertex $-1 $211 $235 #
straight-curve $-1 -71.019013031403546 0 -17.280890401971028 0 1 0 I I #
point $-1 -71.019013031403546 -40.411285740892424 -17.280890401971028 #
face $-1 $-1 $222 $7 $-1 $236 reversed single #
loop $-1 $-1 $227 $193 #
plane-surface $-1 0 40.411285740892424 0 0 -1 0 0 0 -1 forward_v I I I I #
coedge $-1 $198 $237 $196 $219 reversed $222 $-1 #
edge $-1 $201 -40.411285740892424 $229 40.411285740892424 $218 $238 forward 7 unknown #
coedge $-1 $237 $198 $197 $221 reversed $222 $-1 #
edge $-1 $233 -40.411285740892424 $200 40.411285740892424 $220 $239 forward 7 unknown #
loop $-1 $-1 $198 $215 #
straight-curve $-1 71.019013031403546 -40.411285740892424 0 0 0 -1 I I #
point $-1 71.019013031403546 -40.411285740892424 -17.280890401971028 #
point $-1 71.019013031403546 -40.411285740892424 17.280890401971028 #
straight-curve $-1 -71.019013031403546 -40.411285740892424 0 0 0 -1 I I #
coedge $-1 $210 $204 $237 $240 forward $216 $-1 #
coedge $-1 $204 $210 $206 $231 reversed $216 $-1 #
vertex $-1 $219 $241 #
straight-curve $-1 0 40.411285740892424 17.280890401971028 -1 0 0 I I #
edge $-1 $207 -17.280890401971028 $212 17.280890401971028 $228 $242 forward 7 unknown #
point $-1 -71.019013031403546 40.411285740892424 17.280890401971028 #
vertex $-1 $221 $243 #
straight-curve $-1 0 40.411285740892424 -17.280890401971028 1 0 0 I I #
point $-1 -71.019013031403546 40.411285740892424 -17.280890401971028 #
plane-surface $-1 71.019013031403546 0 0 -1 0 0 0 0 1 forward_v I I I I #
coedge $-1 $218 $220 $227 $240 reversed $222 $-1 #
straight-curve $-1 71.019013031403546 0 17.280890401971028 0 1 0 I I #
straight-curve $-1 71.019013031403546 0 -17.280890401971028 0 -1 0 I I #
edge $-1 $229 -17.280890401971028 $233 17.280890401971028 $237 $244 forward 7 unknown #
point $-1 71.019013031403546 40.411285740892424 17.280890401971028 #
straight-curve $-1 -71.019013031403546 40.411285740892424 0 0 0 -1 I I #
point $-1 71.019013031403546 40.411285740892424 -17.280890401971028 #
straight-curve $-1 71.019013031403546 40.411285740892424 0 0 0 -1 I I #
End-of-ACIS-data 