500 0 14 0           
7 Unknown 11 ACIS 5.0 NT 24 Thu Mar 25 16:24:55 1999 
-1 9.9999999999999995e-007 1e-010 
body $-1 $14 $-1 $15 #
body $-1 $16 $-1 $17 #
body $-1 $18 $-1 $19 #
body $-1 $20 $-1 $21 #
body $-1 $22 $-1 $23 #
body $-1 $24 $-1 $25 #
body $-1 $26 $-1 $27 #
body $-1 $28 $-1 $29 #
body $-1 $30 $-1 $31 #
body $-1 $32 $-1 $33 #
body $-1 $34 $-1 $35 #
body $-1 $36 $-1 $37 #
body $-1 $38 $-1 $39 #
body $-1 $40 $-1 $41 #
lump $-1 $-1 $42 $0 #
transform $-1 1 0 0 0 1 0 0 0 1 54.934537797173988 23.042093798161545 6.2037217776232536 1 rotate no_reflect no_shear #
lump $-1 $-1 $43 $1 #
transform $-1 1 0 0 0 1 0 0 0 1 54.934537797173988 23.042093798161545 6.2037217776232536 1 rotate no_reflect no_shear #
lump $-1 $-1 $44 $2 #
transform $-1 1 0 0 0 1 0 0 0 1 54.934537797173988 23.042093798161545 6.2037217776232536 1 rotate no_reflect no_shear #
lump $-1 $-1 $45 $3 #
transform $-1 1 0 0 0 1 0 0 0 1 54.934537797173988 23.042093798161545 6.2037217776232536 1 rotate no_reflect no_shear #
lump $-1 $-1 $46 $4 #
transform $-1 1 0 0 0 1 0 0 0 1 54.934537797173988 23.042093798161545 6.2037217776232536 1 rotate no_reflect no_shear #
lump $-1 $-1 $47 $5 #
transform $-1 1 0 0 0 1 0 0 0 1 54.934537797173988 23.042093798161545 6.2037217776232536 1 rotate no_reflect no_shear #
lump $-1 $-1 $48 $6 #
transform $-1 1 0 0 0 1 0 0 0 1 54.934537797173988 23.042093798161545 6.2037217776232536 1 rotate no_reflect no_shear #
lump $-1 $-1 $49 $7 #
transform $-1 1 0 0 0 1 0 0 0 1 54.934537797173988 23.042093798161545 6.2037217776232536 1 rotate no_reflect no_shear #
lump $-1 $-1 $50 $8 #
transform $-1 1 0 0 0 1 0 0 0 1 54.934537797173988 23.042093798161545 6.2037217776232536 1 rotate no_reflect no_shear #
lump $-1 $-1 $51 $9 #
transform $-1 1 0 0 0 1 0 0 0 1 54.934537797173988 23.042093798161545 6.2037217776232536 1 rotate no_reflect no_shear #
lump $-1 $-1 $52 $10 #
transform $-1 1 0 0 0 1 0 0 0 1 54.934537797173988 23.042093798161545 6.2037217776232536 1 rotate no_reflect no_shear #
lump $-1 $-1 $53 $11 #
transform $-1 1 0 0 0 1 0 0 0 1 54.934537797173988 23.042093798161545 6.2037217776232536 1 rotate no_reflect no_shear #
lump $-1 $-1 $54 $12 #
transform $-1 1 0 0 0 1 0 0 0 1 54.934537797173988 23.042093798161545 6.2037217776232536 1 rotate no_reflect no_shear #
lump $-1 $-1 $55 $13 #
transform $-1 1 0 0 0 1 0 0 0 1 54.934537797173988 23.042093798161545 6.2037217776232536 1 rotate no_reflect no_shear #
shell $-1 $-1 $-1 $56 $-1 $14 #
shell $-1 $-1 $-1 $57 $-1 $16 #
shell $-1 $-1 $-1 $58 $-1 $18 #
shell $-1 $-1 $-1 $59 $-1 $20 #
shell $-1 $-1 $-1 $60 $-1 $22 #
shell $-1 $-1 $-1 $61 $-1 $24 #
shell $-1 $-1 $-1 $62 $-1 $26 #
shell $-1 $-1 $-1 $63 $-1 $28 #
shell $-1 $-1 $-1 $64 $-1 $30 #
shell $-1 $-1 $-1 $65 $-1 $32 #
shell $-1 $-1 $-1 $66 $-1 $34 #
shell $-1 $-1 $-1 $67 $-1 $36 #
shell $-1 $-1 $-1 $68 $-1 $38 #
shell $-1 $-1 $-1 $69 $-1 $40 #
face $-1 $70 $71 $42 $-1 $72 forward single #
face $-1 $73 $74 $43 $-1 $75 reversed single #
face $-1 $76 $77 $44 $-1 $78 reversed single #
face $-1 $79 $80 $45 $-1 $81 forward single #
face $-1 $82 $83 $46 $-1 $84 forward single #
face $-1 $85 $86 $47 $-1 $87 reversed single #
face $-1 $88 $89 $48 $-1 $90 forward single #
face $-1 $91 $92 $49 $-1 $93 forward single #
face $-1 $94 $95 $50 $-1 $96 reversed single #
face $-1 $97 $98 $51 $-1 $99 forward single #
face $-1 $100 $101 $52 $-1 $102 forward single #
face $-1 $103 $104 $53 $-1 $105 reversed single #
face $-1 $106 $107 $54 $-1 $108 forward single #
face $-1 $109 $110 $55 $-1 $111 forward single #
face $-1 $112 $113 $42 $-1 $114 reversed single #
loop $-1 $-1 $115 $56 #
plane-surface $-1 0 0 6.2037217776232536 0 0 1 1 0 0 forward_v I I I I #
face $-1 $116 $117 $43 $-1 $118 reversed single #
loop $-1 $-1 $119 $57 #
plane-surface $-1 0 -19.40604109951741 3.2037217776232536 0 0 1 1 0 0 forward_v I I I I #
face $-1 $120 $121 $44 $-1 $122 reversed single #
loop $-1 $-1 $123 $58 #
plane-surface $-1 54.934539599959152 -1.525800362686355 157.01857350900414 0 -1 0 -0.70710678939079041 0 -0.70710677298230451 forward_v I I I I #
face $-1 $124 $125 $45 $-1 $126 forward single #
loop $-1 $127 $128 $59 #
cone-surface $-1 52.299241925656254 -7.1884689128780526 3.5684258613617077 -0.70710678939079041 0 -0.70710677298230451 0.35355338649115226 0 -0.35355339469539521 1 I I 0 1 0.5 forward I I I I #
face $-1 $129 $130 $46 $-1 $131 forward single #
loop $-1 $132 $133 $60 #
cone-surface $-1 52.299241925656254 -3.7908677827630335 3.5684258613617077 -0.70710678939079041 0 -0.70710677298230451 0.35355338649115226 0 -0.35355339469539521 1 I I 0 1 0.5 forward I I I I #
face $-1 $134 $135 $47 $-1 $136 reversed single #
loop $-1 $-1 $137 $61 #
plane-surface $-1 54.934539599959152 17.880240736831059 157.01857350900414 0 -1 0 -0.70710678939079041 0 -0.70710677298230451 forward_v I I I I #
face $-1 $138 $139 $48 $-1 $140 forward single #
loop $-1 $141 $142 $62 #
cone-surface $-1 52.299241925656254 12.217572186639359 3.5684258613617077 -0.70710678939079041 0 -0.70710677298230451 0.35355338649115226 0 -0.35355339469539521 1 I I 0 1 0.5 forward I I I I #
face $-1 $143 $144 $49 $-1 $145 forward single #
loop $-1 $146 $147 $63 #
cone-surface $-1 52.299241925656254 15.61517331675438 3.5684258613617077 -0.70710678939079041 0 -0.70710677298230451 0.35355338649115226 0 -0.35355339469539521 1 I I 0 1 0.5 forward I I I I #
face $-1 $148 $149 $50 $-1 $150 reversed single #
loop $-1 $-1 $151 $64 #
plane-surface $-1 -132.62370709402742 -9.4535363329547337 79.329404212150706 0 1 0 -0.70710678939079041 0 0.70710677298230451 forward_v I I I I #
face $-1 $152 $153 $51 $-1 $154 forward single #
loop $-1 $155 $156 $65 #
cone-surface $-1 -52.299241925656261 -7.1884689128780526 3.5684258613617006 0.70710678939079041 0 -0.70710677298230451 0.35355338649115226 0 0.35355339469539521 1 I I 0 1 0.5 forward I I I I #
face $-1 $157 $158 $52 $-1 $159 forward single #
loop $-1 $160 $161 $66 #
cone-surface $-1 -52.299241925656261 -3.7908677827630335 3.5684258613617006 0.70710678939079041 0 -0.70710677298230451 0.35355338649115226 0 0.35355339469539521 1 I I 0 1 0.5 forward I I I I #
face $-1 $162 $163 $53 $-1 $164 reversed single #
loop $-1 $-1 $165 $67 #
plane-surface $-1 -132.62370709402742 9.9525047665626794 79.329404212150706 0 1 0 -0.70710678939079041 0 0.70710677298230451 forward_v I I I I #
face $-1 $166 $167 $54 $-1 $168 forward single #
loop $-1 $169 $170 $68 #
cone-surface $-1 -52.299241925656261 12.217572186639359 3.5684258613617006 0.70710678939079041 0 -0.70710677298230451 0.35355338649115226 0 0.35355339469539521 1 I I 0 1 0.5 forward I I I I #
face $-1 $171 $172 $55 $-1 $173 forward single #
loop $-1 $174 $175 $69 #
cone-surface $-1 -52.299241925656261 15.61517331675438 3.5684258613617006 0.70710678939079041 0 -0.70710677298230451 0.35355338649115226 0 0.35355339469539521 1 I I 0 1 0.5 forward I I I I #
face $-1 $176 $177 $42 $-1 $178 reversed single #
loop $-1 $-1 $179 $70 #
plane-surface $-1 0 0 -6.2037217776232536 0 0 1 1 0 0 forward_v I I I I #
coedge $-1 $180 $181 $182 $183 forward $71 $-1 #
face $-1 $184 $185 $43 $-1 $186 reversed single #
loop $-1 $-1 $187 $73 #
plane-surface $-1 0 -15.769988400873274 4.7037217776232536 0 -1 0 0 0 -1 forward_v I I I I #
coedge $-1 $188 $189 $190 $191 reversed $74 $-1 #
face $-1 $192 $193 $44 $-1 $194 reversed single #
loop $-1 $-1 $195 $76 #
plane-surface $-1 -22.754629696894298 -5.4896683478205439 79.32940601493587 0.70710678939079041 0 0.70710677298230451 0.70710677298230451 0 -0.70710678939079041 forward_v I I I I #
coedge $-1 $196 $197 $198 $199 reversed $77 $-1 #
face $-1 $-1 $200 $45 $-1 $201 forward single #
loop $-1 $202 $203 $79 #
cone-surface $-1 51.76891183361316 -7.1884689128780526 3.0380957816249792 -0.70710678939079041 0 -0.70710677298230451 0.17677669324557613 0 -0.1767766973476976 1 I I -0.70710678118654746 0.70710678118654746 0.25 forward I I I I #
loop $-1 $-1 $204 $59 #
coedge $-1 $128 $128 $205 $206 reversed $80 $-1 #
face $-1 $-1 $207 $46 $-1 $208 forward single #
loop $-1 $209 $210 $82 #
cone-surface $-1 51.76891183361316 -3.7908677827630335 3.0380957816249792 -0.70710678939079041 0 -0.70710677298230451 0.17677669324557613 0 -0.1767766973476976 1 I I -0.70710678118654746 0.70710678118654746 0.25 forward I I I I #
loop $-1 $-1 $211 $60 #
coedge $-1 $133 $133 $212 $213 reversed $83 $-1 #
face $-1 $214 $215 $47 $-1 $216 reversed single #
loop $-1 $-1 $217 $85 #
plane-surface $-1 -22.754629696894298 13.916372751696869 79.32940601493587 0.70710678939079041 0 0.70710677298230451 0.70710677298230451 0 -0.70710678939079041 forward_v I I I I #
coedge $-1 $218 $219 $220 $221 reversed $86 $-1 #
face $-1 $-1 $222 $48 $-1 $223 forward single #
loop $-1 $224 $225 $88 #
cone-surface $-1 51.76891183361316 12.217572186639359 3.0380957816249792 -0.70710678939079041 0 -0.70710677298230451 0.17677669324557613 0 -0.1767766973476976 1 I I -0.70710678118654746 0.70710678118654746 0.25 forward I I I I #
loop $-1 $-1 $226 $62 #
coedge $-1 $142 $142 $227 $228 reversed $89 $-1 #
face $-1 $-1 $229 $49 $-1 $230 forward single #
loop $-1 $231 $232 $91 #
cone-surface $-1 51.76891183361316 15.61517331675438 3.0380957816249792 -0.70710678939079041 0 -0.70710677298230451 0.17677669324557613 0 -0.1767766973476976 1 I I -0.70710678118654746 0.70710678118654746 0.25 forward I I I I #
loop $-1 $-1 $233 $63 #
coedge $-1 $147 $147 $234 $235 reversed $92 $-1 #
face $-1 $236 $237 $50 $-1 $238 reversed single #
loop $-1 $-1 $239 $94 #
plane-surface $-1 -54.934537797173974 -5.4896683478205439 1.6402367180824342 -0.70710678939079041 0 0.70710677298230451 0.70710677298230451 0 0.70710678939079041 forward_v I I I I #
coedge $-1 $240 $241 $242 $243 reversed $95 $-1 #
face $-1 $-1 $244 $51 $-1 $245 forward single #
loop $-1 $246 $247 $97 #
cone-surface $-1 -51.768911833613167 -7.1884689128780526 3.0380957816249721 0.70710678939079041 0 -0.70710677298230451 0.17677669324557613 0 0.1767766973476976 1 I I -0.70710678118654746 0.70710678118654746 0.25 forward I I I I #
loop $-1 $-1 $248 $65 #
coedge $-1 $156 $156 $249 $250 reversed $98 $-1 #
face $-1 $-1 $251 $52 $-1 $252 forward single #
loop $-1 $253 $254 $100 #
cone-surface $-1 -51.768911833613167 -3.7908677827630335 3.0380957816249721 0.70710678939079041 0 -0.70710677298230451 0.17677669324557613 0 0.1767766973476976 1 I I -0.70710678118654746 0.70710678118654746 0.25 forward I I I I #
loop $-1 $-1 $255 $66 #
coedge $-1 $161 $161 $256 $257 reversed $101 $-1 #
face $-1 $258 $259 $53 $-1 $260 reversed single #
loop $-1 $-1 $261 $103 #
plane-surface $-1 -54.934537797173974 13.916372751696869 1.6402367180824342 -0.70710678939079041 0 0.70710677298230451 0.70710677298230451 0 0.70710678939079041 forward_v I I I I #
coedge $-1 $262 $263 $264 $265 reversed $104 $-1 #
face $-1 $-1 $266 $54 $-1 $267 forward single #
loop $-1 $268 $269 $106 #
cone-surface $-1 -51.768911833613167 12.217572186639359 3.0380957816249721 0.70710678939079041 0 -0.70710677298230451 0.17677669324557613 0 0.1767766973476976 1 I I -0.70710678118654746 0.70710678118654746 0.25 forward I I I I #
loop $-1 $-1 $270 $68 #
coedge $-1 $170 $170 $271 $272 reversed $107 $-1 #
face $-1 $-1 $273 $55 $-1 $274 forward single #
loop $-1 $275 $276 $109 #
cone-surface $-1 -51.768911833613167 15.61517331675438 3.0380957816249721 0.70710678939079041 0 -0.70710677298230451 0.17677669324557613 0 0.1767766973476976 1 I I -0.70710678118654746 0.70710678118654746 0.25 forward I I I I #
loop $-1 $-1 $277 $69 #
coedge $-1 $175 $175 $278 $279 reversed $110 $-1 #
face $-1 $280 $281 $42 $-1 $282 reversed single #
loop $-1 $-1 $283 $112 #
plane-surface $-1 0 -23.042093798161545 0 0 1 0 0 0 1 forward_v I I I I #
coedge $-1 $284 $285 $286 $287 forward $113 $-1 #
coedge $-1 $288 $115 $289 $290 forward $71 $-1 #
coedge $-1 $115 $288 $291 $292 forward $71 $-1 #
coedge $-1 $293 $294 $115 $183 reversed $295 $-1 #
edge $-1 $296 -23.042093798161545 $297 23.042093798161545 $182 $298 forward 7 unknown #
face $-1 $299 $300 $43 $-1 $301 reversed single #
loop $-1 $-1 $302 $116 #
plane-surface $-1 -54.934537797173988 0 0 1 0 0 0 0 -1 forward_v I I I I #
coedge $-1 $303 $304 $305 $306 reversed $117 $-1 #
coedge $-1 $307 $119 $308 $309 reversed $74 $-1 #
coedge $-1 $119 $307 $303 $310 forward $74 $-1 #
coedge $-1 $305 $311 $119 $191 forward $312 $-1 #
edge $-1 $313 -13.33907324840284 $314 -6.066967851114569 $190 $315 forward 7 unknown #
face $-1 $316 $317 $44 $-1 $318 reversed single #
loop $-1 $-1 $319 $120 #
plane-surface $-1 54.934539599959152 -9.4535363329547337 157.01857350900414 0 1 0 0.70710678939079041 0 0.70710677298230451 forward_v I I I I #
coedge $-1 $320 $321 $322 $323 reversed $121 $-1 #
coedge $-1 $197 $123 $324 $325 reversed $77 $-1 #
coedge $-1 $123 $196 $320 $326 reversed $77 $-1 #
coedge $-1 $322 $327 $123 $199 forward $328 $-1 #
edge $-1 $329 -27.467267997194412 $330 -22.903783043549709 $198 $331 forward 7 unknown #
loop $-1 $-1 $205 $124 #
plane-surface $-1 -22.754629696894298 -5.4896683478205439 79.32940601493587 0.70710678939079041 0 0.70710677298230451 0.70710677298230451 0 -0.70710678939079041 forward_v I I I I #
loop $-1 $-1 $332 $79 #
coedge $-1 $203 $203 $204 $333 reversed $125 $-1 #
coedge $-1 $204 $204 $203 $333 forward $127 $-1 #
coedge $-1 $205 $205 $128 $206 forward $200 $-1 #
edge $-1 $334 0 $334 6.2831853071796004 $205 $335 forward 7 unknown #
loop $-1 $-1 $212 $129 #
plane-surface $-1 -22.754629696894298 -5.4896683478205439 79.32940601493587 0.70710678939079041 0 0.70710677298230451 0.70710677298230451 0 -0.70710678939079041 forward_v I I I I #
loop $-1 $-1 $336 $82 #
coedge $-1 $210 $210 $211 $337 reversed $130 $-1 #
coedge $-1 $211 $211 $210 $337 forward $132 $-1 #
coedge $-1 $212 $212 $133 $213 forward $207 $-1 #
edge $-1 $338 0 $338 6.2831853071796004 $212 $339 forward 7 unknown #
face $-1 $340 $341 $47 $-1 $342 reversed single #
loop $-1 $-1 $343 $134 #
plane-surface $-1 54.934539599959152 9.9525047665626794 157.01857350900414 0 1 0 0.70710678939079041 0 0.70710677298230451 forward_v I I I I #
coedge $-1 $344 $345 $346 $347 reversed $135 $-1 #
coedge $-1 $219 $137 $348 $349 reversed $86 $-1 #
coedge $-1 $137 $218 $344 $350 reversed $86 $-1 #
coedge $-1 $346 $351 $137 $221 forward $352 $-1 #
edge $-1 $353 -27.467267997194412 $354 -22.903783043549709 $220 $355 forward 7 unknown #
loop $-1 $-1 $227 $138 #
plane-surface $-1 -22.754629696894298 13.916372751696869 79.32940601493587 0.70710678939079041 0 0.70710677298230451 0.70710677298230451 0 -0.70710678939079041 forward_v I I I I #
loop $-1 $-1 $356 $88 #
coedge $-1 $225 $225 $226 $357 reversed $139 $-1 #
coedge $-1 $226 $226 $225 $357 forward $141 $-1 #
coedge $-1 $227 $227 $142 $228 forward $222 $-1 #
edge $-1 $358 0 $358 6.2831853071796004 $227 $359 forward 7 unknown #
loop $-1 $-1 $234 $143 #
plane-surface $-1 -22.754629696894298 13.916372751696869 79.32940601493587 0.70710678939079041 0 0.70710677298230451 0.70710677298230451 0 -0.70710678939079041 forward_v I I I I #
loop $-1 $-1 $360 $91 #
coedge $-1 $232 $232 $233 $361 reversed $144 $-1 #
coedge $-1 $233 $233 $232 $361 forward $146 $-1 #
coedge $-1 $234 $234 $147 $235 forward $229 $-1 #
edge $-1 $362 0 $362 6.2831853071796004 $234 $363 forward 7 unknown #
face $-1 $364 $365 $50 $-1 $366 forward single #
loop $-1 $-1 $367 $148 #
plane-surface $-1 -132.62370709402742 -1.525800362686355 79.329404212150706 0 -1 0 0.70710678939079041 0 -0.70710677298230451 forward_v I I I I #
coedge $-1 $368 $369 $370 $371 reversed $149 $-1 #
coedge $-1 $241 $151 $372 $373 reversed $95 $-1 #
coedge $-1 $151 $240 $368 $374 reversed $95 $-1 #
coedge $-1 $370 $375 $151 $243 forward $365 $-1 #
edge $-1 $376 11.377315749839724 $377 15.940800703484413 $242 $378 forward 7 unknown #
loop $-1 $-1 $249 $152 #
plane-surface $-1 -54.934537797173974 -5.4896683478205439 1.6402367180824342 -0.70710678939079041 0 0.70710677298230451 0.70710677298230451 0 0.70710678939079041 forward_v I I I I #
loop $-1 $-1 $379 $97 #
coedge $-1 $247 $247 $248 $380 reversed $153 $-1 #
coedge $-1 $248 $248 $247 $380 forward $155 $-1 #
coedge $-1 $249 $249 $156 $250 forward $244 $-1 #
edge $-1 $381 0 $381 6.2831853071796004 $249 $382 forward 7 unknown #
loop $-1 $-1 $256 $157 #
plane-surface $-1 -54.934537797173974 -5.4896683478205439 1.6402367180824342 -0.70710678939079041 0 0.70710677298230451 0.70710677298230451 0 0.70710678939079041 forward_v I I I I #
loop $-1 $-1 $383 $100 #
coedge $-1 $254 $254 $255 $384 reversed $158 $-1 #
coedge $-1 $255 $255 $254 $384 forward $160 $-1 #
coedge $-1 $256 $256 $161 $257 forward $251 $-1 #
edge $-1 $385 0 $385 6.2831853071796004 $256 $386 forward 7 unknown #
face $-1 $387 $388 $53 $-1 $389 forward single #
loop $-1 $-1 $390 $162 #
plane-surface $-1 -132.62370709402742 17.880240736831059 79.329404212150706 0 -1 0 0.70710678939079041 0 -0.70710677298230451 forward_v I I I I #
coedge $-1 $391 $392 $393 $394 reversed $163 $-1 #
coedge $-1 $263 $165 $395 $396 reversed $104 $-1 #
coedge $-1 $165 $262 $391 $397 reversed $104 $-1 #
coedge $-1 $393 $398 $165 $265 forward $388 $-1 #
edge $-1 $399 11.377315749839724 $400 15.940800703484413 $264 $401 forward 7 unknown #
loop $-1 $-1 $271 $166 #
plane-surface $-1 -54.934537797173974 13.916372751696869 1.6402367180824342 -0.70710678939079041 0 0.70710677298230451 0.70710677298230451 0 0.70710678939079041 forward_v I I I I #
loop $-1 $-1 $402 $106 #
coedge $-1 $269 $269 $270 $403 reversed $167 $-1 #
coedge $-1 $270 $270 $269 $403 forward $169 $-1 #
coedge $-1 $271 $271 $170 $272 forward $266 $-1 #
edge $-1 $404 0 $404 6.2831853071796004 $271 $405 forward 7 unknown #
loop $-1 $-1 $278 $171 #
plane-surface $-1 -54.934537797173974 13.916372751696869 1.6402367180824342 -0.70710678939079041 0 0.70710677298230451 0.70710677298230451 0 0.70710678939079041 forward_v I I I I #
loop $-1 $-1 $406 $109 #
coedge $-1 $276 $276 $277 $407 reversed $172 $-1 #
coedge $-1 $277 $277 $276 $407 forward $174 $-1 #
coedge $-1 $278 $278 $175 $279 forward $273 $-1 #
edge $-1 $408 0 $408 6.2831853071796004 $278 $409 forward 7 unknown #
face $-1 $410 $411 $42 $-1 $412 reversed single #
loop $-1 $-1 $413 $176 #
plane-surface $-1 -54.934537797173988 0 0 1 0 0 0 0 -1 forward_v I I I I #
coedge $-1 $414 $291 $415 $416 forward $177 $-1 #
coedge $-1 $417 $179 $414 $418 forward $113 $-1 #
coedge $-1 $179 $417 $419 $420 forward $113 $-1 #
coedge $-1 $294 $293 $179 $287 reversed $295 $-1 #
edge $-1 $421 -23.042093798161545 $422 23.042093798161545 $286 $423 forward 7 unknown #
coedge $-1 $181 $180 $424 $425 forward $71 $-1 #
coedge $-1 $426 $427 $180 $290 reversed $411 $-1 #
edge $-1 $297 -54.934537797173988 $428 54.934537797173988 $289 $429 forward 7 unknown #
coedge $-1 $283 $430 $181 $292 reversed $177 $-1 #
edge $-1 $431 -54.934537797173988 $296 54.934537797173988 $291 $432 forward 7 unknown #
coedge $-1 $286 $182 $430 $433 forward $295 $-1 #
coedge $-1 $182 $286 $426 $434 reversed $295 $-1 #
loop $-1 $-1 $293 $410 #
vertex $-1 $183 $435 #
vertex $-1 $183 $436 #
straight-curve $-1 54.934537797173988 0 6.2037217776232536 0 1 0 I I #
face $-1 $437 $438 $43 $-1 $439 forward single #
loop $-1 $-1 $308 $184 #
plane-surface $-1 0 -23.042093798161545 0 0 1 0 0 0 1 forward_v I I I I #
coedge $-1 $440 $441 $442 $443 forward $185 $-1 #
coedge $-1 $442 $187 $189 $310 reversed $117 $-1 #
coedge $-1 $187 $442 $444 $445 reversed $117 $-1 #
coedge $-1 $446 $190 $187 $306 forward $312 $-1 #
edge $-1 $314 0.8518608888116268 $447 3.8518608888116268 $305 $448 forward 7 unknown #
coedge $-1 $189 $188 $440 $449 reversed $74 $-1 #
coedge $-1 $450 $451 $188 $309 forward $300 $-1 #
edge $-1 $452 -54.934537797173988 $313 54.934537797173988 $308 $453 forward 7 unknown #
edge $-1 $454 -54.934537797173988 $314 54.934537797173988 $303 $455 forward 7 unknown #
coedge $-1 $190 $446 $450 $456 forward $312 $-1 #
loop $-1 $-1 $305 $437 #
vertex $-1 $309 $457 #
vertex $-1 $191 $458 #
straight-curve $-1 54.934537797173988 -9.7030205497587048 3.2037217776232536 0 1 0 I I #
face $-1 $-1 $328 $44 $-1 $459 forward single #
loop $-1 $-1 $460 $192 #
plane-surface $-1 54.934537797173988 0 0 -1 0 0 0 0 1 forward_v I I I I #
coedge $-1 $461 $462 $463 $464 reversed $193 $-1 #
coedge $-1 $465 $195 $197 $326 forward $121 $-1 #
coedge $-1 $195 $465 $461 $466 forward $121 $-1 #
coedge $-1 $463 $198 $195 $323 forward $328 $-1 #
edge $-1 $330 -1.219033811223917 $467 6.7087021590444618 $322 $468 forward 7 unknown #
coedge $-1 $469 $470 $196 $325 forward $317 $-1 #
edge $-1 $471 -76.869050036419665 $329 -72.305564976878813 $324 $472 forward 7 unknown #
edge $-1 $330 103.41533320633825 $471 109.86907559434803 $197 $473 forward 7 unknown #
coedge $-1 $198 $463 $469 $474 forward $328 $-1 #
loop $-1 $-1 $463 $316 #
vertex $-1 $325 $475 #
vertex $-1 $199 $476 #
straight-curve $-1 27.467269799979576 -1.525800362686355 6.203721777623258 -1 0 0 I I #
coedge $-1 $332 $332 $-1 $477 reversed $202 $-1 #
edge $-1 $478 0 $478 6.2831853071796004 $203 $479 forward 7 unknown #
vertex $-1 $206 $480 #
ellipse-curve $-1 52.652795320351622 -7.1884689128780526 3.9219792478528346 0.70710678939079041 0 0.70710677298230451 0.35355338649115226 0 -0.35355339469539521 1 I I #
coedge $-1 $336 $336 $-1 $481 reversed $209 $-1 #
edge $-1 $482 0 $482 6.2831853071796004 $210 $483 forward 7 unknown #
vertex $-1 $213 $484 #
ellipse-curve $-1 52.652795320351622 -3.7908677827630335 3.9219792478528346 0.70710678939079041 0 0.70710677298230451 0.35355338649115226 0 -0.35355339469539521 1 I I #
face $-1 $-1 $352 $47 $-1 $485 forward single #
loop $-1 $-1 $486 $214 #
plane-surface $-1 54.934537797173988 0 0 -1 0 0 0 0 1 forward_v I I I I #
coedge $-1 $487 $488 $489 $490 reversed $215 $-1 #
coedge $-1 $491 $217 $219 $350 forward $135 $-1 #
coedge $-1 $217 $491 $487 $492 forward $135 $-1 #
coedge $-1 $489 $220 $217 $347 forward $352 $-1 #
edge $-1 $354 -10.922054360982624 $493 -2.9943183907142448 $346 $494 forward 7 unknown #
coedge $-1 $495 $496 $218 $349 forward $341 $-1 #
edge $-1 $497 -76.869050036419665 $353 -72.305564976878813 $348 $498 forward 7 unknown #
edge $-1 $354 103.41533320633825 $497 109.86907559434803 $219 $499 forward 7 unknown #
coedge $-1 $220 $489 $495 $500 forward $352 $-1 #
loop $-1 $-1 $489 $340 #
vertex $-1 $349 $501 #
vertex $-1 $221 $502 #
straight-curve $-1 27.467269799979576 17.880240736831059 6.203721777623258 -1 0 0 I I #
coedge $-1 $356 $356 $-1 $503 reversed $224 $-1 #
edge $-1 $504 0 $504 6.2831853071796004 $225 $505 forward 7 unknown #
vertex $-1 $228 $506 #
ellipse-curve $-1 52.652795320351622 12.217572186639359 3.9219792478528346 0.70710678939079041 0 0.70710677298230451 0.35355338649115226 0 -0.35355339469539521 1 I I #
coedge $-1 $360 $360 $-1 $507 reversed $231 $-1 #
edge $-1 $508 0 $508 6.2831853071796004 $232 $509 forward 7 unknown #
vertex $-1 $235 $510 #
ellipse-curve $-1 52.652795320351622 15.61517331675438 3.9219792478528346 0.70710678939079041 0 0.70710677298230451 0.35355338649115226 0 -0.35355339469539521 1 I I #
face $-1 $-1 $511 $50 $-1 $512 reversed single #
loop $-1 $-1 $242 $236 #
plane-surface $-1 0 0 6.2037217776232536 0 0 1 1 0 0 forward_v I I I I #
coedge $-1 $513 $514 $515 $516 reversed $237 $-1 #
coedge $-1 $517 $239 $241 $374 forward $149 $-1 #
coedge $-1 $239 $517 $513 $518 forward $149 $-1 #
coedge $-1 $515 $242 $239 $371 forward $365 $-1 #
edge $-1 $377 -6.7087021590444618 $519 1.219033811223917 $370 $520 forward 7 unknown #
coedge $-1 $521 $522 $240 $373 forward $511 $-1 #
edge $-1 $523 -38.024465387992933 $376 -33.460980328452102 $372 $524 forward 7 unknown #
edge $-1 $377 -6.4537423880097382 $523 2.0097183471152325e-014 $241 $525 forward 7 unknown #
coedge $-1 $242 $515 $521 $526 forward $365 $-1 #
vertex $-1 $373 $527 #
vertex $-1 $243 $528 #
straight-curve $-1 -66.311853547013712 -9.4535363329547337 6.2037217776232509 1 0 0 I I #
coedge $-1 $379 $379 $-1 $529 reversed $246 $-1 #
edge $-1 $530 0 $530 6.2831853071796004 $247 $531 forward 7 unknown #
vertex $-1 $250 $532 #
ellipse-curve $-1 -52.652795320351643 -7.1884689128780526 3.9219792478528372 -0.70710678939079041 0 0.70710677298230451 0.35355338649115226 0 0.35355339469539521 1 I I #
coedge $-1 $383 $383 $-1 $533 reversed $253 $-1 #
edge $-1 $534 0 $534 6.2831853071796004 $254 $535 forward 7 unknown #
vertex $-1 $257 $536 #
ellipse-curve $-1 -52.652795320351643 -3.7908677827630335 3.9219792478528372 -0.70710678939079041 0 0.70710677298230451 0.35355338649115226 0 0.35355339469539521 1 I I #
face $-1 $-1 $537 $53 $-1 $538 reversed single #
loop $-1 $-1 $264 $258 #
plane-surface $-1 0 0 6.2037217776232536 0 0 1 1 0 0 forward_v I I I I #
coedge $-1 $539 $540 $541 $542 reversed $259 $-1 #
coedge $-1 $543 $261 $263 $397 forward $163 $-1 #
coedge $-1 $261 $543 $539 $544 forward $163 $-1 #
coedge $-1 $541 $264 $261 $394 forward $388 $-1 #
edge $-1 $400 2.9943183907142448 $545 10.922054360982624 $393 $546 forward 7 unknown #
coedge $-1 $547 $548 $262 $396 forward $537 $-1 #
edge $-1 $549 -38.024465387992933 $399 -33.460980328452102 $395 $550 forward 7 unknown #
edge $-1 $400 -6.4537423880097382 $549 2.0097183471152325e-014 $263 $551 forward 7 unknown #
coedge $-1 $264 $541 $547 $552 forward $388 $-1 #
vertex $-1 $265 $553 #
vertex $-1 $265 $554 #
straight-curve $-1 -66.311853547013712 9.9525047665626794 6.2037217776232509 1 0 0 I I #
coedge $-1 $402 $402 $-1 $555 reversed $268 $-1 #
edge $-1 $556 0 $556 6.2831853071796004 $269 $557 forward 7 unknown #
vertex $-1 $272 $558 #
ellipse-curve $-1 -52.652795320351643 12.217572186639359 3.9219792478528372 -0.70710678939079041 0 0.70710677298230451 0.35355338649115226 0 0.35355339469539521 1 I I #
coedge $-1 $406 $406 $-1 $559 reversed $275 $-1 #
edge $-1 $560 0 $560 6.2831853071796004 $276 $561 forward 7 unknown #
vertex $-1 $279 $562 #
ellipse-curve $-1 -52.652795320351643 15.61517331675438 3.9219792478528372 -0.70710678939079041 0 0.70710677298230451 0.35355338649115226 0 0.35355339469539521 1 I I #
face $-1 $-1 $295 $42 $-1 $563 reversed single #
loop $-1 $-1 $426 $280 #
plane-surface $-1 0 23.042093798161545 0 0 -1 0 0 0 -1 forward_v I I I I #
coedge $-1 $564 $424 $427 $565 forward $281 $-1 #
coedge $-1 $430 $283 $284 $418 reversed $177 $-1 #
coedge $-1 $424 $564 $283 $416 reversed $281 $-1 #
edge $-1 $431 -6.2037217776232536 $566 6.2037217776232536 $415 $567 forward 7 unknown #
coedge $-1 $285 $284 $564 $568 forward $113 $-1 #
edge $-1 $422 -54.934537797173988 $566 54.934537797173988 $414 $569 forward 7 unknown #
coedge $-1 $427 $426 $285 $420 reversed $411 $-1 #
edge $-1 $570 -54.934537797173988 $421 54.934537797173988 $419 $571 forward 7 unknown #
vertex $-1 $287 $572 #
vertex $-1 $433 $573 #
straight-curve $-1 54.934537797173988 0 -6.2037217776232536 0 -1 0 I I #
coedge $-1 $413 $415 $288 $425 reversed $281 $-1 #
edge $-1 $428 -23.042093798161545 $431 23.042093798161545 $424 $574 forward 7 unknown #
coedge $-1 $419 $289 $294 $434 forward $411 $-1 #
coedge $-1 $289 $419 $413 $565 reversed $411 $-1 #
vertex $-1 $290 $575 #
straight-curve $-1 0 23.042093798161545 6.2037217776232536 -1 0 0 I I #
coedge $-1 $291 $414 $293 $433 reversed $177 $-1 #
vertex $-1 $425 $576 #
straight-curve $-1 0 -23.042093798161545 6.2037217776232536 1 0 0 I I #
edge $-1 $296 -6.2037217776232536 $422 6.2037217776232536 $293 $577 forward 7 unknown #
edge $-1 $297 -6.2037217776232536 $421 6.2037217776232536 $294 $578 forward 7 unknown #
point $-1 54.934537797173988 -23.042093798161545 6.2037217776232536 #
point $-1 54.934537797173988 23.042093798161545 6.2037217776232536 #
face $-1 $-1 $312 $43 $-1 $579 reversed single #
loop $-1 $-1 $444 $299 #
plane-surface $-1 0 0 6.2037217776232536 0 0 1 1 0 0 forward_v I I I I #
coedge $-1 $580 $302 $307 $449 forward $185 $-1 #
coedge $-1 $302 $580 $581 $582 reversed $185 $-1 #
coedge $-1 $304 $303 $302 $443 reversed $117 $-1 #
edge $-1 $583 -3.8518608888116268 $454 -0.8518608888116268 $302 $584 forward 7 unknown #
coedge $-1 $581 $585 $304 $445 forward $438 $-1 #
edge $-1 $447 -54.934537797173988 $583 54.934537797173988 $444 $586 forward 7 unknown #
coedge $-1 $311 $305 $585 $587 reversed $312 $-1 #
vertex $-1 $306 $588 #
straight-curve $-1 54.934537797173988 -15.769988400873274 2.3518608888116268 0 0 1 I I #
edge $-1 $454 6.066967851114569 $452 13.33907324840284 $440 $589 forward 7 unknown #
coedge $-1 $590 $308 $311 $456 reversed $300 $-1 #
coedge $-1 $308 $590 $580 $591 forward $300 $-1 #
vertex $-1 $309 $592 #
straight-curve $-1 0 -23.042093798161545 3.2037217776232536 1 0 0 I I #
vertex $-1 $449 $593 #
straight-curve $-1 0 -15.769988400873274 3.2037217776232536 1 0 0 I I #
edge $-1 $594 -6.2037217776232536 $313 -3.2037217776232536 $311 $595 forward 7 unknown #
point $-1 54.934537797173988 -23.042093798161545 3.2037217776232536 #
point $-1 54.934537797173988 -15.769988400873274 3.2037217776232536 #
plane-surface $-1 0 0 6.2037217776232536 0 0 1 1 0 0 forward_v I I I I #
coedge $-1 $470 $469 $462 $596 forward $317 $-1 #
coedge $-1 $462 $319 $321 $466 reversed $193 $-1 #
coedge $-1 $319 $461 $460 $596 reversed $193 $-1 #
coedge $-1 $327 $322 $319 $464 forward $328 $-1 #
edge $-1 $467 22.903783043549709 $597 27.467267997194412 $463 $598 forward 7 unknown #
coedge $-1 $321 $320 $470 $599 reversed $121 $-1 #
edge $-1 $600 -109.86907559434803 $467 -103.41533320633825 $461 $601 forward 7 unknown #
vertex $-1 $323 $602 #
straight-curve $-1 50.371052843529291 -2.744834173910272 6.2037217776232438 0 -1 0 I I #
coedge $-1 $460 $324 $327 $474 reversed $317 $-1 #
coedge $-1 $324 $460 $465 $599 forward $317 $-1 #
vertex $-1 $325 $603 #
straight-curve $-1 54.934537797173988 -1.525800362686355 78.509286754502071 0 0 1 I I #
straight-curve $-1 -22.754629696894298 -1.525800362686355 79.32940601493587 0.70710677298230451 0 -0.70710678939079041 I I #
edge $-1 $597 -9.4535363329547337 $329 -1.525800362686355 $469 $604 forward 7 unknown #
point $-1 54.934537797173988 -1.525800362686355 6.2037217776232536 #
point $-1 50.371052843529284 -1.525800362686355 6.203721777623258 #
edge $-1 $605 1 $605 0 $332 $-1 forward 7 unknown #
vertex $-1 $333 $606 #
ellipse-curve $-1 51.945688530960858 -7.1884689128780526 3.2148724748705555 0.70710678939079041 0 0.70710677298230451 0.35355338649115226 0 -0.35355339469539521 1 I I #
point $-1 53.0063487068428 -7.1884689128780526 3.5684258531574646 #
edge $-1 $607 1 $607 0 $336 $-1 forward 7 unknown #
vertex $-1 $337 $608 #
ellipse-curve $-1 51.945688530960858 -3.7908677827630335 3.2148724748705555 0.70710678939079041 0 0.70710677298230451 0.35355338649115226 0 -0.35355339469539521 1 I I #
point $-1 53.0063487068428 -3.7908677827630335 3.5684258531574646 #
plane-surface $-1 0 0 6.2037217776232536 0 0 1 1 0 0 forward_v I I I I #
coedge $-1 $496 $495 $488 $609 forward $341 $-1 #
coedge $-1 $488 $343 $345 $492 reversed $215 $-1 #
coedge $-1 $343 $487 $486 $609 reversed $215 $-1 #
coedge $-1 $351 $346 $343 $490 forward $352 $-1 #
edge $-1 $493 22.903783043549709 $610 27.467267997194412 $489 $611 forward 7 unknown #
coedge $-1 $345 $344 $496 $612 reversed $135 $-1 #
edge $-1 $613 -109.86907559434803 $493 -103.41533320633825 $487 $614 forward 7 unknown #
vertex $-1 $347 $615 #
straight-curve $-1 50.371052843529291 6.9581863758484346 6.2037217776232438 0 -1 0 I I #
coedge $-1 $486 $348 $351 $500 reversed $341 $-1 #
coedge $-1 $348 $486 $491 $612 forward $341 $-1 #
vertex $-1 $349 $616 #
straight-curve $-1 54.934537797173988 17.880240736831059 78.509286754502071 0 0 1 I I #
straight-curve $-1 -22.754629696894298 17.880240736831059 79.32940601493587 0.70710677298230451 0 -0.70710678939079041 I I #
edge $-1 $610 9.9525047665626794 $353 17.880240736831059 $495 $617 forward 7 unknown #
point $-1 54.934537797173988 17.880240736831059 6.2037217776232536 #
point $-1 50.371052843529284 17.880240736831059 6.203721777623258 #
edge $-1 $618 1 $618 0 $356 $-1 forward 7 unknown #
vertex $-1 $357 $619 #
ellipse-curve $-1 51.945688530960858 12.217572186639359 3.2148724748705555 0.70710678939079041 0 0.70710677298230451 0.35355338649115226 0 -0.35355339469539521 1 I I #
point $-1 53.0063487068428 12.217572186639359 3.5684258531574646 #
edge $-1 $620 1 $620 0 $360 $-1 forward 7 unknown #
vertex $-1 $361 $621 #
ellipse-curve $-1 51.945688530960858 15.61517331675438 3.2148724748705555 0.70710678939079041 0 0.70710677298230451 0.35355338649115226 0 -0.35355339469539521 1 I I #
point $-1 53.0063487068428 15.61517331675438 3.5684258531574646 #
loop $-1 $-1 $372 $364 #
plane-surface $-1 -54.934537797173988 0 0 1 0 0 0 0 -1 forward_v I I I I #
coedge $-1 $514 $367 $369 $518 reversed $237 $-1 #
coedge $-1 $367 $513 $622 $623 reversed $237 $-1 #
coedge $-1 $375 $370 $367 $516 forward $365 $-1 #
edge $-1 $519 -15.940800703484413 $624 -11.377315749839724 $515 $625 forward 7 unknown #
coedge $-1 $369 $368 $522 $626 reversed $149 $-1 #
edge $-1 $627 -2.0097183471152325e-014 $519 6.4537423880097382 $513 $628 forward 7 unknown #
vertex $-1 $371 $629 #
straight-curve $-1 -50.371052843529291 -2.744834173910272 6.2037217776232545 0 1 0 I I #
coedge $-1 $622 $372 $375 $526 reversed $511 $-1 #
coedge $-1 $372 $622 $517 $626 forward $511 $-1 #
vertex $-1 $373 $630 #
straight-curve $-1 -54.934537797173988 -9.4535363329547337 39.664702106075353 0 0 1 I I #
straight-curve $-1 -54.934537797173974 -9.4535363329547337 1.6402367180824342 -0.70710677298230451 0 -0.70710678939079041 I I #
edge $-1 $624 1.525800362686355 $376 9.4535363329547337 $521 $631 forward 7 unknown #
point $-1 -54.934537797173988 -9.4535363329547337 6.2037217776232536 #
point $-1 -50.371052843529299 -9.4535363329547337 6.2037217776232536 #
edge $-1 $632 1 $632 0 $379 $-1 forward 7 unknown #
vertex $-1 $380 $633 #
ellipse-curve $-1 -51.945688530960865 -7.1884689128780526 3.2148724748705484 -0.70710678939079041 0 0.70710677298230451 0.35355338649115226 0 0.35355339469539521 1 I I #
point $-1 -52.2992419338605 -7.1884689128780526 4.2755326425482476 #
edge $-1 $634 1 $634 0 $383 $-1 forward 7 unknown #
vertex $-1 $384 $635 #
ellipse-curve $-1 -51.945688530960865 -3.7908677827630335 3.2148724748705484 -0.70710678939079041 0 0.70710677298230451 0.35355338649115226 0 0.35355339469539521 1 I I #
point $-1 -52.2992419338605 -3.7908677827630335 4.2755326425482476 #
loop $-1 $-1 $395 $387 #
plane-surface $-1 -54.934537797173988 0 0 1 0 0 0 0 -1 forward_v I I I I #
coedge $-1 $540 $390 $392 $544 reversed $259 $-1 #
coedge $-1 $390 $539 $636 $637 reversed $259 $-1 #
coedge $-1 $398 $393 $390 $542 forward $388 $-1 #
edge $-1 $545 -15.940800703484413 $638 -11.377315749839724 $541 $639 forward 7 unknown #
coedge $-1 $392 $391 $548 $640 reversed $163 $-1 #
edge $-1 $641 -2.0097183471152325e-014 $545 6.4537423880097382 $539 $642 forward 7 unknown #
vertex $-1 $394 $643 #
straight-curve $-1 -50.371052843529291 6.9581863758484346 6.2037217776232545 0 1 0 I I #
coedge $-1 $636 $395 $398 $552 reversed $537 $-1 #
coedge $-1 $395 $636 $543 $640 forward $537 $-1 #
vertex $-1 $396 $644 #
straight-curve $-1 -54.934537797173988 9.9525047665626794 39.664702106075353 0 0 1 I I #
straight-curve $-1 -54.934537797173974 9.9525047665626794 1.6402367180824342 -0.70710677298230451 0 -0.70710678939079041 I I #
edge $-1 $638 -17.880240736831059 $399 -9.9525047665626794 $547 $645 forward 7 unknown #
point $-1 -54.934537797173988 9.9525047665626794 6.2037217776232536 #
point $-1 -50.371052843529299 9.9525047665626794 6.2037217776232536 #
edge $-1 $646 1 $646 0 $402 $-1 forward 7 unknown #
vertex $-1 $403 $647 #
ellipse-curve $-1 -51.945688530960865 12.217572186639359 3.2148724748705484 -0.70710678939079041 0 0.70710677298230451 0.35355338649115226 0 0.35355339469539521 1 I I #
point $-1 -52.2992419338605 12.217572186639359 4.2755326425482476 #
edge $-1 $648 1 $648 0 $406 $-1 forward 7 unknown #
vertex $-1 $407 $649 #
ellipse-curve $-1 -51.945688530960865 15.61517331675438 3.2148724748705484 -0.70710678939079041 0 0.70710677298230451 0.35355338649115226 0 0.35355339469539521 1 I I #
point $-1 -52.2992419338605 15.61517331675438 4.2755326425482476 #
plane-surface $-1 54.934537797173988 0 0 -1 0 0 0 0 1 forward_v I I I I #
coedge $-1 $415 $413 $417 $568 reversed $281 $-1 #
edge $-1 $428 -6.2037217776232536 $570 6.2037217776232536 $427 $650 forward 7 unknown #
vertex $-1 $568 $651 #
straight-curve $-1 -54.934537797173988 -23.042093798161545 0 0 0 -1 I I #
edge $-1 $566 -23.042093798161545 $570 23.042093798161545 $564 $652 forward 7 unknown #
straight-curve $-1 0 -23.042093798161545 -6.2037217776232536 -1 0 0 I I #
vertex $-1 $420 $653 #
straight-curve $-1 0 23.042093798161545 -6.2037217776232536 1 0 0 I I #
point $-1 54.934537797173988 23.042093798161545 -6.2037217776232536 #
point $-1 54.934537797173988 -23.042093798161545 -6.2037217776232536 #
straight-curve $-1 -54.934537797173988 0 6.2037217776232536 0 -1 0 I I #
point $-1 -54.934537797173988 23.042093798161545 6.2037217776232536 #
point $-1 -54.934537797173988 -23.042093798161545 6.2037217776232536 #
straight-curve $-1 54.934537797173988 -23.042093798161545 0 0 0 -1 I I #
straight-curve $-1 54.934537797173988 23.042093798161545 0 0 0 -1 I I #
plane-surface $-1 54.934537797173988 0 0 -1 0 0 0 0 1 forward_v I I I I #
coedge $-1 $441 $440 $451 $591 reversed $185 $-1 #
coedge $-1 $654 $444 $441 $582 forward $438 $-1 #
edge $-1 $583 15.769988400873274 $655 23.042093798161545 $441 $656 forward 7 unknown #
vertex $-1 $582 $657 #
straight-curve $-1 -54.934537797173988 -15.769988400873274 2.3518608888116268 0 0 -1 I I #
coedge $-1 $444 $654 $446 $587 forward $438 $-1 #
straight-curve $-1 0 -15.769988400873274 6.2037217776232536 -1 0 0 I I #
edge $-1 $594 -23.042093798161545 $447 -15.769988400873274 $446 $658 forward 7 unknown #
point $-1 54.934537797173988 -15.769988400873274 6.2037217776232536 #
straight-curve $-1 -54.934537797173988 -9.7030205497587048 3.2037217776232536 0 -1 0 I I #
coedge $-1 $451 $450 $654 $659 reversed $300 $-1 #
edge $-1 $655 -6.2037217776232536 $452 -3.2037217776232536 $580 $660 forward 7 unknown #
point $-1 -54.934537797173988 -23.042093798161545 3.2037217776232536 #
point $-1 -54.934537797173988 -15.769988400873274 3.2037217776232536 #
vertex $-1 $587 $661 #
straight-curve $-1 54.934537797173988 -23.042093798161545 0 0 0 -1 I I #
edge $-1 $597 72.305564976878813 $600 76.869050036419665 $460 $662 forward 7 unknown #
vertex $-1 $474 $663 #
straight-curve $-1 27.467269799979576 -9.4535363329547337 6.203721777623258 1 0 0 I I #
edge $-1 $600 -6.7087021590444618 $471 1.219033811223917 $470 $664 forward 7 unknown #
vertex $-1 $599 $665 #
straight-curve $-1 -22.754629696894298 -9.4535363329547337 79.32940601493587 -0.70710677298230451 0 0.70710678939079041 I I #
point $-1 50.371052843529284 -9.4535363329547337 6.203721777623258 #
point $-1 54.934537797173988 -1.525800362686355 1.6402367180824058 #
straight-curve $-1 54.934537797173988 0 6.2037217776232536 0 1 0 I I #
vertex $-1 $477 $666 #
point $-1 52.299241917452008 -7.1884689128780526 2.8613190801751602 #
vertex $-1 $481 $667 #
point $-1 52.299241917452008 -3.7908677827630335 2.8613190801751602 #
edge $-1 $610 72.305564976878813 $613 76.869050036419665 $486 $668 forward 7 unknown #
vertex $-1 $500 $669 #
straight-curve $-1 27.467269799979576 9.9525047665626794 6.203721777623258 1 0 0 I I #
edge $-1 $613 2.9943183907142448 $497 10.922054360982624 $496 $670 forward 7 unknown #
vertex $-1 $612 $671 #
straight-curve $-1 -22.754629696894298 9.9525047665626794 79.32940601493587 -0.70710677298230451 0 0.70710678939079041 I I #
point $-1 50.371052843529284 9.9525047665626794 6.203721777623258 #
point $-1 54.934537797173988 17.880240736831059 1.6402367180824058 #
straight-curve $-1 54.934537797173988 0 6.2037217776232536 0 1 0 I I #
vertex $-1 $503 $672 #
point $-1 52.299241917452008 12.217572186639359 2.8613190801751602 #
vertex $-1 $507 $673 #
point $-1 52.299241917452008 15.61517331675438 2.8613190801751602 #
coedge $-1 $522 $521 $514 $623 forward $511 $-1 #
edge $-1 $624 33.460980328452102 $627 38.024465387992933 $622 $674 forward 7 unknown #
vertex $-1 $526 $675 #
straight-curve $-1 -66.311853547013712 -1.525800362686355 6.2037217776232509 -1 0 0 I I #
edge $-1 $627 -1.219033811223917 $523 6.7087021590444618 $522 $676 forward 7 unknown #
vertex $-1 $626 $677 #
straight-curve $-1 -54.934537797173974 -1.525800362686355 1.6402367180824342 0.70710677298230451 0 0.70710678939079041 I I #
point $-1 -50.371052843529299 -1.525800362686355 6.2037217776232536 #
point $-1 -54.934537797173988 -9.4535363329547337 1.64023671808242 #
straight-curve $-1 -54.934537797173988 0 6.2037217776232536 0 -1 0 I I #
vertex $-1 $529 $678 #
point $-1 -51.592135144469715 -7.1884689128780526 3.5684258695659432 #
vertex $-1 $533 $679 #
point $-1 -51.592135144469715 -3.7908677827630335 3.5684258695659432 #
coedge $-1 $548 $547 $540 $637 forward $537 $-1 #
edge $-1 $638 33.460980328452102 $641 38.024465387992933 $636 $680 forward 7 unknown #
vertex $-1 $552 $681 #
straight-curve $-1 -66.311853547013712 17.880240736831059 6.2037217776232509 -1 0 0 I I #
edge $-1 $641 -10.922054360982624 $549 -2.9943183907142448 $548 $682 forward 7 unknown #
vertex $-1 $640 $683 #
straight-curve $-1 -54.934537797173974 17.880240736831059 1.6402367180824342 0.70710677298230451 0 0.70710678939079041 I I #
point $-1 -50.371052843529299 17.880240736831059 6.2037217776232536 #
point $-1 -54.934537797173988 9.9525047665626794 1.64023671808242 #
straight-curve $-1 -54.934537797173988 0 6.2037217776232536 0 -1 0 I I #
vertex $-1 $555 $684 #
point $-1 -51.592135144469715 12.217572186639359 3.5684258695659432 #
vertex $-1 $559 $685 #
point $-1 -51.592135144469715 15.61517331675438 3.5684258695659432 #
straight-curve $-1 -54.934537797173988 23.042093798161545 0 0 0 -1 I I #
point $-1 -54.934537797173988 -23.042093798161545 -6.2037217776232536 #
straight-curve $-1 -54.934537797173988 0 -6.2037217776232536 0 1 0 I I #
point $-1 -54.934537797173988 23.042093798161545 -6.2037217776232536 #
coedge $-1 $585 $581 $590 $659 forward $438 $-1 #
vertex $-1 $582 $686 #
straight-curve $-1 -54.934537797173988 0 6.2037217776232536 0 -1 0 I I #
point $-1 -54.934537797173988 -15.769988400873274 6.2037217776232536 #
straight-curve $-1 54.934537797173988 0 6.2037217776232536 0 1 0 I I #
edge $-1 $655 -54.934537797173988 $594 54.934537797173988 $590 $687 forward 7 unknown #
straight-curve $-1 -54.934537797173988 -23.042093798161545 0 0 0 -1 I I #
point $-1 54.934537797173988 -23.042093798161545 6.2037217776232536 #
straight-curve $-1 54.934537797173988 -9.4535363329547337 78.509286754502071 0 0 -1 I I #
point $-1 54.934537797173988 -9.4535363329547337 6.2037217776232536 #
straight-curve $-1 54.934537797173988 -2.744834173910272 1.64023671808242 0 1 0 I I #
point $-1 54.934537797173988 -9.4535363329547337 1.6402367180824058 #
point $-1 51.592135136265462 -7.1884689128780526 2.8613190883794029 #
point $-1 51.592135136265462 -3.7908677827630335 2.8613190883794029 #
straight-curve $-1 54.934537797173988 9.9525047665626794 78.509286754502071 0 0 -1 I I #
point $-1 54.934537797173988 9.9525047665626794 6.2037217776232536 #
straight-curve $-1 54.934537797173988 6.9581863758484346 1.64023671808242 0 1 0 I I #
point $-1 54.934537797173988 9.9525047665626794 1.6402367180824058 #
point $-1 51.592135136265462 12.217572186639359 2.8613190883794029 #
point $-1 51.592135136265462 15.61517331675438 2.8613190883794029 #
straight-curve $-1 -54.934537797173988 -1.525800362686355 39.664702106075353 0 0 -1 I I #
point $-1 -54.934537797173988 -1.525800362686355 6.2037217776232536 #
straight-curve $-1 -54.934537797173988 -2.744834173910272 1.6402367180824164 0 -1 0 I I #
point $-1 -54.934537797173988 -1.525800362686355 1.64023671808242 #
point $-1 -51.592135136265469 -7.1884689128780526 2.8613190883793957 #
point $-1 -51.592135136265469 -3.7908677827630335 2.8613190883793957 #
straight-curve $-1 -54.934537797173988 17.880240736831059 39.664702106075353 0 0 -1 I I #
point $-1 -54.934537797173988 17.880240736831059 6.2037217776232536 #
straight-curve $-1 -54.934537797173988 6.9581863758484346 1.6402367180824164 0 -1 0 I I #
point $-1 -54.934537797173988 17.880240736831059 1.64023671808242 #
point $-1 -51.592135136265469 12.217572186639359 2.8613190883793957 #
point $-1 -51.592135136265469 15.61517331675438 2.8613190883793957 #
point $-1 -54.934537797173988 -23.042093798161545 6.2037217776232536 #
straight-curve $-1 0 -23.042093798161545 6.2037217776232536 1 0 0 I I #
End-of-ACIS-data 