500 0 18 0           
7 Unknown 11 ACIS 5.0 NT 24 Thu Mar 25 23:44:01 1999 
-1 9.9999999999999995e-007 1e-010 
body $-1 $18 $-1 $19 #
body $-1 $20 $-1 $21 #
body $-1 $22 $-1 $23 #
body $-1 $24 $-1 $25 #
body $-1 $26 $-1 $27 #
body $-1 $28 $-1 $29 #
body $-1 $30 $-1 $31 #
body $-1 $32 $-1 $33 #
body $-1 $34 $-1 $35 #
body $-1 $36 $-1 $37 #
body $-1 $38 $-1 $39 #
body $-1 $40 $-1 $41 #
body $-1 $42 $-1 $43 #
body $-1 $44 $-1 $45 #
body $-1 $46 $-1 $47 #
body $-1 $48 $-1 $49 #
body $-1 $50 $-1 $51 #
body $-1 $52 $-1 $53 #
lump $-1 $-1 $54 $0 #
transform $-1 1 0 0 0 1 0 0 0 1 49.171422467726678 20.508176240445973 5.4206751793230552 1 rotate no_reflect no_shear #
lump $-1 $-1 $55 $1 #
transform $-1 1 0 0 0 1 0 0 0 1 49.171422467726678 20.508176240445973 5.4206751793230552 1 rotate no_reflect no_shear #
lump $-1 $-1 $56 $2 #
transform $-1 1 0 0 0 1 0 0 0 1 49.171422467726678 20.508176240445973 5.4206751793230552 1 rotate no_reflect no_shear #
lump $-1 $-1 $57 $3 #
transform $-1 1 0 0 0 1 0 0 0 1 49.171422467726678 20.508176240445973 5.4206751793230552 1 rotate no_reflect no_shear #
lump $-1 $-1 $58 $4 #
transform $-1 1 0 0 0 1 0 0 0 1 49.171422467726678 20.508176240445973 5.4206751793230552 1 rotate no_reflect no_shear #
lump $-1 $-1 $59 $5 #
transform $-1 1 0 0 0 1 0 0 0 1 49.171422467726678 20.508176240445973 5.4206751793230552 1 rotate no_reflect no_shear #
lump $-1 $-1 $60 $6 #
transform $-1 1 0 0 0 1 0 0 0 1 49.171422467726678 20.508176240445973 5.4206751793230552 1 rotate no_reflect no_shear #
lump $-1 $-1 $61 $7 #
transform $-1 1 0 0 0 1 0 0 0 1 49.171422467726678 20.508176240445973 5.4206751793230552 1 rotate no_reflect no_shear #
lump $-1 $-1 $62 $8 #
transform $-1 1 0 0 0 1 0 0 0 1 49.171422467726678 20.508176240445973 5.4206751793230552 1 rotate no_reflect no_shear #
lump $-1 $-1 $63 $9 #
transform $-1 1 0 0 0 1 0 0 0 1 49.171422467726678 20.508176240445973 5.4206751793230552 1 rotate no_reflect no_shear #
lump $-1 $-1 $64 $10 #
transform $-1 1 0 0 0 1 0 0 0 1 49.171422467726678 20.508176240445973 5.4206751793230552 1 rotate no_reflect no_shear #
lump $-1 $-1 $65 $11 #
transform $-1 1 0 0 0 1 0 0 0 1 49.171422467726678 20.508176240445973 5.4206751793230552 1 rotate no_reflect no_shear #
lump $-1 $-1 $66 $12 #
transform $-1 1 0 0 0 1 0 0 0 1 49.171422467726678 20.508176240445973 5.4206751793230552 1 rotate no_reflect no_shear #
lump $-1 $-1 $67 $13 #
transform $-1 1 0 0 0 1 0 0 0 1 49.171422467726678 20.508176240445973 5.4206751793230552 1 rotate no_reflect no_shear #
lump $-1 $-1 $68 $14 #
transform $-1 1 0 0 0 1 0 0 0 1 49.171422467726678 20.508176240445973 5.4206751793230552 1 rotate no_reflect no_shear #
lump $-1 $-1 $69 $15 #
transform $-1 1 0 0 0 1 0 0 0 1 49.171422467726678 20.508176240445973 5.4206751793230552 1 rotate no_reflect no_shear #
lump $-1 $-1 $70 $16 #
transform $-1 1 0 0 0 1 0 0 0 1 49.171422467726678 20.508176240445973 5.4206751793230552 1 rotate no_reflect no_shear #
lump $-1 $-1 $71 $17 #
transform $-1 1 0 0 0 1 0 0 0 1 49.171422467726678 20.508176240445973 5.4206751793230552 1 rotate no_reflect no_shear #
shell $-1 $-1 $-1 $72 $-1 $18 #
shell $-1 $-1 $-1 $73 $-1 $20 #
shell $-1 $-1 $-1 $74 $-1 $22 #
shell $-1 $-1 $-1 $75 $-1 $24 #
shell $-1 $-1 $-1 $76 $-1 $26 #
shell $-1 $-1 $-1 $77 $-1 $28 #
shell $-1 $-1 $-1 $78 $-1 $30 #
shell $-1 $-1 $-1 $79 $-1 $32 #
shell $-1 $-1 $-1 $80 $-1 $34 #
shell $-1 $-1 $-1 $81 $-1 $36 #
shell $-1 $-1 $-1 $82 $-1 $38 #
shell $-1 $-1 $-1 $83 $-1 $40 #
shell $-1 $-1 $-1 $84 $-1 $42 #
shell $-1 $-1 $-1 $85 $-1 $44 #
shell $-1 $-1 $-1 $86 $-1 $46 #
shell $-1 $-1 $-1 $87 $-1 $48 #
shell $-1 $-1 $-1 $88 $-1 $50 #
shell $-1 $-1 $-1 $89 $-1 $52 #
face $-1 $90 $91 $54 $-1 $92 forward single #
face $-1 $93 $94 $55 $-1 $95 forward single #
face $-1 $96 $97 $56 $-1 $98 reversed single #
face $-1 $99 $100 $57 $-1 $101 forward single #
face $-1 $102 $103 $58 $-1 $104 forward single #
face $-1 $105 $106 $59 $-1 $107 forward single #
face $-1 $108 $109 $60 $-1 $110 reversed single #
face $-1 $111 $112 $61 $-1 $113 forward single #
face $-1 $114 $115 $62 $-1 $116 forward single #
face $-1 $117 $118 $63 $-1 $119 forward single #
face $-1 $120 $121 $64 $-1 $122 reversed single #
face $-1 $123 $124 $65 $-1 $125 forward single #
face $-1 $126 $127 $66 $-1 $128 forward single #
face $-1 $129 $130 $67 $-1 $131 forward single #
face $-1 $132 $133 $68 $-1 $134 reversed single #
face $-1 $135 $136 $69 $-1 $137 forward single #
face $-1 $138 $139 $70 $-1 $140 forward single #
face $-1 $141 $142 $71 $-1 $143 forward single #
face $-1 $144 $145 $54 $-1 $146 reversed single #
loop $-1 $-1 $147 $72 #
plane-surface $-1 0 0 5.4206751793230552 0 0 1 1 0 0 forward_v I I I I #
face $-1 $148 $149 $55 $-1 $150 reversed single #
loop $-1 $-1 $151 $73 #
plane-surface $-1 -45.74041151429391 0 -2.4206751793230552 0 0 1 1 0 0 forward_v I I I I #
face $-1 $152 $153 $56 $-1 $154 reversed single #
loop $-1 $-1 $155 $74 #
plane-surface $-1 -31.80730482943234 80.646320513520322 88.405879814198997 1 0 0 0 -0.83867057594974714 -0.54463902268945019 forward_v I I I I #
face $-1 $156 $157 $57 $-1 $158 forward single #
loop $-1 $159 $160 $75 #
cone-surface $-1 -28.894558997780809 17.660901652887503 2.1330849276402892 0 -0.83867057594974714 -0.54463902268945019 1 0 0 1 I I 0 1 1 forward I I I I #
face $-1 $161 $162 $58 $-1 $163 forward single #
loop $-1 $164 $165 $76 #
cone-surface $-1 -24.525440250303514 17.660901652887503 2.1330849276402892 0 -0.83867057594974714 -0.54463902268945019 1 0 0 1 I I 0 1 1 forward I I I I #
face $-1 $166 $167 $59 $-1 $168 forward single #
loop $-1 $169 $170 $77 #
cone-surface $-1 -20.15632150282622 17.660901652887503 2.1330849276402892 0 -0.83867057594974714 -0.54463902268945019 1 0 0 1 I I 0 1 1 forward I I I I #
face $-1 $171 $172 $60 $-1 $173 reversed single #
loop $-1 $-1 $174 $78 #
plane-surface $-1 13.933106684861574 80.646320513520322 88.405879814198997 1 0 0 0 -0.83867057594974714 -0.54463902268945019 forward_v I I I I #
face $-1 $175 $176 $61 $-1 $177 forward single #
loop $-1 $178 $179 $79 #
cone-surface $-1 16.845852516513098 17.660901652887503 2.1330849276402892 0 -0.83867057594974714 -0.54463902268945019 1 0 0 1 I I 0 1 1 forward I I I I #
face $-1 $180 $181 $62 $-1 $182 forward single #
loop $-1 $183 $184 $80 #
cone-surface $-1 21.2149712639904 17.660901652887503 2.1330849276402892 0 -0.83867057594974714 -0.54463902268945019 1 0 0 1 I I 0 1 1 forward I I I I #
face $-1 $185 $186 $63 $-1 $187 forward single #
loop $-1 $188 $189 $81 #
cone-surface $-1 25.584090011467687 17.660901652887503 2.1330849276402892 0 -0.83867057594974714 -0.54463902268945019 1 0 0 1 I I 0 1 1 forward I I I I #
face $-1 $190 $191 $64 $-1 $192 reversed single #
loop $-1 $-1 $193 $82 #
plane-surface $-1 -17.243575671174689 -102.98542664299933 54.006671855691515 -1 0 0 0 -0.83867057594974714 0.54463902268945019 forward_v I I I I #
face $-1 $194 $195 $65 $-1 $196 forward single #
loop $-1 $197 $198 $83 #
cone-surface $-1 -28.894558997780809 -17.660901652887503 2.1330849276402839 0 0.83867057594974714 -0.54463902268945019 1 0 0 1 I I 0 1 1 forward I I I I #
face $-1 $199 $200 $66 $-1 $201 forward single #
loop $-1 $202 $203 $84 #
cone-surface $-1 -24.525440250303514 -17.660901652887503 2.1330849276402839 0 0.83867057594974714 -0.54463902268945019 1 0 0 1 I I 0 1 1 forward I I I I #
face $-1 $204 $205 $67 $-1 $206 forward single #
loop $-1 $207 $208 $85 #
cone-surface $-1 -20.15632150282622 -17.660901652887503 2.1330849276402839 0 0.83867057594974714 -0.54463902268945019 1 0 0 1 I I 0 1 1 forward I I I I #
face $-1 $209 $210 $68 $-1 $211 reversed single #
loop $-1 $-1 $212 $86 #
plane-surface $-1 28.496835843119225 -102.98542664299933 54.006671855691515 -1 0 0 0 -0.83867057594974714 0.54463902268945019 forward_v I I I I #
face $-1 $213 $214 $69 $-1 $215 forward single #
loop $-1 $216 $217 $87 #
cone-surface $-1 16.845852516513098 -17.660901652887503 2.1330849276402839 0 0.83867057594974714 -0.54463902268945019 1 0 0 1 I I 0 1 1 forward I I I I #
face $-1 $218 $219 $70 $-1 $220 forward single #
loop $-1 $221 $222 $88 #
cone-surface $-1 21.2149712639904 -17.660901652887503 2.1330849276402839 0 0.83867057594974714 -0.54463902268945019 1 0 0 1 I I 0 1 1 forward I I I I #
face $-1 $223 $224 $71 $-1 $225 forward single #
loop $-1 $226 $227 $89 #
cone-surface $-1 25.584090011467687 -17.660901652887503 2.1330849276402839 0 0.83867057594974714 -0.54463902268945019 1 0 0 1 I I 0 1 1 forward I I I I #
face $-1 $228 $229 $54 $-1 $230 reversed single #
loop $-1 $-1 $231 $90 #
plane-surface $-1 0 0 -5.4206751793230552 0 0 1 1 0 0 forward_v I I I I #
coedge $-1 $232 $233 $234 $235 forward $91 $-1 #
face $-1 $236 $237 $55 $-1 $238 reversed single #
loop $-1 $-1 $239 $93 #
plane-surface $-1 -42.309400560861143 0 -3.9206751793230552 -1 0 0 0 0 1 forward_v I I I I #
coedge $-1 $240 $241 $242 $243 forward $94 $-1 #
face $-1 $244 $245 $56 $-1 $246 reversed single #
loop $-1 $-1 $247 $96 #
plane-surface $-1 -24.525440250303514 -1.8309298890330155 34.844528860053536 0 0.83867057594974714 0.54463902268945019 1 0 0 forward_v I I I I #
coedge $-1 $248 $249 $250 $251 reversed $97 $-1 #
face $-1 $-1 $252 $57 $-1 $253 forward single #
loop $-1 $254 $255 $99 #
cone-surface $-1 -28.894558997780809 16.009808148793315 1.0608523035012958 0 -0.83867057594974714 -0.54463902268945019 0.5 0 0 1 I I -0.70710678118654746 0.70710678118654746 0.5 forward I I I I #
loop $-1 $-1 $256 $75 #
coedge $-1 $160 $160 $257 $258 reversed $100 $-1 #
face $-1 $-1 $259 $58 $-1 $260 forward single #
loop $-1 $261 $262 $102 #
cone-surface $-1 -24.525440250303514 16.009808148793315 1.0608523035012958 0 -0.83867057594974714 -0.54463902268945019 0.5 0 0 1 I I -0.70710678118654746 0.70710678118654746 0.5 forward I I I I #
loop $-1 $-1 $263 $76 #
coedge $-1 $165 $165 $264 $265 reversed $103 $-1 #
face $-1 $-1 $266 $59 $-1 $267 forward single #
loop $-1 $268 $269 $105 #
cone-surface $-1 -20.15632150282622 16.009808148793315 1.0608523035012958 0 -0.83867057594974714 -0.54463902268945019 0.5 0 0 1 I I -0.70710678118654746 0.70710678118654746 0.5 forward I I I I #
loop $-1 $-1 $270 $77 #
coedge $-1 $170 $170 $271 $272 reversed $106 $-1 #
face $-1 $273 $274 $60 $-1 $275 reversed single #
loop $-1 $-1 $276 $108 #
plane-surface $-1 21.2149712639904 -1.8309298890330155 34.844528860053536 0 0.83867057594974714 0.54463902268945019 1 0 0 forward_v I I I I #
coedge $-1 $277 $278 $279 $280 reversed $109 $-1 #
face $-1 $-1 $281 $61 $-1 $282 forward single #
loop $-1 $283 $284 $111 #
cone-surface $-1 16.845852516513098 16.009808148793315 1.0608523035012958 0 -0.83867057594974714 -0.54463902268945019 0.5 0 0 1 I I -0.70710678118654746 0.70710678118654746 0.5 forward I I I I #
loop $-1 $-1 $285 $79 #
coedge $-1 $179 $179 $286 $287 reversed $112 $-1 #
face $-1 $-1 $288 $62 $-1 $289 forward single #
loop $-1 $290 $291 $114 #
cone-surface $-1 21.2149712639904 16.009808148793315 1.0608523035012958 0 -0.83867057594974714 -0.54463902268945019 0.5 0 0 1 I I -0.70710678118654746 0.70710678118654746 0.5 forward I I I I #
loop $-1 $-1 $292 $80 #
coedge $-1 $184 $184 $293 $294 reversed $115 $-1 #
face $-1 $-1 $295 $63 $-1 $296 forward single #
loop $-1 $297 $298 $117 #
cone-surface $-1 25.584090011467687 16.009808148793315 1.0608523035012958 0 -0.83867057594974714 -0.54463902268945019 0.5 0 0 1 I I -0.70710678118654746 0.70710678118654746 0.5 forward I I I I #
loop $-1 $-1 $299 $81 #
coedge $-1 $189 $189 $300 $301 reversed $118 $-1 #
face $-1 $302 $303 $64 $-1 $304 reversed single #
loop $-1 $-1 $305 $120 #
plane-surface $-1 -24.525440250303514 -20.508176240445991 0.44532090154605442 0 -0.83867057594974714 0.54463902268945019 1 0 0 forward_v I I I I #
coedge $-1 $306 $307 $308 $309 reversed $121 $-1 #
face $-1 $-1 $310 $65 $-1 $311 forward single #
loop $-1 $312 $313 $123 #
cone-surface $-1 -28.894558997780809 -16.009808148793315 1.0608523035012905 0 0.83867057594974714 -0.54463902268945019 0.5 0 0 1 I I -0.70710678118654746 0.70710678118654746 0.5 forward I I I I #
loop $-1 $-1 $314 $83 #
coedge $-1 $198 $198 $315 $316 reversed $124 $-1 #
face $-1 $-1 $317 $66 $-1 $318 forward single #
loop $-1 $319 $320 $126 #
cone-surface $-1 -24.525440250303514 -16.009808148793315 1.0608523035012905 0 0.83867057594974714 -0.54463902268945019 0.5 0 0 1 I I -0.70710678118654746 0.70710678118654746 0.5 forward I I I I #
loop $-1 $-1 $321 $84 #
coedge $-1 $203 $203 $322 $323 reversed $127 $-1 #
face $-1 $-1 $324 $67 $-1 $325 forward single #
loop $-1 $326 $327 $129 #
cone-surface $-1 -20.15632150282622 -16.009808148793315 1.0608523035012905 0 0.83867057594974714 -0.54463902268945019 0.5 0 0 1 I I -0.70710678118654746 0.70710678118654746 0.5 forward I I I I #
loop $-1 $-1 $328 $85 #
coedge $-1 $208 $208 $329 $330 reversed $130 $-1 #
face $-1 $331 $332 $68 $-1 $333 reversed single #
loop $-1 $-1 $334 $132 #
plane-surface $-1 21.2149712639904 -20.508176240445991 0.44532090154605442 0 -0.83867057594974714 0.54463902268945019 1 0 0 forward_v I I I I #
coedge $-1 $335 $336 $337 $338 reversed $133 $-1 #
face $-1 $-1 $339 $69 $-1 $340 forward single #
loop $-1 $341 $342 $135 #
cone-surface $-1 16.845852516513098 -16.009808148793315 1.0608523035012905 0 0.83867057594974714 -0.54463902268945019 0.5 0 0 1 I I -0.70710678118654746 0.70710678118654746 0.5 forward I I I I #
loop $-1 $-1 $343 $87 #
coedge $-1 $217 $217 $344 $345 reversed $136 $-1 #
face $-1 $-1 $346 $70 $-1 $347 forward single #
loop $-1 $348 $349 $138 #
cone-surface $-1 21.2149712639904 -16.009808148793315 1.0608523035012905 0 0.83867057594974714 -0.54463902268945019 0.5 0 0 1 I I -0.70710678118654746 0.70710678118654746 0.5 forward I I I I #
loop $-1 $-1 $350 $88 #
coedge $-1 $222 $222 $351 $352 reversed $139 $-1 #
face $-1 $-1 $353 $71 $-1 $354 forward single #
loop $-1 $355 $356 $141 #
cone-surface $-1 25.584090011467687 -16.009808148793315 1.0608523035012905 0 0.83867057594974714 -0.54463902268945019 0.5 0 0 1 I I -0.70710678118654746 0.70710678118654746 0.5 forward I I I I #
loop $-1 $-1 $357 $89 #
coedge $-1 $227 $227 $358 $359 reversed $142 $-1 #
face $-1 $360 $361 $54 $-1 $362 reversed single #
loop $-1 $-1 $363 $144 #
plane-surface $-1 0 -20.508176240445973 0 0 1 0 0 0 1 forward_v I I I I #
coedge $-1 $364 $365 $366 $367 forward $145 $-1 #
coedge $-1 $368 $147 $369 $370 forward $91 $-1 #
coedge $-1 $147 $368 $371 $372 forward $91 $-1 #
coedge $-1 $373 $374 $147 $235 reversed $375 $-1 #
edge $-1 $376 -20.508176240445973 $377 20.508176240445973 $234 $378 forward 7 unknown #
face $-1 $379 $380 $55 $-1 $381 reversed single #
loop $-1 $-1 $382 $148 #
plane-surface $-1 0 0 -5.4206751793230552 0 0 1 1 0 0 forward_v I I I I #
coedge $-1 $383 $242 $384 $385 reversed $149 $-1 #
coedge $-1 $386 $151 $387 $388 reversed $94 $-1 #
coedge $-1 $151 $386 $389 $390 reversed $94 $-1 #
coedge $-1 $239 $391 $151 $243 reversed $149 $-1 #
edge $-1 $392 -20.508176240445973 $393 20.508176240445973 $242 $394 forward 7 unknown #
face $-1 $395 $396 $56 $-1 $397 reversed single #
loop $-1 $-1 $398 $152 #
plane-surface $-1 -17.243575671174689 80.646320513520322 88.405879814198997 -1 0 0 0 0.83867057594974714 0.54463902268945019 forward_v I I I I #
coedge $-1 $399 $400 $401 $402 reversed $153 $-1 #
coedge $-1 $249 $155 $403 $404 reversed $97 $-1 #
coedge $-1 $155 $248 $399 $405 reversed $97 $-1 #
coedge $-1 $401 $406 $155 $251 forward $407 $-1 #
edge $-1 $408 19.814984016314188 $409 23.046016759192494 $250 $410 forward 7 unknown #
loop $-1 $-1 $257 $156 #
plane-surface $-1 -24.525440250303514 -1.8309298890330155 34.844528860053536 0 0.83867057594974714 0.54463902268945019 1 0 0 forward_v I I I I #
loop $-1 $-1 $411 $99 #
coedge $-1 $255 $255 $256 $412 reversed $157 $-1 #
coedge $-1 $256 $256 $255 $412 forward $159 $-1 #
coedge $-1 $257 $257 $160 $258 forward $252 $-1 #
edge $-1 $413 3.7244455339802019e-016 $413 6.2831853071796004 $257 $414 forward 7 unknown #
loop $-1 $-1 $264 $161 #
plane-surface $-1 -24.525440250303514 -1.8309298890330155 34.844528860053536 0 0.83867057594974714 0.54463902268945019 1 0 0 forward_v I I I I #
loop $-1 $-1 $415 $102 #
coedge $-1 $262 $262 $263 $416 reversed $162 $-1 #
coedge $-1 $263 $263 $262 $416 forward $164 $-1 #
coedge $-1 $264 $264 $165 $265 forward $259 $-1 #
edge $-1 $417 3.7244455339802019e-016 $417 6.2831853071796004 $264 $418 forward 7 unknown #
loop $-1 $-1 $271 $166 #
plane-surface $-1 -24.525440250303514 -1.8309298890330155 34.844528860053536 0 0.83867057594974714 0.54463902268945019 1 0 0 forward_v I I I I #
loop $-1 $-1 $419 $105 #
coedge $-1 $269 $269 $270 $420 reversed $167 $-1 #
coedge $-1 $270 $270 $269 $420 forward $169 $-1 #
coedge $-1 $271 $271 $170 $272 forward $266 $-1 #
edge $-1 $421 3.7244455339802019e-016 $421 6.2831853071796004 $271 $422 forward 7 unknown #
face $-1 $423 $424 $60 $-1 $425 forward single #
loop $-1 $-1 $426 $171 #
plane-surface $-1 28.496835843119225 80.646320513520322 88.405879814198997 -1 0 0 0 0.83867057594974714 0.54463902268945019 forward_v I I I I #
coedge $-1 $427 $428 $429 $430 reversed $172 $-1 #
coedge $-1 $278 $174 $431 $432 reversed $109 $-1 #
coedge $-1 $174 $277 $427 $433 reversed $109 $-1 #
coedge $-1 $429 $434 $174 $280 forward $424 $-1 #
edge $-1 $435 19.814984016314188 $436 23.046016759192494 $279 $437 forward 7 unknown #
loop $-1 $-1 $286 $175 #
plane-surface $-1 21.2149712639904 -1.8309298890330155 34.844528860053536 0 0.83867057594974714 0.54463902268945019 1 0 0 forward_v I I I I #
loop $-1 $-1 $438 $111 #
coedge $-1 $284 $284 $285 $439 reversed $176 $-1 #
coedge $-1 $285 $285 $284 $439 forward $178 $-1 #
coedge $-1 $286 $286 $179 $287 forward $281 $-1 #
edge $-1 $440 3.7244455339802019e-016 $440 6.2831853071796004 $286 $441 forward 7 unknown #
loop $-1 $-1 $293 $180 #
plane-surface $-1 21.2149712639904 -1.8309298890330155 34.844528860053536 0 0.83867057594974714 0.54463902268945019 1 0 0 forward_v I I I I #
loop $-1 $-1 $442 $114 #
coedge $-1 $291 $291 $292 $443 reversed $181 $-1 #
coedge $-1 $292 $292 $291 $443 forward $183 $-1 #
coedge $-1 $293 $293 $184 $294 forward $288 $-1 #
edge $-1 $444 3.7244455339802019e-016 $444 6.2831853071796004 $293 $445 forward 7 unknown #
loop $-1 $-1 $300 $185 #
plane-surface $-1 21.2149712639904 -1.8309298890330155 34.844528860053536 0 0.83867057594974714 0.54463902268945019 1 0 0 forward_v I I I I #
loop $-1 $-1 $446 $117 #
coedge $-1 $298 $298 $299 $447 reversed $186 $-1 #
coedge $-1 $299 $299 $298 $447 forward $188 $-1 #
coedge $-1 $300 $300 $189 $301 forward $295 $-1 #
edge $-1 $448 3.7244455339802019e-016 $448 6.2831853071796004 $300 $449 forward 7 unknown #
face $-1 $450 $451 $64 $-1 $452 forward single #
loop $-1 $-1 $453 $190 #
plane-surface $-1 -31.80730482943234 -102.98542664299933 54.006671855691515 1 0 0 0 0.83867057594974714 -0.54463902268945019 forward_v I I I I #
coedge $-1 $454 $455 $456 $457 reversed $191 $-1 #
coedge $-1 $307 $193 $458 $459 reversed $121 $-1 #
coedge $-1 $193 $306 $454 $460 reversed $121 $-1 #
coedge $-1 $456 $461 $193 $309 forward $451 $-1 #
edge $-1 $462 30.984537081053691 $463 34.215569823931979 $308 $464 forward 7 unknown #
loop $-1 $-1 $315 $194 #
plane-surface $-1 -24.525440250303514 -20.508176240445991 0.44532090154605442 0 -0.83867057594974714 0.54463902268945019 1 0 0 forward_v I I I I #
loop $-1 $-1 $465 $123 #
coedge $-1 $313 $313 $314 $466 reversed $195 $-1 #
coedge $-1 $314 $314 $313 $466 forward $197 $-1 #
coedge $-1 $315 $315 $198 $316 forward $310 $-1 #
edge $-1 $467 1.4809523548302879e-015 $467 6.2831853071796022 $315 $468 forward 7 unknown #
loop $-1 $-1 $322 $199 #
plane-surface $-1 -24.525440250303514 -20.508176240445991 0.44532090154605442 0 -0.83867057594974714 0.54463902268945019 1 0 0 forward_v I I I I #
loop $-1 $-1 $469 $126 #
coedge $-1 $320 $320 $321 $470 reversed $200 $-1 #
coedge $-1 $321 $321 $320 $470 forward $202 $-1 #
coedge $-1 $322 $322 $203 $323 forward $317 $-1 #
edge $-1 $471 1.4809523548302879e-015 $471 6.2831853071796022 $322 $472 forward 7 unknown #
loop $-1 $-1 $329 $204 #
plane-surface $-1 -24.525440250303514 -20.508176240445991 0.44532090154605442 0 -0.83867057594974714 0.54463902268945019 1 0 0 forward_v I I I I #
loop $-1 $-1 $473 $129 #
coedge $-1 $327 $327 $328 $474 reversed $205 $-1 #
coedge $-1 $328 $328 $327 $474 forward $207 $-1 #
coedge $-1 $329 $329 $208 $330 forward $324 $-1 #
edge $-1 $475 1.4809523548302879e-015 $475 6.2831853071796022 $329 $476 forward 7 unknown #
face $-1 $477 $478 $68 $-1 $479 reversed single #
loop $-1 $-1 $480 $209 #
plane-surface $-1 13.933106684861574 -102.98542664299933 54.006671855691515 1 0 0 0 0.83867057594974714 -0.54463902268945019 forward_v I I I I #
coedge $-1 $481 $482 $483 $484 reversed $210 $-1 #
coedge $-1 $336 $212 $485 $486 reversed $133 $-1 #
coedge $-1 $212 $335 $481 $487 reversed $133 $-1 #
coedge $-1 $483 $488 $212 $338 forward $489 $-1 #
edge $-1 $490 30.984537081053691 $491 34.215569823931979 $337 $492 forward 7 unknown #
loop $-1 $-1 $344 $213 #
plane-surface $-1 21.2149712639904 -20.508176240445991 0.44532090154605442 0 -0.83867057594974714 0.54463902268945019 1 0 0 forward_v I I I I #
loop $-1 $-1 $493 $135 #
coedge $-1 $342 $342 $343 $494 reversed $214 $-1 #
coedge $-1 $343 $343 $342 $494 forward $216 $-1 #
coedge $-1 $344 $344 $217 $345 forward $339 $-1 #
edge $-1 $495 1.4809523548302879e-015 $495 6.2831853071796022 $344 $496 forward 7 unknown #
loop $-1 $-1 $351 $218 #
plane-surface $-1 21.2149712639904 -20.508176240445991 0.44532090154605442 0 -0.83867057594974714 0.54463902268945019 1 0 0 forward_v I I I I #
loop $-1 $-1 $497 $138 #
coedge $-1 $349 $349 $350 $498 reversed $219 $-1 #
coedge $-1 $350 $350 $349 $498 forward $221 $-1 #
coedge $-1 $351 $351 $222 $352 forward $346 $-1 #
edge $-1 $499 1.4809523548302879e-015 $499 6.2831853071796022 $351 $500 forward 7 unknown #
loop $-1 $-1 $358 $223 #
plane-surface $-1 21.2149712639904 -20.508176240445991 0.44532090154605442 0 -0.83867057594974714 0.54463902268945019 1 0 0 forward_v I I I I #
loop $-1 $-1 $501 $141 #
coedge $-1 $356 $356 $357 $502 reversed $224 $-1 #
coedge $-1 $357 $357 $356 $502 forward $226 $-1 #
coedge $-1 $358 $358 $227 $359 forward $353 $-1 #
edge $-1 $503 1.4809523548302879e-015 $503 6.2831853071796022 $358 $504 forward 7 unknown #
face $-1 $505 $506 $54 $-1 $507 reversed single #
loop $-1 $-1 $508 $228 #
plane-surface $-1 -49.171422467726678 0 0 1 0 0 0 0 -1 forward_v I I I I #
coedge $-1 $509 $371 $510 $511 forward $229 $-1 #
coedge $-1 $512 $231 $509 $513 forward $145 $-1 #
coedge $-1 $231 $512 $514 $515 forward $145 $-1 #
coedge $-1 $374 $373 $231 $367 reversed $375 $-1 #
edge $-1 $516 -20.508176240445973 $517 20.508176240445973 $366 $518 forward 7 unknown #
coedge $-1 $233 $232 $519 $520 forward $91 $-1 #
coedge $-1 $521 $522 $232 $370 reversed $506 $-1 #
edge $-1 $377 -49.171422467726678 $523 49.171422467726678 $369 $524 forward 7 unknown #
coedge $-1 $363 $525 $233 $372 reversed $229 $-1 #
edge $-1 $526 -49.171422467726678 $376 49.171422467726678 $371 $527 forward 7 unknown #
coedge $-1 $366 $234 $525 $528 forward $375 $-1 #
coedge $-1 $234 $366 $521 $529 reversed $375 $-1 #
loop $-1 $-1 $373 $505 #
vertex $-1 $235 $530 #
vertex $-1 $235 $531 #
straight-curve $-1 49.171422467726678 0 5.4206751793230552 0 1 0 I I #
face $-1 $532 $533 $55 $-1 $534 reversed single #
loop $-1 $-1 $384 $236 #
plane-surface $-1 0 -20.508176240445973 0 0 1 0 0 0 1 forward_v I I I I #
coedge $-1 $535 $536 $383 $537 forward $237 $-1 #
coedge $-1 $391 $239 $382 $537 reversed $149 $-1 #
coedge $-1 $389 $538 $239 $385 forward $380 $-1 #
edge $-1 $539 -3.4603375896615276 $392 -0.4603375896615276 $384 $540 forward 7 unknown #
coedge $-1 $241 $240 $541 $542 reversed $94 $-1 #
coedge $-1 $543 $544 $240 $388 forward $545 $-1 #
edge $-1 $546 -26.301216710579723 $393 -19.439194803714187 $387 $547 forward 7 unknown #
coedge $-1 $548 $384 $241 $390 forward $380 $-1 #
edge $-1 $392 19.439194803714187 $549 26.301216710579723 $389 $550 forward 7 unknown #
coedge $-1 $242 $383 $543 $551 reversed $149 $-1 #
vertex $-1 $390 $552 #
vertex $-1 $388 $553 #
straight-curve $-1 -42.309400560861143 0 -2.4206751793230552 0 1 0 I I #
face $-1 $-1 $407 $56 $-1 $554 forward single #
loop $-1 $-1 $555 $244 #
plane-surface $-1 0 20.508176240445973 0 0 -1 0 0 0 -1 forward_v I I I I #
coedge $-1 $556 $557 $558 $559 reversed $245 $-1 #
coedge $-1 $560 $247 $249 $405 forward $153 $-1 #
coedge $-1 $247 $560 $556 $561 forward $153 $-1 #
coedge $-1 $558 $250 $247 $402 forward $407 $-1 #
edge $-1 $409 -19.544584704280581 $562 -4.9808555460229318 $401 $563 forward 7 unknown #
coedge $-1 $564 $565 $248 $404 forward $396 $-1 #
edge $-1 $566 -43.757619005553437 $408 -38.782264727776443 $403 $567 forward 7 unknown #
edge $-1 $409 35.083922727835805 $566 41.016352480891932 $249 $568 forward 7 unknown #
coedge $-1 $250 $558 $564 $569 forward $407 $-1 #
loop $-1 $-1 $558 $395 #
vertex $-1 $404 $570 #
vertex $-1 $251 $571 #
straight-curve $-1 -31.80730482943234 40.323160256760161 5.4206751793230552 0 -1 0 I I #
coedge $-1 $411 $411 $-1 $572 reversed $254 $-1 #
edge $-1 $573 0 $573 6.2831853071796004 $255 $574 forward 7 unknown #
vertex $-1 $258 $575 #
ellipse-curve $-1 -28.894558997780809 18.892659869006817 2.9329980404345579 0 0.83867057594974714 0.54463902268945019 1 0 0 1 I I #
coedge $-1 $415 $415 $-1 $576 reversed $261 $-1 #
edge $-1 $577 0 $577 6.2831853071796004 $262 $578 forward 7 unknown #
vertex $-1 $265 $579 #
ellipse-curve $-1 -24.525440250303514 18.892659869006817 2.9329980404345579 0 0.83867057594974714 0.54463902268945019 1 0 0 1 I I #
coedge $-1 $419 $419 $-1 $580 reversed $268 $-1 #
edge $-1 $581 0 $581 6.2831853071796004 $269 $582 forward 7 unknown #
vertex $-1 $272 $583 #
ellipse-curve $-1 -20.15632150282622 18.892659869006817 2.9329980404345579 0 0.83867057594974714 0.54463902268945019 1 0 0 1 I I #
face $-1 $-1 $584 $60 $-1 $585 reversed single #
loop $-1 $-1 $279 $273 #
plane-surface $-1 0 0 5.4206751793230552 0 0 1 1 0 0 forward_v I I I I #
coedge $-1 $586 $587 $588 $589 reversed $274 $-1 #
coedge $-1 $590 $276 $278 $433 forward $172 $-1 #
coedge $-1 $276 $590 $586 $591 forward $172 $-1 #
coedge $-1 $588 $279 $276 $430 forward $424 $-1 #
edge $-1 $436 3.3256210528663743 $592 17.889350211124025 $429 $593 forward 7 unknown #
coedge $-1 $594 $595 $277 $432 forward $584 $-1 #
edge $-1 $596 -43.757619005553437 $435 -38.782264727776443 $431 $597 forward 7 unknown #
edge $-1 $436 35.083922727835805 $596 41.016352480891932 $278 $598 forward 7 unknown #
coedge $-1 $279 $588 $594 $599 forward $424 $-1 #
vertex $-1 $280 $600 #
vertex $-1 $280 $601 #
straight-curve $-1 13.933106684861574 40.323160256760161 5.4206751793230552 0 -1 0 I I #
coedge $-1 $438 $438 $-1 $602 reversed $283 $-1 #
edge $-1 $603 0 $603 6.2831853071796004 $284 $604 forward 7 unknown #
vertex $-1 $287 $605 #
ellipse-curve $-1 16.845852516513098 18.892659869006817 2.9329980404345579 0 0.83867057594974714 0.54463902268945019 1 0 0 1 I I #
coedge $-1 $442 $442 $-1 $606 reversed $290 $-1 #
edge $-1 $607 0 $607 6.2831853071796004 $291 $608 forward 7 unknown #
vertex $-1 $294 $609 #
ellipse-curve $-1 21.2149712639904 18.892659869006817 2.9329980404345579 0 0.83867057594974714 0.54463902268945019 1 0 0 1 I I #
coedge $-1 $446 $446 $-1 $610 reversed $297 $-1 #
edge $-1 $611 0 $611 6.2831853071796004 $298 $612 forward 7 unknown #
vertex $-1 $301 $613 #
ellipse-curve $-1 25.584090011467687 18.892659869006817 2.9329980404345579 0 0.83867057594974714 0.54463902268945019 1 0 0 1 I I #
face $-1 $-1 $614 $64 $-1 $615 reversed single #
loop $-1 $-1 $308 $302 #
plane-surface $-1 0 0 5.4206751793230552 0 0 1 1 0 0 forward_v I I I I #
coedge $-1 $616 $617 $618 $619 reversed $303 $-1 #
coedge $-1 $620 $305 $307 $460 forward $191 $-1 #
coedge $-1 $305 $620 $616 $621 forward $191 $-1 #
coedge $-1 $618 $308 $305 $457 forward $451 $-1 #
edge $-1 $463 4.9808555460229318 $622 19.544584704280581 $456 $623 forward 7 unknown #
coedge $-1 $624 $625 $306 $459 forward $614 $-1 #
edge $-1 $626 -26.558015026299675 $462 -21.582660748522702 $458 $627 forward 7 unknown #
edge $-1 $463 -5.9324297530561294 $626 -3.2626628132739722e-014 $307 $628 forward 7 unknown #
coedge $-1 $308 $618 $624 $629 forward $451 $-1 #
vertex $-1 $309 $630 #
vertex $-1 $309 $631 #
straight-curve $-1 -17.243575671174689 -51.492713321499664 5.4206751793230552 0 1 0 I I #
coedge $-1 $465 $465 $-1 $632 reversed $312 $-1 #
edge $-1 $633 0 $633 6.2831853071796004 $313 $634 forward 7 unknown #
vertex $-1 $316 $635 #
ellipse-curve $-1 -28.894558997780809 -18.892659869006835 2.9329980404345619 0 -0.83867057594974714 0.54463902268945019 1 0 0 1 I I #
coedge $-1 $469 $469 $-1 $636 reversed $319 $-1 #
edge $-1 $637 0 $637 6.2831853071796004 $320 $638 forward 7 unknown #
vertex $-1 $323 $639 #
ellipse-curve $-1 -24.525440250303514 -18.892659869006835 2.9329980404345619 0 -0.83867057594974714 0.54463902268945019 1 0 0 1 I I #
coedge $-1 $473 $473 $-1 $640 reversed $326 $-1 #
edge $-1 $641 0 $641 6.2831853071796004 $327 $642 forward 7 unknown #
vertex $-1 $330 $643 #
ellipse-curve $-1 -20.15632150282622 -18.892659869006835 2.9329980404345619 0 -0.83867057594974714 0.54463902268945019 1 0 0 1 I I #
face $-1 $-1 $489 $68 $-1 $644 forward single #
loop $-1 $-1 $645 $331 #
plane-surface $-1 0 -20.508176240445973 0 0 1 0 0 0 1 forward_v I I I I #
coedge $-1 $646 $647 $648 $649 reversed $332 $-1 #
coedge $-1 $650 $334 $336 $487 forward $210 $-1 #
coedge $-1 $334 $650 $646 $651 forward $210 $-1 #
coedge $-1 $648 $337 $334 $484 forward $489 $-1 #
edge $-1 $491 -17.889350211124025 $652 -3.3256210528663743 $483 $653 forward 7 unknown #
coedge $-1 $654 $655 $335 $486 forward $478 $-1 #
edge $-1 $656 -26.558015026299675 $490 -21.582660748522702 $485 $657 forward 7 unknown #
edge $-1 $491 -5.9324297530561294 $656 -3.2626628132739722e-014 $336 $658 forward 7 unknown #
coedge $-1 $337 $648 $654 $659 forward $489 $-1 #
loop $-1 $-1 $648 $477 #
vertex $-1 $486 $660 #
vertex $-1 $338 $661 #
straight-curve $-1 28.496835843119225 -51.492713321499664 5.4206751793230552 0 1 0 I I #
coedge $-1 $493 $493 $-1 $662 reversed $341 $-1 #
edge $-1 $663 0 $663 6.2831853071796004 $342 $664 forward 7 unknown #
vertex $-1 $345 $665 #
ellipse-curve $-1 16.845852516513098 -18.892659869006835 2.9329980404345619 0 -0.83867057594974714 0.54463902268945019 1 0 0 1 I I #
coedge $-1 $497 $497 $-1 $666 reversed $348 $-1 #
edge $-1 $667 0 $667 6.2831853071796004 $349 $668 forward 7 unknown #
vertex $-1 $352 $669 #
ellipse-curve $-1 21.2149712639904 -18.892659869006835 2.9329980404345619 0 -0.83867057594974714 0.54463902268945019 1 0 0 1 I I #
coedge $-1 $501 $501 $-1 $670 reversed $355 $-1 #
edge $-1 $671 0 $671 6.2831853071796004 $356 $672 forward 7 unknown #
vertex $-1 $359 $673 #
ellipse-curve $-1 25.584090011467687 -18.892659869006835 2.9329980404345619 0 -0.83867057594974714 0.54463902268945019 1 0 0 1 I I #
face $-1 $-1 $375 $54 $-1 $674 reversed single #
loop $-1 $-1 $521 $360 #
plane-surface $-1 0 20.508176240445973 0 0 -1 0 0 0 -1 forward_v I I I I #
coedge $-1 $675 $519 $522 $676 forward $361 $-1 #
coedge $-1 $525 $363 $364 $513 reversed $229 $-1 #
coedge $-1 $519 $675 $363 $511 reversed $361 $-1 #
edge $-1 $526 -5.4206751793230552 $677 5.4206751793230552 $510 $678 forward 7 unknown #
coedge $-1 $365 $364 $675 $679 forward $145 $-1 #
edge $-1 $517 -49.171422467726678 $677 49.171422467726678 $509 $680 forward 7 unknown #
coedge $-1 $522 $521 $365 $515 reversed $506 $-1 #
edge $-1 $681 -49.171422467726678 $516 49.171422467726678 $514 $682 forward 7 unknown #
vertex $-1 $367 $683 #
vertex $-1 $528 $684 #
straight-curve $-1 49.171422467726678 0 -5.4206751793230552 0 -1 0 I I #
coedge $-1 $508 $510 $368 $520 reversed $361 $-1 #
edge $-1 $523 -20.508176240445973 $526 20.508176240445973 $519 $685 forward 7 unknown #
coedge $-1 $514 $369 $374 $529 forward $506 $-1 #
coedge $-1 $369 $514 $508 $676 reversed $506 $-1 #
vertex $-1 $370 $686 #
straight-curve $-1 0 20.508176240445973 5.4206751793230552 -1 0 0 I I #
coedge $-1 $371 $509 $373 $528 reversed $229 $-1 #
vertex $-1 $520 $687 #
straight-curve $-1 0 -20.508176240445973 5.4206751793230552 1 0 0 I I #
edge $-1 $376 -5.4206751793230552 $517 5.4206751793230552 $373 $688 forward 7 unknown #
edge $-1 $377 -5.4206751793230552 $516 5.4206751793230552 $374 $689 forward 7 unknown #
point $-1 49.171422467726678 -20.508176240445973 5.4206751793230552 #
point $-1 49.171422467726678 20.508176240445973 5.4206751793230552 #
face $-1 $-1 $545 $55 $-1 $690 reversed single #
loop $-1 $-1 $541 $379 #
plane-surface $-1 -49.171422467726678 0 0 1 0 0 0 0 -1 forward_v I I I I #
coedge $-1 $691 $382 $538 $692 forward $237 $-1 #
coedge $-1 $382 $691 $693 $694 forward $237 $-1 #
edge $-1 $695 -20.508176240445973 $539 20.508176240445973 $382 $696 forward 7 unknown #
coedge $-1 $384 $548 $535 $692 reversed $380 $-1 #
vertex $-1 $692 $697 #
straight-curve $-1 -42.309400560861143 -20.508176240445973 -1.9603375896615276 0 0 1 I I #
coedge $-1 $698 $699 $386 $542 forward $533 $-1 #
edge $-1 $549 -20.508176240445973 $546 20.508176240445973 $541 $700 forward 7 unknown #
coedge $-1 $693 $387 $391 $551 forward $545 $-1 #
coedge $-1 $387 $693 $698 $701 reversed $545 $-1 #
loop $-1 $-1 $543 $532 #
vertex $-1 $701 $702 #
straight-curve $-1 -22.870205757146955 20.508176240445973 -2.4206751793230552 1 0 0 I I #
coedge $-1 $538 $389 $699 $703 forward $380 $-1 #
vertex $-1 $703 $704 #
straight-curve $-1 -22.870205757146955 -20.508176240445973 -2.4206751793230552 -1 0 0 I I #
edge $-1 $393 0.4603375896615276 $695 3.4603375896615276 $543 $705 forward 7 unknown #
point $-1 -42.309400560861143 -20.508176240445973 -2.4206751793230552 #
point $-1 -42.309400560861143 20.508176240445973 -2.4206751793230552 #
plane-surface $-1 0 0 5.4206751793230552 0 0 1 1 0 0 forward_v I I I I #
coedge $-1 $565 $564 $557 $706 forward $396 $-1 #
coedge $-1 $557 $398 $400 $561 reversed $245 $-1 #
coedge $-1 $398 $556 $555 $706 reversed $245 $-1 #
coedge $-1 $406 $401 $398 $559 forward $407 $-1 #
edge $-1 $562 -23.046016759192494 $707 -19.814984016314188 $558 $708 forward 7 unknown #
coedge $-1 $400 $399 $565 $709 reversed $153 $-1 #
edge $-1 $710 -41.016352480891932 $562 -35.083922727835805 $556 $711 forward 7 unknown #
vertex $-1 $402 $712 #
straight-curve $-1 -12.262720125151757 17.277143497567668 5.4206751793230552 1 0 0 I I #
coedge $-1 $555 $403 $406 $569 reversed $396 $-1 #
coedge $-1 $403 $555 $560 $709 forward $396 $-1 #
vertex $-1 $404 $713 #
straight-curve $-1 -31.80730482943234 20.508176240445973 44.202939907099498 0 0 1 I I #
straight-curve $-1 -31.80730482943234 -1.8309298890330155 34.844528860053536 0 0.54463902268945019 -0.83867057594974714 I I #
edge $-1 $707 17.243575671174689 $408 31.80730482943234 $564 $714 forward 7 unknown #
point $-1 -31.80730482943234 20.508176240445973 5.4206751793230552 #
point $-1 -31.80730482943234 17.277143497567668 5.4206751793230588 #
edge $-1 $715 1 $715 0 $411 $-1 forward 7 unknown #
vertex $-1 $412 $716 #
ellipse-curve $-1 -28.894558997780809 16.429143436768189 1.333171814846021 0 0.83867057594974714 0.54463902268945019 1 0 0 1 I I #
point $-1 -27.894558997780809 18.892659869006817 2.9329980404345575 #
edge $-1 $717 1 $717 0 $415 $-1 forward 7 unknown #
vertex $-1 $416 $718 #
ellipse-curve $-1 -24.525440250303514 16.429143436768189 1.333171814846021 0 0.83867057594974714 0.54463902268945019 1 0 0 1 I I #
point $-1 -23.525440250303514 18.892659869006817 2.9329980404345575 #
edge $-1 $719 1 $719 0 $419 $-1 forward 7 unknown #
vertex $-1 $420 $720 #
ellipse-curve $-1 -20.15632150282622 16.429143436768189 1.333171814846021 0 0.83867057594974714 0.54463902268945019 1 0 0 1 I I #
point $-1 -19.15632150282622 18.892659869006817 2.9329980404345575 #
loop $-1 $-1 $431 $423 #
plane-surface $-1 0 20.508176240445973 0 0 -1 0 0 0 -1 forward_v I I I I #
coedge $-1 $587 $426 $428 $591 reversed $274 $-1 #
coedge $-1 $426 $586 $721 $722 reversed $274 $-1 #
coedge $-1 $434 $429 $426 $589 forward $424 $-1 #
edge $-1 $592 -23.046016759192494 $723 -19.814984016314188 $588 $724 forward 7 unknown #
coedge $-1 $428 $427 $595 $725 reversed $172 $-1 #
edge $-1 $726 -41.016352480891932 $592 -35.083922727835805 $586 $727 forward 7 unknown #
vertex $-1 $430 $728 #
straight-curve $-1 10.6074856319952 17.277143497567668 5.4206751793230552 1 0 0 I I #
coedge $-1 $721 $431 $434 $599 reversed $584 $-1 #
coedge $-1 $431 $721 $590 $725 forward $584 $-1 #
vertex $-1 $432 $729 #
straight-curve $-1 13.933106684861574 20.508176240445973 44.202939907099498 0 0 1 I I #
straight-curve $-1 13.933106684861574 -1.8309298890330155 34.844528860053536 0 0.54463902268945019 -0.83867057594974714 I I #
edge $-1 $723 -28.496835843119225 $435 -13.933106684861574 $594 $730 forward 7 unknown #
point $-1 13.933106684861574 20.508176240445973 5.4206751793230552 #
point $-1 13.933106684861574 17.277143497567668 5.4206751793230588 #
edge $-1 $731 1 $731 0 $438 $-1 forward 7 unknown #
vertex $-1 $439 $732 #
ellipse-curve $-1 16.845852516513098 16.429143436768189 1.333171814846021 0 0.83867057594974714 0.54463902268945019 1 0 0 1 I I #
point $-1 17.845852516513098 18.892659869006817 2.9329980404345575 #
edge $-1 $733 1 $733 0 $442 $-1 forward 7 unknown #
vertex $-1 $443 $734 #
ellipse-curve $-1 21.2149712639904 16.429143436768189 1.333171814846021 0 0.83867057594974714 0.54463902268945019 1 0 0 1 I I #
point $-1 22.2149712639904 18.892659869006817 2.9329980404345575 #
edge $-1 $735 1 $735 0 $446 $-1 forward 7 unknown #
vertex $-1 $447 $736 #
ellipse-curve $-1 25.584090011467687 16.429143436768189 1.333171814846021 0 0.83867057594974714 0.54463902268945019 1 0 0 1 I I #
point $-1 26.584090011467687 18.892659869006817 2.9329980404345575 #
loop $-1 $-1 $458 $450 #
plane-surface $-1 0 -20.508176240445973 0 0 1 0 0 0 1 forward_v I I I I #
coedge $-1 $617 $453 $455 $621 reversed $303 $-1 #
coedge $-1 $453 $616 $737 $738 reversed $303 $-1 #
coedge $-1 $461 $456 $453 $619 forward $451 $-1 #
edge $-1 $622 -34.215569823931979 $739 -30.984537081053691 $618 $740 forward 7 unknown #
coedge $-1 $455 $454 $625 $741 reversed $191 $-1 #
edge $-1 $742 3.2626628132739722e-014 $622 5.9324297530561294 $616 $743 forward 7 unknown #
vertex $-1 $457 $744 #
straight-curve $-1 -12.262720125151757 -17.277143497567685 5.4206751793230552 -1 0 0 I I #
coedge $-1 $737 $458 $461 $629 reversed $614 $-1 #
coedge $-1 $458 $737 $620 $741 forward $614 $-1 #
vertex $-1 $459 $745 #
straight-curve $-1 -17.243575671174689 -20.508176240445977 27.003335927845757 0 0 1 I I #
straight-curve $-1 -17.243575671174689 -20.508176240445991 0.44532090154605442 0 -0.54463902268945019 -0.83867057594974714 I I #
edge $-1 $739 -31.80730482943234 $462 -17.243575671174689 $624 $746 forward 7 unknown #
point $-1 -17.243575671174689 -20.508176240445973 5.4206751793230552 #
point $-1 -17.243575671174689 -17.277143497567685 5.4206751793230552 #
edge $-1 $747 1 $747 0 $465 $-1 forward 7 unknown #
vertex $-1 $466 $748 #
ellipse-curve $-1 -28.894558997780809 -16.429143436768189 1.3331718148460157 0 -0.83867057594974714 0.54463902268945019 1 0 0 1 I I #
point $-1 -27.894558997780809 -18.892659869006817 2.9329980404345521 #
edge $-1 $749 1 $749 0 $469 $-1 forward 7 unknown #
vertex $-1 $470 $750 #
ellipse-curve $-1 -24.525440250303514 -16.429143436768189 1.3331718148460157 0 -0.83867057594974714 0.54463902268945019 1 0 0 1 I I #
point $-1 -23.525440250303514 -18.892659869006817 2.9329980404345521 #
edge $-1 $751 1 $751 0 $473 $-1 forward 7 unknown #
vertex $-1 $474 $752 #
ellipse-curve $-1 -20.15632150282622 -16.429143436768189 1.3331718148460157 0 -0.83867057594974714 0.54463902268945019 1 0 0 1 I I #
point $-1 -19.15632150282622 -18.892659869006817 2.9329980404345521 #
plane-surface $-1 0 0 5.4206751793230552 0 0 1 1 0 0 forward_v I I I I #
coedge $-1 $655 $654 $647 $753 forward $478 $-1 #
coedge $-1 $647 $480 $482 $651 reversed $332 $-1 #
coedge $-1 $480 $646 $645 $753 reversed $332 $-1 #
coedge $-1 $488 $483 $480 $649 forward $489 $-1 #
edge $-1 $652 -34.215569823931979 $754 -30.984537081053691 $648 $755 forward 7 unknown #
coedge $-1 $482 $481 $655 $756 reversed $210 $-1 #
edge $-1 $757 3.2626628132739722e-014 $652 5.9324297530561294 $646 $758 forward 7 unknown #
vertex $-1 $484 $759 #
straight-curve $-1 10.6074856319952 -17.277143497567685 5.4206751793230552 -1 0 0 I I #
coedge $-1 $645 $485 $488 $659 reversed $478 $-1 #
coedge $-1 $485 $645 $650 $756 forward $478 $-1 #
vertex $-1 $486 $760 #
straight-curve $-1 28.496835843119225 -20.508176240445977 27.003335927845757 0 0 1 I I #
straight-curve $-1 28.496835843119225 -20.508176240445991 0.44532090154605442 0 -0.54463902268945019 -0.83867057594974714 I I #
edge $-1 $754 13.933106684861574 $490 28.496835843119225 $654 $761 forward 7 unknown #
point $-1 28.496835843119225 -20.508176240445973 5.4206751793230552 #
point $-1 28.496835843119225 -17.277143497567685 5.4206751793230552 #
edge $-1 $762 1 $762 0 $493 $-1 forward 7 unknown #
vertex $-1 $494 $763 #
ellipse-curve $-1 16.845852516513098 -16.429143436768189 1.3331718148460157 0 -0.83867057594974714 0.54463902268945019 1 0 0 1 I I #
point $-1 17.845852516513098 -18.892659869006817 2.9329980404345521 #
edge $-1 $764 1 $764 0 $497 $-1 forward 7 unknown #
vertex $-1 $498 $765 #
ellipse-curve $-1 21.2149712639904 -16.429143436768189 1.3331718148460157 0 -0.83867057594974714 0.54463902268945019 1 0 0 1 I I #
point $-1 22.2149712639904 -18.892659869006817 2.9329980404345521 #
edge $-1 $766 1 $766 0 $501 $-1 forward 7 unknown #
vertex $-1 $502 $767 #
ellipse-curve $-1 25.584090011467687 -16.429143436768189 1.3331718148460157 0 -0.83867057594974714 0.54463902268945019 1 0 0 1 I I #
point $-1 26.584090011467687 -18.892659869006817 2.9329980404345521 #
plane-surface $-1 49.171422467726678 0 0 -1 0 0 0 0 1 forward_v I I I I #
coedge $-1 $510 $508 $512 $679 reversed $361 $-1 #
edge $-1 $523 -5.4206751793230552 $681 5.4206751793230552 $522 $768 forward 7 unknown #
vertex $-1 $679 $769 #
straight-curve $-1 -49.171422467726678 -20.508176240445973 0 0 0 -1 I I #
edge $-1 $677 -20.508176240445973 $681 20.508176240445973 $675 $770 forward 7 unknown #
straight-curve $-1 0 -20.508176240445973 -5.4206751793230552 -1 0 0 I I #
vertex $-1 $515 $771 #
straight-curve $-1 0 20.508176240445973 -5.4206751793230552 1 0 0 I I #
point $-1 49.171422467726678 20.508176240445973 -5.4206751793230552 #
point $-1 49.171422467726678 -20.508176240445973 -5.4206751793230552 #
straight-curve $-1 -49.171422467726678 0 5.4206751793230552 0 -1 0 I I #
point $-1 -49.171422467726678 20.508176240445973 5.4206751793230552 #
point $-1 -49.171422467726678 -20.508176240445973 5.4206751793230552 #
straight-curve $-1 49.171422467726678 -20.508176240445973 0 0 0 -1 I I #
straight-curve $-1 49.171422467726678 20.508176240445973 0 0 0 -1 I I #
plane-surface $-1 0 20.508176240445973 0 0 -1 0 0 0 -1 forward_v I I I I #
coedge $-1 $536 $535 $772 $773 forward $237 $-1 #
edge $-1 $539 42.309400560861143 $774 49.171422467726678 $538 $775 forward 7 unknown #
coedge $-1 $544 $543 $536 $694 reversed $545 $-1 #
edge $-1 $776 -49.171422467726678 $695 -42.309400560861143 $693 $777 forward 7 unknown #
vertex $-1 $551 $778 #
straight-curve $-1 -42.309400560861143 0 -5.4206751793230552 0 -1 0 I I #
point $-1 -42.309400560861143 -20.508176240445973 -5.4206751793230552 #
coedge $-1 $772 $541 $544 $701 forward $533 $-1 #
coedge $-1 $541 $772 $548 $703 reversed $533 $-1 #
straight-curve $-1 -49.171422467726678 0 -2.4206751793230552 0 1 0 I I #
edge $-1 $546 2.4206751793230552 $776 5.4206751793230552 $544 $779 forward 7 unknown #
point $-1 -49.171422467726678 20.508176240445973 -2.4206751793230552 #
edge $-1 $549 2.4206751793230552 $774 5.4206751793230552 $699 $780 forward 7 unknown #
point $-1 -49.171422467726678 -20.508176240445973 -2.4206751793230552 #
straight-curve $-1 -42.309400560861143 20.508176240445973 -1.9603375896615276 0 0 -1 I I #
edge $-1 $707 38.782264727776443 $710 43.757619005553437 $555 $781 forward 7 unknown #
vertex $-1 $569 $782 #
straight-curve $-1 -17.243575671174689 40.323160256760161 5.4206751793230552 0 1 0 I I #
edge $-1 $710 4.9808555460229318 $566 19.544584704280581 $565 $783 forward 7 unknown #
vertex $-1 $709 $784 #
straight-curve $-1 -17.243575671174689 -1.8309298890330155 34.844528860053536 0 -0.54463902268945019 0.83867057594974714 I I #
point $-1 -17.243575671174689 17.277143497567668 5.4206751793230588 #
point $-1 -31.80730482943234 20.508176240445973 0.44532090154606152 #
straight-curve $-1 0 20.508176240445973 5.4206751793230552 -1 0 0 I I #
vertex $-1 $572 $785 #
point $-1 -27.894558997780809 16.429143436768189 1.333171814846021 #
vertex $-1 $576 $786 #
point $-1 -23.525440250303514 16.429143436768189 1.333171814846021 #
vertex $-1 $580 $787 #
point $-1 -19.15632150282622 16.429143436768189 1.333171814846021 #
coedge $-1 $595 $594 $587 $722 forward $584 $-1 #
edge $-1 $723 38.782264727776443 $726 43.757619005553437 $721 $788 forward 7 unknown #
vertex $-1 $599 $789 #
straight-curve $-1 28.496835843119225 40.323160256760161 5.4206751793230552 0 1 0 I I #
edge $-1 $726 -17.889350211124025 $596 -3.3256210528663743 $595 $790 forward 7 unknown #
vertex $-1 $725 $791 #
straight-curve $-1 28.496835843119225 -1.8309298890330155 34.844528860053536 0 -0.54463902268945019 0.83867057594974714 I I #
point $-1 28.496835843119225 17.277143497567668 5.4206751793230588 #
point $-1 13.933106684861574 20.508176240445973 0.44532090154606152 #
straight-curve $-1 0 20.508176240445973 5.4206751793230552 -1 0 0 I I #
vertex $-1 $602 $792 #
point $-1 17.845852516513098 16.429143436768189 1.333171814846021 #
vertex $-1 $606 $793 #
point $-1 22.2149712639904 16.429143436768189 1.333171814846021 #
vertex $-1 $610 $794 #
point $-1 26.584090011467687 16.429143436768189 1.333171814846021 #
coedge $-1 $625 $624 $617 $738 forward $614 $-1 #
edge $-1 $739 21.582660748522702 $742 26.558015026299675 $737 $795 forward 7 unknown #
vertex $-1 $629 $796 #
straight-curve $-1 -31.80730482943234 -51.492713321499664 5.4206751793230552 0 -1 0 I I #
edge $-1 $742 -19.544584704280581 $626 -4.9808555460229318 $625 $797 forward 7 unknown #
vertex $-1 $741 $798 #
straight-curve $-1 -31.80730482943234 -20.508176240445991 0.44532090154605442 0 0.54463902268945019 0.83867057594974714 I I #
point $-1 -31.80730482943234 -17.277143497567685 5.4206751793230552 #
point $-1 -17.243575671174689 -20.508176240445973 0.44532090154608178 #
straight-curve $-1 0 -20.508176240445973 5.4206751793230552 1 0 0 I I #
vertex $-1 $632 $799 #
point $-1 -27.894558997780809 -16.429143436768189 1.3331718148460157 #
vertex $-1 $636 $800 #
point $-1 -23.525440250303514 -16.429143436768189 1.3331718148460157 #
vertex $-1 $640 $801 #
point $-1 -19.15632150282622 -16.429143436768189 1.3331718148460157 #
edge $-1 $754 21.582660748522702 $757 26.558015026299675 $645 $802 forward 7 unknown #
vertex $-1 $659 $803 #
straight-curve $-1 13.933106684861574 -51.492713321499664 5.4206751793230552 0 -1 0 I I #
edge $-1 $757 3.3256210528663743 $656 17.889350211124025 $655 $804 forward 7 unknown #
vertex $-1 $756 $805 #
straight-curve $-1 13.933106684861574 -20.508176240445991 0.44532090154605442 0 0.54463902268945019 0.83867057594974714 I I #
point $-1 13.933106684861574 -17.277143497567685 5.4206751793230552 #
point $-1 28.496835843119225 -20.508176240445973 0.44532090154608178 #
straight-curve $-1 0 -20.508176240445973 5.4206751793230552 1 0 0 I I #
vertex $-1 $662 $806 #
point $-1 17.845852516513098 -16.429143436768189 1.3331718148460157 #
vertex $-1 $666 $807 #
point $-1 22.2149712639904 -16.429143436768189 1.3331718148460157 #
vertex $-1 $670 $808 #
point $-1 26.584090011467687 -16.429143436768189 1.3331718148460157 #
straight-curve $-1 -49.171422467726678 20.508176240445973 0 0 0 -1 I I #
point $-1 -49.171422467726678 -20.508176240445973 -5.4206751793230552 #
straight-curve $-1 -49.171422467726678 0 -5.4206751793230552 0 1 0 I I #
point $-1 -49.171422467726678 20.508176240445973 -5.4206751793230552 #
coedge $-1 $699 $698 $691 $773 reversed $533 $-1 #
edge $-1 $774 -20.508176240445973 $776 20.508176240445973 $772 $809 forward 7 unknown #
vertex $-1 $773 $810 #
straight-curve $-1 0 -20.508176240445973 -5.4206751793230552 -1 0 0 I I #
vertex $-1 $694 $811 #
straight-curve $-1 0 20.508176240445973 -5.4206751793230552 1 0 0 I I #
point $-1 -42.309400560861143 20.508176240445973 -5.4206751793230552 #
straight-curve $-1 -49.171422467726678 20.508176240445973 0 0 0 -1 I I #
straight-curve $-1 -49.171422467726678 -20.508176240445973 0 0 0 -1 I I #
straight-curve $-1 -17.243575671174689 20.508176240445973 44.202939907099498 0 0 -1 I I #
point $-1 -17.243575671174689 20.508176240445973 5.4206751793230552 #
straight-curve $-1 -12.262720125151757 20.508176240445973 0.44532090154605442 -1 0 0 I I #
point $-1 -17.243575671174689 20.508176240445973 0.44532090154606152 #
point $-1 -28.894558997780809 15.590472860818441 0.78853279215657068 #
point $-1 -24.525440250303514 15.590472860818441 0.78853279215657068 #
point $-1 -20.15632150282622 15.590472860818441 0.78853279215657068 #
straight-curve $-1 28.496835843119225 20.508176240445973 44.202939907099498 0 0 -1 I I #
point $-1 28.496835843119225 20.508176240445973 5.4206751793230552 #
straight-curve $-1 10.6074856319952 20.508176240445973 0.44532090154605442 -1 0 0 I I #
point $-1 28.496835843119225 20.508176240445973 0.44532090154606152 #
point $-1 16.845852516513098 15.590472860818441 0.78853279215657068 #
point $-1 21.2149712639904 15.590472860818441 0.78853279215657068 #
point $-1 25.584090011467687 15.590472860818441 0.78853279215657068 #
straight-curve $-1 -31.80730482943234 -20.508176240445977 27.003335927845757 0 0 -1 I I #
point $-1 -31.80730482943234 -20.508176240445973 5.4206751793230552 #
straight-curve $-1 -12.262720125151757 -20.508176240445973 0.44532090154608533 1 0 0 I I #
point $-1 -31.80730482943234 -20.508176240445973 0.44532090154608178 #
point $-1 -28.894558997780809 -15.590472860818441 0.78853279215656535 #
point $-1 -24.525440250303514 -15.590472860818441 0.78853279215656535 #
point $-1 -20.15632150282622 -15.590472860818441 0.78853279215656535 #
straight-curve $-1 13.933106684861574 -20.508176240445977 27.003335927845757 0 0 -1 I I #
point $-1 13.933106684861574 -20.508176240445973 5.4206751793230552 #
straight-curve $-1 10.6074856319952 -20.508176240445973 0.44532090154608533 1 0 0 I I #
point $-1 13.933106684861574 -20.508176240445973 0.44532090154608178 #
point $-1 16.845852516513098 -15.590472860818441 0.78853279215656535 #
point $-1 21.2149712639904 -15.590472860818441 0.78853279215656535 #
point $-1 25.584090011467687 -15.590472860818441 0.78853279215656535 #
straight-curve $-1 -49.171422467726678 0 -5.4206751793230552 0 1 0 I I #
point $-1 -49.171422467726678 -20.508176240445973 -5.4206751793230552 #
point $-1 -49.171422467726678 20.508176240445973 -5.4206751793230552 #
End-of-ACIS-data 