500 0 8 0           
7 Unknown 11 ACIS 5.0 NT 24 Fri Mar 26 02:56:25 1999 
-1 9.9999999999999995e-007 1e-010 
body $-1 $8 $-1 $9 #
body $-1 $10 $-1 $11 #
body $-1 $12 $-1 $13 #
body $-1 $14 $-1 $15 #
body $-1 $16 $-1 $17 #
body $-1 $18 $-1 $19 #
body $-1 $20 $-1 $21 #
body $-1 $22 $-1 $23 #
lump $-1 $-1 $24 $0 #
transform $-1 1 0 0 0 1 0 0 0 1 53.201086458937347 37.075151499410637 11.138046703387507 1 rotate no_reflect no_shear #
lump $-1 $-1 $25 $1 #
transform $-1 1 0 0 0 1 0 0 0 1 53.201086458937347 37.075151499410637 11.138046703387507 1 rotate no_reflect no_shear #
lump $-1 $-1 $26 $2 #
transform $-1 1 0 0 0 1 0 0 0 1 53.201086458937347 37.075151499410637 11.138046703387507 1 rotate no_reflect no_shear #
lump $-1 $-1 $27 $3 #
transform $-1 1 0 0 0 1 0 0 0 1 53.201086458937347 37.075151499410637 11.138046703387507 1 rotate no_reflect no_shear #
lump $-1 $-1 $28 $4 #
transform $-1 1 0 0 0 1 0 0 0 1 53.201086458937347 37.075151499410637 11.138046703387507 1 rotate no_reflect no_shear #
lump $-1 $-1 $29 $5 #
transform $-1 1 0 0 0 1 0 0 0 1 53.201086458937347 37.075151499410637 11.138046703387507 1 rotate no_reflect no_shear #
lump $-1 $-1 $30 $6 #
transform $-1 1 0 0 0 1 0 0 0 1 53.201086458937347 37.075151499410637 11.138046703387507 1 rotate no_reflect no_shear #
lump $-1 $-1 $31 $7 #
transform $-1 1 0 0 0 1 0 0 0 1 53.201086458937347 37.075151499410637 11.138046703387507 1 rotate no_reflect no_shear #
shell $-1 $-1 $-1 $32 $-1 $8 #
shell $-1 $-1 $-1 $33 $-1 $10 #
shell $-1 $-1 $-1 $34 $-1 $12 #
shell $-1 $-1 $-1 $35 $-1 $14 #
shell $-1 $-1 $-1 $36 $-1 $16 #
shell $-1 $-1 $-1 $37 $-1 $18 #
shell $-1 $-1 $-1 $38 $-1 $20 #
shell $-1 $-1 $-1 $39 $-1 $22 #
face $-1 $40 $41 $24 $-1 $42 forward single #
face $-1 $43 $44 $25 $-1 $45 forward single #
face $-1 $46 $47 $26 $-1 $48 forward single #
face $-1 $49 $50 $27 $-1 $51 reversed single #
face $-1 $52 $53 $28 $-1 $54 forward single #
face $-1 $55 $56 $29 $-1 $57 reversed single #
face $-1 $58 $59 $30 $-1 $60 forward single #
face $-1 $61 $62 $31 $-1 $63 forward single #
face $-1 $64 $65 $24 $-1 $66 reversed single #
loop $-1 $-1 $67 $32 #
plane-surface $-1 0 0 11.138046703387507 0 0 1 1 0 0 forward_v I I I I #
face $-1 $68 $69 $25 $-1 $70 reversed single #
loop $-1 $-1 $71 $33 #
plane-surface $-1 0 -30.266843270445683 0.47750206352337976 0 0 1 1 0 0 forward_v I I I I #
face $-1 $72 $73 $26 $-1 $74 reversed single #
loop $-1 $-1 $75 $34 #
plane-surface $-1 0 30.266843270445676 0.47750206352337976 0 0 1 1 0 0 forward_v I I I I #
face $-1 $76 $77 $27 $-1 $78 reversed single #
loop $-1 $-1 $79 $35 #
plane-surface $-1 -139.28225345869072 8.4830559245732537 67.551566064690249 0 -1 0 0.80901700255871778 0 -0.5877852410284794 forward_v I I I I #
face $-1 $80 $81 $28 $-1 $82 forward single #
loop $-1 $83 $84 $36 #
cone-surface $-1 -50.497787053262343 4.4024136413573416 7.7273347402093648 0.80901700255871778 0 -0.5877852410284794 0.5877852410284794 0 0.80901700255871778 1 I I 0 1 1 forward I I I I #
face $-1 $85 $86 $29 $-1 $87 reversed single #
loop $-1 $-1 $88 $37 #
plane-surface $-1 40.086293100753686 13.791990938929686 155.5378558168442 0 1 0 0.64278761758704617 0 0.76604443648966558 forward_v I I I I #
face $-1 $89 $90 $30 $-1 $91 forward single #
loop $-1 $92 $93 $38 #
cone-surface $-1 49.600593007543793 16.553860682515698 8.0035331268135668 -0.64278761758704617 0 -0.76604443648966558 0.38302221824483279 0 -0.32139380879352308 1 I I 0 1 0.5 forward I I I I #
face $-1 $94 $95 $31 $-1 $96 forward single #
loop $-1 $97 $98 $39 #
cone-surface $-1 49.600593007543793 20.696665297894718 8.0035331268135668 -0.64278761758704617 0 -0.76604443648966558 0.38302221824483279 0 -0.32139380879352308 1 I I 0 1 0.5 forward I I I I #
face $-1 $99 $100 $24 $-1 $101 reversed single #
loop $-1 $-1 $102 $40 #
plane-surface $-1 0 0 -11.138046703387507 0 0 1 1 0 0 forward_v I I I I #
coedge $-1 $103 $104 $105 $106 forward $41 $-1 #
face $-1 $107 $108 $25 $-1 $109 reversed single #
loop $-1 $-1 $110 $43 #
plane-surface $-1 0 -30.266843270445683 -2.5547578144709018 0 0 1 1 0 0 forward_v I I I I #
coedge $-1 $111 $112 $113 $114 reversed $44 $-1 #
face $-1 $115 $116 $26 $-1 $117 reversed single #
loop $-1 $-1 $118 $46 #
plane-surface $-1 0 30.266843270445676 -2.5547578144709018 0 0 1 1 0 0 forward_v I I I I #
coedge $-1 $119 $120 $121 $122 reversed $47 $-1 #
face $-1 $123 $124 $27 $-1 $125 reversed single #
loop $-1 $-1 $126 $49 #
plane-surface $-1 -53.201086458937354 4.4024136413573416 5.0099392102033278 -0.80901700255871778 0 0.5877852410284794 0.5877852410284794 0 0.80901700255871778 forward_v I I I I #
coedge $-1 $127 $128 $129 $130 reversed $50 $-1 #
face $-1 $-1 $131 $28 $-1 $132 forward single #
loop $-1 $133 $134 $52 #
cone-surface $-1 -49.616144436121076 4.4024136413573416 7.0867839031090671 0.80901700255871778 0 -0.5877852410284794 0.2938926205142397 0 0.40450850127935889 1 I I -0.70710678118654746 0.70710678118654746 0.5 forward I I I I #
loop $-1 $-1 $135 $36 #
coedge $-1 $84 $84 $136 $137 reversed $53 $-1 #
face $-1 $138 $139 $29 $-1 $140 reversed single #
loop $-1 $-1 $141 $55 #
plane-surface $-1 -28.307706135211909 18.625262990205208 74.02906322269493 0.64278761758704617 0 0.76604443648966558 0.76604443648966558 0 -0.64278761758704617 forward_v I I I I #
coedge $-1 $142 $143 $144 $145 reversed $56 $-1 #
face $-1 $-1 $146 $30 $-1 $147 forward single #
loop $-1 $148 $149 $58 #
cone-surface $-1 49.118502294353512 16.553860682515698 7.4289997994463182 -0.64278761758704617 0 -0.76604443648966558 0.1915111091224164 0 -0.16069690439676154 1 I I -0.70710678118654746 0.70710678118654746 0.25 forward I I I I #
loop $-1 $-1 $150 $38 #
coedge $-1 $93 $93 $151 $152 reversed $59 $-1 #
face $-1 $-1 $153 $31 $-1 $154 forward single #
loop $-1 $155 $156 $61 #
cone-surface $-1 49.118502294353512 20.696665297894718 7.4289997994463182 -0.64278761758704617 0 -0.76604443648966558 0.1915111091224164 0 -0.16069690439676154 1 I I -0.70710678118654746 0.70710678118654746 0.25 forward I I I I #
loop $-1 $-1 $157 $39 #
coedge $-1 $98 $98 $158 $159 reversed $62 $-1 #
face $-1 $160 $161 $24 $-1 $162 reversed single #
loop $-1 $-1 $163 $64 #
plane-surface $-1 0 -37.075151499410637 0 0 1 0 0 0 1 forward_v I I I I #
coedge $-1 $164 $165 $166 $167 forward $65 $-1 #
coedge $-1 $168 $67 $169 $170 forward $41 $-1 #
coedge $-1 $67 $168 $171 $172 forward $41 $-1 #
coedge $-1 $173 $174 $67 $106 reversed $175 $-1 #
edge $-1 $176 -37.075151499410637 $177 37.075151499410637 $105 $178 forward 7 unknown #
face $-1 $179 $180 $25 $-1 $181 reversed single #
loop $-1 $-1 $182 $68 #
plane-surface $-1 0 -23.458535041480729 -1.038627875473761 0 -1 0 0 0 -1 forward_v I I I I #
coedge $-1 $183 $184 $185 $186 reversed $69 $-1 #
coedge $-1 $187 $71 $188 $189 forward $44 $-1 #
coedge $-1 $71 $187 $190 $191 reversed $44 $-1 #
coedge $-1 $192 $193 $71 $114 forward $194 $-1 #
edge $-1 $195 8.3251134062578878 $196 21.941729864187796 $113 $197 forward 7 unknown #
face $-1 $198 $199 $26 $-1 $200 reversed single #
loop $-1 $-1 $201 $72 #
plane-surface $-1 0 23.458535041480722 -1.038627875473761 0 1 0 0 0 1 forward_v I I I I #
coedge $-1 $202 $203 $204 $205 reversed $73 $-1 #
coedge $-1 $206 $75 $207 $208 reversed $47 $-1 #
coedge $-1 $75 $206 $209 $210 forward $47 $-1 #
coedge $-1 $211 $212 $75 $122 forward $199 $-1 #
edge $-1 $213 -21.941729864187792 $214 -8.3251134062578842 $121 $215 forward 7 unknown #
face $-1 $216 $217 $27 $-1 $218 reversed single #
loop $-1 $-1 $219 $76 #
plane-surface $-1 -139.28225345869072 0.32177135814142943 67.551566064690249 0 1 0 -0.80901700255871778 0 0.5877852410284794 forward_v I I I I #
coedge $-1 $220 $221 $222 $223 reversed $77 $-1 #
coedge $-1 $128 $79 $224 $225 reversed $50 $-1 #
coedge $-1 $79 $127 $220 $226 reversed $50 $-1 #
coedge $-1 $222 $227 $79 $130 forward $217 $-1 #
edge $-1 $228 22.637736328957615 $229 28.765843822141786 $129 $230 forward 7 unknown #
loop $-1 $-1 $136 $80 #
plane-surface $-1 -53.201086458937354 4.4024136413573416 5.0099392102033278 -0.80901700255871778 0 0.5877852410284794 0.5877852410284794 0 0.80901700255871778 forward_v I I I I #
loop $-1 $-1 $231 $52 #
coedge $-1 $134 $134 $135 $232 reversed $81 $-1 #
coedge $-1 $135 $135 $134 $232 forward $83 $-1 #
coedge $-1 $136 $136 $84 $137 forward $131 $-1 #
edge $-1 $233 0 $233 6.2831853071796004 $136 $234 forward 7 unknown #
face $-1 $235 $236 $29 $-1 $237 forward single #
loop $-1 $-1 $238 $85 #
plane-surface $-1 40.086293100753686 23.458535041480729 155.5378558168442 0 -1 0 -0.64278761758704617 0 -0.76604443648966558 forward_v I I I I #
coedge $-1 $239 $240 $241 $242 reversed $86 $-1 #
coedge $-1 $143 $88 $243 $244 reversed $56 $-1 #
coedge $-1 $88 $142 $239 $245 reversed $56 $-1 #
coedge $-1 $241 $246 $88 $145 forward $247 $-1 #
edge $-1 $248 66.630881205034598 $249 72.13386392169275 $144 $250 forward 7 unknown #
loop $-1 $-1 $151 $89 #
plane-surface $-1 -28.307706135211909 18.625262990205208 74.02906322269493 0.64278761758704617 0 0.76604443648966558 0.76604443648966558 0 -0.64278761758704617 forward_v I I I I #
loop $-1 $-1 $251 $58 #
coedge $-1 $149 $149 $150 $252 reversed $90 $-1 #
coedge $-1 $150 $150 $149 $252 forward $92 $-1 #
coedge $-1 $151 $151 $93 $152 forward $146 $-1 #
edge $-1 $253 0 $253 6.2831853071796004 $151 $254 forward 7 unknown #
loop $-1 $-1 $158 $94 #
plane-surface $-1 -28.307706135211909 18.625262990205208 74.02906322269493 0.64278761758704617 0 0.76604443648966558 0.76604443648966558 0 -0.64278761758704617 forward_v I I I I #
loop $-1 $-1 $255 $61 #
coedge $-1 $156 $156 $157 $256 reversed $95 $-1 #
coedge $-1 $157 $157 $156 $256 forward $97 $-1 #
coedge $-1 $158 $158 $98 $159 forward $153 $-1 #
edge $-1 $257 0 $257 6.2831853071796004 $158 $258 forward 7 unknown #
face $-1 $259 $260 $24 $-1 $261 reversed single #
loop $-1 $-1 $262 $99 #
plane-surface $-1 -53.201086458937347 0 0 1 0 0 0 0 -1 forward_v I I I I #
coedge $-1 $263 $171 $264 $265 forward $100 $-1 #
coedge $-1 $266 $102 $263 $267 forward $65 $-1 #
coedge $-1 $102 $266 $268 $269 forward $65 $-1 #
coedge $-1 $174 $173 $102 $167 reversed $175 $-1 #
edge $-1 $270 -37.075151499410637 $271 37.075151499410637 $166 $272 forward 7 unknown #
coedge $-1 $104 $103 $273 $274 forward $41 $-1 #
coedge $-1 $275 $276 $103 $170 reversed $260 $-1 #
edge $-1 $177 -53.201086458937347 $277 53.201086458937347 $169 $278 forward 7 unknown #
coedge $-1 $163 $279 $104 $172 reversed $100 $-1 #
edge $-1 $280 -53.201086458937347 $176 53.201086458937347 $171 $281 forward 7 unknown #
coedge $-1 $166 $105 $279 $282 forward $175 $-1 #
coedge $-1 $105 $166 $275 $283 reversed $175 $-1 #
loop $-1 $-1 $173 $259 #
vertex $-1 $106 $284 #
vertex $-1 $106 $285 #
straight-curve $-1 53.201086458937347 0 11.138046703387507 0 1 0 I I #
face $-1 $286 $287 $25 $-1 $288 reversed single #
loop $-1 $-1 $289 $107 #
plane-surface $-1 -53.201086458937347 0 0 1 0 0 0 0 -1 forward_v I I I I #
coedge $-1 $290 $188 $193 $291 reversed $108 $-1 #
coedge $-1 $292 $110 $293 $294 reversed $69 $-1 #
coedge $-1 $110 $292 $290 $295 forward $69 $-1 #
coedge $-1 $193 $192 $110 $186 forward $194 $-1 #
edge $-1 $296 -21.941729864187796 $297 -8.3251134062578878 $185 $298 forward 7 unknown #
coedge $-1 $112 $111 $289 $299 reversed $44 $-1 #
coedge $-1 $182 $300 $111 $189 reversed $108 $-1 #
edge $-1 $195 -53.201086458937347 $301 53.201086458937347 $188 $302 forward 7 unknown #
coedge $-1 $303 $304 $112 $191 forward $287 $-1 #
edge $-1 $196 -53.201086458937347 $305 53.201086458937347 $190 $306 forward 7 unknown #
coedge $-1 $185 $113 $304 $307 forward $194 $-1 #
coedge $-1 $113 $185 $182 $291 forward $194 $-1 #
loop $-1 $-1 $113 $286 #
vertex $-1 $114 $308 #
vertex $-1 $307 $309 #
straight-curve $-1 53.201086458937347 -15.133421635222842 0.47750206352337976 0 -1 0 I I #
face $-1 $310 $311 $26 $-1 $312 reversed single #
loop $-1 $-1 $121 $115 #
plane-surface $-1 53.201086458937347 0 0 -1 0 0 0 0 1 forward_v I I I I #
coedge $-1 $313 $209 $314 $315 reversed $116 $-1 #
coedge $-1 $316 $118 $313 $317 forward $73 $-1 #
coedge $-1 $118 $316 $318 $319 reversed $73 $-1 #
coedge $-1 $212 $211 $118 $205 forward $199 $-1 #
edge $-1 $320 8.3251134062578842 $321 21.941729864187792 $204 $322 forward 7 unknown #
coedge $-1 $120 $119 $323 $324 reversed $47 $-1 #
coedge $-1 $325 $326 $119 $208 forward $327 $-1 #
edge $-1 $328 -53.201086458937347 $213 53.201086458937347 $207 $329 forward 7 unknown #
coedge $-1 $201 $330 $120 $210 reversed $116 $-1 #
edge $-1 $331 -53.201086458937347 $214 53.201086458937347 $209 $332 forward 7 unknown #
coedge $-1 $204 $121 $330 $333 forward $199 $-1 #
coedge $-1 $121 $204 $325 $334 reversed $199 $-1 #
vertex $-1 $334 $335 #
vertex $-1 $122 $336 #
straight-curve $-1 53.201086458937347 15.133421635222838 0.47750206352337976 0 -1 0 I I #
face $-1 $-1 $337 $27 $-1 $338 forward single #
loop $-1 $-1 $129 $123 #
plane-surface $-1 -53.201086458937347 0 0 1 0 0 0 0 -1 forward_v I I I I #
coedge $-1 $339 $340 $341 $342 reversed $124 $-1 #
coedge $-1 $343 $126 $128 $226 forward $77 $-1 #
coedge $-1 $126 $343 $339 $344 forward $77 $-1 #
coedge $-1 $341 $129 $126 $223 forward $217 $-1 #
edge $-1 $229 -6.281849103894583 $345 1.8794354625372414 $222 $346 forward 7 unknown #
coedge $-1 $347 $348 $127 $225 forward $337 $-1 #
edge $-1 $349 -20.89237085003419 $228 -16.440040270408012 $224 $350 forward 7 unknown #
edge $-1 $229 1.2080531203272332e-014 $349 7.5747573583775294 $128 $351 forward 7 unknown #
coedge $-1 $129 $341 $347 $352 reversed $217 $-1 #
vertex $-1 $352 $353 #
vertex $-1 $130 $354 #
straight-curve $-1 -53.201086458937347 8.4830559245732537 33.775783032345124 0 0 -1 I I #
coedge $-1 $231 $231 $-1 $355 reversed $133 $-1 #
edge $-1 $356 0 $356 6.2831853071796004 $134 $357 forward 7 unknown #
vertex $-1 $137 $358 #
ellipse-curve $-1 -50.974921169124258 4.4024136413573416 8.0739929567954256 -0.80901700255871778 0 0.5877852410284794 0.5877852410284794 0 0.80901700255871778 1 I I #
face $-1 $-1 $247 $29 $-1 $359 reversed single #
loop $-1 $-1 $360 $138 #
plane-surface $-1 0 0 11.138046703387507 0 0 1 1 0 0 forward_v I I I I #
coedge $-1 $361 $362 $363 $364 reversed $139 $-1 #
coedge $-1 $365 $141 $143 $245 forward $86 $-1 #
coedge $-1 $141 $365 $361 $366 forward $86 $-1 #
coedge $-1 $363 $144 $141 $242 forward $247 $-1 #
edge $-1 $249 4.4793594438270823 $367 14.145903546378126 $241 $368 forward 7 unknown #
coedge $-1 $369 $370 $142 $244 forward $236 $-1 #
edge $-1 $371 26.599740623360514 $248 33.157939908560508 $243 $372 forward 7 unknown #
edge $-1 $249 -106.40217291787467 $371 -97.841051691993329 $143 $373 forward 7 unknown #
coedge $-1 $144 $363 $369 $374 reversed $247 $-1 #
loop $-1 $-1 $363 $235 #
vertex $-1 $374 $375 #
vertex $-1 $145 $376 #
straight-curve $-1 53.201086458937347 13.791990938929686 77.7689279084221 0 0 -1 I I #
coedge $-1 $251 $251 $-1 $377 reversed $148 $-1 #
edge $-1 $378 0 $378 6.2831853071796004 $149 $379 forward 7 unknown #
vertex $-1 $152 $380 #
ellipse-curve $-1 49.921986816337345 16.553860682515698 8.3865553450584329 0.64278761758704617 0 0.76604443648966558 0.38302221824483279 0 -0.32139380879352308 1 I I #
coedge $-1 $255 $255 $-1 $381 reversed $155 $-1 #
edge $-1 $382 0 $382 6.2831853071796004 $156 $383 forward 7 unknown #
vertex $-1 $159 $384 #
ellipse-curve $-1 49.921986816337345 20.696665297894718 8.3865553450584329 0.64278761758704617 0 0.76604443648966558 0.38302221824483279 0 -0.32139380879352308 1 I I #
face $-1 $-1 $175 $24 $-1 $385 reversed single #
loop $-1 $-1 $275 $160 #
plane-surface $-1 0 37.075151499410637 0 0 -1 0 0 0 -1 forward_v I I I I #
coedge $-1 $386 $273 $276 $387 forward $161 $-1 #
coedge $-1 $279 $163 $164 $267 reversed $100 $-1 #
coedge $-1 $273 $386 $163 $265 reversed $161 $-1 #
edge $-1 $280 -11.138046703387507 $388 11.138046703387507 $264 $389 forward 7 unknown #
coedge $-1 $165 $164 $386 $390 forward $65 $-1 #
edge $-1 $271 -53.201086458937347 $388 53.201086458937347 $263 $391 forward 7 unknown #
coedge $-1 $276 $275 $165 $269 reversed $260 $-1 #
edge $-1 $392 -53.201086458937347 $270 53.201086458937347 $268 $393 forward 7 unknown #
vertex $-1 $167 $394 #
vertex $-1 $282 $395 #
straight-curve $-1 53.201086458937347 0 -11.138046703387507 0 -1 0 I I #
coedge $-1 $262 $264 $168 $274 reversed $161 $-1 #
edge $-1 $277 -37.075151499410637 $280 37.075151499410637 $273 $396 forward 7 unknown #
coedge $-1 $268 $169 $174 $283 forward $260 $-1 #
coedge $-1 $169 $268 $262 $387 reversed $260 $-1 #
vertex $-1 $170 $397 #
straight-curve $-1 0 37.075151499410637 11.138046703387507 -1 0 0 I I #
coedge $-1 $171 $263 $173 $282 reversed $100 $-1 #
vertex $-1 $274 $398 #
straight-curve $-1 0 -37.075151499410637 11.138046703387507 1 0 0 I I #
edge $-1 $176 -11.138046703387507 $271 11.138046703387507 $173 $399 forward 7 unknown #
edge $-1 $177 -11.138046703387507 $270 11.138046703387507 $174 $400 forward 7 unknown #
point $-1 53.201086458937347 -37.075151499410637 11.138046703387507 #
point $-1 53.201086458937347 37.075151499410637 11.138046703387507 #
face $-1 $-1 $194 $25 $-1 $401 reversed single #
loop $-1 $-1 $190 $179 #
plane-surface $-1 0 -37.075151499410637 0 0 1 0 0 0 1 forward_v I I I I #
coedge $-1 $402 $403 $187 $299 forward $180 $-1 #
coedge $-1 $300 $182 $184 $295 reversed $108 $-1 #
edge $-1 $297 -2.0354438767340213 $195 0.99681600126026026 $193 $404 forward 7 unknown #
coedge $-1 $184 $183 $405 $406 reversed $69 $-1 #
coedge $-1 $304 $303 $183 $294 forward $287 $-1 #
edge $-1 $407 -53.201086458937347 $296 53.201086458937347 $293 $408 forward 7 unknown #
edge $-1 $409 -53.201086458937347 $297 53.201086458937347 $290 $410 forward 7 unknown #
vertex $-1 $294 $411 #
vertex $-1 $186 $412 #
straight-curve $-1 53.201086458937347 -15.133421635222842 -2.5547578144709018 0 1 0 I I #
edge $-1 $305 -21.941729864187796 $301 -8.3251134062578878 $289 $413 forward 7 unknown #
coedge $-1 $188 $290 $402 $414 reversed $108 $-1 #
vertex $-1 $299 $415 #
straight-curve $-1 0 -23.458535041480729 0.47750206352337976 -1 0 0 I I #
coedge $-1 $293 $190 $403 $416 forward $287 $-1 #
coedge $-1 $190 $293 $192 $307 reversed $287 $-1 #
vertex $-1 $416 $417 #
straight-curve $-1 0 -37.075151499410637 0.47750206352337976 -1 0 0 I I #
edge $-1 $196 -0.47750206352337976 $296 2.5547578144709018 $192 $418 forward 7 unknown #
point $-1 53.201086458937347 -23.458535041480729 0.47750206352337976 #
point $-1 53.201086458937347 -37.075151499410637 0.47750206352337976 #
face $-1 $-1 $327 $26 $-1 $419 reversed single #
loop $-1 $-1 $323 $198 #
plane-surface $-1 -53.201086458937347 0 0 1 0 0 0 0 -1 forward_v I I I I #
coedge $-1 $330 $201 $202 $317 reversed $116 $-1 #
coedge $-1 $323 $420 $201 $315 forward $311 $-1 #
edge $-1 $421 -2.0354438767340213 $331 0.99681600126026026 $314 $422 forward 7 unknown #
coedge $-1 $203 $202 $420 $423 reversed $73 $-1 #
edge $-1 $320 -53.201086458937347 $421 53.201086458937347 $313 $424 forward 7 unknown #
coedge $-1 $326 $325 $203 $319 forward $327 $-1 #
edge $-1 $321 -53.201086458937347 $425 53.201086458937347 $318 $426 forward 7 unknown #
vertex $-1 $205 $427 #
vertex $-1 $319 $428 #
straight-curve $-1 53.201086458937347 15.133421635222838 -2.5547578144709018 0 1 0 I I #
coedge $-1 $429 $314 $206 $324 forward $311 $-1 #
edge $-1 $331 8.3251134062578842 $328 21.941729864187792 $323 $430 forward 7 unknown #
coedge $-1 $318 $207 $212 $334 forward $327 $-1 #
coedge $-1 $207 $318 $429 $431 reversed $327 $-1 #
loop $-1 $-1 $207 $310 #
vertex $-1 $431 $432 #
straight-curve $-1 0 37.075151499410637 0.47750206352337976 1 0 0 I I #
coedge $-1 $209 $313 $211 $333 reversed $116 $-1 #
vertex $-1 $324 $433 #
straight-curve $-1 0 23.458535041480722 0.47750206352337976 1 0 0 I I #
edge $-1 $214 -0.99681600126026026 $320 2.0354438767340213 $211 $434 forward 7 unknown #
edge $-1 $213 -0.47750206352337976 $321 2.5547578144709018 $212 $435 forward 7 unknown #
point $-1 53.201086458937347 37.07515149941063 0.47750206352337976 #
point $-1 53.201086458937347 23.458535041480722 0.47750206352337976 #
loop $-1 $-1 $224 $216 #
plane-surface $-1 0 0 11.138046703387507 0 0 1 1 0 0 forward_v I I I I #
coedge $-1 $340 $219 $221 $344 reversed $124 $-1 #
coedge $-1 $219 $339 $436 $437 reversed $124 $-1 #
coedge $-1 $227 $222 $219 $342 forward $217 $-1 #
edge $-1 $345 -28.765843822141786 $438 -22.637736328957615 $341 $439 forward 7 unknown #
coedge $-1 $221 $220 $348 $440 reversed $77 $-1 #
edge $-1 $441 -7.5747573583775294 $345 -1.2080531203272332e-014 $339 $442 forward 7 unknown #
vertex $-1 $223 $443 #
straight-curve $-1 -53.201086458937347 2.2012068206786708 5.0099392102033411 0 -1 0 I I #
coedge $-1 $436 $224 $227 $352 forward $337 $-1 #
coedge $-1 $224 $436 $343 $440 forward $337 $-1 #
vertex $-1 $225 $444 #
straight-curve $-1 -69.641126729345359 8.4830559245732537 11.138046703387509 -1 0 0 I I #
straight-curve $-1 -53.201086458937354 8.4830559245732537 5.0099392102033278 0.5877852410284794 0 0.80901700255871778 I I #
edge $-1 $228 -8.4830559245732537 $438 -0.32177135814142943 $227 $445 forward 7 unknown #
point $-1 -53.201086458937347 8.4830559245732537 11.138046703387507 #
point $-1 -53.201086458937347 8.4830559245732537 5.0099392102033375 #
edge $-1 $446 1 $446 0 $231 $-1 forward 7 unknown #
vertex $-1 $232 $447 #
ellipse-curve $-1 -50.020652937400435 4.4024136413573416 7.3806765236233067 -0.80901700255871778 0 0.5877852410284794 0.5877852410284794 0 0.80901700255871778 1 I I #
point $-1 -50.387135928095773 4.4024136413573416 8.8830099593541405 #
plane-surface $-1 53.201086458937347 0 0 -1 0 0 0 0 1 forward_v I I I I #
coedge $-1 $370 $369 $362 $448 forward $236 $-1 #
coedge $-1 $362 $238 $240 $366 reversed $139 $-1 #
coedge $-1 $238 $361 $360 $448 reversed $139 $-1 #
coedge $-1 $246 $241 $238 $364 forward $247 $-1 #
edge $-1 $367 -72.13386392169275 $449 -66.630881205034598 $363 $450 forward 7 unknown #
coedge $-1 $240 $239 $370 $451 reversed $86 $-1 #
edge $-1 $452 97.841051691993329 $367 106.40217291787467 $361 $453 forward 7 unknown #
vertex $-1 $242 $454 #
straight-curve $-1 53.20108645893734 9.3126314951026039 5.6350639867293495 0 1 0 I I #
coedge $-1 $360 $243 $246 $374 forward $236 $-1 #
coedge $-1 $243 $360 $365 $451 forward $236 $-1 #
vertex $-1 $244 $455 #
straight-curve $-1 20.043146550376843 13.791990938929686 11.138046703387502 1 0 0 I I #
straight-curve $-1 -28.307706135211909 13.791990938929686 74.02906322269493 -0.76604443648966558 0 0.64278761758704617 I I #
edge $-1 $248 13.791990938929686 $449 23.458535041480729 $246 $456 forward 7 unknown #
point $-1 53.201086458937347 13.791990938929686 11.138046703387507 #
point $-1 53.201086458937347 13.791990938929686 5.6350639867293495 #
edge $-1 $457 1 $457 0 $251 $-1 forward 7 unknown #
vertex $-1 $252 $458 #
ellipse-curve $-1 49.27919919875027 16.553860682515698 7.6205109085687344 0.64278761758704617 0 0.76604443648966558 0.38302221824483279 0 -0.32139380879352308 1 I I #
point $-1 50.305009034582149 16.553860682515698 8.0651615362648776 #
edge $-1 $459 1 $459 0 $255 $-1 forward 7 unknown #
vertex $-1 $256 $460 #
ellipse-curve $-1 49.27919919875027 20.696665297894718 7.6205109085687344 0.64278761758704617 0 0.76604443648966558 0.38302221824483279 0 -0.32139380879352308 1 I I #
point $-1 50.305009034582149 20.696665297894718 8.0651615362648776 #
plane-surface $-1 53.201086458937347 0 0 -1 0 0 0 0 1 forward_v I I I I #
coedge $-1 $264 $262 $266 $390 reversed $161 $-1 #
edge $-1 $277 -11.138046703387507 $392 11.138046703387507 $276 $461 forward 7 unknown #
vertex $-1 $390 $462 #
straight-curve $-1 -53.201086458937347 -37.075151499410637 0 0 0 -1 I I #
edge $-1 $388 -37.075151499410637 $392 37.075151499410637 $386 $463 forward 7 unknown #
straight-curve $-1 0 -37.075151499410637 -11.138046703387507 -1 0 0 I I #
vertex $-1 $269 $464 #
straight-curve $-1 0 37.075151499410637 -11.138046703387507 1 0 0 I I #
point $-1 53.201086458937347 37.075151499410637 -11.138046703387507 #
point $-1 53.201086458937347 -37.075151499410637 -11.138046703387507 #
straight-curve $-1 -53.201086458937347 0 11.138046703387507 0 -1 0 I I #
point $-1 -53.201086458937347 37.075151499410637 11.138046703387507 #
point $-1 -53.201086458937347 -37.075151499410637 11.138046703387507 #
straight-curve $-1 53.201086458937347 -37.075151499410637 0 0 0 -1 I I #
straight-curve $-1 53.201086458937347 37.075151499410637 0 0 0 -1 I I #
plane-surface $-1 53.201086458937347 0 0 -1 0 0 0 0 1 forward_v I I I I #
coedge $-1 $405 $289 $300 $414 forward $180 $-1 #
coedge $-1 $289 $405 $303 $416 reversed $180 $-1 #
straight-curve $-1 53.201086458937347 -23.458535041480729 -0.5193139377368805 0 0 1 I I #
coedge $-1 $403 $402 $292 $406 forward $180 $-1 #
edge $-1 $409 8.3251134062578878 $407 21.941729864187796 $405 $465 forward 7 unknown #
vertex $-1 $294 $466 #
straight-curve $-1 0 -37.075151499410637 -2.5547578144709018 1 0 0 I I #
vertex $-1 $406 $467 #
straight-curve $-1 0 -23.458535041480729 -2.5547578144709018 1 0 0 I I #
point $-1 53.201086458937347 -37.075151499410637 -2.5547578144709018 #
point $-1 53.201086458937347 -23.458535041480729 -2.5547578144709018 #
straight-curve $-1 -53.201086458937347 -15.133421635222842 0.47750206352337976 0 1 0 I I #
edge $-1 $301 -0.99681600126026026 $409 2.0354438767340213 $402 $468 forward 7 unknown #
point $-1 -53.201086458937347 -23.458535041480729 0.47750206352337976 #
edge $-1 $305 -0.47750206352337976 $407 2.5547578144709018 $403 $469 forward 7 unknown #
point $-1 -53.201086458937347 -37.075151499410637 0.47750206352337976 #
straight-curve $-1 53.201086458937347 -37.075151499410637 0 0 0 -1 I I #
plane-surface $-1 0 37.075151499410637 0 0 -1 0 0 0 -1 forward_v I I I I #
coedge $-1 $314 $429 $316 $423 forward $311 $-1 #
vertex $-1 $423 $470 #
straight-curve $-1 -53.201086458937347 23.458535041480722 -0.5193139377368805 0 0 1 I I #
edge $-1 $425 -21.941729864187792 $421 -8.3251134062578842 $420 $471 forward 7 unknown #
straight-curve $-1 0 23.458535041480722 -2.5547578144709018 -1 0 0 I I #
vertex $-1 $319 $472 #
straight-curve $-1 0 37.075151499410637 -2.5547578144709018 -1 0 0 I I #
point $-1 53.201086458937347 23.458535041480722 -2.5547578144709018 #
point $-1 53.201086458937347 37.07515149941063 -2.5547578144709018 #
coedge $-1 $420 $323 $326 $431 forward $311 $-1 #
straight-curve $-1 -53.201086458937347 15.133421635222838 0.47750206352337976 0 1 0 I I #
edge $-1 $328 -0.47750206352337976 $425 2.5547578144709018 $326 $473 forward 7 unknown #
point $-1 -53.201086458937347 37.07515149941063 0.47750206352337976 #
point $-1 -53.201086458937347 23.458535041480722 0.47750206352337976 #
straight-curve $-1 53.201086458937347 23.458535041480722 -0.5193139377368805 0 0 -1 I I #
straight-curve $-1 53.201086458937347 37.075151499410637 0 0 0 -1 I I #
coedge $-1 $348 $347 $340 $437 forward $337 $-1 #
edge $-1 $438 16.440040270408012 $441 20.89237085003419 $436 $474 forward 7 unknown #
vertex $-1 $437 $475 #
straight-curve $-1 -53.201086458937347 0.32177135814142943 33.775783032345124 0 0 1 I I #
edge $-1 $441 -1.8794354625372414 $349 6.281849103894583 $348 $476 forward 7 unknown #
vertex $-1 $440 $477 #
straight-curve $-1 -53.201086458937354 0.32177135814142943 5.0099392102033278 -0.5877852410284794 0 -0.80901700255871778 I I #
point $-1 -53.201086458937347 0.32177135814142943 5.0099392102033375 #
point $-1 -48.748755879311169 8.4830559245732537 11.138046703387507 #
straight-curve $-1 -53.201086458937347 0 11.138046703387507 0 -1 0 I I #
vertex $-1 $355 $478 #
point $-1 -49.432867696371957 4.4024136413573416 8.1896935261820243 #
edge $-1 $449 -33.157939908560508 $452 -26.599740623360514 $360 $479 forward 7 unknown #
vertex $-1 $364 $480 #
straight-curve $-1 53.201086458937347 23.458535041480729 77.7689279084221 0 0 1 I I #
edge $-1 $452 -14.145903546378126 $371 -4.4793594438270823 $370 $481 forward 7 unknown #
vertex $-1 $451 $482 #
straight-curve $-1 -28.307706135211909 23.458535041480729 74.02906322269493 0.76604443648966558 0 -0.64278761758704617 I I #
point $-1 53.201086458937347 23.458535041480729 5.6350639867293495 #
point $-1 46.642887173737357 13.791990938929686 11.138046703387509 #
straight-curve $-1 53.201086458937347 0 11.138046703387507 0 1 0 I I #
vertex $-1 $377 $483 #
point $-1 49.662221416995109 16.553860682515698 7.2991170997752111 #
vertex $-1 $381 $484 #
point $-1 49.662221416995109 20.696665297894718 7.2991170997752111 #
straight-curve $-1 -53.201086458937347 37.075151499410637 0 0 0 -1 I I #
point $-1 -53.201086458937347 -37.075151499410637 -11.138046703387507 #
straight-curve $-1 -53.201086458937347 0 -11.138046703387507 0 1 0 I I #
point $-1 -53.201086458937347 37.075151499410637 -11.138046703387507 #
straight-curve $-1 -53.201086458937347 -15.133421635222842 -2.5547578144709018 0 -1 0 I I #
point $-1 -53.201086458937347 -37.075151499410637 -2.5547578144709018 #
point $-1 -53.201086458937347 -23.458535041480729 -2.5547578144709018 #
straight-curve $-1 -53.201086458937347 -23.458535041480729 -0.5193139377368805 0 0 -1 I I #
straight-curve $-1 -53.201086458937347 -37.075151499410637 0 0 0 -1 I I #
point $-1 -53.201086458937347 23.458535041480722 -2.5547578144709018 #
straight-curve $-1 -53.201086458937347 15.133421635222838 -2.5547578144709018 0 -1 0 I I #
point $-1 -53.201086458937347 37.07515149941063 -2.5547578144709018 #
straight-curve $-1 -53.201086458937347 37.075151499410637 0 0 0 -1 I I #
straight-curve $-1 -69.641126729345359 0.32177135814142943 11.138046703387509 1 0 0 I I #
point $-1 -53.201086458937347 0.32177135814142943 11.138046703387507 #
straight-curve $-1 -48.748755879311169 2.2012068206786708 11.138046703387507 0 1 0 I I #
point $-1 -48.748755879311169 0.32177135814142943 11.138046703387507 #
point $-1 -49.211635934841716 4.4024136413573416 6.7928912825948276 #
straight-curve $-1 20.043146550376843 23.458535041480729 11.138046703387502 -1 0 0 I I #
point $-1 53.201086458937347 23.458535041480729 11.138046703387507 #
straight-curve $-1 46.64288717373735 9.3126314951026039 11.138046703387516 0 -1 0 I I #
point $-1 46.642887173737357 23.458535041480729 11.138046703387509 #
point $-1 48.957805389956754 16.553860682515698 7.237488690323902 #
point $-1 48.957805389956754 20.696665297894718 7.237488690323902 #
End-of-ACIS-data 