500 0 15 0           
7 Unknown 11 ACIS 5.0 NT 24 Thu Mar 25 15:48:42 1999 
-1 9.9999999999999995e-007 1e-010 
body $-1 $15 $-1 $16 #
body $-1 $17 $-1 $18 #
body $-1 $19 $-1 $20 #
body $-1 $21 $-1 $22 #
body $-1 $23 $-1 $24 #
body $-1 $25 $-1 $26 #
body $-1 $27 $-1 $28 #
body $-1 $29 $-1 $30 #
body $-1 $31 $-1 $32 #
body $-1 $33 $-1 $34 #
body $-1 $35 $-1 $36 #
body $-1 $37 $-1 $38 #
body $-1 $39 $-1 $40 #
body $-1 $41 $-1 $42 #
body $-1 $43 $-1 $44 #
lump $-1 $-1 $45 $0 #
transform $-1 1 0 0 0 1 0 0 0 1 55.360576189458911 37.680401452918737 14.213608143509205 1 rotate no_reflect no_shear #
lump $-1 $-1 $46 $1 #
transform $-1 1 0 0 0 1 0 0 0 1 55.360576189458911 37.680401452918737 14.213608143509205 1 rotate no_reflect no_shear #
lump $-1 $-1 $47 $2 #
transform $-1 1 0 0 0 1 0 0 0 1 55.360576189458911 37.680401452918737 14.213608143509205 1 rotate no_reflect no_shear #
lump $-1 $-1 $48 $3 #
transform $-1 1 0 0 0 1 0 0 0 1 55.360576189458911 37.680401452918737 14.213608143509205 1 rotate no_reflect no_shear #
lump $-1 $-1 $49 $4 #
transform $-1 1 0 0 0 1 0 0 0 1 55.360576189458911 37.680401452918737 14.213608143509205 1 rotate no_reflect no_shear #
lump $-1 $-1 $50 $5 #
transform $-1 1 0 0 0 1 0 0 0 1 55.360576189458911 37.680401452918737 14.213608143509205 1 rotate no_reflect no_shear #
lump $-1 $-1 $51 $6 #
transform $-1 1 0 0 0 1 0 0 0 1 55.360576189458911 37.680401452918737 14.213608143509205 1 rotate no_reflect no_shear #
lump $-1 $-1 $52 $7 #
transform $-1 1 0 0 0 1 0 0 0 1 55.360576189458911 37.680401452918737 14.213608143509205 1 rotate no_reflect no_shear #
lump $-1 $-1 $53 $8 #
transform $-1 1 0 0 0 1 0 0 0 1 55.360576189458911 37.680401452918737 14.213608143509205 1 rotate no_reflect no_shear #
lump $-1 $-1 $54 $9 #
transform $-1 1 0 0 0 1 0 0 0 1 55.360576189458911 37.680401452918737 14.213608143509205 1 rotate no_reflect no_shear #
lump $-1 $-1 $55 $10 #
transform $-1 1 0 0 0 1 0 0 0 1 55.360576189458911 37.680401452918737 14.213608143509205 1 rotate no_reflect no_shear #
lump $-1 $-1 $56 $11 #
transform $-1 1 0 0 0 1 0 0 0 1 55.360576189458911 37.680401452918737 14.213608143509205 1 rotate no_reflect no_shear #
lump $-1 $-1 $57 $12 #
transform $-1 1 0 0 0 1 0 0 0 1 55.360576189458911 37.680401452918737 14.213608143509205 1 rotate no_reflect no_shear #
lump $-1 $-1 $58 $13 #
transform $-1 1 0 0 0 1 0 0 0 1 55.360576189458911 37.680401452918737 14.213608143509205 1 rotate no_reflect no_shear #
lump $-1 $-1 $59 $14 #
transform $-1 1 0 0 0 1 0 0 0 1 55.360576189458911 37.680401452918737 14.213608143509205 1 rotate no_reflect no_shear #
shell $-1 $-1 $-1 $60 $-1 $15 #
shell $-1 $-1 $-1 $61 $-1 $17 #
shell $-1 $-1 $-1 $62 $-1 $19 #
shell $-1 $-1 $-1 $63 $-1 $21 #
shell $-1 $-1 $-1 $64 $-1 $23 #
shell $-1 $-1 $-1 $65 $-1 $25 #
shell $-1 $-1 $-1 $66 $-1 $27 #
shell $-1 $-1 $-1 $67 $-1 $29 #
shell $-1 $-1 $-1 $68 $-1 $31 #
shell $-1 $-1 $-1 $69 $-1 $33 #
shell $-1 $-1 $-1 $70 $-1 $35 #
shell $-1 $-1 $-1 $71 $-1 $37 #
shell $-1 $-1 $-1 $72 $-1 $39 #
shell $-1 $-1 $-1 $73 $-1 $41 #
shell $-1 $-1 $-1 $74 $-1 $43 #
face $-1 $75 $76 $45 $-1 $77 forward single #
face $-1 $78 $79 $46 $-1 $80 forward single #
face $-1 $81 $82 $47 $-1 $83 forward single #
face $-1 $84 $85 $48 $-1 $86 reversed single #
face $-1 $87 $88 $49 $-1 $89 forward single #
face $-1 $90 $91 $50 $-1 $92 forward single #
face $-1 $93 $94 $51 $-1 $95 forward single #
face $-1 $96 $97 $52 $-1 $98 reversed single #
face $-1 $99 $100 $53 $-1 $101 forward single #
face $-1 $102 $103 $54 $-1 $104 forward single #
face $-1 $105 $106 $55 $-1 $107 forward single #
face $-1 $108 $109 $56 $-1 $110 reversed single #
face $-1 $111 $112 $57 $-1 $113 forward single #
face $-1 $114 $115 $58 $-1 $116 forward single #
face $-1 $117 $118 $59 $-1 $119 forward single #
face $-1 $120 $121 $45 $-1 $122 reversed single #
loop $-1 $-1 $123 $60 #
plane-surface $-1 0 0 14.213608143509205 0 0 1 1 0 0 forward_v I I I I #
face $-1 $124 $125 $46 $-1 $126 reversed single #
loop $-1 $-1 $127 $61 #
plane-surface $-1 0 -32.238533293776818 -9.5943047858557904 0 0 1 1 0 0 forward_v I I I I #
face $-1 $128 $129 $47 $-1 $130 reversed single #
loop $-1 $-1 $131 $62 #
plane-surface $-1 0 32.238533293776818 -9.5943047858557904 0 0 1 1 0 0 forward_v I I I I #
face $-1 $132 $133 $48 $-1 $134 reversed single #
loop $-1 $-1 $135 $63 #
plane-surface $-1 66.283280878148645 -18.106423960905623 158.15088375747979 0 -1 0 -0.75470958851134928 0 -0.65605901945558964 forward_v I I I I #
face $-1 $136 $137 $49 $-1 $138 forward single #
loop $-1 $139 $140 $64 #
cone-surface $-1 49.373374890208716 -25.058616899889046 7.5106375345415275 -0.75470958851134928 0 -0.65605901945558964 0.32802950972779482 0 -0.37735479425567464 1 I I 0 1 0.5 forward I I I I #
face $-1 $141 $142 $50 $-1 $143 forward single #
loop $-1 $144 $145 $65 #
cone-surface $-1 49.373374890208716 -22.451544547770261 7.5106375345415275 -0.75470958851134928 0 -0.65605901945558964 0.32802950972779482 0 -0.37735479425567464 1 I I 0 1 0.5 forward I I I I #
face $-1 $146 $147 $51 $-1 $148 forward single #
loop $-1 $149 $150 $66 #
cone-surface $-1 49.373374890208716 -19.844472195651477 7.5106375345415275 -0.75470958851134928 0 -0.65605901945558964 0.32802950972779482 0 -0.37735479425567464 1 I I 0 1 0.5 forward I I I I #
face $-1 $151 $152 $52 $-1 $153 reversed single #
loop $-1 $-1 $154 $67 #
plane-surface $-1 66.283280878148645 26.796665134634903 158.15088375747979 0 -1 0 -0.75470958851134928 0 -0.65605901945558964 forward_v I I I I #
face $-1 $155 $156 $53 $-1 $157 forward single #
loop $-1 $158 $159 $68 #
cone-surface $-1 49.373374890208716 19.844472195651477 7.5106375345415275 -0.75470958851134928 0 -0.65605901945558964 0.32802950972779482 0 -0.37735479425567464 1 I I 0 1 0.5 forward I I I I #
face $-1 $160 $161 $54 $-1 $162 forward single #
loop $-1 $163 $164 $69 #
cone-surface $-1 49.373374890208716 22.451544547770261 7.5106375345415275 -0.75470958851134928 0 -0.65605901945558964 0.32802950972779482 0 -0.37735479425567464 1 I I 0 1 0.5 forward I I I I #
face $-1 $165 $166 $55 $-1 $167 forward single #
loop $-1 $168 $169 $70 #
cone-surface $-1 49.373374890208716 25.058616899889046 7.5106375345415275 -0.75470958851134928 0 -0.65605901945558964 0.32802950972779482 0 -0.37735479425567464 1 I I 0 1 0.5 forward I I I I #
face $-1 $170 $171 $56 $-1 $172 reversed single #
loop $-1 $-1 $173 $71 #
plane-surface $-1 -128.00018879123684 -26.796665134634907 83.795025038129481 0 1 0 -0.6560590369687036 0 0.75470957328743171 forward_v I I I I #
face $-1 $174 $175 $57 $-1 $176 forward single #
loop $-1 $177 $178 $72 #
cone-surface $-1 -46.55043305708886 -24.511512500679665 6.3390414582522485 0.6560590369687036 0 -0.75470957328743171 0.75470957328743171 0 0.6560590369687036 1 I I 0 1 1 forward I I I I #
face $-1 $179 $180 $58 $-1 $181 forward single #
loop $-1 $182 $183 $73 #
cone-surface $-1 -46.55043305708886 -21.083783549746808 6.3390414582522485 0.6560590369687036 0 -0.75470957328743171 0.75470957328743171 0 0.6560590369687036 1 I I 0 1 1 forward I I I I #
face $-1 $184 $185 $59 $-1 $186 forward single #
loop $-1 $187 $188 $74 #
cone-surface $-1 -46.55043305708886 -17.656054598813949 6.3390414582522485 0.6560590369687036 0 -0.75470957328743171 0.75470957328743171 0 0.6560590369687036 1 I I 0 1 1 forward I I I I #
face $-1 $189 $190 $45 $-1 $191 reversed single #
loop $-1 $-1 $192 $75 #
plane-surface $-1 0 0 -14.213608143509205 0 0 1 1 0 0 forward_v I I I I #
coedge $-1 $193 $194 $195 $196 forward $76 $-1 #
face $-1 $197 $198 $46 $-1 $199 reversed single #
loop $-1 $-1 $200 $78 #
plane-surface $-1 0 -26.796665134634903 -11.903956464682498 0 -1 0 0 0 -1 forward_v I I I I #
coedge $-1 $201 $202 $203 $204 reversed $79 $-1 #
face $-1 $205 $206 $47 $-1 $207 reversed single #
loop $-1 $-1 $208 $81 #
plane-surface $-1 0 26.7966651346349 -11.903956464682498 0 1 0 0 0 1 forward_v I I I I #
coedge $-1 $209 $210 $211 $212 reversed $82 $-1 #
face $-1 $213 $214 $48 $-1 $215 reversed single #
loop $-1 $-1 $216 $84 #
plane-surface $-1 -17.279034473246824 -22.451544547770265 85.51127309477404 0.75470958851134928 0 0.65605901945558964 0.65605901945558964 0 -0.75470958851134928 forward_v I I I I #
coedge $-1 $217 $218 $219 $220 reversed $85 $-1 #
face $-1 $-1 $221 $49 $-1 $222 forward single #
loop $-1 $223 $224 $87 #
cone-surface $-1 48.528245026203777 -25.058616899889046 6.7759773707752657 -0.75470958851134928 0 -0.65605901945558964 0.16401475486389741 0 -0.18867739712783732 1 I I -0.70710678118654746 0.70710678118654746 0.25 forward I I I I #
loop $-1 $-1 $225 $64 #
coedge $-1 $140 $140 $226 $227 reversed $88 $-1 #
face $-1 $-1 $228 $50 $-1 $229 forward single #
loop $-1 $230 $231 $90 #
cone-surface $-1 48.528245026203777 -22.451544547770261 6.7759773707752657 -0.75470958851134928 0 -0.65605901945558964 0.16401475486389741 0 -0.18867739712783732 1 I I -0.70710678118654746 0.70710678118654746 0.25 forward I I I I #
loop $-1 $-1 $232 $65 #
coedge $-1 $145 $145 $233 $234 reversed $91 $-1 #
face $-1 $-1 $235 $51 $-1 $236 forward single #
loop $-1 $237 $238 $93 #
cone-surface $-1 48.528245026203777 -19.844472195651477 6.7759773707752657 -0.75470958851134928 0 -0.65605901945558964 0.16401475486389741 0 -0.18867739712783732 1 I I -0.70710678118654746 0.70710678118654746 0.25 forward I I I I #
loop $-1 $-1 $239 $66 #
coedge $-1 $150 $150 $240 $241 reversed $94 $-1 #
face $-1 $242 $243 $52 $-1 $244 reversed single #
loop $-1 $-1 $245 $96 #
plane-surface $-1 -17.279034473246824 22.451544547770261 85.51127309477404 0.75470958851134928 0 0.65605901945558964 0.65605901945558964 0 -0.75470958851134928 forward_v I I I I #
coedge $-1 $246 $247 $248 $249 reversed $97 $-1 #
face $-1 $-1 $250 $53 $-1 $251 forward single #
loop $-1 $252 $253 $99 #
cone-surface $-1 48.528245026203777 19.844472195651477 6.7759773707752657 -0.75470958851134928 0 -0.65605901945558964 0.16401475486389741 0 -0.18867739712783732 1 I I -0.70710678118654746 0.70710678118654746 0.25 forward I I I I #
loop $-1 $-1 $254 $68 #
coedge $-1 $159 $159 $255 $256 reversed $100 $-1 #
face $-1 $-1 $257 $54 $-1 $258 forward single #
loop $-1 $259 $260 $102 #
cone-surface $-1 48.528245026203777 22.451544547770261 6.7759773707752657 -0.75470958851134928 0 -0.65605901945558964 0.16401475486389741 0 -0.18867739712783732 1 I I -0.70710678118654746 0.70710678118654746 0.25 forward I I I I #
loop $-1 $-1 $261 $69 #
coedge $-1 $164 $164 $262 $263 reversed $103 $-1 #
face $-1 $-1 $264 $55 $-1 $265 forward single #
loop $-1 $266 $267 $105 #
cone-surface $-1 48.528245026203777 25.058616899889046 6.7759773707752657 -0.75470958851134928 0 -0.65605901945558964 0.16401475486389741 0 -0.18867739712783732 1 I I -0.70710678118654746 0.70710678118654746 0.25 forward I I I I #
loop $-1 $-1 $268 $70 #
coedge $-1 $169 $169 $269 $270 reversed $106 $-1 #
face $-1 $271 $272 $56 $-1 $273 reversed single #
loop $-1 $-1 $274 $108 #
plane-surface $-1 -55.360576189458925 -21.083783549746808 0.23271137234370087 -0.6560590369687036 0 0.75470957328743171 0.75470957328743171 0 0.6560590369687036 forward_v I I I I #
coedge $-1 $275 $276 $277 $278 reversed $109 $-1 #
face $-1 $-1 $279 $57 $-1 $280 forward single #
loop $-1 $281 $282 $111 #
cone-surface $-1 -45.45385120962834 -24.511512500679665 5.0775683719343263 0.6560590369687036 0 -0.75470957328743171 0.37735478664371586 0 0.3280295184843518 1 I I -0.70710678118654746 0.70710678118654746 0.5 forward I I I I #
loop $-1 $-1 $283 $72 #
coedge $-1 $178 $178 $284 $285 reversed $112 $-1 #
face $-1 $-1 $286 $58 $-1 $287 forward single #
loop $-1 $288 $289 $114 #
cone-surface $-1 -45.45385120962834 -21.083783549746808 5.0775683719343263 0.6560590369687036 0 -0.75470957328743171 0.37735478664371586 0 0.3280295184843518 1 I I -0.70710678118654746 0.70710678118654746 0.5 forward I I I I #
loop $-1 $-1 $290 $73 #
coedge $-1 $183 $183 $291 $292 reversed $115 $-1 #
face $-1 $-1 $293 $59 $-1 $294 forward single #
loop $-1 $295 $296 $117 #
cone-surface $-1 -45.45385120962834 -17.656054598813949 5.0775683719343263 0.6560590369687036 0 -0.75470957328743171 0.37735478664371586 0 0.3280295184843518 1 I I -0.70710678118654746 0.70710678118654746 0.5 forward I I I I #
loop $-1 $-1 $297 $74 #
coedge $-1 $188 $188 $298 $299 reversed $118 $-1 #
face $-1 $300 $301 $45 $-1 $302 reversed single #
loop $-1 $-1 $303 $120 #
plane-surface $-1 0 -37.680401452918737 0 0 1 0 0 0 1 forward_v I I I I #
coedge $-1 $304 $305 $306 $307 forward $121 $-1 #
coedge $-1 $308 $123 $309 $310 forward $76 $-1 #
coedge $-1 $123 $308 $311 $312 forward $76 $-1 #
coedge $-1 $313 $314 $123 $196 reversed $315 $-1 #
edge $-1 $316 -37.680401452918737 $317 37.680401452918737 $195 $318 forward 7 unknown #
face $-1 $319 $320 $46 $-1 $321 reversed single #
loop $-1 $-1 $322 $124 #
plane-surface $-1 0 0 -14.213608143509205 0 0 1 1 0 0 forward_v I I I I #
coedge $-1 $323 $324 $325 $326 reversed $125 $-1 #
coedge $-1 $327 $127 $324 $328 forward $79 $-1 #
coedge $-1 $127 $327 $329 $330 reversed $79 $-1 #
coedge $-1 $331 $325 $127 $204 forward $320 $-1 #
edge $-1 $332 10.677398487746494 $333 21.561134806030328 $203 $334 forward 7 unknown #
face $-1 $335 $336 $47 $-1 $337 reversed single #
loop $-1 $-1 $211 $128 #
plane-surface $-1 55.360576189458911 0 0 -1 0 0 0 0 1 forward_v I I I I #
coedge $-1 $338 $339 $340 $341 reversed $129 $-1 #
coedge $-1 $342 $131 $343 $344 reversed $82 $-1 #
coedge $-1 $131 $342 $339 $345 forward $82 $-1 #
coedge $-1 $346 $347 $131 $212 forward $206 $-1 #
edge $-1 $348 -21.561134806030328 $349 -10.67739848774649 $211 $350 forward 7 unknown #
face $-1 $351 $352 $48 $-1 $353 forward single #
loop $-1 $-1 $354 $132 #
plane-surface $-1 66.283280878148645 -26.796665134634907 158.15088375747979 0 1 0 0.75470958851134928 0 0.65605901945558964 forward_v I I I I #
coedge $-1 $355 $356 $357 $358 reversed $133 $-1 #
coedge $-1 $218 $135 $359 $360 reversed $85 $-1 #
coedge $-1 $135 $217 $355 $361 reversed $85 $-1 #
coedge $-1 $357 $362 $135 $220 forward $352 $-1 #
edge $-1 $363 -22.218935750384588 $364 -11.557438085638417 $219 $365 forward 7 unknown #
loop $-1 $-1 $226 $136 #
plane-surface $-1 -17.279034473246824 -22.451544547770265 85.51127309477404 0.75470958851134928 0 0.65605901945558964 0.65605901945558964 0 -0.75470958851134928 forward_v I I I I #
loop $-1 $-1 $366 $87 #
coedge $-1 $224 $224 $225 $367 reversed $137 $-1 #
coedge $-1 $225 $225 $224 $367 forward $139 $-1 #
coedge $-1 $226 $226 $140 $227 forward $221 $-1 #
edge $-1 $368 0 $368 6.2831853071796004 $226 $369 forward 7 unknown #
loop $-1 $-1 $233 $141 #
plane-surface $-1 -17.279034473246824 -22.451544547770265 85.51127309477404 0.75470958851134928 0 0.65605901945558964 0.65605901945558964 0 -0.75470958851134928 forward_v I I I I #
loop $-1 $-1 $370 $90 #
coedge $-1 $231 $231 $232 $371 reversed $142 $-1 #
coedge $-1 $232 $232 $231 $371 forward $144 $-1 #
coedge $-1 $233 $233 $145 $234 forward $228 $-1 #
edge $-1 $372 0 $372 6.2831853071796004 $233 $373 forward 7 unknown #
loop $-1 $-1 $240 $146 #
plane-surface $-1 -17.279034473246824 -22.451544547770265 85.51127309477404 0.75470958851134928 0 0.65605901945558964 0.65605901945558964 0 -0.75470958851134928 forward_v I I I I #
loop $-1 $-1 $374 $93 #
coedge $-1 $238 $238 $239 $375 reversed $147 $-1 #
coedge $-1 $239 $239 $238 $375 forward $149 $-1 #
coedge $-1 $240 $240 $150 $241 forward $235 $-1 #
edge $-1 $376 0 $376 6.2831853071796004 $240 $377 forward 7 unknown #
face $-1 $378 $379 $52 $-1 $380 reversed single #
loop $-1 $-1 $381 $151 #
plane-surface $-1 66.283280878148645 18.106423960905619 158.15088375747979 0 1 0 0.75470958851134928 0 0.65605901945558964 forward_v I I I I #
coedge $-1 $382 $383 $384 $385 reversed $152 $-1 #
coedge $-1 $247 $154 $386 $387 reversed $97 $-1 #
coedge $-1 $154 $246 $382 $388 reversed $97 $-1 #
coedge $-1 $384 $389 $154 $249 forward $390 $-1 #
edge $-1 $391 -22.218935750384588 $392 -11.557438085638417 $248 $393 forward 7 unknown #
loop $-1 $-1 $255 $155 #
plane-surface $-1 -17.279034473246824 22.451544547770261 85.51127309477404 0.75470958851134928 0 0.65605901945558964 0.65605901945558964 0 -0.75470958851134928 forward_v I I I I #
loop $-1 $-1 $394 $99 #
coedge $-1 $253 $253 $254 $395 reversed $156 $-1 #
coedge $-1 $254 $254 $253 $395 forward $158 $-1 #
coedge $-1 $255 $255 $159 $256 forward $250 $-1 #
edge $-1 $396 0 $396 6.2831853071796004 $255 $397 forward 7 unknown #
loop $-1 $-1 $262 $160 #
plane-surface $-1 -17.279034473246824 22.451544547770261 85.51127309477404 0.75470958851134928 0 0.65605901945558964 0.65605901945558964 0 -0.75470958851134928 forward_v I I I I #
loop $-1 $-1 $398 $102 #
coedge $-1 $260 $260 $261 $399 reversed $161 $-1 #
coedge $-1 $261 $261 $260 $399 forward $163 $-1 #
coedge $-1 $262 $262 $164 $263 forward $257 $-1 #
edge $-1 $400 0 $400 6.2831853071796004 $262 $401 forward 7 unknown #
loop $-1 $-1 $269 $165 #
plane-surface $-1 -17.279034473246824 22.451544547770261 85.51127309477404 0.75470958851134928 0 0.65605901945558964 0.65605901945558964 0 -0.75470958851134928 forward_v I I I I #
loop $-1 $-1 $402 $105 #
coedge $-1 $267 $267 $268 $403 reversed $166 $-1 #
coedge $-1 $268 $268 $267 $403 forward $168 $-1 #
coedge $-1 $269 $269 $169 $270 forward $264 $-1 #
edge $-1 $404 0 $404 6.2831853071796004 $269 $405 forward 7 unknown #
face $-1 $406 $407 $56 $-1 $408 reversed single #
loop $-1 $-1 $409 $170 #
plane-surface $-1 -128.00018879123684 -15.37090196485871 83.795025038129481 0 -1 0 0.6560590369687036 0 -0.75470957328743171 forward_v I I I I #
coedge $-1 $410 $411 $412 $413 reversed $171 $-1 #
coedge $-1 $276 $173 $414 $415 reversed $109 $-1 #
coedge $-1 $173 $275 $410 $416 reversed $109 $-1 #
coedge $-1 $412 $417 $173 $278 forward $418 $-1 #
edge $-1 $419 8.6395182061595079 $420 24.722699812947262 $277 $421 forward 7 unknown #
loop $-1 $-1 $284 $174 #
plane-surface $-1 -55.360576189458925 -21.083783549746808 0.23271137234370087 -0.6560590369687036 0 0.75470957328743171 0.75470957328743171 0 0.6560590369687036 forward_v I I I I #
loop $-1 $-1 $422 $111 #
coedge $-1 $282 $282 $283 $423 reversed $175 $-1 #
coedge $-1 $283 $283 $282 $423 forward $177 $-1 #
coedge $-1 $284 $284 $178 $285 forward $279 $-1 #
edge $-1 $424 0 $424 6.2831853071796004 $284 $425 forward 7 unknown #
loop $-1 $-1 $291 $179 #
plane-surface $-1 -55.360576189458925 -21.083783549746808 0.23271137234370087 -0.6560590369687036 0 0.75470957328743171 0.75470957328743171 0 0.6560590369687036 forward_v I I I I #
loop $-1 $-1 $426 $114 #
coedge $-1 $289 $289 $290 $427 reversed $180 $-1 #
coedge $-1 $290 $290 $289 $427 forward $182 $-1 #
coedge $-1 $291 $291 $183 $292 forward $286 $-1 #
edge $-1 $428 0 $428 6.2831853071796004 $291 $429 forward 7 unknown #
loop $-1 $-1 $298 $184 #
plane-surface $-1 -55.360576189458925 -21.083783549746808 0.23271137234370087 -0.6560590369687036 0 0.75470957328743171 0.75470957328743171 0 0.6560590369687036 forward_v I I I I #
loop $-1 $-1 $430 $117 #
coedge $-1 $296 $296 $297 $431 reversed $185 $-1 #
coedge $-1 $297 $297 $296 $431 forward $187 $-1 #
coedge $-1 $298 $298 $188 $299 forward $293 $-1 #
edge $-1 $432 0 $432 6.2831853071796004 $298 $433 forward 7 unknown #
face $-1 $434 $435 $45 $-1 $436 reversed single #
loop $-1 $-1 $437 $189 #
plane-surface $-1 -55.360576189458911 0 0 1 0 0 0 0 -1 forward_v I I I I #
coedge $-1 $438 $311 $439 $440 forward $190 $-1 #
coedge $-1 $441 $192 $438 $442 forward $121 $-1 #
coedge $-1 $192 $441 $443 $444 forward $121 $-1 #
coedge $-1 $314 $313 $192 $307 reversed $315 $-1 #
edge $-1 $445 -37.680401452918737 $446 37.680401452918737 $306 $447 forward 7 unknown #
coedge $-1 $194 $193 $448 $449 forward $76 $-1 #
coedge $-1 $450 $451 $193 $310 reversed $435 $-1 #
edge $-1 $317 -55.360576189458911 $452 55.360576189458911 $309 $453 forward 7 unknown #
coedge $-1 $303 $454 $194 $312 reversed $190 $-1 #
edge $-1 $455 -55.360576189458911 $316 55.360576189458911 $311 $456 forward 7 unknown #
coedge $-1 $306 $195 $454 $457 forward $315 $-1 #
coedge $-1 $195 $306 $450 $458 reversed $315 $-1 #
loop $-1 $-1 $313 $434 #
vertex $-1 $196 $459 #
vertex $-1 $196 $460 #
straight-curve $-1 55.360576189458911 0 14.213608143509205 0 1 0 I I #
face $-1 $461 $462 $46 $-1 $463 reversed single #
loop $-1 $-1 $325 $197 #
plane-surface $-1 55.360576189458911 0 0 -1 0 0 0 0 1 forward_v I I I I #
coedge $-1 $464 $465 $323 $466 forward $198 $-1 #
coedge $-1 $467 $200 $322 $466 reversed $125 $-1 #
coedge $-1 $200 $467 $201 $328 reversed $125 $-1 #
coedge $-1 $203 $468 $200 $326 forward $320 $-1 #
edge $-1 $469 -8.2616299111679563 $332 -3.6423265535145415 $325 $470 forward 7 unknown #
coedge $-1 $202 $201 $471 $472 reversed $79 $-1 #
edge $-1 $332 -55.360576189458911 $473 55.360576189458911 $324 $474 forward 7 unknown #
coedge $-1 $475 $476 $202 $330 forward $462 $-1 #
edge $-1 $333 -55.360576189458911 $477 55.360576189458911 $329 $478 forward 7 unknown #
coedge $-1 $468 $203 $476 $479 forward $320 $-1 #
vertex $-1 $204 $480 #
vertex $-1 $479 $481 #
straight-curve $-1 55.360576189458911 -16.119266646888409 -9.5943047858557904 0 -1 0 I I #
face $-1 $482 $483 $47 $-1 $484 reversed single #
loop $-1 $-1 $485 $205 #
plane-surface $-1 0 0 -14.213608143509205 0 0 1 1 0 0 forward_v I I I I #
coedge $-1 $486 $208 $485 $487 reversed $129 $-1 #
coedge $-1 $208 $486 $210 $345 reversed $129 $-1 #
coedge $-1 $488 $489 $208 $341 forward $483 $-1 #
edge $-1 $490 -8.2616299111679563 $491 -3.6423265535145415 $340 $492 forward 7 unknown #
coedge $-1 $210 $209 $488 $493 reversed $82 $-1 #
coedge $-1 $494 $495 $209 $344 forward $496 $-1 #
edge $-1 $497 -55.360576189458911 $348 55.360576189458911 $343 $498 forward 7 unknown #
edge $-1 $491 -55.360576189458911 $349 55.360576189458911 $339 $499 forward 7 unknown #
coedge $-1 $500 $211 $486 $501 forward $206 $-1 #
coedge $-1 $211 $500 $494 $502 reversed $206 $-1 #
vertex $-1 $502 $503 #
vertex $-1 $212 $504 #
straight-curve $-1 55.360576189458911 16.119266646888409 -9.5943047858557904 0 -1 0 I I #
face $-1 $-1 $505 $48 $-1 $506 reversed single #
loop $-1 $-1 $219 $213 #
plane-surface $-1 0 0 14.213608143509205 0 0 1 1 0 0 forward_v I I I I #
coedge $-1 $507 $508 $509 $510 reversed $214 $-1 #
coedge $-1 $511 $216 $218 $361 forward $133 $-1 #
coedge $-1 $216 $511 $507 $512 forward $133 $-1 #
coedge $-1 $509 $219 $216 $358 forward $352 $-1 #
edge $-1 $364 6.8806516870204906 $513 15.570892860749774 $357 $514 forward 7 unknown #
coedge $-1 $515 $516 $217 $360 forward $505 $-1 #
edge $-1 $517 -77.126484135361309 $363 -64.86183373523069 $359 $518 forward 7 unknown #
edge $-1 $364 94.470331418338247 $517 110.72115237891782 $218 $519 forward 7 unknown #
coedge $-1 $219 $509 $515 $520 forward $352 $-1 #
vertex $-1 $360 $521 #
vertex $-1 $220 $522 #
straight-curve $-1 33.141640439074322 -18.106423960905623 14.213608143509205 -1 0 0 I I #
coedge $-1 $366 $366 $-1 $523 reversed $223 $-1 #
edge $-1 $524 0 $524 6.2831853071796004 $224 $525 forward 7 unknown #
vertex $-1 $227 $526 #
ellipse-curve $-1 50.029827357085821 -25.058616899889046 8.0812829434438935 0.75470958851134928 0 0.65605901945558964 0.32802950972779482 0 -0.37735479425567464 1 I I #
coedge $-1 $370 $370 $-1 $527 reversed $230 $-1 #
edge $-1 $528 0 $528 6.2831853071796004 $231 $529 forward 7 unknown #
vertex $-1 $234 $530 #
ellipse-curve $-1 50.029827357085821 -22.451544547770261 8.0812829434438935 0.75470958851134928 0 0.65605901945558964 0.32802950972779482 0 -0.37735479425567464 1 I I #
coedge $-1 $374 $374 $-1 $531 reversed $237 $-1 #
edge $-1 $532 0 $532 6.2831853071796004 $238 $533 forward 7 unknown #
vertex $-1 $241 $534 #
ellipse-curve $-1 50.029827357085821 -19.844472195651477 8.0812829434438935 0.75470958851134928 0 0.65605901945558964 0.32802950972779482 0 -0.37735479425567464 1 I I #
face $-1 $-1 $390 $52 $-1 $535 forward single #
loop $-1 $-1 $536 $242 #
plane-surface $-1 55.360576189458911 0 0 -1 0 0 0 0 1 forward_v I I I I #
coedge $-1 $537 $538 $539 $540 reversed $243 $-1 #
coedge $-1 $541 $245 $247 $388 forward $152 $-1 #
coedge $-1 $245 $541 $537 $542 forward $152 $-1 #
coedge $-1 $539 $248 $245 $385 forward $390 $-1 #
edge $-1 $392 -15.570892860749773 $543 -6.8806516870204888 $384 $544 forward 7 unknown #
coedge $-1 $545 $546 $246 $387 forward $379 $-1 #
edge $-1 $547 -77.126484135361309 $391 -64.86183373523069 $386 $548 forward 7 unknown #
edge $-1 $392 94.470331418338247 $547 110.72115237891782 $247 $549 forward 7 unknown #
coedge $-1 $248 $539 $545 $550 forward $390 $-1 #
loop $-1 $-1 $539 $378 #
vertex $-1 $387 $551 #
vertex $-1 $249 $552 #
straight-curve $-1 33.141640439074322 26.796665134634903 14.213608143509205 -1 0 0 I I #
coedge $-1 $394 $394 $-1 $553 reversed $252 $-1 #
edge $-1 $554 0 $554 6.2831853071796004 $253 $555 forward 7 unknown #
vertex $-1 $256 $556 #
ellipse-curve $-1 50.029827357085821 19.844472195651477 8.0812829434438935 0.75470958851134928 0 0.65605901945558964 0.32802950972779482 0 -0.37735479425567464 1 I I #
coedge $-1 $398 $398 $-1 $557 reversed $259 $-1 #
edge $-1 $558 0 $558 6.2831853071796004 $260 $559 forward 7 unknown #
vertex $-1 $263 $560 #
ellipse-curve $-1 50.029827357085821 22.451544547770261 8.0812829434438935 0.75470958851134928 0 0.65605901945558964 0.32802950972779482 0 -0.37735479425567464 1 I I #
coedge $-1 $402 $402 $-1 $561 reversed $266 $-1 #
edge $-1 $562 0 $562 6.2831853071796004 $267 $563 forward 7 unknown #
vertex $-1 $270 $564 #
ellipse-curve $-1 50.029827357085821 25.058616899889046 8.0812829434438935 0.75470958851134928 0 0.65605901945558964 0.32802950972779482 0 -0.37735479425567464 1 I I #
face $-1 $-1 $418 $56 $-1 $565 forward single #
loop $-1 $-1 $566 $271 #
plane-surface $-1 -55.360576189458911 0 0 1 0 0 0 0 -1 forward_v I I I I #
coedge $-1 $567 $568 $569 $570 reversed $272 $-1 #
coedge $-1 $571 $274 $276 $416 forward $171 $-1 #
coedge $-1 $274 $571 $567 $572 forward $171 $-1 #
coedge $-1 $569 $277 $274 $413 forward $418 $-1 #
edge $-1 $420 -16.254773359761501 $573 -4.829010189985306 $412 $574 forward 7 unknown #
coedge $-1 $575 $576 $275 $415 forward $407 $-1 #
edge $-1 $577 -41.664801146721025 $419 -27.683904375555535 $414 $578 forward 7 unknown #
edge $-1 $420 -21.310424799212768 $577 -1.8828204911120975e-014 $276 $579 forward 7 unknown #
coedge $-1 $277 $569 $575 $580 forward $418 $-1 #
loop $-1 $-1 $569 $406 #
vertex $-1 $415 $581 #
vertex $-1 $278 $582 #
straight-curve $-1 -64.000094395618419 -26.796665134634907 14.213608143509205 1 0 0 I I #
coedge $-1 $422 $422 $-1 $583 reversed $281 $-1 #
edge $-1 $584 0 $584 6.2831853071796004 $282 $585 forward 7 unknown #
vertex $-1 $285 $586 #
ellipse-curve $-1 -47.318985386065037 -24.511512500679665 7.2231597579264593 -0.6560590369687036 0 0.75470957328743171 0.75470957328743171 0 0.6560590369687036 1 I I #
coedge $-1 $426 $426 $-1 $587 reversed $288 $-1 #
edge $-1 $588 0 $588 6.2831853071796004 $289 $589 forward 7 unknown #
vertex $-1 $292 $590 #
ellipse-curve $-1 -47.318985386065037 -21.083783549746808 7.2231597579264593 -0.6560590369687036 0 0.75470957328743171 0.75470957328743171 0 0.6560590369687036 1 I I #
coedge $-1 $430 $430 $-1 $591 reversed $295 $-1 #
edge $-1 $592 0 $592 6.2831853071796004 $296 $593 forward 7 unknown #
vertex $-1 $299 $594 #
ellipse-curve $-1 -47.318985386065037 -17.656054598813949 7.2231597579264593 -0.6560590369687036 0 0.75470957328743171 0.75470957328743171 0 0.6560590369687036 1 I I #
face $-1 $-1 $315 $45 $-1 $595 reversed single #
loop $-1 $-1 $450 $300 #
plane-surface $-1 0 37.680401452918737 0 0 -1 0 0 0 -1 forward_v I I I I #
coedge $-1 $596 $448 $451 $597 forward $301 $-1 #
coedge $-1 $454 $303 $304 $442 reversed $190 $-1 #
coedge $-1 $448 $596 $303 $440 reversed $301 $-1 #
edge $-1 $455 -14.213608143509205 $598 14.213608143509205 $439 $599 forward 7 unknown #
coedge $-1 $305 $304 $596 $600 forward $121 $-1 #
edge $-1 $446 -55.360576189458911 $598 55.360576189458911 $438 $601 forward 7 unknown #
coedge $-1 $451 $450 $305 $444 reversed $435 $-1 #
edge $-1 $602 -55.360576189458911 $445 55.360576189458911 $443 $603 forward 7 unknown #
vertex $-1 $307 $604 #
vertex $-1 $457 $605 #
straight-curve $-1 55.360576189458911 0 -14.213608143509205 0 -1 0 I I #
coedge $-1 $437 $439 $308 $449 reversed $301 $-1 #
edge $-1 $452 -37.680401452918737 $455 37.680401452918737 $448 $606 forward 7 unknown #
coedge $-1 $443 $309 $314 $458 forward $435 $-1 #
coedge $-1 $309 $443 $437 $597 reversed $435 $-1 #
vertex $-1 $310 $607 #
straight-curve $-1 0 37.680401452918737 14.213608143509205 -1 0 0 I I #
coedge $-1 $311 $438 $313 $457 reversed $190 $-1 #
vertex $-1 $449 $608 #
straight-curve $-1 0 -37.680401452918737 14.213608143509205 1 0 0 I I #
edge $-1 $316 -14.213608143509205 $446 14.213608143509205 $313 $609 forward 7 unknown #
edge $-1 $317 -14.213608143509205 $445 14.213608143509205 $314 $610 forward 7 unknown #
point $-1 55.360576189458911 -37.680401452918737 14.213608143509205 #
point $-1 55.360576189458911 37.680401452918737 14.213608143509205 #
face $-1 $-1 $611 $46 $-1 $612 reversed single #
loop $-1 $-1 $329 $319 #
plane-surface $-1 0 -37.680401452918737 0 0 1 0 0 0 1 forward_v I I I I #
coedge $-1 $613 $322 $468 $614 forward $198 $-1 #
coedge $-1 $322 $613 $615 $616 forward $198 $-1 #
edge $-1 $617 -55.360576189458911 $469 55.360576189458911 $322 $618 forward 7 unknown #
coedge $-1 $324 $323 $619 $620 reversed $125 $-1 #
coedge $-1 $325 $331 $464 $614 reversed $320 $-1 #
vertex $-1 $614 $621 #
straight-curve $-1 55.360576189458911 -26.796665134634903 -5.9519782323412489 0 0 1 I I #
coedge $-1 $619 $622 $327 $472 forward $611 $-1 #
edge $-1 $477 -21.561134806030328 $473 -10.677398487746494 $471 $623 forward 7 unknown #
vertex $-1 $472 $624 #
straight-curve $-1 0 -26.796665134634903 -9.5943047858557904 -1 0 0 I I #
coedge $-1 $625 $329 $622 $626 forward $462 $-1 #
coedge $-1 $329 $625 $331 $479 reversed $462 $-1 #
vertex $-1 $626 $627 #
straight-curve $-1 0 -37.680401452918737 -9.5943047858557904 -1 0 0 I I #
edge $-1 $333 9.5943047858557904 $628 14.213608143509205 $331 $629 forward 7 unknown #
point $-1 55.360576189458911 -26.796665134634903 -9.5943047858557904 #
point $-1 55.360576189458911 -37.680401452918737 -9.5943047858557904 #
face $-1 $-1 $496 $47 $-1 $630 reversed single #
loop $-1 $-1 $488 $335 #
plane-surface $-1 -55.360576189458911 0 0 1 0 0 0 0 -1 forward_v I I I I #
coedge $-1 $631 $632 $338 $487 forward $336 $-1 #
coedge $-1 $339 $338 $346 $501 reversed $129 $-1 #
edge $-1 $633 -55.360576189458911 $490 55.360576189458911 $485 $634 forward 7 unknown #
coedge $-1 $635 $340 $342 $493 forward $483 $-1 #
coedge $-1 $340 $635 $631 $636 reversed $483 $-1 #
vertex $-1 $636 $637 #
vertex $-1 $493 $638 #
straight-curve $-1 -55.360576189458911 26.7966651346349 -5.9519782323412489 0 0 1 I I #
edge $-1 $491 10.67739848774649 $497 21.561134806030328 $488 $639 forward 7 unknown #
coedge $-1 $640 $343 $347 $502 forward $496 $-1 #
coedge $-1 $343 $640 $635 $641 reversed $496 $-1 #
loop $-1 $-1 $343 $482 #
vertex $-1 $641 $642 #
straight-curve $-1 0 37.680401452918737 -9.5943047858557904 1 0 0 I I #
straight-curve $-1 0 26.7966651346349 -9.5943047858557904 1 0 0 I I #
coedge $-1 $347 $346 $632 $643 reversed $206 $-1 #
edge $-1 $349 3.6423265535145415 $633 8.2616299111679563 $346 $644 forward 7 unknown #
edge $-1 $348 9.5943047858557904 $645 14.213608143509205 $347 $646 forward 7 unknown #
point $-1 55.360576189458911 37.680401452918737 -9.5943047858557904 #
point $-1 55.360576189458911 26.7966651346349 -9.5943047858557904 #
loop $-1 $-1 $359 $351 #
plane-surface $-1 55.360576189458911 0 0 -1 0 0 0 0 1 forward_v I I I I #
coedge $-1 $508 $354 $356 $512 reversed $214 $-1 #
coedge $-1 $354 $507 $647 $648 reversed $214 $-1 #
coedge $-1 $362 $357 $354 $510 forward $352 $-1 #
edge $-1 $513 11.557438085638417 $649 22.218935750384588 $509 $650 forward 7 unknown #
coedge $-1 $356 $355 $516 $651 reversed $133 $-1 #
edge $-1 $652 -110.72115237891782 $513 -94.470331418338247 $507 $653 forward 7 unknown #
vertex $-1 $358 $654 #
straight-curve $-1 44.699078524712732 -11.225772273885132 14.213608143509198 0 -1 0 I I #
coedge $-1 $647 $359 $362 $520 reversed $505 $-1 #
coedge $-1 $359 $647 $511 $651 forward $505 $-1 #
vertex $-1 $360 $655 #
straight-curve $-1 55.360576189458911 -18.106423960905623 79.075441878739895 0 0 1 I I #
straight-curve $-1 -17.279034473246824 -18.106423960905623 85.51127309477404 0.65605901945558964 0 -0.75470958851134928 I I #
edge $-1 $649 -26.796665134634907 $363 -18.106423960905623 $515 $656 forward 7 unknown #
point $-1 55.360576189458911 -18.106423960905623 14.213608143509205 #
point $-1 44.699078524712739 -18.106423960905623 14.213608143509205 #
edge $-1 $657 1 $657 0 $366 $-1 forward 7 unknown #
vertex $-1 $367 $658 #
ellipse-curve $-1 48.716922423331617 -25.058616899889046 6.9399921256391632 0.75470958851134928 0 0.65605901945558964 0.32802950972779482 0 -0.37735479425567464 1 I I #
point $-1 50.357856866813613 -25.058616899889046 7.7039281491882168 #
edge $-1 $659 1 $659 0 $370 $-1 forward 7 unknown #
vertex $-1 $371 $660 #
ellipse-curve $-1 48.716922423331617 -22.451544547770261 6.9399921256391632 0.75470958851134928 0 0.65605901945558964 0.32802950972779482 0 -0.37735479425567464 1 I I #
point $-1 50.357856866813613 -22.451544547770261 7.7039281491882168 #
edge $-1 $661 1 $661 0 $374 $-1 forward 7 unknown #
vertex $-1 $375 $662 #
ellipse-curve $-1 48.716922423331617 -19.844472195651477 6.9399921256391632 0.75470958851134928 0 0.65605901945558964 0.32802950972779482 0 -0.37735479425567464 1 I I #
point $-1 50.357856866813613 -19.844472195651477 7.7039281491882168 #
plane-surface $-1 0 0 14.213608143509205 0 0 1 1 0 0 forward_v I I I I #
coedge $-1 $546 $545 $538 $663 forward $379 $-1 #
coedge $-1 $538 $381 $383 $542 reversed $243 $-1 #
coedge $-1 $381 $537 $536 $663 reversed $243 $-1 #
coedge $-1 $389 $384 $381 $540 forward $390 $-1 #
edge $-1 $543 11.557438085638417 $664 22.218935750384588 $539 $665 forward 7 unknown #
coedge $-1 $383 $382 $546 $666 reversed $152 $-1 #
edge $-1 $667 -110.72115237891782 $543 -94.470331418338247 $537 $668 forward 7 unknown #
vertex $-1 $385 $669 #
straight-curve $-1 44.699078524712732 11.225772273885131 14.213608143509198 0 -1 0 I I #
coedge $-1 $536 $386 $389 $550 reversed $379 $-1 #
coedge $-1 $386 $536 $541 $666 forward $379 $-1 #
vertex $-1 $387 $670 #
straight-curve $-1 55.360576189458911 26.796665134634903 79.075441878739895 0 0 1 I I #
straight-curve $-1 -17.279034473246824 26.796665134634903 85.51127309477404 0.65605901945558964 0 -0.75470958851134928 I I #
edge $-1 $664 18.106423960905619 $391 26.796665134634903 $545 $671 forward 7 unknown #
point $-1 55.360576189458911 26.796665134634903 14.213608143509205 #
point $-1 44.699078524712739 26.796665134634903 14.213608143509205 #
edge $-1 $672 1 $672 0 $394 $-1 forward 7 unknown #
vertex $-1 $395 $673 #
ellipse-curve $-1 48.716922423331617 19.844472195651477 6.9399921256391632 0.75470958851134928 0 0.65605901945558964 0.32802950972779482 0 -0.37735479425567464 1 I I #
point $-1 50.357856866813613 19.844472195651477 7.7039281491882168 #
edge $-1 $674 1 $674 0 $398 $-1 forward 7 unknown #
vertex $-1 $399 $675 #
ellipse-curve $-1 48.716922423331617 22.451544547770261 6.9399921256391632 0.75470958851134928 0 0.65605901945558964 0.32802950972779482 0 -0.37735479425567464 1 I I #
point $-1 50.357856866813613 22.451544547770261 7.7039281491882168 #
edge $-1 $676 1 $676 0 $402 $-1 forward 7 unknown #
vertex $-1 $403 $677 #
ellipse-curve $-1 48.716922423331617 25.058616899889046 6.9399921256391632 0.75470958851134928 0 0.65605901945558964 0.32802950972779482 0 -0.37735479425567464 1 I I #
point $-1 50.357856866813613 25.058616899889046 7.7039281491882168 #
plane-surface $-1 0 0 14.213608143509205 0 0 1 1 0 0 forward_v I I I I #
coedge $-1 $576 $575 $568 $678 forward $407 $-1 #
coedge $-1 $568 $409 $411 $572 reversed $272 $-1 #
coedge $-1 $409 $567 $566 $678 reversed $272 $-1 #
coedge $-1 $417 $412 $409 $570 forward $418 $-1 #
edge $-1 $573 -24.722699812947262 $679 -8.6395182061595079 $569 $680 forward 7 unknown #
coedge $-1 $411 $410 $576 $681 reversed $171 $-1 #
edge $-1 $682 1.8828204911120975e-014 $573 21.310424799212768 $567 $683 forward 7 unknown #
vertex $-1 $413 $684 #
straight-curve $-1 -39.277394582671157 -10.541891774873404 14.213608143509205 0 1 0 I I #
coedge $-1 $566 $414 $417 $580 reversed $407 $-1 #
coedge $-1 $414 $566 $571 $681 forward $407 $-1 #
vertex $-1 $415 $685 #
straight-curve $-1 -55.360576189458911 -26.796665134634907 41.89751251906474 0 0 1 I I #
straight-curve $-1 -55.360576189458925 -26.796665134634907 0.23271137234370087 -0.75470957328743171 0 -0.6560590369687036 I I #
edge $-1 $679 15.37090196485871 $419 26.796665134634907 $575 $686 forward 7 unknown #
point $-1 -55.360576189458911 -26.796665134634907 14.213608143509205 #
point $-1 -39.277394582671157 -26.796665134634907 14.213608143509205 #
edge $-1 $687 1 $687 0 $422 $-1 forward 7 unknown #
vertex $-1 $423 $688 #
ellipse-curve $-1 -45.781880728112689 -24.511512500679665 5.4549231585780422 -0.6560590369687036 0 0.75470957328743171 0.75470957328743171 0 0.6560590369687036 1 I I #
point $-1 -46.564275812777602 -24.511512500679665 7.8792187948951584 #
edge $-1 $689 1 $689 0 $426 $-1 forward 7 unknown #
vertex $-1 $427 $690 #
ellipse-curve $-1 -45.781880728112689 -21.083783549746808 5.4549231585780422 -0.6560590369687036 0 0.75470957328743171 0.75470957328743171 0 0.6560590369687036 1 I I #
point $-1 -46.564275812777602 -21.083783549746808 7.8792187948951584 #
edge $-1 $691 1 $691 0 $430 $-1 forward 7 unknown #
vertex $-1 $431 $692 #
ellipse-curve $-1 -45.781880728112689 -17.656054598813949 5.4549231585780422 -0.6560590369687036 0 0.75470957328743171 0.75470957328743171 0 0.6560590369687036 1 I I #
point $-1 -46.564275812777602 -17.656054598813949 7.8792187948951584 #
plane-surface $-1 55.360576189458911 0 0 -1 0 0 0 0 1 forward_v I I I I #
coedge $-1 $439 $437 $441 $600 reversed $301 $-1 #
edge $-1 $452 -14.213608143509205 $602 14.213608143509205 $451 $693 forward 7 unknown #
vertex $-1 $600 $694 #
straight-curve $-1 -55.360576189458911 -37.680401452918737 0 0 0 -1 I I #
edge $-1 $598 -37.680401452918737 $602 37.680401452918737 $596 $695 forward 7 unknown #
straight-curve $-1 0 -37.680401452918737 -14.213608143509205 -1 0 0 I I #
vertex $-1 $444 $696 #
straight-curve $-1 0 37.680401452918737 -14.213608143509205 1 0 0 I I #
point $-1 55.360576189458911 37.680401452918737 -14.213608143509205 #
point $-1 55.360576189458911 -37.680401452918737 -14.213608143509205 #
straight-curve $-1 -55.360576189458911 0 14.213608143509205 0 -1 0 I I #
point $-1 -55.360576189458911 37.680401452918737 14.213608143509205 #
point $-1 -55.360576189458911 -37.680401452918737 14.213608143509205 #
straight-curve $-1 55.360576189458911 -37.680401452918737 0 0 0 -1 I I #
straight-curve $-1 55.360576189458911 37.680401452918737 0 0 0 -1 I I #
loop $-1 $-1 $619 $461 #
plane-surface $-1 -55.360576189458911 0 0 1 0 0 0 0 -1 forward_v I I I I #
coedge $-1 $465 $464 $625 $697 forward $198 $-1 #
edge $-1 $469 26.796665134634903 $628 37.680401452918737 $468 $698 forward 7 unknown #
coedge $-1 $622 $619 $465 $616 reversed $611 $-1 #
edge $-1 $699 -37.680401452918737 $617 -26.796665134634903 $615 $700 forward 7 unknown #
vertex $-1 $620 $701 #
straight-curve $-1 0 -26.796665134634903 -14.213608143509205 1 0 0 I I #
coedge $-1 $615 $471 $467 $620 forward $611 $-1 #
edge $-1 $473 3.6423265535145415 $617 8.2616299111679563 $619 $702 forward 7 unknown #
point $-1 55.360576189458911 -26.796665134634903 -14.213608143509205 #
coedge $-1 $471 $615 $475 $626 reversed $611 $-1 #
straight-curve $-1 -55.360576189458911 -16.119266646888409 -9.5943047858557904 0 1 0 I I #
point $-1 -55.360576189458911 -26.796665134634903 -9.5943047858557904 #
coedge $-1 $476 $475 $613 $697 reversed $462 $-1 #
edge $-1 $477 9.5943047858557904 $699 14.213608143509205 $622 $703 forward 7 unknown #
point $-1 -55.360576189458911 -37.680401452918737 -9.5943047858557904 #
vertex $-1 $479 $704 #
straight-curve $-1 55.360576189458911 -37.680401452918737 0 0 0 -1 I I #
plane-surface $-1 0 37.680401452918737 0 0 -1 0 0 0 -1 forward_v I I I I #
coedge $-1 $705 $485 $489 $636 forward $336 $-1 #
coedge $-1 $485 $705 $500 $643 forward $336 $-1 #
vertex $-1 $487 $706 #
straight-curve $-1 0 26.7966651346349 -14.213608143509205 -1 0 0 I I #
coedge $-1 $489 $488 $495 $641 forward $483 $-1 #
edge $-1 $490 26.7966651346349 $707 37.680401452918737 $489 $708 forward 7 unknown #
point $-1 -55.360576189458911 26.7966651346349 -14.213608143509205 #
point $-1 -55.360576189458911 26.7966651346349 -9.5943047858557904 #
straight-curve $-1 -55.360576189458911 16.119266646888409 -9.5943047858557904 0 1 0 I I #
coedge $-1 $495 $494 $705 $709 reversed $496 $-1 #
edge $-1 $497 9.5943047858557904 $707 14.213608143509205 $495 $710 forward 7 unknown #
point $-1 -55.360576189458911 37.680401452918737 -9.5943047858557904 #
edge $-1 $645 -37.680401452918737 $633 -26.7966651346349 $500 $711 forward 7 unknown #
straight-curve $-1 55.360576189458911 26.7966651346349 -5.9519782323412489 0 0 -1 I I #
vertex $-1 $643 $712 #
straight-curve $-1 55.360576189458911 37.680401452918737 0 0 0 -1 I I #
coedge $-1 $516 $515 $508 $648 forward $505 $-1 #
edge $-1 $649 64.86183373523069 $652 77.126484135361309 $647 $713 forward 7 unknown #
vertex $-1 $520 $714 #
straight-curve $-1 33.141640439074322 -26.796665134634907 14.213608143509205 1 0 0 I I #
edge $-1 $652 -15.570892860749774 $517 -6.8806516870204906 $516 $715 forward 7 unknown #
vertex $-1 $651 $716 #
straight-curve $-1 -17.279034473246824 -26.796665134634907 85.51127309477404 -0.65605901945558964 0 0.75470958851134928 I I #
point $-1 44.699078524712739 -26.796665134634907 14.213608143509205 #
point $-1 55.360576189458911 -18.106423960905623 1.9489577433785854 #
straight-curve $-1 55.360576189458911 0 14.213608143509205 0 1 0 I I #
vertex $-1 $523 $717 #
point $-1 49.044951933059409 -25.058616899889046 6.5626373313834883 #
vertex $-1 $527 $718 #
point $-1 49.044951933059409 -22.451544547770261 6.5626373313834883 #
vertex $-1 $531 $719 #
point $-1 49.044951933059409 -19.844472195651477 6.5626373313834883 #
edge $-1 $664 64.86183373523069 $667 77.126484135361309 $536 $720 forward 7 unknown #
vertex $-1 $550 $721 #
straight-curve $-1 33.141640439074322 18.106423960905619 14.213608143509205 1 0 0 I I #
edge $-1 $667 6.8806516870204888 $547 15.570892860749773 $546 $722 forward 7 unknown #
vertex $-1 $666 $723 #
straight-curve $-1 -17.279034473246824 18.106423960905619 85.51127309477404 -0.65605901945558964 0 0.75470958851134928 I I #
point $-1 44.699078524712739 18.106423960905619 14.213608143509205 #
point $-1 55.360576189458911 26.796665134634903 1.9489577433785854 #
straight-curve $-1 55.360576189458911 0 14.213608143509205 0 1 0 I I #
vertex $-1 $553 $724 #
point $-1 49.044951933059409 19.844472195651477 6.5626373313834883 #
vertex $-1 $557 $725 #
point $-1 49.044951933059409 22.451544547770261 6.5626373313834883 #
vertex $-1 $561 $726 #
point $-1 49.044951933059409 25.058616899889046 6.5626373313834883 #
edge $-1 $679 27.683904375555535 $682 41.664801146721025 $566 $727 forward 7 unknown #
vertex $-1 $580 $728 #
straight-curve $-1 -64.000094395618419 -15.37090196485871 14.213608143509205 -1 0 0 I I #
edge $-1 $682 4.829010189985306 $577 16.254773359761501 $576 $729 forward 7 unknown #
vertex $-1 $681 $730 #
straight-curve $-1 -55.360576189458925 -15.37090196485871 0.23271137234370087 0.75470957328743171 0 0.6560590369687036 I I #
point $-1 -39.277394582671157 -15.37090196485871 14.213608143509205 #
point $-1 -55.360576189458911 -26.796665134634907 0.23271137234371322 #
straight-curve $-1 -55.360576189458911 0 14.213608143509205 0 -1 0 I I #
vertex $-1 $583 $731 #
point $-1 -45.027171154825261 -24.511512500679665 6.1109821955467458 #
vertex $-1 $587 $732 #
point $-1 -45.027171154825261 -21.083783549746808 6.1109821955467458 #
vertex $-1 $591 $733 #
point $-1 -45.027171154825261 -17.656054598813949 6.1109821955467458 #
straight-curve $-1 -55.360576189458911 37.680401452918737 0 0 0 -1 I I #
point $-1 -55.360576189458911 -37.680401452918737 -14.213608143509205 #
straight-curve $-1 -55.360576189458911 0 -14.213608143509205 0 1 0 I I #
point $-1 -55.360576189458911 37.680401452918737 -14.213608143509205 #
edge $-1 $628 -55.360576189458911 $699 55.360576189458911 $625 $734 forward 7 unknown #
straight-curve $-1 55.360576189458911 0 -14.213608143509205 0 -1 0 I I #
vertex $-1 $616 $735 #
straight-curve $-1 -55.360576189458911 0 -14.213608143509205 0 1 0 I I #
point $-1 -55.360576189458911 -26.796665134634903 -14.213608143509205 #
straight-curve $-1 -55.360576189458911 -26.796665134634903 -5.9519782323412489 0 0 -1 I I #
straight-curve $-1 -55.360576189458911 -37.680401452918737 0 0 0 -1 I I #
point $-1 55.360576189458911 -37.680401452918737 -14.213608143509205 #
coedge $-1 $632 $631 $640 $709 forward $336 $-1 #
point $-1 55.360576189458911 26.7966651346349 -14.213608143509205 #
vertex $-1 $709 $736 #
straight-curve $-1 -55.360576189458911 0 -14.213608143509205 0 1 0 I I #
edge $-1 $707 -55.360576189458911 $645 55.360576189458911 $640 $737 forward 7 unknown #
straight-curve $-1 -55.360576189458911 37.680401452918737 0 0 0 -1 I I #
straight-curve $-1 55.360576189458911 0 -14.213608143509205 0 -1 0 I I #
point $-1 55.360576189458911 37.680401452918737 -14.213608143509205 #
straight-curve $-1 55.360576189458911 -26.796665134634907 79.075441878739895 0 0 -1 I I #
point $-1 55.360576189458911 -26.796665134634907 14.213608143509205 #
straight-curve $-1 55.360576189458911 -11.225772273885132 1.9489577433785996 0 1 0 I I #
point $-1 55.360576189458911 -26.796665134634907 1.9489577433785854 #
point $-1 48.339567629075937 -25.058616899889046 6.6119626159113682 #
point $-1 48.339567629075937 -22.451544547770261 6.6119626159113682 #
point $-1 48.339567629075937 -19.844472195651477 6.6119626159113682 #
straight-curve $-1 55.360576189458911 18.106423960905619 79.075441878739895 0 0 -1 I I #
point $-1 55.360576189458911 18.106423960905619 14.213608143509205 #
straight-curve $-1 55.360576189458911 11.225772273885131 1.9489577433785996 0 1 0 I I #
point $-1 55.360576189458911 18.106423960905619 1.9489577433785854 #
point $-1 48.339567629075937 19.844472195651477 6.6119626159113682 #
point $-1 48.339567629075937 22.451544547770261 6.6119626159113682 #
point $-1 48.339567629075937 25.058616899889046 6.6119626159113682 #
straight-curve $-1 -55.360576189458911 -15.37090196485871 41.89751251906474 0 0 -1 I I #
point $-1 -55.360576189458911 -15.37090196485871 14.213608143509205 #
straight-curve $-1 -55.360576189458911 -10.541891774873404 0.23271137234371364 0 -1 0 I I #
point $-1 -55.360576189458911 -15.37090196485871 0.23271137234371322 #
point $-1 -45.12582169114399 -24.511512500679665 4.7002135852906104 #
point $-1 -45.12582169114399 -21.083783549746808 4.7002135852906104 #
point $-1 -45.12582169114399 -17.656054598813949 4.7002135852906104 #
straight-curve $-1 0 -37.680401452918737 -14.213608143509205 -1 0 0 I I #
point $-1 -55.360576189458911 -37.680401452918737 -14.213608143509205 #
point $-1 -55.360576189458911 37.680401452918737 -14.213608143509205 #
straight-curve $-1 0 37.680401452918737 -14.213608143509205 1 0 0 I I #
End-of-ACIS-data 