500 0 11 0           
7 Unknown 11 ACIS 5.0 NT 24 Thu Mar 25 15:41:36 1999 
-1 9.9999999999999995e-007 1e-010 
body $-1 $11 $-1 $12 #
body $-1 $13 $-1 $14 #
body $-1 $15 $-1 $16 #
body $-1 $17 $-1 $18 #
body $-1 $19 $-1 $20 #
body $-1 $21 $-1 $22 #
body $-1 $23 $-1 $24 #
body $-1 $25 $-1 $26 #
body $-1 $27 $-1 $28 #
body $-1 $29 $-1 $30 #
body $-1 $31 $-1 $32 #
lump $-1 $-1 $33 $0 #
transform $-1 1 0 0 0 1 0 0 0 1 73.276161992248291 47.225745077434595 14.744803766432527 1 rotate no_reflect no_shear #
lump $-1 $-1 $34 $1 #
transform $-1 1 0 0 0 1 0 0 0 1 73.276161992248291 47.225745077434595 14.744803766432527 1 rotate no_reflect no_shear #
lump $-1 $-1 $35 $2 #
transform $-1 1 0 0 0 1 0 0 0 1 73.276161992248291 47.225745077434595 14.744803766432527 1 rotate no_reflect no_shear #
lump $-1 $-1 $36 $3 #
transform $-1 1 0 0 0 1 0 0 0 1 73.276161992248291 47.225745077434595 14.744803766432527 1 rotate no_reflect no_shear #
lump $-1 $-1 $37 $4 #
transform $-1 1 0 0 0 1 0 0 0 1 73.276161992248291 47.225745077434595 14.744803766432527 1 rotate no_reflect no_shear #
lump $-1 $-1 $38 $5 #
transform $-1 1 0 0 0 1 0 0 0 1 73.276161992248291 47.225745077434595 14.744803766432527 1 rotate no_reflect no_shear #
lump $-1 $-1 $39 $6 #
transform $-1 1 0 0 0 1 0 0 0 1 73.276161992248291 47.225745077434595 14.744803766432527 1 rotate no_reflect no_shear #
lump $-1 $-1 $40 $7 #
transform $-1 1 0 0 0 1 0 0 0 1 73.276161992248291 47.225745077434595 14.744803766432527 1 rotate no_reflect no_shear #
lump $-1 $-1 $41 $8 #
transform $-1 1 0 0 0 1 0 0 0 1 73.276161992248291 47.225745077434595 14.744803766432527 1 rotate no_reflect no_shear #
lump $-1 $-1 $42 $9 #
transform $-1 1 0 0 0 1 0 0 0 1 73.276161992248291 47.225745077434595 14.744803766432527 1 rotate no_reflect no_shear #
lump $-1 $-1 $43 $10 #
transform $-1 1 0 0 0 1 0 0 0 1 73.276161992248291 47.225745077434595 14.744803766432527 1 rotate no_reflect no_shear #
shell $-1 $-1 $-1 $44 $-1 $11 #
shell $-1 $-1 $-1 $45 $-1 $13 #
shell $-1 $-1 $-1 $46 $-1 $15 #
shell $-1 $-1 $-1 $47 $-1 $17 #
shell $-1 $-1 $-1 $48 $-1 $19 #
shell $-1 $-1 $-1 $49 $-1 $21 #
shell $-1 $-1 $-1 $50 $-1 $23 #
shell $-1 $-1 $-1 $51 $-1 $25 #
shell $-1 $-1 $-1 $52 $-1 $27 #
shell $-1 $-1 $-1 $53 $-1 $29 #
shell $-1 $-1 $-1 $54 $-1 $31 #
face $-1 $55 $56 $33 $-1 $57 forward single #
face $-1 $58 $59 $34 $-1 $60 forward single #
face $-1 $61 $62 $35 $-1 $63 reversed single #
face $-1 $64 $65 $36 $-1 $66 forward single #
face $-1 $67 $68 $37 $-1 $69 forward single #
face $-1 $70 $71 $38 $-1 $72 reversed single #
face $-1 $73 $74 $39 $-1 $75 forward single #
face $-1 $76 $77 $40 $-1 $78 forward single #
face $-1 $79 $80 $41 $-1 $81 reversed single #
face $-1 $82 $83 $42 $-1 $84 forward single #
face $-1 $85 $86 $43 $-1 $87 forward single #
face $-1 $88 $89 $33 $-1 $90 reversed single #
loop $-1 $-1 $91 $44 #
plane-surface $-1 0 0 14.744803766432527 0 0 1 1 0 0 forward_v I I I I #
face $-1 $92 $93 $34 $-1 $94 reversed single #
loop $-1 $-1 $95 $45 #
plane-surface $-1 0 -47.225745077434595 0 0 1 0 0 0 1 forward_v I I I I #
face $-1 $96 $97 $35 $-1 $98 reversed single #
loop $-1 $-1 $99 $46 #
plane-surface $-1 -194.77354610392408 -10.474555363220286 84.36937136231036 0 1 0 -0.82903758062907751 0 0.55919289150049634 forward_v I I I I #
face $-1 $100 $101 $36 $-1 $102 forward single #
loop $-1 $103 $104 $47 #
cone-surface $-1 -67.729294100022969 -6.1838086536069312 7.644200581851071 0.82903758062907751 0 -0.55919289150049634 0.55919289150049634 0 0.82903758062907751 1 I I 0 1 1 forward I I I I #
face $-1 $105 $106 $37 $-1 $107 forward single #
loop $-1 $108 $109 $48 #
cone-surface $-1 -67.729294100022969 0.25231141081310682 7.644200581851071 0.82903758062907751 0 -0.55919289150049634 0.55919289150049634 0 0.82903758062907751 1 I I 0 1 1 forward I I I I #
face $-1 $110 $111 $38 $-1 $112 reversed single #
loop $-1 $-1 $113 $49 #
plane-surface $-1 -194.77354610392408 13.069222312680271 84.36937136231036 0 1 0 -0.82903758062907751 0 0.55919289150049634 forward_v I I I I #
face $-1 $114 $115 $39 $-1 $116 forward single #
loop $-1 $117 $118 $50 #
cone-surface $-1 -67.729294100022969 17.359969022293626 7.644200581851071 0.82903758062907751 0 -0.55919289150049634 0.55919289150049634 0 0.82903758062907751 1 I I 0 1 1 forward I I I I #
face $-1 $119 $120 $40 $-1 $121 forward single #
loop $-1 $122 $123 $51 #
cone-surface $-1 -67.729294100022969 23.796089086713664 7.644200581851071 0.82903758062907751 0 -0.55919289150049634 0.55919289150049634 0 0.82903758062907751 1 I I 0 1 1 forward I I I I #
face $-1 $124 $125 $41 $-1 $126 reversed single #
loop $-1 $-1 $127 $52 #
plane-surface $-1 112.8225282989159 -12.866213912836201 207.25425312039442 0 -1 0 -0.82903758062907751 0 -0.55919289150049634 forward_v I I I I #
face $-1 $128 $129 $42 $-1 $130 forward single #
loop $-1 $131 $132 $53 #
cone-surface $-1 68.034877114331536 -20.065922137292244 8.2284385928124397 -0.82903758062907751 0 -0.55919289150049634 0.55919289150049634 0 -0.82903758062907751 1 I I 0 1 1 forward I I I I #
face $-1 $133 $134 $43 $-1 $135 forward single #
loop $-1 $136 $137 $54 #
cone-surface $-1 68.034877114331536 -15.746097202618618 8.2284385928124397 -0.82903758062907751 0 -0.55919289150049634 0.55919289150049634 0 -0.82903758062907751 1 I I 0 1 1 forward I I I I #
face $-1 $138 $139 $33 $-1 $140 reversed single #
loop $-1 $-1 $141 $55 #
plane-surface $-1 0 0 -14.744803766432527 0 0 1 1 0 0 forward_v I I I I #
coedge $-1 $142 $143 $144 $145 forward $56 $-1 #
face $-1 $146 $147 $34 $-1 $148 forward single #
loop $-1 $-1 $149 $58 #
plane-surface $-1 -73.276161992248291 0 0 1 0 0 0 0 -1 forward_v I I I I #
coedge $-1 $150 $151 $152 $153 forward $59 $-1 #
face $-1 $154 $155 $35 $-1 $156 reversed single #
loop $-1 $-1 $157 $61 #
plane-surface $-1 -73.276161992248305 -2.9657486213969122 2.4183535573021828 -0.82903758062907751 0 0.55919289150049634 0.55919289150049634 0 0.82903758062907751 forward_v I I I I #
coedge $-1 $158 $159 $160 $161 reversed $62 $-1 #
face $-1 $-1 $162 $36 $-1 $163 forward single #
loop $-1 $164 $165 $64 #
cone-surface $-1 -65.92505511225356 -6.1838086536069312 6.4272260560845407 0.82903758062907751 0 -0.55919289150049634 0.27959644575024817 0 0.41451879031453875 1 I I -0.70710678118654746 0.70710678118654746 0.5 forward I I I I #
loop $-1 $-1 $166 $47 #
coedge $-1 $104 $104 $167 $168 reversed $65 $-1 #
face $-1 $-1 $169 $37 $-1 $170 forward single #
loop $-1 $171 $172 $67 #
cone-surface $-1 -65.92505511225356 0.25231141081310682 6.4272260560845407 0.82903758062907751 0 -0.55919289150049634 0.27959644575024817 0 0.41451879031453875 1 I I -0.70710678118654746 0.70710678118654746 0.5 forward I I I I #
loop $-1 $-1 $173 $48 #
coedge $-1 $109 $109 $174 $175 reversed $68 $-1 #
face $-1 $176 $177 $38 $-1 $178 reversed single #
loop $-1 $-1 $179 $70 #
plane-surface $-1 -73.276161992248305 20.578029054503645 2.4183535573021828 -0.82903758062907751 0 0.55919289150049634 0.55919289150049634 0 0.82903758062907751 forward_v I I I I #
coedge $-1 $180 $181 $182 $183 reversed $71 $-1 #
face $-1 $-1 $184 $39 $-1 $185 forward single #
loop $-1 $186 $187 $73 #
cone-surface $-1 -65.92505511225356 17.359969022293626 6.4272260560845407 0.82903758062907751 0 -0.55919289150049634 0.27959644575024817 0 0.41451879031453875 1 I I -0.70710678118654746 0.70710678118654746 0.5 forward I I I I #
loop $-1 $-1 $188 $50 #
coedge $-1 $118 $118 $189 $190 reversed $74 $-1 #
face $-1 $-1 $191 $40 $-1 $192 forward single #
loop $-1 $193 $194 $76 #
cone-surface $-1 -65.92505511225356 23.796089086713664 6.4272260560845407 0.82903758062907751 0 -0.55919289150049634 0.27959644575024817 0 0.41451879031453875 1 I I -0.70710678118654746 0.70710678118654746 0.5 forward I I I I #
loop $-1 $-1 $195 $51 #
coedge $-1 $123 $123 $196 $197 reversed $77 $-1 #
face $-1 $198 $199 $41 $-1 $200 reversed single #
loop $-1 $-1 $201 $79 #
plane-surface $-1 -8.6748558127598727 -17.906009669955431 125.30323531538625 0.82903758062907751 0 0.55919289150049634 0.55919289150049634 0 -0.82903758062907751 forward_v I I I I #
coedge $-1 $202 $203 $204 $205 reversed $80 $-1 #
face $-1 $-1 $206 $42 $-1 $207 forward single #
loop $-1 $208 $209 $82 #
cone-surface $-1 66.068281665644236 -20.065922137292244 6.9019532548031446 -0.82903758062907751 0 -0.55919289150049634 0.27959644575024817 0 -0.41451879031453875 1 I I -0.70710678118654746 0.70710678118654746 0.5 forward I I I I #
loop $-1 $-1 $210 $53 #
coedge $-1 $132 $132 $211 $212 reversed $83 $-1 #
face $-1 $-1 $213 $43 $-1 $214 forward single #
loop $-1 $215 $216 $85 #
cone-surface $-1 66.068281665644236 -15.746097202618618 6.9019532548031446 -0.82903758062907751 0 -0.55919289150049634 0.27959644575024817 0 -0.41451879031453875 1 I I -0.70710678118654746 0.70710678118654746 0.5 forward I I I I #
loop $-1 $-1 $217 $54 #
coedge $-1 $137 $137 $218 $219 reversed $86 $-1 #
face $-1 $220 $221 $33 $-1 $222 reversed single #
loop $-1 $-1 $223 $88 #
plane-surface $-1 0 -47.225745077434595 0 0 1 0 0 0 1 forward_v I I I I #
coedge $-1 $224 $225 $226 $227 forward $89 $-1 #
coedge $-1 $228 $91 $229 $230 forward $56 $-1 #
coedge $-1 $91 $228 $231 $232 forward $56 $-1 #
coedge $-1 $233 $234 $91 $145 reversed $235 $-1 #
edge $-1 $236 -47.225745077434595 $237 47.225745077434595 $144 $238 forward 7 unknown #
face $-1 $239 $240 $34 $-1 $241 reversed single #
loop $-1 $-1 $242 $92 #
plane-surface $-1 0 -56.031885293987955 -4.684990629182554 0 0 1 1 0 0 forward_v I I I I #
coedge $-1 $243 $244 $151 $245 forward $93 $-1 #
coedge $-1 $246 $95 $247 $248 reversed $59 $-1 #
coedge $-1 $95 $246 $149 $245 reversed $59 $-1 #
coedge $-1 $249 $242 $95 $153 reversed $147 $-1 #
edge $-1 $250 -73.276161992248291 $251 73.276161992248291 $152 $252 forward 7 unknown #
face $-1 $253 $254 $35 $-1 $255 forward single #
loop $-1 $-1 $256 $96 #
plane-surface $-1 -194.77354610392408 4.543058120426462 84.36937136231036 0 -1 0 0.82903758062907751 0 -0.55919289150049634 forward_v I I I I #
coedge $-1 $257 $258 $259 $260 reversed $97 $-1 #
coedge $-1 $159 $99 $261 $262 reversed $62 $-1 #
coedge $-1 $99 $158 $257 $263 reversed $62 $-1 #
coedge $-1 $259 $264 $99 $161 forward $254 $-1 #
edge $-1 $265 24.110611059713747 $266 32.424906449254649 $160 $267 forward 7 unknown #
loop $-1 $-1 $167 $100 #
plane-surface $-1 -73.276161992248305 -2.9657486213969122 2.4183535573021828 -0.82903758062907751 0 0.55919289150049634 0.55919289150049634 0 0.82903758062907751 forward_v I I I I #
loop $-1 $-1 $268 $64 #
coedge $-1 $165 $165 $166 $269 reversed $101 $-1 #
coedge $-1 $166 $166 $165 $269 forward $103 $-1 #
coedge $-1 $167 $167 $104 $168 forward $162 $-1 #
edge $-1 $270 0 $270 6.2831853071796004 $167 $271 forward 7 unknown #
loop $-1 $-1 $174 $105 #
plane-surface $-1 -73.276161992248305 -2.9657486213969122 2.4183535573021828 -0.82903758062907751 0 0.55919289150049634 0.55919289150049634 0 0.82903758062907751 forward_v I I I I #
loop $-1 $-1 $272 $67 #
coedge $-1 $172 $172 $173 $273 reversed $106 $-1 #
coedge $-1 $173 $173 $172 $273 forward $108 $-1 #
coedge $-1 $174 $174 $109 $175 forward $169 $-1 #
edge $-1 $274 0 $274 6.2831853071796004 $174 $275 forward 7 unknown #
face $-1 $276 $277 $38 $-1 $278 forward single #
loop $-1 $-1 $279 $110 #
plane-surface $-1 -194.77354610392408 28.086835796327019 84.36937136231036 0 -1 0 0.82903758062907751 0 -0.55919289150049634 forward_v I I I I #
coedge $-1 $280 $281 $282 $283 reversed $111 $-1 #
coedge $-1 $181 $113 $284 $285 reversed $71 $-1 #
coedge $-1 $113 $180 $280 $286 reversed $71 $-1 #
coedge $-1 $282 $287 $113 $183 forward $277 $-1 #
edge $-1 $288 24.110611059713747 $289 32.424906449254649 $182 $290 forward 7 unknown #
loop $-1 $-1 $189 $114 #
plane-surface $-1 -73.276161992248305 20.578029054503645 2.4183535573021828 -0.82903758062907751 0 0.55919289150049634 0.55919289150049634 0 0.82903758062907751 forward_v I I I I #
loop $-1 $-1 $291 $73 #
coedge $-1 $187 $187 $188 $292 reversed $115 $-1 #
coedge $-1 $188 $188 $187 $292 forward $117 $-1 #
coedge $-1 $189 $189 $118 $190 forward $184 $-1 #
edge $-1 $293 0 $293 6.2831853071796004 $189 $294 forward 7 unknown #
loop $-1 $-1 $196 $119 #
plane-surface $-1 -73.276161992248305 20.578029054503645 2.4183535573021828 -0.82903758062907751 0 0.55919289150049634 0.55919289150049634 0 0.82903758062907751 forward_v I I I I #
loop $-1 $-1 $295 $76 #
coedge $-1 $194 $194 $195 $296 reversed $120 $-1 #
coedge $-1 $195 $195 $194 $296 forward $122 $-1 #
coedge $-1 $196 $196 $123 $197 forward $191 $-1 #
edge $-1 $297 0 $297 6.2831853071796004 $196 $298 forward 7 unknown #
face $-1 $299 $300 $41 $-1 $301 reversed single #
loop $-1 $-1 $302 $124 #
plane-surface $-1 112.8225282989159 -22.94580542707466 207.25425312039442 0 1 0 0.82903758062907751 0 0.55919289150049634 forward_v I I I I #
coedge $-1 $303 $304 $305 $306 reversed $125 $-1 #
coedge $-1 $203 $127 $307 $308 reversed $80 $-1 #
coedge $-1 $127 $202 $303 $309 reversed $80 $-1 #
coedge $-1 $305 $310 $127 $205 forward $311 $-1 #
edge $-1 $312 -16.864897842790342 $313 -9.4864814037023848 $204 $314 forward 7 unknown #
loop $-1 $-1 $211 $128 #
plane-surface $-1 -8.6748558127598727 -17.906009669955431 125.30323531538625 0.82903758062907751 0 0.55919289150049634 0.55919289150049634 0 -0.82903758062907751 forward_v I I I I #
loop $-1 $-1 $315 $82 #
coedge $-1 $209 $209 $210 $316 reversed $129 $-1 #
coedge $-1 $210 $210 $209 $316 forward $131 $-1 #
coedge $-1 $211 $211 $132 $212 forward $206 $-1 #
edge $-1 $317 0 $317 6.2831853071796004 $211 $318 forward 7 unknown #
loop $-1 $-1 $218 $133 #
plane-surface $-1 -8.6748558127598727 -17.906009669955431 125.30323531538625 0.82903758062907751 0 0.55919289150049634 0.55919289150049634 0 -0.82903758062907751 forward_v I I I I #
loop $-1 $-1 $319 $85 #
coedge $-1 $216 $216 $217 $320 reversed $134 $-1 #
coedge $-1 $217 $217 $216 $320 forward $136 $-1 #
coedge $-1 $218 $218 $137 $219 forward $213 $-1 #
edge $-1 $321 0 $321 6.2831853071796004 $218 $322 forward 7 unknown #
face $-1 $323 $324 $33 $-1 $325 reversed single #
loop $-1 $-1 $326 $138 #
plane-surface $-1 -73.276161992248291 0 0 1 0 0 0 0 -1 forward_v I I I I #
coedge $-1 $327 $231 $328 $329 forward $139 $-1 #
coedge $-1 $330 $141 $327 $331 forward $89 $-1 #
coedge $-1 $141 $330 $332 $333 forward $89 $-1 #
coedge $-1 $234 $233 $141 $227 reversed $235 $-1 #
edge $-1 $334 -47.225745077434595 $335 47.225745077434595 $226 $336 forward 7 unknown #
coedge $-1 $143 $142 $337 $338 forward $56 $-1 #
coedge $-1 $339 $340 $142 $230 reversed $324 $-1 #
edge $-1 $237 -73.276161992248291 $341 73.276161992248291 $229 $342 forward 7 unknown #
coedge $-1 $223 $343 $143 $232 reversed $139 $-1 #
edge $-1 $344 -73.276161992248291 $236 73.276161992248291 $231 $345 forward 7 unknown #
coedge $-1 $226 $144 $343 $346 forward $235 $-1 #
coedge $-1 $144 $226 $339 $347 reversed $235 $-1 #
loop $-1 $-1 $233 $323 #
vertex $-1 $145 $348 #
vertex $-1 $145 $349 #
straight-curve $-1 73.276161992248291 0 14.744803766432527 0 1 0 I I #
face $-1 $350 $351 $34 $-1 $352 reversed single #
loop $-1 $-1 $353 $146 #
plane-surface $-1 0 -56.031885293987955 -12.644853717790756 0 0 1 1 0 0 forward_v I I I I #
coedge $-1 $152 $354 $355 $356 forward $147 $-1 #
coedge $-1 $357 $149 $358 $359 reversed $93 $-1 #
coedge $-1 $149 $357 $249 $360 reversed $93 $-1 #
edge $-1 $250 4.684990629182554 $361 12.644853717790756 $149 $362 forward 7 unknown #
coedge $-1 $151 $150 $363 $364 forward $59 $-1 #
coedge $-1 $355 $365 $150 $248 forward $366 $-1 #
edge $-1 $367 -12.644853717790756 $251 -4.684990629182554 $247 $368 forward 7 unknown #
coedge $-1 $354 $152 $244 $360 forward $147 $-1 #
vertex $-1 $245 $369 #
vertex $-1 $356 $370 #
straight-curve $-1 0 -47.225745077434595 -4.684990629182554 1 0 0 I I #
face $-1 $-1 $371 $35 $-1 $372 reversed single #
loop $-1 $-1 $160 $154 #
plane-surface $-1 0 0 14.744803766432527 0 0 1 1 0 0 forward_v I I I I #
coedge $-1 $373 $374 $375 $376 reversed $155 $-1 #
coedge $-1 $377 $157 $159 $263 forward $97 $-1 #
coedge $-1 $157 $377 $373 $378 forward $97 $-1 #
coedge $-1 $375 $160 $157 $260 forward $254 $-1 #
edge $-1 $266 -8.9916810525218303 $379 6.0259324311249181 $259 $380 forward 7 unknown #
coedge $-1 $381 $382 $158 $262 forward $371 $-1 #
edge $-1 $383 -39.766332123852976 $265 -27.439881914722655 $261 $384 forward 7 unknown #
edge $-1 $266 -14.868385338788837 $383 -2.5250441212413278e-014 $159 $385 forward 7 unknown #
coedge $-1 $160 $375 $381 $386 forward $254 $-1 #
vertex $-1 $262 $387 #
vertex $-1 $161 $388 #
straight-curve $-1 -97.386773051962038 -10.474555363220286 14.744803766432526 1 0 0 I I #
coedge $-1 $268 $268 $-1 $389 reversed $164 $-1 #
edge $-1 $390 0 $390 6.2831853071796004 $165 $391 forward 7 unknown #
vertex $-1 $168 $392 #
ellipse-curve $-1 -69.119014297477847 -6.1838086536069312 8.5815786618673577 -0.82903758062907751 0 0.55919289150049634 0.55919289150049634 0 0.82903758062907751 1 I I #
coedge $-1 $272 $272 $-1 $393 reversed $171 $-1 #
edge $-1 $394 0 $394 6.2831853071796004 $172 $395 forward 7 unknown #
vertex $-1 $175 $396 #
ellipse-curve $-1 -69.119014297477847 0.25231141081310682 8.5815786618673577 -0.82903758062907751 0 0.55919289150049634 0.55919289150049634 0 0.82903758062907751 1 I I #
face $-1 $-1 $397 $38 $-1 $398 reversed single #
loop $-1 $-1 $182 $176 #
plane-surface $-1 0 0 14.744803766432527 0 0 1 1 0 0 forward_v I I I I #
coedge $-1 $399 $400 $401 $402 reversed $177 $-1 #
coedge $-1 $403 $179 $181 $286 forward $111 $-1 #
coedge $-1 $179 $403 $399 $404 forward $111 $-1 #
coedge $-1 $401 $182 $179 $283 forward $277 $-1 #
edge $-1 $289 2.7802077854284484 $405 17.797821269075197 $282 $406 forward 7 unknown #
coedge $-1 $407 $408 $180 $285 forward $397 $-1 #
edge $-1 $409 -39.766332123852976 $288 -27.439881914722655 $284 $410 forward 7 unknown #
edge $-1 $289 -14.868385338788837 $409 -2.5250441212413278e-014 $181 $411 forward 7 unknown #
coedge $-1 $182 $401 $407 $412 forward $277 $-1 #
vertex $-1 $183 $413 #
vertex $-1 $183 $414 #
straight-curve $-1 -97.386773051962038 13.069222312680271 14.744803766432526 1 0 0 I I #
coedge $-1 $291 $291 $-1 $415 reversed $186 $-1 #
edge $-1 $416 0 $416 6.2831853071796004 $187 $417 forward 7 unknown #
vertex $-1 $190 $418 #
ellipse-curve $-1 -69.119014297477847 17.359969022293626 8.5815786618673577 -0.82903758062907751 0 0.55919289150049634 0.55919289150049634 0 0.82903758062907751 1 I I #
coedge $-1 $295 $295 $-1 $419 reversed $193 $-1 #
edge $-1 $420 0 $420 6.2831853071796004 $194 $421 forward 7 unknown #
vertex $-1 $197 $422 #
ellipse-curve $-1 -69.119014297477847 23.796089086713664 8.5815786618673577 -0.82903758062907751 0 0.55919289150049634 0.55919289150049634 0 0.82903758062907751 1 I I #
face $-1 $-1 $311 $41 $-1 $423 forward single #
loop $-1 $-1 $424 $198 #
plane-surface $-1 73.276161992248291 0 0 -1 0 0 0 0 1 forward_v I I I I #
coedge $-1 $425 $426 $427 $428 reversed $199 $-1 #
coedge $-1 $429 $201 $203 $309 forward $125 $-1 #
coedge $-1 $201 $429 $425 $430 forward $125 $-1 #
coedge $-1 $427 $204 $201 $306 forward $311 $-1 #
edge $-1 $313 3.913209077858486 $431 13.992800592096945 $305 $432 forward 7 unknown #
coedge $-1 $433 $434 $202 $308 forward $300 $-1 #
edge $-1 $435 -99.821275356486723 $312 -88.882322793764686 $307 $436 forward 7 unknown #
edge $-1 $313 133.35756319401287 $435 146.55232398449655 $203 $437 forward 7 unknown #
coedge $-1 $204 $427 $433 $438 forward $311 $-1 #
loop $-1 $-1 $427 $299 #
vertex $-1 $308 $439 #
vertex $-1 $205 $440 #
straight-curve $-1 56.411264149457949 -12.866213912836201 14.744803766432526 -1 0 0 I I #
coedge $-1 $315 $315 $-1 $441 reversed $208 $-1 #
edge $-1 $442 0 $442 6.2831853071796004 $209 $443 forward 7 unknown #
vertex $-1 $212 $444 #
ellipse-curve $-1 69.586953772704319 -20.065922137292244 9.2753274850714966 0.82903758062907751 0 0.55919289150049634 0.55919289150049634 0 -0.82903758062907751 1 I I #
coedge $-1 $319 $319 $-1 $445 reversed $215 $-1 #
edge $-1 $446 0 $446 6.2831853071796004 $216 $447 forward 7 unknown #
vertex $-1 $219 $448 #
ellipse-curve $-1 69.586953772704319 -15.746097202618618 9.2753274850714966 0.82903758062907751 0 0.55919289150049634 0.55919289150049634 0 -0.82903758062907751 1 I I #
face $-1 $-1 $235 $33 $-1 $449 reversed single #
loop $-1 $-1 $339 $220 #
plane-surface $-1 0 47.225745077434595 0 0 -1 0 0 0 -1 forward_v I I I I #
coedge $-1 $450 $337 $340 $451 forward $221 $-1 #
coedge $-1 $343 $223 $224 $331 reversed $139 $-1 #
coedge $-1 $337 $450 $223 $329 reversed $221 $-1 #
edge $-1 $344 -14.744803766432527 $452 14.744803766432527 $328 $453 forward 7 unknown #
coedge $-1 $225 $224 $450 $454 forward $89 $-1 #
edge $-1 $335 -73.276161992248291 $452 73.276161992248291 $327 $455 forward 7 unknown #
coedge $-1 $340 $339 $225 $333 reversed $324 $-1 #
edge $-1 $456 -73.276161992248291 $334 73.276161992248291 $332 $457 forward 7 unknown #
vertex $-1 $227 $458 #
vertex $-1 $346 $459 #
straight-curve $-1 73.276161992248291 0 -14.744803766432527 0 -1 0 I I #
coedge $-1 $326 $328 $228 $338 reversed $221 $-1 #
edge $-1 $341 -47.225745077434595 $344 47.225745077434595 $337 $460 forward 7 unknown #
coedge $-1 $332 $229 $234 $347 forward $324 $-1 #
coedge $-1 $229 $332 $326 $451 reversed $324 $-1 #
vertex $-1 $230 $461 #
straight-curve $-1 0 47.225745077434595 14.744803766432527 -1 0 0 I I #
coedge $-1 $231 $327 $233 $346 reversed $139 $-1 #
vertex $-1 $338 $462 #
straight-curve $-1 0 -47.225745077434595 14.744803766432527 1 0 0 I I #
edge $-1 $236 -14.744803766432527 $335 14.744803766432527 $233 $463 forward 7 unknown #
edge $-1 $237 -14.744803766432527 $334 14.744803766432527 $234 $464 forward 7 unknown #
point $-1 73.276161992248291 -47.225745077434595 14.744803766432527 #
point $-1 73.276161992248291 47.225745077434595 14.744803766432527 #
face $-1 $-1 $366 $34 $-1 $465 reversed single #
loop $-1 $-1 $466 $239 #
plane-surface $-1 0 -64.838025510541314 -8.6649221734866551 0 1 0 0 0 1 forward_v I I I I #
coedge $-1 $467 $363 $365 $468 forward $240 $-1 #
coedge $-1 $242 $249 $469 $470 forward $147 $-1 #
coedge $-1 $471 $247 $242 $356 reversed $366 $-1 #
edge $-1 $472 -8.8061402165533593 $251 8.8061402165533593 $355 $473 forward 7 unknown #
coedge $-1 $244 $243 $466 $474 reversed $93 $-1 #
coedge $-1 $363 $467 $243 $359 forward $240 $-1 #
edge $-1 $475 -8.8061402165533593 $361 8.8061402165533593 $243 $476 forward 7 unknown #
edge $-1 $250 -8.8061402165533593 $477 8.8061402165533593 $244 $478 forward 7 unknown #
vertex $-1 $245 $479 #
straight-curve $-1 -73.276161992248291 -47.225745077434595 0 0 0 -1 I I #
coedge $-1 $353 $358 $246 $364 reversed $240 $-1 #
edge $-1 $367 -73.276161992248291 $361 73.276161992248291 $363 $480 forward 7 unknown #
coedge $-1 $247 $471 $353 $468 reversed $366 $-1 #
loop $-1 $-1 $247 $350 #
vertex $-1 $248 $481 #
straight-curve $-1 73.276161992248291 -47.225745077434595 0 0 0 1 I I #
point $-1 -73.276161992248291 -47.225745077434595 -4.684990629182554 #
point $-1 73.276161992248291 -47.225745077434595 -4.684990629182554 #
loop $-1 $-1 $261 $253 #
plane-surface $-1 -73.276161992248291 0 0 1 0 0 0 0 -1 forward_v I I I I #
coedge $-1 $374 $256 $258 $378 reversed $155 $-1 #
coedge $-1 $256 $373 $482 $483 reversed $155 $-1 #
coedge $-1 $264 $259 $256 $376 forward $254 $-1 #
edge $-1 $379 -32.424906449254649 $484 -24.110611059713747 $375 $485 forward 7 unknown #
coedge $-1 $258 $257 $382 $486 reversed $97 $-1 #
edge $-1 $487 2.5250441212413278e-014 $379 14.868385338788837 $373 $488 forward 7 unknown #
vertex $-1 $260 $489 #
straight-curve $-1 -64.961866602707403 -1.4828743106984561 14.744803766432527 0 1 0 I I #
coedge $-1 $482 $261 $264 $386 reversed $371 $-1 #
coedge $-1 $261 $482 $377 $486 forward $371 $-1 #
vertex $-1 $262 $490 #
straight-curve $-1 -73.276161992248291 -10.474555363220286 42.18468568115518 0 0 1 I I #
straight-curve $-1 -73.276161992248305 -10.474555363220286 2.4183535573021828 -0.55919289150049634 0 -0.82903758062907751 I I #
edge $-1 $484 -4.543058120426462 $265 10.474555363220286 $381 $491 forward 7 unknown #
point $-1 -73.276161992248291 -10.474555363220286 14.744803766432527 #
point $-1 -64.961866602707389 -10.474555363220286 14.744803766432527 #
edge $-1 $492 1 $492 0 $268 $-1 forward 7 unknown #
vertex $-1 $269 $493 #
ellipse-curve $-1 -66.339573902568105 -6.1838086536069312 6.7068225018347887 -0.82903758062907751 0 0.55919289150049634 0.55919289150049634 0 0.82903758062907751 1 I I #
point $-1 -68.559821405977345 -6.1838086536069312 9.410616242496431 #
edge $-1 $494 1 $494 0 $272 $-1 forward 7 unknown #
vertex $-1 $273 $495 #
ellipse-curve $-1 -66.339573902568105 0.25231141081310682 6.7068225018347887 -0.82903758062907751 0 0.55919289150049634 0.55919289150049634 0 0.82903758062907751 1 I I #
point $-1 -68.559821405977345 0.25231141081310682 9.410616242496431 #
loop $-1 $-1 $284 $276 #
plane-surface $-1 -73.276161992248291 0 0 1 0 0 0 0 -1 forward_v I I I I #
coedge $-1 $400 $279 $281 $404 reversed $177 $-1 #
coedge $-1 $279 $399 $496 $497 reversed $177 $-1 #
coedge $-1 $287 $282 $279 $402 forward $277 $-1 #
edge $-1 $405 -32.424906449254649 $498 -24.110611059713747 $401 $499 forward 7 unknown #
coedge $-1 $281 $280 $408 $500 reversed $111 $-1 #
edge $-1 $501 2.5250441212413278e-014 $405 14.868385338788837 $399 $502 forward 7 unknown #
vertex $-1 $283 $503 #
straight-curve $-1 -64.961866602707403 10.289014527251823 14.744803766432527 0 1 0 I I #
coedge $-1 $496 $284 $287 $412 reversed $397 $-1 #
coedge $-1 $284 $496 $403 $500 forward $397 $-1 #
vertex $-1 $285 $504 #
straight-curve $-1 -73.276161992248291 13.069222312680271 42.18468568115518 0 0 1 I I #
straight-curve $-1 -73.276161992248305 13.069222312680271 2.4183535573021828 -0.55919289150049634 0 -0.82903758062907751 I I #
edge $-1 $498 -28.086835796327019 $288 -13.069222312680271 $407 $505 forward 7 unknown #
point $-1 -73.276161992248291 13.069222312680271 14.744803766432527 #
point $-1 -64.961866602707389 13.069222312680271 14.744803766432527 #
edge $-1 $506 1 $506 0 $291 $-1 forward 7 unknown #
vertex $-1 $292 $507 #
ellipse-curve $-1 -66.339573902568105 17.359969022293626 6.7068225018347887 -0.82903758062907751 0 0.55919289150049634 0.55919289150049634 0 0.82903758062907751 1 I I #
point $-1 -68.559821405977345 17.359969022293626 9.410616242496431 #
edge $-1 $508 1 $508 0 $295 $-1 forward 7 unknown #
vertex $-1 $296 $509 #
ellipse-curve $-1 -66.339573902568105 23.796089086713664 6.7068225018347887 -0.82903758062907751 0 0.55919289150049634 0.55919289150049634 0 0.82903758062907751 1 I I #
point $-1 -68.559821405977345 23.796089086713664 9.410616242496431 #
plane-surface $-1 0 0 14.744803766432527 0 0 1 1 0 0 forward_v I I I I #
coedge $-1 $434 $433 $426 $510 forward $300 $-1 #
coedge $-1 $426 $302 $304 $430 reversed $199 $-1 #
coedge $-1 $302 $425 $424 $510 reversed $199 $-1 #
coedge $-1 $310 $305 $302 $428 forward $311 $-1 #
edge $-1 $431 9.4864814037023848 $511 16.864897842790342 $427 $512 forward 7 unknown #
coedge $-1 $304 $303 $434 $513 reversed $125 $-1 #
edge $-1 $514 -146.55232398449655 $431 -133.35756319401287 $425 $515 forward 7 unknown #
vertex $-1 $306 $516 #
straight-curve $-1 65.897745553160348 -8.9530048349777154 14.744803766432526 0 -1 0 I I #
coedge $-1 $424 $307 $310 $438 reversed $300 $-1 #
coedge $-1 $307 $424 $429 $513 forward $300 $-1 #
vertex $-1 $308 $517 #
straight-curve $-1 73.276161992248291 -12.866213912836201 103.62712656019721 0 0 1 I I #
straight-curve $-1 -8.6748558127598727 -12.866213912836201 125.30323531538625 0.55919289150049634 0 -0.82903758062907751 I I #
edge $-1 $511 -22.94580542707466 $312 -12.866213912836201 $433 $518 forward 7 unknown #
point $-1 73.276161992248291 -12.866213912836201 14.744803766432527 #
point $-1 65.897745553160334 -12.866213912836201 14.744803766432526 #
edge $-1 $519 1 $519 0 $315 $-1 forward 7 unknown #
vertex $-1 $316 $520 #
ellipse-curve $-1 66.482800455958781 -20.065922137292244 7.1815497005533926 0.82903758062907751 0 0.55919289150049634 0.55919289150049634 0 -0.82903758062907751 1 I I #
point $-1 70.146146664204807 -20.065922137292244 8.4462899044424091 #
edge $-1 $521 1 $521 0 $319 $-1 forward 7 unknown #
vertex $-1 $320 $522 #
ellipse-curve $-1 66.482800455958781 -15.746097202618618 7.1815497005533926 0.82903758062907751 0 0.55919289150049634 0.55919289150049634 0 -0.82903758062907751 1 I I #
point $-1 70.146146664204807 -15.746097202618618 8.4462899044424091 #
plane-surface $-1 73.276161992248291 0 0 -1 0 0 0 0 1 forward_v I I I I #
coedge $-1 $328 $326 $330 $454 reversed $221 $-1 #
edge $-1 $341 -14.744803766432527 $456 14.744803766432527 $340 $523 forward 7 unknown #
vertex $-1 $454 $524 #
straight-curve $-1 -73.276161992248291 -47.225745077434595 0 0 0 -1 I I #
edge $-1 $452 -47.225745077434595 $456 47.225745077434595 $450 $525 forward 7 unknown #
straight-curve $-1 0 -47.225745077434595 -14.744803766432527 -1 0 0 I I #
vertex $-1 $333 $526 #
straight-curve $-1 0 47.225745077434595 -14.744803766432527 1 0 0 I I #
point $-1 73.276161992248291 47.225745077434595 -14.744803766432527 #
point $-1 73.276161992248291 -47.225745077434595 -14.744803766432527 #
straight-curve $-1 -73.276161992248291 0 14.744803766432527 0 -1 0 I I #
point $-1 -73.276161992248291 47.225745077434595 14.744803766432527 #
point $-1 -73.276161992248291 -47.225745077434595 14.744803766432527 #
straight-curve $-1 73.276161992248291 -47.225745077434595 0 0 0 -1 I I #
straight-curve $-1 73.276161992248291 47.225745077434595 0 0 0 -1 I I #
plane-surface $-1 73.276161992248291 0 0 -1 0 0 0 0 1 forward_v I I I I #
coedge $-1 $527 $469 $357 $474 forward $351 $-1 #
coedge $-1 $358 $353 $527 $528 forward $240 $-1 #
edge $-1 $367 -8.8061402165533593 $529 8.8061402165533593 $365 $530 forward 7 unknown #
coedge $-1 $466 $531 $354 $470 reversed $351 $-1 #
edge $-1 $477 -73.276161992248291 $472 73.276161992248291 $469 $532 forward 7 unknown #
coedge $-1 $365 $355 $531 $533 forward $366 $-1 #
vertex $-1 $356 $534 #
straight-curve $-1 73.276161992248291 -56.031885293987955 -4.684990629182554 0 1 0 I I #
edge $-1 $477 -3.979931544304101 $475 3.979931544304101 $357 $535 forward 7 unknown #
vertex $-1 $359 $536 #
straight-curve $-1 -73.276161992248291 -56.031885293987955 -12.644853717790756 0 1 0 I I #
vertex $-1 $360 $537 #
straight-curve $-1 -73.276161992248291 -56.031885293987955 -4.684990629182554 0 -1 0 I I #
point $-1 -73.276161992248291 -47.225745077434595 -12.644853717790756 #
straight-curve $-1 0 -47.225745077434595 -12.644853717790756 -1 0 0 I I #
point $-1 73.276161992248291 -47.225745077434595 -12.644853717790756 #
coedge $-1 $382 $381 $374 $483 forward $371 $-1 #
edge $-1 $484 27.439881914722655 $487 39.766332123852976 $482 $538 forward 7 unknown #
vertex $-1 $386 $539 #
straight-curve $-1 -97.386773051962038 4.543058120426462 14.744803766432526 -1 0 0 I I #
edge $-1 $487 -6.0259324311249181 $383 8.9916810525218303 $382 $540 forward 7 unknown #
vertex $-1 $486 $541 #
straight-curve $-1 -73.276161992248305 4.543058120426462 2.4183535573021828 0.55919289150049634 0 0.82903758062907751 I I #
point $-1 -64.961866602707389 4.543058120426462 14.744803766432527 #
point $-1 -73.276161992248291 -10.474555363220286 2.4183535573022037 #
straight-curve $-1 -73.276161992248291 0 14.744803766432527 0 -1 0 I I #
vertex $-1 $389 $542 #
point $-1 -65.780381011067604 -6.1838086536069312 7.5358600824638664 #
vertex $-1 $393 $543 #
point $-1 -65.780381011067604 0.25231141081310682 7.5358600824638664 #
coedge $-1 $408 $407 $400 $497 forward $397 $-1 #
edge $-1 $498 27.439881914722655 $501 39.766332123852976 $496 $544 forward 7 unknown #
vertex $-1 $412 $545 #
straight-curve $-1 -97.386773051962038 28.086835796327019 14.744803766432526 -1 0 0 I I #
edge $-1 $501 -17.797821269075197 $409 -2.7802077854284484 $408 $546 forward 7 unknown #
vertex $-1 $500 $547 #
straight-curve $-1 -73.276161992248305 28.086835796327019 2.4183535573021828 0.55919289150049634 0 0.82903758062907751 I I #
point $-1 -64.961866602707389 28.086835796327019 14.744803766432527 #
point $-1 -73.276161992248291 13.069222312680271 2.4183535573022037 #
straight-curve $-1 -73.276161992248291 0 14.744803766432527 0 -1 0 I I #
vertex $-1 $415 $548 #
point $-1 -65.780381011067604 17.359969022293626 7.5358600824638664 #
vertex $-1 $419 $549 #
point $-1 -65.780381011067604 23.796089086713664 7.5358600824638664 #
edge $-1 $511 88.882322793764686 $514 99.821275356486723 $424 $550 forward 7 unknown #
vertex $-1 $438 $551 #
straight-curve $-1 56.411264149457949 -22.94580542707466 14.744803766432526 1 0 0 I I #
edge $-1 $514 -13.992800592096945 $435 -3.913209077858486 $434 $552 forward 7 unknown #
vertex $-1 $513 $553 #
straight-curve $-1 -8.6748558127598727 -22.94580542707466 125.30323531538625 -0.55919289150049634 0 0.82903758062907751 I I #
point $-1 65.897745553160334 -22.94580542707466 14.744803766432526 #
point $-1 73.276161992248291 -12.866213912836201 3.805851203710489 #
straight-curve $-1 73.276161992248291 0 14.744803766432527 0 1 0 I I #
vertex $-1 $441 $554 #
point $-1 67.041993347459268 -20.065922137292244 6.3525121199243149 #
vertex $-1 $445 $555 #
point $-1 67.041993347459268 -15.746097202618618 6.3525121199243149 #
straight-curve $-1 -73.276161992248291 47.225745077434595 0 0 0 -1 I I #
point $-1 -73.276161992248291 -47.225745077434595 -14.744803766432527 #
straight-curve $-1 -73.276161992248291 0 -14.744803766432527 0 1 0 I I #
point $-1 -73.276161992248291 47.225745077434595 -14.744803766432527 #
coedge $-1 $531 $466 $467 $528 reversed $351 $-1 #
edge $-1 $529 -73.276161992248291 $475 73.276161992248291 $527 $556 forward 7 unknown #
vertex $-1 $533 $557 #
straight-curve $-1 73.276161992248291 -56.031885293987955 -12.644853717790756 0 -1 0 I I #
coedge $-1 $469 $527 $471 $533 reversed $351 $-1 #
straight-curve $-1 0 -64.838025510541314 -4.684990629182554 1 0 0 I I #
edge $-1 $472 -3.979931544304101 $529 3.979931544304101 $471 $558 forward 7 unknown #
point $-1 73.276161992248291 -64.838025510541314 -4.684990629182554 #
straight-curve $-1 -73.276161992248291 -64.838025510541314 -8.6649221734866551 0 0 -1 I I #
point $-1 -73.276161992248291 -64.838025510541314 -12.644853717790756 #
point $-1 -73.276161992248291 -64.838025510541314 -4.684990629182554 #
straight-curve $-1 -73.276161992248291 4.543058120426462 42.18468568115518 0 0 -1 I I #
point $-1 -73.276161992248291 4.543058120426462 14.744803766432527 #
straight-curve $-1 -73.276161992248291 -1.4828743106984561 2.4183535573021833 0 -1 0 I I #
point $-1 -73.276161992248291 4.543058120426462 2.4183535573022037 #
point $-1 -65.510536321939014 -6.1838086536069312 6.1476296103342927 #
point $-1 -65.510536321939014 0.25231141081310682 6.1476296103342927 #
straight-curve $-1 -73.276161992248291 28.086835796327019 42.18468568115518 0 0 -1 I I #
point $-1 -73.276161992248291 28.086835796327019 14.744803766432527 #
straight-curve $-1 -73.276161992248291 10.289014527251823 2.4183535573021833 0 -1 0 I I #
point $-1 -73.276161992248291 28.086835796327019 2.4183535573022037 #
point $-1 -65.510536321939014 17.359969022293626 6.1476296103342927 #
point $-1 -65.510536321939014 23.796089086713664 6.1476296103342927 #
straight-curve $-1 73.276161992248291 -22.94580542707466 103.62712656019721 0 0 -1 I I #
point $-1 73.276161992248291 -22.94580542707466 14.744803766432527 #
straight-curve $-1 73.276161992248291 -8.9530048349777154 3.8058512037104961 0 1 0 I I #
point $-1 73.276161992248291 -22.94580542707466 3.805851203710489 #
point $-1 65.65376287532969 -20.065922137292244 6.6223568090528966 #
point $-1 65.65376287532969 -15.746097202618618 6.6223568090528966 #
straight-curve $-1 0 -64.838025510541314 -12.644853717790756 -1 0 0 I I #
point $-1 73.276161992248291 -64.838025510541314 -12.644853717790756 #
straight-curve $-1 73.276161992248291 -64.838025510541314 -8.6649221734866551 0 0 -1 I I #
End-of-ACIS-data 