500 0 7 0           
7 Unknown 11 ACIS 5.0 NT 24 Thu Mar 25 18:26:29 1999 
-1 9.9999999999999995e-007 1e-010 
body $-1 $7 $-1 $8 #
body $-1 $9 $-1 $10 #
body $-1 $11 $-1 $12 #
body $-1 $13 $-1 $14 #
body $-1 $15 $-1 $16 #
body $-1 $17 $-1 $18 #
body $-1 $19 $-1 $20 #
lump $-1 $-1 $21 $0 #
transform $-1 1 0 0 0 1 0 0 0 1 57.704397717215492 31.649982502314533 13.205442542203837 1 rotate no_reflect no_shear #
lump $-1 $-1 $22 $1 #
transform $-1 1 0 0 0 1 0 0 0 1 57.704397717215492 31.649982502314533 13.205442542203837 1 rotate no_reflect no_shear #
lump $-1 $-1 $23 $2 #
transform $-1 1 0 0 0 1 0 0 0 1 57.704397717215492 31.649982502314533 13.205442542203837 1 rotate no_reflect no_shear #
lump $-1 $-1 $24 $3 #
transform $-1 1 0 0 0 1 0 0 0 1 57.704397717215492 31.649982502314533 13.205442542203837 1 rotate no_reflect no_shear #
lump $-1 $-1 $25 $4 #
transform $-1 1 0 0 0 1 0 0 0 1 57.704397717215492 31.649982502314533 13.205442542203837 1 rotate no_reflect no_shear #
lump $-1 $-1 $26 $5 #
transform $-1 1 0 0 0 1 0 0 0 1 57.704397717215492 31.649982502314533 13.205442542203837 1 rotate no_reflect no_shear #
lump $-1 $-1 $27 $6 #
transform $-1 1 0 0 0 1 0 0 0 1 57.704397717215492 31.649982502314533 13.205442542203837 1 rotate no_reflect no_shear #
shell $-1 $-1 $-1 $28 $-1 $7 #
shell $-1 $-1 $-1 $29 $-1 $9 #
shell $-1 $-1 $-1 $30 $-1 $11 #
shell $-1 $-1 $-1 $31 $-1 $13 #
shell $-1 $-1 $-1 $32 $-1 $15 #
shell $-1 $-1 $-1 $33 $-1 $17 #
shell $-1 $-1 $-1 $34 $-1 $19 #
face $-1 $35 $36 $21 $-1 $37 forward single #
face $-1 $38 $39 $22 $-1 $40 reversed single #
face $-1 $41 $42 $23 $-1 $43 forward single #
face $-1 $44 $45 $24 $-1 $46 forward single #
face $-1 $47 $48 $25 $-1 $49 forward single #
face $-1 $50 $51 $26 $-1 $52 reversed single #
face $-1 $53 $54 $27 $-1 $55 forward single #
face $-1 $56 $57 $21 $-1 $58 reversed single #
loop $-1 $-1 $59 $28 #
plane-surface $-1 0 0 13.205442542203837 0 0 1 1 0 0 forward_v I I I I #
face $-1 $60 $61 $22 $-1 $62 reversed single #
loop $-1 $-1 $63 $29 #
plane-surface $-1 -23.083167928653033 -97.84574896428694 104.25567719821167 -1 0 0 0 -0.57357644374324357 0.81915203911291934 forward_v I I I I #
face $-1 $64 $65 $23 $-1 $66 forward single #
loop $-1 $67 $68 $30 #
cone-surface $-1 -50.780151759502999 -27.869560857399652 9.6190552190060465 0 0.57357644374324357 -0.81915203911291934 1.5 0 0 1 I I 0 1 1.5 forward I I I I #
face $-1 $69 $70 $24 $-1 $71 forward single #
loop $-1 $72 $73 $31 #
cone-surface $-1 -40.393782822934263 -27.869560857399652 9.6190552190060465 0 0.57357644374324357 -0.81915203911291934 1.5 0 0 1 I I 0 1 1.5 forward I I I I #
face $-1 $74 $75 $25 $-1 $76 forward single #
loop $-1 $77 $78 $32 #
cone-surface $-1 -30.007413886365526 -27.869560857399652 9.6190552190060465 0 0.57357644374324357 -0.81915203911291934 1.5 0 0 1 I I 0 1 1.5 forward I I I I #
face $-1 $79 $80 $26 $-1 $81 reversed single #
loop $-1 $-1 $82 $33 #
plane-surface $-1 43.240171507596727 89.879966536884993 120.31638651984038 1 0 0 0 -0.81915205242281985 -0.57357642473473569 forward_v I I I I #
face $-1 $83 $84 $27 $-1 $85 forward single #
loop $-1 $86 $87 $34 #
cone-surface $-1 50.472284612406106 25.047403338269746 5.7948912435386131 0 -0.81915205242281985 -0.57357642473473569 2.5 0 0 1 I I 0 1 2.5 forward I I I I #
face $-1 $88 $89 $21 $-1 $90 reversed single #
loop $-1 $-1 $91 $35 #
plane-surface $-1 0 0 -13.205442542203837 0 0 1 1 0 0 forward_v I I I I #
coedge $-1 $92 $93 $94 $95 forward $36 $-1 #
face $-1 $96 $97 $22 $-1 $98 forward single #
loop $-1 $-1 $99 $38 #
plane-surface $-1 -40.393782822934263 -31.649982502314529 9.7183270865317581 0 -0.57357644374324357 0.81915203911291934 1 0 0 forward_v I I I I #
coedge $-1 $100 $101 $102 $103 reversed $39 $-1 #
face $-1 $-1 $104 $23 $-1 $105 forward single #
loop $-1 $106 $107 $41 #
cone-surface $-1 -50.780151759502999 -26.149015325500322 7.1618615943096025 0 0.57357644374324357 -0.81915203911291934 0.75 0 0 1 I I -0.70710678118654757 0.70710678118654757 0.75 forward I I I I #
loop $-1 $-1 $108 $30 #
coedge $-1 $68 $68 $109 $110 reversed $42 $-1 #
face $-1 $-1 $111 $24 $-1 $112 forward single #
loop $-1 $113 $114 $44 #
cone-surface $-1 -40.393782822934263 -26.149015325500322 7.1618615943096025 0 0.57357644374324357 -0.81915203911291934 0.75 0 0 1 I I -0.70710678118654757 0.70710678118654757 0.75 forward I I I I #
loop $-1 $-1 $115 $31 #
coedge $-1 $73 $73 $116 $117 reversed $45 $-1 #
face $-1 $-1 $118 $25 $-1 $119 forward single #
loop $-1 $120 $121 $47 #
cone-surface $-1 -30.007413886365526 -26.149015325500322 7.1618615943096025 0 0.57357644374324357 -0.81915203911291934 0.75 0 0 1 I I -0.70710678118654757 0.70710678118654757 0.75 forward I I I I #
loop $-1 $-1 $122 $32 #
coedge $-1 $78 $78 $123 $124 reversed $48 $-1 #
face $-1 $125 $126 $26 $-1 $127 forward single #
loop $-1 $-1 $128 $50 #
plane-surface $-1 50.472284612406106 -4.6573851108745146 54.120622251616965 0 0.81915205242281985 0.57357642473473569 1 0 0 forward_v I I I I #
coedge $-1 $129 $130 $131 $132 reversed $51 $-1 #
face $-1 $-1 $133 $27 $-1 $134 forward single #
loop $-1 $135 $136 $53 #
cone-surface $-1 50.472284612406106 21.250009717766606 3.1359276851656652 0 -0.81915205242281985 -0.57357642473473569 1.25 0 0 1 I I -0.70710678118654746 0.70710678118654746 1.25 forward I I I I #
loop $-1 $-1 $137 $34 #
coedge $-1 $87 $87 $138 $139 reversed $54 $-1 #
face $-1 $140 $141 $21 $-1 $142 reversed single #
loop $-1 $-1 $143 $56 #
plane-surface $-1 0 -31.649982502314533 0 0 1 0 0 0 1 forward_v I I I I #
coedge $-1 $144 $145 $146 $147 forward $57 $-1 #
coedge $-1 $148 $59 $149 $150 forward $36 $-1 #
coedge $-1 $59 $148 $151 $152 forward $36 $-1 #
coedge $-1 $153 $154 $59 $95 reversed $155 $-1 #
edge $-1 $156 -31.649982502314533 $157 31.649982502314533 $94 $158 forward 7 unknown #
face $-1 $159 $160 $22 $-1 $161 reversed single #
loop $-1 $-1 $102 $60 #
plane-surface $-1 0 0 13.205442542203837 0 0 1 1 0 0 forward_v I I I I #
coedge $-1 $162 $163 $164 $165 reversed $61 $-1 #
coedge $-1 $101 $63 $166 $167 reversed $39 $-1 #
coedge $-1 $63 $100 $162 $168 reversed $39 $-1 #
coedge $-1 $164 $169 $63 $103 forward $97 $-1 #
edge $-1 $170 17.272891979828938 $171 22.253008871474925 $102 $172 forward 7 unknown #
loop $-1 $-1 $109 $64 #
plane-surface $-1 -40.393782822934263 -31.649982502314529 9.7183270865317581 0 -0.57357644374324357 0.81915203911291934 1 0 0 forward_v I I I I #
loop $-1 $-1 $173 $41 #
coedge $-1 $107 $107 $108 $174 reversed $65 $-1 #
coedge $-1 $108 $108 $107 $174 forward $67 $-1 #
coedge $-1 $109 $109 $68 $110 forward $104 $-1 #
edge $-1 $175 1.4561130262914181e-015 $175 6.2831853071796022 $109 $176 forward 7 unknown #
loop $-1 $-1 $116 $69 #
plane-surface $-1 -40.393782822934263 -31.649982502314529 9.7183270865317581 0 -0.57357644374324357 0.81915203911291934 1 0 0 forward_v I I I I #
loop $-1 $-1 $177 $44 #
coedge $-1 $114 $114 $115 $178 reversed $70 $-1 #
coedge $-1 $115 $115 $114 $178 forward $72 $-1 #
coedge $-1 $116 $116 $73 $117 forward $111 $-1 #
edge $-1 $179 1.4561130262914181e-015 $179 6.2831853071796022 $116 $180 forward 7 unknown #
loop $-1 $-1 $123 $74 #
plane-surface $-1 -40.393782822934263 -31.649982502314529 9.7183270865317581 0 -0.57357644374324357 0.81915203911291934 1 0 0 forward_v I I I I #
loop $-1 $-1 $181 $47 #
coedge $-1 $121 $121 $122 $182 reversed $75 $-1 #
coedge $-1 $122 $122 $121 $182 forward $77 $-1 #
coedge $-1 $123 $123 $78 $124 forward $118 $-1 #
edge $-1 $183 1.4561130262914181e-015 $183 6.2831853071796022 $123 $184 forward 7 unknown #
face $-1 $185 $186 $26 $-1 $187 reversed single #
loop $-1 $-1 $131 $79 #
plane-surface $-1 0 0 13.205442542203837 0 0 1 1 0 0 forward_v I I I I #
coedge $-1 $188 $189 $190 $191 reversed $80 $-1 #
coedge $-1 $130 $82 $192 $193 reversed $51 $-1 #
coedge $-1 $82 $129 $188 $194 reversed $51 $-1 #
coedge $-1 $190 $195 $82 $132 forward $126 $-1 #
edge $-1 $196 13.290000766127964 $197 20.948251984268335 $131 $198 forward 7 unknown #
loop $-1 $-1 $138 $83 #
plane-surface $-1 50.472284612406106 -4.6573851108745146 54.120622251616965 0 0.81915205242281985 0.57357642473473569 1 0 0 forward_v I I I I #
loop $-1 $-1 $199 $53 #
coedge $-1 $136 $136 $137 $200 reversed $84 $-1 #
coedge $-1 $137 $137 $136 $200 forward $86 $-1 #
coedge $-1 $138 $138 $87 $139 forward $133 $-1 #
edge $-1 $201 4.0936231849014092e-016 $201 6.2831853071796004 $138 $202 forward 7 unknown #
face $-1 $203 $204 $21 $-1 $205 reversed single #
loop $-1 $-1 $206 $88 #
plane-surface $-1 -57.704397717215492 0 0 1 0 0 0 0 -1 forward_v I I I I #
coedge $-1 $207 $151 $208 $209 forward $89 $-1 #
coedge $-1 $210 $91 $207 $211 forward $57 $-1 #
coedge $-1 $91 $210 $212 $213 forward $57 $-1 #
coedge $-1 $154 $153 $91 $147 reversed $155 $-1 #
edge $-1 $214 -31.649982502314533 $215 31.649982502314533 $146 $216 forward 7 unknown #
coedge $-1 $93 $92 $217 $218 forward $36 $-1 #
coedge $-1 $219 $220 $92 $150 reversed $204 $-1 #
edge $-1 $157 -57.704397717215492 $221 57.704397717215492 $149 $222 forward 7 unknown #
coedge $-1 $143 $223 $93 $152 reversed $89 $-1 #
edge $-1 $224 -57.704397717215492 $156 57.704397717215492 $151 $225 forward 7 unknown #
coedge $-1 $146 $94 $223 $226 forward $155 $-1 #
coedge $-1 $94 $146 $219 $227 reversed $155 $-1 #
loop $-1 $-1 $153 $203 #
vertex $-1 $95 $228 #
vertex $-1 $95 $229 #
straight-curve $-1 57.704397717215492 0 13.205442542203837 0 1 0 I I #
face $-1 $-1 $230 $22 $-1 $231 reversed single #
loop $-1 $-1 $232 $96 #
plane-surface $-1 -57.704397717215492 0 0 1 0 0 0 0 -1 forward_v I I I I #
coedge $-1 $233 $99 $101 $168 forward $61 $-1 #
coedge $-1 $99 $233 $232 $234 reversed $61 $-1 #
coedge $-1 $235 $102 $99 $165 forward $97 $-1 #
edge $-1 $171 2.8862765171859017 $236 37.507506305748365 $164 $237 forward 7 unknown #
coedge $-1 $238 $239 $100 $167 forward $230 $-1 #
edge $-1 $240 -42.409511512574078 $170 -38.922396056902002 $166 $241 forward 7 unknown #
edge $-1 $171 -6.0796001887989934 $240 3.9290890931359748e-015 $101 $242 forward 7 unknown #
coedge $-1 $102 $235 $238 $243 forward $97 $-1 #
vertex $-1 $167 $244 #
vertex $-1 $103 $245 #
straight-curve $-1 -23.083167928653033 -48.92287448214347 13.205442542203841 0 1 0 I I #
coedge $-1 $173 $173 $-1 $246 reversed $106 $-1 #
edge $-1 $247 0 $247 6.2831853071796004 $107 $248 forward 7 unknown #
vertex $-1 $110 $249 #
ellipse-curve $-1 -50.780151759502999 -29.159924056491541 11.461884814367794 0 -0.57357644374324357 0.81915203911291934 1.5 0 0 1 I I #
coedge $-1 $177 $177 $-1 $250 reversed $113 $-1 #
edge $-1 $251 0 $251 6.2831853071796004 $114 $252 forward 7 unknown #
vertex $-1 $117 $253 #
ellipse-curve $-1 -40.393782822934263 -29.159924056491541 11.461884814367794 0 -0.57357644374324357 0.81915203911291934 1.5 0 0 1 I I #
coedge $-1 $181 $181 $-1 $254 reversed $120 $-1 #
edge $-1 $255 0 $255 6.2831853071796004 $121 $256 forward 7 unknown #
vertex $-1 $124 $257 #
ellipse-curve $-1 -30.007413886365526 -29.159924056491541 11.461884814367794 0 -0.57357644374324357 0.81915203911291934 1.5 0 0 1 I I #
face $-1 $-1 $258 $26 $-1 $259 reversed single #
loop $-1 $-1 $260 $125 #
plane-surface $-1 57.704397717215492 0 0 -1 0 0 0 0 1 forward_v I I I I #
coedge $-1 $261 $128 $130 $194 forward $80 $-1 #
coedge $-1 $128 $261 $260 $262 reversed $80 $-1 #
coedge $-1 $263 $131 $128 $191 forward $126 $-1 #
edge $-1 $197 18.004029201393674 $264 32.468255411012436 $190 $265 forward 7 unknown #
coedge $-1 $266 $267 $129 $193 forward $258 $-1 #
edge $-1 $268 -57.889867260137819 $196 -46.952750717716356 $192 $269 forward 7 unknown #
edge $-1 $197 49.948211187895595 $268 63.299965004629101 $130 $270 forward 7 unknown #
coedge $-1 $131 $263 $266 $271 forward $126 $-1 #
vertex $-1 $193 $272 #
vertex $-1 $132 $273 #
straight-curve $-1 43.240171507596727 44.939983268442496 13.205442542203841 0 -1 0 I I #
coedge $-1 $199 $199 $-1 $274 reversed $135 $-1 #
edge $-1 $275 0 $275 6.2831853071796004 $136 $276 forward 7 unknown #
vertex $-1 $139 $277 #
ellipse-curve $-1 50.472284612406106 27.820856893244333 7.736884270993122 0 0.81915205242281985 0.57357642473473569 2.5 0 0 1 I I #
face $-1 $-1 $155 $21 $-1 $278 reversed single #
loop $-1 $-1 $219 $140 #
plane-surface $-1 0 31.649982502314533 0 0 -1 0 0 0 -1 forward_v I I I I #
coedge $-1 $279 $217 $220 $280 forward $141 $-1 #
coedge $-1 $223 $143 $144 $211 reversed $89 $-1 #
coedge $-1 $217 $279 $143 $209 reversed $141 $-1 #
edge $-1 $224 -13.205442542203837 $281 13.205442542203837 $208 $282 forward 7 unknown #
coedge $-1 $145 $144 $279 $283 forward $57 $-1 #
edge $-1 $215 -57.704397717215492 $281 57.704397717215492 $207 $284 forward 7 unknown #
coedge $-1 $220 $219 $145 $213 reversed $204 $-1 #
edge $-1 $285 -57.704397717215492 $214 57.704397717215492 $212 $286 forward 7 unknown #
vertex $-1 $147 $287 #
vertex $-1 $226 $288 #
straight-curve $-1 57.704397717215492 0 -13.205442542203837 0 -1 0 I I #
coedge $-1 $206 $208 $148 $218 reversed $141 $-1 #
edge $-1 $221 -31.649982502314533 $224 31.649982502314533 $217 $289 forward 7 unknown #
coedge $-1 $212 $149 $154 $227 forward $204 $-1 #
coedge $-1 $149 $212 $206 $280 reversed $204 $-1 #
vertex $-1 $150 $290 #
straight-curve $-1 0 31.649982502314533 13.205442542203837 -1 0 0 I I #
coedge $-1 $151 $207 $153 $226 reversed $89 $-1 #
vertex $-1 $218 $291 #
straight-curve $-1 0 -31.649982502314533 13.205442542203837 1 0 0 I I #
edge $-1 $156 -13.205442542203837 $215 13.205442542203837 $153 $292 forward 7 unknown #
edge $-1 $157 -13.205442542203837 $214 13.205442542203837 $154 $293 forward 7 unknown #
point $-1 57.704397717215492 -31.649982502314533 13.205442542203837 #
point $-1 57.704397717215492 31.649982502314533 13.205442542203837 #
loop $-1 $-1 $166 $159 #
plane-surface $-1 0 -31.649982502314533 0 0 1 0 0 0 1 forward_v I I I I #
coedge $-1 $294 $295 $163 $234 forward $160 $-1 #
coedge $-1 $163 $162 $239 $296 reversed $61 $-1 #
edge $-1 $236 4.0963719188173275 $297 10.175972107616325 $232 $298 forward 7 unknown #
coedge $-1 $169 $164 $295 $299 forward $97 $-1 #
vertex $-1 $299 $300 #
straight-curve $-1 -20.196891411467131 -26.669865610668545 13.205442542203837 -1 0 0 I I #
coedge $-1 $301 $166 $169 $243 reversed $230 $-1 #
coedge $-1 $166 $301 $233 $296 forward $230 $-1 #
vertex $-1 $167 $302 #
straight-curve $-1 -23.083167928653033 -31.649982502314529 52.127838599105836 0 0 1 I I #
straight-curve $-1 -23.083167928653033 -31.649982502314529 9.7183270865317581 0 -0.81915203911291934 -0.57357644374324357 I I #
edge $-1 $303 -57.704397717215492 $170 -23.083167928653033 $238 $304 forward 7 unknown #
point $-1 -23.083167928653033 -31.649982502314533 13.205442542203837 #
point $-1 -23.083167928653033 -26.669865610668545 13.205442542203837 #
edge $-1 $305 1 $305 0 $173 $-1 forward 7 unknown #
vertex $-1 $174 $306 #
ellipse-curve $-1 -50.780151759502999 -26.579197658307756 7.7762256236442919 0 -0.57357644374324357 0.81915203911291934 1.5 0 0 1 I I #
point $-1 -49.280151759502999 -29.159924056491544 11.461884814367803 #
edge $-1 $307 1 $307 0 $177 $-1 forward 7 unknown #
vertex $-1 $178 $308 #
ellipse-curve $-1 -40.393782822934263 -26.579197658307756 7.7762256236442919 0 -0.57357644374324357 0.81915203911291934 1.5 0 0 1 I I #
point $-1 -38.893782822934263 -29.159924056491544 11.461884814367803 #
edge $-1 $309 1 $309 0 $181 $-1 forward 7 unknown #
vertex $-1 $182 $310 #
ellipse-curve $-1 -30.007413886365526 -26.579197658307756 7.7762256236442919 0 -0.57357644374324357 0.81915203911291934 1.5 0 0 1 I I #
point $-1 -28.507413886365526 -29.159924056491544 11.461884814367803 #
loop $-1 $-1 $192 $185 #
plane-surface $-1 0 31.649982502314533 0 0 -1 0 0 0 -1 forward_v I I I I #
coedge $-1 $311 $312 $189 $262 forward $186 $-1 #
coedge $-1 $189 $188 $267 $313 reversed $80 $-1 #
edge $-1 $264 26.44601863973541 $314 39.79777245646892 $260 $315 forward 7 unknown #
coedge $-1 $195 $190 $312 $316 forward $126 $-1 #
vertex $-1 $316 $317 #
straight-curve $-1 25.236142306203053 23.991731284174165 13.205442542203837 1 0 0 I I #
coedge $-1 $318 $192 $195 $271 reversed $258 $-1 #
coedge $-1 $192 $318 $261 $313 forward $258 $-1 #
vertex $-1 $193 $319 #
straight-curve $-1 43.240171507596727 31.649982502314533 60.158193259920189 0 0 1 I I #
straight-curve $-1 43.240171507596727 -4.6573851108745146 54.120622251616965 0 0.57357642473473569 -0.81915205242281985 I I #
edge $-1 $320 -57.704397717215492 $196 -43.240171507596727 $266 $321 forward 7 unknown #
point $-1 43.240171507596727 31.649982502314533 13.205442542203837 #
point $-1 43.240171507596727 23.991731284174161 13.205442542203841 #
edge $-1 $322 1 $322 0 $199 $-1 forward 7 unknown #
vertex $-1 $200 $323 #
ellipse-curve $-1 50.472284612406106 22.27394978329513 3.8528982160840846 0 0.81915205242281985 0.57357642473473569 2.5 0 0 1 I I #
point $-1 52.972284612406106 27.820856893244361 7.7368842709931407 #
plane-surface $-1 57.704397717215492 0 0 -1 0 0 0 0 1 forward_v I I I I #
coedge $-1 $208 $206 $210 $283 reversed $141 $-1 #
edge $-1 $221 -13.205442542203837 $285 13.205442542203837 $220 $324 forward 7 unknown #
vertex $-1 $283 $325 #
straight-curve $-1 -57.704397717215492 -31.649982502314533 0 0 0 -1 I I #
edge $-1 $281 -31.649982502314533 $285 31.649982502314533 $279 $326 forward 7 unknown #
straight-curve $-1 0 -31.649982502314533 -13.205442542203837 -1 0 0 I I #
vertex $-1 $213 $327 #
straight-curve $-1 0 31.649982502314533 -13.205442542203837 1 0 0 I I #
point $-1 57.704397717215492 31.649982502314533 -13.205442542203837 #
point $-1 57.704397717215492 -31.649982502314533 -13.205442542203837 #
straight-curve $-1 -57.704397717215492 0 13.205442542203837 0 -1 0 I I #
point $-1 -57.704397717215492 31.649982502314533 13.205442542203837 #
point $-1 -57.704397717215492 -31.649982502314533 13.205442542203837 #
straight-curve $-1 57.704397717215492 -31.649982502314533 0 0 0 -1 I I #
straight-curve $-1 57.704397717215492 31.649982502314533 0 0 0 -1 I I #
coedge $-1 $295 $232 $301 $328 reversed $160 $-1 #
coedge $-1 $232 $294 $235 $299 reversed $160 $-1 #
edge $-1 $297 -37.507506305748365 $240 -2.8862765171859017 $239 $329 forward 7 unknown #
vertex $-1 $234 $330 #
straight-curve $-1 -57.704397717215492 -23.314314200404429 15.555024979648767 0 -0.81915203911291934 -0.57357644374324357 I I #
edge $-1 $236 26.669865610668545 $303 31.649982502314533 $295 $331 forward 7 unknown #
point $-1 -57.704397717215492 -26.669865610668545 13.205442542203837 #
coedge $-1 $239 $238 $294 $328 forward $230 $-1 #
point $-1 -23.083167928653033 -31.649982502314533 9.7183270865317564 #
vertex $-1 $299 $332 #
straight-curve $-1 0 -31.649982502314533 13.205442542203837 1 0 0 I I #
vertex $-1 $246 $333 #
point $-1 -49.280151759502999 -26.579197658307756 7.7762256236442919 #
vertex $-1 $250 $334 #
point $-1 -38.893782822934263 -26.579197658307756 7.7762256236442919 #
vertex $-1 $254 $335 #
point $-1 -28.507413886365526 -26.579197658307756 7.7762256236442919 #
coedge $-1 $312 $260 $318 $336 reversed $186 $-1 #
coedge $-1 $260 $311 $263 $316 reversed $186 $-1 #
edge $-1 $314 -32.468255411012436 $268 -18.004029201393674 $267 $337 forward 7 unknown #
vertex $-1 $262 $338 #
straight-curve $-1 57.704397717215492 8.8229184643265501 34.868752989355251 0 0.57357642473473569 -0.81915205242281985 I I #
edge $-1 $264 23.991731284174161 $320 31.649982502314533 $312 $339 forward 7 unknown #
point $-1 57.704397717215485 23.991731284174161 13.205442542203841 #
coedge $-1 $267 $266 $311 $336 forward $258 $-1 #
point $-1 43.240171507596727 31.649982502314529 2.2683259997823697 #
vertex $-1 $316 $340 #
straight-curve $-1 0 31.649982502314533 13.205442542203837 -1 0 0 I I #
vertex $-1 $274 $341 #
point $-1 52.972284612406106 22.27394978329513 3.8528982160840846 #
straight-curve $-1 -57.704397717215492 31.649982502314533 0 0 0 -1 I I #
point $-1 -57.704397717215492 -31.649982502314533 -13.205442542203837 #
straight-curve $-1 -57.704397717215492 0 -13.205442542203837 0 1 0 I I #
point $-1 -57.704397717215492 31.649982502314533 -13.205442542203837 #
edge $-1 $303 -13.205442542203837 $297 -9.7183270865317564 $294 $342 forward 7 unknown #
straight-curve $-1 -20.196891411467131 -31.649982502314533 9.7183270865317564 1 0 0 I I #
point $-1 -57.704397717215492 -31.649982502314533 9.7183270865317564 #
straight-curve $-1 -57.704397717215492 0 13.205442542203837 0 -1 0 I I #
point $-1 -57.704397717215492 -31.649982502314533 13.205442542203837 #
point $-1 -50.780151759502999 -25.718832992692889 6.547497564974913 #
point $-1 -40.393782822934263 -25.718832992692889 6.547497564974913 #
point $-1 -30.007413886365526 -25.718832992692889 6.547497564974913 #
edge $-1 $320 -13.205442542203837 $314 -2.2683259997823697 $311 $343 forward 7 unknown #
straight-curve $-1 25.236142306203053 31.649982502314529 2.2683259997823733 -1 0 0 I I #
point $-1 57.704397717215485 31.649982502314529 2.2683259997823697 #
straight-curve $-1 57.704397717215492 0 13.205442542203837 0 1 0 I I #
point $-1 57.704397717215492 31.649982502314533 13.205442542203837 #
point $-1 50.472284612406106 20.226069652238081 2.4189571542472459 #
straight-curve $-1 -57.704397717215492 -31.649982502314533 0 0 0 -1 I I #
straight-curve $-1 57.704397717215492 31.649982502314533 0 0 0 -1 I I #
End-of-ACIS-data 