500 0 10 0           
7 Unknown 11 ACIS 5.0 NT 24 Fri Mar 26 20:10:44 1999 
-1 9.9999999999999995e-007 1e-010 
body $-1 $10 $-1 $11 #
body $-1 $12 $-1 $13 #
body $-1 $14 $-1 $15 #
body $-1 $16 $-1 $17 #
body $-1 $18 $-1 $19 #
body $-1 $20 $-1 $21 #
body $-1 $22 $-1 $23 #
body $-1 $24 $-1 $25 #
body $-1 $26 $-1 $27 #
body $-1 $28 $-1 $29 #
lump $-1 $-1 $30 $0 #
transform $-1 1 0 0 0 1 0 0 0 1 76.834620197149576 51.851116645084069 20.59771248275403 1 rotate no_reflect no_shear #
lump $-1 $-1 $31 $1 #
transform $-1 1 0 0 0 1 0 0 0 1 76.834620197149576 51.851116645084069 20.59771248275403 1 rotate no_reflect no_shear #
lump $-1 $-1 $32 $2 #
transform $-1 1 0 0 0 1 0 0 0 1 76.834620197149576 51.851116645084069 20.59771248275403 1 rotate no_reflect no_shear #
lump $-1 $-1 $33 $3 #
transform $-1 1 0 0 0 1 0 0 0 1 76.834620197149576 51.851116645084069 20.59771248275403 1 rotate no_reflect no_shear #
lump $-1 $-1 $34 $4 #
transform $-1 1 0 0 0 1 0 0 0 1 76.834620197149576 51.851116645084069 20.59771248275403 1 rotate no_reflect no_shear #
lump $-1 $-1 $35 $5 #
transform $-1 1 0 0 0 1 0 0 0 1 76.834620197149576 51.851116645084069 20.59771248275403 1 rotate no_reflect no_shear #
lump $-1 $-1 $36 $6 #
transform $-1 1 0 0 0 1 0 0 0 1 76.834620197149576 51.851116645084069 20.59771248275403 1 rotate no_reflect no_shear #
lump $-1 $-1 $37 $7 #
transform $-1 1 0 0 0 1 0 0 0 1 76.834620197149576 51.851116645084069 20.59771248275403 1 rotate no_reflect no_shear #
lump $-1 $-1 $38 $8 #
transform $-1 1 0 0 0 1 0 0 0 1 76.834620197149576 51.851116645084069 20.59771248275403 1 rotate no_reflect no_shear #
lump $-1 $-1 $39 $9 #
transform $-1 1 0 0 0 1 0 0 0 1 76.834620197149576 51.851116645084069 20.59771248275403 1 rotate no_reflect no_shear #
shell $-1 $-1 $-1 $40 $-1 $10 #
shell $-1 $-1 $-1 $41 $-1 $12 #
shell $-1 $-1 $-1 $42 $-1 $14 #
shell $-1 $-1 $-1 $43 $-1 $16 #
shell $-1 $-1 $-1 $44 $-1 $18 #
shell $-1 $-1 $-1 $45 $-1 $20 #
shell $-1 $-1 $-1 $46 $-1 $22 #
shell $-1 $-1 $-1 $47 $-1 $24 #
shell $-1 $-1 $-1 $48 $-1 $26 #
shell $-1 $-1 $-1 $49 $-1 $28 #
face $-1 $50 $51 $30 $-1 $52 reversed single #
face $-1 $53 $54 $31 $-1 $55 forward single #
face $-1 $56 $57 $32 $-1 $58 forward single #
face $-1 $59 $60 $33 $-1 $61 reversed single #
face $-1 $62 $63 $34 $-1 $64 forward single #
face $-1 $65 $66 $35 $-1 $67 reversed single #
face $-1 $68 $69 $36 $-1 $70 forward single #
face $-1 $71 $72 $37 $-1 $73 reversed single #
face $-1 $74 $75 $38 $-1 $76 forward single #
face $-1 $77 $78 $39 $-1 $79 forward single #
face $-1 $80 $81 $30 $-1 $82 forward single #
loop $-1 $-1 $83 $40 #
plane-surface $-1 0 -51.851116645084069 0 0 1 0 0 0 1 forward_v I I I I #
face $-1 $84 $85 $31 $-1 $86 forward single #
loop $-1 $-1 $87 $41 #
plane-surface $-1 0 -51.851116645084069 0 0 1 0 0 0 1 forward_v I I I I #
face $-1 $88 $89 $32 $-1 $90 forward single #
loop $-1 $-1 $91 $42 #
plane-surface $-1 0 51.851116645084069 0 0 -1 0 0 0 -1 forward_v I I I I #
face $-1 $92 $93 $33 $-1 $94 reversed single #
loop $-1 $-1 $95 $43 #
plane-surface $-1 114.57204036333073 -3.0832537937834879 215.48837519767542 0 -1 0 -0.81915205242281985 0 -0.57357642473473569 forward_v I I I I #
face $-1 $96 $97 $34 $-1 $98 forward single #
loop $-1 $99 $100 $44 #
cone-surface $-1 68.09252764665986 -10.417350220285989 9.6013522384412191 -0.81915205242281985 0 -0.57357642473473569 1.7207292742042071 0 -2.4574561572684597 1 I I 0 1 3 forward I I I I #
face $-1 $101 $102 $35 $-1 $103 reversed single #
loop $-1 $-1 $104 $45 #
plane-surface $-1 114.57204036333073 17.751446646788491 215.48837519767542 0 -1 0 -0.81915205242281985 0 -0.57357642473473569 forward_v I I I I #
face $-1 $105 $106 $36 $-1 $107 forward single #
loop $-1 $108 $109 $46 #
cone-surface $-1 68.09252764665986 10.417350220285989 9.6013522384412191 -0.81915205242281985 0 -0.57357642473473569 1.7207292742042071 0 -2.4574561572684597 1 I I 0 1 3 forward I I I I #
face $-1 $110 $111 $37 $-1 $112 reversed single #
loop $-1 $-1 $113 $47 #
plane-surface $-1 -197.92763539488351 -37.93799581766492 96.343457420910383 0 1 0 -0.78801076186113728 0 0.61566146476048833 forward_v I I I I #
face $-1 $114 $115 $38 $-1 $116 forward single #
loop $-1 $117 $118 $48 #
cone-surface $-1 -67.924590934711091 -35.46537446483417 9.9620907341515093 0.78801076186113728 0 -0.61566146476048833 0.61566146476048833 0 0.78801076186113728 1 I I 0 1 1 forward I I I I #
face $-1 $119 $120 $39 $-1 $121 forward single #
loop $-1 $122 $123 $49 #
cone-surface $-1 -67.924590934711091 -31.756442435588045 9.9620907341515093 0.78801076186113728 0 -0.61566146476048833 0.61566146476048833 0 0.78801076186113728 1 I I 0 1 1 forward I I I I #
face $-1 $124 $125 $30 $-1 $126 reversed single #
loop $-1 $-1 $127 $50 #
plane-surface $-1 0 0 20.59771248275403 0 0 1 1 0 0 forward_v I I I I #
coedge $-1 $128 $129 $130 $131 reversed $51 $-1 #
face $-1 $132 $133 $31 $-1 $134 reversed single #
loop $-1 $-1 $135 $53 #
plane-surface $-1 0 0 20.59771248275403 0 0 1 1 0 0 forward_v I I I I #
coedge $-1 $136 $137 $138 $139 forward $54 $-1 #
face $-1 $140 $141 $32 $-1 $142 reversed single #
loop $-1 $-1 $143 $56 #
plane-surface $-1 0 0 20.59771248275403 0 0 1 1 0 0 forward_v I I I I #
coedge $-1 $144 $145 $146 $147 forward $57 $-1 #
face $-1 $148 $149 $33 $-1 $150 reversed single #
loop $-1 $-1 $151 $59 #
plane-surface $-1 -11.306433299915113 -10.417350220285989 127.34732170061069 0.81915205242281985 0 0.57357642473473569 0.57357642473473569 0 -0.81915205242281985 forward_v I I I I #
coedge $-1 $152 $153 $154 $155 reversed $60 $-1 #
face $-1 $-1 $156 $34 $-1 $157 forward single #
loop $-1 $158 $159 $62 #
cone-surface $-1 64.818794356431113 -10.417350220285989 7.3090595797209268 -0.81915205242281985 0 -0.57357642473473569 0.86036463710210354 0 -1.2287280786342298 1 I I -0.70710678118654757 0.70710678118654757 1.5 forward I I I I #
loop $-1 $-1 $160 $44 #
coedge $-1 $100 $100 $161 $162 reversed $63 $-1 #
face $-1 $163 $164 $35 $-1 $165 reversed single #
loop $-1 $-1 $166 $65 #
plane-surface $-1 -11.306433299915113 10.417350220285989 127.34732170061069 0.81915205242281985 0 0.57357642473473569 0.57357642473473569 0 -0.81915205242281985 forward_v I I I I #
coedge $-1 $167 $168 $169 $170 reversed $66 $-1 #
face $-1 $-1 $171 $36 $-1 $172 forward single #
loop $-1 $173 $174 $68 #
cone-surface $-1 64.818794356431113 10.417350220285989 7.3090595797209268 -0.81915205242281985 0 -0.57357642473473569 0.86036463710210354 0 -1.2287280786342298 1 I I -0.70710678118654757 0.70710678118654757 1.5 forward I I I I #
loop $-1 $-1 $175 $46 #
coedge $-1 $109 $109 $176 $177 reversed $69 $-1 #
face $-1 $178 $179 $37 $-1 $180 reversed single #
loop $-1 $-1 $181 $71 #
plane-surface $-1 -76.83462019714959 -33.610908450211106 1.7352277911245721 -0.78801076186113728 0 0.61566146476048833 0.61566146476048833 0 0.78801076186113728 forward_v I I I I #
coedge $-1 $182 $183 $184 $185 reversed $72 $-1 #
face $-1 $-1 $186 $38 $-1 $187 forward single #
loop $-1 $188 $189 $74 #
cone-surface $-1 -65.989050172595213 -35.46537446483417 8.44988059898348 0.78801076186113728 0 -0.61566146476048833 0.30783073238024417 0 0.39400538093056864 1 I I -0.70710678118654624 0.70710678118654879 0.5 forward I I I I #
loop $-1 $-1 $190 $48 #
coedge $-1 $118 $118 $191 $192 reversed $75 $-1 #
face $-1 $-1 $193 $39 $-1 $194 forward single #
loop $-1 $195 $196 $77 #
cone-surface $-1 -65.989050172595213 -31.756442435588045 8.44988059898348 0.78801076186113728 0 -0.61566146476048833 0.30783073238024417 0 0.39400538093056864 1 I I -0.70710678118654624 0.70710678118654879 0.5 forward I I I I #
loop $-1 $-1 $197 $49 #
coedge $-1 $123 $123 $198 $199 reversed $78 $-1 #
face $-1 $200 $201 $30 $-1 $202 reversed single #
loop $-1 $-1 $203 $80 #
plane-surface $-1 0 0 -20.59771248275403 0 0 1 1 0 0 forward_v I I I I #
coedge $-1 $204 $205 $206 $207 forward $81 $-1 #
coedge $-1 $208 $83 $209 $210 reversed $51 $-1 #
coedge $-1 $83 $208 $211 $212 forward $51 $-1 #
coedge $-1 $213 $203 $83 $131 forward $125 $-1 #
edge $-1 $214 -76.834620197149576 $215 76.834620197149576 $83 $216 forward 7 unknown #
face $-1 $217 $218 $31 $-1 $219 reversed single #
loop $-1 $-1 $220 $84 #
plane-surface $-1 -76.834620197149576 0 0 1 0 0 0 0 -1 forward_v I I I I #
coedge $-1 $221 $222 $137 $223 forward $85 $-1 #
coedge $-1 $224 $87 $225 $226 reversed $54 $-1 #
coedge $-1 $87 $224 $135 $223 reversed $54 $-1 #
coedge $-1 $227 $228 $87 $139 reversed $229 $-1 #
edge $-1 $230 -20.59771248275403 $231 20.59771248275403 $138 $232 forward 7 unknown #
face $-1 $233 $234 $32 $-1 $235 reversed single #
loop $-1 $-1 $236 $88 #
plane-surface $-1 -72.311823433876555 65.764237472503211 0 0 -1 0 0 0 -1 forward_v I I I I #
coedge $-1 $237 $238 $144 $239 forward $89 $-1 #
coedge $-1 $240 $91 $143 $239 reversed $57 $-1 #
coedge $-1 $91 $240 $241 $242 reversed $57 $-1 #
coedge $-1 $243 $244 $91 $147 reversed $234 $-1 #
edge $-1 $245 -20.59771248275403 $246 20.59771248275403 $146 $247 forward 7 unknown #
face $-1 $248 $249 $33 $-1 $250 forward single #
loop $-1 $-1 $251 $92 #
plane-surface $-1 114.57204036333073 -17.751446646788491 215.48837519767542 0 1 0 0.81915205242281985 0 0.57357642473473569 forward_v I I I I #
coedge $-1 $252 $253 $254 $255 reversed $93 $-1 #
coedge $-1 $153 $95 $256 $257 reversed $60 $-1 #
coedge $-1 $95 $152 $252 $258 reversed $60 $-1 #
coedge $-1 $254 $259 $95 $155 forward $249 $-1 #
edge $-1 $260 -19.548600015484212 $261 -6.154425337693894 $154 $262 forward 7 unknown #
loop $-1 $-1 $161 $96 #
plane-surface $-1 -11.306433299915113 -10.417350220285989 127.34732170061069 0.81915205242281985 0 0.57357642473473569 0.57357642473473569 0 -0.81915205242281985 forward_v I I I I #
loop $-1 $-1 $263 $62 #
coedge $-1 $159 $159 $160 $264 reversed $97 $-1 #
coedge $-1 $160 $160 $159 $264 forward $99 $-1 #
coedge $-1 $161 $161 $100 $162 forward $156 $-1 #
edge $-1 $265 0 $265 6.2831853071796004 $161 $266 forward 7 unknown #
face $-1 $267 $268 $35 $-1 $269 reversed single #
loop $-1 $-1 $270 $101 #
plane-surface $-1 114.57204036333073 3.0832537937834879 215.48837519767542 0 1 0 0.81915205242281985 0 0.57357642473473569 forward_v I I I I #
coedge $-1 $271 $272 $273 $274 reversed $102 $-1 #
coedge $-1 $168 $104 $275 $276 reversed $66 $-1 #
coedge $-1 $104 $167 $271 $277 reversed $66 $-1 #
coedge $-1 $273 $278 $104 $170 forward $279 $-1 #
edge $-1 $280 -19.548600015484212 $281 -6.154425337693894 $169 $282 forward 7 unknown #
loop $-1 $-1 $176 $105 #
plane-surface $-1 -11.306433299915113 10.417350220285989 127.34732170061069 0.81915205242281985 0 0.57357642473473569 0.57357642473473569 0 -0.81915205242281985 forward_v I I I I #
loop $-1 $-1 $283 $68 #
coedge $-1 $174 $174 $175 $284 reversed $106 $-1 #
coedge $-1 $175 $175 $174 $284 forward $108 $-1 #
coedge $-1 $176 $176 $109 $177 forward $171 $-1 #
edge $-1 $285 0 $285 6.2831853071796004 $176 $286 forward 7 unknown #
face $-1 $287 $288 $37 $-1 $289 reversed single #
loop $-1 $-1 $290 $110 #
plane-surface $-1 -197.92763539488351 -29.283821082757292 96.343457420910383 0 -1 0 0.78801076186113728 0 -0.61566146476048833 forward_v I I I I #
coedge $-1 $291 $292 $293 $294 reversed $111 $-1 #
coedge $-1 $183 $113 $295 $296 reversed $72 $-1 #
coedge $-1 $113 $182 $291 $297 reversed $72 $-1 #
coedge $-1 $293 $298 $113 $185 forward $299 $-1 #
edge $-1 $300 22.129197500292179 $301 36.86618526279851 $184 $302 forward 7 unknown #
loop $-1 $-1 $191 $114 #
plane-surface $-1 -76.83462019714959 -33.610908450211106 1.7352277911245721 -0.78801076186113728 0 0.61566146476048833 0.61566146476048833 0 0.78801076186113728 forward_v I I I I #
loop $-1 $-1 $303 $74 #
coedge $-1 $189 $189 $190 $304 reversed $115 $-1 #
coedge $-1 $190 $190 $189 $304 forward $117 $-1 #
coedge $-1 $191 $191 $118 $192 forward $186 $-1 #
edge $-1 $305 0 $305 6.2831853071796004 $191 $306 forward 7 unknown #
loop $-1 $-1 $198 $119 #
plane-surface $-1 -76.83462019714959 -33.610908450211106 1.7352277911245721 -0.78801076186113728 0 0.61566146476048833 0.61566146476048833 0 0.78801076186113728 forward_v I I I I #
loop $-1 $-1 $307 $77 #
coedge $-1 $196 $196 $197 $308 reversed $120 $-1 #
coedge $-1 $197 $197 $196 $308 forward $122 $-1 #
coedge $-1 $198 $198 $123 $199 forward $193 $-1 #
edge $-1 $309 0 $309 6.2831853071796004 $198 $310 forward 7 unknown #
face $-1 $311 $312 $30 $-1 $313 reversed single #
loop $-1 $-1 $314 $124 #
plane-surface $-1 -76.834620197149576 0 0 1 0 0 0 0 -1 forward_v I I I I #
coedge $-1 $130 $315 $316 $317 forward $125 $-1 #
coedge $-1 $318 $127 $319 $320 forward $81 $-1 #
coedge $-1 $127 $318 $208 $321 forward $81 $-1 #
coedge $-1 $209 $322 $127 $207 reversed $323 $-1 #
edge $-1 $324 -51.851116645084069 $325 51.851116645084069 $206 $326 forward 7 unknown #
coedge $-1 $129 $128 $205 $321 reversed $51 $-1 #
coedge $-1 $316 $206 $128 $210 forward $323 $-1 #
edge $-1 $324 -20.59771248275403 $214 20.59771248275403 $209 $327 forward 7 unknown #
coedge $-1 $328 $329 $129 $212 reversed $201 $-1 #
edge $-1 $330 -20.59771248275403 $215 20.59771248275403 $211 $331 forward 7 unknown #
coedge $-1 $315 $130 $329 $332 forward $125 $-1 #
vertex $-1 $210 $333 #
vertex $-1 $332 $334 #
straight-curve $-1 0 -51.851116645084069 -20.59771248275403 -1 0 0 I I #
face $-1 $335 $229 $31 $-1 $336 reversed single #
loop $-1 $-1 $337 $132 #
plane-surface $-1 -72.311823433876555 -65.764237472503225 0 0 1 0 0 0 1 forward_v I I I I #
coedge $-1 $338 $339 $224 $340 forward $133 $-1 #
coedge $-1 $341 $135 $339 $342 forward $85 $-1 #
coedge $-1 $135 $341 $227 $343 forward $85 $-1 #
edge $-1 $230 67.789026670603533 $344 76.834620197149576 $135 $345 forward 7 unknown #
coedge $-1 $137 $136 $220 $340 reversed $54 $-1 #
coedge $-1 $346 $347 $136 $226 forward $348 $-1 #
edge $-1 $349 -76.834620197149576 $231 -67.789026670603533 $225 $350 forward 7 unknown #
coedge $-1 $351 $138 $222 $343 reversed $229 $-1 #
coedge $-1 $138 $351 $346 $352 reversed $229 $-1 #
loop $-1 $-1 $351 $217 #
vertex $-1 $223 $353 #
vertex $-1 $352 $354 #
straight-curve $-1 -67.789026670603533 -51.851116645084069 0 0 0 -1 I I #
face $-1 $355 $356 $32 $-1 $357 reversed single #
loop $-1 $-1 $146 $140 #
plane-surface $-1 -67.789026670603533 58.807677058793637 0 -1 0 0 0 0 1 forward_v I I I I #
coedge $-1 $358 $359 $360 $361 forward $141 $-1 #
coedge $-1 $362 $143 $244 $363 forward $89 $-1 #
coedge $-1 $143 $362 $364 $365 forward $89 $-1 #
edge $-1 $366 -76.834620197149576 $246 -67.789026670603533 $143 $367 forward 7 unknown #
coedge $-1 $145 $144 $368 $369 reversed $57 $-1 #
coedge $-1 $370 $371 $145 $242 forward $356 $-1 #
edge $-1 $245 67.789026670603533 $372 76.834620197149576 $241 $373 forward 7 unknown #
coedge $-1 $360 $146 $371 $374 reversed $234 $-1 #
coedge $-1 $146 $360 $237 $363 reversed $234 $-1 #
vertex $-1 $242 $375 #
vertex $-1 $363 $376 #
straight-curve $-1 -67.789026670603533 51.851116645084069 0 0 0 1 I I #
face $-1 $-1 $377 $33 $-1 $378 reversed single #
loop $-1 $-1 $154 $148 #
plane-surface $-1 0 0 20.59771248275403 0 0 1 1 0 0 forward_v I I I I #
coedge $-1 $379 $380 $381 $382 reversed $149 $-1 #
coedge $-1 $383 $151 $153 $258 forward $93 $-1 #
coedge $-1 $151 $383 $379 $384 forward $93 $-1 #
coedge $-1 $381 $154 $151 $255 forward $249 $-1 #
edge $-1 $261 -2.1254213163595068 $385 12.542771536645496 $254 $386 forward 7 unknown #
coedge $-1 $387 $388 $152 $257 forward $377 $-1 #
edge $-1 $389 -106.27533956147279 $260 -87.146475116083678 $256 $390 forward 7 unknown #
edge $-1 $261 130.31720899938119 $389 153.66924039429909 $153 $391 forward 7 unknown #
coedge $-1 $154 $381 $387 $392 forward $249 $-1 #
vertex $-1 $155 $393 #
vertex $-1 $155 $394 #
straight-curve $-1 57.286020181665364 -3.0832537937834879 20.597712482754034 -1 0 0 I I #
coedge $-1 $263 $263 $-1 $395 reversed $158 $-1 #
edge $-1 $396 0 $396 6.2831853071796004 $159 $397 forward 7 unknown #
vertex $-1 $162 $398 #
ellipse-curve $-1 70.137532858254431 -10.417350220285989 11.033280260059442 0.81915205242281985 0 0.57357642473473569 1.7207292742042071 0 -2.4574561572684597 1 I I #
face $-1 $-1 $279 $35 $-1 $399 forward single #
loop $-1 $-1 $400 $163 #
plane-surface $-1 76.834620197149576 0 0 -1 0 0 0 0 1 forward_v I I I I #
coedge $-1 $401 $402 $403 $404 reversed $164 $-1 #
coedge $-1 $405 $166 $168 $277 forward $102 $-1 #
coedge $-1 $166 $405 $401 $406 forward $102 $-1 #
coedge $-1 $403 $169 $166 $274 forward $279 $-1 #
edge $-1 $281 -12.542771536645496 $407 2.1254213163595068 $273 $408 forward 7 unknown #
coedge $-1 $409 $410 $167 $276 forward $268 $-1 #
edge $-1 $411 -106.27533956147279 $280 -87.146475116083678 $275 $412 forward 7 unknown #
edge $-1 $281 130.31720899938119 $411 153.66924039429909 $168 $413 forward 7 unknown #
coedge $-1 $169 $403 $409 $414 forward $279 $-1 #
loop $-1 $-1 $403 $267 #
vertex $-1 $276 $415 #
vertex $-1 $170 $416 #
straight-curve $-1 57.286020181665364 17.751446646788491 20.597712482754034 -1 0 0 I I #
coedge $-1 $283 $283 $-1 $417 reversed $173 $-1 #
edge $-1 $418 0 $418 6.2831853071796004 $174 $419 forward 7 unknown #
vertex $-1 $177 $420 #
ellipse-curve $-1 70.137532858254431 10.417350220285989 11.033280260059442 0.81915205242281985 0 0.57357642473473569 1.7207292742042071 0 -2.4574561572684597 1 I I #
face $-1 $-1 $299 $37 $-1 $421 forward single #
loop $-1 $-1 $422 $178 #
plane-surface $-1 -76.834620197149576 0 0 1 0 0 0 0 -1 forward_v I I I I #
coedge $-1 $423 $424 $425 $426 reversed $179 $-1 #
coedge $-1 $427 $181 $183 $297 forward $111 $-1 #
coedge $-1 $181 $427 $423 $428 forward $111 $-1 #
coedge $-1 $425 $184 $181 $294 forward $299 $-1 #
edge $-1 $301 -21.132541592559367 $429 -12.478366857651739 $293 $430 forward 7 unknown #
coedge $-1 $431 $432 $182 $296 forward $288 $-1 #
edge $-1 $433 -46.436500919330598 $300 -27.574016227701161 $295 $434 forward 7 unknown #
edge $-1 $301 -23.936836404467016 $433 -2.3096905769578348e-014 $183 $435 forward 7 unknown #
coedge $-1 $184 $425 $431 $436 forward $299 $-1 #
loop $-1 $-1 $425 $287 #
vertex $-1 $296 $437 #
vertex $-1 $185 $438 #
straight-curve $-1 -98.963817697441755 -37.93799581766492 20.597712482754034 1 0 0 I I #
coedge $-1 $303 $303 $-1 $439 reversed $188 $-1 #
edge $-1 $440 0 $440 6.2831853071796004 $189 $441 forward 7 unknown #
vertex $-1 $192 $442 #
ellipse-curve $-1 -69.466126315896418 -35.46537446483417 11.166470136939306 -0.78801076186113728 0 0.61566146476048833 0.61566146476048833 0 0.78801076186113728 1 I I #
coedge $-1 $307 $307 $-1 $443 reversed $195 $-1 #
edge $-1 $444 0 $444 6.2831853071796004 $196 $445 forward 7 unknown #
vertex $-1 $199 $446 #
ellipse-curve $-1 -69.466126315896418 -31.756442435588045 11.166470136939306 -0.78801076186113728 0 0.61566146476048833 0.61566146476048833 0 0.78801076186113728 1 I I #
face $-1 $-1 $323 $30 $-1 $447 reversed single #
loop $-1 $-1 $319 $200 #
plane-surface $-1 0 51.851116645084069 0 0 -1 0 0 0 -1 forward_v I I I I #
coedge $-1 $329 $328 $448 $449 forward $201 $-1 #
coedge $-1 $203 $213 $450 $451 forward $125 $-1 #
coedge $-1 $322 $209 $203 $317 reversed $323 $-1 #
edge $-1 $452 -51.851116645084069 $214 51.851116645084069 $316 $453 forward 7 unknown #
coedge $-1 $205 $204 $328 $454 forward $81 $-1 #
coedge $-1 $455 $448 $204 $320 reversed $312 $-1 #
edge $-1 $325 -76.834620197149576 $456 76.834620197149576 $319 $457 forward 7 unknown #
edge $-1 $330 -76.834620197149576 $324 76.834620197149576 $208 $458 forward 7 unknown #
coedge $-1 $206 $316 $455 $459 reversed $323 $-1 #
loop $-1 $-1 $209 $311 #
vertex $-1 $207 $460 #
vertex $-1 $207 $461 #
straight-curve $-1 76.834620197149576 0 20.59771248275403 0 1 0 I I #
straight-curve $-1 76.834620197149576 -51.851116645084069 0 0 0 -1 I I #
coedge $-1 $314 $211 $318 $454 reversed $201 $-1 #
coedge $-1 $211 $314 $213 $332 reversed $201 $-1 #
vertex $-1 $454 $462 #
straight-curve $-1 -76.834620197149576 -51.851116645084069 0 0 0 -1 I I #
edge $-1 $215 -51.851116645084069 $463 51.851116645084069 $329 $464 forward 7 unknown #
point $-1 76.834620197149576 -51.851116645084069 -20.59771248275403 #
point $-1 -76.834620197149576 -51.851116645084069 -20.59771248275403 #
face $-1 $-1 $348 $31 $-1 $465 reversed single #
plane-surface $-1 -67.789026670603533 -58.807677058793644 0 -1 0 0 0 0 1 forward_v I I I I #
coedge $-1 $466 $467 $468 $469 forward $218 $-1 #
coedge $-1 $468 $220 $347 $470 reversed $133 $-1 #
coedge $-1 $220 $468 $221 $342 reversed $133 $-1 #
edge $-1 $344 -20.59771248275403 $349 20.59771248275403 $220 $471 forward 7 unknown #
coedge $-1 $222 $221 $467 $472 forward $85 $-1 #
edge $-1 $344 51.851116645084069 $473 65.764237472503225 $339 $474 forward 7 unknown #
edge $-1 $475 -6.9565604137095818 $230 6.9565604137095747 $227 $476 forward 7 unknown #
vertex $-1 $342 $477 #
straight-curve $-1 0 -51.851116645084069 20.59771248275403 -1 0 0 I I #
coedge $-1 $478 $225 $228 $352 forward $348 $-1 #
coedge $-1 $225 $478 $338 $470 forward $348 $-1 #
loop $-1 $-1 $225 $335 #
vertex $-1 $340 $479 #
straight-curve $-1 0 -51.851116645084069 -20.59771248275403 1 0 0 I I #
coedge $-1 $228 $227 $480 $481 forward $229 $-1 #
edge $-1 $231 -6.9565604137095747 $482 6.9565604137095818 $228 $483 forward 7 unknown #
point $-1 -67.789026670603533 -51.851116645084069 20.59771248275403 #
point $-1 -67.789026670603533 -51.851116645084069 -20.59771248275403 #
face $-1 $-1 $484 $32 $-1 $485 reversed single #
loop $-1 $-1 $241 $233 #
plane-surface $-1 0 0 -20.59771248275403 0 0 1 1 0 0 forward_v I I I I #
coedge $-1 $486 $236 $487 $488 reversed $141 $-1 #
coedge $-1 $236 $486 $362 $489 reversed $141 $-1 #
coedge $-1 $244 $243 $236 $361 reversed $234 $-1 #
edge $-1 $490 -20.59771248275403 $491 20.59771248275403 $360 $492 forward 7 unknown #
coedge $-1 $238 $237 $359 $489 forward $89 $-1 #
edge $-1 $246 -6.9565604137095747 $490 6.9565604137095747 $244 $493 forward 7 unknown #
coedge $-1 $494 $368 $238 $365 reversed $484 $-1 #
edge $-1 $495 -65.764237472503211 $366 -51.851116645084069 $364 $496 forward 7 unknown #
vertex $-1 $369 $497 #
straight-curve $-1 0 51.851116645084069 20.59771248275403 1 0 0 I I #
coedge $-1 $364 $498 $240 $369 forward $484 $-1 #
edge $-1 $372 -20.59771248275403 $366 20.59771248275403 $368 $499 forward 7 unknown #
coedge $-1 $487 $241 $498 $500 forward $356 $-1 #
coedge $-1 $241 $487 $243 $374 forward $356 $-1 #
vertex $-1 $500 $501 #
straight-curve $-1 0 51.851116645084069 -20.59771248275403 -1 0 0 I I #
edge $-1 $491 -6.9565604137095747 $245 6.9565604137095747 $243 $502 forward 7 unknown #
point $-1 -67.789026670603533 51.851116645084062 -20.59771248275403 #
point $-1 -67.789026670603533 51.851116645084062 20.59771248275403 #
loop $-1 $-1 $256 $248 #
plane-surface $-1 76.834620197149576 0 0 -1 0 0 0 0 1 forward_v I I I I #
coedge $-1 $380 $251 $253 $384 reversed $149 $-1 #
coedge $-1 $251 $379 $503 $504 reversed $149 $-1 #
coedge $-1 $259 $254 $251 $382 forward $249 $-1 #
edge $-1 $385 6.154425337693894 $505 19.548600015484212 $381 $506 forward 7 unknown #
coedge $-1 $253 $252 $388 $507 reversed $93 $-1 #
edge $-1 $508 -153.66924039429909 $385 -130.31720899938119 $379 $509 forward 7 unknown #
vertex $-1 $255 $510 #
straight-curve $-1 63.440445519359272 -5.2086751101429947 20.597712482754034 0 -1 0 I I #
coedge $-1 $503 $256 $259 $392 reversed $377 $-1 #
coedge $-1 $256 $503 $383 $507 forward $377 $-1 #
vertex $-1 $257 $511 #
straight-curve $-1 76.834620197149576 -3.0832537937834879 107.74418759883771 0 0 1 I I #
straight-curve $-1 -11.306433299915113 -3.0832537937834879 127.34732170061069 0.57357642473473569 0 -0.81915205242281985 I I #
edge $-1 $505 -17.751446646788491 $260 -3.0832537937834879 $387 $512 forward 7 unknown #
point $-1 76.834620197149576 -3.0832537937834879 20.59771248275403 #
point $-1 63.440445519359258 -3.0832537937834879 20.597712482754034 #
edge $-1 $513 1 $513 0 $263 $-1 forward 7 unknown #
vertex $-1 $264 $514 #
ellipse-curve $-1 66.047522435065346 -10.417350220285989 8.16942421682303 0.81915205242281985 0 0.57357642473473569 1.7207292742042071 0 -2.4574561572684597 1 I I #
point $-1 71.858262132458592 -10.417350220285989 8.5758241027909499 #
plane-surface $-1 0 0 20.59771248275403 0 0 1 1 0 0 forward_v I I I I #
coedge $-1 $410 $409 $402 $515 forward $268 $-1 #
coedge $-1 $402 $270 $272 $406 reversed $164 $-1 #
coedge $-1 $270 $401 $400 $515 reversed $164 $-1 #
coedge $-1 $278 $273 $270 $404 forward $279 $-1 #
edge $-1 $407 6.154425337693894 $516 19.548600015484212 $403 $517 forward 7 unknown #
coedge $-1 $272 $271 $410 $518 reversed $102 $-1 #
edge $-1 $519 -153.66924039429909 $407 -130.31720899938119 $401 $520 forward 7 unknown #
vertex $-1 $274 $521 #
straight-curve $-1 63.440445519359272 5.2086751101429947 20.597712482754034 0 -1 0 I I #
coedge $-1 $400 $275 $278 $414 reversed $268 $-1 #
coedge $-1 $275 $400 $405 $518 forward $268 $-1 #
vertex $-1 $276 $522 #
straight-curve $-1 76.834620197149576 17.751446646788491 107.74418759883771 0 0 1 I I #
straight-curve $-1 -11.306433299915113 17.751446646788491 127.34732170061069 0.57357642473473569 0 -0.81915205242281985 I I #
edge $-1 $516 3.0832537937834879 $280 17.751446646788491 $409 $523 forward 7 unknown #
point $-1 76.834620197149576 17.751446646788491 20.59771248275403 #
point $-1 63.440445519359258 17.751446646788491 20.597712482754034 #
edge $-1 $524 1 $524 0 $283 $-1 forward 7 unknown #
vertex $-1 $284 $525 #
ellipse-curve $-1 66.047522435065346 10.417350220285989 8.16942421682303 0.81915205242281985 0 0.57357642473473569 1.7207292742042071 0 -2.4574561572684597 1 I I #
point $-1 71.858262132458592 10.417350220285989 8.5758241027909499 #
plane-surface $-1 0 0 20.59771248275403 0 0 1 1 0 0 forward_v I I I I #
coedge $-1 $432 $431 $424 $526 forward $288 $-1 #
coedge $-1 $424 $290 $292 $428 reversed $179 $-1 #
coedge $-1 $290 $423 $422 $526 reversed $179 $-1 #
coedge $-1 $298 $293 $290 $426 forward $299 $-1 #
edge $-1 $429 -36.86618526279851 $527 -22.129197500292179 $425 $528 forward 7 unknown #
coedge $-1 $292 $291 $432 $529 reversed $111 $-1 #
edge $-1 $530 2.3096905769578348e-014 $429 23.936836404467016 $423 $531 forward 7 unknown #
vertex $-1 $294 $532 #
straight-curve $-1 -62.097632434643245 -16.805454225105553 20.59771248275403 0 1 0 I I #
coedge $-1 $422 $295 $298 $436 reversed $288 $-1 #
coedge $-1 $295 $422 $427 $529 forward $288 $-1 #
vertex $-1 $296 $533 #
straight-curve $-1 -76.834620197149576 -37.93799581766492 48.171728710455191 0 0 1 I I #
straight-curve $-1 -76.83462019714959 -37.93799581766492 1.7352277911245721 -0.61566146476048833 0 -0.78801076186113728 I I #
edge $-1 $527 29.283821082757292 $300 37.93799581766492 $431 $534 forward 7 unknown #
point $-1 -76.834620197149576 -37.93799581766492 20.59771248275403 #
point $-1 -62.097632434643245 -37.93799581766492 20.59771248275403 #
edge $-1 $535 1 $535 0 $303 $-1 forward 7 unknown #
vertex $-1 $304 $536 #
ellipse-curve $-1 -66.383055553525779 -35.46537446483417 8.7577113313637245 -0.78801076186113728 0 0.61566146476048833 0.61566146476048833 0 0.78801076186113728 1 I I #
point $-1 -68.850464851135911 -35.46537446483417 11.95448089880043 #
edge $-1 $537 1 $537 0 $307 $-1 forward 7 unknown #
vertex $-1 $308 $538 #
ellipse-curve $-1 -66.383055553525779 -31.756442435588045 8.7577113313637245 -0.78801076186113728 0 0.61566146476048833 0.61566146476048833 0 0.78801076186113728 1 I I #
point $-1 -68.850464851135911 -31.756442435588045 11.95448089880043 #
plane-surface $-1 76.834620197149576 0 0 -1 0 0 0 0 1 forward_v I I I I #
coedge $-1 $319 $450 $314 $449 reversed $312 $-1 #
edge $-1 $456 -20.59771248275403 $463 20.59771248275403 $448 $539 forward 7 unknown #
coedge $-1 $448 $455 $315 $451 reversed $312 $-1 #
edge $-1 $463 -76.834620197149576 $452 76.834620197149576 $450 $540 forward 7 unknown #
vertex $-1 $317 $541 #
straight-curve $-1 76.834620197149576 0 -20.59771248275403 0 -1 0 I I #
edge $-1 $456 -51.851116645084069 $330 51.851116645084069 $328 $542 forward 7 unknown #
coedge $-1 $450 $319 $322 $459 forward $312 $-1 #
vertex $-1 $320 $543 #
straight-curve $-1 0 51.851116645084069 20.59771248275403 -1 0 0 I I #
straight-curve $-1 0 -51.851116645084069 20.59771248275403 1 0 0 I I #
edge $-1 $325 -20.59771248275403 $452 20.59771248275403 $322 $544 forward 7 unknown #
point $-1 76.834620197149576 -51.851116645084069 20.59771248275403 #
point $-1 76.834620197149576 51.851116645084069 20.59771248275403 #
point $-1 -76.834620197149576 -51.851116645084069 20.59771248275403 #
vertex $-1 $451 $545 #
straight-curve $-1 -76.834620197149576 0 -20.59771248275403 0 1 0 I I #
plane-surface $-1 0 0 -20.59771248275403 0 0 1 1 0 0 forward_v I I I I #
coedge $-1 $480 $337 $478 $546 reversed $218 $-1 #
coedge $-1 $337 $480 $341 $472 reversed $218 $-1 #
coedge $-1 $339 $338 $337 $469 reversed $133 $-1 #
edge $-1 $473 -20.59771248275403 $547 20.59771248275403 $468 $548 forward 7 unknown #
edge $-1 $547 -65.764237472503225 $349 -51.851116645084069 $338 $549 forward 7 unknown #
straight-curve $-1 -76.834620197149576 -51.851116645084069 0 0 0 -1 I I #
edge $-1 $473 -4.5227967632730213 $475 4.5227967632730213 $467 $550 forward 7 unknown #
vertex $-1 $342 $551 #
straight-curve $-1 -76.834620197149576 0 20.59771248275403 0 -1 0 I I #
vertex $-1 $343 $552 #
straight-curve $-1 -67.789026670603533 -58.807677058793644 20.59771248275403 0 1 0 I I #
point $-1 -76.834620197149576 -51.851116645084069 20.59771248275403 #
coedge $-1 $347 $346 $466 $546 forward $348 $-1 #
point $-1 -76.834620197149576 -51.851116645084069 -20.59771248275403 #
coedge $-1 $467 $466 $351 $481 reversed $218 $-1 #
edge $-1 $475 -20.59771248275403 $482 20.59771248275403 $351 $553 forward 7 unknown #
vertex $-1 $481 $554 #
straight-curve $-1 -67.789026670603533 -58.807677058793644 -20.59771248275403 0 -1 0 I I #
loop $-1 $-1 $368 $355 #
plane-surface $-1 -76.834620197149576 0 0 1 0 0 0 0 -1 forward_v I I I I #
coedge $-1 $359 $358 $494 $555 reversed $141 $-1 #
coedge $-1 $371 $370 $358 $488 forward $356 $-1 #
edge $-1 $556 -4.5227967632730213 $491 4.5227967632730213 $358 $557 forward 7 unknown #
edge $-1 $490 -4.5227967632730213 $495 4.5227967632730213 $359 $558 forward 7 unknown #
vertex $-1 $363 $559 #
vertex $-1 $374 $560 #
straight-curve $-1 -67.789026670603533 65.764237472503211 0 0 0 -1 I I #
straight-curve $-1 -67.789026670603533 58.807677058793637 20.59771248275403 0 1 0 I I #
coedge $-1 $498 $364 $486 $555 forward $484 $-1 #
vertex $-1 $489 $561 #
straight-curve $-1 -76.834620197149576 0 20.59771248275403 0 -1 0 I I #
point $-1 -76.834620197149576 51.851116645084069 20.59771248275403 #
coedge $-1 $368 $494 $370 $500 reversed $484 $-1 #
straight-curve $-1 -76.834620197149576 51.851116645084069 0 0 0 1 I I #
edge $-1 $372 -6.9565604137095676 $556 6.9565604137095747 $498 $562 forward 7 unknown #
point $-1 -76.834620197149576 51.851116645084069 -20.59771248275403 #
straight-curve $-1 -67.789026670603533 58.807677058793637 -20.59771248275403 0 -1 0 I I #
coedge $-1 $388 $387 $380 $504 forward $377 $-1 #
edge $-1 $505 87.146475116083678 $508 106.27533956147279 $503 $563 forward 7 unknown #
vertex $-1 $392 $564 #
straight-curve $-1 57.286020181665364 -17.751446646788491 20.597712482754034 1 0 0 I I #
edge $-1 $508 -12.542771536645496 $389 2.1254213163595068 $388 $565 forward 7 unknown #
vertex $-1 $507 $566 #
straight-curve $-1 -11.306433299915113 -17.751446646788491 127.34732170061069 -0.57357642473473569 0 0.81915205242281985 I I #
point $-1 63.440445519359258 -17.751446646788491 20.597712482754034 #
point $-1 76.834620197149576 -3.0832537937834879 1.4688480373649213 #
straight-curve $-1 76.834620197149576 0 20.59771248275403 0 1 0 I I #
vertex $-1 $395 $567 #
point $-1 67.768251709269549 -10.417350220285989 5.7119680595545708 #
edge $-1 $516 87.146475116083678 $519 106.27533956147279 $400 $568 forward 7 unknown #
vertex $-1 $414 $569 #
straight-curve $-1 57.286020181665364 3.0832537937834879 20.597712482754034 1 0 0 I I #
edge $-1 $519 -2.1254213163595068 $411 12.542771536645496 $410 $570 forward 7 unknown #
vertex $-1 $518 $571 #
straight-curve $-1 -11.306433299915113 3.0832537937834879 127.34732170061069 -0.57357642473473569 0 0.81915205242281985 I I #
point $-1 63.440445519359258 3.0832537937834879 20.597712482754034 #
point $-1 76.834620197149576 17.751446646788491 1.4688480373649213 #
straight-curve $-1 76.834620197149576 0 20.59771248275403 0 1 0 I I #
vertex $-1 $417 $572 #
point $-1 67.768251709269549 10.417350220285989 5.7119680595545708 #
edge $-1 $527 27.574016227701161 $530 46.436500919330598 $422 $573 forward 7 unknown #
vertex $-1 $436 $574 #
straight-curve $-1 -98.963817697441755 -29.283821082757292 20.597712482754034 -1 0 0 I I #
edge $-1 $530 12.478366857651739 $433 21.132541592559367 $432 $575 forward 7 unknown #
vertex $-1 $529 $576 #
straight-curve $-1 -76.83462019714959 -29.283821082757292 1.7352277911245721 0.61566146476048833 0 0.78801076186113728 I I #
point $-1 -62.097632434643245 -29.283821082757292 20.59771248275403 #
point $-1 -76.834620197149576 -37.93799581766492 1.7352277911245904 #
straight-curve $-1 -76.834620197149576 0 20.59771248275403 0 -1 0 I I #
vertex $-1 $439 $577 #
point $-1 -65.7673940887653 -35.46537446483417 9.5457220932248621 #
vertex $-1 $443 $578 #
point $-1 -65.7673940887653 -31.756442435588045 9.5457220932248621 #
straight-curve $-1 -76.834620197149576 51.851116645084069 0 0 0 -1 I I #
straight-curve $-1 0 51.851116645084069 -20.59771248275403 1 0 0 I I #
point $-1 76.834620197149576 51.851116645084069 -20.59771248275403 #
straight-curve $-1 -76.834620197149576 0 20.59771248275403 0 -1 0 I I #
point $-1 -76.834620197149576 51.851116645084069 20.59771248275403 #
straight-curve $-1 76.834620197149576 51.851116645084069 0 0 0 -1 I I #
point $-1 -76.834620197149576 51.851116645084069 -20.59771248275403 #
edge $-1 $482 -4.5227967632730213 $547 4.5227967632730213 $466 $579 forward 7 unknown #
vertex $-1 $470 $580 #
straight-curve $-1 -76.834620197149576 -65.764237472503225 0 0 0 -1 I I #
straight-curve $-1 -76.834620197149576 0 -20.59771248275403 0 1 0 I I #
straight-curve $-1 -72.311823433876555 -65.764237472503225 20.59771248275403 1 0 0 I I #
point $-1 -76.834620197149576 -65.764237472503225 20.59771248275403 #
point $-1 -67.789026670603533 -65.764237472503225 20.59771248275403 #
straight-curve $-1 -67.789026670603533 -65.764237472503225 0 0 0 -1 I I #
point $-1 -67.789026670603533 -65.764237472503225 -20.59771248275403 #
edge $-1 $495 -20.59771248275403 $556 20.59771248275403 $486 $581 forward 7 unknown #
vertex $-1 $488 $582 #
straight-curve $-1 -72.311823433876555 65.764237472503211 -20.59771248275403 1 0 0 I I #
straight-curve $-1 -72.311823433876555 65.764237472503211 20.59771248275403 -1 0 0 I I #
point $-1 -67.789026670603533 65.764237472503211 20.59771248275403 #
point $-1 -67.789026670603533 65.764237472503211 -20.59771248275403 #
point $-1 -76.834620197149576 65.764237472503211 20.59771248275403 #
straight-curve $-1 -76.834620197149576 58.807677058793637 -20.59771248275403 0 1 0 I I #
straight-curve $-1 76.834620197149576 -17.751446646788491 107.74418759883771 0 0 -1 I I #
point $-1 76.834620197149576 -17.751446646788491 20.59771248275403 #
straight-curve $-1 76.834620197149576 -5.2086751101429947 1.4688480373649071 0 1 0 I I #
point $-1 76.834620197149576 -17.751446646788491 1.4688480373649213 #
point $-1 63.590066277796886 -10.417350220285989 6.4486949426188236 #
straight-curve $-1 76.834620197149576 3.0832537937834879 107.74418759883771 0 0 -1 I I #
point $-1 76.834620197149576 3.0832537937834879 20.59771248275403 #
straight-curve $-1 76.834620197149576 5.2086751101429947 1.4688480373649071 0 1 0 I I #
point $-1 76.834620197149576 3.0832537937834879 1.4688480373649213 #
point $-1 63.590066277796886 10.417350220285989 6.4486949426188236 #
straight-curve $-1 -76.834620197149576 -29.283821082757292 48.171728710455191 0 0 -1 I I #
point $-1 -76.834620197149576 -29.283821082757292 20.59771248275403 #
straight-curve $-1 -76.834620197149576 -16.805454225105553 1.7352277911245881 0 -1 0 I I #
point $-1 -76.834620197149576 -29.283821082757292 1.7352277911245904 #
point $-1 -65.595044791664648 -35.46537446483417 8.1420498666032355 #
point $-1 -65.595044791664648 -31.756442435588045 8.1420498666032355 #
straight-curve $-1 -72.311823433876555 -65.764237472503225 -20.59771248275403 -1 0 0 I I #
point $-1 -76.834620197149576 -65.764237472503225 -20.59771248275403 #
straight-curve $-1 -76.834620197149576 65.764237472503211 0 0 0 -1 I I #
point $-1 -76.834620197149576 65.764237472503211 -20.59771248275403 #
End-of-ACIS-data 