500 0 13 0           
7 Unknown 11 ACIS 5.0 NT 24 Fri Mar 26 00:35:13 1999 
-1 9.9999999999999995e-007 1e-010 
body $-1 $13 $-1 $14 #
body $-1 $15 $-1 $16 #
body $-1 $17 $-1 $18 #
body $-1 $19 $-1 $20 #
body $-1 $21 $-1 $22 #
body $-1 $23 $-1 $24 #
body $-1 $25 $-1 $26 #
body $-1 $27 $-1 $28 #
body $-1 $29 $-1 $30 #
body $-1 $31 $-1 $32 #
body $-1 $33 $-1 $34 #
body $-1 $35 $-1 $36 #
body $-1 $37 $-1 $38 #
lump $-1 $-1 $39 $0 #
transform $-1 1 0 0 0 1 0 0 0 1 42.314523758659625 28.153421549574698 12.456430542901979 1 rotate no_reflect no_shear #
lump $-1 $-1 $40 $1 #
transform $-1 1 0 0 0 1 0 0 0 1 42.314523758659625 28.153421549574698 12.456430542901979 1 rotate no_reflect no_shear #
lump $-1 $-1 $41 $2 #
transform $-1 1 0 0 0 1 0 0 0 1 42.314523758659625 28.153421549574698 12.456430542901979 1 rotate no_reflect no_shear #
lump $-1 $-1 $42 $3 #
transform $-1 1 0 0 0 1 0 0 0 1 42.314523758659625 28.153421549574698 12.456430542901979 1 rotate no_reflect no_shear #
lump $-1 $-1 $43 $4 #
transform $-1 1 0 0 0 1 0 0 0 1 42.314523758659625 28.153421549574698 12.456430542901979 1 rotate no_reflect no_shear #
lump $-1 $-1 $44 $5 #
transform $-1 1 0 0 0 1 0 0 0 1 42.314523758659625 28.153421549574698 12.456430542901979 1 rotate no_reflect no_shear #
lump $-1 $-1 $45 $6 #
transform $-1 1 0 0 0 1 0 0 0 1 42.314523758659625 28.153421549574698 12.456430542901979 1 rotate no_reflect no_shear #
lump $-1 $-1 $46 $7 #
transform $-1 1 0 0 0 1 0 0 0 1 42.314523758659625 28.153421549574698 12.456430542901979 1 rotate no_reflect no_shear #
lump $-1 $-1 $47 $8 #
transform $-1 1 0 0 0 1 0 0 0 1 42.314523758659625 28.153421549574698 12.456430542901979 1 rotate no_reflect no_shear #
lump $-1 $-1 $48 $9 #
transform $-1 1 0 0 0 1 0 0 0 1 42.314523758659625 28.153421549574698 12.456430542901979 1 rotate no_reflect no_shear #
lump $-1 $-1 $49 $10 #
transform $-1 1 0 0 0 1 0 0 0 1 42.314523758659625 28.153421549574698 12.456430542901979 1 rotate no_reflect no_shear #
lump $-1 $-1 $50 $11 #
transform $-1 1 0 0 0 1 0 0 0 1 42.314523758659625 28.153421549574698 12.456430542901979 1 rotate no_reflect no_shear #
lump $-1 $-1 $51 $12 #
transform $-1 1 0 0 0 1 0 0 0 1 42.314523758659625 28.153421549574698 12.456430542901979 1 rotate no_reflect no_shear #
shell $-1 $-1 $-1 $52 $-1 $13 #
shell $-1 $-1 $-1 $53 $-1 $15 #
shell $-1 $-1 $-1 $54 $-1 $17 #
shell $-1 $-1 $-1 $55 $-1 $19 #
shell $-1 $-1 $-1 $56 $-1 $21 #
shell $-1 $-1 $-1 $57 $-1 $23 #
shell $-1 $-1 $-1 $58 $-1 $25 #
shell $-1 $-1 $-1 $59 $-1 $27 #
shell $-1 $-1 $-1 $60 $-1 $29 #
shell $-1 $-1 $-1 $61 $-1 $31 #
shell $-1 $-1 $-1 $62 $-1 $33 #
shell $-1 $-1 $-1 $63 $-1 $35 #
shell $-1 $-1 $-1 $64 $-1 $37 #
face $-1 $65 $66 $39 $-1 $67 forward single #
face $-1 $68 $69 $40 $-1 $70 forward single #
face $-1 $71 $72 $41 $-1 $73 reversed single #
face $-1 $74 $75 $42 $-1 $76 forward single #
face $-1 $77 $78 $43 $-1 $79 forward single #
face $-1 $80 $81 $44 $-1 $82 reversed single #
face $-1 $83 $84 $45 $-1 $85 forward single #
face $-1 $86 $87 $46 $-1 $88 forward single #
face $-1 $89 $90 $47 $-1 $91 forward single #
face $-1 $92 $93 $48 $-1 $94 reversed single #
face $-1 $95 $96 $49 $-1 $97 forward single #
face $-1 $98 $99 $50 $-1 $100 forward single #
face $-1 $101 $102 $51 $-1 $103 forward single #
face $-1 $104 $105 $39 $-1 $106 reversed single #
loop $-1 $-1 $107 $52 #
plane-surface $-1 0 0 12.456430542901979 0 0 1 1 0 0 forward_v I I I I #
face $-1 $108 $109 $40 $-1 $110 reversed single #
loop $-1 $-1 $111 $53 #
plane-surface $-1 -42.314523758659625 0 0 1 0 0 0 0 -1 forward_v I I I I #
face $-1 $112 $113 $41 $-1 $114 reversed single #
loop $-1 $-1 $115 $54 #
plane-surface $-1 -11.407486471038197 48.180245508086472 105.93167015358773 1 0 0 0 -0.70710678939079041 -0.70710677298230451 forward_v I I I I #
face $-1 $116 $117 $42 $-1 $118 forward single #
loop $-1 $119 $120 $55 #
cone-surface $-1 -5.4223108095747818 22.553483052342472 6.8564920321749359 0 -0.70710678939079041 -0.70710677298230451 2 0 0 1 I I 0 1 2 forward I I I I #
face $-1 $121 $122 $43 $-1 $123 forward single #
loop $-1 $124 $125 $56 #
cone-surface $-1 3.5554526826203414 22.553483052342472 6.8564920321749359 0 -0.70710678939079041 -0.70710677298230451 2 0 0 1 I I 0 1 2 forward I I I I #
face $-1 $126 $127 $44 $-1 $128 reversed single #
loop $-1 $-1 $129 $57 #
plane-surface $-1 -3.6632845752991052 -99.922924846822426 50.555282262354133 -1 0 0 0 -0.84804810408105047 0.52991925155115449 forward_v I I I I #
face $-1 $130 $131 $45 $-1 $132 forward single #
loop $-1 $133 $134 $58 #
cone-surface $-1 -11.141929532157004 -25.621179042760421 8.8176160169200184 0 0.84804810408105047 -0.52991925155115449 0.5 0 0 1 I I 0 1 0.5 forward I I I I #
face $-1 $135 $136 $46 $-1 $137 forward single #
loop $-1 $138 $139 $59 #
cone-surface $-1 -8.3374376733352875 -25.621179042760421 8.8176160169200184 0 0.84804810408105047 -0.52991925155115449 0.5 0 0 1 I I 0 1 0.5 forward I I I I #
face $-1 $140 $141 $47 $-1 $142 forward single #
loop $-1 $143 $144 $60 #
cone-surface $-1 -5.5329458145135746 -25.621179042760421 8.8176160169200184 0 0.84804810408105047 -0.52991925155115449 0.5 0 0 1 I I 0 1 0.5 forward I I I I #
face $-1 $145 $146 $48 $-1 $147 reversed single #
loop $-1 $-1 $148 $61 #
plane-surface $-1 26.988483630872505 -99.922924846822426 50.555282262354133 -1 0 0 0 -0.84804810408105047 0.52991925155115449 forward_v I I I I #
face $-1 $149 $150 $49 $-1 $151 forward single #
loop $-1 $152 $153 $62 #
cone-surface $-1 19.50983867401461 -25.621179042760421 8.8176160169200184 0 0.84804810408105047 -0.52991925155115449 0.5 0 0 1 I I 0 1 0.5 forward I I I I #
face $-1 $154 $155 $50 $-1 $156 forward single #
loop $-1 $157 $158 $63 #
cone-surface $-1 22.31433053283633 -25.621179042760421 8.8176160169200184 0 0.84804810408105047 -0.52991925155115449 0.5 0 0 1 I I 0 1 0.5 forward I I I I #
face $-1 $159 $160 $51 $-1 $161 forward single #
loop $-1 $162 $163 $64 #
cone-surface $-1 25.11882239165805 -25.621179042760421 8.8176160169200184 0 0.84804810408105047 -0.52991925155115449 0.5 0 0 1 I I 0 1 0.5 forward I I I I #
face $-1 $164 $165 $39 $-1 $166 reversed single #
loop $-1 $-1 $167 $65 #
plane-surface $-1 0 0 -12.456430542901979 0 0 1 1 0 0 forward_v I I I I #
coedge $-1 $168 $169 $170 $171 forward $66 $-1 #
face $-1 $172 $173 $40 $-1 $174 forward single #
loop $-1 $-1 $175 $68 #
plane-surface $-1 0 28.153421549574698 0 0 -1 0 0 0 -1 forward_v I I I I #
coedge $-1 $176 $177 $178 $179 forward $69 $-1 #
face $-1 $180 $181 $41 $-1 $182 reversed single #
loop $-1 $-1 $183 $71 #
plane-surface $-1 -0.93342906347722021 -11.661528571085789 46.089897463050008 0 0.70710678939079041 0.70710677298230451 1 0 0 forward_v I I I I #
coedge $-1 $184 $185 $186 $187 reversed $72 $-1 #
face $-1 $-1 $188 $42 $-1 $189 forward single #
loop $-1 $190 $191 $74 #
cone-surface $-1 -5.4223108095747818 19.337179756209711 3.6401888106768236 0 -0.70710678939079041 -0.70710677298230451 1 0 0 1 I I -0.70710678118654746 0.70710678118654746 1 forward I I I I #
loop $-1 $-1 $192 $55 #
coedge $-1 $120 $120 $193 $194 reversed $75 $-1 #
face $-1 $-1 $195 $43 $-1 $196 forward single #
loop $-1 $197 $198 $77 #
cone-surface $-1 3.5554526826203414 19.337179756209711 3.6401888106768236 0 -0.70710678939079041 -0.70710677298230451 1 0 0 1 I I -0.70710678118654746 0.70710678118654746 1 forward I I I I #
loop $-1 $-1 $199 $56 #
coedge $-1 $125 $125 $200 $201 reversed $78 $-1 #
face $-1 $202 $203 $44 $-1 $204 reversed single #
loop $-1 $-1 $205 $80 #
plane-surface $-1 -8.3374376733352946 -28.153421549574702 5.708720742489227 0 -0.84804810408105047 0.52991925155115449 1 0 0 forward_v I I I I #
coedge $-1 $206 $207 $208 $209 reversed $81 $-1 #
face $-1 $-1 $210 $45 $-1 $211 forward single #
loop $-1 $212 $213 $83 #
cone-surface $-1 -11.141929532157004 -24.985142964699634 8.4201765782566529 0 0.84804810408105047 -0.52991925155115449 0.25 0 0 1 I I -0.70710678118654746 0.70710678118654746 0.25 forward I I I I #
loop $-1 $-1 $214 $58 #
coedge $-1 $134 $134 $215 $216 reversed $84 $-1 #
face $-1 $-1 $217 $46 $-1 $218 forward single #
loop $-1 $219 $220 $86 #
cone-surface $-1 -8.3374376733352875 -24.985142964699634 8.4201765782566529 0 0.84804810408105047 -0.52991925155115449 0.25 0 0 1 I I -0.70710678118654746 0.70710678118654746 0.25 forward I I I I #
loop $-1 $-1 $221 $59 #
coedge $-1 $139 $139 $222 $223 reversed $87 $-1 #
face $-1 $-1 $224 $47 $-1 $225 forward single #
loop $-1 $226 $227 $89 #
cone-surface $-1 -5.5329458145135746 -24.985142964699634 8.4201765782566529 0 0.84804810408105047 -0.52991925155115449 0.25 0 0 1 I I -0.70710678118654746 0.70710678118654746 0.25 forward I I I I #
loop $-1 $-1 $228 $60 #
coedge $-1 $144 $144 $229 $230 reversed $90 $-1 #
face $-1 $231 $232 $48 $-1 $233 reversed single #
loop $-1 $-1 $234 $92 #
plane-surface $-1 22.314330532836316 -28.153421549574702 5.708720742489227 0 -0.84804810408105047 0.52991925155115449 1 0 0 forward_v I I I I #
coedge $-1 $235 $236 $237 $238 reversed $93 $-1 #
face $-1 $-1 $239 $49 $-1 $240 forward single #
loop $-1 $241 $242 $95 #
cone-surface $-1 19.50983867401461 -24.985142964699634 8.4201765782566529 0 0.84804810408105047 -0.52991925155115449 0.25 0 0 1 I I -0.70710678118654746 0.70710678118654746 0.25 forward I I I I #
loop $-1 $-1 $243 $62 #
coedge $-1 $153 $153 $244 $245 reversed $96 $-1 #
face $-1 $-1 $246 $50 $-1 $247 forward single #
loop $-1 $248 $249 $98 #
cone-surface $-1 22.31433053283633 -24.985142964699634 8.4201765782566529 0 0.84804810408105047 -0.52991925155115449 0.25 0 0 1 I I -0.70710678118654746 0.70710678118654746 0.25 forward I I I I #
loop $-1 $-1 $250 $63 #
coedge $-1 $158 $158 $251 $252 reversed $99 $-1 #
face $-1 $-1 $253 $51 $-1 $254 forward single #
loop $-1 $255 $256 $101 #
cone-surface $-1 25.11882239165805 -24.985142964699634 8.4201765782566529 0 0.84804810408105047 -0.52991925155115449 0.25 0 0 1 I I -0.70710678118654746 0.70710678118654746 0.25 forward I I I I #
loop $-1 $-1 $257 $64 #
coedge $-1 $163 $163 $258 $259 reversed $102 $-1 #
face $-1 $260 $261 $39 $-1 $262 reversed single #
loop $-1 $-1 $263 $104 #
plane-surface $-1 0 -28.153421549574698 0 0 1 0 0 0 1 forward_v I I I I #
coedge $-1 $264 $265 $266 $267 forward $105 $-1 #
coedge $-1 $268 $107 $269 $270 forward $66 $-1 #
coedge $-1 $107 $268 $271 $272 forward $66 $-1 #
coedge $-1 $273 $274 $107 $171 reversed $275 $-1 #
edge $-1 $276 -28.153421549574698 $277 28.153421549574698 $170 $278 forward 7 unknown #
face $-1 $279 $280 $40 $-1 $281 reversed single #
loop $-1 $-1 $178 $108 #
plane-surface $-1 -49.30297018841015 0 5.6284203858031931 0 0 1 1 0 0 forward_v I I I I #
coedge $-1 $282 $283 $177 $284 forward $109 $-1 #
coedge $-1 $285 $111 $286 $287 reversed $69 $-1 #
coedge $-1 $111 $285 $175 $284 reversed $69 $-1 #
coedge $-1 $288 $289 $111 $179 reversed $173 $-1 #
edge $-1 $290 -28.153421549574698 $291 28.153421549574698 $178 $292 forward 7 unknown #
face $-1 $293 $294 $41 $-1 $295 forward single #
loop $-1 $-1 $296 $112 #
plane-surface $-1 9.5406283440837569 48.180245508086472 105.93167015358773 -1 0 0 0 0.70710678939079041 0.70710677298230451 forward_v I I I I #
coedge $-1 $297 $298 $299 $300 reversed $113 $-1 #
coedge $-1 $185 $115 $301 $302 reversed $72 $-1 #
coedge $-1 $115 $184 $297 $303 reversed $72 $-1 #
coedge $-1 $299 $304 $115 $187 forward $294 $-1 #
edge $-1 $305 -4.0632987955314626 $306 2.1181851854490574 $186 $307 forward 7 unknown #
loop $-1 $-1 $193 $116 #
plane-surface $-1 -0.93342906347722021 -11.661528571085789 46.089897463050008 0 0.70710678939079041 0.70710677298230451 1 0 0 forward_v I I I I #
loop $-1 $-1 $308 $74 #
coedge $-1 $191 $191 $192 $309 reversed $117 $-1 #
coedge $-1 $192 $192 $191 $309 forward $119 $-1 #
coedge $-1 $193 $193 $120 $194 forward $188 $-1 #
edge $-1 $310 1.2560738649313782e-015 $310 6.2831853071796013 $193 $311 forward 7 unknown #
loop $-1 $-1 $200 $121 #
plane-surface $-1 -0.93342906347722021 -11.661528571085789 46.089897463050008 0 0.70710678939079041 0.70710677298230451 1 0 0 forward_v I I I I #
loop $-1 $-1 $312 $77 #
coedge $-1 $198 $198 $199 $313 reversed $122 $-1 #
coedge $-1 $199 $199 $198 $313 forward $124 $-1 #
coedge $-1 $200 $200 $125 $201 forward $195 $-1 #
edge $-1 $314 1.2560738649313782e-015 $314 6.2831853071796013 $200 $315 forward 7 unknown #
face $-1 $316 $317 $44 $-1 $318 reversed single #
loop $-1 $-1 $319 $126 #
plane-surface $-1 -13.011590771371484 -99.922924846822426 50.555282262354133 1 0 0 0 0.84804810408105047 -0.52991925155115449 forward_v I I I I #
coedge $-1 $320 $321 $322 $323 reversed $127 $-1 #
coedge $-1 $207 $129 $324 $325 reversed $81 $-1 #
coedge $-1 $129 $206 $320 $326 reversed $81 $-1 #
coedge $-1 $322 $327 $129 $209 forward $328 $-1 #
edge $-1 $329 21.808040873836514 $330 26.024477783384004 $208 $331 forward 7 unknown #
loop $-1 $-1 $215 $130 #
plane-surface $-1 -8.3374376733352946 -28.153421549574702 5.708720742489227 0 -0.84804810408105047 0.52991925155115449 1 0 0 forward_v I I I I #
loop $-1 $-1 $332 $83 #
coedge $-1 $213 $213 $214 $333 reversed $131 $-1 #
coedge $-1 $214 $214 $213 $333 forward $133 $-1 #
coedge $-1 $215 $215 $134 $216 forward $210 $-1 #
edge $-1 $334 2.2572919429243232e-015 $334 6.2831853071796031 $215 $335 forward 7 unknown #
loop $-1 $-1 $222 $135 #
plane-surface $-1 -8.3374376733352946 -28.153421549574702 5.708720742489227 0 -0.84804810408105047 0.52991925155115449 1 0 0 forward_v I I I I #
loop $-1 $-1 $336 $86 #
coedge $-1 $220 $220 $221 $337 reversed $136 $-1 #
coedge $-1 $221 $221 $220 $337 forward $138 $-1 #
coedge $-1 $222 $222 $139 $223 forward $217 $-1 #
edge $-1 $338 2.2572919429243232e-015 $338 6.2831853071796031 $222 $339 forward 7 unknown #
loop $-1 $-1 $229 $140 #
plane-surface $-1 -8.3374376733352946 -28.153421549574702 5.708720742489227 0 -0.84804810408105047 0.52991925155115449 1 0 0 forward_v I I I I #
loop $-1 $-1 $340 $89 #
coedge $-1 $227 $227 $228 $341 reversed $141 $-1 #
coedge $-1 $228 $228 $227 $341 forward $143 $-1 #
coedge $-1 $229 $229 $144 $230 forward $224 $-1 #
edge $-1 $342 2.2572919429243232e-015 $342 6.2831853071796031 $229 $343 forward 7 unknown #
face $-1 $344 $345 $48 $-1 $346 reversed single #
loop $-1 $-1 $347 $145 #
plane-surface $-1 17.640177434800126 -99.922924846822426 50.555282262354133 1 0 0 0 0.84804810408105047 -0.52991925155115449 forward_v I I I I #
coedge $-1 $348 $349 $350 $351 reversed $146 $-1 #
coedge $-1 $236 $148 $352 $353 reversed $93 $-1 #
coedge $-1 $148 $235 $348 $354 reversed $93 $-1 #
coedge $-1 $350 $355 $148 $238 forward $356 $-1 #
edge $-1 $357 21.808040873836514 $358 26.024477783384004 $237 $359 forward 7 unknown #
loop $-1 $-1 $244 $149 #
plane-surface $-1 22.314330532836316 -28.153421549574702 5.708720742489227 0 -0.84804810408105047 0.52991925155115449 1 0 0 forward_v I I I I #
loop $-1 $-1 $360 $95 #
coedge $-1 $242 $242 $243 $361 reversed $150 $-1 #
coedge $-1 $243 $243 $242 $361 forward $152 $-1 #
coedge $-1 $244 $244 $153 $245 forward $239 $-1 #
edge $-1 $362 2.2572919429243232e-015 $362 6.2831853071796031 $244 $363 forward 7 unknown #
loop $-1 $-1 $251 $154 #
plane-surface $-1 22.314330532836316 -28.153421549574702 5.708720742489227 0 -0.84804810408105047 0.52991925155115449 1 0 0 forward_v I I I I #
loop $-1 $-1 $364 $98 #
coedge $-1 $249 $249 $250 $365 reversed $155 $-1 #
coedge $-1 $250 $250 $249 $365 forward $157 $-1 #
coedge $-1 $251 $251 $158 $252 forward $246 $-1 #
edge $-1 $366 2.2572919429243232e-015 $366 6.2831853071796031 $251 $367 forward 7 unknown #
loop $-1 $-1 $258 $159 #
plane-surface $-1 22.314330532836316 -28.153421549574702 5.708720742489227 0 -0.84804810408105047 0.52991925155115449 1 0 0 forward_v I I I I #
loop $-1 $-1 $368 $101 #
coedge $-1 $256 $256 $257 $369 reversed $160 $-1 #
coedge $-1 $257 $257 $256 $369 forward $162 $-1 #
coedge $-1 $258 $258 $163 $259 forward $253 $-1 #
edge $-1 $370 2.2572919429243232e-015 $370 6.2831853071796031 $258 $371 forward 7 unknown #
face $-1 $372 $373 $39 $-1 $374 reversed single #
loop $-1 $-1 $375 $164 #
plane-surface $-1 -42.314523758659625 0 0 1 0 0 0 0 -1 forward_v I I I I #
coedge $-1 $376 $271 $377 $378 forward $165 $-1 #
coedge $-1 $379 $167 $376 $380 forward $105 $-1 #
coedge $-1 $167 $379 $381 $382 forward $105 $-1 #
coedge $-1 $274 $273 $167 $267 reversed $275 $-1 #
edge $-1 $383 -28.153421549574698 $384 28.153421549574698 $266 $385 forward 7 unknown #
coedge $-1 $169 $168 $386 $387 forward $66 $-1 #
coedge $-1 $388 $389 $168 $270 reversed $373 $-1 #
edge $-1 $277 -42.314523758659625 $390 42.314523758659625 $269 $391 forward 7 unknown #
coedge $-1 $263 $392 $169 $272 reversed $165 $-1 #
edge $-1 $393 -42.314523758659625 $276 42.314523758659625 $271 $394 forward 7 unknown #
coedge $-1 $266 $170 $392 $395 forward $275 $-1 #
coedge $-1 $170 $266 $388 $396 reversed $275 $-1 #
loop $-1 $-1 $273 $372 #
vertex $-1 $171 $397 #
vertex $-1 $171 $398 #
straight-curve $-1 42.314523758659625 0 12.456430542901979 0 1 0 I I #
face $-1 $399 $400 $40 $-1 $401 reversed single #
loop $-1 $-1 $402 $172 #
plane-surface $-1 -49.30297018841015 0 0.44687677223275468 0 0 1 1 0 0 forward_v I I I I #
coedge $-1 $403 $175 $404 $405 reversed $109 $-1 #
coedge $-1 $175 $403 $288 $406 reversed $109 $-1 #
edge $-1 $290 -5.6284203858031931 $407 -0.44687677223275468 $175 $408 forward 7 unknown #
coedge $-1 $177 $176 $402 $409 forward $69 $-1 #
coedge $-1 $410 $411 $176 $287 forward $412 $-1 #
edge $-1 $413 0.44687677223275468 $291 5.6284203858031931 $286 $414 forward 7 unknown #
coedge $-1 $415 $178 $283 $406 forward $173 $-1 #
coedge $-1 $178 $415 $410 $416 forward $173 $-1 #
vertex $-1 $284 $417 #
vertex $-1 $416 $418 #
straight-curve $-1 -42.314523758659625 0 5.6284203858031931 0 -1 0 I I #
face $-1 $-1 $419 $41 $-1 $420 reversed single #
loop $-1 $-1 $186 $180 #
plane-surface $-1 0 0 12.456430542901979 0 0 1 1 0 0 forward_v I I I I #
coedge $-1 $421 $422 $423 $424 reversed $181 $-1 #
coedge $-1 $425 $183 $185 $303 forward $113 $-1 #
coedge $-1 $183 $425 $421 $426 forward $113 $-1 #
coedge $-1 $423 $186 $183 $300 forward $294 $-1 #
edge $-1 $306 -10.940771939299587 $427 10.007342875822367 $299 $428 forward 7 unknown #
coedge $-1 $429 $430 $184 $302 forward $419 $-1 #
edge $-1 $431 -46.690888658314385 $305 -40.509404533891889 $301 $432 forward 7 unknown #
edge $-1 $306 47.564904516225958 $431 56.306843099149425 $185 $433 forward 7 unknown #
coedge $-1 $186 $423 $429 $434 forward $294 $-1 #
vertex $-1 $302 $435 #
vertex $-1 $187 $436 #
straight-curve $-1 -11.407486471038197 24.090122754043236 12.456430542901977 0 -1 0 I I #
coedge $-1 $308 $308 $-1 $437 reversed $190 $-1 #
edge $-1 $438 0 $438 6.2831853071796004 $191 $439 forward 7 unknown #
vertex $-1 $194 $440 #
ellipse-curve $-1 -5.4223108095747818 25.06267955908443 9.3656884806907321 0 0.70710678939079041 0.70710677298230451 2 0 0 1 I I #
coedge $-1 $312 $312 $-1 $441 reversed $197 $-1 #
edge $-1 $442 0 $442 6.2831853071796004 $198 $443 forward 7 unknown #
vertex $-1 $201 $444 #
ellipse-curve $-1 3.5554526826203414 25.06267955908443 9.3656884806907321 0 0.70710678939079041 0.70710677298230451 2 0 0 1 I I #
face $-1 $-1 $328 $44 $-1 $445 forward single #
loop $-1 $-1 $446 $202 #
plane-surface $-1 0 -28.153421549574698 0 0 1 0 0 0 1 forward_v I I I I #
coedge $-1 $447 $448 $449 $450 reversed $203 $-1 #
coedge $-1 $451 $205 $207 $326 forward $127 $-1 #
coedge $-1 $205 $451 $447 $452 forward $127 $-1 #
coedge $-1 $449 $208 $205 $323 forward $328 $-1 #
edge $-1 $330 -0.50543426136854208 $453 8.8428719347038367 $322 $454 forward 7 unknown #
coedge $-1 $455 $456 $206 $325 forward $317 $-1 #
edge $-1 $457 -19.568920388687836 $329 -12.821210588275088 $324 $458 forward 7 unknown #
edge $-1 $330 -7.9567535944492285 $457 -6.4019595231198791e-015 $207 $459 forward 7 unknown #
coedge $-1 $208 $449 $455 $460 forward $328 $-1 #
loop $-1 $-1 $449 $316 #
vertex $-1 $325 $461 #
vertex $-1 $209 $462 #
straight-curve $-1 -3.6632845752991052 -49.961462423411213 12.456430542901977 0 1 0 I I #
coedge $-1 $332 $332 $-1 $463 reversed $212 $-1 #
edge $-1 $464 0 $464 6.2831853071796004 $213 $465 forward 7 unknown #
vertex $-1 $216 $466 #
ellipse-curve $-1 -11.141929532157004 -26.045203094800957 9.0825756426956019 0 -0.84804810408105047 0.52991925155115449 0.5 0 0 1 I I #
coedge $-1 $336 $336 $-1 $467 reversed $219 $-1 #
edge $-1 $468 0 $468 6.2831853071796004 $220 $469 forward 7 unknown #
vertex $-1 $223 $470 #
ellipse-curve $-1 -8.3374376733352875 -26.045203094800957 9.0825756426956019 0 -0.84804810408105047 0.52991925155115449 0.5 0 0 1 I I #
coedge $-1 $340 $340 $-1 $471 reversed $226 $-1 #
edge $-1 $472 0 $472 6.2831853071796004 $227 $473 forward 7 unknown #
vertex $-1 $230 $474 #
ellipse-curve $-1 -5.5329458145135746 -26.045203094800957 9.0825756426956019 0 -0.84804810408105047 0.52991925155115449 0.5 0 0 1 I I #
face $-1 $-1 $356 $48 $-1 $475 forward single #
loop $-1 $-1 $476 $231 #
plane-surface $-1 0 -28.153421549574698 0 0 1 0 0 0 1 forward_v I I I I #
coedge $-1 $477 $478 $479 $480 reversed $232 $-1 #
coedge $-1 $481 $234 $236 $354 forward $146 $-1 #
coedge $-1 $234 $481 $477 $482 forward $146 $-1 #
coedge $-1 $479 $237 $234 $351 forward $356 $-1 #
edge $-1 $358 -15.831318364454347 $483 -6.4830121683819684 $350 $484 forward 7 unknown #
coedge $-1 $485 $486 $235 $353 forward $345 $-1 #
edge $-1 $487 -19.568920388687836 $357 -12.821210588275088 $352 $488 forward 7 unknown #
edge $-1 $358 -7.9567535944492285 $487 -6.4019595231198791e-015 $236 $489 forward 7 unknown #
coedge $-1 $237 $479 $485 $490 forward $356 $-1 #
loop $-1 $-1 $479 $344 #
vertex $-1 $353 $491 #
vertex $-1 $238 $492 #
straight-curve $-1 26.988483630872505 -49.961462423411213 12.456430542901977 0 1 0 I I #
coedge $-1 $360 $360 $-1 $493 reversed $241 $-1 #
edge $-1 $494 0 $494 6.2831853071796004 $242 $495 forward 7 unknown #
vertex $-1 $245 $496 #
ellipse-curve $-1 19.50983867401461 -26.045203094800957 9.0825756426956019 0 -0.84804810408105047 0.52991925155115449 0.5 0 0 1 I I #
coedge $-1 $364 $364 $-1 $497 reversed $248 $-1 #
edge $-1 $498 0 $498 6.2831853071796004 $249 $499 forward 7 unknown #
vertex $-1 $252 $500 #
ellipse-curve $-1 22.31433053283633 -26.045203094800957 9.0825756426956019 0 -0.84804810408105047 0.52991925155115449 0.5 0 0 1 I I #
coedge $-1 $368 $368 $-1 $501 reversed $255 $-1 #
edge $-1 $502 0 $502 6.2831853071796004 $256 $503 forward 7 unknown #
vertex $-1 $259 $504 #
ellipse-curve $-1 25.11882239165805 -26.045203094800957 9.0825756426956019 0 -0.84804810408105047 0.52991925155115449 0.5 0 0 1 I I #
face $-1 $-1 $275 $39 $-1 $505 reversed single #
loop $-1 $-1 $388 $260 #
plane-surface $-1 0 28.153421549574698 0 0 -1 0 0 0 -1 forward_v I I I I #
coedge $-1 $506 $386 $389 $507 forward $261 $-1 #
coedge $-1 $392 $263 $264 $380 reversed $165 $-1 #
coedge $-1 $386 $506 $263 $378 reversed $261 $-1 #
edge $-1 $393 -12.456430542901979 $508 12.456430542901979 $377 $509 forward 7 unknown #
coedge $-1 $265 $264 $506 $510 forward $105 $-1 #
edge $-1 $384 -42.314523758659625 $508 42.314523758659625 $376 $511 forward 7 unknown #
coedge $-1 $389 $388 $265 $382 reversed $373 $-1 #
edge $-1 $512 -42.314523758659625 $383 42.314523758659625 $381 $513 forward 7 unknown #
vertex $-1 $267 $514 #
vertex $-1 $395 $515 #
straight-curve $-1 42.314523758659625 0 -12.456430542901979 0 -1 0 I I #
coedge $-1 $375 $377 $268 $387 reversed $261 $-1 #
edge $-1 $390 -28.153421549574698 $393 28.153421549574698 $386 $516 forward 7 unknown #
coedge $-1 $381 $269 $274 $396 forward $373 $-1 #
coedge $-1 $269 $381 $375 $507 reversed $373 $-1 #
vertex $-1 $270 $517 #
straight-curve $-1 0 28.153421549574698 12.456430542901979 -1 0 0 I I #
coedge $-1 $271 $376 $273 $395 reversed $165 $-1 #
vertex $-1 $387 $518 #
straight-curve $-1 0 -28.153421549574698 12.456430542901979 1 0 0 I I #
edge $-1 $276 -12.456430542901979 $384 12.456430542901979 $273 $519 forward 7 unknown #
edge $-1 $277 -12.456430542901979 $383 12.456430542901979 $274 $520 forward 7 unknown #
point $-1 42.314523758659625 -28.153421549574698 12.456430542901979 #
point $-1 42.314523758659625 28.153421549574698 12.456430542901979 #
face $-1 $-1 $412 $40 $-1 $521 reversed single #
loop $-1 $-1 $522 $279 #
plane-surface $-1 -56.291416618160675 0 3.0376485790179739 1 0 0 0 0 -1 forward_v I I I I #
coedge $-1 $523 $404 $285 $409 reversed $280 $-1 #
coedge $-1 $283 $282 $522 $524 reversed $109 $-1 #
coedge $-1 $402 $525 $282 $405 forward $280 $-1 #
edge $-1 $526 -6.9884464297505247 $407 6.9884464297505247 $282 $527 forward 7 unknown #
edge $-1 $290 -6.9884464297505247 $528 6.9884464297505247 $283 $529 forward 7 unknown #
vertex $-1 $284 $530 #
straight-curve $-1 -42.314523758659625 28.153421549574698 0 0 0 -1 I I #
edge $-1 $413 -28.153421549574698 $407 28.153421549574698 $402 $531 forward 7 unknown #
coedge $-1 $532 $286 $289 $416 reversed $412 $-1 #
coedge $-1 $286 $532 $523 $533 reversed $412 $-1 #
loop $-1 $-1 $286 $399 #
vertex $-1 $287 $534 #
straight-curve $-1 -42.314523758659625 -28.153421549574698 0 0 0 1 I I #
coedge $-1 $289 $288 $535 $536 forward $173 $-1 #
edge $-1 $537 -6.9884464297505247 $291 6.9884464297505247 $410 $538 forward 7 unknown #
point $-1 -42.314523758659625 28.153421549574698 5.6284203858031931 #
point $-1 -42.314523758659625 -28.153421549574698 5.6284203858031931 #
loop $-1 $-1 $301 $293 #
plane-surface $-1 0 28.153421549574698 0 0 -1 0 0 0 -1 forward_v I I I I #
coedge $-1 $422 $296 $298 $426 reversed $181 $-1 #
coedge $-1 $296 $421 $539 $540 reversed $181 $-1 #
coedge $-1 $304 $299 $296 $424 forward $294 $-1 #
edge $-1 $427 -2.1181851854490574 $541 4.0632987955314626 $423 $542 forward 7 unknown #
coedge $-1 $298 $297 $430 $543 reversed $113 $-1 #
edge $-1 $544 -56.306843099149425 $427 -47.564904516225958 $421 $545 forward 7 unknown #
vertex $-1 $300 $546 #
straight-curve $-1 -0.46671453173861011 21.971937568594175 12.456430542901977 1 0 0 I I #
coedge $-1 $539 $301 $304 $434 reversed $419 $-1 #
coedge $-1 $301 $539 $425 $543 forward $419 $-1 #
vertex $-1 $302 $547 #
straight-curve $-1 -11.407486471038197 28.153421549574698 52.965835076793866 0 0 1 I I #
straight-curve $-1 -11.407486471038197 -11.661528571085789 46.089897463050008 0 0.70710677298230451 -0.70710678939079041 I I #
edge $-1 $541 -9.5406283440837569 $305 11.407486471038197 $429 $548 forward 7 unknown #
point $-1 -11.407486471038197 28.153421549574698 12.456430542901979 #
point $-1 -11.407486471038197 21.971937568594178 12.456430542901977 #
edge $-1 $549 1 $549 0 $308 $-1 forward 7 unknown #
vertex $-1 $309 $550 #
ellipse-curve $-1 -5.4223108095747818 20.044286545600499 4.347295583659128 0 0.70710678939079041 0.70710677298230451 2 0 0 1 I I #
point $-1 -3.4223108095747818 25.062679559084444 9.3656884806907428 #
edge $-1 $551 1 $551 0 $312 $-1 forward 7 unknown #
vertex $-1 $313 $552 #
ellipse-curve $-1 3.5554526826203414 20.044286545600499 4.347295583659128 0 0.70710678939079041 0.70710677298230451 2 0 0 1 I I #
point $-1 5.5554526826203414 25.062679559084444 9.3656884806907428 #
plane-surface $-1 0 0 12.456430542901979 0 0 1 1 0 0 forward_v I I I I #
coedge $-1 $456 $455 $448 $553 forward $317 $-1 #
coedge $-1 $448 $319 $321 $452 reversed $203 $-1 #
coedge $-1 $319 $447 $446 $553 reversed $203 $-1 #
coedge $-1 $327 $322 $319 $450 forward $328 $-1 #
edge $-1 $453 -26.024477783384004 $554 -21.808040873836514 $449 $555 forward 7 unknown #
coedge $-1 $321 $320 $456 $556 reversed $127 $-1 #
edge $-1 $557 6.4019595231198791e-015 $453 7.9567535944492285 $447 $558 forward 7 unknown #
vertex $-1 $323 $559 #
straight-curve $-1 -4.1687188366676473 -23.936984640027209 12.456430542901979 -1 0 0 I I #
coedge $-1 $446 $324 $327 $460 reversed $317 $-1 #
coedge $-1 $324 $446 $451 $556 forward $317 $-1 #
vertex $-1 $325 $560 #
straight-curve $-1 -3.6632845752991052 -28.153421549574702 25.277641131177067 0 0 1 I I #
straight-curve $-1 -3.6632845752991052 -28.153421549574702 5.708720742489227 0 -0.52991925155115449 -0.84804810408105047 I I #
edge $-1 $554 -13.011590771371484 $329 -3.6632845752991052 $455 $561 forward 7 unknown #
point $-1 -3.6632845752991052 -28.153421549574698 12.456430542901979 #
point $-1 -3.6632845752991052 -23.936984640027209 12.456430542901979 #
edge $-1 $562 1 $562 0 $332 $-1 forward 7 unknown #
vertex $-1 $333 $563 #
ellipse-curve $-1 -11.141929532157004 -25.197154990719895 8.552656391144442 0 -0.84804810408105047 0.52991925155115449 0.5 0 0 1 I I #
point $-1 -10.641929532157004 -26.045203094800947 9.0825756426955966 #
edge $-1 $564 1 $564 0 $336 $-1 forward 7 unknown #
vertex $-1 $337 $565 #
ellipse-curve $-1 -8.3374376733352875 -25.197154990719895 8.552656391144442 0 -0.84804810408105047 0.52991925155115449 0.5 0 0 1 I I #
point $-1 -7.8374376733352875 -26.045203094800947 9.0825756426955966 #
edge $-1 $566 1 $566 0 $340 $-1 forward 7 unknown #
vertex $-1 $341 $567 #
ellipse-curve $-1 -5.5329458145135746 -25.197154990719895 8.552656391144442 0 -0.84804810408105047 0.52991925155115449 0.5 0 0 1 I I #
point $-1 -5.0329458145135746 -26.045203094800947 9.0825756426955966 #
plane-surface $-1 0 0 12.456430542901979 0 0 1 1 0 0 forward_v I I I I #
coedge $-1 $486 $485 $478 $568 forward $345 $-1 #
coedge $-1 $478 $347 $349 $482 reversed $232 $-1 #
coedge $-1 $347 $477 $476 $568 reversed $232 $-1 #
coedge $-1 $355 $350 $347 $480 forward $356 $-1 #
edge $-1 $483 -26.024477783384004 $569 -21.808040873836514 $479 $570 forward 7 unknown #
coedge $-1 $349 $348 $486 $571 reversed $146 $-1 #
edge $-1 $572 6.4019595231198791e-015 $483 7.9567535944492285 $477 $573 forward 7 unknown #
vertex $-1 $351 $574 #
straight-curve $-1 11.157165266418158 -23.936984640027209 12.456430542901979 -1 0 0 I I #
coedge $-1 $476 $352 $355 $490 reversed $345 $-1 #
coedge $-1 $352 $476 $481 $571 forward $345 $-1 #
vertex $-1 $353 $575 #
straight-curve $-1 26.988483630872505 -28.153421549574702 25.277641131177067 0 0 1 I I #
straight-curve $-1 26.988483630872505 -28.153421549574702 5.708720742489227 0 -0.52991925155115449 -0.84804810408105047 I I #
edge $-1 $569 17.640177434800126 $357 26.988483630872505 $485 $576 forward 7 unknown #
point $-1 26.988483630872505 -28.153421549574698 12.456430542901979 #
point $-1 26.988483630872505 -23.936984640027209 12.456430542901979 #
edge $-1 $577 1 $577 0 $360 $-1 forward 7 unknown #
vertex $-1 $361 $578 #
ellipse-curve $-1 19.50983867401461 -25.197154990719895 8.552656391144442 0 -0.84804810408105047 0.52991925155115449 0.5 0 0 1 I I #
point $-1 20.00983867401461 -26.045203094800947 9.0825756426955966 #
edge $-1 $579 1 $579 0 $364 $-1 forward 7 unknown #
vertex $-1 $365 $580 #
ellipse-curve $-1 22.31433053283633 -25.197154990719895 8.552656391144442 0 -0.84804810408105047 0.52991925155115449 0.5 0 0 1 I I #
point $-1 22.81433053283633 -26.045203094800947 9.0825756426955966 #
edge $-1 $581 1 $581 0 $368 $-1 forward 7 unknown #
vertex $-1 $369 $582 #
ellipse-curve $-1 25.11882239165805 -25.197154990719895 8.552656391144442 0 -0.84804810408105047 0.52991925155115449 0.5 0 0 1 I I #
point $-1 25.61882239165805 -26.045203094800947 9.0825756426955966 #
plane-surface $-1 42.314523758659625 0 0 -1 0 0 0 0 1 forward_v I I I I #
coedge $-1 $377 $375 $379 $510 reversed $261 $-1 #
edge $-1 $390 -12.456430542901979 $512 12.456430542901979 $389 $583 forward 7 unknown #
vertex $-1 $510 $584 #
straight-curve $-1 -42.314523758659625 -28.153421549574698 0 0 0 -1 I I #
edge $-1 $508 -28.153421549574698 $512 28.153421549574698 $506 $585 forward 7 unknown #
straight-curve $-1 0 -28.153421549574698 -12.456430542901979 -1 0 0 I I #
vertex $-1 $382 $586 #
straight-curve $-1 0 28.153421549574698 -12.456430542901979 1 0 0 I I #
point $-1 42.314523758659625 28.153421549574698 -12.456430542901979 #
point $-1 42.314523758659625 -28.153421549574698 -12.456430542901979 #
straight-curve $-1 -42.314523758659625 0 12.456430542901979 0 -1 0 I I #
point $-1 -42.314523758659625 28.153421549574698 12.456430542901979 #
point $-1 -42.314523758659625 -28.153421549574698 12.456430542901979 #
straight-curve $-1 42.314523758659625 -28.153421549574698 0 0 0 -1 I I #
straight-curve $-1 42.314523758659625 28.153421549574698 0 0 0 -1 I I #
plane-surface $-1 0 -28.153421549574698 0 0 1 0 0 0 1 forward_v I I I I #
coedge $-1 $587 $535 $403 $524 forward $400 $-1 #
coedge $-1 $525 $402 $411 $533 forward $280 $-1 #
edge $-1 $528 -2.5907718067852192 $526 2.5907718067852192 $403 $588 forward 7 unknown #
coedge $-1 $404 $523 $587 $589 forward $280 $-1 #
vertex $-1 $405 $590 #
straight-curve $-1 -49.30297018841015 28.153421549574698 0.44687677223275468 1 0 0 I I #
vertex $-1 $406 $591 #
straight-curve $-1 -49.30297018841015 28.153421549574698 5.6284203858031931 -1 0 0 I I #
point $-1 -42.314523758659625 28.153421549574698 0.44687677223275468 #
straight-curve $-1 -42.314523758659625 0 0.44687677223275468 0 1 0 I I #
coedge $-1 $411 $410 $592 $593 forward $412 $-1 #
edge $-1 $413 -6.9884464297505247 $594 6.9884464297505247 $411 $595 forward 7 unknown #
point $-1 -42.314523758659625 -28.153421549574698 0.44687677223275468 #
coedge $-1 $522 $592 $415 $536 reversed $400 $-1 #
edge $-1 $528 -28.153421549574698 $537 28.153421549574698 $535 $596 forward 7 unknown #
vertex $-1 $536 $597 #
straight-curve $-1 -49.30297018841015 -28.153421549574698 5.6284203858031931 1 0 0 I I #
coedge $-1 $430 $429 $422 $540 forward $419 $-1 #
edge $-1 $541 40.509404533891889 $544 46.690888658314385 $539 $598 forward 7 unknown #
vertex $-1 $434 $599 #
straight-curve $-1 9.5406283440837569 24.090122754043236 12.456430542901977 0 1 0 I I #
edge $-1 $544 -10.007342875822367 $431 10.940771939299587 $430 $600 forward 7 unknown #
vertex $-1 $543 $601 #
straight-curve $-1 9.5406283440837569 -11.661528571085789 46.089897463050008 0 -0.70710677298230451 0.70710678939079041 I I #
point $-1 9.5406283440837569 21.971937568594178 12.456430542901977 #
point $-1 -11.407486471038197 28.153421549574695 6.2749464184794803 #
straight-curve $-1 0 28.153421549574698 12.456430542901979 -1 0 0 I I #
vertex $-1 $437 $602 #
point $-1 -3.4223108095747818 20.044286545600499 4.347295583659128 #
vertex $-1 $441 $603 #
point $-1 5.5554526826203414 20.044286545600499 4.347295583659128 #
edge $-1 $554 12.821210588275088 $557 19.568920388687836 $446 $604 forward 7 unknown #
vertex $-1 $460 $605 #
straight-curve $-1 -13.011590771371484 -49.961462423411213 12.456430542901977 0 -1 0 I I #
edge $-1 $557 -8.8428719347038367 $457 0.50543426136854208 $456 $606 forward 7 unknown #
vertex $-1 $556 $607 #
straight-curve $-1 -13.011590771371484 -28.153421549574702 5.708720742489227 0 0.52991925155115449 0.84804810408105047 I I #
point $-1 -13.011590771371484 -23.936984640027209 12.456430542901979 #
point $-1 -3.6632845752991052 -28.153421549574698 5.7087207424892323 #
straight-curve $-1 0 -28.153421549574698 12.456430542901979 1 0 0 I I #
vertex $-1 $463 $608 #
point $-1 -10.641929532157004 -25.197154990719895 8.552656391144442 #
vertex $-1 $467 $609 #
point $-1 -7.8374376733352875 -25.197154990719895 8.552656391144442 #
vertex $-1 $471 $610 #
point $-1 -5.0329458145135746 -25.197154990719895 8.552656391144442 #
edge $-1 $569 12.821210588275088 $572 19.568920388687836 $476 $611 forward 7 unknown #
vertex $-1 $490 $612 #
straight-curve $-1 17.640177434800126 -49.961462423411213 12.456430542901977 0 -1 0 I I #
edge $-1 $572 6.4830121683819684 $487 15.831318364454347 $486 $613 forward 7 unknown #
vertex $-1 $571 $614 #
straight-curve $-1 17.640177434800126 -28.153421549574702 5.708720742489227 0 0.52991925155115449 0.84804810408105047 I I #
point $-1 17.640177434800126 -23.936984640027209 12.456430542901979 #
point $-1 26.988483630872505 -28.153421549574698 5.7087207424892323 #
straight-curve $-1 0 -28.153421549574698 12.456430542901979 1 0 0 I I #
vertex $-1 $493 $615 #
point $-1 20.00983867401461 -25.197154990719895 8.552656391144442 #
vertex $-1 $497 $616 #
point $-1 22.81433053283633 -25.197154990719895 8.552656391144442 #
vertex $-1 $501 $617 #
point $-1 25.61882239165805 -25.197154990719895 8.552656391144442 #
straight-curve $-1 -42.314523758659625 28.153421549574698 0 0 0 -1 I I #
point $-1 -42.314523758659625 -28.153421549574698 -12.456430542901979 #
straight-curve $-1 -42.314523758659625 0 -12.456430542901979 0 1 0 I I #
point $-1 -42.314523758659625 28.153421549574698 -12.456430542901979 #
coedge $-1 $592 $522 $525 $589 reversed $400 $-1 #
straight-curve $-1 -56.291416618160675 28.153421549574698 3.0376485790179739 0 0 -1 I I #
edge $-1 $594 -28.153421549574698 $526 28.153421549574698 $587 $618 forward 7 unknown #
point $-1 -56.291416618160675 28.153421549574698 0.44687677223275468 #
point $-1 -56.291416618160675 28.153421549574698 5.6284203858031931 #
coedge $-1 $535 $587 $532 $593 reversed $400 $-1 #
edge $-1 $537 -2.5907718067852192 $594 2.5907718067852192 $592 $619 forward 7 unknown #
vertex $-1 $589 $620 #
straight-curve $-1 -49.30297018841015 -28.153421549574698 0.44687677223275468 -1 0 0 I I #
straight-curve $-1 -56.291416618160675 0 5.6284203858031931 0 -1 0 I I #
point $-1 -56.291416618160675 -28.153421549574698 5.6284203858031931 #
straight-curve $-1 9.5406283440837569 28.153421549574698 52.965835076793866 0 0 -1 I I #
point $-1 9.5406283440837569 28.153421549574698 12.456430542901979 #
straight-curve $-1 -0.46671453173861011 28.153421549574695 6.2749464184794874 -1 0 0 I I #
point $-1 9.5406283440837569 28.153421549574695 6.2749464184794803 #
point $-1 -5.4223108095747818 18.630072966818922 2.9330820376945193 #
point $-1 3.5554526826203414 18.630072966818922 2.9330820376945193 #
straight-curve $-1 -13.011590771371484 -28.153421549574702 25.277641131177067 0 0 -1 I I #
point $-1 -13.011590771371484 -28.153421549574698 12.456430542901979 #
straight-curve $-1 -4.1687188366676473 -28.153421549574698 5.708720742489235 1 0 0 I I #
point $-1 -13.011590771371484 -28.153421549574698 5.7087207424892323 #
point $-1 -11.141929532157004 -24.773130938679373 8.2876967653688638 #
point $-1 -8.3374376733352875 -24.773130938679373 8.2876967653688638 #
point $-1 -5.5329458145135746 -24.773130938679373 8.2876967653688638 #
straight-curve $-1 17.640177434800126 -28.153421549574702 25.277641131177067 0 0 -1 I I #
point $-1 17.640177434800126 -28.153421549574698 12.456430542901979 #
straight-curve $-1 11.157165266418158 -28.153421549574698 5.708720742489235 1 0 0 I I #
point $-1 17.640177434800126 -28.153421549574698 5.7087207424892323 #
point $-1 19.50983867401461 -24.773130938679373 8.2876967653688638 #
point $-1 22.31433053283633 -24.773130938679373 8.2876967653688638 #
point $-1 25.11882239165805 -24.773130938679373 8.2876967653688638 #
straight-curve $-1 -56.291416618160675 0 0.44687677223275468 0 1 0 I I #
straight-curve $-1 -56.291416618160675 -28.153421549574698 3.0376485790179739 0 0 -1 I I #
point $-1 -56.291416618160675 -28.153421549574698 0.44687677223275468 #
End-of-ACIS-data 