500 0 9 0           
7 Unknown 11 ACIS 5.0 NT 24 Fri Mar 26 02:52:51 1999 
-1 9.9999999999999995e-007 1e-010 
body $-1 $9 $-1 $10 #
body $-1 $11 $-1 $12 #
body $-1 $13 $-1 $14 #
body $-1 $15 $-1 $16 #
body $-1 $17 $-1 $18 #
body $-1 $19 $-1 $20 #
body $-1 $21 $-1 $22 #
body $-1 $23 $-1 $24 #
body $-1 $25 $-1 $26 #
lump $-1 $-1 $27 $0 #
transform $-1 1 0 0 0 1 0 0 0 1 56.227301858577228 38.299669296319905 16.855501298700243 1 rotate no_reflect no_shear #
lump $-1 $-1 $28 $1 #
transform $-1 1 0 0 0 1 0 0 0 1 56.227301858577228 38.299669296319905 16.855501298700243 1 rotate no_reflect no_shear #
lump $-1 $-1 $29 $2 #
transform $-1 1 0 0 0 1 0 0 0 1 56.227301858577228 38.299669296319905 16.855501298700243 1 rotate no_reflect no_shear #
lump $-1 $-1 $30 $3 #
transform $-1 1 0 0 0 1 0 0 0 1 56.227301858577228 38.299669296319905 16.855501298700243 1 rotate no_reflect no_shear #
lump $-1 $-1 $31 $4 #
transform $-1 1 0 0 0 1 0 0 0 1 56.227301858577228 38.299669296319905 16.855501298700243 1 rotate no_reflect no_shear #
lump $-1 $-1 $32 $5 #
transform $-1 1 0 0 0 1 0 0 0 1 56.227301858577228 38.299669296319905 16.855501298700243 1 rotate no_reflect no_shear #
lump $-1 $-1 $33 $6 #
transform $-1 1 0 0 0 1 0 0 0 1 56.227301858577228 38.299669296319905 16.855501298700243 1 rotate no_reflect no_shear #
lump $-1 $-1 $34 $7 #
transform $-1 1 0 0 0 1 0 0 0 1 56.227301858577228 38.299669296319905 16.855501298700243 1 rotate no_reflect no_shear #
lump $-1 $-1 $35 $8 #
transform $-1 1 0 0 0 1 0 0 0 1 56.227301858577228 38.299669296319905 16.855501298700243 1 rotate no_reflect no_shear #
shell $-1 $-1 $-1 $36 $-1 $9 #
shell $-1 $-1 $-1 $37 $-1 $11 #
shell $-1 $-1 $-1 $38 $-1 $13 #
shell $-1 $-1 $-1 $39 $-1 $15 #
shell $-1 $-1 $-1 $40 $-1 $17 #
shell $-1 $-1 $-1 $41 $-1 $19 #
shell $-1 $-1 $-1 $42 $-1 $21 #
shell $-1 $-1 $-1 $43 $-1 $23 #
shell $-1 $-1 $-1 $44 $-1 $25 #
face $-1 $45 $46 $27 $-1 $47 reversed single #
face $-1 $48 $49 $28 $-1 $50 forward single #
face $-1 $51 $52 $29 $-1 $53 forward single #
face $-1 $54 $55 $30 $-1 $56 reversed single #
face $-1 $57 $58 $31 $-1 $59 forward single #
face $-1 $60 $61 $32 $-1 $62 forward single #
face $-1 $63 $64 $33 $-1 $65 reversed single #
face $-1 $66 $67 $34 $-1 $68 forward single #
face $-1 $69 $70 $35 $-1 $71 forward single #
face $-1 $72 $73 $27 $-1 $74 reversed single #
loop $-1 $-1 $75 $36 #
plane-surface $-1 0 38.299669296319905 0 0 -1 0 0 0 -1 forward_v I I I I #
face $-1 $76 $77 $28 $-1 $78 reversed single #
loop $-1 $-1 $79 $37 #
plane-surface $-1 0 -38.299669296319905 0 0 1 0 0 0 1 forward_v I I I I #
face $-1 $80 $81 $29 $-1 $82 reversed single #
loop $-1 $-1 $83 $38 #
plane-surface $-1 0 38.299669296319905 0 0 -1 0 0 0 -1 forward_v I I I I #
face $-1 $84 $85 $30 $-1 $86 reversed single #
loop $-1 $-1 $87 $39 #
plane-surface $-1 -151.59421533609591 -15.005000956288434 68.347798806966765 0 1 0 -0.84804810408105047 0 0.52991925155115449 forward_v I I I I #
face $-1 $88 $89 $31 $-1 $90 forward single #
loop $-1 $91 $92 $40 #
cone-surface $-1 -52.573553058277085 -12.041782867688255 12.103889048853507 0.84804810408105047 0 -0.52991925155115449 0.52991925155115449 0 0.84804810408105047 1 I I 0 1 1 forward I I I I #
face $-1 $93 $94 $32 $-1 $95 forward single #
loop $-1 $96 $97 $41 #
cone-surface $-1 -52.573553058277085 -7.5969557347879864 12.103889048853507 0.84804810408105047 0 -0.52991925155115449 0.52991925155115449 0 0.84804810408105047 1 I I 0 1 1 forward I I I I #
face $-1 $98 $99 $33 $-1 $100 reversed single #
loop $-1 $-1 $101 $42 #
plane-surface $-1 42.36650513344609 -3.6100062021312525 168.43426354530826 0 -1 0 -0.64278761758704617 0 -0.76604443648966558 forward_v I I I I #
face $-1 $102 $103 $34 $-1 $104 forward single #
loop $-1 $105 $106 $43 #
cone-surface $-1 51.551751989037719 -8.6021757594992039 12.723031922981686 -0.64278761758704617 0 -0.76604443648966558 0.38302221824483279 0 -0.32139380879352308 1 I I 0 1 0.5 forward I I I I #
face $-1 $107 $108 $35 $-1 $109 forward single #
loop $-1 $110 $111 $44 #
cone-surface $-1 51.551751989037719 -5.606874025078433 12.723031922981686 -0.64278761758704617 0 -0.76604443648966558 0.38302221824483279 0 -0.32139380879352308 1 I I 0 1 0.5 forward I I I I #
face $-1 $112 $113 $27 $-1 $114 forward single #
loop $-1 $-1 $115 $45 #
plane-surface $-1 0 -38.299669296319905 0 0 1 0 0 0 1 forward_v I I I I #
coedge $-1 $116 $117 $118 $119 reversed $46 $-1 #
face $-1 $120 $121 $28 $-1 $122 reversed single #
loop $-1 $-1 $123 $48 #
plane-surface $-1 0 0 -16.855501298700243 0 0 1 1 0 0 forward_v I I I I #
coedge $-1 $124 $125 $126 $127 forward $49 $-1 #
face $-1 $128 $129 $29 $-1 $130 reversed single #
loop $-1 $-1 $131 $51 #
plane-surface $-1 0 0 -16.855501298700243 0 0 1 1 0 0 forward_v I I I I #
coedge $-1 $132 $133 $134 $135 forward $52 $-1 #
face $-1 $136 $137 $30 $-1 $138 reversed single #
loop $-1 $-1 $139 $54 #
plane-surface $-1 -56.227301858577221 -9.8193693012381189 8.7559393716906015 -0.84804810408105047 0 0.52991925155115449 0.52991925155115449 0 0.84804810408105047 forward_v I I I I #
coedge $-1 $140 $141 $142 $143 reversed $55 $-1 #
face $-1 $-1 $144 $31 $-1 $145 forward single #
loop $-1 $146 $147 $57 #
cone-surface $-1 -51.026364127767209 -12.041782867688255 11.137098136736018 0.84804810408105047 0 -0.52991925155115449 0.26495962577557725 0 0.42402405204052523 1 I I -0.70710678118654746 0.70710678118654746 0.5 forward I I I I #
loop $-1 $-1 $148 $40 #
coedge $-1 $92 $92 $149 $150 reversed $58 $-1 #
face $-1 $-1 $151 $32 $-1 $152 forward single #
loop $-1 $153 $154 $60 #
cone-surface $-1 -51.026364127767209 -7.5969557347879864 11.137098136736018 0.84804810408105047 0 -0.52991925155115449 0.26495962577557725 0 0.42402405204052523 1 I I -0.70710678118654746 0.70710678118654746 0.5 forward I I I I #
loop $-1 $-1 $155 $41 #
coedge $-1 $97 $97 $156 $157 reversed $61 $-1 #
face $-1 $158 $159 $33 $-1 $160 reversed single #
loop $-1 $-1 $161 $63 #
plane-surface $-1 -29.917921676599015 -7.1045248922888184 82.289040010132013 0.64278761758704617 0 0.76604443648966558 0.76604443648966558 0 -0.64278761758704617 forward_v I I I I #
coedge $-1 $162 $163 $164 $165 reversed $64 $-1 #
face $-1 $-1 $166 $34 $-1 $167 forward single #
loop $-1 $168 $169 $66 #
cone-surface $-1 50.797790381589827 -8.6021757594992039 11.824495487447368 -0.64278761758704617 0 -0.76604443648966558 0.1915111091224164 0 -0.16069690439676154 1 I I -0.70710678118654746 0.70710678118654746 0.25 forward I I I I #
loop $-1 $-1 $170 $43 #
coedge $-1 $106 $106 $171 $172 reversed $67 $-1 #
face $-1 $-1 $173 $35 $-1 $174 forward single #
loop $-1 $175 $176 $69 #
cone-surface $-1 50.797790381589827 -5.606874025078433 11.824495487447368 -0.64278761758704617 0 -0.76604443648966558 0.1915111091224164 0 -0.16069690439676154 1 I I -0.70710678118654746 0.70710678118654746 0.25 forward I I I I #
loop $-1 $-1 $177 $44 #
coedge $-1 $111 $111 $178 $179 reversed $70 $-1 #
face $-1 $180 $181 $27 $-1 $182 reversed single #
loop $-1 $-1 $183 $72 #
plane-surface $-1 0 0 16.855501298700243 0 0 1 1 0 0 forward_v I I I I #
coedge $-1 $184 $185 $186 $187 reversed $73 $-1 #
coedge $-1 $188 $75 $189 $190 reversed $46 $-1 #
coedge $-1 $75 $188 $191 $192 forward $46 $-1 #
coedge $-1 $193 $194 $75 $119 forward $181 $-1 #
edge $-1 $195 -56.227301858577228 $196 56.227301858577228 $75 $197 forward 7 unknown #
face $-1 $198 $199 $28 $-1 $200 reversed single #
loop $-1 $-1 $201 $76 #
plane-surface $-1 -49.094522150675843 -53.769652194862331 0 0 1 0 0 0 1 forward_v I I I I #
coedge $-1 $202 $203 $125 $204 forward $77 $-1 #
coedge $-1 $205 $79 $206 $207 reversed $49 $-1 #
coedge $-1 $79 $205 $123 $204 reversed $49 $-1 #
coedge $-1 $208 $209 $79 $127 reversed $199 $-1 #
edge $-1 $210 -16.855501298700243 $211 16.855501298700243 $126 $212 forward 7 unknown #
face $-1 $213 $214 $29 $-1 $215 reversed single #
loop $-1 $-1 $216 $80 #
plane-surface $-1 -52.855181147361776 46.034660745591111 0 1 0 0 0 0 -1 forward_v I I I I #
coedge $-1 $217 $218 $133 $219 forward $81 $-1 #
coedge $-1 $220 $83 $221 $222 reversed $52 $-1 #
coedge $-1 $83 $220 $131 $219 reversed $52 $-1 #
coedge $-1 $223 $224 $83 $135 reversed $225 $-1 #
edge $-1 $226 -16.855501298700243 $227 16.855501298700243 $134 $228 forward 7 unknown #
face $-1 $229 $230 $30 $-1 $231 reversed single #
loop $-1 $-1 $232 $84 #
plane-surface $-1 -151.59421533609591 -4.6337376461878037 68.347798806966765 0 -1 0 0.84804810408105047 0 -0.52991925155115449 forward_v I I I I #
coedge $-1 $233 $234 $235 $236 reversed $85 $-1 #
coedge $-1 $141 $87 $237 $238 reversed $55 $-1 #
coedge $-1 $87 $140 $233 $239 reversed $55 $-1 #
coedge $-1 $235 $240 $87 $143 forward $241 $-1 #
edge $-1 $242 19.569805809470729 $243 24.630973653132308 $142 $244 forward 7 unknown #
loop $-1 $-1 $149 $88 #
plane-surface $-1 -56.227301858577221 -9.8193693012381189 8.7559393716906015 -0.84804810408105047 0 0.52991925155115449 0.52991925155115449 0 0.84804810408105047 forward_v I I I I #
loop $-1 $-1 $245 $57 #
coedge $-1 $147 $147 $148 $246 reversed $89 $-1 #
coedge $-1 $148 $148 $147 $246 forward $91 $-1 #
coedge $-1 $149 $149 $92 $150 forward $144 $-1 #
edge $-1 $247 0 $247 6.2831853071796004 $149 $248 forward 7 unknown #
loop $-1 $-1 $156 $93 #
plane-surface $-1 -56.227301858577221 -9.8193693012381189 8.7559393716906015 -0.84804810408105047 0 0.52991925155115449 0.52991925155115449 0 0.84804810408105047 forward_v I I I I #
loop $-1 $-1 $249 $60 #
coedge $-1 $154 $154 $155 $250 reversed $94 $-1 #
coedge $-1 $155 $155 $154 $250 forward $96 $-1 #
coedge $-1 $156 $156 $97 $157 forward $151 $-1 #
edge $-1 $251 0 $251 6.2831853071796004 $156 $252 forward 7 unknown #
face $-1 $253 $254 $33 $-1 $255 forward single #
loop $-1 $-1 $256 $98 #
plane-surface $-1 42.36650513344609 -10.599043582446384 168.43426354530826 0 1 0 0.64278761758704617 0 0.76604443648966558 forward_v I I I I #
coedge $-1 $257 $258 $259 $260 reversed $99 $-1 #
coedge $-1 $163 $101 $261 $262 reversed $64 $-1 #
coedge $-1 $101 $162 $257 $263 reversed $64 $-1 #
coedge $-1 $259 $264 $101 $165 forward $254 $-1 #
edge $-1 $265 -35.044049291854179 $266 -26.879478958877417 $164 $267 forward 7 unknown #
loop $-1 $-1 $171 $102 #
plane-surface $-1 -29.917921676599015 -7.1045248922888184 82.289040010132013 0.64278761758704617 0 0.76604443648966558 0.76604443648966558 0 -0.64278761758704617 forward_v I I I I #
loop $-1 $-1 $268 $66 #
coedge $-1 $169 $169 $170 $269 reversed $103 $-1 #
coedge $-1 $170 $170 $169 $269 forward $105 $-1 #
coedge $-1 $171 $171 $106 $172 forward $166 $-1 #
edge $-1 $270 0 $270 6.2831853071796004 $171 $271 forward 7 unknown #
loop $-1 $-1 $178 $107 #
plane-surface $-1 -29.917921676599015 -7.1045248922888184 82.289040010132013 0.64278761758704617 0 0.76604443648966558 0.76604443648966558 0 -0.64278761758704617 forward_v I I I I #
loop $-1 $-1 $272 $69 #
coedge $-1 $176 $176 $177 $273 reversed $108 $-1 #
coedge $-1 $177 $177 $176 $273 forward $110 $-1 #
coedge $-1 $178 $178 $111 $179 forward $173 $-1 #
edge $-1 $274 0 $274 6.2831853071796004 $178 $275 forward 7 unknown #
face $-1 $276 $277 $27 $-1 $278 reversed single #
loop $-1 $-1 $193 $112 #
plane-surface $-1 0 0 -16.855501298700243 0 0 1 1 0 0 forward_v I I I I #
coedge $-1 $279 $280 $281 $282 forward $113 $-1 #
coedge $-1 $283 $115 $284 $285 reversed $73 $-1 #
coedge $-1 $115 $283 $286 $287 forward $73 $-1 #
coedge $-1 $194 $193 $115 $187 forward $181 $-1 #
edge $-1 $288 -56.227301858577228 $289 56.227301858577228 $115 $290 forward 7 unknown #
coedge $-1 $117 $116 $279 $291 reversed $46 $-1 #
coedge $-1 $292 $293 $116 $190 forward $277 $-1 #
edge $-1 $294 -16.855501298700243 $195 16.855501298700243 $116 $295 forward 7 unknown #
coedge $-1 $281 $296 $117 $192 reversed $297 $-1 #
edge $-1 $298 -16.855501298700243 $196 16.855501298700243 $191 $299 forward 7 unknown #
coedge $-1 $186 $118 $296 $300 forward $181 $-1 #
coedge $-1 $118 $186 $292 $301 forward $181 $-1 #
vertex $-1 $119 $302 #
vertex $-1 $300 $303 #
straight-curve $-1 0 38.299669296319905 -16.855501298700243 1 0 0 I I #
face $-1 $304 $305 $28 $-1 $306 reversed single #
loop $-1 $-1 $126 $120 #
plane-surface $-1 -52.855181147361776 -46.034660745591118 0 1 0 0 0 0 -1 forward_v I I I I #
coedge $-1 $307 $308 $309 $310 forward $121 $-1 #
coedge $-1 $311 $123 $312 $313 forward $77 $-1 #
coedge $-1 $123 $311 $208 $314 forward $77 $-1 #
edge $-1 $210 -52.855181147361776 $315 -45.33386315398991 $123 $316 forward 7 unknown #
coedge $-1 $125 $124 $317 $318 forward $49 $-1 #
coedge $-1 $319 $320 $124 $207 forward $321 $-1 #
edge $-1 $322 45.33386315398991 $211 52.855181147361776 $206 $323 forward 7 unknown #
coedge $-1 $309 $126 $203 $314 reversed $199 $-1 #
coedge $-1 $126 $309 $319 $324 reversed $199 $-1 #
vertex $-1 $204 $325 #
vertex $-1 $324 $326 #
straight-curve $-1 -52.855181147361776 -38.299669296319905 0 0 0 1 I I #
face $-1 $327 $225 $29 $-1 $328 reversed single #
loop $-1 $-1 $329 $128 #
plane-surface $-1 -49.094522150675843 53.769652194862324 0 0 -1 0 0 0 -1 forward_v I I I I #
coedge $-1 $330 $331 $332 $333 forward $129 $-1 #
coedge $-1 $334 $131 $330 $335 forward $81 $-1 #
coedge $-1 $131 $334 $223 $336 forward $81 $-1 #
edge $-1 $226 45.33386315398991 $337 52.855181147361776 $131 $338 forward 7 unknown #
coedge $-1 $133 $132 $339 $340 forward $52 $-1 #
coedge $-1 $341 $342 $132 $222 forward $343 $-1 #
edge $-1 $344 -52.855181147361776 $227 -45.33386315398991 $221 $345 forward 7 unknown #
coedge $-1 $346 $134 $218 $336 reversed $225 $-1 #
coedge $-1 $134 $346 $341 $347 reversed $225 $-1 #
loop $-1 $-1 $134 $213 #
vertex $-1 $219 $348 #
vertex $-1 $347 $349 #
straight-curve $-1 -45.33386315398991 38.299669296319905 0 0 0 1 I I #
face $-1 $-1 $241 $30 $-1 $350 forward single #
loop $-1 $-1 $351 $136 #
plane-surface $-1 -56.227301858577228 0 0 1 0 0 0 0 -1 forward_v I I I I #
coedge $-1 $352 $353 $354 $355 reversed $137 $-1 #
coedge $-1 $356 $139 $141 $239 forward $85 $-1 #
coedge $-1 $139 $356 $352 $357 forward $85 $-1 #
coedge $-1 $354 $142 $139 $236 forward $241 $-1 #
edge $-1 $243 -10.095316305669375 $358 0.27594700443125575 $235 $359 forward 7 unknown #
coedge $-1 $360 $361 $140 $238 forward $230 $-1 #
edge $-1 $362 -25.417960031792791 $242 -17.318398104783139 $237 $363 forward 7 unknown #
edge $-1 $243 -9.5508284117754982 $362 1.2803919046239758e-014 $141 $364 forward 7 unknown #
coedge $-1 $142 $354 $360 $365 forward $241 $-1 #
loop $-1 $-1 $354 $229 #
vertex $-1 $238 $366 #
vertex $-1 $143 $367 #
straight-curve $-1 -75.797107668047957 -15.005000956288434 16.855501298700243 1 0 0 I I #
coedge $-1 $245 $245 $-1 $368 reversed $146 $-1 #
edge $-1 $369 0 $369 6.2831853071796004 $147 $370 forward 7 unknown #
vertex $-1 $150 $371 #
ellipse-curve $-1 -53.696717936746438 -12.041782867688255 12.805720335195417 -0.84804810408105047 0 0.52991925155115449 0.52991925155115449 0 0.84804810408105047 1 I I #
coedge $-1 $249 $249 $-1 $372 reversed $153 $-1 #
edge $-1 $373 0 $373 6.2831853071796004 $154 $374 forward 7 unknown #
vertex $-1 $157 $375 #
ellipse-curve $-1 -53.696717936746438 -7.5969557347879864 12.805720335195417 -0.84804810408105047 0 0.52991925155115449 0.52991925155115449 0 0.84804810408105047 1 I I #
face $-1 $-1 $376 $33 $-1 $377 reversed single #
loop $-1 $-1 $164 $158 #
plane-surface $-1 0 0 16.855501298700243 0 0 1 1 0 0 forward_v I I I I #
coedge $-1 $378 $379 $380 $381 reversed $159 $-1 #
coedge $-1 $382 $161 $163 $263 forward $99 $-1 #
coedge $-1 $161 $382 $378 $383 forward $99 $-1 #
coedge $-1 $380 $164 $161 $260 forward $254 $-1 #
edge $-1 $266 0.057743755986843226 $384 7.0467811363019752 $259 $385 forward 7 unknown #
coedge $-1 $386 $387 $162 $262 forward $376 $-1 #
edge $-1 $388 -74.21251857256722 $265 -67.36163047395388 $261 $389 forward 7 unknown #
edge $-1 $266 101.79651399798593 $388 112.45460371715447 $163 $390 forward 7 unknown #
coedge $-1 $164 $380 $386 $391 forward $254 $-1 #
vertex $-1 $165 $392 #
vertex $-1 $165 $393 #
straight-curve $-1 21.183252566723045 -3.6100062021312525 16.855501298700247 -1 0 0 I I #
coedge $-1 $268 $268 $-1 $394 reversed $168 $-1 #
edge $-1 $395 0 $395 6.2831853071796004 $169 $396 forward 7 unknown #
vertex $-1 $172 $397 #
ellipse-curve $-1 52.145016692088845 -8.6021757594992039 13.430057249393583 0.64278761758704617 0 0.76604443648966558 0.38302221824483279 0 -0.32139380879352308 1 I I #
coedge $-1 $272 $272 $-1 $398 reversed $175 $-1 #
edge $-1 $399 0 $399 6.2831853071796004 $176 $400 forward 7 unknown #
vertex $-1 $179 $401 #
ellipse-curve $-1 52.145016692088845 -5.606874025078433 13.430057249393583 0.64278761758704617 0 0.76604443648966558 0.38302221824483279 0 -0.32139380879352308 1 I I #
face $-1 $-1 $297 $27 $-1 $402 reversed single #
loop $-1 $-1 $189 $180 #
plane-surface $-1 -56.227301858577228 0 0 1 0 0 0 0 -1 forward_v I I I I #
coedge $-1 $403 $183 $188 $291 forward $113 $-1 #
coedge $-1 $183 $403 $283 $404 forward $113 $-1 #
coedge $-1 $284 $191 $183 $282 reversed $297 $-1 #
edge $-1 $405 -38.299669296319905 $298 38.299669296319905 $281 $406 forward 7 unknown #
coedge $-1 $185 $184 $280 $404 reversed $73 $-1 #
coedge $-1 $296 $281 $184 $285 forward $297 $-1 #
edge $-1 $405 -16.855501298700243 $288 16.855501298700243 $284 $407 forward 7 unknown #
coedge $-1 $293 $292 $185 $287 reversed $277 $-1 #
edge $-1 $408 -16.855501298700243 $289 16.855501298700243 $286 $409 forward 7 unknown #
vertex $-1 $285 $410 #
vertex $-1 $301 $411 #
straight-curve $-1 0 -38.299669296319905 -16.855501298700243 -1 0 0 I I #
edge $-1 $298 -56.227301858577228 $294 56.227301858577228 $188 $412 forward 7 unknown #
coedge $-1 $286 $189 $194 $301 reversed $277 $-1 #
coedge $-1 $189 $286 $403 $413 reversed $277 $-1 #
vertex $-1 $291 $414 #
straight-curve $-1 -56.227301858577228 38.299669296319905 0 0 0 -1 I I #
coedge $-1 $191 $284 $193 $300 reversed $297 $-1 #
loop $-1 $-1 $284 $276 #
vertex $-1 $282 $415 #
straight-curve $-1 56.227301858577228 38.299669296319905 0 0 0 -1 I I #
edge $-1 $196 -38.299669296319905 $288 38.299669296319905 $296 $416 forward 7 unknown #
edge $-1 $289 -38.299669296319905 $195 38.299669296319905 $292 $417 forward 7 unknown #
point $-1 -56.227301858577228 38.299669296319905 -16.855501298700243 #
point $-1 56.227301858577228 38.299669296319905 -16.855501298700243 #
face $-1 $-1 $321 $28 $-1 $418 forward single #
loop $-1 $-1 $419 $198 #
plane-surface $-1 -45.33386315398991 -46.034660745591118 0 -1 0 0 0 0 1 forward_v I I I I #
coedge $-1 $420 $201 $311 $421 reversed $121 $-1 #
coedge $-1 $201 $420 $422 $423 reversed $121 $-1 #
coedge $-1 $209 $208 $201 $310 reversed $199 $-1 #
edge $-1 $424 -16.855501298700243 $425 16.855501298700243 $309 $426 forward 7 unknown #
coedge $-1 $203 $202 $307 $421 forward $77 $-1 #
coedge $-1 $317 $419 $202 $313 reversed $305 $-1 #
edge $-1 $315 -7.7349914492712131 $427 7.7349914492712131 $312 $428 forward 7 unknown #
edge $-1 $425 -7.7349914492712131 $210 7.7349914492712131 $208 $429 forward 7 unknown #
vertex $-1 $313 $430 #
straight-curve $-1 0 -38.299669296319905 -16.855501298700243 1 0 0 I I #
coedge $-1 $431 $312 $205 $318 reversed $305 $-1 #
edge $-1 $322 -16.855501298700243 $315 16.855501298700243 $317 $432 forward 7 unknown #
coedge $-1 $422 $206 $209 $324 forward $321 $-1 #
coedge $-1 $206 $422 $431 $433 forward $321 $-1 #
loop $-1 $-1 $206 $304 #
vertex $-1 $207 $434 #
straight-curve $-1 0 -38.299669296319905 16.855501298700243 -1 0 0 I I #
edge $-1 $211 -7.7349914492712131 $424 7.7349914492712131 $209 $435 forward 7 unknown #
point $-1 -52.855181147361776 -38.299669296319905 -16.855501298700243 #
point $-1 -52.855181147361776 -38.299669296319905 16.855501298700243 #
face $-1 $-1 $343 $29 $-1 $436 forward single #
plane-surface $-1 -45.33386315398991 46.034660745591111 0 -1 0 0 0 0 1 forward_v I I I I #
coedge $-1 $437 $438 $346 $439 forward $214 $-1 #
coedge $-1 $339 $216 $217 $335 reversed $129 $-1 #
coedge $-1 $216 $339 $342 $440 reversed $129 $-1 #
coedge $-1 $438 $437 $216 $333 reversed $214 $-1 #
edge $-1 $441 -16.855501298700243 $442 16.855501298700243 $332 $443 forward 7 unknown #
coedge $-1 $218 $217 $437 $444 forward $81 $-1 #
edge $-1 $337 -7.7349914492712131 $442 7.7349914492712131 $330 $445 forward 7 unknown #
edge $-1 $446 -7.7349914492712131 $226 7.7349914492712131 $223 $447 forward 7 unknown #
vertex $-1 $335 $448 #
straight-curve $-1 0 38.299669296319905 -16.855501298700243 -1 0 0 I I #
coedge $-1 $331 $330 $220 $340 reversed $129 $-1 #
edge $-1 $344 -16.855501298700243 $337 16.855501298700243 $339 $449 forward 7 unknown #
coedge $-1 $450 $221 $224 $347 forward $343 $-1 #
coedge $-1 $221 $450 $331 $440 forward $343 $-1 #
loop $-1 $-1 $221 $327 #
vertex $-1 $222 $451 #
straight-curve $-1 0 38.299669296319905 16.855501298700243 1 0 0 I I #
coedge $-1 $224 $223 $329 $439 reversed $225 $-1 #
edge $-1 $227 -7.7349914492712131 $452 7.7349914492712131 $224 $453 forward 7 unknown #
point $-1 -45.33386315398991 38.299669296319898 -16.855501298700243 #
point $-1 -45.33386315398991 38.299669296319898 16.855501298700243 #
plane-surface $-1 0 0 16.855501298700243 0 0 1 1 0 0 forward_v I I I I #
coedge $-1 $361 $360 $353 $454 forward $230 $-1 #
coedge $-1 $353 $232 $234 $357 reversed $137 $-1 #
coedge $-1 $232 $352 $351 $454 reversed $137 $-1 #
coedge $-1 $240 $235 $232 $355 forward $241 $-1 #
edge $-1 $358 -24.630973653132308 $455 -19.569805809470729 $354 $456 forward 7 unknown #
coedge $-1 $234 $233 $361 $457 reversed $85 $-1 #
edge $-1 $458 -1.2803919046239758e-014 $358 9.5508284117754982 $352 $459 forward 7 unknown #
vertex $-1 $236 $460 #
straight-curve $-1 -51.166134014915649 -4.9096846506190595 16.855501298700243 0 1 0 I I #
coedge $-1 $351 $237 $240 $365 reversed $230 $-1 #
coedge $-1 $237 $351 $356 $457 forward $230 $-1 #
vertex $-1 $238 $461 #
straight-curve $-1 -56.227301858577228 -15.005000956288434 34.173899403483382 0 0 1 I I #
straight-curve $-1 -56.227301858577221 -15.005000956288434 8.7559393716906015 -0.52991925155115449 0 -0.84804810408105047 I I #
edge $-1 $455 4.6337376461878037 $242 15.005000956288434 $360 $462 forward 7 unknown #
point $-1 -56.227301858577228 -15.005000956288434 16.855501298700243 #
point $-1 -51.166134014915649 -15.005000956288434 16.855501298700243 #
edge $-1 $463 1 $463 0 $245 $-1 forward 7 unknown #
vertex $-1 $246 $464 #
ellipse-curve $-1 -51.450388179807732 -12.041782867688255 11.402057762511594 -0.84804810408105047 0 0.52991925155115449 0.52991925155115449 0 0.84804810408105047 1 I I #
point $-1 -53.166798685195289 -12.041782867688255 13.653768439276469 #
edge $-1 $465 1 $465 0 $249 $-1 forward 7 unknown #
vertex $-1 $250 $466 #
ellipse-curve $-1 -51.450388179807732 -7.5969557347879864 11.402057762511594 -0.84804810408105047 0 0.52991925155115449 0.52991925155115449 0 0.84804810408105047 1 I I #
point $-1 -53.166798685195289 -7.5969557347879864 13.653768439276469 #
loop $-1 $-1 $261 $253 #
plane-surface $-1 56.227301858577228 0 0 -1 0 0 0 0 1 forward_v I I I I #
coedge $-1 $379 $256 $258 $383 reversed $159 $-1 #
coedge $-1 $256 $378 $467 $468 reversed $159 $-1 #
coedge $-1 $264 $259 $256 $381 forward $254 $-1 #
edge $-1 $384 26.879478958877417 $469 35.044049291854179 $380 $470 forward 7 unknown #
coedge $-1 $258 $257 $387 $471 reversed $99 $-1 #
edge $-1 $472 -112.45460371715447 $384 -101.79651399798593 $378 $473 forward 7 unknown #
vertex $-1 $260 $474 #
straight-curve $-1 48.062731525600455 -3.5522624461444092 16.855501298700247 0 -1 0 I I #
coedge $-1 $467 $261 $264 $391 reversed $376 $-1 #
coedge $-1 $261 $467 $382 $471 forward $376 $-1 #
vertex $-1 $262 $475 #
straight-curve $-1 56.227301858577228 -3.6100062021312525 84.217131772654128 0 0 1 I I #
straight-curve $-1 -29.917921676599015 -3.6100062021312525 82.289040010132013 0.76604443648966558 0 -0.64278761758704617 I I #
edge $-1 $469 -10.599043582446384 $265 -3.6100062021312525 $386 $476 forward 7 unknown #
point $-1 56.227301858577228 -3.6100062021312525 16.855501298700243 #
point $-1 48.062731525600462 -3.6100062021312525 16.855501298700247 #
edge $-1 $477 1 $477 0 $268 $-1 forward 7 unknown #
vertex $-1 $269 $478 #
ellipse-curve $-1 50.958487285986585 -8.6021757594992039 12.016006596569785 0.64278761758704617 0 0.76604443648966558 0.38302221824483279 0 -0.32139380879352308 1 I I #
point $-1 52.528038910333677 -8.6021757594992039 13.108663440600063 #
edge $-1 $479 1 $479 0 $272 $-1 forward 7 unknown #
vertex $-1 $273 $480 #
ellipse-curve $-1 50.958487285986585 -5.606874025078433 12.016006596569785 0.64278761758704617 0 0.76604443648966558 0.38302221824483279 0 -0.32139380879352308 1 I I #
point $-1 52.528038910333677 -5.606874025078433 13.108663440600063 #
plane-surface $-1 56.227301858577228 0 0 -1 0 0 0 0 1 forward_v I I I I #
coedge $-1 $280 $279 $293 $413 forward $113 $-1 #
edge $-1 $408 -56.227301858577228 $405 56.227301858577228 $283 $481 forward 7 unknown #
vertex $-1 $282 $482 #
straight-curve $-1 56.227301858577228 0 16.855501298700243 0 1 0 I I #
straight-curve $-1 56.227301858577228 -38.299669296319905 0 0 0 -1 I I #
vertex $-1 $413 $483 #
straight-curve $-1 -56.227301858577228 -38.299669296319905 0 0 0 -1 I I #
point $-1 56.227301858577228 -38.299669296319905 -16.855501298700243 #
point $-1 -56.227301858577228 -38.299669296319905 -16.855501298700243 #
straight-curve $-1 0 38.299669296319905 16.855501298700243 -1 0 0 I I #
edge $-1 $294 -38.299669296319905 $408 38.299669296319905 $293 $484 forward 7 unknown #
point $-1 -56.227301858577228 38.299669296319905 16.855501298700243 #
point $-1 56.227301858577228 38.299669296319905 16.855501298700243 #
straight-curve $-1 56.227301858577228 0 -16.855501298700243 0 -1 0 I I #
straight-curve $-1 -56.227301858577228 0 -16.855501298700243 0 1 0 I I #
plane-surface $-1 0 0 16.855501298700243 0 0 1 1 0 0 forward_v I I I I #
coedge $-1 $312 $431 $420 $485 forward $305 $-1 #
coedge $-1 $308 $307 $419 $485 reversed $121 $-1 #
edge $-1 $427 -3.7606589966859332 $425 3.7606589966859332 $307 $486 forward 7 unknown #
coedge $-1 $320 $319 $308 $423 forward $321 $-1 #
edge $-1 $424 -3.7606589966859332 $487 3.7606589966859332 $308 $488 forward 7 unknown #
vertex $-1 $324 $489 #
vertex $-1 $314 $490 #
straight-curve $-1 -52.855181147361776 -53.769652194862331 0 0 0 -1 I I #
vertex $-1 $485 $491 #
straight-curve $-1 -45.33386315398991 -46.034660745591118 -16.855501298700243 0 -1 0 I I #
straight-curve $-1 -52.855181147361776 -46.034660745591118 -16.855501298700243 0 1 0 I I #
point $-1 -45.33386315398991 -38.299669296319905 -16.855501298700243 #
coedge $-1 $419 $317 $320 $433 reversed $305 $-1 #
straight-curve $-1 -45.33386315398991 -38.299669296319905 0 0 0 -1 I I #
edge $-1 $487 -7.7349914492712131 $322 7.7349914492712131 $431 $492 forward 7 unknown #
point $-1 -45.33386315398991 -38.299669296319905 16.855501298700243 #
straight-curve $-1 -52.855181147361776 -46.034660745591118 16.855501298700243 0 -1 0 I I #
plane-surface $-1 0 0 16.855501298700243 0 0 1 1 0 0 forward_v I I I I #
coedge $-1 $332 $329 $334 $444 reversed $214 $-1 #
coedge $-1 $329 $332 $450 $493 reversed $214 $-1 #
edge $-1 $452 -16.855501298700243 $446 16.855501298700243 $346 $494 forward 7 unknown #
edge $-1 $441 -7.7349914492712131 $344 7.7349914492712131 $331 $495 forward 7 unknown #
vertex $-1 $493 $496 #
vertex $-1 $444 $497 #
straight-curve $-1 -52.855181147361776 53.769652194862324 0 0 0 -1 I I #
edge $-1 $442 -3.7606589966859332 $446 3.7606589966859332 $437 $498 forward 7 unknown #
straight-curve $-1 -52.855181147361776 46.034660745591111 -16.855501298700243 0 1 0 I I #
vertex $-1 $336 $499 #
straight-curve $-1 -45.33386315398991 46.034660745591111 -16.855501298700243 0 -1 0 I I #
point $-1 -52.855181147361776 38.299669296319898 -16.855501298700243 #
straight-curve $-1 -52.855181147361776 38.299669296319905 0 0 0 -1 I I #
coedge $-1 $342 $341 $438 $493 forward $343 $-1 #
point $-1 -52.855181147361776 38.299669296319898 16.855501298700243 #
vertex $-1 $347 $500 #
straight-curve $-1 -45.33386315398991 46.034660745591111 16.855501298700243 0 1 0 I I #
edge $-1 $455 17.318398104783139 $458 25.417960031792791 $351 $501 forward 7 unknown #
vertex $-1 $365 $502 #
straight-curve $-1 -75.797107668047957 -4.6337376461878037 16.855501298700243 -1 0 0 I I #
edge $-1 $458 -0.27594700443125575 $362 10.095316305669375 $361 $503 forward 7 unknown #
vertex $-1 $457 $504 #
straight-curve $-1 -56.227301858577221 -4.6337376461878037 8.7559393716906015 0.52991925155115449 0 0.84804810408105047 I I #
point $-1 -51.166134014915649 -4.6337376461878037 16.855501298700243 #
point $-1 -56.227301858577228 -15.005000956288434 8.7559393716905909 #
straight-curve $-1 -56.227301858577228 0 16.855501298700243 0 -1 0 I I #
vertex $-1 $368 $505 #
point $-1 -50.920468928256582 -12.041782867688255 12.250105866592646 #
vertex $-1 $372 $506 #
point $-1 -50.920468928256582 -7.5969557347879864 12.250105866592646 #
coedge $-1 $387 $386 $379 $468 forward $376 $-1 #
edge $-1 $469 67.36163047395388 $472 74.21251857256722 $467 $507 forward 7 unknown #
vertex $-1 $391 $508 #
straight-curve $-1 21.183252566723045 -10.599043582446384 16.855501298700247 1 0 0 I I #
edge $-1 $472 -7.0467811363019752 $388 -0.057743755986843226 $387 $509 forward 7 unknown #
vertex $-1 $471 $510 #
straight-curve $-1 -29.917921676599015 -10.599043582446384 82.289040010132013 -0.76604443648966558 0 0.64278761758704617 I I #
point $-1 48.062731525600462 -10.599043582446384 16.855501298700247 #
point $-1 56.227301858577228 -3.6100062021312525 10.004613200086908 #
straight-curve $-1 56.227301858577228 0 16.855501298700243 0 1 0 I I #
vertex $-1 $394 $511 #
point $-1 51.341509504231425 -8.6021757594992039 11.694612787776261 #
vertex $-1 $398 $512 #
point $-1 51.341509504231425 -5.606874025078433 11.694612787776261 #
straight-curve $-1 0 -38.299669296319905 16.855501298700243 1 0 0 I I #
point $-1 56.227301858577228 -38.299669296319905 16.855501298700243 #
point $-1 -56.227301858577228 -38.299669296319905 16.855501298700243 #
straight-curve $-1 -56.227301858577228 0 16.855501298700243 0 -1 0 I I #
edge $-1 $487 -16.855501298700243 $427 16.855501298700243 $419 $513 forward 7 unknown #
straight-curve $-1 -49.094522150675843 -53.769652194862331 -16.855501298700243 -1 0 0 I I #
vertex $-1 $433 $514 #
straight-curve $-1 -49.094522150675843 -53.769652194862331 16.855501298700243 1 0 0 I I #
point $-1 -52.855181147361776 -53.769652194862331 16.855501298700243 #
point $-1 -52.855181147361776 -53.769652194862331 -16.855501298700243 #
point $-1 -45.33386315398991 -53.769652194862331 -16.855501298700243 #
straight-curve $-1 -45.33386315398991 -46.034660745591118 16.855501298700243 0 1 0 I I #
edge $-1 $452 -3.7606589966859332 $441 3.7606589966859332 $438 $515 forward 7 unknown #
straight-curve $-1 -45.33386315398991 53.769652194862324 0 0 0 -1 I I #
straight-curve $-1 -52.855181147361776 46.034660745591111 16.855501298700243 0 -1 0 I I #
point $-1 -52.855181147361776 53.769652194862324 16.855501298700243 #
point $-1 -52.855181147361776 53.769652194862324 -16.855501298700243 #
straight-curve $-1 -49.094522150675843 53.769652194862324 -16.855501298700243 1 0 0 I I #
point $-1 -45.33386315398991 53.769652194862324 -16.855501298700243 #
point $-1 -45.33386315398991 53.769652194862324 16.855501298700243 #
straight-curve $-1 -56.227301858577228 -4.6337376461878037 34.173899403483382 0 0 -1 I I #
point $-1 -56.227301858577228 -4.6337376461878037 16.855501298700243 #
straight-curve $-1 -56.227301858577228 -4.9096846506190595 8.7559393716905873 0 -1 0 I I #
point $-1 -56.227301858577228 -4.6337376461878037 8.7559393716905909 #
point $-1 -50.602340075726687 -12.041782867688255 10.872138510960442 #
point $-1 -50.602340075726687 -7.5969557347879864 10.872138510960442 #
straight-curve $-1 56.227301858577228 -10.599043582446384 84.217131772654128 0 0 -1 I I #
point $-1 56.227301858577228 -10.599043582446384 16.855501298700243 #
straight-curve $-1 56.227301858577221 -3.5522624461444092 10.004613200086915 0 1 0 I I #
point $-1 56.227301858577228 -10.599043582446384 10.004613200086908 #
point $-1 50.637093477193069 -8.6021757594992039 11.632984378324952 #
point $-1 50.637093477193069 -5.606874025078433 11.632984378324952 #
straight-curve $-1 -45.33386315398991 -53.769652194862331 0 0 0 -1 I I #
point $-1 -45.33386315398991 -53.769652194862331 16.855501298700243 #
straight-curve $-1 -49.094522150675843 53.769652194862324 16.855501298700243 -1 0 0 I I #
End-of-ACIS-data 