500 0 13 0           
7 Unknown 11 ACIS 5.0 NT 24 Thu Mar 25 17:48:04 1999 
-1 9.9999999999999995e-007 1e-010 
body $-1 $13 $-1 $14 #
body $-1 $15 $-1 $16 #
body $-1 $17 $-1 $18 #
body $-1 $19 $-1 $20 #
body $-1 $21 $-1 $22 #
body $-1 $23 $-1 $24 #
body $-1 $25 $-1 $26 #
body $-1 $27 $-1 $28 #
body $-1 $29 $-1 $30 #
body $-1 $31 $-1 $32 #
body $-1 $33 $-1 $34 #
body $-1 $35 $-1 $36 #
body $-1 $37 $-1 $38 #
lump $-1 $-1 $39 $0 #
transform $-1 1 0 0 0 1 0 0 0 1 75.468611713003938 46.031776499443588 17.218472091455741 1 rotate no_reflect no_shear #
lump $-1 $-1 $40 $1 #
transform $-1 1 0 0 0 1 0 0 0 1 75.468611713003938 46.031776499443588 17.218472091455741 1 rotate no_reflect no_shear #
lump $-1 $-1 $41 $2 #
transform $-1 1 0 0 0 1 0 0 0 1 75.468611713003938 46.031776499443588 17.218472091455741 1 rotate no_reflect no_shear #
lump $-1 $-1 $42 $3 #
transform $-1 1 0 0 0 1 0 0 0 1 75.468611713003938 46.031776499443588 17.218472091455741 1 rotate no_reflect no_shear #
lump $-1 $-1 $43 $4 #
transform $-1 1 0 0 0 1 0 0 0 1 75.468611713003938 46.031776499443588 17.218472091455741 1 rotate no_reflect no_shear #
lump $-1 $-1 $44 $5 #
transform $-1 1 0 0 0 1 0 0 0 1 75.468611713003938 46.031776499443588 17.218472091455741 1 rotate no_reflect no_shear #
lump $-1 $-1 $45 $6 #
transform $-1 1 0 0 0 1 0 0 0 1 75.468611713003938 46.031776499443588 17.218472091455741 1 rotate no_reflect no_shear #
lump $-1 $-1 $46 $7 #
transform $-1 1 0 0 0 1 0 0 0 1 75.468611713003938 46.031776499443588 17.218472091455741 1 rotate no_reflect no_shear #
lump $-1 $-1 $47 $8 #
transform $-1 1 0 0 0 1 0 0 0 1 75.468611713003938 46.031776499443588 17.218472091455741 1 rotate no_reflect no_shear #
lump $-1 $-1 $48 $9 #
transform $-1 1 0 0 0 1 0 0 0 1 75.468611713003938 46.031776499443588 17.218472091455741 1 rotate no_reflect no_shear #
lump $-1 $-1 $49 $10 #
transform $-1 1 0 0 0 1 0 0 0 1 75.468611713003938 46.031776499443588 17.218472091455741 1 rotate no_reflect no_shear #
lump $-1 $-1 $50 $11 #
transform $-1 1 0 0 0 1 0 0 0 1 75.468611713003938 46.031776499443588 17.218472091455741 1 rotate no_reflect no_shear #
lump $-1 $-1 $51 $12 #
transform $-1 1 0 0 0 1 0 0 0 1 75.468611713003938 46.031776499443588 17.218472091455741 1 rotate no_reflect no_shear #
shell $-1 $-1 $-1 $52 $-1 $13 #
shell $-1 $-1 $-1 $53 $-1 $15 #
shell $-1 $-1 $-1 $54 $-1 $17 #
shell $-1 $-1 $-1 $55 $-1 $19 #
shell $-1 $-1 $-1 $56 $-1 $21 #
shell $-1 $-1 $-1 $57 $-1 $23 #
shell $-1 $-1 $-1 $58 $-1 $25 #
shell $-1 $-1 $-1 $59 $-1 $27 #
shell $-1 $-1 $-1 $60 $-1 $29 #
shell $-1 $-1 $-1 $61 $-1 $31 #
shell $-1 $-1 $-1 $62 $-1 $33 #
shell $-1 $-1 $-1 $63 $-1 $35 #
shell $-1 $-1 $-1 $64 $-1 $37 #
face $-1 $65 $66 $39 $-1 $67 forward single #
face $-1 $68 $69 $40 $-1 $70 forward single #
face $-1 $71 $72 $41 $-1 $73 forward single #
face $-1 $74 $75 $42 $-1 $76 reversed single #
face $-1 $77 $78 $43 $-1 $79 forward single #
face $-1 $80 $81 $44 $-1 $82 forward single #
face $-1 $83 $84 $45 $-1 $85 forward single #
face $-1 $86 $87 $46 $-1 $88 reversed single #
face $-1 $89 $90 $47 $-1 $91 forward single #
face $-1 $92 $93 $48 $-1 $94 forward single #
face $-1 $95 $96 $49 $-1 $97 forward single #
face $-1 $98 $99 $50 $-1 $100 reversed single #
face $-1 $101 $102 $51 $-1 $103 forward single #
face $-1 $104 $105 $39 $-1 $106 reversed single #
loop $-1 $-1 $107 $52 #
plane-surface $-1 0 0 17.218472091455741 0 0 1 1 0 0 forward_v I I I I #
face $-1 $108 $109 $40 $-1 $110 reversed single #
loop $-1 $-1 $111 $53 #
plane-surface $-1 0 -38.584376130142843 2.0274256785087568 0 0 1 1 0 0 forward_v I I I I #
face $-1 $112 $113 $41 $-1 $114 reversed single #
loop $-1 $-1 $115 $54 #
plane-surface $-1 0 38.584376130142836 2.0274256785087568 0 0 1 1 0 0 forward_v I I I I #
face $-1 $116 $117 $42 $-1 $118 reversed single #
loop $-1 $-1 $119 $55 #
plane-surface $-1 -206.18408274411905 -21.428514801468481 77.331456478406167 0 -1 0 0.86602541151947299 0 -0.49999998660252726 forward_v I I I I #
face $-1 $120 $121 $43 $-1 $122 forward single #
loop $-1 $123 $124 $56 #
cone-surface $-1 -70.576871110888177 -29.19528356896738 9.2756824880923467 0.86602541151947299 0 -0.49999998660252726 0.24999999330126363 0 0.43301270575973649 1 I I 0 1 0.5 forward I I I I #
face $-1 $125 $126 $44 $-1 $127 forward single #
loop $-1 $128 $129 $57 #
cone-surface $-1 -70.576871110888177 -26.282745281155293 9.2756824880923467 0.86602541151947299 0 -0.49999998660252726 0.24999999330126363 0 0.43301270575973649 1 I I 0 1 0.5 forward I I I I #
face $-1 $130 $131 $45 $-1 $132 forward single #
loop $-1 $133 $134 $58 #
cone-surface $-1 -70.576871110888177 -23.370206993343206 9.2756824880923467 0.86602541151947299 0 -0.49999998660252726 0.24999999330126363 0 0.43301270575973649 1 I I 0 1 0.5 forward I I I I #
face $-1 $135 $136 $46 $-1 $137 reversed single #
loop $-1 $-1 $138 $59 #
plane-surface $-1 -206.18408274411905 8.8817841970012523e-016 77.331456478406167 0 1 0 -0.86602541151947299 0 0.49999998660252726 forward_v I I I I #
face $-1 $139 $140 $47 $-1 $141 forward single #
loop $-1 $142 $143 $60 #
cone-surface $-1 -70.576871110888177 1.9416921918747221 9.2756824880923467 0.86602541151947299 0 -0.49999998660252726 0.24999999330126363 0 0.43301270575973649 1 I I 0 1 0.5 forward I I I I #
face $-1 $144 $145 $48 $-1 $146 forward single #
loop $-1 $147 $148 $61 #
cone-surface $-1 -70.576871110888177 4.8542304796868123 9.2756824880923467 0.86602541151947299 0 -0.49999998660252726 0.24999999330126363 0 0.43301270575973649 1 I I 0 1 0.5 forward I I I I #
face $-1 $149 $150 $49 $-1 $151 forward single #
loop $-1 $152 $153 $62 #
cone-surface $-1 -70.576871110888177 7.7667687674988954 9.2756824880923467 0.86602541151947299 0 -0.49999998660252726 0.24999999330126363 0 0.43301270575973649 1 I I 0 1 0.5 forward I I I I #
face $-1 $154 $155 $50 $-1 $156 reversed single #
loop $-1 $-1 $157 $63 #
plane-surface $-1 34.7390084419781 -13.951630546607376 219.12152585775743 0 -1 0 -0.55919291073839883 0 -0.82903756765294845 forward_v I I I I #
face $-1 $158 $159 $51 $-1 $160 forward single #
loop $-1 $161 $162 $64 #
cone-surface $-1 67.806633950914005 -22.544303153724741 10.431000772556272 -0.55919291073839883 0 -0.82903756765294845 1.6580751353058969 0 -1.1183858214767977 1 I I 0 1 2 forward I I I I #
face $-1 $163 $164 $39 $-1 $165 reversed single #
loop $-1 $-1 $166 $65 #
plane-surface $-1 0 0 -17.218472091455741 0 0 1 1 0 0 forward_v I I I I #
coedge $-1 $167 $168 $169 $170 forward $66 $-1 #
face $-1 $171 $172 $40 $-1 $173 reversed single #
loop $-1 $-1 $174 $68 #
plane-surface $-1 0 -38.584376130142843 -5.2047845145118226 0 0 1 1 0 0 forward_v I I I I #
coedge $-1 $175 $176 $177 $178 reversed $69 $-1 #
face $-1 $179 $180 $41 $-1 $181 reversed single #
loop $-1 $-1 $182 $71 #
plane-surface $-1 0 38.584376130142836 -5.2047845145118226 0 0 1 1 0 0 forward_v I I I I #
coedge $-1 $183 $184 $185 $186 reversed $72 $-1 #
face $-1 $187 $188 $42 $-1 $189 forward single #
loop $-1 $-1 $190 $74 #
plane-surface $-1 -75.468611713003952 -26.282745281155293 1.8628467875795707 -0.86602541151947299 0 0.49999998660252726 0.49999998660252726 0 0.86602541151947299 forward_v I I I I #
coedge $-1 $191 $192 $193 $194 reversed $75 $-1 #
face $-1 $-1 $195 $43 $-1 $196 forward single #
loop $-1 $197 $198 $77 #
cone-surface $-1 -69.901411198908121 -29.19528356896738 8.8857055400164136 0.86602541151947299 0 -0.49999998660252726 0.12499999665063181 0 0.21650635287986825 1 I I -0.70710678118654746 0.70710678118654746 0.25 forward I I I I #
loop $-1 $-1 $199 $56 #
coedge $-1 $124 $124 $200 $201 reversed $78 $-1 #
face $-1 $-1 $202 $44 $-1 $203 forward single #
loop $-1 $204 $205 $80 #
cone-surface $-1 -69.901411198908121 -26.282745281155293 8.8857055400164136 0.86602541151947299 0 -0.49999998660252726 0.12499999665063181 0 0.21650635287986825 1 I I -0.70710678118654746 0.70710678118654746 0.25 forward I I I I #
loop $-1 $-1 $206 $57 #
coedge $-1 $129 $129 $207 $208 reversed $81 $-1 #
face $-1 $-1 $209 $45 $-1 $210 forward single #
loop $-1 $211 $212 $83 #
cone-surface $-1 -69.901411198908121 -23.370206993343206 8.8857055400164136 0.86602541151947299 0 -0.49999998660252726 0.12499999665063181 0 0.21650635287986825 1 I I -0.70710678118654746 0.70710678118654746 0.25 forward I I I I #
loop $-1 $-1 $213 $58 #
coedge $-1 $134 $134 $214 $215 reversed $84 $-1 #
face $-1 $216 $217 $46 $-1 $218 reversed single #
loop $-1 $-1 $219 $86 #
plane-surface $-1 -75.468611713003952 4.8542304796868123 1.8628467875795707 -0.86602541151947299 0 0.49999998660252726 0.49999998660252726 0 0.86602541151947299 forward_v I I I I #
coedge $-1 $220 $221 $222 $223 reversed $87 $-1 #
face $-1 $-1 $224 $47 $-1 $225 forward single #
loop $-1 $226 $227 $89 #
cone-surface $-1 -69.901411198908121 1.9416921918747221 8.8857055400164136 0.86602541151947299 0 -0.49999998660252726 0.12499999665063181 0 0.21650635287986825 1 I I -0.70710678118654746 0.70710678118654746 0.25 forward I I I I #
loop $-1 $-1 $228 $60 #
coedge $-1 $143 $143 $229 $230 reversed $90 $-1 #
face $-1 $-1 $231 $48 $-1 $232 forward single #
loop $-1 $233 $234 $92 #
cone-surface $-1 -69.901411198908121 4.8542304796868123 8.8857055400164136 0.86602541151947299 0 -0.49999998660252726 0.12499999665063181 0 0.21650635287986825 1 I I -0.70710678118654746 0.70710678118654746 0.25 forward I I I I #
loop $-1 $-1 $235 $61 #
coedge $-1 $148 $148 $236 $237 reversed $93 $-1 #
face $-1 $-1 $238 $49 $-1 $239 forward single #
loop $-1 $240 $241 $95 #
cone-surface $-1 -69.901411198908121 7.7667687674988954 8.8857055400164136 0.86602541151947299 0 -0.49999998660252726 0.12499999665063181 0 0.21650635287986825 1 I I -0.70710678118654746 0.70710678118654746 0.25 forward I I I I #
loop $-1 $-1 $242 $62 #
coedge $-1 $153 $153 $243 $244 reversed $96 $-1 #
face $-1 $245 $246 $50 $-1 $247 reversed single #
loop $-1 $-1 $248 $98 #
plane-surface $-1 -49.664016864383285 -22.544303153724741 93.988897280370239 0.55919291073839883 0 0.82903756765294845 0.82903756765294845 0 -0.55919291073839883 forward_v I I I I #
coedge $-1 $249 $250 $251 $252 reversed $99 $-1 #
face $-1 $-1 $253 $51 $-1 $254 forward single #
loop $-1 $255 $256 $101 #
cone-surface $-1 65.243360682292902 -22.544303153724741 6.6307919447272745 -0.55919291073839883 0 -0.82903756765294845 0.82903756765294845 0 -0.55919291073839883 1 I I -0.70710678118654746 0.70710678118654746 1 forward I I I I #
loop $-1 $-1 $257 $64 #
coedge $-1 $162 $162 $258 $259 reversed $102 $-1 #
face $-1 $260 $261 $39 $-1 $262 reversed single #
loop $-1 $-1 $263 $104 #
plane-surface $-1 0 -46.031776499443588 0 0 1 0 0 0 1 forward_v I I I I #
coedge $-1 $264 $265 $266 $267 forward $105 $-1 #
coedge $-1 $268 $107 $269 $270 forward $66 $-1 #
coedge $-1 $107 $268 $271 $272 forward $66 $-1 #
coedge $-1 $273 $274 $107 $170 reversed $275 $-1 #
edge $-1 $276 -46.031776499443588 $277 46.031776499443588 $169 $278 forward 7 unknown #
face $-1 $279 $280 $40 $-1 $281 reversed single #
loop $-1 $-1 $282 $108 #
plane-surface $-1 0 -31.136975760842102 -1.5886794180015329 0 -1 0 0 0 -1 forward_v I I I I #
coedge $-1 $283 $284 $285 $286 reversed $109 $-1 #
coedge $-1 $287 $111 $282 $288 forward $69 $-1 #
coedge $-1 $111 $287 $289 $290 reversed $69 $-1 #
coedge $-1 $291 $292 $111 $178 forward $293 $-1 #
edge $-1 $294 11.84478769577068 $295 26.739588434372166 $177 $296 forward 7 unknown #
face $-1 $297 $298 $41 $-1 $299 reversed single #
loop $-1 $-1 $300 $112 #
plane-surface $-1 0 31.136975760842091 -1.5886794180015329 0 1 0 0 0 1 forward_v I I I I #
coedge $-1 $301 $302 $303 $304 reversed $113 $-1 #
coedge $-1 $305 $115 $306 $307 reversed $72 $-1 #
coedge $-1 $115 $305 $308 $309 forward $72 $-1 #
coedge $-1 $310 $311 $115 $186 forward $298 $-1 #
edge $-1 $312 -26.739588434372163 $313 -11.844787695770673 $185 $314 forward 7 unknown #
face $-1 $315 $316 $42 $-1 $317 reversed single #
loop $-1 $-1 $318 $116 #
plane-surface $-1 0 0 17.218472091455741 0 0 1 1 0 0 forward_v I I I I #
coedge $-1 $319 $320 $321 $322 reversed $117 $-1 #
coedge $-1 $192 $119 $323 $324 reversed $75 $-1 #
coedge $-1 $119 $191 $319 $325 reversed $75 $-1 #
coedge $-1 $321 $326 $119 $194 forward $316 $-1 #
edge $-1 $327 21.447256147747343 $328 36.802881451623492 $193 $329 forward 7 unknown #
loop $-1 $-1 $200 $120 #
plane-surface $-1 -75.468611713003952 -26.282745281155293 1.8628467875795707 -0.86602541151947299 0 0.49999998660252726 0.49999998660252726 0 0.86602541151947299 forward_v I I I I #
loop $-1 $-1 $330 $77 #
coedge $-1 $198 $198 $199 $331 reversed $121 $-1 #
coedge $-1 $199 $199 $198 $331 forward $123 $-1 #
coedge $-1 $200 $200 $124 $201 forward $195 $-1 #
edge $-1 $332 0 $332 6.2831853071796004 $200 $333 forward 7 unknown #
loop $-1 $-1 $207 $125 #
plane-surface $-1 -75.468611713003952 -26.282745281155293 1.8628467875795707 -0.86602541151947299 0 0.49999998660252726 0.49999998660252726 0 0.86602541151947299 forward_v I I I I #
loop $-1 $-1 $334 $80 #
coedge $-1 $205 $205 $206 $335 reversed $126 $-1 #
coedge $-1 $206 $206 $205 $335 forward $128 $-1 #
coedge $-1 $207 $207 $129 $208 forward $202 $-1 #
edge $-1 $336 0 $336 6.2831853071796004 $207 $337 forward 7 unknown #
loop $-1 $-1 $214 $130 #
plane-surface $-1 -75.468611713003952 -26.282745281155293 1.8628467875795707 -0.86602541151947299 0 0.49999998660252726 0.49999998660252726 0 0.86602541151947299 forward_v I I I I #
loop $-1 $-1 $338 $83 #
coedge $-1 $212 $212 $213 $339 reversed $131 $-1 #
coedge $-1 $213 $213 $212 $339 forward $133 $-1 #
coedge $-1 $214 $214 $134 $215 forward $209 $-1 #
edge $-1 $340 0 $340 6.2831853071796004 $214 $341 forward 7 unknown #
face $-1 $342 $343 $46 $-1 $344 reversed single #
loop $-1 $-1 $345 $135 #
plane-surface $-1 -206.18408274411905 9.7084609593736246 77.331456478406167 0 -1 0 0.86602541151947299 0 -0.49999998660252726 forward_v I I I I #
coedge $-1 $346 $347 $348 $349 reversed $136 $-1 #
coedge $-1 $221 $138 $350 $351 reversed $87 $-1 #
coedge $-1 $138 $220 $346 $352 reversed $87 $-1 #
coedge $-1 $348 $353 $138 $223 forward $354 $-1 #
edge $-1 $355 27.623429659055589 $356 36.489003745086734 $222 $357 forward 7 unknown #
loop $-1 $-1 $229 $139 #
plane-surface $-1 -75.468611713003952 4.8542304796868123 1.8628467875795707 -0.86602541151947299 0 0.49999998660252726 0.49999998660252726 0 0.86602541151947299 forward_v I I I I #
loop $-1 $-1 $358 $89 #
coedge $-1 $227 $227 $228 $359 reversed $140 $-1 #
coedge $-1 $228 $228 $227 $359 forward $142 $-1 #
coedge $-1 $229 $229 $143 $230 forward $224 $-1 #
edge $-1 $360 0 $360 6.2831853071796004 $229 $361 forward 7 unknown #
loop $-1 $-1 $236 $144 #
plane-surface $-1 -75.468611713003952 4.8542304796868123 1.8628467875795707 -0.86602541151947299 0 0.49999998660252726 0.49999998660252726 0 0.86602541151947299 forward_v I I I I #
loop $-1 $-1 $362 $92 #
coedge $-1 $234 $234 $235 $363 reversed $145 $-1 #
coedge $-1 $235 $235 $234 $363 forward $147 $-1 #
coedge $-1 $236 $236 $148 $237 forward $231 $-1 #
edge $-1 $364 0 $364 6.2831853071796004 $236 $365 forward 7 unknown #
loop $-1 $-1 $243 $149 #
plane-surface $-1 -75.468611713003952 4.8542304796868123 1.8628467875795707 -0.86602541151947299 0 0.49999998660252726 0.49999998660252726 0 0.86602541151947299 forward_v I I I I #
loop $-1 $-1 $366 $95 #
coedge $-1 $241 $241 $242 $367 reversed $150 $-1 #
coedge $-1 $242 $242 $241 $367 forward $152 $-1 #
coedge $-1 $243 $243 $153 $244 forward $238 $-1 #
edge $-1 $368 0 $368 6.2831853071796004 $243 $369 forward 7 unknown #
face $-1 $370 $371 $50 $-1 $372 forward single #
loop $-1 $-1 $373 $154 #
plane-surface $-1 34.7390084419781 -31.136975760842105 219.12152585775743 0 1 0 0.55919291073839883 0 0.82903756765294845 forward_v I I I I #
coedge $-1 $374 $375 $376 $377 reversed $155 $-1 #
coedge $-1 $250 $157 $378 $379 reversed $99 $-1 #
coedge $-1 $157 $249 $374 $380 reversed $99 $-1 #
coedge $-1 $376 $381 $157 $252 forward $371 $-1 #
edge $-1 $382 -58.099107492014888 $383 -46.78331268360035 $251 $384 forward 7 unknown #
loop $-1 $-1 $258 $158 #
plane-surface $-1 -49.664016864383285 -22.544303153724741 93.988897280370239 0.55919291073839883 0 0.82903756765294845 0.82903756765294845 0 -0.55919291073839883 forward_v I I I I #
loop $-1 $-1 $385 $101 #
coedge $-1 $256 $256 $257 $386 reversed $159 $-1 #
coedge $-1 $257 $257 $256 $386 forward $161 $-1 #
coedge $-1 $258 $258 $162 $259 forward $253 $-1 #
edge $-1 $387 0 $387 6.2831853071796004 $258 $388 forward 7 unknown #
face $-1 $389 $390 $39 $-1 $391 reversed single #
loop $-1 $-1 $392 $163 #
plane-surface $-1 -75.468611713003938 0 0 1 0 0 0 0 -1 forward_v I I I I #
coedge $-1 $393 $271 $394 $395 forward $164 $-1 #
coedge $-1 $396 $166 $393 $397 forward $105 $-1 #
coedge $-1 $166 $396 $398 $399 forward $105 $-1 #
coedge $-1 $274 $273 $166 $267 reversed $275 $-1 #
edge $-1 $400 -46.031776499443588 $401 46.031776499443588 $266 $402 forward 7 unknown #
coedge $-1 $168 $167 $403 $404 forward $66 $-1 #
coedge $-1 $405 $406 $167 $270 reversed $390 $-1 #
edge $-1 $277 -75.468611713003938 $407 75.468611713003938 $269 $408 forward 7 unknown #
coedge $-1 $263 $409 $168 $272 reversed $164 $-1 #
edge $-1 $410 -75.468611713003938 $276 75.468611713003938 $271 $411 forward 7 unknown #
coedge $-1 $266 $169 $409 $412 forward $275 $-1 #
coedge $-1 $169 $266 $405 $413 reversed $275 $-1 #
loop $-1 $-1 $273 $389 #
vertex $-1 $170 $414 #
vertex $-1 $170 $415 #
straight-curve $-1 75.468611713003938 0 17.218472091455741 0 1 0 I I #
face $-1 $416 $417 $40 $-1 $418 reversed single #
loop $-1 $-1 $419 $171 #
plane-surface $-1 -75.468611713003938 0 0 1 0 0 0 0 -1 forward_v I I I I #
coedge $-1 $420 $421 $175 $288 reversed $172 $-1 #
coedge $-1 $422 $174 $423 $424 reversed $109 $-1 #
coedge $-1 $174 $422 $425 $426 forward $109 $-1 #
coedge $-1 $292 $291 $174 $286 forward $293 $-1 #
edge $-1 $427 -26.739588434372166 $428 -11.84478769577068 $285 $429 forward 7 unknown #
coedge $-1 $176 $175 $419 $430 reversed $69 $-1 #
edge $-1 $294 -75.468611713003938 $431 75.468611713003938 $282 $432 forward 7 unknown #
coedge $-1 $433 $434 $176 $290 forward $417 $-1 #
edge $-1 $295 -75.468611713003938 $435 75.468611713003938 $289 $436 forward 7 unknown #
coedge $-1 $285 $177 $434 $437 forward $293 $-1 #
coedge $-1 $177 $285 $420 $438 forward $293 $-1 #
loop $-1 $-1 $177 $416 #
vertex $-1 $178 $439 #
vertex $-1 $437 $440 #
straight-curve $-1 75.468611713003938 -19.292188065071421 2.0274256785087568 0 -1 0 I I #
face $-1 $441 $442 $41 $-1 $443 reversed single #
loop $-1 $-1 $185 $179 #
plane-surface $-1 75.468611713003938 0 0 -1 0 0 0 0 1 forward_v I I I I #
coedge $-1 $444 $308 $445 $446 reversed $180 $-1 #
coedge $-1 $447 $182 $444 $448 forward $113 $-1 #
coedge $-1 $182 $447 $449 $450 reversed $113 $-1 #
coedge $-1 $311 $310 $182 $304 forward $298 $-1 #
edge $-1 $451 11.844787695770673 $452 26.739588434372163 $303 $453 forward 7 unknown #
coedge $-1 $184 $183 $454 $455 reversed $72 $-1 #
coedge $-1 $456 $457 $183 $307 forward $458 $-1 #
edge $-1 $459 -75.468611713003938 $312 75.468611713003938 $306 $460 forward 7 unknown #
coedge $-1 $300 $461 $184 $309 reversed $180 $-1 #
edge $-1 $462 -75.468611713003938 $313 75.468611713003938 $308 $463 forward 7 unknown #
coedge $-1 $303 $185 $461 $464 forward $298 $-1 #
coedge $-1 $185 $303 $456 $465 reversed $298 $-1 #
vertex $-1 $465 $466 #
vertex $-1 $186 $467 #
straight-curve $-1 75.468611713003938 19.292188065071418 2.0274256785087568 0 -1 0 I I #
face $-1 $-1 $468 $42 $-1 $469 forward single #
loop $-1 $-1 $470 $187 #
plane-surface $-1 -75.468611713003938 0 0 1 0 0 0 0 -1 forward_v I I I I #
coedge $-1 $471 $472 $473 $474 forward $188 $-1 #
coedge $-1 $475 $190 $192 $325 forward $117 $-1 #
coedge $-1 $190 $475 $476 $477 forward $117 $-1 #
coedge $-1 $470 $193 $190 $322 forward $316 $-1 #
edge $-1 $328 8.2871421608908342 $478 17.995603120264459 $321 $479 forward 7 unknown #
coedge $-1 $472 $471 $191 $324 forward $188 $-1 #
edge $-1 $480 -36.489003745086734 $327 -27.623429659055589 $323 $481 forward 7 unknown #
edge $-1 $328 2.8450313176714033e-014 $480 17.731148647167487 $192 $482 forward 7 unknown #
coedge $-1 $193 $470 $472 $483 reversed $316 $-1 #
vertex $-1 $483 $484 #
vertex $-1 $194 $485 #
straight-curve $-1 -75.468611713003938 -21.428514801468481 38.665728239203084 0 0 -1 I I #
coedge $-1 $330 $330 $-1 $486 reversed $197 $-1 #
edge $-1 $487 0 $487 6.2831853071796004 $198 $488 forward 7 unknown #
vertex $-1 $201 $489 #
ellipse-curve $-1 -71.035824669988372 -29.19528356896738 9.5406594395176558 -0.86602541151947299 0 0.49999998660252726 0.24999999330126363 0 0.43301270575973649 1 I I #
coedge $-1 $334 $334 $-1 $490 reversed $204 $-1 #
edge $-1 $491 0 $491 6.2831853071796004 $205 $492 forward 7 unknown #
vertex $-1 $208 $493 #
ellipse-curve $-1 -71.035824669988372 -26.282745281155293 9.5406594395176558 -0.86602541151947299 0 0.49999998660252726 0.24999999330126363 0 0.43301270575973649 1 I I #
coedge $-1 $338 $338 $-1 $494 reversed $211 $-1 #
edge $-1 $495 0 $495 6.2831853071796004 $212 $496 forward 7 unknown #
vertex $-1 $215 $497 #
ellipse-curve $-1 -71.035824669988372 -23.370206993343206 9.5406594395176558 -0.86602541151947299 0 0.49999998660252726 0.24999999330126363 0 0.43301270575973649 1 I I #
face $-1 $-1 $354 $46 $-1 $498 forward single #
loop $-1 $-1 $499 $216 #
plane-surface $-1 -75.468611713003938 0 0 1 0 0 0 0 -1 forward_v I I I I #
coedge $-1 $500 $501 $502 $503 reversed $217 $-1 #
coedge $-1 $504 $219 $221 $352 forward $136 $-1 #
coedge $-1 $219 $504 $500 $505 forward $136 $-1 #
coedge $-1 $502 $222 $219 $349 forward $354 $-1 #
edge $-1 $356 -2.4271152398434053 $506 7.2813457195302185 $348 $507 forward 7 unknown #
coedge $-1 $508 $509 $220 $351 forward $343 $-1 #
edge $-1 $510 -36.802881451623492 $355 -21.447256147747343 $350 $511 forward 7 unknown #
edge $-1 $356 -17.731148647167487 $510 -2.8450313176714033e-014 $221 $512 forward 7 unknown #
coedge $-1 $222 $502 $508 $513 forward $354 $-1 #
loop $-1 $-1 $502 $342 #
vertex $-1 $351 $514 #
vertex $-1 $223 $515 #
straight-curve $-1 -103.09204137205953 8.8817841970012523e-016 17.218472091455741 1 0 0 I I #
coedge $-1 $358 $358 $-1 $516 reversed $226 $-1 #
edge $-1 $517 0 $517 6.2831853071796004 $227 $518 forward 7 unknown #
vertex $-1 $230 $519 #
ellipse-curve $-1 -71.035824669988372 1.9416921918747221 9.5406594395176558 -0.86602541151947299 0 0.49999998660252726 0.24999999330126363 0 0.43301270575973649 1 I I #
coedge $-1 $362 $362 $-1 $520 reversed $233 $-1 #
edge $-1 $521 0 $521 6.2831853071796004 $234 $522 forward 7 unknown #
vertex $-1 $237 $523 #
ellipse-curve $-1 -71.035824669988372 4.8542304796868123 9.5406594395176558 -0.86602541151947299 0 0.49999998660252726 0.24999999330126363 0 0.43301270575973649 1 I I #
coedge $-1 $366 $366 $-1 $524 reversed $240 $-1 #
edge $-1 $525 0 $525 6.2831853071796004 $241 $526 forward 7 unknown #
vertex $-1 $244 $527 #
ellipse-curve $-1 -71.035824669988372 7.7667687674988954 9.5406594395176558 -0.86602541151947299 0 0.49999998660252726 0.24999999330126363 0 0.43301270575973649 1 I I #
face $-1 $-1 $528 $50 $-1 $529 reversed single #
loop $-1 $-1 $251 $245 #
plane-surface $-1 0 0 17.218472091455741 0 0 1 1 0 0 forward_v I I I I #
coedge $-1 $530 $531 $532 $533 reversed $246 $-1 #
coedge $-1 $534 $248 $250 $380 forward $155 $-1 #
coedge $-1 $248 $534 $530 $535 forward $155 $-1 #
coedge $-1 $532 $251 $248 $377 forward $371 $-1 #
edge $-1 $383 2.6794789697450057 $536 19.864824183979735 $376 $537 forward 7 unknown #
coedge $-1 $538 $539 $249 $379 forward $528 $-1 #
edge $-1 $540 -99.974890954869878 $382 -92.342290837422979 $378 $541 forward 7 unknown #
edge $-1 $383 137.28790854580268 $540 150.9372234260079 $250 $542 forward 7 unknown #
coedge $-1 $251 $532 $538 $543 forward $371 $-1 #
vertex $-1 $252 $544 #
vertex $-1 $252 $545 #
straight-curve $-1 17.36950422098905 -13.951630546607376 17.218472091455737 -1 0 0 I I #
coedge $-1 $385 $385 $-1 $546 reversed $255 $-1 #
edge $-1 $547 0 $547 6.2831853071796004 $256 $548 forward 7 unknown #
vertex $-1 $259 $549 #
ellipse-curve $-1 69.810714308796676 -22.544303153724741 13.402172032732286 0.55919291073839883 0 0.82903756765294845 1.6580751353058969 0 -1.1183858214767977 1 I I #
face $-1 $-1 $275 $39 $-1 $550 reversed single #
loop $-1 $-1 $405 $260 #
plane-surface $-1 0 46.031776499443588 0 0 -1 0 0 0 -1 forward_v I I I I #
coedge $-1 $551 $403 $406 $552 forward $261 $-1 #
coedge $-1 $409 $263 $264 $397 reversed $164 $-1 #
coedge $-1 $403 $551 $263 $395 reversed $261 $-1 #
edge $-1 $410 -17.218472091455741 $553 17.218472091455741 $394 $554 forward 7 unknown #
coedge $-1 $265 $264 $551 $555 forward $105 $-1 #
edge $-1 $401 -75.468611713003938 $553 75.468611713003938 $393 $556 forward 7 unknown #
coedge $-1 $406 $405 $265 $399 reversed $390 $-1 #
edge $-1 $557 -75.468611713003938 $400 75.468611713003938 $398 $558 forward 7 unknown #
vertex $-1 $267 $559 #
vertex $-1 $412 $560 #
straight-curve $-1 75.468611713003938 0 -17.218472091455741 0 -1 0 I I #
coedge $-1 $392 $394 $268 $404 reversed $261 $-1 #
edge $-1 $407 -46.031776499443588 $410 46.031776499443588 $403 $561 forward 7 unknown #
coedge $-1 $398 $269 $274 $413 forward $390 $-1 #
coedge $-1 $269 $398 $392 $552 reversed $390 $-1 #
vertex $-1 $270 $562 #
straight-curve $-1 0 46.031776499443588 17.218472091455741 -1 0 0 I I #
coedge $-1 $271 $393 $273 $412 reversed $164 $-1 #
vertex $-1 $404 $563 #
straight-curve $-1 0 -46.031776499443588 17.218472091455741 1 0 0 I I #
edge $-1 $276 -17.218472091455741 $401 17.218472091455741 $273 $564 forward 7 unknown #
edge $-1 $277 -17.218472091455741 $400 17.218472091455741 $274 $565 forward 7 unknown #
point $-1 75.468611713003938 -46.031776499443588 17.218472091455741 #
point $-1 75.468611713003938 46.031776499443588 17.218472091455741 #
face $-1 $-1 $293 $40 $-1 $566 reversed single #
loop $-1 $-1 $289 $279 #
plane-surface $-1 0 -46.031776499443588 0 0 1 0 0 0 1 forward_v I I I I #
coedge $-1 $567 $568 $287 $430 forward $280 $-1 #
coedge $-1 $425 $282 $292 $438 reversed $172 $-1 #
coedge $-1 $282 $425 $567 $569 reversed $172 $-1 #
coedge $-1 $284 $283 $570 $571 reversed $109 $-1 #
coedge $-1 $434 $433 $283 $424 forward $417 $-1 #
edge $-1 $572 -75.468611713003938 $427 75.468611713003938 $423 $573 forward 7 unknown #
coedge $-1 $421 $420 $284 $426 reversed $172 $-1 #
edge $-1 $574 -75.468611713003938 $428 75.468611713003938 $425 $575 forward 7 unknown #
vertex $-1 $424 $576 #
vertex $-1 $286 $577 #
straight-curve $-1 75.468611713003938 -19.292188065071421 -5.2047845145118226 0 1 0 I I #
edge $-1 $435 -26.739588434372166 $431 -11.84478769577068 $419 $578 forward 7 unknown #
vertex $-1 $430 $579 #
straight-curve $-1 0 -31.136975760842102 2.0274256785087568 -1 0 0 I I #
coedge $-1 $423 $289 $568 $580 forward $417 $-1 #
coedge $-1 $289 $423 $291 $437 reversed $417 $-1 #
vertex $-1 $580 $581 #
straight-curve $-1 0 -46.031776499443588 2.0274256785087568 -1 0 0 I I #
edge $-1 $295 -2.0274256785087568 $427 5.2047845145118226 $291 $582 forward 7 unknown #
edge $-1 $428 -4.4104448055110561 $294 2.8217653875095232 $292 $583 forward 7 unknown #
point $-1 75.468611713003938 -31.136975760842102 2.0274256785087568 #
point $-1 75.468611713003938 -46.031776499443588 2.0274256785087568 #
face $-1 $-1 $458 $41 $-1 $584 reversed single #
loop $-1 $-1 $454 $297 #
plane-surface $-1 -75.468611713003938 0 0 1 0 0 0 0 -1 forward_v I I I I #
coedge $-1 $461 $300 $301 $448 reversed $180 $-1 #
coedge $-1 $454 $585 $300 $446 forward $442 $-1 #
edge $-1 $586 -4.4104448055110561 $462 2.8217653875095232 $445 $587 forward 7 unknown #
coedge $-1 $302 $301 $585 $588 reversed $113 $-1 #
edge $-1 $451 -75.468611713003938 $586 75.468611713003938 $444 $589 forward 7 unknown #
coedge $-1 $457 $456 $302 $450 forward $458 $-1 #
edge $-1 $452 -75.468611713003938 $590 75.468611713003938 $449 $591 forward 7 unknown #
vertex $-1 $304 $592 #
vertex $-1 $450 $593 #
straight-curve $-1 75.468611713003938 19.292188065071418 -5.2047845145118226 0 1 0 I I #
coedge $-1 $594 $445 $305 $455 forward $442 $-1 #
edge $-1 $462 11.844787695770673 $459 26.739588434372163 $454 $595 forward 7 unknown #
coedge $-1 $449 $306 $311 $465 forward $458 $-1 #
coedge $-1 $306 $449 $594 $596 reversed $458 $-1 #
loop $-1 $-1 $306 $441 #
vertex $-1 $596 $597 #
straight-curve $-1 0 46.031776499443588 2.0274256785087568 1 0 0 I I #
coedge $-1 $308 $444 $310 $464 reversed $180 $-1 #
vertex $-1 $455 $598 #
straight-curve $-1 0 31.136975760842091 2.0274256785087568 1 0 0 I I #
edge $-1 $313 -2.8217653875095232 $451 4.4104448055110561 $310 $599 forward 7 unknown #
edge $-1 $312 -2.0274256785087568 $452 5.2047845145118226 $311 $600 forward 7 unknown #
point $-1 75.468611713003938 46.031776499443581 2.0274256785087568 #
point $-1 75.468611713003938 31.136975760842091 2.0274256785087568 #
loop $-1 $-1 $476 $315 #
plane-surface $-1 0 -31.136975760842102 -1.5886794180015329 0 -1 0 0 0 -1 forward_v I I I I #
coedge $-1 $326 $321 $601 $602 forward $316 $-1 #
coedge $-1 $323 $318 $475 $603 forward $188 $-1 #
coedge $-1 $318 $323 $326 $483 forward $188 $-1 #
coedge $-1 $601 $476 $318 $474 reversed $468 $-1 #
edge $-1 $604 27.623429659055589 $605 36.489003745086734 $318 $606 forward 7 unknown #
coedge $-1 $320 $319 $471 $603 reversed $117 $-1 #
coedge $-1 $473 $601 $320 $477 reversed $468 $-1 #
edge $-1 $605 -17.731148647167487 $478 -2.8450313176714033e-014 $476 $607 forward 7 unknown #
vertex $-1 $602 $608 #
straight-curve $-1 -75.468611713003938 -13.141372640577647 1.8628467875796035 0 -1 0 I I #
vertex $-1 $324 $609 #
straight-curve $-1 -103.09204137205953 -21.428514801468481 17.218472091455741 -1 0 0 I I #
straight-curve $-1 -75.468611713003952 -21.428514801468481 1.8628467875795707 0.49999998660252726 0 0.86602541151947299 I I #
edge $-1 $327 21.428514801468481 $604 31.136975760842105 $326 $610 forward 7 unknown #
point $-1 -75.468611713003938 -21.428514801468481 17.218472091455741 #
point $-1 -75.468611713003938 -21.428514801468481 1.8628467875795953 #
edge $-1 $611 1 $611 0 $330 $-1 forward 7 unknown #
vertex $-1 $331 $612 #
ellipse-curve $-1 -70.117917551787983 -29.19528356896738 9.0107055366670448 -0.86602541151947299 0 0.49999998660252726 0.24999999330126363 0 0.43301270575973649 1 I I #
point $-1 -70.785824676687085 -29.19528356896738 9.9736721452773871 #
edge $-1 $613 1 $613 0 $334 $-1 forward 7 unknown #
vertex $-1 $335 $614 #
ellipse-curve $-1 -70.117917551787983 -26.282745281155293 9.0107055366670448 -0.86602541151947299 0 0.49999998660252726 0.24999999330126363 0 0.43301270575973649 1 I I #
point $-1 -70.785824676687085 -26.282745281155293 9.9736721452773871 #
edge $-1 $615 1 $615 0 $338 $-1 forward 7 unknown #
vertex $-1 $339 $616 #
ellipse-curve $-1 -70.117917551787983 -23.370206993343206 9.0107055366670448 -0.86602541151947299 0 0.49999998660252726 0.24999999330126363 0 0.43301270575973649 1 I I #
point $-1 -70.785824676687085 -23.370206993343206 9.9736721452773871 #
plane-surface $-1 0 0 17.218472091455741 0 0 1 1 0 0 forward_v I I I I #
coedge $-1 $509 $508 $501 $617 forward $343 $-1 #
coedge $-1 $501 $345 $347 $505 reversed $217 $-1 #
coedge $-1 $345 $500 $499 $617 reversed $217 $-1 #
coedge $-1 $353 $348 $345 $503 forward $354 $-1 #
edge $-1 $506 -36.489003745086734 $618 -27.623429659055589 $502 $619 forward 7 unknown #
coedge $-1 $347 $346 $509 $620 reversed $136 $-1 #
edge $-1 $621 2.8450313176714033e-014 $506 17.731148647167487 $500 $622 forward 7 unknown #
vertex $-1 $349 $623 #
straight-curve $-1 -66.603037626972792 2.4271152398434062 17.218472091455741 0 1 0 I I #
coedge $-1 $499 $350 $353 $513 reversed $343 $-1 #
coedge $-1 $350 $499 $504 $620 forward $343 $-1 #
vertex $-1 $351 $624 #
straight-curve $-1 -75.468611713003938 8.8817841970012523e-016 38.665728239203084 0 0 1 I I #
straight-curve $-1 -75.468611713003952 8.8817841970012523e-016 1.8628467875795707 -0.49999998660252726 0 -0.86602541151947299 I I #
edge $-1 $618 -9.7084609593736246 $355 -8.8817841970012523e-016 $508 $625 forward 7 unknown #
point $-1 -75.468611713003938 8.8817841970012523e-016 17.218472091455741 #
point $-1 -66.603037626972792 8.8817841970012523e-016 17.218472091455741 #
edge $-1 $626 1 $626 0 $358 $-1 forward 7 unknown #
vertex $-1 $359 $627 #
ellipse-curve $-1 -70.117917551787983 1.9416921918747221 9.0107055366670448 -0.86602541151947299 0 0.49999998660252726 0.24999999330126363 0 0.43301270575973649 1 I I #
point $-1 -70.785824676687085 1.9416921918747221 9.9736721452773871 #
edge $-1 $628 1 $628 0 $362 $-1 forward 7 unknown #
vertex $-1 $363 $629 #
ellipse-curve $-1 -70.117917551787983 4.8542304796868123 9.0107055366670448 -0.86602541151947299 0 0.49999998660252726 0.24999999330126363 0 0.43301270575973649 1 I I #
point $-1 -70.785824676687085 4.8542304796868123 9.9736721452773871 #
edge $-1 $630 1 $630 0 $366 $-1 forward 7 unknown #
vertex $-1 $367 $631 #
ellipse-curve $-1 -70.117917551787983 7.7667687674988954 9.0107055366670448 -0.86602541151947299 0 0.49999998660252726 0.24999999330126363 0 0.43301270575973649 1 I I #
point $-1 -70.785824676687085 7.7667687674988954 9.9736721452773871 #
loop $-1 $-1 $378 $370 #
plane-surface $-1 75.468611713003938 0 0 -1 0 0 0 0 1 forward_v I I I I #
coedge $-1 $531 $373 $375 $535 reversed $246 $-1 #
coedge $-1 $373 $530 $632 $633 reversed $246 $-1 #
coedge $-1 $381 $376 $373 $533 forward $371 $-1 #
edge $-1 $536 46.78331268360035 $634 58.099107492014888 $532 $635 forward 7 unknown #
coedge $-1 $375 $374 $539 $636 reversed $155 $-1 #
edge $-1 $637 -150.9372234260079 $536 -137.28790854580268 $530 $638 forward 7 unknown #
vertex $-1 $377 $639 #
straight-curve $-1 64.1528169045894 -11.27215157686237 17.218472091455737 0 -1 0 I I #
coedge $-1 $632 $378 $381 $543 reversed $528 $-1 #
coedge $-1 $378 $632 $534 $636 forward $528 $-1 #
vertex $-1 $379 $640 #
straight-curve $-1 75.468611713003938 -13.951630546607376 109.56076292887872 0 0 1 I I #
straight-curve $-1 -49.664016864383285 -13.951630546607376 93.988897280370239 0.82903756765294845 0 -0.55919291073839883 I I #
edge $-1 $634 -31.136975760842105 $382 -13.951630546607376 $538 $641 forward 7 unknown #
point $-1 75.468611713003938 -13.951630546607376 17.218472091455741 #
point $-1 64.1528169045894 -13.951630546607376 17.218472091455737 #
edge $-1 $642 1 $642 0 $385 $-1 forward 7 unknown #
vertex $-1 $386 $643 #
ellipse-curve $-1 65.802553593031305 -22.544303153724741 7.4598295123802227 0.55919291073839883 0 0.82903756765294845 1.6580751353058969 0 -1.1183858214767977 1 I I #
point $-1 71.468789444102597 -22.544303153724741 12.283786211255528 #
plane-surface $-1 75.468611713003938 0 0 -1 0 0 0 0 1 forward_v I I I I #
coedge $-1 $394 $392 $396 $555 reversed $261 $-1 #
edge $-1 $407 -17.218472091455741 $557 17.218472091455741 $406 $644 forward 7 unknown #
vertex $-1 $555 $645 #
straight-curve $-1 -75.468611713003938 -46.031776499443588 0 0 0 -1 I I #
edge $-1 $553 -46.031776499443588 $557 46.031776499443588 $551 $646 forward 7 unknown #
straight-curve $-1 0 -46.031776499443588 -17.218472091455741 -1 0 0 I I #
vertex $-1 $399 $647 #
straight-curve $-1 0 46.031776499443588 -17.218472091455741 1 0 0 I I #
point $-1 75.468611713003938 46.031776499443588 -17.218472091455741 #
point $-1 75.468611713003938 -46.031776499443588 -17.218472091455741 #
straight-curve $-1 -75.468611713003938 0 17.218472091455741 0 -1 0 I I #
point $-1 -75.468611713003938 46.031776499443588 17.218472091455741 #
point $-1 -75.468611713003938 -46.031776499443588 17.218472091455741 #
straight-curve $-1 75.468611713003938 -46.031776499443588 0 0 0 -1 I I #
straight-curve $-1 75.468611713003938 46.031776499443588 0 0 0 -1 I I #
plane-surface $-1 75.468611713003938 0 0 -1 0 0 0 0 1 forward_v I I I I #
coedge $-1 $570 $419 $421 $569 forward $280 $-1 #
coedge $-1 $419 $570 $433 $580 reversed $280 $-1 #
edge $-1 $431 -2.8217653875095232 $574 4.4104448055110561 $567 $648 forward 7 unknown #
coedge $-1 $568 $567 $422 $571 forward $280 $-1 #
edge $-1 $574 11.84478769577068 $572 26.739588434372166 $570 $649 forward 7 unknown #
vertex $-1 $424 $650 #
straight-curve $-1 0 -46.031776499443588 -5.2047845145118226 1 0 0 I I #
vertex $-1 $571 $651 #
straight-curve $-1 0 -31.136975760842102 -5.2047845145118226 1 0 0 I I #
point $-1 75.468611713003938 -46.031776499443588 -5.2047845145118226 #
point $-1 75.468611713003938 -31.136975760842102 -5.2047845145118226 #
straight-curve $-1 -75.468611713003938 -19.292188065071421 2.0274256785087568 0 1 0 I I #
point $-1 -75.468611713003938 -31.136975760842102 2.0274256785087568 #
edge $-1 $435 -2.0274256785087568 $572 5.2047845145118226 $568 $652 forward 7 unknown #
point $-1 -75.468611713003938 -46.031776499443588 2.0274256785087568 #
straight-curve $-1 75.468611713003938 -46.031776499443588 0 0 0 -1 I I #
straight-curve $-1 75.468611713003938 -31.136975760842102 -0.79433970900076645 0 0 1 I I #
plane-surface $-1 0 46.031776499443588 0 0 -1 0 0 0 -1 forward_v I I I I #
coedge $-1 $445 $594 $447 $588 forward $442 $-1 #
vertex $-1 $588 $653 #
straight-curve $-1 -75.468611713003938 31.136975760842091 -0.79433970900076645 0 0 1 I I #
edge $-1 $590 -26.739588434372163 $586 -11.844787695770673 $585 $654 forward 7 unknown #
straight-curve $-1 0 31.136975760842091 -5.2047845145118226 -1 0 0 I I #
vertex $-1 $450 $655 #
straight-curve $-1 0 46.031776499443588 -5.2047845145118226 -1 0 0 I I #
point $-1 75.468611713003938 31.136975760842091 -5.2047845145118226 #
point $-1 75.468611713003938 46.031776499443581 -5.2047845145118226 #
coedge $-1 $585 $454 $457 $596 forward $442 $-1 #
straight-curve $-1 -75.468611713003938 19.292188065071418 2.0274256785087568 0 1 0 I I #
edge $-1 $459 -2.0274256785087568 $590 5.2047845145118226 $457 $656 forward 7 unknown #
point $-1 -75.468611713003938 46.031776499443581 2.0274256785087568 #
point $-1 -75.468611713003938 31.136975760842091 2.0274256785087568 #
straight-curve $-1 75.468611713003938 31.136975760842091 -0.79433970900076645 0 0 -1 I I #
straight-curve $-1 75.468611713003938 46.031776499443588 0 0 0 -1 I I #
coedge $-1 $476 $473 $470 $602 reversed $468 $-1 #
edge $-1 $478 -36.802881451623492 $604 -21.447256147747343 $470 $657 forward 7 unknown #
edge $-1 $605 -17.995603120264459 $480 -8.2871421608908342 $471 $658 forward 7 unknown #
vertex $-1 $602 $659 #
vertex $-1 $474 $660 #
straight-curve $-1 -103.09204137205953 -31.136975760842105 17.218472091455741 1 0 0 I I #
straight-curve $-1 -75.468611713003952 -31.136975760842105 1.8628467875795707 -0.49999998660252726 0 -0.86602541151947299 I I #
point $-1 -75.468611713003938 -31.136975760842105 1.8628467875795953 #
point $-1 -66.603037626972792 -21.428514801468481 17.218472091455741 #
straight-curve $-1 -75.468611713003938 0 17.218472091455741 0 -1 0 I I #
vertex $-1 $486 $661 #
point $-1 -69.867917558486724 -29.19528356896738 9.4437182424267814 #
vertex $-1 $490 $662 #
point $-1 -69.867917558486724 -26.282745281155293 9.4437182424267814 #
vertex $-1 $494 $663 #
point $-1 -69.867917558486724 -23.370206993343206 9.4437182424267814 #
edge $-1 $618 21.447256147747343 $621 36.802881451623492 $499 $664 forward 7 unknown #
vertex $-1 $513 $665 #
straight-curve $-1 -103.09204137205953 9.7084609593736246 17.218472091455741 -1 0 0 I I #
edge $-1 $621 -7.2813457195302185 $510 2.4271152398434053 $509 $666 forward 7 unknown #
vertex $-1 $620 $667 #
straight-curve $-1 -75.468611713003952 9.7084609593736246 1.8628467875795707 0.49999998660252726 0 0.86602541151947299 I I #
point $-1 -66.603037626972792 9.7084609593736246 17.218472091455741 #
point $-1 -75.468611713003938 8.8817841970012523e-016 1.8628467875795953 #
straight-curve $-1 -75.468611713003938 0 17.218472091455741 0 -1 0 I I #
vertex $-1 $516 $668 #
point $-1 -69.867917558486724 1.9416921918747221 9.4437182424267814 #
vertex $-1 $520 $669 #
point $-1 -69.867917558486724 4.8542304796868123 9.4437182424267814 #
vertex $-1 $524 $670 #
point $-1 -69.867917558486724 7.7667687674988954 9.4437182424267814 #
coedge $-1 $539 $538 $531 $633 forward $528 $-1 #
edge $-1 $634 92.342290837422979 $637 99.974890954869878 $632 $671 forward 7 unknown #
vertex $-1 $543 $672 #
straight-curve $-1 17.36950422098905 -31.136975760842105 17.218472091455737 1 0 0 I I #
edge $-1 $637 -19.864824183979735 $540 -2.6794789697450057 $539 $673 forward 7 unknown #
vertex $-1 $636 $674 #
straight-curve $-1 -49.664016864383285 -31.136975760842105 93.988897280370239 -0.82903756765294845 0 0.55919291073839883 I I #
point $-1 64.1528169045894 -31.136975760842105 17.218472091455737 #
point $-1 75.468611713003938 -13.951630546607376 9.5858719740088389 #
straight-curve $-1 75.468611713003938 0 17.218472091455741 0 1 0 I I #
vertex $-1 $546 $675 #
point $-1 67.460628728337198 -22.544303153724741 6.3414436909034251 #
straight-curve $-1 -75.468611713003938 46.031776499443588 0 0 0 -1 I I #
point $-1 -75.468611713003938 -46.031776499443588 -17.218472091455741 #
straight-curve $-1 -75.468611713003938 0 -17.218472091455741 0 1 0 I I #
point $-1 -75.468611713003938 46.031776499443588 -17.218472091455741 #
straight-curve $-1 -75.468611713003938 -31.136975760842102 -0.79433970900076645 0 0 -1 I I #
straight-curve $-1 -75.468611713003938 -19.292188065071421 -5.2047845145118226 0 -1 0 I I #
point $-1 -75.468611713003938 -46.031776499443588 -5.2047845145118226 #
point $-1 -75.468611713003938 -31.136975760842102 -5.2047845145118226 #
straight-curve $-1 -75.468611713003938 -46.031776499443588 0 0 0 -1 I I #
point $-1 -75.468611713003938 31.136975760842091 -5.2047845145118226 #
straight-curve $-1 -75.468611713003938 19.292188065071418 -5.2047845145118226 0 -1 0 I I #
point $-1 -75.468611713003938 46.031776499443581 -5.2047845145118226 #
straight-curve $-1 -75.468611713003938 46.031776499443588 0 0 0 -1 I I #
straight-curve $-1 -75.468611713003938 -31.136975760842105 38.665728239203084 0 0 1 I I #
straight-curve $-1 -66.603037626972792 -13.141372640577647 17.218472091455741 0 1 0 I I #
point $-1 -75.468611713003938 -31.136975760842105 17.218472091455741 #
point $-1 -66.603037626972792 -31.136975760842105 17.218472091455741 #
point $-1 -69.68490484602826 -29.19528356896738 8.7607055433657823 #
point $-1 -69.68490484602826 -26.282745281155293 8.7607055433657823 #
point $-1 -69.68490484602826 -23.370206993343206 8.7607055433657823 #
straight-curve $-1 -75.468611713003938 9.7084609593736246 38.665728239203084 0 0 -1 I I #
point $-1 -75.468611713003938 9.7084609593736246 17.218472091455741 #
straight-curve $-1 -75.468611713003938 2.4271152398434062 1.8628467875796035 0 -1 0 I I #
point $-1 -75.468611713003938 9.7084609593736246 1.8628467875795953 #
point $-1 -69.68490484602826 1.9416921918747221 8.7607055433657823 #
point $-1 -69.68490484602826 4.8542304796868123 8.7607055433657823 #
point $-1 -69.68490484602826 7.7667687674988954 8.7607055433657823 #
straight-curve $-1 75.468611713003938 -31.136975760842105 109.56076292887872 0 0 -1 I I #
point $-1 75.468611713003938 -31.136975760842105 17.218472091455741 #
straight-curve $-1 75.468611713003952 -11.27215157686237 9.5858719740088318 0 1 0 I I #
point $-1 75.468611713003938 -31.136975760842105 9.5858719740088389 #
point $-1 64.684167771554499 -22.544303153724741 5.8017543770743263 #
End-of-ACIS-data 