500 0 8 0           
7 Unknown 11 ACIS 5.0 NT 24 Fri Mar 26 19:39:54 1999 
-1 9.9999999999999995e-007 1e-010 
body $-1 $8 $-1 $9 #
body $-1 $10 $-1 $11 #
body $-1 $12 $-1 $13 #
body $-1 $14 $-1 $15 #
body $-1 $16 $-1 $17 #
body $-1 $18 $-1 $19 #
body $-1 $20 $-1 $21 #
body $-1 $22 $-1 $23 #
lump $-1 $-1 $24 $0 #
transform $-1 1 0 0 0 1 0 0 0 1 60.944242683187355 30.290034444450697 15.022440893378212 1 rotate no_reflect no_shear #
lump $-1 $-1 $25 $1 #
transform $-1 1 0 0 0 1 0 0 0 1 60.944242683187355 30.290034444450697 15.022440893378212 1 rotate no_reflect no_shear #
lump $-1 $-1 $26 $2 #
transform $-1 1 0 0 0 1 0 0 0 1 60.944242683187355 30.290034444450697 15.022440893378212 1 rotate no_reflect no_shear #
lump $-1 $-1 $27 $3 #
transform $-1 1 0 0 0 1 0 0 0 1 60.944242683187355 30.290034444450697 15.022440893378212 1 rotate no_reflect no_shear #
lump $-1 $-1 $28 $4 #
transform $-1 1 0 0 0 1 0 0 0 1 60.944242683187355 30.290034444450697 15.022440893378212 1 rotate no_reflect no_shear #
lump $-1 $-1 $29 $5 #
transform $-1 1 0 0 0 1 0 0 0 1 60.944242683187355 30.290034444450697 15.022440893378212 1 rotate no_reflect no_shear #
lump $-1 $-1 $30 $6 #
transform $-1 1 0 0 0 1 0 0 0 1 60.944242683187355 30.290034444450697 15.022440893378212 1 rotate no_reflect no_shear #
lump $-1 $-1 $31 $7 #
transform $-1 1 0 0 0 1 0 0 0 1 60.944242683187355 30.290034444450697 15.022440893378212 1 rotate no_reflect no_shear #
shell $-1 $-1 $-1 $32 $-1 $8 #
shell $-1 $-1 $-1 $33 $-1 $10 #
shell $-1 $-1 $-1 $34 $-1 $12 #
shell $-1 $-1 $-1 $35 $-1 $14 #
shell $-1 $-1 $-1 $36 $-1 $16 #
shell $-1 $-1 $-1 $37 $-1 $18 #
shell $-1 $-1 $-1 $38 $-1 $20 #
shell $-1 $-1 $-1 $39 $-1 $22 #
face $-1 $40 $41 $24 $-1 $42 forward single #
face $-1 $43 $44 $25 $-1 $45 reversed single #
face $-1 $46 $47 $26 $-1 $48 reversed single #
face $-1 $49 $50 $27 $-1 $51 forward single #
face $-1 $52 $53 $28 $-1 $54 forward single #
face $-1 $55 $56 $29 $-1 $57 reversed single #
face $-1 $58 $59 $30 $-1 $60 forward single #
face $-1 $61 $62 $31 $-1 $63 forward single #
face $-1 $64 $65 $24 $-1 $66 reversed single #
loop $-1 $-1 $67 $32 #
plane-surface $-1 0 0 15.022440893378212 0 0 1 1 0 0 forward_v I I I I #
face $-1 $68 $69 $25 $-1 $70 reversed single #
loop $-1 $-1 $71 $33 #
plane-surface $-1 -44.609851931141407 -21.173897230483401 0 1 0 0 0 0 -1 forward_v I I I I #
face $-1 $72 $73 $26 $-1 $74 reversed single #
loop $-1 $-1 $75 $34 #
plane-surface $-1 -159.55409976071397 -0.25262396308160717 78.066225556360479 0 1 0 -0.80901700255871778 0 0.5877852410284794 forward_v I I I I #
face $-1 $76 $77 $27 $-1 $78 forward single #
loop $-1 $79 $80 $35 #
cone-surface $-1 -55.589433543866868 2.9113858765327691 9.1016491985207058 0.80901700255871778 0 -0.5877852410284794 0.8816778615427191 0 1.2135255038380768 1 I I 0 1 1.5 forward I I I I #
face $-1 $81 $82 $28 $-1 $83 forward single #
loop $-1 $84 $85 $36 #
cone-surface $-1 -55.589433543866868 7.6574006359543318 9.1016491985207058 0.80901700255871778 0 -0.5877852410284794 0.8816778615427191 0 1.2135255038380768 1 I I 0 1 1.5 forward I I I I #
face $-1 $86 $87 $29 $-1 $88 reversed single #
loop $-1 $-1 $89 $37 #
plane-surface $-1 87.909847011043126 10.821410475568701 176.67608263388706 0 -1 0 -0.80901700255871778 0 -0.5877852410284794 forward_v I I I I #
face $-1 $90 $91 $30 $-1 $92 forward single #
loop $-1 $93 $94 $38 #
cone-surface $-1 55.589433543866875 2.9113858765327691 9.1016491985206915 -0.80901700255871778 0 -0.5877852410284794 0.8816778615427191 0 -1.2135255038380768 1 I I 0 1 1.5 forward I I I I #
face $-1 $95 $96 $31 $-1 $97 forward single #
loop $-1 $98 $99 $39 #
cone-surface $-1 55.589433543866875 7.6574006359543318 9.1016491985206915 -0.80901700255871778 0 -0.5877852410284794 0.8816778615427191 0 -1.2135255038380768 1 I I 0 1 1.5 forward I I I I #
face $-1 $100 $101 $24 $-1 $102 reversed single #
loop $-1 $-1 $103 $40 #
plane-surface $-1 0 0 -15.022440893378212 0 0 1 1 0 0 forward_v I I I I #
coedge $-1 $104 $105 $106 $107 forward $41 $-1 #
face $-1 $108 $109 $25 $-1 $110 reversed single #
loop $-1 $-1 $111 $43 #
plane-surface $-1 -41.56818244332996 -12.057760016516106 0 0 -1 0 0 0 -1 forward_v I I I I #
coedge $-1 $112 $113 $114 $115 forward $44 $-1 #
face $-1 $116 $117 $26 $-1 $118 reversed single #
loop $-1 $-1 $119 $46 #
plane-surface $-1 -60.944242683187355 5.2843932562435469 6.4219728066896238 -0.80901700255871778 0 0.5877852410284794 0.5877852410284794 0 0.80901700255871778 forward_v I I I I #
coedge $-1 $120 $121 $122 $123 reversed $47 $-1 #
face $-1 $-1 $124 $27 $-1 $125 forward single #
loop $-1 $126 $127 $49 #
cone-surface $-1 -52.752164474016503 2.9113858765327691 7.0402526162361365 0.80901700255871778 0 -0.5877852410284794 0.44083893077135955 0 0.60676275191903839 1 I I -0.70710678118654757 0.70710678118654757 0.75 forward I I I I #
loop $-1 $-1 $128 $35 #
coedge $-1 $80 $80 $129 $130 reversed $50 $-1 #
face $-1 $-1 $131 $28 $-1 $132 forward single #
loop $-1 $133 $134 $52 #
cone-surface $-1 -52.752164474016503 7.6574006359543318 7.0402526162361365 0.80901700255871778 0 -0.5877852410284794 0.44083893077135955 0 0.60676275191903839 1 I I -0.70710678118654757 0.70710678118654757 0.75 forward I I I I #
loop $-1 $-1 $135 $36 #
coedge $-1 $85 $85 $136 $137 reversed $53 $-1 #
face $-1 $138 $139 $29 $-1 $140 reversed single #
loop $-1 $-1 $141 $55 #
plane-surface $-1 -10.700010066483486 5.2843932562435469 105.03182988421621 0.80901700255871778 0 0.5877852410284794 0.5877852410284794 0 -0.80901700255871778 forward_v I I I I #
coedge $-1 $142 $143 $144 $145 reversed $56 $-1 #
face $-1 $-1 $146 $30 $-1 $147 forward single #
loop $-1 $148 $149 $58 #
cone-surface $-1 52.75216447401651 2.9113858765327691 7.0402526162361223 -0.80901700255871778 0 -0.5877852410284794 0.44083893077135955 0 -0.60676275191903839 1 I I -0.70710678118654757 0.70710678118654757 0.75 forward I I I I #
loop $-1 $-1 $150 $38 #
coedge $-1 $94 $94 $151 $152 reversed $59 $-1 #
face $-1 $-1 $153 $31 $-1 $154 forward single #
loop $-1 $155 $156 $61 #
cone-surface $-1 52.75216447401651 7.6574006359543318 7.0402526162361223 -0.80901700255871778 0 -0.5877852410284794 0.44083893077135955 0 -0.60676275191903839 1 I I -0.70710678118654757 0.70710678118654757 0.75 forward I I I I #
loop $-1 $-1 $157 $39 #
coedge $-1 $99 $99 $158 $159 reversed $62 $-1 #
face $-1 $160 $161 $24 $-1 $162 reversed single #
loop $-1 $-1 $163 $64 #
plane-surface $-1 0 -30.290034444450697 0 0 1 0 0 0 1 forward_v I I I I #
coedge $-1 $164 $165 $166 $167 forward $65 $-1 #
coedge $-1 $168 $67 $169 $170 forward $41 $-1 #
coedge $-1 $67 $168 $171 $172 forward $41 $-1 #
coedge $-1 $173 $174 $67 $107 reversed $175 $-1 #
edge $-1 $176 -30.290034444450697 $177 30.290034444450697 $106 $178 forward 7 unknown #
face $-1 $179 $180 $25 $-1 $181 forward single #
loop $-1 $-1 $182 $68 #
plane-surface $-1 -38.526512955518513 -21.173897230483401 0 -1 0 0 0 0 1 forward_v I I I I #
coedge $-1 $183 $184 $185 $186 forward $69 $-1 #
coedge $-1 $187 $71 $188 $189 reversed $44 $-1 #
coedge $-1 $71 $187 $190 $191 reversed $44 $-1 #
coedge $-1 $184 $183 $71 $115 reversed $69 $-1 #
edge $-1 $192 -15.022440893378212 $193 15.022440893378212 $114 $194 forward 7 unknown #
face $-1 $195 $196 $26 $-1 $197 reversed single #
loop $-1 $-1 $198 $72 #
plane-surface $-1 -159.55409976071397 10.821410475568701 78.066225556360479 0 -1 0 0.80901700255871778 0 -0.5877852410284794 forward_v I I I I #
coedge $-1 $199 $200 $201 $202 reversed $73 $-1 #
coedge $-1 $121 $75 $203 $204 reversed $47 $-1 #
coedge $-1 $75 $120 $199 $205 reversed $47 $-1 #
coedge $-1 $201 $206 $75 $123 forward $207 $-1 #
edge $-1 $208 18.832807197169629 $209 25.081412839947937 $122 $210 forward 7 unknown #
loop $-1 $-1 $129 $76 #
plane-surface $-1 -60.944242683187355 5.2843932562435469 6.4219728066896238 -0.80901700255871778 0 0.5877852410284794 0.5877852410284794 0 0.80901700255871778 forward_v I I I I #
loop $-1 $-1 $211 $49 #
coedge $-1 $127 $127 $128 $212 reversed $77 $-1 #
coedge $-1 $128 $128 $127 $212 forward $79 $-1 #
coedge $-1 $129 $129 $80 $130 forward $124 $-1 #
edge $-1 $213 0 $213 6.2831853071796004 $129 $214 forward 7 unknown #
loop $-1 $-1 $136 $81 #
plane-surface $-1 -60.944242683187355 5.2843932562435469 6.4219728066896238 -0.80901700255871778 0 0.5877852410284794 0.5877852410284794 0 0.80901700255871778 forward_v I I I I #
loop $-1 $-1 $215 $52 #
coedge $-1 $134 $134 $135 $216 reversed $82 $-1 #
coedge $-1 $135 $135 $134 $216 forward $84 $-1 #
coedge $-1 $136 $136 $85 $137 forward $131 $-1 #
edge $-1 $217 0 $217 6.2831853071796004 $136 $218 forward 7 unknown #
face $-1 $219 $220 $29 $-1 $221 forward single #
loop $-1 $-1 $222 $86 #
plane-surface $-1 87.909847011043126 -0.25262396308160717 176.67608263388706 0 1 0 0.80901700255871778 0 0.5877852410284794 forward_v I I I I #
coedge $-1 $223 $224 $225 $226 reversed $87 $-1 #
coedge $-1 $143 $89 $227 $228 reversed $56 $-1 #
coedge $-1 $89 $142 $223 $229 reversed $56 $-1 #
coedge $-1 $225 $230 $89 $145 forward $220 $-1 #
edge $-1 $231 -16.989319177665791 $232 -10.740713534887476 $144 $233 forward 7 unknown #
loop $-1 $-1 $151 $90 #
plane-surface $-1 -10.700010066483486 5.2843932562435469 105.03182988421621 0.80901700255871778 0 0.5877852410284794 0.5877852410284794 0 -0.80901700255871778 forward_v I I I I #
loop $-1 $-1 $234 $58 #
coedge $-1 $149 $149 $150 $235 reversed $91 $-1 #
coedge $-1 $150 $150 $149 $235 forward $93 $-1 #
coedge $-1 $151 $151 $94 $152 forward $146 $-1 #
edge $-1 $236 0 $236 6.2831853071796004 $151 $237 forward 7 unknown #
loop $-1 $-1 $158 $95 #
plane-surface $-1 -10.700010066483486 5.2843932562435469 105.03182988421621 0.80901700255871778 0 0.5877852410284794 0.5877852410284794 0 -0.80901700255871778 forward_v I I I I #
loop $-1 $-1 $238 $61 #
coedge $-1 $156 $156 $157 $239 reversed $96 $-1 #
coedge $-1 $157 $157 $156 $239 forward $98 $-1 #
coedge $-1 $158 $158 $99 $159 forward $153 $-1 #
edge $-1 $240 0 $240 6.2831853071796004 $158 $241 forward 7 unknown #
face $-1 $242 $243 $24 $-1 $244 reversed single #
loop $-1 $-1 $245 $100 #
plane-surface $-1 -60.944242683187355 0 0 1 0 0 0 0 -1 forward_v I I I I #
coedge $-1 $246 $171 $247 $248 forward $101 $-1 #
coedge $-1 $249 $103 $246 $250 forward $65 $-1 #
coedge $-1 $103 $249 $251 $252 forward $65 $-1 #
coedge $-1 $174 $173 $103 $167 reversed $175 $-1 #
edge $-1 $253 -30.290034444450697 $254 30.290034444450697 $166 $255 forward 7 unknown #
coedge $-1 $105 $104 $256 $257 forward $41 $-1 #
coedge $-1 $258 $259 $104 $170 reversed $243 $-1 #
edge $-1 $177 -60.944242683187355 $260 60.944242683187355 $169 $261 forward 7 unknown #
coedge $-1 $163 $262 $105 $172 reversed $101 $-1 #
edge $-1 $263 -60.944242683187355 $176 60.944242683187355 $171 $264 forward 7 unknown #
coedge $-1 $166 $106 $262 $265 forward $175 $-1 #
coedge $-1 $106 $166 $258 $266 reversed $175 $-1 #
loop $-1 $-1 $173 $242 #
vertex $-1 $107 $267 #
vertex $-1 $107 $268 #
straight-curve $-1 60.944242683187355 0 15.022440893378212 0 1 0 I I #
face $-1 $269 $270 $25 $-1 $271 reversed single #
loop $-1 $-1 $272 $108 #
plane-surface $-1 0 0 15.022440893378212 0 0 1 1 0 0 forward_v I I I I #
coedge $-1 $273 $274 $275 $276 reversed $109 $-1 #
coedge $-1 $114 $111 $277 $278 reversed $69 $-1 #
coedge $-1 $111 $114 $279 $280 reversed $69 $-1 #
coedge $-1 $274 $273 $111 $186 reversed $109 $-1 #
edge $-1 $281 -15.022440893378212 $282 15.022440893378212 $185 $283 forward 7 unknown #
coedge $-1 $113 $112 $284 $285 reversed $44 $-1 #
coedge $-1 $277 $286 $112 $189 forward $270 $-1 #
edge $-1 $287 -19.703085829208995 $193 -1.4708114012744051 $188 $288 forward 7 unknown #
coedge $-1 $289 $279 $113 $191 forward $180 $-1 #
edge $-1 $192 1.4708114012744051 $290 19.703085829208995 $190 $291 forward 7 unknown #
vertex $-1 $191 $292 #
vertex $-1 $189 $293 #
straight-curve $-1 -44.609851931141407 -12.057760016516106 0 0 0 -1 I I #
face $-1 $-1 $207 $26 $-1 $294 forward single #
loop $-1 $-1 $295 $116 #
plane-surface $-1 -60.944242683187355 0 0 1 0 0 0 0 -1 forward_v I I I I #
coedge $-1 $296 $297 $298 $299 reversed $117 $-1 #
coedge $-1 $300 $119 $121 $205 forward $73 $-1 #
coedge $-1 $119 $300 $296 $301 forward $73 $-1 #
coedge $-1 $298 $122 $119 $202 forward $207 $-1 #
edge $-1 $209 -2.8948205912033806 $302 8.1792138474469276 $201 $303 forward 7 unknown #
coedge $-1 $304 $305 $120 $204 forward $196 $-1 #
edge $-1 $306 -32.611139971490616 $208 -24.010671884802029 $203 $307 forward 7 unknown #
edge $-1 $209 -10.630763085927077 $306 0 $121 $308 forward 7 unknown #
coedge $-1 $122 $298 $304 $309 forward $207 $-1 #
loop $-1 $-1 $298 $195 #
vertex $-1 $204 $310 #
vertex $-1 $123 $311 #
straight-curve $-1 -79.777049880356984 -0.25262396308160717 15.02244089337821 1 0 0 I I #
coedge $-1 $211 $211 $-1 $312 reversed $126 $-1 #
edge $-1 $313 0 $313 6.2831853071796004 $127 $314 forward 7 unknown #
vertex $-1 $130 $315 #
ellipse-curve $-1 -57.819939861798197 2.9113858765327691 10.722206850033919 -0.80901700255871778 0 0.5877852410284794 0.8816778615427191 0 1.2135255038380768 1 I I #
coedge $-1 $215 $215 $-1 $316 reversed $133 $-1 #
edge $-1 $317 0 $317 6.2831853071796004 $134 $318 forward 7 unknown #
vertex $-1 $137 $319 #
ellipse-curve $-1 -57.819939861798197 7.6574006359543318 10.722206850033919 -0.80901700255871778 0 0.5877852410284794 0.8816778615427191 0 1.2135255038380768 1 I I #
face $-1 $-1 $320 $29 $-1 $321 reversed single #
loop $-1 $-1 $144 $138 #
plane-surface $-1 0 0 15.022440893378212 0 0 1 1 0 0 forward_v I I I I #
coedge $-1 $322 $323 $324 $325 reversed $139 $-1 #
coedge $-1 $326 $141 $143 $229 forward $87 $-1 #
coedge $-1 $141 $326 $322 $327 forward $87 $-1 #
coedge $-1 $324 $144 $141 $226 forward $220 $-1 #
edge $-1 $232 -8.1792138474469276 $328 2.8948205912033806 $225 $329 forward 7 unknown #
coedge $-1 $330 $331 $142 $228 forward $320 $-1 #
edge $-1 $332 -81.916068510253922 $231 -73.315600423565314 $227 $333 forward 7 unknown #
edge $-1 $232 111.25772228044761 $332 121.88848536637471 $143 $334 forward 7 unknown #
coedge $-1 $144 $324 $330 $335 forward $220 $-1 #
vertex $-1 $228 $336 #
vertex $-1 $145 $337 #
straight-curve $-1 43.954923505521563 10.821410475568701 15.022440893378217 -1 0 0 I I #
coedge $-1 $234 $234 $-1 $338 reversed $148 $-1 #
edge $-1 $339 0 $339 6.2831853071796004 $149 $340 forward 7 unknown #
vertex $-1 $152 $341 #
ellipse-curve $-1 57.819939861798197 2.9113858765327691 10.722206850033897 0.80901700255871778 0 0.5877852410284794 0.8816778615427191 0 -1.2135255038380768 1 I I #
coedge $-1 $238 $238 $-1 $342 reversed $155 $-1 #
edge $-1 $343 0 $343 6.2831853071796004 $156 $344 forward 7 unknown #
vertex $-1 $159 $345 #
ellipse-curve $-1 57.819939861798197 7.6574006359543318 10.722206850033897 0.80901700255871778 0 0.5877852410284794 0.8816778615427191 0 -1.2135255038380768 1 I I #
face $-1 $-1 $175 $24 $-1 $346 reversed single #
loop $-1 $-1 $258 $160 #
plane-surface $-1 0 30.290034444450697 0 0 -1 0 0 0 -1 forward_v I I I I #
coedge $-1 $347 $256 $259 $348 forward $161 $-1 #
coedge $-1 $262 $163 $164 $250 reversed $101 $-1 #
coedge $-1 $256 $347 $163 $248 reversed $161 $-1 #
edge $-1 $263 -15.022440893378212 $349 15.022440893378212 $247 $350 forward 7 unknown #
coedge $-1 $165 $164 $347 $351 forward $65 $-1 #
edge $-1 $254 -60.944242683187355 $349 60.944242683187355 $246 $352 forward 7 unknown #
coedge $-1 $259 $258 $165 $252 reversed $243 $-1 #
edge $-1 $353 -60.944242683187355 $253 60.944242683187355 $251 $354 forward 7 unknown #
vertex $-1 $167 $355 #
vertex $-1 $265 $356 #
straight-curve $-1 60.944242683187355 0 -15.022440893378212 0 -1 0 I I #
coedge $-1 $245 $247 $168 $257 reversed $161 $-1 #
edge $-1 $260 -30.290034444450697 $263 30.290034444450697 $256 $357 forward 7 unknown #
coedge $-1 $251 $169 $174 $266 forward $243 $-1 #
coedge $-1 $169 $251 $245 $348 reversed $243 $-1 #
vertex $-1 $170 $358 #
straight-curve $-1 0 30.290034444450697 15.022440893378212 -1 0 0 I I #
coedge $-1 $171 $246 $173 $265 reversed $101 $-1 #
vertex $-1 $257 $359 #
straight-curve $-1 0 -30.290034444450697 15.022440893378212 1 0 0 I I #
edge $-1 $176 -15.022440893378212 $254 15.022440893378212 $173 $360 forward 7 unknown #
edge $-1 $177 -15.022440893378212 $253 15.022440893378212 $174 $361 forward 7 unknown #
point $-1 60.944242683187355 -30.290034444450697 15.022440893378212 #
point $-1 60.944242683187355 30.290034444450697 15.022440893378212 #
face $-1 $-1 $362 $25 $-1 $363 reversed single #
loop $-1 $-1 $364 $179 #
plane-surface $-1 0 0 -15.022440893378212 0 0 1 1 0 0 forward_v I I I I #
coedge $-1 $279 $289 $274 $365 forward $180 $-1 #
coedge $-1 $185 $182 $364 $366 reversed $109 $-1 #
coedge $-1 $182 $185 $272 $365 reversed $109 $-1 #
coedge $-1 $367 $368 $182 $276 forward $362 $-1 #
edge $-1 $369 -15.022440893378212 $370 15.022440893378212 $275 $371 forward 7 unknown #
coedge $-1 $364 $188 $183 $278 forward $270 $-1 #
edge $-1 $193 -23.825760709476427 $282 -17.742421733853533 $277 $372 forward 7 unknown #
coedge $-1 $190 $272 $184 $280 forward $180 $-1 #
edge $-1 $281 17.742421733853533 $192 23.825760709476427 $279 $373 forward 7 unknown #
vertex $-1 $280 $374 #
vertex $-1 $278 $375 #
straight-curve $-1 -38.526512955518513 -12.057760016516106 0 0 0 -1 I I #
coedge $-1 $368 $367 $187 $285 forward $362 $-1 #
edge $-1 $290 -15.022440893378212 $287 15.022440893378212 $284 $376 forward 7 unknown #
coedge $-1 $188 $364 $368 $377 forward $270 $-1 #
vertex $-1 $189 $378 #
straight-curve $-1 -44.609851931141407 -10.586948615241701 -15.022440893378212 0 1 0 I I #
coedge $-1 $272 $190 $367 $379 forward $180 $-1 #
vertex $-1 $379 $380 #
straight-curve $-1 -44.609851931141407 -10.586948615241701 15.022440893378212 0 -1 0 I I #
point $-1 -44.609851931141407 -12.057760016516106 15.022440893378212 #
point $-1 -44.609851931141407 -12.057760016516106 -15.022440893378212 #
plane-surface $-1 0 0 15.022440893378212 0 0 1 1 0 0 forward_v I I I I #
coedge $-1 $305 $304 $297 $381 forward $196 $-1 #
coedge $-1 $297 $198 $200 $301 reversed $117 $-1 #
coedge $-1 $198 $296 $295 $381 reversed $117 $-1 #
coedge $-1 $206 $201 $198 $299 forward $207 $-1 #
edge $-1 $302 -25.081412839947937 $382 -18.832807197169629 $298 $383 forward 7 unknown #
coedge $-1 $200 $199 $305 $384 reversed $73 $-1 #
edge $-1 $385 0 $302 10.630763085927077 $296 $386 forward 7 unknown #
vertex $-1 $202 $387 #
straight-curve $-1 -54.695637040409039 2.6421966281217735 15.022440893378212 0 1 0 I I #
coedge $-1 $295 $203 $206 $309 reversed $196 $-1 #
coedge $-1 $203 $295 $300 $384 forward $196 $-1 #
vertex $-1 $204 $388 #
straight-curve $-1 -60.944242683187355 -0.25262396308160717 39.033112778180239 0 0 1 I I #
straight-curve $-1 -60.944242683187355 -0.25262396308160717 6.4219728066896238 -0.5877852410284794 0 -0.80901700255871778 I I #
edge $-1 $382 -10.821410475568701 $208 0.25262396308160717 $304 $389 forward 7 unknown #
point $-1 -60.944242683187355 -0.25262396308160717 15.022440893378212 #
point $-1 -54.695637040409046 -0.25262396308160717 15.022440893378212 #
edge $-1 $390 1 $390 0 $211 $-1 forward 7 unknown #
vertex $-1 $212 $391 #
ellipse-curve $-1 -53.358927225935538 2.9113858765327691 7.4810915470074963 -0.80901700255871778 0 0.5877852410284794 0.8816778615427191 0 1.2135255038380768 1 I I #
point $-1 -56.938262000255477 2.9113858765327691 11.935732353871991 #
edge $-1 $392 1 $392 0 $215 $-1 forward 7 unknown #
vertex $-1 $216 $393 #
ellipse-curve $-1 -53.358927225935538 7.6574006359543318 7.4810915470074963 -0.80901700255871778 0 0.5877852410284794 0.8816778615427191 0 1.2135255038380768 1 I I #
point $-1 -56.938262000255477 7.6574006359543318 11.935732353871991 #
loop $-1 $-1 $227 $219 #
plane-surface $-1 60.944242683187355 0 0 -1 0 0 0 0 1 forward_v I I I I #
coedge $-1 $323 $222 $224 $327 reversed $139 $-1 #
coedge $-1 $222 $322 $394 $395 reversed $139 $-1 #
coedge $-1 $230 $225 $222 $325 forward $220 $-1 #
edge $-1 $328 10.740713534887476 $396 16.989319177665791 $324 $397 forward 7 unknown #
coedge $-1 $224 $223 $331 $398 reversed $87 $-1 #
edge $-1 $399 -121.88848536637471 $328 -111.25772228044761 $322 $400 forward 7 unknown #
vertex $-1 $226 $401 #
straight-curve $-1 54.695637040409025 2.6421966281217735 15.02244089337821 0 -1 0 I I #
coedge $-1 $394 $227 $230 $335 reversed $320 $-1 #
coedge $-1 $227 $394 $326 $398 forward $320 $-1 #
vertex $-1 $228 $402 #
straight-curve $-1 60.944242683187355 10.821410475568701 88.338041316943531 0 0 1 I I #
straight-curve $-1 -10.700010066483486 10.821410475568701 105.03182988421621 0.5877852410284794 0 -0.80901700255871778 I I #
edge $-1 $396 -0.25262396308160717 $231 10.821410475568701 $330 $403 forward 7 unknown #
point $-1 60.944242683187355 10.821410475568701 15.022440893378212 #
point $-1 54.695637040409039 10.821410475568701 15.022440893378217 #
edge $-1 $404 1 $404 0 $234 $-1 forward 7 unknown #
vertex $-1 $235 $405 #
ellipse-curve $-1 53.358927225935545 2.9113858765327691 7.4810915470074821 0.80901700255871778 0 0.5877852410284794 0.8816778615427191 0 -1.2135255038380768 1 I I #
point $-1 58.701617723340924 2.9113858765327691 9.5086813461958251 #
edge $-1 $406 1 $406 0 $238 $-1 forward 7 unknown #
vertex $-1 $239 $407 #
ellipse-curve $-1 53.358927225935545 7.6574006359543318 7.4810915470074821 0.80901700255871778 0 0.5877852410284794 0.8816778615427191 0 -1.2135255038380768 1 I I #
point $-1 58.701617723340924 7.6574006359543318 9.5086813461958251 #
plane-surface $-1 60.944242683187355 0 0 -1 0 0 0 0 1 forward_v I I I I #
coedge $-1 $247 $245 $249 $351 reversed $161 $-1 #
edge $-1 $260 -15.022440893378212 $353 15.022440893378212 $259 $408 forward 7 unknown #
vertex $-1 $351 $409 #
straight-curve $-1 -60.944242683187355 -30.290034444450697 0 0 0 -1 I I #
edge $-1 $349 -30.290034444450697 $353 30.290034444450697 $347 $410 forward 7 unknown #
straight-curve $-1 0 -30.290034444450697 -15.022440893378212 -1 0 0 I I #
vertex $-1 $252 $411 #
straight-curve $-1 0 30.290034444450697 -15.022440893378212 1 0 0 I I #
point $-1 60.944242683187355 30.290034444450697 -15.022440893378212 #
point $-1 60.944242683187355 -30.290034444450697 -15.022440893378212 #
straight-curve $-1 -60.944242683187355 0 15.022440893378212 0 -1 0 I I #
point $-1 -60.944242683187355 30.290034444450697 15.022440893378212 #
point $-1 -60.944242683187355 -30.290034444450697 15.022440893378212 #
straight-curve $-1 60.944242683187355 -30.290034444450697 0 0 0 -1 I I #
straight-curve $-1 60.944242683187355 30.290034444450697 0 0 0 -1 I I #
loop $-1 $-1 $275 $269 #
plane-surface $-1 0 -30.290034444450697 0 0 1 0 0 0 1 forward_v I I I I #
coedge $-1 $286 $277 $273 $366 forward $270 $-1 #
edge $-1 $370 -19.703085829208995 $281 -1.4708114012744051 $272 $412 forward 7 unknown #
edge $-1 $282 1.4708114012744051 $369 19.703085829208995 $364 $413 forward 7 unknown #
coedge $-1 $284 $275 $289 $379 reversed $362 $-1 #
coedge $-1 $275 $284 $286 $377 reversed $362 $-1 #
vertex $-1 $377 $414 #
vertex $-1 $276 $415 #
straight-curve $-1 -38.526512955518513 -30.290034444450697 0 0 0 1 I I #
straight-curve $-1 -20.78409122166498 -12.057760016516106 -15.022440893378212 1 0 0 I I #
straight-curve $-1 -20.78409122166498 -12.057760016516106 15.022440893378212 -1 0 0 I I #
point $-1 -38.526512955518513 -12.057760016516106 15.022440893378212 #
point $-1 -38.526512955518513 -12.057760016516106 -15.022440893378212 #
straight-curve $-1 -44.609851931141407 -30.290034444450697 0 0 0 -1 I I #
edge $-1 $369 38.526512955518513 $287 44.609851931141407 $368 $416 forward 7 unknown #
point $-1 -44.609851931141407 -30.290034444450697 -15.022440893378212 #
edge $-1 $290 -44.609851931141407 $370 -38.526512955518513 $367 $417 forward 7 unknown #
point $-1 -44.609851931141407 -30.290034444450697 15.022440893378212 #
edge $-1 $382 24.010671884802029 $385 32.611139971490616 $295 $418 forward 7 unknown #
vertex $-1 $309 $419 #
straight-curve $-1 -79.777049880356984 10.821410475568701 15.02244089337821 -1 0 0 I I #
edge $-1 $385 -8.1792138474469276 $306 2.8948205912033806 $305 $420 forward 7 unknown #
vertex $-1 $384 $421 #
straight-curve $-1 -60.944242683187355 10.821410475568701 6.4219728066896238 0.5877852410284794 0 0.80901700255871778 I I #
point $-1 -54.695637040409046 10.821410475568701 15.022440893378212 #
point $-1 -60.944242683187355 -0.25262396308160717 6.4219728066896238 #
straight-curve $-1 -60.944242683187355 0 15.022440893378212 0 -1 0 I I #
vertex $-1 $312 $422 #
point $-1 -52.477249364392826 2.9113858765327691 8.6946170508455722 #
vertex $-1 $316 $423 #
point $-1 -52.477249364392826 7.6574006359543318 8.6946170508455722 #
coedge $-1 $331 $330 $323 $395 forward $320 $-1 #
edge $-1 $396 73.315600423565314 $399 81.916068510253922 $394 $424 forward 7 unknown #
vertex $-1 $335 $425 #
straight-curve $-1 43.954923505521563 -0.25262396308160717 15.022440893378217 1 0 0 I I #
edge $-1 $399 -2.8948205912033806 $332 8.1792138474469276 $331 $426 forward 7 unknown #
vertex $-1 $398 $427 #
straight-curve $-1 -10.700010066483486 -0.25262396308160717 105.03182988421621 -0.5877852410284794 0 0.80901700255871778 I I #
point $-1 54.695637040409039 -0.25262396308160717 15.022440893378217 #
point $-1 60.944242683187355 10.821410475568701 6.4219728066896096 #
straight-curve $-1 60.944242683187355 0 15.022440893378212 0 1 0 I I #
vertex $-1 $338 $428 #
point $-1 54.240605087478265 2.9113858765327691 6.2675660431694054 #
vertex $-1 $342 $429 #
point $-1 54.240605087478265 7.6574006359543318 6.2675660431694054 #
straight-curve $-1 -60.944242683187355 30.290034444450697 0 0 0 -1 I I #
point $-1 -60.944242683187355 -30.290034444450697 -15.022440893378212 #
straight-curve $-1 -60.944242683187355 0 -15.022440893378212 0 1 0 I I #
point $-1 -60.944242683187355 30.290034444450697 -15.022440893378212 #
straight-curve $-1 -38.526512955518513 -10.586948615241701 15.022440893378212 0 1 0 I I #
straight-curve $-1 -38.526512955518513 -10.586948615241701 -15.022440893378212 0 -1 0 I I #
point $-1 -38.526512955518513 -30.290034444450697 -15.022440893378212 #
point $-1 -38.526512955518513 -30.290034444450697 15.022440893378212 #
straight-curve $-1 0 -30.290034444450697 -15.022440893378212 -1 0 0 I I #
straight-curve $-1 0 -30.290034444450697 15.022440893378212 1 0 0 I I #
straight-curve $-1 -60.944242683187355 10.821410475568701 39.033112778180239 0 0 -1 I I #
point $-1 -60.944242683187355 10.821410475568701 15.022440893378212 #
straight-curve $-1 -60.944242683187355 2.6421966281217735 6.4219728066896185 0 -1 0 I I #
point $-1 -60.944242683187355 10.821410475568701 6.4219728066896238 #
point $-1 -52.145401722097468 2.9113858765327691 6.5994136854647767 #
point $-1 -52.145401722097468 7.6574006359543318 6.5994136854647767 #
straight-curve $-1 60.944242683187355 -0.25262396308160717 88.338041316943531 0 0 -1 I I #
point $-1 60.944242683187355 -0.25262396308160717 15.022440893378212 #
straight-curve $-1 60.944242683187355 2.6421966281217735 6.4219728066896096 0 1 0 I I #
point $-1 60.944242683187355 -0.25262396308160717 6.4219728066896096 #
point $-1 52.145401722097475 2.9113858765327691 6.5994136854647625 #
point $-1 52.145401722097475 7.6574006359543318 6.5994136854647625 #
End-of-ACIS-data 