500 0 8 0           
7 Unknown 11 ACIS 5.0 NT 24 Thu Mar 25 22:07:39 1999 
-1 9.9999999999999995e-007 1e-010 
body $-1 $8 $-1 $9 #
body $-1 $10 $-1 $11 #
body $-1 $12 $-1 $13 #
body $-1 $14 $-1 $15 #
body $-1 $16 $-1 $17 #
body $-1 $18 $-1 $19 #
body $-1 $20 $-1 $21 #
body $-1 $22 $-1 $23 #
lump $-1 $-1 $24 $0 #
transform $-1 1 0 0 0 1 0 0 0 1 40.075685903500471 17.914016279444912 6.6644383021961549 1 rotate no_reflect no_shear #
lump $-1 $-1 $25 $1 #
transform $-1 1 0 0 0 1 0 0 0 1 40.075685903500471 17.914016279444912 6.6644383021961549 1 rotate no_reflect no_shear #
lump $-1 $-1 $26 $2 #
transform $-1 1 0 0 0 1 0 0 0 1 40.075685903500471 17.914016279444912 6.6644383021961549 1 rotate no_reflect no_shear #
lump $-1 $-1 $27 $3 #
transform $-1 1 0 0 0 1 0 0 0 1 40.075685903500471 17.914016279444912 6.6644383021961549 1 rotate no_reflect no_shear #
lump $-1 $-1 $28 $4 #
transform $-1 1 0 0 0 1 0 0 0 1 40.075685903500471 17.914016279444912 6.6644383021961549 1 rotate no_reflect no_shear #
lump $-1 $-1 $29 $5 #
transform $-1 1 0 0 0 1 0 0 0 1 40.075685903500471 17.914016279444912 6.6644383021961549 1 rotate no_reflect no_shear #
lump $-1 $-1 $30 $6 #
transform $-1 1 0 0 0 1 0 0 0 1 40.075685903500471 17.914016279444912 6.6644383021961549 1 rotate no_reflect no_shear #
lump $-1 $-1 $31 $7 #
transform $-1 1 0 0 0 1 0 0 0 1 40.075685903500471 17.914016279444912 6.6644383021961549 1 rotate no_reflect no_shear #
shell $-1 $-1 $-1 $32 $-1 $8 #
shell $-1 $-1 $-1 $33 $-1 $10 #
shell $-1 $-1 $-1 $34 $-1 $12 #
shell $-1 $-1 $-1 $35 $-1 $14 #
shell $-1 $-1 $-1 $36 $-1 $16 #
shell $-1 $-1 $-1 $37 $-1 $18 #
shell $-1 $-1 $-1 $38 $-1 $20 #
shell $-1 $-1 $-1 $39 $-1 $22 #
face $-1 $40 $41 $24 $-1 $42 forward single #
face $-1 $43 $44 $25 $-1 $45 reversed single #
face $-1 $46 $47 $26 $-1 $48 reversed single #
face $-1 $49 $50 $27 $-1 $51 forward single #
face $-1 $52 $53 $28 $-1 $54 forward single #
face $-1 $55 $56 $29 $-1 $57 reversed single #
face $-1 $58 $59 $30 $-1 $60 forward single #
face $-1 $61 $62 $31 $-1 $63 forward single #
face $-1 $64 $65 $24 $-1 $66 reversed single #
loop $-1 $-1 $67 $32 #
plane-surface $-1 0 0 6.6644383021961549 0 0 1 1 0 0 forward_v I I I I #
face $-1 $68 $69 $25 $-1 $70 reversed single #
loop $-1 $-1 $71 $33 #
plane-surface $-1 0 -13.930076607819775 3.2691076302029263 0 0 1 1 0 0 forward_v I I I I #
face $-1 $72 $73 $26 $-1 $74 reversed single #
loop $-1 $-1 $75 $34 #
plane-surface $-1 1.0738258140463586e-006 14.00996792495895 71.639164500474152 0.86602541151947299 0 0.49999998660252726 0.49999998660252726 0 -0.86602541151947299 forward_v I I I I #
face $-1 $76 $77 $27 $-1 $78 forward single #
loop $-1 $79 $80 $35 #
cone-surface $-1 38.190588900484585 12.336804344464966 4.0966108411734456 -0.86602541151947299 0 -0.49999998660252726 0.49999998660252726 0 -0.86602541151947299 1 I I 0 1 1 forward I I I I #
face $-1 $81 $82 $28 $-1 $83 forward single #
loop $-1 $84 $85 $36 #
cone-surface $-1 38.190588900484585 15.683131505452931 4.0966108411734456 -0.86602541151947299 0 -0.49999998660252726 0.49999998660252726 0 -0.86602541151947299 1 I I 0 1 1 forward I I I I #
face $-1 $86 $87 $29 $-1 $88 reversed single #
loop $-1 $-1 $89 $37 #
plane-surface $-1 -40.075685903500471 14.00996792495895 2.226039747465876 -0.86602541151947299 0 0.49999998660252726 0.49999998660252726 0 0.86602541151947299 forward_v I I I I #
face $-1 $90 $91 $30 $-1 $92 forward single #
loop $-1 $93 $94 $38 #
cone-surface $-1 -38.190588900484585 12.336804344464966 4.096610841173435 0.86602541151947299 0 -0.49999998660252726 0.49999998660252726 0 0.86602541151947299 1 I I 0 1 1 forward I I I I #
face $-1 $95 $96 $31 $-1 $97 forward single #
loop $-1 $98 $99 $39 #
cone-surface $-1 -38.190588900484585 15.683131505452931 4.096610841173435 0.86602541151947299 0 -0.49999998660252726 0.49999998660252726 0 0.86602541151947299 1 I I 0 1 1 forward I I I I #
face $-1 $100 $101 $24 $-1 $102 reversed single #
loop $-1 $-1 $103 $40 #
plane-surface $-1 0 0 -6.6644383021961549 0 0 1 1 0 0 forward_v I I I I #
coedge $-1 $104 $105 $106 $107 forward $41 $-1 #
face $-1 $108 $109 $25 $-1 $110 reversed single #
loop $-1 $-1 $111 $43 #
plane-surface $-1 0 -9.9461369361946375 4.9667729661995406 0 -1 0 0 0 -1 forward_v I I I I #
coedge $-1 $112 $113 $114 $115 reversed $44 $-1 #
face $-1 $116 $117 $26 $-1 $118 reversed single #
loop $-1 $-1 $119 $46 #
plane-surface $-1 69.41312582683409 10.105919570472988 111.71484933014879 0 1 0 0.86602541151947299 0 0.49999998660252726 forward_v I I I I #
coedge $-1 $120 $121 $122 $123 reversed $47 $-1 #
face $-1 $-1 $124 $27 $-1 $125 forward single #
loop $-1 $126 $127 $49 #
cone-surface $-1 37.153734446106256 12.336804344464966 3.4979826642146019 -0.86602541151947299 0 -0.49999998660252726 0.24999999330126363 0 -0.43301270575973649 1 I I -0.70710678118654746 0.70710678118654746 0.5 forward I I I I #
loop $-1 $-1 $128 $35 #
coedge $-1 $80 $80 $129 $130 reversed $50 $-1 #
face $-1 $-1 $131 $28 $-1 $132 forward single #
loop $-1 $133 $134 $52 #
cone-surface $-1 37.153734446106256 15.683131505452931 3.4979826642146019 -0.86602541151947299 0 -0.49999998660252726 0.24999999330126363 0 -0.43301270575973649 1 I I -0.70710678118654746 0.70710678118654746 0.5 forward I I I I #
loop $-1 $-1 $135 $36 #
coedge $-1 $85 $85 $136 $137 reversed $53 $-1 #
face $-1 $138 $139 $29 $-1 $140 forward single #
loop $-1 $-1 $141 $55 #
plane-surface $-1 -109.48881065650875 10.105919570472988 42.301724577140526 0 1 0 -0.86602541151947299 0 0.49999998660252726 forward_v I I I I #
coedge $-1 $142 $143 $144 $145 reversed $56 $-1 #
face $-1 $-1 $146 $30 $-1 $147 forward single #
loop $-1 $148 $149 $58 #
cone-surface $-1 -37.153734446106256 12.336804344464966 3.4979826642145913 0.86602541151947299 0 -0.49999998660252726 0.24999999330126363 0 0.43301270575973649 1 I I -0.70710678118654746 0.70710678118654746 0.5 forward I I I I #
loop $-1 $-1 $150 $38 #
coedge $-1 $94 $94 $151 $152 reversed $59 $-1 #
face $-1 $-1 $153 $31 $-1 $154 forward single #
loop $-1 $155 $156 $61 #
cone-surface $-1 -37.153734446106256 15.683131505452931 3.4979826642145913 0.86602541151947299 0 -0.49999998660252726 0.24999999330126363 0 0.43301270575973649 1 I I -0.70710678118654746 0.70710678118654746 0.5 forward I I I I #
loop $-1 $-1 $157 $39 #
coedge $-1 $99 $99 $158 $159 reversed $62 $-1 #
face $-1 $160 $161 $24 $-1 $162 reversed single #
loop $-1 $-1 $163 $64 #
plane-surface $-1 0 -17.914016279444912 0 0 1 0 0 0 1 forward_v I I I I #
coedge $-1 $164 $165 $166 $167 forward $65 $-1 #
coedge $-1 $168 $67 $169 $170 forward $41 $-1 #
coedge $-1 $67 $168 $171 $172 forward $41 $-1 #
coedge $-1 $173 $174 $67 $107 reversed $175 $-1 #
edge $-1 $176 -17.914016279444912 $177 17.914016279444912 $106 $178 forward 7 unknown #
face $-1 $179 $180 $25 $-1 $181 reversed single #
loop $-1 $-1 $182 $68 #
plane-surface $-1 -40.075685903500471 0 0 1 0 0 0 0 -1 forward_v I I I I #
coedge $-1 $183 $184 $185 $186 reversed $69 $-1 #
coedge $-1 $187 $71 $188 $189 reversed $44 $-1 #
coedge $-1 $71 $187 $183 $190 forward $44 $-1 #
coedge $-1 $185 $191 $71 $115 forward $192 $-1 #
edge $-1 $193 -10.948977975535024 $194 -2.9810986322847501 $114 $195 forward 7 unknown #
face $-1 $196 $197 $26 $-1 $198 forward single #
loop $-1 $-1 $199 $72 #
plane-surface $-1 0 17.914016279444912 0 0 -1 0 0 0 -1 forward_v I I I I #
coedge $-1 $200 $201 $202 $203 reversed $73 $-1 #
coedge $-1 $204 $75 $199 $205 reversed $47 $-1 #
coedge $-1 $75 $204 $200 $206 forward $47 $-1 #
coedge $-1 $202 $207 $75 $123 forward $197 $-1 #
edge $-1 $208 -10.909032316965437 $209 -3.1009356079935131 $122 $210 forward 7 unknown #
loop $-1 $-1 $129 $76 #
plane-surface $-1 1.0738258140463586e-006 14.00996792495895 71.639164500474152 0.86602541151947299 0 0.49999998660252726 0.49999998660252726 0 -0.86602541151947299 forward_v I I I I #
loop $-1 $-1 $211 $49 #
coedge $-1 $127 $127 $128 $212 reversed $77 $-1 #
coedge $-1 $128 $128 $127 $212 forward $79 $-1 #
coedge $-1 $129 $129 $80 $130 forward $124 $-1 #
edge $-1 $213 0 $213 6.2831853071796004 $129 $214 forward 7 unknown #
loop $-1 $-1 $136 $81 #
plane-surface $-1 1.0738258140463586e-006 14.00996792495895 71.639164500474152 0.86602541151947299 0 0.49999998660252726 0.49999998660252726 0 -0.86602541151947299 forward_v I I I I #
loop $-1 $-1 $215 $52 #
coedge $-1 $134 $134 $135 $216 reversed $82 $-1 #
coedge $-1 $135 $135 $134 $216 forward $84 $-1 #
coedge $-1 $136 $136 $85 $137 forward $131 $-1 #
edge $-1 $217 0 $217 6.2831853071796004 $136 $218 forward 7 unknown #
face $-1 $219 $220 $29 $-1 $221 reversed single #
loop $-1 $-1 $222 $86 #
plane-surface $-1 0 0 6.6644383021961549 0 0 1 1 0 0 forward_v I I I I #
coedge $-1 $223 $224 $225 $226 reversed $87 $-1 #
coedge $-1 $227 $89 $228 $229 reversed $56 $-1 #
coedge $-1 $89 $227 $223 $230 forward $56 $-1 #
coedge $-1 $225 $231 $89 $145 forward $232 $-1 #
edge $-1 $233 -10.909032316965437 $234 -3.1009356079935131 $144 $235 forward 7 unknown #
loop $-1 $-1 $151 $90 #
plane-surface $-1 -40.075685903500471 14.00996792495895 2.226039747465876 -0.86602541151947299 0 0.49999998660252726 0.49999998660252726 0 0.86602541151947299 forward_v I I I I #
loop $-1 $-1 $236 $58 #
coedge $-1 $149 $149 $150 $237 reversed $91 $-1 #
coedge $-1 $150 $150 $149 $237 forward $93 $-1 #
coedge $-1 $151 $151 $94 $152 forward $146 $-1 #
edge $-1 $238 0 $238 6.2831853071796004 $151 $239 forward 7 unknown #
loop $-1 $-1 $158 $95 #
plane-surface $-1 -40.075685903500471 14.00996792495895 2.226039747465876 -0.86602541151947299 0 0.49999998660252726 0.49999998660252726 0 0.86602541151947299 forward_v I I I I #
loop $-1 $-1 $240 $61 #
coedge $-1 $156 $156 $157 $241 reversed $96 $-1 #
coedge $-1 $157 $157 $156 $241 forward $98 $-1 #
coedge $-1 $158 $158 $99 $159 forward $153 $-1 #
edge $-1 $242 0 $242 6.2831853071796004 $158 $243 forward 7 unknown #
face $-1 $244 $245 $24 $-1 $246 reversed single #
loop $-1 $-1 $247 $100 #
plane-surface $-1 -40.075685903500471 0 0 1 0 0 0 0 -1 forward_v I I I I #
coedge $-1 $248 $171 $249 $250 forward $101 $-1 #
coedge $-1 $251 $103 $248 $252 forward $65 $-1 #
coedge $-1 $103 $251 $253 $254 forward $65 $-1 #
coedge $-1 $174 $173 $103 $167 reversed $175 $-1 #
edge $-1 $255 -17.914016279444912 $256 17.914016279444912 $166 $257 forward 7 unknown #
coedge $-1 $105 $104 $258 $259 forward $41 $-1 #
coedge $-1 $260 $261 $104 $170 reversed $245 $-1 #
edge $-1 $177 -40.075685903500471 $262 40.075685903500471 $169 $263 forward 7 unknown #
coedge $-1 $163 $264 $105 $172 reversed $101 $-1 #
edge $-1 $265 -40.075685903500471 $176 40.075685903500471 $171 $266 forward 7 unknown #
coedge $-1 $166 $106 $264 $267 forward $175 $-1 #
coedge $-1 $106 $166 $260 $268 reversed $175 $-1 #
loop $-1 $-1 $173 $244 #
vertex $-1 $107 $269 #
vertex $-1 $107 $270 #
straight-curve $-1 40.075685903500471 0 6.6644383021961549 0 1 0 I I #
face $-1 $271 $272 $25 $-1 $273 forward single #
loop $-1 $-1 $188 $108 #
plane-surface $-1 0 -17.914016279444912 0 0 1 0 0 0 1 forward_v I I I I #
coedge $-1 $274 $275 $276 $277 forward $109 $-1 #
coedge $-1 $276 $111 $113 $190 reversed $69 $-1 #
coedge $-1 $111 $276 $278 $279 reversed $69 $-1 #
coedge $-1 $280 $114 $111 $186 forward $192 $-1 #
edge $-1 $194 0.78572114710315599 $281 4.1810518190963846 $185 $282 forward 7 unknown #
coedge $-1 $113 $112 $274 $283 reversed $44 $-1 #
coedge $-1 $284 $285 $112 $189 forward $180 $-1 #
edge $-1 $286 -40.075685903500471 $193 40.075685903500471 $188 $287 forward 7 unknown #
edge $-1 $288 -40.075685903500471 $194 40.075685903500471 $183 $289 forward 7 unknown #
coedge $-1 $114 $280 $284 $290 forward $192 $-1 #
loop $-1 $-1 $185 $271 #
vertex $-1 $189 $291 #
vertex $-1 $115 $292 #
straight-curve $-1 40.075685903500471 -6.9650383039098873 3.2691076302029263 0 1 0 I I #
face $-1 $-1 $293 $26 $-1 $294 reversed single #
loop $-1 $-1 $122 $116 #
plane-surface $-1 0 0 6.6644383021961549 0 0 1 1 0 0 forward_v I I I I #
coedge $-1 $295 $296 $120 $205 forward $117 $-1 #
coedge $-1 $201 $119 $121 $206 reversed $73 $-1 #
coedge $-1 $119 $200 $297 $298 reversed $73 $-1 #
coedge $-1 $299 $122 $119 $203 forward $197 $-1 #
edge $-1 $209 2.8066124812888162 $300 5.3691229900834259 $202 $301 forward 7 unknown #
coedge $-1 $121 $120 $302 $303 reversed $47 $-1 #
edge $-1 $304 -49.130703616740227 $208 -44.005682461826346 $199 $305 forward 7 unknown #
edge $-1 $306 -80.151371807000956 $209 -75.026350652087075 $200 $307 forward 7 unknown #
coedge $-1 $122 $299 $295 $308 forward $197 $-1 #
vertex $-1 $123 $309 #
vertex $-1 $123 $310 #
straight-curve $-1 37.513175394705861 7.004983962479475 6.6644383021961602 0 -1 0 I I #
coedge $-1 $211 $211 $-1 $311 reversed $126 $-1 #
edge $-1 $312 0 $312 6.2831853071796004 $127 $313 forward 7 unknown #
vertex $-1 $130 $314 #
ellipse-curve $-1 38.794430649103163 12.336804344464966 4.4452390248310198 0.86602541151947299 0 0.49999998660252726 0.49999998660252726 0 -0.86602541151947299 1 I I #
coedge $-1 $215 $215 $-1 $315 reversed $133 $-1 #
edge $-1 $316 0 $316 6.2831853071796004 $134 $317 forward 7 unknown #
vertex $-1 $137 $318 #
ellipse-curve $-1 38.794430649103163 15.683131505452931 4.4452390248310198 0.86602541151947299 0 0.49999998660252726 0.49999998660252726 0 -0.86602541151947299 1 I I #
face $-1 $-1 $232 $29 $-1 $319 reversed single #
loop $-1 $-1 $228 $138 #
plane-surface $-1 0 17.914016279444912 0 0 -1 0 0 0 -1 forward_v I I I I #
coedge $-1 $320 $321 $224 $322 forward $139 $-1 #
coedge $-1 $224 $141 $143 $230 reversed $87 $-1 #
coedge $-1 $141 $223 $222 $322 reversed $87 $-1 #
coedge $-1 $323 $144 $141 $226 forward $232 $-1 #
edge $-1 $234 -18.924822541104387 $324 -14.486423986374108 $225 $325 forward 7 unknown #
coedge $-1 $143 $142 $320 $326 reversed $56 $-1 #
coedge $-1 $327 $328 $142 $229 forward $220 $-1 #
edge $-1 $329 3.9299965583258856 $233 9.0550177132397422 $228 $330 forward 7 unknown #
edge $-1 $331 -5.1250211549138571 $234 0 $223 $332 forward 7 unknown #
coedge $-1 $144 $323 $327 $333 forward $232 $-1 #
loop $-1 $-1 $225 $219 #
vertex $-1 $229 $334 #
vertex $-1 $145 $335 #
straight-curve $-1 -40.075685903500471 7.004983962479475 2.2260397474658751 0 -1 0 I I #
coedge $-1 $236 $236 $-1 $336 reversed $148 $-1 #
edge $-1 $337 0 $337 6.2831853071796004 $149 $338 forward 7 unknown #
vertex $-1 $152 $339 #
ellipse-curve $-1 -38.79443064910317 12.336804344464966 4.4452390248310136 -0.86602541151947299 0 0.49999998660252726 0.49999998660252726 0 0.86602541151947299 1 I I #
coedge $-1 $240 $240 $-1 $340 reversed $155 $-1 #
edge $-1 $341 0 $341 6.2831853071796004 $156 $342 forward 7 unknown #
vertex $-1 $159 $343 #
ellipse-curve $-1 -38.79443064910317 15.683131505452931 4.4452390248310136 -0.86602541151947299 0 0.49999998660252726 0.49999998660252726 0 0.86602541151947299 1 I I #
face $-1 $-1 $175 $24 $-1 $344 reversed single #
loop $-1 $-1 $260 $160 #
plane-surface $-1 0 17.914016279444912 0 0 -1 0 0 0 -1 forward_v I I I I #
coedge $-1 $345 $258 $261 $346 forward $161 $-1 #
coedge $-1 $264 $163 $164 $252 reversed $101 $-1 #
coedge $-1 $258 $345 $163 $250 reversed $161 $-1 #
edge $-1 $265 -6.6644383021961549 $347 6.6644383021961549 $249 $348 forward 7 unknown #
coedge $-1 $165 $164 $345 $349 forward $65 $-1 #
edge $-1 $256 -40.075685903500471 $347 40.075685903500471 $248 $350 forward 7 unknown #
coedge $-1 $261 $260 $165 $254 reversed $245 $-1 #
edge $-1 $351 -40.075685903500471 $255 40.075685903500471 $253 $352 forward 7 unknown #
vertex $-1 $167 $353 #
vertex $-1 $267 $354 #
straight-curve $-1 40.075685903500471 0 -6.6644383021961549 0 -1 0 I I #
coedge $-1 $247 $249 $168 $259 reversed $161 $-1 #
edge $-1 $262 -17.914016279444912 $265 17.914016279444912 $258 $355 forward 7 unknown #
coedge $-1 $253 $169 $174 $268 forward $245 $-1 #
coedge $-1 $169 $253 $247 $346 reversed $245 $-1 #
vertex $-1 $170 $356 #
straight-curve $-1 0 17.914016279444912 6.6644383021961549 -1 0 0 I I #
coedge $-1 $171 $248 $173 $267 reversed $101 $-1 #
vertex $-1 $259 $357 #
straight-curve $-1 0 -17.914016279444912 6.6644383021961549 1 0 0 I I #
edge $-1 $176 -6.6644383021961549 $256 6.6644383021961549 $173 $358 forward 7 unknown #
edge $-1 $177 -6.6644383021961549 $255 6.6644383021961549 $174 $359 forward 7 unknown #
point $-1 40.075685903500471 -17.914016279444912 6.6644383021961549 #
point $-1 40.075685903500471 17.914016279444912 6.6644383021961549 #
face $-1 $-1 $192 $25 $-1 $360 reversed single #
loop $-1 $-1 $278 $179 #
plane-surface $-1 0 0 6.6644383021961549 0 0 1 1 0 0 forward_v I I I I #
coedge $-1 $361 $182 $187 $283 forward $109 $-1 #
coedge $-1 $182 $361 $362 $363 reversed $109 $-1 #
coedge $-1 $184 $183 $182 $277 reversed $69 $-1 #
edge $-1 $364 -4.1810518190963846 $288 -0.78572114710315599 $182 $365 forward 7 unknown #
coedge $-1 $362 $366 $184 $279 forward $272 $-1 #
edge $-1 $281 -40.075685903500471 $364 40.075685903500471 $278 $367 forward 7 unknown #
coedge $-1 $191 $185 $366 $368 reversed $192 $-1 #
vertex $-1 $186 $369 #
straight-curve $-1 40.075685903500471 -9.9461369361946375 2.4833864830997703 0 0 1 I I #
edge $-1 $288 2.9810986322847501 $286 10.948977975535024 $274 $370 forward 7 unknown #
coedge $-1 $371 $188 $191 $290 reversed $180 $-1 #
coedge $-1 $188 $371 $361 $372 forward $180 $-1 #
vertex $-1 $189 $373 #
straight-curve $-1 0 -17.914016279444912 3.2691076302029263 1 0 0 I I #
vertex $-1 $283 $374 #
straight-curve $-1 0 -9.9461369361946375 3.2691076302029263 1 0 0 I I #
edge $-1 $375 -6.6644383021961549 $193 -3.2691076302029263 $191 $376 forward 7 unknown #
point $-1 40.075685903500471 -17.914016279444912 3.2691076302029263 #
point $-1 40.075685903500471 -9.9461369361946375 3.2691076302029263 #
loop $-1 $-1 $302 $196 #
plane-surface $-1 40.075685903500471 0 0 -1 0 0 0 0 1 forward_v I I I I #
coedge $-1 $296 $199 $207 $308 reversed $117 $-1 #
coedge $-1 $199 $295 $377 $378 forward $117 $-1 #
coedge $-1 $302 $379 $201 $298 forward $293 $-1 #
edge $-1 $300 49.192986362878244 $306 53.631384917608536 $297 $380 forward 7 unknown #
coedge $-1 $207 $202 $379 $381 forward $197 $-1 #
vertex $-1 $381 $382 #
straight-curve $-1 34.706562913417045 10.105919570472988 6.6644383021961531 1 0 0 I I #
coedge $-1 $377 $297 $204 $303 forward $293 $-1 #
edge $-1 $306 3.1009356079935131 $304 10.909032316965437 $302 $383 forward 7 unknown #
vertex $-1 $303 $384 #
straight-curve $-1 15.510334753357622 17.914016279444912 44.774477565394577 -0.49999998660252726 0 0.86602541151947299 I I #
vertex $-1 $303 $385 #
straight-curve $-1 1.0738258140463586e-006 10.105919570472988 71.639164500474152 -0.49999998660252726 0 0.86602541151947299 I I #
edge $-1 $386 -40.075685903500471 $208 -37.513175394705861 $295 $387 forward 7 unknown #
point $-1 37.513175394705861 17.914016279444912 6.6644383021961602 #
point $-1 37.513175394705861 10.105919570472988 6.6644383021961602 #
edge $-1 $388 1 $388 0 $211 $-1 forward 7 unknown #
vertex $-1 $212 $389 #
ellipse-curve $-1 37.586747151865993 12.336804344464966 3.7479826575158657 0.86602541151947299 0 0.49999998660252726 0.49999998660252726 0 -0.86602541151947299 1 I I #
point $-1 39.294430635705702 12.336804344464966 3.5792136133115533 #
edge $-1 $390 1 $390 0 $215 $-1 forward 7 unknown #
vertex $-1 $216 $391 #
ellipse-curve $-1 37.586747151865993 15.683131505452931 3.7479826575158657 0.86602541151947299 0 0.49999998660252726 0.49999998660252726 0 -0.86602541151947299 1 I I #
point $-1 39.294430635705702 15.683131505452931 3.5792136133115533 #
plane-surface $-1 -40.075685903500471 0 0 1 0 0 0 0 -1 forward_v I I I I #
coedge $-1 $392 $222 $227 $326 forward $139 $-1 #
coedge $-1 $222 $392 $323 $393 forward $139 $-1 #
edge $-1 $324 14.668719424753903 $331 17.231229933548498 $222 $394 forward 7 unknown #
coedge $-1 $231 $225 $321 $393 reversed $232 $-1 #
vertex $-1 $322 $395 #
straight-curve $-1 -40.075685903500471 10.105919570472988 21.150862288570263 0 0 1 I I #
edge $-1 $331 3.1009356079935131 $329 10.909032316965437 $320 $396 forward 7 unknown #
coedge $-1 $328 $228 $231 $333 reversed $220 $-1 #
coedge $-1 $228 $327 $392 $397 reversed $220 $-1 #
vertex $-1 $397 $398 #
straight-curve $-1 -35.548177168194954 17.914016279444912 10.067915188890442 -0.49999998660252726 0 -0.86602541151947299 I I #
vertex $-1 $326 $399 #
straight-curve $-1 -40.075685903500471 10.105919570472988 2.226039747465876 -0.49999998660252726 0 -0.86602541151947299 I I #
edge $-1 $400 -6.6644383021961549 $233 -2.226039747465876 $327 $401 forward 7 unknown #
point $-1 -40.075685903500471 17.914016279444912 2.226039747465876 #
point $-1 -40.075685903500471 10.105919570472988 2.226039747465876 #
edge $-1 $402 1 $402 0 $236 $-1 forward 7 unknown #
vertex $-1 $237 $403 #
ellipse-curve $-1 -37.586747151865993 12.336804344464966 3.747982657515855 -0.86602541151947299 0 0.49999998660252726 0.49999998660252726 0 0.86602541151947299 1 I I #
point $-1 -38.294430662500645 12.336804344464966 5.3112644363504886 #
edge $-1 $404 1 $404 0 $240 $-1 forward 7 unknown #
vertex $-1 $241 $405 #
ellipse-curve $-1 -37.586747151865993 15.683131505452931 3.747982657515855 -0.86602541151947299 0 0.49999998660252726 0.49999998660252726 0 0.86602541151947299 1 I I #
point $-1 -38.294430662500645 15.683131505452931 5.3112644363504886 #
plane-surface $-1 40.075685903500471 0 0 -1 0 0 0 0 1 forward_v I I I I #
coedge $-1 $249 $247 $251 $349 reversed $161 $-1 #
edge $-1 $262 -6.6644383021961549 $351 6.6644383021961549 $261 $406 forward 7 unknown #
vertex $-1 $349 $407 #
straight-curve $-1 -40.075685903500471 -17.914016279444912 0 0 0 -1 I I #
edge $-1 $347 -17.914016279444912 $351 17.914016279444912 $345 $408 forward 7 unknown #
straight-curve $-1 0 -17.914016279444912 -6.6644383021961549 -1 0 0 I I #
vertex $-1 $254 $409 #
straight-curve $-1 0 17.914016279444912 -6.6644383021961549 1 0 0 I I #
point $-1 40.075685903500471 17.914016279444912 -6.6644383021961549 #
point $-1 40.075685903500471 -17.914016279444912 -6.6644383021961549 #
straight-curve $-1 -40.075685903500471 0 6.6644383021961549 0 -1 0 I I #
point $-1 -40.075685903500471 17.914016279444912 6.6644383021961549 #
point $-1 -40.075685903500471 -17.914016279444912 6.6644383021961549 #
straight-curve $-1 40.075685903500471 -17.914016279444912 0 0 0 -1 I I #
straight-curve $-1 40.075685903500471 17.914016279444912 0 0 0 -1 I I #
plane-surface $-1 40.075685903500471 0 0 -1 0 0 0 0 1 forward_v I I I I #
coedge $-1 $275 $274 $285 $372 reversed $109 $-1 #
coedge $-1 $410 $278 $275 $363 forward $272 $-1 #
edge $-1 $364 9.9461369361946375 $411 17.914016279444912 $275 $412 forward 7 unknown #
vertex $-1 $363 $413 #
straight-curve $-1 -40.075685903500471 -9.9461369361946375 2.4833864830997703 0 0 -1 I I #
coedge $-1 $278 $410 $280 $368 forward $272 $-1 #
straight-curve $-1 0 -9.9461369361946375 6.6644383021961549 -1 0 0 I I #
edge $-1 $375 -17.914016279444912 $281 -9.9461369361946375 $280 $414 forward 7 unknown #
point $-1 40.075685903500471 -9.9461369361946375 6.6644383021961549 #
straight-curve $-1 -40.075685903500471 -6.9650383039098873 3.2691076302029263 0 -1 0 I I #
coedge $-1 $285 $284 $410 $415 reversed $180 $-1 #
edge $-1 $411 -6.6644383021961549 $286 -3.2691076302029263 $361 $416 forward 7 unknown #
point $-1 -40.075685903500471 -17.914016279444912 3.2691076302029263 #
point $-1 -40.075685903500471 -9.9461369361946375 3.2691076302029263 #
vertex $-1 $368 $417 #
straight-curve $-1 40.075685903500471 -17.914016279444912 0 0 0 -1 I I #
coedge $-1 $379 $302 $296 $378 reversed $293 $-1 #
edge $-1 $386 -6.6644383021961549 $304 -2.2260397474658618 $377 $418 forward 7 unknown #
coedge $-1 $297 $377 $299 $381 reversed $293 $-1 #
straight-curve $-1 40.075685903500471 10.105919570472988 55.857424665074397 0 0 -1 I I #
edge $-1 $300 10.105919570472988 $386 17.914016279444912 $379 $419 forward 7 unknown #
point $-1 40.075685903500471 10.105919570472988 6.6644383021961549 #
straight-curve $-1 40.075685903500471 7.004983962479475 2.2260397474658689 0 1 0 I I #
point $-1 40.075685903500471 17.914016279444912 2.2260397474658618 #
point $-1 40.075685903500471 10.105919570472988 2.2260397474658618 #
vertex $-1 $381 $420 #
straight-curve $-1 0 17.914016279444912 6.6644383021961549 -1 0 0 I I #
vertex $-1 $311 $421 #
point $-1 38.086747138468517 12.336804344464966 2.8819572459963925 #
vertex $-1 $315 $422 #
point $-1 38.086747138468517 15.683131505452931 2.8819572459963925 #
coedge $-1 $321 $320 $328 $397 forward $139 $-1 #
edge $-1 $400 -17.914016279444912 $324 -10.105919570472988 $323 $423 forward 7 unknown #
straight-curve $-1 -54.744405328254373 10.105919570472988 6.6644383021961531 1 0 0 I I #
point $-1 -40.075685903500471 10.105919570472988 6.6644383021961549 #
straight-curve $-1 -37.513175394705868 7.004983962479475 6.6644383021961557 0 1 0 I I #
edge $-1 $329 37.513175394705875 $400 40.075685903500471 $328 $424 forward 7 unknown #
point $-1 -37.513175394705875 17.914016279444912 6.6644383021961549 #
point $-1 -37.513175394705875 10.105919570472988 6.6644383021961549 #
vertex $-1 $397 $425 #
straight-curve $-1 -40.075685903500471 17.914016279444912 0 0 0 -1 I I #
vertex $-1 $336 $426 #
point $-1 -37.086747165263468 12.336804344464966 4.6140080690353278 #
vertex $-1 $340 $427 #
point $-1 -37.086747165263468 15.683131505452931 4.6140080690353278 #
straight-curve $-1 -40.075685903500471 17.914016279444912 0 0 0 -1 I I #
point $-1 -40.075685903500471 -17.914016279444912 -6.6644383021961549 #
straight-curve $-1 -40.075685903500471 0 -6.6644383021961549 0 1 0 I I #
point $-1 -40.075685903500471 17.914016279444912 -6.6644383021961549 #
coedge $-1 $366 $362 $371 $415 forward $272 $-1 #
vertex $-1 $363 $428 #
straight-curve $-1 -40.075685903500471 0 6.6644383021961549 0 -1 0 I I #
point $-1 -40.075685903500471 -9.9461369361946375 6.6644383021961549 #
straight-curve $-1 40.075685903500471 0 6.6644383021961549 0 1 0 I I #
edge $-1 $411 -40.075685903500471 $375 40.075685903500471 $371 $429 forward 7 unknown #
straight-curve $-1 -40.075685903500471 -17.914016279444912 0 0 0 -1 I I #
point $-1 40.075685903500471 -17.914016279444912 6.6644383021961549 #
straight-curve $-1 40.075685903500471 17.914016279444912 0 0 0 -1 I I #
straight-curve $-1 40.075685903500471 0 6.6644383021961549 0 1 0 I I #
point $-1 40.075685903500471 17.914016279444912 6.6644383021961549 #
point $-1 36.720721740346519 12.336804344464966 3.2479826709133381 #
point $-1 36.720721740346519 15.683131505452931 3.2479826709133381 #
straight-curve $-1 -40.075685903500471 0 6.6644383021961549 0 -1 0 I I #
straight-curve $-1 0 17.914016279444912 6.6644383021961549 -1 0 0 I I #
point $-1 -40.075685903500471 17.914016279444912 6.6644383021961549 #
point $-1 -36.720721740346519 12.336804344464966 3.2479826709133275 #
point $-1 -36.720721740346519 15.683131505452931 3.2479826709133275 #
point $-1 -40.075685903500471 -17.914016279444912 6.6644383021961549 #
straight-curve $-1 0 -17.914016279444912 6.6644383021961549 1 0 0 I I #
End-of-ACIS-data 