500 0 10 0           
7 Unknown 11 ACIS 5.0 NT 24 Thu Mar 25 23:31:57 1999 
-1 9.9999999999999995e-007 1e-010 
body $-1 $10 $-1 $11 #
body $-1 $12 $-1 $13 #
body $-1 $14 $-1 $15 #
body $-1 $16 $-1 $17 #
body $-1 $18 $-1 $19 #
body $-1 $20 $-1 $21 #
body $-1 $22 $-1 $23 #
body $-1 $24 $-1 $25 #
body $-1 $26 $-1 $27 #
body $-1 $28 $-1 $29 #
lump $-1 $-1 $30 $0 #
transform $-1 1 0 0 0 1 0 0 0 1 78.015076143681142 37.570186423293549 18.227508395897768 1 rotate no_reflect no_shear #
lump $-1 $-1 $31 $1 #
transform $-1 1 0 0 0 1 0 0 0 1 78.015076143681142 37.570186423293549 18.227508395897768 1 rotate no_reflect no_shear #
lump $-1 $-1 $32 $2 #
transform $-1 1 0 0 0 1 0 0 0 1 78.015076143681142 37.570186423293549 18.227508395897768 1 rotate no_reflect no_shear #
lump $-1 $-1 $33 $3 #
transform $-1 1 0 0 0 1 0 0 0 1 78.015076143681142 37.570186423293549 18.227508395897768 1 rotate no_reflect no_shear #
lump $-1 $-1 $34 $4 #
transform $-1 1 0 0 0 1 0 0 0 1 78.015076143681142 37.570186423293549 18.227508395897768 1 rotate no_reflect no_shear #
lump $-1 $-1 $35 $5 #
transform $-1 1 0 0 0 1 0 0 0 1 78.015076143681142 37.570186423293549 18.227508395897768 1 rotate no_reflect no_shear #
lump $-1 $-1 $36 $6 #
transform $-1 1 0 0 0 1 0 0 0 1 78.015076143681142 37.570186423293549 18.227508395897768 1 rotate no_reflect no_shear #
lump $-1 $-1 $37 $7 #
transform $-1 1 0 0 0 1 0 0 0 1 78.015076143681142 37.570186423293549 18.227508395897768 1 rotate no_reflect no_shear #
lump $-1 $-1 $38 $8 #
transform $-1 1 0 0 0 1 0 0 0 1 78.015076143681142 37.570186423293549 18.227508395897768 1 rotate no_reflect no_shear #
lump $-1 $-1 $39 $9 #
transform $-1 1 0 0 0 1 0 0 0 1 78.015076143681142 37.570186423293549 18.227508395897768 1 rotate no_reflect no_shear #
shell $-1 $-1 $-1 $40 $-1 $10 #
shell $-1 $-1 $-1 $41 $-1 $12 #
shell $-1 $-1 $-1 $42 $-1 $14 #
shell $-1 $-1 $-1 $43 $-1 $16 #
shell $-1 $-1 $-1 $44 $-1 $18 #
shell $-1 $-1 $-1 $45 $-1 $20 #
shell $-1 $-1 $-1 $46 $-1 $22 #
shell $-1 $-1 $-1 $47 $-1 $24 #
shell $-1 $-1 $-1 $48 $-1 $26 #
shell $-1 $-1 $-1 $49 $-1 $28 #
face $-1 $50 $51 $30 $-1 $52 forward single #
face $-1 $53 $54 $31 $-1 $55 forward single #
face $-1 $56 $57 $32 $-1 $58 forward single #
face $-1 $59 $60 $33 $-1 $61 reversed single #
face $-1 $62 $63 $34 $-1 $64 forward single #
face $-1 $65 $66 $35 $-1 $67 forward single #
face $-1 $68 $69 $36 $-1 $70 reversed single #
face $-1 $71 $72 $37 $-1 $73 forward single #
face $-1 $74 $75 $38 $-1 $76 forward single #
face $-1 $77 $78 $39 $-1 $79 forward single #
face $-1 $80 $81 $30 $-1 $82 reversed single #
loop $-1 $-1 $83 $40 #
plane-surface $-1 0 0 18.227508395897768 0 0 1 1 0 0 forward_v I I I I #
face $-1 $84 $85 $31 $-1 $86 reversed single #
loop $-1 $-1 $87 $41 #
plane-surface $-1 0 -27.922601589884497 3.7039119595615606 0 0 1 1 0 0 forward_v I I I I #
face $-1 $88 $89 $32 $-1 $90 reversed single #
loop $-1 $-1 $91 $42 #
plane-surface $-1 0 27.922601589884493 3.7039119595615606 0 0 1 1 0 0 forward_v I I I I #
face $-1 $92 $93 $33 $-1 $94 reversed single #
loop $-1 $-1 $95 $43 #
plane-surface $-1 -174.07683110086788 -8.3623457883848236 134.37162846056282 0 -1 0 0.61566148304635926 0 -0.78801074757464917 forward_v I I I I #
face $-1 $96 $97 $34 $-1 $98 forward single #
loop $-1 $99 $100 $44 #
cone-surface $-1 -72.547798728635215 -15.442825051306695 13.402737565012499 0.61566148304635926 0 -0.78801074757464917 0.78801074757464917 0 0.61566148304635926 1 I I 0 1 1 forward I I I I #
face $-1 $101 $102 $35 $-1 $103 forward single #
loop $-1 $104 $105 $45 #
cone-surface $-1 -72.547798728635215 -11.194537493553572 13.402737565012499 0.61566148304635926 0 -0.78801074757464917 0.78801074757464917 0 0.61566148304635926 1 I I 0 1 1 forward I I I I #
face $-1 $106 $107 $36 $-1 $108 reversed single #
loop $-1 $-1 $109 $46 #
plane-surface $-1 70.314157129339577 -10.582917680518181 220.80111697477815 0 1 0 0.68199836817093118 0 0.7313536940579346 forward_v I I I I #
face $-1 $110 $111 $37 $-1 $112 forward single #
loop $-1 $113 $114 $47 #
cone-surface $-1 68.048533740950589 -8.6583568395602484 8.8858670856952742 -0.68199836817093118 0 -0.7313536940579346 0.3656768470289673 0 -0.34099918408546559 1 I I 0 1 0.5 forward I I I I #
face $-1 $115 $116 $38 $-1 $117 forward single #
loop $-1 $118 $119 $48 #
cone-surface $-1 68.048533740950589 -5.7715155781233491 8.8858670856952742 -0.68199836817093118 0 -0.7313536940579346 0.3656768470289673 0 -0.34099918408546559 1 I I 0 1 0.5 forward I I I I #
face $-1 $120 $121 $39 $-1 $122 forward single #
loop $-1 $123 $124 $49 #
cone-surface $-1 68.048533740950589 -2.8846743166864499 8.8858670856952742 -0.68199836817093118 0 -0.7313536940579346 0.3656768470289673 0 -0.34099918408546559 1 I I 0 1 0.5 forward I I I I #
face $-1 $125 $126 $30 $-1 $127 reversed single #
loop $-1 $-1 $128 $50 #
plane-surface $-1 0 0 -18.227508395897768 0 0 1 1 0 0 forward_v I I I I #
coedge $-1 $129 $130 $131 $132 forward $51 $-1 #
face $-1 $133 $134 $31 $-1 $135 reversed single #
loop $-1 $-1 $136 $53 #
plane-surface $-1 0 -27.922601589884497 -2.5738895862334363 0 0 1 1 0 0 forward_v I I I I #
coedge $-1 $137 $138 $139 $140 reversed $54 $-1 #
face $-1 $141 $142 $32 $-1 $143 reversed single #
loop $-1 $-1 $144 $56 #
plane-surface $-1 0 27.922601589884493 -2.5738895862334363 0 0 1 1 0 0 forward_v I I I I #
coedge $-1 $145 $146 $147 $148 reversed $57 $-1 #
face $-1 $149 $150 $33 $-1 $151 reversed single #
loop $-1 $-1 $152 $59 #
plane-surface $-1 -78.015076143681128 -13.318681272430133 11.418191512412108 -0.61566148304635926 0 0.78801074757464917 0.78801074757464917 0 0.61566148304635926 forward_v I I I I #
coedge $-1 $153 $154 $155 $156 reversed $60 $-1 #
face $-1 $-1 $157 $34 $-1 $158 forward single #
loop $-1 $159 $160 $62 #
cone-surface $-1 -71.130454567043955 -15.442825051306695 11.588619802082725 0.61566148304635926 0 -0.78801074757464917 0.39400537378732459 0 0.30783074152317963 1 I I -0.70710678118654746 0.70710678118654746 0.5 forward I I I I #
loop $-1 $-1 $161 $44 #
coedge $-1 $100 $100 $162 $163 reversed $63 $-1 #
face $-1 $-1 $164 $35 $-1 $165 forward single #
loop $-1 $166 $167 $65 #
cone-surface $-1 -71.130454567043955 -11.194537493553572 11.588619802082725 0.61566148304635926 0 -0.78801074757464917 0.39400537378732459 0 0.30783074152317963 1 I I -0.70710678118654746 0.70710678118654746 0.5 forward I I I I #
loop $-1 $-1 $168 $45 #
coedge $-1 $105 $105 $169 $170 reversed $66 $-1 #
face $-1 $171 $172 $36 $-1 $173 reversed single #
loop $-1 $-1 $174 $68 #
plane-surface $-1 -36.098152116103392 -5.7715155781233491 106.68788871499365 0.68199836817093118 0 0.7313536940579346 0.7313536940579346 0 -0.68199836817093118 forward_v I I I I #
coedge $-1 $175 $176 $177 $178 reversed $69 $-1 #
face $-1 $-1 $179 $37 $-1 $180 forward single #
loop $-1 $181 $182 $71 #
cone-surface $-1 67.537034964822396 -8.6583568395602484 8.3373518151518233 -0.68199836817093118 0 -0.7313536940579346 0.18283842351448365 0 -0.17049959204273279 1 I I -0.70710678118654746 0.70710678118654746 0.25 forward I I I I #
loop $-1 $-1 $183 $47 #
coedge $-1 $114 $114 $184 $185 reversed $72 $-1 #
face $-1 $-1 $186 $38 $-1 $187 forward single #
loop $-1 $188 $189 $74 #
cone-surface $-1 67.537034964822396 -5.7715155781233491 8.3373518151518233 -0.68199836817093118 0 -0.7313536940579346 0.18283842351448365 0 -0.17049959204273279 1 I I -0.70710678118654746 0.70710678118654746 0.25 forward I I I I #
loop $-1 $-1 $190 $48 #
coedge $-1 $119 $119 $191 $192 reversed $75 $-1 #
face $-1 $-1 $193 $39 $-1 $194 forward single #
loop $-1 $195 $196 $77 #
cone-surface $-1 67.537034964822396 -2.8846743166864499 8.3373518151518233 -0.68199836817093118 0 -0.7313536940579346 0.18283842351448365 0 -0.17049959204273279 1 I I -0.70710678118654746 0.70710678118654746 0.25 forward I I I I #
loop $-1 $-1 $197 $49 #
coedge $-1 $124 $124 $198 $199 reversed $78 $-1 #
face $-1 $200 $201 $30 $-1 $202 reversed single #
loop $-1 $-1 $203 $80 #
plane-surface $-1 0 -37.570186423293549 0 0 1 0 0 0 1 forward_v I I I I #
coedge $-1 $204 $205 $206 $207 forward $81 $-1 #
coedge $-1 $208 $83 $209 $210 forward $51 $-1 #
coedge $-1 $83 $208 $211 $212 forward $51 $-1 #
coedge $-1 $213 $214 $83 $132 reversed $215 $-1 #
edge $-1 $216 -37.570186423293549 $217 37.570186423293549 $131 $218 forward 7 unknown #
face $-1 $219 $220 $31 $-1 $221 reversed single #
loop $-1 $-1 $222 $84 #
plane-surface $-1 0 -18.275016756475445 0.56501118666406214 0 -1 0 0 0 -1 forward_v I I I I #
coedge $-1 $223 $224 $225 $226 reversed $85 $-1 #
coedge $-1 $227 $87 $228 $229 forward $54 $-1 #
coedge $-1 $87 $227 $230 $231 reversed $54 $-1 #
coedge $-1 $232 $233 $87 $140 forward $234 $-1 #
edge $-1 $235 4.3137159615331964 $236 23.608885628351302 $139 $237 forward 7 unknown #
face $-1 $238 $239 $32 $-1 $240 reversed single #
loop $-1 $-1 $241 $88 #
plane-surface $-1 0 18.275016756475441 0.56501118666406214 0 1 0 0 0 1 forward_v I I I I #
coedge $-1 $242 $243 $244 $245 reversed $89 $-1 #
coedge $-1 $246 $91 $247 $248 reversed $57 $-1 #
coedge $-1 $91 $246 $249 $250 forward $57 $-1 #
coedge $-1 $251 $252 $91 $148 forward $239 $-1 #
edge $-1 $253 -23.608885628351302 $254 -4.3137159615331946 $147 $255 forward 7 unknown #
face $-1 $256 $257 $33 $-1 $258 reversed single #
loop $-1 $-1 $259 $92 #
plane-surface $-1 -174.07683110086788 -18.275016756475445 134.37162846056282 0 1 0 -0.61566148304635926 0 0.78801074757464917 forward_v I I I I #
coedge $-1 $260 $261 $262 $263 reversed $93 $-1 #
coedge $-1 $154 $95 $264 $265 reversed $60 $-1 #
coedge $-1 $95 $153 $260 $266 reversed $60 $-1 #
coedge $-1 $262 $267 $95 $156 forward $257 $-1 #
edge $-1 $268 48.958305834383637 $269 55.767622717869315 $155 $270 forward 7 unknown #
loop $-1 $-1 $162 $96 #
plane-surface $-1 -78.015076143681128 -13.318681272430133 11.418191512412108 -0.61566148304635926 0 0.78801074757464917 0.78801074757464917 0 0.61566148304635926 forward_v I I I I #
loop $-1 $-1 $271 $62 #
coedge $-1 $160 $160 $161 $272 reversed $97 $-1 #
coedge $-1 $161 $161 $160 $272 forward $99 $-1 #
coedge $-1 $162 $162 $100 $163 forward $157 $-1 #
edge $-1 $273 0 $273 6.2831853071796004 $162 $274 forward 7 unknown #
loop $-1 $-1 $169 $101 #
plane-surface $-1 -78.015076143681128 -13.318681272430133 11.418191512412108 -0.61566148304635926 0 0.78801074757464917 0.78801074757464917 0 0.61566148304635926 forward_v I I I I #
loop $-1 $-1 $275 $65 #
coedge $-1 $167 $167 $168 $276 reversed $102 $-1 #
coedge $-1 $168 $168 $167 $276 forward $104 $-1 #
coedge $-1 $169 $169 $105 $170 forward $164 $-1 #
edge $-1 $277 0 $277 6.2831853071796004 $169 $278 forward 7 unknown #
face $-1 $279 $280 $36 $-1 $281 forward single #
loop $-1 $-1 $282 $106 #
plane-surface $-1 70.314157129339577 -0.96011347572851768 220.80111697477815 0 -1 0 -0.68199836817093118 0 -0.7313536940579346 forward_v I I I I #
coedge $-1 $283 $284 $285 $286 reversed $107 $-1 #
coedge $-1 $176 $109 $287 $288 reversed $69 $-1 #
coedge $-1 $109 $175 $283 $289 reversed $69 $-1 #
coedge $-1 $285 $290 $109 $178 forward $291 $-1 #
edge $-1 $292 92.173050091491305 $293 110.12497901783843 $177 $294 forward 7 unknown #
loop $-1 $-1 $184 $110 #
plane-surface $-1 -36.098152116103392 -5.7715155781233491 106.68788871499365 0.68199836817093118 0 0.7313536940579346 0.7313536940579346 0 -0.68199836817093118 forward_v I I I I #
loop $-1 $-1 $295 $71 #
coedge $-1 $182 $182 $183 $296 reversed $111 $-1 #
coedge $-1 $183 $183 $182 $296 forward $113 $-1 #
coedge $-1 $184 $184 $114 $185 forward $179 $-1 #
edge $-1 $297 0 $297 6.2831853071796004 $184 $298 forward 7 unknown #
loop $-1 $-1 $191 $115 #
plane-surface $-1 -36.098152116103392 -5.7715155781233491 106.68788871499365 0.68199836817093118 0 0.7313536940579346 0.7313536940579346 0 -0.68199836817093118 forward_v I I I I #
loop $-1 $-1 $299 $74 #
coedge $-1 $189 $189 $190 $300 reversed $116 $-1 #
coedge $-1 $190 $190 $189 $300 forward $118 $-1 #
coedge $-1 $191 $191 $119 $192 forward $186 $-1 #
edge $-1 $301 0 $301 6.2831853071796004 $191 $302 forward 7 unknown #
loop $-1 $-1 $198 $120 #
plane-surface $-1 -36.098152116103392 -5.7715155781233491 106.68788871499365 0.68199836817093118 0 0.7313536940579346 0.7313536940579346 0 -0.68199836817093118 forward_v I I I I #
loop $-1 $-1 $303 $77 #
coedge $-1 $196 $196 $197 $304 reversed $121 $-1 #
coedge $-1 $197 $197 $196 $304 forward $123 $-1 #
coedge $-1 $198 $198 $124 $199 forward $193 $-1 #
edge $-1 $305 0 $305 6.2831853071796004 $198 $306 forward 7 unknown #
face $-1 $307 $308 $30 $-1 $309 reversed single #
loop $-1 $-1 $310 $125 #
plane-surface $-1 -78.015076143681142 0 0 1 0 0 0 0 -1 forward_v I I I I #
coedge $-1 $311 $211 $312 $313 forward $126 $-1 #
coedge $-1 $314 $128 $311 $315 forward $81 $-1 #
coedge $-1 $128 $314 $316 $317 forward $81 $-1 #
coedge $-1 $214 $213 $128 $207 reversed $215 $-1 #
edge $-1 $318 -37.570186423293549 $319 37.570186423293549 $206 $320 forward 7 unknown #
coedge $-1 $130 $129 $321 $322 forward $51 $-1 #
coedge $-1 $323 $324 $129 $210 reversed $308 $-1 #
edge $-1 $217 -78.015076143681142 $325 78.015076143681142 $209 $326 forward 7 unknown #
coedge $-1 $203 $327 $130 $212 reversed $126 $-1 #
edge $-1 $328 -78.015076143681142 $216 78.015076143681142 $211 $329 forward 7 unknown #
coedge $-1 $206 $131 $327 $330 forward $215 $-1 #
coedge $-1 $131 $206 $323 $331 reversed $215 $-1 #
loop $-1 $-1 $213 $307 #
vertex $-1 $132 $332 #
vertex $-1 $132 $333 #
straight-curve $-1 78.015076143681142 0 18.227508395897768 0 1 0 I I #
face $-1 $334 $335 $31 $-1 $336 reversed single #
loop $-1 $-1 $337 $133 #
plane-surface $-1 -78.015076143681142 0 0 1 0 0 0 0 -1 forward_v I I I I #
coedge $-1 $338 $228 $233 $339 reversed $134 $-1 #
coedge $-1 $340 $136 $341 $342 reversed $85 $-1 #
coedge $-1 $136 $340 $338 $343 forward $85 $-1 #
coedge $-1 $233 $232 $136 $226 forward $234 $-1 #
edge $-1 $344 -23.608885628351302 $345 -4.3137159615331964 $225 $346 forward 7 unknown #
coedge $-1 $138 $137 $337 $347 reversed $54 $-1 #
coedge $-1 $222 $348 $137 $229 reversed $134 $-1 #
edge $-1 $235 -78.015076143681142 $349 78.015076143681142 $228 $350 forward 7 unknown #
coedge $-1 $351 $352 $138 $231 forward $335 $-1 #
edge $-1 $236 -78.015076143681142 $353 78.015076143681142 $230 $354 forward 7 unknown #
coedge $-1 $225 $139 $352 $355 forward $234 $-1 #
coedge $-1 $139 $225 $222 $339 forward $234 $-1 #
loop $-1 $-1 $139 $334 #
vertex $-1 $140 $356 #
vertex $-1 $355 $357 #
straight-curve $-1 78.015076143681142 -13.961300794942249 3.7039119595615606 0 -1 0 I I #
face $-1 $358 $359 $32 $-1 $360 reversed single #
loop $-1 $-1 $147 $141 #
plane-surface $-1 78.015076143681142 0 0 -1 0 0 0 0 1 forward_v I I I I #
coedge $-1 $361 $249 $362 $363 reversed $142 $-1 #
coedge $-1 $364 $144 $361 $365 forward $89 $-1 #
coedge $-1 $144 $364 $366 $367 reversed $89 $-1 #
coedge $-1 $252 $251 $144 $245 forward $239 $-1 #
edge $-1 $368 4.3137159615331946 $369 23.608885628351302 $244 $370 forward 7 unknown #
coedge $-1 $146 $145 $371 $372 reversed $57 $-1 #
coedge $-1 $373 $374 $145 $248 forward $375 $-1 #
edge $-1 $376 -78.015076143681142 $253 78.015076143681142 $247 $377 forward 7 unknown #
coedge $-1 $241 $378 $146 $250 reversed $142 $-1 #
edge $-1 $379 -78.015076143681142 $254 78.015076143681142 $249 $380 forward 7 unknown #
coedge $-1 $244 $147 $378 $381 forward $239 $-1 #
coedge $-1 $147 $244 $373 $382 reversed $239 $-1 #
vertex $-1 $382 $383 #
vertex $-1 $148 $384 #
straight-curve $-1 78.015076143681142 13.961300794942247 3.7039119595615606 0 -1 0 I I #
face $-1 $-1 $385 $33 $-1 $386 forward single #
loop $-1 $-1 $155 $149 #
plane-surface $-1 -78.015076143681142 0 0 1 0 0 0 0 -1 forward_v I I I I #
coedge $-1 $387 $388 $389 $390 reversed $150 $-1 #
coedge $-1 $391 $152 $154 $266 forward $93 $-1 #
coedge $-1 $152 $391 $387 $392 forward $93 $-1 #
coedge $-1 $389 $155 $152 $263 forward $257 $-1 #
edge $-1 $269 1.7030051521697569 $393 11.615676120260378 $262 $394 forward 7 unknown #
coedge $-1 $395 $396 $153 $265 forward $385 $-1 #
edge $-1 $397 -17.738867396708571 $268 -9.0233394067527968 $264 $398 forward 7 unknown #
edge $-1 $269 -1.7760113164789269e-014 $397 11.060163857892213 $154 $399 forward 7 unknown #
coedge $-1 $155 $389 $395 $400 reversed $257 $-1 #
vertex $-1 $400 $401 #
vertex $-1 $156 $402 #
straight-curve $-1 -78.015076143681142 -8.3623457883848236 67.185814230281409 0 0 -1 I I #
coedge $-1 $271 $271 $-1 $403 reversed $159 $-1 #
edge $-1 $404 0 $404 6.2831853071796004 $160 $405 forward 7 unknown #
vertex $-1 $163 $406 #
ellipse-curve $-1 -73.657312148703269 -15.442825051306695 14.822849954154922 -0.61566148304635926 0 0.78801074757464917 0.78801074757464917 0 0.61566148304635926 1 I I #
coedge $-1 $275 $275 $-1 $407 reversed $166 $-1 #
edge $-1 $408 0 $408 6.2831853071796004 $167 $409 forward 7 unknown #
vertex $-1 $170 $410 #
ellipse-curve $-1 -73.657312148703269 -11.194537493553572 14.822849954154922 -0.61566148304635926 0 0.78801074757464917 0.78801074757464917 0 0.61566148304635926 1 I I #
face $-1 $-1 $291 $36 $-1 $411 reversed single #
loop $-1 $-1 $412 $171 #
plane-surface $-1 0 0 18.227508395897768 0 0 1 1 0 0 forward_v I I I I #
coedge $-1 $413 $414 $415 $416 reversed $172 $-1 #
coedge $-1 $417 $174 $176 $289 forward $107 $-1 #
coedge $-1 $174 $417 $413 $418 forward $107 $-1 #
coedge $-1 $415 $177 $174 $286 forward $291 $-1 #
edge $-1 $293 -7.697159891456506 $419 1.9256443133331569 $285 $420 forward 7 unknown #
coedge $-1 $421 $422 $175 $288 forward $280 $-1 #
edge $-1 $423 23.606911141721156 $292 42.857997579011354 $287 $424 forward 7 unknown #
edge $-1 $293 -156.03015228736234 $423 -129.70761287353227 $176 $425 forward 7 unknown #
coedge $-1 $177 $415 $421 $426 reversed $291 $-1 #
loop $-1 $-1 $415 $279 #
vertex $-1 $426 $427 #
vertex $-1 $178 $428 #
straight-curve $-1 78.015076143681142 -10.582917680518181 110.40055848738908 0 0 -1 I I #
coedge $-1 $295 $295 $-1 $429 reversed $181 $-1 #
edge $-1 $430 0 $430 6.2831853071796004 $182 $431 forward 7 unknown #
vertex $-1 $185 $432 #
ellipse-curve $-1 68.389532925036036 -8.6583568395602484 9.2515439327242213 0.68199836817093118 0 0.7313536940579346 0.3656768470289673 0 -0.34099918408546559 1 I I #
coedge $-1 $299 $299 $-1 $433 reversed $188 $-1 #
edge $-1 $434 0 $434 6.2831853071796004 $189 $435 forward 7 unknown #
vertex $-1 $192 $436 #
ellipse-curve $-1 68.389532925036036 -5.7715155781233491 9.2515439327242213 0.68199836817093118 0 0.7313536940579346 0.3656768470289673 0 -0.34099918408546559 1 I I #
coedge $-1 $303 $303 $-1 $437 reversed $195 $-1 #
edge $-1 $438 0 $438 6.2831853071796004 $196 $439 forward 7 unknown #
vertex $-1 $199 $440 #
ellipse-curve $-1 68.389532925036036 -2.8846743166864499 9.2515439327242213 0.68199836817093118 0 0.7313536940579346 0.3656768470289673 0 -0.34099918408546559 1 I I #
face $-1 $-1 $215 $30 $-1 $441 reversed single #
loop $-1 $-1 $323 $200 #
plane-surface $-1 0 37.570186423293549 0 0 -1 0 0 0 -1 forward_v I I I I #
coedge $-1 $442 $321 $324 $443 forward $201 $-1 #
coedge $-1 $327 $203 $204 $315 reversed $126 $-1 #
coedge $-1 $321 $442 $203 $313 reversed $201 $-1 #
edge $-1 $328 -18.227508395897768 $444 18.227508395897768 $312 $445 forward 7 unknown #
coedge $-1 $205 $204 $442 $446 forward $81 $-1 #
edge $-1 $319 -78.015076143681142 $444 78.015076143681142 $311 $447 forward 7 unknown #
coedge $-1 $324 $323 $205 $317 reversed $308 $-1 #
edge $-1 $448 -78.015076143681142 $318 78.015076143681142 $316 $449 forward 7 unknown #
vertex $-1 $207 $450 #
vertex $-1 $330 $451 #
straight-curve $-1 78.015076143681142 0 -18.227508395897768 0 -1 0 I I #
coedge $-1 $310 $312 $208 $322 reversed $201 $-1 #
edge $-1 $325 -37.570186423293549 $328 37.570186423293549 $321 $452 forward 7 unknown #
coedge $-1 $316 $209 $214 $331 forward $308 $-1 #
coedge $-1 $209 $316 $310 $443 reversed $308 $-1 #
vertex $-1 $210 $453 #
straight-curve $-1 0 37.570186423293549 18.227508395897768 -1 0 0 I I #
coedge $-1 $211 $311 $213 $330 reversed $126 $-1 #
vertex $-1 $322 $454 #
straight-curve $-1 0 -37.570186423293549 18.227508395897768 1 0 0 I I #
edge $-1 $216 -18.227508395897768 $319 18.227508395897768 $213 $455 forward 7 unknown #
edge $-1 $217 -18.227508395897768 $318 18.227508395897768 $214 $456 forward 7 unknown #
point $-1 78.015076143681142 -37.570186423293549 18.227508395897768 #
point $-1 78.015076143681142 37.570186423293549 18.227508395897768 #
face $-1 $-1 $234 $31 $-1 $457 reversed single #
loop $-1 $-1 $230 $219 #
plane-surface $-1 0 -37.570186423293549 0 0 1 0 0 0 1 forward_v I I I I #
coedge $-1 $458 $459 $227 $347 forward $220 $-1 #
coedge $-1 $348 $222 $224 $343 reversed $134 $-1 #
edge $-1 $345 -2.8563951795654674 $235 3.4214063662295295 $233 $460 forward 7 unknown #
coedge $-1 $224 $223 $461 $462 reversed $85 $-1 #
coedge $-1 $352 $351 $223 $342 forward $335 $-1 #
edge $-1 $463 -78.015076143681142 $344 78.015076143681142 $341 $464 forward 7 unknown #
edge $-1 $465 -78.015076143681142 $345 78.015076143681142 $338 $466 forward 7 unknown #
vertex $-1 $342 $467 #
vertex $-1 $226 $468 #
straight-curve $-1 78.015076143681142 -13.961300794942249 -2.5738895862334363 0 1 0 I I #
edge $-1 $353 -23.608885628351302 $349 -4.3137159615331964 $337 $469 forward 7 unknown #
coedge $-1 $228 $338 $458 $470 reversed $134 $-1 #
vertex $-1 $347 $471 #
straight-curve $-1 0 -18.275016756475445 3.7039119595615606 -1 0 0 I I #
coedge $-1 $341 $230 $459 $472 forward $335 $-1 #
coedge $-1 $230 $341 $232 $355 reversed $335 $-1 #
vertex $-1 $472 $473 #
straight-curve $-1 0 -37.570186423293549 3.7039119595615606 -1 0 0 I I #
edge $-1 $236 -3.7039119595615606 $344 2.5738895862334363 $232 $474 forward 7 unknown #
point $-1 78.015076143681142 -18.275016756475445 3.7039119595615606 #
point $-1 78.015076143681142 -37.570186423293549 3.7039119595615606 #
face $-1 $-1 $375 $32 $-1 $475 reversed single #
loop $-1 $-1 $371 $238 #
plane-surface $-1 -78.015076143681142 0 0 1 0 0 0 0 -1 forward_v I I I I #
coedge $-1 $378 $241 $242 $365 reversed $142 $-1 #
coedge $-1 $371 $476 $241 $363 forward $359 $-1 #
edge $-1 $477 -2.8563951795654674 $379 3.4214063662295295 $362 $478 forward 7 unknown #
coedge $-1 $243 $242 $476 $479 reversed $89 $-1 #
edge $-1 $368 -78.015076143681142 $477 78.015076143681142 $361 $480 forward 7 unknown #
coedge $-1 $374 $373 $243 $367 forward $375 $-1 #
edge $-1 $369 -78.015076143681142 $481 78.015076143681142 $366 $482 forward 7 unknown #
vertex $-1 $245 $483 #
vertex $-1 $367 $484 #
straight-curve $-1 78.015076143681142 13.961300794942247 -2.5738895862334363 0 1 0 I I #
coedge $-1 $485 $362 $246 $372 forward $359 $-1 #
edge $-1 $379 4.3137159615331946 $376 23.608885628351302 $371 $486 forward 7 unknown #
coedge $-1 $366 $247 $252 $382 forward $375 $-1 #
coedge $-1 $247 $366 $485 $487 reversed $375 $-1 #
loop $-1 $-1 $247 $358 #
vertex $-1 $487 $488 #
straight-curve $-1 0 37.570186423293549 3.7039119595615606 1 0 0 I I #
coedge $-1 $249 $361 $251 $381 reversed $142 $-1 #
vertex $-1 $372 $489 #
straight-curve $-1 0 18.275016756475441 3.7039119595615606 1 0 0 I I #
edge $-1 $254 -3.4214063662295295 $368 2.8563951795654674 $251 $490 forward 7 unknown #
edge $-1 $253 -3.7039119595615606 $369 2.5738895862334363 $252 $491 forward 7 unknown #
point $-1 78.015076143681142 37.570186423293549 3.7039119595615606 #
point $-1 78.015076143681142 18.275016756475441 3.7039119595615606 #
loop $-1 $-1 $264 $256 #
plane-surface $-1 0 0 18.227508395897768 0 0 1 1 0 0 forward_v I I I I #
coedge $-1 $388 $259 $261 $392 reversed $150 $-1 #
coedge $-1 $259 $387 $492 $493 reversed $150 $-1 #
coedge $-1 $267 $262 $259 $390 forward $257 $-1 #
edge $-1 $393 -55.767622717869315 $494 -48.958305834383637 $389 $495 forward 7 unknown #
coedge $-1 $261 $260 $396 $496 reversed $93 $-1 #
edge $-1 $497 -11.060163857892213 $393 1.7760113164789269e-014 $387 $498 forward 7 unknown #
vertex $-1 $263 $499 #
straight-curve $-1 -78.015076143681142 -6.6593406362150667 11.418191512412106 0 -1 0 I I #
coedge $-1 $492 $264 $267 $400 forward $385 $-1 #
coedge $-1 $264 $492 $391 $496 forward $385 $-1 #
vertex $-1 $265 $500 #
straight-curve $-1 -87.038415550433939 -8.3623457883848236 18.227508395897772 -1 0 0 I I #
straight-curve $-1 -78.015076143681128 -8.3623457883848236 11.418191512412108 0.78801074757464917 0 0.61566148304635926 I I #
edge $-1 $268 8.3623457883848236 $494 18.275016756475445 $267 $501 forward 7 unknown #
point $-1 -78.015076143681142 -8.3623457883848236 18.227508395897768 #
point $-1 -78.015076143681142 -8.3623457883848236 11.418191512412097 #
edge $-1 $502 1 $502 0 $271 $-1 forward 7 unknown #
vertex $-1 $272 $503 #
ellipse-curve $-1 -71.438285308567131 -15.442825051306695 11.98262517587005 -0.61566148304635926 0 0.78801074757464917 0.78801074757464917 0 0.61566148304635926 1 I I #
point $-1 -72.869301401128638 -15.442825051306695 15.438511437201308 #
edge $-1 $504 1 $504 0 $275 $-1 forward 7 unknown #
vertex $-1 $276 $505 #
ellipse-curve $-1 -71.438285308567131 -11.194537493553572 11.98262517587005 -0.61566148304635926 0 0.78801074757464917 0.78801074757464917 0 0.61566148304635926 1 I I #
point $-1 -72.869301401128638 -11.194537493553572 15.438511437201308 #
plane-surface $-1 78.015076143681142 0 0 -1 0 0 0 0 1 forward_v I I I I #
coedge $-1 $422 $421 $414 $506 forward $280 $-1 #
coedge $-1 $414 $282 $284 $418 reversed $172 $-1 #
coedge $-1 $282 $413 $412 $506 reversed $172 $-1 #
coedge $-1 $290 $285 $282 $416 forward $291 $-1 #
edge $-1 $419 -110.12497901783843 $507 -92.173050091491305 $415 $508 forward 7 unknown #
coedge $-1 $284 $283 $422 $509 reversed $107 $-1 #
edge $-1 $510 129.70761287353227 $419 156.03015228736234 $413 $511 forward 7 unknown #
vertex $-1 $286 $512 #
straight-curve $-1 78.015076143681142 -2.8857577890616746 0.27557946955064949 0 1 0 I I #
coedge $-1 $412 $287 $290 $426 forward $280 $-1 #
coedge $-1 $287 $412 $417 $509 forward $280 $-1 #
vertex $-1 $288 $513 #
straight-curve $-1 35.157078564669789 -10.582917680518181 18.227508395897772 1 0 0 I I #
straight-curve $-1 -36.098152116103392 -10.582917680518181 106.68788871499365 -0.7313536940579346 0 0.68199836817093118 I I #
edge $-1 $292 -10.582917680518181 $507 -0.96011347572851768 $290 $514 forward 7 unknown #
point $-1 78.015076143681142 -10.582917680518181 18.227508395897768 #
point $-1 78.015076143681156 -10.582917680518181 0.27557946955064949 #
edge $-1 $515 1 $515 0 $295 $-1 forward 7 unknown #
vertex $-1 $296 $516 #
ellipse-curve $-1 67.707534556865127 -8.6583568395602484 8.5201902386663075 0.68199836817093118 0 0.7313536940579346 0.3656768470289673 0 -0.34099918408546559 1 I I #
point $-1 68.755209772065029 -8.6583568395602484 8.9105447486387757 #
edge $-1 $517 1 $517 0 $299 $-1 forward 7 unknown #
vertex $-1 $300 $518 #
ellipse-curve $-1 67.707534556865127 -5.7715155781233491 8.5201902386663075 0.68199836817093118 0 0.7313536940579346 0.3656768470289673 0 -0.34099918408546559 1 I I #
point $-1 68.755209772065029 -5.7715155781233491 8.9105447486387757 #
edge $-1 $519 1 $519 0 $303 $-1 forward 7 unknown #
vertex $-1 $304 $520 #
ellipse-curve $-1 67.707534556865127 -2.8846743166864499 8.5201902386663075 0.68199836817093118 0 0.7313536940579346 0.3656768470289673 0 -0.34099918408546559 1 I I #
point $-1 68.755209772065029 -2.8846743166864499 8.9105447486387757 #
plane-surface $-1 78.015076143681142 0 0 -1 0 0 0 0 1 forward_v I I I I #
coedge $-1 $312 $310 $314 $446 reversed $201 $-1 #
edge $-1 $325 -18.227508395897768 $448 18.227508395897768 $324 $521 forward 7 unknown #
vertex $-1 $446 $522 #
straight-curve $-1 -78.015076143681142 -37.570186423293549 0 0 0 -1 I I #
edge $-1 $444 -37.570186423293549 $448 37.570186423293549 $442 $523 forward 7 unknown #
straight-curve $-1 0 -37.570186423293549 -18.227508395897768 -1 0 0 I I #
vertex $-1 $317 $524 #
straight-curve $-1 0 37.570186423293549 -18.227508395897768 1 0 0 I I #
point $-1 78.015076143681142 37.570186423293549 -18.227508395897768 #
point $-1 78.015076143681142 -37.570186423293549 -18.227508395897768 #
straight-curve $-1 -78.015076143681142 0 18.227508395897768 0 -1 0 I I #
point $-1 -78.015076143681142 37.570186423293549 18.227508395897768 #
point $-1 -78.015076143681142 -37.570186423293549 18.227508395897768 #
straight-curve $-1 78.015076143681142 -37.570186423293549 0 0 0 -1 I I #
straight-curve $-1 78.015076143681142 37.570186423293549 0 0 0 -1 I I #
plane-surface $-1 78.015076143681142 0 0 -1 0 0 0 0 1 forward_v I I I I #
coedge $-1 $461 $337 $348 $470 forward $220 $-1 #
coedge $-1 $337 $461 $351 $472 reversed $220 $-1 #
straight-curve $-1 78.015076143681142 -18.275016756475445 0.28250559333203107 0 0 1 I I #
coedge $-1 $459 $458 $340 $462 forward $220 $-1 #
edge $-1 $465 4.3137159615331964 $463 23.608885628351302 $461 $525 forward 7 unknown #
vertex $-1 $342 $526 #
straight-curve $-1 0 -37.570186423293549 -2.5738895862334363 1 0 0 I I #
vertex $-1 $462 $527 #
straight-curve $-1 0 -18.275016756475445 -2.5738895862334363 1 0 0 I I #
point $-1 78.015076143681142 -37.570186423293549 -2.5738895862334363 #
point $-1 78.015076143681142 -18.275016756475445 -2.5738895862334363 #
straight-curve $-1 -78.015076143681142 -13.961300794942249 3.7039119595615606 0 1 0 I I #
edge $-1 $349 -3.4214063662295295 $465 2.8563951795654674 $458 $528 forward 7 unknown #
point $-1 -78.015076143681142 -18.275016756475445 3.7039119595615606 #
edge $-1 $353 -3.7039119595615606 $463 2.5738895862334363 $459 $529 forward 7 unknown #
point $-1 -78.015076143681142 -37.570186423293549 3.7039119595615606 #
straight-curve $-1 78.015076143681142 -37.570186423293549 0 0 0 -1 I I #
plane-surface $-1 0 37.570186423293549 0 0 -1 0 0 0 -1 forward_v I I I I #
coedge $-1 $362 $485 $364 $479 forward $359 $-1 #
vertex $-1 $479 $530 #
straight-curve $-1 -78.015076143681142 18.275016756475441 0.28250559333203107 0 0 1 I I #
edge $-1 $481 -23.608885628351302 $477 -4.3137159615331946 $476 $531 forward 7 unknown #
straight-curve $-1 0 18.275016756475441 -2.5738895862334363 -1 0 0 I I #
vertex $-1 $367 $532 #
straight-curve $-1 0 37.570186423293549 -2.5738895862334363 -1 0 0 I I #
point $-1 78.015076143681142 18.275016756475441 -2.5738895862334363 #
point $-1 78.015076143681142 37.570186423293549 -2.5738895862334363 #
coedge $-1 $476 $371 $374 $487 forward $359 $-1 #
straight-curve $-1 -78.015076143681142 13.961300794942247 3.7039119595615606 0 1 0 I I #
edge $-1 $376 -3.7039119595615606 $481 2.5738895862334363 $374 $533 forward 7 unknown #
point $-1 -78.015076143681142 37.570186423293549 3.7039119595615606 #
point $-1 -78.015076143681142 18.275016756475441 3.7039119595615606 #
straight-curve $-1 78.015076143681142 18.275016756475441 0.28250559333203107 0 0 -1 I I #
straight-curve $-1 78.015076143681142 37.570186423293549 0 0 0 -1 I I #
coedge $-1 $396 $395 $388 $493 forward $385 $-1 #
edge $-1 $494 9.0233394067527968 $497 17.738867396708571 $492 $534 forward 7 unknown #
vertex $-1 $493 $535 #
straight-curve $-1 -78.015076143681142 -18.275016756475445 67.185814230281409 0 0 1 I I #
edge $-1 $497 -11.615676120260378 $397 -1.7030051521697569 $396 $536 forward 7 unknown #
vertex $-1 $496 $537 #
straight-curve $-1 -78.015076143681128 -18.275016756475445 11.418191512412108 -0.78801074757464917 0 -0.61566148304635926 I I #
point $-1 -78.015076143681142 -18.275016756475445 11.418191512412097 #
point $-1 -69.299548153725368 -8.3623457883848236 18.227508395897768 #
straight-curve $-1 -78.015076143681142 0 18.227508395897768 0 -1 0 I I #
vertex $-1 $403 $538 #
point $-1 -70.650274560992486 -15.442825051306695 12.598286658916409 #
vertex $-1 $407 $539 #
point $-1 -70.650274560992486 -11.194537493553572 12.598286658916409 #
edge $-1 $507 -42.857997579011354 $510 -23.606911141721156 $412 $540 forward 7 unknown #
vertex $-1 $416 $541 #
straight-curve $-1 78.015076143681142 -0.96011347572851768 110.40055848738908 0 0 1 I I #
edge $-1 $510 -1.9256443133331569 $423 7.697159891456506 $422 $542 forward 7 unknown #
vertex $-1 $509 $543 #
straight-curve $-1 -36.098152116103392 -0.96011347572851768 106.68788871499365 0.7313536940579346 0 -0.68199836817093118 I I #
point $-1 78.015076143681156 -0.96011347572851768 0.27557946955064949 #
point $-1 58.763989706390944 -10.582917680518181 18.227508395897772 #
straight-curve $-1 78.015076143681142 0 18.227508395897768 0 1 0 I I #
vertex $-1 $429 $544 #
point $-1 68.073211403894092 -8.6583568395602484 8.1791910545808406 #
vertex $-1 $433 $545 #
point $-1 68.073211403894092 -5.7715155781233491 8.1791910545808406 #
vertex $-1 $437 $546 #
point $-1 68.073211403894092 -2.8846743166864499 8.1791910545808406 #
straight-curve $-1 -78.015076143681142 37.570186423293549 0 0 0 -1 I I #
point $-1 -78.015076143681142 -37.570186423293549 -18.227508395897768 #
straight-curve $-1 -78.015076143681142 0 -18.227508395897768 0 1 0 I I #
point $-1 -78.015076143681142 37.570186423293549 -18.227508395897768 #
straight-curve $-1 -78.015076143681142 -13.961300794942249 -2.5738895862334363 0 -1 0 I I #
point $-1 -78.015076143681142 -37.570186423293549 -2.5738895862334363 #
point $-1 -78.015076143681142 -18.275016756475445 -2.5738895862334363 #
straight-curve $-1 -78.015076143681142 -18.275016756475445 0.28250559333203107 0 0 -1 I I #
straight-curve $-1 -78.015076143681142 -37.570186423293549 0 0 0 -1 I I #
point $-1 -78.015076143681142 18.275016756475441 -2.5738895862334363 #
straight-curve $-1 -78.015076143681142 13.961300794942247 -2.5738895862334363 0 -1 0 I I #
point $-1 -78.015076143681142 37.570186423293549 -2.5738895862334363 #
straight-curve $-1 -78.015076143681142 37.570186423293549 0 0 0 -1 I I #
straight-curve $-1 -87.038415550433939 -18.275016756475445 18.227508395897772 1 0 0 I I #
point $-1 -78.015076143681142 -18.275016756475445 18.227508395897768 #
straight-curve $-1 -69.299548153725368 -6.6593406362150667 18.227508395897768 0 1 0 I I #
point $-1 -69.299548153725368 -18.275016756475445 18.227508395897768 #
point $-1 -70.822623825520779 -15.442825051306695 11.194614428295401 #
point $-1 -70.822623825520779 -11.194537493553572 11.194614428295401 #
straight-curve $-1 35.157078564669789 -0.96011347572851768 18.227508395897772 -1 0 0 I I #
point $-1 78.015076143681142 -0.96011347572851768 18.227508395897768 #
straight-curve $-1 58.763989706390937 -2.8857577890616746 18.227508395897772 0 -1 0 I I #
point $-1 58.763989706390944 -0.96011347572851768 18.227508395897772 #
point $-1 67.366535372779666 -8.6583568395602484 8.1545133916373391 #
point $-1 67.366535372779666 -5.7715155781233491 8.1545133916373391 #
point $-1 67.366535372779666 -2.8846743166864499 8.1545133916373391 #
End-of-ACIS-data 