500 0 10 0           
7 Unknown 11 ACIS 5.0 NT 24 Thu Mar 25 23:40:45 1999 
-1 9.9999999999999995e-007 1e-010 
body $-1 $10 $-1 $11 #
body $-1 $12 $-1 $13 #
body $-1 $14 $-1 $15 #
body $-1 $16 $-1 $17 #
body $-1 $18 $-1 $19 #
body $-1 $20 $-1 $21 #
body $-1 $22 $-1 $23 #
body $-1 $24 $-1 $25 #
body $-1 $26 $-1 $27 #
body $-1 $28 $-1 $29 #
lump $-1 $-1 $30 $0 #
transform $-1 1 0 0 0 1 0 0 0 1 44.610736411633653 28.693170390018736 12.015106385126714 1 rotate no_reflect no_shear #
lump $-1 $-1 $31 $1 #
transform $-1 1 0 0 0 1 0 0 0 1 44.610736411633653 28.693170390018736 12.015106385126714 1 rotate no_reflect no_shear #
lump $-1 $-1 $32 $2 #
transform $-1 1 0 0 0 1 0 0 0 1 44.610736411633653 28.693170390018736 12.015106385126714 1 rotate no_reflect no_shear #
lump $-1 $-1 $33 $3 #
transform $-1 1 0 0 0 1 0 0 0 1 44.610736411633653 28.693170390018736 12.015106385126714 1 rotate no_reflect no_shear #
lump $-1 $-1 $34 $4 #
transform $-1 1 0 0 0 1 0 0 0 1 44.610736411633653 28.693170390018736 12.015106385126714 1 rotate no_reflect no_shear #
lump $-1 $-1 $35 $5 #
transform $-1 1 0 0 0 1 0 0 0 1 44.610736411633653 28.693170390018736 12.015106385126714 1 rotate no_reflect no_shear #
lump $-1 $-1 $36 $6 #
transform $-1 1 0 0 0 1 0 0 0 1 44.610736411633653 28.693170390018736 12.015106385126714 1 rotate no_reflect no_shear #
lump $-1 $-1 $37 $7 #
transform $-1 1 0 0 0 1 0 0 0 1 44.610736411633653 28.693170390018736 12.015106385126714 1 rotate no_reflect no_shear #
lump $-1 $-1 $38 $8 #
transform $-1 1 0 0 0 1 0 0 0 1 44.610736411633653 28.693170390018736 12.015106385126714 1 rotate no_reflect no_shear #
lump $-1 $-1 $39 $9 #
transform $-1 1 0 0 0 1 0 0 0 1 44.610736411633653 28.693170390018736 12.015106385126714 1 rotate no_reflect no_shear #
shell $-1 $-1 $-1 $40 $-1 $10 #
shell $-1 $-1 $-1 $41 $-1 $12 #
shell $-1 $-1 $-1 $42 $-1 $14 #
shell $-1 $-1 $-1 $43 $-1 $16 #
shell $-1 $-1 $-1 $44 $-1 $18 #
shell $-1 $-1 $-1 $45 $-1 $20 #
shell $-1 $-1 $-1 $46 $-1 $22 #
shell $-1 $-1 $-1 $47 $-1 $24 #
shell $-1 $-1 $-1 $48 $-1 $26 #
shell $-1 $-1 $-1 $49 $-1 $28 #
face $-1 $50 $51 $30 $-1 $52 forward single #
face $-1 $53 $54 $31 $-1 $55 forward single #
face $-1 $56 $57 $32 $-1 $58 forward single #
face $-1 $59 $60 $33 $-1 $61 reversed single #
face $-1 $62 $63 $34 $-1 $64 forward single #
face $-1 $65 $66 $35 $-1 $67 forward single #
face $-1 $68 $69 $36 $-1 $70 forward single #
face $-1 $71 $72 $37 $-1 $73 reversed single #
face $-1 $74 $75 $38 $-1 $76 forward single #
face $-1 $77 $78 $39 $-1 $79 forward single #
face $-1 $80 $81 $30 $-1 $82 reversed single #
loop $-1 $-1 $83 $40 #
plane-surface $-1 0 0 12.015106385126714 0 0 1 1 0 0 forward_v I I I I #
face $-1 $84 $85 $31 $-1 $86 reversed single #
loop $-1 $-1 $87 $41 #
plane-surface $-1 0 -24.408125905862867 -5.3766353573304091 0 0 1 1 0 0 forward_v I I I I #
face $-1 $88 $89 $32 $-1 $90 reversed single #
loop $-1 $-1 $91 $42 #
plane-surface $-1 0 24.408125905862867 -5.3766353573304091 0 0 1 1 0 0 forward_v I I I I #
face $-1 $92 $93 $33 $-1 $94 reversed single #
loop $-1 $-1 $95 $43 #
plane-surface $-1 -112.95835061413476 -12.046254048151802 63.694348790778221 0 -1 0 0.7660444514056185 0 -0.64278759981090561 forward_v I I I I #
face $-1 $96 $97 $34 $-1 $98 forward single #
loop $-1 $99 $100 $44 #
cone-surface $-1 -41.638026642895014 -18.507715946995958 8.681617084101342 0.7660444514056185 0 -0.64278759981090561 0.3213937999054528 0 0.38302222570280925 1 I I 0 1 0.5 forward I I I I #
face $-1 $101 $102 $35 $-1 $103 forward single #
loop $-1 $104 $105 $45 #
cone-surface $-1 -41.638026642895014 -16.0846677349294 8.681617084101342 0.7660444514056185 0 -0.64278759981090561 0.3213937999054528 0 0.38302222570280925 1 I I 0 1 0.5 forward I I I I #
face $-1 $106 $107 $36 $-1 $108 forward single #
loop $-1 $109 $110 $46 #
cone-surface $-1 -41.638026642895014 -13.661619522862843 8.681617084101342 0.7660444514056185 0 -0.64278759981090561 0.3213937999054528 0 0.38302222570280925 1 I I 0 1 0.5 forward I I I I #
face $-1 $111 $112 $37 $-1 $113 reversed single #
loop $-1 $-1 $114 $47 #
plane-surface $-1 79.39016839324006 -20.123081421706996 121.83338814292371 0 1 0 0.87461971476443456 0 0.48480960649040278 forward_v I I I I #
face $-1 $115 $116 $38 $-1 $117 forward single #
loop $-1 $118 $119 $48 #
cone-surface $-1 40.993635116453873 -17.704038685441915 6.0365476844520831 -0.87461971476443456 0 -0.48480960649040278 0.24240480324520139 0 -0.43730985738221728 1 I I 0 1 0.5 forward I I I I #
face $-1 $120 $121 $39 $-1 $122 forward single #
loop $-1 $123 $124 $49 #
cone-surface $-1 40.993635116453873 -14.075474581044286 6.0365476844520831 -0.87461971476443456 0 -0.48480960649040278 0.24240480324520139 0 -0.43730985738221728 1 I I 0 1 0.5 forward I I I I #
face $-1 $125 $126 $30 $-1 $127 reversed single #
loop $-1 $-1 $128 $50 #
plane-surface $-1 0 0 -12.015106385126714 0 0 1 1 0 0 forward_v I I I I #
coedge $-1 $129 $130 $131 $132 forward $51 $-1 #
face $-1 $133 $134 $31 $-1 $135 reversed single #
loop $-1 $-1 $136 $53 #
plane-surface $-1 0 -24.408125905862867 -9.4203436673343877 0 0 1 1 0 0 forward_v I I I I #
coedge $-1 $137 $138 $139 $140 reversed $54 $-1 #
face $-1 $141 $142 $32 $-1 $143 reversed single #
loop $-1 $-1 $144 $56 #
plane-surface $-1 0 24.408125905862867 -9.4203436673343877 0 0 1 1 0 0 forward_v I I I I #
coedge $-1 $145 $146 $147 $148 reversed $57 $-1 #
face $-1 $149 $150 $33 $-1 $151 reversed single #
loop $-1 $-1 $152 $59 #
plane-surface $-1 -44.610736411633653 -16.0846677349294 6.3438924231162872 -0.7660444514056185 0 0.64278759981090561 0.64278759981090561 0 0.7660444514056185 forward_v I I I I #
coedge $-1 $153 $154 $155 $156 reversed $60 $-1 #
face $-1 $-1 $157 $34 $-1 $158 forward single #
loop $-1 $159 $160 $62 #
cone-surface $-1 -40.853162470935743 -18.507715946995958 8.023037864128451 0.7660444514056185 0 -0.64278759981090561 0.1606968999527264 0 0.19151111285140462 1 I I -0.70710678118654746 0.70710678118654746 0.25 forward I I I I #
loop $-1 $-1 $161 $44 #
coedge $-1 $100 $100 $162 $163 reversed $63 $-1 #
face $-1 $-1 $164 $35 $-1 $165 forward single #
loop $-1 $166 $167 $65 #
cone-surface $-1 -40.853162470935743 -16.0846677349294 8.023037864128451 0.7660444514056185 0 -0.64278759981090561 0.1606968999527264 0 0.19151111285140462 1 I I -0.70710678118654746 0.70710678118654746 0.25 forward I I I I #
loop $-1 $-1 $168 $45 #
coedge $-1 $105 $105 $169 $170 reversed $66 $-1 #
face $-1 $-1 $171 $36 $-1 $172 forward single #
loop $-1 $173 $174 $68 #
cone-surface $-1 -40.853162470935743 -13.661619522862843 8.023037864128451 0.7660444514056185 0 -0.64278759981090561 0.1606968999527264 0 0.19151111285140462 1 I I -0.70710678118654746 0.70710678118654746 0.25 forward I I I I #
loop $-1 $-1 $175 $46 #
coedge $-1 $110 $110 $176 $177 reversed $69 $-1 #
face $-1 $178 $179 $37 $-1 $180 reversed single #
loop $-1 $-1 $181 $71 #
plane-surface $-1 1.3553092816912624 -15.889756633243099 78.577961012981319 0.87461971476443456 0 0.48480960649040278 0.48480960649040278 0 -0.87461971476443456 forward_v I I I I #
coedge $-1 $182 $183 $184 $185 reversed $72 $-1 #
face $-1 $-1 $186 $38 $-1 $187 forward single #
loop $-1 $188 $189 $74 #
cone-surface $-1 40.337396736457507 -17.704038685441915 5.6727888240019411 -0.87461971476443456 0 -0.48480960649040278 0.12120240162260069 0 -0.21865492869110864 1 I I -0.70710678118654746 0.70710678118654746 0.25 forward I I I I #
loop $-1 $-1 $190 $48 #
coedge $-1 $119 $119 $191 $192 reversed $75 $-1 #
face $-1 $-1 $193 $39 $-1 $194 forward single #
loop $-1 $195 $196 $77 #
cone-surface $-1 40.337396736457507 -14.075474581044286 5.6727888240019411 -0.87461971476443456 0 -0.48480960649040278 0.12120240162260069 0 -0.21865492869110864 1 I I -0.70710678118654746 0.70710678118654746 0.25 forward I I I I #
loop $-1 $-1 $197 $49 #
coedge $-1 $124 $124 $198 $199 reversed $78 $-1 #
face $-1 $200 $201 $30 $-1 $202 reversed single #
loop $-1 $-1 $203 $80 #
plane-surface $-1 0 -28.693170390018736 0 0 1 0 0 0 1 forward_v I I I I #
coedge $-1 $204 $205 $206 $207 forward $81 $-1 #
coedge $-1 $208 $83 $209 $210 forward $51 $-1 #
coedge $-1 $83 $208 $211 $212 forward $51 $-1 #
coedge $-1 $213 $214 $83 $132 reversed $215 $-1 #
edge $-1 $216 -28.693170390018736 $217 28.693170390018736 $131 $218 forward 7 unknown #
face $-1 $219 $220 $31 $-1 $221 reversed single #
loop $-1 $-1 $222 $84 #
plane-surface $-1 0 -20.123081421706999 -7.3984895123323984 0 -1 0 0 0 -1 forward_v I I I I #
coedge $-1 $223 $224 $225 $226 reversed $85 $-1 #
coedge $-1 $227 $87 $228 $229 forward $54 $-1 #
coedge $-1 $87 $227 $230 $231 reversed $54 $-1 #
coedge $-1 $232 $233 $87 $140 forward $234 $-1 #
edge $-1 $235 7.9190184687755654 $236 16.489107437087302 $139 $237 forward 7 unknown #
face $-1 $238 $239 $32 $-1 $240 reversed single #
loop $-1 $-1 $241 $88 #
plane-surface $-1 0 20.123081421706999 -7.3984895123323984 0 1 0 0 0 1 forward_v I I I I #
coedge $-1 $242 $243 $244 $245 reversed $89 $-1 #
coedge $-1 $246 $91 $247 $248 reversed $57 $-1 #
coedge $-1 $91 $246 $249 $250 forward $57 $-1 #
coedge $-1 $251 $252 $91 $148 forward $239 $-1 #
edge $-1 $253 -16.489107437087302 $254 -7.9190184687755654 $147 $255 forward 7 unknown #
face $-1 $256 $257 $33 $-1 $258 reversed single #
loop $-1 $-1 $259 $92 #
plane-surface $-1 -112.95835061413476 -20.123081421706999 63.694348790778221 0 1 0 -0.7660444514056185 0 0.64278759981090561 forward_v I I I I #
coedge $-1 $260 $261 $262 $263 reversed $93 $-1 #
coedge $-1 $154 $95 $264 $265 reversed $60 $-1 #
coedge $-1 $95 $153 $260 $266 reversed $60 $-1 #
coedge $-1 $262 $267 $95 $156 forward $257 $-1 #
edge $-1 $268 19.832068010262397 $269 25.503281972272823 $155 $270 forward 7 unknown #
loop $-1 $-1 $162 $96 #
plane-surface $-1 -44.610736411633653 -16.0846677349294 6.3438924231162872 -0.7660444514056185 0 0.64278759981090561 0.64278759981090561 0 0.7660444514056185 forward_v I I I I #
loop $-1 $-1 $271 $62 #
coedge $-1 $160 $160 $161 $272 reversed $97 $-1 #
coedge $-1 $161 $161 $160 $272 forward $99 $-1 #
coedge $-1 $162 $162 $100 $163 forward $157 $-1 #
edge $-1 $273 0 $273 6.2831853071796004 $162 $274 forward 7 unknown #
loop $-1 $-1 $169 $101 #
plane-surface $-1 -44.610736411633653 -16.0846677349294 6.3438924231162872 -0.7660444514056185 0 0.64278759981090561 0.64278759981090561 0 0.7660444514056185 forward_v I I I I #
loop $-1 $-1 $275 $65 #
coedge $-1 $167 $167 $168 $276 reversed $102 $-1 #
coedge $-1 $168 $168 $167 $276 forward $104 $-1 #
coedge $-1 $169 $169 $105 $170 forward $164 $-1 #
edge $-1 $277 0 $277 6.2831853071796004 $169 $278 forward 7 unknown #
loop $-1 $-1 $176 $106 #
plane-surface $-1 -44.610736411633653 -16.0846677349294 6.3438924231162872 -0.7660444514056185 0 0.64278759981090561 0.64278759981090561 0 0.7660444514056185 forward_v I I I I #
loop $-1 $-1 $279 $68 #
coedge $-1 $174 $174 $175 $280 reversed $107 $-1 #
coedge $-1 $175 $175 $174 $280 forward $109 $-1 #
coedge $-1 $176 $176 $110 $177 forward $171 $-1 #
edge $-1 $281 0 $281 6.2831853071796004 $176 $282 forward 7 unknown #
face $-1 $283 $284 $37 $-1 $285 forward single #
loop $-1 $-1 $286 $111 #
plane-surface $-1 79.39016839324006 -11.656431844779203 121.83338814292371 0 -1 0 -0.87461971476443456 0 -0.48480960649040278 forward_v I I I I #
coedge $-1 $287 $288 $289 $290 reversed $112 $-1 #
coedge $-1 $183 $114 $291 $292 reversed $72 $-1 #
coedge $-1 $114 $182 $287 $293 reversed $72 $-1 #
coedge $-1 $289 $294 $114 $185 forward $295 $-1 #
edge $-1 $296 48.901587686335141 $297 60.373592170029333 $184 $298 forward 7 unknown #
loop $-1 $-1 $191 $115 #
plane-surface $-1 1.3553092816912624 -15.889756633243099 78.577961012981319 0.87461971476443456 0 0.48480960649040278 0.48480960649040278 0 -0.87461971476443456 forward_v I I I I #
loop $-1 $-1 $299 $74 #
coedge $-1 $189 $189 $190 $300 reversed $116 $-1 #
coedge $-1 $190 $190 $189 $300 forward $118 $-1 #
coedge $-1 $191 $191 $119 $192 forward $186 $-1 #
edge $-1 $301 0 $301 6.2831853071796004 $191 $302 forward 7 unknown #
loop $-1 $-1 $198 $120 #
plane-surface $-1 1.3553092816912624 -15.889756633243099 78.577961012981319 0.87461971476443456 0 0.48480960649040278 0.48480960649040278 0 -0.87461971476443456 forward_v I I I I #
loop $-1 $-1 $303 $77 #
coedge $-1 $196 $196 $197 $304 reversed $121 $-1 #
coedge $-1 $197 $197 $196 $304 forward $123 $-1 #
coedge $-1 $198 $198 $124 $199 forward $193 $-1 #
edge $-1 $305 0 $305 6.2831853071796004 $198 $306 forward 7 unknown #
face $-1 $307 $308 $30 $-1 $309 reversed single #
loop $-1 $-1 $310 $125 #
plane-surface $-1 -44.610736411633653 0 0 1 0 0 0 0 -1 forward_v I I I I #
coedge $-1 $311 $211 $312 $313 forward $126 $-1 #
coedge $-1 $314 $128 $311 $315 forward $81 $-1 #
coedge $-1 $128 $314 $316 $317 forward $81 $-1 #
coedge $-1 $214 $213 $128 $207 reversed $215 $-1 #
edge $-1 $318 -28.693170390018736 $319 28.693170390018736 $206 $320 forward 7 unknown #
coedge $-1 $130 $129 $321 $322 forward $51 $-1 #
coedge $-1 $323 $324 $129 $210 reversed $308 $-1 #
edge $-1 $217 -44.610736411633653 $325 44.610736411633653 $209 $326 forward 7 unknown #
coedge $-1 $203 $327 $130 $212 reversed $126 $-1 #
edge $-1 $328 -44.610736411633653 $216 44.610736411633653 $211 $329 forward 7 unknown #
coedge $-1 $206 $131 $327 $330 forward $215 $-1 #
coedge $-1 $131 $206 $323 $331 reversed $215 $-1 #
loop $-1 $-1 $213 $307 #
vertex $-1 $132 $332 #
vertex $-1 $132 $333 #
straight-curve $-1 44.610736411633653 0 12.015106385126714 0 1 0 I I #
face $-1 $334 $335 $31 $-1 $336 reversed single #
loop $-1 $-1 $337 $133 #
plane-surface $-1 -44.610736411633653 0 0 1 0 0 0 0 -1 forward_v I I I I #
coedge $-1 $338 $228 $233 $339 reversed $134 $-1 #
coedge $-1 $340 $136 $341 $342 reversed $85 $-1 #
coedge $-1 $136 $340 $338 $343 forward $85 $-1 #
coedge $-1 $233 $232 $136 $226 forward $234 $-1 #
edge $-1 $344 -16.489107437087302 $345 -7.9190184687755654 $225 $346 forward 7 unknown #
coedge $-1 $138 $137 $337 $347 reversed $54 $-1 #
coedge $-1 $222 $348 $137 $229 reversed $134 $-1 #
edge $-1 $235 -44.610736411633653 $349 44.610736411633653 $228 $350 forward 7 unknown #
coedge $-1 $351 $352 $138 $231 forward $335 $-1 #
edge $-1 $236 -44.610736411633653 $353 44.610736411633653 $230 $354 forward 7 unknown #
coedge $-1 $225 $139 $352 $355 forward $234 $-1 #
coedge $-1 $139 $225 $222 $339 forward $234 $-1 #
loop $-1 $-1 $139 $334 #
vertex $-1 $140 $356 #
vertex $-1 $355 $357 #
straight-curve $-1 44.610736411633653 -12.204062952931434 -5.3766353573304091 0 -1 0 I I #
face $-1 $358 $359 $32 $-1 $360 reversed single #
loop $-1 $-1 $147 $141 #
plane-surface $-1 44.610736411633653 0 0 -1 0 0 0 0 1 forward_v I I I I #
coedge $-1 $361 $249 $362 $363 reversed $142 $-1 #
coedge $-1 $364 $144 $361 $365 forward $89 $-1 #
coedge $-1 $144 $364 $366 $367 reversed $89 $-1 #
coedge $-1 $252 $251 $144 $245 forward $239 $-1 #
edge $-1 $368 7.9190184687755654 $369 16.489107437087302 $244 $370 forward 7 unknown #
coedge $-1 $146 $145 $371 $372 reversed $57 $-1 #
coedge $-1 $373 $374 $145 $248 forward $375 $-1 #
edge $-1 $376 -44.610736411633653 $253 44.610736411633653 $247 $377 forward 7 unknown #
coedge $-1 $241 $378 $146 $250 reversed $142 $-1 #
edge $-1 $379 -44.610736411633653 $254 44.610736411633653 $249 $380 forward 7 unknown #
coedge $-1 $244 $147 $378 $381 forward $239 $-1 #
coedge $-1 $147 $244 $373 $382 reversed $239 $-1 #
vertex $-1 $382 $383 #
vertex $-1 $148 $384 #
straight-curve $-1 44.610736411633653 12.204062952931434 -5.3766353573304091 0 -1 0 I I #
face $-1 $-1 $385 $33 $-1 $386 forward single #
loop $-1 $-1 $155 $149 #
plane-surface $-1 -44.610736411633653 0 0 1 0 0 0 0 -1 forward_v I I I I #
coedge $-1 $387 $388 $389 $390 reversed $150 $-1 #
coedge $-1 $391 $152 $154 $266 forward $93 $-1 #
coedge $-1 $152 $391 $387 $392 forward $93 $-1 #
coedge $-1 $389 $155 $152 $263 forward $257 $-1 #
edge $-1 $269 4.0039201806871016 $393 12.080747554242299 $262 $394 forward 7 unknown #
coedge $-1 $395 $396 $153 $265 forward $385 $-1 #
edge $-1 $397 -16.627152314695287 $268 -11.868438895433727 $264 $398 forward 7 unknown #
edge $-1 $269 0 $397 7.4032439652872499 $154 $399 forward 7 unknown #
coedge $-1 $155 $389 $395 $400 reversed $257 $-1 #
vertex $-1 $400 $401 #
vertex $-1 $156 $402 #
straight-curve $-1 -44.610736411633653 -12.046254048151802 31.847174395389111 0 0 -1 I I #
coedge $-1 $271 $271 $-1 $403 reversed $159 $-1 #
edge $-1 $404 0 $404 6.2831853071796004 $160 $405 forward 7 unknown #
vertex $-1 $163 $406 #
ellipse-curve $-1 -42.231379702002869 -18.507715946995958 9.1794994041215006 -0.7660444514056185 0 0.64278759981090561 0.3213937999054528 0 0.38302222570280925 1 I I #
coedge $-1 $275 $275 $-1 $407 reversed $166 $-1 #
edge $-1 $408 0 $408 6.2831853071796004 $167 $409 forward 7 unknown #
vertex $-1 $170 $410 #
ellipse-curve $-1 -42.231379702002869 -16.0846677349294 9.1794994041215006 -0.7660444514056185 0 0.64278759981090561 0.3213937999054528 0 0.38302222570280925 1 I I #
coedge $-1 $279 $279 $-1 $411 reversed $173 $-1 #
edge $-1 $412 0 $412 6.2831853071796004 $174 $413 forward 7 unknown #
vertex $-1 $177 $414 #
ellipse-curve $-1 -42.231379702002869 -13.661619522862843 9.1794994041215006 -0.7660444514056185 0 0.64278759981090561 0.3213937999054528 0 0.38302222570280925 1 I I #
face $-1 $-1 $295 $37 $-1 $415 reversed single #
loop $-1 $-1 $416 $178 #
plane-surface $-1 0 0 12.015106385126714 0 0 1 1 0 0 forward_v I I I I #
coedge $-1 $417 $418 $419 $420 reversed $179 $-1 #
coedge $-1 $421 $181 $183 $293 forward $112 $-1 #
coedge $-1 $181 $421 $417 $422 forward $112 $-1 #
coedge $-1 $419 $184 $181 $290 forward $295 $-1 #
edge $-1 $297 -12.178203105085446 $423 -3.711553528157653 $289 $424 forward 7 unknown #
coedge $-1 $425 $426 $182 $292 forward $284 $-1 #
edge $-1 $427 -1.4433834727354125 $296 4.9156522150136226 $291 $428 forward 7 unknown #
edge $-1 $297 -89.221472823267305 $427 -76.104909944526341 $183 $429 forward 7 unknown #
coedge $-1 $184 $419 $425 $430 reversed $295 $-1 #
loop $-1 $-1 $419 $283 #
vertex $-1 $430 $431 #
vertex $-1 $185 $432 #
straight-curve $-1 44.610736411633653 -20.123081421706996 60.916694071461855 0 0 -1 I I #
coedge $-1 $299 $299 $-1 $433 reversed $188 $-1 #
edge $-1 $434 0 $434 6.2831853071796004 $189 $435 forward 7 unknown #
vertex $-1 $192 $436 #
ellipse-curve $-1 41.431218567759124 -17.704038685441915 6.2791041432796204 0.87461971476443456 0 0.48480960649040278 0.24240480324520139 0 -0.43730985738221728 1 I I #
coedge $-1 $303 $303 $-1 $437 reversed $195 $-1 #
edge $-1 $438 0 $438 6.2831853071796004 $196 $439 forward 7 unknown #
vertex $-1 $199 $440 #
ellipse-curve $-1 41.431218567759124 -14.075474581044286 6.2791041432796204 0.87461971476443456 0 0.48480960649040278 0.24240480324520139 0 -0.43730985738221728 1 I I #
face $-1 $-1 $215 $30 $-1 $441 reversed single #
loop $-1 $-1 $323 $200 #
plane-surface $-1 0 28.693170390018736 0 0 -1 0 0 0 -1 forward_v I I I I #
coedge $-1 $442 $321 $324 $443 forward $201 $-1 #
coedge $-1 $327 $203 $204 $315 reversed $126 $-1 #
coedge $-1 $321 $442 $203 $313 reversed $201 $-1 #
edge $-1 $328 -12.015106385126714 $444 12.015106385126714 $312 $445 forward 7 unknown #
coedge $-1 $205 $204 $442 $446 forward $81 $-1 #
edge $-1 $319 -44.610736411633653 $444 44.610736411633653 $311 $447 forward 7 unknown #
coedge $-1 $324 $323 $205 $317 reversed $308 $-1 #
edge $-1 $448 -44.610736411633653 $318 44.610736411633653 $316 $449 forward 7 unknown #
vertex $-1 $207 $450 #
vertex $-1 $330 $451 #
straight-curve $-1 44.610736411633653 0 -12.015106385126714 0 -1 0 I I #
coedge $-1 $310 $312 $208 $322 reversed $201 $-1 #
edge $-1 $325 -28.693170390018736 $328 28.693170390018736 $321 $452 forward 7 unknown #
coedge $-1 $316 $209 $214 $331 forward $308 $-1 #
coedge $-1 $209 $316 $310 $443 reversed $308 $-1 #
vertex $-1 $210 $453 #
straight-curve $-1 0 28.693170390018736 12.015106385126714 -1 0 0 I I #
coedge $-1 $211 $311 $213 $330 reversed $126 $-1 #
vertex $-1 $322 $454 #
straight-curve $-1 0 -28.693170390018736 12.015106385126714 1 0 0 I I #
edge $-1 $216 -12.015106385126714 $319 12.015106385126714 $213 $455 forward 7 unknown #
edge $-1 $217 -12.015106385126714 $318 12.015106385126714 $214 $456 forward 7 unknown #
point $-1 44.610736411633653 -28.693170390018736 12.015106385126714 #
point $-1 44.610736411633653 28.693170390018736 12.015106385126714 #
face $-1 $-1 $234 $31 $-1 $457 reversed single #
loop $-1 $-1 $230 $219 #
plane-surface $-1 0 -28.693170390018736 0 0 1 0 0 0 1 forward_v I I I I #
coedge $-1 $458 $459 $227 $347 forward $220 $-1 #
coedge $-1 $348 $222 $224 $343 reversed $134 $-1 #
edge $-1 $345 -5.7210989111681885 $235 -1.6773906011642099 $233 $460 forward 7 unknown #
coedge $-1 $224 $223 $461 $462 reversed $85 $-1 #
coedge $-1 $352 $351 $223 $342 forward $335 $-1 #
edge $-1 $463 -44.610736411633653 $344 44.610736411633653 $341 $464 forward 7 unknown #
edge $-1 $465 -44.610736411633653 $345 44.610736411633653 $338 $466 forward 7 unknown #
vertex $-1 $342 $467 #
vertex $-1 $226 $468 #
straight-curve $-1 44.610736411633653 -12.204062952931434 -9.4203436673343877 0 1 0 I I #
edge $-1 $353 -16.489107437087302 $349 -7.9190184687755654 $337 $469 forward 7 unknown #
coedge $-1 $228 $338 $458 $470 reversed $134 $-1 #
vertex $-1 $347 $471 #
straight-curve $-1 0 -20.123081421706999 -5.3766353573304091 -1 0 0 I I #
coedge $-1 $341 $230 $459 $472 forward $335 $-1 #
coedge $-1 $230 $341 $232 $355 reversed $335 $-1 #
vertex $-1 $472 $473 #
straight-curve $-1 0 -28.693170390018736 -5.3766353573304091 -1 0 0 I I #
edge $-1 $236 5.3766353573304091 $344 9.4203436673343877 $232 $474 forward 7 unknown #
point $-1 44.610736411633653 -20.123081421706999 -5.3766353573304091 #
point $-1 44.610736411633653 -28.693170390018736 -5.3766353573304091 #
face $-1 $-1 $375 $32 $-1 $475 reversed single #
loop $-1 $-1 $371 $238 #
plane-surface $-1 -44.610736411633653 0 0 1 0 0 0 0 -1 forward_v I I I I #
coedge $-1 $378 $241 $242 $365 reversed $142 $-1 #
coedge $-1 $371 $476 $241 $363 forward $359 $-1 #
edge $-1 $477 -5.7210989111681885 $379 -1.6773906011642099 $362 $478 forward 7 unknown #
coedge $-1 $243 $242 $476 $479 reversed $89 $-1 #
edge $-1 $368 -44.610736411633653 $477 44.610736411633653 $361 $480 forward 7 unknown #
coedge $-1 $374 $373 $243 $367 forward $375 $-1 #
edge $-1 $369 -44.610736411633653 $481 44.610736411633653 $366 $482 forward 7 unknown #
vertex $-1 $245 $483 #
vertex $-1 $367 $484 #
straight-curve $-1 44.610736411633653 12.204062952931434 -9.4203436673343877 0 1 0 I I #
coedge $-1 $485 $362 $246 $372 forward $359 $-1 #
edge $-1 $379 7.9190184687755654 $376 16.489107437087302 $371 $486 forward 7 unknown #
coedge $-1 $366 $247 $252 $382 forward $375 $-1 #
coedge $-1 $247 $366 $485 $487 reversed $375 $-1 #
loop $-1 $-1 $247 $358 #
vertex $-1 $487 $488 #
straight-curve $-1 0 28.693170390018736 -5.3766353573304091 1 0 0 I I #
coedge $-1 $249 $361 $251 $381 reversed $142 $-1 #
vertex $-1 $372 $489 #
straight-curve $-1 0 20.123081421706999 -5.3766353573304091 1 0 0 I I #
edge $-1 $254 1.6773906011642099 $368 5.7210989111681885 $251 $490 forward 7 unknown #
edge $-1 $253 5.3766353573304091 $369 9.4203436673343877 $252 $491 forward 7 unknown #
point $-1 44.610736411633653 28.693170390018736 -5.3766353573304091 #
point $-1 44.610736411633653 20.123081421706999 -5.3766353573304091 #
loop $-1 $-1 $264 $256 #
plane-surface $-1 0 0 12.015106385126714 0 0 1 1 0 0 forward_v I I I I #
coedge $-1 $388 $259 $261 $392 reversed $150 $-1 #
coedge $-1 $259 $387 $492 $493 reversed $150 $-1 #
coedge $-1 $267 $262 $259 $390 forward $257 $-1 #
edge $-1 $393 -25.503281972272823 $494 -19.832068010262397 $389 $495 forward 7 unknown #
coedge $-1 $261 $260 $396 $496 reversed $93 $-1 #
edge $-1 $497 -7.4032439652872499 $393 0 $387 $498 forward 7 unknown #
vertex $-1 $263 $499 #
straight-curve $-1 -44.610736411633653 -8.0423338674647002 6.3438924231162872 0 -1 0 I I #
coedge $-1 $492 $264 $267 $400 forward $385 $-1 #
coedge $-1 $264 $492 $391 $496 forward $385 $-1 #
vertex $-1 $265 $500 #
straight-curve $-1 -56.479175307067379 -12.046254048151802 12.015106385126714 -1 0 0 I I #
straight-curve $-1 -44.610736411633653 -12.046254048151802 6.3438924231162872 0.64278759981090561 0 0.7660444514056185 I I #
edge $-1 $268 12.046254048151802 $494 20.123081421706999 $267 $501 forward 7 unknown #
point $-1 -44.610736411633653 -12.046254048151802 12.015106385126714 #
point $-1 -44.610736411633653 -12.046254048151802 6.3438924231162872 #
edge $-1 $502 1 $502 0 $271 $-1 forward 7 unknown #
vertex $-1 $272 $503 #
ellipse-curve $-1 -41.044673583787144 -18.507715946995958 8.1837347640811782 -0.7660444514056185 0 0.64278759981090561 0.3213937999054528 0 0.38302222570280925 1 I I #
point $-1 -41.909985902097425 -18.507715946995958 9.5625216298243156 #
edge $-1 $504 1 $504 0 $275 $-1 forward 7 unknown #
vertex $-1 $276 $505 #
ellipse-curve $-1 -41.044673583787144 -16.0846677349294 8.1837347640811782 -0.7660444514056185 0 0.64278759981090561 0.3213937999054528 0 0.38302222570280925 1 I I #
point $-1 -41.909985902097425 -16.0846677349294 9.5625216298243156 #
edge $-1 $506 1 $506 0 $279 $-1 forward 7 unknown #
vertex $-1 $280 $507 #
ellipse-curve $-1 -41.044673583787144 -13.661619522862843 8.1837347640811782 -0.7660444514056185 0 0.64278759981090561 0.3213937999054528 0 0.38302222570280925 1 I I #
point $-1 -41.909985902097425 -13.661619522862843 9.5625216298243156 #
plane-surface $-1 44.610736411633653 0 0 -1 0 0 0 0 1 forward_v I I I I #
coedge $-1 $426 $425 $418 $508 forward $284 $-1 #
coedge $-1 $418 $286 $288 $422 reversed $179 $-1 #
coedge $-1 $286 $417 $416 $508 reversed $179 $-1 #
coedge $-1 $294 $289 $286 $420 forward $295 $-1 #
edge $-1 $423 -60.373592170029333 $509 -48.901587686335141 $419 $510 forward 7 unknown #
coedge $-1 $288 $287 $426 $511 reversed $112 $-1 #
edge $-1 $512 76.104909944526341 $423 89.221472823267305 $417 $513 forward 7 unknown #
vertex $-1 $290 $514 #
straight-curve $-1 44.610736411633653 -7.9448783166215495 0.54310190143251447 0 1 0 I I #
coedge $-1 $416 $291 $294 $430 forward $284 $-1 #
coedge $-1 $291 $416 $421 $511 forward $284 $-1 #
vertex $-1 $292 $515 #
straight-curve $-1 39.69508419662003 -20.123081421706996 12.015106385126714 1 0 0 I I #
straight-curve $-1 1.3553092816912624 -20.123081421706996 78.577961012981319 -0.48480960649040278 0 0.87461971476443456 I I #
edge $-1 $296 -20.123081421706996 $509 -11.656431844779203 $294 $516 forward 7 unknown #
point $-1 44.610736411633653 -20.123081421706996 12.015106385126714 #
point $-1 44.610736411633653 -20.123081421706996 0.54310190143252157 #
edge $-1 $517 1 $517 0 $299 $-1 forward 7 unknown #
vertex $-1 $300 $518 #
ellipse-curve $-1 40.556051665148615 -17.704038685441915 5.7939912256245414 0.87461971476443456 0 0.48480960649040278 0.24240480324520139 0 -0.43730985738221728 1 I I #
point $-1 41.673623371004339 -17.704038685441915 5.8417942858974072 #
edge $-1 $519 1 $519 0 $303 $-1 forward 7 unknown #
vertex $-1 $304 $520 #
ellipse-curve $-1 40.556051665148615 -14.075474581044286 5.7939912256245414 0.87461971476443456 0 0.48480960649040278 0.24240480324520139 0 -0.43730985738221728 1 I I #
point $-1 41.673623371004339 -14.075474581044286 5.8417942858974072 #
plane-surface $-1 44.610736411633653 0 0 -1 0 0 0 0 1 forward_v I I I I #
coedge $-1 $312 $310 $314 $446 reversed $201 $-1 #
edge $-1 $325 -12.015106385126714 $448 12.015106385126714 $324 $521 forward 7 unknown #
vertex $-1 $446 $522 #
straight-curve $-1 -44.610736411633653 -28.693170390018736 0 0 0 -1 I I #
edge $-1 $444 -28.693170390018736 $448 28.693170390018736 $442 $523 forward 7 unknown #
straight-curve $-1 0 -28.693170390018736 -12.015106385126714 -1 0 0 I I #
vertex $-1 $317 $524 #
straight-curve $-1 0 28.693170390018736 -12.015106385126714 1 0 0 I I #
point $-1 44.610736411633653 28.693170390018736 -12.015106385126714 #
point $-1 44.610736411633653 -28.693170390018736 -12.015106385126714 #
straight-curve $-1 -44.610736411633653 0 12.015106385126714 0 -1 0 I I #
point $-1 -44.610736411633653 28.693170390018736 12.015106385126714 #
point $-1 -44.610736411633653 -28.693170390018736 12.015106385126714 #
straight-curve $-1 44.610736411633653 -28.693170390018736 0 0 0 -1 I I #
straight-curve $-1 44.610736411633653 28.693170390018736 0 0 0 -1 I I #
plane-surface $-1 44.610736411633653 0 0 -1 0 0 0 0 1 forward_v I I I I #
coedge $-1 $461 $337 $348 $470 forward $220 $-1 #
coedge $-1 $337 $461 $351 $472 reversed $220 $-1 #
straight-curve $-1 44.610736411633653 -20.123081421706999 -3.6992447561661992 0 0 1 I I #
coedge $-1 $459 $458 $340 $462 forward $220 $-1 #
edge $-1 $465 7.9190184687755654 $463 16.489107437087302 $461 $525 forward 7 unknown #
vertex $-1 $342 $526 #
straight-curve $-1 0 -28.693170390018736 -9.4203436673343877 1 0 0 I I #
vertex $-1 $462 $527 #
straight-curve $-1 0 -20.123081421706999 -9.4203436673343877 1 0 0 I I #
point $-1 44.610736411633653 -28.693170390018736 -9.4203436673343877 #
point $-1 44.610736411633653 -20.123081421706999 -9.4203436673343877 #
straight-curve $-1 -44.610736411633653 -12.204062952931434 -5.3766353573304091 0 1 0 I I #
edge $-1 $349 1.6773906011642099 $465 5.7210989111681885 $458 $528 forward 7 unknown #
point $-1 -44.610736411633653 -20.123081421706999 -5.3766353573304091 #
edge $-1 $353 5.3766353573304091 $463 9.4203436673343877 $459 $529 forward 7 unknown #
point $-1 -44.610736411633653 -28.693170390018736 -5.3766353573304091 #
straight-curve $-1 44.610736411633653 -28.693170390018736 0 0 0 -1 I I #
plane-surface $-1 0 28.693170390018736 0 0 -1 0 0 0 -1 forward_v I I I I #
coedge $-1 $362 $485 $364 $479 forward $359 $-1 #
vertex $-1 $479 $530 #
straight-curve $-1 -44.610736411633653 20.123081421706999 -3.6992447561661992 0 0 1 I I #
edge $-1 $481 -16.489107437087302 $477 -7.9190184687755654 $476 $531 forward 7 unknown #
straight-curve $-1 0 20.123081421706999 -9.4203436673343877 -1 0 0 I I #
vertex $-1 $367 $532 #
straight-curve $-1 0 28.693170390018736 -9.4203436673343877 -1 0 0 I I #
point $-1 44.610736411633653 20.123081421706999 -9.4203436673343877 #
point $-1 44.610736411633653 28.693170390018736 -9.4203436673343877 #
coedge $-1 $476 $371 $374 $487 forward $359 $-1 #
straight-curve $-1 -44.610736411633653 12.204062952931434 -5.3766353573304091 0 1 0 I I #
edge $-1 $376 5.3766353573304091 $481 9.4203436673343877 $374 $533 forward 7 unknown #
point $-1 -44.610736411633653 28.693170390018736 -5.3766353573304091 #
point $-1 -44.610736411633653 20.123081421706999 -5.3766353573304091 #
straight-curve $-1 44.610736411633653 20.123081421706999 -3.6992447561661992 0 0 -1 I I #
straight-curve $-1 44.610736411633653 28.693170390018736 0 0 0 -1 I I #
coedge $-1 $396 $395 $388 $493 forward $385 $-1 #
edge $-1 $494 11.868438895433727 $497 16.627152314695287 $492 $534 forward 7 unknown #
vertex $-1 $493 $535 #
straight-curve $-1 -44.610736411633653 -20.123081421706999 31.847174395389111 0 0 1 I I #
edge $-1 $497 -12.080747554242299 $397 -4.0039201806871016 $396 $536 forward 7 unknown #
vertex $-1 $496 $537 #
straight-curve $-1 -44.610736411633653 -20.123081421706999 6.3438924231162872 -0.64278759981090561 0 -0.7660444514056185 I I #
point $-1 -44.610736411633653 -20.123081421706999 6.3438924231162872 #
point $-1 -39.852022992372092 -12.046254048151802 12.015106385126714 #
straight-curve $-1 -44.610736411633653 0 12.015106385126714 0 -1 0 I I #
vertex $-1 $403 $538 #
point $-1 -40.723279783881694 -18.507715946995958 8.5667569897839861 #
vertex $-1 $407 $539 #
point $-1 -40.723279783881694 -16.0846677349294 8.5667569897839861 #
vertex $-1 $411 $540 #
point $-1 -40.723279783881694 -13.661619522862843 8.5667569897839861 #
edge $-1 $509 -4.9156522150136226 $512 1.4433834727354125 $416 $541 forward 7 unknown #
vertex $-1 $420 $542 #
straight-curve $-1 44.610736411633653 -11.656431844779203 60.916694071461855 0 0 1 I I #
edge $-1 $512 3.711553528157653 $427 12.178203105085446 $426 $543 forward 7 unknown #
vertex $-1 $511 $544 #
straight-curve $-1 1.3553092816912624 -11.656431844779203 78.577961012981319 0.48480960649040278 0 -0.87461971476443456 I I #
point $-1 44.610736411633653 -11.656431844779203 0.54310190143252157 #
point $-1 38.251700723884618 -20.123081421706996 12.015106385126714 #
straight-curve $-1 44.610736411633653 0 12.015106385126714 0 1 0 I I #
vertex $-1 $433 $545 #
point $-1 40.798456468393816 -17.704038685441915 5.3566813682423247 #
vertex $-1 $437 $546 #
point $-1 40.798456468393816 -14.075474581044286 5.3566813682423247 #
straight-curve $-1 -44.610736411633653 28.693170390018736 0 0 0 -1 I I #
point $-1 -44.610736411633653 -28.693170390018736 -12.015106385126714 #
straight-curve $-1 -44.610736411633653 0 -12.015106385126714 0 1 0 I I #
point $-1 -44.610736411633653 28.693170390018736 -12.015106385126714 #
straight-curve $-1 -44.610736411633653 -12.204062952931434 -9.4203436673343877 0 -1 0 I I #
point $-1 -44.610736411633653 -28.693170390018736 -9.4203436673343877 #
point $-1 -44.610736411633653 -20.123081421706999 -9.4203436673343877 #
straight-curve $-1 -44.610736411633653 -20.123081421706999 -3.6992447561661992 0 0 -1 I I #
straight-curve $-1 -44.610736411633653 -28.693170390018736 0 0 0 -1 I I #
point $-1 -44.610736411633653 20.123081421706999 -9.4203436673343877 #
straight-curve $-1 -44.610736411633653 12.204062952931434 -9.4203436673343877 0 -1 0 I I #
point $-1 -44.610736411633653 28.693170390018736 -9.4203436673343877 #
straight-curve $-1 -44.610736411633653 28.693170390018736 0 0 0 -1 I I #
straight-curve $-1 -56.479175307067379 -20.123081421706999 12.015106385126714 1 0 0 I I #
point $-1 -44.610736411633653 -20.123081421706999 12.015106385126714 #
straight-curve $-1 -39.852022992372092 -8.0423338674647002 12.015106385126714 0 1 0 I I #
point $-1 -39.852022992372092 -20.123081421706999 12.015106385126714 #
point $-1 -40.661651358084342 -18.507715946995958 7.8623409641757247 #
point $-1 -40.661651358084342 -16.0846677349294 7.8623409641757247 #
point $-1 -40.661651358084342 -13.661619522862843 7.8623409641757247 #
straight-curve $-1 39.69508419662003 -11.656431844779203 12.015106385126714 -1 0 0 I I #
point $-1 44.610736411633653 -11.656431844779203 12.015106385126714 #
straight-curve $-1 38.251700723884611 -7.9448783166215495 12.015106385126721 0 -1 0 I I #
point $-1 38.251700723884618 -11.656431844779203 12.015106385126714 #
point $-1 40.118741807766398 -17.704038685441915 5.5515864223793407 #
point $-1 40.118741807766398 -14.075474581044286 5.5515864223793407 #
End-of-ACIS-data 