500 0 6 0           
7 Unknown 11 ACIS 5.0 NT 24 Fri Mar 26 02:28:10 1999 
-1 9.9999999999999995e-007 1e-010 
body $-1 $6 $-1 $7 #
body $-1 $8 $-1 $9 #
body $-1 $10 $-1 $11 #
body $-1 $12 $-1 $13 #
body $-1 $14 $-1 $15 #
body $-1 $16 $-1 $17 #
lump $-1 $-1 $18 $0 #
transform $-1 1 0 0 0 1 0 0 0 1 69.627368999298085 37.22058537142567 8.7792736661480983 1 rotate no_reflect no_shear #
lump $-1 $-1 $19 $1 #
transform $-1 1 0 0 0 1 0 0 0 1 69.627368999298085 37.22058537142567 8.7792736661480983 1 rotate no_reflect no_shear #
lump $-1 $-1 $20 $2 #
transform $-1 1 0 0 0 1 0 0 0 1 69.627368999298085 37.22058537142567 8.7792736661480983 1 rotate no_reflect no_shear #
lump $-1 $-1 $21 $3 #
transform $-1 1 0 0 0 1 0 0 0 1 69.627368999298085 37.22058537142567 8.7792736661480983 1 rotate no_reflect no_shear #
lump $-1 $-1 $22 $4 #
transform $-1 1 0 0 0 1 0 0 0 1 69.627368999298085 37.22058537142567 8.7792736661480983 1 rotate no_reflect no_shear #
lump $-1 $-1 $23 $5 #
transform $-1 1 0 0 0 1 0 0 0 1 69.627368999298085 37.22058537142567 8.7792736661480983 1 rotate no_reflect no_shear #
shell $-1 $-1 $-1 $24 $-1 $6 #
shell $-1 $-1 $-1 $25 $-1 $8 #
shell $-1 $-1 $-1 $26 $-1 $10 #
shell $-1 $-1 $-1 $27 $-1 $12 #
shell $-1 $-1 $-1 $28 $-1 $14 #
shell $-1 $-1 $-1 $29 $-1 $16 #
face $-1 $30 $31 $18 $-1 $32 forward single #
face $-1 $33 $34 $19 $-1 $35 forward single #
face $-1 $36 $37 $20 $-1 $38 reversed single #
face $-1 $39 $40 $21 $-1 $41 forward single #
face $-1 $42 $43 $22 $-1 $44 forward single #
face $-1 $45 $46 $23 $-1 $47 forward single #
face $-1 $48 $49 $18 $-1 $50 reversed single #
loop $-1 $-1 $51 $24 #
plane-surface $-1 0 0 8.7792736661480983 0 0 1 1 0 0 forward_v I I I I #
face $-1 $52 $53 $19 $-1 $54 reversed single #
loop $-1 $-1 $55 $25 #
plane-surface $-1 0 -37.22058537142567 0 0 1 0 0 0 1 forward_v I I I I #
face $-1 $56 $57 $20 $-1 $58 reversed single #
loop $-1 $-1 $59 $26 #
plane-surface $-1 38.156826674599309 90.896159458911626 149.89671326115177 1 0 0 0 -0.74314483375859142 -0.66913059716165679 forward_v I I I I #
face $-1 $60 $61 $21 $-1 $62 forward single #
loop $-1 $63 $64 $27 #
cone-surface $-1 44.450935139539069 32.82258254804524 4.1206192508488169 0 -0.74314483375859142 -0.66913059716165679 1 0 0 1 I I 0 1 1 forward I I I I #
face $-1 $65 $66 $22 $-1 $67 forward single #
loop $-1 $68 $69 $28 #
cone-surface $-1 53.892097836948693 32.82258254804524 4.1206192508488169 0 -0.74314483375859142 -0.66913059716165679 1 0 0 1 I I 0 1 1 forward I I I I #
face $-1 $70 $71 $23 $-1 $72 forward single #
loop $-1 $73 $74 $29 #
cone-surface $-1 63.333260534358317 32.82258254804524 4.1206192508488169 0 -0.74314483375859142 -0.66913059716165679 1 0 0 1 I I 0 1 1 forward I I I I #
face $-1 $75 $76 $18 $-1 $77 reversed single #
loop $-1 $-1 $78 $30 #
plane-surface $-1 0 0 -8.7792736661480983 0 0 1 1 0 0 forward_v I I I I #
coedge $-1 $79 $80 $81 $82 forward $31 $-1 #
face $-1 $83 $84 $19 $-1 $85 reversed single #
loop $-1 $-1 $86 $33 #
plane-surface $-1 0 0 -8.7792736661480983 0 0 1 1 0 0 forward_v I I I I #
coedge $-1 $87 $88 $89 $90 forward $34 $-1 #
face $-1 $91 $92 $20 $-1 $93 forward single #
loop $-1 $-1 $94 $36 #
plane-surface $-1 53.892097836948693 -12.590279661151328 56.717107266561058 0 0.74314483375859142 0.66913059716165679 1 0 0 forward_v I I I I #
coedge $-1 $95 $96 $97 $98 reversed $37 $-1 #
face $-1 $-1 $99 $21 $-1 $100 forward single #
loop $-1 $101 $102 $39 #
cone-surface $-1 44.450935139539069 31.376730736864971 2.8187684650077944 0 -0.74314483375859142 -0.66913059716165679 0.5 0 0 1 I I -0.70710678118654746 0.70710678118654746 0.5 forward I I I I #
loop $-1 $-1 $103 $27 #
coedge $-1 $64 $64 $104 $105 reversed $40 $-1 #
face $-1 $-1 $106 $22 $-1 $107 forward single #
loop $-1 $108 $109 $42 #
cone-surface $-1 53.892097836948693 31.376730736864971 2.8187684650077944 0 -0.74314483375859142 -0.66913059716165679 0.5 0 0 1 I I -0.70710678118654746 0.70710678118654746 0.5 forward I I I I #
loop $-1 $-1 $110 $28 #
coedge $-1 $69 $69 $111 $112 reversed $43 $-1 #
face $-1 $-1 $113 $23 $-1 $114 forward single #
loop $-1 $115 $116 $45 #
cone-surface $-1 63.333260534358317 31.376730736864971 2.8187684650077944 0 -0.74314483375859142 -0.66913059716165679 0.5 0 0 1 I I -0.70710678118654746 0.70710678118654746 0.5 forward I I I I #
loop $-1 $-1 $117 $29 #
coedge $-1 $74 $74 $118 $119 reversed $46 $-1 #
face $-1 $120 $121 $18 $-1 $122 reversed single #
loop $-1 $-1 $123 $48 #
plane-surface $-1 0 -37.22058537142567 0 0 1 0 0 0 1 forward_v I I I I #
coedge $-1 $124 $125 $126 $127 forward $49 $-1 #
coedge $-1 $128 $51 $129 $130 forward $31 $-1 #
coedge $-1 $51 $128 $131 $132 forward $31 $-1 #
coedge $-1 $133 $134 $51 $82 reversed $135 $-1 #
edge $-1 $136 -37.22058537142567 $137 37.22058537142567 $81 $138 forward 7 unknown #
face $-1 $139 $140 $19 $-1 $141 forward single #
loop $-1 $-1 $142 $52 #
plane-surface $-1 69.627368999298085 0 0 -1 0 0 0 0 1 forward_v I I I I #
coedge $-1 $143 $144 $145 $146 forward $53 $-1 #
coedge $-1 $145 $55 $142 $147 reversed $34 $-1 #
coedge $-1 $55 $145 $148 $149 reversed $34 $-1 #
coedge $-1 $150 $151 $55 $90 reversed $140 $-1 #
edge $-1 $152 -69.627368999298085 $153 69.627368999298085 $89 $154 forward 7 unknown #
face $-1 $155 $156 $20 $-1 $157 reversed single #
loop $-1 $-1 $97 $56 #
plane-surface $-1 0 0 8.7792736661480983 0 0 1 1 0 0 forward_v I I I I #
coedge $-1 $158 $159 $160 $161 reversed $57 $-1 #
coedge $-1 $96 $59 $162 $163 reversed $37 $-1 #
coedge $-1 $59 $95 $158 $164 reversed $37 $-1 #
coedge $-1 $160 $165 $59 $98 forward $92 $-1 #
edge $-1 $166 8.2274943580301425 $167 14.8749412161891 $97 $168 forward 7 unknown #
loop $-1 $-1 $104 $60 #
plane-surface $-1 53.892097836948693 -12.590279661151328 56.717107266561058 0 0.74314483375859142 0.66913059716165679 1 0 0 forward_v I I I I #
loop $-1 $-1 $169 $39 #
coedge $-1 $102 $102 $103 $170 reversed $61 $-1 #
coedge $-1 $103 $103 $102 $170 forward $63 $-1 #
coedge $-1 $104 $104 $64 $105 forward $99 $-1 #
edge $-1 $171 4.7651257592653419e-015 $171 6.2831853071796049 $104 $172 forward 7 unknown #
loop $-1 $-1 $111 $65 #
plane-surface $-1 53.892097836948693 -12.590279661151328 56.717107266561058 0 0.74314483375859142 0.66913059716165679 1 0 0 forward_v I I I I #
loop $-1 $-1 $173 $42 #
coedge $-1 $109 $109 $110 $174 reversed $66 $-1 #
coedge $-1 $110 $110 $109 $174 forward $68 $-1 #
coedge $-1 $111 $111 $69 $112 forward $106 $-1 #
edge $-1 $175 4.7651257592653419e-015 $175 6.2831853071796049 $111 $176 forward 7 unknown #
loop $-1 $-1 $118 $70 #
plane-surface $-1 53.892097836948693 -12.590279661151328 56.717107266561058 0 0.74314483375859142 0.66913059716165679 1 0 0 forward_v I I I I #
loop $-1 $-1 $177 $45 #
coedge $-1 $116 $116 $117 $178 reversed $71 $-1 #
coedge $-1 $117 $117 $116 $178 forward $73 $-1 #
coedge $-1 $118 $118 $74 $119 forward $113 $-1 #
edge $-1 $179 4.7651257592653419e-015 $179 6.2831853071796049 $118 $180 forward 7 unknown #
face $-1 $181 $182 $18 $-1 $183 reversed single #
loop $-1 $-1 $184 $75 #
plane-surface $-1 -69.627368999298085 0 0 1 0 0 0 0 -1 forward_v I I I I #
coedge $-1 $185 $131 $186 $187 forward $76 $-1 #
coedge $-1 $188 $78 $185 $189 forward $49 $-1 #
coedge $-1 $78 $188 $190 $191 forward $49 $-1 #
coedge $-1 $134 $133 $78 $127 reversed $135 $-1 #
edge $-1 $192 -37.22058537142567 $193 37.22058537142567 $126 $194 forward 7 unknown #
coedge $-1 $80 $79 $195 $196 forward $31 $-1 #
coedge $-1 $197 $198 $79 $130 reversed $182 $-1 #
edge $-1 $137 -69.627368999298085 $199 69.627368999298085 $129 $200 forward 7 unknown #
coedge $-1 $123 $201 $80 $132 reversed $76 $-1 #
edge $-1 $202 -69.627368999298085 $136 69.627368999298085 $131 $203 forward 7 unknown #
coedge $-1 $126 $81 $201 $204 forward $135 $-1 #
coedge $-1 $81 $126 $197 $205 reversed $135 $-1 #
loop $-1 $-1 $133 $181 #
vertex $-1 $82 $206 #
vertex $-1 $82 $207 #
straight-curve $-1 69.627368999298085 0 8.7792736661480983 0 1 0 I I #
face $-1 $208 $209 $19 $-1 $210 reversed single #
loop $-1 $-1 $151 $83 #
plane-surface $-1 0 -41.309164949876759 -5.2141388885822604 0 0 1 1 0 0 forward_v I I I I #
coedge $-1 $211 $212 $87 $147 forward $84 $-1 #
coedge $-1 $213 $86 $212 $214 forward $53 $-1 #
coedge $-1 $86 $213 $215 $216 forward $53 $-1 #
coedge $-1 $88 $87 $86 $146 reversed $34 $-1 #
edge $-1 $217 -69.627368999298085 $218 69.627368999298085 $86 $219 forward 7 unknown #
edge $-1 $218 -8.7792736661480983 $153 -5.2141388885822604 $142 $220 forward 7 unknown #
coedge $-1 $215 $221 $88 $149 forward $222 $-1 #
edge $-1 $152 5.2141388885822604 $217 8.7792736661480983 $148 $223 forward 7 unknown #
coedge $-1 $224 $89 $221 $225 forward $140 $-1 #
coedge $-1 $89 $224 $211 $226 forward $140 $-1 #
vertex $-1 $149 $227 #
vertex $-1 $226 $228 #
straight-curve $-1 0 -37.22058537142567 -5.2141388885822604 1 0 0 I I #
face $-1 $-1 $229 $20 $-1 $230 reversed single #
loop $-1 $-1 $231 $91 #
plane-surface $-1 69.627368999298085 0 0 -1 0 0 0 0 1 forward_v I I I I #
coedge $-1 $232 $94 $96 $164 forward $57 $-1 #
coedge $-1 $94 $232 $231 $233 reversed $57 $-1 #
coedge $-1 $234 $97 $94 $161 forward $92 $-1 #
edge $-1 $167 11.210777756124962 $235 42.681320080823738 $160 $236 forward 7 unknown #
coedge $-1 $237 $238 $95 $163 forward $229 $-1 #
edge $-1 $239 -73.551820820506038 $166 -66.169082964427787 $162 $240 forward 7 unknown #
edge $-1 $167 64.506717160312547 $239 74.441170742851369 $96 $241 forward 7 unknown #
coedge $-1 $97 $234 $237 $242 forward $92 $-1 #
vertex $-1 $163 $243 #
vertex $-1 $98 $244 #
straight-curve $-1 38.156826674599309 45.448079729455813 8.7792736661481001 0 -1 0 I I #
coedge $-1 $169 $169 $-1 $245 reversed $101 $-1 #
edge $-1 $246 0 $246 6.2831853071796004 $102 $247 forward 7 unknown #
vertex $-1 $105 $248 #
ellipse-curve $-1 44.450935139539069 33.896861942346177 5.0879047381089784 0 0.74314483375859142 0.66913059716165679 1 0 0 1 I I #
coedge $-1 $173 $173 $-1 $249 reversed $108 $-1 #
edge $-1 $250 0 $250 6.2831853071796004 $109 $251 forward 7 unknown #
vertex $-1 $112 $252 #
ellipse-curve $-1 53.892097836948693 33.896861942346177 5.0879047381089784 0 0.74314483375859142 0.66913059716165679 1 0 0 1 I I #
coedge $-1 $177 $177 $-1 $253 reversed $115 $-1 #
edge $-1 $254 0 $254 6.2831853071796004 $116 $255 forward 7 unknown #
vertex $-1 $119 $256 #
ellipse-curve $-1 63.333260534358317 33.896861942346177 5.0879047381089784 0 0.74314483375859142 0.66913059716165679 1 0 0 1 I I #
face $-1 $-1 $135 $18 $-1 $257 reversed single #
loop $-1 $-1 $197 $120 #
plane-surface $-1 0 37.22058537142567 0 0 -1 0 0 0 -1 forward_v I I I I #
coedge $-1 $258 $195 $198 $259 forward $121 $-1 #
coedge $-1 $201 $123 $124 $189 reversed $76 $-1 #
coedge $-1 $195 $258 $123 $187 reversed $121 $-1 #
edge $-1 $202 -8.7792736661480983 $260 8.7792736661480983 $186 $261 forward 7 unknown #
coedge $-1 $125 $124 $258 $262 forward $49 $-1 #
edge $-1 $193 -69.627368999298085 $260 69.627368999298085 $185 $263 forward 7 unknown #
coedge $-1 $198 $197 $125 $191 reversed $182 $-1 #
edge $-1 $264 -69.627368999298085 $192 69.627368999298085 $190 $265 forward 7 unknown #
vertex $-1 $127 $266 #
vertex $-1 $204 $267 #
straight-curve $-1 69.627368999298085 0 -8.7792736661480983 0 -1 0 I I #
coedge $-1 $184 $186 $128 $196 reversed $121 $-1 #
edge $-1 $199 -37.22058537142567 $202 37.22058537142567 $195 $268 forward 7 unknown #
coedge $-1 $190 $129 $134 $205 forward $182 $-1 #
coedge $-1 $129 $190 $184 $259 reversed $182 $-1 #
vertex $-1 $130 $269 #
straight-curve $-1 0 37.22058537142567 8.7792736661480983 -1 0 0 I I #
coedge $-1 $131 $185 $133 $204 reversed $76 $-1 #
vertex $-1 $196 $270 #
straight-curve $-1 0 -37.22058537142567 8.7792736661480983 1 0 0 I I #
edge $-1 $136 -8.7792736661480983 $193 8.7792736661480983 $133 $271 forward 7 unknown #
edge $-1 $137 -8.7792736661480983 $192 8.7792736661480983 $134 $272 forward 7 unknown #
point $-1 69.627368999298085 -37.22058537142567 8.7792736661480983 #
point $-1 69.627368999298085 37.22058537142567 8.7792736661480983 #
face $-1 $-1 $222 $19 $-1 $273 reversed single #
loop $-1 $-1 $274 $139 #
plane-surface $-1 0 -45.397744528327848 -6.9967062773651794 0 1 0 0 0 1 forward_v I I I I #
coedge $-1 $275 $142 $151 $226 reversed $84 $-1 #
coedge $-1 $142 $275 $143 $214 reversed $84 $-1 #
coedge $-1 $144 $143 $276 $277 forward $53 $-1 #
edge $-1 $218 37.22058537142567 $278 45.397744528327848 $212 $279 forward 7 unknown #
coedge $-1 $280 $148 $144 $216 reversed $222 $-1 #
edge $-1 $281 -45.397744528327848 $217 -37.22058537142567 $215 $282 forward 7 unknown #
vertex $-1 $149 $283 #
vertex $-1 $214 $284 #
straight-curve $-1 0 -37.22058537142567 -8.7792736661480983 1 0 0 I I #
straight-curve $-1 69.627368999298085 -37.22058537142567 0 0 0 1 I I #
coedge $-1 $148 $280 $150 $225 reversed $222 $-1 #
loop $-1 $-1 $148 $208 #
straight-curve $-1 -69.627368999298085 -37.22058537142567 0 0 0 -1 I I #
coedge $-1 $151 $150 $285 $286 forward $140 $-1 #
edge $-1 $152 -4.088579578451089 $287 4.088579578451089 $221 $288 forward 7 unknown #
edge $-1 $289 -4.088579578451089 $153 4.088579578451089 $211 $290 forward 7 unknown #
point $-1 -69.627368999298085 -37.22058537142567 -5.2141388885822604 #
point $-1 69.627368999298085 -37.22058537142567 -5.2141388885822604 #
loop $-1 $-1 $162 $155 #
plane-surface $-1 0 37.22058537142567 0 0 -1 0 0 0 -1 forward_v I I I I #
coedge $-1 $291 $292 $159 $233 forward $156 $-1 #
coedge $-1 $159 $158 $238 $293 reversed $57 $-1 #
edge $-1 $235 39.219933860824973 $294 49.154387443363788 $231 $295 forward 7 unknown #
coedge $-1 $165 $160 $292 $296 forward $92 $-1 #
vertex $-1 $296 $297 #
straight-curve $-1 26.946048918474347 30.573138513266713 8.7792736661480966 1 0 0 I I #
coedge $-1 $298 $162 $165 $242 reversed $229 $-1 #
coedge $-1 $162 $298 $232 $293 forward $229 $-1 #
vertex $-1 $163 $299 #
straight-curve $-1 38.156826674599309 37.22058537142567 74.948356630575887 0 0 1 I I #
straight-curve $-1 38.156826674599309 -12.590279661151328 56.717107266561058 0 0.66913059716165679 -0.74314483375859142 I I #
edge $-1 $300 -69.627368999298085 $166 -38.156826674599309 $237 $301 forward 7 unknown #
point $-1 38.156826674599309 37.22058537142567 8.7792736661480983 #
point $-1 38.156826674599309 30.573138513266713 8.7792736661481001 #
edge $-1 $302 1 $302 0 $169 $-1 forward 7 unknown #
vertex $-1 $170 $303 #
ellipse-curve $-1 44.450935139539069 31.748303153744267 3.1533337635886229 0 0.74314483375859142 0.66913059716165679 1 0 0 1 I I #
point $-1 45.450935139539069 33.89686194234622 5.0879047381090103 #
edge $-1 $304 1 $304 0 $173 $-1 forward 7 unknown #
vertex $-1 $174 $305 #
ellipse-curve $-1 53.892097836948693 31.748303153744267 3.1533337635886229 0 0.74314483375859142 0.66913059716165679 1 0 0 1 I I #
point $-1 54.892097836948693 33.89686194234622 5.0879047381090103 #
edge $-1 $306 1 $306 0 $177 $-1 forward 7 unknown #
vertex $-1 $178 $307 #
ellipse-curve $-1 63.333260534358317 31.748303153744267 3.1533337635886229 0 0.74314483375859142 0.66913059716165679 1 0 0 1 I I #
point $-1 64.333260534358317 33.89686194234622 5.0879047381090103 #
plane-surface $-1 69.627368999298085 0 0 -1 0 0 0 0 1 forward_v I I I I #
coedge $-1 $186 $184 $188 $262 reversed $121 $-1 #
edge $-1 $199 -8.7792736661480983 $264 8.7792736661480983 $198 $308 forward 7 unknown #
vertex $-1 $262 $309 #
straight-curve $-1 -69.627368999298085 -37.22058537142567 0 0 0 -1 I I #
edge $-1 $260 -37.22058537142567 $264 37.22058537142567 $258 $310 forward 7 unknown #
straight-curve $-1 0 -37.22058537142567 -8.7792736661480983 -1 0 0 I I #
vertex $-1 $191 $311 #
straight-curve $-1 0 37.22058537142567 -8.7792736661480983 1 0 0 I I #
point $-1 69.627368999298085 37.22058537142567 -8.7792736661480983 #
point $-1 69.627368999298085 -37.22058537142567 -8.7792736661480983 #
straight-curve $-1 -69.627368999298085 0 8.7792736661480983 0 -1 0 I I #
point $-1 -69.627368999298085 37.22058537142567 8.7792736661480983 #
point $-1 -69.627368999298085 -37.22058537142567 8.7792736661480983 #
straight-curve $-1 69.627368999298085 -37.22058537142567 0 0 0 -1 I I #
straight-curve $-1 69.627368999298085 37.22058537142567 0 0 0 -1 I I #
plane-surface $-1 -69.627368999298085 0 0 1 0 0 0 0 -1 forward_v I I I I #
coedge $-1 $276 $285 $280 $312 forward $209 $-1 #
coedge $-1 $212 $211 $313 $314 forward $84 $-1 #
coedge $-1 $313 $274 $213 $277 reversed $209 $-1 #
edge $-1 $278 -69.627368999298085 $281 69.627368999298085 $276 $315 forward 7 unknown #
vertex $-1 $314 $316 #
straight-curve $-1 69.627368999298085 0 -8.7792736661480983 0 -1 0 I I #
coedge $-1 $221 $215 $274 $312 reversed $222 $-1 #
vertex $-1 $216 $317 #
straight-curve $-1 -69.627368999298085 0 -8.7792736661480983 0 1 0 I I #
point $-1 -69.627368999298085 -37.22058537142567 -8.7792736661480983 #
point $-1 69.627368999298085 -37.22058537142567 -8.7792736661480983 #
coedge $-1 $274 $313 $224 $286 reversed $209 $-1 #
edge $-1 $287 -69.627368999298085 $289 69.627368999298085 $285 $318 forward 7 unknown #
vertex $-1 $225 $319 #
straight-curve $-1 -69.627368999298085 -41.309164949876759 -5.2141388885822604 0 -1 0 I I #
vertex $-1 $226 $320 #
straight-curve $-1 69.627368999298085 -41.309164949876759 -5.2141388885822604 0 1 0 I I #
coedge $-1 $292 $231 $298 $321 reversed $156 $-1 #
coedge $-1 $231 $291 $234 $296 reversed $156 $-1 #
edge $-1 $294 -42.681320080823738 $239 -11.210777756124962 $238 $322 forward 7 unknown #
vertex $-1 $233 $323 #
straight-curve $-1 69.627368999298085 4.3298807483322097 37.925364895173828 0 0.66913059716165679 -0.74314483375859142 I I #
edge $-1 $235 30.573138513266713 $300 37.22058537142567 $292 $324 forward 7 unknown #
point $-1 69.627368999298085 30.573138513266713 8.7792736661481001 #
coedge $-1 $238 $237 $291 $321 forward $229 $-1 #
point $-1 38.156826674599309 37.22058537142567 1.3965358100698495 #
vertex $-1 $296 $325 #
straight-curve $-1 0 37.22058537142567 8.7792736661480983 -1 0 0 I I #
vertex $-1 $245 $326 #
point $-1 45.450935139539069 31.748303153744267 3.1533337635886229 #
vertex $-1 $249 $327 #
point $-1 54.892097836948693 31.748303153744267 3.1533337635886229 #
vertex $-1 $253 $328 #
point $-1 64.333260534358317 31.748303153744267 3.1533337635886229 #
straight-curve $-1 -69.627368999298085 37.22058537142567 0 0 0 -1 I I #
point $-1 -69.627368999298085 -37.22058537142567 -8.7792736661480983 #
straight-curve $-1 -69.627368999298085 0 -8.7792736661480983 0 1 0 I I #
point $-1 -69.627368999298085 37.22058537142567 -8.7792736661480983 #
edge $-1 $287 -1.782567388782919 $281 1.782567388782919 $280 $329 forward 7 unknown #
coedge $-1 $285 $276 $275 $314 reversed $209 $-1 #
edge $-1 $289 -1.782567388782919 $278 1.782567388782919 $275 $330 forward 7 unknown #
straight-curve $-1 0 -45.397744528327848 -8.7792736661480983 -1 0 0 I I #
point $-1 69.627368999298085 -45.397744528327848 -8.7792736661480983 #
point $-1 -69.627368999298085 -45.397744528327848 -8.7792736661480983 #
straight-curve $-1 0 -45.397744528327848 -5.2141388885822604 1 0 0 I I #
point $-1 -69.627368999298085 -45.397744528327848 -5.2141388885822604 #
point $-1 69.627368999298085 -45.397744528327848 -5.2141388885822604 #
edge $-1 $300 -8.7792736661480983 $294 -1.3965358100698495 $291 $331 forward 7 unknown #
straight-curve $-1 26.946048918474347 37.22058537142567 1.3965358100698531 -1 0 0 I I #
point $-1 69.627368999298085 37.22058537142567 1.3965358100698495 #
straight-curve $-1 69.627368999298085 0 8.7792736661480983 0 1 0 I I #
point $-1 69.627368999298085 37.22058537142567 8.7792736661480983 #
point $-1 44.450935139539069 31.005158319985675 2.4842031664269659 #
point $-1 53.892097836948693 31.005158319985675 2.4842031664269659 #
point $-1 63.333260534358317 31.005158319985675 2.4842031664269659 #
straight-curve $-1 -69.627368999298085 -45.397744528327848 -6.9967062773651794 0 0 -1 I I #
straight-curve $-1 69.627368999298085 -45.397744528327848 -6.9967062773651794 0 0 -1 I I #
straight-curve $-1 69.627368999298085 37.22058537142567 0 0 0 -1 I I #
End-of-ACIS-data 