500 0 7 0           
7 Unknown 11 ACIS 5.0 NT 24 Thu Mar 25 15:16:13 1999 
-1 9.9999999999999995e-007 1e-010 
body $-1 $7 $-1 $8 #
body $-1 $9 $-1 $10 #
body $-1 $11 $-1 $12 #
body $-1 $13 $-1 $14 #
body $-1 $15 $-1 $16 #
body $-1 $17 $-1 $18 #
body $-1 $19 $-1 $20 #
lump $-1 $-1 $21 $0 #
transform $-1 1 0 0 0 1 0 0 0 1 52.958159123508409 24.658748905276422 10.168582627578846 1 rotate no_reflect no_shear #
lump $-1 $-1 $22 $1 #
transform $-1 1 0 0 0 1 0 0 0 1 52.958159123508409 24.658748905276422 10.168582627578846 1 rotate no_reflect no_shear #
lump $-1 $-1 $23 $2 #
transform $-1 1 0 0 0 1 0 0 0 1 52.958159123508409 24.658748905276422 10.168582627578846 1 rotate no_reflect no_shear #
lump $-1 $-1 $24 $3 #
transform $-1 1 0 0 0 1 0 0 0 1 52.958159123508409 24.658748905276422 10.168582627578846 1 rotate no_reflect no_shear #
lump $-1 $-1 $25 $4 #
transform $-1 1 0 0 0 1 0 0 0 1 52.958159123508409 24.658748905276422 10.168582627578846 1 rotate no_reflect no_shear #
lump $-1 $-1 $26 $5 #
transform $-1 1 0 0 0 1 0 0 0 1 52.958159123508409 24.658748905276422 10.168582627578846 1 rotate no_reflect no_shear #
lump $-1 $-1 $27 $6 #
transform $-1 1 0 0 0 1 0 0 0 1 52.958159123508409 24.658748905276422 10.168582627578846 1 rotate no_reflect no_shear #
shell $-1 $-1 $-1 $28 $-1 $7 #
shell $-1 $-1 $-1 $29 $-1 $9 #
shell $-1 $-1 $-1 $30 $-1 $11 #
shell $-1 $-1 $-1 $31 $-1 $13 #
shell $-1 $-1 $-1 $32 $-1 $15 #
shell $-1 $-1 $-1 $33 $-1 $17 #
shell $-1 $-1 $-1 $34 $-1 $19 #
face $-1 $35 $36 $21 $-1 $37 forward single #
face $-1 $38 $39 $22 $-1 $40 forward single #
face $-1 $41 $42 $23 $-1 $43 reversed single #
face $-1 $44 $45 $24 $-1 $46 forward single #
face $-1 $47 $48 $25 $-1 $49 reversed single #
face $-1 $50 $51 $26 $-1 $52 forward single #
face $-1 $53 $54 $27 $-1 $55 forward single #
face $-1 $56 $57 $21 $-1 $58 reversed single #
loop $-1 $-1 $59 $28 #
plane-surface $-1 0 0 10.168582627578846 0 0 1 1 0 0 forward_v I I I I #
face $-1 $60 $61 $22 $-1 $62 forward single #
loop $-1 $-1 $63 $29 #
plane-surface $-1 0 -24.658748905276422 0 0 1 0 0 0 1 forward_v I I I I #
face $-1 $64 $65 $23 $-1 $66 reversed single #
loop $-1 $-1 $67 $30 #
plane-surface $-1 -126.53381702634965 1.8640093993003681 78.91465824577628 0 1 0 -0.69465837861970381 0 0.71933979245794832 forward_v I I I I #
face $-1 $68 $69 $24 $-1 $70 forward single #
loop $-1 $71 $72 $31 #
cone-surface $-1 -47.821100431268199 6.5128809433375814 5.11817973088485 0.69465837861970381 0 -0.71933979245794832 0.71933979245794832 0 0.69465837861970381 1 I I 0 1 1 forward I I I I #
face $-1 $73 $74 $25 $-1 $75 reversed single #
loop $-1 $-1 $76 $32 #
plane-surface $-1 76.390212784093279 13.020428597274957 150.43446060224349 0 1 0 0.80901700255871778 0 0.5877852410284794 forward_v I I I I #
face $-1 $77 $78 $26 $-1 $79 forward single #
loop $-1 $80 $81 $33 #
cone-surface $-1 49.601919306848707 16.345662970989661 5.9175372449930235 -0.80901700255871778 0 -0.5877852410284794 0.5877852410284794 0 -0.80901700255871778 1 I I 0 1 1 forward I I I I #
face $-1 $82 $83 $27 $-1 $84 forward single #
loop $-1 $85 $86 $34 #
cone-surface $-1 49.601919306848707 21.333514531561715 5.9175372449930235 -0.80901700255871778 0 -0.5877852410284794 0.5877852410284794 0 -0.80901700255871778 1 I I 0 1 1 forward I I I I #
face $-1 $87 $88 $21 $-1 $89 reversed single #
loop $-1 $-1 $90 $35 #
plane-surface $-1 0 0 -10.168582627578846 0 0 1 1 0 0 forward_v I I I I #
coedge $-1 $91 $92 $93 $94 forward $36 $-1 #
face $-1 $95 $96 $22 $-1 $97 reversed single #
loop $-1 $-1 $98 $38 #
plane-surface $-1 0 0 10.168582627578846 0 0 1 1 0 0 forward_v I I I I #
coedge $-1 $99 $100 $101 $102 forward $39 $-1 #
face $-1 $103 $104 $23 $-1 $105 reversed single #
loop $-1 $-1 $106 $41 #
plane-surface $-1 -52.958159123508395 6.5128809433375814 2.7248358600571976 -0.69465837861970381 0 0.71933979245794832 0.71933979245794832 0 0.69465837861970381 forward_v I I I I #
coedge $-1 $107 $108 $109 $110 reversed $42 $-1 #
face $-1 $-1 $111 $24 $-1 $112 forward single #
loop $-1 $113 $114 $44 #
cone-surface $-1 -46.190825175191804 6.5128809433375814 3.4299803217226987 0.69465837861970381 0 -0.71933979245794832 0.35966989622897416 0 0.3473291893098519 1 I I -0.70710678118654746 0.70710678118654746 0.5 forward I I I I #
loop $-1 $-1 $115 $31 #
coedge $-1 $72 $72 $116 $117 reversed $45 $-1 #
face $-1 $118 $119 $25 $-1 $120 forward single #
loop $-1 $-1 $121 $47 #
plane-surface $-1 -9.2978895261634875 18.839588751275688 88.178411952571579 0.80901700255871778 0 0.5877852410284794 0.5877852410284794 0 -0.80901700255871778 forward_v I I I I #
coedge $-1 $122 $123 $124 $125 reversed $48 $-1 #
face $-1 $-1 $126 $26 $-1 $127 forward single #
loop $-1 $128 $129 $50 #
cone-surface $-1 48.630466839955943 16.345662970989661 5.2117357345249751 -0.80901700255871778 0 -0.5877852410284794 0.2938926205142397 0 -0.40450850127935889 1 I I -0.70710678118654746 0.70710678118654746 0.5 forward I I I I #
loop $-1 $-1 $130 $33 #
coedge $-1 $81 $81 $131 $132 reversed $51 $-1 #
face $-1 $-1 $133 $27 $-1 $134 forward single #
loop $-1 $135 $136 $53 #
cone-surface $-1 48.630466839955943 21.333514531561715 5.2117357345249751 -0.80901700255871778 0 -0.5877852410284794 0.2938926205142397 0 -0.40450850127935889 1 I I -0.70710678118654746 0.70710678118654746 0.5 forward I I I I #
loop $-1 $-1 $137 $34 #
coedge $-1 $86 $86 $138 $139 reversed $54 $-1 #
face $-1 $140 $141 $21 $-1 $142 reversed single #
loop $-1 $-1 $143 $56 #
plane-surface $-1 0 -24.658748905276422 0 0 1 0 0 0 1 forward_v I I I I #
coedge $-1 $144 $145 $146 $147 forward $57 $-1 #
coedge $-1 $148 $59 $149 $150 forward $36 $-1 #
coedge $-1 $59 $148 $151 $152 forward $36 $-1 #
coedge $-1 $153 $154 $59 $94 reversed $155 $-1 #
edge $-1 $156 -24.658748905276422 $157 24.658748905276422 $93 $158 forward 7 unknown #
face $-1 $159 $160 $22 $-1 $161 reversed single #
loop $-1 $-1 $162 $60 #
plane-surface $-1 -52.958159123508409 0 0 1 0 0 0 0 -1 forward_v I I I I #
coedge $-1 $163 $164 $100 $165 forward $61 $-1 #
coedge $-1 $166 $63 $167 $168 reversed $39 $-1 #
coedge $-1 $63 $166 $98 $165 reversed $39 $-1 #
coedge $-1 $169 $170 $63 $102 reversed $171 $-1 #
edge $-1 $172 -10.168582627578846 $173 10.168582627578846 $101 $174 forward 7 unknown #
face $-1 $175 $176 $23 $-1 $177 reversed single #
loop $-1 $-1 $178 $64 #
plane-surface $-1 -126.53381702634965 11.161752487374795 78.91465824577628 0 -1 0 0.69465837861970381 0 -0.71933979245794832 forward_v I I I I #
coedge $-1 $179 $180 $181 $182 reversed $65 $-1 #
coedge $-1 $108 $67 $183 $184 reversed $42 $-1 #
coedge $-1 $67 $107 $179 $185 reversed $42 $-1 #
coedge $-1 $181 $186 $67 $110 forward $187 $-1 #
edge $-1 $188 10.308749389666417 $189 18.016974640613782 $109 $190 forward 7 unknown #
loop $-1 $-1 $116 $68 #
plane-surface $-1 -52.958159123508395 6.5128809433375814 2.7248358600571976 -0.69465837861970381 0 0.71933979245794832 0.71933979245794832 0 0.69465837861970381 forward_v I I I I #
loop $-1 $-1 $191 $44 #
coedge $-1 $114 $114 $115 $192 reversed $69 $-1 #
coedge $-1 $115 $115 $114 $192 forward $71 $-1 #
coedge $-1 $116 $116 $72 $117 forward $111 $-1 #
edge $-1 $193 0 $193 6.2831853071796004 $116 $194 forward 7 unknown #
face $-1 $195 $196 $25 $-1 $197 reversed single #
loop $-1 $-1 $198 $73 #
plane-surface $-1 0 0 10.168582627578846 0 0 1 1 0 0 forward_v I I I I #
coedge $-1 $199 $200 $201 $202 reversed $74 $-1 #
coedge $-1 $123 $76 $203 $204 reversed $48 $-1 #
coedge $-1 $76 $122 $199 $205 reversed $48 $-1 #
coedge $-1 $201 $206 $76 $125 forward $207 $-1 #
edge $-1 $208 65.048647673542902 $209 72.726920658806918 $124 $210 forward 7 unknown #
loop $-1 $-1 $131 $77 #
plane-surface $-1 -9.2978895261634875 18.839588751275688 88.178411952571579 0.80901700255871778 0 0.5877852410284794 0.5877852410284794 0 -0.80901700255871778 forward_v I I I I #
loop $-1 $-1 $211 $50 #
coedge $-1 $129 $129 $130 $212 reversed $78 $-1 #
coedge $-1 $130 $130 $129 $212 forward $80 $-1 #
coedge $-1 $131 $131 $81 $132 forward $126 $-1 #
edge $-1 $213 0 $213 6.2831853071796004 $131 $214 forward 7 unknown #
loop $-1 $-1 $138 $82 #
plane-surface $-1 -9.2978895261634875 18.839588751275688 88.178411952571579 0.80901700255871778 0 0.5877852410284794 0.5877852410284794 0 -0.80901700255871778 forward_v I I I I #
loop $-1 $-1 $215 $53 #
coedge $-1 $136 $136 $137 $216 reversed $83 $-1 #
coedge $-1 $137 $137 $136 $216 forward $85 $-1 #
coedge $-1 $138 $138 $86 $139 forward $133 $-1 #
edge $-1 $217 0 $217 6.2831853071796004 $138 $218 forward 7 unknown #
face $-1 $219 $220 $21 $-1 $221 reversed single #
loop $-1 $-1 $222 $87 #
plane-surface $-1 -52.958159123508409 0 0 1 0 0 0 0 -1 forward_v I I I I #
coedge $-1 $223 $151 $224 $225 forward $88 $-1 #
coedge $-1 $226 $90 $223 $227 forward $57 $-1 #
coedge $-1 $90 $226 $228 $229 forward $57 $-1 #
coedge $-1 $154 $153 $90 $147 reversed $155 $-1 #
edge $-1 $230 -24.658748905276422 $231 24.658748905276422 $146 $232 forward 7 unknown #
coedge $-1 $92 $91 $233 $234 forward $36 $-1 #
coedge $-1 $235 $236 $91 $150 reversed $220 $-1 #
edge $-1 $157 -52.958159123508409 $237 52.958159123508409 $149 $238 forward 7 unknown #
coedge $-1 $143 $239 $92 $152 reversed $88 $-1 #
edge $-1 $240 -52.958159123508409 $156 52.958159123508409 $151 $241 forward 7 unknown #
coedge $-1 $146 $93 $239 $242 forward $155 $-1 #
coedge $-1 $93 $146 $235 $243 reversed $155 $-1 #
loop $-1 $-1 $153 $219 #
vertex $-1 $94 $244 #
vertex $-1 $94 $245 #
straight-curve $-1 52.958159123508409 0 10.168582627578846 0 1 0 I I #
face $-1 $246 $171 $22 $-1 $247 reversed single #
loop $-1 $-1 $248 $95 #
plane-surface $-1 -51.458159123508409 -32.843267804983853 0 0 1 0 0 0 1 forward_v I I I I #
coedge $-1 $249 $250 $166 $251 forward $96 $-1 #
coedge $-1 $252 $98 $250 $253 forward $61 $-1 #
coedge $-1 $98 $252 $169 $254 forward $61 $-1 #
edge $-1 $172 49.958159123508409 $255 52.958159123508409 $98 $256 forward 7 unknown #
coedge $-1 $100 $99 $162 $251 reversed $39 $-1 #
coedge $-1 $257 $258 $99 $168 forward $259 $-1 #
edge $-1 $260 -52.958159123508409 $173 -49.958159123508409 $167 $261 forward 7 unknown #
coedge $-1 $262 $101 $164 $254 reversed $171 $-1 #
coedge $-1 $101 $262 $257 $263 reversed $171 $-1 #
loop $-1 $-1 $262 $159 #
vertex $-1 $165 $264 #
vertex $-1 $263 $265 #
straight-curve $-1 -49.958159123508409 -24.658748905276422 0 0 0 -1 I I #
face $-1 $-1 $187 $23 $-1 $266 forward single #
loop $-1 $-1 $267 $103 #
plane-surface $-1 -52.958159123508409 0 0 1 0 0 0 0 -1 forward_v I I I I #
coedge $-1 $268 $269 $270 $271 reversed $104 $-1 #
coedge $-1 $272 $106 $108 $185 forward $65 $-1 #
coedge $-1 $106 $272 $268 $273 forward $65 $-1 #
coedge $-1 $270 $109 $106 $182 forward $187 $-1 #
edge $-1 $189 -1.3924310723684226 $274 7.9053120157060039 $181 $275 forward 7 unknown #
coedge $-1 $276 $277 $107 $184 forward $176 $-1 #
edge $-1 $278 -36.732493262830957 $188 -29.288746495309294 $183 $279 forward 7 unknown #
edge $-1 $189 -10.715694212617834 $278 1.9785632286268914e-014 $108 $280 forward 7 unknown #
coedge $-1 $109 $270 $276 $281 forward $187 $-1 #
loop $-1 $-1 $270 $175 #
vertex $-1 $184 $282 #
vertex $-1 $110 $283 #
straight-curve $-1 -63.266908513174826 1.8640093993003681 10.168582627578843 1 0 0 I I #
coedge $-1 $191 $191 $-1 $284 reversed $113 $-1 #
edge $-1 $285 0 $285 6.2831853071796004 $114 $286 forward 7 unknown #
vertex $-1 $117 $287 #
ellipse-curve $-1 -49.104046498034727 6.5128809433375814 6.4467092438180131 -0.69465837861970381 0 0.71933979245794832 0.71933979245794832 0 0.69465837861970381 1 I I #
face $-1 $-1 $207 $25 $-1 $288 reversed single #
loop $-1 $-1 $289 $118 #
plane-surface $-1 0 24.658748905276422 0 0 -1 0 0 0 -1 forward_v I I I I #
coedge $-1 $203 $290 $291 $292 forward $119 $-1 #
coedge $-1 $291 $121 $123 $205 forward $74 $-1 #
coedge $-1 $121 $291 $289 $293 reversed $74 $-1 #
coedge $-1 $294 $124 $121 $202 forward $207 $-1 #
edge $-1 $209 3.6006342216371134 $295 15.238954529638578 $201 $296 forward 7 unknown #
coedge $-1 $297 $198 $122 $204 forward $119 $-1 #
edge $-1 $298 9.1844610293691957 $208 14.763052731461769 $203 $299 forward 7 unknown #
edge $-1 $209 -105.91631824701679 $298 -96.42545098343696 $123 $300 forward 7 unknown #
coedge $-1 $124 $294 $297 $301 reversed $207 $-1 #
loop $-1 $-1 $201 $195 #
vertex $-1 $301 $302 #
vertex $-1 $125 $303 #
straight-curve $-1 52.958159123508409 13.020428597274957 75.217230301121745 0 0 -1 I I #
coedge $-1 $211 $211 $-1 $304 reversed $128 $-1 #
edge $-1 $305 0 $305 6.2831853071796004 $129 $306 forward 7 unknown #
vertex $-1 $132 $307 #
ellipse-curve $-1 50.168863272462119 16.345662970989661 6.3294461349468332 0.80901700255871778 0 0.5877852410284794 0.5877852410284794 0 -0.80901700255871778 1 I I #
coedge $-1 $215 $215 $-1 $308 reversed $135 $-1 #
edge $-1 $309 0 $309 6.2831853071796004 $136 $310 forward 7 unknown #
vertex $-1 $139 $311 #
ellipse-curve $-1 50.168863272462119 21.333514531561715 6.3294461349468332 0.80901700255871778 0 0.5877852410284794 0.5877852410284794 0 -0.80901700255871778 1 I I #
face $-1 $-1 $155 $21 $-1 $312 reversed single #
loop $-1 $-1 $235 $140 #
plane-surface $-1 0 24.658748905276422 0 0 -1 0 0 0 -1 forward_v I I I I #
coedge $-1 $313 $233 $236 $314 forward $141 $-1 #
coedge $-1 $239 $143 $144 $227 reversed $88 $-1 #
coedge $-1 $233 $313 $143 $225 reversed $141 $-1 #
edge $-1 $240 -10.168582627578846 $315 10.168582627578846 $224 $316 forward 7 unknown #
coedge $-1 $145 $144 $313 $317 forward $57 $-1 #
edge $-1 $231 -52.958159123508409 $315 52.958159123508409 $223 $318 forward 7 unknown #
coedge $-1 $236 $235 $145 $229 reversed $220 $-1 #
edge $-1 $319 -52.958159123508409 $230 52.958159123508409 $228 $320 forward 7 unknown #
vertex $-1 $147 $321 #
vertex $-1 $242 $322 #
straight-curve $-1 52.958159123508409 0 -10.168582627578846 0 -1 0 I I #
coedge $-1 $222 $224 $148 $234 reversed $141 $-1 #
edge $-1 $237 -24.658748905276422 $240 24.658748905276422 $233 $323 forward 7 unknown #
coedge $-1 $228 $149 $154 $243 forward $220 $-1 #
coedge $-1 $149 $228 $222 $314 reversed $220 $-1 #
vertex $-1 $150 $324 #
straight-curve $-1 0 24.658748905276422 10.168582627578846 -1 0 0 I I #
coedge $-1 $151 $223 $153 $242 reversed $88 $-1 #
vertex $-1 $234 $325 #
straight-curve $-1 0 -24.658748905276422 10.168582627578846 1 0 0 I I #
edge $-1 $156 -10.168582627578846 $231 10.168582627578846 $153 $326 forward 7 unknown #
edge $-1 $157 -10.168582627578846 $230 10.168582627578846 $154 $327 forward 7 unknown #
point $-1 52.958159123508409 -24.658748905276422 10.168582627578846 #
point $-1 52.958159123508409 24.658748905276422 10.168582627578846 #
face $-1 $-1 $259 $22 $-1 $328 reversed single #
plane-surface $-1 -49.958159123508409 -28.751008355130139 0 -1 0 0 0 0 1 forward_v I I I I #
coedge $-1 $329 $330 $331 $332 forward $160 $-1 #
coedge $-1 $331 $162 $258 $333 reversed $96 $-1 #
coedge $-1 $162 $331 $163 $253 reversed $96 $-1 #
edge $-1 $255 -10.168582627578846 $260 10.168582627578846 $162 $334 forward 7 unknown #
coedge $-1 $164 $163 $330 $335 forward $61 $-1 #
edge $-1 $255 24.658748905276422 $336 32.843267804983853 $250 $337 forward 7 unknown #
edge $-1 $338 -4.0922594498537137 $172 4.0922594498537173 $169 $339 forward 7 unknown #
vertex $-1 $253 $340 #
straight-curve $-1 0 -24.658748905276422 10.168582627578846 -1 0 0 I I #
coedge $-1 $341 $167 $170 $263 forward $259 $-1 #
coedge $-1 $167 $341 $249 $333 forward $259 $-1 #
loop $-1 $-1 $167 $246 #
vertex $-1 $251 $342 #
straight-curve $-1 0 -24.658748905276422 -10.168582627578846 1 0 0 I I #
coedge $-1 $170 $169 $343 $344 forward $171 $-1 #
edge $-1 $173 -4.0922594498537173 $345 4.0922594498537137 $170 $346 forward 7 unknown #
point $-1 -49.958159123508409 -24.658748905276422 10.168582627578846 #
point $-1 -49.958159123508409 -24.658748905276422 -10.168582627578846 #
plane-surface $-1 0 0 10.168582627578846 0 0 1 1 0 0 forward_v I I I I #
coedge $-1 $277 $276 $269 $347 forward $176 $-1 #
coedge $-1 $269 $178 $180 $273 reversed $104 $-1 #
coedge $-1 $178 $268 $267 $347 reversed $104 $-1 #
coedge $-1 $186 $181 $178 $271 forward $187 $-1 #
edge $-1 $274 -18.016974640613782 $348 -10.308749389666417 $270 $349 forward 7 unknown #
coedge $-1 $180 $179 $277 $350 reversed $65 $-1 #
edge $-1 $351 -1.9785632286268914e-014 $274 10.715694212617834 $268 $352 forward 7 unknown #
vertex $-1 $182 $353 #
straight-curve $-1 -45.249933872561044 3.2564404716687907 10.168582627578846 0 1 0 I I #
coedge $-1 $267 $183 $186 $281 reversed $176 $-1 #
coedge $-1 $183 $267 $272 $350 forward $176 $-1 #
vertex $-1 $184 $354 #
straight-curve $-1 -52.958159123508409 1.8640093993003681 39.45732912288814 0 0 1 I I #
straight-curve $-1 -52.958159123508395 1.8640093993003681 2.7248358600571976 -0.71933979245794832 0 -0.69465837861970381 I I #
edge $-1 $348 -11.161752487374795 $188 -1.8640093993003681 $276 $355 forward 7 unknown #
point $-1 -52.958159123508409 1.8640093993003681 10.168582627578846 #
point $-1 -45.249933872561044 1.8640093993003681 10.168582627578846 #
edge $-1 $356 1 $356 0 $191 $-1 forward 7 unknown #
vertex $-1 $192 $357 #
ellipse-curve $-1 -46.538154364501658 6.5128809433375814 3.7896502179516727 -0.69465837861970381 0 0.71933979245794832 0.71933979245794832 0 0.69465837861970381 1 I I #
point $-1 -48.384706705576789 6.5128809433375814 7.1413676224377314 #
plane-surface $-1 52.958159123508409 0 0 -1 0 0 0 0 1 forward_v I I I I #
coedge $-1 $358 $359 $200 $293 forward $196 $-1 #
coedge $-1 $198 $297 $358 $360 forward $119 $-1 #
coedge $-1 $200 $199 $198 $292 reversed $74 $-1 #
edge $-1 $361 -15.238954529638574 $298 -3.6006342216371134 $198 $362 forward 7 unknown #
edge $-1 $295 -67.514819864792074 $361 -58.023952601212244 $289 $363 forward 7 unknown #
coedge $-1 $206 $201 $359 $364 reversed $207 $-1 #
vertex $-1 $202 $365 #
straight-curve $-1 52.958159123508409 9.4197943756378439 2.4903096423148199 0 1 0 I I #
coedge $-1 $290 $203 $206 $301 forward $119 $-1 #
vertex $-1 $204 $366 #
straight-curve $-1 38.19510639204664 13.020428597274957 10.168582627578843 1 0 0 I I #
straight-curve $-1 -9.2978895261634875 13.020428597274957 88.178411952571579 -0.5877852410284794 0 0.80901700255871778 I I #
edge $-1 $208 13.020428597274957 $367 24.658748905276422 $206 $368 forward 7 unknown #
point $-1 52.958159123508409 13.020428597274957 10.168582627578846 #
point $-1 52.958159123508409 13.020428597274957 2.490309642314827 #
edge $-1 $369 1 $369 0 $211 $-1 forward 7 unknown #
vertex $-1 $212 $370 #
ellipse-curve $-1 49.034975341235302 16.345662970989661 5.5056283550392147 0.80901700255871778 0 0.5877852410284794 0.5877852410284794 0 -0.80901700255871778 1 I I #
point $-1 50.756648513490596 16.345662970989661 5.5204291323881147 #
edge $-1 $371 1 $371 0 $215 $-1 forward 7 unknown #
vertex $-1 $216 $372 #
ellipse-curve $-1 49.034975341235302 21.333514531561715 5.5056283550392147 0.80901700255871778 0 0.5877852410284794 0.5877852410284794 0 -0.80901700255871778 1 I I #
point $-1 50.756648513490596 21.333514531561715 5.5204291323881147 #
plane-surface $-1 52.958159123508409 0 0 -1 0 0 0 0 1 forward_v I I I I #
coedge $-1 $224 $222 $226 $317 reversed $141 $-1 #
edge $-1 $237 -10.168582627578846 $319 10.168582627578846 $236 $373 forward 7 unknown #
vertex $-1 $317 $374 #
straight-curve $-1 -52.958159123508409 -24.658748905276422 0 0 0 -1 I I #
edge $-1 $315 -24.658748905276422 $319 24.658748905276422 $313 $375 forward 7 unknown #
straight-curve $-1 0 -24.658748905276422 -10.168582627578846 -1 0 0 I I #
vertex $-1 $229 $376 #
straight-curve $-1 0 24.658748905276422 -10.168582627578846 1 0 0 I I #
point $-1 52.958159123508409 24.658748905276422 -10.168582627578846 #
point $-1 52.958159123508409 -24.658748905276422 -10.168582627578846 #
straight-curve $-1 -52.958159123508409 0 10.168582627578846 0 -1 0 I I #
point $-1 -52.958159123508409 24.658748905276422 10.168582627578846 #
point $-1 -52.958159123508409 -24.658748905276422 10.168582627578846 #
straight-curve $-1 52.958159123508409 -24.658748905276422 0 0 0 -1 I I #
straight-curve $-1 52.958159123508409 24.658748905276422 0 0 0 -1 I I #
plane-surface $-1 0 0 -10.168582627578846 0 0 1 1 0 0 forward_v I I I I #
coedge $-1 $343 $248 $341 $377 reversed $160 $-1 #
coedge $-1 $248 $343 $252 $335 reversed $160 $-1 #
coedge $-1 $250 $249 $248 $332 reversed $96 $-1 #
edge $-1 $336 -10.168582627578846 $378 10.168582627578846 $331 $379 forward 7 unknown #
edge $-1 $378 -32.843267804983853 $260 -24.658748905276422 $249 $380 forward 7 unknown #
straight-curve $-1 -52.958159123508409 -24.658748905276422 0 0 0 -1 I I #
edge $-1 $336 -1.5 $338 1.5 $330 $381 forward 7 unknown #
vertex $-1 $253 $382 #
straight-curve $-1 -52.958159123508409 0 10.168582627578846 0 -1 0 I I #
vertex $-1 $254 $383 #
straight-curve $-1 -49.958159123508409 -28.751008355130139 10.168582627578846 0 1 0 I I #
point $-1 -52.958159123508409 -24.658748905276422 10.168582627578846 #
coedge $-1 $258 $257 $329 $377 forward $259 $-1 #
point $-1 -52.958159123508409 -24.658748905276422 -10.168582627578846 #
coedge $-1 $330 $329 $262 $344 reversed $160 $-1 #
edge $-1 $338 -10.168582627578846 $345 10.168582627578846 $262 $384 forward 7 unknown #
vertex $-1 $344 $385 #
straight-curve $-1 -49.958159123508409 -28.751008355130139 -10.168582627578846 0 -1 0 I I #
edge $-1 $348 29.288746495309294 $351 36.732493262830957 $267 $386 forward 7 unknown #
vertex $-1 $281 $387 #
straight-curve $-1 -63.266908513174826 11.161752487374795 10.168582627578843 -1 0 0 I I #
edge $-1 $351 -7.9053120157060039 $278 1.3924310723684226 $277 $388 forward 7 unknown #
vertex $-1 $350 $389 #
straight-curve $-1 -52.958159123508395 11.161752487374795 2.7248358600571976 0.71933979245794832 0 0.69465837861970381 I I #
point $-1 -45.249933872561044 11.161752487374795 10.168582627578846 #
point $-1 -52.958159123508409 1.8640093993003681 2.7248358600571838 #
straight-curve $-1 -52.958159123508409 0 10.168582627578846 0 -1 0 I I #
vertex $-1 $284 $390 #
point $-1 -45.818814572043706 6.5128809433375814 4.4843085965713767 #
coedge $-1 $359 $289 $290 $360 reversed $196 $-1 #
coedge $-1 $289 $358 $294 $364 forward $196 $-1 #
edge $-1 $367 -52.958159123508409 $361 -47.379567421415835 $358 $391 forward 7 unknown #
vertex $-1 $292 $392 #
straight-curve $-1 47.379567421415835 9.4197943756378439 10.168582627578843 0 -1 0 I I #
straight-curve $-1 13.273944456287236 24.658748905276422 57.110946837620688 -0.5877852410284794 0 0.80901700255871778 I I #
edge $-1 $367 -10.168582627578846 $295 -2.4903096423148305 $294 $393 forward 7 unknown #
point $-1 52.958159123508409 24.658748905276422 2.4903096423148305 #
point $-1 47.379567421415835 13.020428597274957 10.168582627578843 #
vertex $-1 $301 $394 #
straight-curve $-1 52.958159123508409 0 10.168582627578846 0 1 0 I I #
vertex $-1 $304 $395 #
point $-1 49.62276058226378 16.345662970989661 4.6966113524804971 #
vertex $-1 $308 $396 #
point $-1 49.62276058226378 21.333514531561715 4.6966113524804971 #
straight-curve $-1 -52.958159123508409 24.658748905276422 0 0 0 -1 I I #
point $-1 -52.958159123508409 -24.658748905276422 -10.168582627578846 #
straight-curve $-1 -52.958159123508409 0 -10.168582627578846 0 1 0 I I #
point $-1 -52.958159123508409 24.658748905276422 -10.168582627578846 #
edge $-1 $345 -1.5 $378 1.5 $329 $397 forward 7 unknown #
vertex $-1 $333 $398 #
straight-curve $-1 -52.958159123508409 -32.843267804983853 0 0 0 -1 I I #
straight-curve $-1 -52.958159123508409 0 -10.168582627578846 0 1 0 I I #
straight-curve $-1 -51.458159123508409 -32.843267804983853 10.168582627578846 1 0 0 I I #
point $-1 -52.958159123508409 -32.843267804983853 10.168582627578846 #
point $-1 -49.958159123508409 -32.843267804983853 10.168582627578846 #
straight-curve $-1 -49.958159123508409 -32.843267804983853 0 0 0 -1 I I #
point $-1 -49.958159123508409 -32.843267804983853 -10.168582627578846 #
straight-curve $-1 -52.958159123508409 11.161752487374795 39.45732912288814 0 0 -1 I I #
point $-1 -52.958159123508409 11.161752487374795 10.168582627578846 #
straight-curve $-1 -52.958159123508409 3.2564404716687907 2.7248358600571847 0 -1 0 I I #
point $-1 -52.958159123508409 11.161752487374795 2.7248358600571838 #
point $-1 -45.843495985881951 6.5128809433375814 3.0703104254937248 #
straight-curve $-1 0 24.658748905276422 10.168582627578846 -1 0 0 I I #
point $-1 47.379567421415835 24.658748905276418 10.168582627578843 #
straight-curve $-1 52.958159123508409 24.658748905276422 0 0 0 -1 I I #
point $-1 52.958159123508409 24.658748905276422 10.168582627578846 #
point $-1 48.225958338676584 16.345662970989661 4.9178431140107355 #
point $-1 48.225958338676584 21.333514531561715 4.9178431140107355 #
straight-curve $-1 -51.458159123508409 -32.843267804983853 -10.168582627578846 -1 0 0 I I #
point $-1 -52.958159123508409 -32.843267804983853 -10.168582627578846 #
End-of-ACIS-data 