500 0 7 0           
7 Unknown 11 ACIS 5.0 NT 24 Thu Mar 25 21:26:13 1999 
-1 9.9999999999999995e-007 1e-010 
body $-1 $7 $-1 $8 #
body $-1 $9 $-1 $10 #
body $-1 $11 $-1 $12 #
body $-1 $13 $-1 $14 #
body $-1 $15 $-1 $16 #
body $-1 $17 $-1 $18 #
body $-1 $19 $-1 $20 #
lump $-1 $-1 $21 $0 #
transform $-1 1 0 0 0 1 0 0 0 1 68.101443525498212 30.764011878071752 15.000354557205492 1 rotate no_reflect no_shear #
lump $-1 $-1 $22 $1 #
transform $-1 1 0 0 0 1 0 0 0 1 68.101443525498212 30.764011878071752 15.000354557205492 1 rotate no_reflect no_shear #
lump $-1 $-1 $23 $2 #
transform $-1 1 0 0 0 1 0 0 0 1 68.101443525498212 30.764011878071752 15.000354557205492 1 rotate no_reflect no_shear #
lump $-1 $-1 $24 $3 #
transform $-1 1 0 0 0 1 0 0 0 1 68.101443525498212 30.764011878071752 15.000354557205492 1 rotate no_reflect no_shear #
lump $-1 $-1 $25 $4 #
transform $-1 1 0 0 0 1 0 0 0 1 68.101443525498212 30.764011878071752 15.000354557205492 1 rotate no_reflect no_shear #
lump $-1 $-1 $26 $5 #
transform $-1 1 0 0 0 1 0 0 0 1 68.101443525498212 30.764011878071752 15.000354557205492 1 rotate no_reflect no_shear #
lump $-1 $-1 $27 $6 #
transform $-1 1 0 0 0 1 0 0 0 1 68.101443525498212 30.764011878071752 15.000354557205492 1 rotate no_reflect no_shear #
shell $-1 $-1 $-1 $28 $-1 $7 #
shell $-1 $-1 $-1 $29 $-1 $9 #
shell $-1 $-1 $-1 $30 $-1 $11 #
shell $-1 $-1 $-1 $31 $-1 $13 #
shell $-1 $-1 $-1 $32 $-1 $15 #
shell $-1 $-1 $-1 $33 $-1 $17 #
shell $-1 $-1 $-1 $34 $-1 $19 #
face $-1 $35 $36 $21 $-1 $37 forward single #
face $-1 $38 $39 $22 $-1 $40 forward single #
face $-1 $41 $42 $23 $-1 $43 forward single #
face $-1 $44 $45 $24 $-1 $46 reversed single #
face $-1 $47 $48 $25 $-1 $49 forward single #
face $-1 $50 $51 $26 $-1 $52 forward single #
face $-1 $53 $54 $27 $-1 $55 forward single #
face $-1 $56 $57 $21 $-1 $58 reversed single #
loop $-1 $-1 $59 $28 #
plane-surface $-1 0 0 15.000354557205492 0 0 1 1 0 0 forward_v I I I I #
face $-1 $60 $61 $22 $-1 $62 reversed single #
loop $-1 $-1 $63 $29 #
plane-surface $-1 -61.263251253379032 0 -9.8508752557075923 0 0 1 1 0 0 forward_v I I I I #
face $-1 $64 $65 $23 $-1 $66 reversed single #
loop $-1 $-1 $67 $30 #
plane-surface $-1 61.638207471635951 0 1.2235743541919089 0 0 1 1 0 0 forward_v I I I I #
face $-1 $68 $69 $24 $-1 $70 reversed single #
loop $-1 $-1 $71 $31 #
plane-surface $-1 16.085964837094487 -104.94542181971194 114.28099085142225 1 0 0 0 0.54463904215088732 -0.83867056331134215 forward_v I I I I #
face $-1 $72 $73 $25 $-1 $74 forward single #
loop $-1 $75 $76 $32 #
cone-surface $-1 19.547662748443585 -18.927065338016973 7.0217756824556936 0 0.54463904215088732 -0.83867056331134215 1 0 0 1 I I 0 1 1 forward I I I I #
face $-1 $77 $78 $26 $-1 $79 forward single #
loop $-1 $80 $81 $33 #
cone-surface $-1 24.740209615467222 -18.927065338016973 7.0217756824556936 0 0.54463904215088732 -0.83867056331134215 1 0 0 1 I I 0 1 1 forward I I I I #
face $-1 $82 $83 $27 $-1 $84 forward single #
loop $-1 $85 $86 $34 #
cone-surface $-1 29.932756482490859 -18.927065338016973 7.0217756824556936 0 0.54463904215088732 -0.83867056331134215 1 0 0 1 I I 0 1 1 forward I I I I #
face $-1 $87 $88 $21 $-1 $89 reversed single #
loop $-1 $-1 $90 $35 #
plane-surface $-1 0 0 -15.000354557205492 0 0 1 1 0 0 forward_v I I I I #
coedge $-1 $91 $92 $93 $94 forward $36 $-1 #
face $-1 $95 $96 $22 $-1 $97 reversed single #
loop $-1 $-1 $98 $38 #
plane-surface $-1 -54.425058981259852 0 -12.425614906456541 -1 0 0 0 0 1 forward_v I I I I #
coedge $-1 $99 $100 $101 $102 forward $39 $-1 #
face $-1 $103 $104 $23 $-1 $105 reversed single #
loop $-1 $-1 $106 $41 #
plane-surface $-1 61.638207471635951 0 -4.1024281785221053 0 0 1 1 0 0 forward_v I I I I #
coedge $-1 $107 $108 $109 $110 reversed $42 $-1 #
face $-1 $111 $112 $24 $-1 $113 reversed single #
loop $-1 $-1 $114 $44 #
plane-surface $-1 24.740209615467222 -30.764011878071756 0.051638843731964812 0 -0.54463904215088732 0.83867056331134215 1 0 0 forward_v I I I I #
coedge $-1 $115 $116 $117 $118 reversed $45 $-1 #
face $-1 $-1 $119 $25 $-1 $120 forward single #
loop $-1 $121 $122 $47 #
cone-surface $-1 19.547662748443585 -18.327300853094595 6.0982193827869775 0 0.54463904215088732 -0.83867056331134215 0.5 0 0 1 I I -0.70710678118654746 0.70710678118654746 0.5 forward I I I I #
loop $-1 $-1 $123 $32 #
coedge $-1 $76 $76 $124 $125 reversed $48 $-1 #
face $-1 $-1 $126 $26 $-1 $127 forward single #
loop $-1 $128 $129 $50 #
cone-surface $-1 24.740209615467222 -18.327300853094595 6.0982193827869775 0 0.54463904215088732 -0.83867056331134215 0.5 0 0 1 I I -0.70710678118654746 0.70710678118654746 0.5 forward I I I I #
loop $-1 $-1 $130 $33 #
coedge $-1 $81 $81 $131 $132 reversed $51 $-1 #
face $-1 $-1 $133 $27 $-1 $134 forward single #
loop $-1 $135 $136 $53 #
cone-surface $-1 29.932756482490859 -18.327300853094595 6.0982193827869775 0 0.54463904215088732 -0.83867056331134215 0.5 0 0 1 I I -0.70710678118654746 0.70710678118654746 0.5 forward I I I I #
loop $-1 $-1 $137 $34 #
coedge $-1 $86 $86 $138 $139 reversed $54 $-1 #
face $-1 $140 $141 $21 $-1 $142 reversed single #
loop $-1 $-1 $143 $56 #
plane-surface $-1 0 -30.764011878071752 0 0 1 0 0 0 1 forward_v I I I I #
coedge $-1 $144 $145 $146 $147 forward $57 $-1 #
coedge $-1 $148 $59 $149 $150 forward $36 $-1 #
coedge $-1 $59 $148 $151 $152 forward $36 $-1 #
coedge $-1 $153 $154 $59 $94 reversed $155 $-1 #
edge $-1 $156 -30.764011878071752 $157 30.764011878071752 $93 $158 forward 7 unknown #
face $-1 $159 $160 $22 $-1 $161 reversed single #
loop $-1 $-1 $162 $60 #
plane-surface $-1 0 0 -15.000354557205492 0 0 1 1 0 0 forward_v I I I I #
coedge $-1 $163 $101 $164 $165 reversed $61 $-1 #
coedge $-1 $166 $63 $167 $168 reversed $39 $-1 #
coedge $-1 $63 $166 $169 $170 reversed $39 $-1 #
coedge $-1 $98 $171 $63 $102 reversed $61 $-1 #
edge $-1 $172 -30.764011878071752 $173 30.764011878071752 $101 $174 forward 7 unknown #
face $-1 $175 $176 $23 $-1 $177 reversed single #
loop $-1 $-1 $178 $64 #
plane-surface $-1 55.174971417773698 0 -1.4394269121650982 1 0 0 0 0 -1 forward_v I I I I #
coedge $-1 $179 $180 $181 $182 reversed $65 $-1 #
coedge $-1 $183 $67 $184 $185 reversed $42 $-1 #
coedge $-1 $67 $183 $186 $187 reversed $42 $-1 #
coedge $-1 $188 $189 $67 $110 forward $190 $-1 #
edge $-1 $191 -30.764011878071752 $192 30.764011878071752 $109 $193 forward 7 unknown #
face $-1 $194 $195 $24 $-1 $196 forward single #
loop $-1 $-1 $197 $68 #
plane-surface $-1 33.394454393839958 -104.94542181971194 114.28099085142225 -1 0 0 0 -0.54463904215088732 0.83867056331134215 forward_v I I I I #
coedge $-1 $198 $199 $200 $201 reversed $69 $-1 #
coedge $-1 $116 $71 $202 $203 reversed $45 $-1 #
coedge $-1 $71 $115 $198 $204 reversed $45 $-1 #
coedge $-1 $200 $205 $71 $118 forward $206 $-1 #
edge $-1 $207 42.140140868505632 $208 57.088856581979158 $117 $209 forward 7 unknown #
loop $-1 $-1 $124 $72 #
plane-surface $-1 24.740209615467222 -30.764011878071756 0.051638843731964812 0 -0.54463904215088732 0.83867056331134215 1 0 0 forward_v I I I I #
loop $-1 $-1 $210 $47 #
coedge $-1 $122 $122 $123 $211 reversed $73 $-1 #
coedge $-1 $123 $123 $122 $211 forward $75 $-1 #
coedge $-1 $124 $124 $76 $125 forward $119 $-1 #
edge $-1 $212 8.1320024813685592e-016 $212 6.2831853071796013 $124 $213 forward 7 unknown #
loop $-1 $-1 $131 $77 #
plane-surface $-1 24.740209615467222 -30.764011878071756 0.051638843731964812 0 -0.54463904215088732 0.83867056331134215 1 0 0 forward_v I I I I #
loop $-1 $-1 $214 $50 #
coedge $-1 $129 $129 $130 $215 reversed $78 $-1 #
coedge $-1 $130 $130 $129 $215 forward $80 $-1 #
coedge $-1 $131 $131 $81 $132 forward $126 $-1 #
edge $-1 $216 8.1320024813685592e-016 $216 6.2831853071796013 $131 $217 forward 7 unknown #
loop $-1 $-1 $138 $82 #
plane-surface $-1 24.740209615467222 -30.764011878071756 0.051638843731964812 0 -0.54463904215088732 0.83867056331134215 1 0 0 forward_v I I I I #
loop $-1 $-1 $218 $53 #
coedge $-1 $136 $136 $137 $219 reversed $83 $-1 #
coedge $-1 $137 $137 $136 $219 forward $85 $-1 #
coedge $-1 $138 $138 $86 $139 forward $133 $-1 #
edge $-1 $220 8.1320024813685592e-016 $220 6.2831853071796013 $138 $221 forward 7 unknown #
face $-1 $222 $223 $21 $-1 $224 reversed single #
loop $-1 $-1 $225 $87 #
plane-surface $-1 -68.101443525498212 0 0 1 0 0 0 0 -1 forward_v I I I I #
coedge $-1 $226 $151 $227 $228 forward $88 $-1 #
coedge $-1 $229 $90 $226 $230 forward $57 $-1 #
coedge $-1 $90 $229 $231 $232 forward $57 $-1 #
coedge $-1 $154 $153 $90 $147 reversed $155 $-1 #
edge $-1 $233 -30.764011878071752 $234 30.764011878071752 $146 $235 forward 7 unknown #
coedge $-1 $92 $91 $236 $237 forward $36 $-1 #
coedge $-1 $238 $239 $91 $150 reversed $223 $-1 #
edge $-1 $157 -68.101443525498212 $240 68.101443525498212 $149 $241 forward 7 unknown #
coedge $-1 $143 $242 $92 $152 reversed $88 $-1 #
edge $-1 $243 -68.101443525498212 $156 68.101443525498212 $151 $244 forward 7 unknown #
coedge $-1 $146 $93 $242 $245 forward $155 $-1 #
coedge $-1 $93 $146 $238 $246 reversed $155 $-1 #
loop $-1 $-1 $153 $222 #
vertex $-1 $94 $247 #
vertex $-1 $94 $248 #
straight-curve $-1 68.101443525498212 0 15.000354557205492 0 1 0 I I #
face $-1 $249 $250 $22 $-1 $251 reversed single #
loop $-1 $-1 $164 $95 #
plane-surface $-1 0 -30.764011878071752 0 0 1 0 0 0 1 forward_v I I I I #
coedge $-1 $252 $253 $163 $254 forward $96 $-1 #
coedge $-1 $171 $98 $162 $254 reversed $61 $-1 #
coedge $-1 $169 $255 $98 $165 forward $160 $-1 #
edge $-1 $256 -8.7875471039772197 $172 -3.6380678024793216 $164 $257 forward 7 unknown #
coedge $-1 $100 $99 $258 $259 reversed $39 $-1 #
coedge $-1 $260 $261 $99 $168 forward $262 $-1 #
edge $-1 $263 -37.469817898808699 $173 -23.793433354570336 $167 $264 forward 7 unknown #
coedge $-1 $265 $164 $100 $170 forward $160 $-1 #
edge $-1 $172 23.793433354570336 $266 37.469817898808699 $169 $267 forward 7 unknown #
coedge $-1 $101 $163 $260 $268 reversed $61 $-1 #
vertex $-1 $170 $269 #
vertex $-1 $168 $270 #
straight-curve $-1 -54.425058981259852 0 -9.8508752557075923 0 1 0 I I #
face $-1 $271 $272 $23 $-1 $273 reversed single #
loop $-1 $-1 $186 $103 #
plane-surface $-1 0 -30.764011878071752 0 0 1 0 0 0 1 forward_v I I I I #
coedge $-1 $274 $275 $276 $277 reversed $104 $-1 #
coedge $-1 $278 $106 $279 $280 reversed $65 $-1 #
coedge $-1 $106 $278 $281 $282 reversed $65 $-1 #
coedge $-1 $189 $188 $106 $182 forward $190 $-1 #
edge $-1 $283 -30.764011878071752 $284 30.764011878071752 $181 $285 forward 7 unknown #
coedge $-1 $108 $107 $275 $286 forward $42 $-1 #
coedge $-1 $287 $276 $107 $185 forward $272 $-1 #
edge $-1 $288 24.355867681955722 $191 37.282339789680236 $184 $289 forward 7 unknown #
coedge $-1 $290 $291 $108 $187 forward $176 $-1 #
edge $-1 $192 -37.282339789680236 $292 -24.355867681955722 $186 $293 forward 7 unknown #
coedge $-1 $181 $109 $291 $294 forward $190 $-1 #
coedge $-1 $109 $181 $287 $295 reversed $190 $-1 #
loop $-1 $-1 $109 $271 #
vertex $-1 $295 $296 #
vertex $-1 $294 $297 #
straight-curve $-1 68.101443525498212 0 1.2235743541919089 0 -1 0 I I #
face $-1 $-1 $206 $24 $-1 $298 reversed single #
loop $-1 $-1 $299 $111 #
plane-surface $-1 0 0 15.000354557205492 0 0 1 1 0 0 forward_v I I I I #
coedge $-1 $300 $301 $302 $303 reversed $112 $-1 #
coedge $-1 $304 $114 $116 $204 forward $69 $-1 #
coedge $-1 $114 $304 $300 $305 forward $69 $-1 #
coedge $-1 $302 $117 $114 $201 forward $206 $-1 #
edge $-1 $208 3.7158600293608757 $306 21.024349586106347 $200 $307 forward 7 unknown #
coedge $-1 $308 $309 $115 $203 forward $195 $-1 #
edge $-1 $310 -44.727702184199941 $207 -21.708699031784217 $202 $311 forward 7 unknown #
edge $-1 $208 4.2342483020478672e-015 $310 27.447014548274197 $116 $312 forward 7 unknown #
coedge $-1 $117 $302 $308 $313 reversed $206 $-1 #
loop $-1 $-1 $302 $194 #
vertex $-1 $313 $314 #
vertex $-1 $118 $315 #
straight-curve $-1 16.085964837094487 -30.764011878071756 57.140495425711123 0 0 -1 I I #
coedge $-1 $210 $210 $-1 $316 reversed $121 $-1 #
edge $-1 $317 0 $317 6.2831853071796004 $122 $318 forward 7 unknown #
vertex $-1 $125 $319 #
ellipse-curve $-1 19.547662748443585 -19.254510301863899 7.5259967004687258 0 -0.54463904215088732 0.83867056331134215 1 0 0 1 I I #
coedge $-1 $214 $214 $-1 $320 reversed $128 $-1 #
edge $-1 $321 0 $321 6.2831853071796004 $129 $322 forward 7 unknown #
vertex $-1 $132 $323 #
ellipse-curve $-1 24.740209615467222 -19.254510301863899 7.5259967004687258 0 -0.54463904215088732 0.83867056331134215 1 0 0 1 I I #
coedge $-1 $218 $218 $-1 $324 reversed $135 $-1 #
edge $-1 $325 0 $325 6.2831853071796004 $136 $326 forward 7 unknown #
vertex $-1 $139 $327 #
ellipse-curve $-1 29.932756482490859 -19.254510301863899 7.5259967004687258 0 -0.54463904215088732 0.83867056331134215 1 0 0 1 I I #
face $-1 $-1 $155 $21 $-1 $328 reversed single #
loop $-1 $-1 $238 $140 #
plane-surface $-1 0 30.764011878071752 0 0 -1 0 0 0 -1 forward_v I I I I #
coedge $-1 $329 $236 $239 $330 forward $141 $-1 #
coedge $-1 $242 $143 $144 $230 reversed $88 $-1 #
coedge $-1 $236 $329 $143 $228 reversed $141 $-1 #
edge $-1 $243 -15.000354557205492 $331 15.000354557205492 $227 $332 forward 7 unknown #
coedge $-1 $145 $144 $329 $333 forward $57 $-1 #
edge $-1 $234 -68.101443525498212 $331 68.101443525498212 $226 $334 forward 7 unknown #
coedge $-1 $239 $238 $145 $232 reversed $223 $-1 #
edge $-1 $335 -68.101443525498212 $233 68.101443525498212 $231 $336 forward 7 unknown #
vertex $-1 $147 $337 #
vertex $-1 $245 $338 #
straight-curve $-1 68.101443525498212 0 -15.000354557205492 0 -1 0 I I #
coedge $-1 $225 $227 $148 $237 reversed $141 $-1 #
edge $-1 $240 -30.764011878071752 $243 30.764011878071752 $236 $339 forward 7 unknown #
coedge $-1 $231 $149 $154 $246 forward $223 $-1 #
coedge $-1 $149 $231 $225 $330 reversed $223 $-1 #
vertex $-1 $150 $340 #
straight-curve $-1 0 30.764011878071752 15.000354557205492 -1 0 0 I I #
coedge $-1 $151 $226 $153 $245 reversed $88 $-1 #
vertex $-1 $237 $341 #
straight-curve $-1 0 -30.764011878071752 15.000354557205492 1 0 0 I I #
edge $-1 $156 -15.000354557205492 $234 15.000354557205492 $153 $342 forward 7 unknown #
edge $-1 $157 -15.000354557205492 $233 15.000354557205492 $154 $343 forward 7 unknown #
point $-1 68.101443525498212 -30.764011878071752 15.000354557205492 #
point $-1 68.101443525498212 30.764011878071752 15.000354557205492 #
face $-1 $-1 $262 $22 $-1 $344 reversed single #
loop $-1 $-1 $258 $159 #
plane-surface $-1 -68.101443525498212 0 0 1 0 0 0 0 -1 forward_v I I I I #
coedge $-1 $345 $162 $255 $346 forward $96 $-1 #
coedge $-1 $162 $345 $347 $348 forward $96 $-1 #
edge $-1 $349 -30.764011878071752 $256 30.764011878071752 $162 $350 forward 7 unknown #
coedge $-1 $164 $265 $252 $346 reversed $160 $-1 #
vertex $-1 $346 $351 #
straight-curve $-1 -54.425058981259852 -30.764011878071752 -6.2128074532282707 0 0 1 I I #
coedge $-1 $352 $353 $166 $259 forward $250 $-1 #
edge $-1 $266 -30.764011878071752 $263 30.764011878071752 $258 $354 forward 7 unknown #
coedge $-1 $347 $167 $171 $268 forward $262 $-1 #
coedge $-1 $167 $347 $352 $355 reversed $262 $-1 #
loop $-1 $-1 $260 $249 #
vertex $-1 $355 $356 #
straight-curve $-1 -30.631625626689516 30.764011878071752 -9.8508752557075923 1 0 0 I I #
coedge $-1 $255 $169 $353 $357 forward $160 $-1 #
vertex $-1 $357 $358 #
straight-curve $-1 -30.631625626689516 -30.764011878071752 -9.8508752557075923 -1 0 0 I I #
edge $-1 $173 3.6380678024793216 $349 8.7875471039772197 $260 $359 forward 7 unknown #
point $-1 -54.425058981259852 -30.764011878071752 -9.8508752557075923 #
point $-1 -54.425058981259852 30.764011878071752 -9.8508752557075923 #
face $-1 $-1 $190 $23 $-1 $360 reversed single #
loop $-1 $-1 $184 $175 #
plane-surface $-1 0 30.764011878071752 0 0 -1 0 0 0 -1 forward_v I I I I #
coedge $-1 $361 $178 $278 $362 reversed $104 $-1 #
coedge $-1 $178 $361 $183 $286 reversed $104 $-1 #
coedge $-1 $184 $281 $178 $277 forward $272 $-1 #
edge $-1 $363 -3.3827147224395562 $288 1.943287810274458 $276 $364 forward 7 unknown #
coedge $-1 $180 $179 $274 $362 forward $65 $-1 #
coedge $-1 $291 $290 $179 $280 forward $176 $-1 #
edge $-1 $365 24.355867681955722 $283 37.282339789680236 $279 $366 forward 7 unknown #
coedge $-1 $276 $287 $180 $282 forward $272 $-1 #
edge $-1 $284 -37.282339789680236 $363 -24.355867681955722 $281 $367 forward 7 unknown #
vertex $-1 $182 $368 #
vertex $-1 $182 $369 #
straight-curve $-1 68.101443525498212 0 -4.1024281785221053 0 1 0 I I #
edge $-1 $288 -30.764011878071752 $292 30.764011878071752 $275 $370 forward 7 unknown #
coedge $-1 $281 $184 $189 $295 forward $272 $-1 #
vertex $-1 $185 $371 #
straight-curve $-1 30.819103735817976 30.764011878071752 1.2235743541919089 1 0 0 I I #
coedge $-1 $279 $186 $361 $372 forward $176 $-1 #
coedge $-1 $186 $279 $188 $294 reversed $176 $-1 #
vertex $-1 $187 $373 #
straight-curve $-1 30.819103735817976 -30.764011878071752 1.2235743541919089 -1 0 0 I I #
edge $-1 $192 -1.2235743541919089 $283 4.1024281785221053 $188 $374 forward 7 unknown #
edge $-1 $191 -1.2235743541919089 $284 4.1024281785221053 $189 $375 forward 7 unknown #
point $-1 68.101443525498212 30.764011878071752 1.2235743541919089 #
point $-1 68.101443525498212 -30.764011878071752 1.2235743541919089 #
plane-surface $-1 0 -30.764011878071752 0 0 1 0 0 0 1 forward_v I I I I #
coedge $-1 $309 $308 $301 $376 forward $195 $-1 #
coedge $-1 $301 $197 $199 $305 reversed $112 $-1 #
coedge $-1 $197 $300 $299 $376 reversed $112 $-1 #
coedge $-1 $205 $200 $197 $303 forward $206 $-1 #
edge $-1 $306 -57.088856581979158 $377 -42.140140868505632 $302 $378 forward 7 unknown #
coedge $-1 $199 $198 $309 $379 reversed $69 $-1 #
edge $-1 $380 -27.447014548274197 $306 -4.2342483020478672e-015 $300 $381 forward 7 unknown #
vertex $-1 $201 $382 #
straight-curve $-1 12.370104807733611 -30.764011878071752 0.05163884373196756 1 0 0 I I #
coedge $-1 $299 $202 $205 $313 forward $195 $-1 #
coedge $-1 $202 $299 $304 $379 forward $195 $-1 #
vertex $-1 $203 $383 #
straight-curve $-1 16.085964837094487 -52.472710909855969 15.00035455720549 0 -1 0 I I #
straight-curve $-1 16.085964837094487 -30.764011878071756 0.051638843731964812 0 0.83867056331134215 0.54463904215088732 I I #
edge $-1 $207 16.085964837094487 $377 33.394454393839958 $205 $384 forward 7 unknown #
point $-1 16.085964837094487 -30.764011878071752 15.000354557205492 #
point $-1 16.085964837094487 -30.764011878071752 0.051638843731967116 #
edge $-1 $385 1 $385 0 $210 $-1 forward 7 unknown #
vertex $-1 $211 $386 #
ellipse-curve $-1 19.547662748443585 -18.599620374170037 6.517554664442649 0 -0.54463904215088732 0.83867056331134215 1 0 0 1 I I #
point $-1 20.547662748443585 -19.254510301863906 7.5259967004687383 #
edge $-1 $387 1 $387 0 $214 $-1 forward 7 unknown #
vertex $-1 $215 $388 #
ellipse-curve $-1 24.740209615467222 -18.599620374170037 6.517554664442649 0 -0.54463904215088732 0.83867056331134215 1 0 0 1 I I #
point $-1 25.740209615467222 -19.254510301863906 7.5259967004687383 #
edge $-1 $389 1 $389 0 $218 $-1 forward 7 unknown #
vertex $-1 $219 $390 #
ellipse-curve $-1 29.932756482490859 -18.599620374170037 6.517554664442649 0 -0.54463904215088732 0.83867056331134215 1 0 0 1 I I #
point $-1 30.932756482490859 -19.254510301863906 7.5259967004687383 #
plane-surface $-1 68.101443525498212 0 0 -1 0 0 0 0 1 forward_v I I I I #
coedge $-1 $227 $225 $229 $333 reversed $141 $-1 #
edge $-1 $240 -15.000354557205492 $335 15.000354557205492 $239 $391 forward 7 unknown #
vertex $-1 $333 $392 #
straight-curve $-1 -68.101443525498212 -30.764011878071752 0 0 0 -1 I I #
edge $-1 $331 -30.764011878071752 $335 30.764011878071752 $329 $393 forward 7 unknown #
straight-curve $-1 0 -30.764011878071752 -15.000354557205492 -1 0 0 I I #
vertex $-1 $232 $394 #
straight-curve $-1 0 30.764011878071752 -15.000354557205492 1 0 0 I I #
point $-1 68.101443525498212 30.764011878071752 -15.000354557205492 #
point $-1 68.101443525498212 -30.764011878071752 -15.000354557205492 #
straight-curve $-1 -68.101443525498212 0 15.000354557205492 0 -1 0 I I #
point $-1 -68.101443525498212 30.764011878071752 15.000354557205492 #
point $-1 -68.101443525498212 -30.764011878071752 15.000354557205492 #
straight-curve $-1 68.101443525498212 -30.764011878071752 0 0 0 -1 I I #
straight-curve $-1 68.101443525498212 30.764011878071752 0 0 0 -1 I I #
plane-surface $-1 0 30.764011878071752 0 0 -1 0 0 0 -1 forward_v I I I I #
coedge $-1 $253 $252 $395 $396 forward $96 $-1 #
edge $-1 $256 54.425058981259852 $397 68.101443525498212 $255 $398 forward 7 unknown #
coedge $-1 $261 $260 $253 $348 reversed $262 $-1 #
edge $-1 $399 -68.101443525498212 $349 -54.425058981259852 $347 $400 forward 7 unknown #
vertex $-1 $268 $401 #
straight-curve $-1 -54.425058981259852 0 -15.000354557205492 0 -1 0 I I #
point $-1 -54.425058981259852 -30.764011878071752 -15.00035455720549 #
coedge $-1 $395 $258 $261 $355 forward $250 $-1 #
coedge $-1 $258 $395 $265 $357 reversed $250 $-1 #
straight-curve $-1 -68.101443525498212 0 -9.8508752557075923 0 1 0 I I #
edge $-1 $263 9.8508752557075923 $399 15.000354557205492 $261 $402 forward 7 unknown #
point $-1 -68.101443525498212 30.764011878071752 -9.8508752557075923 #
edge $-1 $266 9.8508752557075923 $397 15.000354557205492 $353 $403 forward 7 unknown #
point $-1 -68.101443525498212 -30.764011878071752 -9.8508752557075923 #
straight-curve $-1 -54.425058981259852 30.764011878071752 -6.2128074532282707 0 0 -1 I I #
plane-surface $-1 68.101443525498212 0 0 -1 0 0 0 0 1 forward_v I I I I #
coedge $-1 $275 $274 $290 $372 reversed $104 $-1 #
edge $-1 $365 -30.764011878071752 $363 30.764011878071752 $274 $404 forward 7 unknown #
vertex $-1 $282 $405 #
straight-curve $-1 55.174971417773698 30.764011878071752 -0.71971345608254911 0 0 1 I I #
vertex $-1 $280 $406 #
straight-curve $-1 30.819103735817976 -30.764011878071752 -4.1024281785221053 1 0 0 I I #
straight-curve $-1 30.819103735817976 30.764011878071752 -4.1024281785221053 -1 0 0 I I #
point $-1 68.101443525498212 -30.764011878071752 -4.1024281785221053 #
point $-1 68.101443525498212 30.764011878071752 -4.1024281785221053 #
straight-curve $-1 55.174971417773698 0 1.2235743541919089 0 -1 0 I I #
point $-1 55.174971417773698 30.764011878071752 1.2235743541919089 #
edge $-1 $292 -1.943287810274458 $365 3.3827147224395562 $290 $407 forward 7 unknown #
point $-1 55.174971417773698 -30.764011878071752 1.2235743541919089 #
straight-curve $-1 68.101443525498212 -30.764011878071752 0 0 0 -1 I I #
straight-curve $-1 68.101443525498212 30.764011878071752 0 0 0 -1 I I #
edge $-1 $377 21.708699031784217 $380 44.727702184199941 $299 $408 forward 7 unknown #
vertex $-1 $376 $409 #
straight-curve $-1 33.394454393839958 -30.764011878071756 57.140495425711123 0 0 1 I I #
edge $-1 $380 -21.024349586106347 $310 -3.7158600293608757 $309 $410 forward 7 unknown #
vertex $-1 $379 $411 #
straight-curve $-1 33.394454393839958 -30.764011878071756 0.051638843731964812 0 -0.83867056331134215 -0.54463904215088732 I I #
point $-1 33.394454393839958 -30.764011878071752 0.051638843731967116 #
point $-1 16.085964837094487 -7.7450087256560316 15.000354557205492 #
straight-curve $-1 0 -30.764011878071752 15.000354557205492 1 0 0 I I #
vertex $-1 $316 $412 #
point $-1 20.547662748443585 -18.599620374170037 6.517554664442649 #
vertex $-1 $320 $413 #
point $-1 25.740209615467222 -18.599620374170037 6.517554664442649 #
vertex $-1 $324 $414 #
point $-1 30.932756482490859 -18.599620374170037 6.517554664442649 #
straight-curve $-1 -68.101443525498212 30.764011878071752 0 0 0 -1 I I #
point $-1 -68.101443525498212 -30.764011878071752 -15.000354557205492 #
straight-curve $-1 -68.101443525498212 0 -15.000354557205492 0 1 0 I I #
point $-1 -68.101443525498212 30.764011878071752 -15.000354557205492 #
coedge $-1 $353 $352 $345 $396 reversed $250 $-1 #
edge $-1 $397 -30.764011878071752 $399 30.764011878071752 $395 $415 forward 7 unknown #
vertex $-1 $396 $416 #
straight-curve $-1 0 -30.764011878071752 -15.000354557205492 -1 0 0 I I #
vertex $-1 $348 $417 #
straight-curve $-1 0 30.764011878071752 -15.000354557205492 1 0 0 I I #
point $-1 -54.425058981259852 30.764011878071752 -15.00035455720549 #
straight-curve $-1 -68.101443525498212 30.764011878071752 0 0 0 -1 I I #
straight-curve $-1 -68.101443525498212 -30.764011878071752 0 0 0 -1 I I #
straight-curve $-1 55.174971417773698 0 -4.1024281785221053 0 1 0 I I #
point $-1 55.174971417773698 30.764011878071752 -4.1024281785221053 #
point $-1 55.174971417773698 -30.764011878071752 -4.1024281785221053 #
straight-curve $-1 55.174971417773698 -30.764011878071752 -0.71971345608254911 0 0 -1 I I #
straight-curve $-1 33.394454393839958 -52.472710909855969 15.00035455720549 0 1 0 I I #
point $-1 33.394454393839958 -30.764011878071752 15.000354557205492 #
straight-curve $-1 12.370104807733611 -7.745008725656028 15.000354557205494 -1 0 0 I I #
point $-1 33.394454393839958 -7.7450087256560316 15.000354557205492 #
point $-1 19.547662748443585 -18.054981332019153 5.678884101131306 #
point $-1 24.740209615467222 -18.054981332019153 5.678884101131306 #
point $-1 29.932756482490859 -18.054981332019153 5.678884101131306 #
straight-curve $-1 -68.101443525498212 0 -15.000354557205492 0 1 0 I I #
point $-1 -68.101443525498212 -30.764011878071752 -15.000354557205492 #
point $-1 -68.101443525498212 30.764011878071752 -15.000354557205492 #
End-of-ACIS-data 