500 0 11 0           
7 Unknown 11 ACIS 5.0 NT 24 Thu Mar 25 19:43:58 1999 
-1 9.9999999999999995e-007 1e-010 
body $-1 $11 $-1 $12 #
body $-1 $13 $-1 $14 #
body $-1 $15 $-1 $16 #
body $-1 $17 $-1 $18 #
body $-1 $19 $-1 $20 #
body $-1 $21 $-1 $22 #
body $-1 $23 $-1 $24 #
body $-1 $25 $-1 $26 #
body $-1 $27 $-1 $28 #
body $-1 $29 $-1 $30 #
body $-1 $31 $-1 $32 #
lump $-1 $-1 $33 $0 #
transform $-1 1 0 0 0 1 0 0 0 1 44.112674336985378 18.175358818974534 6.5804483722349465 1 rotate no_reflect no_shear #
lump $-1 $-1 $34 $1 #
transform $-1 1 0 0 0 1 0 0 0 1 44.112674336985378 18.175358818974534 6.5804483722349465 1 rotate no_reflect no_shear #
lump $-1 $-1 $35 $2 #
transform $-1 1 0 0 0 1 0 0 0 1 44.112674336985378 18.175358818974534 6.5804483722349465 1 rotate no_reflect no_shear #
lump $-1 $-1 $36 $3 #
transform $-1 1 0 0 0 1 0 0 0 1 44.112674336985378 18.175358818974534 6.5804483722349465 1 rotate no_reflect no_shear #
lump $-1 $-1 $37 $4 #
transform $-1 1 0 0 0 1 0 0 0 1 44.112674336985378 18.175358818974534 6.5804483722349465 1 rotate no_reflect no_shear #
lump $-1 $-1 $38 $5 #
transform $-1 1 0 0 0 1 0 0 0 1 44.112674336985378 18.175358818974534 6.5804483722349465 1 rotate no_reflect no_shear #
lump $-1 $-1 $39 $6 #
transform $-1 1 0 0 0 1 0 0 0 1 44.112674336985378 18.175358818974534 6.5804483722349465 1 rotate no_reflect no_shear #
lump $-1 $-1 $40 $7 #
transform $-1 1 0 0 0 1 0 0 0 1 44.112674336985378 18.175358818974534 6.5804483722349465 1 rotate no_reflect no_shear #
lump $-1 $-1 $41 $8 #
transform $-1 1 0 0 0 1 0 0 0 1 44.112674336985378 18.175358818974534 6.5804483722349465 1 rotate no_reflect no_shear #
lump $-1 $-1 $42 $9 #
transform $-1 1 0 0 0 1 0 0 0 1 44.112674336985378 18.175358818974534 6.5804483722349465 1 rotate no_reflect no_shear #
lump $-1 $-1 $43 $10 #
transform $-1 1 0 0 0 1 0 0 0 1 44.112674336985378 18.175358818974534 6.5804483722349465 1 rotate no_reflect no_shear #
shell $-1 $-1 $-1 $44 $-1 $11 #
shell $-1 $-1 $-1 $45 $-1 $13 #
shell $-1 $-1 $-1 $46 $-1 $15 #
shell $-1 $-1 $-1 $47 $-1 $17 #
shell $-1 $-1 $-1 $48 $-1 $19 #
shell $-1 $-1 $-1 $49 $-1 $21 #
shell $-1 $-1 $-1 $50 $-1 $23 #
shell $-1 $-1 $-1 $51 $-1 $25 #
shell $-1 $-1 $-1 $52 $-1 $27 #
shell $-1 $-1 $-1 $53 $-1 $29 #
shell $-1 $-1 $-1 $54 $-1 $31 #
face $-1 $55 $56 $33 $-1 $57 forward single #
face $-1 $58 $59 $34 $-1 $60 reversed single #
face $-1 $61 $62 $35 $-1 $63 reversed single #
face $-1 $64 $65 $36 $-1 $66 forward single #
face $-1 $67 $68 $37 $-1 $69 forward single #
face $-1 $70 $71 $38 $-1 $72 reversed single #
face $-1 $73 $74 $39 $-1 $75 forward single #
face $-1 $76 $77 $40 $-1 $78 forward single #
face $-1 $79 $80 $41 $-1 $81 reversed single #
face $-1 $82 $83 $42 $-1 $84 forward single #
face $-1 $85 $86 $43 $-1 $87 forward single #
face $-1 $88 $89 $33 $-1 $90 reversed single #
loop $-1 $-1 $91 $44 #
plane-surface $-1 0 0 6.5804483722349465 0 0 1 1 0 0 forward_v I I I I #
face $-1 $92 $93 $34 $-1 $94 reversed single #
loop $-1 $-1 $95 $45 #
plane-surface $-1 -40.039969832202587 -8.0144620745046407 0 0 1 0 0 0 1 forward_v I I I I #
face $-1 $96 $97 $35 $-1 $98 reversed single #
loop $-1 $-1 $99 $46 #
plane-surface $-1 -19.855372604640014 -66.226328214194027 75.366400271354223 -1 0 0 0 -0.54463904215088732 0.83867056331134215 forward_v I I I I #
face $-1 $100 $101 $36 $-1 $102 forward single #
loop $-1 $103 $104 $47 #
cone-surface $-1 -29.056383769687312 -13.653760390329785 3.1870244469704048 0 0.54463904215088732 -0.83867056331134215 1 0 0 1 I I 0 1 1 forward I I I I #
face $-1 $105 $106 $37 $-1 $107 forward single #
loop $-1 $108 $109 $48 #
cone-surface $-1 -23.535777070658931 -13.653760390329785 3.1870244469704048 0 0.54463904215088732 -0.83867056331134215 1 0 0 1 I I 0 1 1 forward I I I I #
face $-1 $110 $111 $38 $-1 $112 reversed single #
loop $-1 $-1 $113 $49 #
plane-surface $-1 40.882197245271804 -66.226328214194027 75.366400271354223 -1 0 0 0 -0.54463904215088732 0.83867056331134215 forward_v I I I I #
face $-1 $114 $115 $39 $-1 $116 forward single #
loop $-1 $117 $118 $50 #
cone-surface $-1 31.681186080224506 -13.653760390329785 3.1870244469704048 0 0.54463904215088732 -0.83867056331134215 1 0 0 1 I I 0 1 1 forward I I I I #
face $-1 $119 $120 $40 $-1 $121 forward single #
loop $-1 $122 $123 $51 #
cone-surface $-1 37.201792779252884 -13.653760390329785 3.1870244469704048 0 0.54463904215088732 -0.83867056331134215 1 0 0 1 I I 0 1 1 forward I I I I #
face $-1 $124 $125 $41 $-1 $126 reversed single #
loop $-1 $-1 $127 $52 #
plane-surface $-1 -16.528407020419532 30.807388967286339 95.632584446033917 1 0 0 0 -0.50000000669873634 -0.8660253999169214 forward_v I I I I #
face $-1 $128 $129 $42 $-1 $130 forward single #
loop $-1 $131 $132 $53 #
cone-surface $-1 -11.237598665051848 11.41980197763017 0.40809645921173221 0 -0.50000000669873634 -0.8660253999169214 2 0 0 1 I I 0 1 2 forward I I I I #
face $-1 $133 $134 $43 $-1 $135 forward single #
loop $-1 $136 $137 $54 #
cone-surface $-1 -3.3013861320003315 11.41980197763017 0.40809645921173221 0 -0.50000000669873634 -0.8660253999169214 2 0 0 1 I I 0 1 2 forward I I I I #
face $-1 $138 $139 $33 $-1 $140 reversed single #
loop $-1 $-1 $141 $55 #
plane-surface $-1 0 0 -6.5804483722349465 0 0 1 1 0 0 forward_v I I I I #
coedge $-1 $142 $143 $144 $145 forward $56 $-1 #
face $-1 $146 $147 $34 $-1 $148 reversed single #
loop $-1 $-1 $149 $58 #
plane-surface $-1 -40.039969832202587 -5.0144620745046407 0 0 -1 0 0 0 -1 forward_v I I I I #
coedge $-1 $150 $151 $152 $153 reversed $59 $-1 #
face $-1 $154 $155 $35 $-1 $156 reversed single #
loop $-1 $-1 $157 $61 #
plane-surface $-1 -26.296080420173123 -18.175358818974537 1.3743974006155923 0 -0.54463904215088732 0.83867056331134215 1 0 0 forward_v I I I I #
coedge $-1 $158 $159 $160 $161 reversed $62 $-1 #
face $-1 $-1 $162 $36 $-1 $163 forward single #
loop $-1 $164 $165 $64 #
cone-surface $-1 -29.056383769687312 -12.868150111459562 1.9772907258598691 0 0.54463904215088732 -0.83867056331134215 0.5 0 0 1 I I -0.70710678118654746 0.70710678118654746 0.5 forward I I I I #
loop $-1 $-1 $166 $47 #
coedge $-1 $104 $104 $167 $168 reversed $65 $-1 #
face $-1 $-1 $169 $37 $-1 $170 forward single #
loop $-1 $171 $172 $67 #
cone-surface $-1 -23.535777070658931 -12.868150111459562 1.9772907258598691 0 0.54463904215088732 -0.83867056331134215 0.5 0 0 1 I I -0.70710678118654746 0.70710678118654746 0.5 forward I I I I #
loop $-1 $-1 $173 $48 #
coedge $-1 $109 $109 $174 $175 reversed $68 $-1 #
face $-1 $176 $177 $38 $-1 $178 reversed single #
loop $-1 $-1 $179 $70 #
plane-surface $-1 34.441489429738695 -18.175358818974537 1.3743974006155923 0 -0.54463904215088732 0.83867056331134215 1 0 0 forward_v I I I I #
coedge $-1 $180 $181 $182 $183 reversed $71 $-1 #
face $-1 $-1 $184 $39 $-1 $185 forward single #
loop $-1 $186 $187 $73 #
cone-surface $-1 31.681186080224506 -12.868150111459562 1.9772907258598691 0 0.54463904215088732 -0.83867056331134215 0.5 0 0 1 I I -0.70710678118654746 0.70710678118654746 0.5 forward I I I I #
loop $-1 $-1 $188 $50 #
coedge $-1 $118 $118 $189 $190 reversed $74 $-1 #
face $-1 $-1 $191 $40 $-1 $192 forward single #
loop $-1 $193 $194 $76 #
cone-surface $-1 37.201792779252884 -12.868150111459562 1.9772907258598691 0 0.54463904215088732 -0.83867056331134215 0.5 0 0 1 I I -0.70710678118654746 0.70710678118654746 0.5 forward I I I I #
loop $-1 $-1 $195 $51 #
coedge $-1 $123 $123 $196 $197 reversed $77 $-1 #
face $-1 $198 $199 $41 $-1 $200 reversed single #
loop $-1 $-1 $201 $79 #
plane-surface $-1 -7.2694923985260971 -13.305285960697386 19.227191577848558 0 0.50000000669873634 0.8660253999169214 1 0 0 forward_v I I I I #
coedge $-1 $202 $203 $204 $205 reversed $80 $-1 #
face $-1 $-1 $206 $42 $-1 $207 forward single #
loop $-1 $208 $209 $82 #
cone-surface $-1 -11.237598665051848 8.9521668238693906 -3.8659729252960053 0 -0.50000000669873634 -0.8660253999169214 1 0 0 1 I I -0.70710678118654746 0.70710678118654746 1 forward I I I I #
loop $-1 $-1 $210 $53 #
coedge $-1 $132 $132 $211 $212 reversed $83 $-1 #
face $-1 $-1 $213 $43 $-1 $214 forward single #
loop $-1 $215 $216 $85 #
cone-surface $-1 -3.3013861320003315 8.9521668238693906 -3.8659729252960053 0 -0.50000000669873634 -0.8660253999169214 1 0 0 1 I I -0.70710678118654746 0.70710678118654746 1 forward I I I I #
loop $-1 $-1 $217 $54 #
coedge $-1 $137 $137 $218 $219 reversed $86 $-1 #
face $-1 $220 $221 $33 $-1 $222 reversed single #
loop $-1 $-1 $223 $88 #
plane-surface $-1 0 -18.175358818974534 0 0 1 0 0 0 1 forward_v I I I I #
coedge $-1 $224 $225 $226 $227 forward $89 $-1 #
coedge $-1 $228 $91 $229 $230 forward $56 $-1 #
coedge $-1 $91 $228 $231 $232 forward $56 $-1 #
coedge $-1 $233 $234 $91 $145 reversed $235 $-1 #
edge $-1 $236 -18.175358818974534 $237 18.175358818974534 $144 $238 forward 7 unknown #
face $-1 $239 $240 $34 $-1 $241 reversed single #
loop $-1 $-1 $242 $92 #
plane-surface $-1 -35.967265327419796 -6.5144620745046407 0 -1 0 0 0 0 1 forward_v I I I I #
coedge $-1 $243 $244 $245 $246 forward $93 $-1 #
coedge $-1 $247 $95 $248 $249 reversed $59 $-1 #
coedge $-1 $95 $247 $250 $251 reversed $59 $-1 #
coedge $-1 $252 $253 $95 $153 forward $254 $-1 #
edge $-1 $255 -6.5804483722349465 $256 6.5804483722349465 $152 $257 forward 7 unknown #
face $-1 $258 $259 $35 $-1 $260 reversed single #
loop $-1 $-1 $261 $96 #
plane-surface $-1 -32.736788235706229 -66.226328214194027 75.366400271354223 1 0 0 0 0.54463904215088732 -0.83867056331134215 forward_v I I I I #
coedge $-1 $262 $263 $264 $265 reversed $97 $-1 #
coedge $-1 $159 $99 $266 $267 reversed $62 $-1 #
coedge $-1 $99 $158 $262 $268 reversed $62 $-1 #
coedge $-1 $264 $269 $99 $161 forward $270 $-1 #
edge $-1 $271 14.93780528812248 $272 22.954420629822415 $160 $273 forward 7 unknown #
loop $-1 $-1 $167 $100 #
plane-surface $-1 -26.296080420173123 -18.175358818974537 1.3743974006155923 0 -0.54463904215088732 0.83867056331134215 1 0 0 forward_v I I I I #
loop $-1 $-1 $274 $64 #
coedge $-1 $165 $165 $166 $275 reversed $101 $-1 #
coedge $-1 $166 $166 $165 $275 forward $103 $-1 #
coedge $-1 $167 $167 $104 $168 forward $162 $-1 #
edge $-1 $276 1.2479098692594809e-015 $276 6.2831853071796013 $167 $277 forward 7 unknown #
loop $-1 $-1 $174 $105 #
plane-surface $-1 -26.296080420173123 -18.175358818974537 1.3743974006155923 0 -0.54463904215088732 0.83867056331134215 1 0 0 forward_v I I I I #
loop $-1 $-1 $278 $67 #
coedge $-1 $172 $172 $173 $279 reversed $106 $-1 #
coedge $-1 $173 $173 $172 $279 forward $108 $-1 #
coedge $-1 $174 $174 $109 $175 forward $169 $-1 #
edge $-1 $280 1.2479098692594809e-015 $280 6.2831853071796013 $174 $281 forward 7 unknown #
face $-1 $282 $283 $38 $-1 $284 reversed single #
loop $-1 $-1 $285 $110 #
plane-surface $-1 28.000781614205586 -66.226328214194027 75.366400271354223 1 0 0 0 0.54463904215088732 -0.83867056331134215 forward_v I I I I #
coedge $-1 $286 $287 $288 $289 reversed $111 $-1 #
coedge $-1 $181 $113 $290 $291 reversed $71 $-1 #
coedge $-1 $113 $180 $286 $292 reversed $71 $-1 #
coedge $-1 $288 $293 $113 $183 forward $294 $-1 #
edge $-1 $295 14.93780528812248 $296 22.954420629822415 $182 $297 forward 7 unknown #
loop $-1 $-1 $189 $114 #
plane-surface $-1 34.441489429738695 -18.175358818974537 1.3743974006155923 0 -0.54463904215088732 0.83867056331134215 1 0 0 forward_v I I I I #
loop $-1 $-1 $298 $73 #
coedge $-1 $187 $187 $188 $299 reversed $115 $-1 #
coedge $-1 $188 $188 $187 $299 forward $117 $-1 #
coedge $-1 $189 $189 $118 $190 forward $184 $-1 #
edge $-1 $300 1.2479098692594809e-015 $300 6.2831853071796013 $189 $301 forward 7 unknown #
loop $-1 $-1 $196 $119 #
plane-surface $-1 34.441489429738695 -18.175358818974537 1.3743974006155923 0 -0.54463904215088732 0.83867056331134215 1 0 0 forward_v I I I I #
loop $-1 $-1 $302 $76 #
coedge $-1 $194 $194 $195 $303 reversed $120 $-1 #
coedge $-1 $195 $195 $194 $303 forward $122 $-1 #
coedge $-1 $196 $196 $123 $197 forward $191 $-1 #
edge $-1 $304 1.2479098692594809e-015 $304 6.2831853071796013 $196 $305 forward 7 unknown #
face $-1 $306 $307 $41 $-1 $308 reversed single #
loop $-1 $-1 $309 $124 #
plane-surface $-1 1.9894222233673382 30.807388967286339 95.632584446033917 -1 0 0 0 0.50000000669873634 0.8660253999169214 forward_v I I I I #
coedge $-1 $310 $311 $312 $313 reversed $125 $-1 #
coedge $-1 $203 $127 $314 $315 reversed $80 $-1 #
coedge $-1 $127 $202 $310 $316 reversed $80 $-1 #
coedge $-1 $312 $317 $127 $205 forward $318 $-1 #
edge $-1 $319 -2.7716643353313639 $320 6.8041790532332609 $204 $321 forward 7 unknown #
loop $-1 $-1 $211 $128 #
plane-surface $-1 -7.2694923985260971 -13.305285960697386 19.227191577848558 0 0.50000000669873634 0.8660253999169214 1 0 0 forward_v I I I I #
loop $-1 $-1 $322 $82 #
coedge $-1 $209 $209 $210 $323 reversed $129 $-1 #
coedge $-1 $210 $210 $209 $323 forward $131 $-1 #
coedge $-1 $211 $211 $132 $212 forward $206 $-1 #
edge $-1 $324 -9.5080190887619412e-017 $324 6.2831853071796004 $211 $325 forward 7 unknown #
loop $-1 $-1 $218 $133 #
plane-surface $-1 -7.2694923985260971 -13.305285960697386 19.227191577848558 0 0.50000000669873634 0.8660253999169214 1 0 0 forward_v I I I I #
loop $-1 $-1 $326 $85 #
coedge $-1 $216 $216 $217 $327 reversed $134 $-1 #
coedge $-1 $217 $217 $216 $327 forward $136 $-1 #
coedge $-1 $218 $218 $137 $219 forward $213 $-1 #
edge $-1 $328 -9.5080190887619412e-017 $328 6.2831853071796004 $218 $329 forward 7 unknown #
face $-1 $330 $331 $33 $-1 $332 reversed single #
loop $-1 $-1 $333 $138 #
plane-surface $-1 -44.112674336985378 0 0 1 0 0 0 0 -1 forward_v I I I I #
coedge $-1 $334 $231 $335 $336 forward $139 $-1 #
coedge $-1 $337 $141 $334 $338 forward $89 $-1 #
coedge $-1 $141 $337 $339 $340 forward $89 $-1 #
coedge $-1 $234 $233 $141 $227 reversed $235 $-1 #
edge $-1 $341 -18.175358818974534 $342 18.175358818974534 $226 $343 forward 7 unknown #
coedge $-1 $143 $142 $344 $345 forward $56 $-1 #
coedge $-1 $346 $347 $142 $230 reversed $331 $-1 #
edge $-1 $237 -44.112674336985378 $348 44.112674336985378 $229 $349 forward 7 unknown #
coedge $-1 $223 $350 $143 $232 reversed $139 $-1 #
edge $-1 $351 -44.112674336985378 $236 44.112674336985378 $231 $352 forward 7 unknown #
coedge $-1 $226 $144 $350 $353 forward $235 $-1 #
coedge $-1 $144 $226 $346 $354 reversed $235 $-1 #
loop $-1 $-1 $233 $330 #
vertex $-1 $145 $355 #
vertex $-1 $145 $356 #
straight-curve $-1 44.112674336985378 0 6.5804483722349465 0 1 0 I I #
face $-1 $357 $358 $34 $-1 $359 forward single #
loop $-1 $-1 $360 $146 #
plane-surface $-1 0 0 -6.5804483722349465 0 0 1 1 0 0 forward_v I I I I #
coedge $-1 $361 $362 $247 $363 forward $147 $-1 #
coedge $-1 $364 $149 $360 $365 reversed $93 $-1 #
coedge $-1 $149 $364 $366 $367 reversed $93 $-1 #
coedge $-1 $362 $361 $149 $246 reversed $147 $-1 #
edge $-1 $368 -6.5804483722349465 $369 6.5804483722349465 $245 $370 forward 7 unknown #
coedge $-1 $151 $150 $242 $363 reversed $59 $-1 #
coedge $-1 $371 $372 $150 $249 forward $240 $-1 #
edge $-1 $373 15.947280411318502 $255 24.092689420884085 $248 $374 forward 7 unknown #
coedge $-1 $375 $376 $151 $251 forward $358 $-1 #
edge $-1 $256 -24.092689420884085 $377 -15.947280411318502 $250 $378 forward 7 unknown #
coedge $-1 $379 $152 $376 $380 reversed $254 $-1 #
coedge $-1 $152 $379 $371 $381 reversed $254 $-1 #
loop $-1 $-1 $379 $357 #
vertex $-1 $381 $382 #
vertex $-1 $153 $383 #
straight-curve $-1 -44.112674336985378 -8.0144620745046407 0 0 0 1 I I #
face $-1 $-1 $270 $35 $-1 $384 forward single #
loop $-1 $-1 $385 $154 #
plane-surface $-1 0 -18.175358818974534 0 0 1 0 0 0 1 forward_v I I I I #
coedge $-1 $386 $387 $388 $389 reversed $155 $-1 #
coedge $-1 $390 $157 $159 $268 forward $97 $-1 #
coedge $-1 $157 $390 $386 $391 forward $97 $-1 #
coedge $-1 $388 $160 $157 $265 forward $270 $-1 #
edge $-1 $272 6.7073323945534522 $392 19.588748025619665 $264 $393 forward 7 unknown #
coedge $-1 $394 $395 $158 $267 forward $259 $-1 #
edge $-1 $396 -36.308802735061519 $271 -31.102751763442164 $266 $397 forward 7 unknown #
edge $-1 $272 -9.5587179190452982 $396 -4.1888979916949389e-015 $159 $398 forward 7 unknown #
coedge $-1 $160 $388 $394 $399 forward $270 $-1 #
loop $-1 $-1 $388 $258 #
vertex $-1 $267 $400 #
vertex $-1 $161 $401 #
straight-curve $-1 -19.855372604640014 -33.113164107097013 6.5804483722349474 0 1 0 I I #
coedge $-1 $274 $274 $-1 $402 reversed $164 $-1 #
edge $-1 $403 0 $403 6.2831853071796004 $165 $404 forward 7 unknown #
vertex $-1 $168 $405 #
ellipse-curve $-1 -29.056383769687312 -14.167051148124566 3.9774228864252703 0 -0.54463904215088732 0.83867056331134215 1 0 0 1 I I #
coedge $-1 $278 $278 $-1 $406 reversed $171 $-1 #
edge $-1 $407 0 $407 6.2831853071796004 $172 $408 forward 7 unknown #
vertex $-1 $175 $409 #
ellipse-curve $-1 -23.535777070658931 -14.167051148124566 3.9774228864252703 0 -0.54463904215088732 0.83867056331134215 1 0 0 1 I I #
face $-1 $-1 $294 $38 $-1 $410 forward single #
loop $-1 $-1 $411 $176 #
plane-surface $-1 0 -18.175358818974534 0 0 1 0 0 0 1 forward_v I I I I #
coedge $-1 $412 $413 $414 $415 reversed $177 $-1 #
coedge $-1 $416 $179 $181 $292 forward $111 $-1 #
coedge $-1 $179 $416 $412 $417 forward $111 $-1 #
coedge $-1 $414 $182 $179 $289 forward $294 $-1 #
edge $-1 $296 -23.661452530402457 $418 -10.780036899336238 $288 $419 forward 7 unknown #
coedge $-1 $420 $421 $180 $291 forward $283 $-1 #
edge $-1 $422 -36.308802735061519 $295 -31.102751763442164 $290 $423 forward 7 unknown #
edge $-1 $296 -9.5587179190452982 $422 -4.1888979916949389e-015 $181 $424 forward 7 unknown #
coedge $-1 $182 $414 $420 $425 forward $294 $-1 #
loop $-1 $-1 $414 $282 #
vertex $-1 $291 $426 #
vertex $-1 $183 $427 #
straight-curve $-1 40.882197245271804 -33.113164107097013 6.5804483722349474 0 1 0 I I #
coedge $-1 $298 $298 $-1 $428 reversed $186 $-1 #
edge $-1 $429 0 $429 6.2831853071796004 $187 $430 forward 7 unknown #
vertex $-1 $190 $431 #
ellipse-curve $-1 31.681186080224506 -14.167051148124566 3.9774228864252703 0 -0.54463904215088732 0.83867056331134215 1 0 0 1 I I #
coedge $-1 $302 $302 $-1 $432 reversed $193 $-1 #
edge $-1 $433 0 $433 6.2831853071796004 $194 $434 forward 7 unknown #
vertex $-1 $197 $435 #
ellipse-curve $-1 37.201792779252884 -14.167051148124566 3.9774228864252703 0 -0.54463904215088732 0.83867056331134215 1 0 0 1 I I #
face $-1 $-1 $318 $41 $-1 $436 forward single #
loop $-1 $-1 $437 $198 #
plane-surface $-1 0 18.175358818974534 0 0 -1 0 0 0 -1 forward_v I I I I #
coedge $-1 $438 $439 $440 $441 reversed $199 $-1 #
coedge $-1 $442 $201 $203 $316 forward $125 $-1 #
coedge $-1 $201 $442 $438 $443 forward $125 $-1 #
coedge $-1 $440 $204 $201 $313 forward $318 $-1 #
edge $-1 $320 -12.893660821156484 $444 5.6241684226303867 $312 $445 forward 7 unknown #
coedge $-1 $446 $447 $202 $315 forward $307 $-1 #
edge $-1 $448 -46.7644597076468 $319 -41.235843850782011 $314 $449 forward 7 unknown #
edge $-1 $320 25.293486072358434 $448 36.350717637949053 $203 $450 forward 7 unknown #
coedge $-1 $204 $440 $446 $451 forward $318 $-1 #
loop $-1 $-1 $440 $306 #
vertex $-1 $315 $452 #
vertex $-1 $205 $453 #
straight-curve $-1 -16.528407020419532 15.40369448364317 6.5804483722349474 0 -1 0 I I #
coedge $-1 $322 $322 $-1 $454 reversed $208 $-1 #
edge $-1 $455 0 $455 6.2831853071796004 $209 $456 forward 7 unknown #
vertex $-1 $212 $457 #
ellipse-curve $-1 -11.237598665051848 13.387437124692216 3.8161404438025541 0 0.50000000669873634 0.8660253999169214 2 0 0 1 I I #
coedge $-1 $326 $326 $-1 $458 reversed $215 $-1 #
edge $-1 $459 0 $459 6.2831853071796004 $216 $460 forward 7 unknown #
vertex $-1 $219 $461 #
ellipse-curve $-1 -3.3013861320003315 13.387437124692216 3.8161404438025541 0 0.50000000669873634 0.8660253999169214 2 0 0 1 I I #
face $-1 $-1 $235 $33 $-1 $462 reversed single #
loop $-1 $-1 $346 $220 #
plane-surface $-1 0 18.175358818974534 0 0 -1 0 0 0 -1 forward_v I I I I #
coedge $-1 $463 $344 $347 $464 forward $221 $-1 #
coedge $-1 $350 $223 $224 $338 reversed $139 $-1 #
coedge $-1 $344 $463 $223 $336 reversed $221 $-1 #
edge $-1 $351 -6.5804483722349465 $465 6.5804483722349465 $335 $466 forward 7 unknown #
coedge $-1 $225 $224 $463 $467 forward $89 $-1 #
edge $-1 $342 -44.112674336985378 $465 44.112674336985378 $334 $468 forward 7 unknown #
coedge $-1 $347 $346 $225 $340 reversed $331 $-1 #
edge $-1 $469 -44.112674336985378 $341 44.112674336985378 $339 $470 forward 7 unknown #
vertex $-1 $227 $471 #
vertex $-1 $353 $472 #
straight-curve $-1 44.112674336985378 0 -6.5804483722349465 0 -1 0 I I #
coedge $-1 $333 $335 $228 $345 reversed $221 $-1 #
edge $-1 $348 -18.175358818974534 $351 18.175358818974534 $344 $473 forward 7 unknown #
coedge $-1 $339 $229 $234 $354 forward $331 $-1 #
coedge $-1 $229 $339 $333 $464 reversed $331 $-1 #
vertex $-1 $230 $474 #
straight-curve $-1 0 18.175358818974534 6.5804483722349465 -1 0 0 I I #
coedge $-1 $231 $334 $233 $353 reversed $139 $-1 #
vertex $-1 $345 $475 #
straight-curve $-1 0 -18.175358818974534 6.5804483722349465 1 0 0 I I #
edge $-1 $236 -6.5804483722349465 $342 6.5804483722349465 $233 $476 forward 7 unknown #
edge $-1 $237 -6.5804483722349465 $341 6.5804483722349465 $234 $477 forward 7 unknown #
point $-1 44.112674336985378 -18.175358818974534 6.5804483722349465 #
point $-1 44.112674336985378 18.175358818974534 6.5804483722349465 #
face $-1 $-1 $254 $34 $-1 $478 reversed single #
loop $-1 $-1 $366 $239 #
plane-surface $-1 0 0 6.5804483722349465 0 0 1 1 0 0 forward_v I I I I #
coedge $-1 $372 $371 $243 $365 forward $240 $-1 #
coedge $-1 $245 $242 $372 $479 reversed $147 $-1 #
coedge $-1 $242 $245 $375 $480 reversed $147 $-1 #
edge $-1 $377 -6.5804483722349465 $373 6.5804483722349465 $242 $481 forward 7 unknown #
coedge $-1 $244 $243 $379 $482 reversed $93 $-1 #
edge $-1 $483 -24.092689420884085 $369 -15.947280411318502 $360 $484 forward 7 unknown #
coedge $-1 $376 $375 $244 $367 forward $358 $-1 #
edge $-1 $368 15.947280411318502 $485 24.092689420884085 $366 $486 forward 7 unknown #
vertex $-1 $367 $487 #
vertex $-1 $365 $488 #
straight-curve $-1 -35.967265327419796 -5.0144620745046407 0 0 0 -1 I I #
coedge $-1 $360 $248 $253 $381 forward $240 $-1 #
coedge $-1 $248 $360 $361 $479 forward $240 $-1 #
vertex $-1 $249 $489 #
straight-curve $-1 -20.019984916101293 -8.0144620745046407 -6.5804483722349465 -1 0 0 I I #
coedge $-1 $366 $250 $362 $480 forward $358 $-1 #
coedge $-1 $250 $366 $252 $380 forward $358 $-1 #
vertex $-1 $251 $490 #
straight-curve $-1 -20.019984916101293 -8.0144620745046407 6.5804483722349465 1 0 0 I I #
coedge $-1 $253 $252 $364 $482 forward $254 $-1 #
edge $-1 $485 5.0144620745046407 $256 8.0144620745046407 $252 $491 forward 7 unknown #
edge $-1 $255 -8.0144620745046407 $483 -5.0144620745046407 $253 $492 forward 7 unknown #
point $-1 -44.112674336985378 -8.0144620745046407 -6.5804483722349465 #
point $-1 -44.112674336985378 -8.0144620745046407 6.5804483722349465 #
plane-surface $-1 0 0 6.5804483722349465 0 0 1 1 0 0 forward_v I I I I #
coedge $-1 $395 $394 $387 $493 forward $259 $-1 #
coedge $-1 $387 $261 $263 $391 reversed $155 $-1 #
coedge $-1 $261 $386 $385 $493 reversed $155 $-1 #
coedge $-1 $269 $264 $261 $389 forward $270 $-1 #
edge $-1 $392 -22.954420629822415 $494 -14.93780528812248 $388 $495 forward 7 unknown #
coedge $-1 $263 $262 $395 $496 reversed $97 $-1 #
edge $-1 $497 4.1888979916949389e-015 $392 9.5587179190452982 $386 $498 forward 7 unknown #
vertex $-1 $265 $499 #
straight-curve $-1 -13.148040210086561 -10.158743477274596 6.5804483722349465 -1 0 0 I I #
coedge $-1 $385 $266 $269 $399 reversed $259 $-1 #
coedge $-1 $266 $385 $390 $496 forward $259 $-1 #
vertex $-1 $267 $500 #
straight-curve $-1 -19.855372604640014 -18.175358818974534 37.683200135677112 0 0 1 I I #
straight-curve $-1 -19.855372604640014 -18.175358818974537 1.3743974006155923 0 -0.83867056331134215 -0.54463904215088732 I I #
edge $-1 $494 -32.736788235706229 $271 -19.855372604640014 $394 $501 forward 7 unknown #
point $-1 -19.855372604640014 -18.175358818974534 6.5804483722349465 #
point $-1 -19.855372604640014 -10.158743477274596 6.5804483722349465 #
edge $-1 $502 1 $502 0 $274 $-1 forward 7 unknown #
vertex $-1 $275 $503 #
ellipse-curve $-1 -29.056383769687312 -13.140469632535005 2.3966260075155401 0 -0.54463904215088732 0.83867056331134215 1 0 0 1 I I #
point $-1 -28.056383769687312 -14.167051148124564 3.9774228864252699 #
edge $-1 $504 1 $504 0 $278 $-1 forward 7 unknown #
vertex $-1 $279 $505 #
ellipse-curve $-1 -23.535777070658931 -13.140469632535005 2.3966260075155401 0 -0.54463904215088732 0.83867056331134215 1 0 0 1 I I #
point $-1 -22.535777070658931 -14.167051148124564 3.9774228864252699 #
plane-surface $-1 0 0 6.5804483722349465 0 0 1 1 0 0 forward_v I I I I #
coedge $-1 $421 $420 $413 $506 forward $283 $-1 #
coedge $-1 $413 $285 $287 $417 reversed $177 $-1 #
coedge $-1 $285 $412 $411 $506 reversed $177 $-1 #
coedge $-1 $293 $288 $285 $415 forward $294 $-1 #
edge $-1 $418 -22.954420629822415 $507 -14.93780528812248 $414 $508 forward 7 unknown #
coedge $-1 $287 $286 $421 $509 reversed $111 $-1 #
edge $-1 $510 4.1888979916949389e-015 $418 9.5587179190452982 $412 $511 forward 7 unknown #
vertex $-1 $289 $512 #
straight-curve $-1 17.220744714869348 -10.158743477274596 6.5804483722349465 -1 0 0 I I #
coedge $-1 $411 $290 $293 $425 reversed $283 $-1 #
coedge $-1 $290 $411 $416 $509 forward $283 $-1 #
vertex $-1 $291 $513 #
straight-curve $-1 40.882197245271804 -18.175358818974534 37.683200135677112 0 0 1 I I #
straight-curve $-1 40.882197245271804 -18.175358818974537 1.3743974006155923 0 -0.83867056331134215 -0.54463904215088732 I I #
edge $-1 $507 28.000781614205586 $295 40.882197245271804 $420 $514 forward 7 unknown #
point $-1 40.882197245271804 -18.175358818974534 6.5804483722349465 #
point $-1 40.882197245271804 -10.158743477274596 6.5804483722349465 #
edge $-1 $515 1 $515 0 $298 $-1 forward 7 unknown #
vertex $-1 $299 $516 #
ellipse-curve $-1 31.681186080224506 -13.140469632535005 2.3966260075155401 0 -0.54463904215088732 0.83867056331134215 1 0 0 1 I I #
point $-1 32.681186080224506 -14.167051148124564 3.9774228864252699 #
edge $-1 $517 1 $517 0 $302 $-1 forward 7 unknown #
vertex $-1 $303 $518 #
ellipse-curve $-1 37.201792779252884 -13.140469632535005 2.3966260075155401 0 -0.54463904215088732 0.83867056331134215 1 0 0 1 I I #
point $-1 38.201792779252884 -14.167051148124564 3.9774228864252699 #
plane-surface $-1 0 0 6.5804483722349465 0 0 1 1 0 0 forward_v I I I I #
coedge $-1 $447 $446 $439 $519 forward $307 $-1 #
coedge $-1 $439 $309 $311 $443 reversed $199 $-1 #
coedge $-1 $309 $438 $437 $519 reversed $199 $-1 #
coedge $-1 $317 $312 $309 $441 forward $318 $-1 #
edge $-1 $444 -6.8041790532332609 $520 2.7716643353313639 $440 $521 forward 7 unknown #
coedge $-1 $311 $310 $447 $522 reversed $125 $-1 #
edge $-1 $523 -36.350717637949053 $444 -25.293486072358434 $438 $524 forward 7 unknown #
vertex $-1 $313 $525 #
straight-curve $-1 -3.6347461992630485 8.5995154304099053 6.5804483722349474 1 0 0 I I #
coedge $-1 $437 $314 $317 $451 reversed $307 $-1 #
coedge $-1 $314 $437 $442 $522 forward $307 $-1 #
vertex $-1 $315 $526 #
straight-curve $-1 -16.528407020419532 18.175358818974534 47.816292223016958 0 0 1 I I #
straight-curve $-1 -16.528407020419532 -13.305285960697386 19.227191577848558 0 0.8660253999169214 -0.50000000669873634 I I #
edge $-1 $520 -1.9894222233673382 $319 16.528407020419532 $446 $527 forward 7 unknown #
point $-1 -16.528407020419532 18.175358818974534 6.5804483722349465 #
point $-1 -16.528407020419532 8.5995154304099088 6.5804483722349474 #
edge $-1 $528 1 $528 0 $322 $-1 forward 7 unknown #
vertex $-1 $323 $529 #
ellipse-curve $-1 -11.237598665051848 9.4521668305681263 -2.9999475253790839 0 0.50000000669873634 0.8660253999169214 2 0 0 1 I I #
point $-1 -9.2375986650518485 13.387437124692212 3.8161404438025484 #
edge $-1 $530 1 $530 0 $326 $-1 forward 7 unknown #
vertex $-1 $327 $531 #
ellipse-curve $-1 -3.3013861320003315 9.4521668305681263 -2.9999475253790839 0 0.50000000669873634 0.8660253999169214 2 0 0 1 I I #
point $-1 -1.3013861320003315 13.387437124692212 3.8161404438025484 #
plane-surface $-1 44.112674336985378 0 0 -1 0 0 0 0 1 forward_v I I I I #
coedge $-1 $335 $333 $337 $467 reversed $221 $-1 #
edge $-1 $348 -6.5804483722349465 $469 6.5804483722349465 $347 $532 forward 7 unknown #
vertex $-1 $467 $533 #
straight-curve $-1 -44.112674336985378 -18.175358818974534 0 0 0 -1 I I #
edge $-1 $465 -18.175358818974534 $469 18.175358818974534 $463 $534 forward 7 unknown #
straight-curve $-1 0 -18.175358818974534 -6.5804483722349465 -1 0 0 I I #
vertex $-1 $340 $535 #
straight-curve $-1 0 18.175358818974534 -6.5804483722349465 1 0 0 I I #
point $-1 44.112674336985378 18.175358818974534 -6.5804483722349465 #
point $-1 44.112674336985378 -18.175358818974534 -6.5804483722349465 #
straight-curve $-1 -44.112674336985378 0 6.5804483722349465 0 -1 0 I I #
point $-1 -44.112674336985378 18.175358818974534 6.5804483722349465 #
point $-1 -44.112674336985378 -18.175358818974534 6.5804483722349465 #
straight-curve $-1 44.112674336985378 -18.175358818974534 0 0 0 -1 I I #
straight-curve $-1 44.112674336985378 18.175358818974534 0 0 0 -1 I I #
plane-surface $-1 -44.112674336985378 0 0 1 0 0 0 0 -1 forward_v I I I I #
edge $-1 $369 1.7572310372523203 $373 4.7572310372523203 $372 $536 forward 7 unknown #
edge $-1 $377 -4.7572310372523203 $368 -1.7572310372523203 $375 $537 forward 7 unknown #
straight-curve $-1 -35.967265327419796 -8.0144620745046407 0 0 0 -1 I I #
edge $-1 $485 -6.5804483722349465 $483 6.5804483722349465 $379 $538 forward 7 unknown #
vertex $-1 $482 $539 #
straight-curve $-1 -20.019984916101293 -5.0144620745046407 -6.5804483722349465 1 0 0 I I #
vertex $-1 $380 $540 #
straight-curve $-1 -20.019984916101293 -5.0144620745046407 6.5804483722349465 -1 0 0 I I #
point $-1 -35.967265327419796 -5.0144620745046407 6.5804483722349465 #
point $-1 -35.967265327419796 -5.0144620745046407 -6.5804483722349465 #
point $-1 -35.967265327419796 -8.0144620745046407 -6.5804483722349465 #
point $-1 -35.967265327419796 -8.0144620745046407 6.5804483722349465 #
straight-curve $-1 -44.112674336985378 0 6.5804483722349465 0 -1 0 I I #
straight-curve $-1 -44.112674336985378 0 -6.5804483722349465 0 1 0 I I #
edge $-1 $494 31.102751763442164 $497 36.308802735061519 $385 $541 forward 7 unknown #
vertex $-1 $399 $542 #
straight-curve $-1 -32.736788235706229 -33.113164107097013 6.5804483722349474 0 -1 0 I I #
edge $-1 $497 -19.588748025619665 $396 -6.7073323945534522 $395 $543 forward 7 unknown #
vertex $-1 $496 $544 #
straight-curve $-1 -32.736788235706229 -18.175358818974537 1.3743974006155923 0 0.83867056331134215 0.54463904215088732 I I #
point $-1 -32.736788235706229 -10.158743477274596 6.5804483722349465 #
point $-1 -19.855372604640014 -18.175358818974534 1.3743974006155946 #
straight-curve $-1 0 -18.175358818974534 6.5804483722349465 1 0 0 I I #
vertex $-1 $402 $545 #
point $-1 -28.056383769687312 -13.140469632535005 2.3966260075155401 #
vertex $-1 $406 $546 #
point $-1 -22.535777070658931 -13.140469632535005 2.3966260075155401 #
edge $-1 $507 31.102751763442164 $510 36.308802735061519 $411 $547 forward 7 unknown #
vertex $-1 $425 $548 #
straight-curve $-1 28.000781614205586 -33.113164107097013 6.5804483722349474 0 -1 0 I I #
edge $-1 $510 10.780036899336238 $422 23.661452530402457 $421 $549 forward 7 unknown #
vertex $-1 $509 $550 #
straight-curve $-1 28.000781614205586 -18.175358818974537 1.3743974006155923 0 0.83867056331134215 0.54463904215088732 I I #
point $-1 28.000781614205586 -10.158743477274596 6.5804483722349465 #
point $-1 40.882197245271804 -18.175358818974534 1.3743974006155946 #
straight-curve $-1 0 -18.175358818974534 6.5804483722349465 1 0 0 I I #
vertex $-1 $428 $551 #
point $-1 32.681186080224506 -13.140469632535005 2.3966260075155401 #
vertex $-1 $432 $552 #
point $-1 38.201792779252884 -13.140469632535005 2.3966260075155401 #
edge $-1 $520 41.235843850782011 $523 46.7644597076468 $437 $553 forward 7 unknown #
vertex $-1 $451 $554 #
straight-curve $-1 1.9894222233673382 15.40369448364317 6.5804483722349474 0 1 0 I I #
edge $-1 $523 -5.6241684226303867 $448 12.893660821156484 $447 $555 forward 7 unknown #
vertex $-1 $522 $556 #
straight-curve $-1 1.9894222233673382 -13.305285960697386 19.227191577848558 0 -0.8660253999169214 0.50000000669873634 I I #
point $-1 1.9894222233673382 8.5995154304099088 6.5804483722349474 #
point $-1 -16.528407020419532 18.17535881897453 1.0518325153701582 #
straight-curve $-1 0 18.175358818974534 6.5804483722349465 -1 0 0 I I #
vertex $-1 $454 $557 #
point $-1 -9.2375986650518485 9.4521668305681263 -2.9999475253790839 #
vertex $-1 $458 $558 #
point $-1 -1.3013861320003315 9.4521668305681263 -2.9999475253790839 #
straight-curve $-1 -44.112674336985378 18.175358818974534 0 0 0 -1 I I #
point $-1 -44.112674336985378 -18.175358818974534 -6.5804483722349465 #
straight-curve $-1 -44.112674336985378 0 -6.5804483722349465 0 1 0 I I #
point $-1 -44.112674336985378 18.175358818974534 -6.5804483722349465 #
straight-curve $-1 -35.967265327419796 -3.2572310372523203 -6.5804483722349465 0 -1 0 I I #
straight-curve $-1 -35.967265327419796 -3.2572310372523203 6.5804483722349465 0 1 0 I I #
straight-curve $-1 -44.112674336985378 -5.0144620745046407 0 0 0 -1 I I #
point $-1 -44.112674336985378 -5.0144620745046407 -6.5804483722349465 #
point $-1 -44.112674336985378 -5.0144620745046407 6.5804483722349465 #
straight-curve $-1 -32.736788235706229 -18.175358818974534 37.683200135677112 0 0 -1 I I #
point $-1 -32.736788235706229 -18.175358818974534 6.5804483722349465 #
straight-curve $-1 -13.148040210086561 -18.175358818974534 1.3743974006155952 1 0 0 I I #
point $-1 -32.736788235706229 -18.175358818974534 1.3743974006155946 #
point $-1 -29.056383769687312 -12.595830590384118 1.5579554442041981 #
point $-1 -23.535777070658931 -12.595830590384118 1.5579554442041981 #
straight-curve $-1 28.000781614205586 -18.175358818974534 37.683200135677112 0 0 -1 I I #
point $-1 28.000781614205586 -18.175358818974534 6.5804483722349465 #
straight-curve $-1 17.220744714869348 -18.175358818974534 1.3743974006155952 1 0 0 I I #
point $-1 28.000781614205586 -18.175358818974534 1.3743974006155946 #
point $-1 31.681186080224506 -12.595830590384118 1.5579554442041981 #
point $-1 37.201792779252884 -12.595830590384118 1.5579554442041981 #
straight-curve $-1 1.9894222233673382 18.175358818974534 47.816292223016958 0 0 -1 I I #
point $-1 1.9894222233673382 18.175358818974534 6.5804483722349465 #
straight-curve $-1 -3.6347461992630485 18.175358818974534 1.0518325153701547 -1 0 0 I I #
point $-1 1.9894222233673382 18.17535881897453 1.0518325153701582 #
point $-1 -11.237598665051848 8.4521668171706548 -4.7319983252129267 #
point $-1 -3.3013861320003315 8.4521668171706548 -4.7319983252129267 #
End-of-ACIS-data 