500 0 4 0           
7 Unknown 11 ACIS 5.0 NT 24 Fri Mar 26 20:11:17 1999 
-1 9.9999999999999995e-007 1e-010 
body $-1 $4 $-1 $5 #
body $-1 $6 $-1 $7 #
body $-1 $8 $-1 $9 #
body $-1 $10 $-1 $11 #
lump $-1 $-1 $12 $0 #
transform $-1 1 0 0 0 1 0 0 0 1 50.82064271980957 30.274319212426978 7.2935729024573446 1 rotate no_reflect no_shear #
lump $-1 $-1 $13 $1 #
transform $-1 1 0 0 0 1 0 0 0 1 50.82064271980957 30.274319212426978 7.2935729024573446 1 rotate no_reflect no_shear #
lump $-1 $-1 $14 $2 #
transform $-1 1 0 0 0 1 0 0 0 1 50.82064271980957 30.274319212426978 7.2935729024573446 1 rotate no_reflect no_shear #
lump $-1 $-1 $15 $3 #
transform $-1 1 0 0 0 1 0 0 0 1 50.82064271980957 30.274319212426978 7.2935729024573446 1 rotate no_reflect no_shear #
shell $-1 $-1 $-1 $16 $-1 $4 #
shell $-1 $-1 $-1 $17 $-1 $6 #
shell $-1 $-1 $-1 $18 $-1 $8 #
shell $-1 $-1 $-1 $19 $-1 $10 #
face $-1 $20 $21 $12 $-1 $22 forward single #
face $-1 $23 $24 $13 $-1 $25 reversed single #
face $-1 $26 $27 $14 $-1 $28 forward single #
face $-1 $29 $30 $15 $-1 $31 reversed single #
face $-1 $32 $33 $12 $-1 $34 reversed single #
loop $-1 $-1 $35 $16 #
plane-surface $-1 0 0 7.2935729024573446 0 0 1 1 0 0 forward_v I I I I #
face $-1 $36 $37 $13 $-1 $38 forward single #
loop $-1 $-1 $39 $17 #
plane-surface $-1 0 -27.139654342524906 6.2990203081123184 0 0 1 1 0 0 forward_v I I I I #
face $-1 $40 $41 $14 $-1 $42 forward single #
loop $-1 $-1 $43 $18 #
plane-surface $-1 30.815556788865393 14.490797166108514 144.50118929029378 0 1 0 0.6018150307709319 0 0.79863550430605224 forward_v I I I I #
face $-1 $44 $45 $15 $-1 $46 reversed single #
loop $-1 $47 $48 $19 #
cone-surface $-1 46.424184826687146 22.382558189267744 3.4136382563343419 -0.6018150307709319 0 -0.79863550430605224 1.1979532564590785 0 -0.90272254615639791 1 I I 0 1 1.5 forward I I I I #
face $-1 $49 $50 $12 $-1 $51 reversed single #
loop $-1 $-1 $52 $20 #
plane-surface $-1 0 0 -7.2935729024573446 0 0 1 1 0 0 forward_v I I I I #
coedge $-1 $53 $54 $55 $56 forward $21 $-1 #
face $-1 $57 $58 $13 $-1 $59 forward single #
loop $-1 $-1 $60 $23 #
plane-surface $-1 0 -27.139654342524906 3.0627992189425033 0 0 1 1 0 0 forward_v I I I I #
coedge $-1 $61 $62 $63 $64 reversed $24 $-1 #
face $-1 $65 $66 $14 $-1 $67 reversed single #
loop $-1 $-1 $68 $26 #
plane-surface $-1 -30.35369653557607 22.382558189267751 63.326850034908148 0.6018150307709319 0 0.79863550430605224 0.79863550430605224 0 -0.6018150307709319 forward_v I I I I #
coedge $-1 $69 $70 $71 $72 reversed $27 $-1 #
face $-1 $73 $74 $15 $-1 $75 forward single #
loop $-1 $76 $77 $29 #
cone-surface $-1 44.984200897619004 22.382558189267744 1.5027150779771121 -0.6018150307709319 0 -0.79863550430605224 0.59897662822953923 0 -0.45136127307819895 1 I I -0.70710678118654757 0.70710678118654757 0.75 forward I I I I #
loop $-1 $-1 $78 $19 #
coedge $-1 $48 $48 $79 $80 reversed $30 $-1 #
face $-1 $81 $82 $12 $-1 $83 reversed single #
loop $-1 $-1 $84 $32 #
plane-surface $-1 0 -30.274319212426978 0 0 1 0 0 0 1 forward_v I I I I #
coedge $-1 $85 $86 $87 $88 forward $33 $-1 #
coedge $-1 $89 $35 $90 $91 forward $21 $-1 #
coedge $-1 $35 $89 $92 $93 forward $21 $-1 #
coedge $-1 $94 $95 $35 $56 reversed $96 $-1 #
edge $-1 $97 -30.274319212426978 $98 30.274319212426978 $55 $99 forward 7 unknown #
face $-1 $100 $101 $13 $-1 $102 reversed single #
loop $-1 $-1 $103 $36 #
plane-surface $-1 0 -24.004989472622835 4.6809097635274108 0 -1 0 0 0 -1 forward_v I I I I #
coedge $-1 $104 $105 $106 $107 reversed $37 $-1 #
coedge $-1 $108 $39 $109 $110 reversed $24 $-1 #
coedge $-1 $39 $108 $111 $112 reversed $24 $-1 #
coedge $-1 $113 $114 $39 $64 forward $101 $-1 #
edge $-1 $115 -16.704492041164524 $116 -10.435162301360382 $63 $117 forward 7 unknown #
face $-1 $118 $119 $14 $-1 $120 forward single #
loop $-1 $-1 $121 $40 #
plane-surface $-1 50.82064271980957 0 0 -1 0 0 0 0 1 forward_v I I I I #
coedge $-1 $122 $123 $121 $124 reversed $41 $-1 #
coedge $-1 $70 $43 $123 $125 forward $27 $-1 #
coedge $-1 $43 $69 $126 $127 reversed $27 $-1 #
coedge $-1 $128 $121 $43 $72 forward $66 $-1 #
edge $-1 $129 -70.092997934680199 $130 -64.957021742689548 $71 $131 forward 7 unknown #
face $-1 $132 $133 $15 $-1 $134 forward single #
loop $-1 $-1 $135 $44 #
plane-surface $-1 30.815556788865393 14.490797166108514 144.50118929029378 0 1 0 0.6018150307709319 0 0.79863550430605224 forward_v I I I I #
loop $-1 $-1 $136 $29 #
coedge $-1 $77 $77 $78 $137 forward $45 $-1 #
coedge $-1 $78 $78 $77 $137 reversed $47 $-1 #
coedge $-1 $79 $79 $48 $80 forward $133 $-1 #
edge $-1 $138 0 $138 6.2831853071796004 $79 $139 forward 7 unknown #
face $-1 $140 $141 $12 $-1 $142 reversed single #
loop $-1 $-1 $143 $49 #
plane-surface $-1 -50.82064271980957 0 0 1 0 0 0 0 -1 forward_v I I I I #
coedge $-1 $144 $92 $145 $146 forward $50 $-1 #
coedge $-1 $147 $52 $144 $148 forward $33 $-1 #
coedge $-1 $52 $147 $149 $150 forward $33 $-1 #
coedge $-1 $95 $94 $52 $88 reversed $96 $-1 #
edge $-1 $151 -30.274319212426978 $152 30.274319212426978 $87 $153 forward 7 unknown #
coedge $-1 $54 $53 $154 $155 forward $21 $-1 #
coedge $-1 $156 $157 $53 $91 reversed $141 $-1 #
edge $-1 $98 -50.82064271980957 $158 50.82064271980957 $90 $159 forward 7 unknown #
coedge $-1 $84 $160 $54 $93 reversed $50 $-1 #
edge $-1 $161 -50.82064271980957 $97 50.82064271980957 $92 $162 forward 7 unknown #
coedge $-1 $87 $55 $160 $163 forward $96 $-1 #
coedge $-1 $55 $87 $156 $164 reversed $96 $-1 #
loop $-1 $-1 $94 $140 #
vertex $-1 $56 $165 #
vertex $-1 $56 $166 #
straight-curve $-1 50.82064271980957 0 7.2935729024573446 0 1 0 I I #
face $-1 $167 $168 $13 $-1 $169 reversed single #
loop $-1 $-1 $63 $57 #
plane-surface $-1 50.82064271980957 0 0 -1 0 0 0 0 1 forward_v I I I I #
coedge $-1 $111 $170 $113 $171 reversed $58 $-1 #
coedge $-1 $172 $60 $170 $173 reversed $37 $-1 #
coedge $-1 $60 $172 $174 $175 reversed $37 $-1 #
coedge $-1 $176 $113 $60 $107 forward $101 $-1 #
edge $-1 $177 10.435162301360382 $178 16.704492041164524 $106 $179 forward 7 unknown #
coedge $-1 $62 $61 $180 $181 reversed $24 $-1 #
coedge $-1 $182 $183 $61 $110 forward $184 $-1 #
edge $-1 $185 -50.82064271980957 $115 50.82064271980957 $109 $186 forward 7 unknown #
coedge $-1 $187 $103 $62 $112 forward $58 $-1 #
edge $-1 $116 -50.82064271980957 $188 50.82064271980957 $111 $189 forward 7 unknown #
coedge $-1 $106 $63 $103 $171 forward $101 $-1 #
coedge $-1 $63 $190 $182 $191 forward $101 $-1 #
vertex $-1 $110 $192 #
vertex $-1 $64 $193 #
straight-curve $-1 50.82064271980957 -13.569827171262453 6.2990203081123184 0 1 0 I I #
face $-1 $194 $195 $14 $-1 $196 reversed single #
loop $-1 $-1 $126 $65 #
plane-surface $-1 0 0 7.2935729024573446 0 0 1 1 0 0 forward_v I I I I #
coedge $-1 $71 $197 $68 $124 forward $66 $-1 #
coedge $-1 $198 $68 $199 $200 reversed $41 $-1 #
coedge $-1 $68 $198 $69 $125 reversed $41 $-1 #
edge $-1 $201 -19.083040117793111 $129 -3.2995180714746386 $121 $202 forward 7 unknown #
edge $-1 $129 -101.64128543961914 $203 -93.107141343199004 $69 $204 forward 7 unknown #
coedge $-1 $205 $206 $70 $127 forward $119 $-1 #
edge $-1 $130 -35.412864325376873 $203 -28.597193851111847 $126 $207 forward 7 unknown #
coedge $-1 $208 $71 $206 $209 reversed $66 $-1 #
vertex $-1 $124 $210 #
vertex $-1 $127 $211 #
straight-curve $-1 50.82064271980957 14.490797166108514 72.25059464514689 0 0 1 I I #
face $-1 $212 $213 $15 $-1 $214 reversed single #
loop $-1 $215 $79 $73 #
plane-surface $-1 -30.35369653557607 22.382558189267751 63.326850034908148 0.6018150307709319 0 0.79863550430605224 0.79863550430605224 0 -0.6018150307709319 forward_v I I I I #
coedge $-1 $216 $217 $218 $219 reversed $74 $-1 #
coedge $-1 $136 $136 $-1 $220 forward $76 $-1 #
edge $-1 $221 0 $221 6.2831853071796004 $77 $222 forward 7 unknown #
vertex $-1 $80 $223 #
ellipse-curve $-1 47.412807482677067 22.382558189267744 4.7255848064620061 -0.6018150307709319 0 -0.79863550430605224 1.1979532564590785 0 -0.90272254615639791 1 I I #
face $-1 $-1 $96 $12 $-1 $224 reversed single #
loop $-1 $-1 $156 $81 #
plane-surface $-1 0 30.274319212426978 0 0 -1 0 0 0 -1 forward_v I I I I #
coedge $-1 $225 $154 $157 $226 forward $82 $-1 #
coedge $-1 $160 $84 $85 $148 reversed $50 $-1 #
coedge $-1 $154 $225 $84 $146 reversed $82 $-1 #
edge $-1 $161 -7.2935729024573446 $227 7.2935729024573446 $145 $228 forward 7 unknown #
coedge $-1 $86 $85 $225 $229 forward $33 $-1 #
edge $-1 $152 -50.82064271980957 $227 50.82064271980957 $144 $230 forward 7 unknown #
coedge $-1 $157 $156 $86 $150 reversed $141 $-1 #
edge $-1 $231 -50.82064271980957 $151 50.82064271980957 $149 $232 forward 7 unknown #
vertex $-1 $88 $233 #
vertex $-1 $163 $234 #
straight-curve $-1 50.82064271980957 0 -7.2935729024573446 0 -1 0 I I #
coedge $-1 $143 $145 $89 $155 reversed $82 $-1 #
edge $-1 $158 -30.274319212426978 $161 30.274319212426978 $154 $235 forward 7 unknown #
coedge $-1 $149 $90 $95 $164 forward $141 $-1 #
coedge $-1 $90 $149 $143 $226 reversed $141 $-1 #
vertex $-1 $91 $236 #
straight-curve $-1 0 30.274319212426978 7.2935729024573446 -1 0 0 I I #
coedge $-1 $92 $144 $94 $163 reversed $50 $-1 #
vertex $-1 $155 $237 #
straight-curve $-1 0 -30.274319212426978 7.2935729024573446 1 0 0 I I #
edge $-1 $97 -7.2935729024573446 $152 7.2935729024573446 $94 $238 forward 7 unknown #
edge $-1 $98 -7.2935729024573446 $151 7.2935729024573446 $95 $239 forward 7 unknown #
point $-1 50.82064271980957 -30.274319212426978 7.2935729024573446 #
point $-1 50.82064271980957 30.274319212426978 7.2935729024573446 #
face $-1 $240 $241 $13 $-1 $242 forward single #
loop $-1 $-1 $174 $100 #
plane-surface $-1 0 -30.274319212426978 0 0 1 0 0 0 1 forward_v I I I I #
coedge $-1 $103 $187 $104 $173 forward $58 $-1 #
edge $-1 $116 -3.958565426348613 $177 -0.72234433717879787 $113 $243 forward 7 unknown #
coedge $-1 $105 $104 $244 $245 reversed $37 $-1 #
edge $-1 $246 -50.82064271980957 $177 50.82064271980957 $170 $247 forward 7 unknown #
coedge $-1 $248 $249 $105 $175 forward $168 $-1 #
edge $-1 $178 -50.82064271980957 $250 50.82064271980957 $174 $251 forward 7 unknown #
coedge $-1 $252 $106 $249 $253 forward $101 $-1 #
vertex $-1 $107 $254 #
vertex $-1 $253 $255 #
straight-curve $-1 50.82064271980957 -13.569827171262453 3.0627992189425033 0 -1 0 I I #
coedge $-1 $256 $257 $108 $181 forward $258 $-1 #
edge $-1 $188 10.435162301360382 $185 16.704492041164524 $180 $259 forward 7 unknown #
coedge $-1 $260 $109 $114 $191 reversed $184 $-1 #
coedge $-1 $109 $260 $256 $261 forward $184 $-1 #
loop $-1 $-1 $109 $262 #
vertex $-1 $181 $263 #
straight-curve $-1 0 -30.274319212426978 6.2990203081123184 1 0 0 I I #
coedge $-1 $170 $111 $257 $264 reversed $58 $-1 #
vertex $-1 $181 $265 #
straight-curve $-1 0 -24.004989472622835 6.2990203081123184 -1 0 0 I I #
coedge $-1 $114 $266 $267 $268 reversed $101 $-1 #
edge $-1 $269 -7.2935729024573446 $115 -6.2990203081123184 $114 $270 forward 7 unknown #
point $-1 50.82064271980957 -30.274319212426978 6.2990203081123184 #
point $-1 50.82064271980957 -24.004989472622835 6.2990203081123184 #
face $-1 $271 $272 $14 $-1 $273 forward single #
loop $-1 $-1 $274 $118 #
plane-surface $-1 0 -27.139654342524906 6.2990203081123184 0 0 1 1 0 0 forward_v I I I I #
coedge $-1 $121 $275 $276 $277 reversed $66 $-1 #
coedge $-1 $123 $122 $205 $278 reversed $41 $-1 #
coedge $-1 $276 $279 $122 $200 forward $280 $-1 #
edge $-1 $281 61.930846371885451 $201 70.464990468305601 $199 $282 forward 7 unknown #
vertex $-1 $277 $283 #
straight-curve $-1 50.82064271980957 11.191279094633876 2.157596710466688 0 -1 0 I I #
vertex $-1 $278 $284 #
straight-curve $-1 -30.35369653557607 14.490797166108514 63.326850034908148 -0.79863550430605224 0 0.6018150307709319 I I #
coedge $-1 $285 $126 $198 $278 forward $119 $-1 #
coedge $-1 $126 $286 $128 $209 forward $119 $-1 #
straight-curve $-1 15.407778394432697 14.490797166108514 7.2935729024573419 -1 0 0 I I #
coedge $-1 $287 $128 $288 $289 forward $66 $-1 #
edge $-1 $290 -30.274319212426978 $130 14.490797166108514 $128 $291 forward 7 unknown #
point $-1 50.820642719809562 14.490797166108514 2.1575967104666844 #
point $-1 50.82064271980957 14.490797166108514 7.2935729024573446 #
face $-1 $292 $293 $15 $-1 $294 forward single #
loop $-1 $-1 $295 $132 #
plane-surface $-1 50.82064271980957 0 0 -1 0 0 0 0 1 forward_v I I I I #
loop $-1 $-1 $296 $73 #
coedge $-1 $217 $135 $297 $298 forward $74 $-1 #
coedge $-1 $135 $216 $299 $300 reversed $74 $-1 #
coedge $-1 $301 $295 $135 $219 forward $213 $-1 #
edge $-1 $302 -70.092997934680199 $303 -64.957021742689548 $218 $304 forward 7 unknown #
edge $-1 $305 1 $305 0 $136 $-1 forward 7 unknown #
vertex $-1 $137 $306 #
ellipse-curve $-1 45.435562170697203 22.382558189267744 2.1016917062066511 0.6018150307709319 0 0.79863550430605224 1.1979532564590785 0 -0.90272254615639791 1 I I #
point $-1 48.610760739136161 22.382558189267744 3.8228622603056346 #
plane-surface $-1 50.82064271980957 0 0 -1 0 0 0 0 1 forward_v I I I I #
coedge $-1 $145 $143 $147 $229 reversed $82 $-1 #
edge $-1 $158 -7.2935729024573446 $231 7.2935729024573446 $157 $307 forward 7 unknown #
vertex $-1 $229 $308 #
straight-curve $-1 -50.82064271980957 -30.274319212426978 0 0 0 -1 I I #
edge $-1 $227 -30.274319212426978 $231 30.274319212426978 $225 $309 forward 7 unknown #
straight-curve $-1 0 -30.274319212426978 -7.2935729024573446 -1 0 0 I I #
vertex $-1 $150 $310 #
straight-curve $-1 0 30.274319212426978 -7.2935729024573446 1 0 0 I I #
point $-1 50.82064271980957 30.274319212426978 -7.2935729024573446 #
point $-1 50.82064271980957 -30.274319212426978 -7.2935729024573446 #
straight-curve $-1 -50.82064271980957 0 7.2935729024573446 0 -1 0 I I #
point $-1 -50.82064271980957 30.274319212426978 7.2935729024573446 #
point $-1 -50.82064271980957 -30.274319212426978 7.2935729024573446 #
straight-curve $-1 50.82064271980957 -30.274319212426978 0 0 0 -1 I I #
straight-curve $-1 50.82064271980957 30.274319212426978 0 0 0 -1 I I #
face $-1 $262 $311 $13 $-1 $312 reversed single #
loop $-1 $-1 $267 $167 #
plane-surface $-1 0 0 7.2935729024573446 0 0 1 1 0 0 forward_v I I I I #
straight-curve $-1 50.82064271980957 -24.004989472622835 2.3404548817637054 0 0 -1 I I #
coedge $-1 $257 $313 $172 $245 forward $258 $-1 #
edge $-1 $250 -16.704492041164524 $246 -10.435162301360382 $244 $314 forward 7 unknown #
vertex $-1 $245 $315 #
straight-curve $-1 0 -24.004989472622835 3.0627992189425033 1 0 0 I I #
coedge $-1 $316 $174 $313 $317 forward $168 $-1 #
coedge $-1 $174 $316 $176 $253 reversed $168 $-1 #
vertex $-1 $317 $318 #
straight-curve $-1 0 -30.274319212426978 3.0627992189425033 -1 0 0 I I #
coedge $-1 $266 $176 $319 $320 reversed $101 $-1 #
edge $-1 $178 -3.0627992189425033 $321 7.2935729024573446 $176 $270 forward 7 unknown #
point $-1 50.82064271980957 -24.004989472622835 3.0627992189425033 #
point $-1 50.82064271980957 -30.274319212426978 3.0627992189425033 #
coedge $-1 $322 $180 $183 $261 reversed $258 $-1 #
coedge $-1 $180 $244 $187 $264 forward $258 $-1 #
loop $-1 $-1 $180 $323 #
straight-curve $-1 -50.82064271980957 -13.569827171262453 6.2990203081123184 0 -1 0 I I #
coedge $-1 $183 $182 $324 $325 reversed $184 $-1 #
edge $-1 $326 -7.2935729024573446 $185 -6.2990203081123184 $256 $327 forward 7 unknown #
face $-1 $323 $184 $13 $-1 $169 reversed single #
point $-1 -50.82064271980957 -30.274319212426978 6.2990203081123184 #
edge $-1 $246 0.72234433717879787 $188 3.958565426348613 $257 $328 forward 7 unknown #
point $-1 -50.82064271980957 -24.004989472622835 6.2990203081123184 #
coedge $-1 $190 $252 $329 $330 reversed $101 $-1 #
coedge $-1 $331 $324 $190 $268 forward $241 $-1 #
edge $-1 $269 -30.274319212426978 $332 30.274319212426978 $190 $333 forward 7 unknown #
vertex $-1 $268 $334 #
straight-curve $-1 50.82064271980957 -30.274319212426978 0 0 0 -1 I I #
face $-1 $335 $336 $14 $-1 $337 forward single #
loop $-1 $-1 $338 $194 #
plane-surface $-1 0 -27.139654342524906 3.0627992189425033 0 0 1 1 0 0 forward_v I I I I #
coedge $-1 $339 $340 $287 $341 reversed $195 $-1 #
coedge $-1 $197 $342 $343 $344 reversed $66 $-1 #
coedge $-1 $345 $199 $197 $277 forward $280 $-1 #
edge $-1 $201 -2.1575967104666844 $346 7.2935729024573446 $197 $347 forward 7 unknown #
edge $-1 $203 3.2995180714746386 $281 19.083040117793111 $205 $348 forward 7 unknown #
coedge $-1 $199 $349 $285 $350 reversed $280 $-1 #
loop $-1 $-1 $199 $351 #
vertex $-1 $350 $352 #
straight-curve $-1 -5.455200478766832 30.274319212426978 44.56448711742344 0.79863550430605224 0 -0.6018150307709319 I I #
point $-1 50.820642719809562 30.274319212426988 2.1575967104666844 #
point $-1 44.004972245544543 14.490797166108514 7.2935729024573419 #
coedge $-1 $353 $205 $279 $350 forward $119 $-1 #
coedge $-1 $206 $353 $354 $355 forward $119 $-1 #
coedge $-1 $356 $208 $274 $341 forward $66 $-1 #
coedge $-1 $354 $357 $208 $289 reversed $358 $-1 #
edge $-1 $290 -7.2935729024573446 $359 -6.2990203081123184 $208 $360 forward 7 unknown #
vertex $-1 $209 $361 #
straight-curve $-1 50.82064271980957 0 7.2935729024573446 0 1 0 I I #
face $-1 $362 $363 $15 $-1 $364 reversed single #
loop $-1 $-1 $299 $212 #
plane-surface $-1 0 0 7.2935729024573446 0 0 1 1 0 0 forward_v I I I I #
coedge $-1 $218 $365 $296 $366 forward $213 $-1 #
coedge $-1 $367 $297 $295 $366 reversed $215 $-1 #
coedge $-1 $296 $368 $216 $298 reversed $215 $-1 #
edge $-1 $302 -101.64128543961914 $369 -93.107141343199004 $216 $370 forward 7 unknown #
coedge $-1 $371 $372 $217 $300 forward $293 $-1 #
edge $-1 $303 -35.412864325376873 $369 -28.597193851111847 $299 $373 forward 7 unknown #
coedge $-1 $374 $218 $372 $375 reversed $213 $-1 #
vertex $-1 $366 $376 #
vertex $-1 $300 $377 #
straight-curve $-1 50.82064271980957 14.490797166108514 72.25059464514689 0 0 1 I I #
vertex $-1 $220 $378 #
point $-1 46.633515427156283 22.382558189267744 1.1989691600502534 #
straight-curve $-1 -50.82064271980957 30.274319212426978 0 0 0 -1 I I #
point $-1 -50.82064271980957 -30.274319212426978 -7.2935729024573446 #
straight-curve $-1 -50.82064271980957 0 -7.2935729024573446 0 1 0 I I #
point $-1 -50.82064271980957 30.274319212426978 -7.2935729024573446 #
loop $-1 $-1 $319 $240 #
plane-surface $-1 0 0 -7.2935729024573446 0 0 1 1 0 0 forward_v I I I I #
coedge $-1 $244 $379 $248 $317 reversed $258 $-1 #
straight-curve $-1 -50.82064271980957 -13.569827171262453 3.0627992189425033 0 1 0 I I #
point $-1 -50.82064271980957 -24.004989472622835 3.0627992189425033 #
coedge $-1 $249 $248 $380 $381 reversed $168 $-1 #
edge $-1 $250 -3.0627992189425033 $382 7.2935729024573446 $313 $327 forward 7 unknown #
point $-1 -50.82064271980957 -30.274319212426978 3.0627992189425033 #
coedge $-1 $380 $383 $252 $320 forward $311 $-1 #
edge $-1 $384 -30.274319212426978 $321 30.274319212426978 $252 $385 forward 7 unknown #
vertex $-1 $253 $386 #
coedge $-1 $387 $256 $388 $389 reversed $258 $-1 #
face $-1 $390 $258 $13 $-1 $391 reversed single #
coedge $-1 $267 $388 $260 $325 forward $241 $-1 #
edge $-1 $326 -50.82064271980957 $269 50.82064271980957 $260 $392 forward 7 unknown #
vertex $-1 $389 $393 #
straight-curve $-1 -50.82064271980957 -30.274319212426978 0 0 0 -1 I I #
straight-curve $-1 -50.82064271980957 -24.004989472622835 2.3404548817637054 0 0 1 I I #
coedge $-1 $394 $395 $266 $330 forward $396 $-1 #
edge $-1 $332 -7.2935729024573446 $384 7.2935729024573446 $266 $397 forward 7 unknown #
coedge $-1 $388 $267 $395 $398 forward $241 $-1 #
vertex $-1 $268 $399 #
straight-curve $-1 50.82064271980957 0 7.2935729024573446 0 1 0 I I #
point $-1 50.82064271980957 -30.274319212426978 7.2935729024573446 #
face $-1 $400 $401 $14 $-1 $402 reversed single #
loop $-1 $-1 $403 $271 #
plane-surface $-1 0 -24.004989472622835 4.6809097635274108 0 -1 0 0 0 -1 forward_v I I I I #
coedge $-1 $404 $405 $406 $407 reversed $272 $-1 #
coedge $-1 $408 $274 $357 $409 reversed $195 $-1 #
coedge $-1 $274 $408 $410 $411 reversed $195 $-1 #
edge $-1 $359 -16.704492041164524 $412 -10.435162301360382 $287 $413 forward 7 unknown #
coedge $-1 $275 $406 $414 $415 forward $66 $-1 #
coedge $-1 $416 $417 $275 $344 forward $418 $-1 #
edge $-1 $346 -30.274319212426978 $419 30.274319212426978 $275 $420 forward 7 unknown #
coedge $-1 $349 $276 $417 $421 reversed $280 $-1 #
vertex $-1 $344 $422 #
straight-curve $-1 50.82064271980957 30.274319212426978 0 0 0 -1 I I #
straight-curve $-1 44.00497224554455 11.191279094633876 7.2935729024573419 0 1 0 I I #
coedge $-1 $279 $345 $423 $424 reversed $280 $-1 #
edge $-1 $281 -44.004972245544543 $425 50.82064271980957 $279 $426 forward 7 unknown #
face $-1 $-1 $280 $14 $-1 $427 reversed single #
point $-1 44.004972245544543 30.274319212426988 7.2935729024573419 #
coedge $-1 $286 $285 $428 $429 forward $119 $-1 #
coedge $-1 $430 $288 $286 $355 reversed $358 $-1 #
edge $-1 $431 -50.82064271980957 $290 50.82064271980957 $354 $432 forward 7 unknown #
coedge $-1 $406 $287 $403 $433 forward $66 $-1 #
coedge $-1 $288 $430 $339 $409 forward $358 $-1 #
loop $-1 $-1 $357 $434 #
vertex $-1 $409 $435 #
straight-curve $-1 50.82064271980957 -30.274319212426978 0 0 0 -1 I I #
point $-1 50.82064271980957 -30.274319212426978 7.2935729024573446 #
face $-1 $436 $437 $15 $-1 $438 forward single #
loop $-1 $-1 $439 $292 #
plane-surface $-1 0 -27.139654342524906 6.2990203081123184 0 0 1 1 0 0 forward_v I I I I #
coedge $-1 $295 $440 $441 $442 reversed $213 $-1 #
edge $-1 $443 -19.083040117793111 $302 -3.2995180714746386 $295 $444 forward 7 unknown #
coedge $-1 $368 $296 $445 $446 reversed $215 $-1 #
coedge $-1 $297 $367 $371 $447 reversed $215 $-1 #
vertex $-1 $447 $448 #
straight-curve $-1 -30.35369653557607 14.490797166108514 63.326850034908148 -0.79863550430605224 0 0.6018150307709319 I I #
coedge $-1 $449 $299 $368 $447 forward $293 $-1 #
coedge $-1 $299 $450 $301 $375 forward $293 $-1 #
straight-curve $-1 15.407778394432697 14.490797166108514 7.2935729024573419 -1 0 0 I I #
coedge $-1 $451 $301 $452 $453 forward $213 $-1 #
edge $-1 $454 -30.274319212426978 $303 14.490797166108514 $301 $455 forward 7 unknown #
point $-1 50.820642719809562 14.490797166108514 2.1575967104666844 #
point $-1 50.82064271980957 14.490797166108514 7.2935729024573446 #
point $-1 44.532839624540806 22.382558189267744 0.90373844974757289 #
coedge $-1 $313 $387 $456 $457 reversed $258 $-1 #
coedge $-1 $456 $319 $316 $381 forward $311 $-1 #
edge $-1 $321 -50.82064271980957 $382 50.82064271980957 $316 $458 forward 7 unknown #
vertex $-1 $457 $459 #
coedge $-1 $319 $456 $394 $460 forward $311 $-1 #
vertex $-1 $320 $461 #
straight-curve $-1 50.82064271980957 0 -7.2935729024573446 0 -1 0 I I #
point $-1 50.82064271980957 -30.274319212426978 -7.2935729024573446 #
coedge $-1 $379 $322 $462 $463 forward $258 $-1 #
coedge $-1 $324 $331 $322 $389 forward $241 $-1 #
edge $-1 $464 -30.274319212426978 $326 30.274319212426978 $322 $465 forward 7 unknown #
face $-1 $-1 $396 $13 $-1 $466 reversed single #
plane-surface $-1 -50.82064271980957 0 0 1 0 0 0 0 -1 forward_v I I I I #
straight-curve $-1 0 -30.274319212426978 7.2935729024573446 1 0 0 I I #
point $-1 -50.82064271980957 -30.274319212426978 7.2935729024573446 #
coedge $-1 $462 $329 $383 $460 reversed $396 $-1 #
coedge $-1 $329 $462 $331 $398 reversed $396 $-1 #
loop $-1 $-1 $329 $390 #
straight-curve $-1 50.82064271980957 30.274319212426978 0 0 0 -1 I I #
edge $-1 $332 -50.82064271980957 $464 50.82064271980957 $395 $467 forward 7 unknown #
point $-1 50.82064271980957 30.274319212426978 7.2935729024573446 #
face $-1 $434 $418 $14 $-1 $468 reversed single #
loop $-1 $-1 $469 $335 #
plane-surface $-1 0 -30.274319212426978 0 0 1 0 0 0 1 forward_v I I I I #
coedge $-1 $410 $470 $356 $433 reversed $336 $-1 #
coedge $-1 $471 $338 $470 $472 reversed $272 $-1 #
coedge $-1 $338 $471 $469 $473 reversed $272 $-1 #
coedge $-1 $342 $356 $338 $407 forward $66 $-1 #
edge $-1 $474 10.435162301360382 $475 16.704492041164524 $406 $476 forward 7 unknown #
coedge $-1 $340 $339 $477 $478 reversed $195 $-1 #
edge $-1 $479 -50.82064271980957 $359 50.82064271980957 $357 $480 forward 7 unknown #
coedge $-1 $481 $403 $340 $411 forward $336 $-1 #
edge $-1 $412 -50.82064271980957 $482 50.82064271980957 $410 $483 forward 7 unknown #
vertex $-1 $341 $484 #
straight-curve $-1 50.82064271980957 -13.569827171262453 6.2990203081123184 0 1 0 I I #
coedge $-1 $469 $485 $342 $415 reversed $401 $-1 #
edge $-1 $475 -3.0627992189425033 $419 7.2935729024573446 $342 $360 forward 7 unknown #
coedge $-1 $486 $343 $485 $487 forward $418 $-1 #
coedge $-1 $343 $486 $345 $421 forward $418 $-1 #
loop $-1 $-1 $343 $400 #
vertex $-1 $415 $488 #
straight-curve $-1 50.82064271980957 0 -7.2935729024573446 0 -1 0 I I #
edge $-1 $489 -50.82064271980957 $346 50.82064271980957 $345 $490 forward 7 unknown #
point $-1 50.82064271980957 30.274319212426978 -7.2935729024573446 #
coedge $-1 $491 $428 $349 $424 forward $492 $-1 #
edge $-1 $425 -7.2935729024573446 $489 7.2935729024573446 $349 $493 forward 7 unknown #
vertex $-1 $350 $494 #
straight-curve $-1 0 30.274319212426978 7.2935729024573446 -1 0 0 I I #
plane-surface $-1 0 30.274319212426978 0 0 -1 0 0 0 -1 forward_v I I I I #
coedge $-1 $423 $495 $353 $429 reversed $492 $-1 #
edge $-1 $425 -30.274319212426978 $431 30.274319212426978 $428 $496 forward 7 unknown #
coedge $-1 $357 $354 $495 $497 forward $358 $-1 #
vertex $-1 $429 $498 #
straight-curve $-1 0 -30.274319212426978 7.2935729024573446 1 0 0 I I #
edge $-1 $412 -3.958565426348613 $474 -0.72234433717879787 $356 $499 forward 7 unknown #
face $-1 $500 $358 $14 $-1 $402 reversed single #
point $-1 50.82064271980957 -30.274319212426978 6.2990203081123184 #
face $-1 $501 $502 $15 $-1 $503 forward single #
loop $-1 $-1 $504 $362 #
plane-surface $-1 0 -27.139654342524906 3.0627992189425033 0 0 1 1 0 0 forward_v I I I I #
coedge $-1 $505 $506 $451 $507 reversed $363 $-1 #
coedge $-1 $365 $508 $509 $510 reversed $213 $-1 #
coedge $-1 $511 $445 $365 $442 forward $512 $-1 #
edge $-1 $443 -2.1575967104666844 $513 7.2935729024573446 $365 $514 forward 7 unknown #
vertex $-1 $442 $515 #
straight-curve $-1 50.82064271980957 11.191279094633876 2.157596710466688 0 -1 0 I I #
coedge $-1 $441 $516 $367 $446 forward $512 $-1 #
edge $-1 $517 61.930846371885451 $443 70.464990468305601 $445 $518 forward 7 unknown #
edge $-1 $369 3.2995180714746386 $517 19.083040117793111 $371 $519 forward 7 unknown #
point $-1 44.004972245544543 14.490797166108514 7.2935729024573419 #
coedge $-1 $520 $371 $516 $521 forward $293 $-1 #
coedge $-1 $372 $520 $522 $523 forward $293 $-1 #
coedge $-1 $524 $374 $439 $507 forward $213 $-1 #
coedge $-1 $522 $525 $374 $453 reversed $526 $-1 #
edge $-1 $454 -7.2935729024573446 $527 -6.2990203081123184 $374 $528 forward 7 unknown #
vertex $-1 $375 $529 #
straight-curve $-1 50.82064271980957 0 7.2935729024573446 0 1 0 I I #
coedge $-1 $383 $380 $379 $457 forward $311 $-1 #
edge $-1 $382 -30.274319212426978 $530 30.274319212426978 $379 $531 forward 7 unknown #
straight-curve $-1 0 -30.274319212426978 -7.2935729024573446 -1 0 0 I I #
point $-1 -50.82064271980957 -30.274319212426978 -7.2935729024573446 #
edge $-1 $530 -50.82064271980957 $384 50.82064271980957 $394 $532 forward 7 unknown #
point $-1 50.82064271980957 30.274319212426978 -7.2935729024573446 #
coedge $-1 $395 $394 $387 $463 reversed $396 $-1 #
edge $-1 $464 -7.2935729024573446 $530 7.2935729024573446 $462 $533 forward 7 unknown #
vertex $-1 $398 $534 #
straight-curve $-1 -50.82064271980957 0 7.2935729024573446 0 -1 0 I I #
plane-surface $-1 0 30.274319212426978 0 0 -1 0 0 0 -1 forward_v I I I I #
straight-curve $-1 0 30.274319212426978 7.2935729024573446 -1 0 0 I I #
plane-surface $-1 0 0 -7.2935729024573446 0 0 1 1 0 0 forward_v I I I I #
coedge $-1 $535 $414 $405 $473 forward $401 $-1 #
coedge $-1 $403 $481 $404 $472 forward $336 $-1 #
coedge $-1 $405 $404 $536 $537 reversed $272 $-1 #
edge $-1 $538 -50.82064271980957 $474 50.82064271980957 $470 $539 forward 7 unknown #
edge $-1 $475 -50.82064271980957 $540 50.82064271980957 $469 $541 forward 7 unknown #
vertex $-1 $407 $542 #
vertex $-1 $415 $543 #
straight-curve $-1 50.82064271980957 -13.569827171262453 3.0627992189425033 0 -1 0 I I #
coedge $-1 $495 $544 $408 $478 forward $492 $-1 #
edge $-1 $482 10.435162301360382 $479 16.704492041164524 $477 $545 forward 7 unknown #
vertex $-1 $478 $546 #
straight-curve $-1 0 -30.274319212426978 6.2990203081123184 1 0 0 I I #
coedge $-1 $470 $410 $544 $547 reversed $336 $-1 #
vertex $-1 $478 $548 #
straight-curve $-1 0 -24.004989472622835 6.2990203081123184 -1 0 0 I I #
point $-1 50.82064271980957 -24.004989472622835 6.2990203081123184 #
coedge $-1 $414 $535 $416 $487 reversed $401 $-1 #
coedge $-1 $417 $416 $491 $549 forward $418 $-1 #
edge $-1 $419 -50.82064271980957 $550 50.82064271980957 $485 $551 forward 7 unknown #
point $-1 50.82064271980957 -30.274319212426978 -7.2935729024573446 #
vertex $-1 $421 $552 #
straight-curve $-1 0 30.274319212426978 -7.2935729024573446 1 0 0 I I #
coedge $-1 $553 $423 $486 $549 reversed $492 $-1 #
loop $-1 $-1 $477 $500 #
straight-curve $-1 -50.82064271980957 30.274319212426978 0 0 0 -1 I I #
point $-1 -50.82064271980957 30.274319212426978 7.2935729024573446 #
coedge $-1 $428 $477 $430 $497 reversed $492 $-1 #
straight-curve $-1 -50.82064271980957 0 7.2935729024573446 0 -1 0 I I #
edge $-1 $431 -7.2935729024573446 $479 -6.2990203081123184 $495 $554 forward 7 unknown #
point $-1 -50.82064271980957 -30.274319212426978 7.2935729024573446 #
straight-curve $-1 50.82064271980957 -24.004989472622835 2.3404548817637054 0 0 -1 I I #
face $-1 $351 $492 $14 $-1 $555 reversed single #
face $-1 $556 $557 $15 $-1 $558 reversed single #
loop $-1 $-1 $559 $436 #
plane-surface $-1 0 -24.004989472622835 4.6809097635274108 0 -1 0 0 0 -1 forward_v I I I I #
coedge $-1 $560 $561 $562 $563 reversed $437 $-1 #
coedge $-1 $564 $439 $525 $565 reversed $363 $-1 #
coedge $-1 $439 $564 $566 $567 reversed $363 $-1 #
edge $-1 $527 -16.704492041164524 $568 -10.435162301360382 $451 $569 forward 7 unknown #
coedge $-1 $440 $562 $570 $571 forward $213 $-1 #
coedge $-1 $572 $573 $440 $510 forward $574 $-1 #
edge $-1 $513 -30.274319212426978 $575 30.274319212426978 $440 $576 forward 7 unknown #
coedge $-1 $577 $441 $573 $578 reversed $512 $-1 #
loop $-1 $-1 $445 $579 #
vertex $-1 $510 $580 #
straight-curve $-1 50.82064271980957 30.274319212426978 0 0 0 -1 I I #
point $-1 50.820642719809562 30.274319212426988 2.1575967104666844 #
coedge $-1 $445 $577 $449 $521 reversed $512 $-1 #
vertex $-1 $521 $581 #
straight-curve $-1 -5.455200478766832 30.274319212426978 44.56448711742344 0.79863550430605224 0 -0.6018150307709319 I I #
straight-curve $-1 44.00497224554455 11.191279094633876 7.2935729024573419 0 1 0 I I #
coedge $-1 $450 $449 $582 $583 forward $293 $-1 #
edge $-1 $517 -44.004972245544543 $584 50.82064271980957 $516 $585 forward 7 unknown #
coedge $-1 $586 $452 $450 $523 reversed $526 $-1 #
edge $-1 $587 -50.82064271980957 $454 50.82064271980957 $522 $588 forward 7 unknown #
coedge $-1 $562 $451 $559 $589 forward $213 $-1 #
coedge $-1 $452 $586 $505 $565 forward $526 $-1 #
loop $-1 $-1 $525 $590 #
vertex $-1 $565 $591 #
straight-curve $-1 50.82064271980957 -30.274319212426978 0 0 0 -1 I I #
point $-1 50.82064271980957 -30.274319212426978 7.2935729024573446 #
vertex $-1 $460 $592 #
straight-curve $-1 -50.82064271980957 0 -7.2935729024573446 0 1 0 I I #
straight-curve $-1 0 30.274319212426978 -7.2935729024573446 1 0 0 I I #
straight-curve $-1 -50.82064271980957 30.274319212426978 0 0 0 -1 I I #
point $-1 -50.82064271980957 30.274319212426978 7.2935729024573446 #
coedge $-1 $485 $469 $553 $593 forward $401 $-1 #
coedge $-1 $544 $553 $471 $537 forward $492 $-1 #
edge $-1 $540 -16.704492041164524 $538 -10.435162301360382 $536 $594 forward 7 unknown #
vertex $-1 $537 $595 #
straight-curve $-1 0 -24.004989472622835 3.0627992189425033 1 0 0 I I #
vertex $-1 $593 $596 #
straight-curve $-1 0 -30.274319212426978 3.0627992189425033 -1 0 0 I I #
point $-1 50.82064271980957 -24.004989472622835 3.0627992189425033 #
point $-1 50.82064271980957 -30.274319212426978 3.0627992189425033 #
coedge $-1 $477 $536 $481 $547 forward $492 $-1 #
straight-curve $-1 -50.82064271980957 -13.569827171262453 6.2990203081123184 0 -1 0 I I #
point $-1 -50.82064271980957 -30.274319212426978 6.2990203081123184 #
edge $-1 $538 0.72234433717879787 $482 3.958565426348613 $544 $597 forward 7 unknown #
point $-1 -50.82064271980957 -24.004989472622835 6.2990203081123184 #
edge $-1 $550 -30.274319212426978 $489 30.274319212426978 $491 $598 forward 7 unknown #
vertex $-1 $549 $599 #
straight-curve $-1 0 -30.274319212426978 -7.2935729024573446 -1 0 0 I I #
point $-1 -50.82064271980957 30.274319212426978 -7.2935729024573446 #
coedge $-1 $536 $491 $535 $593 reversed $492 $-1 #
straight-curve $-1 -50.82064271980957 -30.274319212426978 0 0 0 -1 I I #
plane-surface $-1 -50.82064271980957 0 0 1 0 0 0 0 -1 forward_v I I I I #
face $-1 $590 $574 $15 $-1 $600 reversed single #
loop $-1 $-1 $601 $501 #
plane-surface $-1 0 -30.274319212426978 0 0 1 0 0 0 1 forward_v I I I I #
coedge $-1 $566 $602 $524 $589 reversed $502 $-1 #
coedge $-1 $603 $504 $602 $604 reversed $437 $-1 #
coedge $-1 $504 $603 $601 $605 reversed $437 $-1 #
coedge $-1 $508 $524 $504 $563 forward $213 $-1 #
edge $-1 $606 10.435162301360382 $607 16.704492041164524 $562 $608 forward 7 unknown #
coedge $-1 $506 $505 $609 $610 reversed $363 $-1 #
edge $-1 $611 -50.82064271980957 $527 50.82064271980957 $525 $612 forward 7 unknown #
coedge $-1 $613 $559 $506 $567 forward $502 $-1 #
edge $-1 $568 -50.82064271980957 $614 50.82064271980957 $566 $615 forward 7 unknown #
vertex $-1 $507 $616 #
straight-curve $-1 50.82064271980957 -13.569827171262453 6.2990203081123184 0 1 0 I I #
coedge $-1 $601 $617 $508 $571 reversed $557 $-1 #
edge $-1 $607 -3.0627992189425033 $575 7.2935729024573446 $508 $528 forward 7 unknown #
coedge $-1 $618 $509 $617 $619 forward $574 $-1 #
coedge $-1 $509 $618 $511 $578 forward $574 $-1 #
loop $-1 $-1 $509 $556 #
vertex $-1 $571 $620 #
straight-curve $-1 50.82064271980957 0 -7.2935729024573446 0 -1 0 I I #
coedge $-1 $516 $511 $621 $622 reversed $512 $-1 #
edge $-1 $623 -50.82064271980957 $513 50.82064271980957 $511 $624 forward 7 unknown #
face $-1 $-1 $512 $15 $-1 $625 reversed single #
point $-1 50.82064271980957 30.274319212426978 -7.2935729024573446 #
point $-1 44.004972245544543 30.274319212426988 7.2935729024573419 #
coedge $-1 $621 $626 $520 $583 reversed $627 $-1 #
edge $-1 $584 -30.274319212426978 $587 30.274319212426978 $582 $628 forward 7 unknown #
vertex $-1 $521 $629 #
straight-curve $-1 0 30.274319212426978 7.2935729024573446 -1 0 0 I I #
coedge $-1 $525 $522 $626 $630 forward $526 $-1 #
vertex $-1 $583 $631 #
straight-curve $-1 0 -30.274319212426978 7.2935729024573446 1 0 0 I I #
edge $-1 $568 -3.958565426348613 $606 -0.72234433717879787 $524 $632 forward 7 unknown #
face $-1 $633 $526 $15 $-1 $558 reversed single #
point $-1 50.82064271980957 -30.274319212426978 6.2990203081123184 #
point $-1 -50.82064271980957 30.274319212426978 -7.2935729024573446 #
edge $-1 $540 -3.0627992189425033 $550 7.2935729024573446 $553 $554 forward 7 unknown #
straight-curve $-1 -50.82064271980957 -13.569827171262453 3.0627992189425033 0 1 0 I I #
point $-1 -50.82064271980957 -24.004989472622835 3.0627992189425033 #
point $-1 -50.82064271980957 -30.274319212426978 3.0627992189425033 #
straight-curve $-1 -50.82064271980957 -24.004989472622835 2.3404548817637054 0 0 1 I I #
straight-curve $-1 -50.82064271980957 0 -7.2935729024573446 0 1 0 I I #
point $-1 -50.82064271980957 -30.274319212426978 -7.2935729024573446 #
plane-surface $-1 0 0 -7.2935729024573446 0 0 1 1 0 0 forward_v I I I I #
coedge $-1 $634 $570 $561 $605 forward $557 $-1 #
coedge $-1 $559 $613 $560 $604 forward $502 $-1 #
coedge $-1 $561 $560 $635 $636 reversed $437 $-1 #
edge $-1 $637 -50.82064271980957 $606 50.82064271980957 $602 $638 forward 7 unknown #
edge $-1 $607 -50.82064271980957 $639 50.82064271980957 $601 $640 forward 7 unknown #
vertex $-1 $563 $641 #
vertex $-1 $571 $642 #
straight-curve $-1 50.82064271980957 -13.569827171262453 3.0627992189425033 0 -1 0 I I #
coedge $-1 $626 $643 $564 $610 forward $627 $-1 #
edge $-1 $614 10.435162301360382 $611 16.704492041164524 $609 $644 forward 7 unknown #
vertex $-1 $610 $645 #
straight-curve $-1 0 -30.274319212426978 6.2990203081123184 1 0 0 I I #
coedge $-1 $602 $566 $643 $646 reversed $502 $-1 #
vertex $-1 $610 $647 #
straight-curve $-1 0 -24.004989472622835 6.2990203081123184 -1 0 0 I I #
point $-1 50.82064271980957 -24.004989472622835 6.2990203081123184 #
coedge $-1 $570 $634 $572 $619 reversed $557 $-1 #
coedge $-1 $573 $572 $648 $649 forward $574 $-1 #
edge $-1 $575 -50.82064271980957 $650 50.82064271980957 $617 $651 forward 7 unknown #
point $-1 50.82064271980957 -30.274319212426978 -7.2935729024573446 #
coedge $-1 $648 $582 $577 $622 forward $627 $-1 #
edge $-1 $584 -7.2935729024573446 $623 7.2935729024573446 $577 $652 forward 7 unknown #
vertex $-1 $578 $653 #
straight-curve $-1 0 30.274319212426978 -7.2935729024573446 1 0 0 I I #
plane-surface $-1 0 30.274319212426978 0 0 -1 0 0 0 -1 forward_v I I I I #
coedge $-1 $582 $609 $586 $630 reversed $627 $-1 #
loop $-1 $-1 $609 $633 #
straight-curve $-1 -50.82064271980957 0 7.2935729024573446 0 -1 0 I I #
point $-1 -50.82064271980957 30.274319212426978 7.2935729024573446 #
edge $-1 $587 -7.2935729024573446 $611 -6.2990203081123184 $626 $654 forward 7 unknown #
point $-1 -50.82064271980957 -30.274319212426978 7.2935729024573446 #
straight-curve $-1 50.82064271980957 -24.004989472622835 2.3404548817637054 0 0 -1 I I #
face $-1 $579 $627 $15 $-1 $655 reversed single #
coedge $-1 $617 $601 $656 $657 forward $557 $-1 #
coedge $-1 $643 $656 $603 $636 forward $627 $-1 #
edge $-1 $639 -16.704492041164524 $637 -10.435162301360382 $635 $658 forward 7 unknown #
vertex $-1 $636 $659 #
straight-curve $-1 0 -24.004989472622835 3.0627992189425033 1 0 0 I I #
vertex $-1 $657 $660 #
straight-curve $-1 0 -30.274319212426978 3.0627992189425033 -1 0 0 I I #
point $-1 50.82064271980957 -24.004989472622835 3.0627992189425033 #
point $-1 50.82064271980957 -30.274319212426978 3.0627992189425033 #
coedge $-1 $609 $635 $613 $646 forward $627 $-1 #
straight-curve $-1 -50.82064271980957 -13.569827171262453 6.2990203081123184 0 -1 0 I I #
point $-1 -50.82064271980957 -30.274319212426978 6.2990203081123184 #
edge $-1 $637 0.72234433717879787 $614 3.958565426348613 $643 $661 forward 7 unknown #
point $-1 -50.82064271980957 -24.004989472622835 6.2990203081123184 #
coedge $-1 $656 $621 $618 $649 reversed $627 $-1 #
edge $-1 $650 -30.274319212426978 $623 30.274319212426978 $648 $662 forward 7 unknown #
vertex $-1 $649 $663 #
straight-curve $-1 0 -30.274319212426978 -7.2935729024573446 -1 0 0 I I #
straight-curve $-1 -50.82064271980957 30.274319212426978 0 0 0 -1 I I #
point $-1 -50.82064271980957 30.274319212426978 -7.2935729024573446 #
straight-curve $-1 -50.82064271980957 -30.274319212426978 0 0 0 -1 I I #
plane-surface $-1 -50.82064271980957 0 0 1 0 0 0 0 -1 forward_v I I I I #
coedge $-1 $635 $648 $634 $657 reversed $627 $-1 #
edge $-1 $639 -3.0627992189425033 $650 7.2935729024573446 $656 $654 forward 7 unknown #
straight-curve $-1 -50.82064271980957 -13.569827171262453 3.0627992189425033 0 1 0 I I #
point $-1 -50.82064271980957 -24.004989472622835 3.0627992189425033 #
point $-1 -50.82064271980957 -30.274319212426978 3.0627992189425033 #
straight-curve $-1 -50.82064271980957 -24.004989472622835 2.3404548817637054 0 0 1 I I #
straight-curve $-1 -50.82064271980957 0 -7.2935729024573446 0 1 0 I I #
point $-1 -50.82064271980957 -30.274319212426978 -7.2935729024573446 #
End-of-ACIS-data 