500 0 19 0           
7 Unknown 11 ACIS 5.0 NT 24 Fri Mar 26 01:04:08 1999 
-1 9.9999999999999995e-007 1e-010 
body $-1 $19 $-1 $20 #
body $-1 $21 $-1 $22 #
body $-1 $23 $-1 $24 #
body $-1 $25 $-1 $26 #
body $-1 $27 $-1 $28 #
body $-1 $29 $-1 $30 #
body $-1 $31 $-1 $32 #
body $-1 $33 $-1 $34 #
body $-1 $35 $-1 $36 #
body $-1 $37 $-1 $38 #
body $-1 $39 $-1 $40 #
body $-1 $41 $-1 $42 #
body $-1 $43 $-1 $44 #
body $-1 $45 $-1 $46 #
body $-1 $47 $-1 $48 #
body $-1 $49 $-1 $50 #
body $-1 $51 $-1 $52 #
body $-1 $53 $-1 $54 #
body $-1 $55 $-1 $56 #
lump $-1 $-1 $57 $0 #
transform $-1 1 0 0 0 1 0 0 0 1 64.009521774956511 43.090732629562609 11.955781323539092 1 rotate no_reflect no_shear #
lump $-1 $-1 $58 $1 #
transform $-1 1 0 0 0 1 0 0 0 1 64.009521774956511 43.090732629562609 11.955781323539092 1 rotate no_reflect no_shear #
lump $-1 $-1 $59 $2 #
transform $-1 1 0 0 0 1 0 0 0 1 64.009521774956511 43.090732629562609 11.955781323539092 1 rotate no_reflect no_shear #
lump $-1 $-1 $60 $3 #
transform $-1 1 0 0 0 1 0 0 0 1 64.009521774956511 43.090732629562609 11.955781323539092 1 rotate no_reflect no_shear #
lump $-1 $-1 $61 $4 #
transform $-1 1 0 0 0 1 0 0 0 1 64.009521774956511 43.090732629562609 11.955781323539092 1 rotate no_reflect no_shear #
lump $-1 $-1 $62 $5 #
transform $-1 1 0 0 0 1 0 0 0 1 64.009521774956511 43.090732629562609 11.955781323539092 1 rotate no_reflect no_shear #
lump $-1 $-1 $63 $6 #
transform $-1 1 0 0 0 1 0 0 0 1 64.009521774956511 43.090732629562609 11.955781323539092 1 rotate no_reflect no_shear #
lump $-1 $-1 $64 $7 #
transform $-1 1 0 0 0 1 0 0 0 1 64.009521774956511 43.090732629562609 11.955781323539092 1 rotate no_reflect no_shear #
lump $-1 $-1 $65 $8 #
transform $-1 1 0 0 0 1 0 0 0 1 64.009521774956511 43.090732629562609 11.955781323539092 1 rotate no_reflect no_shear #
lump $-1 $-1 $66 $9 #
transform $-1 1 0 0 0 1 0 0 0 1 64.009521774956511 43.090732629562609 11.955781323539092 1 rotate no_reflect no_shear #
lump $-1 $-1 $67 $10 #
transform $-1 1 0 0 0 1 0 0 0 1 64.009521774956511 43.090732629562609 11.955781323539092 1 rotate no_reflect no_shear #
lump $-1 $-1 $68 $11 #
transform $-1 1 0 0 0 1 0 0 0 1 64.009521774956511 43.090732629562609 11.955781323539092 1 rotate no_reflect no_shear #
lump $-1 $-1 $69 $12 #
transform $-1 1 0 0 0 1 0 0 0 1 64.009521774956511 43.090732629562609 11.955781323539092 1 rotate no_reflect no_shear #
lump $-1 $-1 $70 $13 #
transform $-1 1 0 0 0 1 0 0 0 1 64.009521774956511 43.090732629562609 11.955781323539092 1 rotate no_reflect no_shear #
lump $-1 $-1 $71 $14 #
transform $-1 1 0 0 0 1 0 0 0 1 64.009521774956511 43.090732629562609 11.955781323539092 1 rotate no_reflect no_shear #
lump $-1 $-1 $72 $15 #
transform $-1 1 0 0 0 1 0 0 0 1 64.009521774956511 43.090732629562609 11.955781323539092 1 rotate no_reflect no_shear #
lump $-1 $-1 $73 $16 #
transform $-1 1 0 0 0 1 0 0 0 1 64.009521774956511 43.090732629562609 11.955781323539092 1 rotate no_reflect no_shear #
lump $-1 $-1 $74 $17 #
transform $-1 1 0 0 0 1 0 0 0 1 64.009521774956511 43.090732629562609 11.955781323539092 1 rotate no_reflect no_shear #
lump $-1 $-1 $75 $18 #
transform $-1 1 0 0 0 1 0 0 0 1 64.009521774956511 43.090732629562609 11.955781323539092 1 rotate no_reflect no_shear #
shell $-1 $-1 $-1 $76 $-1 $19 #
shell $-1 $-1 $-1 $77 $-1 $21 #
shell $-1 $-1 $-1 $78 $-1 $23 #
shell $-1 $-1 $-1 $79 $-1 $25 #
shell $-1 $-1 $-1 $80 $-1 $27 #
shell $-1 $-1 $-1 $81 $-1 $29 #
shell $-1 $-1 $-1 $82 $-1 $31 #
shell $-1 $-1 $-1 $83 $-1 $33 #
shell $-1 $-1 $-1 $84 $-1 $35 #
shell $-1 $-1 $-1 $85 $-1 $37 #
shell $-1 $-1 $-1 $86 $-1 $39 #
shell $-1 $-1 $-1 $87 $-1 $41 #
shell $-1 $-1 $-1 $88 $-1 $43 #
shell $-1 $-1 $-1 $89 $-1 $45 #
shell $-1 $-1 $-1 $90 $-1 $47 #
shell $-1 $-1 $-1 $91 $-1 $49 #
shell $-1 $-1 $-1 $92 $-1 $51 #
shell $-1 $-1 $-1 $93 $-1 $53 #
shell $-1 $-1 $-1 $94 $-1 $55 #
face $-1 $95 $96 $57 $-1 $97 forward single #
face $-1 $98 $99 $58 $-1 $100 forward single #
face $-1 $101 $102 $59 $-1 $103 forward single #
face $-1 $104 $105 $60 $-1 $106 reversed single #
face $-1 $107 $108 $61 $-1 $109 forward single #
face $-1 $110 $111 $62 $-1 $112 forward single #
face $-1 $113 $114 $63 $-1 $115 forward single #
face $-1 $116 $117 $64 $-1 $118 reversed single #
face $-1 $119 $120 $65 $-1 $121 forward single #
face $-1 $122 $123 $66 $-1 $124 forward single #
face $-1 $125 $126 $67 $-1 $127 forward single #
face $-1 $128 $129 $68 $-1 $130 reversed single #
face $-1 $131 $132 $69 $-1 $133 forward single #
face $-1 $134 $135 $70 $-1 $136 forward single #
face $-1 $137 $138 $71 $-1 $139 forward single #
face $-1 $140 $141 $72 $-1 $142 reversed single #
face $-1 $143 $144 $73 $-1 $145 forward single #
face $-1 $146 $147 $74 $-1 $148 forward single #
face $-1 $149 $150 $75 $-1 $151 forward single #
face $-1 $152 $153 $57 $-1 $154 reversed single #
loop $-1 $-1 $155 $76 #
plane-surface $-1 0 0 11.955781323539092 0 0 1 1 0 0 forward_v I I I I #
face $-1 $156 $157 $58 $-1 $158 reversed single #
loop $-1 $-1 $159 $77 #
plane-surface $-1 0 -43.090732629562609 0 0 1 0 0 0 1 forward_v I I I I #
face $-1 $160 $161 $59 $-1 $162 reversed single #
loop $-1 $-1 $163 $78 #
plane-surface $-1 0 43.090732629562609 0 0 -1 0 0 0 -1 forward_v I I I I #
face $-1 $164 $165 $60 $-1 $166 reversed single #
loop $-1 $-1 $167 $79 #
plane-surface $-1 60.849830781924865 -14.465988389639726 186.32022517683106 0 -1 0 -0.69465837861970381 0 -0.71933979245794832 forward_v I I I I #
face $-1 $168 $169 $61 $-1 $170 forward single #
loop $-1 $171 $172 $80 #
cone-surface $-1 59.686336224942657 -24.168073349840192 7.7196193229300238 -0.69465837861970381 0 -0.71933979245794832 0.71933979245794832 0 -0.69465837861970381 1 I I 0 1 1 forward I I I I #
face $-1 $173 $174 $62 $-1 $175 forward single #
loop $-1 $176 $177 $81 #
cone-surface $-1 59.686336224942657 -20.529791489765017 7.7196193229300238 -0.69465837861970381 0 -0.71933979245794832 0.71933979245794832 0 -0.69465837861970381 1 I I 0 1 1 forward I I I I #
face $-1 $178 $179 $63 $-1 $180 forward single #
loop $-1 $181 $182 $82 #
cone-surface $-1 59.686336224942657 -16.891509629689843 7.7196193229300238 -0.69465837861970381 0 -0.71933979245794832 0.71933979245794832 0 -0.69465837861970381 1 I I 0 1 1 forward I I I I #
face $-1 $183 $184 $64 $-1 $185 reversed single #
loop $-1 $-1 $186 $83 #
plane-surface $-1 60.849830781924865 26.593594589890309 186.32022517683106 0 -1 0 -0.69465837861970381 0 -0.71933979245794832 forward_v I I I I #
face $-1 $187 $188 $65 $-1 $189 forward single #
loop $-1 $190 $191 $84 #
cone-surface $-1 59.686336224942657 16.891509629689843 7.7196193229300238 -0.69465837861970381 0 -0.71933979245794832 0.71933979245794832 0 -0.69465837861970381 1 I I 0 1 1 forward I I I I #
face $-1 $192 $193 $66 $-1 $194 forward single #
loop $-1 $195 $196 $85 #
cone-surface $-1 59.686336224942657 20.529791489765017 7.7196193229300238 -0.69465837861970381 0 -0.71933979245794832 0.71933979245794832 0 -0.69465837861970381 1 I I 0 1 1 forward I I I I #
face $-1 $197 $198 $67 $-1 $199 forward single #
loop $-1 $200 $201 $86 #
cone-surface $-1 59.686336224942657 24.168073349840199 7.7196193229300238 -0.69465837861970381 0 -0.71933979245794832 0.71933979245794832 0 -0.69465837861970381 1 I I 0 1 1 forward I I I I #
face $-1 $202 $203 $68 $-1 $204 reversed single #
loop $-1 $-1 $205 $87 #
plane-surface $-1 -152.93902299978436 -26.593594589890309 97.390723952003214 0 1 0 -0.69465837861970381 0 0.71933979245794832 forward_v I I I I #
face $-1 $206 $207 $69 $-1 $208 forward single #
loop $-1 $209 $210 $88 #
cone-surface $-1 -59.686336224942657 -24.168073349840192 7.7196193229300167 0.69465837861970381 0 -0.71933979245794832 0.71933979245794832 0 0.69465837861970381 1 I I 0 1 1 forward I I I I #
face $-1 $211 $212 $70 $-1 $213 forward single #
loop $-1 $214 $215 $89 #
cone-surface $-1 -59.686336224942657 -20.529791489765017 7.7196193229300167 0.69465837861970381 0 -0.71933979245794832 0.71933979245794832 0 0.69465837861970381 1 I I 0 1 1 forward I I I I #
face $-1 $216 $217 $71 $-1 $218 forward single #
loop $-1 $219 $220 $90 #
cone-surface $-1 -59.686336224942657 -16.891509629689843 7.7196193229300167 0.69465837861970381 0 -0.71933979245794832 0.71933979245794832 0 0.69465837861970381 1 I I 0 1 1 forward I I I I #
face $-1 $221 $222 $72 $-1 $223 reversed single #
loop $-1 $-1 $224 $91 #
plane-surface $-1 -152.93902299978436 14.465988389639726 97.390723952003214 0 1 0 -0.69465837861970381 0 0.71933979245794832 forward_v I I I I #
face $-1 $225 $226 $73 $-1 $227 forward single #
loop $-1 $228 $229 $92 #
cone-surface $-1 -59.686336224942657 16.891509629689843 7.7196193229300167 0.69465837861970381 0 -0.71933979245794832 0.71933979245794832 0 0.69465837861970381 1 I I 0 1 1 forward I I I I #
face $-1 $230 $231 $74 $-1 $232 forward single #
loop $-1 $233 $234 $93 #
cone-surface $-1 -59.686336224942657 20.529791489765017 7.7196193229300167 0.69465837861970381 0 -0.71933979245794832 0.71933979245794832 0 0.69465837861970381 1 I I 0 1 1 forward I I I I #
face $-1 $235 $236 $75 $-1 $237 forward single #
loop $-1 $238 $239 $94 #
cone-surface $-1 -59.686336224942657 24.168073349840199 7.7196193229300167 0.69465837861970381 0 -0.71933979245794832 0.71933979245794832 0 0.69465837861970381 1 I I 0 1 1 forward I I I I #
face $-1 $240 $241 $57 $-1 $242 reversed single #
loop $-1 $-1 $243 $95 #
plane-surface $-1 0 0 -11.955781323539092 0 0 1 1 0 0 forward_v I I I I #
coedge $-1 $244 $245 $246 $247 forward $96 $-1 #
face $-1 $248 $249 $58 $-1 $250 forward single #
loop $-1 $-1 $251 $98 #
plane-surface $-1 -64.009521774956511 0 0 1 0 0 0 0 -1 forward_v I I I I #
coedge $-1 $252 $253 $254 $255 forward $99 $-1 #
face $-1 $256 $257 $59 $-1 $258 forward single #
loop $-1 $-1 $259 $101 #
plane-surface $-1 64.009521774956511 0 0 -1 0 0 0 0 1 forward_v I I I I #
coedge $-1 $260 $261 $262 $263 forward $102 $-1 #
face $-1 $264 $265 $60 $-1 $266 reversed single #
loop $-1 $-1 $267 $104 #
plane-surface $-1 -28.079670442902966 -20.529791489765017 94.231032958971582 0.69465837861970381 0 0.71933979245794832 0.71933979245794832 0 -0.69465837861970381 forward_v I I I I #
coedge $-1 $268 $269 $270 $271 reversed $105 $-1 #
face $-1 $-1 $272 $61 $-1 $273 forward single #
loop $-1 $274 $275 $107 #
cone-surface $-1 58.46115999007219 -24.168073349840192 6.4509122207896539 -0.69465837861970381 0 -0.71933979245794832 0.35966989622897416 0 -0.3473291893098519 1 I I -0.70710678118654746 0.70710678118654746 0.5 forward I I I I #
loop $-1 $-1 $276 $80 #
coedge $-1 $172 $172 $277 $278 reversed $108 $-1 #
face $-1 $-1 $279 $62 $-1 $280 forward single #
loop $-1 $281 $282 $110 #
cone-surface $-1 58.46115999007219 -20.529791489765017 6.4509122207896539 -0.69465837861970381 0 -0.71933979245794832 0.35966989622897416 0 -0.3473291893098519 1 I I -0.70710678118654746 0.70710678118654746 0.5 forward I I I I #
loop $-1 $-1 $283 $81 #
coedge $-1 $177 $177 $284 $285 reversed $111 $-1 #
face $-1 $-1 $286 $63 $-1 $287 forward single #
loop $-1 $288 $289 $113 #
cone-surface $-1 58.46115999007219 -16.891509629689843 6.4509122207896539 -0.69465837861970381 0 -0.71933979245794832 0.35966989622897416 0 -0.3473291893098519 1 I I -0.70710678118654746 0.70710678118654746 0.5 forward I I I I #
loop $-1 $-1 $290 $82 #
coedge $-1 $182 $182 $291 $292 reversed $114 $-1 #
face $-1 $293 $294 $64 $-1 $295 reversed single #
loop $-1 $-1 $296 $116 #
plane-surface $-1 -28.079670442902966 20.529791489765017 94.231032958971582 0.69465837861970381 0 0.71933979245794832 0.71933979245794832 0 -0.69465837861970381 forward_v I I I I #
coedge $-1 $297 $298 $299 $300 reversed $117 $-1 #
face $-1 $-1 $301 $65 $-1 $302 forward single #
loop $-1 $303 $304 $119 #
cone-surface $-1 58.46115999007219 16.891509629689843 6.4509122207896539 -0.69465837861970381 0 -0.71933979245794832 0.35966989622897416 0 -0.3473291893098519 1 I I -0.70710678118654746 0.70710678118654746 0.5 forward I I I I #
loop $-1 $-1 $305 $84 #
coedge $-1 $191 $191 $306 $307 reversed $120 $-1 #
face $-1 $-1 $308 $66 $-1 $309 forward single #
loop $-1 $310 $311 $122 #
cone-surface $-1 58.46115999007219 20.529791489765017 6.4509122207896539 -0.69465837861970381 0 -0.71933979245794832 0.35966989622897416 0 -0.3473291893098519 1 I I -0.70710678118654746 0.70710678118654746 0.5 forward I I I I #
loop $-1 $-1 $312 $85 #
coedge $-1 $196 $196 $313 $314 reversed $123 $-1 #
face $-1 $-1 $315 $67 $-1 $316 forward single #
loop $-1 $317 $318 $125 #
cone-surface $-1 58.46115999007219 24.168073349840199 6.4509122207896539 -0.69465837861970381 0 -0.71933979245794832 0.35966989622897416 0 -0.3473291893098519 1 I I -0.70710678118654746 0.70710678118654746 0.5 forward I I I I #
loop $-1 $-1 $319 $86 #
coedge $-1 $201 $201 $320 $321 reversed $126 $-1 #
face $-1 $322 $323 $68 $-1 $324 reversed single #
loop $-1 $-1 $325 $128 #
plane-surface $-1 -64.009521774956525 -20.529791489765017 5.3015317341437367 -0.69465837861970381 0 0.71933979245794832 0.71933979245794832 0 0.69465837861970381 forward_v I I I I #
coedge $-1 $326 $327 $328 $329 reversed $129 $-1 #
face $-1 $-1 $330 $69 $-1 $331 forward single #
loop $-1 $332 $333 $131 #
cone-surface $-1 -58.46115999007219 -24.168073349840192 6.4509122207896468 0.69465837861970381 0 -0.71933979245794832 0.35966989622897416 0 0.3473291893098519 1 I I -0.70710678118654746 0.70710678118654746 0.5 forward I I I I #
loop $-1 $-1 $334 $88 #
coedge $-1 $210 $210 $335 $336 reversed $132 $-1 #
face $-1 $-1 $337 $70 $-1 $338 forward single #
loop $-1 $339 $340 $134 #
cone-surface $-1 -58.46115999007219 -20.529791489765017 6.4509122207896468 0.69465837861970381 0 -0.71933979245794832 0.35966989622897416 0 0.3473291893098519 1 I I -0.70710678118654746 0.70710678118654746 0.5 forward I I I I #
loop $-1 $-1 $341 $89 #
coedge $-1 $215 $215 $342 $343 reversed $135 $-1 #
face $-1 $-1 $344 $71 $-1 $345 forward single #
loop $-1 $346 $347 $137 #
cone-surface $-1 -58.46115999007219 -16.891509629689843 6.4509122207896468 0.69465837861970381 0 -0.71933979245794832 0.35966989622897416 0 0.3473291893098519 1 I I -0.70710678118654746 0.70710678118654746 0.5 forward I I I I #
loop $-1 $-1 $348 $90 #
coedge $-1 $220 $220 $349 $350 reversed $138 $-1 #
face $-1 $351 $352 $72 $-1 $353 reversed single #
loop $-1 $-1 $354 $140 #
plane-surface $-1 -64.009521774956525 20.529791489765017 5.3015317341437367 -0.69465837861970381 0 0.71933979245794832 0.71933979245794832 0 0.69465837861970381 forward_v I I I I #
coedge $-1 $355 $356 $357 $358 reversed $141 $-1 #
face $-1 $-1 $359 $73 $-1 $360 forward single #
loop $-1 $361 $362 $143 #
cone-surface $-1 -58.46115999007219 16.891509629689843 6.4509122207896468 0.69465837861970381 0 -0.71933979245794832 0.35966989622897416 0 0.3473291893098519 1 I I -0.70710678118654746 0.70710678118654746 0.5 forward I I I I #
loop $-1 $-1 $363 $92 #
coedge $-1 $229 $229 $364 $365 reversed $144 $-1 #
face $-1 $-1 $366 $74 $-1 $367 forward single #
loop $-1 $368 $369 $146 #
cone-surface $-1 -58.46115999007219 20.529791489765017 6.4509122207896468 0.69465837861970381 0 -0.71933979245794832 0.35966989622897416 0 0.3473291893098519 1 I I -0.70710678118654746 0.70710678118654746 0.5 forward I I I I #
loop $-1 $-1 $370 $93 #
coedge $-1 $234 $234 $371 $372 reversed $147 $-1 #
face $-1 $-1 $373 $75 $-1 $374 forward single #
loop $-1 $375 $376 $149 #
cone-surface $-1 -58.46115999007219 24.168073349840199 6.4509122207896468 0.69465837861970381 0 -0.71933979245794832 0.35966989622897416 0 0.3473291893098519 1 I I -0.70710678118654746 0.70710678118654746 0.5 forward I I I I #
loop $-1 $-1 $377 $94 #
coedge $-1 $239 $239 $378 $379 reversed $150 $-1 #
face $-1 $380 $381 $57 $-1 $382 reversed single #
loop $-1 $-1 $383 $152 #
plane-surface $-1 0 -43.090732629562609 0 0 1 0 0 0 1 forward_v I I I I #
coedge $-1 $384 $385 $386 $387 forward $153 $-1 #
coedge $-1 $388 $155 $389 $390 forward $96 $-1 #
coedge $-1 $155 $388 $391 $392 forward $96 $-1 #
coedge $-1 $393 $394 $155 $247 reversed $395 $-1 #
edge $-1 $396 -43.090732629562609 $397 43.090732629562609 $246 $398 forward 7 unknown #
face $-1 $399 $400 $58 $-1 $401 reversed single #
loop $-1 $-1 $402 $156 #
plane-surface $-1 0 -48.550752276343736 -1.7277015335485419 0 0 1 1 0 0 forward_v I I I I #
coedge $-1 $403 $404 $253 $405 forward $157 $-1 #
coedge $-1 $406 $159 $407 $408 reversed $99 $-1 #
coedge $-1 $159 $406 $251 $405 reversed $99 $-1 #
coedge $-1 $409 $402 $159 $255 reversed $249 $-1 #
edge $-1 $410 -64.009521774956511 $411 64.009521774956511 $254 $412 forward 7 unknown #
face $-1 $413 $414 $59 $-1 $415 reversed single #
loop $-1 $-1 $416 $160 #
plane-surface $-1 0 48.550752276343729 -1.7277015335485419 0 0 1 1 0 0 forward_v I I I I #
coedge $-1 $417 $418 $261 $419 forward $161 $-1 #
coedge $-1 $420 $163 $421 $422 reversed $102 $-1 #
coedge $-1 $163 $420 $259 $419 reversed $102 $-1 #
coedge $-1 $416 $423 $163 $263 reversed $257 $-1 #
edge $-1 $424 -64.009521774956511 $425 64.009521774956511 $262 $426 forward 7 unknown #
face $-1 $427 $428 $60 $-1 $429 forward single #
loop $-1 $-1 $430 $164 #
plane-surface $-1 60.849830781924865 -26.593594589890309 186.32022517683106 0 1 0 0.69465837861970381 0 0.71933979245794832 forward_v I I I I #
coedge $-1 $431 $432 $433 $434 reversed $165 $-1 #
coedge $-1 $269 $167 $435 $436 reversed $105 $-1 #
coedge $-1 $167 $268 $431 $437 reversed $105 $-1 #
coedge $-1 $433 $438 $167 $271 forward $428 $-1 #
edge $-1 $439 -33.584606383994078 $440 -26.693929375087613 $270 $441 forward 7 unknown #
loop $-1 $-1 $277 $168 #
plane-surface $-1 -28.079670442902966 -20.529791489765017 94.231032958971582 0.69465837861970381 0 0.71933979245794832 0.71933979245794832 0 -0.69465837861970381 forward_v I I I I #
loop $-1 $-1 $442 $107 #
coedge $-1 $275 $275 $276 $443 reversed $169 $-1 #
coedge $-1 $276 $276 $275 $443 forward $171 $-1 #
coedge $-1 $277 $277 $172 $278 forward $272 $-1 #
edge $-1 $444 0 $444 6.2831853071796004 $277 $445 forward 7 unknown #
loop $-1 $-1 $284 $173 #
plane-surface $-1 -28.079670442902966 -20.529791489765017 94.231032958971582 0.69465837861970381 0 0.71933979245794832 0.71933979245794832 0 -0.69465837861970381 forward_v I I I I #
loop $-1 $-1 $446 $110 #
coedge $-1 $282 $282 $283 $447 reversed $174 $-1 #
coedge $-1 $283 $283 $282 $447 forward $176 $-1 #
coedge $-1 $284 $284 $177 $285 forward $279 $-1 #
edge $-1 $448 0 $448 6.2831853071796004 $284 $449 forward 7 unknown #
loop $-1 $-1 $291 $178 #
plane-surface $-1 -28.079670442902966 -20.529791489765017 94.231032958971582 0.69465837861970381 0 0.71933979245794832 0.71933979245794832 0 -0.69465837861970381 forward_v I I I I #
loop $-1 $-1 $450 $113 #
coedge $-1 $289 $289 $290 $451 reversed $179 $-1 #
coedge $-1 $290 $290 $289 $451 forward $181 $-1 #
coedge $-1 $291 $291 $182 $292 forward $286 $-1 #
edge $-1 $452 0 $452 6.2831853071796004 $291 $453 forward 7 unknown #
face $-1 $454 $455 $64 $-1 $456 reversed single #
loop $-1 $-1 $457 $183 #
plane-surface $-1 60.849830781924865 14.465988389639726 186.32022517683106 0 1 0 0.69465837861970381 0 0.71933979245794832 forward_v I I I I #
coedge $-1 $458 $459 $460 $461 reversed $184 $-1 #
coedge $-1 $298 $186 $462 $463 reversed $117 $-1 #
coedge $-1 $186 $297 $458 $464 reversed $117 $-1 #
coedge $-1 $460 $465 $186 $300 forward $466 $-1 #
edge $-1 $467 -33.584606383994078 $468 -26.693929375087613 $299 $469 forward 7 unknown #
loop $-1 $-1 $306 $187 #
plane-surface $-1 -28.079670442902966 20.529791489765017 94.231032958971582 0.69465837861970381 0 0.71933979245794832 0.71933979245794832 0 -0.69465837861970381 forward_v I I I I #
loop $-1 $-1 $470 $119 #
coedge $-1 $304 $304 $305 $471 reversed $188 $-1 #
coedge $-1 $305 $305 $304 $471 forward $190 $-1 #
coedge $-1 $306 $306 $191 $307 forward $301 $-1 #
edge $-1 $472 0 $472 6.2831853071796004 $306 $473 forward 7 unknown #
loop $-1 $-1 $313 $192 #
plane-surface $-1 -28.079670442902966 20.529791489765017 94.231032958971582 0.69465837861970381 0 0.71933979245794832 0.71933979245794832 0 -0.69465837861970381 forward_v I I I I #
loop $-1 $-1 $474 $122 #
coedge $-1 $311 $311 $312 $475 reversed $193 $-1 #
coedge $-1 $312 $312 $311 $475 forward $195 $-1 #
coedge $-1 $313 $313 $196 $314 forward $308 $-1 #
edge $-1 $476 0 $476 6.2831853071796004 $313 $477 forward 7 unknown #
loop $-1 $-1 $320 $197 #
plane-surface $-1 -28.079670442902966 20.529791489765017 94.231032958971582 0.69465837861970381 0 0.71933979245794832 0.71933979245794832 0 -0.69465837861970381 forward_v I I I I #
loop $-1 $-1 $478 $125 #
coedge $-1 $318 $318 $319 $479 reversed $198 $-1 #
coedge $-1 $319 $319 $318 $479 forward $200 $-1 #
coedge $-1 $320 $320 $201 $321 forward $315 $-1 #
edge $-1 $480 0 $480 6.2831853071796004 $320 $481 forward 7 unknown #
face $-1 $482 $483 $68 $-1 $484 reversed single #
loop $-1 $-1 $485 $202 #
plane-surface $-1 -152.93902299978436 -14.465988389639726 97.390723952003214 0 -1 0 0.69465837861970381 0 -0.71933979245794832 forward_v I I I I #
coedge $-1 $486 $487 $488 $489 reversed $203 $-1 #
coedge $-1 $327 $205 $490 $491 reversed $129 $-1 #
coedge $-1 $205 $326 $486 $492 reversed $129 $-1 #
coedge $-1 $488 $493 $205 $329 forward $494 $-1 #
edge $-1 $495 12.459989724935667 $496 19.350666733842132 $328 $497 forward 7 unknown #
loop $-1 $-1 $335 $206 #
plane-surface $-1 -64.009521774956525 -20.529791489765017 5.3015317341437367 -0.69465837861970381 0 0.71933979245794832 0.71933979245794832 0 0.69465837861970381 forward_v I I I I #
loop $-1 $-1 $498 $131 #
coedge $-1 $333 $333 $334 $499 reversed $207 $-1 #
coedge $-1 $334 $334 $333 $499 forward $209 $-1 #
coedge $-1 $335 $335 $210 $336 forward $330 $-1 #
edge $-1 $500 0 $500 6.2831853071796004 $335 $501 forward 7 unknown #
loop $-1 $-1 $342 $211 #
plane-surface $-1 -64.009521774956525 -20.529791489765017 5.3015317341437367 -0.69465837861970381 0 0.71933979245794832 0.71933979245794832 0 0.69465837861970381 forward_v I I I I #
loop $-1 $-1 $502 $134 #
coedge $-1 $340 $340 $341 $503 reversed $212 $-1 #
coedge $-1 $341 $341 $340 $503 forward $214 $-1 #
coedge $-1 $342 $342 $215 $343 forward $337 $-1 #
edge $-1 $504 0 $504 6.2831853071796004 $342 $505 forward 7 unknown #
loop $-1 $-1 $349 $216 #
plane-surface $-1 -64.009521774956525 -20.529791489765017 5.3015317341437367 -0.69465837861970381 0 0.71933979245794832 0.71933979245794832 0 0.69465837861970381 forward_v I I I I #
loop $-1 $-1 $506 $137 #
coedge $-1 $347 $347 $348 $507 reversed $217 $-1 #
coedge $-1 $348 $348 $347 $507 forward $219 $-1 #
coedge $-1 $349 $349 $220 $350 forward $344 $-1 #
edge $-1 $508 0 $508 6.2831853071796004 $349 $509 forward 7 unknown #
face $-1 $510 $511 $72 $-1 $512 forward single #
loop $-1 $-1 $513 $221 #
plane-surface $-1 -152.93902299978436 26.593594589890309 97.390723952003214 0 -1 0 0.69465837861970381 0 -0.71933979245794832 forward_v I I I I #
coedge $-1 $514 $515 $516 $517 reversed $222 $-1 #
coedge $-1 $356 $224 $518 $519 reversed $141 $-1 #
coedge $-1 $224 $355 $514 $520 reversed $141 $-1 #
coedge $-1 $516 $521 $224 $358 forward $511 $-1 #
edge $-1 $522 12.459989724935667 $523 19.350666733842132 $357 $524 forward 7 unknown #
loop $-1 $-1 $364 $225 #
plane-surface $-1 -64.009521774956525 20.529791489765017 5.3015317341437367 -0.69465837861970381 0 0.71933979245794832 0.71933979245794832 0 0.69465837861970381 forward_v I I I I #
loop $-1 $-1 $525 $143 #
coedge $-1 $362 $362 $363 $526 reversed $226 $-1 #
coedge $-1 $363 $363 $362 $526 forward $228 $-1 #
coedge $-1 $364 $364 $229 $365 forward $359 $-1 #
edge $-1 $527 0 $527 6.2831853071796004 $364 $528 forward 7 unknown #
loop $-1 $-1 $371 $230 #
plane-surface $-1 -64.009521774956525 20.529791489765017 5.3015317341437367 -0.69465837861970381 0 0.71933979245794832 0.71933979245794832 0 0.69465837861970381 forward_v I I I I #
loop $-1 $-1 $529 $146 #
coedge $-1 $369 $369 $370 $530 reversed $231 $-1 #
coedge $-1 $370 $370 $369 $530 forward $233 $-1 #
coedge $-1 $371 $371 $234 $372 forward $366 $-1 #
edge $-1 $531 0 $531 6.2831853071796004 $371 $532 forward 7 unknown #
loop $-1 $-1 $378 $235 #
plane-surface $-1 -64.009521774956525 20.529791489765017 5.3015317341437367 -0.69465837861970381 0 0.71933979245794832 0.71933979245794832 0 0.69465837861970381 forward_v I I I I #
loop $-1 $-1 $533 $149 #
coedge $-1 $376 $376 $377 $534 reversed $236 $-1 #
coedge $-1 $377 $377 $376 $534 forward $238 $-1 #
coedge $-1 $378 $378 $239 $379 forward $373 $-1 #
edge $-1 $535 0 $535 6.2831853071796004 $378 $536 forward 7 unknown #
face $-1 $537 $538 $57 $-1 $539 reversed single #
loop $-1 $-1 $540 $240 #
plane-surface $-1 -64.009521774956511 0 0 1 0 0 0 0 -1 forward_v I I I I #
coedge $-1 $541 $391 $542 $543 forward $241 $-1 #
coedge $-1 $544 $243 $541 $545 forward $153 $-1 #
coedge $-1 $243 $544 $546 $547 forward $153 $-1 #
coedge $-1 $394 $393 $243 $387 reversed $395 $-1 #
edge $-1 $548 -43.090732629562609 $549 43.090732629562609 $386 $550 forward 7 unknown #
coedge $-1 $245 $244 $551 $552 forward $96 $-1 #
coedge $-1 $553 $554 $244 $390 reversed $538 $-1 #
edge $-1 $397 -64.009521774956511 $555 64.009521774956511 $389 $556 forward 7 unknown #
coedge $-1 $383 $557 $245 $392 reversed $241 $-1 #
edge $-1 $558 -64.009521774956511 $396 64.009521774956511 $391 $559 forward 7 unknown #
coedge $-1 $386 $246 $557 $560 forward $395 $-1 #
coedge $-1 $246 $386 $553 $561 reversed $395 $-1 #
loop $-1 $-1 $393 $537 #
vertex $-1 $247 $562 #
vertex $-1 $247 $563 #
straight-curve $-1 64.009521774956511 0 11.955781323539092 0 1 0 I I #
face $-1 $564 $565 $58 $-1 $566 reversed single #
loop $-1 $-1 $567 $248 #
plane-surface $-1 0 -48.550752276343736 -6.6760311076191758 0 0 1 1 0 0 forward_v I I I I #
coedge $-1 $254 $568 $569 $570 forward $249 $-1 #
coedge $-1 $571 $251 $572 $573 reversed $157 $-1 #
coedge $-1 $251 $571 $409 $574 reversed $157 $-1 #
edge $-1 $410 1.7277015335485419 $575 6.6760311076191758 $251 $576 forward 7 unknown #
coedge $-1 $253 $252 $577 $578 forward $99 $-1 #
coedge $-1 $569 $579 $252 $408 forward $580 $-1 #
edge $-1 $581 -6.6760311076191758 $411 -1.7277015335485419 $407 $582 forward 7 unknown #
coedge $-1 $568 $254 $404 $574 forward $249 $-1 #
vertex $-1 $405 $583 #
vertex $-1 $570 $584 #
straight-curve $-1 0 -43.090732629562609 -1.7277015335485419 1 0 0 I I #
face $-1 $585 $586 $59 $-1 $587 reversed single #
loop $-1 $-1 $588 $256 #
plane-surface $-1 0 48.550752276343729 -6.6760311076191758 0 0 1 1 0 0 forward_v I I I I #
coedge $-1 $589 $262 $418 $590 forward $257 $-1 #
coedge $-1 $591 $259 $588 $592 reversed $161 $-1 #
coedge $-1 $259 $591 $416 $590 reversed $161 $-1 #
edge $-1 $424 1.7277015335485419 $593 6.6760311076191758 $259 $594 forward 7 unknown #
coedge $-1 $261 $260 $595 $596 forward $102 $-1 #
coedge $-1 $597 $598 $260 $422 forward $599 $-1 #
edge $-1 $600 -6.6760311076191758 $425 -1.7277015335485419 $421 $601 forward 7 unknown #
coedge $-1 $262 $589 $597 $602 forward $257 $-1 #
vertex $-1 $419 $603 #
vertex $-1 $602 $604 #
straight-curve $-1 0 43.090732629562609 -1.7277015335485419 -1 0 0 I I #
face $-1 $-1 $605 $60 $-1 $606 reversed single #
loop $-1 $-1 $270 $264 #
plane-surface $-1 0 0 11.955781323539092 0 0 1 1 0 0 forward_v I I I I #
coedge $-1 $607 $608 $609 $610 reversed $265 $-1 #
coedge $-1 $611 $267 $269 $437 forward $165 $-1 #
coedge $-1 $267 $611 $607 $612 forward $165 $-1 #
coedge $-1 $609 $270 $267 $434 forward $428 $-1 #
edge $-1 $440 4.2010926447572174 $613 16.3286988450078 $433 $614 forward 7 unknown #
coedge $-1 $615 $616 $268 $436 forward $605 $-1 #
edge $-1 $617 -87.858580854271779 $439 -81.20433126487643 $435 $618 forward 7 unknown #
edge $-1 $440 118.43987514973128 $617 128.01904354991302 $269 $619 forward 7 unknown #
coedge $-1 $270 $609 $615 $620 forward $428 $-1 #
vertex $-1 $436 $621 #
vertex $-1 $271 $622 #
straight-curve $-1 30.424915390962433 -14.465988389639726 11.9557813235391 -1 0 0 I I #
coedge $-1 $442 $442 $-1 $623 reversed $274 $-1 #
edge $-1 $624 0 $624 6.2831853071796004 $275 $625 forward 7 unknown #
vertex $-1 $278 $626 #
ellipse-curve $-1 60.564183270503271 -24.168073349840192 8.6286565288414199 0.69465837861970381 0 0.71933979245794832 0.71933979245794832 0 -0.69465837861970381 1 I I #
coedge $-1 $446 $446 $-1 $627 reversed $281 $-1 #
edge $-1 $628 0 $628 6.2831853071796004 $282 $629 forward 7 unknown #
vertex $-1 $285 $630 #
ellipse-curve $-1 60.564183270503271 -20.529791489765017 8.6286565288414199 0.69465837861970381 0 0.71933979245794832 0.71933979245794832 0 -0.69465837861970381 1 I I #
coedge $-1 $450 $450 $-1 $631 reversed $288 $-1 #
edge $-1 $632 0 $632 6.2831853071796004 $289 $633 forward 7 unknown #
vertex $-1 $292 $634 #
ellipse-curve $-1 60.564183270503271 -16.891509629689843 8.6286565288414199 0.69465837861970381 0 0.71933979245794832 0.71933979245794832 0 -0.69465837861970381 1 I I #
face $-1 $-1 $466 $64 $-1 $635 forward single #
loop $-1 $-1 $636 $293 #
plane-surface $-1 64.009521774956511 0 0 -1 0 0 0 0 1 forward_v I I I I #
coedge $-1 $637 $638 $639 $640 reversed $294 $-1 #
coedge $-1 $641 $296 $298 $464 forward $184 $-1 #
coedge $-1 $296 $641 $637 $642 forward $184 $-1 #
coedge $-1 $639 $299 $296 $461 forward $466 $-1 #
edge $-1 $468 -16.3286988450078 $643 -4.2010926447572174 $460 $644 forward 7 unknown #
coedge $-1 $645 $646 $297 $463 forward $455 $-1 #
edge $-1 $647 -87.858580854271779 $467 -81.20433126487643 $462 $648 forward 7 unknown #
edge $-1 $468 118.43987514973128 $647 128.01904354991302 $298 $649 forward 7 unknown #
coedge $-1 $299 $639 $645 $650 forward $466 $-1 #
loop $-1 $-1 $639 $454 #
vertex $-1 $463 $651 #
vertex $-1 $300 $652 #
straight-curve $-1 30.424915390962433 26.593594589890309 11.9557813235391 -1 0 0 I I #
coedge $-1 $470 $470 $-1 $653 reversed $303 $-1 #
edge $-1 $654 0 $654 6.2831853071796004 $304 $655 forward 7 unknown #
vertex $-1 $307 $656 #
ellipse-curve $-1 60.564183270503271 16.891509629689843 8.6286565288414199 0.69465837861970381 0 0.71933979245794832 0.71933979245794832 0 -0.69465837861970381 1 I I #
coedge $-1 $474 $474 $-1 $657 reversed $310 $-1 #
edge $-1 $658 0 $658 6.2831853071796004 $311 $659 forward 7 unknown #
vertex $-1 $314 $660 #
ellipse-curve $-1 60.564183270503271 20.529791489765017 8.6286565288414199 0.69465837861970381 0 0.71933979245794832 0.71933979245794832 0 -0.69465837861970381 1 I I #
coedge $-1 $478 $478 $-1 $661 reversed $317 $-1 #
edge $-1 $662 0 $662 6.2831853071796004 $318 $663 forward 7 unknown #
vertex $-1 $321 $664 #
ellipse-curve $-1 60.564183270503271 24.168073349840199 8.6286565288414199 0.69465837861970381 0 0.71933979245794832 0.71933979245794832 0 -0.69465837861970381 1 I I #
face $-1 $-1 $494 $68 $-1 $665 forward single #
loop $-1 $-1 $666 $322 #
plane-surface $-1 -64.009521774956511 0 0 1 0 0 0 0 -1 forward_v I I I I #
coedge $-1 $667 $668 $669 $670 reversed $323 $-1 #
coedge $-1 $671 $325 $327 $492 forward $203 $-1 #
coedge $-1 $325 $671 $667 $672 forward $203 $-1 #
coedge $-1 $669 $328 $325 $489 forward $494 $-1 #
edge $-1 $496 -16.3286988450078 $673 -4.2010926447572174 $488 $674 forward 7 unknown #
coedge $-1 $675 $676 $326 $491 forward $483 $-1 #
edge $-1 $677 -43.393830241857856 $495 -36.739580652462514 $490 $678 forward 7 unknown #
edge $-1 $496 -9.5791684001817501 $677 -1.9477141995791963e-014 $327 $679 forward 7 unknown #
coedge $-1 $328 $669 $675 $680 forward $494 $-1 #
loop $-1 $-1 $669 $482 #
vertex $-1 $491 $681 #
vertex $-1 $329 $682 #
straight-curve $-1 -76.469511499892178 -26.593594589890309 11.955781323539092 1 0 0 I I #
coedge $-1 $498 $498 $-1 $683 reversed $332 $-1 #
edge $-1 $684 0 $684 6.2831853071796004 $333 $685 forward 7 unknown #
vertex $-1 $336 $686 #
ellipse-curve $-1 -60.564183270503278 -24.168073349840192 8.6286565288414199 -0.69465837861970381 0 0.71933979245794832 0.71933979245794832 0 0.69465837861970381 1 I I #
coedge $-1 $502 $502 $-1 $687 reversed $339 $-1 #
edge $-1 $688 0 $688 6.2831853071796004 $340 $689 forward 7 unknown #
vertex $-1 $343 $690 #
ellipse-curve $-1 -60.564183270503278 -20.529791489765017 8.6286565288414199 -0.69465837861970381 0 0.71933979245794832 0.71933979245794832 0 0.69465837861970381 1 I I #
coedge $-1 $506 $506 $-1 $691 reversed $346 $-1 #
edge $-1 $692 0 $692 6.2831853071796004 $347 $693 forward 7 unknown #
vertex $-1 $350 $694 #
ellipse-curve $-1 -60.564183270503278 -16.891509629689843 8.6286565288414199 -0.69465837861970381 0 0.71933979245794832 0.71933979245794832 0 0.69465837861970381 1 I I #
face $-1 $-1 $695 $72 $-1 $696 reversed single #
loop $-1 $-1 $357 $351 #
plane-surface $-1 0 0 11.955781323539092 0 0 1 1 0 0 forward_v I I I I #
coedge $-1 $697 $698 $699 $700 reversed $352 $-1 #
coedge $-1 $701 $354 $356 $520 forward $222 $-1 #
coedge $-1 $354 $701 $697 $702 forward $222 $-1 #
coedge $-1 $699 $357 $354 $517 forward $511 $-1 #
edge $-1 $523 4.2010926447572174 $703 16.3286988450078 $516 $704 forward 7 unknown #
coedge $-1 $705 $706 $355 $519 forward $695 $-1 #
edge $-1 $707 -43.393830241857856 $522 -36.739580652462514 $518 $708 forward 7 unknown #
edge $-1 $523 -9.5791684001817501 $707 -1.9477141995791963e-014 $356 $709 forward 7 unknown #
coedge $-1 $357 $699 $705 $710 forward $511 $-1 #
vertex $-1 $358 $711 #
vertex $-1 $358 $712 #
straight-curve $-1 -76.469511499892178 14.465988389639726 11.955781323539092 1 0 0 I I #
coedge $-1 $525 $525 $-1 $713 reversed $361 $-1 #
edge $-1 $714 0 $714 6.2831853071796004 $362 $715 forward 7 unknown #
vertex $-1 $365 $716 #
ellipse-curve $-1 -60.564183270503278 16.891509629689843 8.6286565288414199 -0.69465837861970381 0 0.71933979245794832 0.71933979245794832 0 0.69465837861970381 1 I I #
coedge $-1 $529 $529 $-1 $717 reversed $368 $-1 #
edge $-1 $718 0 $718 6.2831853071796004 $369 $719 forward 7 unknown #
vertex $-1 $372 $720 #
ellipse-curve $-1 -60.564183270503278 20.529791489765017 8.6286565288414199 -0.69465837861970381 0 0.71933979245794832 0.71933979245794832 0 0.69465837861970381 1 I I #
coedge $-1 $533 $533 $-1 $721 reversed $375 $-1 #
edge $-1 $722 0 $722 6.2831853071796004 $376 $723 forward 7 unknown #
vertex $-1 $379 $724 #
ellipse-curve $-1 -60.564183270503278 24.168073349840199 8.6286565288414199 -0.69465837861970381 0 0.71933979245794832 0.71933979245794832 0 0.69465837861970381 1 I I #
face $-1 $-1 $395 $57 $-1 $725 reversed single #
loop $-1 $-1 $554 $380 #
plane-surface $-1 0 43.090732629562609 0 0 -1 0 0 0 -1 forward_v I I I I #
coedge $-1 $726 $551 $554 $727 forward $381 $-1 #
coedge $-1 $557 $383 $384 $545 reversed $241 $-1 #
coedge $-1 $551 $726 $383 $543 reversed $381 $-1 #
edge $-1 $558 -11.955781323539092 $728 11.955781323539092 $542 $729 forward 7 unknown #
coedge $-1 $385 $384 $726 $730 forward $153 $-1 #
edge $-1 $549 -64.009521774956511 $728 64.009521774956511 $541 $731 forward 7 unknown #
coedge $-1 $554 $553 $385 $547 reversed $538 $-1 #
edge $-1 $732 -64.009521774956511 $548 64.009521774956511 $546 $733 forward 7 unknown #
vertex $-1 $387 $734 #
vertex $-1 $560 $735 #
straight-curve $-1 64.009521774956511 0 -11.955781323539092 0 -1 0 I I #
coedge $-1 $540 $542 $388 $552 reversed $381 $-1 #
edge $-1 $555 -43.090732629562609 $558 43.090732629562609 $551 $736 forward 7 unknown #
coedge $-1 $546 $389 $394 $561 forward $538 $-1 #
coedge $-1 $389 $546 $540 $727 reversed $538 $-1 #
vertex $-1 $390 $737 #
straight-curve $-1 0 43.090732629562609 11.955781323539092 -1 0 0 I I #
coedge $-1 $391 $541 $393 $560 reversed $241 $-1 #
vertex $-1 $552 $738 #
straight-curve $-1 0 -43.090732629562609 11.955781323539092 1 0 0 I I #
edge $-1 $396 -11.955781323539092 $549 11.955781323539092 $393 $739 forward 7 unknown #
edge $-1 $397 -11.955781323539092 $548 11.955781323539092 $394 $740 forward 7 unknown #
point $-1 64.009521774956511 -43.090732629562609 11.955781323539092 #
point $-1 64.009521774956511 43.090732629562609 11.955781323539092 #
face $-1 $-1 $580 $58 $-1 $741 reversed single #
loop $-1 $-1 $742 $399 #
plane-surface $-1 0 -54.010771923124864 -4.2018663205838589 0 1 0 0 0 1 forward_v I I I I #
coedge $-1 $743 $577 $579 $744 forward $400 $-1 #
coedge $-1 $402 $409 $745 $746 forward $249 $-1 #
coedge $-1 $747 $407 $402 $570 reversed $580 $-1 #
edge $-1 $748 -5.4600196467811273 $411 5.4600196467811273 $569 $749 forward 7 unknown #
coedge $-1 $404 $403 $742 $750 reversed $157 $-1 #
coedge $-1 $577 $743 $403 $573 forward $400 $-1 #
edge $-1 $751 -5.4600196467811273 $575 5.4600196467811273 $403 $752 forward 7 unknown #
edge $-1 $410 -5.4600196467811273 $753 5.4600196467811273 $404 $754 forward 7 unknown #
vertex $-1 $405 $755 #
straight-curve $-1 -64.009521774956511 -43.090732629562609 0 0 0 -1 I I #
coedge $-1 $567 $572 $406 $578 reversed $400 $-1 #
edge $-1 $581 -64.009521774956511 $575 64.009521774956511 $577 $756 forward 7 unknown #
coedge $-1 $407 $747 $567 $744 reversed $580 $-1 #
loop $-1 $-1 $407 $564 #
vertex $-1 $408 $757 #
straight-curve $-1 64.009521774956511 -43.090732629562609 0 0 0 1 I I #
point $-1 -64.009521774956511 -43.090732629562609 -1.7277015335485419 #
point $-1 64.009521774956511 -43.090732629562609 -1.7277015335485419 #
face $-1 $-1 $599 $59 $-1 $758 reversed single #
loop $-1 $-1 $759 $413 #
plane-surface $-1 0 54.010771923124857 -4.2018663205838589 0 -1 0 0 0 -1 forward_v I I I I #
coedge $-1 $595 $760 $417 $592 forward $414 $-1 #
coedge $-1 $423 $416 $761 $762 forward $257 $-1 #
edge $-1 $424 -5.4600196467811273 $763 5.4600196467811273 $418 $764 forward 7 unknown #
coedge $-1 $418 $417 $759 $765 reversed $161 $-1 #
edge $-1 $766 -5.4600196467811273 $593 5.4600196467811273 $417 $767 forward 7 unknown #
vertex $-1 $419 $768 #
straight-curve $-1 64.009521774956511 43.090732629562609 0 0 0 -1 I I #
coedge $-1 $769 $588 $420 $596 reversed $414 $-1 #
edge $-1 $600 -64.009521774956511 $593 64.009521774956511 $595 $770 forward 7 unknown #
coedge $-1 $771 $421 $423 $602 reversed $599 $-1 #
coedge $-1 $421 $771 $769 $772 reversed $599 $-1 #
loop $-1 $-1 $421 $585 #
vertex $-1 $422 $773 #
straight-curve $-1 -64.009521774956511 43.090732629562609 0 0 0 1 I I #
edge $-1 $774 -5.4600196467811273 $425 5.4600196467811273 $597 $775 forward 7 unknown #
point $-1 64.009521774956511 43.090732629562602 -1.7277015335485419 #
point $-1 -64.009521774956511 43.090732629562602 -1.7277015335485419 #
loop $-1 $-1 $435 $427 #
plane-surface $-1 64.009521774956511 0 0 -1 0 0 0 0 1 forward_v I I I I #
coedge $-1 $608 $430 $432 $612 reversed $265 $-1 #
coedge $-1 $430 $607 $776 $777 reversed $265 $-1 #
coedge $-1 $438 $433 $430 $610 forward $428 $-1 #
edge $-1 $613 26.693929375087613 $778 33.584606383994078 $609 $779 forward 7 unknown #
coedge $-1 $432 $431 $616 $780 reversed $165 $-1 #
edge $-1 $781 -128.01904354991302 $613 -118.43987514973128 $607 $782 forward 7 unknown #
vertex $-1 $434 $783 #
straight-curve $-1 57.11884476605006 -10.264895744882509 11.955781323539092 0 -1 0 I I #
coedge $-1 $776 $435 $438 $620 reversed $605 $-1 #
coedge $-1 $435 $776 $611 $780 forward $605 $-1 #
vertex $-1 $436 $784 #
straight-curve $-1 64.009521774956511 -14.465988389639726 93.160112588415529 0 0 1 I I #
straight-curve $-1 -28.079670442902966 -14.465988389639726 94.231032958971582 0.71933979245794832 0 -0.69465837861970381 I I #
edge $-1 $778 -26.593594589890309 $439 -14.465988389639726 $615 $785 forward 7 unknown #
point $-1 64.009521774956511 -14.465988389639726 11.955781323539092 #
point $-1 57.118844766050046 -14.465988389639726 11.9557813235391 #
edge $-1 $786 1 $786 0 $442 $-1 forward 7 unknown #
vertex $-1 $443 $787 #
ellipse-curve $-1 58.808489179382043 -24.168073349840192 6.8105821170186278 0.69465837861970381 0 0.71933979245794832 0.71933979245794832 0 -0.69465837861970381 1 I I #
point $-1 61.283523062961223 -24.168073349840192 7.9339981502217167 #
edge $-1 $788 1 $788 0 $446 $-1 forward 7 unknown #
vertex $-1 $447 $789 #
ellipse-curve $-1 58.808489179382043 -20.529791489765017 6.8105821170186278 0.69465837861970381 0 0.71933979245794832 0.71933979245794832 0 -0.69465837861970381 1 I I #
point $-1 61.283523062961223 -20.529791489765017 7.9339981502217167 #
edge $-1 $790 1 $790 0 $450 $-1 forward 7 unknown #
vertex $-1 $451 $791 #
ellipse-curve $-1 58.808489179382043 -16.891509629689843 6.8105821170186278 0.69465837861970381 0 0.71933979245794832 0.71933979245794832 0 -0.69465837861970381 1 I I #
point $-1 61.283523062961223 -16.891509629689843 7.9339981502217167 #
plane-surface $-1 0 0 11.955781323539092 0 0 1 1 0 0 forward_v I I I I #
coedge $-1 $646 $645 $638 $792 forward $455 $-1 #
coedge $-1 $638 $457 $459 $642 reversed $294 $-1 #
coedge $-1 $457 $637 $636 $792 reversed $294 $-1 #
coedge $-1 $465 $460 $457 $640 forward $466 $-1 #
edge $-1 $643 26.693929375087613 $793 33.584606383994078 $639 $794 forward 7 unknown #
coedge $-1 $459 $458 $646 $795 reversed $184 $-1 #
edge $-1 $796 -128.01904354991302 $643 -118.43987514973128 $637 $797 forward 7 unknown #
vertex $-1 $461 $798 #
straight-curve $-1 57.11884476605006 10.264895744882509 11.955781323539092 0 -1 0 I I #
coedge $-1 $636 $462 $465 $650 reversed $455 $-1 #
coedge $-1 $462 $636 $641 $795 forward $455 $-1 #
vertex $-1 $463 $799 #
straight-curve $-1 64.009521774956511 26.593594589890309 93.160112588415529 0 0 1 I I #
straight-curve $-1 -28.079670442902966 26.593594589890309 94.231032958971582 0.71933979245794832 0 -0.69465837861970381 I I #
edge $-1 $793 14.465988389639726 $467 26.593594589890309 $645 $800 forward 7 unknown #
point $-1 64.009521774956511 26.593594589890309 11.955781323539092 #
point $-1 57.118844766050046 26.593594589890309 11.9557813235391 #
edge $-1 $801 1 $801 0 $470 $-1 forward 7 unknown #
vertex $-1 $471 $802 #
ellipse-curve $-1 58.808489179382043 16.891509629689843 6.8105821170186278 0.69465837861970381 0 0.71933979245794832 0.71933979245794832 0 -0.69465837861970381 1 I I #
point $-1 61.283523062961223 16.891509629689843 7.9339981502217167 #
edge $-1 $803 1 $803 0 $474 $-1 forward 7 unknown #
vertex $-1 $475 $804 #
ellipse-curve $-1 58.808489179382043 20.529791489765017 6.8105821170186278 0.69465837861970381 0 0.71933979245794832 0.71933979245794832 0 -0.69465837861970381 1 I I #
point $-1 61.283523062961223 20.529791489765017 7.9339981502217167 #
edge $-1 $805 1 $805 0 $478 $-1 forward 7 unknown #
vertex $-1 $479 $806 #
ellipse-curve $-1 58.808489179382043 24.168073349840199 6.8105821170186278 0.69465837861970381 0 0.71933979245794832 0.71933979245794832 0 -0.69465837861970381 1 I I #
point $-1 61.283523062961223 24.168073349840199 7.9339981502217167 #
plane-surface $-1 0 0 11.955781323539092 0 0 1 1 0 0 forward_v I I I I #
coedge $-1 $676 $675 $668 $807 forward $483 $-1 #
coedge $-1 $668 $485 $487 $672 reversed $323 $-1 #
coedge $-1 $485 $667 $666 $807 reversed $323 $-1 #
coedge $-1 $493 $488 $485 $670 forward $494 $-1 #
edge $-1 $673 -19.350666733842132 $808 -12.459989724935667 $669 $809 forward 7 unknown #
coedge $-1 $487 $486 $676 $810 reversed $203 $-1 #
edge $-1 $811 1.9477141995791963e-014 $673 9.5791684001817501 $667 $812 forward 7 unknown #
vertex $-1 $489 $813 #
straight-curve $-1 -57.118844766050046 -10.264895744882509 11.955781323539092 0 1 0 I I #
coedge $-1 $666 $490 $493 $680 reversed $483 $-1 #
coedge $-1 $490 $666 $671 $810 forward $483 $-1 #
vertex $-1 $491 $814 #
straight-curve $-1 -64.009521774956511 -26.593594589890309 48.695361976001607 0 0 1 I I #
straight-curve $-1 -64.009521774956525 -26.593594589890309 5.3015317341437367 -0.71933979245794832 0 -0.69465837861970381 I I #
edge $-1 $808 14.465988389639726 $495 26.593594589890309 $675 $815 forward 7 unknown #
point $-1 -64.009521774956511 -26.593594589890309 11.955781323539092 #
point $-1 -57.118844766050046 -26.593594589890309 11.955781323539092 #
edge $-1 $816 1 $816 0 $498 $-1 forward 7 unknown #
vertex $-1 $499 $817 #
ellipse-curve $-1 -58.808489179382043 -24.168073349840192 6.8105821170186207 -0.69465837861970381 0 0.71933979245794832 0.71933979245794832 0 0.69465837861970381 1 I I #
point $-1 -59.844843478045327 -24.168073349840192 9.3233149074611177 #
edge $-1 $818 1 $818 0 $502 $-1 forward 7 unknown #
vertex $-1 $503 $819 #
ellipse-curve $-1 -58.808489179382043 -20.529791489765017 6.8105821170186207 -0.69465837861970381 0 0.71933979245794832 0.71933979245794832 0 0.69465837861970381 1 I I #
point $-1 -59.844843478045327 -20.529791489765017 9.3233149074611177 #
edge $-1 $820 1 $820 0 $506 $-1 forward 7 unknown #
vertex $-1 $507 $821 #
ellipse-curve $-1 -58.808489179382043 -16.891509629689843 6.8105821170186207 -0.69465837861970381 0 0.71933979245794832 0.71933979245794832 0 0.69465837861970381 1 I I #
point $-1 -59.844843478045327 -16.891509629689843 9.3233149074611177 #
loop $-1 $-1 $518 $510 #
plane-surface $-1 -64.009521774956511 0 0 1 0 0 0 0 -1 forward_v I I I I #
coedge $-1 $698 $513 $515 $702 reversed $352 $-1 #
coedge $-1 $513 $697 $822 $823 reversed $352 $-1 #
coedge $-1 $521 $516 $513 $700 forward $511 $-1 #
edge $-1 $703 -19.350666733842132 $824 -12.459989724935667 $699 $825 forward 7 unknown #
coedge $-1 $515 $514 $706 $826 reversed $222 $-1 #
edge $-1 $827 1.9477141995791963e-014 $703 9.5791684001817501 $697 $828 forward 7 unknown #
vertex $-1 $517 $829 #
straight-curve $-1 -57.118844766050046 10.264895744882509 11.955781323539092 0 1 0 I I #
coedge $-1 $822 $518 $521 $710 reversed $695 $-1 #
coedge $-1 $518 $822 $701 $826 forward $695 $-1 #
vertex $-1 $519 $830 #
straight-curve $-1 -64.009521774956511 14.465988389639726 48.695361976001607 0 0 1 I I #
straight-curve $-1 -64.009521774956525 14.465988389639726 5.3015317341437367 -0.71933979245794832 0 -0.69465837861970381 I I #
edge $-1 $824 -26.593594589890309 $522 -14.465988389639726 $705 $831 forward 7 unknown #
point $-1 -64.009521774956511 14.465988389639726 11.955781323539092 #
point $-1 -57.118844766050046 14.465988389639726 11.955781323539092 #
edge $-1 $832 1 $832 0 $525 $-1 forward 7 unknown #
vertex $-1 $526 $833 #
ellipse-curve $-1 -58.808489179382043 16.891509629689843 6.8105821170186207 -0.69465837861970381 0 0.71933979245794832 0.71933979245794832 0 0.69465837861970381 1 I I #
point $-1 -59.844843478045327 16.891509629689843 9.3233149074611177 #
edge $-1 $834 1 $834 0 $529 $-1 forward 7 unknown #
vertex $-1 $530 $835 #
ellipse-curve $-1 -58.808489179382043 20.529791489765017 6.8105821170186207 -0.69465837861970381 0 0.71933979245794832 0.71933979245794832 0 0.69465837861970381 1 I I #
point $-1 -59.844843478045327 20.529791489765017 9.3233149074611177 #
edge $-1 $836 1 $836 0 $533 $-1 forward 7 unknown #
vertex $-1 $534 $837 #
ellipse-curve $-1 -58.808489179382043 24.168073349840199 6.8105821170186207 -0.69465837861970381 0 0.71933979245794832 0.71933979245794832 0 0.69465837861970381 1 I I #
point $-1 -59.844843478045327 24.168073349840199 9.3233149074611177 #
plane-surface $-1 64.009521774956511 0 0 -1 0 0 0 0 1 forward_v I I I I #
coedge $-1 $542 $540 $544 $730 reversed $381 $-1 #
edge $-1 $555 -11.955781323539092 $732 11.955781323539092 $554 $838 forward 7 unknown #
vertex $-1 $730 $839 #
straight-curve $-1 -64.009521774956511 -43.090732629562609 0 0 0 -1 I I #
edge $-1 $728 -43.090732629562609 $732 43.090732629562609 $726 $840 forward 7 unknown #
straight-curve $-1 0 -43.090732629562609 -11.955781323539092 -1 0 0 I I #
vertex $-1 $547 $841 #
straight-curve $-1 0 43.090732629562609 -11.955781323539092 1 0 0 I I #
point $-1 64.009521774956511 43.090732629562609 -11.955781323539092 #
point $-1 64.009521774956511 -43.090732629562609 -11.955781323539092 #
straight-curve $-1 -64.009521774956511 0 11.955781323539092 0 -1 0 I I #
point $-1 -64.009521774956511 43.090732629562609 11.955781323539092 #
point $-1 -64.009521774956511 -43.090732629562609 11.955781323539092 #
straight-curve $-1 64.009521774956511 -43.090732629562609 0 0 0 -1 I I #
straight-curve $-1 64.009521774956511 43.090732629562609 0 0 0 -1 I I #
plane-surface $-1 64.009521774956511 0 0 -1 0 0 0 0 1 forward_v I I I I #
coedge $-1 $842 $745 $571 $750 forward $565 $-1 #
coedge $-1 $572 $567 $842 $843 forward $400 $-1 #
edge $-1 $581 -5.4600196467811273 $844 5.4600196467811273 $579 $845 forward 7 unknown #
coedge $-1 $742 $846 $568 $746 reversed $565 $-1 #
edge $-1 $753 -64.009521774956511 $748 64.009521774956511 $745 $847 forward 7 unknown #
coedge $-1 $579 $569 $846 $848 forward $580 $-1 #
vertex $-1 $570 $849 #
straight-curve $-1 64.009521774956511 -48.550752276343736 -1.7277015335485419 0 1 0 I I #
edge $-1 $753 -2.4741647870353169 $751 2.4741647870353169 $571 $850 forward 7 unknown #
vertex $-1 $573 $851 #
straight-curve $-1 -64.009521774956511 -48.550752276343736 -6.6760311076191758 0 1 0 I I #
vertex $-1 $574 $852 #
straight-curve $-1 -64.009521774956511 -48.550752276343736 -1.7277015335485419 0 -1 0 I I #
point $-1 -64.009521774956511 -43.090732629562609 -6.6760311076191758 #
straight-curve $-1 0 -43.090732629562609 -6.6760311076191758 -1 0 0 I I #
point $-1 64.009521774956511 -43.090732629562609 -6.6760311076191758 #
plane-surface $-1 -64.009521774956511 0 0 1 0 0 0 0 -1 forward_v I I I I #
coedge $-1 $853 $761 $591 $765 forward $586 $-1 #
coedge $-1 $588 $769 $853 $854 forward $414 $-1 #
coedge $-1 $759 $855 $589 $762 reversed $586 $-1 #
edge $-1 $763 -64.009521774956511 $774 64.009521774956511 $761 $856 forward 7 unknown #
vertex $-1 $590 $857 #
straight-curve $-1 64.009521774956511 48.550752276343729 -1.7277015335485419 0 1 0 I I #
edge $-1 $763 -2.4741647870353169 $766 2.4741647870353169 $591 $858 forward 7 unknown #
vertex $-1 $592 $859 #
straight-curve $-1 64.009521774956511 48.550752276343729 -6.6760311076191758 0 -1 0 I I #
point $-1 64.009521774956511 43.090732629562602 -6.6760311076191758 #
coedge $-1 $760 $595 $598 $772 forward $414 $-1 #
straight-curve $-1 0 43.090732629562609 -6.6760311076191758 1 0 0 I I #
coedge $-1 $598 $597 $855 $860 forward $599 $-1 #
edge $-1 $600 -5.4600196467811273 $861 5.4600196467811273 $598 $862 forward 7 unknown #
point $-1 -64.009521774956511 43.090732629562602 -6.6760311076191758 #
vertex $-1 $762 $863 #
straight-curve $-1 -64.009521774956511 48.550752276343729 -1.7277015335485419 0 -1 0 I I #
coedge $-1 $616 $615 $608 $777 forward $605 $-1 #
edge $-1 $778 81.20433126487643 $781 87.858580854271779 $776 $864 forward 7 unknown #
vertex $-1 $620 $865 #
straight-curve $-1 30.424915390962433 -26.593594589890309 11.9557813235391 1 0 0 I I #
edge $-1 $781 -16.3286988450078 $617 -4.2010926447572174 $616 $866 forward 7 unknown #
vertex $-1 $780 $867 #
straight-curve $-1 -28.079670442902966 -26.593594589890309 94.231032958971582 -0.71933979245794832 0 0.69465837861970381 I I #
point $-1 57.118844766050046 -26.593594589890309 11.9557813235391 #
point $-1 64.009521774956511 -14.465988389639726 5.3015317341437509 #
straight-curve $-1 64.009521774956511 0 11.955781323539092 0 1 0 I I #
vertex $-1 $623 $868 #
point $-1 59.527828971839988 -24.168073349840192 6.1159237383989247 #
vertex $-1 $627 $869 #
point $-1 59.527828971839988 -20.529791489765017 6.1159237383989247 #
vertex $-1 $631 $870 #
point $-1 59.527828971839988 -16.891509629689843 6.1159237383989247 #
edge $-1 $793 81.20433126487643 $796 87.858580854271779 $636 $871 forward 7 unknown #
vertex $-1 $650 $872 #
straight-curve $-1 30.424915390962433 14.465988389639726 11.9557813235391 1 0 0 I I #
edge $-1 $796 4.2010926447572174 $647 16.3286988450078 $646 $873 forward 7 unknown #
vertex $-1 $795 $874 #
straight-curve $-1 -28.079670442902966 14.465988389639726 94.231032958971582 -0.71933979245794832 0 0.69465837861970381 I I #
point $-1 57.118844766050046 14.465988389639726 11.9557813235391 #
point $-1 64.009521774956511 26.593594589890309 5.3015317341437509 #
straight-curve $-1 64.009521774956511 0 11.955781323539092 0 1 0 I I #
vertex $-1 $653 $875 #
point $-1 59.527828971839988 16.891509629689843 6.1159237383989247 #
vertex $-1 $657 $876 #
point $-1 59.527828971839988 20.529791489765017 6.1159237383989247 #
vertex $-1 $661 $877 #
point $-1 59.527828971839988 24.168073349840199 6.1159237383989247 #
edge $-1 $808 36.739580652462514 $811 43.393830241857856 $666 $878 forward 7 unknown #
vertex $-1 $680 $879 #
straight-curve $-1 -76.469511499892178 -14.465988389639726 11.955781323539092 -1 0 0 I I #
edge $-1 $811 4.2010926447572174 $677 16.3286988450078 $676 $880 forward 7 unknown #
vertex $-1 $810 $881 #
straight-curve $-1 -64.009521774956525 -14.465988389639726 5.3015317341437367 0.71933979245794832 0 0.69465837861970381 I I #
point $-1 -57.118844766050046 -14.465988389639726 11.955781323539092 #
point $-1 -64.009521774956511 -26.593594589890309 5.30153173414375 #
straight-curve $-1 -64.009521774956511 0 11.955781323539092 0 -1 0 I I #
vertex $-1 $683 $882 #
point $-1 -58.089149386924092 -24.168073349840192 7.5052404956383247 #
vertex $-1 $687 $883 #
point $-1 -58.089149386924092 -20.529791489765017 7.5052404956383247 #
vertex $-1 $691 $884 #
point $-1 -58.089149386924092 -16.891509629689843 7.5052404956383247 #
coedge $-1 $706 $705 $698 $823 forward $695 $-1 #
edge $-1 $824 36.739580652462514 $827 43.393830241857856 $822 $885 forward 7 unknown #
vertex $-1 $710 $886 #
straight-curve $-1 -76.469511499892178 26.593594589890309 11.955781323539092 -1 0 0 I I #
edge $-1 $827 -16.3286988450078 $707 -4.2010926447572174 $706 $887 forward 7 unknown #
vertex $-1 $826 $888 #
straight-curve $-1 -64.009521774956525 26.593594589890309 5.3015317341437367 0.71933979245794832 0 0.69465837861970381 I I #
point $-1 -57.118844766050046 26.593594589890309 11.955781323539092 #
point $-1 -64.009521774956511 14.465988389639726 5.30153173414375 #
straight-curve $-1 -64.009521774956511 0 11.955781323539092 0 -1 0 I I #
vertex $-1 $713 $889 #
point $-1 -58.089149386924092 16.891509629689843 7.5052404956383247 #
vertex $-1 $717 $890 #
point $-1 -58.089149386924092 20.529791489765017 7.5052404956383247 #
vertex $-1 $721 $891 #
point $-1 -58.089149386924092 24.168073349840199 7.5052404956383247 #
straight-curve $-1 -64.009521774956511 43.090732629562609 0 0 0 -1 I I #
point $-1 -64.009521774956511 -43.090732629562609 -11.955781323539092 #
straight-curve $-1 -64.009521774956511 0 -11.955781323539092 0 1 0 I I #
point $-1 -64.009521774956511 43.090732629562609 -11.955781323539092 #
coedge $-1 $846 $742 $743 $843 reversed $565 $-1 #
edge $-1 $844 -64.009521774956511 $751 64.009521774956511 $842 $892 forward 7 unknown #
vertex $-1 $848 $893 #
straight-curve $-1 64.009521774956511 -48.550752276343736 -6.6760311076191758 0 -1 0 I I #
coedge $-1 $745 $842 $747 $848 reversed $565 $-1 #
straight-curve $-1 0 -54.010771923124864 -1.7277015335485419 1 0 0 I I #
edge $-1 $748 -2.4741647870353169 $844 2.4741647870353169 $747 $894 forward 7 unknown #
point $-1 64.009521774956511 -54.010771923124864 -1.7277015335485419 #
straight-curve $-1 -64.009521774956511 -54.010771923124864 -4.2018663205838589 0 0 -1 I I #
point $-1 -64.009521774956511 -54.010771923124864 -6.6760311076191758 #
point $-1 -64.009521774956511 -54.010771923124864 -1.7277015335485419 #
coedge $-1 $855 $759 $760 $854 reversed $586 $-1 #
edge $-1 $861 -64.009521774956511 $766 64.009521774956511 $853 $895 forward 7 unknown #
coedge $-1 $761 $853 $771 $860 reversed $586 $-1 #
straight-curve $-1 0 54.010771923124857 -1.7277015335485419 -1 0 0 I I #
point $-1 64.009521774956511 54.010771923124857 -1.7277015335485419 #
straight-curve $-1 64.009521774956511 54.010771923124857 -4.2018663205838589 0 0 -1 I I #
point $-1 64.009521774956511 54.010771923124857 -6.6760311076191758 #
edge $-1 $774 -2.4741647870353169 $861 2.4741647870353169 $855 $896 forward 7 unknown #
vertex $-1 $854 $897 #
straight-curve $-1 -64.009521774956511 48.550752276343729 -6.6760311076191758 0 1 0 I I #
point $-1 -64.009521774956511 54.010771923124857 -1.7277015335485419 #
straight-curve $-1 64.009521774956511 -26.593594589890309 93.160112588415529 0 0 -1 I I #
point $-1 64.009521774956511 -26.593594589890309 11.955781323539092 #
straight-curve $-1 64.009521774956511 -10.264895744882509 5.3015317341437509 0 1 0 I I #
point $-1 64.009521774956511 -26.593594589890309 5.3015317341437509 #
point $-1 58.113830800762337 -24.168073349840192 6.0912423245606799 #
point $-1 58.113830800762337 -20.529791489765017 6.0912423245606799 #
point $-1 58.113830800762337 -16.891509629689843 6.0912423245606799 #
straight-curve $-1 64.009521774956511 14.465988389639726 93.160112588415529 0 0 -1 I I #
point $-1 64.009521774956511 14.465988389639726 11.955781323539092 #
straight-curve $-1 64.009521774956511 10.264895744882509 5.3015317341437509 0 1 0 I I #
point $-1 64.009521774956511 14.465988389639726 5.3015317341437509 #
point $-1 58.113830800762337 16.891509629689843 6.0912423245606799 #
point $-1 58.113830800762337 20.529791489765017 6.0912423245606799 #
point $-1 58.113830800762337 24.168073349840199 6.0912423245606799 #
straight-curve $-1 -64.009521774956511 -14.465988389639726 48.695361976001607 0 0 -1 I I #
point $-1 -64.009521774956511 -14.465988389639726 11.955781323539092 #
straight-curve $-1 -64.009521774956511 -10.264895744882509 5.3015317341437491 0 -1 0 I I #
point $-1 -64.009521774956511 -14.465988389639726 5.30153173414375 #
point $-1 -58.113830800762337 -24.168073349840192 6.0912423245606728 #
point $-1 -58.113830800762337 -20.529791489765017 6.0912423245606728 #
point $-1 -58.113830800762337 -16.891509629689843 6.0912423245606728 #
straight-curve $-1 -64.009521774956511 26.593594589890309 48.695361976001607 0 0 -1 I I #
point $-1 -64.009521774956511 26.593594589890309 11.955781323539092 #
straight-curve $-1 -64.009521774956511 10.264895744882509 5.3015317341437491 0 -1 0 I I #
point $-1 -64.009521774956511 26.593594589890309 5.30153173414375 #
point $-1 -58.113830800762337 16.891509629689843 6.0912423245606728 #
point $-1 -58.113830800762337 20.529791489765017 6.0912423245606728 #
point $-1 -58.113830800762337 24.168073349840199 6.0912423245606728 #
straight-curve $-1 0 -54.010771923124864 -6.6760311076191758 -1 0 0 I I #
point $-1 64.009521774956511 -54.010771923124864 -6.6760311076191758 #
straight-curve $-1 64.009521774956511 -54.010771923124864 -4.2018663205838589 0 0 -1 I I #
straight-curve $-1 0 54.010771923124857 -6.6760311076191758 1 0 0 I I #
straight-curve $-1 -64.009521774956511 54.010771923124857 -4.2018663205838589 0 0 -1 I I #
point $-1 -64.009521774956511 54.010771923124857 -6.6760311076191758 #
End-of-ACIS-data 