500 0 5 0           
7 Unknown 11 ACIS 5.0 NT 24 Thu Mar 25 16:27:30 1999 
-1 9.9999999999999995e-007 1e-010 
body $-1 $5 $-1 $6 #
body $-1 $7 $-1 $8 #
body $-1 $9 $-1 $10 #
body $-1 $11 $-1 $12 #
body $-1 $13 $-1 $14 #
lump $-1 $-1 $15 $0 #
transform $-1 1 0 0 0 1 0 0 0 1 48.047120578630938 33.376084001422889 7.088356229313086 1 rotate no_reflect no_shear #
lump $-1 $-1 $16 $1 #
transform $-1 1 0 0 0 1 0 0 0 1 48.047120578630938 33.376084001422889 7.088356229313086 1 rotate no_reflect no_shear #
lump $-1 $-1 $17 $2 #
transform $-1 1 0 0 0 1 0 0 0 1 48.047120578630938 33.376084001422889 7.088356229313086 1 rotate no_reflect no_shear #
lump $-1 $-1 $18 $3 #
transform $-1 1 0 0 0 1 0 0 0 1 48.047120578630938 33.376084001422889 7.088356229313086 1 rotate no_reflect no_shear #
lump $-1 $-1 $19 $4 #
transform $-1 1 0 0 0 1 0 0 0 1 48.047120578630938 33.376084001422889 7.088356229313086 1 rotate no_reflect no_shear #
shell $-1 $-1 $-1 $20 $-1 $5 #
shell $-1 $-1 $-1 $21 $-1 $7 #
shell $-1 $-1 $-1 $22 $-1 $9 #
shell $-1 $-1 $-1 $23 $-1 $11 #
shell $-1 $-1 $-1 $24 $-1 $13 #
face $-1 $25 $26 $15 $-1 $27 forward single #
face $-1 $28 $29 $16 $-1 $30 forward single #
face $-1 $31 $32 $17 $-1 $33 reversed single #
face $-1 $34 $35 $18 $-1 $36 forward single #
face $-1 $37 $38 $19 $-1 $39 reversed single #
face $-1 $40 $41 $15 $-1 $42 reversed single #
loop $-1 $-1 $43 $20 #
plane-surface $-1 0 0 7.088356229313086 0 0 1 1 0 0 forward_v I I I I #
face $-1 $44 $45 $16 $-1 $46 forward single #
loop $-1 $-1 $47 $21 #
plane-surface $-1 -37.698667904549396 81.365018826249724 107.11235289467282 -1 0 0 0 0.85716730853699208 0.51503806187062418 forward_v I I I I #
face $-1 $48 $49 $17 $-1 $50 reversed single #
loop $-1 $51 $52 $22 #
cone-surface $-1 -42.872894241590167 30.838104972417497 3.4273286708831474 0 -0.85716730853699208 -0.51503806187062418 1 0 0 1 I I 0 1 1 forward I I I I #
face $-1 $53 $54 $18 $-1 $55 forward single #
loop $-1 $-1 $56 $23 #
plane-surface $-1 -37.698667904549396 -115.7449260600977 49.894576708664395 -1 0 0 0 -0.85716730853699208 0.51503806187062418 forward_v I I I I #
face $-1 $57 $58 $19 $-1 $59 reversed single #
loop $-1 $60 $61 $24 #
cone-surface $-1 -42.872894241590167 -30.83810497241749 3.4273286708831474 0 0.85716730853699208 -0.51503806187062418 1 0 0 1 I I 0 1 1 forward I I I I #
face $-1 $62 $63 $15 $-1 $64 reversed single #
loop $-1 $-1 $65 $25 #
plane-surface $-1 0 0 -7.088356229313086 0 0 1 1 0 0 forward_v I I I I #
coedge $-1 $66 $67 $68 $69 forward $26 $-1 #
face $-1 $70 $71 $16 $-1 $72 reversed single #
loop $-1 $-1 $73 $28 #
plane-surface $-1 -42.872894241590167 -1.0038232324250913 57.620161172108304 0 0.85716730853699208 0.51503806187062418 1 0 0 forward_v I I I I #
coedge $-1 $74 $75 $76 $77 reversed $29 $-1 #
face $-1 $78 $79 $17 $-1 $80 forward single #
loop $-1 $81 $82 $31 #
cone-surface $-1 -42.872894241590167 29.880210629928001 2.8517677031245006 0 -0.85716730853699208 -0.51503806187062418 0.5 0 0 1 I I -0.70710678118654746 0.70710678118654746 0.5 forward I I I I #
loop $-1 $-1 $83 $22 #
coedge $-1 $52 $52 $84 $85 reversed $32 $-1 #
face $-1 $86 $87 $18 $-1 $88 forward single #
loop $-1 $-1 $89 $34 #
plane-surface $-1 -42.872894241590167 -33.376084001422882 0.40238498609987516 0 -0.85716730853699208 0.51503806187062418 1 0 0 forward_v I I I I #
coedge $-1 $90 $91 $92 $93 reversed $35 $-1 #
face $-1 $94 $95 $19 $-1 $96 forward single #
loop $-1 $97 $98 $37 #
cone-surface $-1 -42.872894241590167 -29.880210629927994 2.8517677031245006 0 0.85716730853699208 -0.51503806187062418 0.5 0 0 1 I I -0.70710678118654746 0.70710678118654746 0.5 forward I I I I #
loop $-1 $-1 $99 $24 #
coedge $-1 $61 $61 $100 $101 reversed $38 $-1 #
face $-1 $102 $103 $15 $-1 $104 reversed single #
loop $-1 $-1 $105 $40 #
plane-surface $-1 0 -33.376084001422889 0 0 1 0 0 0 1 forward_v I I I I #
coedge $-1 $106 $107 $108 $109 forward $41 $-1 #
coedge $-1 $110 $43 $111 $112 forward $26 $-1 #
coedge $-1 $43 $110 $113 $114 forward $26 $-1 #
coedge $-1 $115 $116 $43 $69 reversed $117 $-1 #
edge $-1 $118 -33.376084001422889 $119 33.376084001422889 $68 $120 forward 7 unknown #
face $-1 $121 $122 $16 $-1 $123 forward single #
loop $-1 $-1 $124 $44 #
plane-surface $-1 0 33.376084001422889 0 0 -1 0 0 0 -1 forward_v I I I I #
coedge $-1 $125 $126 $124 $127 reversed $45 $-1 #
coedge $-1 $75 $47 $126 $128 forward $29 $-1 #
coedge $-1 $47 $74 $129 $130 reversed $29 $-1 #
coedge $-1 $131 $124 $47 $77 forward $71 $-1 #
edge $-1 $132 -53.153791461236544 $133 -46.467820218023327 $76 $134 forward 7 unknown #
face $-1 $135 $136 $17 $-1 $137 forward single #
loop $-1 $-1 $138 $48 #
plane-surface $-1 -37.698667904549396 81.365018826249724 107.11235289467282 -1 0 0 0 0.85716730853699208 0.51503806187062418 forward_v I I I I #
loop $-1 $-1 $139 $31 #
coedge $-1 $82 $82 $83 $140 forward $49 $-1 #
coedge $-1 $83 $83 $82 $140 reversed $51 $-1 #
coedge $-1 $84 $84 $52 $85 forward $136 $-1 #
edge $-1 $141 9.0833949806864129e-016 $141 6.2831853071796013 $84 $142 forward 7 unknown #
face $-1 $143 $144 $18 $-1 $145 reversed single #
loop $-1 $-1 $146 $53 #
plane-surface $-1 0 0 7.088356229313086 0 0 1 1 0 0 forward_v I I I I #
coedge $-1 $147 $148 $146 $149 reversed $54 $-1 #
coedge $-1 $91 $56 $148 $150 forward $35 $-1 #
coedge $-1 $56 $90 $151 $152 reversed $35 $-1 #
coedge $-1 $153 $146 $56 $93 forward $87 $-1 #
edge $-1 $154 -28.513715710194766 $155 -24.49637902862596 $92 $156 forward 7 unknown #
face $-1 $157 $158 $19 $-1 $159 forward single #
loop $-1 $-1 $160 $57 #
plane-surface $-1 -37.698667904549396 -115.7449260600977 49.894576708664395 -1 0 0 0 -0.85716730853699208 0.51503806187062418 forward_v I I I I #
loop $-1 $-1 $161 $37 #
coedge $-1 $98 $98 $99 $162 forward $58 $-1 #
coedge $-1 $99 $99 $98 $162 reversed $60 $-1 #
coedge $-1 $100 $100 $61 $101 forward $158 $-1 #
edge $-1 $163 6.1429551296134909e-016 $163 6.2831853071796013 $100 $164 forward 7 unknown #
face $-1 $165 $166 $15 $-1 $167 reversed single #
loop $-1 $-1 $168 $62 #
plane-surface $-1 -48.047120578630938 0 0 1 0 0 0 0 -1 forward_v I I I I #
coedge $-1 $169 $113 $170 $171 forward $63 $-1 #
coedge $-1 $172 $65 $169 $173 forward $41 $-1 #
coedge $-1 $65 $172 $174 $175 forward $41 $-1 #
coedge $-1 $116 $115 $65 $109 reversed $117 $-1 #
edge $-1 $176 -33.376084001422889 $177 33.376084001422889 $108 $178 forward 7 unknown #
coedge $-1 $67 $66 $179 $180 forward $26 $-1 #
coedge $-1 $181 $182 $66 $112 reversed $166 $-1 #
edge $-1 $119 -48.047120578630938 $183 48.047120578630938 $111 $184 forward 7 unknown #
coedge $-1 $105 $185 $67 $114 reversed $63 $-1 #
edge $-1 $186 -48.047120578630938 $118 48.047120578630938 $113 $187 forward 7 unknown #
coedge $-1 $108 $68 $185 $188 forward $117 $-1 #
coedge $-1 $68 $108 $181 $189 reversed $117 $-1 #
loop $-1 $-1 $115 $165 #
vertex $-1 $69 $190 #
vertex $-1 $69 $191 #
straight-curve $-1 48.047120578630938 0 7.088356229313086 0 1 0 I I #
face $-1 $192 $193 $16 $-1 $194 reversed single #
loop $-1 $-1 $129 $70 #
plane-surface $-1 0 0 7.088356229313086 0 0 1 1 0 0 forward_v I I I I #
coedge $-1 $76 $195 $73 $127 forward $71 $-1 #
coedge $-1 $196 $73 $197 $198 reversed $45 $-1 #
coedge $-1 $73 $196 $74 $128 reversed $45 $-1 #
edge $-1 $199 -26.610673457835855 $132 -16.262220783754312 $124 $200 forward 7 unknown #
edge $-1 $132 -66.752168002845792 $201 -58.952090728988026 $74 $202 forward 7 unknown #
coedge $-1 $203 $204 $75 $130 forward $122 $-1 #
edge $-1 $133 7.3064254117019729 $201 11.323762093270773 $129 $205 forward 7 unknown #
coedge $-1 $206 $76 $204 $207 reversed $71 $-1 #
vertex $-1 $127 $208 #
vertex $-1 $130 $209 #
straight-curve $-1 -37.698667904549396 33.376084001422889 53.556176447336412 0 0 1 I I #
face $-1 $210 $211 $17 $-1 $212 reversed single #
loop $-1 $213 $84 $78 #
plane-surface $-1 -42.872894241590167 -1.0038232324250913 57.620161172108304 0 0.85716730853699208 0.51503806187062418 1 0 0 forward_v I I I I #
coedge $-1 $214 $215 $216 $217 reversed $79 $-1 #
coedge $-1 $139 $139 $-1 $218 forward $81 $-1 #
edge $-1 $219 0 $219 6.2831853071796004 $82 $220 forward 7 unknown #
vertex $-1 $85 $221 #
ellipse-curve $-1 -42.872894241590167 31.367415660638489 3.7453706077064766 0 -0.85716730853699208 -0.51503806187062418 1 0 0 1 I I #
face $-1 $222 $223 $18 $-1 $224 reversed single #
loop $-1 $-1 $151 $86 #
plane-surface $-1 0 -33.376084001422889 0 0 1 0 0 0 1 forward_v I I I I #
coedge $-1 $92 $225 $89 $149 forward $87 $-1 #
coedge $-1 $226 $89 $227 $228 reversed $54 $-1 #
coedge $-1 $89 $226 $90 $150 reversed $54 $-1 #
edge $-1 $229 -26.610673457835855 $154 -16.262220783754312 $146 $230 forward 7 unknown #
edge $-1 $154 -7.8000772738577568 $231 1.379460482718971e-014 $90 $232 forward 7 unknown #
coedge $-1 $233 $234 $91 $152 forward $144 $-1 #
edge $-1 $155 17.858932125019113 $231 24.544903368232333 $151 $235 forward 7 unknown #
coedge $-1 $236 $92 $234 $237 forward $87 $-1 #
vertex $-1 $149 $238 #
vertex $-1 $237 $239 #
straight-curve $-1 -37.698667904549396 -57.872463030048849 7.0883562293130851 0 -1 0 I I #
face $-1 $240 $241 $19 $-1 $242 forward single #
loop $-1 $243 $100 $94 #
plane-surface $-1 -42.872894241590167 -33.376084001422882 0.40238498609987516 0 -0.85716730853699208 0.51503806187062418 1 0 0 forward_v I I I I #
coedge $-1 $244 $245 $246 $247 reversed $95 $-1 #
coedge $-1 $161 $161 $-1 $248 forward $97 $-1 #
edge $-1 $249 0 $249 6.2831853071796004 $98 $250 forward 7 unknown #
vertex $-1 $101 $251 #
ellipse-curve $-1 -42.872894241590167 -31.367415660638482 3.7453706077064783 0 0.85716730853699208 -0.51503806187062418 1 0 0 1 I I #
face $-1 $-1 $117 $15 $-1 $252 reversed single #
loop $-1 $-1 $181 $102 #
plane-surface $-1 0 33.376084001422889 0 0 -1 0 0 0 -1 forward_v I I I I #
coedge $-1 $253 $179 $182 $254 forward $103 $-1 #
coedge $-1 $185 $105 $106 $173 reversed $63 $-1 #
coedge $-1 $179 $253 $105 $171 reversed $103 $-1 #
edge $-1 $186 -7.088356229313086 $255 7.088356229313086 $170 $256 forward 7 unknown #
coedge $-1 $107 $106 $253 $257 forward $41 $-1 #
edge $-1 $177 -48.047120578630938 $255 48.047120578630938 $169 $258 forward 7 unknown #
coedge $-1 $182 $181 $107 $175 reversed $166 $-1 #
edge $-1 $259 -48.047120578630938 $176 48.047120578630938 $174 $260 forward 7 unknown #
vertex $-1 $109 $261 #
vertex $-1 $188 $262 #
straight-curve $-1 48.047120578630938 0 -7.088356229313086 0 -1 0 I I #
coedge $-1 $168 $170 $110 $180 reversed $103 $-1 #
edge $-1 $183 -33.376084001422889 $186 33.376084001422889 $179 $263 forward 7 unknown #
coedge $-1 $174 $111 $116 $189 forward $166 $-1 #
coedge $-1 $111 $174 $168 $254 reversed $166 $-1 #
vertex $-1 $112 $264 #
straight-curve $-1 0 33.376084001422889 7.088356229313086 -1 0 0 I I #
coedge $-1 $113 $169 $115 $188 reversed $63 $-1 #
vertex $-1 $180 $265 #
straight-curve $-1 0 -33.376084001422889 7.088356229313086 1 0 0 I I #
edge $-1 $118 -7.088356229313086 $177 7.088356229313086 $115 $266 forward 7 unknown #
edge $-1 $119 -7.088356229313086 $176 7.088356229313086 $116 $267 forward 7 unknown #
point $-1 48.047120578630938 -33.376084001422889 7.088356229313086 #
point $-1 48.047120578630938 33.376084001422889 7.088356229313086 #
face $-1 $268 $269 $16 $-1 $270 reversed single #
loop $-1 $-1 $271 $121 #
plane-surface $-1 0 0 -7.088356229313086 0 0 1 1 0 0 forward_v I I I I #
coedge $-1 $124 $272 $273 $274 reversed $71 $-1 #
coedge $-1 $126 $125 $203 $275 reversed $45 $-1 #
coedge $-1 $273 $276 $125 $198 forward $277 $-1 #
edge $-1 $278 33.998527908261664 $199 41.798605182119424 $197 $279 forward 7 unknown #
vertex $-1 $274 $280 #
straight-curve $-1 -21.436447120795084 33.376084001422889 0.40238498609986806 1 0 0 I I #
vertex $-1 $275 $281 #
straight-curve $-1 -37.698667904549396 -1.0038232324250913 57.620161172108304 0 -0.51503806187062418 0.85716730853699208 I I #
coedge $-1 $282 $129 $196 $275 forward $122 $-1 #
coedge $-1 $129 $283 $131 $207 forward $122 $-1 #
straight-curve $-1 -37.698667904549396 40.682509413124862 7.0883562293130851 0 -1 0 I I #
coedge $-1 $272 $131 $284 $285 forward $71 $-1 #
edge $-1 $286 -48.047120578630938 $133 37.698667904549396 $131 $287 forward 7 unknown #
point $-1 -37.698667904549396 33.376084001422889 0.40238498609986806 #
point $-1 -37.698667904549396 33.376084001422889 7.088356229313086 #
face $-1 $288 $289 $17 $-1 $290 forward single #
loop $-1 $-1 $291 $135 #
plane-surface $-1 0 33.376084001422889 0 0 -1 0 0 0 -1 forward_v I I I I #
loop $-1 $-1 $292 $78 #
coedge $-1 $215 $138 $293 $294 forward $79 $-1 #
coedge $-1 $138 $214 $295 $296 reversed $79 $-1 #
coedge $-1 $297 $291 $138 $217 forward $211 $-1 #
edge $-1 $298 -53.153791461236544 $299 -46.467820218023327 $216 $300 forward 7 unknown #
edge $-1 $301 1 $301 0 $139 $-1 forward 7 unknown #
vertex $-1 $140 $302 #
ellipse-curve $-1 -42.872894241590167 30.308794284196498 3.1092867340598125 0 0.85716730853699208 0.51503806187062418 1 0 0 1 I I #
point $-1 -41.872894241590167 31.367415660638496 3.7453706077064819 #
face $-1 $303 $304 $18 $-1 $305 reversed single #
loop $-1 $306 $307 $143 #
cone-surface $-1 -42.872894241590167 30.838104972417497 3.4273286708831474 0 -0.85716730853699208 -0.51503806187062418 1 0 0 1 I I 0 1 1 forward I I I I #
coedge $-1 $146 $308 $309 $310 forward $87 $-1 #
coedge $-1 $148 $147 $233 $311 reversed $54 $-1 #
coedge $-1 $309 $312 $147 $228 forward $313 $-1 #
edge $-1 $314 -8.4225211806965454 $229 -0.62244390683877582 $227 $315 forward 7 unknown #
vertex $-1 $228 $316 #
straight-curve $-1 -21.436447120795084 -29.358747319854078 7.088356229313086 1 0 0 I I #
vertex $-1 $311 $317 #
straight-curve $-1 -37.698667904549396 -33.376084001422882 0.40238498609987516 0 -0.51503806187062418 -0.85716730853699208 I I #
coedge $-1 $318 $151 $226 $311 forward $144 $-1 #
coedge $-1 $151 $319 $153 $237 reversed $144 $-1 #
straight-curve $-1 -37.698667904549396 -33.376084001422889 24.947288354332198 0 0 -1 I I #
coedge $-1 $320 $153 $321 $322 forward $87 $-1 #
edge $-1 $155 -37.698667904549396 $323 48.047120578630938 $234 $324 forward 7 unknown #
point $-1 -37.698667904549396 -29.358747319854082 7.088356229313086 #
point $-1 -37.698667904549396 -33.376084001422889 7.088356229313086 #
face $-1 $325 $326 $19 $-1 $327 reversed single #
loop $-1 $-1 $328 $157 #
plane-surface $-1 0 0 7.088356229313086 0 0 1 1 0 0 forward_v I I I I #
loop $-1 $-1 $329 $94 #
coedge $-1 $245 $160 $330 $331 forward $95 $-1 #
coedge $-1 $160 $244 $332 $333 reversed $95 $-1 #
coedge $-1 $334 $328 $160 $247 forward $241 $-1 #
edge $-1 $335 -28.513715710194766 $336 -24.49637902862596 $246 $337 forward 7 unknown #
edge $-1 $338 1 $338 0 $161 $-1 forward 7 unknown #
vertex $-1 $162 $339 #
ellipse-curve $-1 -42.872894241590167 -30.308794284196491 3.1092867340598125 0 -0.85716730853699208 0.51503806187062418 1 0 0 1 I I #
point $-1 -41.872894241590167 -31.367415660638489 3.7453706077064819 #
plane-surface $-1 48.047120578630938 0 0 -1 0 0 0 0 1 forward_v I I I I #
coedge $-1 $170 $168 $172 $257 reversed $103 $-1 #
edge $-1 $183 -7.088356229313086 $259 7.088356229313086 $182 $340 forward 7 unknown #
vertex $-1 $257 $341 #
straight-curve $-1 -48.047120578630938 -33.376084001422889 0 0 0 -1 I I #
edge $-1 $255 -33.376084001422889 $259 33.376084001422889 $253 $342 forward 7 unknown #
straight-curve $-1 0 -33.376084001422889 -7.088356229313086 -1 0 0 I I #
vertex $-1 $175 $343 #
straight-curve $-1 0 33.376084001422889 -7.088356229313086 1 0 0 I I #
point $-1 48.047120578630938 33.376084001422889 -7.088356229313086 #
point $-1 48.047120578630938 -33.376084001422889 -7.088356229313086 #
straight-curve $-1 -48.047120578630938 0 7.088356229313086 0 -1 0 I I #
point $-1 -48.047120578630938 33.376084001422889 7.088356229313086 #
point $-1 -48.047120578630938 -33.376084001422889 7.088356229313086 #
straight-curve $-1 48.047120578630938 -33.376084001422889 0 0 0 -1 I I #
straight-curve $-1 48.047120578630938 33.376084001422889 0 0 0 -1 I I #
face $-1 $344 $277 $16 $-1 $345 reversed single #
loop $-1 $-1 $346 $192 #
plane-surface $-1 0 -33.376084001422889 0 0 1 0 0 0 1 forward_v I I I I #
coedge $-1 $347 $348 $349 $350 forward $193 $-1 #
coedge $-1 $195 $206 $348 $351 reversed $71 $-1 #
coedge $-1 $352 $197 $195 $274 forward $277 $-1 #
edge $-1 $199 -0.40238498609986983 $353 7.088356229313086 $195 $354 forward 7 unknown #
edge $-1 $201 16.262220783754312 $278 26.610673457835855 $203 $355 forward 7 unknown #
coedge $-1 $197 $356 $282 $357 reversed $277 $-1 #
loop $-1 $-1 $197 $268 #
vertex $-1 $357 $358 #
straight-curve $-1 -48.047120578630938 11.848211399528671 36.230782890657544 0 0.51503806187062429 -0.85716730853699219 I I #
point $-1 -48.047120578630938 33.376084001422889 0.40238498609986983 #
point $-1 -37.698667904549396 29.358747319854089 7.0883562293130851 #
coedge $-1 $359 $203 $276 $357 forward $122 $-1 #
coedge $-1 $204 $359 $360 $361 forward $122 $-1 #
coedge $-1 $360 $349 $206 $285 reversed $362 $-1 #
edge $-1 $286 -7.088356229313086 $363 7.088356229313086 $284 $364 forward 7 unknown #
vertex $-1 $361 $365 #
straight-curve $-1 0 33.376084001422889 7.088356229313086 -1 0 0 I I #
face $-1 $366 $367 $17 $-1 $368 reversed single #
loop $-1 $-1 $295 $210 #
plane-surface $-1 0 0 7.088356229313086 0 0 1 1 0 0 forward_v I I I I #
coedge $-1 $216 $369 $292 $370 forward $211 $-1 #
coedge $-1 $371 $293 $291 $370 reversed $213 $-1 #
coedge $-1 $292 $372 $214 $294 reversed $213 $-1 #
edge $-1 $298 -66.752168002845792 $373 -58.952090728988026 $214 $374 forward 7 unknown #
coedge $-1 $375 $376 $215 $296 forward $289 $-1 #
edge $-1 $299 7.3064254117019729 $373 11.323762093270773 $295 $377 forward 7 unknown #
coedge $-1 $378 $216 $376 $379 reversed $211 $-1 #
vertex $-1 $370 $380 #
vertex $-1 $296 $381 #
straight-curve $-1 -37.698667904549396 33.376084001422889 53.556176447336412 0 0 1 I I #
vertex $-1 $218 $382 #
point $-1 -41.872894241590167 30.308794284196498 3.1092867340598125 #
face $-1 $383 $384 $18 $-1 $385 forward single #
loop $-1 $386 $387 $222 #
cone-surface $-1 -42.872894241590167 29.880210629928001 2.8517677031245006 0 -0.85716730853699208 -0.51503806187062418 0.5 0 0 1 I I -0.70710678118654746 0.70710678118654746 0.5 forward I I I I #
loop $-1 $-1 $388 $143 #
coedge $-1 $307 $307 $389 $390 reversed $223 $-1 #
coedge $-1 $225 $391 $392 $393 forward $87 $-1 #
coedge $-1 $394 $227 $225 $310 reversed $313 $-1 #
edge $-1 $395 -29.358747319854089 $229 29.358747319854082 $309 $396 forward 7 unknown #
edge $-1 $231 16.262220783754312 $314 26.610673457835855 $233 $397 forward 7 unknown #
coedge $-1 $227 $398 $318 $399 reversed $313 $-1 #
loop $-1 $-1 $227 $400 #
vertex $-1 $399 $401 #
straight-curve $-1 -48.047120578630938 -29.038165016452659 7.6218947976533293 0 0.51503806187062429 0.85716730853699219 I I #
point $-1 -48.047120578630938 -29.358747319854082 7.088356229313086 #
point $-1 -37.698667904549396 -33.376084001422889 0.40238498609986334 #
coedge $-1 $402 $233 $312 $399 forward $144 $-1 #
coedge $-1 $234 $402 $403 $404 reversed $144 $-1 #
coedge $-1 $391 $236 $405 $406 forward $87 $-1 #
coedge $-1 $403 $407 $236 $322 reversed $408 $-1 #
edge $-1 $323 -33.376084001422889 $409 33.376084001422889 $321 $410 forward 7 unknown #
vertex $-1 $322 $411 #
straight-curve $-1 0 -33.376084001422889 7.088356229313086 1 0 0 I I #
face $-1 $412 $413 $19 $-1 $414 reversed single #
loop $-1 $-1 $332 $240 #
plane-surface $-1 0 -33.376084001422889 0 0 1 0 0 0 1 forward_v I I I I #
coedge $-1 $246 $415 $329 $416 forward $241 $-1 #
coedge $-1 $417 $330 $328 $416 reversed $243 $-1 #
coedge $-1 $329 $418 $244 $331 reversed $243 $-1 #
edge $-1 $335 -7.8000772738577568 $419 1.379460482718971e-014 $244 $420 forward 7 unknown #
coedge $-1 $421 $422 $245 $333 forward $326 $-1 #
edge $-1 $336 17.858932125019113 $419 24.544903368232333 $332 $423 forward 7 unknown #
coedge $-1 $424 $246 $422 $425 forward $241 $-1 #
vertex $-1 $416 $426 #
vertex $-1 $425 $427 #
straight-curve $-1 -37.698667904549396 -57.872463030048849 7.0883562293130851 0 -1 0 I I #
vertex $-1 $248 $428 #
point $-1 -41.872894241590167 -30.308794284196491 3.1092867340598125 #
straight-curve $-1 -48.047120578630938 33.376084001422889 0 0 0 -1 I I #
point $-1 -48.047120578630938 -33.376084001422889 -7.088356229313086 #
straight-curve $-1 -48.047120578630938 0 -7.088356229313086 0 1 0 I I #
point $-1 -48.047120578630938 33.376084001422889 -7.088356229313086 #
face $-1 $-1 $362 $16 $-1 $429 reversed single #
plane-surface $-1 -48.047120578630938 0 0 1 0 0 0 0 -1 forward_v I I I I #
coedge $-1 $430 $431 $356 $432 forward $269 $-1 #
coedge $-1 $433 $271 $430 $434 forward $193 $-1 #
coedge $-1 $271 $433 $272 $351 forward $193 $-1 #
coedge $-1 $284 $435 $271 $350 reversed $362 $-1 #
edge $-1 $363 -33.376084001422889 $436 33.376084001422889 $349 $437 forward 7 unknown #
edge $-1 $353 -48.047120578630938 $363 48.047120578630938 $272 $438 forward 7 unknown #
coedge $-1 $356 $273 $433 $439 reversed $277 $-1 #
vertex $-1 $351 $440 #
straight-curve $-1 -48.047120578630938 33.376084001422889 0 0 0 -1 I I #
straight-curve $-1 -21.436447120795084 29.358747319854086 7.0883562293130851 -1 0 0 I I #
coedge $-1 $276 $352 $346 $432 reversed $277 $-1 #
edge $-1 $278 -29.358747319854089 $441 33.376084001422889 $276 $442 forward 7 unknown #
point $-1 -48.047120578630938 29.358747319854089 7.0883562293130851 #
coedge $-1 $283 $282 $431 $443 forward $122 $-1 #
coedge $-1 $435 $284 $283 $361 reversed $362 $-1 #
edge $-1 $444 -33.376084001422889 $286 33.376084001422889 $360 $445 forward 7 unknown #
loop $-1 $-1 $435 $344 #
vertex $-1 $350 $446 #
straight-curve $-1 48.047120578630938 33.376084001422889 0 0 0 -1 I I #
point $-1 48.047120578630938 33.376084001422889 7.088356229313086 #
face $-1 $447 $448 $17 $-1 $449 reversed single #
loop $-1 $-1 $450 $288 #
plane-surface $-1 0 0 -7.088356229313086 0 0 1 1 0 0 forward_v I I I I #
coedge $-1 $291 $451 $452 $453 reversed $211 $-1 #
edge $-1 $454 -26.610673457835855 $298 -16.262220783754312 $291 $455 forward 7 unknown #
coedge $-1 $372 $292 $456 $457 reversed $213 $-1 #
coedge $-1 $293 $371 $375 $458 reversed $213 $-1 #
vertex $-1 $458 $459 #
straight-curve $-1 -37.698667904549396 -1.0038232324250913 57.620161172108304 0 -0.51503806187062418 0.85716730853699208 I I #
coedge $-1 $460 $295 $372 $458 forward $289 $-1 #
coedge $-1 $295 $461 $297 $379 forward $289 $-1 #
straight-curve $-1 -37.698667904549396 40.682509413124862 7.0883562293130851 0 -1 0 I I #
coedge $-1 $451 $297 $462 $463 forward $211 $-1 #
edge $-1 $464 -48.047120578630938 $299 37.698667904549396 $297 $465 forward 7 unknown #
point $-1 -37.698667904549396 33.376084001422889 0.40238498609986806 #
point $-1 -37.698667904549396 33.376084001422889 7.088356229313086 #
point $-1 -42.872894241590167 29.451626975659504 2.5942486721891886 #
face $-1 $466 $467 $18 $-1 $468 forward single #
loop $-1 $-1 $469 $303 #
plane-surface $-1 -37.698667904549396 81.365018826249724 107.11235289467282 -1 0 0 0 0.85716730853699208 0.51503806187062418 forward_v I I I I #
loop $-1 $-1 $470 $222 #
coedge $-1 $387 $387 $388 $471 forward $304 $-1 #
coedge $-1 $388 $388 $387 $471 reversed $306 $-1 #
coedge $-1 $389 $389 $307 $390 forward $467 $-1 #
edge $-1 $472 9.0833949806864129e-016 $472 6.2831853071796013 $389 $473 forward 7 unknown #
coedge $-1 $308 $320 $474 $475 forward $87 $-1 #
coedge $-1 $476 $477 $308 $393 reversed $478 $-1 #
edge $-1 $479 16.262220783754312 $395 26.610673457835855 $308 $480 forward 7 unknown #
coedge $-1 $481 $309 $477 $482 forward $313 $-1 #
vertex $-1 $310 $483 #
straight-curve $-1 -48.047120578630938 0 7.088356229313086 0 -1 0 I I #
straight-curve $-1 -21.436447120795084 -33.376084001422889 0.40238498609985446 -1 0 0 I I #
coedge $-1 $312 $481 $484 $485 reversed $313 $-1 #
edge $-1 $314 -0.40238498609986334 $486 7.088356229313086 $312 $487 forward 7 unknown #
face $-1 $488 $313 $18 $-1 $489 reversed single #
point $-1 -48.047120578630938 -33.376084001422889 0.40238498609986334 #
coedge $-1 $319 $318 $490 $491 reversed $144 $-1 #
coedge $-1 $492 $321 $319 $404 forward $408 $-1 #
edge $-1 $323 -7.088356229313086 $493 7.088356229313086 $403 $494 forward 7 unknown #
coedge $-1 $495 $496 $320 $406 reversed $497 $-1 #
edge $-1 $409 -48.047120578630938 $498 37.698667904549396 $405 $499 forward 7 unknown #
coedge $-1 $321 $492 $495 $500 reversed $408 $-1 #
loop $-1 $-1 $403 $488 #
vertex $-1 $322 $501 #
straight-curve $-1 48.047120578630938 0 7.088356229313086 0 1 0 I I #
point $-1 48.047120578630938 -33.376084001422889 7.088356229313086 #
face $-1 $502 $503 $19 $-1 $504 reversed single #
loop $-1 $505 $506 $325 #
cone-surface $-1 -42.872894241590167 30.838104972417497 3.4273286708831474 0 -0.85716730853699208 -0.51503806187062418 1 0 0 1 I I 0 1 1 forward I I I I #
coedge $-1 $328 $507 $508 $509 forward $241 $-1 #
edge $-1 $510 -26.610673457835855 $335 -16.262220783754312 $328 $511 forward 7 unknown #
coedge $-1 $418 $329 $512 $513 reversed $243 $-1 #
coedge $-1 $330 $417 $421 $514 reversed $243 $-1 #
vertex $-1 $514 $515 #
straight-curve $-1 -37.698667904549396 -33.376084001422882 0.40238498609987516 0 -0.51503806187062418 -0.85716730853699208 I I #
coedge $-1 $516 $332 $418 $514 forward $326 $-1 #
coedge $-1 $332 $517 $334 $425 reversed $326 $-1 #
straight-curve $-1 -37.698667904549396 -33.376084001422889 24.947288354332198 0 0 -1 I I #
coedge $-1 $518 $334 $519 $520 forward $241 $-1 #
edge $-1 $336 -37.698667904549396 $521 48.047120578630938 $422 $522 forward 7 unknown #
point $-1 -37.698667904549396 -29.358747319854082 7.088356229313086 #
point $-1 -37.698667904549396 -33.376084001422889 7.088356229313086 #
point $-1 -42.872894241590167 -29.451626975659497 2.5942486721891886 #
plane-surface $-1 48.047120578630938 0 0 -1 0 0 0 0 1 forward_v I I I I #
coedge $-1 $523 $346 $347 $434 reversed $269 $-1 #
coedge $-1 $346 $523 $359 $443 reversed $269 $-1 #
edge $-1 $441 -7.088356229313086 $524 7.088356229313086 $356 $525 forward 7 unknown #
coedge $-1 $348 $347 $352 $439 forward $193 $-1 #
edge $-1 $436 -48.047120578630938 $524 48.047120578630938 $430 $526 forward 7 unknown #
coedge $-1 $349 $360 $523 $527 forward $362 $-1 #
vertex $-1 $527 $528 #
straight-curve $-1 48.047120578630938 0 -7.088356229313086 0 -1 0 I I #
straight-curve $-1 0 33.376084001422889 -7.088356229313086 1 0 0 I I #
edge $-1 $524 -33.376084001422889 $353 33.376084001422889 $352 $529 forward 7 unknown #
point $-1 -48.047120578630938 33.376084001422889 -7.088356229313086 #
vertex $-1 $357 $530 #
straight-curve $-1 -48.047120578630938 0 7.088356229313086 0 -1 0 I I #
edge $-1 $441 -48.047120578630938 $444 48.047120578630938 $431 $531 forward 7 unknown #
vertex $-1 $361 $532 #
straight-curve $-1 48.047120578630938 0 7.088356229313086 0 1 0 I I #
point $-1 48.047120578630938 33.376084001422889 -7.088356229313086 #
face $-1 $533 $534 $17 $-1 $535 reversed single #
loop $-1 $-1 $536 $366 #
plane-surface $-1 0 -33.376084001422889 0 0 1 0 0 0 1 forward_v I I I I #
coedge $-1 $537 $538 $539 $540 forward $367 $-1 #
coedge $-1 $369 $378 $538 $541 reversed $211 $-1 #
coedge $-1 $542 $456 $369 $453 forward $534 $-1 #
edge $-1 $454 -0.40238498609986983 $543 7.088356229313086 $369 $544 forward 7 unknown #
vertex $-1 $453 $545 #
straight-curve $-1 -21.436447120795084 33.376084001422889 0.40238498609986806 1 0 0 I I #
coedge $-1 $452 $546 $371 $457 forward $534 $-1 #
edge $-1 $547 33.998527908261664 $454 41.798605182119424 $456 $548 forward 7 unknown #
edge $-1 $373 16.262220783754312 $547 26.610673457835855 $375 $549 forward 7 unknown #
point $-1 -37.698667904549396 29.358747319854089 7.0883562293130851 #
coedge $-1 $550 $375 $546 $551 forward $289 $-1 #
coedge $-1 $376 $550 $552 $553 forward $289 $-1 #
coedge $-1 $552 $539 $378 $463 reversed $554 $-1 #
edge $-1 $464 -7.088356229313086 $555 7.088356229313086 $462 $556 forward 7 unknown #
vertex $-1 $553 $557 #
straight-curve $-1 0 33.376084001422889 7.088356229313086 -1 0 0 I I #
face $-1 $558 $497 $18 $-1 $559 reversed single #
loop $-1 $478 $389 $383 #
plane-surface $-1 -42.872894241590167 -1.0038232324250913 57.620161172108304 0 0.85716730853699208 0.51503806187062418 1 0 0 forward_v I I I I #
coedge $-1 $560 $474 $496 $561 reversed $384 $-1 #
coedge $-1 $470 $470 $-1 $562 forward $386 $-1 #
edge $-1 $563 0 $563 6.2831853071796004 $387 $564 forward 7 unknown #
vertex $-1 $390 $565 #
ellipse-curve $-1 -42.872894241590167 31.367415660638489 3.7453706077064766 0 -0.85716730853699208 -0.51503806187062418 1 0 0 1 I I #
coedge $-1 $469 $560 $391 $475 reversed $384 $-1 #
edge $-1 $498 7.3064254117019729 $479 11.323762093270773 $391 $566 forward 7 unknown #
coedge $-1 $567 $392 $560 $568 reversed $478 $-1 #
coedge $-1 $392 $567 $394 $482 reversed $478 $-1 #
loop $-1 $-1 $567 $383 #
vertex $-1 $393 $569 #
straight-curve $-1 -21.436447120795084 29.358747319854086 7.0883562293130851 -1 0 0 I I #
coedge $-1 $398 $394 $570 $571 forward $313 $-1 #
edge $-1 $395 33.998527908261664 $572 41.798605182119424 $394 $573 forward 7 unknown #
point $-1 -48.047120578630938 29.358747319854089 7.0883562293130851 #
coedge $-1 $574 $490 $398 $485 forward $575 $-1 #
edge $-1 $486 -33.376084001422889 $576 33.376084001422889 $398 $577 forward 7 unknown #
vertex $-1 $485 $578 #
straight-curve $-1 -48.047120578630938 -33.376084001422889 0 0 0 -1 I I #
face $-1 $-1 $408 $18 $-1 $579 reversed single #
plane-surface $-1 -48.047120578630938 0 0 1 0 0 0 0 -1 forward_v I I I I #
coedge $-1 $484 $580 $402 $491 forward $575 $-1 #
edge $-1 $493 -48.047120578630938 $486 48.047120578630938 $402 $581 forward 7 unknown #
coedge $-1 $407 $403 $580 $582 reversed $408 $-1 #
vertex $-1 $404 $583 #
straight-curve $-1 48.047120578630938 -33.376084001422889 0 0 0 -1 I I #
coedge $-1 $584 $405 $407 $500 forward $497 $-1 #
coedge $-1 $405 $585 $469 $561 forward $497 $-1 #
loop $-1 $-1 $585 $466 #
vertex $-1 $475 $586 #
straight-curve $-1 0 33.376084001422889 7.088356229313086 -1 0 0 I I #
edge $-1 $409 -7.088356229313086 $587 7.088356229313086 $407 $588 forward 7 unknown #
point $-1 48.047120578630938 33.376084001422889 7.088356229313086 #
face $-1 $589 $590 $19 $-1 $591 forward single #
loop $-1 $592 $593 $412 #
cone-surface $-1 -42.872894241590167 29.880210629928001 2.8517677031245006 0 -0.85716730853699208 -0.51503806187062418 0.5 0 0 1 I I -0.70710678118654746 0.70710678118654746 0.5 forward I I I I #
loop $-1 $-1 $594 $325 #
coedge $-1 $506 $506 $595 $596 reversed $413 $-1 #
coedge $-1 $415 $597 $598 $599 forward $241 $-1 #
coedge $-1 $600 $512 $415 $509 reversed $601 $-1 #
edge $-1 $602 -29.358747319854089 $510 29.358747319854082 $508 $603 forward 7 unknown #
vertex $-1 $513 $604 #
straight-curve $-1 -21.436447120795084 -29.358747319854078 7.088356229313086 1 0 0 I I #
coedge $-1 $508 $605 $417 $513 forward $601 $-1 #
edge $-1 $606 -8.4225211806965454 $510 -0.62244390683877582 $512 $607 forward 7 unknown #
edge $-1 $419 16.262220783754312 $606 26.610673457835855 $421 $608 forward 7 unknown #
point $-1 -37.698667904549396 -33.376084001422889 0.40238498609986334 #
coedge $-1 $609 $421 $605 $610 forward $326 $-1 #
coedge $-1 $422 $609 $611 $612 reversed $326 $-1 #
coedge $-1 $597 $424 $613 $614 forward $241 $-1 #
coedge $-1 $611 $615 $424 $520 reversed $616 $-1 #
edge $-1 $521 -33.376084001422889 $617 33.376084001422889 $519 $618 forward 7 unknown #
vertex $-1 $520 $619 #
straight-curve $-1 0 -33.376084001422889 7.088356229313086 1 0 0 I I #
coedge $-1 $431 $430 $435 $527 reversed $269 $-1 #
vertex $-1 $439 $620 #
straight-curve $-1 -48.047120578630938 -33.376084001422889 0 0 0 -1 I I #
straight-curve $-1 0 -33.376084001422889 -7.088356229313086 -1 0 0 I I #
edge $-1 $444 -7.088356229313086 $436 7.088356229313086 $435 $621 forward 7 unknown #
point $-1 48.047120578630938 -33.376084001422889 -7.088356229313086 #
straight-curve $-1 -48.047120578630938 0 -7.088356229313086 0 1 0 I I #
point $-1 -48.047120578630938 -33.376084001422889 7.088356229313086 #
straight-curve $-1 0 -33.376084001422889 7.088356229313086 1 0 0 I I #
point $-1 48.047120578630938 -33.376084001422889 7.088356229313086 #
face $-1 $-1 $554 $17 $-1 $622 reversed single #
loop $-1 $-1 $456 $447 #
plane-surface $-1 -48.047120578630938 0 0 1 0 0 0 0 -1 forward_v I I I I #
coedge $-1 $623 $624 $625 $626 forward $448 $-1 #
coedge $-1 $627 $450 $623 $628 forward $367 $-1 #
coedge $-1 $450 $627 $451 $541 forward $367 $-1 #
coedge $-1 $462 $629 $450 $540 reversed $554 $-1 #
edge $-1 $555 -33.376084001422889 $630 33.376084001422889 $539 $631 forward 7 unknown #
edge $-1 $543 -48.047120578630938 $555 48.047120578630938 $451 $632 forward 7 unknown #
coedge $-1 $625 $452 $627 $633 reversed $534 $-1 #
vertex $-1 $541 $634 #
straight-curve $-1 -48.047120578630938 33.376084001422889 0 0 0 -1 I I #
point $-1 -48.047120578630938 33.376084001422889 0.40238498609986983 #
coedge $-1 $456 $625 $460 $551 reversed $534 $-1 #
vertex $-1 $551 $635 #
straight-curve $-1 -48.047120578630938 11.848211399528671 36.230782890657544 0 0.51503806187062429 -0.85716730853699219 I I #
straight-curve $-1 -21.436447120795084 29.358747319854086 7.0883562293130851 -1 0 0 I I #
coedge $-1 $461 $460 $624 $636 forward $289 $-1 #
edge $-1 $547 -29.358747319854089 $637 33.376084001422889 $546 $638 forward 7 unknown #
coedge $-1 $629 $462 $461 $553 reversed $554 $-1 #
edge $-1 $639 -33.376084001422889 $464 33.376084001422889 $552 $640 forward 7 unknown #
loop $-1 $-1 $629 $533 #
vertex $-1 $540 $641 #
straight-curve $-1 48.047120578630938 33.376084001422889 0 0 0 -1 I I #
point $-1 48.047120578630938 33.376084001422889 7.088356229313086 #
face $-1 $400 $575 $18 $-1 $642 reversed single #
plane-surface $-1 0 33.376084001422889 0 0 -1 0 0 0 -1 forward_v I I I I #
coedge $-1 $474 $469 $476 $568 forward $384 $-1 #
edge $-1 $643 -53.153791461236544 $498 -46.467820218023327 $496 $644 forward 7 unknown #
edge $-1 $645 1 $645 0 $470 $-1 forward 7 unknown #
vertex $-1 $471 $646 #
ellipse-curve $-1 -42.872894241590167 30.308794284196498 3.1092867340598125 0 0.85716730853699208 0.51503806187062418 1 0 0 1 I I #
point $-1 -41.872894241590167 31.367415660638496 3.7453706077064819 #
straight-curve $-1 -37.698667904549396 40.682509413124862 7.0883562293130851 0 -1 0 I I #
coedge $-1 $477 $476 $585 $647 reversed $478 $-1 #
edge $-1 $643 -66.752168002845792 $479 -58.952090728988026 $560 $648 forward 7 unknown #
point $-1 -37.698667904549396 29.358747319854089 7.0883562293130851 #
coedge $-1 $585 $584 $481 $571 reversed $497 $-1 #
edge $-1 $572 -0.40238498609986983 $576 7.088356229313086 $570 $649 forward 7 unknown #
vertex $-1 $571 $650 #
straight-curve $-1 -48.047120578630938 11.848211399528671 36.230782890657544 0 0.51503806187062429 -0.85716730853699219 I I #
coedge $-1 $580 $484 $584 $651 forward $575 $-1 #
loop $-1 $-1 $580 $558 #
vertex $-1 $651 $652 #
straight-curve $-1 -48.047120578630938 0 -7.088356229313086 0 1 0 I I #
point $-1 -48.047120578630938 -33.376084001422889 -7.088356229313086 #
plane-surface $-1 48.047120578630938 0 0 -1 0 0 0 0 1 forward_v I I I I #
coedge $-1 $490 $574 $492 $582 forward $575 $-1 #
straight-curve $-1 0 -33.376084001422889 -7.088356229313086 -1 0 0 I I #
edge $-1 $587 -33.376084001422889 $493 33.376084001422889 $492 $653 forward 7 unknown #
point $-1 48.047120578630938 -33.376084001422889 -7.088356229313086 #
coedge $-1 $570 $495 $574 $651 reversed $497 $-1 #
coedge $-1 $496 $570 $567 $647 forward $497 $-1 #
point $-1 -37.698667904549396 33.376084001422889 7.088356229313086 #
vertex $-1 $582 $654 #
straight-curve $-1 48.047120578630938 33.376084001422889 0 0 0 -1 I I #
face $-1 $655 $656 $19 $-1 $657 forward single #
loop $-1 $-1 $658 $502 #
plane-surface $-1 -37.698667904549396 81.365018826249724 107.11235289467282 -1 0 0 0 0.85716730853699208 0.51503806187062418 forward_v I I I I #
loop $-1 $-1 $659 $412 #
coedge $-1 $593 $593 $594 $660 forward $503 $-1 #
coedge $-1 $594 $594 $593 $660 reversed $505 $-1 #
coedge $-1 $595 $595 $506 $596 forward $656 $-1 #
edge $-1 $661 9.0833949806864129e-016 $661 6.2831853071796013 $595 $662 forward 7 unknown #
coedge $-1 $507 $518 $663 $664 forward $241 $-1 #
coedge $-1 $665 $666 $507 $599 reversed $667 $-1 #
edge $-1 $668 16.262220783754312 $602 26.610673457835855 $507 $669 forward 7 unknown #
coedge $-1 $670 $508 $666 $671 forward $601 $-1 #
loop $-1 $-1 $512 $672 #
vertex $-1 $509 $673 #
straight-curve $-1 -48.047120578630938 0 7.088356229313086 0 -1 0 I I #
point $-1 -48.047120578630938 -29.358747319854082 7.088356229313086 #
coedge $-1 $512 $674 $516 $610 reversed $601 $-1 #
vertex $-1 $610 $675 #
straight-curve $-1 -48.047120578630938 -29.038165016452659 7.6218947976533293 0 0.51503806187062429 0.85716730853699219 I I #
straight-curve $-1 -21.436447120795084 -33.376084001422889 0.40238498609985446 -1 0 0 I I #
coedge $-1 $517 $516 $676 $677 reversed $326 $-1 #
edge $-1 $606 -0.40238498609986334 $678 7.088356229313086 $605 $679 forward 7 unknown #
coedge $-1 $680 $519 $517 $612 forward $616 $-1 #
edge $-1 $521 -7.088356229313086 $681 7.088356229313086 $611 $682 forward 7 unknown #
coedge $-1 $683 $684 $518 $614 reversed $685 $-1 #
edge $-1 $617 -48.047120578630938 $686 37.698667904549396 $613 $687 forward 7 unknown #
coedge $-1 $519 $680 $683 $688 reversed $616 $-1 #
loop $-1 $-1 $611 $689 #
vertex $-1 $520 $690 #
straight-curve $-1 48.047120578630938 0 7.088356229313086 0 1 0 I I #
point $-1 48.047120578630938 -33.376084001422889 7.088356229313086 #
point $-1 -48.047120578630938 -33.376084001422889 -7.088356229313086 #
straight-curve $-1 48.047120578630938 -33.376084001422889 0 0 0 -1 I I #
plane-surface $-1 48.047120578630938 0 0 -1 0 0 0 0 1 forward_v I I I I #
coedge $-1 $691 $536 $537 $628 reversed $448 $-1 #
coedge $-1 $536 $691 $550 $636 reversed $448 $-1 #
coedge $-1 $546 $542 $536 $626 reversed $534 $-1 #
edge $-1 $637 -7.088356229313086 $692 7.088356229313086 $625 $693 forward 7 unknown #
coedge $-1 $538 $537 $542 $633 forward $367 $-1 #
edge $-1 $630 -48.047120578630938 $692 48.047120578630938 $623 $694 forward 7 unknown #
coedge $-1 $539 $552 $691 $695 forward $554 $-1 #
vertex $-1 $695 $696 #
straight-curve $-1 48.047120578630938 0 -7.088356229313086 0 -1 0 I I #
straight-curve $-1 0 33.376084001422889 -7.088356229313086 1 0 0 I I #
edge $-1 $692 -33.376084001422889 $543 33.376084001422889 $542 $697 forward 7 unknown #
point $-1 -48.047120578630938 33.376084001422889 -7.088356229313086 #
point $-1 -48.047120578630938 29.358747319854089 7.0883562293130851 #
edge $-1 $637 -48.047120578630938 $639 48.047120578630938 $624 $698 forward 7 unknown #
vertex $-1 $551 $699 #
straight-curve $-1 -48.047120578630938 0 7.088356229313086 0 -1 0 I I #
vertex $-1 $553 $700 #
straight-curve $-1 48.047120578630938 0 7.088356229313086 0 1 0 I I #
point $-1 48.047120578630938 33.376084001422889 -7.088356229313086 #
plane-surface $-1 0 0 -7.088356229313086 0 0 1 1 0 0 forward_v I I I I #
vertex $-1 $647 $701 #
straight-curve $-1 -37.698667904549396 33.376084001422889 53.556176447336412 0 0 1 I I #
vertex $-1 $562 $702 #
point $-1 -41.872894241590167 30.308794284196498 3.1092867340598125 #
edge $-1 $572 -26.610673457835855 $643 -16.262220783754312 $585 $703 forward 7 unknown #
straight-curve $-1 -37.698667904549396 -1.0038232324250913 57.620161172108304 0 -0.51503806187062418 0.85716730853699208 I I #
straight-curve $-1 -48.047120578630938 33.376084001422889 0 0 0 -1 I I #
point $-1 -48.047120578630938 33.376084001422889 0.40238498609986983 #
edge $-1 $576 -48.047120578630938 $587 48.047120578630938 $584 $704 forward 7 unknown #
point $-1 -48.047120578630938 33.376084001422889 -7.088356229313086 #
straight-curve $-1 48.047120578630938 0 -7.088356229313086 0 -1 0 I I #
point $-1 48.047120578630938 33.376084001422889 -7.088356229313086 #
face $-1 $705 $685 $19 $-1 $706 reversed single #
loop $-1 $667 $595 $589 #
plane-surface $-1 -42.872894241590167 -1.0038232324250913 57.620161172108304 0 0.85716730853699208 0.51503806187062418 1 0 0 forward_v I I I I #
coedge $-1 $707 $663 $684 $708 reversed $590 $-1 #
coedge $-1 $659 $659 $-1 $709 forward $592 $-1 #
edge $-1 $710 0 $710 6.2831853071796004 $593 $711 forward 7 unknown #
vertex $-1 $596 $712 #
ellipse-curve $-1 -42.872894241590167 31.367415660638489 3.7453706077064766 0 -0.85716730853699208 -0.51503806187062418 1 0 0 1 I I #
coedge $-1 $658 $707 $597 $664 reversed $590 $-1 #
edge $-1 $686 7.3064254117019729 $668 11.323762093270773 $597 $713 forward 7 unknown #
coedge $-1 $714 $598 $707 $715 reversed $667 $-1 #
coedge $-1 $598 $714 $600 $671 reversed $667 $-1 #
loop $-1 $-1 $714 $589 #
vertex $-1 $599 $716 #
straight-curve $-1 -21.436447120795084 29.358747319854086 7.0883562293130851 -1 0 0 I I #
coedge $-1 $674 $600 $717 $718 forward $601 $-1 #
edge $-1 $602 33.998527908261664 $719 41.798605182119424 $600 $720 forward 7 unknown #
face $-1 $689 $601 $19 $-1 $721 reversed single #
point $-1 -48.047120578630938 29.358747319854089 7.0883562293130851 #
coedge $-1 $605 $670 $722 $723 reversed $601 $-1 #
point $-1 -48.047120578630938 -33.376084001422889 0.40238498609986334 #
coedge $-1 $722 $724 $609 $677 forward $725 $-1 #
edge $-1 $681 -48.047120578630938 $678 48.047120578630938 $609 $726 forward 7 unknown #
vertex $-1 $723 $727 #
straight-curve $-1 -48.047120578630938 -33.376084001422889 0 0 0 -1 I I #
coedge $-1 $615 $611 $724 $728 reversed $616 $-1 #
vertex $-1 $612 $729 #
straight-curve $-1 48.047120578630938 -33.376084001422889 0 0 0 -1 I I #
coedge $-1 $730 $613 $615 $688 forward $685 $-1 #
coedge $-1 $613 $731 $658 $708 forward $685 $-1 #
loop $-1 $-1 $731 $655 #
vertex $-1 $664 $732 #
straight-curve $-1 0 33.376084001422889 7.088356229313086 -1 0 0 I I #
edge $-1 $617 -7.088356229313086 $733 7.088356229313086 $615 $734 forward 7 unknown #
face $-1 $-1 $616 $19 $-1 $735 reversed single #
point $-1 48.047120578630938 33.376084001422889 7.088356229313086 #
coedge $-1 $624 $623 $629 $695 reversed $448 $-1 #
vertex $-1 $633 $736 #
straight-curve $-1 -48.047120578630938 -33.376084001422889 0 0 0 -1 I I #
straight-curve $-1 0 -33.376084001422889 -7.088356229313086 -1 0 0 I I #
edge $-1 $639 -7.088356229313086 $630 7.088356229313086 $629 $737 forward 7 unknown #
point $-1 48.047120578630938 -33.376084001422889 -7.088356229313086 #
straight-curve $-1 -48.047120578630938 0 -7.088356229313086 0 1 0 I I #
straight-curve $-1 0 -33.376084001422889 7.088356229313086 1 0 0 I I #
point $-1 -48.047120578630938 -33.376084001422889 7.088356229313086 #
point $-1 48.047120578630938 -33.376084001422889 7.088356229313086 #
point $-1 -37.698667904549396 33.376084001422889 0.40238498609986806 #
point $-1 -42.872894241590167 29.451626975659504 2.5942486721891886 #
straight-curve $-1 -21.436447120795084 33.376084001422889 0.40238498609986806 1 0 0 I I #
straight-curve $-1 0 33.376084001422889 -7.088356229313086 1 0 0 I I #
face $-1 $672 $725 $19 $-1 $738 reversed single #
plane-surface $-1 0 33.376084001422889 0 0 -1 0 0 0 -1 forward_v I I I I #
coedge $-1 $663 $658 $665 $715 forward $590 $-1 #
edge $-1 $739 -53.153791461236544 $686 -46.467820218023327 $684 $740 forward 7 unknown #
edge $-1 $741 1 $741 0 $659 $-1 forward 7 unknown #
vertex $-1 $660 $742 #
ellipse-curve $-1 -42.872894241590167 30.308794284196498 3.1092867340598125 0 0.85716730853699208 0.51503806187062418 1 0 0 1 I I #
point $-1 -41.872894241590167 31.367415660638496 3.7453706077064819 #
straight-curve $-1 -37.698667904549396 40.682509413124862 7.0883562293130851 0 -1 0 I I #
coedge $-1 $666 $665 $731 $743 reversed $667 $-1 #
edge $-1 $739 -66.752168002845792 $668 -58.952090728988026 $707 $744 forward 7 unknown #
point $-1 -37.698667904549396 29.358747319854089 7.0883562293130851 #
coedge $-1 $731 $730 $670 $718 reversed $685 $-1 #
edge $-1 $719 -0.40238498609986983 $745 7.088356229313086 $717 $746 forward 7 unknown #
vertex $-1 $718 $747 #
straight-curve $-1 -48.047120578630938 11.848211399528671 36.230782890657544 0 0.51503806187062429 -0.85716730853699219 I I #
plane-surface $-1 -48.047120578630938 0 0 1 0 0 0 0 -1 forward_v I I I I #
coedge $-1 $748 $676 $674 $723 forward $725 $-1 #
edge $-1 $678 -33.376084001422889 $745 33.376084001422889 $674 $749 forward 7 unknown #
coedge $-1 $676 $748 $680 $728 forward $725 $-1 #
loop $-1 $-1 $724 $705 #
straight-curve $-1 0 -33.376084001422889 -7.088356229313086 -1 0 0 I I #
point $-1 -48.047120578630938 -33.376084001422889 -7.088356229313086 #
edge $-1 $733 -33.376084001422889 $681 33.376084001422889 $680 $750 forward 7 unknown #
point $-1 48.047120578630938 -33.376084001422889 -7.088356229313086 #
coedge $-1 $717 $683 $748 $751 reversed $685 $-1 #
coedge $-1 $684 $717 $714 $743 forward $685 $-1 #
point $-1 -37.698667904549396 33.376084001422889 7.088356229313086 #
vertex $-1 $728 $752 #
straight-curve $-1 48.047120578630938 33.376084001422889 0 0 0 -1 I I #
plane-surface $-1 48.047120578630938 0 0 -1 0 0 0 0 1 forward_v I I I I #
point $-1 -48.047120578630938 -33.376084001422889 -7.088356229313086 #
straight-curve $-1 48.047120578630938 -33.376084001422889 0 0 0 -1 I I #
plane-surface $-1 0 0 -7.088356229313086 0 0 1 1 0 0 forward_v I I I I #
vertex $-1 $743 $753 #
straight-curve $-1 -37.698667904549396 33.376084001422889 53.556176447336412 0 0 1 I I #
vertex $-1 $709 $754 #
point $-1 -41.872894241590167 30.308794284196498 3.1092867340598125 #
edge $-1 $719 -26.610673457835855 $739 -16.262220783754312 $731 $755 forward 7 unknown #
straight-curve $-1 -37.698667904549396 -1.0038232324250913 57.620161172108304 0 -0.51503806187062418 0.85716730853699208 I I #
vertex $-1 $751 $756 #
straight-curve $-1 -48.047120578630938 33.376084001422889 0 0 0 -1 I I #
point $-1 -48.047120578630938 33.376084001422889 0.40238498609986983 #
coedge $-1 $724 $722 $730 $751 forward $725 $-1 #
straight-curve $-1 -48.047120578630938 0 -7.088356229313086 0 1 0 I I #
straight-curve $-1 48.047120578630938 0 -7.088356229313086 0 -1 0 I I #
edge $-1 $745 -48.047120578630938 $733 48.047120578630938 $730 $757 forward 7 unknown #
point $-1 48.047120578630938 33.376084001422889 -7.088356229313086 #
point $-1 -37.698667904549396 33.376084001422889 0.40238498609986806 #
point $-1 -42.872894241590167 29.451626975659504 2.5942486721891886 #
straight-curve $-1 -21.436447120795084 33.376084001422889 0.40238498609986806 1 0 0 I I #
point $-1 -48.047120578630938 33.376084001422889 -7.088356229313086 #
straight-curve $-1 0 33.376084001422889 -7.088356229313086 1 0 0 I I #
End-of-ACIS-data 