500 0 9 0           
7 Unknown 11 ACIS 5.0 NT 24 Fri Mar 26 01:02:20 1999 
-1 9.9999999999999995e-007 1e-010 
body $-1 $9 $-1 $10 #
body $-1 $11 $-1 $12 #
body $-1 $13 $-1 $14 #
body $-1 $15 $-1 $16 #
body $-1 $17 $-1 $18 #
body $-1 $19 $-1 $20 #
body $-1 $21 $-1 $22 #
body $-1 $23 $-1 $24 #
body $-1 $25 $-1 $26 #
lump $-1 $-1 $27 $0 #
transform $-1 1 0 0 0 1 0 0 0 1 70.933561204870756 36.140678658500207 11.821852353447149 1 rotate no_reflect no_shear #
lump $-1 $-1 $28 $1 #
transform $-1 1 0 0 0 1 0 0 0 1 70.933561204870756 36.140678658500207 11.821852353447149 1 rotate no_reflect no_shear #
lump $-1 $-1 $29 $2 #
transform $-1 1 0 0 0 1 0 0 0 1 70.933561204870756 36.140678658500207 11.821852353447149 1 rotate no_reflect no_shear #
lump $-1 $-1 $30 $3 #
transform $-1 1 0 0 0 1 0 0 0 1 70.933561204870756 36.140678658500207 11.821852353447149 1 rotate no_reflect no_shear #
lump $-1 $-1 $31 $4 #
transform $-1 1 0 0 0 1 0 0 0 1 70.933561204870756 36.140678658500207 11.821852353447149 1 rotate no_reflect no_shear #
lump $-1 $-1 $32 $5 #
transform $-1 1 0 0 0 1 0 0 0 1 70.933561204870756 36.140678658500207 11.821852353447149 1 rotate no_reflect no_shear #
lump $-1 $-1 $33 $6 #
transform $-1 1 0 0 0 1 0 0 0 1 70.933561204870756 36.140678658500207 11.821852353447149 1 rotate no_reflect no_shear #
lump $-1 $-1 $34 $7 #
transform $-1 1 0 0 0 1 0 0 0 1 70.933561204870756 36.140678658500207 11.821852353447149 1 rotate no_reflect no_shear #
lump $-1 $-1 $35 $8 #
transform $-1 1 0 0 0 1 0 0 0 1 70.933561204870756 36.140678658500207 11.821852353447149 1 rotate no_reflect no_shear #
shell $-1 $-1 $-1 $36 $-1 $9 #
shell $-1 $-1 $-1 $37 $-1 $11 #
shell $-1 $-1 $-1 $38 $-1 $13 #
shell $-1 $-1 $-1 $39 $-1 $15 #
shell $-1 $-1 $-1 $40 $-1 $17 #
shell $-1 $-1 $-1 $41 $-1 $19 #
shell $-1 $-1 $-1 $42 $-1 $21 #
shell $-1 $-1 $-1 $43 $-1 $23 #
shell $-1 $-1 $-1 $44 $-1 $25 #
face $-1 $45 $46 $27 $-1 $47 forward single #
face $-1 $48 $49 $28 $-1 $50 forward single #
face $-1 $51 $52 $29 $-1 $53 reversed single #
face $-1 $54 $55 $30 $-1 $56 forward single #
face $-1 $57 $58 $31 $-1 $59 forward single #
face $-1 $60 $61 $32 $-1 $62 forward single #
face $-1 $63 $64 $33 $-1 $65 reversed single #
face $-1 $66 $67 $34 $-1 $68 forward single #
face $-1 $69 $70 $35 $-1 $71 forward single #
face $-1 $72 $73 $27 $-1 $74 reversed single #
loop $-1 $-1 $75 $36 #
plane-surface $-1 0 0 11.821852353447149 0 0 1 1 0 0 forward_v I I I I #
face $-1 $76 $77 $28 $-1 $78 reversed single #
loop $-1 $-1 $79 $37 #
plane-surface $-1 -66.612904531108214 0 8.0344904114767512 0 0 1 1 0 0 forward_v I I I I #
face $-1 $80 $81 $29 $-1 $82 reversed single #
loop $-1 $-1 $83 $38 #
plane-surface $-1 -51.430266465103749 -156.45082284951582 78.035724261303244 1 0 0 0 0.84804810408105047 -0.52991925155115449 forward_v I I I I #
face $-1 $84 $85 $30 $-1 $86 forward single #
loop $-1 $87 $88 $39 #
cone-surface $-1 -44.319333315859907 -32.149869326425588 6.5960918438557146 0 0.84804810408105047 -0.52991925155115449 2 0 0 1 I I 0 1 2 forward I I I I #
face $-1 $89 $90 $31 $-1 $91 forward single #
loop $-1 $92 $93 $40 #
cone-surface $-1 -33.652933591994156 -32.149869326425588 6.5960918438557146 0 0.84804810408105047 -0.52991925155115449 2 0 0 1 I I 0 1 2 forward I I I I #
face $-1 $94 $95 $32 $-1 $96 forward single #
loop $-1 $97 $98 $41 #
cone-surface $-1 -22.986533868128404 -32.149869326425588 6.5960918438557146 0 0.84804810408105047 -0.52991925155115449 2 0 0 1 I I 0 1 2 forward I I I I #
face $-1 $99 $100 $33 $-1 $101 reversed single #
loop $-1 $-1 $102 $42 #
plane-surface $-1 -43.065844933582262 -17.574837486357055 52.397923516274744 0 0.66913061440640931 0.74314481823134659 1 0 0 forward_v I I I I #
face $-1 $103 $104 $34 $-1 $105 forward single #
loop $-1 $106 $107 $43 #
cone-surface $-1 -51.305731900909443 30.433574104919959 6.3927509165722096 0 -0.66913061440640931 -0.74314481823134659 2 0 0 1 I I 0 1 2 forward I I I I #
face $-1 $108 $109 $35 $-1 $110 forward single #
loop $-1 $111 $112 $44 #
cone-surface $-1 -34.825957966255082 30.433574104919959 6.3927509165722096 0 -0.66913061440640931 -0.74314481823134659 2 0 0 1 I I 0 1 2 forward I I I I #
face $-1 $113 $114 $27 $-1 $115 reversed single #
loop $-1 $-1 $116 $45 #
plane-surface $-1 0 0 -11.821852353447149 0 0 1 1 0 0 forward_v I I I I #
coedge $-1 $117 $118 $119 $120 forward $46 $-1 #
face $-1 $121 $122 $28 $-1 $123 reversed single #
loop $-1 $-1 $124 $48 #
plane-surface $-1 -66.612904531108214 0 4.2151449302284778 0 0 1 1 0 0 forward_v I I I I #
coedge $-1 $125 $126 $127 $128 forward $49 $-1 #
face $-1 $129 $130 $29 $-1 $131 reversed single #
loop $-1 $-1 $132 $51 #
plane-surface $-1 -33.652933591994156 -36.140678658500221 2.857604934217008 0 -0.84804810408105047 0.52991925155115449 1 0 0 forward_v I I I I #
coedge $-1 $133 $134 $135 $136 reversed $52 $-1 #
face $-1 $-1 $137 $30 $-1 $138 forward single #
loop $-1 $139 $140 $54 #
cone-surface $-1 -44.319333315859907 -30.111753534675394 5.3225357923282068 0 0.84804810408105047 -0.52991925155115449 1 0 0 1 I I -0.70710678118654746 0.70710678118654746 1 forward I I I I #
loop $-1 $-1 $141 $39 #
coedge $-1 $88 $88 $142 $143 reversed $55 $-1 #
face $-1 $-1 $144 $31 $-1 $145 forward single #
loop $-1 $146 $147 $57 #
cone-surface $-1 -33.652933591994156 -30.111753534675394 5.3225357923282068 0 0.84804810408105047 -0.52991925155115449 1 0 0 1 I I -0.70710678118654746 0.70710678118654746 1 forward I I I I #
loop $-1 $-1 $148 $40 #
coedge $-1 $93 $93 $149 $150 reversed $58 $-1 #
face $-1 $-1 $151 $32 $-1 $152 forward single #
loop $-1 $153 $154 $60 #
cone-surface $-1 -22.986533868128404 -30.111753534675394 5.3225357923282068 0 0.84804810408105047 -0.52991925155115449 1 0 0 1 I I -0.70710678118654746 0.70710678118654746 1 forward I I I I #
loop $-1 $-1 $155 $41 #
coedge $-1 $98 $98 $156 $157 reversed $61 $-1 #
face $-1 $158 $159 $33 $-1 $160 forward single #
loop $-1 $-1 $161 $63 #
plane-surface $-1 -23.839442009818839 77.352797295742562 157.8257404124663 -1 0 0 0 0.66913061440640931 0.74314481823134659 forward_v I I I I #
coedge $-1 $162 $163 $164 $165 reversed $64 $-1 #
face $-1 $-1 $166 $34 $-1 $167 forward single #
loop $-1 $168 $169 $66 #
cone-surface $-1 -51.305731900909443 28.382951282035265 4.1153035958789701 0 -0.66913061440640931 -0.74314481823134659 1 0 0 1 I I -0.70710678118654746 0.70710678118654746 1 forward I I I I #
loop $-1 $-1 $170 $43 #
coedge $-1 $107 $107 $171 $172 reversed $67 $-1 #
face $-1 $-1 $173 $35 $-1 $174 forward single #
loop $-1 $175 $176 $69 #
cone-surface $-1 -34.825957966255082 28.382951282035265 4.1153035958789701 0 -0.66913061440640931 -0.74314481823134659 1 0 0 1 I I -0.70710678118654746 0.70710678118654746 1 forward I I I I #
loop $-1 $-1 $177 $44 #
coedge $-1 $112 $112 $178 $179 reversed $70 $-1 #
face $-1 $180 $181 $27 $-1 $182 reversed single #
loop $-1 $-1 $183 $72 #
plane-surface $-1 0 -36.140678658500207 0 0 1 0 0 0 1 forward_v I I I I #
coedge $-1 $184 $185 $186 $187 forward $73 $-1 #
coedge $-1 $188 $75 $189 $190 forward $46 $-1 #
coedge $-1 $75 $188 $191 $192 forward $46 $-1 #
coedge $-1 $193 $194 $75 $120 reversed $195 $-1 #
edge $-1 $196 -36.140678658500207 $197 36.140678658500207 $119 $198 forward 7 unknown #
face $-1 $199 $200 $28 $-1 $201 reversed single #
loop $-1 $-1 $127 $76 #
plane-surface $-1 -62.292247857345679 0 6.1248176708526145 -1 0 0 0 0 1 forward_v I I I I #
coedge $-1 $202 $203 $204 $205 forward $77 $-1 #
coedge $-1 $206 $79 $207 $208 reversed $49 $-1 #
coedge $-1 $79 $206 $209 $210 reversed $49 $-1 #
coedge $-1 $211 $212 $79 $128 reversed $122 $-1 #
edge $-1 $213 -36.140678658500207 $214 36.140678658500207 $127 $215 forward 7 unknown #
face $-1 $216 $217 $29 $-1 $218 forward single #
loop $-1 $-1 $219 $80 #
plane-surface $-1 -15.875600718884563 -156.45082284951582 78.035724261303244 -1 0 0 0 -0.84804810408105047 0.52991925155115449 forward_v I I I I #
coedge $-1 $220 $221 $222 $223 reversed $81 $-1 #
coedge $-1 $134 $83 $224 $225 reversed $52 $-1 #
coedge $-1 $83 $133 $220 $226 reversed $52 $-1 #
coedge $-1 $222 $227 $83 $136 forward $228 $-1 #
edge $-1 $229 27.196009777204473 $230 36.160257196434593 $135 $231 forward 7 unknown #
loop $-1 $-1 $142 $84 #
plane-surface $-1 -33.652933591994156 -36.140678658500221 2.857604934217008 0 -0.84804810408105047 0.52991925155115449 1 0 0 forward_v I I I I #
loop $-1 $-1 $232 $54 #
coedge $-1 $140 $140 $141 $233 reversed $85 $-1 #
coedge $-1 $141 $141 $140 $233 forward $87 $-1 #
coedge $-1 $142 $142 $88 $143 forward $137 $-1 #
edge $-1 $234 1.1286459714621616e-015 $234 6.2831853071796013 $142 $235 forward 7 unknown #
loop $-1 $-1 $149 $89 #
plane-surface $-1 -33.652933591994156 -36.140678658500221 2.857604934217008 0 -0.84804810408105047 0.52991925155115449 1 0 0 forward_v I I I I #
loop $-1 $-1 $236 $57 #
coedge $-1 $147 $147 $148 $237 reversed $90 $-1 #
coedge $-1 $148 $148 $147 $237 forward $92 $-1 #
coedge $-1 $149 $149 $93 $150 forward $144 $-1 #
edge $-1 $238 1.1286459714621616e-015 $238 6.2831853071796013 $149 $239 forward 7 unknown #
loop $-1 $-1 $156 $94 #
plane-surface $-1 -33.652933591994156 -36.140678658500221 2.857604934217008 0 -0.84804810408105047 0.52991925155115449 1 0 0 forward_v I I I I #
loop $-1 $-1 $240 $60 #
coedge $-1 $154 $154 $155 $241 reversed $95 $-1 #
coedge $-1 $155 $155 $154 $241 forward $97 $-1 #
coedge $-1 $156 $156 $98 $157 forward $151 $-1 #
edge $-1 $242 1.1286459714621616e-015 $242 6.2831853071796013 $156 $243 forward 7 unknown #
face $-1 $244 $245 $33 $-1 $246 forward single #
loop $-1 $-1 $247 $99 #
plane-surface $-1 -62.292247857345679 0 6.1248176708526145 -1 0 0 0 0 1 forward_v I I I I #
coedge $-1 $248 $249 $250 $251 reversed $100 $-1 #
coedge $-1 $252 $102 $247 $253 forward $64 $-1 #
coedge $-1 $102 $252 $248 $254 forward $64 $-1 #
coedge $-1 $250 $255 $102 $165 forward $245 $-1 #
edge $-1 $256 -40.759325390554551 $257 -2.3065195430277079 $164 $258 forward 7 unknown #
loop $-1 $-1 $171 $103 #
plane-surface $-1 -43.065844933582262 -17.574837486357055 52.397923516274744 0 0.66913061440640931 0.74314481823134659 1 0 0 forward_v I I I I #
loop $-1 $-1 $259 $66 #
coedge $-1 $169 $169 $170 $260 reversed $104 $-1 #
coedge $-1 $170 $170 $169 $260 forward $106 $-1 #
coedge $-1 $171 $171 $107 $172 forward $166 $-1 #
edge $-1 $261 1.4857684291911464e-015 $261 6.2831853071796022 $171 $262 forward 7 unknown #
loop $-1 $-1 $178 $108 #
plane-surface $-1 -43.065844933582262 -17.574837486357055 52.397923516274744 0 0.66913061440640931 0.74314481823134659 1 0 0 forward_v I I I I #
loop $-1 $-1 $263 $69 #
coedge $-1 $176 $176 $177 $264 reversed $109 $-1 #
coedge $-1 $177 $177 $176 $264 forward $111 $-1 #
coedge $-1 $178 $178 $112 $179 forward $173 $-1 #
edge $-1 $265 1.4857684291911464e-015 $265 6.2831853071796022 $178 $266 forward 7 unknown #
face $-1 $267 $268 $27 $-1 $269 reversed single #
loop $-1 $-1 $270 $113 #
plane-surface $-1 -70.933561204870756 0 0 1 0 0 0 0 -1 forward_v I I I I #
coedge $-1 $271 $191 $272 $273 forward $114 $-1 #
coedge $-1 $274 $116 $271 $275 forward $73 $-1 #
coedge $-1 $116 $274 $276 $277 forward $73 $-1 #
coedge $-1 $194 $193 $116 $187 reversed $195 $-1 #
edge $-1 $278 -36.140678658500207 $279 36.140678658500207 $186 $280 forward 7 unknown #
coedge $-1 $118 $117 $281 $282 forward $46 $-1 #
coedge $-1 $283 $284 $117 $190 reversed $268 $-1 #
edge $-1 $197 -70.933561204870756 $285 70.933561204870756 $189 $286 forward 7 unknown #
coedge $-1 $183 $287 $118 $192 reversed $114 $-1 #
edge $-1 $288 -70.933561204870756 $196 70.933561204870756 $191 $289 forward 7 unknown #
coedge $-1 $186 $119 $287 $290 forward $195 $-1 #
coedge $-1 $119 $186 $283 $291 reversed $195 $-1 #
loop $-1 $-1 $193 $267 #
vertex $-1 $120 $292 #
vertex $-1 $120 $293 #
straight-curve $-1 70.933561204870756 0 11.821852353447149 0 1 0 I I #
face $-1 $294 $295 $28 $-1 $296 reversed single #
loop $-1 $-1 $297 $121 #
plane-surface $-1 0 -36.140678658500207 0 0 1 0 0 0 1 forward_v I I I I #
coedge $-1 $298 $124 $297 $299 reversed $77 $-1 #
coedge $-1 $124 $298 $300 $301 reversed $77 $-1 #
coedge $-1 $212 $211 $124 $205 reversed $122 $-1 #
edge $-1 $302 -36.140678658500207 $303 36.140678658500207 $204 $304 forward 7 unknown #
coedge $-1 $126 $125 $305 $306 reversed $49 $-1 #
coedge $-1 $307 $308 $125 $208 forward $309 $-1 #
edge $-1 $310 -37.627108939316649 $214 -28.985795591791572 $207 $311 forward 7 unknown #
coedge $-1 $312 $313 $126 $210 forward $200 $-1 #
edge $-1 $213 28.985795591791572 $314 37.627108939316649 $209 $315 forward 7 unknown #
coedge $-1 $204 $127 $313 $316 reversed $122 $-1 #
coedge $-1 $127 $204 $307 $317 reversed $122 $-1 #
vertex $-1 $210 $318 #
vertex $-1 $208 $319 #
straight-curve $-1 -62.292247857345679 0 8.0344904114767512 0 1 0 I I #
face $-1 $-1 $228 $29 $-1 $320 reversed single #
loop $-1 $-1 $321 $129 #
plane-surface $-1 0 0 11.821852353447149 0 0 1 1 0 0 forward_v I I I I #
coedge $-1 $322 $323 $324 $325 reversed $130 $-1 #
coedge $-1 $326 $132 $134 $226 forward $81 $-1 #
coedge $-1 $132 $326 $322 $327 forward $81 $-1 #
coedge $-1 $324 $135 $132 $223 forward $228 $-1 #
edge $-1 $230 -34.603799669106671 $328 0.95086607711251503 $222 $329 forward 7 unknown #
coedge $-1 $330 $331 $133 $225 forward $217 $-1 #
edge $-1 $332 -47.686216055068627 $229 -42.084732766257702 $224 $333 forward 7 unknown #
edge $-1 $230 2.6737665129848107e-014 $332 10.570446860374563 $134 $334 forward 7 unknown #
coedge $-1 $135 $324 $330 $335 reversed $228 $-1 #
loop $-1 $-1 $324 $216 #
vertex $-1 $335 $336 #
vertex $-1 $136 $337 #
straight-curve $-1 -51.430266465103749 -36.140678658500207 39.017862130651622 0 0 -1 I I #
coedge $-1 $232 $232 $-1 $338 reversed $139 $-1 #
edge $-1 $339 0 $339 6.2831853071796004 $140 $340 forward 7 unknown #
vertex $-1 $143 $341 #
ellipse-curve $-1 -44.319333315859907 -33.339937014094751 7.3397286438320792 0 -0.84804810408105047 0.52991925155115449 2 0 0 1 I I #
coedge $-1 $236 $236 $-1 $342 reversed $146 $-1 #
edge $-1 $343 0 $343 6.2831853071796004 $147 $344 forward 7 unknown #
vertex $-1 $150 $345 #
ellipse-curve $-1 -33.652933591994156 -33.339937014094751 7.3397286438320792 0 -0.84804810408105047 0.52991925155115449 2 0 0 1 I I #
coedge $-1 $240 $240 $-1 $346 reversed $153 $-1 #
edge $-1 $347 0 $347 6.2831853071796004 $154 $348 forward 7 unknown #
vertex $-1 $157 $349 #
ellipse-curve $-1 -22.986533868128404 -33.339937014094751 7.3397286438320792 0 -0.84804810408105047 0.52991925155115449 2 0 0 1 I I #
face $-1 $-1 $350 $33 $-1 $351 reversed single #
loop $-1 $-1 $255 $158 #
plane-surface $-1 0 0 11.821852353447149 0 0 1 1 0 0 forward_v I I I I #
coedge $-1 $352 $353 $162 $253 reversed $159 $-1 #
coedge $-1 $249 $161 $163 $254 reversed $100 $-1 #
coedge $-1 $161 $248 $354 $355 reversed $100 $-1 #
coedge $-1 $356 $164 $161 $251 forward $245 $-1 #
edge $-1 $257 -11.186944679574985 $357 -2.5357199893710742 $250 $358 forward 7 unknown #
coedge $-1 $163 $162 $359 $360 reversed $64 $-1 #
edge $-1 $256 60.639986109173805 $361 72.281357317000385 $247 $362 forward 7 unknown #
edge $-1 $363 -72.281357317000385 $257 -60.639986109173805 $248 $364 forward 7 unknown #
coedge $-1 $164 $356 $352 $365 forward $245 $-1 #
vertex $-1 $365 $366 #
vertex $-1 $165 $367 #
straight-curve $-1 -21.532922466791131 27.489453968296296 11.821852353447149 1 0 0 I I #
coedge $-1 $259 $259 $-1 $368 reversed $168 $-1 #
edge $-1 $369 0 $369 6.2831853071796004 $169 $370 forward 7 unknown #
vertex $-1 $172 $371 #
ellipse-curve $-1 -51.305731900909443 31.815066313398248 7.927053419034106 0 0.66913061440640931 0.74314481823134659 2 0 0 1 I I #
coedge $-1 $263 $263 $-1 $372 reversed $175 $-1 #
edge $-1 $373 0 $373 6.2831853071796004 $176 $374 forward 7 unknown #
vertex $-1 $179 $375 #
ellipse-curve $-1 -34.825957966255082 31.815066313398248 7.927053419034106 0 0.66913061440640931 0.74314481823134659 2 0 0 1 I I #
face $-1 $-1 $195 $27 $-1 $376 reversed single #
loop $-1 $-1 $283 $180 #
plane-surface $-1 0 36.140678658500207 0 0 -1 0 0 0 -1 forward_v I I I I #
coedge $-1 $377 $281 $284 $378 forward $181 $-1 #
coedge $-1 $287 $183 $184 $275 reversed $114 $-1 #
coedge $-1 $281 $377 $183 $273 reversed $181 $-1 #
edge $-1 $288 -11.821852353447149 $379 11.821852353447149 $272 $380 forward 7 unknown #
coedge $-1 $185 $184 $377 $381 forward $73 $-1 #
edge $-1 $279 -70.933561204870756 $379 70.933561204870756 $271 $382 forward 7 unknown #
coedge $-1 $284 $283 $185 $277 reversed $268 $-1 #
edge $-1 $383 -70.933561204870756 $278 70.933561204870756 $276 $384 forward 7 unknown #
vertex $-1 $187 $385 #
vertex $-1 $290 $386 #
straight-curve $-1 70.933561204870756 0 -11.821852353447149 0 -1 0 I I #
coedge $-1 $270 $272 $188 $282 reversed $181 $-1 #
edge $-1 $285 -36.140678658500207 $288 36.140678658500207 $281 $387 forward 7 unknown #
coedge $-1 $276 $189 $194 $291 forward $268 $-1 #
coedge $-1 $189 $276 $270 $378 reversed $268 $-1 #
vertex $-1 $190 $388 #
straight-curve $-1 0 36.140678658500207 11.821852353447149 -1 0 0 I I #
coedge $-1 $191 $271 $193 $290 reversed $114 $-1 #
vertex $-1 $282 $389 #
straight-curve $-1 0 -36.140678658500207 11.821852353447149 1 0 0 I I #
edge $-1 $196 -11.821852353447149 $279 11.821852353447149 $193 $390 forward 7 unknown #
edge $-1 $197 -11.821852353447149 $278 11.821852353447149 $194 $391 forward 7 unknown #
point $-1 70.933561204870756 -36.140678658500207 11.821852353447149 #
point $-1 70.933561204870756 36.140678658500207 11.821852353447149 #
face $-1 $-1 $309 $28 $-1 $392 reversed single #
loop $-1 $-1 $393 $199 #
plane-surface $-1 -70.933561204870756 0 0 1 0 0 0 0 -1 forward_v I I I I #
coedge $-1 $313 $312 $202 $299 forward $200 $-1 #
coedge $-1 $203 $202 $393 $394 reversed $77 $-1 #
edge $-1 $395 -37.627108939316649 $303 -28.985795591791572 $297 $396 forward 7 unknown #
coedge $-1 $308 $307 $203 $301 forward $309 $-1 #
edge $-1 $302 28.985795591791572 $397 37.627108939316649 $300 $398 forward 7 unknown #
vertex $-1 $301 $399 #
vertex $-1 $299 $400 #
straight-curve $-1 -62.292247857345679 0 4.2151449302284778 0 -1 0 I I #
coedge $-1 $401 $402 $206 $306 forward $295 $-1 #
edge $-1 $314 -36.140678658500207 $310 36.140678658500207 $305 $403 forward 7 unknown #
coedge $-1 $300 $207 $212 $317 forward $309 $-1 #
coedge $-1 $207 $300 $401 $404 reversed $309 $-1 #
loop $-1 $-1 $300 $294 #
vertex $-1 $404 $405 #
straight-curve $-1 -33.306452265554107 36.140678658500207 8.0344904114767512 1 0 0 I I #
coedge $-1 $297 $209 $402 $406 forward $200 $-1 #
coedge $-1 $209 $297 $211 $316 forward $200 $-1 #
vertex $-1 $406 $407 #
straight-curve $-1 -33.306452265554107 -36.140678658500207 8.0344904114767512 -1 0 0 I I #
edge $-1 $303 1.1527360948021705 $213 4.972081576050444 $313 $408 forward 7 unknown #
edge $-1 $214 -4.972081576050444 $302 -1.1527360948021705 $307 $409 forward 7 unknown #
point $-1 -62.292247857345679 -36.140678658500207 8.0344904114767512 #
point $-1 -62.292247857345679 36.140678658500207 8.0344904114767512 #
plane-surface $-1 0 -36.140678658500207 0 0 1 0 0 0 1 forward_v I I I I #
coedge $-1 $331 $330 $323 $410 forward $217 $-1 #
coedge $-1 $323 $219 $221 $327 reversed $130 $-1 #
coedge $-1 $219 $322 $321 $410 reversed $130 $-1 #
coedge $-1 $227 $222 $219 $325 forward $228 $-1 #
edge $-1 $328 -36.160257196434593 $411 -27.196009777204473 $324 $412 forward 7 unknown #
coedge $-1 $221 $220 $331 $413 reversed $81 $-1 #
edge $-1 $414 -10.570446860374563 $328 -2.6737665129848107e-014 $322 $415 forward 7 unknown #
vertex $-1 $223 $416 #
straight-curve $-1 -16.826466795997078 -36.140678658500207 2.857604934217036 1 0 0 I I #
coedge $-1 $321 $224 $227 $335 forward $217 $-1 #
coedge $-1 $224 $321 $326 $413 forward $217 $-1 #
vertex $-1 $225 $417 #
straight-curve $-1 -51.430266465103749 -78.225411424757908 11.821852353447149 0 -1 0 I I #
straight-curve $-1 -51.430266465103749 -36.140678658500221 2.857604934217008 0 0.52991925155115449 0.84804810408105047 I I #
edge $-1 $229 -51.430266465103749 $411 -15.875600718884563 $227 $418 forward 7 unknown #
point $-1 -51.430266465103749 -36.140678658500207 11.821852353447149 #
point $-1 -51.430266465103749 -36.140678658500207 2.8576049342170307 #
edge $-1 $419 1 $419 0 $232 $-1 forward 7 unknown #
vertex $-1 $233 $420 #
ellipse-curve $-1 -44.319333315859907 -30.959801638756446 5.8524550438793614 0 -0.84804810408105047 0.52991925155115449 2 0 0 1 I I #
point $-1 -42.319333315859907 -33.33993701409473 7.3397286438320686 #
edge $-1 $421 1 $421 0 $236 $-1 forward 7 unknown #
vertex $-1 $237 $422 #
ellipse-curve $-1 -33.652933591994156 -30.959801638756446 5.8524550438793614 0 -0.84804810408105047 0.52991925155115449 2 0 0 1 I I #
point $-1 -31.652933591994156 -33.33993701409473 7.3397286438320686 #
edge $-1 $423 1 $423 0 $240 $-1 forward 7 unknown #
vertex $-1 $241 $424 #
ellipse-curve $-1 -22.986533868128404 -30.959801638756446 5.8524550438793614 0 -0.84804810408105047 0.52991925155115449 2 0 0 1 I I #
point $-1 -20.986533868128404 -33.33993701409473 7.3397286438320686 #
loop $-1 $-1 $425 $244 #
plane-surface $-1 0 36.140678658500207 0 0 -1 0 0 0 -1 forward_v I I I I #
coedge $-1 $353 $247 $255 $365 reversed $159 $-1 #
coedge $-1 $247 $352 $425 $426 reversed $159 $-1 #
coedge $-1 $359 $427 $249 $355 forward $350 $-1 #
edge $-1 $357 67.091017852785996 $363 74.880615721612088 $354 $428 forward 7 unknown #
coedge $-1 $255 $250 $427 $429 forward $245 $-1 #
vertex $-1 $429 $430 #
straight-curve $-1 -23.839442009818839 38.676398647871281 11.821852353447142 0 1 0 I I #
coedge $-1 $425 $354 $252 $360 forward $350 $-1 #
edge $-1 $363 2.3065195430277079 $361 40.759325390554551 $359 $431 forward 7 unknown #
vertex $-1 $426 $432 #
straight-curve $-1 -62.292247857345686 -17.574837486357055 52.397923516274744 0 0.74314481823134659 -0.66913061440640931 I I #
vertex $-1 $360 $433 #
straight-curve $-1 -23.839442009818839 -17.574837486357055 52.397923516274744 0 -0.74314481823134659 0.66913061440640931 I I #
edge $-1 $434 2.5357199893710742 $256 11.186944679574985 $255 $435 forward 7 unknown #
point $-1 -62.292247857345686 27.489453968296296 11.821852353447149 #
point $-1 -23.839442009818839 27.489453968296296 11.821852353447149 #
edge $-1 $436 1 $436 0 $259 $-1 forward 7 unknown #
vertex $-1 $260 $437 #
ellipse-curve $-1 -51.305731900909443 29.052081896441674 4.8584484141103168 0 0.66913061440640931 0.74314481823134659 2 0 0 1 I I #
point $-1 -49.305731900909443 31.815066313398248 7.9270534190341015 #
edge $-1 $438 1 $438 0 $263 $-1 forward 7 unknown #
vertex $-1 $264 $439 #
ellipse-curve $-1 -34.825957966255082 29.052081896441674 4.8584484141103168 0 0.66913061440640931 0.74314481823134659 2 0 0 1 I I #
point $-1 -32.825957966255082 31.815066313398248 7.9270534190341015 #
plane-surface $-1 70.933561204870756 0 0 -1 0 0 0 0 1 forward_v I I I I #
coedge $-1 $272 $270 $274 $381 reversed $181 $-1 #
edge $-1 $285 -11.821852353447149 $383 11.821852353447149 $284 $440 forward 7 unknown #
vertex $-1 $381 $441 #
straight-curve $-1 -70.933561204870756 -36.140678658500207 0 0 0 -1 I I #
edge $-1 $379 -36.140678658500207 $383 36.140678658500207 $377 $442 forward 7 unknown #
straight-curve $-1 0 -36.140678658500207 -11.821852353447149 -1 0 0 I I #
vertex $-1 $277 $443 #
straight-curve $-1 0 36.140678658500207 -11.821852353447149 1 0 0 I I #
point $-1 70.933561204870756 36.140678658500207 -11.821852353447149 #
point $-1 70.933561204870756 -36.140678658500207 -11.821852353447149 #
straight-curve $-1 -70.933561204870756 0 11.821852353447149 0 -1 0 I I #
point $-1 -70.933561204870756 36.140678658500207 11.821852353447149 #
point $-1 -70.933561204870756 -36.140678658500207 11.821852353447149 #
straight-curve $-1 70.933561204870756 -36.140678658500207 0 0 0 -1 I I #
straight-curve $-1 70.933561204870756 36.140678658500207 0 0 0 -1 I I #
plane-surface $-1 0 36.140678658500207 0 0 -1 0 0 0 -1 forward_v I I I I #
coedge $-1 $402 $401 $298 $394 forward $295 $-1 #
edge $-1 $397 -36.140678658500207 $395 36.140678658500207 $393 $444 forward 7 unknown #
vertex $-1 $299 $445 #
straight-curve $-1 -33.306452265554107 -36.140678658500207 4.2151449302284778 1 0 0 I I #
vertex $-1 $301 $446 #
straight-curve $-1 -33.306452265554107 36.140678658500207 4.2151449302284778 -1 0 0 I I #
point $-1 -62.292247857345679 36.140678658500207 4.2151449302284778 #
point $-1 -62.292247857345679 -36.140678658500207 4.2151449302284778 #
coedge $-1 $393 $305 $308 $404 forward $295 $-1 #
coedge $-1 $305 $393 $312 $406 reversed $295 $-1 #
straight-curve $-1 -70.933561204870756 0 8.0344904114767512 0 1 0 I I #
edge $-1 $310 -8.0344904114767512 $397 -4.2151449302284778 $308 $447 forward 7 unknown #
point $-1 -70.933561204870756 36.140678658500207 8.0344904114767512 #
edge $-1 $314 -8.0344904114767512 $395 -4.2151449302284778 $402 $448 forward 7 unknown #
point $-1 -70.933561204870756 -36.140678658500207 8.0344904114767512 #
straight-curve $-1 -62.292247857345679 -36.140678658500207 3.0624088354263073 0 0 1 I I #
straight-curve $-1 -62.292247857345679 36.140678658500207 3.0624088354263073 0 0 -1 I I #
edge $-1 $411 42.084732766257702 $414 47.686216055068627 $321 $449 forward 7 unknown #
vertex $-1 $410 $450 #
straight-curve $-1 -15.875600718884563 -36.140678658500207 39.017862130651622 0 0 1 I I #
edge $-1 $414 -0.95086607711251503 $332 34.603799669106671 $331 $451 forward 7 unknown #
vertex $-1 $413 $452 #
straight-curve $-1 -15.875600718884563 -36.140678658500221 2.857604934217008 0 -0.52991925155115449 -0.84804810408105047 I I #
point $-1 -15.875600718884563 -36.140678658500207 2.8576049342170307 #
point $-1 -51.430266465103749 -30.539195369689281 11.821852353447149 #
straight-curve $-1 0 -36.140678658500207 11.821852353447149 1 0 0 I I #
vertex $-1 $338 $453 #
point $-1 -42.319333315859907 -30.959801638756446 5.8524550438793614 #
vertex $-1 $342 $454 #
point $-1 -31.652933591994156 -30.959801638756446 5.8524550438793614 #
vertex $-1 $346 $455 #
point $-1 -20.986533868128404 -30.959801638756446 5.8524550438793614 #
coedge $-1 $427 $359 $353 $426 forward $350 $-1 #
edge $-1 $361 -74.880615721612088 $434 -67.091017852785996 $425 $456 forward 7 unknown #
coedge $-1 $354 $425 $356 $429 reversed $350 $-1 #
straight-curve $-1 -23.839442009818839 36.140678658500207 78.912870206233151 0 0 -1 I I #
edge $-1 $357 23.839442009818839 $434 62.292247857345686 $427 $457 forward 7 unknown #
point $-1 -23.839442009818839 36.140678658500207 11.821852353447149 #
straight-curve $-1 -21.532922466791131 36.140678658500207 4.0322544846210704 -1 0 0 I I #
point $-1 -62.292247857345686 36.140678658500214 4.0322544846210704 #
point $-1 -23.839442009818839 36.140678658500214 4.0322544846210704 #
vertex $-1 $426 $458 #
straight-curve $-1 -62.292247857345686 38.676398647871281 11.821852353447142 0 -1 0 I I #
vertex $-1 $368 $459 #
point $-1 -49.305731900909443 29.052081896441674 4.8584484141103168 #
vertex $-1 $372 $460 #
point $-1 -32.825957966255082 29.052081896441674 4.8584484141103168 #
straight-curve $-1 -70.933561204870756 36.140678658500207 0 0 0 -1 I I #
point $-1 -70.933561204870756 -36.140678658500207 -11.821852353447149 #
straight-curve $-1 -70.933561204870756 0 -11.821852353447149 0 1 0 I I #
point $-1 -70.933561204870756 36.140678658500207 -11.821852353447149 #
straight-curve $-1 -70.933561204870756 0 4.2151449302284778 0 -1 0 I I #
point $-1 -70.933561204870756 -36.140678658500207 4.2151449302284778 #
point $-1 -70.933561204870756 36.140678658500207 4.2151449302284778 #
straight-curve $-1 -70.933561204870756 36.140678658500207 0 0 0 -1 I I #
straight-curve $-1 -70.933561204870756 -36.140678658500207 0 0 0 -1 I I #
straight-curve $-1 -15.875600718884563 -78.225411424757908 11.821852353447149 0 1 0 I I #
point $-1 -15.875600718884563 -36.140678658500207 11.821852353447149 #
straight-curve $-1 -16.826466795997078 -30.539195369689281 11.821852353447149 -1 0 0 I I #
point $-1 -15.875600718884563 -30.539195369689281 11.821852353447149 #
point $-1 -44.319333315859907 -29.263705430594342 4.7926165407770522 #
point $-1 -33.652933591994156 -29.263705430594342 4.7926165407770522 #
point $-1 -22.986533868128404 -29.263705430594342 4.7926165407770522 #
straight-curve $-1 -62.292247857345686 36.140678658500207 78.912870206233151 0 0 1 I I #
straight-curve $-1 0 36.140678658500207 11.821852353447149 -1 0 0 I I #
point $-1 -62.292247857345686 36.140678658500207 11.821852353447149 #
point $-1 -51.305731900909443 27.713820667628855 3.3721587776476234 #
point $-1 -34.825957966255082 27.713820667628855 3.3721587776476234 #
End-of-ACIS-data 