500 0 8 0           
7 Unknown 11 ACIS 5.0 NT 24 Thu Mar 25 15:24:09 1999 
-1 9.9999999999999995e-007 1e-010 
body $-1 $8 $-1 $9 #
body $-1 $10 $-1 $11 #
body $-1 $12 $-1 $13 #
body $-1 $14 $-1 $15 #
body $-1 $16 $-1 $17 #
body $-1 $18 $-1 $19 #
body $-1 $20 $-1 $21 #
body $-1 $22 $-1 $23 #
lump $-1 $-1 $24 $0 #
transform $-1 1 0 0 0 1 0 0 0 1 63.878902554399247 44.520477847676489 20.868252182453787 1 rotate no_reflect no_shear #
lump $-1 $-1 $25 $1 #
transform $-1 1 0 0 0 1 0 0 0 1 63.878902554399247 44.520477847676489 20.868252182453787 1 rotate no_reflect no_shear #
lump $-1 $-1 $26 $2 #
transform $-1 1 0 0 0 1 0 0 0 1 63.878902554399247 44.520477847676489 20.868252182453787 1 rotate no_reflect no_shear #
lump $-1 $-1 $27 $3 #
transform $-1 1 0 0 0 1 0 0 0 1 63.878902554399247 44.520477847676489 20.868252182453787 1 rotate no_reflect no_shear #
lump $-1 $-1 $28 $4 #
transform $-1 1 0 0 0 1 0 0 0 1 63.878902554399247 44.520477847676489 20.868252182453787 1 rotate no_reflect no_shear #
lump $-1 $-1 $29 $5 #
transform $-1 1 0 0 0 1 0 0 0 1 63.878902554399247 44.520477847676489 20.868252182453787 1 rotate no_reflect no_shear #
lump $-1 $-1 $30 $6 #
transform $-1 1 0 0 0 1 0 0 0 1 63.878902554399247 44.520477847676489 20.868252182453787 1 rotate no_reflect no_shear #
lump $-1 $-1 $31 $7 #
transform $-1 1 0 0 0 1 0 0 0 1 63.878902554399247 44.520477847676489 20.868252182453787 1 rotate no_reflect no_shear #
shell $-1 $-1 $-1 $32 $-1 $8 #
shell $-1 $-1 $-1 $33 $-1 $10 #
shell $-1 $-1 $-1 $34 $-1 $12 #
shell $-1 $-1 $-1 $35 $-1 $14 #
shell $-1 $-1 $-1 $36 $-1 $16 #
shell $-1 $-1 $-1 $37 $-1 $18 #
shell $-1 $-1 $-1 $38 $-1 $20 #
shell $-1 $-1 $-1 $39 $-1 $22 #
face $-1 $40 $41 $24 $-1 $42 forward single #
face $-1 $43 $44 $25 $-1 $45 forward single #
face $-1 $46 $47 $26 $-1 $48 reversed single #
face $-1 $49 $50 $27 $-1 $51 forward single #
face $-1 $52 $53 $28 $-1 $54 reversed single #
face $-1 $55 $56 $29 $-1 $57 forward single #
face $-1 $58 $59 $30 $-1 $60 reversed single #
face $-1 $61 $62 $31 $-1 $63 forward single #
face $-1 $64 $65 $24 $-1 $66 reversed single #
loop $-1 $-1 $67 $32 #
plane-surface $-1 0 0 20.868252182453787 0 0 1 1 0 0 forward_v I I I I #
face $-1 $68 $69 $25 $-1 $70 reversed single #
loop $-1 $-1 $71 $33 #
plane-surface $-1 0 -36.176240309543985 7.6929136276640779 0 0 1 1 0 0 forward_v I I I I #
face $-1 $72 $73 $26 $-1 $74 reversed single #
loop $-1 $-1 $75 $34 #
plane-surface $-1 67.032150005341009 -2.59265237410861 192.9651837774353 0 1 0 0.71933980857756763 0 0.69465836192734942 forward_v I I I I #
face $-1 $76 $77 $27 $-1 $78 forward single #
loop $-1 $79 $80 $35 #
cone-surface $-1 59.057402726946378 2.8757925820119468 15.923775694874847 -0.71933980857756763 0 -0.69465836192734942 1.0419875428910241 0 -1.0790097128663514 1 I I 0 1 1.5 forward I I I I #
face $-1 $81 $82 $28 $-1 $83 reversed single #
loop $-1 $-1 $84 $36 #
plane-surface $-1 67.032150005341009 33.583587935435382 192.9651837774353 0 1 0 0.71933980857756763 0 0.69465836192734942 forward_v I I I I #
face $-1 $85 $86 $29 $-1 $87 forward single #
loop $-1 $88 $89 $37 #
cone-surface $-1 59.057402726946378 39.052032891555939 15.923775694874847 -0.71933980857756763 0 -0.69465836192734942 1.0419875428910241 0 -1.0790097128663514 1 I I 0 1 1.5 forward I I I I #
face $-1 $90 $91 $30 $-1 $92 reversed single #
loop $-1 $-1 $93 $38 #
plane-surface $-1 -147.69556513931292 32.77189410091966 111.98434577075638 0 1 0 -0.6560590369687036 0 0.75470957328743171 forward_v I I I I #
face $-1 $94 $95 $31 $-1 $96 forward single #
loop $-1 $97 $98 $39 #
cone-surface $-1 -58.439799618396798 38.646185974298078 15.468788587856432 0.6560590369687036 0 -0.75470957328743171 1.5094191465748634 0 1.3121180739374072 1 I I 0 1 2 forward I I I I #
face $-1 $99 $100 $24 $-1 $101 reversed single #
loop $-1 $-1 $102 $40 #
plane-surface $-1 0 0 -20.868252182453787 0 0 1 1 0 0 forward_v I I I I #
coedge $-1 $103 $104 $105 $106 forward $41 $-1 #
face $-1 $107 $108 $25 $-1 $109 reversed single #
loop $-1 $-1 $110 $43 #
plane-surface $-1 0 -36.176240309543985 -3.1515464850220614 0 0 1 1 0 0 forward_v I I I I #
coedge $-1 $111 $112 $113 $114 reversed $44 $-1 #
face $-1 $115 $116 $26 $-1 $117 reversed single #
loop $-1 $-1 $118 $46 #
plane-surface $-1 -24.869125065912286 2.8757925820119468 104.21715615712378 0.71933980857756763 0 0.69465836192734942 0.69465836192734942 0 -0.71933980857756763 forward_v I I I I #
coedge $-1 $119 $120 $121 $122 reversed $47 $-1 #
face $-1 $-1 $123 $27 $-1 $124 forward single #
loop $-1 $125 $126 $49 #
cone-surface $-1 57.82586232802403 2.8757925820119468 14.734490984142056 -0.71933980857756763 0 -0.69465836192734942 0.52099377144551207 0 -0.53950485643317569 1 I I -0.70710678118654757 0.70710678118654757 0.75 forward I I I I #
loop $-1 $-1 $127 $35 #
coedge $-1 $80 $80 $128 $129 reversed $50 $-1 #
face $-1 $130 $131 $28 $-1 $132 reversed single #
loop $-1 $-1 $133 $52 #
plane-surface $-1 -24.869125065912286 39.052032891555939 104.21715615712378 0.71933980857756763 0 0.69465836192734942 0.69465836192734942 0 -0.71933980857756763 forward_v I I I I #
coedge $-1 $134 $135 $136 $137 reversed $53 $-1 #
face $-1 $-1 $138 $29 $-1 $139 forward single #
loop $-1 $140 $141 $55 #
cone-surface $-1 57.82586232802403 39.052032891555939 14.734490984142056 -0.71933980857756763 0 -0.69465836192734942 0.52099377144551207 0 -0.53950485643317569 1 I I -0.70710678118654757 0.70710678118654757 0.75 forward I I I I #
loop $-1 $-1 $142 $37 #
coedge $-1 $89 $89 $143 $144 reversed $56 $-1 #
face $-1 $145 $146 $30 $-1 $147 reversed single #
loop $-1 $-1 $148 $58 #
plane-surface $-1 -63.878902554399261 38.646185974298078 15.564307192956207 -0.6560590369687036 0 0.75470957328743171 0.75470957328743171 0 0.6560590369687036 forward_v I I I I #
coedge $-1 $149 $150 $151 $152 reversed $59 $-1 #
face $-1 $-1 $153 $31 $-1 $154 forward single #
loop $-1 $155 $156 $61 #
cone-surface $-1 -55.395382955069692 38.646185974298078 11.966587914720435 0.6560590369687036 0 -0.75470957328743171 0.75470957328743171 0 0.6560590369687036 1 I I -0.70710678118654746 0.70710678118654746 1 forward I I I I #
loop $-1 $-1 $157 $39 #
coedge $-1 $98 $98 $158 $159 reversed $62 $-1 #
face $-1 $160 $161 $24 $-1 $162 reversed single #
loop $-1 $-1 $163 $64 #
plane-surface $-1 0 -44.520477847676489 0 0 1 0 0 0 1 forward_v I I I I #
coedge $-1 $164 $165 $166 $167 forward $65 $-1 #
coedge $-1 $168 $67 $169 $170 forward $41 $-1 #
coedge $-1 $67 $168 $171 $172 forward $41 $-1 #
coedge $-1 $173 $174 $67 $106 reversed $175 $-1 #
edge $-1 $176 -44.520477847676489 $177 44.520477847676489 $105 $178 forward 7 unknown #
face $-1 $179 $180 $25 $-1 $181 reversed single #
loop $-1 $-1 $182 $68 #
plane-surface $-1 0 -27.832002771411481 2.2706835713210083 0 -1 0 0 0 -1 forward_v I I I I #
coedge $-1 $183 $184 $185 $186 reversed $69 $-1 #
coedge $-1 $187 $71 $188 $189 forward $44 $-1 #
coedge $-1 $71 $187 $190 $191 reversed $44 $-1 #
coedge $-1 $192 $193 $71 $114 forward $194 $-1 #
edge $-1 $195 9.743882616639489 $196 26.432357692904496 $113 $197 forward 7 unknown #
face $-1 $198 $199 $26 $-1 $200 forward single #
loop $-1 $-1 $201 $72 #
plane-surface $-1 67.032150005341009 8.3442375381325036 192.9651837774353 0 -1 0 -0.71933980857756763 0 -0.69465836192734942 forward_v I I I I #
coedge $-1 $202 $203 $204 $205 reversed $73 $-1 #
coedge $-1 $120 $75 $206 $207 reversed $47 $-1 #
coedge $-1 $75 $119 $202 $208 reversed $47 $-1 #
coedge $-1 $204 $209 $75 $122 forward $210 $-1 #
edge $-1 $211 75.614339706263863 $212 84.166710802847192 $121 $213 forward 7 unknown #
loop $-1 $-1 $128 $76 #
plane-surface $-1 -24.869125065912286 2.8757925820119468 104.21715615712378 0.71933980857756763 0 0.69465836192734942 0.69465836192734942 0 -0.71933980857756763 forward_v I I I I #
loop $-1 $-1 $214 $49 #
coedge $-1 $126 $126 $127 $215 reversed $77 $-1 #
coedge $-1 $127 $127 $126 $215 forward $79 $-1 #
coedge $-1 $128 $128 $80 $129 forward $123 $-1 #
edge $-1 $216 0 $216 6.2831853071796004 $128 $217 forward 7 unknown #
face $-1 $218 $219 $28 $-1 $220 forward single #
loop $-1 $-1 $136 $81 #
plane-surface $-1 63.878902554399247 0 0 -1 0 0 0 0 1 forward_v I I I I #
coedge $-1 $221 $222 $223 $224 reversed $82 $-1 #
coedge $-1 $135 $84 $225 $226 reversed $53 $-1 #
coedge $-1 $84 $134 $221 $227 reversed $53 $-1 #
coedge $-1 $223 $228 $84 $137 forward $131 $-1 #
edge $-1 $229 75.614339706263863 $230 84.166710802847192 $136 $231 forward 7 unknown #
loop $-1 $-1 $143 $85 #
plane-surface $-1 -24.869125065912286 39.052032891555939 104.21715615712378 0.71933980857756763 0 0.69465836192734942 0.69465836192734942 0 -0.71933980857756763 forward_v I I I I #
loop $-1 $-1 $232 $55 #
coedge $-1 $141 $141 $142 $233 reversed $86 $-1 #
coedge $-1 $142 $142 $141 $233 forward $88 $-1 #
coedge $-1 $143 $143 $89 $144 forward $138 $-1 #
edge $-1 $234 0 $234 6.2831853071796004 $143 $235 forward 7 unknown #
face $-1 $236 $237 $30 $-1 $238 forward single #
loop $-1 $-1 $239 $90 #
plane-surface $-1 0 44.520477847676489 0 0 -1 0 0 0 -1 forward_v I I I I #
coedge $-1 $240 $241 $242 $243 reversed $91 $-1 #
coedge $-1 $150 $93 $244 $245 reversed $59 $-1 #
coedge $-1 $93 $149 $240 $246 reversed $59 $-1 #
coedge $-1 $242 $247 $93 $152 forward $237 $-1 #
edge $-1 $248 9.9688800152572128 $249 16.070370634545299 $151 $250 forward 7 unknown #
loop $-1 $-1 $158 $94 #
plane-surface $-1 -63.878902554399261 38.646185974298078 15.564307192956207 -0.6560590369687036 0 0.75470957328743171 0.75470957328743171 0 0.6560590369687036 forward_v I I I I #
loop $-1 $-1 $251 $61 #
coedge $-1 $156 $156 $157 $252 reversed $95 $-1 #
coedge $-1 $157 $157 $156 $252 forward $97 $-1 #
coedge $-1 $158 $158 $98 $159 forward $153 $-1 #
edge $-1 $253 0 $253 6.2831853071796004 $158 $254 forward 7 unknown #
face $-1 $255 $256 $24 $-1 $257 reversed single #
loop $-1 $-1 $258 $99 #
plane-surface $-1 -63.878902554399247 0 0 1 0 0 0 0 -1 forward_v I I I I #
coedge $-1 $259 $171 $260 $261 forward $100 $-1 #
coedge $-1 $262 $102 $259 $263 forward $65 $-1 #
coedge $-1 $102 $262 $264 $265 forward $65 $-1 #
coedge $-1 $174 $173 $102 $167 reversed $175 $-1 #
edge $-1 $266 -44.520477847676489 $267 44.520477847676489 $166 $268 forward 7 unknown #
coedge $-1 $104 $103 $269 $270 forward $41 $-1 #
coedge $-1 $271 $272 $103 $170 reversed $256 $-1 #
edge $-1 $177 -63.878902554399247 $273 63.878902554399247 $169 $274 forward 7 unknown #
coedge $-1 $163 $275 $104 $172 reversed $100 $-1 #
edge $-1 $276 -63.878902554399247 $176 63.878902554399247 $171 $277 forward 7 unknown #
coedge $-1 $166 $105 $275 $278 forward $175 $-1 #
coedge $-1 $105 $166 $271 $279 reversed $175 $-1 #
loop $-1 $-1 $173 $255 #
vertex $-1 $106 $280 #
vertex $-1 $106 $281 #
straight-curve $-1 63.878902554399247 0 20.868252182453787 0 1 0 I I #
face $-1 $282 $283 $25 $-1 $284 reversed single #
loop $-1 $-1 $285 $107 #
plane-surface $-1 -63.878902554399247 0 0 1 0 0 0 0 -1 forward_v I I I I #
coedge $-1 $286 $188 $193 $287 reversed $108 $-1 #
coedge $-1 $288 $110 $289 $290 reversed $69 $-1 #
coedge $-1 $110 $288 $286 $291 forward $69 $-1 #
coedge $-1 $193 $192 $110 $186 forward $194 $-1 #
edge $-1 $292 -26.432357692904496 $293 -9.743882616639489 $185 $294 forward 7 unknown #
coedge $-1 $112 $111 $285 $295 reversed $44 $-1 #
coedge $-1 $182 $296 $111 $189 reversed $108 $-1 #
edge $-1 $195 -63.878902554399247 $297 63.878902554399247 $188 $298 forward 7 unknown #
coedge $-1 $299 $300 $112 $191 forward $283 $-1 #
edge $-1 $196 -63.878902554399247 $301 63.878902554399247 $190 $302 forward 7 unknown #
coedge $-1 $185 $113 $300 $303 forward $194 $-1 #
coedge $-1 $113 $185 $182 $287 forward $194 $-1 #
loop $-1 $-1 $113 $282 #
vertex $-1 $114 $304 #
vertex $-1 $303 $305 #
straight-curve $-1 63.878902554399247 -18.088120154771993 7.6929136276640779 0 -1 0 I I #
face $-1 $-1 $210 $26 $-1 $306 reversed single #
loop $-1 $-1 $307 $115 #
plane-surface $-1 0 0 20.868252182453787 0 0 1 1 0 0 forward_v I I I I #
coedge $-1 $308 $309 $310 $311 reversed $116 $-1 #
coedge $-1 $312 $118 $120 $208 forward $73 $-1 #
coedge $-1 $118 $312 $308 $313 forward $73 $-1 #
coedge $-1 $310 $121 $118 $205 forward $210 $-1 #
edge $-1 $212 -4.0305486651145834 $314 6.9063412471265302 $204 $315 forward 7 unknown #
coedge $-1 $316 $317 $119 $207 forward $199 $-1 #
edge $-1 $318 22.103898981801336 $211 30.362827551728742 $206 $319 forward 7 unknown #
edge $-1 $212 -127.75780510879852 $318 -115.86861032963719 $120 $320 forward 7 unknown #
coedge $-1 $121 $310 $316 $321 reversed $210 $-1 #
loop $-1 $-1 $310 $198 #
vertex $-1 $321 $322 #
vertex $-1 $122 $323 #
straight-curve $-1 63.878902554399247 -2.59265237410861 96.48259188871765 0 0 -1 I I #
coedge $-1 $214 $214 $-1 $324 reversed $125 $-1 #
edge $-1 $325 0 $325 6.2831853071796004 $126 $326 forward 7 unknown #
vertex $-1 $129 $327 #
ellipse-curve $-1 59.749438269435551 2.8757925820119468 16.592066634162123 0.71933980857756763 0 0.69465836192734942 1.0419875428910241 0 -1.0790097128663514 1 I I #
face $-1 $-1 $328 $28 $-1 $329 reversed single #
loop $-1 $-1 $225 $130 #
plane-surface $-1 0 0 20.868252182453787 0 0 1 1 0 0 forward_v I I I I #
coedge $-1 $330 $133 $135 $227 forward $82 $-1 #
coedge $-1 $133 $330 $331 $332 reversed $82 $-1 #
coedge $-1 $333 $136 $133 $224 forward $131 $-1 #
edge $-1 $230 14.057571489657413 $334 24.994461401898526 $223 $335 forward 7 unknown #
coedge $-1 $336 $337 $134 $226 forward $219 $-1 #
edge $-1 $338 22.103898981801336 $229 30.362827551728742 $225 $339 forward 7 unknown #
edge $-1 $230 -127.75780510879852 $338 -115.86861032963719 $135 $340 forward 7 unknown #
coedge $-1 $136 $333 $336 $341 reversed $131 $-1 #
vertex $-1 $341 $342 #
vertex $-1 $137 $343 #
straight-curve $-1 63.878902554399247 33.583587935435382 96.48259188871765 0 0 -1 I I #
coedge $-1 $232 $232 $-1 $344 reversed $140 $-1 #
edge $-1 $345 0 $345 6.2831853071796004 $141 $346 forward 7 unknown #
vertex $-1 $144 $347 #
ellipse-curve $-1 59.749438269435551 39.052032891555939 16.592066634162123 0.71933980857756763 0 0.69465836192734942 1.0419875428910241 0 -1.0790097128663514 1 I I #
face $-1 $-1 $348 $30 $-1 $349 reversed single #
loop $-1 $-1 $242 $145 #
plane-surface $-1 0 0 20.868252182453787 0 0 1 1 0 0 forward_v I I I I #
coedge $-1 $350 $351 $241 $352 forward $146 $-1 #
coedge $-1 $353 $148 $150 $246 forward $91 $-1 #
coedge $-1 $148 $353 $239 $352 reversed $91 $-1 #
coedge $-1 $354 $151 $148 $243 forward $237 $-1 #
edge $-1 $249 13.448801113770621 $355 25.197384860527457 $242 $356 forward 7 unknown #
coedge $-1 $357 $358 $149 $245 forward $348 $-1 #
edge $-1 $359 -40.427865692421967 $248 -35.123920702924401 $244 $360 forward 7 unknown #
edge $-1 $249 -8.0845544236449527 $359 -1.888283279974768e-014 $150 $361 forward 7 unknown #
coedge $-1 $151 $354 $357 $362 forward $237 $-1 #
vertex $-1 $245 $363 #
vertex $-1 $152 $364 #
straight-curve $-1 -73.847782569656459 32.77189410091966 20.868252182453787 1 0 0 I I #
coedge $-1 $251 $251 $-1 $365 reversed $155 $-1 #
edge $-1 $366 0 $366 6.2831853071796004 $156 $367 forward 7 unknown #
vertex $-1 $159 $368 #
ellipse-curve $-1 -60.828157244755204 38.646185974298078 18.216279687705001 -0.6560590369687036 0 0.75470957328743171 1.5094191465748634 0 1.3121180739374072 1 I I #
face $-1 $-1 $175 $24 $-1 $369 reversed single #
loop $-1 $-1 $271 $160 #
plane-surface $-1 0 44.520477847676489 0 0 -1 0 0 0 -1 forward_v I I I I #
coedge $-1 $370 $269 $272 $371 forward $161 $-1 #
coedge $-1 $275 $163 $164 $263 reversed $100 $-1 #
coedge $-1 $269 $370 $163 $261 reversed $161 $-1 #
edge $-1 $276 -20.868252182453787 $372 20.868252182453787 $260 $373 forward 7 unknown #
coedge $-1 $165 $164 $370 $374 forward $65 $-1 #
edge $-1 $267 -63.878902554399247 $372 63.878902554399247 $259 $375 forward 7 unknown #
coedge $-1 $272 $271 $165 $265 reversed $256 $-1 #
edge $-1 $376 -63.878902554399247 $266 63.878902554399247 $264 $377 forward 7 unknown #
vertex $-1 $167 $378 #
vertex $-1 $278 $379 #
straight-curve $-1 63.878902554399247 0 -20.868252182453787 0 -1 0 I I #
coedge $-1 $258 $260 $168 $270 reversed $161 $-1 #
edge $-1 $273 -44.520477847676489 $276 44.520477847676489 $269 $380 forward 7 unknown #
coedge $-1 $264 $169 $174 $279 forward $256 $-1 #
coedge $-1 $169 $264 $258 $371 reversed $256 $-1 #
vertex $-1 $170 $381 #
straight-curve $-1 0 44.520477847676489 20.868252182453787 -1 0 0 I I #
coedge $-1 $171 $259 $173 $278 reversed $100 $-1 #
vertex $-1 $270 $382 #
straight-curve $-1 0 -44.520477847676489 20.868252182453787 1 0 0 I I #
edge $-1 $176 -20.868252182453787 $267 20.868252182453787 $173 $383 forward 7 unknown #
edge $-1 $177 -20.868252182453787 $266 20.868252182453787 $174 $384 forward 7 unknown #
point $-1 63.878902554399247 -44.520477847676489 20.868252182453787 #
point $-1 63.878902554399247 44.520477847676489 20.868252182453787 #
face $-1 $-1 $194 $25 $-1 $385 reversed single #
loop $-1 $-1 $190 $179 #
plane-surface $-1 0 -44.520477847676489 0 0 1 0 0 0 1 forward_v I I I I #
coedge $-1 $386 $387 $187 $295 forward $180 $-1 #
coedge $-1 $296 $182 $184 $291 reversed $108 $-1 #
edge $-1 $293 -4.2868882706825655 $195 6.5575718420035738 $193 $388 forward 7 unknown #
coedge $-1 $184 $183 $389 $390 reversed $69 $-1 #
coedge $-1 $300 $299 $183 $290 forward $283 $-1 #
edge $-1 $391 -63.878902554399247 $292 63.878902554399247 $289 $392 forward 7 unknown #
edge $-1 $393 -63.878902554399247 $293 63.878902554399247 $286 $394 forward 7 unknown #
vertex $-1 $290 $395 #
vertex $-1 $186 $396 #
straight-curve $-1 63.878902554399247 -18.088120154771993 -3.1515464850220614 0 1 0 I I #
edge $-1 $301 -26.432357692904496 $297 -9.743882616639489 $285 $397 forward 7 unknown #
coedge $-1 $188 $286 $386 $398 reversed $108 $-1 #
vertex $-1 $295 $399 #
straight-curve $-1 0 -27.832002771411481 7.6929136276640779 -1 0 0 I I #
coedge $-1 $289 $190 $387 $400 forward $283 $-1 #
coedge $-1 $190 $289 $192 $303 reversed $283 $-1 #
vertex $-1 $400 $401 #
straight-curve $-1 0 -44.520477847676489 7.6929136276640779 -1 0 0 I I #
edge $-1 $196 -7.6929136276640779 $292 3.1515464850220614 $192 $402 forward 7 unknown #
point $-1 63.878902554399247 -27.832002771411481 7.6929136276640779 #
point $-1 63.878902554399247 -44.520477847676489 7.6929136276640779 #
plane-surface $-1 63.878902554399247 0 0 -1 0 0 0 0 1 forward_v I I I I #
coedge $-1 $317 $316 $309 $403 forward $199 $-1 #
coedge $-1 $309 $201 $203 $313 reversed $116 $-1 #
coedge $-1 $201 $308 $307 $403 reversed $116 $-1 #
coedge $-1 $209 $204 $201 $311 forward $210 $-1 #
edge $-1 $314 -84.166710802847192 $404 -75.614339706263863 $310 $405 forward 7 unknown #
coedge $-1 $203 $202 $317 $406 reversed $73 $-1 #
edge $-1 $407 115.86861032963719 $314 127.75780510879852 $308 $408 forward 7 unknown #
vertex $-1 $205 $409 #
straight-curve $-1 63.878902554399232 1.4378962910059734 12.315881085870473 0 1 0 I I #
coedge $-1 $307 $206 $209 $321 forward $199 $-1 #
coedge $-1 $206 $307 $312 $406 forward $199 $-1 #
vertex $-1 $207 $410 #
straight-curve $-1 33.516075002670505 -2.59265237410861 20.868252182453787 1 0 0 I I #
straight-curve $-1 -24.869125065912286 -2.59265237410861 104.21715615712378 -0.69465836192734942 0 0.71933980857756763 I I #
edge $-1 $211 -2.59265237410861 $404 8.3442375381325036 $209 $411 forward 7 unknown #
point $-1 63.878902554399247 -2.59265237410861 20.868252182453787 #
point $-1 63.878902554399247 -2.59265237410861 12.315881085870458 #
edge $-1 $412 1 $412 0 $214 $-1 forward 7 unknown #
vertex $-1 $215 $413 #
ellipse-curve $-1 58.365367184457206 2.8757925820119468 15.255484755587569 0.71933980857756763 0 0.69465836192734942 1.0419875428910241 0 -1.0790097128663514 1 I I #
point $-1 60.79142581232658 2.8757925820119468 15.513056921295775 #
loop $-1 $-1 $331 $218 #
plane-surface $-1 0 44.520477847676489 0 0 -1 0 0 0 -1 forward_v I I I I #
coedge $-1 $222 $221 $337 $414 reversed $82 $-1 #
coedge $-1 $415 $416 $222 $332 forward $328 $-1 #
edge $-1 $334 -81.636257688090069 $417 -69.74706290892874 $331 $418 forward 7 unknown #
coedge $-1 $228 $223 $416 $419 reversed $131 $-1 #
vertex $-1 $332 $420 #
straight-curve $-1 63.878902554399232 19.526016445777969 12.315881085870473 0 1 0 I I #
coedge $-1 $421 $225 $228 $341 forward $219 $-1 #
coedge $-1 $225 $421 $330 $414 forward $219 $-1 #
vertex $-1 $226 $422 #
straight-curve $-1 33.516075002670505 33.583587935435382 20.868252182453787 1 0 0 I I #
straight-curve $-1 -24.869125065912286 33.583587935435382 104.21715615712378 -0.69465836192734942 0 0.71933980857756763 I I #
edge $-1 $229 33.583587935435382 $423 44.520477847676489 $228 $424 forward 7 unknown #
point $-1 63.878902554399247 33.583587935435382 20.868252182453787 #
point $-1 63.878902554399247 33.583587935435382 12.315881085870458 #
edge $-1 $425 1 $425 0 $232 $-1 forward 7 unknown #
vertex $-1 $233 $426 #
ellipse-curve $-1 58.365367184457206 39.052032891555939 15.255484755587569 0.71933980857756763 0 0.69465836192734942 1.0419875428910241 0 -1.0790097128663514 1 I I #
point $-1 60.79142581232658 39.052032891555939 15.513056921295775 #
loop $-1 $-1 $244 $236 #
plane-surface $-1 -63.878902554399247 0 0 1 0 0 0 0 -1 forward_v I I I I #
coedge $-1 $351 $239 $427 $428 reversed $146 $-1 #
coedge $-1 $239 $350 $354 $429 reversed $146 $-1 #
edge $-1 $355 10.914903026757138 $430 18.999457450402069 $239 $431 forward 7 unknown #
coedge $-1 $241 $240 $358 $432 reversed $91 $-1 #
coedge $-1 $247 $242 $351 $429 forward $237 $-1 #
vertex $-1 $429 $433 #
straight-curve $-1 -57.777411935111154 19.323092987149039 20.868252182453791 0 1 0 I I #
coedge $-1 $427 $244 $247 $362 reversed $348 $-1 #
coedge $-1 $244 $427 $353 $432 forward $348 $-1 #
vertex $-1 $245 $434 #
straight-curve $-1 -63.878902554399247 32.77189410091966 55.992172885378189 0 0 1 I I #
straight-curve $-1 -63.878902554399261 32.77189410091966 15.564307192956207 -0.75470957328743171 0 -0.6560590369687036 I I #
edge $-1 $435 -44.520477847676489 $248 -32.77189410091966 $357 $436 forward 7 unknown #
point $-1 -63.878902554399247 32.77189410091966 20.868252182453787 #
point $-1 -57.777411935111161 32.77189410091966 20.868252182453787 #
edge $-1 $437 1 $437 0 $251 $-1 forward 7 unknown #
vertex $-1 $252 $438 #
ellipse-curve $-1 -56.051441992038399 38.646185974298078 12.721297488007867 -0.6560590369687036 0 0.75470957328743171 1.5094191465748634 0 1.3121180739374072 1 I I #
point $-1 -59.31873809818034 38.646185974298078 19.528397761642402 #
plane-surface $-1 63.878902554399247 0 0 -1 0 0 0 0 1 forward_v I I I I #
coedge $-1 $260 $258 $262 $374 reversed $161 $-1 #
edge $-1 $273 -20.868252182453787 $376 20.868252182453787 $272 $439 forward 7 unknown #
vertex $-1 $374 $440 #
straight-curve $-1 -63.878902554399247 -44.520477847676489 0 0 0 -1 I I #
edge $-1 $372 -44.520477847676489 $376 44.520477847676489 $370 $441 forward 7 unknown #
straight-curve $-1 0 -44.520477847676489 -20.868252182453787 -1 0 0 I I #
vertex $-1 $265 $442 #
straight-curve $-1 0 44.520477847676489 -20.868252182453787 1 0 0 I I #
point $-1 63.878902554399247 44.520477847676489 -20.868252182453787 #
point $-1 63.878902554399247 -44.520477847676489 -20.868252182453787 #
straight-curve $-1 -63.878902554399247 0 20.868252182453787 0 -1 0 I I #
point $-1 -63.878902554399247 44.520477847676489 20.868252182453787 #
point $-1 -63.878902554399247 -44.520477847676489 20.868252182453787 #
straight-curve $-1 63.878902554399247 -44.520477847676489 0 0 0 -1 I I #
straight-curve $-1 63.878902554399247 44.520477847676489 0 0 0 -1 I I #
plane-surface $-1 63.878902554399247 0 0 -1 0 0 0 0 1 forward_v I I I I #
coedge $-1 $389 $285 $296 $398 forward $180 $-1 #
coedge $-1 $285 $389 $299 $400 reversed $180 $-1 #
straight-curve $-1 63.878902554399247 -27.832002771411481 1.1353417856605041 0 0 1 I I #
coedge $-1 $387 $386 $288 $390 forward $180 $-1 #
edge $-1 $393 9.743882616639489 $391 26.432357692904496 $389 $443 forward 7 unknown #
vertex $-1 $290 $444 #
straight-curve $-1 0 -44.520477847676489 -3.1515464850220614 1 0 0 I I #
vertex $-1 $390 $445 #
straight-curve $-1 0 -27.832002771411481 -3.1515464850220614 1 0 0 I I #
point $-1 63.878902554399247 -44.520477847676489 -3.1515464850220614 #
point $-1 63.878902554399247 -27.832002771411481 -3.1515464850220614 #
straight-curve $-1 -63.878902554399247 -18.088120154771993 7.6929136276640779 0 1 0 I I #
edge $-1 $297 -6.5575718420035738 $393 4.2868882706825655 $386 $446 forward 7 unknown #
point $-1 -63.878902554399247 -27.832002771411481 7.6929136276640779 #
edge $-1 $301 -7.6929136276640779 $391 3.1515464850220614 $387 $447 forward 7 unknown #
point $-1 -63.878902554399247 -44.520477847676489 7.6929136276640779 #
straight-curve $-1 63.878902554399247 -44.520477847676489 0 0 0 -1 I I #
edge $-1 $404 -30.362827551728742 $407 -22.103898981801336 $307 $448 forward 7 unknown #
vertex $-1 $403 $449 #
straight-curve $-1 63.878902554399247 8.3442375381325036 96.48259188871765 0 0 1 I I #
edge $-1 $407 -6.9063412471265302 $318 4.0305486651145834 $317 $450 forward 7 unknown #
vertex $-1 $406 $451 #
straight-curve $-1 -24.869125065912286 8.3442375381325036 104.21715615712378 0.69465836192734942 0 -0.71933980857756763 I I #
point $-1 63.878902554399247 8.3442375381325036 12.315881085870458 #
point $-1 55.619973984471841 -2.59265237410861 20.868252182453787 #
straight-curve $-1 63.878902554399247 0 20.868252182453787 0 1 0 I I #
vertex $-1 $324 $452 #
point $-1 59.407354727348228 2.8757925820119468 14.176475042721217 #
edge $-1 $417 -24.994461401898526 $338 -14.057571489657413 $337 $453 forward 7 unknown #
coedge $-1 $416 $331 $421 $454 reversed $328 $-1 #
coedge $-1 $331 $415 $333 $419 forward $328 $-1 #
vertex $-1 $332 $455 #
straight-curve $-1 7.1695935149116181 44.520477847676489 71.040091064210159 -0.69465836192734942 0 0.71933980857756763 I I #
edge $-1 $423 -20.868252182453787 $334 -12.315881085870458 $333 $456 forward 7 unknown #
point $-1 63.878902554399247 44.520477847676496 12.315881085870458 #
coedge $-1 $337 $336 $415 $454 forward $219 $-1 #
point $-1 55.619973984471841 33.583587935435382 20.868252182453787 #
vertex $-1 $341 $457 #
straight-curve $-1 63.878902554399247 0 20.868252182453787 0 1 0 I I #
vertex $-1 $344 $458 #
point $-1 59.407354727348228 39.052032891555939 14.176475042721217 #
coedge $-1 $358 $357 $350 $428 forward $348 $-1 #
edge $-1 $435 -20.868252182453787 $430 -15.564307192956219 $350 $459 forward 7 unknown #
edge $-1 $355 57.777411935111161 $435 63.878902554399247 $351 $460 forward 7 unknown #
vertex $-1 $352 $461 #
straight-curve $-1 -49.539830129313586 44.520477847676489 28.029072950794863 -0.75470957328743171 0 -0.6560590369687036 I I #
edge $-1 $430 -25.197384860527457 $359 -13.448801113770621 $358 $462 forward 7 unknown #
point $-1 -57.777411935111161 44.520477847676496 20.868252182453787 #
point $-1 -63.878902554399247 32.77189410091966 15.564307192956219 #
vertex $-1 $429 $463 #
straight-curve $-1 -63.878902554399247 0 20.868252182453787 0 -1 0 I I #
vertex $-1 $365 $464 #
point $-1 -54.542022845463535 38.646185974298078 14.033415561945274 #
straight-curve $-1 -63.878902554399247 44.520477847676489 0 0 0 -1 I I #
point $-1 -63.878902554399247 -44.520477847676489 -20.868252182453787 #
straight-curve $-1 -63.878902554399247 0 -20.868252182453787 0 1 0 I I #
point $-1 -63.878902554399247 44.520477847676489 -20.868252182453787 #
straight-curve $-1 -63.878902554399247 -18.088120154771993 -3.1515464850220614 0 -1 0 I I #
point $-1 -63.878902554399247 -44.520477847676489 -3.1515464850220614 #
point $-1 -63.878902554399247 -27.832002771411481 -3.1515464850220614 #
straight-curve $-1 -63.878902554399247 -27.832002771411481 1.1353417856605041 0 0 -1 I I #
straight-curve $-1 -63.878902554399247 -44.520477847676489 0 0 0 -1 I I #
straight-curve $-1 33.516075002670505 8.3442375381325036 20.868252182453787 -1 0 0 I I #
point $-1 63.878902554399247 8.3442375381325036 20.868252182453787 #
straight-curve $-1 55.619973984471841 1.4378962910059734 20.868252182453794 0 -1 0 I I #
point $-1 55.619973984471841 8.3442375381325036 20.868252182453787 #
point $-1 57.286357471590854 2.8757925820119468 14.213497212696543 #
straight-curve $-1 55.619973984471841 19.526016445777969 20.868252182453794 0 -1 0 I I #
edge $-1 $423 -63.878902554399247 $417 -55.619973984471841 $415 $465 forward 7 unknown #
point $-1 55.619973984471841 44.520477847676496 20.868252182453787 #
straight-curve $-1 63.878902554399247 44.520477847676489 0 0 0 -1 I I #
point $-1 63.878902554399247 44.520477847676489 20.868252182453787 #
point $-1 57.286357471590854 39.052032891555939 14.213497212696543 #
straight-curve $-1 -63.878902554399247 44.520477847676489 0 0 0 -1 I I #
straight-curve $-1 0 44.520477847676489 20.868252182453787 -1 0 0 I I #
point $-1 -63.878902554399247 44.520477847676496 15.564307192956219 #
straight-curve $-1 -63.878902554399247 19.323092987149039 15.564307192956218 0 -1 0 I I #
point $-1 -63.878902554399247 44.520477847676489 20.868252182453787 #
point $-1 -54.739323918100986 38.646185974298078 11.211878341433003 #
straight-curve $-1 0 44.520477847676489 20.868252182453787 -1 0 0 I I #
End-of-ACIS-data 