500 0 8 0           
7 Unknown 11 ACIS 5.0 NT 24 Thu Mar 25 17:17:20 1999 
-1 9.9999999999999995e-007 1e-010 
body $-1 $8 $-1 $9 #
body $-1 $10 $-1 $11 #
body $-1 $12 $-1 $13 #
body $-1 $14 $-1 $15 #
body $-1 $16 $-1 $17 #
body $-1 $18 $-1 $19 #
body $-1 $20 $-1 $21 #
body $-1 $22 $-1 $23 #
lump $-1 $-1 $24 $0 #
transform $-1 1 0 0 0 1 0 0 0 1 46.383251441999576 20.576401347725024 7.9817623514631695 1 rotate no_reflect no_shear #
lump $-1 $-1 $25 $1 #
transform $-1 1 0 0 0 1 0 0 0 1 46.383251441999576 20.576401347725024 7.9817623514631695 1 rotate no_reflect no_shear #
lump $-1 $-1 $26 $2 #
transform $-1 1 0 0 0 1 0 0 0 1 46.383251441999576 20.576401347725024 7.9817623514631695 1 rotate no_reflect no_shear #
lump $-1 $-1 $27 $3 #
transform $-1 1 0 0 0 1 0 0 0 1 46.383251441999576 20.576401347725024 7.9817623514631695 1 rotate no_reflect no_shear #
lump $-1 $-1 $28 $4 #
transform $-1 1 0 0 0 1 0 0 0 1 46.383251441999576 20.576401347725024 7.9817623514631695 1 rotate no_reflect no_shear #
lump $-1 $-1 $29 $5 #
transform $-1 1 0 0 0 1 0 0 0 1 46.383251441999576 20.576401347725024 7.9817623514631695 1 rotate no_reflect no_shear #
lump $-1 $-1 $30 $6 #
transform $-1 1 0 0 0 1 0 0 0 1 46.383251441999576 20.576401347725024 7.9817623514631695 1 rotate no_reflect no_shear #
lump $-1 $-1 $31 $7 #
transform $-1 1 0 0 0 1 0 0 0 1 46.383251441999576 20.576401347725024 7.9817623514631695 1 rotate no_reflect no_shear #
shell $-1 $-1 $-1 $32 $-1 $8 #
shell $-1 $-1 $-1 $33 $-1 $10 #
shell $-1 $-1 $-1 $34 $-1 $12 #
shell $-1 $-1 $-1 $35 $-1 $14 #
shell $-1 $-1 $-1 $36 $-1 $16 #
shell $-1 $-1 $-1 $37 $-1 $18 #
shell $-1 $-1 $-1 $38 $-1 $20 #
shell $-1 $-1 $-1 $39 $-1 $22 #
face $-1 $40 $41 $24 $-1 $42 forward single #
face $-1 $43 $44 $25 $-1 $45 reversed single #
face $-1 $46 $47 $26 $-1 $48 forward single #
face $-1 $49 $50 $27 $-1 $51 forward single #
face $-1 $52 $53 $28 $-1 $54 forward single #
face $-1 $55 $56 $29 $-1 $57 reversed single #
face $-1 $58 $59 $30 $-1 $60 forward single #
face $-1 $61 $62 $31 $-1 $63 forward single #
face $-1 $64 $65 $24 $-1 $66 reversed single #
loop $-1 $-1 $67 $32 #
plane-surface $-1 0 0 7.9817623514631695 0 0 1 1 0 0 forward_v I I I I #
face $-1 $68 $69 $25 $-1 $70 reversed single #
loop $-1 $-1 $71 $33 #
plane-surface $-1 16.871553292591742 9.2050181643847733 131.01740746842395 0 -1 0 -0.52991927123019833 0 -0.84804809178421925 forward_v I I I I #
face $-1 $72 $73 $26 $-1 $74 forward single #
loop $-1 $75 $76 $34 #
cone-surface $-1 42.282635492373927 1.5564295451626684 5.1609541864846129 -0.52991927123019833 0 -0.84804809178421925 0.42402404589210962 0 -0.26495963561509916 1 I I 0 1 0.5 forward I I I I #
face $-1 $77 $78 $27 $-1 $79 forward single #
loop $-1 $80 $81 $35 #
cone-surface $-1 42.282635492373927 4.424650277370958 5.1609541864846129 -0.52991927123019833 0 -0.84804809178421925 0.42402404589210962 0 -0.26495963561509916 1 I I 0 1 0.5 forward I I I I #
face $-1 $82 $83 $28 $-1 $84 forward single #
loop $-1 $85 $86 $36 #
cone-surface $-1 42.282635492373927 7.2928710095792475 5.1609541864846129 -0.52991927123019833 0 -0.84804809178421925 0.42402404589210962 0 -0.26495963561509916 1 I I 0 1 0.5 forward I I I I #
face $-1 $87 $88 $29 $-1 $89 reversed single #
loop $-1 $-1 $90 $37 #
plane-surface $-1 -96.907510716428391 -6.1283504216647273 82.662341207962555 0 1 0 -0.54463904215088732 0 0.83867056331134215 forward_v I I I I #
face $-1 $91 $92 $30 $-1 $93 forward single #
loop $-1 $94 $95 $38 #
cone-surface $-1 -43.514902198353276 -3.3231187000018352 5.7039090883592198 0.54463904215088732 0 -0.83867056331134215 0.83867056331134215 0 0.54463904215088732 1 I I 0 1 1 forward I I I I #
face $-1 $96 $97 $31 $-1 $98 forward single #
loop $-1 $99 $100 $39 #
cone-surface $-1 -43.514902198353276 0.88472888249250303 5.7039090883592198 0.54463904215088732 0 -0.83867056331134215 0.83867056331134215 0 0.54463904215088732 1 I I 0 1 1 forward I I I I #
face $-1 $101 $102 $24 $-1 $103 reversed single #
loop $-1 $-1 $104 $40 #
plane-surface $-1 0 0 -7.9817623514631695 0 0 1 1 0 0 forward_v I I I I #
coedge $-1 $105 $106 $107 $108 forward $41 $-1 #
face $-1 $109 $110 $25 $-1 $111 reversed single #
loop $-1 $-1 $112 $43 #
plane-surface $-1 -32.287204310271179 4.424650277370958 52.3469517161532 0.52991927123019833 0 0.84804809178421925 0.84804809178421925 0 -0.52991927123019833 forward_v I I I I #
coedge $-1 $113 $114 $115 $116 reversed $44 $-1 #
face $-1 $-1 $117 $26 $-1 $118 forward single #
loop $-1 $119 $120 $46 #
cone-surface $-1 41.885196038951278 1.5564295451626684 4.5249181176464486 -0.52991927123019833 0 -0.84804809178421925 0.21201202294605481 0 -0.13247981780754958 1 I I -0.70710678118654746 0.70710678118654746 0.25 forward I I I I #
loop $-1 $-1 $121 $34 #
coedge $-1 $76 $76 $122 $123 reversed $47 $-1 #
face $-1 $-1 $124 $27 $-1 $125 forward single #
loop $-1 $126 $127 $49 #
cone-surface $-1 41.885196038951278 4.424650277370958 4.5249181176464486 -0.52991927123019833 0 -0.84804809178421925 0.21201202294605481 0 -0.13247981780754958 1 I I -0.70710678118654746 0.70710678118654746 0.25 forward I I I I #
loop $-1 $-1 $128 $35 #
coedge $-1 $81 $81 $129 $130 reversed $50 $-1 #
face $-1 $-1 $131 $28 $-1 $132 forward single #
loop $-1 $133 $134 $52 #
cone-surface $-1 41.885196038951278 7.2928710095792475 4.5249181176464486 -0.52991927123019833 0 -0.84804809178421925 0.21201202294605481 0 -0.13247981780754958 1 I I -0.70710678118654746 0.70710678118654746 0.25 forward I I I I #
loop $-1 $-1 $135 $36 #
coedge $-1 $86 $86 $136 $137 reversed $53 $-1 #
face $-1 $138 $139 $29 $-1 $140 reversed single #
loop $-1 $-1 $141 $55 #
plane-surface $-1 -46.383251441999569 -1.2191949087546661 4.8618059778157345 -0.54463904215088732 0 0.83867056331134215 0.83867056331134215 0 0.54463904215088732 forward_v I I I I #
coedge $-1 $142 $143 $144 $145 reversed $56 $-1 #
face $-1 $-1 $146 $30 $-1 $147 forward single #
loop $-1 $148 $149 $58 #
cone-surface $-1 -42.776389143090171 -3.3231187000018352 4.5666987304233011 0.54463904215088732 0 -0.83867056331134215 0.41933528165567108 0 0.27231952107544366 1 I I -0.70710678118654746 0.70710678118654746 0.5 forward I I I I #
loop $-1 $-1 $150 $38 #
coedge $-1 $95 $95 $151 $152 reversed $59 $-1 #
face $-1 $-1 $153 $31 $-1 $154 forward single #
loop $-1 $155 $156 $61 #
cone-surface $-1 -42.776389143090171 0.88472888249250303 4.5666987304233011 0.54463904215088732 0 -0.83867056331134215 0.41933528165567108 0 0.27231952107544366 1 I I -0.70710678118654746 0.70710678118654746 0.5 forward I I I I #
loop $-1 $-1 $157 $39 #
coedge $-1 $100 $100 $158 $159 reversed $62 $-1 #
face $-1 $160 $161 $24 $-1 $162 reversed single #
loop $-1 $-1 $163 $64 #
plane-surface $-1 0 -20.576401347725024 0 0 1 0 0 0 1 forward_v I I I I #
coedge $-1 $164 $165 $166 $167 forward $65 $-1 #
coedge $-1 $168 $67 $169 $170 forward $41 $-1 #
coedge $-1 $67 $168 $171 $172 forward $41 $-1 #
coedge $-1 $173 $174 $67 $108 reversed $175 $-1 #
edge $-1 $176 -20.576401347725024 $177 20.576401347725024 $107 $178 forward 7 unknown #
face $-1 $179 $180 $25 $-1 $181 forward single #
loop $-1 $-1 $182 $68 #
plane-surface $-1 16.871553292591742 -0.35571760964285737 131.01740746842395 0 1 0 0.52991927123019833 0 0.84804809178421925 forward_v I I I I #
coedge $-1 $183 $184 $185 $186 reversed $69 $-1 #
coedge $-1 $114 $71 $187 $188 reversed $44 $-1 #
coedge $-1 $71 $113 $183 $189 reversed $44 $-1 #
coedge $-1 $185 $190 $71 $116 forward $180 $-1 #
edge $-1 $191 -37.947474795703705 $192 -30.276162167682607 $115 $193 forward 7 unknown #
loop $-1 $-1 $122 $72 #
plane-surface $-1 -32.287204310271179 4.424650277370958 52.3469517161532 0.52991927123019833 0 0.84804809178421925 0.84804809178421925 0 -0.52991927123019833 forward_v I I I I #
loop $-1 $-1 $194 $46 #
coedge $-1 $120 $120 $121 $195 reversed $73 $-1 #
coedge $-1 $121 $121 $120 $195 forward $75 $-1 #
coedge $-1 $122 $122 $76 $123 forward $117 $-1 #
edge $-1 $196 0 $196 6.2831853071796004 $122 $197 forward 7 unknown #
loop $-1 $-1 $129 $77 #
plane-surface $-1 -32.287204310271179 4.424650277370958 52.3469517161532 0.52991927123019833 0 0.84804809178421925 0.84804809178421925 0 -0.52991927123019833 forward_v I I I I #
loop $-1 $-1 $198 $49 #
coedge $-1 $127 $127 $128 $199 reversed $78 $-1 #
coedge $-1 $128 $128 $127 $199 forward $80 $-1 #
coedge $-1 $129 $129 $81 $130 forward $124 $-1 #
edge $-1 $200 0 $200 6.2831853071796004 $129 $201 forward 7 unknown #
loop $-1 $-1 $136 $82 #
plane-surface $-1 -32.287204310271179 4.424650277370958 52.3469517161532 0.52991927123019833 0 0.84804809178421925 0.84804809178421925 0 -0.52991927123019833 forward_v I I I I #
loop $-1 $-1 $202 $52 #
coedge $-1 $134 $134 $135 $203 reversed $83 $-1 #
coedge $-1 $135 $135 $134 $203 forward $85 $-1 #
coedge $-1 $136 $136 $86 $137 forward $131 $-1 #
edge $-1 $204 0 $204 6.2831853071796004 $136 $205 forward 7 unknown #
face $-1 $206 $207 $29 $-1 $208 reversed single #
loop $-1 $-1 $209 $87 #
plane-surface $-1 -96.907510716428391 3.6899606041553952 82.662341207962555 0 -1 0 0.54463904215088732 0 -0.83867056331134215 forward_v I I I I #
coedge $-1 $210 $211 $212 $213 reversed $88 $-1 #
coedge $-1 $143 $90 $214 $215 reversed $56 $-1 #
coedge $-1 $90 $142 $210 $216 reversed $56 $-1 #
coedge $-1 $212 $217 $90 $145 forward $218 $-1 #
edge $-1 $219 2.0705039162146193 $220 6.8748153351319559 $144 $221 forward 7 unknown #
loop $-1 $-1 $151 $91 #
plane-surface $-1 -46.383251441999569 -1.2191949087546661 4.8618059778157345 -0.54463904215088732 0 0.83867056331134215 0.83867056331134215 0 0.54463904215088732 forward_v I I I I #
loop $-1 $-1 $222 $58 #
coedge $-1 $149 $149 $150 $223 reversed $92 $-1 #
coedge $-1 $150 $150 $149 $223 forward $94 $-1 #
coedge $-1 $151 $151 $95 $152 forward $146 $-1 #
edge $-1 $224 0 $224 6.2831853071796004 $151 $225 forward 7 unknown #
loop $-1 $-1 $158 $96 #
plane-surface $-1 -46.383251441999569 -1.2191949087546661 4.8618059778157345 -0.54463904215088732 0 0.83867056331134215 0.83867056331134215 0 0.54463904215088732 forward_v I I I I #
loop $-1 $-1 $226 $61 #
coedge $-1 $156 $156 $157 $227 reversed $97 $-1 #
coedge $-1 $157 $157 $156 $227 forward $99 $-1 #
coedge $-1 $158 $158 $100 $159 forward $153 $-1 #
edge $-1 $228 0 $228 6.2831853071796004 $158 $229 forward 7 unknown #
face $-1 $230 $231 $24 $-1 $232 reversed single #
loop $-1 $-1 $233 $101 #
plane-surface $-1 -46.383251441999576 0 0 1 0 0 0 0 -1 forward_v I I I I #
coedge $-1 $234 $171 $235 $236 forward $102 $-1 #
coedge $-1 $237 $104 $234 $238 forward $65 $-1 #
coedge $-1 $104 $237 $239 $240 forward $65 $-1 #
coedge $-1 $174 $173 $104 $167 reversed $175 $-1 #
edge $-1 $241 -20.576401347725024 $242 20.576401347725024 $166 $243 forward 7 unknown #
coedge $-1 $106 $105 $244 $245 forward $41 $-1 #
coedge $-1 $246 $247 $105 $170 reversed $231 $-1 #
edge $-1 $177 -46.383251441999576 $248 46.383251441999576 $169 $249 forward 7 unknown #
coedge $-1 $163 $250 $106 $172 reversed $102 $-1 #
edge $-1 $251 -46.383251441999576 $176 46.383251441999576 $171 $252 forward 7 unknown #
coedge $-1 $166 $107 $250 $253 forward $175 $-1 #
coedge $-1 $107 $166 $246 $254 reversed $175 $-1 #
loop $-1 $-1 $173 $230 #
vertex $-1 $108 $255 #
vertex $-1 $108 $256 #
straight-curve $-1 46.383251441999576 0 7.9817623514631695 0 1 0 I I #
face $-1 $-1 $257 $25 $-1 $258 reversed single #
loop $-1 $-1 $115 $109 #
plane-surface $-1 0 0 7.9817623514631695 0 0 1 1 0 0 forward_v I I I I #
coedge $-1 $259 $260 $261 $262 reversed $110 $-1 #
coedge $-1 $263 $112 $114 $189 forward $69 $-1 #
coedge $-1 $112 $263 $259 $264 forward $69 $-1 #
coedge $-1 $261 $115 $112 $186 forward $180 $-1 #
edge $-1 $192 -6.9926930256992943 $265 2.5680427483283363 $185 $266 forward 7 unknown #
coedge $-1 $267 $268 $113 $188 forward $257 $-1 #
edge $-1 $269 -62.320509620921698 $191 -57.526941382748809 $187 $270 forward 7 unknown #
edge $-1 $192 83.720656660960884 $269 92.766502883999152 $114 $271 forward 7 unknown #
coedge $-1 $115 $261 $267 $272 forward $180 $-1 #
vertex $-1 $188 $273 #
vertex $-1 $116 $274 #
straight-curve $-1 8.4357766462958708 9.2050181643847733 7.9817623514631677 -1 0 0 I I #
coedge $-1 $194 $194 $-1 $275 reversed $119 $-1 #
edge $-1 $276 0 $276 6.2831853071796004 $120 $277 forward 7 unknown #
vertex $-1 $123 $278 #
ellipse-curve $-1 42.54759512798902 1.5564295451626684 5.5849782323767165 0.52991927123019833 0 0.84804809178421925 0.42402404589210962 0 -0.26495963561509916 1 I I #
coedge $-1 $198 $198 $-1 $279 reversed $126 $-1 #
edge $-1 $280 0 $280 6.2831853071796004 $127 $281 forward 7 unknown #
vertex $-1 $130 $282 #
ellipse-curve $-1 42.54759512798902 4.424650277370958 5.5849782323767165 0.52991927123019833 0 0.84804809178421925 0.42402404589210962 0 -0.26495963561509916 1 I I #
coedge $-1 $202 $202 $-1 $283 reversed $133 $-1 #
edge $-1 $284 0 $284 6.2831853071796004 $134 $285 forward 7 unknown #
vertex $-1 $137 $286 #
ellipse-curve $-1 42.54759512798902 7.2928710095792475 5.5849782323767165 0.52991927123019833 0 0.84804809178421925 0.42402404589210962 0 -0.26495963561509916 1 I I #
face $-1 $-1 $218 $29 $-1 $287 forward single #
loop $-1 $-1 $288 $138 #
plane-surface $-1 -46.383251441999576 0 0 1 0 0 0 0 -1 forward_v I I I I #
coedge $-1 $289 $290 $291 $292 reversed $139 $-1 #
coedge $-1 $293 $141 $143 $216 forward $88 $-1 #
coedge $-1 $141 $293 $289 $294 forward $88 $-1 #
coedge $-1 $291 $144 $141 $213 forward $218 $-1 #
edge $-1 $220 -5.5187529672873943 $295 4.2995580585327282 $212 $296 forward 7 unknown #
coedge $-1 $297 $298 $142 $215 forward $207 $-1 #
edge $-1 $299 -36.46936462616555 $219 -33.34940825251811 $214 $300 forward 7 unknown #
edge $-1 $220 -5.7284846149224053 $299 8.3777959833898778e-015 $143 $301 forward 7 unknown #
coedge $-1 $144 $291 $297 $302 forward $218 $-1 #
loop $-1 $-1 $291 $206 #
vertex $-1 $215 $303 #
vertex $-1 $145 $304 #
straight-curve $-1 -48.453755358214195 -6.1283504216647273 7.9817623514631677 1 0 0 I I #
coedge $-1 $222 $222 $-1 $305 reversed $148 $-1 #
edge $-1 $306 0 $306 6.2831853071796004 $149 $307 forward 7 unknown #
vertex $-1 $152 $308 #
ellipse-curve $-1 -43.981095732540915 -3.3231187000018352 6.4217841646394414 -0.54463904215088732 0 0.83867056331134215 0.83867056331134215 0 0.54463904215088732 1 I I #
coedge $-1 $226 $226 $-1 $309 reversed $155 $-1 #
edge $-1 $310 0 $310 6.2831853071796004 $156 $311 forward 7 unknown #
vertex $-1 $159 $312 #
ellipse-curve $-1 -43.981095732540915 0.88472888249250303 6.4217841646394414 -0.54463904215088732 0 0.83867056331134215 0.83867056331134215 0 0.54463904215088732 1 I I #
face $-1 $-1 $175 $24 $-1 $313 reversed single #
loop $-1 $-1 $246 $160 #
plane-surface $-1 0 20.576401347725024 0 0 -1 0 0 0 -1 forward_v I I I I #
coedge $-1 $314 $244 $247 $315 forward $161 $-1 #
coedge $-1 $250 $163 $164 $238 reversed $102 $-1 #
coedge $-1 $244 $314 $163 $236 reversed $161 $-1 #
edge $-1 $251 -7.9817623514631695 $316 7.9817623514631695 $235 $317 forward 7 unknown #
coedge $-1 $165 $164 $314 $318 forward $65 $-1 #
edge $-1 $242 -46.383251441999576 $316 46.383251441999576 $234 $319 forward 7 unknown #
coedge $-1 $247 $246 $165 $240 reversed $231 $-1 #
edge $-1 $320 -46.383251441999576 $241 46.383251441999576 $239 $321 forward 7 unknown #
vertex $-1 $167 $322 #
vertex $-1 $253 $323 #
straight-curve $-1 46.383251441999576 0 -7.9817623514631695 0 -1 0 I I #
coedge $-1 $233 $235 $168 $245 reversed $161 $-1 #
edge $-1 $248 -20.576401347725024 $251 20.576401347725024 $244 $324 forward 7 unknown #
coedge $-1 $239 $169 $174 $254 forward $231 $-1 #
coedge $-1 $169 $239 $233 $315 reversed $231 $-1 #
vertex $-1 $170 $325 #
straight-curve $-1 0 20.576401347725024 7.9817623514631695 -1 0 0 I I #
coedge $-1 $171 $234 $173 $253 reversed $102 $-1 #
vertex $-1 $245 $326 #
straight-curve $-1 0 -20.576401347725024 7.9817623514631695 1 0 0 I I #
edge $-1 $176 -7.9817623514631695 $242 7.9817623514631695 $173 $327 forward 7 unknown #
edge $-1 $177 -7.9817623514631695 $241 7.9817623514631695 $174 $328 forward 7 unknown #
point $-1 46.383251441999576 -20.576401347725024 7.9817623514631695 #
point $-1 46.383251441999576 20.576401347725024 7.9817623514631695 #
loop $-1 $-1 $187 $179 #
plane-surface $-1 46.383251441999576 0 0 -1 0 0 0 0 1 forward_v I I I I #
coedge $-1 $260 $182 $184 $264 reversed $110 $-1 #
coedge $-1 $182 $259 $329 $330 reversed $110 $-1 #
coedge $-1 $190 $185 $182 $262 forward $180 $-1 #
edge $-1 $265 30.276162167682607 $331 37.947474795703705 $261 $332 forward 7 unknown #
coedge $-1 $184 $183 $268 $333 reversed $69 $-1 #
edge $-1 $334 -92.766502883999152 $265 -83.720656660960884 $259 $335 forward 7 unknown #
vertex $-1 $186 $336 #
straight-curve $-1 38.711938813978477 2.212325138685479 7.9817623514631642 0 -1 0 I I #
coedge $-1 $329 $187 $190 $272 reversed $257 $-1 #
coedge $-1 $187 $329 $263 $333 forward $257 $-1 #
vertex $-1 $188 $337 #
straight-curve $-1 46.383251441999576 9.2050181643847733 65.508703734211977 0 0 1 I I #
straight-curve $-1 -32.287204310271179 9.2050181643847733 52.3469517161532 0.84804809178421925 0 -0.52991927123019833 I I #
edge $-1 $331 -0.35571760964285737 $191 9.2050181643847733 $267 $338 forward 7 unknown #
point $-1 46.383251441999576 9.2050181643847733 7.9817623514631695 #
point $-1 38.711938813978477 9.2050181643847733 7.9817623514631677 #
edge $-1 $339 1 $339 0 $194 $-1 forward 7 unknown #
vertex $-1 $195 $340 #
ellipse-curve $-1 42.017675856758828 1.5564295451626684 4.7369301405925031 0.52991927123019833 0 0.84804809178421925 0.42402404589210962 0 -0.26495963561509916 1 I I #
point $-1 42.971619173881137 1.5564295451626684 5.3200185967616234 #
edge $-1 $341 1 $341 0 $198 $-1 forward 7 unknown #
vertex $-1 $199 $342 #
ellipse-curve $-1 42.017675856758828 4.424650277370958 4.7369301405925031 0.52991927123019833 0 0.84804809178421925 0.42402404589210962 0 -0.26495963561509916 1 I I #
point $-1 42.971619173881137 4.424650277370958 5.3200185967616234 #
edge $-1 $343 1 $343 0 $202 $-1 forward 7 unknown #
vertex $-1 $203 $344 #
ellipse-curve $-1 42.017675856758828 7.2928710095792475 4.7369301405925031 0.52991927123019833 0 0.84804809178421925 0.42402404589210962 0 -0.26495963561509916 1 I I #
point $-1 42.971619173881137 7.2928710095792475 5.3200185967616234 #
plane-surface $-1 0 0 7.9817623514631695 0 0 1 1 0 0 forward_v I I I I #
coedge $-1 $298 $297 $290 $345 forward $207 $-1 #
coedge $-1 $290 $209 $211 $294 reversed $139 $-1 #
coedge $-1 $209 $289 $288 $345 reversed $139 $-1 #
coedge $-1 $217 $212 $209 $292 forward $218 $-1 #
edge $-1 $295 -6.8748153351319559 $346 -2.0705039162146193 $291 $347 forward 7 unknown #
coedge $-1 $211 $210 $298 $348 reversed $88 $-1 #
edge $-1 $349 -8.3777959833898778e-015 $295 5.7284846149224053 $289 $350 forward 7 unknown #
vertex $-1 $213 $351 #
straight-curve $-1 -41.578940023082239 -0.60959745437733304 7.9817623514631695 0 1 0 I I #
coedge $-1 $288 $214 $217 $302 reversed $207 $-1 #
coedge $-1 $214 $288 $293 $348 forward $207 $-1 #
vertex $-1 $215 $352 #
straight-curve $-1 -46.383251441999576 -6.1283504216647273 41.331170603981278 0 0 1 I I #
straight-curve $-1 -46.383251441999569 -6.1283504216647273 4.8618059778157345 -0.83867056331134215 0 -0.54463904215088732 I I #
edge $-1 $346 -3.6899606041553952 $219 6.1283504216647273 $297 $353 forward 7 unknown #
point $-1 -46.383251441999576 -6.1283504216647273 7.9817623514631695 #
point $-1 -41.578940023082239 -6.1283504216647273 7.9817623514631695 #
edge $-1 $354 1 $354 0 $222 $-1 forward 7 unknown #
vertex $-1 $223 $355 #
ellipse-curve $-1 -43.048708664165616 -3.3231187000018352 4.9860340120789726 -0.54463904215088732 0 0.83867056331134215 0.83867056331134215 0 0.54463904215088732 1 I I #
point $-1 -43.14242516922959 -3.3231187000018352 6.9664232067903544 #
edge $-1 $356 1 $356 0 $226 $-1 forward 7 unknown #
vertex $-1 $227 $357 #
ellipse-curve $-1 -43.048708664165616 0.88472888249250303 4.9860340120789726 -0.54463904215088732 0 0.83867056331134215 0.83867056331134215 0 0.54463904215088732 1 I I #
point $-1 -43.14242516922959 0.88472888249250303 6.9664232067903544 #
plane-surface $-1 46.383251441999576 0 0 -1 0 0 0 0 1 forward_v I I I I #
coedge $-1 $235 $233 $237 $318 reversed $161 $-1 #
edge $-1 $248 -7.9817623514631695 $320 7.9817623514631695 $247 $358 forward 7 unknown #
vertex $-1 $318 $359 #
straight-curve $-1 -46.383251441999576 -20.576401347725024 0 0 0 -1 I I #
edge $-1 $316 -20.576401347725024 $320 20.576401347725024 $314 $360 forward 7 unknown #
straight-curve $-1 0 -20.576401347725024 -7.9817623514631695 -1 0 0 I I #
vertex $-1 $240 $361 #
straight-curve $-1 0 20.576401347725024 -7.9817623514631695 1 0 0 I I #
point $-1 46.383251441999576 20.576401347725024 -7.9817623514631695 #
point $-1 46.383251441999576 -20.576401347725024 -7.9817623514631695 #
straight-curve $-1 -46.383251441999576 0 7.9817623514631695 0 -1 0 I I #
point $-1 -46.383251441999576 20.576401347725024 7.9817623514631695 #
point $-1 -46.383251441999576 -20.576401347725024 7.9817623514631695 #
straight-curve $-1 46.383251441999576 -20.576401347725024 0 0 0 -1 I I #
straight-curve $-1 46.383251441999576 20.576401347725024 0 0 0 -1 I I #
coedge $-1 $268 $267 $260 $330 forward $257 $-1 #
edge $-1 $331 57.526941382748809 $334 62.320509620921698 $329 $362 forward 7 unknown #
vertex $-1 $272 $363 #
straight-curve $-1 8.4357766462958708 -0.35571760964285737 7.9817623514631677 1 0 0 I I #
edge $-1 $334 -2.5680427483283363 $269 6.9926930256992943 $268 $364 forward 7 unknown #
vertex $-1 $333 $365 #
straight-curve $-1 -32.287204310271179 -0.35571760964285737 52.3469517161532 -0.84804809178421925 0 0.52991927123019833 I I #
point $-1 38.711938813978477 -0.35571760964285737 7.9817623514631677 #
point $-1 46.383251441999576 9.2050181643847733 3.1881941132902796 #
straight-curve $-1 46.383251441999576 0 7.9817623514631695 0 1 0 I I #
vertex $-1 $275 $366 #
point $-1 42.441699902650939 1.5564295451626684 4.4719705049774046 #
vertex $-1 $279 $367 #
point $-1 42.441699902650939 4.424650277370958 4.4719705049774046 #
vertex $-1 $283 $368 #
point $-1 42.441699902650939 7.2928710095792475 4.4719705049774046 #
edge $-1 $346 33.34940825251811 $349 36.46936462616555 $288 $369 forward 7 unknown #
vertex $-1 $302 $370 #
straight-curve $-1 -48.453755358214195 3.6899606041553952 7.9817623514631677 -1 0 0 I I #
edge $-1 $349 -4.2995580585327282 $299 5.5187529672873943 $298 $371 forward 7 unknown #
vertex $-1 $348 $372 #
straight-curve $-1 -46.383251441999569 3.6899606041553952 4.8618059778157345 0.83867056331134215 0 0.54463904215088732 I I #
point $-1 -41.578940023082239 3.6899606041553952 7.9817623514631695 #
point $-1 -46.383251441999576 -6.1283504216647273 4.8618059778157301 #
straight-curve $-1 -46.383251441999576 0 7.9817623514631695 0 -1 0 I I #
vertex $-1 $305 $373 #
point $-1 -42.21003810085427 -3.3231187000018352 5.5306730542298599 #
vertex $-1 $309 $374 #
point $-1 -42.21003810085427 0.88472888249250303 5.5306730542298599 #
straight-curve $-1 -46.383251441999576 20.576401347725024 0 0 0 -1 I I #
point $-1 -46.383251441999576 -20.576401347725024 -7.9817623514631695 #
straight-curve $-1 -46.383251441999576 0 -7.9817623514631695 0 1 0 I I #
point $-1 -46.383251441999576 20.576401347725024 -7.9817623514631695 #
straight-curve $-1 46.383251441999576 -0.35571760964285737 65.508703734211977 0 0 -1 I I #
point $-1 46.383251441999576 -0.35571760964285737 7.9817623514631695 #
straight-curve $-1 46.383251441999576 2.212325138685479 3.1881941132902725 0 1 0 I I #
point $-1 46.383251441999576 -0.35571760964285737 3.1881941132902796 #
point $-1 41.752716221143729 1.5564295451626684 4.3129060947003941 #
point $-1 41.752716221143729 4.424650277370958 4.3129060947003941 #
point $-1 41.752716221143729 7.2928710095792475 4.3129060947003941 #
straight-curve $-1 -46.383251441999576 3.6899606041553952 41.331170603981278 0 0 -1 I I #
point $-1 -46.383251441999576 3.6899606041553952 7.9817623514631695 #
straight-curve $-1 -46.383251441999576 -0.60959745437733304 4.8618059778157345 0 -1 0 I I #
point $-1 -46.383251441999576 3.6899606041553952 4.8618059778157301 #
point $-1 -42.504069622014725 -3.3231187000018352 4.1473634487676296 #
point $-1 -42.504069622014725 0.88472888249250303 4.1473634487676296 #
End-of-ACIS-data 