500 0 9 0           
7 Unknown 11 ACIS 5.0 NT 24 Fri Mar 26 18:28:08 1999 
-1 9.9999999999999995e-007 1e-010 
body $-1 $9 $-1 $10 #
body $-1 $11 $-1 $12 #
body $-1 $13 $-1 $14 #
body $-1 $15 $-1 $16 #
body $-1 $17 $-1 $18 #
body $-1 $19 $-1 $20 #
body $-1 $21 $-1 $22 #
body $-1 $23 $-1 $24 #
body $-1 $25 $-1 $26 #
lump $-1 $-1 $27 $0 #
transform $-1 1 0 0 0 1 0 0 0 1 71.705069124423972 46.877569162747903 12.977706019654992 1 rotate no_reflect no_shear #
lump $-1 $-1 $28 $1 #
transform $-1 1 0 0 0 1 0 0 0 1 71.705069124423972 46.877569162747903 12.977706019654992 1 rotate no_reflect no_shear #
lump $-1 $-1 $29 $2 #
transform $-1 1 0 0 0 1 0 0 0 1 71.705069124423972 46.877569162747903 12.977706019654992 1 rotate no_reflect no_shear #
lump $-1 $-1 $30 $3 #
transform $-1 1 0 0 0 1 0 0 0 1 71.705069124423972 46.877569162747903 12.977706019654992 1 rotate no_reflect no_shear #
lump $-1 $-1 $31 $4 #
transform $-1 1 0 0 0 1 0 0 0 1 71.705069124423972 46.877569162747903 12.977706019654992 1 rotate no_reflect no_shear #
lump $-1 $-1 $32 $5 #
transform $-1 1 0 0 0 1 0 0 0 1 71.705069124423972 46.877569162747903 12.977706019654992 1 rotate no_reflect no_shear #
lump $-1 $-1 $33 $6 #
transform $-1 1 0 0 0 1 0 0 0 1 71.705069124423972 46.877569162747903 12.977706019654992 1 rotate no_reflect no_shear #
lump $-1 $-1 $34 $7 #
transform $-1 1 0 0 0 1 0 0 0 1 71.705069124423972 46.877569162747903 12.977706019654992 1 rotate no_reflect no_shear #
lump $-1 $-1 $35 $8 #
transform $-1 1 0 0 0 1 0 0 0 1 71.705069124423972 46.877569162747903 12.977706019654992 1 rotate no_reflect no_shear #
shell $-1 $-1 $-1 $36 $-1 $9 #
shell $-1 $-1 $-1 $37 $-1 $11 #
shell $-1 $-1 $-1 $38 $-1 $13 #
shell $-1 $-1 $-1 $39 $-1 $15 #
shell $-1 $-1 $-1 $40 $-1 $17 #
shell $-1 $-1 $-1 $41 $-1 $19 #
shell $-1 $-1 $-1 $42 $-1 $21 #
shell $-1 $-1 $-1 $43 $-1 $23 #
shell $-1 $-1 $-1 $44 $-1 $25 #
face $-1 $45 $46 $27 $-1 $47 forward single #
face $-1 $48 $49 $28 $-1 $50 reversed single #
face $-1 $51 $52 $29 $-1 $53 reversed single #
face $-1 $54 $55 $30 $-1 $56 reversed single #
face $-1 $57 $58 $31 $-1 $59 forward single #
face $-1 $60 $61 $32 $-1 $62 reversed single #
face $-1 $63 $64 $33 $-1 $65 forward single #
face $-1 $66 $67 $34 $-1 $68 forward single #
face $-1 $69 $70 $35 $-1 $71 forward single #
face $-1 $72 $73 $27 $-1 $74 reversed single #
loop $-1 $-1 $75 $36 #
plane-surface $-1 0 0 12.977706019654992 0 0 1 1 0 0 forward_v I I I I #
face $-1 $76 $77 $28 $-1 $78 reversed single #
loop $-1 $-1 $79 $37 #
plane-surface $-1 0 -41.733744663216399 6.9308958483094099 0 0 1 1 0 0 forward_v I I I I #
face $-1 $80 $81 $29 $-1 $82 reversed single #
loop $-1 $-1 $83 $38 #
plane-surface $-1 0 41.733744663216399 6.9308958483094099 0 0 1 1 0 0 forward_v I I I I #
face $-1 $84 $85 $30 $-1 $86 reversed single #
loop $-1 $-1 $87 $39 #
plane-surface $-1 -191.97893236661815 4.9009165852962724 87.68008129680419 0 1 0 -0.83867057594974714 0 0.54463902268945019 forward_v I I I I #
face $-1 $88 $89 $31 $-1 $90 forward single #
loop $-1 $91 $92 $40 #
cone-surface $-1 -69.965403412269751 8.6814022786510279 10.863628199315896 0.83867057594974714 0 -0.54463902268945019 0.2723195113447251 0 0.41933528797487357 1 I I 0 1 0.5 forward I I I I #
face $-1 $93 $94 $32 $-1 $95 reversed single #
loop $-1 $-1 $96 $41 #
plane-surface $-1 96.421705648719836 23.806954006216522 211.08852315292779 0 1 0 0.78801076186113728 0 0.61566146476048833 forward_v I I I I #
face $-1 $97 $98 $33 $-1 $99 forward single #
loop $-1 $100 $101 $42 #
cone-surface $-1 69.94347393825096 26.363547237710193 10.979994405764677 -0.78801076186113728 0 -0.61566146476048833 0.30783073238024417 0 -0.39400538093056864 1 I I 0 1 0.5 forward I I I I #
face $-1 $102 $103 $34 $-1 $104 forward single #
loop $-1 $105 $106 $43 #
cone-surface $-1 69.94347393825096 30.198437084950712 10.979994405764677 -0.78801076186113728 0 -0.61566146476048833 0.30783073238024417 0 -0.39400538093056864 1 I I 0 1 0.5 forward I I I I #
face $-1 $107 $108 $35 $-1 $109 forward single #
loop $-1 $110 $111 $44 #
cone-surface $-1 69.94347393825096 34.03332693219123 10.979994405764677 -0.78801076186113728 0 -0.61566146476048833 0.30783073238024417 0 -0.39400538093056864 1 I I 0 1 0.5 forward I I I I #
face $-1 $112 $113 $27 $-1 $114 reversed single #
loop $-1 $-1 $115 $45 #
plane-surface $-1 0 0 -12.977706019654992 0 0 1 1 0 0 forward_v I I I I #
coedge $-1 $116 $117 $118 $119 forward $46 $-1 #
face $-1 $120 $121 $28 $-1 $122 reversed single #
loop $-1 $-1 $123 $48 #
plane-surface $-1 0 -36.589920163684894 9.9543009339822 0 -1 0 0 0 -1 forward_v I I I I #
coedge $-1 $124 $125 $126 $127 reversed $49 $-1 #
face $-1 $128 $129 $29 $-1 $130 forward single #
loop $-1 $-1 $131 $51 #
plane-surface $-1 0 36.589920163684894 9.9543009339822 0 1 0 0 0 1 forward_v I I I I #
coedge $-1 $132 $133 $134 $135 reversed $52 $-1 #
face $-1 $136 $137 $30 $-1 $138 reversed single #
loop $-1 $-1 $139 $54 #
plane-surface $-1 -71.705069124423986 8.6814022786510279 9.5733237571927106 -0.83867057594974714 0 0.54463902268945019 0.54463902268945019 0 0.83867057594974714 forward_v I I I I #
coedge $-1 $140 $141 $142 $143 reversed $55 $-1 #
face $-1 $-1 $144 $31 $-1 $145 forward single #
loop $-1 $146 $147 $57 #
cone-surface $-1 -69.121485866256535 8.6814022786510279 10.315581754535582 0.83867057594974714 0 -0.54463902268945019 0.13615975567236255 0 0.20966764398743679 1 I I -0.70710678118654746 0.70710678118654746 0.25 forward I I I I #
loop $-1 $-1 $148 $40 #
coedge $-1 $92 $92 $149 $150 reversed $58 $-1 #
face $-1 $151 $152 $32 $-1 $153 reversed single #
loop $-1 $-1 $154 $60 #
plane-surface $-1 -16.587026651365861 30.198437084950712 122.79642737713793 0.78801076186113728 0 0.61566146476048833 0.61566146476048833 0 -0.78801076186113728 forward_v I I I I #
coedge $-1 $155 $156 $157 $158 reversed $61 $-1 #
face $-1 $-1 $159 $33 $-1 $160 forward single #
loop $-1 $161 $162 $63 #
cone-surface $-1 69.23103087610167 26.363547237710193 10.423372896985622 -0.78801076186113728 0 -0.61566146476048833 0.15391536619012208 0 -0.19700269046528432 1 I I -0.70710678118654746 0.70710678118654746 0.25 forward I I I I #
loop $-1 $-1 $163 $42 #
coedge $-1 $101 $101 $164 $165 reversed $64 $-1 #
face $-1 $-1 $166 $34 $-1 $167 forward single #
loop $-1 $168 $169 $66 #
cone-surface $-1 69.23103087610167 30.198437084950712 10.423372896985622 -0.78801076186113728 0 -0.61566146476048833 0.15391536619012208 0 -0.19700269046528432 1 I I -0.70710678118654746 0.70710678118654746 0.25 forward I I I I #
loop $-1 $-1 $170 $43 #
coedge $-1 $106 $106 $171 $172 reversed $67 $-1 #
face $-1 $-1 $173 $35 $-1 $174 forward single #
loop $-1 $175 $176 $69 #
cone-surface $-1 69.23103087610167 34.03332693219123 10.423372896985622 -0.78801076186113728 0 -0.61566146476048833 0.15391536619012208 0 -0.19700269046528432 1 I I -0.70710678118654746 0.70710678118654746 0.25 forward I I I I #
loop $-1 $-1 $177 $44 #
coedge $-1 $111 $111 $178 $179 reversed $70 $-1 #
face $-1 $180 $181 $27 $-1 $182 reversed single #
loop $-1 $-1 $183 $72 #
plane-surface $-1 0 -46.877569162747903 0 0 1 0 0 0 1 forward_v I I I I #
coedge $-1 $184 $185 $186 $187 forward $73 $-1 #
coedge $-1 $188 $75 $189 $190 forward $46 $-1 #
coedge $-1 $75 $188 $191 $192 forward $46 $-1 #
coedge $-1 $193 $194 $75 $119 reversed $195 $-1 #
edge $-1 $196 -46.877569162747903 $197 46.877569162747903 $118 $198 forward 7 unknown #
face $-1 $199 $200 $28 $-1 $201 reversed single #
loop $-1 $-1 $202 $76 #
plane-surface $-1 -71.705069124423972 0 0 1 0 0 0 0 -1 forward_v I I I I #
coedge $-1 $203 $204 $205 $206 reversed $77 $-1 #
coedge $-1 $207 $79 $208 $209 reversed $49 $-1 #
coedge $-1 $79 $207 $203 $210 forward $49 $-1 #
coedge $-1 $205 $211 $79 $127 forward $212 $-1 #
edge $-1 $213 -26.010696831139704 $214 -15.723047832076695 $126 $215 forward 7 unknown #
face $-1 $216 $217 $29 $-1 $218 reversed single #
loop $-1 $-1 $219 $80 #
plane-surface $-1 0 0 12.977706019654992 0 0 1 1 0 0 forward_v I I I I #
coedge $-1 $220 $221 $222 $223 reversed $81 $-1 #
coedge $-1 $224 $83 $220 $225 forward $52 $-1 #
coedge $-1 $83 $224 $226 $227 reversed $52 $-1 #
coedge $-1 $228 $229 $83 $135 forward $217 $-1 #
edge $-1 $230 15.723047832076695 $231 26.010696831139704 $134 $232 forward 7 unknown #
face $-1 $233 $234 $30 $-1 $235 reversed single #
loop $-1 $-1 $236 $84 #
plane-surface $-1 -191.97893236661815 12.461887972005783 87.68008129680419 0 -1 0 0.83867057594974714 0 -0.54463902268945019 forward_v I I I I #
coedge $-1 $237 $238 $239 $240 reversed $85 $-1 #
coedge $-1 $141 $87 $241 $242 reversed $55 $-1 #
coedge $-1 $87 $140 $237 $243 reversed $55 $-1 #
coedge $-1 $239 $244 $87 $143 forward $245 $-1 #
edge $-1 $246 24.284397058885105 $247 26.495228679141974 $142 $248 forward 7 unknown #
loop $-1 $-1 $149 $88 #
plane-surface $-1 -71.705069124423986 8.6814022786510279 9.5733237571927106 -0.83867057594974714 0 0.54463902268945019 0.54463902268945019 0 0.83867057594974714 forward_v I I I I #
loop $-1 $-1 $249 $57 #
coedge $-1 $147 $147 $148 $250 reversed $89 $-1 #
coedge $-1 $148 $148 $147 $250 forward $91 $-1 #
coedge $-1 $149 $149 $92 $150 forward $144 $-1 #
edge $-1 $251 0 $251 6.2831853071796004 $149 $252 forward 7 unknown #
face $-1 $253 $254 $32 $-1 $255 forward single #
loop $-1 $-1 $157 $93 #
plane-surface $-1 71.705069124423972 0 0 -1 0 0 0 0 1 forward_v I I I I #
coedge $-1 $256 $257 $258 $259 reversed $94 $-1 #
coedge $-1 $156 $96 $260 $261 reversed $61 $-1 #
coedge $-1 $96 $155 $256 $262 reversed $61 $-1 #
coedge $-1 $258 $263 $96 $158 forward $152 $-1 #
edge $-1 $264 92.566555556808908 $265 95.756566499411633 $157 $266 forward 7 unknown #
loop $-1 $-1 $164 $97 #
plane-surface $-1 -16.587026651365861 30.198437084950712 122.79642737713793 0.78801076186113728 0 0.61566146476048833 0.61566146476048833 0 -0.78801076186113728 forward_v I I I I #
loop $-1 $-1 $267 $63 #
coedge $-1 $162 $162 $163 $268 reversed $98 $-1 #
coedge $-1 $163 $163 $162 $268 forward $100 $-1 #
coedge $-1 $164 $164 $101 $165 forward $159 $-1 #
edge $-1 $269 0 $269 6.2831853071796004 $164 $270 forward 7 unknown #
loop $-1 $-1 $171 $102 #
plane-surface $-1 -16.587026651365861 30.198437084950712 122.79642737713793 0.78801076186113728 0 0.61566146476048833 0.61566146476048833 0 -0.78801076186113728 forward_v I I I I #
loop $-1 $-1 $271 $66 #
coedge $-1 $169 $169 $170 $272 reversed $103 $-1 #
coedge $-1 $170 $170 $169 $272 forward $105 $-1 #
coedge $-1 $171 $171 $106 $172 forward $166 $-1 #
edge $-1 $273 0 $273 6.2831853071796004 $171 $274 forward 7 unknown #
loop $-1 $-1 $178 $107 #
plane-surface $-1 -16.587026651365861 30.198437084950712 122.79642737713793 0.78801076186113728 0 0.61566146476048833 0.61566146476048833 0 -0.78801076186113728 forward_v I I I I #
loop $-1 $-1 $275 $69 #
coedge $-1 $176 $176 $177 $276 reversed $108 $-1 #
coedge $-1 $177 $177 $176 $276 forward $110 $-1 #
coedge $-1 $178 $178 $111 $179 forward $173 $-1 #
edge $-1 $277 0 $277 6.2831853071796004 $178 $278 forward 7 unknown #
face $-1 $279 $280 $27 $-1 $281 reversed single #
loop $-1 $-1 $282 $112 #
plane-surface $-1 -71.705069124423972 0 0 1 0 0 0 0 -1 forward_v I I I I #
coedge $-1 $283 $191 $284 $285 forward $113 $-1 #
coedge $-1 $286 $115 $283 $287 forward $73 $-1 #
coedge $-1 $115 $286 $288 $289 forward $73 $-1 #
coedge $-1 $194 $193 $115 $187 reversed $195 $-1 #
edge $-1 $290 -46.877569162747903 $291 46.877569162747903 $186 $292 forward 7 unknown #
coedge $-1 $117 $116 $293 $294 forward $46 $-1 #
coedge $-1 $295 $296 $116 $190 reversed $280 $-1 #
edge $-1 $197 -71.705069124423972 $297 71.705069124423972 $189 $298 forward 7 unknown #
coedge $-1 $183 $299 $117 $192 reversed $113 $-1 #
edge $-1 $300 -71.705069124423972 $196 71.705069124423972 $191 $301 forward 7 unknown #
coedge $-1 $186 $118 $299 $302 forward $195 $-1 #
coedge $-1 $118 $186 $295 $303 reversed $195 $-1 #
loop $-1 $-1 $193 $279 #
vertex $-1 $119 $304 #
vertex $-1 $119 $305 #
straight-curve $-1 71.705069124423972 0 12.977706019654992 0 1 0 I I #
face $-1 $306 $307 $28 $-1 $308 forward single #
loop $-1 $-1 $208 $120 #
plane-surface $-1 0 -46.877569162747903 0 0 1 0 0 0 1 forward_v I I I I #
coedge $-1 $309 $310 $311 $312 forward $121 $-1 #
coedge $-1 $311 $123 $125 $210 reversed $77 $-1 #
coedge $-1 $123 $311 $313 $314 reversed $77 $-1 #
coedge $-1 $315 $126 $123 $206 forward $212 $-1 #
edge $-1 $214 1.9537453813183099 $316 8.0005555526638901 $205 $317 forward 7 unknown #
coedge $-1 $125 $124 $309 $318 reversed $49 $-1 #
coedge $-1 $319 $320 $124 $209 forward $200 $-1 #
edge $-1 $321 -71.705069124423972 $213 71.705069124423972 $208 $322 forward 7 unknown #
edge $-1 $323 -71.705069124423972 $214 71.705069124423972 $203 $324 forward 7 unknown #
coedge $-1 $126 $315 $319 $325 forward $212 $-1 #
loop $-1 $-1 $205 $306 #
vertex $-1 $209 $326 #
vertex $-1 $127 $327 #
straight-curve $-1 71.705069124423972 -20.866872331608199 6.9308958483094099 0 1 0 I I #
face $-1 $328 $329 $29 $-1 $330 reversed single #
loop $-1 $-1 $229 $128 #
plane-surface $-1 71.705069124423972 0 0 -1 0 0 0 0 1 forward_v I I I I #
coedge $-1 $331 $332 $221 $333 forward $129 $-1 #
coedge $-1 $334 $131 $132 $225 reversed $81 $-1 #
coedge $-1 $131 $334 $219 $333 reversed $81 $-1 #
coedge $-1 $335 $336 $131 $223 forward $329 $-1 #
edge $-1 $337 1.9537453813183099 $338 8.0005555526638901 $222 $339 forward 7 unknown #
coedge $-1 $133 $132 $336 $340 reversed $52 $-1 #
edge $-1 $230 -71.705069124423972 $337 71.705069124423972 $220 $341 forward 7 unknown #
coedge $-1 $342 $343 $133 $227 forward $344 $-1 #
edge $-1 $231 -71.705069124423972 $345 71.705069124423972 $226 $346 forward 7 unknown #
coedge $-1 $347 $134 $343 $348 reversed $217 $-1 #
coedge $-1 $134 $347 $334 $349 forward $217 $-1 #
vertex $-1 $135 $350 #
vertex $-1 $227 $351 #
straight-curve $-1 71.705069124423972 20.866872331608199 6.9308958483094099 0 1 0 I I #
face $-1 $-1 $245 $30 $-1 $352 forward single #
loop $-1 $-1 $353 $136 #
plane-surface $-1 -71.705069124423972 0 0 1 0 0 0 0 -1 forward_v I I I I #
coedge $-1 $354 $355 $356 $357 reversed $137 $-1 #
coedge $-1 $358 $139 $141 $243 forward $85 $-1 #
coedge $-1 $139 $358 $354 $359 forward $85 $-1 #
coedge $-1 $356 $142 $139 $240 forward $245 $-1 #
edge $-1 $247 0.56021544597075845 $360 8.1211868326802694 $239 $361 forward 7 unknown #
coedge $-1 $362 $363 $140 $242 forward $234 $-1 #
edge $-1 $364 -34.266716891209363 $246 -30.862334628747103 $241 $365 forward 7 unknown #
edge $-1 $247 -4.0592604057999875 $364 -2.5617124586774352e-014 $141 $366 forward 7 unknown #
coedge $-1 $142 $356 $362 $367 forward $245 $-1 #
loop $-1 $-1 $356 $233 #
vertex $-1 $242 $368 #
vertex $-1 $143 $369 #
straight-curve $-1 -95.989466183309077 4.9009165852962724 12.977706019654988 1 0 0 I I #
coedge $-1 $249 $249 $-1 $370 reversed $146 $-1 #
edge $-1 $371 0 $371 6.2831853071796004 $147 $372 forward 7 unknown #
vertex $-1 $150 $373 #
ellipse-curve $-1 -70.599653314295537 8.6814022786510279 11.275514888423853 -0.83867057594974714 0 0.54463902268945019 0.2723195113447251 0 0.41933528797487357 1 I I #
face $-1 $-1 $374 $32 $-1 $375 forward single #
loop $-1 $-1 $260 $151 #
plane-surface $-1 0 0 12.977706019654992 0 0 1 1 0 0 forward_v I I I I #
coedge $-1 $376 $154 $156 $262 forward $94 $-1 #
coedge $-1 $154 $376 $377 $378 reversed $94 $-1 #
coedge $-1 $379 $157 $154 $259 forward $152 $-1 #
edge $-1 $265 8.7077354637411659 $380 21.490701621209539 $258 $381 forward 7 unknown #
coedge $-1 $382 $383 $155 $261 forward $254 $-1 #
edge $-1 $384 21.00190667108609 $264 23.494216300064053 $260 $385 forward 7 unknown #
edge $-1 $265 -143.41013824884791 $384 -139.36195629880893 $156 $386 forward 7 unknown #
coedge $-1 $157 $379 $382 $387 reversed $152 $-1 #
vertex $-1 $387 $388 #
vertex $-1 $158 $389 #
straight-curve $-1 71.705069124423972 23.806954006216522 105.5442615764639 0 0 -1 I I #
coedge $-1 $267 $267 $-1 $390 reversed $161 $-1 #
edge $-1 $391 0 $391 6.2831853071796004 $162 $392 forward 7 unknown #
vertex $-1 $165 $393 #
ellipse-curve $-1 70.458914309934997 26.363547237710193 11.382700548353633 0.78801076186113728 0 0.61566146476048833 0.30783073238024417 0 -0.39400538093056864 1 I I #
coedge $-1 $271 $271 $-1 $394 reversed $168 $-1 #
edge $-1 $395 0 $395 6.2831853071796004 $169 $396 forward 7 unknown #
vertex $-1 $172 $397 #
ellipse-curve $-1 70.458914309934997 30.198437084950712 11.382700548353633 0.78801076186113728 0 0.61566146476048833 0.30783073238024417 0 -0.39400538093056864 1 I I #
coedge $-1 $275 $275 $-1 $398 reversed $175 $-1 #
edge $-1 $399 0 $399 6.2831853071796004 $176 $400 forward 7 unknown #
vertex $-1 $179 $401 #
ellipse-curve $-1 70.458914309934997 34.03332693219123 11.382700548353633 0.78801076186113728 0 0.61566146476048833 0.30783073238024417 0 -0.39400538093056864 1 I I #
face $-1 $-1 $195 $27 $-1 $402 reversed single #
loop $-1 $-1 $295 $180 #
plane-surface $-1 0 46.877569162747903 0 0 -1 0 0 0 -1 forward_v I I I I #
coedge $-1 $403 $293 $296 $404 forward $181 $-1 #
coedge $-1 $299 $183 $184 $287 reversed $113 $-1 #
coedge $-1 $293 $403 $183 $285 reversed $181 $-1 #
edge $-1 $300 -12.977706019654992 $405 12.977706019654992 $284 $406 forward 7 unknown #
coedge $-1 $185 $184 $403 $407 forward $73 $-1 #
edge $-1 $291 -71.705069124423972 $405 71.705069124423972 $283 $408 forward 7 unknown #
coedge $-1 $296 $295 $185 $289 reversed $280 $-1 #
edge $-1 $409 -71.705069124423972 $290 71.705069124423972 $288 $410 forward 7 unknown #
vertex $-1 $187 $411 #
vertex $-1 $302 $412 #
straight-curve $-1 71.705069124423972 0 -12.977706019654992 0 -1 0 I I #
coedge $-1 $282 $284 $188 $294 reversed $181 $-1 #
edge $-1 $297 -46.877569162747903 $300 46.877569162747903 $293 $413 forward 7 unknown #
coedge $-1 $288 $189 $194 $303 forward $280 $-1 #
coedge $-1 $189 $288 $282 $404 reversed $280 $-1 #
vertex $-1 $190 $414 #
straight-curve $-1 0 46.877569162747903 12.977706019654992 -1 0 0 I I #
coedge $-1 $191 $283 $193 $302 reversed $113 $-1 #
vertex $-1 $294 $415 #
straight-curve $-1 0 -46.877569162747903 12.977706019654992 1 0 0 I I #
edge $-1 $196 -12.977706019654992 $291 12.977706019654992 $193 $416 forward 7 unknown #
edge $-1 $197 -12.977706019654992 $290 12.977706019654992 $194 $417 forward 7 unknown #
point $-1 71.705069124423972 -46.877569162747903 12.977706019654992 #
point $-1 71.705069124423972 46.877569162747903 12.977706019654992 #
face $-1 $-1 $212 $28 $-1 $418 reversed single #
loop $-1 $-1 $313 $199 #
plane-surface $-1 0 0 12.977706019654992 0 0 1 1 0 0 forward_v I I I I #
coedge $-1 $419 $202 $207 $318 forward $121 $-1 #
coedge $-1 $202 $419 $420 $421 reversed $121 $-1 #
coedge $-1 $204 $203 $202 $312 reversed $77 $-1 #
edge $-1 $422 -8.0005555526638901 $323 -1.9537453813183099 $202 $423 forward 7 unknown #
coedge $-1 $420 $424 $204 $314 forward $307 $-1 #
edge $-1 $316 -71.705069124423972 $422 71.705069124423972 $313 $425 forward 7 unknown #
coedge $-1 $211 $205 $424 $426 reversed $212 $-1 #
vertex $-1 $206 $427 #
straight-curve $-1 71.705069124423972 -36.589920163684894 4.9771504669911 0 0 1 I I #
edge $-1 $323 15.723047832076695 $321 26.010696831139704 $309 $428 forward 7 unknown #
coedge $-1 $429 $208 $211 $325 reversed $200 $-1 #
coedge $-1 $208 $429 $419 $430 forward $200 $-1 #
vertex $-1 $209 $431 #
straight-curve $-1 0 -46.877569162747903 6.9308958483094099 1 0 0 I I #
vertex $-1 $318 $432 #
straight-curve $-1 0 -36.589920163684894 6.9308958483094099 1 0 0 I I #
edge $-1 $433 -12.977706019654992 $213 -6.9308958483094099 $211 $434 forward 7 unknown #
point $-1 71.705069124423972 -46.877569162747903 6.9308958483094099 #
point $-1 71.705069124423972 -36.589920163684894 6.9308958483094099 #
face $-1 $-1 $344 $29 $-1 $435 reversed single #
loop $-1 $-1 $222 $216 #
plane-surface $-1 -71.705069124423972 0 0 1 0 0 0 0 -1 forward_v I I I I #
coedge $-1 $436 $219 $347 $437 forward $129 $-1 #
coedge $-1 $219 $436 $335 $438 forward $129 $-1 #
edge $-1 $338 -71.705069124423972 $439 71.705069124423972 $219 $440 forward 7 unknown #
coedge $-1 $221 $220 $229 $349 reversed $81 $-1 #
coedge $-1 $441 $222 $332 $438 reversed $329 $-1 #
coedge $-1 $222 $441 $224 $340 forward $329 $-1 #
vertex $-1 $340 $442 #
vertex $-1 $223 $443 #
straight-curve $-1 -71.705069124423972 36.589920163684894 4.9771504669911 0 0 1 I I #
edge $-1 $345 -26.010696831139704 $337 -15.723047832076695 $336 $444 forward 7 unknown #
straight-curve $-1 0 36.589920163684894 6.9308958483094099 -1 0 0 I I #
coedge $-1 $445 $226 $441 $446 reversed $344 $-1 #
coedge $-1 $226 $445 $228 $348 forward $344 $-1 #
loop $-1 $-1 $226 $328 #
vertex $-1 $227 $447 #
straight-curve $-1 0 46.877569162747903 6.9308958483094099 -1 0 0 I I #
coedge $-1 $229 $228 $331 $437 reversed $217 $-1 #
edge $-1 $448 -12.977706019654992 $231 -6.9308958483094099 $228 $449 forward 7 unknown #
edge $-1 $439 -8.0005555526638901 $230 -1.9537453813183099 $229 $450 forward 7 unknown #
point $-1 71.705069124423972 36.589920163684894 6.9308958483094099 #
point $-1 71.705069124423972 46.877569162747903 6.9308958483094099 #
plane-surface $-1 0 0 12.977706019654992 0 0 1 1 0 0 forward_v I I I I #
coedge $-1 $363 $362 $355 $451 forward $234 $-1 #
coedge $-1 $355 $236 $238 $359 reversed $137 $-1 #
coedge $-1 $236 $354 $353 $451 reversed $137 $-1 #
coedge $-1 $244 $239 $236 $357 forward $245 $-1 #
edge $-1 $360 -26.495228679141974 $452 -24.284397058885105 $356 $453 forward 7 unknown #
coedge $-1 $238 $237 $363 $454 reversed $85 $-1 #
edge $-1 $455 2.5617124586774352e-014 $360 4.0592604057999875 $354 $456 forward 7 unknown #
vertex $-1 $240 $457 #
straight-curve $-1 -69.494237504167103 4.3407011393255139 12.977706019654994 0 1 0 I I #
coedge $-1 $353 $241 $244 $367 reversed $234 $-1 #
coedge $-1 $241 $353 $358 $454 forward $234 $-1 #
vertex $-1 $242 $458 #
straight-curve $-1 -71.705069124423972 4.9009165852962724 43.840040648402095 0 0 1 I I #
straight-curve $-1 -71.705069124423986 4.9009165852962724 9.5733237571927106 -0.54463902268945019 0 -0.83867057594974714 I I #
edge $-1 $452 -12.461887972005783 $246 -4.9009165852962724 $362 $459 forward 7 unknown #
point $-1 -71.705069124423972 4.9009165852962724 12.977706019654992 #
point $-1 -69.494237504167103 4.9009165852962724 12.977706019654992 #
edge $-1 $460 1 $460 0 $249 $-1 forward 7 unknown #
vertex $-1 $250 $461 #
ellipse-curve $-1 -69.331153510243965 8.6814022786510279 10.451741510207945 -0.83867057594974714 0 0.54463902268945019 0.2723195113447251 0 0.41933528797487357 1 I I #
point $-1 -70.327333802950804 8.6814022786510279 11.694850176398722 #
loop $-1 $-1 $377 $253 #
plane-surface $-1 0 36.589920163684894 9.9543009339822 0 1 0 0 0 1 forward_v I I I I #
coedge $-1 $257 $256 $383 $462 reversed $94 $-1 #
coedge $-1 $463 $464 $257 $378 forward $374 $-1 #
edge $-1 $380 -93.843736672496362 $465 -89.795554722457382 $377 $466 forward 7 unknown #
coedge $-1 $263 $258 $464 $467 forward $152 $-1 #
vertex $-1 $467 $468 #
straight-curve $-1 71.705069124423972 15.099218542475356 9.7876950770522626 0 1 0 I I #
coedge $-1 $469 $260 $263 $387 forward $254 $-1 #
coedge $-1 $260 $469 $376 $462 forward $254 $-1 #
vertex $-1 $261 $470 #
straight-curve $-1 48.210852824359918 23.806954006216522 12.977706019654988 1 0 0 I I #
straight-curve $-1 -16.587026651365861 23.806954006216522 122.79642737713793 -0.61566146476048833 0 0.78801076186113728 I I #
edge $-1 $264 23.806954006216522 $471 36.589920163684894 $263 $472 forward 7 unknown #
point $-1 71.705069124423972 23.806954006216522 12.977706019654992 #
point $-1 71.705069124423986 23.806954006216522 9.7876950770522626 #
edge $-1 $473 1 $473 0 $267 $-1 forward 7 unknown #
vertex $-1 $268 $474 #
ellipse-curve $-1 69.428033566566953 26.363547237710193 10.577288263175744 0.78801076186113728 0 0.61566146476048833 0.30783073238024417 0 -0.39400538093056864 1 I I #
point $-1 70.766745042315208 26.363547237710193 10.988695167423039 #
edge $-1 $475 1 $475 0 $271 $-1 forward 7 unknown #
vertex $-1 $272 $476 #
ellipse-curve $-1 69.428033566566953 30.198437084950712 10.577288263175744 0.78801076186113728 0 0.61566146476048833 0.30783073238024417 0 -0.39400538093056864 1 I I #
point $-1 70.766745042315208 30.198437084950712 10.988695167423039 #
edge $-1 $477 1 $477 0 $275 $-1 forward 7 unknown #
vertex $-1 $276 $478 #
ellipse-curve $-1 69.428033566566953 34.03332693219123 10.577288263175744 0.78801076186113728 0 0.61566146476048833 0.30783073238024417 0 -0.39400538093056864 1 I I #
point $-1 70.766745042315208 34.03332693219123 10.988695167423039 #
plane-surface $-1 71.705069124423972 0 0 -1 0 0 0 0 1 forward_v I I I I #
coedge $-1 $284 $282 $286 $407 reversed $181 $-1 #
edge $-1 $297 -12.977706019654992 $409 12.977706019654992 $296 $479 forward 7 unknown #
vertex $-1 $407 $480 #
straight-curve $-1 -71.705069124423972 -46.877569162747903 0 0 0 -1 I I #
edge $-1 $405 -46.877569162747903 $409 46.877569162747903 $403 $481 forward 7 unknown #
straight-curve $-1 0 -46.877569162747903 -12.977706019654992 -1 0 0 I I #
vertex $-1 $289 $482 #
straight-curve $-1 0 46.877569162747903 -12.977706019654992 1 0 0 I I #
point $-1 71.705069124423972 46.877569162747903 -12.977706019654992 #
point $-1 71.705069124423972 -46.877569162747903 -12.977706019654992 #
straight-curve $-1 -71.705069124423972 0 12.977706019654992 0 -1 0 I I #
point $-1 -71.705069124423972 46.877569162747903 12.977706019654992 #
point $-1 -71.705069124423972 -46.877569162747903 12.977706019654992 #
straight-curve $-1 71.705069124423972 -46.877569162747903 0 0 0 -1 I I #
straight-curve $-1 71.705069124423972 46.877569162747903 0 0 0 -1 I I #
plane-surface $-1 71.705069124423972 0 0 -1 0 0 0 0 1 forward_v I I I I #
coedge $-1 $310 $309 $320 $430 reversed $121 $-1 #
coedge $-1 $483 $313 $310 $421 forward $307 $-1 #
edge $-1 $422 36.589920163684894 $484 46.877569162747903 $310 $485 forward 7 unknown #
vertex $-1 $421 $486 #
straight-curve $-1 -71.705069124423972 -36.589920163684894 4.9771504669911 0 0 -1 I I #
coedge $-1 $313 $483 $315 $426 forward $307 $-1 #
straight-curve $-1 0 -36.589920163684894 12.977706019654992 -1 0 0 I I #
edge $-1 $433 -46.877569162747903 $316 -36.589920163684894 $315 $487 forward 7 unknown #
point $-1 71.705069124423972 -36.589920163684894 12.97770601965499 #
straight-curve $-1 -71.705069124423972 -20.866872331608199 6.9308958483094099 0 -1 0 I I #
coedge $-1 $320 $319 $483 $488 reversed $200 $-1 #
edge $-1 $484 -12.977706019654992 $321 -6.9308958483094099 $419 $489 forward 7 unknown #
point $-1 -71.705069124423972 -46.877569162747903 6.9308958483094099 #
point $-1 -71.705069124423972 -36.589920163684894 6.9308958483094099 #
vertex $-1 $426 $490 #
straight-curve $-1 71.705069124423972 -46.877569162747903 0 0 0 -1 I I #
plane-surface $-1 0 46.877569162747903 0 0 -1 0 0 0 -1 forward_v I I I I #
coedge $-1 $332 $331 $445 $491 forward $129 $-1 #
edge $-1 $439 36.589920163684894 $448 46.877569162747903 $347 $492 forward 7 unknown #
edge $-1 $493 -46.877569162747903 $338 -36.589920163684894 $335 $494 forward 7 unknown #
vertex $-1 $437 $495 #
straight-curve $-1 0 36.589920163684894 12.977706019654992 1 0 0 I I #
coedge $-1 $336 $335 $342 $446 forward $329 $-1 #
point $-1 -71.705069124423972 36.589920163684894 6.9308958483094099 #
point $-1 -71.705069124423972 36.589920163684894 12.97770601965499 #
straight-curve $-1 -71.705069124423972 20.866872331608199 6.9308958483094099 0 -1 0 I I #
coedge $-1 $343 $342 $436 $491 reversed $344 $-1 #
edge $-1 $493 -12.977706019654992 $345 -6.9308958483094099 $342 $496 forward 7 unknown #
point $-1 -71.705069124423972 46.877569162747903 6.9308958483094099 #
vertex $-1 $437 $497 #
straight-curve $-1 71.705069124423972 46.877569162747903 0 0 0 -1 I I #
straight-curve $-1 71.705069124423972 36.589920163684894 4.9771504669911 0 0 -1 I I #
edge $-1 $452 30.862334628747103 $455 34.266716891209363 $353 $498 forward 7 unknown #
vertex $-1 $367 $499 #
straight-curve $-1 -95.989466183309077 12.461887972005783 12.977706019654988 -1 0 0 I I #
edge $-1 $455 -8.1211868326802694 $364 -0.56021544597075845 $363 $500 forward 7 unknown #
vertex $-1 $454 $501 #
straight-curve $-1 -71.705069124423986 12.461887972005783 9.5733237571927106 0.54463902268945019 0 0.83867057594974714 I I #
point $-1 -69.494237504167103 12.461887972005783 12.977706019654992 #
point $-1 -71.705069124423972 4.9009165852962724 9.5733237571927319 #
straight-curve $-1 -71.705069124423972 0 12.977706019654992 0 -1 0 I I #
vertex $-1 $370 $502 #
point $-1 -69.058833998899246 8.6814022786510279 10.871076798182818 #
edge $-1 $465 -21.490701621209546 $384 -8.7077354637411659 $383 $503 forward 7 unknown #
coedge $-1 $464 $377 $469 $504 reversed $374 $-1 #
coedge $-1 $377 $463 $379 $467 reversed $374 $-1 #
vertex $-1 $378 $505 #
straight-curve $-1 13.929096746037313 36.589920163684894 83.737569508242075 -0.61566146476048833 0 0.78801076186113728 I I #
edge $-1 $380 4.8105446100611786 $471 8.0005555526638901 $379 $506 forward 7 unknown #
point $-1 71.705069124423972 36.589920163684894 9.7876950770522786 #
coedge $-1 $383 $382 $463 $504 forward $254 $-1 #
point $-1 69.212759495446008 23.806954006216522 12.977706019654988 #
vertex $-1 $504 $507 #
straight-curve $-1 71.705069124423972 0 12.977706019654992 0 1 0 I I #
vertex $-1 $390 $508 #
point $-1 69.735864298947192 26.363547237710193 10.183282882245177 #
vertex $-1 $394 $509 #
point $-1 69.735864298947192 30.198437084950712 10.183282882245177 #
vertex $-1 $398 $510 #
point $-1 69.735864298947192 34.03332693219123 10.183282882245177 #
straight-curve $-1 -71.705069124423972 46.877569162747903 0 0 0 -1 I I #
point $-1 -71.705069124423972 -46.877569162747903 -12.977706019654992 #
straight-curve $-1 -71.705069124423972 0 -12.977706019654992 0 1 0 I I #
point $-1 -71.705069124423972 46.877569162747903 -12.977706019654992 #
coedge $-1 $424 $420 $429 $488 forward $307 $-1 #
vertex $-1 $421 $511 #
straight-curve $-1 -71.705069124423972 0 12.977706019654992 0 -1 0 I I #
point $-1 -71.705069124423972 -36.589920163684894 12.97770601965499 #
straight-curve $-1 71.705069124423972 0 12.977706019654992 0 1 0 I I #
edge $-1 $484 -71.705069124423972 $433 71.705069124423972 $429 $512 forward 7 unknown #
straight-curve $-1 -71.705069124423972 -46.877569162747903 0 0 0 -1 I I #
point $-1 71.705069124423972 -46.877569162747903 12.977706019654992 #
edge $-1 $448 -71.705069124423972 $493 71.705069124423972 $445 $513 forward 7 unknown #
straight-curve $-1 71.705069124423972 0 12.977706019654992 0 1 0 I I #
vertex $-1 $491 $514 #
straight-curve $-1 -71.705069124423972 0 12.977706019654992 0 -1 0 I I #
point $-1 71.705069124423972 36.589920163684894 12.97770601965499 #
straight-curve $-1 -71.705069124423972 46.877569162747903 0 0 0 -1 I I #
point $-1 71.705069124423972 46.877569162747903 12.977706019654992 #
straight-curve $-1 -71.705069124423972 12.461887972005783 43.840040648402095 0 0 -1 I I #
point $-1 -71.705069124423972 12.461887972005783 12.977706019654992 #
straight-curve $-1 -71.705069124423972 4.3407011393255139 9.5733237571927212 0 -1 0 I I #
point $-1 -71.705069124423972 12.461887972005783 9.5733237571927319 #
point $-1 -68.911818222269105 8.6814022786510279 10.179421998863219 #
straight-curve $-1 69.212759495446022 15.099218542475356 12.977706019654988 0 -1 0 I I #
edge $-1 $471 -71.705069124423972 $465 -69.212759495446008 $469 $515 forward 7 unknown #
point $-1 69.212759495446008 36.589920163684901 12.977706019654988 #
straight-curve $-1 71.705069124423972 36.589920163684894 4.9771504669911 0 0 1 I I #
point $-1 71.705069124423972 36.589920163684894 12.97770601965499 #
point $-1 69.034028185636387 26.363547237710193 10.269457530795501 #
point $-1 69.034028185636387 30.198437084950712 10.269457530795501 #
point $-1 69.034028185636387 34.03332693219123 10.269457530795501 #
point $-1 -71.705069124423972 -46.877569162747903 12.977706019654992 #
straight-curve $-1 0 -46.877569162747903 12.977706019654992 1 0 0 I I #
straight-curve $-1 0 46.877569162747903 12.977706019654992 -1 0 0 I I #
point $-1 -71.705069124423972 46.877569162747903 12.977706019654992 #
straight-curve $-1 0 36.589920163684894 12.977706019654992 -1 0 0 I I #
End-of-ACIS-data 