500 0 5 0           
7 Unknown 11 ACIS 5.0 NT 24 Fri Mar 26 02:39:38 1999 
-1 9.9999999999999995e-007 1e-010 
body $-1 $5 $-1 $6 #
body $-1 $7 $-1 $8 #
body $-1 $9 $-1 $10 #
body $-1 $11 $-1 $12 #
body $-1 $13 $-1 $14 #
lump $-1 $-1 $15 $0 #
transform $-1 1 0 0 0 1 0 0 0 1 73.045442060609759 51.112415071690194 17.608333843615849 1 rotate no_reflect no_shear #
lump $-1 $-1 $16 $1 #
transform $-1 1 0 0 0 1 0 0 0 1 73.045442060609759 51.112415071690194 17.608333843615849 1 rotate no_reflect no_shear #
lump $-1 $-1 $17 $2 #
transform $-1 1 0 0 0 1 0 0 0 1 73.045442060609759 51.112415071690194 17.608333843615849 1 rotate no_reflect no_shear #
lump $-1 $-1 $18 $3 #
transform $-1 1 0 0 0 1 0 0 0 1 73.045442060609759 51.112415071690194 17.608333843615849 1 rotate no_reflect no_shear #
lump $-1 $-1 $19 $4 #
transform $-1 1 0 0 0 1 0 0 0 1 73.045442060609759 51.112415071690194 17.608333843615849 1 rotate no_reflect no_shear #
shell $-1 $-1 $-1 $20 $-1 $5 #
shell $-1 $-1 $-1 $21 $-1 $7 #
shell $-1 $-1 $-1 $22 $-1 $9 #
shell $-1 $-1 $-1 $23 $-1 $11 #
shell $-1 $-1 $-1 $24 $-1 $13 #
face $-1 $25 $26 $15 $-1 $27 forward single #
face $-1 $28 $29 $16 $-1 $30 reversed single #
face $-1 $31 $32 $17 $-1 $33 forward single #
face $-1 $34 $35 $18 $-1 $36 reversed single #
face $-1 $37 $38 $19 $-1 $39 forward single #
face $-1 $40 $41 $15 $-1 $42 reversed single #
loop $-1 $-1 $43 $20 #
plane-surface $-1 0 0 17.608333843615849 0 0 1 1 0 0 forward_v I I I I #
face $-1 $44 $45 $16 $-1 $46 reversed single #
loop $-1 $-1 $47 $21 #
plane-surface $-1 -63.399103788570258 -49.643398033646328 0 0 1 0 0 0 1 forward_v I I I I #
face $-1 $48 $49 $17 $-1 $50 reversed single #
loop $-1 $-1 $51 $22 #
plane-surface $-1 62.379425042628895 0 13.433546734774673 0 0 1 1 0 0 forward_v I I I I #
face $-1 $52 $53 $18 $-1 $54 reversed single #
loop $-1 $-1 $55 $23 #
plane-surface $-1 24.490215507971612 -163.02452625369159 105.78262125670896 1 0 0 0 0.7660444514056185 -0.64278759981090561 forward_v I I I I #
face $-1 $56 $57 $19 $-1 $58 forward single #
loop $-1 $59 $60 $24 #
cone-surface $-1 38.101811766309822 -47.701425704083768 13.898220650251968 0 0.7660444514056185 -0.64278759981090561 1.5 0 0 1 I I 0 1 1.5 forward I I I I #
face $-1 $61 $62 $15 $-1 $63 reversed single #
loop $-1 $-1 $64 $25 #
plane-surface $-1 0 0 -17.608333843615849 0 0 1 1 0 0 forward_v I I I I #
coedge $-1 $65 $66 $67 $68 forward $26 $-1 #
face $-1 $69 $70 $16 $-1 $71 reversed single #
loop $-1 $-1 $72 $28 #
plane-surface $-1 -63.399103788570258 -41.683401516054111 0 0 -1 0 0 0 -1 forward_v I I I I #
coedge $-1 $73 $74 $75 $76 reversed $29 $-1 #
face $-1 $77 $78 $17 $-1 $79 reversed single #
loop $-1 $-1 $80 $31 #
plane-surface $-1 62.379425042628895 0 5.9475194682603458 0 0 1 1 0 0 forward_v I I I I #
coedge $-1 $81 $82 $83 $84 reversed $32 $-1 #
face $-1 $85 $86 $18 $-1 $87 forward single #
loop $-1 $-1 $88 $34 #
plane-surface $-1 38.101811766309822 -51.112415071690208 11.87721249817713 0 -0.7660444514056185 0.64278759981090561 1 0 0 forward_v I I I I #
coedge $-1 $89 $90 $91 $92 reversed $35 $-1 #
face $-1 $-1 $93 $19 $-1 $94 forward single #
loop $-1 $95 $96 $37 #
cone-surface $-1 38.101811766309822 -46.120393838565612 12.571577429749265 0 0.7660444514056185 -0.64278759981090561 0.75 0 0 1 I I -0.70710678118654757 0.70710678118654757 0.75 forward I I I I #
loop $-1 $-1 $97 $24 #
coedge $-1 $60 $60 $98 $99 reversed $38 $-1 #
face $-1 $100 $101 $15 $-1 $102 reversed single #
loop $-1 $-1 $103 $40 #
plane-surface $-1 0 -51.112415071690194 0 0 1 0 0 0 1 forward_v I I I I #
coedge $-1 $104 $105 $106 $107 forward $41 $-1 #
coedge $-1 $108 $43 $109 $110 forward $26 $-1 #
coedge $-1 $43 $108 $111 $112 forward $26 $-1 #
coedge $-1 $113 $114 $43 $68 reversed $115 $-1 #
edge $-1 $116 -51.112415071690194 $117 51.112415071690194 $67 $118 forward 7 unknown #
face $-1 $119 $120 $16 $-1 $121 reversed single #
loop $-1 $-1 $122 $44 #
plane-surface $-1 -53.752765516530758 -45.66339977485022 0 -1 0 0 0 0 1 forward_v I I I I #
coedge $-1 $123 $124 $125 $126 forward $45 $-1 #
coedge $-1 $127 $47 $128 $129 reversed $29 $-1 #
coedge $-1 $47 $127 $130 $131 reversed $29 $-1 #
coedge $-1 $132 $133 $47 $76 forward $134 $-1 #
edge $-1 $135 -17.608333843615849 $136 17.608333843615849 $75 $137 forward 7 unknown #
face $-1 $138 $139 $17 $-1 $140 reversed single #
loop $-1 $-1 $141 $48 #
plane-surface $-1 51.713408024648025 0 9.6905331015175094 1 0 0 0 0 -1 forward_v I I I I #
coedge $-1 $142 $143 $144 $145 reversed $49 $-1 #
coedge $-1 $146 $51 $147 $148 reversed $32 $-1 #
coedge $-1 $51 $146 $149 $150 reversed $32 $-1 #
coedge $-1 $151 $152 $51 $84 forward $139 $-1 #
edge $-1 $153 -51.112415071690194 $154 51.112415071690194 $83 $155 forward 7 unknown #
face $-1 $156 $157 $18 $-1 $158 forward single #
loop $-1 $-1 $159 $52 #
plane-surface $-1 51.713408024648025 0 9.6905331015175094 1 0 0 0 0 -1 forward_v I I I I #
coedge $-1 $160 $161 $162 $163 reversed $53 $-1 #
coedge $-1 $90 $55 $164 $165 reversed $35 $-1 #
coedge $-1 $55 $89 $160 $166 reversed $35 $-1 #
coedge $-1 $162 $167 $55 $92 forward $168 $-1 #
edge $-1 $169 35.282976784738636 $170 41.014098130177331 $91 $171 forward 7 unknown #
loop $-1 $-1 $98 $56 #
plane-surface $-1 38.101811766309822 -51.112415071690208 11.87721249817713 0 -0.7660444514056185 0.64278759981090561 1 0 0 forward_v I I I I #
loop $-1 $-1 $172 $37 #
coedge $-1 $96 $96 $97 $173 reversed $57 $-1 #
coedge $-1 $97 $97 $96 $173 forward $59 $-1 #
coedge $-1 $98 $98 $60 $99 forward $93 $-1 #
edge $-1 $174 -1.4910406039145479e-015 $174 6.2831853071795987 $98 $175 forward 7 unknown #
face $-1 $176 $177 $15 $-1 $178 reversed single #
loop $-1 $-1 $179 $61 #
plane-surface $-1 -73.045442060609759 0 0 1 0 0 0 0 -1 forward_v I I I I #
coedge $-1 $180 $111 $181 $182 forward $62 $-1 #
coedge $-1 $183 $64 $180 $184 forward $41 $-1 #
coedge $-1 $64 $183 $185 $186 forward $41 $-1 #
coedge $-1 $114 $113 $64 $107 reversed $115 $-1 #
edge $-1 $187 -51.112415071690194 $188 51.112415071690194 $106 $189 forward 7 unknown #
coedge $-1 $66 $65 $190 $191 forward $26 $-1 #
coedge $-1 $192 $193 $65 $110 reversed $177 $-1 #
edge $-1 $117 -73.045442060609759 $194 73.045442060609759 $109 $195 forward 7 unknown #
coedge $-1 $103 $196 $66 $112 reversed $62 $-1 #
edge $-1 $197 -73.045442060609759 $116 73.045442060609759 $111 $198 forward 7 unknown #
coedge $-1 $106 $67 $196 $199 forward $115 $-1 #
coedge $-1 $67 $106 $192 $200 reversed $115 $-1 #
loop $-1 $-1 $113 $176 #
vertex $-1 $68 $201 #
vertex $-1 $68 $202 #
straight-curve $-1 73.045442060609759 0 17.608333843615849 0 1 0 I I #
face $-1 $203 $204 $16 $-1 $205 forward single #
loop $-1 $-1 $206 $69 #
plane-surface $-1 0 0 -17.608333843615849 0 0 1 1 0 0 forward_v I I I I #
coedge $-1 $207 $208 $127 $209 forward $70 $-1 #
coedge $-1 $210 $72 $206 $211 reversed $45 $-1 #
coedge $-1 $72 $210 $212 $213 reversed $45 $-1 #
coedge $-1 $208 $207 $72 $126 reversed $70 $-1 #
edge $-1 $214 -17.608333843615849 $215 17.608333843615849 $125 $216 forward 7 unknown #
coedge $-1 $74 $73 $122 $209 reversed $29 $-1 #
coedge $-1 $217 $218 $73 $129 forward $120 $-1 #
edge $-1 $219 22.053213622245629 $135 41.345890166324629 $128 $220 forward 7 unknown #
coedge $-1 $221 $222 $74 $131 forward $204 $-1 #
edge $-1 $136 -41.345890166324629 $223 -22.053213622245629 $130 $224 forward 7 unknown #
coedge $-1 $225 $75 $222 $226 reversed $134 $-1 #
coedge $-1 $75 $225 $217 $227 reversed $134 $-1 #
loop $-1 $-1 $225 $203 #
vertex $-1 $227 $228 #
vertex $-1 $76 $229 #
straight-curve $-1 -73.045442060609759 -49.643398033646328 0 0 0 1 I I #
face $-1 $230 $231 $17 $-1 $232 reversed single #
loop $-1 $-1 $144 $77 #
plane-surface $-1 73.045442060609759 0 0 -1 0 0 0 0 1 forward_v I I I I #
coedge $-1 $233 $234 $235 $236 reversed $78 $-1 #
coedge $-1 $237 $80 $238 $239 reversed $49 $-1 #
coedge $-1 $80 $237 $240 $241 reversed $49 $-1 #
coedge $-1 $152 $151 $80 $145 forward $139 $-1 #
edge $-1 $242 -51.112415071690194 $243 51.112415071690194 $144 $244 forward 7 unknown #
coedge $-1 $82 $81 $234 $245 forward $32 $-1 #
coedge $-1 $246 $235 $81 $148 forward $231 $-1 #
edge $-1 $247 20.523695503333578 $153 41.855729539295311 $147 $248 forward 7 unknown #
coedge $-1 $249 $250 $82 $150 forward $251 $-1 #
edge $-1 $154 -41.855729539295311 $252 -20.523695503333578 $149 $253 forward 7 unknown #
coedge $-1 $144 $83 $250 $254 forward $139 $-1 #
coedge $-1 $83 $144 $246 $255 reversed $139 $-1 #
vertex $-1 $255 $256 #
vertex $-1 $254 $257 #
straight-curve $-1 73.045442060609759 0 13.433546734774673 0 -1 0 I I #
face $-1 $-1 $168 $18 $-1 $258 reversed single #
loop $-1 $-1 $259 $85 #
plane-surface $-1 0 0 17.608333843615849 0 0 1 1 0 0 forward_v I I I I #
coedge $-1 $260 $261 $161 $262 reversed $86 $-1 #
coedge $-1 $263 $88 $90 $166 forward $53 $-1 #
coedge $-1 $88 $263 $159 $262 forward $53 $-1 #
coedge $-1 $264 $91 $88 $163 forward $168 $-1 #
edge $-1 $170 5.4393096248167012 $265 32.662502141493114 $162 $266 forward 7 unknown #
coedge $-1 $267 $268 $89 $165 forward $157 $-1 #
edge $-1 $269 -35.208829736440542 $169 -30.399848055155601 $164 $270 forward 7 unknown #
edge $-1 $170 2.2742244199036027e-014 $269 7.481447499453405 $90 $271 forward 7 unknown #
coedge $-1 $91 $264 $267 $272 reversed $168 $-1 #
loop $-1 $-1 $162 $156 #
vertex $-1 $272 $273 #
vertex $-1 $92 $274 #
straight-curve $-1 24.490215507971612 -51.112415071690194 52.891310628354482 0 0 -1 I I #
coedge $-1 $172 $172 $-1 $275 reversed $95 $-1 #
edge $-1 $276 0 $276 6.2831853071796004 $96 $277 forward 7 unknown #
vertex $-1 $99 $278 #
ellipse-curve $-1 38.101811766309822 -48.70792423104772 14.742773170896498 0 -0.7660444514056185 0.64278759981090561 1.5 0 0 1 I I #
face $-1 $-1 $115 $15 $-1 $279 reversed single #
loop $-1 $-1 $192 $100 #
plane-surface $-1 0 51.112415071690194 0 0 -1 0 0 0 -1 forward_v I I I I #
coedge $-1 $280 $190 $193 $281 forward $101 $-1 #
coedge $-1 $196 $103 $104 $184 reversed $62 $-1 #
coedge $-1 $190 $280 $103 $182 reversed $101 $-1 #
edge $-1 $197 -17.608333843615849 $282 17.608333843615849 $181 $283 forward 7 unknown #
coedge $-1 $105 $104 $280 $284 forward $41 $-1 #
edge $-1 $188 -73.045442060609759 $282 73.045442060609759 $180 $285 forward 7 unknown #
coedge $-1 $193 $192 $105 $186 reversed $177 $-1 #
edge $-1 $286 -73.045442060609759 $187 73.045442060609759 $185 $287 forward 7 unknown #
vertex $-1 $107 $288 #
vertex $-1 $199 $289 #
straight-curve $-1 73.045442060609759 0 -17.608333843615849 0 -1 0 I I #
coedge $-1 $179 $181 $108 $191 reversed $101 $-1 #
edge $-1 $194 -51.112415071690194 $197 51.112415071690194 $190 $290 forward 7 unknown #
coedge $-1 $185 $109 $114 $200 forward $177 $-1 #
coedge $-1 $109 $185 $179 $281 reversed $177 $-1 #
vertex $-1 $110 $291 #
straight-curve $-1 0 51.112415071690194 17.608333843615849 -1 0 0 I I #
coedge $-1 $111 $180 $113 $199 reversed $62 $-1 #
vertex $-1 $191 $292 #
straight-curve $-1 0 -51.112415071690194 17.608333843615849 1 0 0 I I #
edge $-1 $116 -17.608333843615849 $188 17.608333843615849 $113 $293 forward 7 unknown #
edge $-1 $117 -17.608333843615849 $187 17.608333843615849 $114 $294 forward 7 unknown #
point $-1 73.045442060609759 -51.112415071690194 17.608333843615849 #
point $-1 73.045442060609759 51.112415071690194 17.608333843615849 #
face $-1 $-1 $134 $16 $-1 $295 reversed single #
loop $-1 $-1 $212 $119 #
plane-surface $-1 0 0 17.608333843615849 0 0 1 1 0 0 forward_v I I I I #
coedge $-1 $218 $217 $123 $211 forward $120 $-1 #
coedge $-1 $125 $122 $218 $296 reversed $70 $-1 #
coedge $-1 $122 $125 $221 $297 reversed $70 $-1 #
edge $-1 $223 -17.608333843615849 $219 17.608333843615849 $122 $298 forward 7 unknown #
coedge $-1 $124 $123 $225 $299 reversed $45 $-1 #
edge $-1 $300 -41.345890166324629 $215 -22.053213622245629 $206 $301 forward 7 unknown #
coedge $-1 $222 $221 $124 $213 forward $204 $-1 #
edge $-1 $214 22.053213622245629 $302 41.345890166324629 $212 $303 forward 7 unknown #
vertex $-1 $213 $304 #
vertex $-1 $211 $305 #
straight-curve $-1 -53.752765516530758 -41.683401516054111 0 0 0 -1 I I #
coedge $-1 $206 $128 $133 $227 forward $120 $-1 #
coedge $-1 $128 $206 $207 $296 forward $120 $-1 #
vertex $-1 $129 $306 #
straight-curve $-1 -31.699551894285129 -49.643398033646328 -17.608333843615849 -1 0 0 I I #
coedge $-1 $212 $130 $208 $297 forward $204 $-1 #
coedge $-1 $130 $212 $132 $226 forward $204 $-1 #
vertex $-1 $131 $307 #
straight-curve $-1 -31.699551894285129 -49.643398033646328 17.608333843615849 1 0 0 I I #
coedge $-1 $133 $132 $210 $299 forward $134 $-1 #
edge $-1 $302 41.683401516054111 $136 49.643398033646328 $132 $308 forward 7 unknown #
edge $-1 $135 -49.643398033646328 $300 -41.683401516054111 $133 $309 forward 7 unknown #
point $-1 -73.045442060609759 -49.643398033646328 -17.608333843615849 #
point $-1 -73.045442060609759 -49.643398033646328 17.608333843615849 #
face $-1 $-1 $251 $17 $-1 $310 reversed single #
loop $-1 $-1 $240 $138 #
plane-surface $-1 0 51.112415071690194 0 0 -1 0 0 0 -1 forward_v I I I I #
coedge $-1 $311 $141 $237 $312 reversed $78 $-1 #
coedge $-1 $141 $311 $146 $245 reversed $78 $-1 #
coedge $-1 $147 $240 $141 $236 forward $231 $-1 #
edge $-1 $313 1.1022529175015912 $247 8.5882801840159182 $235 $314 forward 7 unknown #
coedge $-1 $143 $142 $233 $312 forward $49 $-1 #
coedge $-1 $250 $249 $142 $239 forward $251 $-1 #
edge $-1 $315 20.523695503333578 $242 41.855729539295311 $238 $316 forward 7 unknown #
coedge $-1 $235 $246 $143 $241 forward $231 $-1 #
edge $-1 $243 -41.855729539295311 $313 -20.523695503333578 $240 $317 forward 7 unknown #
vertex $-1 $145 $318 #
vertex $-1 $145 $319 #
straight-curve $-1 73.045442060609759 0 5.9475194682603458 0 1 0 I I #
edge $-1 $247 -51.112415071690194 $252 51.112415071690194 $234 $320 forward 7 unknown #
coedge $-1 $240 $147 $152 $255 forward $231 $-1 #
vertex $-1 $148 $321 #
straight-curve $-1 31.189712521314448 51.112415071690194 13.433546734774673 1 0 0 I I #
coedge $-1 $238 $149 $311 $322 forward $251 $-1 #
coedge $-1 $149 $238 $151 $254 reversed $251 $-1 #
loop $-1 $-1 $238 $230 #
vertex $-1 $150 $323 #
straight-curve $-1 31.189712521314448 -51.112415071690194 13.433546734774673 -1 0 0 I I #
edge $-1 $154 -13.433546734774673 $242 -5.9475194682603458 $151 $324 forward 7 unknown #
edge $-1 $153 -13.433546734774673 $243 -5.9475194682603458 $152 $325 forward 7 unknown #
point $-1 73.045442060609759 51.112415071690194 13.433546734774673 #
point $-1 73.045442060609759 -51.112415071690194 13.433546734774673 #
plane-surface $-1 0 -51.112415071690194 0 0 1 0 0 0 1 forward_v I I I I #
coedge $-1 $268 $267 $260 $326 forward $157 $-1 #
coedge $-1 $261 $159 $259 $326 reversed $86 $-1 #
coedge $-1 $159 $260 $264 $327 reversed $86 $-1 #
edge $-1 $328 -7.481447499453405 $265 -2.2742244199036027e-014 $159 $329 forward 7 unknown #
coedge $-1 $161 $160 $268 $330 reversed $53 $-1 #
coedge $-1 $167 $162 $261 $327 forward $168 $-1 #
vertex $-1 $327 $331 #
straight-curve $-1 19.050905883154911 -51.112415071690194 11.877212498177146 1 0 0 I I #
coedge $-1 $259 $164 $167 $272 forward $157 $-1 #
coedge $-1 $164 $259 $263 $330 forward $157 $-1 #
vertex $-1 $165 $332 #
straight-curve $-1 24.490215507971612 -81.512263126845795 17.608333843615853 0 -1 0 I I #
straight-curve $-1 24.490215507971612 -51.112415071690208 11.87721249817713 0 0.64278759981090561 0.7660444514056185 I I #
edge $-1 $169 24.490215507971612 $333 51.713408024648032 $167 $334 forward 7 unknown #
point $-1 24.490215507971612 -51.112415071690194 17.608333843615849 #
point $-1 24.490215507971612 -51.112415071690194 11.877212498177148 #
edge $-1 $335 1 $335 0 $172 $-1 forward 7 unknown #
vertex $-1 $173 $336 #
ellipse-curve $-1 38.101811766309822 -46.694927177119823 13.053668129607445 0 -0.7660444514056185 0.64278759981090561 1.5 0 0 1 I I #
point $-1 39.601811766309822 -48.707924231047713 14.74277317089649 #
plane-surface $-1 73.045442060609759 0 0 -1 0 0 0 0 1 forward_v I I I I #
coedge $-1 $181 $179 $183 $284 reversed $101 $-1 #
edge $-1 $194 -17.608333843615849 $286 17.608333843615849 $193 $337 forward 7 unknown #
vertex $-1 $284 $338 #
straight-curve $-1 -73.045442060609759 -51.112415071690194 0 0 0 -1 I I #
edge $-1 $282 -51.112415071690194 $286 51.112415071690194 $280 $339 forward 7 unknown #
straight-curve $-1 0 -51.112415071690194 -17.608333843615849 -1 0 0 I I #
vertex $-1 $186 $340 #
straight-curve $-1 0 51.112415071690194 -17.608333843615849 1 0 0 I I #
point $-1 73.045442060609759 51.112415071690194 -17.608333843615849 #
point $-1 73.045442060609759 -51.112415071690194 -17.608333843615849 #
straight-curve $-1 -73.045442060609759 0 17.608333843615849 0 -1 0 I I #
point $-1 -73.045442060609759 51.112415071690194 17.608333843615849 #
point $-1 -73.045442060609759 -51.112415071690194 17.608333843615849 #
straight-curve $-1 73.045442060609759 -51.112415071690194 0 0 0 -1 I I #
straight-curve $-1 73.045442060609759 51.112415071690194 0 0 0 -1 I I #
plane-surface $-1 -73.045442060609759 0 0 1 0 0 0 0 -1 forward_v I I I I #
edge $-1 $215 18.851701628629002 $219 26.811698146221218 $218 $341 forward 7 unknown #
edge $-1 $223 -26.811698146221218 $214 -18.851701628629002 $221 $342 forward 7 unknown #
straight-curve $-1 -53.752765516530758 -49.643398033646328 0 0 0 -1 I I #
edge $-1 $302 -17.608333843615849 $300 17.608333843615849 $225 $343 forward 7 unknown #
vertex $-1 $299 $344 #
straight-curve $-1 -31.699551894285129 -41.683401516054111 -17.608333843615849 1 0 0 I I #
vertex $-1 $226 $345 #
straight-curve $-1 -31.699551894285129 -41.683401516054111 17.608333843615849 -1 0 0 I I #
point $-1 -53.752765516530758 -41.683401516054111 17.608333843615849 #
point $-1 -53.752765516530758 -41.683401516054111 -17.608333843615849 #
point $-1 -53.752765516530758 -49.643398033646328 -17.608333843615849 #
point $-1 -53.752765516530758 -49.643398033646328 17.608333843615849 #
straight-curve $-1 -73.045442060609759 0 17.608333843615849 0 -1 0 I I #
straight-curve $-1 -73.045442060609759 0 -17.608333843615849 0 1 0 I I #
plane-surface $-1 0 -51.112415071690194 0 0 1 0 0 0 1 forward_v I I I I #
coedge $-1 $234 $233 $249 $322 reversed $78 $-1 #
edge $-1 $315 -51.112415071690194 $313 51.112415071690194 $233 $346 forward 7 unknown #
vertex $-1 $241 $347 #
straight-curve $-1 51.713408024648025 51.112415071690194 4.8452665507587547 0 0 1 I I #
vertex $-1 $239 $348 #
straight-curve $-1 31.189712521314448 -51.112415071690194 5.9475194682603458 1 0 0 I I #
straight-curve $-1 31.189712521314448 51.112415071690194 5.9475194682603458 -1 0 0 I I #
point $-1 73.045442060609759 -51.112415071690194 5.9475194682603458 #
point $-1 73.045442060609759 51.112415071690194 5.9475194682603458 #
straight-curve $-1 51.713408024648025 0 13.433546734774673 0 -1 0 I I #
point $-1 51.713408024648025 51.112415071690194 13.433546734774673 #
edge $-1 $252 -8.5882801840159182 $315 -1.1022529175015912 $249 $349 forward 7 unknown #
point $-1 51.713408024648025 -51.112415071690194 13.433546734774673 #
straight-curve $-1 73.045442060609759 -51.112415071690194 0 0 0 -1 I I #
straight-curve $-1 73.045442060609759 51.112415071690194 0 0 0 -1 I I #
edge $-1 $333 30.399848055155601 $328 35.208829736440542 $259 $350 forward 7 unknown #
edge $-1 $265 -41.014098130177331 $333 -35.282976784738636 $264 $351 forward 7 unknown #
vertex $-1 $330 $352 #
straight-curve $-1 51.713408024648032 -51.112415071690208 11.87721249817713 0 -0.64278759981090561 -0.7660444514056185 I I #
edge $-1 $328 -32.662502141493121 $269 -5.4393096248167012 $268 $353 forward 7 unknown #
point $-1 51.713408024648025 -51.112415071690194 11.877212498177148 #
point $-1 24.490215507971612 -46.303433390405253 17.608333843615849 #
vertex $-1 $327 $354 #
straight-curve $-1 0 -51.112415071690194 17.608333843615849 1 0 0 I I #
vertex $-1 $275 $355 #
point $-1 39.601811766309822 -46.694927177119823 13.053668129607445 #
straight-curve $-1 -73.045442060609759 51.112415071690194 0 0 0 -1 I I #
point $-1 -73.045442060609759 -51.112415071690194 -17.608333843615849 #
straight-curve $-1 -73.045442060609759 0 -17.608333843615849 0 1 0 I I #
point $-1 -73.045442060609759 51.112415071690194 -17.608333843615849 #
straight-curve $-1 -53.752765516530758 -22.83169988742511 -17.608333843615849 0 -1 0 I I #
straight-curve $-1 -53.752765516530758 -22.83169988742511 17.608333843615849 0 1 0 I I #
straight-curve $-1 -73.045442060609759 -41.683401516054111 0 0 0 -1 I I #
point $-1 -73.045442060609759 -41.683401516054111 -17.608333843615849 #
point $-1 -73.045442060609759 -41.683401516054111 17.608333843615849 #
straight-curve $-1 51.713408024648025 0 5.9475194682603458 0 1 0 I I #
point $-1 51.713408024648025 51.112415071690194 5.9475194682603458 #
point $-1 51.713408024648025 -51.112415071690194 5.9475194682603458 #
straight-curve $-1 51.713408024648025 -51.112415071690194 4.8452665507587547 0 0 -1 I I #
straight-curve $-1 51.713408024648032 -81.512263126845795 17.608333843615853 0 1 0 I I #
straight-curve $-1 51.713408024648032 -51.112415071690194 52.891310628354482 0 0 1 I I #
point $-1 51.713408024648032 -46.303433390405253 17.608333843615849 #
straight-curve $-1 19.050905883154911 -46.303433390405246 17.608333843615849 -1 0 0 I I #
point $-1 51.713408024648032 -51.112415071690194 17.608333843615849 #
point $-1 38.101811766309822 -45.545860500011401 12.089486729891085 #
End-of-ACIS-data 