500 0 8 0           
7 Unknown 11 ACIS 5.0 NT 24 Thu Mar 25 20:38:00 1999 
-1 9.9999999999999995e-007 1e-010 
body $-1 $8 $-1 $9 #
body $-1 $10 $-1 $11 #
body $-1 $12 $-1 $13 #
body $-1 $14 $-1 $15 #
body $-1 $16 $-1 $17 #
body $-1 $18 $-1 $19 #
body $-1 $20 $-1 $21 #
body $-1 $22 $-1 $23 #
lump $-1 $-1 $24 $0 #
transform $-1 1 0 0 0 1 0 0 0 1 70.110782189397867 46.343040875330345 13.319363611054522 1 rotate no_reflect no_shear #
lump $-1 $-1 $25 $1 #
transform $-1 1 0 0 0 1 0 0 0 1 70.110782189397867 46.343040875330345 13.319363611054522 1 rotate no_reflect no_shear #
lump $-1 $-1 $26 $2 #
transform $-1 1 0 0 0 1 0 0 0 1 70.110782189397867 46.343040875330345 13.319363611054522 1 rotate no_reflect no_shear #
lump $-1 $-1 $27 $3 #
transform $-1 1 0 0 0 1 0 0 0 1 70.110782189397867 46.343040875330345 13.319363611054522 1 rotate no_reflect no_shear #
lump $-1 $-1 $28 $4 #
transform $-1 1 0 0 0 1 0 0 0 1 70.110782189397867 46.343040875330345 13.319363611054522 1 rotate no_reflect no_shear #
lump $-1 $-1 $29 $5 #
transform $-1 1 0 0 0 1 0 0 0 1 70.110782189397867 46.343040875330345 13.319363611054522 1 rotate no_reflect no_shear #
lump $-1 $-1 $30 $6 #
transform $-1 1 0 0 0 1 0 0 0 1 70.110782189397867 46.343040875330345 13.319363611054522 1 rotate no_reflect no_shear #
lump $-1 $-1 $31 $7 #
transform $-1 1 0 0 0 1 0 0 0 1 70.110782189397867 46.343040875330345 13.319363611054522 1 rotate no_reflect no_shear #
shell $-1 $-1 $-1 $32 $-1 $8 #
shell $-1 $-1 $-1 $33 $-1 $10 #
shell $-1 $-1 $-1 $34 $-1 $12 #
shell $-1 $-1 $-1 $35 $-1 $14 #
shell $-1 $-1 $-1 $36 $-1 $16 #
shell $-1 $-1 $-1 $37 $-1 $18 #
shell $-1 $-1 $-1 $38 $-1 $20 #
shell $-1 $-1 $-1 $39 $-1 $22 #
face $-1 $40 $41 $24 $-1 $42 forward single #
face $-1 $43 $44 $25 $-1 $45 forward single #
face $-1 $46 $47 $26 $-1 $48 reversed single #
face $-1 $49 $50 $27 $-1 $51 forward single #
face $-1 $52 $53 $28 $-1 $54 forward single #
face $-1 $55 $56 $29 $-1 $57 reversed single #
face $-1 $58 $59 $30 $-1 $60 forward single #
face $-1 $61 $62 $31 $-1 $63 forward single #
face $-1 $64 $65 $24 $-1 $66 reversed single #
loop $-1 $-1 $67 $32 #
plane-surface $-1 0 0 13.319363611054522 0 0 1 1 0 0 forward_v I I I I #
face $-1 $68 $69 $25 $-1 $70 reversed single #
loop $-1 $-1 $71 $33 #
plane-surface $-1 -70.110782189397867 0 0 1 0 0 0 0 -1 forward_v I I I I #
face $-1 $72 $73 $26 $-1 $74 reversed single #
loop $-1 $-1 $75 $34 #
plane-surface $-1 -2.3304658556296687 -159.78467058315795 89.458572258142325 -1 0 0 0 -0.80901700255871778 0.5877852410284794 forward_v I I I I #
face $-1 $76 $77 $27 $-1 $78 forward single #
loop $-1 $79 $80 $35 #
cone-surface $-1 -12.849795336674973 -42.840065285507421 9.2915699451361728 0 0.80901700255871778 -0.5877852410284794 1.5 0 0 1 I I 0 1 1.5 forward I I I I #
face $-1 $81 $82 $28 $-1 $83 forward single #
loop $-1 $84 $85 $36 #
cone-surface $-1 -6.5381976480477988 -42.840065285507421 9.2915699451361728 0 0.80901700255871778 -0.5877852410284794 1.5 0 0 1 I I 0 1 1.5 forward I I I I #
face $-1 $86 $87 $29 $-1 $88 reversed single #
loop $-1 $-1 $89 $37 #
plane-surface $-1 27.608770329967371 -159.78467058315795 89.458572258142325 -1 0 0 0 -0.80901700255871778 0.5877852410284794 forward_v I I I I #
face $-1 $90 $91 $30 $-1 $92 forward single #
loop $-1 $93 $94 $38 #
cone-surface $-1 17.089440848922067 -42.840065285507421 9.2915699451361728 0 0.80901700255871778 -0.5877852410284794 1.5 0 0 1 I I 0 1 1.5 forward I I I I #
face $-1 $95 $96 $31 $-1 $97 forward single #
loop $-1 $98 $99 $39 #
cone-surface $-1 23.40103853754924 -42.840065285507421 9.2915699451361728 0 0.80901700255871778 -0.5877852410284794 1.5 0 0 1 I I 0 1 1.5 forward I I I I #
face $-1 $100 $101 $24 $-1 $102 reversed single #
loop $-1 $-1 $103 $40 #
plane-surface $-1 0 0 -13.319363611054522 0 0 1 1 0 0 forward_v I I I I #
coedge $-1 $104 $105 $106 $107 forward $41 $-1 #
face $-1 $108 $109 $25 $-1 $110 forward single #
loop $-1 $-1 $111 $43 #
plane-surface $-1 0 46.343040875330345 0 0 -1 0 0 0 -1 forward_v I I I I #
coedge $-1 $112 $113 $114 $115 forward $44 $-1 #
face $-1 $116 $117 $26 $-1 $118 reversed single #
loop $-1 $-1 $119 $46 #
plane-surface $-1 -9.6939964923613786 -46.343040875330345 7.0384062423614324 0 -0.80901700255871778 0.5877852410284794 1 0 0 forward_v I I I I #
coedge $-1 $120 $121 $122 $123 reversed $47 $-1 #
face $-1 $-1 $124 $27 $-1 $125 forward single #
loop $-1 $126 $127 $49 #
cone-surface $-1 -12.849795336674973 -41.012018199431566 7.9634160327930044 0 0.80901700255871778 -0.5877852410284794 0.75 0 0 1 I I -0.70710678118654757 0.70710678118654757 0.75 forward I I I I #
loop $-1 $-1 $128 $35 #
coedge $-1 $80 $80 $129 $130 reversed $50 $-1 #
face $-1 $-1 $131 $28 $-1 $132 forward single #
loop $-1 $133 $134 $52 #
cone-surface $-1 -6.5381976480477988 -41.012018199431566 7.9634160327930044 0 0.80901700255871778 -0.5877852410284794 0.75 0 0 1 I I -0.70710678118654757 0.70710678118654757 0.75 forward I I I I #
loop $-1 $-1 $135 $36 #
coedge $-1 $85 $85 $136 $137 reversed $53 $-1 #
face $-1 $138 $139 $29 $-1 $140 reversed single #
loop $-1 $-1 $141 $55 #
plane-surface $-1 20.245239693235661 -46.343040875330345 7.0384062423614324 0 -0.80901700255871778 0.5877852410284794 1 0 0 forward_v I I I I #
coedge $-1 $142 $143 $144 $145 reversed $56 $-1 #
face $-1 $-1 $146 $30 $-1 $147 forward single #
loop $-1 $148 $149 $58 #
cone-surface $-1 17.089440848922067 -41.012018199431566 7.9634160327930044 0 0.80901700255871778 -0.5877852410284794 0.75 0 0 1 I I -0.70710678118654757 0.70710678118654757 0.75 forward I I I I #
loop $-1 $-1 $150 $38 #
coedge $-1 $94 $94 $151 $152 reversed $59 $-1 #
face $-1 $-1 $153 $31 $-1 $154 forward single #
loop $-1 $155 $156 $61 #
cone-surface $-1 23.40103853754924 -41.012018199431566 7.9634160327930044 0 0.80901700255871778 -0.5877852410284794 0.75 0 0 1 I I -0.70710678118654757 0.70710678118654757 0.75 forward I I I I #
loop $-1 $-1 $157 $39 #
coedge $-1 $99 $99 $158 $159 reversed $62 $-1 #
face $-1 $160 $161 $24 $-1 $162 reversed single #
loop $-1 $-1 $163 $64 #
plane-surface $-1 0 -46.343040875330345 0 0 1 0 0 0 1 forward_v I I I I #
coedge $-1 $164 $165 $166 $167 forward $65 $-1 #
coedge $-1 $168 $67 $169 $170 forward $41 $-1 #
coedge $-1 $67 $168 $171 $172 forward $41 $-1 #
coedge $-1 $173 $174 $67 $107 reversed $175 $-1 #
edge $-1 $176 -46.343040875330345 $177 46.343040875330345 $106 $178 forward 7 unknown #
face $-1 $179 $180 $25 $-1 $181 reversed single #
loop $-1 $-1 $114 $68 #
plane-surface $-1 -75.386403789835015 0 -8.0513717739457125 0 0 1 1 0 0 forward_v I I I I #
coedge $-1 $182 $183 $113 $184 forward $69 $-1 #
coedge $-1 $185 $71 $186 $187 reversed $44 $-1 #
coedge $-1 $71 $185 $111 $184 reversed $44 $-1 #
coedge $-1 $188 $189 $71 $115 reversed $109 $-1 #
edge $-1 $190 -46.343040875330345 $191 46.343040875330345 $114 $192 forward 7 unknown #
face $-1 $193 $194 $26 $-1 $195 reversed single #
loop $-1 $-1 $196 $72 #
plane-surface $-1 -17.057527129093089 -159.78467058315795 89.458572258142325 1 0 0 0 0.80901700255871778 -0.5877852410284794 forward_v I I I I #
coedge $-1 $197 $198 $199 $200 reversed $73 $-1 #
coedge $-1 $121 $75 $201 $202 reversed $47 $-1 #
coedge $-1 $75 $120 $197 $203 reversed $47 $-1 #
coedge $-1 $199 $204 $75 $123 forward $205 $-1 #
edge $-1 $206 33.549294416248628 $207 38.112676927580857 $122 $208 forward 7 unknown #
loop $-1 $-1 $129 $76 #
plane-surface $-1 -9.6939964923613786 -46.343040875330345 7.0384062423614324 0 -0.80901700255871778 0.5877852410284794 1 0 0 forward_v I I I I #
loop $-1 $-1 $209 $49 #
coedge $-1 $127 $127 $128 $210 reversed $77 $-1 #
coedge $-1 $128 $128 $127 $210 forward $79 $-1 #
coedge $-1 $129 $129 $80 $130 forward $124 $-1 #
edge $-1 $211 1.9161371809150243e-015 $211 6.2831853071796022 $129 $212 forward 7 unknown #
loop $-1 $-1 $136 $81 #
plane-surface $-1 -9.6939964923613786 -46.343040875330345 7.0384062423614324 0 -0.80901700255871778 0.5877852410284794 1 0 0 forward_v I I I I #
loop $-1 $-1 $213 $52 #
coedge $-1 $134 $134 $135 $214 reversed $82 $-1 #
coedge $-1 $135 $135 $134 $214 forward $84 $-1 #
coedge $-1 $136 $136 $85 $137 forward $131 $-1 #
edge $-1 $215 1.9161371809150243e-015 $215 6.2831853071796022 $136 $216 forward 7 unknown #
face $-1 $217 $218 $29 $-1 $219 reversed single #
loop $-1 $-1 $220 $86 #
plane-surface $-1 12.881709056503951 -159.78467058315795 89.458572258142325 1 0 0 0 0.80901700255871778 -0.5877852410284794 forward_v I I I I #
coedge $-1 $221 $222 $223 $224 reversed $87 $-1 #
coedge $-1 $143 $89 $225 $226 reversed $56 $-1 #
coedge $-1 $89 $142 $221 $227 reversed $56 $-1 #
coedge $-1 $223 $228 $89 $145 forward $229 $-1 #
edge $-1 $230 33.549294416248628 $231 38.112676927580857 $144 $232 forward 7 unknown #
loop $-1 $-1 $151 $90 #
plane-surface $-1 20.245239693235661 -46.343040875330345 7.0384062423614324 0 -0.80901700255871778 0.5877852410284794 1 0 0 forward_v I I I I #
loop $-1 $-1 $233 $58 #
coedge $-1 $149 $149 $150 $234 reversed $91 $-1 #
coedge $-1 $150 $150 $149 $234 forward $93 $-1 #
coedge $-1 $151 $151 $94 $152 forward $146 $-1 #
edge $-1 $235 1.9161371809150243e-015 $235 6.2831853071796022 $151 $236 forward 7 unknown #
loop $-1 $-1 $158 $95 #
plane-surface $-1 20.245239693235661 -46.343040875330345 7.0384062423614324 0 -0.80901700255871778 0.5877852410284794 1 0 0 forward_v I I I I #
loop $-1 $-1 $237 $61 #
coedge $-1 $156 $156 $157 $238 reversed $96 $-1 #
coedge $-1 $157 $157 $156 $238 forward $98 $-1 #
coedge $-1 $158 $158 $99 $159 forward $153 $-1 #
edge $-1 $239 1.9161371809150243e-015 $239 6.2831853071796022 $158 $240 forward 7 unknown #
face $-1 $241 $242 $24 $-1 $243 reversed single #
loop $-1 $-1 $244 $100 #
plane-surface $-1 -70.110782189397867 0 0 1 0 0 0 0 -1 forward_v I I I I #
coedge $-1 $245 $171 $244 $246 forward $101 $-1 #
coedge $-1 $247 $103 $245 $248 forward $65 $-1 #
coedge $-1 $103 $247 $249 $250 forward $65 $-1 #
coedge $-1 $174 $173 $103 $167 reversed $175 $-1 #
edge $-1 $251 -46.343040875330345 $252 46.343040875330345 $166 $253 forward 7 unknown #
coedge $-1 $105 $104 $254 $255 forward $41 $-1 #
coedge $-1 $256 $257 $104 $170 reversed $242 $-1 #
edge $-1 $177 -70.110782189397867 $258 70.110782189397867 $169 $259 forward 7 unknown #
coedge $-1 $163 $260 $105 $172 reversed $101 $-1 #
edge $-1 $261 -70.110782189397867 $176 70.110782189397867 $171 $262 forward 7 unknown #
coedge $-1 $166 $106 $260 $263 forward $175 $-1 #
coedge $-1 $106 $166 $256 $264 reversed $175 $-1 #
loop $-1 $-1 $173 $241 #
vertex $-1 $107 $265 #
vertex $-1 $107 $266 #
straight-curve $-1 70.110782189397867 0 13.319363611054522 0 1 0 I I #
face $-1 $267 $268 $25 $-1 $269 reversed single #
loop $-1 $-1 $270 $108 #
plane-surface $-1 -80.662025390272163 0 -10.685367692500117 1 0 0 0 0 -1 forward_v I I I I #
coedge $-1 $271 $111 $272 $273 reversed $69 $-1 #
coedge $-1 $111 $271 $188 $274 reversed $69 $-1 #
edge $-1 $190 8.0513717739457125 $275 13.319363611054522 $111 $276 forward 7 unknown #
coedge $-1 $113 $112 $277 $278 reversed $44 $-1 #
coedge $-1 $279 $280 $112 $187 forward $281 $-1 #
edge $-1 $282 -13.319363611054522 $191 -8.0513717739457125 $186 $283 forward 7 unknown #
coedge $-1 $284 $114 $183 $274 forward $109 $-1 #
coedge $-1 $114 $284 $279 $285 forward $109 $-1 #
vertex $-1 $184 $286 #
vertex $-1 $285 $287 #
straight-curve $-1 -70.110782189397867 0 -8.0513717739457125 0 -1 0 I I #
face $-1 $-1 $205 $26 $-1 $288 forward single #
loop $-1 $-1 $289 $116 #
plane-surface $-1 0 -46.343040875330345 0 0 1 0 0 0 1 forward_v I I I I #
coedge $-1 $290 $291 $292 $293 reversed $117 $-1 #
coedge $-1 $294 $119 $121 $203 forward $73 $-1 #
coedge $-1 $119 $294 $290 $295 forward $73 $-1 #
coedge $-1 $292 $122 $119 $200 forward $205 $-1 #
edge $-1 $207 -2.5165323905510206 $296 12.210528882912399 $199 $297 forward 7 unknown #
coedge $-1 $298 $299 $120 $202 forward $194 $-1 #
edge $-1 $300 -37.69087988670973 $206 -31.409922518016643 $201 $301 forward 7 unknown #
edge $-1 $207 -7.7636901929477364 $300 0 $121 $302 forward 7 unknown #
coedge $-1 $122 $292 $298 $303 forward $205 $-1 #
loop $-1 $-1 $292 $193 #
vertex $-1 $202 $304 #
vertex $-1 $123 $305 #
straight-curve $-1 -2.3304658556296687 -79.892335291578974 13.31936361105452 0 1 0 I I #
coedge $-1 $209 $209 $-1 $306 reversed $126 $-1 #
edge $-1 $307 0 $307 6.2831853071796004 $127 $308 forward 7 unknown #
vertex $-1 $130 $309 #
ellipse-curve $-1 -12.849795336674973 -44.061349619664234 10.17888492670798 0 -0.80901700255871778 0.5877852410284794 1.5 0 0 1 I I #
coedge $-1 $213 $213 $-1 $310 reversed $133 $-1 #
edge $-1 $311 0 $311 6.2831853071796004 $134 $312 forward 7 unknown #
vertex $-1 $137 $313 #
ellipse-curve $-1 -6.5381976480477988 -44.061349619664234 10.17888492670798 0 -0.80901700255871778 0.5877852410284794 1.5 0 0 1 I I #
face $-1 $-1 $229 $29 $-1 $314 forward single #
loop $-1 $-1 $315 $138 #
plane-surface $-1 0 -46.343040875330345 0 0 1 0 0 0 1 forward_v I I I I #
coedge $-1 $316 $317 $318 $319 reversed $139 $-1 #
coedge $-1 $320 $141 $143 $227 forward $87 $-1 #
coedge $-1 $141 $320 $316 $321 forward $87 $-1 #
coedge $-1 $318 $144 $141 $224 forward $229 $-1 #
edge $-1 $231 -17.48615048334954 $322 -2.7590892098861204 $223 $323 forward 7 unknown #
coedge $-1 $324 $325 $142 $226 forward $218 $-1 #
edge $-1 $326 -37.69087988670973 $230 -31.409922518016643 $225 $327 forward 7 unknown #
edge $-1 $231 -7.7636901929477364 $326 0 $143 $328 forward 7 unknown #
coedge $-1 $144 $318 $324 $329 forward $229 $-1 #
loop $-1 $-1 $318 $217 #
vertex $-1 $226 $330 #
vertex $-1 $145 $331 #
straight-curve $-1 27.608770329967371 -79.892335291578974 13.31936361105452 0 1 0 I I #
coedge $-1 $233 $233 $-1 $332 reversed $148 $-1 #
edge $-1 $333 0 $333 6.2831853071796004 $149 $334 forward 7 unknown #
vertex $-1 $152 $335 #
ellipse-curve $-1 17.089440848922067 -44.061349619664234 10.17888492670798 0 -0.80901700255871778 0.5877852410284794 1.5 0 0 1 I I #
coedge $-1 $237 $237 $-1 $336 reversed $155 $-1 #
edge $-1 $337 0 $337 6.2831853071796004 $156 $338 forward 7 unknown #
vertex $-1 $159 $339 #
ellipse-curve $-1 23.40103853754924 -44.061349619664234 10.17888492670798 0 -0.80901700255871778 0.5877852410284794 1.5 0 0 1 I I #
face $-1 $-1 $175 $24 $-1 $340 reversed single #
loop $-1 $-1 $256 $160 #
plane-surface $-1 0 46.343040875330345 0 0 -1 0 0 0 -1 forward_v I I I I #
coedge $-1 $254 $341 $163 $246 reversed $161 $-1 #
coedge $-1 $260 $163 $164 $248 reversed $101 $-1 #
edge $-1 $261 -13.319363611054522 $342 13.319363611054522 $244 $343 forward 7 unknown #
coedge $-1 $165 $164 $341 $344 forward $65 $-1 #
edge $-1 $252 -70.110782189397867 $342 70.110782189397867 $245 $345 forward 7 unknown #
coedge $-1 $257 $256 $165 $250 reversed $242 $-1 #
edge $-1 $346 -70.110782189397867 $251 70.110782189397867 $249 $347 forward 7 unknown #
vertex $-1 $167 $348 #
vertex $-1 $263 $349 #
straight-curve $-1 70.110782189397867 0 -13.319363611054522 0 -1 0 I I #
coedge $-1 $350 $244 $168 $255 reversed $161 $-1 #
edge $-1 $258 -46.343040875330345 $261 46.343040875330345 $254 $351 forward 7 unknown #
coedge $-1 $249 $169 $174 $264 forward $242 $-1 #
coedge $-1 $169 $249 $350 $352 reversed $242 $-1 #
vertex $-1 $170 $353 #
straight-curve $-1 0 46.343040875330345 13.319363611054522 -1 0 0 I I #
coedge $-1 $171 $245 $173 $263 reversed $101 $-1 #
vertex $-1 $255 $354 #
straight-curve $-1 0 -46.343040875330345 13.319363611054522 1 0 0 I I #
edge $-1 $176 -13.319363611054522 $252 13.319363611054522 $173 $355 forward 7 unknown #
edge $-1 $177 -13.319363611054522 $251 13.319363611054522 $174 $356 forward 7 unknown #
point $-1 70.110782189397867 -46.343040875330345 13.319363611054522 #
point $-1 70.110782189397867 46.343040875330345 13.319363611054522 #
face $-1 $-1 $281 $25 $-1 $357 reversed single #
loop $-1 $-1 $277 $179 #
plane-surface $-1 0 0 -13.319363611054522 0 0 1 1 0 0 forward_v I I I I #
coedge $-1 $358 $359 $271 $360 forward $180 $-1 #
coedge $-1 $183 $182 $270 $360 reversed $69 $-1 #
coedge $-1 $277 $361 $182 $273 forward $268 $-1 #
edge $-1 $362 -80.662025390272163 $275 -70.110782189397867 $182 $363 forward 7 unknown #
edge $-1 $190 -5.2756216004371481 $364 5.2756216004371481 $183 $365 forward 7 unknown #
vertex $-1 $184 $366 #
straight-curve $-1 -70.110782189397867 46.343040875330345 0 0 0 -1 I I #
coedge $-1 $367 $272 $185 $278 forward $268 $-1 #
edge $-1 $275 -46.343040875330345 $282 46.343040875330345 $277 $368 forward 7 unknown #
coedge $-1 $369 $186 $189 $285 reversed $281 $-1 #
coedge $-1 $186 $369 $367 $370 reversed $281 $-1 #
loop $-1 $-1 $186 $267 #
vertex $-1 $370 $371 #
straight-curve $-1 -70.110782189397867 -46.343040875330345 0 0 0 1 I I #
coedge $-1 $189 $188 $359 $372 forward $109 $-1 #
edge $-1 $373 -5.2756216004371481 $191 5.2756216004371481 $279 $374 forward 7 unknown #
point $-1 -70.110782189397867 46.343040875330345 -8.0513717739457125 #
point $-1 -70.110782189397867 -46.343040875330345 -8.0513717739457125 #
plane-surface $-1 0 0 13.319363611054522 0 0 1 1 0 0 forward_v I I I I #
coedge $-1 $299 $298 $291 $375 forward $194 $-1 #
coedge $-1 $291 $196 $198 $295 reversed $117 $-1 #
coedge $-1 $196 $290 $289 $375 reversed $117 $-1 #
coedge $-1 $204 $199 $196 $293 forward $205 $-1 #
edge $-1 $296 -38.112676927580857 $376 -33.549294416248628 $292 $377 forward 7 unknown #
coedge $-1 $198 $197 $299 $378 reversed $73 $-1 #
edge $-1 $379 0 $296 7.7636901929477364 $290 $380 forward 7 unknown #
vertex $-1 $200 $381 #
straight-curve $-1 -4.8469982461806893 -41.779658363998124 13.319363611054522 -1 0 0 I I #
coedge $-1 $289 $201 $204 $303 reversed $194 $-1 #
coedge $-1 $201 $289 $294 $378 forward $194 $-1 #
vertex $-1 $202 $382 #
straight-curve $-1 -2.3304658556296687 -46.343040875330345 44.729286129071163 0 0 1 I I #
straight-curve $-1 -2.3304658556296687 -46.343040875330345 7.0384062423614324 0 -0.5877852410284794 -0.80901700255871778 I I #
edge $-1 $376 -17.057527129093089 $206 -2.3304658556296687 $298 $383 forward 7 unknown #
point $-1 -2.3304658556296687 -46.343040875330345 13.319363611054522 #
point $-1 -2.3304658556296687 -41.779658363998116 13.319363611054522 #
edge $-1 $384 1 $384 0 $209 $-1 forward 7 unknown #
vertex $-1 $210 $385 #
ellipse-curve $-1 -12.849795336674973 -41.618780951350601 8.4042549635643642 0 -0.80901700255871778 0.5877852410284794 1.5 0 0 1 I I #
point $-1 -11.349795336674973 -44.061349619664234 10.178884926707983 #
edge $-1 $386 1 $386 0 $213 $-1 forward 7 unknown #
vertex $-1 $214 $387 #
ellipse-curve $-1 -6.5381976480477988 -41.618780951350601 8.4042549635643642 0 -0.80901700255871778 0.5877852410284794 1.5 0 0 1 I I #
point $-1 -5.0381976480477988 -44.061349619664234 10.178884926707983 #
plane-surface $-1 0 0 13.319363611054522 0 0 1 1 0 0 forward_v I I I I #
coedge $-1 $325 $324 $317 $388 forward $218 $-1 #
coedge $-1 $317 $220 $222 $321 reversed $139 $-1 #
coedge $-1 $220 $316 $315 $388 reversed $139 $-1 #
coedge $-1 $228 $223 $220 $319 forward $229 $-1 #
edge $-1 $322 -38.112676927580857 $389 -33.549294416248628 $318 $390 forward 7 unknown #
coedge $-1 $222 $221 $325 $391 reversed $87 $-1 #
edge $-1 $392 0 $322 7.7636901929477364 $316 $393 forward 7 unknown #
vertex $-1 $224 $394 #
straight-curve $-1 10.12261984661783 -41.779658363998124 13.319363611054522 -1 0 0 I I #
coedge $-1 $315 $225 $228 $329 reversed $218 $-1 #
coedge $-1 $225 $315 $320 $391 forward $218 $-1 #
vertex $-1 $226 $395 #
straight-curve $-1 27.608770329967371 -46.343040875330345 44.729286129071163 0 0 1 I I #
straight-curve $-1 27.608770329967371 -46.343040875330345 7.0384062423614324 0 -0.5877852410284794 -0.80901700255871778 I I #
edge $-1 $389 12.881709056503951 $230 27.608770329967371 $324 $396 forward 7 unknown #
point $-1 27.608770329967371 -46.343040875330345 13.319363611054522 #
point $-1 27.608770329967371 -41.779658363998116 13.319363611054522 #
edge $-1 $397 1 $397 0 $233 $-1 forward 7 unknown #
vertex $-1 $234 $398 #
ellipse-curve $-1 17.089440848922067 -41.618780951350601 8.4042549635643642 0 -0.80901700255871778 0.5877852410284794 1.5 0 0 1 I I #
point $-1 18.589440848922067 -44.061349619664234 10.178884926707983 #
edge $-1 $399 1 $399 0 $237 $-1 forward 7 unknown #
vertex $-1 $238 $400 #
ellipse-curve $-1 23.40103853754924 -41.618780951350601 8.4042549635643642 0 -0.80901700255871778 0.5877852410284794 1.5 0 0 1 I I #
point $-1 24.90103853754924 -44.061349619664234 10.178884926707983 #
plane-surface $-1 70.110782189397867 0 0 -1 0 0 0 0 1 forward_v I I I I #
coedge $-1 $244 $350 $247 $344 reversed $161 $-1 #
vertex $-1 $344 $401 #
straight-curve $-1 -70.110782189397867 -46.343040875330345 0 0 0 -1 I I #
edge $-1 $342 -46.343040875330345 $346 46.343040875330345 $341 $402 forward 7 unknown #
straight-curve $-1 0 -46.343040875330345 -13.319363611054522 -1 0 0 I I #
vertex $-1 $250 $403 #
straight-curve $-1 0 46.343040875330345 -13.319363611054522 1 0 0 I I #
point $-1 70.110782189397867 46.343040875330345 -13.319363611054522 #
point $-1 70.110782189397867 -46.343040875330345 -13.319363611054522 #
coedge $-1 $341 $254 $257 $352 forward $161 $-1 #
straight-curve $-1 -70.110782189397867 0 13.319363611054522 0 -1 0 I I #
edge $-1 $258 -13.319363611054522 $346 13.319363611054522 $257 $404 forward 7 unknown #
point $-1 -70.110782189397867 46.343040875330345 13.319363611054522 #
point $-1 -70.110782189397867 -46.343040875330345 13.319363611054522 #
straight-curve $-1 70.110782189397867 -46.343040875330345 0 0 0 -1 I I #
straight-curve $-1 70.110782189397867 46.343040875330345 0 0 0 -1 I I #
plane-surface $-1 0 -46.343040875330345 0 0 1 0 0 0 1 forward_v I I I I #
coedge $-1 $405 $270 $361 $406 reversed $180 $-1 #
coedge $-1 $270 $405 $284 $372 reversed $180 $-1 #
edge $-1 $364 -2.6339959185544046 $362 2.6339959185544046 $271 $407 forward 7 unknown #
coedge $-1 $272 $367 $358 $406 forward $268 $-1 #
vertex $-1 $273 $408 #
straight-curve $-1 0 46.343040875330345 -13.319363611054522 1 0 0 I I #
vertex $-1 $274 $409 #
straight-curve $-1 -75.386403789835015 46.343040875330345 -8.0513717739457125 -1 0 0 I I #
point $-1 -70.110782189397867 46.343040875330345 -13.319363611054522 #
coedge $-1 $361 $277 $280 $370 forward $268 $-1 #
straight-curve $-1 -70.110782189397867 0 -13.319363611054522 0 -1 0 I I #
coedge $-1 $280 $279 $405 $410 forward $281 $-1 #
edge $-1 $282 -5.2756216004371481 $411 5.2756216004371481 $280 $412 forward 7 unknown #
point $-1 -70.110782189397867 -46.343040875330345 -13.319363611054522 #
edge $-1 $364 -46.343040875330345 $373 46.343040875330345 $359 $413 forward 7 unknown #
vertex $-1 $372 $414 #
straight-curve $-1 -75.386403789835015 -46.343040875330345 -8.0513717739457125 1 0 0 I I #
edge $-1 $376 31.409922518016643 $379 37.69087988670973 $289 $415 forward 7 unknown #
vertex $-1 $303 $416 #
straight-curve $-1 -17.057527129093089 -79.892335291578974 13.31936361105452 0 -1 0 I I #
edge $-1 $379 -12.210528882912399 $300 2.5165323905510206 $299 $417 forward 7 unknown #
vertex $-1 $378 $418 #
straight-curve $-1 -17.057527129093089 -46.343040875330345 7.0384062423614324 0 0.5877852410284794 0.80901700255871778 I I #
point $-1 -17.057527129093089 -41.779658363998116 13.319363611054522 #
point $-1 -2.3304658556296687 -46.343040875330345 7.0384062423614324 #
straight-curve $-1 0 -46.343040875330345 13.319363611054522 1 0 0 I I #
vertex $-1 $306 $419 #
point $-1 -11.349795336674973 -41.618780951350601 8.4042549635643642 #
vertex $-1 $310 $420 #
point $-1 -5.0381976480477988 -41.618780951350601 8.4042549635643642 #
edge $-1 $389 31.409922518016643 $392 37.69087988670973 $315 $421 forward 7 unknown #
vertex $-1 $329 $422 #
straight-curve $-1 12.881709056503951 -79.892335291578974 13.31936361105452 0 -1 0 I I #
edge $-1 $392 2.7590892098861204 $326 17.48615048334954 $325 $423 forward 7 unknown #
vertex $-1 $391 $424 #
straight-curve $-1 12.881709056503951 -46.343040875330345 7.0384062423614324 0 0.5877852410284794 0.80901700255871778 I I #
point $-1 12.881709056503951 -41.779658363998116 13.319363611054522 #
point $-1 27.608770329967371 -46.343040875330345 7.0384062423614324 #
straight-curve $-1 0 -46.343040875330345 13.319363611054522 1 0 0 I I #
vertex $-1 $332 $425 #
point $-1 18.589440848922067 -41.618780951350601 8.4042549635643642 #
vertex $-1 $336 $426 #
point $-1 24.90103853754924 -41.618780951350601 8.4042549635643642 #
point $-1 -70.110782189397867 -46.343040875330345 -13.319363611054522 #
straight-curve $-1 -70.110782189397867 0 -13.319363611054522 0 1 0 I I #
point $-1 -70.110782189397867 46.343040875330345 -13.319363611054522 #
straight-curve $-1 -70.110782189397867 46.343040875330345 0 0 0 -1 I I #
coedge $-1 $359 $358 $369 $410 reversed $180 $-1 #
edge $-1 $411 -46.343040875330345 $362 46.343040875330345 $358 $427 forward 7 unknown #
straight-curve $-1 -80.662025390272163 46.343040875330345 -10.685367692500117 0 0 -1 I I #
point $-1 -80.662025390272163 46.343040875330345 -13.319363611054522 #
point $-1 -80.662025390272163 46.343040875330345 -8.0513717739457125 #
edge $-1 $373 -2.6339959185544046 $411 2.6339959185544046 $405 $428 forward 7 unknown #
vertex $-1 $406 $429 #
straight-curve $-1 -75.386403789835015 -46.343040875330345 -13.319363611054522 -1 0 0 I I #
straight-curve $-1 -80.662025390272163 0 -8.0513717739457125 0 -1 0 I I #
point $-1 -80.662025390272163 -46.343040875330345 -8.0513717739457125 #
straight-curve $-1 -17.057527129093089 -46.343040875330345 44.729286129071163 0 0 -1 I I #
point $-1 -17.057527129093089 -46.343040875330345 13.319363611054522 #
straight-curve $-1 -4.8469982461806893 -46.343040875330345 7.0384062423614351 1 0 0 I I #
point $-1 -17.057527129093089 -46.343040875330345 7.0384062423614324 #
point $-1 -12.849795336674973 -40.405255447512531 7.5225771020216445 #
point $-1 -6.5381976480477988 -40.405255447512531 7.5225771020216445 #
straight-curve $-1 12.881709056503951 -46.343040875330345 44.729286129071163 0 0 -1 I I #
point $-1 12.881709056503951 -46.343040875330345 13.319363611054522 #
straight-curve $-1 10.12261984661783 -46.343040875330345 7.0384062423614351 1 0 0 I I #
point $-1 12.881709056503951 -46.343040875330345 7.0384062423614324 #
point $-1 17.089440848922067 -40.405255447512531 7.5225771020216445 #
point $-1 23.40103853754924 -40.405255447512531 7.5225771020216445 #
straight-curve $-1 -80.662025390272163 0 -13.319363611054522 0 1 0 I I #
straight-curve $-1 -80.662025390272163 -46.343040875330345 -10.685367692500117 0 0 -1 I I #
point $-1 -80.662025390272163 -46.343040875330345 -13.319363611054522 #
End-of-ACIS-data 