500 0 11 0           
7 Unknown 11 ACIS 5.0 NT 24 Fri Mar 26 15:05:06 1999 
-1 9.9999999999999995e-007 1e-010 
body $-1 $11 $-1 $12 #
body $-1 $13 $-1 $14 #
body $-1 $15 $-1 $16 #
body $-1 $17 $-1 $18 #
body $-1 $19 $-1 $20 #
body $-1 $21 $-1 $22 #
body $-1 $23 $-1 $24 #
body $-1 $25 $-1 $26 #
body $-1 $27 $-1 $28 #
body $-1 $29 $-1 $30 #
body $-1 $31 $-1 $32 #
lump $-1 $-1 $33 $0 #
transform $-1 1 0 0 0 1 0 0 0 1 58.003479110080264 23.318754559923043 6.4936258959602586 1 rotate no_reflect no_shear #
lump $-1 $-1 $34 $1 #
transform $-1 1 0 0 0 1 0 0 0 1 58.003479110080264 23.318754559923043 6.4936258959602586 1 rotate no_reflect no_shear #
lump $-1 $-1 $35 $2 #
transform $-1 1 0 0 0 1 0 0 0 1 58.003479110080264 23.318754559923043 6.4936258959602586 1 rotate no_reflect no_shear #
lump $-1 $-1 $36 $3 #
transform $-1 1 0 0 0 1 0 0 0 1 58.003479110080264 23.318754559923043 6.4936258959602586 1 rotate no_reflect no_shear #
lump $-1 $-1 $37 $4 #
transform $-1 1 0 0 0 1 0 0 0 1 58.003479110080264 23.318754559923043 6.4936258959602586 1 rotate no_reflect no_shear #
lump $-1 $-1 $38 $5 #
transform $-1 1 0 0 0 1 0 0 0 1 58.003479110080264 23.318754559923043 6.4936258959602586 1 rotate no_reflect no_shear #
lump $-1 $-1 $39 $6 #
transform $-1 1 0 0 0 1 0 0 0 1 58.003479110080264 23.318754559923043 6.4936258959602586 1 rotate no_reflect no_shear #
lump $-1 $-1 $40 $7 #
transform $-1 1 0 0 0 1 0 0 0 1 58.003479110080264 23.318754559923043 6.4936258959602586 1 rotate no_reflect no_shear #
lump $-1 $-1 $41 $8 #
transform $-1 1 0 0 0 1 0 0 0 1 58.003479110080264 23.318754559923043 6.4936258959602586 1 rotate no_reflect no_shear #
lump $-1 $-1 $42 $9 #
transform $-1 1 0 0 0 1 0 0 0 1 58.003479110080264 23.318754559923043 6.4936258959602586 1 rotate no_reflect no_shear #
lump $-1 $-1 $43 $10 #
transform $-1 1 0 0 0 1 0 0 0 1 58.003479110080264 23.318754559923043 6.4936258959602586 1 rotate no_reflect no_shear #
shell $-1 $-1 $-1 $44 $-1 $11 #
shell $-1 $-1 $-1 $45 $-1 $13 #
shell $-1 $-1 $-1 $46 $-1 $15 #
shell $-1 $-1 $-1 $47 $-1 $17 #
shell $-1 $-1 $-1 $48 $-1 $19 #
shell $-1 $-1 $-1 $49 $-1 $21 #
shell $-1 $-1 $-1 $50 $-1 $23 #
shell $-1 $-1 $-1 $51 $-1 $25 #
shell $-1 $-1 $-1 $52 $-1 $27 #
shell $-1 $-1 $-1 $53 $-1 $29 #
shell $-1 $-1 $-1 $54 $-1 $31 #
face $-1 $55 $56 $33 $-1 $57 reversed single #
face $-1 $58 $59 $34 $-1 $60 forward single #
face $-1 $61 $62 $35 $-1 $63 forward single #
face $-1 $64 $65 $36 $-1 $66 reversed single #
face $-1 $67 $68 $37 $-1 $69 forward single #
face $-1 $70 $71 $38 $-1 $72 reversed single #
face $-1 $73 $74 $39 $-1 $75 forward single #
face $-1 $76 $77 $40 $-1 $78 reversed single #
face $-1 $79 $80 $41 $-1 $81 forward single #
face $-1 $82 $83 $42 $-1 $84 reversed single #
face $-1 $85 $86 $43 $-1 $87 forward single #
face $-1 $88 $89 $33 $-1 $90 reversed single #
loop $-1 $-1 $91 $44 #
plane-surface $-1 0 23.318754559923043 0 0 -1 0 0 0 -1 forward_v I I I I #
face $-1 $92 $93 $34 $-1 $94 reversed single #
loop $-1 $-1 $95 $45 #
plane-surface $-1 0 -23.318754559923043 0 0 1 0 0 0 1 forward_v I I I I #
face $-1 $96 $97 $35 $-1 $98 reversed single #
loop $-1 $-1 $99 $46 #
plane-surface $-1 0 23.318754559923043 0 0 -1 0 0 0 -1 forward_v I I I I #
face $-1 $100 $101 $36 $-1 $102 reversed single #
loop $-1 $-1 $103 $47 #
plane-surface $-1 35.170934659819352 -1.7763568394002505e-015 162.77696294538097 0 -1 0 -0.6018150307709319 0 -0.79863550430605224 forward_v I I I I #
face $-1 $104 $105 $37 $-1 $106 forward single #
loop $-1 $107 $108 $48 #
cone-surface $-1 53.05651931174625 -3.8982021219331706 2.2799203939299888 -0.6018150307709319 0 -0.79863550430605224 0.79863550430605224 0 -0.6018150307709319 1 I I 0 1 1 forward I I I I #
face $-1 $109 $110 $38 $-1 $111 reversed single #
loop $-1 $-1 $112 $49 #
plane-surface $-1 35.170934659819352 15.768423678538317 162.77696294538097 0 -1 0 -0.6018150307709319 0 -0.79863550430605224 forward_v I I I I #
face $-1 $113 $114 $39 $-1 $115 forward single #
loop $-1 $116 $117 $50 #
cone-surface $-1 53.05651931174625 11.870221556605152 2.2799203939299888 -0.6018150307709319 0 -0.79863550430605224 0.79863550430605224 0 -0.6018150307709319 1 I I 0 1 1 forward I I I I #
face $-1 $118 $119 $40 $-1 $120 reversed single #
loop $-1 $-1 $121 $51 #
plane-surface $-1 -127.81821024098839 -7.7964042438663466 92.962231814472858 0 1 0 -0.6018150307709319 0 0.79863550430605224 forward_v I I I I #
face $-1 $122 $123 $41 $-1 $124 forward single #
loop $-1 $125 $126 $52 #
cone-surface $-1 -53.05651931174625 -3.8982021219331706 2.2799203939299773 0.6018150307709319 0 -0.79863550430605224 0.79863550430605224 0 0.6018150307709319 1 I I 0 1 1 forward I I I I #
face $-1 $127 $128 $42 $-1 $129 reversed single #
loop $-1 $-1 $130 $53 #
plane-surface $-1 -127.81821024098839 7.9720194346719726 92.962231814472858 0 1 0 -0.6018150307709319 0 0.79863550430605224 forward_v I I I I #
face $-1 $131 $132 $43 $-1 $133 forward single #
loop $-1 $134 $135 $54 #
cone-surface $-1 -53.05651931174625 11.870221556605152 2.2799203939299773 0.6018150307709319 0 -0.79863550430605224 0.79863550430605224 0 0.6018150307709319 1 I I 0 1 1 forward I I I I #
face $-1 $136 $137 $33 $-1 $138 forward single #
loop $-1 $-1 $139 $55 #
plane-surface $-1 0 -23.318754559923043 0 0 1 0 0 0 1 forward_v I I I I #
coedge $-1 $140 $141 $142 $143 reversed $56 $-1 #
face $-1 $144 $145 $34 $-1 $146 reversed single #
loop $-1 $-1 $147 $58 #
plane-surface $-1 0 0 -6.4936258959602586 0 0 1 1 0 0 forward_v I I I I #
coedge $-1 $148 $149 $150 $151 forward $59 $-1 #
face $-1 $152 $153 $35 $-1 $154 reversed single #
loop $-1 $-1 $155 $61 #
plane-surface $-1 0 0 -6.4936258959602586 0 0 1 1 0 0 forward_v I I I I #
coedge $-1 $156 $157 $158 $159 forward $62 $-1 #
face $-1 $160 $161 $36 $-1 $162 reversed single #
loop $-1 $-1 $163 $64 #
plane-surface $-1 -34.643796471088763 -3.8982021219331742 70.129687364211932 0.6018150307709319 0 0.79863550430605224 0.79863550430605224 0 -0.6018150307709319 forward_v I I I I #
coedge $-1 $164 $165 $166 $167 reversed $65 $-1 #
face $-1 $-1 $168 $37 $-1 $169 forward single #
loop $-1 $170 $171 $67 #
cone-surface $-1 51.908337706819196 -3.8982021219331706 0.75623197107489482 -0.6018150307709319 0 -0.79863550430605224 0.39931775215302612 0 -0.30090751538546595 1 I I -0.70710678118654746 0.70710678118654746 0.5 forward I I I I #
loop $-1 $-1 $172 $48 #
coedge $-1 $108 $108 $173 $174 reversed $68 $-1 #
face $-1 $175 $176 $38 $-1 $177 reversed single #
loop $-1 $-1 $178 $70 #
plane-surface $-1 -34.643796471088763 11.870221556605145 70.129687364211932 0.6018150307709319 0 0.79863550430605224 0.79863550430605224 0 -0.6018150307709319 forward_v I I I I #
coedge $-1 $179 $180 $181 $182 reversed $71 $-1 #
face $-1 $-1 $183 $39 $-1 $184 forward single #
loop $-1 $185 $186 $73 #
cone-surface $-1 51.908337706819196 11.870221556605152 0.75623197107489482 -0.6018150307709319 0 -0.79863550430605224 0.39931775215302612 0 -0.30090751538546595 1 I I -0.70710678118654746 0.70710678118654746 0.5 forward I I I I #
loop $-1 $-1 $187 $50 #
coedge $-1 $117 $117 $188 $189 reversed $74 $-1 #
face $-1 $190 $191 $40 $-1 $192 reversed single #
loop $-1 $-1 $193 $76 #
plane-surface $-1 -58.003479110080278 -3.8982021219331742 0.31495623330381761 -0.6018150307709319 0 0.79863550430605224 0.79863550430605224 0 0.6018150307709319 forward_v I I I I #
coedge $-1 $194 $195 $196 $197 reversed $77 $-1 #
face $-1 $-1 $198 $41 $-1 $199 forward single #
loop $-1 $200 $201 $79 #
cone-surface $-1 -51.908337706819196 -3.8982021219331706 0.75623197107488327 0.6018150307709319 0 -0.79863550430605224 0.39931775215302612 0 0.30090751538546595 1 I I -0.70710678118654746 0.70710678118654746 0.5 forward I I I I #
loop $-1 $-1 $202 $52 #
coedge $-1 $126 $126 $203 $204 reversed $80 $-1 #
face $-1 $205 $206 $42 $-1 $207 reversed single #
loop $-1 $-1 $208 $82 #
plane-surface $-1 -58.003479110080278 11.870221556605145 0.31495623330381761 -0.6018150307709319 0 0.79863550430605224 0.79863550430605224 0 0.6018150307709319 forward_v I I I I #
coedge $-1 $209 $210 $211 $212 reversed $83 $-1 #
face $-1 $-1 $213 $43 $-1 $214 forward single #
loop $-1 $215 $216 $85 #
cone-surface $-1 -51.908337706819196 11.870221556605152 0.75623197107488327 0.6018150307709319 0 -0.79863550430605224 0.39931775215302612 0 0.30090751538546595 1 I I -0.70710678118654746 0.70710678118654746 0.5 forward I I I I #
loop $-1 $-1 $217 $54 #
coedge $-1 $135 $135 $218 $219 reversed $86 $-1 #
face $-1 $220 $221 $33 $-1 $222 reversed single #
loop $-1 $-1 $223 $88 #
plane-surface $-1 0 0 6.4936258959602586 0 0 1 1 0 0 forward_v I I I I #
coedge $-1 $224 $225 $226 $227 reversed $89 $-1 #
coedge $-1 $228 $91 $229 $230 reversed $56 $-1 #
coedge $-1 $91 $228 $231 $232 forward $56 $-1 #
coedge $-1 $233 $234 $91 $143 forward $221 $-1 #
edge $-1 $235 -58.003479110080264 $236 58.003479110080264 $91 $237 forward 7 unknown #
face $-1 $238 $239 $34 $-1 $240 reversed single #
loop $-1 $-1 $241 $92 #
plane-surface $-1 -46.51622731815975 -30.869085441307767 0 0 1 0 0 0 1 forward_v I I I I #
coedge $-1 $242 $243 $149 $244 forward $93 $-1 #
coedge $-1 $245 $95 $246 $247 reversed $59 $-1 #
coedge $-1 $95 $245 $147 $244 reversed $59 $-1 #
coedge $-1 $248 $249 $95 $151 reversed $239 $-1 #
edge $-1 $250 -6.4936258959602586 $251 6.4936258959602586 $150 $252 forward 7 unknown #
face $-1 $253 $254 $35 $-1 $255 reversed single #
loop $-1 $-1 $256 $96 #
plane-surface $-1 -48.01622731815975 27.093920000615405 0 1 0 0 0 0 -1 forward_v I I I I #
coedge $-1 $257 $258 $157 $259 forward $97 $-1 #
coedge $-1 $260 $99 $261 $262 reversed $62 $-1 #
coedge $-1 $99 $260 $155 $259 reversed $62 $-1 #
coedge $-1 $263 $264 $99 $159 reversed $265 $-1 #
edge $-1 $266 -6.4936258959602586 $267 6.4936258959602586 $158 $268 forward 7 unknown #
face $-1 $269 $270 $36 $-1 $271 forward single #
loop $-1 $-1 $272 $100 #
plane-surface $-1 35.170934659819352 -7.7964042438663466 162.77696294538097 0 1 0 0.6018150307709319 0 0.79863550430605224 forward_v I I I I #
coedge $-1 $273 $274 $275 $276 reversed $101 $-1 #
coedge $-1 $165 $103 $277 $278 reversed $65 $-1 #
coedge $-1 $103 $164 $273 $279 reversed $65 $-1 #
coedge $-1 $275 $280 $103 $167 forward $270 $-1 #
edge $-1 $281 -40.418011780170588 $282 -32.218640362585731 $166 $283 forward 7 unknown #
loop $-1 $-1 $173 $104 #
plane-surface $-1 -34.643796471088763 -3.8982021219331742 70.129687364211932 0.6018150307709319 0 0.79863550430605224 0.79863550430605224 0 -0.6018150307709319 forward_v I I I I #
loop $-1 $-1 $284 $67 #
coedge $-1 $171 $171 $172 $285 reversed $105 $-1 #
coedge $-1 $172 $172 $171 $285 forward $107 $-1 #
coedge $-1 $173 $173 $108 $174 forward $168 $-1 #
edge $-1 $286 0 $286 6.2831853071796004 $173 $287 forward 7 unknown #
face $-1 $288 $289 $38 $-1 $290 reversed single #
loop $-1 $-1 $291 $109 #
plane-surface $-1 35.170934659819352 7.9720194346719726 162.77696294538097 0 1 0 0.6018150307709319 0 0.79863550430605224 forward_v I I I I #
coedge $-1 $292 $293 $294 $295 reversed $110 $-1 #
coedge $-1 $180 $112 $296 $297 reversed $71 $-1 #
coedge $-1 $112 $179 $292 $298 reversed $71 $-1 #
coedge $-1 $294 $299 $112 $182 forward $300 $-1 #
edge $-1 $301 -40.418011780170588 $302 -32.218640362585731 $181 $303 forward 7 unknown #
loop $-1 $-1 $188 $113 #
plane-surface $-1 -34.643796471088763 11.870221556605145 70.129687364211932 0.6018150307709319 0 0.79863550430605224 0.79863550430605224 0 -0.6018150307709319 forward_v I I I I #
loop $-1 $-1 $304 $73 #
coedge $-1 $186 $186 $187 $305 reversed $114 $-1 #
coedge $-1 $187 $187 $186 $305 forward $116 $-1 #
coedge $-1 $188 $188 $117 $189 forward $183 $-1 #
edge $-1 $306 0 $306 6.2831853071796004 $188 $307 forward 7 unknown #
face $-1 $308 $309 $40 $-1 $310 reversed single #
loop $-1 $-1 $311 $118 #
plane-surface $-1 -127.81821024098839 -1.7763568394002505e-015 92.962231814472858 0 -1 0 0.6018150307709319 0 -0.79863550430605224 forward_v I I I I #
coedge $-1 $312 $313 $314 $315 reversed $119 $-1 #
coedge $-1 $195 $121 $316 $317 reversed $77 $-1 #
coedge $-1 $121 $194 $312 $318 reversed $77 $-1 #
coedge $-1 $314 $319 $121 $197 forward $320 $-1 #
edge $-1 $321 5.9056260104139326 $322 14.104997427998775 $196 $323 forward 7 unknown #
loop $-1 $-1 $203 $122 #
plane-surface $-1 -58.003479110080278 -3.8982021219331742 0.31495623330381761 -0.6018150307709319 0 0.79863550430605224 0.79863550430605224 0 0.6018150307709319 forward_v I I I I #
loop $-1 $-1 $324 $79 #
coedge $-1 $201 $201 $202 $325 reversed $123 $-1 #
coedge $-1 $202 $202 $201 $325 forward $125 $-1 #
coedge $-1 $203 $203 $126 $204 forward $198 $-1 #
edge $-1 $326 0 $326 6.2831853071796004 $203 $327 forward 7 unknown #
face $-1 $328 $329 $42 $-1 $330 forward single #
loop $-1 $-1 $331 $127 #
plane-surface $-1 -127.81821024098839 15.768423678538317 92.962231814472858 0 -1 0 0.6018150307709319 0 -0.79863550430605224 forward_v I I I I #
coedge $-1 $332 $333 $334 $335 reversed $128 $-1 #
coedge $-1 $210 $130 $336 $337 reversed $83 $-1 #
coedge $-1 $130 $209 $332 $338 reversed $83 $-1 #
coedge $-1 $334 $339 $130 $212 forward $329 $-1 #
edge $-1 $340 5.9056260104139326 $341 14.104997427998775 $211 $342 forward 7 unknown #
loop $-1 $-1 $218 $131 #
plane-surface $-1 -58.003479110080278 11.870221556605145 0.31495623330381761 -0.6018150307709319 0 0.79863550430605224 0.79863550430605224 0 0.6018150307709319 forward_v I I I I #
loop $-1 $-1 $343 $85 #
coedge $-1 $216 $216 $217 $344 reversed $132 $-1 #
coedge $-1 $217 $217 $216 $344 forward $134 $-1 #
coedge $-1 $218 $218 $135 $219 forward $213 $-1 #
edge $-1 $345 0 $345 6.2831853071796004 $218 $346 forward 7 unknown #
face $-1 $347 $348 $33 $-1 $349 reversed single #
loop $-1 $-1 $233 $136 #
plane-surface $-1 0 0 -6.4936258959602586 0 0 1 1 0 0 forward_v I I I I #
coedge $-1 $350 $351 $352 $353 forward $137 $-1 #
coedge $-1 $354 $139 $355 $356 reversed $89 $-1 #
coedge $-1 $139 $354 $357 $358 forward $89 $-1 #
coedge $-1 $234 $233 $139 $227 forward $221 $-1 #
edge $-1 $359 -58.003479110080264 $360 58.003479110080264 $139 $361 forward 7 unknown #
coedge $-1 $141 $140 $350 $362 reversed $56 $-1 #
coedge $-1 $363 $364 $140 $230 forward $348 $-1 #
edge $-1 $365 -6.4936258959602586 $235 6.4936258959602586 $140 $366 forward 7 unknown #
coedge $-1 $352 $367 $141 $232 reversed $368 $-1 #
edge $-1 $369 -6.4936258959602586 $236 6.4936258959602586 $231 $370 forward 7 unknown #
coedge $-1 $226 $142 $367 $371 forward $221 $-1 #
coedge $-1 $142 $226 $363 $372 forward $221 $-1 #
vertex $-1 $143 $373 #
vertex $-1 $371 $374 #
straight-curve $-1 0 23.318754559923043 -6.4936258959602586 1 0 0 I I #
face $-1 $375 $376 $34 $-1 $377 reversed single #
loop $-1 $-1 $150 $144 #
plane-surface $-1 -48.01622731815975 -27.093920000615405 0 1 0 0 0 0 -1 forward_v I I I I #
coedge $-1 $378 $379 $380 $381 forward $145 $-1 #
coedge $-1 $382 $147 $383 $384 forward $93 $-1 #
coedge $-1 $147 $382 $248 $385 forward $93 $-1 #
edge $-1 $250 -48.01622731815975 $386 -45.01622731815975 $147 $387 forward 7 unknown #
coedge $-1 $149 $148 $388 $389 forward $59 $-1 #
coedge $-1 $390 $391 $148 $247 forward $392 $-1 #
edge $-1 $393 45.01622731815975 $251 48.01622731815975 $246 $394 forward 7 unknown #
coedge $-1 $380 $150 $243 $385 reversed $239 $-1 #
coedge $-1 $150 $380 $390 $395 reversed $239 $-1 #
vertex $-1 $244 $396 #
vertex $-1 $395 $397 #
straight-curve $-1 -48.01622731815975 -23.318754559923043 0 0 0 1 I I #
face $-1 $398 $265 $35 $-1 $399 reversed single #
loop $-1 $-1 $400 $152 #
plane-surface $-1 -46.51622731815975 30.869085441307767 0 0 -1 0 0 0 -1 forward_v I I I I #
coedge $-1 $401 $402 $403 $404 forward $153 $-1 #
coedge $-1 $405 $155 $401 $406 forward $97 $-1 #
coedge $-1 $155 $405 $263 $407 forward $97 $-1 #
edge $-1 $266 45.01622731815975 $408 48.01622731815975 $155 $409 forward 7 unknown #
coedge $-1 $157 $156 $410 $411 forward $62 $-1 #
coedge $-1 $412 $413 $156 $262 forward $414 $-1 #
edge $-1 $415 -48.01622731815975 $267 -45.01622731815975 $261 $416 forward 7 unknown #
coedge $-1 $417 $158 $258 $407 reversed $265 $-1 #
coedge $-1 $158 $417 $412 $418 reversed $265 $-1 #
loop $-1 $-1 $158 $253 #
vertex $-1 $259 $419 #
vertex $-1 $418 $420 #
straight-curve $-1 -45.01622731815975 23.318754559923043 0 0 0 1 I I #
face $-1 $-1 $421 $36 $-1 $422 reversed single #
loop $-1 $-1 $166 $160 #
plane-surface $-1 0 0 6.4936258959602586 0 0 1 1 0 0 forward_v I I I I #
coedge $-1 $423 $424 $425 $426 reversed $161 $-1 #
coedge $-1 $427 $163 $165 $279 forward $101 $-1 #
coedge $-1 $163 $427 $423 $428 forward $101 $-1 #
coedge $-1 $425 $166 $163 $276 forward $270 $-1 #
edge $-1 $282 -1.9491010609665853 $429 5.8473031828997595 $275 $430 forward 7 unknown #
coedge $-1 $431 $432 $164 $278 forward $421 $-1 #
edge $-1 $433 -81.073525239386669 $281 -74.894855576730222 $277 $434 forward 7 unknown #
edge $-1 $282 105.74023281993001 $433 116.00695822016053 $165 $435 forward 7 unknown #
coedge $-1 $166 $425 $431 $436 forward $270 $-1 #
vertex $-1 $167 $437 #
vertex $-1 $167 $438 #
straight-curve $-1 17.585467329909676 -1.7763568394002505e-015 6.493625895960264 -1 0 0 I I #
coedge $-1 $284 $284 $-1 $439 reversed $170 $-1 #
edge $-1 $440 0 $440 6.2831853071796004 $171 $441 forward 7 unknown #
vertex $-1 $174 $442 #
ellipse-curve $-1 53.903793401287828 -3.8982021219331706 3.4042910646320417 0.6018150307709319 0 0.79863550430605224 0.79863550430605224 0 -0.6018150307709319 1 I I #
face $-1 $-1 $300 $38 $-1 $443 forward single #
loop $-1 $-1 $444 $175 #
plane-surface $-1 58.003479110080264 0 0 -1 0 0 0 0 1 forward_v I I I I #
coedge $-1 $445 $446 $447 $448 reversed $176 $-1 #
coedge $-1 $449 $178 $180 $298 forward $110 $-1 #
coedge $-1 $178 $449 $445 $450 forward $110 $-1 #
coedge $-1 $447 $181 $178 $295 forward $300 $-1 #
edge $-1 $302 -9.8333129002357449 $451 -2.0369086563694001 $294 $452 forward 7 unknown #
coedge $-1 $453 $454 $179 $297 forward $289 $-1 #
edge $-1 $455 -81.073525239386669 $301 -74.894855576730222 $296 $456 forward 7 unknown #
edge $-1 $302 105.74023281993001 $455 116.00695822016053 $180 $457 forward 7 unknown #
coedge $-1 $181 $447 $453 $458 forward $300 $-1 #
loop $-1 $-1 $447 $288 #
vertex $-1 $297 $459 #
vertex $-1 $182 $460 #
straight-curve $-1 17.585467329909676 15.768423678538317 6.493625895960264 -1 0 0 I I #
coedge $-1 $304 $304 $-1 $461 reversed $185 $-1 #
edge $-1 $462 0 $462 6.2831853071796004 $186 $463 forward 7 unknown #
vertex $-1 $189 $464 #
ellipse-curve $-1 53.903793401287828 11.870221556605152 3.4042910646320417 0.6018150307709319 0 0.79863550430605224 0.79863550430605224 0 -0.6018150307709319 1 I I #
face $-1 $-1 $320 $40 $-1 $465 forward single #
loop $-1 $-1 $466 $190 #
plane-surface $-1 -58.003479110080264 0 0 1 0 0 0 0 -1 forward_v I I I I #
coedge $-1 $467 $468 $469 $470 reversed $191 $-1 #
coedge $-1 $471 $193 $195 $318 forward $119 $-1 #
coedge $-1 $193 $471 $467 $472 forward $119 $-1 #
coedge $-1 $469 $196 $193 $315 forward $320 $-1 #
edge $-1 $322 -5.8473031828997595 $473 1.9491010609665853 $314 $474 forward 7 unknown #
coedge $-1 $475 $476 $194 $317 forward $309 $-1 #
edge $-1 $477 -46.166159673932597 $321 -39.987490011276172 $316 $478 forward 7 unknown #
edge $-1 $322 -10.266725400230522 $477 -1.7796930043064663e-014 $195 $479 forward 7 unknown #
coedge $-1 $196 $469 $475 $480 forward $320 $-1 #
loop $-1 $-1 $469 $308 #
vertex $-1 $317 $481 #
vertex $-1 $197 $482 #
straight-curve $-1 -63.909105120494196 -7.7964042438663466 6.4936258959602569 1 0 0 I I #
coedge $-1 $324 $324 $-1 $483 reversed $200 $-1 #
edge $-1 $484 0 $484 6.2831853071796004 $201 $485 forward 7 unknown #
vertex $-1 $204 $486 #
ellipse-curve $-1 -53.903793401287835 -3.8982021219331706 3.4042910646320443 -0.6018150307709319 0 0.79863550430605224 0.79863550430605224 0 0.6018150307709319 1 I I #
face $-1 $-1 $487 $42 $-1 $488 reversed single #
loop $-1 $-1 $211 $205 #
plane-surface $-1 0 0 6.4936258959602586 0 0 1 1 0 0 forward_v I I I I #
coedge $-1 $489 $490 $491 $492 reversed $206 $-1 #
coedge $-1 $493 $208 $210 $338 forward $128 $-1 #
coedge $-1 $208 $493 $489 $494 forward $128 $-1 #
coedge $-1 $491 $211 $208 $335 forward $329 $-1 #
edge $-1 $341 2.0369086563694001 $495 9.8333129002357449 $334 $496 forward 7 unknown #
coedge $-1 $497 $498 $209 $337 forward $487 $-1 #
edge $-1 $499 -46.166159673932597 $340 -39.987490011276172 $336 $500 forward 7 unknown #
edge $-1 $341 -10.266725400230522 $499 -1.7796930043064663e-014 $210 $501 forward 7 unknown #
coedge $-1 $211 $491 $497 $502 forward $329 $-1 #
vertex $-1 $337 $503 #
vertex $-1 $212 $504 #
straight-curve $-1 -63.909105120494196 7.9720194346719726 6.4936258959602569 1 0 0 I I #
coedge $-1 $343 $343 $-1 $505 reversed $215 $-1 #
edge $-1 $506 0 $506 6.2831853071796004 $216 $507 forward 7 unknown #
vertex $-1 $219 $508 #
ellipse-curve $-1 -53.903793401287835 11.870221556605152 3.4042910646320443 -0.6018150307709319 0 0.79863550430605224 0.79863550430605224 0 0.6018150307709319 1 I I #
face $-1 $-1 $368 $33 $-1 $509 reversed single #
loop $-1 $-1 $229 $220 #
plane-surface $-1 -58.003479110080264 0 0 1 0 0 0 0 -1 forward_v I I I I #
coedge $-1 $510 $223 $228 $362 forward $137 $-1 #
coedge $-1 $223 $510 $354 $511 forward $137 $-1 #
coedge $-1 $355 $231 $223 $353 reversed $368 $-1 #
edge $-1 $512 -23.318754559923043 $369 23.318754559923043 $352 $513 forward 7 unknown #
coedge $-1 $225 $224 $351 $511 reversed $89 $-1 #
coedge $-1 $367 $352 $224 $356 forward $368 $-1 #
edge $-1 $512 -6.4936258959602586 $359 6.4936258959602586 $355 $514 forward 7 unknown #
coedge $-1 $364 $363 $225 $358 reversed $348 $-1 #
edge $-1 $515 -6.4936258959602586 $360 6.4936258959602586 $357 $516 forward 7 unknown #
vertex $-1 $356 $517 #
vertex $-1 $372 $518 #
straight-curve $-1 0 -23.318754559923043 -6.4936258959602586 -1 0 0 I I #
edge $-1 $369 -58.003479110080264 $365 58.003479110080264 $228 $519 forward 7 unknown #
coedge $-1 $357 $229 $234 $372 reversed $348 $-1 #
coedge $-1 $229 $357 $510 $520 reversed $348 $-1 #
vertex $-1 $362 $521 #
straight-curve $-1 -58.003479110080264 23.318754559923043 0 0 0 -1 I I #
coedge $-1 $231 $355 $233 $371 reversed $368 $-1 #
loop $-1 $-1 $355 $347 #
vertex $-1 $353 $522 #
straight-curve $-1 58.003479110080264 23.318754559923043 0 0 0 -1 I I #
edge $-1 $236 -23.318754559923043 $359 23.318754559923043 $367 $523 forward 7 unknown #
edge $-1 $360 -23.318754559923043 $235 23.318754559923043 $363 $524 forward 7 unknown #
point $-1 -58.003479110080264 23.318754559923043 -6.4936258959602586 #
point $-1 58.003479110080264 23.318754559923043 -6.4936258959602586 #
face $-1 $-1 $392 $34 $-1 $525 forward single #
loop $-1 $-1 $526 $238 #
plane-surface $-1 -45.01622731815975 -27.093920000615405 0 -1 0 0 0 0 1 forward_v I I I I #
coedge $-1 $527 $241 $382 $528 reversed $145 $-1 #
coedge $-1 $241 $527 $529 $530 reversed $145 $-1 #
coedge $-1 $249 $248 $241 $381 reversed $239 $-1 #
edge $-1 $531 -6.4936258959602586 $532 6.4936258959602586 $380 $533 forward 7 unknown #
coedge $-1 $243 $242 $378 $528 forward $93 $-1 #
coedge $-1 $388 $526 $242 $384 reversed $376 $-1 #
edge $-1 $386 -3.775165440692362 $534 3.775165440692362 $383 $535 forward 7 unknown #
edge $-1 $532 -3.775165440692362 $250 3.775165440692362 $248 $536 forward 7 unknown #
vertex $-1 $384 $537 #
straight-curve $-1 0 -23.318754559923043 -6.4936258959602586 1 0 0 I I #
coedge $-1 $538 $383 $245 $389 reversed $376 $-1 #
edge $-1 $393 -6.4936258959602586 $386 6.4936258959602586 $388 $539 forward 7 unknown #
coedge $-1 $529 $246 $249 $395 forward $392 $-1 #
coedge $-1 $246 $529 $538 $540 forward $392 $-1 #
loop $-1 $-1 $246 $375 #
vertex $-1 $247 $541 #
straight-curve $-1 0 -23.318754559923043 6.4936258959602586 -1 0 0 I I #
edge $-1 $251 -3.775165440692362 $531 3.775165440692362 $249 $542 forward 7 unknown #
point $-1 -48.01622731815975 -23.318754559923043 -6.4936258959602586 #
point $-1 -48.01622731815975 -23.318754559923043 6.4936258959602586 #
face $-1 $-1 $414 $35 $-1 $543 forward single #
plane-surface $-1 -45.01622731815975 27.093920000615405 0 -1 0 0 0 0 1 forward_v I I I I #
coedge $-1 $544 $545 $417 $546 forward $254 $-1 #
coedge $-1 $410 $256 $257 $406 reversed $153 $-1 #
coedge $-1 $256 $410 $413 $547 reversed $153 $-1 #
coedge $-1 $545 $544 $256 $404 reversed $254 $-1 #
edge $-1 $548 -6.4936258959602586 $549 6.4936258959602586 $403 $550 forward 7 unknown #
coedge $-1 $258 $257 $544 $551 forward $97 $-1 #
edge $-1 $408 -3.775165440692362 $549 3.775165440692362 $401 $552 forward 7 unknown #
edge $-1 $553 -3.775165440692362 $266 3.775165440692362 $263 $554 forward 7 unknown #
vertex $-1 $406 $555 #
straight-curve $-1 0 23.318754559923043 -6.4936258959602586 -1 0 0 I I #
coedge $-1 $402 $401 $260 $411 reversed $153 $-1 #
edge $-1 $415 -6.4936258959602586 $408 6.4936258959602586 $410 $556 forward 7 unknown #
coedge $-1 $557 $261 $264 $418 forward $414 $-1 #
coedge $-1 $261 $557 $402 $547 forward $414 $-1 #
loop $-1 $-1 $261 $398 #
vertex $-1 $262 $558 #
straight-curve $-1 0 23.318754559923043 6.4936258959602586 1 0 0 I I #
coedge $-1 $264 $263 $400 $546 reversed $265 $-1 #
edge $-1 $267 -3.775165440692362 $559 3.775165440692362 $264 $560 forward 7 unknown #
point $-1 -45.01622731815975 23.318754559923043 -6.4936258959602586 #
point $-1 -45.01622731815975 23.318754559923043 6.4936258959602586 #
loop $-1 $-1 $277 $269 #
plane-surface $-1 58.003479110080264 0 0 -1 0 0 0 0 1 forward_v I I I I #
coedge $-1 $424 $272 $274 $428 reversed $161 $-1 #
coedge $-1 $272 $423 $561 $562 reversed $161 $-1 #
coedge $-1 $280 $275 $272 $426 forward $270 $-1 #
edge $-1 $429 32.218640362585731 $563 40.418011780170588 $425 $564 forward 7 unknown #
coedge $-1 $274 $273 $432 $565 reversed $101 $-1 #
edge $-1 $566 -116.00695822016053 $429 -105.74023281993001 $423 $567 forward 7 unknown #
vertex $-1 $276 $568 #
straight-curve $-1 49.804107692495414 -1.9491010609665871 6.4936258959602569 0 -1 0 I I #
coedge $-1 $561 $277 $280 $436 reversed $421 $-1 #
coedge $-1 $277 $561 $427 $565 forward $421 $-1 #
vertex $-1 $278 $569 #
straight-curve $-1 58.003479110080264 -1.7763568394002505e-015 81.388481472690486 0 0 1 I I #
straight-curve $-1 -34.643796471088763 -1.7763568394002505e-015 70.129687364211932 0.79863550430605224 0 -0.6018150307709319 I I #
edge $-1 $563 -7.7964042438663466 $281 -1.7763568394002505e-015 $431 $570 forward 7 unknown #
point $-1 58.003479110080264 -1.7763568394002505e-015 6.4936258959602586 #
point $-1 49.804107692495407 -1.7763568394002505e-015 6.4936258959602569 #
edge $-1 $571 1 $571 0 $284 $-1 forward 7 unknown #
vertex $-1 $285 $572 #
ellipse-curve $-1 52.209245222204665 -3.8982021219331706 1.1555497232279208 0.6018150307709319 0 0.79863550430605224 0.79863550430605224 0 -0.6018150307709319 1 I I #
point $-1 54.702428905593891 -3.8982021219331706 2.8024760338611241 #
plane-surface $-1 0 0 6.4936258959602586 0 0 1 1 0 0 forward_v I I I I #
coedge $-1 $454 $453 $446 $573 forward $289 $-1 #
coedge $-1 $446 $291 $293 $450 reversed $176 $-1 #
coedge $-1 $291 $445 $444 $573 reversed $176 $-1 #
coedge $-1 $299 $294 $291 $448 forward $300 $-1 #
edge $-1 $451 32.218640362585731 $574 40.418011780170588 $447 $575 forward 7 unknown #
coedge $-1 $293 $292 $454 $576 reversed $110 $-1 #
edge $-1 $577 -116.00695822016053 $451 -105.74023281993001 $445 $578 forward 7 unknown #
vertex $-1 $295 $579 #
straight-curve $-1 49.804107692495414 5.9351107783025725 6.4936258959602569 0 -1 0 I I #
coedge $-1 $444 $296 $299 $458 reversed $289 $-1 #
coedge $-1 $296 $444 $449 $576 forward $289 $-1 #
vertex $-1 $297 $580 #
straight-curve $-1 58.003479110080264 15.768423678538317 81.388481472690486 0 0 1 I I #
straight-curve $-1 -34.643796471088763 15.768423678538317 70.129687364211932 0.79863550430605224 0 -0.6018150307709319 I I #
edge $-1 $574 7.9720194346719726 $301 15.768423678538317 $453 $581 forward 7 unknown #
point $-1 58.003479110080264 15.768423678538317 6.4936258959602586 #
point $-1 49.804107692495407 15.768423678538317 6.4936258959602569 #
edge $-1 $582 1 $582 0 $304 $-1 forward 7 unknown #
vertex $-1 $305 $583 #
ellipse-curve $-1 52.209245222204665 11.870221556605152 1.1555497232279208 0.6018150307709319 0 0.79863550430605224 0.79863550430605224 0 -0.6018150307709319 1 I I #
point $-1 54.702428905593891 11.870221556605152 2.8024760338611241 #
plane-surface $-1 0 0 6.4936258959602586 0 0 1 1 0 0 forward_v I I I I #
coedge $-1 $476 $475 $468 $584 forward $309 $-1 #
coedge $-1 $468 $311 $313 $472 reversed $191 $-1 #
coedge $-1 $311 $467 $466 $584 reversed $191 $-1 #
coedge $-1 $319 $314 $311 $470 forward $320 $-1 #
edge $-1 $473 -14.104997427998775 $585 -5.9056260104139326 $469 $586 forward 7 unknown #
coedge $-1 $313 $312 $476 $587 reversed $119 $-1 #
edge $-1 $588 1.7796930043064663e-014 $473 10.266725400230522 $467 $589 forward 7 unknown #
vertex $-1 $315 $590 #
straight-curve $-1 -49.804107692495421 -1.9491010609665871 6.4936258959602586 0 1 0 I I #
coedge $-1 $466 $316 $319 $480 reversed $309 $-1 #
coedge $-1 $316 $466 $471 $587 forward $309 $-1 #
vertex $-1 $317 $591 #
straight-curve $-1 -58.003479110080264 -7.7964042438663466 46.481115907236429 0 0 1 I I #
straight-curve $-1 -58.003479110080278 -7.7964042438663466 0.31495623330381761 -0.79863550430605224 0 -0.6018150307709319 I I #
edge $-1 $585 1.7763568394002505e-015 $321 7.7964042438663466 $475 $592 forward 7 unknown #
point $-1 -58.003479110080264 -7.7964042438663466 6.4936258959602586 #
point $-1 -49.804107692495421 -7.7964042438663466 6.4936258959602586 #
edge $-1 $593 1 $593 0 $324 $-1 forward 7 unknown #
vertex $-1 $325 $594 #
ellipse-curve $-1 -52.209245222204665 -3.8982021219331706 1.1555497232279093 -0.6018150307709319 0 0.79863550430605224 0.79863550430605224 0 0.6018150307709319 1 I I #
point $-1 -53.105157896981787 -3.8982021219331706 4.0061060954029761 #
loop $-1 $-1 $336 $328 #
plane-surface $-1 -58.003479110080264 0 0 1 0 0 0 0 -1 forward_v I I I I #
coedge $-1 $490 $331 $333 $494 reversed $206 $-1 #
coedge $-1 $331 $489 $595 $596 reversed $206 $-1 #
coedge $-1 $339 $334 $331 $492 forward $329 $-1 #
edge $-1 $495 -14.104997427998775 $597 -5.9056260104139326 $491 $598 forward 7 unknown #
coedge $-1 $333 $332 $498 $599 reversed $128 $-1 #
edge $-1 $600 1.7796930043064663e-014 $495 10.266725400230522 $489 $601 forward 7 unknown #
vertex $-1 $335 $602 #
straight-curve $-1 -49.804107692495421 5.9351107783025725 6.4936258959602586 0 1 0 I I #
coedge $-1 $595 $336 $339 $502 reversed $487 $-1 #
coedge $-1 $336 $595 $493 $599 forward $487 $-1 #
vertex $-1 $337 $603 #
straight-curve $-1 -58.003479110080264 7.9720194346719726 46.481115907236429 0 0 1 I I #
straight-curve $-1 -58.003479110080278 7.9720194346719726 0.31495623330381761 -0.79863550430605224 0 -0.6018150307709319 I I #
edge $-1 $597 -15.768423678538317 $340 -7.9720194346719726 $497 $604 forward 7 unknown #
point $-1 -58.003479110080264 7.9720194346719726 6.4936258959602586 #
point $-1 -49.804107692495421 7.9720194346719726 6.4936258959602586 #
edge $-1 $605 1 $605 0 $343 $-1 forward 7 unknown #
vertex $-1 $344 $606 #
ellipse-curve $-1 -52.209245222204665 11.870221556605152 1.1555497232279093 -0.6018150307709319 0 0.79863550430605224 0.79863550430605224 0 0.6018150307709319 1 I I #
point $-1 -53.105157896981787 11.870221556605152 4.0061060954029761 #
plane-surface $-1 58.003479110080264 0 0 -1 0 0 0 0 1 forward_v I I I I #
coedge $-1 $351 $350 $364 $520 forward $137 $-1 #
edge $-1 $515 -58.003479110080264 $512 58.003479110080264 $354 $607 forward 7 unknown #
vertex $-1 $353 $608 #
straight-curve $-1 58.003479110080264 0 6.4936258959602586 0 1 0 I I #
straight-curve $-1 58.003479110080264 -23.318754559923043 0 0 0 -1 I I #
vertex $-1 $520 $609 #
straight-curve $-1 -58.003479110080264 -23.318754559923043 0 0 0 -1 I I #
point $-1 58.003479110080264 -23.318754559923043 -6.4936258959602586 #
point $-1 -58.003479110080264 -23.318754559923043 -6.4936258959602586 #
straight-curve $-1 0 23.318754559923043 6.4936258959602586 -1 0 0 I I #
edge $-1 $365 -23.318754559923043 $515 23.318754559923043 $364 $610 forward 7 unknown #
point $-1 -58.003479110080264 23.318754559923043 6.4936258959602586 #
point $-1 58.003479110080264 23.318754559923043 6.4936258959602586 #
straight-curve $-1 58.003479110080264 0 -6.4936258959602586 0 -1 0 I I #
straight-curve $-1 -58.003479110080264 0 -6.4936258959602586 0 1 0 I I #
plane-surface $-1 0 0 6.4936258959602586 0 0 1 1 0 0 forward_v I I I I #
coedge $-1 $383 $538 $527 $611 forward $376 $-1 #
coedge $-1 $379 $378 $526 $611 reversed $145 $-1 #
edge $-1 $534 -1.5 $532 1.5 $378 $612 forward 7 unknown #
coedge $-1 $391 $390 $379 $530 forward $392 $-1 #
edge $-1 $531 -1.5 $613 1.5 $379 $614 forward 7 unknown #
vertex $-1 $395 $615 #
vertex $-1 $385 $616 #
straight-curve $-1 -48.01622731815975 -30.869085441307767 0 0 0 -1 I I #
vertex $-1 $611 $617 #
straight-curve $-1 -45.01622731815975 -27.093920000615405 -6.4936258959602586 0 -1 0 I I #
straight-curve $-1 -48.01622731815975 -27.093920000615405 -6.4936258959602586 0 1 0 I I #
point $-1 -45.01622731815975 -23.318754559923043 -6.4936258959602586 #
coedge $-1 $526 $388 $391 $540 reversed $376 $-1 #
straight-curve $-1 -45.01622731815975 -23.318754559923043 0 0 0 -1 I I #
edge $-1 $613 -3.775165440692362 $393 3.775165440692362 $538 $618 forward 7 unknown #
point $-1 -45.01622731815975 -23.318754559923043 6.4936258959602586 #
straight-curve $-1 -48.01622731815975 -27.093920000615405 6.4936258959602586 0 -1 0 I I #
plane-surface $-1 0 0 6.4936258959602586 0 0 1 1 0 0 forward_v I I I I #
coedge $-1 $403 $400 $405 $551 reversed $254 $-1 #
coedge $-1 $400 $403 $557 $619 reversed $254 $-1 #
edge $-1 $559 -6.4936258959602586 $553 6.4936258959602586 $417 $620 forward 7 unknown #
edge $-1 $548 -3.775165440692362 $415 3.775165440692362 $402 $621 forward 7 unknown #
vertex $-1 $619 $622 #
vertex $-1 $551 $623 #
straight-curve $-1 -48.01622731815975 30.869085441307767 0 0 0 -1 I I #
edge $-1 $549 -1.5 $553 1.5 $544 $624 forward 7 unknown #
straight-curve $-1 -48.01622731815975 27.093920000615405 -6.4936258959602586 0 1 0 I I #
vertex $-1 $407 $625 #
straight-curve $-1 -45.01622731815975 27.093920000615405 -6.4936258959602586 0 -1 0 I I #
point $-1 -48.01622731815975 23.318754559923043 -6.4936258959602586 #
straight-curve $-1 -48.01622731815975 23.318754559923043 0 0 0 -1 I I #
coedge $-1 $413 $412 $545 $619 forward $414 $-1 #
point $-1 -48.01622731815975 23.318754559923043 6.4936258959602586 #
vertex $-1 $418 $626 #
straight-curve $-1 -45.01622731815975 27.093920000615405 6.4936258959602586 0 1 0 I I #
coedge $-1 $432 $431 $424 $562 forward $421 $-1 #
edge $-1 $563 74.894855576730222 $566 81.073525239386669 $561 $627 forward 7 unknown #
vertex $-1 $436 $628 #
straight-curve $-1 17.585467329909676 -7.7964042438663466 6.493625895960264 1 0 0 I I #
edge $-1 $566 -5.8473031828997595 $433 1.9491010609665853 $432 $629 forward 7 unknown #
vertex $-1 $565 $630 #
straight-curve $-1 -34.643796471088763 -7.7964042438663466 70.129687364211932 -0.79863550430605224 0 0.6018150307709319 I I #
point $-1 49.804107692495407 -7.7964042438663466 6.4936258959602569 #
point $-1 58.003479110080264 -1.7763568394002505e-015 0.31495623330381761 #
straight-curve $-1 58.003479110080264 0 6.4936258959602586 0 1 0 I I #
vertex $-1 $439 $631 #
point $-1 53.007880726510713 -3.8982021219331706 0.55373469245698903 #
edge $-1 $574 74.894855576730222 $577 81.073525239386669 $444 $632 forward 7 unknown #
vertex $-1 $458 $633 #
straight-curve $-1 17.585467329909676 7.9720194346719726 6.493625895960264 1 0 0 I I #
edge $-1 $577 2.0369086563694001 $455 9.8333129002357449 $454 $634 forward 7 unknown #
vertex $-1 $576 $635 #
straight-curve $-1 -34.643796471088763 7.9720194346719726 70.129687364211932 -0.79863550430605224 0 0.6018150307709319 I I #
point $-1 49.804107692495407 7.9720194346719726 6.4936258959602569 #
point $-1 58.003479110080264 15.768423678538317 0.31495623330381761 #
straight-curve $-1 58.003479110080264 0 6.4936258959602586 0 1 0 I I #
vertex $-1 $461 $636 #
point $-1 53.007880726510713 11.870221556605152 0.55373469245698903 #
edge $-1 $585 39.987490011276172 $588 46.166159673932597 $466 $637 forward 7 unknown #
vertex $-1 $480 $638 #
straight-curve $-1 -63.909105120494196 -1.7763568394002505e-015 6.4936258959602569 -1 0 0 I I #
edge $-1 $588 -1.9491010609665853 $477 5.8473031828997595 $476 $639 forward 7 unknown #
vertex $-1 $587 $640 #
straight-curve $-1 -58.003479110080278 -1.7763568394002505e-015 0.31495623330381761 0.79863550430605224 0 0.6018150307709319 I I #
point $-1 -49.804107692495421 -1.7763568394002505e-015 6.4936258959602586 #
point $-1 -58.003479110080264 -7.7964042438663466 0.31495623330382833 #
straight-curve $-1 -58.003479110080264 0 6.4936258959602586 0 -1 0 I I #
vertex $-1 $483 $641 #
point $-1 -51.410609717898609 -3.8982021219331706 1.7573647539988413 #
coedge $-1 $498 $497 $490 $596 forward $487 $-1 #
edge $-1 $597 39.987490011276172 $600 46.166159673932597 $595 $642 forward 7 unknown #
vertex $-1 $502 $643 #
straight-curve $-1 -63.909105120494196 15.768423678538317 6.4936258959602569 -1 0 0 I I #
edge $-1 $600 -9.8333129002357449 $499 -2.0369086563694001 $498 $644 forward 7 unknown #
vertex $-1 $599 $645 #
straight-curve $-1 -58.003479110080278 15.768423678538317 0.31495623330381761 0.79863550430605224 0 0.6018150307709319 I I #
point $-1 -49.804107692495421 15.768423678538317 6.4936258959602586 #
point $-1 -58.003479110080264 7.9720194346719726 0.31495623330382833 #
straight-curve $-1 -58.003479110080264 0 6.4936258959602586 0 -1 0 I I #
vertex $-1 $505 $646 #
point $-1 -51.410609717898609 11.870221556605152 1.7573647539988413 #
straight-curve $-1 0 -23.318754559923043 6.4936258959602586 1 0 0 I I #
point $-1 58.003479110080264 -23.318754559923043 6.4936258959602586 #
point $-1 -58.003479110080264 -23.318754559923043 6.4936258959602586 #
straight-curve $-1 -58.003479110080264 0 6.4936258959602586 0 -1 0 I I #
edge $-1 $613 -6.4936258959602586 $534 6.4936258959602586 $526 $647 forward 7 unknown #
straight-curve $-1 -46.51622731815975 -30.869085441307767 -6.4936258959602586 -1 0 0 I I #
vertex $-1 $540 $648 #
straight-curve $-1 -46.51622731815975 -30.869085441307767 6.4936258959602586 1 0 0 I I #
point $-1 -48.01622731815975 -30.869085441307767 6.4936258959602586 #
point $-1 -48.01622731815975 -30.869085441307767 -6.4936258959602586 #
point $-1 -45.01622731815975 -30.869085441307767 -6.4936258959602586 #
straight-curve $-1 -45.01622731815975 -27.093920000615405 6.4936258959602586 0 1 0 I I #
edge $-1 $559 -1.5 $548 1.5 $545 $649 forward 7 unknown #
straight-curve $-1 -45.01622731815975 30.869085441307767 0 0 0 -1 I I #
straight-curve $-1 -48.01622731815975 27.093920000615405 6.4936258959602586 0 -1 0 I I #
point $-1 -48.01622731815975 30.869085441307767 6.4936258959602586 #
point $-1 -48.01622731815975 30.869085441307767 -6.4936258959602586 #
straight-curve $-1 -46.51622731815975 30.869085441307767 -6.4936258959602586 1 0 0 I I #
point $-1 -45.01622731815975 30.869085441307767 -6.4936258959602586 #
point $-1 -45.01622731815975 30.869085441307767 6.4936258959602586 #
straight-curve $-1 58.003479110080264 -7.7964042438663466 81.388481472690486 0 0 -1 I I #
point $-1 58.003479110080264 -7.7964042438663466 6.4936258959602586 #
straight-curve $-1 58.003479110080256 -1.9491010609665871 0.31495623330382472 0 1 0 I I #
point $-1 58.003479110080264 -7.7964042438663466 0.31495623330381761 #
point $-1 51.607430191433728 -3.8982021219331706 0.3569142189218687 #
straight-curve $-1 58.003479110080264 7.9720194346719726 81.388481472690486 0 0 -1 I I #
point $-1 58.003479110080264 7.9720194346719726 6.4936258959602586 #
straight-curve $-1 58.003479110080256 5.9351107783025725 0.31495623330382472 0 1 0 I I #
point $-1 58.003479110080264 7.9720194346719726 0.31495623330381761 #
point $-1 51.607430191433728 11.870221556605152 0.3569142189218687 #
straight-curve $-1 -58.003479110080264 -1.7763568394002505e-015 46.481115907236429 0 0 -1 I I #
point $-1 -58.003479110080264 -1.7763568394002505e-015 6.4936258959602586 #
straight-curve $-1 -58.003479110080264 -1.9491010609665871 0.31495623330382583 0 -1 0 I I #
point $-1 -58.003479110080264 -1.7763568394002505e-015 0.31495623330382833 #
point $-1 -51.607430191433728 -3.8982021219331706 0.35691421892185715 #
straight-curve $-1 -58.003479110080264 15.768423678538317 46.481115907236429 0 0 -1 I I #
point $-1 -58.003479110080264 15.768423678538317 6.4936258959602586 #
straight-curve $-1 -58.003479110080264 5.9351107783025725 0.31495623330382583 0 -1 0 I I #
point $-1 -58.003479110080264 15.768423678538317 0.31495623330382833 #
point $-1 -51.607430191433728 11.870221556605152 0.35691421892185715 #
straight-curve $-1 -45.01622731815975 -30.869085441307767 0 0 0 -1 I I #
point $-1 -45.01622731815975 -30.869085441307767 6.4936258959602586 #
straight-curve $-1 -46.51622731815975 30.869085441307767 6.4936258959602586 -1 0 0 I I #
End-of-ACIS-data 