500 0 8 0           
7 Unknown 11 ACIS 5.0 NT 24 Fri Mar 26 16:45:49 1999 
-1 9.9999999999999995e-007 1e-010 
body $-1 $8 $-1 $9 #
body $-1 $10 $-1 $11 #
body $-1 $12 $-1 $13 #
body $-1 $14 $-1 $15 #
body $-1 $16 $-1 $17 #
body $-1 $18 $-1 $19 #
body $-1 $20 $-1 $21 #
body $-1 $22 $-1 $23 #
lump $-1 $-1 $24 $0 #
transform $-1 1 0 0 0 1 0 0 0 1 53.274330881679738 25.007410221387499 11.998397749397913 1 rotate no_reflect no_shear #
lump $-1 $-1 $25 $1 #
transform $-1 1 0 0 0 1 0 0 0 1 53.274330881679738 25.007410221387499 11.998397749397913 1 rotate no_reflect no_shear #
lump $-1 $-1 $26 $2 #
transform $-1 1 0 0 0 1 0 0 0 1 53.274330881679738 25.007410221387499 11.998397749397913 1 rotate no_reflect no_shear #
lump $-1 $-1 $27 $3 #
transform $-1 1 0 0 0 1 0 0 0 1 53.274330881679738 25.007410221387499 11.998397749397913 1 rotate no_reflect no_shear #
lump $-1 $-1 $28 $4 #
transform $-1 1 0 0 0 1 0 0 0 1 53.274330881679738 25.007410221387499 11.998397749397913 1 rotate no_reflect no_shear #
lump $-1 $-1 $29 $5 #
transform $-1 1 0 0 0 1 0 0 0 1 53.274330881679738 25.007410221387499 11.998397749397913 1 rotate no_reflect no_shear #
lump $-1 $-1 $30 $6 #
transform $-1 1 0 0 0 1 0 0 0 1 53.274330881679738 25.007410221387499 11.998397749397913 1 rotate no_reflect no_shear #
lump $-1 $-1 $31 $7 #
transform $-1 1 0 0 0 1 0 0 0 1 53.274330881679738 25.007410221387499 11.998397749397913 1 rotate no_reflect no_shear #
shell $-1 $-1 $-1 $32 $-1 $8 #
shell $-1 $-1 $-1 $33 $-1 $10 #
shell $-1 $-1 $-1 $34 $-1 $12 #
shell $-1 $-1 $-1 $35 $-1 $14 #
shell $-1 $-1 $-1 $36 $-1 $16 #
shell $-1 $-1 $-1 $37 $-1 $18 #
shell $-1 $-1 $-1 $38 $-1 $20 #
shell $-1 $-1 $-1 $39 $-1 $22 #
face $-1 $40 $41 $24 $-1 $42 forward single #
face $-1 $43 $44 $25 $-1 $45 reversed single #
face $-1 $46 $47 $26 $-1 $48 reversed single #
face $-1 $49 $50 $27 $-1 $51 reversed single #
face $-1 $52 $53 $28 $-1 $54 forward single #
face $-1 $55 $56 $29 $-1 $57 reversed single #
face $-1 $58 $59 $30 $-1 $60 forward single #
face $-1 $61 $62 $31 $-1 $63 forward single #
face $-1 $64 $65 $24 $-1 $66 reversed single #
loop $-1 $-1 $67 $32 #
plane-surface $-1 0 0 11.998397749397913 0 0 1 1 0 0 forward_v I I I I #
face $-1 $68 $69 $25 $-1 $70 reversed single #
loop $-1 $-1 $71 $33 #
plane-surface $-1 0 -18.412359643641871 5.255903864734579 0 0 1 1 0 0 forward_v I I I I #
face $-1 $72 $73 $26 $-1 $74 reversed single #
loop $-1 $-1 $75 $34 #
plane-surface $-1 0 18.412359643641867 5.255903864734579 0 0 1 1 0 0 forward_v I I I I #
face $-1 $76 $77 $27 $-1 $78 reversed single #
loop $-1 $-1 $79 $35 #
plane-surface $-1 -53.274330881679731 -8.4758377628225254 6.7720721610203185 -0.51503808176128008 0 0.85716729658548041 0.85716729658548041 0 0.51503808176128008 forward_v I I I I #
face $-1 $80 $81 $28 $-1 $82 forward single #
loop $-1 $83 $84 $36 #
cone-surface $-1 -48.667778697128028 -8.4758377628225254 8.9566513069163722 0.51503808176128008 0 -0.85716729658548041 0.4285836482927402 0 0.25751904088064004 1 I I 0 1 0.5 forward I I I I #
face $-1 $85 $86 $29 $-1 $87 reversed single #
loop $-1 $-1 $88 $37 #
plane-surface $-1 53.274332629981949 4.3522616782450925 151.2312486570402 0 -1 0 -0.70710678939079041 0 -0.70710677298230451 forward_v I I I I #
face $-1 $89 $90 $30 $-1 $91 forward single #
loop $-1 $92 $93 $38 #
cone-surface $-1 47.195921814428075 -0.17024179320647548 5.9199885575046132 -0.70710678939079041 0 -0.70710677298230451 0.35355338649115226 0 -0.35355339469539521 1 I I 0 1 0.5 forward I I I I #
face $-1 $94 $95 $31 $-1 $96 forward single #
loop $-1 $97 $98 $39 #
cone-surface $-1 47.195921814428075 2.5432602896644667 5.9199885575046132 -0.70710678939079041 0 -0.70710677298230451 0.35355338649115226 0 -0.35355339469539521 1 I I 0 1 0.5 forward I I I I #
face $-1 $99 $100 $24 $-1 $101 reversed single #
loop $-1 $-1 $102 $40 #
plane-surface $-1 0 0 -11.998397749397913 0 0 1 1 0 0 forward_v I I I I #
coedge $-1 $103 $104 $105 $106 forward $41 $-1 #
face $-1 $107 $108 $25 $-1 $109 reversed single #
loop $-1 $-1 $110 $43 #
plane-surface $-1 0 -11.817309065896243 8.627150807066247 0 -1 0 0 0 -1 forward_v I I I I #
coedge $-1 $111 $112 $113 $114 reversed $44 $-1 #
face $-1 $115 $116 $26 $-1 $117 forward single #
loop $-1 $-1 $118 $46 #
plane-surface $-1 0 11.817309065896239 8.627150807066247 0 1 0 0 0 1 forward_v I I I I #
coedge $-1 $119 $120 $121 $122 reversed $47 $-1 #
face $-1 $123 $124 $27 $-1 $125 reversed single #
loop $-1 $-1 $126 $49 #
plane-surface $-1 -108.15094925051184 -5.1343664597488061 98.102100519519908 0 -1 0 0.51503808176128008 0 -0.85716729658548041 forward_v I I I I #
coedge $-1 $127 $128 $129 $130 reversed $50 $-1 #
face $-1 $-1 $131 $28 $-1 $132 forward single #
loop $-1 $133 $134 $52 #
cone-surface $-1 -48.281500135807072 -8.4758377628225254 8.3137758344772621 0.51503808176128008 0 -0.85716729658548041 0.2142918241463701 0 0.12875952044032002 1 I I -0.70710678118654746 0.70710678118654746 0.25 forward I I I I #
loop $-1 $-1 $135 $36 #
coedge $-1 $84 $84 $136 $137 reversed $53 $-1 #
face $-1 $138 $139 $29 $-1 $140 reversed single #
loop $-1 $-1 $141 $55 #
plane-surface $-1 -22.066949503392443 1.1865092482289938 75.889968271968016 0.70710678939079041 0 0.70710677298230451 0.70710677298230451 0 -0.70710678939079041 forward_v I I I I #
coedge $-1 $142 $143 $144 $145 reversed $56 $-1 #
face $-1 $-1 $146 $30 $-1 $147 forward single #
loop $-1 $148 $149 $58 #
cone-surface $-1 46.665591722384981 -0.17024179320647548 5.3896584777678846 -0.70710678939079041 0 -0.70710677298230451 0.17677669324557613 0 -0.1767766973476976 1 I I -0.70710678118654746 0.70710678118654746 0.25 forward I I I I #
loop $-1 $-1 $150 $38 #
coedge $-1 $93 $93 $151 $152 reversed $59 $-1 #
face $-1 $-1 $153 $31 $-1 $154 forward single #
loop $-1 $155 $156 $61 #
cone-surface $-1 46.665591722384981 2.5432602896644667 5.3896584777678846 -0.70710678939079041 0 -0.70710677298230451 0.17677669324557613 0 -0.1767766973476976 1 I I -0.70710678118654746 0.70710678118654746 0.25 forward I I I I #
loop $-1 $-1 $157 $39 #
coedge $-1 $98 $98 $158 $159 reversed $62 $-1 #
face $-1 $160 $161 $24 $-1 $162 reversed single #
loop $-1 $-1 $163 $64 #
plane-surface $-1 0 -25.007410221387499 0 0 1 0 0 0 1 forward_v I I I I #
coedge $-1 $164 $165 $166 $167 forward $65 $-1 #
coedge $-1 $168 $67 $169 $170 forward $41 $-1 #
coedge $-1 $67 $168 $171 $172 forward $41 $-1 #
coedge $-1 $173 $174 $67 $106 reversed $175 $-1 #
edge $-1 $176 -25.007410221387499 $177 25.007410221387499 $105 $178 forward 7 unknown #
face $-1 $179 $180 $25 $-1 $181 reversed single #
loop $-1 $-1 $182 $68 #
plane-surface $-1 -53.274330881679738 0 0 1 0 0 0 0 -1 forward_v I I I I #
coedge $-1 $183 $184 $185 $186 reversed $69 $-1 #
coedge $-1 $187 $71 $188 $189 reversed $44 $-1 #
coedge $-1 $71 $187 $183 $190 forward $44 $-1 #
coedge $-1 $185 $191 $71 $114 forward $192 $-1 #
edge $-1 $193 -15.801230399566563 $194 -2.6111292440753076 $113 $195 forward 7 unknown #
face $-1 $196 $197 $26 $-1 $198 reversed single #
loop $-1 $-1 $199 $72 #
plane-surface $-1 0 0 11.998397749397913 0 0 1 1 0 0 forward_v I I I I #
coedge $-1 $200 $201 $202 $203 reversed $73 $-1 #
coedge $-1 $204 $75 $200 $205 forward $47 $-1 #
coedge $-1 $75 $204 $206 $207 reversed $47 $-1 #
coedge $-1 $208 $209 $75 $122 forward $197 $-1 #
edge $-1 $210 2.6111292440753058 $211 15.801230399566562 $121 $212 forward 7 unknown #
face $-1 $213 $214 $27 $-1 $215 forward single #
loop $-1 $-1 $216 $76 #
plane-surface $-1 -53.274330881679738 0 0 1 0 0 0 0 -1 forward_v I I I I #
coedge $-1 $217 $218 $219 $220 reversed $77 $-1 #
coedge $-1 $221 $79 $222 $223 reversed $50 $-1 #
coedge $-1 $79 $221 $217 $224 forward $50 $-1 #
coedge $-1 $219 $225 $79 $130 forward $214 $-1 #
edge $-1 $226 -7.579390184484982 $227 -0.8964475783375434 $129 $228 forward 7 unknown #
loop $-1 $-1 $136 $80 #
plane-surface $-1 -53.274330881679731 -8.4758377628225254 6.7720721610203185 -0.51503808176128008 0 0.85716729658548041 0.85716729658548041 0 0.51503808176128008 forward_v I I I I #
loop $-1 $-1 $229 $52 #
coedge $-1 $134 $134 $135 $230 reversed $81 $-1 #
coedge $-1 $135 $135 $134 $230 forward $83 $-1 #
coedge $-1 $136 $136 $84 $137 forward $131 $-1 #
edge $-1 $231 0 $231 6.2831853071796004 $136 $232 forward 7 unknown #
face $-1 $233 $234 $29 $-1 $235 forward single #
loop $-1 $-1 $236 $85 #
plane-surface $-1 53.274332629981949 -1.9792431817871048 151.2312486570402 0 1 0 0.70710678939079041 0 0.70710677298230451 forward_v I I I I #
coedge $-1 $237 $238 $239 $240 reversed $86 $-1 #
coedge $-1 $143 $88 $241 $242 reversed $56 $-1 #
coedge $-1 $88 $142 $237 $243 reversed $56 $-1 #
coedge $-1 $239 $244 $88 $145 forward $234 $-1 #
edge $-1 $245 -26.637164566688764 $246 -15.187453221576209 $144 $247 forward 7 unknown #
loop $-1 $-1 $151 $89 #
plane-surface $-1 -22.066949503392443 1.1865092482289938 75.889968271968016 0.70710678939079041 0 0.70710677298230451 0.70710677298230451 0 -0.70710678939079041 forward_v I I I I #
loop $-1 $-1 $248 $58 #
coedge $-1 $149 $149 $150 $249 reversed $90 $-1 #
coedge $-1 $150 $150 $149 $249 forward $92 $-1 #
coedge $-1 $151 $151 $93 $152 forward $146 $-1 #
edge $-1 $250 0 $250 6.2831853071796004 $151 $251 forward 7 unknown #
loop $-1 $-1 $158 $94 #
plane-surface $-1 -22.066949503392443 1.1865092482289938 75.889968271968016 0.70710678939079041 0 0.70710677298230451 0.70710677298230451 0 -0.70710678939079041 forward_v I I I I #
loop $-1 $-1 $252 $61 #
coedge $-1 $156 $156 $157 $253 reversed $95 $-1 #
coedge $-1 $157 $157 $156 $253 forward $97 $-1 #
coedge $-1 $158 $158 $98 $159 forward $153 $-1 #
edge $-1 $254 0 $254 6.2831853071796004 $158 $255 forward 7 unknown #
face $-1 $256 $257 $24 $-1 $258 reversed single #
loop $-1 $-1 $259 $99 #
plane-surface $-1 -53.274330881679738 0 0 1 0 0 0 0 -1 forward_v I I I I #
coedge $-1 $260 $171 $261 $262 forward $100 $-1 #
coedge $-1 $263 $102 $260 $264 forward $65 $-1 #
coedge $-1 $102 $263 $265 $266 forward $65 $-1 #
coedge $-1 $174 $173 $102 $167 reversed $175 $-1 #
edge $-1 $267 -25.007410221387499 $268 25.007410221387499 $166 $269 forward 7 unknown #
coedge $-1 $104 $103 $270 $271 forward $41 $-1 #
coedge $-1 $272 $273 $103 $170 reversed $257 $-1 #
edge $-1 $177 -53.274330881679738 $274 53.274330881679738 $169 $275 forward 7 unknown #
coedge $-1 $163 $276 $104 $172 reversed $100 $-1 #
edge $-1 $277 -53.274330881679738 $176 53.274330881679738 $171 $278 forward 7 unknown #
coedge $-1 $166 $105 $276 $279 forward $175 $-1 #
coedge $-1 $105 $166 $272 $280 reversed $175 $-1 #
loop $-1 $-1 $173 $256 #
vertex $-1 $106 $281 #
vertex $-1 $106 $282 #
straight-curve $-1 53.274330881679738 0 11.998397749397913 0 1 0 I I #
face $-1 $283 $284 $25 $-1 $285 forward single #
loop $-1 $-1 $188 $107 #
plane-surface $-1 0 -25.007410221387499 0 0 1 0 0 0 1 forward_v I I I I #
coedge $-1 $286 $287 $288 $289 forward $108 $-1 #
coedge $-1 $288 $110 $112 $190 reversed $69 $-1 #
coedge $-1 $110 $288 $290 $291 reversed $69 $-1 #
coedge $-1 $292 $113 $110 $186 forward $192 $-1 #
edge $-1 $194 0.94232846120145553 $293 7.6848223458647915 $185 $294 forward 7 unknown #
coedge $-1 $112 $111 $286 $295 reversed $44 $-1 #
coedge $-1 $296 $297 $111 $189 forward $180 $-1 #
edge $-1 $298 -53.274330881679738 $193 53.274330881679738 $188 $299 forward 7 unknown #
edge $-1 $300 -53.274330881679738 $194 53.274330881679738 $183 $301 forward 7 unknown #
coedge $-1 $113 $292 $296 $302 forward $192 $-1 #
loop $-1 $-1 $185 $283 #
vertex $-1 $189 $303 #
vertex $-1 $114 $304 #
straight-curve $-1 53.274330881679738 -9.2061798218209354 5.255903864734579 0 1 0 I I #
face $-1 $305 $306 $26 $-1 $307 reversed single #
loop $-1 $-1 $209 $115 #
plane-surface $-1 53.274330881679738 0 0 -1 0 0 0 0 1 forward_v I I I I #
coedge $-1 $308 $309 $201 $310 forward $116 $-1 #
coedge $-1 $311 $118 $119 $205 reversed $73 $-1 #
coedge $-1 $118 $311 $199 $310 reversed $73 $-1 #
coedge $-1 $312 $313 $118 $203 forward $306 $-1 #
edge $-1 $314 0.94232846120145553 $315 7.6848223458647915 $202 $316 forward 7 unknown #
coedge $-1 $120 $119 $313 $317 reversed $47 $-1 #
edge $-1 $210 -53.274330881679738 $314 53.274330881679738 $200 $318 forward 7 unknown #
coedge $-1 $319 $320 $120 $207 forward $321 $-1 #
edge $-1 $211 -53.274330881679738 $322 53.274330881679738 $206 $323 forward 7 unknown #
coedge $-1 $324 $121 $320 $325 reversed $197 $-1 #
coedge $-1 $121 $324 $311 $326 forward $197 $-1 #
vertex $-1 $122 $327 #
vertex $-1 $207 $328 #
straight-curve $-1 53.274330881679738 9.2061798218209336 5.255903864734579 0 1 0 I I #
face $-1 $-1 $329 $27 $-1 $330 forward single #
loop $-1 $-1 $219 $123 #
plane-surface $-1 0 0 11.998397749397913 0 0 1 1 0 0 forward_v I I I I #
coedge $-1 $331 $332 $218 $333 forward $124 $-1 #
coedge $-1 $218 $126 $128 $224 reversed $77 $-1 #
coedge $-1 $126 $217 $216 $333 reversed $77 $-1 #
coedge $-1 $334 $129 $126 $220 forward $214 $-1 #
edge $-1 $227 -9.4992100309183058 $335 -0.80114374357618345 $219 $336 forward 7 unknown #
coedge $-1 $128 $127 $331 $337 reversed $50 $-1 #
coedge $-1 $338 $339 $127 $223 forward $329 $-1 #
edge $-1 $340 -23.310225163312801 $226 -13.162770492572555 $222 $341 forward 7 unknown #
edge $-1 $342 -8.3777685069199533e-015 $227 10.147454670740236 $217 $343 forward 7 unknown #
coedge $-1 $129 $334 $338 $344 forward $214 $-1 #
vertex $-1 $223 $345 #
vertex $-1 $130 $346 #
straight-curve $-1 -44.576264594337609 -4.2379188814112627 11.998397749397913 0 1 0 I I #
coedge $-1 $229 $229 $-1 $347 reversed $133 $-1 #
edge $-1 $348 0 $348 6.2831853071796004 $134 $349 forward 7 unknown #
vertex $-1 $137 $350 #
ellipse-curve $-1 -48.925297738008673 -8.4758377628225254 9.3852349552091177 -0.51503808176128008 0 0.85716729658548041 0.4285836482927402 0 0.25751904088064004 1 I I #
face $-1 $-1 $351 $29 $-1 $352 reversed single #
loop $-1 $-1 $144 $138 #
plane-surface $-1 0 0 11.998397749397913 0 0 1 1 0 0 forward_v I I I I #
coedge $-1 $353 $354 $355 $356 reversed $139 $-1 #
coedge $-1 $357 $141 $143 $243 forward $86 $-1 #
coedge $-1 $141 $357 $353 $358 forward $86 $-1 #
coedge $-1 $355 $144 $141 $240 forward $234 $-1 #
edge $-1 $246 -3.7590070541305955 $359 2.5724978059016017 $239 $360 forward 7 unknown #
coedge $-1 $361 $362 $142 $242 forward $351 $-1 #
edge $-1 $363 -75.066938189926475 $245 -63.617226579122189 $241 $364 forward 7 unknown #
edge $-1 $246 90.356324505971813 $363 106.5486617633595 $143 $365 forward 7 unknown #
coedge $-1 $144 $355 $361 $366 forward $234 $-1 #
vertex $-1 $242 $367 #
vertex $-1 $145 $368 #
straight-curve $-1 26.637166314990974 4.3522616782450925 11.99839774939791 -1 0 0 I I #
coedge $-1 $248 $248 $-1 $369 reversed $148 $-1 #
edge $-1 $370 0 $370 6.2831853071796004 $149 $371 forward 7 unknown #
vertex $-1 $152 $372 #
ellipse-curve $-1 47.549475209123457 -0.17024179320647548 6.2735419439957552 0.70710678939079041 0 0.70710677298230451 0.35355338649115226 0 -0.35355339469539521 1 I I #
coedge $-1 $252 $252 $-1 $373 reversed $155 $-1 #
edge $-1 $374 0 $374 6.2831853071796004 $156 $375 forward 7 unknown #
vertex $-1 $159 $376 #
ellipse-curve $-1 47.549475209123457 2.5432602896644667 6.2735419439957552 0.70710678939079041 0 0.70710677298230451 0.35355338649115226 0 -0.35355339469539521 1 I I #
face $-1 $-1 $175 $24 $-1 $377 reversed single #
loop $-1 $-1 $272 $160 #
plane-surface $-1 0 25.007410221387499 0 0 -1 0 0 0 -1 forward_v I I I I #
coedge $-1 $378 $270 $273 $379 forward $161 $-1 #
coedge $-1 $276 $163 $164 $264 reversed $100 $-1 #
coedge $-1 $270 $378 $163 $262 reversed $161 $-1 #
edge $-1 $277 -11.998397749397913 $380 11.998397749397913 $261 $381 forward 7 unknown #
coedge $-1 $165 $164 $378 $382 forward $65 $-1 #
edge $-1 $268 -53.274330881679738 $380 53.274330881679738 $260 $383 forward 7 unknown #
coedge $-1 $273 $272 $165 $266 reversed $257 $-1 #
edge $-1 $384 -53.274330881679738 $267 53.274330881679738 $265 $385 forward 7 unknown #
vertex $-1 $167 $386 #
vertex $-1 $279 $387 #
straight-curve $-1 53.274330881679738 0 -11.998397749397913 0 -1 0 I I #
coedge $-1 $259 $261 $168 $271 reversed $161 $-1 #
edge $-1 $274 -25.007410221387499 $277 25.007410221387499 $270 $388 forward 7 unknown #
coedge $-1 $265 $169 $174 $280 forward $257 $-1 #
coedge $-1 $169 $265 $259 $379 reversed $257 $-1 #
vertex $-1 $170 $389 #
straight-curve $-1 0 25.007410221387499 11.998397749397913 -1 0 0 I I #
coedge $-1 $171 $260 $173 $279 reversed $100 $-1 #
vertex $-1 $271 $390 #
straight-curve $-1 0 -25.007410221387499 11.998397749397913 1 0 0 I I #
edge $-1 $176 -11.998397749397913 $268 11.998397749397913 $173 $391 forward 7 unknown #
edge $-1 $177 -11.998397749397913 $267 11.998397749397913 $174 $392 forward 7 unknown #
point $-1 53.274330881679738 -25.007410221387499 11.998397749397913 #
point $-1 53.274330881679738 25.007410221387499 11.998397749397913 #
face $-1 $-1 $192 $25 $-1 $393 reversed single #
loop $-1 $-1 $290 $179 #
plane-surface $-1 0 0 11.998397749397913 0 0 1 1 0 0 forward_v I I I I #
coedge $-1 $394 $182 $187 $295 forward $108 $-1 #
coedge $-1 $182 $394 $395 $396 reversed $108 $-1 #
coedge $-1 $184 $183 $182 $289 reversed $69 $-1 #
edge $-1 $397 -7.6848223458647915 $300 -0.94232846120145553 $182 $398 forward 7 unknown #
coedge $-1 $395 $399 $184 $291 forward $284 $-1 #
edge $-1 $293 -53.274330881679738 $397 53.274330881679738 $290 $400 forward 7 unknown #
coedge $-1 $191 $185 $399 $401 reversed $192 $-1 #
vertex $-1 $186 $402 #
straight-curve $-1 53.274330881679738 -11.817309065896243 4.3135754035331235 0 0 1 I I #
edge $-1 $300 2.6111292440753076 $298 15.801230399566563 $286 $403 forward 7 unknown #
coedge $-1 $404 $188 $191 $302 reversed $180 $-1 #
coedge $-1 $188 $404 $394 $405 forward $180 $-1 #
vertex $-1 $189 $406 #
straight-curve $-1 0 -25.007410221387499 5.255903864734579 1 0 0 I I #
vertex $-1 $295 $407 #
straight-curve $-1 0 -11.817309065896243 5.255903864734579 1 0 0 I I #
edge $-1 $408 -11.998397749397913 $193 -5.255903864734579 $191 $409 forward 7 unknown #
point $-1 53.274330881679738 -25.007410221387499 5.255903864734579 #
point $-1 53.274330881679738 -11.817309065896243 5.255903864734579 #
face $-1 $-1 $321 $26 $-1 $410 reversed single #
loop $-1 $-1 $202 $196 #
plane-surface $-1 -53.274330881679738 0 0 1 0 0 0 0 -1 forward_v I I I I #
coedge $-1 $411 $199 $324 $412 forward $116 $-1 #
coedge $-1 $199 $411 $312 $413 forward $116 $-1 #
edge $-1 $315 -53.274330881679738 $414 53.274330881679738 $199 $415 forward 7 unknown #
coedge $-1 $201 $200 $209 $326 reversed $73 $-1 #
coedge $-1 $416 $202 $309 $413 reversed $306 $-1 #
coedge $-1 $202 $416 $204 $317 forward $306 $-1 #
vertex $-1 $317 $417 #
vertex $-1 $203 $418 #
straight-curve $-1 -53.274330881679738 11.817309065896239 4.3135754035331235 0 0 1 I I #
edge $-1 $322 -15.801230399566562 $314 -2.6111292440753058 $313 $419 forward 7 unknown #
straight-curve $-1 0 11.817309065896239 5.255903864734579 -1 0 0 I I #
coedge $-1 $420 $206 $416 $421 reversed $321 $-1 #
coedge $-1 $206 $420 $208 $325 forward $321 $-1 #
loop $-1 $-1 $206 $305 #
vertex $-1 $207 $422 #
straight-curve $-1 0 25.007410221387499 5.255903864734579 -1 0 0 I I #
coedge $-1 $209 $208 $308 $412 reversed $197 $-1 #
edge $-1 $423 -11.998397749397913 $211 -5.255903864734579 $208 $424 forward 7 unknown #
edge $-1 $414 -7.6848223458647915 $210 -0.94232846120145553 $209 $425 forward 7 unknown #
point $-1 53.274330881679738 11.817309065896239 5.255903864734579 #
point $-1 53.274330881679738 25.007410221387495 5.255903864734579 #
loop $-1 $-1 $222 $213 #
plane-surface $-1 0 -11.817309065896243 8.627150807066247 0 -1 0 0 0 -1 forward_v I I I I #
coedge $-1 $426 $216 $221 $337 forward $124 $-1 #
coedge $-1 $216 $426 $334 $427 reversed $124 $-1 #
edge $-1 $335 37.052652510362037 $342 42.278978098739643 $216 $428 forward 7 unknown #
coedge $-1 $225 $219 $332 $427 forward $214 $-1 #
vertex $-1 $427 $429 #
straight-curve $-1 -54.075474625255922 -5.1343664597488061 11.99839774939791 -1 0 0 I I #
edge $-1 $342 0.8964475783375434 $340 7.579390184484982 $331 $430 forward 7 unknown #
coedge $-1 $339 $222 $225 $344 reversed $329 $-1 #
coedge $-1 $222 $338 $426 $431 reversed $329 $-1 #
vertex $-1 $431 $432 #
straight-curve $-1 -33.293568195644063 -11.817309065896243 18.777725814556462 0.85716729658548041 0 0.51503808176128008 I I #
vertex $-1 $337 $433 #
straight-curve $-1 -53.274330881679731 -5.1343664597488061 6.7720721610203185 0.85716729658548041 0 0.51503808176128008 I I #
edge $-1 $434 -53.274330881679738 $226 -44.576264594337616 $225 $435 forward 7 unknown #
point $-1 -44.576264594337616 -11.817309065896245 11.998397749397913 #
point $-1 -44.576264594337616 -5.1343664597488061 11.998397749397913 #
edge $-1 $436 1 $436 0 $229 $-1 forward 7 unknown #
vertex $-1 $230 $437 #
ellipse-curve $-1 -48.410259656247391 -8.4758377628225254 8.5280676586236321 -0.51503808176128008 0 0.85716729658548041 0.4285836482927402 0 0.25751904088064004 1 I I #
point $-1 -48.49671408971593 -8.4758377628225254 9.6427539960897519 #
loop $-1 $-1 $241 $233 #
plane-surface $-1 53.274330881679738 0 0 -1 0 0 0 0 1 forward_v I I I I #
coedge $-1 $354 $236 $238 $358 reversed $139 $-1 #
coedge $-1 $236 $353 $438 $439 reversed $139 $-1 #
coedge $-1 $244 $239 $236 $356 forward $234 $-1 #
edge $-1 $359 15.187453221576209 $440 26.637164566688764 $355 $441 forward 7 unknown #
coedge $-1 $238 $237 $362 $442 reversed $86 $-1 #
edge $-1 $443 -106.5486617633595 $359 -90.356324505971813 $353 $444 forward 7 unknown #
vertex $-1 $240 $445 #
straight-curve $-1 41.824619536567198 0.59325462411449692 11.99839774939791 0 -1 0 I I #
coedge $-1 $438 $241 $244 $366 reversed $351 $-1 #
coedge $-1 $241 $438 $357 $442 forward $351 $-1 #
vertex $-1 $242 $446 #
straight-curve $-1 53.274330881679738 4.3522616782450925 75.615624328520099 0 0 1 I I #
straight-curve $-1 -22.066949503392443 4.3522616782450925 75.889968271968016 0.70710677298230451 0 -0.70710678939079041 I I #
edge $-1 $440 -1.9792431817871048 $245 4.3522616782450925 $361 $447 forward 7 unknown #
point $-1 53.274330881679738 4.3522616782450925 11.998397749397913 #
point $-1 41.824619536567184 4.3522616782450925 11.99839774939791 #
edge $-1 $448 1 $448 0 $248 $-1 forward 7 unknown #
vertex $-1 $249 $449 #
ellipse-curve $-1 46.842368419732679 -0.17024179320647548 5.5664351710134605 0.70710678939079041 0 0.70710677298230451 0.35355338649115226 0 -0.35355339469539521 1 I I #
point $-1 47.903028595614622 -0.17024179320647548 5.9199885493003706 #
edge $-1 $450 1 $450 0 $252 $-1 forward 7 unknown #
vertex $-1 $253 $451 #
ellipse-curve $-1 46.842368419732679 2.5432602896644667 5.5664351710134605 0.70710678939079041 0 0.70710677298230451 0.35355338649115226 0 -0.35355339469539521 1 I I #
point $-1 47.903028595614622 2.5432602896644667 5.9199885493003706 #
plane-surface $-1 53.274330881679738 0 0 -1 0 0 0 0 1 forward_v I I I I #
coedge $-1 $261 $259 $263 $382 reversed $161 $-1 #
edge $-1 $274 -11.998397749397913 $384 11.998397749397913 $273 $452 forward 7 unknown #
vertex $-1 $382 $453 #
straight-curve $-1 -53.274330881679738 -25.007410221387499 0 0 0 -1 I I #
edge $-1 $380 -25.007410221387499 $384 25.007410221387499 $378 $454 forward 7 unknown #
straight-curve $-1 0 -25.007410221387499 -11.998397749397913 -1 0 0 I I #
vertex $-1 $266 $455 #
straight-curve $-1 0 25.007410221387499 -11.998397749397913 1 0 0 I I #
point $-1 53.274330881679738 25.007410221387499 -11.998397749397913 #
point $-1 53.274330881679738 -25.007410221387499 -11.998397749397913 #
straight-curve $-1 -53.274330881679738 0 11.998397749397913 0 -1 0 I I #
point $-1 -53.274330881679738 25.007410221387499 11.998397749397913 #
point $-1 -53.274330881679738 -25.007410221387499 11.998397749397913 #
straight-curve $-1 53.274330881679738 -25.007410221387499 0 0 0 -1 I I #
straight-curve $-1 53.274330881679738 25.007410221387499 0 0 0 -1 I I #
plane-surface $-1 53.274330881679738 0 0 -1 0 0 0 0 1 forward_v I I I I #
coedge $-1 $287 $286 $297 $405 reversed $108 $-1 #
coedge $-1 $456 $290 $287 $396 forward $284 $-1 #
edge $-1 $397 11.817309065896243 $457 25.007410221387499 $287 $458 forward 7 unknown #
vertex $-1 $396 $459 #
straight-curve $-1 -53.274330881679738 -11.817309065896243 4.3135754035331235 0 0 -1 I I #
coedge $-1 $290 $456 $292 $401 forward $284 $-1 #
straight-curve $-1 0 -11.817309065896243 11.998397749397913 -1 0 0 I I #
edge $-1 $408 -25.007410221387499 $293 -11.817309065896243 $292 $460 forward 7 unknown #
point $-1 53.274330881679738 -11.817309065896243 11.998397749397915 #
straight-curve $-1 -53.274330881679738 -9.2061798218209354 5.255903864734579 0 -1 0 I I #
coedge $-1 $297 $296 $456 $461 reversed $180 $-1 #
edge $-1 $457 -11.998397749397913 $298 -5.255903864734579 $394 $462 forward 7 unknown #
point $-1 -53.274330881679738 -25.007410221387499 5.255903864734579 #
point $-1 -53.274330881679738 -11.817309065896243 5.255903864734579 #
vertex $-1 $401 $463 #
straight-curve $-1 53.274330881679738 -25.007410221387499 0 0 0 -1 I I #
plane-surface $-1 0 25.007410221387499 0 0 -1 0 0 0 -1 forward_v I I I I #
coedge $-1 $309 $308 $420 $464 forward $116 $-1 #
edge $-1 $414 11.817309065896239 $423 25.007410221387499 $324 $465 forward 7 unknown #
edge $-1 $466 -25.007410221387499 $315 -11.817309065896239 $312 $467 forward 7 unknown #
vertex $-1 $412 $468 #
straight-curve $-1 0 11.817309065896239 11.998397749397913 1 0 0 I I #
coedge $-1 $313 $312 $319 $421 forward $306 $-1 #
point $-1 -53.274330881679738 11.817309065896239 5.255903864734579 #
point $-1 -53.274330881679738 11.817309065896239 11.998397749397915 #
straight-curve $-1 -53.274330881679738 9.2061798218209336 5.255903864734579 0 -1 0 I I #
coedge $-1 $320 $319 $411 $464 reversed $321 $-1 #
edge $-1 $466 -11.998397749397913 $322 -5.255903864734579 $319 $469 forward 7 unknown #
point $-1 -53.274330881679738 25.007410221387495 5.255903864734579 #
vertex $-1 $412 $470 #
straight-curve $-1 53.274330881679738 25.007410221387499 0 0 0 -1 I I #
straight-curve $-1 53.274330881679738 11.817309065896239 4.3135754035331235 0 0 -1 I I #
coedge $-1 $332 $331 $339 $431 forward $124 $-1 #
edge $-1 $335 5.1343664597488061 $434 11.817309065896243 $332 $471 forward 7 unknown #
straight-curve $-1 -53.274330881679738 -5.1343664597488061 49.051050259759954 0 0 -1 I I #
point $-1 -53.274330881679738 -5.1343664597488061 11.998397749397913 #
straight-curve $-1 -53.274330881679738 -4.2379188814112627 6.7720721610203105 0 -1 0 I I #
edge $-1 $340 2.4584967574871905 $434 7.6848223458647915 $426 $472 forward 7 unknown #
point $-1 -53.274330881679738 -11.817309065896245 6.7720721610203141 #
point $-1 -53.274330881679738 -5.1343664597488061 6.7720721610203141 #
vertex $-1 $431 $473 #
straight-curve $-1 0 -11.817309065896243 11.998397749397913 1 0 0 I I #
vertex $-1 $347 $474 #
point $-1 -47.981676007954654 -8.4758377628225254 8.7855866995042717 #
coedge $-1 $362 $361 $354 $439 forward $351 $-1 #
edge $-1 $440 63.617226579122189 $443 75.066938189926475 $438 $475 forward 7 unknown #
vertex $-1 $366 $476 #
straight-curve $-1 26.637166314990974 -1.9792431817871048 11.99839774939791 1 0 0 I I #
edge $-1 $443 -2.5724978059016017 $363 3.7590070541305955 $362 $477 forward 7 unknown #
vertex $-1 $442 $478 #
straight-curve $-1 -22.066949503392443 -1.9792431817871048 75.889968271968016 -0.70710677298230451 0 0.70710678939079041 I I #
point $-1 41.824619536567184 -1.9792431817871048 11.99839774939791 #
point $-1 53.274330881679738 4.3522616782450925 0.5486861385936237 #
straight-curve $-1 53.274330881679738 0 11.998397749397913 0 1 0 I I #
vertex $-1 $369 $479 #
point $-1 47.195921806223829 -0.17024179320647548 5.2128817763180653 #
vertex $-1 $373 $480 #
point $-1 47.195921806223829 2.5432602896644667 5.2128817763180653 #
straight-curve $-1 -53.274330881679738 25.007410221387499 0 0 0 -1 I I #
point $-1 -53.274330881679738 -25.007410221387499 -11.998397749397913 #
straight-curve $-1 -53.274330881679738 0 -11.998397749397913 0 1 0 I I #
point $-1 -53.274330881679738 25.007410221387499 -11.998397749397913 #
coedge $-1 $399 $395 $404 $461 forward $284 $-1 #
vertex $-1 $396 $481 #
straight-curve $-1 -53.274330881679738 0 11.998397749397913 0 -1 0 I I #
point $-1 -53.274330881679738 -11.817309065896243 11.998397749397915 #
straight-curve $-1 53.274330881679738 0 11.998397749397913 0 1 0 I I #
edge $-1 $457 -53.274330881679738 $408 53.274330881679738 $404 $482 forward 7 unknown #
straight-curve $-1 -53.274330881679738 -25.007410221387499 0 0 0 -1 I I #
point $-1 53.274330881679738 -25.007410221387499 11.998397749397913 #
edge $-1 $423 -53.274330881679738 $466 53.274330881679738 $420 $483 forward 7 unknown #
straight-curve $-1 53.274330881679738 0 11.998397749397913 0 1 0 I I #
vertex $-1 $464 $484 #
straight-curve $-1 -53.274330881679738 0 11.998397749397913 0 -1 0 I I #
point $-1 53.274330881679738 11.817309065896239 11.998397749397915 #
straight-curve $-1 -53.274330881679738 25.007410221387499 0 0 0 -1 I I #
point $-1 53.274330881679738 25.007410221387499 11.998397749397913 #
straight-curve $-1 -53.274330881679738 0 11.998397749397913 0 -1 0 I I #
straight-curve $-1 -53.274330881679738 -11.817309065896243 4.3135754035331235 0 0 1 I I #
point $-1 -53.274330881679738 -11.817309065896243 11.998397749397915 #
point $-1 -48.152740615366753 -8.4758377628225254 8.099484010330892 #
straight-curve $-1 53.274330881679738 -1.9792431817871048 75.615624328520099 0 0 -1 I I #
point $-1 53.274330881679738 -1.9792431817871048 11.998397749397913 #
straight-curve $-1 53.274330881679731 0.59325462411449692 0.5486861385936308 0 1 0 I I #
point $-1 53.274330881679738 -1.9792431817871048 0.5486861385936237 #
point $-1 46.488815025037283 -0.17024179320647548 5.2128817845223088 #
point $-1 46.488815025037283 2.5432602896644667 5.2128817845223088 #
point $-1 -53.274330881679738 -25.007410221387499 11.998397749397913 #
straight-curve $-1 0 -25.007410221387499 11.998397749397913 1 0 0 I I #
straight-curve $-1 0 25.007410221387499 11.998397749397913 -1 0 0 I I #
point $-1 -53.274330881679738 25.007410221387499 11.998397749397913 #
End-of-ACIS-data 