500 0 8 0           
7 Unknown 11 ACIS 5.0 NT 24 Fri Mar 26 18:08:33 1999 
-1 9.9999999999999995e-007 1e-010 
body $-1 $8 $-1 $9 #
body $-1 $10 $-1 $11 #
body $-1 $12 $-1 $13 #
body $-1 $14 $-1 $15 #
body $-1 $16 $-1 $17 #
body $-1 $18 $-1 $19 #
body $-1 $20 $-1 $21 #
body $-1 $22 $-1 $23 #
lump $-1 $-1 $24 $0 #
transform $-1 1 0 0 0 1 0 0 0 1 61.563158055360574 32.269413277506025 11.214376958981426 1 rotate no_reflect no_shear #
lump $-1 $-1 $25 $1 #
transform $-1 1 0 0 0 1 0 0 0 1 61.563158055360574 32.269413277506025 11.214376958981426 1 rotate no_reflect no_shear #
lump $-1 $-1 $26 $2 #
transform $-1 1 0 0 0 1 0 0 0 1 61.563158055360574 32.269413277506025 11.214376958981426 1 rotate no_reflect no_shear #
lump $-1 $-1 $27 $3 #
transform $-1 1 0 0 0 1 0 0 0 1 61.563158055360574 32.269413277506025 11.214376958981426 1 rotate no_reflect no_shear #
lump $-1 $-1 $28 $4 #
transform $-1 1 0 0 0 1 0 0 0 1 61.563158055360574 32.269413277506025 11.214376958981426 1 rotate no_reflect no_shear #
lump $-1 $-1 $29 $5 #
transform $-1 1 0 0 0 1 0 0 0 1 61.563158055360574 32.269413277506025 11.214376958981426 1 rotate no_reflect no_shear #
lump $-1 $-1 $30 $6 #
transform $-1 1 0 0 0 1 0 0 0 1 61.563158055360574 32.269413277506025 11.214376958981426 1 rotate no_reflect no_shear #
lump $-1 $-1 $31 $7 #
transform $-1 1 0 0 0 1 0 0 0 1 61.563158055360574 32.269413277506025 11.214376958981426 1 rotate no_reflect no_shear #
shell $-1 $-1 $-1 $32 $-1 $8 #
shell $-1 $-1 $-1 $33 $-1 $10 #
shell $-1 $-1 $-1 $34 $-1 $12 #
shell $-1 $-1 $-1 $35 $-1 $14 #
shell $-1 $-1 $-1 $36 $-1 $16 #
shell $-1 $-1 $-1 $37 $-1 $18 #
shell $-1 $-1 $-1 $38 $-1 $20 #
shell $-1 $-1 $-1 $39 $-1 $22 #
face $-1 $40 $41 $24 $-1 $42 forward single #
face $-1 $43 $44 $25 $-1 $45 forward single #
face $-1 $46 $47 $26 $-1 $48 reversed single #
face $-1 $49 $50 $27 $-1 $51 forward single #
face $-1 $52 $53 $28 $-1 $54 forward single #
face $-1 $55 $56 $29 $-1 $57 reversed single #
face $-1 $58 $59 $30 $-1 $60 forward single #
face $-1 $61 $62 $31 $-1 $63 forward single #
face $-1 $64 $65 $24 $-1 $66 reversed single #
loop $-1 $-1 $67 $32 #
plane-surface $-1 0 0 11.214376958981426 0 0 1 1 0 0 forward_v I I I I #
face $-1 $68 $69 $25 $-1 $70 reversed single #
loop $-1 $-1 $71 $33 #
plane-surface $-1 0 -25.530550522178721 -4.6007454629412372 0 0 1 1 0 0 forward_v I I I I #
face $-1 $72 $73 $26 $-1 $74 reversed single #
loop $-1 $-1 $75 $34 #
plane-surface $-1 -168.19367663402454 23.847619980953873 63.852462426758088 0 1 0 -0.86602541151947299 0 0.49999998660252726 forward_v I I I I #
face $-1 $76 $77 $27 $-1 $78 forward single #
loop $-1 $79 $80 $35 #
cone-surface $-1 -57.517703901627698 26.253846637111629 5.9037092454857927 0.86602541151947299 0 -0.49999998660252726 0.49999998660252726 0 0.86602541151947299 1 I I 0 1 1 forward I I I I #
face $-1 $81 $82 $28 $-1 $83 forward single #
loop $-1 $84 $85 $36 #
cone-surface $-1 -57.517703901627698 29.86318662134827 5.9037092454857927 0.86602541151947299 0 -0.49999998660252726 0.49999998660252726 0 0.86602541151947299 1 I I 0 1 1 forward I I I I #
face $-1 $86 $87 $29 $-1 $88 reversed single #
loop $-1 $-1 $89 $37 #
plane-surface $-1 106.63052022824543 23.847619980953873 170.48298100542206 0 1 0 0.86602541151947299 0 0.49999998660252726 forward_v I I I I #
face $-1 $90 $91 $30 $-1 $92 forward single #
loop $-1 $93 $94 $38 #
cone-surface $-1 57.517703901627684 26.253846637111629 5.9037092454857856 -0.86602541151947299 0 -0.49999998660252726 0.49999998660252726 0 -0.86602541151947299 1 I I 0 1 1 forward I I I I #
face $-1 $95 $96 $31 $-1 $97 forward single #
loop $-1 $98 $99 $39 #
cone-surface $-1 57.517703901627684 29.86318662134827 5.9037092454857856 -0.86602541151947299 0 -0.49999998660252726 0.49999998660252726 0 -0.86602541151947299 1 I I 0 1 1 forward I I I I #
face $-1 $100 $101 $24 $-1 $102 reversed single #
loop $-1 $-1 $103 $40 #
plane-surface $-1 0 0 -11.214376958981426 0 0 1 1 0 0 forward_v I I I I #
coedge $-1 $104 $105 $106 $107 forward $41 $-1 #
face $-1 $108 $109 $25 $-1 $110 reversed single #
loop $-1 $-1 $111 $43 #
plane-surface $-1 0 -18.791687766851418 -7.9075612109613314 0 -1 0 0 0 -1 forward_v I I I I #
coedge $-1 $112 $113 $114 $115 reversed $44 $-1 #
face $-1 $116 $117 $26 $-1 $118 reversed single #
loop $-1 $-1 $119 $46 #
plane-surface $-1 -61.56315805536056 28.058516629229949 2.2893060209789837 -0.86602541151947299 0 0.49999998660252726 0.49999998660252726 0 0.86602541151947299 forward_v I I I I #
coedge $-1 $120 $121 $122 $123 reversed $47 $-1 #
face $-1 $-1 $124 $27 $-1 $125 forward single #
loop $-1 $126 $127 $49 #
cone-surface $-1 -55.615683004383555 26.253846637111629 4.8055770076901183 0.86602541151947299 0 -0.49999998660252726 0.24999999330126363 0 0.43301270575973649 1 I I -0.70710678118654746 0.70710678118654746 0.5 forward I I I I #
loop $-1 $-1 $128 $35 #
coedge $-1 $80 $80 $129 $130 reversed $50 $-1 #
face $-1 $-1 $131 $28 $-1 $132 forward single #
loop $-1 $133 $134 $52 #
cone-surface $-1 -55.615683004383555 29.86318662134827 4.8055770076901183 0.86602541151947299 0 -0.49999998660252726 0.24999999330126363 0 0.43301270575973649 1 I I -0.70710678118654746 0.70710678118654746 0.5 forward I I I I #
loop $-1 $-1 $135 $36 #
coedge $-1 $85 $85 $136 $137 reversed $53 $-1 #
face $-1 $138 $139 $29 $-1 $140 forward single #
loop $-1 $-1 $141 $55 #
plane-surface $-1 1.6495814492145655e-006 28.058516629229949 108.91982459964296 0.86602541151947299 0 0.49999998660252726 0.49999998660252726 0 -0.86602541151947299 forward_v I I I I #
coedge $-1 $142 $143 $144 $145 reversed $56 $-1 #
face $-1 $-1 $146 $30 $-1 $147 forward single #
loop $-1 $148 $149 $58 #
cone-surface $-1 55.615683004383541 26.253846637111629 4.8055770076901112 -0.86602541151947299 0 -0.49999998660252726 0.24999999330126363 0 -0.43301270575973649 1 I I -0.70710678118654746 0.70710678118654746 0.5 forward I I I I #
loop $-1 $-1 $150 $38 #
coedge $-1 $94 $94 $151 $152 reversed $59 $-1 #
face $-1 $-1 $153 $31 $-1 $154 forward single #
loop $-1 $155 $156 $61 #
cone-surface $-1 55.615683004383541 29.86318662134827 4.8055770076901112 -0.86602541151947299 0 -0.49999998660252726 0.24999999330126363 0 -0.43301270575973649 1 I I -0.70710678118654746 0.70710678118654746 0.5 forward I I I I #
loop $-1 $-1 $157 $39 #
coedge $-1 $99 $99 $158 $159 reversed $62 $-1 #
face $-1 $160 $161 $24 $-1 $162 reversed single #
loop $-1 $-1 $163 $64 #
plane-surface $-1 0 -32.269413277506025 0 0 1 0 0 0 1 forward_v I I I I #
coedge $-1 $164 $165 $166 $167 forward $65 $-1 #
coedge $-1 $168 $67 $169 $170 forward $41 $-1 #
coedge $-1 $67 $168 $171 $172 forward $41 $-1 #
coedge $-1 $173 $174 $67 $107 reversed $175 $-1 #
edge $-1 $176 -32.269413277506025 $177 32.269413277506025 $106 $178 forward 7 unknown #
face $-1 $179 $180 $25 $-1 $181 reversed single #
loop $-1 $-1 $182 $68 #
plane-surface $-1 0 0 -11.214376958981426 0 0 1 1 0 0 forward_v I I I I #
coedge $-1 $183 $184 $185 $186 reversed $69 $-1 #
coedge $-1 $187 $71 $184 $188 forward $44 $-1 #
coedge $-1 $71 $187 $189 $190 reversed $44 $-1 #
coedge $-1 $191 $185 $71 $115 forward $180 $-1 #
edge $-1 $192 6.0264125057620568 $193 19.504138016416665 $114 $194 forward 7 unknown #
face $-1 $195 $196 $26 $-1 $197 reversed single #
loop $-1 $-1 $198 $72 #
plane-surface $-1 0 32.269413277506025 0 0 -1 0 0 0 -1 forward_v I I I I #
coedge $-1 $199 $200 $201 $202 reversed $73 $-1 #
coedge $-1 $121 $75 $203 $204 reversed $47 $-1 #
coedge $-1 $75 $120 $199 $205 reversed $47 $-1 #
coedge $-1 $201 $206 $75 $123 forward $207 $-1 #
edge $-1 $208 22.533680261651696 $209 27.686572186148645 $122 $210 forward 7 unknown #
loop $-1 $-1 $129 $76 #
plane-surface $-1 -61.56315805536056 28.058516629229949 2.2893060209789837 -0.86602541151947299 0 0.49999998660252726 0.49999998660252726 0 0.86602541151947299 forward_v I I I I #
loop $-1 $-1 $211 $49 #
coedge $-1 $127 $127 $128 $212 reversed $77 $-1 #
coedge $-1 $128 $128 $127 $212 forward $79 $-1 #
coedge $-1 $129 $129 $80 $130 forward $124 $-1 #
edge $-1 $213 0 $213 6.2831853071796004 $129 $214 forward 7 unknown #
loop $-1 $-1 $136 $81 #
plane-surface $-1 -61.56315805536056 28.058516629229949 2.2893060209789837 -0.86602541151947299 0 0.49999998660252726 0.49999998660252726 0 0.86602541151947299 forward_v I I I I #
loop $-1 $-1 $215 $52 #
coedge $-1 $134 $134 $135 $216 reversed $82 $-1 #
coedge $-1 $135 $135 $134 $216 forward $84 $-1 #
coedge $-1 $136 $136 $85 $137 forward $131 $-1 #
edge $-1 $217 0 $217 6.2831853071796004 $136 $218 forward 7 unknown #
face $-1 $219 $220 $29 $-1 $221 reversed single #
loop $-1 $-1 $222 $86 #
plane-surface $-1 0 0 11.214376958981426 0 0 1 1 0 0 forward_v I I I I #
coedge $-1 $223 $224 $225 $226 reversed $87 $-1 #
coedge $-1 $143 $89 $227 $228 reversed $56 $-1 #
coedge $-1 $89 $142 $223 $229 reversed $56 $-1 #
coedge $-1 $225 $230 $89 $145 forward $231 $-1 #
edge $-1 $232 74.027113543729598 $233 82.95218448173209 $144 $234 forward 7 unknown #
loop $-1 $-1 $151 $90 #
plane-surface $-1 1.6495814492145655e-006 28.058516629229949 108.91982459964296 0.86602541151947299 0 0.49999998660252726 0.49999998660252726 0 -0.86602541151947299 forward_v I I I I #
loop $-1 $-1 $235 $58 #
coedge $-1 $149 $149 $150 $236 reversed $91 $-1 #
coedge $-1 $150 $150 $149 $236 forward $93 $-1 #
coedge $-1 $151 $151 $94 $152 forward $146 $-1 #
edge $-1 $237 0 $237 6.2831853071796004 $151 $238 forward 7 unknown #
loop $-1 $-1 $158 $95 #
plane-surface $-1 1.6495814492145655e-006 28.058516629229949 108.91982459964296 0.86602541151947299 0 0.49999998660252726 0.49999998660252726 0 -0.86602541151947299 forward_v I I I I #
loop $-1 $-1 $239 $61 #
coedge $-1 $156 $156 $157 $240 reversed $96 $-1 #
coedge $-1 $157 $157 $156 $240 forward $98 $-1 #
coedge $-1 $158 $158 $99 $159 forward $153 $-1 #
edge $-1 $241 0 $241 6.2831853071796004 $158 $242 forward 7 unknown #
face $-1 $243 $244 $24 $-1 $245 reversed single #
loop $-1 $-1 $246 $100 #
plane-surface $-1 -61.563158055360574 0 0 1 0 0 0 0 -1 forward_v I I I I #
coedge $-1 $247 $171 $248 $249 forward $101 $-1 #
coedge $-1 $250 $103 $247 $251 forward $65 $-1 #
coedge $-1 $103 $250 $252 $253 forward $65 $-1 #
coedge $-1 $174 $173 $103 $167 reversed $175 $-1 #
edge $-1 $254 -32.269413277506025 $255 32.269413277506025 $166 $256 forward 7 unknown #
coedge $-1 $105 $104 $257 $258 forward $41 $-1 #
coedge $-1 $259 $260 $104 $170 reversed $244 $-1 #
edge $-1 $177 -61.563158055360574 $261 61.563158055360574 $169 $262 forward 7 unknown #
coedge $-1 $163 $263 $105 $172 reversed $101 $-1 #
edge $-1 $264 -61.563158055360574 $176 61.563158055360574 $171 $265 forward 7 unknown #
coedge $-1 $166 $106 $263 $266 forward $175 $-1 #
coedge $-1 $106 $166 $259 $267 reversed $175 $-1 #
loop $-1 $-1 $173 $243 #
vertex $-1 $107 $268 #
vertex $-1 $107 $269 #
straight-curve $-1 61.563158055360574 0 11.214376958981426 0 1 0 I I #
face $-1 $270 $271 $25 $-1 $272 reversed single #
loop $-1 $-1 $185 $108 #
plane-surface $-1 61.563158055360574 0 0 -1 0 0 0 0 1 forward_v I I I I #
coedge $-1 $273 $274 $183 $275 forward $109 $-1 #
coedge $-1 $276 $111 $182 $275 reversed $69 $-1 #
coedge $-1 $111 $276 $112 $188 reversed $69 $-1 #
coedge $-1 $114 $277 $111 $186 forward $180 $-1 #
edge $-1 $278 -7.2605963535007598 $192 -0.64696485746057153 $185 $279 forward 7 unknown #
coedge $-1 $113 $112 $280 $281 reversed $44 $-1 #
edge $-1 $192 -61.563158055360574 $282 61.563158055360574 $184 $283 forward 7 unknown #
coedge $-1 $284 $285 $113 $190 forward $271 $-1 #
edge $-1 $193 -61.563158055360574 $286 61.563158055360574 $189 $287 forward 7 unknown #
coedge $-1 $277 $114 $285 $288 forward $180 $-1 #
vertex $-1 $115 $289 #
vertex $-1 $288 $290 #
straight-curve $-1 61.563158055360574 -12.765275261089361 -4.6007454629412372 0 -1 0 I I #
face $-1 $-1 $207 $26 $-1 $291 forward single #
loop $-1 $-1 $292 $116 #
plane-surface $-1 -61.563158055360574 0 0 1 0 0 0 0 -1 forward_v I I I I #
coedge $-1 $293 $294 $200 $295 forward $117 $-1 #
coedge $-1 $296 $119 $121 $205 forward $73 $-1 #
coedge $-1 $119 $296 $198 $295 reversed $73 $-1 #
coedge $-1 $297 $122 $119 $202 forward $207 $-1 #
edge $-1 $209 9.8183616663388982 $298 18.240154962891051 $201 $299 forward 7 unknown #
coedge $-1 $300 $292 $120 $204 forward $196 $-1 #
edge $-1 $301 -29.636925192400085 $208 -20.711854254397618 $203 $302 forward 7 unknown #
edge $-1 $209 -10.305784125136793 $301 2.8258016906358157e-014 $121 $303 forward 7 unknown #
coedge $-1 $122 $297 $300 $304 forward $207 $-1 #
loop $-1 $-1 $201 $195 #
vertex $-1 $204 $305 #
vertex $-1 $123 $306 #
straight-curve $-1 -84.096838317012271 23.847619980953873 11.214376958981426 1 0 0 I I #
coedge $-1 $211 $211 $-1 $307 reversed $126 $-1 #
edge $-1 $308 0 $308 6.2831853071796004 $127 $309 forward 7 unknown #
vertex $-1 $130 $310 #
ellipse-curve $-1 -58.986712093112097 26.253846637111629 6.7518414899801984 -0.86602541151947299 0 0.49999998660252726 0.49999998660252726 0 0.86602541151947299 1 I I #
coedge $-1 $215 $215 $-1 $311 reversed $133 $-1 #
edge $-1 $312 0 $312 6.2831853071796004 $134 $313 forward 7 unknown #
vertex $-1 $137 $314 #
ellipse-curve $-1 -58.986712093112097 29.86318662134827 6.7518414899801984 -0.86602541151947299 0 0.49999998660252726 0.49999998660252726 0 0.86602541151947299 1 I I #
face $-1 $-1 $231 $29 $-1 $315 reversed single #
loop $-1 $-1 $316 $138 #
plane-surface $-1 0 32.269413277506025 0 0 -1 0 0 0 -1 forward_v I I I I #
coedge $-1 $227 $317 $318 $319 forward $139 $-1 #
coedge $-1 $318 $141 $143 $229 forward $87 $-1 #
coedge $-1 $141 $318 $316 $320 reversed $87 $-1 #
coedge $-1 $321 $144 $141 $226 forward $231 $-1 #
edge $-1 $233 9.8183616663388982 $322 18.240154962891051 $225 $323 forward 7 unknown #
coedge $-1 $324 $222 $142 $228 forward $139 $-1 #
edge $-1 $325 3.0950060167408964 $232 8.2478979412378592 $227 $326 forward 7 unknown #
edge $-1 $233 -123.12631611072118 $325 -112.82053198558432 $143 $327 forward 7 unknown #
coedge $-1 $144 $321 $324 $328 reversed $231 $-1 #
loop $-1 $-1 $225 $219 #
vertex $-1 $328 $329 #
vertex $-1 $145 $330 #
straight-curve $-1 61.563158055360574 23.847619980953873 85.241490502711031 0 0 -1 I I #
coedge $-1 $235 $235 $-1 $331 reversed $148 $-1 #
edge $-1 $332 0 $332 6.2831853071796004 $149 $333 forward 7 unknown #
vertex $-1 $152 $334 #
ellipse-curve $-1 58.986712093112089 26.253846637111629 6.7518414899801975 0.86602541151947299 0 0.49999998660252726 0.49999998660252726 0 -0.86602541151947299 1 I I #
coedge $-1 $239 $239 $-1 $335 reversed $155 $-1 #
edge $-1 $336 0 $336 6.2831853071796004 $156 $337 forward 7 unknown #
vertex $-1 $159 $338 #
ellipse-curve $-1 58.986712093112089 29.86318662134827 6.7518414899801975 0.86602541151947299 0 0.49999998660252726 0.49999998660252726 0 -0.86602541151947299 1 I I #
face $-1 $-1 $175 $24 $-1 $339 reversed single #
loop $-1 $-1 $259 $160 #
plane-surface $-1 0 32.269413277506025 0 0 -1 0 0 0 -1 forward_v I I I I #
coedge $-1 $340 $257 $260 $341 forward $161 $-1 #
coedge $-1 $263 $163 $164 $251 reversed $101 $-1 #
coedge $-1 $257 $340 $163 $249 reversed $161 $-1 #
edge $-1 $264 -11.214376958981426 $342 11.214376958981426 $248 $343 forward 7 unknown #
coedge $-1 $165 $164 $340 $344 forward $65 $-1 #
edge $-1 $255 -61.563158055360574 $342 61.563158055360574 $247 $345 forward 7 unknown #
coedge $-1 $260 $259 $165 $253 reversed $244 $-1 #
edge $-1 $346 -61.563158055360574 $254 61.563158055360574 $252 $347 forward 7 unknown #
vertex $-1 $167 $348 #
vertex $-1 $266 $349 #
straight-curve $-1 61.563158055360574 0 -11.214376958981426 0 -1 0 I I #
coedge $-1 $246 $248 $168 $258 reversed $161 $-1 #
edge $-1 $261 -32.269413277506025 $264 32.269413277506025 $257 $350 forward 7 unknown #
coedge $-1 $252 $169 $174 $267 forward $244 $-1 #
coedge $-1 $169 $252 $246 $341 reversed $244 $-1 #
vertex $-1 $170 $351 #
straight-curve $-1 0 32.269413277506025 11.214376958981426 -1 0 0 I I #
coedge $-1 $171 $247 $173 $266 reversed $101 $-1 #
vertex $-1 $258 $352 #
straight-curve $-1 0 -32.269413277506025 11.214376958981426 1 0 0 I I #
edge $-1 $176 -11.214376958981426 $255 11.214376958981426 $173 $353 forward 7 unknown #
edge $-1 $177 -11.214376958981426 $254 11.214376958981426 $174 $354 forward 7 unknown #
point $-1 61.563158055360574 -32.269413277506025 11.214376958981426 #
point $-1 61.563158055360574 32.269413277506025 11.214376958981426 #
face $-1 $-1 $355 $25 $-1 $356 reversed single #
loop $-1 $-1 $189 $179 #
plane-surface $-1 0 -32.269413277506025 0 0 1 0 0 0 1 forward_v I I I I #
coedge $-1 $357 $182 $277 $358 forward $109 $-1 #
coedge $-1 $182 $357 $359 $360 forward $109 $-1 #
edge $-1 $361 -61.563158055360574 $278 61.563158055360574 $182 $362 forward 7 unknown #
coedge $-1 $184 $183 $363 $364 reversed $69 $-1 #
coedge $-1 $185 $191 $273 $358 reversed $180 $-1 #
vertex $-1 $358 $365 #
straight-curve $-1 61.563158055360574 -18.791687766851418 -3.9537806054806657 0 0 1 I I #
coedge $-1 $363 $366 $187 $281 forward $355 $-1 #
edge $-1 $286 -19.504138016416665 $282 -6.0264125057620568 $280 $367 forward 7 unknown #
vertex $-1 $281 $368 #
straight-curve $-1 0 -18.791687766851418 -4.6007454629412372 -1 0 0 I I #
coedge $-1 $369 $189 $366 $370 forward $271 $-1 #
coedge $-1 $189 $369 $191 $288 reversed $271 $-1 #
vertex $-1 $370 $371 #
straight-curve $-1 0 -32.269413277506025 -4.6007454629412372 -1 0 0 I I #
edge $-1 $193 4.6007454629412372 $372 11.214376958981426 $191 $373 forward 7 unknown #
point $-1 61.563158055360574 -18.791687766851418 -4.6007454629412372 #
point $-1 61.563158055360574 -32.269413277506025 -4.6007454629412372 #
plane-surface $-1 0 0 11.214376958981426 0 0 1 1 0 0 forward_v I I I I #
coedge $-1 $203 $374 $296 $375 forward $196 $-1 #
coedge $-1 $294 $198 $374 $376 reversed $117 $-1 #
coedge $-1 $198 $293 $297 $377 reversed $117 $-1 #
edge $-1 $298 4.0937063818518196 $378 14.39949050698864 $198 $379 forward 7 unknown #
coedge $-1 $200 $199 $292 $375 reversed $73 $-1 #
coedge $-1 $206 $201 $294 $377 forward $207 $-1 #
vertex $-1 $377 $380 #
straight-curve $-1 -56.410266130863633 14.029258314614975 11.214376958981426 0 1 0 I I #
coedge $-1 $374 $203 $206 $304 reversed $196 $-1 #
vertex $-1 $204 $381 #
straight-curve $-1 -61.563158055360574 23.847619980953873 31.926231213379044 0 0 1 I I #
straight-curve $-1 -61.56315805536056 23.847619980953873 2.2893060209789837 -0.49999998660252726 0 -0.86602541151947299 I I #
edge $-1 $382 -32.269413277506025 $208 -23.847619980953873 $300 $383 forward 7 unknown #
point $-1 -61.563158055360574 23.847619980953873 11.214376958981426 #
point $-1 -56.410266130863626 23.847619980953873 11.214376958981426 #
edge $-1 $384 1 $384 0 $211 $-1 forward 7 unknown #
vertex $-1 $212 $385 #
ellipse-curve $-1 -56.048695710143292 26.253846637111629 5.0555770009913816 -0.86602541151947299 0 0.49999998660252726 0.49999998660252726 0 0.86602541151947299 1 I I #
point $-1 -58.486712106509579 26.253846637111629 7.6178669014996769 #
edge $-1 $386 1 $386 0 $215 $-1 forward 7 unknown #
vertex $-1 $216 $387 #
ellipse-curve $-1 -56.048695710143292 29.86318662134827 5.0555770009913816 -0.86602541151947299 0 0.49999998660252726 0.49999998660252726 0 0.86602541151947299 1 I I #
point $-1 -58.486712106509579 29.86318662134827 7.6178669014996769 #
plane-surface $-1 61.563158055360574 0 0 -1 0 0 0 0 1 forward_v I I I I #
coedge $-1 $388 $389 $224 $320 forward $220 $-1 #
coedge $-1 $222 $324 $388 $390 forward $139 $-1 #
coedge $-1 $224 $223 $222 $319 reversed $87 $-1 #
edge $-1 $391 -18.240154962891051 $325 -9.8183616663388982 $222 $392 forward 7 unknown #
edge $-1 $322 -75.96264856234923 $391 -65.656864437212377 $316 $393 forward 7 unknown #
coedge $-1 $230 $225 $389 $394 reversed $231 $-1 #
vertex $-1 $226 $395 #
straight-curve $-1 61.563158055360574 14.029258314614975 2.2893060209789269 0 1 0 I I #
coedge $-1 $317 $227 $230 $328 forward $139 $-1 #
vertex $-1 $228 $396 #
straight-curve $-1 53.315260114122715 23.847619980953873 11.214376958981418 1 0 0 I I #
straight-curve $-1 1.6495814492145655e-006 23.847619980953873 108.91982459964296 -0.49999998660252726 0 0.86602541151947299 I I #
edge $-1 $232 23.847619980953873 $397 32.269413277506025 $230 $398 forward 7 unknown #
point $-1 61.563158055360574 23.847619980953873 11.214376958981426 #
point $-1 61.563158055360574 23.847619980953873 2.2893060209789411 #
edge $-1 $399 1 $399 0 $235 $-1 forward 7 unknown #
vertex $-1 $236 $400 #
ellipse-curve $-1 56.048695710143278 26.253846637111629 5.0555770009913745 0.86602541151947299 0 0.49999998660252726 0.49999998660252726 0 -0.86602541151947299 1 I I #
point $-1 59.486712079714621 26.253846637111629 5.8858160784607243 #
edge $-1 $401 1 $401 0 $239 $-1 forward 7 unknown #
vertex $-1 $240 $402 #
ellipse-curve $-1 56.048695710143278 29.86318662134827 5.0555770009913745 0.86602541151947299 0 0.49999998660252726 0.49999998660252726 0 -0.86602541151947299 1 I I #
point $-1 59.486712079714621 29.86318662134827 5.8858160784607243 #
plane-surface $-1 61.563158055360574 0 0 -1 0 0 0 0 1 forward_v I I I I #
coedge $-1 $248 $246 $250 $344 reversed $161 $-1 #
edge $-1 $261 -11.214376958981426 $346 11.214376958981426 $260 $403 forward 7 unknown #
vertex $-1 $344 $404 #
straight-curve $-1 -61.563158055360574 -32.269413277506025 0 0 0 -1 I I #
edge $-1 $342 -32.269413277506025 $346 32.269413277506025 $340 $405 forward 7 unknown #
straight-curve $-1 0 -32.269413277506025 -11.214376958981426 -1 0 0 I I #
vertex $-1 $253 $406 #
straight-curve $-1 0 32.269413277506025 -11.214376958981426 1 0 0 I I #
point $-1 61.563158055360574 32.269413277506025 -11.214376958981426 #
point $-1 61.563158055360574 -32.269413277506025 -11.214376958981426 #
straight-curve $-1 -61.563158055360574 0 11.214376958981426 0 -1 0 I I #
point $-1 -61.563158055360574 32.269413277506025 11.214376958981426 #
point $-1 -61.563158055360574 -32.269413277506025 11.214376958981426 #
straight-curve $-1 61.563158055360574 -32.269413277506025 0 0 0 -1 I I #
straight-curve $-1 61.563158055360574 32.269413277506025 0 0 0 -1 I I #
loop $-1 $-1 $363 $270 #
plane-surface $-1 -61.563158055360574 0 0 1 0 0 0 0 -1 forward_v I I I I #
coedge $-1 $274 $273 $369 $407 forward $109 $-1 #
edge $-1 $278 18.791687766851418 $372 32.269413277506025 $277 $408 forward 7 unknown #
coedge $-1 $366 $363 $274 $360 reversed $355 $-1 #
edge $-1 $409 -32.269413277506025 $361 -18.791687766851418 $359 $410 forward 7 unknown #
vertex $-1 $364 $411 #
straight-curve $-1 0 -18.791687766851418 -11.214376958981426 1 0 0 I I #
coedge $-1 $359 $280 $276 $364 forward $355 $-1 #
edge $-1 $282 0.64696485746057153 $361 7.2605963535007598 $363 $412 forward 7 unknown #
point $-1 61.563158055360574 -18.791687766851418 -11.214376958981426 #
coedge $-1 $280 $359 $284 $370 reversed $355 $-1 #
straight-curve $-1 -61.563158055360574 -12.765275261089361 -4.6007454629412372 0 1 0 I I #
point $-1 -61.563158055360574 -18.791687766851418 -4.6007454629412372 #
coedge $-1 $285 $284 $357 $407 reversed $271 $-1 #
edge $-1 $286 4.6007454629412372 $409 11.214376958981426 $366 $413 forward 7 unknown #
point $-1 -61.563158055360574 -32.269413277506025 -4.6007454629412372 #
vertex $-1 $288 $414 #
straight-curve $-1 61.563158055360574 -32.269413277506025 0 0 0 -1 I I #
coedge $-1 $292 $300 $293 $376 forward $196 $-1 #
edge $-1 $378 -18.240154962891051 $301 -9.8183616663388982 $292 $415 forward 7 unknown #
edge $-1 $382 -11.214376958981426 $378 -2.2893060209789593 $293 $416 forward 7 unknown #
edge $-1 $298 56.410266130863626 $382 61.563158055360574 $294 $417 forward 7 unknown #
vertex $-1 $295 $418 #
straight-curve $-1 -54.363412994783033 32.269413277506025 14.759630712964539 -0.49999998660252726 0 -0.86602541151947299 I I #
point $-1 -56.410266130863626 32.269413277506025 11.214376958981426 #
point $-1 -61.563158055360574 23.847619980953873 2.2893060209789593 #
vertex $-1 $377 $419 #
straight-curve $-1 -61.563158055360574 0 11.214376958981426 0 -1 0 I I #
vertex $-1 $307 $420 #
point $-1 -55.548695723540767 26.253846637111629 5.9216024125108548 #
vertex $-1 $311 $421 #
point $-1 -55.548695723540767 29.86318662134827 5.9216024125108548 #
coedge $-1 $389 $316 $317 $390 reversed $220 $-1 #
coedge $-1 $316 $388 $321 $394 forward $220 $-1 #
edge $-1 $397 -61.563158055360574 $391 -56.410266130863612 $388 $422 forward 7 unknown #
vertex $-1 $320 $423 #
straight-curve $-1 56.410266130863619 14.029258314614975 11.214376958981433 0 -1 0 I I #
straight-curve $-1 23.581834791893474 32.269413277506025 68.074890002296527 -0.49999998660252726 0 0.86602541151947299 I I #
edge $-1 $397 -11.214376958981426 $322 -2.2893060209789344 $321 $424 forward 7 unknown #
point $-1 61.563158055360574 32.269413277506025 2.2893060209789344 #
point $-1 56.410266130863612 23.847619980953873 11.214376958981433 #
vertex $-1 $328 $425 #
straight-curve $-1 61.563158055360574 0 11.214376958981426 0 1 0 I I #
vertex $-1 $331 $426 #
point $-1 56.548695696745803 26.253846637111629 4.1895515894719022 #
vertex $-1 $335 $427 #
point $-1 56.548695696745803 29.86318662134827 4.1895515894719022 #
straight-curve $-1 -61.563158055360574 32.269413277506025 0 0 0 -1 I I #
point $-1 -61.563158055360574 -32.269413277506025 -11.214376958981426 #
straight-curve $-1 -61.563158055360574 0 -11.214376958981426 0 1 0 I I #
point $-1 -61.563158055360574 32.269413277506025 -11.214376958981426 #
edge $-1 $372 -61.563158055360574 $409 61.563158055360574 $369 $428 forward 7 unknown #
straight-curve $-1 61.563158055360574 0 -11.214376958981426 0 -1 0 I I #
vertex $-1 $360 $429 #
straight-curve $-1 -61.563158055360574 0 -11.214376958981426 0 1 0 I I #
point $-1 -61.563158055360574 -18.791687766851418 -11.214376958981426 #
straight-curve $-1 -61.563158055360574 -18.791687766851418 -3.9537806054806657 0 0 -1 I I #
straight-curve $-1 -61.563158055360574 -32.269413277506025 0 0 0 -1 I I #
point $-1 61.563158055360574 -32.269413277506025 -11.214376958981426 #
straight-curve $-1 -61.563158055360574 14.029258314614975 2.2893060209789571 0 -1 0 I I #
straight-curve $-1 -61.563158055360574 32.269413277506025 0 0 0 -1 I I #
straight-curve $-1 0 32.269413277506025 11.214376958981426 -1 0 0 I I #
point $-1 -61.563158055360574 32.269413277506025 2.2893060209789593 #
point $-1 -61.563158055360574 32.269413277506025 11.214376958981426 #
point $-1 -55.182670298623819 26.253846637111629 4.555577014388855 #
point $-1 -55.182670298623819 29.86318662134827 4.555577014388855 #
straight-curve $-1 0 32.269413277506025 11.214376958981426 -1 0 0 I I #
point $-1 56.410266130863612 32.269413277506025 11.214376958981433 #
straight-curve $-1 61.563158055360574 32.269413277506025 0 0 0 -1 I I #
point $-1 61.563158055360574 32.269413277506025 11.214376958981426 #
point $-1 55.182670298623805 26.253846637111629 4.5555770143888479 #
point $-1 55.182670298623805 29.86318662134827 4.5555770143888479 #
straight-curve $-1 0 -32.269413277506025 -11.214376958981426 -1 0 0 I I #
point $-1 -61.563158055360574 -32.269413277506025 -11.214376958981426 #
End-of-ACIS-data 