500 0 8 0           
7 Unknown 11 ACIS 5.0 NT 24 Fri Mar 26 01:05:22 1999 
-1 9.9999999999999995e-007 1e-010 
body $-1 $8 $-1 $9 #
body $-1 $10 $-1 $11 #
body $-1 $12 $-1 $13 #
body $-1 $14 $-1 $15 #
body $-1 $16 $-1 $17 #
body $-1 $18 $-1 $19 #
body $-1 $20 $-1 $21 #
body $-1 $22 $-1 $23 #
lump $-1 $-1 $24 $0 #
transform $-1 1 0 0 0 1 0 0 0 1 76.109500411999875 41.793678481801692 19.261035149805821 1 rotate no_reflect no_shear #
lump $-1 $-1 $25 $1 #
transform $-1 1 0 0 0 1 0 0 0 1 76.109500411999875 41.793678481801692 19.261035149805821 1 rotate no_reflect no_shear #
lump $-1 $-1 $26 $2 #
transform $-1 1 0 0 0 1 0 0 0 1 76.109500411999875 41.793678481801692 19.261035149805821 1 rotate no_reflect no_shear #
lump $-1 $-1 $27 $3 #
transform $-1 1 0 0 0 1 0 0 0 1 76.109500411999875 41.793678481801692 19.261035149805821 1 rotate no_reflect no_shear #
lump $-1 $-1 $28 $4 #
transform $-1 1 0 0 0 1 0 0 0 1 76.109500411999875 41.793678481801692 19.261035149805821 1 rotate no_reflect no_shear #
lump $-1 $-1 $29 $5 #
transform $-1 1 0 0 0 1 0 0 0 1 76.109500411999875 41.793678481801692 19.261035149805821 1 rotate no_reflect no_shear #
lump $-1 $-1 $30 $6 #
transform $-1 1 0 0 0 1 0 0 0 1 76.109500411999875 41.793678481801692 19.261035149805821 1 rotate no_reflect no_shear #
lump $-1 $-1 $31 $7 #
transform $-1 1 0 0 0 1 0 0 0 1 76.109500411999875 41.793678481801692 19.261035149805821 1 rotate no_reflect no_shear #
shell $-1 $-1 $-1 $32 $-1 $8 #
shell $-1 $-1 $-1 $33 $-1 $10 #
shell $-1 $-1 $-1 $34 $-1 $12 #
shell $-1 $-1 $-1 $35 $-1 $14 #
shell $-1 $-1 $-1 $36 $-1 $16 #
shell $-1 $-1 $-1 $37 $-1 $18 #
shell $-1 $-1 $-1 $38 $-1 $20 #
shell $-1 $-1 $-1 $39 $-1 $22 #
face $-1 $40 $41 $24 $-1 $42 forward single #
face $-1 $43 $44 $25 $-1 $45 reversed single #
face $-1 $46 $47 $26 $-1 $48 reversed single #
face $-1 $49 $50 $27 $-1 $51 forward single #
face $-1 $52 $53 $28 $-1 $54 forward single #
face $-1 $55 $56 $29 $-1 $57 reversed single #
face $-1 $58 $59 $30 $-1 $60 forward single #
face $-1 $61 $62 $31 $-1 $63 forward single #
face $-1 $64 $65 $24 $-1 $66 reversed single #
loop $-1 $-1 $67 $32 #
plane-surface $-1 0 0 19.261035149805821 0 0 1 1 0 0 forward_v I I I I #
face $-1 $68 $69 $25 $-1 $70 reversed single #
loop $-1 $-1 $71 $33 #
plane-surface $-1 -64.481565232197426 0 11.546863309693462 0 0 1 1 0 0 forward_v I I I I #
face $-1 $72 $73 $26 $-1 $74 reversed single #
loop $-1 $-1 $75 $34 #
plane-surface $-1 62.213503685700871 63.642171585506759 176.69591077415291 1 0 0 0 -0.5877852598018023 -0.80901698891910034 forward_v I I I I #
face $-1 $76 $77 $27 $-1 $78 forward single #
loop $-1 $79 $80 $35 #
cone-surface $-1 66.183788464643442 30.453448673722924 10.291119687249946 0 -0.5877852598018023 -0.80901698891910034 1.5 0 0 1 I I 0 1 1.5 forward I I I I #
face $-1 $81 $82 $28 $-1 $83 forward single #
loop $-1 $84 $85 $36 #
cone-surface $-1 72.13921563305729 30.453448673722924 10.291119687249946 0 -0.5877852598018023 -0.80901698891910034 1.5 0 0 1 I I 0 1 1.5 forward I I I I #
face $-1 $86 $87 $29 $-1 $88 reversed single #
loop $-1 $-1 $89 $37 #
plane-surface $-1 69.161502048850366 -41.793678481801706 4.4167367422489718 0 -0.5877852598018023 0.80901698891910034 1 0 0 forward_v I I I I #
face $-1 $90 $91 $30 $-1 $92 forward single #
loop $-1 $93 $94 $38 #
cone-surface $-1 66.183788464643442 -30.453448673722921 10.291119687249946 0 0.5877852598018023 -0.80901698891910034 1.5 0 0 1 I I 0 1 1.5 forward I I I I #
face $-1 $95 $96 $31 $-1 $97 forward single #
loop $-1 $98 $99 $39 #
cone-surface $-1 72.13921563305729 -30.453448673722921 10.291119687249946 0 0.5877852598018023 -0.80901698891910034 1.5 0 0 1 I I 0 1 1.5 forward I I I I #
face $-1 $100 $101 $24 $-1 $102 reversed single #
loop $-1 $-1 $103 $40 #
plane-surface $-1 0 0 -19.261035149805821 0 0 1 1 0 0 forward_v I I I I #
coedge $-1 $104 $105 $106 $107 forward $41 $-1 #
face $-1 $108 $109 $25 $-1 $110 reversed single #
loop $-1 $-1 $111 $43 #
plane-surface $-1 -52.853630052394976 0 15.403949229749642 -1 0 0 0 0 1 forward_v I I I I #
coedge $-1 $112 $113 $114 $115 forward $44 $-1 #
face $-1 $116 $117 $26 $-1 $118 forward single #
loop $-1 $-1 $119 $46 #
plane-surface $-1 69.161502048850366 -25.829913360598695 53.548153071246574 0 0.5877852598018023 0.80901698891910034 1 0 0 forward_v I I I I #
coedge $-1 $120 $121 $122 $123 reversed $47 $-1 #
face $-1 $-1 $124 $27 $-1 $125 forward single #
loop $-1 $126 $127 $49 #
cone-surface $-1 66.183788464643442 28.888091696508056 8.1365906867831761 0 -0.5877852598018023 -0.80901698891910034 0.75 0 0 1 I I -0.70710678118654757 0.70710678118654757 0.75 forward I I I I #
loop $-1 $-1 $128 $35 #
coedge $-1 $80 $80 $129 $130 reversed $50 $-1 #
face $-1 $-1 $131 $28 $-1 $132 forward single #
loop $-1 $133 $134 $52 #
cone-surface $-1 72.13921563305729 28.888091696508056 8.1365906867831761 0 -0.5877852598018023 -0.80901698891910034 0.75 0 0 1 I I -0.70710678118654757 0.70710678118654757 0.75 forward I I I I #
loop $-1 $-1 $135 $36 #
coedge $-1 $85 $85 $136 $137 reversed $53 $-1 #
face $-1 $138 $139 $29 $-1 $140 forward single #
loop $-1 $-1 $141 $55 #
plane-surface $-1 62.213503685700871 -131.26576342790716 127.5644944451553 1 0 0 0 0.5877852598018023 -0.80901698891910034 forward_v I I I I #
coedge $-1 $142 $143 $144 $145 reversed $56 $-1 #
face $-1 $-1 $146 $30 $-1 $147 forward single #
loop $-1 $148 $149 $58 #
cone-surface $-1 66.183788464643442 -28.888091696508052 8.1365906867831761 0 0.5877852598018023 -0.80901698891910034 0.75 0 0 1 I I -0.70710678118654757 0.70710678118654757 0.75 forward I I I I #
loop $-1 $-1 $150 $38 #
coedge $-1 $94 $94 $151 $152 reversed $59 $-1 #
face $-1 $-1 $153 $31 $-1 $154 forward single #
loop $-1 $155 $156 $61 #
cone-surface $-1 72.13921563305729 -28.888091696508052 8.1365906867831761 0 0.5877852598018023 -0.80901698891910034 0.75 0 0 1 I I -0.70710678118654757 0.70710678118654757 0.75 forward I I I I #
loop $-1 $-1 $157 $39 #
coedge $-1 $99 $99 $158 $159 reversed $62 $-1 #
face $-1 $160 $161 $24 $-1 $162 reversed single #
loop $-1 $-1 $163 $64 #
plane-surface $-1 0 -41.793678481801692 0 0 1 0 0 0 1 forward_v I I I I #
coedge $-1 $164 $165 $166 $167 forward $65 $-1 #
coedge $-1 $168 $67 $169 $170 forward $41 $-1 #
coedge $-1 $67 $168 $171 $172 forward $41 $-1 #
coedge $-1 $173 $174 $67 $107 reversed $175 $-1 #
edge $-1 $176 -41.793678481801692 $177 41.793678481801692 $106 $178 forward 7 unknown #
face $-1 $179 $180 $25 $-1 $181 reversed single #
loop $-1 $-1 $182 $68 #
plane-surface $-1 0 41.793678481801692 0 0 -1 0 0 0 -1 forward_v I I I I #
coedge $-1 $114 $183 $184 $185 reversed $69 $-1 #
coedge $-1 $186 $71 $187 $188 reversed $44 $-1 #
coedge $-1 $71 $186 $189 $190 reversed $44 $-1 #
coedge $-1 $191 $111 $71 $115 reversed $69 $-1 #
edge $-1 $192 -41.793678481801692 $193 41.793678481801692 $114 $194 forward 7 unknown #
face $-1 $195 $196 $26 $-1 $197 reversed single #
loop $-1 $-1 $122 $72 #
plane-surface $-1 0 0 19.261035149805821 0 0 1 1 0 0 forward_v I I I I #
coedge $-1 $198 $199 $200 $201 reversed $73 $-1 #
coedge $-1 $121 $75 $202 $203 reversed $47 $-1 #
coedge $-1 $75 $120 $198 $204 reversed $47 $-1 #
coedge $-1 $200 $205 $75 $123 forward $117 $-1 #
edge $-1 $206 -9.9725926890483123 $207 10.458830862382172 $122 $208 forward 7 unknown #
loop $-1 $-1 $129 $76 #
plane-surface $-1 69.161502048850366 -25.829913360598695 53.548153071246574 0 0.5877852598018023 0.80901698891910034 1 0 0 forward_v I I I I #
loop $-1 $-1 $209 $49 #
coedge $-1 $127 $127 $128 $210 reversed $77 $-1 #
coedge $-1 $128 $128 $127 $210 forward $79 $-1 #
coedge $-1 $129 $129 $80 $130 forward $124 $-1 #
edge $-1 $211 -1.7979082530931123e-016 $211 6.2831853071796004 $129 $212 forward 7 unknown #
loop $-1 $-1 $136 $81 #
plane-surface $-1 69.161502048850366 -25.829913360598695 53.548153071246574 0 0.5877852598018023 0.80901698891910034 1 0 0 forward_v I I I I #
loop $-1 $-1 $213 $52 #
coedge $-1 $134 $134 $135 $214 reversed $82 $-1 #
coedge $-1 $135 $135 $134 $214 forward $84 $-1 #
coedge $-1 $136 $136 $85 $137 forward $131 $-1 #
edge $-1 $215 -1.7979082530931123e-016 $215 6.2831853071796004 $136 $216 forward 7 unknown #
face $-1 $217 $218 $29 $-1 $219 reversed single #
loop $-1 $-1 $144 $86 #
plane-surface $-1 0 0 19.261035149805821 0 0 1 1 0 0 forward_v I I I I #
coedge $-1 $220 $221 $222 $223 reversed $87 $-1 #
coedge $-1 $224 $89 $225 $226 reversed $56 $-1 #
coedge $-1 $89 $224 $220 $227 forward $56 $-1 #
coedge $-1 $222 $228 $89 $145 forward $139 $-1 #
edge $-1 $229 -41.528749387574678 $230 -27.632752661275688 $144 $231 forward 7 unknown #
loop $-1 $-1 $151 $90 #
plane-surface $-1 69.161502048850366 -41.793678481801706 4.4167367422489718 0 -0.5877852598018023 0.80901698891910034 1 0 0 forward_v I I I I #
loop $-1 $-1 $232 $58 #
coedge $-1 $149 $149 $150 $233 reversed $91 $-1 #
coedge $-1 $150 $150 $149 $233 forward $93 $-1 #
coedge $-1 $151 $151 $94 $152 forward $146 $-1 #
edge $-1 $234 -1.0402687457355533e-015 $234 6.2831853071795996 $151 $235 forward 7 unknown #
loop $-1 $-1 $158 $95 #
plane-surface $-1 69.161502048850366 -41.793678481801706 4.4167367422489718 0 -0.5877852598018023 0.80901698891910034 1 0 0 forward_v I I I I #
loop $-1 $-1 $236 $61 #
coedge $-1 $156 $156 $157 $237 reversed $96 $-1 #
coedge $-1 $157 $157 $156 $237 forward $98 $-1 #
coedge $-1 $158 $158 $99 $159 forward $153 $-1 #
edge $-1 $238 -1.0402687457355533e-015 $238 6.2831853071795996 $158 $239 forward 7 unknown #
face $-1 $240 $241 $24 $-1 $242 reversed single #
loop $-1 $-1 $243 $100 #
plane-surface $-1 -76.109500411999875 0 0 1 0 0 0 0 -1 forward_v I I I I #
coedge $-1 $244 $171 $245 $246 forward $101 $-1 #
coedge $-1 $247 $103 $244 $248 forward $65 $-1 #
coedge $-1 $103 $247 $249 $250 forward $65 $-1 #
coedge $-1 $174 $173 $103 $167 reversed $175 $-1 #
edge $-1 $251 -41.793678481801692 $252 41.793678481801692 $166 $253 forward 7 unknown #
coedge $-1 $105 $104 $254 $255 forward $41 $-1 #
coedge $-1 $256 $257 $104 $170 reversed $241 $-1 #
edge $-1 $177 -76.109500411999875 $258 76.109500411999875 $169 $259 forward 7 unknown #
coedge $-1 $163 $260 $105 $172 reversed $101 $-1 #
edge $-1 $261 -76.109500411999875 $176 76.109500411999875 $171 $262 forward 7 unknown #
coedge $-1 $166 $106 $260 $263 forward $175 $-1 #
coedge $-1 $106 $166 $256 $264 reversed $175 $-1 #
loop $-1 $-1 $173 $240 #
vertex $-1 $107 $265 #
vertex $-1 $107 $266 #
straight-curve $-1 76.109500411999875 0 19.261035149805821 0 1 0 I I #
face $-1 $267 $268 $25 $-1 $269 forward single #
loop $-1 $-1 $270 $108 #
plane-surface $-1 -76.109500411999875 0 0 1 0 0 0 0 -1 forward_v I I I I #
coedge $-1 $189 $271 $191 $272 forward $109 $-1 #
coedge $-1 $111 $191 $273 $274 reversed $69 $-1 #
coedge $-1 $275 $187 $111 $185 forward $276 $-1 #
edge $-1 $193 3.8448886948186409 $277 11.559060534931 $184 $278 forward 7 unknown #
coedge $-1 $113 $112 $270 $279 reversed $44 $-1 #
coedge $-1 $184 $280 $112 $188 forward $276 $-1 #
edge $-1 $281 -43.868717795901162 $193 -20.612847436296263 $187 $282 forward 7 unknown #
coedge $-1 $283 $182 $113 $190 forward $109 $-1 #
edge $-1 $192 20.612847436296263 $284 43.868717795901162 $189 $285 forward 7 unknown #
coedge $-1 $183 $114 $182 $272 reversed $69 $-1 #
vertex $-1 $190 $286 #
vertex $-1 $188 $287 #
straight-curve $-1 -52.853630052394976 0 11.546863309693462 0 -1 0 I I #
face $-1 $-1 $288 $26 $-1 $289 reversed single #
loop $-1 $-1 $290 $116 #
plane-surface $-1 76.109500411999875 0 0 -1 0 0 0 0 1 forward_v I I I I #
coedge $-1 $291 $119 $121 $204 forward $73 $-1 #
coedge $-1 $119 $291 $290 $292 reversed $73 $-1 #
coedge $-1 $293 $122 $119 $201 forward $117 $-1 #
edge $-1 $207 27.632752661275688 $294 41.528749387574678 $200 $295 forward 7 unknown #
coedge $-1 $296 $297 $120 $203 forward $288 $-1 #
edge $-1 $298 -83.931218644827482 $206 -69.086920237270633 $202 $299 forward 7 unknown #
edge $-1 $207 58.332728406632995 $298 83.587356963603369 $121 $300 forward 7 unknown #
coedge $-1 $122 $293 $296 $301 forward $117 $-1 #
vertex $-1 $203 $302 #
vertex $-1 $123 $303 #
straight-curve $-1 62.213503685700871 31.821085792753379 19.261035149805821 0 -1 0 I I #
coedge $-1 $209 $209 $-1 $304 reversed $126 $-1 #
edge $-1 $305 0 $305 6.2831853071796004 $127 $306 forward 7 unknown #
vertex $-1 $130 $307 #
ellipse-curve $-1 66.183788464643442 31.577966706086453 11.838885946027405 0 0.5877852598018023 0.80901698891910034 1.5 0 0 1 I I #
coedge $-1 $213 $213 $-1 $308 reversed $133 $-1 #
edge $-1 $309 0 $309 6.2831853071796004 $134 $310 forward 7 unknown #
vertex $-1 $137 $311 #
ellipse-curve $-1 72.13921563305729 31.577966706086453 11.838885946027405 0 0.5877852598018023 0.80901698891910034 1.5 0 0 1 I I #
face $-1 $-1 $312 $29 $-1 $313 reversed single #
loop $-1 $-1 $314 $138 #
plane-surface $-1 0 -41.793678481801692 0 0 1 0 0 0 1 forward_v I I I I #
coedge $-1 $221 $141 $143 $227 reversed $87 $-1 #
coedge $-1 $141 $220 $315 $316 reversed $87 $-1 #
coedge $-1 $317 $144 $141 $223 forward $139 $-1 #
edge $-1 $230 -44.270626783582372 $318 -23.839203232151888 $222 $319 forward 7 unknown #
coedge $-1 $143 $142 $314 $320 reversed $56 $-1 #
coedge $-1 $321 $322 $142 $226 forward $312 $-1 #
edge $-1 $323 -15.607851583840599 $229 9.646776973129759 $225 $324 forward 7 unknown #
edge $-1 $325 1.7761521089745031e-014 $230 25.254628556970374 $220 $326 forward 7 unknown #
coedge $-1 $144 $317 $321 $327 forward $139 $-1 #
vertex $-1 $226 $328 #
vertex $-1 $145 $329 #
straight-curve $-1 34.580751024425183 -21.362254930371204 19.261035149805821 -1 0 0 I I #
coedge $-1 $232 $232 $-1 $330 reversed $148 $-1 #
edge $-1 $331 0 $331 6.2831853071796004 $149 $332 forward 7 unknown #
vertex $-1 $152 $333 #
ellipse-curve $-1 66.183788464643442 -31.577966706086446 11.838885946027403 0 -0.5877852598018023 0.80901698891910034 1.5 0 0 1 I I #
coedge $-1 $236 $236 $-1 $334 reversed $155 $-1 #
edge $-1 $335 0 $335 6.2831853071796004 $156 $336 forward 7 unknown #
vertex $-1 $159 $337 #
ellipse-curve $-1 72.13921563305729 -31.577966706086446 11.838885946027403 0 -0.5877852598018023 0.80901698891910034 1.5 0 0 1 I I #
face $-1 $-1 $175 $24 $-1 $338 reversed single #
loop $-1 $-1 $256 $160 #
plane-surface $-1 0 41.793678481801692 0 0 -1 0 0 0 -1 forward_v I I I I #
coedge $-1 $339 $254 $257 $340 forward $161 $-1 #
coedge $-1 $260 $163 $164 $248 reversed $101 $-1 #
coedge $-1 $254 $339 $163 $246 reversed $161 $-1 #
edge $-1 $261 -19.261035149805821 $341 19.261035149805821 $245 $342 forward 7 unknown #
coedge $-1 $165 $164 $339 $343 forward $65 $-1 #
edge $-1 $252 -76.109500411999875 $341 76.109500411999875 $244 $344 forward 7 unknown #
coedge $-1 $257 $256 $165 $250 reversed $241 $-1 #
edge $-1 $345 -76.109500411999875 $251 76.109500411999875 $249 $346 forward 7 unknown #
vertex $-1 $167 $347 #
vertex $-1 $263 $348 #
straight-curve $-1 76.109500411999875 0 -19.261035149805821 0 -1 0 I I #
coedge $-1 $243 $245 $168 $255 reversed $161 $-1 #
edge $-1 $258 -41.793678481801692 $261 41.793678481801692 $254 $349 forward 7 unknown #
coedge $-1 $249 $169 $174 $264 forward $241 $-1 #
coedge $-1 $169 $249 $243 $340 reversed $241 $-1 #
vertex $-1 $170 $350 #
straight-curve $-1 0 41.793678481801692 19.261035149805821 -1 0 0 I I #
coedge $-1 $171 $244 $173 $263 reversed $101 $-1 #
vertex $-1 $255 $351 #
straight-curve $-1 0 -41.793678481801692 19.261035149805821 1 0 0 I I #
edge $-1 $176 -19.261035149805821 $252 19.261035149805821 $173 $352 forward 7 unknown #
edge $-1 $177 -19.261035149805821 $251 19.261035149805821 $174 $353 forward 7 unknown #
point $-1 76.109500411999875 -41.793678481801692 19.261035149805821 #
point $-1 76.109500411999875 41.793678481801692 19.261035149805821 #
face $-1 $-1 $276 $25 $-1 $354 reversed single #
loop $-1 $-1 $273 $179 #
plane-surface $-1 0 0 19.261035149805821 0 0 1 1 0 0 forward_v I I I I #
coedge $-1 $355 $356 $186 $279 forward $180 $-1 #
coedge $-1 $182 $283 $357 $358 reversed $109 $-1 #
edge $-1 $359 -11.559060534931 $192 -3.8448886948186409 $182 $360 forward 7 unknown #
coedge $-1 $357 $361 $183 $274 forward $268 $-1 #
edge $-1 $277 -41.793678481801692 $359 41.793678481801692 $273 $362 forward 7 unknown #
coedge $-1 $280 $184 $361 $363 reversed $276 $-1 #
loop $-1 $-1 $184 $267 #
vertex $-1 $185 $364 #
straight-curve $-1 -52.853630052394976 -41.793678481801692 7.7019746148748212 0 0 1 I I #
edge $-1 $284 -41.793678481801692 $281 41.793678481801692 $270 $365 forward 7 unknown #
coedge $-1 $187 $275 $355 $366 forward $276 $-1 #
vertex $-1 $279 $367 #
straight-curve $-1 -32.240782616098713 -41.793678481801692 11.546863309693462 1 0 0 I I #
coedge $-1 $271 $189 $356 $368 reversed $109 $-1 #
vertex $-1 $279 $369 #
straight-curve $-1 -32.240782616098713 41.793678481801692 11.546863309693462 -1 0 0 I I #
point $-1 -52.853630052394976 41.793678481801692 11.546863309693462 #
point $-1 -52.853630052394976 -41.793678481801692 11.546863309693462 #
loop $-1 $-1 $202 $195 #
plane-surface $-1 0 41.793678481801692 0 0 -1 0 0 0 -1 forward_v I I I I #
coedge $-1 $370 $371 $199 $292 forward $196 $-1 #
coedge $-1 $199 $198 $297 $372 reversed $73 $-1 #
edge $-1 $294 32.146901508671931 $373 57.401530065642291 $290 $374 forward 7 unknown #
coedge $-1 $205 $200 $371 $375 forward $117 $-1 #
vertex $-1 $375 $376 #
straight-curve $-1 34.580751024425183 21.362254930371211 19.261035149805821 1 0 0 I I #
coedge $-1 $377 $202 $205 $301 reversed $288 $-1 #
coedge $-1 $202 $377 $291 $372 forward $288 $-1 #
vertex $-1 $203 $378 #
straight-curve $-1 62.213503685700871 41.793678481801692 88.347955387076453 0 0 1 I I #
straight-curve $-1 62.213503685700871 -25.829913360598695 53.548153071246574 0 0.80901698891910034 -0.5877852598018023 I I #
edge $-1 $379 -76.109500411999875 $206 -62.213503685700871 $296 $380 forward 7 unknown #
point $-1 62.213503685700871 41.793678481801692 19.261035149805821 #
point $-1 62.213503685700871 21.362254930371208 19.261035149805821 #
edge $-1 $381 1 $381 0 $209 $-1 forward 7 unknown #
vertex $-1 $210 $382 #
ellipse-curve $-1 66.183788464643442 29.328930641359406 8.743353428472501 0 0.5877852598018023 0.80901698891910034 1.5 0 0 1 I I #
point $-1 67.683788464643442 31.577966706086443 11.838885946027391 #
edge $-1 $383 1 $383 0 $213 $-1 forward 7 unknown #
vertex $-1 $214 $384 #
ellipse-curve $-1 72.13921563305729 29.328930641359406 8.743353428472501 0 0.5877852598018023 0.80901698891910034 1.5 0 0 1 I I #
point $-1 73.63921563305729 31.577966706086443 11.838885946027391 #
loop $-1 $-1 $225 $217 #
plane-surface $-1 76.109500411999875 0 0 -1 0 0 0 0 1 forward_v I I I I #
coedge $-1 $385 $315 $224 $320 forward $218 $-1 #
coedge $-1 $314 $386 $221 $316 forward $218 $-1 #
edge $-1 $318 44.521212072771831 $325 59.365510480328666 $315 $387 forward 7 unknown #
coedge $-1 $228 $222 $386 $388 forward $139 $-1 #
vertex $-1 $388 $389 #
straight-curve $-1 62.213503685700871 -65.63288171395358 19.261035149805821 0 -1 0 I I #
edge $-1 $325 27.632752661275688 $323 41.528749387574678 $314 $390 forward 7 unknown #
coedge $-1 $322 $225 $228 $327 reversed $312 $-1 #
coedge $-1 $225 $321 $385 $391 forward $312 $-1 #
vertex $-1 $320 $392 #
straight-curve $-1 76.109500411999875 -29.166661389946757 13.5908018404047 0 0.80901698891910034 0.5877852598018023 I I #
vertex $-1 $320 $393 #
straight-curve $-1 62.213503685700871 -41.793678481801706 4.4167367422489718 0 0.80901698891910034 0.5877852598018023 I I #
edge $-1 $394 -41.793678481801692 $229 -21.362254930371208 $321 $395 forward 7 unknown #
point $-1 76.109500411999861 -21.362254930371208 19.261035149805821 #
point $-1 62.213503685700871 -21.362254930371208 19.261035149805821 #
edge $-1 $396 1 $396 0 $232 $-1 forward 7 unknown #
vertex $-1 $233 $397 #
ellipse-curve $-1 66.183788464643442 -29.328930641359403 8.743353428472501 0 -0.5877852598018023 0.80901698891910034 1.5 0 0 1 I I #
point $-1 67.683788464643442 -31.577966706086439 11.838885946027391 #
edge $-1 $398 1 $398 0 $236 $-1 forward 7 unknown #
vertex $-1 $237 $399 #
ellipse-curve $-1 72.13921563305729 -29.328930641359403 8.743353428472501 0 -0.5877852598018023 0.80901698891910034 1.5 0 0 1 I I #
point $-1 73.63921563305729 -31.577966706086439 11.838885946027391 #
plane-surface $-1 76.109500411999875 0 0 -1 0 0 0 0 1 forward_v I I I I #
coedge $-1 $245 $243 $247 $343 reversed $161 $-1 #
edge $-1 $258 -19.261035149805821 $345 19.261035149805821 $257 $400 forward 7 unknown #
vertex $-1 $343 $401 #
straight-curve $-1 -76.109500411999875 -41.793678481801692 0 0 0 -1 I I #
edge $-1 $341 -41.793678481801692 $345 41.793678481801692 $339 $402 forward 7 unknown #
straight-curve $-1 0 -41.793678481801692 -19.261035149805821 -1 0 0 I I #
vertex $-1 $250 $403 #
straight-curve $-1 0 41.793678481801692 -19.261035149805821 1 0 0 I I #
point $-1 76.109500411999875 41.793678481801692 -19.261035149805821 #
point $-1 76.109500411999875 -41.793678481801692 -19.261035149805821 #
straight-curve $-1 -76.109500411999875 0 19.261035149805821 0 -1 0 I I #
point $-1 -76.109500411999875 41.793678481801692 19.261035149805821 #
point $-1 -76.109500411999875 -41.793678481801692 19.261035149805821 #
straight-curve $-1 76.109500411999875 -41.793678481801692 0 0 0 -1 I I #
straight-curve $-1 76.109500411999875 41.793678481801692 0 0 0 -1 I I #
plane-surface $-1 0 -41.793678481801692 0 0 1 0 0 0 1 forward_v I I I I #
coedge $-1 $404 $270 $280 $366 reversed $180 $-1 #
coedge $-1 $270 $404 $283 $368 forward $180 $-1 #
coedge $-1 $405 $273 $271 $358 forward $268 $-1 #
edge $-1 $359 52.853630052394976 $406 76.109500411999875 $271 $407 forward 7 unknown #
vertex $-1 $358 $408 #
straight-curve $-1 -52.853630052394976 41.793678481801692 7.7019746148748212 0 0 -1 I I #
coedge $-1 $273 $405 $275 $363 forward $268 $-1 #
straight-curve $-1 -52.853630052394976 0 19.261035149805821 0 1 0 I I #
edge $-1 $409 -76.109500411999875 $277 -52.853630052394976 $275 $410 forward 7 unknown #
point $-1 -52.853630052394976 -41.793678481801692 19.261035149805821 #
straight-curve $-1 -76.109500411999875 0 11.546863309693462 0 -1 0 I I #
edge $-1 $409 -19.261035149805821 $281 -11.546863309693462 $355 $411 forward 7 unknown #
point $-1 -76.109500411999875 -41.793678481801692 11.546863309693462 #
edge $-1 $406 -19.261035149805821 $284 -11.546863309693462 $283 $412 forward 7 unknown #
point $-1 -76.109500411999875 41.793678481801692 11.546863309693462 #
coedge $-1 $371 $290 $377 $413 reversed $196 $-1 #
coedge $-1 $290 $370 $293 $375 reversed $196 $-1 #
edge $-1 $373 -41.528749387574678 $298 -27.632752661275688 $297 $414 forward 7 unknown #
vertex $-1 $292 $415 #
straight-curve $-1 76.109500411999875 -4.6451345312534436 38.156510004903502 0 0.80901698891910034 -0.5877852598018023 I I #
edge $-1 $294 21.362254930371208 $379 41.793678481801692 $371 $416 forward 7 unknown #
point $-1 76.109500411999861 21.362254930371208 19.261035149805821 #
coedge $-1 $297 $296 $370 $413 forward $288 $-1 #
point $-1 62.213503685700871 41.793678481801692 4.4167367422489789 #
vertex $-1 $375 $417 #
straight-curve $-1 0 41.793678481801692 19.261035149805821 -1 0 0 I I #
vertex $-1 $304 $418 #
point $-1 67.683788464643442 29.328930641359406 8.743353428472501 #
vertex $-1 $308 $419 #
point $-1 73.63921563305729 29.328930641359406 8.743353428472501 #
coedge $-1 $386 $314 $322 $391 reversed $218 $-1 #
coedge $-1 $315 $385 $317 $388 reversed $218 $-1 #
straight-curve $-1 62.213503685700871 -41.793678481801692 63.782247222577652 0 0 -1 I I #
edge $-1 $318 62.213503685700871 $394 76.109500411999875 $386 $420 forward 7 unknown #
point $-1 62.213503685700871 -41.793678481801692 19.261035149805821 #
straight-curve $-1 34.580751024425183 -41.793678481801692 4.4167367422489825 1 0 0 I I #
edge $-1 $394 -19.261035149805821 $323 -4.4167367422489825 $322 $421 forward 7 unknown #
point $-1 76.109500411999861 -41.793678481801692 4.4167367422489825 #
point $-1 62.213503685700871 -41.793678481801692 4.4167367422489825 #
vertex $-1 $327 $422 #
straight-curve $-1 76.109500411999875 0 19.261035149805821 0 1 0 I I #
vertex $-1 $330 $423 #
point $-1 67.683788464643442 -29.328930641359403 8.743353428472501 #
vertex $-1 $334 $424 #
point $-1 73.63921563305729 -29.328930641359403 8.743353428472501 #
straight-curve $-1 -76.109500411999875 41.793678481801692 0 0 0 -1 I I #
point $-1 -76.109500411999875 -41.793678481801692 -19.261035149805821 #
straight-curve $-1 -76.109500411999875 0 -19.261035149805821 0 1 0 I I #
point $-1 -76.109500411999875 41.793678481801692 -19.261035149805821 #
coedge $-1 $356 $355 $405 $425 reversed $180 $-1 #
coedge $-1 $361 $357 $404 $425 forward $268 $-1 #
vertex $-1 $358 $426 #
straight-curve $-1 0 41.793678481801692 19.261035149805821 -1 0 0 I I #
point $-1 -52.853630052394976 41.793678481801692 19.261035149805821 #
vertex $-1 $425 $427 #
straight-curve $-1 0 -41.793678481801692 19.261035149805821 1 0 0 I I #
straight-curve $-1 -76.109500411999875 -41.793678481801692 0 0 0 -1 I I #
straight-curve $-1 -76.109500411999875 41.793678481801692 0 0 0 -1 I I #
edge $-1 $379 -19.261035149805821 $373 -4.4167367422489789 $370 $428 forward 7 unknown #
straight-curve $-1 34.580751024425183 41.793678481801692 4.4167367422489825 -1 0 0 I I #
point $-1 76.109500411999861 41.793678481801692 4.4167367422489789 #
straight-curve $-1 76.109500411999875 0 19.261035149805821 0 1 0 I I #
point $-1 76.109500411999875 41.793678481801692 19.261035149805821 #
point $-1 66.183788464643442 28.447252751656706 7.5298279450938512 #
point $-1 72.13921563305729 28.447252751656706 7.5298279450938512 #
straight-curve $-1 0 -41.793678481801692 19.261035149805821 1 0 0 I I #
straight-curve $-1 76.109500411999875 -41.793678481801692 0 0 0 -1 I I #
point $-1 76.109500411999875 -41.793678481801692 19.261035149805821 #
point $-1 66.183788464643442 -28.447252751656702 7.5298279450938512 #
point $-1 72.13921563305729 -28.447252751656702 7.5298279450938512 #
edge $-1 $406 -41.793678481801692 $409 41.793678481801692 $404 $429 forward 7 unknown #
point $-1 -76.109500411999875 41.793678481801692 19.261035149805821 #
point $-1 -76.109500411999875 -41.793678481801692 19.261035149805821 #
straight-curve $-1 76.109500411999875 41.793678481801692 0 0 0 -1 I I #
straight-curve $-1 -76.109500411999875 0 19.261035149805821 0 -1 0 I I #
End-of-ACIS-data 