500 0 9 0           
7 Unknown 11 ACIS 5.0 NT 24 Thu Mar 25 18:24:02 1999 
-1 9.9999999999999995e-007 1e-010 
body $-1 $9 $-1 $10 #
body $-1 $11 $-1 $12 #
body $-1 $13 $-1 $14 #
body $-1 $15 $-1 $16 #
body $-1 $17 $-1 $18 #
body $-1 $19 $-1 $20 #
body $-1 $21 $-1 $22 #
body $-1 $23 $-1 $24 #
body $-1 $25 $-1 $26 #
lump $-1 $-1 $27 $0 #
transform $-1 1 0 0 0 1 0 0 0 1 53.747978148747215 35.758062210499268 9.2295239462049494 1 rotate no_reflect no_shear #
lump $-1 $-1 $28 $1 #
transform $-1 1 0 0 0 1 0 0 0 1 53.747978148747215 5.3637682477553543 3.8735608980594556 1 rotate no_reflect no_shear #
lump $-1 $-1 $29 $2 #
transform $-1 0.5877852410284794 0 -0.80901700255871778 0 1 0 0.80901700255871778 0 0.5877852410284794 131.27747606656663 25.619719938300285 165.56344268940472 1 rotate no_reflect no_shear #
lump $-1 $-1 $30 $3 #
transform $-1 0.5877852410284794 0 -0.80901700255871778 0 -1 0 -0.80901700255871778 0 -0.5877852410284794 105.47921595478626 22.591872147614897 16.27469042830451 1 rotate no_reflect no_shear #
lump $-1 $-1 $31 $4 #
transform $-1 0.5877852410284794 0 -0.80901700255871778 0 -1 0 -0.80901700255871778 0 -0.5877852410284794 105.47921595478626 28.647567728985678 16.27469042830451 1 rotate no_reflect no_shear #
lump $-1 $-1 $32 $5 #
transform $-1 0.7313536940579346 0 0.68199836817093118 0 1 0 -0.68199836817093118 0 0.7313536940579346 -73.312066779864935 18.604340171264745 89.221625810434389 1 rotate no_reflect no_shear #
lump $-1 $-1 $33 $6 #
transform $-1 0.7313536940579346 0 0.68199836817093118 0 -1 0 0.68199836817093118 0 -0.7313536940579346 6.2121811549192287 13.878257965812324 12.386323598378352 1 rotate no_reflect no_shear #
lump $-1 $-1 $34 $7 #
transform $-1 0.7313536940579346 0 0.68199836817093118 0 -1 0 0.68199836817093118 0 -0.7313536940579346 6.2121811549192287 18.604340171264745 12.386323598378352 1 rotate no_reflect no_shear #
lump $-1 $-1 $35 $8 #
transform $-1 0.7313536940579346 0 0.68199836817093118 0 -1 0 0.68199836817093118 0 -0.7313536940579346 6.2121811549192287 23.330422376717166 12.386323598378352 1 rotate no_reflect no_shear #
shell $-1 $-1 $-1 $36 $-1 $9 #
shell $-1 $-1 $-1 $37 $-1 $11 #
shell $-1 $-1 $-1 $38 $-1 $13 #
shell $-1 $-1 $-1 $39 $-1 $15 #
shell $-1 $-1 $-1 $40 $-1 $17 #
shell $-1 $-1 $-1 $41 $-1 $19 #
shell $-1 $-1 $-1 $42 $-1 $21 #
shell $-1 $-1 $-1 $43 $-1 $23 #
shell $-1 $-1 $-1 $44 $-1 $25 #
face $-1 $45 $46 $27 $-1 $47 forward single #
face $-1 $48 $49 $28 $-1 $50 forward single #
face $-1 $51 $52 $29 $-1 $53 forward single #
face $-1 $54 $55 $30 $-1 $56 forward single #
face $-1 $57 $58 $31 $-1 $59 forward single #
face $-1 $60 $61 $32 $-1 $62 forward single #
face $-1 $63 $64 $33 $-1 $65 forward single #
face $-1 $66 $67 $34 $-1 $68 forward single #
face $-1 $69 $70 $35 $-1 $71 forward single #
face $-1 $72 $73 $27 $-1 $74 reversed single #
loop $-1 $-1 $75 $36 #
plane-surface $-1 0 0 9.2295239462049494 0 0 1 1 0 0 forward_v I I I I #
face $-1 $76 $77 $28 $-1 $78 reversed single #
loop $-1 $-1 $79 $37 #
plane-surface $-1 0 0 1.4999999999999998 0 0 1 1 0 0 forward_v I I I I #
face $-1 $80 $81 $29 $-1 $82 reversed single #
loop $-1 $-1 $83 $38 #
plane-surface $-1 0 0 107.49595629749443 0 0 1 1 0 0 forward_v I I I I #
face $-1 $84 $85 $30 $-1 $86 forward single #
loop $-1 $87 $88 $39 #
cone-surface $-1 0 0 -0.625 0 0 1 0.25 0 0 1 I I 0 1 0.25 forward I I I I #
face $-1 $89 $90 $31 $-1 $91 forward single #
loop $-1 $92 $93 $40 #
cone-surface $-1 0 0 -0.625 0 0 1 0.25 0 0 1 I I 0 1 0.25 forward I I I I #
face $-1 $94 $95 $32 $-1 $96 reversed single #
loop $-1 $-1 $97 $41 #
plane-surface $-1 0 0 107.49595629749443 0 0 1 1 0 0 forward_v I I I I #
face $-1 $98 $99 $33 $-1 $100 forward single #
loop $-1 $101 $102 $42 #
cone-surface $-1 0 0 -1.8416165654469427 0 0 1 1.5 0 0 1 I I 0 1 1.5 forward I I I I #
face $-1 $103 $104 $34 $-1 $105 forward single #
loop $-1 $106 $107 $43 #
cone-surface $-1 0 0 -1.8416165654469427 0 0 1 1.5 0 0 1 I I 0 1 1.5 forward I I I I #
face $-1 $108 $109 $35 $-1 $110 forward single #
loop $-1 $111 $112 $44 #
cone-surface $-1 0 0 -1.8416165654469427 0 0 1 1.5 0 0 1 I I 0 1 1.5 forward I I I I #
face $-1 $113 $114 $27 $-1 $115 reversed single #
loop $-1 $-1 $116 $45 #
plane-surface $-1 0 0 -9.2295239462049494 0 0 1 1 0 0 forward_v I I I I #
coedge $-1 $117 $118 $119 $120 forward $46 $-1 #
face $-1 $121 $122 $28 $-1 $123 reversed single #
loop $-1 $-1 $124 $48 #
plane-surface $-1 0 0 -1.4999999999999998 0 0 1 1 0 0 forward_v I I I I #
coedge $-1 $125 $126 $127 $128 forward $49 $-1 #
face $-1 $129 $130 $29 $-1 $131 reversed single #
loop $-1 $-1 $132 $51 #
plane-surface $-1 0 0 -107.49595629749443 0 0 1 1 0 0 forward_v I I I I #
coedge $-1 $133 $134 $135 $136 forward $52 $-1 #
face $-1 $-1 $137 $30 $-1 $138 forward single #
loop $-1 $-1 $139 $54 #
plane-surface $-1 0 0 -1.125 0 0 -1 -1 0 0 forward_v I I I I #
loop $-1 $-1 $140 $39 #
coedge $-1 $88 $88 $139 $141 reversed $55 $-1 #
face $-1 $-1 $142 $31 $-1 $143 forward single #
loop $-1 $-1 $144 $57 #
plane-surface $-1 0 0 -1.125 0 0 -1 -1 0 0 forward_v I I I I #
loop $-1 $-1 $145 $40 #
coedge $-1 $93 $93 $144 $146 reversed $58 $-1 #
face $-1 $147 $148 $32 $-1 $149 reversed single #
loop $-1 $-1 $150 $60 #
plane-surface $-1 0 0 -107.49595629749443 0 0 1 1 0 0 forward_v I I I I #
coedge $-1 $151 $152 $153 $154 forward $61 $-1 #
face $-1 $-1 $155 $33 $-1 $156 forward single #
loop $-1 $-1 $157 $63 #
plane-surface $-1 0 0 -2.9332331308938864 0 0 -1 -1 0 0 forward_v I I I I #
loop $-1 $-1 $158 $42 #
coedge $-1 $102 $102 $157 $159 reversed $64 $-1 #
face $-1 $-1 $160 $34 $-1 $161 forward single #
loop $-1 $-1 $162 $66 #
plane-surface $-1 0 0 -2.9332331308938864 0 0 -1 -1 0 0 forward_v I I I I #
loop $-1 $-1 $163 $43 #
coedge $-1 $107 $107 $162 $164 reversed $67 $-1 #
face $-1 $-1 $165 $35 $-1 $166 forward single #
loop $-1 $-1 $167 $69 #
plane-surface $-1 0 0 -2.9332331308938864 0 0 -1 -1 0 0 forward_v I I I I #
loop $-1 $-1 $168 $44 #
coedge $-1 $112 $112 $167 $169 reversed $70 $-1 #
face $-1 $170 $171 $27 $-1 $172 reversed single #
loop $-1 $-1 $173 $72 #
plane-surface $-1 0 -35.758062210499268 0 0 1 0 0 0 1 forward_v I I I I #
coedge $-1 $174 $175 $176 $177 forward $73 $-1 #
coedge $-1 $178 $75 $179 $180 forward $46 $-1 #
coedge $-1 $75 $178 $181 $182 forward $46 $-1 #
coedge $-1 $183 $184 $75 $120 reversed $185 $-1 #
edge $-1 $186 -35.758062210499268 $187 35.758062210499268 $119 $188 forward 7 unknown #
face $-1 $189 $190 $28 $-1 $191 reversed single #
loop $-1 $-1 $192 $76 #
plane-surface $-1 0 -5.3637682477553543 0 0 1 0 0 0 1 forward_v I I I I #
coedge $-1 $193 $194 $195 $196 forward $77 $-1 #
coedge $-1 $197 $79 $198 $199 forward $49 $-1 #
coedge $-1 $79 $197 $200 $201 forward $49 $-1 #
coedge $-1 $202 $203 $79 $128 reversed $204 $-1 #
edge $-1 $205 -5.3637682477553543 $206 5.3637682477553543 $127 $207 forward 7 unknown #
face $-1 $208 $209 $29 $-1 $210 reversed single #
loop $-1 $-1 $211 $80 #
plane-surface $-1 0 -7.0649781782659087 0 0 1 0 0 0 1 forward_v I I I I #
coedge $-1 $212 $213 $214 $215 forward $81 $-1 #
coedge $-1 $216 $83 $217 $218 forward $52 $-1 #
coedge $-1 $83 $216 $219 $220 forward $52 $-1 #
coedge $-1 $221 $222 $83 $136 reversed $223 $-1 #
edge $-1 $224 -7.0649781782659087 $225 7.0649781782659087 $135 $226 forward 7 unknown #
loop $-1 $227 $228 $84 #
cone-surface $-1 0 0 0 0 0 1 0.125 0 0 1 I I -0.70710678118654746 0.70710678118654746 0.125 forward I I I I #
coedge $-1 $139 $139 $88 $141 forward $85 $-1 #
coedge $-1 $140 $140 $228 $229 forward $87 $-1 #
edge $-1 $230 0 $230 6.2831853071796004 $139 $231 forward 7 unknown #
loop $-1 $232 $233 $89 #
cone-surface $-1 0 0 0 0 0 1 0.125 0 0 1 I I -0.70710678118654746 0.70710678118654746 0.125 forward I I I I #
coedge $-1 $144 $144 $93 $146 forward $90 $-1 #
coedge $-1 $145 $145 $233 $234 forward $92 $-1 #
edge $-1 $235 0 $235 6.2831853071796004 $144 $236 forward 7 unknown #
face $-1 $237 $238 $32 $-1 $239 reversed single #
loop $-1 $-1 $240 $94 #
plane-surface $-1 0 -7.8768036757540365 0 0 1 0 0 0 1 forward_v I I I I #
coedge $-1 $241 $242 $243 $244 forward $95 $-1 #
coedge $-1 $245 $97 $246 $247 forward $61 $-1 #
coedge $-1 $97 $245 $248 $249 forward $61 $-1 #
coedge $-1 $250 $251 $97 $154 reversed $252 $-1 #
edge $-1 $253 -7.8768036757540365 $254 7.8768036757540365 $153 $255 forward 7 unknown #
loop $-1 $256 $257 $98 #
cone-surface $-1 0 0 0 0 0 1 0.75 0 0 1 I I -0.70710678118654757 0.70710678118654757 0.75 forward I I I I #
coedge $-1 $157 $157 $102 $159 forward $99 $-1 #
coedge $-1 $158 $158 $257 $258 forward $101 $-1 #
edge $-1 $259 0 $259 6.2831853071796004 $157 $260 forward 7 unknown #
loop $-1 $261 $262 $103 #
cone-surface $-1 0 0 0 0 0 1 0.75 0 0 1 I I -0.70710678118654757 0.70710678118654757 0.75 forward I I I I #
coedge $-1 $162 $162 $107 $164 forward $104 $-1 #
coedge $-1 $163 $163 $262 $263 forward $106 $-1 #
edge $-1 $264 0 $264 6.2831853071796004 $162 $265 forward 7 unknown #
loop $-1 $266 $267 $108 #
cone-surface $-1 0 0 0 0 0 1 0.75 0 0 1 I I -0.70710678118654757 0.70710678118654757 0.75 forward I I I I #
coedge $-1 $167 $167 $112 $169 forward $109 $-1 #
coedge $-1 $168 $168 $267 $268 forward $111 $-1 #
edge $-1 $269 0 $269 6.2831853071796004 $167 $270 forward 7 unknown #
face $-1 $271 $272 $27 $-1 $273 reversed single #
loop $-1 $-1 $274 $113 #
plane-surface $-1 -53.747978148747215 0 0 1 0 0 0 0 -1 forward_v I I I I #
coedge $-1 $275 $181 $276 $277 forward $114 $-1 #
coedge $-1 $278 $116 $275 $279 forward $73 $-1 #
coedge $-1 $116 $278 $280 $281 forward $73 $-1 #
coedge $-1 $184 $183 $116 $177 reversed $185 $-1 #
edge $-1 $282 -35.758062210499268 $283 35.758062210499268 $176 $284 forward 7 unknown #
coedge $-1 $118 $117 $285 $286 forward $46 $-1 #
coedge $-1 $287 $288 $117 $180 reversed $272 $-1 #
edge $-1 $187 -53.747978148747215 $289 53.747978148747215 $179 $290 forward 7 unknown #
coedge $-1 $173 $291 $118 $182 reversed $114 $-1 #
edge $-1 $292 -53.747978148747215 $186 53.747978148747215 $181 $293 forward 7 unknown #
coedge $-1 $176 $119 $291 $294 forward $185 $-1 #
coedge $-1 $119 $176 $287 $295 reversed $185 $-1 #
loop $-1 $-1 $183 $271 #
vertex $-1 $120 $296 #
vertex $-1 $120 $297 #
straight-curve $-1 53.747978148747215 0 9.2295239462049494 0 1 0 I I #
face $-1 $298 $299 $28 $-1 $300 reversed single #
loop $-1 $-1 $301 $121 #
plane-surface $-1 -53.747978148747215 0 0 1 0 0 0 0 -1 forward_v I I I I #
coedge $-1 $302 $200 $303 $304 forward $122 $-1 #
coedge $-1 $305 $124 $302 $306 forward $77 $-1 #
coedge $-1 $124 $305 $307 $308 forward $77 $-1 #
coedge $-1 $203 $202 $124 $196 reversed $204 $-1 #
edge $-1 $309 -5.3637682477553543 $310 5.3637682477553543 $195 $311 forward 7 unknown #
coedge $-1 $126 $125 $312 $313 forward $49 $-1 #
coedge $-1 $314 $315 $125 $199 reversed $299 $-1 #
edge $-1 $206 -53.747978148747215 $316 53.747978148747215 $198 $317 forward 7 unknown #
coedge $-1 $192 $318 $126 $201 reversed $122 $-1 #
edge $-1 $319 -53.747978148747215 $205 53.747978148747215 $200 $320 forward 7 unknown #
coedge $-1 $195 $127 $318 $321 forward $204 $-1 #
coedge $-1 $127 $195 $314 $322 reversed $204 $-1 #
loop $-1 $-1 $202 $298 #
vertex $-1 $128 $323 #
vertex $-1 $128 $324 #
straight-curve $-1 53.747978148747215 0 1.4999999999999998 0 1 0 I I #
face $-1 $325 $326 $29 $-1 $327 reversed single #
loop $-1 $-1 $328 $129 #
plane-surface $-1 -214.99191259498886 0 0 1 0 0 0 0 -1 forward_v I I I I #
coedge $-1 $329 $219 $330 $331 forward $130 $-1 #
coedge $-1 $332 $132 $329 $333 forward $81 $-1 #
coedge $-1 $132 $332 $334 $335 forward $81 $-1 #
coedge $-1 $222 $221 $132 $215 reversed $223 $-1 #
edge $-1 $336 -7.0649781782659087 $337 7.0649781782659087 $214 $338 forward 7 unknown #
coedge $-1 $134 $133 $339 $340 forward $52 $-1 #
coedge $-1 $341 $342 $133 $218 reversed $326 $-1 #
edge $-1 $225 -214.99191259498886 $343 214.99191259498886 $217 $344 forward 7 unknown #
coedge $-1 $211 $345 $134 $220 reversed $130 $-1 #
edge $-1 $346 -214.99191259498886 $224 214.99191259498886 $219 $347 forward 7 unknown #
coedge $-1 $214 $135 $345 $348 forward $223 $-1 #
coedge $-1 $135 $214 $341 $349 reversed $223 $-1 #
loop $-1 $-1 $221 $325 #
vertex $-1 $136 $350 #
vertex $-1 $136 $351 #
straight-curve $-1 214.99191259498886 0 107.49595629749443 0 1 0 I I #
loop $-1 $-1 $352 $84 #
coedge $-1 $228 $228 $140 $229 reversed $137 $-1 #
edge $-1 $353 0 $353 6.2831853071796004 $228 $354 forward 7 unknown #
vertex $-1 $141 $355 #
ellipse-curve $-1 0 0 -1.125 0 0 -1 0.25 0 0 1 I I #
loop $-1 $-1 $356 $89 #
coedge $-1 $233 $233 $145 $234 reversed $142 $-1 #
edge $-1 $357 0 $357 6.2831853071796004 $233 $358 forward 7 unknown #
vertex $-1 $146 $359 #
ellipse-curve $-1 0 0 -1.125 0 0 -1 0.25 0 0 1 I I #
face $-1 $360 $361 $32 $-1 $362 reversed single #
loop $-1 $-1 $363 $147 #
plane-surface $-1 -214.99191259498886 0 0 1 0 0 0 0 -1 forward_v I I I I #
coedge $-1 $364 $248 $365 $366 forward $148 $-1 #
coedge $-1 $367 $150 $364 $368 forward $95 $-1 #
coedge $-1 $150 $367 $369 $370 forward $95 $-1 #
coedge $-1 $251 $250 $150 $244 reversed $252 $-1 #
edge $-1 $371 -7.8768036757540365 $372 7.8768036757540365 $243 $373 forward 7 unknown #
coedge $-1 $152 $151 $374 $375 forward $61 $-1 #
coedge $-1 $376 $377 $151 $247 reversed $361 $-1 #
edge $-1 $254 -214.99191259498886 $378 214.99191259498886 $246 $379 forward 7 unknown #
coedge $-1 $240 $380 $152 $249 reversed $148 $-1 #
edge $-1 $381 -214.99191259498886 $253 214.99191259498886 $248 $382 forward 7 unknown #
coedge $-1 $243 $153 $380 $383 forward $252 $-1 #
coedge $-1 $153 $243 $376 $384 reversed $252 $-1 #
loop $-1 $-1 $250 $360 #
vertex $-1 $154 $385 #
vertex $-1 $154 $386 #
straight-curve $-1 214.99191259498886 0 107.49595629749443 0 1 0 I I #
loop $-1 $-1 $387 $98 #
coedge $-1 $257 $257 $158 $258 reversed $155 $-1 #
edge $-1 $388 0 $388 6.2831853071796004 $257 $389 forward 7 unknown #
vertex $-1 $159 $390 #
ellipse-curve $-1 0 0 -2.9332331308938864 0 0 -1 1.5 0 0 1 I I #
loop $-1 $-1 $391 $103 #
coedge $-1 $262 $262 $163 $263 reversed $160 $-1 #
edge $-1 $392 0 $392 6.2831853071796004 $262 $393 forward 7 unknown #
vertex $-1 $164 $394 #
ellipse-curve $-1 0 0 -2.9332331308938864 0 0 -1 1.5 0 0 1 I I #
loop $-1 $-1 $395 $108 #
coedge $-1 $267 $267 $168 $268 reversed $165 $-1 #
edge $-1 $396 0 $396 6.2831853071796004 $267 $397 forward 7 unknown #
vertex $-1 $169 $398 #
ellipse-curve $-1 0 0 -2.9332331308938864 0 0 -1 1.5 0 0 1 I I #
face $-1 $-1 $185 $27 $-1 $399 reversed single #
loop $-1 $-1 $287 $170 #
plane-surface $-1 0 35.758062210499268 0 0 -1 0 0 0 -1 forward_v I I I I #
coedge $-1 $400 $285 $288 $401 forward $171 $-1 #
coedge $-1 $291 $173 $174 $279 reversed $114 $-1 #
coedge $-1 $285 $400 $173 $277 reversed $171 $-1 #
edge $-1 $292 -9.2295239462049494 $402 9.2295239462049494 $276 $403 forward 7 unknown #
coedge $-1 $175 $174 $400 $404 forward $73 $-1 #
edge $-1 $283 -53.747978148747215 $402 53.747978148747215 $275 $405 forward 7 unknown #
coedge $-1 $288 $287 $175 $281 reversed $272 $-1 #
edge $-1 $406 -53.747978148747215 $282 53.747978148747215 $280 $407 forward 7 unknown #
vertex $-1 $177 $408 #
vertex $-1 $294 $409 #
straight-curve $-1 53.747978148747215 0 -9.2295239462049494 0 -1 0 I I #
coedge $-1 $274 $276 $178 $286 reversed $171 $-1 #
edge $-1 $289 -35.758062210499268 $292 35.758062210499268 $285 $410 forward 7 unknown #
coedge $-1 $280 $179 $184 $295 forward $272 $-1 #
coedge $-1 $179 $280 $274 $401 reversed $272 $-1 #
vertex $-1 $180 $411 #
straight-curve $-1 0 35.758062210499268 9.2295239462049494 -1 0 0 I I #
coedge $-1 $181 $275 $183 $294 reversed $114 $-1 #
vertex $-1 $286 $412 #
straight-curve $-1 0 -35.758062210499268 9.2295239462049494 1 0 0 I I #
edge $-1 $186 -9.2295239462049494 $283 9.2295239462049494 $183 $413 forward 7 unknown #
edge $-1 $187 -9.2295239462049494 $282 9.2295239462049494 $184 $414 forward 7 unknown #
point $-1 53.747978148747215 -35.758062210499268 9.2295239462049494 #
point $-1 53.747978148747215 35.758062210499268 9.2295239462049494 #
face $-1 $-1 $204 $28 $-1 $415 reversed single #
loop $-1 $-1 $314 $189 #
plane-surface $-1 0 5.3637682477553543 0 0 -1 0 0 0 -1 forward_v I I I I #
coedge $-1 $416 $312 $315 $417 forward $190 $-1 #
coedge $-1 $318 $192 $193 $306 reversed $122 $-1 #
coedge $-1 $312 $416 $192 $304 reversed $190 $-1 #
edge $-1 $319 -1.4999999999999998 $418 1.4999999999999998 $303 $419 forward 7 unknown #
coedge $-1 $194 $193 $416 $420 forward $77 $-1 #
edge $-1 $310 -53.747978148747215 $418 53.747978148747215 $302 $421 forward 7 unknown #
coedge $-1 $315 $314 $194 $308 reversed $299 $-1 #
edge $-1 $422 -53.747978148747215 $309 53.747978148747215 $307 $423 forward 7 unknown #
vertex $-1 $196 $424 #
vertex $-1 $321 $425 #
straight-curve $-1 53.747978148747215 0 -1.4999999999999998 0 -1 0 I I #
coedge $-1 $301 $303 $197 $313 reversed $190 $-1 #
edge $-1 $316 -5.3637682477553543 $319 5.3637682477553543 $312 $426 forward 7 unknown #
coedge $-1 $307 $198 $203 $322 forward $299 $-1 #
coedge $-1 $198 $307 $301 $417 reversed $299 $-1 #
vertex $-1 $199 $427 #
straight-curve $-1 0 5.3637682477553543 1.4999999999999998 -1 0 0 I I #
coedge $-1 $200 $302 $202 $321 reversed $122 $-1 #
vertex $-1 $313 $428 #
straight-curve $-1 0 -5.3637682477553543 1.4999999999999998 1 0 0 I I #
edge $-1 $205 -1.4999999999999998 $310 1.4999999999999998 $202 $429 forward 7 unknown #
edge $-1 $206 -1.4999999999999998 $309 1.4999999999999998 $203 $430 forward 7 unknown #
point $-1 53.747978148747215 -5.3637682477553543 1.4999999999999998 #
point $-1 53.747978148747215 5.3637682477553543 1.4999999999999998 #
face $-1 $-1 $223 $29 $-1 $431 reversed single #
loop $-1 $-1 $341 $208 #
plane-surface $-1 0 7.0649781782659087 0 0 -1 0 0 0 -1 forward_v I I I I #
coedge $-1 $432 $339 $342 $433 forward $209 $-1 #
coedge $-1 $345 $211 $212 $333 reversed $130 $-1 #
coedge $-1 $339 $432 $211 $331 reversed $209 $-1 #
edge $-1 $346 -107.49595629749443 $434 107.49595629749443 $330 $435 forward 7 unknown #
coedge $-1 $213 $212 $432 $436 forward $81 $-1 #
edge $-1 $337 -214.99191259498886 $434 214.99191259498886 $329 $437 forward 7 unknown #
coedge $-1 $342 $341 $213 $335 reversed $326 $-1 #
edge $-1 $438 -214.99191259498886 $336 214.99191259498886 $334 $439 forward 7 unknown #
vertex $-1 $215 $440 #
vertex $-1 $348 $441 #
straight-curve $-1 214.99191259498886 0 -107.49595629749443 0 -1 0 I I #
coedge $-1 $328 $330 $216 $340 reversed $209 $-1 #
edge $-1 $343 -7.0649781782659087 $346 7.0649781782659087 $339 $442 forward 7 unknown #
coedge $-1 $334 $217 $222 $349 forward $326 $-1 #
coedge $-1 $217 $334 $328 $433 reversed $326 $-1 #
vertex $-1 $218 $443 #
straight-curve $-1 0 7.0649781782659087 107.49595629749443 -1 0 0 I I #
coedge $-1 $219 $329 $221 $348 reversed $130 $-1 #
vertex $-1 $340 $444 #
straight-curve $-1 0 -7.0649781782659087 107.49595629749443 1 0 0 I I #
edge $-1 $224 -107.49595629749443 $337 107.49595629749443 $221 $445 forward 7 unknown #
edge $-1 $225 -107.49595629749443 $336 107.49595629749443 $222 $446 forward 7 unknown #
point $-1 214.99191259498886 -7.0649781782659087 107.49595629749443 #
point $-1 214.99191259498886 7.0649781782659087 107.49595629749443 #
coedge $-1 $352 $352 $-1 $447 reversed $227 $-1 #
vertex $-1 $229 $448 #
ellipse-curve $-1 0 0 -0.125 0 0 -1 0.25 0 0 1 I I #
point $-1 0.25 0 -1.125 #
coedge $-1 $356 $356 $-1 $449 reversed $232 $-1 #
vertex $-1 $234 $450 #
ellipse-curve $-1 0 0 -0.125 0 0 -1 0.25 0 0 1 I I #
point $-1 0.25 0 -1.125 #
face $-1 $-1 $252 $32 $-1 $451 reversed single #
loop $-1 $-1 $376 $237 #
plane-surface $-1 0 7.8768036757540365 0 0 -1 0 0 0 -1 forward_v I I I I #
coedge $-1 $452 $374 $377 $453 forward $238 $-1 #
coedge $-1 $380 $240 $241 $368 reversed $148 $-1 #
coedge $-1 $374 $452 $240 $366 reversed $238 $-1 #
edge $-1 $381 -107.49595629749443 $454 107.49595629749443 $365 $455 forward 7 unknown #
coedge $-1 $242 $241 $452 $456 forward $95 $-1 #
edge $-1 $372 -214.99191259498886 $454 214.99191259498886 $364 $457 forward 7 unknown #
coedge $-1 $377 $376 $242 $370 reversed $361 $-1 #
edge $-1 $458 -214.99191259498886 $371 214.99191259498886 $369 $459 forward 7 unknown #
vertex $-1 $244 $460 #
vertex $-1 $383 $461 #
straight-curve $-1 214.99191259498886 0 -107.49595629749443 0 -1 0 I I #
coedge $-1 $363 $365 $245 $375 reversed $238 $-1 #
edge $-1 $378 -7.8768036757540365 $381 7.8768036757540365 $374 $462 forward 7 unknown #
coedge $-1 $369 $246 $251 $384 forward $361 $-1 #
coedge $-1 $246 $369 $363 $453 reversed $361 $-1 #
vertex $-1 $247 $463 #
straight-curve $-1 0 7.8768036757540365 107.49595629749443 -1 0 0 I I #
coedge $-1 $248 $364 $250 $383 reversed $148 $-1 #
vertex $-1 $375 $464 #
straight-curve $-1 0 -7.8768036757540365 107.49595629749443 1 0 0 I I #
edge $-1 $253 -107.49595629749443 $372 107.49595629749443 $250 $465 forward 7 unknown #
edge $-1 $254 -107.49595629749443 $371 107.49595629749443 $251 $466 forward 7 unknown #
point $-1 214.99191259498886 -7.8768036757540365 107.49595629749443 #
point $-1 214.99191259498886 7.8768036757540365 107.49595629749443 #
coedge $-1 $387 $387 $-1 $467 reversed $256 $-1 #
vertex $-1 $258 $468 #
ellipse-curve $-1 0 0 -0.75 0 0 -1 1.5 0 0 1 I I #
point $-1 1.5 0 -2.9332331308938864 #
coedge $-1 $391 $391 $-1 $469 reversed $261 $-1 #
vertex $-1 $263 $470 #
ellipse-curve $-1 0 0 -0.75 0 0 -1 1.5 0 0 1 I I #
point $-1 1.5 0 -2.9332331308938864 #
coedge $-1 $395 $395 $-1 $471 reversed $266 $-1 #
vertex $-1 $268 $472 #
ellipse-curve $-1 0 0 -0.75 0 0 -1 1.5 0 0 1 I I #
point $-1 1.5 0 -2.9332331308938864 #
plane-surface $-1 53.747978148747215 0 0 -1 0 0 0 0 1 forward_v I I I I #
coedge $-1 $276 $274 $278 $404 reversed $171 $-1 #
edge $-1 $289 -9.2295239462049494 $406 9.2295239462049494 $288 $473 forward 7 unknown #
vertex $-1 $404 $474 #
straight-curve $-1 -53.747978148747215 -35.758062210499268 0 0 0 -1 I I #
edge $-1 $402 -35.758062210499268 $406 35.758062210499268 $400 $475 forward 7 unknown #
straight-curve $-1 0 -35.758062210499268 -9.2295239462049494 -1 0 0 I I #
vertex $-1 $281 $476 #
straight-curve $-1 0 35.758062210499268 -9.2295239462049494 1 0 0 I I #
point $-1 53.747978148747215 35.758062210499268 -9.2295239462049494 #
point $-1 53.747978148747215 -35.758062210499268 -9.2295239462049494 #
straight-curve $-1 -53.747978148747215 0 9.2295239462049494 0 -1 0 I I #
point $-1 -53.747978148747215 35.758062210499268 9.2295239462049494 #
point $-1 -53.747978148747215 -35.758062210499268 9.2295239462049494 #
straight-curve $-1 53.747978148747215 -35.758062210499268 0 0 0 -1 I I #
straight-curve $-1 53.747978148747215 35.758062210499268 0 0 0 -1 I I #
plane-surface $-1 53.747978148747215 0 0 -1 0 0 0 0 1 forward_v I I I I #
coedge $-1 $303 $301 $305 $420 reversed $190 $-1 #
edge $-1 $316 -1.4999999999999998 $422 1.4999999999999998 $315 $477 forward 7 unknown #
vertex $-1 $420 $478 #
straight-curve $-1 -53.747978148747215 -5.3637682477553543 0 0 0 -1 I I #
edge $-1 $418 -5.3637682477553543 $422 5.3637682477553543 $416 $479 forward 7 unknown #
straight-curve $-1 0 -5.3637682477553543 -1.4999999999999998 -1 0 0 I I #
vertex $-1 $308 $480 #
straight-curve $-1 0 5.3637682477553543 -1.4999999999999998 1 0 0 I I #
point $-1 53.747978148747215 5.3637682477553543 -1.4999999999999998 #
point $-1 53.747978148747215 -5.3637682477553543 -1.4999999999999998 #
straight-curve $-1 -53.747978148747215 0 1.4999999999999998 0 -1 0 I I #
point $-1 -53.747978148747215 5.3637682477553543 1.4999999999999998 #
point $-1 -53.747978148747215 -5.3637682477553543 1.4999999999999998 #
straight-curve $-1 53.747978148747215 -5.3637682477553543 0 0 0 -1 I I #
straight-curve $-1 53.747978148747215 5.3637682477553543 0 0 0 -1 I I #
plane-surface $-1 214.99191259498886 0 0 -1 0 0 0 0 1 forward_v I I I I #
coedge $-1 $330 $328 $332 $436 reversed $209 $-1 #
edge $-1 $343 -107.49595629749443 $438 107.49595629749443 $342 $481 forward 7 unknown #
vertex $-1 $436 $482 #
straight-curve $-1 -214.99191259498886 -7.0649781782659087 0 0 0 -1 I I #
edge $-1 $434 -7.0649781782659087 $438 7.0649781782659087 $432 $483 forward 7 unknown #
straight-curve $-1 0 -7.0649781782659087 -107.49595629749443 -1 0 0 I I #
vertex $-1 $335 $484 #
straight-curve $-1 0 7.0649781782659087 -107.49595629749443 1 0 0 I I #
point $-1 214.99191259498886 7.0649781782659087 -107.49595629749443 #
point $-1 214.99191259498886 -7.0649781782659087 -107.49595629749443 #
straight-curve $-1 -214.99191259498886 0 107.49595629749443 0 -1 0 I I #
point $-1 -214.99191259498886 7.0649781782659087 107.49595629749443 #
point $-1 -214.99191259498886 -7.0649781782659087 107.49595629749443 #
straight-curve $-1 214.99191259498886 -7.0649781782659087 0 0 0 -1 I I #
straight-curve $-1 214.99191259498886 7.0649781782659087 0 0 0 -1 I I #
edge $-1 $485 1 $485 0 $352 $-1 forward 7 unknown #
point $-1 0.25 0 -0.125 #
edge $-1 $486 1 $486 0 $356 $-1 forward 7 unknown #
point $-1 0.25 0 -0.125 #
plane-surface $-1 214.99191259498886 0 0 -1 0 0 0 0 1 forward_v I I I I #
coedge $-1 $365 $363 $367 $456 reversed $238 $-1 #
edge $-1 $378 -107.49595629749443 $458 107.49595629749443 $377 $487 forward 7 unknown #
vertex $-1 $456 $488 #
straight-curve $-1 -214.99191259498886 -7.8768036757540365 0 0 0 -1 I I #
edge $-1 $454 -7.8768036757540365 $458 7.8768036757540365 $452 $489 forward 7 unknown #
straight-curve $-1 0 -7.8768036757540365 -107.49595629749443 -1 0 0 I I #
vertex $-1 $370 $490 #
straight-curve $-1 0 7.8768036757540365 -107.49595629749443 1 0 0 I I #
point $-1 214.99191259498886 7.8768036757540365 -107.49595629749443 #
point $-1 214.99191259498886 -7.8768036757540365 -107.49595629749443 #
straight-curve $-1 -214.99191259498886 0 107.49595629749443 0 -1 0 I I #
point $-1 -214.99191259498886 7.8768036757540365 107.49595629749443 #
point $-1 -214.99191259498886 -7.8768036757540365 107.49595629749443 #
straight-curve $-1 214.99191259498886 -7.8768036757540365 0 0 0 -1 I I #
straight-curve $-1 214.99191259498886 7.8768036757540365 0 0 0 -1 I I #
edge $-1 $491 1 $491 0 $387 $-1 forward 7 unknown #
point $-1 1.5 0 -0.75 #
edge $-1 $492 1 $492 0 $391 $-1 forward 7 unknown #
point $-1 1.5 0 -0.75 #
edge $-1 $493 1 $493 0 $395 $-1 forward 7 unknown #
point $-1 1.5 0 -0.75 #
straight-curve $-1 -53.747978148747215 35.758062210499268 0 0 0 -1 I I #
point $-1 -53.747978148747215 -35.758062210499268 -9.2295239462049494 #
straight-curve $-1 -53.747978148747215 0 -9.2295239462049494 0 1 0 I I #
point $-1 -53.747978148747215 35.758062210499268 -9.2295239462049494 #
straight-curve $-1 -53.747978148747215 5.3637682477553543 0 0 0 -1 I I #
point $-1 -53.747978148747215 -5.3637682477553543 -1.4999999999999998 #
straight-curve $-1 -53.747978148747215 0 -1.4999999999999998 0 1 0 I I #
point $-1 -53.747978148747215 5.3637682477553543 -1.4999999999999998 #
straight-curve $-1 -214.99191259498886 7.0649781782659087 0 0 0 -1 I I #
point $-1 -214.99191259498886 -7.0649781782659087 -107.49595629749443 #
straight-curve $-1 -214.99191259498886 0 -107.49595629749443 0 1 0 I I #
point $-1 -214.99191259498886 7.0649781782659087 -107.49595629749443 #
vertex $-1 $447 $494 #
vertex $-1 $449 $495 #
straight-curve $-1 -214.99191259498886 7.8768036757540365 0 0 0 -1 I I #
point $-1 -214.99191259498886 -7.8768036757540365 -107.49595629749443 #
straight-curve $-1 -214.99191259498886 0 -107.49595629749443 0 1 0 I I #
point $-1 -214.99191259498886 7.8768036757540365 -107.49595629749443 #
vertex $-1 $467 $496 #
vertex $-1 $469 $497 #
vertex $-1 $471 $498 #
point $-1 0 0 0.125 #
point $-1 0 0 0.125 #
point $-1 0 0 0.75 #
point $-1 0 0 0.75 #
point $-1 0 0 0.75 #
End-of-ACIS-data 