500 0 12 0           
7 Unknown 11 ACIS 5.0 NT 24 Thu Mar 25 18:04:27 1999 
-1 9.9999999999999995e-007 1e-010 
body $-1 $12 $-1 $13 #
body $-1 $14 $-1 $15 #
body $-1 $16 $-1 $17 #
body $-1 $18 $-1 $19 #
body $-1 $20 $-1 $21 #
body $-1 $22 $-1 $23 #
body $-1 $24 $-1 $25 #
body $-1 $26 $-1 $27 #
body $-1 $28 $-1 $29 #
body $-1 $30 $-1 $31 #
body $-1 $32 $-1 $33 #
body $-1 $34 $-1 $35 #
lump $-1 $-1 $36 $0 #
transform $-1 1 0 0 0 1 0 0 0 1 52.473525193029573 28.312034708629017 12.714537587951835 1 rotate no_reflect no_shear #
lump $-1 $-1 $37 $1 #
transform $-1 1 0 0 0 1 0 0 0 1 52.473525193029573 28.312034708629017 12.714537587951835 1 rotate no_reflect no_shear #
lump $-1 $-1 $38 $2 #
transform $-1 1 0 0 0 1 0 0 0 1 52.473525193029573 28.312034708629017 12.714537587951835 1 rotate no_reflect no_shear #
lump $-1 $-1 $39 $3 #
transform $-1 1 0 0 0 1 0 0 0 1 52.473525193029573 28.312034708629017 12.714537587951835 1 rotate no_reflect no_shear #
lump $-1 $-1 $40 $4 #
transform $-1 1 0 0 0 1 0 0 0 1 52.473525193029573 28.312034708629017 12.714537587951835 1 rotate no_reflect no_shear #
lump $-1 $-1 $41 $5 #
transform $-1 1 0 0 0 1 0 0 0 1 52.473525193029573 28.312034708629017 12.714537587951835 1 rotate no_reflect no_shear #
lump $-1 $-1 $42 $6 #
transform $-1 1 0 0 0 1 0 0 0 1 52.473525193029573 28.312034708629017 12.714537587951835 1 rotate no_reflect no_shear #
lump $-1 $-1 $43 $7 #
transform $-1 1 0 0 0 1 0 0 0 1 52.473525193029573 28.312034708629017 12.714537587951835 1 rotate no_reflect no_shear #
lump $-1 $-1 $44 $8 #
transform $-1 1 0 0 0 1 0 0 0 1 52.473525193029573 28.312034708629017 12.714537587951835 1 rotate no_reflect no_shear #
lump $-1 $-1 $45 $9 #
transform $-1 1 0 0 0 1 0 0 0 1 52.473525193029573 28.312034708629017 12.714537587951835 1 rotate no_reflect no_shear #
lump $-1 $-1 $46 $10 #
transform $-1 1 0 0 0 1 0 0 0 1 52.473525193029573 28.312034708629017 12.714537587951835 1 rotate no_reflect no_shear #
lump $-1 $-1 $47 $11 #
transform $-1 1 0 0 0 1 0 0 0 1 52.473525193029573 28.312034708629017 12.714537587951835 1 rotate no_reflect no_shear #
shell $-1 $-1 $-1 $48 $-1 $12 #
shell $-1 $-1 $-1 $49 $-1 $14 #
shell $-1 $-1 $-1 $50 $-1 $16 #
shell $-1 $-1 $-1 $51 $-1 $18 #
shell $-1 $-1 $-1 $52 $-1 $20 #
shell $-1 $-1 $-1 $53 $-1 $22 #
shell $-1 $-1 $-1 $54 $-1 $24 #
shell $-1 $-1 $-1 $55 $-1 $26 #
shell $-1 $-1 $-1 $56 $-1 $28 #
shell $-1 $-1 $-1 $57 $-1 $30 #
shell $-1 $-1 $-1 $58 $-1 $32 #
shell $-1 $-1 $-1 $59 $-1 $34 #
face $-1 $60 $61 $36 $-1 $62 forward single #
face $-1 $63 $64 $37 $-1 $65 reversed single #
face $-1 $66 $67 $38 $-1 $68 reversed single #
face $-1 $69 $70 $39 $-1 $71 forward single #
face $-1 $72 $73 $40 $-1 $74 forward single #
face $-1 $75 $76 $41 $-1 $77 reversed single #
face $-1 $78 $79 $42 $-1 $80 forward single #
face $-1 $81 $82 $43 $-1 $83 forward single #
face $-1 $84 $85 $44 $-1 $86 reversed single #
face $-1 $87 $88 $45 $-1 $89 forward single #
face $-1 $90 $91 $46 $-1 $92 forward single #
face $-1 $93 $94 $47 $-1 $95 forward single #
face $-1 $96 $97 $36 $-1 $98 reversed single #
loop $-1 $-1 $99 $48 #
plane-surface $-1 0 0 12.714537587951835 0 0 1 1 0 0 forward_v I I I I #
face $-1 $100 $101 $37 $-1 $102 reversed single #
loop $-1 $-1 $103 $49 #
plane-surface $-1 0 -20.049641828760386 9.7145375879518348 0 0 1 1 0 0 forward_v I I I I #
face $-1 $104 $105 $38 $-1 $106 reversed single #
loop $-1 $-1 $107 $50 #
plane-surface $-1 -104.94705108907176 -3.1602607812083718 92.639560883031109 0 1 0 -0.50000000669873634 0 0.8660253999169214 forward_v I I I I #
face $-1 $108 $109 $39 $-1 $110 forward single #
loop $-1 $111 $112 $51 #
cone-surface $-1 -42.694086317893984 -1.2764675483263659 6.7378402874478276 0.50000000669873634 0 -0.8660253999169214 0.4330126999584607 0 0.25000000334936817 1 I I 0 1 0.5 forward I I I I #
face $-1 $113 $114 $40 $-1 $115 forward single #
loop $-1 $116 $117 $52 #
cone-surface $-1 -42.694086317893984 1.549222300996643 6.7378402874478276 0.50000000669873634 0 -0.8660253999169214 0.4330126999584607 0 0.25000000334936817 1 I I 0 1 0.5 forward I I I I #
face $-1 $118 $119 $41 $-1 $120 reversed single #
loop $-1 $-1 $121 $53 #
plane-surface $-1 -104.94705108907176 13.09177022585861 92.639560883031109 0 1 0 -0.50000000669873634 0 0.8660253999169214 forward_v I I I I #
face $-1 $122 $123 $42 $-1 $124 forward single #
loop $-1 $125 $126 $54 #
cone-surface $-1 -42.694086317893984 14.97556345874062 6.7378402874478276 0.50000000669873634 0 -0.8660253999169214 0.4330126999584607 0 0.25000000334936817 1 I I 0 1 0.5 forward I I I I #
face $-1 $127 $128 $43 $-1 $129 forward single #
loop $-1 $130 $131 $55 #
cone-surface $-1 -42.694086317893984 17.801253308063625 6.7378402874478276 0.50000000669873634 0 -0.8660253999169214 0.4330126999584607 0 0.25000000334936817 1 I I 0 1 0.5 forward I I I I #
face $-1 $132 $133 $44 $-1 $134 reversed single #
loop $-1 $-1 $135 $56 #
plane-surface $-1 93.38294626705958 -4.5883582994998591 149.59015392115953 0 -1 0 -0.87461971476443456 0 -0.48480960649040278 forward_v I I I I #
face $-1 $136 $137 $45 $-1 $138 forward single #
loop $-1 $139 $140 $57 #
cone-surface $-1 50.430803031835126 -10.347470819013378 9.5758922143016818 -0.87461971476443456 0 -0.48480960649040278 0.12120240162260069 0 -0.21865492869110864 1 I I 0 1 0.25 forward I I I I #
face $-1 $141 $142 $46 $-1 $143 forward single #
loop $-1 $144 $145 $58 #
cone-surface $-1 50.430803031835126 -8.1878036241958085 9.5758922143016818 -0.87461971476443456 0 -0.48480960649040278 0.12120240162260069 0 -0.21865492869110864 1 I I 0 1 0.25 forward I I I I #
face $-1 $146 $147 $47 $-1 $148 forward single #
loop $-1 $149 $150 $59 #
cone-surface $-1 50.430803031835126 -6.0281364293782396 9.5758922143016818 -0.87461971476443456 0 -0.48480960649040278 0.12120240162260069 0 -0.21865492869110864 1 I I 0 1 0.25 forward I I I I #
face $-1 $151 $152 $36 $-1 $153 reversed single #
loop $-1 $-1 $154 $60 #
plane-surface $-1 0 0 -12.714537587951835 0 0 1 1 0 0 forward_v I I I I #
coedge $-1 $155 $156 $157 $158 forward $61 $-1 #
face $-1 $159 $160 $37 $-1 $161 reversed single #
loop $-1 $-1 $162 $63 #
plane-surface $-1 0 -11.787248948891756 11.214537587951835 0 -1 0 0 0 -1 forward_v I I I I #
coedge $-1 $163 $164 $165 $166 reversed $64 $-1 #
face $-1 $167 $168 $38 $-1 $169 reversed single #
loop $-1 $-1 $170 $66 #
plane-surface $-1 -52.473525193029573 0.1363773763351368 1.7527496023429308 -0.50000000669873634 0 0.8660253999169214 0.8660253999169214 0 0.50000000669873634 forward_v I I I I #
coedge $-1 $171 $172 $173 $174 reversed $67 $-1 #
face $-1 $-1 $175 $39 $-1 $176 forward single #
loop $-1 $177 $178 $69 #
cone-surface $-1 -42.282834137940441 -1.2764675483263659 6.0255306297690368 0.50000000669873634 0 -0.8660253999169214 0.21650634997923035 0 0.12500000167468409 1 I I -0.70710678118654746 0.70710678118654746 0.25 forward I I I I #
loop $-1 $-1 $179 $51 #
coedge $-1 $112 $112 $180 $181 reversed $70 $-1 #
face $-1 $-1 $182 $40 $-1 $183 forward single #
loop $-1 $184 $185 $72 #
cone-surface $-1 -42.282834137940441 1.549222300996643 6.0255306297690368 0.50000000669873634 0 -0.8660253999169214 0.21650634997923035 0 0.12500000167468409 1 I I -0.70710678118654746 0.70710678118654746 0.25 forward I I I I #
loop $-1 $-1 $186 $52 #
coedge $-1 $117 $117 $187 $188 reversed $73 $-1 #
face $-1 $189 $190 $41 $-1 $191 reversed single #
loop $-1 $-1 $192 $75 #
plane-surface $-1 -52.473525193029573 16.388408383402119 1.7527496023429308 -0.50000000669873634 0 0.8660253999169214 0.8660253999169214 0 0.50000000669873634 forward_v I I I I #
coedge $-1 $193 $194 $195 $196 reversed $76 $-1 #
face $-1 $-1 $197 $42 $-1 $198 forward single #
loop $-1 $199 $200 $78 #
cone-surface $-1 -42.282834137940441 14.97556345874062 6.0255306297690368 0.50000000669873634 0 -0.8660253999169214 0.21650634997923035 0 0.12500000167468409 1 I I -0.70710678118654746 0.70710678118654746 0.25 forward I I I I #
loop $-1 $-1 $201 $54 #
coedge $-1 $126 $126 $202 $203 reversed $79 $-1 #
face $-1 $-1 $204 $43 $-1 $205 forward single #
loop $-1 $206 $207 $81 #
cone-surface $-1 -42.282834137940441 17.801253308063625 6.0255306297690368 0.50000000669873634 0 -0.8660253999169214 0.21650634997923035 0 0.12500000167468409 1 I I -0.70710678118654746 0.70710678118654746 0.25 forward I I I I #
loop $-1 $-1 $208 $55 #
coedge $-1 $131 $131 $209 $210 reversed $82 $-1 #
face $-1 $211 $212 $44 $-1 $213 forward single #
loop $-1 $-1 $214 $84 #
plane-surface $-1 1.594186993035791 -8.1878036241958085 98.710815721165716 0.87461971476443456 0 0.48480960649040278 0.48480960649040278 0 -0.87461971476443456 forward_v I I I I #
coedge $-1 $215 $216 $217 $218 reversed $85 $-1 #
face $-1 $-1 $219 $45 $-1 $220 forward single #
loop $-1 $221 $222 $87 #
cone-surface $-1 49.884165710107354 -10.347470819013378 9.2728862102451792 -0.87461971476443456 0 -0.48480960649040278 0.060601200811300347 0 -0.10932746434555432 1 I I -0.70710678118654746 0.70710678118654746 0.125 forward I I I I #
loop $-1 $-1 $223 $57 #
coedge $-1 $140 $140 $224 $225 reversed $88 $-1 #
face $-1 $-1 $226 $46 $-1 $227 forward single #
loop $-1 $228 $229 $90 #
cone-surface $-1 49.884165710107354 -8.1878036241958085 9.2728862102451792 -0.87461971476443456 0 -0.48480960649040278 0.060601200811300347 0 -0.10932746434555432 1 I I -0.70710678118654746 0.70710678118654746 0.125 forward I I I I #
loop $-1 $-1 $230 $58 #
coedge $-1 $145 $145 $231 $232 reversed $91 $-1 #
face $-1 $-1 $233 $47 $-1 $234 forward single #
loop $-1 $235 $236 $93 #
cone-surface $-1 49.884165710107354 -6.0281364293782396 9.2728862102451792 -0.87461971476443456 0 -0.48480960649040278 0.060601200811300347 0 -0.10932746434555432 1 I I -0.70710678118654746 0.70710678118654746 0.125 forward I I I I #
loop $-1 $-1 $237 $59 #
coedge $-1 $150 $150 $238 $239 reversed $94 $-1 #
face $-1 $240 $241 $36 $-1 $242 reversed single #
loop $-1 $-1 $243 $96 #
plane-surface $-1 0 -28.312034708629017 0 0 1 0 0 0 1 forward_v I I I I #
coedge $-1 $244 $245 $246 $247 forward $97 $-1 #
coedge $-1 $248 $99 $249 $250 forward $61 $-1 #
coedge $-1 $99 $248 $251 $252 forward $61 $-1 #
coedge $-1 $253 $254 $99 $158 reversed $255 $-1 #
edge $-1 $256 -28.312034708629017 $257 28.312034708629017 $157 $258 forward 7 unknown #
face $-1 $259 $260 $37 $-1 $261 reversed single #
loop $-1 $-1 $262 $100 #
plane-surface $-1 -52.473525193029573 0 0 1 0 0 0 0 -1 forward_v I I I I #
coedge $-1 $263 $264 $164 $265 reversed $101 $-1 #
coedge $-1 $266 $103 $267 $268 reversed $64 $-1 #
coedge $-1 $103 $266 $162 $265 forward $64 $-1 #
coedge $-1 $269 $270 $103 $166 forward $271 $-1 #
edge $-1 $272 -18.287213794248821 $273 -1.7624280345115633 $165 $274 forward 7 unknown #
face $-1 $275 $276 $38 $-1 $277 forward single #
loop $-1 $-1 $278 $104 #
plane-surface $-1 -104.94705108907176 3.4330155338786454 92.639560883031109 0 -1 0 0.50000000669873634 0 -0.8660253999169214 forward_v I I I I #
coedge $-1 $279 $280 $281 $282 reversed $105 $-1 #
coedge $-1 $172 $107 $283 $284 reversed $67 $-1 #
coedge $-1 $107 $171 $279 $285 reversed $67 $-1 #
coedge $-1 $281 $286 $107 $174 forward $276 $-1 #
edge $-1 $287 3.5150630850466769e-007 $288 18.986373745219801 $173 $289 forward 7 unknown #
loop $-1 $-1 $180 $108 #
plane-surface $-1 -52.473525193029573 0.1363773763351368 1.7527496023429308 -0.50000000669873634 0 0.8660253999169214 0.8660253999169214 0 0.50000000669873634 forward_v I I I I #
loop $-1 $-1 $290 $69 #
coedge $-1 $178 $178 $179 $291 reversed $109 $-1 #
coedge $-1 $179 $179 $178 $291 forward $111 $-1 #
coedge $-1 $180 $180 $112 $181 forward $175 $-1 #
edge $-1 $292 0 $292 6.2831853071796004 $180 $293 forward 7 unknown #
loop $-1 $-1 $187 $113 #
plane-surface $-1 -52.473525193029573 0.1363773763351368 1.7527496023429308 -0.50000000669873634 0 0.8660253999169214 0.8660253999169214 0 0.50000000669873634 forward_v I I I I #
loop $-1 $-1 $294 $72 #
coedge $-1 $185 $185 $186 $295 reversed $114 $-1 #
coedge $-1 $186 $186 $185 $295 forward $116 $-1 #
coedge $-1 $187 $187 $117 $188 forward $182 $-1 #
edge $-1 $296 0 $296 6.2831853071796004 $187 $297 forward 7 unknown #
face $-1 $298 $299 $41 $-1 $300 forward single #
loop $-1 $-1 $301 $118 #
plane-surface $-1 -104.94705108907176 19.685046540945628 92.639560883031109 0 -1 0 0.50000000669873634 0 -0.8660253999169214 forward_v I I I I #
coedge $-1 $302 $303 $304 $305 reversed $119 $-1 #
coedge $-1 $194 $121 $306 $307 reversed $76 $-1 #
coedge $-1 $121 $193 $302 $308 reversed $76 $-1 #
coedge $-1 $304 $309 $121 $196 forward $299 $-1 #
edge $-1 $310 3.5150630850466769e-007 $311 18.986373745219801 $195 $312 forward 7 unknown #
loop $-1 $-1 $202 $122 #
plane-surface $-1 -52.473525193029573 16.388408383402119 1.7527496023429308 -0.50000000669873634 0 0.8660253999169214 0.8660253999169214 0 0.50000000669873634 forward_v I I I I #
loop $-1 $-1 $313 $78 #
coedge $-1 $200 $200 $201 $314 reversed $123 $-1 #
coedge $-1 $201 $201 $200 $314 forward $125 $-1 #
coedge $-1 $202 $202 $126 $203 forward $197 $-1 #
edge $-1 $315 0 $315 6.2831853071796004 $202 $316 forward 7 unknown #
loop $-1 $-1 $209 $127 #
plane-surface $-1 -52.473525193029573 16.388408383402119 1.7527496023429308 -0.50000000669873634 0 0.8660253999169214 0.8660253999169214 0 0.50000000669873634 forward_v I I I I #
loop $-1 $-1 $317 $81 #
coedge $-1 $207 $207 $208 $318 reversed $128 $-1 #
coedge $-1 $208 $208 $207 $318 forward $130 $-1 #
coedge $-1 $209 $209 $131 $210 forward $204 $-1 #
edge $-1 $319 0 $319 6.2831853071796004 $209 $320 forward 7 unknown #
face $-1 $321 $322 $44 $-1 $323 forward single #
loop $-1 $-1 $324 $132 #
plane-surface $-1 0 -11.787248948891756 11.214537587951835 0 -1 0 0 0 -1 forward_v I I I I #
coedge $-1 $325 $326 $327 $328 reversed $133 $-1 #
coedge $-1 $216 $135 $329 $330 reversed $85 $-1 #
coedge $-1 $135 $215 $325 $331 reversed $85 $-1 #
coedge $-1 $327 $332 $135 $218 forward $322 $-1 #
edge $-1 $333 -5.7820520594997831 $334 -2.5712274518753446 $217 $335 forward 7 unknown #
loop $-1 $-1 $224 $136 #
plane-surface $-1 1.594186993035791 -8.1878036241958085 98.710815721165716 0.87461971476443456 0 0.48480960649040278 0.48480960649040278 0 -0.87461971476443456 forward_v I I I I #
loop $-1 $-1 $336 $87 #
coedge $-1 $222 $222 $223 $337 reversed $137 $-1 #
coedge $-1 $223 $223 $222 $337 forward $139 $-1 #
coedge $-1 $224 $224 $140 $225 forward $219 $-1 #
edge $-1 $338 0 $338 6.2831853071796004 $224 $339 forward 7 unknown #
loop $-1 $-1 $231 $141 #
plane-surface $-1 1.594186993035791 -8.1878036241958085 98.710815721165716 0.87461971476443456 0 0.48480960649040278 0.48480960649040278 0 -0.87461971476443456 forward_v I I I I #
loop $-1 $-1 $340 $90 #
coedge $-1 $229 $229 $230 $341 reversed $142 $-1 #
coedge $-1 $230 $230 $229 $341 forward $144 $-1 #
coedge $-1 $231 $231 $145 $232 forward $226 $-1 #
edge $-1 $342 0 $342 6.2831853071796004 $231 $343 forward 7 unknown #
loop $-1 $-1 $238 $146 #
plane-surface $-1 1.594186993035791 -8.1878036241958085 98.710815721165716 0.87461971476443456 0 0.48480960649040278 0.48480960649040278 0 -0.87461971476443456 forward_v I I I I #
loop $-1 $-1 $344 $93 #
coedge $-1 $236 $236 $237 $345 reversed $147 $-1 #
coedge $-1 $237 $237 $236 $345 forward $149 $-1 #
coedge $-1 $238 $238 $150 $239 forward $233 $-1 #
edge $-1 $346 0 $346 6.2831853071796004 $238 $347 forward 7 unknown #
face $-1 $348 $349 $36 $-1 $350 reversed single #
loop $-1 $-1 $351 $151 #
plane-surface $-1 -52.473525193029573 0 0 1 0 0 0 0 -1 forward_v I I I I #
coedge $-1 $352 $251 $353 $354 forward $152 $-1 #
coedge $-1 $355 $154 $352 $356 forward $97 $-1 #
coedge $-1 $154 $355 $357 $358 forward $97 $-1 #
coedge $-1 $254 $253 $154 $247 reversed $255 $-1 #
edge $-1 $359 -28.312034708629017 $360 28.312034708629017 $246 $361 forward 7 unknown #
coedge $-1 $156 $155 $362 $363 forward $61 $-1 #
coedge $-1 $364 $365 $155 $250 reversed $349 $-1 #
edge $-1 $257 -52.473525193029573 $366 52.473525193029573 $249 $367 forward 7 unknown #
coedge $-1 $243 $368 $156 $252 reversed $152 $-1 #
edge $-1 $369 -52.473525193029573 $256 52.473525193029573 $251 $370 forward 7 unknown #
coedge $-1 $246 $157 $368 $371 forward $255 $-1 #
coedge $-1 $157 $246 $364 $372 reversed $255 $-1 #
loop $-1 $-1 $253 $348 #
vertex $-1 $158 $373 #
vertex $-1 $158 $374 #
straight-curve $-1 52.473525193029573 0 12.714537587951835 0 1 0 I I #
face $-1 $375 $376 $37 $-1 $377 forward single #
loop $-1 $-1 $267 $159 #
plane-surface $-1 0 -28.312034708629017 0 0 1 0 0 0 1 forward_v I I I I #
coedge $-1 $378 $379 $263 $380 forward $160 $-1 #
coedge $-1 $381 $162 $262 $380 reversed $101 $-1 #
coedge $-1 $162 $381 $269 $382 reversed $101 $-1 #
edge $-1 $383 -52.473525193029573 $273 52.473525193029573 $162 $384 forward 7 unknown #
coedge $-1 $164 $163 $378 $385 reversed $64 $-1 #
coedge $-1 $386 $387 $163 $268 forward $260 $-1 #
edge $-1 $388 -52.473525193029573 $272 52.473525193029573 $267 $389 forward 7 unknown #
coedge $-1 $390 $165 $264 $382 forward $271 $-1 #
coedge $-1 $165 $390 $386 $391 forward $271 $-1 #
loop $-1 $-1 $269 $375 #
vertex $-1 $268 $392 #
vertex $-1 $166 $393 #
straight-curve $-1 52.473525193029573 -10.024820914380193 9.7145375879518348 0 1 0 I I #
face $-1 $-1 $394 $38 $-1 $395 reversed single #
loop $-1 $-1 $173 $167 #
plane-surface $-1 0 0 12.714537587951835 0 0 1 1 0 0 forward_v I I I I #
coedge $-1 $396 $397 $398 $399 reversed $168 $-1 #
coedge $-1 $400 $170 $172 $285 forward $105 $-1 #
coedge $-1 $170 $400 $396 $401 forward $105 $-1 #
coedge $-1 $398 $173 $170 $282 forward $276 $-1 #
edge $-1 $288 -3.2284494693759402 $402 3.364826845711077 $281 $403 forward 7 unknown #
coedge $-1 $404 $405 $171 $284 forward $394 $-1 #
edge $-1 $406 -44.567030839172624 $287 -33.605242853563723 $283 $407 forward 7 unknown #
edge $-1 $288 -21.923575677497304 $406 0 $172 $408 forward 7 unknown #
coedge $-1 $173 $398 $404 $409 forward $276 $-1 #
vertex $-1 $284 $410 #
vertex $-1 $174 $411 #
straight-curve $-1 -52.473525544535882 -3.1602607812083718 12.714537587951831 1 0 0 I I #
coedge $-1 $290 $290 $-1 $412 reversed $177 $-1 #
edge $-1 $413 0 $413 6.2831853071796004 $178 $414 forward 7 unknown #
vertex $-1 $181 $415 #
ellipse-curve $-1 -42.980338496172834 -1.2764675483263659 7.2336435951473792 -0.50000000669873634 0 0.8660253999169214 0.4330126999584607 0 0.25000000334936817 1 I I #
coedge $-1 $294 $294 $-1 $416 reversed $184 $-1 #
edge $-1 $417 0 $417 6.2831853071796004 $185 $418 forward 7 unknown #
vertex $-1 $188 $419 #
ellipse-curve $-1 -42.980338496172834 1.549222300996643 7.2336435951473792 -0.50000000669873634 0 0.8660253999169214 0.4330126999584607 0 0.25000000334936817 1 I I #
face $-1 $-1 $420 $41 $-1 $421 reversed single #
loop $-1 $-1 $195 $189 #
plane-surface $-1 0 0 12.714537587951835 0 0 1 1 0 0 forward_v I I I I #
coedge $-1 $422 $423 $424 $425 reversed $190 $-1 #
coedge $-1 $426 $192 $194 $308 forward $119 $-1 #
coedge $-1 $192 $426 $422 $427 forward $119 $-1 #
coedge $-1 $424 $195 $192 $305 forward $299 $-1 #
edge $-1 $311 4.8975660341575509 $428 11.490842349244568 $304 $429 forward 7 unknown #
coedge $-1 $430 $431 $193 $307 forward $420 $-1 #
edge $-1 $432 -44.567030839172624 $310 -33.605242853563723 $306 $433 forward 7 unknown #
edge $-1 $311 -21.923575677497304 $432 0 $194 $434 forward 7 unknown #
coedge $-1 $195 $424 $430 $435 forward $299 $-1 #
vertex $-1 $196 $436 #
vertex $-1 $196 $437 #
straight-curve $-1 -52.473525544535882 13.09177022585861 12.714537587951831 1 0 0 I I #
coedge $-1 $313 $313 $-1 $438 reversed $199 $-1 #
edge $-1 $439 0 $439 6.2831853071796004 $200 $440 forward 7 unknown #
vertex $-1 $203 $441 #
ellipse-curve $-1 -42.980338496172834 14.97556345874062 7.2336435951473792 -0.50000000669873634 0 0.8660253999169214 0.4330126999584607 0 0.25000000334936817 1 I I #
coedge $-1 $317 $317 $-1 $442 reversed $206 $-1 #
edge $-1 $443 0 $443 6.2831853071796004 $207 $444 forward 7 unknown #
vertex $-1 $210 $445 #
ellipse-curve $-1 -42.980338496172834 17.801253308063625 7.2336435951473792 -0.50000000669873634 0 0.8660253999169214 0.4330126999584607 0 0.25000000334936817 1 I I #
face $-1 $-1 $446 $44 $-1 $447 reversed single #
loop $-1 $-1 $327 $211 #
plane-surface $-1 0 0 12.714537587951835 0 0 1 1 0 0 forward_v I I I I #
coedge $-1 $448 $449 $326 $450 reversed $212 $-1 #
coedge $-1 $451 $214 $216 $331 forward $133 $-1 #
coedge $-1 $214 $451 $324 $450 forward $133 $-1 #
coedge $-1 $452 $217 $214 $328 forward $322 $-1 #
edge $-1 $334 0.4944564874019548 $453 7.6933471367938537 $327 $454 forward 7 unknown #
coedge $-1 $455 $456 $215 $330 forward $446 $-1 #
edge $-1 $457 -67.873020513437794 $333 -62.080539372627925 $329 $458 forward 7 unknown #
edge $-1 $334 98.324193568373502 $457 104.9470503860591 $216 $459 forward 7 unknown #
coedge $-1 $217 $452 $455 $460 forward $322 $-1 #
vertex $-1 $330 $461 #
vertex $-1 $218 $462 #
straight-curve $-1 46.69147313352979 -4.5883582994998591 12.714537587951838 -1 0 0 I I #
coedge $-1 $336 $336 $-1 $463 reversed $221 $-1 #
edge $-1 $464 0 $464 6.2831853071796004 $222 $465 forward 7 unknown #
vertex $-1 $225 $466 #
ellipse-curve $-1 50.868112889217358 -10.347470819013378 9.8182970175468895 0.87461971476443456 0 0.48480960649040278 0.12120240162260069 0 -0.21865492869110864 1 I I #
coedge $-1 $340 $340 $-1 $467 reversed $228 $-1 #
edge $-1 $468 0 $468 6.2831853071796004 $229 $469 forward 7 unknown #
vertex $-1 $232 $470 #
ellipse-curve $-1 50.868112889217358 -8.1878036241958085 9.8182970175468895 0.87461971476443456 0 0.48480960649040278 0.12120240162260069 0 -0.21865492869110864 1 I I #
coedge $-1 $344 $344 $-1 $471 reversed $235 $-1 #
edge $-1 $472 0 $472 6.2831853071796004 $236 $473 forward 7 unknown #
vertex $-1 $239 $474 #
ellipse-curve $-1 50.868112889217358 -6.0281364293782396 9.8182970175468895 0.87461971476443456 0 0.48480960649040278 0.12120240162260069 0 -0.21865492869110864 1 I I #
face $-1 $-1 $255 $36 $-1 $475 reversed single #
loop $-1 $-1 $364 $240 #
plane-surface $-1 0 28.312034708629017 0 0 -1 0 0 0 -1 forward_v I I I I #
coedge $-1 $476 $362 $365 $477 forward $241 $-1 #
coedge $-1 $368 $243 $244 $356 reversed $152 $-1 #
coedge $-1 $362 $476 $243 $354 reversed $241 $-1 #
edge $-1 $369 -12.714537587951835 $478 12.714537587951835 $353 $479 forward 7 unknown #
coedge $-1 $245 $244 $476 $480 forward $97 $-1 #
edge $-1 $360 -52.473525193029573 $478 52.473525193029573 $352 $481 forward 7 unknown #
coedge $-1 $365 $364 $245 $358 reversed $349 $-1 #
edge $-1 $482 -52.473525193029573 $359 52.473525193029573 $357 $483 forward 7 unknown #
vertex $-1 $247 $484 #
vertex $-1 $371 $485 #
straight-curve $-1 52.473525193029573 0 -12.714537587951835 0 -1 0 I I #
coedge $-1 $351 $353 $248 $363 reversed $241 $-1 #
edge $-1 $366 -28.312034708629017 $369 28.312034708629017 $362 $486 forward 7 unknown #
coedge $-1 $357 $249 $254 $372 forward $349 $-1 #
coedge $-1 $249 $357 $351 $477 reversed $349 $-1 #
vertex $-1 $250 $487 #
straight-curve $-1 0 28.312034708629017 12.714537587951835 -1 0 0 I I #
coedge $-1 $251 $352 $253 $371 reversed $152 $-1 #
vertex $-1 $363 $488 #
straight-curve $-1 0 -28.312034708629017 12.714537587951835 1 0 0 I I #
edge $-1 $256 -12.714537587951835 $360 12.714537587951835 $253 $489 forward 7 unknown #
edge $-1 $257 -12.714537587951835 $359 12.714537587951835 $254 $490 forward 7 unknown #
point $-1 52.473525193029573 -28.312034708629017 12.714537587951835 #
point $-1 52.473525193029573 28.312034708629017 12.714537587951835 #
face $-1 $-1 $271 $37 $-1 $491 reversed single #
loop $-1 $-1 $492 $259 #
plane-surface $-1 0 0 12.714537587951835 0 0 1 1 0 0 forward_v I I I I #
coedge $-1 $493 $262 $266 $385 forward $160 $-1 #
coedge $-1 $262 $493 $494 $495 reversed $160 $-1 #
edge $-1 $496 -7.1072687939759174 $383 -4.1072687939759174 $262 $497 forward 7 unknown #
coedge $-1 $264 $263 $492 $498 reversed $101 $-1 #
edge $-1 $273 4.1072687939759174 $499 7.1072687939759174 $269 $500 forward 7 unknown #
vertex $-1 $385 $501 #
straight-curve $-1 0 -11.787248948891756 9.7145375879518348 1 0 0 I I #
edge $-1 $383 1.7624280345115633 $388 18.287213794248821 $378 $502 forward 7 unknown #
coedge $-1 $503 $267 $270 $391 reversed $260 $-1 #
coedge $-1 $267 $503 $493 $504 forward $260 $-1 #
vertex $-1 $268 $505 #
straight-curve $-1 0 -28.312034708629017 9.7145375879518348 1 0 0 I I #
coedge $-1 $270 $269 $506 $507 reversed $271 $-1 #
edge $-1 $508 -12.714537587951835 $272 -9.7145375879518348 $270 $509 forward 7 unknown #
point $-1 52.473525193029573 -28.312034708629014 9.7145375879518348 #
point $-1 52.473525193029573 -11.787248948891756 9.7145375879518348 #
loop $-1 $-1 $283 $275 #
plane-surface $-1 -52.473525193029573 0 0 1 0 0 0 0 -1 forward_v I I I I #
coedge $-1 $397 $278 $280 $401 reversed $168 $-1 #
coedge $-1 $278 $396 $510 $511 reversed $168 $-1 #
coedge $-1 $286 $281 $278 $399 forward $276 $-1 #
edge $-1 $402 -18.986373745219801 $512 -3.5150630850466769e-007 $398 $513 forward 7 unknown #
coedge $-1 $280 $279 $405 $514 reversed $105 $-1 #
edge $-1 $515 0 $402 21.923575677497304 $396 $516 forward 7 unknown #
vertex $-1 $282 $517 #
straight-curve $-1 -33.487151799316081 0.068188688167568401 12.714537587951835 0 1 0 I I #
coedge $-1 $510 $283 $286 $409 reversed $394 $-1 #
coedge $-1 $283 $510 $400 $514 forward $394 $-1 #
vertex $-1 $284 $518 #
straight-curve $-1 -52.473525193029573 -3.1602607812083718 46.319780441515555 0 0 1 I I #
straight-curve $-1 -52.473525193029573 -3.1602607812083718 1.7527496023429308 -0.8660253999169214 0 -0.50000000669873634 I I #
edge $-1 $512 -3.4330155338786454 $287 3.1602607812083718 $404 $519 forward 7 unknown #
point $-1 -52.473525193029573 -3.1602607812083718 12.714537587951835 #
point $-1 -33.487151799316081 -3.1602607812083718 12.714537587951835 #
edge $-1 $520 1 $520 0 $290 $-1 forward 7 unknown #
vertex $-1 $291 $521 #
ellipse-curve $-1 -42.407834139615126 -1.2764675483263659 6.2420369797482671 -0.50000000669873634 0 0.8660253999169214 0.4330126999584607 0 0.25000000334936817 1 I I #
point $-1 -42.547325796214373 -1.2764675483263659 7.483643598496756 #
edge $-1 $522 1 $522 0 $294 $-1 forward 7 unknown #
vertex $-1 $295 $523 #
ellipse-curve $-1 -42.407834139615126 1.549222300996643 6.2420369797482671 -0.50000000669873634 0 0.8660253999169214 0.4330126999584607 0 0.25000000334936817 1 I I #
point $-1 -42.547325796214373 1.549222300996643 7.483643598496756 #
loop $-1 $-1 $306 $298 #
plane-surface $-1 -52.473525193029573 0 0 1 0 0 0 0 -1 forward_v I I I I #
coedge $-1 $423 $301 $303 $427 reversed $190 $-1 #
coedge $-1 $301 $422 $524 $525 reversed $190 $-1 #
coedge $-1 $309 $304 $301 $425 forward $299 $-1 #
edge $-1 $428 -18.986373745219801 $526 -3.5150630850466769e-007 $424 $527 forward 7 unknown #
coedge $-1 $303 $302 $431 $528 reversed $119 $-1 #
edge $-1 $529 0 $428 21.923575677497304 $422 $530 forward 7 unknown #
vertex $-1 $305 $531 #
straight-curve $-1 -33.487151799316081 8.1942041917010595 12.714537587951835 0 1 0 I I #
coedge $-1 $524 $306 $309 $435 reversed $420 $-1 #
coedge $-1 $306 $524 $426 $528 forward $420 $-1 #
vertex $-1 $307 $532 #
straight-curve $-1 -52.473525193029573 13.09177022585861 46.319780441515555 0 0 1 I I #
straight-curve $-1 -52.473525193029573 13.09177022585861 1.7527496023429308 -0.8660253999169214 0 -0.50000000669873634 I I #
edge $-1 $526 -19.685046540945628 $310 -13.09177022585861 $430 $533 forward 7 unknown #
point $-1 -52.473525193029573 13.09177022585861 12.714537587951835 #
point $-1 -33.487151799316081 13.09177022585861 12.714537587951835 #
edge $-1 $534 1 $534 0 $313 $-1 forward 7 unknown #
vertex $-1 $314 $535 #
ellipse-curve $-1 -42.407834139615126 14.97556345874062 6.2420369797482671 -0.50000000669873634 0 0.8660253999169214 0.4330126999584607 0 0.25000000334936817 1 I I #
point $-1 -42.547325796214373 14.97556345874062 7.483643598496756 #
edge $-1 $536 1 $536 0 $317 $-1 forward 7 unknown #
vertex $-1 $318 $537 #
ellipse-curve $-1 -42.407834139615126 17.801253308063625 6.2420369797482671 -0.50000000669873634 0 0.8660253999169214 0.4330126999584607 0 0.25000000334936817 1 I I #
point $-1 -42.547325796214373 17.801253308063625 7.483643598496756 #
loop $-1 $-1 $329 $321 #
plane-surface $-1 52.473525193029573 0 0 -1 0 0 0 0 1 forward_v I I I I #
coedge $-1 $449 $324 $538 $539 reversed $212 $-1 #
coedge $-1 $324 $448 $452 $540 reversed $212 $-1 #
edge $-1 $541 -104.9470503860591 $453 -98.324193568373502 $324 $542 forward 7 unknown #
coedge $-1 $326 $325 $456 $543 reversed $133 $-1 #
coedge $-1 $332 $327 $449 $540 forward $322 $-1 #
vertex $-1 $540 $544 #
straight-curve $-1 49.262700585405142 -4.0939018120979043 12.714537587951838 0 -1 0 I I #
coedge $-1 $538 $329 $332 $460 reversed $446 $-1 #
coedge $-1 $329 $538 $451 $543 forward $446 $-1 #
vertex $-1 $330 $545 #
straight-curve $-1 52.473525193029573 -4.5883582994998591 74.795076960579763 0 0 1 I I #
straight-curve $-1 1.594186993035791 -4.5883582994998591 98.710815721165716 0.48480960649040278 0 -0.87461971476443456 I I #
edge $-1 $546 -11.787248948891756 $333 -4.5883582994998591 $455 $547 forward 7 unknown #
point $-1 52.473525193029573 -4.5883582994998591 12.714537587951835 #
point $-1 49.262700585405135 -4.5883582994998591 12.714537587951838 #
edge $-1 $548 1 $548 0 $336 $-1 forward 7 unknown #
vertex $-1 $337 $549 #
ellipse-curve $-1 49.993493174452908 -10.347470819013378 9.3334874110564794 0.87461971476443456 0 0.48480960649040278 0.12120240162260069 0 -0.21865492869110864 1 I I #
point $-1 50.98931529083994 -10.347470819013378 9.5996420888557736 #
edge $-1 $550 1 $550 0 $340 $-1 forward 7 unknown #
vertex $-1 $341 $551 #
ellipse-curve $-1 49.993493174452908 -8.1878036241958085 9.3334874110564794 0.87461971476443456 0 0.48480960649040278 0.12120240162260069 0 -0.21865492869110864 1 I I #
point $-1 50.98931529083994 -8.1878036241958085 9.5996420888557736 #
edge $-1 $552 1 $552 0 $344 $-1 forward 7 unknown #
vertex $-1 $345 $553 #
ellipse-curve $-1 49.993493174452908 -6.0281364293782396 9.3334874110564794 0.87461971476443456 0 0.48480960649040278 0.12120240162260069 0 -0.21865492869110864 1 I I #
point $-1 50.98931529083994 -6.0281364293782396 9.5996420888557736 #
plane-surface $-1 52.473525193029573 0 0 -1 0 0 0 0 1 forward_v I I I I #
coedge $-1 $353 $351 $355 $480 reversed $241 $-1 #
edge $-1 $366 -12.714537587951835 $482 12.714537587951835 $365 $554 forward 7 unknown #
vertex $-1 $480 $555 #
straight-curve $-1 -52.473525193029573 -28.312034708629017 0 0 0 -1 I I #
edge $-1 $478 -28.312034708629017 $482 28.312034708629017 $476 $556 forward 7 unknown #
straight-curve $-1 0 -28.312034708629017 -12.714537587951835 -1 0 0 I I #
vertex $-1 $358 $557 #
straight-curve $-1 0 28.312034708629017 -12.714537587951835 1 0 0 I I #
point $-1 52.473525193029573 28.312034708629017 -12.714537587951835 #
point $-1 52.473525193029573 -28.312034708629017 -12.714537587951835 #
straight-curve $-1 -52.473525193029573 0 12.714537587951835 0 -1 0 I I #
point $-1 -52.473525193029573 28.312034708629017 12.714537587951835 #
point $-1 -52.473525193029573 -28.312034708629017 12.714537587951835 #
straight-curve $-1 52.473525193029573 -28.312034708629017 0 0 0 -1 I I #
straight-curve $-1 52.473525193029573 28.312034708629017 0 0 0 -1 I I #
plane-surface $-1 52.473525193029573 0 0 -1 0 0 0 0 1 forward_v I I I I #
coedge $-1 $494 $506 $381 $498 forward $376 $-1 #
coedge $-1 $379 $378 $387 $504 reversed $160 $-1 #
coedge $-1 $558 $492 $379 $495 forward $376 $-1 #
edge $-1 $496 11.787248948891756 $559 28.312034708629017 $379 $560 forward 7 unknown #
vertex $-1 $495 $561 #
straight-curve $-1 -52.473525193029573 -11.787248948891756 5.6072687939759174 0 0 -1 I I #
edge $-1 $499 -52.473525193029573 $496 52.473525193029573 $492 $562 forward 7 unknown #
vertex $-1 $382 $563 #
straight-curve $-1 52.473525193029573 -11.787248948891756 5.6072687939759174 0 0 1 I I #
point $-1 -52.473525193029573 -11.787248948891756 9.7145375879518348 #
straight-curve $-1 -52.473525193029573 -10.024820914380193 9.7145375879518348 0 -1 0 I I #
coedge $-1 $387 $386 $558 $564 reversed $260 $-1 #
edge $-1 $559 -12.714537587951835 $388 -9.7145375879518348 $493 $565 forward 7 unknown #
point $-1 -52.473525193029573 -28.312034708629014 9.7145375879518348 #
coedge $-1 $492 $558 $390 $507 forward $376 $-1 #
edge $-1 $508 -28.312034708629017 $499 -11.787248948891756 $390 $566 forward 7 unknown #
vertex $-1 $507 $567 #
straight-curve $-1 52.473525193029573 -28.312034708629017 0 0 0 -1 I I #
coedge $-1 $405 $404 $397 $511 forward $394 $-1 #
edge $-1 $512 33.605242853563723 $515 44.567030839172624 $510 $568 forward 7 unknown #
vertex $-1 $409 $569 #
straight-curve $-1 -52.473525544535882 3.4330155338786454 12.714537587951831 -1 0 0 I I #
edge $-1 $515 -3.364826845711077 $406 3.2284494693759402 $405 $570 forward 7 unknown #
vertex $-1 $514 $571 #
straight-curve $-1 -52.473525193029573 3.4330155338786454 1.7527496023429308 0.8660253999169214 0 0.50000000669873634 I I #
point $-1 -33.487151799316081 3.4330155338786454 12.714537587951835 #
point $-1 -52.473525193029573 -3.1602607812083718 1.7527496023429308 #
straight-curve $-1 -52.473525193029573 0 12.714537587951835 0 -1 0 I I #
vertex $-1 $412 $572 #
point $-1 -41.974821439656665 -1.2764675483263659 6.492036983097635 #
vertex $-1 $416 $573 #
point $-1 -41.974821439656665 1.549222300996643 6.492036983097635 #
coedge $-1 $431 $430 $423 $525 forward $420 $-1 #
edge $-1 $526 33.605242853563723 $529 44.567030839172624 $524 $574 forward 7 unknown #
vertex $-1 $435 $575 #
straight-curve $-1 -52.473525544535882 19.685046540945628 12.714537587951831 -1 0 0 I I #
edge $-1 $529 -11.490842349244568 $432 -4.8975660341575509 $431 $576 forward 7 unknown #
vertex $-1 $528 $577 #
straight-curve $-1 -52.473525193029573 19.685046540945628 1.7527496023429308 0.8660253999169214 0 0.50000000669873634 I I #
point $-1 -33.487151799316081 19.685046540945628 12.714537587951835 #
point $-1 -52.473525193029573 13.09177022585861 1.7527496023429308 #
straight-curve $-1 -52.473525193029573 0 12.714537587951835 0 -1 0 I I #
vertex $-1 $438 $578 #
point $-1 -41.974821439656665 14.97556345874062 6.492036983097635 #
vertex $-1 $442 $579 #
point $-1 -41.974821439656665 17.801253308063625 6.492036983097635 #
coedge $-1 $456 $455 $448 $539 forward $446 $-1 #
edge $-1 $546 62.080539372627925 $541 67.873020513437794 $538 $580 forward 7 unknown #
edge $-1 $453 49.262700585405135 $546 52.473525193029573 $452 $581 forward 7 unknown #
vertex $-1 $539 $582 #
straight-curve $-1 1.594186993035791 -11.787248948891758 98.710815721165716 -0.48480960649040278 0 0.87461971476443456 I I #
edge $-1 $541 -7.6933471367938537 $457 -0.4944564874019548 $456 $583 forward 7 unknown #
point $-1 49.262700585405135 -11.787248948891758 12.714537587951838 #
point $-1 52.473525193029573 -4.5883582994998591 6.9220564471419692 #
vertex $-1 $460 $584 #
straight-curve $-1 52.473525193029573 0 12.714537587951835 0 1 0 I I #
vertex $-1 $463 $585 #
point $-1 50.114695576075512 -10.347470819013378 9.1148324823653706 #
vertex $-1 $467 $586 #
point $-1 50.114695576075512 -8.1878036241958085 9.1148324823653706 #
vertex $-1 $471 $587 #
point $-1 50.114695576075512 -6.0281364293782396 9.1148324823653706 #
straight-curve $-1 -52.473525193029573 28.312034708629017 0 0 0 -1 I I #
point $-1 -52.473525193029573 -28.312034708629017 -12.714537587951835 #
straight-curve $-1 -52.473525193029573 0 -12.714537587951835 0 1 0 I I #
point $-1 -52.473525193029573 28.312034708629017 -12.714537587951835 #
coedge $-1 $506 $494 $503 $564 forward $376 $-1 #
vertex $-1 $495 $588 #
straight-curve $-1 -52.473525193029573 0 12.714537587951835 0 -1 0 I I #
point $-1 -52.473525193029573 -11.787248948891756 12.714537587951835 #
straight-curve $-1 0 -11.787248948891756 12.714537587951835 -1 0 0 I I #
point $-1 52.473525193029573 -11.787248948891756 12.714537587951835 #
edge $-1 $559 -52.473525193029573 $508 52.473525193029573 $503 $589 forward 7 unknown #
straight-curve $-1 -52.473525193029573 -28.312034708629017 0 0 0 -1 I I #
straight-curve $-1 52.473525193029573 0 12.714537587951835 0 1 0 I I #
point $-1 52.473525193029573 -28.312034708629017 12.714537587951835 #
straight-curve $-1 -52.473525193029573 3.4330155338786454 46.319780441515555 0 0 -1 I I #
point $-1 -52.473525193029573 3.4330155338786454 12.714537587951835 #
straight-curve $-1 -52.473525193029573 0.068188688167568401 1.7527496023429325 0 -1 0 I I #
point $-1 -52.473525193029573 3.4330155338786454 1.7527496023429308 #
point $-1 -42.157834136265755 -1.2764675483263659 5.8090242797898064 #
point $-1 -42.157834136265755 1.549222300996643 5.8090242797898064 #
straight-curve $-1 -52.473525193029573 19.685046540945628 46.319780441515555 0 0 -1 I I #
point $-1 -52.473525193029573 19.685046540945628 12.714537587951835 #
straight-curve $-1 -52.473525193029573 8.1942041917010595 1.7527496023429325 0 -1 0 I I #
point $-1 -52.473525193029573 19.685046540945628 1.7527496023429308 #
point $-1 -42.157834136265755 14.97556345874062 5.8090242797898064 #
point $-1 -42.157834136265755 17.801253308063625 5.8090242797898064 #
straight-curve $-1 52.473525193029573 -11.787248948891758 74.795076960579763 0 0 -1 I I #
straight-curve $-1 0 -11.787248948891756 12.714537587951835 1 0 0 I I #
point $-1 52.473525193029573 -11.787248948891758 6.9220564471419692 #
straight-curve $-1 52.473525193029573 -4.0939018120979043 6.9220564471419763 0 1 0 I I #
point $-1 52.473525193029573 -11.787248948891756 12.714537587951835 #
point $-1 49.774838245761799 -10.347470819013378 9.2122850094338791 #
point $-1 49.774838245761799 -8.1878036241958085 9.2122850094338791 #
point $-1 49.774838245761799 -6.0281364293782396 9.2122850094338791 #
point $-1 -52.473525193029573 -28.312034708629017 12.714537587951835 #
straight-curve $-1 0 -28.312034708629017 12.714537587951835 1 0 0 I I #
End-of-ACIS-data 