500 0 7 0           
7 Unknown 11 ACIS 5.0 NT 24 Fri Mar 26 18:00:49 1999 
-1 9.9999999999999995e-007 1e-010 
body $-1 $7 $-1 $8 #
body $-1 $9 $-1 $10 #
body $-1 $11 $-1 $12 #
body $-1 $13 $-1 $14 #
body $-1 $15 $-1 $16 #
body $-1 $17 $-1 $18 #
body $-1 $19 $-1 $20 #
lump $-1 $-1 $21 $0 #
transform $-1 1 0 0 0 1 0 0 0 1 75.350199896237058 45.604267228071379 17.555840535138781 1 rotate no_reflect no_shear #
lump $-1 $-1 $22 $1 #
transform $-1 1 0 0 0 1 0 0 0 1 75.350199896237058 45.604267228071379 17.555840535138781 1 rotate no_reflect no_shear #
lump $-1 $-1 $23 $2 #
transform $-1 1 0 0 0 1 0 0 0 1 75.350199896237058 45.604267228071379 17.555840535138781 1 rotate no_reflect no_shear #
lump $-1 $-1 $24 $3 #
transform $-1 1 0 0 0 1 0 0 0 1 75.350199896237058 45.604267228071379 17.555840535138781 1 rotate no_reflect no_shear #
lump $-1 $-1 $25 $4 #
transform $-1 1 0 0 0 1 0 0 0 1 75.350199896237058 45.604267228071379 17.555840535138781 1 rotate no_reflect no_shear #
lump $-1 $-1 $26 $5 #
transform $-1 1 0 0 0 1 0 0 0 1 75.350199896237058 45.604267228071379 17.555840535138781 1 rotate no_reflect no_shear #
lump $-1 $-1 $27 $6 #
transform $-1 1 0 0 0 1 0 0 0 1 75.350199896237058 45.604267228071379 17.555840535138781 1 rotate no_reflect no_shear #
shell $-1 $-1 $-1 $28 $-1 $7 #
shell $-1 $-1 $-1 $29 $-1 $9 #
shell $-1 $-1 $-1 $30 $-1 $11 #
shell $-1 $-1 $-1 $31 $-1 $13 #
shell $-1 $-1 $-1 $32 $-1 $15 #
shell $-1 $-1 $-1 $33 $-1 $17 #
shell $-1 $-1 $-1 $34 $-1 $19 #
face $-1 $35 $36 $21 $-1 $37 reversed single #
face $-1 $38 $39 $22 $-1 $40 forward single #
face $-1 $41 $42 $23 $-1 $43 forward single #
face $-1 $44 $45 $24 $-1 $46 reversed single #
face $-1 $47 $48 $25 $-1 $49 forward single #
face $-1 $50 $51 $26 $-1 $52 forward single #
face $-1 $53 $54 $27 $-1 $55 forward single #
face $-1 $56 $57 $21 $-1 $58 forward single #
loop $-1 $-1 $59 $28 #
plane-surface $-1 75.350199896237058 0 0 -1 0 0 0 0 1 forward_v I I I I #
face $-1 $60 $61 $22 $-1 $62 reversed single #
loop $-1 $-1 $63 $29 #
plane-surface $-1 -75.350199896237058 0 0 1 0 0 0 0 -1 forward_v I I I I #
face $-1 $64 $65 $23 $-1 $66 reversed single #
loop $-1 $-1 $67 $30 #
plane-surface $-1 75.350199896237058 0 0 -1 0 0 0 0 1 forward_v I I I I #
face $-1 $68 $69 $24 $-1 $70 reversed single #
loop $-1 $-1 $71 $31 #
plane-surface $-1 8.4645755278443175 60.394486962893637 184.94373600225984 1 0 0 0 -0.5877852598018023 -0.80901698891910034 forward_v I I I I #
face $-1 $72 $73 $25 $-1 $74 forward single #
loop $-1 $75 $76 $32 #
cone-surface $-1 12.839600408310673 38.839163658408069 11.885830519915617 0 -0.5877852598018023 -0.80901698891910034 1 0 0 1 I I 0 1 1 forward I I I I #
face $-1 $77 $78 $26 $-1 $79 forward single #
loop $-1 $80 $81 $33 #
cone-surface $-1 19.402137729010192 38.839163658408069 11.885830519915617 0 -0.5877852598018023 -0.80901698891910034 1 0 0 1 I I 0 1 1 forward I I I I #
face $-1 $82 $83 $27 $-1 $84 forward single #
loop $-1 $85 $86 $34 #
cone-surface $-1 25.964675049709712 38.839163658408069 11.885830519915617 0 -0.5877852598018023 -0.80901698891910034 1 0 0 1 I I 0 1 1 forward I I I I #
face $-1 $87 $88 $21 $-1 $89 reversed single #
loop $-1 $-1 $90 $35 #
plane-surface $-1 0 0 17.555840535138781 0 0 1 1 0 0 forward_v I I I I #
coedge $-1 $91 $92 $93 $94 reversed $36 $-1 #
face $-1 $95 $96 $22 $-1 $97 forward single #
loop $-1 $-1 $98 $38 #
plane-surface $-1 0 45.604267228071379 0 0 -1 0 0 0 -1 forward_v I I I I #
coedge $-1 $99 $100 $101 $102 forward $39 $-1 #
face $-1 $103 $104 $23 $-1 $105 forward single #
loop $-1 $-1 $106 $41 #
plane-surface $-1 0 -45.604267228071379 0 0 1 0 0 0 1 forward_v I I I I #
coedge $-1 $107 $108 $109 $110 forward $42 $-1 #
face $-1 $111 $112 $24 $-1 $113 reversed single #
loop $-1 $-1 $114 $44 #
plane-surface $-1 19.402137729010192 -28.184986681361238 63.024552333247811 0 0.5877852598018023 0.80901698891910034 1 0 0 forward_v I I I I #
coedge $-1 $115 $116 $117 $118 reversed $45 $-1 #
face $-1 $-1 $119 $25 $-1 $120 forward single #
loop $-1 $121 $122 $47 #
cone-surface $-1 12.839600408310673 37.383638591329969 9.8824721719011421 0 -0.5877852598018023 -0.80901698891910034 0.5 0 0 1 I I -0.70710678118654746 0.70710678118654746 0.5 forward I I I I #
loop $-1 $-1 $123 $32 #
coedge $-1 $76 $76 $124 $125 reversed $48 $-1 #
face $-1 $-1 $126 $26 $-1 $127 forward single #
loop $-1 $128 $129 $50 #
cone-surface $-1 19.402137729010192 37.383638591329969 9.8824721719011421 0 -0.5877852598018023 -0.80901698891910034 0.5 0 0 1 I I -0.70710678118654746 0.70710678118654746 0.5 forward I I I I #
loop $-1 $-1 $130 $33 #
coedge $-1 $81 $81 $131 $132 reversed $51 $-1 #
face $-1 $-1 $133 $27 $-1 $134 forward single #
loop $-1 $135 $136 $53 #
cone-surface $-1 25.964675049709712 37.383638591329969 9.8824721719011421 0 -0.5877852598018023 -0.80901698891910034 0.5 0 0 1 I I -0.70710678118654746 0.70710678118654746 0.5 forward I I I I #
loop $-1 $-1 $137 $34 #
coedge $-1 $86 $86 $138 $139 reversed $54 $-1 #
face $-1 $140 $141 $21 $-1 $142 reversed single #
loop $-1 $-1 $143 $56 #
plane-surface $-1 0 0 -17.555840535138781 0 0 1 1 0 0 forward_v I I I I #
coedge $-1 $144 $145 $91 $146 forward $57 $-1 #
coedge $-1 $147 $59 $90 $146 reversed $36 $-1 #
coedge $-1 $59 $147 $143 $148 reversed $36 $-1 #
coedge $-1 $149 $150 $59 $94 forward $151 $-1 #
edge $-1 $152 -17.555840535138781 $153 17.555840535138781 $59 $154 forward 7 unknown #
face $-1 $155 $156 $22 $-1 $157 reversed single #
loop $-1 $-1 $101 $60 #
plane-surface $-1 -81.342358080392103 0 7.7797002843533551 0 0 1 1 0 0 forward_v I I I I #
coedge $-1 $158 $159 $100 $160 forward $61 $-1 #
coedge $-1 $161 $63 $162 $163 reversed $39 $-1 #
coedge $-1 $63 $161 $98 $160 reversed $39 $-1 #
coedge $-1 $164 $165 $63 $102 reversed $96 $-1 #
edge $-1 $166 -45.604267228071379 $167 45.604267228071379 $101 $168 forward 7 unknown #
face $-1 $169 $170 $23 $-1 $171 reversed single #
loop $-1 $-1 $172 $64 #
plane-surface $-1 81.342358080392103 0 7.7797002843533551 0 0 1 1 0 0 forward_v I I I I #
coedge $-1 $173 $174 $108 $175 forward $65 $-1 #
coedge $-1 $176 $67 $177 $178 reversed $42 $-1 #
coedge $-1 $67 $176 $106 $175 reversed $42 $-1 #
coedge $-1 $179 $180 $67 $110 reversed $104 $-1 #
edge $-1 $181 -45.604267228071379 $182 45.604267228071379 $109 $183 forward 7 unknown #
face $-1 $184 $185 $24 $-1 $186 reversed single #
loop $-1 $-1 $187 $68 #
plane-surface $-1 30.339699930176067 60.394486962893637 184.94373600225984 -1 0 0 0 0.5877852598018023 0.80901698891910034 forward_v I I I I #
coedge $-1 $188 $189 $190 $191 reversed $69 $-1 #
coedge $-1 $116 $71 $192 $193 reversed $45 $-1 #
coedge $-1 $71 $115 $188 $194 reversed $45 $-1 #
coedge $-1 $190 $195 $71 $118 forward $196 $-1 #
edge $-1 $197 -15.40702374662456 $198 -4.2000814816523757 $117 $199 forward 7 unknown #
loop $-1 $-1 $124 $72 #
plane-surface $-1 19.402137729010192 -28.184986681361238 63.024552333247811 0 0.5877852598018023 0.80901698891910034 1 0 0 forward_v I I I I #
loop $-1 $-1 $200 $47 #
coedge $-1 $122 $122 $123 $201 reversed $73 $-1 #
coedge $-1 $123 $123 $122 $201 forward $75 $-1 #
coedge $-1 $124 $124 $76 $125 forward $119 $-1 #
edge $-1 $202 4.692752217646084e-015 $202 6.2831853071796049 $124 $203 forward 7 unknown #
loop $-1 $-1 $131 $77 #
plane-surface $-1 19.402137729010192 -28.184986681361238 63.024552333247811 0 0.5877852598018023 0.80901698891910034 1 0 0 forward_v I I I I #
loop $-1 $-1 $204 $50 #
coedge $-1 $129 $129 $130 $205 reversed $78 $-1 #
coedge $-1 $130 $130 $129 $205 forward $80 $-1 #
coedge $-1 $131 $131 $81 $132 forward $126 $-1 #
edge $-1 $206 4.692752217646084e-015 $206 6.2831853071796049 $131 $207 forward 7 unknown #
loop $-1 $-1 $138 $82 #
plane-surface $-1 19.402137729010192 -28.184986681361238 63.024552333247811 0 0.5877852598018023 0.80901698891910034 1 0 0 forward_v I I I I #
loop $-1 $-1 $208 $53 #
coedge $-1 $136 $136 $137 $209 reversed $83 $-1 #
coedge $-1 $137 $137 $136 $209 forward $85 $-1 #
coedge $-1 $138 $138 $86 $139 forward $133 $-1 #
edge $-1 $210 4.692752217646084e-015 $210 6.2831853071796049 $138 $211 forward 7 unknown #
face $-1 $212 $213 $21 $-1 $214 reversed single #
loop $-1 $-1 $215 $87 #
plane-surface $-1 0 -45.604267228071379 0 0 1 0 0 0 1 forward_v I I I I #
coedge $-1 $216 $217 $92 $148 forward $88 $-1 #
coedge $-1 $218 $90 $150 $219 forward $57 $-1 #
coedge $-1 $90 $218 $220 $221 forward $57 $-1 #
edge $-1 $222 -45.604267228071379 $152 45.604267228071379 $91 $223 forward 7 unknown #
coedge $-1 $92 $91 $224 $225 forward $36 $-1 #
edge $-1 $153 -45.604267228071379 $226 45.604267228071379 $92 $227 forward 7 unknown #
coedge $-1 $228 $93 $217 $229 reversed $151 $-1 #
coedge $-1 $93 $228 $144 $219 reversed $151 $-1 #
loop $-1 $-1 $93 $212 #
vertex $-1 $146 $230 #
vertex $-1 $148 $231 #
straight-curve $-1 75.350199896237058 45.604267228071379 0 0 0 -1 I I #
face $-1 $232 $233 $22 $-1 $234 reversed single #
loop $-1 $-1 $235 $95 #
plane-surface $-1 -81.342358080392103 0 0.71589484646228208 0 0 1 1 0 0 forward_v I I I I #
coedge $-1 $236 $98 $237 $238 reversed $61 $-1 #
coedge $-1 $98 $236 $164 $239 reversed $61 $-1 #
edge $-1 $166 -7.7797002843533551 $240 -0.71589484646228208 $98 $241 forward 7 unknown #
coedge $-1 $100 $99 $235 $242 forward $39 $-1 #
coedge $-1 $243 $244 $99 $163 forward $245 $-1 #
edge $-1 $246 0.71589484646228208 $167 7.7797002843533551 $162 $247 forward 7 unknown #
coedge $-1 $248 $101 $159 $239 forward $96 $-1 #
coedge $-1 $101 $248 $243 $249 forward $96 $-1 #
vertex $-1 $160 $250 #
vertex $-1 $249 $251 #
straight-curve $-1 -75.350199896237058 0 7.7797002843533551 0 -1 0 I I #
face $-1 $252 $253 $23 $-1 $254 reversed single #
loop $-1 $-1 $255 $103 #
plane-surface $-1 81.342358080392103 0 0.71589484646228208 0 0 1 1 0 0 forward_v I I I I #
coedge $-1 $180 $179 $256 $257 forward $104 $-1 #
coedge $-1 $258 $106 $259 $260 reversed $65 $-1 #
coedge $-1 $106 $258 $179 $261 reversed $65 $-1 #
edge $-1 $181 -7.7797002843533551 $262 -0.71589484646228208 $106 $263 forward 7 unknown #
coedge $-1 $108 $107 $264 $265 forward $42 $-1 #
coedge $-1 $266 $267 $107 $178 forward $268 $-1 #
edge $-1 $269 0.71589484646228208 $182 7.7797002843533551 $177 $270 forward 7 unknown #
coedge $-1 $172 $109 $174 $261 forward $104 $-1 #
coedge $-1 $109 $172 $266 $271 forward $104 $-1 #
vertex $-1 $175 $272 #
vertex $-1 $271 $273 #
straight-curve $-1 75.350199896237058 0 7.7797002843533551 0 1 0 I I #
face $-1 $-1 $196 $24 $-1 $274 forward single #
loop $-1 $-1 $275 $111 #
plane-surface $-1 0 45.604267228071379 0 0 -1 0 0 0 -1 forward_v I I I I #
coedge $-1 $276 $277 $278 $279 reversed $112 $-1 #
coedge $-1 $280 $114 $116 $194 forward $69 $-1 #
coedge $-1 $114 $280 $276 $281 forward $69 $-1 #
coedge $-1 $278 $117 $114 $191 forward $196 $-1 #
edge $-1 $198 -1.2364933366607787 $282 20.638631065670971 $190 $283 forward 7 unknown #
coedge $-1 $284 $285 $115 $193 forward $185 $-1 #
edge $-1 $286 -83.058347789327598 $197 -74.916027465991135 $192 $287 forward 7 unknown #
edge $-1 $198 77.355991903302922 $286 91.208534456142729 $116 $288 forward 7 unknown #
coedge $-1 $117 $278 $284 $289 forward $196 $-1 #
loop $-1 $-1 $278 $184 #
vertex $-1 $193 $290 #
vertex $-1 $118 $291 #
straight-curve $-1 8.4645755278443175 30.197243481446819 17.555840535138785 0 -1 0 I I #
coedge $-1 $200 $200 $-1 $292 reversed $121 $-1 #
edge $-1 $293 0 $293 6.2831853071796004 $122 $294 forward 7 unknown #
vertex $-1 $125 $295 #
ellipse-curve $-1 12.839600408310673 40.000796095585279 13.484680373470558 0 0.5877852598018023 0.80901698891910034 1 0 0 1 I I #
coedge $-1 $204 $204 $-1 $296 reversed $128 $-1 #
edge $-1 $297 0 $297 6.2831853071796004 $129 $298 forward 7 unknown #
vertex $-1 $132 $299 #
ellipse-curve $-1 19.402137729010192 40.000796095585279 13.484680373470558 0 0.5877852598018023 0.80901698891910034 1 0 0 1 I I #
coedge $-1 $208 $208 $-1 $300 reversed $135 $-1 #
edge $-1 $301 0 $301 6.2831853071796004 $136 $302 forward 7 unknown #
vertex $-1 $139 $303 #
ellipse-curve $-1 25.964675049709712 40.000796095585279 13.484680373470558 0 0.5877852598018023 0.80901698891910034 1 0 0 1 I I #
face $-1 $-1 $151 $21 $-1 $304 reversed single #
loop $-1 $-1 $305 $140 #
plane-surface $-1 -75.350199896237058 0 0 1 0 0 0 0 -1 forward_v I I I I #
coedge $-1 $306 $220 $305 $307 forward $141 $-1 #
coedge $-1 $308 $143 $306 $309 forward $88 $-1 #
coedge $-1 $143 $308 $149 $229 forward $88 $-1 #
coedge $-1 $145 $144 $310 $311 forward $57 $-1 #
edge $-1 $152 -75.350199896237058 $312 75.350199896237058 $150 $313 forward 7 unknown #
coedge $-1 $215 $224 $145 $221 reversed $141 $-1 #
edge $-1 $314 -75.350199896237058 $222 75.350199896237058 $220 $315 forward 7 unknown #
vertex $-1 $146 $316 #
straight-curve $-1 75.350199896237058 0 17.555840535138781 0 1 0 I I #
coedge $-1 $220 $306 $147 $225 reversed $141 $-1 #
edge $-1 $222 -17.555840535138781 $226 17.555840535138781 $147 $317 forward 7 unknown #
vertex $-1 $225 $318 #
straight-curve $-1 75.350199896237058 0 -17.555840535138781 0 -1 0 I I #
coedge $-1 $150 $149 $319 $320 reversed $151 $-1 #
edge $-1 $321 -75.350199896237058 $153 75.350199896237058 $149 $322 forward 7 unknown #
point $-1 75.350199896237058 45.604267228071379 17.555840535138781 #
point $-1 75.350199896237058 45.604267228071379 -17.555840535138781 #
face $-1 $-1 $245 $22 $-1 $323 reversed single #
loop $-1 $-1 $324 $155 #
plane-surface $-1 -87.334516264547148 0 4.2477975654078186 1 0 0 0 0 -1 forward_v I I I I #
coedge $-1 $325 $237 $161 $242 reversed $156 $-1 #
coedge $-1 $159 $158 $324 $326 reversed $61 $-1 #
coedge $-1 $235 $327 $158 $238 forward $156 $-1 #
edge $-1 $328 -5.9921581841550449 $240 5.9921581841550449 $158 $329 forward 7 unknown #
edge $-1 $166 -5.9921581841550449 $330 5.9921581841550449 $159 $331 forward 7 unknown #
vertex $-1 $160 $332 #
straight-curve $-1 -75.350199896237058 45.604267228071379 0 0 0 -1 I I #
edge $-1 $246 -45.604267228071379 $240 45.604267228071379 $235 $333 forward 7 unknown #
coedge $-1 $334 $162 $165 $249 reversed $245 $-1 #
coedge $-1 $162 $334 $325 $335 reversed $245 $-1 #
loop $-1 $-1 $162 $232 #
vertex $-1 $163 $336 #
straight-curve $-1 -75.350199896237058 -45.604267228071379 0 0 0 1 I I #
coedge $-1 $165 $164 $337 $338 forward $96 $-1 #
edge $-1 $339 -5.9921581841550449 $167 5.9921581841550449 $243 $340 forward 7 unknown #
point $-1 -75.350199896237058 45.604267228071379 7.7797002843533551 #
point $-1 -75.350199896237058 -45.604267228071379 7.7797002843533551 #
face $-1 $-1 $268 $23 $-1 $341 reversed single #
loop $-1 $-1 $342 $169 #
plane-surface $-1 87.334516264547148 0 4.2477975654078186 -1 0 0 0 0 1 forward_v I I I I #
coedge $-1 $259 $343 $344 $345 forward $170 $-1 #
coedge $-1 $342 $346 $172 $257 reversed $253 $-1 #
edge $-1 $347 -45.604267228071379 $348 45.604267228071379 $256 $349 forward 7 unknown #
coedge $-1 $174 $173 $342 $350 reversed $65 $-1 #
coedge $-1 $264 $255 $173 $260 forward $170 $-1 #
edge $-1 $351 -5.9921581841550449 $262 5.9921581841550449 $173 $352 forward 7 unknown #
edge $-1 $181 -5.9921581841550449 $347 5.9921581841550449 $174 $353 forward 7 unknown #
vertex $-1 $175 $354 #
straight-curve $-1 75.350199896237058 -45.604267228071379 0 0 0 -1 I I #
coedge $-1 $343 $259 $176 $265 reversed $170 $-1 #
edge $-1 $269 -45.604267228071379 $262 45.604267228071379 $264 $355 forward 7 unknown #
coedge $-1 $356 $177 $180 $271 reversed $268 $-1 #
coedge $-1 $177 $356 $343 $357 reversed $268 $-1 #
loop $-1 $-1 $177 $252 #
vertex $-1 $178 $358 #
straight-curve $-1 75.350199896237058 45.604267228071379 0 0 0 1 I I #
edge $-1 $348 -5.9921581841550449 $182 5.9921581841550449 $266 $359 forward 7 unknown #
point $-1 75.350199896237058 -45.604267228071379 7.7797002843533551 #
point $-1 75.350199896237058 45.604267228071379 7.7797002843533551 #
plane-surface $-1 0 0 17.555840535138781 0 0 1 1 0 0 forward_v I I I I #
coedge $-1 $285 $284 $277 $360 forward $185 $-1 #
coedge $-1 $277 $187 $189 $281 reversed $112 $-1 #
coedge $-1 $187 $276 $275 $360 reversed $112 $-1 #
coedge $-1 $195 $190 $187 $279 forward $196 $-1 #
edge $-1 $282 4.2000814816523757 $361 15.40702374662456 $278 $362 forward 7 unknown #
coedge $-1 $189 $188 $285 $363 reversed $69 $-1 #
edge $-1 $364 -91.208534456142729 $282 -77.355991903302922 $276 $365 forward 7 unknown #
vertex $-1 $191 $366 #
straight-curve $-1 9.7010688645050962 34.397324963099209 17.555840535138785 1 0 0 I I #
coedge $-1 $275 $192 $195 $289 reversed $185 $-1 #
coedge $-1 $192 $275 $280 $363 forward $185 $-1 #
vertex $-1 $193 $367 #
straight-curve $-1 8.4645755278443175 45.604267228071379 92.47186800112992 0 0 1 I I #
straight-curve $-1 8.4645755278443175 -28.184986681361238 63.024552333247811 0 0.80901698891910034 -0.5877852598018023 I I #
edge $-1 $361 -30.339699930176067 $197 -8.4645755278443175 $284 $368 forward 7 unknown #
point $-1 8.4645755278443175 45.604267228071379 17.555840535138781 #
point $-1 8.4645755278443175 34.397324963099194 17.555840535138792 #
edge $-1 $369 1 $369 0 $200 $-1 forward 7 unknown #
vertex $-1 $201 $370 #
ellipse-curve $-1 12.839600408310673 37.677531221230872 10.286980666360693 0 0.5877852598018023 0.80901698891910034 1 0 0 1 I I #
point $-1 13.839600408310673 40.000796095585272 13.484680373470541 #
edge $-1 $371 1 $371 0 $204 $-1 forward 7 unknown #
vertex $-1 $205 $372 #
ellipse-curve $-1 19.402137729010192 37.677531221230872 10.286980666360693 0 0.5877852598018023 0.80901698891910034 1 0 0 1 I I #
point $-1 20.402137729010192 40.000796095585272 13.484680373470541 #
edge $-1 $373 1 $373 0 $208 $-1 forward 7 unknown #
vertex $-1 $209 $374 #
ellipse-curve $-1 25.964675049709712 37.677531221230872 10.286980666360693 0 0.5877852598018023 0.80901698891910034 1 0 0 1 I I #
point $-1 26.964675049709712 40.000796095585272 13.484680373470541 #
plane-surface $-1 0 45.604267228071379 0 0 -1 0 0 0 -1 forward_v I I I I #
coedge $-1 $310 $375 $215 $307 reversed $213 $-1 #
coedge $-1 $224 $215 $216 $309 reversed $141 $-1 #
edge $-1 $314 -17.555840535138781 $376 17.555840535138781 $305 $377 forward 7 unknown #
coedge $-1 $217 $216 $375 $378 forward $88 $-1 #
edge $-1 $226 -75.350199896237058 $376 75.350199896237058 $306 $379 forward 7 unknown #
coedge $-1 $319 $305 $218 $311 reversed $213 $-1 #
edge $-1 $312 -45.604267228071379 $314 45.604267228071379 $310 $380 forward 7 unknown #
vertex $-1 $219 $381 #
straight-curve $-1 0 45.604267228071379 17.555840535138781 -1 0 0 I I #
vertex $-1 $311 $382 #
straight-curve $-1 0 -45.604267228071379 17.555840535138781 1 0 0 I I #
point $-1 75.350199896237058 -45.604267228071379 17.555840535138781 #
straight-curve $-1 75.350199896237058 -45.604267228071379 0 0 0 -1 I I #
point $-1 75.350199896237058 -45.604267228071379 -17.555840535138781 #
coedge $-1 $375 $310 $228 $320 forward $213 $-1 #
edge $-1 $312 -17.555840535138781 $321 17.555840535138781 $228 $383 forward 7 unknown #
vertex $-1 $229 $384 #
straight-curve $-1 0 45.604267228071379 -17.555840535138781 1 0 0 I I #
plane-surface $-1 0 -45.604267228071379 0 0 1 0 0 0 1 forward_v I I I I #
coedge $-1 $385 $337 $236 $326 forward $233 $-1 #
coedge $-1 $327 $235 $244 $335 forward $156 $-1 #
edge $-1 $330 -3.5319027189455365 $328 3.5319027189455365 $236 $386 forward 7 unknown #
coedge $-1 $237 $325 $385 $387 forward $156 $-1 #
vertex $-1 $238 $388 #
straight-curve $-1 -81.342358080392103 45.604267228071379 0.71589484646228208 1 0 0 I I #
vertex $-1 $239 $389 #
straight-curve $-1 -81.342358080392103 45.604267228071379 7.7797002843533551 -1 0 0 I I #
point $-1 -75.350199896237058 45.604267228071379 0.71589484646228208 #
straight-curve $-1 -75.350199896237058 0 0.71589484646228208 0 1 0 I I #
coedge $-1 $244 $243 $390 $391 forward $245 $-1 #
edge $-1 $246 -5.9921581841550449 $392 5.9921581841550449 $244 $393 forward 7 unknown #
point $-1 -75.350199896237058 -45.604267228071379 0.71589484646228208 #
coedge $-1 $324 $390 $248 $338 reversed $233 $-1 #
edge $-1 $330 -45.604267228071379 $339 45.604267228071379 $337 $394 forward 7 unknown #
vertex $-1 $338 $395 #
straight-curve $-1 -81.342358080392103 -45.604267228071379 7.7797002843533551 1 0 0 I I #
plane-surface $-1 0 45.604267228071379 0 0 -1 0 0 0 -1 forward_v I I I I #
coedge $-1 $344 $256 $258 $350 forward $253 $-1 #
coedge $-1 $255 $264 $267 $357 forward $170 $-1 #
coedge $-1 $346 $342 $255 $345 reversed $253 $-1 #
edge $-1 $396 -45.604267228071379 $351 45.604267228071379 $344 $397 forward 7 unknown #
coedge $-1 $256 $344 $356 $398 reversed $253 $-1 #
vertex $-1 $257 $399 #
vertex $-1 $257 $400 #
straight-curve $-1 87.334516264547148 0 7.7797002843533551 0 1 0 I I #
edge $-1 $347 -3.5319027189455365 $351 3.5319027189455365 $342 $401 forward 7 unknown #
vertex $-1 $350 $402 #
straight-curve $-1 81.342358080392103 -45.604267228071379 0.71589484646228208 -1 0 0 I I #
straight-curve $-1 81.342358080392103 -45.604267228071379 7.7797002843533551 1 0 0 I I #
point $-1 75.350199896237058 -45.604267228071379 0.71589484646228208 #
straight-curve $-1 75.350199896237058 0 0.71589484646228208 0 -1 0 I I #
coedge $-1 $267 $266 $346 $398 forward $268 $-1 #
edge $-1 $269 -5.9921581841550449 $396 5.9921581841550449 $267 $403 forward 7 unknown #
point $-1 75.350199896237058 45.604267228071379 0.71589484646228208 #
straight-curve $-1 81.342358080392103 45.604267228071379 7.7797002843533551 -1 0 0 I I #
edge $-1 $361 74.916027465991135 $364 83.058347789327598 $275 $404 forward 7 unknown #
vertex $-1 $289 $405 #
straight-curve $-1 30.339699930176067 30.197243481446819 17.555840535138785 0 1 0 I I #
edge $-1 $364 -20.638631065670971 $286 1.2364933366607787 $285 $406 forward 7 unknown #
vertex $-1 $363 $407 #
straight-curve $-1 30.339699930176067 -28.184986681361238 63.024552333247811 0 -0.80901698891910034 0.5877852598018023 I I #
point $-1 30.339699930176067 34.397324963099194 17.555840535138792 #
point $-1 8.4645755278443175 45.604267228071379 9.4135202118023145 #
straight-curve $-1 0 45.604267228071379 17.555840535138781 -1 0 0 I I #
vertex $-1 $292 $408 #
point $-1 13.839600408310673 37.677531221230872 10.286980666360693 #
vertex $-1 $296 $409 #
point $-1 20.402137729010192 37.677531221230872 10.286980666360693 #
vertex $-1 $300 $410 #
point $-1 26.964675049709712 37.677531221230872 10.286980666360693 #
coedge $-1 $305 $319 $308 $378 reversed $213 $-1 #
vertex $-1 $378 $411 #
straight-curve $-1 -75.350199896237058 -45.604267228071379 0 0 0 -1 I I #
edge $-1 $376 -45.604267228071379 $321 45.604267228071379 $375 $412 forward 7 unknown #
straight-curve $-1 0 -45.604267228071379 -17.555840535138781 -1 0 0 I I #
straight-curve $-1 -75.350199896237058 0 17.555840535138781 0 -1 0 I I #
point $-1 -75.350199896237058 45.604267228071379 17.555840535138781 #
point $-1 -75.350199896237058 -45.604267228071379 17.555840535138781 #
straight-curve $-1 -75.350199896237058 45.604267228071379 0 0 0 -1 I I #
point $-1 -75.350199896237058 45.604267228071379 -17.555840535138781 #
coedge $-1 $390 $324 $327 $387 reversed $233 $-1 #
straight-curve $-1 -87.334516264547148 45.604267228071379 4.2477975654078186 0 0 -1 I I #
edge $-1 $392 -45.604267228071379 $328 45.604267228071379 $385 $413 forward 7 unknown #
point $-1 -87.334516264547148 45.604267228071379 0.71589484646228208 #
point $-1 -87.334516264547148 45.604267228071379 7.7797002843533551 #
coedge $-1 $337 $385 $334 $391 reversed $233 $-1 #
edge $-1 $339 -3.5319027189455365 $392 3.5319027189455365 $390 $414 forward 7 unknown #
vertex $-1 $387 $415 #
straight-curve $-1 -81.342358080392103 -45.604267228071379 0.71589484646228208 -1 0 0 I I #
straight-curve $-1 -87.334516264547148 0 7.7797002843533551 0 -1 0 I I #
point $-1 -87.334516264547148 -45.604267228071379 7.7797002843533551 #
vertex $-1 $345 $416 #
straight-curve $-1 87.334516264547148 0 0.71589484646228208 0 -1 0 I I #
edge $-1 $348 -3.5319027189455365 $396 3.5319027189455365 $346 $417 forward 7 unknown #
point $-1 87.334516264547148 -45.604267228071379 7.7797002843533551 #
point $-1 87.334516264547148 45.604267228071379 7.7797002843533551 #
straight-curve $-1 87.334516264547148 -45.604267228071379 4.2477975654078186 0 0 -1 I I #
point $-1 87.334516264547148 -45.604267228071379 0.71589484646228208 #
straight-curve $-1 81.342358080392103 45.604267228071379 0.71589484646228208 1 0 0 I I #
straight-curve $-1 30.339699930176067 45.604267228071379 92.47186800112992 0 0 -1 I I #
point $-1 30.339699930176067 45.604267228071379 17.555840535138781 #
straight-curve $-1 9.7010688645050962 45.604267228071379 9.4135202118023145 -1 0 0 I I #
point $-1 30.339699930176067 45.604267228071379 9.4135202118023145 #
point $-1 12.839600408310673 37.089745961429067 9.4779636774415916 #
point $-1 19.402137729010192 37.089745961429067 9.4779636774415916 #
point $-1 25.964675049709712 37.089745961429067 9.4779636774415916 #
point $-1 -75.350199896237058 -45.604267228071379 -17.555840535138781 #
straight-curve $-1 -75.350199896237058 0 -17.555840535138781 0 1 0 I I #
straight-curve $-1 -87.334516264547148 0 0.71589484646228208 0 1 0 I I #
straight-curve $-1 -87.334516264547148 -45.604267228071379 4.2477975654078186 0 0 -1 I I #
point $-1 -87.334516264547148 -45.604267228071379 0.71589484646228208 #
point $-1 87.334516264547148 45.604267228071379 0.71589484646228208 #
straight-curve $-1 87.334516264547148 45.604267228071379 4.2477975654078186 0 0 -1 I I #
End-of-ACIS-data 