500 0 7 0           
7 Unknown 11 ACIS 5.0 NT 24 Fri Mar 26 00:51:02 1999 
-1 9.9999999999999995e-007 1e-010 
body $-1 $7 $-1 $8 #
body $-1 $9 $-1 $10 #
body $-1 $11 $-1 $12 #
body $-1 $13 $-1 $14 #
body $-1 $15 $-1 $16 #
body $-1 $17 $-1 $18 #
body $-1 $19 $-1 $20 #
lump $-1 $-1 $21 $0 #
transform $-1 1 0 0 0 1 0 0 0 1 76.454969939268167 46.319807328817703 14.74948080959963 1 rotate no_reflect no_shear #
lump $-1 $-1 $22 $1 #
transform $-1 1 0 0 0 1 0 0 0 1 76.454969939268167 46.319807328817703 14.74948080959963 1 rotate no_reflect no_shear #
lump $-1 $-1 $23 $2 #
transform $-1 1 0 0 0 1 0 0 0 1 76.454969939268167 46.319807328817703 14.74948080959963 1 rotate no_reflect no_shear #
lump $-1 $-1 $24 $3 #
transform $-1 1 0 0 0 1 0 0 0 1 76.454969939268167 46.319807328817703 14.74948080959963 1 rotate no_reflect no_shear #
lump $-1 $-1 $25 $4 #
transform $-1 1 0 0 0 1 0 0 0 1 76.454969939268167 46.319807328817703 14.74948080959963 1 rotate no_reflect no_shear #
lump $-1 $-1 $26 $5 #
transform $-1 1 0 0 0 1 0 0 0 1 76.454969939268167 46.319807328817703 14.74948080959963 1 rotate no_reflect no_shear #
lump $-1 $-1 $27 $6 #
transform $-1 1 0 0 0 1 0 0 0 1 76.454969939268167 46.319807328817703 14.74948080959963 1 rotate no_reflect no_shear #
shell $-1 $-1 $-1 $28 $-1 $7 #
shell $-1 $-1 $-1 $29 $-1 $9 #
shell $-1 $-1 $-1 $30 $-1 $11 #
shell $-1 $-1 $-1 $31 $-1 $13 #
shell $-1 $-1 $-1 $32 $-1 $15 #
shell $-1 $-1 $-1 $33 $-1 $17 #
shell $-1 $-1 $-1 $34 $-1 $19 #
face $-1 $35 $36 $21 $-1 $37 forward single #
face $-1 $38 $39 $22 $-1 $40 forward single #
face $-1 $41 $42 $23 $-1 $43 forward single #
face $-1 $44 $45 $24 $-1 $46 reversed single #
face $-1 $47 $48 $25 $-1 $49 forward single #
face $-1 $50 $51 $26 $-1 $52 reversed single #
face $-1 $53 $54 $27 $-1 $55 forward single #
face $-1 $56 $57 $21 $-1 $58 reversed single #
loop $-1 $-1 $59 $28 #
plane-surface $-1 0 0 14.74948080959963 0 0 1 1 0 0 forward_v I I I I #
face $-1 $60 $61 $22 $-1 $62 reversed single #
loop $-1 $-1 $63 $29 #
plane-surface $-1 0 -46.319807328817703 0 0 1 0 0 0 1 forward_v I I I I #
face $-1 $64 $65 $23 $-1 $66 reversed single #
loop $-1 $-1 $67 $30 #
plane-surface $-1 0 46.319807328817703 0 0 -1 0 0 0 -1 forward_v I I I I #
face $-1 $68 $69 $24 $-1 $70 reversed single #
loop $-1 $-1 $71 $31 #
plane-surface $-1 -184.57862659271879 -32.186179348725254 108.2581203849647 0 1 0 -0.70710678939079041 0 0.70710677298230451 forward_v I I I I #
face $-1 $72 $73 $25 $-1 $74 forward single #
loop $-1 $75 $76 $32 #
cone-surface $-1 -67.471679941219222 -22.645840992315023 5.7661906808659511 0.70710678939079041 0 -0.70710677298230451 1.0606601594734568 0 1.0606601840861856 1 I I 0 1 1.5 forward I I I I #
face $-1 $77 $78 $26 $-1 $79 reversed single #
loop $-1 $-1 $80 $33 #
plane-surface $-1 121.41531707069281 -18.969286816334808 212.25435963975485 0 -1 0 -0.83867057594974714 0 -0.54463902268945019 forward_v I I I I #
face $-1 $81 $82 $27 $-1 $83 forward single #
loop $-1 $84 $85 $34 #
cone-surface $-1 70.259392553570819 -25.577733082530031 6.6732484009521773 -0.83867057594974714 0 -0.54463902268945019 0.81695853403417529 0 -1.2580058639246208 1 I I 0 1 1.5 forward I I I I #
face $-1 $86 $87 $21 $-1 $88 reversed single #
loop $-1 $-1 $89 $35 #
plane-surface $-1 0 0 -14.74948080959963 0 0 1 1 0 0 forward_v I I I I #
coedge $-1 $90 $91 $92 $93 forward $36 $-1 #
face $-1 $94 $95 $22 $-1 $96 forward single #
loop $-1 $-1 $97 $38 #
plane-surface $-1 -76.454969939268167 0 0 1 0 0 0 0 -1 forward_v I I I I #
coedge $-1 $98 $99 $100 $101 forward $39 $-1 #
face $-1 $102 $103 $23 $-1 $104 forward single #
loop $-1 $-1 $105 $41 #
plane-surface $-1 76.454969939268167 0 0 -1 0 0 0 0 1 forward_v I I I I #
coedge $-1 $106 $107 $108 $109 forward $42 $-1 #
face $-1 $110 $111 $24 $-1 $112 reversed single #
loop $-1 $-1 $113 $44 #
plane-surface $-1 -76.454969939268196 -22.645840992315026 0.13446624053469236 -0.70710678939079041 0 0.70710677298230451 0.70710677298230451 0 0.70710678939079041 forward_v I I I I #
coedge $-1 $114 $115 $116 $117 reversed $45 $-1 #
face $-1 $-1 $118 $25 $-1 $119 forward single #
loop $-1 $120 $121 $47 #
cone-surface $-1 -65.265566966088215 -22.645840992315023 3.5600777569280186 0.70710678939079041 0 -0.70710677298230451 0.53033007973672841 0 0.53033009204309278 1 I I -0.70710678118654757 0.70710678118654757 0.75 forward I I I I #
loop $-1 $-1 $122 $32 #
coedge $-1 $76 $76 $123 $124 reversed $48 $-1 #
face $-1 $125 $126 $26 $-1 $127 reversed single #
loop $-1 $-1 $128 $50 #
plane-surface $-1 -6.8257502756804769 -25.577733082530031 128.97363942480624 0.83867057594974714 0 0.54463902268945019 0.54463902268945019 0 -0.83867057594974714 forward_v I I I I #
coedge $-1 $129 $130 $131 $132 reversed $51 $-1 #
face $-1 $-1 $133 $27 $-1 $134 forward single #
loop $-1 $135 $136 $53 #
cone-surface $-1 67.986155571060706 -25.577733082530031 5.1969910908709824 -0.83867057594974714 0 -0.54463902268945019 0.40847926701708764 0 -0.62900293196231039 1 I I -0.70710678118654757 0.70710678118654757 0.75 forward I I I I #
loop $-1 $-1 $137 $34 #
coedge $-1 $85 $85 $138 $139 reversed $54 $-1 #
face $-1 $140 $141 $21 $-1 $142 reversed single #
loop $-1 $-1 $143 $56 #
plane-surface $-1 0 -46.319807328817703 0 0 1 0 0 0 1 forward_v I I I I #
coedge $-1 $144 $145 $146 $147 forward $57 $-1 #
coedge $-1 $148 $59 $149 $150 forward $36 $-1 #
coedge $-1 $59 $148 $151 $152 forward $36 $-1 #
coedge $-1 $153 $154 $59 $93 reversed $155 $-1 #
edge $-1 $156 -46.319807328817703 $157 46.319807328817703 $92 $158 forward 7 unknown #
face $-1 $159 $160 $22 $-1 $161 reversed single #
loop $-1 $-1 $162 $60 #
plane-surface $-1 0 -53.386621318863931 2.4791765646036064 0 0 1 1 0 0 forward_v I I I I #
coedge $-1 $163 $164 $99 $165 forward $61 $-1 #
coedge $-1 $166 $63 $167 $168 reversed $39 $-1 #
coedge $-1 $63 $166 $97 $165 reversed $39 $-1 #
coedge $-1 $169 $162 $63 $101 reversed $95 $-1 #
edge $-1 $170 -76.454969939268167 $171 76.454969939268167 $100 $172 forward 7 unknown #
face $-1 $173 $174 $23 $-1 $175 reversed single #
loop $-1 $-1 $176 $64 #
plane-surface $-1 0 53.386621318863931 2.4791765646036064 0 0 1 1 0 0 forward_v I I I I #
coedge $-1 $177 $178 $107 $179 forward $65 $-1 #
coedge $-1 $180 $67 $181 $182 reversed $42 $-1 #
coedge $-1 $67 $180 $105 $179 reversed $42 $-1 #
coedge $-1 $176 $183 $67 $109 reversed $103 $-1 #
edge $-1 $184 -76.454969939268167 $185 76.454969939268167 $108 $186 forward 7 unknown #
face $-1 $187 $188 $24 $-1 $189 reversed single #
loop $-1 $-1 $190 $68 #
plane-surface $-1 -184.57862659271879 -13.105502635904799 108.2581203849647 0 -1 0 0.70710678939079041 0 -0.70710677298230451 forward_v I I I I #
coedge $-1 $191 $192 $193 $194 reversed $69 $-1 #
coedge $-1 $115 $71 $195 $196 reversed $45 $-1 #
coedge $-1 $71 $114 $191 $197 reversed $45 $-1 #
coedge $-1 $193 $198 $71 $117 forward $199 $-1 #
edge $-1 $200 15.834343357091228 $201 30.449357587013218 $116 $202 forward 7 unknown #
loop $-1 $-1 $123 $72 #
plane-surface $-1 -76.454969939268196 -22.645840992315026 0.13446624053469236 -0.70710678939079041 0 0.70710677298230451 0.70710677298230451 0 0.70710678939079041 forward_v I I I I #
loop $-1 $-1 $203 $47 #
coedge $-1 $121 $121 $122 $204 reversed $73 $-1 #
coedge $-1 $122 $122 $121 $204 forward $75 $-1 #
coedge $-1 $123 $123 $76 $124 forward $118 $-1 #
edge $-1 $205 0 $205 6.2831853071796004 $123 $206 forward 7 unknown #
face $-1 $207 $208 $26 $-1 $209 forward single #
loop $-1 $-1 $210 $77 #
plane-surface $-1 121.41531707069281 -32.186179348725254 212.25435963975485 0 1 0 0.83867057594974714 0 0.54463902268945019 forward_v I I I I #
coedge $-1 $211 $212 $213 $214 reversed $78 $-1 #
coedge $-1 $130 $80 $215 $216 reversed $51 $-1 #
coedge $-1 $80 $129 $211 $217 reversed $51 $-1 #
coedge $-1 $213 $218 $80 $132 forward $208 $-1 #
edge $-1 $219 -15.747311403921763 $220 -6.6446247336226278 $131 $221 forward 7 unknown #
loop $-1 $-1 $138 $81 #
plane-surface $-1 -6.8257502756804769 -25.577733082530031 128.97363942480624 0.83867057594974714 0 0.54463902268945019 0.54463902268945019 0 -0.83867057594974714 forward_v I I I I #
loop $-1 $-1 $222 $53 #
coedge $-1 $136 $136 $137 $223 reversed $82 $-1 #
coedge $-1 $137 $137 $136 $223 forward $84 $-1 #
coedge $-1 $138 $138 $85 $139 forward $133 $-1 #
edge $-1 $224 0 $224 6.2831853071796004 $138 $225 forward 7 unknown #
face $-1 $226 $227 $21 $-1 $228 reversed single #
loop $-1 $-1 $229 $86 #
plane-surface $-1 -76.454969939268167 0 0 1 0 0 0 0 -1 forward_v I I I I #
coedge $-1 $230 $151 $231 $232 forward $87 $-1 #
coedge $-1 $233 $89 $230 $234 forward $57 $-1 #
coedge $-1 $89 $233 $235 $236 forward $57 $-1 #
coedge $-1 $154 $153 $89 $147 reversed $155 $-1 #
edge $-1 $237 -46.319807328817703 $238 46.319807328817703 $146 $239 forward 7 unknown #
coedge $-1 $91 $90 $240 $241 forward $36 $-1 #
coedge $-1 $242 $243 $90 $150 reversed $227 $-1 #
edge $-1 $157 -76.454969939268167 $244 76.454969939268167 $149 $245 forward 7 unknown #
coedge $-1 $143 $246 $91 $152 reversed $87 $-1 #
edge $-1 $247 -76.454969939268167 $156 76.454969939268167 $151 $248 forward 7 unknown #
coedge $-1 $146 $92 $246 $249 forward $155 $-1 #
coedge $-1 $92 $146 $242 $250 reversed $155 $-1 #
loop $-1 $-1 $153 $226 #
vertex $-1 $93 $251 #
vertex $-1 $93 $252 #
straight-curve $-1 76.454969939268167 0 14.74948080959963 0 1 0 I I #
face $-1 $253 $254 $22 $-1 $255 reversed single #
loop $-1 $-1 $256 $94 #
plane-surface $-1 0 -53.386621318863931 -6.153008056682812 0 0 1 1 0 0 forward_v I I I I #
coedge $-1 $100 $257 $258 $259 forward $95 $-1 #
coedge $-1 $260 $97 $261 $262 reversed $61 $-1 #
coedge $-1 $97 $260 $169 $263 reversed $61 $-1 #
edge $-1 $170 -2.4791765646036064 $264 6.153008056682812 $97 $265 forward 7 unknown #
coedge $-1 $99 $98 $266 $267 forward $39 $-1 #
coedge $-1 $258 $268 $98 $168 forward $269 $-1 #
edge $-1 $270 -6.153008056682812 $171 2.4791765646036064 $167 $271 forward 7 unknown #
coedge $-1 $257 $100 $164 $263 forward $95 $-1 #
vertex $-1 $165 $272 #
vertex $-1 $259 $273 #
straight-curve $-1 0 -46.319807328817703 2.4791765646036064 1 0 0 I I #
face $-1 $274 $275 $23 $-1 $276 reversed single #
loop $-1 $-1 $277 $102 #
plane-surface $-1 0 53.386621318863931 -6.153008056682812 0 0 1 1 0 0 forward_v I I I I #
coedge $-1 $278 $108 $178 $279 forward $103 $-1 #
coedge $-1 $280 $105 $277 $281 reversed $65 $-1 #
coedge $-1 $105 $280 $176 $279 reversed $65 $-1 #
edge $-1 $184 -2.4791765646036064 $282 6.153008056682812 $105 $283 forward 7 unknown #
coedge $-1 $107 $106 $284 $285 forward $42 $-1 #
coedge $-1 $286 $287 $106 $182 forward $288 $-1 #
edge $-1 $289 -6.153008056682812 $185 2.4791765646036064 $181 $290 forward 7 unknown #
coedge $-1 $108 $278 $286 $291 forward $103 $-1 #
vertex $-1 $179 $292 #
vertex $-1 $291 $293 #
straight-curve $-1 0 46.319807328817703 2.4791765646036064 -1 0 0 I I #
face $-1 $-1 $199 $24 $-1 $294 forward single #
loop $-1 $-1 $295 $110 #
plane-surface $-1 -76.454969939268167 0 0 1 0 0 0 0 -1 forward_v I I I I #
coedge $-1 $296 $297 $298 $299 reversed $111 $-1 #
coedge $-1 $300 $113 $115 $197 forward $69 $-1 #
coedge $-1 $113 $300 $296 $301 forward $69 $-1 #
coedge $-1 $298 $116 $113 $194 forward $199 $-1 #
edge $-1 $201 -20.863258852567739 $302 -1.7825821397472854 $193 $303 forward 7 unknown #
coedge $-1 $304 $305 $114 $196 forward $188 $-1 #
edge $-1 $306 -53.994593951947628 $200 -39.379579382882717 $195 $307 forward 7 unknown #
edge $-1 $201 -20.668751578041761 $306 -4.0194366942304651e-014 $115 $308 forward 7 unknown #
coedge $-1 $116 $298 $304 $309 forward $199 $-1 #
loop $-1 $-1 $298 $187 #
vertex $-1 $196 $310 #
vertex $-1 $117 $311 #
straight-curve $-1 -92.289313296359396 -32.186179348725254 14.749480809599632 1 0 0 I I #
coedge $-1 $203 $203 $-1 $312 reversed $120 $-1 #
edge $-1 $313 0 $313 6.2831853071796004 $121 $314 forward 7 unknown #
vertex $-1 $124 $315 #
ellipse-curve $-1 -69.147462824307169 -22.645840992315023 7.4419735250671817 -0.70710678939079041 0 0.70710677298230451 1.0606601594734568 0 1.0606601840861856 1 I I #
face $-1 $-1 $316 $26 $-1 $317 reversed single #
loop $-1 $-1 $131 $125 #
plane-surface $-1 0 0 14.74948080959963 0 0 1 1 0 0 forward_v I I I I #
coedge $-1 $318 $319 $320 $321 reversed $126 $-1 #
coedge $-1 $322 $128 $130 $217 forward $78 $-1 #
coedge $-1 $128 $322 $318 $323 forward $78 $-1 #
coedge $-1 $320 $131 $128 $214 forward $208 $-1 #
edge $-1 $220 6.1804202750697925 $324 19.397312807460239 $213 $325 forward 7 unknown #
coedge $-1 $326 $327 $129 $216 forward $316 $-1 #
edge $-1 $328 -105.3946077414445 $219 -91.377699010277794 $215 $329 forward 7 unknown #
edge $-1 $220 136.19669258797376 $328 152.90993987853636 $130 $330 forward 7 unknown #
coedge $-1 $131 $320 $326 $331 forward $208 $-1 #
vertex $-1 $216 $332 #
vertex $-1 $132 $333 #
straight-curve $-1 60.707658535346404 -18.969286816334808 14.749480809599632 -1 0 0 I I #
coedge $-1 $222 $222 $-1 $334 reversed $135 $-1 #
edge $-1 $335 0 $335 6.2831853071796004 $136 $336 forward 7 unknown #
vertex $-1 $139 $337 #
ellipse-curve $-1 71.9036266041186 -25.577733082530031 7.7410264440162706 0.83867057594974714 0 0.54463902268945019 0.81695853403417529 0 -1.2580058639246208 1 I I #
face $-1 $-1 $155 $21 $-1 $338 reversed single #
loop $-1 $-1 $243 $140 #
plane-surface $-1 0 46.319807328817703 0 0 -1 0 0 0 -1 forward_v I I I I #
coedge $-1 $339 $240 $243 $340 forward $141 $-1 #
coedge $-1 $246 $143 $144 $234 reversed $87 $-1 #
coedge $-1 $240 $339 $143 $232 reversed $141 $-1 #
edge $-1 $247 -14.74948080959963 $341 14.74948080959963 $231 $342 forward 7 unknown #
coedge $-1 $145 $144 $339 $343 forward $57 $-1 #
edge $-1 $238 -76.454969939268167 $341 76.454969939268167 $230 $344 forward 7 unknown #
coedge $-1 $243 $242 $145 $236 reversed $227 $-1 #
edge $-1 $345 -76.454969939268167 $237 76.454969939268167 $235 $346 forward 7 unknown #
vertex $-1 $147 $347 #
vertex $-1 $249 $348 #
straight-curve $-1 76.454969939268167 0 -14.74948080959963 0 -1 0 I I #
coedge $-1 $229 $231 $148 $241 reversed $141 $-1 #
edge $-1 $244 -46.319807328817703 $247 46.319807328817703 $240 $349 forward 7 unknown #
coedge $-1 $235 $149 $154 $250 forward $227 $-1 #
coedge $-1 $149 $235 $229 $340 reversed $227 $-1 #
vertex $-1 $150 $350 #
straight-curve $-1 0 46.319807328817703 14.74948080959963 -1 0 0 I I #
coedge $-1 $151 $230 $153 $249 reversed $87 $-1 #
vertex $-1 $241 $351 #
straight-curve $-1 0 -46.319807328817703 14.74948080959963 1 0 0 I I #
edge $-1 $156 -14.74948080959963 $238 14.74948080959963 $153 $352 forward 7 unknown #
edge $-1 $157 -14.74948080959963 $237 14.74948080959963 $154 $353 forward 7 unknown #
point $-1 76.454969939268167 -46.319807328817703 14.74948080959963 #
point $-1 76.454969939268167 46.319807328817703 14.74948080959963 #
face $-1 $-1 $269 $22 $-1 $354 reversed single #
loop $-1 $-1 $355 $159 #
plane-surface $-1 0 -60.453435308910159 -1.8369157460396028 0 1 0 0 0 1 forward_v I I I I #
coedge $-1 $356 $266 $268 $357 forward $160 $-1 #
coedge $-1 $162 $169 $358 $359 forward $95 $-1 #
coedge $-1 $360 $167 $162 $259 reversed $269 $-1 #
edge $-1 $361 -7.0668139900462279 $171 7.0668139900462279 $258 $362 forward 7 unknown #
coedge $-1 $164 $163 $355 $363 reversed $61 $-1 #
coedge $-1 $266 $356 $163 $262 forward $160 $-1 #
edge $-1 $364 -7.0668139900462279 $264 7.0668139900462279 $163 $365 forward 7 unknown #
edge $-1 $170 -7.0668139900462279 $366 7.0668139900462279 $164 $367 forward 7 unknown #
vertex $-1 $165 $368 #
straight-curve $-1 -76.454969939268167 -46.319807328817703 0 0 0 -1 I I #
coedge $-1 $256 $261 $166 $267 reversed $160 $-1 #
edge $-1 $270 -76.454969939268167 $264 76.454969939268167 $266 $369 forward 7 unknown #
coedge $-1 $167 $360 $256 $357 reversed $269 $-1 #
loop $-1 $-1 $167 $253 #
vertex $-1 $168 $370 #
straight-curve $-1 76.454969939268167 -46.319807328817703 0 0 0 1 I I #
point $-1 -76.454969939268167 -46.319807328817703 2.4791765646036064 #
point $-1 76.454969939268167 -46.319807328817703 2.4791765646036064 #
face $-1 $-1 $288 $23 $-1 $371 reversed single #
loop $-1 $-1 $372 $173 #
plane-surface $-1 0 60.453435308910159 -1.8369157460396028 0 -1 0 0 0 -1 forward_v I I I I #
coedge $-1 $284 $373 $177 $281 forward $174 $-1 #
coedge $-1 $183 $176 $374 $375 forward $103 $-1 #
edge $-1 $184 -7.0668139900462279 $376 7.0668139900462279 $178 $377 forward 7 unknown #
coedge $-1 $178 $177 $372 $378 reversed $65 $-1 #
edge $-1 $379 -7.0668139900462279 $282 7.0668139900462279 $177 $380 forward 7 unknown #
vertex $-1 $179 $381 #
straight-curve $-1 76.454969939268167 46.319807328817703 0 0 0 -1 I I #
coedge $-1 $382 $277 $180 $285 reversed $174 $-1 #
edge $-1 $289 -76.454969939268167 $282 76.454969939268167 $284 $383 forward 7 unknown #
coedge $-1 $384 $181 $183 $291 reversed $288 $-1 #
coedge $-1 $181 $384 $382 $385 reversed $288 $-1 #
loop $-1 $-1 $181 $274 #
vertex $-1 $182 $386 #
straight-curve $-1 -76.454969939268167 46.319807328817703 0 0 0 1 I I #
edge $-1 $387 -7.0668139900462279 $185 7.0668139900462279 $286 $388 forward 7 unknown #
point $-1 76.454969939268167 46.319807328817703 2.4791765646036064 #
point $-1 -76.454969939268167 46.319807328817703 2.4791765646036064 #
plane-surface $-1 0 0 14.74948080959963 0 0 1 1 0 0 forward_v I I I I #
coedge $-1 $305 $304 $297 $389 forward $188 $-1 #
coedge $-1 $297 $190 $192 $301 reversed $111 $-1 #
coedge $-1 $190 $296 $295 $389 reversed $111 $-1 #
coedge $-1 $198 $193 $190 $299 forward $199 $-1 #
edge $-1 $302 -30.449357587013218 $390 -15.834343357091228 $298 $391 forward 7 unknown #
coedge $-1 $192 $191 $305 $392 reversed $69 $-1 #
edge $-1 $393 4.0194366942304651e-014 $302 20.668751578041761 $296 $394 forward 7 unknown #
vertex $-1 $194 $395 #
straight-curve $-1 -61.839955709346178 -11.322920496157513 14.749480809599628 0 1 0 I I #
coedge $-1 $295 $195 $198 $309 reversed $188 $-1 #
coedge $-1 $195 $295 $300 $392 forward $188 $-1 #
vertex $-1 $196 $396 #
straight-curve $-1 -76.454969939268167 -32.186179348725254 54.129060192482349 0 0 1 I I #
straight-curve $-1 -76.454969939268196 -32.186179348725254 0.13446624053469236 -0.70710677298230451 0 -0.70710678939079041 I I #
edge $-1 $390 13.105502635904799 $200 32.186179348725254 $304 $397 forward 7 unknown #
point $-1 -76.454969939268167 -32.186179348725254 14.74948080959963 #
point $-1 -61.839955709346178 -32.186179348725254 14.74948080959963 #
edge $-1 $398 1 $398 0 $203 $-1 forward 7 unknown #
vertex $-1 $204 $399 #
ellipse-curve $-1 -65.795897058131303 -22.645840992315023 4.0904078366647472 -0.70710678939079041 0 0.70710677298230451 1.0606601594734568 0 1.0606601840861856 1 I I #
point $-1 -68.086802664833684 -22.645840992315023 8.5026337091533399 #
loop $-1 $-1 $215 $207 #
plane-surface $-1 76.454969939268167 0 0 -1 0 0 0 0 1 forward_v I I I I #
coedge $-1 $319 $210 $212 $323 reversed $126 $-1 #
coedge $-1 $210 $318 $400 $401 reversed $126 $-1 #
coedge $-1 $218 $213 $210 $321 forward $208 $-1 #
edge $-1 $324 6.6446247336226278 $402 15.747311403921763 $320 $403 forward 7 unknown #
coedge $-1 $212 $211 $327 $404 reversed $78 $-1 #
edge $-1 $405 -152.90993987853636 $324 -136.19669258797376 $318 $406 forward 7 unknown #
vertex $-1 $214 $407 #
straight-curve $-1 67.352283268969046 -12.788866541265016 14.749480809599632 0 -1 0 I I #
coedge $-1 $400 $215 $218 $331 reversed $316 $-1 #
coedge $-1 $215 $400 $322 $404 forward $316 $-1 #
vertex $-1 $216 $408 #
straight-curve $-1 76.454969939268167 -18.969286816334808 106.12717981987743 0 0 1 I I #
straight-curve $-1 -6.8257502756804769 -18.969286816334808 128.97363942480624 0.54463902268945019 0 -0.83867057594974714 I I #
edge $-1 $402 -32.186179348725254 $219 -18.969286816334808 $326 $409 forward 7 unknown #
point $-1 76.454969939268167 -18.969286816334808 14.74948080959963 #
point $-1 67.352283268969032 -18.969286816334808 14.749480809599632 #
edge $-1 $410 1 $410 0 $222 $-1 forward 7 unknown #
vertex $-1 $223 $411 #
ellipse-curve $-1 68.615158503023011 -25.577733082530031 5.6054703578880698 0.83867057594974714 0 0.54463902268945019 0.81695853403417529 0 -1.2580058639246208 1 I I #
point $-1 72.720585138152785 -25.577733082530031 6.4830205800916652 #
plane-surface $-1 76.454969939268167 0 0 -1 0 0 0 0 1 forward_v I I I I #
coedge $-1 $231 $229 $233 $343 reversed $141 $-1 #
edge $-1 $244 -14.74948080959963 $345 14.74948080959963 $243 $412 forward 7 unknown #
vertex $-1 $343 $413 #
straight-curve $-1 -76.454969939268167 -46.319807328817703 0 0 0 -1 I I #
edge $-1 $341 -46.319807328817703 $345 46.319807328817703 $339 $414 forward 7 unknown #
straight-curve $-1 0 -46.319807328817703 -14.74948080959963 -1 0 0 I I #
vertex $-1 $236 $415 #
straight-curve $-1 0 46.319807328817703 -14.74948080959963 1 0 0 I I #
point $-1 76.454969939268167 46.319807328817703 -14.74948080959963 #
point $-1 76.454969939268167 -46.319807328817703 -14.74948080959963 #
straight-curve $-1 -76.454969939268167 0 14.74948080959963 0 -1 0 I I #
point $-1 -76.454969939268167 46.319807328817703 14.74948080959963 #
point $-1 -76.454969939268167 -46.319807328817703 14.74948080959963 #
straight-curve $-1 76.454969939268167 -46.319807328817703 0 0 0 -1 I I #
straight-curve $-1 76.454969939268167 46.319807328817703 0 0 0 -1 I I #
plane-surface $-1 76.454969939268167 0 0 -1 0 0 0 0 1 forward_v I I I I #
coedge $-1 $416 $358 $260 $363 forward $254 $-1 #
coedge $-1 $261 $256 $416 $417 forward $160 $-1 #
edge $-1 $270 -7.0668139900462279 $418 7.0668139900462279 $268 $419 forward 7 unknown #
coedge $-1 $355 $420 $257 $359 reversed $254 $-1 #
edge $-1 $366 -76.454969939268167 $361 76.454969939268167 $358 $421 forward 7 unknown #
coedge $-1 $268 $258 $420 $422 forward $269 $-1 #
vertex $-1 $259 $423 #
straight-curve $-1 76.454969939268167 -53.386621318863931 2.4791765646036064 0 1 0 I I #
edge $-1 $366 -4.3160923106432092 $364 4.3160923106432092 $260 $424 forward 7 unknown #
vertex $-1 $262 $425 #
straight-curve $-1 -76.454969939268167 -53.386621318863931 -6.153008056682812 0 1 0 I I #
vertex $-1 $263 $426 #
straight-curve $-1 -76.454969939268167 -53.386621318863931 2.4791765646036064 0 -1 0 I I #
point $-1 -76.454969939268167 -46.319807328817703 -6.153008056682812 #
straight-curve $-1 0 -46.319807328817703 -6.153008056682812 -1 0 0 I I #
point $-1 76.454969939268167 -46.319807328817703 -6.153008056682812 #
plane-surface $-1 -76.454969939268167 0 0 1 0 0 0 0 -1 forward_v I I I I #
coedge $-1 $427 $374 $280 $378 forward $275 $-1 #
coedge $-1 $277 $382 $427 $428 forward $174 $-1 #
coedge $-1 $372 $429 $278 $375 reversed $275 $-1 #
edge $-1 $376 -76.454969939268167 $387 76.454969939268167 $374 $430 forward 7 unknown #
vertex $-1 $279 $431 #
straight-curve $-1 76.454969939268167 53.386621318863931 2.4791765646036064 0 1 0 I I #
edge $-1 $376 -4.3160923106432092 $379 4.3160923106432092 $280 $432 forward 7 unknown #
vertex $-1 $281 $433 #
straight-curve $-1 76.454969939268167 53.386621318863931 -6.153008056682812 0 -1 0 I I #
point $-1 76.454969939268167 46.319807328817703 -6.153008056682812 #
coedge $-1 $373 $284 $287 $385 forward $174 $-1 #
straight-curve $-1 0 46.319807328817703 -6.153008056682812 1 0 0 I I #
coedge $-1 $287 $286 $429 $434 forward $288 $-1 #
edge $-1 $289 -7.0668139900462279 $435 7.0668139900462279 $287 $436 forward 7 unknown #
point $-1 -76.454969939268167 46.319807328817703 -6.153008056682812 #
vertex $-1 $375 $437 #
straight-curve $-1 -76.454969939268167 53.386621318863931 2.4791765646036064 0 -1 0 I I #
edge $-1 $390 39.379579382882717 $393 53.994593951947628 $295 $438 forward 7 unknown #
vertex $-1 $309 $439 #
straight-curve $-1 -92.289313296359396 -13.105502635904799 14.749480809599632 -1 0 0 I I #
edge $-1 $393 1.7825821397472854 $306 20.863258852567739 $305 $440 forward 7 unknown #
vertex $-1 $392 $441 #
straight-curve $-1 -76.454969939268196 -13.105502635904799 0.13446624053469236 0.70710677298230451 0 0.70710678939079041 I I #
point $-1 -61.839955709346178 -13.105502635904799 14.74948080959963 #
point $-1 -76.454969939268167 -32.186179348725254 0.13446624053472078 #
straight-curve $-1 -76.454969939268167 0 14.74948080959963 0 -1 0 I I #
vertex $-1 $312 $442 #
point $-1 -64.735236898657845 -22.645840992315023 5.1510680207509321 #
coedge $-1 $327 $326 $319 $401 forward $316 $-1 #
edge $-1 $402 91.377699010277794 $405 105.3946077414445 $400 $443 forward 7 unknown #
vertex $-1 $331 $444 #
straight-curve $-1 60.707658535346404 -32.186179348725254 14.749480809599632 1 0 0 I I #
edge $-1 $405 -19.397312807460239 $328 -6.1804202750697925 $327 $445 forward 7 unknown #
vertex $-1 $404 $446 #
straight-curve $-1 -6.8257502756804769 -32.186179348725254 128.97363942480624 -0.54463902268945019 0 0.83867057594974714 I I #
point $-1 67.352283268969032 -32.186179348725254 14.749480809599632 #
point $-1 76.454969939268167 -18.969286816334808 0.73257207843292349 #
straight-curve $-1 76.454969939268167 0 14.74948080959963 0 1 0 I I #
vertex $-1 $334 $447 #
point $-1 69.432117037057196 -25.577733082530031 4.3474644939634493 #
straight-curve $-1 -76.454969939268167 46.319807328817703 0 0 0 -1 I I #
point $-1 -76.454969939268167 -46.319807328817703 -14.74948080959963 #
straight-curve $-1 -76.454969939268167 0 -14.74948080959963 0 1 0 I I #
point $-1 -76.454969939268167 46.319807328817703 -14.74948080959963 #
coedge $-1 $420 $355 $356 $417 reversed $254 $-1 #
edge $-1 $418 -76.454969939268167 $364 76.454969939268167 $416 $448 forward 7 unknown #
vertex $-1 $422 $449 #
straight-curve $-1 76.454969939268167 -53.386621318863931 -6.153008056682812 0 -1 0 I I #
coedge $-1 $358 $416 $360 $422 reversed $254 $-1 #
straight-curve $-1 0 -60.453435308910159 2.4791765646036064 1 0 0 I I #
edge $-1 $361 -4.3160923106432092 $418 4.3160923106432092 $360 $450 forward 7 unknown #
point $-1 76.454969939268167 -60.453435308910159 2.4791765646036064 #
straight-curve $-1 -76.454969939268167 -60.453435308910159 -1.8369157460396028 0 0 -1 I I #
point $-1 -76.454969939268167 -60.453435308910159 -6.153008056682812 #
point $-1 -76.454969939268167 -60.453435308910159 2.4791765646036064 #
coedge $-1 $429 $372 $373 $428 reversed $275 $-1 #
edge $-1 $435 -76.454969939268167 $379 76.454969939268167 $427 $451 forward 7 unknown #
coedge $-1 $374 $427 $384 $434 reversed $275 $-1 #
straight-curve $-1 0 60.453435308910159 2.4791765646036064 -1 0 0 I I #
point $-1 76.454969939268167 60.453435308910159 2.4791765646036064 #
straight-curve $-1 76.454969939268167 60.453435308910159 -1.8369157460396028 0 0 -1 I I #
point $-1 76.454969939268167 60.453435308910159 -6.153008056682812 #
edge $-1 $387 -4.3160923106432092 $435 4.3160923106432092 $429 $452 forward 7 unknown #
vertex $-1 $428 $453 #
straight-curve $-1 -76.454969939268167 53.386621318863931 -6.153008056682812 0 1 0 I I #
point $-1 -76.454969939268167 60.453435308910159 2.4791765646036064 #
straight-curve $-1 -76.454969939268167 -13.105502635904799 54.129060192482349 0 0 -1 I I #
point $-1 -76.454969939268167 -13.105502635904799 14.74948080959963 #
straight-curve $-1 -76.454969939268167 -11.322920496157513 0.13446624053472078 0 -1 0 I I #
point $-1 -76.454969939268167 -13.105502635904799 0.13446624053472078 #
point $-1 -64.735236874045128 -22.645840992315023 3.0297476771912901 #
straight-curve $-1 76.454969939268167 -32.186179348725254 106.12717981987743 0 0 -1 I I #
point $-1 76.454969939268167 -32.186179348725254 14.74948080959963 #
straight-curve $-1 76.454969939268167 -12.788866541265016 0.73257207843292349 0 1 0 I I #
point $-1 76.454969939268167 -32.186179348725254 0.73257207843292349 #
point $-1 67.357152639098402 -25.577733082530031 4.7885118238538951 #
straight-curve $-1 0 -60.453435308910159 -6.153008056682812 -1 0 0 I I #
point $-1 76.454969939268167 -60.453435308910159 -6.153008056682812 #
straight-curve $-1 76.454969939268167 -60.453435308910159 -1.8369157460396028 0 0 -1 I I #
straight-curve $-1 0 60.453435308910159 -6.153008056682812 1 0 0 I I #
straight-curve $-1 -76.454969939268167 60.453435308910159 -1.8369157460396028 0 0 -1 I I #
point $-1 -76.454969939268167 60.453435308910159 -6.153008056682812 #
End-of-ACIS-data 