500 0 8 0           
7 Unknown 11 ACIS 5.0 NT 24 Fri Mar 26 16:40:26 1999 
-1 9.9999999999999995e-007 1e-010 
body $-1 $8 $-1 $9 #
body $-1 $10 $-1 $11 #
body $-1 $12 $-1 $13 #
body $-1 $14 $-1 $15 #
body $-1 $16 $-1 $17 #
body $-1 $18 $-1 $19 #
body $-1 $20 $-1 $21 #
body $-1 $22 $-1 $23 #
lump $-1 $-1 $24 $0 #
transform $-1 1 0 0 0 1 0 0 0 1 40.313730277413249 28.098917296663888 8.3850832611624231 1 rotate no_reflect no_shear #
lump $-1 $-1 $25 $1 #
transform $-1 1 0 0 0 1 0 0 0 1 40.313730277413249 28.098917296663888 8.3850832611624231 1 rotate no_reflect no_shear #
lump $-1 $-1 $26 $2 #
transform $-1 1 0 0 0 1 0 0 0 1 40.313730277413249 28.098917296663888 8.3850832611624231 1 rotate no_reflect no_shear #
lump $-1 $-1 $27 $3 #
transform $-1 1 0 0 0 1 0 0 0 1 40.313730277413249 28.098917296663888 8.3850832611624231 1 rotate no_reflect no_shear #
lump $-1 $-1 $28 $4 #
transform $-1 1 0 0 0 1 0 0 0 1 40.313730277413249 28.098917296663888 8.3850832611624231 1 rotate no_reflect no_shear #
lump $-1 $-1 $29 $5 #
transform $-1 1 0 0 0 1 0 0 0 1 40.313730277413249 28.098917296663888 8.3850832611624231 1 rotate no_reflect no_shear #
lump $-1 $-1 $30 $6 #
transform $-1 1 0 0 0 1 0 0 0 1 40.313730277413249 28.098917296663888 8.3850832611624231 1 rotate no_reflect no_shear #
lump $-1 $-1 $31 $7 #
transform $-1 1 0 0 0 1 0 0 0 1 40.313730277413249 28.098917296663888 8.3850832611624231 1 rotate no_reflect no_shear #
shell $-1 $-1 $-1 $32 $-1 $8 #
shell $-1 $-1 $-1 $33 $-1 $10 #
shell $-1 $-1 $-1 $34 $-1 $12 #
shell $-1 $-1 $-1 $35 $-1 $14 #
shell $-1 $-1 $-1 $36 $-1 $16 #
shell $-1 $-1 $-1 $37 $-1 $18 #
shell $-1 $-1 $-1 $38 $-1 $20 #
shell $-1 $-1 $-1 $39 $-1 $22 #
face $-1 $40 $41 $24 $-1 $42 forward single #
face $-1 $43 $44 $25 $-1 $45 reversed single #
face $-1 $46 $47 $26 $-1 $48 reversed single #
face $-1 $49 $50 $27 $-1 $51 forward single #
face $-1 $52 $53 $28 $-1 $54 forward single #
face $-1 $55 $56 $29 $-1 $57 reversed single #
face $-1 $58 $59 $30 $-1 $60 forward single #
face $-1 $61 $62 $31 $-1 $63 forward single #
face $-1 $64 $65 $24 $-1 $66 reversed single #
loop $-1 $-1 $67 $32 #
plane-surface $-1 0 0 8.3850832611624231 0 0 1 1 0 0 forward_v I I I I #
face $-1 $68 $69 $25 $-1 $70 reversed single #
loop $-1 $-1 $71 $33 #
plane-surface $-1 -27.96987025761614 -25.199342351681434 0 1 0 0 0 0 -1 forward_v I I I I #
face $-1 $72 $73 $26 $-1 $74 reversed single #
loop $-1 $-1 $75 $34 #
plane-surface $-1 48.267675142667706 -6.0841185865319565 114.53521623117992 0 -1 0 -0.75470958851134928 0 -0.65605901945558964 forward_v I I I I #
face $-1 $76 $77 $27 $-1 $78 forward single #
loop $-1 $79 $80 $35 #
cone-surface $-1 36.229381079544211 -16.236750260596313 3.9065390517215519 -0.75470958851134928 0 -0.65605901945558964 1.3121180389111793 0 -1.5094191770226986 1 I I 0 1 2 forward I I I I #
face $-1 $81 $82 $28 $-1 $83 forward single #
loop $-1 $84 $85 $36 #
cone-surface $-1 36.229381079544211 -10.145171256157699 3.9065390517215519 -0.75470958851134928 0 -0.65605901945558964 1.3121180389111793 0 -1.5094191770226986 1 I I 0 1 2 forward I I I I #
face $-1 $86 $87 $29 $-1 $88 reversed single #
loop $-1 $-1 $89 $37 #
plane-surface $-1 -105.54271673940022 5.012134104532791 49.896244785243553 0 1 0 -0.80901700255871778 0 0.5877852410284794 forward_v I I I I #
face $-1 $90 $91 $30 $-1 $92 forward single #
loop $-1 $93 $94 $38 #
cone-surface $-1 -36.755442763345165 7.0683518433496211 4.4116454249450481 0.80901700255871778 0 -0.5877852410284794 0.5877852410284794 0 0.80901700255871778 1 I I 0 1 1 forward I I I I #
face $-1 $95 $96 $31 $-1 $97 forward single #
loop $-1 $98 $99 $39 #
cone-surface $-1 -36.755442763345165 10.152678451574854 4.4116454249450481 0.80901700255871778 0 -0.5877852410284794 0.5877852410284794 0 0.80901700255871778 1 I I 0 1 1 forward I I I I #
face $-1 $100 $101 $24 $-1 $102 reversed single #
loop $-1 $-1 $103 $40 #
plane-surface $-1 0 0 -8.3850832611624231 0 0 1 1 0 0 forward_v I I I I #
coedge $-1 $104 $105 $106 $107 forward $41 $-1 #
face $-1 $108 $109 $25 $-1 $110 reversed single #
loop $-1 $-1 $111 $43 #
plane-surface $-1 -25.756717006352272 -22.299767406698979 0 0 -1 0 0 0 -1 forward_v I I I I #
coedge $-1 $112 $113 $114 $115 forward $44 $-1 #
face $-1 $116 $117 $26 $-1 $118 reversed single #
loop $-1 $-1 $119 $46 #
plane-surface $-1 -12.58264243538045 -13.190960758377006 61.63884351838621 0.75470958851134928 0 0.65605901945558964 0.65605901945558964 0 -0.75470958851134928 forward_v I I I I #
coedge $-1 $120 $121 $122 $123 reversed $47 $-1 #
face $-1 $-1 $124 $27 $-1 $125 forward single #
loop $-1 $126 $127 $49 #
cone-surface $-1 34.692115474941623 -16.236750260596313 2.5702144832372706 -0.75470958851134928 0 -0.65605901945558964 0.65605901945558964 0 -0.75470958851134928 1 I I -0.70710678118654746 0.70710678118654746 1 forward I I I I #
loop $-1 $-1 $128 $35 #
coedge $-1 $80 $80 $129 $130 reversed $50 $-1 #
face $-1 $-1 $131 $28 $-1 $132 forward single #
loop $-1 $133 $134 $52 #
cone-surface $-1 34.692115474941623 -10.145171256157699 2.5702144832372706 -0.75470958851134928 0 -0.65605901945558964 0.65605901945558964 0 -0.75470958851134928 1 I I -0.70710678118654746 0.70710678118654746 1 forward I I I I #
loop $-1 $-1 $135 $36 #
coedge $-1 $85 $85 $136 $137 reversed $53 $-1 #
face $-1 $138 $139 $29 $-1 $140 reversed single #
loop $-1 $-1 $141 $55 #
plane-surface $-1 -40.313730277413228 8.6105151474622339 2.5046134495106429 -0.80901700255871778 0 0.5877852410284794 0.5877852410284794 0 0.80901700255871778 forward_v I I I I #
coedge $-1 $142 $143 $144 $145 reversed $56 $-1 #
face $-1 $-1 $146 $30 $-1 $147 forward single #
loop $-1 $148 $149 $58 #
cone-surface $-1 -34.928852386859781 7.0683518433496211 3.0845498740393218 0.80901700255871778 0 -0.5877852410284794 0.2938926205142397 0 0.40450850127935889 1 I I -0.70710678118654746 0.70710678118654746 0.5 forward I I I I #
loop $-1 $-1 $150 $38 #
coedge $-1 $94 $94 $151 $152 reversed $59 $-1 #
face $-1 $-1 $153 $31 $-1 $154 forward single #
loop $-1 $155 $156 $61 #
cone-surface $-1 -34.928852386859781 10.152678451574854 3.0845498740393218 0.80901700255871778 0 -0.5877852410284794 0.2938926205142397 0 0.40450850127935889 1 I I -0.70710678118654746 0.70710678118654746 0.5 forward I I I I #
loop $-1 $-1 $157 $39 #
coedge $-1 $99 $99 $158 $159 reversed $62 $-1 #
face $-1 $160 $161 $24 $-1 $162 reversed single #
loop $-1 $-1 $163 $64 #
plane-surface $-1 0 -28.098917296663888 0 0 1 0 0 0 1 forward_v I I I I #
coedge $-1 $164 $165 $166 $167 forward $65 $-1 #
coedge $-1 $168 $67 $169 $170 forward $41 $-1 #
coedge $-1 $67 $168 $171 $172 forward $41 $-1 #
coedge $-1 $173 $174 $67 $107 reversed $175 $-1 #
edge $-1 $176 -28.098917296663888 $177 28.098917296663888 $106 $178 forward 7 unknown #
face $-1 $179 $180 $25 $-1 $181 forward single #
loop $-1 $-1 $182 $68 #
plane-surface $-1 -23.543563755088403 -25.199342351681434 0 -1 0 0 0 0 1 forward_v I I I I #
coedge $-1 $183 $184 $185 $186 forward $69 $-1 #
coedge $-1 $187 $71 $188 $189 reversed $44 $-1 #
coedge $-1 $71 $187 $190 $191 reversed $44 $-1 #
coedge $-1 $184 $183 $71 $115 reversed $69 $-1 #
edge $-1 $192 -8.3850832611624231 $193 8.3850832611624231 $114 $194 forward 7 unknown #
face $-1 $195 $196 $26 $-1 $197 reversed single #
loop $-1 $-1 $198 $72 #
plane-surface $-1 48.267675142667706 -20.297802930222055 114.53521623117992 0 1 0 0.75470958851134928 0 0.65605901945558964 forward_v I I I I #
coedge $-1 $199 $200 $201 $202 reversed $73 $-1 #
coedge $-1 $121 $75 $203 $204 reversed $47 $-1 #
coedge $-1 $75 $120 $199 $205 reversed $47 $-1 #
coedge $-1 $201 $206 $75 $123 forward $207 $-1 #
edge $-1 $208 -16.179892706079396 $209 -9.5763063425237895 $122 $210 forward 7 unknown #
loop $-1 $-1 $129 $76 #
plane-surface $-1 -12.58264243538045 -13.190960758377006 61.63884351838621 0.75470958851134928 0 0.65605901945558964 0.65605901945558964 0 -0.75470958851134928 forward_v I I I I #
loop $-1 $-1 $211 $49 #
coedge $-1 $127 $127 $128 $212 reversed $77 $-1 #
coedge $-1 $128 $128 $127 $212 forward $79 $-1 #
coedge $-1 $129 $129 $80 $130 forward $124 $-1 #
edge $-1 $213 0 $213 6.2831853071796004 $129 $214 forward 7 unknown #
loop $-1 $-1 $136 $81 #
plane-surface $-1 -12.58264243538045 -13.190960758377006 61.63884351838621 0.75470958851134928 0 0.65605901945558964 0.65605901945558964 0 -0.75470958851134928 forward_v I I I I #
loop $-1 $-1 $215 $52 #
coedge $-1 $134 $134 $135 $216 reversed $82 $-1 #
coedge $-1 $135 $135 $134 $216 forward $84 $-1 #
coedge $-1 $136 $136 $85 $137 forward $131 $-1 #
edge $-1 $217 0 $217 6.2831853071796004 $136 $218 forward 7 unknown #
face $-1 $219 $220 $29 $-1 $221 reversed single #
loop $-1 $-1 $222 $86 #
plane-surface $-1 -105.54271673940022 12.208896190391677 49.896244785243553 0 -1 0 0.80901700255871778 0 -0.5877852410284794 forward_v I I I I #
coedge $-1 $223 $224 $225 $226 reversed $87 $-1 #
coedge $-1 $143 $89 $227 $228 reversed $56 $-1 #
coedge $-1 $89 $142 $223 $229 reversed $56 $-1 #
coedge $-1 $225 $230 $89 $145 forward $231 $-1 #
edge $-1 $232 12.457628092286861 $233 16.730039370011013 $144 $234 forward 7 unknown #
loop $-1 $-1 $151 $90 #
plane-surface $-1 -40.313730277413228 8.6105151474622339 2.5046134495106429 -0.80901700255871778 0 0.5877852410284794 0.5877852410284794 0 0.80901700255871778 forward_v I I I I #
loop $-1 $-1 $235 $58 #
coedge $-1 $149 $149 $150 $236 reversed $91 $-1 #
coedge $-1 $150 $150 $149 $236 forward $93 $-1 #
coedge $-1 $151 $151 $94 $152 forward $146 $-1 #
edge $-1 $237 0 $237 6.2831853071796004 $151 $238 forward 7 unknown #
loop $-1 $-1 $158 $95 #
plane-surface $-1 -40.313730277413228 8.6105151474622339 2.5046134495106429 -0.80901700255871778 0 0.5877852410284794 0.5877852410284794 0 0.80901700255871778 forward_v I I I I #
loop $-1 $-1 $239 $61 #
coedge $-1 $156 $156 $157 $240 reversed $96 $-1 #
coedge $-1 $157 $157 $156 $240 forward $98 $-1 #
coedge $-1 $158 $158 $99 $159 forward $153 $-1 #
edge $-1 $241 0 $241 6.2831853071796004 $158 $242 forward 7 unknown #
face $-1 $243 $244 $24 $-1 $245 reversed single #
loop $-1 $-1 $246 $100 #
plane-surface $-1 -40.313730277413249 0 0 1 0 0 0 0 -1 forward_v I I I I #
coedge $-1 $247 $171 $248 $249 forward $101 $-1 #
coedge $-1 $250 $103 $247 $251 forward $65 $-1 #
coedge $-1 $103 $250 $252 $253 forward $65 $-1 #
coedge $-1 $174 $173 $103 $167 reversed $175 $-1 #
edge $-1 $254 -28.098917296663888 $255 28.098917296663888 $166 $256 forward 7 unknown #
coedge $-1 $105 $104 $257 $258 forward $41 $-1 #
coedge $-1 $259 $260 $104 $170 reversed $244 $-1 #
edge $-1 $177 -40.313730277413249 $261 40.313730277413249 $169 $262 forward 7 unknown #
coedge $-1 $163 $263 $105 $172 reversed $101 $-1 #
edge $-1 $264 -40.313730277413249 $176 40.313730277413249 $171 $265 forward 7 unknown #
coedge $-1 $166 $106 $263 $266 forward $175 $-1 #
coedge $-1 $106 $166 $259 $267 reversed $175 $-1 #
loop $-1 $-1 $173 $243 #
vertex $-1 $107 $268 #
vertex $-1 $107 $269 #
straight-curve $-1 40.313730277413249 0 8.3850832611624231 0 1 0 I I #
face $-1 $270 $271 $25 $-1 $272 reversed single #
loop $-1 $-1 $273 $108 #
plane-surface $-1 0 0 8.3850832611624231 0 0 1 1 0 0 forward_v I I I I #
coedge $-1 $274 $275 $276 $277 reversed $109 $-1 #
coedge $-1 $114 $111 $278 $279 reversed $69 $-1 #
coedge $-1 $111 $114 $280 $281 reversed $69 $-1 #
coedge $-1 $275 $274 $111 $186 reversed $109 $-1 #
edge $-1 $282 -8.3850832611624231 $283 8.3850832611624231 $185 $284 forward 7 unknown #
coedge $-1 $113 $112 $285 $286 reversed $44 $-1 #
coedge $-1 $278 $287 $112 $189 forward $271 $-1 #
edge $-1 $288 -15.499246120823171 $193 -9.7000962308582626 $188 $289 forward 7 unknown #
coedge $-1 $290 $280 $113 $191 forward $180 $-1 #
edge $-1 $192 9.7000962308582626 $291 15.499246120823171 $190 $292 forward 7 unknown #
vertex $-1 $191 $293 #
vertex $-1 $189 $294 #
straight-curve $-1 -27.96987025761614 -22.299767406698979 0 0 0 -1 I I #
face $-1 $-1 $207 $26 $-1 $295 forward single #
loop $-1 $-1 $296 $116 #
plane-surface $-1 40.313730277413249 0 0 -1 0 0 0 0 1 forward_v I I I I #
coedge $-1 $297 $298 $299 $300 reversed $117 $-1 #
coedge $-1 $301 $119 $121 $205 forward $73 $-1 #
coedge $-1 $119 $301 $297 $302 forward $73 $-1 #
coedge $-1 $299 $122 $119 $202 forward $207 $-1 #
edge $-1 $209 -0.51136179265654658 $303 13.702322551033552 $201 $304 forward 7 unknown #
coedge $-1 $305 $306 $120 $204 forward $196 $-1 #
edge $-1 $307 -56.479082175251889 $208 -48.882524854427537 $203 $308 forward 7 unknown #
edge $-1 $209 70.56192351055968 $307 80.627460554826499 $121 $309 forward 7 unknown #
coedge $-1 $122 $299 $305 $310 forward $207 $-1 #
loop $-1 $-1 $299 $195 #
vertex $-1 $204 $311 #
vertex $-1 $123 $312 #
straight-curve $-1 24.133837571333853 -6.0841185865319565 8.3850832611624213 -1 0 0 I I #
coedge $-1 $211 $211 $-1 $313 reversed $126 $-1 #
edge $-1 $314 0 $314 6.2831853071796004 $127 $315 forward 7 unknown #
vertex $-1 $130 $316 #
ellipse-curve $-1 37.011937095635446 -16.236750260596313 4.5868046007502423 0.75470958851134928 0 0.65605901945558964 1.3121180389111793 0 -1.5094191770226986 1 I I #
coedge $-1 $215 $215 $-1 $317 reversed $133 $-1 #
edge $-1 $318 0 $318 6.2831853071796004 $134 $319 forward 7 unknown #
vertex $-1 $137 $320 #
ellipse-curve $-1 37.011937095635446 -10.145171256157699 4.5868046007502423 0.75470958851134928 0 0.65605901945558964 1.3121180389111793 0 -1.5094191770226986 1 I I #
face $-1 $-1 $231 $29 $-1 $321 forward single #
loop $-1 $-1 $322 $138 #
plane-surface $-1 -40.313730277413249 0 0 1 0 0 0 0 -1 forward_v I I I I #
coedge $-1 $323 $324 $325 $326 reversed $139 $-1 #
coedge $-1 $327 $141 $143 $229 forward $87 $-1 #
coedge $-1 $141 $327 $323 $328 forward $87 $-1 #
coedge $-1 $325 $144 $141 $226 forward $231 $-1 #
edge $-1 $233 0.70687653080167401 $329 7.9036386166605599 $225 $330 forward 7 unknown #
coedge $-1 $331 $332 $142 $228 forward $220 $-1 #
edge $-1 $333 -22.443508943111162 $232 -16.563039131459355 $227 $334 forward 7 unknown #
edge $-1 $233 -7.2686603533094232 $333 3.6241593609816998e-014 $143 $335 forward 7 unknown #
coedge $-1 $144 $325 $331 $336 forward $231 $-1 #
loop $-1 $-1 $325 $219 #
vertex $-1 $228 $337 #
vertex $-1 $145 $338 #
straight-curve $-1 -52.77135836970011 5.012134104532791 8.3850832611624213 1 0 0 I I #
coedge $-1 $235 $235 $-1 $339 reversed $148 $-1 #
edge $-1 $340 0 $340 6.2831853071796004 $149 $341 forward 7 unknown #
vertex $-1 $152 $342 #
ellipse-curve $-1 -38.177524638551169 7.0683518433496211 5.4448483553365215 -0.80901700255871778 0 0.5877852410284794 0.5877852410284794 0 0.80901700255871778 1 I I #
coedge $-1 $239 $239 $-1 $343 reversed $155 $-1 #
edge $-1 $344 0 $344 6.2831853071796004 $156 $345 forward 7 unknown #
vertex $-1 $159 $346 #
ellipse-curve $-1 -38.177524638551169 10.152678451574854 5.4448483553365215 -0.80901700255871778 0 0.5877852410284794 0.5877852410284794 0 0.80901700255871778 1 I I #
face $-1 $-1 $175 $24 $-1 $347 reversed single #
loop $-1 $-1 $259 $160 #
plane-surface $-1 0 28.098917296663888 0 0 -1 0 0 0 -1 forward_v I I I I #
coedge $-1 $348 $257 $260 $349 forward $161 $-1 #
coedge $-1 $263 $163 $164 $251 reversed $101 $-1 #
coedge $-1 $257 $348 $163 $249 reversed $161 $-1 #
edge $-1 $264 -8.3850832611624231 $350 8.3850832611624231 $248 $351 forward 7 unknown #
coedge $-1 $165 $164 $348 $352 forward $65 $-1 #
edge $-1 $255 -40.313730277413249 $350 40.313730277413249 $247 $353 forward 7 unknown #
coedge $-1 $260 $259 $165 $253 reversed $244 $-1 #
edge $-1 $354 -40.313730277413249 $254 40.313730277413249 $252 $355 forward 7 unknown #
vertex $-1 $167 $356 #
vertex $-1 $266 $357 #
straight-curve $-1 40.313730277413249 0 -8.3850832611624231 0 -1 0 I I #
coedge $-1 $246 $248 $168 $258 reversed $161 $-1 #
edge $-1 $261 -28.098917296663888 $264 28.098917296663888 $257 $358 forward 7 unknown #
coedge $-1 $252 $169 $174 $267 forward $244 $-1 #
coedge $-1 $169 $252 $246 $349 reversed $244 $-1 #
vertex $-1 $170 $359 #
straight-curve $-1 0 28.098917296663888 8.3850832611624231 -1 0 0 I I #
coedge $-1 $171 $247 $173 $266 reversed $101 $-1 #
vertex $-1 $258 $360 #
straight-curve $-1 0 -28.098917296663888 8.3850832611624231 1 0 0 I I #
edge $-1 $176 -8.3850832611624231 $255 8.3850832611624231 $173 $361 forward 7 unknown #
edge $-1 $177 -8.3850832611624231 $254 8.3850832611624231 $174 $362 forward 7 unknown #
point $-1 40.313730277413249 -28.098917296663888 8.3850832611624231 #
point $-1 40.313730277413249 28.098917296663888 8.3850832611624231 #
face $-1 $-1 $363 $25 $-1 $364 reversed single #
loop $-1 $-1 $365 $179 #
plane-surface $-1 0 0 -8.3850832611624231 0 0 1 1 0 0 forward_v I I I I #
coedge $-1 $280 $290 $275 $366 forward $180 $-1 #
coedge $-1 $185 $182 $365 $367 reversed $109 $-1 #
coedge $-1 $182 $185 $273 $366 reversed $109 $-1 #
coedge $-1 $368 $369 $182 $277 forward $363 $-1 #
edge $-1 $370 -8.3850832611624231 $371 8.3850832611624231 $276 $372 forward 7 unknown #
coedge $-1 $365 $188 $183 $279 forward $271 $-1 #
edge $-1 $193 -15.091511754440004 $283 -10.665205251912267 $278 $373 forward 7 unknown #
coedge $-1 $190 $273 $184 $281 forward $180 $-1 #
edge $-1 $282 10.665205251912267 $192 15.091511754440004 $280 $374 forward 7 unknown #
vertex $-1 $281 $375 #
vertex $-1 $279 $376 #
straight-curve $-1 -23.543563755088403 -22.299767406698979 0 0 0 -1 I I #
coedge $-1 $369 $368 $187 $286 forward $363 $-1 #
edge $-1 $291 -8.3850832611624231 $288 8.3850832611624231 $285 $377 forward 7 unknown #
coedge $-1 $188 $365 $369 $378 forward $271 $-1 #
vertex $-1 $189 $379 #
straight-curve $-1 -27.96987025761614 -12.599671175840717 -8.3850832611624231 0 1 0 I I #
coedge $-1 $273 $190 $368 $380 forward $180 $-1 #
vertex $-1 $380 $381 #
straight-curve $-1 -27.96987025761614 -12.599671175840717 8.3850832611624231 0 -1 0 I I #
point $-1 -27.96987025761614 -22.299767406698979 8.3850832611624231 #
point $-1 -27.96987025761614 -22.299767406698979 -8.3850832611624231 #
plane-surface $-1 0 0 8.3850832611624231 0 0 1 1 0 0 forward_v I I I I #
coedge $-1 $306 $305 $298 $382 forward $196 $-1 #
coedge $-1 $298 $198 $200 $302 reversed $117 $-1 #
coedge $-1 $198 $297 $296 $382 reversed $117 $-1 #
coedge $-1 $206 $201 $198 $300 forward $207 $-1 #
edge $-1 $303 9.5763063425237895 $383 16.179892706079396 $299 $384 forward 7 unknown #
coedge $-1 $200 $199 $306 $385 reversed $73 $-1 #
edge $-1 $386 -80.627460554826499 $303 -70.56192351055968 $297 $387 forward 7 unknown #
vertex $-1 $202 $388 #
straight-curve $-1 33.710143913857642 -6.5954803791885031 8.3850832611624213 0 -1 0 I I #
coedge $-1 $296 $203 $206 $310 reversed $196 $-1 #
coedge $-1 $203 $296 $301 $385 forward $196 $-1 #
vertex $-1 $204 $389 #
straight-curve $-1 40.313730277413249 -6.0841185865319565 57.267608115589958 0 0 1 I I #
straight-curve $-1 -12.58264243538045 -6.0841185865319565 61.63884351838621 0.65605901945558964 0 -0.75470958851134928 I I #
edge $-1 $383 -20.297802930222055 $208 -6.0841185865319565 $305 $390 forward 7 unknown #
point $-1 40.313730277413249 -6.0841185865319565 8.3850832611624231 #
point $-1 33.710143913857642 -6.0841185865319565 8.3850832611624213 #
edge $-1 $391 1 $391 0 $211 $-1 forward 7 unknown #
vertex $-1 $212 $392 #
ellipse-curve $-1 35.44682506345297 -16.236750260596313 3.2262735026928602 0.75470958851134928 0 0.65605901945558964 1.3121180389111793 0 -1.5094191770226986 1 I I #
point $-1 38.324055134546626 -16.236750260596313 3.0773854237275438 #
edge $-1 $393 1 $393 0 $215 $-1 forward 7 unknown #
vertex $-1 $216 $394 #
ellipse-curve $-1 35.44682506345297 -10.145171256157699 3.2262735026928602 0.75470958851134928 0 0.65605901945558964 1.3121180389111793 0 -1.5094191770226986 1 I I #
point $-1 38.324055134546626 -10.145171256157699 3.0773854237275438 #
plane-surface $-1 0 0 8.3850832611624231 0 0 1 1 0 0 forward_v I I I I #
coedge $-1 $332 $331 $324 $395 forward $220 $-1 #
coedge $-1 $324 $222 $224 $328 reversed $139 $-1 #
coedge $-1 $222 $323 $322 $395 reversed $139 $-1 #
coedge $-1 $230 $225 $222 $326 forward $231 $-1 #
edge $-1 $329 -16.730039370011013 $396 -12.457628092286861 $325 $397 forward 7 unknown #
coedge $-1 $224 $223 $332 $398 reversed $87 $-1 #
edge $-1 $399 -3.6241593609816998e-014 $329 7.2686603533094232 $323 $400 forward 7 unknown #
vertex $-1 $226 $401 #
straight-curve $-1 -36.041318999689096 4.3052575737311169 8.3850832611624249 0 1 0 I I #
coedge $-1 $322 $227 $230 $336 reversed $220 $-1 #
coedge $-1 $227 $322 $327 $398 forward $220 $-1 #
vertex $-1 $228 $402 #
straight-curve $-1 -40.313730277413249 5.012134104532791 24.948122392621777 0 0 1 I I #
straight-curve $-1 -40.313730277413228 5.012134104532791 2.5046134495106429 -0.5877852410284794 0 -0.80901700255871778 I I #
edge $-1 $396 -12.208896190391677 $232 -5.012134104532791 $331 $403 forward 7 unknown #
point $-1 -40.313730277413249 5.012134104532791 8.3850832611624231 #
point $-1 -36.041318999689096 5.012134104532791 8.3850832611624231 #
edge $-1 $404 1 $404 0 $235 $-1 forward 7 unknown #
vertex $-1 $236 $405 #
ellipse-curve $-1 -35.33336088813914 7.0683518433496211 3.3784424945535614 -0.80901700255871778 0 0.5877852410284794 0.5877852410284794 0 0.80901700255871778 1 I I #
point $-1 -37.589739397522706 7.0683518433496211 6.2538653578952523 #
edge $-1 $406 1 $406 0 $239 $-1 forward 7 unknown #
vertex $-1 $240 $407 #
ellipse-curve $-1 -35.33336088813914 10.152678451574854 3.3784424945535614 -0.80901700255871778 0 0.5877852410284794 0.5877852410284794 0 0.80901700255871778 1 I I #
point $-1 -37.589739397522706 10.152678451574854 6.2538653578952523 #
plane-surface $-1 40.313730277413249 0 0 -1 0 0 0 0 1 forward_v I I I I #
coedge $-1 $248 $246 $250 $352 reversed $161 $-1 #
edge $-1 $261 -8.3850832611624231 $354 8.3850832611624231 $260 $408 forward 7 unknown #
vertex $-1 $352 $409 #
straight-curve $-1 -40.313730277413249 -28.098917296663888 0 0 0 -1 I I #
edge $-1 $350 -28.098917296663888 $354 28.098917296663888 $348 $410 forward 7 unknown #
straight-curve $-1 0 -28.098917296663888 -8.3850832611624231 -1 0 0 I I #
vertex $-1 $253 $411 #
straight-curve $-1 0 28.098917296663888 -8.3850832611624231 1 0 0 I I #
point $-1 40.313730277413249 28.098917296663888 -8.3850832611624231 #
point $-1 40.313730277413249 -28.098917296663888 -8.3850832611624231 #
straight-curve $-1 -40.313730277413249 0 8.3850832611624231 0 -1 0 I I #
point $-1 -40.313730277413249 28.098917296663888 8.3850832611624231 #
point $-1 -40.313730277413249 -28.098917296663888 8.3850832611624231 #
straight-curve $-1 40.313730277413249 -28.098917296663888 0 0 0 -1 I I #
straight-curve $-1 40.313730277413249 28.098917296663888 0 0 0 -1 I I #
loop $-1 $-1 $276 $270 #
plane-surface $-1 0 -28.098917296663888 0 0 1 0 0 0 1 forward_v I I I I #
coedge $-1 $287 $278 $274 $367 forward $271 $-1 #
edge $-1 $371 -15.499246120823171 $282 -9.7000962308582626 $273 $412 forward 7 unknown #
edge $-1 $283 9.7000962308582626 $370 15.499246120823171 $365 $413 forward 7 unknown #
coedge $-1 $285 $276 $290 $380 reversed $363 $-1 #
coedge $-1 $276 $285 $287 $378 reversed $363 $-1 #
vertex $-1 $378 $414 #
vertex $-1 $277 $415 #
straight-curve $-1 -23.543563755088403 -28.098917296663888 0 0 0 1 I I #
straight-curve $-1 -12.878358503176136 -22.299767406698979 -8.3850832611624231 1 0 0 I I #
straight-curve $-1 -12.878358503176136 -22.299767406698979 8.3850832611624231 -1 0 0 I I #
point $-1 -23.543563755088403 -22.299767406698979 8.3850832611624231 #
point $-1 -23.543563755088403 -22.299767406698979 -8.3850832611624231 #
straight-curve $-1 -27.96987025761614 -28.098917296663888 0 0 0 -1 I I #
edge $-1 $370 23.543563755088403 $288 27.96987025761614 $369 $416 forward 7 unknown #
point $-1 -27.96987025761614 -28.098917296663888 -8.3850832611624231 #
edge $-1 $291 -27.96987025761614 $371 -23.543563755088403 $368 $417 forward 7 unknown #
point $-1 -27.96987025761614 -28.098917296663888 8.3850832611624231 #
edge $-1 $383 48.882524854427537 $386 56.479082175251889 $296 $418 forward 7 unknown #
vertex $-1 $310 $419 #
straight-curve $-1 24.133837571333853 -20.297802930222055 8.3850832611624213 1 0 0 I I #
edge $-1 $386 -13.702322551033552 $307 0.51136179265654658 $306 $420 forward 7 unknown #
vertex $-1 $385 $421 #
straight-curve $-1 -12.58264243538045 -20.297802930222055 61.63884351838621 -0.65605901945558964 0 0.75470958851134928 I I #
point $-1 33.710143913857642 -20.297802930222055 8.3850832611624213 #
point $-1 40.313730277413242 -6.0841185865319565 0.78852594033806866 #
straight-curve $-1 40.313730277413249 0 8.3850832611624231 0 1 0 I I #
vertex $-1 $313 $422 #
point $-1 36.75894310236415 -16.236750260596313 1.7168543256701616 #
vertex $-1 $317 $423 #
point $-1 36.75894310236415 -10.145171256157699 1.7168543256701616 #
edge $-1 $396 16.563039131459355 $399 22.443508943111162 $322 $424 forward 7 unknown #
vertex $-1 $336 $425 #
straight-curve $-1 -52.77135836970011 12.208896190391677 8.3850832611624213 -1 0 0 I I #
edge $-1 $399 -7.9036386166605599 $333 -0.70687653080167401 $332 $426 forward 7 unknown #
vertex $-1 $398 $427 #
straight-curve $-1 -40.313730277413228 12.208896190391677 2.5046134495106429 0.5877852410284794 0 0.80901700255871778 I I #
point $-1 -36.041318999689096 12.208896190391677 8.3850832611624231 #
point $-1 -40.313730277413249 5.012134104532791 2.5046134495106136 #
straight-curve $-1 -40.313730277413249 0 8.3850832611624231 0 -1 0 I I #
vertex $-1 $339 $428 #
point $-1 -34.745575647110662 7.0683518433496211 4.1874594971122789 #
vertex $-1 $343 $429 #
point $-1 -34.745575647110662 10.152678451574854 4.1874594971122789 #
straight-curve $-1 -40.313730277413249 28.098917296663888 0 0 0 -1 I I #
point $-1 -40.313730277413249 -28.098917296663888 -8.3850832611624231 #
straight-curve $-1 -40.313730277413249 0 -8.3850832611624231 0 1 0 I I #
point $-1 -40.313730277413249 28.098917296663888 -8.3850832611624231 #
straight-curve $-1 -23.543563755088403 -12.599671175840717 8.3850832611624231 0 1 0 I I #
straight-curve $-1 -23.543563755088403 -12.599671175840717 -8.3850832611624231 0 -1 0 I I #
point $-1 -23.543563755088403 -28.098917296663888 -8.3850832611624231 #
point $-1 -23.543563755088403 -28.098917296663888 8.3850832611624231 #
straight-curve $-1 0 -28.098917296663888 -8.3850832611624231 -1 0 0 I I #
straight-curve $-1 0 -28.098917296663888 8.3850832611624231 1 0 0 I I #
straight-curve $-1 40.313730277413249 -20.297802930222055 57.267608115589958 0 0 -1 I I #
point $-1 40.313730277413249 -20.297802930222055 8.3850832611624231 #
straight-curve $-1 40.313730277413249 -6.5954803791885031 0.78852594033806511 0 1 0 I I #
point $-1 40.313730277413242 -20.297802930222055 0.78852594033806866 #
point $-1 33.937405886430277 -16.236750260596313 1.9141554637816811 #
point $-1 33.937405886430277 -10.145171256157699 1.9141554637816811 #
straight-curve $-1 -40.313730277413249 12.208896190391677 24.948122392621777 0 0 -1 I I #
point $-1 -40.313730277413249 12.208896190391677 8.3850832611624231 #
straight-curve $-1 -40.313730277413249 4.3052575737311169 2.5046134495106163 0 -1 0 I I #
point $-1 -40.313730277413249 12.208896190391677 2.5046134495106136 #
point $-1 -34.524343885580421 7.0683518433496211 2.7906572535250822 #
point $-1 -34.524343885580421 10.152678451574854 2.7906572535250822 #
End-of-ACIS-data 