500 0 7 0           
7 Unknown 11 ACIS 5.0 NT 24 Thu Mar 25 21:41:49 1999 
-1 9.9999999999999995e-007 1e-010 
body $-1 $7 $-1 $8 #
body $-1 $9 $-1 $10 #
body $-1 $11 $-1 $12 #
body $-1 $13 $-1 $14 #
body $-1 $15 $-1 $16 #
body $-1 $17 $-1 $18 #
body $-1 $19 $-1 $20 #
lump $-1 $-1 $21 $0 #
transform $-1 1 0 0 0 1 0 0 0 1 71.214331492049922 38.876761384827411 15.359684363405215 1 rotate no_reflect no_shear #
lump $-1 $-1 $22 $1 #
transform $-1 1 0 0 0 1 0 0 0 1 71.214331492049922 38.876761384827411 15.359684363405215 1 rotate no_reflect no_shear #
lump $-1 $-1 $23 $2 #
transform $-1 1 0 0 0 1 0 0 0 1 71.214331492049922 38.876761384827411 15.359684363405215 1 rotate no_reflect no_shear #
lump $-1 $-1 $24 $3 #
transform $-1 1 0 0 0 1 0 0 0 1 71.214331492049922 38.876761384827411 15.359684363405215 1 rotate no_reflect no_shear #
lump $-1 $-1 $25 $4 #
transform $-1 1 0 0 0 1 0 0 0 1 71.214331492049922 38.876761384827411 15.359684363405215 1 rotate no_reflect no_shear #
lump $-1 $-1 $26 $5 #
transform $-1 1 0 0 0 1 0 0 0 1 71.214331492049922 38.876761384827411 15.359684363405215 1 rotate no_reflect no_shear #
lump $-1 $-1 $27 $6 #
transform $-1 1 0 0 0 1 0 0 0 1 71.214331492049922 38.876761384827411 15.359684363405215 1 rotate no_reflect no_shear #
shell $-1 $-1 $-1 $28 $-1 $7 #
shell $-1 $-1 $-1 $29 $-1 $9 #
shell $-1 $-1 $-1 $30 $-1 $11 #
shell $-1 $-1 $-1 $31 $-1 $13 #
shell $-1 $-1 $-1 $32 $-1 $15 #
shell $-1 $-1 $-1 $33 $-1 $17 #
shell $-1 $-1 $-1 $34 $-1 $19 #
face $-1 $35 $36 $21 $-1 $37 forward single #
face $-1 $38 $39 $22 $-1 $40 forward single #
face $-1 $41 $42 $23 $-1 $43 reversed single #
face $-1 $44 $45 $24 $-1 $46 forward single #
face $-1 $47 $48 $25 $-1 $49 forward single #
face $-1 $50 $51 $26 $-1 $52 reversed single #
face $-1 $53 $54 $27 $-1 $55 forward single #
face $-1 $56 $57 $21 $-1 $58 reversed single #
loop $-1 $-1 $59 $28 #
plane-surface $-1 0 0 15.359684363405215 0 0 1 1 0 0 forward_v I I I I #
face $-1 $60 $61 $22 $-1 $62 forward single #
loop $-1 $-1 $63 $29 #
plane-surface $-1 -71.214331492049922 0 0 1 0 0 0 0 -1 forward_v I I I I #
face $-1 $64 $65 $23 $-1 $66 reversed single #
loop $-1 $-1 $67 $30 #
plane-surface $-1 61.021133370993482 -38.876761384827418 0.26102180790053353 0 -0.68199836817093118 0.7313536940579346 1 0 0 forward_v I I I I #
face $-1 $68 $69 $24 $-1 $70 forward single #
loop $-1 $71 $72 $31 #
cone-surface $-1 56.652619890540734 -30.039028579146478 7.0145843776769308 0 0.68199836817093118 -0.7313536940579346 2 0 0 1 I I 0 1 2 forward I I I I #
face $-1 $73 $74 $25 $-1 $75 forward single #
loop $-1 $76 $77 $32 #
cone-surface $-1 65.389646851446258 -30.039028579146478 7.0145843776769308 0 0.68199836817093118 -0.7313536940579346 2 0 0 1 I I 0 1 2 forward I I I I #
face $-1 $78 $79 $26 $-1 $80 reversed single #
loop $-1 $-1 $81 $33 #
plane-surface $-1 8.7086192730162182 76.398012610959569 160.43658511076717 1 0 0 0 -0.66913061440640931 -0.74314481823134659 forward_v I I I I #
face $-1 $82 $83 $27 $-1 $84 forward single #
loop $-1 $85 $86 $34 #
cone-surface $-1 17.432955850315494 28.741994653485705 5.5975034245953683 0 -0.66913061440640931 -0.74314481823134659 4 0 0 1 I I 0 1 4 forward I I I I #
face $-1 $87 $88 $21 $-1 $89 reversed single #
loop $-1 $-1 $90 $35 #
plane-surface $-1 0 0 -15.359684363405215 0 0 1 1 0 0 forward_v I I I I #
coedge $-1 $91 $92 $93 $94 forward $36 $-1 #
face $-1 $95 $96 $22 $-1 $97 reversed single #
loop $-1 $-1 $98 $38 #
plane-surface $-1 0 0 15.359684363405215 0 0 1 1 0 0 forward_v I I I I #
coedge $-1 $99 $100 $101 $102 forward $39 $-1 #
face $-1 $103 $104 $23 $-1 $105 reversed single #
loop $-1 $-1 $106 $41 #
plane-surface $-1 50.827935249937049 -136.01287712075103 104.42675062105457 1 0 0 0 0.68199836817093118 -0.7313536940579346 forward_v I I I I #
coedge $-1 $107 $108 $109 $110 reversed $42 $-1 #
face $-1 $-1 $111 $24 $-1 $112 forward single #
loop $-1 $113 $114 $44 #
cone-surface $-1 56.652619890540734 -28.614963869217124 5.4874619756430576 0 0.68199836817093118 -0.7313536940579346 1 0 0 1 I I -0.70710678118654746 0.70710678118654746 1 forward I I I I #
loop $-1 $-1 $115 $31 #
coedge $-1 $72 $72 $116 $117 reversed $45 $-1 #
face $-1 $-1 $118 $25 $-1 $119 forward single #
loop $-1 $120 $121 $47 #
cone-surface $-1 65.389646851446258 -28.614963869217124 5.4874619756430576 0 0.68199836817093118 -0.7313536940579346 1 0 0 1 I I -0.70710678118654746 0.70710678118654746 1 forward I I I I #
loop $-1 $-1 $122 $32 #
coedge $-1 $77 $77 $123 $124 reversed $48 $-1 #
face $-1 $125 $126 $26 $-1 $127 reversed single #
loop $-1 $-1 $128 $50 #
plane-surface $-1 17.432955850315494 -18.905366160674561 54.591462246514567 0 0.66913061440640931 0.74314481823134659 1 0 0 forward_v I I I I #
coedge $-1 $129 $130 $131 $132 reversed $51 $-1 #
face $-1 $-1 $133 $27 $-1 $134 forward single #
loop $-1 $135 $136 $53 #
cone-surface $-1 17.432955850315494 24.374379192526725 0.74677513932908113 0 -0.66913061440640931 -0.74314481823134659 2 0 0 1 I I -0.70710678118654746 0.70710678118654746 2 forward I I I I #
loop $-1 $-1 $137 $34 #
coedge $-1 $86 $86 $138 $139 reversed $54 $-1 #
face $-1 $140 $141 $21 $-1 $142 reversed single #
loop $-1 $-1 $143 $56 #
plane-surface $-1 0 -38.876761384827411 0 0 1 0 0 0 1 forward_v I I I I #
coedge $-1 $144 $145 $146 $147 forward $57 $-1 #
coedge $-1 $148 $59 $149 $150 forward $36 $-1 #
coedge $-1 $59 $148 $151 $152 forward $36 $-1 #
coedge $-1 $153 $154 $59 $94 reversed $155 $-1 #
edge $-1 $156 -38.876761384827411 $157 38.876761384827411 $93 $158 forward 7 unknown #
face $-1 $159 $160 $22 $-1 $161 reversed single #
loop $-1 $-1 $162 $60 #
plane-surface $-1 -81.634804118797007 -35.294772552680406 0 1 0 0 0 0 -1 forward_v I I I I #
coedge $-1 $163 $164 $99 $165 forward $61 $-1 #
coedge $-1 $166 $63 $98 $165 reversed $39 $-1 #
coedge $-1 $63 $166 $167 $168 reversed $39 $-1 #
coedge $-1 $169 $170 $63 $102 reversed $160 $-1 #
edge $-1 $171 -15.359684363405215 $172 15.359684363405215 $101 $173 forward 7 unknown #
face $-1 $174 $175 $23 $-1 $176 forward single #
loop $-1 $-1 $177 $64 #
plane-surface $-1 0 -38.876761384827411 0 0 1 0 0 0 1 forward_v I I I I #
coedge $-1 $178 $179 $180 $181 reversed $65 $-1 #
coedge $-1 $182 $67 $183 $184 reversed $42 $-1 #
coedge $-1 $67 $182 $178 $185 forward $42 $-1 #
coedge $-1 $180 $186 $67 $110 forward $175 $-1 #
edge $-1 $187 -40.703764806553181 $188 -20.317368564440308 $109 $189 forward 7 unknown #
loop $-1 $-1 $116 $68 #
plane-surface $-1 61.021133370993482 -38.876761384827418 0.26102180790053353 0 -0.68199836817093118 0.7313536940579346 1 0 0 forward_v I I I I #
loop $-1 $-1 $190 $44 #
coedge $-1 $114 $114 $115 $191 reversed $69 $-1 #
coedge $-1 $115 $115 $114 $191 forward $71 $-1 #
coedge $-1 $116 $116 $72 $117 forward $111 $-1 #
edge $-1 $192 5.65886128540681e-016 $192 6.2831853071796013 $116 $193 forward 7 unknown #
loop $-1 $-1 $123 $73 #
plane-surface $-1 61.021133370993482 -38.876761384827418 0.26102180790053353 0 -0.68199836817093118 0.7313536940579346 1 0 0 forward_v I I I I #
loop $-1 $-1 $194 $47 #
coedge $-1 $121 $121 $122 $195 reversed $74 $-1 #
coedge $-1 $122 $122 $121 $195 forward $76 $-1 #
coedge $-1 $123 $123 $77 $124 forward $118 $-1 #
edge $-1 $196 5.65886128540681e-016 $196 6.2831853071796013 $123 $197 forward 7 unknown #
face $-1 $198 $199 $26 $-1 $200 forward single #
loop $-1 $-1 $201 $78 #
plane-surface $-1 26.15729242761477 76.398012610959569 160.43658511076717 -1 0 0 0 0.66913061440640931 0.74314481823134659 forward_v I I I I #
coedge $-1 $202 $203 $204 $205 reversed $79 $-1 #
coedge $-1 $130 $81 $206 $207 reversed $51 $-1 #
coedge $-1 $81 $129 $202 $208 reversed $51 $-1 #
coedge $-1 $204 $209 $81 $132 forward $199 $-1 #
edge $-1 $210 -0.67775507934762658 $211 13.533069919043449 $131 $212 forward 7 unknown #
loop $-1 $-1 $138 $82 #
plane-surface $-1 17.432955850315494 -18.905366160674561 54.591462246514567 0 0.66913061440640931 0.74314481823134659 1 0 0 forward_v I I I I #
loop $-1 $-1 $213 $53 #
coedge $-1 $136 $136 $137 $214 reversed $83 $-1 #
coedge $-1 $137 $137 $136 $214 forward $85 $-1 #
coedge $-1 $138 $138 $86 $139 forward $133 $-1 #
edge $-1 $215 -4.9436714160401623e-016 $215 6.2831853071795996 $138 $216 forward 7 unknown #
face $-1 $217 $218 $21 $-1 $219 reversed single #
loop $-1 $-1 $220 $87 #
plane-surface $-1 -71.214331492049922 0 0 1 0 0 0 0 -1 forward_v I I I I #
coedge $-1 $221 $151 $222 $223 forward $88 $-1 #
coedge $-1 $224 $90 $221 $225 forward $57 $-1 #
coedge $-1 $90 $224 $226 $227 forward $57 $-1 #
coedge $-1 $154 $153 $90 $147 reversed $155 $-1 #
edge $-1 $228 -38.876761384827411 $229 38.876761384827411 $146 $230 forward 7 unknown #
coedge $-1 $92 $91 $220 $231 forward $36 $-1 #
coedge $-1 $232 $233 $91 $150 reversed $218 $-1 #
edge $-1 $157 -71.214331492049922 $234 71.214331492049922 $149 $235 forward 7 unknown #
coedge $-1 $143 $236 $92 $152 reversed $88 $-1 #
edge $-1 $237 -71.214331492049922 $156 71.214331492049922 $151 $238 forward 7 unknown #
coedge $-1 $146 $93 $236 $239 forward $155 $-1 #
coedge $-1 $93 $146 $232 $240 reversed $155 $-1 #
loop $-1 $-1 $153 $217 #
vertex $-1 $94 $241 #
vertex $-1 $94 $242 #
straight-curve $-1 71.214331492049922 0 15.359684363405215 0 1 0 I I #
face $-1 $243 $244 $22 $-1 $245 reversed single #
loop $-1 $-1 $101 $95 #
plane-surface $-1 -76.424567805423465 -31.712783720533402 0 0 -1 0 0 0 -1 forward_v I I I I #
coedge $-1 $246 $247 $248 $249 forward $96 $-1 #
coedge $-1 $250 $98 $170 $251 forward $61 $-1 #
coedge $-1 $98 $250 $252 $253 forward $61 $-1 #
edge $-1 $254 -38.876761384827411 $172 -31.712783720533402 $98 $255 forward 7 unknown #
coedge $-1 $100 $99 $256 $257 reversed $39 $-1 #
coedge $-1 $258 $259 $100 $168 forward $244 $-1 #
edge $-1 $171 31.712783720533402 $260 38.876761384827411 $167 $261 forward 7 unknown #
coedge $-1 $248 $101 $259 $262 reversed $160 $-1 #
coedge $-1 $101 $248 $163 $251 reversed $160 $-1 #
vertex $-1 $168 $263 #
vertex $-1 $251 $264 #
straight-curve $-1 -71.214331492049922 -31.712783720533402 0 0 0 1 I I #
face $-1 $-1 $265 $23 $-1 $266 reversed single #
loop $-1 $-1 $180 $103 #
plane-surface $-1 0 0 15.359684363405215 0 0 1 1 0 0 forward_v I I I I #
coedge $-1 $267 $268 $179 $269 forward $104 $-1 #
coedge $-1 $179 $106 $108 $185 reversed $65 $-1 #
coedge $-1 $106 $178 $177 $269 reversed $65 $-1 #
coedge $-1 $270 $109 $106 $181 forward $175 $-1 #
edge $-1 $188 -45.321010103393107 $271 -29.129677175548103 $180 $272 forward 7 unknown #
coedge $-1 $108 $107 $267 $273 reversed $42 $-1 #
coedge $-1 $274 $275 $107 $184 forward $265 $-1 #
edge $-1 $276 -14.127323302378596 $187 8.0115310705404568 $183 $277 forward 7 unknown #
edge $-1 $278 9.7017437778877088e-015 $188 22.138854372919059 $178 $279 forward 7 unknown #
coedge $-1 $109 $270 $274 $280 forward $175 $-1 #
vertex $-1 $184 $281 #
vertex $-1 $110 $282 #
straight-curve $-1 30.510566685496741 -22.685428456982404 15.359684363405215 -1 0 0 I I #
coedge $-1 $190 $190 $-1 $283 reversed $113 $-1 #
edge $-1 $284 0 $284 6.2831853071796004 $114 $285 forward 7 unknown #
vertex $-1 $117 $286 #
ellipse-curve $-1 56.652619890540734 -30.781094920904909 7.8103530856528778 0 -0.68199836817093118 0.7313536940579346 2 0 0 1 I I #
coedge $-1 $194 $194 $-1 $287 reversed $120 $-1 #
edge $-1 $288 0 $288 6.2831853071796004 $121 $289 forward 7 unknown #
vertex $-1 $124 $290 #
ellipse-curve $-1 65.389646851446258 -30.781094920904909 7.8103530856528778 0 -0.68199836817093118 0.7313536940579346 2 0 0 1 I I #
face $-1 $-1 $291 $26 $-1 $292 reversed single #
loop $-1 $-1 $131 $125 #
plane-surface $-1 0 0 15.359684363405215 0 0 1 1 0 0 forward_v I I I I #
coedge $-1 $293 $294 $295 $296 reversed $126 $-1 #
coedge $-1 $297 $128 $130 $208 forward $79 $-1 #
coedge $-1 $128 $297 $293 $298 forward $79 $-1 #
coedge $-1 $295 $131 $128 $205 forward $199 $-1 #
edge $-1 $211 -0.0078586521415289212 $299 17.440814502457023 $204 $300 forward 7 unknown #
coedge $-1 $301 $302 $129 $207 forward $291 $-1 #
edge $-1 $303 -77.654092771990861 $210 -64.858608191978362 $206 $304 forward 7 unknown #
edge $-1 $211 58.63097135065648 $303 77.753522769654779 $130 $305 forward 7 unknown #
coedge $-1 $131 $295 $301 $306 forward $199 $-1 #
vertex $-1 $207 $307 #
vertex $-1 $132 $308 #
straight-curve $-1 8.7086192730162182 38.199006305479784 15.359684363405222 0 -1 0 I I #
coedge $-1 $213 $213 $-1 $309 reversed $135 $-1 #
edge $-1 $310 0 $310 6.2831853071796004 $136 $311 forward 7 unknown #
vertex $-1 $139 $312 #
ellipse-curve $-1 17.432955850315494 31.771348885631873 8.961942073398971 0 0.66913061440640931 0.74314481823134659 4 0 0 1 I I #
face $-1 $-1 $155 $21 $-1 $313 reversed single #
loop $-1 $-1 $232 $140 #
plane-surface $-1 0 38.876761384827411 0 0 -1 0 0 0 -1 forward_v I I I I #
coedge $-1 $314 $222 $148 $231 reversed $141 $-1 #
coedge $-1 $236 $143 $144 $225 reversed $88 $-1 #
coedge $-1 $220 $315 $143 $223 reversed $141 $-1 #
edge $-1 $237 -15.359684363405215 $316 15.359684363405215 $222 $317 forward 7 unknown #
coedge $-1 $145 $144 $315 $318 forward $57 $-1 #
edge $-1 $229 -71.214331492049922 $316 71.214331492049922 $221 $319 forward 7 unknown #
coedge $-1 $233 $232 $145 $227 reversed $218 $-1 #
edge $-1 $320 -71.214331492049922 $228 71.214331492049922 $226 $321 forward 7 unknown #
vertex $-1 $147 $322 #
vertex $-1 $239 $323 #
straight-curve $-1 71.214331492049922 0 -15.359684363405215 0 -1 0 I I #
edge $-1 $234 -38.876761384827411 $237 38.876761384827411 $220 $324 forward 7 unknown #
coedge $-1 $226 $149 $154 $240 forward $218 $-1 #
coedge $-1 $149 $226 $314 $325 reversed $218 $-1 #
vertex $-1 $150 $326 #
straight-curve $-1 0 38.876761384827411 15.359684363405215 -1 0 0 I I #
coedge $-1 $151 $221 $153 $239 reversed $88 $-1 #
vertex $-1 $231 $327 #
straight-curve $-1 0 -38.876761384827411 15.359684363405215 1 0 0 I I #
edge $-1 $156 -15.359684363405215 $229 15.359684363405215 $153 $328 forward 7 unknown #
edge $-1 $157 -15.359684363405215 $228 15.359684363405215 $154 $329 forward 7 unknown #
point $-1 71.214331492049922 -38.876761384827411 15.359684363405215 #
point $-1 71.214331492049922 38.876761384827411 15.359684363405215 #
face $-1 $-1 $330 $22 $-1 $331 reversed single #
loop $-1 $-1 $167 $159 #
plane-surface $-1 0 0 -15.359684363405215 0 0 1 1 0 0 forward_v I I I I #
coedge $-1 $332 $162 $333 $334 reversed $96 $-1 #
coedge $-1 $162 $332 $250 $335 reversed $96 $-1 #
coedge $-1 $170 $169 $162 $249 reversed $160 $-1 #
edge $-1 $336 -15.359684363405215 $337 15.359684363405215 $248 $338 forward 7 unknown #
coedge $-1 $164 $163 $247 $335 forward $61 $-1 #
edge $-1 $172 -5.2102363133735423 $336 5.2102363133735423 $170 $339 forward 7 unknown #
coedge $-1 $340 $256 $164 $253 reversed $330 $-1 #
edge $-1 $341 -81.634804118797007 $254 -71.214331492049922 $252 $342 forward 7 unknown #
vertex $-1 $257 $343 #
straight-curve $-1 -71.214331492049922 0 15.359684363405215 0 1 0 I I #
coedge $-1 $252 $344 $166 $257 forward $330 $-1 #
edge $-1 $260 -15.359684363405215 $254 15.359684363405215 $256 $345 forward 7 unknown #
coedge $-1 $333 $167 $344 $346 forward $244 $-1 #
coedge $-1 $167 $333 $169 $262 forward $244 $-1 #
vertex $-1 $346 $347 #
straight-curve $-1 -71.214331492049922 0 -15.359684363405215 0 -1 0 I I #
edge $-1 $337 -5.2102363133735423 $171 5.2102363133735423 $169 $348 forward 7 unknown #
point $-1 -71.214331492049922 -31.712783720533402 -15.359684363405215 #
point $-1 -71.214331492049922 -31.712783720533402 15.359684363405215 #
loop $-1 $-1 $183 $174 #
plane-surface $-1 71.214331492049922 0 0 -1 0 0 0 0 1 forward_v I I I I #
coedge $-1 $349 $177 $182 $273 forward $104 $-1 #
coedge $-1 $177 $349 $270 $350 reversed $104 $-1 #
edge $-1 $271 36.853690947122068 $278 51.952353502626742 $177 $351 forward 7 unknown #
coedge $-1 $186 $180 $268 $350 forward $175 $-1 #
vertex $-1 $350 $352 #
straight-curve $-1 50.827935249937049 -68.006438560375514 15.359684363405215 0 -1 0 I I #
edge $-1 $278 20.317368564440308 $276 40.703764806553181 $267 $353 forward 7 unknown #
coedge $-1 $275 $183 $186 $280 reversed $265 $-1 #
coedge $-1 $183 $274 $349 $354 forward $265 $-1 #
vertex $-1 $273 $355 #
straight-curve $-1 71.214331492049922 -28.544691300482086 9.8958332467459122 0 0.7313536940579346 0.68199836817093118 I I #
vertex $-1 $273 $356 #
straight-curve $-1 50.827935249937049 -38.876761384827418 0.26102180790053353 0 0.7313536940579346 0.68199836817093118 I I #
edge $-1 $357 -38.876761384827411 $187 -22.685428456982404 $274 $358 forward 7 unknown #
point $-1 71.214331492049922 -22.685428456982404 15.359684363405217 #
point $-1 50.827935249937049 -22.685428456982404 15.359684363405217 #
edge $-1 $359 1 $359 0 $190 $-1 forward 7 unknown #
vertex $-1 $191 $360 #
ellipse-curve $-1 56.652619890540734 -29.296962237388055 6.2188156697009926 0 -0.68199836817093118 0.7313536940579346 2 0 0 1 I I #
point $-1 58.652619890540734 -30.781094920904899 7.810353085652868 #
edge $-1 $361 1 $361 0 $194 $-1 forward 7 unknown #
vertex $-1 $195 $362 #
ellipse-curve $-1 65.389646851446258 -29.296962237388055 6.2188156697009926 0 -0.68199836817093118 0.7313536940579346 2 0 0 1 I I #
point $-1 67.389646851446258 -30.781094920904899 7.810353085652868 #
loop $-1 $-1 $206 $198 #
plane-surface $-1 0 38.876761384827411 0 0 -1 0 0 0 -1 forward_v I I I I #
coedge $-1 $294 $201 $203 $298 reversed $126 $-1 #
coedge $-1 $201 $293 $363 $364 reversed $126 $-1 #
coedge $-1 $209 $204 $201 $296 forward $199 $-1 #
edge $-1 $299 -13.533069919043449 $365 0.67775507934762658 $295 $366 forward 7 unknown #
coedge $-1 $203 $202 $302 $367 reversed $79 $-1 #
edge $-1 $368 -77.753522769654779 $299 -58.63097135065648 $293 $369 forward 7 unknown #
vertex $-1 $205 $370 #
straight-curve $-1 8.7164779251577471 24.66593638643635 15.359684363405211 1 0 0 I I #
coedge $-1 $363 $206 $209 $306 reversed $291 $-1 #
coedge $-1 $206 $363 $297 $367 forward $291 $-1 #
vertex $-1 $207 $371 #
straight-curve $-1 8.7086192730162182 38.876761384827411 80.218292555383584 0 0 1 I I #
straight-curve $-1 8.7086192730162182 -18.905366160674561 54.591462246514567 0 0.74314481823134659 -0.66913061440640931 I I #
edge $-1 $365 -26.15729242761477 $210 -8.7086192730162182 $301 $372 forward 7 unknown #
point $-1 8.7086192730162182 38.876761384827411 15.359684363405215 #
point $-1 8.7086192730162182 24.665936386436336 15.359684363405215 #
edge $-1 $373 1 $373 0 $213 $-1 forward 7 unknown #
vertex $-1 $214 $374 #
ellipse-curve $-1 17.432955850315494 25.712640421339543 2.2330647757917745 0 0.66913061440640931 0.74314481823134659 4 0 0 1 I I #
point $-1 21.432955850315494 31.771348885631863 8.9619420733989621 #
plane-surface $-1 71.214331492049922 0 0 -1 0 0 0 0 1 forward_v I I I I #
coedge $-1 $315 $220 $233 $325 forward $141 $-1 #
coedge $-1 $222 $314 $224 $318 reversed $141 $-1 #
vertex $-1 $318 $375 #
straight-curve $-1 -71.214331492049922 -38.876761384827411 0 0 0 -1 I I #
edge $-1 $316 -38.876761384827411 $320 38.876761384827411 $315 $376 forward 7 unknown #
straight-curve $-1 0 -38.876761384827411 -15.359684363405215 -1 0 0 I I #
vertex $-1 $227 $377 #
straight-curve $-1 0 38.876761384827411 -15.359684363405215 1 0 0 I I #
point $-1 71.214331492049922 38.876761384827411 -15.359684363405215 #
point $-1 71.214331492049922 -38.876761384827411 -15.359684363405215 #
straight-curve $-1 -71.214331492049922 0 15.359684363405215 0 -1 0 I I #
edge $-1 $234 -15.359684363405215 $320 15.359684363405215 $233 $378 forward 7 unknown #
point $-1 -71.214331492049922 38.876761384827411 15.359684363405215 #
point $-1 -71.214331492049922 -38.876761384827411 15.359684363405215 #
straight-curve $-1 71.214331492049922 -38.876761384827411 0 0 0 -1 I I #
straight-curve $-1 71.214331492049922 38.876761384827411 0 0 0 -1 I I #
loop $-1 $-1 $256 $243 #
plane-surface $-1 0 -38.876761384827411 0 0 1 0 0 0 1 forward_v I I I I #
coedge $-1 $247 $246 $340 $379 reversed $96 $-1 #
coedge $-1 $259 $258 $246 $334 forward $244 $-1 #
edge $-1 $380 -3.5819888321470046 $337 3.5819888321470046 $246 $381 forward 7 unknown #
edge $-1 $336 -3.5819888321470046 $341 3.5819888321470046 $247 $382 forward 7 unknown #
vertex $-1 $251 $383 #
vertex $-1 $262 $384 #
straight-curve $-1 -81.634804118797007 -31.712783720533402 0 0 0 -1 I I #
straight-curve $-1 -76.424567805423465 -31.712783720533402 15.359684363405215 -1 0 0 I I #
coedge $-1 $344 $252 $332 $379 forward $330 $-1 #
vertex $-1 $335 $385 #
straight-curve $-1 0 -38.876761384827411 15.359684363405215 1 0 0 I I #
point $-1 -71.214331492049922 -38.876761384827411 15.359684363405215 #
coedge $-1 $256 $340 $258 $346 reversed $330 $-1 #
straight-curve $-1 -71.214331492049922 -38.876761384827411 0 0 0 1 I I #
edge $-1 $260 -5.2102363133735423 $380 5.2102363133735423 $344 $386 forward 7 unknown #
point $-1 -71.214331492049922 -38.876761384827411 -15.359684363405215 #
straight-curve $-1 -76.424567805423465 -31.712783720533402 -15.359684363405215 1 0 0 I I #
coedge $-1 $268 $267 $275 $354 reversed $104 $-1 #
edge $-1 $271 50.827935249937049 $357 71.214331492049922 $268 $387 forward 7 unknown #
straight-curve $-1 50.827935249937049 -38.876761384827411 52.213375310527283 0 0 -1 I I #
point $-1 50.827935249937049 -38.876761384827411 15.359684363405215 #
straight-curve $-1 30.510566685496741 -38.876761384827411 0.26102180790054097 1 0 0 I I #
edge $-1 $357 -15.359684363405215 $276 -0.26102180790054014 $275 $388 forward 7 unknown #
point $-1 71.214331492049922 -38.876761384827411 0.26102180790054014 #
point $-1 50.827935249937049 -38.876761384827411 0.26102180790054014 #
vertex $-1 $280 $389 #
straight-curve $-1 71.214331492049922 0 15.359684363405215 0 1 0 I I #
vertex $-1 $283 $390 #
point $-1 58.652619890540734 -29.296962237388055 6.2188156697009926 #
vertex $-1 $287 $391 #
point $-1 67.389646851446258 -29.296962237388055 6.2188156697009926 #
coedge $-1 $302 $301 $294 $364 forward $291 $-1 #
edge $-1 $365 64.858608191978362 $368 77.654092771990861 $363 $392 forward 7 unknown #
vertex $-1 $306 $393 #
straight-curve $-1 26.15729242761477 38.199006305479784 15.359684363405222 0 1 0 I I #
edge $-1 $368 -17.440814502457023 $303 0.0078586521415289212 $302 $394 forward 7 unknown #
vertex $-1 $367 $395 #
straight-curve $-1 26.15729242761477 -18.905366160674561 54.591462246514567 0 -0.74314481823134659 0.66913061440640931 I I #
point $-1 26.15729242761477 24.665936386436336 15.359684363405215 #
point $-1 8.7086192730162182 38.876761384827411 2.5641997833927306 #
straight-curve $-1 0 38.876761384827411 15.359684363405215 -1 0 0 I I #
vertex $-1 $309 $396 #
point $-1 21.432955850315494 25.712640421339543 2.2330647757917745 #
point $-1 -71.214331492049922 -38.876761384827411 -15.359684363405215 #
straight-curve $-1 -71.214331492049922 0 -15.359684363405215 0 1 0 I I #
point $-1 -71.214331492049922 38.876761384827411 -15.359684363405215 #
straight-curve $-1 -71.214331492049922 38.876761384827411 0 0 0 -1 I I #
edge $-1 $341 -15.359684363405215 $380 15.359684363405215 $332 $397 forward 7 unknown #
vertex $-1 $334 $398 #
straight-curve $-1 -81.634804118797007 -35.294772552680406 -15.359684363405215 0 1 0 I I #
straight-curve $-1 -81.634804118797007 -35.294772552680406 15.359684363405215 0 -1 0 I I #
point $-1 -81.634804118797007 -31.712783720533402 15.359684363405215 #
point $-1 -81.634804118797007 -31.712783720533402 -15.359684363405215 #
point $-1 -81.634804118797007 -38.876761384827411 15.359684363405215 #
straight-curve $-1 -76.424567805423465 -38.876761384827411 -15.359684363405215 -1 0 0 I I #
straight-curve $-1 0 -38.876761384827411 15.359684363405215 1 0 0 I I #
straight-curve $-1 71.214331492049922 -38.876761384827411 0 0 0 -1 I I #
point $-1 71.214331492049922 -38.876761384827411 15.359684363405215 #
point $-1 56.652619890540734 -27.932965501046194 4.7561082815851226 #
point $-1 65.389646851446258 -27.932965501046194 4.7561082815851226 #
straight-curve $-1 26.15729242761477 38.876761384827411 80.218292555383584 0 0 -1 I I #
point $-1 26.15729242761477 38.876761384827411 15.359684363405215 #
straight-curve $-1 8.7164779251577471 38.876761384827404 2.564199783392727 -1 0 0 I I #
point $-1 26.15729242761477 38.876761384827411 2.5641997833927306 #
point $-1 17.432955850315494 23.036117963713906 -0.73951449713361206 #
straight-curve $-1 -81.634804118797007 -38.876761384827411 0 0 0 -1 I I #
point $-1 -81.634804118797007 -38.876761384827411 -15.359684363405215 #
End-of-ACIS-data 