500 0 5 0           
7 Unknown 11 ACIS 5.0 NT 24 Fri Mar 26 19:01:07 1999 
-1 9.9999999999999995e-007 1e-010 
body $-1 $5 $-1 $6 #
body $-1 $7 $-1 $8 #
body $-1 $9 $-1 $10 #
body $-1 $11 $-1 $12 #
body $-1 $13 $-1 $14 #
lump $-1 $-1 $15 $0 #
transform $-1 1 0 0 0 1 0 0 0 1 71.296121097445592 38.522577763659633 17.519325825327407 1 rotate no_reflect no_shear #
lump $-1 $-1 $16 $1 #
transform $-1 1 0 0 0 1 0 0 0 1 71.296121097445592 38.522577763659633 17.519325825327407 1 rotate no_reflect no_shear #
lump $-1 $-1 $17 $2 #
transform $-1 1 0 0 0 1 0 0 0 1 71.296121097445592 38.522577763659633 17.519325825327407 1 rotate no_reflect no_shear #
lump $-1 $-1 $18 $3 #
transform $-1 1 0 0 0 1 0 0 0 1 71.296121097445592 38.522577763659633 17.519325825327407 1 rotate no_reflect no_shear #
lump $-1 $-1 $19 $4 #
transform $-1 1 0 0 0 1 0 0 0 1 71.296121097445592 38.522577763659633 17.519325825327407 1 rotate no_reflect no_shear #
shell $-1 $-1 $-1 $20 $-1 $5 #
shell $-1 $-1 $-1 $21 $-1 $7 #
shell $-1 $-1 $-1 $22 $-1 $9 #
shell $-1 $-1 $-1 $23 $-1 $11 #
shell $-1 $-1 $-1 $24 $-1 $13 #
face $-1 $25 $26 $15 $-1 $27 forward single #
face $-1 $28 $29 $16 $-1 $30 reversed single #
face $-1 $31 $32 $17 $-1 $33 forward single #
face $-1 $34 $35 $18 $-1 $36 reversed single #
face $-1 $37 $38 $19 $-1 $39 forward single #
face $-1 $40 $41 $15 $-1 $42 reversed single #
loop $-1 $-1 $43 $20 #
plane-surface $-1 0 0 17.519325825327407 0 0 1 1 0 0 forward_v I I I I #
face $-1 $44 $45 $16 $-1 $46 reversed single #
loop $-1 $-1 $47 $21 #
plane-surface $-1 -168.54379758819559 -35.400094462401064 117.69160114340801 0 1 0 -0.68199836817093118 0 0.7313536940579346 forward_v I I I I #
face $-1 $48 $49 $17 $-1 $50 forward single #
loop $-1 $51 $52 $22 #
cone-surface $-1 -68.395345531749513 -28.022057374129364 14.717054286621364 0.68199836817093118 0 -0.7313536940579346 1.0970305410869019 0 1.0229975522563968 1 I I 0 1 1.5 forward I I I I #
face $-1 $53 $54 $18 $-1 $55 reversed single #
loop $-1 $-1 $56 $23 #
plane-surface $-1 53.720654924311447 31.978422576119453 214.62354580862987 0 -1 0 -0.64278761758704617 0 -0.76604443648966558 forward_v I I I I #
face $-1 $57 $58 $19 $-1 $59 forward single #
loop $-1 $60 $61 $24 #
cone-surface $-1 68.270983421311158 26.219963207114624 14.709333823252203 -0.64278761758704617 0 -0.76604443648966558 0.76604443648966558 0 -0.64278761758704617 1 I I 0 1 1 forward I I I I #
face $-1 $62 $63 $15 $-1 $64 reversed single #
loop $-1 $-1 $65 $25 #
plane-surface $-1 0 0 -17.519325825327407 0 0 1 1 0 0 forward_v I I I I #
coedge $-1 $66 $67 $68 $69 forward $26 $-1 #
face $-1 $70 $71 $16 $-1 $72 reversed single #
loop $-1 $-1 $73 $28 #
plane-surface $-1 -71.296121097445607 -28.022057374129368 13.406238070170645 -0.68199836817093118 0 0.7313536940579346 0.7313536940579346 0 0.68199836817093118 forward_v I I I I #
coedge $-1 $74 $75 $76 $77 reversed $29 $-1 #
face $-1 $-1 $78 $17 $-1 $79 forward single #
loop $-1 $80 $81 $31 #
cone-surface $-1 -67.188444446012284 -28.022057374129364 13.422811354950266 0.68199836817093118 0 -0.7313536940579346 0.54851527054345095 0 0.51149877612819838 1 I I -0.70710678118654757 0.70710678118654757 0.75 forward I I I I #
loop $-1 $-1 $82 $22 #
coedge $-1 $52 $52 $83 $84 reversed $32 $-1 #
face $-1 $85 $86 $18 $-1 $87 reversed single #
loop $-1 $-1 $88 $34 #
plane-surface $-1 -37.935872722537738 26.219963207114624 105.39155198864654 0.64278761758704617 0 0.76604443648966558 0.76604443648966558 0 -0.64278761758704617 forward_v I I I I #
coedge $-1 $89 $90 $91 $92 reversed $35 $-1 #
face $-1 $-1 $93 $19 $-1 $94 forward single #
loop $-1 $95 $96 $37 #
cone-surface $-1 67.17942933338108 26.219963207114624 13.408470344697172 -0.64278761758704617 0 -0.76604443648966558 0.38302221824483279 0 -0.32139380879352308 1 I I -0.70710678118654746 0.70710678118654746 0.5 forward I I I I #
loop $-1 $-1 $97 $24 #
coedge $-1 $61 $61 $98 $99 reversed $38 $-1 #
face $-1 $100 $101 $15 $-1 $102 reversed single #
loop $-1 $-1 $103 $40 #
plane-surface $-1 0 -38.522577763659633 0 0 1 0 0 0 1 forward_v I I I I #
coedge $-1 $104 $105 $106 $107 forward $41 $-1 #
coedge $-1 $108 $43 $109 $110 forward $26 $-1 #
coedge $-1 $43 $108 $111 $112 forward $26 $-1 #
coedge $-1 $113 $114 $43 $69 reversed $115 $-1 #
edge $-1 $116 -38.522577763659633 $117 38.522577763659633 $68 $118 forward 7 unknown #
face $-1 $119 $120 $16 $-1 $121 reversed single #
loop $-1 $-1 $122 $44 #
plane-surface $-1 -168.54379758819559 -20.644020285857671 117.69160114340801 0 -1 0 0.68199836817093118 0 -0.7313536940579346 forward_v I I I I #
coedge $-1 $123 $124 $125 $126 reversed $45 $-1 #
coedge $-1 $75 $47 $127 $128 reversed $29 $-1 #
coedge $-1 $47 $74 $123 $129 reversed $29 $-1 #
coedge $-1 $125 $130 $47 $77 forward $131 $-1 #
edge $-1 $132 12.975777696652202 $133 17.386524208826273 $76 $134 forward 7 unknown #
loop $-1 $-1 $83 $48 #
plane-surface $-1 -71.296121097445607 -28.022057374129368 13.406238070170645 -0.68199836817093118 0 0.7313536940579346 0.7313536940579346 0 0.68199836817093118 forward_v I I I I #
loop $-1 $-1 $135 $31 #
coedge $-1 $81 $81 $82 $136 reversed $49 $-1 #
coedge $-1 $82 $82 $81 $136 forward $51 $-1 #
coedge $-1 $83 $83 $52 $84 forward $78 $-1 #
edge $-1 $137 0 $137 6.2831853071796004 $83 $138 forward 7 unknown #
face $-1 $139 $140 $18 $-1 $141 forward single #
loop $-1 $-1 $142 $53 #
plane-surface $-1 53.720654924311447 20.461503838109795 214.62354580862987 0 1 0 0.64278761758704617 0 0.76604443648966558 forward_v I I I I #
coedge $-1 $143 $144 $145 $146 reversed $54 $-1 #
coedge $-1 $90 $56 $147 $148 reversed $35 $-1 #
coedge $-1 $56 $89 $143 $149 reversed $35 $-1 #
coedge $-1 $145 $150 $56 $92 forward $140 $-1 #
edge $-1 $151 -44.435793635289869 $152 -39.925838841294166 $91 $153 forward 7 unknown #
loop $-1 $-1 $98 $57 #
plane-surface $-1 -37.935872722537738 26.219963207114624 105.39155198864654 0.64278761758704617 0 0.76604443648966558 0.76604443648966558 0 -0.64278761758704617 forward_v I I I I #
loop $-1 $-1 $154 $37 #
coedge $-1 $96 $96 $97 $155 reversed $58 $-1 #
coedge $-1 $97 $97 $96 $155 forward $60 $-1 #
coedge $-1 $98 $98 $61 $99 forward $93 $-1 #
edge $-1 $156 0 $156 6.2831853071796004 $98 $157 forward 7 unknown #
face $-1 $158 $159 $15 $-1 $160 reversed single #
loop $-1 $-1 $161 $62 #
plane-surface $-1 -71.296121097445592 0 0 1 0 0 0 0 -1 forward_v I I I I #
coedge $-1 $162 $111 $163 $164 forward $63 $-1 #
coedge $-1 $165 $65 $162 $166 forward $41 $-1 #
coedge $-1 $65 $165 $167 $168 forward $41 $-1 #
coedge $-1 $114 $113 $65 $107 reversed $115 $-1 #
edge $-1 $169 -38.522577763659633 $170 38.522577763659633 $106 $171 forward 7 unknown #
coedge $-1 $67 $66 $172 $173 forward $26 $-1 #
coedge $-1 $174 $175 $66 $110 reversed $159 $-1 #
edge $-1 $117 -71.296121097445592 $176 71.296121097445592 $109 $177 forward 7 unknown #
coedge $-1 $103 $178 $67 $112 reversed $63 $-1 #
edge $-1 $179 -71.296121097445592 $116 71.296121097445592 $111 $180 forward 7 unknown #
coedge $-1 $106 $68 $178 $181 forward $115 $-1 #
coedge $-1 $68 $106 $174 $182 reversed $115 $-1 #
loop $-1 $-1 $113 $158 #
vertex $-1 $69 $183 #
vertex $-1 $69 $184 #
straight-curve $-1 71.296121097445592 0 17.519325825327407 0 1 0 I I #
face $-1 $-1 $131 $16 $-1 $185 forward single #
loop $-1 $-1 $186 $70 #
plane-surface $-1 -71.296121097445592 0 0 1 0 0 0 0 -1 forward_v I I I I #
coedge $-1 $187 $188 $189 $190 reversed $71 $-1 #
coedge $-1 $191 $73 $75 $129 forward $45 $-1 #
coedge $-1 $73 $191 $187 $192 forward $45 $-1 #
coedge $-1 $189 $76 $73 $126 forward $131 $-1 #
edge $-1 $133 -21.38906577533638 $193 -6.6329915987929873 $125 $194 forward 7 unknown #
coedge $-1 $195 $196 $74 $128 forward $120 $-1 #
edge $-1 $197 -45.439562501533345 $132 -41.326474746376597 $127 $198 forward 7 unknown #
edge $-1 $133 -6.0309348923924189 $197 -1.8873468352005311e-014 $75 $199 forward 7 unknown #
coedge $-1 $76 $189 $195 $200 forward $131 $-1 #
loop $-1 $-1 $189 $119 #
vertex $-1 $128 $201 #
vertex $-1 $77 $202 #
straight-curve $-1 -84.271898794097794 -35.400094462401064 17.519325825327407 1 0 0 I I #
coedge $-1 $135 $135 $-1 $203 reversed $80 $-1 #
edge $-1 $204 0 $204 6.2831853071796004 $81 $205 forward 7 unknown #
vertex $-1 $84 $206 #
ellipse-curve $-1 -69.090747841358549 -28.022057374129364 15.462781947749031 -0.68199836817093118 0 0.7313536940579346 1.0970305410869019 0 1.0229975522563968 1 I I #
face $-1 $-1 $207 $18 $-1 $208 reversed single #
loop $-1 $-1 $91 $85 #
plane-surface $-1 0 0 17.519325825327407 0 0 1 1 0 0 forward_v I I I I #
coedge $-1 $209 $210 $211 $212 reversed $86 $-1 #
coedge $-1 $213 $88 $90 $149 forward $54 $-1 #
coedge $-1 $88 $213 $209 $214 forward $54 $-1 #
coedge $-1 $211 $91 $88 $146 forward $140 $-1 #
edge $-1 $152 -18.868440972562141 $215 -7.3515222345524833 $145 $216 forward 7 unknown #
coedge $-1 $217 $218 $89 $148 forward $207 $-1 #
edge $-1 $219 -93.576748562517579 $151 -89.792447078987522 $147 $220 forward 7 unknown #
edge $-1 $152 136.70491428130146 $219 142.59224219489118 $90 $221 forward 7 unknown #
coedge $-1 $91 $211 $217 $222 forward $140 $-1 #
vertex $-1 $148 $223 #
vertex $-1 $92 $224 #
straight-curve $-1 26.860327462155723 31.978422576119453 17.5193258253274 -1 0 0 I I #
coedge $-1 $154 $154 $-1 $225 reversed $95 $-1 #
edge $-1 $226 0 $226 6.2831853071796004 $96 $227 forward 7 unknown #
vertex $-1 $99 $228 #
ellipse-curve $-1 69.041143700447705 26.219963207114624 15.627175083562397 0.64278761758704617 0 0.76604443648966558 0.76604443648966558 0 -0.64278761758704617 1 I I #
face $-1 $-1 $115 $15 $-1 $229 reversed single #
loop $-1 $-1 $174 $100 #
plane-surface $-1 0 38.522577763659633 0 0 -1 0 0 0 -1 forward_v I I I I #
coedge $-1 $230 $172 $175 $231 forward $101 $-1 #
coedge $-1 $178 $103 $104 $166 reversed $63 $-1 #
coedge $-1 $172 $230 $103 $164 reversed $101 $-1 #
edge $-1 $179 -17.519325825327407 $232 17.519325825327407 $163 $233 forward 7 unknown #
coedge $-1 $105 $104 $230 $234 forward $41 $-1 #
edge $-1 $170 -71.296121097445592 $232 71.296121097445592 $162 $235 forward 7 unknown #
coedge $-1 $175 $174 $105 $168 reversed $159 $-1 #
edge $-1 $236 -71.296121097445592 $169 71.296121097445592 $167 $237 forward 7 unknown #
vertex $-1 $107 $238 #
vertex $-1 $181 $239 #
straight-curve $-1 71.296121097445592 0 -17.519325825327407 0 -1 0 I I #
coedge $-1 $161 $163 $108 $173 reversed $101 $-1 #
edge $-1 $176 -38.522577763659633 $179 38.522577763659633 $172 $240 forward 7 unknown #
coedge $-1 $167 $109 $114 $182 forward $159 $-1 #
coedge $-1 $109 $167 $161 $231 reversed $159 $-1 #
vertex $-1 $110 $241 #
straight-curve $-1 0 38.522577763659633 17.519325825327407 -1 0 0 I I #
coedge $-1 $111 $162 $113 $181 reversed $63 $-1 #
vertex $-1 $173 $242 #
straight-curve $-1 0 -38.522577763659633 17.519325825327407 1 0 0 I I #
edge $-1 $116 -17.519325825327407 $170 17.519325825327407 $113 $243 forward 7 unknown #
edge $-1 $117 -17.519325825327407 $169 17.519325825327407 $114 $244 forward 7 unknown #
point $-1 71.296121097445592 -38.522577763659633 17.519325825327407 #
point $-1 71.296121097445592 38.522577763659633 17.519325825327407 #
plane-surface $-1 0 0 17.519325825327407 0 0 1 1 0 0 forward_v I I I I #
coedge $-1 $196 $195 $188 $245 forward $120 $-1 #
coedge $-1 $188 $122 $124 $192 reversed $71 $-1 #
coedge $-1 $122 $187 $186 $245 reversed $71 $-1 #
coedge $-1 $130 $125 $122 $190 forward $131 $-1 #
edge $-1 $193 -17.386524208826273 $246 -12.975777696652202 $189 $247 forward 7 unknown #
coedge $-1 $124 $123 $196 $248 reversed $45 $-1 #
edge $-1 $249 1.8873468352005311e-014 $193 6.0309348923924189 $187 $250 forward 7 unknown #
vertex $-1 $126 $251 #
straight-curve $-1 -66.885374585271521 -14.011028687064684 17.519325825327407 0 1 0 I I #
coedge $-1 $186 $127 $130 $200 reversed $120 $-1 #
coedge $-1 $127 $186 $191 $248 forward $120 $-1 #
vertex $-1 $128 $252 #
straight-curve $-1 -71.296121097445592 -35.400094462401064 58.845800571704004 0 0 1 I I #
straight-curve $-1 -71.296121097445607 -35.400094462401064 13.406238070170645 -0.7313536940579346 0 -0.68199836817093118 I I #
edge $-1 $246 20.644020285857671 $132 35.400094462401064 $195 $253 forward 7 unknown #
point $-1 -71.296121097445592 -35.400094462401064 17.519325825327407 #
point $-1 -66.885374585271521 -35.400094462401064 17.519325825327407 #
edge $-1 $254 1 $254 0 $135 $-1 forward 7 unknown #
vertex $-1 $136 $255 #
ellipse-curve $-1 -67.699943222140476 -28.022057374129364 13.971326625493717 -0.68199836817093118 0 0.7313536940579346 1.0970305410869019 0 1.0229975522563968 1 I I #
point $-1 -67.993717300271626 -28.022057374129364 16.48577950000541 #
loop $-1 $-1 $147 $139 #
plane-surface $-1 71.296121097445592 0 0 -1 0 0 0 0 1 forward_v I I I I #
coedge $-1 $210 $142 $144 $214 reversed $86 $-1 #
coedge $-1 $142 $209 $256 $257 reversed $86 $-1 #
coedge $-1 $150 $145 $142 $212 forward $140 $-1 #
edge $-1 $215 39.925838841294166 $258 44.435793635289869 $211 $259 forward 7 unknown #
coedge $-1 $144 $143 $218 $260 reversed $54 $-1 #
edge $-1 $261 -142.59224219489118 $215 -136.70491428130146 $209 $262 forward 7 unknown #
vertex $-1 $146 $263 #
straight-curve $-1 66.786166303449875 13.109981603557312 17.519325825327414 0 -1 0 I I #
coedge $-1 $256 $147 $150 $222 reversed $207 $-1 #
coedge $-1 $147 $256 $213 $260 forward $207 $-1 #
vertex $-1 $148 $264 #
straight-curve $-1 71.296121097445592 31.978422576119453 107.31177290431494 0 0 1 I I #
straight-curve $-1 -37.935872722537738 31.978422576119453 105.39155198864654 0.76604443648966558 0 -0.64278761758704617 I I #
edge $-1 $258 20.461503838109795 $151 31.978422576119453 $217 $265 forward 7 unknown #
point $-1 71.296121097445592 31.978422576119453 17.519325825327407 #
point $-1 66.786166303449889 31.978422576119453 17.5193258253274 #
edge $-1 $266 1 $266 0 $154 $-1 forward 7 unknown #
vertex $-1 $155 $267 #
ellipse-curve $-1 67.500823142174596 26.219963207114624 13.791492562942004 0.64278761758704617 0 0.76604443648966558 0.76604443648966558 0 -0.64278761758704617 1 I I #
point $-1 69.80718813693737 26.219963207114624 14.984387465975356 #
plane-surface $-1 71.296121097445592 0 0 -1 0 0 0 0 1 forward_v I I I I #
coedge $-1 $163 $161 $165 $234 reversed $101 $-1 #
edge $-1 $176 -17.519325825327407 $236 17.519325825327407 $175 $268 forward 7 unknown #
vertex $-1 $234 $269 #
straight-curve $-1 -71.296121097445592 -38.522577763659633 0 0 0 -1 I I #
edge $-1 $232 -38.522577763659633 $236 38.522577763659633 $230 $270 forward 7 unknown #
straight-curve $-1 0 -38.522577763659633 -17.519325825327407 -1 0 0 I I #
vertex $-1 $168 $271 #
straight-curve $-1 0 38.522577763659633 -17.519325825327407 1 0 0 I I #
point $-1 71.296121097445592 38.522577763659633 -17.519325825327407 #
point $-1 71.296121097445592 -38.522577763659633 -17.519325825327407 #
straight-curve $-1 -71.296121097445592 0 17.519325825327407 0 -1 0 I I #
point $-1 -71.296121097445592 38.522577763659633 17.519325825327407 #
point $-1 -71.296121097445592 -38.522577763659633 17.519325825327407 #
straight-curve $-1 71.296121097445592 -38.522577763659633 0 0 0 -1 I I #
straight-curve $-1 71.296121097445592 38.522577763659633 0 0 0 -1 I I #
edge $-1 $246 41.326474746376597 $249 45.439562501533345 $186 $272 forward 7 unknown #
vertex $-1 $200 $273 #
straight-curve $-1 -84.271898794097794 -20.644020285857671 17.519325825327407 -1 0 0 I I #
edge $-1 $249 6.6329915987929873 $197 21.38906577533638 $196 $274 forward 7 unknown #
vertex $-1 $248 $275 #
straight-curve $-1 -71.296121097445607 -20.644020285857671 13.406238070170645 0.7313536940579346 0 0.68199836817093118 I I #
point $-1 -66.885374585271521 -20.644020285857671 17.519325825327407 #
point $-1 -71.296121097445592 -35.400094462401064 13.406238070170657 #
straight-curve $-1 -71.296121097445592 0 17.519325825327407 0 -1 0 I I #
vertex $-1 $203 $276 #
point $-1 -66.602912681053581 -28.022057374129364 14.994324177750114 #
coedge $-1 $218 $217 $210 $257 forward $207 $-1 #
edge $-1 $258 89.792447078987522 $261 93.576748562517579 $256 $277 forward 7 unknown #
vertex $-1 $222 $278 #
straight-curve $-1 26.860327462155723 20.461503838109795 17.5193258253274 1 0 0 I I #
edge $-1 $261 7.3515222345524833 $219 18.868440972562141 $218 $279 forward 7 unknown #
vertex $-1 $260 $280 #
straight-curve $-1 -37.935872722537738 20.461503838109795 105.39155198864654 -0.76604443648966558 0 0.64278761758704617 I I #
point $-1 66.786166303449889 20.461503838109795 17.5193258253274 #
point $-1 71.296121097445592 31.978422576119453 13.735024341797356 #
straight-curve $-1 71.296121097445592 0 17.519325825327407 0 1 0 I I #
vertex $-1 $225 $281 #
point $-1 68.266867578664275 26.219963207114624 13.148704945354957 #
straight-curve $-1 -71.296121097445592 38.522577763659633 0 0 0 -1 I I #
point $-1 -71.296121097445592 -38.522577763659633 -17.519325825327407 #
straight-curve $-1 -71.296121097445592 0 -17.519325825327407 0 1 0 I I #
point $-1 -71.296121097445592 38.522577763659633 -17.519325825327407 #
straight-curve $-1 -71.296121097445592 -20.644020285857671 58.845800571704004 0 0 -1 I I #
point $-1 -71.296121097445592 -20.644020285857671 17.519325825327407 #
straight-curve $-1 -71.296121097445592 -14.011028687064684 13.406238070170652 0 -1 0 I I #
point $-1 -71.296121097445592 -20.644020285857671 13.406238070170657 #
point $-1 -66.676945669884091 -28.022057374129364 12.874296084406815 #
straight-curve $-1 71.296121097445592 20.461503838109795 107.31177290431494 0 0 -1 I I #
point $-1 71.296121097445592 20.461503838109795 17.519325825327407 #
straight-curve $-1 71.296121097445578 13.109981603557312 13.73502434179737 0 1 0 I I #
point $-1 71.296121097445592 20.461503838109795 13.735024341797356 #
point $-1 66.858035524587564 26.219963207114624 13.025448126452339 #
End-of-ACIS-data 