500 0 18 0           
7 Unknown 11 ACIS 5.0 NT 24 Fri Mar 26 01:01:45 1999 
-1 9.9999999999999995e-007 1e-010 
body $-1 $18 $-1 $19 #
body $-1 $20 $-1 $21 #
body $-1 $22 $-1 $23 #
body $-1 $24 $-1 $25 #
body $-1 $26 $-1 $27 #
body $-1 $28 $-1 $29 #
body $-1 $30 $-1 $31 #
body $-1 $32 $-1 $33 #
body $-1 $34 $-1 $35 #
body $-1 $36 $-1 $37 #
body $-1 $38 $-1 $39 #
body $-1 $40 $-1 $41 #
body $-1 $42 $-1 $43 #
body $-1 $44 $-1 $45 #
body $-1 $46 $-1 $47 #
body $-1 $48 $-1 $49 #
body $-1 $50 $-1 $51 #
body $-1 $52 $-1 $53 #
lump $-1 $-1 $54 $0 #
transform $-1 1 0 0 0 1 0 0 0 1 56.233405560472427 24.050262322594701 11.412993377031352 1 rotate no_reflect no_shear #
lump $-1 $-1 $55 $1 #
transform $-1 1 0 0 0 1 0 0 0 1 56.233405560472427 24.050262322594701 11.412993377031352 1 rotate no_reflect no_shear #
lump $-1 $-1 $56 $2 #
transform $-1 1 0 0 0 1 0 0 0 1 56.233405560472427 24.050262322594701 11.412993377031352 1 rotate no_reflect no_shear #
lump $-1 $-1 $57 $3 #
transform $-1 1 0 0 0 1 0 0 0 1 56.233405560472427 24.050262322594701 11.412993377031352 1 rotate no_reflect no_shear #
lump $-1 $-1 $58 $4 #
transform $-1 1 0 0 0 1 0 0 0 1 56.233405560472427 24.050262322594701 11.412993377031352 1 rotate no_reflect no_shear #
lump $-1 $-1 $59 $5 #
transform $-1 1 0 0 0 1 0 0 0 1 56.233405560472427 24.050262322594701 11.412993377031352 1 rotate no_reflect no_shear #
lump $-1 $-1 $60 $6 #
transform $-1 1 0 0 0 1 0 0 0 1 56.233405560472427 24.050262322594701 11.412993377031352 1 rotate no_reflect no_shear #
lump $-1 $-1 $61 $7 #
transform $-1 1 0 0 0 1 0 0 0 1 56.233405560472427 24.050262322594701 11.412993377031352 1 rotate no_reflect no_shear #
lump $-1 $-1 $62 $8 #
transform $-1 1 0 0 0 1 0 0 0 1 56.233405560472427 24.050262322594701 11.412993377031352 1 rotate no_reflect no_shear #
lump $-1 $-1 $63 $9 #
transform $-1 1 0 0 0 1 0 0 0 1 56.233405560472427 24.050262322594701 11.412993377031352 1 rotate no_reflect no_shear #
lump $-1 $-1 $64 $10 #
transform $-1 1 0 0 0 1 0 0 0 1 56.233405560472427 24.050262322594701 11.412993377031352 1 rotate no_reflect no_shear #
lump $-1 $-1 $65 $11 #
transform $-1 1 0 0 0 1 0 0 0 1 56.233405560472427 24.050262322594701 11.412993377031352 1 rotate no_reflect no_shear #
lump $-1 $-1 $66 $12 #
transform $-1 1 0 0 0 1 0 0 0 1 56.233405560472427 24.050262322594701 11.412993377031352 1 rotate no_reflect no_shear #
lump $-1 $-1 $67 $13 #
transform $-1 1 0 0 0 1 0 0 0 1 56.233405560472427 24.050262322594701 11.412993377031352 1 rotate no_reflect no_shear #
lump $-1 $-1 $68 $14 #
transform $-1 1 0 0 0 1 0 0 0 1 56.233405560472427 24.050262322594701 11.412993377031352 1 rotate no_reflect no_shear #
lump $-1 $-1 $69 $15 #
transform $-1 1 0 0 0 1 0 0 0 1 56.233405560472427 24.050262322594701 11.412993377031352 1 rotate no_reflect no_shear #
lump $-1 $-1 $70 $16 #
transform $-1 1 0 0 0 1 0 0 0 1 56.233405560472427 24.050262322594701 11.412993377031352 1 rotate no_reflect no_shear #
lump $-1 $-1 $71 $17 #
transform $-1 1 0 0 0 1 0 0 0 1 56.233405560472427 24.050262322594701 11.412993377031352 1 rotate no_reflect no_shear #
shell $-1 $-1 $-1 $72 $-1 $18 #
shell $-1 $-1 $-1 $73 $-1 $20 #
shell $-1 $-1 $-1 $74 $-1 $22 #
shell $-1 $-1 $-1 $75 $-1 $24 #
shell $-1 $-1 $-1 $76 $-1 $26 #
shell $-1 $-1 $-1 $77 $-1 $28 #
shell $-1 $-1 $-1 $78 $-1 $30 #
shell $-1 $-1 $-1 $79 $-1 $32 #
shell $-1 $-1 $-1 $80 $-1 $34 #
shell $-1 $-1 $-1 $81 $-1 $36 #
shell $-1 $-1 $-1 $82 $-1 $38 #
shell $-1 $-1 $-1 $83 $-1 $40 #
shell $-1 $-1 $-1 $84 $-1 $42 #
shell $-1 $-1 $-1 $85 $-1 $44 #
shell $-1 $-1 $-1 $86 $-1 $46 #
shell $-1 $-1 $-1 $87 $-1 $48 #
shell $-1 $-1 $-1 $88 $-1 $50 #
shell $-1 $-1 $-1 $89 $-1 $52 #
face $-1 $90 $91 $54 $-1 $92 forward single #
face $-1 $93 $94 $55 $-1 $95 forward single #
face $-1 $96 $97 $56 $-1 $98 forward single #
face $-1 $99 $100 $57 $-1 $101 reversed single #
face $-1 $102 $103 $58 $-1 $104 forward single #
face $-1 $105 $106 $59 $-1 $107 forward single #
face $-1 $108 $109 $60 $-1 $110 reversed single #
face $-1 $111 $112 $61 $-1 $113 forward single #
face $-1 $114 $115 $62 $-1 $116 forward single #
face $-1 $117 $118 $63 $-1 $119 reversed single #
face $-1 $120 $121 $64 $-1 $122 forward single #
face $-1 $123 $124 $65 $-1 $125 forward single #
face $-1 $126 $127 $66 $-1 $128 reversed single #
face $-1 $129 $130 $67 $-1 $131 forward single #
face $-1 $132 $133 $68 $-1 $134 forward single #
face $-1 $135 $136 $69 $-1 $137 reversed single #
face $-1 $138 $139 $70 $-1 $140 forward single #
face $-1 $141 $142 $71 $-1 $143 forward single #
face $-1 $144 $145 $54 $-1 $146 reversed single #
loop $-1 $-1 $147 $72 #
plane-surface $-1 0 0 11.412993377031352 0 0 1 1 0 0 forward_v I I I I #
face $-1 $148 $149 $55 $-1 $150 reversed single #
loop $-1 $-1 $151 $73 #
plane-surface $-1 0 -17.652504028016288 -6.0379809805448756 0 0 1 1 0 0 forward_v I I I I #
face $-1 $152 $153 $56 $-1 $154 reversed single #
loop $-1 $-1 $155 $74 #
plane-surface $-1 0 17.652504028016285 -6.0379809805448756 0 0 1 1 0 0 forward_v I I I I #
face $-1 $156 $157 $57 $-1 $158 reversed single #
loop $-1 $-1 $159 $75 #
plane-surface $-1 -112.46681187433038 -2.4820327671889437 97.441735913401473 0 -1 0 0.50000000669873634 0 -0.8660253999169214 forward_v I I I I #
face $-1 $160 $161 $58 $-1 $162 forward single #
loop $-1 $163 $164 $76 #
cone-surface $-1 -46.13637426113506 -6.5429708618714493 5.2947944060593883 0.50000000669873634 0 -0.8660253999169214 0.4330126999584607 0 0.25000000334936817 1 I I 0 1 0.5 forward I I I I #
face $-1 $165 $166 $59 $-1 $167 forward single #
loop $-1 $168 $169 $77 #
cone-surface $-1 -46.13637426113506 -4.1064080050619438 5.2947944060593883 0.50000000669873634 0 -0.8660253999169214 0.4330126999584607 0 0.25000000334936817 1 I I 0 1 0.5 forward I I I I #
face $-1 $170 $171 $60 $-1 $172 reversed single #
loop $-1 $-1 $173 $78 #
plane-surface $-1 -112.46681187433038 8.7727129662489283 97.441735913401473 0 -1 0 0.50000000669873634 0 -0.8660253999169214 forward_v I I I I #
face $-1 $174 $175 $61 $-1 $176 forward single #
loop $-1 $177 $178 $79 #
cone-surface $-1 -46.13637426113506 4.7117748715664227 5.2947944060593883 0.50000000669873634 0 -0.8660253999169214 0.4330126999584607 0 0.25000000334936817 1 I I 0 1 0.5 forward I I I I #
face $-1 $179 $180 $62 $-1 $181 forward single #
loop $-1 $182 $183 $80 #
cone-surface $-1 -46.13637426113506 7.1483377283759317 5.2947944060593883 0.50000000669873634 0 -0.8660253999169214 0.4330126999584607 0 0.25000000334936817 1 I I 0 1 0.5 forward I I I I #
face $-1 $184 $185 $63 $-1 $186 reversed single #
loop $-1 $-1 $187 $81 #
plane-surface $-1 23.164618006515461 -5.3199579806835375 161.15307395240728 0 -1 0 -0.54463904215088732 0 -0.83867056331134215 forward_v I I I I #
face $-1 $188 $189 $64 $-1 $190 forward single #
loop $-1 $191 $192 $82 #
cone-surface $-1 51.271958407104997 -9.4637775047847672 7.7743826324871588 -0.54463904215088732 0 -0.83867056331134215 0.41933528165567108 0 -0.27231952107544366 1 I I 0 1 0.5 forward I I I I #
face $-1 $193 $194 $65 $-1 $195 forward single #
loop $-1 $196 $197 $83 #
cone-surface $-1 51.271958407104997 -6.9774857903240282 7.7743826324871588 -0.54463904215088732 0 -0.83867056331134215 0.41933528165567108 0 -0.27231952107544366 1 I I 0 1 0.5 forward I I I I #
face $-1 $198 $199 $66 $-1 $200 reversed single #
loop $-1 $-1 $201 $84 #
plane-surface $-1 23.164618006515461 2.1832058416083795 161.15307395240728 0 -1 0 -0.54463904215088732 0 -0.83867056331134215 forward_v I I I I #
face $-1 $202 $203 $67 $-1 $204 forward single #
loop $-1 $205 $206 $85 #
cone-surface $-1 51.271958407104997 -1.960613682492852 7.7743826324871588 -0.54463904215088732 0 -0.83867056331134215 0.41933528165567108 0 -0.27231952107544366 1 I I 0 1 0.5 forward I I I I #
face $-1 $207 $208 $68 $-1 $209 forward single #
loop $-1 $210 $211 $86 #
cone-surface $-1 51.271958407104997 0.52567803196788887 7.7743826324871588 -0.54463904215088732 0 -0.83867056331134215 0.41933528165567108 0 -0.27231952107544366 1 I I 0 1 0.5 forward I I I I #
face $-1 $212 $213 $69 $-1 $214 reversed single #
loop $-1 $-1 $215 $87 #
plane-surface $-1 23.164618006515461 9.6863696639002974 161.15307395240728 0 -1 0 -0.54463904215088732 0 -0.83867056331134215 forward_v I I I I #
face $-1 $216 $217 $70 $-1 $218 forward single #
loop $-1 $219 $220 $88 #
cone-surface $-1 51.271958407104997 5.5425501397990651 7.7743826324871588 -0.54463904215088732 0 -0.83867056331134215 0.41933528165567108 0 -0.27231952107544366 1 I I 0 1 0.5 forward I I I I #
face $-1 $221 $222 $71 $-1 $223 forward single #
loop $-1 $224 $225 $89 #
cone-surface $-1 51.271958407104997 8.0288418542598059 7.7743826324871588 -0.54463904215088732 0 -0.83867056331134215 0.41933528165567108 0 -0.27231952107544366 1 I I 0 1 0.5 forward I I I I #
face $-1 $226 $227 $54 $-1 $228 reversed single #
loop $-1 $-1 $229 $90 #
plane-surface $-1 0 0 -11.412993377031352 0 0 1 1 0 0 forward_v I I I I #
coedge $-1 $230 $231 $232 $233 forward $91 $-1 #
face $-1 $234 $235 $55 $-1 $236 reversed single #
loop $-1 $-1 $237 $93 #
plane-surface $-1 0 -11.254745733437874 -8.7254871787881143 0 -1 0 0 0 -1 forward_v I I I I #
coedge $-1 $238 $239 $240 $241 reversed $94 $-1 #
face $-1 $242 $243 $56 $-1 $244 reversed single #
loop $-1 $-1 $245 $96 #
plane-surface $-1 0 11.254745733437872 -8.7254871787881143 0 1 0 0 0 1 forward_v I I I I #
coedge $-1 $246 $247 $248 $249 reversed $97 $-1 #
face $-1 $250 $251 $57 $-1 $252 reversed single #
loop $-1 $-1 $253 $99 #
plane-surface $-1 -56.233405560472434 -5.3246894334666983 0.042620835004342439 -0.50000000669873634 0 0.8660253999169214 0.8660253999169214 0 0.50000000669873634 forward_v I I I I #
coedge $-1 $254 $255 $256 $257 reversed $100 $-1 #
face $-1 $-1 $258 $58 $-1 $259 forward single #
loop $-1 $260 $261 $102 #
cone-surface $-1 -45.761374256111012 -6.5429708618714493 4.6452753561216973 0.50000000669873634 0 -0.8660253999169214 0.21650634997923035 0 0.12500000167468409 1 I I -0.70710678118654746 0.70710678118654746 0.25 forward I I I I #
loop $-1 $-1 $262 $76 #
coedge $-1 $164 $164 $263 $264 reversed $103 $-1 #
face $-1 $-1 $265 $59 $-1 $266 forward single #
loop $-1 $267 $268 $105 #
cone-surface $-1 -45.761374256111012 -4.1064080050619438 4.6452753561216973 0.50000000669873634 0 -0.8660253999169214 0.21650634997923035 0 0.12500000167468409 1 I I -0.70710678118654746 0.70710678118654746 0.25 forward I I I I #
loop $-1 $-1 $269 $77 #
coedge $-1 $169 $169 $270 $271 reversed $106 $-1 #
face $-1 $272 $273 $60 $-1 $274 reversed single #
loop $-1 $-1 $275 $108 #
plane-surface $-1 -56.233405560472434 5.9300562999711737 0.042620835004342439 -0.50000000669873634 0 0.8660253999169214 0.8660253999169214 0 0.50000000669873634 forward_v I I I I #
coedge $-1 $276 $277 $278 $279 reversed $109 $-1 #
face $-1 $-1 $280 $61 $-1 $281 forward single #
loop $-1 $282 $283 $111 #
cone-surface $-1 -45.761374256111012 4.7117748715664227 4.6452753561216973 0.50000000669873634 0 -0.8660253999169214 0.21650634997923035 0 0.12500000167468409 1 I I -0.70710678118654746 0.70710678118654746 0.25 forward I I I I #
loop $-1 $-1 $284 $79 #
coedge $-1 $178 $178 $285 $286 reversed $112 $-1 #
face $-1 $-1 $287 $62 $-1 $288 forward single #
loop $-1 $289 $290 $114 #
cone-surface $-1 -45.761374256111012 7.1483377283759317 4.6452753561216973 0.50000000669873634 0 -0.8660253999169214 0.21650634997923035 0 0.12500000167468409 1 I I -0.70710678118654746 0.70710678118654746 0.25 forward I I I I #
loop $-1 $-1 $291 $80 #
coedge $-1 $183 $183 $292 $293 reversed $115 $-1 #
face $-1 $294 $295 $63 $-1 $296 reversed single #
loop $-1 $-1 $297 $117 #
plane-surface $-1 -38.089198276160708 -8.2206316475543986 66.830470115774148 0.54463904215088732 0 0.83867056331134215 0.83867056331134215 0 -0.54463904215088732 forward_v I I I I #
coedge $-1 $298 $299 $300 $301 reversed $118 $-1 #
face $-1 $-1 $302 $64 $-1 $303 forward single #
loop $-1 $304 $305 $120 #
cone-surface $-1 50.667938799809782 -9.4637775047847672 6.8442740190818263 -0.54463904215088732 0 -0.83867056331134215 0.20966764082783554 0 -0.13615976053772183 1 I I -0.70710678118654746 0.70710678118654746 0.25 forward I I I I #
loop $-1 $-1 $306 $82 #
coedge $-1 $192 $192 $307 $308 reversed $121 $-1 #
face $-1 $-1 $309 $65 $-1 $310 forward single #
loop $-1 $311 $312 $123 #
cone-surface $-1 50.667938799809782 -6.9774857903240282 6.8442740190818263 -0.54463904215088732 0 -0.83867056331134215 0.20966764082783554 0 -0.13615976053772183 1 I I -0.70710678118654746 0.70710678118654746 0.25 forward I I I I #
loop $-1 $-1 $313 $83 #
coedge $-1 $197 $197 $314 $315 reversed $124 $-1 #
face $-1 $316 $317 $66 $-1 $318 reversed single #
loop $-1 $-1 $319 $126 #
plane-surface $-1 -38.089198276160708 -0.71746782526248154 66.830470115774148 0.54463904215088732 0 0.83867056331134215 0.83867056331134215 0 -0.54463904215088732 forward_v I I I I #
coedge $-1 $320 $321 $322 $323 reversed $127 $-1 #
face $-1 $-1 $324 $67 $-1 $325 forward single #
loop $-1 $326 $327 $129 #
cone-surface $-1 50.667938799809782 -1.960613682492852 6.8442740190818263 -0.54463904215088732 0 -0.83867056331134215 0.20966764082783554 0 -0.13615976053772183 1 I I -0.70710678118654746 0.70710678118654746 0.25 forward I I I I #
loop $-1 $-1 $328 $85 #
coedge $-1 $206 $206 $329 $330 reversed $130 $-1 #
face $-1 $-1 $331 $68 $-1 $332 forward single #
loop $-1 $333 $334 $132 #
cone-surface $-1 50.667938799809782 0.52567803196788887 6.8442740190818263 -0.54463904215088732 0 -0.83867056331134215 0.20966764082783554 0 -0.13615976053772183 1 I I -0.70710678118654746 0.70710678118654746 0.25 forward I I I I #
loop $-1 $-1 $335 $86 #
coedge $-1 $211 $211 $336 $337 reversed $133 $-1 #
face $-1 $338 $339 $69 $-1 $340 reversed single #
loop $-1 $-1 $341 $135 #
plane-surface $-1 -38.089198276160708 6.7856959970294355 66.830470115774148 0.54463904215088732 0 0.83867056331134215 0.83867056331134215 0 -0.54463904215088732 forward_v I I I I #
coedge $-1 $342 $343 $344 $345 reversed $136 $-1 #
face $-1 $-1 $346 $70 $-1 $347 forward single #
loop $-1 $348 $349 $138 #
cone-surface $-1 50.667938799809782 5.5425501397990651 6.8442740190818263 -0.54463904215088732 0 -0.83867056331134215 0.20966764082783554 0 -0.13615976053772183 1 I I -0.70710678118654746 0.70710678118654746 0.25 forward I I I I #
loop $-1 $-1 $350 $88 #
coedge $-1 $220 $220 $351 $352 reversed $139 $-1 #
face $-1 $-1 $353 $71 $-1 $354 forward single #
loop $-1 $355 $356 $141 #
cone-surface $-1 50.667938799809782 8.0288418542598059 6.8442740190818263 -0.54463904215088732 0 -0.83867056331134215 0.20966764082783554 0 -0.13615976053772183 1 I I -0.70710678118654746 0.70710678118654746 0.25 forward I I I I #
loop $-1 $-1 $357 $89 #
coedge $-1 $225 $225 $358 $359 reversed $142 $-1 #
face $-1 $360 $361 $54 $-1 $362 reversed single #
loop $-1 $-1 $363 $144 #
plane-surface $-1 0 -24.050262322594701 0 0 1 0 0 0 1 forward_v I I I I #
coedge $-1 $364 $365 $366 $367 forward $145 $-1 #
coedge $-1 $368 $147 $369 $370 forward $91 $-1 #
coedge $-1 $147 $368 $371 $372 forward $91 $-1 #
coedge $-1 $373 $374 $147 $233 reversed $375 $-1 #
edge $-1 $376 -24.050262322594701 $377 24.050262322594701 $232 $378 forward 7 unknown #
face $-1 $379 $380 $55 $-1 $381 reversed single #
loop $-1 $-1 $382 $148 #
plane-surface $-1 0 0 -11.412993377031352 0 0 1 1 0 0 forward_v I I I I #
coedge $-1 $383 $384 $385 $386 reversed $149 $-1 #
coedge $-1 $387 $151 $384 $388 forward $94 $-1 #
coedge $-1 $151 $387 $389 $390 reversed $94 $-1 #
coedge $-1 $391 $385 $151 $241 forward $380 $-1 #
edge $-1 $392 2.4284937194297296 $393 15.224010308586561 $240 $394 forward 7 unknown #
face $-1 $395 $396 $56 $-1 $397 reversed single #
loop $-1 $-1 $248 $152 #
plane-surface $-1 56.233405560472427 0 0 -1 0 0 0 0 1 forward_v I I I I #
coedge $-1 $398 $399 $400 $401 reversed $153 $-1 #
coedge $-1 $402 $155 $403 $404 reversed $97 $-1 #
coedge $-1 $155 $402 $399 $405 forward $97 $-1 #
coedge $-1 $406 $407 $155 $249 forward $243 $-1 #
edge $-1 $408 -15.224010308586555 $409 -2.4284937194297296 $248 $410 forward 7 unknown #
face $-1 $411 $412 $57 $-1 $413 reversed single #
loop $-1 $-1 $414 $156 #
plane-surface $-1 -112.46681187433038 -8.1673460997444529 97.441735913401473 0 1 0 -0.50000000669873634 0 0.8660253999169214 forward_v I I I I #
coedge $-1 $415 $416 $417 $418 reversed $157 $-1 #
coedge $-1 $255 $159 $419 $420 reversed $100 $-1 #
coedge $-1 $159 $254 $415 $421 reversed $100 $-1 #
coedge $-1 $417 $422 $159 $257 forward $412 $-1 #
edge $-1 $423 37.307874579669388 $424 48.678247121696387 $256 $425 forward 7 unknown #
loop $-1 $-1 $263 $160 #
plane-surface $-1 -56.233405560472434 -5.3246894334666983 0.042620835004342439 -0.50000000669873634 0 0.8660253999169214 0.8660253999169214 0 0.50000000669873634 forward_v I I I I #
loop $-1 $-1 $426 $102 #
coedge $-1 $261 $261 $262 $427 reversed $161 $-1 #
coedge $-1 $262 $262 $261 $427 forward $163 $-1 #
coedge $-1 $263 $263 $164 $264 forward $258 $-1 #
edge $-1 $428 0 $428 6.2831853071796004 $263 $429 forward 7 unknown #
loop $-1 $-1 $270 $165 #
plane-surface $-1 -56.233405560472434 -5.3246894334666983 0.042620835004342439 -0.50000000669873634 0 0.8660253999169214 0.8660253999169214 0 0.50000000669873634 forward_v I I I I #
loop $-1 $-1 $430 $105 #
coedge $-1 $268 $268 $269 $431 reversed $166 $-1 #
coedge $-1 $269 $269 $268 $431 forward $168 $-1 #
coedge $-1 $270 $270 $169 $271 forward $265 $-1 #
edge $-1 $432 0 $432 6.2831853071796004 $270 $433 forward 7 unknown #
face $-1 $434 $435 $60 $-1 $436 forward single #
loop $-1 $-1 $437 $170 #
plane-surface $-1 -112.46681187433038 3.0873996336934191 97.441735913401473 0 1 0 -0.50000000669873634 0 0.8660253999169214 forward_v I I I I #
coedge $-1 $438 $439 $440 $441 reversed $171 $-1 #
coedge $-1 $277 $173 $442 $443 reversed $109 $-1 #
coedge $-1 $173 $276 $438 $444 reversed $109 $-1 #
coedge $-1 $440 $445 $173 $279 forward $446 $-1 #
edge $-1 $447 37.307874579669388 $448 48.678247121696387 $278 $449 forward 7 unknown #
loop $-1 $-1 $285 $174 #
plane-surface $-1 -56.233405560472434 5.9300562999711737 0.042620835004342439 -0.50000000669873634 0 0.8660253999169214 0.8660253999169214 0 0.50000000669873634 forward_v I I I I #
loop $-1 $-1 $450 $111 #
coedge $-1 $283 $283 $284 $451 reversed $175 $-1 #
coedge $-1 $284 $284 $283 $451 forward $177 $-1 #
coedge $-1 $285 $285 $178 $286 forward $280 $-1 #
edge $-1 $452 0 $452 6.2831853071796004 $285 $453 forward 7 unknown #
loop $-1 $-1 $292 $179 #
plane-surface $-1 -56.233405560472434 5.9300562999711737 0.042620835004342439 -0.50000000669873634 0 0.8660253999169214 0.8660253999169214 0 0.50000000669873634 forward_v I I I I #
loop $-1 $-1 $454 $114 #
coedge $-1 $290 $290 $291 $455 reversed $180 $-1 #
coedge $-1 $291 $291 $290 $455 forward $182 $-1 #
coedge $-1 $292 $292 $183 $293 forward $287 $-1 #
edge $-1 $456 0 $456 6.2831853071796004 $292 $457 forward 7 unknown #
face $-1 $458 $459 $63 $-1 $460 forward single #
loop $-1 $-1 $461 $184 #
plane-surface $-1 23.164618006515461 -11.12130531442526 161.15307395240728 0 1 0 0.54463904215088732 0 0.83867056331134215 forward_v I I I I #
coedge $-1 $462 $463 $464 $465 reversed $185 $-1 #
coedge $-1 $299 $187 $466 $467 reversed $118 $-1 #
coedge $-1 $187 $298 $462 $468 reversed $118 $-1 #
coedge $-1 $464 $469 $187 $301 forward $459 $-1 #
edge $-1 $470 -44.6510965572147 $471 -35.663921943994794 $300 $472 forward 7 unknown #
loop $-1 $-1 $307 $188 #
plane-surface $-1 -38.089198276160708 -8.2206316475543986 66.830470115774148 0.54463904215088732 0 0.83867056331134215 0.83867056331134215 0 -0.54463904215088732 forward_v I I I I #
loop $-1 $-1 $473 $120 #
coedge $-1 $305 $305 $306 $474 reversed $189 $-1 #
coedge $-1 $306 $306 $305 $474 forward $191 $-1 #
coedge $-1 $307 $307 $192 $308 forward $302 $-1 #
edge $-1 $475 0 $475 6.2831853071796004 $307 $476 forward 7 unknown #
loop $-1 $-1 $314 $193 #
plane-surface $-1 -38.089198276160708 -8.2206316475543986 66.830470115774148 0.54463904215088732 0 0.83867056331134215 0.83867056331134215 0 -0.54463904215088732 forward_v I I I I #
loop $-1 $-1 $477 $123 #
coedge $-1 $312 $312 $313 $478 reversed $194 $-1 #
coedge $-1 $313 $313 $312 $478 forward $196 $-1 #
coedge $-1 $314 $314 $197 $315 forward $309 $-1 #
edge $-1 $479 0 $479 6.2831853071796004 $314 $480 forward 7 unknown #
face $-1 $481 $482 $66 $-1 $483 reversed single #
loop $-1 $-1 $484 $198 #
plane-surface $-1 23.164618006515461 -3.6181414921333426 161.15307395240728 0 1 0 0.54463904215088732 0 0.83867056331134215 forward_v I I I I #
coedge $-1 $485 $486 $487 $488 reversed $199 $-1 #
coedge $-1 $321 $201 $489 $490 reversed $127 $-1 #
coedge $-1 $201 $320 $485 $491 reversed $127 $-1 #
coedge $-1 $487 $492 $201 $323 forward $493 $-1 #
edge $-1 $494 -44.6510965572147 $495 -35.663921943994794 $322 $496 forward 7 unknown #
loop $-1 $-1 $329 $202 #
plane-surface $-1 -38.089198276160708 -0.71746782526248154 66.830470115774148 0.54463904215088732 0 0.83867056331134215 0.83867056331134215 0 -0.54463904215088732 forward_v I I I I #
loop $-1 $-1 $497 $129 #
coedge $-1 $327 $327 $328 $498 reversed $203 $-1 #
coedge $-1 $328 $328 $327 $498 forward $205 $-1 #
coedge $-1 $329 $329 $206 $330 forward $324 $-1 #
edge $-1 $499 0 $499 6.2831853071796004 $329 $500 forward 7 unknown #
loop $-1 $-1 $336 $207 #
plane-surface $-1 -38.089198276160708 -0.71746782526248154 66.830470115774148 0.54463904215088732 0 0.83867056331134215 0.83867056331134215 0 -0.54463904215088732 forward_v I I I I #
loop $-1 $-1 $501 $132 #
coedge $-1 $334 $334 $335 $502 reversed $208 $-1 #
coedge $-1 $335 $335 $334 $502 forward $210 $-1 #
coedge $-1 $336 $336 $211 $337 forward $331 $-1 #
edge $-1 $503 0 $503 6.2831853071796004 $336 $504 forward 7 unknown #
face $-1 $505 $506 $69 $-1 $507 reversed single #
loop $-1 $-1 $508 $212 #
plane-surface $-1 23.164618006515461 3.8850223301585745 161.15307395240728 0 1 0 0.54463904215088732 0 0.83867056331134215 forward_v I I I I #
coedge $-1 $509 $510 $511 $512 reversed $213 $-1 #
coedge $-1 $343 $215 $513 $514 reversed $136 $-1 #
coedge $-1 $215 $342 $509 $515 reversed $136 $-1 #
coedge $-1 $511 $516 $215 $345 forward $517 $-1 #
edge $-1 $518 -44.6510965572147 $519 -35.663921943994794 $344 $520 forward 7 unknown #
loop $-1 $-1 $351 $216 #
plane-surface $-1 -38.089198276160708 6.7856959970294355 66.830470115774148 0.54463904215088732 0 0.83867056331134215 0.83867056331134215 0 -0.54463904215088732 forward_v I I I I #
loop $-1 $-1 $521 $138 #
coedge $-1 $349 $349 $350 $522 reversed $217 $-1 #
coedge $-1 $350 $350 $349 $522 forward $219 $-1 #
coedge $-1 $351 $351 $220 $352 forward $346 $-1 #
edge $-1 $523 0 $523 6.2831853071796004 $351 $524 forward 7 unknown #
loop $-1 $-1 $358 $221 #
plane-surface $-1 -38.089198276160708 6.7856959970294355 66.830470115774148 0.54463904215088732 0 0.83867056331134215 0.83867056331134215 0 -0.54463904215088732 forward_v I I I I #
loop $-1 $-1 $525 $141 #
coedge $-1 $356 $356 $357 $526 reversed $222 $-1 #
coedge $-1 $357 $357 $356 $526 forward $224 $-1 #
coedge $-1 $358 $358 $225 $359 forward $353 $-1 #
edge $-1 $527 0 $527 6.2831853071796004 $358 $528 forward 7 unknown #
face $-1 $529 $530 $54 $-1 $531 reversed single #
loop $-1 $-1 $532 $226 #
plane-surface $-1 -56.233405560472427 0 0 1 0 0 0 0 -1 forward_v I I I I #
coedge $-1 $533 $371 $534 $535 forward $227 $-1 #
coedge $-1 $536 $229 $533 $537 forward $145 $-1 #
coedge $-1 $229 $536 $538 $539 forward $145 $-1 #
coedge $-1 $374 $373 $229 $367 reversed $375 $-1 #
edge $-1 $540 -24.050262322594701 $541 24.050262322594701 $366 $542 forward 7 unknown #
coedge $-1 $231 $230 $543 $544 forward $91 $-1 #
coedge $-1 $545 $546 $230 $370 reversed $530 $-1 #
edge $-1 $377 -56.233405560472427 $547 56.233405560472427 $369 $548 forward 7 unknown #
coedge $-1 $363 $549 $231 $372 reversed $227 $-1 #
edge $-1 $550 -56.233405560472427 $376 56.233405560472427 $371 $551 forward 7 unknown #
coedge $-1 $366 $232 $549 $552 forward $375 $-1 #
coedge $-1 $232 $366 $545 $553 reversed $375 $-1 #
loop $-1 $-1 $373 $529 #
vertex $-1 $233 $554 #
vertex $-1 $233 $555 #
straight-curve $-1 56.233405560472427 0 11.412993377031352 0 1 0 I I #
face $-1 $556 $557 $55 $-1 $558 reversed single #
loop $-1 $-1 $385 $234 #
plane-surface $-1 56.233405560472427 0 0 -1 0 0 0 0 1 forward_v I I I I #
coedge $-1 $559 $560 $383 $561 forward $235 $-1 #
coedge $-1 $562 $237 $382 $561 reversed $149 $-1 #
coedge $-1 $237 $562 $238 $388 reversed $149 $-1 #
coedge $-1 $240 $563 $237 $386 forward $380 $-1 #
edge $-1 $564 -7.0502497876372949 $392 -1.6752373911508185 $385 $565 forward 7 unknown #
coedge $-1 $239 $238 $566 $567 reversed $94 $-1 #
edge $-1 $392 -56.233405560472427 $568 56.233405560472427 $384 $569 forward 7 unknown #
coedge $-1 $570 $571 $239 $390 forward $557 $-1 #
edge $-1 $393 -56.233405560472427 $572 56.233405560472427 $389 $573 forward 7 unknown #
coedge $-1 $563 $240 $571 $574 forward $380 $-1 #
vertex $-1 $241 $575 #
vertex $-1 $574 $576 #
straight-curve $-1 56.233405560472427 -8.8262520140081442 -6.0379809805448756 0 -1 0 I I #
face $-1 $577 $578 $56 $-1 $579 reversed single #
loop $-1 $-1 $580 $242 #
plane-surface $-1 0 0 -11.412993377031352 0 0 1 1 0 0 forward_v I I I I #
coedge $-1 $581 $245 $580 $582 reversed $153 $-1 #
coedge $-1 $245 $581 $247 $405 reversed $153 $-1 #
coedge $-1 $583 $584 $245 $401 forward $578 $-1 #
edge $-1 $585 -7.0502497876372949 $586 -1.6752373911508185 $400 $587 forward 7 unknown #
coedge $-1 $247 $246 $583 $588 reversed $97 $-1 #
coedge $-1 $589 $590 $246 $404 forward $591 $-1 #
edge $-1 $592 -56.233405560472427 $408 56.233405560472427 $403 $593 forward 7 unknown #
edge $-1 $586 -56.233405560472427 $409 56.233405560472427 $399 $594 forward 7 unknown #
coedge $-1 $595 $248 $581 $596 forward $243 $-1 #
coedge $-1 $248 $595 $589 $597 reversed $243 $-1 #
vertex $-1 $597 $598 #
vertex $-1 $249 $599 #
straight-curve $-1 56.233405560472427 8.8262520140081424 -6.0379809805448756 0 -1 0 I I #
face $-1 $-1 $600 $57 $-1 $601 forward single #
loop $-1 $-1 $256 $250 #
plane-surface $-1 -56.233405560472427 0 0 1 0 0 0 0 -1 forward_v I I I I #
coedge $-1 $602 $603 $604 $605 reversed $251 $-1 #
coedge $-1 $606 $253 $255 $421 forward $157 $-1 #
coedge $-1 $253 $606 $602 $607 forward $157 $-1 #
coedge $-1 $604 $256 $253 $418 forward $412 $-1 #
edge $-1 $424 -0.18031194954440544 $608 5.5050013830111038 $417 $609 forward 7 unknown #
coedge $-1 $610 $611 $254 $420 forward $600 $-1 #
edge $-1 $612 -19.694062968668732 $423 -3.7669276053975409e-007 $419 $613 forward 7 unknown #
edge $-1 $424 8.2039237450223834e-015 $612 22.740744779385512 $255 $614 forward 7 unknown #
coedge $-1 $256 $604 $610 $615 reversed $412 $-1 #
vertex $-1 $615 $616 #
vertex $-1 $257 $617 #
straight-curve $-1 -56.233405560472427 -2.4820327671889437 48.720867956700737 0 0 -1 I I #
coedge $-1 $426 $426 $-1 $618 reversed $260 $-1 #
edge $-1 $619 0 $619 6.2831853071796004 $261 $620 forward 7 unknown #
vertex $-1 $264 $621 #
ellipse-curve $-1 -46.386374264484431 -6.5429708618714493 5.7278071060178544 -0.50000000669873634 0 0.8660253999169214 0.4330126999584607 0 0.25000000334936817 1 I I #
coedge $-1 $430 $430 $-1 $622 reversed $267 $-1 #
edge $-1 $623 0 $623 6.2831853071796004 $268 $624 forward 7 unknown #
vertex $-1 $271 $625 #
ellipse-curve $-1 -46.386374264484431 -4.1064080050619438 5.7278071060178544 -0.50000000669873634 0 0.8660253999169214 0.4330126999584607 0 0.25000000334936817 1 I I #
face $-1 $-1 $446 $60 $-1 $626 reversed single #
loop $-1 $-1 $627 $272 #
plane-surface $-1 0 0 11.412993377031352 0 0 1 1 0 0 forward_v I I I I #
coedge $-1 $628 $629 $630 $631 reversed $273 $-1 #
coedge $-1 $632 $275 $277 $444 forward $171 $-1 #
coedge $-1 $275 $632 $628 $633 forward $171 $-1 #
coedge $-1 $630 $278 $275 $441 forward $446 $-1 #
edge $-1 $448 -5.8076848162633414 $634 -0.12237148370783224 $440 $635 forward 7 unknown #
coedge $-1 $636 $637 $276 $443 forward $435 $-1 #
edge $-1 $638 -19.694062968668732 $447 -3.7669276053975409e-007 $442 $639 forward 7 unknown #
edge $-1 $448 8.2039237450223834e-015 $638 22.740744779385512 $277 $640 forward 7 unknown #
coedge $-1 $278 $630 $636 $641 reversed $446 $-1 #
loop $-1 $-1 $630 $434 #
vertex $-1 $641 $642 #
vertex $-1 $279 $643 #
straight-curve $-1 -56.233405560472427 8.7727129662489283 48.720867956700737 0 0 -1 I I #
coedge $-1 $450 $450 $-1 $644 reversed $282 $-1 #
edge $-1 $645 0 $645 6.2831853071796004 $283 $646 forward 7 unknown #
vertex $-1 $286 $647 #
ellipse-curve $-1 -46.386374264484431 4.7117748715664227 5.7278071060178544 -0.50000000669873634 0 0.8660253999169214 0.4330126999584607 0 0.25000000334936817 1 I I #
coedge $-1 $454 $454 $-1 $648 reversed $289 $-1 #
edge $-1 $649 0 $649 6.2831853071796004 $290 $650 forward 7 unknown #
vertex $-1 $293 $651 #
ellipse-curve $-1 -46.386374264484431 7.1483377283759317 5.7278071060178544 -0.50000000669873634 0 0.8660253999169214 0.4330126999584607 0 0.25000000334936817 1 I I #
face $-1 $-1 $652 $63 $-1 $653 reversed single #
loop $-1 $-1 $300 $294 #
plane-surface $-1 0 0 11.412993377031352 0 0 1 1 0 0 forward_v I I I I #
coedge $-1 $654 $655 $656 $657 reversed $295 $-1 #
coedge $-1 $658 $297 $299 $468 forward $185 $-1 #
coedge $-1 $297 $658 $654 $659 forward $185 $-1 #
coedge $-1 $656 $300 $297 $465 forward $459 $-1 #
edge $-1 $471 1.2096421569063383 $660 7.0109894906480612 $464 $661 forward 7 unknown #
coedge $-1 $662 $663 $298 $467 forward $652 $-1 #
edge $-1 $664 -74.999883143105663 $470 -69.163543599172286 $466 $665 forward 7 unknown #
edge $-1 $471 101.7508339466231 $664 112.46681112094484 $299 $666 forward 7 unknown #
coedge $-1 $300 $656 $662 $667 forward $459 $-1 #
vertex $-1 $301 $668 #
vertex $-1 $301 $669 #
straight-curve $-1 11.58230900325773 -5.3199579806835375 11.412993377031356 -1 0 0 I I #
coedge $-1 $473 $473 $-1 $670 reversed $304 $-1 #
edge $-1 $671 0 $671 6.2831853071796004 $305 $672 forward 7 unknown #
vertex $-1 $308 $673 #
ellipse-curve $-1 51.739818253862488 -9.4637775047847672 8.4948236050646582 0.54463904215088732 0 0.83867056331134215 0.41933528165567108 0 -0.27231952107544366 1 I I #
coedge $-1 $477 $477 $-1 $674 reversed $311 $-1 #
edge $-1 $675 0 $675 6.2831853071796004 $312 $676 forward 7 unknown #
vertex $-1 $315 $677 #
ellipse-curve $-1 51.739818253862488 -6.9774857903240282 8.4948236050646582 0.54463904215088732 0 0.83867056331134215 0.41933528165567108 0 -0.27231952107544366 1 I I #
face $-1 $-1 $493 $66 $-1 $678 forward single #
loop $-1 $-1 $679 $316 #
plane-surface $-1 56.233405560472427 0 0 -1 0 0 0 0 1 forward_v I I I I #
coedge $-1 $680 $681 $682 $683 reversed $317 $-1 #
coedge $-1 $684 $319 $321 $491 forward $199 $-1 #
coedge $-1 $319 $684 $680 $685 forward $199 $-1 #
coedge $-1 $682 $322 $319 $488 forward $493 $-1 #
edge $-1 $495 -2.5419397542396203 $686 3.2594075795021018 $487 $687 forward 7 unknown #
coedge $-1 $688 $689 $320 $490 forward $482 $-1 #
edge $-1 $690 -74.999883143105663 $494 -69.163543599172286 $489 $691 forward 7 unknown #
edge $-1 $495 101.7508339466231 $690 112.46681112094484 $321 $692 forward 7 unknown #
coedge $-1 $322 $682 $688 $693 forward $493 $-1 #
loop $-1 $-1 $682 $481 #
vertex $-1 $490 $694 #
vertex $-1 $323 $695 #
straight-curve $-1 11.58230900325773 2.1832058416083795 11.412993377031356 -1 0 0 I I #
coedge $-1 $497 $497 $-1 $696 reversed $326 $-1 #
edge $-1 $697 0 $697 6.2831853071796004 $327 $698 forward 7 unknown #
vertex $-1 $330 $699 #
ellipse-curve $-1 51.739818253862488 -1.960613682492852 8.4948236050646582 0.54463904215088732 0 0.83867056331134215 0.41933528165567108 0 -0.27231952107544366 1 I I #
coedge $-1 $501 $501 $-1 $700 reversed $333 $-1 #
edge $-1 $701 0 $701 6.2831853071796004 $334 $702 forward 7 unknown #
vertex $-1 $337 $703 #
ellipse-curve $-1 51.739818253862488 0.52567803196788887 8.4948236050646582 0.54463904215088732 0 0.83867056331134215 0.41933528165567108 0 -0.27231952107544366 1 I I #
face $-1 $-1 $517 $69 $-1 $704 forward single #
loop $-1 $-1 $705 $338 #
plane-surface $-1 56.233405560472427 0 0 -1 0 0 0 0 1 forward_v I I I I #
coedge $-1 $706 $707 $708 $709 reversed $339 $-1 #
coedge $-1 $710 $341 $343 $515 forward $213 $-1 #
coedge $-1 $341 $710 $706 $711 forward $213 $-1 #
coedge $-1 $708 $344 $341 $512 forward $517 $-1 #
edge $-1 $519 -6.2935216653855797 $712 -0.49217433164385671 $511 $713 forward 7 unknown #
coedge $-1 $714 $715 $342 $514 forward $506 $-1 #
edge $-1 $716 -74.999883143105663 $518 -69.163543599172286 $513 $717 forward 7 unknown #
edge $-1 $519 101.7508339466231 $716 112.46681112094484 $343 $718 forward 7 unknown #
coedge $-1 $344 $708 $714 $719 forward $517 $-1 #
loop $-1 $-1 $708 $505 #
vertex $-1 $514 $720 #
vertex $-1 $345 $721 #
straight-curve $-1 11.58230900325773 9.6863696639002974 11.412993377031356 -1 0 0 I I #
coedge $-1 $521 $521 $-1 $722 reversed $348 $-1 #
edge $-1 $723 0 $723 6.2831853071796004 $349 $724 forward 7 unknown #
vertex $-1 $352 $725 #
ellipse-curve $-1 51.739818253862488 5.5425501397990651 8.4948236050646582 0.54463904215088732 0 0.83867056331134215 0.41933528165567108 0 -0.27231952107544366 1 I I #
coedge $-1 $525 $525 $-1 $726 reversed $355 $-1 #
edge $-1 $727 0 $727 6.2831853071796004 $356 $728 forward 7 unknown #
vertex $-1 $359 $729 #
ellipse-curve $-1 51.739818253862488 8.0288418542598059 8.4948236050646582 0.54463904215088732 0 0.83867056331134215 0.41933528165567108 0 -0.27231952107544366 1 I I #
face $-1 $-1 $375 $54 $-1 $730 reversed single #
loop $-1 $-1 $545 $360 #
plane-surface $-1 0 24.050262322594701 0 0 -1 0 0 0 -1 forward_v I I I I #
coedge $-1 $731 $543 $546 $732 forward $361 $-1 #
coedge $-1 $549 $363 $364 $537 reversed $227 $-1 #
coedge $-1 $543 $731 $363 $535 reversed $361 $-1 #
edge $-1 $550 -11.412993377031352 $733 11.412993377031352 $534 $734 forward 7 unknown #
coedge $-1 $365 $364 $731 $735 forward $145 $-1 #
edge $-1 $541 -56.233405560472427 $733 56.233405560472427 $533 $736 forward 7 unknown #
coedge $-1 $546 $545 $365 $539 reversed $530 $-1 #
edge $-1 $737 -56.233405560472427 $540 56.233405560472427 $538 $738 forward 7 unknown #
vertex $-1 $367 $739 #
vertex $-1 $552 $740 #
straight-curve $-1 56.233405560472427 0 -11.412993377031352 0 -1 0 I I #
coedge $-1 $532 $534 $368 $544 reversed $361 $-1 #
edge $-1 $547 -24.050262322594701 $550 24.050262322594701 $543 $741 forward 7 unknown #
coedge $-1 $538 $369 $374 $553 forward $530 $-1 #
coedge $-1 $369 $538 $532 $732 reversed $530 $-1 #
vertex $-1 $370 $742 #
straight-curve $-1 0 24.050262322594701 11.412993377031352 -1 0 0 I I #
coedge $-1 $371 $533 $373 $552 reversed $227 $-1 #
vertex $-1 $544 $743 #
straight-curve $-1 0 -24.050262322594701 11.412993377031352 1 0 0 I I #
edge $-1 $376 -11.412993377031352 $541 11.412993377031352 $373 $744 forward 7 unknown #
edge $-1 $377 -11.412993377031352 $540 11.412993377031352 $374 $745 forward 7 unknown #
point $-1 56.233405560472427 -24.050262322594701 11.412993377031352 #
point $-1 56.233405560472427 24.050262322594701 11.412993377031352 #
face $-1 $-1 $746 $55 $-1 $747 reversed single #
loop $-1 $-1 $389 $379 #
plane-surface $-1 0 -24.050262322594701 0 0 1 0 0 0 1 forward_v I I I I #
coedge $-1 $748 $382 $563 $749 forward $235 $-1 #
coedge $-1 $382 $748 $750 $751 forward $235 $-1 #
edge $-1 $752 -56.233405560472427 $564 56.233405560472427 $382 $753 forward 7 unknown #
coedge $-1 $384 $383 $754 $755 reversed $149 $-1 #
coedge $-1 $385 $391 $559 $749 reversed $380 $-1 #
vertex $-1 $749 $756 #
straight-curve $-1 56.233405560472427 -11.254745733437874 -4.3627435893940572 0 0 1 I I #
coedge $-1 $754 $757 $387 $567 forward $746 $-1 #
edge $-1 $572 -15.224010308586561 $568 -2.4284937194297296 $566 $758 forward 7 unknown #
vertex $-1 $567 $759 #
straight-curve $-1 0 -11.254745733437874 -6.0379809805448756 -1 0 0 I I #
coedge $-1 $760 $389 $757 $761 forward $557 $-1 #
coedge $-1 $389 $760 $391 $574 reversed $557 $-1 #
vertex $-1 $761 $762 #
straight-curve $-1 0 -24.050262322594701 -6.0379809805448756 -1 0 0 I I #
edge $-1 $393 6.0379809805448756 $763 11.412993377031352 $391 $764 forward 7 unknown #
point $-1 56.233405560472427 -11.254745733437874 -6.0379809805448756 #
point $-1 56.233405560472427 -24.050262322594705 -6.0379809805448756 #
face $-1 $-1 $591 $56 $-1 $765 reversed single #
loop $-1 $-1 $583 $395 #
plane-surface $-1 -56.233405560472427 0 0 1 0 0 0 0 -1 forward_v I I I I #
coedge $-1 $766 $767 $398 $582 forward $396 $-1 #
coedge $-1 $399 $398 $406 $596 reversed $153 $-1 #
edge $-1 $768 -56.233405560472427 $585 56.233405560472427 $580 $769 forward 7 unknown #
coedge $-1 $770 $400 $402 $588 forward $578 $-1 #
coedge $-1 $400 $770 $766 $771 reversed $578 $-1 #
vertex $-1 $771 $772 #
vertex $-1 $588 $773 #
straight-curve $-1 -56.233405560472427 11.254745733437872 -4.3627435893940572 0 0 1 I I #
edge $-1 $586 2.4284937194297296 $592 15.224010308586555 $583 $774 forward 7 unknown #
coedge $-1 $775 $403 $407 $597 forward $591 $-1 #
coedge $-1 $403 $775 $770 $776 reversed $591 $-1 #
loop $-1 $-1 $403 $577 #
vertex $-1 $776 $777 #
straight-curve $-1 0 24.050262322594701 -6.0379809805448756 1 0 0 I I #
straight-curve $-1 0 11.254745733437872 -6.0379809805448756 1 0 0 I I #
coedge $-1 $407 $406 $767 $778 reversed $243 $-1 #
edge $-1 $409 1.6752373911508185 $768 7.0502497876372949 $406 $779 forward 7 unknown #
edge $-1 $408 6.0379809805448756 $780 11.412993377031352 $407 $781 forward 7 unknown #
point $-1 56.233405560472427 24.050262322594698 -6.0379809805448756 #
point $-1 56.233405560472427 11.254745733437872 -6.0379809805448756 #
loop $-1 $-1 $419 $411 #
plane-surface $-1 0 0 11.412993377031352 0 0 1 1 0 0 forward_v I I I I #
coedge $-1 $603 $414 $416 $607 reversed $251 $-1 #
coedge $-1 $414 $602 $782 $783 reversed $251 $-1 #
coedge $-1 $422 $417 $414 $605 forward $412 $-1 #
edge $-1 $608 -48.678247121696387 $784 -37.307874579669388 $604 $785 forward 7 unknown #
coedge $-1 $416 $415 $611 $786 reversed $157 $-1 #
edge $-1 $787 -22.740744779385512 $608 -8.2039237450223834e-015 $602 $788 forward 7 unknown #
vertex $-1 $418 $789 #
straight-curve $-1 -56.233405560472427 -2.6623447167333492 0.042620835004348621 0 -1 0 I I #
coedge $-1 $782 $419 $422 $615 forward $600 $-1 #
coedge $-1 $419 $782 $606 $786 forward $600 $-1 #
vertex $-1 $420 $790 #
straight-curve $-1 -56.233405937165188 -2.4820327671889437 11.412993377031356 -1 0 0 I I #
straight-curve $-1 -56.233405560472434 -2.4820327671889437 0.042620835004342439 0.8660253999169214 0 0.50000000669873634 I I #
edge $-1 $423 2.4820327671889437 $784 8.1673460997444529 $422 $791 forward 7 unknown #
point $-1 -56.233405560472427 -2.4820327671889437 11.412993377031352 #
point $-1 -56.233405560472427 -2.4820327671889437 0.04262083500434654 #
edge $-1 $792 1 $792 0 $426 $-1 forward 7 unknown #
vertex $-1 $427 $793 #
ellipse-curve $-1 -45.886374257785697 -6.5429708618714493 4.8617817061009276 -0.50000000669873634 0 0.8660253999169214 0.4330126999584607 0 0.25000000334936817 1 I I #
point $-1 -45.95336156452597 -6.5429708618714493 5.9778071093672169 #
edge $-1 $794 1 $794 0 $430 $-1 forward 7 unknown #
vertex $-1 $431 $795 #
ellipse-curve $-1 -45.886374257785697 -4.1064080050619438 4.8617817061009276 -0.50000000669873634 0 0.8660253999169214 0.4330126999584607 0 0.25000000334936817 1 I I #
point $-1 -45.95336156452597 -4.1064080050619438 5.9778071093672169 #
plane-surface $-1 -56.233405560472427 0 0 1 0 0 0 0 -1 forward_v I I I I #
coedge $-1 $637 $636 $629 $796 forward $435 $-1 #
coedge $-1 $629 $437 $439 $633 reversed $273 $-1 #
coedge $-1 $437 $628 $627 $796 reversed $273 $-1 #
coedge $-1 $445 $440 $437 $631 forward $446 $-1 #
edge $-1 $634 -48.678247121696387 $797 -37.307874579669388 $630 $798 forward 7 unknown #
coedge $-1 $439 $438 $637 $799 reversed $171 $-1 #
edge $-1 $800 -22.740744779385512 $634 -8.2039237450223834e-015 $628 $801 forward 7 unknown #
vertex $-1 $441 $802 #
straight-curve $-1 -56.233405560472427 2.9650281499855868 0.042620835004348621 0 -1 0 I I #
coedge $-1 $627 $442 $445 $641 forward $435 $-1 #
coedge $-1 $442 $627 $632 $799 forward $435 $-1 #
vertex $-1 $443 $803 #
straight-curve $-1 -56.233405937165188 8.7727129662489283 11.412993377031356 -1 0 0 I I #
straight-curve $-1 -56.233405560472434 8.7727129662489283 0.042620835004342439 0.8660253999169214 0 0.50000000669873634 I I #
edge $-1 $447 -8.7727129662489283 $797 -3.0873996336934191 $445 $804 forward 7 unknown #
point $-1 -56.233405560472427 8.7727129662489283 11.412993377031352 #
point $-1 -56.233405560472427 8.7727129662489283 0.04262083500434654 #
edge $-1 $805 1 $805 0 $450 $-1 forward 7 unknown #
vertex $-1 $451 $806 #
ellipse-curve $-1 -45.886374257785697 4.7117748715664227 4.8617817061009276 -0.50000000669873634 0 0.8660253999169214 0.4330126999584607 0 0.25000000334936817 1 I I #
point $-1 -45.95336156452597 4.7117748715664227 5.9778071093672169 #
edge $-1 $807 1 $807 0 $454 $-1 forward 7 unknown #
vertex $-1 $455 $808 #
ellipse-curve $-1 -45.886374257785697 7.1483377283759317 4.8617817061009276 -0.50000000669873634 0 0.8660253999169214 0.4330126999584607 0 0.25000000334936817 1 I I #
point $-1 -45.95336156452597 7.1483377283759317 5.9778071093672169 #
loop $-1 $-1 $466 $458 #
plane-surface $-1 56.233405560472427 0 0 -1 0 0 0 0 1 forward_v I I I I #
coedge $-1 $655 $461 $463 $659 reversed $295 $-1 #
coedge $-1 $461 $654 $809 $810 reversed $295 $-1 #
coedge $-1 $469 $464 $461 $657 forward $459 $-1 #
edge $-1 $660 35.663921943994794 $811 44.6510965572147 $656 $812 forward 7 unknown #
coedge $-1 $463 $462 $663 $813 reversed $185 $-1 #
edge $-1 $814 -112.46681112094484 $660 -101.7508339466231 $654 $815 forward 7 unknown #
vertex $-1 $465 $816 #
straight-curve $-1 47.246230947252528 -4.1103158237771993 11.412993377031349 0 -1 0 I I #
coedge $-1 $809 $466 $469 $667 reversed $652 $-1 #
coedge $-1 $466 $809 $658 $813 forward $652 $-1 #
vertex $-1 $467 $817 #
straight-curve $-1 56.233405560472427 -5.3199579806835375 80.576536976203641 0 0 1 I I #
straight-curve $-1 -38.089198276160708 -5.3199579806835375 66.830470115774148 0.83867056331134215 0 -0.54463904215088732 I I #
edge $-1 $811 -11.12130531442526 $470 -5.3199579806835375 $662 $818 forward 7 unknown #
point $-1 56.233405560472427 -5.3199579806835375 11.412993377031352 #
point $-1 47.246230947252521 -5.3199579806835375 11.412993377031356 #
edge $-1 $819 1 $819 0 $473 $-1 forward 7 unknown #
vertex $-1 $474 $820 #
ellipse-curve $-1 50.804098560347505 -9.4637775047847672 7.053941659909662 0.54463904215088732 0 0.83867056331134215 0.41933528165567108 0 -0.27231952107544366 1 I I #
point $-1 52.159153535518151 -9.4637775047847672 8.2225040839892127 #
edge $-1 $821 1 $821 0 $477 $-1 forward 7 unknown #
vertex $-1 $478 $822 #
ellipse-curve $-1 50.804098560347505 -6.9774857903240282 7.053941659909662 0.54463904215088732 0 0.83867056331134215 0.41933528165567108 0 -0.27231952107544366 1 I I #
point $-1 52.159153535518151 -6.9774857903240282 8.2225040839892127 #
plane-surface $-1 0 0 11.412993377031352 0 0 1 1 0 0 forward_v I I I I #
coedge $-1 $689 $688 $681 $823 forward $482 $-1 #
coedge $-1 $681 $484 $486 $685 reversed $317 $-1 #
coedge $-1 $484 $680 $679 $823 reversed $317 $-1 #
coedge $-1 $492 $487 $484 $683 forward $493 $-1 #
edge $-1 $686 35.663921943994794 $824 44.6510965572147 $682 $825 forward 7 unknown #
coedge $-1 $486 $485 $689 $826 reversed $199 $-1 #
edge $-1 $827 -112.46681112094484 $686 -101.7508339466231 $680 $828 forward 7 unknown #
vertex $-1 $488 $829 #
straight-curve $-1 47.246230947252528 -0.35873391263124077 11.412993377031349 0 -1 0 I I #
coedge $-1 $679 $489 $492 $693 reversed $482 $-1 #
coedge $-1 $489 $679 $684 $826 forward $482 $-1 #
vertex $-1 $490 $830 #
straight-curve $-1 56.233405560472427 2.1832058416083795 80.576536976203641 0 0 1 I I #
straight-curve $-1 -38.089198276160708 2.1832058416083795 66.830470115774148 0.83867056331134215 0 -0.54463904215088732 I I #
edge $-1 $824 -3.6181414921333426 $494 2.1832058416083795 $688 $831 forward 7 unknown #
point $-1 56.233405560472427 2.1832058416083795 11.412993377031352 #
point $-1 47.246230947252521 2.1832058416083795 11.412993377031356 #
edge $-1 $832 1 $832 0 $497 $-1 forward 7 unknown #
vertex $-1 $498 $833 #
ellipse-curve $-1 50.804098560347505 -1.960613682492852 7.053941659909662 0.54463904215088732 0 0.83867056331134215 0.41933528165567108 0 -0.27231952107544366 1 I I #
point $-1 52.159153535518151 -1.960613682492852 8.2225040839892127 #
edge $-1 $834 1 $834 0 $501 $-1 forward 7 unknown #
vertex $-1 $502 $835 #
ellipse-curve $-1 50.804098560347505 0.52567803196788887 7.053941659909662 0.54463904215088732 0 0.83867056331134215 0.41933528165567108 0 -0.27231952107544366 1 I I #
point $-1 52.159153535518151 0.52567803196788887 8.2225040839892127 #
plane-surface $-1 0 0 11.412993377031352 0 0 1 1 0 0 forward_v I I I I #
coedge $-1 $715 $714 $707 $836 forward $506 $-1 #
coedge $-1 $707 $508 $510 $711 reversed $339 $-1 #
coedge $-1 $508 $706 $705 $836 reversed $339 $-1 #
coedge $-1 $516 $511 $508 $709 forward $517 $-1 #
edge $-1 $712 35.663921943994794 $837 44.6510965572147 $708 $838 forward 7 unknown #
coedge $-1 $510 $509 $715 $839 reversed $213 $-1 #
edge $-1 $840 -112.46681112094484 $712 -101.7508339466231 $706 $841 forward 7 unknown #
vertex $-1 $512 $842 #
straight-curve $-1 47.246230947252528 3.3928479985147177 11.412993377031349 0 -1 0 I I #
coedge $-1 $705 $513 $516 $719 reversed $506 $-1 #
coedge $-1 $513 $705 $710 $839 forward $506 $-1 #
vertex $-1 $514 $843 #
straight-curve $-1 56.233405560472427 9.6863696639002974 80.576536976203641 0 0 1 I I #
straight-curve $-1 -38.089198276160708 9.6863696639002974 66.830470115774148 0.83867056331134215 0 -0.54463904215088732 I I #
edge $-1 $837 3.8850223301585745 $518 9.6863696639002974 $714 $844 forward 7 unknown #
point $-1 56.233405560472427 9.6863696639002974 11.412993377031352 #
point $-1 47.246230947252521 9.6863696639002974 11.412993377031356 #
edge $-1 $845 1 $845 0 $521 $-1 forward 7 unknown #
vertex $-1 $522 $846 #
ellipse-curve $-1 50.804098560347505 5.5425501397990651 7.053941659909662 0.54463904215088732 0 0.83867056331134215 0.41933528165567108 0 -0.27231952107544366 1 I I #
point $-1 52.159153535518151 5.5425501397990651 8.2225040839892127 #
edge $-1 $847 1 $847 0 $525 $-1 forward 7 unknown #
vertex $-1 $526 $848 #
ellipse-curve $-1 50.804098560347505 8.0288418542598059 7.053941659909662 0.54463904215088732 0 0.83867056331134215 0.41933528165567108 0 -0.27231952107544366 1 I I #
point $-1 52.159153535518151 8.0288418542598059 8.2225040839892127 #
plane-surface $-1 56.233405560472427 0 0 -1 0 0 0 0 1 forward_v I I I I #
coedge $-1 $534 $532 $536 $735 reversed $361 $-1 #
edge $-1 $547 -11.412993377031352 $737 11.412993377031352 $546 $849 forward 7 unknown #
vertex $-1 $735 $850 #
straight-curve $-1 -56.233405560472427 -24.050262322594701 0 0 0 -1 I I #
edge $-1 $733 -24.050262322594701 $737 24.050262322594701 $731 $851 forward 7 unknown #
straight-curve $-1 0 -24.050262322594701 -11.412993377031352 -1 0 0 I I #
vertex $-1 $539 $852 #
straight-curve $-1 0 24.050262322594701 -11.412993377031352 1 0 0 I I #
point $-1 56.233405560472427 24.050262322594701 -11.412993377031352 #
point $-1 56.233405560472427 -24.050262322594701 -11.412993377031352 #
straight-curve $-1 -56.233405560472427 0 11.412993377031352 0 -1 0 I I #
point $-1 -56.233405560472427 24.050262322594701 11.412993377031352 #
point $-1 -56.233405560472427 -24.050262322594701 11.412993377031352 #
straight-curve $-1 56.233405560472427 -24.050262322594701 0 0 0 -1 I I #
straight-curve $-1 56.233405560472427 24.050262322594701 0 0 0 -1 I I #
loop $-1 $-1 $754 $556 #
plane-surface $-1 -56.233405560472427 0 0 1 0 0 0 0 -1 forward_v I I I I #
coedge $-1 $560 $559 $760 $853 forward $235 $-1 #
edge $-1 $564 11.254745733437874 $763 24.050262322594701 $563 $854 forward 7 unknown #
coedge $-1 $757 $754 $560 $751 reversed $746 $-1 #
edge $-1 $855 -24.050262322594701 $752 -11.254745733437874 $750 $856 forward 7 unknown #
vertex $-1 $755 $857 #
straight-curve $-1 0 -11.254745733437874 -11.412993377031352 1 0 0 I I #
coedge $-1 $750 $566 $562 $755 forward $746 $-1 #
edge $-1 $568 1.6752373911508185 $752 7.0502497876372949 $754 $858 forward 7 unknown #
point $-1 56.233405560472427 -11.254745733437874 -11.412993377031352 #
coedge $-1 $566 $750 $570 $761 reversed $746 $-1 #
straight-curve $-1 -56.233405560472427 -8.8262520140081442 -6.0379809805448756 0 1 0 I I #
point $-1 -56.233405560472427 -11.254745733437874 -6.0379809805448756 #
coedge $-1 $571 $570 $748 $853 reversed $557 $-1 #
edge $-1 $572 6.0379809805448756 $855 11.412993377031352 $757 $859 forward 7 unknown #
point $-1 -56.233405560472427 -24.050262322594705 -6.0379809805448756 #
vertex $-1 $574 $860 #
straight-curve $-1 56.233405560472427 -24.050262322594701 0 0 0 -1 I I #
plane-surface $-1 0 24.050262322594701 0 0 -1 0 0 0 -1 forward_v I I I I #
coedge $-1 $861 $580 $584 $771 forward $396 $-1 #
coedge $-1 $580 $861 $595 $778 forward $396 $-1 #
vertex $-1 $582 $862 #
straight-curve $-1 0 11.254745733437872 -11.412993377031352 -1 0 0 I I #
coedge $-1 $584 $583 $590 $776 forward $578 $-1 #
edge $-1 $585 11.254745733437872 $863 24.050262322594701 $584 $864 forward 7 unknown #
point $-1 -56.233405560472427 11.254745733437872 -11.412993377031352 #
point $-1 -56.233405560472427 11.254745733437872 -6.0379809805448756 #
straight-curve $-1 -56.233405560472427 8.8262520140081424 -6.0379809805448756 0 1 0 I I #
coedge $-1 $590 $589 $861 $865 reversed $591 $-1 #
edge $-1 $592 6.0379809805448756 $863 11.412993377031352 $590 $866 forward 7 unknown #
point $-1 -56.233405560472427 24.050262322594698 -6.0379809805448756 #
edge $-1 $780 -24.050262322594701 $768 -11.254745733437872 $595 $867 forward 7 unknown #
straight-curve $-1 56.233405560472427 11.254745733437872 -4.3627435893940572 0 0 -1 I I #
vertex $-1 $778 $868 #
straight-curve $-1 56.233405560472427 24.050262322594701 0 0 0 -1 I I #
coedge $-1 $611 $610 $603 $783 forward $600 $-1 #
edge $-1 $784 3.7669276053975409e-007 $787 19.694062968668732 $782 $869 forward 7 unknown #
vertex $-1 $783 $870 #
straight-curve $-1 -56.233405560472427 -8.1673460997444529 48.720867956700737 0 0 1 I I #
edge $-1 $787 -5.5050013830111038 $612 0.18031194954440544 $611 $871 forward 7 unknown #
vertex $-1 $786 $872 #
straight-curve $-1 -56.233405560472434 -8.1673460997444529 0.042620835004342439 -0.8660253999169214 0 -0.50000000669873634 I I #
point $-1 -56.233405560472427 -8.1673460997444529 0.04262083500434654 #
point $-1 -36.539342968496456 -2.4820327671889437 11.412993377031352 #
straight-curve $-1 -56.233405560472427 0 11.412993377031352 0 -1 0 I I #
vertex $-1 $618 $873 #
point $-1 -45.453361557827236 -6.5429708618714493 5.1117817094502955 #
vertex $-1 $622 $874 #
point $-1 -45.453361557827236 -4.1064080050619438 5.1117817094502955 #
edge $-1 $797 3.7669276053975409e-007 $800 19.694062968668732 $627 $875 forward 7 unknown #
vertex $-1 $796 $876 #
straight-curve $-1 -56.233405560472427 3.0873996336934191 48.720867956700737 0 0 1 I I #
edge $-1 $800 0.12237148370783224 $638 5.8076848162633414 $637 $877 forward 7 unknown #
vertex $-1 $799 $878 #
straight-curve $-1 -56.233405560472434 3.0873996336934191 0.042620835004342439 -0.8660253999169214 0 -0.50000000669873634 I I #
point $-1 -56.233405560472427 3.0873996336934191 0.04262083500434654 #
point $-1 -36.539342968496456 8.7727129662489283 11.412993377031352 #
straight-curve $-1 -56.233405560472427 0 11.412993377031352 0 -1 0 I I #
vertex $-1 $644 $879 #
point $-1 -45.453361557827236 4.7117748715664227 5.1117817094502955 #
vertex $-1 $648 $880 #
point $-1 -45.453361557827236 7.1483377283759317 5.1117817094502955 #
coedge $-1 $663 $662 $655 $810 forward $652 $-1 #
edge $-1 $811 69.163543599172286 $814 74.999883143105663 $809 $881 forward 7 unknown #
vertex $-1 $667 $882 #
straight-curve $-1 11.58230900325773 -11.12130531442526 11.412993377031356 1 0 0 I I #
edge $-1 $814 -7.0109894906480612 $664 -1.2096421569063383 $663 $883 forward 7 unknown #
vertex $-1 $813 $884 #
straight-curve $-1 -38.089198276160708 -11.12130531442526 66.830470115774148 -0.83867056331134215 0 0.54463904215088732 I I #
point $-1 47.246230947252521 -11.12130531442526 11.412993377031356 #
point $-1 56.233405560472427 -5.3199579806835375 5.5766538330979785 #
straight-curve $-1 56.233405560472427 0 11.412993377031352 0 1 0 I I #
vertex $-1 $670 $885 #
point $-1 51.223433842003175 -9.4637775047847672 6.7816221388342184 #
vertex $-1 $674 $886 #
point $-1 51.223433842003175 -6.9774857903240282 6.7816221388342184 #
edge $-1 $824 69.163543599172286 $827 74.999883143105663 $679 $887 forward 7 unknown #
vertex $-1 $693 $888 #
straight-curve $-1 11.58230900325773 -3.6181414921333426 11.412993377031356 1 0 0 I I #
edge $-1 $827 -3.2594075795021018 $690 2.5419397542396203 $689 $889 forward 7 unknown #
vertex $-1 $826 $890 #
straight-curve $-1 -38.089198276160708 -3.6181414921333426 66.830470115774148 -0.83867056331134215 0 0.54463904215088732 I I #
point $-1 47.246230947252521 -3.6181414921333426 11.412993377031356 #
point $-1 56.233405560472427 2.1832058416083795 5.5766538330979785 #
straight-curve $-1 56.233405560472427 0 11.412993377031352 0 1 0 I I #
vertex $-1 $696 $891 #
point $-1 51.223433842003175 -1.960613682492852 6.7816221388342184 #
vertex $-1 $700 $892 #
point $-1 51.223433842003175 0.52567803196788887 6.7816221388342184 #
edge $-1 $837 69.163543599172286 $840 74.999883143105663 $705 $893 forward 7 unknown #
vertex $-1 $719 $894 #
straight-curve $-1 11.58230900325773 3.8850223301585745 11.412993377031356 1 0 0 I I #
edge $-1 $840 0.49217433164385671 $716 6.2935216653855797 $715 $895 forward 7 unknown #
vertex $-1 $839 $896 #
straight-curve $-1 -38.089198276160708 3.8850223301585745 66.830470115774148 -0.83867056331134215 0 0.54463904215088732 I I #
point $-1 47.246230947252521 3.8850223301585745 11.412993377031356 #
point $-1 56.233405560472427 9.6863696639002974 5.5766538330979785 #
straight-curve $-1 56.233405560472427 0 11.412993377031352 0 1 0 I I #
vertex $-1 $722 $897 #
point $-1 51.223433842003175 5.5425501397990651 6.7816221388342184 #
vertex $-1 $726 $898 #
point $-1 51.223433842003175 8.0288418542598059 6.7816221388342184 #
straight-curve $-1 -56.233405560472427 24.050262322594701 0 0 0 -1 I I #
point $-1 -56.233405560472427 -24.050262322594701 -11.412993377031352 #
straight-curve $-1 -56.233405560472427 0 -11.412993377031352 0 1 0 I I #
point $-1 -56.233405560472427 24.050262322594701 -11.412993377031352 #
edge $-1 $763 -56.233405560472427 $855 56.233405560472427 $760 $899 forward 7 unknown #
straight-curve $-1 56.233405560472427 0 -11.412993377031352 0 -1 0 I I #
vertex $-1 $751 $900 #
straight-curve $-1 -56.233405560472427 0 -11.412993377031352 0 1 0 I I #
point $-1 -56.233405560472427 -11.254745733437874 -11.412993377031352 #
straight-curve $-1 -56.233405560472427 -11.254745733437874 -4.3627435893940572 0 0 -1 I I #
straight-curve $-1 -56.233405560472427 -24.050262322594701 0 0 0 -1 I I #
point $-1 56.233405560472427 -24.050262322594701 -11.412993377031352 #
coedge $-1 $767 $766 $775 $865 forward $396 $-1 #
point $-1 56.233405560472427 11.254745733437872 -11.412993377031352 #
vertex $-1 $865 $901 #
straight-curve $-1 -56.233405560472427 0 -11.412993377031352 0 1 0 I I #
edge $-1 $863 -56.233405560472427 $780 56.233405560472427 $775 $902 forward 7 unknown #
straight-curve $-1 -56.233405560472427 24.050262322594701 0 0 0 -1 I I #
straight-curve $-1 56.233405560472427 0 -11.412993377031352 0 -1 0 I I #
point $-1 56.233405560472427 24.050262322594701 -11.412993377031352 #
straight-curve $-1 -56.233405937165188 -8.1673460997444529 11.412993377031356 1 0 0 I I #
point $-1 -56.233405560472427 -8.1673460997444529 11.412993377031352 #
straight-curve $-1 -36.539342968496449 -2.6623447167333492 11.412993377031352 0 1 0 I I #
point $-1 -36.539342968496456 -8.1673460997444529 11.412993377031352 #
point $-1 -45.636374254436326 -6.5429708618714493 4.4287690061424669 #
point $-1 -45.636374254436326 -4.1064080050619438 4.4287690061424669 #
straight-curve $-1 -56.233405937165188 3.0873996336934191 11.412993377031356 1 0 0 I I #
point $-1 -56.233405560472427 3.0873996336934191 11.412993377031352 #
straight-curve $-1 -36.539342968496449 2.9650281499855868 11.412993377031352 0 1 0 I I #
point $-1 -36.539342968496456 3.0873996336934191 11.412993377031352 #
point $-1 -45.636374254436326 4.7117748715664227 4.4287690061424669 #
point $-1 -45.636374254436326 7.1483377283759317 4.4287690061424669 #
straight-curve $-1 56.233405560472427 -11.12130531442526 80.576536976203641 0 0 -1 I I #
point $-1 56.233405560472427 -11.12130531442526 11.412993377031352 #
straight-curve $-1 56.23340556047242 -4.1103158237771993 5.5766538330979891 0 1 0 I I #
point $-1 56.233405560472427 -11.12130531442526 5.5766538330979785 #
point $-1 50.53177903927206 -9.4637775047847672 6.6346063782539906 #
point $-1 50.53177903927206 -6.9774857903240282 6.6346063782539906 #
straight-curve $-1 56.233405560472427 -3.6181414921333426 80.576536976203641 0 0 -1 I I #
point $-1 56.233405560472427 -3.6181414921333426 11.412993377031352 #
straight-curve $-1 56.23340556047242 -0.35873391263124077 5.5766538330979891 0 1 0 I I #
point $-1 56.233405560472427 -3.6181414921333426 5.5766538330979785 #
point $-1 50.53177903927206 -1.960613682492852 6.6346063782539906 #
point $-1 50.53177903927206 0.52567803196788887 6.6346063782539906 #
straight-curve $-1 56.233405560472427 3.8850223301585745 80.576536976203641 0 0 -1 I I #
point $-1 56.233405560472427 3.8850223301585745 11.412993377031352 #
straight-curve $-1 56.23340556047242 3.3928479985147177 5.5766538330979891 0 1 0 I I #
point $-1 56.233405560472427 3.8850223301585745 5.5766538330979785 #
point $-1 50.53177903927206 5.5425501397990651 6.6346063782539906 #
point $-1 50.53177903927206 8.0288418542598059 6.6346063782539906 #
straight-curve $-1 0 -24.050262322594701 -11.412993377031352 -1 0 0 I I #
point $-1 -56.233405560472427 -24.050262322594701 -11.412993377031352 #
point $-1 -56.233405560472427 24.050262322594701 -11.412993377031352 #
straight-curve $-1 0 24.050262322594701 -11.412993377031352 1 0 0 I I #
End-of-ACIS-data 