500 0 8 0           
7 Unknown 11 ACIS 5.0 NT 24 Fri Mar 26 19:28:21 1999 
-1 9.9999999999999995e-007 1e-010 
body $-1 $8 $-1 $9 #
body $-1 $10 $-1 $11 #
body $-1 $12 $-1 $13 #
body $-1 $14 $-1 $15 #
body $-1 $16 $-1 $17 #
body $-1 $18 $-1 $19 #
body $-1 $20 $-1 $21 #
body $-1 $22 $-1 $23 #
lump $-1 $-1 $24 $0 #
transform $-1 1 0 0 0 1 0 0 0 1 58.170720542008731 36.348578415891609 14.178463703264779 1 rotate no_reflect no_shear #
lump $-1 $-1 $25 $1 #
transform $-1 1 0 0 0 1 0 0 0 1 58.170720542008731 36.348578415891609 14.178463703264779 1 rotate no_reflect no_shear #
lump $-1 $-1 $26 $2 #
transform $-1 1 0 0 0 1 0 0 0 1 58.170720542008731 36.348578415891609 14.178463703264779 1 rotate no_reflect no_shear #
lump $-1 $-1 $27 $3 #
transform $-1 1 0 0 0 1 0 0 0 1 58.170720542008731 36.348578415891609 14.178463703264779 1 rotate no_reflect no_shear #
lump $-1 $-1 $28 $4 #
transform $-1 1 0 0 0 1 0 0 0 1 58.170720542008731 36.348578415891609 14.178463703264779 1 rotate no_reflect no_shear #
lump $-1 $-1 $29 $5 #
transform $-1 1 0 0 0 1 0 0 0 1 58.170720542008731 36.348578415891609 14.178463703264779 1 rotate no_reflect no_shear #
lump $-1 $-1 $30 $6 #
transform $-1 1 0 0 0 1 0 0 0 1 58.170720542008731 36.348578415891609 14.178463703264779 1 rotate no_reflect no_shear #
lump $-1 $-1 $31 $7 #
transform $-1 1 0 0 0 1 0 0 0 1 58.170720542008731 36.348578415891609 14.178463703264779 1 rotate no_reflect no_shear #
shell $-1 $-1 $-1 $32 $-1 $8 #
shell $-1 $-1 $-1 $33 $-1 $10 #
shell $-1 $-1 $-1 $34 $-1 $12 #
shell $-1 $-1 $-1 $35 $-1 $14 #
shell $-1 $-1 $-1 $36 $-1 $16 #
shell $-1 $-1 $-1 $37 $-1 $18 #
shell $-1 $-1 $-1 $38 $-1 $20 #
shell $-1 $-1 $-1 $39 $-1 $22 #
face $-1 $40 $41 $24 $-1 $42 forward single #
face $-1 $43 $44 $25 $-1 $45 forward single #
face $-1 $46 $47 $26 $-1 $48 reversed single #
face $-1 $49 $50 $27 $-1 $51 forward single #
face $-1 $52 $53 $28 $-1 $54 forward single #
face $-1 $55 $56 $29 $-1 $57 reversed single #
face $-1 $58 $59 $30 $-1 $60 forward single #
face $-1 $61 $62 $31 $-1 $63 forward single #
face $-1 $64 $65 $24 $-1 $66 reversed single #
loop $-1 $-1 $67 $32 #
plane-surface $-1 0 0 14.178463703264779 0 0 1 1 0 0 forward_v I I I I #
face $-1 $68 $69 $25 $-1 $70 forward single #
loop $-1 $-1 $71 $33 #
plane-surface $-1 0 -36.348578415891609 0 0 1 0 0 0 1 forward_v I I I I #
face $-1 $72 $73 $26 $-1 $74 reversed single #
loop $-1 $-1 $75 $34 #
plane-surface $-1 35.272343016094105 26.128171017576452 172.80536277821523 0 1 0 0.6018150307709319 0 0.79863550430605224 forward_v I I I I #
face $-1 $76 $77 $27 $-1 $78 forward single #
loop $-1 $79 $80 $35 #
cone-surface $-1 54.889300851193077 29.048287417095068 11.461470644159686 -0.6018150307709319 0 -0.79863550430605224 0.79863550430605224 0 -0.6018150307709319 1 I I 0 1 1 forward I I I I #
face $-1 $81 $82 $28 $-1 $83 forward single #
loop $-1 $84 $85 $36 #
cone-surface $-1 54.889300851193077 33.42846201637299 11.461470644159686 -0.6018150307709319 0 -0.79863550430605224 0.79863550430605224 0 -0.6018150307709319 1 I I 0 1 1 forward I I I I #
face $-1 $86 $87 $29 $-1 $88 reversed single #
loop $-1 $-1 $89 $37 #
plane-surface $-1 -128.18674848792125 26.128171017576452 102.7893348323027 0 1 0 -0.6018150307709319 0 0.79863550430605224 forward_v I I I I #
face $-1 $90 $91 $30 $-1 $92 forward single #
loop $-1 $93 $94 $38 #
cone-surface $-1 -54.889300851193084 29.048287417095068 11.461470644159679 0.6018150307709319 0 -0.79863550430605224 0.79863550430605224 0 0.6018150307709319 1 I I 0 1 1 forward I I I I #
face $-1 $95 $96 $31 $-1 $97 forward single #
loop $-1 $98 $99 $39 #
cone-surface $-1 -54.889300851193084 33.42846201637299 11.461470644159679 0.6018150307709319 0 -0.79863550430605224 0.79863550430605224 0 0.6018150307709319 1 I I 0 1 1 forward I I I I #
face $-1 $100 $101 $24 $-1 $102 reversed single #
loop $-1 $-1 $103 $40 #
plane-surface $-1 0 0 -14.178463703264779 0 0 1 1 0 0 forward_v I I I I #
coedge $-1 $104 $105 $106 $107 forward $41 $-1 #
face $-1 $108 $109 $25 $-1 $110 reversed single #
loop $-1 $-1 $111 $43 #
plane-surface $-1 0 0 14.178463703264779 0 0 1 1 0 0 forward_v I I I I #
coedge $-1 $112 $113 $114 $115 forward $44 $-1 #
face $-1 $116 $117 $26 $-1 $118 reversed single #
loop $-1 $-1 $119 $46 #
plane-surface $-1 -34.743684929818436 31.238374716734029 79.89095730638806 0.6018150307709319 0 0.79863550430605224 0.79863550430605224 0 -0.6018150307709319 forward_v I I I I #
coedge $-1 $120 $121 $122 $123 reversed $47 $-1 #
face $-1 $-1 $124 $27 $-1 $125 forward single #
loop $-1 $126 $127 $49 #
cone-surface $-1 54.162465070446324 29.048287417095068 10.496927004296172 -0.6018150307709319 0 -0.79863550430605224 0.39931775215302612 0 -0.30090751538546595 1 I I -0.70710678118654746 0.70710678118654746 0.5 forward I I I I #
loop $-1 $-1 $128 $35 #
coedge $-1 $80 $80 $129 $130 reversed $50 $-1 #
face $-1 $-1 $131 $28 $-1 $132 forward single #
loop $-1 $133 $134 $52 #
cone-surface $-1 54.162465070446324 33.42846201637299 10.496927004296172 -0.6018150307709319 0 -0.79863550430605224 0.39931775215302612 0 -0.30090751538546595 1 I I -0.70710678118654746 0.70710678118654746 0.5 forward I I I I #
loop $-1 $-1 $135 $36 #
coedge $-1 $85 $85 $136 $137 reversed $53 $-1 #
face $-1 $138 $139 $29 $-1 $140 reversed single #
loop $-1 $-1 $141 $55 #
plane-surface $-1 -58.170720542008709 31.238374716734029 9.8749293604755337 -0.6018150307709319 0 0.79863550430605224 0.79863550430605224 0 0.6018150307709319 forward_v I I I I #
coedge $-1 $142 $143 $144 $145 reversed $56 $-1 #
face $-1 $-1 $146 $30 $-1 $147 forward single #
loop $-1 $148 $149 $58 #
cone-surface $-1 -54.162465070446331 29.048287417095068 10.496927004296165 0.6018150307709319 0 -0.79863550430605224 0.39931775215302612 0 0.30090751538546595 1 I I -0.70710678118654746 0.70710678118654746 0.5 forward I I I I #
loop $-1 $-1 $150 $38 #
coedge $-1 $94 $94 $151 $152 reversed $59 $-1 #
face $-1 $-1 $153 $31 $-1 $154 forward single #
loop $-1 $155 $156 $61 #
cone-surface $-1 -54.162465070446331 33.42846201637299 10.496927004296165 0.6018150307709319 0 -0.79863550430605224 0.39931775215302612 0 0.30090751538546595 1 I I -0.70710678118654746 0.70710678118654746 0.5 forward I I I I #
loop $-1 $-1 $157 $39 #
coedge $-1 $99 $99 $158 $159 reversed $62 $-1 #
face $-1 $160 $161 $24 $-1 $162 reversed single #
loop $-1 $-1 $163 $64 #
plane-surface $-1 0 -36.348578415891609 0 0 1 0 0 0 1 forward_v I I I I #
coedge $-1 $164 $165 $166 $167 forward $65 $-1 #
coedge $-1 $168 $67 $169 $170 forward $41 $-1 #
coedge $-1 $67 $168 $171 $172 forward $41 $-1 #
coedge $-1 $173 $174 $67 $107 reversed $175 $-1 #
edge $-1 $176 -36.348578415891609 $177 36.348578415891609 $106 $178 forward 7 unknown #
face $-1 $179 $180 $25 $-1 $181 reversed single #
loop $-1 $-1 $182 $68 #
plane-surface $-1 -58.170720542008731 0 0 1 0 0 0 0 -1 forward_v I I I I #
coedge $-1 $183 $184 $113 $185 forward $69 $-1 #
coedge $-1 $186 $71 $187 $188 reversed $44 $-1 #
coedge $-1 $71 $186 $111 $185 reversed $44 $-1 #
coedge $-1 $189 $190 $71 $115 reversed $191 $-1 #
edge $-1 $192 -14.178463703264779 $193 14.178463703264779 $114 $194 forward 7 unknown #
face $-1 $195 $196 $26 $-1 $197 forward single #
loop $-1 $-1 $198 $72 #
plane-surface $-1 0 36.348578415891609 0 0 -1 0 0 0 -1 forward_v I I I I #
coedge $-1 $199 $200 $201 $202 reversed $73 $-1 #
coedge $-1 $121 $75 $203 $204 reversed $47 $-1 #
coedge $-1 $75 $120 $199 $205 reversed $47 $-1 #
coedge $-1 $201 $206 $75 $123 forward $207 $-1 #
edge $-1 $208 72.224217685842831 $209 76.527752028632094 $122 $210 forward 7 unknown #
loop $-1 $-1 $129 $76 #
plane-surface $-1 -34.743684929818436 31.238374716734029 79.89095730638806 0.6018150307709319 0 0.79863550430605224 0.79863550430605224 0 -0.6018150307709319 forward_v I I I I #
loop $-1 $-1 $211 $49 #
coedge $-1 $127 $127 $128 $212 reversed $77 $-1 #
coedge $-1 $128 $128 $127 $212 forward $79 $-1 #
coedge $-1 $129 $129 $80 $130 forward $124 $-1 #
edge $-1 $213 0 $213 6.2831853071796004 $129 $214 forward 7 unknown #
loop $-1 $-1 $136 $81 #
plane-surface $-1 -34.743684929818436 31.238374716734029 79.89095730638806 0.6018150307709319 0 0.79863550430605224 0.79863550430605224 0 -0.6018150307709319 forward_v I I I I #
loop $-1 $-1 $215 $52 #
coedge $-1 $134 $134 $135 $216 reversed $82 $-1 #
coedge $-1 $135 $135 $134 $216 forward $84 $-1 #
coedge $-1 $136 $136 $85 $137 forward $131 $-1 #
edge $-1 $217 0 $217 6.2831853071796004 $136 $218 forward 7 unknown #
face $-1 $219 $220 $29 $-1 $221 reversed single #
loop $-1 $-1 $222 $86 #
plane-surface $-1 0 36.348578415891609 0 0 -1 0 0 0 -1 forward_v I I I I #
coedge $-1 $223 $224 $225 $226 reversed $87 $-1 #
coedge $-1 $143 $89 $227 $228 reversed $56 $-1 #
coedge $-1 $89 $142 $223 $229 reversed $56 $-1 #
coedge $-1 $225 $230 $89 $145 forward $231 $-1 #
edge $-1 $232 5.9226537019518943 $233 11.633636552860651 $144 $234 forward 7 unknown #
loop $-1 $-1 $151 $90 #
plane-surface $-1 -58.170720542008709 31.238374716734029 9.8749293604755337 -0.6018150307709319 0 0.79863550430605224 0.79863550430605224 0 0.6018150307709319 forward_v I I I I #
loop $-1 $-1 $235 $58 #
coedge $-1 $149 $149 $150 $236 reversed $91 $-1 #
coedge $-1 $150 $150 $149 $236 forward $93 $-1 #
coedge $-1 $151 $151 $94 $152 forward $146 $-1 #
edge $-1 $237 0 $237 6.2831853071796004 $151 $238 forward 7 unknown #
loop $-1 $-1 $158 $95 #
plane-surface $-1 -58.170720542008709 31.238374716734029 9.8749293604755337 -0.6018150307709319 0 0.79863550430605224 0.79863550430605224 0 0.6018150307709319 forward_v I I I I #
loop $-1 $-1 $239 $61 #
coedge $-1 $156 $156 $157 $240 reversed $96 $-1 #
coedge $-1 $157 $157 $156 $240 forward $98 $-1 #
coedge $-1 $158 $158 $99 $159 forward $153 $-1 #
edge $-1 $241 0 $241 6.2831853071796004 $158 $242 forward 7 unknown #
face $-1 $243 $244 $24 $-1 $245 reversed single #
loop $-1 $-1 $246 $100 #
plane-surface $-1 -58.170720542008731 0 0 1 0 0 0 0 -1 forward_v I I I I #
coedge $-1 $247 $171 $248 $249 forward $101 $-1 #
coedge $-1 $250 $103 $247 $251 forward $65 $-1 #
coedge $-1 $103 $250 $252 $253 forward $65 $-1 #
coedge $-1 $174 $173 $103 $167 reversed $175 $-1 #
edge $-1 $254 -36.348578415891609 $255 36.348578415891609 $166 $256 forward 7 unknown #
coedge $-1 $105 $104 $257 $258 forward $41 $-1 #
coedge $-1 $259 $260 $104 $170 reversed $244 $-1 #
edge $-1 $177 -58.170720542008731 $261 58.170720542008731 $169 $262 forward 7 unknown #
coedge $-1 $163 $263 $105 $172 reversed $101 $-1 #
edge $-1 $264 -58.170720542008731 $176 58.170720542008731 $171 $265 forward 7 unknown #
coedge $-1 $166 $106 $263 $266 forward $175 $-1 #
coedge $-1 $106 $166 $259 $267 reversed $175 $-1 #
loop $-1 $-1 $173 $243 #
vertex $-1 $107 $268 #
vertex $-1 $107 $269 #
straight-curve $-1 58.170720542008731 0 14.178463703264779 0 1 0 I I #
face $-1 $270 $191 $25 $-1 $271 reversed single #
loop $-1 $-1 $272 $108 #
plane-surface $-1 -54.35083896218601 -52.397065819415786 0 0 1 0 0 0 1 forward_v I I I I #
coedge $-1 $273 $274 $186 $275 forward $109 $-1 #
coedge $-1 $276 $111 $274 $277 forward $69 $-1 #
coedge $-1 $111 $276 $189 $278 forward $69 $-1 #
edge $-1 $192 50.53095738236329 $279 58.170720542008731 $111 $280 forward 7 unknown #
coedge $-1 $113 $112 $182 $275 reversed $44 $-1 #
coedge $-1 $281 $282 $112 $188 forward $283 $-1 #
edge $-1 $284 -58.170720542008731 $193 -50.53095738236329 $187 $285 forward 7 unknown #
coedge $-1 $286 $114 $184 $278 reversed $191 $-1 #
coedge $-1 $114 $286 $281 $287 reversed $191 $-1 #
loop $-1 $-1 $286 $179 #
vertex $-1 $185 $288 #
vertex $-1 $287 $289 #
straight-curve $-1 -50.53095738236329 -36.348578415891609 0 0 0 -1 I I #
face $-1 $-1 $207 $26 $-1 $290 reversed single #
loop $-1 $-1 $203 $116 #
plane-surface $-1 0 0 14.178463703264779 0 0 1 1 0 0 forward_v I I I I #
coedge $-1 $291 $292 $200 $293 forward $117 $-1 #
coedge $-1 $294 $119 $121 $205 forward $73 $-1 #
coedge $-1 $119 $294 $198 $293 reversed $73 $-1 #
coedge $-1 $295 $122 $119 $202 forward $207 $-1 #
edge $-1 $209 10.508983659209438 $296 20.729391057524595 $201 $297 forward 7 unknown #
coedge $-1 $298 $299 $120 $204 forward $196 $-1 #
edge $-1 $300 34.823566183052918 $208 40.534549033961682 $203 $301 forward 7 unknown #
edge $-1 $209 -116.3414410840175 $300 -109.19051576186926 $121 $302 forward 7 unknown #
coedge $-1 $122 $295 $298 $303 reversed $207 $-1 #
loop $-1 $-1 $201 $195 #
vertex $-1 $303 $304 #
vertex $-1 $123 $305 #
straight-curve $-1 58.170720542008731 26.128171017576452 86.402681389107613 0 0 -1 I I #
coedge $-1 $211 $211 $-1 $306 reversed $126 $-1 #
edge $-1 $307 0 $307 6.2831853071796004 $127 $308 forward 7 unknown #
vertex $-1 $130 $309 #
ellipse-curve $-1 55.315229116554349 29.048287417095068 12.026696531870151 0.6018150307709319 0 0.79863550430605224 0.79863550430605224 0 -0.6018150307709319 1 I I #
coedge $-1 $215 $215 $-1 $310 reversed $133 $-1 #
edge $-1 $311 0 $311 6.2831853071796004 $134 $312 forward 7 unknown #
vertex $-1 $137 $313 #
ellipse-curve $-1 55.315229116554349 33.42846201637299 12.026696531870151 0.6018150307709319 0 0.79863550430605224 0.79863550430605224 0 -0.6018150307709319 1 I I #
face $-1 $-1 $231 $29 $-1 $314 forward single #
loop $-1 $-1 $315 $138 #
plane-surface $-1 -58.170720542008731 0 0 1 0 0 0 0 -1 forward_v I I I I #
coedge $-1 $316 $317 $224 $318 forward $139 $-1 #
coedge $-1 $319 $141 $143 $229 forward $87 $-1 #
coedge $-1 $141 $319 $222 $318 reversed $87 $-1 #
coedge $-1 $320 $144 $141 $226 forward $231 $-1 #
edge $-1 $233 10.508983659209438 $321 20.729391057524595 $225 $322 forward 7 unknown #
coedge $-1 $323 $315 $142 $228 forward $220 $-1 #
edge $-1 $324 -41.51973805567583 $232 -37.216203712886568 $227 $325 forward 7 unknown #
edge $-1 $233 -7.1509253221481845 $324 2.6645283896817444e-014 $143 $326 forward 7 unknown #
coedge $-1 $144 $320 $323 $327 forward $231 $-1 #
loop $-1 $-1 $225 $219 #
vertex $-1 $228 $328 #
vertex $-1 $145 $329 #
straight-curve $-1 -64.093374243960625 26.128171017576452 14.178463703264782 1 0 0 I I #
coedge $-1 $235 $235 $-1 $330 reversed $148 $-1 #
edge $-1 $331 0 $331 6.2831853071796004 $149 $332 forward 7 unknown #
vertex $-1 $152 $333 #
ellipse-curve $-1 -55.315229116554356 29.048287417095068 12.026696531870146 -0.6018150307709319 0 0.79863550430605224 0.79863550430605224 0 0.6018150307709319 1 I I #
coedge $-1 $239 $239 $-1 $334 reversed $155 $-1 #
edge $-1 $335 0 $335 6.2831853071796004 $156 $336 forward 7 unknown #
vertex $-1 $159 $337 #
ellipse-curve $-1 -55.315229116554356 33.42846201637299 12.026696531870146 -0.6018150307709319 0 0.79863550430605224 0.79863550430605224 0 0.6018150307709319 1 I I #
face $-1 $-1 $175 $24 $-1 $338 reversed single #
loop $-1 $-1 $259 $160 #
plane-surface $-1 0 36.348578415891609 0 0 -1 0 0 0 -1 forward_v I I I I #
coedge $-1 $339 $257 $260 $340 forward $161 $-1 #
coedge $-1 $263 $163 $164 $251 reversed $101 $-1 #
coedge $-1 $257 $339 $163 $249 reversed $161 $-1 #
edge $-1 $264 -14.178463703264779 $341 14.178463703264779 $248 $342 forward 7 unknown #
coedge $-1 $165 $164 $339 $343 forward $65 $-1 #
edge $-1 $255 -58.170720542008731 $341 58.170720542008731 $247 $344 forward 7 unknown #
coedge $-1 $260 $259 $165 $253 reversed $244 $-1 #
edge $-1 $345 -58.170720542008731 $254 58.170720542008731 $252 $346 forward 7 unknown #
vertex $-1 $167 $347 #
vertex $-1 $266 $348 #
straight-curve $-1 58.170720542008731 0 -14.178463703264779 0 -1 0 I I #
coedge $-1 $246 $248 $168 $258 reversed $161 $-1 #
edge $-1 $261 -36.348578415891609 $264 36.348578415891609 $257 $349 forward 7 unknown #
coedge $-1 $252 $169 $174 $267 forward $244 $-1 #
coedge $-1 $169 $252 $246 $340 reversed $244 $-1 #
vertex $-1 $170 $350 #
straight-curve $-1 0 36.348578415891609 14.178463703264779 -1 0 0 I I #
coedge $-1 $171 $247 $173 $266 reversed $101 $-1 #
vertex $-1 $258 $351 #
straight-curve $-1 0 -36.348578415891609 14.178463703264779 1 0 0 I I #
edge $-1 $176 -14.178463703264779 $255 14.178463703264779 $173 $352 forward 7 unknown #
edge $-1 $177 -14.178463703264779 $254 14.178463703264779 $174 $353 forward 7 unknown #
point $-1 58.170720542008731 -36.348578415891609 14.178463703264779 #
point $-1 58.170720542008731 36.348578415891609 14.178463703264779 #
face $-1 $-1 $283 $25 $-1 $354 reversed single #
plane-surface $-1 -50.53095738236329 -44.372822117653698 0 -1 0 0 0 0 1 forward_v I I I I #
coedge $-1 $355 $356 $357 $358 forward $180 $-1 #
coedge $-1 $357 $182 $282 $359 reversed $109 $-1 #
coedge $-1 $182 $357 $183 $277 reversed $109 $-1 #
edge $-1 $279 -14.178463703264779 $284 14.178463703264779 $182 $360 forward 7 unknown #
coedge $-1 $184 $183 $356 $361 forward $69 $-1 #
edge $-1 $279 36.348578415891609 $362 52.397065819415786 $274 $363 forward 7 unknown #
edge $-1 $364 -8.0242437017620887 $192 8.0242437017620887 $189 $365 forward 7 unknown #
vertex $-1 $277 $366 #
straight-curve $-1 0 -36.348578415891609 14.178463703264779 -1 0 0 I I #
coedge $-1 $367 $187 $190 $287 forward $283 $-1 #
coedge $-1 $187 $367 $273 $359 forward $283 $-1 #
loop $-1 $-1 $187 $270 #
vertex $-1 $275 $368 #
straight-curve $-1 0 -36.348578415891609 -14.178463703264779 1 0 0 I I #
coedge $-1 $190 $189 $369 $370 forward $191 $-1 #
edge $-1 $193 -8.0242437017620887 $371 8.0242437017620887 $190 $372 forward 7 unknown #
point $-1 -50.53095738236329 -36.348578415891609 14.178463703264779 #
point $-1 -50.53095738236329 -36.348578415891609 -14.178463703264779 #
plane-surface $-1 58.170720542008731 0 0 -1 0 0 0 0 1 forward_v I I I I #
coedge $-1 $292 $198 $373 $374 reversed $117 $-1 #
coedge $-1 $198 $291 $295 $375 forward $117 $-1 #
edge $-1 $296 -78.427881451497854 $376 -71.276956129349642 $198 $377 forward 7 unknown #
coedge $-1 $200 $199 $299 $378 reversed $73 $-1 #
coedge $-1 $206 $201 $292 $375 reversed $207 $-1 #
vertex $-1 $293 $379 #
straight-curve $-1 58.170720542008723 15.619187358367014 9.8749293604755266 0 1 0 I I #
coedge $-1 $373 $203 $206 $303 forward $196 $-1 #
coedge $-1 $203 $373 $294 $378 forward $196 $-1 #
vertex $-1 $204 $380 #
straight-curve $-1 17.636171508047052 26.128171017576452 14.178463703264782 1 0 0 I I #
straight-curve $-1 -34.743684929818436 26.128171017576452 79.89095730638806 -0.79863550430605224 0 0.6018150307709319 I I #
edge $-1 $208 26.128171017576452 $381 36.348578415891609 $206 $382 forward 7 unknown #
point $-1 58.170720542008731 26.128171017576452 14.178463703264779 #
point $-1 58.170720542008731 26.128171017576452 9.8749293604755195 #
edge $-1 $383 1 $383 0 $211 $-1 forward 7 unknown #
vertex $-1 $212 $384 #
ellipse-curve $-1 54.463372585831792 29.048287417095068 10.896244756449198 0.6018150307709319 0 0.79863550430605224 0.79863550430605224 0 -0.6018150307709319 1 I I #
point $-1 56.113864620860419 29.048287417095068 11.42488150109924 #
edge $-1 $385 1 $385 0 $215 $-1 forward 7 unknown #
vertex $-1 $216 $386 #
ellipse-curve $-1 54.463372585831792 33.42846201637299 10.896244756449198 0.6018150307709319 0 0.79863550430605224 0.79863550430605224 0 -0.6018150307709319 1 I I #
point $-1 56.113864620860419 33.42846201637299 11.42488150109924 #
plane-surface $-1 0 0 14.178463703264779 0 0 1 1 0 0 forward_v I I I I #
coedge $-1 $227 $387 $319 $388 forward $220 $-1 #
coedge $-1 $317 $222 $387 $389 reversed $139 $-1 #
coedge $-1 $222 $316 $320 $390 reversed $139 $-1 #
edge $-1 $321 13.106235587340912 $391 20.257160909489123 $222 $392 forward 7 unknown #
coedge $-1 $224 $223 $315 $388 reversed $87 $-1 #
coedge $-1 $230 $225 $317 $390 forward $231 $-1 #
vertex $-1 $390 $393 #
straight-curve $-1 -52.459737691099974 15.619187358367014 14.178463703264779 0 1 0 I I #
coedge $-1 $387 $227 $230 $327 reversed $220 $-1 #
vertex $-1 $228 $394 #
straight-curve $-1 -58.170720542008731 26.128171017576452 51.39466741615135 0 0 1 I I #
straight-curve $-1 -58.170720542008709 26.128171017576452 9.8749293604755337 -0.79863550430605224 0 -0.6018150307709319 I I #
edge $-1 $395 -36.348578415891609 $232 -26.128171017576452 $323 $396 forward 7 unknown #
point $-1 -58.170720542008731 26.128171017576452 14.178463703264779 #
point $-1 -52.459737691099974 26.128171017576452 14.178463703264779 #
edge $-1 $397 1 $397 0 $235 $-1 forward 7 unknown #
vertex $-1 $236 $398 #
ellipse-curve $-1 -54.463372585831799 29.048287417095068 10.896244756449191 -0.6018150307709319 0 0.79863550430605224 0.79863550430605224 0 0.6018150307709319 1 I I #
point $-1 -54.516593612248322 29.048287417095068 12.628511562641096 #
edge $-1 $399 1 $399 0 $239 $-1 forward 7 unknown #
vertex $-1 $240 $400 #
ellipse-curve $-1 -54.463372585831799 33.42846201637299 10.896244756449191 -0.6018150307709319 0 0.79863550430605224 0.79863550430605224 0 0.6018150307709319 1 I I #
point $-1 -54.516593612248322 33.42846201637299 12.628511562641096 #
plane-surface $-1 58.170720542008731 0 0 -1 0 0 0 0 1 forward_v I I I I #
coedge $-1 $248 $246 $250 $343 reversed $161 $-1 #
edge $-1 $261 -14.178463703264779 $345 14.178463703264779 $260 $401 forward 7 unknown #
vertex $-1 $343 $402 #
straight-curve $-1 -58.170720542008731 -36.348578415891609 0 0 0 -1 I I #
edge $-1 $341 -36.348578415891609 $345 36.348578415891609 $339 $403 forward 7 unknown #
straight-curve $-1 0 -36.348578415891609 -14.178463703264779 -1 0 0 I I #
vertex $-1 $253 $404 #
straight-curve $-1 0 36.348578415891609 -14.178463703264779 1 0 0 I I #
point $-1 58.170720542008731 36.348578415891609 -14.178463703264779 #
point $-1 58.170720542008731 -36.348578415891609 -14.178463703264779 #
straight-curve $-1 -58.170720542008731 0 14.178463703264779 0 -1 0 I I #
point $-1 -58.170720542008731 36.348578415891609 14.178463703264779 #
point $-1 -58.170720542008731 -36.348578415891609 14.178463703264779 #
straight-curve $-1 58.170720542008731 -36.348578415891609 0 0 0 -1 I I #
straight-curve $-1 58.170720542008731 36.348578415891609 0 0 0 -1 I I #
plane-surface $-1 0 0 -14.178463703264779 0 0 1 1 0 0 forward_v I I I I #
coedge $-1 $369 $272 $367 $405 reversed $180 $-1 #
coedge $-1 $272 $369 $276 $361 reversed $180 $-1 #
coedge $-1 $274 $273 $272 $358 reversed $109 $-1 #
edge $-1 $362 -14.178463703264779 $406 14.178463703264779 $357 $407 forward 7 unknown #
edge $-1 $406 -52.397065819415786 $284 -36.348578415891609 $273 $408 forward 7 unknown #
straight-curve $-1 -58.170720542008731 -36.348578415891609 0 0 0 -1 I I #
edge $-1 $362 -3.8198815798227201 $364 3.8198815798227201 $356 $409 forward 7 unknown #
vertex $-1 $277 $410 #
straight-curve $-1 -58.170720542008731 0 14.178463703264779 0 -1 0 I I #
vertex $-1 $278 $411 #
straight-curve $-1 -50.53095738236329 -44.372822117653698 14.178463703264779 0 1 0 I I #
point $-1 -58.170720542008731 -36.348578415891609 14.178463703264779 #
coedge $-1 $282 $281 $355 $405 forward $283 $-1 #
point $-1 -58.170720542008731 -36.348578415891609 -14.178463703264779 #
coedge $-1 $356 $355 $286 $370 reversed $180 $-1 #
edge $-1 $364 -14.178463703264779 $371 14.178463703264779 $286 $412 forward 7 unknown #
vertex $-1 $370 $413 #
straight-curve $-1 -50.53095738236329 -44.372822117653698 -14.178463703264779 0 -1 0 I I #
coedge $-1 $299 $298 $291 $374 forward $196 $-1 #
edge $-1 $381 -58.170720542008731 $376 -52.459737691099967 $291 $414 forward 7 unknown #
edge $-1 $381 -14.178463703264779 $296 -9.8749293604755159 $295 $415 forward 7 unknown #
vertex $-1 $293 $416 #
straight-curve $-1 -4.4645701126635338 36.348578415891609 57.074007249507702 -0.79863550430605224 0 0.6018150307709319 I I #
edge $-1 $376 -20.729391057524595 $300 -10.508983659209438 $299 $417 forward 7 unknown #
point $-1 58.170720542008731 36.348578415891609 9.8749293604755159 #
point $-1 52.459737691099967 26.128171017576452 14.178463703264782 #
vertex $-1 $303 $418 #
straight-curve $-1 58.170720542008731 0 14.178463703264779 0 1 0 I I #
vertex $-1 $306 $419 #
point $-1 55.26200809013784 29.048287417095068 10.294429725678267 #
vertex $-1 $310 $420 #
point $-1 55.26200809013784 33.42846201637299 10.294429725678267 #
coedge $-1 $315 $323 $316 $389 forward $220 $-1 #
edge $-1 $391 -20.729391057524595 $324 -10.508983659209438 $315 $421 forward 7 unknown #
edge $-1 $395 -14.178463703264779 $391 -9.8749293604755177 $316 $422 forward 7 unknown #
edge $-1 $321 52.459737691099974 $395 58.170720542008731 $317 $423 forward 7 unknown #
vertex $-1 $388 $424 #
straight-curve $-1 -41.992632623250039 36.348578415891609 22.065993276551435 -0.79863550430605224 0 -0.6018150307709319 I I #
point $-1 -52.459737691099974 36.348578415891609 14.178463703264779 #
point $-1 -58.170720542008731 26.128171017576452 9.8749293604755177 #
vertex $-1 $390 $425 #
straight-curve $-1 -58.170720542008731 0 14.178463703264779 0 -1 0 I I #
vertex $-1 $330 $426 #
point $-1 -53.664737081525743 29.048287417095068 11.498059787220123 #
vertex $-1 $334 $427 #
point $-1 -53.664737081525743 33.42846201637299 11.498059787220123 #
straight-curve $-1 -58.170720542008731 36.348578415891609 0 0 0 -1 I I #
point $-1 -58.170720542008731 -36.348578415891609 -14.178463703264779 #
straight-curve $-1 -58.170720542008731 0 -14.178463703264779 0 1 0 I I #
point $-1 -58.170720542008731 36.348578415891609 -14.178463703264779 #
edge $-1 $371 -3.8198815798227201 $406 3.8198815798227201 $355 $428 forward 7 unknown #
vertex $-1 $359 $429 #
straight-curve $-1 -58.170720542008731 -52.397065819415786 0 0 0 -1 I I #
straight-curve $-1 -58.170720542008731 0 -14.178463703264779 0 1 0 I I #
straight-curve $-1 -54.35083896218601 -52.397065819415786 14.178463703264779 1 0 0 I I #
point $-1 -58.170720542008731 -52.397065819415786 14.178463703264779 #
point $-1 -50.53095738236329 -52.397065819415786 14.178463703264779 #
straight-curve $-1 -50.53095738236329 -52.397065819415786 0 0 0 -1 I I #
point $-1 -50.53095738236329 -52.397065819415786 -14.178463703264779 #
straight-curve $-1 0 36.348578415891609 14.178463703264779 -1 0 0 I I #
straight-curve $-1 58.170720542008731 36.348578415891609 0 0 0 -1 I I #
point $-1 52.459737691099967 36.348578415891609 14.178463703264782 #
straight-curve $-1 52.459737691099981 15.619187358367014 14.178463703264782 0 -1 0 I I #
point $-1 58.170720542008731 36.348578415891609 14.178463703264779 #
point $-1 53.861557555060855 29.048287417095068 10.097609252143146 #
point $-1 53.861557555060855 33.42846201637299 10.097609252143146 #
straight-curve $-1 -58.170720542008731 15.619187358367014 9.8749293604755231 0 -1 0 I I #
straight-curve $-1 -58.170720542008731 36.348578415891609 0 0 0 -1 I I #
straight-curve $-1 0 36.348578415891609 14.178463703264779 -1 0 0 I I #
point $-1 -58.170720542008731 36.348578415891609 9.8749293604755177 #
point $-1 -58.170720542008731 36.348578415891609 14.178463703264779 #
point $-1 -53.861557555060863 29.048287417095068 10.097609252143139 #
point $-1 -53.861557555060863 33.42846201637299 10.097609252143139 #
straight-curve $-1 -54.35083896218601 -52.397065819415786 -14.178463703264779 -1 0 0 I I #
point $-1 -58.170720542008731 -52.397065819415786 -14.178463703264779 #
End-of-ACIS-data 