500 0 8 0           
7 Unknown 11 ACIS 5.0 NT 24 Fri Mar 26 02:16:22 1999 
-1 9.9999999999999995e-007 1e-010 
body $-1 $8 $-1 $9 #
body $-1 $10 $-1 $11 #
body $-1 $12 $-1 $13 #
body $-1 $14 $-1 $15 #
body $-1 $16 $-1 $17 #
body $-1 $18 $-1 $19 #
body $-1 $20 $-1 $21 #
body $-1 $22 $-1 $23 #
lump $-1 $-1 $24 $0 #
transform $-1 1 0 0 0 1 0 0 0 1 48.927274391918701 23.030923802025026 4.6070282037645569 1 rotate no_reflect no_shear #
lump $-1 $-1 $25 $1 #
transform $-1 1 0 0 0 1 0 0 0 1 48.927274391918701 23.030923802025026 4.6070282037645569 1 rotate no_reflect no_shear #
lump $-1 $-1 $26 $2 #
transform $-1 1 0 0 0 1 0 0 0 1 48.927274391918701 23.030923802025026 4.6070282037645569 1 rotate no_reflect no_shear #
lump $-1 $-1 $27 $3 #
transform $-1 1 0 0 0 1 0 0 0 1 48.927274391918701 23.030923802025026 4.6070282037645569 1 rotate no_reflect no_shear #
lump $-1 $-1 $28 $4 #
transform $-1 1 0 0 0 1 0 0 0 1 48.927274391918701 23.030923802025026 4.6070282037645569 1 rotate no_reflect no_shear #
lump $-1 $-1 $29 $5 #
transform $-1 1 0 0 0 1 0 0 0 1 48.927274391918701 23.030923802025026 4.6070282037645569 1 rotate no_reflect no_shear #
lump $-1 $-1 $30 $6 #
transform $-1 1 0 0 0 1 0 0 0 1 48.927274391918701 23.030923802025026 4.6070282037645569 1 rotate no_reflect no_shear #
lump $-1 $-1 $31 $7 #
transform $-1 1 0 0 0 1 0 0 0 1 48.927274391918701 23.030923802025026 4.6070282037645569 1 rotate no_reflect no_shear #
shell $-1 $-1 $-1 $32 $-1 $8 #
shell $-1 $-1 $-1 $33 $-1 $10 #
shell $-1 $-1 $-1 $34 $-1 $12 #
shell $-1 $-1 $-1 $35 $-1 $14 #
shell $-1 $-1 $-1 $36 $-1 $16 #
shell $-1 $-1 $-1 $37 $-1 $18 #
shell $-1 $-1 $-1 $38 $-1 $20 #
shell $-1 $-1 $-1 $39 $-1 $22 #
face $-1 $40 $41 $24 $-1 $42 forward single #
face $-1 $43 $44 $25 $-1 $45 reversed single #
face $-1 $46 $47 $26 $-1 $48 reversed single #
face $-1 $49 $50 $27 $-1 $51 forward single #
face $-1 $52 $53 $28 $-1 $54 forward single #
face $-1 $55 $56 $29 $-1 $57 reversed single #
face $-1 $58 $59 $30 $-1 $60 forward single #
face $-1 $61 $62 $31 $-1 $63 forward single #
face $-1 $64 $65 $24 $-1 $66 reversed single #
loop $-1 $-1 $67 $32 #
plane-surface $-1 0 0 4.6070282037645569 0 0 1 1 0 0 forward_v I I I I #
face $-1 $68 $69 $25 $-1 $70 reversed single #
loop $-1 $-1 $71 $33 #
plane-surface $-1 0 -21.396836895022044 1.6070282037645569 0 0 1 1 0 0 forward_v I I I I #
face $-1 $72 $73 $26 $-1 $74 reversed single #
loop $-1 $-1 $75 $34 #
plane-surface $-1 41.684647873034493 -2.4120478459832988 138.25613388119132 0 -1 0 -0.66913061440640931 0 -0.74314481823134659 forward_v I I I I #
face $-1 $76 $77 $27 $-1 $78 forward single #
loop $-1 $79 $80 $35 #
cone-surface $-1 45.758948416142132 -11.019257605239137 1.6191888876242602 -0.66913061440640931 0 -0.74314481823134659 0.74314481823134659 0 -0.66913061440640931 1 I I 0 1 1 forward I I I I #
face $-1 $81 $82 $28 $-1 $83 forward single #
loop $-1 $84 $85 $36 #
cone-surface $-1 45.758948416142132 -5.8549317496856332 1.6191888876242602 -0.66913061440640931 0 -0.74314481823134659 0.74314481823134659 0 -0.66913061440640931 1 I I 0 1 1 forward I I I I #
face $-1 $86 $87 $29 $-1 $88 reversed single #
loop $-1 $-1 $89 $37 #
plane-surface $-1 -114.40474874210977 16.13272770236058 73.377144749986982 0 1 0 -0.66913061440640931 0 0.74314481823134659 forward_v I I I I #
face $-1 $90 $91 $30 $-1 $92 forward single #
loop $-1 $93 $94 $38 #
cone-surface $-1 -46.305439543926497 18.103640873693276 2.156267549322211 0.66913061440640931 0 -0.74314481823134659 0.3715724091156733 0 0.33456530720320465 1 I I 0 1 0.5 forward I I I I #
face $-1 $95 $96 $31 $-1 $97 forward single #
loop $-1 $98 $99 $39 #
cone-surface $-1 -46.305439543926497 21.060010630692322 2.156267549322211 0.66913061440640931 0 -0.74314481823134659 0.3715724091156733 0 0.33456530720320465 1 I I 0 1 0.5 forward I I I I #
face $-1 $100 $101 $24 $-1 $102 reversed single #
loop $-1 $-1 $103 $40 #
plane-surface $-1 0 0 -4.6070282037645569 0 0 1 1 0 0 forward_v I I I I #
coedge $-1 $104 $105 $106 $107 forward $41 $-1 #
face $-1 $108 $109 $25 $-1 $110 reversed single #
loop $-1 $-1 $111 $43 #
plane-surface $-1 0 -19.762749988019063 3.1070282037645569 0 -1 0 0 0 -1 forward_v I I I I #
coedge $-1 $112 $113 $114 $115 reversed $44 $-1 #
face $-1 $116 $117 $26 $-1 $118 reversed single #
loop $-1 $-1 $119 $46 #
plane-surface $-1 -23.792826477156581 -8.437094677462385 65.536033012116036 0.66913061440640931 0 0.74314481823134659 0.74314481823134659 0 -0.66913061440640931 forward_v I I I I #
coedge $-1 $120 $121 $122 $123 reversed $47 $-1 #
face $-1 $-1 $124 $27 $-1 $125 forward single #
loop $-1 $126 $127 $49 #
cone-surface $-1 44.781850676400381 -11.019257605239137 0.53401193328808461 -0.66913061440640931 0 -0.74314481823134659 0.3715724091156733 0 -0.33456530720320465 1 I I -0.70710678118654746 0.70710678118654746 0.5 forward I I I I #
loop $-1 $-1 $128 $35 #
coedge $-1 $80 $80 $129 $130 reversed $50 $-1 #
face $-1 $-1 $131 $28 $-1 $132 forward single #
loop $-1 $133 $134 $52 #
cone-surface $-1 44.781850676400381 -5.8549317496856332 0.53401193328808461 -0.66913061440640931 0 -0.74314481823134659 0.3715724091156733 0 -0.33456530720320465 1 I I -0.70710678118654746 0.70710678118654746 0.5 forward I I I I #
loop $-1 $-1 $135 $36 #
coedge $-1 $85 $85 $136 $137 reversed $53 $-1 #
face $-1 $138 $139 $29 $-1 $140 forward single #
loop $-1 $-1 $141 $55 #
plane-surface $-1 -48.927274391918701 19.581825752192803 0.65704388091170074 -0.66913061440640931 0 0.74314481823134659 0.74314481823134659 0 0.66913061440640931 forward_v I I I I #
coedge $-1 $142 $143 $144 $145 reversed $56 $-1 #
face $-1 $-1 $146 $30 $-1 $147 forward single #
loop $-1 $148 $149 $58 #
cone-surface $-1 -45.709773005734789 18.103640873693276 1.4947128517484547 0.66913061440640931 0 -0.74314481823134659 0.18578620455783665 0 0.16728265360160233 1 I I -0.70710678118654746 0.70710678118654746 0.25 forward I I I I #
loop $-1 $-1 $150 $38 #
coedge $-1 $94 $94 $151 $152 reversed $59 $-1 #
face $-1 $-1 $153 $31 $-1 $154 forward single #
loop $-1 $155 $156 $61 #
cone-surface $-1 -45.709773005734789 21.060010630692322 1.4947128517484547 0.66913061440640931 0 -0.74314481823134659 0.18578620455783665 0 0.16728265360160233 1 I I -0.70710678118654746 0.70710678118654746 0.25 forward I I I I #
loop $-1 $-1 $157 $39 #
coedge $-1 $99 $99 $158 $159 reversed $62 $-1 #
face $-1 $160 $161 $24 $-1 $162 reversed single #
loop $-1 $-1 $163 $64 #
plane-surface $-1 0 -23.030923802025026 0 0 1 0 0 0 1 forward_v I I I I #
coedge $-1 $164 $165 $166 $167 forward $65 $-1 #
coedge $-1 $168 $67 $169 $170 forward $41 $-1 #
coedge $-1 $67 $168 $171 $172 forward $41 $-1 #
coedge $-1 $173 $174 $67 $107 reversed $175 $-1 #
edge $-1 $176 -23.030923802025026 $177 23.030923802025026 $106 $178 forward 7 unknown #
face $-1 $179 $180 $25 $-1 $181 reversed single #
loop $-1 $-1 $182 $68 #
plane-surface $-1 -48.927274391918701 0 0 1 0 0 0 0 -1 forward_v I I I I #
coedge $-1 $183 $184 $185 $186 reversed $69 $-1 #
coedge $-1 $187 $71 $188 $189 reversed $44 $-1 #
coedge $-1 $71 $187 $183 $190 forward $44 $-1 #
coedge $-1 $185 $191 $71 $115 forward $192 $-1 #
edge $-1 $193 -12.332505354514003 $194 -9.0643315405080411 $114 $195 forward 7 unknown #
face $-1 $196 $197 $26 $-1 $198 reversed single #
loop $-1 $-1 $199 $72 #
plane-surface $-1 41.684647873034493 -14.462141508941471 138.25613388119132 0 1 0 0.66913061440640931 0 0.74314481823134659 forward_v I I I I #
coedge $-1 $200 $201 $202 $203 reversed $73 $-1 #
coedge $-1 $121 $75 $204 $205 reversed $47 $-1 #
coedge $-1 $75 $120 $200 $206 reversed $47 $-1 #
coedge $-1 $202 $207 $75 $123 forward $208 $-1 #
edge $-1 $209 -28.084950455401454 $210 -23.033363368925407 $122 $211 forward 7 unknown #
loop $-1 $-1 $129 $76 #
plane-surface $-1 -23.792826477156581 -8.437094677462385 65.536033012116036 0.66913061440640931 0 0.74314481823134659 0.74314481823134659 0 -0.66913061440640931 forward_v I I I I #
loop $-1 $-1 $212 $49 #
coedge $-1 $127 $127 $128 $213 reversed $77 $-1 #
coedge $-1 $128 $128 $127 $213 forward $79 $-1 #
coedge $-1 $129 $129 $80 $130 forward $124 $-1 #
edge $-1 $214 0 $214 6.2831853071796004 $129 $215 forward 7 unknown #
loop $-1 $-1 $136 $81 #
plane-surface $-1 -23.792826477156581 -8.437094677462385 65.536033012116036 0.66913061440640931 0 0.74314481823134659 0.74314481823134659 0 -0.66913061440640931 forward_v I I I I #
loop $-1 $-1 $216 $52 #
coedge $-1 $134 $134 $135 $217 reversed $82 $-1 #
coedge $-1 $135 $135 $134 $217 forward $84 $-1 #
coedge $-1 $136 $136 $85 $137 forward $131 $-1 #
edge $-1 $218 0 $218 6.2831853071796004 $136 $219 forward 7 unknown #
face $-1 $220 $221 $29 $-1 $222 reversed single #
loop $-1 $-1 $144 $86 #
plane-surface $-1 0 0 4.6070282037645569 0 0 1 1 0 0 forward_v I I I I #
coedge $-1 $223 $224 $225 $226 reversed $87 $-1 #
coedge $-1 $143 $89 $227 $228 reversed $56 $-1 #
coedge $-1 $89 $142 $223 $229 reversed $56 $-1 #
coedge $-1 $225 $230 $89 $145 forward $139 $-1 #
edge $-1 $231 8.2750999791361863 $232 12.662001905940386 $144 $233 forward 7 unknown #
loop $-1 $-1 $151 $90 #
plane-surface $-1 -48.927274391918701 19.581825752192803 0.65704388091170074 -0.66913061440640931 0 0.74314481823134659 0.74314481823134659 0 0.66913061440640931 forward_v I I I I #
loop $-1 $-1 $234 $58 #
coedge $-1 $149 $149 $150 $235 reversed $91 $-1 #
coedge $-1 $150 $150 $149 $235 forward $93 $-1 #
coedge $-1 $151 $151 $94 $152 forward $146 $-1 #
edge $-1 $236 0 $236 6.2831853071796004 $151 $237 forward 7 unknown #
loop $-1 $-1 $158 $95 #
plane-surface $-1 -48.927274391918701 19.581825752192803 0.65704388091170074 -0.66913061440640931 0 0.74314481823134659 0.74314481823134659 0 0.66913061440640931 forward_v I I I I #
loop $-1 $-1 $238 $61 #
coedge $-1 $156 $156 $157 $239 reversed $96 $-1 #
coedge $-1 $157 $157 $156 $239 forward $98 $-1 #
coedge $-1 $158 $158 $99 $159 forward $153 $-1 #
edge $-1 $240 0 $240 6.2831853071796004 $158 $241 forward 7 unknown #
face $-1 $242 $243 $24 $-1 $244 reversed single #
loop $-1 $-1 $245 $100 #
plane-surface $-1 -48.927274391918701 0 0 1 0 0 0 0 -1 forward_v I I I I #
coedge $-1 $246 $171 $247 $248 forward $101 $-1 #
coedge $-1 $249 $103 $246 $250 forward $65 $-1 #
coedge $-1 $103 $249 $251 $252 forward $65 $-1 #
coedge $-1 $174 $173 $103 $167 reversed $175 $-1 #
edge $-1 $253 -23.030923802025026 $254 23.030923802025026 $166 $255 forward 7 unknown #
coedge $-1 $105 $104 $256 $257 forward $41 $-1 #
coedge $-1 $258 $259 $104 $170 reversed $243 $-1 #
edge $-1 $177 -48.927274391918701 $260 48.927274391918701 $169 $261 forward 7 unknown #
coedge $-1 $163 $262 $105 $172 reversed $101 $-1 #
edge $-1 $263 -48.927274391918701 $176 48.927274391918701 $171 $264 forward 7 unknown #
coedge $-1 $166 $106 $262 $265 forward $175 $-1 #
coedge $-1 $106 $166 $258 $266 reversed $175 $-1 #
loop $-1 $-1 $173 $242 #
vertex $-1 $107 $267 #
vertex $-1 $107 $268 #
straight-curve $-1 48.927274391918701 0 4.6070282037645569 0 1 0 I I #
face $-1 $269 $270 $25 $-1 $271 forward single #
loop $-1 $-1 $188 $108 #
plane-surface $-1 0 -23.030923802025026 0 0 1 0 0 0 1 forward_v I I I I #
coedge $-1 $272 $273 $274 $275 forward $109 $-1 #
coedge $-1 $274 $111 $113 $190 reversed $69 $-1 #
coedge $-1 $111 $274 $276 $277 reversed $69 $-1 #
coedge $-1 $278 $114 $111 $186 forward $192 $-1 #
edge $-1 $194 0.053514101882278453 $279 3.0535141018822785 $185 $280 forward 7 unknown #
coedge $-1 $113 $112 $272 $281 reversed $44 $-1 #
coedge $-1 $282 $283 $112 $189 forward $180 $-1 #
edge $-1 $284 -48.927274391918701 $193 48.927274391918701 $188 $285 forward 7 unknown #
edge $-1 $286 -48.927274391918701 $194 48.927274391918701 $183 $287 forward 7 unknown #
coedge $-1 $114 $278 $282 $288 forward $192 $-1 #
loop $-1 $-1 $185 $269 #
vertex $-1 $189 $289 #
vertex $-1 $115 $290 #
straight-curve $-1 48.927274391918701 -10.698418447511022 1.6070282037645569 0 1 0 I I #
face $-1 $-1 $208 $26 $-1 $291 forward single #
loop $-1 $-1 $292 $116 #
plane-surface $-1 48.927274391918701 0 0 -1 0 0 0 0 1 forward_v I I I I #
coedge $-1 $293 $294 $295 $296 reversed $117 $-1 #
coedge $-1 $297 $119 $121 $206 forward $73 $-1 #
coedge $-1 $119 $297 $293 $298 forward $73 $-1 #
coedge $-1 $295 $122 $119 $203 forward $208 $-1 #
edge $-1 $210 -1.8064994927478937 $299 10.24359417021028 $202 $300 forward 7 unknown #
coedge $-1 $301 $302 $120 $205 forward $197 $-1 #
edge $-1 $303 -69.069508278670696 $209 -64.521038736831102 $204 $304 forward 7 unknown #
edge $-1 $210 91.056967797538377 $303 97.854548783837402 $121 $305 forward 7 unknown #
coedge $-1 $122 $295 $301 $306 forward $208 $-1 #
loop $-1 $-1 $295 $196 #
vertex $-1 $205 $307 #
vertex $-1 $123 $308 #
straight-curve $-1 20.842323936517246 -2.4120478459832988 4.6070282037645569 -1 0 0 I I #
coedge $-1 $212 $212 $-1 $309 reversed $126 $-1 #
edge $-1 $310 0 $310 6.2831853071796004 $127 $311 forward 7 unknown #
vertex $-1 $130 $312 #
ellipse-curve $-1 46.401480848680677 -11.019257605239137 2.3327934328447633 0.66913061440640931 0 0.74314481823134659 0.74314481823134659 0 -0.66913061440640931 1 I I #
coedge $-1 $216 $216 $-1 $313 reversed $133 $-1 #
edge $-1 $314 0 $314 6.2831853071796004 $134 $315 forward 7 unknown #
vertex $-1 $137 $316 #
ellipse-curve $-1 46.401480848680677 -5.8549317496856332 2.3327934328447633 0.66913061440640931 0 0.74314481823134659 0.74314481823134659 0 -0.66913061440640931 1 I I #
face $-1 $-1 $317 $29 $-1 $318 reversed single #
loop $-1 $-1 $319 $138 #
plane-surface $-1 0 23.030923802025026 0 0 -1 0 0 0 -1 forward_v I I I I #
coedge $-1 $320 $141 $143 $229 forward $87 $-1 #
coedge $-1 $141 $320 $319 $321 reversed $87 $-1 #
coedge $-1 $322 $144 $141 $226 forward $139 $-1 #
edge $-1 $232 6.3418148262641783 $323 13.240010925928624 $225 $324 forward 7 unknown #
coedge $-1 $325 $326 $142 $228 forward $317 $-1 #
edge $-1 $327 -36.03152849408179 $231 -32.081544171228934 $227 $328 forward 7 unknown #
edge $-1 $232 -5.9031588718398673 $327 0 $143 $329 forward 7 unknown #
coedge $-1 $144 $322 $325 $330 forward $139 $-1 #
vertex $-1 $228 $331 #
vertex $-1 $145 $332 #
straight-curve $-1 -57.202374371054887 16.13272770236058 4.6070282037645569 1 0 0 I I #
coedge $-1 $234 $234 $-1 $333 reversed $148 $-1 #
edge $-1 $334 0 $334 6.2831853071796004 $149 $335 forward 7 unknown #
vertex $-1 $152 $336 #
ellipse-curve $-1 -46.733823428516601 18.103640873693276 2.6320360423381279 -0.66913061440640931 0 0.74314481823134659 0.3715724091156733 0 0.33456530720320465 1 I I #
coedge $-1 $238 $238 $-1 $337 reversed $155 $-1 #
edge $-1 $338 0 $338 6.2831853071796004 $156 $339 forward 7 unknown #
vertex $-1 $159 $340 #
ellipse-curve $-1 -46.733823428516601 21.060010630692322 2.6320360423381279 -0.66913061440640931 0 0.74314481823134659 0.3715724091156733 0 0.33456530720320465 1 I I #
face $-1 $-1 $175 $24 $-1 $341 reversed single #
loop $-1 $-1 $258 $160 #
plane-surface $-1 0 23.030923802025026 0 0 -1 0 0 0 -1 forward_v I I I I #
coedge $-1 $342 $256 $259 $343 forward $161 $-1 #
coedge $-1 $262 $163 $164 $250 reversed $101 $-1 #
coedge $-1 $256 $342 $163 $248 reversed $161 $-1 #
edge $-1 $263 -4.6070282037645569 $344 4.6070282037645569 $247 $345 forward 7 unknown #
coedge $-1 $165 $164 $342 $346 forward $65 $-1 #
edge $-1 $254 -48.927274391918701 $344 48.927274391918701 $246 $347 forward 7 unknown #
coedge $-1 $259 $258 $165 $252 reversed $243 $-1 #
edge $-1 $348 -48.927274391918701 $253 48.927274391918701 $251 $349 forward 7 unknown #
vertex $-1 $167 $350 #
vertex $-1 $265 $351 #
straight-curve $-1 48.927274391918701 0 -4.6070282037645569 0 -1 0 I I #
coedge $-1 $245 $247 $168 $257 reversed $161 $-1 #
edge $-1 $260 -23.030923802025026 $263 23.030923802025026 $256 $352 forward 7 unknown #
coedge $-1 $251 $169 $174 $266 forward $243 $-1 #
coedge $-1 $169 $251 $245 $343 reversed $243 $-1 #
vertex $-1 $170 $353 #
straight-curve $-1 0 23.030923802025026 4.6070282037645569 -1 0 0 I I #
coedge $-1 $171 $246 $173 $265 reversed $101 $-1 #
vertex $-1 $257 $354 #
straight-curve $-1 0 -23.030923802025026 4.6070282037645569 1 0 0 I I #
edge $-1 $176 -4.6070282037645569 $254 4.6070282037645569 $173 $355 forward 7 unknown #
edge $-1 $177 -4.6070282037645569 $253 4.6070282037645569 $174 $356 forward 7 unknown #
point $-1 48.927274391918701 -23.030923802025026 4.6070282037645569 #
point $-1 48.927274391918701 23.030923802025026 4.6070282037645569 #
face $-1 $-1 $192 $25 $-1 $357 reversed single #
loop $-1 $-1 $276 $179 #
plane-surface $-1 0 0 4.6070282037645569 0 0 1 1 0 0 forward_v I I I I #
coedge $-1 $358 $182 $187 $281 forward $109 $-1 #
coedge $-1 $182 $358 $359 $360 reversed $109 $-1 #
coedge $-1 $184 $183 $182 $275 reversed $69 $-1 #
edge $-1 $361 -3.0535141018822785 $286 -0.053514101882278453 $182 $362 forward 7 unknown #
coedge $-1 $359 $363 $184 $277 forward $270 $-1 #
edge $-1 $279 -48.927274391918701 $361 48.927274391918701 $276 $364 forward 7 unknown #
coedge $-1 $191 $185 $363 $365 reversed $192 $-1 #
vertex $-1 $186 $366 #
straight-curve $-1 48.927274391918701 -19.762749988019063 1.5535141018822785 0 0 1 I I #
edge $-1 $286 9.0643315405080411 $284 12.332505354514003 $272 $367 forward 7 unknown #
coedge $-1 $368 $188 $191 $288 reversed $180 $-1 #
coedge $-1 $188 $368 $358 $369 forward $180 $-1 #
vertex $-1 $189 $370 #
straight-curve $-1 0 -23.030923802025026 1.6070282037645569 1 0 0 I I #
vertex $-1 $281 $371 #
straight-curve $-1 0 -19.762749988019063 1.6070282037645569 1 0 0 I I #
edge $-1 $372 -4.6070282037645569 $193 -1.6070282037645569 $191 $373 forward 7 unknown #
point $-1 48.927274391918701 -23.030923802025026 1.6070282037645569 #
point $-1 48.927274391918701 -19.762749988019063 1.6070282037645569 #
plane-surface $-1 0 0 4.6070282037645569 0 0 1 1 0 0 forward_v I I I I #
coedge $-1 $302 $301 $294 $374 forward $197 $-1 #
coedge $-1 $294 $199 $201 $298 reversed $117 $-1 #
coedge $-1 $199 $293 $292 $374 reversed $117 $-1 #
coedge $-1 $207 $202 $199 $296 forward $208 $-1 #
edge $-1 $299 23.033363368925407 $375 28.084950455401454 $295 $376 forward 7 unknown #
coedge $-1 $201 $200 $302 $377 reversed $73 $-1 #
edge $-1 $378 -97.854548783837402 $299 -91.056967797538377 $293 $379 forward 7 unknown #
vertex $-1 $203 $380 #
straight-curve $-1 43.875687305442661 -4.2185473387311925 4.6070282037645498 0 -1 0 I I #
coedge $-1 $292 $204 $207 $306 reversed $197 $-1 #
coedge $-1 $204 $292 $297 $377 forward $197 $-1 #
vertex $-1 $205 $381 #
straight-curve $-1 48.927274391918701 -2.4120478459832988 69.128066940595659 0 0 1 I I #
straight-curve $-1 -23.792826477156581 -2.4120478459832988 65.536033012116036 0.74314481823134659 0 -0.66913061440640931 I I #
edge $-1 $375 -14.462141508941471 $209 -2.4120478459832988 $301 $382 forward 7 unknown #
point $-1 48.927274391918701 -2.4120478459832988 4.6070282037645569 #
point $-1 43.875687305442653 -2.4120478459832988 4.6070282037645569 #
edge $-1 $383 1 $383 0 $212 $-1 forward 7 unknown #
vertex $-1 $213 $384 #
ellipse-curve $-1 45.116415983603588 -11.019257605239137 0.90558434240375796 0.66913061440640931 0 0.74314481823134659 0.74314481823134659 0 -0.66913061440640931 1 I I #
point $-1 47.14462566691202 -11.019257605239137 1.6636628184383533 #
edge $-1 $385 1 $385 0 $216 $-1 forward 7 unknown #
vertex $-1 $217 $386 #
ellipse-curve $-1 45.116415983603588 -5.8549317496856332 0.90558434240375796 0.66913061440640931 0 0.74314481823134659 0.74314481823134659 0 -0.66913061440640931 1 I I #
point $-1 47.14462566691202 -5.8549317496856332 1.6636628184383533 #
loop $-1 $-1 $227 $220 #
plane-surface $-1 -48.927274391918701 0 0 1 0 0 0 0 -1 forward_v I I I I #
coedge $-1 $387 $388 $224 $321 forward $221 $-1 #
coedge $-1 $224 $223 $326 $389 reversed $87 $-1 #
edge $-1 $323 12.057042257565747 $390 17.960201129405615 $319 $391 forward 7 unknown #
coedge $-1 $230 $225 $388 $392 forward $139 $-1 #
vertex $-1 $392 $393 #
straight-curve $-1 -44.540372465114501 9.7909128760964013 4.6070282037645569 0 1 0 I I #
coedge $-1 $394 $227 $230 $330 reversed $317 $-1 #
coedge $-1 $227 $394 $320 $389 forward $317 $-1 #
vertex $-1 $228 $395 #
straight-curve $-1 -48.927274391918701 16.13272770236058 36.688572374993491 0 0 1 I I #
straight-curve $-1 -48.927274391918701 16.13272770236058 0.65704388091170074 -0.74314481823134659 0 -0.66913061440640931 I I #
edge $-1 $396 -23.030923802025026 $231 -16.13272770236058 $325 $397 forward 7 unknown #
point $-1 -48.927274391918701 16.13272770236058 4.6070282037645569 #
point $-1 -44.540372465114501 16.13272770236058 4.6070282037645569 #
edge $-1 $398 1 $398 0 $234 $-1 forward 7 unknown #
vertex $-1 $235 $399 #
ellipse-curve $-1 -45.877055659336392 18.103640873693276 1.6804990563062914 -0.66913061440640931 0 0.74314481823134659 0.3715724091156733 0 0.33456530720320465 1 I I #
point $-1 -46.362251019400937 18.103640873693276 2.9666013495413353 #
edge $-1 $400 1 $400 0 $238 $-1 forward 7 unknown #
vertex $-1 $239 $401 #
ellipse-curve $-1 -45.877055659336392 21.060010630692322 1.6804990563062914 -0.66913061440640931 0 0.74314481823134659 0.3715724091156733 0 0.33456530720320465 1 I I #
point $-1 -46.362251019400937 21.060010630692322 2.9666013495413353 #
plane-surface $-1 48.927274391918701 0 0 -1 0 0 0 0 1 forward_v I I I I #
coedge $-1 $247 $245 $249 $346 reversed $161 $-1 #
edge $-1 $260 -4.6070282037645569 $348 4.6070282037645569 $259 $402 forward 7 unknown #
vertex $-1 $346 $403 #
straight-curve $-1 -48.927274391918701 -23.030923802025026 0 0 0 -1 I I #
edge $-1 $344 -23.030923802025026 $348 23.030923802025026 $342 $404 forward 7 unknown #
straight-curve $-1 0 -23.030923802025026 -4.6070282037645569 -1 0 0 I I #
vertex $-1 $252 $405 #
straight-curve $-1 0 23.030923802025026 -4.6070282037645569 1 0 0 I I #
point $-1 48.927274391918701 23.030923802025026 -4.6070282037645569 #
point $-1 48.927274391918701 -23.030923802025026 -4.6070282037645569 #
straight-curve $-1 -48.927274391918701 0 4.6070282037645569 0 -1 0 I I #
point $-1 -48.927274391918701 23.030923802025026 4.6070282037645569 #
point $-1 -48.927274391918701 -23.030923802025026 4.6070282037645569 #
straight-curve $-1 48.927274391918701 -23.030923802025026 0 0 0 -1 I I #
straight-curve $-1 48.927274391918701 23.030923802025026 0 0 0 -1 I I #
plane-surface $-1 48.927274391918701 0 0 -1 0 0 0 0 1 forward_v I I I I #
coedge $-1 $273 $272 $283 $369 reversed $109 $-1 #
coedge $-1 $406 $276 $273 $360 forward $270 $-1 #
edge $-1 $361 19.762749988019063 $407 23.030923802025026 $273 $408 forward 7 unknown #
vertex $-1 $360 $409 #
straight-curve $-1 -48.927274391918701 -19.762749988019063 1.5535141018822785 0 0 -1 I I #
coedge $-1 $276 $406 $278 $365 forward $270 $-1 #
straight-curve $-1 0 -19.762749988019063 4.6070282037645569 -1 0 0 I I #
edge $-1 $372 -23.030923802025026 $279 -19.762749988019063 $278 $410 forward 7 unknown #
point $-1 48.927274391918701 -19.762749988019063 4.6070282037645569 #
straight-curve $-1 -48.927274391918701 -10.698418447511022 1.6070282037645569 0 -1 0 I I #
coedge $-1 $283 $282 $406 $411 reversed $180 $-1 #
edge $-1 $407 -4.6070282037645569 $284 -1.6070282037645569 $358 $412 forward 7 unknown #
point $-1 -48.927274391918701 -23.030923802025026 1.6070282037645569 #
point $-1 -48.927274391918701 -19.762749988019063 1.6070282037645569 #
vertex $-1 $365 $413 #
straight-curve $-1 48.927274391918701 -23.030923802025026 0 0 0 -1 I I #
edge $-1 $375 64.521038736831102 $378 69.069508278670696 $292 $414 forward 7 unknown #
vertex $-1 $306 $415 #
straight-curve $-1 20.842323936517246 -14.462141508941471 4.6070282037645569 1 0 0 I I #
edge $-1 $378 -10.24359417021028 $303 1.8064994927478937 $302 $416 forward 7 unknown #
vertex $-1 $377 $417 #
straight-curve $-1 -23.792826477156581 -14.462141508941471 65.536033012116036 -0.74314481823134659 0 0.66913061440640931 I I #
point $-1 43.875687305442653 -14.462141508941471 4.6070282037645569 #
point $-1 48.927274391918701 -2.4120478459832988 0.058558661924962507 #
straight-curve $-1 48.927274391918701 0 4.6070282037645569 0 1 0 I I #
vertex $-1 $309 $418 #
point $-1 45.859560801834931 -11.019257605239137 0.2364537279973486 #
vertex $-1 $313 $419 #
point $-1 45.859560801834931 -5.8549317496856332 0.2364537279973486 #
coedge $-1 $388 $319 $394 $420 reversed $221 $-1 #
coedge $-1 $319 $387 $322 $392 reversed $221 $-1 #
edge $-1 $390 -13.240010925928624 $327 -6.3418148262641783 $326 $421 forward 7 unknown #
vertex $-1 $321 $422 #
straight-curve $-1 -35.580243988208139 23.030923802025026 12.674764297493565 -0.74314481823134659 0 -0.66913061440640931 I I #
edge $-1 $323 44.540372465114501 $396 48.927274391918701 $388 $423 forward 7 unknown #
point $-1 -44.540372465114501 23.030923802025026 4.6070282037645569 #
coedge $-1 $326 $325 $387 $420 forward $317 $-1 #
point $-1 -48.927274391918701 16.13272770236058 0.65704388091170074 #
vertex $-1 $392 $424 #
straight-curve $-1 -48.927274391918701 0 4.6070282037645569 0 -1 0 I I #
vertex $-1 $333 $425 #
point $-1 -45.50548325022072 18.103640873693276 2.015064363509496 #
vertex $-1 $337 $426 #
point $-1 -45.50548325022072 21.060010630692322 2.015064363509496 #
straight-curve $-1 -48.927274391918701 23.030923802025026 0 0 0 -1 I I #
point $-1 -48.927274391918701 -23.030923802025026 -4.6070282037645569 #
straight-curve $-1 -48.927274391918701 0 -4.6070282037645569 0 1 0 I I #
point $-1 -48.927274391918701 23.030923802025026 -4.6070282037645569 #
coedge $-1 $363 $359 $368 $411 forward $270 $-1 #
vertex $-1 $360 $427 #
straight-curve $-1 -48.927274391918701 0 4.6070282037645569 0 -1 0 I I #
point $-1 -48.927274391918701 -19.762749988019063 4.6070282037645569 #
straight-curve $-1 48.927274391918701 0 4.6070282037645569 0 1 0 I I #
edge $-1 $407 -48.927274391918701 $372 48.927274391918701 $368 $428 forward 7 unknown #
straight-curve $-1 -48.927274391918701 -23.030923802025026 0 0 0 -1 I I #
point $-1 48.927274391918701 -23.030923802025026 4.6070282037645569 #
straight-curve $-1 48.927274391918701 -14.462141508941471 69.128066940595659 0 0 -1 I I #
point $-1 48.927274391918701 -14.462141508941471 4.6070282037645569 #
straight-curve $-1 48.927274391918694 -4.2185473387311925 0.058558661924969613 0 1 0 I I #
point $-1 48.927274391918701 -14.462141508941471 0.058558661924962507 #
point $-1 44.447285369197175 -11.019257605239137 0.16243952417241131 #
point $-1 44.447285369197175 -5.8549317496856332 0.16243952417241131 #
edge $-1 $396 -4.6070282037645569 $390 -0.65704388091170074 $387 $429 forward 7 unknown #
straight-curve $-1 -48.927274391918701 9.7909128760964013 0.65704388091170329 0 -1 0 I I #
point $-1 -48.927274391918701 23.030923802025026 0.65704388091170074 #
straight-curve $-1 0 23.030923802025026 4.6070282037645569 -1 0 0 I I #
point $-1 -48.927274391918701 23.030923802025026 4.6070282037645569 #
point $-1 -45.542490352133186 18.103640873693276 1.308926647190618 #
point $-1 -45.542490352133186 21.060010630692322 1.308926647190618 #
point $-1 -48.927274391918701 -23.030923802025026 4.6070282037645569 #
straight-curve $-1 0 -23.030923802025026 4.6070282037645569 1 0 0 I I #
straight-curve $-1 -48.927274391918701 23.030923802025026 0 0 0 -1 I I #
End-of-ACIS-data 