500 0 6 0           
7 Unknown 11 ACIS 5.0 NT 24 Fri Mar 26 19:47:56 1999 
-1 9.9999999999999995e-007 1e-010 
body $-1 $6 $-1 $7 #
body $-1 $8 $-1 $9 #
body $-1 $10 $-1 $11 #
body $-1 $12 $-1 $13 #
body $-1 $14 $-1 $15 #
body $-1 $16 $-1 $17 #
lump $-1 $-1 $18 $0 #
transform $-1 1 0 0 0 1 0 0 0 1 43.303323465681935 28.989319830271487 6.2724228563084452 1 rotate no_reflect no_shear #
lump $-1 $-1 $19 $1 #
transform $-1 1 0 0 0 1 0 0 0 1 43.303323465681935 28.989319830271487 6.2724228563084452 1 rotate no_reflect no_shear #
lump $-1 $-1 $20 $2 #
transform $-1 1 0 0 0 1 0 0 0 1 43.303323465681935 28.989319830271487 6.2724228563084452 1 rotate no_reflect no_shear #
lump $-1 $-1 $21 $3 #
transform $-1 1 0 0 0 1 0 0 0 1 43.303323465681935 28.989319830271487 6.2724228563084452 1 rotate no_reflect no_shear #
lump $-1 $-1 $22 $4 #
transform $-1 1 0 0 0 1 0 0 0 1 43.303323465681935 28.989319830271487 6.2724228563084452 1 rotate no_reflect no_shear #
lump $-1 $-1 $23 $5 #
transform $-1 1 0 0 0 1 0 0 0 1 43.303323465681935 28.989319830271487 6.2724228563084452 1 rotate no_reflect no_shear #
shell $-1 $-1 $-1 $24 $-1 $6 #
shell $-1 $-1 $-1 $25 $-1 $8 #
shell $-1 $-1 $-1 $26 $-1 $10 #
shell $-1 $-1 $-1 $27 $-1 $12 #
shell $-1 $-1 $-1 $28 $-1 $14 #
shell $-1 $-1 $-1 $29 $-1 $16 #
face $-1 $30 $31 $18 $-1 $32 forward single #
face $-1 $33 $34 $19 $-1 $35 reversed single #
face $-1 $36 $37 $20 $-1 $38 reversed single #
face $-1 $39 $40 $21 $-1 $41 forward single #
face $-1 $42 $43 $22 $-1 $44 reversed single #
face $-1 $45 $46 $23 $-1 $47 forward single #
face $-1 $48 $49 $18 $-1 $50 reversed single #
loop $-1 $-1 $51 $24 #
plane-surface $-1 0 0 6.2724228563084452 0 0 1 1 0 0 forward_v I I I I #
face $-1 $52 $53 $19 $-1 $54 reversed single #
loop $-1 $-1 $55 $25 #
plane-surface $-1 -41.803323465681935 -22.576655193116803 0 0 -1 0 0 0 -1 forward_v I I I I #
face $-1 $56 $57 $20 $-1 $58 reversed single #
loop $-1 $-1 $59 $26 #
plane-surface $-1 -111.55029329630452 -16.368861351369166 56.086359892093355 0 -1 0 0.78801076186113728 0 -0.61566146476048833 forward_v I I I I #
face $-1 $60 $61 $21 $-1 $62 forward single #
loop $-1 $63 $64 $27 #
cone-surface $-1 -41.455941228259107 -19.472758272242984 4.146048187962867 0.78801076186113728 0 -0.61566146476048833 0.30783073238024417 0 0.39400538093056864 1 I I 0 1 0.5 forward I I I I #
face $-1 $65 $66 $22 $-1 $67 reversed single #
loop $-1 $-1 $68 $28 #
plane-surface $-1 58.22991818854657 -16.368861351369166 124.33332972271592 0 -1 0 -0.78801076186113728 0 -0.61566146476048833 forward_v I I I I #
face $-1 $69 $70 $23 $-1 $71 forward single #
loop $-1 $72 $73 $29 #
cone-surface $-1 41.455941228259114 -19.472758272242984 4.1460481879628777 -0.78801076186113728 0 -0.61566146476048833 0.30783073238024417 0 -0.39400538093056864 1 I I 0 1 0.5 forward I I I I #
face $-1 $74 $75 $18 $-1 $76 reversed single #
loop $-1 $-1 $77 $30 #
plane-surface $-1 0 0 -6.2724228563084452 0 0 1 1 0 0 forward_v I I I I #
coedge $-1 $78 $79 $80 $81 forward $31 $-1 #
face $-1 $82 $83 $19 $-1 $84 forward single #
loop $-1 $-1 $85 $33 #
plane-surface $-1 -40.303323465681935 -25.782987511694145 0 -1 0 0 0 0 1 forward_v I I I I #
coedge $-1 $86 $87 $88 $89 forward $34 $-1 #
face $-1 $90 $91 $20 $-1 $92 reversed single #
loop $-1 $-1 $93 $36 #
plane-surface $-1 -43.303323465681942 -19.472758272242984 2.7659847843354228 -0.78801076186113728 0 0.61566146476048833 0.61566146476048833 0 0.78801076186113728 forward_v I I I I #
coedge $-1 $94 $95 $96 $97 reversed $37 $-1 #
face $-1 $-1 $98 $21 $-1 $99 forward single #
loop $-1 $100 $101 $39 #
cone-surface $-1 -40.781321095450835 -19.472758272242984 3.6189771894136804 0.78801076186113728 0 -0.61566146476048833 0.15391536619012208 0 0.19700269046528432 1 I I -0.70710678118654746 0.70710678118654746 0.25 forward I I I I #
loop $-1 $-1 $102 $27 #
coedge $-1 $64 $64 $103 $104 reversed $40 $-1 #
face $-1 $105 $106 $22 $-1 $107 reversed single #
loop $-1 $-1 $108 $42 #
plane-surface $-1 -10.017051642076005 -19.472758272242984 71.012954614957977 0.78801076186113728 0 0.61566146476048833 0.61566146476048833 0 -0.78801076186113728 forward_v I I I I #
coedge $-1 $109 $110 $111 $112 reversed $43 $-1 #
face $-1 $-1 $113 $23 $-1 $114 forward single #
loop $-1 $115 $116 $45 #
cone-surface $-1 40.781321095450842 -19.472758272242984 3.6189771894136911 -0.78801076186113728 0 -0.61566146476048833 0.15391536619012208 0 -0.19700269046528432 1 I I -0.70710678118654746 0.70710678118654746 0.25 forward I I I I #
loop $-1 $-1 $117 $29 #
coedge $-1 $73 $73 $118 $119 reversed $46 $-1 #
face $-1 $120 $121 $18 $-1 $122 reversed single #
loop $-1 $-1 $123 $48 #
plane-surface $-1 0 -28.989319830271487 0 0 1 0 0 0 1 forward_v I I I I #
coedge $-1 $124 $125 $126 $127 forward $49 $-1 #
coedge $-1 $128 $51 $129 $130 forward $31 $-1 #
coedge $-1 $51 $128 $131 $132 forward $31 $-1 #
coedge $-1 $133 $134 $51 $81 reversed $135 $-1 #
edge $-1 $136 -28.989319830271487 $137 28.989319830271487 $80 $138 forward 7 unknown #
face $-1 $139 $140 $19 $-1 $141 reversed single #
loop $-1 $-1 $142 $52 #
plane-surface $-1 0 0 6.2724228563084452 0 0 1 1 0 0 forward_v I I I I #
coedge $-1 $143 $144 $145 $146 reversed $53 $-1 #
coedge $-1 $147 $55 $148 $149 reversed $34 $-1 #
coedge $-1 $55 $147 $150 $151 reversed $34 $-1 #
coedge $-1 $144 $143 $55 $89 reversed $53 $-1 #
edge $-1 $152 -6.2724228563084452 $153 6.2724228563084452 $88 $154 forward 7 unknown #
face $-1 $155 $156 $20 $-1 $157 forward single #
loop $-1 $-1 $96 $56 #
plane-surface $-1 -43.303323465681935 0 0 1 0 0 0 0 -1 forward_v I I I I #
coedge $-1 $158 $159 $160 $161 reversed $57 $-1 #
coedge $-1 $95 $59 $162 $163 reversed $37 $-1 #
coedge $-1 $59 $94 $158 $164 reversed $37 $-1 #
coedge $-1 $160 $165 $59 $97 forward $91 $-1 #
edge $-1 $166 21.770757089738233 $167 25.277195161711248 $96 $168 forward 7 unknown #
loop $-1 $-1 $103 $60 #
plane-surface $-1 -43.303323465681942 -19.472758272242984 2.7659847843354228 -0.78801076186113728 0 0.61566146476048833 0.61566146476048833 0 0.78801076186113728 forward_v I I I I #
loop $-1 $-1 $169 $39 #
coedge $-1 $101 $101 $102 $170 reversed $61 $-1 #
coedge $-1 $102 $102 $101 $170 forward $63 $-1 #
coedge $-1 $103 $103 $64 $104 forward $98 $-1 #
edge $-1 $171 0 $171 6.2831853071796004 $103 $172 forward 7 unknown #
face $-1 $173 $174 $22 $-1 $175 reversed single #
loop $-1 $-1 $176 $65 #
plane-surface $-1 58.22991818854657 -22.576655193116803 124.33332972271592 0 1 0 0.78801076186113728 0 0.61566146476048833 forward_v I I I I #
coedge $-1 $177 $178 $179 $180 reversed $66 $-1 #
coedge $-1 $110 $68 $181 $182 reversed $43 $-1 #
coedge $-1 $68 $109 $177 $183 reversed $43 $-1 #
coedge $-1 $179 $184 $68 $112 forward $185 $-1 #
edge $-1 $186 -14.18836437140865 $187 -11.448834781248951 $111 $188 forward 7 unknown #
loop $-1 $-1 $118 $69 #
plane-surface $-1 -10.017051642076005 -19.472758272242984 71.012954614957977 0.78801076186113728 0 0.61566146476048833 0.61566146476048833 0 -0.78801076186113728 forward_v I I I I #
loop $-1 $-1 $189 $45 #
coedge $-1 $116 $116 $117 $190 reversed $70 $-1 #
coedge $-1 $117 $117 $116 $190 forward $72 $-1 #
coedge $-1 $118 $118 $73 $119 forward $113 $-1 #
edge $-1 $191 0 $191 6.2831853071796004 $118 $192 forward 7 unknown #
face $-1 $193 $194 $18 $-1 $195 reversed single #
loop $-1 $-1 $196 $74 #
plane-surface $-1 -43.303323465681935 0 0 1 0 0 0 0 -1 forward_v I I I I #
coedge $-1 $197 $131 $198 $199 forward $75 $-1 #
coedge $-1 $200 $77 $197 $201 forward $49 $-1 #
coedge $-1 $77 $200 $202 $203 forward $49 $-1 #
coedge $-1 $134 $133 $77 $127 reversed $135 $-1 #
edge $-1 $204 -28.989319830271487 $205 28.989319830271487 $126 $206 forward 7 unknown #
coedge $-1 $79 $78 $207 $208 forward $31 $-1 #
coedge $-1 $209 $210 $78 $130 reversed $194 $-1 #
edge $-1 $137 -43.303323465681935 $211 43.303323465681935 $129 $212 forward 7 unknown #
coedge $-1 $123 $213 $79 $132 reversed $75 $-1 #
edge $-1 $214 -43.303323465681935 $136 43.303323465681935 $131 $215 forward 7 unknown #
coedge $-1 $126 $80 $213 $216 forward $135 $-1 #
coedge $-1 $80 $126 $209 $217 reversed $135 $-1 #
loop $-1 $-1 $133 $193 #
vertex $-1 $81 $218 #
vertex $-1 $81 $219 #
straight-curve $-1 43.303323465681935 0 6.2724228563084452 0 1 0 I I #
face $-1 $220 $221 $19 $-1 $222 reversed single #
loop $-1 $-1 $223 $82 #
plane-surface $-1 -43.303323465681935 0 0 1 0 0 0 0 -1 forward_v I I I I #
coedge $-1 $150 $224 $144 $225 forward $83 $-1 #
coedge $-1 $88 $85 $226 $227 reversed $53 $-1 #
coedge $-1 $85 $88 $142 $225 reversed $53 $-1 #
coedge $-1 $228 $229 $85 $146 forward $230 $-1 #
edge $-1 $231 -6.2724228563084452 $232 6.2724228563084452 $145 $233 forward 7 unknown #
coedge $-1 $87 $86 $223 $234 reversed $34 $-1 #
coedge $-1 $226 $235 $86 $149 forward $221 $-1 #
edge $-1 $236 -22.401661732840967 $153 -19.401661732840967 $148 $237 forward 7 unknown #
coedge $-1 $238 $142 $87 $151 forward $83 $-1 #
edge $-1 $152 19.401661732840967 $239 22.401661732840967 $150 $240 forward 7 unknown #
vertex $-1 $151 $241 #
vertex $-1 $149 $242 #
straight-curve $-1 -40.303323465681935 -22.576655193116803 0 0 0 -1 I I #
face $-1 $-1 $243 $20 $-1 $244 forward single #
loop $-1 $-1 $245 $90 #
plane-surface $-1 -41.803323465681935 -22.576655193116803 0 0 -1 0 0 0 -1 forward_v I I I I #
coedge $-1 $246 $93 $95 $164 forward $57 $-1 #
coedge $-1 $93 $246 $245 $247 reversed $57 $-1 #
coedge $-1 $248 $96 $93 $161 forward $91 $-1 #
edge $-1 $167 6.6324822152476735 $249 12.840276056995311 $160 $250 forward 7 unknown #
coedge $-1 $251 $252 $94 $163 forward $243 $-1 #
edge $-1 $253 -15.211352772629994 $166 -12.471823182470324 $162 $254 forward 7 unknown #
edge $-1 $167 1.1373479346495045e-014 $253 4.4497337367467651 $95 $255 forward 7 unknown #
coedge $-1 $96 $248 $251 $256 reversed $91 $-1 #
vertex $-1 $256 $257 #
vertex $-1 $97 $258 #
straight-curve $-1 -43.303323465681935 -16.368861351369166 28.043179946046678 0 0 -1 I I #
coedge $-1 $169 $169 $-1 $259 reversed $100 $-1 #
edge $-1 $260 0 $260 6.2831853071796004 $101 $261 forward 7 unknown #
vertex $-1 $104 $262 #
ellipse-curve $-1 -41.933558670602103 -19.472758272242984 4.5192038203219385 -0.78801076186113728 0 0.61566146476048833 0.30783073238024417 0 0.39400538093056864 1 I I #
face $-1 $-1 $185 $22 $-1 $263 forward single #
loop $-1 $-1 $264 $105 #
plane-surface $-1 43.303323465681935 0 0 -1 0 0 0 0 1 forward_v I I I I #
coedge $-1 $265 $266 $267 $268 reversed $106 $-1 #
coedge $-1 $269 $108 $110 $183 forward $66 $-1 #
coedge $-1 $108 $269 $265 $270 forward $66 $-1 #
coedge $-1 $267 $111 $108 $180 forward $185 $-1 #
edge $-1 $187 6.6324822152476735 $271 12.840276056995311 $179 $272 forward 7 unknown #
coedge $-1 $273 $274 $109 $182 forward $174 $-1 #
edge $-1 $275 -59.400680077022557 $186 -55.894242005049513 $181 $276 forward 7 unknown #
edge $-1 $187 82.156913194617076 $275 86.606646931363883 $110 $277 forward 7 unknown #
coedge $-1 $111 $267 $273 $278 forward $185 $-1 #
loop $-1 $-1 $267 $173 #
vertex $-1 $182 $279 #
vertex $-1 $112 $280 #
straight-curve $-1 29.114959094273285 -16.368861351369166 6.2724228563084452 -1 0 0 I I #
coedge $-1 $189 $189 $-1 $281 reversed $115 $-1 #
edge $-1 $282 0 $282 6.2831853071796004 $116 $283 forward 7 unknown #
vertex $-1 $119 $284 #
ellipse-curve $-1 41.933558670602089 -19.472758272242984 4.5192038203219322 0.78801076186113728 0 0.61566146476048833 0.30783073238024417 0 -0.39400538093056864 1 I I #
face $-1 $-1 $135 $18 $-1 $285 reversed single #
loop $-1 $-1 $209 $120 #
plane-surface $-1 0 28.989319830271487 0 0 -1 0 0 0 -1 forward_v I I I I #
coedge $-1 $286 $207 $210 $287 forward $121 $-1 #
coedge $-1 $213 $123 $124 $201 reversed $75 $-1 #
coedge $-1 $207 $286 $123 $199 reversed $121 $-1 #
edge $-1 $214 -6.2724228563084452 $288 6.2724228563084452 $198 $289 forward 7 unknown #
coedge $-1 $125 $124 $286 $290 forward $49 $-1 #
edge $-1 $205 -43.303323465681935 $288 43.303323465681935 $197 $291 forward 7 unknown #
coedge $-1 $210 $209 $125 $203 reversed $194 $-1 #
edge $-1 $292 -43.303323465681935 $204 43.303323465681935 $202 $293 forward 7 unknown #
vertex $-1 $127 $294 #
vertex $-1 $216 $295 #
straight-curve $-1 43.303323465681935 0 -6.2724228563084452 0 -1 0 I I #
coedge $-1 $196 $198 $128 $208 reversed $121 $-1 #
edge $-1 $211 -28.989319830271487 $214 28.989319830271487 $207 $296 forward 7 unknown #
coedge $-1 $202 $129 $134 $217 forward $194 $-1 #
coedge $-1 $129 $202 $196 $287 reversed $194 $-1 #
vertex $-1 $130 $297 #
straight-curve $-1 0 28.989319830271487 6.2724228563084452 -1 0 0 I I #
coedge $-1 $131 $197 $133 $216 reversed $75 $-1 #
vertex $-1 $208 $298 #
straight-curve $-1 0 -28.989319830271487 6.2724228563084452 1 0 0 I I #
edge $-1 $136 -6.2724228563084452 $205 6.2724228563084452 $133 $299 forward 7 unknown #
edge $-1 $137 -6.2724228563084452 $204 6.2724228563084452 $134 $300 forward 7 unknown #
point $-1 43.303323465681935 -28.989319830271487 6.2724228563084452 #
point $-1 43.303323465681935 28.989319830271487 6.2724228563084452 #
face $-1 $-1 $230 $19 $-1 $301 reversed single #
loop $-1 $-1 $226 $139 #
plane-surface $-1 0 0 -6.2724228563084452 0 0 1 1 0 0 forward_v I I I I #
coedge $-1 $302 $303 $147 $234 forward $140 $-1 #
coedge $-1 $142 $238 $228 $304 forward $83 $-1 #
edge $-1 $232 -16.097826074424415 $152 -9.6851614372697306 $142 $305 forward 7 unknown #
coedge $-1 $306 $148 $143 $227 forward $221 $-1 #
edge $-1 $153 9.6851614372697306 $231 16.097826074424415 $226 $307 forward 7 unknown #
coedge $-1 $308 $145 $224 $304 reversed $230 $-1 #
coedge $-1 $145 $308 $306 $309 reversed $230 $-1 #
loop $-1 $-1 $145 $220 #
vertex $-1 $309 $310 #
vertex $-1 $146 $311 #
straight-curve $-1 -40.303323465681935 -28.989319830271487 0 0 0 1 I I #
edge $-1 $239 -6.2724228563084452 $236 6.2724228563084452 $223 $312 forward 7 unknown #
coedge $-1 $148 $306 $302 $313 forward $221 $-1 #
vertex $-1 $149 $314 #
straight-curve $-1 -20.901661732840967 -22.576655193116803 -6.2724228563084452 1 0 0 I I #
coedge $-1 $224 $150 $303 $315 forward $83 $-1 #
vertex $-1 $315 $316 #
straight-curve $-1 -20.901661732840967 -22.576655193116803 6.2724228563084452 -1 0 0 I I #
point $-1 -40.303323465681935 -22.576655193116803 6.2724228563084452 #
point $-1 -40.303323465681935 -22.576655193116803 -6.2724228563084452 #
loop $-1 $-1 $162 $155 #
plane-surface $-1 0 0 6.2724228563084452 0 0 1 1 0 0 forward_v I I I I #
coedge $-1 $317 $318 $159 $247 forward $156 $-1 #
coedge $-1 $159 $158 $252 $319 reversed $57 $-1 #
edge $-1 $249 0.62806679002988008 $320 5.0778005267766293 $245 $321 forward 7 unknown #
coedge $-1 $165 $160 $318 $322 forward $91 $-1 #
vertex $-1 $322 $323 #
straight-curve $-1 -43.303323465681935 -9.7363791361214922 2.7659847843354388 0 -1 0 I I #
coedge $-1 $324 $162 $165 $256 forward $243 $-1 #
coedge $-1 $162 $324 $246 $319 forward $243 $-1 #
vertex $-1 $163 $325 #
straight-curve $-1 -55.775146648152258 -16.368861351369166 6.2724228563084452 -1 0 0 I I #
straight-curve $-1 -43.303323465681942 -16.368861351369166 2.7659847843354228 0.61566146476048833 0 0.78801076186113728 I I #
edge $-1 $166 16.368861351369166 $326 22.576655193116803 $165 $327 forward 7 unknown #
point $-1 -43.303323465681935 -16.368861351369166 6.2724228563084452 #
point $-1 -43.303323465681935 -16.368861351369166 2.7659847843354317 #
edge $-1 $328 1 $328 0 $169 $-1 forward 7 unknown #
vertex $-1 $170 $329 #
ellipse-curve $-1 -40.978323785916118 -19.472758272242984 3.7728925556038027 -0.78801076186113728 0 0.61566146476048833 0.30783073238024417 0 0.39400538093056864 1 I I #
point $-1 -41.62572793822185 -19.472758272242984 4.913209201252501 #
plane-surface $-1 0 0 6.2724228563084452 0 0 1 1 0 0 forward_v I I I I #
coedge $-1 $274 $273 $266 $330 forward $174 $-1 #
coedge $-1 $266 $176 $178 $270 reversed $106 $-1 #
coedge $-1 $176 $265 $264 $330 reversed $106 $-1 #
coedge $-1 $184 $179 $176 $268 forward $185 $-1 #
edge $-1 $271 11.448834781248951 $331 14.18836437140865 $267 $332 forward 7 unknown #
coedge $-1 $178 $177 $274 $333 reversed $66 $-1 #
edge $-1 $334 -86.606646931363883 $271 -82.156913194617076 $265 $335 forward 7 unknown #
vertex $-1 $180 $336 #
straight-curve $-1 40.563793875522236 -9.7363791361214922 6.2724228563084523 0 -1 0 I I #
coedge $-1 $264 $181 $184 $278 reversed $174 $-1 #
coedge $-1 $181 $264 $269 $333 forward $174 $-1 #
vertex $-1 $182 $337 #
straight-curve $-1 43.303323465681935 -16.368861351369166 62.166664861357958 0 0 1 I I #
straight-curve $-1 -10.017051642076005 -16.368861351369166 71.012954614957977 0.61566146476048833 0 -0.78801076186113728 I I #
edge $-1 $331 -22.576655193116803 $186 -16.368861351369166 $273 $338 forward 7 unknown #
point $-1 43.303323465681935 -16.368861351369166 6.2724228563084452 #
point $-1 40.563793875522236 -16.368861351369166 6.2724228563084523 #
edge $-1 $339 1 $339 0 $189 $-1 forward 7 unknown #
vertex $-1 $190 $340 #
ellipse-curve $-1 40.978323785916125 -19.472758272242984 3.7728925556038133 0.78801076186113728 0 0.61566146476048833 0.30783073238024417 0 -0.39400538093056864 1 I I #
point $-1 42.241389402982342 -19.472758272242984 4.125198439391375 #
plane-surface $-1 43.303323465681935 0 0 -1 0 0 0 0 1 forward_v I I I I #
coedge $-1 $198 $196 $200 $290 reversed $121 $-1 #
edge $-1 $211 -6.2724228563084452 $292 6.2724228563084452 $210 $341 forward 7 unknown #
vertex $-1 $290 $342 #
straight-curve $-1 -43.303323465681935 -28.989319830271487 0 0 0 -1 I I #
edge $-1 $288 -28.989319830271487 $292 28.989319830271487 $286 $343 forward 7 unknown #
straight-curve $-1 0 -28.989319830271487 -6.2724228563084452 -1 0 0 I I #
vertex $-1 $203 $344 #
straight-curve $-1 0 28.989319830271487 -6.2724228563084452 1 0 0 I I #
point $-1 43.303323465681935 28.989319830271487 -6.2724228563084452 #
point $-1 43.303323465681935 -28.989319830271487 -6.2724228563084452 #
straight-curve $-1 -43.303323465681935 0 6.2724228563084452 0 -1 0 I I #
point $-1 -43.303323465681935 28.989319830271487 6.2724228563084452 #
point $-1 -43.303323465681935 -28.989319830271487 6.2724228563084452 #
straight-curve $-1 43.303323465681935 -28.989319830271487 0 0 0 -1 I I #
straight-curve $-1 43.303323465681935 28.989319830271487 0 0 0 -1 I I #
plane-surface $-1 0 -28.989319830271487 0 0 1 0 0 0 1 forward_v I I I I #
coedge $-1 $345 $223 $235 $313 reversed $140 $-1 #
coedge $-1 $223 $345 $238 $315 reversed $140 $-1 #
edge $-1 $346 -43.303323465681935 $232 -40.303323465681935 $228 $347 forward 7 unknown #
straight-curve $-1 -40.303323465681935 -12.891493755847073 6.2724228563084452 0 1 0 I I #
coedge $-1 $235 $226 $229 $309 forward $221 $-1 #
straight-curve $-1 -40.303323465681935 -12.891493755847073 -6.2724228563084452 0 -1 0 I I #
coedge $-1 $229 $228 $345 $348 forward $230 $-1 #
edge $-1 $231 40.303323465681935 $349 43.303323465681935 $229 $350 forward 7 unknown #
point $-1 -40.303323465681935 -28.989319830271487 -6.2724228563084452 #
point $-1 -40.303323465681935 -28.989319830271487 6.2724228563084452 #
straight-curve $-1 -43.303323465681935 -22.576655193116803 0 0 0 -1 I I #
edge $-1 $349 -28.989319830271487 $236 -22.576655193116803 $302 $351 forward 7 unknown #
point $-1 -43.303323465681935 -22.576655193116803 -6.2724228563084452 #
edge $-1 $239 22.576655193116803 $346 28.989319830271487 $303 $352 forward 7 unknown #
point $-1 -43.303323465681935 -22.576655193116803 6.2724228563084452 #
coedge $-1 $318 $245 $324 $353 reversed $156 $-1 #
coedge $-1 $245 $317 $248 $322 reversed $156 $-1 #
edge $-1 $320 -12.840276056995311 $253 -6.6324822152476735 $252 $354 forward 7 unknown #
vertex $-1 $247 $355 #
straight-curve $-1 -43.689999985599151 -22.576655193116803 2.2710613946243088 0.61566146476048833 0 0.78801076186113728 I I #
edge $-1 $249 2.7659847843354317 $326 6.2724228563084452 $248 $356 forward 7 unknown #
point $-1 -43.303323465681935 -22.576655193116803 2.7659847843354317 #
coedge $-1 $252 $251 $317 $353 forward $243 $-1 #
point $-1 -40.563793875522265 -16.368861351369166 6.2724228563084452 #
vertex $-1 $322 $357 #
straight-curve $-1 -43.303323465681935 0 6.2724228563084452 0 -1 0 I I #
vertex $-1 $259 $358 #
point $-1 -40.670493053535878 -19.472758272242984 4.1668979365343715 #
edge $-1 $331 55.894242005049513 $334 59.400680077022557 $264 $359 forward 7 unknown #
vertex $-1 $278 $360 #
straight-curve $-1 29.114959094273285 -22.576655193116803 6.2724228563084452 1 0 0 I I #
edge $-1 $334 -12.840276056995311 $275 -6.6324822152476735 $274 $361 forward 7 unknown #
vertex $-1 $333 $362 #
straight-curve $-1 -10.017051642076005 -22.576655193116803 71.012954614957977 -0.61566146476048833 0 0.78801076186113728 I I #
point $-1 40.563793875522236 -22.576655193116803 6.2724228563084523 #
point $-1 43.303323465681935 -16.368861351369166 2.7659847843354015 #
straight-curve $-1 43.303323465681935 0 6.2724228563084452 0 1 0 I I #
vertex $-1 $281 $363 #
point $-1 41.286154518296371 -19.472758272242984 3.3788871746732445 #
straight-curve $-1 -43.303323465681935 28.989319830271487 0 0 0 -1 I I #
point $-1 -43.303323465681935 -28.989319830271487 -6.2724228563084452 #
straight-curve $-1 -43.303323465681935 0 -6.2724228563084452 0 1 0 I I #
point $-1 -43.303323465681935 28.989319830271487 -6.2724228563084452 #
coedge $-1 $303 $302 $308 $348 reversed $140 $-1 #
vertex $-1 $315 $364 #
straight-curve $-1 0 -28.989319830271487 6.2724228563084452 1 0 0 I I #
edge $-1 $346 -6.2724228563084452 $349 6.2724228563084452 $345 $365 forward 7 unknown #
vertex $-1 $313 $366 #
straight-curve $-1 0 -28.989319830271487 -6.2724228563084452 -1 0 0 I I #
straight-curve $-1 -43.303323465681935 0 -6.2724228563084452 0 1 0 I I #
straight-curve $-1 -43.303323465681935 0 6.2724228563084452 0 -1 0 I I #
edge $-1 $326 -22.401661732840967 $320 -19.662132142681305 $324 $367 forward 7 unknown #
straight-curve $-1 -40.563793875522265 -9.7363791361214922 6.2724228563084452 0 1 0 I I #
point $-1 -40.563793875522272 -22.576655193116803 6.2724228563084452 #
straight-curve $-1 -43.303323465681935 -22.576655193116803 0 0 0 1 I I #
point $-1 -43.303323465681935 -22.576655193116803 6.2724228563084452 #
point $-1 -40.584318404985552 -19.472758272242984 3.4650618232235582 #
straight-curve $-1 43.303323465681935 -22.576655193116803 62.166664861357958 0 0 -1 I I #
point $-1 43.303323465681935 -22.576655193116803 6.2724228563084452 #
straight-curve $-1 43.303323465681942 -9.7363791361214922 2.7659847843353944 0 1 0 I I #
point $-1 43.303323465681935 -22.576655193116803 2.7659847843354015 #
point $-1 40.584318404985559 -19.472758272242984 3.4650618232235688 #
point $-1 -43.303323465681935 -28.989319830271487 6.2724228563084452 #
straight-curve $-1 -43.303323465681935 -28.989319830271487 0 0 0 -1 I I #
point $-1 -43.303323465681935 -28.989319830271487 -6.2724228563084452 #
straight-curve $-1 -20.901661732840967 -22.576655193116803 6.2724228563084452 1 0 0 I I #
End-of-ACIS-data 