500 0 18 0           
7 Unknown 11 ACIS 5.0 NT 24 Thu Mar 25 22:36:21 1999 
-1 9.9999999999999995e-007 1e-010 
body $-1 $18 $-1 $19 #
body $-1 $20 $-1 $21 #
body $-1 $22 $-1 $23 #
body $-1 $24 $-1 $25 #
body $-1 $26 $-1 $27 #
body $-1 $28 $-1 $29 #
body $-1 $30 $-1 $31 #
body $-1 $32 $-1 $33 #
body $-1 $34 $-1 $35 #
body $-1 $36 $-1 $37 #
body $-1 $38 $-1 $39 #
body $-1 $40 $-1 $41 #
body $-1 $42 $-1 $43 #
body $-1 $44 $-1 $45 #
body $-1 $46 $-1 $47 #
body $-1 $48 $-1 $49 #
body $-1 $50 $-1 $51 #
body $-1 $52 $-1 $53 #
lump $-1 $-1 $54 $0 #
transform $-1 1 0 0 0 1 0 0 0 1 73.188268684957421 46.730867023924745 13.056889762997473 1 rotate no_reflect no_shear #
lump $-1 $-1 $55 $1 #
transform $-1 1 0 0 0 1 0 0 0 1 73.188268684957421 46.730867023924745 13.056889762997473 1 rotate no_reflect no_shear #
lump $-1 $-1 $56 $2 #
transform $-1 1 0 0 0 1 0 0 0 1 73.188268684957421 46.730867023924745 13.056889762997473 1 rotate no_reflect no_shear #
lump $-1 $-1 $57 $3 #
transform $-1 1 0 0 0 1 0 0 0 1 73.188268684957421 46.730867023924745 13.056889762997473 1 rotate no_reflect no_shear #
lump $-1 $-1 $58 $4 #
transform $-1 1 0 0 0 1 0 0 0 1 73.188268684957421 46.730867023924745 13.056889762997473 1 rotate no_reflect no_shear #
lump $-1 $-1 $59 $5 #
transform $-1 1 0 0 0 1 0 0 0 1 73.188268684957421 46.730867023924745 13.056889762997473 1 rotate no_reflect no_shear #
lump $-1 $-1 $60 $6 #
transform $-1 1 0 0 0 1 0 0 0 1 73.188268684957421 46.730867023924745 13.056889762997473 1 rotate no_reflect no_shear #
lump $-1 $-1 $61 $7 #
transform $-1 1 0 0 0 1 0 0 0 1 73.188268684957421 46.730867023924745 13.056889762997473 1 rotate no_reflect no_shear #
lump $-1 $-1 $62 $8 #
transform $-1 1 0 0 0 1 0 0 0 1 73.188268684957421 46.730867023924745 13.056889762997473 1 rotate no_reflect no_shear #
lump $-1 $-1 $63 $9 #
transform $-1 1 0 0 0 1 0 0 0 1 73.188268684957421 46.730867023924745 13.056889762997473 1 rotate no_reflect no_shear #
lump $-1 $-1 $64 $10 #
transform $-1 1 0 0 0 1 0 0 0 1 73.188268684957421 46.730867023924745 13.056889762997473 1 rotate no_reflect no_shear #
lump $-1 $-1 $65 $11 #
transform $-1 1 0 0 0 1 0 0 0 1 73.188268684957421 46.730867023924745 13.056889762997473 1 rotate no_reflect no_shear #
lump $-1 $-1 $66 $12 #
transform $-1 1 0 0 0 1 0 0 0 1 73.188268684957421 46.730867023924745 13.056889762997473 1 rotate no_reflect no_shear #
lump $-1 $-1 $67 $13 #
transform $-1 1 0 0 0 1 0 0 0 1 73.188268684957421 46.730867023924745 13.056889762997473 1 rotate no_reflect no_shear #
lump $-1 $-1 $68 $14 #
transform $-1 1 0 0 0 1 0 0 0 1 73.188268684957421 46.730867023924745 13.056889762997473 1 rotate no_reflect no_shear #
lump $-1 $-1 $69 $15 #
transform $-1 1 0 0 0 1 0 0 0 1 73.188268684957421 46.730867023924745 13.056889762997473 1 rotate no_reflect no_shear #
lump $-1 $-1 $70 $16 #
transform $-1 1 0 0 0 1 0 0 0 1 73.188268684957421 46.730867023924745 13.056889762997473 1 rotate no_reflect no_shear #
lump $-1 $-1 $71 $17 #
transform $-1 1 0 0 0 1 0 0 0 1 73.188268684957421 46.730867023924745 13.056889762997473 1 rotate no_reflect no_shear #
shell $-1 $-1 $-1 $72 $-1 $18 #
shell $-1 $-1 $-1 $73 $-1 $20 #
shell $-1 $-1 $-1 $74 $-1 $22 #
shell $-1 $-1 $-1 $75 $-1 $24 #
shell $-1 $-1 $-1 $76 $-1 $26 #
shell $-1 $-1 $-1 $77 $-1 $28 #
shell $-1 $-1 $-1 $78 $-1 $30 #
shell $-1 $-1 $-1 $79 $-1 $32 #
shell $-1 $-1 $-1 $80 $-1 $34 #
shell $-1 $-1 $-1 $81 $-1 $36 #
shell $-1 $-1 $-1 $82 $-1 $38 #
shell $-1 $-1 $-1 $83 $-1 $40 #
shell $-1 $-1 $-1 $84 $-1 $42 #
shell $-1 $-1 $-1 $85 $-1 $44 #
shell $-1 $-1 $-1 $86 $-1 $46 #
shell $-1 $-1 $-1 $87 $-1 $48 #
shell $-1 $-1 $-1 $88 $-1 $50 #
shell $-1 $-1 $-1 $89 $-1 $52 #
face $-1 $90 $91 $54 $-1 $92 reversed single #
face $-1 $93 $94 $55 $-1 $95 forward single #
face $-1 $96 $97 $56 $-1 $98 forward single #
face $-1 $99 $100 $57 $-1 $101 reversed single #
face $-1 $102 $103 $58 $-1 $104 forward single #
face $-1 $105 $106 $59 $-1 $107 forward single #
face $-1 $108 $109 $60 $-1 $110 reversed single #
face $-1 $111 $112 $61 $-1 $113 forward single #
face $-1 $114 $115 $62 $-1 $116 forward single #
face $-1 $117 $118 $63 $-1 $119 reversed single #
face $-1 $120 $121 $64 $-1 $122 forward single #
face $-1 $123 $124 $65 $-1 $125 forward single #
face $-1 $126 $127 $66 $-1 $128 reversed single #
face $-1 $129 $130 $67 $-1 $131 forward single #
face $-1 $132 $133 $68 $-1 $134 forward single #
face $-1 $135 $136 $69 $-1 $137 reversed single #
face $-1 $138 $139 $70 $-1 $140 forward single #
face $-1 $141 $142 $71 $-1 $143 forward single #
face $-1 $144 $145 $54 $-1 $146 reversed single #
loop $-1 $-1 $147 $72 #
plane-surface $-1 73.188268684957421 0 0 -1 0 0 0 0 1 forward_v I I I I #
face $-1 $148 $149 $55 $-1 $150 reversed single #
loop $-1 $-1 $151 $73 #
plane-surface $-1 -73.188268684957421 0 0 1 0 0 0 0 -1 forward_v I I I I #
face $-1 $152 $153 $56 $-1 $154 reversed single #
loop $-1 $-1 $155 $74 #
plane-surface $-1 73.188268684957421 0 0 -1 0 0 0 0 1 forward_v I I I I #
face $-1 $156 $157 $57 $-1 $158 reversed single #
loop $-1 $-1 $159 $75 #
plane-surface $-1 -57.500897990899254 115.81938011907336 159.40568018795611 1 0 0 0 -0.82903758062907751 -0.55919289150049634 forward_v I I I I #
face $-1 $160 $161 $58 $-1 $162 forward single #
loop $-1 $163 $164 $76 #
cone-surface $-1 -53.72397726869665 40.932802413765643 5.6067802129382933 0 -0.82903758062907751 -0.55919289150049634 1 0 0 1 I I 0 1 1 forward I I I I #
face $-1 $165 $166 $59 $-1 $167 forward single #
loop $-1 $168 $169 $77 #
cone-surface $-1 -48.058596185392751 40.932802413765643 5.6067802129382933 0 -0.82903758062907751 -0.55919289150049634 1 0 0 1 I I 0 1 1 forward I I I I #
face $-1 $170 $171 $60 $-1 $172 reversed single #
loop $-1 $-1 $173 $78 #
plane-surface $-1 -33.556743755571048 -158.86180129211516 98.487818988870586 -1 0 0 0 -0.7660444514056185 0.64278759981090561 forward_v I I I I #
face $-1 $174 $175 $61 $-1 $176 forward single #
loop $-1 $177 $178 $79 #
cone-surface $-1 -47.58281742787122 -41.589415422507493 7.461683460024231 0 0.7660444514056185 -0.64278759981090561 1.5 0 0 1 I I 0 1 1.5 forward I I I I #
face $-1 $179 $180 $62 $-1 $181 forward single #
loop $-1 $182 $183 $80 #
cone-surface $-1 -39.167173224491123 -41.589415422507493 7.461683460024231 0 0.7660444514056185 -0.64278759981090561 1.5 0 0 1 I I 0 1 1.5 forward I I I I #
face $-1 $184 $185 $63 $-1 $186 reversed single #
loop $-1 $-1 $187 $81 #
plane-surface $-1 -4.6400802047835974 -158.86180129211516 98.487818988870586 -1 0 0 0 -0.7660444514056185 0.64278759981090561 forward_v I I I I #
face $-1 $188 $189 $64 $-1 $190 forward single #
loop $-1 $191 $192 $82 #
cone-surface $-1 -18.666153877083772 -41.589415422507493 7.461683460024231 0 0.7660444514056185 -0.64278759981090561 1.5 0 0 1 I I 0 1 1.5 forward I I I I #
face $-1 $193 $194 $65 $-1 $195 forward single #
loop $-1 $196 $197 $83 #
cone-surface $-1 -10.250509673703675 -41.589415422507493 7.461683460024231 0 0.7660444514056185 -0.64278759981090561 1.5 0 0 1 I I 0 1 1.5 forward I I I I #
face $-1 $198 $199 $66 $-1 $200 reversed single #
loop $-1 $-1 $201 $84 #
plane-surface $-1 24.27658334600385 -158.86180129211516 98.487818988870586 -1 0 0 0 -0.7660444514056185 0.64278759981090561 forward_v I I I I #
face $-1 $202 $203 $67 $-1 $204 forward single #
loop $-1 $205 $206 $85 #
cone-surface $-1 10.250509673703675 -41.589415422507493 7.461683460024231 0 0.7660444514056185 -0.64278759981090561 1.5 0 0 1 I I 0 1 1.5 forward I I I I #
face $-1 $207 $208 $68 $-1 $209 forward single #
loop $-1 $210 $211 $86 #
cone-surface $-1 18.666153877083772 -41.589415422507493 7.461683460024231 0 0.7660444514056185 -0.64278759981090561 1.5 0 0 1 I I 0 1 1.5 forward I I I I #
face $-1 $212 $213 $69 $-1 $214 reversed single #
loop $-1 $-1 $215 $87 #
plane-surface $-1 53.193246896791294 -158.86180129211516 98.487818988870586 -1 0 0 0 -0.7660444514056185 0.64278759981090561 forward_v I I I I #
face $-1 $216 $217 $70 $-1 $218 forward single #
loop $-1 $219 $220 $88 #
cone-surface $-1 39.167173224491123 -41.589415422507493 7.461683460024231 0 0.7660444514056185 -0.64278759981090561 1.5 0 0 1 I I 0 1 1.5 forward I I I I #
face $-1 $221 $222 $71 $-1 $223 forward single #
loop $-1 $224 $225 $89 #
cone-surface $-1 47.58281742787122 -41.589415422507493 7.461683460024231 0 0.7660444514056185 -0.64278759981090561 1.5 0 0 1 I I 0 1 1.5 forward I I I I #
face $-1 $226 $227 $54 $-1 $228 forward single #
loop $-1 $-1 $229 $90 #
plane-surface $-1 -73.188268684957421 0 0 1 0 0 0 0 -1 forward_v I I I I #
coedge $-1 $230 $231 $232 $233 reversed $91 $-1 #
face $-1 $234 $235 $55 $-1 $236 reversed single #
loop $-1 $-1 $237 $93 #
plane-surface $-1 0 0 -13.056889762997473 0 0 1 1 0 0 forward_v I I I I #
coedge $-1 $238 $239 $240 $241 forward $94 $-1 #
face $-1 $242 $243 $56 $-1 $244 reversed single #
loop $-1 $-1 $245 $96 #
plane-surface $-1 0 0 -13.056889762997473 0 0 1 1 0 0 forward_v I I I I #
coedge $-1 $246 $247 $248 $249 forward $97 $-1 #
face $-1 $250 $251 $57 $-1 $252 reversed single #
loop $-1 $-1 $253 $99 #
plane-surface $-1 -50.891286727044701 -5.5322702829425907 77.552961008242974 0 0.82903758062907751 0.55919289150049634 1 0 0 forward_v I I I I #
coedge $-1 $254 $255 $256 $257 reversed $100 $-1 #
face $-1 $-1 $258 $58 $-1 $259 forward single #
loop $-1 $260 $261 $102 #
cone-surface $-1 -53.72397726869665 39.100213665288976 4.3706835327198359 0 -0.82903758062907751 -0.55919289150049634 0.5 0 0 1 I I -0.70710678118654746 0.70710678118654746 0.5 forward I I I I #
loop $-1 $-1 $262 $76 #
coedge $-1 $164 $164 $263 $264 reversed $103 $-1 #
face $-1 $-1 $265 $59 $-1 $266 forward single #
loop $-1 $267 $268 $105 #
cone-surface $-1 -48.058596185392751 39.100213665288976 4.3706835327198359 0 -0.82903758062907751 -0.55919289150049634 0.5 0 0 1 I I -0.70710678118654746 0.70710678118654746 0.5 forward I I I I #
loop $-1 $-1 $269 $77 #
coedge $-1 $169 $169 $270 $271 reversed $106 $-1 #
face $-1 $272 $273 $60 $-1 $274 reversed single #
loop $-1 $-1 $275 $108 #
plane-surface $-1 -43.374995326181164 -46.730867023924731 4.3987958642317011 0 -0.7660444514056185 0.64278759981090561 1 0 0 forward_v I I I I #
coedge $-1 $276 $277 $278 $279 reversed $109 $-1 #
face $-1 $-1 $280 $61 $-1 $281 forward single #
loop $-1 $282 $283 $111 #
cone-surface $-1 -47.58281742787122 -39.505932086009096 5.7134334065757013 0 0.7660444514056185 -0.64278759981090561 0.75 0 0 1 I I -0.70710678118654757 0.70710678118654757 0.75 forward I I I I #
loop $-1 $-1 $284 $79 #
coedge $-1 $178 $178 $285 $286 reversed $112 $-1 #
face $-1 $-1 $287 $62 $-1 $288 forward single #
loop $-1 $289 $290 $114 #
cone-surface $-1 -39.167173224491123 -39.505932086009096 5.7134334065757013 0 0.7660444514056185 -0.64278759981090561 0.75 0 0 1 I I -0.70710678118654757 0.70710678118654757 0.75 forward I I I I #
loop $-1 $-1 $291 $80 #
coedge $-1 $183 $183 $292 $293 reversed $115 $-1 #
face $-1 $294 $295 $63 $-1 $296 reversed single #
loop $-1 $-1 $297 $117 #
plane-surface $-1 -14.458331775393717 -46.730867023924731 4.3987958642317011 0 -0.7660444514056185 0.64278759981090561 1 0 0 forward_v I I I I #
coedge $-1 $298 $299 $300 $301 reversed $118 $-1 #
face $-1 $-1 $302 $64 $-1 $303 forward single #
loop $-1 $304 $305 $120 #
cone-surface $-1 -18.666153877083772 -39.505932086009096 5.7134334065757013 0 0.7660444514056185 -0.64278759981090561 0.75 0 0 1 I I -0.70710678118654757 0.70710678118654757 0.75 forward I I I I #
loop $-1 $-1 $306 $82 #
coedge $-1 $192 $192 $307 $308 reversed $121 $-1 #
face $-1 $-1 $309 $65 $-1 $310 forward single #
loop $-1 $311 $312 $123 #
cone-surface $-1 -10.250509673703675 -39.505932086009096 5.7134334065757013 0 0.7660444514056185 -0.64278759981090561 0.75 0 0 1 I I -0.70710678118654757 0.70710678118654757 0.75 forward I I I I #
loop $-1 $-1 $313 $83 #
coedge $-1 $197 $197 $314 $315 reversed $124 $-1 #
face $-1 $316 $317 $66 $-1 $318 reversed single #
loop $-1 $-1 $319 $126 #
plane-surface $-1 14.458331775393731 -46.730867023924731 4.3987958642317011 0 -0.7660444514056185 0.64278759981090561 1 0 0 forward_v I I I I #
coedge $-1 $320 $321 $322 $323 reversed $127 $-1 #
face $-1 $-1 $324 $67 $-1 $325 forward single #
loop $-1 $326 $327 $129 #
cone-surface $-1 10.250509673703675 -39.505932086009096 5.7134334065757013 0 0.7660444514056185 -0.64278759981090561 0.75 0 0 1 I I -0.70710678118654757 0.70710678118654757 0.75 forward I I I I #
loop $-1 $-1 $328 $85 #
coedge $-1 $206 $206 $329 $330 reversed $130 $-1 #
face $-1 $-1 $331 $68 $-1 $332 forward single #
loop $-1 $333 $334 $132 #
cone-surface $-1 18.666153877083772 -39.505932086009096 5.7134334065757013 0 0.7660444514056185 -0.64278759981090561 0.75 0 0 1 I I -0.70710678118654757 0.70710678118654757 0.75 forward I I I I #
loop $-1 $-1 $335 $86 #
coedge $-1 $211 $211 $336 $337 reversed $133 $-1 #
face $-1 $338 $339 $69 $-1 $340 reversed single #
loop $-1 $-1 $341 $135 #
plane-surface $-1 43.374995326181178 -46.730867023924731 4.3987958642317011 0 -0.7660444514056185 0.64278759981090561 1 0 0 forward_v I I I I #
coedge $-1 $342 $343 $344 $345 reversed $136 $-1 #
face $-1 $-1 $346 $70 $-1 $347 forward single #
loop $-1 $348 $349 $138 #
cone-surface $-1 39.167173224491123 -39.505932086009096 5.7134334065757013 0 0.7660444514056185 -0.64278759981090561 0.75 0 0 1 I I -0.70710678118654757 0.70710678118654757 0.75 forward I I I I #
loop $-1 $-1 $350 $88 #
coedge $-1 $220 $220 $351 $352 reversed $139 $-1 #
face $-1 $-1 $353 $71 $-1 $354 forward single #
loop $-1 $355 $356 $141 #
cone-surface $-1 47.58281742787122 -39.505932086009096 5.7134334065757013 0 0.7660444514056185 -0.64278759981090561 0.75 0 0 1 I I -0.70710678118654757 0.70710678118654757 0.75 forward I I I I #
loop $-1 $-1 $357 $89 #
coedge $-1 $225 $225 $358 $359 reversed $142 $-1 #
face $-1 $360 $361 $54 $-1 $362 reversed single #
loop $-1 $-1 $363 $144 #
plane-surface $-1 0 0 13.056889762997473 0 0 1 1 0 0 forward_v I I I I #
coedge $-1 $364 $365 $366 $367 reversed $145 $-1 #
coedge $-1 $368 $147 $369 $370 reversed $91 $-1 #
coedge $-1 $147 $368 $371 $372 forward $91 $-1 #
coedge $-1 $373 $374 $147 $233 forward $361 $-1 #
edge $-1 $375 -46.730867023924745 $376 46.730867023924745 $147 $377 forward 7 unknown #
face $-1 $378 $379 $55 $-1 $380 reversed single #
loop $-1 $-1 $381 $148 #
plane-surface $-1 -81.031954031986501 -42.233073058132732 0 0 1 0 0 0 1 forward_v I I I I #
coedge $-1 $382 $383 $239 $384 forward $149 $-1 #
coedge $-1 $385 $151 $386 $387 reversed $94 $-1 #
coedge $-1 $151 $385 $237 $384 reversed $94 $-1 #
coedge $-1 $388 $389 $151 $241 reversed $390 $-1 #
edge $-1 $391 -13.056889762997473 $392 13.056889762997473 $240 $393 forward 7 unknown #
face $-1 $394 $395 $56 $-1 $396 reversed single #
loop $-1 $-1 $248 $152 #
plane-surface $-1 81.031954031986487 -42.233073058132732 0 0 1 0 0 0 1 forward_v I I I I #
coedge $-1 $397 $398 $247 $399 forward $153 $-1 #
coedge $-1 $400 $155 $401 $402 reversed $97 $-1 #
coedge $-1 $155 $400 $245 $399 reversed $97 $-1 #
coedge $-1 $403 $404 $155 $249 reversed $243 $-1 #
edge $-1 $405 -13.056889762997473 $406 13.056889762997473 $248 $407 forward 7 unknown #
face $-1 $408 $409 $57 $-1 $410 reversed single #
loop $-1 $-1 $411 $156 #
plane-surface $-1 -44.281675463190147 115.81938011907336 159.40568018795611 -1 0 0 0 0.82903758062907751 0.55919289150049634 forward_v I I I I #
coedge $-1 $412 $413 $414 $415 reversed $157 $-1 #
coedge $-1 $255 $159 $416 $417 reversed $100 $-1 #
coedge $-1 $159 $254 $412 $418 reversed $100 $-1 #
coedge $-1 $414 $419 $159 $257 forward $420 $-1 #
edge $-1 $421 11.178823035611934 $422 19.938812339605867 $256 $423 forward 7 unknown #
loop $-1 $-1 $263 $160 #
plane-surface $-1 -50.891286727044701 -5.5322702829425907 77.552961008242974 0 0.82903758062907751 0.55919289150049634 1 0 0 forward_v I I I I #
loop $-1 $-1 $424 $102 #
coedge $-1 $261 $261 $262 $425 reversed $161 $-1 #
coedge $-1 $262 $262 $261 $425 forward $163 $-1 #
coedge $-1 $263 $263 $164 $264 forward $258 $-1 #
edge $-1 $426 3.3900284129078563e-015 $426 6.283185307179604 $263 $427 forward 7 unknown #
loop $-1 $-1 $270 $165 #
plane-surface $-1 -50.891286727044701 -5.5322702829425907 77.552961008242974 0 0.82903758062907751 0.55919289150049634 1 0 0 forward_v I I I I #
loop $-1 $-1 $428 $105 #
coedge $-1 $268 $268 $269 $429 reversed $166 $-1 #
coedge $-1 $269 $269 $268 $429 forward $168 $-1 #
coedge $-1 $270 $270 $169 $271 forward $265 $-1 #
edge $-1 $430 3.3900284129078563e-015 $430 6.283185307179604 $270 $431 forward 7 unknown #
face $-1 $432 $433 $60 $-1 $434 forward single #
loop $-1 $-1 $435 $170 #
plane-surface $-1 -53.19324689679128 -158.86180129211516 98.487818988870586 1 0 0 0 0.7660444514056185 -0.64278759981090561 forward_v I I I I #
coedge $-1 $436 $437 $438 $439 reversed $171 $-1 #
coedge $-1 $277 $173 $440 $441 reversed $109 $-1 #
coedge $-1 $173 $276 $436 $442 reversed $109 $-1 #
coedge $-1 $438 $443 $173 $279 forward $433 $-1 #
edge $-1 $444 32.700033622132835 $445 39.965036829078969 $278 $446 forward 7 unknown #
loop $-1 $-1 $285 $174 #
plane-surface $-1 -43.374995326181164 -46.730867023924731 4.3987958642317011 0 -0.7660444514056185 0.64278759981090561 1 0 0 forward_v I I I I #
loop $-1 $-1 $447 $111 #
coedge $-1 $283 $283 $284 $448 reversed $175 $-1 #
coedge $-1 $284 $284 $283 $448 forward $177 $-1 #
coedge $-1 $285 $285 $178 $286 forward $280 $-1 #
edge $-1 $449 0 $449 6.2831853071796004 $285 $450 forward 7 unknown #
loop $-1 $-1 $292 $179 #
plane-surface $-1 -43.374995326181164 -46.730867023924731 4.3987958642317011 0 -0.7660444514056185 0.64278759981090561 1 0 0 forward_v I I I I #
loop $-1 $-1 $451 $114 #
coedge $-1 $290 $290 $291 $452 reversed $180 $-1 #
coedge $-1 $291 $291 $290 $452 forward $182 $-1 #
coedge $-1 $292 $292 $183 $293 forward $287 $-1 #
edge $-1 $453 0 $453 6.2831853071796004 $292 $454 forward 7 unknown #
face $-1 $455 $456 $63 $-1 $457 reversed single #
loop $-1 $-1 $458 $184 #
plane-surface $-1 -24.276583346003836 -158.86180129211516 98.487818988870586 1 0 0 0 0.7660444514056185 -0.64278759981090561 forward_v I I I I #
coedge $-1 $459 $460 $461 $462 reversed $185 $-1 #
coedge $-1 $299 $187 $463 $464 reversed $118 $-1 #
coedge $-1 $187 $298 $459 $465 reversed $118 $-1 #
coedge $-1 $461 $466 $187 $301 forward $467 $-1 #
edge $-1 $468 32.700033622132835 $469 39.965036829078969 $300 $470 forward 7 unknown #
loop $-1 $-1 $307 $188 #
plane-surface $-1 -14.458331775393717 -46.730867023924731 4.3987958642317011 0 -0.7660444514056185 0.64278759981090561 1 0 0 forward_v I I I I #
loop $-1 $-1 $471 $120 #
coedge $-1 $305 $305 $306 $472 reversed $189 $-1 #
coedge $-1 $306 $306 $305 $472 forward $191 $-1 #
coedge $-1 $307 $307 $192 $308 forward $302 $-1 #
edge $-1 $473 0 $473 6.2831853071796004 $307 $474 forward 7 unknown #
loop $-1 $-1 $314 $193 #
plane-surface $-1 -14.458331775393717 -46.730867023924731 4.3987958642317011 0 -0.7660444514056185 0.64278759981090561 1 0 0 forward_v I I I I #
loop $-1 $-1 $475 $123 #
coedge $-1 $312 $312 $313 $476 reversed $194 $-1 #
coedge $-1 $313 $313 $312 $476 forward $196 $-1 #
coedge $-1 $314 $314 $197 $315 forward $309 $-1 #
edge $-1 $477 0 $477 6.2831853071796004 $314 $478 forward 7 unknown #
face $-1 $479 $480 $66 $-1 $481 reversed single #
loop $-1 $-1 $482 $198 #
plane-surface $-1 4.6400802047836116 -158.86180129211516 98.487818988870586 1 0 0 0 0.7660444514056185 -0.64278759981090561 forward_v I I I I #
coedge $-1 $483 $484 $485 $486 reversed $199 $-1 #
coedge $-1 $321 $201 $487 $488 reversed $127 $-1 #
coedge $-1 $201 $320 $483 $489 reversed $127 $-1 #
coedge $-1 $485 $490 $201 $323 forward $491 $-1 #
edge $-1 $492 32.700033622132835 $493 39.965036829078969 $322 $494 forward 7 unknown #
loop $-1 $-1 $329 $202 #
plane-surface $-1 14.458331775393731 -46.730867023924731 4.3987958642317011 0 -0.7660444514056185 0.64278759981090561 1 0 0 forward_v I I I I #
loop $-1 $-1 $495 $129 #
coedge $-1 $327 $327 $328 $496 reversed $203 $-1 #
coedge $-1 $328 $328 $327 $496 forward $205 $-1 #
coedge $-1 $329 $329 $206 $330 forward $324 $-1 #
edge $-1 $497 0 $497 6.2831853071796004 $329 $498 forward 7 unknown #
loop $-1 $-1 $336 $207 #
plane-surface $-1 14.458331775393731 -46.730867023924731 4.3987958642317011 0 -0.7660444514056185 0.64278759981090561 1 0 0 forward_v I I I I #
loop $-1 $-1 $499 $132 #
coedge $-1 $334 $334 $335 $500 reversed $208 $-1 #
coedge $-1 $335 $335 $334 $500 forward $210 $-1 #
coedge $-1 $336 $336 $211 $337 forward $331 $-1 #
edge $-1 $501 0 $501 6.2831853071796004 $336 $502 forward 7 unknown #
face $-1 $503 $504 $69 $-1 $505 reversed single #
loop $-1 $-1 $506 $212 #
plane-surface $-1 33.556743755571063 -158.86180129211516 98.487818988870586 1 0 0 0 0.7660444514056185 -0.64278759981090561 forward_v I I I I #
coedge $-1 $507 $508 $509 $510 reversed $213 $-1 #
coedge $-1 $343 $215 $511 $512 reversed $136 $-1 #
coedge $-1 $215 $342 $507 $513 reversed $136 $-1 #
coedge $-1 $509 $514 $215 $345 forward $515 $-1 #
edge $-1 $516 32.700033622132835 $517 39.965036829078969 $344 $518 forward 7 unknown #
loop $-1 $-1 $351 $216 #
plane-surface $-1 43.374995326181178 -46.730867023924731 4.3987958642317011 0 -0.7660444514056185 0.64278759981090561 1 0 0 forward_v I I I I #
loop $-1 $-1 $519 $138 #
coedge $-1 $349 $349 $350 $520 reversed $217 $-1 #
coedge $-1 $350 $350 $349 $520 forward $219 $-1 #
coedge $-1 $351 $351 $220 $352 forward $346 $-1 #
edge $-1 $521 0 $521 6.2831853071796004 $351 $522 forward 7 unknown #
loop $-1 $-1 $358 $221 #
plane-surface $-1 43.374995326181178 -46.730867023924731 4.3987958642317011 0 -0.7660444514056185 0.64278759981090561 1 0 0 forward_v I I I I #
loop $-1 $-1 $523 $141 #
coedge $-1 $356 $356 $357 $524 reversed $222 $-1 #
coedge $-1 $357 $357 $356 $524 forward $224 $-1 #
coedge $-1 $358 $358 $225 $359 forward $353 $-1 #
edge $-1 $525 0 $525 6.2831853071796004 $358 $526 forward 7 unknown #
face $-1 $527 $528 $54 $-1 $529 reversed single #
loop $-1 $-1 $232 $226 #
plane-surface $-1 0 0 -13.056889762997473 0 0 1 1 0 0 forward_v I I I I #
coedge $-1 $530 $531 $368 $532 forward $227 $-1 #
coedge $-1 $533 $229 $534 $535 reversed $145 $-1 #
coedge $-1 $229 $533 $536 $537 forward $145 $-1 #
coedge $-1 $374 $373 $229 $367 forward $361 $-1 #
edge $-1 $538 -46.730867023924745 $539 46.730867023924745 $229 $540 forward 7 unknown #
coedge $-1 $231 $230 $363 $532 reversed $91 $-1 #
coedge $-1 $541 $542 $230 $370 forward $543 $-1 #
edge $-1 $544 -13.056889762997473 $375 13.056889762997473 $230 $545 forward 7 unknown #
coedge $-1 $546 $547 $231 $372 reversed $528 $-1 #
edge $-1 $548 -13.056889762997473 $376 13.056889762997473 $231 $549 forward 7 unknown #
coedge $-1 $366 $232 $547 $550 forward $361 $-1 #
coedge $-1 $232 $366 $541 $551 forward $361 $-1 #
vertex $-1 $233 $552 #
vertex $-1 $372 $553 #
straight-curve $-1 73.188268684957421 0 -13.056889762997473 0 -1 0 I I #
face $-1 $554 $390 $55 $-1 $555 reversed single #
loop $-1 $-1 $556 $234 #
plane-surface $-1 -88.875639379015581 -40.541020963018255 0 1 0 0 0 0 -1 forward_v I I I I #
coedge $-1 $557 $558 $559 $560 forward $235 $-1 #
coedge $-1 $561 $237 $557 $562 forward $149 $-1 #
coedge $-1 $237 $561 $388 $563 forward $149 $-1 #
edge $-1 $391 38.848968867903778 $564 42.233073058132732 $237 $565 forward 7 unknown #
coedge $-1 $239 $238 $566 $567 forward $94 $-1 #
coedge $-1 $568 $569 $238 $387 forward $570 $-1 #
edge $-1 $571 -42.233073058132732 $392 -38.848968867903778 $386 $572 forward 7 unknown #
coedge $-1 $573 $240 $383 $563 reversed $390 $-1 #
coedge $-1 $240 $573 $568 $574 reversed $390 $-1 #
loop $-1 $-1 $240 $378 #
vertex $-1 $384 $575 #
vertex $-1 $574 $576 #
straight-curve $-1 -73.188268684957421 -38.848968867903778 0 0 0 1 I I #
face $-1 $577 $578 $56 $-1 $579 reversed single #
loop $-1 $-1 $580 $242 #
plane-surface $-1 81.031954031986487 -38.848968867903778 0 0 -1 0 0 0 -1 forward_v I I I I #
coedge $-1 $581 $245 $582 $583 forward $153 $-1 #
coedge $-1 $245 $581 $403 $584 forward $153 $-1 #
edge $-1 $405 -42.233073058132732 $585 -38.848968867903778 $245 $586 forward 7 unknown #
coedge $-1 $247 $246 $587 $588 forward $97 $-1 #
coedge $-1 $589 $590 $246 $402 forward $591 $-1 #
edge $-1 $592 38.848968867903778 $406 42.233073058132732 $401 $593 forward 7 unknown #
coedge $-1 $594 $248 $398 $584 reversed $243 $-1 #
coedge $-1 $248 $594 $589 $595 reversed $243 $-1 #
vertex $-1 $399 $596 #
vertex $-1 $595 $597 #
straight-curve $-1 73.188268684957421 -42.233073058132732 0 0 0 1 I I #
face $-1 $-1 $420 $57 $-1 $598 forward single #
loop $-1 $-1 $599 $250 #
plane-surface $-1 0 46.730867023924745 0 0 -1 0 0 0 -1 forward_v I I I I #
coedge $-1 $600 $601 $602 $603 reversed $251 $-1 #
coedge $-1 $604 $253 $255 $418 forward $157 $-1 #
coedge $-1 $253 $604 $600 $605 forward $157 $-1 #
coedge $-1 $602 $256 $253 $415 forward $420 $-1 #
edge $-1 $422 -32.055254627376904 $606 -18.836032099667797 $414 $607 forward 7 unknown #
coedge $-1 $608 $609 $254 $417 forward $409 $-1 #
edge $-1 $610 -79.633168962162486 $421 -66.645950330980583 $416 $611 forward 7 unknown #
edge $-1 $422 77.796317986339773 $610 93.461734047849475 $255 $612 forward 7 unknown #
coedge $-1 $256 $602 $608 $613 forward $420 $-1 #
loop $-1 $-1 $602 $408 #
vertex $-1 $417 $614 #
vertex $-1 $257 $615 #
straight-curve $-1 -57.500897990899254 57.909690059536679 13.056889762997471 0 -1 0 I I #
coedge $-1 $424 $424 $-1 $616 reversed $260 $-1 #
edge $-1 $617 0 $617 6.2831853071796004 $261 $618 forward 7 unknown #
vertex $-1 $264 $619 #
ellipse-curve $-1 -53.72397726869665 42.350872371927785 6.5632804474065116 0 0.82903758062907751 0.55919289150049634 1 0 0 1 I I #
coedge $-1 $428 $428 $-1 $620 reversed $267 $-1 #
edge $-1 $621 0 $621 6.2831853071796004 $268 $622 forward 7 unknown #
vertex $-1 $271 $623 #
ellipse-curve $-1 -48.058596185392751 42.350872371927785 6.5632804474065116 0 0.82903758062907751 0.55919289150049634 1 0 0 1 I I #
face $-1 $-1 $624 $60 $-1 $625 reversed single #
loop $-1 $-1 $278 $272 #
plane-surface $-1 0 0 13.056889762997473 0 0 1 1 0 0 forward_v I I I I #
coedge $-1 $626 $627 $628 $629 reversed $273 $-1 #
coedge $-1 $630 $275 $277 $442 forward $171 $-1 #
coedge $-1 $275 $630 $626 $631 forward $171 $-1 #
coedge $-1 $628 $278 $275 $439 forward $433 $-1 #
edge $-1 $445 11.869246092480466 $632 31.505749233700698 $438 $633 forward 7 unknown #
coedge $-1 $634 $635 $276 $441 forward $624 $-1 #
edge $-1 $636 -44.845113630203606 $444 -36.187019731437822 $440 $637 forward 7 unknown #
edge $-1 $445 -11.30233876490979 $636 2.2061860048766535e-014 $277 $638 forward 7 unknown #
coedge $-1 $278 $628 $634 $639 forward $433 $-1 #
vertex $-1 $279 $640 #
vertex $-1 $279 $641 #
straight-curve $-1 -33.556743755571048 -79.43090064605758 13.056889762997471 0 1 0 I I #
coedge $-1 $447 $447 $-1 $642 reversed $282 $-1 #
edge $-1 $643 0 $643 6.2831853071796004 $283 $644 forward 7 unknown #
vertex $-1 $286 $645 #
ellipse-curve $-1 -47.58281742787122 -43.098365420451678 8.7278428136145827 0 -0.7660444514056185 0.64278759981090561 1.5 0 0 1 I I #
coedge $-1 $451 $451 $-1 $646 reversed $289 $-1 #
edge $-1 $647 0 $647 6.2831853071796004 $290 $648 forward 7 unknown #
vertex $-1 $293 $649 #
ellipse-curve $-1 -39.167173224491123 -43.098365420451678 8.7278428136145827 0 -0.7660444514056185 0.64278759981090561 1.5 0 0 1 I I #
face $-1 $-1 $467 $63 $-1 $650 forward single #
loop $-1 $-1 $651 $294 #
plane-surface $-1 0 -46.730867023924745 0 0 1 0 0 0 1 forward_v I I I I #
coedge $-1 $652 $653 $654 $655 reversed $295 $-1 #
coedge $-1 $656 $297 $299 $465 forward $185 $-1 #
coedge $-1 $297 $656 $652 $657 forward $185 $-1 #
coedge $-1 $654 $300 $297 $462 forward $467 $-1 #
edge $-1 $469 -2.5890856829132609 $658 17.047417458306978 $461 $659 forward 7 unknown #
coedge $-1 $660 $661 $298 $464 forward $456 $-1 #
edge $-1 $662 -44.845113630203606 $468 -36.187019731437822 $463 $663 forward 7 unknown #
edge $-1 $469 -11.30233876490979 $662 2.2061860048766535e-014 $299 $664 forward 7 unknown #
coedge $-1 $300 $654 $660 $665 forward $467 $-1 #
loop $-1 $-1 $654 $455 #
vertex $-1 $464 $666 #
vertex $-1 $301 $667 #
straight-curve $-1 -4.6400802047835974 -79.43090064605758 13.056889762997471 0 1 0 I I #
coedge $-1 $471 $471 $-1 $668 reversed $304 $-1 #
edge $-1 $669 0 $669 6.2831853071796004 $305 $670 forward 7 unknown #
vertex $-1 $308 $671 #
ellipse-curve $-1 -18.666153877083772 -43.098365420451678 8.7278428136145827 0 -0.7660444514056185 0.64278759981090561 1.5 0 0 1 I I #
coedge $-1 $475 $475 $-1 $672 reversed $311 $-1 #
edge $-1 $673 0 $673 6.2831853071796004 $312 $674 forward 7 unknown #
vertex $-1 $315 $675 #
ellipse-curve $-1 -10.250509673703675 -43.098365420451678 8.7278428136145827 0 -0.7660444514056185 0.64278759981090561 1.5 0 0 1 I I #
face $-1 $-1 $491 $66 $-1 $676 forward single #
loop $-1 $-1 $677 $316 #
plane-surface $-1 0 -46.730867023924745 0 0 1 0 0 0 1 forward_v I I I I #
coedge $-1 $678 $679 $680 $681 reversed $317 $-1 #
coedge $-1 $682 $319 $321 $489 forward $199 $-1 #
coedge $-1 $319 $682 $678 $683 forward $199 $-1 #
coedge $-1 $680 $322 $319 $486 forward $491 $-1 #
edge $-1 $493 -17.047417458306985 $684 2.5890856829132538 $485 $685 forward 7 unknown #
coedge $-1 $686 $687 $320 $488 forward $480 $-1 #
edge $-1 $688 -44.845113630203606 $492 -36.187019731437822 $487 $689 forward 7 unknown #
edge $-1 $493 -11.30233876490979 $688 2.2061860048766535e-014 $321 $690 forward 7 unknown #
coedge $-1 $322 $680 $686 $691 forward $491 $-1 #
loop $-1 $-1 $680 $479 #
vertex $-1 $488 $692 #
vertex $-1 $323 $693 #
straight-curve $-1 24.27658334600385 -79.43090064605758 13.056889762997471 0 1 0 I I #
coedge $-1 $495 $495 $-1 $694 reversed $326 $-1 #
edge $-1 $695 0 $695 6.2831853071796004 $327 $696 forward 7 unknown #
vertex $-1 $330 $697 #
ellipse-curve $-1 10.250509673703675 -43.098365420451678 8.7278428136145827 0 -0.7660444514056185 0.64278759981090561 1.5 0 0 1 I I #
coedge $-1 $499 $499 $-1 $698 reversed $333 $-1 #
edge $-1 $699 0 $699 6.2831853071796004 $334 $700 forward 7 unknown #
vertex $-1 $337 $701 #
ellipse-curve $-1 18.666153877083772 -43.098365420451678 8.7278428136145827 0 -0.7660444514056185 0.64278759981090561 1.5 0 0 1 I I #
face $-1 $-1 $515 $69 $-1 $702 forward single #
loop $-1 $-1 $703 $338 #
plane-surface $-1 0 -46.730867023924745 0 0 1 0 0 0 1 forward_v I I I I #
coedge $-1 $704 $705 $706 $707 reversed $339 $-1 #
coedge $-1 $708 $341 $343 $513 forward $213 $-1 #
coedge $-1 $341 $708 $704 $709 forward $213 $-1 #
coedge $-1 $706 $344 $341 $510 forward $515 $-1 #
edge $-1 $517 -31.505749233700705 $710 -11.869246092480473 $509 $711 forward 7 unknown #
coedge $-1 $712 $713 $342 $512 forward $504 $-1 #
edge $-1 $714 -44.845113630203606 $516 -36.187019731437822 $511 $715 forward 7 unknown #
edge $-1 $517 -11.30233876490979 $714 2.2061860048766535e-014 $343 $716 forward 7 unknown #
coedge $-1 $344 $706 $712 $717 forward $515 $-1 #
loop $-1 $-1 $706 $503 #
vertex $-1 $512 $718 #
vertex $-1 $345 $719 #
straight-curve $-1 53.193246896791294 -79.43090064605758 13.056889762997471 0 1 0 I I #
coedge $-1 $519 $519 $-1 $720 reversed $348 $-1 #
edge $-1 $721 0 $721 6.2831853071796004 $349 $722 forward 7 unknown #
vertex $-1 $352 $723 #
ellipse-curve $-1 39.167173224491123 -43.098365420451678 8.7278428136145827 0 -0.7660444514056185 0.64278759981090561 1.5 0 0 1 I I #
coedge $-1 $523 $523 $-1 $724 reversed $355 $-1 #
edge $-1 $725 0 $725 6.2831853071796004 $356 $726 forward 7 unknown #
vertex $-1 $359 $727 #
ellipse-curve $-1 47.58281742787122 -43.098365420451678 8.7278428136145827 0 -0.7660444514056185 0.64278759981090561 1.5 0 0 1 I I #
face $-1 $-1 $543 $54 $-1 $728 reversed single #
loop $-1 $-1 $534 $360 #
plane-surface $-1 0 -46.730867023924745 0 0 1 0 0 0 1 forward_v I I I I #
coedge $-1 $729 $363 $542 $730 forward $227 $-1 #
coedge $-1 $363 $729 $546 $731 forward $227 $-1 #
edge $-1 $548 -46.730867023924745 $544 46.730867023924745 $368 $732 forward 7 unknown #
coedge $-1 $365 $364 $729 $733 reversed $145 $-1 #
coedge $-1 $547 $546 $364 $535 forward $528 $-1 #
edge $-1 $734 -13.056889762997473 $538 13.056889762997473 $364 $735 forward 7 unknown #
coedge $-1 $542 $541 $365 $537 reversed $543 $-1 #
edge $-1 $736 -13.056889762997473 $539 13.056889762997473 $536 $737 forward 7 unknown #
vertex $-1 $367 $738 #
vertex $-1 $551 $739 #
straight-curve $-1 -73.188268684957421 0 -13.056889762997473 0 1 0 I I #
coedge $-1 $536 $369 $374 $551 reversed $543 $-1 #
coedge $-1 $369 $536 $530 $730 reversed $543 $-1 #
loop $-1 $-1 $369 $527 #
vertex $-1 $532 $740 #
straight-curve $-1 73.188268684957421 46.730867023924745 0 0 0 -1 I I #
coedge $-1 $534 $371 $531 $731 reversed $528 $-1 #
coedge $-1 $371 $534 $373 $550 reversed $528 $-1 #
vertex $-1 $532 $741 #
straight-curve $-1 73.188268684957421 -46.730867023924745 0 0 0 -1 I I #
edge $-1 $376 -73.188268684957421 $538 73.188268684957421 $547 $742 forward 7 unknown #
edge $-1 $539 -73.188268684957421 $375 73.188268684957421 $541 $743 forward 7 unknown #
point $-1 73.188268684957421 46.730867023924745 -13.056889762997473 #
point $-1 73.188268684957421 -46.730867023924745 -13.056889762997473 #
face $-1 $-1 $570 $55 $-1 $744 forward single #
plane-surface $-1 -81.031954031986501 -38.848968867903778 0 0 -1 0 0 0 -1 forward_v I I I I #
coedge $-1 $745 $746 $573 $747 forward $379 $-1 #
coedge $-1 $566 $381 $382 $562 reversed $235 $-1 #
coedge $-1 $381 $566 $569 $748 reversed $235 $-1 #
coedge $-1 $746 $745 $381 $560 reversed $379 $-1 #
edge $-1 $749 -13.056889762997473 $750 13.056889762997473 $559 $751 forward 7 unknown #
coedge $-1 $383 $382 $745 $752 forward $149 $-1 #
edge $-1 $564 -7.8436853470290799 $750 7.8436853470290799 $557 $753 forward 7 unknown #
edge $-1 $754 -7.8436853470290799 $391 7.8436853470290799 $388 $755 forward 7 unknown #
vertex $-1 $562 $756 #
straight-curve $-1 -73.188268684957421 0 -13.056889762997473 0 -1 0 I I #
coedge $-1 $558 $557 $385 $567 reversed $235 $-1 #
edge $-1 $571 -13.056889762997473 $564 13.056889762997473 $566 $757 forward 7 unknown #
coedge $-1 $758 $386 $389 $574 forward $570 $-1 #
coedge $-1 $386 $758 $558 $748 forward $570 $-1 #
loop $-1 $-1 $386 $554 #
vertex $-1 $387 $759 #
straight-curve $-1 -73.188268684957421 0 13.056889762997473 0 1 0 I I #
coedge $-1 $389 $388 $556 $747 reversed $390 $-1 #
edge $-1 $392 -7.8436853470290799 $760 7.8436853470290799 $389 $761 forward 7 unknown #
point $-1 -73.188268684957421 -38.848968867903778 -13.056889762997473 #
point $-1 -73.188268684957421 -38.848968867903778 13.056889762997473 #
face $-1 $-1 $591 $56 $-1 $762 forward single #
loop $-1 $-1 $763 $394 #
plane-surface $-1 88.875639379015567 -40.541020963018255 0 -1 0 0 0 0 1 forward_v I I I I #
coedge $-1 $582 $764 $765 $766 forward $395 $-1 #
coedge $-1 $398 $397 $767 $768 forward $153 $-1 #
coedge $-1 $587 $580 $397 $583 reversed $395 $-1 #
edge $-1 $585 -7.8436853470290799 $769 7.8436853470290799 $582 $770 forward 7 unknown #
edge $-1 $771 -7.8436853470290799 $405 7.8436853470290799 $403 $772 forward 7 unknown #
vertex $-1 $583 $773 #
straight-curve $-1 73.188268684957421 0 -13.056889762997473 0 1 0 I I #
coedge $-1 $764 $582 $400 $588 reversed $395 $-1 #
edge $-1 $592 -13.056889762997473 $585 13.056889762997473 $587 $774 forward 7 unknown #
coedge $-1 $775 $401 $404 $595 forward $591 $-1 #
coedge $-1 $401 $775 $764 $776 forward $591 $-1 #
loop $-1 $-1 $401 $577 #
vertex $-1 $402 $777 #
straight-curve $-1 73.188268684957421 0 13.056889762997473 0 -1 0 I I #
coedge $-1 $404 $403 $763 $778 reversed $243 $-1 #
edge $-1 $406 -7.8436853470290799 $779 7.8436853470290799 $404 $780 forward 7 unknown #
point $-1 73.188268684957407 -42.233073058132732 -13.056889762997473 #
point $-1 73.188268684957407 -42.233073058132732 13.056889762997473 #
plane-surface $-1 0 0 13.056889762997473 0 0 1 1 0 0 forward_v I I I I #
coedge $-1 $609 $608 $601 $781 forward $409 $-1 #
coedge $-1 $601 $411 $413 $605 reversed $251 $-1 #
coedge $-1 $411 $600 $599 $781 reversed $251 $-1 #
coedge $-1 $419 $414 $411 $603 forward $420 $-1 #
edge $-1 $606 -19.938812339605867 $782 -11.178823035611934 $602 $783 forward 7 unknown #
coedge $-1 $413 $412 $609 $784 reversed $157 $-1 #
edge $-1 $785 -93.461734047849475 $606 -77.796317986339773 $600 $786 forward 7 unknown #
vertex $-1 $415 $787 #
straight-curve $-1 -25.44564336352235 37.970877719930812 13.056889762997471 1 0 0 I I #
coedge $-1 $599 $416 $419 $613 reversed $409 $-1 #
coedge $-1 $416 $599 $604 $784 forward $409 $-1 #
vertex $-1 $417 $788 #
straight-curve $-1 -57.500897990899254 46.730867023924745 79.702840093978054 0 0 1 I I #
straight-curve $-1 -57.500897990899254 -5.5322702829425907 77.552961008242974 0 0.55919289150049634 -0.82903758062907751 I I #
edge $-1 $782 44.281675463190147 $421 57.500897990899254 $608 $789 forward 7 unknown #
point $-1 -57.500897990899254 46.730867023924745 13.056889762997473 #
point $-1 -57.500897990899254 37.970877719930812 13.056889762997471 #
edge $-1 $790 1 $790 0 $424 $-1 forward 7 unknown #
vertex $-1 $425 $791 #
ellipse-curve $-1 -53.72397726869665 39.514732455603514 4.6502799784700839 0 0.82903758062907751 0.55919289150049634 1 0 0 1 I I #
point $-1 -52.72397726869665 42.350872371927778 6.5632804474065027 #
edge $-1 $792 1 $792 0 $428 $-1 forward 7 unknown #
vertex $-1 $429 $793 #
ellipse-curve $-1 -48.058596185392751 39.514732455603514 4.6502799784700839 0 0.82903758062907751 0.55919289150049634 1 0 0 1 I I #
point $-1 -47.058596185392751 42.350872371927778 6.5632804474065027 #
loop $-1 $-1 $440 $432 #
plane-surface $-1 0 -46.730867023924745 0 0 1 0 0 0 1 forward_v I I I I #
coedge $-1 $627 $435 $437 $631 reversed $273 $-1 #
coedge $-1 $435 $626 $794 $795 reversed $273 $-1 #
coedge $-1 $443 $438 $435 $629 forward $433 $-1 #
edge $-1 $632 -39.965036829078969 $796 -32.700033622132835 $628 $797 forward 7 unknown #
coedge $-1 $437 $436 $635 $798 reversed $171 $-1 #
edge $-1 $799 -2.2061860048766535e-014 $632 11.30233876490979 $626 $800 forward 7 unknown #
vertex $-1 $439 $801 #
straight-curve $-1 -21.687497663090582 -39.465863816978604 13.056889762997471 -1 0 0 I I #
coedge $-1 $794 $440 $443 $639 reversed $624 $-1 #
coedge $-1 $440 $794 $630 $798 forward $624 $-1 #
vertex $-1 $441 $802 #
straight-curve $-1 -33.556743755571048 -46.730867023924745 49.243909494435293 0 0 1 I I #
straight-curve $-1 -33.556743755571048 -46.730867023924731 4.3987958642317011 0 -0.64278759981090561 -0.7660444514056185 I I #
edge $-1 $796 -53.19324689679128 $444 -33.556743755571048 $634 $803 forward 7 unknown #
point $-1 -33.556743755571048 -46.730867023924745 13.056889762997473 #
point $-1 -33.556743755571048 -39.465863816978612 13.056889762997473 #
edge $-1 $804 1 $804 0 $447 $-1 forward 7 unknown #
vertex $-1 $448 $805 #
ellipse-curve $-1 -47.58281742787122 -40.080465424563307 6.1955241064338802 0 -0.7660444514056185 0.64278759981090561 1.5 0 0 1 I I #
point $-1 -46.08281742787122 -43.098365420451678 8.7278428136145827 #
edge $-1 $806 1 $806 0 $451 $-1 forward 7 unknown #
vertex $-1 $452 $807 #
ellipse-curve $-1 -39.167173224491123 -40.080465424563307 6.1955241064338802 0 -0.7660444514056185 0.64278759981090561 1.5 0 0 1 I I #
point $-1 -37.667173224491123 -43.098365420451678 8.7278428136145827 #
plane-surface $-1 0 0 13.056889762997473 0 0 1 1 0 0 forward_v I I I I #
coedge $-1 $661 $660 $653 $808 forward $456 $-1 #
coedge $-1 $653 $458 $460 $657 reversed $295 $-1 #
coedge $-1 $458 $652 $651 $808 reversed $295 $-1 #
coedge $-1 $466 $461 $458 $655 forward $467 $-1 #
edge $-1 $658 -39.965036829078969 $809 -32.700033622132835 $654 $810 forward 7 unknown #
coedge $-1 $460 $459 $661 $811 reversed $185 $-1 #
edge $-1 $812 -2.2061860048766535e-014 $658 11.30233876490979 $652 $813 forward 7 unknown #
vertex $-1 $462 $814 #
straight-curve $-1 -7.2291658876968583 -39.465863816978604 13.056889762997471 -1 0 0 I I #
coedge $-1 $651 $463 $466 $665 reversed $456 $-1 #
coedge $-1 $463 $651 $656 $811 forward $456 $-1 #
vertex $-1 $464 $815 #
straight-curve $-1 -4.6400802047835974 -46.730867023924745 49.243909494435293 0 0 1 I I #
straight-curve $-1 -4.6400802047835974 -46.730867023924731 4.3987958642317011 0 -0.64278759981090561 -0.7660444514056185 I I #
edge $-1 $809 -24.276583346003836 $468 -4.6400802047835974 $660 $816 forward 7 unknown #
point $-1 -4.6400802047835974 -46.730867023924745 13.056889762997473 #
point $-1 -4.6400802047835974 -39.465863816978612 13.056889762997473 #
edge $-1 $817 1 $817 0 $471 $-1 forward 7 unknown #
vertex $-1 $472 $818 #
ellipse-curve $-1 -18.666153877083772 -40.080465424563307 6.1955241064338802 0 -0.7660444514056185 0.64278759981090561 1.5 0 0 1 I I #
point $-1 -17.166153877083772 -43.098365420451678 8.7278428136145827 #
edge $-1 $819 1 $819 0 $475 $-1 forward 7 unknown #
vertex $-1 $476 $820 #
ellipse-curve $-1 -10.250509673703675 -40.080465424563307 6.1955241064338802 0 -0.7660444514056185 0.64278759981090561 1.5 0 0 1 I I #
point $-1 -8.7505096737036752 -43.098365420451678 8.7278428136145827 #
plane-surface $-1 0 0 13.056889762997473 0 0 1 1 0 0 forward_v I I I I #
coedge $-1 $687 $686 $679 $821 forward $480 $-1 #
coedge $-1 $679 $482 $484 $683 reversed $317 $-1 #
coedge $-1 $482 $678 $677 $821 reversed $317 $-1 #
coedge $-1 $490 $485 $482 $681 forward $491 $-1 #
edge $-1 $684 -39.965036829078969 $822 -32.700033622132835 $680 $823 forward 7 unknown #
coedge $-1 $484 $483 $687 $824 reversed $199 $-1 #
edge $-1 $825 -2.2061860048766535e-014 $684 11.30233876490979 $678 $826 forward 7 unknown #
vertex $-1 $486 $827 #
straight-curve $-1 7.2291658876968654 -39.465863816978604 13.056889762997471 -1 0 0 I I #
coedge $-1 $677 $487 $490 $691 reversed $480 $-1 #
coedge $-1 $487 $677 $682 $824 forward $480 $-1 #
vertex $-1 $488 $828 #
straight-curve $-1 24.27658334600385 -46.730867023924745 49.243909494435293 0 0 1 I I #
straight-curve $-1 24.27658334600385 -46.730867023924731 4.3987958642317011 0 -0.64278759981090561 -0.7660444514056185 I I #
edge $-1 $822 4.6400802047836116 $492 24.27658334600385 $686 $829 forward 7 unknown #
point $-1 24.27658334600385 -46.730867023924745 13.056889762997473 #
point $-1 24.27658334600385 -39.465863816978612 13.056889762997473 #
edge $-1 $830 1 $830 0 $495 $-1 forward 7 unknown #
vertex $-1 $496 $831 #
ellipse-curve $-1 10.250509673703675 -40.080465424563307 6.1955241064338802 0 -0.7660444514056185 0.64278759981090561 1.5 0 0 1 I I #
point $-1 11.750509673703675 -43.098365420451678 8.7278428136145827 #
edge $-1 $832 1 $832 0 $499 $-1 forward 7 unknown #
vertex $-1 $500 $833 #
ellipse-curve $-1 18.666153877083772 -40.080465424563307 6.1955241064338802 0 -0.7660444514056185 0.64278759981090561 1.5 0 0 1 I I #
point $-1 20.166153877083772 -43.098365420451678 8.7278428136145827 #
plane-surface $-1 0 0 13.056889762997473 0 0 1 1 0 0 forward_v I I I I #
coedge $-1 $713 $712 $705 $834 forward $504 $-1 #
coedge $-1 $705 $506 $508 $709 reversed $339 $-1 #
coedge $-1 $506 $704 $703 $834 reversed $339 $-1 #
coedge $-1 $514 $509 $506 $707 forward $515 $-1 #
edge $-1 $710 -39.965036829078969 $835 -32.700033622132835 $706 $836 forward 7 unknown #
coedge $-1 $508 $507 $713 $837 reversed $213 $-1 #
edge $-1 $838 -2.2061860048766535e-014 $710 11.30233876490979 $704 $839 forward 7 unknown #
vertex $-1 $510 $840 #
straight-curve $-1 21.687497663090589 -39.465863816978604 13.056889762997471 -1 0 0 I I #
coedge $-1 $703 $511 $514 $717 reversed $504 $-1 #
coedge $-1 $511 $703 $708 $837 forward $504 $-1 #
vertex $-1 $512 $841 #
straight-curve $-1 53.193246896791294 -46.730867023924745 49.243909494435293 0 0 1 I I #
straight-curve $-1 53.193246896791294 -46.730867023924731 4.3987958642317011 0 -0.64278759981090561 -0.7660444514056185 I I #
edge $-1 $835 33.556743755571063 $516 53.193246896791294 $712 $842 forward 7 unknown #
point $-1 53.193246896791294 -46.730867023924745 13.056889762997473 #
point $-1 53.193246896791294 -39.465863816978612 13.056889762997473 #
edge $-1 $843 1 $843 0 $519 $-1 forward 7 unknown #
vertex $-1 $520 $844 #
ellipse-curve $-1 39.167173224491123 -40.080465424563307 6.1955241064338802 0 -0.7660444514056185 0.64278759981090561 1.5 0 0 1 I I #
point $-1 40.667173224491123 -43.098365420451678 8.7278428136145827 #
edge $-1 $845 1 $845 0 $523 $-1 forward 7 unknown #
vertex $-1 $524 $846 #
ellipse-curve $-1 47.58281742787122 -40.080465424563307 6.1955241064338802 0 -0.7660444514056185 0.64278759981090561 1.5 0 0 1 I I #
point $-1 49.08281742787122 -43.098365420451678 8.7278428136145827 #
plane-surface $-1 0 46.730867023924745 0 0 -1 0 0 0 -1 forward_v I I I I #
coedge $-1 $531 $530 $533 $733 forward $227 $-1 #
edge $-1 $544 -73.188268684957421 $736 73.188268684957421 $542 $847 forward 7 unknown #
edge $-1 $734 -73.188268684957421 $548 73.188268684957421 $546 $848 forward 7 unknown #
straight-curve $-1 73.188268684957421 0 13.056889762997473 0 1 0 I I #
edge $-1 $736 -46.730867023924745 $734 46.730867023924745 $533 $849 forward 7 unknown #
vertex $-1 $733 $850 #
straight-curve $-1 -73.188268684957421 -46.730867023924745 0 0 0 -1 I I #
vertex $-1 $730 $851 #
straight-curve $-1 -73.188268684957421 46.730867023924745 0 0 0 -1 I I #
point $-1 -73.188268684957421 -46.730867023924745 -13.056889762997473 #
point $-1 -73.188268684957421 46.730867023924745 -13.056889762997473 #
point $-1 73.188268684957421 46.730867023924745 13.056889762997473 #
point $-1 73.188268684957421 -46.730867023924745 13.056889762997473 #
straight-curve $-1 0 -46.730867023924745 -13.056889762997473 -1 0 0 I I #
straight-curve $-1 0 46.730867023924745 -13.056889762997473 1 0 0 I I #
plane-surface $-1 0 0 13.056889762997473 0 0 1 1 0 0 forward_v I I I I #
coedge $-1 $559 $556 $561 $752 reversed $379 $-1 #
coedge $-1 $556 $559 $758 $852 reversed $379 $-1 #
edge $-1 $760 -13.056889762997473 $754 13.056889762997473 $573 $853 forward 7 unknown #
edge $-1 $749 -7.8436853470290799 $571 7.8436853470290799 $558 $854 forward 7 unknown #
vertex $-1 $852 $855 #
vertex $-1 $752 $856 #
straight-curve $-1 -88.875639379015581 -42.233073058132732 0 0 0 -1 I I #
edge $-1 $750 -1.6920520951144766 $754 1.6920520951144766 $745 $857 forward 7 unknown #
straight-curve $-1 -81.031954031986501 -42.233073058132732 -13.056889762997473 -1 0 0 I I #
vertex $-1 $563 $858 #
straight-curve $-1 -81.031954031986501 -38.848968867903778 -13.056889762997473 1 0 0 I I #
point $-1 -73.188268684957421 -42.233073058132732 -13.056889762997473 #
straight-curve $-1 -73.188268684957421 -42.233073058132732 0 0 0 -1 I I #
coedge $-1 $569 $568 $746 $852 forward $570 $-1 #
point $-1 -73.188268684957421 -42.233073058132732 13.056889762997473 #
vertex $-1 $574 $859 #
straight-curve $-1 -81.031954031986501 -38.848968867903778 13.056889762997473 -1 0 0 I I #
plane-surface $-1 0 0 13.056889762997473 0 0 1 1 0 0 forward_v I I I I #
coedge $-1 $767 $860 $594 $778 forward $578 $-1 #
coedge $-1 $580 $587 $590 $776 reversed $395 $-1 #
coedge $-1 $860 $767 $580 $766 reversed $578 $-1 #
edge $-1 $861 -13.056889762997473 $769 13.056889762997473 $765 $862 forward 7 unknown #
coedge $-1 $765 $763 $581 $768 reversed $578 $-1 #
edge $-1 $769 -1.6920520951144766 $771 1.6920520951144766 $767 $863 forward 7 unknown #
vertex $-1 $768 $864 #
straight-curve $-1 81.031954031986487 -38.848968867903778 -13.056889762997473 1 0 0 I I #
vertex $-1 $778 $865 #
straight-curve $-1 81.031954031986487 -42.233073058132732 -13.056889762997473 -1 0 0 I I #
point $-1 73.188268684957407 -38.848968867903778 -13.056889762997473 #
straight-curve $-1 73.188268684957421 -38.848968867903778 0 0 0 -1 I I #
coedge $-1 $590 $589 $860 $866 forward $591 $-1 #
edge $-1 $861 -7.8436853470290799 $592 7.8436853470290799 $764 $867 forward 7 unknown #
point $-1 73.188268684957407 -38.848968867903778 13.056889762997473 #
edge $-1 $779 -13.056889762997473 $771 13.056889762997473 $763 $868 forward 7 unknown #
vertex $-1 $866 $869 #
straight-curve $-1 81.031954031986487 -42.233073058132732 13.056889762997473 1 0 0 I I #
edge $-1 $782 66.645950330980583 $785 79.633168962162486 $599 $870 forward 7 unknown #
vertex $-1 $613 $871 #
straight-curve $-1 -44.281675463190147 57.909690059536679 13.056889762997471 0 1 0 I I #
edge $-1 $785 18.836032099667797 $610 32.055254627376904 $609 $872 forward 7 unknown #
vertex $-1 $784 $873 #
straight-curve $-1 -44.281675463190147 -5.5322702829425907 77.552961008242974 0 -0.55919289150049634 0.82903758062907751 I I #
point $-1 -44.281675463190147 37.970877719930812 13.056889762997471 #
point $-1 -57.500897990899254 46.730867023924745 0.069671131815567833 #
straight-curve $-1 0 46.730867023924745 13.056889762997473 -1 0 0 I I #
vertex $-1 $616 $874 #
point $-1 -52.72397726869665 39.514732455603514 4.6502799784700839 #
vertex $-1 $620 $875 #
point $-1 -47.058596185392751 39.514732455603514 4.6502799784700839 #
coedge $-1 $635 $634 $627 $795 forward $624 $-1 #
edge $-1 $796 36.187019731437822 $799 44.845113630203606 $794 $876 forward 7 unknown #
vertex $-1 $639 $877 #
straight-curve $-1 -53.19324689679128 -79.43090064605758 13.056889762997471 0 -1 0 I I #
edge $-1 $799 -31.505749233700698 $636 -11.869246092480466 $635 $878 forward 7 unknown #
vertex $-1 $798 $879 #
straight-curve $-1 -53.19324689679128 -46.730867023924731 4.3987958642317011 0 0.64278759981090561 0.7660444514056185 I I #
point $-1 -53.19324689679128 -39.465863816978612 13.056889762997473 #
point $-1 -33.556743755571048 -46.730867023924745 4.3987958642316842 #
straight-curve $-1 0 -46.730867023924745 13.056889762997473 1 0 0 I I #
vertex $-1 $642 $880 #
point $-1 -46.08281742787122 -40.080465424563307 6.1955241064338802 #
vertex $-1 $646 $881 #
point $-1 -37.667173224491123 -40.080465424563307 6.1955241064338802 #
edge $-1 $809 36.187019731437822 $812 44.845113630203606 $651 $882 forward 7 unknown #
vertex $-1 $665 $883 #
straight-curve $-1 -24.276583346003836 -79.43090064605758 13.056889762997471 0 -1 0 I I #
edge $-1 $812 -17.047417458306978 $662 2.5890856829132609 $661 $884 forward 7 unknown #
vertex $-1 $811 $885 #
straight-curve $-1 -24.276583346003836 -46.730867023924731 4.3987958642317011 0 0.64278759981090561 0.7660444514056185 I I #
point $-1 -24.276583346003836 -39.465863816978612 13.056889762997473 #
point $-1 -4.6400802047835974 -46.730867023924745 4.3987958642316842 #
straight-curve $-1 0 -46.730867023924745 13.056889762997473 1 0 0 I I #
vertex $-1 $668 $886 #
point $-1 -17.166153877083772 -40.080465424563307 6.1955241064338802 #
vertex $-1 $672 $887 #
point $-1 -8.7505096737036752 -40.080465424563307 6.1955241064338802 #
edge $-1 $822 36.187019731437822 $825 44.845113630203606 $677 $888 forward 7 unknown #
vertex $-1 $691 $889 #
straight-curve $-1 4.6400802047836116 -79.43090064605758 13.056889762997471 0 -1 0 I I #
edge $-1 $825 -2.5890856829132538 $688 17.047417458306985 $687 $890 forward 7 unknown #
vertex $-1 $824 $891 #
straight-curve $-1 4.6400802047836116 -46.730867023924731 4.3987958642317011 0 0.64278759981090561 0.7660444514056185 I I #
point $-1 4.6400802047836116 -39.465863816978612 13.056889762997473 #
point $-1 24.27658334600385 -46.730867023924745 4.3987958642316842 #
straight-curve $-1 0 -46.730867023924745 13.056889762997473 1 0 0 I I #
vertex $-1 $694 $892 #
point $-1 11.750509673703675 -40.080465424563307 6.1955241064338802 #
vertex $-1 $698 $893 #
point $-1 20.166153877083772 -40.080465424563307 6.1955241064338802 #
edge $-1 $835 36.187019731437822 $838 44.845113630203606 $703 $894 forward 7 unknown #
vertex $-1 $717 $895 #
straight-curve $-1 33.556743755571063 -79.43090064605758 13.056889762997471 0 -1 0 I I #
edge $-1 $838 11.869246092480473 $714 31.505749233700705 $713 $896 forward 7 unknown #
vertex $-1 $837 $897 #
straight-curve $-1 33.556743755571063 -46.730867023924731 4.3987958642317011 0 0.64278759981090561 0.7660444514056185 I I #
point $-1 33.556743755571063 -39.465863816978612 13.056889762997473 #
point $-1 53.193246896791294 -46.730867023924745 4.3987958642316842 #
straight-curve $-1 0 -46.730867023924745 13.056889762997473 1 0 0 I I #
vertex $-1 $720 $898 #
point $-1 40.667173224491123 -40.080465424563307 6.1955241064338802 #
vertex $-1 $724 $899 #
point $-1 49.08281742787122 -40.080465424563307 6.1955241064338802 #
straight-curve $-1 0 46.730867023924745 13.056889762997473 -1 0 0 I I #
straight-curve $-1 0 -46.730867023924745 13.056889762997473 1 0 0 I I #
straight-curve $-1 -73.188268684957421 0 13.056889762997473 0 -1 0 I I #
point $-1 -73.188268684957421 -46.730867023924745 13.056889762997473 #
point $-1 -73.188268684957421 46.730867023924745 13.056889762997473 #
edge $-1 $760 -1.6920520951144766 $749 1.6920520951144766 $746 $900 forward 7 unknown #
straight-curve $-1 -88.875639379015581 -38.848968867903778 0 0 0 -1 I I #
straight-curve $-1 -81.031954031986501 -42.233073058132732 13.056889762997473 1 0 0 I I #
point $-1 -88.875639379015581 -42.233073058132732 13.056889762997473 #
point $-1 -88.875639379015581 -42.233073058132732 -13.056889762997473 #
straight-curve $-1 -88.875639379015581 -40.541020963018255 -13.056889762997473 0 1 0 I I #
point $-1 -88.875639379015581 -38.848968867903778 -13.056889762997473 #
point $-1 -88.875639379015581 -38.848968867903778 13.056889762997473 #
coedge $-1 $763 $765 $775 $866 reversed $578 $-1 #
vertex $-1 $866 $901 #
straight-curve $-1 88.875639379015567 -38.848968867903778 0 0 0 -1 I I #
straight-curve $-1 88.875639379015567 -40.541020963018255 -13.056889762997473 0 -1 0 I I #
point $-1 88.875639379015567 -38.848968867903778 -13.056889762997473 #
point $-1 88.875639379015567 -42.233073058132732 -13.056889762997473 #
edge $-1 $779 -1.6920520951144766 $861 1.6920520951144766 $860 $902 forward 7 unknown #
straight-curve $-1 81.031954031986487 -38.848968867903778 13.056889762997473 -1 0 0 I I #
straight-curve $-1 88.875639379015567 -42.233073058132732 0 0 0 -1 I I #
point $-1 88.875639379015567 -42.233073058132732 13.056889762997473 #
straight-curve $-1 -44.281675463190147 46.730867023924745 79.702840093978054 0 0 -1 I I #
point $-1 -44.281675463190147 46.730867023924745 13.056889762997473 #
straight-curve $-1 -25.44564336352235 46.730867023924745 0.069671131815567833 -1 0 0 I I #
point $-1 -44.281675463190147 46.730867023924745 0.069671131815567833 #
point $-1 -53.72397726869665 38.685694874974438 4.0910870869695879 #
point $-1 -48.058596185392751 38.685694874974438 4.0910870869695879 #
straight-curve $-1 -53.19324689679128 -46.730867023924745 49.243909494435293 0 0 -1 I I #
point $-1 -53.19324689679128 -46.730867023924745 13.056889762997473 #
straight-curve $-1 -21.687497663090582 -46.730867023924745 4.3987958642316851 1 0 0 I I #
point $-1 -53.19324689679128 -46.730867023924745 4.3987958642316842 #
point $-1 -47.58281742787122 -38.931398747454885 5.2313427067175224 #
point $-1 -39.167173224491123 -38.931398747454885 5.2313427067175224 #
straight-curve $-1 -24.276583346003836 -46.730867023924745 49.243909494435293 0 0 -1 I I #
point $-1 -24.276583346003836 -46.730867023924745 13.056889762997473 #
straight-curve $-1 -7.2291658876968583 -46.730867023924745 4.3987958642316851 1 0 0 I I #
point $-1 -24.276583346003836 -46.730867023924745 4.3987958642316842 #
point $-1 -18.666153877083772 -38.931398747454885 5.2313427067175224 #
point $-1 -10.250509673703675 -38.931398747454885 5.2313427067175224 #
straight-curve $-1 4.6400802047836116 -46.730867023924745 49.243909494435293 0 0 -1 I I #
point $-1 4.6400802047836116 -46.730867023924745 13.056889762997473 #
straight-curve $-1 7.2291658876968654 -46.730867023924745 4.3987958642316851 1 0 0 I I #
point $-1 4.6400802047836116 -46.730867023924745 4.3987958642316842 #
point $-1 10.250509673703675 -38.931398747454885 5.2313427067175224 #
point $-1 18.666153877083772 -38.931398747454885 5.2313427067175224 #
straight-curve $-1 33.556743755571063 -46.730867023924745 49.243909494435293 0 0 -1 I I #
point $-1 33.556743755571063 -46.730867023924745 13.056889762997473 #
straight-curve $-1 21.687497663090589 -46.730867023924745 4.3987958642316851 1 0 0 I I #
point $-1 33.556743755571063 -46.730867023924745 4.3987958642316842 #
point $-1 39.167173224491123 -38.931398747454885 5.2313427067175224 #
point $-1 47.58281742787122 -38.931398747454885 5.2313427067175224 #
straight-curve $-1 -88.875639379015581 -40.541020963018255 13.056889762997473 0 -1 0 I I #
point $-1 88.875639379015567 -38.848968867903778 13.056889762997473 #
straight-curve $-1 88.875639379015567 -40.541020963018255 13.056889762997473 0 1 0 I I #
End-of-ACIS-data 