500 0 5 0           
7 Unknown 11 ACIS 5.0 NT 24 Thu Mar 25 19:48:34 1999 
-1 9.9999999999999995e-007 1e-010 
body $-1 $5 $-1 $6 #
body $-1 $7 $-1 $8 #
body $-1 $9 $-1 $10 #
body $-1 $11 $-1 $12 #
body $-1 $13 $-1 $14 #
lump $-1 $-1 $15 $0 #
transform $-1 1 0 0 0 1 0 0 0 1 45.921811578722497 26.806526412915876 10.662807803827683 1 rotate no_reflect no_shear #
lump $-1 $-1 $16 $1 #
transform $-1 1 0 0 0 1 0 0 0 1 45.921811578722497 26.806526412915876 10.662807803827683 1 rotate no_reflect no_shear #
lump $-1 $-1 $17 $2 #
transform $-1 1 0 0 0 1 0 0 0 1 45.921811578722497 26.806526412915876 10.662807803827683 1 rotate no_reflect no_shear #
lump $-1 $-1 $18 $3 #
transform $-1 1 0 0 0 1 0 0 0 1 45.921811578722497 26.806526412915876 10.662807803827683 1 rotate no_reflect no_shear #
lump $-1 $-1 $19 $4 #
transform $-1 1 0 0 0 1 0 0 0 1 45.921811578722497 26.806526412915876 10.662807803827683 1 rotate no_reflect no_shear #
shell $-1 $-1 $-1 $20 $-1 $5 #
shell $-1 $-1 $-1 $21 $-1 $7 #
shell $-1 $-1 $-1 $22 $-1 $9 #
shell $-1 $-1 $-1 $23 $-1 $11 #
shell $-1 $-1 $-1 $24 $-1 $13 #
face $-1 $25 $26 $15 $-1 $27 forward single #
face $-1 $28 $29 $16 $-1 $30 forward single #
face $-1 $31 $32 $17 $-1 $33 reversed single #
face $-1 $34 $35 $18 $-1 $36 forward single #
face $-1 $37 $38 $19 $-1 $39 forward single #
face $-1 $40 $41 $15 $-1 $42 reversed single #
loop $-1 $-1 $43 $20 #
plane-surface $-1 0 0 10.662807803827683 0 0 1 1 0 0 forward_v I I I I #
face $-1 $44 $45 $16 $-1 $46 reversed single #
loop $-1 $-1 $47 $21 #
plane-surface $-1 -40.395176146857594 0 3.7932780995181634 0 0 1 1 0 0 forward_v I I I I #
face $-1 $48 $49 $17 $-1 $50 reversed single #
loop $-1 $-1 $51 $22 #
plane-surface $-1 48.188645063845726 -10.726919010305318 130.61295431215345 0 -1 0 -0.71933980857756763 0 -0.69465836192734942 forward_v I I I I #
face $-1 $52 $53 $18 $-1 $54 forward single #
loop $-1 $55 $56 $23 #
cone-surface $-1 40.773982292999115 -22.212352869312859 5.3571943184417501 -0.71933980857756763 0 -0.69465836192734942 0.34732918096367471 0 -0.35966990428878381 1 I I 0 1 0.5 forward I I I I #
face $-1 $57 $58 $19 $-1 $59 forward single #
loop $-1 $60 $61 $24 #
cone-surface $-1 40.773982292999115 -15.321092553908333 5.3571943184417501 -0.71933980857756763 0 -0.69465836192734942 0.34732918096367471 0 -0.35966990428878381 1 I I 0 1 0.5 forward I I I I #
face $-1 $62 $63 $15 $-1 $64 reversed single #
loop $-1 $-1 $65 $25 #
plane-surface $-1 0 0 -10.662807803827683 0 0 1 1 0 0 forward_v I I I I #
coedge $-1 $66 $67 $68 $69 forward $26 $-1 #
face $-1 $70 $71 $16 $-1 $72 reversed single #
loop $-1 $-1 $73 $28 #
plane-surface $-1 -40.395176146857594 0 -0.86982512223817388 0 0 1 1 0 0 forward_v I I I I #
coedge $-1 $74 $75 $76 $77 forward $29 $-1 #
face $-1 $78 $79 $17 $-1 $80 reversed single #
loop $-1 $-1 $81 $31 #
plane-surface $-1 -17.87812923730101 -18.766722711610598 66.81301349612994 0.71933980857756763 0 0.69465836192734942 0.69465836192734942 0 -0.71933980857756763 forward_v I I I I #
coedge $-1 $82 $83 $84 $85 reversed $32 $-1 #
face $-1 $-1 $86 $18 $-1 $87 forward single #
loop $-1 $88 $89 $34 #
cone-surface $-1 40.234477436565939 -22.212352869312859 4.8362005469962384 -0.71933980857756763 0 -0.69465836192734942 0.17366459048183736 0 -0.17983495214439191 1 I I -0.70710678118654746 0.70710678118654746 0.25 forward I I I I #
loop $-1 $-1 $90 $23 #
coedge $-1 $56 $56 $91 $92 reversed $35 $-1 #
face $-1 $-1 $93 $19 $-1 $94 forward single #
loop $-1 $95 $96 $37 #
cone-surface $-1 40.234477436565939 -15.321092553908333 4.8362005469962384 -0.71933980857756763 0 -0.69465836192734942 0.17366459048183736 0 -0.17983495214439191 1 I I -0.70710678118654746 0.70710678118654746 0.25 forward I I I I #
loop $-1 $-1 $97 $24 #
coedge $-1 $61 $61 $98 $99 reversed $38 $-1 #
face $-1 $100 $101 $15 $-1 $102 reversed single #
loop $-1 $-1 $103 $40 #
plane-surface $-1 0 -26.806526412915876 0 0 1 0 0 0 1 forward_v I I I I #
coedge $-1 $104 $105 $106 $107 forward $41 $-1 #
coedge $-1 $108 $43 $109 $110 forward $26 $-1 #
coedge $-1 $43 $108 $111 $112 forward $26 $-1 #
coedge $-1 $113 $114 $43 $69 reversed $115 $-1 #
edge $-1 $116 -26.806526412915876 $117 26.806526412915876 $68 $118 forward 7 unknown #
face $-1 $119 $120 $16 $-1 $121 reversed single #
loop $-1 $-1 $122 $44 #
plane-surface $-1 -34.86854071499269 0 1.4617264886399948 -1 0 0 0 0 1 forward_v I I I I #
coedge $-1 $123 $124 $125 $126 forward $45 $-1 #
coedge $-1 $127 $47 $128 $129 reversed $29 $-1 #
coedge $-1 $47 $127 $130 $131 reversed $29 $-1 #
coedge $-1 $122 $132 $47 $77 reversed $71 $-1 #
edge $-1 $133 -26.806526412915876 $134 26.806526412915876 $76 $135 forward 7 unknown #
face $-1 $136 $137 $17 $-1 $138 forward single #
loop $-1 $-1 $139 $48 #
plane-surface $-1 0 -26.806526412915876 0 0 1 0 0 0 1 forward_v I I I I #
coedge $-1 $140 $141 $142 $143 reversed $49 $-1 #
coedge $-1 $83 $51 $144 $145 reversed $32 $-1 #
coedge $-1 $51 $82 $140 $146 reversed $32 $-1 #
coedge $-1 $142 $147 $51 $85 forward $137 $-1 #
edge $-1 $148 -21.827489046799634 $149 -12.251170283930463 $84 $150 forward 7 unknown #
loop $-1 $-1 $91 $52 #
plane-surface $-1 -17.87812923730101 -18.766722711610598 66.81301349612994 0.71933980857756763 0 0.69465836192734942 0.69465836192734942 0 -0.71933980857756763 forward_v I I I I #
loop $-1 $-1 $151 $34 #
coedge $-1 $89 $89 $90 $152 reversed $53 $-1 #
coedge $-1 $90 $90 $89 $152 forward $55 $-1 #
coedge $-1 $91 $91 $56 $92 forward $86 $-1 #
edge $-1 $153 0 $153 6.2831853071796004 $91 $154 forward 7 unknown #
loop $-1 $-1 $98 $57 #
plane-surface $-1 -17.87812923730101 -18.766722711610598 66.81301349612994 0.71933980857756763 0 0.69465836192734942 0.69465836192734942 0 -0.71933980857756763 forward_v I I I I #
loop $-1 $-1 $155 $37 #
coedge $-1 $96 $96 $97 $156 reversed $58 $-1 #
coedge $-1 $97 $97 $96 $156 forward $60 $-1 #
coedge $-1 $98 $98 $61 $99 forward $93 $-1 #
edge $-1 $157 0 $157 6.2831853071796004 $98 $158 forward 7 unknown #
face $-1 $159 $160 $15 $-1 $161 reversed single #
loop $-1 $-1 $162 $62 #
plane-surface $-1 -45.921811578722497 0 0 1 0 0 0 0 -1 forward_v I I I I #
coedge $-1 $163 $111 $164 $165 forward $63 $-1 #
coedge $-1 $166 $65 $163 $167 forward $41 $-1 #
coedge $-1 $65 $166 $168 $169 forward $41 $-1 #
coedge $-1 $114 $113 $65 $107 reversed $115 $-1 #
edge $-1 $170 -26.806526412915876 $171 26.806526412915876 $106 $172 forward 7 unknown #
coedge $-1 $67 $66 $173 $174 forward $26 $-1 #
coedge $-1 $175 $176 $66 $110 reversed $160 $-1 #
edge $-1 $117 -45.921811578722497 $177 45.921811578722497 $109 $178 forward 7 unknown #
coedge $-1 $103 $179 $67 $112 reversed $63 $-1 #
edge $-1 $180 -45.921811578722497 $116 45.921811578722497 $111 $181 forward 7 unknown #
coedge $-1 $106 $68 $179 $182 forward $115 $-1 #
coedge $-1 $68 $106 $175 $183 reversed $115 $-1 #
loop $-1 $-1 $113 $159 #
vertex $-1 $69 $184 #
vertex $-1 $69 $185 #
straight-curve $-1 45.921811578722497 0 10.662807803827683 0 1 0 I I #
face $-1 $186 $187 $16 $-1 $188 reversed single #
loop $-1 $-1 $189 $70 #
plane-surface $-1 0 -26.806526412915876 0 0 1 0 0 0 1 forward_v I I I I #
coedge $-1 $125 $76 $190 $191 reversed $71 $-1 #
coedge $-1 $192 $73 $189 $193 reversed $45 $-1 #
coedge $-1 $73 $192 $194 $195 reversed $45 $-1 #
coedge $-1 $132 $122 $73 $126 reversed $71 $-1 #
edge $-1 $196 -26.806526412915876 $197 26.806526412915876 $125 $198 forward 7 unknown #
coedge $-1 $75 $74 $199 $200 reversed $29 $-1 #
coedge $-1 $201 $202 $74 $129 forward $203 $-1 #
edge $-1 $204 -25.7242235052937 $134 -14.670952641563893 $128 $205 forward 7 unknown #
coedge $-1 $206 $190 $75 $131 forward $120 $-1 #
edge $-1 $133 14.670952641563893 $207 25.7242235052937 $130 $208 forward 7 unknown #
coedge $-1 $76 $125 $201 $209 reversed $71 $-1 #
vertex $-1 $131 $210 #
vertex $-1 $129 $211 #
straight-curve $-1 -34.86854071499269 0 3.7932780995181634 0 1 0 I I #
face $-1 $-1 $212 $17 $-1 $213 reversed single #
loop $-1 $-1 $142 $78 #
plane-surface $-1 0 0 10.662807803827683 0 0 1 1 0 0 forward_v I I I I #
coedge $-1 $214 $215 $141 $216 forward $79 $-1 #
coedge $-1 $217 $81 $83 $146 forward $49 $-1 #
coedge $-1 $81 $217 $139 $216 reversed $49 $-1 #
coedge $-1 $218 $84 $81 $143 forward $137 $-1 #
edge $-1 $149 1.3435576545000192 $219 17.423165057110577 $142 $220 forward 7 unknown #
coedge $-1 $221 $222 $82 $145 forward $212 $-1 #
edge $-1 $223 -64.56023796109352 $148 -54.643669352249042 $144 $224 forward 7 unknown #
edge $-1 $149 78.057970687503641 $223 91.843623157444995 $83 $225 forward 7 unknown #
coedge $-1 $84 $218 $221 $226 forward $137 $-1 #
vertex $-1 $145 $227 #
vertex $-1 $85 $228 #
straight-curve $-1 24.094322531922863 -10.726919010305318 10.662807803827683 -1 0 0 I I #
coedge $-1 $151 $151 $-1 $229 reversed $88 $-1 #
edge $-1 $230 0 $230 6.2831853071796004 $89 $231 forward 7 unknown #
vertex $-1 $92 $232 #
ellipse-curve $-1 41.133652197287915 -22.212352869312859 5.7045234994054397 0.71933980857756763 0 0.69465836192734942 0.34732918096367471 0 -0.35966990428878381 1 I I #
coedge $-1 $155 $155 $-1 $233 reversed $95 $-1 #
edge $-1 $234 0 $234 6.2831853071796004 $96 $235 forward 7 unknown #
vertex $-1 $99 $236 #
ellipse-curve $-1 41.133652197287915 -15.321092553908333 5.7045234994054397 0.71933980857756763 0 0.69465836192734942 0.34732918096367471 0 -0.35966990428878381 1 I I #
face $-1 $-1 $115 $15 $-1 $237 reversed single #
loop $-1 $-1 $175 $100 #
plane-surface $-1 0 26.806526412915876 0 0 -1 0 0 0 -1 forward_v I I I I #
coedge $-1 $238 $173 $176 $239 forward $101 $-1 #
coedge $-1 $179 $103 $104 $167 reversed $63 $-1 #
coedge $-1 $173 $238 $103 $165 reversed $101 $-1 #
edge $-1 $180 -10.662807803827683 $240 10.662807803827683 $164 $241 forward 7 unknown #
coedge $-1 $105 $104 $238 $242 forward $41 $-1 #
edge $-1 $171 -45.921811578722497 $240 45.921811578722497 $163 $243 forward 7 unknown #
coedge $-1 $176 $175 $105 $169 reversed $160 $-1 #
edge $-1 $244 -45.921811578722497 $170 45.921811578722497 $168 $245 forward 7 unknown #
vertex $-1 $107 $246 #
vertex $-1 $182 $247 #
straight-curve $-1 45.921811578722497 0 -10.662807803827683 0 -1 0 I I #
coedge $-1 $162 $164 $108 $174 reversed $101 $-1 #
edge $-1 $177 -26.806526412915876 $180 26.806526412915876 $173 $248 forward 7 unknown #
coedge $-1 $168 $109 $114 $183 forward $160 $-1 #
coedge $-1 $109 $168 $162 $239 reversed $160 $-1 #
vertex $-1 $110 $249 #
straight-curve $-1 0 26.806526412915876 10.662807803827683 -1 0 0 I I #
coedge $-1 $111 $163 $113 $182 reversed $63 $-1 #
vertex $-1 $174 $250 #
straight-curve $-1 0 -26.806526412915876 10.662807803827683 1 0 0 I I #
edge $-1 $116 -10.662807803827683 $171 10.662807803827683 $113 $251 forward 7 unknown #
edge $-1 $117 -10.662807803827683 $170 10.662807803827683 $114 $252 forward 7 unknown #
point $-1 45.921811578722497 -26.806526412915876 10.662807803827683 #
point $-1 45.921811578722497 26.806526412915876 10.662807803827683 #
face $-1 $-1 $203 $16 $-1 $253 reversed single #
loop $-1 $-1 $254 $119 #
plane-surface $-1 -45.921811578722497 0 0 1 0 0 0 0 -1 forward_v I I I I #
coedge $-1 $190 $206 $123 $193 forward $120 $-1 #
coedge $-1 $130 $189 $122 $191 forward $120 $-1 #
edge $-1 $197 -1.6006883665581713 $133 3.062414855198166 $190 $255 forward 7 unknown #
coedge $-1 $124 $123 $254 $256 reversed $45 $-1 #
edge $-1 $257 -25.7242235052937 $197 -14.670952641563893 $189 $258 forward 7 unknown #
coedge $-1 $202 $201 $124 $195 forward $203 $-1 #
edge $-1 $196 14.670952641563893 $259 25.7242235052937 $194 $260 forward 7 unknown #
vertex $-1 $195 $261 #
vertex $-1 $193 $262 #
straight-curve $-1 -34.86854071499269 0 -0.86982512223817388 0 -1 0 I I #
coedge $-1 $263 $264 $127 $200 forward $187 $-1 #
edge $-1 $207 -26.806526412915876 $204 26.806526412915876 $199 $265 forward 7 unknown #
coedge $-1 $194 $128 $132 $209 forward $203 $-1 #
coedge $-1 $128 $194 $263 $266 reversed $203 $-1 #
loop $-1 $-1 $194 $186 #
vertex $-1 $266 $267 #
straight-curve $-1 -20.197588073428797 26.806526412915876 3.7932780995181634 1 0 0 I I #
coedge $-1 $189 $130 $264 $268 forward $120 $-1 #
vertex $-1 $268 $269 #
straight-curve $-1 -20.197588073428797 -26.806526412915876 3.7932780995181634 -1 0 0 I I #
edge $-1 $134 -3.062414855198166 $196 1.6006883665581713 $201 $270 forward 7 unknown #
point $-1 -34.86854071499269 -26.806526412915876 3.7932780995181634 #
point $-1 -34.86854071499269 26.806526412915876 3.7932780995181634 #
loop $-1 $-1 $144 $136 #
plane-surface $-1 45.921811578722497 0 0 -1 0 0 0 0 1 forward_v I I I I #
coedge $-1 $215 $139 $271 $272 reversed $79 $-1 #
coedge $-1 $139 $214 $218 $273 reversed $79 $-1 #
edge $-1 $219 47.817744532950883 $274 61.603397002892223 $139 $275 forward 7 unknown #
coedge $-1 $141 $140 $222 $276 reversed $49 $-1 #
coedge $-1 $147 $142 $215 $273 forward $137 $-1 #
vertex $-1 $273 $277 #
straight-curve $-1 36.345492815853333 -9.3833613558052988 10.66280780382769 0 -1 0 I I #
coedge $-1 $271 $144 $147 $226 reversed $212 $-1 #
coedge $-1 $144 $271 $217 $276 forward $212 $-1 #
vertex $-1 $145 $278 #
straight-curve $-1 45.921811578722497 -10.726919010305318 65.306477156076724 0 0 1 I I #
straight-curve $-1 -17.87812923730101 -10.726919010305318 66.81301349612994 0.69465836192734942 0 -0.71933980857756763 I I #
edge $-1 $279 -26.806526412915876 $148 -10.726919010305318 $221 $280 forward 7 unknown #
point $-1 45.921811578722497 -10.726919010305318 10.662807803827683 #
point $-1 36.345492815853326 -10.726919010305318 10.66280780382769 #
edge $-1 $281 1 $281 0 $151 $-1 forward 7 unknown #
vertex $-1 $152 $282 #
ellipse-curve $-1 40.414312388710329 -22.212352869312859 5.0098651374780756 0.71933980857756763 0 0.69465836192734942 0.34732918096367471 0 -0.35966990428878381 1 I I #
point $-1 41.48098137825157 -22.212352869312859 5.3448535951166409 #
edge $-1 $283 1 $283 0 $155 $-1 forward 7 unknown #
vertex $-1 $156 $284 #
ellipse-curve $-1 40.414312388710329 -15.321092553908333 5.0098651374780756 0.71933980857756763 0 0.69465836192734942 0.34732918096367471 0 -0.35966990428878381 1 I I #
point $-1 41.48098137825157 -15.321092553908333 5.3448535951166409 #
plane-surface $-1 45.921811578722497 0 0 -1 0 0 0 0 1 forward_v I I I I #
coedge $-1 $164 $162 $166 $242 reversed $101 $-1 #
edge $-1 $177 -10.662807803827683 $244 10.662807803827683 $176 $285 forward 7 unknown #
vertex $-1 $242 $286 #
straight-curve $-1 -45.921811578722497 -26.806526412915876 0 0 0 -1 I I #
edge $-1 $240 -26.806526412915876 $244 26.806526412915876 $238 $287 forward 7 unknown #
straight-curve $-1 0 -26.806526412915876 -10.662807803827683 -1 0 0 I I #
vertex $-1 $169 $288 #
straight-curve $-1 0 26.806526412915876 -10.662807803827683 1 0 0 I I #
point $-1 45.921811578722497 26.806526412915876 -10.662807803827683 #
point $-1 45.921811578722497 -26.806526412915876 -10.662807803827683 #
straight-curve $-1 -45.921811578722497 0 10.662807803827683 0 -1 0 I I #
point $-1 -45.921811578722497 26.806526412915876 10.662807803827683 #
point $-1 -45.921811578722497 -26.806526412915876 10.662807803827683 #
straight-curve $-1 45.921811578722497 -26.806526412915876 0 0 0 -1 I I #
straight-curve $-1 45.921811578722497 26.806526412915876 0 0 0 -1 I I #
plane-surface $-1 0 26.806526412915876 0 0 -1 0 0 0 -1 forward_v I I I I #
coedge $-1 $264 $263 $192 $256 forward $187 $-1 #
straight-curve $-1 -34.86854071499269 -26.806526412915876 0.73086324431999738 0 0 1 I I #
edge $-1 $259 -26.806526412915876 $257 26.806526412915876 $254 $289 forward 7 unknown #
vertex $-1 $193 $290 #
straight-curve $-1 -20.197588073428797 -26.806526412915876 -0.86982512223817388 1 0 0 I I #
vertex $-1 $195 $291 #
straight-curve $-1 -20.197588073428797 26.806526412915876 -0.86982512223817388 -1 0 0 I I #
point $-1 -34.86854071499269 26.806526412915876 -0.86982512223817388 #
point $-1 -34.86854071499269 -26.806526412915876 -0.86982512223817388 #
coedge $-1 $254 $199 $202 $266 forward $187 $-1 #
coedge $-1 $199 $254 $206 $268 reversed $187 $-1 #
straight-curve $-1 -45.921811578722497 0 3.7932780995181634 0 1 0 I I #
edge $-1 $204 -3.7932780995181634 $259 0.86982512223817388 $202 $292 forward 7 unknown #
point $-1 -45.921811578722497 26.806526412915876 3.7932780995181634 #
edge $-1 $207 -3.7932780995181634 $257 0.86982512223817388 $264 $293 forward 7 unknown #
point $-1 -45.921811578722497 -26.806526412915876 3.7932780995181634 #
straight-curve $-1 -34.86854071499269 26.806526412915876 0.73086324431999738 0 0 -1 I I #
coedge $-1 $222 $221 $214 $272 forward $212 $-1 #
edge $-1 $279 -10.662807803827683 $274 -0.74623919498320423 $271 $294 forward 7 unknown #
edge $-1 $219 36.345492815853326 $279 45.921811578722497 $215 $295 forward 7 unknown #
vertex $-1 $216 $296 #
straight-curve $-1 3.1284967275332018 -26.806526412915876 45.060015002771607 0.69465836192734942 0 -0.71933980857756763 I I #
edge $-1 $274 -17.423165057110577 $223 -1.3435576545000192 $222 $297 forward 7 unknown #
point $-1 36.345492815853326 -26.806526412915876 10.662807803827683 #
point $-1 45.921811578722497 -10.726919010305318 0.7462391949832039 #
vertex $-1 $226 $298 #
straight-curve $-1 45.921811578722497 0 10.662807803827683 0 1 0 I I #
vertex $-1 $229 $299 #
point $-1 40.761641569674005 -22.212352869312859 4.650195233189292 #
vertex $-1 $233 $300 #
point $-1 40.761641569674005 -15.321092553908333 4.650195233189292 #
straight-curve $-1 -45.921811578722497 26.806526412915876 0 0 0 -1 I I #
point $-1 -45.921811578722497 -26.806526412915876 -10.662807803827683 #
straight-curve $-1 -45.921811578722497 0 -10.662807803827683 0 1 0 I I #
point $-1 -45.921811578722497 26.806526412915876 -10.662807803827683 #
straight-curve $-1 -45.921811578722497 0 -0.86982512223817388 0 -1 0 I I #
point $-1 -45.921811578722497 -26.806526412915876 -0.86982512223817388 #
point $-1 -45.921811578722497 26.806526412915876 -0.86982512223817388 #
straight-curve $-1 -45.921811578722497 26.806526412915876 0 0 0 -1 I I #
straight-curve $-1 -45.921811578722497 -26.806526412915876 0 0 0 -1 I I #
straight-curve $-1 45.921811578722497 -26.806526412915876 0 0 0 -1 I I #
straight-curve $-1 0 -26.806526412915876 10.662807803827683 1 0 0 I I #
point $-1 45.921811578722497 -26.806526412915876 0.74623919498320423 #
straight-curve $-1 45.921811578722497 -9.3833613558052988 0.74623919498321101 0 1 0 I I #
point $-1 45.921811578722497 -26.806526412915876 10.662807803827683 #
point $-1 40.054642484421549 -22.212352869312859 4.6625359565144011 #
point $-1 40.054642484421549 -15.321092553908333 4.6625359565144011 #
End-of-ACIS-data 