500 0 2 0           
7 Unknown 11 ACIS 5.0 NT 24 Fri Mar 26 02:06:46 1999 
-1 9.9999999999999995e-007 1e-010 
body $-1 $2 $-1 $3 #
body $-1 $4 $-1 $5 #
lump $-1 $-1 $6 $0 #
transform $-1 1 0 0 0 1 0 0 0 1 71.670888393810856 39.330075331485695 11.914851093646837 1 rotate no_reflect no_shear #
lump $-1 $-1 $7 $1 #
transform $-1 1 0 0 0 1 0 0 0 1 71.670888393810856 39.330075331485695 11.914851093646837 1 rotate no_reflect no_shear #
shell $-1 $-1 $-1 $8 $-1 $2 #
shell $-1 $-1 $-1 $9 $-1 $4 #
face $-1 $10 $11 $6 $-1 $12 forward single #
face $-1 $13 $14 $7 $-1 $15 forward single #
face $-1 $16 $17 $6 $-1 $18 reversed single #
loop $-1 $-1 $19 $8 #
plane-surface $-1 0 0 11.914851093646837 0 0 1 1 0 0 forward_v I I I I #
face $-1 $20 $21 $7 $-1 $22 forward single #
loop $-1 $-1 $23 $9 #
plane-surface $-1 0 -32.625552586002165 7.0793131190524452 0 0 1 1 0 0 forward_v I I I I #
face $-1 $24 $25 $6 $-1 $26 reversed single #
loop $-1 $-1 $27 $10 #
plane-surface $-1 0 0 -11.914851093646837 0 0 1 1 0 0 forward_v I I I I #
coedge $-1 $28 $29 $30 $31 forward $11 $-1 #
face $-1 $32 $33 $7 $-1 $34 forward single #
loop $-1 $-1 $35 $13 #
plane-surface $-1 0 -25.921029840518635 9.4970821063496391 0 -1 0 0 0 -1 forward_v I I I I #
coedge $-1 $36 $37 $38 $39 reversed $14 $-1 #
face $-1 $40 $41 $6 $-1 $42 reversed single #
loop $-1 $-1 $43 $16 #
plane-surface $-1 0 -39.330075331485695 0 0 1 0 0 0 1 forward_v I I I I #
coedge $-1 $44 $45 $46 $47 forward $17 $-1 #
coedge $-1 $48 $19 $49 $50 forward $11 $-1 #
coedge $-1 $19 $48 $51 $52 forward $11 $-1 #
coedge $-1 $53 $54 $19 $31 reversed $55 $-1 #
edge $-1 $56 -39.330075331485695 $57 39.330075331485695 $30 $58 forward 7 unknown #
face $-1 $59 $60 $7 $-1 $61 reversed single #
loop $-1 $-1 $62 $20 #
plane-surface $-1 0 0 11.914851093646837 0 0 1 1 0 0 forward_v I I I I #
coedge $-1 $63 $64 $65 $66 reversed $21 $-1 #
coedge $-1 $67 $23 $64 $68 reversed $14 $-1 #
coedge $-1 $23 $67 $69 $70 reversed $14 $-1 #
coedge $-1 $71 $65 $23 $39 forward $60 $-1 #
edge $-1 $72 9.6082535475175526 $73 23.017299038484612 $38 $74 forward 7 unknown #
face $-1 $75 $76 $6 $-1 $77 reversed single #
loop $-1 $-1 $78 $24 #
plane-surface $-1 -71.670888393810856 0 0 1 0 0 0 0 -1 forward_v I I I I #
coedge $-1 $79 $51 $80 $81 forward $25 $-1 #
coedge $-1 $82 $27 $79 $83 forward $17 $-1 #
coedge $-1 $27 $82 $84 $85 forward $17 $-1 #
coedge $-1 $54 $53 $27 $47 reversed $55 $-1 #
edge $-1 $86 -39.330075331485695 $87 39.330075331485695 $46 $88 forward 7 unknown #
coedge $-1 $29 $28 $89 $90 forward $11 $-1 #
coedge $-1 $91 $92 $28 $50 reversed $76 $-1 #
edge $-1 $57 -71.670888393810856 $93 71.670888393810856 $49 $94 forward 7 unknown #
coedge $-1 $43 $95 $29 $52 reversed $25 $-1 #
edge $-1 $96 -71.670888393810856 $56 71.670888393810856 $51 $97 forward 7 unknown #
coedge $-1 $46 $30 $95 $98 forward $55 $-1 #
coedge $-1 $30 $46 $91 $99 reversed $55 $-1 #
loop $-1 $-1 $53 $75 #
vertex $-1 $31 $100 #
vertex $-1 $31 $101 #
straight-curve $-1 71.670888393810856 0 11.914851093646837 0 1 0 I I #
face $-1 $102 $103 $7 $-1 $104 reversed single #
loop $-1 $-1 $65 $32 #
plane-surface $-1 71.670888393810856 0 0 -1 0 0 0 0 1 forward_v I I I I #
coedge $-1 $105 $106 $63 $107 forward $33 $-1 #
coedge $-1 $108 $35 $62 $107 reversed $21 $-1 #
coedge $-1 $35 $108 $36 $68 forward $21 $-1 #
coedge $-1 $38 $109 $35 $66 forward $60 $-1 #
edge $-1 $110 -7.1663100404720135 $72 -2.3307720658776256 $65 $111 forward 7 unknown #
coedge $-1 $37 $36 $112 $113 reversed $14 $-1 #
edge $-1 $114 -71.670888393810856 $72 71.670888393810856 $64 $115 forward 7 unknown #
coedge $-1 $116 $117 $37 $70 forward $118 $-1 #
edge $-1 $73 -71.670888393810856 $119 71.670888393810856 $69 $120 forward 7 unknown #
coedge $-1 $121 $38 $117 $122 forward $60 $-1 #
vertex $-1 $39 $123 #
vertex $-1 $122 $124 #
straight-curve $-1 71.670888393810856 -16.312776293001082 7.0793131190524452 0 -1 0 I I #
face $-1 $-1 $55 $6 $-1 $125 reversed single #
loop $-1 $-1 $91 $40 #
plane-surface $-1 0 39.330075331485695 0 0 -1 0 0 0 -1 forward_v I I I I #
coedge $-1 $126 $89 $92 $127 forward $41 $-1 #
coedge $-1 $95 $43 $44 $83 reversed $25 $-1 #
coedge $-1 $89 $126 $43 $81 reversed $41 $-1 #
edge $-1 $96 -11.914851093646837 $128 11.914851093646837 $80 $129 forward 7 unknown #
coedge $-1 $45 $44 $126 $130 forward $17 $-1 #
edge $-1 $87 -71.670888393810856 $128 71.670888393810856 $79 $131 forward 7 unknown #
coedge $-1 $92 $91 $45 $85 reversed $76 $-1 #
edge $-1 $132 -71.670888393810856 $86 71.670888393810856 $84 $133 forward 7 unknown #
vertex $-1 $47 $134 #
vertex $-1 $98 $135 #
straight-curve $-1 71.670888393810856 0 -11.914851093646837 0 -1 0 I I #
coedge $-1 $78 $80 $48 $90 reversed $41 $-1 #
edge $-1 $93 -39.330075331485695 $96 39.330075331485695 $89 $136 forward 7 unknown #
coedge $-1 $84 $49 $54 $99 forward $76 $-1 #
coedge $-1 $49 $84 $78 $127 reversed $76 $-1 #
vertex $-1 $50 $137 #
straight-curve $-1 0 39.330075331485695 11.914851093646837 -1 0 0 I I #
coedge $-1 $51 $79 $53 $98 reversed $25 $-1 #
vertex $-1 $90 $138 #
straight-curve $-1 0 -39.330075331485695 11.914851093646837 1 0 0 I I #
edge $-1 $56 -11.914851093646837 $87 11.914851093646837 $53 $139 forward 7 unknown #
edge $-1 $57 -11.914851093646837 $86 11.914851093646837 $54 $140 forward 7 unknown #
point $-1 71.670888393810856 -39.330075331485695 11.914851093646837 #
point $-1 71.670888393810856 39.330075331485695 11.914851093646837 #
face $-1 $141 $118 $7 $-1 $142 reversed single #
loop $-1 $-1 $143 $59 #
plane-surface $-1 0 0 -11.914851093646837 0 0 1 1 0 0 forward_v I I I I #
coedge $-1 $144 $62 $109 $145 forward $33 $-1 #
coedge $-1 $62 $144 $146 $147 forward $33 $-1 #
edge $-1 $148 -71.670888393810856 $110 71.670888393810856 $62 $149 forward 7 unknown #
coedge $-1 $64 $63 $150 $151 reversed $21 $-1 #
coedge $-1 $65 $152 $105 $145 reversed $60 $-1 #
vertex $-1 $145 $153 #
straight-curve $-1 71.670888393810856 -25.921029840518635 4.7485410531748196 0 0 -1 I I #
coedge $-1 $150 $154 $67 $113 forward $155 $-1 #
edge $-1 $119 -23.017299038484612 $114 -9.6082535475175526 $112 $156 forward 7 unknown #
vertex $-1 $113 $157 #
straight-curve $-1 0 -25.921029840518635 7.0793131190524452 1 0 0 I I #
coedge $-1 $158 $69 $154 $159 forward $118 $-1 #
coedge $-1 $69 $158 $71 $122 reversed $118 $-1 #
loop $-1 $-1 $69 $102 #
vertex $-1 $159 $160 #
straight-curve $-1 0 -39.330075331485695 7.0793131190524452 -1 0 0 I I #
coedge $-1 $152 $71 $143 $161 reversed $60 $-1 #
edge $-1 $73 -7.0793131190524452 $162 11.914851093646837 $71 $163 forward 7 unknown #
point $-1 71.670888393810856 -25.921029840518635 7.0793131190524452 #
point $-1 71.670888393810856 -39.330075331485695 7.0793131190524452 #
plane-surface $-1 71.670888393810856 0 0 -1 0 0 0 0 1 forward_v I I I I #
coedge $-1 $80 $78 $82 $130 reversed $41 $-1 #
edge $-1 $93 -11.914851093646837 $132 11.914851093646837 $92 $164 forward 7 unknown #
vertex $-1 $130 $165 #
straight-curve $-1 -71.670888393810856 -39.330075331485695 0 0 0 -1 I I #
edge $-1 $128 -39.330075331485695 $132 39.330075331485695 $126 $166 forward 7 unknown #
straight-curve $-1 0 -39.330075331485695 -11.914851093646837 -1 0 0 I I #
vertex $-1 $85 $167 #
straight-curve $-1 0 39.330075331485695 -11.914851093646837 1 0 0 I I #
point $-1 71.670888393810856 39.330075331485695 -11.914851093646837 #
point $-1 71.670888393810856 -39.330075331485695 -11.914851093646837 #
straight-curve $-1 -71.670888393810856 0 11.914851093646837 0 -1 0 I I #
point $-1 -71.670888393810856 39.330075331485695 11.914851093646837 #
point $-1 -71.670888393810856 -39.330075331485695 11.914851093646837 #
straight-curve $-1 71.670888393810856 -39.330075331485695 0 0 0 -1 I I #
straight-curve $-1 71.670888393810856 39.330075331485695 0 0 0 -1 I I #
face $-1 $168 $155 $7 $-1 $169 reversed single #
plane-surface $-1 0 -39.330075331485695 0 0 1 0 0 0 1 forward_v I I I I #
coedge $-1 $170 $171 $121 $161 forward $103 $-1 #
coedge $-1 $106 $105 $172 $173 forward $33 $-1 #
edge $-1 $110 -25.921029840518635 $174 39.330075331485695 $109 $175 forward 7 unknown #
coedge $-1 $176 $150 $106 $147 reversed $155 $-1 #
edge $-1 $177 -39.330075331485695 $148 25.921029840518635 $146 $178 forward 7 unknown #
vertex $-1 $151 $179 #
straight-curve $-1 0 -25.921029840518635 11.914851093646837 1 0 0 I I #
coedge $-1 $146 $112 $108 $151 forward $155 $-1 #
edge $-1 $114 2.3307720658776256 $148 7.1663100404720135 $150 $180 forward 7 unknown #
coedge $-1 $109 $121 $181 $182 reversed $60 $-1 #
point $-1 71.670888393810856 -25.921029840518635 11.914851093646833 #
coedge $-1 $112 $183 $116 $159 reversed $155 $-1 #
loop $-1 $-1 $150 $141 #
straight-curve $-1 -71.670888393810856 -16.312776293001082 7.0793131190524452 0 1 0 I I #
point $-1 -71.670888393810856 -25.921029840518635 7.0793131190524452 #
coedge $-1 $117 $116 $170 $184 reversed $118 $-1 #
edge $-1 $119 -7.0793131190524452 $185 11.914851093646837 $154 $186 forward 7 unknown #
point $-1 -71.670888393810856 -39.330075331485695 7.0793131190524452 #
edge $-1 $187 -39.330075331485695 $162 39.330075331485695 $121 $188 forward 7 unknown #
vertex $-1 $122 $189 #
straight-curve $-1 71.670888393810856 -39.330075331485695 0 0 0 -1 I I #
straight-curve $-1 -71.670888393810856 39.330075331485695 0 0 0 -1 I I #
point $-1 -71.670888393810856 -39.330075331485695 -11.914851093646837 #
straight-curve $-1 -71.670888393810856 0 -11.914851093646837 0 1 0 I I #
point $-1 -71.670888393810856 39.330075331485695 -11.914851093646837 #
face $-1 $-1 $190 $7 $-1 $191 reversed single #
plane-surface $-1 -71.670888393810856 0 0 1 0 0 0 0 -1 forward_v I I I I #
coedge $-1 $192 $143 $158 $184 forward $103 $-1 #
coedge $-1 $143 $192 $193 $194 forward $103 $-1 #
coedge $-1 $181 $195 $144 $173 reversed $190 $-1 #
edge $-1 $174 -71.670888393810856 $177 71.670888393810856 $172 $196 forward 7 unknown #
vertex $-1 $145 $197 #
straight-curve $-1 71.670888393810856 0 11.914851093646837 0 1 0 I I #
coedge $-1 $183 $146 $195 $198 forward $155 $-1 #
vertex $-1 $173 $199 #
straight-curve $-1 -71.670888393810856 0 11.914851093646837 0 -1 0 I I #
point $-1 -71.670888393810856 -25.921029840518635 11.914851093646833 #
straight-curve $-1 -71.670888393810856 -25.921029840518635 4.7485410531748196 0 0 1 I I #
coedge $-1 $193 $172 $152 $182 forward $190 $-1 #
edge $-1 $174 -11.914851093646837 $187 11.914851093646837 $152 $200 forward 7 unknown #
coedge $-1 $154 $176 $192 $201 reversed $155 $-1 #
edge $-1 $162 -71.670888393810856 $185 71.670888393810856 $158 $202 forward 7 unknown #
vertex $-1 $201 $203 #
straight-curve $-1 -71.670888393810856 -39.330075331485695 0 0 0 -1 I I #
vertex $-1 $161 $204 #
straight-curve $-1 71.670888393810856 0 -11.914851093646837 0 -1 0 I I #
point $-1 71.670888393810856 -39.330075331485695 -11.914851093646837 #
loop $-1 $-1 $181 $168 #
plane-surface $-1 0 39.330075331485695 0 0 -1 0 0 0 -1 forward_v I I I I #
coedge $-1 $171 $170 $183 $201 forward $103 $-1 #
coedge $-1 $195 $181 $171 $194 reversed $190 $-1 #
edge $-1 $205 -71.670888393810856 $187 71.670888393810856 $193 $206 forward 7 unknown #
coedge $-1 $172 $193 $176 $198 reversed $190 $-1 #
straight-curve $-1 0 39.330075331485695 11.914851093646837 -1 0 0 I I #
point $-1 71.670888393810856 39.330075331485695 11.914851093646837 #
edge $-1 $177 -11.914851093646837 $205 11.914851093646837 $195 $207 forward 7 unknown #
point $-1 -71.670888393810856 39.330075331485695 11.914851093646837 #
straight-curve $-1 71.670888393810856 39.330075331485695 0 0 0 -1 I I #
edge $-1 $185 -39.330075331485695 $205 39.330075331485695 $183 $208 forward 7 unknown #
straight-curve $-1 0 -39.330075331485695 -11.914851093646837 -1 0 0 I I #
point $-1 -71.670888393810856 -39.330075331485695 -11.914851093646837 #
point $-1 71.670888393810856 39.330075331485695 -11.914851093646837 #
vertex $-1 $194 $209 #
straight-curve $-1 0 39.330075331485695 -11.914851093646837 1 0 0 I I #
straight-curve $-1 -71.670888393810856 39.330075331485695 0 0 0 -1 I I #
straight-curve $-1 -71.670888393810856 0 -11.914851093646837 0 1 0 I I #
point $-1 -71.670888393810856 39.330075331485695 -11.914851093646837 #
End-of-ACIS-data 