500 0 12 0           
7 Unknown 11 ACIS 5.0 NT 24 Thu Mar 25 15:23:56 1999 
-1 9.9999999999999995e-007 1e-010 
body $-1 $12 $-1 $13 #
body $-1 $14 $-1 $15 #
body $-1 $16 $-1 $17 #
body $-1 $18 $-1 $19 #
body $-1 $20 $-1 $21 #
body $-1 $22 $-1 $23 #
body $-1 $24 $-1 $25 #
body $-1 $26 $-1 $27 #
body $-1 $28 $-1 $29 #
body $-1 $30 $-1 $31 #
body $-1 $32 $-1 $33 #
body $-1 $34 $-1 $35 #
lump $-1 $-1 $36 $0 #
transform $-1 1 0 0 0 1 0 0 0 1 63.284401989806817 37.441259358946311 12.429647974507342 1 rotate no_reflect no_shear #
lump $-1 $-1 $37 $1 #
transform $-1 1 0 0 0 1 0 0 0 1 63.284401989806817 37.441259358946311 12.429647974507342 1 rotate no_reflect no_shear #
lump $-1 $-1 $38 $2 #
transform $-1 1 0 0 0 1 0 0 0 1 63.284401989806817 37.441259358946311 12.429647974507342 1 rotate no_reflect no_shear #
lump $-1 $-1 $39 $3 #
transform $-1 1 0 0 0 1 0 0 0 1 63.284401989806817 37.441259358946311 12.429647974507342 1 rotate no_reflect no_shear #
lump $-1 $-1 $40 $4 #
transform $-1 1 0 0 0 1 0 0 0 1 63.284401989806817 37.441259358946311 12.429647974507342 1 rotate no_reflect no_shear #
lump $-1 $-1 $41 $5 #
transform $-1 1 0 0 0 1 0 0 0 1 63.284401989806817 37.441259358946311 12.429647974507342 1 rotate no_reflect no_shear #
lump $-1 $-1 $42 $6 #
transform $-1 1 0 0 0 1 0 0 0 1 63.284401989806817 37.441259358946311 12.429647974507342 1 rotate no_reflect no_shear #
lump $-1 $-1 $43 $7 #
transform $-1 1 0 0 0 1 0 0 0 1 63.284401989806817 37.441259358946311 12.429647974507342 1 rotate no_reflect no_shear #
lump $-1 $-1 $44 $8 #
transform $-1 1 0 0 0 1 0 0 0 1 63.284401989806817 37.441259358946311 12.429647974507342 1 rotate no_reflect no_shear #
lump $-1 $-1 $45 $9 #
transform $-1 1 0 0 0 1 0 0 0 1 63.284401989806817 37.441259358946311 12.429647974507342 1 rotate no_reflect no_shear #
lump $-1 $-1 $46 $10 #
transform $-1 1 0 0 0 1 0 0 0 1 63.284401989806817 37.441259358946311 12.429647974507342 1 rotate no_reflect no_shear #
lump $-1 $-1 $47 $11 #
transform $-1 1 0 0 0 1 0 0 0 1 63.284401989806817 37.441259358946311 12.429647974507342 1 rotate no_reflect no_shear #
shell $-1 $-1 $-1 $48 $-1 $12 #
shell $-1 $-1 $-1 $49 $-1 $14 #
shell $-1 $-1 $-1 $50 $-1 $16 #
shell $-1 $-1 $-1 $51 $-1 $18 #
shell $-1 $-1 $-1 $52 $-1 $20 #
shell $-1 $-1 $-1 $53 $-1 $22 #
shell $-1 $-1 $-1 $54 $-1 $24 #
shell $-1 $-1 $-1 $55 $-1 $26 #
shell $-1 $-1 $-1 $56 $-1 $28 #
shell $-1 $-1 $-1 $57 $-1 $30 #
shell $-1 $-1 $-1 $58 $-1 $32 #
shell $-1 $-1 $-1 $59 $-1 $34 #
face $-1 $60 $61 $36 $-1 $62 forward single #
face $-1 $63 $64 $37 $-1 $65 reversed single #
face $-1 $66 $67 $38 $-1 $68 reversed single #
face $-1 $69 $70 $39 $-1 $71 forward single #
face $-1 $72 $73 $40 $-1 $74 reversed single #
face $-1 $75 $76 $41 $-1 $77 forward single #
face $-1 $78 $79 $42 $-1 $80 forward single #
face $-1 $81 $82 $43 $-1 $83 forward single #
face $-1 $84 $85 $44 $-1 $86 reversed single #
face $-1 $87 $88 $45 $-1 $89 forward single #
face $-1 $90 $91 $46 $-1 $92 forward single #
face $-1 $93 $94 $47 $-1 $95 forward single #
face $-1 $96 $97 $36 $-1 $98 reversed single #
loop $-1 $-1 $99 $48 #
plane-surface $-1 0 0 12.429647974507342 0 0 1 1 0 0 forward_v I I I I #
face $-1 $100 $101 $37 $-1 $102 reversed single #
loop $-1 $-1 $103 $49 #
plane-surface $-1 -61.784401989806817 -28.280562902280533 0 0 -1 0 0 0 -1 forward_v I I I I #
face $-1 $104 $105 $38 $-1 $106 reversed single #
loop $-1 $-1 $107 $50 #
plane-surface $-1 -142.93673219405537 25.805950610594994 103.42618984179352 0 1 0 -0.62932039886446345 0 0.77714595512881146 forward_v I I I I #
face $-1 $108 $109 $39 $-1 $110 forward single #
loop $-1 $111 $112 $51 #
cone-surface $-1 -57.80759211903969 29.569205379650043 7.5997907939364344 0.62932039886446345 0 -0.77714595512881146 0.77714595512881146 0 0.62932039886446345 1 I I 0 1 1 forward I I I I #
face $-1 $113 $114 $40 $-1 $115 reversed single #
loop $-1 $-1 $116 $52 #
plane-surface $-1 106.58729154681524 -16.080497101745284 178.59480558429465 0 -1 0 -0.85716730853699208 0 -0.51503806187062418 forward_v I I I I #
face $-1 $117 $118 $41 $-1 $119 forward single #
loop $-1 $120 $121 $53 #
cone-surface $-1 60.526767935124674 -25.840549742173479 8.3723414552750608 -0.85716730853699208 0 -0.51503806187062418 0.51503806187062418 0 -0.85716730853699208 1 I I 0 1 1 forward I I I I #
face $-1 $122 $123 $42 $-1 $124 forward single #
loop $-1 $125 $126 $54 #
cone-surface $-1 60.526767935124674 -22.180530002012908 8.3723414552750608 -0.85716730853699208 0 -0.51503806187062418 0.51503806187062418 0 -0.85716730853699208 1 I I 0 1 1 forward I I I I #
face $-1 $127 $128 $43 $-1 $129 forward single #
loop $-1 $130 $131 $55 #
cone-surface $-1 60.526767935124674 -18.520510261852333 8.3723414552750608 -0.85716730853699208 0 -0.51503806187062418 0.51503806187062418 0 -0.85716730853699208 1 I I 0 1 1 forward I I I I #
face $-1 $132 $133 $44 $-1 $134 reversed single #
loop $-1 $-1 $135 $56 #
plane-surface $-1 106.58729154681524 16.78041402886814 178.59480558429465 0 -1 0 -0.85716730853699208 0 -0.51503806187062418 forward_v I I I I #
face $-1 $136 $137 $45 $-1 $138 forward single #
loop $-1 $139 $140 $57 #
cone-surface $-1 60.526767935124674 7.0203613884399445 8.3723414552750608 -0.85716730853699208 0 -0.51503806187062418 0.51503806187062418 0 -0.85716730853699208 1 I I 0 1 1 forward I I I I #
face $-1 $141 $142 $46 $-1 $143 forward single #
loop $-1 $144 $145 $58 #
cone-surface $-1 60.526767935124674 10.680381128600516 8.3723414552750608 -0.85716730853699208 0 -0.51503806187062418 0.51503806187062418 0 -0.85716730853699208 1 I I 0 1 1 forward I I I I #
face $-1 $146 $147 $47 $-1 $148 forward single #
loop $-1 $149 $150 $59 #
cone-surface $-1 60.526767935124674 14.340400868761094 8.3723414552750608 -0.85716730853699208 0 -0.51503806187062418 0.51503806187062418 0 -0.85716730853699208 1 I I 0 1 1 forward I I I I #
face $-1 $151 $152 $36 $-1 $153 reversed single #
loop $-1 $-1 $154 $60 #
plane-surface $-1 0 0 -12.429647974507342 0 0 1 1 0 0 forward_v I I I I #
coedge $-1 $155 $156 $157 $158 forward $61 $-1 #
face $-1 $159 $160 $37 $-1 $161 forward single #
loop $-1 $-1 $162 $63 #
plane-surface $-1 -60.284401989806817 -32.860911130613424 0 -1 0 0 0 0 1 forward_v I I I I #
coedge $-1 $163 $164 $165 $166 forward $64 $-1 #
face $-1 $167 $168 $38 $-1 $169 reversed single #
loop $-1 $-1 $170 $66 #
plane-surface $-1 -63.284401989806824 29.569205379650043 5.0637557835453606 -0.62932039886446345 0 0.77714595512881146 0.77714595512881146 0 0.62932039886446345 forward_v I I I I #
coedge $-1 $171 $172 $173 $174 reversed $67 $-1 #
face $-1 $-1 $175 $39 $-1 $176 forward single #
loop $-1 $177 $178 $69 #
cone-surface $-1 -56.564181616311814 29.569205379650043 6.0643067312821071 0.62932039886446345 0 -0.77714595512881146 0.38857297756440573 0 0.31466019943223172 1 I I -0.70710678118654746 0.70710678118654746 0.5 forward I I I I #
loop $-1 $-1 $179 $51 #
coedge $-1 $112 $112 $180 $181 reversed $70 $-1 #
face $-1 $182 $183 $40 $-1 $184 reversed single #
loop $-1 $-1 $185 $72 #
plane-surface $-1 -1.903349505136319 -22.180530002012908 113.40705408935149 0.85716730853699208 0 0.51503806187062418 0.51503806187062418 0 -0.85716730853699208 forward_v I I I I #
coedge $-1 $186 $187 $188 $189 reversed $73 $-1 #
face $-1 $-1 $190 $41 $-1 $191 forward single #
loop $-1 $192 $193 $75 #
cone-surface $-1 59.597753646000605 -25.840549742173479 7.8141333736611696 -0.85716730853699208 0 -0.51503806187062418 0.25751903093531209 0 -0.42858365426849604 1 I I -0.70710678118654691 0.70710678118654813 0.5 forward I I I I #
loop $-1 $-1 $194 $53 #
coedge $-1 $121 $121 $195 $196 reversed $76 $-1 #
face $-1 $-1 $197 $42 $-1 $198 forward single #
loop $-1 $199 $200 $78 #
cone-surface $-1 59.597753646000605 -22.180530002012908 7.8141333736611696 -0.85716730853699208 0 -0.51503806187062418 0.25751903093531209 0 -0.42858365426849604 1 I I -0.70710678118654691 0.70710678118654813 0.5 forward I I I I #
loop $-1 $-1 $201 $54 #
coedge $-1 $126 $126 $202 $203 reversed $79 $-1 #
face $-1 $-1 $204 $43 $-1 $205 forward single #
loop $-1 $206 $207 $81 #
cone-surface $-1 59.597753646000605 -18.520510261852333 7.8141333736611696 -0.85716730853699208 0 -0.51503806187062418 0.25751903093531209 0 -0.42858365426849604 1 I I -0.70710678118654691 0.70710678118654813 0.5 forward I I I I #
loop $-1 $-1 $208 $55 #
coedge $-1 $131 $131 $209 $210 reversed $82 $-1 #
face $-1 $211 $212 $44 $-1 $213 reversed single #
loop $-1 $-1 $214 $84 #
plane-surface $-1 -1.903349505136319 10.680381128600516 113.40705408935149 0.85716730853699208 0 0.51503806187062418 0.51503806187062418 0 -0.85716730853699208 forward_v I I I I #
coedge $-1 $215 $216 $217 $218 reversed $85 $-1 #
face $-1 $-1 $219 $45 $-1 $220 forward single #
loop $-1 $221 $222 $87 #
cone-surface $-1 59.597753646000605 7.0203613884399445 7.8141333736611696 -0.85716730853699208 0 -0.51503806187062418 0.25751903093531209 0 -0.42858365426849604 1 I I -0.70710678118654691 0.70710678118654813 0.5 forward I I I I #
loop $-1 $-1 $223 $57 #
coedge $-1 $140 $140 $224 $225 reversed $88 $-1 #
face $-1 $-1 $226 $46 $-1 $227 forward single #
loop $-1 $228 $229 $90 #
cone-surface $-1 59.597753646000605 10.680381128600516 7.8141333736611696 -0.85716730853699208 0 -0.51503806187062418 0.25751903093531209 0 -0.42858365426849604 1 I I -0.70710678118654691 0.70710678118654813 0.5 forward I I I I #
loop $-1 $-1 $230 $58 #
coedge $-1 $145 $145 $231 $232 reversed $91 $-1 #
face $-1 $-1 $233 $47 $-1 $234 forward single #
loop $-1 $235 $236 $93 #
cone-surface $-1 59.597753646000605 14.340400868761094 7.8141333736611696 -0.85716730853699208 0 -0.51503806187062418 0.25751903093531209 0 -0.42858365426849604 1 I I -0.70710678118654691 0.70710678118654813 0.5 forward I I I I #
loop $-1 $-1 $237 $59 #
coedge $-1 $150 $150 $238 $239 reversed $94 $-1 #
face $-1 $240 $241 $36 $-1 $242 reversed single #
loop $-1 $-1 $243 $96 #
plane-surface $-1 0 -37.441259358946311 0 0 1 0 0 0 1 forward_v I I I I #
coedge $-1 $244 $245 $246 $247 forward $97 $-1 #
coedge $-1 $248 $99 $249 $250 forward $61 $-1 #
coedge $-1 $99 $248 $251 $252 forward $61 $-1 #
coedge $-1 $253 $254 $99 $158 reversed $255 $-1 #
edge $-1 $256 -37.441259358946311 $257 37.441259358946311 $157 $258 forward 7 unknown #
face $-1 $259 $260 $37 $-1 $261 reversed single #
loop $-1 $-1 $262 $100 #
plane-surface $-1 0 0 12.429647974507342 0 0 1 1 0 0 forward_v I I I I #
coedge $-1 $263 $264 $265 $266 reversed $101 $-1 #
coedge $-1 $267 $103 $268 $269 reversed $64 $-1 #
coedge $-1 $103 $267 $270 $271 reversed $64 $-1 #
coedge $-1 $264 $263 $103 $166 reversed $101 $-1 #
edge $-1 $272 -12.429647974507342 $273 12.429647974507342 $165 $274 forward 7 unknown #
face $-1 $275 $276 $38 $-1 $277 reversed single #
loop $-1 $-1 $278 $104 #
plane-surface $-1 -142.93673219405537 33.332460148705096 103.42618984179352 0 -1 0 0.62932039886446345 0 -0.77714595512881146 forward_v I I I I #
coedge $-1 $279 $280 $281 $282 reversed $105 $-1 #
coedge $-1 $172 $107 $283 $284 reversed $67 $-1 #
coedge $-1 $107 $171 $279 $285 reversed $67 $-1 #
coedge $-1 $281 $286 $107 $174 forward $287 $-1 #
edge $-1 $288 8.1839641072208664 $289 17.280083242163855 $173 $290 forward 7 unknown #
loop $-1 $-1 $180 $108 #
plane-surface $-1 -63.284401989806824 29.569205379650043 5.0637557835453606 -0.62932039886446345 0 0.77714595512881146 0.77714595512881146 0 0.62932039886446345 forward_v I I I I #
loop $-1 $-1 $291 $69 #
coedge $-1 $178 $178 $179 $292 reversed $109 $-1 #
coedge $-1 $179 $179 $178 $292 forward $111 $-1 #
coedge $-1 $180 $180 $112 $181 forward $175 $-1 #
edge $-1 $293 0 $293 6.2831853071796004 $180 $294 forward 7 unknown #
face $-1 $295 $296 $40 $-1 $297 forward single #
loop $-1 $-1 $298 $113 #
plane-surface $-1 106.58729154681524 -28.280562902280533 178.59480558429465 0 1 0 0.85716730853699208 0 0.51503806187062418 forward_v I I I I #
coedge $-1 $299 $300 $301 $302 reversed $114 $-1 #
coedge $-1 $187 $116 $303 $304 reversed $73 $-1 #
coedge $-1 $116 $186 $299 $305 reversed $73 $-1 #
coedge $-1 $301 $306 $116 $189 forward $296 $-1 #
edge $-1 $307 -9.9907562163991983 $308 -5.4763493767460929 $188 $309 forward 7 unknown #
loop $-1 $-1 $195 $117 #
plane-surface $-1 -1.903349505136319 -22.180530002012908 113.40705408935149 0.85716730853699208 0 0.51503806187062418 0.51503806187062418 0 -0.85716730853699208 forward_v I I I I #
loop $-1 $-1 $310 $75 #
coedge $-1 $193 $193 $194 $311 reversed $118 $-1 #
coedge $-1 $194 $194 $193 $311 forward $120 $-1 #
coedge $-1 $195 $195 $121 $196 forward $190 $-1 #
edge $-1 $312 0 $312 6.2831853071796004 $195 $313 forward 7 unknown #
loop $-1 $-1 $202 $122 #
plane-surface $-1 -1.903349505136319 -22.180530002012908 113.40705408935149 0.85716730853699208 0 0.51503806187062418 0.51503806187062418 0 -0.85716730853699208 forward_v I I I I #
loop $-1 $-1 $314 $78 #
coedge $-1 $200 $200 $201 $315 reversed $123 $-1 #
coedge $-1 $201 $201 $200 $315 forward $125 $-1 #
coedge $-1 $202 $202 $126 $203 forward $197 $-1 #
edge $-1 $316 0 $316 6.2831853071796004 $202 $317 forward 7 unknown #
loop $-1 $-1 $209 $127 #
plane-surface $-1 -1.903349505136319 -22.180530002012908 113.40705408935149 0.85716730853699208 0 0.51503806187062418 0.51503806187062418 0 -0.85716730853699208 forward_v I I I I #
loop $-1 $-1 $318 $81 #
coedge $-1 $207 $207 $208 $319 reversed $128 $-1 #
coedge $-1 $208 $208 $207 $319 forward $130 $-1 #
coedge $-1 $209 $209 $131 $210 forward $204 $-1 #
edge $-1 $320 0 $320 6.2831853071796004 $209 $321 forward 7 unknown #
face $-1 $322 $323 $44 $-1 $324 reversed single #
loop $-1 $-1 $325 $132 #
plane-surface $-1 106.58729154681524 4.580348228332892 178.59480558429465 0 1 0 0.85716730853699208 0 0.51503806187062418 forward_v I I I I #
coedge $-1 $326 $327 $328 $329 reversed $133 $-1 #
coedge $-1 $216 $135 $330 $331 reversed $85 $-1 #
coedge $-1 $135 $215 $326 $332 reversed $85 $-1 #
coedge $-1 $328 $333 $135 $218 forward $334 $-1 #
edge $-1 $335 -9.9907562163991983 $336 -5.4763493767460929 $217 $337 forward 7 unknown #
loop $-1 $-1 $224 $136 #
plane-surface $-1 -1.903349505136319 10.680381128600516 113.40705408935149 0.85716730853699208 0 0.51503806187062418 0.51503806187062418 0 -0.85716730853699208 forward_v I I I I #
loop $-1 $-1 $338 $87 #
coedge $-1 $222 $222 $223 $339 reversed $137 $-1 #
coedge $-1 $223 $223 $222 $339 forward $139 $-1 #
coedge $-1 $224 $224 $140 $225 forward $219 $-1 #
edge $-1 $340 0 $340 6.2831853071796004 $224 $341 forward 7 unknown #
loop $-1 $-1 $231 $141 #
plane-surface $-1 -1.903349505136319 10.680381128600516 113.40705408935149 0.85716730853699208 0 0.51503806187062418 0.51503806187062418 0 -0.85716730853699208 forward_v I I I I #
loop $-1 $-1 $342 $90 #
coedge $-1 $229 $229 $230 $343 reversed $142 $-1 #
coedge $-1 $230 $230 $229 $343 forward $144 $-1 #
coedge $-1 $231 $231 $145 $232 forward $226 $-1 #
edge $-1 $344 0 $344 6.2831853071796004 $231 $345 forward 7 unknown #
loop $-1 $-1 $238 $146 #
plane-surface $-1 -1.903349505136319 10.680381128600516 113.40705408935149 0.85716730853699208 0 0.51503806187062418 0.51503806187062418 0 -0.85716730853699208 forward_v I I I I #
loop $-1 $-1 $346 $93 #
coedge $-1 $236 $236 $237 $347 reversed $147 $-1 #
coedge $-1 $237 $237 $236 $347 forward $149 $-1 #
coedge $-1 $238 $238 $150 $239 forward $233 $-1 #
edge $-1 $348 0 $348 6.2831853071796004 $238 $349 forward 7 unknown #
face $-1 $350 $351 $36 $-1 $352 reversed single #
loop $-1 $-1 $353 $151 #
plane-surface $-1 -63.284401989806817 0 0 1 0 0 0 0 -1 forward_v I I I I #
coedge $-1 $354 $251 $355 $356 forward $152 $-1 #
coedge $-1 $357 $154 $354 $358 forward $97 $-1 #
coedge $-1 $154 $357 $359 $360 forward $97 $-1 #
coedge $-1 $254 $253 $154 $247 reversed $255 $-1 #
edge $-1 $361 -37.441259358946311 $362 37.441259358946311 $246 $363 forward 7 unknown #
coedge $-1 $156 $155 $364 $365 forward $61 $-1 #
coedge $-1 $366 $367 $155 $250 reversed $351 $-1 #
edge $-1 $257 -63.284401989806817 $368 63.284401989806817 $249 $369 forward 7 unknown #
coedge $-1 $243 $370 $156 $252 reversed $152 $-1 #
edge $-1 $371 -63.284401989806817 $256 63.284401989806817 $251 $372 forward 7 unknown #
coedge $-1 $246 $157 $370 $373 forward $255 $-1 #
coedge $-1 $157 $246 $366 $374 reversed $255 $-1 #
loop $-1 $-1 $253 $350 #
vertex $-1 $158 $375 #
vertex $-1 $158 $376 #
straight-curve $-1 63.284401989806817 0 12.429647974507342 0 1 0 I I #
face $-1 $377 $378 $37 $-1 $379 reversed single #
loop $-1 $-1 $380 $159 #
plane-surface $-1 -63.284401989806817 0 0 1 0 0 0 0 -1 forward_v I I I I #
coedge $-1 $270 $381 $264 $382 forward $160 $-1 #
coedge $-1 $165 $162 $383 $384 reversed $101 $-1 #
coedge $-1 $162 $165 $262 $382 reversed $101 $-1 #
coedge $-1 $385 $386 $162 $266 forward $387 $-1 #
edge $-1 $388 -12.429647974507342 $389 12.429647974507342 $265 $390 forward 7 unknown #
coedge $-1 $164 $163 $380 $391 reversed $64 $-1 #
coedge $-1 $383 $392 $163 $269 forward $378 $-1 #
edge $-1 $393 -32.392200994903405 $273 -29.392200994903408 $268 $394 forward 7 unknown #
coedge $-1 $395 $262 $164 $271 forward $160 $-1 #
edge $-1 $272 29.392200994903408 $396 32.392200994903405 $270 $397 forward 7 unknown #
vertex $-1 $271 $398 #
vertex $-1 $269 $399 #
straight-curve $-1 -60.284401989806817 -28.280562902280533 0 0 0 -1 I I #
face $-1 $-1 $287 $38 $-1 $400 forward single #
loop $-1 $-1 $401 $167 #
plane-surface $-1 -63.284401989806817 0 0 1 0 0 0 0 -1 forward_v I I I I #
coedge $-1 $402 $403 $404 $405 reversed $168 $-1 #
coedge $-1 $406 $170 $172 $285 forward $105 $-1 #
coedge $-1 $170 $406 $402 $407 forward $105 $-1 #
coedge $-1 $404 $173 $170 $282 forward $287 $-1 #
edge $-1 $289 11.021347920769973 $408 18.547857458880074 $281 $409 forward 7 unknown #
coedge $-1 $410 $411 $171 $284 forward $276 $-1 #
edge $-1 $412 -46.64933913735139 $288 -39.283446946389418 $283 $413 forward 7 unknown #
edge $-1 $289 -11.704518404699563 $412 -8.8756469145121664e-015 $172 $414 forward 7 unknown #
coedge $-1 $173 $404 $410 $415 forward $287 $-1 #
loop $-1 $-1 $404 $275 #
vertex $-1 $284 $416 #
vertex $-1 $174 $417 #
straight-curve $-1 -71.468366097027683 25.805950610594994 12.42964797450734 1 0 0 I I #
coedge $-1 $291 $291 $-1 $418 reversed $177 $-1 #
edge $-1 $419 0 $419 6.2831853071796004 $178 $420 forward 7 unknown #
vertex $-1 $181 $421 #
ellipse-curve $-1 -58.736342422335326 29.569205379650043 8.746701879026352 -0.62932039886446345 0 0.77714595512881146 0.77714595512881146 0 0.62932039886446345 1 I I #
face $-1 $-1 $422 $40 $-1 $423 reversed single #
loop $-1 $-1 $188 $182 #
plane-surface $-1 0 0 12.429647974507342 0 0 1 1 0 0 forward_v I I I I #
coedge $-1 $424 $425 $426 $427 reversed $183 $-1 #
coedge $-1 $428 $185 $187 $305 forward $114 $-1 #
coedge $-1 $185 $428 $424 $429 forward $114 $-1 #
coedge $-1 $426 $188 $185 $302 forward $296 $-1 #
edge $-1 $308 4.9902321007388295 $430 17.190297901274079 $301 $431 forward 7 unknown #
coedge $-1 $432 $433 $186 $304 forward $422 $-1 #
edge $-1 $434 -84.380989754747361 $307 -76.867754817639977 $303 $435 forward 7 unknown #
edge $-1 $308 117.80361326097676 $434 126.56880397961363 $187 $436 forward 7 unknown #
coedge $-1 $188 $426 $432 $437 forward $296 $-1 #
vertex $-1 $189 $438 #
vertex $-1 $189 $439 #
straight-curve $-1 53.293645773407619 -16.080497101745284 12.429647974507347 -1 0 0 I I #
coedge $-1 $310 $310 $-1 $440 reversed $192 $-1 #
edge $-1 $441 0 $441 6.2831853071796004 $193 $442 forward 7 unknown #
vertex $-1 $196 $443 #
ellipse-curve $-1 61.027198569980264 -25.840549742173479 8.6730305059536512 0.85716730853699208 0 0.51503806187062418 0.51503806187062418 0 -0.85716730853699208 1 I I #
coedge $-1 $314 $314 $-1 $444 reversed $199 $-1 #
edge $-1 $445 0 $445 6.2831853071796004 $200 $446 forward 7 unknown #
vertex $-1 $203 $447 #
ellipse-curve $-1 61.027198569980264 -22.180530002012908 8.6730305059536512 0.85716730853699208 0 0.51503806187062418 0.51503806187062418 0 -0.85716730853699208 1 I I #
coedge $-1 $318 $318 $-1 $448 reversed $206 $-1 #
edge $-1 $449 0 $449 6.2831853071796004 $207 $450 forward 7 unknown #
vertex $-1 $210 $451 #
ellipse-curve $-1 61.027198569980264 -18.520510261852333 8.6730305059536512 0.85716730853699208 0 0.51503806187062418 0.51503806187062418 0 -0.85716730853699208 1 I I #
face $-1 $-1 $334 $44 $-1 $452 forward single #
loop $-1 $-1 $453 $211 #
plane-surface $-1 63.284401989806817 0 0 -1 0 0 0 0 1 forward_v I I I I #
coedge $-1 $454 $455 $456 $457 reversed $212 $-1 #
coedge $-1 $458 $214 $216 $332 forward $133 $-1 #
coedge $-1 $214 $458 $454 $459 forward $133 $-1 #
coedge $-1 $456 $217 $214 $329 forward $334 $-1 #
edge $-1 $336 -11.440223464567882 $460 0.75984233596736583 $328 $461 forward 7 unknown #
coedge $-1 $462 $463 $215 $331 forward $323 $-1 #
edge $-1 $464 -84.380989754747361 $335 -76.867754817639977 $330 $465 forward 7 unknown #
edge $-1 $336 117.80361326097676 $464 126.56880397961363 $216 $466 forward 7 unknown #
coedge $-1 $217 $456 $462 $467 forward $334 $-1 #
loop $-1 $-1 $456 $322 #
vertex $-1 $331 $468 #
vertex $-1 $218 $469 #
straight-curve $-1 53.293645773407619 16.78041402886814 12.429647974507347 -1 0 0 I I #
coedge $-1 $338 $338 $-1 $470 reversed $221 $-1 #
edge $-1 $471 0 $471 6.2831853071796004 $222 $472 forward 7 unknown #
vertex $-1 $225 $473 #
ellipse-curve $-1 61.027198569980264 7.0203613884399445 8.6730305059536512 0.85716730853699208 0 0.51503806187062418 0.51503806187062418 0 -0.85716730853699208 1 I I #
coedge $-1 $342 $342 $-1 $474 reversed $228 $-1 #
edge $-1 $475 0 $475 6.2831853071796004 $229 $476 forward 7 unknown #
vertex $-1 $232 $477 #
ellipse-curve $-1 61.027198569980264 10.680381128600516 8.6730305059536512 0.85716730853699208 0 0.51503806187062418 0.51503806187062418 0 -0.85716730853699208 1 I I #
coedge $-1 $346 $346 $-1 $478 reversed $235 $-1 #
edge $-1 $479 0 $479 6.2831853071796004 $236 $480 forward 7 unknown #
vertex $-1 $239 $481 #
ellipse-curve $-1 61.027198569980264 14.340400868761094 8.6730305059536512 0.85716730853699208 0 0.51503806187062418 0.51503806187062418 0 -0.85716730853699208 1 I I #
face $-1 $-1 $255 $36 $-1 $482 reversed single #
loop $-1 $-1 $366 $240 #
plane-surface $-1 0 37.441259358946311 0 0 -1 0 0 0 -1 forward_v I I I I #
coedge $-1 $483 $364 $367 $484 forward $241 $-1 #
coedge $-1 $370 $243 $244 $358 reversed $152 $-1 #
coedge $-1 $364 $483 $243 $356 reversed $241 $-1 #
edge $-1 $371 -12.429647974507342 $485 12.429647974507342 $355 $486 forward 7 unknown #
coedge $-1 $245 $244 $483 $487 forward $97 $-1 #
edge $-1 $362 -63.284401989806817 $485 63.284401989806817 $354 $488 forward 7 unknown #
coedge $-1 $367 $366 $245 $360 reversed $351 $-1 #
edge $-1 $489 -63.284401989806817 $361 63.284401989806817 $359 $490 forward 7 unknown #
vertex $-1 $247 $491 #
vertex $-1 $373 $492 #
straight-curve $-1 63.284401989806817 0 -12.429647974507342 0 -1 0 I I #
coedge $-1 $353 $355 $248 $365 reversed $241 $-1 #
edge $-1 $368 -37.441259358946311 $371 37.441259358946311 $364 $493 forward 7 unknown #
coedge $-1 $359 $249 $254 $374 forward $351 $-1 #
coedge $-1 $249 $359 $353 $484 reversed $351 $-1 #
vertex $-1 $250 $494 #
straight-curve $-1 0 37.441259358946311 12.429647974507342 -1 0 0 I I #
coedge $-1 $251 $354 $253 $373 reversed $152 $-1 #
vertex $-1 $365 $495 #
straight-curve $-1 0 -37.441259358946311 12.429647974507342 1 0 0 I I #
edge $-1 $256 -12.429647974507342 $362 12.429647974507342 $253 $496 forward 7 unknown #
edge $-1 $257 -12.429647974507342 $361 12.429647974507342 $254 $497 forward 7 unknown #
point $-1 63.284401989806817 -37.441259358946311 12.429647974507342 #
point $-1 63.284401989806817 37.441259358946311 12.429647974507342 #
face $-1 $-1 $387 $37 $-1 $498 reversed single #
loop $-1 $-1 $383 $259 #
plane-surface $-1 0 0 -12.429647974507342 0 0 1 1 0 0 forward_v I I I I #
coedge $-1 $499 $500 $267 $391 forward $260 $-1 #
coedge $-1 $262 $395 $385 $501 forward $160 $-1 #
edge $-1 $389 -21.010803793639599 $272 -11.850107336973821 $262 $502 forward 7 unknown #
coedge $-1 $503 $268 $263 $384 forward $378 $-1 #
edge $-1 $273 11.850107336973821 $388 21.010803793639599 $383 $504 forward 7 unknown #
coedge $-1 $505 $265 $381 $501 reversed $387 $-1 #
coedge $-1 $265 $505 $503 $506 reversed $387 $-1 #
loop $-1 $-1 $265 $377 #
vertex $-1 $506 $507 #
vertex $-1 $266 $508 #
straight-curve $-1 -60.284401989806817 -37.441259358946311 0 0 0 1 I I #
edge $-1 $396 -12.429647974507342 $393 12.429647974507342 $380 $509 forward 7 unknown #
coedge $-1 $268 $503 $499 $510 forward $378 $-1 #
vertex $-1 $269 $511 #
straight-curve $-1 -30.892200994903408 -28.280562902280533 -12.429647974507342 1 0 0 I I #
coedge $-1 $381 $270 $500 $512 forward $160 $-1 #
vertex $-1 $512 $513 #
straight-curve $-1 -30.892200994903408 -28.280562902280533 12.429647974507342 -1 0 0 I I #
point $-1 -60.284401989806817 -28.280562902280533 12.429647974507342 #
point $-1 -60.284401989806817 -28.280562902280533 -12.429647974507342 #
plane-surface $-1 0 0 12.429647974507342 0 0 1 1 0 0 forward_v I I I I #
coedge $-1 $411 $410 $403 $514 forward $276 $-1 #
coedge $-1 $403 $278 $280 $407 reversed $168 $-1 #
coedge $-1 $278 $402 $401 $514 reversed $168 $-1 #
coedge $-1 $286 $281 $278 $405 forward $287 $-1 #
edge $-1 $408 -17.280083242163855 $515 -8.1839641072208664 $404 $516 forward 7 unknown #
coedge $-1 $280 $279 $411 $517 reversed $105 $-1 #
edge $-1 $518 8.8756469145121664e-015 $408 11.704518404699563 $402 $519 forward 7 unknown #
vertex $-1 $282 $520 #
straight-curve $-1 -54.188282854863822 14.784602689825022 12.42964797450734 0 1 0 I I #
coedge $-1 $401 $283 $286 $415 reversed $276 $-1 #
coedge $-1 $283 $401 $406 $517 forward $276 $-1 #
vertex $-1 $284 $521 #
straight-curve $-1 -63.284401989806817 25.805950610594994 51.713094920896758 0 0 1 I I #
straight-curve $-1 -63.284401989806824 25.805950610594994 5.0637557835453606 -0.77714595512881146 0 -0.62932039886446345 I I #
edge $-1 $515 -33.332460148705096 $288 -25.805950610594994 $410 $522 forward 7 unknown #
point $-1 -63.284401989806817 25.805950610594994 12.429647974507342 #
point $-1 -54.188282854863829 25.805950610594994 12.429647974507342 #
edge $-1 $523 1 $523 0 $291 $-1 forward 7 unknown #
vertex $-1 $292 $524 #
ellipse-curve $-1 -56.878841815744046 29.569205379650043 6.4528797088465124 -0.62932039886446345 0 0.77714595512881146 0.77714595512881146 0 0.62932039886446345 1 I I #
point $-1 -57.959196467206517 29.569205379650043 9.3760222778908204 #
loop $-1 $-1 $303 $295 #
plane-surface $-1 63.284401989806817 0 0 -1 0 0 0 0 1 forward_v I I I I #
coedge $-1 $425 $298 $300 $429 reversed $183 $-1 #
coedge $-1 $298 $424 $525 $526 reversed $183 $-1 #
coedge $-1 $306 $301 $298 $427 forward $296 $-1 #
edge $-1 $430 5.4763493767460929 $527 9.9907562163991983 $426 $528 forward 7 unknown #
coedge $-1 $300 $299 $433 $529 reversed $114 $-1 #
edge $-1 $530 -126.56880397961363 $430 -117.80361326097676 $424 $531 forward 7 unknown #
vertex $-1 $302 $532 #
straight-curve $-1 58.769995150153704 -11.090265001006454 12.42964797450734 0 -1 0 I I #
coedge $-1 $525 $303 $306 $437 reversed $422 $-1 #
coedge $-1 $303 $525 $428 $529 forward $422 $-1 #
vertex $-1 $304 $533 #
straight-curve $-1 63.284401989806817 -16.080497101745284 89.297402792147324 0 0 1 I I #
straight-curve $-1 -1.903349505136319 -16.080497101745284 113.40705408935149 0.51503806187062418 0 -0.85716730853699208 I I #
edge $-1 $527 -28.280562902280533 $307 -16.080497101745284 $432 $534 forward 7 unknown #
point $-1 63.284401989806817 -16.080497101745284 12.429647974507342 #
point $-1 58.769995150153711 -16.080497101745284 12.429647974507347 #
edge $-1 $535 1 $535 0 $310 $-1 forward 7 unknown #
vertex $-1 $311 $536 #
ellipse-curve $-1 60.026337300269098 -25.840549742173479 8.0716524045964828 0.85716730853699208 0 0.51503806187062418 0.51503806187062418 0 -0.85716730853699208 1 I I #
point $-1 61.542236631850876 -25.840549742173479 7.8158631974166486 #
edge $-1 $537 1 $537 0 $314 $-1 forward 7 unknown #
vertex $-1 $315 $538 #
ellipse-curve $-1 60.026337300269098 -22.180530002012908 8.0716524045964828 0.85716730853699208 0 0.51503806187062418 0.51503806187062418 0 -0.85716730853699208 1 I I #
point $-1 61.542236631850876 -22.180530002012908 7.8158631974166486 #
edge $-1 $539 1 $539 0 $318 $-1 forward 7 unknown #
vertex $-1 $319 $540 #
ellipse-curve $-1 60.026337300269098 -18.520510261852333 8.0716524045964828 0.85716730853699208 0 0.51503806187062418 0.51503806187062418 0 -0.85716730853699208 1 I I #
point $-1 61.542236631850876 -18.520510261852333 7.8158631974166486 #
plane-surface $-1 0 0 12.429647974507342 0 0 1 1 0 0 forward_v I I I I #
coedge $-1 $463 $462 $455 $541 forward $323 $-1 #
coedge $-1 $455 $325 $327 $459 reversed $212 $-1 #
coedge $-1 $325 $454 $453 $541 reversed $212 $-1 #
coedge $-1 $333 $328 $325 $457 forward $334 $-1 #
edge $-1 $460 5.4763493767460929 $542 9.9907562163991983 $456 $543 forward 7 unknown #
coedge $-1 $327 $326 $463 $544 reversed $133 $-1 #
edge $-1 $545 -126.56880397961363 $460 -117.80361326097676 $454 $546 forward 7 unknown #
vertex $-1 $329 $547 #
straight-curve $-1 58.769995150153704 5.3401905643002578 12.42964797450734 0 -1 0 I I #
coedge $-1 $453 $330 $333 $467 reversed $323 $-1 #
coedge $-1 $330 $453 $458 $544 forward $323 $-1 #
vertex $-1 $331 $548 #
straight-curve $-1 63.284401989806817 16.78041402886814 89.297402792147324 0 0 1 I I #
straight-curve $-1 -1.903349505136319 16.78041402886814 113.40705408935149 0.51503806187062418 0 -0.85716730853699208 I I #
edge $-1 $542 4.580348228332892 $335 16.78041402886814 $462 $549 forward 7 unknown #
point $-1 63.284401989806817 16.78041402886814 12.429647974507342 #
point $-1 58.769995150153711 16.78041402886814 12.429647974507347 #
edge $-1 $550 1 $550 0 $338 $-1 forward 7 unknown #
vertex $-1 $339 $551 #
ellipse-curve $-1 60.026337300269098 7.0203613884399445 8.0716524045964828 0.85716730853699208 0 0.51503806187062418 0.51503806187062418 0 -0.85716730853699208 1 I I #
point $-1 61.542236631850876 7.0203613884399445 7.8158631974166486 #
edge $-1 $552 1 $552 0 $342 $-1 forward 7 unknown #
vertex $-1 $343 $553 #
ellipse-curve $-1 60.026337300269098 10.680381128600516 8.0716524045964828 0.85716730853699208 0 0.51503806187062418 0.51503806187062418 0 -0.85716730853699208 1 I I #
point $-1 61.542236631850876 10.680381128600516 7.8158631974166486 #
edge $-1 $554 1 $554 0 $346 $-1 forward 7 unknown #
vertex $-1 $347 $555 #
ellipse-curve $-1 60.026337300269098 14.340400868761094 8.0716524045964828 0.85716730853699208 0 0.51503806187062418 0.51503806187062418 0 -0.85716730853699208 1 I I #
point $-1 61.542236631850876 14.340400868761094 7.8158631974166486 #
plane-surface $-1 63.284401989806817 0 0 -1 0 0 0 0 1 forward_v I I I I #
coedge $-1 $355 $353 $357 $487 reversed $241 $-1 #
edge $-1 $368 -12.429647974507342 $489 12.429647974507342 $367 $556 forward 7 unknown #
vertex $-1 $487 $557 #
straight-curve $-1 -63.284401989806817 -37.441259358946311 0 0 0 -1 I I #
edge $-1 $485 -37.441259358946311 $489 37.441259358946311 $483 $558 forward 7 unknown #
straight-curve $-1 0 -37.441259358946311 -12.429647974507342 -1 0 0 I I #
vertex $-1 $360 $559 #
straight-curve $-1 0 37.441259358946311 -12.429647974507342 1 0 0 I I #
point $-1 63.284401989806817 37.441259358946311 -12.429647974507342 #
point $-1 63.284401989806817 -37.441259358946311 -12.429647974507342 #
straight-curve $-1 -63.284401989806817 0 12.429647974507342 0 -1 0 I I #
point $-1 -63.284401989806817 37.441259358946311 12.429647974507342 #
point $-1 -63.284401989806817 -37.441259358946311 12.429647974507342 #
straight-curve $-1 63.284401989806817 -37.441259358946311 0 0 0 -1 I I #
straight-curve $-1 63.284401989806817 37.441259358946311 0 0 0 -1 I I #
plane-surface $-1 0 -37.441259358946311 0 0 1 0 0 0 1 forward_v I I I I #
coedge $-1 $560 $380 $392 $510 reversed $260 $-1 #
coedge $-1 $380 $560 $395 $512 reversed $260 $-1 #
edge $-1 $561 -63.284401989806817 $389 -60.284401989806817 $385 $562 forward 7 unknown #
straight-curve $-1 -60.284401989806817 -16.430455565306712 12.429647974507342 0 1 0 I I #
coedge $-1 $392 $383 $386 $506 forward $378 $-1 #
straight-curve $-1 -60.284401989806817 -16.430455565306712 -12.429647974507342 0 -1 0 I I #
coedge $-1 $386 $385 $560 $563 forward $387 $-1 #
edge $-1 $388 60.284401989806817 $564 63.284401989806817 $386 $565 forward 7 unknown #
point $-1 -60.284401989806817 -37.441259358946311 -12.429647974507342 #
point $-1 -60.284401989806817 -37.441259358946311 12.429647974507342 #
straight-curve $-1 -63.284401989806817 -28.280562902280533 0 0 0 -1 I I #
edge $-1 $564 -37.441259358946311 $393 -28.280562902280533 $499 $566 forward 7 unknown #
point $-1 -63.284401989806817 -28.280562902280533 -12.429647974507342 #
edge $-1 $396 28.280562902280533 $561 37.441259358946311 $500 $567 forward 7 unknown #
point $-1 -63.284401989806817 -28.280562902280533 12.429647974507342 #
edge $-1 $515 39.283446946389418 $518 46.64933913735139 $401 $568 forward 7 unknown #
vertex $-1 $415 $569 #
straight-curve $-1 -71.468366097027683 33.332460148705096 12.42964797450734 -1 0 0 I I #
edge $-1 $518 -18.547857458880074 $412 -11.021347920769973 $411 $570 forward 7 unknown #
vertex $-1 $517 $571 #
straight-curve $-1 -63.284401989806824 33.332460148705096 5.0637557835453606 0.77714595512881146 0 0.62932039886446345 I I #
point $-1 -54.188282854863829 33.332460148705096 12.429647974507342 #
point $-1 -63.284401989806817 25.805950610594994 5.0637557835453659 #
straight-curve $-1 -63.284401989806817 0 12.429647974507342 0 -1 0 I I #
vertex $-1 $418 $572 #
point $-1 -56.101695860615237 29.569205379650043 7.0822001077109764 #
coedge $-1 $433 $432 $425 $526 forward $422 $-1 #
edge $-1 $527 76.867754817639977 $530 84.380989754747361 $525 $573 forward 7 unknown #
vertex $-1 $437 $574 #
straight-curve $-1 53.293645773407619 -28.280562902280533 12.429647974507347 1 0 0 I I #
edge $-1 $530 -17.190297901274079 $434 -4.9902321007388295 $433 $575 forward 7 unknown #
vertex $-1 $529 $576 #
straight-curve $-1 -1.903349505136319 -28.280562902280533 113.40705408935149 -0.51503806187062418 0 0.85716730853699208 I I #
point $-1 58.769995150153711 -28.280562902280533 12.429647974507347 #
point $-1 63.284401989806824 -16.080497101745284 4.9164130373999626 #
straight-curve $-1 63.284401989806817 0 12.429647974507342 0 1 0 I I #
vertex $-1 $440 $577 #
point $-1 60.541375362139725 -25.840549742173479 7.21448509605949 #
vertex $-1 $444 $578 #
point $-1 60.541375362139725 -22.180530002012908 7.21448509605949 #
vertex $-1 $448 $579 #
point $-1 60.541375362139725 -18.520510261852333 7.21448509605949 #
edge $-1 $542 76.867754817639977 $545 84.380989754747361 $453 $580 forward 7 unknown #
vertex $-1 $467 $581 #
straight-curve $-1 53.293645773407619 4.580348228332892 12.429647974507347 1 0 0 I I #
edge $-1 $545 -0.75984233596736583 $464 11.440223464567882 $463 $582 forward 7 unknown #
vertex $-1 $544 $583 #
straight-curve $-1 -1.903349505136319 4.580348228332892 113.40705408935149 -0.51503806187062418 0 0.85716730853699208 I I #
point $-1 58.769995150153711 4.580348228332892 12.429647974507347 #
point $-1 63.284401989806824 16.78041402886814 4.9164130373999626 #
straight-curve $-1 63.284401989806817 0 12.429647974507342 0 1 0 I I #
vertex $-1 $470 $584 #
point $-1 60.541375362139725 7.0203613884399445 7.21448509605949 #
vertex $-1 $474 $585 #
point $-1 60.541375362139725 10.680381128600516 7.21448509605949 #
vertex $-1 $478 $586 #
point $-1 60.541375362139725 14.340400868761094 7.21448509605949 #
straight-curve $-1 -63.284401989806817 37.441259358946311 0 0 0 -1 I I #
point $-1 -63.284401989806817 -37.441259358946311 -12.429647974507342 #
straight-curve $-1 -63.284401989806817 0 -12.429647974507342 0 1 0 I I #
point $-1 -63.284401989806817 37.441259358946311 -12.429647974507342 #
coedge $-1 $500 $499 $505 $563 reversed $260 $-1 #
vertex $-1 $512 $587 #
straight-curve $-1 0 -37.441259358946311 12.429647974507342 1 0 0 I I #
edge $-1 $561 -12.429647974507342 $564 12.429647974507342 $560 $588 forward 7 unknown #
vertex $-1 $510 $589 #
straight-curve $-1 0 -37.441259358946311 -12.429647974507342 -1 0 0 I I #
straight-curve $-1 -63.284401989806817 0 -12.429647974507342 0 1 0 I I #
straight-curve $-1 -63.284401989806817 0 12.429647974507342 0 -1 0 I I #
straight-curve $-1 -63.284401989806817 33.332460148705096 51.713094920896758 0 0 -1 I I #
point $-1 -63.284401989806817 33.332460148705096 12.429647974507342 #
straight-curve $-1 -63.284401989806817 14.784602689825022 5.063755783545373 0 -1 0 I I #
point $-1 -63.284401989806817 33.332460148705096 5.0637557835453659 #
point $-1 -56.249521416879581 29.569205379650043 5.6757337537177017 #
straight-curve $-1 63.284401989806817 -28.280562902280533 89.297402792147324 0 0 -1 I I #
point $-1 63.284401989806817 -28.280562902280533 12.429647974507342 #
straight-curve $-1 63.28440198980681 -11.090265001006454 4.9164130373999697 0 1 0 I I #
point $-1 63.284401989806824 -28.280562902280533 4.9164130373999626 #
point $-1 59.169169991732112 -25.840549742173479 7.5566143427258572 #
point $-1 59.169169991732112 -22.180530002012908 7.5566143427258572 #
point $-1 59.169169991732112 -18.520510261852333 7.5566143427258572 #
straight-curve $-1 63.284401989806817 4.580348228332892 89.297402792147324 0 0 -1 I I #
point $-1 63.284401989806817 4.580348228332892 12.429647974507342 #
straight-curve $-1 63.28440198980681 5.3401905643002578 4.9164130373999697 0 1 0 I I #
point $-1 63.284401989806824 4.580348228332892 4.9164130373999626 #
point $-1 59.169169991732112 7.0203613884399445 7.5566143427258572 #
point $-1 59.169169991732112 10.680381128600516 7.5566143427258572 #
point $-1 59.169169991732112 14.340400868761094 7.5566143427258572 #
point $-1 -63.284401989806817 -37.441259358946311 12.429647974507342 #
straight-curve $-1 -63.284401989806817 -37.441259358946311 0 0 0 -1 I I #
point $-1 -63.284401989806817 -37.441259358946311 -12.429647974507342 #
End-of-ACIS-data 