500 0 9 0           
7 Unknown 11 ACIS 5.0 NT 24 Fri Mar 26 16:46:10 1999 
-1 9.9999999999999995e-007 1e-010 
body $-1 $9 $-1 $10 #
body $-1 $11 $-1 $12 #
body $-1 $13 $-1 $14 #
body $-1 $15 $-1 $16 #
body $-1 $17 $-1 $18 #
body $-1 $19 $-1 $20 #
body $-1 $21 $-1 $22 #
body $-1 $23 $-1 $24 #
body $-1 $25 $-1 $26 #
lump $-1 $-1 $27 $0 #
transform $-1 1 0 0 0 1 0 0 0 1 54.10321359904782 29.858065497430388 6.5024920007832039 1 rotate no_reflect no_shear #
lump $-1 $-1 $28 $1 #
transform $-1 1 0 0 0 1 0 0 0 1 54.10321359904782 29.858065497430388 6.5024920007832039 1 rotate no_reflect no_shear #
lump $-1 $-1 $29 $2 #
transform $-1 1 0 0 0 1 0 0 0 1 54.10321359904782 29.858065497430388 6.5024920007832039 1 rotate no_reflect no_shear #
lump $-1 $-1 $30 $3 #
transform $-1 1 0 0 0 1 0 0 0 1 54.10321359904782 29.858065497430388 6.5024920007832039 1 rotate no_reflect no_shear #
lump $-1 $-1 $31 $4 #
transform $-1 1 0 0 0 1 0 0 0 1 54.10321359904782 29.858065497430388 6.5024920007832039 1 rotate no_reflect no_shear #
lump $-1 $-1 $32 $5 #
transform $-1 1 0 0 0 1 0 0 0 1 54.10321359904782 29.858065497430388 6.5024920007832039 1 rotate no_reflect no_shear #
lump $-1 $-1 $33 $6 #
transform $-1 1 0 0 0 1 0 0 0 1 54.10321359904782 29.858065497430388 6.5024920007832039 1 rotate no_reflect no_shear #
lump $-1 $-1 $34 $7 #
transform $-1 1 0 0 0 1 0 0 0 1 54.10321359904782 29.858065497430388 6.5024920007832039 1 rotate no_reflect no_shear #
lump $-1 $-1 $35 $8 #
transform $-1 1 0 0 0 1 0 0 0 1 54.10321359904782 29.858065497430388 6.5024920007832039 1 rotate no_reflect no_shear #
shell $-1 $-1 $-1 $36 $-1 $9 #
shell $-1 $-1 $-1 $37 $-1 $11 #
shell $-1 $-1 $-1 $38 $-1 $13 #
shell $-1 $-1 $-1 $39 $-1 $15 #
shell $-1 $-1 $-1 $40 $-1 $17 #
shell $-1 $-1 $-1 $41 $-1 $19 #
shell $-1 $-1 $-1 $42 $-1 $21 #
shell $-1 $-1 $-1 $43 $-1 $23 #
shell $-1 $-1 $-1 $44 $-1 $25 #
face $-1 $45 $46 $27 $-1 $47 forward single #
face $-1 $48 $49 $28 $-1 $50 forward single #
face $-1 $51 $52 $29 $-1 $53 forward single #
face $-1 $54 $55 $30 $-1 $56 reversed single #
face $-1 $57 $58 $31 $-1 $59 forward single #
face $-1 $60 $61 $32 $-1 $62 forward single #
face $-1 $63 $64 $33 $-1 $65 reversed single #
face $-1 $66 $67 $34 $-1 $68 forward single #
face $-1 $69 $70 $35 $-1 $71 forward single #
face $-1 $72 $73 $27 $-1 $74 reversed single #
loop $-1 $-1 $75 $36 #
plane-surface $-1 0 0 6.5024920007832039 0 0 1 1 0 0 forward_v I I I I #
face $-1 $76 $77 $28 $-1 $78 reversed single #
loop $-1 $-1 $79 $37 #
plane-surface $-1 0 -29.858065497430388 0 0 1 0 0 0 1 forward_v I I I I #
face $-1 $80 $81 $29 $-1 $82 reversed single #
loop $-1 $-1 $83 $38 #
plane-surface $-1 0 29.858065497430388 0 0 -1 0 0 0 -1 forward_v I I I I #
face $-1 $84 $85 $30 $-1 $86 reversed single #
loop $-1 $-1 $87 $39 #
plane-surface $-1 27.530355817050008 -11.485895874260386 151.46922182111365 0 -1 0 -0.57357644374324357 0 -0.81915203911291934 forward_v I I I I #
face $-1 $88 $89 $31 $-1 $90 forward single #
loop $-1 $91 $92 $40 #
cone-surface $-1 49.034719035483533 -19.30524485323285 2.2452342662931732 -0.57357644374324357 0 -0.81915203911291934 0.81915203911291934 0 -0.57357644374324357 1 I I 0 1 1 forward I I I I #
face $-1 $93 $94 $32 $-1 $95 forward single #
loop $-1 $96 $97 $41 #
cone-surface $-1 49.034719035483533 -14.61363546584937 2.2452342662931732 -0.57357644374324357 0 -0.81915203911291934 0.81915203911291934 0 -0.57357644374324357 1 I I 0 1 1 forward I I I I #
face $-1 $98 $99 $33 $-1 $100 reversed single #
loop $-1 $-1 $101 $42 #
plane-surface $-1 -116.1678713014937 -22.432984444821834 89.404564118667764 0 1 0 -0.57357644374324357 0 0.81915203911291934 forward_v I I I I #
face $-1 $102 $103 $34 $-1 $104 forward single #
loop $-1 $105 $106 $43 #
cone-surface $-1 -49.034719035483526 -19.30524485323285 2.2452342662931724 0.57357644374324357 0 -0.81915203911291934 0.81915203911291934 0 0.57357644374324357 1 I I 0 1 1 forward I I I I #
face $-1 $107 $108 $35 $-1 $109 forward single #
loop $-1 $110 $111 $44 #
cone-surface $-1 -49.034719035483526 -14.61363546584937 2.2452342662931724 0.57357644374324357 0 -0.81915203911291934 0.81915203911291934 0 0.57357644374324357 1 I I 0 1 1 forward I I I I #
face $-1 $112 $113 $27 $-1 $114 reversed single #
loop $-1 $-1 $115 $45 #
plane-surface $-1 0 0 -6.5024920007832039 0 0 1 1 0 0 forward_v I I I I #
coedge $-1 $116 $117 $118 $119 forward $46 $-1 #
face $-1 $120 $121 $28 $-1 $122 reversed single #
loop $-1 $-1 $123 $48 #
plane-surface $-1 0 0 -6.5024920007832039 0 0 1 1 0 0 forward_v I I I I #
coedge $-1 $124 $125 $126 $127 forward $49 $-1 #
face $-1 $128 $129 $29 $-1 $130 forward single #
loop $-1 $-1 $131 $51 #
plane-surface $-1 -54.10321359904782 0 0 1 0 0 0 0 -1 forward_v I I I I #
coedge $-1 $132 $133 $134 $135 forward $52 $-1 #
face $-1 $136 $137 $30 $-1 $138 reversed single #
loop $-1 $-1 $139 $54 #
plane-surface $-1 -34.534301885395877 -16.95944015954111 62.831706336669953 0.57357644374324357 0 0.81915203911291934 0.81915203911291934 0 -0.57357644374324357 forward_v I I I I #
coedge $-1 $140 $141 $142 $143 reversed $55 $-1 #
face $-1 $-1 $144 $31 $-1 $145 forward single #
loop $-1 $146 $147 $57 #
cone-surface $-1 47.774967177252748 -19.30524485323285 0.44612219552624577 -0.57357644374324357 0 -0.81915203911291934 0.40957601955645967 0 -0.28678822187162178 1 I I -0.70710678118654768 0.70710678118654735 0.5 forward I I I I #
loop $-1 $-1 $148 $40 #
coedge $-1 $92 $92 $149 $150 reversed $58 $-1 #
face $-1 $-1 $151 $32 $-1 $152 forward single #
loop $-1 $153 $154 $60 #
cone-surface $-1 47.774967177252748 -14.61363546584937 0.44612219552624577 -0.57357644374324357 0 -0.81915203911291934 0.40957601955645967 0 -0.28678822187162178 1 I I -0.70710678118654768 0.70710678118654735 0.5 forward I I I I #
loop $-1 $-1 $155 $41 #
coedge $-1 $97 $97 $156 $157 reversed $61 $-1 #
face $-1 $158 $159 $33 $-1 $160 reversed single #
loop $-1 $-1 $161 $63 #
plane-surface $-1 -54.10321359904782 -16.95944015954111 0.76704863422406788 -0.57357644374324357 0 0.81915203911291934 0.81915203911291934 0 0.57357644374324357 forward_v I I I I #
coedge $-1 $162 $163 $164 $165 reversed $64 $-1 #
face $-1 $-1 $166 $34 $-1 $167 forward single #
loop $-1 $168 $169 $66 #
cone-surface $-1 -47.774967177252741 -19.30524485323285 0.44612219552624488 0.57357644374324357 0 -0.81915203911291934 0.40957601955645967 0 0.28678822187162178 1 I I -0.70710678118654768 0.70710678118654735 0.5 forward I I I I #
loop $-1 $-1 $170 $43 #
coedge $-1 $106 $106 $171 $172 reversed $67 $-1 #
face $-1 $-1 $173 $35 $-1 $174 forward single #
loop $-1 $175 $176 $69 #
cone-surface $-1 -47.774967177252741 -14.61363546584937 0.44612219552624488 0.57357644374324357 0 -0.81915203911291934 0.40957601955645967 0 0.28678822187162178 1 I I -0.70710678118654768 0.70710678118654735 0.5 forward I I I I #
loop $-1 $-1 $177 $44 #
coedge $-1 $111 $111 $178 $179 reversed $70 $-1 #
face $-1 $180 $181 $27 $-1 $182 reversed single #
loop $-1 $-1 $183 $72 #
plane-surface $-1 0 -29.858065497430388 0 0 1 0 0 0 1 forward_v I I I I #
coedge $-1 $184 $185 $186 $187 forward $73 $-1 #
coedge $-1 $188 $75 $189 $190 forward $46 $-1 #
coedge $-1 $75 $188 $191 $192 forward $46 $-1 #
coedge $-1 $193 $194 $75 $119 reversed $195 $-1 #
edge $-1 $196 -29.858065497430388 $197 29.858065497430388 $118 $198 forward 7 unknown #
face $-1 $199 $200 $28 $-1 $201 forward single #
loop $-1 $-1 $202 $76 #
plane-surface $-1 54.10321359904782 0 0 -1 0 0 0 0 1 forward_v I I I I #
coedge $-1 $203 $204 $205 $206 forward $77 $-1 #
coedge $-1 $205 $79 $202 $207 reversed $49 $-1 #
coedge $-1 $79 $205 $208 $209 reversed $49 $-1 #
coedge $-1 $210 $211 $79 $127 reversed $200 $-1 #
edge $-1 $212 -54.10321359904782 $213 54.10321359904782 $126 $214 forward 7 unknown #
face $-1 $215 $216 $29 $-1 $217 reversed single #
loop $-1 $-1 $218 $80 #
plane-surface $-1 0 33.570606023734662 -3.5024920007832039 0 0 1 1 0 0 forward_v I I I I #
coedge $-1 $219 $220 $132 $221 forward $81 $-1 #
coedge $-1 $222 $83 $131 $221 reversed $52 $-1 #
coedge $-1 $83 $222 $223 $224 reversed $52 $-1 #
coedge $-1 $218 $225 $83 $135 reversed $129 $-1 #
edge $-1 $226 -54.10321359904782 $227 54.10321359904782 $134 $228 forward 7 unknown #
face $-1 $229 $230 $30 $-1 $231 forward single #
loop $-1 $-1 $232 $84 #
plane-surface $-1 27.530355817050008 -22.432984444821834 151.46922182111365 0 1 0 0.57357644374324357 0 0.81915203911291934 forward_v I I I I #
coedge $-1 $233 $234 $235 $236 reversed $85 $-1 #
coedge $-1 $141 $87 $237 $238 reversed $55 $-1 #
coedge $-1 $87 $140 $233 $239 reversed $55 $-1 #
coedge $-1 $235 $240 $87 $143 forward $230 $-1 #
edge $-1 $241 -40.338035690522815 $242 -32.146973836112551 $142 $243 forward 7 unknown #
loop $-1 $-1 $149 $88 #
plane-surface $-1 -34.534301885395877 -16.95944015954111 62.831706336669953 0.57357644374324357 0 0.81915203911291934 0.81915203911291934 0 -0.57357644374324357 forward_v I I I I #
loop $-1 $-1 $244 $57 #
coedge $-1 $147 $147 $148 $245 reversed $89 $-1 #
coedge $-1 $148 $148 $147 $245 forward $91 $-1 #
coedge $-1 $149 $149 $92 $150 forward $144 $-1 #
edge $-1 $246 0 $246 6.2831853071796004 $149 $247 forward 7 unknown #
loop $-1 $-1 $156 $93 #
plane-surface $-1 -34.534301885395877 -16.95944015954111 62.831706336669953 0.57357644374324357 0 0.81915203911291934 0.81915203911291934 0 -0.57357644374324357 forward_v I I I I #
loop $-1 $-1 $248 $60 #
coedge $-1 $154 $154 $155 $249 reversed $94 $-1 #
coedge $-1 $155 $155 $154 $249 forward $96 $-1 #
coedge $-1 $156 $156 $97 $157 forward $151 $-1 #
edge $-1 $250 0 $250 6.2831853071796004 $156 $251 forward 7 unknown #
face $-1 $252 $253 $33 $-1 $254 reversed single #
loop $-1 $-1 $255 $98 #
plane-surface $-1 -116.1678713014937 -11.485895874260386 89.404564118667764 0 -1 0 0.57357644374324357 0 -0.81915203911291934 forward_v I I I I #
coedge $-1 $256 $257 $258 $259 reversed $99 $-1 #
coedge $-1 $163 $101 $260 $261 reversed $64 $-1 #
coedge $-1 $101 $162 $256 $262 reversed $64 $-1 #
coedge $-1 $258 $263 $101 $165 forward $264 $-1 #
edge $-1 $265 3.9807220516990327 $266 12.171783906109304 $164 $267 forward 7 unknown #
loop $-1 $-1 $171 $102 #
plane-surface $-1 -54.10321359904782 -16.95944015954111 0.76704863422406788 -0.57357644374324357 0 0.81915203911291934 0.81915203911291934 0 0.57357644374324357 forward_v I I I I #
loop $-1 $-1 $268 $66 #
coedge $-1 $169 $169 $170 $269 reversed $103 $-1 #
coedge $-1 $170 $170 $169 $269 forward $105 $-1 #
coedge $-1 $171 $171 $106 $172 forward $166 $-1 #
edge $-1 $270 0 $270 6.2831853071796004 $171 $271 forward 7 unknown #
loop $-1 $-1 $178 $107 #
plane-surface $-1 -54.10321359904782 -16.95944015954111 0.76704863422406788 -0.57357644374324357 0 0.81915203911291934 0.81915203911291934 0 0.57357644374324357 forward_v I I I I #
loop $-1 $-1 $272 $69 #
coedge $-1 $176 $176 $177 $273 reversed $108 $-1 #
coedge $-1 $177 $177 $176 $273 forward $110 $-1 #
coedge $-1 $178 $178 $111 $179 forward $173 $-1 #
edge $-1 $274 0 $274 6.2831853071796004 $178 $275 forward 7 unknown #
face $-1 $276 $277 $27 $-1 $278 reversed single #
loop $-1 $-1 $279 $112 #
plane-surface $-1 -54.10321359904782 0 0 1 0 0 0 0 -1 forward_v I I I I #
coedge $-1 $280 $191 $281 $282 forward $113 $-1 #
coedge $-1 $283 $115 $280 $284 forward $73 $-1 #
coedge $-1 $115 $283 $285 $286 forward $73 $-1 #
coedge $-1 $194 $193 $115 $187 reversed $195 $-1 #
edge $-1 $287 -29.858065497430388 $288 29.858065497430388 $186 $289 forward 7 unknown #
coedge $-1 $117 $116 $290 $291 forward $46 $-1 #
coedge $-1 $292 $293 $116 $190 reversed $277 $-1 #
edge $-1 $197 -54.10321359904782 $294 54.10321359904782 $189 $295 forward 7 unknown #
coedge $-1 $183 $296 $117 $192 reversed $113 $-1 #
edge $-1 $297 -54.10321359904782 $196 54.10321359904782 $191 $298 forward 7 unknown #
coedge $-1 $186 $118 $296 $299 forward $195 $-1 #
coedge $-1 $118 $186 $292 $300 reversed $195 $-1 #
loop $-1 $-1 $193 $276 #
vertex $-1 $119 $301 #
vertex $-1 $119 $302 #
straight-curve $-1 54.10321359904782 0 6.5024920007832039 0 1 0 I I #
face $-1 $303 $304 $28 $-1 $305 reversed single #
loop $-1 $-1 $211 $120 #
plane-surface $-1 0 -33.570606023734662 -3.5024920007832039 0 0 1 1 0 0 forward_v I I I I #
coedge $-1 $306 $307 $124 $207 forward $121 $-1 #
coedge $-1 $308 $123 $307 $309 forward $77 $-1 #
coedge $-1 $123 $308 $310 $311 forward $77 $-1 #
coedge $-1 $125 $124 $123 $206 reversed $49 $-1 #
edge $-1 $312 -54.10321359904782 $313 54.10321359904782 $123 $314 forward 7 unknown #
edge $-1 $313 -6.5024920007832039 $213 -3.5024920007832039 $202 $315 forward 7 unknown #
coedge $-1 $310 $316 $125 $209 forward $317 $-1 #
edge $-1 $212 3.5024920007832039 $312 6.5024920007832039 $208 $318 forward 7 unknown #
coedge $-1 $319 $126 $316 $320 forward $200 $-1 #
coedge $-1 $126 $319 $306 $321 forward $200 $-1 #
vertex $-1 $209 $322 #
vertex $-1 $321 $323 #
straight-curve $-1 0 -29.858065497430388 -3.5024920007832039 1 0 0 I I #
face $-1 $324 $325 $29 $-1 $326 reversed single #
loop $-1 $-1 $327 $128 #
plane-surface $-1 0 37.283146550038936 -5.0024920007832039 0 -1 0 0 0 -1 forward_v I I I I #
coedge $-1 $328 $134 $329 $330 forward $129 $-1 #
coedge $-1 $331 $131 $225 $332 reversed $81 $-1 #
coedge $-1 $131 $331 $333 $334 reversed $81 $-1 #
edge $-1 $335 -6.5024920007832039 $227 -3.5024920007832039 $131 $336 forward 7 unknown #
coedge $-1 $133 $132 $337 $338 reversed $52 $-1 #
coedge $-1 $339 $329 $133 $224 forward $340 $-1 #
edge $-1 $226 3.5024920007832039 $341 6.5024920007832039 $223 $342 forward 7 unknown #
coedge $-1 $134 $328 $219 $332 forward $129 $-1 #
vertex $-1 $224 $343 #
vertex $-1 $332 $344 #
straight-curve $-1 0 29.858065497430388 -3.5024920007832039 -1 0 0 I I #
face $-1 $-1 $345 $30 $-1 $346 reversed single #
loop $-1 $-1 $142 $136 #
plane-surface $-1 0 0 6.5024920007832039 0 0 1 1 0 0 forward_v I I I I #
coedge $-1 $347 $348 $349 $350 reversed $137 $-1 #
coedge $-1 $351 $139 $141 $239 forward $85 $-1 #
coedge $-1 $139 $351 $347 $352 forward $85 $-1 #
coedge $-1 $349 $142 $139 $236 forward $230 $-1 #
edge $-1 $242 3.0061757944898311 $353 13.953264365051279 $235 $354 forward 7 unknown #
coedge $-1 $355 $356 $140 $238 forward $345 $-1 #
edge $-1 $357 -74.967562276332757 $241 -69.232118909773618 $237 $358 forward 7 unknown #
edge $-1 $242 98.20698696807365 $357 108.20642719809564 $141 $359 forward 7 unknown #
coedge $-1 $142 $349 $355 $360 forward $230 $-1 #
vertex $-1 $238 $361 #
vertex $-1 $143 $362 #
straight-curve $-1 13.765177908525004 -11.485895874260386 6.5024920007832065 -1 0 0 I I #
coedge $-1 $244 $244 $-1 $363 reversed $146 $-1 #
edge $-1 $364 0 $364 6.2831853071796004 $147 $365 forward 7 unknown #
vertex $-1 $150 $366 #
ellipse-curve $-1 50.007682671842694 -19.30524485323285 3.6347703175036363 0.57357644374324357 0 0.81915203911291934 0.81915203911291934 0 -0.57357644374324357 1 I I #
coedge $-1 $248 $248 $-1 $367 reversed $153 $-1 #
edge $-1 $368 0 $368 6.2831853071796004 $154 $369 forward 7 unknown #
vertex $-1 $157 $370 #
ellipse-curve $-1 50.007682671842694 -14.61363546584937 3.6347703175036363 0.57357644374324357 0 0.81915203911291934 0.81915203911291934 0 -0.57357644374324357 1 I I #
face $-1 $-1 $264 $33 $-1 $371 forward single #
loop $-1 $-1 $372 $158 #
plane-surface $-1 -54.10321359904782 0 0 1 0 0 0 0 -1 forward_v I I I I #
coedge $-1 $373 $374 $375 $376 reversed $159 $-1 #
coedge $-1 $377 $161 $163 $262 forward $99 $-1 #
coedge $-1 $161 $377 $373 $378 forward $99 $-1 #
coedge $-1 $375 $164 $161 $259 forward $264 $-1 #
edge $-1 $266 -13.953264365051279 $379 -3.0061757944898311 $258 $380 forward 7 unknown #
coedge $-1 $381 $382 $162 $261 forward $253 $-1 #
edge $-1 $383 -43.935233425109814 $265 -38.199790058550676 $260 $384 forward 7 unknown #
edge $-1 $266 -9.9994402300219907 $383 0 $163 $385 forward 7 unknown #
coedge $-1 $164 $375 $381 $386 forward $264 $-1 #
loop $-1 $-1 $375 $252 #
vertex $-1 $261 $387 #
vertex $-1 $165 $388 #
straight-curve $-1 -58.083935650746852 -22.432984444821834 6.5024920007832065 1 0 0 I I #
coedge $-1 $268 $268 $-1 $389 reversed $168 $-1 #
edge $-1 $390 0 $390 6.2831853071796004 $169 $391 forward 7 unknown #
vertex $-1 $172 $392 #
ellipse-curve $-1 -50.007682671842687 -19.30524485323285 3.6347703175036337 -0.57357644374324357 0 0.81915203911291934 0.81915203911291934 0 0.57357644374324357 1 I I #
coedge $-1 $272 $272 $-1 $393 reversed $175 $-1 #
edge $-1 $394 0 $394 6.2831853071796004 $176 $395 forward 7 unknown #
vertex $-1 $179 $396 #
ellipse-curve $-1 -50.007682671842687 -14.61363546584937 3.6347703175036337 -0.57357644374324357 0 0.81915203911291934 0.81915203911291934 0 0.57357644374324357 1 I I #
face $-1 $-1 $195 $27 $-1 $397 reversed single #
loop $-1 $-1 $292 $180 #
plane-surface $-1 0 29.858065497430388 0 0 -1 0 0 0 -1 forward_v I I I I #
coedge $-1 $398 $290 $293 $399 forward $181 $-1 #
coedge $-1 $296 $183 $184 $284 reversed $113 $-1 #
coedge $-1 $290 $398 $183 $282 reversed $181 $-1 #
edge $-1 $297 -6.5024920007832039 $400 6.5024920007832039 $281 $401 forward 7 unknown #
coedge $-1 $185 $184 $398 $402 forward $73 $-1 #
edge $-1 $288 -54.10321359904782 $400 54.10321359904782 $280 $403 forward 7 unknown #
coedge $-1 $293 $292 $185 $286 reversed $277 $-1 #
edge $-1 $404 -54.10321359904782 $287 54.10321359904782 $285 $405 forward 7 unknown #
vertex $-1 $187 $406 #
vertex $-1 $299 $407 #
straight-curve $-1 54.10321359904782 0 -6.5024920007832039 0 -1 0 I I #
coedge $-1 $279 $281 $188 $291 reversed $181 $-1 #
edge $-1 $294 -29.858065497430388 $297 29.858065497430388 $290 $408 forward 7 unknown #
coedge $-1 $285 $189 $194 $300 forward $277 $-1 #
coedge $-1 $189 $285 $279 $399 reversed $277 $-1 #
vertex $-1 $190 $409 #
straight-curve $-1 0 29.858065497430388 6.5024920007832039 -1 0 0 I I #
coedge $-1 $191 $280 $193 $299 reversed $113 $-1 #
vertex $-1 $291 $410 #
straight-curve $-1 0 -29.858065497430388 6.5024920007832039 1 0 0 I I #
edge $-1 $196 -6.5024920007832039 $288 6.5024920007832039 $193 $411 forward 7 unknown #
edge $-1 $197 -6.5024920007832039 $287 6.5024920007832039 $194 $412 forward 7 unknown #
point $-1 54.10321359904782 -29.858065497430388 6.5024920007832039 #
point $-1 54.10321359904782 29.858065497430388 6.5024920007832039 #
face $-1 $-1 $317 $28 $-1 $413 reversed single #
loop $-1 $-1 $414 $199 #
plane-surface $-1 0 -37.283146550038936 -5.0024920007832039 0 1 0 0 0 1 forward_v I I I I #
coedge $-1 $415 $202 $211 $321 reversed $121 $-1 #
coedge $-1 $202 $415 $203 $309 reversed $121 $-1 #
coedge $-1 $204 $203 $416 $417 forward $77 $-1 #
edge $-1 $313 29.858065497430388 $418 37.283146550038936 $307 $419 forward 7 unknown #
coedge $-1 $420 $208 $204 $311 reversed $317 $-1 #
edge $-1 $421 -37.283146550038936 $312 -29.858065497430388 $310 $422 forward 7 unknown #
vertex $-1 $209 $423 #
vertex $-1 $309 $424 #
straight-curve $-1 0 -29.858065497430388 -6.5024920007832039 1 0 0 I I #
straight-curve $-1 54.10321359904782 -29.858065497430388 0 0 0 1 I I #
coedge $-1 $208 $420 $210 $320 reversed $317 $-1 #
loop $-1 $-1 $208 $303 #
straight-curve $-1 -54.10321359904782 -29.858065497430388 0 0 0 -1 I I #
coedge $-1 $211 $210 $425 $426 forward $200 $-1 #
edge $-1 $212 -3.7125405263042772 $427 3.7125405263042737 $316 $428 forward 7 unknown #
edge $-1 $429 -3.7125405263042737 $213 3.7125405263042772 $306 $430 forward 7 unknown #
point $-1 -54.10321359904782 -29.858065497430385 -3.5024920007832039 #
point $-1 54.10321359904782 -29.858065497430385 -3.5024920007832039 #
face $-1 $-1 $340 $29 $-1 $431 reversed single #
loop $-1 $-1 $337 $215 #
plane-surface $-1 0 0 -6.5024920007832039 0 0 1 1 0 0 forward_v I I I I #
coedge $-1 $432 $433 $434 $435 forward $216 $-1 #
coedge $-1 $225 $218 $433 $436 forward $129 $-1 #
coedge $-1 $223 $434 $218 $330 reversed $340 $-1 #
edge $-1 $226 -3.7125405263042737 $437 3.7125405263042737 $329 $438 forward 7 unknown #
coedge $-1 $220 $219 $439 $440 forward $81 $-1 #
edge $-1 $441 -3.7125405263042737 $227 3.7125405263042737 $219 $442 forward 7 unknown #
coedge $-1 $443 $337 $220 $334 forward $325 $-1 #
edge $-1 $335 -3.7125405263042737 $444 3.7125405263042737 $220 $445 forward 7 unknown #
vertex $-1 $334 $446 #
straight-curve $-1 -54.10321359904782 29.858065497430388 0 0 0 1 I I #
coedge $-1 $333 $447 $222 $338 forward $325 $-1 #
edge $-1 $341 -54.10321359904782 $335 54.10321359904782 $337 $448 forward 7 unknown #
coedge $-1 $434 $223 $447 $449 reversed $340 $-1 #
loop $-1 $-1 $223 $324 #
vertex $-1 $224 $450 #
straight-curve $-1 54.10321359904782 29.858065497430388 0 0 0 -1 I I #
point $-1 54.10321359904782 29.858065497430388 -3.5024920007832039 #
point $-1 -54.10321359904782 29.858065497430388 -3.5024920007832039 #
loop $-1 $-1 $237 $229 #
plane-surface $-1 54.10321359904782 0 0 -1 0 0 0 0 1 forward_v I I I I #
coedge $-1 $348 $232 $234 $352 reversed $137 $-1 #
coedge $-1 $232 $347 $451 $452 reversed $137 $-1 #
coedge $-1 $240 $235 $232 $350 forward $230 $-1 #
edge $-1 $353 32.146973836112551 $453 40.338035690522815 $349 $454 forward 7 unknown #
coedge $-1 $234 $233 $356 $455 reversed $85 $-1 #
edge $-1 $456 -108.20642719809564 $353 -98.20698696807365 $347 $457 forward 7 unknown #
vertex $-1 $236 $458 #
straight-curve $-1 45.912151744637534 -8.479720079770555 6.5024920007832137 0 -1 0 I I #
coedge $-1 $451 $237 $240 $360 reversed $345 $-1 #
coedge $-1 $237 $451 $351 $455 forward $345 $-1 #
vertex $-1 $238 $459 #
straight-curve $-1 54.10321359904782 -11.485895874260386 75.734610910556825 0 0 1 I I #
straight-curve $-1 -34.534301885395877 -11.485895874260386 62.831706336669953 0.81915203911291934 0 -0.57357644374324357 I I #
edge $-1 $453 -22.432984444821834 $241 -11.485895874260386 $355 $460 forward 7 unknown #
point $-1 54.10321359904782 -11.485895874260386 6.5024920007832039 #
point $-1 45.912151744637555 -11.485895874260386 6.5024920007831994 #
edge $-1 $461 1 $461 0 $244 $-1 forward 7 unknown #
vertex $-1 $245 $462 #
ellipse-curve $-1 48.061755399124372 -19.30524485323285 0.85569821508270527 0.57357644374324357 0 0.81915203911291934 0.81915203911291934 0 -0.57357644374324357 1 I I #
point $-1 50.826834710955616 -19.30524485323285 3.0611938737603968 #
edge $-1 $463 1 $463 0 $248 $-1 forward 7 unknown #
vertex $-1 $249 $464 #
ellipse-curve $-1 48.061755399124372 -14.61363546584937 0.85569821508270527 0.57357644374324357 0 0.81915203911291934 0.81915203911291934 0 -0.57357644374324357 1 I I #
point $-1 50.826834710955616 -14.61363546584937 3.0611938737603968 #
plane-surface $-1 0 0 6.5024920007832039 0 0 1 1 0 0 forward_v I I I I #
coedge $-1 $382 $381 $374 $465 forward $253 $-1 #
coedge $-1 $374 $255 $257 $378 reversed $159 $-1 #
coedge $-1 $255 $373 $372 $465 reversed $159 $-1 #
coedge $-1 $263 $258 $255 $376 forward $264 $-1 #
edge $-1 $379 -12.171783906109304 $466 -3.9807220516990327 $375 $467 forward 7 unknown #
coedge $-1 $257 $256 $382 $468 reversed $99 $-1 #
edge $-1 $469 0 $379 9.9994402300219907 $373 $470 forward 7 unknown #
vertex $-1 $259 $471 #
straight-curve $-1 -45.912151744637541 -8.479720079770555 6.5024920007832057 0 1 0 I I #
coedge $-1 $372 $260 $263 $386 reversed $253 $-1 #
coedge $-1 $260 $372 $377 $468 forward $253 $-1 #
vertex $-1 $261 $472 #
straight-curve $-1 -54.10321359904782 -22.432984444821834 44.702282059333882 0 0 1 I I #
straight-curve $-1 -54.10321359904782 -22.432984444821834 0.76704863422406788 -0.81915203911291934 0 -0.57357644374324357 I I #
edge $-1 $466 11.485895874260386 $265 22.432984444821834 $381 $473 forward 7 unknown #
point $-1 -54.10321359904782 -22.432984444821834 6.5024920007832039 #
point $-1 -45.912151744637548 -22.432984444821834 6.5024920007832039 #
edge $-1 $474 1 $474 0 $268 $-1 forward 7 unknown #
vertex $-1 $269 $475 #
ellipse-curve $-1 -48.061755399124365 -19.30524485323285 0.85569821508270438 -0.57357644374324357 0 0.81915203911291934 0.81915203911291934 0 0.57357644374324357 1 I I #
point $-1 -49.188530632729773 -19.30524485323285 4.208346761246883 #
edge $-1 $476 1 $476 0 $272 $-1 forward 7 unknown #
vertex $-1 $273 $477 #
ellipse-curve $-1 -48.061755399124365 -14.61363546584937 0.85569821508270438 -0.57357644374324357 0 0.81915203911291934 0.81915203911291934 0 0.57357644374324357 1 I I #
point $-1 -49.188530632729773 -14.61363546584937 4.208346761246883 #
plane-surface $-1 54.10321359904782 0 0 -1 0 0 0 0 1 forward_v I I I I #
coedge $-1 $281 $279 $283 $402 reversed $181 $-1 #
edge $-1 $294 -6.5024920007832039 $404 6.5024920007832039 $293 $478 forward 7 unknown #
vertex $-1 $402 $479 #
straight-curve $-1 -54.10321359904782 -29.858065497430388 0 0 0 -1 I I #
edge $-1 $400 -29.858065497430388 $404 29.858065497430388 $398 $480 forward 7 unknown #
straight-curve $-1 0 -29.858065497430388 -6.5024920007832039 -1 0 0 I I #
vertex $-1 $286 $481 #
straight-curve $-1 0 29.858065497430388 -6.5024920007832039 1 0 0 I I #
point $-1 54.10321359904782 29.858065497430388 -6.5024920007832039 #
point $-1 54.10321359904782 -29.858065497430388 -6.5024920007832039 #
straight-curve $-1 -54.10321359904782 0 6.5024920007832039 0 -1 0 I I #
point $-1 -54.10321359904782 29.858065497430388 6.5024920007832039 #
point $-1 -54.10321359904782 -29.858065497430388 6.5024920007832039 #
straight-curve $-1 54.10321359904782 -29.858065497430388 0 0 0 -1 I I #
straight-curve $-1 54.10321359904782 29.858065497430388 0 0 0 -1 I I #
plane-surface $-1 -54.10321359904782 0 0 1 0 0 0 0 -1 forward_v I I I I #
coedge $-1 $416 $425 $420 $482 forward $304 $-1 #
coedge $-1 $307 $306 $483 $484 forward $121 $-1 #
coedge $-1 $483 $414 $308 $417 reversed $304 $-1 #
edge $-1 $418 -54.10321359904782 $421 54.10321359904782 $416 $485 forward 7 unknown #
vertex $-1 $484 $486 #
straight-curve $-1 54.10321359904782 0 -6.5024920007832039 0 -1 0 I I #
coedge $-1 $316 $310 $414 $482 reversed $317 $-1 #
vertex $-1 $311 $487 #
straight-curve $-1 -54.10321359904782 0 -6.5024920007832039 0 1 0 I I #
point $-1 -54.10321359904782 -29.858065497430388 -6.5024920007832039 #
point $-1 54.10321359904782 -29.858065497430388 -6.5024920007832039 #
coedge $-1 $414 $483 $319 $426 reversed $304 $-1 #
edge $-1 $427 -54.10321359904782 $429 54.10321359904782 $425 $488 forward 7 unknown #
vertex $-1 $320 $489 #
straight-curve $-1 -54.10321359904782 -33.570606023734662 -3.5024920007832039 0 -1 0 I I #
vertex $-1 $321 $490 #
straight-curve $-1 54.10321359904782 -33.570606023734662 -3.5024920007832039 0 1 0 I I #
plane-surface $-1 54.10321359904782 0 0 -1 0 0 0 0 1 forward_v I I I I #
coedge $-1 $439 $327 $443 $491 reversed $216 $-1 #
coedge $-1 $327 $439 $328 $436 reversed $216 $-1 #
coedge $-1 $329 $339 $327 $435 reversed $340 $-1 #
edge $-1 $437 -1.5 $492 1.5 $434 $493 forward 7 unknown #
edge $-1 $437 -54.10321359904782 $441 54.10321359904782 $433 $494 forward 7 unknown #
vertex $-1 $330 $495 #
straight-curve $-1 54.10321359904782 33.570606023734662 -3.5024920007832039 0 1 0 I I #
coedge $-1 $433 $432 $331 $440 reversed $216 $-1 #
edge $-1 $441 -1.5 $444 1.5 $439 $496 forward 7 unknown #
vertex $-1 $436 $497 #
straight-curve $-1 -54.10321359904782 33.570606023734662 -3.5024920007832039 0 -1 0 I I #
coedge $-1 $447 $333 $432 $491 forward $325 $-1 #
vertex $-1 $491 $498 #
straight-curve $-1 -54.10321359904782 33.570606023734662 -6.5024920007832039 0 1 0 I I #
point $-1 -54.10321359904782 29.858065497430388 -6.5024920007832039 #
coedge $-1 $337 $443 $339 $449 forward $325 $-1 #
straight-curve $-1 0 29.858065497430388 -6.5024920007832039 -1 0 0 I I #
edge $-1 $492 -37.283146550038936 $341 -29.858065497430388 $339 $499 forward 7 unknown #
point $-1 54.10321359904782 29.858065497430388 -6.5024920007832039 #
coedge $-1 $356 $355 $348 $452 forward $345 $-1 #
edge $-1 $453 69.232118909773618 $456 74.967562276332757 $451 $500 forward 7 unknown #
vertex $-1 $360 $501 #
straight-curve $-1 13.765177908525004 -22.432984444821834 6.5024920007832065 1 0 0 I I #
edge $-1 $456 -13.953264365051279 $357 -3.0061757944898311 $356 $502 forward 7 unknown #
vertex $-1 $455 $503 #
straight-curve $-1 -34.534301885395877 -22.432984444821834 62.831706336669953 -0.81915203911291934 0 0.57357644374324357 I I #
point $-1 45.912151744637555 -22.432984444821834 6.5024920007831994 #
point $-1 54.10321359904782 -11.485895874260386 0.76704863422406788 #
straight-curve $-1 54.10321359904782 0 6.5024920007832039 0 1 0 I I #
vertex $-1 $363 $504 #
point $-1 48.880907438237287 -19.30524485323285 0.2821217713394617 #
vertex $-1 $367 $505 #
point $-1 48.880907438237287 -14.61363546584937 0.2821217713394617 #
edge $-1 $466 38.199790058550676 $469 43.935233425109814 $372 $506 forward 7 unknown #
vertex $-1 $386 $507 #
straight-curve $-1 -58.083935650746852 -11.485895874260386 6.5024920007832065 -1 0 0 I I #
edge $-1 $469 3.0061757944898311 $383 13.953264365051279 $382 $508 forward 7 unknown #
vertex $-1 $468 $509 #
straight-curve $-1 -54.10321359904782 -11.485895874260386 0.76704863422406788 0.81915203911291934 0 0.57357644374324357 I I #
point $-1 -45.912151744637548 -11.485895874260386 6.5024920007832039 #
point $-1 -54.10321359904782 -22.432984444821834 0.76704863422406788 #
straight-curve $-1 -54.10321359904782 0 6.5024920007832039 0 -1 0 I I #
vertex $-1 $389 $510 #
point $-1 -47.242603360011444 -19.30524485323285 1.429274658825948 #
vertex $-1 $393 $511 #
point $-1 -47.242603360011444 -14.61363546584937 1.429274658825948 #
straight-curve $-1 -54.10321359904782 29.858065497430388 0 0 0 -1 I I #
point $-1 -54.10321359904782 -29.858065497430388 -6.5024920007832039 #
straight-curve $-1 -54.10321359904782 0 -6.5024920007832039 0 1 0 I I #
point $-1 -54.10321359904782 29.858065497430388 -6.5024920007832039 #
edge $-1 $427 -1.5 $421 1.5 $420 $512 forward 7 unknown #
coedge $-1 $425 $416 $415 $484 reversed $304 $-1 #
edge $-1 $429 -1.5 $418 1.5 $415 $513 forward 7 unknown #
straight-curve $-1 0 -37.283146550038936 -6.5024920007832039 -1 0 0 I I #
point $-1 54.10321359904782 -37.283146550038936 -6.5024920007832039 #
point $-1 -54.10321359904782 -37.283146550038936 -6.5024920007832039 #
straight-curve $-1 0 -37.283146550038936 -3.5024920007832039 1 0 0 I I #
point $-1 -54.10321359904782 -37.283146550038936 -3.5024920007832039 #
point $-1 54.10321359904782 -37.283146550038936 -3.5024920007832039 #
edge $-1 $444 -54.10321359904782 $492 54.10321359904782 $432 $514 forward 7 unknown #
vertex $-1 $449 $515 #
straight-curve $-1 54.10321359904782 37.283146550038936 -5.0024920007832039 0 0 -1 I I #
straight-curve $-1 0 37.283146550038936 -3.5024920007832039 -1 0 0 I I #
point $-1 54.10321359904782 37.283146550038936 -3.5024920007832039 #
straight-curve $-1 -54.10321359904782 37.283146550038936 -5.0024920007832039 0 0 -1 I I #
point $-1 -54.10321359904782 37.283146550038936 -3.5024920007832039 #
point $-1 -54.10321359904782 37.283146550038936 -6.5024920007832039 #
straight-curve $-1 54.10321359904782 0 -6.5024920007832039 0 -1 0 I I #
straight-curve $-1 54.10321359904782 -22.432984444821834 75.734610910556825 0 0 -1 I I #
point $-1 54.10321359904782 -22.432984444821834 6.5024920007832039 #
straight-curve $-1 54.10321359904782 -8.479720079770555 0.76704863422407499 0 1 0 I I #
point $-1 54.10321359904782 -22.432984444821834 0.76704863422406788 #
point $-1 47.488178955381123 -19.30524485323285 0.036546175969786265 #
point $-1 47.488178955381123 -14.61363546584937 0.036546175969786265 #
straight-curve $-1 -54.10321359904782 -11.485895874260386 44.702282059333882 0 0 -1 I I #
point $-1 -54.10321359904782 -11.485895874260386 6.5024920007832039 #
straight-curve $-1 -54.10321359904782 -8.479720079770555 0.76704863422406655 0 -1 0 I I #
point $-1 -54.10321359904782 -11.485895874260386 0.76704863422406788 #
point $-1 -47.488178955381116 -19.30524485323285 0.036546175969785377 #
point $-1 -47.488178955381116 -14.61363546584937 0.036546175969785377 #
straight-curve $-1 -54.10321359904782 -37.283146550038936 -5.0024920007832039 0 0 -1 I I #
straight-curve $-1 54.10321359904782 -37.283146550038936 -5.0024920007832039 0 0 -1 I I #
straight-curve $-1 0 37.283146550038936 -6.5024920007832039 1 0 0 I I #
point $-1 54.10321359904782 37.283146550038936 -6.5024920007832039 #
End-of-ACIS-data 