500 0 12 0           
7 Unknown 11 ACIS 5.0 NT 24 Thu Mar 25 15:35:07 1999 
-1 9.9999999999999995e-007 1e-010 
body $-1 $12 $-1 $13 #
body $-1 $14 $-1 $15 #
body $-1 $16 $-1 $17 #
body $-1 $18 $-1 $19 #
body $-1 $20 $-1 $21 #
body $-1 $22 $-1 $23 #
body $-1 $24 $-1 $25 #
body $-1 $26 $-1 $27 #
body $-1 $28 $-1 $29 #
body $-1 $30 $-1 $31 #
body $-1 $32 $-1 $33 #
body $-1 $34 $-1 $35 #
lump $-1 $-1 $36 $0 #
transform $-1 1 0 0 0 1 0 0 0 1 51.155125583666496 28.317742741918742 9.8358935962584226 1 rotate no_reflect no_shear #
lump $-1 $-1 $37 $1 #
transform $-1 1 0 0 0 1 0 0 0 1 51.155125583666496 28.317742741918742 9.8358935962584226 1 rotate no_reflect no_shear #
lump $-1 $-1 $38 $2 #
transform $-1 1 0 0 0 1 0 0 0 1 51.155125583666496 28.317742741918742 9.8358935962584226 1 rotate no_reflect no_shear #
lump $-1 $-1 $39 $3 #
transform $-1 1 0 0 0 1 0 0 0 1 51.155125583666496 28.317742741918742 9.8358935962584226 1 rotate no_reflect no_shear #
lump $-1 $-1 $40 $4 #
transform $-1 1 0 0 0 1 0 0 0 1 51.155125583666496 28.317742741918742 9.8358935962584226 1 rotate no_reflect no_shear #
lump $-1 $-1 $41 $5 #
transform $-1 1 0 0 0 1 0 0 0 1 51.155125583666496 28.317742741918742 9.8358935962584226 1 rotate no_reflect no_shear #
lump $-1 $-1 $42 $6 #
transform $-1 1 0 0 0 1 0 0 0 1 51.155125583666496 28.317742741918742 9.8358935962584226 1 rotate no_reflect no_shear #
lump $-1 $-1 $43 $7 #
transform $-1 1 0 0 0 1 0 0 0 1 51.155125583666496 28.317742741918742 9.8358935962584226 1 rotate no_reflect no_shear #
lump $-1 $-1 $44 $8 #
transform $-1 1 0 0 0 1 0 0 0 1 51.155125583666496 28.317742741918742 9.8358935962584226 1 rotate no_reflect no_shear #
lump $-1 $-1 $45 $9 #
transform $-1 1 0 0 0 1 0 0 0 1 51.155125583666496 28.317742741918742 9.8358935962584226 1 rotate no_reflect no_shear #
lump $-1 $-1 $46 $10 #
transform $-1 1 0 0 0 1 0 0 0 1 51.155125583666496 28.317742741918742 9.8358935962584226 1 rotate no_reflect no_shear #
lump $-1 $-1 $47 $11 #
transform $-1 1 0 0 0 1 0 0 0 1 51.155125583666496 28.317742741918742 9.8358935962584226 1 rotate no_reflect no_shear #
shell $-1 $-1 $-1 $48 $-1 $12 #
shell $-1 $-1 $-1 $49 $-1 $14 #
shell $-1 $-1 $-1 $50 $-1 $16 #
shell $-1 $-1 $-1 $51 $-1 $18 #
shell $-1 $-1 $-1 $52 $-1 $20 #
shell $-1 $-1 $-1 $53 $-1 $22 #
shell $-1 $-1 $-1 $54 $-1 $24 #
shell $-1 $-1 $-1 $55 $-1 $26 #
shell $-1 $-1 $-1 $56 $-1 $28 #
shell $-1 $-1 $-1 $57 $-1 $30 #
shell $-1 $-1 $-1 $58 $-1 $32 #
shell $-1 $-1 $-1 $59 $-1 $34 #
face $-1 $60 $61 $36 $-1 $62 forward single #
face $-1 $63 $64 $37 $-1 $65 forward single #
face $-1 $66 $67 $38 $-1 $68 reversed single #
face $-1 $69 $70 $39 $-1 $71 forward single #
face $-1 $72 $73 $40 $-1 $74 forward single #
face $-1 $75 $76 $41 $-1 $77 reversed single #
face $-1 $78 $79 $42 $-1 $80 forward single #
face $-1 $81 $82 $43 $-1 $83 forward single #
face $-1 $84 $85 $44 $-1 $86 reversed single #
face $-1 $87 $88 $45 $-1 $89 forward single #
face $-1 $90 $91 $46 $-1 $92 forward single #
face $-1 $93 $94 $47 $-1 $95 forward single #
face $-1 $96 $97 $36 $-1 $98 reversed single #
loop $-1 $-1 $99 $48 #
plane-surface $-1 0 0 9.8358935962584226 0 0 1 1 0 0 forward_v I I I I #
face $-1 $100 $101 $37 $-1 $102 reversed single #
loop $-1 $-1 $103 $49 #
plane-surface $-1 -51.155125583666496 0 0 1 0 0 0 0 -1 forward_v I I I I #
face $-1 $104 $105 $38 $-1 $106 reversed single #
loop $-1 $-1 $107 $50 #
plane-surface $-1 -39.420673687361834 72.185876805685609 111.50362434965072 1 0 0 0 -0.77714596973225614 -0.62932038083071107 forward_v I I I I #
face $-1 $108 $109 $39 $-1 $110 forward single #
loop $-1 $111 $112 $51 #
cone-surface $-1 -34.651809619782313 24.101054783712385 5.2625016867958525 0 -0.77714596973225614 -0.62932038083071107 1 0 0 1 I I 0 1 1 forward I I I I #
face $-1 $113 $114 $40 $-1 $115 forward single #
loop $-1 $116 $117 $52 #
cone-surface $-1 -27.498513518413034 24.101054783712385 5.2625016867958525 0 -0.77714596973225614 -0.62932038083071107 1 0 0 1 I I 0 1 1 forward I I I I #
face $-1 $118 $119 $41 $-1 $120 reversed single #
loop $-1 $-1 $121 $53 #
plane-surface $-1 34.464101347138183 72.185876805685609 111.50362434965072 1 0 0 0 -0.77714596973225614 -0.62932038083071107 forward_v I I I I #
face $-1 $122 $123 $42 $-1 $124 forward single #
loop $-1 $125 $126 $54 #
cone-surface $-1 39.232965414717704 24.101054783712385 5.2625016867958525 0 -0.77714596973225614 -0.62932038083071107 1 0 0 1 I I 0 1 1 forward I I I I #
face $-1 $127 $128 $43 $-1 $129 forward single #
loop $-1 $130 $131 $55 #
cone-surface $-1 46.386261516086982 24.101054783712385 5.2625016867958525 0 -0.77714596973225614 -0.62932038083071107 1 0 0 1 I I 0 1 1 forward I I I I #
face $-1 $132 $133 $44 $-1 $134 reversed single #
loop $-1 $-1 $135 $56 #
plane-surface $-1 41.028995475620931 -99.388415933992945 74.912026518595553 -1 0 0 0 -0.69465837861970381 0.71933979245794832 forward_v I I I I #
face $-1 $136 $137 $45 $-1 $138 forward single #
loop $-1 $139 $140 $57 #
cone-surface $-1 28.633044846909137 -21.825949595720466 3.4215302797672482 0 0.69465837861970381 -0.71933979245794832 1.5 0 0 1 I I 0 1 1.5 forward I I I I #
face $-1 $141 $142 $46 $-1 $143 forward single #
loop $-1 $144 $145 $58 #
cone-surface $-1 33.281526332676059 -21.825949595720466 3.4215302797672482 0 0.69465837861970381 -0.71933979245794832 1.5 0 0 1 I I 0 1 1.5 forward I I I I #
face $-1 $146 $147 $47 $-1 $148 forward single #
loop $-1 $149 $150 $59 #
cone-surface $-1 37.930007818442981 -21.825949595720466 3.4215302797672482 0 0.69465837861970381 -0.71933979245794832 1.5 0 0 1 I I 0 1 1.5 forward I I I I #
face $-1 $151 $152 $36 $-1 $153 reversed single #
loop $-1 $-1 $154 $60 #
plane-surface $-1 0 0 -9.8358935962584226 0 0 1 1 0 0 forward_v I I I I #
coedge $-1 $155 $156 $157 $158 forward $61 $-1 #
face $-1 $159 $160 $37 $-1 $161 reversed single #
loop $-1 $-1 $162 $63 #
plane-surface $-1 0 28.317742741918742 0 0 -1 0 0 0 -1 forward_v I I I I #
coedge $-1 $163 $164 $165 $166 forward $64 $-1 #
face $-1 $167 $168 $38 $-1 $169 reversed single #
loop $-1 $-1 $170 $66 #
plane-surface $-1 -31.075161569097673 -7.3241225513020822 47.117698122139018 0 0.77714596973225614 0.62932038083071107 1 0 0 forward_v I I I I #
coedge $-1 $171 $172 $173 $174 reversed $67 $-1 #
face $-1 $-1 $175 $39 $-1 $176 forward single #
loop $-1 $177 $178 $69 #
cone-surface $-1 -34.651809619782313 22.221621876229456 3.7405669677746403 0 -0.77714596973225614 -0.62932038083071107 0.5 0 0 1 I I -0.70710678118654746 0.70710678118654746 0.5 forward I I I I #
loop $-1 $-1 $179 $51 #
coedge $-1 $112 $112 $180 $181 reversed $70 $-1 #
face $-1 $-1 $182 $40 $-1 $183 forward single #
loop $-1 $184 $185 $72 #
cone-surface $-1 -27.498513518413034 22.221621876229456 3.7405669677746403 0 -0.77714596973225614 -0.62932038083071107 0.5 0 0 1 I I -0.70710678118654746 0.70710678118654746 0.5 forward I I I I #
loop $-1 $-1 $186 $52 #
coedge $-1 $117 $117 $187 $188 reversed $73 $-1 #
face $-1 $189 $190 $41 $-1 $191 forward single #
loop $-1 $-1 $192 $75 #
plane-surface $-1 42.809613465402343 -7.3241225513020822 47.117698122139018 0 0.77714596973225614 0.62932038083071107 1 0 0 forward_v I I I I #
coedge $-1 $193 $194 $195 $196 reversed $76 $-1 #
face $-1 $-1 $197 $42 $-1 $198 forward single #
loop $-1 $199 $200 $78 #
cone-surface $-1 39.232965414717704 22.221621876229456 3.7405669677746403 0 -0.77714596973225614 -0.62932038083071107 0.5 0 0 1 I I -0.70710678118654746 0.70710678118654746 0.5 forward I I I I #
loop $-1 $-1 $201 $54 #
coedge $-1 $126 $126 $202 $203 reversed $79 $-1 #
face $-1 $-1 $204 $43 $-1 $205 forward single #
loop $-1 $206 $207 $81 #
cone-surface $-1 46.386261516086982 22.221621876229456 3.7405669677746403 0 -0.77714596973225614 -0.62932038083071107 0.5 0 0 1 I I -0.70710678118654746 0.70710678118654746 0.5 forward I I I I #
loop $-1 $-1 $208 $55 #
coedge $-1 $131 $131 $209 $210 reversed $82 $-1 #
face $-1 $211 $212 $44 $-1 $213 reversed single #
loop $-1 $-1 $214 $84 #
plane-surface $-1 33.281526332676059 -28.31774274191875 1.3161916775656692 0 -0.69465837861970381 0.71933979245794832 1 0 0 forward_v I I I I #
coedge $-1 $215 $216 $217 $218 reversed $85 $-1 #
face $-1 $-1 $219 $45 $-1 $220 forward single #
loop $-1 $221 $222 $87 #
cone-surface $-1 28.633044846909137 -19.22436736604168 0.7275130782789887 0 0.69465837861970381 -0.71933979245794832 0.75 0 0 1 I I -0.70710678118654757 0.70710678118654757 0.75 forward I I I I #
loop $-1 $-1 $223 $57 #
coedge $-1 $140 $140 $224 $225 reversed $88 $-1 #
face $-1 $-1 $226 $46 $-1 $227 forward single #
loop $-1 $228 $229 $90 #
cone-surface $-1 33.281526332676059 -19.22436736604168 0.7275130782789887 0 0.69465837861970381 -0.71933979245794832 0.75 0 0 1 I I -0.70710678118654757 0.70710678118654757 0.75 forward I I I I #
loop $-1 $-1 $230 $58 #
coedge $-1 $145 $145 $231 $232 reversed $91 $-1 #
face $-1 $-1 $233 $47 $-1 $234 forward single #
loop $-1 $235 $236 $93 #
cone-surface $-1 37.930007818442981 -19.22436736604168 0.7275130782789887 0 0.69465837861970381 -0.71933979245794832 0.75 0 0 1 I I -0.70710678118654757 0.70710678118654757 0.75 forward I I I I #
loop $-1 $-1 $237 $59 #
coedge $-1 $150 $150 $238 $239 reversed $94 $-1 #
face $-1 $240 $241 $36 $-1 $242 reversed single #
loop $-1 $-1 $243 $96 #
plane-surface $-1 0 -28.317742741918742 0 0 1 0 0 0 1 forward_v I I I I #
coedge $-1 $244 $245 $246 $247 forward $97 $-1 #
coedge $-1 $248 $99 $249 $250 forward $61 $-1 #
coedge $-1 $99 $248 $251 $252 forward $61 $-1 #
coedge $-1 $253 $254 $99 $158 reversed $255 $-1 #
edge $-1 $256 -28.317742741918742 $257 28.317742741918742 $157 $258 forward 7 unknown #
face $-1 $259 $260 $37 $-1 $261 reversed single #
loop $-1 $-1 $165 $100 #
plane-surface $-1 -57.022351531818828 0 5.3157711269698549 0 0 1 1 0 0 forward_v I I I I #
coedge $-1 $262 $263 $163 $264 forward $101 $-1 #
coedge $-1 $265 $103 $162 $264 reversed $64 $-1 #
coedge $-1 $103 $265 $266 $267 reversed $64 $-1 #
coedge $-1 $268 $269 $103 $166 reversed $160 $-1 #
edge $-1 $270 -28.317742741918742 $271 28.317742741918742 $165 $272 forward 7 unknown #
face $-1 $273 $274 $38 $-1 $275 forward single #
loop $-1 $-1 $276 $104 #
plane-surface $-1 -22.729649450833513 72.185876805685609 111.50362434965072 -1 0 0 0 0.77714596973225614 0.62932038083071107 forward_v I I I I #
coedge $-1 $277 $278 $279 $280 reversed $105 $-1 #
coedge $-1 $172 $107 $281 $282 reversed $67 $-1 #
coedge $-1 $107 $171 $277 $283 reversed $67 $-1 #
coedge $-1 $279 $284 $107 $174 forward $274 $-1 #
edge $-1 $285 7.7751956609240622 $286 13.226851732103178 $173 $287 forward 7 unknown #
loop $-1 $-1 $180 $108 #
plane-surface $-1 -31.075161569097673 -7.3241225513020822 47.117698122139018 0 0.77714596973225614 0.62932038083071107 1 0 0 forward_v I I I I #
loop $-1 $-1 $288 $69 #
coedge $-1 $178 $178 $179 $289 reversed $109 $-1 #
coedge $-1 $179 $179 $178 $289 forward $111 $-1 #
coedge $-1 $180 $180 $112 $181 forward $175 $-1 #
edge $-1 $290 1.380488558546233e-015 $290 6.2831853071796022 $180 $291 forward 7 unknown #
loop $-1 $-1 $187 $113 #
plane-surface $-1 -31.075161569097673 -7.3241225513020822 47.117698122139018 0 0.77714596973225614 0.62932038083071107 1 0 0 forward_v I I I I #
loop $-1 $-1 $292 $72 #
coedge $-1 $185 $185 $186 $293 reversed $114 $-1 #
coedge $-1 $186 $186 $185 $293 forward $116 $-1 #
coedge $-1 $187 $187 $117 $188 forward $182 $-1 #
edge $-1 $294 1.380488558546233e-015 $294 6.2831853071796022 $187 $295 forward 7 unknown #
face $-1 $296 $297 $41 $-1 $298 reversed single #
loop $-1 $-1 $195 $118 #
plane-surface $-1 0 0 9.8358935962584226 0 0 1 1 0 0 forward_v I I I I #
coedge $-1 $299 $300 $301 $302 reversed $119 $-1 #
coedge $-1 $194 $121 $303 $304 reversed $76 $-1 #
coedge $-1 $121 $193 $299 $305 reversed $76 $-1 #
coedge $-1 $301 $306 $121 $196 forward $190 $-1 #
edge $-1 $307 7.7751956609240622 $308 13.226851732103178 $195 $309 forward 7 unknown #
loop $-1 $-1 $202 $122 #
plane-surface $-1 42.809613465402343 -7.3241225513020822 47.117698122139018 0 0.77714596973225614 0.62932038083071107 1 0 0 forward_v I I I I #
loop $-1 $-1 $310 $78 #
coedge $-1 $200 $200 $201 $311 reversed $123 $-1 #
coedge $-1 $201 $201 $200 $311 forward $125 $-1 #
coedge $-1 $202 $202 $126 $203 forward $197 $-1 #
edge $-1 $312 1.380488558546233e-015 $312 6.2831853071796022 $202 $313 forward 7 unknown #
loop $-1 $-1 $209 $127 #
plane-surface $-1 42.809613465402343 -7.3241225513020822 47.117698122139018 0 0.77714596973225614 0.62932038083071107 1 0 0 forward_v I I I I #
loop $-1 $-1 $314 $81 #
coedge $-1 $207 $207 $208 $315 reversed $128 $-1 #
coedge $-1 $208 $208 $207 $315 forward $130 $-1 #
coedge $-1 $209 $209 $131 $210 forward $204 $-1 #
edge $-1 $316 1.380488558546233e-015 $316 6.2831853071796022 $209 $317 forward 7 unknown #
face $-1 $318 $319 $44 $-1 $320 reversed single #
loop $-1 $-1 $321 $132 #
plane-surface $-1 25.534057189731186 -99.388415933992945 74.912026518595553 1 0 0 0 0.69465837861970381 -0.71933979245794832 forward_v I I I I #
coedge $-1 $322 $323 $324 $325 reversed $133 $-1 #
coedge $-1 $216 $135 $326 $327 reversed $85 $-1 #
coedge $-1 $135 $215 $322 $328 reversed $85 $-1 #
coedge $-1 $324 $329 $135 $218 forward $330 $-1 #
edge $-1 $331 21.37646522507773 $332 30.198874626046248 $217 $333 forward 7 unknown #
loop $-1 $-1 $224 $136 #
plane-surface $-1 33.281526332676059 -28.31774274191875 1.3161916775656692 0 -0.69465837861970381 0.71933979245794832 1 0 0 forward_v I I I I #
loop $-1 $-1 $334 $87 #
coedge $-1 $222 $222 $223 $335 reversed $137 $-1 #
coedge $-1 $223 $223 $222 $335 forward $139 $-1 #
coedge $-1 $224 $224 $140 $225 forward $219 $-1 #
edge $-1 $336 -1.6452815492103992e-015 $336 6.2831853071795987 $224 $337 forward 7 unknown #
loop $-1 $-1 $231 $141 #
plane-surface $-1 33.281526332676059 -28.31774274191875 1.3161916775656692 0 -0.69465837861970381 0.71933979245794832 1 0 0 forward_v I I I I #
loop $-1 $-1 $338 $90 #
coedge $-1 $229 $229 $230 $339 reversed $142 $-1 #
coedge $-1 $230 $230 $229 $339 forward $144 $-1 #
coedge $-1 $231 $231 $145 $232 forward $226 $-1 #
edge $-1 $340 -1.6452815492103992e-015 $340 6.2831853071795987 $231 $341 forward 7 unknown #
loop $-1 $-1 $238 $146 #
plane-surface $-1 33.281526332676059 -28.31774274191875 1.3161916775656692 0 -0.69465837861970381 0.71933979245794832 1 0 0 forward_v I I I I #
loop $-1 $-1 $342 $93 #
coedge $-1 $236 $236 $237 $343 reversed $147 $-1 #
coedge $-1 $237 $237 $236 $343 forward $149 $-1 #
coedge $-1 $238 $238 $150 $239 forward $233 $-1 #
edge $-1 $344 -1.6452815492103992e-015 $344 6.2831853071795987 $238 $345 forward 7 unknown #
face $-1 $346 $347 $36 $-1 $348 reversed single #
loop $-1 $-1 $349 $151 #
plane-surface $-1 -51.155125583666496 0 0 1 0 0 0 0 -1 forward_v I I I I #
coedge $-1 $350 $251 $351 $352 forward $152 $-1 #
coedge $-1 $353 $154 $350 $354 forward $97 $-1 #
coedge $-1 $154 $353 $355 $356 forward $97 $-1 #
coedge $-1 $254 $253 $154 $247 reversed $255 $-1 #
edge $-1 $357 -28.317742741918742 $358 28.317742741918742 $246 $359 forward 7 unknown #
coedge $-1 $156 $155 $360 $361 forward $61 $-1 #
coedge $-1 $362 $363 $155 $250 reversed $347 $-1 #
edge $-1 $257 -51.155125583666496 $364 51.155125583666496 $249 $365 forward 7 unknown #
coedge $-1 $243 $366 $156 $252 reversed $152 $-1 #
edge $-1 $367 -51.155125583666496 $256 51.155125583666496 $251 $368 forward 7 unknown #
coedge $-1 $246 $157 $366 $369 forward $255 $-1 #
coedge $-1 $157 $246 $362 $370 reversed $255 $-1 #
loop $-1 $-1 $253 $346 #
vertex $-1 $158 $371 #
vertex $-1 $158 $372 #
straight-curve $-1 51.155125583666496 0 9.8358935962584226 0 1 0 I I #
face $-1 $373 $374 $37 $-1 $375 forward single #
loop $-1 $-1 $376 $159 #
plane-surface $-1 -62.889577479971159 0 7.5758323616141396 1 0 0 0 0 -1 forward_v I I I I #
coedge $-1 $377 $162 $269 $378 reversed $101 $-1 #
coedge $-1 $162 $377 $379 $380 reversed $101 $-1 #
edge $-1 $381 -9.8358935962584226 $271 -5.3157711269698549 $162 $382 forward 7 unknown #
coedge $-1 $164 $163 $383 $384 reversed $64 $-1 #
coedge $-1 $385 $386 $164 $267 forward $387 $-1 #
edge $-1 $270 5.3157711269698549 $388 9.8358935962584226 $266 $389 forward 7 unknown #
coedge $-1 $390 $165 $386 $391 forward $160 $-1 #
coedge $-1 $165 $390 $262 $378 forward $160 $-1 #
vertex $-1 $267 $392 #
vertex $-1 $264 $393 #
straight-curve $-1 -51.155125583666496 0 5.3157711269698549 0 1 0 I I #
face $-1 $-1 $394 $38 $-1 $395 reversed single #
loop $-1 $-1 $173 $167 #
plane-surface $-1 0 0 9.8358935962584226 0 0 1 1 0 0 forward_v I I I I #
coedge $-1 $396 $397 $398 $399 reversed $168 $-1 #
coedge $-1 $400 $170 $172 $283 forward $105 $-1 #
coedge $-1 $170 $400 $396 $401 forward $105 $-1 #
coedge $-1 $398 $173 $170 $280 forward $274 $-1 #
edge $-1 $286 -23.883092902812997 $402 -7.1920686662846762 $279 $403 forward 7 unknown #
coedge $-1 $404 $405 $171 $282 forward $394 $-1 #
edge $-1 $406 -52.648153340280352 $285 -45.915918578566938 $281 $407 forward 7 unknown #
edge $-1 $286 47.972718096608027 $406 56.635485483837499 $172 $408 forward 7 unknown #
coedge $-1 $173 $398 $404 $409 forward $274 $-1 #
vertex $-1 $282 $410 #
vertex $-1 $174 $411 #
straight-curve $-1 -39.420673687361834 36.092938402842805 9.8358935962584226 0 -1 0 I I #
coedge $-1 $288 $288 $-1 $412 reversed $177 $-1 #
edge $-1 $413 0 $413 6.2831853071796004 $178 $414 forward 7 unknown #
vertex $-1 $181 $415 #
ellipse-curve $-1 -34.651809619782313 25.591914706329188 6.4697762154017102 0 0.77714596973225614 0.62932038083071107 1 0 0 1 I I #
coedge $-1 $292 $292 $-1 $416 reversed $184 $-1 #
edge $-1 $417 0 $417 6.2831853071796004 $185 $418 forward 7 unknown #
vertex $-1 $188 $419 #
ellipse-curve $-1 -27.498513518413034 25.591914706329188 6.4697762154017102 0 0.77714596973225614 0.62932038083071107 1 0 0 1 I I #
face $-1 $-1 $420 $41 $-1 $421 reversed single #
loop $-1 $-1 $303 $189 #
plane-surface $-1 0 28.317742741918742 0 0 -1 0 0 0 -1 forward_v I I I I #
coedge $-1 $422 $192 $194 $305 forward $119 $-1 #
coedge $-1 $192 $422 $423 $424 reversed $119 $-1 #
coedge $-1 $425 $195 $192 $302 forward $190 $-1 #
edge $-1 $308 13.059294614437011 $426 29.750318850965332 $301 $427 forward 7 unknown #
coedge $-1 $428 $429 $193 $304 forward $297 $-1 #
edge $-1 $430 -52.648153340280352 $307 -45.915918578566938 $303 $431 forward 7 unknown #
edge $-1 $308 47.972718096608027 $430 56.635485483837499 $194 $432 forward 7 unknown #
coedge $-1 $195 $425 $428 $433 forward $190 $-1 #
vertex $-1 $196 $434 #
vertex $-1 $196 $435 #
straight-curve $-1 34.464101347138183 36.092938402842805 9.8358935962584226 0 -1 0 I I #
coedge $-1 $310 $310 $-1 $436 reversed $199 $-1 #
edge $-1 $437 0 $437 6.2831853071796004 $200 $438 forward 7 unknown #
vertex $-1 $203 $439 #
ellipse-curve $-1 39.232965414717704 25.591914706329188 6.4697762154017102 0 0.77714596973225614 0.62932038083071107 1 0 0 1 I I #
coedge $-1 $314 $314 $-1 $440 reversed $206 $-1 #
edge $-1 $441 0 $441 6.2831853071796004 $207 $442 forward 7 unknown #
vertex $-1 $210 $443 #
ellipse-curve $-1 46.386261516086982 25.591914706329188 6.4697762154017102 0 0.77714596973225614 0.62932038083071107 1 0 0 1 I I #
face $-1 $-1 $330 $44 $-1 $444 forward single #
loop $-1 $-1 $445 $211 #
plane-surface $-1 0 -28.317742741918742 0 0 1 0 0 0 1 forward_v I I I I #
coedge $-1 $446 $447 $448 $449 reversed $212 $-1 #
coedge $-1 $450 $214 $216 $328 forward $133 $-1 #
coedge $-1 $214 $450 $446 $451 forward $133 $-1 #
coedge $-1 $448 $217 $214 $325 forward $330 $-1 #
edge $-1 $332 -24.388232309282902 $452 -8.8932940233931568 $324 $453 forward 7 unknown #
coedge $-1 $454 $455 $215 $327 forward $319 $-1 #
edge $-1 $456 -36.1398215817321 $331 -27.620119663039354 $326 $457 forward 7 unknown #
edge $-1 $332 -12.264592468634039 $456 -9.8928161431344572e-015 $216 $458 forward 7 unknown #
coedge $-1 $217 $448 $454 $459 forward $330 $-1 #
loop $-1 $-1 $448 $318 #
vertex $-1 $327 $460 #
vertex $-1 $218 $461 #
straight-curve $-1 41.028995475620931 -49.694207966996473 9.8358935962584226 0 1 0 I I #
coedge $-1 $334 $334 $-1 $462 reversed $221 $-1 #
edge $-1 $463 0 $463 6.2831853071796004 $222 $464 forward 7 unknown #
vertex $-1 $225 $465 #
ellipse-curve $-1 28.633044846909137 -23.90653804143448 5.5760426369120504 0 -0.69465837861970381 0.71933979245794832 1.5 0 0 1 I I #
coedge $-1 $338 $338 $-1 $466 reversed $228 $-1 #
edge $-1 $467 0 $467 6.2831853071796004 $229 $468 forward 7 unknown #
vertex $-1 $232 $469 #
ellipse-curve $-1 33.281526332676059 -23.90653804143448 5.5760426369120504 0 -0.69465837861970381 0.71933979245794832 1.5 0 0 1 I I #
coedge $-1 $342 $342 $-1 $470 reversed $235 $-1 #
edge $-1 $471 0 $471 6.2831853071796004 $236 $472 forward 7 unknown #
vertex $-1 $239 $473 #
ellipse-curve $-1 37.930007818442981 -23.90653804143448 5.5760426369120504 0 -0.69465837861970381 0.71933979245794832 1.5 0 0 1 I I #
face $-1 $-1 $255 $36 $-1 $474 reversed single #
loop $-1 $-1 $362 $240 #
plane-surface $-1 0 28.317742741918742 0 0 -1 0 0 0 -1 forward_v I I I I #
coedge $-1 $475 $360 $363 $476 forward $241 $-1 #
coedge $-1 $366 $243 $244 $354 reversed $152 $-1 #
coedge $-1 $360 $475 $243 $352 reversed $241 $-1 #
edge $-1 $367 -9.8358935962584226 $477 9.8358935962584226 $351 $478 forward 7 unknown #
coedge $-1 $245 $244 $475 $479 forward $97 $-1 #
edge $-1 $358 -51.155125583666496 $477 51.155125583666496 $350 $480 forward 7 unknown #
coedge $-1 $363 $362 $245 $356 reversed $347 $-1 #
edge $-1 $481 -51.155125583666496 $357 51.155125583666496 $355 $482 forward 7 unknown #
vertex $-1 $247 $483 #
vertex $-1 $369 $484 #
straight-curve $-1 51.155125583666496 0 -9.8358935962584226 0 -1 0 I I #
coedge $-1 $349 $351 $248 $361 reversed $241 $-1 #
edge $-1 $364 -28.317742741918742 $367 28.317742741918742 $360 $485 forward 7 unknown #
coedge $-1 $355 $249 $254 $370 forward $347 $-1 #
coedge $-1 $249 $355 $349 $476 reversed $347 $-1 #
vertex $-1 $250 $486 #
straight-curve $-1 0 28.317742741918742 9.8358935962584226 -1 0 0 I I #
coedge $-1 $251 $350 $253 $369 reversed $152 $-1 #
vertex $-1 $361 $487 #
straight-curve $-1 0 -28.317742741918742 9.8358935962584226 1 0 0 I I #
edge $-1 $256 -9.8358935962584226 $358 9.8358935962584226 $253 $488 forward 7 unknown #
edge $-1 $257 -9.8358935962584226 $357 9.8358935962584226 $254 $489 forward 7 unknown #
point $-1 51.155125583666496 -28.317742741918742 9.8358935962584226 #
point $-1 51.155125583666496 28.317742741918742 9.8358935962584226 #
face $-1 $-1 $387 $37 $-1 $490 reversed single #
loop $-1 $-1 $383 $259 #
plane-surface $-1 0 0 9.8358935962584226 0 0 1 1 0 0 forward_v I I I I #
coedge $-1 $491 $492 $377 $493 forward $260 $-1 #
coedge $-1 $263 $262 $376 $493 reversed $101 $-1 #
edge $-1 $494 -5.8672259481523312 $271 5.8672259481523312 $262 $495 forward 7 unknown #
coedge $-1 $496 $383 $263 $380 forward $374 $-1 #
edge $-1 $381 51.155125583666496 $497 62.889577479971159 $263 $498 forward 7 unknown #
vertex $-1 $380 $499 #
straight-curve $-1 -51.155125583666496 28.317742741918742 0 0 0 -1 I I #
coedge $-1 $379 $500 $265 $384 forward $374 $-1 #
edge $-1 $388 -28.317742741918742 $381 28.317742741918742 $383 $501 forward 7 unknown #
coedge $-1 $502 $266 $500 $503 reversed $387 $-1 #
coedge $-1 $266 $502 $268 $391 reversed $387 $-1 #
loop $-1 $-1 $266 $373 #
vertex $-1 $267 $504 #
straight-curve $-1 -51.155125583666496 -28.317742741918742 0 0 0 1 I I #
coedge $-1 $269 $268 $491 $505 forward $160 $-1 #
edge $-1 $270 -5.8672259481523312 $506 5.8672259481523312 $386 $507 forward 7 unknown #
point $-1 -51.155125583666496 -28.317742741918742 5.3157711269698549 #
point $-1 -51.155125583666496 28.317742741918742 5.3157711269698549 #
loop $-1 $-1 $281 $273 #
plane-surface $-1 0 28.317742741918742 0 0 -1 0 0 0 -1 forward_v I I I I #
coedge $-1 $397 $276 $278 $401 reversed $168 $-1 #
coedge $-1 $276 $396 $508 $509 reversed $168 $-1 #
coedge $-1 $284 $279 $276 $399 forward $274 $-1 #
edge $-1 $402 -13.226851732103178 $510 -7.7751956609240622 $398 $511 forward 7 unknown #
coedge $-1 $278 $277 $405 $512 reversed $105 $-1 #
edge $-1 $513 -56.635485483837499 $402 -47.972718096608027 $396 $514 forward 7 unknown #
vertex $-1 $280 $515 #
straight-curve $-1 -15.537580784548837 22.866086670739623 9.8358935962584226 1 0 0 I I #
coedge $-1 $508 $281 $284 $409 reversed $394 $-1 #
coedge $-1 $281 $508 $400 $512 forward $394 $-1 #
vertex $-1 $282 $516 #
straight-curve $-1 -39.420673687361834 28.317742741918742 55.751812174825361 0 0 1 I I #
straight-curve $-1 -39.420673687361834 -7.3241225513020822 47.117698122139018 0 0.62932038083071107 -0.77714596973225614 I I #
edge $-1 $510 22.729649450833513 $285 39.420673687361834 $404 $517 forward 7 unknown #
point $-1 -39.420673687361834 28.317742741918742 9.8358935962584226 #
point $-1 -39.420673687361834 22.866086670739627 9.8358935962584226 #
edge $-1 $518 1 $518 0 $288 $-1 forward 7 unknown #
vertex $-1 $289 $519 #
ellipse-curve $-1 -34.651809619782313 22.610194861095582 4.0552271581899957 0 0.77714596973225614 0.62932038083071107 1 0 0 1 I I #
point $-1 -33.651809619782313 25.591914706329188 6.4697762154017084 #
edge $-1 $520 1 $520 0 $292 $-1 forward 7 unknown #
vertex $-1 $293 $521 #
ellipse-curve $-1 -27.498513518413034 22.610194861095582 4.0552271581899957 0 0.77714596973225614 0.62932038083071107 1 0 0 1 I I #
point $-1 -26.498513518413034 25.591914706329188 6.4697762154017084 #
loop $-1 $-1 $423 $296 #
plane-surface $-1 51.155125583666496 0 0 -1 0 0 0 0 1 forward_v I I I I #
coedge $-1 $300 $299 $429 $522 reversed $119 $-1 #
coedge $-1 $523 $524 $300 $424 forward $420 $-1 #
edge $-1 $426 27.359443700649194 $525 36.022211087878674 $423 $526 forward 7 unknown #
coedge $-1 $306 $301 $524 $527 forward $190 $-1 #
vertex $-1 $527 $528 #
straight-curve $-1 21.404806732701172 22.866086670739623 9.8358935962584226 1 0 0 I I #
coedge $-1 $529 $303 $306 $433 reversed $297 $-1 #
coedge $-1 $303 $529 $422 $522 forward $297 $-1 #
vertex $-1 $304 $530 #
straight-curve $-1 34.464101347138183 28.317742741918742 55.751812174825361 0 0 1 I I #
straight-curve $-1 34.464101347138183 -7.3241225513020822 47.117698122139018 0 0.62932038083071107 -0.77714596973225614 I I #
edge $-1 $531 -51.155125583666496 $307 -34.464101347138183 $428 $532 forward 7 unknown #
point $-1 34.464101347138183 28.317742741918742 9.8358935962584226 #
point $-1 34.464101347138183 22.866086670739627 9.8358935962584226 #
edge $-1 $533 1 $533 0 $310 $-1 forward 7 unknown #
vertex $-1 $311 $534 #
ellipse-curve $-1 39.232965414717704 22.610194861095582 4.0552271581899957 0 0.77714596973225614 0.62932038083071107 1 0 0 1 I I #
point $-1 40.232965414717704 25.591914706329188 6.4697762154017084 #
edge $-1 $535 1 $535 0 $314 $-1 forward 7 unknown #
vertex $-1 $315 $536 #
ellipse-curve $-1 46.386261516086982 22.610194861095582 4.0552271581899957 0 0.77714596973225614 0.62932038083071107 1 0 0 1 I I #
point $-1 47.386261516086982 25.591914706329188 6.4697762154017084 #
plane-surface $-1 0 0 9.8358935962584226 0 0 1 1 0 0 forward_v I I I I #
coedge $-1 $455 $454 $447 $537 forward $319 $-1 #
coedge $-1 $447 $321 $323 $451 reversed $212 $-1 #
coedge $-1 $321 $446 $445 $537 reversed $212 $-1 #
coedge $-1 $329 $324 $321 $449 forward $330 $-1 #
edge $-1 $452 -30.198874626046248 $538 -21.37646522507773 $448 $539 forward 7 unknown #
coedge $-1 $323 $322 $455 $540 reversed $133 $-1 #
edge $-1 $541 9.8928161431344572e-015 $452 12.264592468634039 $446 $542 forward 7 unknown #
vertex $-1 $325 $543 #
straight-curve $-1 16.640763166338029 -19.495333340950225 9.8358935962584226 -1 0 0 I I #
coedge $-1 $445 $326 $329 $459 reversed $319 $-1 #
coedge $-1 $326 $445 $450 $540 forward $319 $-1 #
vertex $-1 $327 $544 #
straight-curve $-1 41.028995475620931 -28.317742741918742 37.456013259297777 0 0 1 I I #
straight-curve $-1 41.028995475620931 -28.31774274191875 1.3161916775656692 0 -0.71933979245794832 -0.69465837861970381 I I #
edge $-1 $538 25.534057189731186 $331 41.028995475620931 $454 $545 forward 7 unknown #
point $-1 41.028995475620931 -28.317742741918742 9.8358935962584226 #
point $-1 41.028995475620931 -19.495333340950225 9.8358935962584226 #
edge $-1 $546 1 $546 0 $334 $-1 forward 7 unknown #
vertex $-1 $335 $547 #
ellipse-curve $-1 28.633044846909137 -19.745361150006456 1.2670179226224501 0 -0.69465837861970381 0.71933979245794832 1.5 0 0 1 I I #
point $-1 30.133044846909137 -23.90653804143448 5.5760426369120468 #
edge $-1 $548 1 $548 0 $338 $-1 forward 7 unknown #
vertex $-1 $339 $549 #
ellipse-curve $-1 33.281526332676059 -19.745361150006456 1.2670179226224501 0 -0.69465837861970381 0.71933979245794832 1.5 0 0 1 I I #
point $-1 34.781526332676059 -23.90653804143448 5.5760426369120468 #
edge $-1 $550 1 $550 0 $342 $-1 forward 7 unknown #
vertex $-1 $343 $551 #
ellipse-curve $-1 37.930007818442981 -19.745361150006456 1.2670179226224501 0 -0.69465837861970381 0.71933979245794832 1.5 0 0 1 I I #
point $-1 39.430007818442981 -23.90653804143448 5.5760426369120468 #
plane-surface $-1 51.155125583666496 0 0 -1 0 0 0 0 1 forward_v I I I I #
coedge $-1 $351 $349 $353 $479 reversed $241 $-1 #
edge $-1 $364 -9.8358935962584226 $481 9.8358935962584226 $363 $552 forward 7 unknown #
vertex $-1 $479 $553 #
straight-curve $-1 -51.155125583666496 -28.317742741918742 0 0 0 -1 I I #
edge $-1 $477 -28.317742741918742 $481 28.317742741918742 $475 $554 forward 7 unknown #
straight-curve $-1 0 -28.317742741918742 -9.8358935962584226 -1 0 0 I I #
vertex $-1 $356 $555 #
straight-curve $-1 0 28.317742741918742 -9.8358935962584226 1 0 0 I I #
point $-1 51.155125583666496 28.317742741918742 -9.8358935962584226 #
point $-1 51.155125583666496 -28.317742741918742 -9.8358935962584226 #
straight-curve $-1 -51.155125583666496 0 9.8358935962584226 0 -1 0 I I #
point $-1 -51.155125583666496 28.317742741918742 9.8358935962584226 #
point $-1 -51.155125583666496 -28.317742741918742 9.8358935962584226 #
straight-curve $-1 51.155125583666496 -28.317742741918742 0 0 0 -1 I I #
straight-curve $-1 51.155125583666496 28.317742741918742 0 0 0 -1 I I #
plane-surface $-1 0 -28.317742741918742 0 0 1 0 0 0 1 forward_v I I I I #
coedge $-1 $556 $376 $390 $505 reversed $260 $-1 #
coedge $-1 $376 $556 $496 $557 reversed $260 $-1 #
edge $-1 $497 -2.2600612346442848 $494 2.2600612346442848 $377 $558 forward 7 unknown #
vertex $-1 $378 $559 #
straight-curve $-1 -57.022351531818828 28.317742741918742 5.3157711269698549 1 0 0 I I #
coedge $-1 $500 $379 $492 $557 forward $374 $-1 #
vertex $-1 $380 $560 #
straight-curve $-1 0 28.317742741918742 9.8358935962584226 -1 0 0 I I #
point $-1 -51.155125583666496 28.317742741918742 9.8358935962584226 #
coedge $-1 $383 $496 $385 $503 forward $374 $-1 #
straight-curve $-1 -51.155125583666496 0 9.8358935962584226 0 1 0 I I #
coedge $-1 $386 $385 $556 $561 forward $387 $-1 #
edge $-1 $562 -62.889577479971159 $388 -51.155125583666496 $385 $563 forward 7 unknown #
point $-1 -51.155125583666496 -28.317742741918742 9.8358935962584226 #
edge $-1 $506 -28.317742741918742 $494 28.317742741918742 $491 $564 forward 7 unknown #
vertex $-1 $505 $565 #
straight-curve $-1 -57.022351531818828 -28.317742741918742 5.3157711269698549 -1 0 0 I I #
coedge $-1 $405 $404 $397 $509 forward $394 $-1 #
edge $-1 $510 45.915918578566938 $513 52.648153340280352 $508 $566 forward 7 unknown #
vertex $-1 $409 $567 #
straight-curve $-1 -22.729649450833513 36.092938402842805 9.8358935962584226 0 1 0 I I #
edge $-1 $513 7.1920686662846762 $406 23.883092902812997 $405 $568 forward 7 unknown #
vertex $-1 $512 $569 #
straight-curve $-1 -22.729649450833513 -7.3241225513020822 47.117698122139018 0 -0.62932038083071107 0.77714596973225614 I I #
point $-1 -22.729649450833513 22.866086670739627 9.8358935962584226 #
point $-1 -39.420673687361834 28.317742741918742 3.1036588345450085 #
straight-curve $-1 0 28.317742741918742 9.8358935962584226 -1 0 0 I I #
vertex $-1 $412 $570 #
point $-1 -33.651809619782313 22.610194861095582 4.0552271581899957 #
vertex $-1 $416 $571 #
point $-1 -26.498513518413034 22.610194861095582 4.0552271581899957 #
edge $-1 $525 -29.750318850965332 $430 -13.059294614437011 $429 $572 forward 7 unknown #
coedge $-1 $524 $423 $529 $573 reversed $420 $-1 #
coedge $-1 $423 $523 $425 $527 reversed $420 $-1 #
vertex $-1 $424 $574 #
straight-curve $-1 51.155125583666496 5.6482311417306725 31.098175002334507 0 0.62932038083071107 -0.77714596973225614 I I #
edge $-1 $426 22.866086670739627 $531 28.317742741918742 $524 $575 forward 7 unknown #
point $-1 51.155125583666504 22.866086670739627 9.8358935962584226 #
coedge $-1 $429 $428 $523 $573 forward $297 $-1 #
point $-1 34.464101347138183 28.317742741918742 3.1036588345450085 #
vertex $-1 $527 $576 #
straight-curve $-1 0 28.317742741918742 9.8358935962584226 -1 0 0 I I #
vertex $-1 $436 $577 #
point $-1 40.232965414717704 22.610194861095582 4.0552271581899957 #
vertex $-1 $440 $578 #
point $-1 47.386261516086982 22.610194861095582 4.0552271581899957 #
edge $-1 $538 27.620119663039354 $541 36.1398215817321 $445 $579 forward 7 unknown #
vertex $-1 $459 $580 #
straight-curve $-1 25.534057189731186 -49.694207966996473 9.8358935962584226 0 -1 0 I I #
edge $-1 $541 8.8932940233931568 $456 24.388232309282902 $455 $581 forward 7 unknown #
vertex $-1 $540 $582 #
straight-curve $-1 25.534057189731186 -28.31774274191875 1.3161916775656692 0 0.71933979245794832 0.69465837861970381 I I #
point $-1 25.534057189731186 -19.495333340950225 9.8358935962584226 #
point $-1 41.028995475620931 -28.317742741918742 1.3161916775656761 #
straight-curve $-1 0 -28.317742741918742 9.8358935962584226 1 0 0 I I #
vertex $-1 $462 $583 #
point $-1 30.133044846909137 -19.745361150006456 1.2670179226224501 #
vertex $-1 $466 $584 #
point $-1 34.781526332676059 -19.745361150006456 1.2670179226224501 #
vertex $-1 $470 $585 #
point $-1 39.430007818442981 -19.745361150006456 1.2670179226224501 #
straight-curve $-1 -51.155125583666496 28.317742741918742 0 0 0 -1 I I #
point $-1 -51.155125583666496 -28.317742741918742 -9.8358935962584226 #
straight-curve $-1 -51.155125583666496 0 -9.8358935962584226 0 1 0 I I #
point $-1 -51.155125583666496 28.317742741918742 -9.8358935962584226 #
coedge $-1 $492 $491 $502 $561 reversed $260 $-1 #
edge $-1 $497 -28.317742741918742 $562 28.317742741918742 $492 $586 forward 7 unknown #
straight-curve $-1 -62.889577479971159 28.317742741918742 7.5758323616141396 0 0 -1 I I #
point $-1 -62.889577479971159 28.317742741918742 5.3157711269698549 #
point $-1 -62.889577479971159 28.317742741918742 9.8358935962584244 #
edge $-1 $562 -2.2600612346442848 $506 2.2600612346442848 $556 $587 forward 7 unknown #
vertex $-1 $557 $588 #
straight-curve $-1 0 -28.317742741918742 9.8358935962584226 1 0 0 I I #
straight-curve $-1 -62.889577479971159 0 5.3157711269698549 0 1 0 I I #
point $-1 -62.889577479971159 -28.317742741918742 5.3157711269698549 #
straight-curve $-1 -22.729649450833513 28.317742741918742 55.751812174825361 0 0 -1 I I #
point $-1 -22.729649450833513 28.317742741918742 9.8358935962584226 #
straight-curve $-1 -15.537580784548837 28.317742741918742 3.103658834545012 -1 0 0 I I #
point $-1 -22.729649450833513 28.317742741918742 3.1036588345450085 #
point $-1 -34.651809619782313 21.83304889136333 3.4259067773592848 #
point $-1 -27.498513518413034 21.83304889136333 3.4259067773592848 #
straight-curve $-1 21.404806732701172 28.317742741918742 3.103658834545012 -1 0 0 I I #
edge $-1 $531 -9.8358935962584226 $525 -3.1036588345450085 $523 $589 forward 7 unknown #
point $-1 51.155125583666504 28.317742741918742 3.1036588345450085 #
straight-curve $-1 51.155125583666496 0 9.8358935962584226 0 1 0 I I #
point $-1 51.155125583666496 28.317742741918742 9.8358935962584226 #
point $-1 39.232965414717704 21.83304889136333 3.4259067773592848 #
point $-1 46.386261516086982 21.83304889136333 3.4259067773592848 #
straight-curve $-1 25.534057189731186 -28.317742741918742 37.456013259297777 0 0 -1 I I #
point $-1 25.534057189731186 -28.317742741918742 9.8358935962584226 #
straight-curve $-1 16.640763166338029 -28.317742741918742 1.3161916775656759 1 0 0 I I #
point $-1 25.534057189731186 -28.317742741918742 1.3161916775656761 #
point $-1 28.633044846909137 -18.703373582076903 0.18800823393552746 #
point $-1 33.281526332676059 -18.703373582076903 0.18800823393552746 #
point $-1 37.930007818442981 -18.703373582076903 0.18800823393552746 #
straight-curve $-1 -62.889577479971159 0 9.8358935962584244 0 -1 0 I I #
straight-curve $-1 -62.889577479971159 -28.317742741918742 7.5758323616141396 0 0 -1 I I #
point $-1 -62.889577479971159 -28.317742741918742 9.8358935962584244 #
straight-curve $-1 51.155125583666496 28.317742741918742 0 0 0 -1 I I #
End-of-ACIS-data 