500 0 5 0           
7 Unknown 11 ACIS 5.0 NT 24 Fri Mar 26 16:55:47 1999 
-1 9.9999999999999995e-007 1e-010 
body $-1 $5 $-1 $6 #
body $-1 $7 $-1 $8 #
body $-1 $9 $-1 $10 #
body $-1 $11 $-1 $12 #
body $-1 $13 $-1 $14 #
lump $-1 $-1 $15 $0 #
transform $-1 1 0 0 0 1 0 0 0 1 69.206213568529307 37.908497092646513 12.515345643438238 1 rotate no_reflect no_shear #
lump $-1 $-1 $16 $1 #
transform $-1 1 0 0 0 1 0 0 0 1 69.206213568529307 37.908497092646513 12.515345643438238 1 rotate no_reflect no_shear #
lump $-1 $-1 $17 $2 #
transform $-1 1 0 0 0 1 0 0 0 1 69.206213568529307 37.908497092646513 12.515345643438238 1 rotate no_reflect no_shear #
lump $-1 $-1 $18 $3 #
transform $-1 1 0 0 0 1 0 0 0 1 69.206213568529307 37.908497092646513 12.515345643438238 1 rotate no_reflect no_shear #
lump $-1 $-1 $19 $4 #
transform $-1 1 0 0 0 1 0 0 0 1 69.206213568529307 37.908497092646513 12.515345643438238 1 rotate no_reflect no_shear #
shell $-1 $-1 $-1 $20 $-1 $5 #
shell $-1 $-1 $-1 $21 $-1 $7 #
shell $-1 $-1 $-1 $22 $-1 $9 #
shell $-1 $-1 $-1 $23 $-1 $11 #
shell $-1 $-1 $-1 $24 $-1 $13 #
face $-1 $25 $26 $15 $-1 $27 forward single #
face $-1 $28 $29 $16 $-1 $30 forward single #
face $-1 $31 $32 $17 $-1 $33 forward single #
face $-1 $34 $35 $18 $-1 $36 reversed single #
face $-1 $37 $38 $19 $-1 $39 forward single #
face $-1 $40 $41 $15 $-1 $42 reversed single #
loop $-1 $-1 $43 $20 #
plane-surface $-1 0 0 12.515345643438238 0 0 1 1 0 0 forward_v I I I I #
face $-1 $44 $45 $16 $-1 $46 reversed single #
loop $-1 $-1 $47 $21 #
plane-surface $-1 0 -37.908497092646513 0 0 1 0 0 0 1 forward_v I I I I #
face $-1 $48 $49 $17 $-1 $50 reversed single #
loop $-1 $-1 $51 $22 #
plane-surface $-1 0 37.908497092646513 0 0 -1 0 0 0 -1 forward_v I I I I #
face $-1 $52 $53 $18 $-1 $54 reversed single #
loop $-1 $-1 $55 $23 #
plane-surface $-1 -181.18422048782941 6.2745954945344735 83.361953563611721 0 1 0 -0.80901700255871778 0 0.5877852410284794 forward_v I I I I #
face $-1 $56 $57 $19 $-1 $58 forward single #
loop $-1 $59 $60 $24 #
cone-surface $-1 -64.671270874905431 10.700523759473064 6.7394013466212348 0.80901700255871778 0 -0.5877852410284794 0.5877852410284794 0 0.80901700255871778 1 I I 0 1 1 forward I I I I #
face $-1 $61 $62 $15 $-1 $63 reversed single #
loop $-1 $-1 $64 $25 #
plane-surface $-1 0 0 -12.515345643438238 0 0 1 1 0 0 forward_v I I I I #
coedge $-1 $65 $66 $67 $68 forward $26 $-1 #
face $-1 $69 $70 $16 $-1 $71 reversed single #
loop $-1 $-1 $72 $28 #
plane-surface $-1 0 0 -12.515345643438238 0 0 1 1 0 0 forward_v I I I I #
coedge $-1 $73 $74 $75 $76 forward $29 $-1 #
face $-1 $77 $78 $17 $-1 $79 forward single #
loop $-1 $-1 $80 $31 #
plane-surface $-1 -69.206213568529307 0 0 1 0 0 0 0 -1 forward_v I I I I #
coedge $-1 $81 $82 $83 $84 forward $32 $-1 #
face $-1 $85 $86 $18 $-1 $87 reversed single #
loop $-1 $-1 $88 $34 #
plane-surface $-1 -69.206213568529321 10.700523759473064 2.005171717518877 -0.80901700255871778 0 0.5877852410284794 0.5877852410284794 0 0.80901700255871778 forward_v I I I I #
coedge $-1 $89 $90 $91 $92 reversed $35 $-1 #
face $-1 $-1 $93 $19 $-1 $94 forward single #
loop $-1 $95 $96 $37 #
cone-surface $-1 -63.549863735169851 10.700523759473064 5.9246513922496717 0.80901700255871778 0 -0.5877852410284794 0.2938926205142397 0 0.40450850127935889 1 I I -0.70710678118654746 0.70710678118654746 0.5 forward I I I I #
loop $-1 $-1 $97 $24 #
coedge $-1 $60 $60 $98 $99 reversed $38 $-1 #
face $-1 $100 $101 $15 $-1 $102 reversed single #
loop $-1 $-1 $103 $40 #
plane-surface $-1 0 -37.908497092646513 0 0 1 0 0 0 1 forward_v I I I I #
coedge $-1 $104 $105 $106 $107 forward $41 $-1 #
coedge $-1 $108 $43 $109 $110 forward $26 $-1 #
coedge $-1 $43 $108 $111 $112 forward $26 $-1 #
coedge $-1 $113 $114 $43 $68 reversed $115 $-1 #
edge $-1 $116 -37.908497092646513 $117 37.908497092646513 $67 $118 forward 7 unknown #
face $-1 $119 $120 $16 $-1 $121 forward single #
loop $-1 $-1 $122 $44 #
plane-surface $-1 69.206213568529307 0 0 -1 0 0 0 0 1 forward_v I I I I #
coedge $-1 $123 $124 $125 $126 forward $45 $-1 #
coedge $-1 $125 $47 $122 $127 reversed $29 $-1 #
coedge $-1 $47 $125 $128 $129 reversed $29 $-1 #
coedge $-1 $130 $131 $47 $76 reversed $120 $-1 #
edge $-1 $132 -69.206213568529307 $133 69.206213568529307 $75 $134 forward 7 unknown #
face $-1 $135 $136 $17 $-1 $137 reversed single #
loop $-1 $-1 $138 $48 #
plane-surface $-1 0 45.732515056004743 -6.243808047804607 0 0 1 1 0 0 forward_v I I I I #
coedge $-1 $139 $140 $81 $141 forward $49 $-1 #
coedge $-1 $142 $51 $80 $141 reversed $32 $-1 #
coedge $-1 $51 $142 $143 $144 reversed $32 $-1 #
coedge $-1 $138 $145 $51 $84 reversed $78 $-1 #
edge $-1 $146 -69.206213568529307 $147 69.206213568529307 $83 $148 forward 7 unknown #
face $-1 $149 $150 $18 $-1 $151 reversed single #
loop $-1 $-1 $152 $52 #
plane-surface $-1 -181.18422048782941 15.126452024411655 83.361953563611721 0 -1 0 0.80901700255871778 0 -0.5877852410284794 forward_v I I I I #
coedge $-1 $153 $154 $155 $156 reversed $53 $-1 #
coedge $-1 $90 $55 $157 $158 reversed $35 $-1 #
coedge $-1 $55 $89 $153 $159 reversed $35 $-1 #
coedge $-1 $155 $160 $55 $92 forward $161 $-1 #
edge $-1 $162 21.385896675385396 $163 29.021984785720711 $91 $164 forward 7 unknown #
loop $-1 $-1 $98 $56 #
plane-surface $-1 -69.206213568529321 10.700523759473064 2.005171717518877 -0.80901700255871778 0 0.5877852410284794 0.5877852410284794 0 0.80901700255871778 forward_v I I I I #
loop $-1 $-1 $165 $37 #
coedge $-1 $96 $96 $97 $166 reversed $57 $-1 #
coedge $-1 $97 $97 $96 $166 forward $59 $-1 #
coedge $-1 $98 $98 $60 $99 forward $93 $-1 #
edge $-1 $167 0 $167 6.2831853071796004 $98 $168 forward 7 unknown #
face $-1 $169 $170 $15 $-1 $171 reversed single #
loop $-1 $-1 $172 $61 #
plane-surface $-1 -69.206213568529307 0 0 1 0 0 0 0 -1 forward_v I I I I #
coedge $-1 $111 $173 $113 $174 reversed $62 $-1 #
coedge $-1 $175 $64 $173 $176 forward $41 $-1 #
coedge $-1 $64 $175 $177 $178 forward $41 $-1 #
coedge $-1 $114 $113 $64 $107 reversed $115 $-1 #
edge $-1 $179 -37.908497092646513 $180 37.908497092646513 $106 $181 forward 7 unknown #
coedge $-1 $66 $65 $182 $183 forward $26 $-1 #
coedge $-1 $184 $185 $65 $110 reversed $170 $-1 #
edge $-1 $117 -69.206213568529307 $186 69.206213568529307 $109 $187 forward 7 unknown #
coedge $-1 $188 $103 $66 $112 reversed $62 $-1 #
edge $-1 $189 -69.206213568529307 $116 69.206213568529307 $111 $190 forward 7 unknown #
coedge $-1 $106 $67 $103 $174 forward $115 $-1 #
coedge $-1 $67 $106 $184 $191 reversed $115 $-1 #
loop $-1 $-1 $113 $169 #
vertex $-1 $68 $192 #
vertex $-1 $68 $193 #
straight-curve $-1 69.206213568529307 0 12.515345643438238 0 1 0 I I #
face $-1 $194 $195 $16 $-1 $196 reversed single #
loop $-1 $-1 $131 $69 #
plane-surface $-1 0 -45.732515056004743 -6.243808047804607 0 0 1 1 0 0 forward_v I I I I #
coedge $-1 $197 $198 $73 $127 forward $70 $-1 #
coedge $-1 $199 $72 $198 $200 forward $45 $-1 #
coedge $-1 $72 $199 $201 $202 forward $45 $-1 #
coedge $-1 $74 $73 $72 $126 reversed $29 $-1 #
edge $-1 $203 -69.206213568529307 $204 69.206213568529307 $72 $205 forward 7 unknown #
edge $-1 $204 -12.515345643438238 $133 -6.243808047804607 $122 $206 forward 7 unknown #
coedge $-1 $201 $207 $74 $129 forward $208 $-1 #
edge $-1 $132 6.243808047804607 $203 12.515345643438238 $128 $209 forward 7 unknown #
coedge $-1 $210 $75 $207 $211 forward $120 $-1 #
coedge $-1 $75 $210 $197 $212 forward $120 $-1 #
vertex $-1 $129 $213 #
vertex $-1 $212 $214 #
straight-curve $-1 0 -37.908497092646513 -6.243808047804607 1 0 0 I I #
face $-1 $215 $216 $17 $-1 $217 reversed single #
loop $-1 $-1 $218 $77 #
plane-surface $-1 0 53.556533019362973 -9.3795768456214219 0 -1 0 0 0 -1 forward_v I I I I #
coedge $-1 $219 $83 $220 $221 forward $78 $-1 #
coedge $-1 $222 $80 $145 $223 reversed $49 $-1 #
coedge $-1 $80 $222 $224 $225 reversed $49 $-1 #
edge $-1 $226 -12.515345643438238 $147 -6.243808047804607 $80 $227 forward 7 unknown #
coedge $-1 $82 $81 $228 $229 reversed $32 $-1 #
coedge $-1 $230 $220 $82 $144 forward $231 $-1 #
edge $-1 $146 6.243808047804607 $232 12.515345643438238 $143 $233 forward 7 unknown #
coedge $-1 $83 $219 $139 $223 forward $78 $-1 #
vertex $-1 $144 $234 #
vertex $-1 $223 $235 #
straight-curve $-1 0 37.908497092646513 -6.243808047804607 -1 0 0 I I #
face $-1 $-1 $161 $18 $-1 $236 forward single #
loop $-1 $-1 $237 $85 #
plane-surface $-1 -69.206213568529307 0 0 1 0 0 0 0 -1 forward_v I I I I #
coedge $-1 $238 $239 $240 $241 reversed $86 $-1 #
coedge $-1 $242 $88 $90 $159 forward $53 $-1 #
coedge $-1 $88 $242 $238 $243 forward $53 $-1 #
coedge $-1 $240 $91 $88 $156 forward $161 $-1 #
edge $-1 $163 0.92433361479794129 $244 9.7761901446751232 $155 $245 forward 7 unknown #
coedge $-1 $246 $247 $89 $158 forward $150 $-1 #
edge $-1 $248 -39.675805064286962 $162 -29.165631138367623 $157 $249 forward 7 unknown #
edge $-1 $163 -12.991289296366229 $248 -2.4161062406544664e-014 $90 $250 forward 7 unknown #
coedge $-1 $91 $240 $246 $251 forward $161 $-1 #
loop $-1 $-1 $240 $149 #
vertex $-1 $158 $252 #
vertex $-1 $92 $253 #
straight-curve $-1 -90.592110243914703 6.2745954945344735 12.515345643438238 1 0 0 I I #
coedge $-1 $165 $165 $-1 $254 reversed $95 $-1 #
edge $-1 $255 0 $255 6.2831853071796004 $96 $256 forward 7 unknown #
vertex $-1 $99 $257 #
ellipse-curve $-1 -65.38816951336166 10.700523759473064 7.2602586804785609 -0.80901700255871778 0 0.5877852410284794 0.5877852410284794 0 0.80901700255871778 1 I I #
face $-1 $-1 $115 $15 $-1 $258 reversed single #
loop $-1 $-1 $185 $100 #
plane-surface $-1 0 37.908497092646513 0 0 -1 0 0 0 -1 forward_v I I I I #
coedge $-1 $259 $182 $185 $260 forward $101 $-1 #
coedge $-1 $103 $188 $104 $176 reversed $62 $-1 #
edge $-1 $116 -12.515345643438238 $180 12.515345643438238 $113 $261 forward 7 unknown #
coedge $-1 $105 $104 $259 $262 forward $41 $-1 #
edge $-1 $180 -69.206213568529307 $263 69.206213568529307 $173 $264 forward 7 unknown #
coedge $-1 $185 $184 $105 $178 reversed $170 $-1 #
edge $-1 $265 -69.206213568529307 $179 69.206213568529307 $177 $266 forward 7 unknown #
vertex $-1 $107 $267 #
vertex $-1 $174 $268 #
straight-curve $-1 69.206213568529307 0 -12.515345643438238 0 -1 0 I I #
coedge $-1 $172 $269 $108 $183 reversed $101 $-1 #
edge $-1 $186 -37.908497092646513 $189 37.908497092646513 $182 $270 forward 7 unknown #
coedge $-1 $177 $109 $114 $191 forward $170 $-1 #
coedge $-1 $109 $177 $172 $260 reversed $170 $-1 #
vertex $-1 $110 $271 #
straight-curve $-1 0 37.908497092646513 12.515345643438238 -1 0 0 I I #
coedge $-1 $173 $111 $269 $272 forward $62 $-1 #
vertex $-1 $183 $273 #
straight-curve $-1 0 -37.908497092646513 12.515345643438238 1 0 0 I I #
edge $-1 $117 -12.515345643438238 $179 12.515345643438238 $114 $274 forward 7 unknown #
point $-1 69.206213568529307 -37.908497092646513 12.515345643438238 #
point $-1 69.206213568529307 37.908497092646513 12.515345643438238 #
face $-1 $-1 $208 $16 $-1 $275 reversed single #
loop $-1 $-1 $276 $119 #
plane-surface $-1 0 -53.556533019362973 -9.3795768456214219 0 1 0 0 0 1 forward_v I I I I #
coedge $-1 $277 $122 $131 $212 reversed $70 $-1 #
coedge $-1 $122 $277 $123 $200 reversed $70 $-1 #
coedge $-1 $124 $123 $278 $279 forward $45 $-1 #
edge $-1 $204 37.908497092646513 $280 53.556533019362973 $198 $281 forward 7 unknown #
coedge $-1 $282 $128 $124 $202 reversed $208 $-1 #
edge $-1 $283 -53.556533019362973 $203 -37.908497092646513 $201 $284 forward 7 unknown #
vertex $-1 $129 $285 #
vertex $-1 $200 $286 #
straight-curve $-1 0 -37.908497092646513 -12.515345643438238 1 0 0 I I #
straight-curve $-1 69.206213568529307 -37.908497092646513 0 0 0 1 I I #
coedge $-1 $128 $282 $130 $211 reversed $208 $-1 #
loop $-1 $-1 $128 $194 #
straight-curve $-1 -69.206213568529307 -37.908497092646513 0 0 0 -1 I I #
coedge $-1 $131 $130 $287 $288 forward $120 $-1 #
edge $-1 $132 -7.8240179633582301 $289 7.8240179633582301 $207 $290 forward 7 unknown #
edge $-1 $291 -7.8240179633582301 $133 7.8240179633582301 $197 $292 forward 7 unknown #
point $-1 -69.206213568529307 -37.908497092646513 -6.243808047804607 #
point $-1 69.206213568529307 -37.908497092646513 -6.243808047804607 #
face $-1 $-1 $231 $17 $-1 $293 reversed single #
loop $-1 $-1 $228 $135 #
plane-surface $-1 0 0 -12.515345643438238 0 0 1 1 0 0 forward_v I I I I #
coedge $-1 $294 $295 $296 $297 forward $136 $-1 #
coedge $-1 $145 $138 $295 $298 forward $78 $-1 #
coedge $-1 $143 $296 $138 $221 reversed $231 $-1 #
edge $-1 $146 -7.8240179633582301 $299 7.8240179633582301 $220 $300 forward 7 unknown #
coedge $-1 $140 $139 $301 $302 forward $49 $-1 #
edge $-1 $303 -7.8240179633582301 $147 7.8240179633582301 $139 $304 forward 7 unknown #
coedge $-1 $305 $228 $140 $225 forward $216 $-1 #
edge $-1 $226 -7.8240179633582301 $306 7.8240179633582301 $140 $307 forward 7 unknown #
vertex $-1 $225 $308 #
straight-curve $-1 -69.206213568529307 37.908497092646513 0 0 0 1 I I #
coedge $-1 $224 $309 $142 $229 forward $216 $-1 #
edge $-1 $232 -69.206213568529307 $226 69.206213568529307 $228 $310 forward 7 unknown #
coedge $-1 $296 $143 $309 $311 reversed $231 $-1 #
loop $-1 $-1 $143 $215 #
vertex $-1 $144 $312 #
straight-curve $-1 69.206213568529307 37.908497092646513 0 0 0 -1 I I #
point $-1 69.206213568529307 37.908497092646513 -6.243808047804607 #
point $-1 -69.206213568529307 37.908497092646513 -6.243808047804607 #
plane-surface $-1 0 0 12.515345643438238 0 0 1 1 0 0 forward_v I I I I #
coedge $-1 $247 $246 $239 $313 forward $150 $-1 #
coedge $-1 $239 $152 $154 $243 reversed $86 $-1 #
coedge $-1 $152 $238 $237 $313 reversed $86 $-1 #
coedge $-1 $160 $155 $152 $241 forward $161 $-1 #
edge $-1 $244 -29.021984785720711 $314 -21.385896675385396 $240 $315 forward 7 unknown #
coedge $-1 $154 $153 $247 $316 reversed $53 $-1 #
edge $-1 $317 2.4161062406544664e-014 $244 12.991289296366229 $238 $318 forward 7 unknown #
vertex $-1 $156 $319 #
straight-curve $-1 -61.570125458193992 5.3502618797365322 12.515345643438238 0 1 0 I I #
coedge $-1 $237 $157 $160 $251 reversed $150 $-1 #
coedge $-1 $157 $237 $242 $316 forward $150 $-1 #
vertex $-1 $158 $320 #
straight-curve $-1 -69.206213568529307 6.2745954945344735 41.68097678180586 0 0 1 I I #
straight-curve $-1 -69.206213568529321 6.2745954945344735 2.005171717518877 -0.5877852410284794 0 -0.80901700255871778 I I #
edge $-1 $314 -15.126452024411655 $162 -6.2745954945344735 $246 $321 forward 7 unknown #
point $-1 -69.206213568529307 6.2745954945344735 12.515345643438238 #
point $-1 -61.570125458193992 6.2745954945344735 12.515345643438238 #
edge $-1 $322 1 $322 0 $165 $-1 forward 7 unknown #
vertex $-1 $166 $323 #
ellipse-curve $-1 -63.95437223644921 10.700523759473064 6.2185440127639113 -0.80901700255871778 0 0.5877852410284794 0.5877852410284794 0 0.80901700255871778 1 I I #
point $-1 -64.800384272333162 10.700523759473064 8.0692756830372758 #
plane-surface $-1 69.206213568529307 0 0 -1 0 0 0 0 1 forward_v I I I I #
coedge $-1 $269 $172 $175 $262 reversed $101 $-1 #
edge $-1 $186 -12.515345643438238 $265 12.515345643438238 $185 $324 forward 7 unknown #
straight-curve $-1 69.206213568529307 -37.908497092646513 0 0 0 -1 I I #
edge $-1 $263 -37.908497092646513 $265 37.908497092646513 $259 $325 forward 7 unknown #
vertex $-1 $262 $326 #
straight-curve $-1 0 -37.908497092646513 -12.515345643438238 -1 0 0 I I #
vertex $-1 $178 $327 #
straight-curve $-1 0 37.908497092646513 -12.515345643438238 1 0 0 I I #
point $-1 69.206213568529307 37.908497092646513 -12.515345643438238 #
point $-1 69.206213568529307 -37.908497092646513 -12.515345643438238 #
coedge $-1 $182 $259 $188 $272 reversed $101 $-1 #
straight-curve $-1 -69.206213568529307 0 12.515345643438238 0 -1 0 I I #
point $-1 -69.206213568529307 37.908497092646513 12.515345643438238 #
edge $-1 $189 -12.515345643438238 $263 12.515345643438238 $269 $328 forward 7 unknown #
point $-1 -69.206213568529307 -37.908497092646513 12.515345643438238 #
straight-curve $-1 69.206213568529307 37.908497092646513 0 0 0 -1 I I #
plane-surface $-1 -69.206213568529307 0 0 1 0 0 0 0 -1 forward_v I I I I #
coedge $-1 $278 $287 $282 $329 forward $195 $-1 #
coedge $-1 $198 $197 $330 $331 forward $70 $-1 #
coedge $-1 $330 $276 $199 $279 reversed $195 $-1 #
edge $-1 $280 -69.206213568529307 $283 69.206213568529307 $278 $332 forward 7 unknown #
vertex $-1 $331 $333 #
straight-curve $-1 69.206213568529307 0 -12.515345643438238 0 -1 0 I I #
coedge $-1 $207 $201 $276 $329 reversed $208 $-1 #
vertex $-1 $202 $334 #
straight-curve $-1 -69.206213568529307 0 -12.515345643438238 0 1 0 I I #
point $-1 -69.206213568529307 -37.908497092646513 -12.515345643438238 #
point $-1 69.206213568529307 -37.908497092646513 -12.515345643438238 #
coedge $-1 $276 $330 $210 $288 reversed $195 $-1 #
edge $-1 $289 -69.206213568529307 $291 69.206213568529307 $287 $335 forward 7 unknown #
vertex $-1 $211 $336 #
straight-curve $-1 -69.206213568529307 -45.732515056004743 -6.243808047804607 0 -1 0 I I #
vertex $-1 $212 $337 #
straight-curve $-1 69.206213568529307 -45.732515056004743 -6.243808047804607 0 1 0 I I #
plane-surface $-1 69.206213568529307 0 0 -1 0 0 0 0 1 forward_v I I I I #
coedge $-1 $301 $218 $305 $338 reversed $136 $-1 #
coedge $-1 $218 $301 $219 $298 reversed $136 $-1 #
coedge $-1 $220 $230 $218 $297 reversed $231 $-1 #
edge $-1 $299 -3.1357687978168149 $339 3.1357687978168158 $296 $340 forward 7 unknown #
edge $-1 $299 -69.206213568529307 $303 69.206213568529307 $295 $341 forward 7 unknown #
vertex $-1 $221 $342 #
straight-curve $-1 69.206213568529307 45.732515056004743 -6.243808047804607 0 1 0 I I #
coedge $-1 $295 $294 $222 $302 reversed $136 $-1 #
edge $-1 $303 -3.1357687978168149 $306 3.1357687978168158 $301 $343 forward 7 unknown #
vertex $-1 $298 $344 #
straight-curve $-1 -69.206213568529307 45.732515056004743 -6.243808047804607 0 -1 0 I I #
coedge $-1 $309 $224 $294 $338 forward $216 $-1 #
vertex $-1 $338 $345 #
straight-curve $-1 -69.206213568529307 45.732515056004743 -12.515345643438238 0 1 0 I I #
point $-1 -69.206213568529307 37.908497092646513 -12.515345643438238 #
coedge $-1 $228 $305 $230 $311 forward $216 $-1 #
straight-curve $-1 0 37.908497092646513 -12.515345643438238 -1 0 0 I I #
edge $-1 $339 -53.556533019362973 $232 -37.908497092646513 $230 $346 forward 7 unknown #
point $-1 69.206213568529307 37.908497092646513 -12.515345643438238 #
edge $-1 $314 29.165631138367623 $317 39.675805064286962 $237 $347 forward 7 unknown #
vertex $-1 $251 $348 #
straight-curve $-1 -90.592110243914703 15.126452024411655 12.515345643438238 -1 0 0 I I #
edge $-1 $317 -9.7761901446751232 $248 -0.92433361479794129 $247 $349 forward 7 unknown #
vertex $-1 $316 $350 #
straight-curve $-1 -69.206213568529321 15.126452024411655 2.005171717518877 0.5877852410284794 0 0.80901700255871778 I I #
point $-1 -61.570125458193992 15.126452024411655 12.515345643438238 #
point $-1 -69.206213568529307 6.2745954945344735 2.0051717175188966 #
straight-curve $-1 -69.206213568529307 0 12.515345643438238 0 -1 0 I I #
vertex $-1 $254 $351 #
point $-1 -63.366586995420732 10.700523759473064 7.0275610153226289 #
straight-curve $-1 -69.206213568529307 37.908497092646513 0 0 0 -1 I I #
straight-curve $-1 -69.206213568529307 0 -12.515345643438238 0 1 0 I I #
point $-1 -69.206213568529307 -37.908497092646513 -12.515345643438238 #
point $-1 -69.206213568529307 37.908497092646513 -12.515345643438238 #
straight-curve $-1 -69.206213568529307 -37.908497092646513 0 0 0 -1 I I #
edge $-1 $289 -3.1357687978168149 $283 3.1357687978168158 $282 $352 forward 7 unknown #
coedge $-1 $287 $278 $277 $331 reversed $195 $-1 #
edge $-1 $291 -3.1357687978168149 $280 3.1357687978168158 $277 $353 forward 7 unknown #
straight-curve $-1 0 -53.556533019362973 -12.515345643438238 -1 0 0 I I #
point $-1 69.206213568529307 -53.556533019362973 -12.515345643438238 #
point $-1 -69.206213568529307 -53.556533019362973 -12.515345643438238 #
straight-curve $-1 0 -53.556533019362973 -6.243808047804607 1 0 0 I I #
point $-1 -69.206213568529307 -53.556533019362973 -6.243808047804607 #
point $-1 69.206213568529307 -53.556533019362973 -6.243808047804607 #
edge $-1 $306 -69.206213568529307 $339 69.206213568529307 $294 $354 forward 7 unknown #
vertex $-1 $311 $355 #
straight-curve $-1 69.206213568529307 53.556533019362973 -9.3795768456214219 0 0 -1 I I #
straight-curve $-1 0 53.556533019362973 -6.243808047804607 -1 0 0 I I #
point $-1 69.206213568529307 53.556533019362973 -6.243808047804607 #
straight-curve $-1 -69.206213568529307 53.556533019362973 -9.3795768456214219 0 0 -1 I I #
point $-1 -69.206213568529307 53.556533019362973 -6.243808047804607 #
point $-1 -69.206213568529307 53.556533019362973 -12.515345643438238 #
straight-curve $-1 69.206213568529307 0 -12.515345643438238 0 -1 0 I I #
straight-curve $-1 -69.206213568529307 15.126452024411655 41.68097678180586 0 0 -1 I I #
point $-1 -69.206213568529307 15.126452024411655 12.515345643438238 #
straight-curve $-1 -69.206213568529307 5.3502618797365322 2.005171717518893 0 -1 0 I I #
point $-1 -69.206213568529307 15.126452024411655 2.0051717175188966 #
point $-1 -63.145355233890491 10.700523759473064 5.6307587717354322 #
straight-curve $-1 -69.206213568529307 -53.556533019362973 -9.3795768456214219 0 0 -1 I I #
straight-curve $-1 69.206213568529307 -53.556533019362973 -9.3795768456214219 0 0 -1 I I #
straight-curve $-1 0 53.556533019362973 -12.515345643438238 1 0 0 I I #
point $-1 69.206213568529307 53.556533019362973 -12.515345643438238 #
End-of-ACIS-data 