500 0 11 0           
7 Unknown 11 ACIS 5.0 NT 24 Thu Mar 25 17:18:47 1999 
-1 9.9999999999999995e-007 1e-010 
body $-1 $11 $-1 $12 #
body $-1 $13 $-1 $14 #
body $-1 $15 $-1 $16 #
body $-1 $17 $-1 $18 #
body $-1 $19 $-1 $20 #
body $-1 $21 $-1 $22 #
body $-1 $23 $-1 $24 #
body $-1 $25 $-1 $26 #
body $-1 $27 $-1 $28 #
body $-1 $29 $-1 $30 #
body $-1 $31 $-1 $32 #
lump $-1 $-1 $33 $0 #
transform $-1 1 0 0 0 1 0 0 0 1 76.010620441297647 32.909557483950366 10.498577695104268 1 rotate no_reflect no_shear #
lump $-1 $-1 $34 $1 #
transform $-1 1 0 0 0 1 0 0 0 1 76.010620441297647 32.909557483950366 10.498577695104268 1 rotate no_reflect no_shear #
lump $-1 $-1 $35 $2 #
transform $-1 1 0 0 0 1 0 0 0 1 76.010620441297647 32.909557483950366 10.498577695104268 1 rotate no_reflect no_shear #
lump $-1 $-1 $36 $3 #
transform $-1 1 0 0 0 1 0 0 0 1 76.010620441297647 32.909557483950366 10.498577695104268 1 rotate no_reflect no_shear #
lump $-1 $-1 $37 $4 #
transform $-1 1 0 0 0 1 0 0 0 1 76.010620441297647 32.909557483950366 10.498577695104268 1 rotate no_reflect no_shear #
lump $-1 $-1 $38 $5 #
transform $-1 1 0 0 0 1 0 0 0 1 76.010620441297647 32.909557483950366 10.498577695104268 1 rotate no_reflect no_shear #
lump $-1 $-1 $39 $6 #
transform $-1 1 0 0 0 1 0 0 0 1 76.010620441297647 32.909557483950366 10.498577695104268 1 rotate no_reflect no_shear #
lump $-1 $-1 $40 $7 #
transform $-1 1 0 0 0 1 0 0 0 1 76.010620441297647 32.909557483950366 10.498577695104268 1 rotate no_reflect no_shear #
lump $-1 $-1 $41 $8 #
transform $-1 1 0 0 0 1 0 0 0 1 76.010620441297647 32.909557483950366 10.498577695104268 1 rotate no_reflect no_shear #
lump $-1 $-1 $42 $9 #
transform $-1 1 0 0 0 1 0 0 0 1 76.010620441297647 32.909557483950366 10.498577695104268 1 rotate no_reflect no_shear #
lump $-1 $-1 $43 $10 #
transform $-1 1 0 0 0 1 0 0 0 1 76.010620441297647 32.909557483950366 10.498577695104268 1 rotate no_reflect no_shear #
shell $-1 $-1 $-1 $44 $-1 $11 #
shell $-1 $-1 $-1 $45 $-1 $13 #
shell $-1 $-1 $-1 $46 $-1 $15 #
shell $-1 $-1 $-1 $47 $-1 $17 #
shell $-1 $-1 $-1 $48 $-1 $19 #
shell $-1 $-1 $-1 $49 $-1 $21 #
shell $-1 $-1 $-1 $50 $-1 $23 #
shell $-1 $-1 $-1 $51 $-1 $25 #
shell $-1 $-1 $-1 $52 $-1 $27 #
shell $-1 $-1 $-1 $53 $-1 $29 #
shell $-1 $-1 $-1 $54 $-1 $31 #
face $-1 $55 $56 $33 $-1 $57 reversed single #
face $-1 $58 $59 $34 $-1 $60 forward single #
face $-1 $61 $62 $35 $-1 $63 reversed single #
face $-1 $64 $65 $36 $-1 $66 forward single #
face $-1 $67 $68 $37 $-1 $69 forward single #
face $-1 $70 $71 $38 $-1 $72 reversed single #
face $-1 $73 $74 $39 $-1 $75 forward single #
face $-1 $76 $77 $40 $-1 $78 forward single #
face $-1 $79 $80 $41 $-1 $81 reversed single #
face $-1 $82 $83 $42 $-1 $84 forward single #
face $-1 $85 $86 $43 $-1 $87 forward single #
face $-1 $88 $89 $33 $-1 $90 forward single #
loop $-1 $-1 $91 $44 #
plane-surface $-1 0 -32.909557483950366 0 0 1 0 0 0 1 forward_v I I I I #
face $-1 $92 $93 $34 $-1 $94 reversed single #
loop $-1 $-1 $95 $45 #
plane-surface $-1 0 -32.909557483950366 0 0 1 0 0 0 1 forward_v I I I I #
face $-1 $96 $97 $35 $-1 $98 reversed single #
loop $-1 $-1 $99 $46 #
plane-surface $-1 83.513683312642513 -8.1701317389405688 214.9204070101402 0 -1 0 -0.73135370988377701 0 -0.68199835119979291 forward_v I I I I #
face $-1 $100 $101 $36 $-1 $102 forward single #
loop $-1 $103 $104 $47 #
cone-surface $-1 69.989491322494999 -18.280987788838313 4.2031640303882627 -0.73135370988377701 0 -0.68199835119979291 1.3639967023995858 0 -1.462707419767554 1 I I 0 1 2 forward I I I I #
face $-1 $105 $106 $37 $-1 $107 forward single #
loop $-1 $108 $109 $48 #
cone-surface $-1 69.989491322494999 -12.214474158899666 4.2031640303882627 -0.73135370988377701 0 -0.68199835119979291 1.3639967023995858 0 -1.462707419767554 1 I I 0 1 2 forward I I I I #
face $-1 $110 $111 $38 $-1 $112 reversed single #
loop $-1 $-1 $113 $49 #
plane-surface $-1 -206.31825832908561 -18.48849611004055 83.736151923271464 0 1 0 -0.85716730853699208 0 0.51503806187062418 forward_v I I I I #
face $-1 $114 $115 $39 $-1 $116 forward single #
loop $-1 $117 $118 $50 #
cone-surface $-1 -73.825148980259343 -14.821902248589883 7.5690998844903419 0.85716730853699208 0 -0.51503806187062418 0.51503806187062418 0 0.85716730853699208 1 I I 0 1 1 forward I I I I #
face $-1 $119 $120 $40 $-1 $121 forward single #
loop $-1 $122 $123 $51 #
cone-surface $-1 -73.825148980259343 -9.322011456413879 7.5690998844903419 0.85716730853699208 0 -0.51503806187062418 0.51503806187062418 0 0.85716730853699208 1 I I 0 1 1 forward I I I I #
face $-1 $124 $125 $41 $-1 $126 reversed single #
loop $-1 $-1 $127 $52 #
plane-surface $-1 -206.31825832908561 9.128947736333334 83.736151923271464 0 1 0 -0.85716730853699208 0 0.51503806187062418 forward_v I I I I #
face $-1 $128 $129 $42 $-1 $130 forward single #
loop $-1 $131 $132 $53 #
cone-surface $-1 -73.825148980259343 12.795541597784009 7.5690998844903419 0.85716730853699208 0 -0.51503806187062418 0.51503806187062418 0 0.85716730853699208 1 I I 0 1 1 forward I I I I #
face $-1 $133 $134 $43 $-1 $135 forward single #
loop $-1 $136 $137 $54 #
cone-surface $-1 -73.825148980259343 18.295432389960013 7.5690998844903419 0.85716730853699208 0 -0.51503806187062418 0.51503806187062418 0 0.85716730853699208 1 I I 0 1 1 forward I I I I #
face $-1 $138 $139 $33 $-1 $140 reversed single #
loop $-1 $-1 $141 $55 #
plane-surface $-1 0 0 10.498577695104268 0 0 1 1 0 0 forward_v I I I I #
coedge $-1 $142 $143 $144 $145 reversed $56 $-1 #
face $-1 $146 $147 $34 $-1 $148 reversed single #
loop $-1 $-1 $149 $58 #
plane-surface $-1 0 0 -10.498577695104268 0 0 1 1 0 0 forward_v I I I I #
coedge $-1 $150 $151 $152 $153 forward $59 $-1 #
face $-1 $154 $155 $35 $-1 $156 reversed single #
loop $-1 $-1 $157 $61 #
plane-surface $-1 -27.667615187978868 -15.24773097386899 111.24217138086365 0.73135370988377701 0 0.68199835119979291 0.68199835119979291 0 -0.73135370988377701 forward_v I I I I #
coedge $-1 $158 $159 $160 $161 reversed $62 $-1 #
face $-1 $-1 $162 $36 $-1 $163 forward single #
loop $-1 $164 $165 $64 #
cone-surface $-1 68.103666977825355 -18.280987788838313 2.4446044219034544 -0.73135370988377701 0 -0.68199835119979291 0.68199835119979291 0 -0.73135370988377701 1 I I -0.70710678118654746 0.70710678118654746 1 forward I I I I #
loop $-1 $-1 $166 $47 #
coedge $-1 $104 $104 $167 $168 reversed $65 $-1 #
face $-1 $-1 $169 $37 $-1 $170 forward single #
loop $-1 $171 $172 $67 #
cone-surface $-1 68.103666977825355 -12.214474158899666 2.4446044219034544 -0.73135370988377701 0 -0.68199835119979291 0.68199835119979291 0 -0.73135370988377701 1 I I -0.70710678118654746 0.70710678118654746 1 forward I I I I #
loop $-1 $-1 $173 $48 #
coedge $-1 $109 $109 $174 $175 reversed $68 $-1 #
face $-1 $176 $177 $38 $-1 $178 reversed single #
loop $-1 $-1 $179 $70 #
plane-surface $-1 -76.010620441297647 -12.071956852501881 5.4394266559322944 -0.85716730853699208 0 0.51503806187062418 0.51503806187062418 0 0.85716730853699208 forward_v I I I I #
coedge $-1 $180 $181 $182 $183 reversed $71 $-1 #
face $-1 $-1 $184 $39 $-1 $185 forward single #
loop $-1 $186 $187 $73 #
cone-surface $-1 -72.731016125154696 -14.821902248589883 6.9116785625270918 0.85716730853699208 0 -0.51503806187062418 0.25751903093531209 0 0.42858365426849604 1 I I -0.70710678118654746 0.70710678118654746 0.5 forward I I I I #
loop $-1 $-1 $188 $50 #
coedge $-1 $118 $118 $189 $190 reversed $74 $-1 #
face $-1 $-1 $191 $40 $-1 $192 forward single #
loop $-1 $193 $194 $76 #
cone-surface $-1 -72.731016125154696 -9.322011456413879 6.9116785625270918 0.85716730853699208 0 -0.51503806187062418 0.25751903093531209 0 0.42858365426849604 1 I I -0.70710678118654746 0.70710678118654746 0.5 forward I I I I #
loop $-1 $-1 $195 $51 #
coedge $-1 $123 $123 $196 $197 reversed $77 $-1 #
face $-1 $198 $199 $41 $-1 $200 reversed single #
loop $-1 $-1 $201 $79 #
plane-surface $-1 -76.010620441297647 15.545486993872004 5.4394266559322944 -0.85716730853699208 0 0.51503806187062418 0.51503806187062418 0 0.85716730853699208 forward_v I I I I #
coedge $-1 $202 $203 $204 $205 reversed $80 $-1 #
face $-1 $-1 $206 $42 $-1 $207 forward single #
loop $-1 $208 $209 $82 #
cone-surface $-1 -72.731016125154696 12.795541597784009 6.9116785625270918 0.85716730853699208 0 -0.51503806187062418 0.25751903093531209 0 0.42858365426849604 1 I I -0.70710678118654746 0.70710678118654746 0.5 forward I I I I #
loop $-1 $-1 $210 $53 #
coedge $-1 $132 $132 $211 $212 reversed $83 $-1 #
face $-1 $-1 $213 $43 $-1 $214 forward single #
loop $-1 $215 $216 $85 #
cone-surface $-1 -72.731016125154696 18.295432389960013 6.9116785625270918 0.85716730853699208 0 -0.51503806187062418 0.25751903093531209 0 0.42858365426849604 1 I I -0.70710678118654746 0.70710678118654746 0.5 forward I I I I #
loop $-1 $-1 $217 $54 #
coedge $-1 $137 $137 $218 $219 reversed $86 $-1 #
face $-1 $220 $221 $33 $-1 $222 reversed single #
loop $-1 $-1 $223 $88 #
plane-surface $-1 0 0 -10.498577695104268 0 0 1 1 0 0 forward_v I I I I #
coedge $-1 $224 $225 $226 $227 forward $89 $-1 #
coedge $-1 $228 $91 $229 $230 reversed $56 $-1 #
coedge $-1 $91 $228 $231 $232 forward $56 $-1 #
coedge $-1 $233 $223 $91 $145 forward $139 $-1 #
edge $-1 $234 -76.010620441297647 $235 76.010620441297647 $91 $236 forward 7 unknown #
face $-1 $237 $238 $34 $-1 $239 reversed single #
loop $-1 $-1 $240 $92 #
plane-surface $-1 -67.429758992856264 -43.49378475910332 0 0 1 0 0 0 1 forward_v I I I I #
coedge $-1 $241 $242 $151 $243 forward $93 $-1 #
coedge $-1 $244 $95 $245 $246 reversed $59 $-1 #
coedge $-1 $95 $244 $149 $243 reversed $59 $-1 #
coedge $-1 $247 $248 $95 $153 reversed $238 $-1 #
edge $-1 $249 -10.498577695104268 $250 10.498577695104268 $152 $251 forward 7 unknown #
face $-1 $252 $253 $35 $-1 $254 forward single #
loop $-1 $-1 $255 $96 #
plane-surface $-1 83.513683312642513 -22.325330208797411 214.9204070101402 0 1 0 0.73135370988377701 0 0.68199835119979291 forward_v I I I I #
coedge $-1 $256 $257 $258 $259 reversed $97 $-1 #
coedge $-1 $159 $99 $260 $261 reversed $62 $-1 #
coedge $-1 $99 $158 $256 $262 reversed $62 $-1 #
coedge $-1 $258 $263 $99 $161 forward $253 $-1 #
edge $-1 $264 -34.25377878497639 $265 -24.520461816942898 $160 $266 forward 7 unknown #
loop $-1 $-1 $167 $100 #
plane-surface $-1 -27.667615187978868 -15.24773097386899 111.24217138086365 0.73135370988377701 0 0.68199835119979291 0.68199835119979291 0 -0.73135370988377701 forward_v I I I I #
loop $-1 $-1 $267 $64 #
coedge $-1 $165 $165 $166 $268 reversed $101 $-1 #
coedge $-1 $166 $166 $165 $268 forward $103 $-1 #
coedge $-1 $167 $167 $104 $168 forward $162 $-1 #
edge $-1 $269 0 $269 6.2831853071796004 $167 $270 forward 7 unknown #
loop $-1 $-1 $174 $105 #
plane-surface $-1 -27.667615187978868 -15.24773097386899 111.24217138086365 0.73135370988377701 0 0.68199835119979291 0.68199835119979291 0 -0.73135370988377701 forward_v I I I I #
loop $-1 $-1 $271 $67 #
coedge $-1 $172 $172 $173 $272 reversed $106 $-1 #
coedge $-1 $173 $173 $172 $272 forward $108 $-1 #
coedge $-1 $174 $174 $109 $175 forward $169 $-1 #
edge $-1 $273 0 $273 6.2831853071796004 $174 $274 forward 7 unknown #
face $-1 $275 $276 $38 $-1 $277 reversed single #
loop $-1 $-1 $278 $110 #
plane-surface $-1 -206.31825832908561 -5.6554175949632102 83.736151923271464 0 -1 0 0.85716730853699208 0 -0.51503806187062418 forward_v I I I I #
coedge $-1 $279 $280 $281 $282 reversed $111 $-1 #
coedge $-1 $181 $113 $283 $284 reversed $71 $-1 #
coedge $-1 $113 $180 $279 $285 reversed $71 $-1 #
coedge $-1 $281 $286 $113 $183 forward $287 $-1 #
edge $-1 $288 27.148508723245158 $289 30.188353243649473 $182 $290 forward 7 unknown #
loop $-1 $-1 $189 $114 #
plane-surface $-1 -76.010620441297647 -12.071956852501881 5.4394266559322944 -0.85716730853699208 0 0.51503806187062418 0.51503806187062418 0 0.85716730853699208 forward_v I I I I #
loop $-1 $-1 $291 $73 #
coedge $-1 $187 $187 $188 $292 reversed $115 $-1 #
coedge $-1 $188 $188 $187 $292 forward $117 $-1 #
coedge $-1 $189 $189 $118 $190 forward $184 $-1 #
edge $-1 $293 0 $293 6.2831853071796004 $189 $294 forward 7 unknown #
loop $-1 $-1 $196 $119 #
plane-surface $-1 -76.010620441297647 -12.071956852501881 5.4394266559322944 -0.85716730853699208 0 0.51503806187062418 0.51503806187062418 0 0.85716730853699208 forward_v I I I I #
loop $-1 $-1 $295 $76 #
coedge $-1 $194 $194 $195 $296 reversed $120 $-1 #
coedge $-1 $195 $195 $194 $296 forward $122 $-1 #
coedge $-1 $196 $196 $123 $197 forward $191 $-1 #
edge $-1 $297 0 $297 6.2831853071796004 $196 $298 forward 7 unknown #
face $-1 $299 $300 $41 $-1 $301 forward single #
loop $-1 $-1 $302 $124 #
plane-surface $-1 -206.31825832908561 21.962026251410673 83.736151923271464 0 -1 0 0.85716730853699208 0 -0.51503806187062418 forward_v I I I I #
coedge $-1 $303 $304 $305 $306 reversed $125 $-1 #
coedge $-1 $203 $127 $307 $308 reversed $80 $-1 #
coedge $-1 $127 $202 $303 $309 reversed $80 $-1 #
coedge $-1 $305 $310 $127 $205 forward $300 $-1 #
edge $-1 $311 27.148508723245158 $312 30.188353243649473 $204 $313 forward 7 unknown #
loop $-1 $-1 $211 $128 #
plane-surface $-1 -76.010620441297647 15.545486993872004 5.4394266559322944 -0.85716730853699208 0 0.51503806187062418 0.51503806187062418 0 0.85716730853699208 forward_v I I I I #
loop $-1 $-1 $314 $82 #
coedge $-1 $209 $209 $210 $315 reversed $129 $-1 #
coedge $-1 $210 $210 $209 $315 forward $131 $-1 #
coedge $-1 $211 $211 $132 $212 forward $206 $-1 #
edge $-1 $316 0 $316 6.2831853071796004 $211 $317 forward 7 unknown #
loop $-1 $-1 $218 $133 #
plane-surface $-1 -76.010620441297647 15.545486993872004 5.4394266559322944 -0.85716730853699208 0 0.51503806187062418 0.51503806187062418 0 0.85716730853699208 forward_v I I I I #
loop $-1 $-1 $318 $85 #
coedge $-1 $216 $216 $217 $319 reversed $134 $-1 #
coedge $-1 $217 $217 $216 $319 forward $136 $-1 #
coedge $-1 $218 $218 $137 $219 forward $213 $-1 #
edge $-1 $320 0 $320 6.2831853071796004 $218 $321 forward 7 unknown #
face $-1 $322 $323 $33 $-1 $324 reversed single #
loop $-1 $-1 $325 $138 #
plane-surface $-1 -76.010620441297647 0 0 1 0 0 0 0 -1 forward_v I I I I #
coedge $-1 $144 $326 $327 $328 forward $139 $-1 #
coedge $-1 $329 $141 $330 $331 forward $89 $-1 #
coedge $-1 $141 $329 $228 $332 forward $89 $-1 #
coedge $-1 $229 $333 $141 $227 reversed $334 $-1 #
edge $-1 $335 -32.909557483950366 $336 32.909557483950366 $226 $337 forward 7 unknown #
coedge $-1 $143 $142 $225 $332 reversed $56 $-1 #
coedge $-1 $327 $226 $142 $230 forward $334 $-1 #
edge $-1 $335 -10.498577695104268 $234 10.498577695104268 $229 $338 forward 7 unknown #
coedge $-1 $339 $340 $143 $232 reversed $221 $-1 #
edge $-1 $341 -10.498577695104268 $235 10.498577695104268 $231 $342 forward 7 unknown #
coedge $-1 $326 $144 $340 $343 forward $139 $-1 #
vertex $-1 $230 $344 #
vertex $-1 $343 $345 #
straight-curve $-1 0 -32.909557483950366 -10.498577695104268 -1 0 0 I I #
face $-1 $346 $347 $34 $-1 $348 reversed single #
loop $-1 $-1 $152 $146 #
plane-surface $-1 -69.259857138449888 -38.201671121526843 0 1 0 0 0 0 -1 forward_v I I I I #
coedge $-1 $349 $350 $351 $352 forward $147 $-1 #
coedge $-1 $353 $149 $354 $355 forward $93 $-1 #
coedge $-1 $149 $353 $247 $356 forward $93 $-1 #
edge $-1 $249 -69.259857138449888 $357 -65.599660847262641 $149 $358 forward 7 unknown #
coedge $-1 $151 $150 $359 $360 forward $59 $-1 #
coedge $-1 $361 $362 $150 $246 forward $363 $-1 #
edge $-1 $364 65.599660847262641 $250 69.259857138449888 $245 $365 forward 7 unknown #
coedge $-1 $351 $152 $242 $356 reversed $238 $-1 #
coedge $-1 $152 $351 $361 $366 reversed $238 $-1 #
vertex $-1 $243 $367 #
vertex $-1 $366 $368 #
straight-curve $-1 -69.259857138449888 -32.909557483950366 0 0 0 1 I I #
face $-1 $-1 $369 $35 $-1 $370 reversed single #
loop $-1 $-1 $160 $154 #
plane-surface $-1 0 0 10.498577695104268 0 0 1 1 0 0 forward_v I I I I #
coedge $-1 $371 $372 $373 $374 reversed $155 $-1 #
coedge $-1 $375 $157 $159 $262 forward $97 $-1 #
coedge $-1 $157 $375 $371 $376 forward $97 $-1 #
coedge $-1 $373 $160 $157 $259 forward $253 $-1 #
edge $-1 $265 0.54626625200607393 $377 14.701464721862916 $258 $378 forward 7 unknown #
coedge $-1 $379 $380 $158 $261 forward $369 $-1 #
edge $-1 $381 -107.3993306248278 $264 -96.961625809965824 $260 $382 forward 7 unknown #
edge $-1 $265 137.74948061967038 $381 152.02124088259524 $159 $383 forward 7 unknown #
coedge $-1 $160 $373 $379 $384 forward $253 $-1 #
vertex $-1 $161 $385 #
vertex $-1 $161 $386 #
straight-curve $-1 41.756841656321257 -8.1701317389405688 10.498577695104274 -1 0 0 I I #
coedge $-1 $267 $267 $-1 $387 reversed $164 $-1 #
edge $-1 $388 0 $388 6.2831853071796004 $165 $389 forward 7 unknown #
vertex $-1 $168 $390 #
ellipse-curve $-1 71.143961957280894 -18.280987788838313 5.2797252876733056 0.73135370988377701 0 0.68199835119979291 1.3639967023995858 0 -1.462707419767554 1 I I #
coedge $-1 $271 $271 $-1 $391 reversed $171 $-1 #
edge $-1 $392 0 $392 6.2831853071796004 $172 $393 forward 7 unknown #
vertex $-1 $175 $394 #
ellipse-curve $-1 71.143961957280894 -12.214474158899666 5.2797252876733056 0.73135370988377701 0 0.68199835119979291 1.3639967023995858 0 -1.462707419767554 1 I I #
face $-1 $-1 $287 $38 $-1 $395 forward single #
loop $-1 $-1 $396 $176 #
plane-surface $-1 -76.010620441297647 0 0 1 0 0 0 0 -1 forward_v I I I I #
coedge $-1 $397 $398 $399 $400 reversed $177 $-1 #
coedge $-1 $401 $179 $181 $285 forward $111 $-1 #
coedge $-1 $179 $401 $397 $402 forward $111 $-1 #
coedge $-1 $399 $182 $179 $282 forward $287 $-1 #
edge $-1 $289 -12.45251768378961 $403 0.38056083128773022 $281 $404 forward 7 unknown #
coedge $-1 $405 $406 $180 $284 forward $276 $-1 #
edge $-1 $407 -36.428649305703438 $288 -31.369498266531465 $283 $408 forward 7 unknown #
edge $-1 $289 -5.9021745099062448 $407 0 $181 $409 forward 7 unknown #
coedge $-1 $182 $399 $405 $410 forward $287 $-1 #
loop $-1 $-1 $399 $275 #
vertex $-1 $284 $411 #
vertex $-1 $183 $412 #
straight-curve $-1 -103.1591291645428 -18.48849611004055 10.498577695104267 1 0 0 I I #
coedge $-1 $291 $291 $-1 $413 reversed $186 $-1 #
edge $-1 $414 0 $414 6.2831853071796004 $187 $415 forward 7 unknown #
vertex $-1 $190 $416 #
ellipse-curve $-1 -74.490698181095496 -14.821902248589883 7.9690021755182787 -0.85716730853699208 0 0.51503806187062418 0.51503806187062418 0 0.85716730853699208 1 I I #
coedge $-1 $295 $295 $-1 $417 reversed $193 $-1 #
edge $-1 $418 0 $418 6.2831853071796004 $194 $419 forward 7 unknown #
vertex $-1 $197 $420 #
ellipse-curve $-1 -74.490698181095496 -9.322011456413879 7.9690021755182787 -0.85716730853699208 0 0.51503806187062418 0.51503806187062418 0 0.85716730853699208 1 I I #
face $-1 $-1 $421 $41 $-1 $422 reversed single #
loop $-1 $-1 $204 $198 #
plane-surface $-1 0 0 10.498577695104268 0 0 1 1 0 0 forward_v I I I I #
coedge $-1 $423 $424 $425 $426 reversed $199 $-1 #
coedge $-1 $427 $201 $203 $309 forward $125 $-1 #
coedge $-1 $201 $427 $423 $428 forward $125 $-1 #
coedge $-1 $425 $204 $201 $306 forward $300 $-1 #
edge $-1 $312 1.3562042393973321 $429 14.189282754474672 $305 $430 forward 7 unknown #
coedge $-1 $431 $432 $202 $308 forward $421 $-1 #
edge $-1 $433 -36.428649305703438 $311 -31.369498266531465 $307 $434 forward 7 unknown #
edge $-1 $312 -5.9021745099062448 $433 0 $203 $435 forward 7 unknown #
coedge $-1 $204 $425 $431 $436 forward $300 $-1 #
vertex $-1 $308 $437 #
vertex $-1 $205 $438 #
straight-curve $-1 -103.1591291645428 9.128947736333334 10.498577695104267 1 0 0 I I #
coedge $-1 $314 $314 $-1 $439 reversed $208 $-1 #
edge $-1 $440 0 $440 6.2831853071796004 $209 $441 forward 7 unknown #
vertex $-1 $212 $442 #
ellipse-curve $-1 -74.490698181095496 12.795541597784009 7.9690021755182787 -0.85716730853699208 0 0.51503806187062418 0.51503806187062418 0 0.85716730853699208 1 I I #
coedge $-1 $318 $318 $-1 $443 reversed $215 $-1 #
edge $-1 $444 0 $444 6.2831853071796004 $216 $445 forward 7 unknown #
vertex $-1 $219 $446 #
ellipse-curve $-1 -74.490698181095496 18.295432389960013 7.9690021755182787 -0.85716730853699208 0 0.51503806187062418 0.51503806187062418 0 0.85716730853699208 1 I I #
face $-1 $-1 $334 $33 $-1 $447 reversed single #
loop $-1 $-1 $448 $220 #
plane-surface $-1 0 32.909557483950366 0 0 -1 0 0 0 -1 forward_v I I I I #
coedge $-1 $340 $339 $449 $450 forward $221 $-1 #
coedge $-1 $223 $233 $451 $452 forward $139 $-1 #
coedge $-1 $333 $229 $223 $328 reversed $334 $-1 #
edge $-1 $453 -32.909557483950366 $234 32.909557483950366 $327 $454 forward 7 unknown #
coedge $-1 $225 $224 $339 $455 forward $89 $-1 #
coedge $-1 $448 $449 $224 $331 reversed $323 $-1 #
edge $-1 $336 -76.010620441297647 $456 76.010620441297647 $330 $457 forward 7 unknown #
edge $-1 $341 -76.010620441297647 $335 76.010620441297647 $228 $458 forward 7 unknown #
coedge $-1 $226 $327 $448 $459 reversed $334 $-1 #
loop $-1 $-1 $229 $322 #
vertex $-1 $227 $460 #
vertex $-1 $227 $461 #
straight-curve $-1 76.010620441297647 0 10.498577695104268 0 1 0 I I #
straight-curve $-1 76.010620441297647 -32.909557483950366 0 0 0 -1 I I #
coedge $-1 $325 $231 $329 $455 reversed $221 $-1 #
coedge $-1 $231 $325 $233 $343 reversed $221 $-1 #
vertex $-1 $455 $462 #
straight-curve $-1 -76.010620441297647 -32.909557483950366 0 0 0 -1 I I #
edge $-1 $235 -32.909557483950366 $463 32.909557483950366 $340 $464 forward 7 unknown #
point $-1 76.010620441297647 -32.909557483950366 -10.498577695104268 #
point $-1 -76.010620441297647 -32.909557483950366 -10.498577695104268 #
face $-1 $-1 $363 $34 $-1 $465 forward single #
loop $-1 $-1 $466 $237 #
plane-surface $-1 -65.599660847262641 -38.201671121526843 0 -1 0 0 0 0 1 forward_v I I I I #
coedge $-1 $467 $240 $353 $468 reversed $147 $-1 #
coedge $-1 $240 $467 $469 $470 reversed $147 $-1 #
coedge $-1 $248 $247 $240 $352 reversed $238 $-1 #
edge $-1 $471 -10.498577695104268 $472 10.498577695104268 $351 $473 forward 7 unknown #
coedge $-1 $242 $241 $349 $468 forward $93 $-1 #
coedge $-1 $359 $466 $241 $355 reversed $347 $-1 #
edge $-1 $357 -5.2921136375764775 $474 5.2921136375764775 $354 $475 forward 7 unknown #
edge $-1 $472 -5.2921136375764775 $249 5.2921136375764775 $247 $476 forward 7 unknown #
vertex $-1 $355 $477 #
straight-curve $-1 0 -32.909557483950366 -10.498577695104268 1 0 0 I I #
coedge $-1 $478 $354 $244 $360 reversed $347 $-1 #
edge $-1 $364 -10.498577695104268 $357 10.498577695104268 $359 $479 forward 7 unknown #
coedge $-1 $469 $245 $248 $366 forward $363 $-1 #
coedge $-1 $245 $469 $478 $480 forward $363 $-1 #
loop $-1 $-1 $245 $346 #
vertex $-1 $246 $481 #
straight-curve $-1 0 -32.909557483950366 10.498577695104268 -1 0 0 I I #
edge $-1 $250 -5.2921136375764775 $471 5.2921136375764775 $248 $482 forward 7 unknown #
point $-1 -69.259857138449888 -32.909557483950366 -10.498577695104268 #
point $-1 -69.259857138449888 -32.909557483950366 10.498577695104268 #
loop $-1 $-1 $260 $252 #
plane-surface $-1 76.010620441297647 0 0 -1 0 0 0 0 1 forward_v I I I I #
coedge $-1 $372 $255 $257 $376 reversed $155 $-1 #
coedge $-1 $255 $371 $483 $484 reversed $155 $-1 #
coedge $-1 $263 $258 $255 $374 forward $253 $-1 #
edge $-1 $377 24.520461816942898 $485 34.25377878497639 $373 $486 forward 7 unknown #
coedge $-1 $257 $256 $380 $487 reversed $97 $-1 #
edge $-1 $488 -152.02124088259524 $377 -137.74948061967038 $371 $489 forward 7 unknown #
vertex $-1 $259 $490 #
straight-curve $-1 66.277303473264169 -7.6238654869344948 10.498577695104274 0 -1 0 I I #
coedge $-1 $483 $260 $263 $384 reversed $369 $-1 #
coedge $-1 $260 $483 $375 $487 forward $369 $-1 #
vertex $-1 $261 $491 #
straight-curve $-1 76.010620441297647 -8.1701317389405688 107.4602035050701 0 0 1 I I #
straight-curve $-1 -27.667615187978868 -8.1701317389405688 111.24217138086365 0.68199835119979291 0 -0.73135370988377701 I I #
edge $-1 $485 -22.325330208797411 $264 -8.1701317389405688 $379 $492 forward 7 unknown #
point $-1 76.010620441297647 -8.1701317389405688 10.498577695104268 #
point $-1 66.277303473264155 -8.1701317389405688 10.498577695104274 #
edge $-1 $493 1 $493 0 $267 $-1 forward 7 unknown #
vertex $-1 $268 $494 #
ellipse-curve $-1 68.835020687709132 -18.280987788838313 3.1266027731032473 0.73135370988377701 0 0.68199835119979291 1.3639967023995858 0 -1.462707419767554 1 I I #
point $-1 72.507958659680455 -18.280987788838313 3.8170178679057241 #
edge $-1 $495 1 $495 0 $271 $-1 forward 7 unknown #
vertex $-1 $272 $496 #
ellipse-curve $-1 68.835020687709132 -12.214474158899666 3.1266027731032473 0.73135370988377701 0 0.68199835119979291 1.3639967023995858 0 -1.462707419767554 1 I I #
point $-1 72.507958659680455 -12.214474158899666 3.8170178679057241 #
plane-surface $-1 0 0 10.498577695104268 0 0 1 1 0 0 forward_v I I I I #
coedge $-1 $406 $405 $398 $497 forward $276 $-1 #
coedge $-1 $398 $278 $280 $402 reversed $177 $-1 #
coedge $-1 $278 $397 $396 $497 reversed $177 $-1 #
coedge $-1 $286 $281 $278 $400 forward $287 $-1 #
edge $-1 $403 -30.188353243649473 $498 -27.148508723245158 $399 $499 forward 7 unknown #
coedge $-1 $280 $279 $406 $500 reversed $111 $-1 #
edge $-1 $501 0 $403 5.9021745099062448 $397 $502 forward 7 unknown #
vertex $-1 $282 $503 #
straight-curve $-1 -72.970775920893331 -6.0359784262509404 10.498577695104268 0 1 0 I I #
coedge $-1 $396 $283 $286 $410 reversed $276 $-1 #
coedge $-1 $283 $396 $401 $500 forward $276 $-1 #
vertex $-1 $284 $504 #
straight-curve $-1 -76.010620441297647 -18.48849611004055 41.868075961635732 0 0 1 I I #
straight-curve $-1 -76.010620441297647 -18.48849611004055 5.4394266559322944 -0.51503806187062418 0 -0.85716730853699208 I I #
edge $-1 $498 5.6554175949632102 $288 18.48849611004055 $405 $505 forward 7 unknown #
point $-1 -76.010620441297647 -18.48849611004055 10.498577695104268 #
point $-1 -72.970775920893331 -18.48849611004055 10.498577695104268 #
edge $-1 $506 1 $506 0 $291 $-1 forward 7 unknown #
vertex $-1 $292 $507 #
ellipse-curve $-1 -73.159599779423189 -14.821902248589883 7.1691975934624041 -0.85716730853699208 0 0.51503806187062418 0.51503806187062418 0 0.85716730853699208 1 I I #
point $-1 -73.97566011922487 -14.821902248589883 8.8261694840552707 #
edge $-1 $508 1 $508 0 $295 $-1 forward 7 unknown #
vertex $-1 $296 $509 #
ellipse-curve $-1 -73.159599779423189 -9.322011456413879 7.1691975934624041 -0.85716730853699208 0 0.51503806187062418 0.51503806187062418 0 0.85716730853699208 1 I I #
point $-1 -73.97566011922487 -9.322011456413879 8.8261694840552707 #
loop $-1 $-1 $307 $299 #
plane-surface $-1 -76.010620441297647 0 0 1 0 0 0 0 -1 forward_v I I I I #
coedge $-1 $424 $302 $304 $428 reversed $199 $-1 #
coedge $-1 $302 $423 $510 $511 reversed $199 $-1 #
coedge $-1 $310 $305 $302 $426 forward $300 $-1 #
edge $-1 $429 -30.188353243649473 $512 -27.148508723245158 $425 $513 forward 7 unknown #
coedge $-1 $304 $303 $432 $514 reversed $125 $-1 #
edge $-1 $515 0 $429 5.9021745099062448 $423 $516 forward 7 unknown #
vertex $-1 $306 $517 #
straight-curve $-1 -72.970775920893331 7.7727434969360019 10.498577695104268 0 1 0 I I #
coedge $-1 $510 $307 $310 $436 reversed $421 $-1 #
coedge $-1 $307 $510 $427 $514 forward $421 $-1 #
vertex $-1 $308 $518 #
straight-curve $-1 -76.010620441297647 9.128947736333334 41.868075961635732 0 0 1 I I #
straight-curve $-1 -76.010620441297647 9.128947736333334 5.4394266559322944 -0.51503806187062418 0 -0.85716730853699208 I I #
edge $-1 $512 -21.962026251410673 $311 -9.128947736333334 $431 $519 forward 7 unknown #
point $-1 -76.010620441297647 9.128947736333334 10.498577695104268 #
point $-1 -72.970775920893331 9.128947736333334 10.498577695104268 #
edge $-1 $520 1 $520 0 $314 $-1 forward 7 unknown #
vertex $-1 $315 $521 #
ellipse-curve $-1 -73.159599779423189 12.795541597784009 7.1691975934624041 -0.85716730853699208 0 0.51503806187062418 0.51503806187062418 0 0.85716730853699208 1 I I #
point $-1 -73.97566011922487 12.795541597784009 8.8261694840552707 #
edge $-1 $522 1 $522 0 $318 $-1 forward 7 unknown #
vertex $-1 $319 $523 #
ellipse-curve $-1 -73.159599779423189 18.295432389960013 7.1691975934624041 -0.85716730853699208 0 0.51503806187062418 0.51503806187062418 0 0.85716730853699208 1 I I #
point $-1 -73.97566011922487 18.295432389960013 8.8261694840552707 #
plane-surface $-1 76.010620441297647 0 0 -1 0 0 0 0 1 forward_v I I I I #
coedge $-1 $451 $330 $333 $459 forward $323 $-1 #
coedge $-1 $330 $451 $325 $450 reversed $323 $-1 #
edge $-1 $456 -10.498577695104268 $463 10.498577695104268 $449 $524 forward 7 unknown #
coedge $-1 $449 $448 $326 $452 reversed $323 $-1 #
edge $-1 $463 -76.010620441297647 $453 76.010620441297647 $451 $525 forward 7 unknown #
vertex $-1 $328 $526 #
straight-curve $-1 76.010620441297647 0 -10.498577695104268 0 -1 0 I I #
edge $-1 $456 -32.909557483950366 $341 32.909557483950366 $339 $527 forward 7 unknown #
vertex $-1 $331 $528 #
straight-curve $-1 0 32.909557483950366 10.498577695104268 -1 0 0 I I #
straight-curve $-1 0 -32.909557483950366 10.498577695104268 1 0 0 I I #
edge $-1 $336 -10.498577695104268 $453 10.498577695104268 $333 $529 forward 7 unknown #
point $-1 76.010620441297647 -32.909557483950366 10.498577695104268 #
point $-1 76.010620441297647 32.909557483950366 10.498577695104268 #
point $-1 -76.010620441297647 -32.909557483950366 10.498577695104268 #
vertex $-1 $452 $530 #
straight-curve $-1 -76.010620441297647 0 -10.498577695104268 0 1 0 I I #
plane-surface $-1 0 0 10.498577695104268 0 0 1 1 0 0 forward_v I I I I #
coedge $-1 $354 $478 $467 $531 forward $347 $-1 #
coedge $-1 $350 $349 $466 $531 reversed $147 $-1 #
edge $-1 $474 -1.8300981455936238 $472 1.8300981455936238 $349 $532 forward 7 unknown #
coedge $-1 $362 $361 $350 $470 forward $363 $-1 #
edge $-1 $471 -1.8300981455936238 $533 1.8300981455936238 $350 $534 forward 7 unknown #
vertex $-1 $366 $535 #
vertex $-1 $356 $536 #
straight-curve $-1 -69.259857138449888 -43.49378475910332 0 0 0 -1 I I #
vertex $-1 $531 $537 #
straight-curve $-1 -65.599660847262641 -38.201671121526843 -10.498577695104268 0 -1 0 I I #
straight-curve $-1 -69.259857138449888 -38.201671121526843 -10.498577695104268 0 1 0 I I #
point $-1 -65.599660847262641 -32.909557483950366 -10.498577695104268 #
coedge $-1 $466 $359 $362 $480 reversed $347 $-1 #
straight-curve $-1 -65.599660847262641 -32.909557483950366 0 0 0 -1 I I #
edge $-1 $533 -5.2921136375764775 $364 5.2921136375764775 $478 $538 forward 7 unknown #
point $-1 -65.599660847262641 -32.909557483950366 10.498577695104268 #
straight-curve $-1 -69.259857138449888 -38.201671121526843 10.498577695104268 0 -1 0 I I #
coedge $-1 $380 $379 $372 $484 forward $369 $-1 #
edge $-1 $485 96.961625809965824 $488 107.3993306248278 $483 $539 forward 7 unknown #
vertex $-1 $384 $540 #
straight-curve $-1 41.756841656321257 -22.325330208797411 10.498577695104274 1 0 0 I I #
edge $-1 $488 -14.701464721862916 $381 -0.54626625200607393 $380 $541 forward 7 unknown #
vertex $-1 $487 $542 #
straight-curve $-1 -27.667615187978868 -22.325330208797411 111.24217138086365 -0.68199835119979291 0 0.73135370988377701 I I #
point $-1 66.277303473264155 -22.325330208797411 10.498577695104274 #
point $-1 76.010620441297647 -8.1701317389405688 0.060872880242300198 #
straight-curve $-1 76.010620441297647 0 10.498577695104268 0 1 0 I I #
vertex $-1 $387 $543 #
point $-1 70.199017390108722 -18.280987788838313 1.6638953533356933 #
vertex $-1 $391 $544 #
point $-1 70.199017390108722 -12.214474158899666 1.6638953533356933 #
edge $-1 $498 31.369498266531465 $501 36.428649305703438 $396 $545 forward 7 unknown #
vertex $-1 $410 $546 #
straight-curve $-1 -103.1591291645428 -5.6554175949632102 10.498577695104267 -1 0 0 I I #
edge $-1 $501 -0.38056083128773022 $407 12.45251768378961 $406 $547 forward 7 unknown #
vertex $-1 $500 $548 #
straight-curve $-1 -76.010620441297647 -5.6554175949632102 5.4394266559322944 0.51503806187062418 0 0.85716730853699208 I I #
point $-1 -72.970775920893331 -5.6554175949632102 10.498577695104268 #
point $-1 -76.010620441297647 -18.48849611004055 5.4394266559322944 #
straight-curve $-1 -76.010620441297647 0 10.498577695104268 0 -1 0 I I #
vertex $-1 $413 $549 #
point $-1 -72.644561717552563 -14.821902248589883 8.0263649019993952 #
vertex $-1 $417 $550 #
point $-1 -72.644561717552563 -9.322011456413879 8.0263649019993952 #
coedge $-1 $432 $431 $424 $511 forward $421 $-1 #
edge $-1 $512 31.369498266531465 $515 36.428649305703438 $510 $551 forward 7 unknown #
vertex $-1 $436 $552 #
straight-curve $-1 -103.1591291645428 21.962026251410673 10.498577695104267 -1 0 0 I I #
edge $-1 $515 -14.189282754474672 $433 -1.3562042393973321 $432 $553 forward 7 unknown #
vertex $-1 $514 $554 #
straight-curve $-1 -76.010620441297647 21.962026251410673 5.4394266559322944 0.51503806187062418 0 0.85716730853699208 I I #
point $-1 -72.970775920893331 21.962026251410673 10.498577695104268 #
point $-1 -76.010620441297647 9.128947736333334 5.4394266559322944 #
straight-curve $-1 -76.010620441297647 0 10.498577695104268 0 -1 0 I I #
vertex $-1 $439 $555 #
point $-1 -72.644561717552563 12.795541597784009 8.0263649019993952 #
vertex $-1 $443 $556 #
point $-1 -72.644561717552563 18.295432389960013 8.0263649019993952 #
straight-curve $-1 -76.010620441297647 32.909557483950366 0 0 0 -1 I I #
straight-curve $-1 0 32.909557483950366 -10.498577695104268 1 0 0 I I #
point $-1 76.010620441297647 32.909557483950366 -10.498577695104268 #
straight-curve $-1 -76.010620441297647 0 10.498577695104268 0 -1 0 I I #
point $-1 -76.010620441297647 32.909557483950366 10.498577695104268 #
straight-curve $-1 76.010620441297647 32.909557483950366 0 0 0 -1 I I #
point $-1 -76.010620441297647 32.909557483950366 -10.498577695104268 #
edge $-1 $533 -10.498577695104268 $474 10.498577695104268 $466 $557 forward 7 unknown #
straight-curve $-1 -67.429758992856264 -43.49378475910332 -10.498577695104268 -1 0 0 I I #
vertex $-1 $480 $558 #
straight-curve $-1 -67.429758992856264 -43.49378475910332 10.498577695104268 1 0 0 I I #
point $-1 -69.259857138449888 -43.49378475910332 10.498577695104268 #
point $-1 -69.259857138449888 -43.49378475910332 -10.498577695104268 #
point $-1 -65.599660847262641 -43.49378475910332 -10.498577695104268 #
straight-curve $-1 -65.599660847262641 -38.201671121526843 10.498577695104268 0 1 0 I I #
straight-curve $-1 76.010620441297647 -22.325330208797411 107.4602035050701 0 0 -1 I I #
point $-1 76.010620441297647 -22.325330208797411 10.498577695104268 #
straight-curve $-1 76.010620441297647 -7.6238654869344948 0.060872880242307303 0 1 0 I I #
point $-1 76.010620441297647 -22.325330208797411 0.060872880242300198 #
point $-1 67.372313267941578 -18.280987788838313 1.7626060707036615 #
point $-1 67.372313267941578 -12.214474158899666 1.7626060707036615 #
straight-curve $-1 -76.010620441297647 -5.6554175949632102 41.868075961635732 0 0 -1 I I #
point $-1 -76.010620441297647 -5.6554175949632102 10.498577695104268 #
straight-curve $-1 -76.010620441297647 -6.0359784262509404 5.4394266559323015 0 -1 0 I I #
point $-1 -76.010620441297647 -5.6554175949632102 5.4394266559322944 #
point $-1 -72.302432470886203 -14.821902248589883 6.6541595315917794 #
point $-1 -72.302432470886203 -9.322011456413879 6.6541595315917794 #
straight-curve $-1 -76.010620441297647 21.962026251410673 41.868075961635732 0 0 -1 I I #
point $-1 -76.010620441297647 21.962026251410673 10.498577695104268 #
straight-curve $-1 -76.010620441297647 7.7727434969360019 5.4394266559323015 0 -1 0 I I #
point $-1 -76.010620441297647 21.962026251410673 5.4394266559322944 #
point $-1 -72.302432470886203 12.795541597784009 6.6541595315917794 #
point $-1 -72.302432470886203 18.295432389960013 6.6541595315917794 #
straight-curve $-1 -65.599660847262641 -43.49378475910332 0 0 0 -1 I I #
point $-1 -65.599660847262641 -43.49378475910332 10.498577695104268 #
End-of-ACIS-data 