500 0 10 0           
7 Unknown 11 ACIS 5.0 NT 24 Fri Mar 26 18:03:11 1999 
-1 9.9999999999999995e-007 1e-010 
body $-1 $10 $-1 $11 #
body $-1 $12 $-1 $13 #
body $-1 $14 $-1 $15 #
body $-1 $16 $-1 $17 #
body $-1 $18 $-1 $19 #
body $-1 $20 $-1 $21 #
body $-1 $22 $-1 $23 #
body $-1 $24 $-1 $25 #
body $-1 $26 $-1 $27 #
body $-1 $28 $-1 $29 #
lump $-1 $-1 $30 $0 #
transform $-1 1 0 0 0 1 0 0 0 1 58.706625568407233 39.460663395538575 10.168223069365226 1 rotate no_reflect no_shear #
lump $-1 $-1 $31 $1 #
transform $-1 1 0 0 0 1 0 0 0 1 58.706625568407233 39.460663395538575 10.168223069365226 1 rotate no_reflect no_shear #
lump $-1 $-1 $32 $2 #
transform $-1 1 0 0 0 1 0 0 0 1 58.706625568407233 39.460663395538575 10.168223069365226 1 rotate no_reflect no_shear #
lump $-1 $-1 $33 $3 #
transform $-1 1 0 0 0 1 0 0 0 1 58.706625568407233 39.460663395538575 10.168223069365226 1 rotate no_reflect no_shear #
lump $-1 $-1 $34 $4 #
transform $-1 1 0 0 0 1 0 0 0 1 58.706625568407233 39.460663395538575 10.168223069365226 1 rotate no_reflect no_shear #
lump $-1 $-1 $35 $5 #
transform $-1 1 0 0 0 1 0 0 0 1 58.706625568407233 39.460663395538575 10.168223069365226 1 rotate no_reflect no_shear #
lump $-1 $-1 $36 $6 #
transform $-1 1 0 0 0 1 0 0 0 1 58.706625568407233 39.460663395538575 10.168223069365226 1 rotate no_reflect no_shear #
lump $-1 $-1 $37 $7 #
transform $-1 1 0 0 0 1 0 0 0 1 58.706625568407233 39.460663395538575 10.168223069365226 1 rotate no_reflect no_shear #
lump $-1 $-1 $38 $8 #
transform $-1 1 0 0 0 1 0 0 0 1 58.706625568407233 39.460663395538575 10.168223069365226 1 rotate no_reflect no_shear #
lump $-1 $-1 $39 $9 #
transform $-1 1 0 0 0 1 0 0 0 1 58.706625568407233 39.460663395538575 10.168223069365226 1 rotate no_reflect no_shear #
shell $-1 $-1 $-1 $40 $-1 $10 #
shell $-1 $-1 $-1 $41 $-1 $12 #
shell $-1 $-1 $-1 $42 $-1 $14 #
shell $-1 $-1 $-1 $43 $-1 $16 #
shell $-1 $-1 $-1 $44 $-1 $18 #
shell $-1 $-1 $-1 $45 $-1 $20 #
shell $-1 $-1 $-1 $46 $-1 $22 #
shell $-1 $-1 $-1 $47 $-1 $24 #
shell $-1 $-1 $-1 $48 $-1 $26 #
shell $-1 $-1 $-1 $49 $-1 $28 #
face $-1 $50 $51 $30 $-1 $52 forward single #
face $-1 $53 $54 $31 $-1 $55 forward single #
face $-1 $56 $57 $32 $-1 $58 reversed single #
face $-1 $59 $60 $33 $-1 $61 forward single #
face $-1 $62 $63 $34 $-1 $64 reversed single #
face $-1 $65 $66 $35 $-1 $67 forward single #
face $-1 $68 $69 $36 $-1 $70 forward single #
face $-1 $71 $72 $37 $-1 $73 reversed single #
face $-1 $74 $75 $38 $-1 $76 forward single #
face $-1 $77 $78 $39 $-1 $79 forward single #
face $-1 $80 $81 $30 $-1 $82 reversed single #
loop $-1 $-1 $83 $40 #
plane-surface $-1 0 0 10.168223069365226 0 0 1 1 0 0 forward_v I I I I #
face $-1 $84 $85 $31 $-1 $86 reversed single #
loop $-1 $-1 $87 $41 #
plane-surface $-1 0 -39.460663395538575 0 0 1 0 0 0 1 forward_v I I I I #
face $-1 $88 $89 $32 $-1 $90 reversed single #
loop $-1 $-1 $91 $42 #
plane-surface $-1 24.183428732255166 9.2855751720771913 165.48091058701226 0 -1 0 -0.54463904215088732 0 -0.83867056331134215 forward_v I I I I #
face $-1 $92 $93 $33 $-1 $94 forward single #
loop $-1 $95 $96 $43 #
cone-surface $-1 51.459822417294639 1.3107580654569375 3.881072488631252 -0.54463904215088732 0 -0.83867056331134215 2.0966764082783556 0 -1.3615976053772183 1 I I 0 1 2.5 forward I I I I #
face $-1 $97 $98 $34 $-1 $99 reversed single #
loop $-1 $-1 $100 $44 #
plane-surface $-1 -144.57724237683209 -15.424011381178543 81.207744712299089 0 1 0 -0.73135370988377701 0 0.68199835119979291 forward_v I I I I #
face $-1 $101 $102 $35 $-1 $103 forward single #
loop $-1 $104 $105 $45 #
cone-surface $-1 -53.504524377184595 -11.636422794671745 4.7279594532168074 0.73135370988377701 0 -0.68199835119979291 1.0229975267996894 0 1.0970305648256655 1 I I 0 1 1.5 forward I I I I #
face $-1 $106 $107 $36 $-1 $108 forward single #
loop $-1 $109 $110 $46 #
cone-surface $-1 -53.504524377184595 -5.955039914911552 4.7279594532168074 0.73135370988377701 0 -0.68199835119979291 1.0229975267996894 0 1.0970305648256655 1 I I 0 1 1.5 forward I I I I #
face $-1 $111 $112 $37 $-1 $113 reversed single #
loop $-1 $-1 $114 $47 #
plane-surface $-1 -144.57724237683209 17.597715601575288 81.207744712299089 0 1 0 -0.73135370988377701 0 0.68199835119979291 forward_v I I I I #
face $-1 $115 $116 $38 $-1 $117 forward single #
loop $-1 $118 $119 $48 #
cone-surface $-1 -53.504524377184595 21.385304188082088 4.7279594532168074 0.73135370988377701 0 -0.68199835119979291 1.0229975267996894 0 1.0970305648256655 1 I I 0 1 1.5 forward I I I I #
face $-1 $120 $121 $39 $-1 $122 forward single #
loop $-1 $123 $124 $49 #
cone-surface $-1 -53.504524377184595 27.066687067842281 4.7279594532168074 0.73135370988377701 0 -0.68199835119979291 1.0229975267996894 0 1.0970305648256655 1 I I 0 1 1.5 forward I I I I #
face $-1 $125 $126 $30 $-1 $127 reversed single #
loop $-1 $-1 $128 $50 #
plane-surface $-1 0 0 -10.168223069365226 0 0 1 1 0 0 forward_v I I I I #
coedge $-1 $129 $130 $131 $132 forward $51 $-1 #
face $-1 $133 $134 $31 $-1 $135 reversed single #
loop $-1 $-1 $136 $53 #
plane-surface $-1 0 0 -10.168223069365226 0 0 1 1 0 0 forward_v I I I I #
coedge $-1 $137 $138 $139 $140 forward $54 $-1 #
face $-1 $141 $142 $32 $-1 $143 reversed single #
loop $-1 $-1 $144 $56 #
plane-surface $-1 -39.764411902721044 1.3107580654569375 67.009873115883991 0.54463904215088732 0 0.83867056331134215 0.83867056331134215 0 -0.54463904215088732 forward_v I I I I #
coedge $-1 $145 $146 $147 $148 reversed $57 $-1 #
face $-1 $-1 $149 $33 $-1 $150 forward single #
loop $-1 $151 $152 $59 #
cone-surface $-1 49.003507318254279 1.3107580654569375 0.098678997986823447 -0.54463904215088732 0 -0.83867056331134215 1.0483382041391778 0 -0.68079880268860915 1 I I -0.70710678118654757 0.70710678118654735 1.25 forward I I I I #
loop $-1 $-1 $153 $43 #
coedge $-1 $96 $96 $154 $155 reversed $60 $-1 #
face $-1 $156 $157 $34 $-1 $158 reversed single #
loop $-1 $-1 $159 $62 #
plane-surface $-1 -58.706625568407233 -8.7957313547916485 1.1321010279844188 -0.73135370988377701 0 0.68199835119979291 0.68199835119979291 0 0.73135370988377701 forward_v I I I I #
coedge $-1 $160 $161 $162 $163 reversed $63 $-1 #
face $-1 $-1 $164 $35 $-1 $165 forward single #
loop $-1 $166 $167 $65 #
cone-surface $-1 -51.967067863072096 -11.636422794671745 3.2942580943589519 0.73135370988377701 0 -0.68199835119979291 0.51149876339984468 0 0.54851528241283276 1 I I -0.70710678118654757 0.70710678118654757 0.75 forward I I I I #
loop $-1 $-1 $168 $45 #
coedge $-1 $105 $105 $169 $170 reversed $66 $-1 #
face $-1 $-1 $171 $36 $-1 $172 forward single #
loop $-1 $173 $174 $68 #
cone-surface $-1 -51.967067863072096 -5.955039914911552 3.2942580943589519 0.73135370988377701 0 -0.68199835119979291 0.51149876339984468 0 0.54851528241283276 1 I I -0.70710678118654757 0.70710678118654757 0.75 forward I I I I #
loop $-1 $-1 $175 $46 #
coedge $-1 $110 $110 $176 $177 reversed $69 $-1 #
face $-1 $178 $179 $37 $-1 $180 reversed single #
loop $-1 $-1 $181 $71 #
plane-surface $-1 -58.706625568407233 24.225995627962185 1.1321010279844188 -0.73135370988377701 0 0.68199835119979291 0.68199835119979291 0 0.73135370988377701 forward_v I I I I #
coedge $-1 $182 $183 $184 $185 reversed $72 $-1 #
face $-1 $-1 $186 $38 $-1 $187 forward single #
loop $-1 $188 $189 $74 #
cone-surface $-1 -51.967067863072096 21.385304188082088 3.2942580943589519 0.73135370988377701 0 -0.68199835119979291 0.51149876339984468 0 0.54851528241283276 1 I I -0.70710678118654757 0.70710678118654757 0.75 forward I I I I #
loop $-1 $-1 $190 $48 #
coedge $-1 $119 $119 $191 $192 reversed $75 $-1 #
face $-1 $-1 $193 $39 $-1 $194 forward single #
loop $-1 $195 $196 $77 #
cone-surface $-1 -51.967067863072096 27.066687067842281 3.2942580943589519 0.73135370988377701 0 -0.68199835119979291 0.51149876339984468 0 0.54851528241283276 1 I I -0.70710678118654757 0.70710678118654757 0.75 forward I I I I #
loop $-1 $-1 $197 $49 #
coedge $-1 $124 $124 $198 $199 reversed $78 $-1 #
face $-1 $200 $201 $30 $-1 $202 reversed single #
loop $-1 $-1 $203 $80 #
plane-surface $-1 0 -39.460663395538575 0 0 1 0 0 0 1 forward_v I I I I #
coedge $-1 $204 $205 $206 $207 forward $81 $-1 #
coedge $-1 $208 $83 $209 $210 forward $51 $-1 #
coedge $-1 $83 $208 $211 $212 forward $51 $-1 #
coedge $-1 $213 $214 $83 $132 reversed $215 $-1 #
edge $-1 $216 -39.460663395538575 $217 39.460663395538575 $131 $218 forward 7 unknown #
face $-1 $219 $220 $31 $-1 $221 forward single #
loop $-1 $-1 $222 $84 #
plane-surface $-1 58.706625568407233 0 0 -1 0 0 0 0 1 forward_v I I I I #
coedge $-1 $223 $224 $225 $226 forward $85 $-1 #
coedge $-1 $225 $87 $222 $227 reversed $54 $-1 #
coedge $-1 $87 $225 $228 $229 reversed $54 $-1 #
coedge $-1 $230 $231 $87 $140 reversed $220 $-1 #
edge $-1 $232 -58.706625568407233 $233 58.706625568407233 $139 $234 forward 7 unknown #
face $-1 $235 $236 $32 $-1 $237 reversed single #
loop $-1 $-1 $238 $88 #
plane-surface $-1 24.183428732255166 -6.6640590411633163 165.48091058701226 0 1 0 0.54463904215088732 0 0.83867056331134215 forward_v I I I I #
coedge $-1 $239 $240 $241 $242 reversed $89 $-1 #
coedge $-1 $146 $91 $243 $244 reversed $57 $-1 #
coedge $-1 $91 $145 $239 $245 reversed $57 $-1 #
coedge $-1 $241 $246 $91 $148 forward $247 $-1 #
edge $-1 $248 -46.61491120227965 $249 -35.672337492757975 $147 $250 forward 7 unknown #
loop $-1 $-1 $154 $92 #
plane-surface $-1 -39.764411902721044 1.3107580654569375 67.009873115883991 0.54463904215088732 0 0.83867056331134215 0.83867056331134215 0 -0.54463904215088732 forward_v I I I I #
loop $-1 $-1 $251 $59 #
coedge $-1 $152 $152 $153 $252 reversed $93 $-1 #
coedge $-1 $153 $153 $152 $252 forward $95 $-1 #
coedge $-1 $154 $154 $96 $155 forward $149 $-1 #
edge $-1 $253 0 $253 6.2831853071796004 $154 $254 forward 7 unknown #
face $-1 $255 $256 $34 $-1 $257 forward single #
loop $-1 $-1 $258 $97 #
plane-surface $-1 -144.57724237683209 -2.1674513284047539 81.207744712299089 0 -1 0 0.73135370988377701 0 -0.68199835119979291 forward_v I I I I #
coedge $-1 $259 $260 $261 $262 reversed $98 $-1 #
coedge $-1 $161 $100 $263 $264 reversed $63 $-1 #
coedge $-1 $100 $160 $259 $265 reversed $63 $-1 #
coedge $-1 $261 $266 $100 $163 forward $256 $-1 #
edge $-1 $267 13.581995620008811 $268 22.008315539054749 $162 $269 forward 7 unknown #
loop $-1 $-1 $169 $101 #
plane-surface $-1 -58.706625568407233 -8.7957313547916485 1.1321010279844188 -0.73135370988377701 0 0.68199835119979291 0.68199835119979291 0 0.73135370988377701 forward_v I I I I #
loop $-1 $-1 $270 $65 #
coedge $-1 $167 $167 $168 $271 reversed $102 $-1 #
coedge $-1 $168 $168 $167 $271 forward $104 $-1 #
coedge $-1 $169 $169 $105 $170 forward $164 $-1 #
edge $-1 $272 0 $272 6.2831853071796004 $169 $273 forward 7 unknown #
loop $-1 $-1 $176 $106 #
plane-surface $-1 -58.706625568407233 -8.7957313547916485 1.1321010279844188 -0.73135370988377701 0 0.68199835119979291 0.68199835119979291 0 0.73135370988377701 forward_v I I I I #
loop $-1 $-1 $274 $68 #
coedge $-1 $174 $174 $175 $275 reversed $107 $-1 #
coedge $-1 $175 $175 $174 $275 forward $109 $-1 #
coedge $-1 $176 $176 $110 $177 forward $171 $-1 #
edge $-1 $276 0 $276 6.2831853071796004 $176 $277 forward 7 unknown #
face $-1 $278 $279 $37 $-1 $280 forward single #
loop $-1 $-1 $281 $111 #
plane-surface $-1 -144.57724237683209 30.854275654349081 81.207744712299089 0 -1 0 0.73135370988377701 0 -0.68199835119979291 forward_v I I I I #
coedge $-1 $282 $283 $284 $285 reversed $112 $-1 #
coedge $-1 $183 $114 $286 $287 reversed $72 $-1 #
coedge $-1 $114 $182 $282 $288 reversed $72 $-1 #
coedge $-1 $284 $289 $114 $185 forward $279 $-1 #
edge $-1 $290 13.581995620008811 $291 22.008315539054749 $184 $292 forward 7 unknown #
loop $-1 $-1 $191 $115 #
plane-surface $-1 -58.706625568407233 24.225995627962185 1.1321010279844188 -0.73135370988377701 0 0.68199835119979291 0.68199835119979291 0 0.73135370988377701 forward_v I I I I #
loop $-1 $-1 $293 $74 #
coedge $-1 $189 $189 $190 $294 reversed $116 $-1 #
coedge $-1 $190 $190 $189 $294 forward $118 $-1 #
coedge $-1 $191 $191 $119 $192 forward $186 $-1 #
edge $-1 $295 0 $295 6.2831853071796004 $191 $296 forward 7 unknown #
loop $-1 $-1 $198 $120 #
plane-surface $-1 -58.706625568407233 24.225995627962185 1.1321010279844188 -0.73135370988377701 0 0.68199835119979291 0.68199835119979291 0 0.73135370988377701 forward_v I I I I #
loop $-1 $-1 $297 $77 #
coedge $-1 $196 $196 $197 $298 reversed $121 $-1 #
coedge $-1 $197 $197 $196 $298 forward $123 $-1 #
coedge $-1 $198 $198 $124 $199 forward $193 $-1 #
edge $-1 $299 0 $299 6.2831853071796004 $198 $300 forward 7 unknown #
face $-1 $301 $302 $30 $-1 $303 reversed single #
loop $-1 $-1 $304 $125 #
plane-surface $-1 -58.706625568407233 0 0 1 0 0 0 0 -1 forward_v I I I I #
coedge $-1 $305 $211 $306 $307 forward $126 $-1 #
coedge $-1 $308 $128 $305 $309 forward $81 $-1 #
coedge $-1 $128 $308 $310 $311 forward $81 $-1 #
coedge $-1 $214 $213 $128 $207 reversed $215 $-1 #
edge $-1 $312 -39.460663395538575 $313 39.460663395538575 $206 $314 forward 7 unknown #
coedge $-1 $130 $129 $315 $316 forward $51 $-1 #
coedge $-1 $317 $318 $129 $210 reversed $302 $-1 #
edge $-1 $217 -58.706625568407233 $319 58.706625568407233 $209 $320 forward 7 unknown #
coedge $-1 $203 $321 $130 $212 reversed $126 $-1 #
edge $-1 $322 -58.706625568407233 $216 58.706625568407233 $211 $323 forward 7 unknown #
coedge $-1 $206 $131 $321 $324 forward $215 $-1 #
coedge $-1 $131 $206 $317 $325 reversed $215 $-1 #
loop $-1 $-1 $213 $301 #
vertex $-1 $132 $326 #
vertex $-1 $132 $327 #
straight-curve $-1 58.706625568407233 0 10.168223069365226 0 1 0 I I #
face $-1 $328 $329 $31 $-1 $330 reversed single #
loop $-1 $-1 $231 $133 #
plane-surface $-1 0 -45.899599808323316 -4.8964616280678754 0 0 1 1 0 0 forward_v I I I I #
coedge $-1 $331 $332 $137 $227 forward $134 $-1 #
coedge $-1 $333 $136 $332 $334 forward $85 $-1 #
coedge $-1 $136 $333 $335 $336 forward $85 $-1 #
coedge $-1 $138 $137 $136 $226 reversed $54 $-1 #
edge $-1 $337 -58.706625568407233 $338 58.706625568407233 $136 $339 forward 7 unknown #
edge $-1 $338 -10.168223069365226 $233 -4.8964616280678754 $222 $340 forward 7 unknown #
coedge $-1 $335 $341 $138 $229 forward $342 $-1 #
edge $-1 $232 4.8964616280678754 $337 10.168223069365226 $228 $343 forward 7 unknown #
coedge $-1 $344 $139 $341 $345 forward $220 $-1 #
coedge $-1 $139 $344 $331 $346 forward $220 $-1 #
vertex $-1 $229 $347 #
vertex $-1 $346 $348 #
straight-curve $-1 0 -39.460663395538575 -4.8964616280678754 1 0 0 I I #
face $-1 $-1 $247 $32 $-1 $349 forward single #
loop $-1 $-1 $350 $141 #
plane-surface $-1 58.706625568407233 0 0 -1 0 0 0 0 1 forward_v I I I I #
coedge $-1 $351 $352 $353 $354 reversed $142 $-1 #
coedge $-1 $355 $144 $146 $245 forward $89 $-1 #
coedge $-1 $144 $355 $351 $356 forward $89 $-1 #
coedge $-1 $353 $147 $144 $242 forward $247 $-1 #
edge $-1 $249 -8.6301961393487225 $357 7.319438073891785 $241 $358 forward 7 unknown #
coedge $-1 $359 $360 $145 $244 forward $236 $-1 #
edge $-1 $361 -79.67842281259837 $248 -72.572232224140905 $243 $362 forward 7 unknown #
edge $-1 $249 104.36572784433493 $361 117.41325113681448 $146 $363 forward 7 unknown #
coedge $-1 $147 $353 $359 $364 forward $247 $-1 #
loop $-1 $-1 $353 $235 #
vertex $-1 $244 $365 #
vertex $-1 $148 $366 #
straight-curve $-1 12.091714366127583 9.2855751720771913 10.168223069365226 -1 0 0 I I #
coedge $-1 $251 $251 $-1 $367 reversed $151 $-1 #
edge $-1 $368 0 $368 6.2831853071796004 $152 $369 forward 7 unknown #
vertex $-1 $155 $370 #
ellipse-curve $-1 53.235338713646385 1.3107580654569375 6.6151277751365036 0.54463904215088732 0 0.83867056331134215 2.0966764082783556 0 -1.3615976053772183 1 I I #
face $-1 $-1 $371 $34 $-1 $372 reversed single #
loop $-1 $-1 $162 $156 #
plane-surface $-1 0 0 10.168223069365226 0 0 1 1 0 0 forward_v I I I I #
coedge $-1 $373 $374 $375 $376 reversed $157 $-1 #
coedge $-1 $377 $159 $161 $265 forward $98 $-1 #
coedge $-1 $159 $377 $373 $378 forward $98 $-1 #
coedge $-1 $375 $162 $159 $262 forward $256 $-1 #
edge $-1 $268 -11.026145703782719 $379 2.2304143489910704 $261 $380 forward 7 unknown #
coedge $-1 $381 $382 $160 $264 forward $371 $-1 #
edge $-1 $383 -39.471771328165126 $267 -30.435649286784319 $263 $384 forward 7 unknown #
edge $-1 $268 -12.355337669397723 $383 0 $161 $385 forward 7 unknown #
coedge $-1 $162 $375 $381 $386 forward $256 $-1 #
vertex $-1 $264 $387 #
vertex $-1 $163 $388 #
straight-curve $-1 -72.288621188416045 -15.424011381178543 10.168223069365226 1 0 0 I I #
coedge $-1 $270 $270 $-1 $389 reversed $166 $-1 #
edge $-1 $390 0 $390 6.2831853071796004 $167 $391 forward 7 unknown #
vertex $-1 $170 $392 #
ellipse-curve $-1 -54.493465608884264 -11.636422794671745 5.6501620486748214 -0.73135370988377701 0 0.68199835119979291 1.0229975267996894 0 1.0970305648256655 1 I I #
coedge $-1 $274 $274 $-1 $393 reversed $173 $-1 #
edge $-1 $394 0 $394 6.2831853071796004 $174 $395 forward 7 unknown #
vertex $-1 $177 $396 #
ellipse-curve $-1 -54.493465608884264 -5.955039914911552 5.6501620486748214 -0.73135370988377701 0 0.68199835119979291 1.0229975267996894 0 1.0970305648256655 1 I I #
face $-1 $-1 $397 $37 $-1 $398 reversed single #
loop $-1 $-1 $184 $178 #
plane-surface $-1 0 0 10.168223069365226 0 0 1 1 0 0 forward_v I I I I #
coedge $-1 $399 $400 $401 $402 reversed $179 $-1 #
coedge $-1 $403 $181 $183 $288 forward $112 $-1 #
coedge $-1 $181 $403 $399 $404 forward $112 $-1 #
coedge $-1 $401 $184 $181 $285 forward $279 $-1 #
edge $-1 $291 5.4847177875941959 $405 18.741277840367989 $284 $406 forward 7 unknown #
coedge $-1 $407 $408 $182 $287 forward $397 $-1 #
edge $-1 $409 -39.471771328165126 $290 -30.435649286784319 $286 $410 forward 7 unknown #
edge $-1 $291 -12.355337669397723 $409 0 $183 $411 forward 7 unknown #
coedge $-1 $184 $401 $407 $412 forward $279 $-1 #
vertex $-1 $185 $413 #
vertex $-1 $185 $414 #
straight-curve $-1 -72.288621188416045 17.597715601575288 10.168223069365226 1 0 0 I I #
coedge $-1 $293 $293 $-1 $415 reversed $188 $-1 #
edge $-1 $416 0 $416 6.2831853071796004 $189 $417 forward 7 unknown #
vertex $-1 $192 $418 #
ellipse-curve $-1 -54.493465608884264 21.385304188082088 5.6501620486748214 -0.73135370988377701 0 0.68199835119979291 1.0229975267996894 0 1.0970305648256655 1 I I #
coedge $-1 $297 $297 $-1 $419 reversed $195 $-1 #
edge $-1 $420 0 $420 6.2831853071796004 $196 $421 forward 7 unknown #
vertex $-1 $199 $422 #
ellipse-curve $-1 -54.493465608884264 27.066687067842281 5.6501620486748214 -0.73135370988377701 0 0.68199835119979291 1.0229975267996894 0 1.0970305648256655 1 I I #
face $-1 $-1 $215 $30 $-1 $423 reversed single #
loop $-1 $-1 $317 $200 #
plane-surface $-1 0 39.460663395538575 0 0 -1 0 0 0 -1 forward_v I I I I #
coedge $-1 $424 $315 $318 $425 forward $201 $-1 #
coedge $-1 $321 $203 $204 $309 reversed $126 $-1 #
coedge $-1 $315 $424 $203 $307 reversed $201 $-1 #
edge $-1 $322 -10.168223069365226 $426 10.168223069365226 $306 $427 forward 7 unknown #
coedge $-1 $205 $204 $424 $428 forward $81 $-1 #
edge $-1 $313 -58.706625568407233 $426 58.706625568407233 $305 $429 forward 7 unknown #
coedge $-1 $318 $317 $205 $311 reversed $302 $-1 #
edge $-1 $430 -58.706625568407233 $312 58.706625568407233 $310 $431 forward 7 unknown #
vertex $-1 $207 $432 #
vertex $-1 $324 $433 #
straight-curve $-1 58.706625568407233 0 -10.168223069365226 0 -1 0 I I #
coedge $-1 $304 $306 $208 $316 reversed $201 $-1 #
edge $-1 $319 -39.460663395538575 $322 39.460663395538575 $315 $434 forward 7 unknown #
coedge $-1 $310 $209 $214 $325 forward $302 $-1 #
coedge $-1 $209 $310 $304 $425 reversed $302 $-1 #
vertex $-1 $210 $435 #
straight-curve $-1 0 39.460663395538575 10.168223069365226 -1 0 0 I I #
coedge $-1 $211 $305 $213 $324 reversed $126 $-1 #
vertex $-1 $316 $436 #
straight-curve $-1 0 -39.460663395538575 10.168223069365226 1 0 0 I I #
edge $-1 $216 -10.168223069365226 $313 10.168223069365226 $213 $437 forward 7 unknown #
edge $-1 $217 -10.168223069365226 $312 10.168223069365226 $214 $438 forward 7 unknown #
point $-1 58.706625568407233 -39.460663395538575 10.168223069365226 #
point $-1 58.706625568407233 39.460663395538575 10.168223069365226 #
face $-1 $-1 $342 $31 $-1 $439 reversed single #
loop $-1 $-1 $440 $219 #
plane-surface $-1 0 -52.338536221108058 -7.5323423487165506 0 1 0 0 0 1 forward_v I I I I #
coedge $-1 $441 $222 $231 $346 reversed $134 $-1 #
coedge $-1 $222 $441 $223 $334 reversed $134 $-1 #
coedge $-1 $224 $223 $442 $443 forward $85 $-1 #
edge $-1 $338 39.460663395538575 $444 52.338536221108058 $332 $445 forward 7 unknown #
coedge $-1 $446 $228 $224 $336 reversed $342 $-1 #
edge $-1 $447 -52.338536221108058 $337 -39.460663395538575 $335 $448 forward 7 unknown #
vertex $-1 $229 $449 #
vertex $-1 $334 $450 #
straight-curve $-1 0 -39.460663395538575 -10.168223069365226 1 0 0 I I #
straight-curve $-1 58.706625568407233 -39.460663395538575 0 0 0 1 I I #
coedge $-1 $228 $446 $230 $345 reversed $342 $-1 #
loop $-1 $-1 $228 $328 #
straight-curve $-1 -58.706625568407233 -39.460663395538575 0 0 0 -1 I I #
coedge $-1 $231 $230 $451 $452 forward $220 $-1 #
edge $-1 $232 -6.4389364127847415 $453 6.4389364127847415 $341 $454 forward 7 unknown #
edge $-1 $455 -6.4389364127847415 $233 6.4389364127847415 $331 $456 forward 7 unknown #
point $-1 -58.706625568407233 -39.460663395538575 -4.8964616280678754 #
point $-1 58.706625568407233 -39.460663395538575 -4.8964616280678754 #
plane-surface $-1 0 0 10.168223069365226 0 0 1 1 0 0 forward_v I I I I #
coedge $-1 $360 $359 $352 $457 forward $236 $-1 #
coedge $-1 $352 $238 $240 $356 reversed $142 $-1 #
coedge $-1 $238 $351 $350 $457 reversed $142 $-1 #
coedge $-1 $246 $241 $238 $354 forward $247 $-1 #
edge $-1 $357 35.672337492757975 $458 46.61491120227965 $353 $459 forward 7 unknown #
coedge $-1 $240 $239 $360 $460 reversed $89 $-1 #
edge $-1 $461 -117.41325113681448 $357 -104.36572784433493 $351 $462 forward 7 unknown #
vertex $-1 $242 $463 #
straight-curve $-1 47.764051858885551 0.65537903272846876 10.168223069365226 0 -1 0 I I #
coedge $-1 $350 $243 $246 $364 reversed $236 $-1 #
coedge $-1 $243 $350 $355 $460 forward $236 $-1 #
vertex $-1 $244 $464 #
straight-curve $-1 58.706625568407233 9.2855751720771913 82.74045529350613 0 0 1 I I #
straight-curve $-1 -39.764411902721044 9.2855751720771913 67.009873115883991 0.83867056331134215 0 -0.54463904215088732 I I #
edge $-1 $458 -6.6640590411633163 $248 9.2855751720771913 $359 $465 forward 7 unknown #
point $-1 58.706625568407233 9.2855751720771913 10.168223069365226 #
point $-1 47.764051858885558 9.2855751720771913 10.168223069365226 #
edge $-1 $466 1 $466 0 $251 $-1 forward 7 unknown #
vertex $-1 $252 $467 #
ellipse-curve $-1 49.684306120942885 1.3107580654569375 1.1470172021260008 0.54463904215088732 0 0.83867056331134215 2.0966764082783556 0 -1.3615976053772183 1 I I #
point $-1 55.332015121924741 1.3107580654569375 5.2535301697592853 #
loop $-1 $-1 $263 $255 #
plane-surface $-1 -58.706625568407233 0 0 1 0 0 0 0 -1 forward_v I I I I #
coedge $-1 $374 $258 $260 $378 reversed $157 $-1 #
coedge $-1 $258 $373 $468 $469 reversed $157 $-1 #
coedge $-1 $266 $261 $258 $376 forward $256 $-1 #
edge $-1 $379 -22.008315539054749 $470 -13.581995620008811 $375 $471 forward 7 unknown #
coedge $-1 $260 $259 $382 $472 reversed $98 $-1 #
edge $-1 $473 0 $379 12.355337669397723 $373 $474 forward 7 unknown #
vertex $-1 $262 $475 #
straight-curve $-1 -50.280305649361289 -4.3978656773958242 10.168223069365226 0 1 0 I I #
coedge $-1 $468 $263 $266 $386 reversed $371 $-1 #
coedge $-1 $263 $468 $377 $472 forward $371 $-1 #
vertex $-1 $264 $476 #
straight-curve $-1 -58.706625568407233 -15.424011381178543 40.603872356149544 0 0 1 I I #
straight-curve $-1 -58.706625568407233 -15.424011381178543 1.1321010279844188 -0.68199835119979291 0 -0.73135370988377701 I I #
edge $-1 $470 2.1674513284047539 $267 15.424011381178543 $381 $477 forward 7 unknown #
point $-1 -58.706625568407233 -15.424011381178543 10.168223069365226 #
point $-1 -50.280305649361296 -15.424011381178543 10.168223069365226 #
edge $-1 $478 1 $478 0 $270 $-1 forward 7 unknown #
vertex $-1 $271 $479 #
ellipse-curve $-1 -52.515583145484925 -11.636422794671745 3.8057568577587966 -0.73135370988377701 0 0.68199835119979291 1.0229975267996894 0 1.0970305648256655 1 I I #
point $-1 -53.470468082084572 -11.636422794671745 6.7471926135004825 #
edge $-1 $480 1 $480 0 $274 $-1 forward 7 unknown #
vertex $-1 $275 $481 #
ellipse-curve $-1 -52.515583145484925 -5.955039914911552 3.8057568577587966 -0.73135370988377701 0 0.68199835119979291 1.0229975267996894 0 1.0970305648256655 1 I I #
point $-1 -53.470468082084572 -5.955039914911552 6.7471926135004825 #
loop $-1 $-1 $286 $278 #
plane-surface $-1 -58.706625568407233 0 0 1 0 0 0 0 -1 forward_v I I I I #
coedge $-1 $400 $281 $283 $404 reversed $179 $-1 #
coedge $-1 $281 $399 $482 $483 reversed $179 $-1 #
coedge $-1 $289 $284 $281 $402 forward $279 $-1 #
edge $-1 $405 -22.008315539054749 $484 -13.581995620008811 $401 $485 forward 7 unknown #
coedge $-1 $283 $282 $408 $486 reversed $112 $-1 #
edge $-1 $487 0 $405 12.355337669397723 $399 $488 forward 7 unknown #
vertex $-1 $285 $489 #
straight-curve $-1 -50.280305649361289 12.112997813981092 10.168223069365226 0 1 0 I I #
coedge $-1 $482 $286 $289 $412 reversed $397 $-1 #
coedge $-1 $286 $482 $403 $486 forward $397 $-1 #
vertex $-1 $287 $490 #
straight-curve $-1 -58.706625568407233 17.597715601575288 40.603872356149544 0 0 1 I I #
straight-curve $-1 -58.706625568407233 17.597715601575288 1.1321010279844188 -0.68199835119979291 0 -0.73135370988377701 I I #
edge $-1 $484 -30.854275654349081 $290 -17.597715601575288 $407 $491 forward 7 unknown #
point $-1 -58.706625568407233 17.597715601575288 10.168223069365226 #
point $-1 -50.280305649361296 17.597715601575288 10.168223069365226 #
edge $-1 $492 1 $492 0 $293 $-1 forward 7 unknown #
vertex $-1 $294 $493 #
ellipse-curve $-1 -52.515583145484925 21.385304188082088 3.8057568577587966 -0.73135370988377701 0 0.68199835119979291 1.0229975267996894 0 1.0970305648256655 1 I I #
point $-1 -53.470468082084572 21.385304188082088 6.7471926135004825 #
edge $-1 $494 1 $494 0 $297 $-1 forward 7 unknown #
vertex $-1 $298 $495 #
ellipse-curve $-1 -52.515583145484925 27.066687067842281 3.8057568577587966 -0.73135370988377701 0 0.68199835119979291 1.0229975267996894 0 1.0970305648256655 1 I I #
point $-1 -53.470468082084572 27.066687067842281 6.7471926135004825 #
plane-surface $-1 58.706625568407233 0 0 -1 0 0 0 0 1 forward_v I I I I #
coedge $-1 $306 $304 $308 $428 reversed $201 $-1 #
edge $-1 $319 -10.168223069365226 $430 10.168223069365226 $318 $496 forward 7 unknown #
vertex $-1 $428 $497 #
straight-curve $-1 -58.706625568407233 -39.460663395538575 0 0 0 -1 I I #
edge $-1 $426 -39.460663395538575 $430 39.460663395538575 $424 $498 forward 7 unknown #
straight-curve $-1 0 -39.460663395538575 -10.168223069365226 -1 0 0 I I #
vertex $-1 $311 $499 #
straight-curve $-1 0 39.460663395538575 -10.168223069365226 1 0 0 I I #
point $-1 58.706625568407233 39.460663395538575 -10.168223069365226 #
point $-1 58.706625568407233 -39.460663395538575 -10.168223069365226 #
straight-curve $-1 -58.706625568407233 0 10.168223069365226 0 -1 0 I I #
point $-1 -58.706625568407233 39.460663395538575 10.168223069365226 #
point $-1 -58.706625568407233 -39.460663395538575 10.168223069365226 #
straight-curve $-1 58.706625568407233 -39.460663395538575 0 0 0 -1 I I #
straight-curve $-1 58.706625568407233 39.460663395538575 0 0 0 -1 I I #
plane-surface $-1 -58.706625568407233 0 0 1 0 0 0 0 -1 forward_v I I I I #
coedge $-1 $442 $451 $446 $500 forward $329 $-1 #
coedge $-1 $332 $331 $501 $502 forward $134 $-1 #
coedge $-1 $501 $440 $333 $443 reversed $329 $-1 #
edge $-1 $444 -58.706625568407233 $447 58.706625568407233 $442 $503 forward 7 unknown #
vertex $-1 $502 $504 #
straight-curve $-1 58.706625568407233 0 -10.168223069365226 0 -1 0 I I #
coedge $-1 $341 $335 $440 $500 reversed $342 $-1 #
vertex $-1 $336 $505 #
straight-curve $-1 -58.706625568407233 0 -10.168223069365226 0 1 0 I I #
point $-1 -58.706625568407233 -39.460663395538575 -10.168223069365226 #
point $-1 58.706625568407233 -39.460663395538575 -10.168223069365226 #
coedge $-1 $440 $501 $344 $452 reversed $329 $-1 #
edge $-1 $453 -58.706625568407233 $455 58.706625568407233 $451 $506 forward 7 unknown #
vertex $-1 $345 $507 #
straight-curve $-1 -58.706625568407233 -45.899599808323316 -4.8964616280678754 0 -1 0 I I #
vertex $-1 $346 $508 #
straight-curve $-1 58.706625568407233 -45.899599808323316 -4.8964616280678754 0 1 0 I I #
edge $-1 $458 72.572232224140905 $461 79.67842281259837 $350 $509 forward 7 unknown #
vertex $-1 $364 $510 #
straight-curve $-1 12.091714366127583 -6.6640590411633163 10.168223069365226 1 0 0 I I #
edge $-1 $461 -7.319438073891785 $361 8.6301961393487225 $360 $511 forward 7 unknown #
vertex $-1 $460 $512 #
straight-curve $-1 -39.764411902721044 -6.6640590411633163 67.009873115883991 -0.83867056331134215 0 0.54463904215088732 I I #
point $-1 47.764051858885558 -6.6640590411633163 10.168223069365226 #
point $-1 58.70662556840724 9.2855751720771913 3.0620324809077673 #
straight-curve $-1 58.706625568407233 0 10.168223069365226 0 1 0 I I #
vertex $-1 $367 $513 #
point $-1 51.780982529221241 1.3107580654569375 -0.21458040325121752 #
coedge $-1 $382 $381 $374 $469 forward $371 $-1 #
edge $-1 $470 30.435649286784319 $473 39.471771328165126 $468 $514 forward 7 unknown #
vertex $-1 $386 $515 #
straight-curve $-1 -72.288621188416045 -2.1674513284047539 10.168223069365226 -1 0 0 I I #
edge $-1 $473 -2.2304143489910704 $383 11.026145703782719 $382 $516 forward 7 unknown #
vertex $-1 $472 $517 #
straight-curve $-1 -58.706625568407233 -2.1674513284047539 1.1321010279844188 0.68199835119979291 0 0.73135370988377701 I I #
point $-1 -50.280305649361296 -2.1674513284047539 10.168223069365226 #
point $-1 -58.706625568407233 -15.424011381178543 1.1321010279844188 #
straight-curve $-1 -58.706625568407233 0 10.168223069365226 0 -1 0 I I #
vertex $-1 $389 $518 #
point $-1 -51.49258561868524 -11.636422794671745 4.9027874225844617 #
vertex $-1 $393 $519 #
point $-1 -51.49258561868524 -5.955039914911552 4.9027874225844617 #
coedge $-1 $408 $407 $400 $483 forward $397 $-1 #
edge $-1 $484 30.435649286784319 $487 39.471771328165126 $482 $520 forward 7 unknown #
vertex $-1 $412 $521 #
straight-curve $-1 -72.288621188416045 30.854275654349081 10.168223069365226 -1 0 0 I I #
edge $-1 $487 -18.741277840367989 $409 -5.4847177875941959 $408 $522 forward 7 unknown #
vertex $-1 $486 $523 #
straight-curve $-1 -58.706625568407233 30.854275654349081 1.1321010279844188 0.68199835119979291 0 0.73135370988377701 I I #
point $-1 -50.280305649361296 30.854275654349081 10.168223069365226 #
point $-1 -58.706625568407233 17.597715601575288 1.1321010279844188 #
straight-curve $-1 -58.706625568407233 0 10.168223069365226 0 -1 0 I I #
vertex $-1 $415 $524 #
point $-1 -51.49258561868524 21.385304188082088 4.9027874225844617 #
vertex $-1 $419 $525 #
point $-1 -51.49258561868524 27.066687067842281 4.9027874225844617 #
straight-curve $-1 -58.706625568407233 39.460663395538575 0 0 0 -1 I I #
point $-1 -58.706625568407233 -39.460663395538575 -10.168223069365226 #
straight-curve $-1 -58.706625568407233 0 -10.168223069365226 0 1 0 I I #
point $-1 -58.706625568407233 39.460663395538575 -10.168223069365226 #
edge $-1 $453 -2.6358807206486752 $447 2.6358807206486752 $446 $526 forward 7 unknown #
coedge $-1 $451 $442 $441 $502 reversed $329 $-1 #
edge $-1 $455 -2.6358807206486752 $444 2.6358807206486752 $441 $527 forward 7 unknown #
straight-curve $-1 0 -52.338536221108058 -10.168223069365226 -1 0 0 I I #
point $-1 58.706625568407233 -52.338536221108058 -10.168223069365226 #
point $-1 -58.706625568407233 -52.338536221108058 -10.168223069365226 #
straight-curve $-1 0 -52.338536221108058 -4.8964616280678754 1 0 0 I I #
point $-1 -58.706625568407233 -52.338536221108058 -4.8964616280678754 #
point $-1 58.706625568407233 -52.338536221108058 -4.8964616280678754 #
straight-curve $-1 58.706625568407233 -6.6640590411633163 82.74045529350613 0 0 -1 I I #
point $-1 58.706625568407233 -6.6640590411633163 10.168223069365226 #
straight-curve $-1 58.706625568407233 0.65537903272846876 3.0620324809077744 0 1 0 I I #
point $-1 58.70662556840724 -6.6640590411633163 3.0620324809077673 #
point $-1 48.322708515565672 1.3107580654569375 -0.94965920615235389 #
straight-curve $-1 -58.706625568407233 -2.1674513284047539 40.603872356149544 0 0 -1 I I #
point $-1 -58.706625568407233 -2.1674513284047539 10.168223069365226 #
straight-curve $-1 -58.706625568407233 -4.3978656773958242 1.1321010279844173 0 -1 0 I I #
point $-1 -58.706625568407233 -2.1674513284047539 1.1321010279844188 #
point $-1 -51.418552580659266 -11.636422794671745 2.7827593309591072 #
point $-1 -51.418552580659266 -5.955039914911552 2.7827593309591072 #
straight-curve $-1 -58.706625568407233 30.854275654349081 40.603872356149544 0 0 -1 I I #
point $-1 -58.706625568407233 30.854275654349081 10.168223069365226 #
straight-curve $-1 -58.706625568407233 12.112997813981092 1.1321010279844173 0 -1 0 I I #
point $-1 -58.706625568407233 30.854275654349081 1.1321010279844188 #
point $-1 -51.418552580659266 21.385304188082088 2.7827593309591072 #
point $-1 -51.418552580659266 27.066687067842281 2.7827593309591072 #
straight-curve $-1 -58.706625568407233 -52.338536221108058 -7.5323423487165506 0 0 -1 I I #
straight-curve $-1 58.706625568407233 -52.338536221108058 -7.5323423487165506 0 0 -1 I I #
End-of-ACIS-data 