500 0 12 0           
7 Unknown 11 ACIS 5.0 NT 24 Thu Mar 25 22:08:46 1999 
-1 9.9999999999999995e-007 1e-010 
body $-1 $12 $-1 $13 #
body $-1 $14 $-1 $15 #
body $-1 $16 $-1 $17 #
body $-1 $18 $-1 $19 #
body $-1 $20 $-1 $21 #
body $-1 $22 $-1 $23 #
body $-1 $24 $-1 $25 #
body $-1 $26 $-1 $27 #
body $-1 $28 $-1 $29 #
body $-1 $30 $-1 $31 #
body $-1 $32 $-1 $33 #
body $-1 $34 $-1 $35 #
lump $-1 $-1 $36 $0 #
transform $-1 1 0 0 0 1 0 0 0 1 52.693258461256747 25.664304038663555 9.1264260847595295 1 rotate no_reflect no_shear #
lump $-1 $-1 $37 $1 #
transform $-1 1 0 0 0 1 0 0 0 1 52.693258461256747 25.664304038663555 9.1264260847595295 1 rotate no_reflect no_shear #
lump $-1 $-1 $38 $2 #
transform $-1 1 0 0 0 1 0 0 0 1 52.693258461256747 25.664304038663555 9.1264260847595295 1 rotate no_reflect no_shear #
lump $-1 $-1 $39 $3 #
transform $-1 1 0 0 0 1 0 0 0 1 52.693258461256747 25.664304038663555 9.1264260847595295 1 rotate no_reflect no_shear #
lump $-1 $-1 $40 $4 #
transform $-1 1 0 0 0 1 0 0 0 1 52.693258461256747 25.664304038663555 9.1264260847595295 1 rotate no_reflect no_shear #
lump $-1 $-1 $41 $5 #
transform $-1 1 0 0 0 1 0 0 0 1 52.693258461256747 25.664304038663555 9.1264260847595295 1 rotate no_reflect no_shear #
lump $-1 $-1 $42 $6 #
transform $-1 1 0 0 0 1 0 0 0 1 52.693258461256747 25.664304038663555 9.1264260847595295 1 rotate no_reflect no_shear #
lump $-1 $-1 $43 $7 #
transform $-1 1 0 0 0 1 0 0 0 1 52.693258461256747 25.664304038663555 9.1264260847595295 1 rotate no_reflect no_shear #
lump $-1 $-1 $44 $8 #
transform $-1 1 0 0 0 1 0 0 0 1 52.693258461256747 25.664304038663555 9.1264260847595295 1 rotate no_reflect no_shear #
lump $-1 $-1 $45 $9 #
transform $-1 1 0 0 0 1 0 0 0 1 52.693258461256747 25.664304038663555 9.1264260847595295 1 rotate no_reflect no_shear #
lump $-1 $-1 $46 $10 #
transform $-1 1 0 0 0 1 0 0 0 1 52.693258461256747 25.664304038663555 9.1264260847595295 1 rotate no_reflect no_shear #
lump $-1 $-1 $47 $11 #
transform $-1 1 0 0 0 1 0 0 0 1 52.693258461256747 25.664304038663555 9.1264260847595295 1 rotate no_reflect no_shear #
shell $-1 $-1 $-1 $48 $-1 $12 #
shell $-1 $-1 $-1 $49 $-1 $14 #
shell $-1 $-1 $-1 $50 $-1 $16 #
shell $-1 $-1 $-1 $51 $-1 $18 #
shell $-1 $-1 $-1 $52 $-1 $20 #
shell $-1 $-1 $-1 $53 $-1 $22 #
shell $-1 $-1 $-1 $54 $-1 $24 #
shell $-1 $-1 $-1 $55 $-1 $26 #
shell $-1 $-1 $-1 $56 $-1 $28 #
shell $-1 $-1 $-1 $57 $-1 $30 #
shell $-1 $-1 $-1 $58 $-1 $32 #
shell $-1 $-1 $-1 $59 $-1 $34 #
face $-1 $60 $61 $36 $-1 $62 forward single #
face $-1 $63 $64 $37 $-1 $65 forward single #
face $-1 $66 $67 $38 $-1 $68 reversed single #
face $-1 $69 $70 $39 $-1 $71 forward single #
face $-1 $72 $73 $40 $-1 $74 forward single #
face $-1 $75 $76 $41 $-1 $77 forward single #
face $-1 $78 $79 $42 $-1 $80 reversed single #
face $-1 $81 $82 $43 $-1 $83 forward single #
face $-1 $84 $85 $44 $-1 $86 forward single #
face $-1 $87 $88 $45 $-1 $89 reversed single #
face $-1 $90 $91 $46 $-1 $92 forward single #
face $-1 $93 $94 $47 $-1 $95 forward single #
face $-1 $96 $97 $36 $-1 $98 reversed single #
loop $-1 $-1 $99 $48 #
plane-surface $-1 0 0 9.1264260847595295 0 0 1 1 0 0 forward_v I I I I #
face $-1 $100 $101 $37 $-1 $102 reversed single #
loop $-1 $-1 $103 $49 #
plane-surface $-1 -52.693258461256747 0 0 1 0 0 0 0 -1 forward_v I I I I #
face $-1 $104 $105 $38 $-1 $106 reversed single #
loop $-1 $-1 $107 $50 #
plane-surface $-1 -22.166588205959783 37.981522149813543 122.48557323062774 1 0 0 0 -0.52991927123019833 -0.84804809178421925 forward_v I I I I #
face $-1 $108 $109 $39 $-1 $110 forward single #
loop $-1 $111 $112 $51 #
cone-surface $-1 -19.707335069730796 22.827842098742263 7.0955490310412479 0 -0.52991927123019833 -0.84804809178421925 0.25 0 0 1 I I 0 1 0.25 forward I I I I #
face $-1 $113 $114 $40 $-1 $115 forward single #
loop $-1 $116 $117 $52 #
cone-surface $-1 -16.018455365387311 22.827842098742263 7.0955490310412479 0 -0.52991927123019833 -0.84804809178421925 0.25 0 0 1 I I 0 1 0.25 forward I I I I #
face $-1 $118 $119 $41 $-1 $120 forward single #
loop $-1 $121 $122 $53 #
cone-surface $-1 -12.329575661043826 22.827842098742263 7.0955490310412479 0 -0.52991927123019833 -0.84804809178421925 0.25 0 0 1 I I 0 1 0.25 forward I I I I #
face $-1 $123 $124 $42 $-1 $125 reversed single #
loop $-1 $-1 $126 $54 #
plane-surface $-1 -19.207386094711424 -90.546723340268443 86.841934530159477 -1 0 0 0 -0.61566148304635926 0.78801074757464917 forward_v I I I I #
face $-1 $127 $128 $43 $-1 $129 forward single #
loop $-1 $130 $131 $55 #
cone-surface $-1 -35.03645221530487 -21.489149550647117 5.4834734447768696 0 0.61566148304635926 -0.78801074757464917 1 0 0 1 I I 0 1 1 forward I I I I #
face $-1 $132 $133 $44 $-1 $134 forward single #
loop $-1 $135 $136 $56 #
cone-surface $-1 -25.539012542948804 -21.489149550647117 5.4834734447768696 0 0.61566148304635926 -0.78801074757464917 1 0 0 1 I I 0 1 1 forward I I I I #
face $-1 $137 $138 $45 $-1 $139 reversed single #
loop $-1 $-1 $140 $57 #
plane-surface $-1 27.823282467688074 -90.546723340268443 86.841934530159477 -1 0 0 0 -0.61566148304635926 0.78801074757464917 forward_v I I I I #
face $-1 $141 $142 $46 $-1 $143 forward single #
loop $-1 $144 $145 $58 #
cone-surface $-1 11.994216347094621 -21.489149550647117 5.4834734447768696 0 0.61566148304635926 -0.78801074757464917 1 0 0 1 I I 0 1 1 forward I I I I #
face $-1 $146 $147 $47 $-1 $148 forward single #
loop $-1 $149 $150 $59 #
cone-surface $-1 21.491656019450701 -21.489149550647117 5.4834734447768696 0 0.61566148304635926 -0.78801074757464917 1 0 0 1 I I 0 1 1 forward I I I I #
face $-1 $151 $152 $36 $-1 $153 reversed single #
loop $-1 $-1 $154 $60 #
plane-surface $-1 0 0 -9.1264260847595295 0 0 1 1 0 0 forward_v I I I I #
coedge $-1 $155 $156 $157 $158 forward $61 $-1 #
face $-1 $159 $160 $37 $-1 $161 forward single #
loop $-1 $-1 $162 $63 #
plane-surface $-1 0 25.664304038663555 0 0 -1 0 0 0 -1 forward_v I I I I #
coedge $-1 $163 $164 $165 $166 forward $64 $-1 #
face $-1 $167 $168 $38 $-1 $169 reversed single #
loop $-1 $-1 $170 $66 #
plane-surface $-1 -16.018455365387311 -17.864824095253773 33.112738654704842 0 0.52991927123019833 0.84804809178421925 1 0 0 forward_v I I I I #
coedge $-1 $171 $172 $173 $174 reversed $67 $-1 #
face $-1 $-1 $175 $39 $-1 $176 forward single #
loop $-1 $177 $178 $69 #
cone-surface $-1 -19.707335069730796 22.496642554223389 6.5655189736761113 0 -0.52991927123019833 -0.84804809178421925 0.125 0 0 1 I I -0.70710678118654746 0.70710678118654746 0.125 forward I I I I #
loop $-1 $-1 $179 $51 #
coedge $-1 $112 $112 $180 $181 reversed $70 $-1 #
face $-1 $-1 $182 $40 $-1 $183 forward single #
loop $-1 $184 $185 $72 #
cone-surface $-1 -16.018455365387311 22.496642554223389 6.5655189736761113 0 -0.52991927123019833 -0.84804809178421925 0.125 0 0 1 I I -0.70710678118654746 0.70710678118654746 0.125 forward I I I I #
loop $-1 $-1 $186 $52 #
coedge $-1 $117 $117 $187 $188 reversed $73 $-1 #
face $-1 $-1 $189 $41 $-1 $190 forward single #
loop $-1 $191 $192 $75 #
cone-surface $-1 -12.329575661043826 22.496642554223389 6.5655189736761113 0 -0.52991927123019833 -0.84804809178421925 0.125 0 0 1 I I -0.70710678118654746 0.70710678118654746 0.125 forward I I I I #
loop $-1 $-1 $193 $53 #
coedge $-1 $122 $122 $194 $195 reversed $76 $-1 #
face $-1 $196 $197 $42 $-1 $198 reversed single #
loop $-1 $-1 $199 $78 #
plane-surface $-1 -30.287732379126837 -25.664304038663545 3.7962265457612006 0 -0.61566148304635926 0.78801074757464917 1 0 0 forward_v I I I I #
coedge $-1 $200 $201 $202 $203 reversed $79 $-1 #
face $-1 $-1 $204 $43 $-1 $205 forward single #
loop $-1 $206 $207 $81 #
cone-surface $-1 -35.03645221530487 -20.417336401147985 4.111615200506046 0 0.61566148304635926 -0.78801074757464917 0.5 0 0 1 I I -0.70710678118654746 0.70710678118654746 0.5 forward I I I I #
loop $-1 $-1 $208 $55 #
coedge $-1 $131 $131 $209 $210 reversed $82 $-1 #
face $-1 $-1 $211 $44 $-1 $212 forward single #
loop $-1 $213 $214 $84 #
cone-surface $-1 -25.539012542948804 -20.417336401147985 4.111615200506046 0 0.61566148304635926 -0.78801074757464917 0.5 0 0 1 I I -0.70710678118654746 0.70710678118654746 0.5 forward I I I I #
loop $-1 $-1 $215 $56 #
coedge $-1 $136 $136 $216 $217 reversed $85 $-1 #
face $-1 $218 $219 $45 $-1 $220 reversed single #
loop $-1 $-1 $221 $87 #
plane-surface $-1 16.742936183272661 -25.664304038663545 3.7962265457612006 0 -0.61566148304635926 0.78801074757464917 1 0 0 forward_v I I I I #
coedge $-1 $222 $223 $224 $225 reversed $88 $-1 #
face $-1 $-1 $226 $46 $-1 $227 forward single #
loop $-1 $228 $229 $90 #
cone-surface $-1 11.994216347094621 -20.417336401147985 4.111615200506046 0 0.61566148304635926 -0.78801074757464917 0.5 0 0 1 I I -0.70710678118654746 0.70710678118654746 0.5 forward I I I I #
loop $-1 $-1 $230 $58 #
coedge $-1 $145 $145 $231 $232 reversed $91 $-1 #
face $-1 $-1 $233 $47 $-1 $234 forward single #
loop $-1 $235 $236 $93 #
cone-surface $-1 21.491656019450701 -20.417336401147985 4.111615200506046 0 0.61566148304635926 -0.78801074757464917 0.5 0 0 1 I I -0.70710678118654746 0.70710678118654746 0.5 forward I I I I #
loop $-1 $-1 $237 $59 #
coedge $-1 $150 $150 $238 $239 reversed $94 $-1 #
face $-1 $240 $241 $36 $-1 $242 reversed single #
loop $-1 $-1 $243 $96 #
plane-surface $-1 0 -25.664304038663555 0 0 1 0 0 0 1 forward_v I I I I #
coedge $-1 $244 $245 $246 $247 forward $97 $-1 #
coedge $-1 $248 $99 $249 $250 forward $61 $-1 #
coedge $-1 $99 $248 $251 $252 forward $61 $-1 #
coedge $-1 $253 $254 $99 $158 reversed $255 $-1 #
edge $-1 $256 -25.664304038663555 $257 25.664304038663555 $157 $258 forward 7 unknown #
face $-1 $259 $260 $37 $-1 $261 reversed single #
loop $-1 $-1 $165 $100 #
plane-surface $-1 -58.355848360113995 0 8.6264260847595295 0 0 1 1 0 0 forward_v I I I I #
coedge $-1 $262 $263 $164 $264 forward $101 $-1 #
coedge $-1 $265 $103 $266 $267 reversed $64 $-1 #
coedge $-1 $103 $265 $162 $264 reversed $64 $-1 #
coedge $-1 $268 $269 $103 $166 reversed $160 $-1 #
edge $-1 $270 -25.664304038663555 $271 25.664304038663555 $165 $272 forward 7 unknown #
face $-1 $273 $274 $38 $-1 $275 forward single #
loop $-1 $-1 $276 $104 #
plane-surface $-1 -9.8703225248148367 37.981522149813543 122.48557323062774 -1 0 0 0 0.52991927123019833 0.84804809178421925 forward_v I I I I #
coedge $-1 $277 $278 $279 $280 reversed $105 $-1 #
coedge $-1 $172 $107 $281 $282 reversed $67 $-1 #
coedge $-1 $107 $171 $277 $283 reversed $67 $-1 #
coedge $-1 $279 $284 $107 $174 forward $274 $-1 #
edge $-1 $285 -6.673542963756784 $286 -1.5305383551443725 $173 $287 forward 7 unknown #
loop $-1 $-1 $180 $108 #
plane-surface $-1 -16.018455365387311 -17.864824095253773 33.112738654704842 0 0.52991927123019833 0.84804809178421925 1 0 0 forward_v I I I I #
loop $-1 $-1 $288 $69 #
coedge $-1 $178 $178 $179 $289 reversed $109 $-1 #
coedge $-1 $179 $179 $178 $289 forward $111 $-1 #
coedge $-1 $180 $180 $112 $181 forward $175 $-1 #
edge $-1 $290 -1.1270718810667952e-015 $290 6.2831853071795996 $180 $291 forward 7 unknown #
loop $-1 $-1 $187 $113 #
plane-surface $-1 -16.018455365387311 -17.864824095253773 33.112738654704842 0 0.52991927123019833 0.84804809178421925 1 0 0 forward_v I I I I #
loop $-1 $-1 $292 $72 #
coedge $-1 $185 $185 $186 $293 reversed $114 $-1 #
coedge $-1 $186 $186 $185 $293 forward $116 $-1 #
coedge $-1 $187 $187 $117 $188 forward $182 $-1 #
edge $-1 $294 -1.1270718810667952e-015 $294 6.2831853071795996 $187 $295 forward 7 unknown #
loop $-1 $-1 $194 $118 #
plane-surface $-1 -16.018455365387311 -17.864824095253773 33.112738654704842 0 0.52991927123019833 0.84804809178421925 1 0 0 forward_v I I I I #
loop $-1 $-1 $296 $75 #
coedge $-1 $192 $192 $193 $297 reversed $119 $-1 #
coedge $-1 $193 $193 $192 $297 forward $121 $-1 #
coedge $-1 $194 $194 $122 $195 forward $189 $-1 #
edge $-1 $298 -1.1270718810667952e-015 $298 6.2831853071795996 $194 $299 forward 7 unknown #
face $-1 $300 $301 $42 $-1 $302 reversed single #
loop $-1 $-1 $303 $123 #
plane-surface $-1 -41.368078663542249 -90.546723340268443 86.841934530159477 1 0 0 0 0.61566148304635926 -0.78801074757464917 forward_v I I I I #
coedge $-1 $304 $305 $306 $307 reversed $124 $-1 #
coedge $-1 $201 $126 $308 $309 reversed $79 $-1 #
coedge $-1 $126 $200 $304 $310 reversed $79 $-1 #
coedge $-1 $306 $311 $126 $203 forward $312 $-1 #
edge $-1 $313 19.609057631470666 $314 26.431401791551654 $202 $315 forward 7 unknown #
loop $-1 $-1 $209 $127 #
plane-surface $-1 -30.287732379126837 -25.664304038663545 3.7962265457612006 0 -0.61566148304635926 0.78801074757464917 1 0 0 forward_v I I I I #
loop $-1 $-1 $316 $81 #
coedge $-1 $207 $207 $208 $317 reversed $128 $-1 #
coedge $-1 $208 $208 $207 $317 forward $130 $-1 #
coedge $-1 $209 $209 $131 $210 forward $204 $-1 #
edge $-1 $318 -1.3098069307702156e-016 $318 6.2831853071796004 $209 $319 forward 7 unknown #
loop $-1 $-1 $216 $132 #
plane-surface $-1 -30.287732379126837 -25.664304038663545 3.7962265457612006 0 -0.61566148304635926 0.78801074757464917 1 0 0 forward_v I I I I #
loop $-1 $-1 $320 $84 #
coedge $-1 $214 $214 $215 $321 reversed $133 $-1 #
coedge $-1 $215 $215 $214 $321 forward $135 $-1 #
coedge $-1 $216 $216 $136 $217 forward $211 $-1 #
edge $-1 $322 -1.3098069307702156e-016 $322 6.2831853071796004 $216 $323 forward 7 unknown #
face $-1 $324 $325 $45 $-1 $326 reversed single #
loop $-1 $-1 $327 $137 #
plane-surface $-1 5.6625898988572487 -90.546723340268443 86.841934530159477 1 0 0 0 0.61566148304635926 -0.78801074757464917 forward_v I I I I #
coedge $-1 $328 $329 $330 $331 reversed $138 $-1 #
coedge $-1 $223 $140 $332 $333 reversed $88 $-1 #
coedge $-1 $140 $222 $328 $334 reversed $88 $-1 #
coedge $-1 $330 $335 $140 $225 forward $336 $-1 #
edge $-1 $337 19.609057631470666 $338 26.431401791551654 $224 $339 forward 7 unknown #
loop $-1 $-1 $231 $141 #
plane-surface $-1 16.742936183272661 -25.664304038663545 3.7962265457612006 0 -0.61566148304635926 0.78801074757464917 1 0 0 forward_v I I I I #
loop $-1 $-1 $340 $90 #
coedge $-1 $229 $229 $230 $341 reversed $142 $-1 #
coedge $-1 $230 $230 $229 $341 forward $144 $-1 #
coedge $-1 $231 $231 $145 $232 forward $226 $-1 #
edge $-1 $342 -1.3098069307702156e-016 $342 6.2831853071796004 $231 $343 forward 7 unknown #
loop $-1 $-1 $238 $146 #
plane-surface $-1 16.742936183272661 -25.664304038663545 3.7962265457612006 0 -0.61566148304635926 0.78801074757464917 1 0 0 forward_v I I I I #
loop $-1 $-1 $344 $93 #
coedge $-1 $236 $236 $237 $345 reversed $147 $-1 #
coedge $-1 $237 $237 $236 $345 forward $149 $-1 #
coedge $-1 $238 $238 $150 $239 forward $233 $-1 #
edge $-1 $346 -1.3098069307702156e-016 $346 6.2831853071796004 $238 $347 forward 7 unknown #
face $-1 $348 $349 $36 $-1 $350 reversed single #
loop $-1 $-1 $351 $151 #
plane-surface $-1 -52.693258461256747 0 0 1 0 0 0 0 -1 forward_v I I I I #
coedge $-1 $352 $251 $351 $353 forward $152 $-1 #
coedge $-1 $354 $154 $352 $355 forward $97 $-1 #
coedge $-1 $154 $354 $356 $357 forward $97 $-1 #
coedge $-1 $254 $253 $154 $247 reversed $255 $-1 #
edge $-1 $358 -25.664304038663555 $359 25.664304038663555 $246 $360 forward 7 unknown #
coedge $-1 $156 $155 $361 $362 forward $61 $-1 #
coedge $-1 $363 $364 $155 $250 reversed $349 $-1 #
edge $-1 $257 -52.693258461256747 $365 52.693258461256747 $249 $366 forward 7 unknown #
coedge $-1 $243 $367 $156 $252 reversed $152 $-1 #
edge $-1 $368 -52.693258461256747 $256 52.693258461256747 $251 $369 forward 7 unknown #
coedge $-1 $246 $157 $367 $370 forward $255 $-1 #
coedge $-1 $157 $246 $363 $371 reversed $255 $-1 #
loop $-1 $-1 $253 $348 #
vertex $-1 $158 $372 #
vertex $-1 $158 $373 #
straight-curve $-1 52.693258461256747 0 9.1264260847595295 0 1 0 I I #
face $-1 $374 $375 $37 $-1 $376 reversed single #
loop $-1 $-1 $377 $159 #
plane-surface $-1 -58.355848360113995 0 5.6264260847595295 0 0 1 1 0 0 forward_v I I I I #
coedge $-1 $378 $162 $379 $380 reversed $101 $-1 #
coedge $-1 $162 $378 $268 $381 reversed $101 $-1 #
edge $-1 $270 -8.6264260847595295 $382 -5.6264260847595295 $162 $383 forward 7 unknown #
coedge $-1 $164 $163 $377 $384 forward $64 $-1 #
coedge $-1 $385 $386 $163 $267 forward $387 $-1 #
edge $-1 $388 5.6264260847595295 $271 8.6264260847595295 $266 $389 forward 7 unknown #
coedge $-1 $390 $165 $263 $381 forward $160 $-1 #
coedge $-1 $165 $390 $385 $391 forward $160 $-1 #
vertex $-1 $264 $392 #
vertex $-1 $391 $393 #
straight-curve $-1 -52.693258461256747 0 8.6264260847595295 0 -1 0 I I #
face $-1 $-1 $394 $38 $-1 $395 reversed single #
loop $-1 $-1 $173 $167 #
plane-surface $-1 0 0 9.1264260847595295 0 0 1 1 0 0 forward_v I I I I #
coedge $-1 $396 $397 $398 $399 reversed $168 $-1 #
coedge $-1 $400 $170 $172 $283 forward $105 $-1 #
coedge $-1 $170 $400 $396 $401 forward $105 $-1 #
coedge $-1 $398 $173 $170 $280 forward $274 $-1 #
edge $-1 $286 -14.157360523266128 $402 -1.8610948421211813 $279 $403 forward 7 unknown #
coedge $-1 $404 $405 $171 $282 forward $394 $-1 #
edge $-1 $406 -55.33006654620668 $285 -52.116360530554338 $281 $407 forward 7 unknown #
edge $-1 $286 45.264088083193329 $406 51.328608077327118 $172 $408 forward 7 unknown #
coedge $-1 $173 $398 $404 $409 forward $274 $-1 #
vertex $-1 $282 $410 #
vertex $-1 $174 $411 #
straight-curve $-1 -22.166588205959783 18.990761074906771 9.1264260847595295 0 -1 0 I I #
coedge $-1 $288 $288 $-1 $412 reversed $177 $-1 #
edge $-1 $413 0 $413 6.2831853071796004 $178 $414 forward 7 unknown #
vertex $-1 $181 $415 #
ellipse-curve $-1 -19.707335069730796 23.092801734357359 7.5195730769333515 0 0.52991927123019833 0.84804809178421925 0.25 0 0 1 I I #
coedge $-1 $292 $292 $-1 $416 reversed $184 $-1 #
edge $-1 $417 0 $417 6.2831853071796004 $185 $418 forward 7 unknown #
vertex $-1 $188 $419 #
ellipse-curve $-1 -16.018455365387311 23.092801734357359 7.5195730769333515 0 0.52991927123019833 0.84804809178421925 0.25 0 0 1 I I #
coedge $-1 $296 $296 $-1 $420 reversed $191 $-1 #
edge $-1 $421 0 $421 6.2831853071796004 $192 $422 forward 7 unknown #
vertex $-1 $195 $423 #
ellipse-curve $-1 -12.329575661043826 23.092801734357359 7.5195730769333515 0 0.52991927123019833 0.84804809178421925 0.25 0 0 1 I I #
face $-1 $-1 $312 $42 $-1 $424 forward single #
loop $-1 $-1 $425 $196 #
plane-surface $-1 0 -25.664304038663555 0 0 1 0 0 0 1 forward_v I I I I #
coedge $-1 $426 $427 $428 $429 reversed $197 $-1 #
coedge $-1 $430 $199 $201 $310 forward $124 $-1 #
coedge $-1 $199 $430 $426 $431 forward $124 $-1 #
coedge $-1 $428 $202 $199 $307 forward $312 $-1 #
edge $-1 $314 4.0635199051480058 $432 26.224212473978831 $306 $433 forward 7 unknown #
coedge $-1 $434 $435 $200 $309 forward $301 $-1 #
edge $-1 $436 -39.624740719318545 $313 -34.294541180320209 $308 $437 forward 7 unknown #
edge $-1 $314 -8.6576790749096855 $436 1.3593493495133127e-014 $201 $438 forward 7 unknown #
coedge $-1 $202 $428 $434 $439 forward $312 $-1 #
loop $-1 $-1 $428 $300 #
vertex $-1 $309 $440 #
vertex $-1 $203 $441 #
straight-curve $-1 -19.207386094711424 -45.273361670134221 9.1264260847595295 0 1 0 I I #
coedge $-1 $316 $316 $-1 $442 reversed $206 $-1 #
edge $-1 $443 0 $443 6.2831853071796004 $207 $444 forward 7 unknown #
vertex $-1 $210 $445 #
ellipse-curve $-1 -35.03645221530487 -22.253131958623062 6.4613263152603597 0 -0.61566148304635926 0.78801074757464917 1 0 0 1 I I #
coedge $-1 $320 $320 $-1 $446 reversed $213 $-1 #
edge $-1 $447 0 $447 6.2831853071796004 $214 $448 forward 7 unknown #
vertex $-1 $217 $449 #
ellipse-curve $-1 -25.539012542948804 -22.253131958623062 6.4613263152603597 0 -0.61566148304635926 0.78801074757464917 1 0 0 1 I I #
face $-1 $-1 $336 $45 $-1 $450 forward single #
loop $-1 $-1 $451 $218 #
plane-surface $-1 0 -25.664304038663555 0 0 1 0 0 0 1 forward_v I I I I #
coedge $-1 $452 $453 $454 $455 reversed $219 $-1 #
coedge $-1 $456 $221 $223 $334 forward $138 $-1 #
coedge $-1 $221 $456 $452 $457 forward $138 $-1 #
coedge $-1 $454 $224 $221 $331 forward $336 $-1 #
edge $-1 $338 -19.451814376051743 $458 2.7088781927790819 $330 $459 forward 7 unknown #
coedge $-1 $460 $461 $222 $333 forward $325 $-1 #
edge $-1 $462 -39.624740719318545 $337 -34.294541180320209 $332 $463 forward 7 unknown #
edge $-1 $338 -8.6576790749096855 $462 1.3593493495133127e-014 $223 $464 forward 7 unknown #
coedge $-1 $224 $454 $460 $465 forward $336 $-1 #
loop $-1 $-1 $454 $324 #
vertex $-1 $333 $466 #
vertex $-1 $225 $467 #
straight-curve $-1 27.823282467688074 -45.273361670134221 9.1264260847595295 0 1 0 I I #
coedge $-1 $340 $340 $-1 $468 reversed $228 $-1 #
edge $-1 $469 0 $469 6.2831853071796004 $229 $470 forward 7 unknown #
vertex $-1 $232 $471 #
ellipse-curve $-1 11.994216347094621 -22.253131958623062 6.4613263152603597 0 -0.61566148304635926 0.78801074757464917 1 0 0 1 I I #
coedge $-1 $344 $344 $-1 $472 reversed $235 $-1 #
edge $-1 $473 0 $473 6.2831853071796004 $236 $474 forward 7 unknown #
vertex $-1 $239 $475 #
ellipse-curve $-1 21.491656019450701 -22.253131958623062 6.4613263152603597 0 -0.61566148304635926 0.78801074757464917 1 0 0 1 I I #
face $-1 $-1 $255 $36 $-1 $476 reversed single #
loop $-1 $-1 $363 $240 #
plane-surface $-1 0 25.664304038663555 0 0 -1 0 0 0 -1 forward_v I I I I #
coedge $-1 $361 $477 $243 $353 reversed $241 $-1 #
coedge $-1 $367 $243 $244 $355 reversed $152 $-1 #
edge $-1 $368 -9.1264260847595295 $478 9.1264260847595295 $351 $479 forward 7 unknown #
coedge $-1 $245 $244 $477 $480 forward $97 $-1 #
edge $-1 $359 -52.693258461256747 $478 52.693258461256747 $352 $481 forward 7 unknown #
coedge $-1 $364 $363 $245 $357 reversed $349 $-1 #
edge $-1 $482 -52.693258461256747 $358 52.693258461256747 $356 $483 forward 7 unknown #
vertex $-1 $247 $484 #
vertex $-1 $370 $485 #
straight-curve $-1 52.693258461256747 0 -9.1264260847595295 0 -1 0 I I #
coedge $-1 $486 $351 $248 $362 reversed $241 $-1 #
edge $-1 $365 -25.664304038663555 $368 25.664304038663555 $361 $487 forward 7 unknown #
coedge $-1 $356 $249 $254 $371 forward $349 $-1 #
coedge $-1 $249 $356 $486 $488 reversed $349 $-1 #
vertex $-1 $250 $489 #
straight-curve $-1 0 25.664304038663555 9.1264260847595295 -1 0 0 I I #
coedge $-1 $251 $352 $253 $370 reversed $152 $-1 #
vertex $-1 $362 $490 #
straight-curve $-1 0 -25.664304038663555 9.1264260847595295 1 0 0 I I #
edge $-1 $256 -9.1264260847595295 $359 9.1264260847595295 $253 $491 forward 7 unknown #
edge $-1 $257 -9.1264260847595295 $358 9.1264260847595295 $254 $492 forward 7 unknown #
point $-1 52.693258461256747 -25.664304038663555 9.1264260847595295 #
point $-1 52.693258461256747 25.664304038663555 9.1264260847595295 #
face $-1 $-1 $387 $37 $-1 $493 reversed single #
loop $-1 $-1 $494 $259 #
plane-surface $-1 -64.018438258971244 0 7.1264260847595295 1 0 0 0 0 -1 forward_v I I I I #
coedge $-1 $495 $379 $265 $384 reversed $260 $-1 #
coedge $-1 $263 $262 $494 $496 reversed $101 $-1 #
coedge $-1 $377 $497 $262 $380 forward $260 $-1 #
edge $-1 $498 -5.6625898988572487 $382 5.6625898988572487 $262 $499 forward 7 unknown #
edge $-1 $270 -5.6625898988572487 $500 5.6625898988572487 $263 $501 forward 7 unknown #
vertex $-1 $264 $502 #
straight-curve $-1 -52.693258461256747 25.664304038663555 0 0 0 -1 I I #
edge $-1 $388 -25.664304038663555 $382 25.664304038663555 $377 $503 forward 7 unknown #
coedge $-1 $504 $266 $269 $391 reversed $387 $-1 #
coedge $-1 $266 $504 $495 $505 reversed $387 $-1 #
loop $-1 $-1 $266 $374 #
vertex $-1 $267 $506 #
straight-curve $-1 -52.693258461256747 -25.664304038663555 0 0 0 1 I I #
coedge $-1 $269 $268 $507 $508 forward $160 $-1 #
edge $-1 $509 -5.6625898988572487 $271 5.6625898988572487 $385 $510 forward 7 unknown #
point $-1 -52.693258461256747 25.664304038663555 8.6264260847595295 #
point $-1 -52.693258461256747 -25.664304038663555 8.6264260847595295 #
loop $-1 $-1 $281 $273 #
plane-surface $-1 0 25.664304038663555 0 0 -1 0 0 0 -1 forward_v I I I I #
coedge $-1 $397 $276 $278 $401 reversed $168 $-1 #
coedge $-1 $276 $396 $511 $512 reversed $168 $-1 #
coedge $-1 $284 $279 $276 $399 forward $274 $-1 #
edge $-1 $402 1.5305383551443725 $513 6.673542963756784 $398 $514 forward 7 unknown #
coedge $-1 $278 $277 $405 $515 reversed $105 $-1 #
edge $-1 $516 -51.328608077327118 $402 -45.264088083193329 $396 $517 forward 7 unknown #
vertex $-1 $280 $518 #
straight-curve $-1 -8.0092276826936555 20.521299430051148 9.1264260847595295 1 0 0 I I #
coedge $-1 $511 $281 $284 $409 reversed $394 $-1 #
coedge $-1 $281 $511 $400 $515 forward $394 $-1 #
vertex $-1 $282 $519 #
straight-curve $-1 -22.166588205959783 25.664304038663555 61.242786615313868 0 0 1 I I #
straight-curve $-1 -22.166588205959783 -17.864824095253773 33.112738654704842 0 0.84804809178421925 -0.52991927123019833 I I #
edge $-1 $513 9.8703225248148367 $285 22.166588205959783 $404 $520 forward 7 unknown #
point $-1 -22.166588205959783 25.664304038663555 9.1264260847595295 #
point $-1 -22.166588205959783 20.521299430051144 9.1264260847595295 #
edge $-1 $521 1 $521 0 $288 $-1 forward 7 unknown #
vertex $-1 $289 $522 #
ellipse-curve $-1 -19.707335069730796 22.562882463127163 6.6715249851491389 0 0.52991927123019833 0.84804809178421925 0.25 0 0 1 I I #
point $-1 -19.457335069730796 23.092801734357362 7.5195730769333577 #
edge $-1 $523 1 $523 0 $292 $-1 forward 7 unknown #
vertex $-1 $293 $524 #
ellipse-curve $-1 -16.018455365387311 22.562882463127163 6.6715249851491389 0 0.52991927123019833 0.84804809178421925 0.25 0 0 1 I I #
point $-1 -15.768455365387311 23.092801734357362 7.5195730769333577 #
edge $-1 $525 1 $525 0 $296 $-1 forward 7 unknown #
vertex $-1 $297 $526 #
ellipse-curve $-1 -12.329575661043826 22.562882463127163 6.6715249851491389 0 0.52991927123019833 0.84804809178421925 0.25 0 0 1 I I #
point $-1 -12.079575661043826 23.092801734357362 7.5195730769333577 #
plane-surface $-1 0 0 9.1264260847595295 0 0 1 1 0 0 forward_v I I I I #
coedge $-1 $435 $434 $427 $527 forward $301 $-1 #
coedge $-1 $427 $303 $305 $431 reversed $197 $-1 #
coedge $-1 $303 $426 $425 $527 reversed $197 $-1 #
coedge $-1 $311 $306 $303 $429 forward $312 $-1 #
edge $-1 $432 -26.431401791551654 $528 -19.609057631470666 $428 $529 forward 7 unknown #
coedge $-1 $305 $304 $435 $530 reversed $124 $-1 #
edge $-1 $531 -1.3593493495133127e-014 $432 8.6576790749096855 $426 $532 forward 7 unknown #
vertex $-1 $307 $533 #
straight-curve $-1 -15.143866189563418 -18.841959878582564 9.1264260847595295 -1 0 0 I I #
coedge $-1 $425 $308 $311 $439 reversed $301 $-1 #
coedge $-1 $308 $425 $430 $530 forward $301 $-1 #
vertex $-1 $309 $534 #
straight-curve $-1 -19.207386094711424 -25.664304038663552 43.420967265079739 0 0 1 I I #
straight-curve $-1 -19.207386094711424 -25.664304038663545 3.7962265457612006 0 -0.78801074757464917 -0.61566148304635926 I I #
edge $-1 $528 -41.368078663542249 $313 -19.207386094711424 $434 $535 forward 7 unknown #
point $-1 -19.207386094711424 -25.664304038663555 9.1264260847595295 #
point $-1 -19.207386094711424 -18.841959878582568 9.1264260847595295 #
edge $-1 $536 1 $536 0 $316 $-1 forward 7 unknown #
vertex $-1 $317 $537 #
ellipse-curve $-1 -35.03645221530487 -20.725167142671165 4.5056205742933706 0 -0.61566148304635926 0.78801074757464917 1 0 0 1 I I #
point $-1 -34.03645221530487 -22.253131958623069 6.4613263152603686 #
edge $-1 $538 1 $538 0 $320 $-1 forward 7 unknown #
vertex $-1 $321 $539 #
ellipse-curve $-1 -25.539012542948804 -20.725167142671165 4.5056205742933706 0 -0.61566148304635926 0.78801074757464917 1 0 0 1 I I #
point $-1 -24.539012542948804 -22.253131958623069 6.4613263152603686 #
plane-surface $-1 0 0 9.1264260847595295 0 0 1 1 0 0 forward_v I I I I #
coedge $-1 $461 $460 $453 $540 forward $325 $-1 #
coedge $-1 $453 $327 $329 $457 reversed $219 $-1 #
coedge $-1 $327 $452 $451 $540 reversed $219 $-1 #
coedge $-1 $335 $330 $327 $455 forward $336 $-1 #
edge $-1 $458 -26.431401791551654 $541 -19.609057631470666 $454 $542 forward 7 unknown #
coedge $-1 $329 $328 $461 $543 reversed $138 $-1 #
edge $-1 $544 -1.3593493495133127e-014 $458 8.6576790749096855 $452 $545 forward 7 unknown #
vertex $-1 $331 $546 #
straight-curve $-1 8.3714680916363307 -18.841959878582564 9.1264260847595295 -1 0 0 I I #
coedge $-1 $451 $332 $335 $465 reversed $325 $-1 #
coedge $-1 $332 $451 $456 $543 forward $325 $-1 #
vertex $-1 $333 $547 #
straight-curve $-1 27.823282467688074 -25.664304038663552 43.420967265079739 0 0 1 I I #
straight-curve $-1 27.823282467688074 -25.664304038663545 3.7962265457612006 0 -0.78801074757464917 -0.61566148304635926 I I #
edge $-1 $541 5.6625898988572487 $337 27.823282467688074 $460 $548 forward 7 unknown #
point $-1 27.823282467688074 -25.664304038663555 9.1264260847595295 #
point $-1 27.823282467688074 -18.841959878582568 9.1264260847595295 #
edge $-1 $549 1 $549 0 $340 $-1 forward 7 unknown #
vertex $-1 $341 $550 #
ellipse-curve $-1 11.994216347094621 -20.725167142671165 4.5056205742933706 0 -0.61566148304635926 0.78801074757464917 1 0 0 1 I I #
point $-1 12.994216347094621 -22.253131958623069 6.4613263152603686 #
edge $-1 $551 1 $551 0 $344 $-1 forward 7 unknown #
vertex $-1 $345 $552 #
ellipse-curve $-1 21.491656019450701 -20.725167142671165 4.5056205742933706 0 -0.61566148304635926 0.78801074757464917 1 0 0 1 I I #
point $-1 22.491656019450701 -22.253131958623069 6.4613263152603686 #
plane-surface $-1 52.693258461256747 0 0 -1 0 0 0 0 1 forward_v I I I I #
coedge $-1 $351 $486 $354 $480 reversed $241 $-1 #
vertex $-1 $480 $553 #
straight-curve $-1 -52.693258461256747 -25.664304038663555 0 0 0 -1 I I #
edge $-1 $478 -25.664304038663555 $482 25.664304038663555 $477 $554 forward 7 unknown #
straight-curve $-1 0 -25.664304038663555 -9.1264260847595295 -1 0 0 I I #
vertex $-1 $357 $555 #
straight-curve $-1 0 25.664304038663555 -9.1264260847595295 1 0 0 I I #
point $-1 52.693258461256747 25.664304038663555 -9.1264260847595295 #
point $-1 52.693258461256747 -25.664304038663555 -9.1264260847595295 #
coedge $-1 $477 $361 $364 $488 forward $241 $-1 #
straight-curve $-1 -52.693258461256747 0 9.1264260847595295 0 -1 0 I I #
edge $-1 $365 -9.1264260847595295 $482 9.1264260847595295 $364 $556 forward 7 unknown #
point $-1 -52.693258461256747 25.664304038663555 9.1264260847595295 #
point $-1 -52.693258461256747 -25.664304038663555 9.1264260847595295 #
straight-curve $-1 52.693258461256747 -25.664304038663555 0 0 0 -1 I I #
straight-curve $-1 52.693258461256747 25.664304038663555 0 0 0 -1 I I #
plane-surface $-1 0 -25.664304038663555 0 0 1 0 0 0 1 forward_v I I I I #
coedge $-1 $557 $507 $378 $496 forward $375 $-1 #
coedge $-1 $497 $377 $386 $505 forward $260 $-1 #
edge $-1 $500 -1.5 $498 1.5 $378 $558 forward 7 unknown #
coedge $-1 $379 $495 $557 $559 forward $260 $-1 #
vertex $-1 $380 $560 #
straight-curve $-1 -58.355848360113995 25.664304038663555 5.6264260847595295 1 0 0 I I #
vertex $-1 $381 $561 #
straight-curve $-1 -58.355848360113995 25.664304038663555 8.6264260847595295 -1 0 0 I I #
point $-1 -52.693258461256747 25.664304038663555 5.6264260847595295 #
straight-curve $-1 -52.693258461256747 0 5.6264260847595295 0 1 0 I I #
coedge $-1 $386 $385 $562 $563 forward $387 $-1 #
edge $-1 $388 -5.6625898988572487 $564 5.6625898988572487 $386 $565 forward 7 unknown #
point $-1 -52.693258461256747 -25.664304038663555 5.6264260847595295 #
coedge $-1 $494 $562 $390 $508 reversed $375 $-1 #
edge $-1 $500 -25.664304038663555 $509 25.664304038663555 $507 $566 forward 7 unknown #
vertex $-1 $508 $567 #
straight-curve $-1 -58.355848360113995 -25.664304038663555 8.6264260847595295 1 0 0 I I #
coedge $-1 $405 $404 $397 $512 forward $394 $-1 #
edge $-1 $513 52.116360530554338 $516 55.33006654620668 $511 $568 forward 7 unknown #
vertex $-1 $409 $569 #
straight-curve $-1 -9.8703225248148367 18.990761074906771 9.1264260847595295 0 1 0 I I #
edge $-1 $516 1.8610948421211813 $406 14.157360523266128 $405 $570 forward 7 unknown #
vertex $-1 $515 $571 #
straight-curve $-1 -9.8703225248148367 -17.864824095253773 33.112738654704842 0 -0.84804809178421925 0.52991927123019833 I I #
point $-1 -9.8703225248148367 20.521299430051144 9.1264260847595295 #
point $-1 -22.166588205959783 25.664304038663552 5.9127200691071842 #
straight-curve $-1 0 25.664304038663555 9.1264260847595295 -1 0 0 I I #
vertex $-1 $412 $572 #
point $-1 -19.457335069730796 22.562882463127163 6.6715249851491389 #
vertex $-1 $416 $573 #
point $-1 -15.768455365387311 22.562882463127163 6.6715249851491389 #
vertex $-1 $420 $574 #
point $-1 -12.079575661043826 22.562882463127163 6.6715249851491389 #
edge $-1 $528 34.294541180320209 $531 39.624740719318545 $425 $575 forward 7 unknown #
vertex $-1 $439 $576 #
straight-curve $-1 -41.368078663542249 -45.273361670134221 9.1264260847595295 0 -1 0 I I #
edge $-1 $531 -26.224212473978831 $436 -4.0635199051480058 $435 $577 forward 7 unknown #
vertex $-1 $530 $578 #
straight-curve $-1 -41.368078663542249 -25.664304038663545 3.7962265457612006 0 0.78801074757464917 0.61566148304635926 I I #
point $-1 -41.368078663542249 -18.841959878582568 9.1264260847595295 #
point $-1 -19.207386094711424 -25.664304038663555 3.7962265457611921 #
straight-curve $-1 0 -25.664304038663555 9.1264260847595295 1 0 0 I I #
vertex $-1 $442 $579 #
point $-1 -34.03645221530487 -20.725167142671165 4.5056205742933706 #
vertex $-1 $446 $580 #
point $-1 -24.539012542948804 -20.725167142671165 4.5056205742933706 #
edge $-1 $541 34.294541180320209 $544 39.624740719318545 $451 $581 forward 7 unknown #
vertex $-1 $465 $582 #
straight-curve $-1 5.6625898988572487 -45.273361670134221 9.1264260847595295 0 -1 0 I I #
edge $-1 $544 -2.7088781927790819 $462 19.451814376051743 $461 $583 forward 7 unknown #
vertex $-1 $543 $584 #
straight-curve $-1 5.6625898988572487 -25.664304038663545 3.7962265457612006 0 0.78801074757464917 0.61566148304635926 I I #
point $-1 5.6625898988572487 -18.841959878582568 9.1264260847595295 #
point $-1 27.823282467688074 -25.664304038663555 3.7962265457611921 #
straight-curve $-1 0 -25.664304038663555 9.1264260847595295 1 0 0 I I #
vertex $-1 $468 $585 #
point $-1 12.994216347094621 -20.725167142671165 4.5056205742933706 #
vertex $-1 $472 $586 #
point $-1 22.491656019450701 -20.725167142671165 4.5056205742933706 #
point $-1 -52.693258461256747 -25.664304038663555 -9.1264260847595295 #
straight-curve $-1 -52.693258461256747 0 -9.1264260847595295 0 1 0 I I #
point $-1 -52.693258461256747 25.664304038663555 -9.1264260847595295 #
straight-curve $-1 -52.693258461256747 25.664304038663555 0 0 0 -1 I I #
coedge $-1 $562 $494 $497 $559 reversed $375 $-1 #
straight-curve $-1 -64.018438258971244 25.664304038663555 7.1264260847595295 0 0 -1 I I #
edge $-1 $564 -25.664304038663555 $498 25.664304038663555 $557 $587 forward 7 unknown #
point $-1 -64.018438258971244 25.664304038663555 5.6264260847595295 #
point $-1 -64.018438258971244 25.664304038663555 8.6264260847595295 #
coedge $-1 $507 $557 $504 $563 reversed $375 $-1 #
edge $-1 $509 -1.5 $564 1.5 $562 $588 forward 7 unknown #
vertex $-1 $559 $589 #
straight-curve $-1 -58.355848360113995 -25.664304038663555 5.6264260847595295 -1 0 0 I I #
straight-curve $-1 -64.018438258971244 0 8.6264260847595295 0 -1 0 I I #
point $-1 -64.018438258971244 -25.664304038663555 8.6264260847595295 #
straight-curve $-1 -9.8703225248148367 25.664304038663555 61.242786615313868 0 0 -1 I I #
point $-1 -9.8703225248148367 25.664304038663555 9.1264260847595295 #
straight-curve $-1 -8.0092276826936555 25.664304038663555 5.9127200691071824 -1 0 0 I I #
point $-1 -9.8703225248148367 25.664304038663552 5.9127200691071842 #
point $-1 -19.707335069730796 22.430402645319614 6.4595129622030836 #
point $-1 -16.018455365387311 22.430402645319614 6.4595129622030836 #
point $-1 -12.329575661043826 22.430402645319614 6.4595129622030836 #
straight-curve $-1 -41.368078663542249 -25.664304038663552 43.420967265079739 0 0 -1 I I #
point $-1 -41.368078663542249 -25.664304038663555 9.1264260847595295 #
straight-curve $-1 -15.143866189563418 -25.664304038663555 3.7962265457611934 1 0 0 I I #
point $-1 -41.368078663542249 -25.664304038663555 3.7962265457611921 #
point $-1 -35.03645221530487 -20.109505659624805 3.7176098267187214 #
point $-1 -25.539012542948804 -20.109505659624805 3.7176098267187214 #
straight-curve $-1 5.6625898988572487 -25.664304038663552 43.420967265079739 0 0 -1 I I #
point $-1 5.6625898988572487 -25.664304038663555 9.1264260847595295 #
straight-curve $-1 8.3714680916363307 -25.664304038663555 3.7962265457611934 1 0 0 I I #
point $-1 5.6625898988572487 -25.664304038663555 3.7962265457611921 #
point $-1 11.994216347094621 -20.109505659624805 3.7176098267187214 #
point $-1 21.491656019450701 -20.109505659624805 3.7176098267187214 #
straight-curve $-1 -64.018438258971244 0 5.6264260847595295 0 1 0 I I #
straight-curve $-1 -64.018438258971244 -25.664304038663555 7.1264260847595295 0 0 -1 I I #
point $-1 -64.018438258971244 -25.664304038663555 5.6264260847595295 #
End-of-ACIS-data 