500 0 7 0           
7 Unknown 11 ACIS 5.0 NT 24 Thu Mar 25 15:08:25 1999 
-1 9.9999999999999995e-007 1e-010 
body $-1 $7 $-1 $8 #
body $-1 $9 $-1 $10 #
body $-1 $11 $-1 $12 #
body $-1 $13 $-1 $14 #
body $-1 $15 $-1 $16 #
body $-1 $17 $-1 $18 #
body $-1 $19 $-1 $20 #
lump $-1 $-1 $21 $0 #
transform $-1 1 0 0 0 1 0 0 0 1 50.017395550401318 30.304127533918187 7.0921110261498344 1 rotate no_reflect no_shear #
lump $-1 $-1 $22 $1 #
transform $-1 1 0 0 0 1 0 0 0 1 50.017395550401318 30.304127533918187 7.0921110261498344 1 rotate no_reflect no_shear #
lump $-1 $-1 $23 $2 #
transform $-1 1 0 0 0 1 0 0 0 1 50.017395550401318 30.304127533918187 7.0921110261498344 1 rotate no_reflect no_shear #
lump $-1 $-1 $24 $3 #
transform $-1 1 0 0 0 1 0 0 0 1 50.017395550401318 30.304127533918187 7.0921110261498344 1 rotate no_reflect no_shear #
lump $-1 $-1 $25 $4 #
transform $-1 1 0 0 0 1 0 0 0 1 50.017395550401318 30.304127533918187 7.0921110261498344 1 rotate no_reflect no_shear #
lump $-1 $-1 $26 $5 #
transform $-1 1 0 0 0 1 0 0 0 1 50.017395550401318 30.304127533918187 7.0921110261498344 1 rotate no_reflect no_shear #
lump $-1 $-1 $27 $6 #
transform $-1 1 0 0 0 1 0 0 0 1 50.017395550401318 30.304127533918187 7.0921110261498344 1 rotate no_reflect no_shear #
shell $-1 $-1 $-1 $28 $-1 $7 #
shell $-1 $-1 $-1 $29 $-1 $9 #
shell $-1 $-1 $-1 $30 $-1 $11 #
shell $-1 $-1 $-1 $31 $-1 $13 #
shell $-1 $-1 $-1 $32 $-1 $15 #
shell $-1 $-1 $-1 $33 $-1 $17 #
shell $-1 $-1 $-1 $34 $-1 $19 #
face $-1 $35 $36 $21 $-1 $37 forward single #
face $-1 $38 $39 $22 $-1 $40 reversed single #
face $-1 $41 $42 $23 $-1 $43 reversed single #
face $-1 $44 $45 $24 $-1 $46 reversed single #
face $-1 $47 $48 $25 $-1 $49 forward single #
face $-1 $50 $51 $26 $-1 $52 forward single #
face $-1 $53 $54 $27 $-1 $55 forward single #
face $-1 $56 $57 $21 $-1 $58 reversed single #
loop $-1 $-1 $59 $28 #
plane-surface $-1 0 0 7.0921110261498344 0 0 1 1 0 0 forward_v I I I I #
face $-1 $60 $61 $22 $-1 $62 reversed single #
loop $-1 $-1 $63 $29 #
plane-surface $-1 -38.891609853767804 -26.666573897267888 0 1 0 0 0 0 -1 forward_v I I I I #
face $-1 $64 $65 $23 $-1 $66 reversed single #
loop $-1 $-1 $67 $30 #
plane-surface $-1 -37.362391675934724 23.029020260617585 0 0 1 0 0 0 1 forward_v I I I I #
face $-1 $68 $69 $24 $-1 $70 reversed single #
loop $-1 $-1 $71 $31 #
plane-surface $-1 79.430780557839654 19.167574462407547 141.09009311072626 0 -1 0 -0.83867057594974714 0 -0.54463902268945019 forward_v I I I I #
face $-1 $72 $73 $25 $-1 $74 forward single #
loop $-1 $75 $76 $32 #
cone-surface $-1 48.10173427670891 12.569476621893205 4.5813358251635208 -0.83867057594974714 0 -0.54463902268945019 0.2723195113447251 0 -0.41933528797487357 1 I I 0 1 0.5 forward I I I I #
face $-1 $77 $78 $26 $-1 $79 forward single #
loop $-1 $80 $81 $33 #
cone-surface $-1 48.10173427670891 15.043763312086082 4.5813358251635208 -0.83867057594974714 0 -0.54463902268945019 0.2723195113447251 0 -0.41933528797487357 1 I I 0 1 0.5 forward I I I I #
face $-1 $82 $83 $27 $-1 $84 forward single #
loop $-1 $85 $86 $34 #
cone-surface $-1 48.10173427670891 17.518050002278958 4.5813358251635208 -0.83867057594974714 0 -0.54463902268945019 0.2723195113447251 0 -0.41933528797487357 1 I I 0 1 0.5 forward I I I I #
face $-1 $87 $88 $21 $-1 $89 reversed single #
loop $-1 $-1 $90 $35 #
plane-surface $-1 0 0 -7.0921110261498344 0 0 1 1 0 0 forward_v I I I I #
coedge $-1 $91 $92 $93 $94 forward $36 $-1 #
face $-1 $95 $96 $22 $-1 $97 reversed single #
loop $-1 $-1 $98 $38 #
plane-surface $-1 -37.362391675934724 -23.029020260617585 0 0 -1 0 0 0 -1 forward_v I I I I #
coedge $-1 $99 $100 $101 $102 forward $39 $-1 #
face $-1 $103 $104 $23 $-1 $105 reversed single #
loop $-1 $-1 $106 $41 #
plane-surface $-1 -38.891609853767804 26.666573897267885 0 1 0 0 0 0 -1 forward_v I I I I #
coedge $-1 $107 $108 $109 $110 forward $42 $-1 #
face $-1 $111 $112 $24 $-1 $113 reversed single #
loop $-1 $-1 $114 $44 #
plane-surface $-1 -4.4654553096831364 15.043763312086082 86.607242250641804 0.83867057594974714 0 0.54463902268945019 0.54463902268945019 0 -0.83867057594974714 forward_v I I I I #
coedge $-1 $115 $116 $117 $118 reversed $45 $-1 #
face $-1 $-1 $119 $25 $-1 $120 forward single #
loop $-1 $121 $122 $47 #
cone-surface $-1 47.398966624146993 12.569476621893205 4.1249531900202383 -0.83867057594974714 0 -0.54463902268945019 0.13615975567236255 0 -0.20966764398743679 1 I I -0.70710678118654746 0.70710678118654746 0.25 forward I I I I #
loop $-1 $-1 $123 $32 #
coedge $-1 $76 $76 $124 $125 reversed $48 $-1 #
face $-1 $-1 $126 $26 $-1 $127 forward single #
loop $-1 $128 $129 $50 #
cone-surface $-1 47.398966624146993 15.043763312086082 4.1249531900202383 -0.83867057594974714 0 -0.54463902268945019 0.13615975567236255 0 -0.20966764398743679 1 I I -0.70710678118654746 0.70710678118654746 0.25 forward I I I I #
loop $-1 $-1 $130 $33 #
coedge $-1 $81 $81 $131 $132 reversed $51 $-1 #
face $-1 $-1 $133 $27 $-1 $134 forward single #
loop $-1 $135 $136 $53 #
cone-surface $-1 47.398966624146993 17.518050002278958 4.1249531900202383 -0.83867057594974714 0 -0.54463902268945019 0.13615975567236255 0 -0.20966764398743679 1 I I -0.70710678118654746 0.70710678118654746 0.25 forward I I I I #
loop $-1 $-1 $137 $34 #
coedge $-1 $86 $86 $138 $139 reversed $54 $-1 #
face $-1 $140 $141 $21 $-1 $142 reversed single #
loop $-1 $-1 $143 $56 #
plane-surface $-1 0 -30.304127533918187 0 0 1 0 0 0 1 forward_v I I I I #
coedge $-1 $144 $145 $146 $147 forward $57 $-1 #
coedge $-1 $148 $59 $149 $150 forward $36 $-1 #
coedge $-1 $59 $148 $151 $152 forward $36 $-1 #
coedge $-1 $153 $154 $59 $94 reversed $155 $-1 #
edge $-1 $156 -30.304127533918187 $157 30.304127533918187 $93 $158 forward 7 unknown #
face $-1 $159 $160 $22 $-1 $161 forward single #
loop $-1 $-1 $162 $60 #
plane-surface $-1 -35.833173498101644 -26.666573897267888 0 -1 0 0 0 0 1 forward_v I I I I #
coedge $-1 $163 $164 $165 $166 forward $61 $-1 #
coedge $-1 $167 $63 $168 $169 reversed $39 $-1 #
coedge $-1 $63 $167 $170 $171 reversed $39 $-1 #
coedge $-1 $164 $163 $63 $102 reversed $61 $-1 #
edge $-1 $172 -7.0921110261498344 $173 7.0921110261498344 $101 $174 forward 7 unknown #
face $-1 $175 $176 $23 $-1 $177 reversed single #
loop $-1 $-1 $178 $64 #
plane-surface $-1 -35.833173498101644 26.666573897267885 0 -1 0 0 0 0 1 forward_v I I I I #
coedge $-1 $179 $180 $181 $182 reversed $65 $-1 #
coedge $-1 $183 $67 $184 $185 reversed $42 $-1 #
coedge $-1 $67 $183 $186 $187 reversed $42 $-1 #
coedge $-1 $180 $179 $67 $110 reversed $65 $-1 #
edge $-1 $188 -7.0921110261498344 $189 7.0921110261498344 $109 $190 forward 7 unknown #
face $-1 $191 $192 $24 $-1 $193 forward single #
loop $-1 $-1 $194 $68 #
plane-surface $-1 79.430780557839654 10.919952161764616 141.09009311072626 0 1 0 0.83867057594974714 0 0.54463902268945019 forward_v I I I I #
coedge $-1 $195 $196 $197 $198 reversed $69 $-1 #
coedge $-1 $116 $71 $199 $200 reversed $45 $-1 #
coedge $-1 $71 $115 $195 $201 reversed $45 $-1 #
coedge $-1 $197 $202 $71 $118 forward $192 $-1 #
edge $-1 $203 -10.302005271481491 $204 -7.4568827412456216 $117 $205 forward 7 unknown #
loop $-1 $-1 $124 $72 #
plane-surface $-1 -4.4654553096831364 15.043763312086082 86.607242250641804 0.83867057594974714 0 0.54463902268945019 0.54463902268945019 0 -0.83867057594974714 forward_v I I I I #
loop $-1 $-1 $206 $47 #
coedge $-1 $122 $122 $123 $207 reversed $73 $-1 #
coedge $-1 $123 $123 $122 $207 forward $75 $-1 #
coedge $-1 $124 $124 $76 $125 forward $119 $-1 #
edge $-1 $208 0 $208 6.2831853071796004 $124 $209 forward 7 unknown #
loop $-1 $-1 $131 $77 #
plane-surface $-1 -4.4654553096831364 15.043763312086082 86.607242250641804 0.83867057594974714 0 0.54463902268945019 0.54463902268945019 0 -0.83867057594974714 forward_v I I I I #
loop $-1 $-1 $210 $50 #
coedge $-1 $129 $129 $130 $211 reversed $78 $-1 #
coedge $-1 $130 $130 $129 $211 forward $80 $-1 #
coedge $-1 $131 $131 $81 $132 forward $126 $-1 #
edge $-1 $212 0 $212 6.2831853071796004 $131 $213 forward 7 unknown #
loop $-1 $-1 $138 $82 #
plane-surface $-1 -4.4654553096831364 15.043763312086082 86.607242250641804 0.83867057594974714 0 0.54463902268945019 0.54463902268945019 0 -0.83867057594974714 forward_v I I I I #
loop $-1 $-1 $214 $53 #
coedge $-1 $136 $136 $137 $215 reversed $83 $-1 #
coedge $-1 $137 $137 $136 $215 forward $85 $-1 #
coedge $-1 $138 $138 $86 $139 forward $133 $-1 #
edge $-1 $216 0 $216 6.2831853071796004 $138 $217 forward 7 unknown #
face $-1 $218 $219 $21 $-1 $220 reversed single #
loop $-1 $-1 $221 $87 #
plane-surface $-1 -50.017395550401318 0 0 1 0 0 0 0 -1 forward_v I I I I #
coedge $-1 $222 $151 $223 $224 forward $88 $-1 #
coedge $-1 $225 $90 $222 $226 forward $57 $-1 #
coedge $-1 $90 $225 $227 $228 forward $57 $-1 #
coedge $-1 $154 $153 $90 $147 reversed $155 $-1 #
edge $-1 $229 -30.304127533918187 $230 30.304127533918187 $146 $231 forward 7 unknown #
coedge $-1 $92 $91 $232 $233 forward $36 $-1 #
coedge $-1 $234 $235 $91 $150 reversed $219 $-1 #
edge $-1 $157 -50.017395550401318 $236 50.017395550401318 $149 $237 forward 7 unknown #
coedge $-1 $143 $238 $92 $152 reversed $88 $-1 #
edge $-1 $239 -50.017395550401318 $156 50.017395550401318 $151 $240 forward 7 unknown #
coedge $-1 $146 $93 $238 $241 forward $155 $-1 #
coedge $-1 $93 $146 $234 $242 reversed $155 $-1 #
loop $-1 $-1 $153 $218 #
vertex $-1 $94 $243 #
vertex $-1 $94 $244 #
straight-curve $-1 50.017395550401318 0 7.0921110261498344 0 1 0 I I #
face $-1 $245 $246 $22 $-1 $247 reversed single #
loop $-1 $-1 $248 $95 #
plane-surface $-1 0 0 7.0921110261498344 0 0 1 1 0 0 forward_v I I I I #
coedge $-1 $249 $250 $251 $252 reversed $96 $-1 #
coedge $-1 $101 $98 $253 $254 reversed $61 $-1 #
coedge $-1 $98 $101 $255 $256 reversed $61 $-1 #
coedge $-1 $250 $249 $98 $166 reversed $96 $-1 #
edge $-1 $257 -7.0921110261498344 $258 7.0921110261498344 $165 $259 forward 7 unknown #
coedge $-1 $100 $99 $260 $261 reversed $39 $-1 #
coedge $-1 $253 $262 $99 $169 forward $246 $-1 #
edge $-1 $263 -16.970840585284247 $173 -9.6957333119836413 $168 $264 forward 7 unknown #
coedge $-1 $265 $255 $100 $171 forward $160 $-1 #
edge $-1 $172 9.6957333119836413 $266 16.970840585284247 $170 $267 forward 7 unknown #
vertex $-1 $171 $268 #
vertex $-1 $169 $269 #
straight-curve $-1 -38.891609853767804 -23.029020260617585 0 0 0 -1 I I #
face $-1 $270 $271 $23 $-1 $272 forward single #
loop $-1 $-1 $273 $103 #
plane-surface $-1 0 0 -7.0921110261498344 0 0 1 1 0 0 forward_v I I I I #
coedge $-1 $274 $275 $183 $276 forward $104 $-1 #
coedge $-1 $109 $106 $277 $278 reversed $65 $-1 #
coedge $-1 $106 $109 $279 $280 reversed $65 $-1 #
coedge $-1 $281 $282 $106 $182 forward $283 $-1 #
edge $-1 $284 -7.0921110261498344 $285 7.0921110261498344 $181 $286 forward 7 unknown #
coedge $-1 $108 $107 $178 $276 reversed $42 $-1 #
coedge $-1 $277 $273 $107 $185 forward $176 $-1 #
edge $-1 $287 17.151977660134282 $189 20.210414015800442 $184 $288 forward 7 unknown #
coedge $-1 $289 $279 $108 $187 forward $271 $-1 #
edge $-1 $188 -20.210414015800442 $290 -17.151977660134282 $186 $291 forward 7 unknown #
vertex $-1 $187 $292 #
vertex $-1 $185 $293 #
straight-curve $-1 -38.891609853767804 23.029020260617585 0 0 0 -1 I I #
face $-1 $-1 $294 $24 $-1 $295 reversed single #
loop $-1 $-1 $117 $111 #
plane-surface $-1 0 0 7.0921110261498344 0 0 1 1 0 0 forward_v I I I I #
coedge $-1 $296 $297 $298 $299 reversed $112 $-1 #
coedge $-1 $300 $114 $116 $201 forward $69 $-1 #
coedge $-1 $114 $300 $296 $301 forward $69 $-1 #
coedge $-1 $298 $117 $114 $198 forward $192 $-1 #
edge $-1 $204 -11.645692806364506 $302 -3.3980705057215754 $197 $303 forward 7 unknown #
coedge $-1 $304 $305 $115 $200 forward $294 $-1 #
edge $-1 $306 -67.834040172244116 $203 -63.452935529213292 $199 $307 forward 7 unknown #
edge $-1 $204 94.810922792236468 $306 100.03479110080264 $116 $308 forward 7 unknown #
coedge $-1 $117 $298 $304 $309 forward $192 $-1 #
vertex $-1 $118 $310 #
vertex $-1 $118 $311 #
straight-curve $-1 39.715390278919827 19.167574462407547 7.092111026149837 -1 0 0 I I #
coedge $-1 $206 $206 $-1 $312 reversed $121 $-1 #
edge $-1 $313 0 $313 6.2831853071796004 $122 $314 forward 7 unknown #
vertex $-1 $125 $315 #
ellipse-curve $-1 48.594834285283383 12.569476621893205 4.9015587046344384 0.83867057594974714 0 0.54463902268945019 0.2723195113447251 0 -0.41933528797487357 1 I I #
coedge $-1 $210 $210 $-1 $316 reversed $128 $-1 #
edge $-1 $317 0 $317 6.2831853071796004 $129 $318 forward 7 unknown #
vertex $-1 $132 $319 #
ellipse-curve $-1 48.594834285283383 15.043763312086082 4.9015587046344384 0.83867057594974714 0 0.54463902268945019 0.2723195113447251 0 -0.41933528797487357 1 I I #
coedge $-1 $214 $214 $-1 $320 reversed $135 $-1 #
edge $-1 $321 0 $321 6.2831853071796004 $136 $322 forward 7 unknown #
vertex $-1 $139 $323 #
ellipse-curve $-1 48.594834285283383 17.518050002278958 4.9015587046344384 0.83867057594974714 0 0.54463902268945019 0.2723195113447251 0 -0.41933528797487357 1 I I #
face $-1 $-1 $155 $21 $-1 $324 reversed single #
loop $-1 $-1 $234 $140 #
plane-surface $-1 0 30.304127533918187 0 0 -1 0 0 0 -1 forward_v I I I I #
coedge $-1 $325 $232 $235 $326 forward $141 $-1 #
coedge $-1 $238 $143 $144 $226 reversed $88 $-1 #
coedge $-1 $232 $325 $143 $224 reversed $141 $-1 #
edge $-1 $239 -7.0921110261498344 $327 7.0921110261498344 $223 $328 forward 7 unknown #
coedge $-1 $145 $144 $325 $329 forward $57 $-1 #
edge $-1 $230 -50.017395550401318 $327 50.017395550401318 $222 $330 forward 7 unknown #
coedge $-1 $235 $234 $145 $228 reversed $219 $-1 #
edge $-1 $331 -50.017395550401318 $229 50.017395550401318 $227 $332 forward 7 unknown #
vertex $-1 $147 $333 #
vertex $-1 $241 $334 #
straight-curve $-1 50.017395550401318 0 -7.0921110261498344 0 -1 0 I I #
coedge $-1 $221 $223 $148 $233 reversed $141 $-1 #
edge $-1 $236 -30.304127533918187 $239 30.304127533918187 $232 $335 forward 7 unknown #
coedge $-1 $227 $149 $154 $242 forward $219 $-1 #
coedge $-1 $149 $227 $221 $326 reversed $219 $-1 #
vertex $-1 $150 $336 #
straight-curve $-1 0 30.304127533918187 7.0921110261498344 -1 0 0 I I #
coedge $-1 $151 $222 $153 $241 reversed $88 $-1 #
vertex $-1 $233 $337 #
straight-curve $-1 0 -30.304127533918187 7.0921110261498344 1 0 0 I I #
edge $-1 $156 -7.0921110261498344 $230 7.0921110261498344 $153 $338 forward 7 unknown #
edge $-1 $157 -7.0921110261498344 $229 7.0921110261498344 $154 $339 forward 7 unknown #
point $-1 50.017395550401318 -30.304127533918187 7.0921110261498344 #
point $-1 50.017395550401318 30.304127533918187 7.0921110261498344 #
face $-1 $-1 $340 $22 $-1 $341 reversed single #
loop $-1 $-1 $342 $159 #
plane-surface $-1 0 0 -7.0921110261498344 0 0 1 1 0 0 forward_v I I I I #
coedge $-1 $255 $265 $250 $343 forward $160 $-1 #
coedge $-1 $165 $162 $342 $344 reversed $96 $-1 #
coedge $-1 $162 $165 $248 $343 reversed $96 $-1 #
coedge $-1 $345 $346 $162 $252 forward $340 $-1 #
edge $-1 $347 -7.0921110261498344 $348 7.0921110261498344 $251 $349 forward 7 unknown #
coedge $-1 $342 $168 $163 $254 forward $246 $-1 #
edge $-1 $173 -20.210414015800442 $258 -17.151977660134282 $253 $350 forward 7 unknown #
coedge $-1 $170 $248 $164 $256 forward $160 $-1 #
edge $-1 $257 17.151977660134282 $172 20.210414015800442 $255 $351 forward 7 unknown #
vertex $-1 $256 $352 #
vertex $-1 $254 $353 #
straight-curve $-1 -35.833173498101644 -23.029020260617585 0 0 0 -1 I I #
coedge $-1 $346 $345 $167 $261 forward $340 $-1 #
edge $-1 $266 -7.0921110261498344 $263 7.0921110261498344 $260 $354 forward 7 unknown #
coedge $-1 $168 $342 $346 $355 forward $246 $-1 #
vertex $-1 $169 $356 #
straight-curve $-1 -38.891609853767804 -13.333286948633944 -7.0921110261498344 0 1 0 I I #
coedge $-1 $248 $170 $345 $357 forward $160 $-1 #
vertex $-1 $357 $358 #
straight-curve $-1 -38.891609853767804 -13.333286948633944 7.0921110261498344 0 -1 0 I I #
point $-1 -38.891609853767804 -23.029020260617585 7.0921110261498344 #
point $-1 -38.891609853767804 -23.029020260617585 -7.0921110261498344 #
face $-1 $-1 $283 $23 $-1 $359 reversed single #
loop $-1 $-1 $289 $175 #
plane-surface $-1 0 0 7.0921110261498344 0 0 1 1 0 0 forward_v I I I I #
coedge $-1 $184 $360 $274 $361 forward $176 $-1 #
coedge $-1 $362 $178 $273 $361 reversed $104 $-1 #
coedge $-1 $178 $362 $289 $363 reversed $104 $-1 #
edge $-1 $290 -7.0921110261498344 $287 7.0921110261498344 $178 $364 forward 7 unknown #
coedge $-1 $360 $184 $179 $278 forward $176 $-1 #
edge $-1 $189 9.6957333119836431 $284 16.970840585284243 $277 $365 forward 7 unknown #
coedge $-1 $186 $366 $180 $280 forward $271 $-1 #
edge $-1 $285 -16.970840585284243 $188 -9.6957333119836431 $279 $367 forward 7 unknown #
coedge $-1 $368 $181 $366 $369 reversed $283 $-1 #
coedge $-1 $181 $368 $360 $370 reversed $283 $-1 #
loop $-1 $-1 $368 $270 #
vertex $-1 $370 $371 #
vertex $-1 $182 $372 #
straight-curve $-1 -38.891609853767804 30.304127533918187 0 0 0 1 I I #
vertex $-1 $185 $373 #
straight-curve $-1 -18.681195837967362 23.029020260617585 -7.0921110261498344 -1 0 0 I I #
coedge $-1 $366 $186 $275 $363 forward $271 $-1 #
vertex $-1 $187 $374 #
straight-curve $-1 -18.681195837967362 23.029020260617585 7.0921110261498344 1 0 0 I I #
point $-1 -38.891609853767804 23.029020260617585 7.0921110261498344 #
point $-1 -38.891609853767804 23.029020260617585 -7.0921110261498344 #
loop $-1 $-1 $199 $191 #
plane-surface $-1 50.017395550401318 0 0 -1 0 0 0 0 1 forward_v I I I I #
coedge $-1 $297 $194 $196 $301 reversed $112 $-1 #
coedge $-1 $194 $296 $375 $376 reversed $112 $-1 #
coedge $-1 $202 $197 $194 $299 forward $192 $-1 #
edge $-1 $302 7.4568827412456216 $377 10.302005271481491 $298 $378 forward 7 unknown #
coedge $-1 $196 $195 $305 $379 reversed $69 $-1 #
edge $-1 $380 -100.03479110080264 $302 -94.810922792236468 $296 $381 forward 7 unknown #
vertex $-1 $198 $382 #
straight-curve $-1 47.172273020165449 7.5218816560430408 7.092111026149837 0 -1 0 I I #
coedge $-1 $375 $199 $202 $309 reversed $294 $-1 #
coedge $-1 $199 $375 $300 $379 forward $294 $-1 #
vertex $-1 $200 $383 #
straight-curve $-1 50.017395550401318 19.167574462407547 70.545046555363129 0 0 1 I I #
straight-curve $-1 -4.4654553096831364 19.167574462407547 86.607242250641804 0.54463902268945019 0 -0.83867057594974714 I I #
edge $-1 $377 10.919952161764616 $203 19.167574462407547 $304 $384 forward 7 unknown #
point $-1 50.017395550401318 19.167574462407547 7.0921110261498344 #
point $-1 47.172273020165449 19.167574462407547 7.092111026149837 #
edge $-1 $385 1 $385 0 $206 $-1 forward 7 unknown #
vertex $-1 $207 $386 #
ellipse-curve $-1 47.608634268134431 12.569476621893205 4.2611129456926005 0.83867057594974714 0 0.54463902268945019 0.2723195113447251 0 -0.41933528797487357 1 I I #
point $-1 48.867153796628109 12.569476621893205 4.4822234166595658 #
edge $-1 $387 1 $387 0 $210 $-1 forward 7 unknown #
vertex $-1 $211 $388 #
ellipse-curve $-1 47.608634268134431 15.043763312086082 4.2611129456926005 0.83867057594974714 0 0.54463902268945019 0.2723195113447251 0 -0.41933528797487357 1 I I #
point $-1 48.867153796628109 15.043763312086082 4.4822234166595658 #
edge $-1 $389 1 $389 0 $214 $-1 forward 7 unknown #
vertex $-1 $215 $390 #
ellipse-curve $-1 47.608634268134431 17.518050002278958 4.2611129456926005 0.83867057594974714 0 0.54463902268945019 0.2723195113447251 0 -0.41933528797487357 1 I I #
point $-1 48.867153796628109 17.518050002278958 4.4822234166595658 #
plane-surface $-1 50.017395550401318 0 0 -1 0 0 0 0 1 forward_v I I I I #
coedge $-1 $223 $221 $225 $329 reversed $141 $-1 #
edge $-1 $236 -7.0921110261498344 $331 7.0921110261498344 $235 $391 forward 7 unknown #
vertex $-1 $329 $392 #
straight-curve $-1 -50.017395550401318 -30.304127533918187 0 0 0 -1 I I #
edge $-1 $327 -30.304127533918187 $331 30.304127533918187 $325 $393 forward 7 unknown #
straight-curve $-1 0 -30.304127533918187 -7.0921110261498344 -1 0 0 I I #
vertex $-1 $228 $394 #
straight-curve $-1 0 30.304127533918187 -7.0921110261498344 1 0 0 I I #
point $-1 50.017395550401318 30.304127533918187 -7.0921110261498344 #
point $-1 50.017395550401318 -30.304127533918187 -7.0921110261498344 #
straight-curve $-1 -50.017395550401318 0 7.0921110261498344 0 -1 0 I I #
point $-1 -50.017395550401318 30.304127533918187 7.0921110261498344 #
point $-1 -50.017395550401318 -30.304127533918187 7.0921110261498344 #
straight-curve $-1 50.017395550401318 -30.304127533918187 0 0 0 -1 I I #
straight-curve $-1 50.017395550401318 30.304127533918187 0 0 0 -1 I I #
loop $-1 $-1 $251 $245 #
plane-surface $-1 0 -30.304127533918187 0 0 1 0 0 0 1 forward_v I I I I #
coedge $-1 $262 $253 $249 $344 forward $246 $-1 #
edge $-1 $348 -16.970840585284247 $257 -9.6957333119836413 $248 $395 forward 7 unknown #
edge $-1 $258 9.6957333119836413 $347 16.970840585284247 $342 $396 forward 7 unknown #
coedge $-1 $260 $251 $265 $357 reversed $340 $-1 #
coedge $-1 $251 $260 $262 $355 reversed $340 $-1 #
vertex $-1 $355 $397 #
vertex $-1 $252 $398 #
straight-curve $-1 -35.833173498101644 -30.304127533918187 0 0 0 1 I I #
straight-curve $-1 -18.681195837967362 -23.029020260617585 -7.0921110261498344 1 0 0 I I #
straight-curve $-1 -18.681195837967362 -23.029020260617585 7.0921110261498344 -1 0 0 I I #
point $-1 -35.833173498101644 -23.029020260617585 7.0921110261498344 #
point $-1 -35.833173498101644 -23.029020260617585 -7.0921110261498344 #
straight-curve $-1 -38.891609853767804 -30.304127533918187 0 0 0 -1 I I #
edge $-1 $347 35.833173498101644 $263 38.891609853767804 $346 $399 forward 7 unknown #
point $-1 -38.891609853767804 -30.304127533918191 -7.0921110261498344 #
edge $-1 $266 -38.891609853767804 $348 -35.833173498101644 $345 $400 forward 7 unknown #
point $-1 -38.891609853767804 -30.304127533918191 7.0921110261498344 #
plane-surface $-1 0 30.304127533918187 0 0 -1 0 0 0 -1 forward_v I I I I #
coedge $-1 $273 $277 $282 $370 forward $176 $-1 #
edge $-1 $401 -16.970840585284243 $287 -9.6957333119836431 $273 $402 forward 7 unknown #
coedge $-1 $275 $274 $368 $403 reversed $104 $-1 #
edge $-1 $290 9.6957333119836431 $404 16.970840585284243 $289 $405 forward 7 unknown #
straight-curve $-1 -35.833173498101644 23.029020260617585 0 0 0 -1 I I #
straight-curve $-1 -38.891609853767804 13.333286948633942 -7.0921110261498344 0 1 0 I I #
coedge $-1 $279 $289 $281 $369 forward $271 $-1 #
straight-curve $-1 -38.891609853767804 13.333286948633942 7.0921110261498344 0 -1 0 I I #
coedge $-1 $282 $281 $362 $403 forward $283 $-1 #
edge $-1 $404 35.833173498101644 $285 38.891609853767804 $281 $406 forward 7 unknown #
edge $-1 $284 -38.891609853767804 $401 -35.833173498101644 $282 $407 forward 7 unknown #
point $-1 -38.891609853767804 30.304127533918184 -7.0921110261498344 #
point $-1 -38.891609853767804 30.304127533918184 7.0921110261498344 #
point $-1 -35.833173498101644 23.029020260617585 -7.0921110261498344 #
point $-1 -35.833173498101644 23.029020260617585 7.0921110261498344 #
coedge $-1 $305 $304 $297 $376 forward $294 $-1 #
edge $-1 $377 63.452935529213292 $380 67.834040172244116 $375 $408 forward 7 unknown #
vertex $-1 $309 $409 #
straight-curve $-1 39.715390278919827 10.919952161764616 7.092111026149837 1 0 0 I I #
edge $-1 $380 3.3980705057215754 $306 11.645692806364506 $305 $410 forward 7 unknown #
vertex $-1 $379 $411 #
straight-curve $-1 -4.4654553096831364 10.919952161764616 86.607242250641804 -0.54463902268945019 0 0.83867057594974714 I I #
point $-1 47.172273020165449 10.919952161764616 7.092111026149837 #
point $-1 50.017395550401318 19.167574462407547 2.7110063831190132 #
straight-curve $-1 50.017395550401318 0 7.0921110261498344 0 1 0 I I #
vertex $-1 $312 $412 #
point $-1 47.880953779479157 12.569476621893205 3.8417776577177274 #
vertex $-1 $316 $413 #
point $-1 47.880953779479157 15.043763312086082 3.8417776577177274 #
vertex $-1 $320 $414 #
point $-1 47.880953779479157 17.518050002278958 3.8417776577177274 #
straight-curve $-1 -50.017395550401318 30.304127533918187 0 0 0 -1 I I #
point $-1 -50.017395550401318 -30.304127533918187 -7.0921110261498344 #
straight-curve $-1 -50.017395550401318 0 -7.0921110261498344 0 1 0 I I #
point $-1 -50.017395550401318 30.304127533918187 -7.0921110261498344 #
straight-curve $-1 -35.833173498101644 -13.333286948633944 7.0921110261498344 0 1 0 I I #
straight-curve $-1 -35.833173498101644 -13.333286948633944 -7.0921110261498344 0 -1 0 I I #
point $-1 -35.833173498101644 -30.304127533918191 -7.0921110261498344 #
point $-1 -35.833173498101644 -30.304127533918191 7.0921110261498344 #
straight-curve $-1 0 -30.304127533918187 -7.0921110261498344 -1 0 0 I I #
straight-curve $-1 0 -30.304127533918187 7.0921110261498344 1 0 0 I I #
vertex $-1 $403 $415 #
straight-curve $-1 -35.833173498101644 13.333286948633942 -7.0921110261498344 0 -1 0 I I #
edge $-1 $404 -7.0921110261498344 $401 7.0921110261498344 $368 $416 forward 7 unknown #
vertex $-1 $369 $417 #
straight-curve $-1 -35.833173498101644 13.333286948633942 7.0921110261498344 0 1 0 I I #
straight-curve $-1 0 30.304127533918187 7.0921110261498344 -1 0 0 I I #
straight-curve $-1 0 30.304127533918187 -7.0921110261498344 1 0 0 I I #
straight-curve $-1 50.017395550401318 10.919952161764616 70.545046555363129 0 0 -1 I I #
point $-1 50.017395550401318 10.919952161764616 7.0921110261498344 #
straight-curve $-1 50.017395550401318 7.5218816560430408 2.7110063831190203 0 1 0 I I #
point $-1 50.017395550401318 10.919952161764616 2.7110063831190132 #
point $-1 47.189298980159556 12.569476621893205 3.9887934343478757 #
point $-1 47.189298980159556 15.043763312086082 3.9887934343478757 #
point $-1 47.189298980159556 17.518050002278958 3.9887934343478757 #
point $-1 -35.833173498101644 30.304127533918184 -7.0921110261498344 #
straight-curve $-1 -35.833173498101644 30.304127533918187 0 0 0 -1 I I #
point $-1 -35.833173498101644 30.304127533918184 7.0921110261498344 #
End-of-ACIS-data 