500 0 12 0           
7 Unknown 11 ACIS 5.0 NT 24 Fri Mar 26 19:50:36 1999 
-1 9.9999999999999995e-007 1e-010 
body $-1 $12 $-1 $13 #
body $-1 $14 $-1 $15 #
body $-1 $16 $-1 $17 #
body $-1 $18 $-1 $19 #
body $-1 $20 $-1 $21 #
body $-1 $22 $-1 $23 #
body $-1 $24 $-1 $25 #
body $-1 $26 $-1 $27 #
body $-1 $28 $-1 $29 #
body $-1 $30 $-1 $31 #
body $-1 $32 $-1 $33 #
body $-1 $34 $-1 $35 #
lump $-1 $-1 $36 $0 #
transform $-1 1 0 0 0 1 0 0 0 1 45.428632465590383 23.441213171840847 11.297595954843136 1 rotate no_reflect no_shear #
lump $-1 $-1 $37 $1 #
transform $-1 1 0 0 0 1 0 0 0 1 45.428632465590383 23.441213171840847 11.297595954843136 1 rotate no_reflect no_shear #
lump $-1 $-1 $38 $2 #
transform $-1 1 0 0 0 1 0 0 0 1 45.428632465590383 23.441213171840847 11.297595954843136 1 rotate no_reflect no_shear #
lump $-1 $-1 $39 $3 #
transform $-1 1 0 0 0 1 0 0 0 1 45.428632465590383 23.441213171840847 11.297595954843136 1 rotate no_reflect no_shear #
lump $-1 $-1 $40 $4 #
transform $-1 1 0 0 0 1 0 0 0 1 45.428632465590383 23.441213171840847 11.297595954843136 1 rotate no_reflect no_shear #
lump $-1 $-1 $41 $5 #
transform $-1 1 0 0 0 1 0 0 0 1 45.428632465590383 23.441213171840847 11.297595954843136 1 rotate no_reflect no_shear #
lump $-1 $-1 $42 $6 #
transform $-1 1 0 0 0 1 0 0 0 1 45.428632465590383 23.441213171840847 11.297595954843136 1 rotate no_reflect no_shear #
lump $-1 $-1 $43 $7 #
transform $-1 1 0 0 0 1 0 0 0 1 45.428632465590383 23.441213171840847 11.297595954843136 1 rotate no_reflect no_shear #
lump $-1 $-1 $44 $8 #
transform $-1 1 0 0 0 1 0 0 0 1 45.428632465590383 23.441213171840847 11.297595954843136 1 rotate no_reflect no_shear #
lump $-1 $-1 $45 $9 #
transform $-1 1 0 0 0 1 0 0 0 1 45.428632465590383 23.441213171840847 11.297595954843136 1 rotate no_reflect no_shear #
lump $-1 $-1 $46 $10 #
transform $-1 1 0 0 0 1 0 0 0 1 45.428632465590383 23.441213171840847 11.297595954843136 1 rotate no_reflect no_shear #
lump $-1 $-1 $47 $11 #
transform $-1 1 0 0 0 1 0 0 0 1 45.428632465590383 23.441213171840847 11.297595954843136 1 rotate no_reflect no_shear #
shell $-1 $-1 $-1 $48 $-1 $12 #
shell $-1 $-1 $-1 $49 $-1 $14 #
shell $-1 $-1 $-1 $50 $-1 $16 #
shell $-1 $-1 $-1 $51 $-1 $18 #
shell $-1 $-1 $-1 $52 $-1 $20 #
shell $-1 $-1 $-1 $53 $-1 $22 #
shell $-1 $-1 $-1 $54 $-1 $24 #
shell $-1 $-1 $-1 $55 $-1 $26 #
shell $-1 $-1 $-1 $56 $-1 $28 #
shell $-1 $-1 $-1 $57 $-1 $30 #
shell $-1 $-1 $-1 $58 $-1 $32 #
shell $-1 $-1 $-1 $59 $-1 $34 #
face $-1 $60 $61 $36 $-1 $62 forward single #
face $-1 $63 $64 $37 $-1 $65 forward single #
face $-1 $66 $67 $38 $-1 $68 forward single #
face $-1 $69 $70 $39 $-1 $71 reversed single #
face $-1 $72 $73 $40 $-1 $74 forward single #
face $-1 $75 $76 $41 $-1 $77 reversed single #
face $-1 $78 $79 $42 $-1 $80 forward single #
face $-1 $81 $82 $43 $-1 $83 reversed single #
face $-1 $84 $85 $44 $-1 $86 forward single #
face $-1 $87 $88 $45 $-1 $89 reversed single #
face $-1 $90 $91 $46 $-1 $92 forward single #
face $-1 $93 $94 $47 $-1 $95 forward single #
face $-1 $96 $97 $36 $-1 $98 reversed single #
loop $-1 $-1 $99 $48 #
plane-surface $-1 0 0 11.297595954843136 0 0 1 1 0 0 forward_v I I I I #
face $-1 $100 $101 $37 $-1 $102 reversed single #
loop $-1 $-1 $103 $49 #
plane-surface $-1 0 -17.841336850049416 5.7045703707419833 0 0 1 1 0 0 forward_v I I I I #
face $-1 $104 $105 $38 $-1 $106 reversed single #
loop $-1 $-1 $107 $50 #
plane-surface $-1 0 17.841336850049412 5.7045703707419833 0 0 1 1 0 0 forward_v I I I I #
face $-1 $108 $109 $39 $-1 $110 reversed single #
loop $-1 $-1 $111 $51 #
plane-surface $-1 -90.857265539809632 -4.0804868427526646 80.045811849053834 0 -1 0 0.50000000669873634 0 -0.8660253999169214 forward_v I I I I #
face $-1 $112 $113 $40 $-1 $114 forward single #
loop $-1 $115 $116 $52 #
cone-surface $-1 -36.041127579484495 -7.0087318714986111 4.9744435969350986 0.50000000669873634 0 -0.8660253999169214 0.8660253999169214 0 0.50000000669873634 1 I I 0 1 1 forward I I I I #
face $-1 $117 $118 $41 $-1 $119 reversed single #
loop $-1 $-1 $120 $53 #
plane-surface $-1 -90.857265539809632 4.080486842752661 80.045811849053834 0 -1 0 0.50000000669873634 0 -0.8660253999169214 forward_v I I I I #
face $-1 $121 $122 $42 $-1 $123 forward single #
loop $-1 $124 $125 $54 #
cone-surface $-1 -36.041127579484495 1.152241814006711 4.9744435969350986 0.50000000669873634 0 -0.8660253999169214 0.8660253999169214 0 0.50000000669873634 1 I I 0 1 1 forward I I I I #
face $-1 $126 $127 $43 $-1 $128 reversed single #
loop $-1 $-1 $129 $55 #
plane-surface $-1 -45.42863246559039 9.3132154995120366 1.3611126516703393 -0.50000000669873634 0 0.8660253999169214 0.8660253999169214 0 0.50000000669873634 forward_v I I I I #
face $-1 $130 $131 $44 $-1 $132 forward single #
loop $-1 $133 $134 $56 #
cone-surface $-1 -36.041127579484495 9.3132154995120366 4.9744435969350986 0.50000000669873634 0 -0.8660253999169214 0.8660253999169214 0 0.50000000669873634 1 I I 0 1 1 forward I I I I #
face $-1 $135 $136 $45 $-1 $137 reversed single #
loop $-1 $-1 $138 $57 #
plane-surface $-1 40.944342545710143 -1.3691677805322406 136.442981097901 0 1 0 0.68199836817093118 0 0.7313536940579346 forward_v I I I I #
face $-1 $139 $140 $46 $-1 $141 forward single #
loop $-1 $142 $143 $58 #
cone-surface $-1 43.159365001733725 0.48663633766167891 9.109156903213556 -0.68199836817093118 0 -0.7313536940579346 0.3656768470289673 0 -0.34099918408546559 1 I I 0 1 0.5 forward I I I I #
face $-1 $144 $145 $47 $-1 $146 forward single #
loop $-1 $147 $148 $59 #
cone-surface $-1 43.159365001733725 3.2703425149525565 9.109156903213556 -0.68199836817093118 0 -0.7313536940579346 0.3656768470289673 0 -0.34099918408546559 1 I I 0 1 0.5 forward I I I I #
face $-1 $149 $150 $36 $-1 $151 reversed single #
loop $-1 $-1 $152 $60 #
plane-surface $-1 0 0 -11.297595954843136 0 0 1 1 0 0 forward_v I I I I #
coedge $-1 $153 $154 $155 $156 forward $61 $-1 #
face $-1 $157 $158 $37 $-1 $159 reversed single #
loop $-1 $-1 $160 $63 #
plane-surface $-1 0 -17.841336850049416 0.71255484317486406 0 0 1 1 0 0 forward_v I I I I #
coedge $-1 $161 $162 $163 $164 reversed $64 $-1 #
face $-1 $165 $166 $38 $-1 $167 reversed single #
loop $-1 $-1 $168 $66 #
plane-surface $-1 0 17.841336850049412 0.71255484317486406 0 0 1 1 0 0 forward_v I I I I #
coedge $-1 $169 $170 $171 $172 reversed $67 $-1 #
face $-1 $173 $174 $39 $-1 $175 reversed single #
loop $-1 $-1 $176 $69 #
plane-surface $-1 -45.42863246559039 -7.0087318714986147 1.3611126516703393 -0.50000000669873634 0 0.8660253999169214 0.8660253999169214 0 0.50000000669873634 forward_v I I I I #
coedge $-1 $177 $178 $179 $180 reversed $70 $-1 #
face $-1 $-1 $181 $40 $-1 $182 forward single #
loop $-1 $183 $184 $72 #
cone-surface $-1 -35.008869501138719 -7.0087318714986111 3.1865201906550027 0.50000000669873634 0 -0.8660253999169214 0.4330126999584607 0 0.25000000334936817 1 I I -0.70710678118654746 0.70710678118654746 0.5 forward I I I I #
loop $-1 $-1 $185 $52 #
coedge $-1 $116 $116 $186 $187 reversed $73 $-1 #
face $-1 $188 $189 $41 $-1 $190 reversed single #
loop $-1 $-1 $191 $75 #
plane-surface $-1 -45.42863246559039 1.152241814006711 1.3611126516703393 -0.50000000669873634 0 0.8660253999169214 0.8660253999169214 0 0.50000000669873634 forward_v I I I I #
coedge $-1 $192 $193 $194 $195 reversed $76 $-1 #
face $-1 $-1 $196 $42 $-1 $197 forward single #
loop $-1 $198 $199 $78 #
cone-surface $-1 -35.008869501138719 1.152241814006711 3.1865201906550027 0.50000000669873634 0 -0.8660253999169214 0.4330126999584607 0 0.25000000334936817 1 I I -0.70710678118654746 0.70710678118654746 0.5 forward I I I I #
loop $-1 $-1 $200 $54 #
coedge $-1 $125 $125 $201 $202 reversed $79 $-1 #
face $-1 $203 $204 $43 $-1 $205 reversed single #
loop $-1 $-1 $206 $81 #
plane-surface $-1 -90.857265539809632 6.3849704707660866 80.045811849053834 0 1 0 -0.50000000669873634 0 0.8660253999169214 forward_v I I I I #
coedge $-1 $207 $208 $209 $210 reversed $82 $-1 #
face $-1 $-1 $211 $44 $-1 $212 forward single #
loop $-1 $213 $214 $84 #
cone-surface $-1 -35.008869501138719 9.3132154995120366 3.1865201906550027 0.50000000669873634 0 -0.8660253999169214 0.4330126999584607 0 0.25000000334936817 1 I I -0.70710678118654746 0.70710678118654746 0.5 forward I I I I #
loop $-1 $-1 $215 $56 #
coedge $-1 $134 $134 $216 $217 reversed $85 $-1 #
face $-1 $218 $219 $45 $-1 $220 reversed single #
loop $-1 $-1 $221 $87 #
plane-surface $-1 -21.020163873829112 1.8784894263071159 69.994184758481509 0.68199836817093118 0 0.7313536940579346 0.7313536940579346 0 -0.68199836817093118 forward_v I I I I #
coedge $-1 $222 $223 $224 $225 reversed $88 $-1 #
face $-1 $-1 $226 $46 $-1 $227 forward single #
loop $-1 $228 $229 $90 #
cone-surface $-1 42.471804206001721 0.48663633766167891 8.3718382360199364 -0.68199836817093118 0 -0.7313536940579346 0.18283842351448365 0 -0.17049959204273279 1 I I -0.70710678118654746 0.70710678118654746 0.25 forward I I I I #
loop $-1 $-1 $230 $58 #
coedge $-1 $143 $143 $231 $232 reversed $91 $-1 #
face $-1 $-1 $233 $47 $-1 $234 forward single #
loop $-1 $235 $236 $93 #
cone-surface $-1 42.471804206001721 3.2703425149525565 8.3718382360199364 -0.68199836817093118 0 -0.7313536940579346 0.18283842351448365 0 -0.17049959204273279 1 I I -0.70710678118654746 0.70710678118654746 0.25 forward I I I I #
loop $-1 $-1 $237 $59 #
coedge $-1 $148 $148 $238 $239 reversed $94 $-1 #
face $-1 $240 $241 $36 $-1 $242 reversed single #
loop $-1 $-1 $243 $96 #
plane-surface $-1 0 -23.441213171840847 0 0 1 0 0 0 1 forward_v I I I I #
coedge $-1 $244 $245 $246 $247 forward $97 $-1 #
coedge $-1 $248 $99 $249 $250 forward $61 $-1 #
coedge $-1 $99 $248 $251 $252 forward $61 $-1 #
coedge $-1 $253 $254 $99 $156 reversed $255 $-1 #
edge $-1 $256 -23.441213171840847 $257 23.441213171840847 $155 $258 forward 7 unknown #
face $-1 $259 $260 $37 $-1 $261 reversed single #
loop $-1 $-1 $262 $100 #
plane-surface $-1 0 -12.241460528257985 3.2085626069584237 0 -1 0 0 0 -1 forward_v I I I I #
coedge $-1 $263 $264 $265 $266 reversed $101 $-1 #
coedge $-1 $267 $103 $268 $269 forward $64 $-1 #
coedge $-1 $103 $267 $270 $271 reversed $64 $-1 #
coedge $-1 $272 $273 $103 $164 forward $274 $-1 #
edge $-1 $275 3.320792103233277 $276 14.520544746816139 $163 $277 forward 7 unknown #
face $-1 $278 $279 $38 $-1 $280 reversed single #
loop $-1 $-1 $281 $104 #
plane-surface $-1 0 12.241460528257981 3.2085626069584237 0 1 0 0 0 1 forward_v I I I I #
coedge $-1 $282 $283 $284 $285 reversed $105 $-1 #
coedge $-1 $286 $107 $287 $288 reversed $67 $-1 #
coedge $-1 $107 $286 $289 $290 forward $67 $-1 #
coedge $-1 $291 $292 $107 $172 forward $279 $-1 #
edge $-1 $293 -14.520544746816137 $294 -3.3207921032332752 $171 $295 forward 7 unknown #
face $-1 $296 $297 $39 $-1 $298 reversed single #
loop $-1 $-1 $299 $108 #
plane-surface $-1 -90.857265539809632 -9.9369769002445647 80.045811849053834 0 1 0 -0.50000000669873634 0 0.8660253999169214 forward_v I I I I #
coedge $-1 $300 $301 $302 $303 reversed $109 $-1 #
coedge $-1 $178 $111 $304 $305 reversed $70 $-1 #
coedge $-1 $111 $177 $300 $306 reversed $70 $-1 #
coedge $-1 $302 $307 $111 $180 forward $297 $-1 #
edge $-1 $308 28.725309969683781 $309 38.661793272856571 $179 $310 forward 7 unknown #
loop $-1 $-1 $186 $112 #
plane-surface $-1 -45.42863246559039 -7.0087318714986147 1.3611126516703393 -0.50000000669873634 0 0.8660253999169214 0.8660253999169214 0 0.50000000669873634 forward_v I I I I #
loop $-1 $-1 $311 $72 #
coedge $-1 $184 $184 $185 $312 reversed $113 $-1 #
coedge $-1 $185 $185 $184 $312 forward $115 $-1 #
coedge $-1 $186 $186 $116 $187 forward $181 $-1 #
edge $-1 $313 0 $313 6.2831853071796004 $186 $314 forward 7 unknown #
face $-1 $315 $316 $41 $-1 $317 forward single #
loop $-1 $-1 $318 $117 #
plane-surface $-1 -90.857265539809632 -1.7760032147392391 80.045811849053834 0 1 0 -0.50000000669873634 0 0.8660253999169214 forward_v I I I I #
coedge $-1 $319 $320 $321 $322 reversed $118 $-1 #
coedge $-1 $193 $120 $323 $324 reversed $76 $-1 #
coedge $-1 $120 $192 $319 $325 reversed $76 $-1 #
coedge $-1 $321 $326 $120 $195 forward $327 $-1 #
edge $-1 $328 28.725309969683781 $329 38.661793272856571 $194 $330 forward 7 unknown #
loop $-1 $-1 $201 $121 #
plane-surface $-1 -45.42863246559039 1.152241814006711 1.3611126516703393 -0.50000000669873634 0 0.8660253999169214 0.8660253999169214 0 0.50000000669873634 forward_v I I I I #
loop $-1 $-1 $331 $78 #
coedge $-1 $199 $199 $200 $332 reversed $122 $-1 #
coedge $-1 $200 $200 $199 $332 forward $124 $-1 #
coedge $-1 $201 $201 $125 $202 forward $196 $-1 #
edge $-1 $333 0 $333 6.2831853071796004 $201 $334 forward 7 unknown #
face $-1 $335 $336 $43 $-1 $337 forward single #
loop $-1 $-1 $338 $126 #
plane-surface $-1 -45.428632465590383 0 0 1 0 0 0 0 -1 forward_v I I I I #
coedge $-1 $339 $340 $341 $342 reversed $127 $-1 #
coedge $-1 $343 $129 $344 $345 reversed $82 $-1 #
coedge $-1 $129 $343 $339 $346 forward $82 $-1 #
coedge $-1 $341 $338 $129 $210 forward $204 $-1 #
edge $-1 $347 -7.5848527785019684 $348 -1.7283627210100683 $209 $349 forward 7 unknown #
loop $-1 $-1 $216 $130 #
plane-surface $-1 -45.42863246559039 9.3132154995120366 1.3611126516703393 -0.50000000669873634 0 0.8660253999169214 0.8660253999169214 0 0.50000000669873634 forward_v I I I I #
loop $-1 $-1 $350 $84 #
coedge $-1 $214 $214 $215 $351 reversed $131 $-1 #
coedge $-1 $215 $215 $214 $351 forward $133 $-1 #
coedge $-1 $216 $216 $134 $217 forward $211 $-1 #
edge $-1 $352 0 $352 6.2831853071796004 $216 $353 forward 7 unknown #
face $-1 $354 $355 $45 $-1 $356 forward single #
loop $-1 $-1 $357 $135 #
plane-surface $-1 40.944342545710143 5.1261466331464725 136.442981097901 0 -1 0 -0.68199836817093118 0 -0.7313536940579346 forward_v I I I I #
coedge $-1 $358 $359 $360 $361 reversed $136 $-1 #
coedge $-1 $223 $138 $362 $363 reversed $88 $-1 #
coedge $-1 $138 $222 $358 $364 reversed $88 $-1 #
coedge $-1 $360 $365 $138 $225 forward $366 $-1 #
edge $-1 $367 56.923894594107367 $368 60.191812210008244 $224 $369 forward 7 unknown #
loop $-1 $-1 $231 $139 #
plane-surface $-1 -21.020163873829112 1.8784894263071159 69.994184758481509 0.68199836817093118 0 0.7313536940579346 0.7313536940579346 0 -0.68199836817093118 forward_v I I I I #
loop $-1 $-1 $370 $90 #
coedge $-1 $229 $229 $230 $371 reversed $140 $-1 #
coedge $-1 $230 $230 $229 $371 forward $142 $-1 #
coedge $-1 $231 $231 $143 $232 forward $226 $-1 #
edge $-1 $372 0 $372 6.2831853071796004 $231 $373 forward 7 unknown #
loop $-1 $-1 $238 $144 #
plane-surface $-1 -21.020163873829112 1.8784894263071159 69.994184758481509 0.68199836817093118 0 0.7313536940579346 0.7313536940579346 0 -0.68199836817093118 forward_v I I I I #
loop $-1 $-1 $374 $93 #
coedge $-1 $236 $236 $237 $375 reversed $145 $-1 #
coedge $-1 $237 $237 $236 $375 forward $147 $-1 #
coedge $-1 $238 $238 $148 $239 forward $233 $-1 #
edge $-1 $376 0 $376 6.2831853071796004 $238 $377 forward 7 unknown #
face $-1 $378 $379 $36 $-1 $380 reversed single #
loop $-1 $-1 $381 $149 #
plane-surface $-1 -45.428632465590383 0 0 1 0 0 0 0 -1 forward_v I I I I #
coedge $-1 $382 $251 $383 $384 forward $150 $-1 #
coedge $-1 $385 $152 $382 $386 forward $97 $-1 #
coedge $-1 $152 $385 $387 $388 forward $97 $-1 #
coedge $-1 $254 $253 $152 $247 reversed $255 $-1 #
edge $-1 $389 -23.441213171840847 $390 23.441213171840847 $246 $391 forward 7 unknown #
coedge $-1 $154 $153 $392 $393 forward $61 $-1 #
coedge $-1 $394 $395 $153 $250 reversed $379 $-1 #
edge $-1 $257 -45.428632465590383 $396 45.428632465590383 $249 $397 forward 7 unknown #
coedge $-1 $243 $398 $154 $252 reversed $150 $-1 #
edge $-1 $399 -45.428632465590383 $256 45.428632465590383 $251 $400 forward 7 unknown #
coedge $-1 $246 $155 $398 $401 forward $255 $-1 #
coedge $-1 $155 $246 $394 $402 reversed $255 $-1 #
loop $-1 $-1 $253 $378 #
vertex $-1 $156 $403 #
vertex $-1 $156 $404 #
straight-curve $-1 45.428632465590383 0 11.297595954843136 0 1 0 I I #
face $-1 $405 $406 $37 $-1 $407 reversed single #
loop $-1 $-1 $408 $157 #
plane-surface $-1 -45.428632465590383 0 0 1 0 0 0 0 -1 forward_v I I I I #
coedge $-1 $409 $268 $273 $410 reversed $158 $-1 #
coedge $-1 $411 $160 $412 $413 reversed $101 $-1 #
coedge $-1 $160 $411 $409 $414 forward $101 $-1 #
coedge $-1 $273 $272 $160 $266 forward $274 $-1 #
edge $-1 $415 -14.520544746816139 $416 -3.320792103233277 $265 $417 forward 7 unknown #
coedge $-1 $162 $161 $408 $418 reversed $64 $-1 #
coedge $-1 $262 $419 $161 $269 reversed $158 $-1 #
edge $-1 $275 -45.428632465590383 $420 45.428632465590383 $268 $421 forward 7 unknown #
coedge $-1 $422 $423 $162 $271 forward $406 $-1 #
edge $-1 $276 -45.428632465590383 $424 45.428632465590383 $270 $425 forward 7 unknown #
coedge $-1 $265 $163 $423 $426 forward $274 $-1 #
coedge $-1 $163 $265 $262 $410 forward $274 $-1 #
loop $-1 $-1 $163 $405 #
vertex $-1 $164 $427 #
vertex $-1 $426 $428 #
straight-curve $-1 45.428632465590383 -8.9206684250247079 5.7045703707419833 0 -1 0 I I #
face $-1 $429 $430 $38 $-1 $431 reversed single #
loop $-1 $-1 $171 $165 #
plane-surface $-1 45.428632465590383 0 0 -1 0 0 0 0 1 forward_v I I I I #
coedge $-1 $432 $289 $433 $434 reversed $166 $-1 #
coedge $-1 $435 $168 $432 $436 forward $105 $-1 #
coedge $-1 $168 $435 $437 $438 reversed $105 $-1 #
coedge $-1 $292 $291 $168 $285 forward $279 $-1 #
edge $-1 $439 3.3207921032332752 $440 14.520544746816137 $284 $441 forward 7 unknown #
coedge $-1 $170 $169 $442 $443 reversed $67 $-1 #
coedge $-1 $444 $445 $169 $288 forward $446 $-1 #
edge $-1 $447 -45.428632465590383 $293 45.428632465590383 $287 $448 forward 7 unknown #
coedge $-1 $281 $449 $170 $290 reversed $166 $-1 #
edge $-1 $450 -45.428632465590383 $294 45.428632465590383 $289 $451 forward 7 unknown #
coedge $-1 $284 $171 $449 $452 forward $279 $-1 #
coedge $-1 $171 $284 $444 $453 reversed $279 $-1 #
vertex $-1 $453 $454 #
vertex $-1 $172 $455 #
straight-curve $-1 45.428632465590383 8.9206684250247061 5.7045703707419833 0 -1 0 I I #
face $-1 $-1 $456 $39 $-1 $457 forward single #
loop $-1 $-1 $179 $173 #
plane-surface $-1 -45.428632465590383 0 0 1 0 0 0 0 -1 forward_v I I I I #
coedge $-1 $458 $459 $460 $461 reversed $174 $-1 #
coedge $-1 $462 $176 $178 $306 forward $109 $-1 #
coedge $-1 $176 $462 $458 $463 forward $109 $-1 #
coedge $-1 $460 $179 $176 $303 forward $297 $-1 #
edge $-1 $309 0.57612090700335727 $464 6.4326109644952574 $302 $465 forward 7 unknown #
coedge $-1 $466 $467 $177 $305 forward $456 $-1 #
edge $-1 $468 -17.210493926533374 $308 -3.0431443320821927e-007 $304 $469 forward 7 unknown #
edge $-1 $309 8.1518820400458524e-015 $468 19.872966340098071 $178 $470 forward 7 unknown #
coedge $-1 $179 $460 $466 $471 reversed $297 $-1 #
vertex $-1 $471 $472 #
vertex $-1 $180 $473 #
straight-curve $-1 -45.428632465590383 -4.0804868427526646 40.022905924526917 0 0 -1 I I #
coedge $-1 $311 $311 $-1 $474 reversed $183 $-1 #
edge $-1 $475 0 $475 6.2831853071796004 $184 $476 forward 7 unknown #
vertex $-1 $187 $477 #
ellipse-curve $-1 -36.823385654480909 -7.0087318714986111 6.329354303256741 -0.50000000669873634 0 0.8660253999169214 0.8660253999169214 0 0.50000000669873634 1 I I #
face $-1 $-1 $327 $41 $-1 $478 reversed single #
loop $-1 $-1 $479 $188 #
plane-surface $-1 0 0 11.297595954843136 0 0 1 1 0 0 forward_v I I I I #
coedge $-1 $480 $481 $482 $483 reversed $189 $-1 #
coedge $-1 $484 $191 $193 $325 forward $118 $-1 #
coedge $-1 $191 $484 $480 $485 forward $118 $-1 #
coedge $-1 $482 $194 $191 $322 forward $327 $-1 #
edge $-1 $329 -3.5043659357493055 $486 2.3521241217425946 $321 $487 forward 7 unknown #
coedge $-1 $488 $489 $192 $324 forward $316 $-1 #
edge $-1 $490 -17.210493926533374 $328 -3.0431443320821927e-007 $323 $491 forward 7 unknown #
edge $-1 $329 8.1518820400458524e-015 $490 19.872966340098071 $193 $492 forward 7 unknown #
coedge $-1 $194 $482 $488 $493 reversed $327 $-1 #
loop $-1 $-1 $482 $315 #
vertex $-1 $493 $494 #
vertex $-1 $195 $495 #
straight-curve $-1 -45.428632465590383 4.080486842752661 40.022905924526917 0 0 -1 I I #
coedge $-1 $331 $331 $-1 $496 reversed $198 $-1 #
edge $-1 $497 0 $497 6.2831853071796004 $199 $498 forward 7 unknown #
vertex $-1 $202 $499 #
ellipse-curve $-1 -36.823385654480909 1.152241814006711 6.329354303256741 -0.50000000669873634 0 0.8660253999169214 0.8660253999169214 0 0.50000000669873634 1 I I #
face $-1 $-1 $500 $43 $-1 $501 forward single #
loop $-1 $-1 $344 $203 #
plane-surface $-1 0 12.241460528257981 3.2085626069584237 0 1 0 0 0 1 forward_v I I I I #
coedge $-1 $209 $502 $503 $504 forward $204 $-1 #
coedge $-1 $340 $206 $208 $346 reversed $127 $-1 #
coedge $-1 $206 $339 $505 $506 reversed $127 $-1 #
coedge $-1 $502 $209 $206 $342 forward $204 $-1 #
edge $-1 $348 -38.661793272856571 $507 -28.725309969683781 $341 $508 forward 7 unknown #
coedge $-1 $208 $207 $509 $510 reversed $82 $-1 #
coedge $-1 $503 $511 $207 $345 forward $336 $-1 #
edge $-1 $512 0.26007095425761861 $347 20.133037294355681 $344 $513 forward 7 unknown #
edge $-1 $514 -19.872966340098071 $348 -8.1518820400458524e-015 $339 $515 forward 7 unknown #
vertex $-1 $210 $516 #
vertex $-1 $210 $517 #
straight-curve $-1 -45.428632465590383 4.6566077497560183 1.361112651670342 0 -1 0 I I #
coedge $-1 $350 $350 $-1 $518 reversed $213 $-1 #
edge $-1 $519 0 $519 6.2831853071796004 $214 $520 forward 7 unknown #
vertex $-1 $217 $521 #
ellipse-curve $-1 -36.823385654480909 9.3132154995120366 6.329354303256741 -0.50000000669873634 0 0.8660253999169214 0.8660253999169214 0 0.50000000669873634 1 I I #
face $-1 $-1 $366 $45 $-1 $522 reversed single #
loop $-1 $-1 $523 $218 #
plane-surface $-1 0 0 11.297595954843136 0 0 1 1 0 0 forward_v I I I I #
coedge $-1 $524 $525 $526 $527 reversed $219 $-1 #
coedge $-1 $528 $221 $223 $364 forward $136 $-1 #
coedge $-1 $221 $528 $524 $529 forward $136 $-1 #
coedge $-1 $526 $224 $221 $361 forward $366 $-1 #
edge $-1 $368 -2.3084124936857986 $530 4.1869019199929145 $360 $531 forward 7 unknown #
coedge $-1 $532 $533 $222 $363 forward $355 $-1 #
edge $-1 $534 21.452048672400515 $367 24.956461192735311 $362 $535 forward 7 unknown #
edge $-1 $368 -90.857264931180765 $534 -86.0655854075696 $223 $536 forward 7 unknown #
coedge $-1 $224 $526 $532 $537 reversed $366 $-1 #
loop $-1 $-1 $526 $354 #
vertex $-1 $537 $538 #
vertex $-1 $225 $539 #
straight-curve $-1 45.428632465590383 -1.3691677805322406 68.221490548950499 0 0 -1 I I #
coedge $-1 $370 $370 $-1 $540 reversed $228 $-1 #
edge $-1 $541 0 $541 6.2831853071796004 $229 $542 forward 7 unknown #
vertex $-1 $232 $543 #
ellipse-curve $-1 43.676426205422992 0.48663633766167891 9.663637146892686 0.68199836817093118 0 0.7313536940579346 0.3656768470289673 0 -0.34099918408546559 1 I I #
coedge $-1 $374 $374 $-1 $544 reversed $235 $-1 #
edge $-1 $545 0 $545 6.2831853071796004 $236 $546 forward 7 unknown #
vertex $-1 $239 $547 #
ellipse-curve $-1 43.676426205422992 3.2703425149525565 9.663637146892686 0.68199836817093118 0 0.7313536940579346 0.3656768470289673 0 -0.34099918408546559 1 I I #
face $-1 $-1 $255 $36 $-1 $548 reversed single #
loop $-1 $-1 $394 $240 #
plane-surface $-1 0 23.441213171840847 0 0 -1 0 0 0 -1 forward_v I I I I #
coedge $-1 $549 $392 $395 $550 forward $241 $-1 #
coedge $-1 $398 $243 $244 $386 reversed $150 $-1 #
coedge $-1 $392 $549 $243 $384 reversed $241 $-1 #
edge $-1 $399 -11.297595954843136 $551 11.297595954843136 $383 $552 forward 7 unknown #
coedge $-1 $245 $244 $549 $553 forward $97 $-1 #
edge $-1 $390 -45.428632465590383 $551 45.428632465590383 $382 $554 forward 7 unknown #
coedge $-1 $395 $394 $245 $388 reversed $379 $-1 #
edge $-1 $555 -45.428632465590383 $389 45.428632465590383 $387 $556 forward 7 unknown #
vertex $-1 $247 $557 #
vertex $-1 $401 $558 #
straight-curve $-1 45.428632465590383 0 -11.297595954843136 0 -1 0 I I #
coedge $-1 $381 $383 $248 $393 reversed $241 $-1 #
edge $-1 $396 -23.441213171840847 $399 23.441213171840847 $392 $559 forward 7 unknown #
coedge $-1 $387 $249 $254 $402 forward $379 $-1 #
coedge $-1 $249 $387 $381 $550 reversed $379 $-1 #
vertex $-1 $250 $560 #
straight-curve $-1 0 23.441213171840847 11.297595954843136 -1 0 0 I I #
coedge $-1 $251 $382 $253 $401 reversed $150 $-1 #
vertex $-1 $393 $561 #
straight-curve $-1 0 -23.441213171840847 11.297595954843136 1 0 0 I I #
edge $-1 $256 -11.297595954843136 $390 11.297595954843136 $253 $562 forward 7 unknown #
edge $-1 $257 -11.297595954843136 $389 11.297595954843136 $254 $563 forward 7 unknown #
point $-1 45.428632465590383 -23.441213171840847 11.297595954843136 #
point $-1 45.428632465590383 23.441213171840847 11.297595954843136 #
face $-1 $-1 $274 $37 $-1 $564 reversed single #
loop $-1 $-1 $270 $259 #
plane-surface $-1 0 -23.441213171840847 0 0 1 0 0 0 1 forward_v I I I I #
coedge $-1 $565 $566 $267 $418 forward $260 $-1 #
coedge $-1 $419 $262 $264 $414 reversed $158 $-1 #
edge $-1 $416 -0.89172646030434777 $275 4.1002890672627714 $273 $567 forward 7 unknown #
coedge $-1 $264 $263 $568 $569 reversed $101 $-1 #
coedge $-1 $423 $422 $263 $413 forward $406 $-1 #
edge $-1 $570 -45.428632465590383 $415 45.428632465590383 $412 $571 forward 7 unknown #
edge $-1 $572 -45.428632465590383 $416 45.428632465590383 $409 $573 forward 7 unknown #
vertex $-1 $413 $574 #
vertex $-1 $266 $575 #
straight-curve $-1 45.428632465590383 -8.9206684250247079 0.71255484317486406 0 1 0 I I #
edge $-1 $424 -14.520544746816139 $420 -3.320792103233277 $408 $576 forward 7 unknown #
coedge $-1 $268 $409 $565 $577 reversed $158 $-1 #
vertex $-1 $418 $578 #
straight-curve $-1 0 -12.241460528257985 5.7045703707419833 -1 0 0 I I #
coedge $-1 $412 $270 $566 $579 forward $406 $-1 #
coedge $-1 $270 $412 $272 $426 reversed $406 $-1 #
vertex $-1 $579 $580 #
straight-curve $-1 0 -23.441213171840847 5.7045703707419833 -1 0 0 I I #
edge $-1 $276 -5.7045703707419833 $415 -0.71255484317486406 $272 $581 forward 7 unknown #
point $-1 45.428632465590383 -12.241460528257985 5.7045703707419833 #
point $-1 45.428632465590383 -23.441213171840847 5.7045703707419833 #
face $-1 $-1 $446 $38 $-1 $582 reversed single #
loop $-1 $-1 $442 $278 #
plane-surface $-1 -45.428632465590383 0 0 1 0 0 0 0 -1 forward_v I I I I #
coedge $-1 $449 $281 $282 $436 reversed $166 $-1 #
coedge $-1 $442 $583 $281 $434 forward $430 $-1 #
edge $-1 $584 -0.89172646030434777 $450 4.1002890672627714 $433 $585 forward 7 unknown #
coedge $-1 $283 $282 $583 $586 reversed $105 $-1 #
edge $-1 $439 -45.428632465590383 $584 45.428632465590383 $432 $587 forward 7 unknown #
coedge $-1 $445 $444 $283 $438 forward $446 $-1 #
edge $-1 $440 -45.428632465590383 $588 45.428632465590383 $437 $589 forward 7 unknown #
vertex $-1 $285 $590 #
vertex $-1 $438 $591 #
straight-curve $-1 45.428632465590383 8.9206684250247061 0.71255484317486406 0 1 0 I I #
coedge $-1 $592 $433 $286 $443 forward $430 $-1 #
edge $-1 $450 3.3207921032332752 $447 14.520544746816137 $442 $593 forward 7 unknown #
coedge $-1 $437 $287 $292 $453 forward $446 $-1 #
coedge $-1 $287 $437 $592 $594 reversed $446 $-1 #
loop $-1 $-1 $287 $429 #
vertex $-1 $594 $595 #
straight-curve $-1 0 23.441213171840847 5.7045703707419833 1 0 0 I I #
coedge $-1 $289 $432 $291 $452 reversed $166 $-1 #
vertex $-1 $443 $596 #
straight-curve $-1 0 12.241460528257981 5.7045703707419833 1 0 0 I I #
edge $-1 $294 -4.1002890672627714 $439 0.89172646030434777 $291 $597 forward 7 unknown #
edge $-1 $293 -5.7045703707419833 $440 -0.71255484317486406 $292 $598 forward 7 unknown #
point $-1 45.428632465590383 23.441213171840843 5.7045703707419833 #
point $-1 45.428632465590383 12.241460528257981 5.7045703707419833 #
loop $-1 $-1 $304 $296 #
plane-surface $-1 0 0 11.297595954843136 0 0 1 1 0 0 forward_v I I I I #
coedge $-1 $459 $299 $301 $463 reversed $174 $-1 #
coedge $-1 $299 $458 $599 $600 reversed $174 $-1 #
coedge $-1 $307 $302 $299 $461 forward $297 $-1 #
edge $-1 $464 -38.661793272856571 $601 -28.725309969683781 $460 $602 forward 7 unknown #
coedge $-1 $301 $300 $467 $603 reversed $109 $-1 #
edge $-1 $604 -19.872966340098071 $464 -8.1518820400458524e-015 $458 $605 forward 7 unknown #
vertex $-1 $303 $606 #
straight-curve $-1 -45.428632465590383 -3.5043659357493073 1.361112651670342 0 -1 0 I I #
coedge $-1 $599 $304 $307 $471 forward $456 $-1 #
coedge $-1 $304 $599 $462 $603 forward $456 $-1 #
vertex $-1 $305 $607 #
straight-curve $-1 -45.428632769904816 -4.0804868427526646 11.297595954843139 -1 0 0 I I #
straight-curve $-1 -45.42863246559039 -4.0804868427526646 1.3611126516703393 0.8660253999169214 0 0.50000000669873634 I I #
edge $-1 $308 4.0804868427526646 $601 9.9369769002445647 $307 $608 forward 7 unknown #
point $-1 -45.428632465590383 -4.0804868427526646 11.297595954843136 #
point $-1 -45.428632465590383 -4.0804868427526646 1.3611126516703433 #
edge $-1 $609 1 $609 0 $311 $-1 forward 7 unknown #
vertex $-1 $312 $610 #
ellipse-curve $-1 -35.258869504488089 -7.0087318714986111 3.6195328906134634 -0.50000000669873634 0 0.8660253999169214 0.8660253999169214 0 0.50000000669873634 1 I I #
point $-1 -35.957360254563987 -7.0087318714986111 6.8293543099554697 #
plane-surface $-1 -45.428632465590383 0 0 1 0 0 0 0 -1 forward_v I I I I #
coedge $-1 $489 $488 $481 $611 forward $316 $-1 #
coedge $-1 $481 $318 $320 $485 reversed $189 $-1 #
coedge $-1 $318 $480 $479 $611 reversed $189 $-1 #
coedge $-1 $326 $321 $318 $483 forward $327 $-1 #
edge $-1 $486 -38.661793272856571 $612 -28.725309969683781 $482 $613 forward 7 unknown #
coedge $-1 $320 $319 $489 $614 reversed $118 $-1 #
edge $-1 $615 -19.872966340098071 $486 -8.1518820400458524e-015 $480 $616 forward 7 unknown #
vertex $-1 $322 $617 #
straight-curve $-1 -45.428632465590383 0.5761209070033555 1.361112651670342 0 -1 0 I I #
coedge $-1 $479 $323 $326 $493 forward $316 $-1 #
coedge $-1 $323 $479 $484 $614 forward $316 $-1 #
vertex $-1 $324 $618 #
straight-curve $-1 -45.428632769904816 4.080486842752661 11.297595954843139 -1 0 0 I I #
straight-curve $-1 -45.42863246559039 4.080486842752661 1.3611126516703393 0.8660253999169214 0 0.50000000669873634 I I #
edge $-1 $328 -4.080486842752661 $612 1.7760032147392391 $326 $619 forward 7 unknown #
point $-1 -45.428632465590383 4.080486842752661 11.297595954843136 #
point $-1 -45.428632465590383 4.080486842752661 1.3611126516703433 #
edge $-1 $620 1 $620 0 $331 $-1 forward 7 unknown #
vertex $-1 $332 $621 #
ellipse-curve $-1 -35.258869504488089 1.152241814006711 3.6195328906134634 -0.50000000669873634 0 0.8660253999169214 0.8660253999169214 0 0.50000000669873634 1 I I #
point $-1 -35.957360254563987 1.152241814006711 6.8293543099554697 #
loop $-1 $-1 $622 $335 #
plane-surface $-1 0 0 11.297595954843136 0 0 1 1 0 0 forward_v I I I I #
coedge $-1 $338 $341 $623 $624 reversed $204 $-1 #
coedge $-1 $511 $344 $338 $504 reversed $336 $-1 #
edge $-1 $625 28.725309969683781 $347 38.661793272856571 $338 $626 forward 7 unknown #
coedge $-1 $509 $623 $340 $506 forward $500 $-1 #
edge $-1 $507 3.0431443320821927e-007 $514 17.210493926533374 $505 $627 forward 7 unknown #
vertex $-1 $342 $628 #
straight-curve $-1 -45.428632465590383 6.3849704707660866 40.022905924526917 0 0 1 I I #
coedge $-1 $622 $505 $343 $510 forward $500 $-1 #
edge $-1 $514 1.7283627210100683 $512 7.5848527785019684 $509 $629 forward 7 unknown #
coedge $-1 $344 $503 $622 $630 reversed $336 $-1 #
vertex $-1 $630 $631 #
straight-curve $-1 -27.992910791203713 12.241460528257981 11.427631433714092 -0.8660253999169214 0 -0.50000000669873634 I I #
vertex $-1 $510 $632 #
straight-curve $-1 -45.42863246559039 6.3849704707660866 1.3611126516703393 -0.8660253999169214 0 -0.50000000669873634 I I #
point $-1 -45.428632465590383 12.241460528257987 1.3611126516703433 #
point $-1 -45.428632465590383 6.3849704707660866 1.3611126516703433 #
edge $-1 $633 1 $633 0 $350 $-1 forward 7 unknown #
vertex $-1 $351 $634 #
ellipse-curve $-1 -35.258869504488089 9.3132154995120366 3.6195328906134634 -0.50000000669873634 0 0.8660253999169214 0.8660253999169214 0 0.50000000669873634 1 I I #
point $-1 -35.957360254563987 9.3132154995120366 6.8293543099554697 #
plane-surface $-1 45.428632465590383 0 0 -1 0 0 0 0 1 forward_v I I I I #
coedge $-1 $533 $532 $525 $635 forward $355 $-1 #
coedge $-1 $525 $357 $359 $529 reversed $219 $-1 #
coedge $-1 $357 $524 $523 $635 reversed $219 $-1 #
coedge $-1 $365 $360 $357 $527 forward $366 $-1 #
edge $-1 $530 -60.191812210008244 $636 -56.923894594107367 $526 $637 forward 7 unknown #
coedge $-1 $359 $358 $533 $638 reversed $136 $-1 #
edge $-1 $639 86.0655854075696 $530 90.857264931180765 $524 $640 forward 7 unknown #
vertex $-1 $361 $641 #
straight-curve $-1 45.428632465590375 0.93924471315355795 8.0296783389422508 0 1 0 I I #
coedge $-1 $523 $362 $365 $537 forward $355 $-1 #
coedge $-1 $362 $523 $528 $638 forward $355 $-1 #
vertex $-1 $363 $642 #
straight-curve $-1 20.472171272855071 -1.3691677805322406 11.297595954843132 1 0 0 I I #
straight-curve $-1 -21.020163873829112 -1.3691677805322406 69.994184758481509 -0.7313536940579346 0 0.68199836817093118 I I #
edge $-1 $367 -1.3691677805322406 $636 5.1261466331464725 $365 $643 forward 7 unknown #
point $-1 45.428632465590383 -1.3691677805322406 11.297595954843136 #
point $-1 45.428632465590375 -1.3691677805322406 8.0296783389422544 #
edge $-1 $644 1 $644 0 $370 $-1 forward 7 unknown #
vertex $-1 $371 $645 #
ellipse-curve $-1 42.642303798044452 0.48663633766167891 8.5546766595344206 0.68199836817093118 0 0.7313536940579346 0.3656768470289673 0 -0.34099918408546559 1 I I #
point $-1 44.042103052451964 0.48663633766167891 9.3226379628072262 #
edge $-1 $646 1 $646 0 $374 $-1 forward 7 unknown #
vertex $-1 $375 $647 #
ellipse-curve $-1 42.642303798044452 3.2703425149525565 8.5546766595344206 0.68199836817093118 0 0.7313536940579346 0.3656768470289673 0 -0.34099918408546559 1 I I #
point $-1 44.042103052451964 3.2703425149525565 9.3226379628072262 #
plane-surface $-1 45.428632465590383 0 0 -1 0 0 0 0 1 forward_v I I I I #
coedge $-1 $383 $381 $385 $553 reversed $241 $-1 #
edge $-1 $396 -11.297595954843136 $555 11.297595954843136 $395 $648 forward 7 unknown #
vertex $-1 $553 $649 #
straight-curve $-1 -45.428632465590383 -23.441213171840847 0 0 0 -1 I I #
edge $-1 $551 -23.441213171840847 $555 23.441213171840847 $549 $650 forward 7 unknown #
straight-curve $-1 0 -23.441213171840847 -11.297595954843136 -1 0 0 I I #
vertex $-1 $388 $651 #
straight-curve $-1 0 23.441213171840847 -11.297595954843136 1 0 0 I I #
point $-1 45.428632465590383 23.441213171840847 -11.297595954843136 #
point $-1 45.428632465590383 -23.441213171840847 -11.297595954843136 #
straight-curve $-1 -45.428632465590383 0 11.297595954843136 0 -1 0 I I #
point $-1 -45.428632465590383 23.441213171840847 11.297595954843136 #
point $-1 -45.428632465590383 -23.441213171840847 11.297595954843136 #
straight-curve $-1 45.428632465590383 -23.441213171840847 0 0 0 -1 I I #
straight-curve $-1 45.428632465590383 23.441213171840847 0 0 0 -1 I I #
plane-surface $-1 45.428632465590383 0 0 -1 0 0 0 0 1 forward_v I I I I #
coedge $-1 $568 $408 $419 $577 forward $260 $-1 #
coedge $-1 $408 $568 $422 $579 reversed $260 $-1 #
straight-curve $-1 45.428632465590383 -12.241460528257985 1.6042813034792118 0 0 1 I I #
coedge $-1 $566 $565 $411 $569 forward $260 $-1 #
edge $-1 $572 3.320792103233277 $570 14.520544746816139 $568 $652 forward 7 unknown #
vertex $-1 $413 $653 #
straight-curve $-1 0 -23.441213171840847 0.71255484317486406 1 0 0 I I #
vertex $-1 $569 $654 #
straight-curve $-1 0 -12.241460528257985 0.71255484317486406 1 0 0 I I #
point $-1 45.428632465590383 -23.441213171840847 0.71255484317486406 #
point $-1 45.428632465590383 -12.241460528257985 0.71255484317486406 #
straight-curve $-1 -45.428632465590383 -8.9206684250247079 5.7045703707419833 0 1 0 I I #
edge $-1 $420 -4.1002890672627714 $572 0.89172646030434777 $565 $655 forward 7 unknown #
point $-1 -45.428632465590383 -12.241460528257985 5.7045703707419833 #
edge $-1 $424 -5.7045703707419833 $570 -0.71255484317486406 $566 $656 forward 7 unknown #
point $-1 -45.428632465590383 -23.441213171840847 5.7045703707419833 #
straight-curve $-1 45.428632465590383 -23.441213171840847 0 0 0 -1 I I #
plane-surface $-1 0 23.441213171840847 0 0 -1 0 0 0 -1 forward_v I I I I #
coedge $-1 $433 $592 $435 $586 forward $430 $-1 #
vertex $-1 $586 $657 #
straight-curve $-1 -45.428632465590383 12.241460528257981 1.6042813034792118 0 0 1 I I #
edge $-1 $588 -14.520544746816137 $584 -3.3207921032332752 $583 $658 forward 7 unknown #
straight-curve $-1 0 12.241460528257981 0.71255484317486406 -1 0 0 I I #
vertex $-1 $438 $659 #
straight-curve $-1 0 23.441213171840847 0.71255484317486406 -1 0 0 I I #
point $-1 45.428632465590383 12.241460528257981 0.71255484317486406 #
point $-1 45.428632465590383 23.441213171840843 0.71255484317486406 #
coedge $-1 $583 $442 $445 $594 forward $430 $-1 #
straight-curve $-1 -45.428632465590383 8.9206684250247061 5.7045703707419833 0 1 0 I I #
edge $-1 $447 -5.7045703707419833 $588 -0.71255484317486406 $445 $660 forward 7 unknown #
point $-1 -45.428632465590383 23.441213171840843 5.7045703707419833 #
point $-1 -45.428632465590383 12.241460528257981 5.7045703707419833 #
straight-curve $-1 45.428632465590383 12.241460528257981 1.6042813034792118 0 0 -1 I I #
straight-curve $-1 45.428632465590383 23.441213171840847 0 0 0 -1 I I #
coedge $-1 $467 $466 $459 $600 forward $456 $-1 #
edge $-1 $601 3.0431443320821927e-007 $604 17.210493926533374 $599 $661 forward 7 unknown #
vertex $-1 $600 $662 #
straight-curve $-1 -45.428632465590383 -9.9369769002445647 40.022905924526917 0 0 1 I I #
edge $-1 $604 -6.4326109644952574 $468 -0.57612090700335727 $467 $663 forward 7 unknown #
vertex $-1 $603 $664 #
straight-curve $-1 -45.42863246559039 -9.9369769002445647 1.3611126516703393 -0.8660253999169214 0 -0.50000000669873634 I I #
point $-1 -45.428632465590383 -9.9369769002445647 1.3611126516703433 #
point $-1 -28.218138843371442 -4.0804868427526646 11.297595954843136 #
straight-curve $-1 -45.428632465590383 0 11.297595954843136 0 -1 0 I I #
vertex $-1 $474 $665 #
point $-1 -34.392844104571168 -7.0087318714986111 4.1195328973122001 #
edge $-1 $612 3.0431443320821927e-007 $615 17.210493926533374 $479 $666 forward 7 unknown #
vertex $-1 $611 $667 #
straight-curve $-1 -45.428632465590383 -1.7760032147392391 40.022905924526917 0 0 1 I I #
edge $-1 $615 -2.3521241217425946 $490 3.5043659357493055 $489 $668 forward 7 unknown #
vertex $-1 $614 $669 #
straight-curve $-1 -45.42863246559039 -1.7760032147392391 1.3611126516703393 -0.8660253999169214 0 -0.50000000669873634 I I #
point $-1 -45.428632465590383 -1.7760032147392391 1.3611126516703433 #
point $-1 -28.218138843371442 4.080486842752661 11.297595954843136 #
straight-curve $-1 -45.428632465590383 0 11.297595954843136 0 -1 0 I I #
vertex $-1 $496 $670 #
point $-1 -34.392844104571168 1.152241814006711 4.1195328973122001 #
coedge $-1 $623 $509 $511 $630 forward $500 $-1 #
coedge $-1 $505 $622 $502 $624 forward $500 $-1 #
edge $-1 $625 -12.241460528257987 $507 -6.3849704707660866 $502 $671 forward 7 unknown #
vertex $-1 $624 $672 #
straight-curve $-1 -45.428632465590383 12.241460528257987 40.022905924526917 0 0 -1 I I #
straight-curve $-1 -45.428632769904816 6.3849704707660866 11.297595954843139 1 0 0 I I #
point $-1 -45.428632465590383 6.3849704707660866 11.297595954843136 #
straight-curve $-1 -28.218138843371442 4.6566077497560183 11.297595954843136 0 1 0 I I #
edge $-1 $512 -17.210493926533374 $625 -3.0431443320821927e-007 $622 $673 forward 7 unknown #
point $-1 -28.218138843371442 12.241460528257987 11.297595954843136 #
point $-1 -28.218138843371442 6.3849704707660866 11.297595954843136 #
vertex $-1 $518 $674 #
point $-1 -34.392844104571168 9.3132154995120366 4.1195328973122001 #
edge $-1 $636 -24.956461192735311 $639 -21.452048672400515 $523 $675 forward 7 unknown #
vertex $-1 $527 $676 #
straight-curve $-1 45.428632465590383 5.1261466331464725 68.221490548950499 0 0 1 I I #
edge $-1 $639 -4.1869019199929145 $534 2.3084124936857986 $533 $677 forward 7 unknown #
vertex $-1 $638 $678 #
straight-curve $-1 -21.020163873829112 5.1261466331464725 69.994184758481509 0.7313536940579346 0 -0.68199836817093118 I I #
point $-1 45.428632465590375 5.1261466331464725 8.0296783389422544 #
point $-1 41.924219945255587 -1.3691677805322406 11.297595954843132 #
straight-curve $-1 45.428632465590383 0 11.297595954843136 0 1 0 I I #
vertex $-1 $540 $679 #
point $-1 43.007980645073424 0.48663633766167891 8.2136774754489537 #
vertex $-1 $544 $680 #
point $-1 43.007980645073424 3.2703425149525565 8.2136774754489537 #
straight-curve $-1 -45.428632465590383 23.441213171840847 0 0 0 -1 I I #
point $-1 -45.428632465590383 -23.441213171840847 -11.297595954843136 #
straight-curve $-1 -45.428632465590383 0 -11.297595954843136 0 1 0 I I #
point $-1 -45.428632465590383 23.441213171840847 -11.297595954843136 #
straight-curve $-1 -45.428632465590383 -8.9206684250247079 0.71255484317486406 0 -1 0 I I #
point $-1 -45.428632465590383 -23.441213171840847 0.71255484317486406 #
point $-1 -45.428632465590383 -12.241460528257985 0.71255484317486406 #
straight-curve $-1 -45.428632465590383 -12.241460528257985 1.6042813034792118 0 0 -1 I I #
straight-curve $-1 -45.428632465590383 -23.441213171840847 0 0 0 -1 I I #
point $-1 -45.428632465590383 12.241460528257981 0.71255484317486406 #
straight-curve $-1 -45.428632465590383 8.9206684250247061 0.71255484317486406 0 -1 0 I I #
point $-1 -45.428632465590383 23.441213171840843 0.71255484317486406 #
straight-curve $-1 -45.428632465590383 23.441213171840847 0 0 0 -1 I I #
straight-curve $-1 -45.428632769904816 -9.9369769002445647 11.297595954843139 1 0 0 I I #
point $-1 -45.428632465590383 -9.9369769002445647 11.297595954843136 #
straight-curve $-1 -28.218138843371442 -3.5043659357493073 11.297595954843136 0 1 0 I I #
point $-1 -28.218138843371442 -9.9369769002445647 11.297595954843136 #
point $-1 -34.758869497789348 -7.0087318714986111 2.753507490696542 #
straight-curve $-1 -45.428632769904816 -1.7760032147392391 11.297595954843139 1 0 0 I I #
point $-1 -45.428632465590383 -1.7760032147392391 11.297595954843136 #
straight-curve $-1 -28.218138843371442 0.5761209070033555 11.297595954843136 0 1 0 I I #
point $-1 -28.218138843371442 -1.7760032147392391 11.297595954843136 #
point $-1 -34.758869497789348 1.152241814006711 2.753507490696542 #
straight-curve $-1 -45.428632465590383 0 11.297595954843136 0 -1 0 I I #
point $-1 -45.428632465590383 12.241460528257987 11.297595954843136 #
straight-curve $-1 -45.428632769904816 12.241460528257987 11.297595954843139 -1 0 0 I I #
point $-1 -34.758869497789348 9.3132154995120366 2.753507490696542 #
straight-curve $-1 20.472171272855071 5.1261466331464725 11.297595954843132 -1 0 0 I I #
point $-1 45.428632465590383 5.1261466331464725 11.297595954843136 #
straight-curve $-1 41.924219945255587 0.93924471315355795 11.297595954843139 0 -1 0 I I #
point $-1 41.924219945255587 5.1261466331464725 11.297595954843132 #
point $-1 42.30130461395899 0.48663633766167891 8.1889998125054522 #
point $-1 42.30130461395899 3.2703425149525565 8.1889998125054522 #
End-of-ACIS-data 