500 0 9 0           
7 Unknown 11 ACIS 5.0 NT 24 Fri Mar 26 18:50:29 1999 
-1 9.9999999999999995e-007 1e-010 
body $-1 $9 $-1 $10 #
body $-1 $11 $-1 $12 #
body $-1 $13 $-1 $14 #
body $-1 $15 $-1 $16 #
body $-1 $17 $-1 $18 #
body $-1 $19 $-1 $20 #
body $-1 $21 $-1 $22 #
body $-1 $23 $-1 $24 #
body $-1 $25 $-1 $26 #
lump $-1 $-1 $27 $0 #
transform $-1 1 0 0 0 1 0 0 0 1 60.784325693533127 40.955171586172561 19.724651579898918 1 rotate no_reflect no_shear #
lump $-1 $-1 $28 $1 #
transform $-1 1 0 0 0 1 0 0 0 1 60.784325693533127 40.955171586172561 19.724651579898918 1 rotate no_reflect no_shear #
lump $-1 $-1 $29 $2 #
transform $-1 1 0 0 0 1 0 0 0 1 60.784325693533127 40.955171586172561 19.724651579898918 1 rotate no_reflect no_shear #
lump $-1 $-1 $30 $3 #
transform $-1 1 0 0 0 1 0 0 0 1 60.784325693533127 40.955171586172561 19.724651579898918 1 rotate no_reflect no_shear #
lump $-1 $-1 $31 $4 #
transform $-1 1 0 0 0 1 0 0 0 1 60.784325693533127 40.955171586172561 19.724651579898918 1 rotate no_reflect no_shear #
lump $-1 $-1 $32 $5 #
transform $-1 1 0 0 0 1 0 0 0 1 60.784325693533127 40.955171586172561 19.724651579898918 1 rotate no_reflect no_shear #
lump $-1 $-1 $33 $6 #
transform $-1 1 0 0 0 1 0 0 0 1 60.784325693533127 40.955171586172561 19.724651579898918 1 rotate no_reflect no_shear #
lump $-1 $-1 $34 $7 #
transform $-1 1 0 0 0 1 0 0 0 1 60.784325693533127 40.955171586172561 19.724651579898918 1 rotate no_reflect no_shear #
lump $-1 $-1 $35 $8 #
transform $-1 1 0 0 0 1 0 0 0 1 60.784325693533127 40.955171586172561 19.724651579898918 1 rotate no_reflect no_shear #
shell $-1 $-1 $-1 $36 $-1 $9 #
shell $-1 $-1 $-1 $37 $-1 $11 #
shell $-1 $-1 $-1 $38 $-1 $13 #
shell $-1 $-1 $-1 $39 $-1 $15 #
shell $-1 $-1 $-1 $40 $-1 $17 #
shell $-1 $-1 $-1 $41 $-1 $19 #
shell $-1 $-1 $-1 $42 $-1 $21 #
shell $-1 $-1 $-1 $43 $-1 $23 #
shell $-1 $-1 $-1 $44 $-1 $25 #
face $-1 $45 $46 $27 $-1 $47 forward single #
face $-1 $48 $49 $28 $-1 $50 forward single #
face $-1 $51 $52 $29 $-1 $53 reversed single #
face $-1 $54 $55 $30 $-1 $56 forward single #
face $-1 $57 $58 $31 $-1 $59 forward single #
face $-1 $60 $61 $32 $-1 $62 reversed single #
face $-1 $63 $64 $33 $-1 $65 forward single #
face $-1 $66 $67 $34 $-1 $68 forward single #
face $-1 $69 $70 $35 $-1 $71 forward single #
face $-1 $72 $73 $27 $-1 $74 reversed single #
loop $-1 $-1 $75 $36 #
plane-surface $-1 0 0 19.724651579898918 0 0 1 1 0 0 forward_v I I I I #
face $-1 $76 $77 $28 $-1 $78 reversed single #
loop $-1 $-1 $79 $37 #
plane-surface $-1 0 -34.050923507232802 13.518494326917773 0 0 1 1 0 0 forward_v I I I I #
face $-1 $80 $81 $29 $-1 $82 reversed single #
loop $-1 $-1 $83 $38 #
plane-surface $-1 -37.566778598587028 -17.609153810292252 73.171243770053792 0.5877852598018023 0 0.80901698891910034 0.80901698891910034 0 -0.5877852598018023 forward_v I I I I #
face $-1 $84 $85 $30 $-1 $86 forward single #
loop $-1 $87 $88 $39 #
cone-surface $-1 47.267743429111164 -21.696663075149736 9.1748407157167762 -0.5877852598018023 0 -0.80901698891910034 1.6180339778382007 0 -1.1755705196036046 1 I I 0 1 2 forward I I I I #
face $-1 $89 $90 $31 $-1 $91 forward single #
loop $-1 $92 $93 $40 #
cone-surface $-1 47.267743429111164 -13.521644545434771 9.1748407157167762 -0.5877852598018023 0 -0.80901698891910034 1.6180339778382007 0 -1.1755705196036046 1 I I 0 1 2 forward I I I I #
face $-1 $94 $95 $32 $-1 $96 reversed single #
loop $-1 $-1 $97 $41 #
plane-surface $-1 -151.12744091883064 -11.282293322939569 87.535063804042622 0 -1 0 0.74314483375859142 0 -0.66913059716165679 forward_v I I I I #
face $-1 $98 $99 $33 $-1 $100 forward single #
loop $-1 $101 $102 $42 #
cone-surface $-1 -52.573158620076498 -23.97379900722235 11.05039163353598 0.74314483375859142 0 -0.66913059716165679 1.0036958957424851 0 1.1147172506378871 1 I I 0 1 1.5 forward I I I I #
face $-1 $103 $104 $34 $-1 $105 forward single #
loop $-1 $106 $107 $43 #
cone-surface $-1 -52.573158620076498 -19.214484375616308 11.05039163353598 0.74314483375859142 0 -0.66913059716165679 1.0036958957424851 0 1.1147172506378871 1 I I 0 1 1.5 forward I I I I #
face $-1 $108 $109 $35 $-1 $110 forward single #
loop $-1 $111 $112 $44 #
cone-surface $-1 -52.573158620076498 -14.455169744010266 11.05039163353598 0.74314483375859142 0 -0.66913059716165679 1.0036958957424851 0 1.1147172506378871 1 I I 0 1 1.5 forward I I I I #
face $-1 $113 $114 $27 $-1 $115 reversed single #
loop $-1 $-1 $116 $45 #
plane-surface $-1 0 0 -19.724651579898918 0 0 1 1 0 0 forward_v I I I I #
coedge $-1 $117 $118 $119 $120 forward $46 $-1 #
face $-1 $121 $122 $28 $-1 $123 reversed single #
loop $-1 $-1 $124 $48 #
plane-surface $-1 0 -34.050923507232802 4.3306725225415068 0 0 1 1 0 0 forward_v I I I I #
coedge $-1 $125 $126 $127 $128 reversed $49 $-1 #
face $-1 $129 $130 $29 $-1 $131 forward single #
loop $-1 $-1 $132 $51 #
plane-surface $-1 33.889482740714435 -8.0716321922914602 171.52234806217393 0 -1 0 -0.5877852598018023 0 -0.80901698891910034 forward_v I I I I #
coedge $-1 $133 $134 $135 $136 reversed $52 $-1 #
face $-1 $-1 $137 $30 $-1 $138 forward single #
loop $-1 $139 $140 $54 #
cone-surface $-1 45.557467168238226 -21.696663075149736 6.8208474371888386 -0.5877852598018023 0 -0.80901698891910034 0.80901698891910034 0 -0.5877852598018023 1 I I -0.70710678118654779 0.70710678118654713 1 forward I I I I #
loop $-1 $-1 $141 $39 #
coedge $-1 $88 $88 $142 $143 reversed $55 $-1 #
face $-1 $-1 $144 $31 $-1 $145 forward single #
loop $-1 $146 $147 $57 #
cone-surface $-1 45.557467168238226 -13.521644545434771 6.8208474371888386 -0.5877852598018023 0 -0.80901698891910034 0.80901698891910034 0 -0.5877852598018023 1 I I -0.70710678118654779 0.70710678118654713 1 forward I I I I #
loop $-1 $-1 $148 $40 #
coedge $-1 $93 $93 $149 $150 reversed $58 $-1 #
face $-1 $151 $152 $32 $-1 $153 forward single #
loop $-1 $-1 $154 $60 #
plane-surface $-1 -60.784325693533134 -19.214484375616308 6.1897595052776921 -0.74314483375859142 0 0.66913059716165679 0.66913059716165679 0 0.74314483375859142 forward_v I I I I #
coedge $-1 $155 $156 $157 $158 reversed $61 $-1 #
face $-1 $-1 $159 $33 $-1 $160 forward single #
loop $-1 $161 $162 $63 #
cone-surface $-1 -49.898068551206606 -23.97379900722235 8.6417297766124115 0.74314483375859142 0 -0.66913059716165679 0.50184794787124254 0 0.55735862531894353 1 I I -0.70710678118654757 0.70710678118654757 0.75 forward I I I I #
loop $-1 $-1 $163 $42 #
coedge $-1 $102 $102 $164 $165 reversed $64 $-1 #
face $-1 $-1 $166 $34 $-1 $167 forward single #
loop $-1 $168 $169 $66 #
cone-surface $-1 -49.898068551206606 -19.214484375616308 8.6417297766124115 0.74314483375859142 0 -0.66913059716165679 0.50184794787124254 0 0.55735862531894353 1 I I -0.70710678118654757 0.70710678118654757 0.75 forward I I I I #
loop $-1 $-1 $170 $43 #
coedge $-1 $107 $107 $171 $172 reversed $67 $-1 #
face $-1 $-1 $173 $35 $-1 $174 forward single #
loop $-1 $175 $176 $69 #
cone-surface $-1 -49.898068551206606 -14.455169744010266 8.6417297766124115 0.74314483375859142 0 -0.66913059716165679 0.50184794787124254 0 0.55735862531894353 1 I I -0.70710678118654757 0.70710678118654757 0.75 forward I I I I #
loop $-1 $-1 $177 $44 #
coedge $-1 $112 $112 $178 $179 reversed $70 $-1 #
face $-1 $180 $181 $27 $-1 $182 reversed single #
loop $-1 $-1 $183 $72 #
plane-surface $-1 0 -40.955171586172561 0 0 1 0 0 0 1 forward_v I I I I #
coedge $-1 $184 $185 $186 $187 forward $73 $-1 #
coedge $-1 $188 $75 $189 $190 forward $46 $-1 #
coedge $-1 $75 $188 $191 $192 forward $46 $-1 #
coedge $-1 $193 $194 $75 $120 reversed $195 $-1 #
edge $-1 $196 -40.955171586172561 $197 40.955171586172561 $119 $198 forward 7 unknown #
face $-1 $199 $200 $28 $-1 $201 reversed single #
loop $-1 $-1 $202 $76 #
plane-surface $-1 0 -27.146675428293044 8.9245834247296401 0 -1 0 0 0 -1 forward_v I I I I #
coedge $-1 $203 $204 $205 $206 reversed $77 $-1 #
coedge $-1 $207 $79 $202 $208 forward $49 $-1 #
coedge $-1 $79 $207 $209 $210 reversed $49 $-1 #
coedge $-1 $211 $212 $79 $128 forward $213 $-1 #
edge $-1 $214 10.121213674676643 $215 23.92970983255616 $127 $216 forward 7 unknown #
face $-1 $217 $218 $29 $-1 $219 reversed single #
loop $-1 $-1 $220 $80 #
plane-surface $-1 0 -27.146675428293044 8.9245834247296401 0 -1 0 0 0 -1 forward_v I I I I #
coedge $-1 $221 $222 $223 $224 reversed $81 $-1 #
coedge $-1 $225 $83 $220 $226 forward $52 $-1 #
coedge $-1 $83 $225 $221 $227 forward $52 $-1 #
coedge $-1 $223 $228 $83 $136 forward $218 $-1 #
edge $-1 $229 -18.342098523146916 $230 0.73294471285466578 $135 $231 forward 7 unknown #
loop $-1 $-1 $142 $84 #
plane-surface $-1 -37.566778598587028 -17.609153810292252 73.171243770053792 0.5877852598018023 0 0.80901698891910034 0.80901698891910034 0 -0.5877852598018023 forward_v I I I I #
loop $-1 $-1 $232 $54 #
coedge $-1 $140 $140 $141 $233 reversed $85 $-1 #
coedge $-1 $141 $141 $140 $233 forward $87 $-1 #
coedge $-1 $142 $142 $88 $143 forward $137 $-1 #
edge $-1 $234 0 $234 6.2831853071796004 $142 $235 forward 7 unknown #
loop $-1 $-1 $149 $89 #
plane-surface $-1 -37.566778598587028 -17.609153810292252 73.171243770053792 0.5877852598018023 0 0.80901698891910034 0.80901698891910034 0 -0.5877852598018023 forward_v I I I I #
loop $-1 $-1 $236 $57 #
coedge $-1 $147 $147 $148 $237 reversed $90 $-1 #
coedge $-1 $148 $148 $147 $237 forward $92 $-1 #
coedge $-1 $149 $149 $93 $150 forward $144 $-1 #
edge $-1 $238 0 $238 6.2831853071796004 $149 $239 forward 7 unknown #
face $-1 $240 $241 $32 $-1 $242 forward single #
loop $-1 $-1 $243 $94 #
plane-surface $-1 0 0 19.724651579898918 0 0 1 1 0 0 forward_v I I I I #
coedge $-1 $244 $245 $246 $247 reversed $95 $-1 #
coedge $-1 $156 $97 $248 $249 reversed $61 $-1 #
coedge $-1 $97 $155 $244 $250 reversed $61 $-1 #
coedge $-1 $246 $251 $97 $158 forward $252 $-1 #
edge $-1 $253 24.042880322122393 $254 37.577772396743612 $157 $255 forward 7 unknown #
loop $-1 $-1 $164 $98 #
plane-surface $-1 -60.784325693533134 -19.214484375616308 6.1897595052776921 -0.74314483375859142 0 0.66913059716165679 0.66913059716165679 0 0.74314483375859142 forward_v I I I I #
loop $-1 $-1 $256 $63 #
coedge $-1 $162 $162 $163 $257 reversed $99 $-1 #
coedge $-1 $163 $163 $162 $257 forward $101 $-1 #
coedge $-1 $164 $164 $102 $165 forward $159 $-1 #
edge $-1 $258 0 $258 6.2831853071796004 $164 $259 forward 7 unknown #
loop $-1 $-1 $171 $103 #
plane-surface $-1 -60.784325693533134 -19.214484375616308 6.1897595052776921 -0.74314483375859142 0 0.66913059716165679 0.66913059716165679 0 0.74314483375859142 forward_v I I I I #
loop $-1 $-1 $260 $66 #
coedge $-1 $169 $169 $170 $261 reversed $104 $-1 #
coedge $-1 $170 $170 $169 $261 forward $106 $-1 #
coedge $-1 $171 $171 $107 $172 forward $166 $-1 #
edge $-1 $262 0 $262 6.2831853071796004 $171 $263 forward 7 unknown #
loop $-1 $-1 $178 $108 #
plane-surface $-1 -60.784325693533134 -19.214484375616308 6.1897595052776921 -0.74314483375859142 0 0.66913059716165679 0.66913059716165679 0 0.74314483375859142 forward_v I I I I #
loop $-1 $-1 $264 $69 #
coedge $-1 $176 $176 $177 $265 reversed $109 $-1 #
coedge $-1 $177 $177 $176 $265 forward $111 $-1 #
coedge $-1 $178 $178 $112 $179 forward $173 $-1 #
edge $-1 $266 0 $266 6.2831853071796004 $178 $267 forward 7 unknown #
face $-1 $268 $269 $27 $-1 $270 reversed single #
loop $-1 $-1 $271 $113 #
plane-surface $-1 -60.784325693533127 0 0 1 0 0 0 0 -1 forward_v I I I I #
coedge $-1 $272 $191 $273 $274 forward $114 $-1 #
coedge $-1 $275 $116 $272 $276 forward $73 $-1 #
coedge $-1 $116 $275 $277 $278 forward $73 $-1 #
coedge $-1 $194 $193 $116 $187 reversed $195 $-1 #
edge $-1 $279 -40.955171586172561 $280 40.955171586172561 $186 $281 forward 7 unknown #
coedge $-1 $118 $117 $282 $283 forward $46 $-1 #
coedge $-1 $284 $285 $117 $190 reversed $269 $-1 #
edge $-1 $197 -60.784325693533127 $286 60.784325693533127 $189 $287 forward 7 unknown #
coedge $-1 $183 $288 $118 $192 reversed $114 $-1 #
edge $-1 $289 -60.784325693533127 $196 60.784325693533127 $191 $290 forward 7 unknown #
coedge $-1 $186 $119 $288 $291 forward $195 $-1 #
coedge $-1 $119 $186 $284 $292 reversed $195 $-1 #
loop $-1 $-1 $193 $268 #
vertex $-1 $120 $293 #
vertex $-1 $120 $294 #
straight-curve $-1 60.784325693533127 0 19.724651579898918 0 1 0 I I #
face $-1 $295 $296 $28 $-1 $297 reversed single #
loop $-1 $-1 $298 $121 #
plane-surface $-1 -60.784325693533127 0 0 1 0 0 0 0 -1 forward_v I I I I #
coedge $-1 $299 $300 $125 $208 reversed $122 $-1 #
coedge $-1 $301 $124 $302 $303 reversed $77 $-1 #
coedge $-1 $124 $301 $304 $305 forward $77 $-1 #
coedge $-1 $212 $211 $124 $206 forward $213 $-1 #
edge $-1 $306 -23.92970983255616 $307 -10.121213674676643 $205 $308 forward 7 unknown #
coedge $-1 $126 $125 $298 $309 reversed $49 $-1 #
edge $-1 $214 -60.784325693533127 $310 60.784325693533127 $202 $311 forward 7 unknown #
coedge $-1 $312 $313 $126 $210 forward $296 $-1 #
edge $-1 $215 -60.784325693533127 $314 60.784325693533127 $209 $315 forward 7 unknown #
coedge $-1 $205 $127 $313 $316 forward $213 $-1 #
coedge $-1 $127 $205 $299 $317 forward $213 $-1 #
loop $-1 $-1 $127 $295 #
vertex $-1 $128 $318 #
vertex $-1 $316 $319 #
straight-curve $-1 60.784325693533127 -17.025461753616401 13.518494326917773 0 -1 0 I I #
face $-1 $-1 $320 $29 $-1 $321 forward single #
loop $-1 $-1 $228 $129 #
plane-surface $-1 60.784325693533127 0 0 -1 0 0 0 0 1 forward_v I I I I #
coedge $-1 $322 $323 $133 $226 reversed $130 $-1 #
coedge $-1 $222 $132 $134 $227 reversed $81 $-1 #
coedge $-1 $132 $221 $324 $325 reversed $81 $-1 #
coedge $-1 $326 $135 $132 $224 forward $218 $-1 #
edge $-1 $230 -84.046191600334652 $327 -66.036522451188048 $223 $328 forward 7 unknown #
coedge $-1 $134 $133 $329 $330 reversed $52 $-1 #
edge $-1 $229 -121.56865138706625 $331 -90.928772538761422 $220 $332 forward 7 unknown #
edge $-1 $333 90.928772538761422 $230 121.56865138706625 $221 $334 forward 7 unknown #
coedge $-1 $135 $326 $322 $335 forward $218 $-1 #
vertex $-1 $136 $336 #
vertex $-1 $136 $337 #
straight-curve $-1 60.784325693533127 -8.804576905146126 1.7149824307523218 0 1 0 I I #
coedge $-1 $232 $232 $-1 $338 reversed $139 $-1 #
edge $-1 $339 0 $339 6.2831853071796004 $140 $340 forward 7 unknown #
vertex $-1 $143 $341 #
ellipse-curve $-1 48.390234430182304 -21.696663075149736 10.719817005325625 0.5877852598018023 0 0.80901698891910034 1.6180339778382007 0 -1.1755705196036046 1 I I #
coedge $-1 $236 $236 $-1 $342 reversed $146 $-1 #
edge $-1 $343 0 $343 6.2831853071796004 $147 $344 forward 7 unknown #
vertex $-1 $150 $345 #
ellipse-curve $-1 48.390234430182304 -13.521644545434771 10.719817005325625 0.5877852598018023 0 0.80901698891910034 1.6180339778382007 0 -1.1755705196036046 1 I I #
face $-1 $-1 $252 $32 $-1 $346 reversed single #
loop $-1 $-1 $347 $151 #
plane-surface $-1 0 -27.146675428293044 8.9245834247296401 0 -1 0 0 0 -1 forward_v I I I I #
coedge $-1 $348 $349 $350 $351 forward $152 $-1 #
coedge $-1 $352 $154 $156 $250 forward $95 $-1 #
coedge $-1 $154 $352 $347 $353 forward $95 $-1 #
coedge $-1 $354 $157 $154 $247 forward $252 $-1 #
edge $-1 $254 1.6750511351314152 $355 17.53943324048489 $246 $356 forward 7 unknown #
coedge $-1 $349 $348 $155 $249 forward $152 $-1 #
edge $-1 $357 -26.966266025693557 $253 -14.779394765882195 $248 $358 forward 7 unknown #
edge $-1 $254 1.0694865687384493e-014 $357 18.212993564344679 $156 $359 forward 7 unknown #
coedge $-1 $157 $354 $349 $360 reversed $252 $-1 #
loop $-1 $-1 $354 $240 #
vertex $-1 $360 $361 #
vertex $-1 $158 $362 #
straight-curve $-1 -60.784325693533127 -11.282293322939569 43.767531902021311 0 0 -1 I I #
coedge $-1 $256 $256 $-1 $363 reversed $161 $-1 #
edge $-1 $364 0 $364 6.2831853071796004 $162 $365 forward 7 unknown #
vertex $-1 $165 $366 #
ellipse-curve $-1 -54.690890063627442 -23.97379900722235 12.957205542588309 -0.74314483375859142 0 0.66913059716165679 1.0036958957424851 0 1.1147172506378871 1 I I #
coedge $-1 $260 $260 $-1 $367 reversed $168 $-1 #
edge $-1 $368 0 $368 6.2831853071796004 $169 $369 forward 7 unknown #
vertex $-1 $172 $370 #
ellipse-curve $-1 -54.690890063627442 -19.214484375616308 12.957205542588309 -0.74314483375859142 0 0.66913059716165679 1.0036958957424851 0 1.1147172506378871 1 I I #
coedge $-1 $264 $264 $-1 $371 reversed $175 $-1 #
edge $-1 $372 0 $372 6.2831853071796004 $176 $373 forward 7 unknown #
vertex $-1 $179 $374 #
ellipse-curve $-1 -54.690890063627442 -14.455169744010266 12.957205542588309 -0.74314483375859142 0 0.66913059716165679 1.0036958957424851 0 1.1147172506378871 1 I I #
face $-1 $-1 $195 $27 $-1 $375 reversed single #
loop $-1 $-1 $284 $180 #
plane-surface $-1 0 40.955171586172561 0 0 -1 0 0 0 -1 forward_v I I I I #
coedge $-1 $376 $282 $285 $377 forward $181 $-1 #
coedge $-1 $288 $183 $184 $276 reversed $114 $-1 #
coedge $-1 $282 $376 $183 $274 reversed $181 $-1 #
edge $-1 $289 -19.724651579898918 $378 19.724651579898918 $273 $379 forward 7 unknown #
coedge $-1 $185 $184 $376 $380 forward $73 $-1 #
edge $-1 $280 -60.784325693533127 $378 60.784325693533127 $272 $381 forward 7 unknown #
coedge $-1 $285 $284 $185 $278 reversed $269 $-1 #
edge $-1 $382 -60.784325693533127 $279 60.784325693533127 $277 $383 forward 7 unknown #
vertex $-1 $187 $384 #
vertex $-1 $291 $385 #
straight-curve $-1 60.784325693533127 0 -19.724651579898918 0 -1 0 I I #
coedge $-1 $271 $273 $188 $283 reversed $181 $-1 #
edge $-1 $286 -40.955171586172561 $289 40.955171586172561 $282 $386 forward 7 unknown #
coedge $-1 $277 $189 $194 $292 forward $269 $-1 #
coedge $-1 $189 $277 $271 $377 reversed $269 $-1 #
vertex $-1 $190 $387 #
straight-curve $-1 0 40.955171586172561 19.724651579898918 -1 0 0 I I #
coedge $-1 $191 $272 $193 $291 reversed $114 $-1 #
vertex $-1 $283 $388 #
straight-curve $-1 0 -40.955171586172561 19.724651579898918 1 0 0 I I #
edge $-1 $196 -19.724651579898918 $280 19.724651579898918 $193 $389 forward 7 unknown #
edge $-1 $197 -19.724651579898918 $279 19.724651579898918 $194 $390 forward 7 unknown #
point $-1 60.784325693533127 -40.955171586172561 19.724651579898918 #
point $-1 60.784325693533127 40.955171586172561 19.724651579898918 #
face $-1 $-1 $213 $28 $-1 $391 reversed single #
loop $-1 $-1 $209 $199 #
plane-surface $-1 0 -40.955171586172561 0 0 1 0 0 0 1 forward_v I I I I #
coedge $-1 $392 $393 $207 $309 forward $200 $-1 #
coedge $-1 $304 $202 $212 $317 reversed $122 $-1 #
coedge $-1 $202 $304 $392 $394 reversed $122 $-1 #
coedge $-1 $204 $203 $395 $396 reversed $77 $-1 #
coedge $-1 $313 $312 $203 $303 forward $296 $-1 #
edge $-1 $397 -60.784325693533127 $306 60.784325693533127 $302 $398 forward 7 unknown #
coedge $-1 $300 $299 $204 $305 reversed $122 $-1 #
edge $-1 $399 -60.784325693533127 $307 60.784325693533127 $304 $400 forward 7 unknown #
vertex $-1 $303 $401 #
vertex $-1 $206 $402 #
straight-curve $-1 60.784325693533127 -17.025461753616401 4.3306725225415068 0 1 0 I I #
edge $-1 $314 -23.92970983255616 $310 -10.121213674676643 $298 $403 forward 7 unknown #
vertex $-1 $309 $404 #
straight-curve $-1 0 -27.146675428293044 13.518494326917773 -1 0 0 I I #
coedge $-1 $302 $209 $393 $405 forward $296 $-1 #
coedge $-1 $209 $302 $211 $316 reversed $296 $-1 #
vertex $-1 $405 $406 #
straight-curve $-1 0 -40.955171586172561 13.518494326917773 -1 0 0 I I #
edge $-1 $215 -13.518494326917773 $306 -4.3306725225415068 $211 $407 forward 7 unknown #
edge $-1 $307 -0.13161918982331322 $214 9.0562026145529533 $212 $408 forward 7 unknown #
point $-1 60.784325693533127 -27.146675428293044 13.518494326917773 #
point $-1 60.784325693533127 -40.955171586172561 13.518494326917773 #
loop $-1 $-1 $409 $217 #
plane-surface $-1 0 0 19.724651579898918 0 0 1 1 0 0 forward_v I I I I #
coedge $-1 $323 $220 $228 $335 reversed $130 $-1 #
coedge $-1 $220 $322 $409 $410 reversed $130 $-1 #
coedge $-1 $329 $411 $222 $325 forward $320 $-1 #
edge $-1 $327 -43.839584323175913 $333 -19.051401796474305 $324 $412 forward 7 unknown #
coedge $-1 $228 $223 $411 $413 reversed $218 $-1 #
vertex $-1 $224 $414 #
straight-curve $-1 60.784325693533127 -8.0716321922914602 85.761174031086966 0 0 1 I I #
coedge $-1 $409 $324 $225 $330 forward $320 $-1 #
edge $-1 $333 -0.73294471285466578 $331 18.342098523146916 $329 $415 forward 7 unknown #
vertex $-1 $410 $416 #
straight-curve $-1 -37.566778598587028 -27.146675428293044 73.171243770053792 -0.80901698891910034 0 0.5877852598018023 I I #
vertex $-1 $330 $417 #
straight-curve $-1 -37.566778598587028 -8.0716321922914602 73.171243770053792 0.80901698891910034 0 -0.5877852598018023 I I #
edge $-1 $418 66.036522451188048 $229 84.046191600334652 $228 $419 forward 7 unknown #
point $-1 60.784325693533127 -27.146675428293044 1.7149824307523147 #
point $-1 60.784325693533127 -8.0716321922914602 1.7149824307523147 #
edge $-1 $420 1 $420 0 $232 $-1 forward 7 unknown #
vertex $-1 $233 $421 #
ellipse-curve $-1 46.145252428040031 -21.696663075149736 7.6298644261079378 0.5877852598018023 0 0.80901698891910034 1.6180339778382007 0 -1.1755705196036046 1 I I #
point $-1 50.008268408020498 -21.696663075149736 9.5442464857220077 #
edge $-1 $422 1 $422 0 $236 $-1 forward 7 unknown #
vertex $-1 $237 $423 #
ellipse-curve $-1 46.145252428040031 -13.521644545434771 7.6298644261079378 0.5877852598018023 0 0.80901698891910034 1.6180339778382007 0 -1.1755705196036046 1 I I #
point $-1 50.008268408020498 -13.521644545434771 9.5442464857220077 #
plane-surface $-1 -60.784325693533127 0 0 1 0 0 0 0 -1 forward_v I I I I #
coedge $-1 $350 $424 $245 $353 reversed $241 $-1 #
coedge $-1 $248 $243 $352 $425 forward $152 $-1 #
coedge $-1 $243 $248 $251 $360 forward $152 $-1 #
coedge $-1 $424 $347 $243 $351 reversed $241 $-1 #
edge $-1 $426 14.779394765882195 $427 26.966266025693557 $243 $428 forward 7 unknown #
coedge $-1 $245 $244 $348 $425 reversed $95 $-1 #
edge $-1 $427 -18.212993564344679 $355 -1.0694865687384493e-014 $347 $429 forward 7 unknown #
coedge $-1 $251 $246 $424 $430 forward $252 $-1 #
vertex $-1 $430 $431 #
straight-curve $-1 -60.784325693533127 -9.6072421878081542 6.189759505277701 0 -1 0 I I #
vertex $-1 $249 $432 #
straight-curve $-1 -75.563720459415322 -11.282293322939569 19.724651579898918 -1 0 0 I I #
straight-curve $-1 -60.784325693533134 -11.282293322939569 6.1897595052776921 0.66913059716165679 0 0.74314483375859142 I I #
edge $-1 $253 11.282293322939569 $426 27.146675428293047 $251 $433 forward 7 unknown #
point $-1 -60.784325693533127 -11.282293322939569 19.724651579898918 #
point $-1 -60.784325693533127 -11.282293322939569 6.1897595052777001 #
edge $-1 $434 1 $434 0 $256 $-1 forward 7 unknown #
vertex $-1 $257 $435 #
ellipse-curve $-1 -50.455427176525546 -23.97379900722235 9.143577724483654 -0.74314483375859142 0 0.66913059716165679 1.0036958957424851 0 1.1147172506378871 1 I I #
point $-1 -53.687194167884954 -23.97379900722235 14.071922793226195 #
edge $-1 $436 1 $436 0 $260 $-1 forward 7 unknown #
vertex $-1 $261 $437 #
ellipse-curve $-1 -50.455427176525546 -19.214484375616308 9.143577724483654 -0.74314483375859142 0 0.66913059716165679 1.0036958957424851 0 1.1147172506378871 1 I I #
point $-1 -53.687194167884954 -19.214484375616308 14.071922793226195 #
edge $-1 $438 1 $438 0 $264 $-1 forward 7 unknown #
vertex $-1 $265 $439 #
ellipse-curve $-1 -50.455427176525546 -14.455169744010266 9.143577724483654 -0.74314483375859142 0 0.66913059716165679 1.0036958957424851 0 1.1147172506378871 1 I I #
point $-1 -53.687194167884954 -14.455169744010266 14.071922793226195 #
plane-surface $-1 60.784325693533127 0 0 -1 0 0 0 0 1 forward_v I I I I #
coedge $-1 $273 $271 $275 $380 reversed $181 $-1 #
edge $-1 $286 -19.724651579898918 $382 19.724651579898918 $285 $440 forward 7 unknown #
vertex $-1 $380 $441 #
straight-curve $-1 -60.784325693533127 -40.955171586172561 0 0 0 -1 I I #
edge $-1 $378 -40.955171586172561 $382 40.955171586172561 $376 $442 forward 7 unknown #
straight-curve $-1 0 -40.955171586172561 -19.724651579898918 -1 0 0 I I #
vertex $-1 $278 $443 #
straight-curve $-1 0 40.955171586172561 -19.724651579898918 1 0 0 I I #
point $-1 60.784325693533127 40.955171586172561 -19.724651579898918 #
point $-1 60.784325693533127 -40.955171586172561 -19.724651579898918 #
straight-curve $-1 -60.784325693533127 0 19.724651579898918 0 -1 0 I I #
point $-1 -60.784325693533127 40.955171586172561 19.724651579898918 #
point $-1 -60.784325693533127 -40.955171586172561 19.724651579898918 #
straight-curve $-1 60.784325693533127 -40.955171586172561 0 0 0 -1 I I #
straight-curve $-1 60.784325693533127 40.955171586172561 0 0 0 -1 I I #
plane-surface $-1 60.784325693533127 0 0 -1 0 0 0 0 1 forward_v I I I I #
coedge $-1 $395 $298 $300 $394 forward $200 $-1 #
coedge $-1 $298 $395 $312 $405 reversed $200 $-1 #
edge $-1 $310 -9.0562026145529533 $399 0.13161918982331322 $392 $444 forward 7 unknown #
coedge $-1 $393 $392 $301 $396 forward $200 $-1 #
edge $-1 $399 10.121213674676643 $397 23.92970983255616 $395 $445 forward 7 unknown #
vertex $-1 $303 $446 #
straight-curve $-1 0 -40.955171586172561 4.3306725225415068 1 0 0 I I #
vertex $-1 $396 $447 #
straight-curve $-1 0 -27.146675428293044 4.3306725225415068 1 0 0 I I #
point $-1 60.784325693533127 -40.955171586172561 4.3306725225415068 #
point $-1 60.784325693533127 -27.146675428293044 4.3306725225415068 #
straight-curve $-1 -60.784325693533127 -17.025461753616401 13.518494326917773 0 1 0 I I #
point $-1 -60.784325693533127 -27.146675428293044 13.518494326917773 #
edge $-1 $314 -13.518494326917773 $397 -4.3306725225415068 $393 $448 forward 7 unknown #
point $-1 -60.784325693533127 -40.955171586172561 13.518494326917773 #
straight-curve $-1 60.784325693533127 -40.955171586172561 0 0 0 -1 I I #
straight-curve $-1 60.784325693533127 -27.146675428293044 4.46229171236482 0 0 1 I I #
coedge $-1 $411 $329 $323 $410 forward $320 $-1 #
edge $-1 $331 19.051401796474305 $418 43.839584323175913 $409 $449 forward 7 unknown #
coedge $-1 $324 $409 $326 $413 forward $320 $-1 #
straight-curve $-1 16.944741370357217 -8.0716321922914602 19.724651579898918 -1 0 0 I I #
edge $-1 $418 -27.146675428293044 $327 -8.0716321922914602 $326 $450 forward 7 unknown #
point $-1 60.784325693533127 -8.0716321922914602 19.724651579898918 #
straight-curve $-1 35.996143166831516 -8.804576905146126 19.724651579898918 0 -1 0 I I #
point $-1 35.996143166831523 -27.146675428293044 19.724651579898918 #
point $-1 35.996143166831523 -8.0716321922914602 19.724651579898918 #
vertex $-1 $413 $451 #
straight-curve $-1 60.784325693533127 -27.146675428293044 85.761174031086966 0 0 -1 I I #
vertex $-1 $338 $452 #
point $-1 47.763286405878226 -21.696663075149736 6.4542939065043337 #
vertex $-1 $342 $453 #
point $-1 47.763286405878226 -13.521644545434771 6.4542939065043337 #
coedge $-1 $347 $350 $354 $430 reversed $241 $-1 #
edge $-1 $427 -17.539433240484893 $357 -1.6750511351314152 $348 $454 forward 7 unknown #
vertex $-1 $430 $455 #
vertex $-1 $425 $456 #
straight-curve $-1 -75.563720459415322 -27.146675428293047 19.724651579898918 1 0 0 I I #
straight-curve $-1 -60.784325693533134 -27.146675428293047 6.1897595052776921 -0.66913059716165679 0 -0.74314483375859142 I I #
edge $-1 $355 -37.577772396743612 $426 -24.042880322122393 $354 $457 forward 7 unknown #
point $-1 -60.784325693533127 -27.146675428293044 6.1897595052777001 #
point $-1 -48.597454433721765 -11.282293322939569 19.724651579898918 #
straight-curve $-1 -60.784325693533127 0 19.724651579898918 0 -1 0 I I #
vertex $-1 $363 $458 #
point $-1 -49.451731280783065 -23.97379900722235 10.25829497512154 #
vertex $-1 $367 $459 #
point $-1 -49.451731280783065 -19.214484375616308 10.25829497512154 #
vertex $-1 $371 $460 #
point $-1 -49.451731280783065 -14.455169744010266 10.25829497512154 #
straight-curve $-1 -60.784325693533127 40.955171586172561 0 0 0 -1 I I #
point $-1 -60.784325693533127 -40.955171586172561 -19.724651579898918 #
straight-curve $-1 -60.784325693533127 0 -19.724651579898918 0 1 0 I I #
point $-1 -60.784325693533127 40.955171586172561 -19.724651579898918 #
straight-curve $-1 -60.784325693533127 -27.146675428293044 4.46229171236482 0 0 -1 I I #
straight-curve $-1 -60.784325693533127 -17.025461753616401 4.3306725225415068 0 -1 0 I I #
point $-1 -60.784325693533127 -40.955171586172561 4.3306725225415068 #
point $-1 -60.784325693533127 -27.146675428293044 4.3306725225415068 #
straight-curve $-1 -60.784325693533127 -40.955171586172561 0 0 0 -1 I I #
straight-curve $-1 16.944741370357217 -27.146675428293044 19.724651579898918 1 0 0 I I #
straight-curve $-1 60.784325693533127 0 19.724651579898918 0 1 0 I I #
point $-1 60.784325693533127 -27.146675428293044 19.724651579898918 #
point $-1 44.969681908436421 -21.696663075149736 6.0118304482697393 #
point $-1 44.969681908436421 -13.521644545434771 6.0118304482697393 #
straight-curve $-1 -48.597454433721765 -9.6072421878081542 19.724651579898918 0 1 0 I I #
point $-1 -60.784325693533127 -27.146675428293047 19.724651579898918 #
point $-1 -48.597454433721765 -27.146675428293047 19.724651579898918 #
straight-curve $-1 -60.784325693533127 -27.146675428293047 43.767531902021311 0 0 1 I I #
point $-1 -49.340709925887666 -23.97379900722235 8.1398818287411689 #
point $-1 -49.340709925887666 -19.214484375616308 8.1398818287411689 #
point $-1 -49.340709925887666 -14.455169744010266 8.1398818287411689 #
End-of-ACIS-data 