500 0 10 0           
7 Unknown 11 ACIS 5.0 NT 24 Fri Mar 26 02:15:22 1999 
-1 9.9999999999999995e-007 1e-010 
body $-1 $10 $-1 $11 #
body $-1 $12 $-1 $13 #
body $-1 $14 $-1 $15 #
body $-1 $16 $-1 $17 #
body $-1 $18 $-1 $19 #
body $-1 $20 $-1 $21 #
body $-1 $22 $-1 $23 #
body $-1 $24 $-1 $25 #
body $-1 $26 $-1 $27 #
body $-1 $28 $-1 $29 #
lump $-1 $-1 $30 $0 #
transform $-1 1 0 0 0 1 0 0 0 1 61.157872249519329 32.116888538273379 6.981186517345261 1 rotate no_reflect no_shear #
lump $-1 $-1 $31 $1 #
transform $-1 1 0 0 0 1 0 0 0 1 61.157872249519329 32.116888538273379 6.981186517345261 1 rotate no_reflect no_shear #
lump $-1 $-1 $32 $2 #
transform $-1 1 0 0 0 1 0 0 0 1 61.157872249519329 32.116888538273379 6.981186517345261 1 rotate no_reflect no_shear #
lump $-1 $-1 $33 $3 #
transform $-1 1 0 0 0 1 0 0 0 1 61.157872249519329 32.116888538273379 6.981186517345261 1 rotate no_reflect no_shear #
lump $-1 $-1 $34 $4 #
transform $-1 1 0 0 0 1 0 0 0 1 61.157872249519329 32.116888538273379 6.981186517345261 1 rotate no_reflect no_shear #
lump $-1 $-1 $35 $5 #
transform $-1 1 0 0 0 1 0 0 0 1 61.157872249519329 32.116888538273379 6.981186517345261 1 rotate no_reflect no_shear #
lump $-1 $-1 $36 $6 #
transform $-1 1 0 0 0 1 0 0 0 1 61.157872249519329 32.116888538273379 6.981186517345261 1 rotate no_reflect no_shear #
lump $-1 $-1 $37 $7 #
transform $-1 1 0 0 0 1 0 0 0 1 61.157872249519329 32.116888538273379 6.981186517345261 1 rotate no_reflect no_shear #
lump $-1 $-1 $38 $8 #
transform $-1 1 0 0 0 1 0 0 0 1 61.157872249519329 32.116888538273379 6.981186517345261 1 rotate no_reflect no_shear #
lump $-1 $-1 $39 $9 #
transform $-1 1 0 0 0 1 0 0 0 1 61.157872249519329 32.116888538273379 6.981186517345261 1 rotate no_reflect no_shear #
shell $-1 $-1 $-1 $40 $-1 $10 #
shell $-1 $-1 $-1 $41 $-1 $12 #
shell $-1 $-1 $-1 $42 $-1 $14 #
shell $-1 $-1 $-1 $43 $-1 $16 #
shell $-1 $-1 $-1 $44 $-1 $18 #
shell $-1 $-1 $-1 $45 $-1 $20 #
shell $-1 $-1 $-1 $46 $-1 $22 #
shell $-1 $-1 $-1 $47 $-1 $24 #
shell $-1 $-1 $-1 $48 $-1 $26 #
shell $-1 $-1 $-1 $49 $-1 $28 #
face $-1 $50 $51 $30 $-1 $52 forward single #
face $-1 $53 $54 $31 $-1 $55 reversed single #
face $-1 $56 $57 $32 $-1 $58 reversed single #
face $-1 $59 $60 $33 $-1 $61 reversed single #
face $-1 $62 $63 $34 $-1 $64 forward single #
face $-1 $65 $66 $35 $-1 $67 forward single #
face $-1 $68 $69 $36 $-1 $70 reversed single #
face $-1 $71 $72 $37 $-1 $73 forward single #
face $-1 $74 $75 $38 $-1 $76 forward single #
face $-1 $77 $78 $39 $-1 $79 forward single #
face $-1 $80 $81 $30 $-1 $82 reversed single #
loop $-1 $-1 $83 $40 #
plane-surface $-1 0 0 6.981186517345261 0 0 1 1 0 0 forward_v I I I I #
face $-1 $84 $85 $31 $-1 $86 reversed single #
loop $-1 $-1 $87 $41 #
plane-surface $-1 -56.461981943026458 0 5.481186517345261 -1 0 0 0 0 1 forward_v I I I I #
face $-1 $88 $89 $32 $-1 $90 reversed single #
loop $-1 $-1 $91 $42 #
plane-surface $-1 58.809927096272901 0 3.981186517345261 0 0 1 1 0 0 forward_v I I I I #
face $-1 $92 $93 $33 $-1 $94 reversed single #
loop $-1 $-1 $95 $43 #
plane-surface $-1 -46.473826837806186 -7.4293727437720776 54.241977984900785 0 0.78801076186113728 0.61566146476048833 1 0 0 forward_v I I I I #
face $-1 $96 $97 $34 $-1 $98 forward single #
loop $-1 $99 $100 $44 #
cone-surface $-1 -50.754464740043446 29.466393564846438 4.2566335999608675 0 -0.78801076186113728 -0.61566146476048833 1 0 0 1 I I 0 1 1 forward I I I I #
face $-1 $101 $102 $35 $-1 $103 forward single #
loop $-1 $104 $105 $45 #
cone-surface $-1 -42.193188935568926 29.466393564846438 4.2566335999608675 0 -0.78801076186113728 -0.61566146476048833 1 0 0 1 I I 0 1 1 forward I I I I #
face $-1 $106 $107 $36 $-1 $108 reversed single #
loop $-1 $-1 $109 $46 #
plane-surface $-1 52.060363133469572 -139.09665010322203 59.754986502853171 -1 0 0 0 -0.87461971476443456 0.48480960649040278 forward_v I I I I #
face $-1 $110 $111 $37 $-1 $112 forward single #
loop $-1 $113 $114 $47 #
cone-surface $-1 38.295405108776535 -29.363805401584436 3.1946955466989637 0 0.87461971476443456 -0.48480960649040278 1.5 0 0 1 I I 0 1 1.5 forward I I I I #
face $-1 $115 $116 $38 $-1 $117 forward single #
loop $-1 $118 $119 $48 #
cone-surface $-1 43.457264368036434 -29.363805401584436 3.1946955466989637 0 0.87461971476443456 -0.48480960649040278 1.5 0 0 1 I I 0 1 1.5 forward I I I I #
face $-1 $120 $121 $39 $-1 $122 forward single #
loop $-1 $123 $124 $49 #
cone-surface $-1 48.619123627296332 -29.363805401584436 3.1946955466989637 0 0.87461971476443456 -0.48480960649040278 1.5 0 0 1 I I 0 1 1.5 forward I I I I #
face $-1 $125 $126 $30 $-1 $127 reversed single #
loop $-1 $-1 $128 $50 #
plane-surface $-1 0 0 -6.981186517345261 0 0 1 1 0 0 forward_v I I I I #
coedge $-1 $129 $130 $131 $132 forward $51 $-1 #
face $-1 $133 $134 $31 $-1 $135 reversed single #
loop $-1 $-1 $136 $53 #
plane-surface $-1 -58.809927096272894 0 3.981186517345261 0 0 1 1 0 0 forward_v I I I I #
coedge $-1 $137 $138 $139 $140 reversed $54 $-1 #
face $-1 $141 $142 $32 $-1 $143 forward single #
loop $-1 $-1 $144 $56 #
plane-surface $-1 56.461981943026466 0 5.481186517345261 1 0 0 0 0 -1 forward_v I I I I #
coedge $-1 $145 $146 $147 $148 reversed $57 $-1 #
face $-1 $149 $150 $33 $-1 $151 reversed single #
loop $-1 $-1 $152 $59 #
plane-surface $-1 -36.485671732585907 88.956750266527592 129.54706840644857 -1 0 0 0 0.78801076186113728 0.61566146476048833 forward_v I I I I #
coedge $-1 $153 $154 $155 $156 reversed $60 $-1 #
face $-1 $-1 $157 $34 $-1 $158 forward single #
loop $-1 $159 $160 $62 #
cone-surface $-1 -50.754464740043446 27.732935826257865 2.9023080220724928 0 -0.78801076186113728 -0.61566146476048833 0.5 0 0 1 I I -0.70710678118654746 0.70710678118654746 0.5 forward I I I I #
loop $-1 $-1 $161 $44 #
coedge $-1 $100 $100 $162 $163 reversed $63 $-1 #
face $-1 $-1 $164 $35 $-1 $165 forward single #
loop $-1 $166 $167 $65 #
cone-surface $-1 -42.193188935568926 27.732935826257865 2.9023080220724928 0 -0.78801076186113728 -0.61566146476048833 0.5 0 0 1 I I -0.70710678118654746 0.70710678118654746 0.5 forward I I I I #
loop $-1 $-1 $168 $45 #
coedge $-1 $105 $105 $169 $170 reversed $66 $-1 #
face $-1 $171 $172 $36 $-1 $173 reversed single #
loop $-1 $-1 $174 $68 #
plane-surface $-1 43.457264368036419 -32.116888538273386 0.45513854469358961 0 -0.87461971476443456 0.48480960649040278 1 0 0 forward_v I I I I #
coedge $-1 $175 $176 $177 $178 reversed $69 $-1 #
face $-1 $-1 $179 $37 $-1 $180 forward single #
loop $-1 $181 $182 $71 #
cone-surface $-1 38.295405108776535 -27.763481142460876 2.3076213575106923 0 0.87461971476443456 -0.48480960649040278 0.75 0 0 1 I I -0.70710678118654757 0.70710678118654757 0.75 forward I I I I #
loop $-1 $-1 $183 $47 #
coedge $-1 $114 $114 $184 $185 reversed $72 $-1 #
face $-1 $-1 $186 $38 $-1 $187 forward single #
loop $-1 $188 $189 $74 #
cone-surface $-1 43.457264368036434 -27.763481142460876 2.3076213575106923 0 0.87461971476443456 -0.48480960649040278 0.75 0 0 1 I I -0.70710678118654757 0.70710678118654757 0.75 forward I I I I #
loop $-1 $-1 $190 $48 #
coedge $-1 $119 $119 $191 $192 reversed $75 $-1 #
face $-1 $-1 $193 $39 $-1 $194 forward single #
loop $-1 $195 $196 $77 #
cone-surface $-1 48.619123627296332 -27.763481142460876 2.3076213575106923 0 0.87461971476443456 -0.48480960649040278 0.75 0 0 1 I I -0.70710678118654757 0.70710678118654757 0.75 forward I I I I #
loop $-1 $-1 $197 $49 #
coedge $-1 $124 $124 $198 $199 reversed $78 $-1 #
face $-1 $200 $201 $30 $-1 $202 reversed single #
loop $-1 $-1 $203 $80 #
plane-surface $-1 0 -32.116888538273379 0 0 1 0 0 0 1 forward_v I I I I #
coedge $-1 $204 $205 $206 $207 forward $81 $-1 #
coedge $-1 $208 $83 $209 $210 forward $51 $-1 #
coedge $-1 $83 $208 $211 $212 forward $51 $-1 #
coedge $-1 $213 $214 $83 $132 reversed $215 $-1 #
edge $-1 $216 -32.116888538273379 $217 32.116888538273379 $131 $218 forward 7 unknown #
face $-1 $219 $220 $31 $-1 $221 reversed single #
loop $-1 $-1 $222 $84 #
plane-surface $-1 0 32.116888538273379 0 0 -1 0 0 0 -1 forward_v I I I I #
coedge $-1 $223 $224 $225 $226 forward $85 $-1 #
coedge $-1 $225 $87 $227 $228 reversed $54 $-1 #
coedge $-1 $87 $225 $222 $229 reversed $54 $-1 #
coedge $-1 $230 $231 $87 $140 forward $232 $-1 #
edge $-1 $233 -32.116888538273379 $234 32.116888538273379 $139 $235 forward 7 unknown #
face $-1 $236 $237 $32 $-1 $238 reversed single #
loop $-1 $-1 $239 $88 #
plane-surface $-1 0 0 6.981186517345261 0 0 1 1 0 0 forward_v I I I I #
coedge $-1 $240 $241 $242 $243 reversed $89 $-1 #
coedge $-1 $244 $91 $245 $246 reversed $57 $-1 #
coedge $-1 $91 $244 $247 $248 reversed $57 $-1 #
coedge $-1 $249 $250 $91 $148 forward $251 $-1 #
edge $-1 $252 -32.116888538273379 $253 32.116888538273379 $147 $254 forward 7 unknown #
face $-1 $255 $256 $33 $-1 $257 forward single #
loop $-1 $-1 $258 $92 #
plane-surface $-1 0 32.116888538273379 0 0 -1 0 0 0 -1 forward_v I I I I #
coedge $-1 $259 $260 $261 $262 reversed $93 $-1 #
coedge $-1 $263 $95 $264 $265 reversed $60 $-1 #
coedge $-1 $95 $263 $259 $266 forward $60 $-1 #
coedge $-1 $261 $267 $95 $156 forward $256 $-1 #
edge $-1 $268 -33.225068524123373 $269 -13.248758313682814 $155 $270 forward 7 unknown #
loop $-1 $-1 $162 $96 #
plane-surface $-1 -46.473826837806186 -7.4293727437720776 54.241977984900785 0 0.78801076186113728 0.61566146476048833 1 0 0 forward_v I I I I #
loop $-1 $-1 $271 $62 #
coedge $-1 $160 $160 $161 $272 reversed $97 $-1 #
coedge $-1 $161 $161 $160 $272 forward $99 $-1 #
coedge $-1 $162 $162 $100 $163 forward $157 $-1 #
edge $-1 $273 -1.8369231160233815e-015 $273 6.2831853071795987 $162 $274 forward 7 unknown #
loop $-1 $-1 $169 $101 #
plane-surface $-1 -46.473826837806186 -7.4293727437720776 54.241977984900785 0 0.78801076186113728 0.61566146476048833 1 0 0 forward_v I I I I #
loop $-1 $-1 $275 $65 #
coedge $-1 $167 $167 $168 $276 reversed $102 $-1 #
coedge $-1 $168 $168 $167 $276 forward $104 $-1 #
coedge $-1 $169 $169 $105 $170 forward $164 $-1 #
edge $-1 $277 -1.8369231160233815e-015 $277 6.2831853071795987 $169 $278 forward 7 unknown #
face $-1 $279 $280 $36 $-1 $281 forward single #
loop $-1 $-1 $282 $106 #
plane-surface $-1 34.854165602603267 -139.09665010322203 59.754986502853171 1 0 0 0 0.87461971476443456 -0.48480960649040278 forward_v I I I I #
coedge $-1 $283 $284 $285 $286 reversed $107 $-1 #
coedge $-1 $176 $109 $287 $288 reversed $69 $-1 #
coedge $-1 $109 $175 $283 $289 reversed $69 $-1 #
coedge $-1 $285 $290 $109 $178 forward $280 $-1 #
edge $-1 $291 37.431436513337637 $292 41.048883840615055 $177 $293 forward 7 unknown #
loop $-1 $-1 $184 $110 #
plane-surface $-1 43.457264368036419 -32.116888538273386 0.45513854469358961 0 -0.87461971476443456 0.48480960649040278 1 0 0 forward_v I I I I #
loop $-1 $-1 $294 $71 #
coedge $-1 $182 $182 $183 $295 reversed $111 $-1 #
coedge $-1 $183 $183 $182 $295 forward $113 $-1 #
coedge $-1 $184 $184 $114 $185 forward $179 $-1 #
edge $-1 $296 0 $296 6.2831853071796004 $184 $297 forward 7 unknown #
loop $-1 $-1 $191 $115 #
plane-surface $-1 43.457264368036419 -32.116888538273386 0.45513854469358961 0 -0.87461971476443456 0.48480960649040278 1 0 0 forward_v I I I I #
loop $-1 $-1 $298 $74 #
coedge $-1 $189 $189 $190 $299 reversed $116 $-1 #
coedge $-1 $190 $190 $189 $299 forward $118 $-1 #
coedge $-1 $191 $191 $119 $192 forward $186 $-1 #
edge $-1 $300 0 $300 6.2831853071796004 $191 $301 forward 7 unknown #
loop $-1 $-1 $198 $120 #
plane-surface $-1 43.457264368036419 -32.116888538273386 0.45513854469358961 0 -0.87461971476443456 0.48480960649040278 1 0 0 forward_v I I I I #
loop $-1 $-1 $302 $77 #
coedge $-1 $196 $196 $197 $303 reversed $121 $-1 #
coedge $-1 $197 $197 $196 $303 forward $123 $-1 #
coedge $-1 $198 $198 $124 $199 forward $193 $-1 #
edge $-1 $304 0 $304 6.2831853071796004 $198 $305 forward 7 unknown #
face $-1 $306 $307 $30 $-1 $308 reversed single #
loop $-1 $-1 $309 $125 #
plane-surface $-1 -61.157872249519329 0 0 1 0 0 0 0 -1 forward_v I I I I #
coedge $-1 $310 $211 $311 $312 forward $126 $-1 #
coedge $-1 $313 $128 $310 $314 forward $81 $-1 #
coedge $-1 $128 $313 $315 $316 forward $81 $-1 #
coedge $-1 $214 $213 $128 $207 reversed $215 $-1 #
edge $-1 $317 -32.116888538273379 $318 32.116888538273379 $206 $319 forward 7 unknown #
coedge $-1 $130 $129 $320 $321 forward $51 $-1 #
coedge $-1 $322 $323 $129 $210 reversed $307 $-1 #
edge $-1 $217 -61.157872249519329 $324 61.157872249519329 $209 $325 forward 7 unknown #
coedge $-1 $203 $326 $130 $212 reversed $126 $-1 #
edge $-1 $327 -61.157872249519329 $216 61.157872249519329 $211 $328 forward 7 unknown #
coedge $-1 $206 $131 $326 $329 forward $215 $-1 #
coedge $-1 $131 $206 $322 $330 reversed $215 $-1 #
loop $-1 $-1 $213 $306 #
vertex $-1 $132 $331 #
vertex $-1 $132 $332 #
straight-curve $-1 61.157872249519329 0 6.981186517345261 0 1 0 I I #
face $-1 $333 $232 $31 $-1 $334 forward single #
loop $-1 $-1 $335 $133 #
plane-surface $-1 -61.157872249519329 0 0 1 0 0 0 0 -1 forward_v I I I I #
coedge $-1 $336 $337 $138 $229 forward $134 $-1 #
coedge $-1 $338 $136 $339 $340 reversed $85 $-1 #
coedge $-1 $136 $338 $336 $341 reversed $85 $-1 #
coedge $-1 $138 $137 $136 $226 reversed $54 $-1 #
edge $-1 $342 -32.116888538273379 $343 32.116888538273379 $225 $344 forward 7 unknown #
coedge $-1 $345 $339 $137 $228 forward $346 $-1 #
edge $-1 $343 1.2405932586726305 $233 4.2405932586726305 $227 $347 forward 7 unknown #
edge $-1 $234 -4.2405932586726305 $342 -1.2405932586726305 $222 $348 forward 7 unknown #
coedge $-1 $349 $139 $337 $350 forward $232 $-1 #
coedge $-1 $139 $349 $345 $351 forward $232 $-1 #
loop $-1 $-1 $139 $219 #
vertex $-1 $228 $352 #
vertex $-1 $350 $353 #
straight-curve $-1 -56.461981943026458 0 6.981186517345261 0 1 0 I I #
face $-1 $354 $355 $32 $-1 $356 reversed single #
loop $-1 $-1 $357 $141 #
plane-surface $-1 0 -32.116888538273379 0 0 1 0 0 0 1 forward_v I I I I #
coedge $-1 $358 $359 $241 $360 forward $142 $-1 #
coedge $-1 $361 $144 $244 $362 reversed $89 $-1 #
coedge $-1 $144 $361 $239 $360 reversed $89 $-1 #
coedge $-1 $363 $247 $144 $243 forward $355 $-1 #
edge $-1 $364 1.2405932586726305 $365 4.2405932586726305 $242 $366 forward 7 unknown #
coedge $-1 $146 $145 $240 $362 forward $57 $-1 #
coedge $-1 $367 $357 $145 $246 forward $237 $-1 #
edge $-1 $368 27.057018394890015 $252 31.752908701382886 $245 $369 forward 7 unknown #
coedge $-1 $242 $370 $146 $248 forward $355 $-1 #
edge $-1 $253 -31.752908701382886 $364 -27.057018394890015 $247 $371 forward 7 unknown #
coedge $-1 $372 $147 $370 $373 reversed $251 $-1 #
coedge $-1 $147 $372 $367 $374 forward $251 $-1 #
loop $-1 $-1 $147 $354 #
vertex $-1 $246 $375 #
vertex $-1 $148 $376 #
straight-curve $-1 61.157872249519329 0 3.981186517345261 0 1 0 I I #
face $-1 $-1 $377 $33 $-1 $378 forward single #
loop $-1 $-1 $261 $149 #
plane-surface $-1 0 0 6.981186517345261 0 0 1 1 0 0 forward_v I I I I #
coedge $-1 $379 $380 $260 $381 forward $150 $-1 #
coedge $-1 $260 $152 $154 $266 reversed $93 $-1 #
coedge $-1 $152 $259 $258 $381 reversed $93 $-1 #
coedge $-1 $382 $155 $152 $262 forward $256 $-1 #
edge $-1 $269 -14.983571826528312 $383 -12.361486594990417 $261 $384 forward 7 unknown #
coedge $-1 $154 $153 $379 $385 reversed $60 $-1 #
coedge $-1 $386 $387 $153 $265 forward $377 $-1 #
edge $-1 $388 -42.734773607055345 $268 -38.475801133346977 $264 $389 forward 7 unknown #
edge $-1 $390 -64.233777076546758 $269 -59.97480460283839 $259 $391 forward 7 unknown #
coedge $-1 $155 $382 $386 $392 forward $256 $-1 #
vertex $-1 $265 $393 #
vertex $-1 $156 $394 #
straight-curve $-1 -23.236913418903093 29.494803306735484 6.9811865173452645 1 0 0 I I #
coedge $-1 $271 $271 $-1 $395 reversed $159 $-1 #
edge $-1 $396 0 $396 6.2831853071796004 $160 $397 forward 7 unknown #
vertex $-1 $163 $398 #
ellipse-curve $-1 -50.754464740043446 30.805845922504428 5.303128445468988 0 0.78801076186113728 0.61566146476048833 1 0 0 1 I I #
coedge $-1 $275 $275 $-1 $399 reversed $166 $-1 #
edge $-1 $400 0 $400 6.2831853071796004 $167 $401 forward 7 unknown #
vertex $-1 $170 $402 #
ellipse-curve $-1 -42.193188935568926 30.805845922504428 5.303128445468988 0 0.78801076186113728 0.61566146476048833 1 0 0 1 I I #
face $-1 $-1 $403 $36 $-1 $404 reversed single #
loop $-1 $-1 $177 $171 #
plane-surface $-1 0 0 6.981186517345261 0 0 1 1 0 0 forward_v I I I I #
coedge $-1 $405 $406 $407 $408 reversed $172 $-1 #
coedge $-1 $409 $174 $176 $289 forward $107 $-1 #
coedge $-1 $174 $409 $405 $410 forward $107 $-1 #
coedge $-1 $407 $177 $174 $286 forward $280 $-1 #
edge $-1 $292 -30.331730949451362 $411 -13.125533418585057 $285 $412 forward 7 unknown #
coedge $-1 $413 $414 $175 $288 forward $403 $-1 #
edge $-1 $415 -29.422354706732982 $291 -22.896306734081325 $287 $416 forward 7 unknown #
edge $-1 $292 -7.4615834316167486 $415 -1.4660094457350279e-014 $176 $417 forward 7 unknown #
coedge $-1 $177 $407 $413 $418 forward $280 $-1 #
vertex $-1 $288 $419 #
vertex $-1 $178 $420 #
straight-curve $-1 52.060363133469572 -69.548325051611016 6.981186517345261 0 1 0 I I #
coedge $-1 $294 $294 $-1 $421 reversed $181 $-1 #
edge $-1 $422 0 $422 6.2831853071796004 $182 $423 forward 7 unknown #
vertex $-1 $185 $424 #
ellipse-curve $-1 38.295405108776535 -30.30816487463467 3.7181625310194333 0 -0.87461971476443456 0.48480960649040278 1.5 0 0 1 I I #
coedge $-1 $298 $298 $-1 $425 reversed $188 $-1 #
edge $-1 $426 0 $426 6.2831853071796004 $189 $427 forward 7 unknown #
vertex $-1 $192 $428 #
ellipse-curve $-1 43.457264368036434 -30.30816487463467 3.7181625310194333 0 -0.87461971476443456 0.48480960649040278 1.5 0 0 1 I I #
coedge $-1 $302 $302 $-1 $429 reversed $195 $-1 #
edge $-1 $430 0 $430 6.2831853071796004 $196 $431 forward 7 unknown #
vertex $-1 $199 $432 #
ellipse-curve $-1 48.619123627296332 -30.30816487463467 3.7181625310194333 0 -0.87461971476443456 0.48480960649040278 1.5 0 0 1 I I #
face $-1 $-1 $215 $30 $-1 $433 reversed single #
loop $-1 $-1 $322 $200 #
plane-surface $-1 0 32.116888538273379 0 0 -1 0 0 0 -1 forward_v I I I I #
coedge $-1 $434 $320 $323 $435 forward $201 $-1 #
coedge $-1 $326 $203 $204 $314 reversed $126 $-1 #
coedge $-1 $320 $434 $203 $312 reversed $201 $-1 #
edge $-1 $327 -6.981186517345261 $436 6.981186517345261 $311 $437 forward 7 unknown #
coedge $-1 $205 $204 $434 $438 forward $81 $-1 #
edge $-1 $318 -61.157872249519329 $436 61.157872249519329 $310 $439 forward 7 unknown #
coedge $-1 $323 $322 $205 $316 reversed $307 $-1 #
edge $-1 $440 -61.157872249519329 $317 61.157872249519329 $315 $441 forward 7 unknown #
vertex $-1 $207 $442 #
vertex $-1 $329 $443 #
straight-curve $-1 61.157872249519329 0 -6.981186517345261 0 -1 0 I I #
coedge $-1 $309 $311 $208 $321 reversed $201 $-1 #
edge $-1 $324 -32.116888538273379 $327 32.116888538273379 $320 $444 forward 7 unknown #
coedge $-1 $315 $209 $214 $330 forward $307 $-1 #
coedge $-1 $209 $315 $309 $435 reversed $307 $-1 #
vertex $-1 $210 $445 #
straight-curve $-1 0 32.116888538273379 6.981186517345261 -1 0 0 I I #
coedge $-1 $211 $310 $213 $329 reversed $126 $-1 #
vertex $-1 $321 $446 #
straight-curve $-1 0 -32.116888538273379 6.981186517345261 1 0 0 I I #
edge $-1 $216 -6.981186517345261 $318 6.981186517345261 $213 $447 forward 7 unknown #
edge $-1 $217 -6.981186517345261 $317 6.981186517345261 $214 $448 forward 7 unknown #
point $-1 61.157872249519329 -32.116888538273379 6.981186517345261 #
point $-1 61.157872249519329 32.116888538273379 6.981186517345261 #
face $-1 $-1 $346 $31 $-1 $449 reversed single #
plane-surface $-1 0 0 6.981186517345261 0 0 1 1 0 0 forward_v I I I I #
coedge $-1 $450 $451 $338 $452 forward $220 $-1 #
coedge $-1 $453 $222 $224 $341 forward $134 $-1 #
coedge $-1 $222 $453 $230 $350 reversed $134 $-1 #
coedge $-1 $224 $223 $335 $452 reversed $85 $-1 #
coedge $-1 $227 $454 $223 $340 forward $346 $-1 #
edge $-1 $455 -31.752908701382882 $343 -27.057018394890012 $339 $456 forward 7 unknown #
edge $-1 $342 27.057018394890012 $457 31.752908701382882 $336 $458 forward 7 unknown #
vertex $-1 $341 $459 #
vertex $-1 $340 $460 #
straight-curve $-1 -56.461981943026458 0 3.981186517345261 0 -1 0 I I #
coedge $-1 $454 $227 $231 $351 reversed $346 $-1 #
loop $-1 $-1 $227 $333 #
straight-curve $-1 -56.461981943026458 -32.116888538273379 2.7405932586726305 0 0 1 I I #
straight-curve $-1 -56.461981943026458 32.116888538273379 2.7405932586726305 0 0 -1 I I #
coedge $-1 $231 $230 $461 $462 forward $232 $-1 #
edge $-1 $234 56.461981943026458 $463 61.157872249519329 $337 $464 forward 7 unknown #
edge $-1 $465 -61.157872249519329 $233 -56.461981943026458 $345 $466 forward 7 unknown #
point $-1 -56.461981943026458 -32.116888538273379 6.981186517345261 #
point $-1 -56.461981943026458 32.116888538273379 6.981186517345261 #
face $-1 $-1 $251 $32 $-1 $467 reversed single #
loop $-1 $-1 $242 $236 #
plane-surface $-1 0 32.116888538273379 0 0 -1 0 0 0 -1 forward_v I I I I #
coedge $-1 $245 $468 $361 $469 forward $237 $-1 #
coedge $-1 $470 $239 $468 $471 forward $142 $-1 #
coedge $-1 $239 $470 $363 $472 forward $142 $-1 #
edge $-1 $365 -32.116888538273379 $473 32.116888538273379 $239 $474 forward 7 unknown #
coedge $-1 $241 $240 $357 $469 reversed $89 $-1 #
edge $-1 $368 -32.116888538273379 $364 32.116888538273379 $240 $475 forward 7 unknown #
coedge $-1 $370 $242 $359 $472 reversed $355 $-1 #
vertex $-1 $248 $476 #
vertex $-1 $243 $477 #
straight-curve $-1 56.461981943026466 32.116888538273379 2.7405932586726305 0 0 1 I I #
coedge $-1 $468 $245 $250 $374 reversed $237 $-1 #
vertex $-1 $246 $478 #
straight-curve $-1 29.40496354813645 -32.116888538273379 3.981186517345261 1 0 0 I I #
coedge $-1 $247 $363 $249 $373 forward $355 $-1 #
straight-curve $-1 29.40496354813645 32.116888538273379 3.981186517345261 -1 0 0 I I #
coedge $-1 $250 $249 $470 $479 reversed $251 $-1 #
edge $-1 $480 -6.981186517345261 $253 -3.981186517345261 $249 $481 forward 7 unknown #
edge $-1 $482 -6.981186517345261 $252 -3.981186517345261 $250 $483 forward 7 unknown #
point $-1 61.157872249519336 -32.116888538273379 3.981186517345261 #
point $-1 61.157872249519336 32.116888538273379 3.981186517345261 #
loop $-1 $-1 $264 $255 #
plane-surface $-1 -56.461981943026458 0 5.481186517345261 -1 0 0 0 0 1 forward_v I I I I #
coedge $-1 $484 $258 $263 $385 forward $150 $-1 #
coedge $-1 $258 $484 $382 $485 reversed $150 $-1 #
edge $-1 $383 57.792347685879022 $390 61.148463829631567 $258 $486 forward 7 unknown #
coedge $-1 $267 $261 $380 $485 forward $256 $-1 #
vertex $-1 $485 $487 #
straight-curve $-1 -36.485671732585907 44.478375133263796 6.9811865173452645 0 1 0 I I #
edge $-1 $390 13.248758313682814 $388 33.225068524123373 $379 $488 forward 7 unknown #
coedge $-1 $387 $264 $267 $392 reversed $377 $-1 #
coedge $-1 $264 $386 $484 $489 reversed $377 $-1 #
vertex $-1 $489 $490 #
straight-curve $-1 -56.461981943026458 5.8067352231458287 37.300531881651622 0 -0.61566146476048833 0.78801076186113728 I I #
vertex $-1 $385 $491 #
straight-curve $-1 -36.485671732585907 -7.4293727437720776 54.241977984900785 0 -0.61566146476048833 0.78801076186113728 I I #
edge $-1 $492 -32.116888538273379 $268 -29.494803306735484 $267 $493 forward 7 unknown #
point $-1 -56.461981943026466 29.494803306735484 6.9811865173452645 #
point $-1 -36.485671732585907 29.494803306735484 6.9811865173452645 #
edge $-1 $494 1 $494 0 $271 $-1 forward 7 unknown #
vertex $-1 $272 $495 #
ellipse-curve $-1 -50.754464740043446 28.126941207188434 3.2101387544527369 0 0.78801076186113728 0.61566146476048833 1 0 0 1 I I #
point $-1 -49.754464740043446 30.805845922504439 5.3031284454689986 #
edge $-1 $496 1 $496 0 $275 $-1 forward 7 unknown #
vertex $-1 $276 $497 #
ellipse-curve $-1 -42.193188935568926 28.126941207188434 3.2101387544527369 0 0.78801076186113728 0.61566146476048833 1 0 0 1 I I #
point $-1 -41.193188935568926 30.805845922504439 5.3031284454689986 #
loop $-1 $-1 $287 $279 #
plane-surface $-1 0 -32.116888538273379 0 0 1 0 0 0 1 forward_v I I I I #
coedge $-1 $406 $282 $284 $410 reversed $172 $-1 #
coedge $-1 $282 $405 $498 $499 reversed $172 $-1 #
coedge $-1 $290 $285 $282 $408 forward $280 $-1 #
edge $-1 $411 -41.048883840615055 $500 -37.431436513337637 $407 $501 forward 7 unknown #
coedge $-1 $284 $283 $414 $502 reversed $107 $-1 #
edge $-1 $503 1.4660094457350279e-014 $411 7.4615834316167486 $405 $504 forward 7 unknown #
vertex $-1 $286 $505 #
straight-curve $-1 21.72863218401821 -28.499441210995965 6.981186517345261 -1 0 0 I I #
coedge $-1 $498 $287 $290 $418 reversed $403 $-1 #
coedge $-1 $287 $498 $409 $502 forward $403 $-1 #
vertex $-1 $288 $506 #
straight-curve $-1 52.060363133469572 -32.116888538273379 29.877493251426586 0 0 1 I I #
straight-curve $-1 52.060363133469572 -32.116888538273386 0.45513854469358961 0 -0.48480960649040278 -0.87461971476443456 I I #
edge $-1 $500 34.854165602603267 $291 52.060363133469572 $413 $507 forward 7 unknown #
point $-1 52.060363133469572 -32.116888538273379 6.981186517345261 #
point $-1 52.060363133469572 -28.499441210995961 6.981186517345261 #
edge $-1 $508 1 $508 0 $294 $-1 forward 7 unknown #
vertex $-1 $295 $509 #
ellipse-curve $-1 38.295405108776535 -28.419445928534202 2.6712285623784942 0 -0.87461971476443456 0.48480960649040278 1.5 0 0 1 I I #
point $-1 39.795405108776535 -30.30816487463467 3.7181625310194333 #
edge $-1 $510 1 $510 0 $298 $-1 forward 7 unknown #
vertex $-1 $299 $511 #
ellipse-curve $-1 43.457264368036434 -28.419445928534202 2.6712285623784942 0 -0.87461971476443456 0.48480960649040278 1.5 0 0 1 I I #
point $-1 44.957264368036434 -30.30816487463467 3.7181625310194333 #
edge $-1 $512 1 $512 0 $302 $-1 forward 7 unknown #
vertex $-1 $303 $513 #
ellipse-curve $-1 48.619123627296332 -28.419445928534202 2.6712285623784942 0 -0.87461971476443456 0.48480960649040278 1.5 0 0 1 I I #
point $-1 50.119123627296332 -30.30816487463467 3.7181625310194333 #
plane-surface $-1 61.157872249519329 0 0 -1 0 0 0 0 1 forward_v I I I I #
coedge $-1 $311 $309 $313 $438 reversed $201 $-1 #
edge $-1 $324 -6.981186517345261 $440 6.981186517345261 $323 $514 forward 7 unknown #
vertex $-1 $438 $515 #
straight-curve $-1 -61.157872249519329 -32.116888538273379 0 0 0 -1 I I #
edge $-1 $436 -32.116888538273379 $440 32.116888538273379 $434 $516 forward 7 unknown #
straight-curve $-1 0 -32.116888538273379 -6.981186517345261 -1 0 0 I I #
vertex $-1 $316 $517 #
straight-curve $-1 0 32.116888538273379 -6.981186517345261 1 0 0 I I #
point $-1 61.157872249519329 32.116888538273379 -6.981186517345261 #
point $-1 61.157872249519329 -32.116888538273379 -6.981186517345261 #
straight-curve $-1 -61.157872249519329 0 6.981186517345261 0 -1 0 I I #
point $-1 -61.157872249519329 32.116888538273379 6.981186517345261 #
point $-1 -61.157872249519329 -32.116888538273379 6.981186517345261 #
straight-curve $-1 61.157872249519329 -32.116888538273379 0 0 0 -1 I I #
straight-curve $-1 61.157872249519329 32.116888538273379 0 0 0 -1 I I #
plane-surface $-1 0 -32.116888538273379 0 0 1 0 0 0 1 forward_v I I I I #
coedge $-1 $461 $335 $454 $518 reversed $220 $-1 #
coedge $-1 $335 $461 $453 $519 forward $220 $-1 #
edge $-1 $457 -32.116888538273379 $455 32.116888538273379 $335 $520 forward 7 unknown #
coedge $-1 $337 $336 $451 $519 reversed $134 $-1 #
coedge $-1 $339 $345 $450 $518 forward $346 $-1 #
vertex $-1 $452 $521 #
straight-curve $-1 -29.404963548136447 -32.116888538273379 3.981186517345261 1 0 0 I I #
vertex $-1 $452 $522 #
straight-curve $-1 -29.404963548136447 32.116888538273379 3.981186517345261 -1 0 0 I I #
point $-1 -56.461981943026458 32.116888538273379 3.981186517345261 #
point $-1 -56.461981943026458 -32.116888538273379 3.981186517345261 #
coedge $-1 $451 $450 $349 $462 reversed $220 $-1 #
edge $-1 $463 -32.116888538273379 $465 32.116888538273379 $461 $523 forward 7 unknown #
vertex $-1 $350 $524 #
straight-curve $-1 0 32.116888538273379 6.981186517345261 -1 0 0 I I #
vertex $-1 $462 $525 #
straight-curve $-1 0 -32.116888538273379 6.981186517345261 1 0 0 I I #
plane-surface $-1 61.157872249519329 0 0 -1 0 0 0 0 1 forward_v I I I I #
coedge $-1 $357 $367 $358 $471 reversed $237 $-1 #
edge $-1 $473 -4.2405932586726305 $368 -1.2405932586726305 $357 $526 forward 7 unknown #
coedge $-1 $359 $358 $372 $479 forward $142 $-1 #
edge $-1 $473 56.461981943026466 $482 61.157872249519329 $468 $527 forward 7 unknown #
edge $-1 $480 -61.157872249519329 $365 -56.461981943026466 $363 $528 forward 7 unknown #
vertex $-1 $471 $529 #
straight-curve $-1 56.461981943026466 0 6.981186517345261 0 -1 0 I I #
straight-curve $-1 56.461981943026466 0 3.981186517345261 0 1 0 I I #
point $-1 56.461981943026466 32.116888538273379 3.981186517345261 #
point $-1 56.461981943026466 32.116888538273379 6.981186517345261 #
point $-1 56.461981943026466 -32.116888538273379 3.981186517345261 #
edge $-1 $482 -32.116888538273379 $480 32.116888538273379 $372 $530 forward 7 unknown #
vertex $-1 $479 $531 #
straight-curve $-1 61.157872249519329 32.116888538273379 0 0 0 -1 I I #
vertex $-1 $479 $532 #
straight-curve $-1 61.157872249519329 -32.116888538273379 0 0 0 -1 I I #
coedge $-1 $380 $379 $387 $489 forward $150 $-1 #
edge $-1 $383 36.485671732585907 $492 56.461981943026458 $380 $533 forward 7 unknown #
straight-curve $-1 -36.485671732585907 32.116888538273379 64.773534203224287 0 0 -1 I I #
point $-1 -36.485671732585907 32.116888538273379 6.981186517345261 #
straight-curve $-1 -23.236913418903093 32.116888538273379 3.6250703735927203 -1 0 0 I I #
edge $-1 $388 -61.148463829631567 $492 -57.792347685879022 $484 $534 forward 7 unknown #
point $-1 -56.461981943026466 32.116888538273379 3.6250703735927203 #
point $-1 -36.485671732585907 32.116888538273379 3.6250703735927203 #
vertex $-1 $392 $535 #
straight-curve $-1 -56.461981943026458 0 6.981186517345261 0 -1 0 I I #
vertex $-1 $395 $536 #
point $-1 -49.754464740043446 28.126941207188434 3.2101387544527369 #
vertex $-1 $399 $537 #
point $-1 -41.193188935568926 28.126941207188434 3.2101387544527369 #
coedge $-1 $414 $413 $406 $499 forward $403 $-1 #
edge $-1 $500 22.896306734081325 $503 29.422354706732982 $498 $538 forward 7 unknown #
vertex $-1 $418 $539 #
straight-curve $-1 34.854165602603267 -69.548325051611016 6.981186517345261 0 -1 0 I I #
edge $-1 $503 13.125533418585057 $415 30.331730949451362 $414 $540 forward 7 unknown #
vertex $-1 $502 $541 #
straight-curve $-1 34.854165602603267 -32.116888538273386 0.45513854469358961 0 0.48480960649040278 0.87461971476443456 I I #
point $-1 34.854165602603267 -28.499441210995961 6.981186517345261 #
point $-1 52.060363133469572 -32.116888538273379 0.45513854469360243 #
straight-curve $-1 0 -32.116888538273379 6.981186517345261 1 0 0 I I #
vertex $-1 $421 $542 #
point $-1 39.795405108776535 -28.419445928534202 2.6712285623784942 #
vertex $-1 $425 $543 #
point $-1 44.957264368036434 -28.419445928534202 2.6712285623784942 #
vertex $-1 $429 $544 #
point $-1 50.119123627296332 -28.419445928534202 2.6712285623784942 #
straight-curve $-1 -61.157872249519329 32.116888538273379 0 0 0 -1 I I #
point $-1 -61.157872249519329 -32.116888538273379 -6.981186517345261 #
straight-curve $-1 -61.157872249519329 0 -6.981186517345261 0 1 0 I I #
point $-1 -61.157872249519329 32.116888538273379 -6.981186517345261 #
edge $-1 $465 -6.981186517345261 $455 -3.981186517345261 $450 $545 forward 7 unknown #
edge $-1 $463 -6.981186517345261 $457 -3.981186517345261 $453 $546 forward 7 unknown #
straight-curve $-1 -61.157872249519329 0 3.981186517345261 0 -1 0 I I #
point $-1 -61.157872249519329 -32.116888538273379 3.981186517345261 #
point $-1 -61.157872249519329 32.116888538273379 3.981186517345261 #
straight-curve $-1 -61.157872249519329 0 6.981186517345261 0 -1 0 I I #
point $-1 -61.157872249519329 32.116888538273379 6.981186517345261 #
point $-1 -61.157872249519329 -32.116888538273379 6.981186517345261 #
straight-curve $-1 56.461981943026466 -32.116888538273379 2.7405932586726305 0 0 -1 I I #
straight-curve $-1 0 -32.116888538273379 6.981186517345261 1 0 0 I I #
straight-curve $-1 0 32.116888538273379 6.981186517345261 -1 0 0 I I #
point $-1 56.461981943026466 -32.116888538273379 6.981186517345261 #
straight-curve $-1 61.157872249519329 0 6.981186517345261 0 1 0 I I #
point $-1 61.157872249519329 32.116888538273379 6.981186517345261 #
point $-1 61.157872249519329 -32.116888538273379 6.981186517345261 #
straight-curve $-1 0 32.116888538273379 6.981186517345261 -1 0 0 I I #
straight-curve $-1 -56.461981943026466 32.116888538273379 64.773534203224287 0 0 1 I I #
point $-1 -56.461981943026458 32.116888538273379 6.981186517345261 #
point $-1 -50.754464740043446 27.338930445327296 2.5944772896922488 #
point $-1 -42.193188935568926 27.338930445327296 2.5944772896922488 #
straight-curve $-1 34.854165602603267 -32.116888538273379 29.877493251426586 0 0 -1 I I #
point $-1 34.854165602603267 -32.116888538273379 6.981186517345261 #
straight-curve $-1 21.72863218401821 -32.116888538273379 0.45513854469361203 1 0 0 I I #
point $-1 34.854165602603267 -32.116888538273379 0.45513854469360243 #
point $-1 38.295405108776535 -27.107516356387549 1.9440141526428902 #
point $-1 43.457264368036434 -27.107516356387549 1.9440141526428902 #
point $-1 48.619123627296332 -27.107516356387549 1.9440141526428902 #
straight-curve $-1 -61.157872249519329 -32.116888538273379 0 0 0 -1 I I #
straight-curve $-1 -61.157872249519329 32.116888538273379 0 0 0 -1 I I #
End-of-ACIS-data 