500 0 7 0           
7 Unknown 11 ACIS 5.0 NT 24 Fri Mar 26 15:13:18 1999 
-1 9.9999999999999995e-007 1e-010 
body $-1 $7 $-1 $8 #
body $-1 $9 $-1 $10 #
body $-1 $11 $-1 $12 #
body $-1 $13 $-1 $14 #
body $-1 $15 $-1 $16 #
body $-1 $17 $-1 $18 #
body $-1 $19 $-1 $20 #
lump $-1 $-1 $21 $0 #
transform $-1 1 0 0 0 1 0 0 0 1 79.219946897793506 38.178710026444477 17.161602221121882 1 rotate no_reflect no_shear #
lump $-1 $-1 $22 $1 #
transform $-1 1 0 0 0 1 0 0 0 1 79.219946897793506 38.178710026444477 17.161602221121882 1 rotate no_reflect no_shear #
lump $-1 $-1 $23 $2 #
transform $-1 1 0 0 0 1 0 0 0 1 79.219946897793506 38.178710026444477 17.161602221121882 1 rotate no_reflect no_shear #
lump $-1 $-1 $24 $3 #
transform $-1 1 0 0 0 1 0 0 0 1 79.219946897793506 38.178710026444477 17.161602221121882 1 rotate no_reflect no_shear #
lump $-1 $-1 $25 $4 #
transform $-1 1 0 0 0 1 0 0 0 1 79.219946897793506 38.178710026444477 17.161602221121882 1 rotate no_reflect no_shear #
lump $-1 $-1 $26 $5 #
transform $-1 1 0 0 0 1 0 0 0 1 79.219946897793506 38.178710026444477 17.161602221121882 1 rotate no_reflect no_shear #
lump $-1 $-1 $27 $6 #
transform $-1 1 0 0 0 1 0 0 0 1 79.219946897793506 38.178710026444477 17.161602221121882 1 rotate no_reflect no_shear #
shell $-1 $-1 $-1 $28 $-1 $7 #
shell $-1 $-1 $-1 $29 $-1 $9 #
shell $-1 $-1 $-1 $30 $-1 $11 #
shell $-1 $-1 $-1 $31 $-1 $13 #
shell $-1 $-1 $-1 $32 $-1 $15 #
shell $-1 $-1 $-1 $33 $-1 $17 #
shell $-1 $-1 $-1 $34 $-1 $19 #
face $-1 $35 $36 $21 $-1 $37 forward single #
face $-1 $38 $39 $22 $-1 $40 reversed single #
face $-1 $41 $42 $23 $-1 $43 forward single #
face $-1 $44 $45 $24 $-1 $46 forward single #
face $-1 $47 $48 $25 $-1 $49 reversed single #
face $-1 $50 $51 $26 $-1 $52 forward single #
face $-1 $53 $54 $27 $-1 $55 forward single #
face $-1 $56 $57 $21 $-1 $58 reversed single #
loop $-1 $-1 $59 $28 #
plane-surface $-1 0 0 17.161602221121882 0 0 1 1 0 0 forward_v I I I I #
face $-1 $60 $61 $22 $-1 $62 reversed single #
loop $-1 $-1 $63 $29 #
plane-surface $-1 37.032006916192607 137.21297524842129 157.03082997436644 1 0 0 0 -0.86602541151947299 -0.49999998660252726 forward_v I I I I #
face $-1 $64 $65 $23 $-1 $66 forward single #
loop $-1 $67 $68 $30 #
cone-surface $-1 49.085704053792853 35.285966849538674 13.665415115093454 0 -0.86602541151947299 -0.49999998660252726 1.5 0 0 1 I I 0 1 1.5 forward I I I I #
face $-1 $69 $70 $24 $-1 $71 forward single #
loop $-1 $72 $73 $31 #
cone-surface $-1 67.166249760193239 35.285966849538674 13.665415115093454 0 -0.86602541151947299 -0.49999998660252726 1.5 0 0 1 I I 0 1 1.5 forward I I I I #
face $-1 $74 $75 $25 $-1 $76 reversed single #
loop $-1 $-1 $77 $32 #
plane-surface $-1 58.12597690699306 -38.178710026444492 11.683419075398646 0 -0.86602541151947299 0.49999998660252726 1 0 0 forward_v I I I I #
face $-1 $78 $79 $26 $-1 $80 forward single #
loop $-1 $81 $82 $33 #
cone-surface $-1 49.085704053792853 -35.285966849538674 13.665415115093436 0 0.86602541151947299 -0.49999998660252726 1.5 0 0 1 I I 0 1 1.5 forward I I I I #
face $-1 $83 $84 $27 $-1 $85 forward single #
loop $-1 $86 $87 $34 #
cone-surface $-1 67.166249760193239 -35.285966849538674 13.665415115093436 0 0.86602541151947299 -0.49999998660252726 1.5 0 0 1 I I 0 1 1.5 forward I I I I #
face $-1 $88 $89 $21 $-1 $90 reversed single #
loop $-1 $-1 $91 $35 #
plane-surface $-1 0 0 -17.161602221121882 0 0 1 1 0 0 forward_v I I I I #
coedge $-1 $92 $93 $94 $95 forward $36 $-1 #
face $-1 $96 $97 $22 $-1 $98 forward single #
loop $-1 $-1 $99 $38 #
plane-surface $-1 58.12597690699306 1.0229964573227335e-006 77.810885199267091 0 0.86602541151947299 0.49999998660252726 1 0 0 forward_v I I I I #
coedge $-1 $100 $101 $102 $103 reversed $39 $-1 #
face $-1 $-1 $104 $23 $-1 $105 forward single #
loop $-1 $106 $107 $41 #
cone-surface $-1 49.085704053792853 33.325119814421384 12.533319591974724 0 -0.86602541151947299 -0.49999998660252726 0.75 0 0 1 I I -0.70710678118654757 0.70710678118654757 0.75 forward I I I I #
loop $-1 $-1 $108 $30 #
coedge $-1 $68 $68 $109 $110 reversed $42 $-1 #
face $-1 $-1 $111 $24 $-1 $112 forward single #
loop $-1 $113 $114 $44 #
cone-surface $-1 67.166249760193239 33.325119814421384 12.533319591974724 0 -0.86602541151947299 -0.49999998660252726 0.75 0 0 1 I I -0.70710678118654757 0.70710678118654757 0.75 forward I I I I #
loop $-1 $-1 $115 $31 #
coedge $-1 $73 $73 $116 $117 reversed $45 $-1 #
face $-1 $118 $119 $25 $-1 $120 reversed single #
loop $-1 $-1 $121 $47 #
plane-surface $-1 37.032006916192607 -175.39168425186932 90.903363850497996 1 0 0 0 0.86602541151947299 -0.49999998660252726 forward_v I I I I #
coedge $-1 $122 $123 $124 $125 reversed $48 $-1 #
face $-1 $-1 $126 $26 $-1 $127 forward single #
loop $-1 $128 $129 $50 #
cone-surface $-1 49.085704053792853 -33.325119814421384 12.533319591974706 0 0.86602541151947299 -0.49999998660252726 0.75 0 0 1 I I -0.70710678118654757 0.70710678118654757 0.75 forward I I I I #
loop $-1 $-1 $130 $33 #
coedge $-1 $82 $82 $131 $132 reversed $51 $-1 #
face $-1 $-1 $133 $27 $-1 $134 forward single #
loop $-1 $135 $136 $53 #
cone-surface $-1 67.166249760193239 -33.325119814421384 12.533319591974706 0 0.86602541151947299 -0.49999998660252726 0.75 0 0 1 I I -0.70710678118654757 0.70710678118654757 0.75 forward I I I I #
loop $-1 $-1 $137 $34 #
coedge $-1 $87 $87 $138 $139 reversed $54 $-1 #
face $-1 $140 $141 $21 $-1 $142 reversed single #
loop $-1 $-1 $143 $56 #
plane-surface $-1 0 -38.178710026444477 0 0 1 0 0 0 1 forward_v I I I I #
coedge $-1 $144 $145 $146 $147 forward $57 $-1 #
coedge $-1 $148 $59 $149 $150 forward $36 $-1 #
coedge $-1 $59 $148 $151 $152 forward $36 $-1 #
coedge $-1 $153 $154 $59 $95 reversed $155 $-1 #
edge $-1 $156 -38.178710026444477 $157 38.178710026444477 $94 $158 forward 7 unknown #
face $-1 $159 $160 $22 $-1 $161 reversed single #
loop $-1 $-1 $102 $60 #
plane-surface $-1 0 0 17.161602221121882 0 0 1 1 0 0 forward_v I I I I #
coedge $-1 $162 $163 $164 $165 reversed $61 $-1 #
coedge $-1 $101 $63 $166 $167 reversed $39 $-1 #
coedge $-1 $63 $100 $162 $168 reversed $39 $-1 #
coedge $-1 $164 $169 $63 $103 forward $97 $-1 #
edge $-1 $170 30.427777597766166 $171 33.590607998622367 $102 $172 forward 7 unknown #
loop $-1 $-1 $109 $64 #
plane-surface $-1 58.12597690699306 1.0229964573227335e-006 77.810885199267091 0 0.86602541151947299 0.49999998660252726 1 0 0 forward_v I I I I #
loop $-1 $-1 $173 $41 #
coedge $-1 $107 $107 $108 $174 reversed $65 $-1 #
coedge $-1 $108 $108 $107 $174 forward $67 $-1 #
coedge $-1 $109 $109 $68 $110 forward $104 $-1 #
edge $-1 $175 7.0826460329024354e-016 $175 6.2831853071796013 $109 $176 forward 7 unknown #
loop $-1 $-1 $116 $69 #
plane-surface $-1 58.12597690699306 1.0229964573227335e-006 77.810885199267091 0 0.86602541151947299 0.49999998660252726 1 0 0 forward_v I I I I #
loop $-1 $-1 $177 $44 #
coedge $-1 $114 $114 $115 $178 reversed $70 $-1 #
coedge $-1 $115 $115 $114 $178 forward $72 $-1 #
coedge $-1 $116 $116 $73 $117 forward $111 $-1 #
edge $-1 $179 7.0826460329024354e-016 $179 6.2831853071796013 $116 $180 forward 7 unknown #
face $-1 $181 $182 $25 $-1 $183 reversed single #
loop $-1 $-1 $184 $74 #
plane-surface $-1 0 -38.178710026444477 0 0 1 0 0 0 1 forward_v I I I I #
coedge $-1 $185 $186 $187 $188 reversed $75 $-1 #
coedge $-1 $189 $77 $190 $191 reversed $48 $-1 #
coedge $-1 $77 $189 $185 $192 forward $48 $-1 #
coedge $-1 $187 $193 $77 $125 forward $194 $-1 #
edge $-1 $195 -50.156958444296976 $196 -7.9690184626960772 $124 $197 forward 7 unknown #
loop $-1 $-1 $131 $78 #
plane-surface $-1 58.12597690699306 -38.178710026444492 11.683419075398646 0 -0.86602541151947299 0.49999998660252726 1 0 0 forward_v I I I I #
loop $-1 $-1 $198 $50 #
coedge $-1 $129 $129 $130 $199 reversed $79 $-1 #
coedge $-1 $130 $130 $129 $199 forward $81 $-1 #
coedge $-1 $131 $131 $82 $132 forward $126 $-1 #
edge $-1 $200 -1.7338447118549318e-015 $200 6.2831853071795987 $131 $201 forward 7 unknown #
loop $-1 $-1 $138 $83 #
plane-surface $-1 58.12597690699306 -38.178710026444492 11.683419075398646 0 -0.86602541151947299 0.49999998660252726 1 0 0 forward_v I I I I #
loop $-1 $-1 $202 $53 #
coedge $-1 $136 $136 $137 $203 reversed $84 $-1 #
coedge $-1 $137 $137 $136 $203 forward $86 $-1 #
coedge $-1 $138 $138 $87 $139 forward $133 $-1 #
edge $-1 $204 -1.7338447118549318e-015 $204 6.2831853071795987 $138 $205 forward 7 unknown #
face $-1 $206 $207 $21 $-1 $208 reversed single #
loop $-1 $-1 $209 $88 #
plane-surface $-1 -79.219946897793506 0 0 1 0 0 0 0 -1 forward_v I I I I #
coedge $-1 $210 $151 $211 $212 forward $89 $-1 #
coedge $-1 $213 $91 $210 $214 forward $57 $-1 #
coedge $-1 $91 $213 $215 $216 forward $57 $-1 #
coedge $-1 $154 $153 $91 $147 reversed $155 $-1 #
edge $-1 $217 -38.178710026444477 $218 38.178710026444477 $146 $219 forward 7 unknown #
coedge $-1 $93 $92 $220 $221 forward $36 $-1 #
coedge $-1 $222 $223 $92 $150 reversed $207 $-1 #
edge $-1 $157 -79.219946897793506 $224 79.219946897793506 $149 $225 forward 7 unknown #
coedge $-1 $143 $226 $93 $152 reversed $89 $-1 #
edge $-1 $227 -79.219946897793506 $156 79.219946897793506 $151 $228 forward 7 unknown #
coedge $-1 $146 $94 $226 $229 forward $155 $-1 #
coedge $-1 $94 $146 $222 $230 reversed $155 $-1 #
loop $-1 $-1 $153 $206 #
vertex $-1 $95 $231 #
vertex $-1 $95 $232 #
straight-curve $-1 79.219946897793506 0 17.161602221121882 0 1 0 I I #
face $-1 $-1 $233 $22 $-1 $234 reversed single #
loop $-1 $-1 $166 $96 #
plane-surface $-1 0 38.178710026444477 0 0 -1 0 0 0 -1 forward_v I I I I #
coedge $-1 $235 $99 $101 $168 forward $61 $-1 #
coedge $-1 $99 $235 $236 $237 reversed $61 $-1 #
coedge $-1 $238 $102 $99 $165 forward $97 $-1 #
edge $-1 $171 7.9690184626960772 $239 50.156958444296976 $164 $240 forward 7 unknown #
coedge $-1 $241 $242 $100 $167 forward $160 $-1 #
edge $-1 $243 -66.831995911784546 $170 -61.353812766061338 $166 $244 forward 7 unknown #
edge $-1 $171 70.031759081680804 $243 76.357420052888955 $101 $245 forward 7 unknown #
coedge $-1 $102 $238 $241 $246 forward $97 $-1 #
vertex $-1 $167 $247 #
vertex $-1 $103 $248 #
straight-curve $-1 37.032006916192607 68.606487624210644 17.161602221121882 0 -1 0 I I #
coedge $-1 $173 $173 $-1 $249 reversed $106 $-1 #
edge $-1 $250 0 $250 6.2831853071796004 $107 $251 forward 7 unknown #
vertex $-1 $110 $252 #
ellipse-curve $-1 49.085704053792853 36.597294826016373 14.422510648260294 0 0.86602541151947299 0.49999998660252726 1.5 0 0 1 I I #
coedge $-1 $177 $177 $-1 $253 reversed $113 $-1 #
edge $-1 $254 0 $254 6.2831853071796004 $114 $255 forward 7 unknown #
vertex $-1 $117 $256 #
ellipse-curve $-1 67.166249760193239 36.597294826016373 14.422510648260294 0 0.86602541151947299 0.49999998660252726 1.5 0 0 1 I I #
face $-1 $-1 $194 $25 $-1 $257 forward single #
loop $-1 $-1 $190 $118 #
plane-surface $-1 79.219946897793506 0 0 -1 0 0 0 0 1 forward_v I I I I #
coedge $-1 $258 $259 $186 $260 forward $119 $-1 #
coedge $-1 $186 $121 $123 $192 reversed $75 $-1 #
coedge $-1 $121 $185 $184 $260 reversed $75 $-1 #
coedge $-1 $261 $124 $121 $188 forward $194 $-1 #
edge $-1 $196 -52.679962500346392 $262 -49.517132099490183 $187 $263 forward 7 unknown #
coedge $-1 $123 $122 $258 $264 reversed $48 $-1 #
coedge $-1 $265 $266 $122 $191 forward $182 $-1 #
edge $-1 $267 -4.4856083444986972 $195 1.8400526267094577 $190 $268 forward 7 unknown #
edge $-1 $269 2.8642609447069912e-014 $196 6.3256609712081833 $185 $270 forward 7 unknown #
coedge $-1 $124 $261 $265 $271 forward $194 $-1 #
loop $-1 $-1 $187 $181 #
vertex $-1 $191 $272 #
vertex $-1 $125 $273 #
straight-curve $-1 29.06298845349653 -35.015879625588269 17.161602221121882 -1 0 0 I I #
coedge $-1 $198 $198 $-1 $274 reversed $128 $-1 #
edge $-1 $275 0 $275 6.2831853071796004 $129 $276 forward 7 unknown #
vertex $-1 $132 $277 #
ellipse-curve $-1 49.085704053792853 -36.597294826016373 14.422510648260278 0 -0.86602541151947299 0.49999998660252726 1.5 0 0 1 I I #
coedge $-1 $202 $202 $-1 $278 reversed $135 $-1 #
edge $-1 $279 0 $279 6.2831853071796004 $136 $280 forward 7 unknown #
vertex $-1 $139 $281 #
ellipse-curve $-1 67.166249760193239 -36.597294826016373 14.422510648260278 0 -0.86602541151947299 0.49999998660252726 1.5 0 0 1 I I #
face $-1 $-1 $155 $21 $-1 $282 reversed single #
loop $-1 $-1 $222 $140 #
plane-surface $-1 0 38.178710026444477 0 0 -1 0 0 0 -1 forward_v I I I I #
coedge $-1 $283 $220 $223 $284 forward $141 $-1 #
coedge $-1 $226 $143 $144 $214 reversed $89 $-1 #
coedge $-1 $220 $283 $143 $212 reversed $141 $-1 #
edge $-1 $227 -17.161602221121882 $285 17.161602221121882 $211 $286 forward 7 unknown #
coedge $-1 $145 $144 $283 $287 forward $57 $-1 #
edge $-1 $218 -79.219946897793506 $285 79.219946897793506 $210 $288 forward 7 unknown #
coedge $-1 $223 $222 $145 $216 reversed $207 $-1 #
edge $-1 $289 -79.219946897793506 $217 79.219946897793506 $215 $290 forward 7 unknown #
vertex $-1 $147 $291 #
vertex $-1 $229 $292 #
straight-curve $-1 79.219946897793506 0 -17.161602221121882 0 -1 0 I I #
coedge $-1 $209 $211 $148 $221 reversed $141 $-1 #
edge $-1 $224 -38.178710026444477 $227 38.178710026444477 $220 $293 forward 7 unknown #
coedge $-1 $215 $149 $154 $230 forward $207 $-1 #
coedge $-1 $149 $215 $209 $284 reversed $207 $-1 #
vertex $-1 $150 $294 #
straight-curve $-1 0 38.178710026444477 17.161602221121882 -1 0 0 I I #
coedge $-1 $151 $210 $153 $229 reversed $89 $-1 #
vertex $-1 $221 $295 #
straight-curve $-1 0 -38.178710026444477 17.161602221121882 1 0 0 I I #
edge $-1 $156 -17.161602221121882 $218 17.161602221121882 $153 $296 forward 7 unknown #
edge $-1 $157 -17.161602221121882 $217 17.161602221121882 $154 $297 forward 7 unknown #
point $-1 79.219946897793506 -38.178710026444477 17.161602221121882 #
point $-1 79.219946897793506 38.178710026444477 17.161602221121882 #
loop $-1 $-1 $236 $159 #
plane-surface $-1 79.219946897793506 0 0 -1 0 0 0 0 1 forward_v I I I I #
coedge $-1 $163 $162 $242 $298 reversed $61 $-1 #
coedge $-1 $299 $300 $163 $237 forward $233 $-1 #
edge $-1 $239 36.338657399735041 $301 42.664318370943185 $236 $302 forward 7 unknown #
coedge $-1 $169 $164 $300 $303 forward $97 $-1 #
vertex $-1 $303 $304 #
straight-curve $-1 29.06298845349653 35.015879625588276 17.161602221121882 1 0 0 I I #
coedge $-1 $305 $166 $169 $246 reversed $160 $-1 #
coedge $-1 $166 $305 $235 $298 forward $160 $-1 #
vertex $-1 $167 $306 #
straight-curve $-1 37.032006916192607 38.178710026444477 78.51541498718322 0 0 1 I I #
straight-curve $-1 37.032006916192607 1.0229964573227335e-006 77.810885199267091 0 0.49999998660252726 -0.86602541151947299 I I #
edge $-1 $307 -79.219946897793506 $170 -37.032006916192607 $241 $308 forward 7 unknown #
point $-1 37.032006916192607 38.178710026444477 17.161602221121882 #
point $-1 37.032006916192607 35.015879625588276 17.161602221121882 #
edge $-1 $309 1 $309 0 $173 $-1 forward 7 unknown #
vertex $-1 $174 $310 #
ellipse-curve $-1 49.085704053792853 33.974638873060989 12.908319581926619 0 0.86602541151947299 0.49999998660252726 1.5 0 0 1 I I #
point $-1 50.585704053792853 36.597294826016366 14.422510648260289 #
edge $-1 $311 1 $311 0 $177 $-1 forward 7 unknown #
vertex $-1 $178 $312 #
ellipse-curve $-1 67.166249760193239 33.974638873060989 12.908319581926619 0 0.86602541151947299 0.49999998660252726 1.5 0 0 1 I I #
point $-1 68.666249760193239 36.597294826016366 14.422510648260289 #
plane-surface $-1 0 0 17.161602221121882 0 0 1 1 0 0 forward_v I I I I #
coedge $-1 $313 $184 $189 $264 forward $119 $-1 #
coedge $-1 $184 $313 $261 $314 reversed $119 $-1 #
edge $-1 $262 28.290079704127116 $269 33.768262849850331 $184 $315 forward 7 unknown #
coedge $-1 $193 $187 $259 $314 forward $194 $-1 #
vertex $-1 $314 $316 #
straight-curve $-1 37.032006916192607 -87.695842125934661 17.161602221121882 0 -1 0 I I #
edge $-1 $269 7.9690184626960772 $267 50.156958444296976 $258 $317 forward 7 unknown #
coedge $-1 $266 $190 $193 $271 reversed $182 $-1 #
coedge $-1 $190 $265 $313 $318 forward $182 $-1 #
vertex $-1 $191 $319 #
straight-curve $-1 79.219946897793506 -35.935905914290942 15.568069887858336 0 0.49999998660252726 0.86602541151947299 I I #
vertex $-1 $264 $320 #
straight-curve $-1 37.032006916192607 -38.178710026444492 11.683419075398646 0 0.49999998660252726 0.86602541151947299 I I #
edge $-1 $321 -38.178710026444477 $195 -35.015879625588269 $265 $322 forward 7 unknown #
point $-1 79.219946897793506 -35.015879625588269 17.161602221121882 #
point $-1 37.032006916192607 -35.015879625588269 17.161602221121882 #
edge $-1 $323 1 $323 0 $198 $-1 forward 7 unknown #
vertex $-1 $199 $324 #
ellipse-curve $-1 49.085704053792853 -33.974638873060989 12.908319581926602 0 -0.86602541151947299 0.49999998660252726 1.5 0 0 1 I I #
point $-1 50.585704053792853 -36.597294826016366 14.422510648260271 #
edge $-1 $325 1 $325 0 $202 $-1 forward 7 unknown #
vertex $-1 $203 $326 #
ellipse-curve $-1 67.166249760193239 -33.974638873060989 12.908319581926602 0 -0.86602541151947299 0.49999998660252726 1.5 0 0 1 I I #
point $-1 68.666249760193239 -36.597294826016366 14.422510648260271 #
plane-surface $-1 79.219946897793506 0 0 -1 0 0 0 0 1 forward_v I I I I #
coedge $-1 $211 $209 $213 $287 reversed $141 $-1 #
edge $-1 $224 -17.161602221121882 $289 17.161602221121882 $223 $327 forward 7 unknown #
vertex $-1 $287 $328 #
straight-curve $-1 -79.219946897793506 -38.178710026444477 0 0 0 -1 I I #
edge $-1 $285 -38.178710026444477 $289 38.178710026444477 $283 $329 forward 7 unknown #
straight-curve $-1 0 -38.178710026444477 -17.161602221121882 -1 0 0 I I #
vertex $-1 $216 $330 #
straight-curve $-1 0 38.178710026444477 -17.161602221121882 1 0 0 I I #
point $-1 79.219946897793506 38.178710026444477 -17.161602221121882 #
point $-1 79.219946897793506 -38.178710026444477 -17.161602221121882 #
straight-curve $-1 -79.219946897793506 0 17.161602221121882 0 -1 0 I I #
point $-1 -79.219946897793506 38.178710026444477 17.161602221121882 #
point $-1 -79.219946897793506 -38.178710026444477 17.161602221121882 #
straight-curve $-1 79.219946897793506 -38.178710026444477 0 0 0 -1 I I #
straight-curve $-1 79.219946897793506 38.178710026444477 0 0 0 -1 I I #
edge $-1 $301 -50.156958444296976 $243 -7.9690184626960772 $242 $331 forward 7 unknown #
coedge $-1 $300 $236 $305 $332 reversed $233 $-1 #
coedge $-1 $236 $299 $238 $303 reversed $233 $-1 #
vertex $-1 $237 $333 #
straight-curve $-1 79.219946897793506 16.846551412566928 48.631802949792558 0 0.49999998660252726 -0.86602541151947299 I I #
edge $-1 $239 35.015879625588276 $307 38.178710026444477 $300 $334 forward 7 unknown #
point $-1 79.219946897793506 35.015879625588276 17.161602221121882 #
coedge $-1 $242 $241 $299 $332 forward $160 $-1 #
point $-1 37.032006916192607 38.178710026444477 11.683419075398675 #
vertex $-1 $303 $335 #
straight-curve $-1 0 38.178710026444477 17.161602221121882 -1 0 0 I I #
vertex $-1 $249 $336 #
point $-1 50.585704053792853 33.974638873060989 12.908319581926619 #
vertex $-1 $253 $337 #
point $-1 68.666249760193239 33.974638873060989 12.908319581926619 #
coedge $-1 $259 $258 $266 $318 reversed $119 $-1 #
edge $-1 $262 37.032006916192607 $321 79.219946897793506 $259 $338 forward 7 unknown #
straight-curve $-1 37.032006916192607 -38.178710026444477 45.451681925248998 0 0 -1 I I #
point $-1 37.032006916192607 -38.178710026444477 17.161602221121882 #
straight-curve $-1 29.06298845349653 -38.178710026444477 11.683419075398671 1 0 0 I I #
edge $-1 $321 -17.161602221121882 $267 -11.683419075398671 $266 $339 forward 7 unknown #
point $-1 79.219946897793506 -38.178710026444477 11.683419075398671 #
point $-1 37.032006916192607 -38.178710026444477 11.683419075398671 #
vertex $-1 $271 $340 #
straight-curve $-1 79.219946897793506 0 17.161602221121882 0 1 0 I I #
vertex $-1 $274 $341 #
point $-1 50.585704053792853 -33.974638873060989 12.908319581926602 #
vertex $-1 $278 $342 #
point $-1 68.666249760193239 -33.974638873060989 12.908319581926602 #
straight-curve $-1 -79.219946897793506 38.178710026444477 0 0 0 -1 I I #
point $-1 -79.219946897793506 -38.178710026444477 -17.161602221121882 #
straight-curve $-1 -79.219946897793506 0 -17.161602221121882 0 1 0 I I #
point $-1 -79.219946897793506 38.178710026444477 -17.161602221121882 #
straight-curve $-1 29.06298845349653 38.178710026444477 11.683419075398678 -1 0 0 I I #
edge $-1 $307 -17.161602221121882 $301 -11.683419075398675 $299 $343 forward 7 unknown #
point $-1 79.219946897793506 38.178710026444477 11.683419075398675 #
straight-curve $-1 79.219946897793506 0 17.161602221121882 0 1 0 I I #
point $-1 79.219946897793506 38.178710026444477 17.161602221121882 #
point $-1 49.085704053792853 32.67560075578178 12.158319602022829 #
point $-1 67.166249760193239 32.67560075578178 12.158319602022829 #
straight-curve $-1 0 -38.178710026444477 17.161602221121882 1 0 0 I I #
straight-curve $-1 79.219946897793506 -38.178710026444477 0 0 0 -1 I I #
point $-1 79.219946897793506 -38.178710026444477 17.161602221121882 #
point $-1 49.085704053792853 -32.67560075578178 12.158319602022811 #
point $-1 67.166249760193239 -32.67560075578178 12.158319602022811 #
straight-curve $-1 79.219946897793506 38.178710026444477 0 0 0 -1 I I #
End-of-ACIS-data 