500 0 8 0           
7 Unknown 11 ACIS 5.0 NT 24 Fri Mar 26 15:21:27 1999 
-1 9.9999999999999995e-007 1e-010 
body $-1 $8 $-1 $9 #
body $-1 $10 $-1 $11 #
body $-1 $12 $-1 $13 #
body $-1 $14 $-1 $15 #
body $-1 $16 $-1 $17 #
body $-1 $18 $-1 $19 #
body $-1 $20 $-1 $21 #
body $-1 $22 $-1 $23 #
lump $-1 $-1 $24 $0 #
transform $-1 1 0 0 0 1 0 0 0 1 72.123783074434641 30.739386582467407 11.669934607071744 1 rotate no_reflect no_shear #
lump $-1 $-1 $25 $1 #
transform $-1 1 0 0 0 1 0 0 0 1 72.123783074434641 30.739386582467407 11.669934607071744 1 rotate no_reflect no_shear #
lump $-1 $-1 $26 $2 #
transform $-1 1 0 0 0 1 0 0 0 1 72.123783074434641 30.739386582467407 11.669934607071744 1 rotate no_reflect no_shear #
lump $-1 $-1 $27 $3 #
transform $-1 1 0 0 0 1 0 0 0 1 72.123783074434641 30.739386582467407 11.669934607071744 1 rotate no_reflect no_shear #
lump $-1 $-1 $28 $4 #
transform $-1 1 0 0 0 1 0 0 0 1 72.123783074434641 30.739386582467407 11.669934607071744 1 rotate no_reflect no_shear #
lump $-1 $-1 $29 $5 #
transform $-1 1 0 0 0 1 0 0 0 1 72.123783074434641 30.739386582467407 11.669934607071744 1 rotate no_reflect no_shear #
lump $-1 $-1 $30 $6 #
transform $-1 1 0 0 0 1 0 0 0 1 72.123783074434641 30.739386582467407 11.669934607071744 1 rotate no_reflect no_shear #
lump $-1 $-1 $31 $7 #
transform $-1 1 0 0 0 1 0 0 0 1 72.123783074434641 30.739386582467407 11.669934607071744 1 rotate no_reflect no_shear #
shell $-1 $-1 $-1 $32 $-1 $8 #
shell $-1 $-1 $-1 $33 $-1 $10 #
shell $-1 $-1 $-1 $34 $-1 $12 #
shell $-1 $-1 $-1 $35 $-1 $14 #
shell $-1 $-1 $-1 $36 $-1 $16 #
shell $-1 $-1 $-1 $37 $-1 $18 #
shell $-1 $-1 $-1 $38 $-1 $20 #
shell $-1 $-1 $-1 $39 $-1 $22 #
face $-1 $40 $41 $24 $-1 $42 forward single #
face $-1 $43 $44 $25 $-1 $45 forward single #
face $-1 $46 $47 $26 $-1 $48 reversed single #
face $-1 $49 $50 $27 $-1 $51 forward single #
face $-1 $52 $53 $28 $-1 $54 forward single #
face $-1 $55 $56 $29 $-1 $57 forward single #
face $-1 $58 $59 $30 $-1 $60 reversed single #
face $-1 $61 $62 $31 $-1 $63 forward single #
face $-1 $64 $65 $24 $-1 $66 reversed single #
loop $-1 $-1 $67 $32 #
plane-surface $-1 0 0 11.669934607071744 0 0 1 1 0 0 forward_v I I I I #
face $-1 $68 $69 $25 $-1 $70 reversed single #
loop $-1 $-1 $71 $33 #
plane-surface $-1 0 -23.90412492379356 -8.6051299173627331 0 0 1 1 0 0 forward_v I I I I #
face $-1 $72 $73 $26 $-1 $74 reversed single #
loop $-1 $-1 $75 $34 #
plane-surface $-1 -177.61977571911575 -17.068863265119717 103.47293732455528 0 1 0 -0.73135370988377701 0 0.68199835119979291 forward_v I I I I #
face $-1 $76 $77 $27 $-1 $78 forward single #
loop $-1 $79 $80 $35 #
cone-surface $-1 -68.581684186763127 -15.517770001716086 7.9382238872376973 0.73135370988377701 0 -0.68199835119979291 0.34099917559989645 0 0.36567685494188851 1 I I 0 1 0.5 forward I I I I #
face $-1 $81 $82 $28 $-1 $83 forward single #
loop $-1 $84 $85 $36 #
cone-surface $-1 -68.581684186763127 -13.19113010661064 7.9382238872376973 0.73135370988377701 0 -0.68199835119979291 0.34099917559989645 0 0.36567685494188851 1 I I 0 1 0.5 forward I I I I #
face $-1 $86 $87 $29 $-1 $88 forward single #
loop $-1 $89 $90 $37 #
cone-surface $-1 -68.581684186763127 -10.864490211505192 7.9382238872376973 0.73135370988377701 0 -0.68199835119979291 0.34099917559989645 0 0.36567685494188851 1 I I 0 1 0.5 forward I I I I #
face $-1 $91 $92 $30 $-1 $93 reversed single #
loop $-1 $-1 $94 $38 #
plane-surface $-1 50.800306368699708 22.986888829128631 204.07875068527204 0 -1 0 -0.62932039886446345 0 -0.77714595512881146 forward_v I I I I #
face $-1 $95 $96 $31 $-1 $97 forward single #
loop $-1 $98 $99 $39 #
cone-surface $-1 65.015782479346072 17.891404344397973 5.6406475894377763 -0.62932039886446345 0 -0.77714595512881146 1.1657189326932171 0 -0.94398059829669512 1 I I 0 1 1.5 forward I I I I #
face $-1 $100 $101 $24 $-1 $102 reversed single #
loop $-1 $-1 $103 $40 #
plane-surface $-1 0 0 -11.669934607071744 0 0 1 1 0 0 forward_v I I I I #
coedge $-1 $104 $105 $106 $107 forward $41 $-1 #
face $-1 $108 $109 $25 $-1 $110 reversed single #
loop $-1 $-1 $111 $43 #
plane-surface $-1 0 -17.068863265119717 -10.137532262217238 0 -1 0 0 0 -1 forward_v I I I I #
coedge $-1 $112 $113 $114 $115 reversed $44 $-1 #
face $-1 $116 $117 $26 $-1 $118 reversed single #
loop $-1 $-1 $119 $46 #
plane-surface $-1 -72.12378307443467 -13.19113010661064 5.0963350464433574 -0.73135370988377701 0 0.68199835119979291 0.68199835119979291 0 0.73135370988377701 forward_v I I I I #
coedge $-1 $120 $121 $122 $123 reversed $47 $-1 #
face $-1 $-1 $124 $27 $-1 $125 forward single #
loop $-1 $126 $127 $49 #
cone-surface $-1 -67.921737177411771 -15.517770001716086 7.3228133599179035 0.73135370988377701 0 -0.68199835119979291 0.17049958779994823 0 0.18283842747094425 1 I I -0.70710678118654746 0.70710678118654746 0.25 forward I I I I #
loop $-1 $-1 $128 $35 #
coedge $-1 $80 $80 $129 $130 reversed $50 $-1 #
face $-1 $-1 $131 $28 $-1 $132 forward single #
loop $-1 $133 $134 $52 #
cone-surface $-1 -67.921737177411771 -13.19113010661064 7.3228133599179035 0.73135370988377701 0 -0.68199835119979291 0.17049958779994823 0 0.18283842747094425 1 I I -0.70710678118654746 0.70710678118654746 0.25 forward I I I I #
loop $-1 $-1 $135 $36 #
coedge $-1 $85 $85 $136 $137 reversed $53 $-1 #
face $-1 $-1 $138 $29 $-1 $139 forward single #
loop $-1 $140 $141 $55 #
cone-surface $-1 -67.921737177411771 -10.864490211505192 7.3228133599179035 0.73135370988377701 0 -0.68199835119979291 0.17049958779994823 0 0.18283842747094425 1 I I -0.70710678118654746 0.70710678118654746 0.25 forward I I I I #
loop $-1 $-1 $142 $37 #
coedge $-1 $90 $90 $143 $144 reversed $56 $-1 #
face $-1 $145 $146 $30 $-1 $147 reversed single #
loop $-1 $-1 $148 $58 #
plane-surface $-1 -39.977629495334781 17.891404344397966 91.977338115502604 0.62932039886446345 0 0.77714595512881146 0.77714595512881146 0 -0.62932039886446345 forward_v I I I I #
coedge $-1 $149 $150 $151 $152 reversed $59 $-1 #
face $-1 $-1 $153 $31 $-1 $154 forward single #
loop $-1 $155 $156 $61 #
cone-surface $-1 63.900806768857535 17.891404344397973 4.263767283259023 -0.62932039886446345 0 -0.77714595512881146 0.58285946634660857 0 -0.47199029914834756 1 I I -0.70710678118654757 0.70710678118654757 0.75 forward I I I I #
loop $-1 $-1 $157 $39 #
coedge $-1 $99 $99 $158 $159 reversed $62 $-1 #
face $-1 $160 $161 $24 $-1 $162 reversed single #
loop $-1 $-1 $163 $64 #
plane-surface $-1 0 -30.739386582467407 0 0 1 0 0 0 1 forward_v I I I I #
coedge $-1 $164 $165 $166 $167 forward $65 $-1 #
coedge $-1 $168 $67 $169 $170 forward $41 $-1 #
coedge $-1 $67 $168 $171 $172 forward $41 $-1 #
coedge $-1 $173 $174 $67 $107 reversed $175 $-1 #
edge $-1 $176 -30.739386582467407 $177 30.739386582467407 $106 $178 forward 7 unknown #
face $-1 $179 $180 $25 $-1 $181 reversed single #
loop $-1 $-1 $182 $68 #
plane-surface $-1 0 0 -11.669934607071744 0 0 1 1 0 0 forward_v I I I I #
coedge $-1 $183 $184 $185 $186 reversed $69 $-1 #
coedge $-1 $187 $71 $184 $188 forward $44 $-1 #
coedge $-1 $71 $187 $189 $190 reversed $44 $-1 #
coedge $-1 $191 $185 $71 $115 forward $180 $-1 #
edge $-1 $192 5.1168008032229366 $193 18.787324120570624 $114 $194 forward 7 unknown #
face $-1 $195 $196 $26 $-1 $197 forward single #
loop $-1 $-1 $198 $72 #
plane-surface $-1 -177.61977571911575 -9.3133969481015608 103.47293732455528 0 -1 0 0.73135370988377701 0 -0.68199835119979291 forward_v I I I I #
coedge $-1 $199 $200 $201 $202 reversed $73 $-1 #
coedge $-1 $121 $75 $203 $204 reversed $47 $-1 #
coedge $-1 $75 $120 $199 $205 reversed $47 $-1 #
coedge $-1 $201 $206 $75 $123 forward $196 $-1 #
edge $-1 $207 16.686104785123234 $208 22.816085396705375 $122 $209 forward 7 unknown #
loop $-1 $-1 $129 $76 #
plane-surface $-1 -72.12378307443467 -13.19113010661064 5.0963350464433574 -0.73135370988377701 0 0.68199835119979291 0.68199835119979291 0 0.73135370988377701 forward_v I I I I #
loop $-1 $-1 $210 $49 #
coedge $-1 $127 $127 $128 $211 reversed $77 $-1 #
coedge $-1 $128 $128 $127 $211 forward $79 $-1 #
coedge $-1 $129 $129 $80 $130 forward $124 $-1 #
edge $-1 $212 0 $212 6.2831853071796004 $129 $213 forward 7 unknown #
loop $-1 $-1 $136 $81 #
plane-surface $-1 -72.12378307443467 -13.19113010661064 5.0963350464433574 -0.73135370988377701 0 0.68199835119979291 0.68199835119979291 0 0.73135370988377701 forward_v I I I I #
loop $-1 $-1 $214 $52 #
coedge $-1 $134 $134 $135 $215 reversed $82 $-1 #
coedge $-1 $135 $135 $134 $215 forward $84 $-1 #
coedge $-1 $136 $136 $85 $137 forward $131 $-1 #
edge $-1 $216 0 $216 6.2831853071796004 $136 $217 forward 7 unknown #
loop $-1 $-1 $143 $86 #
plane-surface $-1 -72.12378307443467 -13.19113010661064 5.0963350464433574 -0.73135370988377701 0 0.68199835119979291 0.68199835119979291 0 0.73135370988377701 forward_v I I I I #
loop $-1 $-1 $218 $55 #
coedge $-1 $141 $141 $142 $219 reversed $87 $-1 #
coedge $-1 $142 $142 $141 $219 forward $89 $-1 #
coedge $-1 $143 $143 $90 $144 forward $138 $-1 #
edge $-1 $220 0 $220 6.2831853071796004 $143 $221 forward 7 unknown #
face $-1 $222 $223 $30 $-1 $224 reversed single #
loop $-1 $-1 $225 $91 #
plane-surface $-1 50.800306368699708 12.7959198596673 204.07875068527204 0 1 0 0.62932039886446345 0 0.77714595512881146 forward_v I I I I #
coedge $-1 $226 $227 $228 $229 reversed $92 $-1 #
coedge $-1 $150 $94 $230 $231 reversed $59 $-1 #
coedge $-1 $94 $149 $226 $232 reversed $59 $-1 #
coedge $-1 $228 $233 $94 $152 forward $234 $-1 #
edge $-1 $235 -46.723629890084787 $236 -33.793599522588003 $151 $237 forward 7 unknown #
loop $-1 $-1 $158 $95 #
plane-surface $-1 -39.977629495334781 17.891404344397966 91.977338115502604 0.62932039886446345 0 0.77714595512881146 0.77714595512881146 0 -0.62932039886446345 forward_v I I I I #
loop $-1 $-1 $238 $61 #
coedge $-1 $156 $156 $157 $239 reversed $96 $-1 #
coedge $-1 $157 $157 $156 $239 forward $98 $-1 #
coedge $-1 $158 $158 $99 $159 forward $153 $-1 #
edge $-1 $240 0 $240 6.2831853071796004 $158 $241 forward 7 unknown #
face $-1 $242 $243 $24 $-1 $244 reversed single #
loop $-1 $-1 $245 $100 #
plane-surface $-1 -72.123783074434641 0 0 1 0 0 0 0 -1 forward_v I I I I #
coedge $-1 $246 $171 $247 $248 forward $101 $-1 #
coedge $-1 $249 $103 $246 $250 forward $65 $-1 #
coedge $-1 $103 $249 $251 $252 forward $65 $-1 #
coedge $-1 $174 $173 $103 $167 reversed $175 $-1 #
edge $-1 $253 -30.739386582467407 $254 30.739386582467407 $166 $255 forward 7 unknown #
coedge $-1 $105 $104 $256 $257 forward $41 $-1 #
coedge $-1 $258 $259 $104 $170 reversed $243 $-1 #
edge $-1 $177 -72.123783074434641 $260 72.123783074434641 $169 $261 forward 7 unknown #
coedge $-1 $163 $262 $105 $172 reversed $101 $-1 #
edge $-1 $263 -72.123783074434641 $176 72.123783074434641 $171 $264 forward 7 unknown #
coedge $-1 $166 $106 $262 $265 forward $175 $-1 #
coedge $-1 $106 $166 $258 $266 reversed $175 $-1 #
loop $-1 $-1 $173 $242 #
vertex $-1 $107 $267 #
vertex $-1 $107 $268 #
straight-curve $-1 72.123783074434641 0 11.669934607071744 0 1 0 I I #
face $-1 $269 $270 $25 $-1 $271 reversed single #
loop $-1 $-1 $185 $108 #
plane-surface $-1 72.123783074434641 0 0 -1 0 0 0 0 1 forward_v I I I I #
coedge $-1 $272 $273 $183 $274 forward $109 $-1 #
coedge $-1 $275 $111 $182 $274 reversed $69 $-1 #
coedge $-1 $111 $275 $112 $188 reversed $69 $-1 #
coedge $-1 $114 $276 $111 $186 forward $180 $-1 #
edge $-1 $277 -6.6011684759631244 $192 -3.536363786254114 $185 $278 forward 7 unknown #
coedge $-1 $113 $112 $279 $280 reversed $44 $-1 #
edge $-1 $192 -72.123783074434641 $281 72.123783074434641 $184 $282 forward 7 unknown #
coedge $-1 $283 $284 $113 $190 forward $270 $-1 #
edge $-1 $193 -72.123783074434641 $285 72.123783074434641 $189 $286 forward 7 unknown #
coedge $-1 $276 $114 $284 $287 forward $180 $-1 #
vertex $-1 $115 $288 #
vertex $-1 $287 $289 #
straight-curve $-1 72.123783074434641 -11.95206246189678 -8.6051299173627331 0 -1 0 I I #
face $-1 $-1 $290 $26 $-1 $291 reversed single #
loop $-1 $-1 $122 $116 #
plane-surface $-1 0 0 11.669934607071744 0 0 1 1 0 0 forward_v I I I I #
coedge $-1 $292 $293 $294 $295 reversed $117 $-1 #
coedge $-1 $296 $119 $121 $205 forward $73 $-1 #
coedge $-1 $119 $296 $292 $297 forward $73 $-1 #
coedge $-1 $294 $122 $119 $202 forward $196 $-1 #
edge $-1 $208 -10.473298211814397 $298 -2.717831894796241 $201 $299 forward 7 unknown #
coedge $-1 $300 $301 $120 $204 forward $290 $-1 #
edge $-1 $302 -46.640133615834252 $207 -40.066534055205892 $203 $303 forward 7 unknown #
edge $-1 $208 -8.9882630959416758 $302 -4.1469026767552634e-014 $121 $304 forward 7 unknown #
coedge $-1 $122 $294 $300 $305 forward $196 $-1 #
vertex $-1 $204 $306 #
vertex $-1 $123 $307 #
straight-curve $-1 -88.809887859557875 -17.068863265119717 11.669934607071745 1 0 0 I I #
coedge $-1 $210 $210 $-1 $308 reversed $126 $-1 #
edge $-1 $309 0 $309 6.2831853071796004 $127 $310 forward 7 unknown #
vertex $-1 $130 $311 #
ellipse-curve $-1 -69.058792768643571 -15.517770001716086 8.3831348267575674 -0.73135370988377701 0 0.68199835119979291 0.34099917559989645 0 0.36567685494188851 1 I I #
coedge $-1 $214 $214 $-1 $312 reversed $133 $-1 #
edge $-1 $313 0 $313 6.2831853071796004 $134 $314 forward 7 unknown #
vertex $-1 $137 $315 #
ellipse-curve $-1 -69.058792768643571 -13.19113010661064 8.3831348267575674 -0.73135370988377701 0 0.68199835119979291 0.34099917559989645 0 0.36567685494188851 1 I I #
coedge $-1 $218 $218 $-1 $316 reversed $140 $-1 #
edge $-1 $317 0 $317 6.2831853071796004 $141 $318 forward 7 unknown #
vertex $-1 $144 $319 #
ellipse-curve $-1 -69.058792768643571 -10.864490211505192 8.3831348267575674 -0.73135370988377701 0 0.68199835119979291 0.34099917559989645 0 0.36567685494188851 1 I I #
face $-1 $-1 $234 $30 $-1 $320 forward single #
loop $-1 $-1 $321 $145 #
plane-surface $-1 72.123783074434641 0 0 -1 0 0 0 0 1 forward_v I I I I #
coedge $-1 $322 $323 $324 $325 reversed $146 $-1 #
coedge $-1 $326 $148 $150 $232 forward $92 $-1 #
coedge $-1 $148 $326 $322 $327 forward $92 $-1 #
coedge $-1 $324 $151 $148 $229 forward $234 $-1 #
edge $-1 $236 -14.041186656929648 $328 -3.8502176874683176 $228 $329 forward 7 unknown #
coedge $-1 $330 $331 $149 $231 forward $223 $-1 #
edge $-1 $332 -100.83997309116791 $235 -90.369440735564282 $230 $333 forward 7 unknown #
edge $-1 $236 127.60972575072472 $332 144.24756614886928 $150 $334 forward 7 unknown #
coedge $-1 $151 $324 $330 $335 forward $234 $-1 #
loop $-1 $-1 $324 $222 #
vertex $-1 $231 $336 #
vertex $-1 $152 $337 #
straight-curve $-1 25.400153184349854 22.986888829128631 11.669934607071738 -1 0 0 I I #
coedge $-1 $238 $238 $-1 $338 reversed $155 $-1 #
edge $-1 $339 0 $339 6.2831853071796004 $156 $340 forward 7 unknown #
vertex $-1 $159 $341 #
ellipse-curve $-1 65.658767890686264 17.891404344397973 6.4346684292699212 0.62932039886446345 0 0.77714595512881146 1.1657189326932171 0 -0.94398059829669512 1 I I #
face $-1 $-1 $175 $24 $-1 $342 reversed single #
loop $-1 $-1 $258 $160 #
plane-surface $-1 0 30.739386582467407 0 0 -1 0 0 0 -1 forward_v I I I I #
coedge $-1 $343 $256 $259 $344 forward $161 $-1 #
coedge $-1 $262 $163 $164 $250 reversed $101 $-1 #
coedge $-1 $256 $343 $163 $248 reversed $161 $-1 #
edge $-1 $263 -11.669934607071744 $345 11.669934607071744 $247 $346 forward 7 unknown #
coedge $-1 $165 $164 $343 $347 forward $65 $-1 #
edge $-1 $254 -72.123783074434641 $345 72.123783074434641 $246 $348 forward 7 unknown #
coedge $-1 $259 $258 $165 $252 reversed $243 $-1 #
edge $-1 $349 -72.123783074434641 $253 72.123783074434641 $251 $350 forward 7 unknown #
vertex $-1 $167 $351 #
vertex $-1 $265 $352 #
straight-curve $-1 72.123783074434641 0 -11.669934607071744 0 -1 0 I I #
coedge $-1 $245 $247 $168 $257 reversed $161 $-1 #
edge $-1 $260 -30.739386582467407 $263 30.739386582467407 $256 $353 forward 7 unknown #
coedge $-1 $251 $169 $174 $266 forward $243 $-1 #
coedge $-1 $169 $251 $245 $344 reversed $243 $-1 #
vertex $-1 $170 $354 #
straight-curve $-1 0 30.739386582467407 11.669934607071744 -1 0 0 I I #
coedge $-1 $171 $246 $173 $265 reversed $101 $-1 #
vertex $-1 $257 $355 #
straight-curve $-1 0 -30.739386582467407 11.669934607071744 1 0 0 I I #
edge $-1 $176 -11.669934607071744 $254 11.669934607071744 $173 $356 forward 7 unknown #
edge $-1 $177 -11.669934607071744 $253 11.669934607071744 $174 $357 forward 7 unknown #
point $-1 72.123783074434641 -30.739386582467407 11.669934607071744 #
point $-1 72.123783074434641 30.739386582467407 11.669934607071744 #
face $-1 $-1 $358 $25 $-1 $359 reversed single #
loop $-1 $-1 $189 $179 #
plane-surface $-1 0 -30.739386582467407 0 0 1 0 0 0 1 forward_v I I I I #
coedge $-1 $360 $182 $276 $361 forward $109 $-1 #
coedge $-1 $182 $360 $362 $363 forward $109 $-1 #
edge $-1 $364 -72.123783074434641 $277 72.123783074434641 $182 $365 forward 7 unknown #
coedge $-1 $184 $183 $366 $367 reversed $69 $-1 #
coedge $-1 $185 $191 $272 $361 reversed $180 $-1 #
vertex $-1 $361 $368 #
straight-curve $-1 72.123783074434641 -17.068863265119717 -5.0687661311086192 0 0 1 I I #
coedge $-1 $366 $369 $187 $280 forward $358 $-1 #
edge $-1 $285 -18.787324120570624 $281 -5.1168008032229366 $279 $370 forward 7 unknown #
vertex $-1 $280 $371 #
straight-curve $-1 0 -17.068863265119717 -8.6051299173627331 -1 0 0 I I #
coedge $-1 $372 $189 $369 $373 forward $270 $-1 #
coedge $-1 $189 $372 $191 $287 reversed $270 $-1 #
vertex $-1 $373 $374 #
straight-curve $-1 0 -30.739386582467407 -8.6051299173627331 -1 0 0 I I #
edge $-1 $193 8.6051299173627331 $375 11.669934607071744 $191 $376 forward 7 unknown #
point $-1 72.123783074434641 -17.068863265119717 -8.6051299173627331 #
point $-1 72.123783074434641 -30.739386582467404 -8.6051299173627331 #
loop $-1 $-1 $203 $195 #
plane-surface $-1 -72.123783074434641 0 0 1 0 0 0 0 -1 forward_v I I I I #
coedge $-1 $293 $198 $200 $297 reversed $117 $-1 #
coedge $-1 $198 $292 $377 $378 reversed $117 $-1 #
coedge $-1 $206 $201 $198 $295 forward $196 $-1 #
edge $-1 $298 -22.816085396705375 $379 -16.686104785123234 $294 $380 forward 7 unknown #
coedge $-1 $200 $199 $301 $381 reversed $73 $-1 #
edge $-1 $382 4.1469026767552634e-014 $298 8.9882630959416758 $292 $383 forward 7 unknown #
vertex $-1 $202 $384 #
straight-curve $-1 -65.9938024628525 -6.5955650533053198 11.669934607071742 0 1 0 I I #
coedge $-1 $377 $203 $206 $305 reversed $290 $-1 #
coedge $-1 $203 $377 $296 $381 forward $290 $-1 #
vertex $-1 $204 $385 #
straight-curve $-1 -72.123783074434641 -17.068863265119717 51.736468662277638 0 0 1 I I #
straight-curve $-1 -72.12378307443467 -17.068863265119717 5.0963350464433574 -0.68199835119979291 0 -0.73135370988377701 I I #
edge $-1 $379 9.3133969481015608 $207 17.068863265119717 $300 $386 forward 7 unknown #
point $-1 -72.123783074434641 -17.068863265119717 11.669934607071744 #
point $-1 -65.9938024628525 -17.068863265119717 11.669934607071744 #
edge $-1 $387 1 $387 0 $210 $-1 forward 7 unknown #
vertex $-1 $211 $388 #
ellipse-curve $-1 -68.104575604882712 -15.517770001716086 7.4933129477178522 -0.73135370988377701 0 0.68199835119979291 0.34099917559989645 0 0.36567685494188851 1 I I #
point $-1 -68.717793593043652 -15.517770001716086 8.748811681699431 #
edge $-1 $389 1 $389 0 $214 $-1 forward 7 unknown #
vertex $-1 $215 $390 #
ellipse-curve $-1 -68.104575604882712 -13.19113010661064 7.4933129477178522 -0.73135370988377701 0 0.68199835119979291 0.34099917559989645 0 0.36567685494188851 1 I I #
point $-1 -68.717793593043652 -13.19113010661064 8.748811681699431 #
edge $-1 $391 1 $391 0 $218 $-1 forward 7 unknown #
vertex $-1 $219 $392 #
ellipse-curve $-1 -68.104575604882712 -10.864490211505192 7.4933129477178522 -0.73135370988377701 0 0.68199835119979291 0.34099917559989645 0 0.36567685494188851 1 I I #
point $-1 -68.717793593043652 -10.864490211505192 8.748811681699431 #
plane-surface $-1 0 0 11.669934607071744 0 0 1 1 0 0 forward_v I I I I #
coedge $-1 $331 $330 $323 $393 forward $223 $-1 #
coedge $-1 $323 $225 $227 $327 reversed $146 $-1 #
coedge $-1 $225 $322 $321 $393 reversed $146 $-1 #
coedge $-1 $233 $228 $225 $325 forward $234 $-1 #
edge $-1 $328 33.793599522588003 $394 46.723629890084787 $324 $395 forward 7 unknown #
coedge $-1 $227 $226 $331 $396 reversed $92 $-1 #
edge $-1 $397 -144.24756614886928 $328 -127.60972575072472 $322 $398 forward 7 unknown #
vertex $-1 $229 $399 #
straight-curve $-1 59.193752706937865 8.9457021721989829 11.669934607071731 0 -1 0 I I #
coedge $-1 $321 $230 $233 $335 reversed $223 $-1 #
coedge $-1 $230 $321 $326 $396 forward $223 $-1 #
vertex $-1 $231 $400 #
straight-curve $-1 72.123783074434641 22.986888829128631 102.03937534263602 0 0 1 I I #
straight-curve $-1 -39.977629495334781 22.986888829128631 91.977338115502604 0.77714595512881146 0 -0.62932039886446345 I I #
edge $-1 $394 12.7959198596673 $235 22.986888829128631 $330 $401 forward 7 unknown #
point $-1 72.123783074434641 22.986888829128631 11.669934607071744 #
point $-1 59.193752706937858 22.986888829128631 11.669934607071738 #
edge $-1 $402 1 $402 0 $238 $-1 forward 7 unknown #
vertex $-1 $239 $403 #
ellipse-curve $-1 64.37279706800588 17.891404344397973 4.8466267496056314 0.62932039886446345 0 0.77714595512881146 1.1657189326932171 0 -0.94398059829669512 1 I I #
point $-1 66.824486823379473 17.891404344397973 5.4906878309732265 #
plane-surface $-1 72.123783074434641 0 0 -1 0 0 0 0 1 forward_v I I I I #
coedge $-1 $247 $245 $249 $347 reversed $161 $-1 #
edge $-1 $260 -11.669934607071744 $349 11.669934607071744 $259 $404 forward 7 unknown #
vertex $-1 $347 $405 #
straight-curve $-1 -72.123783074434641 -30.739386582467407 0 0 0 -1 I I #
edge $-1 $345 -30.739386582467407 $349 30.739386582467407 $343 $406 forward 7 unknown #
straight-curve $-1 0 -30.739386582467407 -11.669934607071744 -1 0 0 I I #
vertex $-1 $252 $407 #
straight-curve $-1 0 30.739386582467407 -11.669934607071744 1 0 0 I I #
point $-1 72.123783074434641 30.739386582467407 -11.669934607071744 #
point $-1 72.123783074434641 -30.739386582467407 -11.669934607071744 #
straight-curve $-1 -72.123783074434641 0 11.669934607071744 0 -1 0 I I #
point $-1 -72.123783074434641 30.739386582467407 11.669934607071744 #
point $-1 -72.123783074434641 -30.739386582467407 11.669934607071744 #
straight-curve $-1 72.123783074434641 -30.739386582467407 0 0 0 -1 I I #
straight-curve $-1 72.123783074434641 30.739386582467407 0 0 0 -1 I I #
loop $-1 $-1 $366 $269 #
plane-surface $-1 -72.123783074434641 0 0 1 0 0 0 0 -1 forward_v I I I I #
coedge $-1 $273 $272 $372 $408 forward $109 $-1 #
edge $-1 $277 17.068863265119717 $375 30.739386582467407 $276 $409 forward 7 unknown #
coedge $-1 $369 $366 $273 $363 reversed $358 $-1 #
edge $-1 $410 -30.739386582467407 $364 -17.068863265119717 $362 $411 forward 7 unknown #
vertex $-1 $367 $412 #
straight-curve $-1 0 -17.068863265119717 -11.669934607071744 1 0 0 I I #
coedge $-1 $362 $279 $275 $367 forward $358 $-1 #
edge $-1 $281 3.536363786254114 $364 6.6011684759631244 $366 $413 forward 7 unknown #
point $-1 72.123783074434641 -17.068863265119717 -11.669934607071744 #
coedge $-1 $279 $362 $283 $373 reversed $358 $-1 #
straight-curve $-1 -72.123783074434641 -11.95206246189678 -8.6051299173627331 0 1 0 I I #
point $-1 -72.123783074434641 -17.068863265119717 -8.6051299173627331 #
coedge $-1 $284 $283 $360 $408 reversed $270 $-1 #
edge $-1 $285 8.6051299173627331 $410 11.669934607071744 $369 $414 forward 7 unknown #
point $-1 -72.123783074434641 -30.739386582467404 -8.6051299173627331 #
vertex $-1 $287 $415 #
straight-curve $-1 72.123783074434641 -30.739386582467407 0 0 0 -1 I I #
coedge $-1 $301 $300 $293 $378 forward $290 $-1 #
edge $-1 $379 40.066534055205892 $382 46.640133615834252 $377 $416 forward 7 unknown #
vertex $-1 $305 $417 #
straight-curve $-1 -88.809887859557875 -9.3133969481015608 11.669934607071745 -1 0 0 I I #
edge $-1 $382 2.717831894796241 $302 10.473298211814397 $301 $418 forward 7 unknown #
vertex $-1 $381 $419 #
straight-curve $-1 -72.12378307443467 -9.3133969481015608 5.0963350464433574 0.68199835119979291 0 0.73135370988377701 I I #
point $-1 -65.9938024628525 -9.3133969481015608 11.669934607071744 #
point $-1 -72.123783074434641 -17.068863265119717 5.0963350464433876 #
straight-curve $-1 -72.123783074434641 0 11.669934607071744 0 -1 0 I I #
vertex $-1 $308 $420 #
point $-1 -67.763576429282821 -15.517770001716086 7.8589898026597407 #
vertex $-1 $312 $421 #
point $-1 -67.763576429282821 -13.19113010661064 7.8589898026597407 #
vertex $-1 $316 $422 #
point $-1 -67.763576429282821 -10.864490211505192 7.8589898026597407 #
edge $-1 $394 90.369440735564282 $397 100.83997309116791 $321 $423 forward 7 unknown #
vertex $-1 $335 $424 #
straight-curve $-1 25.400153184349854 12.7959198596673 11.669934607071738 1 0 0 I I #
edge $-1 $397 3.8502176874683176 $332 14.041186656929648 $331 $425 forward 7 unknown #
vertex $-1 $396 $426 #
straight-curve $-1 -39.977629495334781 12.7959198596673 91.977338115502604 -0.77714595512881146 0 0.62932039886446345 I I #
point $-1 59.193752706937858 12.7959198596673 11.669934607071738 #
point $-1 72.123783074434655 22.986888829128631 1.1994022514681149 #
straight-curve $-1 72.123783074434641 0 11.669934607071744 0 1 0 I I #
vertex $-1 $338 $427 #
point $-1 65.538516000699104 17.891404344397973 3.9026461513089363 #
straight-curve $-1 -72.123783074434641 30.739386582467407 0 0 0 -1 I I #
point $-1 -72.123783074434641 -30.739386582467407 -11.669934607071744 #
straight-curve $-1 -72.123783074434641 0 -11.669934607071744 0 1 0 I I #
point $-1 -72.123783074434641 30.739386582467407 -11.669934607071744 #
edge $-1 $375 -72.123783074434641 $410 72.123783074434641 $372 $428 forward 7 unknown #
straight-curve $-1 72.123783074434641 0 -11.669934607071744 0 -1 0 I I #
vertex $-1 $363 $429 #
straight-curve $-1 -72.123783074434641 0 -11.669934607071744 0 1 0 I I #
point $-1 -72.123783074434641 -17.068863265119717 -11.669934607071744 #
straight-curve $-1 -72.123783074434641 -17.068863265119717 -5.0687661311086192 0 0 -1 I I #
straight-curve $-1 -72.123783074434641 -30.739386582467407 0 0 0 -1 I I #
point $-1 72.123783074434641 -30.739386582467407 -11.669934607071744 #
straight-curve $-1 -72.123783074434641 -9.3133969481015608 51.736468662277638 0 0 -1 I I #
point $-1 -72.123783074434641 -9.3133969481015608 11.669934607071744 #
straight-curve $-1 -72.123783074434641 -6.5955650533053198 5.0963350464433814 0 -1 0 I I #
point $-1 -72.123783074434641 -9.3133969481015608 5.0963350464433876 #
point $-1 -67.73889874994083 -15.517770001716086 7.1523137721179548 #
point $-1 -67.73889874994083 -13.19113010661064 7.1523137721179548 #
point $-1 -67.73889874994083 -10.864490211505192 7.1523137721179548 #
straight-curve $-1 72.123783074434641 12.7959198596673 102.03937534263602 0 0 -1 I I #
point $-1 72.123783074434641 12.7959198596673 11.669934607071744 #
straight-curve $-1 72.123783074434627 8.9457021721989829 1.1994022514681291 0 1 0 I I #
point $-1 72.123783074434655 12.7959198596673 1.1994022514681149 #
point $-1 63.42881646970919 17.891404344397973 3.6809078169124145 #
straight-curve $-1 0 -30.739386582467407 -11.669934607071744 -1 0 0 I I #
point $-1 -72.123783074434641 -30.739386582467407 -11.669934607071744 #
End-of-ACIS-data 