500 0 6 0           
7 Unknown 11 ACIS 5.0 NT 24 Fri Mar 26 03:19:29 1999 
-1 9.9999999999999995e-007 1e-010 
body $-1 $6 $-1 $7 #
body $-1 $8 $-1 $9 #
body $-1 $10 $-1 $11 #
body $-1 $12 $-1 $13 #
body $-1 $14 $-1 $15 #
body $-1 $16 $-1 $17 #
lump $-1 $-1 $18 $0 #
transform $-1 1 0 0 0 1 0 0 0 1 54.305856501968442 21.731789403426045 5.5570693146265002 1 rotate no_reflect no_shear #
lump $-1 $-1 $19 $1 #
transform $-1 1 0 0 0 1 0 0 0 1 54.305856501968442 21.731789403426045 5.5570693146265002 1 rotate no_reflect no_shear #
lump $-1 $-1 $20 $2 #
transform $-1 1 0 0 0 1 0 0 0 1 54.305856501968442 21.731789403426045 5.5570693146265002 1 rotate no_reflect no_shear #
lump $-1 $-1 $21 $3 #
transform $-1 1 0 0 0 1 0 0 0 1 54.305856501968442 21.731789403426045 5.5570693146265002 1 rotate no_reflect no_shear #
lump $-1 $-1 $22 $4 #
transform $-1 1 0 0 0 1 0 0 0 1 54.305856501968442 21.731789403426045 5.5570693146265002 1 rotate no_reflect no_shear #
lump $-1 $-1 $23 $5 #
transform $-1 1 0 0 0 1 0 0 0 1 54.305856501968442 21.731789403426045 5.5570693146265002 1 rotate no_reflect no_shear #
shell $-1 $-1 $-1 $24 $-1 $6 #
shell $-1 $-1 $-1 $25 $-1 $8 #
shell $-1 $-1 $-1 $26 $-1 $10 #
shell $-1 $-1 $-1 $27 $-1 $12 #
shell $-1 $-1 $-1 $28 $-1 $14 #
shell $-1 $-1 $-1 $29 $-1 $16 #
face $-1 $30 $31 $18 $-1 $32 forward single #
face $-1 $33 $34 $19 $-1 $35 reversed single #
face $-1 $36 $37 $20 $-1 $38 forward single #
face $-1 $39 $40 $21 $-1 $41 forward single #
face $-1 $42 $43 $22 $-1 $44 reversed single #
face $-1 $45 $46 $23 $-1 $47 forward single #
face $-1 $48 $49 $18 $-1 $50 reversed single #
loop $-1 $-1 $51 $24 #
plane-surface $-1 0 0 5.5570693146265002 0 0 1 1 0 0 forward_v I I I I #
face $-1 $52 $53 $19 $-1 $54 reversed single #
loop $-1 $-1 $55 $25 #
plane-surface $-1 -119.67001790551632 -8.5389262413702021 89.232921743850426 0 1 0 -0.6018150307709319 0 0.79863550430605224 forward_v I I I I #
face $-1 $56 $57 $20 $-1 $58 forward single #
loop $-1 $59 $60 $26 #
cone-surface $-1 -51.499996430447752 -5.5165584631657403 2.9999941148246645 0.6018150307709319 0 -0.79863550430605224 0.79863550430605224 0 0.6018150307709319 1 I I 0 1 1 forward I I I I #
face $-1 $61 $62 $21 $-1 $63 forward single #
loop $-1 $64 $65 $27 #
cone-surface $-1 -51.499996430447752 -0.9830067958590476 2.9999941148246645 0.6018150307709319 0 -0.79863550430605224 0.79863550430605224 0 0.6018150307709319 1 I I 0 1 1 forward I I I I #
face $-1 $66 $67 $22 $-1 $68 reversed single #
loop $-1 $-1 $69 $28 #
plane-surface $-1 51.625165865637634 15.311223902445018 154.22447848128408 0 -1 0 -0.69465837861970381 0 -0.71933979245794832 forward_v I I I I #
face $-1 $70 $71 $23 $-1 $72 forward single #
loop $-1 $73 $74 $29 #
cone-surface $-1 50.859818350593933 11.810795970404595 2.1661220018079472 -0.69465837861970381 0 -0.71933979245794832 0.71933979245794832 0 -0.69465837861970381 1 I I 0 1 1 forward I I I I #
face $-1 $75 $76 $18 $-1 $77 reversed single #
loop $-1 $-1 $78 $30 #
plane-surface $-1 0 0 -5.5570693146265002 0 0 1 1 0 0 forward_v I I I I #
coedge $-1 $79 $80 $81 $82 forward $31 $-1 #
face $-1 $83 $84 $19 $-1 $85 reversed single #
loop $-1 $-1 $86 $33 #
plane-surface $-1 -54.305856501968421 -3.2497826295123957 2.4917515554070775 -0.6018150307709319 0 0.79863550430605224 0.79863550430605224 0 0.6018150307709319 forward_v I I I I #
coedge $-1 $87 $88 $89 $90 reversed $34 $-1 #
face $-1 $-1 $91 $20 $-1 $92 forward single #
loop $-1 $93 $94 $36 #
cone-surface $-1 -50.427135832667872 -5.5165584631657403 1.5762600424795083 0.6018150307709319 0 -0.79863550430605224 0.39931775215302612 0 0.30090751538546595 1 I I -0.70710678118654746 0.70710678118654746 0.5 forward I I I I #
loop $-1 $-1 $95 $26 #
coedge $-1 $60 $60 $96 $97 reversed $37 $-1 #
face $-1 $-1 $98 $21 $-1 $99 forward single #
loop $-1 $100 $101 $39 #
cone-surface $-1 -50.427135832667872 -0.9830067958590476 1.5762600424795083 0.6018150307709319 0 -0.79863550430605224 0.39931775215302612 0 0.30090751538546595 1 I I -0.70710678118654746 0.70710678118654746 0.5 forward I I I I #
loop $-1 $-1 $102 $27 #
coedge $-1 $65 $65 $103 $104 reversed $40 $-1 #
face $-1 $105 $106 $22 $-1 $107 reversed single #
loop $-1 $-1 $108 $42 #
plane-surface $-1 -23.822870588785769 11.810795970404595 76.09575139052987 0.69465837861970381 0 0.71933979245794832 0.71933979245794832 0 -0.69465837861970381 forward_v I I I I #
coedge $-1 $109 $110 $111 $112 reversed $43 $-1 #
face $-1 $-1 $113 $23 $-1 $114 forward single #
loop $-1 $115 $116 $45 #
cone-surface $-1 49.608343592249305 11.810795970404595 0.87018198202042907 -0.69465837861970381 0 -0.71933979245794832 0.35966989622897416 0 -0.3473291893098519 1 I I -0.70710678118654746 0.70710678118654746 0.5 forward I I I I #
loop $-1 $-1 $117 $29 #
coedge $-1 $74 $74 $118 $119 reversed $46 $-1 #
face $-1 $120 $121 $18 $-1 $122 reversed single #
loop $-1 $-1 $123 $48 #
plane-surface $-1 0 -21.731789403426045 0 0 1 0 0 0 1 forward_v I I I I #
coedge $-1 $124 $125 $126 $127 forward $49 $-1 #
coedge $-1 $128 $51 $129 $130 forward $31 $-1 #
coedge $-1 $51 $128 $131 $132 forward $31 $-1 #
coedge $-1 $133 $134 $51 $82 reversed $135 $-1 #
edge $-1 $136 -21.731789403426045 $137 21.731789403426045 $81 $138 forward 7 unknown #
face $-1 $139 $140 $19 $-1 $141 reversed single #
loop $-1 $-1 $142 $52 #
plane-surface $-1 -119.67001790551632 2.0393609823454106 89.232921743850426 0 -1 0 0.6018150307709319 0 -0.79863550430605224 forward_v I I I I #
coedge $-1 $143 $144 $145 $146 reversed $53 $-1 #
coedge $-1 $88 $55 $147 $148 reversed $34 $-1 #
coedge $-1 $55 $87 $143 $149 reversed $34 $-1 #
coedge $-1 $145 $150 $55 $90 forward $151 $-1 #
edge $-1 $152 5.5291524507897165 $153 9.5969664290423182 $89 $154 forward 7 unknown #
loop $-1 $-1 $96 $56 #
plane-surface $-1 -54.305856501968421 -3.2497826295123957 2.4917515554070775 -0.6018150307709319 0 0.79863550430605224 0.79863550430605224 0 0.6018150307709319 forward_v I I I I #
loop $-1 $-1 $155 $36 #
coedge $-1 $94 $94 $95 $156 reversed $57 $-1 #
coedge $-1 $95 $95 $94 $156 forward $59 $-1 #
coedge $-1 $96 $96 $60 $97 forward $91 $-1 #
edge $-1 $157 0 $157 6.2831853071796004 $96 $158 forward 7 unknown #
loop $-1 $-1 $103 $61 #
plane-surface $-1 -54.305856501968421 -3.2497826295123957 2.4917515554070775 -0.6018150307709319 0 0.79863550430605224 0.79863550430605224 0 0.6018150307709319 forward_v I I I I #
loop $-1 $-1 $159 $39 #
coedge $-1 $101 $101 $102 $160 reversed $62 $-1 #
coedge $-1 $102 $102 $101 $160 forward $64 $-1 #
coedge $-1 $103 $103 $65 $104 forward $98 $-1 #
edge $-1 $161 0 $161 6.2831853071796004 $103 $162 forward 7 unknown #
face $-1 $163 $164 $22 $-1 $165 forward single #
loop $-1 $-1 $166 $66 #
plane-surface $-1 51.625165865637634 8.3103680383641709 154.22447848128408 0 1 0 0.69465837861970381 0 0.71933979245794832 forward_v I I I I #
coedge $-1 $167 $168 $169 $170 reversed $67 $-1 #
coedge $-1 $110 $69 $171 $172 reversed $43 $-1 #
coedge $-1 $69 $109 $167 $173 reversed $43 $-1 #
coedge $-1 $169 $174 $69 $112 forward $164 $-1 #
edge $-1 $175 -28.493273569149626 $176 -23.409488404470185 $111 $177 forward 7 unknown #
loop $-1 $-1 $118 $70 #
plane-surface $-1 -23.822870588785769 11.810795970404595 76.09575139052987 0.69465837861970381 0 0.71933979245794832 0.71933979245794832 0 -0.69465837861970381 forward_v I I I I #
loop $-1 $-1 $178 $45 #
coedge $-1 $116 $116 $117 $179 reversed $71 $-1 #
coedge $-1 $117 $117 $116 $179 forward $73 $-1 #
coedge $-1 $118 $118 $74 $119 forward $113 $-1 #
edge $-1 $180 0 $180 6.2831853071796004 $118 $181 forward 7 unknown #
face $-1 $182 $183 $18 $-1 $184 reversed single #
loop $-1 $-1 $185 $75 #
plane-surface $-1 -54.305856501968442 0 0 1 0 0 0 0 -1 forward_v I I I I #
coedge $-1 $186 $131 $187 $188 forward $76 $-1 #
coedge $-1 $189 $78 $186 $190 forward $49 $-1 #
coedge $-1 $78 $189 $191 $192 forward $49 $-1 #
coedge $-1 $134 $133 $78 $127 reversed $135 $-1 #
edge $-1 $193 -21.731789403426045 $194 21.731789403426045 $126 $195 forward 7 unknown #
coedge $-1 $80 $79 $196 $197 forward $31 $-1 #
coedge $-1 $198 $199 $79 $130 reversed $183 $-1 #
edge $-1 $137 -54.305856501968442 $200 54.305856501968442 $129 $201 forward 7 unknown #
coedge $-1 $123 $202 $80 $132 reversed $76 $-1 #
edge $-1 $203 -54.305856501968442 $136 54.305856501968442 $131 $204 forward 7 unknown #
coedge $-1 $126 $81 $202 $205 forward $135 $-1 #
coedge $-1 $81 $126 $198 $206 reversed $135 $-1 #
loop $-1 $-1 $133 $182 #
vertex $-1 $82 $207 #
vertex $-1 $82 $208 #
straight-curve $-1 54.305856501968442 0 5.5570693146265002 0 1 0 I I #
face $-1 $-1 $151 $19 $-1 $209 forward single #
loop $-1 $-1 $210 $83 #
plane-surface $-1 -54.305856501968442 0 0 1 0 0 0 0 -1 forward_v I I I I #
coedge $-1 $211 $212 $213 $214 reversed $84 $-1 #
coedge $-1 $215 $86 $88 $149 forward $53 $-1 #
coedge $-1 $86 $215 $211 $216 forward $53 $-1 #
coedge $-1 $213 $89 $86 $146 forward $151 $-1 #
edge $-1 $153 -6.9140349266140042 $217 3.6642522971016085 $145 $218 forward 7 unknown #
coedge $-1 $219 $220 $87 $148 forward $140 $-1 #
edge $-1 $221 -42.12470931651815 $152 -39.05939155729871 $147 $222 forward 7 unknown #
edge $-1 $153 -5.0934549695322788 $221 2.6645283896817444e-014 $88 $223 forward 7 unknown #
coedge $-1 $89 $213 $219 $224 forward $151 $-1 #
loop $-1 $-1 $213 $139 #
vertex $-1 $148 $225 #
vertex $-1 $90 $226 #
straight-curve $-1 -59.835008952758159 -8.5389262413702021 5.5570693146265029 1 0 0 I I #
coedge $-1 $155 $155 $-1 $227 reversed $93 $-1 #
edge $-1 $228 0 $228 6.2831853071796004 $94 $229 forward 7 unknown #
vertex $-1 $97 $230 #
ellipse-curve $-1 -52.271949512842149 -5.5165584631657403 4.0244104350167769 -0.6018150307709319 0 0.79863550430605224 0.79863550430605224 0 0.6018150307709319 1 I I #
coedge $-1 $159 $159 $-1 $231 reversed $100 $-1 #
edge $-1 $232 0 $232 6.2831853071796004 $101 $233 forward 7 unknown #
vertex $-1 $104 $234 #
ellipse-curve $-1 -52.271949512842149 -0.9830067958590476 4.0244104350167769 -0.6018150307709319 0 0.79863550430605224 0.79863550430605224 0 0.6018150307709319 1 I I #
face $-1 $-1 $235 $22 $-1 $236 reversed single #
loop $-1 $-1 $111 $105 #
plane-surface $-1 0 0 5.5570693146265002 0 0 1 1 0 0 forward_v I I I I #
coedge $-1 $237 $238 $239 $240 reversed $106 $-1 #
coedge $-1 $241 $108 $110 $173 forward $67 $-1 #
coedge $-1 $108 $241 $237 $242 forward $67 $-1 #
coedge $-1 $239 $111 $108 $170 forward $164 $-1 #
edge $-1 $176 -9.405825917242721 $243 -2.4049700531618736 $169 $244 forward 7 unknown #
coedge $-1 $245 $246 $109 $172 forward $235 $-1 #
edge $-1 $247 -76.464524304535573 $175 -71.555169926015537 $171 $248 forward 7 unknown #
edge $-1 $176 101.54441988602331 $247 108.61171300393688 $110 $249 forward 7 unknown #
coedge $-1 $111 $239 $245 $250 forward $164 $-1 #
vertex $-1 $172 $251 #
vertex $-1 $112 $252 #
straight-curve $-1 25.812582932818817 15.311223902445018 5.5570693146265029 -1 0 0 I I #
coedge $-1 $178 $178 $-1 $253 reversed $115 $-1 #
edge $-1 $254 0 $254 6.2831853071796004 $116 $255 forward 7 unknown #
vertex $-1 $119 $256 #
ellipse-curve $-1 51.763963919628708 11.810795970404595 3.102392125366495 0.69465837861970381 0 0.71933979245794832 0.71933979245794832 0 -0.69465837861970381 1 I I #
face $-1 $-1 $135 $18 $-1 $257 reversed single #
loop $-1 $-1 $198 $120 #
plane-surface $-1 0 21.731789403426045 0 0 -1 0 0 0 -1 forward_v I I I I #
coedge $-1 $258 $196 $199 $259 forward $121 $-1 #
coedge $-1 $202 $123 $124 $190 reversed $76 $-1 #
coedge $-1 $196 $258 $123 $188 reversed $121 $-1 #
edge $-1 $203 -5.5570693146265002 $260 5.5570693146265002 $187 $261 forward 7 unknown #
coedge $-1 $125 $124 $258 $262 forward $49 $-1 #
edge $-1 $194 -54.305856501968442 $260 54.305856501968442 $186 $263 forward 7 unknown #
coedge $-1 $199 $198 $125 $192 reversed $183 $-1 #
edge $-1 $264 -54.305856501968442 $193 54.305856501968442 $191 $265 forward 7 unknown #
vertex $-1 $127 $266 #
vertex $-1 $205 $267 #
straight-curve $-1 54.305856501968442 0 -5.5570693146265002 0 -1 0 I I #
coedge $-1 $185 $187 $128 $197 reversed $121 $-1 #
edge $-1 $200 -21.731789403426045 $203 21.731789403426045 $196 $268 forward 7 unknown #
coedge $-1 $191 $129 $134 $206 forward $183 $-1 #
coedge $-1 $129 $191 $185 $259 reversed $183 $-1 #
vertex $-1 $130 $269 #
straight-curve $-1 0 21.731789403426045 5.5570693146265002 -1 0 0 I I #
coedge $-1 $131 $186 $133 $205 reversed $76 $-1 #
vertex $-1 $197 $270 #
straight-curve $-1 0 -21.731789403426045 5.5570693146265002 1 0 0 I I #
edge $-1 $136 -5.5570693146265002 $194 5.5570693146265002 $133 $271 forward 7 unknown #
edge $-1 $137 -5.5570693146265002 $193 5.5570693146265002 $134 $272 forward 7 unknown #
point $-1 54.305856501968442 -21.731789403426045 5.5570693146265002 #
point $-1 54.305856501968442 21.731789403426045 5.5570693146265002 #
plane-surface $-1 0 0 5.5570693146265002 0 0 1 1 0 0 forward_v I I I I #
coedge $-1 $220 $219 $212 $273 forward $140 $-1 #
coedge $-1 $212 $142 $144 $216 reversed $84 $-1 #
coedge $-1 $142 $211 $210 $273 reversed $84 $-1 #
coedge $-1 $150 $145 $142 $214 forward $151 $-1 #
edge $-1 $217 -9.5969664290423182 $274 -5.5291524507897165 $213 $275 forward 7 unknown #
coedge $-1 $144 $143 $220 $276 reversed $53 $-1 #
edge $-1 $277 -2.6645283896817444e-014 $217 5.0934549695322788 $211 $278 forward 7 unknown #
vertex $-1 $146 $279 #
straight-curve $-1 -50.238042523715848 -1.6248913147561979 5.5570693146264993 0 1 0 I I #
coedge $-1 $210 $147 $150 $224 reversed $140 $-1 #
coedge $-1 $147 $210 $215 $276 forward $140 $-1 #
vertex $-1 $148 $280 #
straight-curve $-1 -54.305856501968442 -8.5389262413702021 44.616460871925213 0 0 1 I I #
straight-curve $-1 -54.305856501968421 -8.5389262413702021 2.4917515554070775 -0.79863550430605224 0 -0.6018150307709319 I I #
edge $-1 $274 -2.0393609823454106 $152 8.5389262413702021 $219 $281 forward 7 unknown #
point $-1 -54.305856501968442 -8.5389262413702021 5.5570693146265002 #
point $-1 -50.238042523715841 -8.5389262413702021 5.5570693146265002 #
edge $-1 $282 1 $282 0 $155 $-1 forward 7 unknown #
vertex $-1 $156 $283 #
ellipse-curve $-1 -50.72804334805334 -5.5165584631657403 1.9755777946325344 -0.6018150307709319 0 0.79863550430605224 0.79863550430605224 0 0.6018150307709319 1 I I #
point $-1 -51.473314008536107 -5.5165584631657403 4.6262254657877264 #
edge $-1 $284 1 $284 0 $159 $-1 forward 7 unknown #
vertex $-1 $160 $285 #
ellipse-curve $-1 -50.72804334805334 -0.9830067958590476 1.9755777946325344 -0.6018150307709319 0 0.79863550430605224 0.79863550430605224 0 0.6018150307709319 1 I I #
point $-1 -51.473314008536107 -0.9830067958590476 4.6262254657877264 #
loop $-1 $-1 $171 $163 #
plane-surface $-1 54.305856501968442 0 0 -1 0 0 0 0 1 forward_v I I I I #
coedge $-1 $238 $166 $168 $242 reversed $106 $-1 #
coedge $-1 $166 $237 $286 $287 reversed $106 $-1 #
coedge $-1 $174 $169 $166 $240 forward $164 $-1 #
edge $-1 $243 23.409488404470185 $288 28.493273569149626 $239 $289 forward 7 unknown #
coedge $-1 $168 $167 $246 $290 reversed $67 $-1 #
edge $-1 $291 -108.61171300393688 $243 -101.54441988602331 $237 $292 forward 7 unknown #
vertex $-1 $170 $293 #
straight-curve $-1 49.222071337289016 5.9053979852022973 5.5570693146265029 0 -1 0 I I #
coedge $-1 $286 $171 $174 $250 reversed $235 $-1 #
coedge $-1 $171 $286 $241 $290 forward $235 $-1 #
vertex $-1 $172 $294 #
straight-curve $-1 54.305856501968442 15.311223902445018 77.11223924064204 0 0 1 I I #
straight-curve $-1 -23.822870588785769 15.311223902445018 76.09575139052987 0.71933979245794832 0 -0.69465837861970381 I I #
edge $-1 $288 8.3103680383641709 $175 15.311223902445018 $245 $295 forward 7 unknown #
point $-1 54.305856501968442 15.311223902445018 5.5570693146265002 #
point $-1 49.222071337289002 15.311223902445018 5.5570693146265029 #
edge $-1 $296 1 $296 0 $178 $-1 forward 7 unknown #
vertex $-1 $179 $297 #
ellipse-curve $-1 49.955672781559159 11.810795970404595 1.2298518782494032 0.69465837861970381 0 0.71933979245794832 0.71933979245794832 0 -0.69465837861970381 1 I I #
point $-1 52.483303712086652 11.810795970404595 2.4077337467467874 #
plane-surface $-1 54.305856501968442 0 0 -1 0 0 0 0 1 forward_v I I I I #
coedge $-1 $187 $185 $189 $262 reversed $121 $-1 #
edge $-1 $200 -5.5570693146265002 $264 5.5570693146265002 $199 $298 forward 7 unknown #
vertex $-1 $262 $299 #
straight-curve $-1 -54.305856501968442 -21.731789403426045 0 0 0 -1 I I #
edge $-1 $260 -21.731789403426045 $264 21.731789403426045 $258 $300 forward 7 unknown #
straight-curve $-1 0 -21.731789403426045 -5.5570693146265002 -1 0 0 I I #
vertex $-1 $192 $301 #
straight-curve $-1 0 21.731789403426045 -5.5570693146265002 1 0 0 I I #
point $-1 54.305856501968442 21.731789403426045 -5.5570693146265002 #
point $-1 54.305856501968442 -21.731789403426045 -5.5570693146265002 #
straight-curve $-1 -54.305856501968442 0 5.5570693146265002 0 -1 0 I I #
point $-1 -54.305856501968442 21.731789403426045 5.5570693146265002 #
point $-1 -54.305856501968442 -21.731789403426045 5.5570693146265002 #
straight-curve $-1 54.305856501968442 -21.731789403426045 0 0 0 -1 I I #
straight-curve $-1 54.305856501968442 21.731789403426045 0 0 0 -1 I I #
edge $-1 $274 39.05939155729871 $277 42.12470931651815 $210 $302 forward 7 unknown #
vertex $-1 $224 $303 #
straight-curve $-1 -59.835008952758159 2.0393609823454106 5.5570693146265029 -1 0 0 I I #
edge $-1 $277 -3.6642522971016085 $221 6.9140349266140042 $220 $304 forward 7 unknown #
vertex $-1 $276 $305 #
straight-curve $-1 -54.305856501968421 2.0393609823454106 2.4917515554070775 0.79863550430605224 0 0.6018150307709319 I I #
point $-1 -50.238042523715841 2.0393609823454106 5.5570693146265002 #
point $-1 -54.305856501968442 -8.5389262413702021 2.4917515554070615 #
straight-curve $-1 -54.305856501968442 0 5.5570693146265002 0 -1 0 I I #
vertex $-1 $227 $306 #
point $-1 -49.929407843747285 -5.5165584631657403 2.5773928254034661 #
vertex $-1 $231 $307 #
point $-1 -49.929407843747285 -0.9830067958590476 2.5773928254034661 #
coedge $-1 $246 $245 $238 $287 forward $235 $-1 #
edge $-1 $288 71.555169926015537 $291 76.464524304535573 $286 $308 forward 7 unknown #
vertex $-1 $250 $309 #
straight-curve $-1 25.812582932818817 8.3103680383641709 5.5570693146265029 1 0 0 I I #
edge $-1 $291 2.4049700531618736 $247 9.405825917242721 $246 $310 forward 7 unknown #
vertex $-1 $290 $311 #
straight-curve $-1 -23.822870588785769 8.3103680383641709 76.09575139052987 -0.71933979245794832 0 0.69465837861970381 I I #
point $-1 49.222071337289002 8.3103680383641709 5.5570693146265029 #
point $-1 54.305856501968442 15.311223902445018 0.64771493610646758 #
straight-curve $-1 54.305856501968442 0 5.5570693146265002 0 1 0 I I #
vertex $-1 $253 $312 #
point $-1 50.675012574017103 11.810795970404595 0.53519349962969942 #
straight-curve $-1 -54.305856501968442 21.731789403426045 0 0 0 -1 I I #
point $-1 -54.305856501968442 -21.731789403426045 -5.5570693146265002 #
straight-curve $-1 -54.305856501968442 0 -5.5570693146265002 0 1 0 I I #
point $-1 -54.305856501968442 21.731789403426045 -5.5570693146265002 #
straight-curve $-1 -54.305856501968442 2.0393609823454106 44.616460871925213 0 0 -1 I I #
point $-1 -54.305856501968442 2.0393609823454106 5.5570693146265002 #
straight-curve $-1 -54.305856501968442 -1.6248913147561979 2.4917515554070615 0 -1 0 I I #
point $-1 -54.305856501968442 2.0393609823454106 2.4917515554070615 #
point $-1 -50.126228317282404 -5.5165584631657403 1.1769422903264823 #
point $-1 -50.126228317282404 -0.9830067958590476 1.1769422903264823 #
straight-curve $-1 54.305856501968442 8.3103680383641709 77.11223924064204 0 0 -1 I I #
point $-1 54.305856501968442 8.3103680383641709 5.5570693146265002 #
straight-curve $-1 54.305856501968442 5.9053979852022973 0.64771493610647468 0 1 0 I I #
point $-1 54.305856501968442 8.3103680383641709 0.64771493610646758 #
point $-1 49.261014402939452 11.810795970404595 0.51051208579145491 #
End-of-ACIS-data 