500 0 6 0           
7 Unknown 11 ACIS 5.0 NT 24 Thu Mar 25 22:35:43 1999 
-1 9.9999999999999995e-007 1e-010 
body $-1 $6 $-1 $7 #
body $-1 $8 $-1 $9 #
body $-1 $10 $-1 $11 #
body $-1 $12 $-1 $13 #
body $-1 $14 $-1 $15 #
body $-1 $16 $-1 $17 #
lump $-1 $-1 $18 $0 #
transform $-1 1 0 0 0 1 0 0 0 1 60.370494705038602 35.726686511561773 7.8541577283863404 1 rotate no_reflect no_shear #
lump $-1 $-1 $19 $1 #
transform $-1 1 0 0 0 1 0 0 0 1 60.370494705038602 35.726686511561773 7.8541577283863404 1 rotate no_reflect no_shear #
lump $-1 $-1 $20 $2 #
transform $-1 1 0 0 0 1 0 0 0 1 60.370494705038602 35.726686511561773 7.8541577283863404 1 rotate no_reflect no_shear #
lump $-1 $-1 $21 $3 #
transform $-1 1 0 0 0 1 0 0 0 1 60.370494705038602 35.726686511561773 7.8541577283863404 1 rotate no_reflect no_shear #
lump $-1 $-1 $22 $4 #
transform $-1 1 0 0 0 1 0 0 0 1 60.370494705038602 35.726686511561773 7.8541577283863404 1 rotate no_reflect no_shear #
lump $-1 $-1 $23 $5 #
transform $-1 1 0 0 0 1 0 0 0 1 60.370494705038602 35.726686511561773 7.8541577283863404 1 rotate no_reflect no_shear #
shell $-1 $-1 $-1 $24 $-1 $6 #
shell $-1 $-1 $-1 $25 $-1 $8 #
shell $-1 $-1 $-1 $26 $-1 $10 #
shell $-1 $-1 $-1 $27 $-1 $12 #
shell $-1 $-1 $-1 $28 $-1 $14 #
shell $-1 $-1 $-1 $29 $-1 $16 #
face $-1 $30 $31 $18 $-1 $32 forward single #
face $-1 $33 $34 $19 $-1 $35 forward single #
face $-1 $36 $37 $20 $-1 $38 reversed single #
face $-1 $39 $40 $21 $-1 $41 forward single #
face $-1 $42 $43 $22 $-1 $44 forward single #
face $-1 $45 $46 $23 $-1 $47 forward single #
face $-1 $48 $49 $18 $-1 $50 reversed single #
loop $-1 $-1 $51 $24 #
plane-surface $-1 0 0 7.8541577283863404 0 0 1 1 0 0 forward_v I I I I #
face $-1 $52 $53 $19 $-1 $54 reversed single #
loop $-1 $-1 $55 $25 #
plane-surface $-1 0 -35.726686511561773 0 0 1 0 0 0 1 forward_v I I I I #
face $-1 $56 $57 $20 $-1 $58 reversed single #
loop $-1 $-1 $59 $26 #
plane-surface $-1 57.39043637816939 -11.856465118630906 172.57204999157915 0 -1 0 -0.69465837861970381 0 -0.71933979245794832 forward_v I I I I #
face $-1 $60 $61 $21 $-1 $62 forward single #
loop $-1 $63 $64 $27 #
cone-surface $-1 56.503364902901389 -25.725709493076192 4.0669454395482703 -0.69465837861970381 0 -0.71933979245794832 0.71933979245794832 0 -0.69465837861970381 1 I I 0 1 1 forward I I I I #
face $-1 $65 $66 $22 $-1 $67 forward single #
loop $-1 $68 $69 $28 #
cone-surface $-1 56.503364902901389 -20.524742852659209 4.0669454395482703 -0.69465837861970381 0 -0.71933979245794832 0.71933979245794832 0 -0.69465837861970381 1 I I 0 1 1 forward I I I I #
face $-1 $70 $71 $23 $-1 $72 forward single #
loop $-1 $73 $74 $29 #
cone-surface $-1 56.503364902901389 -15.32377621224223 4.0669454395482703 -0.69465837861970381 0 -0.71933979245794832 0.71933979245794832 0 -0.69465837861970381 1 I I 0 1 1 forward I I I I #
face $-1 $75 $76 $18 $-1 $77 reversed single #
loop $-1 $-1 $78 $30 #
plane-surface $-1 0 0 -7.8541577283863404 0 0 1 1 0 0 forward_v I I I I #
coedge $-1 $79 $80 $81 $82 forward $31 $-1 #
face $-1 $83 $84 $19 $-1 $85 forward single #
loop $-1 $-1 $86 $33 #
plane-surface $-1 -60.370494705038602 0 0 1 0 0 0 0 -1 forward_v I I I I #
coedge $-1 $87 $88 $89 $90 forward $34 $-1 #
face $-1 $91 $92 $20 $-1 $93 reversed single #
loop $-1 $-1 $94 $36 #
plane-surface $-1 -26.48330355837367 -20.524742852659209 85.718251728166877 0.69465837861970381 0 0.71933979245794832 0.71933979245794832 0 -0.69465837861970381 forward_v I I I I #
coedge $-1 $95 $96 $97 $98 reversed $37 $-1 #
face $-1 $-1 $99 $21 $-1 $100 forward single #
loop $-1 $101 $102 $39 #
cone-surface $-1 55.400491112144117 -25.725709493076192 2.9248862228624688 -0.69465837861970381 0 -0.71933979245794832 0.35966989622897416 0 -0.3473291893098519 1 I I -0.70710678118654746 0.70710678118654746 0.5 forward I I I I #
loop $-1 $-1 $103 $27 #
coedge $-1 $64 $64 $104 $105 reversed $40 $-1 #
face $-1 $-1 $106 $22 $-1 $107 forward single #
loop $-1 $108 $109 $42 #
cone-surface $-1 55.400491112144117 -20.524742852659209 2.9248862228624688 -0.69465837861970381 0 -0.71933979245794832 0.35966989622897416 0 -0.3473291893098519 1 I I -0.70710678118654746 0.70710678118654746 0.5 forward I I I I #
loop $-1 $-1 $110 $28 #
coedge $-1 $69 $69 $111 $112 reversed $43 $-1 #
face $-1 $-1 $113 $23 $-1 $114 forward single #
loop $-1 $115 $116 $45 #
cone-surface $-1 55.400491112144117 -15.32377621224223 2.9248862228624688 -0.69465837861970381 0 -0.71933979245794832 0.35966989622897416 0 -0.3473291893098519 1 I I -0.70710678118654746 0.70710678118654746 0.5 forward I I I I #
loop $-1 $-1 $117 $29 #
coedge $-1 $74 $74 $118 $119 reversed $46 $-1 #
face $-1 $120 $121 $18 $-1 $122 reversed single #
loop $-1 $-1 $123 $48 #
plane-surface $-1 0 -35.726686511561773 0 0 1 0 0 0 1 forward_v I I I I #
coedge $-1 $124 $125 $126 $127 forward $49 $-1 #
coedge $-1 $128 $51 $129 $130 forward $31 $-1 #
coedge $-1 $51 $128 $131 $132 forward $31 $-1 #
coedge $-1 $133 $134 $51 $82 reversed $135 $-1 #
edge $-1 $136 -35.726686511561773 $137 35.726686511561773 $81 $138 forward 7 unknown #
face $-1 $139 $140 $19 $-1 $141 reversed single #
loop $-1 $-1 $142 $52 #
plane-surface $-1 0 -38.993519473998902 -2.0888667586060974 0 0 1 1 0 0 forward_v I I I I #
coedge $-1 $143 $144 $88 $145 forward $53 $-1 #
coedge $-1 $146 $55 $147 $148 reversed $34 $-1 #
coedge $-1 $55 $146 $86 $145 reversed $34 $-1 #
coedge $-1 $149 $142 $55 $90 reversed $84 $-1 #
edge $-1 $150 -60.370494705038602 $151 60.370494705038602 $89 $152 forward 7 unknown #
face $-1 $153 $154 $20 $-1 $155 reversed single #
loop $-1 $-1 $156 $56 #
plane-surface $-1 57.39043637816939 -29.19302058668751 172.57204999157915 0 1 0 0.69465837861970381 0 0.71933979245794832 forward_v I I I I #
coedge $-1 $157 $158 $159 $160 reversed $57 $-1 #
coedge $-1 $96 $59 $161 $162 reversed $37 $-1 #
coedge $-1 $59 $95 $157 $163 reversed $37 $-1 #
coedge $-1 $159 $164 $59 $98 forward $165 $-1 #
edge $-1 $166 -31.675276515953907 $167 -25.452106114574288 $97 $168 forward 7 unknown #
loop $-1 $-1 $104 $60 #
plane-surface $-1 -26.48330355837367 -20.524742852659209 85.718251728166877 0.69465837861970381 0 0.71933979245794832 0.71933979245794832 0 -0.69465837861970381 forward_v I I I I #
loop $-1 $-1 $169 $39 #
coedge $-1 $102 $102 $103 $170 reversed $61 $-1 #
coedge $-1 $103 $103 $102 $170 forward $63 $-1 #
coedge $-1 $104 $104 $64 $105 forward $99 $-1 #
edge $-1 $171 0 $171 6.2831853071796004 $104 $172 forward 7 unknown #
loop $-1 $-1 $111 $65 #
plane-surface $-1 -26.48330355837367 -20.524742852659209 85.718251728166877 0.69465837861970381 0 0.71933979245794832 0.71933979245794832 0 -0.69465837861970381 forward_v I I I I #
loop $-1 $-1 $173 $42 #
coedge $-1 $109 $109 $110 $174 reversed $66 $-1 #
coedge $-1 $110 $110 $109 $174 forward $68 $-1 #
coedge $-1 $111 $111 $69 $112 forward $106 $-1 #
edge $-1 $175 0 $175 6.2831853071796004 $111 $176 forward 7 unknown #
loop $-1 $-1 $118 $70 #
plane-surface $-1 -26.48330355837367 -20.524742852659209 85.718251728166877 0.69465837861970381 0 0.71933979245794832 0.71933979245794832 0 -0.69465837861970381 forward_v I I I I #
loop $-1 $-1 $177 $45 #
coedge $-1 $116 $116 $117 $178 reversed $71 $-1 #
coedge $-1 $117 $117 $116 $178 forward $73 $-1 #
coedge $-1 $118 $118 $74 $119 forward $113 $-1 #
edge $-1 $179 0 $179 6.2831853071796004 $118 $180 forward 7 unknown #
face $-1 $181 $182 $18 $-1 $183 reversed single #
loop $-1 $-1 $184 $75 #
plane-surface $-1 -60.370494705038602 0 0 1 0 0 0 0 -1 forward_v I I I I #
coedge $-1 $185 $131 $186 $187 forward $76 $-1 #
coedge $-1 $188 $78 $185 $189 forward $49 $-1 #
coedge $-1 $78 $188 $190 $191 forward $49 $-1 #
coedge $-1 $134 $133 $78 $127 reversed $135 $-1 #
edge $-1 $192 -35.726686511561773 $193 35.726686511561773 $126 $194 forward 7 unknown #
coedge $-1 $80 $79 $195 $196 forward $31 $-1 #
coedge $-1 $197 $198 $79 $130 reversed $182 $-1 #
edge $-1 $137 -60.370494705038602 $199 60.370494705038602 $129 $200 forward 7 unknown #
coedge $-1 $123 $201 $80 $132 reversed $76 $-1 #
edge $-1 $202 -60.370494705038602 $136 60.370494705038602 $131 $203 forward 7 unknown #
coedge $-1 $126 $81 $201 $204 forward $135 $-1 #
coedge $-1 $81 $126 $197 $205 reversed $135 $-1 #
loop $-1 $-1 $133 $181 #
vertex $-1 $82 $206 #
vertex $-1 $82 $207 #
straight-curve $-1 60.370494705038602 0 7.8541577283863404 0 1 0 I I #
face $-1 $208 $209 $19 $-1 $210 reversed single #
loop $-1 $-1 $211 $83 #
plane-surface $-1 0 -38.993519473998902 -5.0888667586060974 0 0 1 1 0 0 forward_v I I I I #
coedge $-1 $89 $212 $213 $214 forward $84 $-1 #
coedge $-1 $215 $86 $216 $217 reversed $53 $-1 #
coedge $-1 $86 $215 $149 $218 reversed $53 $-1 #
edge $-1 $150 2.0888667586060974 $219 5.0888667586060974 $86 $220 forward 7 unknown #
coedge $-1 $88 $87 $221 $222 forward $34 $-1 #
coedge $-1 $213 $223 $87 $148 forward $224 $-1 #
edge $-1 $225 -5.0888667586060974 $151 -2.0888667586060974 $147 $226 forward 7 unknown #
coedge $-1 $212 $89 $144 $218 forward $84 $-1 #
vertex $-1 $145 $227 #
vertex $-1 $214 $228 #
straight-curve $-1 0 -35.726686511561773 -2.0888667586060974 1 0 0 I I #
face $-1 $-1 $165 $20 $-1 $229 forward single #
loop $-1 $-1 $230 $91 #
plane-surface $-1 60.370494705038602 0 0 -1 0 0 0 0 1 forward_v I I I I #
coedge $-1 $231 $232 $233 $234 reversed $92 $-1 #
coedge $-1 $235 $94 $96 $163 forward $57 $-1 #
coedge $-1 $94 $235 $231 $236 forward $57 $-1 #
coedge $-1 $233 $97 $94 $160 forward $165 $-1 #
edge $-1 $167 1.5940936923013016 $237 18.930649160357905 $159 $238 forward 7 unknown #
coedge $-1 $239 $240 $95 $162 forward $154 $-1 #
edge $-1 $241 -84.441513204165759 $166 -78.431867267403234 $161 $242 forward 7 unknown #
edge $-1 $167 112.0897644026084 $241 120.74098941007719 $96 $243 forward 7 unknown #
coedge $-1 $97 $233 $239 $244 forward $165 $-1 #
loop $-1 $-1 $233 $153 #
vertex $-1 $162 $245 #
vertex $-1 $98 $246 #
straight-curve $-1 28.695218189084695 -11.856465118630906 7.8541577283863404 -1 0 0 I I #
coedge $-1 $169 $169 $-1 $247 reversed $101 $-1 #
edge $-1 $248 0 $248 6.2831853071796004 $102 $249 forward 7 unknown #
vertex $-1 $105 $250 #
ellipse-curve $-1 57.258909504348786 -25.725709493076192 4.8493347600050738 0.69465837861970381 0 0.71933979245794832 0.71933979245794832 0 -0.69465837861970381 1 I I #
coedge $-1 $173 $173 $-1 $251 reversed $108 $-1 #
edge $-1 $252 0 $252 6.2831853071796004 $109 $253 forward 7 unknown #
vertex $-1 $112 $254 #
ellipse-curve $-1 57.258909504348786 -20.524742852659209 4.8493347600050738 0.69465837861970381 0 0.71933979245794832 0.71933979245794832 0 -0.69465837861970381 1 I I #
coedge $-1 $177 $177 $-1 $255 reversed $115 $-1 #
edge $-1 $256 0 $256 6.2831853071796004 $116 $257 forward 7 unknown #
vertex $-1 $119 $258 #
ellipse-curve $-1 57.258909504348786 -15.32377621224223 4.8493347600050738 0.69465837861970381 0 0.71933979245794832 0.71933979245794832 0 -0.69465837861970381 1 I I #
face $-1 $-1 $135 $18 $-1 $259 reversed single #
loop $-1 $-1 $197 $120 #
plane-surface $-1 0 35.726686511561773 0 0 -1 0 0 0 -1 forward_v I I I I #
coedge $-1 $260 $195 $198 $261 forward $121 $-1 #
coedge $-1 $201 $123 $124 $189 reversed $76 $-1 #
coedge $-1 $195 $260 $123 $187 reversed $121 $-1 #
edge $-1 $202 -7.8541577283863404 $262 7.8541577283863404 $186 $263 forward 7 unknown #
coedge $-1 $125 $124 $260 $264 forward $49 $-1 #
edge $-1 $193 -60.370494705038602 $262 60.370494705038602 $185 $265 forward 7 unknown #
coedge $-1 $198 $197 $125 $191 reversed $182 $-1 #
edge $-1 $266 -60.370494705038602 $192 60.370494705038602 $190 $267 forward 7 unknown #
vertex $-1 $127 $268 #
vertex $-1 $204 $269 #
straight-curve $-1 60.370494705038602 0 -7.8541577283863404 0 -1 0 I I #
coedge $-1 $184 $186 $128 $196 reversed $121 $-1 #
edge $-1 $199 -35.726686511561773 $202 35.726686511561773 $195 $270 forward 7 unknown #
coedge $-1 $190 $129 $134 $205 forward $182 $-1 #
coedge $-1 $129 $190 $184 $261 reversed $182 $-1 #
vertex $-1 $130 $271 #
straight-curve $-1 0 35.726686511561773 7.8541577283863404 -1 0 0 I I #
coedge $-1 $131 $185 $133 $204 reversed $76 $-1 #
vertex $-1 $196 $272 #
straight-curve $-1 0 -35.726686511561773 7.8541577283863404 1 0 0 I I #
edge $-1 $136 -7.8541577283863404 $193 7.8541577283863404 $133 $273 forward 7 unknown #
edge $-1 $137 -7.8541577283863404 $192 7.8541577283863404 $134 $274 forward 7 unknown #
point $-1 60.370494705038602 -35.726686511561773 7.8541577283863404 #
point $-1 60.370494705038602 35.726686511561773 7.8541577283863404 #
face $-1 $-1 $224 $19 $-1 $275 reversed single #
loop $-1 $-1 $276 $139 #
plane-surface $-1 0 -42.26035243643603 -3.5888667586060974 0 1 0 0 0 1 forward_v I I I I #
coedge $-1 $277 $221 $223 $278 forward $140 $-1 #
coedge $-1 $142 $149 $279 $280 forward $84 $-1 #
coedge $-1 $281 $147 $142 $214 reversed $224 $-1 #
edge $-1 $282 -3.2668329624371282 $151 3.2668329624371282 $213 $283 forward 7 unknown #
coedge $-1 $144 $143 $276 $284 reversed $53 $-1 #
coedge $-1 $221 $277 $143 $217 forward $140 $-1 #
edge $-1 $285 -3.2668329624371282 $219 3.2668329624371282 $143 $286 forward 7 unknown #
edge $-1 $150 -3.2668329624371282 $287 3.2668329624371282 $144 $288 forward 7 unknown #
vertex $-1 $145 $289 #
straight-curve $-1 -60.370494705038602 -35.726686511561773 0 0 0 -1 I I #
coedge $-1 $211 $216 $146 $222 reversed $140 $-1 #
edge $-1 $225 -60.370494705038602 $219 60.370494705038602 $221 $290 forward 7 unknown #
coedge $-1 $147 $281 $211 $278 reversed $224 $-1 #
loop $-1 $-1 $147 $208 #
vertex $-1 $148 $291 #
straight-curve $-1 60.370494705038602 -35.726686511561773 0 0 0 1 I I #
point $-1 -60.370494705038602 -35.726686511561773 -2.0888667586060974 #
point $-1 60.370494705038602 -35.726686511561773 -2.0888667586060974 #
plane-surface $-1 0 0 7.8541577283863404 0 0 1 1 0 0 forward_v I I I I #
coedge $-1 $240 $239 $232 $292 forward $154 $-1 #
coedge $-1 $232 $156 $158 $236 reversed $92 $-1 #
coedge $-1 $156 $231 $230 $292 reversed $92 $-1 #
coedge $-1 $164 $159 $156 $234 forward $165 $-1 #
edge $-1 $237 25.452106114574288 $293 31.675276515953907 $233 $294 forward 7 unknown #
coedge $-1 $158 $157 $240 $295 reversed $57 $-1 #
edge $-1 $296 -120.74098941007719 $237 -112.0897644026084 $231 $297 forward 7 unknown #
vertex $-1 $160 $298 #
straight-curve $-1 54.147324303658969 -10.262371426329604 7.8541577283863475 0 -1 0 I I #
coedge $-1 $230 $161 $164 $244 reversed $154 $-1 #
coedge $-1 $161 $230 $235 $295 forward $154 $-1 #
vertex $-1 $162 $299 #
straight-curve $-1 60.370494705038602 -11.856465118630906 86.286024995789575 0 0 1 I I #
straight-curve $-1 -26.48330355837367 -11.856465118630906 85.718251728166877 0.71933979245794832 0 -0.69465837861970381 I I #
edge $-1 $293 -29.19302058668751 $166 -11.856465118630906 $239 $300 forward 7 unknown #
point $-1 60.370494705038602 -11.856465118630906 7.8541577283863404 #
point $-1 54.147324303658984 -11.856465118630906 7.8541577283863404 #
edge $-1 $301 1 $301 0 $169 $-1 forward 7 unknown #
vertex $-1 $170 $302 #
ellipse-curve $-1 55.74782030145397 -25.725709493076192 3.2845561190914427 0.69465837861970381 0 0.71933979245794832 0.71933979245794832 0 -0.69465837861970381 1 I I #
point $-1 57.978249296806759 -25.725709493076192 4.154676381385392 #
edge $-1 $303 1 $303 0 $173 $-1 forward 7 unknown #
vertex $-1 $174 $304 #
ellipse-curve $-1 55.74782030145397 -20.524742852659209 3.2845561190914427 0.69465837861970381 0 0.71933979245794832 0.71933979245794832 0 -0.69465837861970381 1 I I #
point $-1 57.978249296806759 -20.524742852659209 4.154676381385392 #
edge $-1 $305 1 $305 0 $177 $-1 forward 7 unknown #
vertex $-1 $178 $306 #
ellipse-curve $-1 55.74782030145397 -15.32377621224223 3.2845561190914427 0.69465837861970381 0 0.71933979245794832 0.71933979245794832 0 -0.69465837861970381 1 I I #
point $-1 57.978249296806759 -15.32377621224223 4.154676381385392 #
plane-surface $-1 60.370494705038602 0 0 -1 0 0 0 0 1 forward_v I I I I #
coedge $-1 $186 $184 $188 $264 reversed $121 $-1 #
edge $-1 $199 -7.8541577283863404 $266 7.8541577283863404 $198 $307 forward 7 unknown #
vertex $-1 $264 $308 #
straight-curve $-1 -60.370494705038602 -35.726686511561773 0 0 0 -1 I I #
edge $-1 $262 -35.726686511561773 $266 35.726686511561773 $260 $309 forward 7 unknown #
straight-curve $-1 0 -35.726686511561773 -7.8541577283863404 -1 0 0 I I #
vertex $-1 $191 $310 #
straight-curve $-1 0 35.726686511561773 -7.8541577283863404 1 0 0 I I #
point $-1 60.370494705038602 35.726686511561773 -7.8541577283863404 #
point $-1 60.370494705038602 -35.726686511561773 -7.8541577283863404 #
straight-curve $-1 -60.370494705038602 0 7.8541577283863404 0 -1 0 I I #
point $-1 -60.370494705038602 35.726686511561773 7.8541577283863404 #
point $-1 -60.370494705038602 -35.726686511561773 7.8541577283863404 #
straight-curve $-1 60.370494705038602 -35.726686511561773 0 0 0 -1 I I #
straight-curve $-1 60.370494705038602 35.726686511561773 0 0 0 -1 I I #
plane-surface $-1 60.370494705038602 0 0 -1 0 0 0 0 1 forward_v I I I I #
coedge $-1 $311 $279 $215 $284 forward $209 $-1 #
coedge $-1 $216 $211 $311 $312 forward $140 $-1 #
edge $-1 $225 -3.2668329624371282 $313 3.2668329624371282 $223 $314 forward 7 unknown #
coedge $-1 $276 $315 $212 $280 reversed $209 $-1 #
edge $-1 $287 -60.370494705038602 $282 60.370494705038602 $279 $316 forward 7 unknown #
coedge $-1 $223 $213 $315 $317 forward $224 $-1 #
vertex $-1 $214 $318 #
straight-curve $-1 60.370494705038602 -38.993519473998902 -2.0888667586060974 0 1 0 I I #
edge $-1 $287 -1.5 $285 1.5 $215 $319 forward 7 unknown #
vertex $-1 $217 $320 #
straight-curve $-1 -60.370494705038602 -38.993519473998902 -5.0888667586060974 0 1 0 I I #
vertex $-1 $218 $321 #
straight-curve $-1 -60.370494705038602 -38.993519473998902 -2.0888667586060974 0 -1 0 I I #
point $-1 -60.370494705038602 -35.726686511561773 -5.0888667586060974 #
straight-curve $-1 0 -35.726686511561773 -5.0888667586060974 -1 0 0 I I #
point $-1 60.370494705038602 -35.726686511561773 -5.0888667586060974 #
edge $-1 $293 78.431867267403234 $296 84.441513204165759 $230 $322 forward 7 unknown #
vertex $-1 $244 $323 #
straight-curve $-1 28.695218189084695 -29.19302058668751 7.8541577283863404 1 0 0 I I #
edge $-1 $296 -18.930649160357905 $241 -1.5940936923013016 $240 $324 forward 7 unknown #
vertex $-1 $295 $325 #
straight-curve $-1 -26.48330355837367 -29.19302058668751 85.718251728166877 -0.71933979245794832 0 0.69465837861970381 I I #
point $-1 54.147324303658984 -29.19302058668751 7.8541577283863404 #
point $-1 60.370494705038602 -11.856465118630906 1.8445117916238161 #
straight-curve $-1 60.370494705038602 0 7.8541577283863404 0 1 0 I I #
vertex $-1 $247 $326 #
point $-1 56.467160093911914 -25.725709493076192 2.5898977404717392 #
vertex $-1 $251 $327 #
point $-1 56.467160093911914 -20.524742852659209 2.5898977404717392 #
vertex $-1 $255 $328 #
point $-1 56.467160093911914 -15.32377621224223 2.5898977404717392 #
straight-curve $-1 -60.370494705038602 35.726686511561773 0 0 0 -1 I I #
point $-1 -60.370494705038602 -35.726686511561773 -7.8541577283863404 #
straight-curve $-1 -60.370494705038602 0 -7.8541577283863404 0 1 0 I I #
point $-1 -60.370494705038602 35.726686511561773 -7.8541577283863404 #
coedge $-1 $315 $276 $277 $312 reversed $209 $-1 #
edge $-1 $313 -60.370494705038602 $285 60.370494705038602 $311 $329 forward 7 unknown #
vertex $-1 $317 $330 #
straight-curve $-1 60.370494705038602 -38.993519473998902 -5.0888667586060974 0 -1 0 I I #
coedge $-1 $279 $311 $281 $317 reversed $209 $-1 #
straight-curve $-1 0 -42.26035243643603 -2.0888667586060974 1 0 0 I I #
edge $-1 $282 -1.5 $313 1.5 $281 $331 forward 7 unknown #
point $-1 60.370494705038602 -42.26035243643603 -2.0888667586060974 #
straight-curve $-1 -60.370494705038602 -42.26035243643603 -3.5888667586060974 0 0 -1 I I #
point $-1 -60.370494705038602 -42.26035243643603 -5.0888667586060974 #
point $-1 -60.370494705038602 -42.26035243643603 -2.0888667586060974 #
straight-curve $-1 60.370494705038602 -29.19302058668751 86.286024995789575 0 0 -1 I I #
point $-1 60.370494705038602 -29.19302058668751 7.8541577283863404 #
straight-curve $-1 60.370494705038595 -10.262371426329604 1.8445117916238303 0 1 0 I I #
point $-1 60.370494705038602 -29.19302058668751 1.8445117916238161 #
point $-1 55.053161922834263 -25.725709493076192 2.5652163266334949 #
point $-1 55.053161922834263 -20.524742852659209 2.5652163266334949 #
point $-1 55.053161922834263 -15.32377621224223 2.5652163266334949 #
straight-curve $-1 0 -42.26035243643603 -5.0888667586060974 -1 0 0 I I #
point $-1 60.370494705038602 -42.26035243643603 -5.0888667586060974 #
straight-curve $-1 60.370494705038602 -42.26035243643603 -3.5888667586060974 0 0 -1 I I #
End-of-ACIS-data 