500 0 21 0           
7 Unknown 11 ACIS 5.0 NT 24 Thu Mar 25 17:04:13 1999 
-1 9.9999999999999995e-007 1e-010 
body $-1 $21 $-1 $22 #
body $-1 $23 $-1 $24 #
body $-1 $25 $-1 $26 #
body $-1 $27 $-1 $28 #
body $-1 $29 $-1 $30 #
body $-1 $31 $-1 $32 #
body $-1 $33 $-1 $34 #
body $-1 $35 $-1 $36 #
body $-1 $37 $-1 $38 #
body $-1 $39 $-1 $40 #
body $-1 $41 $-1 $42 #
body $-1 $43 $-1 $44 #
body $-1 $45 $-1 $46 #
body $-1 $47 $-1 $48 #
body $-1 $49 $-1 $50 #
body $-1 $51 $-1 $52 #
body $-1 $53 $-1 $54 #
body $-1 $55 $-1 $56 #
body $-1 $57 $-1 $58 #
body $-1 $59 $-1 $60 #
body $-1 $61 $-1 $62 #
lump $-1 $-1 $63 $0 #
transform $-1 1 0 0 0 1 0 0 0 1 68.68495742667929 28.043719944717903 10.008767445707679 1 rotate no_reflect no_shear #
lump $-1 $-1 $64 $1 #
transform $-1 0.82903756765294845 0 -0.55919291073839883 0 1 0 0.55919291073839883 0 0.82903756765294845 100.30137730937314 7.491111453248525 204.18291785163706 1 rotate no_reflect no_shear #
lump $-1 $-1 $65 $2 #
transform $-1 0.82903756765294845 0 -0.55919291073839883 0 -1 0 -0.55919291073839883 0 -0.82903756765294845 130.23698254559451 5.9777455541636737 13.357381462179788 1 rotate no_reflect no_shear #
lump $-1 $-1 $66 $3 #
transform $-1 0.82903756765294845 0 -0.55919291073839883 0 -1 0 -0.55919291073839883 0 -0.82903756765294845 130.23698254559451 9.0044773523333763 13.357381462179788 1 rotate no_reflect no_shear #
lump $-1 $-1 $67 $4 #
transform $-1 0.82903756765294845 0 -0.55919291073839883 0 1 0 0.55919291073839883 0 0.82903756765294845 100.30137730937314 21.512971425607475 204.18291785163706 1 rotate no_reflect no_shear #
lump $-1 $-1 $68 $5 #
transform $-1 0.82903756765294845 0 -0.55919291073839883 0 -1 0 -0.55919291073839883 0 -0.82903756765294845 130.23698254559451 19.999605526522625 13.357381462179788 1 rotate no_reflect no_shear #
lump $-1 $-1 $69 $6 #
transform $-1 0.82903756765294845 0 -0.55919291073839883 0 -1 0 -0.55919291073839883 0 -0.82903756765294845 130.23698254559451 23.026337324692328 13.357381462179788 1 rotate no_reflect no_shear #
lump $-1 $-1 $70 $7 #
transform $-1 0.82903756765294845 0 -0.55919291073839883 0 1 0 0.55919291073839883 0 0.82903756765294845 100.30137730937314 35.534831397966428 204.18291785163706 1 rotate no_reflect no_shear #
lump $-1 $-1 $71 $8 #
transform $-1 0.82903756765294845 0 -0.55919291073839883 0 -1 0 -0.55919291073839883 0 -0.82903756765294845 130.23698254559451 34.021465498881575 13.357381462179788 1 rotate no_reflect no_shear #
lump $-1 $-1 $72 $9 #
transform $-1 0.82903756765294845 0 -0.55919291073839883 0 -1 0 -0.55919291073839883 0 -0.82903756765294845 130.23698254559451 37.048197297051281 13.357381462179788 1 rotate no_reflect no_shear #
lump $-1 $-1 $73 $10 #
transform $-1 0.82903756765294845 0 -0.55919291073839883 0 1 0 0.55919291073839883 0 0.82903756765294845 100.30137730937314 49.556691370325382 204.18291785163706 1 rotate no_reflect no_shear #
lump $-1 $-1 $74 $11 #
transform $-1 0.82903756765294845 0 -0.55919291073839883 0 -1 0 -0.55919291073839883 0 -0.82903756765294845 130.23698254559451 48.043325471240529 13.357381462179788 1 rotate no_reflect no_shear #
lump $-1 $-1 $75 $12 #
transform $-1 0.82903756765294845 0 -0.55919291073839883 0 -1 0 -0.55919291073839883 0 -0.82903756765294845 130.23698254559451 51.070057269410235 13.357381462179788 1 rotate no_reflect no_shear #
lump $-1 $-1 $76 $13 #
transform $-1 0.80901698891910034 0 0.5877852598018023 0 1 0 -0.5877852598018023 0 0.80901698891910034 -80.744011091032831 11.527813728126713 124.27331911524396 1 rotate no_reflect no_shear #
lump $-1 $-1 $77 $14 #
transform $-1 0.80901698891910034 0 0.5877852598018023 0 -1 0 0.5877852598018023 0 -0.80901698891910034 7.3063186527520809 8.0117080720018983 13.037547582027441 1 rotate no_reflect no_shear #
lump $-1 $-1 $78 $15 #
transform $-1 0.80901698891910034 0 0.5877852598018023 0 -1 0 0.5877852598018023 0 -0.80901698891910034 7.3063186527520809 11.527813728126713 13.037547582027441 1 rotate no_reflect no_shear #
lump $-1 $-1 $79 $16 #
transform $-1 0.80901698891910034 0 0.5877852598018023 0 -1 0 0.5877852598018023 0 -0.80901698891910034 7.3063186527520809 15.043919384251527 13.037547582027441 1 rotate no_reflect no_shear #
lump $-1 $-1 $80 $17 #
transform $-1 0.80901698891910034 0 0.5877852598018023 0 1 0 -0.5877852598018023 0 0.80901698891910034 -80.744011091032831 44.559626161309097 124.27331911524396 1 rotate no_reflect no_shear #
lump $-1 $-1 $81 $18 #
transform $-1 0.80901698891910034 0 0.5877852598018023 0 -1 0 0.5877852598018023 0 -0.80901698891910034 7.3063186527520809 41.043520505184276 13.037547582027441 1 rotate no_reflect no_shear #
lump $-1 $-1 $82 $19 #
transform $-1 0.80901698891910034 0 0.5877852598018023 0 -1 0 0.5877852598018023 0 -0.80901698891910034 7.3063186527520809 44.559626161309097 13.037547582027441 1 rotate no_reflect no_shear #
lump $-1 $-1 $83 $20 #
transform $-1 0.80901698891910034 0 0.5877852598018023 0 -1 0 0.5877852598018023 0 -0.80901698891910034 7.3063186527520809 48.075731817433905 13.037547582027441 1 rotate no_reflect no_shear #
shell $-1 $-1 $-1 $84 $-1 $21 #
shell $-1 $-1 $-1 $85 $-1 $23 #
shell $-1 $-1 $-1 $86 $-1 $25 #
shell $-1 $-1 $-1 $87 $-1 $27 #
shell $-1 $-1 $-1 $88 $-1 $29 #
shell $-1 $-1 $-1 $89 $-1 $31 #
shell $-1 $-1 $-1 $90 $-1 $33 #
shell $-1 $-1 $-1 $91 $-1 $35 #
shell $-1 $-1 $-1 $92 $-1 $37 #
shell $-1 $-1 $-1 $93 $-1 $39 #
shell $-1 $-1 $-1 $94 $-1 $41 #
shell $-1 $-1 $-1 $95 $-1 $43 #
shell $-1 $-1 $-1 $96 $-1 $45 #
shell $-1 $-1 $-1 $97 $-1 $47 #
shell $-1 $-1 $-1 $98 $-1 $49 #
shell $-1 $-1 $-1 $99 $-1 $51 #
shell $-1 $-1 $-1 $100 $-1 $53 #
shell $-1 $-1 $-1 $101 $-1 $55 #
shell $-1 $-1 $-1 $102 $-1 $57 #
shell $-1 $-1 $-1 $103 $-1 $59 #
shell $-1 $-1 $-1 $104 $-1 $61 #
face $-1 $105 $106 $63 $-1 $107 forward single #
face $-1 $108 $109 $64 $-1 $110 forward single #
face $-1 $111 $112 $65 $-1 $113 forward single #
face $-1 $114 $115 $66 $-1 $116 forward single #
face $-1 $117 $118 $67 $-1 $119 forward single #
face $-1 $120 $121 $68 $-1 $122 forward single #
face $-1 $123 $124 $69 $-1 $125 forward single #
face $-1 $126 $127 $70 $-1 $128 forward single #
face $-1 $129 $130 $71 $-1 $131 forward single #
face $-1 $132 $133 $72 $-1 $134 forward single #
face $-1 $135 $136 $73 $-1 $137 forward single #
face $-1 $138 $139 $74 $-1 $140 forward single #
face $-1 $141 $142 $75 $-1 $143 forward single #
face $-1 $144 $145 $76 $-1 $146 forward single #
face $-1 $147 $148 $77 $-1 $149 forward single #
face $-1 $150 $151 $78 $-1 $152 forward single #
face $-1 $153 $154 $79 $-1 $155 forward single #
face $-1 $156 $157 $80 $-1 $158 forward single #
face $-1 $159 $160 $81 $-1 $161 forward single #
face $-1 $162 $163 $82 $-1 $164 forward single #
face $-1 $165 $166 $83 $-1 $167 forward single #
face $-1 $168 $169 $63 $-1 $170 reversed single #
loop $-1 $-1 $171 $84 #
plane-surface $-1 0 0 10.008767445707679 0 0 1 1 0 0 forward_v I I I I #
face $-1 $172 $173 $64 $-1 $174 reversed single #
loop $-1 $-1 $175 $85 #
plane-surface $-1 0 0 137.36991485335858 0 0 1 1 0 0 forward_v I I I I #
face $-1 $176 $177 $65 $-1 $178 forward single #
loop $-1 $179 $180 $86 #
cone-surface $-1 0 0 -2.2959227271340072 0 0 1 1 0 0 1 I I 0 1 1 forward I I I I #
face $-1 $181 $182 $66 $-1 $183 forward single #
loop $-1 $184 $185 $87 #
cone-surface $-1 0 0 -2.2959227271340072 0 0 1 1 0 0 1 I I 0 1 1 forward I I I I #
face $-1 $186 $187 $67 $-1 $188 reversed single #
loop $-1 $-1 $189 $88 #
plane-surface $-1 0 0 137.36991485335858 0 0 1 1 0 0 forward_v I I I I #
face $-1 $190 $191 $68 $-1 $192 forward single #
loop $-1 $193 $194 $89 #
cone-surface $-1 0 0 -2.2959227271340072 0 0 1 1 0 0 1 I I 0 1 1 forward I I I I #
face $-1 $195 $196 $69 $-1 $197 forward single #
loop $-1 $198 $199 $90 #
cone-surface $-1 0 0 -2.2959227271340072 0 0 1 1 0 0 1 I I 0 1 1 forward I I I I #
face $-1 $200 $201 $70 $-1 $202 reversed single #
loop $-1 $-1 $203 $91 #
plane-surface $-1 0 0 137.36991485335858 0 0 1 1 0 0 forward_v I I I I #
face $-1 $204 $205 $71 $-1 $206 forward single #
loop $-1 $207 $208 $92 #
cone-surface $-1 0 0 -2.2959227271340072 0 0 1 1 0 0 1 I I 0 1 1 forward I I I I #
face $-1 $209 $210 $72 $-1 $211 forward single #
loop $-1 $212 $213 $93 #
cone-surface $-1 0 0 -2.2959227271340072 0 0 1 1 0 0 1 I I 0 1 1 forward I I I I #
face $-1 $214 $215 $73 $-1 $216 reversed single #
loop $-1 $-1 $217 $94 #
plane-surface $-1 0 0 137.36991485335858 0 0 1 1 0 0 forward_v I I I I #
face $-1 $218 $219 $74 $-1 $220 forward single #
loop $-1 $221 $222 $95 #
cone-surface $-1 0 0 -2.2959227271340072 0 0 1 1 0 0 1 I I 0 1 1 forward I I I I #
face $-1 $223 $224 $75 $-1 $225 forward single #
loop $-1 $226 $227 $96 #
cone-surface $-1 0 0 -2.2959227271340072 0 0 1 1 0 0 1 I I 0 1 1 forward I I I I #
face $-1 $228 $229 $76 $-1 $230 reversed single #
loop $-1 $-1 $231 $97 #
plane-surface $-1 0 0 137.36991485335858 0 0 1 1 0 0 forward_v I I I I #
face $-1 $232 $233 $77 $-1 $234 forward single #
loop $-1 $235 $236 $98 #
cone-surface $-1 0 0 -2.4382000183111057 0 0 1 1 0 0 1 I I 0 1 1 forward I I I I #
face $-1 $237 $238 $78 $-1 $239 forward single #
loop $-1 $240 $241 $99 #
cone-surface $-1 0 0 -2.4382000183111057 0 0 1 1 0 0 1 I I 0 1 1 forward I I I I #
face $-1 $242 $243 $79 $-1 $244 forward single #
loop $-1 $245 $246 $100 #
cone-surface $-1 0 0 -2.4382000183111057 0 0 1 1 0 0 1 I I 0 1 1 forward I I I I #
face $-1 $247 $248 $80 $-1 $249 reversed single #
loop $-1 $-1 $250 $101 #
plane-surface $-1 0 0 137.36991485335858 0 0 1 1 0 0 forward_v I I I I #
face $-1 $251 $252 $81 $-1 $253 forward single #
loop $-1 $254 $255 $102 #
cone-surface $-1 0 0 -2.4382000183111057 0 0 1 1 0 0 1 I I 0 1 1 forward I I I I #
face $-1 $256 $257 $82 $-1 $258 forward single #
loop $-1 $259 $260 $103 #
cone-surface $-1 0 0 -2.4382000183111057 0 0 1 1 0 0 1 I I 0 1 1 forward I I I I #
face $-1 $261 $262 $83 $-1 $263 forward single #
loop $-1 $264 $265 $104 #
cone-surface $-1 0 0 -2.4382000183111057 0 0 1 1 0 0 1 I I 0 1 1 forward I I I I #
face $-1 $266 $267 $63 $-1 $268 reversed single #
loop $-1 $-1 $269 $105 #
plane-surface $-1 0 0 -10.008767445707679 0 0 1 1 0 0 forward_v I I I I #
coedge $-1 $270 $271 $272 $273 forward $106 $-1 #
face $-1 $274 $275 $64 $-1 $276 reversed single #
loop $-1 $-1 $277 $108 #
plane-surface $-1 0 0 -137.36991485335858 0 0 1 1 0 0 forward_v I I I I #
coedge $-1 $278 $279 $280 $281 forward $109 $-1 #
face $-1 $-1 $282 $65 $-1 $283 forward single #
loop $-1 $-1 $284 $111 #
plane-surface $-1 0 0 -4.0918454542680145 0 0 -1 -1 0 0 forward_v I I I I #
loop $-1 $-1 $285 $86 #
coedge $-1 $180 $180 $284 $286 reversed $112 $-1 #
face $-1 $-1 $287 $66 $-1 $288 forward single #
loop $-1 $-1 $289 $114 #
plane-surface $-1 0 0 -4.0918454542680145 0 0 -1 -1 0 0 forward_v I I I I #
loop $-1 $-1 $290 $87 #
coedge $-1 $185 $185 $289 $291 reversed $115 $-1 #
face $-1 $292 $293 $67 $-1 $294 reversed single #
loop $-1 $-1 $295 $117 #
plane-surface $-1 0 0 -137.36991485335858 0 0 1 1 0 0 forward_v I I I I #
coedge $-1 $296 $297 $298 $299 forward $118 $-1 #
face $-1 $-1 $300 $68 $-1 $301 forward single #
loop $-1 $-1 $302 $120 #
plane-surface $-1 0 0 -4.0918454542680145 0 0 -1 -1 0 0 forward_v I I I I #
loop $-1 $-1 $303 $89 #
coedge $-1 $194 $194 $302 $304 reversed $121 $-1 #
face $-1 $-1 $305 $69 $-1 $306 forward single #
loop $-1 $-1 $307 $123 #
plane-surface $-1 0 0 -4.0918454542680145 0 0 -1 -1 0 0 forward_v I I I I #
loop $-1 $-1 $308 $90 #
coedge $-1 $199 $199 $307 $309 reversed $124 $-1 #
face $-1 $310 $311 $70 $-1 $312 reversed single #
loop $-1 $-1 $313 $126 #
plane-surface $-1 0 0 -137.36991485335858 0 0 1 1 0 0 forward_v I I I I #
coedge $-1 $314 $315 $316 $317 forward $127 $-1 #
face $-1 $-1 $318 $71 $-1 $319 forward single #
loop $-1 $-1 $320 $129 #
plane-surface $-1 0 0 -4.0918454542680145 0 0 -1 -1 0 0 forward_v I I I I #
loop $-1 $-1 $321 $92 #
coedge $-1 $208 $208 $320 $322 reversed $130 $-1 #
face $-1 $-1 $323 $72 $-1 $324 forward single #
loop $-1 $-1 $325 $132 #
plane-surface $-1 0 0 -4.0918454542680145 0 0 -1 -1 0 0 forward_v I I I I #
loop $-1 $-1 $326 $93 #
coedge $-1 $213 $213 $325 $327 reversed $133 $-1 #
face $-1 $328 $329 $73 $-1 $330 reversed single #
loop $-1 $-1 $331 $135 #
plane-surface $-1 0 0 -137.36991485335858 0 0 1 1 0 0 forward_v I I I I #
coedge $-1 $332 $333 $334 $335 forward $136 $-1 #
face $-1 $-1 $336 $74 $-1 $337 forward single #
loop $-1 $-1 $338 $138 #
plane-surface $-1 0 0 -4.0918454542680145 0 0 -1 -1 0 0 forward_v I I I I #
loop $-1 $-1 $339 $95 #
coedge $-1 $222 $222 $338 $340 reversed $139 $-1 #
face $-1 $-1 $341 $75 $-1 $342 forward single #
loop $-1 $-1 $343 $141 #
plane-surface $-1 0 0 -4.0918454542680145 0 0 -1 -1 0 0 forward_v I I I I #
loop $-1 $-1 $344 $96 #
coedge $-1 $227 $227 $343 $345 reversed $142 $-1 #
face $-1 $346 $347 $76 $-1 $348 reversed single #
loop $-1 $-1 $349 $144 #
plane-surface $-1 0 0 -137.36991485335858 0 0 1 1 0 0 forward_v I I I I #
coedge $-1 $350 $351 $352 $353 forward $145 $-1 #
face $-1 $-1 $354 $77 $-1 $355 forward single #
loop $-1 $-1 $356 $147 #
plane-surface $-1 0 0 -4.3764000366222113 0 0 -1 -1 0 0 forward_v I I I I #
loop $-1 $-1 $357 $98 #
coedge $-1 $236 $236 $356 $358 reversed $148 $-1 #
face $-1 $-1 $359 $78 $-1 $360 forward single #
loop $-1 $-1 $361 $150 #
plane-surface $-1 0 0 -4.3764000366222113 0 0 -1 -1 0 0 forward_v I I I I #
loop $-1 $-1 $362 $99 #
coedge $-1 $241 $241 $361 $363 reversed $151 $-1 #
face $-1 $-1 $364 $79 $-1 $365 forward single #
loop $-1 $-1 $366 $153 #
plane-surface $-1 0 0 -4.3764000366222113 0 0 -1 -1 0 0 forward_v I I I I #
loop $-1 $-1 $367 $100 #
coedge $-1 $246 $246 $366 $368 reversed $154 $-1 #
face $-1 $369 $370 $80 $-1 $371 reversed single #
loop $-1 $-1 $372 $156 #
plane-surface $-1 0 0 -137.36991485335858 0 0 1 1 0 0 forward_v I I I I #
coedge $-1 $373 $374 $375 $376 forward $157 $-1 #
face $-1 $-1 $377 $81 $-1 $378 forward single #
loop $-1 $-1 $379 $159 #
plane-surface $-1 0 0 -4.3764000366222113 0 0 -1 -1 0 0 forward_v I I I I #
loop $-1 $-1 $380 $102 #
coedge $-1 $255 $255 $379 $381 reversed $160 $-1 #
face $-1 $-1 $382 $82 $-1 $383 forward single #
loop $-1 $-1 $384 $162 #
plane-surface $-1 0 0 -4.3764000366222113 0 0 -1 -1 0 0 forward_v I I I I #
loop $-1 $-1 $385 $103 #
coedge $-1 $260 $260 $384 $386 reversed $163 $-1 #
face $-1 $-1 $387 $83 $-1 $388 forward single #
loop $-1 $-1 $389 $165 #
plane-surface $-1 0 0 -4.3764000366222113 0 0 -1 -1 0 0 forward_v I I I I #
loop $-1 $-1 $390 $104 #
coedge $-1 $265 $265 $389 $391 reversed $166 $-1 #
face $-1 $392 $393 $63 $-1 $394 reversed single #
loop $-1 $-1 $395 $168 #
plane-surface $-1 0 -28.043719944717903 0 0 1 0 0 0 1 forward_v I I I I #
coedge $-1 $396 $397 $398 $399 forward $169 $-1 #
coedge $-1 $400 $171 $401 $402 forward $106 $-1 #
coedge $-1 $171 $400 $403 $404 forward $106 $-1 #
coedge $-1 $405 $406 $171 $273 reversed $407 $-1 #
edge $-1 $408 -28.043719944717903 $409 28.043719944717903 $272 $410 forward 7 unknown #
face $-1 $411 $412 $64 $-1 $413 reversed single #
loop $-1 $-1 $414 $172 #
plane-surface $-1 0 -3.5311870978646529 0 0 1 0 0 0 1 forward_v I I I I #
coedge $-1 $415 $416 $417 $418 forward $173 $-1 #
coedge $-1 $419 $175 $420 $421 forward $109 $-1 #
coedge $-1 $175 $419 $422 $423 forward $109 $-1 #
coedge $-1 $424 $425 $175 $281 reversed $426 $-1 #
edge $-1 $427 -3.5311870978646529 $428 3.5311870978646529 $280 $429 forward 7 unknown #
loop $-1 $430 $431 $176 #
cone-surface $-1 0 0 0 0 0 1 0.5 0 0 1 I I -0.70710678118654746 0.70710678118654746 0.5 forward I I I I #
coedge $-1 $284 $284 $180 $286 forward $177 $-1 #
coedge $-1 $285 $285 $431 $432 forward $179 $-1 #
edge $-1 $433 0 $433 6.2831853071796004 $284 $434 forward 7 unknown #
loop $-1 $435 $436 $181 #
cone-surface $-1 0 0 0 0 0 1 0.5 0 0 1 I I -0.70710678118654746 0.70710678118654746 0.5 forward I I I I #
coedge $-1 $289 $289 $185 $291 forward $182 $-1 #
coedge $-1 $290 $290 $436 $437 forward $184 $-1 #
edge $-1 $438 0 $438 6.2831853071796004 $289 $439 forward 7 unknown #
face $-1 $440 $441 $67 $-1 $442 reversed single #
loop $-1 $-1 $443 $186 #
plane-surface $-1 0 -3.5311870978646529 0 0 1 0 0 0 1 forward_v I I I I #
coedge $-1 $444 $445 $446 $447 forward $187 $-1 #
coedge $-1 $448 $189 $449 $450 forward $118 $-1 #
coedge $-1 $189 $448 $451 $452 forward $118 $-1 #
coedge $-1 $453 $454 $189 $299 reversed $455 $-1 #
edge $-1 $456 -3.5311870978646529 $457 3.5311870978646529 $298 $458 forward 7 unknown #
loop $-1 $459 $460 $190 #
cone-surface $-1 0 0 0 0 0 1 0.5 0 0 1 I I -0.70710678118654746 0.70710678118654746 0.5 forward I I I I #
coedge $-1 $302 $302 $194 $304 forward $191 $-1 #
coedge $-1 $303 $303 $460 $461 forward $193 $-1 #
edge $-1 $462 0 $462 6.2831853071796004 $302 $463 forward 7 unknown #
loop $-1 $464 $465 $195 #
cone-surface $-1 0 0 0 0 0 1 0.5 0 0 1 I I -0.70710678118654746 0.70710678118654746 0.5 forward I I I I #
coedge $-1 $307 $307 $199 $309 forward $196 $-1 #
coedge $-1 $308 $308 $465 $466 forward $198 $-1 #
edge $-1 $467 0 $467 6.2831853071796004 $307 $468 forward 7 unknown #
face $-1 $469 $470 $70 $-1 $471 reversed single #
loop $-1 $-1 $472 $200 #
plane-surface $-1 0 -3.5311870978646529 0 0 1 0 0 0 1 forward_v I I I I #
coedge $-1 $473 $474 $475 $476 forward $201 $-1 #
coedge $-1 $477 $203 $478 $479 forward $127 $-1 #
coedge $-1 $203 $477 $480 $481 forward $127 $-1 #
coedge $-1 $482 $483 $203 $317 reversed $484 $-1 #
edge $-1 $485 -3.5311870978646529 $486 3.5311870978646529 $316 $487 forward 7 unknown #
loop $-1 $488 $489 $204 #
cone-surface $-1 0 0 0 0 0 1 0.5 0 0 1 I I -0.70710678118654746 0.70710678118654746 0.5 forward I I I I #
coedge $-1 $320 $320 $208 $322 forward $205 $-1 #
coedge $-1 $321 $321 $489 $490 forward $207 $-1 #
edge $-1 $491 0 $491 6.2831853071796004 $320 $492 forward 7 unknown #
loop $-1 $493 $494 $209 #
cone-surface $-1 0 0 0 0 0 1 0.5 0 0 1 I I -0.70710678118654746 0.70710678118654746 0.5 forward I I I I #
coedge $-1 $325 $325 $213 $327 forward $210 $-1 #
coedge $-1 $326 $326 $494 $495 forward $212 $-1 #
edge $-1 $496 0 $496 6.2831853071796004 $325 $497 forward 7 unknown #
face $-1 $498 $499 $73 $-1 $500 reversed single #
loop $-1 $-1 $501 $214 #
plane-surface $-1 0 -3.5311870978646529 0 0 1 0 0 0 1 forward_v I I I I #
coedge $-1 $502 $503 $504 $505 forward $215 $-1 #
coedge $-1 $506 $217 $507 $508 forward $136 $-1 #
coedge $-1 $217 $506 $509 $510 forward $136 $-1 #
coedge $-1 $511 $512 $217 $335 reversed $513 $-1 #
edge $-1 $514 -3.5311870978646529 $515 3.5311870978646529 $334 $516 forward 7 unknown #
loop $-1 $517 $518 $218 #
cone-surface $-1 0 0 0 0 0 1 0.5 0 0 1 I I -0.70710678118654746 0.70710678118654746 0.5 forward I I I I #
coedge $-1 $338 $338 $222 $340 forward $219 $-1 #
coedge $-1 $339 $339 $518 $519 forward $221 $-1 #
edge $-1 $520 0 $520 6.2831853071796004 $338 $521 forward 7 unknown #
loop $-1 $522 $523 $223 #
cone-surface $-1 0 0 0 0 0 1 0.5 0 0 1 I I -0.70710678118654746 0.70710678118654746 0.5 forward I I I I #
coedge $-1 $343 $343 $227 $345 forward $224 $-1 #
coedge $-1 $344 $344 $523 $524 forward $226 $-1 #
edge $-1 $525 0 $525 6.2831853071796004 $343 $526 forward 7 unknown #
face $-1 $527 $528 $76 $-1 $529 reversed single #
loop $-1 $-1 $530 $228 #
plane-surface $-1 0 -5.8601760935413578 0 0 1 0 0 0 1 forward_v I I I I #
coedge $-1 $531 $532 $533 $534 forward $229 $-1 #
coedge $-1 $535 $231 $536 $537 forward $145 $-1 #
coedge $-1 $231 $535 $538 $539 forward $145 $-1 #
coedge $-1 $540 $541 $231 $353 reversed $542 $-1 #
edge $-1 $543 -5.8601760935413578 $544 5.8601760935413578 $352 $545 forward 7 unknown #
loop $-1 $546 $547 $232 #
cone-surface $-1 0 0 0 0 0 1 0.5 0 0 1 I I -0.70710678118654746 0.70710678118654746 0.5 forward I I I I #
coedge $-1 $356 $356 $236 $358 forward $233 $-1 #
coedge $-1 $357 $357 $547 $548 forward $235 $-1 #
edge $-1 $549 0 $549 6.2831853071796004 $356 $550 forward 7 unknown #
loop $-1 $551 $552 $237 #
cone-surface $-1 0 0 0 0 0 1 0.5 0 0 1 I I -0.70710678118654746 0.70710678118654746 0.5 forward I I I I #
coedge $-1 $361 $361 $241 $363 forward $238 $-1 #
coedge $-1 $362 $362 $552 $553 forward $240 $-1 #
edge $-1 $554 0 $554 6.2831853071796004 $361 $555 forward 7 unknown #
loop $-1 $556 $557 $242 #
cone-surface $-1 0 0 0 0 0 1 0.5 0 0 1 I I -0.70710678118654746 0.70710678118654746 0.5 forward I I I I #
coedge $-1 $366 $366 $246 $368 forward $243 $-1 #
coedge $-1 $367 $367 $557 $558 forward $245 $-1 #
edge $-1 $559 0 $559 6.2831853071796004 $366 $560 forward 7 unknown #
face $-1 $561 $562 $80 $-1 $563 reversed single #
loop $-1 $-1 $564 $247 #
plane-surface $-1 0 -5.8601760935413578 0 0 1 0 0 0 1 forward_v I I I I #
coedge $-1 $565 $566 $567 $568 forward $248 $-1 #
coedge $-1 $569 $250 $570 $571 forward $157 $-1 #
coedge $-1 $250 $569 $572 $573 forward $157 $-1 #
coedge $-1 $574 $575 $250 $376 reversed $576 $-1 #
edge $-1 $577 -5.8601760935413578 $578 5.8601760935413578 $375 $579 forward 7 unknown #
loop $-1 $580 $581 $251 #
cone-surface $-1 0 0 0 0 0 1 0.5 0 0 1 I I -0.70710678118654746 0.70710678118654746 0.5 forward I I I I #
coedge $-1 $379 $379 $255 $381 forward $252 $-1 #
coedge $-1 $380 $380 $581 $582 forward $254 $-1 #
edge $-1 $583 0 $583 6.2831853071796004 $379 $584 forward 7 unknown #
loop $-1 $585 $586 $256 #
cone-surface $-1 0 0 0 0 0 1 0.5 0 0 1 I I -0.70710678118654746 0.70710678118654746 0.5 forward I I I I #
coedge $-1 $384 $384 $260 $386 forward $257 $-1 #
coedge $-1 $385 $385 $586 $587 forward $259 $-1 #
edge $-1 $588 0 $588 6.2831853071796004 $384 $589 forward 7 unknown #
loop $-1 $590 $591 $261 #
cone-surface $-1 0 0 0 0 0 1 0.5 0 0 1 I I -0.70710678118654746 0.70710678118654746 0.5 forward I I I I #
coedge $-1 $389 $389 $265 $391 forward $262 $-1 #
coedge $-1 $390 $390 $591 $592 forward $264 $-1 #
edge $-1 $593 0 $593 6.2831853071796004 $389 $594 forward 7 unknown #
face $-1 $595 $596 $63 $-1 $597 reversed single #
loop $-1 $-1 $598 $266 #
plane-surface $-1 -68.68495742667929 0 0 1 0 0 0 0 -1 forward_v I I I I #
coedge $-1 $599 $403 $600 $601 forward $267 $-1 #
coedge $-1 $602 $269 $599 $603 forward $169 $-1 #
coedge $-1 $269 $602 $604 $605 forward $169 $-1 #
coedge $-1 $406 $405 $269 $399 reversed $407 $-1 #
edge $-1 $606 -28.043719944717903 $607 28.043719944717903 $398 $608 forward 7 unknown #
coedge $-1 $271 $270 $609 $610 forward $106 $-1 #
coedge $-1 $611 $612 $270 $402 reversed $596 $-1 #
edge $-1 $409 -68.68495742667929 $613 68.68495742667929 $401 $614 forward 7 unknown #
coedge $-1 $395 $615 $271 $404 reversed $267 $-1 #
edge $-1 $616 -68.68495742667929 $408 68.68495742667929 $403 $617 forward 7 unknown #
coedge $-1 $398 $272 $615 $618 forward $407 $-1 #
coedge $-1 $272 $398 $611 $619 reversed $407 $-1 #
loop $-1 $-1 $405 $595 #
vertex $-1 $273 $620 #
vertex $-1 $273 $621 #
straight-curve $-1 68.68495742667929 0 10.008767445707679 0 1 0 I I #
face $-1 $622 $623 $64 $-1 $624 reversed single #
loop $-1 $-1 $625 $274 #
plane-surface $-1 -274.73982970671716 0 0 1 0 0 0 0 -1 forward_v I I I I #
coedge $-1 $626 $422 $627 $628 forward $275 $-1 #
coedge $-1 $629 $277 $626 $630 forward $173 $-1 #
coedge $-1 $277 $629 $631 $632 forward $173 $-1 #
coedge $-1 $425 $424 $277 $418 reversed $426 $-1 #
edge $-1 $633 -3.5311870978646529 $634 3.5311870978646529 $417 $635 forward 7 unknown #
coedge $-1 $279 $278 $636 $637 forward $109 $-1 #
coedge $-1 $638 $639 $278 $421 reversed $623 $-1 #
edge $-1 $428 -274.73982970671716 $640 274.73982970671716 $420 $641 forward 7 unknown #
coedge $-1 $414 $642 $279 $423 reversed $275 $-1 #
edge $-1 $643 -274.73982970671716 $427 274.73982970671716 $422 $644 forward 7 unknown #
coedge $-1 $417 $280 $642 $645 forward $426 $-1 #
coedge $-1 $280 $417 $638 $646 reversed $426 $-1 #
loop $-1 $-1 $424 $622 #
vertex $-1 $281 $647 #
vertex $-1 $281 $648 #
straight-curve $-1 274.73982970671716 0 137.36991485335858 0 1 0 I I #
loop $-1 $-1 $649 $176 #
coedge $-1 $431 $431 $285 $432 reversed $282 $-1 #
edge $-1 $650 0 $650 6.2831853071796004 $431 $651 forward 7 unknown #
vertex $-1 $286 $652 #
ellipse-curve $-1 0 0 -4.0918454542680145 0 0 -1 1 0 0 1 I I #
loop $-1 $-1 $653 $181 #
coedge $-1 $436 $436 $290 $437 reversed $287 $-1 #
edge $-1 $654 0 $654 6.2831853071796004 $436 $655 forward 7 unknown #
vertex $-1 $291 $656 #
ellipse-curve $-1 0 0 -4.0918454542680145 0 0 -1 1 0 0 1 I I #
face $-1 $657 $658 $67 $-1 $659 reversed single #
loop $-1 $-1 $660 $292 #
plane-surface $-1 -274.73982970671716 0 0 1 0 0 0 0 -1 forward_v I I I I #
coedge $-1 $661 $451 $662 $663 forward $293 $-1 #
coedge $-1 $664 $295 $661 $665 forward $187 $-1 #
coedge $-1 $295 $664 $666 $667 forward $187 $-1 #
coedge $-1 $454 $453 $295 $447 reversed $455 $-1 #
edge $-1 $668 -3.5311870978646529 $669 3.5311870978646529 $446 $670 forward 7 unknown #
coedge $-1 $297 $296 $671 $672 forward $118 $-1 #
coedge $-1 $673 $674 $296 $450 reversed $658 $-1 #
edge $-1 $457 -274.73982970671716 $675 274.73982970671716 $449 $676 forward 7 unknown #
coedge $-1 $443 $677 $297 $452 reversed $293 $-1 #
edge $-1 $678 -274.73982970671716 $456 274.73982970671716 $451 $679 forward 7 unknown #
coedge $-1 $446 $298 $677 $680 forward $455 $-1 #
coedge $-1 $298 $446 $673 $681 reversed $455 $-1 #
loop $-1 $-1 $453 $657 #
vertex $-1 $299 $682 #
vertex $-1 $299 $683 #
straight-curve $-1 274.73982970671716 0 137.36991485335858 0 1 0 I I #
loop $-1 $-1 $684 $190 #
coedge $-1 $460 $460 $303 $461 reversed $300 $-1 #
edge $-1 $685 0 $685 6.2831853071796004 $460 $686 forward 7 unknown #
vertex $-1 $304 $687 #
ellipse-curve $-1 0 0 -4.0918454542680145 0 0 -1 1 0 0 1 I I #
loop $-1 $-1 $688 $195 #
coedge $-1 $465 $465 $308 $466 reversed $305 $-1 #
edge $-1 $689 0 $689 6.2831853071796004 $465 $690 forward 7 unknown #
vertex $-1 $309 $691 #
ellipse-curve $-1 0 0 -4.0918454542680145 0 0 -1 1 0 0 1 I I #
face $-1 $692 $693 $70 $-1 $694 reversed single #
loop $-1 $-1 $695 $310 #
plane-surface $-1 -274.73982970671716 0 0 1 0 0 0 0 -1 forward_v I I I I #
coedge $-1 $696 $480 $697 $698 forward $311 $-1 #
coedge $-1 $699 $313 $696 $700 forward $201 $-1 #
coedge $-1 $313 $699 $701 $702 forward $201 $-1 #
coedge $-1 $483 $482 $313 $476 reversed $484 $-1 #
edge $-1 $703 -3.5311870978646529 $704 3.5311870978646529 $475 $705 forward 7 unknown #
coedge $-1 $315 $314 $706 $707 forward $127 $-1 #
coedge $-1 $708 $709 $314 $479 reversed $693 $-1 #
edge $-1 $486 -274.73982970671716 $710 274.73982970671716 $478 $711 forward 7 unknown #
coedge $-1 $472 $712 $315 $481 reversed $311 $-1 #
edge $-1 $713 -274.73982970671716 $485 274.73982970671716 $480 $714 forward 7 unknown #
coedge $-1 $475 $316 $712 $715 forward $484 $-1 #
coedge $-1 $316 $475 $708 $716 reversed $484 $-1 #
loop $-1 $-1 $482 $692 #
vertex $-1 $317 $717 #
vertex $-1 $317 $718 #
straight-curve $-1 274.73982970671716 0 137.36991485335858 0 1 0 I I #
loop $-1 $-1 $719 $204 #
coedge $-1 $489 $489 $321 $490 reversed $318 $-1 #
edge $-1 $720 0 $720 6.2831853071796004 $489 $721 forward 7 unknown #
vertex $-1 $322 $722 #
ellipse-curve $-1 0 0 -4.0918454542680145 0 0 -1 1 0 0 1 I I #
loop $-1 $-1 $723 $209 #
coedge $-1 $494 $494 $326 $495 reversed $323 $-1 #
edge $-1 $724 0 $724 6.2831853071796004 $494 $725 forward 7 unknown #
vertex $-1 $327 $726 #
ellipse-curve $-1 0 0 -4.0918454542680145 0 0 -1 1 0 0 1 I I #
face $-1 $727 $728 $73 $-1 $729 reversed single #
loop $-1 $-1 $730 $328 #
plane-surface $-1 -274.73982970671716 0 0 1 0 0 0 0 -1 forward_v I I I I #
coedge $-1 $731 $509 $732 $733 forward $329 $-1 #
coedge $-1 $734 $331 $731 $735 forward $215 $-1 #
coedge $-1 $331 $734 $736 $737 forward $215 $-1 #
coedge $-1 $512 $511 $331 $505 reversed $513 $-1 #
edge $-1 $738 -3.5311870978646529 $739 3.5311870978646529 $504 $740 forward 7 unknown #
coedge $-1 $333 $332 $741 $742 forward $136 $-1 #
coedge $-1 $743 $744 $332 $508 reversed $728 $-1 #
edge $-1 $515 -274.73982970671716 $745 274.73982970671716 $507 $746 forward 7 unknown #
coedge $-1 $501 $747 $333 $510 reversed $329 $-1 #
edge $-1 $748 -274.73982970671716 $514 274.73982970671716 $509 $749 forward 7 unknown #
coedge $-1 $504 $334 $747 $750 forward $513 $-1 #
coedge $-1 $334 $504 $743 $751 reversed $513 $-1 #
loop $-1 $-1 $511 $727 #
vertex $-1 $335 $752 #
vertex $-1 $335 $753 #
straight-curve $-1 274.73982970671716 0 137.36991485335858 0 1 0 I I #
loop $-1 $-1 $754 $218 #
coedge $-1 $518 $518 $339 $519 reversed $336 $-1 #
edge $-1 $755 0 $755 6.2831853071796004 $518 $756 forward 7 unknown #
vertex $-1 $340 $757 #
ellipse-curve $-1 0 0 -4.0918454542680145 0 0 -1 1 0 0 1 I I #
loop $-1 $-1 $758 $223 #
coedge $-1 $523 $523 $344 $524 reversed $341 $-1 #
edge $-1 $759 0 $759 6.2831853071796004 $523 $760 forward 7 unknown #
vertex $-1 $345 $761 #
ellipse-curve $-1 0 0 -4.0918454542680145 0 0 -1 1 0 0 1 I I #
face $-1 $762 $763 $76 $-1 $764 reversed single #
loop $-1 $-1 $765 $346 #
plane-surface $-1 -274.73982970671716 0 0 1 0 0 0 0 -1 forward_v I I I I #
coedge $-1 $766 $538 $767 $768 forward $347 $-1 #
coedge $-1 $769 $349 $766 $770 forward $229 $-1 #
coedge $-1 $349 $769 $771 $772 forward $229 $-1 #
coedge $-1 $541 $540 $349 $534 reversed $542 $-1 #
edge $-1 $773 -5.8601760935413578 $774 5.8601760935413578 $533 $775 forward 7 unknown #
coedge $-1 $351 $350 $776 $777 forward $145 $-1 #
coedge $-1 $778 $779 $350 $537 reversed $763 $-1 #
edge $-1 $544 -274.73982970671716 $780 274.73982970671716 $536 $781 forward 7 unknown #
coedge $-1 $530 $782 $351 $539 reversed $347 $-1 #
edge $-1 $783 -274.73982970671716 $543 274.73982970671716 $538 $784 forward 7 unknown #
coedge $-1 $533 $352 $782 $785 forward $542 $-1 #
coedge $-1 $352 $533 $778 $786 reversed $542 $-1 #
loop $-1 $-1 $540 $762 #
vertex $-1 $353 $787 #
vertex $-1 $353 $788 #
straight-curve $-1 274.73982970671716 0 137.36991485335858 0 1 0 I I #
loop $-1 $-1 $789 $232 #
coedge $-1 $547 $547 $357 $548 reversed $354 $-1 #
edge $-1 $790 0 $790 6.2831853071796004 $547 $791 forward 7 unknown #
vertex $-1 $358 $792 #
ellipse-curve $-1 0 0 -4.3764000366222113 0 0 -1 1 0 0 1 I I #
loop $-1 $-1 $793 $237 #
coedge $-1 $552 $552 $362 $553 reversed $359 $-1 #
edge $-1 $794 0 $794 6.2831853071796004 $552 $795 forward 7 unknown #
vertex $-1 $363 $796 #
ellipse-curve $-1 0 0 -4.3764000366222113 0 0 -1 1 0 0 1 I I #
loop $-1 $-1 $797 $242 #
coedge $-1 $557 $557 $367 $558 reversed $364 $-1 #
edge $-1 $798 0 $798 6.2831853071796004 $557 $799 forward 7 unknown #
vertex $-1 $368 $800 #
ellipse-curve $-1 0 0 -4.3764000366222113 0 0 -1 1 0 0 1 I I #
face $-1 $801 $802 $80 $-1 $803 reversed single #
loop $-1 $-1 $804 $369 #
plane-surface $-1 -274.73982970671716 0 0 1 0 0 0 0 -1 forward_v I I I I #
coedge $-1 $805 $572 $806 $807 forward $370 $-1 #
coedge $-1 $808 $372 $805 $809 forward $248 $-1 #
coedge $-1 $372 $808 $810 $811 forward $248 $-1 #
coedge $-1 $575 $574 $372 $568 reversed $576 $-1 #
edge $-1 $812 -5.8601760935413578 $813 5.8601760935413578 $567 $814 forward 7 unknown #
coedge $-1 $374 $373 $815 $816 forward $157 $-1 #
coedge $-1 $817 $818 $373 $571 reversed $802 $-1 #
edge $-1 $578 -274.73982970671716 $819 274.73982970671716 $570 $820 forward 7 unknown #
coedge $-1 $564 $821 $374 $573 reversed $370 $-1 #
edge $-1 $822 -274.73982970671716 $577 274.73982970671716 $572 $823 forward 7 unknown #
coedge $-1 $567 $375 $821 $824 forward $576 $-1 #
coedge $-1 $375 $567 $817 $825 reversed $576 $-1 #
loop $-1 $-1 $574 $801 #
vertex $-1 $376 $826 #
vertex $-1 $376 $827 #
straight-curve $-1 274.73982970671716 0 137.36991485335858 0 1 0 I I #
loop $-1 $-1 $828 $251 #
coedge $-1 $581 $581 $380 $582 reversed $377 $-1 #
edge $-1 $829 0 $829 6.2831853071796004 $581 $830 forward 7 unknown #
vertex $-1 $381 $831 #
ellipse-curve $-1 0 0 -4.3764000366222113 0 0 -1 1 0 0 1 I I #
loop $-1 $-1 $832 $256 #
coedge $-1 $586 $586 $385 $587 reversed $382 $-1 #
edge $-1 $833 0 $833 6.2831853071796004 $586 $834 forward 7 unknown #
vertex $-1 $386 $835 #
ellipse-curve $-1 0 0 -4.3764000366222113 0 0 -1 1 0 0 1 I I #
loop $-1 $-1 $836 $261 #
coedge $-1 $591 $591 $390 $592 reversed $387 $-1 #
edge $-1 $837 0 $837 6.2831853071796004 $591 $838 forward 7 unknown #
vertex $-1 $391 $839 #
ellipse-curve $-1 0 0 -4.3764000366222113 0 0 -1 1 0 0 1 I I #
face $-1 $-1 $407 $63 $-1 $840 reversed single #
loop $-1 $-1 $611 $392 #
plane-surface $-1 0 28.043719944717903 0 0 -1 0 0 0 -1 forward_v I I I I #
coedge $-1 $841 $609 $612 $842 forward $393 $-1 #
coedge $-1 $615 $395 $396 $603 reversed $267 $-1 #
coedge $-1 $609 $841 $395 $601 reversed $393 $-1 #
edge $-1 $616 -10.008767445707679 $843 10.008767445707679 $600 $844 forward 7 unknown #
coedge $-1 $397 $396 $841 $845 forward $169 $-1 #
edge $-1 $607 -68.68495742667929 $843 68.68495742667929 $599 $846 forward 7 unknown #
coedge $-1 $612 $611 $397 $605 reversed $596 $-1 #
edge $-1 $847 -68.68495742667929 $606 68.68495742667929 $604 $848 forward 7 unknown #
vertex $-1 $399 $849 #
vertex $-1 $618 $850 #
straight-curve $-1 68.68495742667929 0 -10.008767445707679 0 -1 0 I I #
coedge $-1 $598 $600 $400 $610 reversed $393 $-1 #
edge $-1 $613 -28.043719944717903 $616 28.043719944717903 $609 $851 forward 7 unknown #
coedge $-1 $604 $401 $406 $619 forward $596 $-1 #
coedge $-1 $401 $604 $598 $842 reversed $596 $-1 #
vertex $-1 $402 $852 #
straight-curve $-1 0 28.043719944717903 10.008767445707679 -1 0 0 I I #
coedge $-1 $403 $599 $405 $618 reversed $267 $-1 #
vertex $-1 $610 $853 #
straight-curve $-1 0 -28.043719944717903 10.008767445707679 1 0 0 I I #
edge $-1 $408 -10.008767445707679 $607 10.008767445707679 $405 $854 forward 7 unknown #
edge $-1 $409 -10.008767445707679 $606 10.008767445707679 $406 $855 forward 7 unknown #
point $-1 68.68495742667929 -28.043719944717903 10.008767445707679 #
point $-1 68.68495742667929 28.043719944717903 10.008767445707679 #
face $-1 $-1 $426 $64 $-1 $856 reversed single #
loop $-1 $-1 $638 $411 #
plane-surface $-1 0 3.5311870978646529 0 0 -1 0 0 0 -1 forward_v I I I I #
coedge $-1 $857 $636 $639 $858 forward $412 $-1 #
coedge $-1 $642 $414 $415 $630 reversed $275 $-1 #
coedge $-1 $636 $857 $414 $628 reversed $412 $-1 #
edge $-1 $643 -137.36991485335858 $859 137.36991485335858 $627 $860 forward 7 unknown #
coedge $-1 $416 $415 $857 $861 forward $173 $-1 #
edge $-1 $634 -274.73982970671716 $859 274.73982970671716 $626 $862 forward 7 unknown #
coedge $-1 $639 $638 $416 $632 reversed $623 $-1 #
edge $-1 $863 -274.73982970671716 $633 274.73982970671716 $631 $864 forward 7 unknown #
vertex $-1 $418 $865 #
vertex $-1 $645 $866 #
straight-curve $-1 274.73982970671716 0 -137.36991485335858 0 -1 0 I I #
coedge $-1 $625 $627 $419 $637 reversed $412 $-1 #
edge $-1 $640 -3.5311870978646529 $643 3.5311870978646529 $636 $867 forward 7 unknown #
coedge $-1 $631 $420 $425 $646 forward $623 $-1 #
coedge $-1 $420 $631 $625 $858 reversed $623 $-1 #
vertex $-1 $421 $868 #
straight-curve $-1 0 3.5311870978646529 137.36991485335858 -1 0 0 I I #
coedge $-1 $422 $626 $424 $645 reversed $275 $-1 #
vertex $-1 $637 $869 #
straight-curve $-1 0 -3.5311870978646529 137.36991485335858 1 0 0 I I #
edge $-1 $427 -137.36991485335858 $634 137.36991485335858 $424 $870 forward 7 unknown #
edge $-1 $428 -137.36991485335858 $633 137.36991485335858 $425 $871 forward 7 unknown #
point $-1 274.73982970671716 -3.5311870978646529 137.36991485335858 #
point $-1 274.73982970671716 3.5311870978646529 137.36991485335858 #
coedge $-1 $649 $649 $-1 $872 reversed $430 $-1 #
vertex $-1 $432 $873 #
ellipse-curve $-1 0 0 -0.5 0 0 -1 1 0 0 1 I I #
point $-1 1 0 -4.0918454542680145 #
coedge $-1 $653 $653 $-1 $874 reversed $435 $-1 #
vertex $-1 $437 $875 #
ellipse-curve $-1 0 0 -0.5 0 0 -1 1 0 0 1 I I #
point $-1 1 0 -4.0918454542680145 #
face $-1 $-1 $455 $67 $-1 $876 reversed single #
loop $-1 $-1 $673 $440 #
plane-surface $-1 0 3.5311870978646529 0 0 -1 0 0 0 -1 forward_v I I I I #
coedge $-1 $877 $671 $674 $878 forward $441 $-1 #
coedge $-1 $677 $443 $444 $665 reversed $293 $-1 #
coedge $-1 $671 $877 $443 $663 reversed $441 $-1 #
edge $-1 $678 -137.36991485335858 $879 137.36991485335858 $662 $880 forward 7 unknown #
coedge $-1 $445 $444 $877 $881 forward $187 $-1 #
edge $-1 $669 -274.73982970671716 $879 274.73982970671716 $661 $882 forward 7 unknown #
coedge $-1 $674 $673 $445 $667 reversed $658 $-1 #
edge $-1 $883 -274.73982970671716 $668 274.73982970671716 $666 $884 forward 7 unknown #
vertex $-1 $447 $885 #
vertex $-1 $680 $886 #
straight-curve $-1 274.73982970671716 0 -137.36991485335858 0 -1 0 I I #
coedge $-1 $660 $662 $448 $672 reversed $441 $-1 #
edge $-1 $675 -3.5311870978646529 $678 3.5311870978646529 $671 $887 forward 7 unknown #
coedge $-1 $666 $449 $454 $681 forward $658 $-1 #
coedge $-1 $449 $666 $660 $878 reversed $658 $-1 #
vertex $-1 $450 $888 #
straight-curve $-1 0 3.5311870978646529 137.36991485335858 -1 0 0 I I #
coedge $-1 $451 $661 $453 $680 reversed $293 $-1 #
vertex $-1 $672 $889 #
straight-curve $-1 0 -3.5311870978646529 137.36991485335858 1 0 0 I I #
edge $-1 $456 -137.36991485335858 $669 137.36991485335858 $453 $890 forward 7 unknown #
edge $-1 $457 -137.36991485335858 $668 137.36991485335858 $454 $891 forward 7 unknown #
point $-1 274.73982970671716 -3.5311870978646529 137.36991485335858 #
point $-1 274.73982970671716 3.5311870978646529 137.36991485335858 #
coedge $-1 $684 $684 $-1 $892 reversed $459 $-1 #
vertex $-1 $461 $893 #
ellipse-curve $-1 0 0 -0.5 0 0 -1 1 0 0 1 I I #
point $-1 1 0 -4.0918454542680145 #
coedge $-1 $688 $688 $-1 $894 reversed $464 $-1 #
vertex $-1 $466 $895 #
ellipse-curve $-1 0 0 -0.5 0 0 -1 1 0 0 1 I I #
point $-1 1 0 -4.0918454542680145 #
face $-1 $-1 $484 $70 $-1 $896 reversed single #
loop $-1 $-1 $708 $469 #
plane-surface $-1 0 3.5311870978646529 0 0 -1 0 0 0 -1 forward_v I I I I #
coedge $-1 $897 $706 $709 $898 forward $470 $-1 #
coedge $-1 $712 $472 $473 $700 reversed $311 $-1 #
coedge $-1 $706 $897 $472 $698 reversed $470 $-1 #
edge $-1 $713 -137.36991485335858 $899 137.36991485335858 $697 $900 forward 7 unknown #
coedge $-1 $474 $473 $897 $901 forward $201 $-1 #
edge $-1 $704 -274.73982970671716 $899 274.73982970671716 $696 $902 forward 7 unknown #
coedge $-1 $709 $708 $474 $702 reversed $693 $-1 #
edge $-1 $903 -274.73982970671716 $703 274.73982970671716 $701 $904 forward 7 unknown #
vertex $-1 $476 $905 #
vertex $-1 $715 $906 #
straight-curve $-1 274.73982970671716 0 -137.36991485335858 0 -1 0 I I #
coedge $-1 $695 $697 $477 $707 reversed $470 $-1 #
edge $-1 $710 -3.5311870978646529 $713 3.5311870978646529 $706 $907 forward 7 unknown #
coedge $-1 $701 $478 $483 $716 forward $693 $-1 #
coedge $-1 $478 $701 $695 $898 reversed $693 $-1 #
vertex $-1 $479 $908 #
straight-curve $-1 0 3.5311870978646529 137.36991485335858 -1 0 0 I I #
coedge $-1 $480 $696 $482 $715 reversed $311 $-1 #
vertex $-1 $707 $909 #
straight-curve $-1 0 -3.5311870978646529 137.36991485335858 1 0 0 I I #
edge $-1 $485 -137.36991485335858 $704 137.36991485335858 $482 $910 forward 7 unknown #
edge $-1 $486 -137.36991485335858 $703 137.36991485335858 $483 $911 forward 7 unknown #
point $-1 274.73982970671716 -3.5311870978646529 137.36991485335858 #
point $-1 274.73982970671716 3.5311870978646529 137.36991485335858 #
coedge $-1 $719 $719 $-1 $912 reversed $488 $-1 #
vertex $-1 $490 $913 #
ellipse-curve $-1 0 0 -0.5 0 0 -1 1 0 0 1 I I #
point $-1 1 0 -4.0918454542680145 #
coedge $-1 $723 $723 $-1 $914 reversed $493 $-1 #
vertex $-1 $495 $915 #
ellipse-curve $-1 0 0 -0.5 0 0 -1 1 0 0 1 I I #
point $-1 1 0 -4.0918454542680145 #
face $-1 $-1 $513 $73 $-1 $916 reversed single #
loop $-1 $-1 $743 $498 #
plane-surface $-1 0 3.5311870978646529 0 0 -1 0 0 0 -1 forward_v I I I I #
coedge $-1 $917 $741 $744 $918 forward $499 $-1 #
coedge $-1 $747 $501 $502 $735 reversed $329 $-1 #
coedge $-1 $741 $917 $501 $733 reversed $499 $-1 #
edge $-1 $748 -137.36991485335858 $919 137.36991485335858 $732 $920 forward 7 unknown #
coedge $-1 $503 $502 $917 $921 forward $215 $-1 #
edge $-1 $739 -274.73982970671716 $919 274.73982970671716 $731 $922 forward 7 unknown #
coedge $-1 $744 $743 $503 $737 reversed $728 $-1 #
edge $-1 $923 -274.73982970671716 $738 274.73982970671716 $736 $924 forward 7 unknown #
vertex $-1 $505 $925 #
vertex $-1 $750 $926 #
straight-curve $-1 274.73982970671716 0 -137.36991485335858 0 -1 0 I I #
coedge $-1 $730 $732 $506 $742 reversed $499 $-1 #
edge $-1 $745 -3.5311870978646529 $748 3.5311870978646529 $741 $927 forward 7 unknown #
coedge $-1 $736 $507 $512 $751 forward $728 $-1 #
coedge $-1 $507 $736 $730 $918 reversed $728 $-1 #
vertex $-1 $508 $928 #
straight-curve $-1 0 3.5311870978646529 137.36991485335858 -1 0 0 I I #
coedge $-1 $509 $731 $511 $750 reversed $329 $-1 #
vertex $-1 $742 $929 #
straight-curve $-1 0 -3.5311870978646529 137.36991485335858 1 0 0 I I #
edge $-1 $514 -137.36991485335858 $739 137.36991485335858 $511 $930 forward 7 unknown #
edge $-1 $515 -137.36991485335858 $738 137.36991485335858 $512 $931 forward 7 unknown #
point $-1 274.73982970671716 -3.5311870978646529 137.36991485335858 #
point $-1 274.73982970671716 3.5311870978646529 137.36991485335858 #
coedge $-1 $754 $754 $-1 $932 reversed $517 $-1 #
vertex $-1 $519 $933 #
ellipse-curve $-1 0 0 -0.5 0 0 -1 1 0 0 1 I I #
point $-1 1 0 -4.0918454542680145 #
coedge $-1 $758 $758 $-1 $934 reversed $522 $-1 #
vertex $-1 $524 $935 #
ellipse-curve $-1 0 0 -0.5 0 0 -1 1 0 0 1 I I #
point $-1 1 0 -4.0918454542680145 #
face $-1 $-1 $542 $76 $-1 $936 reversed single #
loop $-1 $-1 $778 $527 #
plane-surface $-1 0 5.8601760935413578 0 0 -1 0 0 0 -1 forward_v I I I I #
coedge $-1 $937 $776 $779 $938 forward $528 $-1 #
coedge $-1 $782 $530 $531 $770 reversed $347 $-1 #
coedge $-1 $776 $937 $530 $768 reversed $528 $-1 #
edge $-1 $783 -137.36991485335858 $939 137.36991485335858 $767 $940 forward 7 unknown #
coedge $-1 $532 $531 $937 $941 forward $229 $-1 #
edge $-1 $774 -274.73982970671716 $939 274.73982970671716 $766 $942 forward 7 unknown #
coedge $-1 $779 $778 $532 $772 reversed $763 $-1 #
edge $-1 $943 -274.73982970671716 $773 274.73982970671716 $771 $944 forward 7 unknown #
vertex $-1 $534 $945 #
vertex $-1 $785 $946 #
straight-curve $-1 274.73982970671716 0 -137.36991485335858 0 -1 0 I I #
coedge $-1 $765 $767 $535 $777 reversed $528 $-1 #
edge $-1 $780 -5.8601760935413578 $783 5.8601760935413578 $776 $947 forward 7 unknown #
coedge $-1 $771 $536 $541 $786 forward $763 $-1 #
coedge $-1 $536 $771 $765 $938 reversed $763 $-1 #
vertex $-1 $537 $948 #
straight-curve $-1 0 5.8601760935413578 137.36991485335858 -1 0 0 I I #
coedge $-1 $538 $766 $540 $785 reversed $347 $-1 #
vertex $-1 $777 $949 #
straight-curve $-1 0 -5.8601760935413578 137.36991485335858 1 0 0 I I #
edge $-1 $543 -137.36991485335858 $774 137.36991485335858 $540 $950 forward 7 unknown #
edge $-1 $544 -137.36991485335858 $773 137.36991485335858 $541 $951 forward 7 unknown #
point $-1 274.73982970671716 -5.8601760935413578 137.36991485335858 #
point $-1 274.73982970671716 5.8601760935413578 137.36991485335858 #
coedge $-1 $789 $789 $-1 $952 reversed $546 $-1 #
vertex $-1 $548 $953 #
ellipse-curve $-1 0 0 -0.5 0 0 -1 1 0 0 1 I I #
point $-1 1 0 -4.3764000366222113 #
coedge $-1 $793 $793 $-1 $954 reversed $551 $-1 #
vertex $-1 $553 $955 #
ellipse-curve $-1 0 0 -0.5 0 0 -1 1 0 0 1 I I #
point $-1 1 0 -4.3764000366222113 #
coedge $-1 $797 $797 $-1 $956 reversed $556 $-1 #
vertex $-1 $558 $957 #
ellipse-curve $-1 0 0 -0.5 0 0 -1 1 0 0 1 I I #
point $-1 1 0 -4.3764000366222113 #
face $-1 $-1 $576 $80 $-1 $958 reversed single #
loop $-1 $-1 $817 $561 #
plane-surface $-1 0 5.8601760935413578 0 0 -1 0 0 0 -1 forward_v I I I I #
coedge $-1 $959 $815 $818 $960 forward $562 $-1 #
coedge $-1 $821 $564 $565 $809 reversed $370 $-1 #
coedge $-1 $815 $959 $564 $807 reversed $562 $-1 #
edge $-1 $822 -137.36991485335858 $961 137.36991485335858 $806 $962 forward 7 unknown #
coedge $-1 $566 $565 $959 $963 forward $248 $-1 #
edge $-1 $813 -274.73982970671716 $961 274.73982970671716 $805 $964 forward 7 unknown #
coedge $-1 $818 $817 $566 $811 reversed $802 $-1 #
edge $-1 $965 -274.73982970671716 $812 274.73982970671716 $810 $966 forward 7 unknown #
vertex $-1 $568 $967 #
vertex $-1 $824 $968 #
straight-curve $-1 274.73982970671716 0 -137.36991485335858 0 -1 0 I I #
coedge $-1 $804 $806 $569 $816 reversed $562 $-1 #
edge $-1 $819 -5.8601760935413578 $822 5.8601760935413578 $815 $969 forward 7 unknown #
coedge $-1 $810 $570 $575 $825 forward $802 $-1 #
coedge $-1 $570 $810 $804 $960 reversed $802 $-1 #
vertex $-1 $571 $970 #
straight-curve $-1 0 5.8601760935413578 137.36991485335858 -1 0 0 I I #
coedge $-1 $572 $805 $574 $824 reversed $370 $-1 #
vertex $-1 $816 $971 #
straight-curve $-1 0 -5.8601760935413578 137.36991485335858 1 0 0 I I #
edge $-1 $577 -137.36991485335858 $813 137.36991485335858 $574 $972 forward 7 unknown #
edge $-1 $578 -137.36991485335858 $812 137.36991485335858 $575 $973 forward 7 unknown #
point $-1 274.73982970671716 -5.8601760935413578 137.36991485335858 #
point $-1 274.73982970671716 5.8601760935413578 137.36991485335858 #
coedge $-1 $828 $828 $-1 $974 reversed $580 $-1 #
vertex $-1 $582 $975 #
ellipse-curve $-1 0 0 -0.5 0 0 -1 1 0 0 1 I I #
point $-1 1 0 -4.3764000366222113 #
coedge $-1 $832 $832 $-1 $976 reversed $585 $-1 #
vertex $-1 $587 $977 #
ellipse-curve $-1 0 0 -0.5 0 0 -1 1 0 0 1 I I #
point $-1 1 0 -4.3764000366222113 #
coedge $-1 $836 $836 $-1 $978 reversed $590 $-1 #
vertex $-1 $592 $979 #
ellipse-curve $-1 0 0 -0.5 0 0 -1 1 0 0 1 I I #
point $-1 1 0 -4.3764000366222113 #
plane-surface $-1 68.68495742667929 0 0 -1 0 0 0 0 1 forward_v I I I I #
coedge $-1 $600 $598 $602 $845 reversed $393 $-1 #
edge $-1 $613 -10.008767445707679 $847 10.008767445707679 $612 $980 forward 7 unknown #
vertex $-1 $845 $981 #
straight-curve $-1 -68.68495742667929 -28.043719944717903 0 0 0 -1 I I #
edge $-1 $843 -28.043719944717903 $847 28.043719944717903 $841 $982 forward 7 unknown #
straight-curve $-1 0 -28.043719944717903 -10.008767445707679 -1 0 0 I I #
vertex $-1 $605 $983 #
straight-curve $-1 0 28.043719944717903 -10.008767445707679 1 0 0 I I #
point $-1 68.68495742667929 28.043719944717903 -10.008767445707679 #
point $-1 68.68495742667929 -28.043719944717903 -10.008767445707679 #
straight-curve $-1 -68.68495742667929 0 10.008767445707679 0 -1 0 I I #
point $-1 -68.68495742667929 28.043719944717903 10.008767445707679 #
point $-1 -68.68495742667929 -28.043719944717903 10.008767445707679 #
straight-curve $-1 68.68495742667929 -28.043719944717903 0 0 0 -1 I I #
straight-curve $-1 68.68495742667929 28.043719944717903 0 0 0 -1 I I #
plane-surface $-1 274.73982970671716 0 0 -1 0 0 0 0 1 forward_v I I I I #
coedge $-1 $627 $625 $629 $861 reversed $412 $-1 #
edge $-1 $640 -137.36991485335858 $863 137.36991485335858 $639 $984 forward 7 unknown #
vertex $-1 $861 $985 #
straight-curve $-1 -274.73982970671716 -3.5311870978646529 0 0 0 -1 I I #
edge $-1 $859 -3.5311870978646529 $863 3.5311870978646529 $857 $986 forward 7 unknown #
straight-curve $-1 0 -3.5311870978646529 -137.36991485335858 -1 0 0 I I #
vertex $-1 $632 $987 #
straight-curve $-1 0 3.5311870978646529 -137.36991485335858 1 0 0 I I #
point $-1 274.73982970671716 3.5311870978646529 -137.36991485335858 #
point $-1 274.73982970671716 -3.5311870978646529 -137.36991485335858 #
straight-curve $-1 -274.73982970671716 0 137.36991485335858 0 -1 0 I I #
point $-1 -274.73982970671716 3.5311870978646529 137.36991485335858 #
point $-1 -274.73982970671716 -3.5311870978646529 137.36991485335858 #
straight-curve $-1 274.73982970671716 -3.5311870978646529 0 0 0 -1 I I #
straight-curve $-1 274.73982970671716 3.5311870978646529 0 0 0 -1 I I #
edge $-1 $988 1 $988 0 $649 $-1 forward 7 unknown #
point $-1 1 0 -0.5 #
edge $-1 $989 1 $989 0 $653 $-1 forward 7 unknown #
point $-1 1 0 -0.5 #
plane-surface $-1 274.73982970671716 0 0 -1 0 0 0 0 1 forward_v I I I I #
coedge $-1 $662 $660 $664 $881 reversed $441 $-1 #
edge $-1 $675 -137.36991485335858 $883 137.36991485335858 $674 $990 forward 7 unknown #
vertex $-1 $881 $991 #
straight-curve $-1 -274.73982970671716 -3.5311870978646529 0 0 0 -1 I I #
edge $-1 $879 -3.5311870978646529 $883 3.5311870978646529 $877 $992 forward 7 unknown #
straight-curve $-1 0 -3.5311870978646529 -137.36991485335858 -1 0 0 I I #
vertex $-1 $667 $993 #
straight-curve $-1 0 3.5311870978646529 -137.36991485335858 1 0 0 I I #
point $-1 274.73982970671716 3.5311870978646529 -137.36991485335858 #
point $-1 274.73982970671716 -3.5311870978646529 -137.36991485335858 #
straight-curve $-1 -274.73982970671716 0 137.36991485335858 0 -1 0 I I #
point $-1 -274.73982970671716 3.5311870978646529 137.36991485335858 #
point $-1 -274.73982970671716 -3.5311870978646529 137.36991485335858 #
straight-curve $-1 274.73982970671716 -3.5311870978646529 0 0 0 -1 I I #
straight-curve $-1 274.73982970671716 3.5311870978646529 0 0 0 -1 I I #
edge $-1 $994 1 $994 0 $684 $-1 forward 7 unknown #
point $-1 1 0 -0.5 #
edge $-1 $995 1 $995 0 $688 $-1 forward 7 unknown #
point $-1 1 0 -0.5 #
plane-surface $-1 274.73982970671716 0 0 -1 0 0 0 0 1 forward_v I I I I #
coedge $-1 $697 $695 $699 $901 reversed $470 $-1 #
edge $-1 $710 -137.36991485335858 $903 137.36991485335858 $709 $996 forward 7 unknown #
vertex $-1 $901 $997 #
straight-curve $-1 -274.73982970671716 -3.5311870978646529 0 0 0 -1 I I #
edge $-1 $899 -3.5311870978646529 $903 3.5311870978646529 $897 $998 forward 7 unknown #
straight-curve $-1 0 -3.5311870978646529 -137.36991485335858 -1 0 0 I I #
vertex $-1 $702 $999 #
straight-curve $-1 0 3.5311870978646529 -137.36991485335858 1 0 0 I I #
point $-1 274.73982970671716 3.5311870978646529 -137.36991485335858 #
point $-1 274.73982970671716 -3.5311870978646529 -137.36991485335858 #
straight-curve $-1 -274.73982970671716 0 137.36991485335858 0 -1 0 I I #
point $-1 -274.73982970671716 3.5311870978646529 137.36991485335858 #
point $-1 -274.73982970671716 -3.5311870978646529 137.36991485335858 #
straight-curve $-1 274.73982970671716 -3.5311870978646529 0 0 0 -1 I I #
straight-curve $-1 274.73982970671716 3.5311870978646529 0 0 0 -1 I I #
edge $-1 $1000 1 $1000 0 $719 $-1 forward 7 unknown #
point $-1 1 0 -0.5 #
edge $-1 $1001 1 $1001 0 $723 $-1 forward 7 unknown #
point $-1 1 0 -0.5 #
plane-surface $-1 274.73982970671716 0 0 -1 0 0 0 0 1 forward_v I I I I #
coedge $-1 $732 $730 $734 $921 reversed $499 $-1 #
edge $-1 $745 -137.36991485335858 $923 137.36991485335858 $744 $1002 forward 7 unknown #
vertex $-1 $921 $1003 #
straight-curve $-1 -274.73982970671716 -3.5311870978646529 0 0 0 -1 I I #
edge $-1 $919 -3.5311870978646529 $923 3.5311870978646529 $917 $1004 forward 7 unknown #
straight-curve $-1 0 -3.5311870978646529 -137.36991485335858 -1 0 0 I I #
vertex $-1 $737 $1005 #
straight-curve $-1 0 3.5311870978646529 -137.36991485335858 1 0 0 I I #
point $-1 274.73982970671716 3.5311870978646529 -137.36991485335858 #
point $-1 274.73982970671716 -3.5311870978646529 -137.36991485335858 #
straight-curve $-1 -274.73982970671716 0 137.36991485335858 0 -1 0 I I #
point $-1 -274.73982970671716 3.5311870978646529 137.36991485335858 #
point $-1 -274.73982970671716 -3.5311870978646529 137.36991485335858 #
straight-curve $-1 274.73982970671716 -3.5311870978646529 0 0 0 -1 I I #
straight-curve $-1 274.73982970671716 3.5311870978646529 0 0 0 -1 I I #
edge $-1 $1006 1 $1006 0 $754 $-1 forward 7 unknown #
point $-1 1 0 -0.5 #
edge $-1 $1007 1 $1007 0 $758 $-1 forward 7 unknown #
point $-1 1 0 -0.5 #
plane-surface $-1 274.73982970671716 0 0 -1 0 0 0 0 1 forward_v I I I I #
coedge $-1 $767 $765 $769 $941 reversed $528 $-1 #
edge $-1 $780 -137.36991485335858 $943 137.36991485335858 $779 $1008 forward 7 unknown #
vertex $-1 $941 $1009 #
straight-curve $-1 -274.73982970671716 -5.8601760935413578 0 0 0 -1 I I #
edge $-1 $939 -5.8601760935413578 $943 5.8601760935413578 $937 $1010 forward 7 unknown #
straight-curve $-1 0 -5.8601760935413578 -137.36991485335858 -1 0 0 I I #
vertex $-1 $772 $1011 #
straight-curve $-1 0 5.8601760935413578 -137.36991485335858 1 0 0 I I #
point $-1 274.73982970671716 5.8601760935413578 -137.36991485335858 #
point $-1 274.73982970671716 -5.8601760935413578 -137.36991485335858 #
straight-curve $-1 -274.73982970671716 0 137.36991485335858 0 -1 0 I I #
point $-1 -274.73982970671716 5.8601760935413578 137.36991485335858 #
point $-1 -274.73982970671716 -5.8601760935413578 137.36991485335858 #
straight-curve $-1 274.73982970671716 -5.8601760935413578 0 0 0 -1 I I #
straight-curve $-1 274.73982970671716 5.8601760935413578 0 0 0 -1 I I #
edge $-1 $1012 1 $1012 0 $789 $-1 forward 7 unknown #
point $-1 1 0 -0.5 #
edge $-1 $1013 1 $1013 0 $793 $-1 forward 7 unknown #
point $-1 1 0 -0.5 #
edge $-1 $1014 1 $1014 0 $797 $-1 forward 7 unknown #
point $-1 1 0 -0.5 #
plane-surface $-1 274.73982970671716 0 0 -1 0 0 0 0 1 forward_v I I I I #
coedge $-1 $806 $804 $808 $963 reversed $562 $-1 #
edge $-1 $819 -137.36991485335858 $965 137.36991485335858 $818 $1015 forward 7 unknown #
vertex $-1 $963 $1016 #
straight-curve $-1 -274.73982970671716 -5.8601760935413578 0 0 0 -1 I I #
edge $-1 $961 -5.8601760935413578 $965 5.8601760935413578 $959 $1017 forward 7 unknown #
straight-curve $-1 0 -5.8601760935413578 -137.36991485335858 -1 0 0 I I #
vertex $-1 $811 $1018 #
straight-curve $-1 0 5.8601760935413578 -137.36991485335858 1 0 0 I I #
point $-1 274.73982970671716 5.8601760935413578 -137.36991485335858 #
point $-1 274.73982970671716 -5.8601760935413578 -137.36991485335858 #
straight-curve $-1 -274.73982970671716 0 137.36991485335858 0 -1 0 I I #
point $-1 -274.73982970671716 5.8601760935413578 137.36991485335858 #
point $-1 -274.73982970671716 -5.8601760935413578 137.36991485335858 #
straight-curve $-1 274.73982970671716 -5.8601760935413578 0 0 0 -1 I I #
straight-curve $-1 274.73982970671716 5.8601760935413578 0 0 0 -1 I I #
edge $-1 $1019 1 $1019 0 $828 $-1 forward 7 unknown #
point $-1 1 0 -0.5 #
edge $-1 $1020 1 $1020 0 $832 $-1 forward 7 unknown #
point $-1 1 0 -0.5 #
edge $-1 $1021 1 $1021 0 $836 $-1 forward 7 unknown #
point $-1 1 0 -0.5 #
straight-curve $-1 -68.68495742667929 28.043719944717903 0 0 0 -1 I I #
point $-1 -68.68495742667929 -28.043719944717903 -10.008767445707679 #
straight-curve $-1 -68.68495742667929 0 -10.008767445707679 0 1 0 I I #
point $-1 -68.68495742667929 28.043719944717903 -10.008767445707679 #
straight-curve $-1 -274.73982970671716 3.5311870978646529 0 0 0 -1 I I #
point $-1 -274.73982970671716 -3.5311870978646529 -137.36991485335858 #
straight-curve $-1 -274.73982970671716 0 -137.36991485335858 0 1 0 I I #
point $-1 -274.73982970671716 3.5311870978646529 -137.36991485335858 #
vertex $-1 $872 $1022 #
vertex $-1 $874 $1023 #
straight-curve $-1 -274.73982970671716 3.5311870978646529 0 0 0 -1 I I #
point $-1 -274.73982970671716 -3.5311870978646529 -137.36991485335858 #
straight-curve $-1 -274.73982970671716 0 -137.36991485335858 0 1 0 I I #
point $-1 -274.73982970671716 3.5311870978646529 -137.36991485335858 #
vertex $-1 $892 $1024 #
vertex $-1 $894 $1025 #
straight-curve $-1 -274.73982970671716 3.5311870978646529 0 0 0 -1 I I #
point $-1 -274.73982970671716 -3.5311870978646529 -137.36991485335858 #
straight-curve $-1 -274.73982970671716 0 -137.36991485335858 0 1 0 I I #
point $-1 -274.73982970671716 3.5311870978646529 -137.36991485335858 #
vertex $-1 $912 $1026 #
vertex $-1 $914 $1027 #
straight-curve $-1 -274.73982970671716 3.5311870978646529 0 0 0 -1 I I #
point $-1 -274.73982970671716 -3.5311870978646529 -137.36991485335858 #
straight-curve $-1 -274.73982970671716 0 -137.36991485335858 0 1 0 I I #
point $-1 -274.73982970671716 3.5311870978646529 -137.36991485335858 #
vertex $-1 $932 $1028 #
vertex $-1 $934 $1029 #
straight-curve $-1 -274.73982970671716 5.8601760935413578 0 0 0 -1 I I #
point $-1 -274.73982970671716 -5.8601760935413578 -137.36991485335858 #
straight-curve $-1 -274.73982970671716 0 -137.36991485335858 0 1 0 I I #
point $-1 -274.73982970671716 5.8601760935413578 -137.36991485335858 #
vertex $-1 $952 $1030 #
vertex $-1 $954 $1031 #
vertex $-1 $956 $1032 #
straight-curve $-1 -274.73982970671716 5.8601760935413578 0 0 0 -1 I I #
point $-1 -274.73982970671716 -5.8601760935413578 -137.36991485335858 #
straight-curve $-1 -274.73982970671716 0 -137.36991485335858 0 1 0 I I #
point $-1 -274.73982970671716 5.8601760935413578 -137.36991485335858 #
vertex $-1 $974 $1033 #
vertex $-1 $976 $1034 #
vertex $-1 $978 $1035 #
point $-1 0 0 0.5 #
point $-1 0 0 0.5 #
point $-1 0 0 0.5 #
point $-1 0 0 0.5 #
point $-1 0 0 0.5 #
point $-1 0 0 0.5 #
point $-1 0 0 0.5 #
point $-1 0 0 0.5 #
point $-1 0 0 0.5 #
point $-1 0 0 0.5 #
point $-1 0 0 0.5 #
point $-1 0 0 0.5 #
point $-1 0 0 0.5 #
point $-1 0 0 0.5 #
End-of-ACIS-data 