500 0 16 0           
7 Unknown 11 ACIS 5.0 NT 24 Thu Mar 25 22:52:33 1999 
-1 9.9999999999999995e-007 1e-010 
body $-1 $16 $-1 $17 #
body $-1 $18 $-1 $19 #
body $-1 $20 $-1 $21 #
body $-1 $22 $-1 $23 #
body $-1 $24 $-1 $25 #
body $-1 $26 $-1 $27 #
body $-1 $28 $-1 $29 #
body $-1 $30 $-1 $31 #
body $-1 $32 $-1 $33 #
body $-1 $34 $-1 $35 #
body $-1 $36 $-1 $37 #
body $-1 $38 $-1 $39 #
body $-1 $40 $-1 $41 #
body $-1 $42 $-1 $43 #
body $-1 $44 $-1 $45 #
body $-1 $46 $-1 $47 #
lump $-1 $-1 $48 $0 #
transform $-1 1 0 0 0 1 0 0 0 1 69.333170567949466 38.047865430695005 18.108122556798072 1 rotate no_reflect no_shear #
lump $-1 $-1 $49 $1 #
transform $-1 1 0 0 0 1 0 0 0 1 69.333170567949466 38.047865430695005 18.108122556798072 1 rotate no_reflect no_shear #
lump $-1 $-1 $50 $2 #
transform $-1 1 0 0 0 1 0 0 0 1 69.333170567949466 38.047865430695005 18.108122556798072 1 rotate no_reflect no_shear #
lump $-1 $-1 $51 $3 #
transform $-1 1 0 0 0 1 0 0 0 1 69.333170567949466 38.047865430695005 18.108122556798072 1 rotate no_reflect no_shear #
lump $-1 $-1 $52 $4 #
transform $-1 1 0 0 0 1 0 0 0 1 69.333170567949466 38.047865430695005 18.108122556798072 1 rotate no_reflect no_shear #
lump $-1 $-1 $53 $5 #
transform $-1 1 0 0 0 1 0 0 0 1 69.333170567949466 38.047865430695005 18.108122556798072 1 rotate no_reflect no_shear #
lump $-1 $-1 $54 $6 #
transform $-1 1 0 0 0 1 0 0 0 1 69.333170567949466 38.047865430695005 18.108122556798072 1 rotate no_reflect no_shear #
lump $-1 $-1 $55 $7 #
transform $-1 1 0 0 0 1 0 0 0 1 69.333170567949466 38.047865430695005 18.108122556798072 1 rotate no_reflect no_shear #
lump $-1 $-1 $56 $8 #
transform $-1 1 0 0 0 1 0 0 0 1 69.333170567949466 38.047865430695005 18.108122556798072 1 rotate no_reflect no_shear #
lump $-1 $-1 $57 $9 #
transform $-1 1 0 0 0 1 0 0 0 1 69.333170567949466 38.047865430695005 18.108122556798072 1 rotate no_reflect no_shear #
lump $-1 $-1 $58 $10 #
transform $-1 1 0 0 0 1 0 0 0 1 69.333170567949466 38.047865430695005 18.108122556798072 1 rotate no_reflect no_shear #
lump $-1 $-1 $59 $11 #
transform $-1 1 0 0 0 1 0 0 0 1 69.333170567949466 38.047865430695005 18.108122556798072 1 rotate no_reflect no_shear #
lump $-1 $-1 $60 $12 #
transform $-1 1 0 0 0 1 0 0 0 1 69.333170567949466 38.047865430695005 18.108122556798072 1 rotate no_reflect no_shear #
lump $-1 $-1 $61 $13 #
transform $-1 1 0 0 0 1 0 0 0 1 69.333170567949466 38.047865430695005 18.108122556798072 1 rotate no_reflect no_shear #
lump $-1 $-1 $62 $14 #
transform $-1 1 0 0 0 1 0 0 0 1 69.333170567949466 38.047865430695005 18.108122556798072 1 rotate no_reflect no_shear #
lump $-1 $-1 $63 $15 #
transform $-1 1 0 0 0 1 0 0 0 1 69.333170567949466 38.047865430695005 18.108122556798072 1 rotate no_reflect no_shear #
shell $-1 $-1 $-1 $64 $-1 $16 #
shell $-1 $-1 $-1 $65 $-1 $18 #
shell $-1 $-1 $-1 $66 $-1 $20 #
shell $-1 $-1 $-1 $67 $-1 $22 #
shell $-1 $-1 $-1 $68 $-1 $24 #
shell $-1 $-1 $-1 $69 $-1 $26 #
shell $-1 $-1 $-1 $70 $-1 $28 #
shell $-1 $-1 $-1 $71 $-1 $30 #
shell $-1 $-1 $-1 $72 $-1 $32 #
shell $-1 $-1 $-1 $73 $-1 $34 #
shell $-1 $-1 $-1 $74 $-1 $36 #
shell $-1 $-1 $-1 $75 $-1 $38 #
shell $-1 $-1 $-1 $76 $-1 $40 #
shell $-1 $-1 $-1 $77 $-1 $42 #
shell $-1 $-1 $-1 $78 $-1 $44 #
shell $-1 $-1 $-1 $79 $-1 $46 #
face $-1 $80 $81 $48 $-1 $82 forward single #
face $-1 $83 $84 $49 $-1 $85 forward single #
face $-1 $86 $87 $50 $-1 $88 reversed single #
face $-1 $89 $90 $51 $-1 $91 forward single #
face $-1 $92 $93 $52 $-1 $94 forward single #
face $-1 $95 $96 $53 $-1 $97 reversed single #
face $-1 $98 $99 $54 $-1 $100 forward single #
face $-1 $101 $102 $55 $-1 $103 forward single #
face $-1 $104 $105 $56 $-1 $106 reversed single #
face $-1 $107 $108 $57 $-1 $109 forward single #
face $-1 $110 $111 $58 $-1 $112 forward single #
face $-1 $113 $114 $59 $-1 $115 forward single #
face $-1 $116 $117 $60 $-1 $118 reversed single #
face $-1 $119 $120 $61 $-1 $121 forward single #
face $-1 $122 $123 $62 $-1 $124 forward single #
face $-1 $125 $126 $63 $-1 $127 forward single #
face $-1 $128 $129 $48 $-1 $130 reversed single #
loop $-1 $-1 $131 $64 #
plane-surface $-1 0 0 18.108122556798072 0 0 1 1 0 0 forward_v I I I I #
face $-1 $132 $133 $49 $-1 $134 forward single #
loop $-1 $-1 $135 $65 #
plane-surface $-1 0 -38.047865430695005 0 0 1 0 0 0 1 forward_v I I I I #
face $-1 $136 $137 $50 $-1 $138 reversed single #
loop $-1 $-1 $139 $66 #
plane-surface $-1 18.577768527555094 10.812102617518011 190.45686375534666 0 -1 0 -0.50000000669873634 0 -0.8660253999169214 forward_v I I I I #
face $-1 $140 $141 $51 $-1 $142 forward single #
loop $-1 $143 $144 $67 #
cone-surface $-1 54.212048701315794 1.2866433788657403 8.9905746047802246 -0.50000000669873634 0 -0.8660253999169214 0.8660253999169214 0 -0.50000000669873634 1 I I 0 1 1 forward I I I I #
face $-1 $145 $146 $52 $-1 $147 forward single #
loop $-1 $148 $149 $68 #
cone-surface $-1 54.212048701315794 7.0019189220571079 8.9905746047802246 -0.50000000669873634 0 -0.8660253999169214 0.8660253999169214 0 -0.50000000669873634 1 I I 0 1 1 forward I I I I #
face $-1 $150 $151 $53 $-1 $152 reversed single #
loop $-1 $-1 $153 $69 #
plane-surface $-1 18.577768527555094 24.712222496581813 190.45686375534666 0 1 0 0.50000000669873634 0 0.8660253999169214 forward_v I I I I #
face $-1 $154 $155 $54 $-1 $156 forward single #
loop $-1 $157 $158 $70 #
cone-surface $-1 54.212048701315794 28.52240619204273 8.9905746047802246 -0.50000000669873634 0 -0.8660253999169214 0.8660253999169214 0 -0.50000000669873634 1 I I 0 1 1 forward I I I I #
face $-1 $159 $160 $55 $-1 $161 forward single #
loop $-1 $162 $163 $71 #
cone-surface $-1 54.212048701315794 34.237681735234098 8.9905746047802246 -0.50000000669873634 0 -0.8660253999169214 0.8660253999169214 0 -0.50000000669873634 1 I I 0 1 1 forward I I I I #
face $-1 $164 $165 $56 $-1 $166 reversed single #
loop $-1 $-1 $167 $72 #
plane-surface $-1 -177.09715871923146 -11.218498794748648 87.658853618391475 0 1 0 -0.77714596973225614 0 0.62932038083071107 forward_v I I I I #
face $-1 $168 $169 $57 $-1 $170 forward single #
loop $-1 $171 $172 $73 #
cone-surface $-1 -61.65780816899008 -8.8016185537023048 8.8435740863288022 0.77714596973225614 0 -0.62932038083071107 0.62932038083071107 0 0.77714596973225614 1 I I 0 1 1 forward I I I I #
face $-1 $173 $174 $58 $-1 $175 forward single #
loop $-1 $176 $177 $74 #
cone-surface $-1 -61.65780816899008 -5.1762981921327906 8.8435740863288022 0.77714596973225614 0 -0.62932038083071107 0.62932038083071107 0 0.77714596973225614 1 I I 0 1 1 forward I I I I #
face $-1 $178 $179 $59 $-1 $180 forward single #
loop $-1 $181 $182 $75 #
cone-surface $-1 -61.65780816899008 -1.5509778305632764 8.8435740863288022 0.77714596973225614 0 -0.62932038083071107 0.62932038083071107 0 0.77714596973225614 1 I I 0 1 1 forward I I I I #
face $-1 $183 $184 $60 $-1 $185 reversed single #
loop $-1 $-1 $186 $76 #
plane-surface $-1 -177.09715871923146 20.75830282455297 87.658853618391475 0 1 0 -0.77714596973225614 0 0.62932038083071107 forward_v I I I I #
face $-1 $187 $188 $61 $-1 $189 forward single #
loop $-1 $190 $191 $77 #
cone-surface $-1 -61.65780816899008 23.175183065599306 8.8435740863288022 0.77714596973225614 0 -0.62932038083071107 0.62932038083071107 0 0.77714596973225614 1 I I 0 1 1 forward I I I I #
face $-1 $192 $193 $62 $-1 $194 forward single #
loop $-1 $195 $196 $78 #
cone-surface $-1 -61.65780816899008 26.800503427168827 8.8435740863288022 0.77714596973225614 0 -0.62932038083071107 0.62932038083071107 0 0.77714596973225614 1 I I 0 1 1 forward I I I I #
face $-1 $197 $198 $63 $-1 $199 forward single #
loop $-1 $200 $201 $79 #
cone-surface $-1 -61.65780816899008 30.425823788738334 8.8435740863288022 0.77714596973225614 0 -0.62932038083071107 0.62932038083071107 0 0.77714596973225614 1 I I 0 1 1 forward I I I I #
face $-1 $202 $203 $48 $-1 $204 reversed single #
loop $-1 $-1 $205 $80 #
plane-surface $-1 0 0 -18.108122556798072 0 0 1 1 0 0 forward_v I I I I #
coedge $-1 $206 $207 $208 $209 forward $81 $-1 #
face $-1 $210 $211 $49 $-1 $212 reversed single #
loop $-1 $-1 $213 $83 #
plane-surface $-1 0 0 18.108122556798072 0 0 1 1 0 0 forward_v I I I I #
coedge $-1 $214 $215 $216 $217 forward $84 $-1 #
face $-1 $218 $219 $50 $-1 $220 reversed single #
loop $-1 $-1 $221 $86 #
plane-surface $-1 -50.755402969283637 4.144281150461417 70.368290218113543 0.50000000669873634 0 0.8660253999169214 0.8660253999169214 0 -0.50000000669873634 forward_v I I I I #
coedge $-1 $222 $223 $224 $225 reversed $87 $-1 #
face $-1 $-1 $226 $51 $-1 $227 forward single #
loop $-1 $228 $229 $89 #
cone-surface $-1 53.626581607684486 1.2866433788657403 7.9765158705655423 -0.50000000669873634 0 -0.8660253999169214 0.4330126999584607 0 -0.25000000334936817 1 I I -0.70710678118654746 0.70710678118654746 0.5 forward I I I I #
loop $-1 $-1 $230 $67 #
coedge $-1 $144 $144 $231 $232 reversed $90 $-1 #
face $-1 $-1 $233 $52 $-1 $234 forward single #
loop $-1 $235 $236 $92 #
cone-surface $-1 53.626581607684486 7.0019189220571079 7.9765158705655423 -0.50000000669873634 0 -0.8660253999169214 0.4330126999584607 0 -0.25000000334936817 1 I I -0.70710678118654746 0.70710678118654746 0.5 forward I I I I #
loop $-1 $-1 $237 $68 #
coedge $-1 $149 $149 $238 $239 reversed $93 $-1 #
face $-1 $240 $241 $53 $-1 $242 reversed single #
loop $-1 $-1 $243 $95 #
plane-surface $-1 -50.755402969283637 31.380043963638407 70.368290218113543 0.50000000669873634 0 0.8660253999169214 0.8660253999169214 0 -0.50000000669873634 forward_v I I I I #
coedge $-1 $244 $245 $246 $247 reversed $96 $-1 #
face $-1 $-1 $248 $54 $-1 $249 forward single #
loop $-1 $250 $251 $98 #
cone-surface $-1 53.626581607684486 28.52240619204273 7.9765158705655423 -0.50000000669873634 0 -0.8660253999169214 0.4330126999584607 0 -0.25000000334936817 1 I I -0.70710678118654746 0.70710678118654746 0.5 forward I I I I #
loop $-1 $-1 $252 $70 #
coedge $-1 $158 $158 $253 $254 reversed $99 $-1 #
face $-1 $-1 $255 $55 $-1 $256 forward single #
loop $-1 $257 $258 $101 #
cone-surface $-1 53.626581607684486 34.237681735234098 7.9765158705655423 -0.50000000669873634 0 -0.8660253999169214 0.4330126999584607 0 -0.25000000334936817 1 I I -0.70710678118654746 0.70710678118654746 0.5 forward I I I I #
loop $-1 $-1 $259 $71 #
coedge $-1 $163 $163 $260 $261 reversed $102 $-1 #
face $-1 $262 $263 $56 $-1 $264 reversed single #
loop $-1 $-1 $265 $104 #
plane-surface $-1 -69.333170567949438 -5.1762981921327906 0.39329900634626824 -0.77714596973225614 0 0.62932038083071107 0.62932038083071107 0 0.77714596973225614 forward_v I I I I #
coedge $-1 $266 $267 $268 $269 reversed $105 $-1 #
face $-1 $-1 $270 $57 $-1 $271 forward single #
loop $-1 $272 $273 $107 #
cone-surface $-1 -60.766463223328969 -8.8016185537023048 8.121777200670067 0.77714596973225614 0 -0.62932038083071107 0.31466019041535553 0 0.38857298486612807 1 I I -0.70710678118654746 0.70710678118654746 0.5 forward I I I I #
loop $-1 $-1 $274 $73 #
coedge $-1 $172 $172 $275 $276 reversed $108 $-1 #
face $-1 $-1 $277 $58 $-1 $278 forward single #
loop $-1 $279 $280 $110 #
cone-surface $-1 -60.766463223328969 -5.1762981921327906 8.121777200670067 0.77714596973225614 0 -0.62932038083071107 0.31466019041535553 0 0.38857298486612807 1 I I -0.70710678118654746 0.70710678118654746 0.5 forward I I I I #
loop $-1 $-1 $281 $74 #
coedge $-1 $177 $177 $282 $283 reversed $111 $-1 #
face $-1 $-1 $284 $59 $-1 $285 forward single #
loop $-1 $286 $287 $113 #
cone-surface $-1 -60.766463223328969 -1.5509778305632764 8.121777200670067 0.77714596973225614 0 -0.62932038083071107 0.31466019041535553 0 0.38857298486612807 1 I I -0.70710678118654746 0.70710678118654746 0.5 forward I I I I #
loop $-1 $-1 $288 $75 #
coedge $-1 $182 $182 $289 $290 reversed $114 $-1 #
face $-1 $291 $292 $60 $-1 $293 reversed single #
loop $-1 $-1 $294 $116 #
plane-surface $-1 -69.333170567949438 26.800503427168827 0.39329900634626824 -0.77714596973225614 0 0.62932038083071107 0.62932038083071107 0 0.77714596973225614 forward_v I I I I #
coedge $-1 $295 $296 $297 $298 reversed $117 $-1 #
face $-1 $-1 $299 $61 $-1 $300 forward single #
loop $-1 $301 $302 $119 #
cone-surface $-1 -60.766463223328969 23.175183065599306 8.121777200670067 0.77714596973225614 0 -0.62932038083071107 0.31466019041535553 0 0.38857298486612807 1 I I -0.70710678118654746 0.70710678118654746 0.5 forward I I I I #
loop $-1 $-1 $303 $77 #
coedge $-1 $191 $191 $304 $305 reversed $120 $-1 #
face $-1 $-1 $306 $62 $-1 $307 forward single #
loop $-1 $308 $309 $122 #
cone-surface $-1 -60.766463223328969 26.800503427168827 8.121777200670067 0.77714596973225614 0 -0.62932038083071107 0.31466019041535553 0 0.38857298486612807 1 I I -0.70710678118654746 0.70710678118654746 0.5 forward I I I I #
loop $-1 $-1 $310 $78 #
coedge $-1 $196 $196 $311 $312 reversed $123 $-1 #
face $-1 $-1 $313 $63 $-1 $314 forward single #
loop $-1 $315 $316 $125 #
cone-surface $-1 -60.766463223328969 30.425823788738334 8.121777200670067 0.77714596973225614 0 -0.62932038083071107 0.31466019041535553 0 0.38857298486612807 1 I I -0.70710678118654746 0.70710678118654746 0.5 forward I I I I #
loop $-1 $-1 $317 $79 #
coedge $-1 $201 $201 $318 $319 reversed $126 $-1 #
face $-1 $320 $321 $48 $-1 $322 reversed single #
loop $-1 $-1 $323 $128 #
plane-surface $-1 0 -38.047865430695005 0 0 1 0 0 0 1 forward_v I I I I #
coedge $-1 $324 $325 $326 $327 forward $129 $-1 #
coedge $-1 $328 $131 $329 $330 forward $81 $-1 #
coedge $-1 $131 $328 $331 $332 forward $81 $-1 #
coedge $-1 $333 $334 $131 $209 reversed $335 $-1 #
edge $-1 $336 -38.047865430695005 $337 38.047865430695005 $208 $338 forward 7 unknown #
face $-1 $339 $340 $49 $-1 $341 reversed single #
loop $-1 $-1 $342 $132 #
plane-surface $-1 -69.333170567949466 0 0 1 0 0 0 0 -1 forward_v I I I I #
coedge $-1 $343 $344 $215 $345 forward $133 $-1 #
coedge $-1 $346 $135 $347 $348 reversed $84 $-1 #
coedge $-1 $135 $346 $213 $345 reversed $84 $-1 #
coedge $-1 $349 $350 $135 $217 reversed $351 $-1 #
edge $-1 $352 -18.108122556798072 $353 18.108122556798072 $216 $354 forward 7 unknown #
face $-1 $355 $356 $50 $-1 $357 forward single #
loop $-1 $-1 $358 $136 #
plane-surface $-1 18.577768527555094 -2.5235403165951773 190.45686375534666 0 1 0 0.50000000669873634 0 0.8660253999169214 forward_v I I I I #
coedge $-1 $359 $360 $361 $362 reversed $137 $-1 #
coedge $-1 $223 $139 $363 $364 reversed $87 $-1 #
coedge $-1 $139 $222 $359 $365 reversed $87 $-1 #
coedge $-1 $361 $366 $139 $225 forward $356 $-1 #
edge $-1 $367 -60.044286304171919 $368 -30.472976751468437 $224 $369 forward 7 unknown #
loop $-1 $-1 $231 $140 #
plane-surface $-1 -50.755402969283637 4.144281150461417 70.368290218113543 0.50000000669873634 0 0.8660253999169214 0.8660253999169214 0 -0.50000000669873634 forward_v I I I I #
loop $-1 $-1 $370 $89 #
coedge $-1 $229 $229 $230 $371 reversed $141 $-1 #
coedge $-1 $230 $230 $229 $371 forward $143 $-1 #
coedge $-1 $231 $231 $144 $232 forward $226 $-1 #
edge $-1 $372 0 $372 6.2831853071796004 $231 $373 forward 7 unknown #
loop $-1 $-1 $238 $145 #
plane-surface $-1 -50.755402969283637 4.144281150461417 70.368290218113543 0.50000000669873634 0 0.8660253999169214 0.8660253999169214 0 -0.50000000669873634 forward_v I I I I #
loop $-1 $-1 $374 $92 #
coedge $-1 $236 $236 $237 $375 reversed $146 $-1 #
coedge $-1 $237 $237 $236 $375 forward $148 $-1 #
coedge $-1 $238 $238 $149 $239 forward $233 $-1 #
edge $-1 $376 0 $376 6.2831853071796004 $238 $377 forward 7 unknown #
face $-1 $378 $379 $53 $-1 $380 reversed single #
loop $-1 $-1 $246 $150 #
plane-surface $-1 69.333170567949466 0 0 -1 0 0 0 0 1 forward_v I I I I #
coedge $-1 $381 $382 $383 $384 reversed $151 $-1 #
coedge $-1 $245 $153 $385 $386 reversed $96 $-1 #
coedge $-1 $153 $244 $381 $387 reversed $96 $-1 #
coedge $-1 $383 $388 $153 $247 forward $241 $-1 #
edge $-1 $389 77.120309320875265 $390 94.193313156398503 $246 $391 forward 7 unknown #
loop $-1 $-1 $253 $154 #
plane-surface $-1 -50.755402969283637 31.380043963638407 70.368290218113543 0.50000000669873634 0 0.8660253999169214 0.8660253999169214 0 -0.50000000669873634 forward_v I I I I #
loop $-1 $-1 $392 $98 #
coedge $-1 $251 $251 $252 $393 reversed $155 $-1 #
coedge $-1 $252 $252 $251 $393 forward $157 $-1 #
coedge $-1 $253 $253 $158 $254 forward $248 $-1 #
edge $-1 $394 0 $394 6.2831853071796004 $253 $395 forward 7 unknown #
loop $-1 $-1 $260 $159 #
plane-surface $-1 -50.755402969283637 31.380043963638407 70.368290218113543 0.50000000669873634 0 0.8660253999169214 0.8660253999169214 0 -0.50000000669873634 forward_v I I I I #
loop $-1 $-1 $396 $101 #
coedge $-1 $258 $258 $259 $397 reversed $160 $-1 #
coedge $-1 $259 $259 $258 $397 forward $162 $-1 #
coedge $-1 $260 $260 $163 $261 forward $255 $-1 #
edge $-1 $398 0 $398 6.2831853071796004 $260 $399 forward 7 unknown #
face $-1 $400 $401 $56 $-1 $402 reversed single #
loop $-1 $-1 $403 $164 #
plane-surface $-1 -177.09715871923146 0.86590241048306638 87.658853618391475 0 -1 0 0.77714596973225614 0 -0.62932038083071107 forward_v I I I I #
coedge $-1 $404 $405 $406 $407 reversed $165 $-1 #
coedge $-1 $267 $167 $408 $409 reversed $105 $-1 #
coedge $-1 $167 $266 $404 $410 reversed $105 $-1 #
coedge $-1 $406 $411 $167 $269 forward $412 $-1 #
edge $-1 $413 19.215408791666263 $414 33.560589667995117 $268 $415 forward 7 unknown #
loop $-1 $-1 $275 $168 #
plane-surface $-1 -69.333170567949438 -5.1762981921327906 0.39329900634626824 -0.77714596973225614 0 0.62932038083071107 0.62932038083071107 0 0.77714596973225614 forward_v I I I I #
loop $-1 $-1 $416 $107 #
coedge $-1 $273 $273 $274 $417 reversed $169 $-1 #
coedge $-1 $274 $274 $273 $417 forward $171 $-1 #
coedge $-1 $275 $275 $172 $276 forward $270 $-1 #
edge $-1 $418 0 $418 6.2831853071796004 $275 $419 forward 7 unknown #
loop $-1 $-1 $282 $173 #
plane-surface $-1 -69.333170567949438 -5.1762981921327906 0.39329900634626824 -0.77714596973225614 0 0.62932038083071107 0.62932038083071107 0 0.77714596973225614 forward_v I I I I #
loop $-1 $-1 $420 $110 #
coedge $-1 $280 $280 $281 $421 reversed $174 $-1 #
coedge $-1 $281 $281 $280 $421 forward $176 $-1 #
coedge $-1 $282 $282 $177 $283 forward $277 $-1 #
edge $-1 $422 0 $422 6.2831853071796004 $282 $423 forward 7 unknown #
loop $-1 $-1 $289 $178 #
plane-surface $-1 -69.333170567949438 -5.1762981921327906 0.39329900634626824 -0.77714596973225614 0 0.62932038083071107 0.62932038083071107 0 0.77714596973225614 forward_v I I I I #
loop $-1 $-1 $424 $113 #
coedge $-1 $287 $287 $288 $425 reversed $179 $-1 #
coedge $-1 $288 $288 $287 $425 forward $181 $-1 #
coedge $-1 $289 $289 $182 $290 forward $284 $-1 #
edge $-1 $426 0 $426 6.2831853071796004 $289 $427 forward 7 unknown #
face $-1 $428 $429 $60 $-1 $430 forward single #
loop $-1 $-1 $431 $183 #
plane-surface $-1 -177.09715871923146 32.842704029784684 87.658853618391475 0 -1 0 0.77714596973225614 0 -0.62932038083071107 forward_v I I I I #
coedge $-1 $432 $433 $434 $435 reversed $184 $-1 #
coedge $-1 $296 $186 $436 $437 reversed $117 $-1 #
coedge $-1 $186 $295 $432 $438 reversed $117 $-1 #
coedge $-1 $434 $439 $186 $298 forward $429 $-1 #
edge $-1 $440 19.215408791666263 $441 33.560589667995117 $297 $442 forward 7 unknown #
loop $-1 $-1 $304 $187 #
plane-surface $-1 -69.333170567949438 26.800503427168827 0.39329900634626824 -0.77714596973225614 0 0.62932038083071107 0.62932038083071107 0 0.77714596973225614 forward_v I I I I #
loop $-1 $-1 $443 $119 #
coedge $-1 $302 $302 $303 $444 reversed $188 $-1 #
coedge $-1 $303 $303 $302 $444 forward $190 $-1 #
coedge $-1 $304 $304 $191 $305 forward $299 $-1 #
edge $-1 $445 0 $445 6.2831853071796004 $304 $446 forward 7 unknown #
loop $-1 $-1 $311 $192 #
plane-surface $-1 -69.333170567949438 26.800503427168827 0.39329900634626824 -0.77714596973225614 0 0.62932038083071107 0.62932038083071107 0 0.77714596973225614 forward_v I I I I #
loop $-1 $-1 $447 $122 #
coedge $-1 $309 $309 $310 $448 reversed $193 $-1 #
coedge $-1 $310 $310 $309 $448 forward $195 $-1 #
coedge $-1 $311 $311 $196 $312 forward $306 $-1 #
edge $-1 $449 0 $449 6.2831853071796004 $311 $450 forward 7 unknown #
loop $-1 $-1 $318 $197 #
plane-surface $-1 -69.333170567949438 26.800503427168827 0.39329900634626824 -0.77714596973225614 0 0.62932038083071107 0.62932038083071107 0 0.77714596973225614 forward_v I I I I #
loop $-1 $-1 $451 $125 #
coedge $-1 $316 $316 $317 $452 reversed $198 $-1 #
coedge $-1 $317 $317 $316 $452 forward $200 $-1 #
coedge $-1 $318 $318 $201 $319 forward $313 $-1 #
edge $-1 $453 0 $453 6.2831853071796004 $318 $454 forward 7 unknown #
face $-1 $455 $456 $48 $-1 $457 reversed single #
loop $-1 $-1 $458 $202 #
plane-surface $-1 -69.333170567949466 0 0 1 0 0 0 0 -1 forward_v I I I I #
coedge $-1 $459 $331 $460 $461 forward $203 $-1 #
coedge $-1 $462 $205 $459 $463 forward $129 $-1 #
coedge $-1 $205 $462 $464 $465 forward $129 $-1 #
coedge $-1 $334 $333 $205 $327 reversed $335 $-1 #
edge $-1 $466 -38.047865430695005 $467 38.047865430695005 $326 $468 forward 7 unknown #
coedge $-1 $207 $206 $469 $470 forward $81 $-1 #
coedge $-1 $471 $472 $206 $330 reversed $456 $-1 #
edge $-1 $337 -69.333170567949466 $473 69.333170567949466 $329 $474 forward 7 unknown #
coedge $-1 $323 $475 $207 $332 reversed $203 $-1 #
edge $-1 $476 -69.333170567949466 $336 69.333170567949466 $331 $477 forward 7 unknown #
coedge $-1 $326 $208 $475 $478 forward $335 $-1 #
coedge $-1 $208 $326 $471 $479 reversed $335 $-1 #
loop $-1 $-1 $333 $455 #
vertex $-1 $209 $480 #
vertex $-1 $209 $481 #
straight-curve $-1 69.333170567949466 0 18.108122556798072 0 1 0 I I #
face $-1 $482 $351 $49 $-1 $483 reversed single #
loop $-1 $-1 $484 $210 #
plane-surface $-1 -64.880220370314291 -59.672070665731034 0 0 1 0 0 0 1 forward_v I I I I #
coedge $-1 $485 $486 $346 $487 forward $211 $-1 #
coedge $-1 $488 $213 $486 $489 forward $133 $-1 #
coedge $-1 $213 $488 $349 $490 forward $133 $-1 #
edge $-1 $352 60.427270172679115 $491 69.333170567949466 $213 $492 forward 7 unknown #
coedge $-1 $215 $214 $342 $487 reversed $84 $-1 #
coedge $-1 $493 $494 $214 $348 forward $495 $-1 #
edge $-1 $496 -69.333170567949466 $353 -60.427270172679115 $347 $497 forward 7 unknown #
coedge $-1 $498 $216 $344 $490 reversed $351 $-1 #
coedge $-1 $216 $498 $493 $499 reversed $351 $-1 #
loop $-1 $-1 $498 $339 #
vertex $-1 $345 $500 #
vertex $-1 $499 $501 #
straight-curve $-1 -60.427270172679115 -38.047865430695005 0 0 0 -1 I I #
face $-1 $-1 $502 $50 $-1 $503 reversed single #
loop $-1 $-1 $224 $218 #
plane-surface $-1 0 0 18.108122556798072 0 0 1 1 0 0 forward_v I I I I #
coedge $-1 $504 $505 $506 $507 reversed $219 $-1 #
coedge $-1 $508 $221 $223 $365 forward $137 $-1 #
coedge $-1 $221 $508 $504 $509 forward $137 $-1 #
coedge $-1 $506 $224 $221 $362 forward $356 $-1 #
edge $-1 $368 -8.7399620422873028 $510 4.5956808918258858 $361 $511 forward 7 unknown #
coedge $-1 $512 $513 $222 $364 forward $502 $-1 #
edge $-1 $514 -94.193313156398503 $367 -77.120309320875265 $363 $515 forward 7 unknown #
edge $-1 $368 104.52033392232264 $514 138.66634113589893 $223 $516 forward 7 unknown #
coedge $-1 $224 $506 $512 $517 forward $356 $-1 #
vertex $-1 $364 $518 #
vertex $-1 $225 $519 #
straight-curve $-1 9.2888842637775468 10.812102617518011 18.108122556798079 -1 0 0 I I #
coedge $-1 $370 $370 $-1 $520 reversed $228 $-1 #
edge $-1 $521 0 $521 6.2831853071796004 $229 $522 forward 7 unknown #
vertex $-1 $232 $523 #
ellipse-curve $-1 54.547515791597739 1.2866433788657403 9.5716206390364462 0.50000000669873634 0 0.8660253999169214 0.8660253999169214 0 -0.50000000669873634 1 I I #
coedge $-1 $374 $374 $-1 $524 reversed $235 $-1 #
edge $-1 $525 0 $525 6.2831853071796004 $236 $526 forward 7 unknown #
vertex $-1 $239 $527 #
ellipse-curve $-1 54.547515791597739 7.0019189220571079 9.5716206390364462 0.50000000669873634 0 0.8660253999169214 0.8660253999169214 0 -0.50000000669873634 1 I I #
face $-1 $-1 $528 $53 $-1 $529 forward single #
loop $-1 $-1 $530 $240 #
plane-surface $-1 0 38.047865430695005 0 0 -1 0 0 0 -1 forward_v I I I I #
coedge $-1 $531 $243 $245 $387 forward $151 $-1 #
coedge $-1 $243 $531 $530 $532 reversed $151 $-1 #
coedge $-1 $533 $246 $243 $384 forward $241 $-1 #
edge $-1 $390 9.0222005147626092 $534 22.357843448875801 $383 $535 forward 7 unknown #
coedge $-1 $536 $537 $244 $386 forward $528 $-1 #
edge $-1 $538 30.472976751468437 $389 60.044286304171919 $385 $539 forward 7 unknown #
edge $-1 $390 -138.66634113589893 $538 -104.52033392232264 $245 $540 forward 7 unknown #
coedge $-1 $246 $533 $536 $541 reversed $241 $-1 #
vertex $-1 $541 $542 #
vertex $-1 $247 $543 #
straight-curve $-1 69.333170567949466 24.712222496581813 95.22843187767333 0 0 -1 I I #
coedge $-1 $392 $392 $-1 $544 reversed $250 $-1 #
edge $-1 $545 0 $545 6.2831853071796004 $251 $546 forward 7 unknown #
vertex $-1 $254 $547 #
ellipse-curve $-1 54.547515791597739 28.52240619204273 9.5716206390364462 0.50000000669873634 0 0.8660253999169214 0.8660253999169214 0 -0.50000000669873634 1 I I #
coedge $-1 $396 $396 $-1 $548 reversed $257 $-1 #
edge $-1 $549 0 $549 6.2831853071796004 $258 $550 forward 7 unknown #
vertex $-1 $261 $551 #
ellipse-curve $-1 54.547515791597739 34.237681735234098 9.5716206390364462 0.50000000669873634 0 0.8660253999169214 0.8660253999169214 0 -0.50000000669873634 1 I I #
face $-1 $-1 $412 $56 $-1 $552 forward single #
loop $-1 $-1 $553 $262 #
plane-surface $-1 -69.333170567949466 0 0 1 0 0 0 0 -1 forward_v I I I I #
coedge $-1 $554 $555 $556 $557 reversed $263 $-1 #
coedge $-1 $558 $265 $267 $410 forward $165 $-1 #
coedge $-1 $265 $558 $554 $559 forward $165 $-1 #
coedge $-1 $556 $268 $265 $407 forward $412 $-1 #
edge $-1 $414 -8.6303496986822523 $560 3.4540515065494617 $406 $561 forward 7 unknown #
coedge $-1 $562 $563 $266 $409 forward $401 $-1 #
edge $-1 $564 -43.436127802849505 $413 -25.721304252397665 $408 $565 forward 7 unknown #
edge $-1 $414 -22.794718418928369 $564 4.5151010033889764e-014 $267 $566 forward 7 unknown #
coedge $-1 $268 $556 $562 $567 forward $412 $-1 #
loop $-1 $-1 $556 $400 #
vertex $-1 $409 $568 #
vertex $-1 $269 $569 #
straight-curve $-1 -88.548579359615729 -11.218498794748648 18.108122556798072 1 0 0 I I #
coedge $-1 $416 $416 $-1 $570 reversed $272 $-1 #
edge $-1 $571 0 $571 6.2831853071796004 $273 $572 forward 7 unknown #
vertex $-1 $276 $573 #
ellipse-curve $-1 -62.160580129785032 -8.8016185537023048 9.2507107815721596 -0.77714596973225614 0 0.62932038083071107 0.62932038083071107 0 0.77714596973225614 1 I I #
coedge $-1 $420 $420 $-1 $574 reversed $279 $-1 #
edge $-1 $575 0 $575 6.2831853071796004 $280 $576 forward 7 unknown #
vertex $-1 $283 $577 #
ellipse-curve $-1 -62.160580129785032 -5.1762981921327906 9.2507107815721596 -0.77714596973225614 0 0.62932038083071107 0.62932038083071107 0 0.77714596973225614 1 I I #
coedge $-1 $424 $424 $-1 $578 reversed $286 $-1 #
edge $-1 $579 0 $579 6.2831853071796004 $287 $580 forward 7 unknown #
vertex $-1 $290 $581 #
ellipse-curve $-1 -62.160580129785032 -1.5509778305632764 9.2507107815721596 -0.77714596973225614 0 0.62932038083071107 0.62932038083071107 0 0.77714596973225614 1 I I #
face $-1 $-1 $582 $60 $-1 $583 reversed single #
loop $-1 $-1 $297 $291 #
plane-surface $-1 0 0 18.108122556798072 0 0 1 1 0 0 forward_v I I I I #
coedge $-1 $584 $585 $586 $587 reversed $292 $-1 #
coedge $-1 $588 $294 $296 $438 forward $184 $-1 #
coedge $-1 $294 $588 $584 $589 forward $184 $-1 #
coedge $-1 $586 $297 $294 $435 forward $429 $-1 #
edge $-1 $441 7.3580511109685567 $590 19.442452316200271 $434 $591 forward 7 unknown #
coedge $-1 $592 $593 $295 $437 forward $582 $-1 #
edge $-1 $594 -43.436127802849505 $440 -25.721304252397665 $436 $595 forward 7 unknown #
edge $-1 $441 -22.794718418928369 $594 4.5151010033889764e-014 $296 $596 forward 7 unknown #
coedge $-1 $297 $586 $592 $597 forward $429 $-1 #
vertex $-1 $437 $598 #
vertex $-1 $298 $599 #
straight-curve $-1 -88.548579359615729 20.75830282455297 18.108122556798072 1 0 0 I I #
coedge $-1 $443 $443 $-1 $600 reversed $301 $-1 #
edge $-1 $601 0 $601 6.2831853071796004 $302 $602 forward 7 unknown #
vertex $-1 $305 $603 #
ellipse-curve $-1 -62.160580129785032 23.175183065599306 9.2507107815721596 -0.77714596973225614 0 0.62932038083071107 0.62932038083071107 0 0.77714596973225614 1 I I #
coedge $-1 $447 $447 $-1 $604 reversed $308 $-1 #
edge $-1 $605 0 $605 6.2831853071796004 $309 $606 forward 7 unknown #
vertex $-1 $312 $607 #
ellipse-curve $-1 -62.160580129785032 26.800503427168827 9.2507107815721596 -0.77714596973225614 0 0.62932038083071107 0.62932038083071107 0 0.77714596973225614 1 I I #
coedge $-1 $451 $451 $-1 $608 reversed $315 $-1 #
edge $-1 $609 0 $609 6.2831853071796004 $316 $610 forward 7 unknown #
vertex $-1 $319 $611 #
ellipse-curve $-1 -62.160580129785032 30.425823788738334 9.2507107815721596 -0.77714596973225614 0 0.62932038083071107 0.62932038083071107 0 0.77714596973225614 1 I I #
face $-1 $-1 $335 $48 $-1 $612 reversed single #
loop $-1 $-1 $471 $320 #
plane-surface $-1 0 38.047865430695005 0 0 -1 0 0 0 -1 forward_v I I I I #
coedge $-1 $613 $469 $472 $614 forward $321 $-1 #
coedge $-1 $475 $323 $324 $463 reversed $203 $-1 #
coedge $-1 $469 $613 $323 $461 reversed $321 $-1 #
edge $-1 $476 -18.108122556798072 $615 18.108122556798072 $460 $616 forward 7 unknown #
coedge $-1 $325 $324 $613 $617 forward $129 $-1 #
edge $-1 $467 -69.333170567949466 $615 69.333170567949466 $459 $618 forward 7 unknown #
coedge $-1 $472 $471 $325 $465 reversed $456 $-1 #
edge $-1 $619 -69.333170567949466 $466 69.333170567949466 $464 $620 forward 7 unknown #
vertex $-1 $327 $621 #
vertex $-1 $478 $622 #
straight-curve $-1 69.333170567949466 0 -18.108122556798072 0 -1 0 I I #
coedge $-1 $458 $460 $328 $470 reversed $321 $-1 #
edge $-1 $473 -38.047865430695005 $476 38.047865430695005 $469 $623 forward 7 unknown #
coedge $-1 $464 $329 $334 $479 forward $456 $-1 #
coedge $-1 $329 $464 $458 $614 reversed $456 $-1 #
vertex $-1 $330 $624 #
straight-curve $-1 0 38.047865430695005 18.108122556798072 -1 0 0 I I #
coedge $-1 $331 $459 $333 $478 reversed $203 $-1 #
vertex $-1 $470 $625 #
straight-curve $-1 0 -38.047865430695005 18.108122556798072 1 0 0 I I #
edge $-1 $336 -18.108122556798072 $467 18.108122556798072 $333 $626 forward 7 unknown #
edge $-1 $337 -18.108122556798072 $466 18.108122556798072 $334 $627 forward 7 unknown #
point $-1 69.333170567949466 -38.047865430695005 18.108122556798072 #
point $-1 69.333170567949466 38.047865430695005 18.108122556798072 #
face $-1 $-1 $495 $49 $-1 $628 reversed single #
plane-surface $-1 -60.427270172679115 -48.85996804821302 0 -1 0 0 0 0 1 forward_v I I I I #
coedge $-1 $629 $630 $631 $632 forward $340 $-1 #
coedge $-1 $631 $342 $494 $633 reversed $211 $-1 #
coedge $-1 $342 $631 $343 $489 reversed $211 $-1 #
edge $-1 $491 -18.108122556798072 $496 18.108122556798072 $342 $634 forward 7 unknown #
coedge $-1 $344 $343 $630 $635 forward $133 $-1 #
edge $-1 $491 38.047865430695005 $636 59.672070665731034 $486 $637 forward 7 unknown #
edge $-1 $638 -10.812102617518015 $352 10.812102617518015 $349 $639 forward 7 unknown #
vertex $-1 $489 $640 #
straight-curve $-1 0 -38.047865430695005 18.108122556798072 -1 0 0 I I #
coedge $-1 $641 $347 $350 $499 forward $495 $-1 #
coedge $-1 $347 $641 $485 $633 forward $495 $-1 #
loop $-1 $-1 $347 $482 #
vertex $-1 $487 $642 #
straight-curve $-1 0 -38.047865430695005 -18.108122556798072 1 0 0 I I #
coedge $-1 $350 $349 $643 $644 forward $351 $-1 #
edge $-1 $353 -10.812102617518015 $645 10.812102617518015 $350 $646 forward 7 unknown #
point $-1 -60.427270172679115 -38.047865430695005 18.108122556798072 #
point $-1 -60.427270172679115 -38.047865430695005 -18.108122556798072 #
loop $-1 $-1 $363 $355 #
plane-surface $-1 69.333170567949466 0 0 -1 0 0 0 0 1 forward_v I I I I #
coedge $-1 $505 $358 $360 $509 reversed $219 $-1 #
coedge $-1 $358 $504 $647 $648 reversed $219 $-1 #
coedge $-1 $366 $361 $358 $507 forward $356 $-1 #
edge $-1 $510 30.472976751468437 $649 60.044286304171919 $506 $650 forward 7 unknown #
coedge $-1 $360 $359 $513 $651 reversed $137 $-1 #
edge $-1 $652 -138.66634113589893 $510 -104.52033392232264 $504 $653 forward 7 unknown #
vertex $-1 $362 $654 #
straight-curve $-1 39.761861015245969 2.0721405752307085 18.108122556798079 0 -1 0 I I #
coedge $-1 $647 $363 $366 $517 reversed $502 $-1 #
coedge $-1 $363 $647 $508 $651 forward $502 $-1 #
vertex $-1 $364 $655 #
straight-curve $-1 69.333170567949466 10.812102617518011 95.22843187767333 0 0 1 I I #
straight-curve $-1 -50.755402969283637 10.812102617518011 70.368290218113543 0.8660253999169214 0 -0.50000000669873634 I I #
edge $-1 $649 -2.5235403165951773 $367 10.812102617518011 $512 $656 forward 7 unknown #
point $-1 69.333170567949466 10.812102617518011 18.108122556798072 #
point $-1 39.761861015245984 10.812102617518011 18.108122556798072 #
edge $-1 $657 1 $657 0 $370 $-1 forward 7 unknown #
vertex $-1 $371 $658 #
ellipse-curve $-1 53.876581611033856 1.2866433788657403 8.409528570524003 0.50000000669873634 0 0.8660253999169214 0.8660253999169214 0 -0.50000000669873634 1 I I #
point $-1 55.413541191514661 1.2866433788657403 9.0716206323377087 #
edge $-1 $659 1 $659 0 $374 $-1 forward 7 unknown #
vertex $-1 $375 $660 #
ellipse-curve $-1 53.876581611033856 7.0019189220571079 8.409528570524003 0.50000000669873634 0 0.8660253999169214 0.8660253999169214 0 -0.50000000669873634 1 I I #
point $-1 55.413541191514661 7.0019189220571079 9.0716206323377087 #
loop $-1 $-1 $385 $378 #
plane-surface $-1 0 0 18.108122556798072 0 0 1 1 0 0 forward_v I I I I #
coedge $-1 $661 $662 $382 $532 forward $379 $-1 #
coedge $-1 $382 $381 $537 $663 reversed $151 $-1 #
edge $-1 $534 -99.096534268472027 $664 -64.950527054895758 $530 $665 forward 7 unknown #
coedge $-1 $388 $383 $662 $666 reversed $241 $-1 #
vertex $-1 $532 $667 #
straight-curve $-1 69.333170567949466 15.690021981819203 1.0351187212748343 0 1 0 I I #
coedge $-1 $668 $385 $388 $541 forward $528 $-1 #
coedge $-1 $385 $668 $531 $663 forward $528 $-1 #
vertex $-1 $386 $669 #
straight-curve $-1 9.2888842637775468 24.712222496581813 18.108122556798079 1 0 0 I I #
straight-curve $-1 -50.755402969283637 24.712222496581813 70.368290218113543 -0.8660253999169214 0 0.50000000669873634 I I #
edge $-1 $389 24.712222496581813 $670 38.047865430695005 $388 $671 forward 7 unknown #
point $-1 69.333170567949466 24.712222496581813 18.108122556798072 #
point $-1 69.333170567949466 24.712222496581813 1.0351187212748272 #
edge $-1 $672 1 $672 0 $392 $-1 forward 7 unknown #
vertex $-1 $393 $673 #
ellipse-curve $-1 53.876581611033856 28.52240619204273 8.409528570524003 0.50000000669873634 0 0.8660253999169214 0.8660253999169214 0 -0.50000000669873634 1 I I #
point $-1 55.413541191514661 28.52240619204273 9.0716206323377087 #
edge $-1 $674 1 $674 0 $396 $-1 forward 7 unknown #
vertex $-1 $397 $675 #
ellipse-curve $-1 53.876581611033856 34.237681735234098 8.409528570524003 0.50000000669873634 0 0.8660253999169214 0.8660253999169214 0 -0.50000000669873634 1 I I #
point $-1 55.413541191514661 34.237681735234098 9.0716206323377087 #
plane-surface $-1 0 0 18.108122556798072 0 0 1 1 0 0 forward_v I I I I #
coedge $-1 $563 $562 $555 $676 forward $401 $-1 #
coedge $-1 $555 $403 $405 $559 reversed $263 $-1 #
coedge $-1 $403 $554 $553 $676 reversed $263 $-1 #
coedge $-1 $411 $406 $403 $557 forward $412 $-1 #
edge $-1 $560 -33.560589667995117 $677 -19.215408791666263 $556 $678 forward 7 unknown #
coedge $-1 $405 $404 $563 $679 reversed $165 $-1 #
edge $-1 $680 -4.5151010033889764e-014 $560 22.794718418928369 $554 $681 forward 7 unknown #
vertex $-1 $407 $682 #
straight-curve $-1 -54.987989691620619 -2.5881490960663953 18.108122556798072 0 1 0 I I #
coedge $-1 $553 $408 $411 $567 reversed $401 $-1 #
coedge $-1 $408 $553 $558 $679 forward $401 $-1 #
vertex $-1 $409 $683 #
straight-curve $-1 -69.333170567949466 -11.218498794748648 43.829426809195738 0 0 1 I I #
straight-curve $-1 -69.333170567949438 -11.218498794748648 0.39329900634626824 -0.62932038083071107 0 -0.77714596973225614 I I #
edge $-1 $677 -0.86590241048306638 $413 11.218498794748648 $562 $684 forward 7 unknown #
point $-1 -69.333170567949466 -11.218498794748648 18.108122556798072 #
point $-1 -54.987989691620612 -11.218498794748648 18.108122556798072 #
edge $-1 $685 1 $685 0 $416 $-1 forward 7 unknown #
vertex $-1 $417 $686 #
ellipse-curve $-1 -61.155036208195099 -8.8016185537023048 8.4364373910854233 -0.77714596973225614 0 0.62932038083071107 0.62932038083071107 0 0.77714596973225614 1 I I #
point $-1 -61.531259748954355 -8.8016185537023048 10.027856751304437 #
edge $-1 $687 1 $687 0 $420 $-1 forward 7 unknown #
vertex $-1 $421 $688 #
ellipse-curve $-1 -61.155036208195099 -5.1762981921327906 8.4364373910854233 -0.77714596973225614 0 0.62932038083071107 0.62932038083071107 0 0.77714596973225614 1 I I #
point $-1 -61.531259748954355 -5.1762981921327906 10.027856751304437 #
edge $-1 $689 1 $689 0 $424 $-1 forward 7 unknown #
vertex $-1 $425 $690 #
ellipse-curve $-1 -61.155036208195099 -1.5509778305632764 8.4364373910854233 -0.77714596973225614 0 0.62932038083071107 0.62932038083071107 0 0.77714596973225614 1 I I #
point $-1 -61.531259748954355 -1.5509778305632764 10.027856751304437 #
loop $-1 $-1 $436 $428 #
plane-surface $-1 -69.333170567949466 0 0 1 0 0 0 0 -1 forward_v I I I I #
coedge $-1 $585 $431 $433 $589 reversed $292 $-1 #
coedge $-1 $431 $584 $691 $692 reversed $292 $-1 #
coedge $-1 $439 $434 $431 $587 forward $429 $-1 #
edge $-1 $590 -33.560589667995117 $693 -19.215408791666263 $586 $694 forward 7 unknown #
coedge $-1 $433 $432 $593 $695 reversed $184 $-1 #
edge $-1 $696 -4.5151010033889764e-014 $590 22.794718418928369 $584 $697 forward 7 unknown #
vertex $-1 $435 $698 #
straight-curve $-1 -54.987989691620619 13.400251713584414 18.108122556798072 0 1 0 I I #
coedge $-1 $691 $436 $439 $597 reversed $582 $-1 #
coedge $-1 $436 $691 $588 $695 forward $582 $-1 #
vertex $-1 $437 $699 #
straight-curve $-1 -69.333170567949466 20.75830282455297 43.829426809195738 0 0 1 I I #
straight-curve $-1 -69.333170567949438 20.75830282455297 0.39329900634626824 -0.62932038083071107 0 -0.77714596973225614 I I #
edge $-1 $693 -32.842704029784684 $440 -20.75830282455297 $592 $700 forward 7 unknown #
point $-1 -69.333170567949466 20.75830282455297 18.108122556798072 #
point $-1 -54.987989691620612 20.75830282455297 18.108122556798072 #
edge $-1 $701 1 $701 0 $443 $-1 forward 7 unknown #
vertex $-1 $444 $702 #
ellipse-curve $-1 -61.155036208195099 23.175183065599306 8.4364373910854233 -0.77714596973225614 0 0.62932038083071107 0.62932038083071107 0 0.77714596973225614 1 I I #
point $-1 -61.531259748954355 23.175183065599306 10.027856751304437 #
edge $-1 $703 1 $703 0 $447 $-1 forward 7 unknown #
vertex $-1 $448 $704 #
ellipse-curve $-1 -61.155036208195099 26.800503427168827 8.4364373910854233 -0.77714596973225614 0 0.62932038083071107 0.62932038083071107 0 0.77714596973225614 1 I I #
point $-1 -61.531259748954355 26.800503427168827 10.027856751304437 #
edge $-1 $705 1 $705 0 $451 $-1 forward 7 unknown #
vertex $-1 $452 $706 #
ellipse-curve $-1 -61.155036208195099 30.425823788738334 8.4364373910854233 -0.77714596973225614 0 0.62932038083071107 0.62932038083071107 0 0.77714596973225614 1 I I #
point $-1 -61.531259748954355 30.425823788738334 10.027856751304437 #
plane-surface $-1 69.333170567949466 0 0 -1 0 0 0 0 1 forward_v I I I I #
coedge $-1 $460 $458 $462 $617 reversed $321 $-1 #
edge $-1 $473 -18.108122556798072 $619 18.108122556798072 $472 $707 forward 7 unknown #
vertex $-1 $617 $708 #
straight-curve $-1 -69.333170567949466 -38.047865430695005 0 0 0 -1 I I #
edge $-1 $615 -38.047865430695005 $619 38.047865430695005 $613 $709 forward 7 unknown #
straight-curve $-1 0 -38.047865430695005 -18.108122556798072 -1 0 0 I I #
vertex $-1 $465 $710 #
straight-curve $-1 0 38.047865430695005 -18.108122556798072 1 0 0 I I #
point $-1 69.333170567949466 38.047865430695005 -18.108122556798072 #
point $-1 69.333170567949466 -38.047865430695005 -18.108122556798072 #
straight-curve $-1 -69.333170567949466 0 18.108122556798072 0 -1 0 I I #
point $-1 -69.333170567949466 38.047865430695005 18.108122556798072 #
point $-1 -69.333170567949466 -38.047865430695005 18.108122556798072 #
straight-curve $-1 69.333170567949466 -38.047865430695005 0 0 0 -1 I I #
straight-curve $-1 69.333170567949466 38.047865430695005 0 0 0 -1 I I #
plane-surface $-1 0 0 -18.108122556798072 0 0 1 1 0 0 forward_v I I I I #
coedge $-1 $643 $484 $641 $711 reversed $340 $-1 #
coedge $-1 $484 $643 $488 $635 reversed $340 $-1 #
coedge $-1 $486 $485 $484 $632 reversed $211 $-1 #
edge $-1 $636 -18.108122556798072 $712 18.108122556798072 $631 $713 forward 7 unknown #
edge $-1 $712 -59.672070665731034 $496 -38.047865430695005 $485 $714 forward 7 unknown #
straight-curve $-1 -69.333170567949466 -38.047865430695005 0 0 0 -1 I I #
edge $-1 $636 -4.4529501976351753 $638 4.4529501976351753 $630 $715 forward 7 unknown #
vertex $-1 $489 $716 #
straight-curve $-1 -69.333170567949466 0 18.108122556798072 0 -1 0 I I #
vertex $-1 $490 $717 #
straight-curve $-1 -60.427270172679115 -48.85996804821302 18.108122556798072 0 1 0 I I #
point $-1 -69.333170567949466 -38.047865430695005 18.108122556798072 #
coedge $-1 $494 $493 $629 $711 forward $495 $-1 #
point $-1 -69.333170567949466 -38.047865430695005 -18.108122556798072 #
coedge $-1 $630 $629 $498 $644 reversed $340 $-1 #
edge $-1 $638 -18.108122556798072 $645 18.108122556798072 $498 $718 forward 7 unknown #
vertex $-1 $644 $719 #
straight-curve $-1 -60.427270172679115 -48.85996804821302 -18.108122556798072 0 -1 0 I I #
coedge $-1 $513 $512 $505 $648 forward $502 $-1 #
edge $-1 $649 77.120309320875265 $652 94.193313156398503 $647 $720 forward 7 unknown #
vertex $-1 $517 $721 #
straight-curve $-1 9.2888842637775468 -2.5235403165951773 18.108122556798079 1 0 0 I I #
edge $-1 $652 -4.5956808918258858 $514 8.7399620422873028 $513 $722 forward 7 unknown #
vertex $-1 $651 $723 #
straight-curve $-1 -50.755402969283637 -2.5235403165951773 70.368290218113543 -0.8660253999169214 0 0.50000000669873634 I I #
point $-1 39.761861015245984 -2.5235403165951773 18.108122556798072 #
point $-1 69.333170567949466 10.812102617518011 1.0351187212748272 #
straight-curve $-1 69.333170567949466 0 18.108122556798072 0 1 0 I I #
vertex $-1 $520 $724 #
point $-1 54.742607010950778 1.2866433788657403 7.9095285638252664 #
vertex $-1 $524 $725 #
point $-1 54.742607010950778 7.0019189220571079 7.9095285638252664 #
coedge $-1 $662 $530 $668 $726 reversed $379 $-1 #
coedge $-1 $530 $661 $533 $666 forward $379 $-1 #
edge $-1 $664 -22.357843448875794 $538 -9.0222005147626092 $537 $727 forward 7 unknown #
vertex $-1 $532 $728 #
straight-curve $-1 -16.486945152284932 38.047865430695005 50.5833865193324 -0.8660253999169214 0 0.50000000669873634 I I #
edge $-1 $670 -18.108122556798072 $534 -1.0351187212748327 $533 $729 forward 7 unknown #
point $-1 69.333170567949466 38.047865430695005 1.0351187212748327 #
coedge $-1 $537 $536 $661 $726 forward $528 $-1 #
point $-1 39.761861015245984 24.712222496581813 18.108122556798072 #
vertex $-1 $541 $730 #
straight-curve $-1 69.333170567949466 0 18.108122556798072 0 1 0 I I #
vertex $-1 $544 $731 #
point $-1 54.742607010950778 28.52240619204273 7.9095285638252664 #
vertex $-1 $548 $732 #
point $-1 54.742607010950778 34.237681735234098 7.9095285638252664 #
edge $-1 $677 25.721304252397665 $680 43.436127802849505 $553 $733 forward 7 unknown #
vertex $-1 $567 $734 #
straight-curve $-1 -88.548579359615729 0.86590241048306638 18.108122556798072 -1 0 0 I I #
edge $-1 $680 -3.4540515065494617 $564 8.6303496986822523 $563 $735 forward 7 unknown #
vertex $-1 $679 $736 #
straight-curve $-1 -69.333170567949438 0.86590241048306638 0.39329900634626824 0.62932038083071107 0 0.77714596973225614 I I #
point $-1 -54.987989691620612 0.86590241048306638 18.108122556798072 #
point $-1 -69.333170567949466 -11.218498794748648 0.39329900634623316 #
straight-curve $-1 -69.333170567949466 0 18.108122556798072 0 -1 0 I I #
vertex $-1 $570 $737 #
point $-1 -60.525715827364387 -8.8016185537023048 9.2135833608176796 #
vertex $-1 $574 $738 #
point $-1 -60.525715827364387 -5.1762981921327906 9.2135833608176796 #
vertex $-1 $578 $739 #
point $-1 -60.525715827364387 -1.5509778305632764 9.2135833608176796 #
coedge $-1 $593 $592 $585 $692 forward $582 $-1 #
edge $-1 $693 25.721304252397665 $696 43.436127802849505 $691 $740 forward 7 unknown #
vertex $-1 $597 $741 #
straight-curve $-1 -88.548579359615729 32.842704029784684 18.108122556798072 -1 0 0 I I #
edge $-1 $696 -19.442452316200271 $594 -7.3580511109685567 $593 $742 forward 7 unknown #
vertex $-1 $695 $743 #
straight-curve $-1 -69.333170567949438 32.842704029784684 0.39329900634626824 0.62932038083071107 0 0.77714596973225614 I I #
point $-1 -54.987989691620612 32.842704029784684 18.108122556798072 #
point $-1 -69.333170567949466 20.75830282455297 0.39329900634623316 #
straight-curve $-1 -69.333170567949466 0 18.108122556798072 0 -1 0 I I #
vertex $-1 $600 $744 #
point $-1 -60.525715827364387 23.175183065599306 9.2135833608176796 #
vertex $-1 $604 $745 #
point $-1 -60.525715827364387 26.800503427168827 9.2135833608176796 #
vertex $-1 $608 $746 #
point $-1 -60.525715827364387 30.425823788738334 9.2135833608176796 #
straight-curve $-1 -69.333170567949466 38.047865430695005 0 0 0 -1 I I #
point $-1 -69.333170567949466 -38.047865430695005 -18.108122556798072 #
straight-curve $-1 -69.333170567949466 0 -18.108122556798072 0 1 0 I I #
point $-1 -69.333170567949466 38.047865430695005 -18.108122556798072 #
edge $-1 $645 -4.4529501976351753 $712 4.4529501976351753 $629 $747 forward 7 unknown #
vertex $-1 $633 $748 #
straight-curve $-1 -69.333170567949466 -59.672070665731034 0 0 0 -1 I I #
straight-curve $-1 -69.333170567949466 0 -18.108122556798072 0 1 0 I I #
straight-curve $-1 -64.880220370314291 -59.672070665731034 18.108122556798072 1 0 0 I I #
point $-1 -69.333170567949466 -59.672070665731034 18.108122556798072 #
point $-1 -60.427270172679115 -59.672070665731034 18.108122556798072 #
straight-curve $-1 -60.427270172679115 -59.672070665731034 0 0 0 -1 I I #
point $-1 -60.427270172679115 -59.672070665731034 -18.108122556798072 #
straight-curve $-1 69.333170567949466 -2.5235403165951773 95.22843187767333 0 0 -1 I I #
point $-1 69.333170567949466 -2.5235403165951773 18.108122556798072 #
straight-curve $-1 69.333170567949466 2.0721405752307085 1.0351187212748343 0 1 0 I I #
point $-1 69.333170567949466 -2.5235403165951773 1.0351187212748272 #
point $-1 53.376581604335115 1.2866433788657403 7.5435031706070816 #
point $-1 53.376581604335115 7.0019189220571079 7.5435031706070816 #
edge $-1 $670 -69.333170567949466 $664 -39.761861015245984 $661 $749 forward 7 unknown #
straight-curve $-1 39.761861015245969 15.690021981819203 18.108122556798079 0 -1 0 I I #
point $-1 39.761861015245984 38.047865430694998 18.108122556798072 #
straight-curve $-1 69.333170567949466 38.047865430695005 0 0 0 -1 I I #
point $-1 69.333170567949466 38.047865430695005 18.108122556798072 #
point $-1 53.376581604335115 28.52240619204273 7.5435031706070816 #
point $-1 53.376581604335115 34.237681735234098 7.5435031706070816 #
straight-curve $-1 -69.333170567949466 0.86590241048306638 43.829426809195738 0 0 -1 I I #
point $-1 -69.333170567949466 0.86590241048306638 18.108122556798072 #
straight-curve $-1 -69.333170567949466 -2.5881490960663953 0.39329900634623149 0 -1 0 I I #
point $-1 -69.333170567949466 0.86590241048306638 0.39329900634623316 #
point $-1 -60.37789023846284 -8.8016185537023048 7.8071170102547116 #
point $-1 -60.37789023846284 -5.1762981921327906 7.8071170102547116 #
point $-1 -60.37789023846284 -1.5509778305632764 7.8071170102547116 #
straight-curve $-1 -69.333170567949466 32.842704029784684 43.829426809195738 0 0 -1 I I #
point $-1 -69.333170567949466 32.842704029784684 18.108122556798072 #
straight-curve $-1 -69.333170567949466 13.400251713584414 0.39329900634623149 0 -1 0 I I #
point $-1 -69.333170567949466 32.842704029784684 0.39329900634623316 #
point $-1 -60.37789023846284 23.175183065599306 7.8071170102547116 #
point $-1 -60.37789023846284 26.800503427168827 7.8071170102547116 #
point $-1 -60.37789023846284 30.425823788738334 7.8071170102547116 #
straight-curve $-1 -64.880220370314291 -59.672070665731034 -18.108122556798072 -1 0 0 I I #
point $-1 -69.333170567949466 -59.672070665731034 -18.108122556798072 #
straight-curve $-1 0 38.047865430695005 18.108122556798072 -1 0 0 I I #
End-of-ACIS-data 