500 0 3 0           
7 Unknown 11 ACIS 5.0 NT 24 Thu Mar 25 18:44:18 1999 
-1 9.9999999999999995e-007 1e-010 
body $-1 $3 $-1 $4 #
body $-1 $5 $-1 $6 #
body $-1 $7 $-1 $8 #
lump $-1 $-1 $9 $0 #
transform $-1 1 0 0 0 1 0 0 0 1 61.892757957701349 31.546285589994994 6.6217643448587165 1 rotate no_reflect no_shear #
lump $-1 $-1 $10 $1 #
transform $-1 1 0 0 0 1 0 0 0 1 61.892757957701349 31.546285589994994 6.6217643448587165 1 rotate no_reflect no_shear #
lump $-1 $-1 $11 $2 #
transform $-1 1 0 0 0 1 0 0 0 1 61.892757957701349 31.546285589994994 6.6217643448587165 1 rotate no_reflect no_shear #
shell $-1 $-1 $-1 $12 $-1 $3 #
shell $-1 $-1 $-1 $13 $-1 $5 #
shell $-1 $-1 $-1 $14 $-1 $7 #
face $-1 $15 $16 $9 $-1 $17 reversed single #
face $-1 $18 $19 $10 $-1 $20 forward single #
face $-1 $21 $22 $11 $-1 $23 forward single #
face $-1 $24 $25 $9 $-1 $26 forward single #
loop $-1 $-1 $27 $12 #
plane-surface $-1 61.892757957701349 0 0 -1 0 0 0 0 1 forward_v I I I I #
face $-1 $28 $29 $10 $-1 $30 forward single #
loop $-1 $-1 $31 $13 #
plane-surface $-1 -61.892757957701349 0 0 1 0 0 0 0 -1 forward_v I I I I #
face $-1 $32 $33 $11 $-1 $34 reversed single #
loop $-1 $-1 $35 $14 #
plane-surface $-1 61.892757957701349 0 0 -1 0 0 0 0 1 forward_v I I I I #
face $-1 $36 $37 $9 $-1 $38 reversed single #
loop $-1 $-1 $39 $15 #
plane-surface $-1 0 0 6.6217643448587165 0 0 1 1 0 0 forward_v I I I I #
coedge $-1 $40 $41 $42 $43 reversed $16 $-1 #
face $-1 $44 $45 $10 $-1 $46 reversed single #
loop $-1 $-1 $47 $18 #
plane-surface $-1 0 0 6.6217643448587165 0 0 1 1 0 0 forward_v I I I I #
coedge $-1 $48 $49 $50 $51 forward $19 $-1 #
face $-1 $52 $53 $11 $-1 $54 reversed single #
loop $-1 $-1 $55 $21 #
plane-surface $-1 0 -31.546285589994994 0 0 1 0 0 0 1 forward_v I I I I #
coedge $-1 $56 $57 $58 $59 forward $22 $-1 #
face $-1 $60 $61 $9 $-1 $62 reversed single #
loop $-1 $-1 $42 $24 #
plane-surface $-1 0 0 -6.6217643448587165 0 0 1 1 0 0 forward_v I I I I #
coedge $-1 $63 $64 $65 $66 forward $25 $-1 #
coedge $-1 $65 $27 $67 $68 reversed $16 $-1 #
coedge $-1 $27 $65 $69 $70 forward $16 $-1 #
coedge $-1 $71 $72 $27 $43 forward $37 $-1 #
edge $-1 $73 -31.546285589994994 $74 31.546285589994994 $27 $75 forward 7 unknown #
face $-1 $76 $77 $10 $-1 $78 reversed single #
loop $-1 $-1 $79 $28 #
plane-surface $-1 -68.88438079140434 -30.046285589994994 0 1 0 0 0 0 -1 forward_v I I I I #
coedge $-1 $80 $81 $48 $82 forward $29 $-1 #
coedge $-1 $83 $31 $47 $82 reversed $19 $-1 #
coedge $-1 $31 $83 $84 $85 reversed $19 $-1 #
coedge $-1 $86 $87 $31 $51 reversed $77 $-1 #
edge $-1 $88 -6.6217643448587165 $89 6.6217643448587165 $50 $90 forward 7 unknown #
face $-1 $91 $92 $11 $-1 $93 reversed single #
loop $-1 $-1 $94 $32 #
plane-surface $-1 0 0 -6.6217643448587165 0 0 1 1 0 0 forward_v I I I I #
coedge $-1 $95 $96 $97 $98 forward $33 $-1 #
coedge $-1 $97 $35 $94 $99 reversed $22 $-1 #
coedge $-1 $35 $97 $100 $101 reversed $22 $-1 #
coedge $-1 $102 $103 $35 $59 reversed $92 $-1 #
edge $-1 $104 -6.6217643448587165 $105 6.6217643448587165 $58 $106 forward 7 unknown #
face $-1 $107 $108 $9 $-1 $109 reversed single #
loop $-1 $-1 $110 $36 #
plane-surface $-1 0 -31.546285589994994 0 0 1 0 0 0 1 forward_v I I I I #
coedge $-1 $111 $39 $112 $113 forward $25 $-1 #
coedge $-1 $39 $111 $114 $115 forward $25 $-1 #
coedge $-1 $41 $40 $39 $66 reversed $16 $-1 #
edge $-1 $116 -31.546285589994994 $117 31.546285589994994 $65 $118 forward 7 unknown #
coedge $-1 $119 $112 $40 $68 forward $120 $-1 #
edge $-1 $117 -6.6217643448587165 $73 6.6217643448587165 $40 $121 forward 7 unknown #
coedge $-1 $114 $122 $41 $70 reversed $61 $-1 #
edge $-1 $116 -6.6217643448587165 $74 6.6217643448587165 $41 $123 forward 7 unknown #
coedge $-1 $124 $42 $122 $125 forward $37 $-1 #
coedge $-1 $42 $124 $119 $126 forward $37 $-1 #
vertex $-1 $43 $127 #
vertex $-1 $70 $128 #
straight-curve $-1 61.892757957701349 0 -6.6217643448587165 0 -1 0 I I #
face $-1 $129 $130 $10 $-1 $131 reversed single #
loop $-1 $-1 $50 $44 #
plane-surface $-1 -65.388569374552844 -28.546285589994994 0 0 -1 0 0 0 -1 forward_v I I I I #
coedge $-1 $132 $133 $134 $135 forward $45 $-1 #
coedge $-1 $136 $47 $87 $137 forward $29 $-1 #
coedge $-1 $47 $136 $138 $139 forward $29 $-1 #
edge $-1 $140 -31.546285589994994 $89 -28.546285589994994 $47 $141 forward 7 unknown #
coedge $-1 $49 $48 $142 $143 reversed $19 $-1 #
coedge $-1 $144 $145 $49 $85 forward $130 $-1 #
edge $-1 $88 28.546285589994994 $146 31.546285589994994 $84 $147 forward 7 unknown #
coedge $-1 $134 $50 $145 $148 reversed $77 $-1 #
coedge $-1 $50 $134 $80 $137 reversed $77 $-1 #
vertex $-1 $85 $149 #
vertex $-1 $137 $150 #
straight-curve $-1 -61.892757957701349 -28.546285589994994 0 0 0 1 I I #
face $-1 $151 $152 $11 $-1 $153 reversed single #
loop $-1 $-1 $154 $52 #
plane-surface $-1 65.388569374552844 -28.546285589994994 0 0 -1 0 0 0 -1 forward_v I I I I #
coedge $-1 $155 $156 $56 $99 forward $53 $-1 #
coedge $-1 $157 $55 $156 $158 reversed $33 $-1 #
coedge $-1 $55 $157 $159 $160 reversed $33 $-1 #
coedge $-1 $57 $56 $55 $98 reversed $22 $-1 #
edge $-1 $161 -6.6217643448587165 $162 6.6217643448587165 $55 $163 forward 7 unknown #
edge $-1 $162 -31.546285589994994 $105 -28.546285589994994 $94 $164 forward 7 unknown #
coedge $-1 $159 $165 $57 $101 forward $166 $-1 #
edge $-1 $104 28.546285589994994 $161 31.546285589994994 $100 $167 forward 7 unknown #
coedge $-1 $154 $58 $165 $168 reversed $92 $-1 #
coedge $-1 $58 $154 $155 $169 reversed $92 $-1 #
vertex $-1 $101 $170 #
vertex $-1 $169 $171 #
straight-curve $-1 61.892757957701349 -28.546285589994994 0 0 0 -1 I I #
face $-1 $-1 $120 $9 $-1 $172 reversed single #
loop $-1 $-1 $173 $60 #
plane-surface $-1 -61.892757957701349 0 0 1 0 0 0 0 -1 forward_v I I I I #
coedge $-1 $122 $114 $174 $175 forward $61 $-1 #
coedge $-1 $64 $63 $173 $176 forward $25 $-1 #
coedge $-1 $67 $177 $63 $113 reversed $120 $-1 #
edge $-1 $117 -61.892757957701349 $178 61.892757957701349 $112 $179 forward 7 unknown #
coedge $-1 $110 $69 $64 $115 reversed $61 $-1 #
edge $-1 $180 -61.892757957701349 $116 61.892757957701349 $114 $181 forward 7 unknown #
vertex $-1 $66 $182 #
vertex $-1 $66 $183 #
straight-curve $-1 61.892757957701349 0 6.6217643448587165 0 1 0 I I #
coedge $-1 $177 $67 $72 $126 reversed $120 $-1 #
loop $-1 $-1 $67 $107 #
straight-curve $-1 61.892757957701349 31.546285589994994 0 0 0 -1 I I #
coedge $-1 $69 $110 $71 $125 reversed $61 $-1 #
straight-curve $-1 61.892757957701349 -31.546285589994994 0 0 0 -1 I I #
coedge $-1 $72 $71 $184 $185 forward $37 $-1 #
edge $-1 $74 -61.892757957701349 $186 61.892757957701349 $122 $187 forward 7 unknown #
edge $-1 $188 -61.892757957701349 $73 61.892757957701349 $119 $189 forward 7 unknown #
point $-1 61.892757957701349 31.546285589994994 -6.6217643448587165 #
point $-1 61.892757957701349 -31.546285589994994 -6.6217643448587165 #
face $-1 $-1 $190 $10 $-1 $191 reversed single #
loop $-1 $-1 $84 $76 #
plane-surface $-1 0 0 -6.6217643448587165 0 0 1 1 0 0 forward_v I I I I #
coedge $-1 $192 $79 $193 $194 reversed $45 $-1 #
coedge $-1 $79 $192 $136 $195 reversed $45 $-1 #
coedge $-1 $87 $86 $79 $135 reversed $77 $-1 #
edge $-1 $196 -6.6217643448587165 $197 6.6217643448587165 $134 $198 forward 7 unknown #
coedge $-1 $81 $80 $133 $195 forward $29 $-1 #
edge $-1 $89 -3.4958114168514953 $196 3.4958114168514953 $87 $199 forward 7 unknown #
coedge $-1 $200 $142 $81 $139 reversed $190 $-1 #
edge $-1 $201 -68.88438079140434 $140 -61.892757957701349 $138 $202 forward 7 unknown #
vertex $-1 $143 $203 #
straight-curve $-1 -61.892757957701349 0 6.6217643448587165 0 1 0 I I #
coedge $-1 $138 $204 $83 $143 forward $190 $-1 #
edge $-1 $146 -6.6217643448587165 $140 6.6217643448587165 $142 $205 forward 7 unknown #
coedge $-1 $193 $84 $204 $206 forward $130 $-1 #
coedge $-1 $84 $193 $86 $148 forward $130 $-1 #
vertex $-1 $206 $207 #
straight-curve $-1 -61.892757957701349 0 -6.6217643448587165 0 -1 0 I I #
edge $-1 $197 -3.4958114168514953 $88 3.4958114168514953 $86 $208 forward 7 unknown #
point $-1 -61.892757957701349 -28.546285589994994 -6.6217643448587165 #
point $-1 -61.892757957701349 -28.546285589994994 6.6217643448587165 #
face $-1 $-1 $166 $11 $-1 $209 forward single #
loop $-1 $-1 $210 $91 #
plane-surface $-1 68.88438079140434 -30.046285589994994 0 -1 0 0 0 0 1 forward_v I I I I #
coedge $-1 $103 $102 $211 $212 forward $92 $-1 #
coedge $-1 $213 $94 $103 $169 forward $53 $-1 #
coedge $-1 $94 $213 $95 $158 forward $53 $-1 #
coedge $-1 $96 $95 $210 $214 reversed $33 $-1 #
edge $-1 $215 -3.4958114168514953 $162 3.4958114168514953 $95 $216 forward 7 unknown #
coedge $-1 $217 $100 $96 $160 forward $166 $-1 #
edge $-1 $161 -3.4958114168514953 $218 3.4958114168514953 $96 $219 forward 7 unknown #
vertex $-1 $160 $220 #
vertex $-1 $99 $221 #
straight-curve $-1 61.892757957701349 -31.546285589994994 0 0 0 -1 I I #
straight-curve $-1 61.892757957701349 0 -6.6217643448587165 0 1 0 I I #
coedge $-1 $100 $217 $102 $168 forward $166 $-1 #
loop $-1 $-1 $100 $151 #
straight-curve $-1 61.892757957701349 0 6.6217643448587165 0 -1 0 I I #
edge $-1 $222 -3.4958114168514953 $104 3.4958114168514953 $102 $223 forward 7 unknown #
edge $-1 $105 -3.4958114168514953 $224 3.4958114168514953 $103 $225 forward 7 unknown #
point $-1 61.892757957701349 -28.546285589994994 6.6217643448587165 #
point $-1 61.892757957701349 -28.546285589994994 -6.6217643448587165 #
plane-surface $-1 0 31.546285589994994 0 0 -1 0 0 0 -1 forward_v I I I I #
coedge $-1 $226 $174 $111 $176 reversed $108 $-1 #
coedge $-1 $173 $184 $110 $175 reversed $108 $-1 #
edge $-1 $180 -6.6217643448587165 $186 6.6217643448587165 $174 $227 forward 7 unknown #
edge $-1 $178 -31.546285589994994 $180 31.546285589994994 $173 $228 forward 7 unknown #
coedge $-1 $112 $119 $226 $229 reversed $120 $-1 #
vertex $-1 $113 $230 #
straight-curve $-1 0 31.546285589994994 6.6217643448587165 -1 0 0 I I #
vertex $-1 $176 $231 #
straight-curve $-1 0 -31.546285589994994 6.6217643448587165 1 0 0 I I #
point $-1 61.892757957701349 -31.546285589994994 6.6217643448587165 #
point $-1 61.892757957701349 31.546285589994994 6.6217643448587165 #
coedge $-1 $174 $226 $124 $185 reversed $108 $-1 #
edge $-1 $186 -31.546285589994994 $188 31.546285589994994 $184 $232 forward 7 unknown #
vertex $-1 $185 $233 #
straight-curve $-1 0 -31.546285589994994 -6.6217643448587165 -1 0 0 I I #
vertex $-1 $126 $234 #
straight-curve $-1 0 31.546285589994994 -6.6217643448587165 1 0 0 I I #
loop $-1 $-1 $142 $129 #
plane-surface $-1 0 -31.546285589994994 0 0 1 0 0 0 1 forward_v I I I I #
coedge $-1 $133 $132 $200 $235 reversed $45 $-1 #
coedge $-1 $145 $144 $132 $194 forward $130 $-1 #
edge $-1 $236 -1.5 $197 1.5 $132 $237 forward 7 unknown #
edge $-1 $196 -1.5 $201 1.5 $133 $238 forward 7 unknown #
vertex $-1 $137 $239 #
vertex $-1 $148 $240 #
straight-curve $-1 -68.88438079140434 -28.546285589994994 0 0 0 -1 I I #
straight-curve $-1 -65.388569374552844 -28.546285589994994 6.6217643448587165 -1 0 0 I I #
coedge $-1 $204 $138 $192 $235 forward $190 $-1 #
vertex $-1 $195 $241 #
straight-curve $-1 0 -31.546285589994994 6.6217643448587165 1 0 0 I I #
point $-1 -61.892757957701349 -31.546285589994994 6.6217643448587165 #
coedge $-1 $142 $200 $144 $206 reversed $190 $-1 #
straight-curve $-1 -61.892757957701349 -31.546285589994994 0 0 0 1 I I #
edge $-1 $146 -3.4958114168514953 $236 3.4958114168514953 $204 $242 forward 7 unknown #
point $-1 -61.892757957701349 -31.546285589994994 -6.6217643448587165 #
straight-curve $-1 -65.388569374552844 -28.546285589994994 -6.6217643448587165 1 0 0 I I #
plane-surface $-1 0 0 6.6217643448587165 0 0 1 1 0 0 forward_v I I I I #
coedge $-1 $243 $244 $157 $214 forward $152 $-1 #
coedge $-1 $244 $243 $154 $212 reversed $152 $-1 #
edge $-1 $222 -6.6217643448587165 $224 6.6217643448587165 $211 $245 forward 7 unknown #
coedge $-1 $156 $155 $243 $246 forward $53 $-1 #
edge $-1 $218 -6.6217643448587165 $215 6.6217643448587165 $210 $247 forward 7 unknown #
vertex $-1 $214 $248 #
straight-curve $-1 65.388569374552844 -31.546285589994994 -6.6217643448587165 -1 0 0 I I #
coedge $-1 $165 $159 $244 $249 forward $166 $-1 #
vertex $-1 $249 $250 #
straight-curve $-1 65.388569374552844 -31.546285589994994 6.6217643448587165 1 0 0 I I #
point $-1 61.892757957701349 -31.546285589994994 6.6217643448587165 #
point $-1 61.892757957701349 -31.546285589994994 -6.6217643448587165 #
vertex $-1 $249 $251 #
straight-curve $-1 65.388569374552844 -28.546285589994994 6.6217643448587165 -1 0 0 I I #
vertex $-1 $246 $252 #
straight-curve $-1 65.388569374552844 -28.546285589994994 -6.6217643448587165 1 0 0 I I #
coedge $-1 $184 $173 $177 $229 forward $108 $-1 #
straight-curve $-1 -61.892757957701349 -31.546285589994994 0 0 0 -1 I I #
straight-curve $-1 -61.892757957701349 0 6.6217643448587165 0 -1 0 I I #
edge $-1 $178 -6.6217643448587165 $188 6.6217643448587165 $177 $253 forward 7 unknown #
point $-1 -61.892757957701349 31.546285589994994 6.6217643448587165 #
point $-1 -61.892757957701349 -31.546285589994994 6.6217643448587165 #
straight-curve $-1 -61.892757957701349 0 -6.6217643448587165 0 1 0 I I #
point $-1 -61.892757957701349 -31.546285589994994 -6.6217643448587165 #
point $-1 -61.892757957701349 31.546285589994994 -6.6217643448587165 #
edge $-1 $201 -6.6217643448587165 $236 6.6217643448587165 $192 $254 forward 7 unknown #
vertex $-1 $194 $255 #
straight-curve $-1 -68.88438079140434 -30.046285589994994 -6.6217643448587165 0 1 0 I I #
straight-curve $-1 -68.88438079140434 -30.046285589994994 6.6217643448587165 0 -1 0 I I #
point $-1 -68.88438079140434 -28.546285589994994 6.6217643448587165 #
point $-1 -68.88438079140434 -28.546285589994994 -6.6217643448587165 #
point $-1 -68.88438079140434 -31.546285589994994 6.6217643448587165 #
straight-curve $-1 -65.388569374552844 -31.546285589994994 -6.6217643448587165 -1 0 0 I I #
coedge $-1 $211 $210 $213 $246 reversed $152 $-1 #
coedge $-1 $210 $211 $217 $249 reversed $152 $-1 #
straight-curve $-1 68.88438079140434 -28.546285589994994 0 0 0 -1 I I #
edge $-1 $224 -1.5 $215 1.5 $243 $256 forward 7 unknown #
straight-curve $-1 68.88438079140434 -31.546285589994994 0 0 0 -1 I I #
point $-1 68.88438079140434 -31.546285589994994 -6.6217643448587165 #
edge $-1 $218 -1.5 $222 1.5 $244 $257 forward 7 unknown #
point $-1 68.88438079140434 -31.546285589994994 6.6217643448587165 #
point $-1 68.88438079140434 -28.546285589994994 6.6217643448587165 #
point $-1 68.88438079140434 -28.546285589994994 -6.6217643448587165 #
straight-curve $-1 -61.892757957701349 31.546285589994994 0 0 0 -1 I I #
straight-curve $-1 -68.88438079140434 -31.546285589994994 0 0 0 -1 I I #
point $-1 -68.88438079140434 -31.546285589994994 -6.6217643448587165 #
straight-curve $-1 68.88438079140434 -30.046285589994994 -6.6217643448587165 0 -1 0 I I #
straight-curve $-1 68.88438079140434 -30.046285589994994 6.6217643448587165 0 1 0 I I #
End-of-ACIS-data 