500 0 10 0           
7 Unknown 11 ACIS 5.0 NT 24 Fri Mar 26 18:37:12 1999 
-1 9.9999999999999995e-007 1e-010 
body $-1 $10 $-1 $11 #
body $-1 $12 $-1 $13 #
body $-1 $14 $-1 $15 #
body $-1 $16 $-1 $17 #
body $-1 $18 $-1 $19 #
body $-1 $20 $-1 $21 #
body $-1 $22 $-1 $23 #
body $-1 $24 $-1 $25 #
body $-1 $26 $-1 $27 #
body $-1 $28 $-1 $29 #
lump $-1 $-1 $30 $0 #
transform $-1 1 0 0 0 1 0 0 0 1 74.979094821008943 43.128711242313742 13.054177838378353 1 rotate no_reflect no_shear #
lump $-1 $-1 $31 $1 #
transform $-1 1 0 0 0 1 0 0 0 1 74.979094821008943 43.128711242313742 13.054177838378353 1 rotate no_reflect no_shear #
lump $-1 $-1 $32 $2 #
transform $-1 1 0 0 0 1 0 0 0 1 74.979094821008943 43.128711242313742 13.054177838378353 1 rotate no_reflect no_shear #
lump $-1 $-1 $33 $3 #
transform $-1 1 0 0 0 1 0 0 0 1 74.979094821008943 43.128711242313742 13.054177838378353 1 rotate no_reflect no_shear #
lump $-1 $-1 $34 $4 #
transform $-1 1 0 0 0 1 0 0 0 1 74.979094821008943 43.128711242313742 13.054177838378353 1 rotate no_reflect no_shear #
lump $-1 $-1 $35 $5 #
transform $-1 1 0 0 0 1 0 0 0 1 74.979094821008943 43.128711242313742 13.054177838378353 1 rotate no_reflect no_shear #
lump $-1 $-1 $36 $6 #
transform $-1 1 0 0 0 1 0 0 0 1 74.979094821008943 43.128711242313742 13.054177838378353 1 rotate no_reflect no_shear #
lump $-1 $-1 $37 $7 #
transform $-1 1 0 0 0 1 0 0 0 1 74.979094821008943 43.128711242313742 13.054177838378353 1 rotate no_reflect no_shear #
lump $-1 $-1 $38 $8 #
transform $-1 1 0 0 0 1 0 0 0 1 74.979094821008943 43.128711242313742 13.054177838378353 1 rotate no_reflect no_shear #
lump $-1 $-1 $39 $9 #
transform $-1 1 0 0 0 1 0 0 0 1 74.979094821008943 43.128711242313742 13.054177838378353 1 rotate no_reflect no_shear #
shell $-1 $-1 $-1 $40 $-1 $10 #
shell $-1 $-1 $-1 $41 $-1 $12 #
shell $-1 $-1 $-1 $42 $-1 $14 #
shell $-1 $-1 $-1 $43 $-1 $16 #
shell $-1 $-1 $-1 $44 $-1 $18 #
shell $-1 $-1 $-1 $45 $-1 $20 #
shell $-1 $-1 $-1 $46 $-1 $22 #
shell $-1 $-1 $-1 $47 $-1 $24 #
shell $-1 $-1 $-1 $48 $-1 $26 #
shell $-1 $-1 $-1 $49 $-1 $28 #
face $-1 $50 $51 $30 $-1 $52 forward single #
face $-1 $53 $54 $31 $-1 $55 forward single #
face $-1 $56 $57 $32 $-1 $58 forward single #
face $-1 $59 $60 $33 $-1 $61 reversed single #
face $-1 $62 $63 $34 $-1 $64 forward single #
face $-1 $65 $66 $35 $-1 $67 forward single #
face $-1 $68 $69 $36 $-1 $70 forward single #
face $-1 $71 $72 $37 $-1 $73 reversed single #
face $-1 $74 $75 $38 $-1 $76 forward single #
face $-1 $77 $78 $39 $-1 $79 forward single #
face $-1 $80 $81 $30 $-1 $82 reversed single #
loop $-1 $-1 $83 $40 #
plane-surface $-1 0 0 13.054177838378353 0 0 1 1 0 0 forward_v I I I I #
face $-1 $84 $85 $31 $-1 $86 reversed single #
loop $-1 $-1 $87 $41 #
plane-surface $-1 0 -36.684707402264976 -10.054177838378353 0 0 1 1 0 0 forward_v I I I I #
face $-1 $88 $89 $32 $-1 $90 reversed single #
loop $-1 $-1 $91 $42 #
plane-surface $-1 0 36.684707402264976 -10.054177838378353 0 0 1 1 0 0 forward_v I I I I #
face $-1 $92 $93 $33 $-1 $94 reversed single #
loop $-1 $-1 $95 $43 #
plane-surface $-1 97.146752515449805 24.012507918102003 218.00617485857913 0 -1 0 -0.77714596973225614 0 -0.62932038083071107 forward_v I I I I #
face $-1 $96 $97 $34 $-1 $98 forward single #
loop $-1 $99 $100 $44 #
cone-surface $-1 71.873149106668208 18.005971591674708 9.5133142763695488 -0.77714596973225614 0 -0.62932038083071107 0.31466019041535553 0 -0.38857298486612807 1 I I 0 1 0.5 forward I I I I #
face $-1 $101 $102 $35 $-1 $103 forward single #
loop $-1 $104 $105 $45 #
cone-surface $-1 71.873149106668208 20.258422714084944 9.5133142763695488 -0.77714596973225614 0 -0.62932038083071107 0.31466019041535553 0 -0.38857298486612807 1 I I 0 1 0.5 forward I I I I #
face $-1 $106 $107 $36 $-1 $108 forward single #
loop $-1 $109 $110 $46 #
cone-surface $-1 71.873149106668208 22.510873836495179 9.5133142763695488 -0.77714596973225614 0 -0.62932038083071107 0.31466019041535553 0 -0.38857298486612807 1 I I 0 1 0.5 forward I I I I #
face $-1 $111 $112 $37 $-1 $113 reversed single #
loop $-1 $-1 $114 $47 #
plane-surface $-1 -202.15085323834884 3.1908623634802495 86.184574727281955 0 1 0 -0.84804810408105047 0 0.52991925155115449 forward_v I I I I #
face $-1 $115 $116 $38 $-1 $117 forward single #
loop $-1 $118 $119 $48 #
cone-surface $-1 -72.375689415475676 7.3650653772318435 9.4965750030394727 0.84804810408105047 0 -0.52991925155115449 0.26495962577557725 0 0.42402405204052523 1 I I 0 1 0.5 forward I I I I #
face $-1 $120 $121 $39 $-1 $122 forward single #
loop $-1 $123 $124 $49 #
cone-surface $-1 -72.375689415475676 13.626369897859234 9.4965750030394727 0.84804810408105047 0 -0.52991925155115449 0.26495962577557725 0 0.42402405204052523 1 I I 0 1 0.5 forward I I I I #
face $-1 $125 $126 $30 $-1 $127 reversed single #
loop $-1 $-1 $128 $50 #
plane-surface $-1 0 0 -13.054177838378353 0 0 1 1 0 0 forward_v I I I I #
coedge $-1 $129 $130 $131 $132 forward $51 $-1 #
face $-1 $133 $134 $31 $-1 $135 reversed single #
loop $-1 $-1 $136 $53 #
plane-surface $-1 0 -30.240703562216211 -11.554177838378353 0 -1 0 0 0 -1 forward_v I I I I #
coedge $-1 $137 $138 $139 $140 reversed $54 $-1 #
face $-1 $141 $142 $32 $-1 $143 reversed single #
loop $-1 $-1 $144 $56 #
plane-surface $-1 0 30.240703562216211 -11.554177838378353 0 1 0 0 0 1 forward_v I I I I #
coedge $-1 $145 $146 $147 $148 reversed $57 $-1 #
face $-1 $149 $150 $33 $-1 $151 reversed single #
loop $-1 $-1 $152 $59 #
plane-surface $-1 -19.392650193189752 20.258422714084944 123.63442984438045 0.77714596973225614 0 0.62932038083071107 0.62932038083071107 0 -0.77714596973225614 forward_v I I I I #
coedge $-1 $153 $154 $155 $156 reversed $60 $-1 #
face $-1 $-1 $157 $34 $-1 $158 forward single #
loop $-1 $159 $160 $62 #
cone-surface $-1 70.985729380221272 18.005971591674708 8.7946959704717766 -0.77714596973225614 0 -0.62932038083071107 0.15733009520767777 0 -0.19428649243306403 1 I I -0.70710678118654746 0.70710678118654746 0.25 forward I I I I #
loop $-1 $-1 $161 $44 #
coedge $-1 $100 $100 $162 $163 reversed $63 $-1 #
face $-1 $-1 $164 $35 $-1 $165 forward single #
loop $-1 $166 $167 $65 #
cone-surface $-1 70.985729380221272 20.258422714084944 8.7946959704717766 -0.77714596973225614 0 -0.62932038083071107 0.15733009520767777 0 -0.19428649243306403 1 I I -0.70710678118654746 0.70710678118654746 0.25 forward I I I I #
loop $-1 $-1 $168 $45 #
coedge $-1 $105 $105 $169 $170 reversed $66 $-1 #
face $-1 $-1 $171 $36 $-1 $172 forward single #
loop $-1 $173 $174 $68 #
cone-surface $-1 70.985729380221272 22.510873836495179 8.7946959704717766 -0.77714596973225614 0 -0.62932038083071107 0.15733009520767777 0 -0.19428649243306403 1 I I -0.70710678118654746 0.70710678118654746 0.25 forward I I I I #
loop $-1 $-1 $175 $46 #
coedge $-1 $110 $110 $176 $177 reversed $69 $-1 #
face $-1 $178 $179 $37 $-1 $180 reversed single #
loop $-1 $-1 $181 $71 #
plane-surface $-1 -74.979094821008957 10.495717637545546 6.7188431082177544 -0.84804810408105047 0 0.52991925155115449 0.52991925155115449 0 0.84804810408105047 forward_v I I I I #
coedge $-1 $182 $183 $184 $185 reversed $72 $-1 #
face $-1 $-1 $186 $38 $-1 $187 forward single #
loop $-1 $188 $189 $74 #
cone-surface $-1 -71.539650171537261 7.3650653772318435 8.9741597198931071 0.84804810408105047 0 -0.52991925155115449 0.13247981288778862 0 0.21201202602026262 1 I I -0.70710678118654746 0.70710678118654746 0.25 forward I I I I #
loop $-1 $-1 $190 $48 #
coedge $-1 $119 $119 $191 $192 reversed $75 $-1 #
face $-1 $-1 $193 $39 $-1 $194 forward single #
loop $-1 $195 $196 $77 #
cone-surface $-1 -71.539650171537261 13.626369897859234 8.9741597198931071 0.84804810408105047 0 -0.52991925155115449 0.13247981288778862 0 0.21201202602026262 1 I I -0.70710678118654746 0.70710678118654746 0.25 forward I I I I #
loop $-1 $-1 $197 $49 #
coedge $-1 $124 $124 $198 $199 reversed $78 $-1 #
face $-1 $200 $201 $30 $-1 $202 reversed single #
loop $-1 $-1 $203 $80 #
plane-surface $-1 0 -43.128711242313742 0 0 1 0 0 0 1 forward_v I I I I #
coedge $-1 $204 $205 $206 $207 forward $81 $-1 #
coedge $-1 $208 $83 $209 $210 forward $51 $-1 #
coedge $-1 $83 $208 $211 $212 forward $51 $-1 #
coedge $-1 $213 $214 $83 $132 reversed $215 $-1 #
edge $-1 $216 -43.128711242313742 $217 43.128711242313742 $131 $218 forward 7 unknown #
face $-1 $219 $220 $31 $-1 $221 reversed single #
loop $-1 $-1 $222 $84 #
plane-surface $-1 0 0 -13.054177838378353 0 0 1 1 0 0 forward_v I I I I #
coedge $-1 $223 $224 $225 $226 reversed $85 $-1 #
coedge $-1 $227 $87 $224 $228 forward $54 $-1 #
coedge $-1 $87 $227 $229 $230 reversed $54 $-1 #
coedge $-1 $231 $225 $87 $140 forward $220 $-1 #
edge $-1 $232 11.898349861083723 $233 24.786357541181253 $139 $234 forward 7 unknown #
face $-1 $235 $236 $32 $-1 $237 reversed single #
loop $-1 $-1 $147 $88 #
plane-surface $-1 74.979094821008943 0 0 -1 0 0 0 0 1 forward_v I I I I #
coedge $-1 $238 $239 $240 $241 reversed $89 $-1 #
coedge $-1 $242 $91 $243 $244 reversed $57 $-1 #
coedge $-1 $91 $242 $239 $245 forward $57 $-1 #
coedge $-1 $246 $247 $91 $148 forward $142 $-1 #
edge $-1 $248 -24.786357541181253 $249 -11.898349861083723 $147 $250 forward 7 unknown #
face $-1 $251 $252 $33 $-1 $253 forward single #
loop $-1 $-1 $254 $92 #
plane-surface $-1 97.146752515449805 16.504337510067884 218.00617485857913 0 1 0 0.77714596973225614 0 0.62932038083071107 forward_v I I I I #
coedge $-1 $255 $256 $257 $258 reversed $93 $-1 #
coedge $-1 $154 $95 $259 $260 reversed $60 $-1 #
coedge $-1 $95 $153 $255 $261 reversed $60 $-1 #
coedge $-1 $257 $262 $95 $156 forward $252 $-1 #
edge $-1 $263 -26.40571856328404 $264 -21.580093602630313 $155 $265 forward 7 unknown #
loop $-1 $-1 $162 $96 #
plane-surface $-1 -19.392650193189752 20.258422714084944 123.63442984438045 0.77714596973225614 0 0.62932038083071107 0.62932038083071107 0 -0.77714596973225614 forward_v I I I I #
loop $-1 $-1 $266 $62 #
coedge $-1 $160 $160 $161 $267 reversed $97 $-1 #
coedge $-1 $161 $161 $160 $267 forward $99 $-1 #
coedge $-1 $162 $162 $100 $163 forward $157 $-1 #
edge $-1 $268 0 $268 6.2831853071796004 $162 $269 forward 7 unknown #
loop $-1 $-1 $169 $101 #
plane-surface $-1 -19.392650193189752 20.258422714084944 123.63442984438045 0.77714596973225614 0 0.62932038083071107 0.62932038083071107 0 -0.77714596973225614 forward_v I I I I #
loop $-1 $-1 $270 $65 #
coedge $-1 $167 $167 $168 $271 reversed $102 $-1 #
coedge $-1 $168 $168 $167 $271 forward $104 $-1 #
coedge $-1 $169 $169 $105 $170 forward $164 $-1 #
edge $-1 $272 0 $272 6.2831853071796004 $169 $273 forward 7 unknown #
loop $-1 $-1 $176 $106 #
plane-surface $-1 -19.392650193189752 20.258422714084944 123.63442984438045 0.77714596973225614 0 0.62932038083071107 0.62932038083071107 0 -0.77714596973225614 forward_v I I I I #
loop $-1 $-1 $274 $68 #
coedge $-1 $174 $174 $175 $275 reversed $107 $-1 #
coedge $-1 $175 $175 $174 $275 forward $109 $-1 #
coedge $-1 $176 $176 $110 $177 forward $171 $-1 #
edge $-1 $276 0 $276 6.2831853071796004 $176 $277 forward 7 unknown #
face $-1 $278 $279 $37 $-1 $280 reversed single #
loop $-1 $-1 $281 $111 #
plane-surface $-1 -202.15085323834884 17.800572911610843 86.184574727281955 0 -1 0 0.84804810408105047 0 -0.52991925155115449 forward_v I I I I #
coedge $-1 $282 $283 $284 $285 reversed $112 $-1 #
coedge $-1 $183 $114 $286 $287 reversed $72 $-1 #
coedge $-1 $114 $182 $282 $288 reversed $72 $-1 #
coedge $-1 $284 $289 $114 $185 forward $290 $-1 #
edge $-1 $291 26.09633179816548 $292 30.05508817339566 $184 $293 forward 7 unknown #
loop $-1 $-1 $191 $115 #
plane-surface $-1 -74.979094821008957 10.495717637545546 6.7188431082177544 -0.84804810408105047 0 0.52991925155115449 0.52991925155115449 0 0.84804810408105047 forward_v I I I I #
loop $-1 $-1 $294 $74 #
coedge $-1 $189 $189 $190 $295 reversed $116 $-1 #
coedge $-1 $190 $190 $189 $295 forward $118 $-1 #
coedge $-1 $191 $191 $119 $192 forward $186 $-1 #
edge $-1 $296 0 $296 6.2831853071796004 $191 $297 forward 7 unknown #
loop $-1 $-1 $198 $120 #
plane-surface $-1 -74.979094821008957 10.495717637545546 6.7188431082177544 -0.84804810408105047 0 0.52991925155115449 0.52991925155115449 0 0.84804810408105047 forward_v I I I I #
loop $-1 $-1 $298 $77 #
coedge $-1 $196 $196 $197 $299 reversed $121 $-1 #
coedge $-1 $197 $197 $196 $299 forward $123 $-1 #
coedge $-1 $198 $198 $124 $199 forward $193 $-1 #
edge $-1 $300 0 $300 6.2831853071796004 $198 $301 forward 7 unknown #
face $-1 $302 $303 $30 $-1 $304 reversed single #
loop $-1 $-1 $305 $125 #
plane-surface $-1 -74.979094821008943 0 0 1 0 0 0 0 -1 forward_v I I I I #
coedge $-1 $306 $211 $307 $308 forward $126 $-1 #
coedge $-1 $309 $128 $306 $310 forward $81 $-1 #
coedge $-1 $128 $309 $311 $312 forward $81 $-1 #
coedge $-1 $214 $213 $128 $207 reversed $215 $-1 #
edge $-1 $313 -43.128711242313742 $314 43.128711242313742 $206 $315 forward 7 unknown #
coedge $-1 $130 $129 $316 $317 forward $51 $-1 #
coedge $-1 $318 $319 $129 $210 reversed $303 $-1 #
edge $-1 $217 -74.979094821008943 $320 74.979094821008943 $209 $321 forward 7 unknown #
coedge $-1 $203 $322 $130 $212 reversed $126 $-1 #
edge $-1 $323 -74.979094821008943 $216 74.979094821008943 $211 $324 forward 7 unknown #
coedge $-1 $206 $131 $322 $325 forward $215 $-1 #
coedge $-1 $131 $206 $318 $326 reversed $215 $-1 #
loop $-1 $-1 $213 $302 #
vertex $-1 $132 $327 #
vertex $-1 $132 $328 #
straight-curve $-1 74.979094821008943 0 13.054177838378353 0 1 0 I I #
face $-1 $329 $330 $31 $-1 $331 reversed single #
loop $-1 $-1 $225 $133 #
plane-surface $-1 74.979094821008943 0 0 -1 0 0 0 0 1 forward_v I I I I #
coedge $-1 $332 $333 $223 $334 forward $134 $-1 #
coedge $-1 $335 $136 $222 $334 reversed $85 $-1 #
coedge $-1 $136 $335 $137 $228 reversed $85 $-1 #
coedge $-1 $139 $336 $136 $226 forward $220 $-1 #
edge $-1 $337 -7.2770889191891763 $232 -4.2770889191891763 $225 $338 forward 7 unknown #
coedge $-1 $138 $137 $339 $340 reversed $54 $-1 #
edge $-1 $232 -74.979094821008943 $341 74.979094821008943 $224 $342 forward 7 unknown #
coedge $-1 $343 $344 $138 $230 forward $330 $-1 #
edge $-1 $233 -74.979094821008943 $345 74.979094821008943 $229 $346 forward 7 unknown #
coedge $-1 $336 $139 $344 $347 forward $220 $-1 #
vertex $-1 $140 $348 #
vertex $-1 $347 $349 #
straight-curve $-1 74.979094821008943 -18.342353701132488 -10.054177838378353 0 -1 0 I I #
face $-1 $350 $351 $32 $-1 $352 reversed single #
loop $-1 $-1 $353 $141 #
plane-surface $-1 0 0 -13.054177838378353 0 0 1 1 0 0 forward_v I I I I #
coedge $-1 $354 $144 $353 $355 reversed $89 $-1 #
coedge $-1 $144 $354 $146 $245 reversed $89 $-1 #
coedge $-1 $356 $357 $144 $241 forward $351 $-1 #
edge $-1 $358 -7.2770889191891763 $359 -4.2770889191891763 $240 $360 forward 7 unknown #
coedge $-1 $146 $145 $356 $361 reversed $57 $-1 #
coedge $-1 $362 $363 $145 $244 forward $364 $-1 #
edge $-1 $365 -74.979094821008943 $248 74.979094821008943 $243 $366 forward 7 unknown #
edge $-1 $359 -74.979094821008943 $249 74.979094821008943 $239 $367 forward 7 unknown #
coedge $-1 $368 $147 $354 $369 forward $142 $-1 #
coedge $-1 $147 $368 $362 $370 reversed $142 $-1 #
vertex $-1 $370 $371 #
vertex $-1 $148 $372 #
straight-curve $-1 74.979094821008943 18.342353701132488 -10.054177838378353 0 -1 0 I I #
face $-1 $-1 $373 $33 $-1 $374 reversed single #
loop $-1 $-1 $155 $149 #
plane-surface $-1 0 0 13.054177838378353 0 0 1 1 0 0 forward_v I I I I #
coedge $-1 $375 $376 $377 $378 reversed $150 $-1 #
coedge $-1 $379 $152 $154 $261 forward $93 $-1 #
coedge $-1 $152 $379 $375 $380 forward $93 $-1 #
coedge $-1 $377 $155 $152 $258 forward $252 $-1 #
edge $-1 $264 -13.883296561059531 $381 -6.3751261530254126 $257 $382 forward 7 unknown #
coedge $-1 $383 $384 $153 $260 forward $373 $-1 #
edge $-1 $385 -101.90806029354867 $263 -95.948909590911214 $259 $386 forward 7 unknown #
edge $-1 $264 142.29019555245125 $385 149.95818964201789 $154 $387 forward 7 unknown #
coedge $-1 $155 $377 $383 $388 forward $252 $-1 #
vertex $-1 $260 $389 #
vertex $-1 $156 $390 #
straight-curve $-1 48.573376257724902 24.012507918102003 13.054177838378351 -1 0 0 I I #
coedge $-1 $266 $266 $-1 $391 reversed $159 $-1 #
edge $-1 $392 0 $392 6.2831853071796004 $160 $393 forward 7 unknown #
vertex $-1 $163 $394 #
ellipse-curve $-1 72.566282340682079 18.005971591674708 10.074602487059632 0.77714596973225614 0 0.62932038083071107 0.31466019041535553 0 -0.38857298486612807 1 I I #
coedge $-1 $270 $270 $-1 $395 reversed $166 $-1 #
edge $-1 $396 0 $396 6.2831853071796004 $167 $397 forward 7 unknown #
vertex $-1 $170 $398 #
ellipse-curve $-1 72.566282340682079 20.258422714084944 10.074602487059632 0.77714596973225614 0 0.62932038083071107 0.31466019041535553 0 -0.38857298486612807 1 I I #
coedge $-1 $274 $274 $-1 $399 reversed $173 $-1 #
edge $-1 $400 0 $400 6.2831853071796004 $174 $401 forward 7 unknown #
vertex $-1 $177 $402 #
ellipse-curve $-1 72.566282340682079 22.510873836495179 10.074602487059632 0.77714596973225614 0 0.62932038083071107 0.31466019041535553 0 -0.38857298486612807 1 I I #
face $-1 $-1 $290 $37 $-1 $403 forward single #
loop $-1 $-1 $404 $178 #
plane-surface $-1 -74.979094821008943 0 0 1 0 0 0 0 -1 forward_v I I I I #
coedge $-1 $405 $406 $407 $408 reversed $179 $-1 #
coedge $-1 $409 $181 $183 $288 forward $112 $-1 #
coedge $-1 $181 $409 $405 $410 forward $112 $-1 #
coedge $-1 $407 $184 $181 $285 forward $290 $-1 #
edge $-1 $292 -2.0569964552925235 $411 12.55271409283807 $284 $412 forward 7 unknown #
coedge $-1 $413 $414 $182 $287 forward $279 $-1 #
edge $-1 $415 -36.373444255423202 $291 -30.038109525262627 $286 $416 forward 7 unknown #
edge $-1 $292 -7.4704898220668756 $415 -2.7114274142304302e-014 $183 $417 forward 7 unknown #
coedge $-1 $184 $407 $413 $418 forward $290 $-1 #
loop $-1 $-1 $407 $278 #
vertex $-1 $287 $419 #
vertex $-1 $185 $420 #
straight-curve $-1 -101.07542661917442 3.1908623634802495 13.054177838378351 1 0 0 I I #
coedge $-1 $294 $294 $-1 $421 reversed $188 $-1 #
edge $-1 $422 0 $422 6.2831853071796004 $189 $423 forward 7 unknown #
vertex $-1 $192 $424 #
ellipse-curve $-1 -72.999716633393859 7.3650653772318435 9.8865104732980615 -0.84804810408105047 0 0.52991925155115449 0.26495962577557725 0 0.42402405204052523 1 I I #
coedge $-1 $298 $298 $-1 $425 reversed $195 $-1 #
edge $-1 $426 0 $426 6.2831853071796004 $196 $427 forward 7 unknown #
vertex $-1 $199 $428 #
ellipse-curve $-1 -72.999716633393859 13.626369897859234 9.8865104732980615 -0.84804810408105047 0 0.52991925155115449 0.26495962577557725 0 0.42402405204052523 1 I I #
face $-1 $-1 $215 $30 $-1 $429 reversed single #
loop $-1 $-1 $318 $200 #
plane-surface $-1 0 43.128711242313742 0 0 -1 0 0 0 -1 forward_v I I I I #
coedge $-1 $430 $316 $319 $431 forward $201 $-1 #
coedge $-1 $322 $203 $204 $310 reversed $126 $-1 #
coedge $-1 $316 $430 $203 $308 reversed $201 $-1 #
edge $-1 $323 -13.054177838378353 $432 13.054177838378353 $307 $433 forward 7 unknown #
coedge $-1 $205 $204 $430 $434 forward $81 $-1 #
edge $-1 $314 -74.979094821008943 $432 74.979094821008943 $306 $435 forward 7 unknown #
coedge $-1 $319 $318 $205 $312 reversed $303 $-1 #
edge $-1 $436 -74.979094821008943 $313 74.979094821008943 $311 $437 forward 7 unknown #
vertex $-1 $207 $438 #
vertex $-1 $325 $439 #
straight-curve $-1 74.979094821008943 0 -13.054177838378353 0 -1 0 I I #
coedge $-1 $305 $307 $208 $317 reversed $201 $-1 #
edge $-1 $320 -43.128711242313742 $323 43.128711242313742 $316 $440 forward 7 unknown #
coedge $-1 $311 $209 $214 $326 forward $303 $-1 #
coedge $-1 $209 $311 $305 $431 reversed $303 $-1 #
vertex $-1 $210 $441 #
straight-curve $-1 0 43.128711242313742 13.054177838378353 -1 0 0 I I #
coedge $-1 $211 $306 $213 $325 reversed $126 $-1 #
vertex $-1 $317 $442 #
straight-curve $-1 0 -43.128711242313742 13.054177838378353 1 0 0 I I #
edge $-1 $216 -13.054177838378353 $314 13.054177838378353 $213 $443 forward 7 unknown #
edge $-1 $217 -13.054177838378353 $313 13.054177838378353 $214 $444 forward 7 unknown #
point $-1 74.979094821008943 -43.128711242313742 13.054177838378353 #
point $-1 74.979094821008943 43.128711242313742 13.054177838378353 #
face $-1 $-1 $445 $31 $-1 $446 reversed single #
loop $-1 $-1 $229 $219 #
plane-surface $-1 0 -43.128711242313742 0 0 1 0 0 0 1 forward_v I I I I #
coedge $-1 $447 $222 $336 $448 forward $134 $-1 #
coedge $-1 $222 $447 $449 $450 forward $134 $-1 #
edge $-1 $451 -74.979094821008943 $337 74.979094821008943 $222 $452 forward 7 unknown #
coedge $-1 $224 $223 $453 $454 reversed $85 $-1 #
coedge $-1 $225 $231 $332 $448 reversed $220 $-1 #
vertex $-1 $448 $455 #
straight-curve $-1 74.979094821008943 -30.240703562216211 -5.7770889191891763 0 0 1 I I #
coedge $-1 $453 $456 $227 $340 forward $445 $-1 #
edge $-1 $345 -24.786357541181253 $341 -11.898349861083723 $339 $457 forward 7 unknown #
vertex $-1 $340 $458 #
straight-curve $-1 0 -30.240703562216211 -10.054177838378353 -1 0 0 I I #
coedge $-1 $459 $229 $456 $460 forward $330 $-1 #
coedge $-1 $229 $459 $231 $347 reversed $330 $-1 #
vertex $-1 $460 $461 #
straight-curve $-1 0 -43.128711242313742 -10.054177838378353 -1 0 0 I I #
edge $-1 $233 10.054177838378353 $462 13.054177838378353 $231 $463 forward 7 unknown #
point $-1 74.979094821008943 -30.240703562216211 -10.054177838378353 #
point $-1 74.979094821008943 -43.128711242313742 -10.054177838378353 #
face $-1 $-1 $364 $32 $-1 $464 reversed single #
loop $-1 $-1 $356 $235 #
plane-surface $-1 -74.979094821008943 0 0 1 0 0 0 0 -1 forward_v I I I I #
coedge $-1 $465 $466 $238 $355 forward $236 $-1 #
coedge $-1 $239 $238 $246 $369 reversed $89 $-1 #
edge $-1 $467 -74.979094821008943 $358 74.979094821008943 $353 $468 forward 7 unknown #
coedge $-1 $469 $240 $242 $361 forward $351 $-1 #
coedge $-1 $240 $469 $465 $470 reversed $351 $-1 #
vertex $-1 $470 $471 #
vertex $-1 $361 $472 #
straight-curve $-1 -74.979094821008943 30.240703562216211 -5.7770889191891763 0 0 1 I I #
edge $-1 $359 11.898349861083723 $365 24.786357541181253 $356 $473 forward 7 unknown #
coedge $-1 $474 $243 $247 $370 forward $364 $-1 #
coedge $-1 $243 $474 $469 $475 reversed $364 $-1 #
loop $-1 $-1 $243 $350 #
vertex $-1 $475 $476 #
straight-curve $-1 0 43.128711242313742 -10.054177838378353 1 0 0 I I #
straight-curve $-1 0 30.240703562216211 -10.054177838378353 1 0 0 I I #
coedge $-1 $247 $246 $466 $477 reversed $142 $-1 #
edge $-1 $249 4.2770889191891763 $467 7.2770889191891763 $246 $478 forward 7 unknown #
edge $-1 $248 10.054177838378353 $479 13.054177838378353 $247 $480 forward 7 unknown #
point $-1 74.979094821008943 43.128711242313742 -10.054177838378353 #
point $-1 74.979094821008943 30.240703562216211 -10.054177838378353 #
loop $-1 $-1 $259 $251 #
plane-surface $-1 74.979094821008943 0 0 -1 0 0 0 0 1 forward_v I I I I #
coedge $-1 $376 $254 $256 $380 reversed $150 $-1 #
coedge $-1 $254 $375 $481 $482 reversed $150 $-1 #
coedge $-1 $262 $257 $254 $378 forward $252 $-1 #
edge $-1 $381 21.580093602630313 $483 26.40571856328404 $377 $484 forward 7 unknown #
coedge $-1 $256 $255 $384 $485 reversed $93 $-1 #
edge $-1 $486 -149.95818964201789 $381 -142.29019555245125 $375 $487 forward 7 unknown #
vertex $-1 $258 $488 #
straight-curve $-1 70.15346986035523 10.129211357042472 13.054177838378351 0 -1 0 I I #
coedge $-1 $481 $259 $262 $388 reversed $373 $-1 #
coedge $-1 $259 $481 $379 $485 forward $373 $-1 #
vertex $-1 $260 $489 #
straight-curve $-1 74.979094821008943 24.012507918102003 109.00308742928956 0 0 1 I I #
straight-curve $-1 -19.392650193189752 24.012507918102003 123.63442984438045 0.62932038083071107 0 -0.77714596973225614 I I #
edge $-1 $483 16.504337510067884 $263 24.012507918102003 $383 $490 forward 7 unknown #
point $-1 74.979094821008943 24.012507918102003 13.054177838378353 #
point $-1 70.153469860355216 24.012507918102003 13.054177838378365 #
edge $-1 $491 1 $491 0 $266 $-1 forward 7 unknown #
vertex $-1 $267 $492 #
ellipse-curve $-1 71.180015872654337 18.005971591674708 8.9520260656794548 0.77714596973225614 0 0.62932038083071107 0.31466019041535553 0 -0.38857298486612807 1 I I #
point $-1 72.880942531097446 18.005971591674708 9.6860295021935148 #
edge $-1 $493 1 $493 0 $270 $-1 forward 7 unknown #
vertex $-1 $271 $494 #
ellipse-curve $-1 71.180015872654337 20.258422714084944 8.9520260656794548 0.77714596973225614 0 0.62932038083071107 0.31466019041535553 0 -0.38857298486612807 1 I I #
point $-1 72.880942531097446 20.258422714084944 9.6860295021935148 #
edge $-1 $495 1 $495 0 $274 $-1 forward 7 unknown #
vertex $-1 $275 $496 #
ellipse-curve $-1 71.180015872654337 22.510873836495179 8.9520260656794548 0.77714596973225614 0 0.62932038083071107 0.31466019041535553 0 -0.38857298486612807 1 I I #
point $-1 72.880942531097446 22.510873836495179 9.6860295021935148 #
plane-surface $-1 0 0 13.054177838378353 0 0 1 1 0 0 forward_v I I I I #
coedge $-1 $414 $413 $406 $497 forward $279 $-1 #
coedge $-1 $406 $281 $283 $410 reversed $179 $-1 #
coedge $-1 $281 $405 $404 $497 reversed $179 $-1 #
coedge $-1 $289 $284 $281 $408 forward $290 $-1 #
edge $-1 $411 -30.05508817339566 $498 -26.09633179816548 $407 $499 forward 7 unknown #
coedge $-1 $283 $282 $414 $500 reversed $112 $-1 #
edge $-1 $501 2.7114274142304302e-014 $411 7.4704898220668756 $405 $502 forward 7 unknown #
vertex $-1 $285 $503 #
straight-curve $-1 -71.020338445778762 5.247858818772773 13.054177838378354 0 1 0 I I #
coedge $-1 $404 $286 $289 $418 reversed $279 $-1 #
coedge $-1 $286 $404 $409 $500 forward $279 $-1 #
vertex $-1 $287 $504 #
straight-curve $-1 -74.979094821008943 3.1908623634802495 43.092287363640978 0 0 1 I I #
straight-curve $-1 -74.979094821008957 3.1908623634802495 6.7188431082177544 -0.52991925155115449 0 -0.84804810408105047 I I #
edge $-1 $498 -17.800572911610843 $291 -3.1908623634802495 $413 $505 forward 7 unknown #
point $-1 -74.979094821008943 3.1908623634802495 13.054177838378353 #
point $-1 -71.020338445778762 3.1908623634802495 13.054177838378353 #
edge $-1 $506 1 $506 0 $294 $-1 forward 7 unknown #
vertex $-1 $295 $507 #
ellipse-curve $-1 -71.751662197557522 7.3650653772318435 9.1066395327808962 -0.84804810408105047 0 0.52991925155115449 0.26495962577557725 0 0.42402405204052523 1 I I #
point $-1 -72.734757007618256 7.3650653772318435 10.310534525338575 #
edge $-1 $508 1 $508 0 $298 $-1 forward 7 unknown #
vertex $-1 $299 $509 #
ellipse-curve $-1 -71.751662197557522 13.626369897859234 9.1066395327808962 -0.84804810408105047 0 0.52991925155115449 0.26495962577557725 0 0.42402405204052523 1 I I #
point $-1 -72.734757007618256 13.626369897859234 10.310534525338575 #
plane-surface $-1 74.979094821008943 0 0 -1 0 0 0 0 1 forward_v I I I I #
coedge $-1 $307 $305 $309 $434 reversed $201 $-1 #
edge $-1 $320 -13.054177838378353 $436 13.054177838378353 $319 $510 forward 7 unknown #
vertex $-1 $434 $511 #
straight-curve $-1 -74.979094821008943 -43.128711242313742 0 0 0 -1 I I #
edge $-1 $432 -43.128711242313742 $436 43.128711242313742 $430 $512 forward 7 unknown #
straight-curve $-1 0 -43.128711242313742 -13.054177838378353 -1 0 0 I I #
vertex $-1 $312 $513 #
straight-curve $-1 0 43.128711242313742 -13.054177838378353 1 0 0 I I #
point $-1 74.979094821008943 43.128711242313742 -13.054177838378353 #
point $-1 74.979094821008943 -43.128711242313742 -13.054177838378353 #
straight-curve $-1 -74.979094821008943 0 13.054177838378353 0 -1 0 I I #
point $-1 -74.979094821008943 43.128711242313742 13.054177838378353 #
point $-1 -74.979094821008943 -43.128711242313742 13.054177838378353 #
straight-curve $-1 74.979094821008943 -43.128711242313742 0 0 0 -1 I I #
straight-curve $-1 74.979094821008943 43.128711242313742 0 0 0 -1 I I #
loop $-1 $-1 $453 $329 #
plane-surface $-1 -74.979094821008943 0 0 1 0 0 0 0 -1 forward_v I I I I #
coedge $-1 $333 $332 $459 $514 forward $134 $-1 #
edge $-1 $337 30.240703562216211 $462 43.128711242313742 $336 $515 forward 7 unknown #
coedge $-1 $456 $453 $333 $450 reversed $445 $-1 #
edge $-1 $516 -43.128711242313742 $451 -30.240703562216211 $449 $517 forward 7 unknown #
vertex $-1 $454 $518 #
straight-curve $-1 0 -30.240703562216211 -13.054177838378353 1 0 0 I I #
coedge $-1 $449 $339 $335 $454 forward $445 $-1 #
edge $-1 $341 4.2770889191891763 $451 7.2770889191891763 $453 $519 forward 7 unknown #
point $-1 74.979094821008943 -30.240703562216211 -13.054177838378353 #
coedge $-1 $339 $449 $343 $460 reversed $445 $-1 #
straight-curve $-1 -74.979094821008943 -18.342353701132488 -10.054177838378353 0 1 0 I I #
point $-1 -74.979094821008943 -30.240703562216211 -10.054177838378353 #
coedge $-1 $344 $343 $447 $514 reversed $330 $-1 #
edge $-1 $345 10.054177838378353 $516 13.054177838378353 $456 $520 forward 7 unknown #
point $-1 -74.979094821008943 -43.128711242313742 -10.054177838378353 #
vertex $-1 $347 $521 #
straight-curve $-1 74.979094821008943 -43.128711242313742 0 0 0 -1 I I #
plane-surface $-1 0 43.128711242313742 0 0 -1 0 0 0 -1 forward_v I I I I #
coedge $-1 $522 $353 $357 $470 forward $236 $-1 #
coedge $-1 $353 $522 $368 $477 forward $236 $-1 #
vertex $-1 $355 $523 #
straight-curve $-1 0 30.240703562216211 -13.054177838378353 -1 0 0 I I #
coedge $-1 $357 $356 $363 $475 forward $351 $-1 #
edge $-1 $358 30.240703562216211 $524 43.128711242313742 $357 $525 forward 7 unknown #
point $-1 -74.979094821008943 30.240703562216211 -13.054177838378353 #
point $-1 -74.979094821008943 30.240703562216211 -10.054177838378353 #
straight-curve $-1 -74.979094821008943 18.342353701132488 -10.054177838378353 0 1 0 I I #
coedge $-1 $363 $362 $522 $526 reversed $364 $-1 #
edge $-1 $365 10.054177838378353 $524 13.054177838378353 $363 $527 forward 7 unknown #
point $-1 -74.979094821008943 43.128711242313742 -10.054177838378353 #
edge $-1 $479 -43.128711242313742 $467 -30.240703562216211 $368 $528 forward 7 unknown #
straight-curve $-1 74.979094821008943 30.240703562216211 -5.7770889191891763 0 0 -1 I I #
vertex $-1 $477 $529 #
straight-curve $-1 74.979094821008943 43.128711242313742 0 0 0 -1 I I #
coedge $-1 $384 $383 $376 $482 forward $373 $-1 #
edge $-1 $483 95.948909590911214 $486 101.90806029354867 $481 $530 forward 7 unknown #
vertex $-1 $388 $531 #
straight-curve $-1 48.573376257724902 16.504337510067884 13.054177838378351 1 0 0 I I #
edge $-1 $486 6.3751261530254126 $385 13.883296561059531 $384 $532 forward 7 unknown #
vertex $-1 $485 $533 #
straight-curve $-1 -19.392650193189752 16.504337510067884 123.63442984438045 -0.62932038083071107 0 0.77714596973225614 I I #
point $-1 70.153469860355216 16.504337510067884 13.054177838378365 #
point $-1 74.979094821008928 24.012507918102003 7.0950271357408923 #
straight-curve $-1 74.979094821008943 0 13.054177838378353 0 1 0 I I #
vertex $-1 $391 $534 #
point $-1 71.49467606306969 18.005971591674708 8.5634530808133267 #
vertex $-1 $395 $535 #
point $-1 71.49467606306969 20.258422714084944 8.5634530808133267 #
vertex $-1 $399 $536 #
point $-1 71.49467606306969 22.510873836495179 8.5634530808133267 #
edge $-1 $498 30.038109525262627 $501 36.373444255423202 $404 $537 forward 7 unknown #
vertex $-1 $418 $538 #
straight-curve $-1 -101.07542661917442 17.800572911610843 13.054177838378351 -1 0 0 I I #
edge $-1 $501 -12.55271409283807 $415 2.0569964552925235 $414 $539 forward 7 unknown #
vertex $-1 $500 $540 #
straight-curve $-1 -74.979094821008957 17.800572911610843 6.7188431082177544 0.52991925155115449 0 0.84804810408105047 I I #
point $-1 -71.020338445778762 17.800572911610843 13.054177838378353 #
point $-1 -74.979094821008943 3.1908623634802495 6.7188431082177775 #
straight-curve $-1 -74.979094821008943 0 13.054177838378353 0 -1 0 I I #
vertex $-1 $421 $541 #
point $-1 -71.486702571781947 7.3650653772318435 9.5306635848214203 #
vertex $-1 $425 $542 #
point $-1 -71.486702571781947 13.626369897859234 9.5306635848214203 #
straight-curve $-1 -74.979094821008943 43.128711242313742 0 0 0 -1 I I #
point $-1 -74.979094821008943 -43.128711242313742 -13.054177838378353 #
straight-curve $-1 -74.979094821008943 0 -13.054177838378353 0 1 0 I I #
point $-1 -74.979094821008943 43.128711242313742 -13.054177838378353 #
edge $-1 $462 -74.979094821008943 $516 74.979094821008943 $459 $543 forward 7 unknown #
straight-curve $-1 74.979094821008943 0 -13.054177838378353 0 -1 0 I I #
vertex $-1 $450 $544 #
straight-curve $-1 -74.979094821008943 0 -13.054177838378353 0 1 0 I I #
point $-1 -74.979094821008943 -30.240703562216211 -13.054177838378353 #
straight-curve $-1 -74.979094821008943 -30.240703562216211 -5.7770889191891763 0 0 -1 I I #
straight-curve $-1 -74.979094821008943 -43.128711242313742 0 0 0 -1 I I #
point $-1 74.979094821008943 -43.128711242313742 -13.054177838378353 #
coedge $-1 $466 $465 $474 $526 forward $236 $-1 #
point $-1 74.979094821008943 30.240703562216211 -13.054177838378353 #
vertex $-1 $526 $545 #
straight-curve $-1 -74.979094821008943 0 -13.054177838378353 0 1 0 I I #
edge $-1 $524 -74.979094821008943 $479 74.979094821008943 $474 $546 forward 7 unknown #
straight-curve $-1 -74.979094821008943 43.128711242313742 0 0 0 -1 I I #
straight-curve $-1 74.979094821008943 0 -13.054177838378353 0 -1 0 I I #
point $-1 74.979094821008943 43.128711242313742 -13.054177838378353 #
straight-curve $-1 74.979094821008943 16.504337510067884 109.00308742928956 0 0 -1 I I #
point $-1 74.979094821008943 16.504337510067884 13.054177838378353 #
straight-curve $-1 74.979094821008943 10.129211357042472 7.0950271357408852 0 1 0 I I #
point $-1 74.979094821008928 16.504337510067884 7.0950271357408923 #
point $-1 70.791442887788207 18.005971591674708 8.6373658752640985 #
point $-1 70.791442887788207 20.258422714084944 8.6373658752640985 #
point $-1 70.791442887788207 22.510873836495179 8.6373658752640985 #
straight-curve $-1 -74.979094821008943 17.800572911610843 43.092287363640978 0 0 -1 I I #
point $-1 -74.979094821008943 17.800572911610843 13.054177838378353 #
straight-curve $-1 -74.979094821008943 5.247858818772773 6.7188431082177562 0 -1 0 I I #
point $-1 -74.979094821008943 17.800572911610843 6.7188431082177775 #
point $-1 -71.327638145517 7.3650653772318435 8.841679907005318 #
point $-1 -71.327638145517 13.626369897859234 8.841679907005318 #
straight-curve $-1 0 -43.128711242313742 -13.054177838378353 -1 0 0 I I #
point $-1 -74.979094821008943 -43.128711242313742 -13.054177838378353 #
point $-1 -74.979094821008943 43.128711242313742 -13.054177838378353 #
straight-curve $-1 0 43.128711242313742 -13.054177838378353 1 0 0 I I #
End-of-ACIS-data 