500 0 3 0           
7 Unknown 11 ACIS 5.0 NT 24 Thu Mar 25 18:30:53 1999 
-1 9.9999999999999995e-007 1e-010 
body $-1 $3 $-1 $4 #
body $-1 $5 $-1 $6 #
body $-1 $7 $-1 $8 #
lump $-1 $-1 $9 $0 #
transform $-1 1 0 0 0 1 0 0 0 1 67.510605182042909 33.78538330746354 15.990084623873877 1 rotate no_reflect no_shear #
lump $-1 $-1 $10 $1 #
transform $-1 1 0 0 0 1 0 0 0 1 67.510605182042909 33.78538330746354 15.990084623873877 1 rotate no_reflect no_shear #
lump $-1 $-1 $11 $2 #
transform $-1 1 0 0 0 1 0 0 0 1 67.510605182042909 33.78538330746354 15.990084623873877 1 rotate no_reflect no_shear #
shell $-1 $-1 $-1 $12 $-1 $3 #
shell $-1 $-1 $-1 $13 $-1 $5 #
shell $-1 $-1 $-1 $14 $-1 $7 #
face $-1 $15 $16 $9 $-1 $17 forward single #
face $-1 $18 $19 $10 $-1 $20 reversed single #
face $-1 $21 $22 $11 $-1 $23 forward single #
face $-1 $24 $25 $9 $-1 $26 reversed single #
loop $-1 $-1 $27 $12 #
plane-surface $-1 0 0 15.990084623873877 0 0 1 1 0 0 forward_v I I I I #
face $-1 $28 $29 $10 $-1 $30 reversed single #
loop $-1 $-1 $31 $13 #
plane-surface $-1 -166.25886829481499 4.8940337600014239 102.55218878156563 0 1 0 -0.73135370988377701 0 0.68199835119979291 forward_v I I I I #
face $-1 $32 $33 $11 $-1 $34 forward single #
loop $-1 $35 $36 $14 #
cone-surface $-1 -63.513267733607798 10.848208783214098 11.902420568605955 0.73135370988377701 0 -0.68199835119979291 0.68199835119979291 0 0.73135370988377701 1 I I 0 1 1 forward I I I I #
face $-1 $37 $38 $9 $-1 $39 reversed single #
loop $-1 $-1 $40 $15 #
plane-surface $-1 0 0 -15.990084623873877 0 0 1 1 0 0 forward_v I I I I #
coedge $-1 $41 $42 $43 $44 forward $16 $-1 #
face $-1 $45 $46 $10 $-1 $47 reversed single #
loop $-1 $-1 $48 $18 #
plane-surface $-1 -67.510605182042937 10.848208783214098 10.467945936258715 -0.73135370988377701 0 0.68199835119979291 0.68199835119979291 0 0.73135370988377701 forward_v I I I I #
coedge $-1 $49 $50 $51 $52 reversed $19 $-1 #
face $-1 $-1 $53 $11 $-1 $54 forward single #
loop $-1 $55 $56 $21 #
cone-surface $-1 -61.724992184648684 10.848208783214098 10.234826681545709 0.73135370988377701 0 -0.68199835119979291 0.34099917559989645 0 0.36567685494188851 1 I I -0.70710678118654746 0.70710678118654746 0.5 forward I I I I #
loop $-1 $-1 $57 $14 #
coedge $-1 $36 $36 $58 $59 reversed $22 $-1 #
face $-1 $60 $61 $9 $-1 $62 reversed single #
loop $-1 $-1 $63 $24 #
plane-surface $-1 0 -33.78538330746354 0 0 1 0 0 0 1 forward_v I I I I #
coedge $-1 $64 $65 $66 $67 forward $25 $-1 #
coedge $-1 $68 $27 $69 $70 forward $16 $-1 #
coedge $-1 $27 $68 $71 $72 forward $16 $-1 #
coedge $-1 $73 $74 $27 $44 reversed $75 $-1 #
edge $-1 $76 -33.78538330746354 $77 33.78538330746354 $43 $78 forward 7 unknown #
face $-1 $79 $80 $10 $-1 $81 reversed single #
loop $-1 $-1 $82 $28 #
plane-surface $-1 -166.25886829481499 16.802383806426771 102.55218878156563 0 -1 0 0.73135370988377701 0 -0.68199835119979291 forward_v I I I I #
coedge $-1 $83 $84 $85 $86 reversed $29 $-1 #
coedge $-1 $50 $31 $87 $88 reversed $19 $-1 #
coedge $-1 $31 $49 $83 $89 reversed $19 $-1 #
coedge $-1 $85 $90 $31 $52 forward $91 $-1 #
edge $-1 $92 15.618828965364585 $93 20.768306474200351 $51 $94 forward 7 unknown #
loop $-1 $-1 $58 $32 #
plane-surface $-1 -67.510605182042937 10.848208783214098 10.467945936258715 -0.73135370988377701 0 0.68199835119979291 0.68199835119979291 0 0.73135370988377701 forward_v I I I I #
loop $-1 $-1 $95 $21 #
coedge $-1 $56 $56 $57 $96 reversed $33 $-1 #
coedge $-1 $57 $57 $56 $96 forward $35 $-1 #
coedge $-1 $58 $58 $36 $59 forward $53 $-1 #
edge $-1 $97 0 $97 6.2831853071796004 $58 $98 forward 7 unknown #
face $-1 $99 $100 $9 $-1 $101 reversed single #
loop $-1 $-1 $102 $37 #
plane-surface $-1 -67.510605182042909 0 0 1 0 0 0 0 -1 forward_v I I I I #
coedge $-1 $103 $71 $104 $105 forward $38 $-1 #
coedge $-1 $106 $40 $103 $107 forward $25 $-1 #
coedge $-1 $40 $106 $108 $109 forward $25 $-1 #
coedge $-1 $74 $73 $40 $67 reversed $75 $-1 #
edge $-1 $110 -33.78538330746354 $111 33.78538330746354 $66 $112 forward 7 unknown #
coedge $-1 $42 $41 $113 $114 forward $16 $-1 #
coedge $-1 $115 $116 $41 $70 reversed $100 $-1 #
edge $-1 $77 -67.510605182042909 $117 67.510605182042909 $69 $118 forward 7 unknown #
coedge $-1 $63 $119 $42 $72 reversed $38 $-1 #
edge $-1 $120 -67.510605182042909 $76 67.510605182042909 $71 $121 forward 7 unknown #
coedge $-1 $66 $43 $119 $122 forward $75 $-1 #
coedge $-1 $43 $66 $115 $123 reversed $75 $-1 #
loop $-1 $-1 $73 $99 #
vertex $-1 $44 $124 #
vertex $-1 $44 $125 #
straight-curve $-1 67.510605182042909 0 15.990084623873877 0 1 0 I I #
face $-1 $-1 $91 $10 $-1 $126 forward single #
loop $-1 $-1 $127 $45 #
plane-surface $-1 -67.510605182042909 0 0 1 0 0 0 0 -1 forward_v I I I I #
coedge $-1 $128 $129 $130 $131 reversed $46 $-1 #
coedge $-1 $132 $48 $50 $89 forward $29 $-1 #
coedge $-1 $48 $132 $128 $133 forward $29 $-1 #
coedge $-1 $130 $51 $48 $86 forward $91 $-1 #
edge $-1 $93 -0.53007063160562495 $134 11.378279414819723 $85 $135 forward 7 unknown #
coedge $-1 $136 $137 $49 $88 forward $80 $-1 #
edge $-1 $138 -40.808148454524073 $92 -35.28600976690894 $87 $139 forward 7 unknown #
edge $-1 $93 -7.5505717862465076 $138 -4.1469026767552634e-014 $50 $140 forward 7 unknown #
coedge $-1 $51 $130 $136 $141 forward $91 $-1 #
loop $-1 $-1 $130 $79 #
vertex $-1 $88 $142 #
vertex $-1 $52 $143 #
straight-curve $-1 -83.129434147407494 4.8940337600014239 15.990084623873877 1 0 0 I I #
coedge $-1 $95 $95 $-1 $144 reversed $55 $-1 #
edge $-1 $145 0 $145 6.2831853071796004 $56 $146 forward 7 unknown #
vertex $-1 $59 $147 #
ellipse-curve $-1 -64.935866427625029 10.848208783214098 13.22901528006631 -0.73135370988377701 0 0.68199835119979291 0.68199835119979291 0 0.73135370988377701 1 I I #
face $-1 $-1 $75 $9 $-1 $148 reversed single #
loop $-1 $-1 $115 $60 #
plane-surface $-1 0 33.78538330746354 0 0 -1 0 0 0 -1 forward_v I I I I #
coedge $-1 $149 $113 $116 $150 forward $61 $-1 #
coedge $-1 $119 $63 $64 $107 reversed $38 $-1 #
coedge $-1 $113 $149 $63 $105 reversed $61 $-1 #
edge $-1 $120 -15.990084623873877 $151 15.990084623873877 $104 $152 forward 7 unknown #
coedge $-1 $65 $64 $149 $153 forward $25 $-1 #
edge $-1 $111 -67.510605182042909 $151 67.510605182042909 $103 $154 forward 7 unknown #
coedge $-1 $116 $115 $65 $109 reversed $100 $-1 #
edge $-1 $155 -67.510605182042909 $110 67.510605182042909 $108 $156 forward 7 unknown #
vertex $-1 $67 $157 #
vertex $-1 $122 $158 #
straight-curve $-1 67.510605182042909 0 -15.990084623873877 0 -1 0 I I #
coedge $-1 $102 $104 $68 $114 reversed $61 $-1 #
edge $-1 $117 -33.78538330746354 $120 33.78538330746354 $113 $159 forward 7 unknown #
coedge $-1 $108 $69 $74 $123 forward $100 $-1 #
coedge $-1 $69 $108 $102 $150 reversed $100 $-1 #
vertex $-1 $70 $160 #
straight-curve $-1 0 33.78538330746354 15.990084623873877 -1 0 0 I I #
coedge $-1 $71 $103 $73 $122 reversed $38 $-1 #
vertex $-1 $114 $161 #
straight-curve $-1 0 -33.78538330746354 15.990084623873877 1 0 0 I I #
edge $-1 $76 -15.990084623873877 $111 15.990084623873877 $73 $162 forward 7 unknown #
edge $-1 $77 -15.990084623873877 $110 15.990084623873877 $74 $163 forward 7 unknown #
point $-1 67.510605182042909 -33.78538330746354 15.990084623873877 #
point $-1 67.510605182042909 33.78538330746354 15.990084623873877 #
plane-surface $-1 0 0 15.990084623873877 0 0 1 1 0 0 forward_v I I I I #
coedge $-1 $137 $136 $129 $164 forward $80 $-1 #
coedge $-1 $129 $82 $84 $133 reversed $46 $-1 #
coedge $-1 $82 $128 $127 $164 reversed $46 $-1 #
coedge $-1 $90 $85 $82 $131 forward $91 $-1 #
edge $-1 $134 -20.768306474200351 $165 -15.618828965364585 $130 $166 forward 7 unknown #
coedge $-1 $84 $83 $137 $167 reversed $29 $-1 #
edge $-1 $168 4.1469026767552634e-014 $134 7.5505717862465076 $128 $169 forward 7 unknown #
vertex $-1 $86 $170 #
straight-curve $-1 -62.36112767320715 5.4241043916070488 15.990084623873875 0 1 0 I I #
coedge $-1 $127 $87 $90 $141 reversed $80 $-1 #
coedge $-1 $87 $127 $132 $167 forward $80 $-1 #
vertex $-1 $88 $171 #
straight-curve $-1 -67.510605182042909 4.8940337600014239 51.276094390782816 0 0 1 I I #
straight-curve $-1 -67.510605182042937 4.8940337600014239 10.467945936258715 -0.68199835119979291 0 -0.73135370988377701 I I #
edge $-1 $165 -16.802383806426771 $92 -4.8940337600014239 $136 $172 forward 7 unknown #
point $-1 -67.510605182042909 4.8940337600014239 15.990084623873877 #
point $-1 -62.361127673207143 4.8940337600014239 15.990084623873877 #
edge $-1 $173 1 $173 0 $95 $-1 forward 7 unknown #
vertex $-1 $96 $174 #
ellipse-curve $-1 -62.090669039590573 10.848208783214098 10.575825857145606 -0.73135370988377701 0 0.68199835119979291 0.68199835119979291 0 0.73135370988377701 1 I I #
point $-1 -64.253868076425221 10.848208783214098 13.960368989950078 #
plane-surface $-1 67.510605182042909 0 0 -1 0 0 0 0 1 forward_v I I I I #
coedge $-1 $104 $102 $106 $153 reversed $61 $-1 #
edge $-1 $117 -15.990084623873877 $155 15.990084623873877 $116 $175 forward 7 unknown #
vertex $-1 $153 $176 #
straight-curve $-1 -67.510605182042909 -33.78538330746354 0 0 0 -1 I I #
edge $-1 $151 -33.78538330746354 $155 33.78538330746354 $149 $177 forward 7 unknown #
straight-curve $-1 0 -33.78538330746354 -15.990084623873877 -1 0 0 I I #
vertex $-1 $109 $178 #
straight-curve $-1 0 33.78538330746354 -15.990084623873877 1 0 0 I I #
point $-1 67.510605182042909 33.78538330746354 -15.990084623873877 #
point $-1 67.510605182042909 -33.78538330746354 -15.990084623873877 #
straight-curve $-1 -67.510605182042909 0 15.990084623873877 0 -1 0 I I #
point $-1 -67.510605182042909 33.78538330746354 15.990084623873877 #
point $-1 -67.510605182042909 -33.78538330746354 15.990084623873877 #
straight-curve $-1 67.510605182042909 -33.78538330746354 0 0 0 -1 I I #
straight-curve $-1 67.510605182042909 33.78538330746354 0 0 0 -1 I I #
edge $-1 $165 35.28600976690894 $168 40.808148454524073 $127 $179 forward 7 unknown #
vertex $-1 $141 $180 #
straight-curve $-1 -83.129434147407494 16.802383806426771 15.990084623873877 -1 0 0 I I #
edge $-1 $168 -11.378279414819723 $138 0.53007063160562495 $137 $181 forward 7 unknown #
vertex $-1 $167 $182 #
straight-curve $-1 -67.510605182042937 16.802383806426771 10.467945936258715 0.68199835119979291 0 0.73135370988377701 I I #
point $-1 -62.361127673207143 16.802383806426771 15.990084623873877 #
point $-1 -67.510605182042909 4.8940337600014239 10.467945936258745 #
straight-curve $-1 -67.510605182042909 0 15.990084623873877 0 -1 0 I I #
vertex $-1 $144 $183 #
point $-1 -61.408670688390778 10.848208783214098 11.307179567029383 #
straight-curve $-1 -67.510605182042909 33.78538330746354 0 0 0 -1 I I #
point $-1 -67.510605182042909 -33.78538330746354 -15.990084623873877 #
straight-curve $-1 -67.510605182042909 0 -15.990084623873877 0 1 0 I I #
point $-1 -67.510605182042909 33.78538330746354 -15.990084623873877 #
straight-curve $-1 -67.510605182042909 16.802383806426771 51.276094390782816 0 0 -1 I I #
point $-1 -67.510605182042909 16.802383806426771 15.990084623873877 #
straight-curve $-1 -67.510605182042909 5.4241043916070488 10.46794593625874 0 -1 0 I I #
point $-1 -67.510605182042909 16.802383806426771 10.467945936258745 #
point $-1 -61.359315329706796 10.848208783214098 9.8938275059458114 #
End-of-ACIS-data 