500 0 10 0           
7 Unknown 11 ACIS 5.0 NT 24 Fri Mar 26 18:09:42 1999 
-1 9.9999999999999995e-007 1e-010 
body $-1 $10 $-1 $11 #
body $-1 $12 $-1 $13 #
body $-1 $14 $-1 $15 #
body $-1 $16 $-1 $17 #
body $-1 $18 $-1 $19 #
body $-1 $20 $-1 $21 #
body $-1 $22 $-1 $23 #
body $-1 $24 $-1 $25 #
body $-1 $26 $-1 $27 #
body $-1 $28 $-1 $29 #
lump $-1 $-1 $30 $0 #
transform $-1 1 0 0 0 1 0 0 0 1 51.297952208014159 33.366760606557449 13.062699312871434 1 rotate no_reflect no_shear #
lump $-1 $-1 $31 $1 #
transform $-1 1 0 0 0 1 0 0 0 1 51.297952208014159 33.366760606557449 13.062699312871434 1 rotate no_reflect no_shear #
lump $-1 $-1 $32 $2 #
transform $-1 1 0 0 0 1 0 0 0 1 51.297952208014159 33.366760606557449 13.062699312871434 1 rotate no_reflect no_shear #
lump $-1 $-1 $33 $3 #
transform $-1 1 0 0 0 1 0 0 0 1 51.297952208014159 33.366760606557449 13.062699312871434 1 rotate no_reflect no_shear #
lump $-1 $-1 $34 $4 #
transform $-1 1 0 0 0 1 0 0 0 1 51.297952208014159 33.366760606557449 13.062699312871434 1 rotate no_reflect no_shear #
lump $-1 $-1 $35 $5 #
transform $-1 1 0 0 0 1 0 0 0 1 51.297952208014159 33.366760606557449 13.062699312871434 1 rotate no_reflect no_shear #
lump $-1 $-1 $36 $6 #
transform $-1 1 0 0 0 1 0 0 0 1 51.297952208014159 33.366760606557449 13.062699312871434 1 rotate no_reflect no_shear #
lump $-1 $-1 $37 $7 #
transform $-1 1 0 0 0 1 0 0 0 1 51.297952208014159 33.366760606557449 13.062699312871434 1 rotate no_reflect no_shear #
lump $-1 $-1 $38 $8 #
transform $-1 1 0 0 0 1 0 0 0 1 51.297952208014159 33.366760606557449 13.062699312871434 1 rotate no_reflect no_shear #
lump $-1 $-1 $39 $9 #
transform $-1 1 0 0 0 1 0 0 0 1 51.297952208014159 33.366760606557449 13.062699312871434 1 rotate no_reflect no_shear #
shell $-1 $-1 $-1 $40 $-1 $10 #
shell $-1 $-1 $-1 $41 $-1 $12 #
shell $-1 $-1 $-1 $42 $-1 $14 #
shell $-1 $-1 $-1 $43 $-1 $16 #
shell $-1 $-1 $-1 $44 $-1 $18 #
shell $-1 $-1 $-1 $45 $-1 $20 #
shell $-1 $-1 $-1 $46 $-1 $22 #
shell $-1 $-1 $-1 $47 $-1 $24 #
shell $-1 $-1 $-1 $48 $-1 $26 #
shell $-1 $-1 $-1 $49 $-1 $28 #
face $-1 $50 $51 $30 $-1 $52 forward single #
face $-1 $53 $54 $31 $-1 $55 forward single #
face $-1 $56 $57 $32 $-1 $58 reversed single #
face $-1 $59 $60 $33 $-1 $61 forward single #
face $-1 $62 $63 $34 $-1 $64 reversed single #
face $-1 $65 $66 $35 $-1 $67 forward single #
face $-1 $68 $69 $36 $-1 $70 forward single #
face $-1 $71 $72 $37 $-1 $73 reversed single #
face $-1 $74 $75 $38 $-1 $76 forward single #
face $-1 $77 $78 $39 $-1 $79 forward single #
face $-1 $80 $81 $30 $-1 $82 reversed single #
loop $-1 $-1 $83 $40 #
plane-surface $-1 0 0 13.062699312871434 0 0 1 1 0 0 forward_v I I I I #
face $-1 $84 $85 $31 $-1 $86 reversed single #
loop $-1 $-1 $87 $41 #
plane-surface $-1 0 -24.850755301688672 -4.7338545748351137 0 0 1 1 0 0 forward_v I I I I #
face $-1 $88 $89 $32 $-1 $90 reversed single #
loop $-1 $-1 $91 $42 #
plane-surface $-1 -118.60692245612685 -16.334749996819895 86.475085847247499 0 1 0 -0.6560590369687036 0 0.75470957328743171 forward_v I I I I #
face $-1 $92 $93 $33 $-1 $94 forward single #
loop $-1 $95 $96 $43 #
cone-surface $-1 -48.401608862789494 -11.027935996925645 10.380397954187622 0.6560590369687036 0 -0.75470957328743171 0.75470957328743171 0 0.6560590369687036 1 I I 0 1 1 forward I I I I #
face $-1 $97 $98 $34 $-1 $99 reversed single #
loop $-1 $-1 $100 $44 #
plane-surface $-1 38.652307397257296 8.5160053048687683 148.13038120915533 0 -1 0 -0.64278761758704617 0 -0.76604443648966558 forward_v I I I I #
face $-1 $101 $102 $35 $-1 $103 forward single #
loop $-1 $104 $105 $45 #
cone-surface $-1 44.654849496979317 -0.07787106431516122 7.1363384134093426 -0.64278761758704617 0 -0.76604443648966558 0.76604443648966558 0 -0.64278761758704617 1 I I 0 1 1 forward I I I I #
face $-1 $106 $107 $36 $-1 $108 forward single #
loop $-1 $109 $110 $46 #
cone-surface $-1 44.654849496979317 5.0784547571952032 7.1363384134093426 -0.64278761758704617 0 -0.76604443648966558 0.76604443648966558 0 -0.64278761758704617 1 I I 0 1 1 forward I I I I #
face $-1 $111 $112 $37 $-1 $113 reversed single #
loop $-1 $-1 $114 $47 #
plane-surface $-1 -27.295069576509853 27.351047148128686 69.537359424631333 0.64278761758704617 0 0.76604443648966558 0.76604443648966558 0 -0.64278761758704617 forward_v I I I I #
face $-1 $115 $116 $38 $-1 $117 forward single #
loop $-1 $118 $119 $48 #
cone-surface $-1 44.654849496979317 24.772884237373511 7.1363384134093426 -0.64278761758704617 0 -0.76604443648966558 0.76604443648966558 0 -0.64278761758704617 1 I I 0 1 1 forward I I I I #
face $-1 $120 $121 $39 $-1 $122 forward single #
loop $-1 $123 $124 $49 #
cone-surface $-1 44.654849496979317 29.929210058883875 7.1363384134093426 -0.64278761758704617 0 -0.76604443648966558 0.76604443648966558 0 -0.64278761758704617 1 I I 0 1 1 forward I I I I #
face $-1 $125 $126 $30 $-1 $127 reversed single #
loop $-1 $-1 $128 $50 #
plane-surface $-1 0 0 -13.062699312871434 0 0 1 1 0 0 forward_v I I I I #
coedge $-1 $129 $130 $131 $132 forward $51 $-1 #
face $-1 $133 $134 $31 $-1 $135 reversed single #
loop $-1 $-1 $136 $53 #
plane-surface $-1 0 -24.850755301688672 -8.8073820298594647 0 0 1 1 0 0 forward_v I I I I #
coedge $-1 $137 $138 $139 $140 reversed $54 $-1 #
face $-1 $141 $142 $32 $-1 $143 reversed single #
loop $-1 $-1 $144 $56 #
plane-surface $-1 -51.297952208014152 -11.027935996925642 9.0449746043886421 -0.6560590369687036 0 0.75470957328743171 0.75470957328743171 0 0.6560590369687036 forward_v I I I I #
coedge $-1 $145 $146 $147 $148 reversed $57 $-1 #
face $-1 $-1 $149 $33 $-1 $150 forward single #
loop $-1 $151 $152 $59 #
cone-surface $-1 -47.48816773651653 -11.027935996925645 9.329604163101493 0.6560590369687036 0 -0.75470957328743171 0.37735478664371586 0 0.3280295184843518 1 I I -0.70710678118654746 0.70710678118654746 0.5 forward I I I I #
loop $-1 $-1 $153 $43 #
coedge $-1 $96 $96 $154 $155 reversed $60 $-1 #
face $-1 $156 $157 $34 $-1 $158 reversed single #
loop $-1 $-1 $159 $62 #
plane-surface $-1 -27.295069576509853 2.5002918464400139 69.537359424631333 0.64278761758704617 0 0.76604443648966558 0.76604443648966558 0 -0.64278761758704617 forward_v I I I I #
coedge $-1 $160 $161 $162 $163 reversed $63 $-1 #
face $-1 $-1 $164 $35 $-1 $165 forward single #
loop $-1 $166 $167 $65 #
cone-surface $-1 43.334925034888052 -0.07787106431516122 5.5633137267060384 -0.64278761758704617 0 -0.76604443648966558 0.38302221824483279 0 -0.32139380879352308 1 I I -0.70710678118654746 0.70710678118654746 0.5 forward I I I I #
loop $-1 $-1 $168 $45 #
coedge $-1 $105 $105 $169 $170 reversed $66 $-1 #
face $-1 $-1 $171 $36 $-1 $172 forward single #
loop $-1 $173 $174 $68 #
cone-surface $-1 43.334925034888052 5.0784547571952032 5.5633137267060384 -0.64278761758704617 0 -0.76604443648966558 0.38302221824483279 0 -0.32139380879352308 1 I I -0.70710678118654746 0.70710678118654746 0.5 forward I I I I #
loop $-1 $-1 $175 $46 #
coedge $-1 $110 $110 $176 $177 reversed $69 $-1 #
face $-1 $178 $179 $37 $-1 $180 reversed single #
loop $-1 $-1 $181 $71 #
plane-surface $-1 38.652307397257296 21.335333689699929 148.13038120915533 0 1 0 0.64278761758704617 0 0.76604443648966558 forward_v I I I I #
coedge $-1 $182 $183 $184 $185 reversed $72 $-1 #
face $-1 $-1 $186 $38 $-1 $187 forward single #
loop $-1 $188 $189 $74 #
cone-surface $-1 43.334925034888052 24.772884237373511 5.5633137267060384 -0.64278761758704617 0 -0.76604443648966558 0.38302221824483279 0 -0.32139380879352308 1 I I -0.70710678118654746 0.70710678118654746 0.5 forward I I I I #
loop $-1 $-1 $190 $48 #
coedge $-1 $119 $119 $191 $192 reversed $75 $-1 #
face $-1 $-1 $193 $39 $-1 $194 forward single #
loop $-1 $195 $196 $77 #
cone-surface $-1 43.334925034888052 29.929210058883875 5.5633137267060384 -0.64278761758704617 0 -0.76604443648966558 0.38302221824483279 0 -0.32139380879352308 1 I I -0.70710678118654746 0.70710678118654746 0.5 forward I I I I #
loop $-1 $-1 $197 $49 #
coedge $-1 $124 $124 $198 $199 reversed $78 $-1 #
face $-1 $200 $201 $30 $-1 $202 reversed single #
loop $-1 $-1 $203 $80 #
plane-surface $-1 0 -33.366760606557449 0 0 1 0 0 0 1 forward_v I I I I #
coedge $-1 $204 $205 $206 $207 forward $81 $-1 #
coedge $-1 $208 $83 $209 $210 forward $51 $-1 #
coedge $-1 $83 $208 $211 $212 forward $51 $-1 #
coedge $-1 $213 $214 $83 $132 reversed $215 $-1 #
edge $-1 $216 -33.366760606557449 $217 33.366760606557449 $131 $218 forward 7 unknown #
face $-1 $219 $220 $31 $-1 $221 reversed single #
loop $-1 $-1 $222 $84 #
plane-surface $-1 0 -16.334749996819895 -6.7706183023472892 0 -1 0 0 0 -1 forward_v I I I I #
coedge $-1 $223 $224 $225 $226 reversed $85 $-1 #
coedge $-1 $227 $87 $228 $229 forward $54 $-1 #
coedge $-1 $87 $227 $230 $231 reversed $54 $-1 #
coedge $-1 $232 $233 $87 $140 forward $234 $-1 #
edge $-1 $235 3.9093723459755587 $236 20.941382955713113 $139 $237 forward 7 unknown #
face $-1 $238 $239 $32 $-1 $240 reversed single #
loop $-1 $-1 $241 $88 #
plane-surface $-1 -118.60692245612685 -5.7211219970313874 86.475085847247499 0 -1 0 0.6560590369687036 0 -0.75470957328743171 forward_v I I I I #
coedge $-1 $242 $243 $244 $245 reversed $89 $-1 #
coedge $-1 $146 $91 $246 $247 reversed $57 $-1 #
coedge $-1 $91 $145 $242 $248 reversed $57 $-1 #
coedge $-1 $244 $249 $91 $148 forward $250 $-1 #
edge $-1 $251 8.0055090200492671 $252 12.627372494921381 $147 $253 forward 7 unknown #
loop $-1 $-1 $154 $92 #
plane-surface $-1 -51.297952208014152 -11.027935996925642 9.0449746043886421 -0.6560590369687036 0 0.75470957328743171 0.75470957328743171 0 0.6560590369687036 forward_v I I I I #
loop $-1 $-1 $254 $59 #
coedge $-1 $152 $152 $153 $255 reversed $93 $-1 #
coedge $-1 $153 $153 $152 $255 forward $95 $-1 #
coedge $-1 $154 $154 $96 $155 forward $149 $-1 #
edge $-1 $256 0 $256 6.2831853071796004 $154 $257 forward 7 unknown #
face $-1 $258 $259 $34 $-1 $260 forward single #
loop $-1 $-1 $261 $97 #
plane-surface $-1 38.652307397257296 -3.5154216119887405 148.13038120915533 0 1 0 0.64278761758704617 0 0.76604443648966558 forward_v I I I I #
coedge $-1 $262 $263 $264 $265 reversed $98 $-1 #
coedge $-1 $161 $100 $266 $267 reversed $63 $-1 #
coedge $-1 $100 $160 $262 $268 reversed $63 $-1 #
coedge $-1 $264 $269 $100 $163 forward $259 $-1 #
edge $-1 $270 -31.971798509385511 $271 -20.682654393911282 $162 $272 forward 7 unknown #
loop $-1 $-1 $169 $101 #
plane-surface $-1 -27.295069576509853 2.5002918464400139 69.537359424631333 0.64278761758704617 0 0.76604443648966558 0.76604443648966558 0 -0.64278761758704617 forward_v I I I I #
loop $-1 $-1 $273 $65 #
coedge $-1 $167 $167 $168 $274 reversed $102 $-1 #
coedge $-1 $168 $168 $167 $274 forward $104 $-1 #
coedge $-1 $169 $169 $105 $170 forward $164 $-1 #
edge $-1 $275 0 $275 6.2831853071796004 $169 $276 forward 7 unknown #
loop $-1 $-1 $176 $106 #
plane-surface $-1 -27.295069576509853 2.5002918464400139 69.537359424631333 0.64278761758704617 0 0.76604443648966558 0.76604443648966558 0 -0.64278761758704617 forward_v I I I I #
loop $-1 $-1 $277 $68 #
coedge $-1 $174 $174 $175 $278 reversed $107 $-1 #
coedge $-1 $175 $175 $174 $278 forward $109 $-1 #
coedge $-1 $176 $176 $110 $177 forward $171 $-1 #
edge $-1 $279 0 $279 6.2831853071796004 $176 $280 forward 7 unknown #
face $-1 $281 $282 $37 $-1 $283 forward single #
loop $-1 $-1 $284 $111 #
plane-surface $-1 51.297952208014159 0 0 -1 0 0 0 0 1 forward_v I I I I #
coedge $-1 $285 $286 $287 $288 reversed $112 $-1 #
coedge $-1 $289 $114 $290 $291 reversed $72 $-1 #
coedge $-1 $114 $289 $285 $292 forward $72 $-1 #
coedge $-1 $287 $293 $114 $185 forward $282 $-1 #
edge $-1 $294 -19.691237032493099 $295 -7.6598101156355867 $184 $296 forward 7 unknown #
loop $-1 $-1 $191 $115 #
plane-surface $-1 -27.295069576509853 27.351047148128686 69.537359424631333 0.64278761758704617 0 0.76604443648966558 0.76604443648966558 0 -0.64278761758704617 forward_v I I I I #
loop $-1 $-1 $297 $74 #
coedge $-1 $189 $189 $190 $298 reversed $116 $-1 #
coedge $-1 $190 $190 $189 $298 forward $118 $-1 #
coedge $-1 $191 $191 $119 $192 forward $186 $-1 #
edge $-1 $299 0 $299 6.2831853071796004 $191 $300 forward 7 unknown #
loop $-1 $-1 $198 $120 #
plane-surface $-1 -27.295069576509853 27.351047148128686 69.537359424631333 0.64278761758704617 0 0.76604443648966558 0.76604443648966558 0 -0.64278761758704617 forward_v I I I I #
loop $-1 $-1 $301 $77 #
coedge $-1 $196 $196 $197 $302 reversed $121 $-1 #
coedge $-1 $197 $197 $196 $302 forward $123 $-1 #
coedge $-1 $198 $198 $124 $199 forward $193 $-1 #
edge $-1 $303 0 $303 6.2831853071796004 $198 $304 forward 7 unknown #
face $-1 $305 $306 $30 $-1 $307 reversed single #
loop $-1 $-1 $308 $125 #
plane-surface $-1 -51.297952208014159 0 0 1 0 0 0 0 -1 forward_v I I I I #
coedge $-1 $309 $211 $310 $311 forward $126 $-1 #
coedge $-1 $312 $128 $309 $313 forward $81 $-1 #
coedge $-1 $128 $312 $314 $315 forward $81 $-1 #
coedge $-1 $214 $213 $128 $207 reversed $215 $-1 #
edge $-1 $316 -33.366760606557449 $317 33.366760606557449 $206 $318 forward 7 unknown #
coedge $-1 $130 $129 $319 $320 forward $51 $-1 #
coedge $-1 $321 $322 $129 $210 reversed $306 $-1 #
edge $-1 $217 -51.297952208014159 $323 51.297952208014159 $209 $324 forward 7 unknown #
coedge $-1 $203 $325 $130 $212 reversed $126 $-1 #
edge $-1 $326 -51.297952208014159 $216 51.297952208014159 $211 $327 forward 7 unknown #
coedge $-1 $206 $131 $325 $328 forward $215 $-1 #
coedge $-1 $131 $206 $321 $329 reversed $215 $-1 #
loop $-1 $-1 $213 $305 #
vertex $-1 $132 $330 #
vertex $-1 $132 $331 #
straight-curve $-1 51.297952208014159 0 13.062699312871434 0 1 0 I I #
face $-1 $332 $333 $31 $-1 $334 reversed single #
loop $-1 $-1 $335 $133 #
plane-surface $-1 -51.297952208014159 0 0 1 0 0 0 0 -1 forward_v I I I I #
coedge $-1 $336 $228 $233 $337 reversed $134 $-1 #
coedge $-1 $338 $136 $339 $340 reversed $85 $-1 #
coedge $-1 $136 $338 $336 $341 forward $85 $-1 #
coedge $-1 $233 $232 $136 $226 forward $234 $-1 #
edge $-1 $342 -20.941382955713113 $343 -3.9093723459755587 $225 $344 forward 7 unknown #
coedge $-1 $138 $137 $335 $345 reversed $54 $-1 #
coedge $-1 $222 $346 $137 $229 reversed $134 $-1 #
edge $-1 $235 -51.297952208014159 $347 51.297952208014159 $228 $348 forward 7 unknown #
coedge $-1 $349 $350 $138 $231 forward $333 $-1 #
edge $-1 $236 -51.297952208014159 $351 51.297952208014159 $230 $352 forward 7 unknown #
coedge $-1 $225 $139 $350 $353 forward $234 $-1 #
coedge $-1 $139 $225 $222 $337 forward $234 $-1 #
loop $-1 $-1 $139 $332 #
vertex $-1 $140 $354 #
vertex $-1 $353 $355 #
straight-curve $-1 51.297952208014159 -12.425377650844336 -4.7338545748351137 0 -1 0 I I #
face $-1 $-1 $250 $32 $-1 $356 forward single #
loop $-1 $-1 $357 $141 #
plane-surface $-1 -51.297952208014159 0 0 1 0 0 0 0 -1 forward_v I I I I #
coedge $-1 $358 $359 $360 $361 reversed $142 $-1 #
coedge $-1 $362 $144 $146 $248 forward $89 $-1 #
coedge $-1 $144 $362 $358 $363 forward $89 $-1 #
coedge $-1 $360 $147 $144 $245 forward $250 $-1 #
edge $-1 $252 -10.820781998357074 $364 -0.20715399856856642 $244 $365 forward 7 unknown #
coedge $-1 $366 $367 $145 $247 forward $239 $-1 #
edge $-1 $368 -34.192568319235114 $251 -30.174843610752315 $246 $369 forward 7 unknown #
edge $-1 $252 -6.1240292139660806 $368 8.85871892118899e-015 $146 $370 forward 7 unknown #
coedge $-1 $147 $360 $366 $371 forward $250 $-1 #
loop $-1 $-1 $360 $238 #
vertex $-1 $247 $372 #
vertex $-1 $148 $373 #
straight-curve $-1 -59.303461228063426 -16.334749996819895 13.062699312871437 1 0 0 I I #
coedge $-1 $254 $254 $-1 $374 reversed $151 $-1 #
edge $-1 $375 0 $375 6.2831853071796004 $152 $376 forward 7 unknown #
vertex $-1 $155 $377 #
ellipse-curve $-1 -48.987020470578102 -11.027935996925645 11.053836958630034 -0.6560590369687036 0 0.75470957328743171 0.75470957328743171 0 0.6560590369687036 1 I I #
face $-1 $-1 $378 $34 $-1 $379 reversed single #
loop $-1 $-1 $162 $156 #
plane-surface $-1 0 0 13.062699312871434 0 0 1 1 0 0 forward_v I I I I #
coedge $-1 $380 $381 $382 $383 reversed $157 $-1 #
coedge $-1 $384 $159 $161 $268 forward $98 $-1 #
coedge $-1 $159 $384 $380 $385 forward $98 $-1 #
coedge $-1 $382 $162 $159 $265 forward $259 $-1 #
edge $-1 $271 -7.2658593816487613 $386 4.7655675352087474 $264 $387 forward 7 unknown #
coedge $-1 $388 $389 $160 $267 forward $378 $-1 #
edge $-1 $390 -70.475208153713496 $270 -61.002491291706235 $266 $391 forward 7 unknown #
edge $-1 $271 87.858973269832958 $390 102.59590441602833 $161 $392 forward 7 unknown #
coedge $-1 $162 $382 $388 $393 forward $259 $-1 #
vertex $-1 $267 $394 #
vertex $-1 $163 $395 #
straight-curve $-1 19.326153698628648 8.5160053048687683 13.06269931287143 -1 0 0 I I #
coedge $-1 $273 $273 $-1 $396 reversed $166 $-1 #
edge $-1 $397 0 $397 6.2831853071796004 $167 $398 forward 7 unknown #
vertex $-1 $170 $399 #
ellipse-curve $-1 45.653380150277044 -0.07787106431516122 8.326340881867802 0.64278761758704617 0 0.76604443648966558 0.76604443648966558 0 -0.64278761758704617 1 I I #
coedge $-1 $277 $277 $-1 $400 reversed $173 $-1 #
edge $-1 $401 0 $401 6.2831853071796004 $174 $402 forward 7 unknown #
vertex $-1 $177 $403 #
ellipse-curve $-1 45.653380150277044 5.0784547571952032 8.326340881867802 0.64278761758704617 0 0.76604443648966558 0.76604443648966558 0 -0.64278761758704617 1 I I #
face $-1 $-1 $404 $37 $-1 $405 reversed single #
loop $-1 $-1 $287 $178 #
plane-surface $-1 0 0 13.062699312871434 0 0 1 1 0 0 forward_v I I I I #
coedge $-1 $406 $407 $286 $408 forward $179 $-1 #
coedge $-1 $286 $181 $183 $292 reversed $112 $-1 #
coedge $-1 $181 $285 $284 $408 reversed $112 $-1 #
coedge $-1 $409 $184 $181 $288 forward $282 $-1 #
edge $-1 $295 20.682654393911282 $410 31.971798509385511 $287 $411 forward 7 unknown #
coedge $-1 $183 $182 $406 $412 reversed $72 $-1 #
coedge $-1 $413 $414 $182 $291 forward $404 $-1 #
edge $-1 $415 -69.792409520760032 $294 -55.055478374564657 $290 $416 forward 7 unknown #
edge $-1 $417 -102.59590441602833 $295 -87.858973269832958 $285 $418 forward 7 unknown #
coedge $-1 $184 $409 $413 $419 forward $282 $-1 #
vertex $-1 $291 $420 #
vertex $-1 $185 $421 #
straight-curve $-1 40.008808092539915 13.675523574064343 13.06269931287143 0 -1 0 I I #
coedge $-1 $297 $297 $-1 $422 reversed $188 $-1 #
edge $-1 $423 0 $423 6.2831853071796004 $189 $424 forward 7 unknown #
vertex $-1 $192 $425 #
ellipse-curve $-1 45.653380150277044 24.772884237373511 8.326340881867802 0.64278761758704617 0 0.76604443648966558 0.76604443648966558 0 -0.64278761758704617 1 I I #
coedge $-1 $301 $301 $-1 $426 reversed $195 $-1 #
edge $-1 $427 0 $427 6.2831853071796004 $196 $428 forward 7 unknown #
vertex $-1 $199 $429 #
ellipse-curve $-1 45.653380150277044 29.929210058883875 8.326340881867802 0.64278761758704617 0 0.76604443648966558 0.76604443648966558 0 -0.64278761758704617 1 I I #
face $-1 $-1 $215 $30 $-1 $430 reversed single #
loop $-1 $-1 $321 $200 #
plane-surface $-1 0 33.366760606557449 0 0 -1 0 0 0 -1 forward_v I I I I #
coedge $-1 $431 $319 $322 $432 forward $201 $-1 #
coedge $-1 $325 $203 $204 $313 reversed $126 $-1 #
coedge $-1 $319 $431 $203 $311 reversed $201 $-1 #
edge $-1 $326 -13.062699312871434 $433 13.062699312871434 $310 $434 forward 7 unknown #
coedge $-1 $205 $204 $431 $435 forward $81 $-1 #
edge $-1 $317 -51.297952208014159 $433 51.297952208014159 $309 $436 forward 7 unknown #
coedge $-1 $322 $321 $205 $315 reversed $306 $-1 #
edge $-1 $437 -51.297952208014159 $316 51.297952208014159 $314 $438 forward 7 unknown #
vertex $-1 $207 $439 #
vertex $-1 $328 $440 #
straight-curve $-1 51.297952208014159 0 -13.062699312871434 0 -1 0 I I #
coedge $-1 $308 $310 $208 $320 reversed $201 $-1 #
edge $-1 $323 -33.366760606557449 $326 33.366760606557449 $319 $441 forward 7 unknown #
coedge $-1 $314 $209 $214 $329 forward $306 $-1 #
coedge $-1 $209 $314 $308 $432 reversed $306 $-1 #
vertex $-1 $210 $442 #
straight-curve $-1 0 33.366760606557449 13.062699312871434 -1 0 0 I I #
coedge $-1 $211 $309 $213 $328 reversed $126 $-1 #
vertex $-1 $320 $443 #
straight-curve $-1 0 -33.366760606557449 13.062699312871434 1 0 0 I I #
edge $-1 $216 -13.062699312871434 $317 13.062699312871434 $213 $444 forward 7 unknown #
edge $-1 $217 -13.062699312871434 $316 13.062699312871434 $214 $445 forward 7 unknown #
point $-1 51.297952208014159 -33.366760606557449 13.062699312871434 #
point $-1 51.297952208014159 33.366760606557449 13.062699312871434 #
face $-1 $-1 $234 $31 $-1 $446 reversed single #
loop $-1 $-1 $230 $219 #
plane-surface $-1 0 -33.366760606557449 0 0 1 0 0 0 1 forward_v I I I I #
coedge $-1 $447 $448 $227 $345 forward $220 $-1 #
coedge $-1 $346 $222 $224 $341 reversed $134 $-1 #
edge $-1 $343 -5.4220728786858201 $235 -1.3485454236614691 $233 $449 forward 7 unknown #
coedge $-1 $224 $223 $450 $451 reversed $85 $-1 #
coedge $-1 $350 $349 $223 $340 forward $333 $-1 #
edge $-1 $452 -51.297952208014159 $342 51.297952208014159 $339 $453 forward 7 unknown #
edge $-1 $454 -51.297952208014159 $343 51.297952208014159 $336 $455 forward 7 unknown #
vertex $-1 $340 $456 #
vertex $-1 $226 $457 #
straight-curve $-1 51.297952208014159 -12.425377650844336 -8.8073820298594647 0 1 0 I I #
edge $-1 $351 -20.941382955713113 $347 -3.9093723459755587 $335 $458 forward 7 unknown #
coedge $-1 $228 $336 $447 $459 reversed $134 $-1 #
vertex $-1 $345 $460 #
straight-curve $-1 0 -16.334749996819895 -4.7338545748351137 -1 0 0 I I #
coedge $-1 $339 $230 $448 $461 forward $333 $-1 #
coedge $-1 $230 $339 $232 $353 reversed $333 $-1 #
vertex $-1 $461 $462 #
straight-curve $-1 0 -33.366760606557449 -4.7338545748351137 -1 0 0 I I #
edge $-1 $236 4.7338545748351137 $342 8.8073820298594647 $232 $463 forward 7 unknown #
point $-1 51.297952208014159 -16.334749996819895 -4.7338545748351137 #
point $-1 51.297952208014159 -33.366760606557449 -4.7338545748351137 #
plane-surface $-1 0 0 13.062699312871434 0 0 1 1 0 0 forward_v I I I I #
coedge $-1 $367 $366 $359 $464 forward $239 $-1 #
coedge $-1 $359 $241 $243 $363 reversed $142 $-1 #
coedge $-1 $241 $358 $357 $464 reversed $142 $-1 #
coedge $-1 $249 $244 $241 $361 forward $250 $-1 #
edge $-1 $364 -12.627372494921381 $465 -8.0055090200492671 $360 $466 forward 7 unknown #
coedge $-1 $243 $242 $367 $467 reversed $89 $-1 #
edge $-1 $468 -8.85871892118899e-015 $364 6.1240292139660806 $358 $469 forward 7 unknown #
vertex $-1 $245 $470 #
straight-curve $-1 -46.676088733142052 -5.5139679984628209 13.062699312871436 0 1 0 I I #
coedge $-1 $357 $246 $249 $371 reversed $239 $-1 #
coedge $-1 $246 $357 $362 $467 forward $239 $-1 #
vertex $-1 $247 $471 #
straight-curve $-1 -51.297952208014159 -16.334749996819895 43.237542923623749 0 0 1 I I #
straight-curve $-1 -51.297952208014152 -16.334749996819895 9.0449746043886421 -0.75470957328743171 0 -0.6560590369687036 I I #
edge $-1 $465 5.7211219970313874 $251 16.334749996819895 $366 $472 forward 7 unknown #
point $-1 -51.297952208014159 -16.334749996819895 13.062699312871434 #
point $-1 -46.676088733142045 -16.334749996819895 13.062699312871434 #
edge $-1 $473 1 $473 0 $254 $-1 forward 7 unknown #
vertex $-1 $255 $474 #
ellipse-curve $-1 -47.81619725500088 -11.027935996925645 9.7069589497452089 -0.6560590369687036 0 0.75470957328743171 0.75470957328743171 0 0.6560590369687036 1 I I #
point $-1 -48.232310897290674 -11.027935996925645 11.709895995598739 #
loop $-1 $-1 $266 $258 #
plane-surface $-1 51.297952208014159 0 0 -1 0 0 0 0 1 forward_v I I I I #
coedge $-1 $381 $261 $263 $385 reversed $157 $-1 #
coedge $-1 $261 $380 $475 $476 reversed $157 $-1 #
coedge $-1 $269 $264 $261 $383 forward $259 $-1 #
edge $-1 $386 20.682654393911282 $477 31.971798509385511 $382 $478 forward 7 unknown #
coedge $-1 $263 $262 $389 $479 reversed $98 $-1 #
edge $-1 $480 -102.59590441602833 $386 -87.858973269832958 $380 $481 forward 7 unknown #
vertex $-1 $265 $482 #
straight-curve $-1 40.008808092539915 1.2501459232200069 13.06269931287143 0 -1 0 I I #
coedge $-1 $475 $266 $269 $393 reversed $378 $-1 #
coedge $-1 $266 $475 $384 $479 forward $378 $-1 #
vertex $-1 $267 $483 #
straight-curve $-1 51.297952208014159 8.5160053048687683 74.065190604577666 0 0 1 I I #
straight-curve $-1 -27.295069576509853 8.5160053048687683 69.537359424631333 0.76604443648966558 0 -0.64278761758704617 I I #
edge $-1 $477 -3.5154216119887405 $270 8.5160053048687683 $388 $484 forward 7 unknown #
point $-1 51.297952208014159 8.5160053048687683 13.062699312871434 #
point $-1 40.00880809253993 8.5160053048687683 13.062699312871437 #
edge $-1 $485 1 $485 0 $273 $-1 forward 7 unknown #
vertex $-1 $274 $486 #
ellipse-curve $-1 43.656318843681575 -0.07787106431516122 5.9463359449508708 0.64278761758704617 0 0.76604443648966558 0.76604443648966558 0 -0.64278761758704617 1 I I #
point $-1 46.419424586766723 -0.07787106431516122 7.6835532642807669 #
edge $-1 $487 1 $487 0 $277 $-1 forward 7 unknown #
vertex $-1 $278 $488 #
ellipse-curve $-1 43.656318843681575 5.0784547571952032 5.9463359449508708 0.64278761758704617 0 0.76604443648966558 0.76604443648966558 0 -0.64278761758704617 1 I I #
point $-1 46.419424586766723 5.0784547571952032 7.6835532642807669 #
loop $-1 $-1 $290 $281 #
plane-surface $-1 0 33.366760606557449 0 0 -1 0 0 0 -1 forward_v I I I I #
coedge $-1 $489 $284 $289 $412 forward $179 $-1 #
coedge $-1 $284 $489 $409 $490 reversed $179 $-1 #
edge $-1 $410 61.002491291706235 $417 70.475208153713496 $284 $491 forward 7 unknown #
coedge $-1 $293 $287 $407 $490 forward $282 $-1 #
vertex $-1 $490 $492 #
straight-curve $-1 19.326153698628648 21.335333689699929 13.06269931287143 1 0 0 I I #
edge $-1 $417 7.6598101156355867 $415 19.691237032493099 $406 $493 forward 7 unknown #
coedge $-1 $414 $290 $293 $419 reversed $404 $-1 #
coedge $-1 $290 $413 $489 $494 forward $404 $-1 #
vertex $-1 $291 $495 #
straight-curve $-1 -2.1661348145724197 33.366760606557449 48.451679092372991 -0.76604443648966558 0 0.64278761758704617 I I #
vertex $-1 $412 $496 #
straight-curve $-1 -27.295069576509853 21.335333689699929 69.537359424631333 -0.76604443648966558 0 0.64278761758704617 I I #
edge $-1 $497 -51.297952208014159 $294 -40.00880809253993 $413 $498 forward 7 unknown #
point $-1 40.00880809253993 33.366760606557442 13.062699312871437 #
point $-1 40.00880809253993 21.335333689699929 13.062699312871437 #
edge $-1 $499 1 $499 0 $297 $-1 forward 7 unknown #
vertex $-1 $298 $500 #
ellipse-curve $-1 43.656318843681575 24.772884237373511 5.9463359449508708 0.64278761758704617 0 0.76604443648966558 0.76604443648966558 0 -0.64278761758704617 1 I I #
point $-1 46.419424586766723 24.772884237373511 7.6835532642807669 #
edge $-1 $501 1 $501 0 $301 $-1 forward 7 unknown #
vertex $-1 $302 $502 #
ellipse-curve $-1 43.656318843681575 29.929210058883875 5.9463359449508708 0.64278761758704617 0 0.76604443648966558 0.76604443648966558 0 -0.64278761758704617 1 I I #
point $-1 46.419424586766723 29.929210058883875 7.6835532642807669 #
plane-surface $-1 51.297952208014159 0 0 -1 0 0 0 0 1 forward_v I I I I #
coedge $-1 $310 $308 $312 $435 reversed $201 $-1 #
edge $-1 $323 -13.062699312871434 $437 13.062699312871434 $322 $503 forward 7 unknown #
vertex $-1 $435 $504 #
straight-curve $-1 -51.297952208014159 -33.366760606557449 0 0 0 -1 I I #
edge $-1 $433 -33.366760606557449 $437 33.366760606557449 $431 $505 forward 7 unknown #
straight-curve $-1 0 -33.366760606557449 -13.062699312871434 -1 0 0 I I #
vertex $-1 $315 $506 #
straight-curve $-1 0 33.366760606557449 -13.062699312871434 1 0 0 I I #
point $-1 51.297952208014159 33.366760606557449 -13.062699312871434 #
point $-1 51.297952208014159 -33.366760606557449 -13.062699312871434 #
straight-curve $-1 -51.297952208014159 0 13.062699312871434 0 -1 0 I I #
point $-1 -51.297952208014159 33.366760606557449 13.062699312871434 #
point $-1 -51.297952208014159 -33.366760606557449 13.062699312871434 #
straight-curve $-1 51.297952208014159 -33.366760606557449 0 0 0 -1 I I #
straight-curve $-1 51.297952208014159 33.366760606557449 0 0 0 -1 I I #
plane-surface $-1 51.297952208014159 0 0 -1 0 0 0 0 1 forward_v I I I I #
coedge $-1 $450 $335 $346 $459 forward $220 $-1 #
coedge $-1 $335 $450 $349 $461 reversed $220 $-1 #
straight-curve $-1 51.297952208014159 -16.334749996819895 -3.3853091511736446 0 0 1 I I #
coedge $-1 $448 $447 $338 $451 forward $220 $-1 #
edge $-1 $454 3.9093723459755587 $452 20.941382955713113 $450 $507 forward 7 unknown #
vertex $-1 $340 $508 #
straight-curve $-1 0 -33.366760606557449 -8.8073820298594647 1 0 0 I I #
vertex $-1 $451 $509 #
straight-curve $-1 0 -16.334749996819895 -8.8073820298594647 1 0 0 I I #
point $-1 51.297952208014159 -33.366760606557449 -8.8073820298594647 #
point $-1 51.297952208014159 -16.334749996819895 -8.8073820298594647 #
straight-curve $-1 -51.297952208014159 -12.425377650844336 -4.7338545748351137 0 1 0 I I #
edge $-1 $347 1.3485454236614691 $454 5.4220728786858201 $447 $510 forward 7 unknown #
point $-1 -51.297952208014159 -16.334749996819895 -4.7338545748351137 #
edge $-1 $351 4.7338545748351137 $452 8.8073820298594647 $448 $511 forward 7 unknown #
point $-1 -51.297952208014159 -33.366760606557449 -4.7338545748351137 #
straight-curve $-1 51.297952208014159 -33.366760606557449 0 0 0 -1 I I #
edge $-1 $465 30.174843610752315 $468 34.192568319235114 $357 $512 forward 7 unknown #
vertex $-1 $371 $513 #
straight-curve $-1 -59.303461228063426 -5.7211219970313874 13.062699312871437 -1 0 0 I I #
edge $-1 $468 0.20715399856856642 $368 10.820781998357074 $367 $514 forward 7 unknown #
vertex $-1 $467 $515 #
straight-curve $-1 -51.297952208014152 -5.7211219970313874 9.0449746043886421 0.75470957328743171 0 0.6560590369687036 I I #
point $-1 -46.676088733142045 -5.7211219970313874 13.062699312871434 #
point $-1 -51.297952208014159 -16.334749996819895 9.0449746043886368 #
straight-curve $-1 -51.297952208014159 0 13.062699312871434 0 -1 0 I I #
vertex $-1 $374 $516 #
point $-1 -47.061487681713452 -11.027935996925645 10.363017986713913 #
coedge $-1 $389 $388 $381 $476 forward $378 $-1 #
edge $-1 $477 61.002491291706235 $480 70.475208153713496 $475 $517 forward 7 unknown #
vertex $-1 $393 $518 #
straight-curve $-1 19.326153698628648 -3.5154216119887405 13.06269931287143 1 0 0 I I #
edge $-1 $480 -4.7655675352087474 $390 7.2658593816487613 $389 $519 forward 7 unknown #
vertex $-1 $479 $520 #
straight-curve $-1 -27.295069576509853 -3.5154216119887405 69.537359424631333 -0.76604443648966558 0 0.64278761758704617 I I #
point $-1 40.00880809253993 -3.5154216119887405 13.062699312871437 #
point $-1 51.297952208014159 8.5160053048687683 3.58998245086417 #
straight-curve $-1 51.297952208014159 0 13.062699312871434 0 1 0 I I #
vertex $-1 $396 $521 #
point $-1 44.42236328017124 -0.07787106431516122 5.3035483273638251 #
vertex $-1 $400 $522 #
point $-1 44.42236328017124 5.0784547571952032 5.3035483273638251 #
coedge $-1 $407 $406 $414 $494 reversed $179 $-1 #
edge $-1 $410 21.335333689699929 $497 33.366760606557449 $407 $523 forward 7 unknown #
straight-curve $-1 51.297952208014159 21.335333689699929 74.065190604577666 0 0 -1 I I #
point $-1 51.297952208014159 21.335333689699929 13.062699312871434 #
straight-curve $-1 51.297952208014152 13.675523574064343 3.5899824508641771 0 1 0 I I #
edge $-1 $497 -13.062699312871434 $415 -3.58998245086417 $489 $524 forward 7 unknown #
point $-1 51.297952208014159 33.366760606557442 3.58998245086417 #
point $-1 51.297952208014159 21.335333689699929 3.58998245086417 #
vertex $-1 $490 $525 #
straight-curve $-1 0 33.366760606557449 13.062699312871434 -1 0 0 I I #
vertex $-1 $422 $526 #
point $-1 44.42236328017124 24.772884237373511 5.3035483273638251 #
vertex $-1 $426 $527 #
point $-1 44.42236328017124 29.929210058883875 5.3035483273638251 #
straight-curve $-1 -51.297952208014159 33.366760606557449 0 0 0 -1 I I #
point $-1 -51.297952208014159 -33.366760606557449 -13.062699312871434 #
straight-curve $-1 -51.297952208014159 0 -13.062699312871434 0 1 0 I I #
point $-1 -51.297952208014159 33.366760606557449 -13.062699312871434 #
straight-curve $-1 -51.297952208014159 -12.425377650844336 -8.8073820298594647 0 -1 0 I I #
point $-1 -51.297952208014159 -33.366760606557449 -8.8073820298594647 #
point $-1 -51.297952208014159 -16.334749996819895 -8.8073820298594647 #
straight-curve $-1 -51.297952208014159 -16.334749996819895 -3.3853091511736446 0 0 -1 I I #
straight-curve $-1 -51.297952208014159 -33.366760606557449 0 0 0 -1 I I #
straight-curve $-1 -51.297952208014159 -5.7211219970313874 43.237542923623749 0 0 -1 I I #
point $-1 -51.297952208014159 -5.7211219970313874 13.062699312871434 #
straight-curve $-1 -51.297952208014159 -5.5139679984628209 9.044974604388635 0 -1 0 I I #
point $-1 -51.297952208014159 -5.7211219970313874 9.0449746043886368 #
point $-1 -47.160138218032181 -11.027935996925645 8.9522493764577771 #
straight-curve $-1 51.297952208014159 -3.5154216119887405 74.065190604577666 0 0 -1 I I #
point $-1 51.297952208014159 -3.5154216119887405 13.062699312871434 #
straight-curve $-1 51.297952208014152 1.2501459232200069 3.5899824508641771 0 1 0 I I #
point $-1 51.297952208014159 -3.5154216119887405 3.58998245086417 #
point $-1 43.013531226094528 -0.07787106431516122 5.180291508461206 #
point $-1 43.013531226094528 5.0784547571952032 5.180291508461206 #
straight-curve $-1 51.297952208014159 0 13.062699312871434 0 1 0 I I #
straight-curve $-1 51.297952208014159 33.366760606557449 0 0 0 -1 I I #
point $-1 51.297952208014159 33.366760606557449 13.062699312871434 #
point $-1 43.013531226094528 24.772884237373511 5.180291508461206 #
point $-1 43.013531226094528 29.929210058883875 5.180291508461206 #
End-of-ACIS-data 