500 0 3 0           
7 Unknown 11 ACIS 5.0 NT 24 Fri Mar 26 00:02:53 1999 
-1 9.9999999999999995e-007 1e-010 
body $-1 $3 $-1 $4 #
body $-1 $5 $-1 $6 #
body $-1 $7 $-1 $8 #
lump $-1 $-1 $9 $0 #
transform $-1 1 0 0 0 1 0 0 0 1 55.499740592669454 27.534761587717245 10.578366840021317 1 rotate no_reflect no_shear #
lump $-1 $-1 $10 $1 #
transform $-1 1 0 0 0 1 0 0 0 1 55.499740592669454 27.534761587717245 10.578366840021317 1 rotate no_reflect no_shear #
lump $-1 $-1 $11 $2 #
transform $-1 1 0 0 0 1 0 0 0 1 55.499740592669454 27.534761587717245 10.578366840021317 1 rotate no_reflect no_shear #
shell $-1 $-1 $-1 $12 $-1 $3 #
shell $-1 $-1 $-1 $13 $-1 $5 #
shell $-1 $-1 $-1 $14 $-1 $7 #
face $-1 $15 $16 $9 $-1 $17 forward single #
face $-1 $18 $19 $10 $-1 $20 forward single #
face $-1 $21 $22 $11 $-1 $23 forward single #
face $-1 $24 $25 $9 $-1 $26 reversed single #
loop $-1 $-1 $27 $12 #
plane-surface $-1 0 0 10.578366840021317 0 0 1 1 0 0 forward_v I I I I #
face $-1 $28 $29 $10 $-1 $30 forward single #
loop $-1 $-1 $31 $13 #
plane-surface $-1 -55.499740592669454 0 0 1 0 0 0 0 -1 forward_v I I I I #
face $-1 $32 $33 $11 $-1 $34 reversed single #
loop $-1 $-1 $35 $14 #
plane-surface $-1 55.499740592669454 0 0 -1 0 0 0 0 1 forward_v I I I I #
face $-1 $36 $37 $9 $-1 $38 reversed single #
loop $-1 $-1 $39 $15 #
plane-surface $-1 0 0 -10.578366840021317 0 0 1 1 0 0 forward_v I I I I #
coedge $-1 $40 $41 $42 $43 forward $16 $-1 #
face $-1 $44 $45 $10 $-1 $46 reversed single #
loop $-1 $-1 $47 $18 #
plane-surface $-1 0 0 10.578366840021317 0 0 1 1 0 0 forward_v I I I I #
coedge $-1 $48 $49 $50 $51 forward $19 $-1 #
face $-1 $52 $53 $11 $-1 $54 reversed single #
loop $-1 $-1 $55 $21 #
plane-surface $-1 0 -27.534761587717245 0 0 1 0 0 0 1 forward_v I I I I #
coedge $-1 $56 $57 $58 $59 forward $22 $-1 #
face $-1 $60 $61 $9 $-1 $62 reversed single #
loop $-1 $-1 $63 $24 #
plane-surface $-1 0 -27.534761587717245 0 0 1 0 0 0 1 forward_v I I I I #
coedge $-1 $64 $65 $66 $67 forward $25 $-1 #
coedge $-1 $68 $27 $69 $70 forward $16 $-1 #
coedge $-1 $27 $68 $71 $72 forward $16 $-1 #
coedge $-1 $73 $74 $27 $43 reversed $75 $-1 #
edge $-1 $76 -27.534761587717245 $77 27.534761587717245 $42 $78 forward 7 unknown #
face $-1 $79 $80 $10 $-1 $81 reversed single #
loop $-1 $-1 $82 $28 #
plane-surface $-1 -64.636044268439619 -26.034761587717245 0 1 0 0 0 0 -1 forward_v I I I I #
coedge $-1 $83 $84 $48 $85 forward $29 $-1 #
coedge $-1 $86 $31 $47 $85 reversed $19 $-1 #
coedge $-1 $31 $86 $87 $88 reversed $19 $-1 #
coedge $-1 $89 $90 $31 $51 reversed $80 $-1 #
edge $-1 $91 -10.578366840021317 $92 10.578366840021317 $50 $93 forward 7 unknown #
face $-1 $94 $95 $11 $-1 $96 reversed single #
loop $-1 $-1 $97 $32 #
plane-surface $-1 0 0 -10.578366840021317 0 0 1 1 0 0 forward_v I I I I #
coedge $-1 $98 $99 $100 $101 forward $33 $-1 #
coedge $-1 $100 $35 $97 $102 reversed $22 $-1 #
coedge $-1 $35 $100 $103 $104 reversed $22 $-1 #
coedge $-1 $105 $106 $35 $59 reversed $95 $-1 #
edge $-1 $107 -10.578366840021317 $108 10.578366840021317 $58 $109 forward 7 unknown #
face $-1 $110 $111 $9 $-1 $112 reversed single #
loop $-1 $-1 $113 $36 #
plane-surface $-1 -55.499740592669454 0 0 1 0 0 0 0 -1 forward_v I I I I #
coedge $-1 $114 $71 $115 $116 forward $37 $-1 #
coedge $-1 $117 $39 $114 $118 forward $25 $-1 #
coedge $-1 $39 $117 $119 $120 forward $25 $-1 #
coedge $-1 $74 $73 $39 $67 reversed $75 $-1 #
edge $-1 $121 -27.534761587717245 $122 27.534761587717245 $66 $123 forward 7 unknown #
coedge $-1 $41 $40 $124 $125 forward $16 $-1 #
coedge $-1 $126 $127 $40 $70 reversed $111 $-1 #
edge $-1 $77 -55.499740592669454 $128 55.499740592669454 $69 $129 forward 7 unknown #
coedge $-1 $63 $130 $41 $72 reversed $37 $-1 #
edge $-1 $131 -55.499740592669454 $76 55.499740592669454 $71 $132 forward 7 unknown #
coedge $-1 $66 $42 $130 $133 forward $75 $-1 #
coedge $-1 $42 $66 $126 $134 reversed $75 $-1 #
loop $-1 $-1 $73 $110 #
vertex $-1 $43 $135 #
vertex $-1 $43 $136 #
straight-curve $-1 55.499740592669454 0 10.578366840021317 0 1 0 I I #
face $-1 $137 $138 $10 $-1 $139 reversed single #
loop $-1 $-1 $50 $44 #
plane-surface $-1 -60.067892430554537 -24.534761587717245 0 0 -1 0 0 0 -1 forward_v I I I I #
coedge $-1 $140 $141 $142 $143 forward $45 $-1 #
coedge $-1 $144 $47 $90 $145 forward $29 $-1 #
coedge $-1 $47 $144 $146 $147 forward $29 $-1 #
edge $-1 $148 -27.534761587717245 $92 -24.534761587717245 $47 $149 forward 7 unknown #
coedge $-1 $49 $48 $150 $151 reversed $19 $-1 #
coedge $-1 $152 $153 $49 $88 forward $138 $-1 #
edge $-1 $91 24.534761587717245 $154 27.534761587717245 $87 $155 forward 7 unknown #
coedge $-1 $142 $50 $153 $156 reversed $80 $-1 #
coedge $-1 $50 $142 $83 $145 reversed $80 $-1 #
vertex $-1 $88 $157 #
vertex $-1 $145 $158 #
straight-curve $-1 -55.499740592669454 -24.534761587717245 0 0 0 1 I I #
face $-1 $159 $160 $11 $-1 $161 reversed single #
loop $-1 $-1 $162 $52 #
plane-surface $-1 60.067892430554537 -24.534761587717245 0 0 -1 0 0 0 -1 forward_v I I I I #
coedge $-1 $163 $164 $56 $102 forward $53 $-1 #
coedge $-1 $165 $55 $164 $166 reversed $33 $-1 #
coedge $-1 $55 $165 $167 $168 reversed $33 $-1 #
coedge $-1 $57 $56 $55 $101 reversed $22 $-1 #
edge $-1 $169 -10.578366840021317 $170 10.578366840021317 $55 $171 forward 7 unknown #
edge $-1 $170 -27.534761587717245 $108 -24.534761587717245 $97 $172 forward 7 unknown #
coedge $-1 $167 $173 $57 $104 forward $174 $-1 #
edge $-1 $107 24.534761587717245 $169 27.534761587717245 $103 $175 forward 7 unknown #
coedge $-1 $162 $58 $173 $176 reversed $95 $-1 #
coedge $-1 $58 $162 $163 $177 reversed $95 $-1 #
vertex $-1 $104 $178 #
vertex $-1 $177 $179 #
straight-curve $-1 55.499740592669454 -24.534761587717245 0 0 0 -1 I I #
face $-1 $-1 $75 $9 $-1 $180 reversed single #
loop $-1 $-1 $126 $60 #
plane-surface $-1 0 27.534761587717245 0 0 -1 0 0 0 -1 forward_v I I I I #
coedge $-1 $181 $124 $127 $182 forward $61 $-1 #
coedge $-1 $130 $63 $64 $118 reversed $37 $-1 #
coedge $-1 $124 $181 $63 $116 reversed $61 $-1 #
edge $-1 $131 -10.578366840021317 $183 10.578366840021317 $115 $184 forward 7 unknown #
coedge $-1 $65 $64 $181 $185 forward $25 $-1 #
edge $-1 $122 -55.499740592669454 $183 55.499740592669454 $114 $186 forward 7 unknown #
coedge $-1 $127 $126 $65 $120 reversed $111 $-1 #
edge $-1 $187 -55.499740592669454 $121 55.499740592669454 $119 $188 forward 7 unknown #
vertex $-1 $67 $189 #
vertex $-1 $133 $190 #
straight-curve $-1 55.499740592669454 0 -10.578366840021317 0 -1 0 I I #
coedge $-1 $113 $115 $68 $125 reversed $61 $-1 #
edge $-1 $128 -27.534761587717245 $131 27.534761587717245 $124 $191 forward 7 unknown #
coedge $-1 $119 $69 $74 $134 forward $111 $-1 #
coedge $-1 $69 $119 $113 $182 reversed $111 $-1 #
vertex $-1 $70 $192 #
straight-curve $-1 0 27.534761587717245 10.578366840021317 -1 0 0 I I #
coedge $-1 $71 $114 $73 $133 reversed $37 $-1 #
vertex $-1 $125 $193 #
straight-curve $-1 0 -27.534761587717245 10.578366840021317 1 0 0 I I #
edge $-1 $76 -10.578366840021317 $122 10.578366840021317 $73 $194 forward 7 unknown #
edge $-1 $77 -10.578366840021317 $121 10.578366840021317 $74 $195 forward 7 unknown #
point $-1 55.499740592669454 -27.534761587717245 10.578366840021317 #
point $-1 55.499740592669454 27.534761587717245 10.578366840021317 #
face $-1 $-1 $196 $10 $-1 $197 reversed single #
loop $-1 $-1 $87 $79 #
plane-surface $-1 0 0 -10.578366840021317 0 0 1 1 0 0 forward_v I I I I #
coedge $-1 $198 $82 $199 $200 reversed $45 $-1 #
coedge $-1 $82 $198 $144 $201 reversed $45 $-1 #
coedge $-1 $90 $89 $82 $143 reversed $80 $-1 #
edge $-1 $202 -10.578366840021317 $203 10.578366840021317 $142 $204 forward 7 unknown #
coedge $-1 $84 $83 $141 $201 forward $29 $-1 #
edge $-1 $92 -4.5681518378850825 $202 4.5681518378850825 $90 $205 forward 7 unknown #
coedge $-1 $206 $150 $84 $147 reversed $196 $-1 #
edge $-1 $207 -64.636044268439619 $148 -55.499740592669454 $146 $208 forward 7 unknown #
vertex $-1 $151 $209 #
straight-curve $-1 -55.499740592669454 0 10.578366840021317 0 1 0 I I #
coedge $-1 $146 $210 $86 $151 forward $196 $-1 #
edge $-1 $154 -10.578366840021317 $148 10.578366840021317 $150 $211 forward 7 unknown #
coedge $-1 $199 $87 $210 $212 forward $138 $-1 #
coedge $-1 $87 $199 $89 $156 forward $138 $-1 #
vertex $-1 $212 $213 #
straight-curve $-1 -55.499740592669454 0 -10.578366840021317 0 -1 0 I I #
edge $-1 $203 -4.5681518378850825 $91 4.5681518378850825 $89 $214 forward 7 unknown #
point $-1 -55.499740592669454 -24.534761587717245 -10.578366840021317 #
point $-1 -55.499740592669454 -24.534761587717245 10.578366840021317 #
face $-1 $-1 $174 $11 $-1 $215 forward single #
loop $-1 $-1 $216 $94 #
plane-surface $-1 64.636044268439619 -26.034761587717245 0 -1 0 0 0 0 1 forward_v I I I I #
coedge $-1 $106 $105 $217 $218 forward $95 $-1 #
coedge $-1 $219 $97 $106 $177 forward $53 $-1 #
coedge $-1 $97 $219 $98 $166 forward $53 $-1 #
coedge $-1 $99 $98 $216 $220 reversed $33 $-1 #
edge $-1 $221 -4.5681518378850825 $170 4.5681518378850825 $98 $222 forward 7 unknown #
coedge $-1 $223 $103 $99 $168 forward $174 $-1 #
edge $-1 $169 -4.5681518378850825 $224 4.5681518378850825 $99 $225 forward 7 unknown #
vertex $-1 $168 $226 #
vertex $-1 $102 $227 #
straight-curve $-1 55.499740592669454 -27.534761587717245 0 0 0 -1 I I #
straight-curve $-1 55.499740592669454 0 -10.578366840021317 0 1 0 I I #
coedge $-1 $103 $223 $105 $176 forward $174 $-1 #
loop $-1 $-1 $103 $159 #
straight-curve $-1 55.499740592669454 0 10.578366840021317 0 -1 0 I I #
edge $-1 $228 -4.5681518378850825 $107 4.5681518378850825 $105 $229 forward 7 unknown #
edge $-1 $108 -4.5681518378850825 $230 4.5681518378850825 $106 $231 forward 7 unknown #
point $-1 55.499740592669454 -24.534761587717245 10.578366840021317 #
point $-1 55.499740592669454 -24.534761587717245 -10.578366840021317 #
plane-surface $-1 55.499740592669454 0 0 -1 0 0 0 0 1 forward_v I I I I #
coedge $-1 $115 $113 $117 $185 reversed $61 $-1 #
edge $-1 $128 -10.578366840021317 $187 10.578366840021317 $127 $232 forward 7 unknown #
vertex $-1 $185 $233 #
straight-curve $-1 -55.499740592669454 -27.534761587717245 0 0 0 -1 I I #
edge $-1 $183 -27.534761587717245 $187 27.534761587717245 $181 $234 forward 7 unknown #
straight-curve $-1 0 -27.534761587717245 -10.578366840021317 -1 0 0 I I #
vertex $-1 $120 $235 #
straight-curve $-1 0 27.534761587717245 -10.578366840021317 1 0 0 I I #
point $-1 55.499740592669454 27.534761587717245 -10.578366840021317 #
point $-1 55.499740592669454 -27.534761587717245 -10.578366840021317 #
straight-curve $-1 -55.499740592669454 0 10.578366840021317 0 -1 0 I I #
point $-1 -55.499740592669454 27.534761587717245 10.578366840021317 #
point $-1 -55.499740592669454 -27.534761587717245 10.578366840021317 #
straight-curve $-1 55.499740592669454 -27.534761587717245 0 0 0 -1 I I #
straight-curve $-1 55.499740592669454 27.534761587717245 0 0 0 -1 I I #
loop $-1 $-1 $150 $137 #
plane-surface $-1 0 -27.534761587717245 0 0 1 0 0 0 1 forward_v I I I I #
coedge $-1 $141 $140 $206 $236 reversed $45 $-1 #
coedge $-1 $153 $152 $140 $200 forward $138 $-1 #
edge $-1 $237 -1.5 $203 1.5 $140 $238 forward 7 unknown #
edge $-1 $202 -1.5 $207 1.5 $141 $239 forward 7 unknown #
vertex $-1 $145 $240 #
vertex $-1 $156 $241 #
straight-curve $-1 -64.636044268439619 -24.534761587717245 0 0 0 -1 I I #
straight-curve $-1 -60.067892430554537 -24.534761587717245 10.578366840021317 -1 0 0 I I #
coedge $-1 $210 $146 $198 $236 forward $196 $-1 #
vertex $-1 $201 $242 #
straight-curve $-1 0 -27.534761587717245 10.578366840021317 1 0 0 I I #
point $-1 -55.499740592669454 -27.534761587717245 10.578366840021317 #
coedge $-1 $150 $206 $152 $212 reversed $196 $-1 #
straight-curve $-1 -55.499740592669454 -27.534761587717245 0 0 0 1 I I #
edge $-1 $154 -4.5681518378850825 $237 4.5681518378850825 $210 $243 forward 7 unknown #
point $-1 -55.499740592669454 -27.534761587717245 -10.578366840021317 #
straight-curve $-1 -60.067892430554537 -24.534761587717245 -10.578366840021317 1 0 0 I I #
plane-surface $-1 0 0 10.578366840021317 0 0 1 1 0 0 forward_v I I I I #
coedge $-1 $244 $245 $165 $220 forward $160 $-1 #
coedge $-1 $245 $244 $162 $218 reversed $160 $-1 #
edge $-1 $228 -10.578366840021317 $230 10.578366840021317 $217 $246 forward 7 unknown #
coedge $-1 $164 $163 $244 $247 forward $53 $-1 #
edge $-1 $224 -10.578366840021317 $221 10.578366840021317 $216 $248 forward 7 unknown #
vertex $-1 $220 $249 #
straight-curve $-1 60.067892430554537 -27.534761587717245 -10.578366840021317 -1 0 0 I I #
coedge $-1 $173 $167 $245 $250 forward $174 $-1 #
vertex $-1 $250 $251 #
straight-curve $-1 60.067892430554537 -27.534761587717245 10.578366840021317 1 0 0 I I #
point $-1 55.499740592669454 -27.534761587717245 10.578366840021317 #
point $-1 55.499740592669454 -27.534761587717245 -10.578366840021317 #
vertex $-1 $250 $252 #
straight-curve $-1 60.067892430554537 -24.534761587717245 10.578366840021317 -1 0 0 I I #
vertex $-1 $247 $253 #
straight-curve $-1 60.067892430554537 -24.534761587717245 -10.578366840021317 1 0 0 I I #
straight-curve $-1 -55.499740592669454 27.534761587717245 0 0 0 -1 I I #
point $-1 -55.499740592669454 -27.534761587717245 -10.578366840021317 #
straight-curve $-1 -55.499740592669454 0 -10.578366840021317 0 1 0 I I #
point $-1 -55.499740592669454 27.534761587717245 -10.578366840021317 #
edge $-1 $207 -10.578366840021317 $237 10.578366840021317 $198 $254 forward 7 unknown #
vertex $-1 $200 $255 #
straight-curve $-1 -64.636044268439619 -26.034761587717245 -10.578366840021317 0 1 0 I I #
straight-curve $-1 -64.636044268439619 -26.034761587717245 10.578366840021317 0 -1 0 I I #
point $-1 -64.636044268439619 -24.534761587717245 10.578366840021317 #
point $-1 -64.636044268439619 -24.534761587717245 -10.578366840021317 #
point $-1 -64.636044268439619 -27.534761587717245 10.578366840021317 #
straight-curve $-1 -60.067892430554537 -27.534761587717245 -10.578366840021317 -1 0 0 I I #
coedge $-1 $217 $216 $219 $247 reversed $160 $-1 #
coedge $-1 $216 $217 $223 $250 reversed $160 $-1 #
straight-curve $-1 64.636044268439619 -24.534761587717245 0 0 0 -1 I I #
edge $-1 $230 -1.5 $221 1.5 $244 $256 forward 7 unknown #
straight-curve $-1 64.636044268439619 -27.534761587717245 0 0 0 -1 I I #
point $-1 64.636044268439619 -27.534761587717245 -10.578366840021317 #
edge $-1 $224 -1.5 $228 1.5 $245 $257 forward 7 unknown #
point $-1 64.636044268439619 -27.534761587717245 10.578366840021317 #
point $-1 64.636044268439619 -24.534761587717245 10.578366840021317 #
point $-1 64.636044268439619 -24.534761587717245 -10.578366840021317 #
straight-curve $-1 -64.636044268439619 -27.534761587717245 0 0 0 -1 I I #
point $-1 -64.636044268439619 -27.534761587717245 -10.578366840021317 #
straight-curve $-1 64.636044268439619 -26.034761587717245 -10.578366840021317 0 -1 0 I I #
straight-curve $-1 64.636044268439619 -26.034761587717245 10.578366840021317 0 1 0 I I #
End-of-ACIS-data 