500 0 10 0           
7 Unknown 11 ACIS 5.0 NT 24 Fri Mar 26 18:06:46 1999 
-1 9.9999999999999995e-007 1e-010 
body $-1 $10 $-1 $11 #
body $-1 $12 $-1 $13 #
body $-1 $14 $-1 $15 #
body $-1 $16 $-1 $17 #
body $-1 $18 $-1 $19 #
body $-1 $20 $-1 $21 #
body $-1 $22 $-1 $23 #
body $-1 $24 $-1 $25 #
body $-1 $26 $-1 $27 #
body $-1 $28 $-1 $29 #
lump $-1 $-1 $30 $0 #
transform $-1 1 0 0 0 1 0 0 0 1 72.425305948057499 38.674498909419427 7.843958398761548 1 rotate no_reflect no_shear #
lump $-1 $-1 $31 $1 #
transform $-1 1 0 0 0 1 0 0 0 1 72.425305948057499 38.674498909419427 7.843958398761548 1 rotate no_reflect no_shear #
lump $-1 $-1 $32 $2 #
transform $-1 1 0 0 0 1 0 0 0 1 72.425305948057499 38.674498909419427 7.843958398761548 1 rotate no_reflect no_shear #
lump $-1 $-1 $33 $3 #
transform $-1 1 0 0 0 1 0 0 0 1 72.425305948057499 38.674498909419427 7.843958398761548 1 rotate no_reflect no_shear #
lump $-1 $-1 $34 $4 #
transform $-1 1 0 0 0 1 0 0 0 1 72.425305948057499 38.674498909419427 7.843958398761548 1 rotate no_reflect no_shear #
lump $-1 $-1 $35 $5 #
transform $-1 1 0 0 0 1 0 0 0 1 72.425305948057499 38.674498909419427 7.843958398761548 1 rotate no_reflect no_shear #
lump $-1 $-1 $36 $6 #
transform $-1 1 0 0 0 1 0 0 0 1 72.425305948057499 38.674498909419427 7.843958398761548 1 rotate no_reflect no_shear #
lump $-1 $-1 $37 $7 #
transform $-1 1 0 0 0 1 0 0 0 1 72.425305948057499 38.674498909419427 7.843958398761548 1 rotate no_reflect no_shear #
lump $-1 $-1 $38 $8 #
transform $-1 1 0 0 0 1 0 0 0 1 72.425305948057499 38.674498909419427 7.843958398761548 1 rotate no_reflect no_shear #
lump $-1 $-1 $39 $9 #
transform $-1 1 0 0 0 1 0 0 0 1 72.425305948057499 38.674498909419427 7.843958398761548 1 rotate no_reflect no_shear #
shell $-1 $-1 $-1 $40 $-1 $10 #
shell $-1 $-1 $-1 $41 $-1 $12 #
shell $-1 $-1 $-1 $42 $-1 $14 #
shell $-1 $-1 $-1 $43 $-1 $16 #
shell $-1 $-1 $-1 $44 $-1 $18 #
shell $-1 $-1 $-1 $45 $-1 $20 #
shell $-1 $-1 $-1 $46 $-1 $22 #
shell $-1 $-1 $-1 $47 $-1 $24 #
shell $-1 $-1 $-1 $48 $-1 $26 #
shell $-1 $-1 $-1 $49 $-1 $28 #
face $-1 $50 $51 $30 $-1 $52 forward single #
face $-1 $53 $54 $31 $-1 $55 forward single #
face $-1 $56 $57 $32 $-1 $58 reversed single #
face $-1 $59 $60 $33 $-1 $61 forward single #
face $-1 $62 $63 $34 $-1 $64 forward single #
face $-1 $65 $66 $35 $-1 $67 forward single #
face $-1 $68 $69 $36 $-1 $70 reversed single #
face $-1 $71 $72 $37 $-1 $73 forward single #
face $-1 $74 $75 $38 $-1 $76 forward single #
face $-1 $77 $78 $39 $-1 $79 forward single #
face $-1 $80 $81 $30 $-1 $82 reversed single #
loop $-1 $-1 $83 $40 #
plane-surface $-1 0 0 7.843958398761548 0 0 1 1 0 0 forward_v I I I I #
face $-1 $84 $85 $31 $-1 $86 reversed single #
loop $-1 $-1 $87 $41 #
plane-surface $-1 0 -38.674498909419427 0 0 1 0 0 0 1 forward_v I I I I #
face $-1 $88 $89 $32 $-1 $90 reversed single #
loop $-1 $-1 $91 $42 #
plane-surface $-1 -188.10814945161638 -8.3696791450753629 91.573592168505854 0 1 0 -0.79863551827123203 0 0.60181501223851219 forward_v I I I I #
face $-1 $92 $93 $33 $-1 $94 forward single #
loop $-1 $95 $96 $43 #
cone-surface $-1 -69.933219959564681 -5.6674347697391667 5.2219417731263693 0.79863551827123203 0 -0.60181501223851219 0.60181501223851219 0 0.79863551827123203 1 I I 0 1 1 forward I I I I #
face $-1 $97 $98 $34 $-1 $99 forward single #
loop $-1 $100 $101 $44 #
cone-surface $-1 -69.933219959564681 -1.6140682067348777 5.2219417731263693 0.79863551827123203 0 -0.60181501223851219 0.60181501223851219 0 0.79863551827123203 1 I I 0 1 1 forward I I I I #
face $-1 $102 $103 $35 $-1 $104 forward single #
loop $-1 $105 $106 $45 #
cone-surface $-1 -69.933219959564681 2.4392983562694113 5.2219417731263693 0.79863551827123203 0 -0.60181501223851219 0.60181501223851219 0 0.79863551827123203 1 I I 0 1 1 forward I I I I #
face $-1 $107 $108 $36 $-1 $109 reversed single #
loop $-1 $-1 $110 $46 #
plane-surface $-1 -188.10814945161638 25.163277032738467 91.573592168505854 0 1 0 -0.79863551827123203 0 0.60181501223851219 forward_v I I I I #
face $-1 $111 $112 $37 $-1 $113 forward single #
loop $-1 $114 $115 $47 #
cone-surface $-1 -69.933219959564681 27.86552140807467 5.2219417731263693 0.79863551827123203 0 -0.60181501223851219 0.60181501223851219 0 0.79863551827123203 1 I I 0 1 1 forward I I I I #
face $-1 $116 $117 $38 $-1 $118 forward single #
loop $-1 $119 $120 $48 #
cone-surface $-1 -69.933219959564681 31.918887971078959 5.2219417731263693 0.79863551827123203 0 -0.60181501223851219 0.60181501223851219 0 0.79863551827123203 1 I I 0 1 1 forward I I I I #
face $-1 $121 $122 $39 $-1 $123 forward single #
loop $-1 $124 $125 $49 #
cone-surface $-1 -69.933219959564681 35.972254534083248 5.2219417731263693 0.79863551827123203 0 -0.60181501223851219 0.60181501223851219 0 0.79863551827123203 1 I I 0 1 1 forward I I I I #
face $-1 $126 $127 $30 $-1 $128 reversed single #
loop $-1 $-1 $129 $50 #
plane-surface $-1 0 0 -7.843958398761548 0 0 1 1 0 0 forward_v I I I I #
coedge $-1 $130 $131 $132 $133 forward $51 $-1 #
face $-1 $134 $135 $31 $-1 $136 reversed single #
loop $-1 $-1 $137 $53 #
plane-surface $-1 0 0 -7.843958398761548 0 0 1 1 0 0 forward_v I I I I #
coedge $-1 $138 $139 $140 $141 forward $54 $-1 #
face $-1 $142 $143 $32 $-1 $144 reversed single #
loop $-1 $-1 $145 $56 #
plane-surface $-1 -72.425305948057499 -1.6140682067348848 4.4003193974894259 -0.79863551827123203 0 0.60181501223851219 0.60181501223851219 0 0.79863551827123203 forward_v I I I I #
coedge $-1 $146 $147 $148 $149 reversed $57 $-1 #
face $-1 $-1 $150 $33 $-1 $151 forward single #
loop $-1 $152 $153 $59 #
cone-surface $-1 -68.339300233296655 -5.6674347697391667 4.0208371420079922 0.79863551827123203 0 -0.60181501223851219 0.3009075061192561 0 0.39931775913561601 1 I I -0.70710678118654746 0.70710678118654746 0.5 forward I I I I #
loop $-1 $-1 $154 $43 #
coedge $-1 $96 $96 $155 $156 reversed $60 $-1 #
face $-1 $-1 $157 $34 $-1 $158 forward single #
loop $-1 $159 $160 $62 #
cone-surface $-1 -68.339300233296655 -1.6140682067348777 4.0208371420079922 0.79863551827123203 0 -0.60181501223851219 0.3009075061192561 0 0.39931775913561601 1 I I -0.70710678118654746 0.70710678118654746 0.5 forward I I I I #
loop $-1 $-1 $161 $44 #
coedge $-1 $101 $101 $162 $163 reversed $63 $-1 #
face $-1 $-1 $164 $35 $-1 $165 forward single #
loop $-1 $166 $167 $65 #
cone-surface $-1 -68.339300233296655 2.4392983562694113 4.0208371420079922 0.79863551827123203 0 -0.60181501223851219 0.3009075061192561 0 0.39931775913561601 1 I I -0.70710678118654746 0.70710678118654746 0.5 forward I I I I #
loop $-1 $-1 $168 $45 #
coedge $-1 $106 $106 $169 $170 reversed $66 $-1 #
face $-1 $171 $172 $36 $-1 $173 forward single #
loop $-1 $-1 $174 $68 #
plane-surface $-1 -72.425305948057499 31.918887971078945 4.4003193974894259 -0.79863551827123203 0 0.60181501223851219 0.60181501223851219 0 0.79863551827123203 forward_v I I I I #
coedge $-1 $175 $176 $177 $178 reversed $69 $-1 #
face $-1 $-1 $179 $37 $-1 $180 forward single #
loop $-1 $181 $182 $71 #
cone-surface $-1 -68.339300233296655 27.86552140807467 4.0208371420079922 0.79863551827123203 0 -0.60181501223851219 0.3009075061192561 0 0.39931775913561601 1 I I -0.70710678118654746 0.70710678118654746 0.5 forward I I I I #
loop $-1 $-1 $183 $47 #
coedge $-1 $115 $115 $184 $185 reversed $72 $-1 #
face $-1 $-1 $186 $38 $-1 $187 forward single #
loop $-1 $188 $189 $74 #
cone-surface $-1 -68.339300233296655 31.918887971078959 4.0208371420079922 0.79863551827123203 0 -0.60181501223851219 0.3009075061192561 0 0.39931775913561601 1 I I -0.70710678118654746 0.70710678118654746 0.5 forward I I I I #
loop $-1 $-1 $190 $48 #
coedge $-1 $120 $120 $191 $192 reversed $75 $-1 #
face $-1 $-1 $193 $39 $-1 $194 forward single #
loop $-1 $195 $196 $77 #
cone-surface $-1 -68.339300233296655 35.972254534083248 4.0208371420079922 0.79863551827123203 0 -0.60181501223851219 0.3009075061192561 0 0.39931775913561601 1 I I -0.70710678118654746 0.70710678118654746 0.5 forward I I I I #
loop $-1 $-1 $197 $49 #
coedge $-1 $125 $125 $198 $199 reversed $78 $-1 #
face $-1 $200 $201 $30 $-1 $202 reversed single #
loop $-1 $-1 $203 $80 #
plane-surface $-1 0 -38.674498909419427 0 0 1 0 0 0 1 forward_v I I I I #
coedge $-1 $204 $205 $206 $207 forward $81 $-1 #
coedge $-1 $208 $83 $209 $210 forward $51 $-1 #
coedge $-1 $83 $208 $211 $212 forward $51 $-1 #
coedge $-1 $213 $214 $83 $133 reversed $215 $-1 #
edge $-1 $216 -38.674498909419427 $217 38.674498909419427 $132 $218 forward 7 unknown #
face $-1 $219 $220 $31 $-1 $221 reversed single #
loop $-1 $-1 $222 $84 #
plane-surface $-1 -58.297395367069619 -48.957584372630606 0 0 1 0 0 0 1 forward_v I I I I #
coedge $-1 $223 $224 $139 $225 forward $85 $-1 #
coedge $-1 $226 $87 $227 $228 reversed $54 $-1 #
coedge $-1 $87 $226 $137 $225 reversed $54 $-1 #
coedge $-1 $229 $230 $87 $141 reversed $220 $-1 #
edge $-1 $231 -7.843958398761548 $232 7.843958398761548 $140 $233 forward 7 unknown #
face $-1 $234 $235 $32 $-1 $236 reversed single #
loop $-1 $-1 $237 $88 #
plane-surface $-1 -188.10814945161638 5.1415427316055933 91.573592168505854 0 -1 0 0.79863551827123203 0 -0.60181501223851219 forward_v I I I I #
coedge $-1 $238 $239 $240 $241 reversed $89 $-1 #
coedge $-1 $147 $91 $242 $243 reversed $57 $-1 #
coedge $-1 $91 $146 $238 $244 reversed $57 $-1 #
coedge $-1 $240 $245 $91 $149 forward $246 $-1 #
edge $-1 $247 21.628768777750693 $248 24.223736820471487 $148 $249 forward 7 unknown #
loop $-1 $-1 $155 $92 #
plane-surface $-1 -72.425305948057499 -1.6140682067348848 4.4003193974894259 -0.79863551827123203 0 0.60181501223851219 0.60181501223851219 0 0.79863551827123203 forward_v I I I I #
loop $-1 $-1 $250 $59 #
coedge $-1 $153 $153 $154 $251 reversed $93 $-1 #
coedge $-1 $154 $154 $153 $251 forward $95 $-1 #
coedge $-1 $155 $155 $96 $156 forward $150 $-1 #
edge $-1 $252 0 $252 6.2831853071796004 $155 $253 forward 7 unknown #
loop $-1 $-1 $162 $97 #
plane-surface $-1 -72.425305948057499 -1.6140682067348848 4.4003193974894259 -0.79863551827123203 0 0.60181501223851219 0.60181501223851219 0 0.79863551827123203 forward_v I I I I #
loop $-1 $-1 $254 $62 #
coedge $-1 $160 $160 $161 $255 reversed $98 $-1 #
coedge $-1 $161 $161 $160 $255 forward $100 $-1 #
coedge $-1 $162 $162 $101 $163 forward $157 $-1 #
edge $-1 $256 0 $256 6.2831853071796004 $162 $257 forward 7 unknown #
loop $-1 $-1 $169 $102 #
plane-surface $-1 -72.425305948057499 -1.6140682067348848 4.4003193974894259 -0.79863551827123203 0 0.60181501223851219 0.60181501223851219 0 0.79863551827123203 forward_v I I I I #
loop $-1 $-1 $258 $65 #
coedge $-1 $167 $167 $168 $259 reversed $103 $-1 #
coedge $-1 $168 $168 $167 $259 forward $105 $-1 #
coedge $-1 $169 $169 $106 $170 forward $164 $-1 #
edge $-1 $260 0 $260 6.2831853071796004 $169 $261 forward 7 unknown #
face $-1 $262 $263 $36 $-1 $264 reversed single #
loop $-1 $-1 $177 $107 #
plane-surface $-1 0 0 7.843958398761548 0 0 1 1 0 0 forward_v I I I I #
coedge $-1 $265 $266 $267 $268 reversed $108 $-1 #
coedge $-1 $176 $110 $269 $270 reversed $69 $-1 #
coedge $-1 $110 $175 $265 $271 reversed $69 $-1 #
coedge $-1 $267 $272 $110 $178 forward $172 $-1 #
edge $-1 $273 21.628768777750693 $274 24.223736820471487 $177 $275 forward 7 unknown #
loop $-1 $-1 $184 $111 #
plane-surface $-1 -72.425305948057499 31.918887971078945 4.4003193974894259 -0.79863551827123203 0 0.60181501223851219 0.60181501223851219 0 0.79863551827123203 forward_v I I I I #
loop $-1 $-1 $276 $71 #
coedge $-1 $182 $182 $183 $277 reversed $112 $-1 #
coedge $-1 $183 $183 $182 $277 forward $114 $-1 #
coedge $-1 $184 $184 $115 $185 forward $179 $-1 #
edge $-1 $278 0 $278 6.2831853071796004 $184 $279 forward 7 unknown #
loop $-1 $-1 $191 $116 #
plane-surface $-1 -72.425305948057499 31.918887971078945 4.4003193974894259 -0.79863551827123203 0 0.60181501223851219 0.60181501223851219 0 0.79863551827123203 forward_v I I I I #
loop $-1 $-1 $280 $74 #
coedge $-1 $189 $189 $190 $281 reversed $117 $-1 #
coedge $-1 $190 $190 $189 $281 forward $119 $-1 #
coedge $-1 $191 $191 $120 $192 forward $186 $-1 #
edge $-1 $282 0 $282 6.2831853071796004 $191 $283 forward 7 unknown #
loop $-1 $-1 $198 $121 #
plane-surface $-1 -72.425305948057499 31.918887971078945 4.4003193974894259 -0.79863551827123203 0 0.60181501223851219 0.60181501223851219 0 0.79863551827123203 forward_v I I I I #
loop $-1 $-1 $284 $77 #
coedge $-1 $196 $196 $197 $285 reversed $122 $-1 #
coedge $-1 $197 $197 $196 $285 forward $124 $-1 #
coedge $-1 $198 $198 $125 $199 forward $193 $-1 #
edge $-1 $286 0 $286 6.2831853071796004 $198 $287 forward 7 unknown #
face $-1 $288 $289 $30 $-1 $290 reversed single #
loop $-1 $-1 $291 $126 #
plane-surface $-1 -72.425305948057499 0 0 1 0 0 0 0 -1 forward_v I I I I #
coedge $-1 $292 $211 $293 $294 forward $127 $-1 #
coedge $-1 $295 $129 $292 $296 forward $81 $-1 #
coedge $-1 $129 $295 $297 $298 forward $81 $-1 #
coedge $-1 $214 $213 $129 $207 reversed $215 $-1 #
edge $-1 $299 -38.674498909419427 $300 38.674498909419427 $206 $301 forward 7 unknown #
coedge $-1 $131 $130 $302 $303 forward $51 $-1 #
coedge $-1 $304 $305 $130 $210 reversed $289 $-1 #
edge $-1 $217 -72.425305948057499 $306 72.425305948057499 $209 $307 forward 7 unknown #
coedge $-1 $203 $308 $131 $212 reversed $127 $-1 #
edge $-1 $309 -72.425305948057499 $216 72.425305948057499 $211 $310 forward 7 unknown #
coedge $-1 $206 $132 $308 $311 forward $215 $-1 #
coedge $-1 $132 $206 $304 $312 reversed $215 $-1 #
loop $-1 $-1 $213 $288 #
vertex $-1 $133 $313 #
vertex $-1 $133 $314 #
straight-curve $-1 72.425305948057499 0 7.843958398761548 0 1 0 I I #
face $-1 $315 $316 $31 $-1 $317 reversed single #
loop $-1 $-1 $140 $134 #
plane-surface $-1 -59.857401583604833 -43.816041641025016 0 1 0 0 0 0 -1 forward_v I I I I #
coedge $-1 $318 $319 $320 $321 forward $135 $-1 #
coedge $-1 $322 $137 $323 $324 forward $85 $-1 #
coedge $-1 $137 $322 $229 $325 forward $85 $-1 #
edge $-1 $231 -59.857401583604833 $326 -56.737389150534405 $137 $327 forward 7 unknown #
coedge $-1 $139 $138 $328 $329 forward $54 $-1 #
coedge $-1 $330 $331 $138 $228 forward $332 $-1 #
edge $-1 $333 56.737389150534405 $232 59.857401583604833 $227 $334 forward 7 unknown #
coedge $-1 $320 $140 $224 $325 reversed $220 $-1 #
coedge $-1 $140 $320 $330 $335 reversed $220 $-1 #
vertex $-1 $225 $336 #
vertex $-1 $335 $337 #
straight-curve $-1 -59.857401583604833 -38.674498909419427 0 0 0 1 I I #
face $-1 $-1 $246 $32 $-1 $338 forward single #
loop $-1 $-1 $339 $142 #
plane-surface $-1 -72.425305948057499 0 0 1 0 0 0 0 -1 forward_v I I I I #
coedge $-1 $340 $341 $342 $343 reversed $143 $-1 #
coedge $-1 $344 $145 $147 $244 forward $89 $-1 #
coedge $-1 $145 $344 $340 $345 forward $89 $-1 #
coedge $-1 $342 $148 $145 $241 forward $246 $-1 #
edge $-1 $248 -7.5626450417079205 $346 5.9485768349730357 $240 $347 forward 7 unknown #
coedge $-1 $348 $349 $146 $243 forward $235 $-1 #
edge $-1 $350 -41.386476686763501 $247 -37.942837685491376 $242 $351 forward 7 unknown #
edge $-1 $248 -4.3119031429085517 $350 0 $147 $352 forward 7 unknown #
coedge $-1 $148 $342 $348 $353 forward $246 $-1 #
loop $-1 $-1 $342 $234 #
vertex $-1 $243 $354 #
vertex $-1 $149 $355 #
straight-curve $-1 -94.054074725808192 -8.3696791450753629 7.8439583987615507 1 0 0 I I #
coedge $-1 $250 $250 $-1 $356 reversed $152 $-1 #
edge $-1 $357 0 $357 6.2831853071796004 $153 $358 forward 7 unknown #
vertex $-1 $156 $359 #
ellipse-curve $-1 -71.127821926697095 -5.6674347697391667 6.1221388981254927 -0.79863551827123203 0 0.60181501223851219 0.60181501223851219 0 0.79863551827123203 1 I I #
coedge $-1 $254 $254 $-1 $360 reversed $159 $-1 #
edge $-1 $361 0 $361 6.2831853071796004 $160 $362 forward 7 unknown #
vertex $-1 $163 $363 #
ellipse-curve $-1 -71.127821926697095 -1.6140682067348777 6.1221388981254927 -0.79863551827123203 0 0.60181501223851219 0.60181501223851219 0 0.79863551827123203 1 I I #
coedge $-1 $258 $258 $-1 $364 reversed $166 $-1 #
edge $-1 $365 0 $365 6.2831853071796004 $167 $366 forward 7 unknown #
vertex $-1 $170 $367 #
ellipse-curve $-1 -71.127821926697095 2.4392983562694113 6.1221388981254927 -0.79863551827123203 0 0.60181501223851219 0.60181501223851219 0 0.79863551827123203 1 I I #
face $-1 $-1 $368 $36 $-1 $369 reversed single #
loop $-1 $-1 $269 $171 #
plane-surface $-1 -72.425305948057499 0 0 1 0 0 0 0 -1 forward_v I I I I #
coedge $-1 $370 $174 $176 $271 forward $108 $-1 #
coedge $-1 $174 $370 $371 $372 reversed $108 $-1 #
coedge $-1 $373 $177 $174 $268 forward $172 $-1 #
edge $-1 $274 9.2038330471989944 $374 22.715054923879954 $267 $375 forward 7 unknown #
coedge $-1 $376 $377 $175 $270 forward $263 $-1 #
edge $-1 $378 -41.386476686763501 $273 -37.942837685491376 $269 $379 forward 7 unknown #
edge $-1 $274 -4.3119031429085517 $378 0 $176 $380 forward 7 unknown #
coedge $-1 $177 $373 $376 $381 forward $172 $-1 #
vertex $-1 $178 $382 #
vertex $-1 $178 $383 #
straight-curve $-1 -94.054074725808192 25.163277032738467 7.8439583987615507 1 0 0 I I #
coedge $-1 $276 $276 $-1 $384 reversed $181 $-1 #
edge $-1 $385 0 $385 6.2831853071796004 $182 $386 forward 7 unknown #
vertex $-1 $185 $387 #
ellipse-curve $-1 -71.127821926697095 27.86552140807467 6.1221388981254927 -0.79863551827123203 0 0.60181501223851219 0.60181501223851219 0 0.79863551827123203 1 I I #
coedge $-1 $280 $280 $-1 $388 reversed $188 $-1 #
edge $-1 $389 0 $389 6.2831853071796004 $189 $390 forward 7 unknown #
vertex $-1 $192 $391 #
ellipse-curve $-1 -71.127821926697095 31.918887971078959 6.1221388981254927 -0.79863551827123203 0 0.60181501223851219 0.60181501223851219 0 0.79863551827123203 1 I I #
coedge $-1 $284 $284 $-1 $392 reversed $195 $-1 #
edge $-1 $393 0 $393 6.2831853071796004 $196 $394 forward 7 unknown #
vertex $-1 $199 $395 #
ellipse-curve $-1 -71.127821926697095 35.972254534083248 6.1221388981254927 -0.79863551827123203 0 0.60181501223851219 0.60181501223851219 0 0.79863551827123203 1 I I #
face $-1 $-1 $215 $30 $-1 $396 reversed single #
loop $-1 $-1 $304 $200 #
plane-surface $-1 0 38.674498909419427 0 0 -1 0 0 0 -1 forward_v I I I I #
coedge $-1 $397 $302 $305 $398 forward $201 $-1 #
coedge $-1 $308 $203 $204 $296 reversed $127 $-1 #
coedge $-1 $302 $397 $203 $294 reversed $201 $-1 #
edge $-1 $309 -7.843958398761548 $399 7.843958398761548 $293 $400 forward 7 unknown #
coedge $-1 $205 $204 $397 $401 forward $81 $-1 #
edge $-1 $300 -72.425305948057499 $399 72.425305948057499 $292 $402 forward 7 unknown #
coedge $-1 $305 $304 $205 $298 reversed $289 $-1 #
edge $-1 $403 -72.425305948057499 $299 72.425305948057499 $297 $404 forward 7 unknown #
vertex $-1 $207 $405 #
vertex $-1 $311 $406 #
straight-curve $-1 72.425305948057499 0 -7.843958398761548 0 -1 0 I I #
coedge $-1 $291 $293 $208 $303 reversed $201 $-1 #
edge $-1 $306 -38.674498909419427 $309 38.674498909419427 $302 $407 forward 7 unknown #
coedge $-1 $297 $209 $214 $312 forward $289 $-1 #
coedge $-1 $209 $297 $291 $398 reversed $289 $-1 #
vertex $-1 $210 $408 #
straight-curve $-1 0 38.674498909419427 7.843958398761548 -1 0 0 I I #
coedge $-1 $211 $292 $213 $311 reversed $127 $-1 #
vertex $-1 $303 $409 #
straight-curve $-1 0 -38.674498909419427 7.843958398761548 1 0 0 I I #
edge $-1 $216 -7.843958398761548 $300 7.843958398761548 $213 $410 forward 7 unknown #
edge $-1 $217 -7.843958398761548 $299 7.843958398761548 $214 $411 forward 7 unknown #
point $-1 72.425305948057499 -38.674498909419427 7.843958398761548 #
point $-1 72.425305948057499 38.674498909419427 7.843958398761548 #
face $-1 $-1 $332 $31 $-1 $412 forward single #
loop $-1 $-1 $413 $219 #
plane-surface $-1 -56.737389150534405 -43.816041641025016 0 -1 0 0 0 0 1 forward_v I I I I #
coedge $-1 $414 $222 $322 $415 reversed $135 $-1 #
coedge $-1 $222 $414 $416 $417 reversed $135 $-1 #
coedge $-1 $230 $229 $222 $321 reversed $220 $-1 #
edge $-1 $418 -7.843958398761548 $419 7.843958398761548 $320 $420 forward 7 unknown #
coedge $-1 $224 $223 $318 $415 forward $85 $-1 #
coedge $-1 $328 $413 $223 $324 reversed $316 $-1 #
edge $-1 $326 -5.1415427316055897 $421 5.1415427316055897 $323 $422 forward 7 unknown #
edge $-1 $419 -5.1415427316055897 $231 5.1415427316055897 $229 $423 forward 7 unknown #
vertex $-1 $324 $424 #
straight-curve $-1 0 -38.674498909419427 -7.843958398761548 1 0 0 I I #
coedge $-1 $425 $323 $226 $329 reversed $316 $-1 #
edge $-1 $333 -7.843958398761548 $326 7.843958398761548 $328 $426 forward 7 unknown #
coedge $-1 $416 $227 $230 $335 forward $332 $-1 #
coedge $-1 $227 $416 $425 $427 forward $332 $-1 #
loop $-1 $-1 $227 $315 #
vertex $-1 $228 $428 #
straight-curve $-1 0 -38.674498909419427 7.843958398761548 -1 0 0 I I #
edge $-1 $232 -5.1415427316055897 $418 5.1415427316055897 $230 $429 forward 7 unknown #
point $-1 -59.857401583604833 -38.674498909419427 -7.843958398761548 #
point $-1 -59.857401583604833 -38.674498909419427 7.843958398761548 #
plane-surface $-1 0 0 7.843958398761548 0 0 1 1 0 0 forward_v I I I I #
coedge $-1 $349 $348 $341 $430 forward $235 $-1 #
coedge $-1 $341 $237 $239 $345 reversed $143 $-1 #
coedge $-1 $237 $340 $339 $430 reversed $143 $-1 #
coedge $-1 $245 $240 $237 $343 forward $246 $-1 #
edge $-1 $346 -24.223736820471487 $431 -21.628768777750693 $342 $432 forward 7 unknown #
coedge $-1 $239 $238 $349 $433 reversed $89 $-1 #
edge $-1 $434 0 $346 4.3119031429085517 $340 $435 forward 7 unknown #
vertex $-1 $241 $436 #
straight-curve $-1 -69.830337905336705 -0.80703410336744241 7.8439583987615489 0 1 0 I I #
coedge $-1 $339 $242 $245 $353 reversed $235 $-1 #
coedge $-1 $242 $339 $344 $433 forward $235 $-1 #
vertex $-1 $243 $437 #
straight-curve $-1 -72.425305948057499 -8.3696791450753629 45.786796084252927 0 0 1 I I #
straight-curve $-1 -72.425305948057499 -8.3696791450753629 4.4003193974894259 -0.60181501223851219 0 -0.79863551827123203 I I #
edge $-1 $431 -5.1415427316055933 $247 8.3696791450753629 $348 $438 forward 7 unknown #
point $-1 -72.425305948057499 -8.3696791450753629 7.843958398761548 #
point $-1 -69.830337905336705 -8.3696791450753629 7.843958398761548 #
edge $-1 $439 1 $439 0 $250 $-1 forward 7 unknown #
vertex $-1 $251 $440 #
ellipse-curve $-1 -68.738617992432268 -5.6674347697391667 4.3217446481272486 -0.79863551827123203 0 0.60181501223851219 0.60181501223851219 0 0.79863551827123203 1 I I #
point $-1 -70.526006914458591 -5.6674347697391667 6.9207744163967231 #
edge $-1 $441 1 $441 0 $254 $-1 forward 7 unknown #
vertex $-1 $255 $442 #
ellipse-curve $-1 -68.738617992432268 -1.6140682067348777 4.3217446481272486 -0.79863551827123203 0 0.60181501223851219 0.60181501223851219 0 0.79863551827123203 1 I I #
point $-1 -70.526006914458591 -1.6140682067348777 6.9207744163967231 #
edge $-1 $443 1 $443 0 $258 $-1 forward 7 unknown #
vertex $-1 $259 $444 #
ellipse-curve $-1 -68.738617992432268 2.4392983562694113 4.3217446481272486 -0.79863551827123203 0 0.60181501223851219 0.60181501223851219 0 0.79863551827123203 1 I I #
point $-1 -70.526006914458591 2.4392983562694113 6.9207744163967231 #
loop $-1 $-1 $371 $262 #
plane-surface $-1 0 38.674498909419427 0 0 -1 0 0 0 -1 forward_v I I I I #
coedge $-1 $266 $265 $377 $445 reversed $108 $-1 #
coedge $-1 $446 $447 $266 $372 forward $368 $-1 #
edge $-1 $374 15.724289368559095 $448 20.036192511467647 $371 $449 forward 7 unknown #
coedge $-1 $272 $267 $447 $450 forward $172 $-1 #
vertex $-1 $450 $451 #
straight-curve $-1 -69.830337905336705 15.959443985539473 7.8439583987615489 0 1 0 I I #
coedge $-1 $452 $269 $272 $381 reversed $263 $-1 #
coedge $-1 $269 $452 $370 $445 forward $263 $-1 #
vertex $-1 $270 $453 #
straight-curve $-1 -72.425305948057499 25.163277032738467 45.786796084252927 0 0 1 I I #
straight-curve $-1 -72.425305948057499 25.163277032738467 4.4003193974894259 -0.60181501223851219 0 -0.79863551827123203 I I #
edge $-1 $454 -38.674498909419427 $273 -25.163277032738467 $376 $455 forward 7 unknown #
point $-1 -72.425305948057499 25.163277032738467 7.843958398761548 #
point $-1 -69.830337905336705 25.163277032738467 7.843958398761548 #
edge $-1 $456 1 $456 0 $276 $-1 forward 7 unknown #
vertex $-1 $277 $457 #
ellipse-curve $-1 -68.738617992432268 27.86552140807467 4.3217446481272486 -0.79863551827123203 0 0.60181501223851219 0.60181501223851219 0 0.79863551827123203 1 I I #
point $-1 -70.526006914458591 27.86552140807467 6.9207744163967231 #
edge $-1 $458 1 $458 0 $280 $-1 forward 7 unknown #
vertex $-1 $281 $459 #
ellipse-curve $-1 -68.738617992432268 31.918887971078959 4.3217446481272486 -0.79863551827123203 0 0.60181501223851219 0.60181501223851219 0 0.79863551827123203 1 I I #
point $-1 -70.526006914458591 31.918887971078959 6.9207744163967231 #
edge $-1 $460 1 $460 0 $284 $-1 forward 7 unknown #
vertex $-1 $285 $461 #
ellipse-curve $-1 -68.738617992432268 35.972254534083248 4.3217446481272486 -0.79863551827123203 0 0.60181501223851219 0.60181501223851219 0 0.79863551827123203 1 I I #
point $-1 -70.526006914458591 35.972254534083248 6.9207744163967231 #
plane-surface $-1 72.425305948057499 0 0 -1 0 0 0 0 1 forward_v I I I I #
coedge $-1 $293 $291 $295 $401 reversed $201 $-1 #
edge $-1 $306 -7.843958398761548 $403 7.843958398761548 $305 $462 forward 7 unknown #
vertex $-1 $401 $463 #
straight-curve $-1 -72.425305948057499 -38.674498909419427 0 0 0 -1 I I #
edge $-1 $399 -38.674498909419427 $403 38.674498909419427 $397 $464 forward 7 unknown #
straight-curve $-1 0 -38.674498909419427 -7.843958398761548 -1 0 0 I I #
vertex $-1 $298 $465 #
straight-curve $-1 0 38.674498909419427 -7.843958398761548 1 0 0 I I #
point $-1 72.425305948057499 38.674498909419427 -7.843958398761548 #
point $-1 72.425305948057499 -38.674498909419427 -7.843958398761548 #
straight-curve $-1 -72.425305948057499 0 7.843958398761548 0 -1 0 I I #
point $-1 -72.425305948057499 38.674498909419427 7.843958398761548 #
point $-1 -72.425305948057499 -38.674498909419427 7.843958398761548 #
straight-curve $-1 72.425305948057499 -38.674498909419427 0 0 0 -1 I I #
straight-curve $-1 72.425305948057499 38.674498909419427 0 0 0 -1 I I #
plane-surface $-1 0 0 7.843958398761548 0 0 1 1 0 0 forward_v I I I I #
coedge $-1 $323 $425 $414 $466 forward $316 $-1 #
coedge $-1 $319 $318 $413 $466 reversed $135 $-1 #
edge $-1 $421 -1.5600062165352142 $419 1.5600062165352142 $318 $467 forward 7 unknown #
coedge $-1 $331 $330 $319 $417 forward $332 $-1 #
edge $-1 $418 -1.5600062165352142 $468 1.5600062165352142 $319 $469 forward 7 unknown #
vertex $-1 $335 $470 #
vertex $-1 $325 $471 #
straight-curve $-1 -59.857401583604833 -48.957584372630606 0 0 0 -1 I I #
vertex $-1 $466 $472 #
straight-curve $-1 -56.737389150534405 -43.816041641025016 -7.843958398761548 0 -1 0 I I #
straight-curve $-1 -59.857401583604833 -43.816041641025016 -7.843958398761548 0 1 0 I I #
point $-1 -56.737389150534405 -38.674498909419427 -7.843958398761548 #
coedge $-1 $413 $328 $331 $427 reversed $316 $-1 #
straight-curve $-1 -56.737389150534405 -38.674498909419427 0 0 0 -1 I I #
edge $-1 $468 -5.1415427316055897 $333 5.1415427316055897 $425 $473 forward 7 unknown #
point $-1 -56.737389150534405 -38.674498909419427 7.843958398761548 #
straight-curve $-1 -59.857401583604833 -43.816041641025016 7.843958398761548 0 -1 0 I I #
edge $-1 $431 37.942837685491376 $434 41.386476686763501 $339 $474 forward 7 unknown #
vertex $-1 $353 $475 #
straight-curve $-1 -94.054074725808192 5.1415427316055933 7.8439583987615507 -1 0 0 I I #
edge $-1 $434 -5.9485768349730357 $350 7.5626450417079205 $349 $476 forward 7 unknown #
vertex $-1 $433 $477 #
straight-curve $-1 -72.425305948057499 5.1415427316055933 4.4003193974894259 0.60181501223851219 0 0.79863551827123203 I I #
point $-1 -69.830337905336705 5.1415427316055933 7.843958398761548 #
point $-1 -72.425305948057499 -8.3696791450753629 4.4003193974894259 #
straight-curve $-1 -72.425305948057499 0 7.843958398761548 0 -1 0 I I #
vertex $-1 $356 $478 #
point $-1 -68.136802980193764 -5.6674347697391667 5.1203801663984798 #
vertex $-1 $360 $479 #
point $-1 -68.136802980193764 -1.6140682067348777 5.1203801663984798 #
vertex $-1 $364 $480 #
point $-1 -68.136802980193764 2.4392983562694113 5.1203801663984798 #
edge $-1 $448 -22.715054923879954 $378 -9.2038330471989944 $377 $481 forward 7 unknown #
coedge $-1 $447 $371 $452 $482 reversed $368 $-1 #
coedge $-1 $371 $446 $373 $450 reversed $368 $-1 #
vertex $-1 $372 $483 #
straight-curve $-1 -60.367224506555409 38.674498909419427 20.401934388067566 -0.60181501223851219 0 -0.79863551827123203 I I #
edge $-1 $374 69.830337905336705 $454 72.425305948057499 $447 $484 forward 7 unknown #
point $-1 -69.830337905336705 38.674498909419427 7.843958398761548 #
coedge $-1 $377 $376 $446 $482 forward $263 $-1 #
point $-1 -72.425305948057499 25.163277032738467 4.4003193974894259 #
vertex $-1 $450 $485 #
straight-curve $-1 -72.425305948057499 0 7.843958398761548 0 -1 0 I I #
vertex $-1 $384 $486 #
point $-1 -68.136802980193764 27.86552140807467 5.1203801663984798 #
vertex $-1 $388 $487 #
point $-1 -68.136802980193764 31.918887971078959 5.1203801663984798 #
vertex $-1 $392 $488 #
point $-1 -68.136802980193764 35.972254534083248 5.1203801663984798 #
straight-curve $-1 -72.425305948057499 38.674498909419427 0 0 0 -1 I I #
point $-1 -72.425305948057499 -38.674498909419427 -7.843958398761548 #
straight-curve $-1 -72.425305948057499 0 -7.843958398761548 0 1 0 I I #
point $-1 -72.425305948057499 38.674498909419427 -7.843958398761548 #
edge $-1 $468 -7.843958398761548 $421 7.843958398761548 $413 $489 forward 7 unknown #
straight-curve $-1 -58.297395367069619 -48.957584372630606 -7.843958398761548 -1 0 0 I I #
vertex $-1 $427 $490 #
straight-curve $-1 -58.297395367069619 -48.957584372630606 7.843958398761548 1 0 0 I I #
point $-1 -59.857401583604833 -48.957584372630606 7.843958398761548 #
point $-1 -59.857401583604833 -48.957584372630606 -7.843958398761548 #
point $-1 -56.737389150534405 -48.957584372630606 -7.843958398761548 #
straight-curve $-1 -56.737389150534405 -43.816041641025016 7.843958398761548 0 1 0 I I #
straight-curve $-1 -72.425305948057499 5.1415427316055933 45.786796084252927 0 0 -1 I I #
point $-1 -72.425305948057499 5.1415427316055933 7.843958398761548 #
straight-curve $-1 -72.425305948057499 -0.80703410336744241 4.4003193974894321 0 -1 0 I I #
point $-1 -72.425305948057499 5.1415427316055933 4.4003193974894259 #
point $-1 -67.939982474161042 -5.6674347697391667 3.7199296358887359 #
point $-1 -67.939982474161042 -1.6140682067348777 3.7199296358887359 #
point $-1 -67.939982474161042 2.4392983562694113 3.7199296358887359 #
straight-curve $-1 -72.425305948057499 15.959443985539473 4.4003193974894321 0 -1 0 I I #
edge $-1 $454 -7.843958398761548 $448 -4.4003193974894259 $446 $491 forward 7 unknown #
point $-1 -72.425305948057499 38.674498909419427 4.4003193974894259 #
straight-curve $-1 0 38.674498909419427 7.843958398761548 -1 0 0 I I #
point $-1 -72.425305948057499 38.674498909419427 7.843958398761548 #
point $-1 -67.939982474161042 27.86552140807467 3.7199296358887359 #
point $-1 -67.939982474161042 31.918887971078959 3.7199296358887359 #
point $-1 -67.939982474161042 35.972254534083248 3.7199296358887359 #
straight-curve $-1 -56.737389150534405 -48.957584372630606 0 0 0 -1 I I #
point $-1 -56.737389150534405 -48.957584372630606 7.843958398761548 #
straight-curve $-1 -72.425305948057499 38.674498909419427 0 0 0 -1 I I #
End-of-ACIS-data 