500 0 8 0           
7 Unknown 11 ACIS 5.0 NT 24 Fri Mar 26 03:12:32 1999 
-1 9.9999999999999995e-007 1e-010 
body $-1 $8 $-1 $9 #
body $-1 $10 $-1 $11 #
body $-1 $12 $-1 $13 #
body $-1 $14 $-1 $15 #
body $-1 $16 $-1 $17 #
body $-1 $18 $-1 $19 #
body $-1 $20 $-1 $21 #
body $-1 $22 $-1 $23 #
lump $-1 $-1 $24 $0 #
transform $-1 1 0 0 0 1 0 0 0 1 65.16800439466536 41.757283348184281 9.3557877041137392 1 rotate no_reflect no_shear #
lump $-1 $-1 $25 $1 #
transform $-1 1 0 0 0 1 0 0 0 1 65.16800439466536 41.757283348184281 9.3557877041137392 1 rotate no_reflect no_shear #
lump $-1 $-1 $26 $2 #
transform $-1 1 0 0 0 1 0 0 0 1 65.16800439466536 41.757283348184281 9.3557877041137392 1 rotate no_reflect no_shear #
lump $-1 $-1 $27 $3 #
transform $-1 1 0 0 0 1 0 0 0 1 65.16800439466536 41.757283348184281 9.3557877041137392 1 rotate no_reflect no_shear #
lump $-1 $-1 $28 $4 #
transform $-1 1 0 0 0 1 0 0 0 1 65.16800439466536 41.757283348184281 9.3557877041137392 1 rotate no_reflect no_shear #
lump $-1 $-1 $29 $5 #
transform $-1 1 0 0 0 1 0 0 0 1 65.16800439466536 41.757283348184281 9.3557877041137392 1 rotate no_reflect no_shear #
lump $-1 $-1 $30 $6 #
transform $-1 1 0 0 0 1 0 0 0 1 65.16800439466536 41.757283348184281 9.3557877041137392 1 rotate no_reflect no_shear #
lump $-1 $-1 $31 $7 #
transform $-1 1 0 0 0 1 0 0 0 1 65.16800439466536 41.757283348184281 9.3557877041137392 1 rotate no_reflect no_shear #
shell $-1 $-1 $-1 $32 $-1 $8 #
shell $-1 $-1 $-1 $33 $-1 $10 #
shell $-1 $-1 $-1 $34 $-1 $12 #
shell $-1 $-1 $-1 $35 $-1 $14 #
shell $-1 $-1 $-1 $36 $-1 $16 #
shell $-1 $-1 $-1 $37 $-1 $18 #
shell $-1 $-1 $-1 $38 $-1 $20 #
shell $-1 $-1 $-1 $39 $-1 $22 #
face $-1 $40 $41 $24 $-1 $42 forward single #
face $-1 $43 $44 $25 $-1 $45 forward single #
face $-1 $46 $47 $26 $-1 $48 reversed single #
face $-1 $49 $50 $27 $-1 $51 forward single #
face $-1 $52 $53 $28 $-1 $54 forward single #
face $-1 $55 $56 $29 $-1 $57 reversed single #
face $-1 $58 $59 $30 $-1 $60 forward single #
face $-1 $61 $62 $31 $-1 $63 forward single #
face $-1 $64 $65 $24 $-1 $66 reversed single #
loop $-1 $-1 $67 $32 #
plane-surface $-1 0 0 9.3557877041137392 0 0 1 1 0 0 forward_v I I I I #
face $-1 $68 $69 $25 $-1 $70 reversed single #
loop $-1 $-1 $71 $33 #
plane-surface $-1 -65.16800439466536 0 0 1 0 0 0 0 -1 forward_v I I I I #
face $-1 $72 $73 $26 $-1 $74 reversed single #
loop $-1 $-1 $75 $34 #
plane-surface $-1 52.310287225955449 1.7763568394002505e-015 185.7052128943028 0 -1 0 -0.6560590369687036 0 -0.75470957328743171 forward_v I I I I #
face $-1 $76 $77 $27 $-1 $78 forward single #
loop $-1 $79 $80 $35 #
cone-surface $-1 59.532849036511742 -12.72431184552541 4.089800972740651 -0.6560590369687036 0 -0.75470957328743171 1.1320643599311475 0 -0.9840885554530554 1 I I 0 1 1.5 forward I I I I #
face $-1 $81 $82 $28 $-1 $83 forward single #
loop $-1 $84 $85 $36 #
cone-surface $-1 59.532849036511742 -5.0897247382101654 4.089800972740651 -0.6560590369687036 0 -0.75470957328743171 1.1320643599311475 0 -0.9840885554530554 1 I I 0 1 1.5 forward I I I I #
face $-1 $86 $87 $29 $-1 $88 reversed single #
loop $-1 $-1 $89 $37 #
plane-surface $-1 52.310287225955449 17.814036583735579 185.7052128943028 0 -1 0 -0.6560590369687036 0 -0.75470957328743171 forward_v I I I I #
face $-1 $90 $91 $30 $-1 $92 forward single #
loop $-1 $93 $94 $38 #
cone-surface $-1 59.532849036511742 5.0897247382101725 4.089800972740651 -0.6560590369687036 0 -0.75470957328743171 1.1320643599311475 0 -0.9840885554530554 1 I I 0 1 1.5 forward I I I I #
face $-1 $95 $96 $31 $-1 $97 forward single #
loop $-1 $98 $99 $39 #
cone-surface $-1 59.532849036511742 12.724311845525413 4.089800972740651 -0.6560590369687036 0 -0.75470957328743171 1.1320643599311475 0 -0.9840885554530554 1 I I 0 1 1.5 forward I I I I #
face $-1 $100 $101 $24 $-1 $102 reversed single #
loop $-1 $-1 $103 $40 #
plane-surface $-1 0 0 -9.3557877041137392 0 0 1 1 0 0 forward_v I I I I #
coedge $-1 $104 $105 $106 $107 forward $41 $-1 #
face $-1 $108 $109 $25 $-1 $110 reversed single #
loop $-1 $-1 $111 $43 #
plane-surface $-1 0 0 -9.3557877041137392 0 0 1 1 0 0 forward_v I I I I #
coedge $-1 $112 $113 $114 $115 forward $44 $-1 #
face $-1 $116 $117 $26 $-1 $118 reversed single #
loop $-1 $-1 $119 $46 #
plane-surface $-1 -33.197829182717356 -8.9070182918677858 87.339379316920073 0.6560590369687036 0 0.75470957328743171 0.75470957328743171 0 -0.6560590369687036 forward_v I I I I #
coedge $-1 $120 $121 $122 $123 reversed $47 $-1 #
face $-1 $-1 $124 $27 $-1 $125 forward single #
loop $-1 $126 $127 $49 #
cone-surface $-1 57.733637110486114 -12.72431184552541 2.0200444593352369 -0.6560590369687036 0 -0.75470957328743171 0.56603217996557376 0 -0.4920442777265277 1 I I -0.70710678118654757 0.70710678118654757 0.75 forward I I I I #
loop $-1 $-1 $128 $35 #
coedge $-1 $80 $80 $129 $130 reversed $50 $-1 #
face $-1 $-1 $131 $28 $-1 $132 forward single #
loop $-1 $133 $134 $52 #
cone-surface $-1 57.733637110486114 -5.0897247382101654 2.0200444593352369 -0.6560590369687036 0 -0.75470957328743171 0.56603217996557376 0 -0.4920442777265277 1 I I -0.70710678118654757 0.70710678118654757 0.75 forward I I I I #
loop $-1 $-1 $135 $36 #
coedge $-1 $85 $85 $136 $137 reversed $53 $-1 #
face $-1 $138 $139 $29 $-1 $140 forward single #
loop $-1 $-1 $141 $55 #
plane-surface $-1 -33.197829182717356 -8.9070182918677858 87.339379316920073 0.6560590369687036 0 0.75470957328743171 0.75470957328743171 0 -0.6560590369687036 forward_v I I I I #
coedge $-1 $142 $143 $144 $145 reversed $56 $-1 #
face $-1 $-1 $146 $30 $-1 $147 forward single #
loop $-1 $148 $149 $58 #
cone-surface $-1 57.733637110486114 5.0897247382101725 2.0200444593352369 -0.6560590369687036 0 -0.75470957328743171 0.56603217996557376 0 -0.4920442777265277 1 I I -0.70710678118654757 0.70710678118654757 0.75 forward I I I I #
loop $-1 $-1 $150 $38 #
coedge $-1 $94 $94 $151 $152 reversed $59 $-1 #
face $-1 $-1 $153 $31 $-1 $154 forward single #
loop $-1 $155 $156 $61 #
cone-surface $-1 57.733637110486114 12.724311845525413 2.0200444593352369 -0.6560590369687036 0 -0.75470957328743171 0.56603217996557376 0 -0.4920442777265277 1 I I -0.70710678118654757 0.70710678118654757 0.75 forward I I I I #
loop $-1 $-1 $157 $39 #
coedge $-1 $99 $99 $158 $159 reversed $62 $-1 #
face $-1 $160 $161 $24 $-1 $162 reversed single #
loop $-1 $-1 $163 $64 #
plane-surface $-1 0 -41.757283348184281 0 0 1 0 0 0 1 forward_v I I I I #
coedge $-1 $164 $165 $166 $167 forward $65 $-1 #
coedge $-1 $168 $67 $169 $170 forward $41 $-1 #
coedge $-1 $67 $168 $171 $172 forward $41 $-1 #
coedge $-1 $173 $174 $67 $107 reversed $175 $-1 #
edge $-1 $176 -41.757283348184281 $177 41.757283348184281 $106 $178 forward 7 unknown #
face $-1 $179 $180 $25 $-1 $181 reversed single #
loop $-1 $-1 $182 $68 #
plane-surface $-1 -68.712490835645795 -33.918517676206292 0 0 1 0 0 0 1 forward_v I I I I #
coedge $-1 $183 $184 $113 $185 forward $69 $-1 #
coedge $-1 $186 $71 $187 $188 reversed $44 $-1 #
coedge $-1 $71 $186 $111 $185 reversed $44 $-1 #
coedge $-1 $189 $190 $71 $115 reversed $191 $-1 #
edge $-1 $192 -9.3557877041137392 $193 9.3557877041137392 $114 $194 forward 7 unknown #
face $-1 $195 $196 $26 $-1 $197 forward single #
loop $-1 $-1 $198 $72 #
plane-surface $-1 52.310287225955449 -17.814036583735572 185.7052128943028 0 1 0 0.6560590369687036 0 0.75470957328743171 forward_v I I I I #
coedge $-1 $199 $200 $201 $202 reversed $73 $-1 #
coedge $-1 $121 $75 $203 $204 reversed $47 $-1 #
coedge $-1 $75 $120 $199 $205 reversed $47 $-1 #
coedge $-1 $201 $206 $75 $123 forward $196 $-1 #
edge $-1 $207 -39.012860781687635 $208 -30.356885361978613 $122 $209 forward 7 unknown #
loop $-1 $-1 $129 $76 #
plane-surface $-1 -33.197829182717356 -8.9070182918677858 87.339379316920073 0.6560590369687036 0 0.75470957328743171 0.75470957328743171 0 -0.6560590369687036 forward_v I I I I #
loop $-1 $-1 $210 $49 #
coedge $-1 $127 $127 $128 $211 reversed $77 $-1 #
coedge $-1 $128 $128 $127 $211 forward $79 $-1 #
coedge $-1 $129 $129 $80 $130 forward $124 $-1 #
edge $-1 $212 0 $212 6.2831853071796004 $129 $213 forward 7 unknown #
loop $-1 $-1 $136 $81 #
plane-surface $-1 -33.197829182717356 -8.9070182918677858 87.339379316920073 0.6560590369687036 0 0.75470957328743171 0.75470957328743171 0 -0.6560590369687036 forward_v I I I I #
loop $-1 $-1 $214 $52 #
coedge $-1 $134 $134 $135 $215 reversed $82 $-1 #
coedge $-1 $135 $135 $134 $215 forward $84 $-1 #
coedge $-1 $136 $136 $85 $137 forward $131 $-1 #
edge $-1 $216 0 $216 6.2831853071796004 $136 $217 forward 7 unknown #
face $-1 $218 $219 $29 $-1 $220 forward single #
loop $-1 $-1 $221 $86 #
plane-surface $-1 0 0 9.3557877041137392 0 0 1 1 0 0 forward_v I I I I #
coedge $-1 $222 $223 $224 $225 reversed $87 $-1 #
coedge $-1 $143 $89 $226 $227 reversed $56 $-1 #
coedge $-1 $89 $142 $221 $228 reversed $56 $-1 #
coedge $-1 $229 $230 $89 $145 forward $231 $-1 #
edge $-1 $232 -91.021343538904105 $233 -83.496818743037664 $144 $234 forward 7 unknown #
loop $-1 $-1 $151 $90 #
plane-surface $-1 -33.197829182717356 -8.9070182918677858 87.339379316920073 0.6560590369687036 0 0.75470957328743171 0.75470957328743171 0 -0.6560590369687036 forward_v I I I I #
loop $-1 $-1 $235 $58 #
coedge $-1 $149 $149 $150 $236 reversed $91 $-1 #
coedge $-1 $150 $150 $149 $236 forward $93 $-1 #
coedge $-1 $151 $151 $94 $152 forward $146 $-1 #
edge $-1 $237 0 $237 6.2831853071796004 $151 $238 forward 7 unknown #
loop $-1 $-1 $158 $95 #
plane-surface $-1 -33.197829182717356 -8.9070182918677858 87.339379316920073 0.6560590369687036 0 0.75470957328743171 0.75470957328743171 0 -0.6560590369687036 forward_v I I I I #
loop $-1 $-1 $239 $61 #
coedge $-1 $156 $156 $157 $240 reversed $96 $-1 #
coedge $-1 $157 $157 $156 $240 forward $98 $-1 #
coedge $-1 $158 $158 $99 $159 forward $153 $-1 #
edge $-1 $241 0 $241 6.2831853071796004 $158 $242 forward 7 unknown #
face $-1 $243 $244 $24 $-1 $245 reversed single #
loop $-1 $-1 $246 $100 #
plane-surface $-1 -65.16800439466536 0 0 1 0 0 0 0 -1 forward_v I I I I #
coedge $-1 $247 $171 $248 $249 forward $101 $-1 #
coedge $-1 $250 $103 $247 $251 forward $65 $-1 #
coedge $-1 $103 $250 $252 $253 forward $65 $-1 #
coedge $-1 $174 $173 $103 $167 reversed $175 $-1 #
edge $-1 $254 -41.757283348184281 $255 41.757283348184281 $166 $256 forward 7 unknown #
coedge $-1 $105 $104 $257 $258 forward $41 $-1 #
coedge $-1 $259 $260 $104 $170 reversed $244 $-1 #
edge $-1 $177 -65.16800439466536 $261 65.16800439466536 $169 $262 forward 7 unknown #
coedge $-1 $163 $263 $105 $172 reversed $101 $-1 #
edge $-1 $264 -65.16800439466536 $176 65.16800439466536 $171 $265 forward 7 unknown #
coedge $-1 $166 $106 $263 $266 forward $175 $-1 #
coedge $-1 $106 $166 $259 $267 reversed $175 $-1 #
loop $-1 $-1 $173 $243 #
vertex $-1 $107 $268 #
vertex $-1 $107 $269 #
straight-curve $-1 65.16800439466536 0 9.3557877041137392 0 1 0 I I #
face $-1 $270 $191 $25 $-1 $271 reversed single #
loop $-1 $-1 $272 $108 #
plane-surface $-1 -72.25697727662623 -32.418517676206292 0 1 0 0 0 0 -1 forward_v I I I I #
coedge $-1 $273 $274 $275 $276 forward $109 $-1 #
coedge $-1 $277 $111 $273 $278 forward $69 $-1 #
coedge $-1 $111 $277 $189 $279 forward $69 $-1 #
edge $-1 $192 30.918517676206292 $280 33.918517676206292 $111 $281 forward 7 unknown #
coedge $-1 $113 $112 $282 $283 forward $44 $-1 #
coedge $-1 $284 $285 $112 $188 forward $286 $-1 #
edge $-1 $287 -33.918517676206292 $193 -30.918517676206292 $187 $288 forward 7 unknown #
coedge $-1 $289 $114 $184 $279 reversed $191 $-1 #
coedge $-1 $114 $289 $284 $290 reversed $191 $-1 #
loop $-1 $-1 $114 $179 #
vertex $-1 $185 $291 #
vertex $-1 $290 $292 #
straight-curve $-1 -65.16800439466536 -30.918517676206292 0 0 0 1 I I #
face $-1 $-1 $293 $26 $-1 $294 reversed single #
loop $-1 $-1 $122 $116 #
plane-surface $-1 0 0 9.3557877041137392 0 0 1 1 0 0 forward_v I I I I #
coedge $-1 $295 $296 $297 $298 reversed $117 $-1 #
coedge $-1 $299 $119 $121 $205 forward $73 $-1 #
coedge $-1 $119 $299 $295 $300 forward $73 $-1 #
coedge $-1 $297 $122 $119 $202 forward $196 $-1 #
edge $-1 $208 -4.4535091459338947 $301 13.360527437801679 $201 $302 forward 7 unknown #
coedge $-1 $303 $304 $120 $204 forward $293 $-1 #
edge $-1 $305 -91.021343538904105 $207 -83.496818743037664 $203 $306 forward 7 unknown #
edge $-1 $208 118.86672878271233 $305 130.33600878933072 $121 $307 forward 7 unknown #
coedge $-1 $122 $297 $303 $308 forward $196 $-1 #
vertex $-1 $123 $309 #
vertex $-1 $123 $310 #
straight-curve $-1 26.155143612977724 1.7763568394002505e-015 9.3557877041137374 -1 0 0 I I #
coedge $-1 $210 $210 $-1 $311 reversed $126 $-1 #
edge $-1 $312 0 $312 6.2831853071796004 $127 $313 forward 7 unknown #
vertex $-1 $130 $314 #
ellipse-curve $-1 60.840016684810855 -12.72431184552541 5.5935253061805073 0.6560590369687036 0 0.75470957328743171 1.1320643599311475 0 -0.9840885554530554 1 I I #
coedge $-1 $214 $214 $-1 $315 reversed $133 $-1 #
edge $-1 $316 0 $316 6.2831853071796004 $134 $317 forward 7 unknown #
vertex $-1 $137 $318 #
ellipse-curve $-1 60.840016684810855 -5.0897247382101654 5.5935253061805073 0.6560590369687036 0 0.75470957328743171 1.1320643599311475 0 -0.9840885554530554 1 I I #
face $-1 $-1 $231 $29 $-1 $319 reversed single #
loop $-1 $-1 $320 $138 #
plane-surface $-1 52.310287225955449 1.7763568394002505e-015 185.7052128943028 0 -1 0 -0.6560590369687036 0 -0.75470957328743171 forward_v I I I I #
coedge $-1 $321 $322 $143 $228 forward $139 $-1 #
coedge $-1 $226 $141 $321 $323 reversed $87 $-1 #
coedge $-1 $141 $226 $230 $324 reversed $87 $-1 #
coedge $-1 $325 $320 $141 $225 forward $219 $-1 #
edge $-1 $326 118.86672878271233 $327 130.33600878933072 $224 $328 forward 7 unknown #
coedge $-1 $223 $222 $142 $227 forward $87 $-1 #
edge $-1 $329 118.86672878271233 $232 130.33600878933072 $142 $330 forward 7 unknown #
edge $-1 $233 -39.012860781687635 $329 -30.356885361978613 $221 $331 forward 7 unknown #
coedge $-1 $332 $144 $322 $333 reversed $231 $-1 #
coedge $-1 $144 $332 $223 $324 forward $231 $-1 #
loop $-1 $-1 $144 $218 #
vertex $-1 $145 $334 #
vertex $-1 $145 $335 #
straight-curve $-1 65.16800439466536 17.814036583735579 92.852606447151402 0 0 1 I I #
coedge $-1 $235 $235 $-1 $336 reversed $148 $-1 #
edge $-1 $337 0 $337 6.2831853071796004 $149 $338 forward 7 unknown #
vertex $-1 $152 $339 #
ellipse-curve $-1 60.840016684810855 5.0897247382101725 5.5935253061805073 0.6560590369687036 0 0.75470957328743171 1.1320643599311475 0 -0.9840885554530554 1 I I #
coedge $-1 $239 $239 $-1 $340 reversed $155 $-1 #
edge $-1 $341 0 $341 6.2831853071796004 $156 $342 forward 7 unknown #
vertex $-1 $159 $343 #
ellipse-curve $-1 60.840016684810855 12.724311845525413 5.5935253061805073 0.6560590369687036 0 0.75470957328743171 1.1320643599311475 0 -0.9840885554530554 1 I I #
face $-1 $-1 $175 $24 $-1 $344 reversed single #
loop $-1 $-1 $259 $160 #
plane-surface $-1 0 41.757283348184281 0 0 -1 0 0 0 -1 forward_v I I I I #
coedge $-1 $345 $257 $260 $346 forward $161 $-1 #
coedge $-1 $263 $163 $164 $251 reversed $101 $-1 #
coedge $-1 $257 $345 $163 $249 reversed $161 $-1 #
edge $-1 $264 -9.3557877041137392 $347 9.3557877041137392 $248 $348 forward 7 unknown #
coedge $-1 $165 $164 $345 $349 forward $65 $-1 #
edge $-1 $255 -65.16800439466536 $347 65.16800439466536 $247 $350 forward 7 unknown #
coedge $-1 $260 $259 $165 $253 reversed $244 $-1 #
edge $-1 $351 -65.16800439466536 $254 65.16800439466536 $252 $352 forward 7 unknown #
vertex $-1 $167 $353 #
vertex $-1 $266 $354 #
straight-curve $-1 65.16800439466536 0 -9.3557877041137392 0 -1 0 I I #
coedge $-1 $246 $248 $168 $258 reversed $161 $-1 #
edge $-1 $261 -41.757283348184281 $264 41.757283348184281 $257 $355 forward 7 unknown #
coedge $-1 $252 $169 $174 $267 forward $244 $-1 #
coedge $-1 $169 $252 $246 $346 reversed $244 $-1 #
vertex $-1 $170 $356 #
straight-curve $-1 0 41.757283348184281 9.3557877041137392 -1 0 0 I I #
coedge $-1 $171 $247 $173 $266 reversed $101 $-1 #
vertex $-1 $258 $357 #
straight-curve $-1 0 -41.757283348184281 9.3557877041137392 1 0 0 I I #
edge $-1 $176 -9.3557877041137392 $255 9.3557877041137392 $173 $358 forward 7 unknown #
edge $-1 $177 -9.3557877041137392 $254 9.3557877041137392 $174 $359 forward 7 unknown #
point $-1 65.16800439466536 -41.757283348184281 9.3557877041137392 #
point $-1 65.16800439466536 41.757283348184281 9.3557877041137392 #
face $-1 $-1 $286 $25 $-1 $360 forward single #
plane-surface $-1 -68.712490835645795 -30.918517676206292 0 0 -1 0 0 0 -1 forward_v I I I I #
coedge $-1 $361 $362 $289 $363 forward $180 $-1 #
coedge $-1 $282 $182 $183 $278 reversed $109 $-1 #
coedge $-1 $182 $282 $285 $364 reversed $109 $-1 #
coedge $-1 $362 $361 $182 $276 reversed $180 $-1 #
edge $-1 $365 -9.3557877041137392 $366 9.3557877041137392 $275 $367 forward 7 unknown #
coedge $-1 $184 $183 $361 $368 forward $69 $-1 #
edge $-1 $280 -3.5444864409804353 $366 3.5444864409804353 $273 $369 forward 7 unknown #
edge $-1 $370 -3.5444864409804353 $192 3.5444864409804353 $189 $371 forward 7 unknown #
vertex $-1 $278 $372 #
straight-curve $-1 -65.16800439466536 0 -9.3557877041137392 0 -1 0 I I #
coedge $-1 $274 $273 $186 $283 reversed $109 $-1 #
edge $-1 $287 -9.3557877041137392 $280 9.3557877041137392 $282 $373 forward 7 unknown #
coedge $-1 $374 $187 $190 $290 forward $286 $-1 #
coedge $-1 $187 $374 $274 $364 forward $286 $-1 #
loop $-1 $-1 $187 $270 #
vertex $-1 $188 $375 #
straight-curve $-1 -65.16800439466536 0 9.3557877041137392 0 1 0 I I #
coedge $-1 $190 $189 $272 $363 reversed $191 $-1 #
edge $-1 $193 -3.5444864409804353 $376 3.5444864409804353 $190 $377 forward 7 unknown #
point $-1 -65.16800439466536 -30.918517676206292 -9.3557877041137392 #
point $-1 -65.16800439466536 -30.918517676206292 9.3557877041137392 #
loop $-1 $-1 $203 $195 #
plane-surface $-1 65.16800439466536 0 0 -1 0 0 0 0 1 forward_v I I I I #
coedge $-1 $296 $198 $200 $300 reversed $117 $-1 #
coedge $-1 $198 $295 $378 $379 reversed $117 $-1 #
coedge $-1 $206 $201 $198 $298 forward $196 $-1 #
edge $-1 $301 30.356885361978613 $380 39.012860781687635 $297 $381 forward 7 unknown #
coedge $-1 $200 $199 $304 $382 reversed $73 $-1 #
edge $-1 $383 -130.33600878933072 $301 -118.86672878271233 $295 $384 forward 7 unknown #
vertex $-1 $202 $385 #
straight-curve $-1 56.512028974956344 -4.4535091459338929 9.3557877041137516 0 -1 0 I I #
coedge $-1 $378 $203 $206 $308 reversed $293 $-1 #
coedge $-1 $203 $378 $299 $382 forward $293 $-1 #
vertex $-1 $204 $386 #
straight-curve $-1 65.16800439466536 1.7763568394002505e-015 92.852606447151402 0 0 1 I I #
straight-curve $-1 -33.197829182717356 1.7763568394002505e-015 87.339379316920073 0.75470957328743171 0 -0.6560590369687036 I I #
edge $-1 $380 -17.814036583735572 $207 1.7763568394002505e-015 $303 $387 forward 7 unknown #
point $-1 65.16800439466536 1.7763568394002505e-015 9.3557877041137392 #
point $-1 56.512028974956337 1.7763568394002505e-015 9.3557877041137374 #
edge $-1 $388 1 $388 0 $210 $-1 forward 7 unknown #
vertex $-1 $211 $389 #
ellipse-curve $-1 58.225681388212642 -12.72431184552541 2.5860766393008108 0.6560590369687036 0 0.75470957328743171 1.1320643599311475 0 -0.9840885554530554 1 I I #
point $-1 61.972081044741984 -12.72431184552541 4.6094367507274354 #
edge $-1 $390 1 $390 0 $214 $-1 forward 7 unknown #
vertex $-1 $215 $391 #
ellipse-curve $-1 58.225681388212642 -5.0897247382101654 2.5860766393008108 0.6560590369687036 0 0.75470957328743171 1.1320643599311475 0 -0.9840885554530554 1 I I #
point $-1 61.972081044741984 -5.0897247382101654 4.6094367507274354 #
plane-surface $-1 65.16800439466536 0 0 -1 0 0 0 0 1 forward_v I I I I #
coedge $-1 $224 $325 $392 $393 reversed $219 $-1 #
coedge $-1 $392 $221 $222 $323 forward $139 $-1 #
coedge $-1 $221 $392 $229 $333 forward $139 $-1 #
edge $-1 $329 -22.267545729669472 $326 -4.4535091459338947 $321 $394 forward 7 unknown #
edge $-1 $327 4.4535091459338947 $232 22.267545729669472 $230 $395 forward 7 unknown #
coedge $-1 $320 $224 $332 $396 reversed $219 $-1 #
vertex $-1 $323 $397 #
vertex $-1 $324 $398 #
straight-curve $-1 -33.197829182717356 1.7763568394002505e-015 87.339379316920073 0.75470957328743171 0 -0.6560590369687036 I I #
vertex $-1 $228 $399 #
straight-curve $-1 -33.197829182717356 17.814036583735579 87.339379316920073 0.75470957328743171 0 -0.6560590369687036 I I #
straight-curve $-1 26.155143612977724 17.814036583735579 9.3557877041137374 -1 0 0 I I #
coedge $-1 $230 $229 $325 $396 forward $231 $-1 #
edge $-1 $400 1.7763568394002505e-015 $233 17.814036583735579 $229 $401 forward 7 unknown #
point $-1 65.16800439466536 17.814036583735579 1.8312629082472967 #
point $-1 65.16800439466536 17.814036583735579 9.3557877041137392 #
edge $-1 $402 1 $402 0 $235 $-1 forward 7 unknown #
vertex $-1 $236 $403 #
ellipse-curve $-1 58.225681388212642 5.0897247382101725 2.5860766393008108 0.6560590369687036 0 0.75470957328743171 1.1320643599311475 0 -0.9840885554530554 1 I I #
point $-1 61.972081044741984 5.0897247382101725 4.6094367507274354 #
edge $-1 $404 1 $404 0 $239 $-1 forward 7 unknown #
vertex $-1 $240 $405 #
ellipse-curve $-1 58.225681388212642 12.724311845525413 2.5860766393008108 0.6560590369687036 0 0.75470957328743171 1.1320643599311475 0 -0.9840885554530554 1 I I #
point $-1 61.972081044741984 12.724311845525413 4.6094367507274354 #
plane-surface $-1 65.16800439466536 0 0 -1 0 0 0 0 1 forward_v I I I I #
coedge $-1 $248 $246 $250 $349 reversed $161 $-1 #
edge $-1 $261 -9.3557877041137392 $351 9.3557877041137392 $260 $406 forward 7 unknown #
vertex $-1 $349 $407 #
straight-curve $-1 -65.16800439466536 -41.757283348184281 0 0 0 -1 I I #
edge $-1 $347 -41.757283348184281 $351 41.757283348184281 $345 $408 forward 7 unknown #
straight-curve $-1 0 -41.757283348184281 -9.3557877041137392 -1 0 0 I I #
vertex $-1 $253 $409 #
straight-curve $-1 0 41.757283348184281 -9.3557877041137392 1 0 0 I I #
point $-1 65.16800439466536 41.757283348184281 -9.3557877041137392 #
point $-1 65.16800439466536 -41.757283348184281 -9.3557877041137392 #
straight-curve $-1 -65.16800439466536 0 9.3557877041137392 0 -1 0 I I #
point $-1 -65.16800439466536 41.757283348184281 9.3557877041137392 #
point $-1 -65.16800439466536 -41.757283348184281 9.3557877041137392 #
straight-curve $-1 65.16800439466536 -41.757283348184281 0 0 0 -1 I I #
straight-curve $-1 65.16800439466536 41.757283348184281 0 0 0 -1 I I #
plane-surface $-1 0 0 9.3557877041137392 0 0 1 1 0 0 forward_v I I I I #
coedge $-1 $275 $272 $277 $368 reversed $180 $-1 #
coedge $-1 $272 $275 $374 $410 reversed $180 $-1 #
edge $-1 $376 -9.3557877041137392 $370 9.3557877041137392 $289 $411 forward 7 unknown #
edge $-1 $365 -3.5444864409804353 $287 3.5444864409804353 $274 $412 forward 7 unknown #
vertex $-1 $410 $413 #
vertex $-1 $368 $414 #
straight-curve $-1 -72.25697727662623 -33.918517676206292 0 0 0 -1 I I #
edge $-1 $366 -1.5 $370 1.5 $361 $415 forward 7 unknown #
straight-curve $-1 -68.712490835645795 -33.918517676206292 -9.3557877041137392 -1 0 0 I I #
vertex $-1 $279 $416 #
straight-curve $-1 -68.712490835645795 -30.918517676206292 -9.3557877041137392 1 0 0 I I #
point $-1 -65.16800439466536 -33.918517676206292 -9.3557877041137392 #
straight-curve $-1 -65.16800439466536 -33.918517676206292 0 0 0 -1 I I #
coedge $-1 $285 $284 $362 $410 forward $286 $-1 #
point $-1 -65.16800439466536 -33.918517676206292 9.3557877041137392 #
vertex $-1 $290 $417 #
straight-curve $-1 -68.712490835645795 -30.918517676206292 9.3557877041137392 -1 0 0 I I #
coedge $-1 $304 $303 $296 $379 forward $293 $-1 #
edge $-1 $380 83.496818743037664 $383 91.021343538904105 $378 $418 forward 7 unknown #
vertex $-1 $308 $419 #
straight-curve $-1 26.155143612977724 -17.814036583735572 9.3557877041137374 1 0 0 I I #
edge $-1 $383 -13.360527437801679 $305 4.4535091459338947 $304 $420 forward 7 unknown #
vertex $-1 $382 $421 #
straight-curve $-1 -33.197829182717356 -17.814036583735572 87.339379316920073 -0.75470957328743171 0 0.6560590369687036 I I #
point $-1 56.512028974956337 -17.814036583735572 9.3557877041137374 #
point $-1 65.16800439466536 1.7763568394002505e-015 1.8312629082472967 #
straight-curve $-1 65.16800439466536 0 9.3557877041137392 0 1 0 I I #
vertex $-1 $311 $422 #
point $-1 59.357745748143792 -12.72431184552541 1.6019880838477554 #
vertex $-1 $315 $423 #
point $-1 59.357745748143792 -5.0897247382101654 1.6019880838477554 #
coedge $-1 $322 $321 $320 $393 forward $139 $-1 #
edge $-1 $326 30.356885361978613 $400 39.012860781687635 $392 $424 forward 7 unknown #
straight-curve $-1 56.512028974956344 -4.4535091459338929 9.3557877041137516 0 -1 0 I I #
straight-curve $-1 65.16800439466536 -4.4535091459338929 1.8312629082472967 0 1 0 I I #
edge $-1 $400 83.496818743037664 $327 91.021343538904105 $332 $425 forward 7 unknown #
point $-1 56.512028974956337 1.7763568394002505e-015 9.3557877041137374 #
point $-1 65.16800439466536 1.7763568394002505e-015 1.8312629082472967 #
point $-1 56.512028974956337 17.814036583735579 9.3557877041137374 #
vertex $-1 $333 $426 #
straight-curve $-1 65.16800439466536 0 9.3557877041137392 0 1 0 I I #
vertex $-1 $336 $427 #
point $-1 59.357745748143792 5.0897247382101725 1.6019880838477554 #
vertex $-1 $340 $428 #
point $-1 59.357745748143792 12.724311845525413 1.6019880838477554 #
straight-curve $-1 -65.16800439466536 41.757283348184281 0 0 0 -1 I I #
point $-1 -65.16800439466536 -41.757283348184281 -9.3557877041137392 #
straight-curve $-1 -65.16800439466536 0 -9.3557877041137392 0 1 0 I I #
point $-1 -65.16800439466536 41.757283348184281 -9.3557877041137392 #
edge $-1 $376 -1.5 $365 1.5 $362 $429 forward 7 unknown #
straight-curve $-1 -72.25697727662623 -30.918517676206292 0 0 0 -1 I I #
straight-curve $-1 -68.712490835645795 -33.918517676206292 9.3557877041137392 1 0 0 I I #
point $-1 -72.25697727662623 -33.918517676206292 9.3557877041137392 #
point $-1 -72.25697727662623 -33.918517676206292 -9.3557877041137392 #
straight-curve $-1 -72.25697727662623 -32.418517676206292 -9.3557877041137392 0 1 0 I I #
point $-1 -72.25697727662623 -30.918517676206292 -9.3557877041137392 #
point $-1 -72.25697727662623 -30.918517676206292 9.3557877041137392 #
straight-curve $-1 65.16800439466536 -17.814036583735572 92.852606447151402 0 0 -1 I I #
point $-1 65.16800439466536 -17.814036583735572 9.3557877041137392 #
straight-curve $-1 65.16800439466536 -4.4535091459338929 1.8312629082472967 0 1 0 I I #
point $-1 65.16800439466536 -17.814036583735572 1.8312629082472967 #
point $-1 57.241592832759586 -12.72431184552541 1.454012279369663 #
point $-1 57.241592832759586 -5.0897247382101654 1.454012279369663 #
straight-curve $-1 26.155143612977724 1.7763568394002505e-015 9.3557877041137374 1 0 0 I I #
straight-curve $-1 65.16800439466536 1.7763568394002505e-015 92.852606447151402 0 0 -1 I I #
point $-1 65.16800439466536 1.7763568394002505e-015 9.3557877041137392 #
point $-1 57.241592832759586 5.0897247382101725 1.454012279369663 #
point $-1 57.241592832759586 12.724311845525413 1.454012279369663 #
straight-curve $-1 -72.25697727662623 -32.418517676206292 9.3557877041137392 0 -1 0 I I #
End-of-ACIS-data 