500 0 7 0           
7 Unknown 11 ACIS 5.0 NT 24 Thu Mar 25 16:34:55 1999 
-1 9.9999999999999995e-007 1e-010 
body $-1 $7 $-1 $8 #
body $-1 $9 $-1 $10 #
body $-1 $11 $-1 $12 #
body $-1 $13 $-1 $14 #
body $-1 $15 $-1 $16 #
body $-1 $17 $-1 $18 #
body $-1 $19 $-1 $20 #
lump $-1 $-1 $21 $0 #
transform $-1 1 0 0 0 1 0 0 0 1 79.83520004882962 49.564972628356138 15.135264233063932 1 rotate no_reflect no_shear #
lump $-1 $-1 $22 $1 #
transform $-1 1 0 0 0 1 0 0 0 1 79.83520004882962 49.564972628356138 15.135264233063932 1 rotate no_reflect no_shear #
lump $-1 $-1 $23 $2 #
transform $-1 1 0 0 0 1 0 0 0 1 79.83520004882962 49.564972628356138 15.135264233063932 1 rotate no_reflect no_shear #
lump $-1 $-1 $24 $3 #
transform $-1 1 0 0 0 1 0 0 0 1 79.83520004882962 49.564972628356138 15.135264233063932 1 rotate no_reflect no_shear #
lump $-1 $-1 $25 $4 #
transform $-1 1 0 0 0 1 0 0 0 1 79.83520004882962 49.564972628356138 15.135264233063932 1 rotate no_reflect no_shear #
lump $-1 $-1 $26 $5 #
transform $-1 1 0 0 0 1 0 0 0 1 79.83520004882962 49.564972628356138 15.135264233063932 1 rotate no_reflect no_shear #
lump $-1 $-1 $27 $6 #
transform $-1 1 0 0 0 1 0 0 0 1 79.83520004882962 49.564972628356138 15.135264233063932 1 rotate no_reflect no_shear #
shell $-1 $-1 $-1 $28 $-1 $7 #
shell $-1 $-1 $-1 $29 $-1 $9 #
shell $-1 $-1 $-1 $30 $-1 $11 #
shell $-1 $-1 $-1 $31 $-1 $13 #
shell $-1 $-1 $-1 $32 $-1 $15 #
shell $-1 $-1 $-1 $33 $-1 $17 #
shell $-1 $-1 $-1 $34 $-1 $19 #
face $-1 $35 $36 $21 $-1 $37 forward single #
face $-1 $38 $39 $22 $-1 $40 forward single #
face $-1 $41 $42 $23 $-1 $43 reversed single #
face $-1 $44 $45 $24 $-1 $46 forward single #
face $-1 $47 $48 $25 $-1 $49 reversed single #
face $-1 $50 $51 $26 $-1 $52 forward single #
face $-1 $53 $54 $27 $-1 $55 forward single #
face $-1 $56 $57 $21 $-1 $58 reversed single #
loop $-1 $-1 $59 $28 #
plane-surface $-1 0 0 15.135264233063932 0 0 1 1 0 0 forward_v I I I I #
face $-1 $60 $61 $22 $-1 $62 reversed single #
loop $-1 $-1 $63 $29 #
plane-surface $-1 0 -49.564972628356138 0 0 1 0 0 0 1 forward_v I I I I #
face $-1 $64 $65 $23 $-1 $66 reversed single #
loop $-1 $-1 $67 $30 #
plane-surface $-1 -212.20796224386984 -26.020690904816089 95.43177319615792 0 1 0 -0.82903758062907751 0 0.55919289150049634 forward_v I I I I #
face $-1 $68 $69 $24 $-1 $70 forward single #
loop $-1 $71 $72 $31 #
cone-surface $-1 -75.634136098491496 -17.413217171233839 9.8516518737959373 0.82903758062907751 0 -0.55919289150049634 0.83878933725074445 0 1.2435563709436162 1 I I 0 1 1.5 forward I I I I #
face $-1 $73 $74 $25 $-1 $75 reversed single #
loop $-1 $-1 $76 $32 #
plane-surface $-1 99.515670857735245 35.95449421642892 226.19019107974447 0 -1 0 -0.7660444514056185 0 -0.64278759981090561 forward_v I I I I #
face $-1 $77 $78 $26 $-1 $79 forward single #
loop $-1 $80 $81 $33 #
cone-surface $-1 72.336547414156087 24.135561914273929 6.787470272836134 -0.7660444514056185 0 -0.64278759981090561 0.96418139971635841 0 -1.1490666771084277 1 I I 0 1 1.5 forward I I I I #
face $-1 $82 $83 $27 $-1 $84 forward single #
loop $-1 $85 $86 $34 #
cone-surface $-1 72.336547414156087 31.226921295566932 6.787470272836134 -0.7660444514056185 0 -0.64278759981090561 0.96418139971635841 0 -1.1490666771084277 1 I I 0 1 1.5 forward I I I I #
face $-1 $87 $88 $21 $-1 $89 reversed single #
loop $-1 $-1 $90 $35 #
plane-surface $-1 0 0 -15.135264233063932 0 0 1 1 0 0 forward_v I I I I #
coedge $-1 $91 $92 $93 $94 forward $36 $-1 #
face $-1 $95 $96 $22 $-1 $97 reversed single #
loop $-1 $-1 $98 $38 #
plane-surface $-1 0 0 -15.135264233063932 0 0 1 1 0 0 forward_v I I I I #
coedge $-1 $99 $100 $101 $102 forward $39 $-1 #
face $-1 $103 $104 $23 $-1 $105 reversed single #
loop $-1 $-1 $106 $41 #
plane-surface $-1 -79.83520004882962 -17.413217171233832 6.1452204785067153 -0.82903758062907751 0 0.55919289150049634 0.55919289150049634 0 0.82903758062907751 forward_v I I I I #
coedge $-1 $107 $108 $109 $110 reversed $42 $-1 #
face $-1 $-1 $111 $24 $-1 $112 forward single #
loop $-1 $113 $114 $44 #
cone-surface $-1 -73.843224407868504 -17.413217171233839 8.6436667231811732 0.82903758062907751 0 -0.55919289150049634 0.41939466862537222 0 0.62177818547180808 1 I I -0.70710678118654757 0.70710678118654757 0.75 forward I I I I #
loop $-1 $-1 $115 $31 #
coedge $-1 $72 $72 $116 $117 reversed $45 $-1 #
face $-1 $118 $119 $25 $-1 $120 reversed single #
loop $-1 $-1 $121 $47 #
plane-surface $-1 -22.798953190791735 27.681241604920423 123.5560378401231 0.7660444514056185 0 0.64278759981090561 0.64278759981090561 0 -0.7660444514056185 forward_v I I I I #
coedge $-1 $122 $123 $124 $125 reversed $48 $-1 #
face $-1 $-1 $126 $26 $-1 $127 forward single #
loop $-1 $128 $129 $50 #
cone-surface $-1 70.09252367884784 24.135561914273929 4.904510833484057 -0.7660444514056185 0 -0.64278759981090561 0.48209069985817921 0 -0.57453333855421385 1 I I -0.70710678118654757 0.70710678118654757 0.75 forward I I I I #
loop $-1 $-1 $130 $33 #
coedge $-1 $81 $81 $131 $132 reversed $51 $-1 #
face $-1 $-1 $133 $27 $-1 $134 forward single #
loop $-1 $135 $136 $53 #
cone-surface $-1 70.09252367884784 31.226921295566932 4.904510833484057 -0.7660444514056185 0 -0.64278759981090561 0.48209069985817921 0 -0.57453333855421385 1 I I -0.70710678118654757 0.70710678118654757 0.75 forward I I I I #
loop $-1 $-1 $137 $34 #
coedge $-1 $86 $86 $138 $139 reversed $54 $-1 #
face $-1 $140 $141 $21 $-1 $142 reversed single #
loop $-1 $-1 $143 $56 #
plane-surface $-1 0 -49.564972628356138 0 0 1 0 0 0 1 forward_v I I I I #
coedge $-1 $144 $145 $146 $147 forward $57 $-1 #
coedge $-1 $148 $59 $149 $150 forward $36 $-1 #
coedge $-1 $59 $148 $151 $152 forward $36 $-1 #
coedge $-1 $153 $154 $59 $94 reversed $155 $-1 #
edge $-1 $156 -49.564972628356138 $157 49.564972628356138 $93 $158 forward 7 unknown #
face $-1 $159 $160 $22 $-1 $161 forward single #
loop $-1 $-1 $162 $60 #
plane-surface $-1 79.83520004882962 0 0 -1 0 0 0 0 1 forward_v I I I I #
coedge $-1 $163 $164 $165 $166 forward $61 $-1 #
coedge $-1 $165 $63 $162 $167 reversed $39 $-1 #
coedge $-1 $63 $165 $168 $169 reversed $39 $-1 #
coedge $-1 $170 $171 $63 $102 reversed $160 $-1 #
edge $-1 $172 -79.83520004882962 $173 79.83520004882962 $101 $174 forward 7 unknown #
face $-1 $175 $176 $23 $-1 $177 forward single #
loop $-1 $-1 $178 $64 #
plane-surface $-1 -212.20796224386984 -8.8057434376515751 95.43177319615792 0 -1 0 0.82903758062907751 0 -0.55919289150049634 forward_v I I I I #
coedge $-1 $179 $180 $181 $182 reversed $65 $-1 #
coedge $-1 $108 $67 $183 $184 reversed $42 $-1 #
coedge $-1 $67 $107 $179 $185 reversed $42 $-1 #
coedge $-1 $181 $186 $67 $110 forward $176 $-1 #
edge $-1 $187 26.268781073105302 $188 32.332641963479162 $109 $189 forward 7 unknown #
loop $-1 $-1 $116 $68 #
plane-surface $-1 -79.83520004882962 -17.413217171233832 6.1452204785067153 -0.82903758062907751 0 0.55919289150049634 0.55919289150049634 0 0.82903758062907751 forward_v I I I I #
loop $-1 $-1 $190 $44 #
coedge $-1 $114 $114 $115 $191 reversed $69 $-1 #
coedge $-1 $115 $115 $114 $191 forward $71 $-1 #
coedge $-1 $116 $116 $72 $117 forward $111 $-1 #
edge $-1 $192 0 $192 6.2831853071796004 $116 $193 forward 7 unknown #
face $-1 $194 $195 $25 $-1 $196 reversed single #
loop $-1 $-1 $197 $73 #
plane-surface $-1 99.515670857735245 19.407988993411927 226.19019107974447 0 1 0 0.7660444514056185 0 0.64278759981090561 forward_v I I I I #
coedge $-1 $198 $199 $200 $201 reversed $74 $-1 #
coedge $-1 $123 $76 $202 $203 reversed $48 $-1 #
coedge $-1 $76 $122 $198 $204 reversed $48 $-1 #
coedge $-1 $200 $205 $76 $125 forward $206 $-1 #
edge $-1 $207 -30.077364619961998 $208 -18.419040144123002 $124 $209 forward 7 unknown #
loop $-1 $-1 $131 $77 #
plane-surface $-1 -22.798953190791735 27.681241604920423 123.5560378401231 0.7660444514056185 0 0.64278759981090561 0.64278759981090561 0 -0.7660444514056185 forward_v I I I I #
loop $-1 $-1 $210 $50 #
coedge $-1 $129 $129 $130 $211 reversed $78 $-1 #
coedge $-1 $130 $130 $129 $211 forward $80 $-1 #
coedge $-1 $131 $131 $81 $132 forward $126 $-1 #
edge $-1 $212 0 $212 6.2831853071796004 $131 $213 forward 7 unknown #
loop $-1 $-1 $138 $82 #
plane-surface $-1 -22.798953190791735 27.681241604920423 123.5560378401231 0.7660444514056185 0 0.64278759981090561 0.64278759981090561 0 -0.7660444514056185 forward_v I I I I #
loop $-1 $-1 $214 $53 #
coedge $-1 $136 $136 $137 $215 reversed $83 $-1 #
coedge $-1 $137 $137 $136 $215 forward $85 $-1 #
coedge $-1 $138 $138 $86 $139 forward $133 $-1 #
edge $-1 $216 0 $216 6.2831853071796004 $138 $217 forward 7 unknown #
face $-1 $218 $219 $21 $-1 $220 reversed single #
loop $-1 $-1 $221 $87 #
plane-surface $-1 -79.83520004882962 0 0 1 0 0 0 0 -1 forward_v I I I I #
coedge $-1 $151 $222 $153 $223 reversed $88 $-1 #
coedge $-1 $224 $90 $222 $225 forward $57 $-1 #
coedge $-1 $90 $224 $226 $227 forward $57 $-1 #
coedge $-1 $154 $153 $90 $147 reversed $155 $-1 #
edge $-1 $228 -49.564972628356138 $229 49.564972628356138 $146 $230 forward 7 unknown #
coedge $-1 $92 $91 $231 $232 forward $36 $-1 #
coedge $-1 $233 $234 $91 $150 reversed $219 $-1 #
edge $-1 $157 -79.83520004882962 $235 79.83520004882962 $149 $236 forward 7 unknown #
coedge $-1 $237 $143 $92 $152 reversed $88 $-1 #
edge $-1 $238 -79.83520004882962 $156 79.83520004882962 $151 $239 forward 7 unknown #
coedge $-1 $146 $93 $143 $223 forward $155 $-1 #
coedge $-1 $93 $146 $233 $240 reversed $155 $-1 #
loop $-1 $-1 $153 $218 #
vertex $-1 $94 $241 #
vertex $-1 $94 $242 #
straight-curve $-1 79.83520004882962 0 15.135264233063932 0 1 0 I I #
face $-1 $243 $244 $22 $-1 $245 reversed single #
loop $-1 $-1 $171 $95 #
plane-surface $-1 0 -59.190399279356996 -9.8184524260292427 0 0 1 1 0 0 forward_v I I I I #
coedge $-1 $246 $247 $99 $167 forward $96 $-1 #
coedge $-1 $248 $98 $247 $249 forward $61 $-1 #
coedge $-1 $98 $248 $250 $251 forward $61 $-1 #
coedge $-1 $100 $99 $98 $166 reversed $39 $-1 #
edge $-1 $252 -79.83520004882962 $253 79.83520004882962 $98 $254 forward 7 unknown #
edge $-1 $253 -15.135264233063932 $173 -9.8184524260292427 $162 $255 forward 7 unknown #
coedge $-1 $250 $256 $100 $169 forward $257 $-1 #
edge $-1 $172 9.8184524260292427 $252 15.135264233063932 $168 $258 forward 7 unknown #
coedge $-1 $259 $101 $256 $260 forward $160 $-1 #
coedge $-1 $101 $259 $246 $261 forward $160 $-1 #
vertex $-1 $169 $262 #
vertex $-1 $261 $263 #
straight-curve $-1 0 -49.564972628356138 -9.8184524260292427 1 0 0 I I #
face $-1 $-1 $264 $23 $-1 $265 reversed single #
loop $-1 $-1 $109 $103 #
plane-surface $-1 0 0 15.135264233063932 0 0 1 1 0 0 forward_v I I I I #
coedge $-1 $266 $267 $268 $269 reversed $104 $-1 #
coedge $-1 $270 $106 $108 $185 forward $65 $-1 #
coedge $-1 $106 $270 $266 $271 forward $65 $-1 #
coedge $-1 $268 $109 $106 $182 forward $176 $-1 #
edge $-1 $188 -17.314082319199173 $272 -0.099134852034659104 $181 $273 forward 7 unknown #
coedge $-1 $274 $275 $107 $184 forward $264 $-1 #
edge $-1 $276 -41.570666119572245 $187 -32.580622365015032 $183 $277 forward 7 unknown #
edge $-1 $188 -10.843952028972597 $276 0 $108 $278 forward 7 unknown #
coedge $-1 $109 $268 $274 $279 forward $176 $-1 #
vertex $-1 $184 $280 #
vertex $-1 $110 $281 #
straight-curve $-1 -106.10398112193492 -26.020690904816089 15.135264233063928 1 0 0 I I #
coedge $-1 $190 $190 $-1 $282 reversed $113 $-1 #
edge $-1 $283 0 $283 6.2831853071796004 $114 $284 forward 7 unknown #
vertex $-1 $117 $285 #
ellipse-curve $-1 -76.80326960364269 -17.413217171233839 10.640242355785331 -0.82903758062907751 0 0.55919289150049634 0.83878933725074445 0 1.2435563709436162 1 I I #
face $-1 $-1 $206 $25 $-1 $286 forward single #
loop $-1 $-1 $287 $118 #
plane-surface $-1 79.83520004882962 0 0 -1 0 0 0 0 1 forward_v I I I I #
coedge $-1 $288 $289 $290 $291 reversed $119 $-1 #
coedge $-1 $292 $121 $123 $204 forward $74 $-1 #
coedge $-1 $121 $292 $288 $293 forward $74 $-1 #
coedge $-1 $290 $124 $121 $201 forward $206 $-1 #
edge $-1 $208 -22.113873413968708 $294 -5.567368190951715 $200 $295 forward 7 unknown #
coedge $-1 $296 $297 $122 $203 forward $195 $-1 #
edge $-1 $298 -111.8536817482761 $207 -97.959831306808297 $202 $299 forward 7 unknown #
edge $-1 $208 141.53326665067206 $298 159.67040009765927 $123 $300 forward 7 unknown #
coedge $-1 $124 $290 $296 $301 forward $206 $-1 #
loop $-1 $-1 $290 $194 #
vertex $-1 $203 $302 #
vertex $-1 $125 $303 #
straight-curve $-1 49.757835428867622 35.95449421642892 15.135264233063936 -1 0 0 I I #
coedge $-1 $210 $210 $-1 $304 reversed $128 $-1 #
edge $-1 $305 0 $305 6.2831853071796004 $129 $306 forward 7 unknown #
vertex $-1 $132 $307 #
ellipse-curve $-1 74.006037810910129 24.135561914273929 8.188339012330033 0.7660444514056185 0 0.64278759981090561 0.96418139971635841 0 -1.1490666771084277 1 I I #
coedge $-1 $214 $214 $-1 $308 reversed $135 $-1 #
edge $-1 $309 0 $309 6.2831853071796004 $136 $310 forward 7 unknown #
vertex $-1 $139 $311 #
ellipse-curve $-1 74.006037810910129 31.226921295566932 8.188339012330033 0.7660444514056185 0 0.64278759981090561 0.96418139971635841 0 -1.1490666771084277 1 I I #
face $-1 $-1 $155 $21 $-1 $312 reversed single #
loop $-1 $-1 $233 $140 #
plane-surface $-1 0 49.564972628356138 0 0 -1 0 0 0 -1 forward_v I I I I #
coedge $-1 $313 $231 $234 $314 forward $141 $-1 #
coedge $-1 $143 $237 $144 $225 reversed $88 $-1 #
edge $-1 $156 -15.135264233063932 $229 15.135264233063932 $153 $315 forward 7 unknown #
coedge $-1 $145 $144 $313 $316 forward $57 $-1 #
edge $-1 $229 -79.83520004882962 $317 79.83520004882962 $222 $318 forward 7 unknown #
coedge $-1 $234 $233 $145 $227 reversed $219 $-1 #
edge $-1 $319 -79.83520004882962 $228 79.83520004882962 $226 $320 forward 7 unknown #
vertex $-1 $147 $321 #
vertex $-1 $223 $322 #
straight-curve $-1 79.83520004882962 0 -15.135264233063932 0 -1 0 I I #
coedge $-1 $221 $323 $148 $232 reversed $141 $-1 #
edge $-1 $235 -49.564972628356138 $238 49.564972628356138 $231 $324 forward 7 unknown #
coedge $-1 $226 $149 $154 $240 forward $219 $-1 #
coedge $-1 $149 $226 $221 $314 reversed $219 $-1 #
vertex $-1 $150 $325 #
straight-curve $-1 0 49.564972628356138 15.135264233063932 -1 0 0 I I #
coedge $-1 $222 $151 $323 $326 forward $88 $-1 #
vertex $-1 $232 $327 #
straight-curve $-1 0 -49.564972628356138 15.135264233063932 1 0 0 I I #
edge $-1 $157 -15.135264233063932 $228 15.135264233063932 $154 $328 forward 7 unknown #
point $-1 79.83520004882962 -49.564972628356138 15.135264233063932 #
point $-1 79.83520004882962 49.564972628356138 15.135264233063932 #
face $-1 $-1 $257 $22 $-1 $329 reversed single #
loop $-1 $-1 $330 $159 #
plane-surface $-1 0 -68.815825930357846 -12.476858329546587 0 1 0 0 0 1 forward_v I I I I #
coedge $-1 $331 $162 $171 $261 reversed $96 $-1 #
coedge $-1 $162 $331 $163 $249 reversed $96 $-1 #
coedge $-1 $164 $163 $332 $333 forward $61 $-1 #
edge $-1 $253 49.564972628356138 $334 68.815825930357846 $247 $335 forward 7 unknown #
coedge $-1 $336 $168 $164 $251 reversed $257 $-1 #
edge $-1 $337 -68.815825930357846 $252 -49.564972628356138 $250 $338 forward 7 unknown #
vertex $-1 $169 $339 #
vertex $-1 $249 $340 #
straight-curve $-1 0 -49.564972628356138 -15.135264233063932 1 0 0 I I #
straight-curve $-1 79.83520004882962 -49.564972628356138 0 0 0 1 I I #
coedge $-1 $168 $336 $170 $260 reversed $257 $-1 #
loop $-1 $-1 $168 $243 #
straight-curve $-1 -79.83520004882962 -49.564972628356138 0 0 0 -1 I I #
coedge $-1 $171 $170 $341 $342 forward $160 $-1 #
edge $-1 $172 -9.6254266510008577 $343 9.6254266510008506 $256 $344 forward 7 unknown #
edge $-1 $345 -9.6254266510008506 $173 9.6254266510008577 $246 $346 forward 7 unknown #
point $-1 -79.83520004882962 -49.564972628356138 -9.8184524260292427 #
point $-1 79.83520004882962 -49.564972628356138 -9.8184524260292427 #
loop $-1 $-1 $183 $175 #
plane-surface $-1 -79.83520004882962 0 0 1 0 0 0 0 -1 forward_v I I I I #
coedge $-1 $267 $178 $180 $271 reversed $104 $-1 #
coedge $-1 $178 $266 $347 $348 reversed $104 $-1 #
coedge $-1 $186 $181 $178 $269 forward $176 $-1 #
edge $-1 $272 -32.332641963479162 $349 -26.268781073105302 $268 $350 forward 7 unknown #
coedge $-1 $180 $179 $275 $351 reversed $65 $-1 #
edge $-1 $352 0 $272 10.843952028972597 $266 $353 forward 7 unknown #
vertex $-1 $182 $354 #
straight-curve $-1 -73.77133915845576 -8.706608585616916 15.135264233063932 0 1 0 I I #
coedge $-1 $347 $183 $186 $279 reversed $264 $-1 #
coedge $-1 $183 $347 $270 $351 forward $264 $-1 #
vertex $-1 $184 $355 #
straight-curve $-1 -79.83520004882962 -26.020690904816089 47.71588659807896 0 0 1 I I #
straight-curve $-1 -79.83520004882962 -26.020690904816089 6.1452204785067153 -0.55919289150049634 0 -0.82903758062907751 I I #
edge $-1 $349 8.8057434376515751 $187 26.020690904816089 $274 $356 forward 7 unknown #
point $-1 -79.83520004882962 -26.020690904816089 15.135264233063932 #
point $-1 -73.77133915845576 -26.020690904816089 15.135264233063932 #
edge $-1 $357 1 $357 0 $190 $-1 forward 7 unknown #
vertex $-1 $191 $358 #
ellipse-curve $-1 -74.465002593340316 -17.413217171233839 9.0630613918065457 -0.82903758062907751 0 0.55919289150049634 0.83878933725074445 0 1.2435563709436162 1 I I #
point $-1 -75.964480266391945 -17.413217171233839 11.883798726728946 #
plane-surface $-1 0 0 15.135264233063932 0 0 1 1 0 0 forward_v I I I I #
coedge $-1 $297 $296 $289 $359 forward $195 $-1 #
coedge $-1 $289 $197 $199 $293 reversed $119 $-1 #
coedge $-1 $197 $288 $287 $359 reversed $119 $-1 #
coedge $-1 $205 $200 $197 $291 forward $206 $-1 #
edge $-1 $294 18.419040144123002 $360 30.077364619961998 $290 $361 forward 7 unknown #
coedge $-1 $199 $198 $297 $362 reversed $74 $-1 #
edge $-1 $363 -159.67040009765927 $294 -141.53326665067206 $288 $364 forward 7 unknown #
vertex $-1 $201 $365 #
straight-curve $-1 68.17687557299061 13.840620802460212 15.135264233063936 0 -1 0 I I #
coedge $-1 $287 $202 $205 $301 reversed $195 $-1 #
coedge $-1 $202 $287 $292 $362 forward $195 $-1 #
vertex $-1 $203 $366 #
straight-curve $-1 79.83520004882962 35.95449421642892 113.09509553987223 0 0 1 I I #
straight-curve $-1 -22.798953190791735 35.95449421642892 123.5560378401231 0.64278759981090561 0 -0.7660444514056185 I I #
edge $-1 $360 19.407988993411927 $207 35.95449421642892 $296 $367 forward 7 unknown #
point $-1 79.83520004882962 35.95449421642892 15.135264233063932 #
point $-1 68.176875572990625 35.95449421642892 15.135264233063921 #
edge $-1 $368 1 $368 0 $210 $-1 forward 7 unknown #
vertex $-1 $211 $369 #
ellipse-curve $-1 70.667057017402058 24.135561914273929 5.3866015333422359 0.7660444514056185 0 0.64278759981090561 0.96418139971635841 0 -1.1490666771084277 1 I I #
point $-1 74.970219210626482 24.135561914273929 7.0392723352216038 #
edge $-1 $370 1 $370 0 $214 $-1 forward 7 unknown #
vertex $-1 $215 $371 #
ellipse-curve $-1 70.667057017402058 31.226921295566932 5.3866015333422359 0.7660444514056185 0 0.64278759981090561 0.96418139971635841 0 -1.1490666771084277 1 I I #
point $-1 74.970219210626482 31.226921295566932 7.0392723352216038 #
plane-surface $-1 79.83520004882962 0 0 -1 0 0 0 0 1 forward_v I I I I #
coedge $-1 $323 $221 $224 $316 reversed $141 $-1 #
edge $-1 $235 -15.135264233063932 $319 15.135264233063932 $234 $372 forward 7 unknown #
straight-curve $-1 79.83520004882962 -49.564972628356138 0 0 0 -1 I I #
edge $-1 $317 -49.564972628356138 $319 49.564972628356138 $313 $373 forward 7 unknown #
vertex $-1 $316 $374 #
straight-curve $-1 0 -49.564972628356138 -15.135264233063932 -1 0 0 I I #
vertex $-1 $227 $375 #
straight-curve $-1 0 49.564972628356138 -15.135264233063932 1 0 0 I I #
point $-1 79.83520004882962 49.564972628356138 -15.135264233063932 #
point $-1 79.83520004882962 -49.564972628356138 -15.135264233063932 #
coedge $-1 $231 $313 $237 $326 reversed $141 $-1 #
straight-curve $-1 -79.83520004882962 0 15.135264233063932 0 -1 0 I I #
point $-1 -79.83520004882962 49.564972628356138 15.135264233063932 #
edge $-1 $238 -15.135264233063932 $317 15.135264233063932 $323 $376 forward 7 unknown #
point $-1 -79.83520004882962 -49.564972628356138 15.135264233063932 #
straight-curve $-1 79.83520004882962 49.564972628356138 0 0 0 -1 I I #
plane-surface $-1 -79.83520004882962 0 0 1 0 0 0 0 -1 forward_v I I I I #
coedge $-1 $332 $341 $336 $377 forward $244 $-1 #
coedge $-1 $247 $246 $378 $379 forward $96 $-1 #
coedge $-1 $378 $330 $248 $333 reversed $244 $-1 #
edge $-1 $334 -79.83520004882962 $337 79.83520004882962 $332 $380 forward 7 unknown #
vertex $-1 $379 $381 #
straight-curve $-1 79.83520004882962 0 -15.135264233063932 0 -1 0 I I #
coedge $-1 $256 $250 $330 $377 reversed $257 $-1 #
vertex $-1 $251 $382 #
straight-curve $-1 -79.83520004882962 0 -15.135264233063932 0 1 0 I I #
point $-1 -79.83520004882962 -49.564972628356138 -15.135264233063932 #
point $-1 79.83520004882962 -49.564972628356138 -15.135264233063932 #
coedge $-1 $330 $378 $259 $342 reversed $244 $-1 #
edge $-1 $343 -79.83520004882962 $345 79.83520004882962 $341 $383 forward 7 unknown #
vertex $-1 $260 $384 #
straight-curve $-1 -79.83520004882962 -59.190399279356996 -9.8184524260292427 0 -1 0 I I #
vertex $-1 $261 $385 #
straight-curve $-1 79.83520004882962 -59.190399279356996 -9.8184524260292427 0 1 0 I I #
coedge $-1 $275 $274 $267 $348 forward $264 $-1 #
edge $-1 $349 32.580622365015032 $352 41.570666119572245 $347 $386 forward 7 unknown #
vertex $-1 $279 $387 #
straight-curve $-1 -106.10398112193492 -8.8057434376515751 15.135264233063928 -1 0 0 I I #
edge $-1 $352 0.099134852034659104 $276 17.314082319199173 $275 $388 forward 7 unknown #
vertex $-1 $351 $389 #
straight-curve $-1 -79.83520004882962 -8.8057434376515751 6.1452204785067153 0.55919289150049634 0 0.82903758062907751 I I #
point $-1 -73.77133915845576 -8.8057434376515751 15.135264233063932 #
point $-1 -79.83520004882962 -26.020690904816089 6.1452204785067153 #
straight-curve $-1 -79.83520004882962 0 15.135264233063932 0 -1 0 I I #
vertex $-1 $282 $390 #
point $-1 -73.626213256089571 -17.413217171233839 10.306617762750161 #
edge $-1 $360 97.959831306808297 $363 111.8536817482761 $287 $391 forward 7 unknown #
vertex $-1 $301 $392 #
straight-curve $-1 49.757835428867622 19.407988993411927 15.135264233063936 1 0 0 I I #
edge $-1 $363 5.567368190951715 $298 22.113873413968708 $297 $393 forward 7 unknown #
vertex $-1 $362 $394 #
straight-curve $-1 -22.798953190791735 19.407988993411927 123.5560378401231 -0.64278759981090561 0 0.7660444514056185 I I #
point $-1 68.176875572990625 19.407988993411927 15.135264233063921 #
point $-1 79.83520004882962 35.95449421642892 1.2414137915961305 #
straight-curve $-1 79.83520004882962 0 15.135264233063932 0 1 0 I I #
vertex $-1 $304 $395 #
point $-1 71.631238417118411 24.135561914273929 4.2375348562338084 #
vertex $-1 $308 $396 #
point $-1 71.631238417118411 31.226921295566932 4.2375348562338084 #
straight-curve $-1 -79.83520004882962 49.564972628356138 0 0 0 -1 I I #
straight-curve $-1 -79.83520004882962 0 -15.135264233063932 0 1 0 I I #
point $-1 -79.83520004882962 -49.564972628356138 -15.135264233063932 #
point $-1 -79.83520004882962 49.564972628356138 -15.135264233063932 #
straight-curve $-1 -79.83520004882962 -49.564972628356138 0 0 0 -1 I I #
edge $-1 $343 -2.6584059035173446 $337 2.6584059035173446 $336 $397 forward 7 unknown #
coedge $-1 $341 $332 $331 $379 reversed $244 $-1 #
edge $-1 $345 -2.6584059035173446 $334 2.6584059035173446 $331 $398 forward 7 unknown #
straight-curve $-1 0 -68.815825930357846 -15.135264233063932 -1 0 0 I I #
point $-1 79.83520004882962 -68.815825930357846 -15.135264233063932 #
point $-1 -79.83520004882962 -68.815825930357846 -15.135264233063932 #
straight-curve $-1 0 -68.815825930357846 -9.8184524260292427 1 0 0 I I #
point $-1 -79.83520004882962 -68.815825930357846 -9.8184524260292427 #
point $-1 79.83520004882962 -68.815825930357846 -9.8184524260292427 #
straight-curve $-1 -79.83520004882962 -8.8057434376515751 47.71588659807896 0 0 -1 I I #
point $-1 -79.83520004882962 -8.8057434376515751 15.135264233063932 #
straight-curve $-1 -79.83520004882962 -8.706608585616916 6.1452204785067144 0 -1 0 I I #
point $-1 -79.83520004882962 -8.8057434376515751 6.1452204785067153 #
point $-1 -73.221446222396693 -17.413217171233839 8.2242720545558008 #
straight-curve $-1 79.83520004882962 19.407988993411927 113.09509553987223 0 0 -1 I I #
point $-1 79.83520004882962 19.407988993411927 15.135264233063932 #
straight-curve $-1 79.83520004882962 13.840620802460212 1.2414137915961234 0 1 0 I I #
point $-1 79.83520004882962 19.407988993411927 1.2414137915961305 #
point $-1 69.517990340293622 24.135561914273929 4.4224201336258782 #
point $-1 69.517990340293622 31.226921295566932 4.4224201336258782 #
straight-curve $-1 -79.83520004882962 -68.815825930357846 -12.476858329546587 0 0 -1 I I #
straight-curve $-1 79.83520004882962 -68.815825930357846 -12.476858329546587 0 0 -1 I I #
End-of-ACIS-data 