500 0 5 0           
7 Unknown 11 ACIS 5.0 NT 24 Thu Mar 25 16:54:29 1999 
-1 9.9999999999999995e-007 1e-010 
body $-1 $5 $-1 $6 #
body $-1 $7 $-1 $8 #
body $-1 $9 $-1 $10 #
body $-1 $11 $-1 $12 #
body $-1 $13 $-1 $14 #
lump $-1 $-1 $15 $0 #
transform $-1 1 0 0 0 1 0 0 0 1 50.063783684804832 32.547494489747457 6.5640311238928843 1 rotate no_reflect no_shear #
lump $-1 $-1 $16 $1 #
transform $-1 1 0 0 0 1 0 0 0 1 50.063783684804832 32.547494489747457 6.5640311238928843 1 rotate no_reflect no_shear #
lump $-1 $-1 $17 $2 #
transform $-1 1 0 0 0 1 0 0 0 1 50.063783684804832 32.547494489747457 6.5640311238928843 1 rotate no_reflect no_shear #
lump $-1 $-1 $18 $3 #
transform $-1 1 0 0 0 1 0 0 0 1 50.063783684804832 32.547494489747457 6.5640311238928843 1 rotate no_reflect no_shear #
lump $-1 $-1 $19 $4 #
transform $-1 1 0 0 0 1 0 0 0 1 50.063783684804832 32.547494489747457 6.5640311238928843 1 rotate no_reflect no_shear #
shell $-1 $-1 $-1 $20 $-1 $5 #
shell $-1 $-1 $-1 $21 $-1 $7 #
shell $-1 $-1 $-1 $22 $-1 $9 #
shell $-1 $-1 $-1 $23 $-1 $11 #
shell $-1 $-1 $-1 $24 $-1 $13 #
face $-1 $25 $26 $15 $-1 $27 forward single #
face $-1 $28 $29 $16 $-1 $30 reversed single #
face $-1 $31 $32 $17 $-1 $33 forward single #
face $-1 $34 $35 $18 $-1 $36 reversed single #
face $-1 $37 $38 $19 $-1 $39 forward single #
face $-1 $40 $41 $15 $-1 $42 reversed single #
loop $-1 $-1 $43 $20 #
plane-surface $-1 0 0 6.5640311238928843 0 0 1 1 0 0 forward_v I I I I #
face $-1 $44 $45 $16 $-1 $46 reversed single #
loop $-1 $-1 $47 $21 #
plane-surface $-1 -5.9268402315179287 -29.211890337825679 85.812708751466275 0.82903758062907751 0 0.55919289150049634 0.55919289150049634 0 -0.82903758062907751 forward_v I I I I #
face $-1 $48 $49 $17 $-1 $50 forward single #
loop $-1 $51 $52 $22 #
cone-surface $-1 48.001011724283046 -29.211890337825679 4.1477733993653487 -0.82903758062907751 0 -0.55919289150049634 0.55919289150049634 0 -0.82903758062907751 1 I I 0 1 1 forward I I I I #
face $-1 $53 $54 $18 $-1 $55 reversed single #
loop $-1 $-1 $56 $23 #
plane-surface $-1 -133.07329989118102 -25.876286185903901 58.793816461412881 0 -1 0 0.82903758062907751 0 -0.55919289150049634 forward_v I I I I #
face $-1 $57 $58 $19 $-1 $59 forward single #
loop $-1 $60 $61 $24 #
cone-surface $-1 -48.001011724283046 -29.211890337825679 4.1477733993653523 0.82903758062907751 0 -0.55919289150049634 0.55919289150049634 0 0.82903758062907751 1 I I 0 1 1 forward I I I I #
face $-1 $62 $63 $15 $-1 $64 reversed single #
loop $-1 $-1 $65 $25 #
plane-surface $-1 0 0 -6.5640311238928843 0 0 1 1 0 0 forward_v I I I I #
coedge $-1 $66 $67 $68 $69 forward $26 $-1 #
face $-1 $70 $71 $16 $-1 $72 forward single #
loop $-1 $-1 $73 $28 #
plane-surface $-1 77.082675974858233 -25.876286185903901 141.80333266778905 0 -1 0 -0.82903758062907751 0 -0.55919289150049634 forward_v I I I I #
coedge $-1 $74 $75 $76 $77 reversed $29 $-1 #
face $-1 $-1 $78 $17 $-1 $79 forward single #
loop $-1 $80 $81 $31 #
cone-surface $-1 46.792079759879272 -29.211890337825679 3.3323385184889576 -0.82903758062907751 0 -0.55919289150049634 0.27959644575024817 0 -0.41451879031453875 1 I I -0.70710678118654746 0.70710678118654746 0.5 forward I I I I #
loop $-1 $-1 $82 $22 #
coedge $-1 $52 $52 $83 $84 reversed $32 $-1 #
face $-1 $85 $86 $18 $-1 $87 reversed single #
loop $-1 $-1 $88 $34 #
plane-surface $-1 -50.063783684804861 -29.211890337825679 2.8031925450901056 -0.82903758062907751 0 0.55919289150049634 0.55919289150049634 0 0.82903758062907751 forward_v I I I I #
coedge $-1 $89 $90 $91 $92 reversed $35 $-1 #
face $-1 $-1 $93 $19 $-1 $94 forward single #
loop $-1 $95 $96 $37 #
cone-surface $-1 -46.792079759879272 -29.211890337825679 3.3323385184889611 0.82903758062907751 0 -0.55919289150049634 0.27959644575024817 0 0.41451879031453875 1 I I -0.70710678118654746 0.70710678118654746 0.5 forward I I I I #
loop $-1 $-1 $97 $24 #
coedge $-1 $61 $61 $98 $99 reversed $38 $-1 #
face $-1 $100 $101 $15 $-1 $102 reversed single #
loop $-1 $-1 $103 $40 #
plane-surface $-1 0 -32.547494489747457 0 0 1 0 0 0 1 forward_v I I I I #
coedge $-1 $104 $105 $106 $107 forward $41 $-1 #
coedge $-1 $108 $43 $109 $110 forward $26 $-1 #
coedge $-1 $43 $108 $111 $112 forward $26 $-1 #
coedge $-1 $113 $114 $43 $69 reversed $115 $-1 #
edge $-1 $116 -32.547494489747457 $117 32.547494489747457 $68 $118 forward 7 unknown #
face $-1 $119 $120 $16 $-1 $121 reversed single #
loop $-1 $-1 $122 $44 #
plane-surface $-1 0 0 6.5640311238928843 0 0 1 1 0 0 forward_v I I I I #
coedge $-1 $123 $124 $125 $126 reversed $45 $-1 #
coedge $-1 $127 $47 $128 $129 reversed $29 $-1 #
coedge $-1 $47 $127 $123 $130 forward $29 $-1 #
coedge $-1 $125 $131 $47 $77 forward $132 $-1 #
edge $-1 $133 -17.941549320834618 $134 -11.270341016991061 $76 $135 forward 7 unknown #
loop $-1 $-1 $83 $48 #
plane-surface $-1 -5.9268402315179287 -29.211890337825679 85.812708751466275 0.82903758062907751 0 0.55919289150049634 0.55919289150049634 0 -0.82903758062907751 forward_v I I I I #
loop $-1 $-1 $136 $31 #
coedge $-1 $81 $81 $82 $137 reversed $49 $-1 #
coedge $-1 $82 $82 $81 $137 forward $51 $-1 #
coedge $-1 $83 $83 $52 $84 forward $78 $-1 #
edge $-1 $138 0 $138 6.2831853071796004 $83 $139 forward 7 unknown #
face $-1 $140 $141 $18 $-1 $142 reversed single #
loop $-1 $-1 $91 $53 #
plane-surface $-1 -50.063783684804832 0 0 1 0 0 0 0 -1 forward_v I I I I #
coedge $-1 $143 $144 $145 $146 reversed $54 $-1 #
coedge $-1 $90 $56 $147 $148 reversed $35 $-1 #
coedge $-1 $56 $89 $143 $149 reversed $35 $-1 #
coedge $-1 $145 $150 $56 $92 forward $86 $-1 #
edge $-1 $151 22.832877106813555 $152 26.593715685616292 $91 $153 forward 7 unknown #
loop $-1 $-1 $98 $57 #
plane-surface $-1 -50.063783684804861 -29.211890337825679 2.8031925450901056 -0.82903758062907751 0 0.55919289150049634 0.55919289150049634 0 0.82903758062907751 forward_v I I I I #
loop $-1 $-1 $154 $37 #
coedge $-1 $96 $96 $97 $155 reversed $58 $-1 #
coedge $-1 $97 $97 $96 $155 forward $60 $-1 #
coedge $-1 $98 $98 $61 $99 forward $93 $-1 #
edge $-1 $156 0 $156 6.2831853071796004 $98 $157 forward 7 unknown #
face $-1 $158 $159 $15 $-1 $160 reversed single #
loop $-1 $-1 $161 $62 #
plane-surface $-1 -50.063783684804832 0 0 1 0 0 0 0 -1 forward_v I I I I #
coedge $-1 $162 $111 $163 $164 forward $63 $-1 #
coedge $-1 $165 $65 $162 $166 forward $41 $-1 #
coedge $-1 $65 $165 $167 $168 forward $41 $-1 #
coedge $-1 $114 $113 $65 $107 reversed $115 $-1 #
edge $-1 $169 -32.547494489747457 $170 32.547494489747457 $106 $171 forward 7 unknown #
coedge $-1 $67 $66 $172 $173 forward $26 $-1 #
coedge $-1 $174 $175 $66 $110 reversed $159 $-1 #
edge $-1 $117 -50.063783684804832 $176 50.063783684804832 $109 $177 forward 7 unknown #
coedge $-1 $103 $178 $67 $112 reversed $63 $-1 #
edge $-1 $179 -50.063783684804832 $116 50.063783684804832 $111 $180 forward 7 unknown #
coedge $-1 $106 $68 $178 $181 forward $115 $-1 #
coedge $-1 $68 $106 $174 $182 reversed $115 $-1 #
loop $-1 $-1 $113 $158 #
vertex $-1 $69 $183 #
vertex $-1 $69 $184 #
straight-curve $-1 50.063783684804832 0 6.5640311238928843 0 1 0 I I #
face $-1 $-1 $132 $16 $-1 $185 reversed single #
loop $-1 $-1 $128 $70 #
plane-surface $-1 0 -32.547494489747457 0 0 1 0 0 0 1 forward_v I I I I #
coedge $-1 $186 $187 $124 $188 forward $71 $-1 #
coedge $-1 $124 $73 $75 $130 reversed $45 $-1 #
coedge $-1 $73 $123 $122 $188 reversed $45 $-1 #
coedge $-1 $189 $76 $73 $126 forward $132 $-1 #
edge $-1 $134 -68.098473788804384 $190 -64.337635210001636 $125 $191 forward 7 unknown #
coedge $-1 $75 $74 $186 $192 reversed $29 $-1 #
coedge $-1 $193 $194 $74 $129 forward $120 $-1 #
edge $-1 $195 58.363072730078343 $133 62.899463681076028 $128 $196 forward 7 unknown #
edge $-1 $197 95.591176418611965 $134 100.12756736960964 $123 $198 forward 7 unknown #
coedge $-1 $76 $189 $193 $199 forward $132 $-1 #
loop $-1 $-1 $125 $119 #
vertex $-1 $129 $200 #
vertex $-1 $77 $201 #
straight-curve $-1 50.063783684804832 -14.605945168912839 2.8031925450901269 0 1 0 I I #
coedge $-1 $136 $136 $-1 $202 reversed $80 $-1 #
edge $-1 $203 0 $203 6.2831853071796004 $81 $204 forward 7 unknown #
vertex $-1 $84 $205 #
ellipse-curve $-1 48.795424898372296 -29.211890337825679 4.6836118344915008 0.82903758062907751 0 0.55919289150049634 0.55919289150049634 0 -0.82903758062907751 1 I I #
face $-1 $-1 $206 $18 $-1 $207 forward single #
loop $-1 $-1 $208 $85 #
plane-surface $-1 0 -32.547494489747457 0 0 1 0 0 0 1 forward_v I I I I #
coedge $-1 $209 $88 $90 $149 forward $54 $-1 #
coedge $-1 $88 $209 $208 $210 reversed $54 $-1 #
coedge $-1 $211 $91 $88 $146 forward $86 $-1 #
edge $-1 $152 11.270341016991061 $212 17.941549320834618 $145 $213 forward 7 unknown #
coedge $-1 $214 $215 $89 $148 forward $206 $-1 #
edge $-1 $216 -19.009583833650744 $151 -16.472866260785679 $147 $217 forward 7 unknown #
edge $-1 $152 5.0869049068944123e-014 $216 4.5363909509977063 $90 $218 forward 7 unknown #
coedge $-1 $91 $211 $214 $219 reversed $86 $-1 #
vertex $-1 $219 $220 #
vertex $-1 $92 $221 #
straight-curve $-1 -50.063783684804832 -25.876286185903901 29.39690823070644 0 0 -1 I I #
coedge $-1 $154 $154 $-1 $222 reversed $95 $-1 #
edge $-1 $223 0 $223 6.2831853071796004 $96 $224 forward 7 unknown #
vertex $-1 $99 $225 #
ellipse-curve $-1 -48.795424898372303 -29.211890337825679 4.6836118344915088 -0.82903758062907751 0 0.55919289150049634 0.55919289150049634 0 0.82903758062907751 1 I I #
face $-1 $-1 $115 $15 $-1 $226 reversed single #
loop $-1 $-1 $174 $100 #
plane-surface $-1 0 32.547494489747457 0 0 -1 0 0 0 -1 forward_v I I I I #
coedge $-1 $227 $172 $175 $228 forward $101 $-1 #
coedge $-1 $178 $103 $104 $166 reversed $63 $-1 #
coedge $-1 $172 $227 $103 $164 reversed $101 $-1 #
edge $-1 $179 -6.5640311238928843 $229 6.5640311238928843 $163 $230 forward 7 unknown #
coedge $-1 $105 $104 $227 $231 forward $41 $-1 #
edge $-1 $170 -50.063783684804832 $229 50.063783684804832 $162 $232 forward 7 unknown #
coedge $-1 $175 $174 $105 $168 reversed $159 $-1 #
edge $-1 $233 -50.063783684804832 $169 50.063783684804832 $167 $234 forward 7 unknown #
vertex $-1 $107 $235 #
vertex $-1 $181 $236 #
straight-curve $-1 50.063783684804832 0 -6.5640311238928843 0 -1 0 I I #
coedge $-1 $161 $163 $108 $173 reversed $101 $-1 #
edge $-1 $176 -32.547494489747457 $179 32.547494489747457 $172 $237 forward 7 unknown #
coedge $-1 $167 $109 $114 $182 forward $159 $-1 #
coedge $-1 $109 $167 $161 $228 reversed $159 $-1 #
vertex $-1 $110 $238 #
straight-curve $-1 0 32.547494489747457 6.5640311238928843 -1 0 0 I I #
coedge $-1 $111 $162 $113 $181 reversed $63 $-1 #
vertex $-1 $173 $239 #
straight-curve $-1 0 -32.547494489747457 6.5640311238928843 1 0 0 I I #
edge $-1 $116 -6.5640311238928843 $170 6.5640311238928843 $113 $240 forward 7 unknown #
edge $-1 $117 -6.5640311238928843 $169 6.5640311238928843 $114 $241 forward 7 unknown #
point $-1 50.063783684804832 -32.547494489747457 6.5640311238928843 #
point $-1 50.063783684804832 32.547494489747457 6.5640311238928843 #
plane-surface $-1 50.063783684804832 0 0 -1 0 0 0 0 1 forward_v I I I I #
coedge $-1 $242 $122 $127 $192 forward $71 $-1 #
coedge $-1 $122 $242 $189 $243 forward $71 $-1 #
edge $-1 $190 -11.522445697375716 $197 -8.9857281245106364 $122 $244 forward 7 unknown #
coedge $-1 $131 $125 $187 $243 reversed $132 $-1 #
vertex $-1 $126 $245 #
straight-curve $-1 50.063783684804832 -25.876286185903901 70.901666333894525 0 0 1 I I #
edge $-1 $197 11.270341016991061 $195 17.941549320834618 $186 $246 forward 7 unknown #
coedge $-1 $194 $128 $131 $199 reversed $120 $-1 #
coedge $-1 $128 $193 $242 $247 reversed $120 $-1 #
vertex $-1 $247 $248 #
straight-curve $-1 14.890850715153483 -32.547494489747457 54.949211738115928 0.55919289150049634 0 -0.82903758062907751 I I #
vertex $-1 $192 $249 #
straight-curve $-1 -5.9268402315179287 -25.876286185903901 85.812708751466275 0.55919289150049634 0 -0.82903758062907751 I I #
edge $-1 $250 -6.5640311238928843 $133 -2.8031925450901349 $131 $251 forward 7 unknown #
point $-1 50.063783684804832 -32.547494489747457 2.8031925450901349 #
point $-1 50.063783684804832 -25.876286185903901 2.8031925450901412 #
edge $-1 $252 1 $252 0 $136 $-1 forward 7 unknown #
vertex $-1 $137 $253 #
ellipse-curve $-1 47.20659855019381 -29.211890337825679 3.6119349642392056 0.82903758062907751 0 0.55919289150049634 0.55919289150049634 0 -0.82903758062907751 1 I I #
point $-1 49.354617789872783 -29.211890337825679 3.854574253862415 #
loop $-1 $-1 $147 $140 #
plane-surface $-1 0 0 6.5640311238928843 0 0 1 1 0 0 forward_v I I I I #
coedge $-1 $254 $255 $144 $210 forward $141 $-1 #
coedge $-1 $144 $143 $215 $256 reversed $54 $-1 #
edge $-1 $212 -12.835679996271168 $257 -8.2992890452735129 $208 $258 forward 7 unknown #
coedge $-1 $150 $145 $255 $259 reversed $86 $-1 #
vertex $-1 $210 $260 #
straight-curve $-1 -50.063783684804832 -14.605945168912839 2.8031925450901465 0 -1 0 I I #
coedge $-1 $261 $147 $150 $219 forward $206 $-1 #
coedge $-1 $147 $261 $209 $256 forward $206 $-1 #
vertex $-1 $148 $262 #
straight-curve $-1 -66.536649945590511 -25.876286185903901 6.5640311238928852 -1 0 0 I I #
straight-curve $-1 -50.063783684804861 -25.876286185903901 2.8031925450901056 0.55919289150049634 0 0.82903758062907751 I I #
edge $-1 $151 25.876286185903901 $263 32.547494489747457 $150 $264 forward 7 unknown #
point $-1 -50.063783684804832 -25.876286185903901 6.5640311238928843 #
point $-1 -50.063783684804832 -25.876286185903901 2.8031925450901478 #
edge $-1 $265 1 $265 0 $154 $-1 forward 7 unknown #
vertex $-1 $155 $266 #
ellipse-curve $-1 -47.20659855019381 -29.211890337825679 3.6119349642392091 -0.82903758062907751 0 0.55919289150049634 0.55919289150049634 0 0.82903758062907751 1 I I #
point $-1 -48.236232006871795 -29.211890337825679 5.5126494151205732 #
plane-surface $-1 50.063783684804832 0 0 -1 0 0 0 0 1 forward_v I I I I #
coedge $-1 $163 $161 $165 $231 reversed $101 $-1 #
edge $-1 $176 -6.5640311238928843 $233 6.5640311238928843 $175 $267 forward 7 unknown #
vertex $-1 $231 $268 #
straight-curve $-1 -50.063783684804832 -32.547494489747457 0 0 0 -1 I I #
edge $-1 $229 -32.547494489747457 $233 32.547494489747457 $227 $269 forward 7 unknown #
straight-curve $-1 0 -32.547494489747457 -6.5640311238928843 -1 0 0 I I #
vertex $-1 $168 $270 #
straight-curve $-1 0 32.547494489747457 -6.5640311238928843 1 0 0 I I #
point $-1 50.063783684804832 32.547494489747457 -6.5640311238928843 #
point $-1 50.063783684804832 -32.547494489747457 -6.5640311238928843 #
straight-curve $-1 -50.063783684804832 0 6.5640311238928843 0 -1 0 I I #
point $-1 -50.063783684804832 32.547494489747457 6.5640311238928843 #
point $-1 -50.063783684804832 -32.547494489747457 6.5640311238928843 #
straight-curve $-1 50.063783684804832 -32.547494489747457 0 0 0 -1 I I #
straight-curve $-1 50.063783684804832 32.547494489747457 0 0 0 -1 I I #
coedge $-1 $187 $186 $194 $247 forward $71 $-1 #
edge $-1 $250 -32.547494489747457 $190 -25.876286185903901 $189 $271 forward 7 unknown #
straight-curve $-1 38.541337987429117 -25.876286185903901 6.5640311238928888 -1 0 0 I I #
point $-1 50.063783684804832 -25.876286185903901 6.5640311238928843 #
straight-curve $-1 47.52706611193976 -14.605945168912839 6.5640311238928888 0 -1 0 I I #
edge $-1 $195 47.527066111939753 $250 50.063783684804832 $194 $272 forward 7 unknown #
point $-1 47.527066111939753 -32.547494489747457 6.5640311238928888 #
point $-1 47.527066111939753 -25.876286185903901 6.5640311238928888 #
vertex $-1 $243 $273 #
straight-curve $-1 50.063783684804832 -32.547494489747457 0 0 0 -1 I I #
vertex $-1 $202 $274 #
point $-1 47.765791441694304 -29.211890337825679 2.7828973836101283 #
coedge $-1 $255 $208 $261 $275 reversed $141 $-1 #
coedge $-1 $208 $254 $211 $259 forward $141 $-1 #
edge $-1 $257 -17.941549320834618 $216 -11.270341016991061 $215 $276 forward 7 unknown #
vertex $-1 $256 $277 #
straight-curve $-1 -42.886162673314878 -32.547494489747457 13.444453634927843 0.55919289150049634 0 0.82903758062907751 I I #
edge $-1 $263 -6.5640311238928843 $212 -2.8031925450901478 $211 $278 forward 7 unknown #
point $-1 -50.063783684804832 -32.547494489747457 2.8031925450901478 #
coedge $-1 $215 $214 $254 $275 forward $206 $-1 #
point $-1 -47.527066111939767 -25.876286185903901 6.5640311238928843 #
vertex $-1 $219 $279 #
straight-curve $-1 -50.063783684804832 0 6.5640311238928843 0 -1 0 I I #
vertex $-1 $222 $280 #
point $-1 -46.647405658693316 -29.211890337825679 4.4409725448682869 #
straight-curve $-1 -50.063783684804832 32.547494489747457 0 0 0 -1 I I #
point $-1 -50.063783684804832 -32.547494489747457 -6.5640311238928843 #
straight-curve $-1 -50.063783684804832 0 -6.5640311238928843 0 1 0 I I #
point $-1 -50.063783684804832 32.547494489747457 -6.5640311238928843 #
straight-curve $-1 50.063783684804832 0 6.5640311238928843 0 1 0 I I #
straight-curve $-1 0 -32.547494489747457 6.5640311238928843 1 0 0 I I #
point $-1 50.063783684804832 -32.547494489747457 6.5640311238928843 #
point $-1 46.377560969564733 -29.211890337825679 3.0527420727387096 #
edge $-1 $263 -50.063783684804832 $257 -47.527066111939767 $254 $281 forward 7 unknown #
straight-curve $-1 -47.52706611193976 -14.605945168912839 6.5640311238928852 0 1 0 I I #
point $-1 -47.527066111939767 -32.547494489747457 6.5640311238928843 #
straight-curve $-1 -50.063783684804832 -32.547494489747457 0 0 0 -1 I I #
point $-1 -50.063783684804832 -32.547494489747457 6.5640311238928843 #
point $-1 -46.377560969564733 -29.211890337825679 3.0527420727387131 #
straight-curve $-1 0 -32.547494489747457 6.5640311238928843 1 0 0 I I #
End-of-ACIS-data 