500 0 6 0           
7 Unknown 11 ACIS 5.0 NT 24 Fri Mar 26 00:32:50 1999 
-1 9.9999999999999995e-007 1e-010 
body $-1 $6 $-1 $7 #
body $-1 $8 $-1 $9 #
body $-1 $10 $-1 $11 #
body $-1 $12 $-1 $13 #
body $-1 $14 $-1 $15 #
body $-1 $16 $-1 $17 #
lump $-1 $-1 $18 $0 #
transform $-1 1 0 0 0 1 0 0 0 1 43.364360484633927 23.509552566825846 5.6918128442605713 1 rotate no_reflect no_shear #
lump $-1 $-1 $19 $1 #
transform $-1 1 0 0 0 1 0 0 0 1 43.364360484633927 23.509552566825846 5.6918128442605713 1 rotate no_reflect no_shear #
lump $-1 $-1 $20 $2 #
transform $-1 1 0 0 0 1 0 0 0 1 43.364360484633927 23.509552566825846 5.6918128442605713 1 rotate no_reflect no_shear #
lump $-1 $-1 $21 $3 #
transform $-1 1 0 0 0 1 0 0 0 1 43.364360484633927 23.509552566825846 5.6918128442605713 1 rotate no_reflect no_shear #
lump $-1 $-1 $22 $4 #
transform $-1 1 0 0 0 1 0 0 0 1 43.364360484633927 23.509552566825846 5.6918128442605713 1 rotate no_reflect no_shear #
lump $-1 $-1 $23 $5 #
transform $-1 1 0 0 0 1 0 0 0 1 43.364360484633927 23.509552566825846 5.6918128442605713 1 rotate no_reflect no_shear #
shell $-1 $-1 $-1 $24 $-1 $6 #
shell $-1 $-1 $-1 $25 $-1 $8 #
shell $-1 $-1 $-1 $26 $-1 $10 #
shell $-1 $-1 $-1 $27 $-1 $12 #
shell $-1 $-1 $-1 $28 $-1 $14 #
shell $-1 $-1 $-1 $29 $-1 $16 #
face $-1 $30 $31 $18 $-1 $32 forward single #
face $-1 $33 $34 $19 $-1 $35 reversed single #
face $-1 $36 $37 $20 $-1 $38 forward single #
face $-1 $39 $40 $21 $-1 $41 forward single #
face $-1 $42 $43 $22 $-1 $44 reversed single #
face $-1 $45 $46 $23 $-1 $47 forward single #
face $-1 $48 $49 $18 $-1 $50 reversed single #
loop $-1 $-1 $51 $24 #
plane-surface $-1 0 0 5.6918128442605713 0 0 1 1 0 0 forward_v I I I I #
face $-1 $52 $53 $19 $-1 $54 reversed single #
loop $-1 $-1 $55 $25 #
plane-surface $-1 34.015487675540903 43.238976598676672 97.147434987467122 1 0 0 0 -0.64278761758704617 -0.76604443648966558 forward_v I I I I #
face $-1 $56 $57 $20 $-1 $58 forward single #
loop $-1 $59 $60 $26 #
cone-surface $-1 36.686594192424629 19.684322330639564 2.2270043551362804 0 -0.64278761758704617 -0.76604443648966558 1 0 0 1 I I 0 1 1 forward I I I I #
face $-1 $61 $62 $21 $-1 $63 forward single #
loop $-1 $64 $65 $27 #
cone-surface $-1 40.693253967750216 19.684322330639564 2.2270043551362804 0 -0.64278761758704617 -0.76604443648966558 1 0 0 1 I I 0 1 1 forward I I I I #
face $-1 $66 $67 $22 $-1 $68 reversed single #
loop $-1 $-1 $69 $28 #
plane-surface $-1 15.564418213590194 -97.850576892908947 47.054642469800797 -1 0 0 0 -0.85716730853699208 0.51503806187062418 forward_v I I I I #
face $-1 $70 $71 $23 $-1 $72 forward single #
loop $-1 $73 $74 $29 #
cone-surface $-1 3.0233345238860281 -21.795806017900524 3.6059541780728641 0 0.85716730853699208 -0.51503806187062418 0.5 0 0 1 I I 0 1 0.5 forward I I I I #
face $-1 $75 $76 $18 $-1 $77 reversed single #
loop $-1 $-1 $78 $30 #
plane-surface $-1 0 0 -5.6918128442605713 0 0 1 1 0 0 forward_v I I I I #
coedge $-1 $79 $80 $81 $82 forward $31 $-1 #
face $-1 $83 $84 $19 $-1 $85 forward single #
loop $-1 $-1 $86 $33 #
plane-surface $-1 38.689924080087415 -12.509171329530709 30.709380805094881 0 0.64278761758704617 0.76604443648966558 1 0 0 forward_v I I I I #
coedge $-1 $87 $88 $89 $90 reversed $34 $-1 #
face $-1 $-1 $91 $20 $-1 $92 forward single #
loop $-1 $93 $94 $36 #
cone-surface $-1 36.686594192424629 18.639672298425623 0.98203895231741001 0 -0.64278761758704617 -0.76604443648966558 0.5 0 0 1 I I -0.70710678118654746 0.70710678118654746 0.5 forward I I I I #
loop $-1 $-1 $95 $26 #
coedge $-1 $60 $60 $96 $97 reversed $37 $-1 #
face $-1 $-1 $98 $21 $-1 $99 forward single #
loop $-1 $100 $101 $39 #
cone-surface $-1 40.693253967750216 18.639672298425623 0.98203895231741001 0 -0.64278761758704617 -0.76604443648966558 0.5 0 0 1 I I -0.70710678118654746 0.70710678118654746 0.5 forward I I I I #
loop $-1 $-1 $102 $27 #
coedge $-1 $65 $65 $103 $104 reversed $40 $-1 #
face $-1 $105 $106 $22 $-1 $107 reversed single #
loop $-1 $-1 $108 $42 #
plane-surface $-1 3.0233345238860281 -23.509552566825832 2.3860501132709189 0 -0.85716730853699208 0.51503806187062418 1 0 0 forward_v I I I I #
coedge $-1 $109 $110 $111 $112 reversed $43 $-1 #
face $-1 $-1 $113 $23 $-1 $114 forward single #
loop $-1 $115 $116 $45 #
cone-surface $-1 3.0233345238860281 -20.860918928069445 3.0442173619123256 0 0.85716730853699208 -0.51503806187062418 0.25 0 0 1 I I -0.70710678118654746 0.70710678118654746 0.25 forward I I I I #
loop $-1 $-1 $117 $29 #
coedge $-1 $74 $74 $118 $119 reversed $46 $-1 #
face $-1 $120 $121 $18 $-1 $122 reversed single #
loop $-1 $-1 $123 $48 #
plane-surface $-1 0 -23.509552566825846 0 0 1 0 0 0 1 forward_v I I I I #
coedge $-1 $124 $125 $126 $127 forward $49 $-1 #
coedge $-1 $128 $51 $129 $130 forward $31 $-1 #
coedge $-1 $51 $128 $131 $132 forward $31 $-1 #
coedge $-1 $133 $134 $51 $82 reversed $135 $-1 #
edge $-1 $136 -23.509552566825846 $137 23.509552566825846 $81 $138 forward 7 unknown #
face $-1 $139 $140 $19 $-1 $141 reversed single #
loop $-1 $-1 $89 $52 #
plane-surface $-1 0 0 5.6918128442605713 0 0 1 1 0 0 forward_v I I I I #
coedge $-1 $142 $143 $144 $145 reversed $53 $-1 #
coedge $-1 $88 $55 $146 $147 reversed $34 $-1 #
coedge $-1 $55 $87 $142 $148 reversed $34 $-1 #
coedge $-1 $144 $149 $55 $90 forward $84 $-1 #
edge $-1 $150 -1.8900642674875101 $151 4.3138837580442342 $89 $152 forward 7 unknown #
loop $-1 $-1 $96 $56 #
plane-surface $-1 38.689924080087415 -12.509171329530709 30.709380805094881 0 0.64278761758704617 0.76604443648966558 1 0 0 forward_v I I I I #
loop $-1 $-1 $153 $36 #
coedge $-1 $94 $94 $95 $154 reversed $57 $-1 #
coedge $-1 $95 $95 $94 $154 forward $59 $-1 #
coedge $-1 $96 $96 $60 $97 forward $91 $-1 #
edge $-1 $155 3.0488228265027289e-016 $155 6.2831853071796004 $96 $156 forward 7 unknown #
loop $-1 $-1 $103 $61 #
plane-surface $-1 38.689924080087415 -12.509171329530709 30.709380805094881 0 0.64278761758704617 0.76604443648966558 1 0 0 forward_v I I I I #
loop $-1 $-1 $157 $39 #
coedge $-1 $101 $101 $102 $158 reversed $62 $-1 #
coedge $-1 $102 $102 $101 $158 forward $64 $-1 #
coedge $-1 $103 $103 $65 $104 forward $98 $-1 #
edge $-1 $159 3.0488228265027289e-016 $159 6.2831853071796004 $103 $160 forward 7 unknown #
face $-1 $161 $162 $22 $-1 $163 reversed single #
loop $-1 $-1 $164 $66 #
plane-surface $-1 -9.5177491658181381 -97.850576892908947 47.054642469800797 1 0 0 0 0.85716730853699208 -0.51503806187062418 forward_v I I I I #
coedge $-1 $165 $166 $167 $168 reversed $67 $-1 #
coedge $-1 $110 $69 $169 $170 reversed $43 $-1 #
coedge $-1 $69 $109 $165 $171 reversed $43 $-1 #
coedge $-1 $167 $172 $69 $112 forward $173 $-1 #
edge $-1 $174 25.415735879628627 $175 27.40203845208562 $111 $176 forward 7 unknown #
loop $-1 $-1 $118 $70 #
plane-surface $-1 3.0233345238860281 -23.509552566825832 2.3860501132709189 0 -0.85716730853699208 0.51503806187062418 1 0 0 forward_v I I I I #
loop $-1 $-1 $177 $45 #
coedge $-1 $116 $116 $117 $178 reversed $71 $-1 #
coedge $-1 $117 $117 $116 $178 forward $73 $-1 #
coedge $-1 $118 $118 $74 $119 forward $113 $-1 #
edge $-1 $179 1.2023834831759341e-015 $179 6.2831853071796013 $118 $180 forward 7 unknown #
face $-1 $181 $182 $18 $-1 $183 reversed single #
loop $-1 $-1 $184 $75 #
plane-surface $-1 -43.364360484633927 0 0 1 0 0 0 0 -1 forward_v I I I I #
coedge $-1 $185 $131 $186 $187 forward $76 $-1 #
coedge $-1 $188 $78 $185 $189 forward $49 $-1 #
coedge $-1 $78 $188 $190 $191 forward $49 $-1 #
coedge $-1 $134 $133 $78 $127 reversed $135 $-1 #
edge $-1 $192 -23.509552566825846 $193 23.509552566825846 $126 $194 forward 7 unknown #
coedge $-1 $80 $79 $195 $196 forward $31 $-1 #
coedge $-1 $197 $198 $79 $130 reversed $182 $-1 #
edge $-1 $137 -43.364360484633927 $199 43.364360484633927 $129 $200 forward 7 unknown #
coedge $-1 $123 $201 $80 $132 reversed $76 $-1 #
edge $-1 $202 -43.364360484633927 $136 43.364360484633927 $131 $203 forward 7 unknown #
coedge $-1 $126 $81 $201 $204 forward $135 $-1 #
coedge $-1 $81 $126 $197 $205 reversed $135 $-1 #
loop $-1 $-1 $133 $181 #
vertex $-1 $82 $206 #
vertex $-1 $82 $207 #
straight-curve $-1 43.364360484633927 0 5.6918128442605713 0 1 0 I I #
face $-1 $-1 $208 $19 $-1 $209 reversed single #
loop $-1 $-1 $146 $83 #
plane-surface $-1 0 23.509552566825846 0 0 -1 0 0 0 -1 forward_v I I I I #
coedge $-1 $210 $86 $88 $148 forward $53 $-1 #
coedge $-1 $86 $210 $211 $212 reversed $53 $-1 #
coedge $-1 $213 $89 $86 $145 forward $84 $-1 #
edge $-1 $151 14.670525635497196 $214 24.01939844459022 $144 $215 forward 7 unknown #
coedge $-1 $216 $217 $87 $147 forward $140 $-1 #
edge $-1 $218 -48.087635258573499 $150 -42.881904649472986 $146 $219 forward 7 unknown #
edge $-1 $151 38.920426088398372 $218 47.019105133651692 $88 $220 forward 7 unknown #
coedge $-1 $89 $213 $216 $221 forward $84 $-1 #
vertex $-1 $147 $222 #
vertex $-1 $90 $223 #
straight-curve $-1 34.015487675540903 21.619488299338336 5.6918128442605749 0 -1 0 I I #
coedge $-1 $153 $153 $-1 $224 reversed $93 $-1 #
edge $-1 $225 0 $225 6.2831853071796004 $94 $226 forward 7 unknown #
vertex $-1 $97 $227 #
ellipse-curve $-1 36.686594192424629 20.407578554059974 3.0889475397103094 0 0.64278761758704617 0.76604443648966558 1 0 0 1 I I #
coedge $-1 $157 $157 $-1 $228 reversed $100 $-1 #
edge $-1 $229 0 $229 6.2831853071796004 $101 $230 forward 7 unknown #
vertex $-1 $104 $231 #
ellipse-curve $-1 40.693253967750216 20.407578554059974 3.0889475397103094 0 0.64278761758704617 0.76604443648966558 1 0 0 1 I I #
face $-1 $-1 $173 $22 $-1 $232 forward single #
loop $-1 $-1 $233 $105 #
plane-surface $-1 0 -23.509552566825846 0 0 1 0 0 0 1 forward_v I I I I #
coedge $-1 $234 $235 $236 $237 reversed $106 $-1 #
coedge $-1 $238 $108 $110 $171 forward $67 $-1 #
coedge $-1 $108 $238 $234 $239 forward $67 $-1 #
coedge $-1 $236 $111 $108 $168 forward $173 $-1 #
edge $-1 $175 -14.05275095164718 $240 11.029416427761152 $167 $241 forward 7 unknown #
coedge $-1 $242 $243 $109 $170 forward $162 $-1 #
edge $-1 $244 -21.141271121629504 $174 -17.835508390639827 $169 $245 forward 7 unknown #
edge $-1 $175 -3.8566131699911748 $244 2.7494044966190042e-014 $110 $246 forward 7 unknown #
coedge $-1 $111 $236 $242 $247 forward $173 $-1 #
loop $-1 $-1 $236 $161 #
vertex $-1 $170 $248 #
vertex $-1 $112 $249 #
straight-curve $-1 15.564418213590194 -48.925288446454474 5.6918128442605713 0 1 0 I I #
coedge $-1 $177 $177 $-1 $250 reversed $115 $-1 #
edge $-1 $251 0 $251 6.2831853071796004 $116 $252 forward 7 unknown #
vertex $-1 $119 $253 #
ellipse-curve $-1 3.0233345238860281 -22.516401280597346 4.0389314787657398 0 -0.85716730853699208 0.51503806187062418 0.5 0 0 1 I I #
face $-1 $-1 $135 $18 $-1 $254 reversed single #
loop $-1 $-1 $197 $120 #
plane-surface $-1 0 23.509552566825846 0 0 -1 0 0 0 -1 forward_v I I I I #
coedge $-1 $255 $195 $198 $256 forward $121 $-1 #
coedge $-1 $201 $123 $124 $189 reversed $76 $-1 #
coedge $-1 $195 $255 $123 $187 reversed $121 $-1 #
edge $-1 $202 -5.6918128442605713 $257 5.6918128442605713 $186 $258 forward 7 unknown #
coedge $-1 $125 $124 $255 $259 forward $49 $-1 #
edge $-1 $193 -43.364360484633927 $257 43.364360484633927 $185 $260 forward 7 unknown #
coedge $-1 $198 $197 $125 $191 reversed $182 $-1 #
edge $-1 $261 -43.364360484633927 $192 43.364360484633927 $190 $262 forward 7 unknown #
vertex $-1 $127 $263 #
vertex $-1 $204 $264 #
straight-curve $-1 43.364360484633927 0 -5.6918128442605713 0 -1 0 I I #
coedge $-1 $184 $186 $128 $196 reversed $121 $-1 #
edge $-1 $199 -23.509552566825846 $202 23.509552566825846 $195 $265 forward 7 unknown #
coedge $-1 $190 $129 $134 $205 forward $182 $-1 #
coedge $-1 $129 $190 $184 $256 reversed $182 $-1 #
vertex $-1 $130 $266 #
straight-curve $-1 0 23.509552566825846 5.6918128442605713 -1 0 0 I I #
coedge $-1 $131 $185 $133 $204 reversed $76 $-1 #
vertex $-1 $196 $267 #
straight-curve $-1 0 -23.509552566825846 5.6918128442605713 1 0 0 I I #
edge $-1 $136 -5.6918128442605713 $193 5.6918128442605713 $133 $268 forward 7 unknown #
edge $-1 $137 -5.6918128442605713 $192 5.6918128442605713 $134 $269 forward 7 unknown #
point $-1 43.364360484633927 -23.509552566825846 5.6918128442605713 #
point $-1 43.364360484633927 23.509552566825846 5.6918128442605713 #
loop $-1 $-1 $211 $139 #
plane-surface $-1 43.364360484633927 0 0 -1 0 0 0 0 1 forward_v I I I I #
coedge $-1 $143 $142 $217 $270 reversed $53 $-1 #
coedge $-1 $271 $272 $143 $212 forward $208 $-1 #
edge $-1 $214 24.259330674716708 $273 32.358009719970028 $211 $274 forward 7 unknown #
coedge $-1 $149 $144 $272 $275 forward $84 $-1 #
vertex $-1 $275 $276 #
straight-curve $-1 19.344962040043708 17.305604541294105 5.6918128442605713 1 0 0 I I #
coedge $-1 $277 $146 $149 $221 reversed $140 $-1 #
coedge $-1 $146 $277 $210 $270 forward $140 $-1 #
vertex $-1 $147 $278 #
straight-curve $-1 34.015487675540903 23.509552566825846 48.573717493733561 0 0 1 I I #
straight-curve $-1 34.015487675540903 -12.509171329530709 30.709380805094881 0 0.76604443648966558 -0.64278761758704617 I I #
edge $-1 $279 -43.364360484633927 $150 -34.015487675540903 $216 $280 forward 7 unknown #
point $-1 34.015487675540903 23.509552566825846 5.6918128442605713 #
point $-1 34.015487675540903 17.305604541294102 5.6918128442605713 #
edge $-1 $281 1 $281 0 $153 $-1 forward 7 unknown #
vertex $-1 $154 $282 #
ellipse-curve $-1 36.686594192424629 18.961066107219146 1.3650611705622429 0 0.64278761758704617 0.76604443648966558 1 0 0 1 I I #
point $-1 37.686594192424629 20.407578554059981 3.0889475397103174 #
edge $-1 $283 1 $283 0 $157 $-1 forward 7 unknown #
vertex $-1 $158 $284 #
ellipse-curve $-1 40.693253967750216 18.961066107219146 1.3650611705622429 0 0.64278761758704617 0.76604443648966558 1 0 0 1 I I #
point $-1 41.693253967750216 20.407578554059981 3.0889475397103174 #
plane-surface $-1 0 0 5.6918128442605713 0 0 1 1 0 0 forward_v I I I I #
coedge $-1 $243 $242 $235 $285 forward $162 $-1 #
coedge $-1 $235 $164 $166 $239 reversed $106 $-1 #
coedge $-1 $164 $234 $233 $285 reversed $106 $-1 #
coedge $-1 $172 $167 $164 $237 forward $173 $-1 #
edge $-1 $240 -27.40203845208562 $286 -25.415735879628627 $236 $287 forward 7 unknown #
coedge $-1 $166 $165 $243 $288 reversed $67 $-1 #
edge $-1 $289 -2.7494044966190042e-014 $240 3.8566131699911748 $234 $290 forward 7 unknown #
vertex $-1 $168 $291 #
straight-curve $-1 1.511667261943014 -21.523249994368854 5.6918128442605713 -1 0 0 I I #
coedge $-1 $233 $169 $172 $247 reversed $162 $-1 #
coedge $-1 $169 $233 $238 $288 forward $162 $-1 #
vertex $-1 $170 $292 #
straight-curve $-1 15.564418213590194 -23.509552566825846 23.527321234900398 0 0 1 I I #
straight-curve $-1 15.564418213590194 -23.509552566825832 2.3860501132709189 0 -0.51503806187062418 -0.85716730853699208 I I #
edge $-1 $286 -9.5177491658181381 $174 15.564418213590194 $242 $293 forward 7 unknown #
point $-1 15.564418213590194 -23.509552566825846 5.6918128442605713 #
point $-1 15.564418213590194 -21.523249994368854 5.6918128442605713 #
edge $-1 $294 1 $294 0 $177 $-1 forward 7 unknown #
vertex $-1 $178 $295 #
ellipse-curve $-1 3.0233345238860281 -21.075210755203692 3.1729768773799818 0 -0.85716730853699208 0.51503806187062418 0.5 0 0 1 I I #
point $-1 3.5233345238860281 -22.516401280597357 4.0389314787657469 #
plane-surface $-1 43.364360484633927 0 0 -1 0 0 0 0 1 forward_v I I I I #
coedge $-1 $186 $184 $188 $259 reversed $121 $-1 #
edge $-1 $199 -5.6918128442605713 $261 5.6918128442605713 $198 $296 forward 7 unknown #
vertex $-1 $259 $297 #
straight-curve $-1 -43.364360484633927 -23.509552566825846 0 0 0 -1 I I #
edge $-1 $257 -23.509552566825846 $261 23.509552566825846 $255 $298 forward 7 unknown #
straight-curve $-1 0 -23.509552566825846 -5.6918128442605713 -1 0 0 I I #
vertex $-1 $191 $299 #
straight-curve $-1 0 23.509552566825846 -5.6918128442605713 1 0 0 I I #
point $-1 43.364360484633927 23.509552566825846 -5.6918128442605713 #
point $-1 43.364360484633927 -23.509552566825846 -5.6918128442605713 #
straight-curve $-1 -43.364360484633927 0 5.6918128442605713 0 -1 0 I I #
point $-1 -43.364360484633927 23.509552566825846 5.6918128442605713 #
point $-1 -43.364360484633927 -23.509552566825846 5.6918128442605713 #
straight-curve $-1 43.364360484633927 -23.509552566825846 0 0 0 -1 I I #
straight-curve $-1 43.364360484633927 23.509552566825846 0 0 0 -1 I I #
edge $-1 $273 -24.01939844459022 $218 -14.670525635497196 $217 $300 forward 7 unknown #
coedge $-1 $272 $211 $277 $301 reversed $208 $-1 #
coedge $-1 $211 $271 $213 $275 reversed $208 $-1 #
vertex $-1 $212 $302 #
straight-curve $-1 43.364360484633927 -1.2781207550357143 21.285410212918073 0 0.76604443648966558 -0.64278761758704617 I I #
edge $-1 $214 17.305604541294102 $279 23.509552566825846 $272 $303 forward 7 unknown #
point $-1 43.364360484633927 17.305604541294102 5.6918128442605713 #
coedge $-1 $217 $216 $271 $301 forward $140 $-1 #
point $-1 34.015487675540903 23.509552566825846 0.48608223516005822 #
vertex $-1 $275 $304 #
straight-curve $-1 0 23.509552566825846 5.6918128442605713 -1 0 0 I I #
vertex $-1 $224 $305 #
point $-1 37.686594192424629 18.961066107219146 1.3650611705622429 #
vertex $-1 $228 $306 #
point $-1 41.693253967750216 18.961066107219146 1.3650611705622429 #
edge $-1 $286 17.835508390639827 $289 21.141271121629504 $233 $307 forward 7 unknown #
vertex $-1 $247 $308 #
straight-curve $-1 -9.5177491658181381 -48.925288446454474 5.6918128442605713 0 -1 0 I I #
edge $-1 $289 -11.029416427761152 $244 14.05275095164718 $243 $309 forward 7 unknown #
vertex $-1 $288 $310 #
straight-curve $-1 -9.5177491658181381 -23.509552566825832 2.3860501132709189 0 0.51503806187062418 0.85716730853699208 I I #
point $-1 -9.5177491658181381 -21.523249994368854 5.6918128442605713 #
point $-1 15.564418213590194 -23.509552566825846 2.3860501132708953 #
straight-curve $-1 0 -23.509552566825846 5.6918128442605713 1 0 0 I I #
vertex $-1 $250 $311 #
point $-1 3.5233345238860281 -21.075210755203692 3.1729768773799818 #
straight-curve $-1 -43.364360484633927 23.509552566825846 0 0 0 -1 I I #
point $-1 -43.364360484633927 -23.509552566825846 -5.6918128442605713 #
straight-curve $-1 -43.364360484633927 0 -5.6918128442605713 0 1 0 I I #
point $-1 -43.364360484633927 23.509552566825846 -5.6918128442605713 #
straight-curve $-1 19.344962040043708 23.509552566825842 0.48608223516005644 -1 0 0 I I #
edge $-1 $279 -5.6918128442605713 $273 -0.48608223516005822 $271 $312 forward 7 unknown #
point $-1 43.364360484633927 23.509552566825846 0.48608223516005822 #
straight-curve $-1 43.364360484633927 0 5.6918128442605713 0 1 0 I I #
point $-1 43.364360484633927 23.509552566825846 5.6918128442605713 #
point $-1 36.686594192424629 18.3182784896321 0.59901673407257716 #
point $-1 40.693253967750216 18.3182784896321 0.59901673407257716 #
straight-curve $-1 -9.5177491658181381 -23.509552566825846 23.527321234900398 0 0 -1 I I #
point $-1 -9.5177491658181381 -23.509552566825846 5.6918128442605713 #
straight-curve $-1 1.511667261943014 -23.509552566825846 2.3860501132708931 1 0 0 I I #
point $-1 -9.5177491658181381 -23.509552566825846 2.3860501132708953 #
point $-1 3.0233345238860281 -20.646627100935198 2.9154578464446694 #
straight-curve $-1 43.364360484633927 23.509552566825846 0 0 0 -1 I I #
End-of-ACIS-data 