500 0 18 0           
7 Unknown 11 ACIS 5.0 NT 24 Fri Mar 26 03:20:59 1999 
-1 9.9999999999999995e-007 1e-010 
body $-1 $18 $-1 $19 #
body $-1 $20 $-1 $21 #
body $-1 $22 $-1 $23 #
body $-1 $24 $-1 $25 #
body $-1 $26 $-1 $27 #
body $-1 $28 $-1 $29 #
body $-1 $30 $-1 $31 #
body $-1 $32 $-1 $33 #
body $-1 $34 $-1 $35 #
body $-1 $36 $-1 $37 #
body $-1 $38 $-1 $39 #
body $-1 $40 $-1 $41 #
body $-1 $42 $-1 $43 #
body $-1 $44 $-1 $45 #
body $-1 $46 $-1 $47 #
body $-1 $48 $-1 $49 #
body $-1 $50 $-1 $51 #
body $-1 $52 $-1 $53 #
lump $-1 $-1 $54 $0 #
transform $-1 1 0 0 0 1 0 0 0 1 50.034485915707876 21.122380345310951 9.3519408275897433 1 rotate no_reflect no_shear #
lump $-1 $-1 $55 $1 #
transform $-1 1 0 0 0 1 0 0 0 1 50.034485915707876 21.122380345310951 9.3519408275897433 1 rotate no_reflect no_shear #
lump $-1 $-1 $56 $2 #
transform $-1 1 0 0 0 1 0 0 0 1 50.034485915707876 21.122380345310951 9.3519408275897433 1 rotate no_reflect no_shear #
lump $-1 $-1 $57 $3 #
transform $-1 1 0 0 0 1 0 0 0 1 50.034485915707876 21.122380345310951 9.3519408275897433 1 rotate no_reflect no_shear #
lump $-1 $-1 $58 $4 #
transform $-1 1 0 0 0 1 0 0 0 1 50.034485915707876 21.122380345310951 9.3519408275897433 1 rotate no_reflect no_shear #
lump $-1 $-1 $59 $5 #
transform $-1 1 0 0 0 1 0 0 0 1 50.034485915707876 21.122380345310951 9.3519408275897433 1 rotate no_reflect no_shear #
lump $-1 $-1 $60 $6 #
transform $-1 1 0 0 0 1 0 0 0 1 50.034485915707876 21.122380345310951 9.3519408275897433 1 rotate no_reflect no_shear #
lump $-1 $-1 $61 $7 #
transform $-1 1 0 0 0 1 0 0 0 1 50.034485915707876 21.122380345310951 9.3519408275897433 1 rotate no_reflect no_shear #
lump $-1 $-1 $62 $8 #
transform $-1 1 0 0 0 1 0 0 0 1 50.034485915707876 21.122380345310951 9.3519408275897433 1 rotate no_reflect no_shear #
lump $-1 $-1 $63 $9 #
transform $-1 1 0 0 0 1 0 0 0 1 50.034485915707876 21.122380345310951 9.3519408275897433 1 rotate no_reflect no_shear #
lump $-1 $-1 $64 $10 #
transform $-1 1 0 0 0 1 0 0 0 1 50.034485915707876 21.122380345310951 9.3519408275897433 1 rotate no_reflect no_shear #
lump $-1 $-1 $65 $11 #
transform $-1 1 0 0 0 1 0 0 0 1 50.034485915707876 21.122380345310951 9.3519408275897433 1 rotate no_reflect no_shear #
lump $-1 $-1 $66 $12 #
transform $-1 1 0 0 0 1 0 0 0 1 50.034485915707876 21.122380345310951 9.3519408275897433 1 rotate no_reflect no_shear #
lump $-1 $-1 $67 $13 #
transform $-1 1 0 0 0 1 0 0 0 1 50.034485915707876 21.122380345310951 9.3519408275897433 1 rotate no_reflect no_shear #
lump $-1 $-1 $68 $14 #
transform $-1 1 0 0 0 1 0 0 0 1 50.034485915707876 21.122380345310951 9.3519408275897433 1 rotate no_reflect no_shear #
lump $-1 $-1 $69 $15 #
transform $-1 1 0 0 0 1 0 0 0 1 50.034485915707876 21.122380345310951 9.3519408275897433 1 rotate no_reflect no_shear #
lump $-1 $-1 $70 $16 #
transform $-1 1 0 0 0 1 0 0 0 1 50.034485915707876 21.122380345310951 9.3519408275897433 1 rotate no_reflect no_shear #
lump $-1 $-1 $71 $17 #
transform $-1 1 0 0 0 1 0 0 0 1 50.034485915707876 21.122380345310951 9.3519408275897433 1 rotate no_reflect no_shear #
shell $-1 $-1 $-1 $72 $-1 $18 #
shell $-1 $-1 $-1 $73 $-1 $20 #
shell $-1 $-1 $-1 $74 $-1 $22 #
shell $-1 $-1 $-1 $75 $-1 $24 #
shell $-1 $-1 $-1 $76 $-1 $26 #
shell $-1 $-1 $-1 $77 $-1 $28 #
shell $-1 $-1 $-1 $78 $-1 $30 #
shell $-1 $-1 $-1 $79 $-1 $32 #
shell $-1 $-1 $-1 $80 $-1 $34 #
shell $-1 $-1 $-1 $81 $-1 $36 #
shell $-1 $-1 $-1 $82 $-1 $38 #
shell $-1 $-1 $-1 $83 $-1 $40 #
shell $-1 $-1 $-1 $84 $-1 $42 #
shell $-1 $-1 $-1 $85 $-1 $44 #
shell $-1 $-1 $-1 $86 $-1 $46 #
shell $-1 $-1 $-1 $87 $-1 $48 #
shell $-1 $-1 $-1 $88 $-1 $50 #
shell $-1 $-1 $-1 $89 $-1 $52 #
face $-1 $90 $91 $54 $-1 $92 forward single #
face $-1 $93 $94 $55 $-1 $95 forward single #
face $-1 $96 $97 $56 $-1 $98 forward single #
face $-1 $99 $100 $57 $-1 $101 reversed single #
face $-1 $102 $103 $58 $-1 $104 forward single #
face $-1 $105 $106 $59 $-1 $107 forward single #
face $-1 $108 $109 $60 $-1 $110 reversed single #
face $-1 $111 $112 $61 $-1 $113 forward single #
face $-1 $114 $115 $62 $-1 $116 forward single #
face $-1 $117 $118 $63 $-1 $119 reversed single #
face $-1 $120 $121 $64 $-1 $122 forward single #
face $-1 $123 $124 $65 $-1 $125 forward single #
face $-1 $126 $127 $66 $-1 $128 reversed single #
face $-1 $129 $130 $67 $-1 $131 forward single #
face $-1 $132 $133 $68 $-1 $134 forward single #
face $-1 $135 $136 $69 $-1 $137 reversed single #
face $-1 $138 $139 $70 $-1 $140 forward single #
face $-1 $141 $142 $71 $-1 $143 forward single #
face $-1 $144 $145 $54 $-1 $146 reversed single #
loop $-1 $-1 $147 $72 #
plane-surface $-1 0 0 9.3519408275897433 0 0 1 1 0 0 forward_v I I I I #
face $-1 $148 $149 $55 $-1 $150 reversed single #
loop $-1 $-1 $151 $73 #
plane-surface $-1 -44.844548337352926 0 8.820921787887027 0 0 1 1 0 0 forward_v I I I I #
face $-1 $152 $153 $56 $-1 $154 reversed single #
loop $-1 $-1 $155 $74 #
plane-surface $-1 44.844548337352933 0 8.820921787887027 0 0 1 1 0 0 forward_v I I I I #
face $-1 $156 $157 $57 $-1 $158 reversed single #
loop $-1 $-1 $159 $75 #
plane-surface $-1 -5.5404747075358785 -85.445476343211908 77.998927211520822 1 0 0 0 0.64278761758704617 -0.76604443648966558 forward_v I I I I #
face $-1 $160 $161 $58 $-1 $162 forward single #
loop $-1 $163 $164 $76 #
cone-surface $-1 -0.050663486136201641 -14.009424729556951 2.5583197613570365 0 0.64278761758704617 -0.76604443648966558 2 0 0 1 I I 0 1 2 forward I I I I #
face $-1 $165 $166 $59 $-1 $167 forward single #
loop $-1 $168 $169 $77 #
cone-surface $-1 8.1840533459633065 -14.009424729556951 2.5583197613570365 0 0.64278761758704617 -0.76604443648966558 2 0 0 1 I I 0 1 2 forward I I I I #
face $-1 $170 $171 $60 $-1 $172 reversed single #
loop $-1 $-1 $173 $78 #
plane-surface $-1 -23.081079299522017 62.010273327305434 103.69017957247381 -1 0 0 0 0.70710678939079041 0.70710677298230451 forward_v I I I I #
face $-1 $174 $175 $61 $-1 $176 forward single #
loop $-1 $177 $178 $79 #
cone-surface $-1 -30.471076800899137 17.240318862311209 5.4698792886493663 0 -0.70710678939079041 -0.70710677298230451 1 0 0 1 I I 0 1 1 forward I I I I #
face $-1 $179 $180 $62 $-1 $181 forward single #
loop $-1 $182 $183 $80 #
cone-surface $-1 -26.037078300072864 17.240318862311209 5.4698792886493663 0 -0.70710678939079041 -0.70710677298230451 1 0 0 1 I I 0 1 1 forward I I I I #
face $-1 $184 $185 $63 $-1 $186 reversed single #
loop $-1 $-1 $187 $81 #
plane-surface $-1 -4.2450275991980124 62.010273327305434 103.69017957247381 -1 0 0 0 0.70710678939079041 0.70710677298230451 forward_v I I I I #
face $-1 $188 $189 $64 $-1 $190 forward single #
loop $-1 $191 $192 $82 #
cone-surface $-1 -11.635025100575135 17.240318862311209 5.4698792886493663 0 -0.70710678939079041 -0.70710677298230451 1 0 0 1 I I 0 1 1 forward I I I I #
face $-1 $193 $194 $65 $-1 $195 forward single #
loop $-1 $196 $197 $83 #
cone-surface $-1 -7.2010265997488574 17.240318862311209 5.4698792886493663 0 -0.70710678939079041 -0.70710677298230451 1 0 0 1 I I 0 1 1 forward I I I I #
face $-1 $198 $199 $66 $-1 $200 reversed single #
loop $-1 $-1 $201 $84 #
plane-surface $-1 14.591024101125994 62.010273327305434 103.69017957247381 -1 0 0 0 0.70710678939079041 0.70710677298230451 forward_v I I I I #
face $-1 $202 $203 $67 $-1 $204 forward single #
loop $-1 $205 $206 $85 #
cone-surface $-1 7.2010265997488716 17.240318862311209 5.4698792886493663 0 -0.70710678939079041 -0.70710677298230451 1 0 0 1 I I 0 1 1 forward I I I I #
face $-1 $207 $208 $68 $-1 $209 forward single #
loop $-1 $210 $211 $86 #
cone-surface $-1 11.635025100575149 17.240318862311209 5.4698792886493663 0 -0.70710678939079041 -0.70710677298230451 1 0 0 1 I I 0 1 1 forward I I I I #
face $-1 $212 $213 $69 $-1 $214 reversed single #
loop $-1 $-1 $215 $87 #
plane-surface $-1 33.427075801450002 62.010273327305434 103.69017957247381 -1 0 0 0 0.70710678939079041 0.70710677298230451 forward_v I I I I #
face $-1 $216 $217 $70 $-1 $218 forward single #
loop $-1 $219 $220 $88 #
cone-surface $-1 26.037078300072878 17.240318862311209 5.4698792886493663 0 -0.70710678939079041 -0.70710677298230451 1 0 0 1 I I 0 1 1 forward I I I I #
face $-1 $221 $222 $71 $-1 $223 forward single #
loop $-1 $224 $225 $89 #
cone-surface $-1 30.471076800899155 17.240318862311209 5.4698792886493663 0 -0.70710678939079041 -0.70710677298230451 1 0 0 1 I I 0 1 1 forward I I I I #
face $-1 $226 $227 $54 $-1 $228 reversed single #
loop $-1 $-1 $229 $90 #
plane-surface $-1 0 0 -9.3519408275897433 0 0 1 1 0 0 forward_v I I I I #
coedge $-1 $230 $231 $232 $233 forward $91 $-1 #
face $-1 $234 $235 $55 $-1 $236 reversed single #
loop $-1 $-1 $237 $93 #
plane-surface $-1 -44.844548337352926 0 5.820921787887027 0 0 1 1 0 0 forward_v I I I I #
coedge $-1 $238 $239 $240 $241 forward $94 $-1 #
face $-1 $242 $243 $56 $-1 $244 reversed single #
loop $-1 $-1 $245 $96 #
plane-surface $-1 44.844548337352933 0 5.820921787887027 0 0 1 1 0 0 forward_v I I I I #
coedge $-1 $246 $247 $248 $249 reversed $97 $-1 #
face $-1 $250 $251 $57 $-1 $252 reversed single #
loop $-1 $-1 $253 $99 #
plane-surface $-1 4.0666949299135524 -21.122380345310944 1.3416480748237234 0 -0.64278761758704617 0.76604443648966558 1 0 0 forward_v I I I I #
coedge $-1 $254 $255 $256 $257 reversed $100 $-1 #
face $-1 $-1 $258 $58 $-1 $259 forward single #
loop $-1 $260 $261 $102 #
cone-surface $-1 -0.050663486136201641 -11.026828979162662 -0.99619936498232065 0 0.64278761758704617 -0.76604443648966558 1 0 0 1 I I -0.70710678118654768 0.70710678118654735 1 forward I I I I #
loop $-1 $-1 $262 $76 #
coedge $-1 $164 $164 $263 $264 reversed $103 $-1 #
face $-1 $-1 $265 $59 $-1 $266 forward single #
loop $-1 $267 $268 $105 #
cone-surface $-1 8.1840533459633065 -11.026828979162662 -0.99619936498232065 0 0.64278761758704617 -0.76604443648966558 1 0 0 1 I I -0.70710678118654768 0.70710678118654735 1 forward I I I I #
loop $-1 $-1 $269 $77 #
coedge $-1 $169 $169 $270 $271 reversed $106 $-1 #
face $-1 $272 $273 $60 $-1 $274 reversed single #
loop $-1 $-1 $275 $108 #
plane-surface $-1 -28.254077550486002 -8.7491760620444055 32.930731825104289 0 0.70710678939079041 0.70710677298230451 1 0 0 forward_v I I I I #
coedge $-1 $276 $277 $278 $279 reversed $109 $-1 #
face $-1 $-1 $280 $61 $-1 $281 forward single #
loop $-1 $282 $283 $111 #
cone-surface $-1 -30.471076800899137 16.151086963110629 4.3806474147245247 0 -0.70710678939079041 -0.70710677298230451 0.5 0 0 1 I I -0.70710678118654746 0.70710678118654746 0.5 forward I I I I #
loop $-1 $-1 $284 $79 #
coedge $-1 $178 $178 $285 $286 reversed $112 $-1 #
face $-1 $-1 $287 $62 $-1 $288 forward single #
loop $-1 $289 $290 $114 #
cone-surface $-1 -26.037078300072864 16.151086963110629 4.3806474147245247 0 -0.70710678939079041 -0.70710677298230451 0.5 0 0 1 I I -0.70710678118654746 0.70710678118654746 0.5 forward I I I I #
loop $-1 $-1 $291 $80 #
coedge $-1 $183 $183 $292 $293 reversed $115 $-1 #
face $-1 $294 $295 $63 $-1 $296 reversed single #
loop $-1 $-1 $297 $117 #
plane-surface $-1 -9.418025850161996 -8.7491760620444055 32.930731825104289 0 0.70710678939079041 0.70710677298230451 1 0 0 forward_v I I I I #
coedge $-1 $298 $299 $300 $301 reversed $118 $-1 #
face $-1 $-1 $302 $64 $-1 $303 forward single #
loop $-1 $304 $305 $120 #
cone-surface $-1 -11.635025100575135 16.151086963110629 4.3806474147245247 0 -0.70710678939079041 -0.70710677298230451 0.5 0 0 1 I I -0.70710678118654746 0.70710678118654746 0.5 forward I I I I #
loop $-1 $-1 $306 $82 #
coedge $-1 $192 $192 $307 $308 reversed $121 $-1 #
face $-1 $-1 $309 $65 $-1 $310 forward single #
loop $-1 $311 $312 $123 #
cone-surface $-1 -7.2010265997488574 16.151086963110629 4.3806474147245247 0 -0.70710678939079041 -0.70710677298230451 0.5 0 0 1 I I -0.70710678118654746 0.70710678118654746 0.5 forward I I I I #
loop $-1 $-1 $313 $83 #
coedge $-1 $197 $197 $314 $315 reversed $124 $-1 #
face $-1 $316 $317 $66 $-1 $318 reversed single #
loop $-1 $-1 $319 $126 #
plane-surface $-1 9.4180258501620102 -8.7491760620444055 32.930731825104289 0 0.70710678939079041 0.70710677298230451 1 0 0 forward_v I I I I #
coedge $-1 $320 $321 $322 $323 reversed $127 $-1 #
face $-1 $-1 $324 $67 $-1 $325 forward single #
loop $-1 $326 $327 $129 #
cone-surface $-1 7.2010265997488716 16.151086963110629 4.3806474147245247 0 -0.70710678939079041 -0.70710677298230451 0.5 0 0 1 I I -0.70710678118654746 0.70710678118654746 0.5 forward I I I I #
loop $-1 $-1 $328 $85 #
coedge $-1 $206 $206 $329 $330 reversed $130 $-1 #
face $-1 $-1 $331 $68 $-1 $332 forward single #
loop $-1 $333 $334 $132 #
cone-surface $-1 11.635025100575149 16.151086963110629 4.3806474147245247 0 -0.70710678939079041 -0.70710677298230451 0.5 0 0 1 I I -0.70710678118654746 0.70710678118654746 0.5 forward I I I I #
loop $-1 $-1 $335 $86 #
coedge $-1 $211 $211 $336 $337 reversed $133 $-1 #
face $-1 $338 $339 $69 $-1 $340 reversed single #
loop $-1 $-1 $341 $135 #
plane-surface $-1 28.254077550486016 -8.7491760620444055 32.930731825104289 0 0.70710678939079041 0.70710677298230451 1 0 0 forward_v I I I I #
coedge $-1 $342 $343 $344 $345 reversed $136 $-1 #
face $-1 $-1 $346 $70 $-1 $347 forward single #
loop $-1 $348 $349 $138 #
cone-surface $-1 26.037078300072878 16.151086963110629 4.3806474147245247 0 -0.70710678939079041 -0.70710677298230451 0.5 0 0 1 I I -0.70710678118654746 0.70710678118654746 0.5 forward I I I I #
loop $-1 $-1 $350 $88 #
coedge $-1 $220 $220 $351 $352 reversed $139 $-1 #
face $-1 $-1 $353 $71 $-1 $354 forward single #
loop $-1 $355 $356 $141 #
cone-surface $-1 30.471076800899155 16.151086963110629 4.3806474147245247 0 -0.70710678939079041 -0.70710677298230451 0.5 0 0 1 I I -0.70710678118654746 0.70710678118654746 0.5 forward I I I I #
loop $-1 $-1 $357 $89 #
coedge $-1 $225 $225 $358 $359 reversed $142 $-1 #
face $-1 $360 $361 $54 $-1 $362 reversed single #
loop $-1 $-1 $363 $144 #
plane-surface $-1 0 -21.122380345310951 0 0 1 0 0 0 1 forward_v I I I I #
coedge $-1 $364 $365 $366 $367 forward $145 $-1 #
coedge $-1 $368 $147 $369 $370 forward $91 $-1 #
coedge $-1 $147 $368 $371 $372 forward $91 $-1 #
coedge $-1 $373 $374 $147 $233 reversed $375 $-1 #
edge $-1 $376 -21.122380345310951 $377 21.122380345310951 $232 $378 forward 7 unknown #
face $-1 $379 $380 $55 $-1 $381 reversed single #
loop $-1 $-1 $382 $148 #
plane-surface $-1 -39.654610758997975 0 7.320921787887027 -1 0 0 0 0 1 forward_v I I I I #
coedge $-1 $383 $384 $385 $386 forward $149 $-1 #
coedge $-1 $387 $151 $388 $389 reversed $94 $-1 #
coedge $-1 $151 $387 $390 $391 reversed $94 $-1 #
coedge $-1 $382 $392 $151 $241 reversed $235 $-1 #
edge $-1 $393 -21.122380345310951 $394 21.122380345310951 $240 $395 forward 7 unknown #
face $-1 $396 $397 $56 $-1 $398 reversed single #
loop $-1 $-1 $399 $152 #
plane-surface $-1 39.654610758997983 0 7.320921787887027 1 0 0 0 0 -1 forward_v I I I I #
coedge $-1 $400 $401 $402 $403 reversed $153 $-1 #
coedge $-1 $404 $155 $405 $406 reversed $97 $-1 #
coedge $-1 $155 $404 $407 $408 reversed $97 $-1 #
coedge $-1 $409 $410 $155 $249 forward $411 $-1 #
edge $-1 $412 -21.122380345310951 $413 21.122380345310951 $248 $414 forward 7 unknown #
face $-1 $415 $416 $57 $-1 $417 forward single #
loop $-1 $-1 $418 $156 #
plane-surface $-1 13.673864567362983 -85.445476343211908 77.998927211520822 -1 0 0 0 -0.64278761758704617 0.76604443648966558 forward_v I I I I #
coedge $-1 $419 $420 $421 $422 reversed $157 $-1 #
coedge $-1 $255 $159 $423 $424 reversed $100 $-1 #
coedge $-1 $159 $254 $419 $425 reversed $100 $-1 #
coedge $-1 $421 $426 $159 $257 forward $427 $-1 #
edge $-1 $428 29.647522778170668 $429 37.657815530936695 $256 $430 forward 7 unknown #
loop $-1 $-1 $263 $160 #
plane-surface $-1 4.0666949299135524 -21.122380345310944 1.3416480748237234 0 -0.64278761758704617 0.76604443648966558 1 0 0 forward_v I I I I #
loop $-1 $-1 $431 $102 #
coedge $-1 $261 $261 $262 $432 reversed $161 $-1 #
coedge $-1 $262 $262 $261 $432 forward $163 $-1 #
coedge $-1 $263 $263 $164 $264 forward $258 $-1 #
edge $-1 $433 1.0753132288472927e-015 $433 6.2831853071796013 $263 $434 forward 7 unknown #
loop $-1 $-1 $270 $165 #
plane-surface $-1 4.0666949299135524 -21.122380345310944 1.3416480748237234 0 -0.64278761758704617 0.76604443648966558 1 0 0 forward_v I I I I #
loop $-1 $-1 $435 $105 #
coedge $-1 $268 $268 $269 $436 reversed $166 $-1 #
coedge $-1 $269 $269 $268 $436 forward $168 $-1 #
coedge $-1 $270 $270 $169 $271 forward $265 $-1 #
edge $-1 $437 1.0753132288472927e-015 $437 6.2831853071796013 $270 $438 forward 7 unknown #
face $-1 $439 $440 $60 $-1 $441 reversed single #
loop $-1 $-1 $442 $170 #
plane-surface $-1 -33.427075801449988 62.010273327305434 103.69017957247381 1 0 0 0 -0.70710678939079041 -0.70710677298230451 forward_v I I I I #
coedge $-1 $443 $444 $445 $446 reversed $171 $-1 #
coedge $-1 $277 $173 $447 $448 reversed $109 $-1 #
coedge $-1 $173 $276 $443 $449 reversed $109 $-1 #
coedge $-1 $445 $450 $173 $279 forward $440 $-1 #
edge $-1 $451 42.493148958647161 $452 48.785915061660532 $278 $453 forward 7 unknown #
loop $-1 $-1 $285 $174 #
plane-surface $-1 -28.254077550486002 -8.7491760620444055 32.930731825104289 0 0.70710678939079041 0.70710677298230451 1 0 0 forward_v I I I I #
loop $-1 $-1 $454 $111 #
coedge $-1 $283 $283 $284 $455 reversed $175 $-1 #
coedge $-1 $284 $284 $283 $455 forward $177 $-1 #
coedge $-1 $285 $285 $178 $286 forward $280 $-1 #
edge $-1 $456 -6.2803687417103658e-016 $456 6.2831853071795996 $285 $457 forward 7 unknown #
loop $-1 $-1 $292 $179 #
plane-surface $-1 -28.254077550486002 -8.7491760620444055 32.930731825104289 0 0.70710678939079041 0.70710677298230451 1 0 0 forward_v I I I I #
loop $-1 $-1 $458 $114 #
coedge $-1 $290 $290 $291 $459 reversed $180 $-1 #
coedge $-1 $291 $291 $290 $459 forward $182 $-1 #
coedge $-1 $292 $292 $183 $293 forward $287 $-1 #
edge $-1 $460 -6.2803687417103658e-016 $460 6.2831853071795996 $292 $461 forward 7 unknown #
face $-1 $462 $463 $63 $-1 $464 reversed single #
loop $-1 $-1 $465 $184 #
plane-surface $-1 -14.59102410112598 62.010273327305434 103.69017957247381 1 0 0 0 -0.70710678939079041 -0.70710677298230451 forward_v I I I I #
coedge $-1 $466 $467 $468 $469 reversed $185 $-1 #
coedge $-1 $299 $187 $470 $471 reversed $118 $-1 #
coedge $-1 $187 $298 $466 $472 reversed $118 $-1 #
coedge $-1 $468 $473 $187 $301 forward $463 $-1 #
edge $-1 $474 42.493148958647161 $475 48.785915061660532 $300 $476 forward 7 unknown #
loop $-1 $-1 $307 $188 #
plane-surface $-1 -9.418025850161996 -8.7491760620444055 32.930731825104289 0 0.70710678939079041 0.70710677298230451 1 0 0 forward_v I I I I #
loop $-1 $-1 $477 $120 #
coedge $-1 $305 $305 $306 $478 reversed $189 $-1 #
coedge $-1 $306 $306 $305 $478 forward $191 $-1 #
coedge $-1 $307 $307 $192 $308 forward $302 $-1 #
edge $-1 $479 -6.2803687417103658e-016 $479 6.2831853071795996 $307 $480 forward 7 unknown #
loop $-1 $-1 $314 $193 #
plane-surface $-1 -9.418025850161996 -8.7491760620444055 32.930731825104289 0 0.70710678939079041 0.70710677298230451 1 0 0 forward_v I I I I #
loop $-1 $-1 $481 $123 #
coedge $-1 $312 $312 $313 $482 reversed $194 $-1 #
coedge $-1 $313 $313 $312 $482 forward $196 $-1 #
coedge $-1 $314 $314 $197 $315 forward $309 $-1 #
edge $-1 $483 -6.2803687417103658e-016 $483 6.2831853071795996 $314 $484 forward 7 unknown #
face $-1 $485 $486 $66 $-1 $487 forward single #
loop $-1 $-1 $488 $198 #
plane-surface $-1 4.2450275991980266 62.010273327305434 103.69017957247381 1 0 0 0 -0.70710678939079041 -0.70710677298230451 forward_v I I I I #
coedge $-1 $489 $490 $491 $492 reversed $199 $-1 #
coedge $-1 $321 $201 $493 $494 reversed $127 $-1 #
coedge $-1 $201 $320 $489 $495 reversed $127 $-1 #
coedge $-1 $491 $496 $201 $323 forward $497 $-1 #
edge $-1 $498 42.493148958647161 $499 48.785915061660532 $322 $500 forward 7 unknown #
loop $-1 $-1 $329 $202 #
plane-surface $-1 9.4180258501620102 -8.7491760620444055 32.930731825104289 0 0.70710678939079041 0.70710677298230451 1 0 0 forward_v I I I I #
loop $-1 $-1 $501 $129 #
coedge $-1 $327 $327 $328 $502 reversed $203 $-1 #
coedge $-1 $328 $328 $327 $502 forward $205 $-1 #
coedge $-1 $329 $329 $206 $330 forward $324 $-1 #
edge $-1 $503 -6.2803687417103658e-016 $503 6.2831853071795996 $329 $504 forward 7 unknown #
loop $-1 $-1 $336 $207 #
plane-surface $-1 9.4180258501620102 -8.7491760620444055 32.930731825104289 0 0.70710678939079041 0.70710677298230451 1 0 0 forward_v I I I I #
loop $-1 $-1 $505 $132 #
coedge $-1 $334 $334 $335 $506 reversed $208 $-1 #
coedge $-1 $335 $335 $334 $506 forward $210 $-1 #
coedge $-1 $336 $336 $211 $337 forward $331 $-1 #
edge $-1 $507 -6.2803687417103658e-016 $507 6.2831853071795996 $336 $508 forward 7 unknown #
face $-1 $509 $510 $69 $-1 $511 forward single #
loop $-1 $-1 $512 $212 #
plane-surface $-1 23.081079299522031 62.010273327305434 103.69017957247381 1 0 0 0 -0.70710678939079041 -0.70710677298230451 forward_v I I I I #
coedge $-1 $513 $514 $515 $516 reversed $213 $-1 #
coedge $-1 $343 $215 $517 $518 reversed $136 $-1 #
coedge $-1 $215 $342 $513 $519 reversed $136 $-1 #
coedge $-1 $515 $520 $215 $345 forward $521 $-1 #
edge $-1 $522 42.493148958647161 $523 48.785915061660532 $344 $524 forward 7 unknown #
loop $-1 $-1 $351 $216 #
plane-surface $-1 28.254077550486016 -8.7491760620444055 32.930731825104289 0 0.70710678939079041 0.70710677298230451 1 0 0 forward_v I I I I #
loop $-1 $-1 $525 $138 #
coedge $-1 $349 $349 $350 $526 reversed $217 $-1 #
coedge $-1 $350 $350 $349 $526 forward $219 $-1 #
coedge $-1 $351 $351 $220 $352 forward $346 $-1 #
edge $-1 $527 -6.2803687417103658e-016 $527 6.2831853071795996 $351 $528 forward 7 unknown #
loop $-1 $-1 $358 $221 #
plane-surface $-1 28.254077550486016 -8.7491760620444055 32.930731825104289 0 0.70710678939079041 0.70710677298230451 1 0 0 forward_v I I I I #
loop $-1 $-1 $529 $141 #
coedge $-1 $356 $356 $357 $530 reversed $222 $-1 #
coedge $-1 $357 $357 $356 $530 forward $224 $-1 #
coedge $-1 $358 $358 $225 $359 forward $353 $-1 #
edge $-1 $531 -6.2803687417103658e-016 $531 6.2831853071795996 $358 $532 forward 7 unknown #
face $-1 $533 $534 $54 $-1 $535 reversed single #
loop $-1 $-1 $536 $226 #
plane-surface $-1 -50.034485915707876 0 0 1 0 0 0 0 -1 forward_v I I I I #
coedge $-1 $537 $371 $538 $539 forward $227 $-1 #
coedge $-1 $540 $229 $537 $541 forward $145 $-1 #
coedge $-1 $229 $540 $542 $543 forward $145 $-1 #
coedge $-1 $374 $373 $229 $367 reversed $375 $-1 #
edge $-1 $544 -21.122380345310951 $545 21.122380345310951 $366 $546 forward 7 unknown #
coedge $-1 $231 $230 $547 $548 forward $91 $-1 #
coedge $-1 $549 $550 $230 $370 reversed $534 $-1 #
edge $-1 $377 -50.034485915707876 $551 50.034485915707876 $369 $552 forward 7 unknown #
coedge $-1 $363 $553 $231 $372 reversed $227 $-1 #
edge $-1 $554 -50.034485915707876 $376 50.034485915707876 $371 $555 forward 7 unknown #
coedge $-1 $366 $232 $553 $556 forward $375 $-1 #
coedge $-1 $232 $366 $549 $557 reversed $375 $-1 #
loop $-1 $-1 $373 $533 #
vertex $-1 $233 $558 #
vertex $-1 $233 $559 #
straight-curve $-1 50.034485915707876 0 9.3519408275897433 0 1 0 I I #
face $-1 $560 $561 $55 $-1 $562 reversed single #
loop $-1 $-1 $563 $234 #
plane-surface $-1 0 -21.122380345310951 0 0 1 0 0 0 1 forward_v I I I I #
coedge $-1 $385 $240 $564 $565 reversed $235 $-1 #
coedge $-1 $566 $237 $563 $567 reversed $149 $-1 #
coedge $-1 $237 $566 $568 $569 reversed $149 $-1 #
coedge $-1 $392 $382 $237 $386 reversed $235 $-1 #
edge $-1 $570 -21.122380345310951 $571 21.122380345310951 $385 $572 forward 7 unknown #
coedge $-1 $239 $238 $573 $574 reversed $94 $-1 #
coedge $-1 $575 $576 $238 $389 forward $577 $-1 #
edge $-1 $578 -27.612211747031413 $394 -17.232336590321513 $388 $579 forward 7 unknown #
coedge $-1 $580 $564 $239 $391 forward $380 $-1 #
edge $-1 $393 17.232336590321513 $581 27.612211747031413 $390 $582 forward 7 unknown #
coedge $-1 $240 $385 $575 $583 reversed $235 $-1 #
vertex $-1 $391 $584 #
vertex $-1 $389 $585 #
straight-curve $-1 -39.654610758997975 0 8.820921787887027 0 1 0 I I #
face $-1 $586 $587 $56 $-1 $588 reversed single #
loop $-1 $-1 $407 $242 #
plane-surface $-1 0 -21.122380345310951 0 0 1 0 0 0 1 forward_v I I I I #
coedge $-1 $589 $590 $591 $592 reversed $243 $-1 #
coedge $-1 $593 $245 $594 $595 reversed $153 $-1 #
coedge $-1 $245 $593 $596 $597 reversed $153 $-1 #
coedge $-1 $410 $409 $245 $403 forward $411 $-1 #
edge $-1 $598 -21.122380345310951 $599 21.122380345310951 $402 $600 forward 7 unknown #
coedge $-1 $247 $246 $590 $601 forward $97 $-1 #
coedge $-1 $602 $591 $246 $406 forward $587 $-1 #
edge $-1 $603 17.232336590321516 $412 27.612211747031417 $405 $604 forward 7 unknown #
coedge $-1 $605 $606 $247 $408 forward $397 $-1 #
edge $-1 $413 -27.612211747031417 $607 -17.232336590321516 $407 $608 forward 7 unknown #
coedge $-1 $402 $248 $606 $609 forward $411 $-1 #
coedge $-1 $248 $402 $602 $610 reversed $411 $-1 #
loop $-1 $-1 $248 $586 #
vertex $-1 $610 $611 #
vertex $-1 $609 $612 #
straight-curve $-1 50.034485915707876 0 8.820921787887027 0 -1 0 I I #
face $-1 $-1 $427 $57 $-1 $613 reversed single #
loop $-1 $-1 $614 $250 #
plane-surface $-1 0 0 9.3519408275897433 0 0 1 1 0 0 forward_v I I I I #
coedge $-1 $615 $616 $617 $618 reversed $251 $-1 #
coedge $-1 $619 $253 $255 $425 forward $157 $-1 #
coedge $-1 $253 $619 $615 $620 forward $157 $-1 #
coedge $-1 $617 $256 $253 $422 forward $427 $-1 #
edge $-1 $429 -7.5738221724926547 $621 11.640517102406207 $421 $622 forward 7 unknown #
coedge $-1 $623 $624 $254 $424 forward $416 $-1 #
edge $-1 $625 -31.146652792188512 $428 -21.600357826295003 $423 $626 forward 7 unknown #
edge $-1 $429 -9.2967162063127932e-015 $625 12.461803142437272 $255 $627 forward 7 unknown #
coedge $-1 $256 $617 $623 $628 reversed $427 $-1 #
loop $-1 $-1 $617 $415 #
vertex $-1 $628 $629 #
vertex $-1 $257 $630 #
straight-curve $-1 -5.5404747075358785 -21.122380345310951 38.999463605760411 0 0 -1 I I #
coedge $-1 $431 $431 $-1 $631 reversed $260 $-1 #
edge $-1 $632 0 $632 6.2831853071796004 $261 $633 forward 7 unknown #
vertex $-1 $264 $634 #
ellipse-curve $-1 -0.050663486136201641 -16.349232862364197 5.3467944512067298 0 -0.64278761758704617 0.76604443648966558 2 0 0 1 I I #
coedge $-1 $435 $435 $-1 $635 reversed $267 $-1 #
edge $-1 $636 0 $636 6.2831853071796004 $268 $637 forward 7 unknown #
vertex $-1 $271 $638 #
ellipse-curve $-1 8.1840533459633065 -16.349232862364197 5.3467944512067298 0 -0.64278761758704617 0.76604443648966558 2 0 0 1 I I #
face $-1 $-1 $639 $60 $-1 $640 forward single #
loop $-1 $-1 $278 $272 #
plane-surface $-1 0 21.122380345310951 0 0 -1 0 0 0 -1 forward_v I I I I #
coedge $-1 $641 $642 $643 $644 reversed $273 $-1 #
coedge $-1 $645 $275 $277 $449 forward $171 $-1 #
coedge $-1 $275 $645 $641 $646 forward $171 $-1 #
coedge $-1 $643 $278 $275 $446 forward $440 $-1 #
edge $-1 $452 8.9540405242790158 $647 19.300037026206986 $445 $648 forward 7 unknown #
coedge $-1 $649 $650 $276 $448 forward $639 $-1 #
edge $-1 $651 -16.175522275330852 $451 -9.8827563183417659 $447 $652 forward 7 unknown #
edge $-1 $452 -42.244760690621909 $651 -33.34544562615347 $277 $653 forward 7 unknown #
coedge $-1 $278 $643 $649 $654 reversed $440 $-1 #
vertex $-1 $654 $655 #
vertex $-1 $279 $656 #
straight-curve $-1 -23.081079299522017 21.122380345310951 51.845089786236905 0 0 -1 I I #
coedge $-1 $454 $454 $-1 $657 reversed $282 $-1 #
edge $-1 $658 0 $658 6.2831853071796004 $283 $659 forward 7 unknown #
vertex $-1 $286 $660 #
ellipse-curve $-1 -30.471076800899137 17.975997366816401 6.2055577760830634 0 0.70710678939079041 0.70710677298230451 1 0 0 1 I I #
coedge $-1 $458 $458 $-1 $661 reversed $289 $-1 #
edge $-1 $662 0 $662 6.2831853071796004 $290 $663 forward 7 unknown #
vertex $-1 $293 $664 #
ellipse-curve $-1 -26.037078300072864 17.975997366816401 6.2055577760830634 0 0.70710678939079041 0.70710677298230451 1 0 0 1 I I #
face $-1 $-1 $665 $63 $-1 $666 forward single #
loop $-1 $-1 $300 $294 #
plane-surface $-1 0 21.122380345310951 0 0 -1 0 0 0 -1 forward_v I I I I #
coedge $-1 $667 $668 $669 $670 reversed $295 $-1 #
coedge $-1 $671 $297 $299 $472 forward $185 $-1 #
coedge $-1 $297 $671 $667 $672 forward $185 $-1 #
coedge $-1 $669 $300 $297 $469 forward $463 $-1 #
edge $-1 $475 -0.46398532588298558 $673 9.8820111760449816 $468 $674 forward 7 unknown #
coedge $-1 $675 $676 $298 $471 forward $665 $-1 #
edge $-1 $677 -16.175522275330852 $474 -9.8827563183417659 $470 $678 forward 7 unknown #
edge $-1 $475 -42.244760690621909 $677 -33.34544562615347 $299 $679 forward 7 unknown #
coedge $-1 $300 $669 $675 $680 reversed $463 $-1 #
vertex $-1 $680 $681 #
vertex $-1 $301 $682 #
straight-curve $-1 -4.2450275991980124 21.122380345310951 51.845089786236905 0 0 -1 I I #
coedge $-1 $477 $477 $-1 $683 reversed $304 $-1 #
edge $-1 $684 0 $684 6.2831853071796004 $305 $685 forward 7 unknown #
vertex $-1 $308 $686 #
ellipse-curve $-1 -11.635025100575135 17.975997366816401 6.2055577760830634 0 0.70710678939079041 0.70710677298230451 1 0 0 1 I I #
coedge $-1 $481 $481 $-1 $687 reversed $311 $-1 #
edge $-1 $688 0 $688 6.2831853071796004 $312 $689 forward 7 unknown #
vertex $-1 $315 $690 #
ellipse-curve $-1 -7.2010265997488574 17.975997366816401 6.2055577760830634 0 0.70710678939079041 0.70710677298230451 1 0 0 1 I I #
face $-1 $-1 $497 $66 $-1 $691 reversed single #
loop $-1 $-1 $692 $316 #
plane-surface $-1 0 0 9.3519408275897433 0 0 1 1 0 0 forward_v I I I I #
coedge $-1 $693 $694 $695 $696 reversed $317 $-1 #
coedge $-1 $697 $319 $321 $495 forward $199 $-1 #
coedge $-1 $319 $697 $693 $698 forward $199 $-1 #
coedge $-1 $695 $322 $319 $492 forward $497 $-1 #
edge $-1 $499 -9.8820111760449887 $699 0.46398532588297847 $491 $700 forward 7 unknown #
coedge $-1 $701 $702 $320 $494 forward $486 $-1 #
edge $-1 $703 -16.175522275330852 $498 -9.8827563183417659 $493 $704 forward 7 unknown #
edge $-1 $499 -42.244760690621909 $703 -33.34544562615347 $321 $705 forward 7 unknown #
coedge $-1 $322 $695 $701 $706 reversed $497 $-1 #
loop $-1 $-1 $695 $485 #
vertex $-1 $706 $707 #
vertex $-1 $323 $708 #
straight-curve $-1 14.591024101125994 21.122380345310951 51.845089786236905 0 0 -1 I I #
coedge $-1 $501 $501 $-1 $709 reversed $326 $-1 #
edge $-1 $710 0 $710 6.2831853071796004 $327 $711 forward 7 unknown #
vertex $-1 $330 $712 #
ellipse-curve $-1 7.2010265997488716 17.975997366816401 6.2055577760830634 0 0.70710678939079041 0.70710677298230451 1 0 0 1 I I #
coedge $-1 $505 $505 $-1 $713 reversed $333 $-1 #
edge $-1 $714 0 $714 6.2831853071796004 $334 $715 forward 7 unknown #
vertex $-1 $337 $716 #
ellipse-curve $-1 11.635025100575149 17.975997366816401 6.2055577760830634 0 0.70710678939079041 0.70710677298230451 1 0 0 1 I I #
face $-1 $-1 $521 $69 $-1 $717 reversed single #
loop $-1 $-1 $718 $338 #
plane-surface $-1 0 0 9.3519408275897433 0 0 1 1 0 0 forward_v I I I I #
coedge $-1 $719 $720 $721 $722 reversed $339 $-1 #
coedge $-1 $723 $341 $343 $519 forward $213 $-1 #
coedge $-1 $341 $723 $719 $724 forward $213 $-1 #
coedge $-1 $721 $344 $341 $516 forward $521 $-1 #
edge $-1 $523 -19.300037026206994 $725 -8.9540405242790229 $515 $726 forward 7 unknown #
coedge $-1 $727 $728 $342 $518 forward $510 $-1 #
edge $-1 $729 -16.175522275330852 $522 -9.8827563183417659 $517 $730 forward 7 unknown #
edge $-1 $523 -42.244760690621909 $729 -33.34544562615347 $343 $731 forward 7 unknown #
coedge $-1 $344 $721 $727 $732 reversed $521 $-1 #
loop $-1 $-1 $721 $509 #
vertex $-1 $732 $733 #
vertex $-1 $345 $734 #
straight-curve $-1 33.427075801450002 21.122380345310951 51.845089786236905 0 0 -1 I I #
coedge $-1 $525 $525 $-1 $735 reversed $348 $-1 #
edge $-1 $736 0 $736 6.2831853071796004 $349 $737 forward 7 unknown #
vertex $-1 $352 $738 #
ellipse-curve $-1 26.037078300072878 17.975997366816401 6.2055577760830634 0 0.70710678939079041 0.70710677298230451 1 0 0 1 I I #
coedge $-1 $529 $529 $-1 $739 reversed $355 $-1 #
edge $-1 $740 0 $740 6.2831853071796004 $356 $741 forward 7 unknown #
vertex $-1 $359 $742 #
ellipse-curve $-1 30.471076800899155 17.975997366816401 6.2055577760830634 0 0.70710678939079041 0.70710677298230451 1 0 0 1 I I #
face $-1 $-1 $375 $54 $-1 $743 reversed single #
loop $-1 $-1 $549 $360 #
plane-surface $-1 0 21.122380345310951 0 0 -1 0 0 0 -1 forward_v I I I I #
coedge $-1 $744 $547 $550 $745 forward $361 $-1 #
coedge $-1 $553 $363 $364 $541 reversed $227 $-1 #
coedge $-1 $547 $744 $363 $539 reversed $361 $-1 #
edge $-1 $554 -9.3519408275897433 $746 9.3519408275897433 $538 $747 forward 7 unknown #
coedge $-1 $365 $364 $744 $748 forward $145 $-1 #
edge $-1 $545 -50.034485915707876 $746 50.034485915707876 $537 $749 forward 7 unknown #
coedge $-1 $550 $549 $365 $543 reversed $534 $-1 #
edge $-1 $750 -50.034485915707876 $544 50.034485915707876 $542 $751 forward 7 unknown #
vertex $-1 $367 $752 #
vertex $-1 $556 $753 #
straight-curve $-1 50.034485915707876 0 -9.3519408275897433 0 -1 0 I I #
coedge $-1 $536 $538 $368 $548 reversed $361 $-1 #
edge $-1 $551 -21.122380345310951 $554 21.122380345310951 $547 $754 forward 7 unknown #
coedge $-1 $542 $369 $374 $557 forward $534 $-1 #
coedge $-1 $369 $542 $536 $745 reversed $534 $-1 #
vertex $-1 $370 $755 #
straight-curve $-1 0 21.122380345310951 9.3519408275897433 -1 0 0 I I #
coedge $-1 $371 $537 $373 $556 reversed $227 $-1 #
vertex $-1 $548 $756 #
straight-curve $-1 0 -21.122380345310951 9.3519408275897433 1 0 0 I I #
edge $-1 $376 -9.3519408275897433 $545 9.3519408275897433 $373 $757 forward 7 unknown #
edge $-1 $377 -9.3519408275897433 $544 9.3519408275897433 $374 $758 forward 7 unknown #
point $-1 50.034485915707876 -21.122380345310951 9.3519408275897433 #
point $-1 50.034485915707876 21.122380345310951 9.3519408275897433 #
face $-1 $-1 $577 $55 $-1 $759 reversed single #
loop $-1 $-1 $760 $379 #
plane-surface $-1 -50.034485915707876 0 0 1 0 0 0 0 -1 forward_v I I I I #
coedge $-1 $564 $580 $383 $567 forward $380 $-1 #
coedge $-1 $390 $563 $382 $565 forward $380 $-1 #
edge $-1 $571 2.1604608939435135 $393 5.1604608939435135 $564 $761 forward 7 unknown #
coedge $-1 $384 $383 $760 $762 reversed $149 $-1 #
edge $-1 $763 -27.612211747031413 $571 -17.232336590321513 $563 $764 forward 7 unknown #
coedge $-1 $576 $575 $384 $569 forward $577 $-1 #
edge $-1 $570 17.232336590321513 $765 27.612211747031413 $568 $766 forward 7 unknown #
vertex $-1 $569 $767 #
vertex $-1 $567 $768 #
straight-curve $-1 -39.654610758997975 0 5.820921787887027 0 -1 0 I I #
coedge $-1 $769 $770 $387 $574 forward $561 $-1 #
edge $-1 $581 -21.122380345310951 $578 21.122380345310951 $573 $771 forward 7 unknown #
coedge $-1 $568 $388 $392 $583 forward $577 $-1 #
coedge $-1 $388 $568 $769 $772 reversed $577 $-1 #
loop $-1 $-1 $568 $560 #
vertex $-1 $772 $773 #
straight-curve $-1 -22.422274168676463 21.122380345310951 8.820921787887027 1 0 0 I I #
coedge $-1 $563 $390 $770 $774 forward $380 $-1 #
vertex $-1 $774 $775 #
straight-curve $-1 -22.422274168676463 -21.122380345310951 8.820921787887027 -1 0 0 I I #
edge $-1 $394 -5.1604608939435135 $570 -2.1604608939435135 $575 $776 forward 7 unknown #
point $-1 -39.654610758997975 -21.122380345310951 8.820921787887027 #
point $-1 -39.654610758997975 21.122380345310951 8.820921787887027 #
face $-1 $-1 $411 $56 $-1 $777 reversed single #
loop $-1 $-1 $405 $396 #
plane-surface $-1 0 21.122380345310951 0 0 -1 0 0 0 -1 forward_v I I I I #
coedge $-1 $778 $399 $593 $779 reversed $243 $-1 #
coedge $-1 $399 $778 $404 $601 reversed $243 $-1 #
coedge $-1 $405 $596 $399 $592 forward $587 $-1 #
edge $-1 $780 2.1604608939435135 $603 5.1604608939435135 $591 $781 forward 7 unknown #
coedge $-1 $401 $400 $589 $779 forward $153 $-1 #
coedge $-1 $606 $605 $400 $595 forward $397 $-1 #
edge $-1 $782 17.232336590321516 $598 27.612211747031417 $594 $783 forward 7 unknown #
coedge $-1 $591 $602 $401 $597 forward $587 $-1 #
edge $-1 $599 -27.612211747031417 $780 -17.232336590321516 $596 $784 forward 7 unknown #
vertex $-1 $403 $785 #
vertex $-1 $403 $786 #
straight-curve $-1 50.034485915707876 0 5.820921787887027 0 1 0 I I #
edge $-1 $603 -21.122380345310951 $607 21.122380345310951 $590 $787 forward 7 unknown #
coedge $-1 $596 $405 $410 $610 forward $587 $-1 #
vertex $-1 $406 $788 #
straight-curve $-1 22.422274168676466 21.122380345310951 8.820921787887027 1 0 0 I I #
coedge $-1 $594 $407 $778 $789 forward $397 $-1 #
coedge $-1 $407 $594 $409 $609 reversed $397 $-1 #
vertex $-1 $408 $790 #
straight-curve $-1 22.422274168676466 -21.122380345310951 8.820921787887027 -1 0 0 I I #
edge $-1 $413 -8.820921787887027 $598 -5.820921787887027 $409 $791 forward 7 unknown #
edge $-1 $412 -8.820921787887027 $599 -5.820921787887027 $410 $792 forward 7 unknown #
point $-1 50.034485915707883 21.122380345310951 8.820921787887027 #
point $-1 50.034485915707883 -21.122380345310951 8.820921787887027 #
plane-surface $-1 0 -21.122380345310951 0 0 1 0 0 0 1 forward_v I I I I #
coedge $-1 $624 $623 $616 $793 forward $416 $-1 #
coedge $-1 $616 $418 $420 $620 reversed $251 $-1 #
coedge $-1 $418 $615 $614 $793 reversed $251 $-1 #
coedge $-1 $426 $421 $418 $618 forward $427 $-1 #
edge $-1 $621 -37.657815530936695 $794 -29.647522778170668 $617 $795 forward 7 unknown #
coedge $-1 $420 $419 $624 $796 reversed $157 $-1 #
edge $-1 $797 -12.461803142437272 $621 9.2967162063127932e-015 $615 $798 forward 7 unknown #
vertex $-1 $422 $799 #
straight-curve $-1 2.0333474649567762 -21.122380345310951 1.3416480748237163 1 0 0 I I #
coedge $-1 $614 $423 $426 $628 forward $416 $-1 #
coedge $-1 $423 $614 $619 $796 forward $416 $-1 #
vertex $-1 $424 $800 #
straight-curve $-1 -5.5404747075358785 -42.722738171605954 9.3519408275897433 0 -1 0 I I #
straight-curve $-1 -5.5404747075358785 -21.122380345310944 1.3416480748237234 0 0.76604443648966558 0.64278761758704617 I I #
edge $-1 $428 -5.5404747075358785 $794 13.673864567362983 $426 $801 forward 7 unknown #
point $-1 -5.5404747075358785 -21.122380345310951 9.3519408275897433 #
point $-1 -5.5404747075358785 -21.122380345310951 1.3416480748237174 #
edge $-1 $802 1 $802 0 $431 $-1 forward 7 unknown #
vertex $-1 $432 $803 #
ellipse-curve $-1 -0.050663486136201641 -11.669616596749709 -0.2301549284926554 0 -0.64278761758704617 0.76604443648966558 2 0 0 1 I I #
point $-1 1.9493365138637984 -16.349232862364193 5.3467944512067289 #
edge $-1 $804 1 $804 0 $435 $-1 forward 7 unknown #
vertex $-1 $436 $805 #
ellipse-curve $-1 8.1840533459633065 -11.669616596749709 -0.2301549284926554 0 -0.64278761758704617 0.76604443648966558 2 0 0 1 I I #
point $-1 10.184053345963306 -16.349232862364193 5.3467944512067289 #
loop $-1 $-1 $447 $439 #
plane-surface $-1 0 0 9.3519408275897433 0 0 1 1 0 0 forward_v I I I I #
coedge $-1 $642 $442 $444 $646 reversed $273 $-1 #
coedge $-1 $442 $641 $806 $807 reversed $273 $-1 #
coedge $-1 $450 $445 $442 $644 forward $440 $-1 #
edge $-1 $647 -48.785915061660532 $808 -42.493148958647161 $643 $809 forward 7 unknown #
coedge $-1 $444 $443 $650 $810 reversed $171 $-1 #
edge $-1 $811 33.34544562615347 $647 42.244760690621909 $641 $812 forward 7 unknown #
vertex $-1 $446 $813 #
straight-curve $-1 -14.127038775243001 21.122380345310955 3.0591747245763692 -1 0 0 I I #
coedge $-1 $806 $447 $450 $654 forward $639 $-1 #
coedge $-1 $447 $806 $645 $810 forward $639 $-1 #
vertex $-1 $448 $814 #
straight-curve $-1 -23.081079299522017 31.005136663652717 9.3519408275897433 0 1 0 I I #
straight-curve $-1 -23.081079299522017 -8.7491760620444055 32.930731825104289 0 -0.70710677298230451 0.70710678939079041 I I #
edge $-1 $451 23.081079299522017 $808 33.427075801449988 $450 $815 forward 7 unknown #
point $-1 -23.081079299522017 21.122380345310951 9.3519408275897433 #
point $-1 -23.081079299522017 21.122380345310951 3.0591747245763692 #
edge $-1 $816 1 $816 0 $454 $-1 forward 7 unknown #
vertex $-1 $455 $817 #
ellipse-curve $-1 -30.471076800899137 16.504640357806025 4.7342008012156773 0 0.70710678939079041 0.70710677298230451 1 0 0 1 I I #
point $-1 -29.471076800899137 17.975997366816394 6.2055577760830571 #
edge $-1 $818 1 $818 0 $458 $-1 forward 7 unknown #
vertex $-1 $459 $819 #
ellipse-curve $-1 -26.037078300072864 16.504640357806025 4.7342008012156773 0 0.70710678939079041 0.70710677298230451 1 0 0 1 I I #
point $-1 -25.037078300072864 17.975997366816394 6.2055577760830571 #
loop $-1 $-1 $470 $462 #
plane-surface $-1 0 0 9.3519408275897433 0 0 1 1 0 0 forward_v I I I I #
coedge $-1 $668 $465 $467 $672 reversed $295 $-1 #
coedge $-1 $465 $667 $820 $821 reversed $295 $-1 #
coedge $-1 $473 $468 $465 $670 forward $463 $-1 #
edge $-1 $673 -48.785915061660532 $822 -42.493148958647161 $669 $823 forward 7 unknown #
coedge $-1 $467 $466 $676 $824 reversed $185 $-1 #
edge $-1 $825 33.34544562615347 $673 42.244760690621909 $667 $826 forward 7 unknown #
vertex $-1 $469 $827 #
straight-curve $-1 -4.709012925080998 21.122380345310955 3.0591747245763692 -1 0 0 I I #
coedge $-1 $820 $470 $473 $680 forward $665 $-1 #
coedge $-1 $470 $820 $671 $824 forward $665 $-1 #
vertex $-1 $471 $828 #
straight-curve $-1 -4.2450275991980124 31.005136663652717 9.3519408275897433 0 1 0 I I #
straight-curve $-1 -4.2450275991980124 -8.7491760620444055 32.930731825104289 0 -0.70710677298230451 0.70710678939079041 I I #
edge $-1 $474 4.2450275991980124 $822 14.59102410112598 $473 $829 forward 7 unknown #
point $-1 -4.2450275991980124 21.122380345310951 9.3519408275897433 #
point $-1 -4.2450275991980124 21.122380345310951 3.0591747245763692 #
edge $-1 $830 1 $830 0 $477 $-1 forward 7 unknown #
vertex $-1 $478 $831 #
ellipse-curve $-1 -11.635025100575135 16.504640357806025 4.7342008012156773 0 0.70710678939079041 0.70710677298230451 1 0 0 1 I I #
point $-1 -10.635025100575135 17.975997366816394 6.2055577760830571 #
edge $-1 $832 1 $832 0 $481 $-1 forward 7 unknown #
vertex $-1 $482 $833 #
ellipse-curve $-1 -7.2010265997488574 16.504640357806025 4.7342008012156773 0 0.70710678939079041 0.70710677298230451 1 0 0 1 I I #
point $-1 -6.2010265997488574 17.975997366816394 6.2055577760830571 #
plane-surface $-1 0 21.122380345310951 0 0 -1 0 0 0 -1 forward_v I I I I #
coedge $-1 $702 $701 $694 $834 forward $486 $-1 #
coedge $-1 $694 $488 $490 $698 reversed $317 $-1 #
coedge $-1 $488 $693 $692 $834 reversed $317 $-1 #
coedge $-1 $496 $491 $488 $696 forward $497 $-1 #
edge $-1 $699 -48.785915061660532 $835 -42.493148958647161 $695 $836 forward 7 unknown #
coedge $-1 $490 $489 $702 $837 reversed $199 $-1 #
edge $-1 $838 33.34544562615347 $699 42.244760690621909 $693 $839 forward 7 unknown #
vertex $-1 $492 $840 #
straight-curve $-1 4.7090129250810051 21.122380345310955 3.0591747245763692 -1 0 0 I I #
coedge $-1 $692 $493 $496 $706 forward $486 $-1 #
coedge $-1 $493 $692 $697 $837 forward $486 $-1 #
vertex $-1 $494 $841 #
straight-curve $-1 14.591024101125994 31.005136663652717 9.3519408275897433 0 1 0 I I #
straight-curve $-1 14.591024101125994 -8.7491760620444055 32.930731825104289 0 -0.70710677298230451 0.70710678939079041 I I #
edge $-1 $498 -14.591024101125994 $835 -4.2450275991980266 $496 $842 forward 7 unknown #
point $-1 14.591024101125994 21.122380345310951 9.3519408275897433 #
point $-1 14.591024101125994 21.122380345310951 3.0591747245763692 #
edge $-1 $843 1 $843 0 $501 $-1 forward 7 unknown #
vertex $-1 $502 $844 #
ellipse-curve $-1 7.2010265997488716 16.504640357806025 4.7342008012156773 0 0.70710678939079041 0.70710677298230451 1 0 0 1 I I #
point $-1 8.2010265997488716 17.975997366816394 6.2055577760830571 #
edge $-1 $845 1 $845 0 $505 $-1 forward 7 unknown #
vertex $-1 $506 $846 #
ellipse-curve $-1 11.635025100575149 16.504640357806025 4.7342008012156773 0 0.70710678939079041 0.70710677298230451 1 0 0 1 I I #
point $-1 12.635025100575149 17.975997366816394 6.2055577760830571 #
plane-surface $-1 0 21.122380345310951 0 0 -1 0 0 0 -1 forward_v I I I I #
coedge $-1 $728 $727 $720 $847 forward $510 $-1 #
coedge $-1 $720 $512 $514 $724 reversed $339 $-1 #
coedge $-1 $512 $719 $718 $847 reversed $339 $-1 #
coedge $-1 $520 $515 $512 $722 forward $521 $-1 #
edge $-1 $725 -48.785915061660532 $848 -42.493148958647161 $721 $849 forward 7 unknown #
coedge $-1 $514 $513 $728 $850 reversed $213 $-1 #
edge $-1 $851 33.34544562615347 $725 42.244760690621909 $719 $852 forward 7 unknown #
vertex $-1 $516 $853 #
straight-curve $-1 14.127038775243008 21.122380345310955 3.0591747245763692 -1 0 0 I I #
coedge $-1 $718 $517 $520 $732 forward $510 $-1 #
coedge $-1 $517 $718 $723 $850 forward $510 $-1 #
vertex $-1 $518 $854 #
straight-curve $-1 33.427075801450002 31.005136663652717 9.3519408275897433 0 1 0 I I #
straight-curve $-1 33.427075801450002 -8.7491760620444055 32.930731825104289 0 -0.70710677298230451 0.70710678939079041 I I #
edge $-1 $522 -33.427075801450002 $848 -23.081079299522031 $520 $855 forward 7 unknown #
point $-1 33.427075801450002 21.122380345310951 9.3519408275897433 #
point $-1 33.427075801450002 21.122380345310951 3.0591747245763692 #
edge $-1 $856 1 $856 0 $525 $-1 forward 7 unknown #
vertex $-1 $526 $857 #
ellipse-curve $-1 26.037078300072878 16.504640357806025 4.7342008012156773 0 0.70710678939079041 0.70710677298230451 1 0 0 1 I I #
point $-1 27.037078300072878 17.975997366816394 6.2055577760830571 #
edge $-1 $858 1 $858 0 $529 $-1 forward 7 unknown #
vertex $-1 $530 $859 #
ellipse-curve $-1 30.471076800899155 16.504640357806025 4.7342008012156773 0 0.70710678939079041 0.70710677298230451 1 0 0 1 I I #
point $-1 31.471076800899155 17.975997366816394 6.2055577760830571 #
plane-surface $-1 50.034485915707876 0 0 -1 0 0 0 0 1 forward_v I I I I #
coedge $-1 $538 $536 $540 $748 reversed $361 $-1 #
edge $-1 $551 -9.3519408275897433 $750 9.3519408275897433 $550 $860 forward 7 unknown #
vertex $-1 $748 $861 #
straight-curve $-1 -50.034485915707876 -21.122380345310951 0 0 0 -1 I I #
edge $-1 $746 -21.122380345310951 $750 21.122380345310951 $744 $862 forward 7 unknown #
straight-curve $-1 0 -21.122380345310951 -9.3519408275897433 -1 0 0 I I #
vertex $-1 $543 $863 #
straight-curve $-1 0 21.122380345310951 -9.3519408275897433 1 0 0 I I #
point $-1 50.034485915707876 21.122380345310951 -9.3519408275897433 #
point $-1 50.034485915707876 -21.122380345310951 -9.3519408275897433 #
straight-curve $-1 -50.034485915707876 0 9.3519408275897433 0 -1 0 I I #
point $-1 -50.034485915707876 21.122380345310951 9.3519408275897433 #
point $-1 -50.034485915707876 -21.122380345310951 9.3519408275897433 #
straight-curve $-1 50.034485915707876 -21.122380345310951 0 0 0 -1 I I #
straight-curve $-1 50.034485915707876 21.122380345310951 0 0 0 -1 I I #
plane-surface $-1 0 21.122380345310951 0 0 -1 0 0 0 -1 forward_v I I I I #
coedge $-1 $770 $769 $566 $762 forward $561 $-1 #
straight-curve $-1 -39.654610758997975 -21.122380345310951 3.6604608939435135 0 0 1 I I #
edge $-1 $765 -21.122380345310951 $763 21.122380345310951 $760 $864 forward 7 unknown #
vertex $-1 $567 $865 #
straight-curve $-1 -22.422274168676463 -21.122380345310951 5.820921787887027 1 0 0 I I #
vertex $-1 $569 $866 #
straight-curve $-1 -22.422274168676463 21.122380345310951 5.820921787887027 -1 0 0 I I #
point $-1 -39.654610758997975 21.122380345310951 5.820921787887027 #
point $-1 -39.654610758997975 -21.122380345310951 5.820921787887027 #
coedge $-1 $760 $573 $576 $772 forward $561 $-1 #
coedge $-1 $573 $760 $580 $774 reversed $561 $-1 #
straight-curve $-1 -50.034485915707876 0 8.820921787887027 0 1 0 I I #
edge $-1 $578 -8.820921787887027 $765 -5.820921787887027 $576 $867 forward 7 unknown #
point $-1 -50.034485915707876 21.122380345310951 8.820921787887027 #
edge $-1 $581 -8.820921787887027 $763 -5.820921787887027 $770 $868 forward 7 unknown #
point $-1 -50.034485915707876 -21.122380345310951 8.820921787887027 #
straight-curve $-1 -39.654610758997975 21.122380345310951 3.6604608939435135 0 0 -1 I I #
plane-surface $-1 50.034485915707876 0 0 -1 0 0 0 0 1 forward_v I I I I #
coedge $-1 $590 $589 $605 $789 reversed $243 $-1 #
edge $-1 $782 -21.122380345310951 $780 21.122380345310951 $589 $869 forward 7 unknown #
vertex $-1 $597 $870 #
straight-curve $-1 39.654610758997983 21.122380345310951 3.6604608939435135 0 0 1 I I #
vertex $-1 $595 $871 #
straight-curve $-1 22.422274168676466 -21.122380345310951 5.820921787887027 1 0 0 I I #
straight-curve $-1 22.422274168676466 21.122380345310951 5.820921787887027 -1 0 0 I I #
point $-1 50.034485915707883 -21.122380345310951 5.820921787887027 #
point $-1 50.034485915707883 21.122380345310951 5.820921787887027 #
straight-curve $-1 39.654610758997983 0 8.820921787887027 0 -1 0 I I #
point $-1 39.654610758997983 21.122380345310951 8.820921787887027 #
edge $-1 $607 -5.1604608939435135 $782 -2.1604608939435135 $605 $872 forward 7 unknown #
point $-1 39.654610758997983 -21.122380345310951 8.820921787887027 #
straight-curve $-1 50.034485915707876 -21.122380345310951 0 0 0 -1 I I #
straight-curve $-1 50.034485915707876 21.122380345310951 0 0 0 -1 I I #
edge $-1 $794 21.600357826295003 $797 31.146652792188512 $614 $873 forward 7 unknown #
vertex $-1 $793 $874 #
straight-curve $-1 13.673864567362983 -21.122380345310951 38.999463605760411 0 0 1 I I #
edge $-1 $797 -11.640517102406207 $625 7.5738221724926547 $624 $875 forward 7 unknown #
vertex $-1 $796 $876 #
straight-curve $-1 13.673864567362983 -21.122380345310944 1.3416480748237234 0 -0.76604443648966558 -0.64278761758704617 I I #
point $-1 13.673864567362983 -21.122380345310951 1.3416480748237174 #
point $-1 -5.5404747075358785 -11.576085379417441 9.3519408275897433 #
straight-curve $-1 0 -21.122380345310951 9.3519408275897433 1 0 0 I I #
vertex $-1 $631 $877 #
point $-1 1.9493365138637984 -11.669616596749709 -0.2301549284926554 #
vertex $-1 $635 $878 #
point $-1 10.184053345963306 -11.669616596749709 -0.2301549284926554 #
coedge $-1 $650 $649 $642 $807 forward $639 $-1 #
edge $-1 $808 9.8827563183417659 $811 16.175522275330852 $806 $879 forward 7 unknown #
vertex $-1 $807 $880 #
straight-curve $-1 -33.427075801449988 21.122380345310951 51.845089786236905 0 0 1 I I #
edge $-1 $811 -19.300037026206986 $651 -8.9540405242790158 $650 $881 forward 7 unknown #
vertex $-1 $810 $882 #
straight-curve $-1 -33.427075801449988 -8.7491760620444055 32.930731825104289 0 0.70710677298230451 -0.70710678939079041 I I #
point $-1 -33.427075801449988 21.122380345310951 3.0591747245763692 #
point $-1 -23.081079299522017 14.829614388321865 9.3519408275897433 #
straight-curve $-1 0 21.122380345310951 9.3519408275897433 -1 0 0 I I #
vertex $-1 $657 $883 #
point $-1 -29.471076800899137 16.504640357806025 4.7342008012156773 #
vertex $-1 $661 $884 #
point $-1 -25.037078300072864 16.504640357806025 4.7342008012156773 #
coedge $-1 $676 $675 $668 $821 forward $665 $-1 #
edge $-1 $822 9.8827563183417659 $825 16.175522275330852 $820 $885 forward 7 unknown #
vertex $-1 $821 $886 #
straight-curve $-1 -14.59102410112598 21.122380345310951 51.845089786236905 0 0 1 I I #
edge $-1 $825 -9.8820111760449816 $677 0.46398532588298558 $676 $887 forward 7 unknown #
vertex $-1 $824 $888 #
straight-curve $-1 -14.59102410112598 -8.7491760620444055 32.930731825104289 0 0.70710677298230451 -0.70710678939079041 I I #
point $-1 -14.59102410112598 21.122380345310951 3.0591747245763692 #
point $-1 -4.2450275991980124 14.829614388321865 9.3519408275897433 #
straight-curve $-1 0 21.122380345310951 9.3519408275897433 -1 0 0 I I #
vertex $-1 $683 $889 #
point $-1 -10.635025100575135 16.504640357806025 4.7342008012156773 #
vertex $-1 $687 $890 #
point $-1 -6.2010265997488574 16.504640357806025 4.7342008012156773 #
edge $-1 $835 9.8827563183417659 $838 16.175522275330852 $692 $891 forward 7 unknown #
vertex $-1 $696 $892 #
straight-curve $-1 4.2450275991980266 21.122380345310951 51.845089786236905 0 0 1 I I #
edge $-1 $838 -0.46398532588297847 $703 9.8820111760449887 $702 $893 forward 7 unknown #
vertex $-1 $837 $894 #
straight-curve $-1 4.2450275991980266 -8.7491760620444055 32.930731825104289 0 0.70710677298230451 -0.70710678939079041 I I #
point $-1 4.2450275991980266 21.122380345310951 3.0591747245763692 #
point $-1 14.591024101125994 14.829614388321865 9.3519408275897433 #
straight-curve $-1 0 21.122380345310951 9.3519408275897433 -1 0 0 I I #
vertex $-1 $709 $895 #
point $-1 8.2010265997488716 16.504640357806025 4.7342008012156773 #
vertex $-1 $713 $896 #
point $-1 12.635025100575149 16.504640357806025 4.7342008012156773 #
edge $-1 $848 9.8827563183417659 $851 16.175522275330852 $718 $897 forward 7 unknown #
vertex $-1 $722 $898 #
straight-curve $-1 23.081079299522031 21.122380345310951 51.845089786236905 0 0 1 I I #
edge $-1 $851 8.9540405242790229 $729 19.300037026206994 $728 $899 forward 7 unknown #
vertex $-1 $850 $900 #
straight-curve $-1 23.081079299522031 -8.7491760620444055 32.930731825104289 0 0.70710677298230451 -0.70710678939079041 I I #
point $-1 23.081079299522031 21.122380345310951 3.0591747245763692 #
point $-1 33.427075801450002 14.829614388321865 9.3519408275897433 #
straight-curve $-1 0 21.122380345310951 9.3519408275897433 -1 0 0 I I #
vertex $-1 $735 $901 #
point $-1 27.037078300072878 16.504640357806025 4.7342008012156773 #
vertex $-1 $739 $902 #
point $-1 31.471076800899155 16.504640357806025 4.7342008012156773 #
straight-curve $-1 -50.034485915707876 21.122380345310951 0 0 0 -1 I I #
point $-1 -50.034485915707876 -21.122380345310951 -9.3519408275897433 #
straight-curve $-1 -50.034485915707876 0 -9.3519408275897433 0 1 0 I I #
point $-1 -50.034485915707876 21.122380345310951 -9.3519408275897433 #
straight-curve $-1 -50.034485915707876 0 5.820921787887027 0 -1 0 I I #
point $-1 -50.034485915707876 -21.122380345310951 5.820921787887027 #
point $-1 -50.034485915707876 21.122380345310951 5.820921787887027 #
straight-curve $-1 -50.034485915707876 21.122380345310951 0 0 0 -1 I I #
straight-curve $-1 -50.034485915707876 -21.122380345310951 0 0 0 -1 I I #
straight-curve $-1 39.654610758997983 0 5.820921787887027 0 1 0 I I #
point $-1 39.654610758997983 21.122380345310951 5.820921787887027 #
point $-1 39.654610758997983 -21.122380345310951 5.820921787887027 #
straight-curve $-1 39.654610758997983 -21.122380345310951 3.6604608939435135 0 0 -1 I I #
straight-curve $-1 13.673864567362983 -42.722738171605954 9.3519408275897433 0 1 0 I I #
point $-1 13.673864567362983 -21.122380345310951 9.3519408275897433 #
straight-curve $-1 2.0333474649567762 -11.576085379417439 9.3519408275897433 -1 0 0 I I #
point $-1 13.673864567362983 -11.576085379417441 9.3519408275897433 #
point $-1 -0.050663486136201641 -10.384041361575616 -1.7622438014719859 #
point $-1 8.1840533459633065 -10.384041361575616 -1.7622438014719859 #
straight-curve $-1 -33.427075801449988 31.005136663652717 9.3519408275897433 0 -1 0 I I #
point $-1 -33.427075801449988 21.122380345310951 9.3519408275897433 #
straight-curve $-1 -14.127038775243001 14.829614388321865 9.3519408275897415 1 0 0 I I #
point $-1 -33.427075801449988 14.829614388321865 9.3519408275897433 #
point $-1 -30.471076800899137 15.797533568415234 4.027094028233372 #
point $-1 -26.037078300072864 15.797533568415234 4.027094028233372 #
straight-curve $-1 -14.59102410112598 31.005136663652717 9.3519408275897433 0 -1 0 I I #
point $-1 -14.59102410112598 21.122380345310951 9.3519408275897433 #
straight-curve $-1 -4.709012925080998 14.829614388321865 9.3519408275897415 1 0 0 I I #
point $-1 -14.59102410112598 14.829614388321865 9.3519408275897433 #
point $-1 -11.635025100575135 15.797533568415234 4.027094028233372 #
point $-1 -7.2010265997488574 15.797533568415234 4.027094028233372 #
straight-curve $-1 4.2450275991980266 31.005136663652717 9.3519408275897433 0 -1 0 I I #
point $-1 4.2450275991980266 21.122380345310951 9.3519408275897433 #
straight-curve $-1 4.7090129250810051 14.829614388321865 9.3519408275897415 1 0 0 I I #
point $-1 4.2450275991980266 14.829614388321865 9.3519408275897433 #
point $-1 7.2010265997488716 15.797533568415234 4.027094028233372 #
point $-1 11.635025100575149 15.797533568415234 4.027094028233372 #
straight-curve $-1 23.081079299522031 31.005136663652717 9.3519408275897433 0 -1 0 I I #
point $-1 23.081079299522031 21.122380345310951 9.3519408275897433 #
straight-curve $-1 14.127038775243008 14.829614388321865 9.3519408275897415 1 0 0 I I #
point $-1 23.081079299522031 14.829614388321865 9.3519408275897433 #
point $-1 26.037078300072878 15.797533568415234 4.027094028233372 #
point $-1 30.471076800899155 15.797533568415234 4.027094028233372 #
End-of-ACIS-data 