500 0 7 0           
7 Unknown 11 ACIS 5.0 NT 24 Thu Mar 25 15:28:48 1999 
-1 9.9999999999999995e-007 1e-010 
body $-1 $7 $-1 $8 #
body $-1 $9 $-1 $10 #
body $-1 $11 $-1 $12 #
body $-1 $13 $-1 $14 #
body $-1 $15 $-1 $16 #
body $-1 $17 $-1 $18 #
body $-1 $19 $-1 $20 #
lump $-1 $-1 $21 $0 #
transform $-1 1 0 0 0 1 0 0 0 1 68.367564928128914 34.661794156469448 12.647476946750217 1 rotate no_reflect no_shear #
lump $-1 $-1 $22 $1 #
transform $-1 1 0 0 0 1 0 0 0 1 68.367564928128914 34.661794156469448 12.647476946750217 1 rotate no_reflect no_shear #
lump $-1 $-1 $23 $2 #
transform $-1 1 0 0 0 1 0 0 0 1 68.367564928128914 34.661794156469448 12.647476946750217 1 rotate no_reflect no_shear #
lump $-1 $-1 $24 $3 #
transform $-1 1 0 0 0 1 0 0 0 1 68.367564928128914 34.661794156469448 12.647476946750217 1 rotate no_reflect no_shear #
lump $-1 $-1 $25 $4 #
transform $-1 1 0 0 0 1 0 0 0 1 68.367564928128914 34.661794156469448 12.647476946750217 1 rotate no_reflect no_shear #
lump $-1 $-1 $26 $5 #
transform $-1 1 0 0 0 1 0 0 0 1 68.367564928128914 34.661794156469448 12.647476946750217 1 rotate no_reflect no_shear #
lump $-1 $-1 $27 $6 #
transform $-1 1 0 0 0 1 0 0 0 1 68.367564928128914 34.661794156469448 12.647476946750217 1 rotate no_reflect no_shear #
shell $-1 $-1 $-1 $28 $-1 $7 #
shell $-1 $-1 $-1 $29 $-1 $9 #
shell $-1 $-1 $-1 $30 $-1 $11 #
shell $-1 $-1 $-1 $31 $-1 $13 #
shell $-1 $-1 $-1 $32 $-1 $15 #
shell $-1 $-1 $-1 $33 $-1 $17 #
shell $-1 $-1 $-1 $34 $-1 $19 #
face $-1 $35 $36 $21 $-1 $37 forward single #
face $-1 $38 $39 $22 $-1 $40 forward single #
face $-1 $41 $42 $23 $-1 $43 reversed single #
face $-1 $44 $45 $24 $-1 $46 forward single #
face $-1 $47 $48 $25 $-1 $49 forward single #
face $-1 $50 $51 $26 $-1 $52 reversed single #
face $-1 $53 $54 $27 $-1 $55 forward single #
face $-1 $56 $57 $21 $-1 $58 reversed single #
loop $-1 $-1 $59 $28 #
plane-surface $-1 0 0 12.647476946750217 0 0 1 1 0 0 forward_v I I I I #
face $-1 $60 $61 $22 $-1 $62 reversed single #
loop $-1 $-1 $63 $29 #
plane-surface $-1 0 -28.892766063026972 2.2889339591513949 0 0 1 1 0 0 forward_v I I I I #
face $-1 $64 $65 $23 $-1 $66 reversed single #
loop $-1 $-1 $67 $30 #
plane-surface $-1 85.221106536605461 -7.1535465898012571 198.99733166756675 0 1 0 0.7660444514056185 0 0.64278759981090561 forward_v I I I I #
face $-1 $68 $69 $24 $-1 $70 forward single #
loop $-1 $71 $72 $31 #
cone-surface $-1 64.313148389551955 -2.6509245407641586 8.3152218706767069 -0.7660444514056185 0 -0.64278759981090561 0.64278759981090561 0 -0.7660444514056185 1 I I 0 1 1 forward I I I I #
face $-1 $73 $74 $25 $-1 $75 forward single #
loop $-1 $76 $77 $32 #
cone-surface $-1 64.313148389551955 4.1030085327914847 8.3152218706767069 -0.7660444514056185 0 -0.64278759981090561 0.64278759981090561 0 -0.7660444514056185 1 I I 0 1 1 forward I I I I #
face $-1 $78 $79 $26 $-1 $80 reversed single #
loop $-1 $-1 $81 $33 #
plane-surface $-1 -166.72658706475829 9.2300018968716842 99.34848706201285 0 1 0 -0.71933980857756763 0 0.69465836192734942 forward_v I I I I #
face $-1 $82 $83 $27 $-1 $84 forward single #
loop $-1 $85 $86 $34 #
cone-surface $-1 -62.238416719421771 16.875902989619036 6.4492965763027215 0.71933980857756763 0 -0.69465836192734942 1.3893167238546988 0 1.4386796171551353 1 I I 0 1 2 forward I I I I #
face $-1 $87 $88 $21 $-1 $89 reversed single #
loop $-1 $-1 $90 $35 #
plane-surface $-1 0 0 -12.647476946750217 0 0 1 1 0 0 forward_v I I I I #
coedge $-1 $91 $92 $93 $94 forward $36 $-1 #
face $-1 $95 $96 $22 $-1 $97 reversed single #
loop $-1 $-1 $98 $38 #
plane-surface $-1 0 -28.892766063026972 -0.71106604084860514 0 0 1 1 0 0 forward_v I I I I #
coedge $-1 $99 $100 $101 $102 reversed $39 $-1 #
face $-1 $103 $104 $23 $-1 $105 reversed single #
loop $-1 $-1 $106 $41 #
plane-surface $-1 -19.524081002007577 0.72604199601365593 111.10568573743029 0.7660444514056185 0 0.64278759981090561 0.64278759981090561 0 -0.7660444514056185 forward_v I I I I #
coedge $-1 $107 $108 $109 $110 reversed $42 $-1 #
face $-1 $-1 $111 $24 $-1 $112 forward single #
loop $-1 $113 $114 $44 #
cone-surface $-1 62.513410330518994 -2.6509245407641586 6.805062368664224 -0.7660444514056185 0 -0.64278759981090561 0.3213937999054528 0 -0.38302222570280925 1 I I -0.70710678118654746 0.70710678118654746 0.5 forward I I I I #
loop $-1 $-1 $115 $31 #
coedge $-1 $72 $72 $116 $117 reversed $45 $-1 #
face $-1 $-1 $118 $25 $-1 $119 forward single #
loop $-1 $120 $121 $47 #
cone-surface $-1 62.513410330518994 4.1030085327914847 6.805062368664224 -0.7660444514056185 0 -0.64278759981090561 0.3213937999054528 0 -0.38302222570280925 1 I I -0.70710678118654746 0.70710678118654746 0.5 forward I I I I #
loop $-1 $-1 $122 $32 #
coedge $-1 $77 $77 $123 $124 reversed $48 $-1 #
face $-1 $125 $126 $26 $-1 $127 reversed single #
loop $-1 $-1 $128 $50 #
plane-surface $-1 -68.367564928128928 16.875902989619036 4.3642857381413762 -0.71933980857756763 0 0.69465836192734942 0.69465836192734942 0 0.71933980857756763 forward_v I I I I #
coedge $-1 $129 $130 $131 $132 reversed $51 $-1 #
face $-1 $-1 $133 $27 $-1 $134 forward single #
loop $-1 $135 $136 $53 #
cone-surface $-1 -59.38942099207528 16.875902989619036 3.6980534482322938 0.71933980857756763 0 -0.69465836192734942 0.69465836192734942 0 0.71933980857756763 1 I I -0.70710678118654746 0.70710678118654746 1 forward I I I I #
loop $-1 $-1 $137 $34 #
coedge $-1 $86 $86 $138 $139 reversed $54 $-1 #
face $-1 $140 $141 $21 $-1 $142 reversed single #
loop $-1 $-1 $143 $56 #
plane-surface $-1 0 -34.661794156469448 0 0 1 0 0 0 1 forward_v I I I I #
coedge $-1 $144 $145 $146 $147 forward $57 $-1 #
coedge $-1 $148 $59 $149 $150 forward $36 $-1 #
coedge $-1 $59 $148 $151 $152 forward $36 $-1 #
coedge $-1 $153 $154 $59 $94 reversed $155 $-1 #
edge $-1 $156 -34.661794156469448 $157 34.661794156469448 $93 $158 forward 7 unknown #
face $-1 $159 $160 $22 $-1 $161 reversed single #
loop $-1 $-1 $162 $60 #
plane-surface $-1 0 -23.123737969584496 0.78893395915139486 0 -1 0 0 0 -1 forward_v I I I I #
coedge $-1 $163 $164 $165 $166 reversed $61 $-1 #
coedge $-1 $167 $63 $168 $169 forward $39 $-1 #
coedge $-1 $63 $167 $170 $171 reversed $39 $-1 #
coedge $-1 $172 $173 $63 $102 forward $174 $-1 #
edge $-1 $175 8.6773549380710104 $176 20.215411124955963 $101 $177 forward 7 unknown #
face $-1 $178 $179 $23 $-1 $180 forward single #
loop $-1 $-1 $181 $64 #
plane-surface $-1 85.221106536605461 8.605630581828569 198.99733166756675 0 -1 0 -0.7660444514056185 0 -0.64278759981090561 forward_v I I I I #
coedge $-1 $182 $183 $184 $185 reversed $65 $-1 #
coedge $-1 $108 $67 $186 $187 reversed $42 $-1 #
coedge $-1 $67 $107 $182 $188 reversed $42 $-1 #
coedge $-1 $184 $189 $67 $110 forward $190 $-1 #
edge $-1 $191 86.85118888703316 $192 93.138167634966138 $109 $193 forward 7 unknown #
loop $-1 $-1 $116 $68 #
plane-surface $-1 -19.524081002007577 0.72604199601365593 111.10568573743029 0.7660444514056185 0 0.64278759981090561 0.64278759981090561 0 -0.7660444514056185 forward_v I I I I #
loop $-1 $-1 $194 $44 #
coedge $-1 $114 $114 $115 $195 reversed $69 $-1 #
coedge $-1 $115 $115 $114 $195 forward $71 $-1 #
coedge $-1 $116 $116 $72 $117 forward $111 $-1 #
edge $-1 $196 0 $196 6.2831853071796004 $116 $197 forward 7 unknown #
loop $-1 $-1 $123 $73 #
plane-surface $-1 -19.524081002007577 0.72604199601365593 111.10568573743029 0.7660444514056185 0 0.64278759981090561 0.64278759981090561 0 -0.7660444514056185 forward_v I I I I #
loop $-1 $-1 $198 $47 #
coedge $-1 $121 $121 $122 $199 reversed $74 $-1 #
coedge $-1 $122 $122 $121 $199 forward $76 $-1 #
coedge $-1 $123 $123 $77 $124 forward $118 $-1 #
edge $-1 $200 0 $200 6.2831853071796004 $123 $201 forward 7 unknown #
face $-1 $202 $203 $26 $-1 $204 reversed single #
loop $-1 $-1 $205 $78 #
plane-surface $-1 -166.72658706475829 24.521804082366387 99.34848706201285 0 -1 0 0.71933980857756763 0 -0.69465836192734942 forward_v I I I I #
coedge $-1 $206 $207 $208 $209 reversed $79 $-1 #
coedge $-1 $130 $81 $210 $211 reversed $51 $-1 #
coedge $-1 $81 $129 $206 $212 reversed $51 $-1 #
coedge $-1 $208 $213 $81 $132 forward $214 $-1 #
edge $-1 $215 14.995728604250232 $216 22.994713184126667 $131 $217 forward 7 unknown #
loop $-1 $-1 $138 $82 #
plane-surface $-1 -68.367564928128928 16.875902989619036 4.3642857381413762 -0.71933980857756763 0 0.69465836192734942 0.69465836192734942 0 0.71933980857756763 forward_v I I I I #
loop $-1 $-1 $218 $53 #
coedge $-1 $136 $136 $137 $219 reversed $83 $-1 #
coedge $-1 $137 $137 $136 $219 forward $85 $-1 #
coedge $-1 $138 $138 $86 $139 forward $133 $-1 #
edge $-1 $220 0 $220 6.2831853071796004 $138 $221 forward 7 unknown #
face $-1 $222 $223 $21 $-1 $224 reversed single #
loop $-1 $-1 $225 $87 #
plane-surface $-1 -68.367564928128914 0 0 1 0 0 0 0 -1 forward_v I I I I #
coedge $-1 $226 $151 $227 $228 forward $88 $-1 #
coedge $-1 $229 $90 $226 $230 forward $57 $-1 #
coedge $-1 $90 $229 $231 $232 forward $57 $-1 #
coedge $-1 $154 $153 $90 $147 reversed $155 $-1 #
edge $-1 $233 -34.661794156469448 $234 34.661794156469448 $146 $235 forward 7 unknown #
coedge $-1 $92 $91 $236 $237 forward $36 $-1 #
coedge $-1 $238 $239 $91 $150 reversed $223 $-1 #
edge $-1 $157 -68.367564928128914 $240 68.367564928128914 $149 $241 forward 7 unknown #
coedge $-1 $143 $242 $92 $152 reversed $88 $-1 #
edge $-1 $243 -68.367564928128914 $156 68.367564928128914 $151 $244 forward 7 unknown #
coedge $-1 $146 $93 $242 $245 forward $155 $-1 #
coedge $-1 $93 $146 $238 $246 reversed $155 $-1 #
loop $-1 $-1 $153 $222 #
vertex $-1 $94 $247 #
vertex $-1 $94 $248 #
straight-curve $-1 68.367564928128914 0 12.647476946750217 0 1 0 I I #
face $-1 $249 $250 $22 $-1 $251 reversed single #
loop $-1 $-1 $252 $95 #
plane-surface $-1 -68.367564928128914 0 0 1 0 0 0 0 -1 forward_v I I I I #
coedge $-1 $253 $168 $173 $254 reversed $96 $-1 #
coedge $-1 $255 $98 $256 $257 reversed $61 $-1 #
coedge $-1 $98 $255 $253 $258 forward $61 $-1 #
coedge $-1 $173 $172 $98 $166 forward $174 $-1 #
edge $-1 $259 -20.215411124955963 $260 -8.6773549380710104 $165 $261 forward 7 unknown #
coedge $-1 $100 $99 $252 $262 reversed $39 $-1 #
coedge $-1 $162 $263 $99 $169 reversed $96 $-1 #
edge $-1 $175 -68.367564928128914 $264 68.367564928128914 $168 $265 forward 7 unknown #
coedge $-1 $266 $267 $100 $171 forward $250 $-1 #
edge $-1 $176 -68.367564928128914 $268 68.367564928128914 $170 $269 forward 7 unknown #
coedge $-1 $165 $101 $267 $270 forward $174 $-1 #
coedge $-1 $101 $165 $162 $254 forward $174 $-1 #
loop $-1 $-1 $101 $249 #
vertex $-1 $102 $271 #
vertex $-1 $270 $272 #
straight-curve $-1 68.367564928128914 -14.446383031513486 2.2889339591513949 0 -1 0 I I #
face $-1 $-1 $190 $23 $-1 $273 reversed single #
loop $-1 $-1 $274 $103 #
plane-surface $-1 0 0 12.647476946750217 0 0 1 1 0 0 forward_v I I I I #
coedge $-1 $275 $276 $277 $278 reversed $104 $-1 #
coedge $-1 $279 $106 $108 $188 forward $65 $-1 #
coedge $-1 $106 $279 $275 $280 forward $65 $-1 #
coedge $-1 $277 $109 $106 $185 forward $190 $-1 #
edge $-1 $192 -7.5165675878080851 $281 8.242609583821741 $184 $282 forward 7 unknown #
coedge $-1 $283 $284 $107 $187 forward $179 $-1 #
edge $-1 $285 20.481610249332554 $191 25.757011659826183 $186 $286 forward 7 unknown #
edge $-1 $192 -136.73512985625788 $285 -128.52806205960852 $108 $287 forward 7 unknown #
coedge $-1 $109 $277 $283 $288 reversed $190 $-1 #
loop $-1 $-1 $277 $178 #
vertex $-1 $288 $289 #
vertex $-1 $110 $290 #
straight-curve $-1 68.367564928128914 -7.1535465898012571 99.498665833783377 0 0 -1 I I #
coedge $-1 $194 $194 $-1 $291 reversed $113 $-1 #
edge $-1 $292 0 $292 6.2831853071796004 $114 $293 forward 7 unknown #
vertex $-1 $117 $294 #
ellipse-curve $-1 65.7298642228821 -2.6509245407641586 9.503987572783732 0.7660444514056185 0 0.64278759981090561 0.64278759981090561 0 -0.7660444514056185 1 I I #
coedge $-1 $198 $198 $-1 $295 reversed $120 $-1 #
edge $-1 $296 0 $296 6.2831853071796004 $121 $297 forward 7 unknown #
vertex $-1 $124 $298 #
ellipse-curve $-1 65.7298642228821 4.1030085327914847 9.503987572783732 0.7660444514056185 0 0.64278759981090561 0.64278759981090561 0 -0.7660444514056185 1 I I #
face $-1 $-1 $214 $26 $-1 $299 forward single #
loop $-1 $-1 $300 $125 #
plane-surface $-1 -68.367564928128914 0 0 1 0 0 0 0 -1 forward_v I I I I #
coedge $-1 $301 $302 $303 $304 reversed $126 $-1 #
coedge $-1 $305 $128 $130 $212 forward $79 $-1 #
coedge $-1 $128 $305 $301 $306 forward $79 $-1 #
coedge $-1 $303 $131 $128 $209 forward $214 $-1 #
edge $-1 $216 0.79205040206216637 $307 16.083852587556869 $208 $308 forward 7 unknown #
coedge $-1 $309 $310 $129 $211 forward $203 $-1 #
edge $-1 $311 -45.309957792865035 $215 -37.026766584256208 $210 $312 forward 7 unknown #
edge $-1 $216 -11.514990703751176 $311 -2.0733024663016622e-014 $130 $313 forward 7 unknown #
coedge $-1 $131 $303 $309 $314 forward $214 $-1 #
loop $-1 $-1 $303 $202 #
vertex $-1 $211 $315 #
vertex $-1 $132 $316 #
straight-curve $-1 -83.363293532379146 9.2300018968716842 12.647476946750217 1 0 0 I I #
coedge $-1 $218 $218 $-1 $317 reversed $135 $-1 #
edge $-1 $318 0 $318 6.2831853071796004 $136 $319 forward 7 unknown #
vertex $-1 $139 $320 #
ellipse-curve $-1 -64.368072638190696 16.875902989619036 8.5058813424458037 -0.71933980857756763 0 0.69465836192734942 1.3893167238546988 0 1.4386796171551353 1 I I #
face $-1 $-1 $155 $21 $-1 $321 reversed single #
loop $-1 $-1 $238 $140 #
plane-surface $-1 0 34.661794156469448 0 0 -1 0 0 0 -1 forward_v I I I I #
coedge $-1 $322 $236 $239 $323 forward $141 $-1 #
coedge $-1 $242 $143 $144 $230 reversed $88 $-1 #
coedge $-1 $236 $322 $143 $228 reversed $141 $-1 #
edge $-1 $243 -12.647476946750217 $324 12.647476946750217 $227 $325 forward 7 unknown #
coedge $-1 $145 $144 $322 $326 forward $57 $-1 #
edge $-1 $234 -68.367564928128914 $324 68.367564928128914 $226 $327 forward 7 unknown #
coedge $-1 $239 $238 $145 $232 reversed $223 $-1 #
edge $-1 $328 -68.367564928128914 $233 68.367564928128914 $231 $329 forward 7 unknown #
vertex $-1 $147 $330 #
vertex $-1 $245 $331 #
straight-curve $-1 68.367564928128914 0 -12.647476946750217 0 -1 0 I I #
coedge $-1 $225 $227 $148 $237 reversed $141 $-1 #
edge $-1 $240 -34.661794156469448 $243 34.661794156469448 $236 $332 forward 7 unknown #
coedge $-1 $231 $149 $154 $246 forward $223 $-1 #
coedge $-1 $149 $231 $225 $323 reversed $223 $-1 #
vertex $-1 $150 $333 #
straight-curve $-1 0 34.661794156469448 12.647476946750217 -1 0 0 I I #
coedge $-1 $151 $226 $153 $245 reversed $88 $-1 #
vertex $-1 $237 $334 #
straight-curve $-1 0 -34.661794156469448 12.647476946750217 1 0 0 I I #
edge $-1 $156 -12.647476946750217 $234 12.647476946750217 $153 $335 forward 7 unknown #
edge $-1 $157 -12.647476946750217 $233 12.647476946750217 $154 $336 forward 7 unknown #
point $-1 68.367564928128914 -34.661794156469448 12.647476946750217 #
point $-1 68.367564928128914 34.661794156469448 12.647476946750217 #
face $-1 $-1 $174 $22 $-1 $337 reversed single #
loop $-1 $-1 $170 $159 #
plane-surface $-1 0 -34.661794156469448 0 0 1 0 0 0 1 forward_v I I I I #
coedge $-1 $338 $339 $167 $262 forward $160 $-1 #
coedge $-1 $263 $162 $164 $258 reversed $96 $-1 #
edge $-1 $260 -1.1055330204243026 $175 1.8944669795756974 $173 $340 forward 7 unknown #
coedge $-1 $164 $163 $341 $342 reversed $61 $-1 #
coedge $-1 $267 $266 $163 $257 forward $250 $-1 #
edge $-1 $343 -68.367564928128914 $259 68.367564928128914 $256 $344 forward 7 unknown #
edge $-1 $345 -68.367564928128914 $260 68.367564928128914 $253 $346 forward 7 unknown #
vertex $-1 $257 $347 #
vertex $-1 $166 $348 #
straight-curve $-1 68.367564928128914 -14.446383031513486 -0.71106604084860514 0 1 0 I I #
edge $-1 $268 -20.215411124955963 $264 -8.6773549380710104 $252 $349 forward 7 unknown #
coedge $-1 $168 $253 $338 $350 reversed $96 $-1 #
vertex $-1 $262 $351 #
straight-curve $-1 0 -23.123737969584496 2.2889339591513949 -1 0 0 I I #
coedge $-1 $256 $170 $339 $352 forward $250 $-1 #
coedge $-1 $170 $256 $172 $270 reversed $250 $-1 #
vertex $-1 $352 $353 #
straight-curve $-1 0 -34.661794156469448 2.2889339591513949 -1 0 0 I I #
edge $-1 $176 -2.2889339591513949 $259 0.71106604084860514 $172 $354 forward 7 unknown #
point $-1 68.367564928128914 -23.123737969584496 2.2889339591513949 #
point $-1 68.367564928128914 -34.661794156469448 2.2889339591513949 #
plane-surface $-1 68.367564928128914 0 0 -1 0 0 0 0 1 forward_v I I I I #
coedge $-1 $284 $283 $276 $355 forward $179 $-1 #
coedge $-1 $276 $181 $183 $280 reversed $104 $-1 #
coedge $-1 $181 $275 $274 $355 reversed $104 $-1 #
coedge $-1 $189 $184 $181 $278 forward $190 $-1 #
edge $-1 $281 -93.138167634966138 $356 -86.85118888703316 $277 $357 forward 7 unknown #
coedge $-1 $183 $182 $284 $358 reversed $65 $-1 #
edge $-1 $359 128.52806205960852 $281 136.73512985625788 $275 $360 forward 7 unknown #
vertex $-1 $185 $361 #
straight-curve $-1 68.3675649281289 0.36302099800682797 6.3604981988172398 0 1 0 I I #
coedge $-1 $274 $186 $189 $288 forward $179 $-1 #
coedge $-1 $186 $274 $279 $358 forward $179 $-1 #
vertex $-1 $187 $362 #
straight-curve $-1 42.610553268302731 -7.1535465898012571 12.647476946750217 1 0 0 I I #
straight-curve $-1 -19.524081002007577 -7.1535465898012571 111.10568573743029 -0.64278759981090561 0 0.7660444514056185 I I #
edge $-1 $191 -7.1535465898012571 $356 8.605630581828569 $189 $363 forward 7 unknown #
point $-1 68.367564928128914 -7.1535465898012571 12.647476946750217 #
point $-1 68.3675649281289 -7.1535465898012571 6.3604981988172398 #
edge $-1 $364 1 $364 0 $194 $-1 forward 7 unknown #
vertex $-1 $195 $365 #
ellipse-curve $-1 62.896432556221804 -2.6509245407641586 7.1264561685696766 0.7660444514056185 0 0.64278759981090561 0.64278759981090561 0 -0.7660444514056185 1 I I #
point $-1 66.372651822693015 -2.6509245407641586 8.7379431213781178 #
edge $-1 $366 1 $366 0 $198 $-1 forward 7 unknown #
vertex $-1 $199 $367 #
ellipse-curve $-1 62.896432556221804 4.1030085327914847 7.1264561685696766 0.7660444514056185 0 0.64278759981090561 0.64278759981090561 0 -0.7660444514056185 1 I I #
point $-1 66.372651822693015 4.1030085327914847 8.7379431213781178 #
plane-surface $-1 0 0 12.647476946750217 0 0 1 1 0 0 forward_v I I I I #
coedge $-1 $310 $309 $302 $368 forward $203 $-1 #
coedge $-1 $302 $205 $207 $306 reversed $126 $-1 #
coedge $-1 $205 $301 $300 $368 reversed $126 $-1 #
coedge $-1 $213 $208 $205 $304 forward $214 $-1 #
edge $-1 $307 -22.994713184126667 $369 -14.995728604250232 $303 $370 forward 7 unknown #
coedge $-1 $207 $206 $310 $371 reversed $79 $-1 #
edge $-1 $372 2.0733024663016622e-014 $307 11.514990703751176 $301 $373 forward 7 unknown #
vertex $-1 $209 $374 #
straight-curve $-1 -60.368580348252486 8.4379514948095178 12.647476946750219 0 1 0 I I #
coedge $-1 $300 $210 $213 $314 reversed $203 $-1 #
coedge $-1 $210 $300 $305 $371 forward $203 $-1 #
vertex $-1 $211 $375 #
straight-curve $-1 -68.367564928128914 9.2300018968716842 49.674243531006425 0 0 1 I I #
straight-curve $-1 -68.367564928128928 9.2300018968716842 4.3642857381413762 -0.69465836192734942 0 -0.71933980857756763 I I #
edge $-1 $369 -24.521804082366387 $215 -9.2300018968716842 $309 $376 forward 7 unknown #
point $-1 -68.367564928128914 9.2300018968716842 12.647476946750217 #
point $-1 -60.368580348252479 9.2300018968716842 12.647476946750217 #
edge $-1 $377 1 $377 0 $218 $-1 forward 7 unknown #
vertex $-1 $219 $378 #
ellipse-curve $-1 -60.108760800652846 16.875902989619036 4.3927118101596427 -0.71933980857756763 0 0.69465836192734942 1.3893167238546988 0 1.4386796171551353 1 I I #
point $-1 -62.978755914335991 16.875902989619036 9.9445609596009348 #
plane-surface $-1 68.367564928128914 0 0 -1 0 0 0 0 1 forward_v I I I I #
coedge $-1 $227 $225 $229 $326 reversed $141 $-1 #
edge $-1 $240 -12.647476946750217 $328 12.647476946750217 $239 $379 forward 7 unknown #
vertex $-1 $326 $380 #
straight-curve $-1 -68.367564928128914 -34.661794156469448 0 0 0 -1 I I #
edge $-1 $324 -34.661794156469448 $328 34.661794156469448 $322 $381 forward 7 unknown #
straight-curve $-1 0 -34.661794156469448 -12.647476946750217 -1 0 0 I I #
vertex $-1 $232 $382 #
straight-curve $-1 0 34.661794156469448 -12.647476946750217 1 0 0 I I #
point $-1 68.367564928128914 34.661794156469448 -12.647476946750217 #
point $-1 68.367564928128914 -34.661794156469448 -12.647476946750217 #
straight-curve $-1 -68.367564928128914 0 12.647476946750217 0 -1 0 I I #
point $-1 -68.367564928128914 34.661794156469448 12.647476946750217 #
point $-1 -68.367564928128914 -34.661794156469448 12.647476946750217 #
straight-curve $-1 68.367564928128914 -34.661794156469448 0 0 0 -1 I I #
straight-curve $-1 68.367564928128914 34.661794156469448 0 0 0 -1 I I #
plane-surface $-1 68.367564928128914 0 0 -1 0 0 0 0 1 forward_v I I I I #
coedge $-1 $341 $252 $263 $350 forward $160 $-1 #
coedge $-1 $252 $341 $266 $352 reversed $160 $-1 #
straight-curve $-1 68.367564928128914 -23.123737969584496 0.39446697957569743 0 0 1 I I #
coedge $-1 $339 $338 $255 $342 forward $160 $-1 #
edge $-1 $345 8.6773549380710104 $343 20.215411124955963 $341 $383 forward 7 unknown #
vertex $-1 $257 $384 #
straight-curve $-1 0 -34.661794156469448 -0.71106604084860514 1 0 0 I I #
vertex $-1 $342 $385 #
straight-curve $-1 0 -23.123737969584496 -0.71106604084860514 1 0 0 I I #
point $-1 68.367564928128914 -34.661794156469448 -0.71106604084860514 #
point $-1 68.367564928128914 -23.123737969584496 -0.71106604084860514 #
straight-curve $-1 -68.367564928128914 -14.446383031513486 2.2889339591513949 0 1 0 I I #
edge $-1 $264 -1.8944669795756974 $345 1.1055330204243026 $338 $386 forward 7 unknown #
point $-1 -68.367564928128914 -23.123737969584496 2.2889339591513949 #
edge $-1 $268 -2.2889339591513949 $343 0.71106604084860514 $339 $387 forward 7 unknown #
point $-1 -68.367564928128914 -34.661794156469448 2.2889339591513949 #
straight-curve $-1 68.367564928128914 -34.661794156469448 0 0 0 -1 I I #
edge $-1 $356 -25.757011659826183 $359 -20.481610249332554 $274 $388 forward 7 unknown #
vertex $-1 $355 $389 #
straight-curve $-1 68.367564928128914 8.605630581828569 99.498665833783377 0 0 1 I I #
edge $-1 $359 -8.242609583821741 $285 7.5165675878080851 $284 $390 forward 7 unknown #
vertex $-1 $358 $391 #
straight-curve $-1 -19.524081002007577 8.605630581828569 111.10568573743029 0.64278759981090561 0 -0.7660444514056185 I I #
point $-1 68.3675649281289 8.605630581828569 6.3604981988172398 #
point $-1 63.092163517635285 -7.1535465898012571 12.647476946750231 #
straight-curve $-1 68.367564928128914 0 12.647476946750217 0 1 0 I I #
vertex $-1 $291 $392 #
point $-1 63.539220156032712 -2.6509245407641586 6.360411717164058 #
vertex $-1 $295 $393 #
point $-1 63.539220156032712 4.1030085327914847 6.360411717164058 #
edge $-1 $369 37.026766584256208 $372 45.309957792865035 $300 $394 forward 7 unknown #
vertex $-1 $314 $395 #
straight-curve $-1 -83.363293532379146 24.521804082366387 12.647476946750217 -1 0 0 I I #
edge $-1 $372 -16.083852587556869 $311 -0.79205040206216637 $310 $396 forward 7 unknown #
vertex $-1 $371 $397 #
straight-curve $-1 -68.367564928128928 24.521804082366387 4.3642857381413762 0.69465836192734942 0 0.71933980857756763 I I #
point $-1 -60.368580348252479 24.521804082366387 12.647476946750217 #
point $-1 -68.367564928128914 9.2300018968716842 4.3642857381413913 #
straight-curve $-1 -68.367564928128914 0 12.647476946750217 0 -1 0 I I #
vertex $-1 $317 $398 #
point $-1 -58.719444076798148 16.875902989619036 5.8313914273147782 #
straight-curve $-1 -68.367564928128914 34.661794156469448 0 0 0 -1 I I #
point $-1 -68.367564928128914 -34.661794156469448 -12.647476946750217 #
straight-curve $-1 -68.367564928128914 0 -12.647476946750217 0 1 0 I I #
point $-1 -68.367564928128914 34.661794156469448 -12.647476946750217 #
straight-curve $-1 -68.367564928128914 -14.446383031513486 -0.71106604084860514 0 -1 0 I I #
point $-1 -68.367564928128914 -34.661794156469448 -0.71106604084860514 #
point $-1 -68.367564928128914 -23.123737969584496 -0.71106604084860514 #
straight-curve $-1 -68.367564928128914 -23.123737969584496 0.39446697957569743 0 0 -1 I I #
straight-curve $-1 -68.367564928128914 -34.661794156469448 0 0 0 -1 I I #
straight-curve $-1 42.610553268302731 8.605630581828569 12.647476946750217 -1 0 0 I I #
point $-1 68.367564928128914 8.605630581828569 12.647476946750217 #
straight-curve $-1 63.092163517635292 0.36302099800682797 12.647476946750217 0 -1 0 I I #
point $-1 63.092163517635285 8.605630581828569 12.647476946750231 #
point $-1 62.130388104816184 -2.6509245407641586 6.4836685687587714 #
point $-1 62.130388104816184 4.1030085327914847 6.4836685687587714 #
straight-curve $-1 -68.367564928128914 24.521804082366387 49.674243531006425 0 0 -1 I I #
point $-1 -68.367564928128914 24.521804082366387 12.647476946750217 #
straight-curve $-1 -68.367564928128914 8.4379514948095178 4.3642857381413975 0 -1 0 I I #
point $-1 -68.367564928128914 24.521804082366387 4.3642857381413913 #
point $-1 -58.670081183497715 16.875902989619036 3.0033950863049443 #
End-of-ACIS-data 