500 0 14 0           
7 Unknown 11 ACIS 5.0 NT 24 Fri Mar 26 18:55:11 1999 
-1 9.9999999999999995e-007 1e-010 
body $-1 $14 $-1 $15 #
body $-1 $16 $-1 $17 #
body $-1 $18 $-1 $19 #
body $-1 $20 $-1 $21 #
body $-1 $22 $-1 $23 #
body $-1 $24 $-1 $25 #
body $-1 $26 $-1 $27 #
body $-1 $28 $-1 $29 #
body $-1 $30 $-1 $31 #
body $-1 $32 $-1 $33 #
body $-1 $34 $-1 $35 #
body $-1 $36 $-1 $37 #
body $-1 $38 $-1 $39 #
body $-1 $40 $-1 $41 #
lump $-1 $-1 $42 $0 #
transform $-1 1 0 0 0 1 0 0 0 1 61.826837977233197 30.483591610729892 10.342856474240874 1 rotate no_reflect no_shear #
lump $-1 $-1 $43 $1 #
transform $-1 1 0 0 0 1 0 0 0 1 61.826837977233197 30.483591610729892 10.342856474240874 1 rotate no_reflect no_shear #
lump $-1 $-1 $44 $2 #
transform $-1 1 0 0 0 1 0 0 0 1 61.826837977233197 30.483591610729892 10.342856474240874 1 rotate no_reflect no_shear #
lump $-1 $-1 $45 $3 #
transform $-1 1 0 0 0 1 0 0 0 1 61.826837977233197 30.483591610729892 10.342856474240874 1 rotate no_reflect no_shear #
lump $-1 $-1 $46 $4 #
transform $-1 1 0 0 0 1 0 0 0 1 61.826837977233197 30.483591610729892 10.342856474240874 1 rotate no_reflect no_shear #
lump $-1 $-1 $47 $5 #
transform $-1 1 0 0 0 1 0 0 0 1 61.826837977233197 30.483591610729892 10.342856474240874 1 rotate no_reflect no_shear #
lump $-1 $-1 $48 $6 #
transform $-1 1 0 0 0 1 0 0 0 1 61.826837977233197 30.483591610729892 10.342856474240874 1 rotate no_reflect no_shear #
lump $-1 $-1 $49 $7 #
transform $-1 1 0 0 0 1 0 0 0 1 61.826837977233197 30.483591610729892 10.342856474240874 1 rotate no_reflect no_shear #
lump $-1 $-1 $50 $8 #
transform $-1 1 0 0 0 1 0 0 0 1 61.826837977233197 30.483591610729892 10.342856474240874 1 rotate no_reflect no_shear #
lump $-1 $-1 $51 $9 #
transform $-1 1 0 0 0 1 0 0 0 1 61.826837977233197 30.483591610729892 10.342856474240874 1 rotate no_reflect no_shear #
lump $-1 $-1 $52 $10 #
transform $-1 1 0 0 0 1 0 0 0 1 61.826837977233197 30.483591610729892 10.342856474240874 1 rotate no_reflect no_shear #
lump $-1 $-1 $53 $11 #
transform $-1 1 0 0 0 1 0 0 0 1 61.826837977233197 30.483591610729892 10.342856474240874 1 rotate no_reflect no_shear #
lump $-1 $-1 $54 $12 #
transform $-1 1 0 0 0 1 0 0 0 1 61.826837977233197 30.483591610729892 10.342856474240874 1 rotate no_reflect no_shear #
lump $-1 $-1 $55 $13 #
transform $-1 1 0 0 0 1 0 0 0 1 61.826837977233197 30.483591610729892 10.342856474240874 1 rotate no_reflect no_shear #
shell $-1 $-1 $-1 $56 $-1 $14 #
shell $-1 $-1 $-1 $57 $-1 $16 #
shell $-1 $-1 $-1 $58 $-1 $18 #
shell $-1 $-1 $-1 $59 $-1 $20 #
shell $-1 $-1 $-1 $60 $-1 $22 #
shell $-1 $-1 $-1 $61 $-1 $24 #
shell $-1 $-1 $-1 $62 $-1 $26 #
shell $-1 $-1 $-1 $63 $-1 $28 #
shell $-1 $-1 $-1 $64 $-1 $30 #
shell $-1 $-1 $-1 $65 $-1 $32 #
shell $-1 $-1 $-1 $66 $-1 $34 #
shell $-1 $-1 $-1 $67 $-1 $36 #
shell $-1 $-1 $-1 $68 $-1 $38 #
shell $-1 $-1 $-1 $69 $-1 $40 #
face $-1 $70 $71 $42 $-1 $72 forward single #
face $-1 $73 $74 $43 $-1 $75 forward single #
face $-1 $76 $77 $44 $-1 $78 reversed single #
face $-1 $79 $80 $45 $-1 $81 forward single #
face $-1 $82 $83 $46 $-1 $84 forward single #
face $-1 $85 $86 $47 $-1 $87 reversed single #
face $-1 $88 $89 $48 $-1 $90 forward single #
face $-1 $91 $92 $49 $-1 $93 forward single #
face $-1 $94 $95 $50 $-1 $96 reversed single #
face $-1 $97 $98 $51 $-1 $99 forward single #
face $-1 $100 $101 $52 $-1 $102 forward single #
face $-1 $103 $104 $53 $-1 $105 reversed single #
face $-1 $106 $107 $54 $-1 $108 forward single #
face $-1 $109 $110 $55 $-1 $111 forward single #
face $-1 $112 $113 $42 $-1 $114 reversed single #
loop $-1 $-1 $115 $56 #
plane-surface $-1 0 0 10.342856474240874 0 0 1 1 0 0 forward_v I I I I #
face $-1 $116 $117 $43 $-1 $118 reversed single #
loop $-1 $-1 $119 $57 #
plane-surface $-1 -57.928811800192761 0 -5.9451775603818486 0 0 1 1 0 0 forward_v I I I I #
face $-1 $120 $121 $44 $-1 $122 reversed single #
loop $-1 $-1 $123 $58 #
plane-surface $-1 -44.935200205194583 65.595186341452688 134.43016914172352 1 0 0 0 -0.6560590369687036 -0.75470957328743171 forward_v I I I I #
face $-1 $124 $125 $45 $-1 $126 forward single #
loop $-1 $127 $128 $59 #
cone-surface $-1 -39.258394353154969 22.270971805183926 2.3881117760275412 0 -0.6560590369687036 -0.75470957328743171 2.5 0 0 1 I I 0 1 2.5 forward I I I I #
face $-1 $129 $130 $46 $-1 $131 forward single #
loop $-1 $132 $133 $60 #
cone-surface $-1 -30.743185575095559 22.270971805183926 2.3881117760275412 0 -0.6560590369687036 -0.75470957328743171 2.5 0 0 1 I I 0 1 2.5 forward I I I I #
face $-1 $134 $135 $47 $-1 $136 reversed single #
loop $-1 $-1 $137 $61 #
plane-surface $-1 -15.970794305098201 65.595186341452688 134.43016914172352 1 0 0 0 -0.6560590369687036 -0.75470957328743171 forward_v I I I I #
face $-1 $138 $139 $48 $-1 $140 forward single #
loop $-1 $141 $142 $62 #
cone-surface $-1 -10.293988453058589 22.270971805183926 2.3881117760275412 0 -0.6560590369687036 -0.75470957328743171 2.5 0 0 1 I I 0 1 2.5 forward I I I I #
face $-1 $143 $144 $49 $-1 $145 forward single #
loop $-1 $146 $147 $63 #
cone-surface $-1 -1.7787796749991784 22.270971805183926 2.3881117760275412 0 -0.6560590369687036 -0.75470957328743171 2.5 0 0 1 I I 0 1 2.5 forward I I I I #
face $-1 $148 $149 $50 $-1 $150 reversed single #
loop $-1 $-1 $151 $64 #
plane-surface $-1 12.993611594998187 65.595186341452688 134.43016914172352 1 0 0 0 -0.6560590369687036 -0.75470957328743171 forward_v I I I I #
face $-1 $152 $153 $51 $-1 $154 forward single #
loop $-1 $155 $156 $65 #
cone-surface $-1 18.670417447037792 22.270971805183926 2.3881117760275412 0 -0.6560590369687036 -0.75470957328743171 2.5 0 0 1 I I 0 1 2.5 forward I I I I #
face $-1 $157 $158 $52 $-1 $159 forward single #
loop $-1 $160 $161 $66 #
cone-surface $-1 27.185626225097195 22.270971805183926 2.3881117760275412 0 -0.6560590369687036 -0.75470957328743171 2.5 0 0 1 I I 0 1 2.5 forward I I I I #
face $-1 $162 $163 $53 $-1 $164 reversed single #
loop $-1 $-1 $165 $67 #
plane-surface $-1 41.958017495094566 65.595186341452688 134.43016914172352 1 0 0 0 -0.6560590369687036 -0.75470957328743171 forward_v I I I I #
face $-1 $166 $167 $54 $-1 $168 forward single #
loop $-1 $169 $170 $68 #
cone-surface $-1 47.634823347134173 22.270971805183926 2.3881117760275412 0 -0.6560590369687036 -0.75470957328743171 2.5 0 0 1 I I 0 1 2.5 forward I I I I #
face $-1 $171 $172 $55 $-1 $173 forward single #
loop $-1 $174 $175 $69 #
cone-surface $-1 56.150032125193576 22.270971805183926 2.3881117760275412 0 -0.6560590369687036 -0.75470957328743171 2.5 0 0 1 I I 0 1 2.5 forward I I I I #
face $-1 $176 $177 $42 $-1 $178 reversed single #
loop $-1 $-1 $179 $70 #
plane-surface $-1 0 0 -10.342856474240874 0 0 1 1 0 0 forward_v I I I I #
coedge $-1 $180 $181 $182 $183 forward $71 $-1 #
face $-1 $184 $185 $43 $-1 $186 reversed single #
loop $-1 $-1 $187 $73 #
plane-surface $-1 -54.030785623152326 0 -8.1440170173113611 -1 0 0 0 0 1 forward_v I I I I #
coedge $-1 $188 $189 $190 $191 forward $74 $-1 #
face $-1 $192 $193 $44 $-1 $194 reversed single #
loop $-1 $-1 $195 $76 #
plane-surface $-1 -35.000789964125268 -15.528925222874676 41.10755612670583 0 0.6560590369687036 0.75470957328743171 1 0 0 forward_v I I I I #
coedge $-1 $196 $197 $198 $199 reversed $77 $-1 #
face $-1 $-1 $200 $45 $-1 $201 forward single #
loop $-1 $202 $203 $79 #
cone-surface $-1 -39.258394353154969 18.549167729109715 -1.8933339595448597 0 -0.6560590369687036 -0.75470957328743171 1.25 0 0 1 I I -0.70710678118654746 0.70710678118654746 1.25 forward I I I I #
loop $-1 $-1 $204 $59 #
coedge $-1 $128 $128 $205 $206 reversed $80 $-1 #
face $-1 $-1 $207 $46 $-1 $208 forward single #
loop $-1 $209 $210 $82 #
cone-surface $-1 -30.743185575095559 18.549167729109715 -1.8933339595448597 0 -0.6560590369687036 -0.75470957328743171 1.25 0 0 1 I I -0.70710678118654746 0.70710678118654746 1.25 forward I I I I #
loop $-1 $-1 $211 $60 #
coedge $-1 $133 $133 $212 $213 reversed $83 $-1 #
face $-1 $214 $215 $47 $-1 $216 reversed single #
loop $-1 $-1 $217 $85 #
plane-surface $-1 -6.0363840640288871 -15.528925222874676 41.10755612670583 0 0.6560590369687036 0.75470957328743171 1 0 0 forward_v I I I I #
coedge $-1 $218 $219 $220 $221 reversed $86 $-1 #
face $-1 $-1 $222 $48 $-1 $223 forward single #
loop $-1 $224 $225 $88 #
cone-surface $-1 -10.293988453058589 18.549167729109715 -1.8933339595448597 0 -0.6560590369687036 -0.75470957328743171 1.25 0 0 1 I I -0.70710678118654746 0.70710678118654746 1.25 forward I I I I #
loop $-1 $-1 $226 $62 #
coedge $-1 $142 $142 $227 $228 reversed $89 $-1 #
face $-1 $-1 $229 $49 $-1 $230 forward single #
loop $-1 $231 $232 $91 #
cone-surface $-1 -1.7787796749991784 18.549167729109715 -1.8933339595448597 0 -0.6560590369687036 -0.75470957328743171 1.25 0 0 1 I I -0.70710678118654746 0.70710678118654746 1.25 forward I I I I #
loop $-1 $-1 $233 $63 #
coedge $-1 $147 $147 $234 $235 reversed $92 $-1 #
face $-1 $236 $237 $50 $-1 $238 reversed single #
loop $-1 $-1 $239 $94 #
plane-surface $-1 22.928021836067501 -15.528925222874676 41.10755612670583 0 0.6560590369687036 0.75470957328743171 1 0 0 forward_v I I I I #
coedge $-1 $240 $241 $242 $243 reversed $95 $-1 #
face $-1 $-1 $244 $51 $-1 $245 forward single #
loop $-1 $246 $247 $97 #
cone-surface $-1 18.670417447037792 18.549167729109715 -1.8933339595448597 0 -0.6560590369687036 -0.75470957328743171 1.25 0 0 1 I I -0.70710678118654746 0.70710678118654746 1.25 forward I I I I #
loop $-1 $-1 $248 $65 #
coedge $-1 $156 $156 $249 $250 reversed $98 $-1 #
face $-1 $-1 $251 $52 $-1 $252 forward single #
loop $-1 $253 $254 $100 #
cone-surface $-1 27.185626225097195 18.549167729109715 -1.8933339595448597 0 -0.6560590369687036 -0.75470957328743171 1.25 0 0 1 I I -0.70710678118654746 0.70710678118654746 1.25 forward I I I I #
loop $-1 $-1 $255 $66 #
coedge $-1 $161 $161 $256 $257 reversed $101 $-1 #
face $-1 $258 $259 $53 $-1 $260 forward single #
loop $-1 $-1 $261 $103 #
plane-surface $-1 51.892427736163881 -15.528925222874676 41.10755612670583 0 0.6560590369687036 0.75470957328743171 1 0 0 forward_v I I I I #
coedge $-1 $262 $263 $264 $265 reversed $104 $-1 #
face $-1 $-1 $266 $54 $-1 $267 forward single #
loop $-1 $268 $269 $106 #
cone-surface $-1 47.634823347134173 18.549167729109715 -1.8933339595448597 0 -0.6560590369687036 -0.75470957328743171 1.25 0 0 1 I I -0.70710678118654746 0.70710678118654746 1.25 forward I I I I #
loop $-1 $-1 $270 $68 #
coedge $-1 $170 $170 $271 $272 reversed $107 $-1 #
face $-1 $-1 $273 $55 $-1 $274 forward single #
loop $-1 $275 $276 $109 #
cone-surface $-1 56.150032125193576 18.549167729109715 -1.8933339595448597 0 -0.6560590369687036 -0.75470957328743171 1.25 0 0 1 I I -0.70710678118654746 0.70710678118654746 1.25 forward I I I I #
loop $-1 $-1 $277 $69 #
coedge $-1 $175 $175 $278 $279 reversed $110 $-1 #
face $-1 $280 $281 $42 $-1 $282 reversed single #
loop $-1 $-1 $283 $112 #
plane-surface $-1 0 -30.483591610729892 0 0 1 0 0 0 1 forward_v I I I I #
coedge $-1 $284 $285 $286 $287 forward $113 $-1 #
coedge $-1 $288 $115 $289 $290 forward $71 $-1 #
coedge $-1 $115 $288 $291 $292 forward $71 $-1 #
coedge $-1 $293 $294 $115 $183 reversed $295 $-1 #
edge $-1 $296 -30.483591610729892 $297 30.483591610729892 $182 $298 forward 7 unknown #
face $-1 $299 $300 $43 $-1 $301 reversed single #
loop $-1 $-1 $302 $116 #
plane-surface $-1 0 0 -10.342856474240874 0 0 1 1 0 0 forward_v I I I I #
coedge $-1 $303 $190 $304 $305 reversed $117 $-1 #
coedge $-1 $306 $119 $307 $308 reversed $74 $-1 #
coedge $-1 $119 $306 $309 $310 reversed $74 $-1 #
coedge $-1 $187 $311 $119 $191 reversed $117 $-1 #
edge $-1 $312 -30.483591610729892 $313 30.483591610729892 $190 $314 forward 7 unknown #
face $-1 $315 $316 $44 $-1 $317 reversed single #
loop $-1 $-1 $318 $120 #
plane-surface $-1 -25.066379723055952 65.595186341452688 134.43016914172352 -1 0 0 0 0.6560590369687036 0.75470957328743171 forward_v I I I I #
coedge $-1 $319 $320 $321 $322 reversed $121 $-1 #
coedge $-1 $197 $123 $323 $324 reversed $77 $-1 #
coedge $-1 $123 $196 $319 $325 reversed $77 $-1 #
coedge $-1 $321 $326 $123 $199 forward $327 $-1 #
edge $-1 $328 2.3140015599964521 $329 12.935780611361722 $198 $330 forward 7 unknown #
loop $-1 $-1 $205 $124 #
plane-surface $-1 -35.000789964125268 -15.528925222874676 41.10755612670583 0 0.6560590369687036 0.75470957328743171 1 0 0 forward_v I I I I #
loop $-1 $-1 $331 $79 #
coedge $-1 $203 $203 $204 $332 reversed $125 $-1 #
coedge $-1 $204 $204 $203 $332 forward $127 $-1 #
coedge $-1 $205 $205 $128 $206 forward $200 $-1 #
edge $-1 $333 8.3942781834203941e-016 $333 6.2831853071796013 $205 $334 forward 7 unknown #
loop $-1 $-1 $212 $129 #
plane-surface $-1 -35.000789964125268 -15.528925222874676 41.10755612670583 0 0.6560590369687036 0.75470957328743171 1 0 0 forward_v I I I I #
loop $-1 $-1 $335 $82 #
coedge $-1 $210 $210 $211 $336 reversed $130 $-1 #
coedge $-1 $211 $211 $210 $336 forward $132 $-1 #
coedge $-1 $212 $212 $133 $213 forward $207 $-1 #
edge $-1 $337 8.3942781834203941e-016 $337 6.2831853071796013 $212 $338 forward 7 unknown #
face $-1 $339 $340 $47 $-1 $341 forward single #
loop $-1 $-1 $342 $134 #
plane-surface $-1 3.8980261770404265 65.595186341452688 134.43016914172352 -1 0 0 0 0.6560590369687036 0.75470957328743171 forward_v I I I I #
coedge $-1 $343 $344 $345 $346 reversed $135 $-1 #
coedge $-1 $219 $137 $347 $348 reversed $86 $-1 #
coedge $-1 $137 $218 $343 $349 reversed $86 $-1 #
coedge $-1 $345 $350 $137 $221 forward $340 $-1 #
edge $-1 $351 2.3140015599964521 $352 12.935780611361722 $220 $353 forward 7 unknown #
loop $-1 $-1 $227 $138 #
plane-surface $-1 -6.0363840640288871 -15.528925222874676 41.10755612670583 0 0.6560590369687036 0.75470957328743171 1 0 0 forward_v I I I I #
loop $-1 $-1 $354 $88 #
coedge $-1 $225 $225 $226 $355 reversed $139 $-1 #
coedge $-1 $226 $226 $225 $355 forward $141 $-1 #
coedge $-1 $227 $227 $142 $228 forward $222 $-1 #
edge $-1 $356 8.3942781834203941e-016 $356 6.2831853071796013 $227 $357 forward 7 unknown #
loop $-1 $-1 $234 $143 #
plane-surface $-1 -6.0363840640288871 -15.528925222874676 41.10755612670583 0 0.6560590369687036 0.75470957328743171 1 0 0 forward_v I I I I #
loop $-1 $-1 $358 $91 #
coedge $-1 $232 $232 $233 $359 reversed $144 $-1 #
coedge $-1 $233 $233 $232 $359 forward $146 $-1 #
coedge $-1 $234 $234 $147 $235 forward $229 $-1 #
edge $-1 $360 8.3942781834203941e-016 $360 6.2831853071796013 $234 $361 forward 7 unknown #
face $-1 $362 $363 $50 $-1 $364 forward single #
loop $-1 $-1 $365 $148 #
plane-surface $-1 32.862432077136816 65.595186341452688 134.43016914172352 -1 0 0 0 0.6560590369687036 0.75470957328743171 forward_v I I I I #
coedge $-1 $366 $367 $368 $369 reversed $149 $-1 #
coedge $-1 $241 $151 $370 $371 reversed $95 $-1 #
coedge $-1 $151 $240 $366 $372 reversed $95 $-1 #
coedge $-1 $368 $373 $151 $243 forward $363 $-1 #
edge $-1 $374 2.3140015599964521 $375 12.935780611361722 $242 $376 forward 7 unknown #
loop $-1 $-1 $249 $152 #
plane-surface $-1 22.928021836067501 -15.528925222874676 41.10755612670583 0 0.6560590369687036 0.75470957328743171 1 0 0 forward_v I I I I #
loop $-1 $-1 $377 $97 #
coedge $-1 $247 $247 $248 $378 reversed $153 $-1 #
coedge $-1 $248 $248 $247 $378 forward $155 $-1 #
coedge $-1 $249 $249 $156 $250 forward $244 $-1 #
edge $-1 $379 8.3942781834203941e-016 $379 6.2831853071796013 $249 $380 forward 7 unknown #
loop $-1 $-1 $256 $157 #
plane-surface $-1 22.928021836067501 -15.528925222874676 41.10755612670583 0 0.6560590369687036 0.75470957328743171 1 0 0 forward_v I I I I #
loop $-1 $-1 $381 $100 #
coedge $-1 $254 $254 $255 $382 reversed $158 $-1 #
coedge $-1 $255 $255 $254 $382 forward $160 $-1 #
coedge $-1 $256 $256 $161 $257 forward $251 $-1 #
edge $-1 $383 8.3942781834203941e-016 $383 6.2831853071796013 $256 $384 forward 7 unknown #
face $-1 $385 $386 $53 $-1 $387 reversed single #
loop $-1 $-1 $264 $162 #
plane-surface $-1 0 0 10.342856474240874 0 0 1 1 0 0 forward_v I I I I #
coedge $-1 $388 $389 $390 $391 reversed $163 $-1 #
coedge $-1 $263 $165 $392 $393 reversed $104 $-1 #
coedge $-1 $165 $262 $388 $394 reversed $104 $-1 #
coedge $-1 $390 $395 $165 $265 forward $259 $-1 #
edge $-1 $396 2.3140015599964521 $397 12.935780611361722 $264 $398 forward 7 unknown #
loop $-1 $-1 $271 $166 #
plane-surface $-1 51.892427736163881 -15.528925222874676 41.10755612670583 0 0.6560590369687036 0.75470957328743171 1 0 0 forward_v I I I I #
loop $-1 $-1 $399 $106 #
coedge $-1 $269 $269 $270 $400 reversed $167 $-1 #
coedge $-1 $270 $270 $269 $400 forward $169 $-1 #
coedge $-1 $271 $271 $170 $272 forward $266 $-1 #
edge $-1 $401 8.3942781834203941e-016 $401 6.2831853071796013 $271 $402 forward 7 unknown #
loop $-1 $-1 $278 $171 #
plane-surface $-1 51.892427736163881 -15.528925222874676 41.10755612670583 0 0.6560590369687036 0.75470957328743171 1 0 0 forward_v I I I I #
loop $-1 $-1 $403 $109 #
coedge $-1 $276 $276 $277 $404 reversed $172 $-1 #
coedge $-1 $277 $277 $276 $404 forward $174 $-1 #
coedge $-1 $278 $278 $175 $279 forward $273 $-1 #
edge $-1 $405 8.3942781834203941e-016 $405 6.2831853071796013 $278 $406 forward 7 unknown #
face $-1 $407 $408 $42 $-1 $409 reversed single #
loop $-1 $-1 $410 $176 #
plane-surface $-1 -61.826837977233197 0 0 1 0 0 0 0 -1 forward_v I I I I #
coedge $-1 $411 $291 $412 $413 forward $177 $-1 #
coedge $-1 $414 $179 $411 $415 forward $113 $-1 #
coedge $-1 $179 $414 $416 $417 forward $113 $-1 #
coedge $-1 $294 $293 $179 $287 reversed $295 $-1 #
edge $-1 $418 -30.483591610729892 $419 30.483591610729892 $286 $420 forward 7 unknown #
coedge $-1 $181 $180 $421 $422 forward $71 $-1 #
coedge $-1 $423 $424 $180 $290 reversed $408 $-1 #
edge $-1 $297 -61.826837977233197 $425 61.826837977233197 $289 $426 forward 7 unknown #
coedge $-1 $283 $427 $181 $292 reversed $177 $-1 #
edge $-1 $428 -61.826837977233197 $296 61.826837977233197 $291 $429 forward 7 unknown #
coedge $-1 $286 $182 $427 $430 forward $295 $-1 #
coedge $-1 $182 $286 $423 $431 reversed $295 $-1 #
loop $-1 $-1 $293 $407 #
vertex $-1 $183 $432 #
vertex $-1 $183 $433 #
straight-curve $-1 61.826837977233197 0 10.342856474240874 0 1 0 I I #
face $-1 $434 $435 $43 $-1 $436 reversed single #
loop $-1 $-1 $304 $184 #
plane-surface $-1 0 -30.483591610729892 0 0 1 0 0 0 1 forward_v I I I I #
coedge $-1 $437 $438 $303 $439 forward $185 $-1 #
coedge $-1 $311 $187 $302 $439 reversed $117 $-1 #
coedge $-1 $309 $440 $187 $305 forward $300 $-1 #
edge $-1 $441 -6.270847965585193 $312 -1.8731690517261681 $304 $442 forward 7 unknown #
coedge $-1 $189 $188 $443 $444 reversed $74 $-1 #
coedge $-1 $445 $446 $188 $308 forward $447 $-1 #
edge $-1 $448 -32.862432077136816 $313 -25.066379723055945 $307 $449 forward 7 unknown #
coedge $-1 $450 $304 $189 $310 forward $300 $-1 #
edge $-1 $312 25.066379723055945 $451 32.862432077136816 $309 $452 forward 7 unknown #
coedge $-1 $190 $303 $445 $453 reversed $117 $-1 #
vertex $-1 $310 $454 #
vertex $-1 $308 $455 #
straight-curve $-1 -54.030785623152326 0 -5.9451775603818486 0 1 0 I I #
face $-1 $-1 $327 $44 $-1 $456 forward single #
loop $-1 $-1 $457 $192 #
plane-surface $-1 0 30.483591610729892 0 0 -1 0 0 0 -1 forward_v I I I I #
coedge $-1 $458 $459 $460 $461 reversed $193 $-1 #
coedge $-1 $462 $195 $197 $325 forward $121 $-1 #
coedge $-1 $195 $462 $458 $463 forward $121 $-1 #
coedge $-1 $460 $198 $195 $322 forward $327 $-1 #
edge $-1 $329 -27.434805223131949 $464 -7.5659847409933185 $321 $465 forward 7 unknown #
coedge $-1 $466 $467 $196 $324 forward $316 $-1 #
edge $-1 $468 -66.105599955121335 $328 -56.872228096620887 $323 $469 forward 7 unknown #
edge $-1 $329 46.89318783658878 $468 60.967183221459763 $197 $470 forward 7 unknown #
coedge $-1 $198 $460 $466 $471 forward $327 $-1 #
loop $-1 $-1 $460 $315 #
vertex $-1 $324 $472 #
vertex $-1 $199 $473 #
straight-curve $-1 -44.935200205194583 32.797593170726344 10.342856474240875 0 -1 0 I I #
coedge $-1 $331 $331 $-1 $474 reversed $202 $-1 #
edge $-1 $475 0 $475 6.2831853071796004 $203 $476 forward 7 unknown #
vertex $-1 $206 $477 #
ellipse-curve $-1 -39.258394353154969 25.172702085047256 5.7261705449906515 0 0.6560590369687036 0.75470957328743171 2.5 0 0 1 I I #
coedge $-1 $335 $335 $-1 $478 reversed $209 $-1 #
edge $-1 $479 0 $479 6.2831853071796004 $210 $480 forward 7 unknown #
vertex $-1 $213 $481 #
ellipse-curve $-1 -30.743185575095559 25.172702085047256 5.7261705449906515 0 0.6560590369687036 0.75470957328743171 2.5 0 0 1 I I #
face $-1 $-1 $482 $47 $-1 $483 reversed single #
loop $-1 $-1 $220 $214 #
plane-surface $-1 0 0 10.342856474240874 0 0 1 1 0 0 forward_v I I I I #
coedge $-1 $484 $485 $486 $487 reversed $215 $-1 #
coedge $-1 $488 $217 $219 $349 forward $135 $-1 #
coedge $-1 $217 $488 $484 $489 forward $135 $-1 #
coedge $-1 $486 $220 $217 $346 forward $340 $-1 #
edge $-1 $352 -12.952602273083757 $490 6.9162182090548701 $345 $491 forward 7 unknown #
coedge $-1 $492 $493 $218 $348 forward $482 $-1 #
edge $-1 $494 -66.105599955121335 $351 -56.872228096620887 $347 $495 forward 7 unknown #
edge $-1 $352 46.89318783658878 $494 60.967183221459763 $219 $496 forward 7 unknown #
coedge $-1 $220 $486 $492 $497 forward $340 $-1 #
vertex $-1 $221 $498 #
vertex $-1 $221 $499 #
straight-curve $-1 -15.970794305098201 32.797593170726344 10.342856474240875 0 -1 0 I I #
coedge $-1 $354 $354 $-1 $500 reversed $224 $-1 #
edge $-1 $501 0 $501 6.2831853071796004 $225 $502 forward 7 unknown #
vertex $-1 $228 $503 #
ellipse-curve $-1 -10.293988453058589 25.172702085047256 5.7261705449906515 0 0.6560590369687036 0.75470957328743171 2.5 0 0 1 I I #
coedge $-1 $358 $358 $-1 $504 reversed $231 $-1 #
edge $-1 $505 0 $505 6.2831853071796004 $232 $506 forward 7 unknown #
vertex $-1 $235 $507 #
ellipse-curve $-1 -1.7787796749991784 25.172702085047256 5.7261705449906515 0 0.6560590369687036 0.75470957328743171 2.5 0 0 1 I I #
face $-1 $-1 $508 $50 $-1 $509 reversed single #
loop $-1 $-1 $242 $236 #
plane-surface $-1 0 0 10.342856474240874 0 0 1 1 0 0 forward_v I I I I #
coedge $-1 $510 $511 $512 $513 reversed $237 $-1 #
coedge $-1 $514 $239 $241 $372 forward $149 $-1 #
coedge $-1 $239 $514 $510 $515 forward $149 $-1 #
coedge $-1 $512 $242 $239 $369 forward $363 $-1 #
edge $-1 $375 1.5296006769644368 $516 21.398421159103066 $368 $517 forward 7 unknown #
coedge $-1 $518 $519 $240 $371 forward $508 $-1 #
edge $-1 $520 -66.105599955121335 $374 -56.872228096620887 $370 $521 forward 7 unknown #
edge $-1 $375 46.89318783658878 $520 60.967183221459763 $241 $522 forward 7 unknown #
coedge $-1 $242 $512 $518 $523 forward $363 $-1 #
vertex $-1 $243 $524 #
vertex $-1 $243 $525 #
straight-curve $-1 12.993611594998187 32.797593170726344 10.342856474240875 0 -1 0 I I #
coedge $-1 $377 $377 $-1 $526 reversed $246 $-1 #
edge $-1 $527 0 $527 6.2831853071796004 $247 $528 forward 7 unknown #
vertex $-1 $250 $529 #
ellipse-curve $-1 18.670417447037792 25.172702085047256 5.7261705449906515 0 0.6560590369687036 0.75470957328743171 2.5 0 0 1 I I #
coedge $-1 $381 $381 $-1 $530 reversed $253 $-1 #
edge $-1 $531 0 $531 6.2831853071796004 $254 $532 forward 7 unknown #
vertex $-1 $257 $533 #
ellipse-curve $-1 27.185626225097195 25.172702085047256 5.7261705449906515 0 0.6560590369687036 0.75470957328743171 2.5 0 0 1 I I #
face $-1 $-1 $534 $53 $-1 $535 reversed single #
loop $-1 $-1 $536 $258 #
plane-surface $-1 61.826837977233197 0 0 -1 0 0 0 0 1 forward_v I I I I #
coedge $-1 $537 $261 $263 $394 forward $163 $-1 #
coedge $-1 $261 $537 $536 $538 reversed $163 $-1 #
coedge $-1 $539 $264 $261 $391 forward $259 $-1 #
edge $-1 $397 16.011803627012625 $540 35.880624109151256 $390 $541 forward 7 unknown #
coedge $-1 $542 $543 $262 $393 forward $534 $-1 #
edge $-1 $544 -66.105599955121335 $396 -56.872228096620887 $392 $545 forward 7 unknown #
edge $-1 $397 46.89318783658878 $544 60.967183221459763 $263 $546 forward 7 unknown #
coedge $-1 $264 $539 $542 $547 forward $259 $-1 #
vertex $-1 $393 $548 #
vertex $-1 $265 $549 #
straight-curve $-1 41.958017495094566 32.797593170726344 10.342856474240875 0 -1 0 I I #
coedge $-1 $399 $399 $-1 $550 reversed $268 $-1 #
edge $-1 $551 0 $551 6.2831853071796004 $269 $552 forward 7 unknown #
vertex $-1 $272 $553 #
ellipse-curve $-1 47.634823347134173 25.172702085047256 5.7261705449906515 0 0.6560590369687036 0.75470957328743171 2.5 0 0 1 I I #
coedge $-1 $403 $403 $-1 $554 reversed $275 $-1 #
edge $-1 $555 0 $555 6.2831853071796004 $276 $556 forward 7 unknown #
vertex $-1 $279 $557 #
ellipse-curve $-1 56.150032125193576 25.172702085047256 5.7261705449906515 0 0.6560590369687036 0.75470957328743171 2.5 0 0 1 I I #
face $-1 $-1 $295 $42 $-1 $558 reversed single #
loop $-1 $-1 $423 $280 #
plane-surface $-1 0 30.483591610729892 0 0 -1 0 0 0 -1 forward_v I I I I #
coedge $-1 $559 $421 $424 $560 forward $281 $-1 #
coedge $-1 $427 $283 $284 $415 reversed $177 $-1 #
coedge $-1 $421 $559 $283 $413 reversed $281 $-1 #
edge $-1 $428 -10.342856474240874 $561 10.342856474240874 $412 $562 forward 7 unknown #
coedge $-1 $285 $284 $559 $563 forward $113 $-1 #
edge $-1 $419 -61.826837977233197 $561 61.826837977233197 $411 $564 forward 7 unknown #
coedge $-1 $424 $423 $285 $417 reversed $408 $-1 #
edge $-1 $565 -61.826837977233197 $418 61.826837977233197 $416 $566 forward 7 unknown #
vertex $-1 $287 $567 #
vertex $-1 $430 $568 #
straight-curve $-1 61.826837977233197 0 -10.342856474240874 0 -1 0 I I #
coedge $-1 $410 $412 $288 $422 reversed $281 $-1 #
edge $-1 $425 -30.483591610729892 $428 30.483591610729892 $421 $569 forward 7 unknown #
coedge $-1 $416 $289 $294 $431 forward $408 $-1 #
coedge $-1 $289 $416 $410 $560 reversed $408 $-1 #
vertex $-1 $290 $570 #
straight-curve $-1 0 30.483591610729892 10.342856474240874 -1 0 0 I I #
coedge $-1 $291 $411 $293 $430 reversed $177 $-1 #
vertex $-1 $422 $571 #
straight-curve $-1 0 -30.483591610729892 10.342856474240874 1 0 0 I I #
edge $-1 $296 -10.342856474240874 $419 10.342856474240874 $293 $572 forward 7 unknown #
edge $-1 $297 -10.342856474240874 $418 10.342856474240874 $294 $573 forward 7 unknown #
point $-1 61.826837977233197 -30.483591610729892 10.342856474240874 #
point $-1 61.826837977233197 30.483591610729892 10.342856474240874 #
face $-1 $-1 $447 $43 $-1 $574 reversed single #
loop $-1 $-1 $443 $299 #
plane-surface $-1 -61.826837977233197 0 0 1 0 0 0 0 -1 forward_v I I I I #
coedge $-1 $575 $302 $440 $576 forward $185 $-1 #
coedge $-1 $302 $575 $577 $578 forward $185 $-1 #
edge $-1 $579 -30.483591610729892 $441 30.483591610729892 $302 $580 forward 7 unknown #
coedge $-1 $304 $450 $437 $576 reversed $300 $-1 #
vertex $-1 $576 $581 #
straight-curve $-1 -54.030785623152326 -30.483591610729892 -4.0720085086556805 0 0 1 I I #
coedge $-1 $582 $583 $306 $444 forward $435 $-1 #
edge $-1 $451 -30.483591610729892 $448 30.483591610729892 $443 $584 forward 7 unknown #
coedge $-1 $577 $307 $311 $453 forward $447 $-1 #
coedge $-1 $307 $577 $582 $585 reversed $447 $-1 #
loop $-1 $-1 $445 $434 #
vertex $-1 $585 $586 #
straight-curve $-1 -28.964405900096381 30.483591610729892 -5.9451775603818486 1 0 0 I I #
coedge $-1 $440 $309 $583 $587 forward $300 $-1 #
vertex $-1 $587 $588 #
straight-curve $-1 -28.964405900096381 -30.483591610729892 -5.9451775603818486 -1 0 0 I I #
edge $-1 $313 1.8731690517261681 $579 6.270847965585193 $445 $589 forward 7 unknown #
point $-1 -54.030785623152326 -30.483591610729892 -5.9451775603818486 #
point $-1 -54.030785623152326 30.483591610729892 -5.9451775603818486 #
plane-surface $-1 0 0 10.342856474240874 0 0 1 1 0 0 forward_v I I I I #
coedge $-1 $467 $466 $459 $590 forward $316 $-1 #
coedge $-1 $459 $318 $320 $463 reversed $193 $-1 #
coedge $-1 $318 $458 $457 $590 reversed $193 $-1 #
coedge $-1 $326 $321 $318 $461 forward $327 $-1 #
edge $-1 $464 -12.935780611361722 $591 -2.3140015599964521 $460 $592 forward 7 unknown #
coedge $-1 $320 $319 $467 $593 reversed $121 $-1 #
edge $-1 $594 -60.967183221459763 $464 -46.89318783658878 $458 $595 forward 7 unknown #
vertex $-1 $322 $596 #
straight-curve $-1 -17.500394982062634 19.861812559364619 10.342856474240875 1 0 0 I I #
coedge $-1 $457 $323 $326 $471 reversed $316 $-1 #
coedge $-1 $323 $457 $462 $593 forward $316 $-1 #
vertex $-1 $324 $597 #
straight-curve $-1 -44.935200205194583 30.483591610729892 67.215084570861762 0 0 1 I I #
straight-curve $-1 -44.935200205194583 -15.528925222874676 41.10755612670583 0 0.75470957328743171 -0.6560590369687036 I I #
edge $-1 $591 25.066379723055952 $328 44.935200205194583 $466 $598 forward 7 unknown #
point $-1 -44.935200205194583 30.483591610729892 10.342856474240874 #
point $-1 -44.935200205194583 19.861812559364623 10.342856474240875 #
edge $-1 $599 1 $599 0 $331 $-1 forward 7 unknown #
vertex $-1 $332 $600 #
ellipse-curve $-1 -39.258394353154969 19.369241525320597 -0.94994699293557006 0 0.6560590369687036 0.75470957328743171 2.5 0 0 1 I I #
point $-1 -36.758394353154969 25.172702085047259 5.7261705449906524 #
edge $-1 $601 1 $601 0 $335 $-1 forward 7 unknown #
vertex $-1 $336 $602 #
ellipse-curve $-1 -30.743185575095559 19.369241525320597 -0.94994699293557006 0 0.6560590369687036 0.75470957328743171 2.5 0 0 1 I I #
point $-1 -28.243185575095559 25.172702085047259 5.7261705449906524 #
loop $-1 $-1 $347 $339 #
plane-surface $-1 0 30.483591610729892 0 0 -1 0 0 0 -1 forward_v I I I I #
coedge $-1 $485 $342 $344 $489 reversed $215 $-1 #
coedge $-1 $342 $484 $603 $604 reversed $215 $-1 #
coedge $-1 $350 $345 $342 $487 forward $340 $-1 #
edge $-1 $490 -12.935780611361722 $605 -2.3140015599964521 $486 $606 forward 7 unknown #
coedge $-1 $344 $343 $493 $607 reversed $135 $-1 #
edge $-1 $608 -60.967183221459763 $490 -46.89318783658878 $484 $609 forward 7 unknown #
vertex $-1 $346 $610 #
straight-curve $-1 -3.0181920320144435 19.861812559364619 10.342856474240875 1 0 0 I I #
coedge $-1 $603 $347 $350 $497 reversed $482 $-1 #
coedge $-1 $347 $603 $488 $607 forward $482 $-1 #
vertex $-1 $348 $611 #
straight-curve $-1 -15.970794305098201 30.483591610729892 67.215084570861762 0 0 1 I I #
straight-curve $-1 -15.970794305098201 -15.528925222874676 41.10755612670583 0 0.75470957328743171 -0.6560590369687036 I I #
edge $-1 $605 -3.8980261770404265 $351 15.970794305098201 $492 $612 forward 7 unknown #
point $-1 -15.970794305098201 30.483591610729892 10.342856474240874 #
point $-1 -15.970794305098201 19.861812559364623 10.342856474240875 #
edge $-1 $613 1 $613 0 $354 $-1 forward 7 unknown #
vertex $-1 $355 $614 #
ellipse-curve $-1 -10.293988453058589 19.369241525320597 -0.94994699293557006 0 0.6560590369687036 0.75470957328743171 2.5 0 0 1 I I #
point $-1 -7.7939884530585886 25.172702085047259 5.7261705449906524 #
edge $-1 $615 1 $615 0 $358 $-1 forward 7 unknown #
vertex $-1 $359 $616 #
ellipse-curve $-1 -1.7787796749991784 19.369241525320597 -0.94994699293557006 0 0.6560590369687036 0.75470957328743171 2.5 0 0 1 I I #
point $-1 0.72122032500082156 25.172702085047259 5.7261705449906524 #
loop $-1 $-1 $370 $362 #
plane-surface $-1 0 30.483591610729892 0 0 -1 0 0 0 -1 forward_v I I I I #
coedge $-1 $511 $365 $367 $515 reversed $237 $-1 #
coedge $-1 $365 $510 $617 $618 reversed $237 $-1 #
coedge $-1 $373 $368 $365 $513 forward $363 $-1 #
edge $-1 $516 -12.935780611361722 $619 -2.3140015599964521 $512 $620 forward 7 unknown #
coedge $-1 $367 $366 $519 $621 reversed $149 $-1 #
edge $-1 $622 -60.967183221459763 $516 -46.89318783658878 $510 $623 forward 7 unknown #
vertex $-1 $369 $624 #
straight-curve $-1 11.46401091803375 19.861812559364619 10.342856474240875 1 0 0 I I #
coedge $-1 $617 $370 $373 $523 reversed $508 $-1 #
coedge $-1 $370 $617 $514 $621 forward $508 $-1 #
vertex $-1 $371 $625 #
straight-curve $-1 12.993611594998187 30.483591610729892 67.215084570861762 0 0 1 I I #
straight-curve $-1 12.993611594998187 -15.528925222874676 41.10755612670583 0 0.75470957328743171 -0.6560590369687036 I I #
edge $-1 $619 -32.862432077136816 $374 -12.993611594998187 $518 $626 forward 7 unknown #
point $-1 12.993611594998187 30.483591610729892 10.342856474240874 #
point $-1 12.993611594998187 19.861812559364623 10.342856474240875 #
edge $-1 $627 1 $627 0 $377 $-1 forward 7 unknown #
vertex $-1 $378 $628 #
ellipse-curve $-1 18.670417447037792 19.369241525320597 -0.94994699293557006 0 0.6560590369687036 0.75470957328743171 2.5 0 0 1 I I #
point $-1 21.170417447037792 25.172702085047259 5.7261705449906524 #
edge $-1 $629 1 $629 0 $381 $-1 forward 7 unknown #
vertex $-1 $382 $630 #
ellipse-curve $-1 27.185626225097195 19.369241525320597 -0.94994699293557006 0 0.6560590369687036 0.75470957328743171 2.5 0 0 1 I I #
point $-1 29.685626225097195 25.172702085047259 5.7261705449906524 #
loop $-1 $-1 $392 $385 #
plane-surface $-1 0 30.483591610729892 0 0 -1 0 0 0 -1 forward_v I I I I #
coedge $-1 $631 $632 $389 $538 forward $386 $-1 #
coedge $-1 $389 $388 $543 $633 reversed $163 $-1 #
edge $-1 $540 27.548781729992907 $634 41.622777114863894 $536 $635 forward 7 unknown #
coedge $-1 $395 $390 $632 $636 forward $259 $-1 #
vertex $-1 $636 $637 #
straight-curve $-1 25.946213868081941 19.861812559364619 10.342856474240875 1 0 0 I I #
coedge $-1 $638 $392 $395 $547 reversed $534 $-1 #
coedge $-1 $392 $638 $537 $633 forward $534 $-1 #
vertex $-1 $393 $639 #
straight-curve $-1 41.958017495094566 30.483591610729892 67.215084570861762 0 0 1 I I #
straight-curve $-1 41.958017495094566 -15.528925222874676 41.10755612670583 0 0.75470957328743171 -0.6560590369687036 I I #
edge $-1 $640 -61.826837977233197 $396 -41.958017495094566 $542 $641 forward 7 unknown #
point $-1 41.958017495094566 30.483591610729892 10.342856474240874 #
point $-1 41.958017495094566 19.861812559364623 10.342856474240875 #
edge $-1 $642 1 $642 0 $399 $-1 forward 7 unknown #
vertex $-1 $400 $643 #
ellipse-curve $-1 47.634823347134173 19.369241525320597 -0.94994699293557006 0 0.6560590369687036 0.75470957328743171 2.5 0 0 1 I I #
point $-1 50.134823347134173 25.172702085047259 5.7261705449906524 #
edge $-1 $644 1 $644 0 $403 $-1 forward 7 unknown #
vertex $-1 $404 $645 #
ellipse-curve $-1 56.150032125193576 19.369241525320597 -0.94994699293557006 0 0.6560590369687036 0.75470957328743171 2.5 0 0 1 I I #
point $-1 58.650032125193576 25.172702085047259 5.7261705449906524 #
plane-surface $-1 61.826837977233197 0 0 -1 0 0 0 0 1 forward_v I I I I #
coedge $-1 $412 $410 $414 $563 reversed $281 $-1 #
edge $-1 $425 -10.342856474240874 $565 10.342856474240874 $424 $646 forward 7 unknown #
vertex $-1 $563 $647 #
straight-curve $-1 -61.826837977233197 -30.483591610729892 0 0 0 -1 I I #
edge $-1 $561 -30.483591610729892 $565 30.483591610729892 $559 $648 forward 7 unknown #
straight-curve $-1 0 -30.483591610729892 -10.342856474240874 -1 0 0 I I #
vertex $-1 $417 $649 #
straight-curve $-1 0 30.483591610729892 -10.342856474240874 1 0 0 I I #
point $-1 61.826837977233197 30.483591610729892 -10.342856474240874 #
point $-1 61.826837977233197 -30.483591610729892 -10.342856474240874 #
straight-curve $-1 -61.826837977233197 0 10.342856474240874 0 -1 0 I I #
point $-1 -61.826837977233197 30.483591610729892 10.342856474240874 #
point $-1 -61.826837977233197 -30.483591610729892 10.342856474240874 #
straight-curve $-1 61.826837977233197 -30.483591610729892 0 0 0 -1 I I #
straight-curve $-1 61.826837977233197 30.483591610729892 0 0 0 -1 I I #
plane-surface $-1 0 30.483591610729892 0 0 -1 0 0 0 -1 forward_v I I I I #
coedge $-1 $438 $437 $650 $651 forward $185 $-1 #
edge $-1 $441 54.030785623152326 $652 61.826837977233197 $440 $653 forward 7 unknown #
coedge $-1 $446 $445 $438 $578 reversed $447 $-1 #
edge $-1 $654 -61.826837977233197 $579 -54.030785623152326 $577 $655 forward 7 unknown #
vertex $-1 $453 $656 #
straight-curve $-1 -54.030785623152326 0 -10.342856474240874 0 -1 0 I I #
point $-1 -54.030785623152326 -30.483591610729892 -10.342856474240874 #
coedge $-1 $650 $443 $446 $585 forward $435 $-1 #
coedge $-1 $443 $650 $450 $587 reversed $435 $-1 #
straight-curve $-1 -61.826837977233197 0 -5.9451775603818486 0 1 0 I I #
edge $-1 $448 5.9451775603818486 $654 10.342856474240874 $446 $657 forward 7 unknown #
point $-1 -61.826837977233197 30.483591610729892 -5.9451775603818486 #
edge $-1 $451 5.9451775603818486 $652 10.342856474240874 $583 $658 forward 7 unknown #
point $-1 -61.826837977233197 -30.483591610729892 -5.9451775603818486 #
straight-curve $-1 -54.030785623152326 30.483591610729892 -4.0720085086556805 0 0 -1 I I #
edge $-1 $591 56.872228096620887 $594 66.105599955121335 $457 $659 forward 7 unknown #
vertex $-1 $471 $660 #
straight-curve $-1 -25.066379723055952 32.797593170726344 10.342856474240875 0 1 0 I I #
edge $-1 $594 7.5659847409933185 $468 27.434805223131949 $467 $661 forward 7 unknown #
vertex $-1 $593 $662 #
straight-curve $-1 -25.066379723055952 -15.528925222874676 41.10755612670583 0 -0.75470957328743171 0.6560590369687036 I I #
point $-1 -25.066379723055952 19.861812559364623 10.342856474240875 #
point $-1 -44.935200205194583 30.483591610729889 1.1094846157404348 #
straight-curve $-1 0 30.483591610729892 10.342856474240874 -1 0 0 I I #
vertex $-1 $474 $663 #
point $-1 -36.758394353154969 19.369241525320597 -0.94994699293557006 #
vertex $-1 $478 $664 #
point $-1 -28.243185575095559 19.369241525320597 -0.94994699293557006 #
coedge $-1 $493 $492 $485 $604 forward $482 $-1 #
edge $-1 $605 56.872228096620887 $608 66.105599955121335 $603 $665 forward 7 unknown #
vertex $-1 $497 $666 #
straight-curve $-1 3.8980261770404265 32.797593170726344 10.342856474240875 0 1 0 I I #
edge $-1 $608 -6.9162182090548701 $494 12.952602273083757 $493 $667 forward 7 unknown #
vertex $-1 $607 $668 #
straight-curve $-1 3.8980261770404265 -15.528925222874676 41.10755612670583 0 -0.75470957328743171 0.6560590369687036 I I #
point $-1 3.8980261770404265 19.861812559364623 10.342856474240875 #
point $-1 -15.970794305098201 30.483591610729889 1.1094846157404348 #
straight-curve $-1 0 30.483591610729892 10.342856474240874 -1 0 0 I I #
vertex $-1 $500 $669 #
point $-1 -7.7939884530585886 19.369241525320597 -0.94994699293557006 #
vertex $-1 $504 $670 #
point $-1 0.72122032500082156 19.369241525320597 -0.94994699293557006 #
coedge $-1 $519 $518 $511 $618 forward $508 $-1 #
edge $-1 $619 56.872228096620887 $622 66.105599955121335 $617 $671 forward 7 unknown #
vertex $-1 $523 $672 #
straight-curve $-1 32.862432077136816 32.797593170726344 10.342856474240875 0 1 0 I I #
edge $-1 $622 -21.398421159103066 $520 -1.5296006769644368 $519 $673 forward 7 unknown #
vertex $-1 $621 $674 #
straight-curve $-1 32.862432077136816 -15.528925222874676 41.10755612670583 0 -0.75470957328743171 0.6560590369687036 I I #
point $-1 32.862432077136816 19.861812559364623 10.342856474240875 #
point $-1 12.993611594998187 30.483591610729889 1.1094846157404348 #
straight-curve $-1 0 30.483591610729892 10.342856474240874 -1 0 0 I I #
vertex $-1 $526 $675 #
point $-1 21.170417447037792 19.369241525320597 -0.94994699293557006 #
vertex $-1 $530 $676 #
point $-1 29.685626225097195 19.369241525320597 -0.94994699293557006 #
coedge $-1 $632 $536 $638 $677 reversed $386 $-1 #
coedge $-1 $536 $631 $539 $636 reversed $386 $-1 #
edge $-1 $634 -35.880624109151256 $544 -16.011803627012625 $543 $678 forward 7 unknown #
vertex $-1 $538 $679 #
straight-curve $-1 61.826837977233197 -0.9295167446669188 28.416483685681037 0 0.75470957328743171 -0.6560590369687036 I I #
edge $-1 $540 19.861812559364623 $640 30.483591610729892 $632 $680 forward 7 unknown #
point $-1 61.826837977233197 19.861812559364623 10.342856474240875 #
coedge $-1 $543 $542 $631 $677 forward $534 $-1 #
point $-1 41.958017495094566 30.483591610729889 1.1094846157404348 #
vertex $-1 $636 $681 #
straight-curve $-1 0 30.483591610729892 10.342856474240874 -1 0 0 I I #
vertex $-1 $550 $682 #
point $-1 50.134823347134173 19.369241525320597 -0.94994699293557006 #
vertex $-1 $554 $683 #
point $-1 58.650032125193576 19.369241525320597 -0.94994699293557006 #
straight-curve $-1 -61.826837977233197 30.483591610729892 0 0 0 -1 I I #
point $-1 -61.826837977233197 -30.483591610729892 -10.342856474240874 #
straight-curve $-1 -61.826837977233197 0 -10.342856474240874 0 1 0 I I #
point $-1 -61.826837977233197 30.483591610729892 -10.342856474240874 #
coedge $-1 $583 $582 $575 $651 reversed $435 $-1 #
edge $-1 $652 -30.483591610729892 $654 30.483591610729892 $650 $684 forward 7 unknown #
vertex $-1 $651 $685 #
straight-curve $-1 0 -30.483591610729892 -10.342856474240874 -1 0 0 I I #
vertex $-1 $578 $686 #
straight-curve $-1 0 30.483591610729892 -10.342856474240874 1 0 0 I I #
point $-1 -54.030785623152326 30.483591610729892 -10.342856474240874 #
straight-curve $-1 -61.826837977233197 30.483591610729892 0 0 0 -1 I I #
straight-curve $-1 -61.826837977233197 -30.483591610729892 0 0 0 -1 I I #
straight-curve $-1 -25.066379723055952 30.483591610729892 67.215084570861762 0 0 -1 I I #
point $-1 -25.066379723055952 30.483591610729892 10.342856474240874 #
straight-curve $-1 -17.500394982062634 30.483591610729892 1.1094846157404348 -1 0 0 I I #
point $-1 -25.066379723055952 30.483591610729889 1.1094846157404348 #
point $-1 -39.258394353154969 17.729093932898834 -2.8367209261541495 #
point $-1 -30.743185575095559 17.729093932898834 -2.8367209261541495 #
straight-curve $-1 3.8980261770404265 30.483591610729892 67.215084570861762 0 0 -1 I I #
point $-1 3.8980261770404265 30.483591610729892 10.342856474240874 #
straight-curve $-1 -3.0181920320144435 30.483591610729892 1.1094846157404348 -1 0 0 I I #
point $-1 3.8980261770404265 30.483591610729889 1.1094846157404348 #
point $-1 -10.293988453058589 17.729093932898834 -2.8367209261541495 #
point $-1 -1.7787796749991784 17.729093932898834 -2.8367209261541495 #
straight-curve $-1 32.862432077136816 30.483591610729892 67.215084570861762 0 0 -1 I I #
point $-1 32.862432077136816 30.483591610729892 10.342856474240874 #
straight-curve $-1 11.46401091803375 30.483591610729892 1.1094846157404348 -1 0 0 I I #
point $-1 32.862432077136816 30.483591610729889 1.1094846157404348 #
point $-1 18.670417447037792 17.729093932898834 -2.8367209261541495 #
point $-1 27.185626225097195 17.729093932898834 -2.8367209261541495 #
edge $-1 $640 -10.342856474240874 $634 -1.1094846157404348 $631 $687 forward 7 unknown #
straight-curve $-1 25.946213868081941 30.483591610729892 1.1094846157404348 -1 0 0 I I #
point $-1 61.826837977233197 30.483591610729889 1.1094846157404348 #
straight-curve $-1 61.826837977233197 0 10.342856474240874 0 1 0 I I #
point $-1 61.826837977233197 30.483591610729892 10.342856474240874 #
point $-1 47.634823347134173 17.729093932898834 -2.8367209261541495 #
point $-1 56.150032125193576 17.729093932898834 -2.8367209261541495 #
straight-curve $-1 -61.826837977233197 0 -10.342856474240874 0 1 0 I I #
point $-1 -61.826837977233197 -30.483591610729892 -10.342856474240874 #
point $-1 -61.826837977233197 30.483591610729892 -10.342856474240874 #
straight-curve $-1 61.826837977233197 30.483591610729892 0 0 0 -1 I I #
End-of-ACIS-data 