500 0 9 0           
7 Unknown 11 ACIS 5.0 NT 24 Fri Mar 26 20:35:50 1999 
-1 9.9999999999999995e-007 1e-010 
body $-1 $9 $-1 $10 #
body $-1 $11 $-1 $12 #
body $-1 $13 $-1 $14 #
body $-1 $15 $-1 $16 #
body $-1 $17 $-1 $18 #
body $-1 $19 $-1 $20 #
body $-1 $21 $-1 $22 #
body $-1 $23 $-1 $24 #
body $-1 $25 $-1 $26 #
lump $-1 $-1 $27 $0 #
transform $-1 1 0 0 0 1 0 0 0 1 58.229316080202643 26.590682771425158 5.4157609671822282 1 rotate no_reflect no_shear #
lump $-1 $-1 $28 $1 #
transform $-1 1 0 0 0 1 0 0 0 1 58.229316080202643 26.590682771425158 5.4157609671822282 1 rotate no_reflect no_shear #
lump $-1 $-1 $29 $2 #
transform $-1 1 0 0 0 1 0 0 0 1 58.229316080202643 26.590682771425158 5.4157609671822282 1 rotate no_reflect no_shear #
lump $-1 $-1 $30 $3 #
transform $-1 1 0 0 0 1 0 0 0 1 58.229316080202643 26.590682771425158 5.4157609671822282 1 rotate no_reflect no_shear #
lump $-1 $-1 $31 $4 #
transform $-1 1 0 0 0 1 0 0 0 1 58.229316080202643 26.590682771425158 5.4157609671822282 1 rotate no_reflect no_shear #
lump $-1 $-1 $32 $5 #
transform $-1 1 0 0 0 1 0 0 0 1 58.229316080202643 26.590682771425158 5.4157609671822282 1 rotate no_reflect no_shear #
lump $-1 $-1 $33 $6 #
transform $-1 1 0 0 0 1 0 0 0 1 58.229316080202643 26.590682771425158 5.4157609671822282 1 rotate no_reflect no_shear #
lump $-1 $-1 $34 $7 #
transform $-1 1 0 0 0 1 0 0 0 1 58.229316080202643 26.590682771425158 5.4157609671822282 1 rotate no_reflect no_shear #
lump $-1 $-1 $35 $8 #
transform $-1 1 0 0 0 1 0 0 0 1 58.229316080202643 26.590682771425158 5.4157609671822282 1 rotate no_reflect no_shear #
shell $-1 $-1 $-1 $36 $-1 $9 #
shell $-1 $-1 $-1 $37 $-1 $11 #
shell $-1 $-1 $-1 $38 $-1 $13 #
shell $-1 $-1 $-1 $39 $-1 $15 #
shell $-1 $-1 $-1 $40 $-1 $17 #
shell $-1 $-1 $-1 $41 $-1 $19 #
shell $-1 $-1 $-1 $42 $-1 $21 #
shell $-1 $-1 $-1 $43 $-1 $23 #
shell $-1 $-1 $-1 $44 $-1 $25 #
face $-1 $45 $46 $27 $-1 $47 reversed single #
face $-1 $48 $49 $28 $-1 $50 forward single #
face $-1 $51 $52 $29 $-1 $53 reversed single #
face $-1 $54 $55 $30 $-1 $56 forward single #
face $-1 $57 $58 $31 $-1 $59 forward single #
face $-1 $60 $61 $32 $-1 $62 forward single #
face $-1 $63 $64 $33 $-1 $65 reversed single #
face $-1 $66 $67 $34 $-1 $68 forward single #
face $-1 $69 $70 $35 $-1 $71 forward single #
face $-1 $72 $73 $27 $-1 $74 forward single #
loop $-1 $-1 $75 $36 #
plane-surface $-1 0 -26.590682771425158 0 0 1 0 0 0 1 forward_v I I I I #
face $-1 $76 $77 $28 $-1 $78 forward single #
loop $-1 $-1 $79 $37 #
plane-surface $-1 0 -26.590682771425158 0 0 1 0 0 0 1 forward_v I I I I #
face $-1 $80 $81 $29 $-1 $82 reversed single #
loop $-1 $-1 $83 $38 #
plane-surface $-1 -134.63305414205061 -9.3417024543638032 89.309152330399883 0 1 0 -0.6560590369687036 0 0.75470957328743171 forward_v I I I I #
face $-1 $84 $85 $30 $-1 $86 forward single #
loop $-1 $87 $88 $39 #
cone-surface $-1 -55.401650780133345 -6.4270761630459994 2.8094459714851157 0.6560590369687036 0 -0.75470957328743171 0.37735478664371586 0 0.3280295184843518 1 I I 0 1 0.5 forward I I I I #
face $-1 $89 $90 $31 $-1 $91 forward single #
loop $-1 $92 $93 $40 #
cone-surface $-1 -55.401650780133345 -2.0551367260692892 2.8094459714851157 0.6560590369687036 0 -0.75470957328743171 0.37735478664371586 0 0.3280295184843518 1 I I 0 1 0.5 forward I I I I #
face $-1 $94 $95 $32 $-1 $96 forward single #
loop $-1 $97 $98 $41 #
cone-surface $-1 -55.401650780133345 2.316802710907421 2.8094459714851157 0.6560590369687036 0 -0.75470957328743171 0.37735478664371586 0 0.3280295184843518 1 I I 0 1 0.5 forward I I I I #
face $-1 $99 $100 $33 $-1 $101 reversed single #
loop $-1 $-1 $102 $42 #
plane-surface $-1 89.655059471866991 4.319239223695531 163.98013355918349 0 -1 0 -0.82903758062907751 0 -0.55919289150049634 forward_v I I I I #
face $-1 $103 $104 $34 $-1 $105 forward single #
loop $-1 $106 $107 $43 #
cone-surface $-1 56.766931709712559 -3.6741608577032245 3.582639863630698 -0.82903758062907751 0 -0.55919289150049634 0.27959644575024817 0 -0.41451879031453875 1 I I 0 1 0.5 forward I I I I #
face $-1 $108 $109 $35 $-1 $110 forward single #
loop $-1 $111 $112 $44 #
cone-surface $-1 56.766931709712559 1.1218791911360277 3.582639863630698 -0.82903758062907751 0 -0.55919289150049634 0.27959644575024817 0 -0.41451879031453875 1 I I 0 1 0.5 forward I I I I #
face $-1 $113 $114 $27 $-1 $115 reversed single #
loop $-1 $-1 $116 $45 #
plane-surface $-1 0 0 5.4157609671822282 0 0 1 1 0 0 forward_v I I I I #
coedge $-1 $117 $118 $119 $120 reversed $46 $-1 #
face $-1 $121 $122 $28 $-1 $123 reversed single #
loop $-1 $-1 $124 $48 #
plane-surface $-1 0 0 5.4157609671822282 0 0 1 1 0 0 forward_v I I I I #
coedge $-1 $125 $126 $127 $128 forward $49 $-1 #
face $-1 $129 $130 $29 $-1 $131 reversed single #
loop $-1 $-1 $132 $51 #
plane-surface $-1 -58.229316080202622 -2.0551367260692857 1.4167077469824392 -0.6560590369687036 0 0.75470957328743171 0.75470957328743171 0 0.6560590369687036 forward_v I I I I #
coedge $-1 $133 $134 $135 $136 reversed $52 $-1 #
face $-1 $-1 $137 $30 $-1 $138 forward single #
loop $-1 $139 $140 $54 #
cone-surface $-1 -54.710162913368926 -6.4270761630459994 2.0139801925660388 0.6560590369687036 0 -0.75470957328743171 0.18867739332185793 0 0.1640147592421759 1 I I -0.70710678118654746 0.70710678118654746 0.25 forward I I I I #
loop $-1 $-1 $141 $39 #
coedge $-1 $88 $88 $142 $143 reversed $55 $-1 #
face $-1 $-1 $144 $31 $-1 $145 forward single #
loop $-1 $146 $147 $57 #
cone-surface $-1 -54.710162913368926 -2.0551367260692892 2.0139801925660388 0.6560590369687036 0 -0.75470957328743171 0.18867739332185793 0 0.1640147592421759 1 I I -0.70710678118654746 0.70710678118654746 0.25 forward I I I I #
loop $-1 $-1 $148 $40 #
coedge $-1 $93 $93 $149 $150 reversed $58 $-1 #
face $-1 $-1 $151 $32 $-1 $152 forward single #
loop $-1 $153 $154 $60 #
cone-surface $-1 -54.710162913368926 2.316802710907421 2.0139801925660388 0.6560590369687036 0 -0.75470957328743171 0.18867739332185793 0 0.1640147592421759 1 I I -0.70710678118654746 0.70710678118654746 0.25 forward I I I I #
loop $-1 $-1 $155 $41 #
coedge $-1 $98 $98 $156 $157 reversed $61 $-1 #
face $-1 $158 $159 $33 $-1 $160 reversed single #
loop $-1 $-1 $161 $63 #
plane-surface $-1 -6.8935231777670793 -1.2761408332835984 98.857294301213756 0.82903758062907751 0 0.55919289150049634 0.55919289150049634 0 -0.82903758062907751 forward_v I I I I #
coedge $-1 $162 $163 $164 $165 reversed $64 $-1 #
face $-1 $-1 $166 $34 $-1 $167 forward single #
loop $-1 $168 $169 $66 #
cone-surface $-1 56.145153524240747 -3.6741608577032245 3.1632451950053255 -0.82903758062907751 0 -0.55919289150049634 0.13979822287512408 0 -0.20725939515726938 1 I I -0.70710678118654746 0.70710678118654746 0.25 forward I I I I #
loop $-1 $-1 $170 $43 #
coedge $-1 $107 $107 $171 $172 reversed $67 $-1 #
face $-1 $-1 $173 $35 $-1 $174 forward single #
loop $-1 $175 $176 $69 #
cone-surface $-1 56.145153524240747 1.1218791911360277 3.1632451950053255 -0.82903758062907751 0 -0.55919289150049634 0.13979822287512408 0 -0.20725939515726938 1 I I -0.70710678118654746 0.70710678118654746 0.25 forward I I I I #
loop $-1 $-1 $177 $44 #
coedge $-1 $112 $112 $178 $179 reversed $70 $-1 #
face $-1 $180 $181 $27 $-1 $182 reversed single #
loop $-1 $-1 $183 $72 #
plane-surface $-1 0 0 -5.4157609671822282 0 0 1 1 0 0 forward_v I I I I #
coedge $-1 $184 $185 $186 $187 forward $73 $-1 #
coedge $-1 $188 $75 $189 $190 reversed $46 $-1 #
coedge $-1 $75 $188 $191 $192 forward $46 $-1 #
coedge $-1 $193 $183 $75 $120 forward $114 $-1 #
edge $-1 $194 -58.229316080202643 $195 58.229316080202643 $75 $196 forward 7 unknown #
face $-1 $197 $198 $28 $-1 $199 reversed single #
loop $-1 $-1 $200 $76 #
plane-surface $-1 -58.229316080202643 0 0 1 0 0 0 0 -1 forward_v I I I I #
coedge $-1 $201 $202 $126 $203 forward $77 $-1 #
coedge $-1 $204 $79 $205 $206 reversed $49 $-1 #
coedge $-1 $79 $204 $124 $203 reversed $49 $-1 #
coedge $-1 $207 $208 $79 $128 reversed $209 $-1 #
edge $-1 $210 -5.4157609671822282 $211 5.4157609671822282 $127 $212 forward 7 unknown #
face $-1 $213 $214 $29 $-1 $215 reversed single #
loop $-1 $-1 $216 $80 #
plane-surface $-1 -134.63305414205061 5.2314290022252319 89.309152330399883 0 -1 0 0.6560590369687036 0 -0.75470957328743171 forward_v I I I I #
coedge $-1 $217 $218 $219 $220 reversed $81 $-1 #
coedge $-1 $134 $83 $221 $222 reversed $52 $-1 #
coedge $-1 $83 $133 $217 $223 reversed $52 $-1 #
coedge $-1 $219 $224 $83 $136 forward $225 $-1 #
edge $-1 $226 9.0872109908226619 $227 13.687595375916807 $135 $228 forward 7 unknown #
loop $-1 $-1 $142 $84 #
plane-surface $-1 -58.229316080202622 -2.0551367260692857 1.4167077469824392 -0.6560590369687036 0 0.75470957328743171 0.75470957328743171 0 0.6560590369687036 forward_v I I I I #
loop $-1 $-1 $229 $54 #
coedge $-1 $140 $140 $141 $230 reversed $85 $-1 #
coedge $-1 $141 $141 $140 $230 forward $87 $-1 #
coedge $-1 $142 $142 $88 $143 forward $137 $-1 #
edge $-1 $231 0 $231 6.2831853071796004 $142 $232 forward 7 unknown #
loop $-1 $-1 $149 $89 #
plane-surface $-1 -58.229316080202622 -2.0551367260692857 1.4167077469824392 -0.6560590369687036 0 0.75470957328743171 0.75470957328743171 0 0.6560590369687036 forward_v I I I I #
loop $-1 $-1 $233 $57 #
coedge $-1 $147 $147 $148 $234 reversed $90 $-1 #
coedge $-1 $148 $148 $147 $234 forward $92 $-1 #
coedge $-1 $149 $149 $93 $150 forward $144 $-1 #
edge $-1 $235 0 $235 6.2831853071796004 $149 $236 forward 7 unknown #
loop $-1 $-1 $156 $94 #
plane-surface $-1 -58.229316080202622 -2.0551367260692857 1.4167077469824392 -0.6560590369687036 0 0.75470957328743171 0.75470957328743171 0 0.6560590369687036 forward_v I I I I #
loop $-1 $-1 $237 $60 #
coedge $-1 $154 $154 $155 $238 reversed $95 $-1 #
coedge $-1 $155 $155 $154 $238 forward $97 $-1 #
coedge $-1 $156 $156 $98 $157 forward $151 $-1 #
edge $-1 $239 0 $239 6.2831853071796004 $156 $240 forward 7 unknown #
face $-1 $241 $242 $33 $-1 $243 forward single #
loop $-1 $-1 $244 $99 #
plane-surface $-1 89.655059471866991 -6.8715208902627278 163.98013355918349 0 1 0 0.82903758062907751 0 0.55919289150049634 forward_v I I I I #
coedge $-1 $245 $246 $247 $248 reversed $100 $-1 #
coedge $-1 $163 $102 $249 $250 reversed $64 $-1 #
coedge $-1 $102 $162 $245 $251 reversed $64 $-1 #
coedge $-1 $247 $252 $102 $165 forward $242 $-1 #
edge $-1 $253 -13.401786344269148 $254 -11.306055183918076 $164 $255 forward 7 unknown #
loop $-1 $-1 $171 $103 #
plane-surface $-1 -6.8935231777670793 -1.2761408332835984 98.857294301213756 0.82903758062907751 0 0.55919289150049634 0.55919289150049634 0 -0.82903758062907751 forward_v I I I I #
loop $-1 $-1 $256 $66 #
coedge $-1 $169 $169 $170 $257 reversed $104 $-1 #
coedge $-1 $170 $170 $169 $257 forward $106 $-1 #
coedge $-1 $171 $171 $107 $172 forward $166 $-1 #
edge $-1 $258 0 $258 6.2831853071796004 $171 $259 forward 7 unknown #
loop $-1 $-1 $178 $108 #
plane-surface $-1 -6.8935231777670793 -1.2761408332835984 98.857294301213756 0.82903758062907751 0 0.55919289150049634 0.55919289150049634 0 -0.82903758062907751 forward_v I I I I #
loop $-1 $-1 $260 $69 #
coedge $-1 $176 $176 $177 $261 reversed $109 $-1 #
coedge $-1 $177 $177 $176 $261 forward $111 $-1 #
coedge $-1 $178 $178 $112 $179 forward $173 $-1 #
edge $-1 $262 0 $262 6.2831853071796004 $178 $263 forward 7 unknown #
face $-1 $264 $265 $27 $-1 $266 reversed single #
loop $-1 $-1 $267 $113 #
plane-surface $-1 -58.229316080202643 0 0 1 0 0 0 0 -1 forward_v I I I I #
coedge $-1 $119 $268 $269 $270 forward $114 $-1 #
coedge $-1 $271 $116 $272 $273 forward $73 $-1 #
coedge $-1 $116 $271 $188 $274 forward $73 $-1 #
coedge $-1 $189 $275 $116 $187 reversed $276 $-1 #
edge $-1 $277 -26.590682771425158 $278 26.590682771425158 $186 $279 forward 7 unknown #
coedge $-1 $118 $117 $185 $274 reversed $46 $-1 #
coedge $-1 $269 $186 $117 $190 forward $276 $-1 #
edge $-1 $277 -5.4157609671822282 $194 5.4157609671822282 $189 $280 forward 7 unknown #
coedge $-1 $281 $282 $118 $192 reversed $181 $-1 #
edge $-1 $283 -5.4157609671822282 $195 5.4157609671822282 $191 $284 forward 7 unknown #
coedge $-1 $268 $119 $282 $285 forward $114 $-1 #
vertex $-1 $190 $286 #
vertex $-1 $285 $287 #
straight-curve $-1 0 -26.590682771425158 -5.4157609671822282 -1 0 0 I I #
face $-1 $288 $209 $28 $-1 $289 reversed single #
loop $-1 $-1 $290 $121 #
plane-surface $-1 -56.729316080202643 -31.13376361557193 0 0 1 0 0 0 1 forward_v I I I I #
coedge $-1 $291 $292 $204 $293 forward $122 $-1 #
coedge $-1 $294 $124 $292 $295 forward $77 $-1 #
coedge $-1 $124 $294 $207 $296 forward $77 $-1 #
edge $-1 $210 55.229316080202643 $297 58.229316080202643 $124 $298 forward 7 unknown #
coedge $-1 $126 $125 $200 $293 reversed $49 $-1 #
coedge $-1 $299 $300 $125 $206 forward $301 $-1 #
edge $-1 $302 -58.229316080202643 $211 -55.229316080202643 $205 $303 forward 7 unknown #
coedge $-1 $304 $127 $202 $296 reversed $209 $-1 #
coedge $-1 $127 $304 $299 $305 reversed $209 $-1 #
loop $-1 $-1 $304 $197 #
vertex $-1 $203 $306 #
vertex $-1 $305 $307 #
straight-curve $-1 -55.229316080202643 -26.590682771425158 0 0 0 -1 I I #
face $-1 $-1 $225 $29 $-1 $308 forward single #
loop $-1 $-1 $309 $129 #
plane-surface $-1 -58.229316080202643 0 0 1 0 0 0 0 -1 forward_v I I I I #
coedge $-1 $310 $311 $312 $313 reversed $130 $-1 #
coedge $-1 $314 $132 $134 $223 forward $81 $-1 #
coedge $-1 $132 $314 $310 $315 forward $81 $-1 #
coedge $-1 $312 $135 $132 $220 forward $225 $-1 #
edge $-1 $227 -8.3141340913291604 $316 6.2589973652598747 $219 $317 forward 7 unknown #
coedge $-1 $318 $319 $133 $222 forward $214 $-1 #
edge $-1 $320 -43.237868418217523 $226 -39.238815198017711 $221 $321 forward 7 unknown #
edge $-1 $227 -6.0955691406634163 $320 2.8178574829950307e-014 $134 $322 forward 7 unknown #
coedge $-1 $135 $312 $318 $323 forward $225 $-1 #
loop $-1 $-1 $312 $213 #
vertex $-1 $222 $324 #
vertex $-1 $136 $325 #
straight-curve $-1 -67.316527071025305 -9.3417024543638032 5.41576096718223 1 0 0 I I #
coedge $-1 $229 $229 $-1 $326 reversed $139 $-1 #
edge $-1 $327 0 $327 6.2831853071796004 $140 $328 forward 7 unknown #
vertex $-1 $143 $329 #
ellipse-curve $-1 -55.929123887655571 -6.4270761630459994 3.4162343570823217 -0.6560590369687036 0 0.75470957328743171 0.37735478664371586 0 0.3280295184843518 1 I I #
coedge $-1 $233 $233 $-1 $330 reversed $146 $-1 #
edge $-1 $331 0 $331 6.2831853071796004 $147 $332 forward 7 unknown #
vertex $-1 $150 $333 #
ellipse-curve $-1 -55.929123887655571 -2.0551367260692892 3.4162343570823217 -0.6560590369687036 0 0.75470957328743171 0.37735478664371586 0 0.3280295184843518 1 I I #
coedge $-1 $237 $237 $-1 $334 reversed $153 $-1 #
edge $-1 $335 0 $335 6.2831853071796004 $154 $336 forward 7 unknown #
vertex $-1 $157 $337 #
ellipse-curve $-1 -55.929123887655571 2.316802710907421 3.4162343570823217 -0.6560590369687036 0 0.75470957328743171 0.37735478664371586 0 0.3280295184843518 1 I I #
face $-1 $-1 $338 $33 $-1 $339 reversed single #
loop $-1 $-1 $164 $158 #
plane-surface $-1 0 0 5.4157609671822282 0 0 1 1 0 0 forward_v I I I I #
coedge $-1 $340 $341 $342 $343 reversed $159 $-1 #
coedge $-1 $344 $161 $163 $251 forward $100 $-1 #
coedge $-1 $161 $344 $340 $345 forward $100 $-1 #
coedge $-1 $342 $164 $161 $248 forward $242 $-1 #
edge $-1 $254 -4.9573096403373302 $346 6.2334504736209286 $247 $347 forward 7 unknown #
coedge $-1 $348 $349 $162 $250 forward $338 $-1 #
edge $-1 $350 -79.681355128012058 $253 -76.57430581240952 $249 $351 forward 7 unknown #
edge $-1 $254 112.71085354553853 $350 116.45863216040529 $163 $352 forward 7 unknown #
coedge $-1 $164 $342 $348 $353 forward $242 $-1 #
vertex $-1 $165 $354 #
vertex $-1 $165 $355 #
straight-curve $-1 44.827529735933496 4.319239223695531 5.4157609671822229 -1 0 0 I I #
coedge $-1 $256 $256 $-1 $356 reversed $168 $-1 #
edge $-1 $357 0 $357 6.2831853071796004 $169 $358 forward 7 unknown #
vertex $-1 $172 $359 #
ellipse-curve $-1 57.181450500027111 -3.6741608577032245 3.862236309380954 0.82903758062907751 0 0.55919289150049634 0.27959644575024817 0 -0.41451879031453875 1 I I #
coedge $-1 $260 $260 $-1 $360 reversed $175 $-1 #
edge $-1 $361 0 $361 6.2831853071796004 $176 $362 forward 7 unknown #
vertex $-1 $179 $363 #
ellipse-curve $-1 57.181450500027111 1.1218791911360277 3.862236309380954 0.82903758062907751 0 0.55919289150049634 0.27959644575024817 0 -0.41451879031453875 1 I I #
face $-1 $-1 $276 $27 $-1 $364 reversed single #
loop $-1 $-1 $365 $180 #
plane-surface $-1 0 26.590682771425158 0 0 -1 0 0 0 -1 forward_v I I I I #
coedge $-1 $282 $281 $366 $367 forward $181 $-1 #
coedge $-1 $183 $193 $368 $369 forward $114 $-1 #
coedge $-1 $275 $189 $183 $270 reversed $276 $-1 #
edge $-1 $370 -26.590682771425158 $194 26.590682771425158 $269 $371 forward 7 unknown #
coedge $-1 $185 $184 $281 $372 forward $73 $-1 #
coedge $-1 $365 $366 $184 $273 reversed $265 $-1 #
edge $-1 $278 -58.229316080202643 $373 58.229316080202643 $272 $374 forward 7 unknown #
edge $-1 $283 -58.229316080202643 $277 58.229316080202643 $188 $375 forward 7 unknown #
coedge $-1 $186 $269 $365 $376 reversed $276 $-1 #
loop $-1 $-1 $189 $264 #
vertex $-1 $187 $377 #
vertex $-1 $187 $378 #
straight-curve $-1 58.229316080202643 0 5.4157609671822282 0 1 0 I I #
straight-curve $-1 58.229316080202643 -26.590682771425158 0 0 0 -1 I I #
coedge $-1 $267 $191 $271 $372 reversed $181 $-1 #
coedge $-1 $191 $267 $193 $285 reversed $181 $-1 #
vertex $-1 $372 $379 #
straight-curve $-1 -58.229316080202643 -26.590682771425158 0 0 0 -1 I I #
edge $-1 $195 -26.590682771425158 $380 26.590682771425158 $282 $381 forward 7 unknown #
point $-1 58.229316080202643 -26.590682771425158 -5.4157609671822282 #
point $-1 -58.229316080202643 -26.590682771425158 -5.4157609671822282 #
face $-1 $-1 $301 $28 $-1 $382 reversed single #
plane-surface $-1 -55.229316080202643 -28.862223193498544 0 -1 0 0 0 0 1 forward_v I I I I #
coedge $-1 $383 $384 $385 $386 forward $198 $-1 #
coedge $-1 $385 $200 $300 $387 reversed $122 $-1 #
coedge $-1 $200 $385 $201 $295 reversed $122 $-1 #
edge $-1 $297 -5.4157609671822282 $302 5.4157609671822282 $200 $388 forward 7 unknown #
coedge $-1 $202 $201 $384 $389 forward $77 $-1 #
edge $-1 $297 26.590682771425158 $390 31.13376361557193 $292 $391 forward 7 unknown #
edge $-1 $392 -2.2715404220733859 $210 2.2715404220733859 $207 $393 forward 7 unknown #
vertex $-1 $295 $394 #
straight-curve $-1 0 -26.590682771425158 5.4157609671822282 -1 0 0 I I #
coedge $-1 $395 $205 $208 $305 forward $301 $-1 #
coedge $-1 $205 $395 $291 $387 forward $301 $-1 #
loop $-1 $-1 $205 $288 #
vertex $-1 $293 $396 #
straight-curve $-1 0 -26.590682771425158 -5.4157609671822282 1 0 0 I I #
coedge $-1 $208 $207 $397 $398 forward $209 $-1 #
edge $-1 $211 -2.2715404220733859 $399 2.2715404220733859 $208 $400 forward 7 unknown #
point $-1 -55.229316080202643 -26.590682771425158 5.4157609671822282 #
point $-1 -55.229316080202643 -26.590682771425158 -5.4157609671822282 #
plane-surface $-1 0 0 5.4157609671822282 0 0 1 1 0 0 forward_v I I I I #
coedge $-1 $319 $318 $311 $401 forward $214 $-1 #
coedge $-1 $311 $216 $218 $315 reversed $130 $-1 #
coedge $-1 $216 $310 $309 $401 reversed $130 $-1 #
coedge $-1 $224 $219 $216 $313 forward $225 $-1 #
edge $-1 $316 -13.687595375916807 $402 -9.0872109908226619 $312 $403 forward 7 unknown #
coedge $-1 $218 $217 $319 $404 reversed $81 $-1 #
edge $-1 $405 -2.8178574829950307e-014 $316 6.0955691406634163 $310 $406 forward 7 unknown #
vertex $-1 $220 $407 #
straight-curve $-1 -53.628931695108506 -1.0275683630346428 5.41576096718223 0 1 0 I I #
coedge $-1 $309 $221 $224 $323 reversed $214 $-1 #
coedge $-1 $221 $309 $314 $404 forward $214 $-1 #
vertex $-1 $222 $408 #
straight-curve $-1 -58.229316080202643 -9.3417024543638032 44.654576165199941 0 0 1 I I #
straight-curve $-1 -58.229316080202622 -9.3417024543638032 1.4167077469824392 -0.75470957328743171 0 -0.6560590369687036 I I #
edge $-1 $402 -5.2314290022252319 $226 9.3417024543638032 $318 $409 forward 7 unknown #
point $-1 -58.229316080202643 -9.3417024543638032 5.4157609671822282 #
point $-1 -53.628931695108498 -9.3417024543638032 5.4157609671822282 #
edge $-1 $410 1 $410 0 $229 $-1 forward 7 unknown #
vertex $-1 $230 $411 #
ellipse-curve $-1 -54.874177672611104 -6.4270761630459994 2.2026575858878967 -0.6560590369687036 0 0.75470957328743171 0.37735478664371586 0 0.3280295184843518 1 I I #
point $-1 -55.551769101011864 -6.4270761630459994 3.7442638755666864 #
edge $-1 $412 1 $412 0 $233 $-1 forward 7 unknown #
vertex $-1 $234 $413 #
ellipse-curve $-1 -54.874177672611104 -2.0551367260692892 2.2026575858878967 -0.6560590369687036 0 0.75470957328743171 0.37735478664371586 0 0.3280295184843518 1 I I #
point $-1 -55.551769101011864 -2.0551367260692892 3.7442638755666864 #
edge $-1 $414 1 $414 0 $237 $-1 forward 7 unknown #
vertex $-1 $238 $415 #
ellipse-curve $-1 -54.874177672611104 2.316802710907421 2.2026575858878967 -0.6560590369687036 0 0.75470957328743171 0.37735478664371586 0 0.3280295184843518 1 I I #
point $-1 -55.551769101011864 2.316802710907421 3.7442638755666864 #
loop $-1 $-1 $249 $241 #
plane-surface $-1 58.229316080202643 0 0 -1 0 0 0 0 1 forward_v I I I I #
coedge $-1 $341 $244 $246 $345 reversed $159 $-1 #
coedge $-1 $244 $340 $416 $417 reversed $159 $-1 #
coedge $-1 $252 $247 $244 $343 forward $242 $-1 #
edge $-1 $346 11.306055183918076 $418 13.401786344269148 $342 $419 forward 7 unknown #
coedge $-1 $246 $245 $349 $420 reversed $100 $-1 #
edge $-1 $421 -116.45863216040529 $346 -112.71085354553853 $340 $422 forward 7 unknown #
vertex $-1 $248 $423 #
straight-curve $-1 56.133584919851565 -0.6380704166417992 5.41576096718223 0 -1 0 I I #
coedge $-1 $416 $249 $252 $353 reversed $338 $-1 #
coedge $-1 $249 $416 $344 $420 forward $338 $-1 #
vertex $-1 $250 $424 #
straight-curve $-1 58.229316080202643 4.319239223695531 81.990066779591743 0 0 1 I I #
straight-curve $-1 -6.8935231777670793 4.319239223695531 98.857294301213756 0.55919289150049634 0 -0.82903758062907751 I I #
edge $-1 $418 -6.8715208902627278 $253 4.319239223695531 $348 $425 forward 7 unknown #
point $-1 58.229316080202643 4.319239223695531 5.4157609671822282 #
point $-1 56.133584919851572 4.319239223695531 5.4157609671822229 #
edge $-1 $426 1 $426 0 $256 $-1 forward 7 unknown #
vertex $-1 $257 $427 #
ellipse-curve $-1 56.35241291939802 -3.6741608577032245 3.3030434178804495 0.82903758062907751 0 0.55919289150049634 0.27959644575024817 0 -0.41451879031453875 1 I I #
point $-1 57.461046945777341 -3.6741608577032245 3.4477175190664071 #
edge $-1 $428 1 $428 0 $260 $-1 forward 7 unknown #
vertex $-1 $261 $429 #
ellipse-curve $-1 56.35241291939802 1.1218791911360277 3.3030434178804495 0.82903758062907751 0 0.55919289150049634 0.27959644575024817 0 -0.41451879031453875 1 I I #
point $-1 57.461046945777341 1.1218791911360277 3.4477175190664071 #
plane-surface $-1 58.229316080202643 0 0 -1 0 0 0 0 1 forward_v I I I I #
coedge $-1 $368 $272 $275 $376 forward $265 $-1 #
coedge $-1 $272 $368 $267 $367 reversed $265 $-1 #
edge $-1 $373 -5.4157609671822282 $380 5.4157609671822282 $366 $430 forward 7 unknown #
coedge $-1 $366 $365 $268 $369 reversed $265 $-1 #
edge $-1 $380 -58.229316080202643 $370 58.229316080202643 $368 $431 forward 7 unknown #
vertex $-1 $270 $432 #
straight-curve $-1 58.229316080202643 0 -5.4157609671822282 0 -1 0 I I #
edge $-1 $373 -26.590682771425158 $283 26.590682771425158 $281 $433 forward 7 unknown #
vertex $-1 $273 $434 #
straight-curve $-1 0 26.590682771425158 5.4157609671822282 -1 0 0 I I #
straight-curve $-1 0 -26.590682771425158 5.4157609671822282 1 0 0 I I #
edge $-1 $278 -5.4157609671822282 $370 5.4157609671822282 $275 $435 forward 7 unknown #
point $-1 58.229316080202643 -26.590682771425158 5.4157609671822282 #
point $-1 58.229316080202643 26.590682771425158 5.4157609671822282 #
point $-1 -58.229316080202643 -26.590682771425158 5.4157609671822282 #
vertex $-1 $369 $436 #
straight-curve $-1 -58.229316080202643 0 -5.4157609671822282 0 1 0 I I #
plane-surface $-1 0 0 -5.4157609671822282 0 0 1 1 0 0 forward_v I I I I #
coedge $-1 $397 $290 $395 $437 reversed $198 $-1 #
coedge $-1 $290 $397 $294 $389 reversed $198 $-1 #
coedge $-1 $292 $291 $290 $386 reversed $122 $-1 #
edge $-1 $390 -5.4157609671822282 $438 5.4157609671822282 $385 $439 forward 7 unknown #
edge $-1 $438 -31.13376361557193 $302 -26.590682771425158 $291 $440 forward 7 unknown #
straight-curve $-1 -58.229316080202643 -26.590682771425158 0 0 0 -1 I I #
edge $-1 $390 -1.5 $392 1.5 $384 $441 forward 7 unknown #
vertex $-1 $295 $442 #
straight-curve $-1 -58.229316080202643 0 5.4157609671822282 0 -1 0 I I #
vertex $-1 $296 $443 #
straight-curve $-1 -55.229316080202643 -28.862223193498544 5.4157609671822282 0 1 0 I I #
point $-1 -58.229316080202643 -26.590682771425158 5.4157609671822282 #
coedge $-1 $300 $299 $383 $437 forward $301 $-1 #
point $-1 -58.229316080202643 -26.590682771425158 -5.4157609671822282 #
coedge $-1 $384 $383 $304 $398 reversed $198 $-1 #
edge $-1 $392 -5.4157609671822282 $399 5.4157609671822282 $304 $444 forward 7 unknown #
vertex $-1 $398 $445 #
straight-curve $-1 -55.229316080202643 -28.862223193498544 -5.4157609671822282 0 -1 0 I I #
edge $-1 $402 39.238815198017711 $405 43.237868418217523 $309 $446 forward 7 unknown #
vertex $-1 $323 $447 #
straight-curve $-1 -67.316527071025305 5.2314290022252319 5.41576096718223 -1 0 0 I I #
edge $-1 $405 -6.2589973652598747 $320 8.3141340913291604 $319 $448 forward 7 unknown #
vertex $-1 $404 $449 #
straight-curve $-1 -58.229316080202622 5.2314290022252319 1.4167077469824392 0.75470957328743171 0 0.6560590369687036 I I #
point $-1 -53.628931695108498 5.2314290022252319 5.4157609671822282 #
point $-1 -58.229316080202643 -9.3417024543638032 1.4167077469824207 #
straight-curve $-1 -58.229316080202643 0 5.4157609671822282 0 -1 0 I I #
vertex $-1 $326 $450 #
point $-1 -54.496822885967383 -6.4270761630459994 2.5306871043722485 #
vertex $-1 $330 $451 #
point $-1 -54.496822885967383 -2.0551367260692892 2.5306871043722485 #
vertex $-1 $334 $452 #
point $-1 -54.496822885967383 2.316802710907421 2.5306871043722485 #
coedge $-1 $349 $348 $341 $417 forward $338 $-1 #
edge $-1 $418 76.57430581240952 $421 79.681355128012058 $416 $453 forward 7 unknown #
vertex $-1 $353 $454 #
straight-curve $-1 44.827529735933496 -6.8715208902627278 5.4157609671822229 1 0 0 I I #
edge $-1 $421 -6.2334504736209286 $350 4.9573096403373302 $349 $455 forward 7 unknown #
vertex $-1 $420 $456 #
straight-curve $-1 -6.8935231777670793 -6.8715208902627278 98.857294301213756 -0.55919289150049634 0 0.82903758062907751 I I #
point $-1 56.133584919851572 -6.8715208902627278 5.4157609671822229 #
point $-1 58.229316080202651 4.319239223695531 2.3087116515796851 #
straight-curve $-1 58.229316080202643 0 5.4157609671822282 0 1 0 I I #
vertex $-1 $356 $457 #
point $-1 56.632009365148264 -3.6741608577032245 2.8885246275659107 #
vertex $-1 $360 $458 #
point $-1 56.632009365148264 1.1218791911360277 2.8885246275659107 #
straight-curve $-1 -58.229316080202643 26.590682771425158 0 0 0 -1 I I #
straight-curve $-1 0 26.590682771425158 -5.4157609671822282 1 0 0 I I #
point $-1 58.229316080202643 26.590682771425158 -5.4157609671822282 #
straight-curve $-1 -58.229316080202643 0 5.4157609671822282 0 -1 0 I I #
point $-1 -58.229316080202643 26.590682771425158 5.4157609671822282 #
straight-curve $-1 58.229316080202643 26.590682771425158 0 0 0 -1 I I #
point $-1 -58.229316080202643 26.590682771425158 -5.4157609671822282 #
edge $-1 $399 -1.5 $438 1.5 $383 $459 forward 7 unknown #
vertex $-1 $387 $460 #
straight-curve $-1 -58.229316080202643 -31.13376361557193 0 0 0 -1 I I #
straight-curve $-1 -58.229316080202643 0 -5.4157609671822282 0 1 0 I I #
straight-curve $-1 -56.729316080202643 -31.13376361557193 5.4157609671822282 1 0 0 I I #
point $-1 -58.229316080202643 -31.13376361557193 5.4157609671822282 #
point $-1 -55.229316080202643 -31.13376361557193 5.4157609671822282 #
straight-curve $-1 -55.229316080202643 -31.13376361557193 0 0 0 -1 I I #
point $-1 -55.229316080202643 -31.13376361557193 -5.4157609671822282 #
straight-curve $-1 -58.229316080202643 5.2314290022252319 44.654576165199941 0 0 -1 I I #
point $-1 -58.229316080202643 5.2314290022252319 5.4157609671822282 #
straight-curve $-1 -58.229316080202643 -1.0275683630346428 1.4167077469824254 0 -1 0 I I #
point $-1 -58.229316080202643 5.2314290022252319 1.4167077469824207 #
point $-1 -54.546148154126747 -6.4270761630459994 1.8253027992441808 #
point $-1 -54.546148154126747 -2.0551367260692892 1.8253027992441808 #
point $-1 -54.546148154126747 2.316802710907421 1.8253027992441808 #
straight-curve $-1 58.229316080202643 -6.8715208902627278 81.990066779591743 0 0 -1 I I #
point $-1 58.229316080202643 -6.8715208902627278 5.4157609671822282 #
straight-curve $-1 58.229316080202651 -0.6380704166417992 2.3087116515796708 0 1 0 I I #
point $-1 58.229316080202651 -6.8715208902627278 2.3087116515796851 #
point $-1 55.937894129083475 -3.6741608577032245 3.0234469721302015 #
point $-1 55.937894129083475 1.1218791911360277 3.0234469721302015 #
straight-curve $-1 -56.729316080202643 -31.13376361557193 -5.4157609671822282 -1 0 0 I I #
point $-1 -58.229316080202643 -31.13376361557193 -5.4157609671822282 #
End-of-ACIS-data 