500 0 18 0           
7 Unknown 11 ACIS 5.0 NT 24 Fri Mar 26 18:34:08 1999 
-1 9.9999999999999995e-007 1e-010 
body $-1 $18 $-1 $19 #
body $-1 $20 $-1 $21 #
body $-1 $22 $-1 $23 #
body $-1 $24 $-1 $25 #
body $-1 $26 $-1 $27 #
body $-1 $28 $-1 $29 #
body $-1 $30 $-1 $31 #
body $-1 $32 $-1 $33 #
body $-1 $34 $-1 $35 #
body $-1 $36 $-1 $37 #
body $-1 $38 $-1 $39 #
body $-1 $40 $-1 $41 #
body $-1 $42 $-1 $43 #
body $-1 $44 $-1 $45 #
body $-1 $46 $-1 $47 #
body $-1 $48 $-1 $49 #
body $-1 $50 $-1 $51 #
body $-1 $52 $-1 $53 #
lump $-1 $-1 $54 $0 #
transform $-1 1 0 0 0 1 0 0 0 1 46.504104739524522 30.447010998489134 8.7632606197317742 1 rotate no_reflect no_shear #
lump $-1 $-1 $55 $1 #
transform $-1 1 0 0 0 1 0 0 0 1 46.504104739524522 30.447010998489134 8.7632606197317742 1 rotate no_reflect no_shear #
lump $-1 $-1 $56 $2 #
transform $-1 1 0 0 0 1 0 0 0 1 46.504104739524522 30.447010998489134 8.7632606197317742 1 rotate no_reflect no_shear #
lump $-1 $-1 $57 $3 #
transform $-1 1 0 0 0 1 0 0 0 1 46.504104739524522 30.447010998489134 8.7632606197317742 1 rotate no_reflect no_shear #
lump $-1 $-1 $58 $4 #
transform $-1 1 0 0 0 1 0 0 0 1 46.504104739524522 30.447010998489134 8.7632606197317742 1 rotate no_reflect no_shear #
lump $-1 $-1 $59 $5 #
transform $-1 1 0 0 0 1 0 0 0 1 46.504104739524522 30.447010998489134 8.7632606197317742 1 rotate no_reflect no_shear #
lump $-1 $-1 $60 $6 #
transform $-1 1 0 0 0 1 0 0 0 1 46.504104739524522 30.447010998489134 8.7632606197317742 1 rotate no_reflect no_shear #
lump $-1 $-1 $61 $7 #
transform $-1 1 0 0 0 1 0 0 0 1 46.504104739524522 30.447010998489134 8.7632606197317742 1 rotate no_reflect no_shear #
lump $-1 $-1 $62 $8 #
transform $-1 1 0 0 0 1 0 0 0 1 46.504104739524522 30.447010998489134 8.7632606197317742 1 rotate no_reflect no_shear #
lump $-1 $-1 $63 $9 #
transform $-1 1 0 0 0 1 0 0 0 1 46.504104739524522 30.447010998489134 8.7632606197317742 1 rotate no_reflect no_shear #
lump $-1 $-1 $64 $10 #
transform $-1 1 0 0 0 1 0 0 0 1 46.504104739524522 30.447010998489134 8.7632606197317742 1 rotate no_reflect no_shear #
lump $-1 $-1 $65 $11 #
transform $-1 1 0 0 0 1 0 0 0 1 46.504104739524522 30.447010998489134 8.7632606197317742 1 rotate no_reflect no_shear #
lump $-1 $-1 $66 $12 #
transform $-1 1 0 0 0 1 0 0 0 1 46.504104739524522 30.447010998489134 8.7632606197317742 1 rotate no_reflect no_shear #
lump $-1 $-1 $67 $13 #
transform $-1 1 0 0 0 1 0 0 0 1 46.504104739524522 30.447010998489134 8.7632606197317742 1 rotate no_reflect no_shear #
lump $-1 $-1 $68 $14 #
transform $-1 1 0 0 0 1 0 0 0 1 46.504104739524522 30.447010998489134 8.7632606197317742 1 rotate no_reflect no_shear #
lump $-1 $-1 $69 $15 #
transform $-1 1 0 0 0 1 0 0 0 1 46.504104739524522 30.447010998489134 8.7632606197317742 1 rotate no_reflect no_shear #
lump $-1 $-1 $70 $16 #
transform $-1 1 0 0 0 1 0 0 0 1 46.504104739524522 30.447010998489134 8.7632606197317742 1 rotate no_reflect no_shear #
lump $-1 $-1 $71 $17 #
transform $-1 1 0 0 0 1 0 0 0 1 46.504104739524522 30.447010998489134 8.7632606197317742 1 rotate no_reflect no_shear #
shell $-1 $-1 $-1 $72 $-1 $18 #
shell $-1 $-1 $-1 $73 $-1 $20 #
shell $-1 $-1 $-1 $74 $-1 $22 #
shell $-1 $-1 $-1 $75 $-1 $24 #
shell $-1 $-1 $-1 $76 $-1 $26 #
shell $-1 $-1 $-1 $77 $-1 $28 #
shell $-1 $-1 $-1 $78 $-1 $30 #
shell $-1 $-1 $-1 $79 $-1 $32 #
shell $-1 $-1 $-1 $80 $-1 $34 #
shell $-1 $-1 $-1 $81 $-1 $36 #
shell $-1 $-1 $-1 $82 $-1 $38 #
shell $-1 $-1 $-1 $83 $-1 $40 #
shell $-1 $-1 $-1 $84 $-1 $42 #
shell $-1 $-1 $-1 $85 $-1 $44 #
shell $-1 $-1 $-1 $86 $-1 $46 #
shell $-1 $-1 $-1 $87 $-1 $48 #
shell $-1 $-1 $-1 $88 $-1 $50 #
shell $-1 $-1 $-1 $89 $-1 $52 #
face $-1 $90 $91 $54 $-1 $92 forward single #
face $-1 $93 $94 $55 $-1 $95 forward single #
face $-1 $96 $97 $56 $-1 $98 reversed single #
face $-1 $99 $100 $57 $-1 $101 forward single #
face $-1 $102 $103 $58 $-1 $104 forward single #
face $-1 $105 $106 $59 $-1 $107 forward single #
face $-1 $108 $109 $60 $-1 $110 reversed single #
face $-1 $111 $112 $61 $-1 $113 forward single #
face $-1 $114 $115 $62 $-1 $116 forward single #
face $-1 $117 $118 $63 $-1 $119 forward single #
face $-1 $120 $121 $64 $-1 $122 reversed single #
face $-1 $123 $124 $65 $-1 $125 forward single #
face $-1 $126 $127 $66 $-1 $128 forward single #
face $-1 $129 $130 $67 $-1 $131 forward single #
face $-1 $132 $133 $68 $-1 $134 reversed single #
face $-1 $135 $136 $69 $-1 $137 forward single #
face $-1 $138 $139 $70 $-1 $140 forward single #
face $-1 $141 $142 $71 $-1 $143 forward single #
face $-1 $144 $145 $54 $-1 $146 reversed single #
loop $-1 $-1 $147 $72 #
plane-surface $-1 0 0 8.7632606197317742 0 0 1 1 0 0 forward_v I I I I #
face $-1 $148 $149 $55 $-1 $150 reversed single #
loop $-1 $-1 $151 $73 #
plane-surface $-1 -43.150562931625494 0 1.5179501242317017 0 0 1 1 0 0 forward_v I I I I #
face $-1 $152 $153 $56 $-1 $154 reversed single #
loop $-1 $-1 $155 $74 #
plane-surface $-1 -11.749747819058566 -87.708583181846919 73.827041929245411 1 0 0 0 0.61566148304635926 -0.78801074757464917 forward_v I I I I #
face $-1 $156 $157 $57 $-1 $158 forward single #
loop $-1 $159 $160 $75 #
cone-surface $-1 -8.7290898936670516 -24.181003887496821 3.3688002668292274 0 0.61566148304635926 -0.78801074757464917 1 0 0 1 I I 0 1 1 forward I I I I #
face $-1 $161 $162 $58 $-1 $163 forward single #
loop $-1 $164 $165 $76 #
cone-surface $-1 -4.1981030055797746 -24.181003887496821 3.3688002668292274 0 0.61566148304635926 -0.78801074757464917 1 0 0 1 I I 0 1 1 forward I I I I #
face $-1 $166 $167 $59 $-1 $168 forward single #
loop $-1 $169 $170 $77 #
cone-surface $-1 0.33288388250750245 -24.181003887496821 3.3688002668292274 0 0.61566148304635926 -0.78801074757464917 1 0 0 1 I I 0 1 1 forward I I I I #
face $-1 $171 $172 $60 $-1 $173 reversed single #
loop $-1 $-1 $174 $78 #
plane-surface $-1 31.400815112566935 -87.708583181846919 73.827041929245411 1 0 0 0 0.61566148304635926 -0.78801074757464917 forward_v I I I I #
face $-1 $175 $176 $61 $-1 $177 forward single #
loop $-1 $178 $179 $79 #
cone-surface $-1 34.421473037958449 -24.181003887496821 3.3688002668292274 0 0.61566148304635926 -0.78801074757464917 1 0 0 1 I I 0 1 1 forward I I I I #
face $-1 $180 $181 $62 $-1 $182 forward single #
loop $-1 $183 $184 $80 #
cone-surface $-1 38.952459926045719 -24.181003887496821 3.3688002668292274 0 0.61566148304635926 -0.78801074757464917 1 0 0 1 I I 0 1 1 forward I I I I #
face $-1 $185 $186 $63 $-1 $187 forward single #
loop $-1 $188 $189 $81 #
cone-surface $-1 43.483446814132989 -24.181003887496821 3.3688002668292274 0 0.61566148304635926 -0.78801074757464917 1 0 0 1 I I 0 1 1 forward I I I I #
face $-1 $190 $191 $64 $-1 $192 reversed single #
loop $-1 $-1 $193 $82 #
plane-surface $-1 -11.749747819058566 39.723439385180939 111.31714582056267 1 0 0 0 -0.61566148304635926 -0.78801074757464917 forward_v I I I I #
face $-1 $194 $195 $65 $-1 $196 forward single #
loop $-1 $197 $198 $83 #
cone-surface $-1 -8.7290898936670516 24.181003887496821 3.3688002668292221 0 -0.61566148304635926 -0.78801074757464917 1 0 0 1 I I 0 1 1 forward I I I I #
face $-1 $199 $200 $66 $-1 $201 forward single #
loop $-1 $202 $203 $84 #
cone-surface $-1 -4.1981030055797746 24.181003887496821 3.3688002668292221 0 -0.61566148304635926 -0.78801074757464917 1 0 0 1 I I 0 1 1 forward I I I I #
face $-1 $204 $205 $67 $-1 $206 forward single #
loop $-1 $207 $208 $85 #
cone-surface $-1 0.33288388250750245 24.181003887496821 3.3688002668292221 0 -0.61566148304635926 -0.78801074757464917 1 0 0 1 I I 0 1 1 forward I I I I #
face $-1 $209 $210 $68 $-1 $211 reversed single #
loop $-1 $-1 $212 $86 #
plane-surface $-1 31.400815112566935 39.723439385180939 111.31714582056267 1 0 0 0 -0.61566148304635926 -0.78801074757464917 forward_v I I I I #
face $-1 $213 $214 $69 $-1 $215 forward single #
loop $-1 $216 $217 $87 #
cone-surface $-1 34.421473037958449 24.181003887496821 3.3688002668292221 0 -0.61566148304635926 -0.78801074757464917 1 0 0 1 I I 0 1 1 forward I I I I #
face $-1 $218 $219 $70 $-1 $220 forward single #
loop $-1 $221 $222 $88 #
cone-surface $-1 38.952459926045719 24.181003887496821 3.3688002668292221 0 -0.61566148304635926 -0.78801074757464917 1 0 0 1 I I 0 1 1 forward I I I I #
face $-1 $223 $224 $71 $-1 $225 forward single #
loop $-1 $226 $227 $89 #
cone-surface $-1 43.483446814132989 24.181003887496821 3.3688002668292221 0 -0.61566148304635926 -0.78801074757464917 1 0 0 1 I I 0 1 1 forward I I I I #
face $-1 $228 $229 $54 $-1 $230 reversed single #
loop $-1 $-1 $231 $90 #
plane-surface $-1 0 0 -8.7632606197317742 0 0 1 1 0 0 forward_v I I I I #
coedge $-1 $232 $233 $234 $235 forward $91 $-1 #
face $-1 $236 $237 $55 $-1 $238 reversed single #
loop $-1 $-1 $239 $93 #
plane-surface $-1 -43.150562931625494 0 -2.6748396349706334 0 0 1 1 0 0 forward_v I I I I #
coedge $-1 $240 $241 $242 $243 forward $94 $-1 #
face $-1 $244 $245 $56 $-1 $246 reversed single #
loop $-1 $-1 $247 $96 #
plane-surface $-1 -4.1981030055797675 -30.447010998489134 0.5355732470804071 0 -0.61566148304635926 0.78801074757464917 1 0 0 forward_v I I I I #
coedge $-1 $248 $249 $250 $251 reversed $97 $-1 #
face $-1 $-1 $252 $57 $-1 $253 forward single #
loop $-1 $254 $255 $99 #
cone-surface $-1 -8.7290898936670516 -22.872645731106239 1.6941782264650467 0 0.61566148304635926 -0.78801074757464917 0.5 0 0 1 I I -0.70710678118654746 0.70710678118654746 0.5 forward I I I I #
loop $-1 $-1 $256 $75 #
coedge $-1 $160 $160 $257 $258 reversed $100 $-1 #
face $-1 $-1 $259 $58 $-1 $260 forward single #
loop $-1 $261 $262 $102 #
cone-surface $-1 -4.1981030055797746 -22.872645731106239 1.6941782264650467 0 0.61566148304635926 -0.78801074757464917 0.5 0 0 1 I I -0.70710678118654746 0.70710678118654746 0.5 forward I I I I #
loop $-1 $-1 $263 $76 #
coedge $-1 $165 $165 $264 $265 reversed $103 $-1 #
face $-1 $-1 $266 $59 $-1 $267 forward single #
loop $-1 $268 $269 $105 #
cone-surface $-1 0.33288388250750245 -22.872645731106239 1.6941782264650467 0 0.61566148304635926 -0.78801074757464917 0.5 0 0 1 I I -0.70710678118654746 0.70710678118654746 0.5 forward I I I I #
loop $-1 $-1 $270 $77 #
coedge $-1 $170 $170 $271 $272 reversed $106 $-1 #
face $-1 $273 $274 $60 $-1 $275 reversed single #
loop $-1 $-1 $276 $108 #
plane-surface $-1 38.952459926045734 -30.447010998489134 0.5355732470804071 0 -0.61566148304635926 0.78801074757464917 1 0 0 forward_v I I I I #
coedge $-1 $277 $278 $279 $280 reversed $109 $-1 #
face $-1 $-1 $281 $61 $-1 $282 forward single #
loop $-1 $283 $284 $111 #
cone-surface $-1 34.421473037958449 -22.872645731106239 1.6941782264650467 0 0.61566148304635926 -0.78801074757464917 0.5 0 0 1 I I -0.70710678118654746 0.70710678118654746 0.5 forward I I I I #
loop $-1 $-1 $285 $79 #
coedge $-1 $179 $179 $286 $287 reversed $112 $-1 #
face $-1 $-1 $288 $62 $-1 $289 forward single #
loop $-1 $290 $291 $114 #
cone-surface $-1 38.952459926045719 -22.872645731106239 1.6941782264650467 0 0.61566148304635926 -0.78801074757464917 0.5 0 0 1 I I -0.70710678118654746 0.70710678118654746 0.5 forward I I I I #
loop $-1 $-1 $292 $80 #
coedge $-1 $184 $184 $293 $294 reversed $115 $-1 #
face $-1 $-1 $295 $63 $-1 $296 forward single #
loop $-1 $297 $298 $117 #
cone-surface $-1 43.483446814132989 -22.872645731106239 1.6941782264650467 0 0.61566148304635926 -0.78801074757464917 0.5 0 0 1 I I -0.70710678118654746 0.70710678118654746 0.5 forward I I I I #
loop $-1 $-1 $299 $81 #
coedge $-1 $189 $189 $300 $301 reversed $118 $-1 #
face $-1 $302 $303 $64 $-1 $304 reversed single #
loop $-1 $-1 $305 $120 #
plane-surface $-1 -4.1981030055797675 -17.538132798176846 38.025677138397668 0 0.61566148304635926 0.78801074757464917 1 0 0 forward_v I I I I #
coedge $-1 $306 $307 $308 $309 reversed $121 $-1 #
face $-1 $-1 $310 $65 $-1 $311 forward single #
loop $-1 $312 $313 $123 #
cone-surface $-1 -8.7290898936670516 22.872645731106239 1.6941782264650413 0 -0.61566148304635926 -0.78801074757464917 0.5 0 0 1 I I -0.70710678118654746 0.70710678118654746 0.5 forward I I I I #
loop $-1 $-1 $314 $83 #
coedge $-1 $198 $198 $315 $316 reversed $124 $-1 #
face $-1 $-1 $317 $66 $-1 $318 forward single #
loop $-1 $319 $320 $126 #
cone-surface $-1 -4.1981030055797746 22.872645731106239 1.6941782264650413 0 -0.61566148304635926 -0.78801074757464917 0.5 0 0 1 I I -0.70710678118654746 0.70710678118654746 0.5 forward I I I I #
loop $-1 $-1 $321 $84 #
coedge $-1 $203 $203 $322 $323 reversed $127 $-1 #
face $-1 $-1 $324 $67 $-1 $325 forward single #
loop $-1 $326 $327 $129 #
cone-surface $-1 0.33288388250750245 22.872645731106239 1.6941782264650413 0 -0.61566148304635926 -0.78801074757464917 0.5 0 0 1 I I -0.70710678118654746 0.70710678118654746 0.5 forward I I I I #
loop $-1 $-1 $328 $85 #
coedge $-1 $208 $208 $329 $330 reversed $130 $-1 #
face $-1 $331 $332 $68 $-1 $333 forward single #
loop $-1 $-1 $334 $132 #
plane-surface $-1 38.952459926045734 -17.538132798176846 38.025677138397668 0 0.61566148304635926 0.78801074757464917 1 0 0 forward_v I I I I #
coedge $-1 $335 $336 $337 $338 reversed $133 $-1 #
face $-1 $-1 $339 $69 $-1 $340 forward single #
loop $-1 $341 $342 $135 #
cone-surface $-1 34.421473037958449 22.872645731106239 1.6941782264650413 0 -0.61566148304635926 -0.78801074757464917 0.5 0 0 1 I I -0.70710678118654746 0.70710678118654746 0.5 forward I I I I #
loop $-1 $-1 $343 $87 #
coedge $-1 $217 $217 $344 $345 reversed $136 $-1 #
face $-1 $-1 $346 $70 $-1 $347 forward single #
loop $-1 $348 $349 $138 #
cone-surface $-1 38.952459926045719 22.872645731106239 1.6941782264650413 0 -0.61566148304635926 -0.78801074757464917 0.5 0 0 1 I I -0.70710678118654746 0.70710678118654746 0.5 forward I I I I #
loop $-1 $-1 $350 $88 #
coedge $-1 $222 $222 $351 $352 reversed $139 $-1 #
face $-1 $-1 $353 $71 $-1 $354 forward single #
loop $-1 $355 $356 $141 #
cone-surface $-1 43.483446814132989 22.872645731106239 1.6941782264650413 0 -0.61566148304635926 -0.78801074757464917 0.5 0 0 1 I I -0.70710678118654746 0.70710678118654746 0.5 forward I I I I #
loop $-1 $-1 $357 $89 #
coedge $-1 $227 $227 $358 $359 reversed $142 $-1 #
face $-1 $360 $361 $54 $-1 $362 reversed single #
loop $-1 $-1 $363 $144 #
plane-surface $-1 0 -30.447010998489134 0 0 1 0 0 0 1 forward_v I I I I #
coedge $-1 $364 $365 $366 $367 forward $145 $-1 #
coedge $-1 $368 $147 $369 $370 forward $91 $-1 #
coedge $-1 $147 $368 $371 $372 forward $91 $-1 #
coedge $-1 $373 $374 $147 $235 reversed $375 $-1 #
edge $-1 $376 -30.447010998489134 $377 30.447010998489134 $234 $378 forward 7 unknown #
face $-1 $379 $380 $55 $-1 $381 reversed single #
loop $-1 $-1 $382 $148 #
plane-surface $-1 -39.797021123726466 0 -0.57844475536946582 -1 0 0 0 0 1 forward_v I I I I #
coedge $-1 $383 $384 $385 $386 forward $149 $-1 #
coedge $-1 $387 $151 $388 $389 reversed $94 $-1 #
coedge $-1 $151 $387 $390 $391 reversed $94 $-1 #
coedge $-1 $382 $392 $151 $243 reversed $237 $-1 #
edge $-1 $393 -30.447010998489134 $394 30.447010998489134 $242 $395 forward 7 unknown #
face $-1 $396 $397 $56 $-1 $398 forward single #
loop $-1 $-1 $399 $152 #
plane-surface $-1 3.3535418078990311 -87.708583181846919 73.827041929245411 -1 0 0 0 -0.61566148304635926 0.78801074757464917 forward_v I I I I #
coedge $-1 $400 $401 $402 $403 reversed $153 $-1 #
coedge $-1 $249 $155 $404 $405 reversed $97 $-1 #
coedge $-1 $155 $248 $400 $406 reversed $97 $-1 #
coedge $-1 $402 $407 $155 $251 forward $408 $-1 #
edge $-1 $409 28.150260344890931 $410 36.377947717542298 $250 $411 forward 7 unknown #
loop $-1 $-1 $257 $156 #
plane-surface $-1 -4.1981030055797675 -30.447010998489134 0.5355732470804071 0 -0.61566148304635926 0.78801074757464917 1 0 0 forward_v I I I I #
loop $-1 $-1 $412 $99 #
coedge $-1 $255 $255 $256 $413 reversed $157 $-1 #
coedge $-1 $256 $256 $255 $413 forward $159 $-1 #
coedge $-1 $257 $257 $160 $258 forward $252 $-1 #
edge $-1 $414 1.2246151792417231e-015 $414 6.2831853071796013 $257 $415 forward 7 unknown #
loop $-1 $-1 $264 $161 #
plane-surface $-1 -4.1981030055797675 -30.447010998489134 0.5355732470804071 0 -0.61566148304635926 0.78801074757464917 1 0 0 forward_v I I I I #
loop $-1 $-1 $416 $102 #
coedge $-1 $262 $262 $263 $417 reversed $162 $-1 #
coedge $-1 $263 $263 $262 $417 forward $164 $-1 #
coedge $-1 $264 $264 $165 $265 forward $259 $-1 #
edge $-1 $418 1.2246151792417231e-015 $418 6.2831853071796013 $264 $419 forward 7 unknown #
loop $-1 $-1 $271 $166 #
plane-surface $-1 -4.1981030055797675 -30.447010998489134 0.5355732470804071 0 -0.61566148304635926 0.78801074757464917 1 0 0 forward_v I I I I #
loop $-1 $-1 $420 $105 #
coedge $-1 $269 $269 $270 $421 reversed $167 $-1 #
coedge $-1 $270 $270 $269 $421 forward $169 $-1 #
coedge $-1 $271 $271 $170 $272 forward $266 $-1 #
edge $-1 $422 1.2246151792417231e-015 $422 6.2831853071796013 $271 $423 forward 7 unknown #
face $-1 $424 $425 $60 $-1 $426 forward single #
loop $-1 $-1 $279 $171 #
plane-surface $-1 0 -30.447010998489134 0 0 1 0 0 0 1 forward_v I I I I #
coedge $-1 $427 $428 $429 $430 reversed $172 $-1 #
coedge $-1 $278 $174 $431 $432 reversed $109 $-1 #
coedge $-1 $174 $277 $427 $433 reversed $109 $-1 #
coedge $-1 $429 $434 $174 $280 forward $274 $-1 #
edge $-1 $435 28.150260344890931 $436 36.377947717542298 $279 $437 forward 7 unknown #
loop $-1 $-1 $286 $175 #
plane-surface $-1 38.952459926045734 -30.447010998489134 0.5355732470804071 0 -0.61566148304635926 0.78801074757464917 1 0 0 forward_v I I I I #
loop $-1 $-1 $438 $111 #
coedge $-1 $284 $284 $285 $439 reversed $176 $-1 #
coedge $-1 $285 $285 $284 $439 forward $178 $-1 #
coedge $-1 $286 $286 $179 $287 forward $281 $-1 #
edge $-1 $440 1.2246151792417231e-015 $440 6.2831853071796013 $286 $441 forward 7 unknown #
loop $-1 $-1 $293 $180 #
plane-surface $-1 38.952459926045734 -30.447010998489134 0.5355732470804071 0 -0.61566148304635926 0.78801074757464917 1 0 0 forward_v I I I I #
loop $-1 $-1 $442 $114 #
coedge $-1 $291 $291 $292 $443 reversed $181 $-1 #
coedge $-1 $292 $292 $291 $443 forward $183 $-1 #
coedge $-1 $293 $293 $184 $294 forward $288 $-1 #
edge $-1 $444 1.2246151792417231e-015 $444 6.2831853071796013 $293 $445 forward 7 unknown #
loop $-1 $-1 $300 $185 #
plane-surface $-1 38.952459926045734 -30.447010998489134 0.5355732470804071 0 -0.61566148304635926 0.78801074757464917 1 0 0 forward_v I I I I #
loop $-1 $-1 $446 $117 #
coedge $-1 $298 $298 $299 $447 reversed $186 $-1 #
coedge $-1 $299 $299 $298 $447 forward $188 $-1 #
coedge $-1 $300 $300 $189 $301 forward $295 $-1 #
edge $-1 $448 1.2246151792417231e-015 $448 6.2831853071796013 $300 $449 forward 7 unknown #
face $-1 $450 $451 $64 $-1 $452 reversed single #
loop $-1 $-1 $453 $190 #
plane-surface $-1 3.3535418078990311 39.723439385180939 111.31714582056267 -1 0 0 0 0.61566148304635926 0.78801074757464917 forward_v I I I I #
coedge $-1 $454 $455 $456 $457 reversed $191 $-1 #
coedge $-1 $307 $193 $458 $459 reversed $121 $-1 #
coedge $-1 $193 $306 $454 $460 reversed $121 $-1 #
coedge $-1 $456 $461 $193 $309 forward $462 $-1 #
edge $-1 $463 -10.585291305898664 $464 -0.054331913648844932 $308 $465 forward 7 unknown #
loop $-1 $-1 $315 $194 #
plane-surface $-1 -4.1981030055797675 -17.538132798176846 38.025677138397668 0 0.61566148304635926 0.78801074757464917 1 0 0 forward_v I I I I #
loop $-1 $-1 $466 $123 #
coedge $-1 $313 $313 $314 $467 reversed $195 $-1 #
coedge $-1 $314 $314 $313 $467 forward $197 $-1 #
coedge $-1 $315 $315 $198 $316 forward $310 $-1 #
edge $-1 $468 -1.7714324223240742e-015 $468 6.2831853071795987 $315 $469 forward 7 unknown #
loop $-1 $-1 $322 $199 #
plane-surface $-1 -4.1981030055797675 -17.538132798176846 38.025677138397668 0 0.61566148304635926 0.78801074757464917 1 0 0 forward_v I I I I #
loop $-1 $-1 $470 $126 #
coedge $-1 $320 $320 $321 $471 reversed $200 $-1 #
coedge $-1 $321 $321 $320 $471 forward $202 $-1 #
coedge $-1 $322 $322 $203 $323 forward $317 $-1 #
edge $-1 $472 -1.7714324223240742e-015 $472 6.2831853071795987 $322 $473 forward 7 unknown #
loop $-1 $-1 $329 $204 #
plane-surface $-1 -4.1981030055797675 -17.538132798176846 38.025677138397668 0 0.61566148304635926 0.78801074757464917 1 0 0 forward_v I I I I #
loop $-1 $-1 $474 $129 #
coedge $-1 $327 $327 $328 $475 reversed $205 $-1 #
coedge $-1 $328 $328 $327 $475 forward $207 $-1 #
coedge $-1 $329 $329 $208 $330 forward $324 $-1 #
edge $-1 $476 -1.7714324223240742e-015 $476 6.2831853071795987 $329 $477 forward 7 unknown #
face $-1 $478 $479 $68 $-1 $480 reversed single #
loop $-1 $-1 $337 $209 #
plane-surface $-1 0 0 8.7632606197317742 0 0 1 1 0 0 forward_v I I I I #
coedge $-1 $481 $482 $483 $484 reversed $210 $-1 #
coedge $-1 $336 $212 $485 $486 reversed $133 $-1 #
coedge $-1 $212 $335 $481 $487 reversed $133 $-1 #
coedge $-1 $483 $488 $212 $338 forward $332 $-1 #
edge $-1 $489 -10.585291305898664 $490 -0.054331913648844932 $337 $491 forward 7 unknown #
loop $-1 $-1 $344 $213 #
plane-surface $-1 38.952459926045734 -17.538132798176846 38.025677138397668 0 0.61566148304635926 0.78801074757464917 1 0 0 forward_v I I I I #
loop $-1 $-1 $492 $135 #
coedge $-1 $342 $342 $343 $493 reversed $214 $-1 #
coedge $-1 $343 $343 $342 $493 forward $216 $-1 #
coedge $-1 $344 $344 $217 $345 forward $339 $-1 #
edge $-1 $494 -1.7714324223240742e-015 $494 6.2831853071795987 $344 $495 forward 7 unknown #
loop $-1 $-1 $351 $218 #
plane-surface $-1 38.952459926045734 -17.538132798176846 38.025677138397668 0 0.61566148304635926 0.78801074757464917 1 0 0 forward_v I I I I #
loop $-1 $-1 $496 $138 #
coedge $-1 $349 $349 $350 $497 reversed $219 $-1 #
coedge $-1 $350 $350 $349 $497 forward $221 $-1 #
coedge $-1 $351 $351 $222 $352 forward $346 $-1 #
edge $-1 $498 -1.7714324223240742e-015 $498 6.2831853071795987 $351 $499 forward 7 unknown #
loop $-1 $-1 $358 $223 #
plane-surface $-1 38.952459926045734 -17.538132798176846 38.025677138397668 0 0.61566148304635926 0.78801074757464917 1 0 0 forward_v I I I I #
loop $-1 $-1 $500 $141 #
coedge $-1 $356 $356 $357 $501 reversed $224 $-1 #
coedge $-1 $357 $357 $356 $501 forward $226 $-1 #
coedge $-1 $358 $358 $227 $359 forward $353 $-1 #
edge $-1 $502 -1.7714324223240742e-015 $502 6.2831853071795987 $358 $503 forward 7 unknown #
face $-1 $504 $505 $54 $-1 $506 reversed single #
loop $-1 $-1 $507 $228 #
plane-surface $-1 -46.504104739524522 0 0 1 0 0 0 0 -1 forward_v I I I I #
coedge $-1 $508 $371 $509 $510 forward $229 $-1 #
coedge $-1 $511 $231 $508 $512 forward $145 $-1 #
coedge $-1 $231 $511 $513 $514 forward $145 $-1 #
coedge $-1 $374 $373 $231 $367 reversed $375 $-1 #
edge $-1 $515 -30.447010998489134 $516 30.447010998489134 $366 $517 forward 7 unknown #
coedge $-1 $233 $232 $518 $519 forward $91 $-1 #
coedge $-1 $520 $521 $232 $370 reversed $505 $-1 #
edge $-1 $377 -46.504104739524522 $522 46.504104739524522 $369 $523 forward 7 unknown #
coedge $-1 $363 $524 $233 $372 reversed $229 $-1 #
edge $-1 $525 -46.504104739524522 $376 46.504104739524522 $371 $526 forward 7 unknown #
coedge $-1 $366 $234 $524 $527 forward $375 $-1 #
coedge $-1 $234 $366 $520 $528 reversed $375 $-1 #
loop $-1 $-1 $373 $504 #
vertex $-1 $235 $529 #
vertex $-1 $235 $530 #
straight-curve $-1 46.504104739524522 0 8.7632606197317742 0 1 0 I I #
face $-1 $531 $532 $55 $-1 $533 reversed single #
loop $-1 $-1 $534 $236 #
plane-surface $-1 0 -30.447010998489134 0 0 1 0 0 0 1 forward_v I I I I #
coedge $-1 $385 $242 $535 $536 reversed $237 $-1 #
coedge $-1 $537 $239 $534 $538 reversed $149 $-1 #
coedge $-1 $239 $537 $539 $540 reversed $149 $-1 #
coedge $-1 $392 $382 $239 $386 reversed $237 $-1 #
edge $-1 $541 -30.447010998489134 $542 30.447010998489134 $385 $543 forward 7 unknown #
coedge $-1 $241 $240 $544 $545 reversed $94 $-1 #
coedge $-1 $546 $547 $240 $389 forward $548 $-1 #
edge $-1 $549 -24.928823273711775 $394 -18.221739657913719 $388 $550 forward 7 unknown #
coedge $-1 $551 $535 $241 $391 forward $380 $-1 #
edge $-1 $393 18.221739657913719 $552 24.928823273711775 $390 $553 forward 7 unknown #
coedge $-1 $242 $385 $546 $554 reversed $237 $-1 #
vertex $-1 $391 $555 #
vertex $-1 $389 $556 #
straight-curve $-1 -39.797021123726466 0 1.5179501242317017 0 1 0 I I #
face $-1 $-1 $408 $56 $-1 $557 reversed single #
loop $-1 $-1 $558 $244 #
plane-surface $-1 0 0 8.7632606197317742 0 0 1 1 0 0 forward_v I I I I #
coedge $-1 $559 $560 $561 $562 reversed $245 $-1 #
coedge $-1 $563 $247 $249 $406 forward $153 $-1 #
coedge $-1 $247 $563 $559 $564 forward $153 $-1 #
coedge $-1 $561 $250 $247 $403 forward $408 $-1 #
edge $-1 $410 -9.6506963162686823 $565 5.4525933106889148 $402 $566 forward 7 unknown #
coedge $-1 $567 $568 $248 $405 forward $397 $-1 #
edge $-1 $569 -23.938239984684138 $409 -13.407280592434326 $404 $570 forward 7 unknown #
edge $-1 $410 0 $569 13.363979393253391 $249 $571 forward 7 unknown #
coedge $-1 $250 $561 $567 $572 reversed $408 $-1 #
loop $-1 $-1 $561 $396 #
vertex $-1 $572 $573 #
vertex $-1 $251 $574 #
straight-curve $-1 -11.749747819058566 -30.447010998489134 36.913520964622705 0 0 -1 I I #
coedge $-1 $412 $412 $-1 $575 reversed $254 $-1 #
edge $-1 $576 0 $576 6.2831853071796004 $255 $577 forward 7 unknown #
vertex $-1 $258 $578 #
ellipse-curve $-1 -8.7290898936670516 -25.181531302364228 4.6494169334060906 0 -0.61566148304635926 0.78801074757464917 1 0 0 1 I I #
coedge $-1 $416 $416 $-1 $579 reversed $261 $-1 #
edge $-1 $580 0 $580 6.2831853071796004 $262 $581 forward 7 unknown #
vertex $-1 $265 $582 #
ellipse-curve $-1 -4.1981030055797746 -25.181531302364228 4.6494169334060906 0 -0.61566148304635926 0.78801074757464917 1 0 0 1 I I #
coedge $-1 $420 $420 $-1 $583 reversed $268 $-1 #
edge $-1 $584 0 $584 6.2831853071796004 $269 $585 forward 7 unknown #
vertex $-1 $272 $586 #
ellipse-curve $-1 0.33288388250750245 -25.181531302364228 4.6494169334060906 0 -0.61566148304635926 0.78801074757464917 1 0 0 1 I I #
face $-1 $-1 $587 $60 $-1 $588 reversed single #
loop $-1 $-1 $431 $273 #
plane-surface $-1 0 0 8.7632606197317742 0 0 1 1 0 0 forward_v I I I I #
coedge $-1 $589 $276 $278 $433 forward $172 $-1 #
coedge $-1 $276 $589 $590 $591 reversed $172 $-1 #
coedge $-1 $592 $279 $276 $430 forward $274 $-1 #
edge $-1 $436 11.924585149544068 $593 27.027874776501669 $429 $594 forward 7 unknown #
coedge $-1 $595 $596 $277 $432 forward $425 $-1 #
edge $-1 $597 -23.938239984684138 $435 -13.407280592434326 $431 $598 forward 7 unknown #
edge $-1 $436 0 $597 13.363979393253391 $278 $599 forward 7 unknown #
coedge $-1 $279 $592 $595 $600 reversed $274 $-1 #
vertex $-1 $600 $601 #
vertex $-1 $280 $602 #
straight-curve $-1 31.400815112566935 -30.447010998489134 36.913520964622705 0 0 -1 I I #
coedge $-1 $438 $438 $-1 $603 reversed $283 $-1 #
edge $-1 $604 0 $604 6.2831853071796004 $284 $605 forward 7 unknown #
vertex $-1 $287 $606 #
ellipse-curve $-1 34.421473037958449 -25.181531302364228 4.6494169334060906 0 -0.61566148304635926 0.78801074757464917 1 0 0 1 I I #
coedge $-1 $442 $442 $-1 $607 reversed $290 $-1 #
edge $-1 $608 0 $608 6.2831853071796004 $291 $609 forward 7 unknown #
vertex $-1 $294 $610 #
ellipse-curve $-1 38.952459926045719 -25.181531302364228 4.6494169334060906 0 -0.61566148304635926 0.78801074757464917 1 0 0 1 I I #
coedge $-1 $446 $446 $-1 $611 reversed $297 $-1 #
edge $-1 $612 0 $612 6.2831853071796004 $298 $613 forward 7 unknown #
vertex $-1 $301 $614 #
ellipse-curve $-1 43.483446814132989 -25.181531302364228 4.6494169334060906 0 -0.61566148304635926 0.78801074757464917 1 0 0 1 I I #
face $-1 $-1 $462 $64 $-1 $615 forward single #
loop $-1 $-1 $616 $302 #
plane-surface $-1 0 30.447010998489134 0 0 -1 0 0 0 -1 forward_v I I I I #
coedge $-1 $617 $618 $619 $620 reversed $303 $-1 #
coedge $-1 $621 $305 $307 $460 forward $191 $-1 #
coedge $-1 $305 $621 $617 $622 forward $191 $-1 #
coedge $-1 $619 $308 $305 $457 forward $462 $-1 #
edge $-1 $464 -9.6506963162686823 $623 5.4525933106889148 $456 $624 forward 7 unknown #
coedge $-1 $625 $626 $306 $459 forward $451 $-1 #
edge $-1 $627 -55.122999663200936 $463 -46.895312290549562 $458 $628 forward 7 unknown #
edge $-1 $464 47.530042603724866 $627 60.894021996978267 $307 $629 forward 7 unknown #
coedge $-1 $308 $619 $625 $630 forward $462 $-1 #
loop $-1 $-1 $619 $450 #
vertex $-1 $459 $631 #
vertex $-1 $309 $632 #
straight-curve $-1 -11.749747819058566 19.861719692590469 8.7632606197317742 0 -1 0 I I #
coedge $-1 $466 $466 $-1 $633 reversed $312 $-1 #
edge $-1 $634 0 $634 6.2831853071796004 $313 $635 forward 7 unknown #
vertex $-1 $316 $636 #
ellipse-curve $-1 -8.7290898936670516 25.181531302364228 4.6494169334060844 0 0.61566148304635926 0.78801074757464917 1 0 0 1 I I #
coedge $-1 $470 $470 $-1 $637 reversed $319 $-1 #
edge $-1 $638 0 $638 6.2831853071796004 $320 $639 forward 7 unknown #
vertex $-1 $323 $640 #
ellipse-curve $-1 -4.1981030055797746 25.181531302364228 4.6494169334060844 0 0.61566148304635926 0.78801074757464917 1 0 0 1 I I #
coedge $-1 $474 $474 $-1 $641 reversed $326 $-1 #
edge $-1 $642 0 $642 6.2831853071796004 $327 $643 forward 7 unknown #
vertex $-1 $330 $644 #
ellipse-curve $-1 0.33288388250750245 25.181531302364228 4.6494169334060844 0 0.61566148304635926 0.78801074757464917 1 0 0 1 I I #
face $-1 $-1 $645 $68 $-1 $646 reversed single #
loop $-1 $-1 $647 $331 #
plane-surface $-1 46.504104739524522 0 0 -1 0 0 0 0 1 forward_v I I I I #
coedge $-1 $648 $334 $336 $487 forward $210 $-1 #
coedge $-1 $334 $648 $647 $649 reversed $210 $-1 #
coedge $-1 $650 $337 $334 $484 forward $332 $-1 #
edge $-1 $490 11.924585149544068 $651 27.027874776501669 $483 $652 forward 7 unknown #
coedge $-1 $653 $654 $335 $486 forward $645 $-1 #
edge $-1 $655 -55.122999663200936 $489 -46.895312290549562 $485 $656 forward 7 unknown #
edge $-1 $490 47.530042603724866 $655 60.894021996978267 $336 $657 forward 7 unknown #
coedge $-1 $337 $650 $653 $658 forward $332 $-1 #
vertex $-1 $486 $659 #
vertex $-1 $338 $660 #
straight-curve $-1 31.400815112566935 19.861719692590469 8.7632606197317742 0 -1 0 I I #
coedge $-1 $492 $492 $-1 $661 reversed $341 $-1 #
edge $-1 $662 0 $662 6.2831853071796004 $342 $663 forward 7 unknown #
vertex $-1 $345 $664 #
ellipse-curve $-1 34.421473037958449 25.181531302364228 4.6494169334060844 0 0.61566148304635926 0.78801074757464917 1 0 0 1 I I #
coedge $-1 $496 $496 $-1 $665 reversed $348 $-1 #
edge $-1 $666 0 $666 6.2831853071796004 $349 $667 forward 7 unknown #
vertex $-1 $352 $668 #
ellipse-curve $-1 38.952459926045719 25.181531302364228 4.6494169334060844 0 0.61566148304635926 0.78801074757464917 1 0 0 1 I I #
coedge $-1 $500 $500 $-1 $669 reversed $355 $-1 #
edge $-1 $670 0 $670 6.2831853071796004 $356 $671 forward 7 unknown #
vertex $-1 $359 $672 #
ellipse-curve $-1 43.483446814132989 25.181531302364228 4.6494169334060844 0 0.61566148304635926 0.78801074757464917 1 0 0 1 I I #
face $-1 $-1 $375 $54 $-1 $673 reversed single #
loop $-1 $-1 $520 $360 #
plane-surface $-1 0 30.447010998489134 0 0 -1 0 0 0 -1 forward_v I I I I #
coedge $-1 $674 $518 $521 $675 forward $361 $-1 #
coedge $-1 $524 $363 $364 $512 reversed $229 $-1 #
coedge $-1 $518 $674 $363 $510 reversed $361 $-1 #
edge $-1 $525 -8.7632606197317742 $676 8.7632606197317742 $509 $677 forward 7 unknown #
coedge $-1 $365 $364 $674 $678 forward $145 $-1 #
edge $-1 $516 -46.504104739524522 $676 46.504104739524522 $508 $679 forward 7 unknown #
coedge $-1 $521 $520 $365 $514 reversed $505 $-1 #
edge $-1 $680 -46.504104739524522 $515 46.504104739524522 $513 $681 forward 7 unknown #
vertex $-1 $367 $682 #
vertex $-1 $527 $683 #
straight-curve $-1 46.504104739524522 0 -8.7632606197317742 0 -1 0 I I #
coedge $-1 $507 $509 $368 $519 reversed $361 $-1 #
edge $-1 $522 -30.447010998489134 $525 30.447010998489134 $518 $684 forward 7 unknown #
coedge $-1 $513 $369 $374 $528 forward $505 $-1 #
coedge $-1 $369 $513 $507 $675 reversed $505 $-1 #
vertex $-1 $370 $685 #
straight-curve $-1 0 30.447010998489134 8.7632606197317742 -1 0 0 I I #
coedge $-1 $371 $508 $373 $527 reversed $229 $-1 #
vertex $-1 $519 $686 #
straight-curve $-1 0 -30.447010998489134 8.7632606197317742 1 0 0 I I #
edge $-1 $376 -8.7632606197317742 $516 8.7632606197317742 $373 $687 forward 7 unknown #
edge $-1 $377 -8.7632606197317742 $515 8.7632606197317742 $374 $688 forward 7 unknown #
point $-1 46.504104739524522 -30.447010998489134 8.7632606197317742 #
point $-1 46.504104739524522 30.447010998489134 8.7632606197317742 #
face $-1 $-1 $548 $55 $-1 $689 reversed single #
loop $-1 $-1 $690 $379 #
plane-surface $-1 -46.504104739524522 0 0 1 0 0 0 0 -1 forward_v I I I I #
coedge $-1 $535 $551 $383 $538 forward $380 $-1 #
coedge $-1 $390 $534 $382 $536 forward $380 $-1 #
edge $-1 $542 -2.3856172572859005 $393 1.8071725019164346 $535 $691 forward 7 unknown #
coedge $-1 $384 $383 $690 $692 reversed $149 $-1 #
edge $-1 $693 -24.928823273711775 $542 -18.221739657913719 $534 $694 forward 7 unknown #
coedge $-1 $547 $546 $384 $540 forward $548 $-1 #
edge $-1 $541 18.221739657913719 $695 24.928823273711775 $539 $696 forward 7 unknown #
vertex $-1 $540 $697 #
vertex $-1 $538 $698 #
straight-curve $-1 -39.797021123726466 0 -2.6748396349706334 0 -1 0 I I #
coedge $-1 $699 $700 $387 $545 forward $532 $-1 #
edge $-1 $552 -30.447010998489134 $549 30.447010998489134 $544 $701 forward 7 unknown #
coedge $-1 $539 $388 $392 $554 forward $548 $-1 #
coedge $-1 $388 $539 $699 $702 reversed $548 $-1 #
loop $-1 $-1 $539 $531 #
vertex $-1 $702 $703 #
straight-curve $-1 -21.575281465812747 30.447010998489134 1.5179501242317017 1 0 0 I I #
coedge $-1 $534 $390 $700 $704 forward $380 $-1 #
vertex $-1 $704 $705 #
straight-curve $-1 -21.575281465812747 -30.447010998489134 1.5179501242317017 -1 0 0 I I #
edge $-1 $394 -1.8071725019164346 $541 2.3856172572859005 $546 $706 forward 7 unknown #
point $-1 -39.797021123726466 -30.447010998489134 1.5179501242317017 #
point $-1 -39.797021123726466 30.447010998489134 1.5179501242317017 #
plane-surface $-1 0 -30.447010998489134 0 0 1 0 0 0 1 forward_v I I I I #
coedge $-1 $568 $567 $560 $707 forward $397 $-1 #
coedge $-1 $560 $399 $401 $564 reversed $245 $-1 #
coedge $-1 $399 $559 $558 $707 reversed $245 $-1 #
coedge $-1 $407 $402 $399 $562 forward $408 $-1 #
edge $-1 $565 -36.377947717542298 $708 -28.150260344890931 $561 $709 forward 7 unknown #
coedge $-1 $401 $400 $568 $710 reversed $153 $-1 #
edge $-1 $711 -13.363979393253391 $565 0 $559 $712 forward 7 unknown #
vertex $-1 $403 $713 #
straight-curve $-1 -2.0990515027898837 -30.447010998489134 0.53557324708040588 1 0 0 I I #
coedge $-1 $558 $404 $407 $572 forward $397 $-1 #
coedge $-1 $404 $558 $563 $710 forward $397 $-1 #
vertex $-1 $405 $714 #
straight-curve $-1 -11.749747819058566 -43.854291590923459 8.7632606197317742 0 -1 0 I I #
straight-curve $-1 -11.749747819058566 -30.447010998489134 0.5355732470804071 0 0.78801074757464917 0.61566148304635926 I I #
edge $-1 $409 -11.749747819058566 $708 3.3535418078990311 $407 $715 forward 7 unknown #
point $-1 -11.749747819058566 -30.447010998489134 8.7632606197317742 #
point $-1 -11.749747819058566 -30.447010998489134 0.5355732470804071 #
edge $-1 $716 1 $716 0 $412 $-1 forward 7 unknown #
vertex $-1 $413 $717 #
ellipse-curve $-1 -8.7290898936670516 -23.180476472629419 2.0881836002523713 0 -0.61566148304635926 0.78801074757464917 1 0 0 1 I I #
point $-1 -7.7290898936670516 -25.18153130236422 4.6494169334060835 #
edge $-1 $718 1 $718 0 $416 $-1 forward 7 unknown #
vertex $-1 $417 $719 #
ellipse-curve $-1 -4.1981030055797746 -23.180476472629419 2.0881836002523713 0 -0.61566148304635926 0.78801074757464917 1 0 0 1 I I #
point $-1 -3.1981030055797746 -25.18153130236422 4.6494169334060835 #
edge $-1 $720 1 $720 0 $420 $-1 forward 7 unknown #
vertex $-1 $421 $721 #
ellipse-curve $-1 0.33288388250750245 -23.180476472629419 2.0881836002523713 0 -0.61566148304635926 0.78801074757464917 1 0 0 1 I I #
point $-1 1.3328838825075024 -25.18153130236422 4.6494169334060835 #
loop $-1 $-1 $590 $424 #
plane-surface $-1 46.504104739524522 0 0 -1 0 0 0 0 1 forward_v I I I I #
coedge $-1 $428 $427 $596 $722 reversed $172 $-1 #
coedge $-1 $723 $724 $428 $591 forward $587 $-1 #
edge $-1 $593 -11.831420039377754 $725 1.5325593538756364 $590 $726 forward 7 unknown #
coedge $-1 $434 $429 $724 $727 reversed $274 $-1 #
vertex $-1 $430 $728 #
straight-curve $-1 19.476229963022867 -30.447010998489134 0.53557324708040588 1 0 0 I I #
coedge $-1 $729 $431 $434 $600 forward $425 $-1 #
coedge $-1 $431 $729 $589 $722 forward $425 $-1 #
vertex $-1 $432 $730 #
straight-curve $-1 31.400815112566935 -43.854291590923459 8.7632606197317742 0 -1 0 I I #
straight-curve $-1 31.400815112566935 -30.447010998489134 0.5355732470804071 0 0.78801074757464917 0.61566148304635926 I I #
edge $-1 $435 31.400815112566935 $731 46.504104739524522 $434 $732 forward 7 unknown #
point $-1 31.400815112566935 -30.447010998489134 8.7632606197317742 #
point $-1 31.400815112566935 -30.447010998489134 0.5355732470804071 #
edge $-1 $733 1 $733 0 $438 $-1 forward 7 unknown #
vertex $-1 $439 $734 #
ellipse-curve $-1 34.421473037958449 -23.180476472629419 2.0881836002523713 0 -0.61566148304635926 0.78801074757464917 1 0 0 1 I I #
point $-1 35.421473037958449 -25.18153130236422 4.6494169334060835 #
edge $-1 $735 1 $735 0 $442 $-1 forward 7 unknown #
vertex $-1 $443 $736 #
ellipse-curve $-1 38.952459926045719 -23.180476472629419 2.0881836002523713 0 -0.61566148304635926 0.78801074757464917 1 0 0 1 I I #
point $-1 39.952459926045719 -25.18153130236422 4.6494169334060835 #
edge $-1 $737 1 $737 0 $446 $-1 forward 7 unknown #
vertex $-1 $447 $738 #
ellipse-curve $-1 43.483446814132989 -23.180476472629419 2.0881836002523713 0 -0.61566148304635926 0.78801074757464917 1 0 0 1 I I #
point $-1 44.483446814132989 -25.18153130236422 4.6494169334060835 #
plane-surface $-1 0 0 8.7632606197317742 0 0 1 1 0 0 forward_v I I I I #
coedge $-1 $626 $625 $618 $739 forward $451 $-1 #
coedge $-1 $618 $453 $455 $622 reversed $303 $-1 #
coedge $-1 $453 $617 $616 $739 reversed $303 $-1 #
coedge $-1 $461 $456 $453 $620 forward $462 $-1 #
edge $-1 $623 0.054331913648844932 $740 10.585291305898664 $619 $741 forward 7 unknown #
coedge $-1 $455 $454 $626 $742 reversed $191 $-1 #
edge $-1 $743 -60.894021996978267 $623 -47.530042603724866 $617 $744 forward 7 unknown #
vertex $-1 $457 $745 #
straight-curve $-1 -2.0990515027898837 19.916051606239314 8.7632606197317706 1 0 0 I I #
coedge $-1 $616 $458 $461 $630 reversed $451 $-1 #
coedge $-1 $458 $616 $621 $742 forward $451 $-1 #
vertex $-1 $459 $746 #
straight-curve $-1 -11.749747819058566 30.447010998489134 55.658572910281336 0 0 1 I I #
straight-curve $-1 -11.749747819058566 -17.538132798176846 38.025677138397668 0 0.78801074757464917 -0.61566148304635926 I I #
edge $-1 $740 -3.3535418078990311 $463 11.749747819058566 $625 $747 forward 7 unknown #
point $-1 -11.749747819058566 30.447010998489134 8.7632606197317742 #
point $-1 -11.749747819058566 19.916051606239314 8.7632606197317742 #
edge $-1 $748 1 $748 0 $466 $-1 forward 7 unknown #
vertex $-1 $467 $749 #
ellipse-curve $-1 -8.7290898936670516 23.180476472629419 2.0881836002523659 0 0.61566148304635926 0.78801074757464917 1 0 0 1 I I #
point $-1 -7.7290898936670516 25.18153130236422 4.6494169334060782 #
edge $-1 $750 1 $750 0 $470 $-1 forward 7 unknown #
vertex $-1 $471 $751 #
ellipse-curve $-1 -4.1981030055797746 23.180476472629419 2.0881836002523659 0 0.61566148304635926 0.78801074757464917 1 0 0 1 I I #
point $-1 -3.1981030055797746 25.18153130236422 4.6494169334060782 #
edge $-1 $752 1 $752 0 $474 $-1 forward 7 unknown #
vertex $-1 $475 $753 #
ellipse-curve $-1 0.33288388250750245 23.180476472629419 2.0881836002523659 0 0.61566148304635926 0.78801074757464917 1 0 0 1 I I #
point $-1 1.3328838825075024 25.18153130236422 4.6494169334060782 #
loop $-1 $-1 $485 $478 #
plane-surface $-1 0 30.447010998489134 0 0 -1 0 0 0 -1 forward_v I I I I #
coedge $-1 $754 $755 $482 $649 forward $479 $-1 #
coedge $-1 $482 $481 $654 $756 reversed $210 $-1 #
edge $-1 $651 28.914451644613489 $757 42.278431037866895 $647 $758 forward 7 unknown #
coedge $-1 $488 $483 $755 $759 forward $332 $-1 #
vertex $-1 $759 $760 #
straight-curve $-1 19.476229963022867 19.916051606239314 8.7632606197317706 1 0 0 I I #
coedge $-1 $761 $485 $488 $658 reversed $645 $-1 #
coedge $-1 $485 $761 $648 $756 forward $645 $-1 #
vertex $-1 $486 $762 #
straight-curve $-1 31.400815112566935 30.447010998489134 55.658572910281336 0 0 1 I I #
straight-curve $-1 31.400815112566935 -17.538132798176846 38.025677138397668 0 0.78801074757464917 -0.61566148304635926 I I #
edge $-1 $763 -46.504104739524522 $489 -31.400815112566935 $653 $764 forward 7 unknown #
point $-1 31.400815112566935 30.447010998489134 8.7632606197317742 #
point $-1 31.400815112566935 19.916051606239314 8.7632606197317742 #
edge $-1 $765 1 $765 0 $492 $-1 forward 7 unknown #
vertex $-1 $493 $766 #
ellipse-curve $-1 34.421473037958449 23.180476472629419 2.0881836002523659 0 0.61566148304635926 0.78801074757464917 1 0 0 1 I I #
point $-1 35.421473037958449 25.18153130236422 4.6494169334060782 #
edge $-1 $767 1 $767 0 $496 $-1 forward 7 unknown #
vertex $-1 $497 $768 #
ellipse-curve $-1 38.952459926045719 23.180476472629419 2.0881836002523659 0 0.61566148304635926 0.78801074757464917 1 0 0 1 I I #
point $-1 39.952459926045719 25.18153130236422 4.6494169334060782 #
edge $-1 $769 1 $769 0 $500 $-1 forward 7 unknown #
vertex $-1 $501 $770 #
ellipse-curve $-1 43.483446814132989 23.180476472629419 2.0881836002523659 0 0.61566148304635926 0.78801074757464917 1 0 0 1 I I #
point $-1 44.483446814132989 25.18153130236422 4.6494169334060782 #
plane-surface $-1 46.504104739524522 0 0 -1 0 0 0 0 1 forward_v I I I I #
coedge $-1 $509 $507 $511 $678 reversed $361 $-1 #
edge $-1 $522 -8.7632606197317742 $680 8.7632606197317742 $521 $771 forward 7 unknown #
vertex $-1 $678 $772 #
straight-curve $-1 -46.504104739524522 -30.447010998489134 0 0 0 -1 I I #
edge $-1 $676 -30.447010998489134 $680 30.447010998489134 $674 $773 forward 7 unknown #
straight-curve $-1 0 -30.447010998489134 -8.7632606197317742 -1 0 0 I I #
vertex $-1 $514 $774 #
straight-curve $-1 0 30.447010998489134 -8.7632606197317742 1 0 0 I I #
point $-1 46.504104739524522 30.447010998489134 -8.7632606197317742 #
point $-1 46.504104739524522 -30.447010998489134 -8.7632606197317742 #
straight-curve $-1 -46.504104739524522 0 8.7632606197317742 0 -1 0 I I #
point $-1 -46.504104739524522 30.447010998489134 8.7632606197317742 #
point $-1 -46.504104739524522 -30.447010998489134 8.7632606197317742 #
straight-curve $-1 46.504104739524522 -30.447010998489134 0 0 0 -1 I I #
straight-curve $-1 46.504104739524522 30.447010998489134 0 0 0 -1 I I #
plane-surface $-1 0 30.447010998489134 0 0 -1 0 0 0 -1 forward_v I I I I #
coedge $-1 $700 $699 $537 $692 forward $532 $-1 #
straight-curve $-1 -39.797021123726466 -30.447010998489134 -0.28922237768473291 0 0 1 I I #
edge $-1 $695 -30.447010998489134 $693 30.447010998489134 $690 $775 forward 7 unknown #
vertex $-1 $538 $776 #
straight-curve $-1 -21.575281465812747 -30.447010998489134 -2.6748396349706334 1 0 0 I I #
vertex $-1 $540 $777 #
straight-curve $-1 -21.575281465812747 30.447010998489134 -2.6748396349706334 -1 0 0 I I #
point $-1 -39.797021123726466 30.447010998489134 -2.6748396349706334 #
point $-1 -39.797021123726466 -30.447010998489134 -2.6748396349706334 #
coedge $-1 $690 $544 $547 $702 forward $532 $-1 #
coedge $-1 $544 $690 $551 $704 reversed $532 $-1 #
straight-curve $-1 -46.504104739524522 0 1.5179501242317017 0 1 0 I I #
edge $-1 $549 -1.5179501242317017 $695 2.6748396349706334 $547 $778 forward 7 unknown #
point $-1 -46.504104739524522 30.447010998489134 1.5179501242317017 #
edge $-1 $552 -1.5179501242317017 $693 2.6748396349706334 $700 $779 forward 7 unknown #
point $-1 -46.504104739524522 -30.447010998489134 1.5179501242317017 #
straight-curve $-1 -39.797021123726466 30.447010998489134 -0.28922237768473291 0 0 -1 I I #
edge $-1 $708 13.407280592434326 $711 23.938239984684138 $558 $780 forward 7 unknown #
vertex $-1 $707 $781 #
straight-curve $-1 3.3535418078990311 -30.447010998489134 36.913520964622705 0 0 1 I I #
edge $-1 $711 -5.4525933106889148 $569 9.6506963162686823 $568 $782 forward 7 unknown #
vertex $-1 $710 $783 #
straight-curve $-1 3.3535418078990311 -30.447010998489134 0.5355732470804071 0 -0.78801074757464917 -0.61566148304635926 I I #
point $-1 3.3535418078990311 -30.447010998489134 0.5355732470804071 #
point $-1 -11.749747819058566 -19.916051606239321 8.7632606197317742 #
straight-curve $-1 0 -30.447010998489134 8.7632606197317742 1 0 0 I I #
vertex $-1 $575 $784 #
point $-1 -7.7290898936670516 -23.180476472629419 2.0881836002523713 #
vertex $-1 $579 $785 #
point $-1 -3.1981030055797746 -23.180476472629419 2.0881836002523713 #
vertex $-1 $583 $786 #
point $-1 1.3328838825075024 -23.180476472629419 2.0881836002523713 #
edge $-1 $725 -27.027874776501669 $597 -11.924585149544068 $596 $787 forward 7 unknown #
coedge $-1 $724 $590 $729 $788 reversed $587 $-1 #
coedge $-1 $590 $723 $592 $727 forward $587 $-1 #
vertex $-1 $591 $789 #
straight-curve $-1 46.504104739524522 -21.123724848389383 7.8197228550681297 0 0.78801074757464917 0.61566148304635926 I I #
edge $-1 $731 -8.7632606197317742 $593 -0.5355732470804071 $724 $790 forward 7 unknown #
point $-1 46.504104739524536 -30.447010998489134 0.5355732470804071 #
coedge $-1 $596 $595 $723 $788 forward $425 $-1 #
point $-1 31.400815112566935 -19.916051606239321 8.7632606197317742 #
vertex $-1 $788 $791 #
straight-curve $-1 0 -30.447010998489134 8.7632606197317742 1 0 0 I I #
vertex $-1 $603 $792 #
point $-1 35.421473037958449 -23.180476472629419 2.0881836002523713 #
vertex $-1 $607 $793 #
point $-1 39.952459926045719 -23.180476472629419 2.0881836002523713 #
vertex $-1 $611 $794 #
point $-1 44.483446814132989 -23.180476472629419 2.0881836002523713 #
edge $-1 $740 46.895312290549562 $743 55.122999663200936 $616 $795 forward 7 unknown #
vertex $-1 $630 $796 #
straight-curve $-1 3.3535418078990311 19.861719692590469 8.7632606197317742 0 1 0 I I #
edge $-1 $743 -5.4525933106889148 $627 9.6506963162686823 $626 $797 forward 7 unknown #
vertex $-1 $742 $798 #
straight-curve $-1 3.3535418078990311 -17.538132798176846 38.025677138397668 0 -0.78801074757464917 0.61566148304635926 I I #
point $-1 3.3535418078990311 19.916051606239314 8.7632606197317742 #
point $-1 -11.749747819058566 30.447010998489134 0.53557324708039999 #
straight-curve $-1 0 30.447010998489134 8.7632606197317742 -1 0 0 I I #
vertex $-1 $633 $799 #
point $-1 -7.7290898936670516 23.180476472629419 2.0881836002523659 #
vertex $-1 $637 $800 #
point $-1 -3.1981030055797746 23.180476472629419 2.0881836002523659 #
vertex $-1 $641 $801 #
point $-1 1.3328838825075024 23.180476472629419 2.0881836002523659 #
coedge $-1 $755 $647 $761 $802 reversed $479 $-1 #
coedge $-1 $647 $754 $650 $759 reversed $479 $-1 #
edge $-1 $757 -27.027874776501669 $655 -11.924585149544068 $654 $803 forward 7 unknown #
vertex $-1 $649 $804 #
straight-curve $-1 46.504104739524522 -2.8688470499436081 26.564774800726759 0 0.78801074757464917 -0.61566148304635926 I I #
edge $-1 $651 19.916051606239314 $763 30.447010998489134 $755 $805 forward 7 unknown #
point $-1 46.504104739524536 19.916051606239314 8.7632606197317742 #
coedge $-1 $654 $653 $754 $802 forward $645 $-1 #
point $-1 31.400815112566935 30.447010998489134 0.53557324708039999 #
vertex $-1 $759 $806 #
straight-curve $-1 0 30.447010998489134 8.7632606197317742 -1 0 0 I I #
vertex $-1 $661 $807 #
point $-1 35.421473037958449 23.180476472629419 2.0881836002523659 #
vertex $-1 $665 $808 #
point $-1 39.952459926045719 23.180476472629419 2.0881836002523659 #
vertex $-1 $669 $809 #
point $-1 44.483446814132989 23.180476472629419 2.0881836002523659 #
straight-curve $-1 -46.504104739524522 30.447010998489134 0 0 0 -1 I I #
point $-1 -46.504104739524522 -30.447010998489134 -8.7632606197317742 #
straight-curve $-1 -46.504104739524522 0 -8.7632606197317742 0 1 0 I I #
point $-1 -46.504104739524522 30.447010998489134 -8.7632606197317742 #
straight-curve $-1 -46.504104739524522 0 -2.6748396349706334 0 -1 0 I I #
point $-1 -46.504104739524522 -30.447010998489134 -2.6748396349706334 #
point $-1 -46.504104739524522 30.447010998489134 -2.6748396349706334 #
straight-curve $-1 -46.504104739524522 30.447010998489134 0 0 0 -1 I I #
straight-curve $-1 -46.504104739524522 -30.447010998489134 0 0 0 -1 I I #
straight-curve $-1 3.3535418078990311 -43.854291590923459 8.7632606197317742 0 1 0 I I #
point $-1 3.3535418078990311 -30.447010998489134 8.7632606197317742 #
straight-curve $-1 -2.0990515027898837 -19.916051606239325 8.7632606197317742 -1 0 0 I I #
point $-1 3.3535418078990311 -19.916051606239321 8.7632606197317742 #
point $-1 -8.7290898936670516 -22.564814989583059 1.3001728526777221 #
point $-1 -4.1981030055797746 -22.564814989583059 1.3001728526777221 #
point $-1 0.33288388250750245 -22.564814989583059 1.3001728526777221 #
straight-curve $-1 19.476229963022867 -19.916051606239325 8.7632606197317742 -1 0 0 I I #
edge $-1 $731 -30.447010998489134 $725 -19.916051606239321 $723 $810 forward 7 unknown #
point $-1 46.504104739524536 -19.916051606239321 8.7632606197317742 #
straight-curve $-1 46.504104739524522 -30.447010998489134 0 0 0 -1 I I #
point $-1 46.504104739524522 -30.447010998489134 8.7632606197317742 #
point $-1 34.421473037958449 -22.564814989583059 1.3001728526777221 #
point $-1 38.952459926045719 -22.564814989583059 1.3001728526777221 #
point $-1 43.483446814132989 -22.564814989583059 1.3001728526777221 #
straight-curve $-1 3.3535418078990311 30.447010998489134 55.658572910281336 0 0 -1 I I #
point $-1 3.3535418078990311 30.447010998489134 8.7632606197317742 #
straight-curve $-1 -2.0990515027898837 30.447010998489134 0.53557324708039999 -1 0 0 I I #
point $-1 3.3535418078990311 30.447010998489134 0.53557324708039999 #
point $-1 -8.7290898936670516 22.564814989583059 1.3001728526777168 #
point $-1 -4.1981030055797746 22.564814989583059 1.3001728526777168 #
point $-1 0.33288388250750245 22.564814989583059 1.3001728526777168 #
edge $-1 $763 -8.7632606197317742 $757 -0.53557324708039999 $754 $811 forward 7 unknown #
straight-curve $-1 19.476229963022867 30.447010998489134 0.53557324708039999 -1 0 0 I I #
point $-1 46.504104739524536 30.447010998489134 0.53557324708039999 #
straight-curve $-1 46.504104739524522 0 8.7632606197317742 0 1 0 I I #
point $-1 46.504104739524522 30.447010998489134 8.7632606197317742 #
point $-1 34.421473037958449 22.564814989583059 1.3001728526777168 #
point $-1 38.952459926045719 22.564814989583059 1.3001728526777168 #
point $-1 43.483446814132989 22.564814989583059 1.3001728526777168 #
straight-curve $-1 46.504104739524522 0 8.7632606197317742 0 1 0 I I #
straight-curve $-1 46.504104739524522 30.447010998489134 0 0 0 -1 I I #
End-of-ACIS-data 