500 0 10 0           
7 Unknown 11 ACIS 5.0 NT 24 Fri Mar 26 18:29:42 1999 
-1 9.9999999999999995e-007 1e-010 
body $-1 $10 $-1 $11 #
body $-1 $12 $-1 $13 #
body $-1 $14 $-1 $15 #
body $-1 $16 $-1 $17 #
body $-1 $18 $-1 $19 #
body $-1 $20 $-1 $21 #
body $-1 $22 $-1 $23 #
body $-1 $24 $-1 $25 #
body $-1 $26 $-1 $27 #
body $-1 $28 $-1 $29 #
lump $-1 $-1 $30 $0 #
transform $-1 1 0 0 0 1 0 0 0 1 78.892788476210825 43.258490310201871 16.263090622678757 1 rotate no_reflect no_shear #
lump $-1 $-1 $31 $1 #
transform $-1 1 0 0 0 1 0 0 0 1 78.892788476210825 43.258490310201871 16.263090622678757 1 rotate no_reflect no_shear #
lump $-1 $-1 $32 $2 #
transform $-1 1 0 0 0 1 0 0 0 1 78.892788476210825 43.258490310201871 16.263090622678757 1 rotate no_reflect no_shear #
lump $-1 $-1 $33 $3 #
transform $-1 1 0 0 0 1 0 0 0 1 78.892788476210825 43.258490310201871 16.263090622678757 1 rotate no_reflect no_shear #
lump $-1 $-1 $34 $4 #
transform $-1 1 0 0 0 1 0 0 0 1 78.892788476210825 43.258490310201871 16.263090622678757 1 rotate no_reflect no_shear #
lump $-1 $-1 $35 $5 #
transform $-1 1 0 0 0 1 0 0 0 1 78.892788476210825 43.258490310201871 16.263090622678757 1 rotate no_reflect no_shear #
lump $-1 $-1 $36 $6 #
transform $-1 1 0 0 0 1 0 0 0 1 78.892788476210825 43.258490310201871 16.263090622678757 1 rotate no_reflect no_shear #
lump $-1 $-1 $37 $7 #
transform $-1 1 0 0 0 1 0 0 0 1 78.892788476210825 43.258490310201871 16.263090622678757 1 rotate no_reflect no_shear #
lump $-1 $-1 $38 $8 #
transform $-1 1 0 0 0 1 0 0 0 1 78.892788476210825 43.258490310201871 16.263090622678757 1 rotate no_reflect no_shear #
lump $-1 $-1 $39 $9 #
transform $-1 1 0 0 0 1 0 0 0 1 78.892788476210825 43.258490310201871 16.263090622678757 1 rotate no_reflect no_shear #
shell $-1 $-1 $-1 $40 $-1 $10 #
shell $-1 $-1 $-1 $41 $-1 $12 #
shell $-1 $-1 $-1 $42 $-1 $14 #
shell $-1 $-1 $-1 $43 $-1 $16 #
shell $-1 $-1 $-1 $44 $-1 $18 #
shell $-1 $-1 $-1 $45 $-1 $20 #
shell $-1 $-1 $-1 $46 $-1 $22 #
shell $-1 $-1 $-1 $47 $-1 $24 #
shell $-1 $-1 $-1 $48 $-1 $26 #
shell $-1 $-1 $-1 $49 $-1 $28 #
face $-1 $50 $51 $30 $-1 $52 forward single #
face $-1 $53 $54 $31 $-1 $55 forward single #
face $-1 $56 $57 $32 $-1 $58 reversed single #
face $-1 $59 $60 $33 $-1 $61 forward single #
face $-1 $62 $63 $34 $-1 $64 forward single #
face $-1 $65 $66 $35 $-1 $67 forward single #
face $-1 $68 $69 $36 $-1 $70 reversed single #
face $-1 $71 $72 $37 $-1 $73 forward single #
face $-1 $74 $75 $38 $-1 $76 reversed single #
face $-1 $77 $78 $39 $-1 $79 forward single #
face $-1 $80 $81 $30 $-1 $82 reversed single #
loop $-1 $-1 $83 $40 #
plane-surface $-1 0 0 16.263090622678757 0 0 1 1 0 0 forward_v I I I I #
face $-1 $84 $85 $31 $-1 $86 reversed single #
loop $-1 $-1 $87 $41 #
plane-surface $-1 -69.033773082958362 0 10.302118977041413 0 0 1 1 0 0 forward_v I I I I #
face $-1 $88 $89 $32 $-1 $90 reversed single #
loop $-1 $-1 $91 $42 #
plane-surface $-1 45.686254596000822 96.660192994788019 180.77666154265438 1 0 0 0 -0.71933980857756763 -0.69465836192734942 forward_v I I I I #
face $-1 $92 $93 $33 $-1 $94 forward single #
loop $-1 $95 $96 $43 #
cone-surface $-1 49.484660619339166 37.579330146759766 10.531649697622376 0 -0.71933980857756763 -0.69465836192734942 1.5 0 0 1 I I 0 1 1.5 forward I I I I #
face $-1 $97 $98 $34 $-1 $99 forward single #
loop $-1 $100 $101 $44 #
cone-surface $-1 55.182269654346669 37.579330146759766 10.531649697622376 0 -0.71933980857756763 -0.69465836192734942 1.5 0 0 1 I I 0 1 1.5 forward I I I I #
face $-1 $102 $103 $35 $-1 $104 forward single #
loop $-1 $105 $106 $45 #
cone-surface $-1 60.879878689354172 37.579330146759766 10.531649697622376 0 -0.71933980857756763 -0.69465836192734942 1.5 0 0 1 I I 0 1 1.5 forward I I I I #
face $-1 $107 $108 $36 $-1 $109 reversed single #
loop $-1 $-1 $110 $46 #
plane-surface $-1 5.2576833408103845 -144.68110540904652 133.14500148941067 -1 0 0 0 -0.64278761758704617 0.76604443648966558 forward_v I I I I #
face $-1 $111 $112 $37 $-1 $113 forward single #
loop $-1 $114 $115 $47 #
cone-surface $-1 -6.2646595153561151 -40.44746402845557 13.751250641478419 0 0.64278761758704617 -0.76604443648966558 0.5 0 0 1 I I 0 1 0.5 forward I I I I #
face $-1 $116 $117 $38 $-1 $118 reversed single #
loop $-1 $-1 $119 $48 #
plane-surface $-1 74.291456423768764 -144.68110540904652 133.14500148941067 -1 0 0 0 -0.64278761758704617 0.76604443648966558 forward_v I I I I #
face $-1 $120 $121 $39 $-1 $122 forward single #
loop $-1 $123 $124 $49 #
cone-surface $-1 62.769113567602261 -40.44746402845557 13.751250641478419 0 0.64278761758704617 -0.76604443648966558 0.5 0 0 1 I I 0 1 0.5 forward I I I I #
face $-1 $125 $126 $30 $-1 $127 reversed single #
loop $-1 $-1 $128 $50 #
plane-surface $-1 0 0 -16.263090622678757 0 0 1 1 0 0 forward_v I I I I #
coedge $-1 $129 $130 $131 $132 forward $51 $-1 #
face $-1 $133 $134 $31 $-1 $135 reversed single #
loop $-1 $-1 $136 $53 #
plane-surface $-1 -69.033773082958362 0 5.6792460049123044 0 0 1 1 0 0 forward_v I I I I #
coedge $-1 $137 $138 $139 $140 forward $54 $-1 #
face $-1 $141 $142 $32 $-1 $143 reversed single #
loop $-1 $-1 $144 $56 #
plane-surface $-1 55.182269654346669 -16.84125372646804 71.169591121123418 0 0.71933980857756763 0.69465836192734942 1 0 0 forward_v I I I I #
coedge $-1 $145 $146 $147 $148 reversed $57 $-1 #
face $-1 $-1 $149 $33 $-1 $150 forward single #
loop $-1 $151 $152 $59 #
cone-surface $-1 49.484660619339166 34.89924217682762 7.9435188909933068 0 -0.71933980857756763 -0.69465836192734942 0.75 0 0 1 I I -0.70710678118654757 0.70710678118654757 0.75 forward I I I I #
loop $-1 $-1 $153 $43 #
coedge $-1 $96 $96 $154 $155 reversed $60 $-1 #
face $-1 $-1 $156 $34 $-1 $157 forward single #
loop $-1 $158 $159 $62 #
cone-surface $-1 55.182269654346669 34.89924217682762 7.9435188909933068 0 -0.71933980857756763 -0.69465836192734942 0.75 0 0 1 I I -0.70710678118654757 0.70710678118654757 0.75 forward I I I I #
loop $-1 $-1 $160 $44 #
coedge $-1 $101 $101 $161 $162 reversed $63 $-1 #
face $-1 $-1 $163 $35 $-1 $164 forward single #
loop $-1 $165 $166 $65 #
cone-surface $-1 60.879878689354172 34.89924217682762 7.9435188909933068 0 -0.71933980857756763 -0.69465836192734942 0.75 0 0 1 I I -0.70710678118654757 0.70710678118654757 0.75 forward I I I I #
loop $-1 $-1 $167 $45 #
coedge $-1 $106 $106 $168 $169 reversed $66 $-1 #
face $-1 $170 $171 $36 $-1 $172 reversed single #
loop $-1 $-1 $173 $68 #
plane-surface $-1 -6.2646595153561151 -43.258490310201864 12.27423810669606 0 -0.64278761758704617 0.76604443648966558 1 0 0 forward_v I I I I #
coedge $-1 $174 $175 $176 $177 reversed $69 $-1 #
face $-1 $-1 $178 $37 $-1 $179 forward single #
loop $-1 $180 $181 $71 #
cone-surface $-1 -6.2646595153561151 -39.852605450654579 13.042325809147005 0 0.64278761758704617 -0.76604443648966558 0.25 0 0 1 I I -0.70710678118654746 0.70710678118654746 0.25 forward I I I I #
loop $-1 $-1 $182 $47 #
coedge $-1 $115 $115 $183 $184 reversed $72 $-1 #
face $-1 $185 $186 $38 $-1 $187 reversed single #
loop $-1 $-1 $188 $74 #
plane-surface $-1 62.769113567602261 -43.258490310201864 12.27423810669606 0 -0.64278761758704617 0.76604443648966558 1 0 0 forward_v I I I I #
coedge $-1 $189 $190 $191 $192 reversed $75 $-1 #
face $-1 $-1 $193 $39 $-1 $194 forward single #
loop $-1 $195 $196 $77 #
cone-surface $-1 62.769113567602261 -39.852605450654579 13.042325809147005 0 0.64278761758704617 -0.76604443648966558 0.25 0 0 1 I I -0.70710678118654746 0.70710678118654746 0.25 forward I I I I #
loop $-1 $-1 $197 $49 #
coedge $-1 $124 $124 $198 $199 reversed $78 $-1 #
face $-1 $200 $201 $30 $-1 $202 reversed single #
loop $-1 $-1 $203 $80 #
plane-surface $-1 0 -43.258490310201871 0 0 1 0 0 0 1 forward_v I I I I #
coedge $-1 $204 $205 $206 $207 forward $81 $-1 #
coedge $-1 $208 $83 $209 $210 forward $51 $-1 #
coedge $-1 $83 $208 $211 $212 forward $51 $-1 #
coedge $-1 $213 $214 $83 $132 reversed $215 $-1 #
edge $-1 $216 -43.258490310201871 $217 43.258490310201871 $131 $218 forward 7 unknown #
face $-1 $219 $220 $31 $-1 $221 reversed single #
loop $-1 $-1 $222 $84 #
plane-surface $-1 -59.174757689705899 0 7.9906824909768588 -1 0 0 0 0 1 forward_v I I I I #
coedge $-1 $223 $224 $225 $226 forward $85 $-1 #
coedge $-1 $227 $87 $228 $229 reversed $54 $-1 #
coedge $-1 $87 $227 $230 $231 reversed $54 $-1 #
coedge $-1 $222 $232 $87 $140 reversed $134 $-1 #
edge $-1 $233 -43.258490310201871 $234 43.258490310201871 $139 $235 forward 7 unknown #
face $-1 $236 $237 $32 $-1 $238 forward single #
loop $-1 $-1 $239 $88 #
plane-surface $-1 64.678284712692516 96.660192994788019 180.77666154265438 -1 0 0 0 0.71933980857756763 0.69465836192734942 forward_v I I I I #
coedge $-1 $240 $241 $242 $243 reversed $89 $-1 #
coedge $-1 $146 $91 $244 $245 reversed $57 $-1 #
coedge $-1 $91 $145 $240 $246 reversed $57 $-1 #
coedge $-1 $242 $247 $91 $148 forward $237 $-1 #
edge $-1 $248 5.0716061871921383 $249 12.148760287078481 $147 $250 forward 7 unknown #
loop $-1 $-1 $154 $92 #
plane-surface $-1 55.182269654346669 -16.84125372646804 71.169591121123418 0 0.71933980857756763 0.69465836192734942 1 0 0 forward_v I I I I #
loop $-1 $-1 $251 $59 #
coedge $-1 $152 $152 $153 $252 reversed $93 $-1 #
coedge $-1 $153 $153 $152 $252 forward $95 $-1 #
coedge $-1 $154 $154 $96 $155 forward $149 $-1 #
edge $-1 $253 1.1191648309140726e-015 $253 6.2831853071796013 $154 $254 forward 7 unknown #
loop $-1 $-1 $161 $97 #
plane-surface $-1 55.182269654346669 -16.84125372646804 71.169591121123418 0 0.71933980857756763 0.69465836192734942 1 0 0 forward_v I I I I #
loop $-1 $-1 $255 $62 #
coedge $-1 $159 $159 $160 $256 reversed $98 $-1 #
coedge $-1 $160 $160 $159 $256 forward $100 $-1 #
coedge $-1 $161 $161 $101 $162 forward $156 $-1 #
edge $-1 $257 1.1191648309140726e-015 $257 6.2831853071796013 $161 $258 forward 7 unknown #
loop $-1 $-1 $168 $102 #
plane-surface $-1 55.182269654346669 -16.84125372646804 71.169591121123418 0 0.71933980857756763 0.69465836192734942 1 0 0 forward_v I I I I #
loop $-1 $-1 $259 $65 #
coedge $-1 $166 $166 $167 $260 reversed $103 $-1 #
coedge $-1 $167 $167 $166 $260 forward $105 $-1 #
coedge $-1 $168 $168 $106 $169 forward $163 $-1 #
edge $-1 $261 1.1191648309140726e-015 $261 6.2831853071796013 $168 $262 forward 7 unknown #
face $-1 $263 $264 $36 $-1 $265 reversed single #
loop $-1 $-1 $266 $107 #
plane-surface $-1 -17.787002371522615 -144.68110540904652 133.14500148941067 1 0 0 0 0.64278761758704617 -0.76604443648966558 forward_v I I I I #
coedge $-1 $267 $268 $269 $270 reversed $108 $-1 #
coedge $-1 $175 $110 $271 $272 reversed $69 $-1 #
coedge $-1 $110 $174 $267 $273 reversed $69 $-1 #
coedge $-1 $269 $274 $110 $177 forward $275 $-1 #
edge $-1 $276 29.08206239432139 $277 33.835791611005561 $176 $278 forward 7 unknown #
loop $-1 $-1 $183 $111 #
plane-surface $-1 -6.2646595153561151 -43.258490310201864 12.27423810669606 0 -0.64278761758704617 0.76604443648966558 1 0 0 forward_v I I I I #
loop $-1 $-1 $279 $71 #
coedge $-1 $181 $181 $182 $280 reversed $112 $-1 #
coedge $-1 $182 $182 $181 $280 forward $114 $-1 #
coedge $-1 $183 $183 $115 $184 forward $178 $-1 #
edge $-1 $281 1.0641112309639952e-015 $281 6.2831853071796013 $183 $282 forward 7 unknown #
face $-1 $283 $284 $38 $-1 $285 reversed single #
loop $-1 $-1 $286 $116 #
plane-surface $-1 51.246770711435758 -144.68110540904652 133.14500148941067 1 0 0 0 0.64278761758704617 -0.76604443648966558 forward_v I I I I #
coedge $-1 $287 $288 $289 $290 reversed $117 $-1 #
coedge $-1 $190 $119 $291 $292 reversed $75 $-1 #
coedge $-1 $119 $189 $287 $293 reversed $75 $-1 #
coedge $-1 $289 $294 $119 $192 forward $295 $-1 #
edge $-1 $296 29.08206239432139 $297 33.835791611005561 $191 $298 forward 7 unknown #
loop $-1 $-1 $198 $120 #
plane-surface $-1 62.769113567602261 -43.258490310201864 12.27423810669606 0 -0.64278761758704617 0.76604443648966558 1 0 0 forward_v I I I I #
loop $-1 $-1 $299 $77 #
coedge $-1 $196 $196 $197 $300 reversed $121 $-1 #
coedge $-1 $197 $197 $196 $300 forward $123 $-1 #
coedge $-1 $198 $198 $124 $199 forward $193 $-1 #
edge $-1 $301 1.0641112309639952e-015 $301 6.2831853071796013 $198 $302 forward 7 unknown #
face $-1 $303 $304 $30 $-1 $305 reversed single #
loop $-1 $-1 $306 $125 #
plane-surface $-1 -78.892788476210825 0 0 1 0 0 0 0 -1 forward_v I I I I #
coedge $-1 $307 $211 $308 $309 forward $126 $-1 #
coedge $-1 $310 $128 $307 $311 forward $81 $-1 #
coedge $-1 $128 $310 $312 $313 forward $81 $-1 #
coedge $-1 $214 $213 $128 $207 reversed $215 $-1 #
edge $-1 $314 -43.258490310201871 $315 43.258490310201871 $206 $316 forward 7 unknown #
coedge $-1 $130 $129 $317 $318 forward $51 $-1 #
coedge $-1 $319 $320 $129 $210 reversed $304 $-1 #
edge $-1 $217 -78.892788476210825 $321 78.892788476210825 $209 $322 forward 7 unknown #
coedge $-1 $203 $323 $130 $212 reversed $126 $-1 #
edge $-1 $324 -78.892788476210825 $216 78.892788476210825 $211 $325 forward 7 unknown #
coedge $-1 $206 $131 $323 $326 forward $215 $-1 #
coedge $-1 $131 $206 $319 $327 reversed $215 $-1 #
loop $-1 $-1 $213 $303 #
vertex $-1 $132 $328 #
vertex $-1 $132 $329 #
straight-curve $-1 78.892788476210825 0 16.263090622678757 0 1 0 I I #
face $-1 $330 $331 $31 $-1 $332 reversed single #
loop $-1 $-1 $333 $133 #
plane-surface $-1 0 -43.258490310201871 0 0 1 0 0 0 1 forward_v I I I I #
coedge $-1 $225 $139 $334 $335 reversed $134 $-1 #
coedge $-1 $336 $136 $333 $337 reversed $85 $-1 #
coedge $-1 $136 $336 $338 $339 reversed $85 $-1 #
coedge $-1 $232 $222 $136 $226 reversed $134 $-1 #
edge $-1 $340 -43.258490310201871 $341 43.258490310201871 $225 $342 forward 7 unknown #
coedge $-1 $138 $137 $343 $344 reversed $54 $-1 #
coedge $-1 $345 $346 $137 $229 forward $347 $-1 #
edge $-1 $348 -44.375901934731644 $234 -24.657871148226718 $228 $349 forward 7 unknown #
coedge $-1 $350 $334 $138 $231 forward $220 $-1 #
edge $-1 $233 24.657871148226718 $351 44.375901934731644 $230 $352 forward 7 unknown #
coedge $-1 $139 $225 $345 $353 reversed $134 $-1 #
vertex $-1 $231 $354 #
vertex $-1 $229 $355 #
straight-curve $-1 -59.174757689705899 0 10.302118977041413 0 1 0 I I #
face $-1 $-1 $356 $32 $-1 $357 reversed single #
loop $-1 $-1 $147 $141 #
plane-surface $-1 0 0 16.263090622678757 0 0 1 1 0 0 forward_v I I I I #
coedge $-1 $358 $359 $360 $361 reversed $142 $-1 #
coedge $-1 $362 $144 $146 $246 forward $89 $-1 #
coedge $-1 $144 $362 $358 $363 forward $89 $-1 #
coedge $-1 $360 $147 $144 $243 forward $237 $-1 #
edge $-1 $249 18.095119768827487 $364 37.087149885519182 $242 $365 forward 7 unknown #
coedge $-1 $366 $367 $145 $245 forward $356 $-1 #
edge $-1 $368 -81.45384792839414 $248 -74.12524014864843 $244 $369 forward 7 unknown #
edge $-1 $249 76.329017028846934 $368 86.516980620403757 $146 $370 forward 7 unknown #
coedge $-1 $147 $360 $366 $371 forward $237 $-1 #
vertex $-1 $245 $372 #
vertex $-1 $148 $373 #
straight-curve $-1 45.686254596000822 48.33009649739401 16.26309062267876 0 -1 0 I I #
coedge $-1 $251 $251 $-1 $374 reversed $151 $-1 #
edge $-1 $375 0 $375 6.2831853071796004 $152 $376 forward 7 unknown #
vertex $-1 $155 $377 #
ellipse-curve $-1 49.484660619339166 39.7199132602587 12.598786732805898 0 0.71933980857756763 0.69465836192734942 1.5 0 0 1 I I #
coedge $-1 $255 $255 $-1 $378 reversed $158 $-1 #
edge $-1 $379 0 $379 6.2831853071796004 $159 $380 forward 7 unknown #
vertex $-1 $162 $381 #
ellipse-curve $-1 55.182269654346669 39.7199132602587 12.598786732805898 0 0.71933980857756763 0.69465836192734942 1.5 0 0 1 I I #
coedge $-1 $259 $259 $-1 $382 reversed $165 $-1 #
edge $-1 $383 0 $383 6.2831853071796004 $166 $384 forward 7 unknown #
vertex $-1 $169 $385 #
ellipse-curve $-1 60.879878689354172 39.7199132602587 12.598786732805898 0 0.71933980857756763 0.69465836192734942 1.5 0 0 1 I I #
face $-1 $-1 $275 $36 $-1 $386 forward single #
loop $-1 $-1 $387 $170 #
plane-surface $-1 0 -43.258490310201871 0 0 1 0 0 0 1 forward_v I I I I #
coedge $-1 $388 $389 $390 $391 reversed $171 $-1 #
coedge $-1 $392 $173 $175 $273 forward $108 $-1 #
coedge $-1 $173 $392 $388 $393 forward $108 $-1 #
coedge $-1 $390 $176 $173 $270 forward $275 $-1 #
edge $-1 $277 -8.390013098488442 $394 14.654672613844557 $269 $395 forward 7 unknown #
coedge $-1 $396 $397 $174 $272 forward $264 $-1 #
edge $-1 $398 -54.298262638009284 $276 -50.309410122026577 $271 $399 forward 7 unknown #
edge $-1 $277 -6.2055528246738918 $398 8.8685336385193395e-015 $175 $400 forward 7 unknown #
coedge $-1 $176 $390 $396 $401 forward $275 $-1 #
loop $-1 $-1 $390 $263 #
vertex $-1 $272 $402 #
vertex $-1 $177 $403 #
straight-curve $-1 5.2576833408103845 -72.340552704523262 16.26309062267876 0 1 0 I I #
coedge $-1 $279 $279 $-1 $404 reversed $180 $-1 #
edge $-1 $405 0 $405 6.2831853071796004 $181 $406 forward 7 unknown #
vertex $-1 $184 $407 #
ellipse-curve $-1 -6.2646595153561151 -40.88162570185979 14.268664364687401 0 -0.64278761758704617 0.76604443648966558 0.5 0 0 1 I I #
face $-1 $-1 $295 $38 $-1 $408 forward single #
loop $-1 $-1 $409 $185 #
plane-surface $-1 0 -43.258490310201871 0 0 1 0 0 0 1 forward_v I I I I #
coedge $-1 $410 $411 $412 $413 reversed $186 $-1 #
coedge $-1 $414 $188 $190 $293 forward $117 $-1 #
coedge $-1 $188 $414 $410 $415 forward $117 $-1 #
coedge $-1 $412 $191 $188 $290 forward $295 $-1 #
edge $-1 $297 -42.906899639967634 $416 -19.862213927634627 $289 $417 forward 7 unknown #
coedge $-1 $418 $419 $189 $292 forward $284 $-1 #
edge $-1 $420 -54.298262638009284 $296 -50.309410122026577 $291 $421 forward 7 unknown #
edge $-1 $297 -6.2055528246738918 $420 8.8685336385193395e-015 $190 $422 forward 7 unknown #
coedge $-1 $191 $412 $418 $423 forward $295 $-1 #
loop $-1 $-1 $412 $283 #
vertex $-1 $292 $424 #
vertex $-1 $192 $425 #
straight-curve $-1 74.291456423768764 -72.340552704523262 16.26309062267876 0 1 0 I I #
coedge $-1 $299 $299 $-1 $426 reversed $195 $-1 #
edge $-1 $427 0 $427 6.2831853071796004 $196 $428 forward 7 unknown #
vertex $-1 $199 $429 #
ellipse-curve $-1 62.769113567602261 -40.88162570185979 14.268664364687401 0 -0.64278761758704617 0.76604443648966558 0.5 0 0 1 I I #
face $-1 $-1 $215 $30 $-1 $430 reversed single #
loop $-1 $-1 $319 $200 #
plane-surface $-1 0 43.258490310201871 0 0 -1 0 0 0 -1 forward_v I I I I #
coedge $-1 $431 $317 $320 $432 forward $201 $-1 #
coedge $-1 $323 $203 $204 $311 reversed $126 $-1 #
coedge $-1 $317 $431 $203 $309 reversed $201 $-1 #
edge $-1 $324 -16.263090622678757 $433 16.263090622678757 $308 $434 forward 7 unknown #
coedge $-1 $205 $204 $431 $435 forward $81 $-1 #
edge $-1 $315 -78.892788476210825 $433 78.892788476210825 $307 $436 forward 7 unknown #
coedge $-1 $320 $319 $205 $313 reversed $304 $-1 #
edge $-1 $437 -78.892788476210825 $314 78.892788476210825 $312 $438 forward 7 unknown #
vertex $-1 $207 $439 #
vertex $-1 $326 $440 #
straight-curve $-1 78.892788476210825 0 -16.263090622678757 0 -1 0 I I #
coedge $-1 $306 $308 $208 $318 reversed $201 $-1 #
edge $-1 $321 -43.258490310201871 $324 43.258490310201871 $317 $441 forward 7 unknown #
coedge $-1 $312 $209 $214 $327 forward $304 $-1 #
coedge $-1 $209 $312 $306 $432 reversed $304 $-1 #
vertex $-1 $210 $442 #
straight-curve $-1 0 43.258490310201871 16.263090622678757 -1 0 0 I I #
coedge $-1 $211 $307 $213 $326 reversed $126 $-1 #
vertex $-1 $318 $443 #
straight-curve $-1 0 -43.258490310201871 16.263090622678757 1 0 0 I I #
edge $-1 $216 -16.263090622678757 $315 16.263090622678757 $213 $444 forward 7 unknown #
edge $-1 $217 -16.263090622678757 $314 16.263090622678757 $214 $445 forward 7 unknown #
point $-1 78.892788476210825 -43.258490310201871 16.263090622678757 #
point $-1 78.892788476210825 43.258490310201871 16.263090622678757 #
face $-1 $-1 $347 $31 $-1 $446 reversed single #
loop $-1 $-1 $447 $219 #
plane-surface $-1 -78.892788476210825 0 0 1 0 0 0 0 -1 forward_v I I I I #
coedge $-1 $334 $350 $223 $337 forward $220 $-1 #
coedge $-1 $230 $333 $222 $335 forward $220 $-1 #
edge $-1 $341 1.683904759423875 $233 6.3067777315529838 $334 $448 forward 7 unknown #
coedge $-1 $224 $223 $447 $449 reversed $85 $-1 #
edge $-1 $450 -44.375901934731644 $341 -24.657871148226718 $333 $451 forward 7 unknown #
coedge $-1 $346 $345 $224 $339 forward $347 $-1 #
edge $-1 $340 24.657871148226718 $452 44.375901934731644 $338 $453 forward 7 unknown #
vertex $-1 $339 $454 #
vertex $-1 $337 $455 #
straight-curve $-1 -59.174757689705899 0 5.6792460049123044 0 -1 0 I I #
coedge $-1 $456 $457 $227 $344 forward $331 $-1 #
edge $-1 $351 -43.258490310201871 $348 43.258490310201871 $343 $458 forward 7 unknown #
coedge $-1 $338 $228 $232 $353 forward $347 $-1 #
coedge $-1 $228 $338 $456 $459 reversed $347 $-1 #
loop $-1 $-1 $338 $330 #
vertex $-1 $459 $460 #
straight-curve $-1 -34.516886541479181 43.258490310201871 10.302118977041413 1 0 0 I I #
coedge $-1 $333 $230 $457 $461 forward $220 $-1 #
vertex $-1 $461 $462 #
straight-curve $-1 -34.516886541479181 -43.258490310201871 10.302118977041413 -1 0 0 I I #
edge $-1 $234 -6.3067777315529838 $340 -1.683904759423875 $345 $463 forward 7 unknown #
point $-1 -59.174757689705899 -43.258490310201871 10.302118977041413 #
point $-1 -59.174757689705899 43.258490310201871 10.302118977041413 #
loop $-1 $-1 $244 $236 #
plane-surface $-1 0 43.258490310201871 0 0 -1 0 0 0 -1 forward_v I I I I #
coedge $-1 $359 $239 $241 $363 reversed $142 $-1 #
coedge $-1 $239 $358 $464 $465 reversed $142 $-1 #
coedge $-1 $247 $242 $239 $361 forward $237 $-1 #
edge $-1 $364 -12.148760287078481 $466 -5.0716061871921383 $360 $467 forward 7 unknown #
coedge $-1 $241 $240 $367 $468 reversed $89 $-1 #
edge $-1 $469 -86.516980620403757 $364 -76.329017028846934 $358 $470 forward 7 unknown #
vertex $-1 $243 $471 #
straight-curve $-1 27.591134827173335 36.181336210315536 16.263090622678767 1 0 0 I I #
coedge $-1 $464 $244 $247 $371 reversed $356 $-1 #
coedge $-1 $244 $464 $362 $468 forward $356 $-1 #
vertex $-1 $245 $472 #
straight-curve $-1 45.686254596000822 43.258490310201871 90.38833077132719 0 0 1 I I #
straight-curve $-1 45.686254596000822 -16.84125372646804 71.169591121123418 0 0.69465836192734942 -0.71933980857756763 I I #
edge $-1 $466 -64.678284712692516 $248 -45.686254596000822 $366 $473 forward 7 unknown #
point $-1 45.686254596000822 43.258490310201871 16.263090622678757 #
point $-1 45.686254596000822 36.181336210315528 16.263090622678767 #
edge $-1 $474 1 $474 0 $251 $-1 forward 7 unknown #
vertex $-1 $252 $475 #
ellipse-curve $-1 49.484660619339166 35.438747033260796 8.4645126624388194 0 0.71933980857756763 0.69465836192734942 1.5 0 0 1 I I #
point $-1 50.984660619339166 39.719913260258735 12.59878673280593 #
edge $-1 $476 1 $476 0 $255 $-1 forward 7 unknown #
vertex $-1 $256 $477 #
ellipse-curve $-1 55.182269654346669 35.438747033260796 8.4645126624388194 0 0.71933980857756763 0.69465836192734942 1.5 0 0 1 I I #
point $-1 56.682269654346669 39.719913260258735 12.59878673280593 #
edge $-1 $478 1 $478 0 $259 $-1 forward 7 unknown #
vertex $-1 $260 $479 #
ellipse-curve $-1 60.879878689354172 35.438747033260796 8.4645126624388194 0 0.71933980857756763 0.69465836192734942 1.5 0 0 1 I I #
point $-1 62.379878689354172 39.719913260258735 12.59878673280593 #
plane-surface $-1 0 0 16.263090622678757 0 0 1 1 0 0 forward_v I I I I #
coedge $-1 $397 $396 $389 $480 forward $264 $-1 #
coedge $-1 $389 $266 $268 $393 reversed $171 $-1 #
coedge $-1 $266 $388 $387 $480 reversed $171 $-1 #
coedge $-1 $274 $269 $266 $391 forward $275 $-1 #
edge $-1 $394 -33.835791611005561 $481 -29.08206239432139 $390 $482 forward 7 unknown #
coedge $-1 $268 $267 $397 $483 reversed $108 $-1 #
edge $-1 $484 -8.8685336385193395e-015 $394 6.2055528246738918 $388 $485 forward 7 unknown #
vertex $-1 $270 $486 #
straight-curve $-1 -3.1323297576780575 -38.5047610935177 16.263090622678757 -1 0 0 I I #
coedge $-1 $387 $271 $274 $401 reversed $264 $-1 #
coedge $-1 $271 $387 $392 $483 forward $264 $-1 #
vertex $-1 $272 $487 #
straight-curve $-1 5.2576833408103845 -43.258490310201871 66.572500744705337 0 0 1 I I #
straight-curve $-1 5.2576833408103845 -43.258490310201864 12.27423810669606 0 -0.76604443648966558 -0.64278761758704617 I I #
edge $-1 $481 -17.787002371522615 $276 5.2576833408103845 $396 $488 forward 7 unknown #
point $-1 5.2576833408103845 -43.258490310201871 16.263090622678757 #
point $-1 5.2576833408103845 -38.5047610935177 16.263090622678757 #
edge $-1 $489 1 $489 0 $279 $-1 forward 7 unknown #
vertex $-1 $280 $490 #
ellipse-curve $-1 -6.2646595153561151 -40.013302355051337 13.233836918269422 0 -0.64278761758704617 0.76604443648966558 0.5 0 0 1 I I #
point $-1 -5.7646595153561151 -40.881625701859804 14.268664364687419 #
plane-surface $-1 0 0 16.263090622678757 0 0 1 1 0 0 forward_v I I I I #
coedge $-1 $419 $418 $411 $491 forward $284 $-1 #
coedge $-1 $411 $286 $288 $415 reversed $186 $-1 #
coedge $-1 $286 $410 $409 $491 reversed $186 $-1 #
coedge $-1 $294 $289 $286 $413 forward $295 $-1 #
edge $-1 $416 -33.835791611005561 $492 -29.08206239432139 $412 $493 forward 7 unknown #
coedge $-1 $288 $287 $419 $494 reversed $117 $-1 #
edge $-1 $495 -8.8685336385193395e-015 $416 6.2055528246738918 $410 $496 forward 7 unknown #
vertex $-1 $290 $497 #
straight-curve $-1 31.384556783801131 -38.5047610935177 16.263090622678757 -1 0 0 I I #
coedge $-1 $409 $291 $294 $423 reversed $284 $-1 #
coedge $-1 $291 $409 $414 $494 forward $284 $-1 #
vertex $-1 $292 $498 #
straight-curve $-1 74.291456423768764 -43.258490310201871 66.572500744705337 0 0 1 I I #
straight-curve $-1 74.291456423768764 -43.258490310201864 12.27423810669606 0 -0.76604443648966558 -0.64278761758704617 I I #
edge $-1 $492 51.246770711435758 $296 74.291456423768764 $418 $499 forward 7 unknown #
point $-1 74.291456423768764 -43.258490310201871 16.263090622678757 #
point $-1 74.291456423768764 -38.5047610935177 16.263090622678757 #
edge $-1 $500 1 $500 0 $299 $-1 forward 7 unknown #
vertex $-1 $300 $501 #
ellipse-curve $-1 62.769113567602261 -40.013302355051337 13.233836918269422 0 -0.64278761758704617 0.76604443648966558 0.5 0 0 1 I I #
point $-1 63.269113567602261 -40.881625701859804 14.268664364687419 #
plane-surface $-1 78.892788476210825 0 0 -1 0 0 0 0 1 forward_v I I I I #
coedge $-1 $308 $306 $310 $435 reversed $201 $-1 #
edge $-1 $321 -16.263090622678757 $437 16.263090622678757 $320 $502 forward 7 unknown #
vertex $-1 $435 $503 #
straight-curve $-1 -78.892788476210825 -43.258490310201871 0 0 0 -1 I I #
edge $-1 $433 -43.258490310201871 $437 43.258490310201871 $431 $504 forward 7 unknown #
straight-curve $-1 0 -43.258490310201871 -16.263090622678757 -1 0 0 I I #
vertex $-1 $313 $505 #
straight-curve $-1 0 43.258490310201871 -16.263090622678757 1 0 0 I I #
point $-1 78.892788476210825 43.258490310201871 -16.263090622678757 #
point $-1 78.892788476210825 -43.258490310201871 -16.263090622678757 #
straight-curve $-1 -78.892788476210825 0 16.263090622678757 0 -1 0 I I #
point $-1 -78.892788476210825 43.258490310201871 16.263090622678757 #
point $-1 -78.892788476210825 -43.258490310201871 16.263090622678757 #
straight-curve $-1 78.892788476210825 -43.258490310201871 0 0 0 -1 I I #
straight-curve $-1 78.892788476210825 43.258490310201871 0 0 0 -1 I I #
plane-surface $-1 0 43.258490310201871 0 0 -1 0 0 0 -1 forward_v I I I I #
coedge $-1 $457 $456 $336 $449 forward $331 $-1 #
straight-curve $-1 -59.174757689705899 -43.258490310201871 3.9953412454884294 0 0 1 I I #
edge $-1 $452 -43.258490310201871 $450 43.258490310201871 $447 $506 forward 7 unknown #
vertex $-1 $337 $507 #
straight-curve $-1 -34.516886541479181 -43.258490310201871 5.6792460049123044 1 0 0 I I #
vertex $-1 $339 $508 #
straight-curve $-1 -34.516886541479181 43.258490310201871 5.6792460049123044 -1 0 0 I I #
point $-1 -59.174757689705899 43.258490310201871 5.6792460049123044 #
point $-1 -59.174757689705899 -43.258490310201871 5.6792460049123044 #
coedge $-1 $447 $343 $346 $459 forward $331 $-1 #
coedge $-1 $343 $447 $350 $461 reversed $331 $-1 #
straight-curve $-1 -78.892788476210825 0 10.302118977041413 0 1 0 I I #
edge $-1 $348 -10.302118977041413 $452 -5.6792460049123044 $346 $509 forward 7 unknown #
point $-1 -78.892788476210825 43.258490310201871 10.302118977041413 #
edge $-1 $351 -10.302118977041413 $450 -5.6792460049123044 $457 $510 forward 7 unknown #
point $-1 -78.892788476210825 -43.258490310201871 10.302118977041413 #
straight-curve $-1 -59.174757689705899 43.258490310201871 3.9953412454884294 0 0 -1 I I #
coedge $-1 $367 $366 $359 $465 forward $356 $-1 #
edge $-1 $466 74.12524014864843 $469 81.45384792839414 $464 $511 forward 7 unknown #
vertex $-1 $371 $512 #
straight-curve $-1 64.678284712692516 48.33009649739401 16.26309062267876 0 1 0 I I #
edge $-1 $469 -37.087149885519182 $368 -18.095119768827487 $367 $513 forward 7 unknown #
vertex $-1 $468 $514 #
straight-curve $-1 64.678284712692516 -16.84125372646804 71.169591121123418 0 -0.69465836192734942 0.71933980857756763 I I #
point $-1 64.678284712692516 36.181336210315528 16.263090622678767 #
point $-1 45.686254596000822 43.258490310201871 8.9344828429330505 #
straight-curve $-1 0 43.258490310201871 16.263090622678757 -1 0 0 I I #
vertex $-1 $374 $515 #
point $-1 50.984660619339166 35.438747033260796 8.4645126624388194 #
vertex $-1 $378 $516 #
point $-1 56.682269654346669 35.438747033260796 8.4645126624388194 #
vertex $-1 $382 $517 #
point $-1 62.379878689354172 35.438747033260796 8.4645126624388194 #
edge $-1 $481 50.309410122026577 $484 54.298262638009284 $387 $518 forward 7 unknown #
vertex $-1 $401 $519 #
straight-curve $-1 -17.787002371522615 -72.340552704523262 16.26309062267876 0 -1 0 I I #
edge $-1 $484 -14.654672613844557 $398 8.390013098488442 $397 $520 forward 7 unknown #
vertex $-1 $483 $521 #
straight-curve $-1 -17.787002371522615 -43.258490310201864 12.27423810669606 0 0.76604443648966558 0.64278761758704617 I I #
point $-1 -17.787002371522615 -38.5047610935177 16.263090622678757 #
point $-1 5.2576833408103845 -43.258490310201871 12.274238106696055 #
straight-curve $-1 0 -43.258490310201871 16.263090622678757 1 0 0 I I #
vertex $-1 $404 $522 #
point $-1 -5.7646595153561151 -40.013302355051337 13.233836918269422 #
edge $-1 $492 50.309410122026577 $495 54.298262638009284 $409 $523 forward 7 unknown #
vertex $-1 $423 $524 #
straight-curve $-1 51.246770711435758 -72.340552704523262 16.26309062267876 0 -1 0 I I #
edge $-1 $495 19.862213927634627 $420 42.906899639967634 $419 $525 forward 7 unknown #
vertex $-1 $494 $526 #
straight-curve $-1 51.246770711435758 -43.258490310201864 12.27423810669606 0 0.76604443648966558 0.64278761758704617 I I #
point $-1 51.246770711435758 -38.5047610935177 16.263090622678757 #
point $-1 74.291456423768764 -43.258490310201871 12.274238106696055 #
straight-curve $-1 0 -43.258490310201871 16.263090622678757 1 0 0 I I #
vertex $-1 $426 $527 #
point $-1 63.269113567602261 -40.013302355051337 13.233836918269422 #
straight-curve $-1 -78.892788476210825 43.258490310201871 0 0 0 -1 I I #
point $-1 -78.892788476210825 -43.258490310201871 -16.263090622678757 #
straight-curve $-1 -78.892788476210825 0 -16.263090622678757 0 1 0 I I #
point $-1 -78.892788476210825 43.258490310201871 -16.263090622678757 #
straight-curve $-1 -78.892788476210825 0 5.6792460049123044 0 -1 0 I I #
point $-1 -78.892788476210825 -43.258490310201871 5.6792460049123044 #
point $-1 -78.892788476210825 43.258490310201871 5.6792460049123044 #
straight-curve $-1 -78.892788476210825 43.258490310201871 0 0 0 -1 I I #
straight-curve $-1 -78.892788476210825 -43.258490310201871 0 0 0 -1 I I #
straight-curve $-1 64.678284712692516 43.258490310201871 90.38833077132719 0 0 -1 I I #
point $-1 64.678284712692516 43.258490310201871 16.263090622678757 #
straight-curve $-1 27.591134827173335 43.258490310201871 8.9344828429330505 -1 0 0 I I #
point $-1 64.678284712692516 43.258490310201871 8.9344828429330505 #
point $-1 49.484660619339166 34.359737320394444 7.422525119547795 #
point $-1 55.182269654346669 34.359737320394444 7.422525119547795 #
point $-1 60.879878689354172 34.359737320394444 7.422525119547795 #
straight-curve $-1 -17.787002371522615 -43.258490310201871 66.572500744705337 0 0 -1 I I #
point $-1 -17.787002371522615 -43.258490310201871 16.263090622678757 #
straight-curve $-1 -3.1323297576780575 -43.258490310201871 12.27423810669605 1 0 0 I I #
point $-1 -17.787002371522615 -43.258490310201871 12.274238106696055 #
point $-1 -6.2646595153561151 -39.691908546257821 12.850814700024589 #
straight-curve $-1 51.246770711435758 -43.258490310201871 66.572500744705337 0 0 -1 I I #
point $-1 51.246770711435758 -43.258490310201871 16.263090622678757 #
straight-curve $-1 31.384556783801131 -43.258490310201871 12.27423810669605 1 0 0 I I #
point $-1 51.246770711435758 -43.258490310201871 12.274238106696055 #
point $-1 62.769113567602261 -39.691908546257821 12.850814700024589 #
End-of-ACIS-data 