500 0 11 0           
7 Unknown 11 ACIS 5.0 NT 24 Fri Mar 26 03:36:45 1999 
-1 9.9999999999999995e-007 1e-010 
body $-1 $11 $-1 $12 #
body $-1 $13 $-1 $14 #
body $-1 $15 $-1 $16 #
body $-1 $17 $-1 $18 #
body $-1 $19 $-1 $20 #
body $-1 $21 $-1 $22 #
body $-1 $23 $-1 $24 #
body $-1 $25 $-1 $26 #
body $-1 $27 $-1 $28 #
body $-1 $29 $-1 $30 #
body $-1 $31 $-1 $32 #
lump $-1 $-1 $33 $0 #
transform $-1 1 0 0 0 1 0 0 0 1 54.209418012024294 25.991304107117152 9.604654249123449 1 rotate no_reflect no_shear #
lump $-1 $-1 $34 $1 #
transform $-1 1 0 0 0 1 0 0 0 1 54.209418012024294 25.991304107117152 9.604654249123449 1 rotate no_reflect no_shear #
lump $-1 $-1 $35 $2 #
transform $-1 1 0 0 0 1 0 0 0 1 54.209418012024294 25.991304107117152 9.604654249123449 1 rotate no_reflect no_shear #
lump $-1 $-1 $36 $3 #
transform $-1 1 0 0 0 1 0 0 0 1 54.209418012024294 25.991304107117152 9.604654249123449 1 rotate no_reflect no_shear #
lump $-1 $-1 $37 $4 #
transform $-1 1 0 0 0 1 0 0 0 1 54.209418012024294 25.991304107117152 9.604654249123449 1 rotate no_reflect no_shear #
lump $-1 $-1 $38 $5 #
transform $-1 1 0 0 0 1 0 0 0 1 54.209418012024294 25.991304107117152 9.604654249123449 1 rotate no_reflect no_shear #
lump $-1 $-1 $39 $6 #
transform $-1 1 0 0 0 1 0 0 0 1 54.209418012024294 25.991304107117152 9.604654249123449 1 rotate no_reflect no_shear #
lump $-1 $-1 $40 $7 #
transform $-1 1 0 0 0 1 0 0 0 1 54.209418012024294 25.991304107117152 9.604654249123449 1 rotate no_reflect no_shear #
lump $-1 $-1 $41 $8 #
transform $-1 1 0 0 0 1 0 0 0 1 54.209418012024294 25.991304107117152 9.604654249123449 1 rotate no_reflect no_shear #
lump $-1 $-1 $42 $9 #
transform $-1 1 0 0 0 1 0 0 0 1 54.209418012024294 25.991304107117152 9.604654249123449 1 rotate no_reflect no_shear #
lump $-1 $-1 $43 $10 #
transform $-1 1 0 0 0 1 0 0 0 1 54.209418012024294 25.991304107117152 9.604654249123449 1 rotate no_reflect no_shear #
shell $-1 $-1 $-1 $44 $-1 $11 #
shell $-1 $-1 $-1 $45 $-1 $13 #
shell $-1 $-1 $-1 $46 $-1 $15 #
shell $-1 $-1 $-1 $47 $-1 $17 #
shell $-1 $-1 $-1 $48 $-1 $19 #
shell $-1 $-1 $-1 $49 $-1 $21 #
shell $-1 $-1 $-1 $50 $-1 $23 #
shell $-1 $-1 $-1 $51 $-1 $25 #
shell $-1 $-1 $-1 $52 $-1 $27 #
shell $-1 $-1 $-1 $53 $-1 $29 #
shell $-1 $-1 $-1 $54 $-1 $31 #
face $-1 $55 $56 $33 $-1 $57 forward single #
face $-1 $58 $59 $34 $-1 $60 forward single #
face $-1 $61 $62 $35 $-1 $63 forward single #
face $-1 $64 $65 $36 $-1 $66 reversed single #
face $-1 $67 $68 $37 $-1 $69 forward single #
face $-1 $70 $71 $38 $-1 $72 reversed single #
face $-1 $73 $74 $39 $-1 $75 forward single #
face $-1 $76 $77 $40 $-1 $78 reversed single #
face $-1 $79 $80 $41 $-1 $81 forward single #
face $-1 $82 $83 $42 $-1 $84 reversed single #
face $-1 $85 $86 $43 $-1 $87 forward single #
face $-1 $88 $89 $33 $-1 $90 reversed single #
loop $-1 $-1 $91 $44 #
plane-surface $-1 0 0 9.604654249123449 0 0 1 1 0 0 forward_v I I I I #
face $-1 $92 $93 $34 $-1 $94 reversed single #
loop $-1 $-1 $95 $45 #
plane-surface $-1 0 -21.996762201611777 3.3376344159076714 0 0 1 1 0 0 forward_v I I I I #
face $-1 $96 $97 $35 $-1 $98 reversed single #
loop $-1 $-1 $99 $46 #
plane-surface $-1 0 21.99676220161178 3.3376344159076714 0 0 1 1 0 0 forward_v I I I I #
face $-1 $100 $101 $36 $-1 $102 reversed single #
loop $-1 $-1 $103 $47 #
plane-surface $-1 -134.78031588541586 -1.7763568394002505e-015 77.213982747873388 0 -1 0 0.74314483375859142 0 -0.66913059716165679 forward_v I I I I #
face $-1 $104 $105 $37 $-1 $106 forward single #
loop $-1 $107 $108 $48 #
cone-surface $-1 -50.995342740061197 -4.4656137146869526 6.2434655132393706 0.74314483375859142 0 -0.66913059716165679 1.0036958957424851 0 1.1147172506378871 1 I I 0 1 1.5 forward I I I I #
face $-1 $109 $110 $38 $-1 $111 reversed single #
loop $-1 $-1 $112 $49 #
plane-surface $-1 -54.209418012024287 -4.4656137146869526 4.6676222555300058 -0.74314483375859142 0 0.66913059716165679 0.66913059716165679 0 0.74314483375859142 forward_v I I I I #
face $-1 $113 $114 $39 $-1 $115 forward single #
loop $-1 $116 $117 $50 #
cone-surface $-1 -50.995342740061197 4.465613714686949 6.2434655132393706 0.74314483375859142 0 -0.66913059716165679 1.0036958957424851 0 1.1147172506378871 1 I I 0 1 1.5 forward I I I I #
face $-1 $118 $119 $40 $-1 $120 reversed single #
loop $-1 $-1 $121 $51 #
plane-surface $-1 62.233955393072485 -1.7763568394002505e-015 157.78488062126496 0 -1 0 -0.74314483375859142 0 -0.66913059716165679 forward_v I I I I #
face $-1 $122 $123 $41 $-1 $124 forward single #
loop $-1 $125 $126 $52 #
cone-surface $-1 50.995342740061204 -4.4656137146869526 6.2434655132393901 -0.74314483375859142 0 -0.66913059716165679 1.0036958957424851 0 -1.1147172506378871 1 I I 0 1 1.5 forward I I I I #
face $-1 $127 $128 $42 $-1 $129 reversed single #
loop $-1 $-1 $130 $53 #
plane-surface $-1 62.233955393072485 8.9312274293738998 157.78488062126496 0 -1 0 -0.74314483375859142 0 -0.66913059716165679 forward_v I I I I #
face $-1 $131 $132 $43 $-1 $133 forward single #
loop $-1 $134 $135 $54 #
cone-surface $-1 50.995342740061204 4.465613714686949 6.2434655132393901 -0.74314483375859142 0 -0.66913059716165679 1.0036958957424851 0 -1.1147172506378871 1 I I 0 1 1.5 forward I I I I #
face $-1 $136 $137 $33 $-1 $138 reversed single #
loop $-1 $-1 $139 $55 #
plane-surface $-1 0 0 -9.604654249123449 0 0 1 1 0 0 forward_v I I I I #
coedge $-1 $140 $141 $142 $143 forward $56 $-1 #
face $-1 $144 $145 $34 $-1 $146 reversed single #
loop $-1 $-1 $147 $58 #
plane-surface $-1 0 -21.996762201611777 -1.1098712734123799 0 0 1 1 0 0 forward_v I I I I #
coedge $-1 $148 $149 $150 $151 reversed $59 $-1 #
face $-1 $152 $153 $35 $-1 $154 reversed single #
loop $-1 $-1 $155 $61 #
plane-surface $-1 0 21.99676220161178 -1.1098712734123799 0 0 1 1 0 0 forward_v I I I I #
coedge $-1 $156 $157 $158 $159 reversed $62 $-1 #
face $-1 $160 $161 $36 $-1 $162 reversed single #
loop $-1 $-1 $163 $64 #
plane-surface $-1 -54.209418012024287 -4.4656137146869526 4.6676222555300058 -0.74314483375859142 0 0.66913059716165679 0.66913059716165679 0 0.74314483375859142 forward_v I I I I #
coedge $-1 $164 $165 $166 $167 reversed $65 $-1 #
face $-1 $-1 $168 $37 $-1 $169 forward single #
loop $-1 $170 $171 $67 #
cone-surface $-1 -49.446570574390236 -4.4656137146869526 4.8489448262807731 0.74314483375859142 0 -0.66913059716165679 0.50184794787124254 0 0.55735862531894353 1 I I -0.70710678118654757 0.70710678118654757 0.75 forward I I I I #
loop $-1 $-1 $172 $48 #
coedge $-1 $108 $108 $173 $174 reversed $68 $-1 #
face $-1 $175 $176 $38 $-1 $177 reversed single #
loop $-1 $-1 $178 $70 #
plane-surface $-1 -134.78031588541586 8.9312274293738998 77.213982747873388 0 -1 0 0.74314483375859142 0 -0.66913059716165679 forward_v I I I I #
coedge $-1 $179 $180 $181 $182 reversed $71 $-1 #
face $-1 $-1 $183 $39 $-1 $184 forward single #
loop $-1 $185 $186 $73 #
cone-surface $-1 -49.446570574390236 4.465613714686949 4.8489448262807731 0.74314483375859142 0 -0.66913059716165679 0.50184794787124254 0 0.55735862531894353 1 I I -0.70710678118654757 0.70710678118654757 0.75 forward I I I I #
loop $-1 $-1 $187 $50 #
coedge $-1 $117 $117 $188 $189 reversed $74 $-1 #
face $-1 $190 $191 $40 $-1 $192 reversed single #
loop $-1 $-1 $193 $76 #
plane-surface $-1 -18.336942480319088 -4.4656137146869526 85.238520128921579 0.74314483375859142 0 0.66913059716165679 0.66913059716165679 0 -0.74314483375859142 forward_v I I I I #
coedge $-1 $194 $195 $196 $197 reversed $77 $-1 #
face $-1 $-1 $198 $41 $-1 $199 forward single #
loop $-1 $200 $201 $79 #
cone-surface $-1 49.446570574390243 -4.4656137146869526 4.8489448262807926 -0.74314483375859142 0 -0.66913059716165679 0.50184794787124254 0 -0.55735862531894353 1 I I -0.70710678118654757 0.70710678118654757 0.75 forward I I I I #
loop $-1 $-1 $202 $52 #
coedge $-1 $126 $126 $203 $204 reversed $80 $-1 #
face $-1 $205 $206 $42 $-1 $207 forward single #
loop $-1 $-1 $208 $82 #
plane-surface $-1 -18.336942480319088 -4.4656137146869526 85.238520128921579 0.74314483375859142 0 0.66913059716165679 0.66913059716165679 0 -0.74314483375859142 forward_v I I I I #
coedge $-1 $209 $210 $211 $212 reversed $83 $-1 #
face $-1 $-1 $213 $43 $-1 $214 forward single #
loop $-1 $215 $216 $85 #
cone-surface $-1 49.446570574390243 4.465613714686949 4.8489448262807926 -0.74314483375859142 0 -0.66913059716165679 0.50184794787124254 0 -0.55735862531894353 1 I I -0.70710678118654757 0.70710678118654757 0.75 forward I I I I #
loop $-1 $-1 $217 $54 #
coedge $-1 $135 $135 $218 $219 reversed $86 $-1 #
face $-1 $220 $221 $33 $-1 $222 reversed single #
loop $-1 $-1 $223 $88 #
plane-surface $-1 0 -25.991304107117152 0 0 1 0 0 0 1 forward_v I I I I #
coedge $-1 $224 $225 $226 $227 forward $89 $-1 #
coedge $-1 $228 $91 $229 $230 forward $56 $-1 #
coedge $-1 $91 $228 $231 $232 forward $56 $-1 #
coedge $-1 $233 $234 $91 $143 reversed $235 $-1 #
edge $-1 $236 -25.991304107117152 $237 25.991304107117152 $142 $238 forward 7 unknown #
face $-1 $239 $240 $34 $-1 $241 reversed single #
loop $-1 $-1 $242 $92 #
plane-surface $-1 0 -18.002220296106401 1.1138815712476458 0 -1 0 0 0 -1 forward_v I I I I #
coedge $-1 $243 $244 $245 $246 reversed $93 $-1 #
coedge $-1 $247 $95 $248 $249 forward $59 $-1 #
coedge $-1 $95 $247 $250 $251 reversed $59 $-1 #
coedge $-1 $252 $253 $95 $151 forward $254 $-1 #
edge $-1 $255 7.0038391953005128 $256 14.992923006311264 $150 $257 forward 7 unknown #
face $-1 $258 $259 $35 $-1 $260 reversed single #
loop $-1 $-1 $261 $96 #
plane-surface $-1 0 18.002220296106405 1.1138815712476458 0 1 0 0 0 1 forward_v I I I I #
coedge $-1 $262 $263 $264 $265 reversed $97 $-1 #
coedge $-1 $266 $99 $267 $268 reversed $62 $-1 #
coedge $-1 $99 $266 $269 $270 forward $62 $-1 #
coedge $-1 $271 $272 $99 $159 forward $259 $-1 #
edge $-1 $273 -14.992923006311266 $274 -7.0038391953005146 $158 $275 forward 7 unknown #
face $-1 $276 $277 $36 $-1 $278 reversed single #
loop $-1 $-1 $279 $100 #
plane-surface $-1 -134.78031588541586 -8.9312274293739033 77.213982747873388 0 1 0 -0.74314483375859142 0 0.66913059716165679 forward_v I I I I #
coedge $-1 $280 $281 $282 $283 reversed $101 $-1 #
coedge $-1 $165 $103 $284 $285 reversed $65 $-1 #
coedge $-1 $103 $164 $280 $286 reversed $65 $-1 #
coedge $-1 $282 $287 $103 $167 forward $277 $-1 #
edge $-1 $288 29.002337124813245 $289 33.939369118406695 $166 $290 forward 7 unknown #
loop $-1 $-1 $173 $104 #
plane-surface $-1 -54.209418012024287 -4.4656137146869526 4.6676222555300058 -0.74314483375859142 0 0.66913059716165679 0.66913059716165679 0 0.74314483375859142 forward_v I I I I #
loop $-1 $-1 $291 $67 #
coedge $-1 $171 $171 $172 $292 reversed $105 $-1 #
coedge $-1 $172 $172 $171 $292 forward $107 $-1 #
coedge $-1 $173 $173 $108 $174 forward $168 $-1 #
edge $-1 $293 0 $293 6.2831853071796004 $173 $294 forward 7 unknown #
face $-1 $295 $296 $38 $-1 $297 forward single #
loop $-1 $-1 $298 $109 #
plane-surface $-1 -54.209418012024294 0 0 1 0 0 0 0 -1 forward_v I I I I #
coedge $-1 $299 $300 $301 $302 reversed $110 $-1 #
coedge $-1 $303 $112 $304 $305 reversed $71 $-1 #
coedge $-1 $112 $303 $306 $307 reversed $71 $-1 #
coedge $-1 $308 $309 $112 $182 forward $296 $-1 #
edge $-1 $310 -1.0694865687384493e-014 $311 6.643431763662405 $181 $312 forward 7 unknown #
loop $-1 $-1 $188 $113 #
plane-surface $-1 -54.209418012024287 -4.4656137146869526 4.6676222555300058 -0.74314483375859142 0 0.66913059716165679 0.66913059716165679 0 0.74314483375859142 forward_v I I I I #
loop $-1 $-1 $313 $73 #
coedge $-1 $186 $186 $187 $314 reversed $114 $-1 #
coedge $-1 $187 $187 $186 $314 forward $116 $-1 #
coedge $-1 $188 $188 $117 $189 forward $183 $-1 #
edge $-1 $315 0 $315 6.2831853071796004 $188 $316 forward 7 unknown #
face $-1 $317 $318 $40 $-1 $319 forward single #
loop $-1 $-1 $320 $118 #
plane-surface $-1 62.233955393072485 -8.9312274293739033 157.78488062126496 0 1 0 0.74314483375859142 0 0.66913059716165679 forward_v I I I I #
coedge $-1 $321 $322 $323 $324 reversed $119 $-1 #
coedge $-1 $195 $121 $325 $326 reversed $77 $-1 #
coedge $-1 $121 $194 $321 $327 reversed $77 $-1 #
coedge $-1 $323 $328 $121 $197 forward $318 $-1 #
edge $-1 $329 -23.092440315488052 $330 -18.647116852265899 $196 $331 forward 7 unknown #
loop $-1 $-1 $203 $122 #
plane-surface $-1 -18.336942480319088 -4.4656137146869526 85.238520128921579 0.74314483375859142 0 0.66913059716165679 0.66913059716165679 0 -0.74314483375859142 forward_v I I I I #
loop $-1 $-1 $332 $79 #
coedge $-1 $201 $201 $202 $333 reversed $123 $-1 #
coedge $-1 $202 $202 $201 $333 forward $125 $-1 #
coedge $-1 $203 $203 $126 $204 forward $198 $-1 #
edge $-1 $334 0 $334 6.2831853071796004 $203 $335 forward 7 unknown #
face $-1 $336 $337 $42 $-1 $338 forward single #
loop $-1 $-1 $339 $127 #
plane-surface $-1 0 0 9.604654249123449 0 0 1 1 0 0 forward_v I I I I #
coedge $-1 $340 $341 $342 $343 reversed $128 $-1 #
coedge $-1 $210 $130 $344 $345 reversed $83 $-1 #
coedge $-1 $130 $209 $339 $346 reversed $83 $-1 #
coedge $-1 $347 $348 $130 $212 forward $349 $-1 #
edge $-1 $350 -74.224818055102475 $351 -69.287786061509024 $211 $352 forward 7 unknown #
loop $-1 $-1 $218 $131 #
plane-surface $-1 -18.336942480319088 -4.4656137146869526 85.238520128921579 0.74314483375859142 0 0.66913059716165679 0.66913059716165679 0 -0.74314483375859142 forward_v I I I I #
loop $-1 $-1 $353 $85 #
coedge $-1 $216 $216 $217 $354 reversed $132 $-1 #
coedge $-1 $217 $217 $216 $354 forward $134 $-1 #
coedge $-1 $218 $218 $135 $219 forward $213 $-1 #
edge $-1 $355 0 $355 6.2831853071796004 $218 $356 forward 7 unknown #
face $-1 $357 $358 $33 $-1 $359 reversed single #
loop $-1 $-1 $360 $136 #
plane-surface $-1 -54.209418012024294 0 0 1 0 0 0 0 -1 forward_v I I I I #
coedge $-1 $361 $231 $362 $363 forward $137 $-1 #
coedge $-1 $364 $139 $361 $365 forward $89 $-1 #
coedge $-1 $139 $364 $366 $367 forward $89 $-1 #
coedge $-1 $234 $233 $139 $227 reversed $235 $-1 #
edge $-1 $368 -25.991304107117152 $369 25.991304107117152 $226 $370 forward 7 unknown #
coedge $-1 $141 $140 $371 $372 forward $56 $-1 #
coedge $-1 $373 $374 $140 $230 reversed $358 $-1 #
edge $-1 $237 -54.209418012024294 $375 54.209418012024294 $229 $376 forward 7 unknown #
coedge $-1 $223 $377 $141 $232 reversed $137 $-1 #
edge $-1 $378 -54.209418012024294 $236 54.209418012024294 $231 $379 forward 7 unknown #
coedge $-1 $226 $142 $377 $380 forward $235 $-1 #
coedge $-1 $142 $226 $373 $381 reversed $235 $-1 #
loop $-1 $-1 $233 $357 #
vertex $-1 $143 $382 #
vertex $-1 $143 $383 #
straight-curve $-1 54.209418012024294 0 9.604654249123449 0 1 0 I I #
face $-1 $384 $385 $34 $-1 $386 reversed single #
loop $-1 $-1 $387 $144 #
plane-surface $-1 -54.209418012024294 0 0 1 0 0 0 0 -1 forward_v I I I I #
coedge $-1 $388 $248 $253 $389 reversed $145 $-1 #
coedge $-1 $390 $147 $391 $392 reversed $93 $-1 #
coedge $-1 $147 $390 $388 $393 forward $93 $-1 #
coedge $-1 $253 $252 $147 $246 forward $254 $-1 #
edge $-1 $394 -14.992923006311264 $395 -7.0038391953005128 $245 $396 forward 7 unknown #
coedge $-1 $149 $148 $387 $397 reversed $59 $-1 #
coedge $-1 $242 $398 $148 $249 reversed $145 $-1 #
edge $-1 $255 -54.209418012024294 $399 54.209418012024294 $248 $400 forward 7 unknown #
coedge $-1 $401 $402 $149 $251 forward $385 $-1 #
edge $-1 $256 -54.209418012024294 $403 54.209418012024294 $250 $404 forward 7 unknown #
coedge $-1 $245 $150 $402 $405 forward $254 $-1 #
coedge $-1 $150 $245 $242 $389 forward $254 $-1 #
loop $-1 $-1 $150 $384 #
vertex $-1 $151 $406 #
vertex $-1 $405 $407 #
straight-curve $-1 54.209418012024294 -10.998381100805888 3.3376344159076714 0 -1 0 I I #
face $-1 $408 $409 $35 $-1 $410 reversed single #
loop $-1 $-1 $158 $152 #
plane-surface $-1 54.209418012024294 0 0 -1 0 0 0 0 1 forward_v I I I I #
coedge $-1 $411 $269 $412 $413 reversed $153 $-1 #
coedge $-1 $414 $155 $411 $415 forward $97 $-1 #
coedge $-1 $155 $414 $416 $417 reversed $97 $-1 #
coedge $-1 $272 $271 $155 $265 forward $259 $-1 #
edge $-1 $418 7.0038391953005146 $419 14.992923006311266 $264 $420 forward 7 unknown #
coedge $-1 $157 $156 $421 $422 reversed $62 $-1 #
coedge $-1 $423 $424 $156 $268 forward $425 $-1 #
edge $-1 $426 -54.209418012024294 $273 54.209418012024294 $267 $427 forward 7 unknown #
coedge $-1 $261 $428 $157 $270 reversed $153 $-1 #
edge $-1 $429 -54.209418012024294 $274 54.209418012024294 $269 $430 forward 7 unknown #
coedge $-1 $264 $158 $428 $431 forward $259 $-1 #
coedge $-1 $158 $264 $423 $432 reversed $259 $-1 #
vertex $-1 $432 $433 #
vertex $-1 $159 $434 #
straight-curve $-1 54.209418012024294 10.99838110080589 3.3376344159076714 0 -1 0 I I #
face $-1 $-1 $435 $36 $-1 $436 forward single #
loop $-1 $-1 $166 $160 #
plane-surface $-1 -54.209418012024294 0 0 1 0 0 0 0 -1 forward_v I I I I #
coedge $-1 $437 $438 $439 $440 reversed $161 $-1 #
coedge $-1 $441 $163 $165 $286 forward $101 $-1 #
coedge $-1 $163 $441 $437 $442 forward $101 $-1 #
coedge $-1 $439 $166 $163 $283 forward $277 $-1 #
edge $-1 $289 -2.2328068573434745 $443 6.6984205720304271 $282 $444 forward 7 unknown #
coedge $-1 $445 $446 $164 $285 forward $435 $-1 #
edge $-1 $447 -17.626063393905788 $288 -13.180739930683636 $284 $448 forward 7 unknown #
edge $-1 $289 -1.0694865687384493e-014 $447 6.643431763662405 $165 $449 forward 7 unknown #
coedge $-1 $166 $439 $445 $450 reversed $277 $-1 #
vertex $-1 $450 $451 #
vertex $-1 $167 $452 #
straight-curve $-1 -54.209418012024294 -1.7763568394002505e-015 38.606991373936694 0 0 -1 I I #
coedge $-1 $291 $291 $-1 $453 reversed $170 $-1 #
edge $-1 $454 0 $454 6.2831853071796004 $171 $455 forward 7 unknown #
vertex $-1 $174 $456 #
ellipse-curve $-1 -51.986756280413218 -4.4656137146869526 7.1361382523267256 -0.74314483375859142 0 0.66913059716165679 1.0036958957424851 0 1.1147172506378871 1 I I #
face $-1 $-1 $457 $38 $-1 $458 forward single #
loop $-1 $-1 $309 $175 #
plane-surface $-1 -134.78031588541586 -1.7763568394002505e-015 77.213982747873388 0 -1 0 0.74314483375859142 0 -0.66913059716165679 forward_v I I I I #
coedge $-1 $304 $459 $300 $460 forward $176 $-1 #
coedge $-1 $300 $178 $303 $461 reversed $110 $-1 #
coedge $-1 $178 $299 $298 $460 reversed $110 $-1 #
coedge $-1 $462 $306 $178 $302 forward $457 $-1 #
edge $-1 $463 -17.626063393905788 $464 -13.180739930683636 $301 $465 forward 7 unknown #
coedge $-1 $180 $179 $299 $461 forward $71 $-1 #
coedge $-1 $466 $298 $179 $305 forward $176 $-1 #
edge $-1 $467 -11.164034286717376 $310 -2.2328068573434745 $304 $468 forward 7 unknown #
coedge $-1 $301 $469 $180 $307 forward $457 $-1 #
edge $-1 $311 2.2328068573434745 $463 11.164034286717376 $306 $470 forward 7 unknown #
coedge $-1 $309 $181 $469 $471 reversed $296 $-1 #
coedge $-1 $181 $308 $466 $472 reversed $296 $-1 #
vertex $-1 $305 $473 #
vertex $-1 $307 $474 #
straight-curve $-1 -54.209418012024287 -1.7763568394002505e-015 4.6676222555300058 0.66913059716165679 0 0.74314483375859142 I I #
coedge $-1 $313 $313 $-1 $475 reversed $185 $-1 #
edge $-1 $476 0 $476 6.2831853071796004 $186 $477 forward 7 unknown #
vertex $-1 $189 $478 #
ellipse-curve $-1 -51.986756280413218 4.465613714686949 7.1361382523267256 -0.74314483375859142 0 0.66913059716165679 1.0036958957424851 0 1.1147172506378871 1 I I #
face $-1 $-1 $479 $40 $-1 $480 reversed single #
loop $-1 $-1 $196 $190 #
plane-surface $-1 0 0 9.604654249123449 0 0 1 1 0 0 forward_v I I I I #
coedge $-1 $481 $482 $483 $484 reversed $191 $-1 #
coedge $-1 $485 $193 $195 $327 forward $119 $-1 #
coedge $-1 $193 $485 $481 $486 forward $119 $-1 #
coedge $-1 $483 $196 $193 $324 forward $318 $-1 #
edge $-1 $330 -2.2328068573434745 $487 6.6984205720304271 $323 $488 forward 7 unknown #
coedge $-1 $489 $490 $194 $326 forward $479 $-1 #
edge $-1 $491 -74.224818055102475 $329 -69.287786061509024 $325 $492 forward 7 unknown #
edge $-1 $330 101.77540426038615 $491 108.41883602404857 $195 $493 forward 7 unknown #
coedge $-1 $196 $483 $489 $494 forward $318 $-1 #
vertex $-1 $197 $495 #
vertex $-1 $197 $496 #
straight-curve $-1 31.116977696536242 -1.7763568394002505e-015 9.6046542491234419 -1 0 0 I I #
coedge $-1 $332 $332 $-1 $497 reversed $200 $-1 #
edge $-1 $498 0 $498 6.2831853071796004 $201 $499 forward 7 unknown #
vertex $-1 $204 $500 #
ellipse-curve $-1 51.986756280413211 -4.4656137146869526 7.1361382523267345 0.74314483375859142 0 0.66913059716165679 1.0036958957424851 0 -1.1147172506378871 1 I I #
face $-1 $-1 $349 $42 $-1 $501 reversed single #
loop $-1 $-1 $502 $205 #
plane-surface $-1 62.233955393072485 -1.7763568394002505e-015 157.78488062126496 0 -1 0 -0.74314483375859142 0 -0.66913059716165679 forward_v I I I I #
coedge $-1 $503 $504 $210 $346 forward $206 $-1 #
coedge $-1 $344 $208 $503 $505 reversed $128 $-1 #
coedge $-1 $208 $344 $348 $506 reversed $128 $-1 #
coedge $-1 $507 $502 $208 $343 forward $337 $-1 #
edge $-1 $508 101.77540426038615 $509 108.41883602404857 $342 $510 forward 7 unknown #
coedge $-1 $341 $340 $209 $345 forward $128 $-1 #
edge $-1 $511 101.77540426038615 $350 108.41883602404857 $209 $512 forward 7 unknown #
edge $-1 $351 -23.092440315488052 $511 -18.647116852265899 $339 $513 forward 7 unknown #
coedge $-1 $514 $211 $504 $515 reversed $349 $-1 #
coedge $-1 $211 $514 $341 $506 forward $349 $-1 #
loop $-1 $-1 $211 $336 #
vertex $-1 $212 $516 #
vertex $-1 $346 $517 #
straight-curve $-1 54.209418012024294 8.9312274293738998 78.89244031063248 0 0 1 I I #
coedge $-1 $353 $353 $-1 $518 reversed $215 $-1 #
edge $-1 $519 0 $519 6.2831853071796004 $216 $520 forward 7 unknown #
vertex $-1 $219 $521 #
ellipse-curve $-1 51.986756280413211 4.465613714686949 7.1361382523267345 0.74314483375859142 0 0.66913059716165679 1.0036958957424851 0 -1.1147172506378871 1 I I #
face $-1 $-1 $235 $33 $-1 $522 reversed single #
loop $-1 $-1 $373 $220 #
plane-surface $-1 0 25.991304107117152 0 0 -1 0 0 0 -1 forward_v I I I I #
coedge $-1 $523 $371 $374 $524 forward $221 $-1 #
coedge $-1 $377 $223 $224 $365 reversed $137 $-1 #
coedge $-1 $371 $523 $223 $363 reversed $221 $-1 #
edge $-1 $378 -9.604654249123449 $525 9.604654249123449 $362 $526 forward 7 unknown #
coedge $-1 $225 $224 $523 $527 forward $89 $-1 #
edge $-1 $369 -54.209418012024294 $525 54.209418012024294 $361 $528 forward 7 unknown #
coedge $-1 $374 $373 $225 $367 reversed $358 $-1 #
edge $-1 $529 -54.209418012024294 $368 54.209418012024294 $366 $530 forward 7 unknown #
vertex $-1 $227 $531 #
vertex $-1 $380 $532 #
straight-curve $-1 54.209418012024294 0 -9.604654249123449 0 -1 0 I I #
coedge $-1 $360 $362 $228 $372 reversed $221 $-1 #
edge $-1 $375 -25.991304107117152 $378 25.991304107117152 $371 $533 forward 7 unknown #
coedge $-1 $366 $229 $234 $381 forward $358 $-1 #
coedge $-1 $229 $366 $360 $524 reversed $358 $-1 #
vertex $-1 $230 $534 #
straight-curve $-1 0 25.991304107117152 9.604654249123449 -1 0 0 I I #
coedge $-1 $231 $361 $233 $380 reversed $137 $-1 #
vertex $-1 $372 $535 #
straight-curve $-1 0 -25.991304107117152 9.604654249123449 1 0 0 I I #
edge $-1 $236 -9.604654249123449 $369 9.604654249123449 $233 $536 forward 7 unknown #
edge $-1 $237 -9.604654249123449 $368 9.604654249123449 $234 $537 forward 7 unknown #
point $-1 54.209418012024294 -25.991304107117152 9.604654249123449 #
point $-1 54.209418012024294 25.991304107117152 9.604654249123449 #
face $-1 $-1 $254 $34 $-1 $538 reversed single #
loop $-1 $-1 $250 $239 #
plane-surface $-1 0 -25.991304107117152 0 0 1 0 0 0 1 forward_v I I I I #
coedge $-1 $539 $540 $247 $397 forward $240 $-1 #
coedge $-1 $398 $242 $244 $393 reversed $145 $-1 #
edge $-1 $395 -1.6668120590362028 $255 2.7806936302838485 $253 $541 forward 7 unknown #
coedge $-1 $244 $243 $542 $543 reversed $93 $-1 #
coedge $-1 $402 $401 $243 $392 forward $385 $-1 #
edge $-1 $544 -54.209418012024294 $394 54.209418012024294 $391 $545 forward 7 unknown #
edge $-1 $546 -54.209418012024294 $395 54.209418012024294 $388 $547 forward 7 unknown #
vertex $-1 $392 $548 #
vertex $-1 $246 $549 #
straight-curve $-1 54.209418012024294 -10.998381100805888 -1.1098712734123799 0 1 0 I I #
edge $-1 $403 -14.992923006311264 $399 -7.0038391953005128 $387 $550 forward 7 unknown #
coedge $-1 $248 $388 $539 $551 reversed $145 $-1 #
vertex $-1 $397 $552 #
straight-curve $-1 0 -18.002220296106401 3.3376344159076714 -1 0 0 I I #
coedge $-1 $391 $250 $540 $553 forward $385 $-1 #
coedge $-1 $250 $391 $252 $405 reversed $385 $-1 #
vertex $-1 $553 $554 #
straight-curve $-1 0 -25.991304107117152 3.3376344159076714 -1 0 0 I I #
edge $-1 $256 -3.3376344159076714 $394 1.1098712734123799 $252 $555 forward 7 unknown #
point $-1 54.209418012024294 -18.002220296106401 3.3376344159076714 #
point $-1 54.209418012024294 -25.991304107117152 3.3376344159076714 #
face $-1 $-1 $425 $35 $-1 $556 reversed single #
loop $-1 $-1 $421 $258 #
plane-surface $-1 -54.209418012024294 0 0 1 0 0 0 0 -1 forward_v I I I I #
coedge $-1 $428 $261 $262 $415 reversed $153 $-1 #
coedge $-1 $421 $557 $261 $413 forward $409 $-1 #
edge $-1 $558 -1.6668120590362028 $429 2.7806936302838485 $412 $559 forward 7 unknown #
coedge $-1 $263 $262 $557 $560 reversed $97 $-1 #
edge $-1 $418 -54.209418012024294 $558 54.209418012024294 $411 $561 forward 7 unknown #
coedge $-1 $424 $423 $263 $417 forward $425 $-1 #
edge $-1 $419 -54.209418012024294 $562 54.209418012024294 $416 $563 forward 7 unknown #
vertex $-1 $265 $564 #
vertex $-1 $417 $565 #
straight-curve $-1 54.209418012024294 10.99838110080589 -1.1098712734123799 0 1 0 I I #
coedge $-1 $566 $412 $266 $422 forward $409 $-1 #
edge $-1 $429 7.0038391953005146 $426 14.992923006311266 $421 $567 forward 7 unknown #
coedge $-1 $416 $267 $272 $432 forward $425 $-1 #
coedge $-1 $267 $416 $566 $568 reversed $425 $-1 #
loop $-1 $-1 $267 $408 #
vertex $-1 $568 $569 #
straight-curve $-1 0 25.991304107117152 3.3376344159076714 1 0 0 I I #
coedge $-1 $269 $411 $271 $431 reversed $153 $-1 #
vertex $-1 $422 $570 #
straight-curve $-1 0 18.002220296106405 3.3376344159076714 1 0 0 I I #
edge $-1 $274 -2.7806936302838485 $418 1.6668120590362028 $271 $571 forward 7 unknown #
edge $-1 $273 -3.3376344159076714 $419 1.1098712734123799 $272 $572 forward 7 unknown #
point $-1 54.209418012024294 25.991304107117156 3.3376344159076714 #
point $-1 54.209418012024294 18.002220296106405 3.3376344159076714 #
loop $-1 $-1 $284 $276 #
plane-surface $-1 0 0 9.604654249123449 0 0 1 1 0 0 forward_v I I I I #
coedge $-1 $438 $279 $281 $442 reversed $161 $-1 #
coedge $-1 $279 $437 $573 $574 reversed $161 $-1 #
coedge $-1 $287 $282 $279 $440 forward $277 $-1 #
edge $-1 $443 -33.939369118406695 $575 -29.002337124813245 $439 $576 forward 7 unknown #
coedge $-1 $281 $280 $446 $577 reversed $101 $-1 #
edge $-1 $578 -6.643431763662405 $443 1.0694865687384493e-014 $437 $579 forward 7 unknown #
vertex $-1 $283 $580 #
straight-curve $-1 -54.209418012024294 -2.2328068573434763 4.6676222555299933 0 -1 0 I I #
coedge $-1 $573 $284 $287 $450 forward $435 $-1 #
coedge $-1 $284 $573 $441 $577 forward $435 $-1 #
vertex $-1 $285 $581 #
straight-curve $-1 -67.39015794270793 -1.7763568394002505e-015 9.604654249123449 -1 0 0 I I #
straight-curve $-1 -54.209418012024287 -1.7763568394002505e-015 4.6676222555300058 0.66913059716165679 0 0.74314483375859142 I I #
edge $-1 $288 1.7763568394002505e-015 $575 8.9312274293739033 $287 $582 forward 7 unknown #
point $-1 -54.209418012024294 -1.7763568394002505e-015 9.604654249123449 #
point $-1 -54.209418012024294 -1.7763568394002505e-015 4.6676222555299978 #
edge $-1 $583 1 $583 0 $291 $-1 forward 7 unknown #
vertex $-1 $292 $584 #
ellipse-curve $-1 -50.003929199709177 -4.4656137146869526 5.3507927741520156 -0.74314483375859142 0 0.66913059716165679 1.0036958957424851 0 1.1147172506378871 1 I I #
point $-1 -50.983060384670736 -4.4656137146869526 8.2508555029646136 #
loop $-1 $-1 $301 $295 #
plane-surface $-1 0 0 9.604654249123449 0 0 1 1 0 0 forward_v I I I I #
coedge $-1 $298 $466 $462 $585 reversed $176 $-1 #
edge $-1 $464 29.002337124813245 $467 33.939369118406695 $298 $586 forward 7 unknown #
edge $-1 $467 -1.0694865687384493e-014 $463 6.643431763662405 $299 $587 forward 7 unknown #
coedge $-1 $469 $301 $459 $585 forward $457 $-1 #
vertex $-1 $302 $588 #
vertex $-1 $585 $589 #
straight-curve $-1 -67.39015794270793 8.9312274293738998 9.604654249123449 -1 0 0 I I #
coedge $-1 $459 $304 $309 $472 forward $176 $-1 #
vertex $-1 $460 $590 #
straight-curve $-1 -54.209418012024294 -2.2328068573434763 4.6676222555299933 0 -1 0 I I #
coedge $-1 $306 $462 $308 $471 forward $457 $-1 #
straight-curve $-1 -49.764094548802142 -2.2328068573434763 9.604654249123449 0 1 0 I I #
edge $-1 $591 13.180739930683636 $311 17.626063393905788 $469 $592 forward 7 unknown #
edge $-1 $310 -33.939369118406695 $591 -29.002337124813245 $466 $593 forward 7 unknown #
point $-1 -54.209418012024294 -1.7763568394002505e-015 4.6676222555299978 #
point $-1 -49.764094548802142 -1.7763568394002505e-015 9.604654249123449 #
edge $-1 $594 1 $594 0 $313 $-1 forward 7 unknown #
vertex $-1 $314 $595 #
ellipse-curve $-1 -50.003929199709177 4.465613714686949 5.3507927741520156 -0.74314483375859142 0 0.66913059716165679 1.0036958957424851 0 1.1147172506378871 1 I I #
point $-1 -50.983060384670736 4.465613714686949 8.2508555029646136 #
loop $-1 $-1 $325 $317 #
plane-surface $-1 54.209418012024294 0 0 -1 0 0 0 0 1 forward_v I I I I #
coedge $-1 $482 $320 $322 $486 reversed $191 $-1 #
coedge $-1 $320 $481 $596 $597 reversed $191 $-1 #
coedge $-1 $328 $323 $320 $484 forward $318 $-1 #
edge $-1 $487 18.647116852265899 $598 23.092440315488052 $483 $599 forward 7 unknown #
coedge $-1 $322 $321 $490 $600 reversed $119 $-1 #
edge $-1 $601 -108.41883602404857 $487 -101.77540426038615 $481 $602 forward 7 unknown #
vertex $-1 $324 $603 #
straight-curve $-1 49.764094548802142 -2.2328068573434763 9.6046542491234561 0 -1 0 I I #
coedge $-1 $596 $325 $328 $494 reversed $479 $-1 #
coedge $-1 $325 $596 $485 $600 forward $479 $-1 #
vertex $-1 $326 $604 #
straight-curve $-1 54.209418012024294 -1.7763568394002505e-015 78.89244031063248 0 0 1 I I #
straight-curve $-1 -18.336942480319088 -1.7763568394002505e-015 85.238520128921579 0.66913059716165679 0 -0.74314483375859142 I I #
edge $-1 $598 -8.9312274293739033 $329 -1.7763568394002505e-015 $489 $605 forward 7 unknown #
point $-1 54.209418012024294 -1.7763568394002505e-015 9.604654249123449 #
point $-1 49.764094548802142 -1.7763568394002505e-015 9.6046542491234561 #
edge $-1 $606 1 $606 0 $332 $-1 forward 7 unknown #
vertex $-1 $333 $607 #
ellipse-curve $-1 50.003929199709184 -4.4656137146869526 5.3507927741520351 0.74314483375859142 0 0.66913059716165679 1.0036958957424851 0 -1.1147172506378871 1 I I #
point $-1 52.990452176155713 -4.4656137146869526 6.021421001688859 #
plane-surface $-1 54.209418012024294 0 0 -1 0 0 0 0 1 forward_v I I I I #
coedge $-1 $342 $507 $608 $609 reversed $337 $-1 #
coedge $-1 $608 $339 $340 $505 forward $206 $-1 #
coedge $-1 $339 $608 $347 $515 forward $206 $-1 #
edge $-1 $511 -11.164034286717376 $508 -2.2328068573434745 $503 $610 forward 7 unknown #
edge $-1 $509 2.2328068573434745 $350 11.164034286717376 $348 $611 forward 7 unknown #
coedge $-1 $502 $342 $514 $612 reversed $337 $-1 #
vertex $-1 $505 $613 #
vertex $-1 $506 $614 #
straight-curve $-1 -18.336942480319088 -1.7763568394002505e-015 85.238520128921579 0.66913059716165679 0 -0.74314483375859142 I I #
vertex $-1 $346 $615 #
straight-curve $-1 -18.336942480319088 8.9312274293738998 85.238520128921579 0.66913059716165679 0 -0.74314483375859142 I I #
straight-curve $-1 31.116977696536242 8.9312274293738998 9.6046542491234419 -1 0 0 I I #
coedge $-1 $348 $347 $507 $612 forward $349 $-1 #
edge $-1 $616 -1.7763568394002505e-015 $351 8.9312274293738998 $347 $617 forward 7 unknown #
point $-1 54.209418012024294 8.9312274293738998 4.6676222555300058 #
point $-1 54.209418012024294 8.9312274293738998 9.604654249123449 #
edge $-1 $618 1 $618 0 $353 $-1 forward 7 unknown #
vertex $-1 $354 $619 #
ellipse-curve $-1 50.003929199709184 4.465613714686949 5.3507927741520351 0.74314483375859142 0 0.66913059716165679 1.0036958957424851 0 -1.1147172506378871 1 I I #
point $-1 52.990452176155713 4.465613714686949 6.021421001688859 #
plane-surface $-1 54.209418012024294 0 0 -1 0 0 0 0 1 forward_v I I I I #
coedge $-1 $362 $360 $364 $527 reversed $221 $-1 #
edge $-1 $375 -9.604654249123449 $529 9.604654249123449 $374 $620 forward 7 unknown #
vertex $-1 $527 $621 #
straight-curve $-1 -54.209418012024294 -25.991304107117152 0 0 0 -1 I I #
edge $-1 $525 -25.991304107117152 $529 25.991304107117152 $523 $622 forward 7 unknown #
straight-curve $-1 0 -25.991304107117152 -9.604654249123449 -1 0 0 I I #
vertex $-1 $367 $623 #
straight-curve $-1 0 25.991304107117152 -9.604654249123449 1 0 0 I I #
point $-1 54.209418012024294 25.991304107117152 -9.604654249123449 #
point $-1 54.209418012024294 -25.991304107117152 -9.604654249123449 #
straight-curve $-1 -54.209418012024294 0 9.604654249123449 0 -1 0 I I #
point $-1 -54.209418012024294 25.991304107117152 9.604654249123449 #
point $-1 -54.209418012024294 -25.991304107117152 9.604654249123449 #
straight-curve $-1 54.209418012024294 -25.991304107117152 0 0 0 -1 I I #
straight-curve $-1 54.209418012024294 25.991304107117152 0 0 0 -1 I I #
plane-surface $-1 54.209418012024294 0 0 -1 0 0 0 0 1 forward_v I I I I #
coedge $-1 $542 $387 $398 $551 forward $240 $-1 #
coedge $-1 $387 $542 $401 $553 reversed $240 $-1 #
straight-curve $-1 54.209418012024294 -18.002220296106401 0.55694078562382288 0 0 1 I I #
coedge $-1 $540 $539 $390 $543 forward $240 $-1 #
edge $-1 $546 7.0038391953005128 $544 14.992923006311264 $542 $624 forward 7 unknown #
vertex $-1 $392 $625 #
straight-curve $-1 0 -25.991304107117152 -1.1098712734123799 1 0 0 I I #
vertex $-1 $543 $626 #
straight-curve $-1 0 -18.002220296106401 -1.1098712734123799 1 0 0 I I #
point $-1 54.209418012024294 -25.991304107117152 -1.1098712734123799 #
point $-1 54.209418012024294 -18.002220296106401 -1.1098712734123799 #
straight-curve $-1 -54.209418012024294 -10.998381100805888 3.3376344159076714 0 1 0 I I #
edge $-1 $399 -2.7806936302838485 $546 1.6668120590362028 $539 $627 forward 7 unknown #
point $-1 -54.209418012024294 -18.002220296106401 3.3376344159076714 #
edge $-1 $403 -3.3376344159076714 $544 1.1098712734123799 $540 $628 forward 7 unknown #
point $-1 -54.209418012024294 -25.991304107117152 3.3376344159076714 #
straight-curve $-1 54.209418012024294 -25.991304107117152 0 0 0 -1 I I #
plane-surface $-1 0 25.991304107117152 0 0 -1 0 0 0 -1 forward_v I I I I #
coedge $-1 $412 $566 $414 $560 forward $409 $-1 #
vertex $-1 $560 $629 #
straight-curve $-1 -54.209418012024294 18.002220296106405 0.55694078562382288 0 0 1 I I #
edge $-1 $562 -14.992923006311266 $558 -7.0038391953005146 $557 $630 forward 7 unknown #
straight-curve $-1 0 18.002220296106405 -1.1098712734123799 -1 0 0 I I #
vertex $-1 $417 $631 #
straight-curve $-1 0 25.991304107117152 -1.1098712734123799 -1 0 0 I I #
point $-1 54.209418012024294 18.002220296106405 -1.1098712734123799 #
point $-1 54.209418012024294 25.991304107117156 -1.1098712734123799 #
coedge $-1 $557 $421 $424 $568 forward $409 $-1 #
straight-curve $-1 -54.209418012024294 10.99838110080589 3.3376344159076714 0 1 0 I I #
edge $-1 $426 -3.3376344159076714 $562 1.1098712734123799 $424 $632 forward 7 unknown #
point $-1 -54.209418012024294 25.991304107117156 3.3376344159076714 #
point $-1 -54.209418012024294 18.002220296106405 3.3376344159076714 #
straight-curve $-1 54.209418012024294 18.002220296106405 0.55694078562382288 0 0 -1 I I #
straight-curve $-1 54.209418012024294 25.991304107117152 0 0 0 -1 I I #
coedge $-1 $446 $445 $438 $574 forward $435 $-1 #
edge $-1 $575 13.180739930683636 $578 17.626063393905788 $573 $633 forward 7 unknown #
vertex $-1 $574 $634 #
straight-curve $-1 -54.209418012024294 -8.9312274293739033 38.606991373936694 0 0 1 I I #
edge $-1 $578 -6.6984205720304271 $447 2.2328068573434745 $446 $635 forward 7 unknown #
vertex $-1 $577 $636 #
straight-curve $-1 -54.209418012024287 -8.9312274293739033 4.6676222555300058 -0.66913059716165679 0 -0.74314483375859142 I I #
point $-1 -54.209418012024294 -8.9312274293739033 4.6676222555299978 #
point $-1 -49.764094548802142 -1.7763568394002505e-015 9.604654249123449 #
straight-curve $-1 -54.209418012024294 0 9.604654249123449 0 -1 0 I I #
vertex $-1 $453 $637 #
point $-1 -49.000233303966695 -4.4656137146869526 6.4655100247899027 #
edge $-1 $464 -8.9312274293738998 $591 1.7763568394002505e-015 $459 $638 forward 7 unknown #
straight-curve $-1 -54.209418012024294 8.9312274293738998 38.606991373936694 0 0 -1 I I #
straight-curve $-1 -54.209418012024287 8.9312274293738998 4.6676222555300058 0.66913059716165679 0 0.74314483375859142 I I #
point $-1 -49.764094548802142 8.9312274293738998 9.604654249123449 #
point $-1 -54.209418012024294 8.9312274293738998 9.604654249123449 #
point $-1 -54.209418012024294 8.9312274293738998 4.6676222555299978 #
vertex $-1 $471 $639 #
straight-curve $-1 -67.39015794270793 -1.7763568394002505e-015 9.604654249123449 1 0 0 I I #
straight-curve $-1 -54.209418012024294 -1.7763568394002505e-015 38.606991373936694 0 0 1 I I #
vertex $-1 $475 $640 #
point $-1 -49.000233303966695 4.465613714686949 6.4655100247899027 #
coedge $-1 $490 $489 $482 $597 forward $479 $-1 #
edge $-1 $598 69.287786061509024 $601 74.224818055102475 $596 $641 forward 7 unknown #
vertex $-1 $494 $642 #
straight-curve $-1 31.116977696536242 -8.9312274293739033 9.6046542491234419 1 0 0 I I #
edge $-1 $601 -6.6984205720304271 $491 2.2328068573434745 $490 $643 forward 7 unknown #
vertex $-1 $600 $644 #
straight-curve $-1 -18.336942480319088 -8.9312274293739033 85.238520128921579 -0.66913059716165679 0 0.74314483375859142 I I #
point $-1 49.764094548802142 -8.9312274293739033 9.6046542491234561 #
point $-1 54.209418012024294 -1.7763568394002505e-015 4.6676222555300058 #
straight-curve $-1 54.209418012024294 0 9.604654249123449 0 1 0 I I #
vertex $-1 $497 $645 #
point $-1 51.007625095451672 -4.4656137146869526 4.2360755235141481 #
coedge $-1 $504 $503 $502 $609 forward $206 $-1 #
edge $-1 $508 18.647116852265899 $616 23.092440315488052 $608 $646 forward 7 unknown #
straight-curve $-1 49.764094548802142 -2.2328068573434763 9.6046542491234561 0 -1 0 I I #
straight-curve $-1 54.209418012024301 -2.2328068573434763 4.6676222555299987 0 1 0 I I #
edge $-1 $616 69.287786061509024 $509 74.224818055102475 $514 $647 forward 7 unknown #
point $-1 49.764094548802142 -1.7763568394002505e-015 9.6046542491234561 #
point $-1 54.209418012024294 -1.7763568394002505e-015 4.6676222555300058 #
point $-1 49.764094548802142 8.9312274293738998 9.6046542491234561 #
vertex $-1 $515 $648 #
straight-curve $-1 54.209418012024294 0 9.604654249123449 0 1 0 I I #
vertex $-1 $518 $649 #
point $-1 51.007625095451672 4.465613714686949 4.2360755235141481 #
straight-curve $-1 -54.209418012024294 25.991304107117152 0 0 0 -1 I I #
point $-1 -54.209418012024294 -25.991304107117152 -9.604654249123449 #
straight-curve $-1 -54.209418012024294 0 -9.604654249123449 0 1 0 I I #
point $-1 -54.209418012024294 25.991304107117152 -9.604654249123449 #
straight-curve $-1 -54.209418012024294 -10.998381100805888 -1.1098712734123799 0 -1 0 I I #
point $-1 -54.209418012024294 -25.991304107117152 -1.1098712734123799 #
point $-1 -54.209418012024294 -18.002220296106401 -1.1098712734123799 #
straight-curve $-1 -54.209418012024294 -18.002220296106401 0.55694078562382288 0 0 -1 I I #
straight-curve $-1 -54.209418012024294 -25.991304107117152 0 0 0 -1 I I #
point $-1 -54.209418012024294 18.002220296106405 -1.1098712734123799 #
straight-curve $-1 -54.209418012024294 10.99838110080589 -1.1098712734123799 0 -1 0 I I #
point $-1 -54.209418012024294 25.991304107117156 -1.1098712734123799 #
straight-curve $-1 -54.209418012024294 25.991304107117152 0 0 0 -1 I I #
straight-curve $-1 -67.39015794270793 -8.9312274293739033 9.604654249123449 1 0 0 I I #
point $-1 -54.209418012024294 -8.9312274293739033 9.604654249123449 #
straight-curve $-1 -49.764094548802142 -2.2328068573434763 9.604654249123449 0 1 0 I I #
point $-1 -49.764094548802142 -8.9312274293739033 9.604654249123449 #
point $-1 -48.889211949071296 -4.4656137146869526 4.3470968784095305 #
straight-curve $-1 -54.209418012024294 0 9.604654249123449 0 -1 0 I I #
point $-1 -54.209418012024294 -1.7763568394002505e-015 9.604654249123449 #
point $-1 -48.889211949071296 4.465613714686949 4.3470968784095305 #
straight-curve $-1 54.209418012024294 -8.9312274293739033 78.89244031063248 0 0 -1 I I #
point $-1 54.209418012024294 -8.9312274293739033 9.604654249123449 #
straight-curve $-1 54.209418012024301 -2.2328068573434763 4.6676222555299987 0 1 0 I I #
point $-1 54.209418012024294 -8.9312274293739033 4.6676222555300058 #
point $-1 48.889211949071303 -4.4656137146869526 4.3470968784095501 #
straight-curve $-1 31.116977696536242 -1.7763568394002505e-015 9.6046542491234419 1 0 0 I I #
straight-curve $-1 54.209418012024294 -1.7763568394002505e-015 78.89244031063248 0 0 -1 I I #
point $-1 54.209418012024294 -1.7763568394002505e-015 9.604654249123449 #
point $-1 48.889211949071303 4.465613714686949 4.3470968784095501 #
End-of-ACIS-data 