500 0 8 0           
7 Unknown 11 ACIS 5.0 NT 24 Fri Mar 26 18:13:09 1999 
-1 9.9999999999999995e-007 1e-010 
body $-1 $8 $-1 $9 #
body $-1 $10 $-1 $11 #
body $-1 $12 $-1 $13 #
body $-1 $14 $-1 $15 #
body $-1 $16 $-1 $17 #
body $-1 $18 $-1 $19 #
body $-1 $20 $-1 $21 #
body $-1 $22 $-1 $23 #
lump $-1 $-1 $24 $0 #
transform $-1 1 0 0 0 1 0 0 0 1 47.795648060548722 31.959939158160918 9.9545256829821014 1 rotate no_reflect no_shear #
lump $-1 $-1 $25 $1 #
transform $-1 1 0 0 0 1 0 0 0 1 47.795648060548722 31.959939158160918 9.9545256829821014 1 rotate no_reflect no_shear #
lump $-1 $-1 $26 $2 #
transform $-1 1 0 0 0 1 0 0 0 1 47.795648060548722 31.959939158160918 9.9545256829821014 1 rotate no_reflect no_shear #
lump $-1 $-1 $27 $3 #
transform $-1 1 0 0 0 1 0 0 0 1 47.795648060548722 31.959939158160918 9.9545256829821014 1 rotate no_reflect no_shear #
lump $-1 $-1 $28 $4 #
transform $-1 1 0 0 0 1 0 0 0 1 47.795648060548722 31.959939158160918 9.9545256829821014 1 rotate no_reflect no_shear #
lump $-1 $-1 $29 $5 #
transform $-1 1 0 0 0 1 0 0 0 1 47.795648060548722 31.959939158160918 9.9545256829821014 1 rotate no_reflect no_shear #
lump $-1 $-1 $30 $6 #
transform $-1 1 0 0 0 1 0 0 0 1 47.795648060548722 31.959939158160918 9.9545256829821014 1 rotate no_reflect no_shear #
lump $-1 $-1 $31 $7 #
transform $-1 1 0 0 0 1 0 0 0 1 47.795648060548722 31.959939158160918 9.9545256829821014 1 rotate no_reflect no_shear #
shell $-1 $-1 $-1 $32 $-1 $8 #
shell $-1 $-1 $-1 $33 $-1 $10 #
shell $-1 $-1 $-1 $34 $-1 $12 #
shell $-1 $-1 $-1 $35 $-1 $14 #
shell $-1 $-1 $-1 $36 $-1 $16 #
shell $-1 $-1 $-1 $37 $-1 $18 #
shell $-1 $-1 $-1 $38 $-1 $20 #
shell $-1 $-1 $-1 $39 $-1 $22 #
face $-1 $40 $41 $24 $-1 $42 forward single #
face $-1 $43 $44 $25 $-1 $45 forward single #
face $-1 $46 $47 $26 $-1 $48 forward single #
face $-1 $49 $50 $27 $-1 $51 reversed single #
face $-1 $52 $53 $28 $-1 $54 forward single #
face $-1 $55 $56 $29 $-1 $57 reversed single #
face $-1 $58 $59 $30 $-1 $60 forward single #
face $-1 $61 $62 $31 $-1 $63 forward single #
face $-1 $64 $65 $24 $-1 $66 reversed single #
loop $-1 $-1 $67 $32 #
plane-surface $-1 0 0 9.9545256829821014 0 0 1 1 0 0 forward_v I I I I #
face $-1 $68 $69 $25 $-1 $70 reversed single #
loop $-1 $-1 $71 $33 #
plane-surface $-1 -44.343532659951293 0 -1.7569136484053378 0 0 1 1 0 0 forward_v I I I I #
face $-1 $72 $73 $26 $-1 $74 reversed single #
loop $-1 $-1 $75 $34 #
plane-surface $-1 47.795648060548722 0 0 -1 0 0 0 0 1 forward_v I I I I #
face $-1 $76 $77 $27 $-1 $78 reversed single #
loop $-1 $-1 $79 $35 #
plane-surface $-1 12.29249075991126 66.022247515474064 113.11070064998432 1 0 0 0 -0.77714596973225614 -0.62932038083071107 forward_v I I I I #
face $-1 $80 $81 $28 $-1 $82 forward single #
loop $-1 $83 $84 $36 #
cone-surface $-1 16.65908122449941 27.467917908121464 5.1677749260362145 0 -0.77714596973225614 -0.62932038083071107 1.5 0 0 1 I I 0 1 1.5 forward I I I I #
face $-1 $85 $86 $29 $-1 $87 reversed single #
loop $-1 $-1 $88 $37 #
plane-surface $-1 35.587226006092287 -111.20871602359327 56.676015407784227 -1 0 0 0 -0.82903758062907751 0.55919289150049634 forward_v I I I I #
face $-1 $89 $90 $30 $-1 $91 forward single #
loop $-1 $92 $93 $38 #
cone-surface $-1 26.66912446621874 -28.230247013079435 5.6040859852317206 0 0.82903758062907751 -0.55919289150049634 1 0 0 1 I I 0 1 1 forward I I I I #
face $-1 $94 $95 $31 $-1 $96 forward single #
loop $-1 $97 $98 $39 #
cone-surface $-1 32.019985390142871 -28.230247013079435 5.6040859852317206 0 0.82903758062907751 -0.55919289150049634 1 0 0 1 I I 0 1 1 forward I I I I #
face $-1 $99 $100 $24 $-1 $101 reversed single #
loop $-1 $-1 $102 $40 #
plane-surface $-1 0 0 -9.9545256829821014 0 0 1 1 0 0 forward_v I I I I #
coedge $-1 $103 $104 $105 $106 forward $41 $-1 #
face $-1 $107 $108 $25 $-1 $109 reversed single #
loop $-1 $-1 $110 $43 #
plane-surface $-1 -44.343532659951293 0 -5.8530124607362701 0 0 1 1 0 0 forward_v I I I I #
coedge $-1 $111 $112 $113 $114 forward $44 $-1 #
face $-1 $115 $116 $26 $-1 $117 reversed single #
loop $-1 $-1 $118 $46 #
plane-surface $-1 0 -31.959939158160918 0 0 1 0 0 0 1 forward_v I I I I #
coedge $-1 $119 $120 $121 $122 forward $47 $-1 #
face $-1 $123 $124 $27 $-1 $125 reversed single #
loop $-1 $-1 $126 $49 #
plane-surface $-1 16.65908122449941 -8.2661430065194565 52.953149770954006 0 0.77714596973225614 0.62932038083071107 1 0 0 forward_v I I I I #
coedge $-1 $127 $128 $129 $130 reversed $50 $-1 #
face $-1 $-1 $131 $28 $-1 $132 forward single #
loop $-1 $133 $134 $52 #
cone-surface $-1 16.65908122449941 25.09627911331734 3.2472597491342157 0 -0.77714596973225614 -0.62932038083071107 0.75 0 0 1 I I -0.70710678118654757 0.70710678118654757 0.75 forward I I I I #
loop $-1 $-1 $135 $36 #
coedge $-1 $84 $84 $136 $137 reversed $53 $-1 #
face $-1 $138 $139 $29 $-1 $140 reversed single #
loop $-1 $-1 $141 $55 #
plane-surface $-1 29.344554928180806 -31.959939158160921 3.2220421275475672 0 -0.82903758062907751 0.55919289150049634 1 0 0 forward_v I I I I #
coedge $-1 $142 $143 $144 $145 reversed $56 $-1 #
face $-1 $-1 $146 $30 $-1 $147 forward single #
loop $-1 $148 $149 $58 #
cone-surface $-1 26.66912446621874 -26.356594755787157 4.3402916194483563 0 0.82903758062907751 -0.55919289150049634 0.5 0 0 1 I I -0.70710678118654746 0.70710678118654746 0.5 forward I I I I #
loop $-1 $-1 $150 $38 #
coedge $-1 $93 $93 $151 $152 reversed $59 $-1 #
face $-1 $-1 $153 $31 $-1 $154 forward single #
loop $-1 $155 $156 $61 #
cone-surface $-1 32.019985390142871 -26.356594755787157 4.3402916194483563 0 0.82903758062907751 -0.55919289150049634 0.5 0 0 1 I I -0.70710678118654746 0.70710678118654746 0.5 forward I I I I #
loop $-1 $-1 $157 $39 #
coedge $-1 $98 $98 $158 $159 reversed $62 $-1 #
face $-1 $160 $161 $24 $-1 $162 reversed single #
loop $-1 $-1 $163 $64 #
plane-surface $-1 0 -31.959939158160918 0 0 1 0 0 0 1 forward_v I I I I #
coedge $-1 $164 $165 $166 $167 forward $65 $-1 #
coedge $-1 $168 $67 $169 $170 forward $41 $-1 #
coedge $-1 $67 $168 $171 $172 forward $41 $-1 #
coedge $-1 $173 $174 $67 $106 reversed $175 $-1 #
edge $-1 $176 -31.959939158160918 $177 31.959939158160918 $105 $178 forward 7 unknown #
face $-1 $179 $180 $25 $-1 $181 reversed single #
loop $-1 $-1 $182 $68 #
plane-surface $-1 -40.891417259353865 0 -3.8049630545708037 -1 0 0 0 0 1 forward_v I I I I #
coedge $-1 $183 $184 $185 $186 forward $69 $-1 #
coedge $-1 $187 $71 $188 $189 reversed $44 $-1 #
coedge $-1 $71 $187 $190 $191 reversed $44 $-1 #
coedge $-1 $182 $192 $71 $114 reversed $108 $-1 #
edge $-1 $193 -31.959939158160918 $194 31.959939158160918 $113 $195 forward 7 unknown #
face $-1 $196 $197 $26 $-1 $198 reversed single #
loop $-1 $-1 $199 $72 #
plane-surface $-1 53.899859087776925 0 4.2898607215873801 0 0 1 1 0 0 forward_v I I I I #
coedge $-1 $200 $201 $119 $202 forward $73 $-1 #
coedge $-1 $203 $75 $118 $202 reversed $47 $-1 #
coedge $-1 $75 $203 $204 $205 reversed $47 $-1 #
coedge $-1 $206 $207 $75 $122 reversed $116 $-1 #
edge $-1 $208 -31.959939158160918 $209 31.959939158160918 $121 $210 forward 7 unknown #
face $-1 $211 $212 $27 $-1 $213 reversed single #
loop $-1 $-1 $214 $76 #
plane-surface $-1 21.025671689087559 66.022247515474064 113.11070064998432 -1 0 0 0 0.77714596973225614 0.62932038083071107 forward_v I I I I #
coedge $-1 $215 $216 $217 $218 reversed $77 $-1 #
coedge $-1 $128 $79 $219 $220 reversed $50 $-1 #
coedge $-1 $79 $127 $215 $221 reversed $50 $-1 #
coedge $-1 $217 $222 $79 $130 forward $223 $-1 #
edge $-1 $224 1.0511845995761142 $225 6.4576684646451525 $129 $226 forward 7 unknown #
loop $-1 $-1 $136 $80 #
plane-surface $-1 16.65908122449941 -8.2661430065194565 52.953149770954006 0 0.77714596973225614 0.62932038083071107 1 0 0 forward_v I I I I #
loop $-1 $-1 $227 $52 #
coedge $-1 $134 $134 $135 $228 reversed $81 $-1 #
coedge $-1 $135 $135 $134 $228 forward $83 $-1 #
coedge $-1 $136 $136 $84 $137 forward $131 $-1 #
edge $-1 $229 -4.6016285284874441e-016 $229 6.2831853071795996 $136 $230 forward 7 unknown #
face $-1 $231 $232 $29 $-1 $233 forward single #
loop $-1 $-1 $234 $85 #
plane-surface $-1 23.101883850269324 -111.20871602359327 56.676015407784227 1 0 0 0 0.82903758062907751 -0.55919289150049634 forward_v I I I I #
coedge $-1 $235 $236 $237 $238 reversed $86 $-1 #
coedge $-1 $143 $88 $239 $240 reversed $56 $-1 #
coedge $-1 $88 $142 $235 $241 reversed $56 $-1 #
coedge $-1 $237 $242 $88 $145 forward $232 $-1 #
edge $-1 $243 23.644418853635717 $244 28.185536209843214 $144 $245 forward 7 unknown #
loop $-1 $-1 $151 $89 #
plane-surface $-1 29.344554928180806 -31.959939158160921 3.2220421275475672 0 -0.82903758062907751 0.55919289150049634 1 0 0 forward_v I I I I #
loop $-1 $-1 $246 $58 #
coedge $-1 $149 $149 $150 $247 reversed $90 $-1 #
coedge $-1 $150 $150 $149 $247 forward $92 $-1 #
coedge $-1 $151 $151 $93 $152 forward $146 $-1 #
edge $-1 $248 1.4726665764702984e-015 $248 6.2831853071796022 $151 $249 forward 7 unknown #
loop $-1 $-1 $158 $94 #
plane-surface $-1 29.344554928180806 -31.959939158160921 3.2220421275475672 0 -0.82903758062907751 0.55919289150049634 1 0 0 forward_v I I I I #
loop $-1 $-1 $250 $61 #
coedge $-1 $156 $156 $157 $251 reversed $95 $-1 #
coedge $-1 $157 $157 $156 $251 forward $97 $-1 #
coedge $-1 $158 $158 $98 $159 forward $153 $-1 #
edge $-1 $252 1.4726665764702984e-015 $252 6.2831853071796022 $158 $253 forward 7 unknown #
face $-1 $254 $255 $24 $-1 $256 reversed single #
loop $-1 $-1 $257 $99 #
plane-surface $-1 -47.795648060548722 0 0 1 0 0 0 0 -1 forward_v I I I I #
coedge $-1 $258 $171 $259 $260 forward $100 $-1 #
coedge $-1 $261 $102 $258 $262 forward $65 $-1 #
coedge $-1 $102 $261 $263 $264 forward $65 $-1 #
coedge $-1 $174 $173 $102 $167 reversed $175 $-1 #
edge $-1 $265 -31.959939158160918 $266 31.959939158160918 $166 $267 forward 7 unknown #
coedge $-1 $104 $103 $268 $269 forward $41 $-1 #
coedge $-1 $270 $271 $103 $170 reversed $255 $-1 #
edge $-1 $177 -47.795648060548722 $272 47.795648060548722 $169 $273 forward 7 unknown #
coedge $-1 $163 $274 $104 $172 reversed $100 $-1 #
edge $-1 $275 -47.795648060548722 $176 47.795648060548722 $171 $276 forward 7 unknown #
coedge $-1 $166 $105 $274 $277 forward $175 $-1 #
coedge $-1 $105 $166 $270 $278 reversed $175 $-1 #
loop $-1 $-1 $173 $254 #
vertex $-1 $106 $279 #
vertex $-1 $106 $280 #
straight-curve $-1 47.795648060548722 0 9.9545256829821014 0 1 0 I I #
face $-1 $281 $282 $25 $-1 $283 reversed single #
loop $-1 $-1 $284 $107 #
plane-surface $-1 0 -31.959939158160918 0 0 1 0 0 0 1 forward_v I I I I #
coedge $-1 $185 $113 $285 $286 reversed $108 $-1 #
coedge $-1 $287 $110 $284 $288 reversed $69 $-1 #
coedge $-1 $110 $287 $289 $290 reversed $69 $-1 #
coedge $-1 $192 $182 $110 $186 reversed $108 $-1 #
edge $-1 $291 -31.959939158160918 $292 31.959939158160918 $185 $293 forward 7 unknown #
coedge $-1 $112 $111 $294 $295 reversed $44 $-1 #
coedge $-1 $296 $297 $111 $189 forward $298 $-1 #
edge $-1 $299 -25.623881730573075 $194 -18.719650929378219 $188 $300 forward 7 unknown #
coedge $-1 $301 $285 $112 $191 forward $180 $-1 #
edge $-1 $193 18.719650929378219 $302 25.623881730573075 $190 $303 forward 7 unknown #
coedge $-1 $113 $185 $296 $304 reversed $108 $-1 #
vertex $-1 $191 $305 #
vertex $-1 $189 $306 #
straight-curve $-1 -40.891417259353865 0 -1.7569136484053378 0 1 0 I I #
face $-1 $307 $308 $26 $-1 $309 forward single #
loop $-1 $-1 $310 $115 #
plane-surface $-1 60.004070115005135 0 7.1221932022847412 -1 0 0 0 0 1 forward_v I I I I #
coedge $-1 $207 $206 $311 $312 forward $116 $-1 #
coedge $-1 $313 $118 $207 $314 reversed $73 $-1 #
coedge $-1 $118 $313 $315 $316 reversed $73 $-1 #
edge $-1 $317 -9.9545256829821014 $209 -4.2898607215873801 $118 $318 forward 7 unknown #
coedge $-1 $120 $119 $319 $320 reversed $47 $-1 #
coedge $-1 $321 $322 $120 $205 forward $323 $-1 #
edge $-1 $208 4.2898607215873801 $324 9.9545256829821014 $204 $325 forward 7 unknown #
coedge $-1 $199 $121 $322 $326 forward $116 $-1 #
coedge $-1 $121 $199 $200 $314 forward $116 $-1 #
vertex $-1 $205 $327 #
vertex $-1 $202 $328 #
straight-curve $-1 47.795648060548722 0 4.2898607215873801 0 -1 0 I I #
face $-1 $-1 $223 $27 $-1 $329 forward single #
loop $-1 $-1 $330 $123 #
plane-surface $-1 0 31.959939158160918 0 0 -1 0 0 0 -1 forward_v I I I I #
coedge $-1 $331 $332 $333 $334 reversed $124 $-1 #
coedge $-1 $335 $126 $128 $221 forward $77 $-1 #
coedge $-1 $126 $335 $331 $336 forward $77 $-1 #
coedge $-1 $333 $129 $126 $218 forward $223 $-1 #
edge $-1 $225 3.9629501476615552 $337 12.696131076837855 $217 $338 forward 7 unknown #
coedge $-1 $339 $340 $127 $220 forward $212 $-1 #
edge $-1 $341 -53.277276373343909 $224 -46.60082464201006 $219 $342 forward 7 unknown #
edge $-1 $225 55.32889027628346 $341 63.919878316321842 $128 $343 forward 7 unknown #
coedge $-1 $129 $333 $339 $344 forward $223 $-1 #
loop $-1 $-1 $333 $211 #
vertex $-1 $220 $345 #
vertex $-1 $130 $346 #
straight-curve $-1 12.29249075991126 33.011123757737032 9.9545256829821014 0 -1 0 I I #
coedge $-1 $227 $227 $-1 $347 reversed $133 $-1 #
edge $-1 $348 0 $348 6.2831853071796004 $134 $349 forward 7 unknown #
vertex $-1 $137 $350 #
ellipse-curve $-1 16.65908122449941 29.256697225626393 6.6162998173151788 0 0.77714596973225614 0.62932038083071107 1.5 0 0 1 I I #
face $-1 $-1 $351 $29 $-1 $352 reversed single #
loop $-1 $-1 $144 $138 #
plane-surface $-1 0 0 9.9545256829821014 0 0 1 1 0 0 forward_v I I I I #
coedge $-1 $353 $354 $355 $356 reversed $139 $-1 #
coedge $-1 $357 $141 $143 $241 forward $86 $-1 #
coedge $-1 $141 $357 $353 $358 forward $86 $-1 #
coedge $-1 $355 $144 $141 $238 forward $232 $-1 #
edge $-1 $244 -20.914948542001884 $359 -8.4296063861789214 $237 $360 forward 7 unknown #
coedge $-1 $361 $362 $142 $240 forward $351 $-1 #
edge $-1 $363 -25.115965576344543 $243 -18.383482020910012 $239 $364 forward 7 unknown #
edge $-1 $244 -8.120842423483257 $363 -6.404651964132713e-015 $143 $365 forward 7 unknown #
coedge $-1 $144 $355 $361 $366 forward $232 $-1 #
vertex $-1 $240 $367 #
vertex $-1 $145 $368 #
straight-curve $-1 35.587226006092287 -55.604358011796634 9.9545256829821014 0 1 0 I I #
coedge $-1 $246 $246 $-1 $369 reversed $148 $-1 #
edge $-1 $370 0 $370 6.2831853071796004 $149 $371 forward 7 unknown #
vertex $-1 $152 $372 #
ellipse-curve $-1 26.66912446621874 -29.689380480057171 6.5882839052648352 0 -0.82903758062907751 0.55919289150049634 1 0 0 1 I I #
coedge $-1 $250 $250 $-1 $373 reversed $155 $-1 #
edge $-1 $374 0 $374 6.2831853071796004 $156 $375 forward 7 unknown #
vertex $-1 $159 $376 #
ellipse-curve $-1 32.019985390142871 -29.689380480057171 6.5882839052648352 0 -0.82903758062907751 0.55919289150049634 1 0 0 1 I I #
face $-1 $-1 $175 $24 $-1 $377 reversed single #
loop $-1 $-1 $270 $160 #
plane-surface $-1 0 31.959939158160918 0 0 -1 0 0 0 -1 forward_v I I I I #
coedge $-1 $378 $268 $271 $379 forward $161 $-1 #
coedge $-1 $274 $163 $164 $262 reversed $100 $-1 #
coedge $-1 $268 $378 $163 $260 reversed $161 $-1 #
edge $-1 $275 -9.9545256829821014 $380 9.9545256829821014 $259 $381 forward 7 unknown #
coedge $-1 $165 $164 $378 $382 forward $65 $-1 #
edge $-1 $266 -47.795648060548722 $380 47.795648060548722 $258 $383 forward 7 unknown #
coedge $-1 $271 $270 $165 $264 reversed $255 $-1 #
edge $-1 $384 -47.795648060548722 $265 47.795648060548722 $263 $385 forward 7 unknown #
vertex $-1 $167 $386 #
vertex $-1 $277 $387 #
straight-curve $-1 47.795648060548722 0 -9.9545256829821014 0 -1 0 I I #
coedge $-1 $257 $259 $168 $269 reversed $161 $-1 #
edge $-1 $272 -31.959939158160918 $275 31.959939158160918 $268 $388 forward 7 unknown #
coedge $-1 $263 $169 $174 $278 forward $255 $-1 #
coedge $-1 $169 $263 $257 $379 reversed $255 $-1 #
vertex $-1 $170 $389 #
straight-curve $-1 0 31.959939158160918 9.9545256829821014 -1 0 0 I I #
coedge $-1 $171 $258 $173 $277 reversed $100 $-1 #
vertex $-1 $269 $390 #
straight-curve $-1 0 -31.959939158160918 9.9545256829821014 1 0 0 I I #
edge $-1 $176 -9.9545256829821014 $266 9.9545256829821014 $173 $391 forward 7 unknown #
edge $-1 $177 -9.9545256829821014 $265 9.9545256829821014 $174 $392 forward 7 unknown #
point $-1 47.795648060548722 -31.959939158160918 9.9545256829821014 #
point $-1 47.795648060548722 31.959939158160918 9.9545256829821014 #
face $-1 $-1 $298 $25 $-1 $393 reversed single #
loop $-1 $-1 $394 $179 #
plane-surface $-1 -47.795648060548722 0 0 1 0 0 0 0 -1 forward_v I I I I #
coedge $-1 $285 $301 $183 $288 forward $180 $-1 #
coedge $-1 $190 $284 $182 $286 forward $180 $-1 #
edge $-1 $292 -3.9505309334508683 $193 0.14556787888006406 $285 $395 forward 7 unknown #
coedge $-1 $184 $183 $394 $396 reversed $69 $-1 #
edge $-1 $397 -25.623881730573075 $292 -18.719650929378219 $284 $398 forward 7 unknown #
coedge $-1 $297 $296 $184 $290 forward $298 $-1 #
edge $-1 $291 18.719650929378219 $399 25.623881730573075 $289 $400 forward 7 unknown #
vertex $-1 $290 $401 #
vertex $-1 $288 $402 #
straight-curve $-1 -40.891417259353865 0 -5.8530124607362701 0 -1 0 I I #
coedge $-1 $403 $404 $187 $295 forward $282 $-1 #
edge $-1 $302 -31.959939158160918 $299 31.959939158160918 $294 $405 forward 7 unknown #
coedge $-1 $289 $188 $192 $304 forward $298 $-1 #
coedge $-1 $188 $289 $403 $406 reversed $298 $-1 #
loop $-1 $-1 $289 $281 #
vertex $-1 $406 $407 #
straight-curve $-1 -22.171766329975647 31.959939158160918 -1.7569136484053378 1 0 0 I I #
coedge $-1 $284 $190 $404 $408 forward $180 $-1 #
vertex $-1 $408 $409 #
straight-curve $-1 -22.171766329975647 -31.959939158160918 -1.7569136484053378 -1 0 0 I I #
edge $-1 $194 -0.14556787888006406 $291 3.9505309334508683 $296 $410 forward 7 unknown #
point $-1 -40.891417259353865 -31.959939158160918 -1.7569136484053378 #
point $-1 -40.891417259353865 31.959939158160918 -1.7569136484053378 #
face $-1 $-1 $323 $26 $-1 $411 reversed single #
loop $-1 $-1 $319 $196 #
plane-surface $-1 0 0 9.9545256829821014 0 0 1 1 0 0 forward_v I I I I #
coedge $-1 $311 $412 $313 $413 forward $197 $-1 #
coedge $-1 $414 $310 $199 $312 reversed $197 $-1 #
edge $-1 $415 -31.959939158160918 $416 31.959939158160918 $311 $417 forward 7 unknown #
coedge $-1 $201 $200 $310 $413 reversed $73 $-1 #
edge $-1 $416 -6.1042110272282102 $209 6.1042110272282102 $200 $418 forward 7 unknown #
coedge $-1 $419 $319 $201 $316 forward $308 $-1 #
edge $-1 $317 -6.1042110272282031 $420 6.1042110272282102 $201 $421 forward 7 unknown #
vertex $-1 $316 $422 #
straight-curve $-1 47.795648060548722 -31.959939158160918 0 0 0 -1 I I #
coedge $-1 $315 $423 $203 $320 forward $308 $-1 #
edge $-1 $324 -31.959939158160918 $317 31.959939158160918 $319 $424 forward 7 unknown #
coedge $-1 $425 $204 $423 $426 reversed $323 $-1 #
coedge $-1 $204 $425 $206 $326 reversed $323 $-1 #
loop $-1 $-1 $204 $307 #
vertex $-1 $205 $427 #
straight-curve $-1 47.795648060548722 31.959939158160918 0 0 0 1 I I #
edge $-1 $208 -6.1042110272282102 $415 6.1042110272282102 $322 $428 forward 7 unknown #
point $-1 47.795648060548714 31.959939158160918 4.2898607215873801 #
point $-1 47.795648060548714 -31.959939158160918 4.2898607215873801 #
plane-surface $-1 0 0 9.9545256829821014 0 0 1 1 0 0 forward_v I I I I #
coedge $-1 $340 $339 $332 $429 forward $212 $-1 #
coedge $-1 $332 $214 $216 $336 reversed $124 $-1 #
coedge $-1 $214 $331 $330 $429 reversed $124 $-1 #
coedge $-1 $222 $217 $214 $334 forward $223 $-1 #
edge $-1 $337 -6.4576684646451525 $430 -1.0511845995761142 $333 $431 forward 7 unknown #
coedge $-1 $216 $215 $340 $432 reversed $77 $-1 #
edge $-1 $433 -63.919878316321842 $337 -55.32889027628346 $331 $434 forward 7 unknown #
vertex $-1 $218 $435 #
straight-curve $-1 8.3295406122497049 26.553455293091879 9.9545256829821014 1 0 0 I I #
coedge $-1 $330 $219 $222 $344 reversed $212 $-1 #
coedge $-1 $219 $330 $335 $432 forward $212 $-1 #
vertex $-1 $220 $436 #
straight-curve $-1 12.29249075991126 31.959939158160918 56.555350324992162 0 0 1 I I #
straight-curve $-1 12.29249075991126 -8.2661430065194565 52.953149770954006 0 0.62932038083071107 -0.77714596973225614 I I #
edge $-1 $430 -21.025671689087559 $224 -12.29249075991126 $339 $437 forward 7 unknown #
point $-1 12.29249075991126 31.959939158160918 9.9545256829821014 #
point $-1 12.29249075991126 26.553455293091879 9.9545256829821014 #
edge $-1 $438 1 $438 0 $227 $-1 forward 7 unknown #
vertex $-1 $228 $439 #
ellipse-curve $-1 16.65908122449941 25.679138590616532 3.7192500347572488 0 0.77714596973225614 0.62932038083071107 1.5 0 0 1 I I #
point $-1 18.15908122449941 29.256697225626393 6.6162998173151797 #
loop $-1 $-1 $239 $231 #
plane-surface $-1 0 -31.959939158160918 0 0 1 0 0 0 1 forward_v I I I I #
coedge $-1 $354 $234 $236 $358 reversed $139 $-1 #
coedge $-1 $234 $353 $440 $441 reversed $139 $-1 #
coedge $-1 $242 $237 $234 $356 forward $232 $-1 #
edge $-1 $359 -28.185536209843214 $442 -23.644418853635717 $355 $443 forward 7 unknown #
coedge $-1 $236 $235 $362 $444 reversed $86 $-1 #
edge $-1 $445 6.404651964132713e-015 $359 8.120842423483257 $353 $446 forward 7 unknown #
vertex $-1 $238 $447 #
straight-curve $-1 14.672277464090403 -27.41882180195342 9.9545256829821014 -1 0 0 I I #
coedge $-1 $440 $239 $242 $366 reversed $351 $-1 #
coedge $-1 $239 $440 $357 $444 forward $351 $-1 #
vertex $-1 $240 $448 #
straight-curve $-1 35.587226006092287 -31.959939158160921 28.338007703892114 0 0 1 I I #
straight-curve $-1 35.587226006092287 -31.959939158160921 3.2220421275475672 0 -0.55919289150049634 -0.82903758062907751 I I #
edge $-1 $442 -30.7979752375076 $243 -18.312633081684638 $361 $449 forward 7 unknown #
point $-1 35.587226006092287 -31.959939158160918 9.9545256829821014 #
point $-1 35.587226006092287 -27.41882180195342 9.9545256829821014 #
edge $-1 $450 1 $450 0 $246 $-1 forward 7 unknown #
vertex $-1 $247 $451 #
ellipse-curve $-1 26.66912446621874 -26.771113546101695 4.6198880651986043 0 -0.82903758062907751 0.55919289150049634 1 0 0 1 I I #
point $-1 27.66912446621874 -29.689380480057171 6.588283905264837 #
edge $-1 $452 1 $452 0 $250 $-1 forward 7 unknown #
vertex $-1 $251 $453 #
ellipse-curve $-1 32.019985390142871 -26.771113546101695 4.6198880651986043 0 -0.82903758062907751 0.55919289150049634 1 0 0 1 I I #
point $-1 33.019985390142871 -29.689380480057171 6.588283905264837 #
plane-surface $-1 47.795648060548722 0 0 -1 0 0 0 0 1 forward_v I I I I #
coedge $-1 $259 $257 $261 $382 reversed $161 $-1 #
edge $-1 $272 -9.9545256829821014 $384 9.9545256829821014 $271 $454 forward 7 unknown #
vertex $-1 $382 $455 #
straight-curve $-1 -47.795648060548722 -31.959939158160918 0 0 0 -1 I I #
edge $-1 $380 -31.959939158160918 $384 31.959939158160918 $378 $456 forward 7 unknown #
straight-curve $-1 0 -31.959939158160918 -9.9545256829821014 -1 0 0 I I #
vertex $-1 $264 $457 #
straight-curve $-1 0 31.959939158160918 -9.9545256829821014 1 0 0 I I #
point $-1 47.795648060548722 31.959939158160918 -9.9545256829821014 #
point $-1 47.795648060548722 -31.959939158160918 -9.9545256829821014 #
straight-curve $-1 -47.795648060548722 0 9.9545256829821014 0 -1 0 I I #
point $-1 -47.795648060548722 31.959939158160918 9.9545256829821014 #
point $-1 -47.795648060548722 -31.959939158160918 9.9545256829821014 #
straight-curve $-1 47.795648060548722 -31.959939158160918 0 0 0 -1 I I #
straight-curve $-1 47.795648060548722 31.959939158160918 0 0 0 -1 I I #
plane-surface $-1 0 31.959939158160918 0 0 -1 0 0 0 -1 forward_v I I I I #
coedge $-1 $404 $403 $287 $396 forward $282 $-1 #
straight-curve $-1 -40.891417259353865 -31.959939158160918 -1.9024815272854019 0 0 1 I I #
edge $-1 $399 -31.959939158160918 $397 31.959939158160918 $394 $458 forward 7 unknown #
vertex $-1 $288 $459 #
straight-curve $-1 -22.171766329975647 -31.959939158160918 -5.8530124607362701 1 0 0 I I #
vertex $-1 $290 $460 #
straight-curve $-1 -22.171766329975647 31.959939158160918 -5.8530124607362701 -1 0 0 I I #
point $-1 -40.891417259353865 31.959939158160918 -5.8530124607362701 #
point $-1 -40.891417259353865 -31.959939158160918 -5.8530124607362701 #
coedge $-1 $394 $294 $297 $406 forward $282 $-1 #
coedge $-1 $294 $394 $301 $408 reversed $282 $-1 #
straight-curve $-1 -47.795648060548722 0 -1.7569136484053378 0 1 0 I I #
edge $-1 $299 1.7569136484053378 $399 5.8530124607362701 $297 $461 forward 7 unknown #
point $-1 -47.795648060548722 31.959939158160918 -1.7569136484053378 #
edge $-1 $302 1.7569136484053378 $397 5.8530124607362701 $404 $462 forward 7 unknown #
point $-1 -47.795648060548722 -31.959939158160918 -1.7569136484053378 #
straight-curve $-1 -40.891417259353865 31.959939158160918 -1.9024815272854019 0 0 -1 I I #
plane-surface $-1 0 31.959939158160918 0 0 -1 0 0 0 -1 forward_v I I I I #
coedge $-1 $310 $414 $419 $463 reversed $197 $-1 #
edge $-1 $420 -2.8323324806973602 $416 2.8323324806973611 $310 $464 forward 7 unknown #
coedge $-1 $412 $311 $425 $465 reversed $197 $-1 #
vertex $-1 $312 $466 #
vertex $-1 $413 $467 #
straight-curve $-1 60.004070115005135 0 4.2898607215873801 0 -1 0 I I #
straight-curve $-1 53.899859087776925 -31.959939158160918 4.2898607215873801 -1 0 0 I I #
coedge $-1 $423 $315 $412 $463 forward $308 $-1 #
vertex $-1 $463 $468 #
straight-curve $-1 53.899859087776925 -31.959939158160918 9.9545256829821014 1 0 0 I I #
point $-1 47.795648060548722 -31.959939158160918 9.9545256829821014 #
coedge $-1 $319 $419 $321 $426 forward $308 $-1 #
straight-curve $-1 47.795648060548722 0 9.9545256829821014 0 -1 0 I I #
coedge $-1 $322 $321 $414 $465 forward $323 $-1 #
edge $-1 $469 -60.004070115005135 $324 -47.795648060548722 $321 $470 forward 7 unknown #
point $-1 47.795648060548722 31.959939158160918 9.9545256829821014 #
straight-curve $-1 53.899859087776925 31.959939158160918 4.2898607215873801 1 0 0 I I #
edge $-1 $430 46.60082464201006 $433 53.277276373343909 $330 $471 forward 7 unknown #
vertex $-1 $344 $472 #
straight-curve $-1 21.025671689087559 33.011123757737032 9.9545256829821014 0 1 0 I I #
edge $-1 $433 -12.696131076837855 $341 -3.9629501476615552 $340 $473 forward 7 unknown #
vertex $-1 $432 $474 #
straight-curve $-1 21.025671689087559 -8.2661430065194565 52.953149770954006 0 -0.62932038083071107 0.77714596973225614 I I #
point $-1 21.025671689087559 26.553455293091879 9.9545256829821014 #
point $-1 12.29249075991126 31.959939158160921 3.2780739516482527 #
straight-curve $-1 0 31.959939158160918 9.9545256829821014 -1 0 0 I I #
vertex $-1 $347 $475 #
point $-1 18.15908122449941 25.679138590616532 3.7192500347572488 #
coedge $-1 $362 $361 $354 $441 forward $351 $-1 #
edge $-1 $442 18.383482020910012 $445 25.115965576344543 $440 $476 forward 7 unknown #
vertex $-1 $366 $477 #
straight-curve $-1 23.101883850269324 -55.604358011796634 9.9545256829821014 0 -1 0 I I #
edge $-1 $445 8.4296063861789214 $363 20.914948542001884 $362 $478 forward 7 unknown #
vertex $-1 $444 $479 #
straight-curve $-1 23.101883850269324 -31.959939158160921 3.2220421275475672 0 0.55919289150049634 0.82903758062907751 I I #
point $-1 23.101883850269324 -27.41882180195342 9.9545256829821014 #
point $-1 35.587226006092287 -31.959939158160918 3.2220421275475726 #
straight-curve $-1 53.899859087776925 -31.959939158160918 9.9545256829821014 1 0 0 I I #
vertex $-1 $369 $480 #
point $-1 27.66912446621874 -26.771113546101695 4.6198880651986043 #
vertex $-1 $373 $481 #
point $-1 33.019985390142871 -26.771113546101695 4.6198880651986043 #
straight-curve $-1 -47.795648060548722 31.959939158160918 0 0 0 -1 I I #
point $-1 -47.795648060548722 -31.959939158160918 -9.9545256829821014 #
straight-curve $-1 -47.795648060548722 0 -9.9545256829821014 0 1 0 I I #
point $-1 -47.795648060548722 31.959939158160918 -9.9545256829821014 #
straight-curve $-1 -47.795648060548722 0 -5.8530124607362701 0 -1 0 I I #
point $-1 -47.795648060548722 -31.959939158160918 -5.8530124607362701 #
point $-1 -47.795648060548722 31.959939158160918 -5.8530124607362701 #
straight-curve $-1 -47.795648060548722 31.959939158160918 0 0 0 -1 I I #
straight-curve $-1 -47.795648060548722 -31.959939158160918 0 0 0 -1 I I #
edge $-1 $420 -31.959939158160918 $469 31.959939158160918 $412 $482 forward 7 unknown #
straight-curve $-1 60.004070115005135 -31.959939158160918 7.1221932022847412 0 0 -1 I I #
edge $-1 $469 -2.8323324806973602 $415 2.8323324806973611 $414 $483 forward 7 unknown #
point $-1 60.004070115005135 31.959939158160918 4.2898607215873801 #
point $-1 60.004070115005135 -31.959939158160918 4.2898607215873801 #
point $-1 60.004070115005135 -31.959939158160918 9.9545256829821014 #
vertex $-1 $463 $484 #
straight-curve $-1 0 31.959939158160918 9.9545256829821014 -1 0 0 I I #
straight-curve $-1 21.025671689087559 31.959939158160918 56.555350324992162 0 0 -1 I I #
point $-1 21.025671689087559 31.959939158160918 9.9545256829821014 #
straight-curve $-1 8.3295406122497049 31.959939158160921 3.2780739516482527 -1 0 0 I I #
point $-1 21.025671689087559 31.959939158160921 3.2780739516482527 #
point $-1 16.65908122449941 24.513419636018149 2.7752694635111825 #
straight-curve $-1 23.101883850269324 -31.959939158160921 28.338007703892114 0 0 -1 I I #
point $-1 23.101883850269324 -31.959939158160918 9.9545256829821014 #
straight-curve $-1 14.672277464090403 -31.959939158160918 3.2220421275475761 1 0 0 I I #
point $-1 23.101883850269324 -31.959939158160918 3.2220421275475726 #
point $-1 26.66912446621874 -25.942075965472618 4.0606951736981083 #
point $-1 32.019985390142871 -25.942075965472618 4.0606951736981083 #
straight-curve $-1 60.004070115005135 0 9.9545256829821014 0 1 0 I I #
straight-curve $-1 60.004070115005135 31.959939158160918 7.1221932022847412 0 0 -1 I I #
point $-1 60.004070115005135 31.959939158160918 9.9545256829821014 #
End-of-ACIS-data 