500 0 7 0           
7 Unknown 11 ACIS 5.0 NT 24 Thu Mar 25 20:54:12 1999 
-1 9.9999999999999995e-007 1e-010 
body $-1 $7 $-1 $8 #
body $-1 $9 $-1 $10 #
body $-1 $11 $-1 $12 #
body $-1 $13 $-1 $14 #
body $-1 $15 $-1 $16 #
body $-1 $17 $-1 $18 #
body $-1 $19 $-1 $20 #
lump $-1 $-1 $21 $0 #
transform $-1 1 0 0 0 1 0 0 0 1 57.999816888943144 37.102571544261785 15.114595965496505 1 rotate no_reflect no_shear #
lump $-1 $-1 $22 $1 #
transform $-1 1 0 0 0 1 0 0 0 1 57.999816888943144 37.102571544261785 15.114595965496505 1 rotate no_reflect no_shear #
lump $-1 $-1 $23 $2 #
transform $-1 1 0 0 0 1 0 0 0 1 57.999816888943144 37.102571544261785 15.114595965496505 1 rotate no_reflect no_shear #
lump $-1 $-1 $24 $3 #
transform $-1 1 0 0 0 1 0 0 0 1 57.999816888943144 37.102571544261785 15.114595965496505 1 rotate no_reflect no_shear #
lump $-1 $-1 $25 $4 #
transform $-1 1 0 0 0 1 0 0 0 1 57.999816888943144 37.102571544261785 15.114595965496505 1 rotate no_reflect no_shear #
lump $-1 $-1 $26 $5 #
transform $-1 1 0 0 0 1 0 0 0 1 57.999816888943144 37.102571544261785 15.114595965496505 1 rotate no_reflect no_shear #
lump $-1 $-1 $27 $6 #
transform $-1 1 0 0 0 1 0 0 0 1 57.999816888943144 37.102571544261785 15.114595965496505 1 rotate no_reflect no_shear #
shell $-1 $-1 $-1 $28 $-1 $7 #
shell $-1 $-1 $-1 $29 $-1 $9 #
shell $-1 $-1 $-1 $30 $-1 $11 #
shell $-1 $-1 $-1 $31 $-1 $13 #
shell $-1 $-1 $-1 $32 $-1 $15 #
shell $-1 $-1 $-1 $33 $-1 $17 #
shell $-1 $-1 $-1 $34 $-1 $19 #
face $-1 $35 $36 $21 $-1 $37 forward single #
face $-1 $38 $39 $22 $-1 $40 forward single #
face $-1 $41 $42 $23 $-1 $43 forward single #
face $-1 $44 $45 $24 $-1 $46 reversed single #
face $-1 $47 $48 $25 $-1 $49 forward single #
face $-1 $50 $51 $26 $-1 $52 forward single #
face $-1 $53 $54 $27 $-1 $55 forward single #
face $-1 $56 $57 $21 $-1 $58 reversed single #
loop $-1 $-1 $59 $28 #
plane-surface $-1 0 0 15.114595965496505 0 0 1 1 0 0 forward_v I I I I #
face $-1 $60 $61 $22 $-1 $62 reversed single #
loop $-1 $-1 $63 $29 #
plane-surface $-1 0 -30.847669516916845 -7.1838959186572637 0 0 1 1 0 0 forward_v I I I I #
face $-1 $64 $65 $23 $-1 $66 reversed single #
loop $-1 $-1 $67 $30 #
plane-surface $-1 0 37.102571544261785 0 0 -1 0 0 0 -1 forward_v I I I I #
face $-1 $68 $69 $24 $-1 $70 reversed single #
loop $-1 $-1 $71 $31 #
plane-surface $-1 49.414196350888588 -10.390901495423982 168.76325404015637 0 -1 0 -0.66913061440640931 0 -0.74314481823134659 forward_v I I I I #
face $-1 $72 $73 $25 $-1 $74 forward single #
loop $-1 $75 $76 $32 #
cone-surface $-1 51.929311725175211 -18.765434157123362 9.5603191117250912 -0.66913061440640931 0 -0.74314481823134659 0.3715724091156733 0 -0.33456530720320465 1 I I 0 1 0.5 forward I I I I #
face $-1 $77 $78 $26 $-1 $79 forward single #
loop $-1 $80 $81 $33 #
cone-surface $-1 51.929311725175211 -15.624984408986094 9.5603191117250912 -0.66913061440640931 0 -0.74314481823134659 0.3715724091156733 0 -0.33456530720320465 1 I I 0 1 0.5 forward I I I I #
face $-1 $82 $83 $27 $-1 $84 forward single #
loop $-1 $85 $86 $34 #
cone-surface $-1 51.929311725175211 -12.484534660848826 9.5603191117250912 -0.66913061440640931 0 -0.74314481823134659 0.3715724091156733 0 -0.33456530720320465 1 I I 0 1 0.5 forward I I I I #
face $-1 $87 $88 $21 $-1 $89 reversed single #
loop $-1 $-1 $90 $35 #
plane-surface $-1 0 0 -15.114595965496505 0 0 1 1 0 0 forward_v I I I I #
coedge $-1 $91 $92 $93 $94 forward $36 $-1 #
face $-1 $95 $96 $22 $-1 $97 reversed single #
loop $-1 $-1 $98 $38 #
plane-surface $-1 0 -24.592767489571905 -11.149245942076885 0 -1 0 0 0 -1 forward_v I I I I #
coedge $-1 $99 $100 $101 $102 reversed $39 $-1 #
face $-1 $103 $104 $23 $-1 $105 forward single #
loop $-1 $-1 $106 $41 #
plane-surface $-1 -57.999816888943144 0 0 1 0 0 0 0 -1 forward_v I I I I #
coedge $-1 $107 $108 $109 $110 forward $42 $-1 #
face $-1 $111 $112 $24 $-1 $113 reversed single #
loop $-1 $-1 $114 $44 #
plane-surface $-1 -28.204709869826928 -15.624984408986094 82.558727281386297 0.66913061440640931 0 0.74314481823134659 0.74314481823134659 0 -0.66913061440640931 forward_v I I I I #
coedge $-1 $115 $116 $117 $118 reversed $45 $-1 #
face $-1 $-1 $119 $25 $-1 $120 forward single #
loop $-1 $121 $122 $47 #
cone-surface $-1 51.341639957195611 -18.765434157123362 8.9076435058087213 -0.66913061440640931 0 -0.74314481823134659 0.18578620455783665 0 -0.16728265360160233 1 I I -0.70710678118654746 0.70710678118654746 0.25 forward I I I I #
loop $-1 $-1 $123 $32 #
coedge $-1 $76 $76 $124 $125 reversed $48 $-1 #
face $-1 $-1 $126 $26 $-1 $127 forward single #
loop $-1 $128 $129 $50 #
cone-surface $-1 51.341639957195611 -15.624984408986094 8.9076435058087213 -0.66913061440640931 0 -0.74314481823134659 0.18578620455783665 0 -0.16728265360160233 1 I I -0.70710678118654746 0.70710678118654746 0.25 forward I I I I #
loop $-1 $-1 $130 $33 #
coedge $-1 $81 $81 $131 $132 reversed $51 $-1 #
face $-1 $-1 $133 $27 $-1 $134 forward single #
loop $-1 $135 $136 $53 #
cone-surface $-1 51.341639957195611 -12.484534660848826 8.9076435058087213 -0.66913061440640931 0 -0.74314481823134659 0.18578620455783665 0 -0.16728265360160233 1 I I -0.70710678118654746 0.70710678118654746 0.25 forward I I I I #
loop $-1 $-1 $137 $34 #
coedge $-1 $86 $86 $138 $139 reversed $54 $-1 #
face $-1 $140 $141 $21 $-1 $142 reversed single #
loop $-1 $-1 $143 $56 #
plane-surface $-1 0 -37.102571544261785 0 0 1 0 0 0 1 forward_v I I I I #
coedge $-1 $144 $145 $146 $147 forward $57 $-1 #
coedge $-1 $148 $59 $149 $150 forward $36 $-1 #
coedge $-1 $59 $148 $151 $152 forward $36 $-1 #
coedge $-1 $153 $154 $59 $94 reversed $155 $-1 #
edge $-1 $156 -37.102571544261785 $157 37.102571544261785 $93 $158 forward 7 unknown #
face $-1 $159 $160 $22 $-1 $161 reversed single #
loop $-1 $-1 $162 $60 #
plane-surface $-1 0 0 -15.114595965496505 0 0 1 1 0 0 forward_v I I I I #
coedge $-1 $163 $164 $165 $166 reversed $61 $-1 #
coedge $-1 $167 $63 $164 $168 forward $39 $-1 #
coedge $-1 $63 $167 $169 $170 reversed $39 $-1 #
coedge $-1 $171 $165 $63 $102 forward $160 $-1 #
edge $-1 $172 9.1689327311134825 $173 21.678736785803363 $101 $174 forward 7 unknown #
face $-1 $175 $176 $23 $-1 $177 reversed single #
loop $-1 $-1 $178 $64 #
plane-surface $-1 0 43.290344229559572 2.531956900695385 0 0 1 1 0 0 forward_v I I I I #
coedge $-1 $179 $180 $108 $181 forward $65 $-1 #
coedge $-1 $182 $67 $183 $184 reversed $42 $-1 #
coedge $-1 $67 $182 $106 $181 reversed $42 $-1 #
coedge $-1 $185 $186 $67 $110 reversed $176 $-1 #
edge $-1 $187 -57.999816888943144 $188 57.999816888943144 $109 $189 forward 7 unknown #
face $-1 $190 $191 $24 $-1 $192 forward single #
loop $-1 $-1 $193 $68 #
plane-surface $-1 49.414196350888588 -20.859067322548206 168.76325404015637 0 1 0 0.66913061440640931 0 0.74314481823134659 forward_v I I I I #
coedge $-1 $194 $195 $196 $197 reversed $69 $-1 #
coedge $-1 $116 $71 $198 $199 reversed $45 $-1 #
coedge $-1 $71 $115 $194 $200 reversed $45 $-1 #
coedge $-1 $196 $201 $71 $118 forward $191 $-1 #
edge $-1 $202 -33.29271871349885 $203 -21.992486614719006 $117 $204 forward 7 unknown #
loop $-1 $-1 $124 $72 #
plane-surface $-1 -28.204709869826928 -15.624984408986094 82.558727281386297 0.66913061440640931 0 0.74314481823134659 0.74314481823134659 0 -0.66913061440640931 forward_v I I I I #
loop $-1 $-1 $205 $47 #
coedge $-1 $122 $122 $123 $206 reversed $73 $-1 #
coedge $-1 $123 $123 $122 $206 forward $75 $-1 #
coedge $-1 $124 $124 $76 $125 forward $119 $-1 #
edge $-1 $207 0 $207 6.2831853071796004 $124 $208 forward 7 unknown #
loop $-1 $-1 $131 $77 #
plane-surface $-1 -28.204709869826928 -15.624984408986094 82.558727281386297 0.66913061440640931 0 0.74314481823134659 0.74314481823134659 0 -0.66913061440640931 forward_v I I I I #
loop $-1 $-1 $209 $50 #
coedge $-1 $129 $129 $130 $210 reversed $78 $-1 #
coedge $-1 $130 $130 $129 $210 forward $80 $-1 #
coedge $-1 $131 $131 $81 $132 forward $126 $-1 #
edge $-1 $211 0 $211 6.2831853071796004 $131 $212 forward 7 unknown #
loop $-1 $-1 $138 $82 #
plane-surface $-1 -28.204709869826928 -15.624984408986094 82.558727281386297 0.66913061440640931 0 0.74314481823134659 0.74314481823134659 0 -0.66913061440640931 forward_v I I I I #
loop $-1 $-1 $213 $53 #
coedge $-1 $136 $136 $137 $214 reversed $83 $-1 #
coedge $-1 $137 $137 $136 $214 forward $85 $-1 #
coedge $-1 $138 $138 $86 $139 forward $133 $-1 #
edge $-1 $215 0 $215 6.2831853071796004 $138 $216 forward 7 unknown #
face $-1 $217 $218 $21 $-1 $219 reversed single #
loop $-1 $-1 $220 $87 #
plane-surface $-1 -57.999816888943144 0 0 1 0 0 0 0 -1 forward_v I I I I #
coedge $-1 $221 $151 $222 $223 forward $88 $-1 #
coedge $-1 $224 $90 $221 $225 forward $57 $-1 #
coedge $-1 $90 $224 $226 $227 forward $57 $-1 #
coedge $-1 $154 $153 $90 $147 reversed $155 $-1 #
edge $-1 $228 -37.102571544261785 $229 37.102571544261785 $146 $230 forward 7 unknown #
coedge $-1 $92 $91 $231 $232 forward $36 $-1 #
coedge $-1 $233 $234 $91 $150 reversed $218 $-1 #
edge $-1 $157 -57.999816888943144 $235 57.999816888943144 $149 $236 forward 7 unknown #
coedge $-1 $143 $237 $92 $152 reversed $88 $-1 #
edge $-1 $238 -57.999816888943144 $156 57.999816888943144 $151 $239 forward 7 unknown #
coedge $-1 $146 $93 $237 $240 forward $155 $-1 #
coedge $-1 $93 $146 $233 $241 reversed $155 $-1 #
loop $-1 $-1 $153 $217 #
vertex $-1 $94 $242 #
vertex $-1 $94 $243 #
straight-curve $-1 57.999816888943144 0 15.114595965496505 0 1 0 I I #
face $-1 $244 $245 $22 $-1 $246 reversed single #
loop $-1 $-1 $165 $95 #
plane-surface $-1 57.999816888943144 0 0 -1 0 0 0 0 1 forward_v I I I I #
coedge $-1 $247 $248 $163 $249 forward $96 $-1 #
coedge $-1 $250 $98 $162 $249 reversed $61 $-1 #
coedge $-1 $98 $250 $99 $168 reversed $61 $-1 #
coedge $-1 $101 $251 $98 $166 forward $160 $-1 #
edge $-1 $252 -9.5399729944580631 $172 -1.6092729476188214 $165 $253 forward 7 unknown #
coedge $-1 $100 $99 $254 $255 reversed $39 $-1 #
edge $-1 $172 -57.999816888943144 $256 57.999816888943144 $164 $257 forward 7 unknown #
coedge $-1 $258 $259 $100 $170 forward $245 $-1 #
edge $-1 $173 -57.999816888943144 $260 57.999816888943144 $169 $261 forward 7 unknown #
coedge $-1 $251 $101 $259 $262 forward $160 $-1 #
vertex $-1 $102 $263 #
vertex $-1 $262 $264 #
straight-curve $-1 57.999816888943144 -15.423834758458423 -7.1838959186572637 0 -1 0 I I #
face $-1 $265 $266 $23 $-1 $267 reversed single #
loop $-1 $-1 $186 $103 #
plane-surface $-1 0 43.290344229559572 -2.786635414785672 0 0 1 1 0 0 forward_v I I I I #
coedge $-1 $268 $269 $270 $271 forward $104 $-1 #
coedge $-1 $272 $106 $273 $274 reversed $65 $-1 #
coedge $-1 $106 $272 $185 $275 reversed $65 $-1 #
edge $-1 $187 -2.786635414785672 $276 2.531956900695385 $106 $277 forward 7 unknown #
coedge $-1 $108 $107 $269 $278 forward $42 $-1 #
coedge $-1 $279 $270 $107 $184 forward $280 $-1 #
edge $-1 $281 -2.531956900695385 $188 2.786635414785672 $183 $282 forward 7 unknown #
coedge $-1 $283 $109 $180 $275 forward $176 $-1 #
coedge $-1 $109 $283 $279 $284 forward $176 $-1 #
vertex $-1 $181 $285 #
vertex $-1 $184 $286 #
straight-curve $-1 0 37.102571544261785 -2.786635414785672 1 0 0 I I #
face $-1 $-1 $287 $24 $-1 $288 reversed single #
loop $-1 $-1 $117 $111 #
plane-surface $-1 0 0 15.114595965496505 0 0 1 1 0 0 forward_v I I I I #
coedge $-1 $289 $290 $291 $292 reversed $112 $-1 #
coedge $-1 $293 $114 $116 $200 forward $69 $-1 #
coedge $-1 $114 $293 $289 $294 forward $69 $-1 #
coedge $-1 $291 $117 $114 $197 forward $191 $-1 #
edge $-1 $203 2.5784092909309351 $295 13.046575118055159 $196 $296 forward 7 unknown #
coedge $-1 $297 $298 $115 $199 forward $287 $-1 #
edge $-1 $299 -79.441805959407404 $202 -69.267031054581679 $198 $300 forward 7 unknown #
edge $-1 $203 100.79367146535355 $299 115.99963377788627 $116 $301 forward 7 unknown #
coedge $-1 $117 $291 $297 $302 forward $191 $-1 #
vertex $-1 $118 $303 #
vertex $-1 $118 $304 #
straight-curve $-1 24.707098175444294 -10.390901495423982 15.114595965496505 -1 0 0 I I #
coedge $-1 $205 $205 $-1 $305 reversed $121 $-1 #
edge $-1 $306 0 $306 6.2831853071796004 $122 $307 forward 7 unknown #
vertex $-1 $125 $308 #
ellipse-curve $-1 52.349700839553222 -18.765434157123362 10.027208513083638 0.66913061440640931 0 0.74314481823134659 0.3715724091156733 0 -0.33456530720320465 1 I I #
coedge $-1 $209 $209 $-1 $309 reversed $128 $-1 #
edge $-1 $310 0 $310 6.2831853071796004 $129 $311 forward 7 unknown #
vertex $-1 $132 $312 #
ellipse-curve $-1 52.349700839553222 -15.624984408986094 10.027208513083638 0.66913061440640931 0 0.74314481823134659 0.3715724091156733 0 -0.33456530720320465 1 I I #
coedge $-1 $213 $213 $-1 $313 reversed $135 $-1 #
edge $-1 $314 0 $314 6.2831853071796004 $136 $315 forward 7 unknown #
vertex $-1 $139 $316 #
ellipse-curve $-1 52.349700839553222 -12.484534660848826 10.027208513083638 0.66913061440640931 0 0.74314481823134659 0.3715724091156733 0 -0.33456530720320465 1 I I #
face $-1 $-1 $155 $21 $-1 $317 reversed single #
loop $-1 $-1 $234 $140 #
plane-surface $-1 0 37.102571544261785 0 0 -1 0 0 0 -1 forward_v I I I I #
coedge $-1 $318 $231 $234 $319 forward $141 $-1 #
coedge $-1 $237 $143 $144 $225 reversed $88 $-1 #
coedge $-1 $231 $318 $143 $223 reversed $141 $-1 #
edge $-1 $238 -15.114595965496505 $320 15.114595965496505 $222 $321 forward 7 unknown #
coedge $-1 $145 $144 $318 $322 forward $57 $-1 #
edge $-1 $229 -57.999816888943144 $320 57.999816888943144 $221 $323 forward 7 unknown #
coedge $-1 $234 $233 $145 $227 reversed $218 $-1 #
edge $-1 $324 -57.999816888943144 $228 57.999816888943144 $226 $325 forward 7 unknown #
vertex $-1 $147 $326 #
vertex $-1 $240 $327 #
straight-curve $-1 57.999816888943144 0 -15.114595965496505 0 -1 0 I I #
coedge $-1 $220 $222 $148 $232 reversed $141 $-1 #
edge $-1 $235 -37.102571544261785 $238 37.102571544261785 $231 $328 forward 7 unknown #
coedge $-1 $226 $149 $154 $241 forward $218 $-1 #
coedge $-1 $149 $226 $220 $319 reversed $218 $-1 #
vertex $-1 $150 $329 #
straight-curve $-1 0 37.102571544261785 15.114595965496505 -1 0 0 I I #
coedge $-1 $151 $221 $153 $240 reversed $88 $-1 #
vertex $-1 $232 $330 #
straight-curve $-1 0 -37.102571544261785 15.114595965496505 1 0 0 I I #
edge $-1 $156 -15.114595965496505 $229 15.114595965496505 $153 $331 forward 7 unknown #
edge $-1 $157 -15.114595965496505 $228 15.114595965496505 $154 $332 forward 7 unknown #
point $-1 57.999816888943144 -37.102571544261785 15.114595965496505 #
point $-1 57.999816888943144 37.102571544261785 15.114595965496505 #
face $-1 $-1 $333 $22 $-1 $334 reversed single #
loop $-1 $-1 $169 $159 #
plane-surface $-1 0 -37.102571544261785 0 0 1 0 0 0 1 forward_v I I I I #
coedge $-1 $335 $162 $251 $336 forward $96 $-1 #
coedge $-1 $162 $335 $337 $338 forward $96 $-1 #
edge $-1 $339 -57.999816888943144 $252 57.999816888943144 $162 $340 forward 7 unknown #
coedge $-1 $164 $163 $341 $342 reversed $61 $-1 #
coedge $-1 $165 $171 $247 $336 reversed $160 $-1 #
vertex $-1 $336 $343 #
straight-curve $-1 57.999816888943144 -24.592767489571905 -5.5746229710384423 0 0 1 I I #
coedge $-1 $341 $344 $167 $255 forward $333 $-1 #
edge $-1 $260 -21.678736785803363 $256 -9.1689327311134825 $254 $345 forward 7 unknown #
vertex $-1 $255 $346 #
straight-curve $-1 0 -24.592767489571905 -7.1838959186572637 -1 0 0 I I #
coedge $-1 $347 $169 $344 $348 forward $245 $-1 #
coedge $-1 $169 $347 $171 $262 reversed $245 $-1 #
vertex $-1 $348 $349 #
straight-curve $-1 0 -37.102571544261785 -7.1838959186572637 -1 0 0 I I #
edge $-1 $173 7.1838959186572637 $350 15.114595965496505 $171 $351 forward 7 unknown #
point $-1 57.999816888943144 -24.592767489571905 -7.1838959186572637 #
point $-1 57.999816888943144 -37.102571544261785 -7.1838959186572637 #
face $-1 $-1 $280 $23 $-1 $352 reversed single #
loop $-1 $-1 $353 $175 #
plane-surface $-1 0 49.478116914857367 -0.12733925704514348 0 -1 0 0 0 -1 forward_v I I I I #
coedge $-1 $273 $178 $354 $355 forward $104 $-1 #
coedge $-1 $178 $273 $182 $278 reversed $104 $-1 #
coedge $-1 $183 $356 $178 $271 reversed $280 $-1 #
edge $-1 $281 -6.1877726852977943 $357 6.1877726852977943 $270 $358 forward 7 unknown #
coedge $-1 $180 $179 $359 $360 forward $65 $-1 #
coedge $-1 $269 $268 $179 $274 forward $104 $-1 #
edge $-1 $361 -6.1877726852977943 $276 6.1877726852977943 $179 $362 forward 7 unknown #
edge $-1 $187 -6.1877726852977943 $363 6.1877726852977943 $180 $364 forward 7 unknown #
vertex $-1 $274 $365 #
straight-curve $-1 -57.999816888943144 37.102571544261785 0 0 0 1 I I #
edge $-1 $281 -57.999816888943144 $276 57.999816888943144 $269 $366 forward 7 unknown #
coedge $-1 $356 $183 $186 $284 reversed $280 $-1 #
loop $-1 $-1 $183 $265 #
vertex $-1 $184 $367 #
straight-curve $-1 57.999816888943144 37.102571544261785 0 0 0 -1 I I #
coedge $-1 $186 $185 $368 $369 forward $176 $-1 #
edge $-1 $370 -6.1877726852977943 $188 6.1877726852977943 $279 $371 forward 7 unknown #
point $-1 -57.999816888943144 37.102571544261778 -2.786635414785672 #
point $-1 57.999816888943144 37.102571544261778 -2.786635414785672 #
loop $-1 $-1 $198 $190 #
plane-surface $-1 57.999816888943144 0 0 -1 0 0 0 0 1 forward_v I I I I #
coedge $-1 $290 $193 $195 $294 reversed $112 $-1 #
coedge $-1 $193 $289 $372 $373 reversed $112 $-1 #
coedge $-1 $201 $196 $193 $292 forward $191 $-1 #
edge $-1 $295 21.992486614719006 $374 33.29271871349885 $291 $375 forward 7 unknown #
coedge $-1 $195 $194 $298 $376 reversed $69 $-1 #
edge $-1 $377 -115.99963377788627 $295 -100.79367146535355 $289 $378 forward 7 unknown #
vertex $-1 $197 $379 #
straight-curve $-1 46.699584790163314 -7.8124922044930472 15.114595965496505 0 -1 0 I I #
coedge $-1 $372 $198 $201 $302 reversed $287 $-1 #
coedge $-1 $198 $372 $293 $376 forward $287 $-1 #
vertex $-1 $199 $380 #
straight-curve $-1 57.999816888943144 -10.390901495423982 84.381627020078184 0 0 1 I I #
straight-curve $-1 -28.204709869826928 -10.390901495423982 82.558727281386297 0.74314481823134659 0 -0.66913061440640931 I I #
edge $-1 $374 -20.859067322548206 $202 -10.390901495423982 $297 $381 forward 7 unknown #
point $-1 57.999816888943144 -10.390901495423982 15.114595965496505 #
point $-1 46.6995847901633 -10.390901495423982 15.114595965496505 #
edge $-1 $382 1 $382 0 $205 $-1 forward 7 unknown #
vertex $-1 $206 $383 #
ellipse-curve $-1 51.508922610797214 -18.765434157123362 9.0934297103665571 0.66913061440640931 0 0.74314481823134659 0.3715724091156733 0 -0.33456530720320465 1 I I #
point $-1 52.721273248668886 -18.765434157123362 9.6926432058804188 #
edge $-1 $384 1 $384 0 $209 $-1 forward 7 unknown #
vertex $-1 $210 $385 #
ellipse-curve $-1 51.508922610797214 -15.624984408986094 9.0934297103665571 0.66913061440640931 0 0.74314481823134659 0.3715724091156733 0 -0.33456530720320465 1 I I #
point $-1 52.721273248668886 -15.624984408986094 9.6926432058804188 #
edge $-1 $386 1 $386 0 $213 $-1 forward 7 unknown #
vertex $-1 $214 $387 #
ellipse-curve $-1 51.508922610797214 -12.484534660848826 9.0934297103665571 0.66913061440640931 0 0.74314481823134659 0.3715724091156733 0 -0.33456530720320465 1 I I #
point $-1 52.721273248668886 -12.484534660848826 9.6926432058804188 #
plane-surface $-1 57.999816888943144 0 0 -1 0 0 0 0 1 forward_v I I I I #
coedge $-1 $222 $220 $224 $322 reversed $141 $-1 #
edge $-1 $235 -15.114595965496505 $324 15.114595965496505 $234 $388 forward 7 unknown #
vertex $-1 $322 $389 #
straight-curve $-1 -57.999816888943144 -37.102571544261785 0 0 0 -1 I I #
edge $-1 $320 -37.102571544261785 $324 37.102571544261785 $318 $390 forward 7 unknown #
straight-curve $-1 0 -37.102571544261785 -15.114595965496505 -1 0 0 I I #
vertex $-1 $227 $391 #
straight-curve $-1 0 37.102571544261785 -15.114595965496505 1 0 0 I I #
point $-1 57.999816888943144 37.102571544261785 -15.114595965496505 #
point $-1 57.999816888943144 -37.102571544261785 -15.114595965496505 #
straight-curve $-1 -57.999816888943144 0 15.114595965496505 0 -1 0 I I #
point $-1 -57.999816888943144 37.102571544261785 15.114595965496505 #
point $-1 -57.999816888943144 -37.102571544261785 15.114595965496505 #
straight-curve $-1 57.999816888943144 -37.102571544261785 0 0 0 -1 I I #
straight-curve $-1 57.999816888943144 37.102571544261785 0 0 0 -1 I I #
loop $-1 $-1 $341 $244 #
plane-surface $-1 -57.999816888943144 0 0 1 0 0 0 0 -1 forward_v I I I I #
coedge $-1 $248 $247 $347 $392 forward $96 $-1 #
edge $-1 $252 24.592767489571905 $350 37.102571544261785 $251 $393 forward 7 unknown #
coedge $-1 $344 $341 $248 $338 reversed $333 $-1 #
edge $-1 $394 -37.102571544261785 $339 -24.592767489571905 $337 $395 forward 7 unknown #
vertex $-1 $342 $396 #
straight-curve $-1 0 -24.592767489571905 -15.114595965496505 1 0 0 I I #
coedge $-1 $337 $254 $250 $342 forward $333 $-1 #
edge $-1 $256 1.6092729476188214 $339 9.5399729944580631 $341 $397 forward 7 unknown #
point $-1 57.999816888943144 -24.592767489571905 -15.114595965496505 #
coedge $-1 $254 $337 $258 $348 reversed $333 $-1 #
straight-curve $-1 -57.999816888943144 -15.423834758458423 -7.1838959186572637 0 1 0 I I #
point $-1 -57.999816888943144 -24.592767489571905 -7.1838959186572637 #
coedge $-1 $259 $258 $335 $392 reversed $245 $-1 #
edge $-1 $260 7.1838959186572637 $394 15.114595965496505 $344 $398 forward 7 unknown #
point $-1 -57.999816888943144 -37.102571544261785 -7.1838959186572637 #
vertex $-1 $262 $399 #
straight-curve $-1 57.999816888943144 -37.102571544261785 0 0 0 -1 I I #
plane-surface $-1 57.999816888943144 0 0 -1 0 0 0 0 1 forward_v I I I I #
coedge $-1 $368 $354 $356 $400 forward $266 $-1 #
coedge $-1 $353 $359 $268 $355 reversed $266 $-1 #
edge $-1 $357 -57.999816888943144 $361 57.999816888943144 $354 $401 forward 7 unknown #
coedge $-1 $270 $279 $353 $400 reversed $280 $-1 #
vertex $-1 $271 $402 #
straight-curve $-1 57.999816888943144 43.290344229559572 2.531956900695385 0 1 0 I I #
coedge $-1 $354 $368 $272 $360 reversed $266 $-1 #
edge $-1 $361 -2.6592961577405285 $363 2.6592961577405285 $359 $403 forward 7 unknown #
vertex $-1 $355 $404 #
straight-curve $-1 -57.999816888943144 43.290344229559572 2.531956900695385 0 -1 0 I I #
vertex $-1 $369 $405 #
straight-curve $-1 -57.999816888943144 43.290344229559572 -2.786635414785672 0 1 0 I I #
point $-1 -57.999816888943144 37.102571544261778 2.531956900695385 #
straight-curve $-1 0 37.102571544261785 2.531956900695385 -1 0 0 I I #
point $-1 57.999816888943144 37.102571544261778 2.531956900695385 #
coedge $-1 $359 $353 $283 $369 reversed $266 $-1 #
edge $-1 $363 -57.999816888943144 $370 57.999816888943144 $368 $406 forward 7 unknown #
vertex $-1 $284 $407 #
straight-curve $-1 57.999816888943144 43.290344229559572 -2.786635414785672 0 -1 0 I I #
coedge $-1 $298 $297 $290 $373 forward $287 $-1 #
edge $-1 $374 69.267031054581679 $377 79.441805959407404 $372 $408 forward 7 unknown #
vertex $-1 $302 $409 #
straight-curve $-1 24.707098175444294 -20.859067322548206 15.114595965496505 1 0 0 I I #
edge $-1 $377 -13.046575118055159 $299 -2.5784092909309351 $298 $410 forward 7 unknown #
vertex $-1 $376 $411 #
straight-curve $-1 -28.204709869826928 -20.859067322548206 82.558727281386297 -0.74314481823134659 0 0.66913061440640931 I I #
point $-1 46.6995847901633 -20.859067322548206 15.114595965496505 #
point $-1 57.999816888943144 -10.390901495423982 4.9398210606707806 #
straight-curve $-1 57.999816888943144 0 15.114595965496505 0 1 0 I I #
vertex $-1 $305 $412 #
point $-1 51.880495019912885 -18.765434157123362 8.7588644031633525 #
vertex $-1 $309 $413 #
point $-1 51.880495019912885 -15.624984408986094 8.7588644031633525 #
vertex $-1 $313 $414 #
point $-1 51.880495019912885 -12.484534660848826 8.7588644031633525 #
straight-curve $-1 -57.999816888943144 37.102571544261785 0 0 0 -1 I I #
point $-1 -57.999816888943144 -37.102571544261785 -15.114595965496505 #
straight-curve $-1 -57.999816888943144 0 -15.114595965496505 0 1 0 I I #
point $-1 -57.999816888943144 37.102571544261785 -15.114595965496505 #
edge $-1 $350 -57.999816888943144 $394 57.999816888943144 $347 $415 forward 7 unknown #
straight-curve $-1 57.999816888943144 0 -15.114595965496505 0 -1 0 I I #
vertex $-1 $338 $416 #
straight-curve $-1 -57.999816888943144 0 -15.114595965496505 0 1 0 I I #
point $-1 -57.999816888943144 -24.592767489571905 -15.114595965496505 #
straight-curve $-1 -57.999816888943144 -24.592767489571905 -5.5746229710384423 0 0 -1 I I #
straight-curve $-1 -57.999816888943144 -37.102571544261785 0 0 0 -1 I I #
point $-1 57.999816888943144 -37.102571544261785 -15.114595965496505 #
edge $-1 $357 -2.6592961577405285 $370 2.6592961577405285 $356 $417 forward 7 unknown #
straight-curve $-1 0 49.478116914857367 2.531956900695385 -1 0 0 I I #
point $-1 57.999816888943144 49.478116914857367 2.531956900695385 #
straight-curve $-1 -57.999816888943144 49.478116914857367 -0.12733925704514348 0 0 -1 I I #
point $-1 -57.999816888943144 49.478116914857367 2.531956900695385 #
point $-1 -57.999816888943144 49.478116914857367 -2.786635414785672 #
straight-curve $-1 0 49.478116914857367 -2.786635414785672 1 0 0 I I #
point $-1 57.999816888943144 49.478116914857367 -2.786635414785672 #
straight-curve $-1 57.999816888943144 -20.859067322548206 84.381627020078184 0 0 -1 I I #
point $-1 57.999816888943144 -20.859067322548206 15.114595965496505 #
straight-curve $-1 57.999816888943144 -7.8124922044930472 4.9398210606707806 0 1 0 I I #
point $-1 57.999816888943144 -20.859067322548206 4.9398210606707806 #
point $-1 51.174357303594007 -18.765434157123362 8.7218573012508855 #
point $-1 51.174357303594007 -15.624984408986094 8.7218573012508855 #
point $-1 51.174357303594007 -12.484534660848826 8.7218573012508855 #
straight-curve $-1 0 -37.102571544261785 -15.114595965496505 -1 0 0 I I #
point $-1 -57.999816888943144 -37.102571544261785 -15.114595965496505 #
straight-curve $-1 57.999816888943144 49.478116914857367 -0.12733925704514348 0 0 -1 I I #
End-of-ACIS-data 