500 0 11 0           
7 Unknown 11 ACIS 5.0 NT 24 Fri Mar 26 18:03:05 1999 
-1 9.9999999999999995e-007 1e-010 
body $-1 $11 $-1 $12 #
body $-1 $13 $-1 $14 #
body $-1 $15 $-1 $16 #
body $-1 $17 $-1 $18 #
body $-1 $19 $-1 $20 #
body $-1 $21 $-1 $22 #
body $-1 $23 $-1 $24 #
body $-1 $25 $-1 $26 #
body $-1 $27 $-1 $28 #
body $-1 $29 $-1 $30 #
body $-1 $31 $-1 $32 #
lump $-1 $-1 $33 $0 #
transform $-1 1 0 0 0 1 0 0 0 1 42.221747489852596 21.982832011669768 7.2821024222745292 1 rotate no_reflect no_shear #
lump $-1 $-1 $34 $1 #
transform $-1 1 0 0 0 1 0 0 0 1 42.221747489852596 21.982832011669768 7.2821024222745292 1 rotate no_reflect no_shear #
lump $-1 $-1 $35 $2 #
transform $-1 1 0 0 0 1 0 0 0 1 42.221747489852596 21.982832011669768 7.2821024222745292 1 rotate no_reflect no_shear #
lump $-1 $-1 $36 $3 #
transform $-1 1 0 0 0 1 0 0 0 1 42.221747489852596 21.982832011669768 7.2821024222745292 1 rotate no_reflect no_shear #
lump $-1 $-1 $37 $4 #
transform $-1 1 0 0 0 1 0 0 0 1 42.221747489852596 21.982832011669768 7.2821024222745292 1 rotate no_reflect no_shear #
lump $-1 $-1 $38 $5 #
transform $-1 1 0 0 0 1 0 0 0 1 42.221747489852596 21.982832011669768 7.2821024222745292 1 rotate no_reflect no_shear #
lump $-1 $-1 $39 $6 #
transform $-1 1 0 0 0 1 0 0 0 1 42.221747489852596 21.982832011669768 7.2821024222745292 1 rotate no_reflect no_shear #
lump $-1 $-1 $40 $7 #
transform $-1 1 0 0 0 1 0 0 0 1 42.221747489852596 21.982832011669768 7.2821024222745292 1 rotate no_reflect no_shear #
lump $-1 $-1 $41 $8 #
transform $-1 1 0 0 0 1 0 0 0 1 42.221747489852596 21.982832011669768 7.2821024222745292 1 rotate no_reflect no_shear #
lump $-1 $-1 $42 $9 #
transform $-1 1 0 0 0 1 0 0 0 1 42.221747489852596 21.982832011669768 7.2821024222745292 1 rotate no_reflect no_shear #
lump $-1 $-1 $43 $10 #
transform $-1 1 0 0 0 1 0 0 0 1 42.221747489852596 21.982832011669768 7.2821024222745292 1 rotate no_reflect no_shear #
shell $-1 $-1 $-1 $44 $-1 $11 #
shell $-1 $-1 $-1 $45 $-1 $13 #
shell $-1 $-1 $-1 $46 $-1 $15 #
shell $-1 $-1 $-1 $47 $-1 $17 #
shell $-1 $-1 $-1 $48 $-1 $19 #
shell $-1 $-1 $-1 $49 $-1 $21 #
shell $-1 $-1 $-1 $50 $-1 $23 #
shell $-1 $-1 $-1 $51 $-1 $25 #
shell $-1 $-1 $-1 $52 $-1 $27 #
shell $-1 $-1 $-1 $53 $-1 $29 #
shell $-1 $-1 $-1 $54 $-1 $31 #
face $-1 $55 $56 $33 $-1 $57 forward single #
face $-1 $58 $59 $34 $-1 $60 forward single #
face $-1 $61 $62 $35 $-1 $63 reversed single #
face $-1 $64 $65 $36 $-1 $66 forward single #
face $-1 $67 $68 $37 $-1 $69 forward single #
face $-1 $70 $71 $38 $-1 $72 reversed single #
face $-1 $73 $74 $39 $-1 $75 forward single #
face $-1 $76 $77 $40 $-1 $78 forward single #
face $-1 $79 $80 $41 $-1 $81 reversed single #
face $-1 $82 $83 $42 $-1 $84 forward single #
face $-1 $85 $86 $43 $-1 $87 forward single #
face $-1 $88 $89 $33 $-1 $90 reversed single #
loop $-1 $-1 $91 $44 #
plane-surface $-1 0 0 7.2821024222745292 0 0 1 1 0 0 forward_v I I I I #
face $-1 $92 $93 $34 $-1 $94 reversed single #
loop $-1 $-1 $95 $45 #
plane-surface $-1 0 -18.69204488222061 -0.27925775090164162 0 0 1 1 0 0 forward_v I I I I #
face $-1 $96 $97 $35 $-1 $98 reversed single #
loop $-1 $-1 $99 $46 #
plane-surface $-1 71.112336813134363 12.566832378616688 119.92278057351572 0 1 0 0.85716730853699208 0 0.51503806187062418 forward_v I I I I #
face $-1 $100 $101 $36 $-1 $102 forward single #
loop $-1 $103 $104 $47 #
cone-surface $-1 40.76517600256502 14.500487359953301 5.3739721347955731 -0.85716730853699208 0 -0.51503806187062418 0.25751903093531209 0 -0.42858365426849604 1 I I 0 1 0.5 forward I I I I #
face $-1 $105 $106 $37 $-1 $107 forward single #
loop $-1 $108 $109 $48 #
cone-surface $-1 40.76517600256502 17.400969831958225 5.3739721347955731 -0.85716730853699208 0 -0.51503806187062418 0.25751903093531209 0 -0.42858365426849604 1 I I 0 1 0.5 forward I I I I #
face $-1 $110 $111 $38 $-1 $112 reversed single #
loop $-1 $-1 $113 $49 #
plane-surface $-1 -97.621665484509549 -6.534431312993572 66.963813017295777 0 1 0 -0.6560590369687036 0 0.75470957328743171 forward_v I I I I #
face $-1 $114 $115 $39 $-1 $116 forward single #
loop $-1 $117 $118 $50 #
cone-surface $-1 -39.565025259603431 -4.3074960225859833 4.8804459016250945 0.6560590369687036 0 -0.75470957328743171 0.37735478664371586 0 0.3280295184843518 1 I I 0 1 0.5 forward I I I I #
face $-1 $119 $120 $40 $-1 $121 forward single #
loop $-1 $122 $123 $51 #
cone-surface $-1 -39.565025259603431 -0.96709308697460017 4.8804459016250945 0.6560590369687036 0 -0.75470957328743171 0.37735478664371586 0 0.3280295184843518 1 I I 0 1 0.5 forward I I I I #
face $-1 $124 $125 $41 $-1 $126 reversed single #
loop $-1 $-1 $127 $52 #
plane-surface $-1 -97.621665484509549 5.321732055465322 66.963813017295777 0 1 0 -0.6560590369687036 0 0.75470957328743171 forward_v I I I I #
face $-1 $128 $129 $42 $-1 $130 forward single #
loop $-1 $131 $132 $53 #
cone-surface $-1 -39.565025259603431 7.5486673458729108 4.8804459016250945 0.6560590369687036 0 -0.75470957328743171 0.37735478664371586 0 0.3280295184843518 1 I I 0 1 0.5 forward I I I I #
face $-1 $133 $134 $43 $-1 $135 forward single #
loop $-1 $136 $137 $54 #
cone-surface $-1 -39.565025259603431 10.889070281484297 4.8804459016250945 0.6560590369687036 0 -0.75470957328743171 0.37735478664371586 0 0.3280295184843518 1 I I 0 1 0.5 forward I I I I #
face $-1 $138 $139 $33 $-1 $140 reversed single #
loop $-1 $-1 $141 $55 #
plane-surface $-1 0 0 -7.2821024222745292 0 0 1 1 0 0 forward_v I I I I #
coedge $-1 $142 $143 $144 $145 forward $56 $-1 #
face $-1 $146 $147 $34 $-1 $148 reversed single #
loop $-1 $-1 $149 $58 #
plane-surface $-1 0 -18.69204488222061 -3.2792577509016416 0 0 1 1 0 0 forward_v I I I I #
coedge $-1 $150 $151 $152 $153 reversed $59 $-1 #
face $-1 $154 $155 $35 $-1 $156 reversed single #
loop $-1 $-1 $157 $61 #
plane-surface $-1 -1.2698665020765389 15.95072859595577 76.431166581586581 0.85716730853699208 0 0.51503806187062418 0.51503806187062418 0 -0.85716730853699208 forward_v I I I I #
coedge $-1 $158 $159 $160 $161 reversed $62 $-1 #
face $-1 $-1 $162 $36 $-1 $163 forward single #
loop $-1 $164 $165 $64 #
cone-surface $-1 40.065645651980965 14.500487359953301 4.9536519097984 -0.85716730853699208 0 -0.51503806187062418 0.12875951546765604 0 -0.21429182713424802 1 I I -0.70710678118654746 0.70710678118654746 0.25 forward I I I I #
loop $-1 $-1 $166 $47 #
coedge $-1 $104 $104 $167 $168 reversed $65 $-1 #
face $-1 $-1 $169 $37 $-1 $170 forward single #
loop $-1 $171 $172 $67 #
cone-surface $-1 40.065645651980965 17.400969831958225 4.9536519097984 -0.85716730853699208 0 -0.51503806187062418 0.12875951546765604 0 -0.21429182713424802 1 I I -0.70710678118654746 0.70710678118654746 0.25 forward I I I I #
loop $-1 $-1 $173 $48 #
coedge $-1 $109 $109 $174 $175 reversed $68 $-1 #
face $-1 $176 $177 $38 $-1 $178 reversed single #
loop $-1 $-1 $179 $70 #
plane-surface $-1 -42.221747489852604 -2.63729455478029 3.2334989542630908 -0.6560590369687036 0 0.75470957328743171 0.75470957328743171 0 0.6560590369687036 forward_v I I I I #
coedge $-1 $180 $181 $182 $183 reversed $71 $-1 #
face $-1 $-1 $184 $39 $-1 $185 forward single #
loop $-1 $186 $187 $73 #
cone-surface $-1 -39.072980981876903 -4.3074960225859833 4.3144137216595206 0.6560590369687036 0 -0.75470957328743171 0.18867739332185793 0 0.1640147592421759 1 I I -0.70710678118654746 0.70710678118654746 0.25 forward I I I I #
loop $-1 $-1 $188 $50 #
coedge $-1 $118 $118 $189 $190 reversed $74 $-1 #
face $-1 $-1 $191 $40 $-1 $192 forward single #
loop $-1 $193 $194 $76 #
cone-surface $-1 -39.072980981876903 -0.96709308697460017 4.3144137216595206 0.6560590369687036 0 -0.75470957328743171 0.18867739332185793 0 0.1640147592421759 1 I I -0.70710678118654746 0.70710678118654746 0.25 forward I I I I #
loop $-1 $-1 $195 $51 #
coedge $-1 $123 $123 $196 $197 reversed $77 $-1 #
face $-1 $198 $199 $41 $-1 $200 reversed single #
loop $-1 $-1 $201 $79 #
plane-surface $-1 -42.221747489852604 9.2188688136786041 3.2334989542630908 -0.6560590369687036 0 0.75470957328743171 0.75470957328743171 0 0.6560590369687036 forward_v I I I I #
coedge $-1 $202 $203 $204 $205 reversed $80 $-1 #
face $-1 $-1 $206 $42 $-1 $207 forward single #
loop $-1 $208 $209 $82 #
cone-surface $-1 -39.072980981876903 7.5486673458729108 4.3144137216595206 0.6560590369687036 0 -0.75470957328743171 0.18867739332185793 0 0.1640147592421759 1 I I -0.70710678118654746 0.70710678118654746 0.25 forward I I I I #
loop $-1 $-1 $210 $53 #
coedge $-1 $132 $132 $211 $212 reversed $83 $-1 #
face $-1 $-1 $213 $43 $-1 $214 forward single #
loop $-1 $215 $216 $85 #
cone-surface $-1 -39.072980981876903 10.889070281484297 4.3144137216595206 0.6560590369687036 0 -0.75470957328743171 0.18867739332185793 0 0.1640147592421759 1 I I -0.70710678118654746 0.70710678118654746 0.25 forward I I I I #
loop $-1 $-1 $217 $54 #
coedge $-1 $137 $137 $218 $219 reversed $86 $-1 #
face $-1 $220 $221 $33 $-1 $222 reversed single #
loop $-1 $-1 $223 $88 #
plane-surface $-1 0 -21.982832011669768 0 0 1 0 0 0 1 forward_v I I I I #
coedge $-1 $224 $225 $226 $227 forward $89 $-1 #
coedge $-1 $228 $91 $229 $230 forward $56 $-1 #
coedge $-1 $91 $228 $231 $232 forward $56 $-1 #
coedge $-1 $233 $234 $91 $145 reversed $235 $-1 #
edge $-1 $236 -21.982832011669768 $237 21.982832011669768 $144 $238 forward 7 unknown #
face $-1 $239 $240 $34 $-1 $241 reversed single #
loop $-1 $-1 $242 $92 #
plane-surface $-1 0 -15.401257752771453 -1.7792577509016416 0 -1 0 0 0 -1 forward_v I I I I #
coedge $-1 $243 $244 $245 $246 reversed $93 $-1 #
coedge $-1 $247 $95 $248 $249 forward $59 $-1 #
coedge $-1 $95 $247 $250 $251 reversed $59 $-1 #
coedge $-1 $252 $253 $95 $153 forward $254 $-1 #
edge $-1 $255 6.0552353116611481 $256 12.636809570559462 $152 $257 forward 7 unknown #
face $-1 $258 $259 $35 $-1 $260 forward single #
loop $-1 $-1 $261 $96 #
plane-surface $-1 71.112336813134363 19.334624813294852 119.92278057351572 0 -1 0 -0.85716730853699208 0 -0.51503806187062418 forward_v I I I I #
coedge $-1 $262 $263 $264 $265 reversed $97 $-1 #
coedge $-1 $159 $99 $266 $267 reversed $62 $-1 #
coedge $-1 $99 $158 $262 $268 reversed $62 $-1 #
coedge $-1 $264 $269 $99 $161 forward $270 $-1 #
edge $-1 $271 52.679287864483335 $272 55.912427020382154 $160 $273 forward 7 unknown #
loop $-1 $-1 $167 $100 #
plane-surface $-1 -1.2698665020765389 15.95072859595577 76.431166581586581 0.85716730853699208 0 0.51503806187062418 0.51503806187062418 0 -0.85716730853699208 forward_v I I I I #
loop $-1 $-1 $274 $64 #
coedge $-1 $165 $165 $166 $275 reversed $101 $-1 #
coedge $-1 $166 $166 $165 $275 forward $103 $-1 #
coedge $-1 $167 $167 $104 $168 forward $162 $-1 #
edge $-1 $276 0 $276 6.2831853071796004 $167 $277 forward 7 unknown #
loop $-1 $-1 $174 $105 #
plane-surface $-1 -1.2698665020765389 15.95072859595577 76.431166581586581 0.85716730853699208 0 0.51503806187062418 0.51503806187062418 0 -0.85716730853699208 forward_v I I I I #
loop $-1 $-1 $278 $67 #
coedge $-1 $172 $172 $173 $279 reversed $106 $-1 #
coedge $-1 $173 $173 $172 $279 forward $108 $-1 #
coedge $-1 $174 $174 $109 $175 forward $169 $-1 #
edge $-1 $280 0 $280 6.2831853071796004 $174 $281 forward 7 unknown #
face $-1 $282 $283 $38 $-1 $284 reversed single #
loop $-1 $-1 $285 $110 #
plane-surface $-1 -97.621665484509549 1.2598422034329921 66.963813017295777 0 -1 0 0.6560590369687036 0 -0.75470957328743171 forward_v I I I I #
coedge $-1 $286 $287 $288 $289 reversed $111 $-1 #
coedge $-1 $181 $113 $290 $291 reversed $71 $-1 #
coedge $-1 $113 $180 $286 $292 reversed $71 $-1 #
coedge $-1 $288 $293 $113 $183 forward $294 $-1 #
edge $-1 $295 6.5890852524021781 $296 11.246470675931803 $182 $297 forward 7 unknown #
loop $-1 $-1 $189 $114 #
plane-surface $-1 -42.221747489852604 -2.63729455478029 3.2334989542630908 -0.6560590369687036 0 0.75470957328743171 0.75470957328743171 0 0.6560590369687036 forward_v I I I I #
loop $-1 $-1 $298 $73 #
coedge $-1 $187 $187 $188 $299 reversed $115 $-1 #
coedge $-1 $188 $188 $187 $299 forward $117 $-1 #
coedge $-1 $189 $189 $118 $190 forward $184 $-1 #
edge $-1 $300 0 $300 6.2831853071796004 $189 $301 forward 7 unknown #
loop $-1 $-1 $196 $119 #
plane-surface $-1 -42.221747489852604 -2.63729455478029 3.2334989542630908 -0.6560590369687036 0 0.75470957328743171 0.75470957328743171 0 0.6560590369687036 forward_v I I I I #
loop $-1 $-1 $302 $76 #
coedge $-1 $194 $194 $195 $303 reversed $120 $-1 #
coedge $-1 $195 $195 $194 $303 forward $122 $-1 #
coedge $-1 $196 $196 $123 $197 forward $191 $-1 #
edge $-1 $304 0 $304 6.2831853071796004 $196 $305 forward 7 unknown #
face $-1 $306 $307 $41 $-1 $308 forward single #
loop $-1 $-1 $309 $124 #
plane-surface $-1 -97.621665484509549 13.116005571891886 66.963813017295777 0 -1 0 0.6560590369687036 0 -0.75470957328743171 forward_v I I I I #
coedge $-1 $310 $311 $312 $313 reversed $125 $-1 #
coedge $-1 $203 $127 $314 $315 reversed $80 $-1 #
coedge $-1 $127 $202 $310 $316 reversed $80 $-1 #
coedge $-1 $312 $317 $127 $205 forward $307 $-1 #
edge $-1 $318 6.5890852524021781 $319 11.246470675931803 $204 $320 forward 7 unknown #
loop $-1 $-1 $211 $128 #
plane-surface $-1 -42.221747489852604 9.2188688136786041 3.2334989542630908 -0.6560590369687036 0 0.75470957328743171 0.75470957328743171 0 0.6560590369687036 forward_v I I I I #
loop $-1 $-1 $321 $82 #
coedge $-1 $209 $209 $210 $322 reversed $129 $-1 #
coedge $-1 $210 $210 $209 $322 forward $131 $-1 #
coedge $-1 $211 $211 $132 $212 forward $206 $-1 #
edge $-1 $323 0 $323 6.2831853071796004 $211 $324 forward 7 unknown #
loop $-1 $-1 $218 $133 #
plane-surface $-1 -42.221747489852604 9.2188688136786041 3.2334989542630908 -0.6560590369687036 0 0.75470957328743171 0.75470957328743171 0 0.6560590369687036 forward_v I I I I #
loop $-1 $-1 $325 $85 #
coedge $-1 $216 $216 $217 $326 reversed $134 $-1 #
coedge $-1 $217 $217 $216 $326 forward $136 $-1 #
coedge $-1 $218 $218 $137 $219 forward $213 $-1 #
edge $-1 $327 0 $327 6.2831853071796004 $218 $328 forward 7 unknown #
face $-1 $329 $330 $33 $-1 $331 reversed single #
loop $-1 $-1 $332 $138 #
plane-surface $-1 -42.221747489852596 0 0 1 0 0 0 0 -1 forward_v I I I I #
coedge $-1 $333 $231 $334 $335 forward $139 $-1 #
coedge $-1 $336 $141 $333 $337 forward $89 $-1 #
coedge $-1 $141 $336 $338 $339 forward $89 $-1 #
coedge $-1 $234 $233 $141 $227 reversed $235 $-1 #
edge $-1 $340 -21.982832011669768 $341 21.982832011669768 $226 $342 forward 7 unknown #
coedge $-1 $143 $142 $343 $344 forward $56 $-1 #
coedge $-1 $345 $346 $142 $230 reversed $330 $-1 #
edge $-1 $237 -42.221747489852596 $347 42.221747489852596 $229 $348 forward 7 unknown #
coedge $-1 $223 $349 $143 $232 reversed $139 $-1 #
edge $-1 $350 -42.221747489852596 $236 42.221747489852596 $231 $351 forward 7 unknown #
coedge $-1 $226 $144 $349 $352 forward $235 $-1 #
coedge $-1 $144 $226 $345 $353 reversed $235 $-1 #
loop $-1 $-1 $233 $329 #
vertex $-1 $145 $354 #
vertex $-1 $145 $355 #
straight-curve $-1 42.221747489852596 0 7.2821024222745292 0 1 0 I I #
face $-1 $356 $357 $34 $-1 $358 reversed single #
loop $-1 $-1 $359 $146 #
plane-surface $-1 -42.221747489852596 0 0 1 0 0 0 0 -1 forward_v I I I I #
coedge $-1 $360 $248 $253 $361 reversed $147 $-1 #
coedge $-1 $362 $149 $363 $364 reversed $93 $-1 #
coedge $-1 $149 $362 $360 $365 forward $93 $-1 #
coedge $-1 $253 $252 $149 $246 forward $254 $-1 #
edge $-1 $366 -12.636809570559462 $367 -6.0552353116611481 $245 $368 forward 7 unknown #
coedge $-1 $151 $150 $359 $369 reversed $59 $-1 #
coedge $-1 $242 $370 $150 $249 reversed $147 $-1 #
edge $-1 $255 -42.221747489852596 $371 42.221747489852596 $248 $372 forward 7 unknown #
coedge $-1 $373 $374 $151 $251 forward $357 $-1 #
edge $-1 $256 -42.221747489852596 $375 42.221747489852596 $250 $376 forward 7 unknown #
coedge $-1 $245 $152 $374 $377 forward $254 $-1 #
coedge $-1 $152 $245 $242 $361 forward $254 $-1 #
loop $-1 $-1 $152 $356 #
vertex $-1 $153 $378 #
vertex $-1 $377 $379 #
straight-curve $-1 42.221747489852596 -9.3460224411103052 -0.27925775090164162 0 -1 0 I I #
face $-1 $-1 $270 $35 $-1 $380 reversed single #
loop $-1 $-1 $381 $154 #
plane-surface $-1 0 0 7.2821024222745292 0 0 1 1 0 0 forward_v I I I I #
coedge $-1 $382 $383 $384 $385 reversed $155 $-1 #
coedge $-1 $386 $157 $159 $268 forward $97 $-1 #
coedge $-1 $157 $386 $382 $387 forward $97 $-1 #
coedge $-1 $384 $160 $157 $265 forward $270 $-1 #
edge $-1 $272 4.5914680806388031 $388 11.359260515316967 $264 $389 forward 7 unknown #
coedge $-1 $390 $391 $158 $267 forward $259 $-1 #
edge $-1 $392 4.7229131556098807 $271 6.6655790832854152 $266 $393 forward 7 unknown #
edge $-1 $272 -84.443494979705179 $392 -80.671606897065715 $159 $394 forward 7 unknown #
coedge $-1 $160 $384 $390 $395 reversed $270 $-1 #
loop $-1 $-1 $384 $258 #
vertex $-1 $395 $396 #
vertex $-1 $161 $397 #
straight-curve $-1 42.221747489852596 12.566832378616688 59.961390286757862 0 0 -1 I I #
coedge $-1 $274 $274 $-1 $398 reversed $164 $-1 #
edge $-1 $399 0 $399 6.2831853071796004 $165 $400 forward 7 unknown #
vertex $-1 $168 $401 #
ellipse-curve $-1 41.250414526014829 14.500487359953301 5.6655328443250923 0.85716730853699208 0 0.51503806187062418 0.25751903093531209 0 -0.42858365426849604 1 I I #
coedge $-1 $278 $278 $-1 $402 reversed $171 $-1 #
edge $-1 $403 0 $403 6.2831853071796004 $172 $404 forward 7 unknown #
vertex $-1 $175 $405 #
ellipse-curve $-1 41.250414526014829 17.400969831958225 5.6655328443250923 0.85716730853699208 0 0.51503806187062418 0.25751903093531209 0 -0.42858365426849604 1 I I #
face $-1 $-1 $294 $38 $-1 $406 forward single #
loop $-1 $-1 $407 $176 #
plane-surface $-1 -42.221747489852596 0 0 1 0 0 0 0 -1 forward_v I I I I #
coedge $-1 $408 $409 $410 $411 reversed $177 $-1 #
coedge $-1 $412 $179 $181 $292 forward $111 $-1 #
coedge $-1 $179 $412 $408 $413 forward $111 $-1 #
coedge $-1 $410 $182 $179 $289 forward $294 $-1 #
edge $-1 $296 -5.2157840356034271 $414 2.5784894808231371 $288 $415 forward 7 unknown #
coedge $-1 $416 $417 $180 $291 forward $283 $-1 #
edge $-1 $418 -30.248407554384791 $295 -26.199804086373359 $290 $419 forward 7 unknown #
edge $-1 $296 -6.171096257918891 $418 -9.44141639987384e-015 $181 $420 forward 7 unknown #
coedge $-1 $182 $410 $416 $421 forward $294 $-1 #
loop $-1 $-1 $410 $282 #
vertex $-1 $291 $422 #
vertex $-1 $183 $423 #
straight-curve $-1 -48.810832742254775 -6.534431312993572 7.2821024222745301 1 0 0 I I #
coedge $-1 $298 $298 $-1 $424 reversed $186 $-1 #
edge $-1 $425 0 $425 6.2831853071796004 $187 $426 forward 7 unknown #
vertex $-1 $190 $427 #
ellipse-curve $-1 -39.893054778087787 -4.3074960225859833 5.2578006882688122 -0.6560590369687036 0 0.75470957328743171 0.37735478664371586 0 0.3280295184843518 1 I I #
coedge $-1 $302 $302 $-1 $428 reversed $193 $-1 #
edge $-1 $429 0 $429 6.2831853071796004 $194 $430 forward 7 unknown #
vertex $-1 $197 $431 #
ellipse-curve $-1 -39.893054778087787 -0.96709308697460017 5.2578006882688122 -0.6560590369687036 0 0.75470957328743171 0.37735478664371586 0 0.3280295184843518 1 I I #
face $-1 $-1 $432 $41 $-1 $433 reversed single #
loop $-1 $-1 $204 $198 #
plane-surface $-1 0 0 7.2821024222745292 0 0 1 1 0 0 forward_v I I I I #
coedge $-1 $434 $435 $436 $437 reversed $199 $-1 #
coedge $-1 $438 $201 $203 $316 forward $125 $-1 #
coedge $-1 $201 $438 $434 $439 forward $125 $-1 #
coedge $-1 $436 $204 $201 $313 forward $307 $-1 #
edge $-1 $319 0.71229764862601996 $440 8.5065711650525841 $312 $441 forward 7 unknown #
coedge $-1 $442 $443 $202 $315 forward $432 $-1 #
edge $-1 $444 -30.248407554384791 $318 -26.199804086373359 $314 $445 forward 7 unknown #
edge $-1 $319 -6.171096257918891 $444 -9.44141639987384e-015 $203 $446 forward 7 unknown #
coedge $-1 $204 $436 $442 $447 forward $307 $-1 #
vertex $-1 $205 $448 #
vertex $-1 $205 $449 #
straight-curve $-1 -48.810832742254775 5.321732055465322 7.2821024222745301 1 0 0 I I #
coedge $-1 $321 $321 $-1 $450 reversed $208 $-1 #
edge $-1 $451 0 $451 6.2831853071796004 $209 $452 forward 7 unknown #
vertex $-1 $212 $453 #
ellipse-curve $-1 -39.893054778087787 7.5486673458729108 5.2578006882688122 -0.6560590369687036 0 0.75470957328743171 0.37735478664371586 0 0.3280295184843518 1 I I #
coedge $-1 $325 $325 $-1 $454 reversed $215 $-1 #
edge $-1 $455 0 $455 6.2831853071796004 $216 $456 forward 7 unknown #
vertex $-1 $219 $457 #
ellipse-curve $-1 -39.893054778087787 10.889070281484297 5.2578006882688122 -0.6560590369687036 0 0.75470957328743171 0.37735478664371586 0 0.3280295184843518 1 I I #
face $-1 $-1 $235 $33 $-1 $458 reversed single #
loop $-1 $-1 $345 $220 #
plane-surface $-1 0 21.982832011669768 0 0 -1 0 0 0 -1 forward_v I I I I #
coedge $-1 $459 $343 $346 $460 forward $221 $-1 #
coedge $-1 $349 $223 $224 $337 reversed $139 $-1 #
coedge $-1 $343 $459 $223 $335 reversed $221 $-1 #
edge $-1 $350 -7.2821024222745292 $461 7.2821024222745292 $334 $462 forward 7 unknown #
coedge $-1 $225 $224 $459 $463 forward $89 $-1 #
edge $-1 $341 -42.221747489852596 $461 42.221747489852596 $333 $464 forward 7 unknown #
coedge $-1 $346 $345 $225 $339 reversed $330 $-1 #
edge $-1 $465 -42.221747489852596 $340 42.221747489852596 $338 $466 forward 7 unknown #
vertex $-1 $227 $467 #
vertex $-1 $352 $468 #
straight-curve $-1 42.221747489852596 0 -7.2821024222745292 0 -1 0 I I #
coedge $-1 $332 $334 $228 $344 reversed $221 $-1 #
edge $-1 $347 -21.982832011669768 $350 21.982832011669768 $343 $469 forward 7 unknown #
coedge $-1 $338 $229 $234 $353 forward $330 $-1 #
coedge $-1 $229 $338 $332 $460 reversed $330 $-1 #
vertex $-1 $230 $470 #
straight-curve $-1 0 21.982832011669768 7.2821024222745292 -1 0 0 I I #
coedge $-1 $231 $333 $233 $352 reversed $139 $-1 #
vertex $-1 $344 $471 #
straight-curve $-1 0 -21.982832011669768 7.2821024222745292 1 0 0 I I #
edge $-1 $236 -7.2821024222745292 $341 7.2821024222745292 $233 $472 forward 7 unknown #
edge $-1 $237 -7.2821024222745292 $340 7.2821024222745292 $234 $473 forward 7 unknown #
point $-1 42.221747489852596 -21.982832011669768 7.2821024222745292 #
point $-1 42.221747489852596 21.982832011669768 7.2821024222745292 #
face $-1 $-1 $254 $34 $-1 $474 reversed single #
loop $-1 $-1 $250 $239 #
plane-surface $-1 0 -21.982832011669768 0 0 1 0 0 0 1 forward_v I I I I #
coedge $-1 $475 $476 $247 $369 forward $240 $-1 #
coedge $-1 $370 $242 $244 $365 reversed $147 $-1 #
edge $-1 $367 -2.3896288754508208 $255 0.61037112454917919 $253 $477 forward 7 unknown #
coedge $-1 $244 $243 $478 $479 reversed $93 $-1 #
coedge $-1 $374 $373 $243 $364 forward $357 $-1 #
edge $-1 $480 -42.221747489852596 $366 42.221747489852596 $363 $481 forward 7 unknown #
edge $-1 $482 -42.221747489852596 $367 42.221747489852596 $360 $483 forward 7 unknown #
vertex $-1 $364 $484 #
vertex $-1 $246 $485 #
straight-curve $-1 42.221747489852596 -9.3460224411103052 -3.2792577509016416 0 1 0 I I #
edge $-1 $375 -12.636809570559462 $371 -6.0552353116611481 $359 $486 forward 7 unknown #
coedge $-1 $248 $360 $475 $487 reversed $147 $-1 #
vertex $-1 $369 $488 #
straight-curve $-1 0 -15.401257752771453 -0.27925775090164162 -1 0 0 I I #
coedge $-1 $363 $250 $476 $489 forward $357 $-1 #
coedge $-1 $250 $363 $252 $377 reversed $357 $-1 #
vertex $-1 $489 $490 #
straight-curve $-1 0 -21.982832011669768 -0.27925775090164162 -1 0 0 I I #
edge $-1 $256 0.27925775090164162 $366 3.2792577509016416 $252 $491 forward 7 unknown #
point $-1 42.221747489852596 -15.401257752771453 -0.27925775090164162 #
point $-1 42.221747489852596 -21.982832011669768 -0.27925775090164162 #
plane-surface $-1 42.221747489852596 0 0 -1 0 0 0 0 1 forward_v I I I I #
coedge $-1 $391 $390 $383 $492 forward $259 $-1 #
coedge $-1 $383 $261 $263 $387 reversed $155 $-1 #
coedge $-1 $261 $382 $381 $492 reversed $155 $-1 #
coedge $-1 $269 $264 $261 $385 forward $270 $-1 #
edge $-1 $388 -55.912427020382154 $493 -52.679287864483335 $384 $494 forward 7 unknown #
coedge $-1 $263 $262 $391 $495 reversed $97 $-1 #
edge $-1 $496 80.671606897065715 $388 84.443494979705179 $382 $497 forward 7 unknown #
vertex $-1 $265 $498 #
straight-curve $-1 42.221747489852589 7.9753642979778849 4.0489632663756865 0 1 0 I I #
coedge $-1 $381 $266 $269 $395 forward $259 $-1 #
coedge $-1 $266 $381 $386 $495 forward $259 $-1 #
vertex $-1 $267 $499 #
straight-curve $-1 35.556168406567181 12.566832378616688 7.2821024222745265 1 0 0 I I #
straight-curve $-1 -1.2698665020765389 12.566832378616688 76.431166581586581 -0.51503806187062418 0 0.85716730853699208 I I #
edge $-1 $271 12.566832378616688 $493 19.334624813294852 $269 $500 forward 7 unknown #
point $-1 42.221747489852596 12.566832378616688 7.2821024222745292 #
point $-1 42.221747489852596 12.566832378616688 4.0489632663757078 #
edge $-1 $501 1 $501 0 $274 $-1 forward 7 unknown #
vertex $-1 $275 $502 #
ellipse-curve $-1 40.279937479115212 14.500487359953301 5.0824114252660557 0.85716730853699208 0 0.51503806187062418 0.25751903093531209 0 -0.42858365426849604 1 I I #
point $-1 41.507933556950135 14.500487359953301 5.2369491900565937 #
edge $-1 $503 1 $503 0 $278 $-1 forward 7 unknown #
vertex $-1 $279 $504 #
ellipse-curve $-1 40.279937479115212 17.400969831958225 5.0824114252660557 0.85716730853699208 0 0.51503806187062418 0.25751903093531209 0 -0.42858365426849604 1 I I #
point $-1 41.507933556950135 17.400969831958225 5.2369491900565937 #
plane-surface $-1 0 0 7.2821024222745292 0 0 1 1 0 0 forward_v I I I I #
coedge $-1 $417 $416 $409 $505 forward $283 $-1 #
coedge $-1 $409 $285 $287 $413 reversed $177 $-1 #
coedge $-1 $285 $408 $407 $505 reversed $177 $-1 #
coedge $-1 $293 $288 $285 $411 forward $294 $-1 #
edge $-1 $414 -11.246470675931803 $506 -6.5890852524021781 $410 $507 forward 7 unknown #
coedge $-1 $287 $286 $417 $508 reversed $111 $-1 #
edge $-1 $509 9.44141639987384e-015 $414 6.171096257918891 $408 $510 forward 7 unknown #
vertex $-1 $289 $511 #
straight-curve $-1 -37.564362066322971 -1.318647277390145 7.282102422274531 0 1 0 I I #
coedge $-1 $407 $290 $293 $421 reversed $283 $-1 #
coedge $-1 $290 $407 $412 $508 forward $283 $-1 #
vertex $-1 $291 $512 #
straight-curve $-1 -42.221747489852596 -6.534431312993572 33.481906508647889 0 0 1 I I #
straight-curve $-1 -42.221747489852604 -6.534431312993572 3.2334989542630908 -0.75470957328743171 0 -0.6560590369687036 I I #
edge $-1 $506 -1.2598422034329921 $295 6.534431312993572 $416 $513 forward 7 unknown #
point $-1 -42.221747489852596 -6.534431312993572 7.2821024222745292 #
point $-1 -37.564362066322971 -6.534431312993572 7.2821024222745292 #
edge $-1 $514 1 $514 0 $298 $-1 forward 7 unknown #
vertex $-1 $299 $515 #
ellipse-curve $-1 -39.236995741119081 -4.3074960225859833 4.5030911149813786 -0.6560590369687036 0 0.75470957328743171 0.37735478664371586 0 0.3280295184843518 1 I I #
point $-1 -39.515699991444066 -4.3074960225859833 5.5858302067531618 #
edge $-1 $516 1 $516 0 $302 $-1 forward 7 unknown #
vertex $-1 $303 $517 #
ellipse-curve $-1 -39.236995741119081 -0.96709308697460017 4.5030911149813786 -0.6560590369687036 0 0.75470957328743171 0.37735478664371586 0 0.3280295184843518 1 I I #
point $-1 -39.515699991444066 -0.96709308697460017 5.5858302067531618 #
loop $-1 $-1 $314 $306 #
plane-surface $-1 -42.221747489852596 0 0 1 0 0 0 0 -1 forward_v I I I I #
coedge $-1 $435 $309 $311 $439 reversed $199 $-1 #
coedge $-1 $309 $434 $518 $519 reversed $199 $-1 #
coedge $-1 $317 $312 $309 $437 forward $307 $-1 #
edge $-1 $440 -11.246470675931803 $520 -6.5890852524021781 $436 $521 forward 7 unknown #
coedge $-1 $311 $310 $443 $522 reversed $125 $-1 #
edge $-1 $523 9.44141639987384e-015 $440 6.171096257918891 $434 $524 forward 7 unknown #
vertex $-1 $313 $525 #
straight-curve $-1 -37.564362066322971 4.6094344068393021 7.282102422274531 0 1 0 I I #
coedge $-1 $518 $314 $317 $447 reversed $432 $-1 #
coedge $-1 $314 $518 $438 $522 forward $432 $-1 #
vertex $-1 $315 $526 #
straight-curve $-1 -42.221747489852596 5.321732055465322 33.481906508647889 0 0 1 I I #
straight-curve $-1 -42.221747489852604 5.321732055465322 3.2334989542630908 -0.75470957328743171 0 -0.6560590369687036 I I #
edge $-1 $520 -13.116005571891886 $318 -5.321732055465322 $442 $527 forward 7 unknown #
point $-1 -42.221747489852596 5.321732055465322 7.2821024222745292 #
point $-1 -37.564362066322971 5.321732055465322 7.2821024222745292 #
edge $-1 $528 1 $528 0 $321 $-1 forward 7 unknown #
vertex $-1 $322 $529 #
ellipse-curve $-1 -39.236995741119081 7.5486673458729108 4.5030911149813786 -0.6560590369687036 0 0.75470957328743171 0.37735478664371586 0 0.3280295184843518 1 I I #
point $-1 -39.515699991444066 7.5486673458729108 5.5858302067531618 #
edge $-1 $530 1 $530 0 $325 $-1 forward 7 unknown #
vertex $-1 $326 $531 #
ellipse-curve $-1 -39.236995741119081 10.889070281484297 4.5030911149813786 -0.6560590369687036 0 0.75470957328743171 0.37735478664371586 0 0.3280295184843518 1 I I #
point $-1 -39.515699991444066 10.889070281484297 5.5858302067531618 #
plane-surface $-1 42.221747489852596 0 0 -1 0 0 0 0 1 forward_v I I I I #
coedge $-1 $334 $332 $336 $463 reversed $221 $-1 #
edge $-1 $347 -7.2821024222745292 $465 7.2821024222745292 $346 $532 forward 7 unknown #
vertex $-1 $463 $533 #
straight-curve $-1 -42.221747489852596 -21.982832011669768 0 0 0 -1 I I #
edge $-1 $461 -21.982832011669768 $465 21.982832011669768 $459 $534 forward 7 unknown #
straight-curve $-1 0 -21.982832011669768 -7.2821024222745292 -1 0 0 I I #
vertex $-1 $339 $535 #
straight-curve $-1 0 21.982832011669768 -7.2821024222745292 1 0 0 I I #
point $-1 42.221747489852596 21.982832011669768 -7.2821024222745292 #
point $-1 42.221747489852596 -21.982832011669768 -7.2821024222745292 #
straight-curve $-1 -42.221747489852596 0 7.2821024222745292 0 -1 0 I I #
point $-1 -42.221747489852596 21.982832011669768 7.2821024222745292 #
point $-1 -42.221747489852596 -21.982832011669768 7.2821024222745292 #
straight-curve $-1 42.221747489852596 -21.982832011669768 0 0 0 -1 I I #
straight-curve $-1 42.221747489852596 21.982832011669768 0 0 0 -1 I I #
plane-surface $-1 42.221747489852596 0 0 -1 0 0 0 0 1 forward_v I I I I #
coedge $-1 $478 $359 $370 $487 forward $240 $-1 #
coedge $-1 $359 $478 $373 $489 reversed $240 $-1 #
straight-curve $-1 42.221747489852596 -15.401257752771453 -0.88962887545082081 0 0 1 I I #
coedge $-1 $476 $475 $362 $479 forward $240 $-1 #
edge $-1 $482 6.0552353116611481 $480 12.636809570559462 $478 $536 forward 7 unknown #
vertex $-1 $364 $537 #
straight-curve $-1 0 -21.982832011669768 -3.2792577509016416 1 0 0 I I #
vertex $-1 $479 $538 #
straight-curve $-1 0 -15.401257752771453 -3.2792577509016416 1 0 0 I I #
point $-1 42.221747489852596 -21.982832011669768 -3.2792577509016416 #
point $-1 42.221747489852596 -15.401257752771453 -3.2792577509016416 #
straight-curve $-1 -42.221747489852596 -9.3460224411103052 -0.27925775090164162 0 1 0 I I #
edge $-1 $371 -0.61037112454917919 $482 2.3896288754508208 $475 $539 forward 7 unknown #
point $-1 -42.221747489852596 -15.401257752771453 -0.27925775090164162 #
edge $-1 $375 0.27925775090164162 $480 3.2792577509016416 $476 $540 forward 7 unknown #
point $-1 -42.221747489852596 -21.982832011669768 -0.27925775090164162 #
straight-curve $-1 42.221747489852596 -21.982832011669768 0 0 0 -1 I I #
edge $-1 $493 -6.6655790832854152 $496 -4.7229131556098807 $381 $541 forward 7 unknown #
vertex $-1 $492 $542 #
straight-curve $-1 42.221747489852596 19.334624813294852 59.961390286757862 0 0 1 I I #
edge $-1 $496 -11.359260515316967 $392 -4.5914680806388031 $391 $543 forward 7 unknown #
vertex $-1 $495 $544 #
straight-curve $-1 -1.2698665020765389 19.334624813294852 76.431166581586581 0.51503806187062418 0 -0.85716730853699208 I I #
point $-1 42.221747489852596 19.334624813294852 4.0489632663757078 #
point $-1 40.279081562177062 12.566832378616688 7.2821024222745336 #
straight-curve $-1 42.221747489852596 0 7.2821024222745292 0 1 0 I I #
vertex $-1 $398 $545 #
point $-1 40.537456510050525 14.500487359953301 4.6538277709975597 #
vertex $-1 $402 $546 #
point $-1 40.537456510050525 17.400969831958225 4.6538277709975597 #
edge $-1 $506 26.199804086373359 $509 30.248407554384791 $407 $547 forward 7 unknown #
vertex $-1 $421 $548 #
straight-curve $-1 -48.810832742254775 1.2598422034329921 7.2821024222745301 -1 0 0 I I #
edge $-1 $509 -2.5784894808231371 $418 5.2157840356034271 $417 $549 forward 7 unknown #
vertex $-1 $508 $550 #
straight-curve $-1 -42.221747489852604 1.2598422034329921 3.2334989542630908 0.75470957328743171 0 0.6560590369687036 I I #
point $-1 -37.564362066322971 1.2598422034329921 7.2821024222745292 #
point $-1 -42.221747489852596 -6.534431312993572 3.233498954263097 #
straight-curve $-1 -42.221747489852596 0 7.2821024222745292 0 -1 0 I I #
vertex $-1 $424 $551 #
point $-1 -38.85964095447536 -4.3074960225859833 4.83112063346573 #
vertex $-1 $428 $552 #
point $-1 -38.85964095447536 -0.96709308697460017 4.83112063346573 #
coedge $-1 $443 $442 $435 $519 forward $432 $-1 #
edge $-1 $520 26.199804086373359 $523 30.248407554384791 $518 $553 forward 7 unknown #
vertex $-1 $447 $554 #
straight-curve $-1 -48.810832742254775 13.116005571891886 7.2821024222745301 -1 0 0 I I #
edge $-1 $523 -8.5065711650525841 $444 -0.71229764862601996 $443 $555 forward 7 unknown #
vertex $-1 $522 $556 #
straight-curve $-1 -42.221747489852604 13.116005571891886 3.2334989542630908 0.75470957328743171 0 0.6560590369687036 I I #
point $-1 -37.564362066322971 13.116005571891886 7.2821024222745292 #
point $-1 -42.221747489852596 5.321732055465322 3.233498954263097 #
straight-curve $-1 -42.221747489852596 0 7.2821024222745292 0 -1 0 I I #
vertex $-1 $450 $557 #
point $-1 -38.85964095447536 7.5486673458729108 4.83112063346573 #
vertex $-1 $454 $558 #
point $-1 -38.85964095447536 10.889070281484297 4.83112063346573 #
straight-curve $-1 -42.221747489852596 21.982832011669768 0 0 0 -1 I I #
point $-1 -42.221747489852596 -21.982832011669768 -7.2821024222745292 #
straight-curve $-1 -42.221747489852596 0 -7.2821024222745292 0 1 0 I I #
point $-1 -42.221747489852596 21.982832011669768 -7.2821024222745292 #
straight-curve $-1 -42.221747489852596 -9.3460224411103052 -3.2792577509016416 0 -1 0 I I #
point $-1 -42.221747489852596 -21.982832011669768 -3.2792577509016416 #
point $-1 -42.221747489852596 -15.401257752771453 -3.2792577509016416 #
straight-curve $-1 -42.221747489852596 -15.401257752771453 -0.88962887545082081 0 0 -1 I I #
straight-curve $-1 -42.221747489852596 -21.982832011669768 0 0 0 -1 I I #
straight-curve $-1 35.556168406567181 19.334624813294852 7.2821024222745265 -1 0 0 I I #
point $-1 42.221747489852596 19.334624813294852 7.2821024222745292 #
straight-curve $-1 40.279081562177055 7.9753642979778849 7.2821024222745265 0 -1 0 I I #
point $-1 40.279081562177062 19.334624813294852 7.2821024222745336 #
point $-1 39.851353824846719 14.500487359953301 4.8248923943307442 #
point $-1 39.851353824846719 17.400969831958225 4.8248923943307442 #
straight-curve $-1 -42.221747489852596 1.2598422034329921 33.481906508647889 0 0 -1 I I #
point $-1 -42.221747489852596 1.2598422034329921 7.2821024222745292 #
straight-curve $-1 -42.221747489852596 -1.318647277390145 3.233498954263097 0 -1 0 I I #
point $-1 -42.221747489852596 1.2598422034329921 3.233498954263097 #
point $-1 -38.908966222634724 -4.3074960225859833 4.1257363283376627 #
point $-1 -38.908966222634724 -0.96709308697460017 4.1257363283376627 #
straight-curve $-1 -42.221747489852596 13.116005571891886 33.481906508647889 0 0 -1 I I #
point $-1 -42.221747489852596 13.116005571891886 7.2821024222745292 #
straight-curve $-1 -42.221747489852596 4.6094344068393021 3.233498954263097 0 -1 0 I I #
point $-1 -42.221747489852596 13.116005571891886 3.233498954263097 #
point $-1 -38.908966222634724 7.5486673458729108 4.1257363283376627 #
point $-1 -38.908966222634724 10.889070281484297 4.1257363283376627 #
End-of-ACIS-data 