500 0 6 0           
7 Unknown 11 ACIS 5.0 NT 24 Thu Mar 25 18:23:21 1999 
-1 9.9999999999999995e-007 1e-010 
body $-1 $6 $-1 $7 #
body $-1 $8 $-1 $9 #
body $-1 $10 $-1 $11 #
body $-1 $12 $-1 $13 #
body $-1 $14 $-1 $15 #
body $-1 $16 $-1 $17 #
lump $-1 $-1 $18 $0 #
transform $-1 1 0 0 0 1 0 0 0 1 60.69643238624225 26.121305305271576 12.075812399511227 1 rotate no_reflect no_shear #
lump $-1 $-1 $19 $1 #
transform $-1 1 0 0 0 1 0 0 0 1 60.69643238624225 26.121305305271576 12.075812399511227 1 rotate no_reflect no_shear #
lump $-1 $-1 $20 $2 #
transform $-1 1 0 0 0 1 0 0 0 1 60.69643238624225 26.121305305271576 12.075812399511227 1 rotate no_reflect no_shear #
lump $-1 $-1 $21 $3 #
transform $-1 1 0 0 0 1 0 0 0 1 60.69643238624225 26.121305305271576 12.075812399511227 1 rotate no_reflect no_shear #
lump $-1 $-1 $22 $4 #
transform $-1 1 0 0 0 1 0 0 0 1 60.69643238624225 26.121305305271576 12.075812399511227 1 rotate no_reflect no_shear #
lump $-1 $-1 $23 $5 #
transform $-1 1 0 0 0 1 0 0 0 1 60.69643238624225 26.121305305271576 12.075812399511227 1 rotate no_reflect no_shear #
shell $-1 $-1 $-1 $24 $-1 $6 #
shell $-1 $-1 $-1 $25 $-1 $8 #
shell $-1 $-1 $-1 $26 $-1 $10 #
shell $-1 $-1 $-1 $27 $-1 $12 #
shell $-1 $-1 $-1 $28 $-1 $14 #
shell $-1 $-1 $-1 $29 $-1 $16 #
face $-1 $30 $31 $18 $-1 $32 forward single #
face $-1 $33 $34 $19 $-1 $35 reversed single #
face $-1 $36 $37 $20 $-1 $38 reversed single #
face $-1 $39 $40 $21 $-1 $41 reversed single #
face $-1 $42 $43 $22 $-1 $44 forward single #
face $-1 $45 $46 $23 $-1 $47 forward single #
face $-1 $48 $49 $18 $-1 $50 reversed single #
loop $-1 $-1 $51 $24 #
plane-surface $-1 0 0 12.075812399511227 0 0 1 1 0 0 forward_v I I I I #
face $-1 $52 $53 $19 $-1 $54 reversed single #
loop $-1 $-1 $55 $25 #
plane-surface $-1 -55.759033036516378 0 7.7706509477881429 0 0 1 1 0 0 forward_v I I I I #
face $-1 $56 $57 $20 $-1 $58 reversed single #
loop $-1 $-1 $59 $26 #
plane-surface $-1 55.759033036516385 0 7.7706509477881429 0 0 1 1 0 0 forward_v I I I I #
face $-1 $60 $61 $21 $-1 $62 reversed single #
loop $-1 $-1 $63 $27 #
plane-surface $-1 -0.27435553602154528 -131.2506109753902 62.383517564457044 -1 0 0 0 -0.86602541151947299 0.49999998660252726 forward_v I I I I #
face $-1 $64 $65 $22 $-1 $66 forward single #
loop $-1 $67 $68 $28 #
cone-surface $-1 -21.132431955997205 -21.83295402192455 6.1370230647817223 0 0.86602541151947299 -0.49999998660252726 1.5 0 0 1 I I 0 1 1.5 forward I I I I #
face $-1 $69 $70 $23 $-1 $71 forward single #
loop $-1 $72 $73 $29 #
cone-surface $-1 -8.6175861040118065 -21.83295402192455 6.1370230647817223 0 0.86602541151947299 -0.49999998660252726 1.5 0 0 1 I I 0 1 1.5 forward I I I I #
face $-1 $74 $75 $18 $-1 $76 reversed single #
loop $-1 $-1 $77 $30 #
plane-surface $-1 0 0 -12.075812399511227 0 0 1 1 0 0 forward_v I I I I #
coedge $-1 $78 $79 $80 $81 forward $31 $-1 #
face $-1 $82 $83 $19 $-1 $84 reversed single #
loop $-1 $-1 $85 $33 #
plane-surface $-1 -50.821633686790506 0 9.9232316736496831 -1 0 0 0 0 1 forward_v I I I I #
coedge $-1 $86 $87 $88 $89 forward $34 $-1 #
face $-1 $90 $91 $20 $-1 $92 forward single #
loop $-1 $-1 $93 $36 #
plane-surface $-1 50.821633686790513 0 9.9232316736496831 1 0 0 0 0 -1 forward_v I I I I #
coedge $-1 $94 $95 $96 $97 reversed $37 $-1 #
face $-1 $98 $99 $21 $-1 $100 reversed single #
loop $-1 $-1 $101 $39 #
plane-surface $-1 -14.875009030004506 -26.121305305271562 1.687086804572381 0 -0.86602541151947299 0.49999998660252726 1 0 0 forward_v I I I I #
coedge $-1 $102 $103 $104 $105 reversed $40 $-1 #
face $-1 $-1 $106 $22 $-1 $107 forward single #
loop $-1 $108 $109 $42 #
cone-surface $-1 -21.132431955997205 -19.894050332182605 5.0175965375697498 0 0.86602541151947299 -0.49999998660252726 0.75 0 0 1 I I -0.70710678118654757 0.70710678118654757 0.75 forward I I I I #
loop $-1 $-1 $110 $28 #
coedge $-1 $68 $68 $111 $112 reversed $43 $-1 #
face $-1 $-1 $113 $23 $-1 $114 forward single #
loop $-1 $115 $116 $45 #
cone-surface $-1 -8.6175861040118065 -19.894050332182605 5.0175965375697498 0 0.86602541151947299 -0.49999998660252726 0.75 0 0 1 I I -0.70710678118654757 0.70710678118654757 0.75 forward I I I I #
loop $-1 $-1 $117 $29 #
coedge $-1 $73 $73 $118 $119 reversed $46 $-1 #
face $-1 $120 $121 $18 $-1 $122 reversed single #
loop $-1 $-1 $123 $48 #
plane-surface $-1 0 -26.121305305271576 0 0 1 0 0 0 1 forward_v I I I I #
coedge $-1 $124 $125 $126 $127 forward $49 $-1 #
coedge $-1 $128 $51 $129 $130 forward $31 $-1 #
coedge $-1 $51 $128 $131 $132 forward $31 $-1 #
coedge $-1 $133 $134 $51 $81 reversed $135 $-1 #
edge $-1 $136 -26.121305305271576 $137 26.121305305271576 $80 $138 forward 7 unknown #
face $-1 $139 $140 $19 $-1 $141 reversed single #
loop $-1 $-1 $142 $52 #
plane-surface $-1 0 26.121305305271576 0 0 -1 0 0 0 -1 forward_v I I I I #
coedge $-1 $88 $143 $144 $145 reversed $53 $-1 #
coedge $-1 $146 $55 $147 $148 reversed $34 $-1 #
coedge $-1 $55 $146 $149 $150 reversed $34 $-1 #
coedge $-1 $151 $85 $55 $89 reversed $53 $-1 #
edge $-1 $152 -26.121305305271576 $153 26.121305305271576 $88 $154 forward 7 unknown #
face $-1 $155 $156 $20 $-1 $157 reversed single #
loop $-1 $-1 $158 $56 #
plane-surface $-1 0 0 12.075812399511227 0 0 1 1 0 0 forward_v I I I I #
coedge $-1 $159 $160 $161 $162 reversed $57 $-1 #
coedge $-1 $163 $59 $164 $165 reversed $37 $-1 #
coedge $-1 $59 $163 $166 $167 reversed $37 $-1 #
coedge $-1 $168 $169 $59 $97 forward $170 $-1 #
edge $-1 $171 -26.121305305271576 $172 26.121305305271576 $96 $173 forward 7 unknown #
face $-1 $174 $175 $21 $-1 $176 forward single #
loop $-1 $-1 $177 $60 #
plane-surface $-1 -29.475662523987467 -131.2506109753902 62.383517564457044 1 0 0 0 0.86602541151947299 -0.49999998660252726 forward_v I I I I #
coedge $-1 $178 $179 $180 $181 reversed $61 $-1 #
coedge $-1 $103 $63 $182 $183 reversed $40 $-1 #
coedge $-1 $63 $102 $178 $184 reversed $40 $-1 #
coedge $-1 $180 $185 $63 $105 forward $175 $-1 #
edge $-1 $186 39.504000182423525 $187 45.501933486912904 $104 $188 forward 7 unknown #
loop $-1 $-1 $111 $64 #
plane-surface $-1 -14.875009030004506 -26.121305305271562 1.687086804572381 0 -0.86602541151947299 0.49999998660252726 1 0 0 forward_v I I I I #
loop $-1 $-1 $189 $42 #
coedge $-1 $109 $109 $110 $190 reversed $65 $-1 #
coedge $-1 $110 $110 $109 $190 forward $67 $-1 #
coedge $-1 $111 $111 $68 $112 forward $106 $-1 #
edge $-1 $191 -3.1731550527444483e-016 $191 6.2831853071796004 $111 $192 forward 7 unknown #
loop $-1 $-1 $118 $69 #
plane-surface $-1 -14.875009030004506 -26.121305305271562 1.687086804572381 0 -0.86602541151947299 0.49999998660252726 1 0 0 forward_v I I I I #
loop $-1 $-1 $193 $45 #
coedge $-1 $116 $116 $117 $194 reversed $70 $-1 #
coedge $-1 $117 $117 $116 $194 forward $72 $-1 #
coedge $-1 $118 $118 $73 $119 forward $113 $-1 #
edge $-1 $195 -3.1731550527444483e-016 $195 6.2831853071796004 $118 $196 forward 7 unknown #
face $-1 $197 $198 $18 $-1 $199 reversed single #
loop $-1 $-1 $200 $74 #
plane-surface $-1 -60.69643238624225 0 0 1 0 0 0 0 -1 forward_v I I I I #
coedge $-1 $201 $131 $202 $203 forward $75 $-1 #
coedge $-1 $204 $77 $201 $205 forward $49 $-1 #
coedge $-1 $77 $204 $206 $207 forward $49 $-1 #
coedge $-1 $134 $133 $77 $127 reversed $135 $-1 #
edge $-1 $208 -26.121305305271576 $209 26.121305305271576 $126 $210 forward 7 unknown #
coedge $-1 $79 $78 $211 $212 forward $31 $-1 #
coedge $-1 $213 $214 $78 $130 reversed $198 $-1 #
edge $-1 $137 -60.69643238624225 $215 60.69643238624225 $129 $216 forward 7 unknown #
coedge $-1 $123 $217 $79 $132 reversed $75 $-1 #
edge $-1 $218 -60.69643238624225 $136 60.69643238624225 $131 $219 forward 7 unknown #
coedge $-1 $126 $80 $217 $220 forward $135 $-1 #
coedge $-1 $80 $126 $213 $221 reversed $135 $-1 #
loop $-1 $-1 $133 $197 #
vertex $-1 $81 $222 #
vertex $-1 $81 $223 #
straight-curve $-1 60.69643238624225 0 12.075812399511227 0 1 0 I I #
face $-1 $224 $225 $19 $-1 $226 forward single #
loop $-1 $-1 $227 $82 #
plane-surface $-1 -60.69643238624225 0 0 1 0 0 0 0 -1 forward_v I I I I #
coedge $-1 $149 $228 $151 $229 forward $83 $-1 #
coedge $-1 $85 $151 $230 $231 reversed $53 $-1 #
coedge $-1 $232 $147 $85 $145 forward $233 $-1 #
edge $-1 $153 2.8090351109633014 $234 7.1141965626863817 $144 $235 forward 7 unknown #
coedge $-1 $87 $86 $227 $236 reversed $34 $-1 #
coedge $-1 $144 $237 $86 $148 forward $233 $-1 #
edge $-1 $238 -32.816915867984065 $153 -22.942117168532317 $147 $239 forward 7 unknown #
coedge $-1 $240 $142 $87 $150 forward $83 $-1 #
edge $-1 $152 22.942117168532317 $241 32.816915867984065 $149 $242 forward 7 unknown #
coedge $-1 $143 $88 $142 $229 reversed $53 $-1 #
vertex $-1 $150 $243 #
vertex $-1 $148 $244 #
straight-curve $-1 -50.821633686790506 0 7.7706509477881429 0 -1 0 I I #
face $-1 $245 $246 $20 $-1 $247 reversed single #
loop $-1 $-1 $248 $90 #
plane-surface $-1 0 -26.121305305271576 0 0 1 0 0 0 1 forward_v I I I I #
coedge $-1 $249 $250 $160 $251 forward $91 $-1 #
coedge $-1 $252 $93 $163 $253 reversed $57 $-1 #
coedge $-1 $93 $252 $158 $251 reversed $57 $-1 #
coedge $-1 $254 $166 $93 $162 forward $246 $-1 #
edge $-1 $255 2.8090351109633014 $256 7.1141965626863817 $161 $257 forward 7 unknown #
coedge $-1 $95 $94 $159 $253 forward $37 $-1 #
coedge $-1 $258 $248 $94 $165 forward $156 $-1 #
edge $-1 $259 22.94211716853232 $171 32.816915867984065 $164 $260 forward 7 unknown #
coedge $-1 $161 $261 $95 $167 forward $246 $-1 #
edge $-1 $172 -32.816915867984065 $255 -22.94211716853232 $166 $262 forward 7 unknown #
coedge $-1 $263 $96 $261 $264 reversed $170 $-1 #
coedge $-1 $96 $263 $258 $265 forward $170 $-1 #
loop $-1 $-1 $96 $245 #
vertex $-1 $165 $266 #
vertex $-1 $97 $267 #
straight-curve $-1 60.69643238624225 0 7.7706509477881429 0 1 0 I I #
face $-1 $-1 $268 $21 $-1 $269 reversed single #
loop $-1 $-1 $104 $98 #
plane-surface $-1 0 0 12.075812399511227 0 0 1 1 0 0 forward_v I I I I #
coedge $-1 $270 $271 $272 $273 reversed $99 $-1 #
coedge $-1 $274 $101 $103 $184 forward $61 $-1 #
coedge $-1 $101 $274 $270 $275 forward $61 $-1 #
coedge $-1 $272 $104 $101 $181 forward $175 $-1 #
edge $-1 $187 -7.1631489789807077 $276 22.038158008985214 $180 $277 forward 7 unknown #
coedge $-1 $278 $279 $102 $183 forward $268 $-1 #
edge $-1 $280 -29.504671977656166 $186 -19.115946382717297 $182 $281 forward 7 unknown #
edge $-1 $187 -11.995866930407329 $280 2.8450313176714033e-014 $103 $282 forward 7 unknown #
coedge $-1 $104 $272 $278 $283 forward $175 $-1 #
vertex $-1 $183 $284 #
vertex $-1 $105 $285 #
straight-curve $-1 -0.27435553602154528 -65.625305487695101 12.075812399511229 0 1 0 I I #
coedge $-1 $189 $189 $-1 $286 reversed $108 $-1 #
edge $-1 $287 0 $287 6.2831853071796004 $109 $288 forward 7 unknown #
vertex $-1 $112 $289 #
ellipse-curve $-1 -21.132431955997205 -23.122338653026883 6.8814496020417959 0 -0.86602541151947299 0.49999998660252726 1.5 0 0 1 I I #
coedge $-1 $193 $193 $-1 $290 reversed $115 $-1 #
edge $-1 $291 0 $291 6.2831853071796004 $116 $292 forward 7 unknown #
vertex $-1 $119 $293 #
ellipse-curve $-1 -8.6175861040118065 -23.122338653026883 6.8814496020417959 0 -0.86602541151947299 0.49999998660252726 1.5 0 0 1 I I #
face $-1 $-1 $135 $18 $-1 $294 reversed single #
loop $-1 $-1 $213 $120 #
plane-surface $-1 0 26.121305305271576 0 0 -1 0 0 0 -1 forward_v I I I I #
coedge $-1 $295 $211 $214 $296 forward $121 $-1 #
coedge $-1 $217 $123 $124 $205 reversed $75 $-1 #
coedge $-1 $211 $295 $123 $203 reversed $121 $-1 #
edge $-1 $218 -12.075812399511227 $297 12.075812399511227 $202 $298 forward 7 unknown #
coedge $-1 $125 $124 $295 $299 forward $49 $-1 #
edge $-1 $209 -60.69643238624225 $297 60.69643238624225 $201 $300 forward 7 unknown #
coedge $-1 $214 $213 $125 $207 reversed $198 $-1 #
edge $-1 $301 -60.69643238624225 $208 60.69643238624225 $206 $302 forward 7 unknown #
vertex $-1 $127 $303 #
vertex $-1 $220 $304 #
straight-curve $-1 60.69643238624225 0 -12.075812399511227 0 -1 0 I I #
coedge $-1 $200 $202 $128 $212 reversed $121 $-1 #
edge $-1 $215 -26.121305305271576 $218 26.121305305271576 $211 $305 forward 7 unknown #
coedge $-1 $206 $129 $134 $221 forward $198 $-1 #
coedge $-1 $129 $206 $200 $296 reversed $198 $-1 #
vertex $-1 $130 $306 #
straight-curve $-1 0 26.121305305271576 12.075812399511227 -1 0 0 I I #
coedge $-1 $131 $201 $133 $220 reversed $75 $-1 #
vertex $-1 $212 $307 #
straight-curve $-1 0 -26.121305305271576 12.075812399511227 1 0 0 I I #
edge $-1 $136 -12.075812399511227 $209 12.075812399511227 $133 $308 forward 7 unknown #
edge $-1 $137 -12.075812399511227 $208 12.075812399511227 $134 $309 forward 7 unknown #
point $-1 60.69643238624225 -26.121305305271576 12.075812399511227 #
point $-1 60.69643238624225 26.121305305271576 12.075812399511227 #
face $-1 $-1 $233 $19 $-1 $310 reversed single #
loop $-1 $-1 $230 $139 #
plane-surface $-1 0 0 12.075812399511227 0 0 1 1 0 0 forward_v I I I I #
coedge $-1 $311 $312 $146 $236 forward $140 $-1 #
coedge $-1 $142 $240 $313 $314 reversed $83 $-1 #
edge $-1 $315 -7.1141965626863817 $152 -2.8090351109633014 $142 $316 forward 7 unknown #
coedge $-1 $313 $317 $143 $231 forward $225 $-1 #
edge $-1 $234 -26.121305305271576 $315 26.121305305271576 $230 $318 forward 7 unknown #
coedge $-1 $237 $144 $317 $319 reversed $233 $-1 #
loop $-1 $-1 $144 $224 #
vertex $-1 $145 $320 #
straight-curve $-1 -50.821633686790506 -26.121305305271576 4.9616158368248415 0 0 1 I I #
edge $-1 $241 -26.121305305271576 $238 26.121305305271576 $227 $321 forward 7 unknown #
coedge $-1 $147 $232 $311 $322 forward $233 $-1 #
vertex $-1 $236 $323 #
straight-curve $-1 -27.879516518258189 -26.121305305271576 7.7706509477881429 1 0 0 I I #
coedge $-1 $228 $149 $312 $324 reversed $83 $-1 #
vertex $-1 $236 $325 #
straight-curve $-1 -27.879516518258189 26.121305305271576 7.7706509477881429 -1 0 0 I I #
point $-1 -50.821633686790506 26.121305305271576 7.7706509477881429 #
point $-1 -50.821633686790506 -26.121305305271576 7.7706509477881429 #
face $-1 $-1 $170 $20 $-1 $326 reversed single #
loop $-1 $-1 $161 $155 #
plane-surface $-1 0 26.121305305271576 0 0 -1 0 0 0 -1 forward_v I I I I #
coedge $-1 $164 $327 $252 $328 forward $156 $-1 #
coedge $-1 $329 $158 $327 $330 forward $91 $-1 #
coedge $-1 $158 $329 $254 $331 forward $91 $-1 #
edge $-1 $256 -26.121305305271576 $332 26.121305305271576 $158 $333 forward 7 unknown #
coedge $-1 $160 $159 $248 $328 reversed $57 $-1 #
edge $-1 $259 -26.121305305271576 $255 26.121305305271576 $159 $334 forward 7 unknown #
coedge $-1 $261 $161 $250 $331 reversed $246 $-1 #
vertex $-1 $167 $335 #
vertex $-1 $162 $336 #
straight-curve $-1 50.821633686790513 26.121305305271576 4.9616158368248415 0 0 1 I I #
coedge $-1 $327 $164 $169 $265 reversed $156 $-1 #
vertex $-1 $165 $337 #
straight-curve $-1 27.879516518258193 -26.121305305271576 7.7706509477881429 1 0 0 I I #
coedge $-1 $166 $254 $168 $264 forward $246 $-1 #
straight-curve $-1 27.879516518258193 26.121305305271576 7.7706509477881429 -1 0 0 I I #
coedge $-1 $169 $168 $329 $338 reversed $170 $-1 #
edge $-1 $339 -12.075812399511227 $172 -7.7706509477881429 $168 $340 forward 7 unknown #
edge $-1 $341 -12.075812399511227 $171 -7.7706509477881429 $169 $342 forward 7 unknown #
point $-1 60.696432386242257 -26.121305305271576 7.7706509477881429 #
point $-1 60.696432386242257 26.121305305271576 7.7706509477881429 #
loop $-1 $-1 $182 $174 #
plane-surface $-1 0 -26.121305305271576 0 0 1 0 0 0 1 forward_v I I I I #
coedge $-1 $271 $177 $179 $275 reversed $99 $-1 #
coedge $-1 $177 $270 $343 $344 reversed $99 $-1 #
coedge $-1 $185 $180 $177 $273 forward $175 $-1 #
edge $-1 $276 -45.501933486912904 $345 -39.504000182423525 $272 $346 forward 7 unknown #
coedge $-1 $179 $178 $279 $347 reversed $61 $-1 #
edge $-1 $348 -2.8450313176714033e-014 $276 11.995866930407329 $270 $349 forward 7 unknown #
vertex $-1 $181 $350 #
straight-curve $-1 -7.437504515002253 -20.123372000782201 12.075812399511227 -1 0 0 I I #
coedge $-1 $343 $182 $185 $283 reversed $268 $-1 #
coedge $-1 $182 $343 $274 $347 forward $268 $-1 #
vertex $-1 $183 $351 #
straight-curve $-1 -0.27435553602154528 -26.121305305271576 31.191758782228522 0 0 1 I I #
straight-curve $-1 -0.27435553602154528 -26.121305305271562 1.687086804572381 0 -0.49999998660252726 -0.86602541151947299 I I #
edge $-1 $345 -29.475662523987467 $186 -0.27435553602154528 $278 $352 forward 7 unknown #
point $-1 -0.27435553602154528 -26.121305305271576 12.075812399511227 #
point $-1 -0.27435553602154528 -20.123372000782197 12.075812399511227 #
edge $-1 $353 1 $353 0 $189 $-1 forward 7 unknown #
vertex $-1 $190 $354 #
ellipse-curve $-1 -21.132431955997205 -20.54356939082221 5.3925965275216452 0 -0.86602541151947299 0.49999998660252726 1.5 0 0 1 I I #
point $-1 -19.632431955997205 -23.12233865302689 6.8814496020417995 #
edge $-1 $355 1 $355 0 $193 $-1 forward 7 unknown #
vertex $-1 $194 $356 #
ellipse-curve $-1 -8.6175861040118065 -20.54356939082221 5.3925965275216452 0 -0.86602541151947299 0.49999998660252726 1.5 0 0 1 I I #
point $-1 -7.1175861040118065 -23.12233865302689 6.8814496020417995 #
plane-surface $-1 60.69643238624225 0 0 -1 0 0 0 0 1 forward_v I I I I #
coedge $-1 $202 $200 $204 $299 reversed $121 $-1 #
edge $-1 $215 -12.075812399511227 $301 12.075812399511227 $214 $357 forward 7 unknown #
vertex $-1 $299 $358 #
straight-curve $-1 -60.69643238624225 -26.121305305271576 0 0 0 -1 I I #
edge $-1 $297 -26.121305305271576 $301 26.121305305271576 $295 $359 forward 7 unknown #
straight-curve $-1 0 -26.121305305271576 -12.075812399511227 -1 0 0 I I #
vertex $-1 $207 $360 #
straight-curve $-1 0 26.121305305271576 -12.075812399511227 1 0 0 I I #
point $-1 60.69643238624225 26.121305305271576 -12.075812399511227 #
point $-1 60.69643238624225 -26.121305305271576 -12.075812399511227 #
straight-curve $-1 -60.69643238624225 0 12.075812399511227 0 -1 0 I I #
point $-1 -60.69643238624225 26.121305305271576 12.075812399511227 #
point $-1 -60.69643238624225 -26.121305305271576 12.075812399511227 #
straight-curve $-1 60.69643238624225 -26.121305305271576 0 0 0 -1 I I #
straight-curve $-1 60.69643238624225 26.121305305271576 0 0 0 -1 I I #
plane-surface $-1 0 -26.121305305271576 0 0 1 0 0 0 1 forward_v I I I I #
coedge $-1 $361 $227 $237 $322 reversed $140 $-1 #
coedge $-1 $227 $361 $240 $324 forward $140 $-1 #
coedge $-1 $362 $230 $228 $314 forward $225 $-1 #
edge $-1 $315 50.821633686790506 $363 60.69643238624225 $228 $364 forward 7 unknown #
vertex $-1 $314 $365 #
straight-curve $-1 -50.821633686790506 26.121305305271576 4.9616158368248415 0 0 -1 I I #
coedge $-1 $230 $362 $232 $319 forward $225 $-1 #
straight-curve $-1 -50.821633686790506 0 12.075812399511227 0 1 0 I I #
edge $-1 $366 -60.69643238624225 $234 -50.821633686790506 $232 $367 forward 7 unknown #
point $-1 -50.821633686790506 -26.121305305271576 12.075812399511223 #
straight-curve $-1 -60.69643238624225 0 7.7706509477881429 0 -1 0 I I #
edge $-1 $366 -12.075812399511227 $238 -7.7706509477881429 $311 $368 forward 7 unknown #
point $-1 -60.69643238624225 -26.121305305271576 7.7706509477881429 #
edge $-1 $363 -12.075812399511227 $241 -7.7706509477881429 $240 $369 forward 7 unknown #
point $-1 -60.69643238624225 26.121305305271576 7.7706509477881429 #
plane-surface $-1 60.69643238624225 0 0 -1 0 0 0 0 1 forward_v I I I I #
coedge $-1 $248 $258 $249 $330 reversed $156 $-1 #
edge $-1 $332 -7.1141965626863817 $259 -2.8090351109633014 $248 $370 forward 7 unknown #
coedge $-1 $250 $249 $263 $338 forward $91 $-1 #
edge $-1 $332 50.821633686790513 $341 60.69643238624225 $327 $371 forward 7 unknown #
edge $-1 $339 -60.69643238624225 $256 -50.821633686790513 $254 $372 forward 7 unknown #
vertex $-1 $330 $373 #
straight-curve $-1 50.821633686790513 0 12.075812399511227 0 -1 0 I I #
straight-curve $-1 50.821633686790513 0 7.7706509477881429 0 1 0 I I #
point $-1 50.821633686790513 26.121305305271576 7.7706509477881429 #
point $-1 50.821633686790513 26.121305305271576 12.075812399511223 #
point $-1 50.821633686790513 -26.121305305271576 7.7706509477881429 #
edge $-1 $341 -26.121305305271576 $339 26.121305305271576 $263 $374 forward 7 unknown #
vertex $-1 $338 $375 #
straight-curve $-1 60.69643238624225 26.121305305271576 0 0 0 -1 I I #
vertex $-1 $338 $376 #
straight-curve $-1 60.69643238624225 -26.121305305271576 0 0 0 -1 I I #
coedge $-1 $279 $278 $271 $344 forward $268 $-1 #
edge $-1 $345 19.115946382717297 $348 29.504671977656166 $343 $377 forward 7 unknown #
vertex $-1 $283 $378 #
straight-curve $-1 -29.475662523987467 -65.625305487695101 12.075812399511229 0 -1 0 I I #
edge $-1 $348 -22.038158008985214 $280 7.1631489789807077 $279 $379 forward 7 unknown #
vertex $-1 $347 $380 #
straight-curve $-1 -29.475662523987467 -26.121305305271562 1.687086804572381 0 0.49999998660252726 0.86602541151947299 I I #
point $-1 -29.475662523987467 -20.123372000782197 12.075812399511227 #
point $-1 -0.27435553602154528 -26.121305305271576 1.6870868045723564 #
straight-curve $-1 0 -26.121305305271576 12.075812399511227 1 0 0 I I #
vertex $-1 $286 $381 #
point $-1 -19.632431955997205 -20.54356939082221 5.3925965275216452 #
vertex $-1 $290 $382 #
point $-1 -7.1175861040118065 -20.54356939082221 5.3925965275216452 #
straight-curve $-1 -60.69643238624225 26.121305305271576 0 0 0 -1 I I #
point $-1 -60.69643238624225 -26.121305305271576 -12.075812399511227 #
straight-curve $-1 -60.69643238624225 0 -12.075812399511227 0 1 0 I I #
point $-1 -60.69643238624225 26.121305305271576 -12.075812399511227 #
coedge $-1 $312 $311 $362 $383 reversed $140 $-1 #
coedge $-1 $317 $313 $361 $383 forward $225 $-1 #
vertex $-1 $314 $384 #
straight-curve $-1 0 26.121305305271576 12.075812399511227 -1 0 0 I I #
point $-1 -50.821633686790506 26.121305305271576 12.075812399511223 #
vertex $-1 $383 $385 #
straight-curve $-1 0 -26.121305305271576 12.075812399511227 1 0 0 I I #
straight-curve $-1 -60.69643238624225 -26.121305305271576 0 0 0 -1 I I #
straight-curve $-1 -60.69643238624225 26.121305305271576 0 0 0 -1 I I #
straight-curve $-1 50.821633686790513 -26.121305305271576 4.9616158368248415 0 0 -1 I I #
straight-curve $-1 0 -26.121305305271576 12.075812399511227 1 0 0 I I #
straight-curve $-1 0 26.121305305271576 12.075812399511227 -1 0 0 I I #
point $-1 50.821633686790513 -26.121305305271576 12.075812399511223 #
straight-curve $-1 60.69643238624225 0 12.075812399511227 0 1 0 I I #
point $-1 60.69643238624225 26.121305305271576 12.075812399511227 #
point $-1 60.69643238624225 -26.121305305271576 12.075812399511227 #
straight-curve $-1 -29.475662523987467 -26.121305305271576 31.191758782228522 0 0 -1 I I #
point $-1 -29.475662523987467 -26.121305305271576 12.075812399511227 #
straight-curve $-1 -7.437504515002253 -26.121305305271576 1.6870868045723595 1 0 0 I I #
point $-1 -29.475662523987467 -26.121305305271576 1.6870868045723564 #
point $-1 -21.132431955997205 -19.244531273543 4.6425965476178543 #
point $-1 -8.6175861040118065 -19.244531273543 4.6425965476178543 #
edge $-1 $363 -26.121305305271576 $366 26.121305305271576 $361 $386 forward 7 unknown #
point $-1 -60.69643238624225 26.121305305271576 12.075812399511227 #
point $-1 -60.69643238624225 -26.121305305271576 12.075812399511227 #
straight-curve $-1 -60.69643238624225 0 12.075812399511227 0 -1 0 I I #
End-of-ACIS-data 