500 0 6 0           
7 Unknown 11 ACIS 5.0 NT 24 Thu Mar 25 20:52:41 1999 
-1 9.9999999999999995e-007 1e-010 
body $-1 $6 $-1 $7 #
body $-1 $8 $-1 $9 #
body $-1 $10 $-1 $11 #
body $-1 $12 $-1 $13 #
body $-1 $14 $-1 $15 #
body $-1 $16 $-1 $17 #
lump $-1 $-1 $18 $0 #
transform $-1 1 0 0 0 1 0 0 0 1 68.241828669087795 34.288775029472596 12.444187254645989 1 rotate no_reflect no_shear #
lump $-1 $-1 $19 $1 #
transform $-1 1 0 0 0 1 0 0 0 1 68.241828669087795 34.288775029472596 12.444187254645989 1 rotate no_reflect no_shear #
lump $-1 $-1 $20 $2 #
transform $-1 1 0 0 0 1 0 0 0 1 68.241828669087795 34.288775029472596 12.444187254645989 1 rotate no_reflect no_shear #
lump $-1 $-1 $21 $3 #
transform $-1 1 0 0 0 1 0 0 0 1 68.241828669087795 34.288775029472596 12.444187254645989 1 rotate no_reflect no_shear #
lump $-1 $-1 $22 $4 #
transform $-1 1 0 0 0 1 0 0 0 1 68.241828669087795 34.288775029472596 12.444187254645989 1 rotate no_reflect no_shear #
lump $-1 $-1 $23 $5 #
transform $-1 1 0 0 0 1 0 0 0 1 68.241828669087795 34.288775029472596 12.444187254645989 1 rotate no_reflect no_shear #
shell $-1 $-1 $-1 $24 $-1 $6 #
shell $-1 $-1 $-1 $25 $-1 $8 #
shell $-1 $-1 $-1 $26 $-1 $10 #
shell $-1 $-1 $-1 $27 $-1 $12 #
shell $-1 $-1 $-1 $28 $-1 $14 #
shell $-1 $-1 $-1 $29 $-1 $16 #
face $-1 $30 $31 $18 $-1 $32 forward single #
face $-1 $33 $34 $19 $-1 $35 forward single #
face $-1 $36 $37 $20 $-1 $38 reversed single #
face $-1 $39 $40 $21 $-1 $41 forward single #
face $-1 $42 $43 $22 $-1 $44 forward single #
face $-1 $45 $46 $23 $-1 $47 forward single #
face $-1 $48 $49 $18 $-1 $50 reversed single #
loop $-1 $-1 $51 $24 #
plane-surface $-1 0 0 12.444187254645989 0 0 1 1 0 0 forward_v I I I I #
face $-1 $52 $53 $19 $-1 $54 reversed single #
loop $-1 $-1 $55 $25 #
plane-surface $-1 -68.241828669087795 0 0 1 0 0 0 0 -1 forward_v I I I I #
face $-1 $56 $57 $20 $-1 $58 reversed single #
loop $-1 $-1 $59 $26 #
plane-surface $-1 -10.084585046042836 69.485329278698771 157.13908113332576 1 0 0 0 -0.64278761758704617 -0.76604443648966558 forward_v I I I I #
face $-1 $60 $61 $21 $-1 $62 forward single #
loop $-1 $63 $64 $27 #
cone-surface $-1 -5.2580475012940582 31.195263783137406 9.5851038403367781 0 -0.64278761758704617 -0.76604443648966558 1 0 0 1 I I 0 1 1 forward I I I I #
face $-1 $65 $66 $22 $-1 $67 forward single #
loop $-1 $68 $69 $28 #
cone-surface $-1 1.9817588158291102 31.195263783137406 9.5851038403367781 0 -0.64278761758704617 -0.76604443648966558 1 0 0 1 I I 0 1 1 forward I I I I #
face $-1 $70 $71 $23 $-1 $72 forward single #
loop $-1 $73 $74 $29 #
cone-surface $-1 9.2215651329522785 31.195263783137406 9.5851038403367781 0 -0.64278761758704617 -0.76604443648966558 1 0 0 1 I I 0 1 1 forward I I I I #
face $-1 $75 $76 $18 $-1 $77 reversed single #
loop $-1 $-1 $78 $30 #
plane-surface $-1 0 0 -12.444187254645989 0 0 1 1 0 0 forward_v I I I I #
coedge $-1 $79 $80 $81 $82 forward $31 $-1 #
face $-1 $83 $84 $19 $-1 $85 forward single #
loop $-1 $-1 $86 $33 #
plane-surface $-1 0 34.288775029472596 0 0 -1 0 0 0 -1 forward_v I I I I #
coedge $-1 $87 $88 $89 $90 forward $34 $-1 #
face $-1 $91 $92 $20 $-1 $93 reversed single #
loop $-1 $-1 $94 $36 #
plane-surface $-1 1.9817588158291102 -18.244675661273888 52.586534757654434 0 0.64278761758704617 0.76604443648966558 1 0 0 forward_v I I I I #
coedge $-1 $95 $96 $97 $98 reversed $37 $-1 #
face $-1 $-1 $99 $21 $-1 $100 forward single #
loop $-1 $101 $102 $39 #
cone-surface $-1 -5.2580475012940582 30.127191148445398 8.3122244674514185 0 -0.64278761758704617 -0.76604443648966558 0.5 0 0 1 I I -0.70710678118654746 0.70710678118654746 0.5 forward I I I I #
loop $-1 $-1 $103 $27 #
coedge $-1 $64 $64 $104 $105 reversed $40 $-1 #
face $-1 $-1 $106 $22 $-1 $107 forward single #
loop $-1 $108 $109 $42 #
cone-surface $-1 1.9817588158291102 30.127191148445398 8.3122244674514185 0 -0.64278761758704617 -0.76604443648966558 0.5 0 0 1 I I -0.70710678118654746 0.70710678118654746 0.5 forward I I I I #
loop $-1 $-1 $110 $28 #
coedge $-1 $69 $69 $111 $112 reversed $43 $-1 #
face $-1 $-1 $113 $23 $-1 $114 forward single #
loop $-1 $115 $116 $45 #
cone-surface $-1 9.2215651329522785 30.127191148445398 8.3122244674514185 0 -0.64278761758704617 -0.76604443648966558 0.5 0 0 1 I I -0.70710678118654746 0.70710678118654746 0.5 forward I I I I #
loop $-1 $-1 $117 $29 #
coedge $-1 $74 $74 $118 $119 reversed $46 $-1 #
face $-1 $120 $121 $18 $-1 $122 reversed single #
loop $-1 $-1 $123 $48 #
plane-surface $-1 0 -34.288775029472596 0 0 1 0 0 0 1 forward_v I I I I #
coedge $-1 $124 $125 $126 $127 forward $49 $-1 #
coedge $-1 $128 $51 $129 $130 forward $31 $-1 #
coedge $-1 $51 $128 $131 $132 forward $31 $-1 #
coedge $-1 $133 $134 $51 $82 reversed $135 $-1 #
edge $-1 $136 -34.288775029472596 $137 34.288775029472596 $81 $138 forward 7 unknown #
face $-1 $139 $140 $19 $-1 $141 reversed single #
loop $-1 $-1 $89 $52 #
plane-surface $-1 -75.715188420056521 0 3.6485744353859255 0 0 1 1 0 0 forward_v I I I I #
coedge $-1 $142 $143 $88 $144 forward $53 $-1 #
coedge $-1 $145 $55 $146 $147 reversed $34 $-1 #
coedge $-1 $55 $145 $86 $144 reversed $34 $-1 #
coedge $-1 $148 $149 $55 $90 reversed $84 $-1 #
edge $-1 $150 -34.288775029472596 $151 34.288775029472596 $89 $152 forward 7 unknown #
face $-1 $153 $154 $20 $-1 $155 forward single #
loop $-1 $-1 $156 $56 #
plane-surface $-1 14.048102677701056 69.485329278698771 157.13908113332576 -1 0 0 0 0.64278761758704617 0.76604443648966558 forward_v I I I I #
coedge $-1 $157 $158 $159 $160 reversed $57 $-1 #
coedge $-1 $96 $59 $161 $162 reversed $37 $-1 #
coedge $-1 $59 $95 $157 $163 reversed $37 $-1 #
coedge $-1 $159 $164 $59 $98 forward $154 $-1 #
edge $-1 $165 0.45388960987678928 $166 5.1475544507501354 $97 $167 forward 7 unknown #
loop $-1 $-1 $104 $60 #
plane-surface $-1 1.9817588158291102 -18.244675661273888 52.586534757654434 0 0.64278761758704617 0.76604443648966558 1 0 0 forward_v I I I I #
loop $-1 $-1 $168 $39 #
coedge $-1 $102 $102 $103 $169 reversed $61 $-1 #
coedge $-1 $103 $103 $102 $169 forward $63 $-1 #
coedge $-1 $104 $104 $64 $105 forward $99 $-1 #
edge $-1 $170 -7.8163294408032042e-016 $170 6.2831853071795996 $104 $171 forward 7 unknown #
loop $-1 $-1 $111 $65 #
plane-surface $-1 1.9817588158291102 -18.244675661273888 52.586534757654434 0 0.64278761758704617 0.76604443648966558 1 0 0 forward_v I I I I #
loop $-1 $-1 $172 $42 #
coedge $-1 $109 $109 $110 $173 reversed $66 $-1 #
coedge $-1 $110 $110 $109 $173 forward $68 $-1 #
coedge $-1 $111 $111 $69 $112 forward $106 $-1 #
edge $-1 $174 -7.8163294408032042e-016 $174 6.2831853071795996 $111 $175 forward 7 unknown #
loop $-1 $-1 $118 $70 #
plane-surface $-1 1.9817588158291102 -18.244675661273888 52.586534757654434 0 0.64278761758704617 0.76604443648966558 1 0 0 forward_v I I I I #
loop $-1 $-1 $176 $45 #
coedge $-1 $116 $116 $117 $177 reversed $71 $-1 #
coedge $-1 $117 $117 $116 $177 forward $73 $-1 #
coedge $-1 $118 $118 $74 $119 forward $113 $-1 #
edge $-1 $178 -7.8163294408032042e-016 $178 6.2831853071795996 $118 $179 forward 7 unknown #
face $-1 $180 $181 $18 $-1 $182 reversed single #
loop $-1 $-1 $183 $75 #
plane-surface $-1 -68.241828669087795 0 0 1 0 0 0 0 -1 forward_v I I I I #
coedge $-1 $184 $131 $185 $186 forward $76 $-1 #
coedge $-1 $187 $78 $184 $188 forward $49 $-1 #
coedge $-1 $78 $187 $189 $190 forward $49 $-1 #
coedge $-1 $134 $133 $78 $127 reversed $135 $-1 #
edge $-1 $191 -34.288775029472596 $192 34.288775029472596 $126 $193 forward 7 unknown #
coedge $-1 $80 $79 $194 $195 forward $31 $-1 #
coedge $-1 $196 $197 $79 $130 reversed $181 $-1 #
edge $-1 $137 -68.241828669087795 $198 68.241828669087795 $129 $199 forward 7 unknown #
coedge $-1 $123 $200 $80 $132 reversed $76 $-1 #
edge $-1 $201 -68.241828669087795 $136 68.241828669087795 $131 $202 forward 7 unknown #
coedge $-1 $126 $81 $200 $203 forward $135 $-1 #
coedge $-1 $81 $126 $196 $204 reversed $135 $-1 #
loop $-1 $-1 $133 $180 #
vertex $-1 $82 $205 #
vertex $-1 $82 $206 #
straight-curve $-1 68.241828669087795 0 12.444187254645989 0 1 0 I I #
face $-1 $207 $208 $19 $-1 $209 reversed single #
loop $-1 $-1 $210 $83 #
plane-surface $-1 -75.715188420056521 0 -1.7716938020407094 0 0 1 1 0 0 forward_v I I I I #
coedge $-1 $211 $86 $212 $213 reversed $53 $-1 #
coedge $-1 $86 $211 $148 $214 reversed $53 $-1 #
edge $-1 $150 -3.6485744353859255 $215 1.7716938020407094 $86 $216 forward 7 unknown #
coedge $-1 $88 $87 $210 $217 forward $34 $-1 #
coedge $-1 $218 $219 $87 $147 forward $220 $-1 #
edge $-1 $221 -1.7716938020407094 $151 3.6485744353859255 $146 $222 forward 7 unknown #
coedge $-1 $223 $89 $143 $214 forward $84 $-1 #
coedge $-1 $89 $223 $218 $224 forward $84 $-1 #
vertex $-1 $144 $225 #
vertex $-1 $224 $226 #
straight-curve $-1 -68.241828669087795 0 3.6485744353859255 0 -1 0 I I #
face $-1 $-1 $227 $20 $-1 $228 reversed single #
loop $-1 $-1 $97 $91 #
plane-surface $-1 0 0 12.444187254645989 0 0 1 1 0 0 forward_v I I I I #
coedge $-1 $229 $230 $231 $232 reversed $92 $-1 #
coedge $-1 $233 $94 $96 $163 forward $57 $-1 #
coedge $-1 $94 $233 $229 $234 forward $57 $-1 #
coedge $-1 $231 $97 $94 $160 forward $154 $-1 #
edge $-1 $166 -11.075464453957391 $235 13.057223269786501 $159 $236 forward 7 unknown #
coedge $-1 $237 $238 $95 $162 forward $227 $-1 #
edge $-1 $239 -70.063805831354216 $165 -66.125353312016898 $161 $240 forward 7 unknown #
edge $-1 $166 62.450405708962457 $239 68.577550058945178 $96 $241 forward 7 unknown #
coedge $-1 $97 $231 $237 $242 forward $154 $-1 #
vertex $-1 $162 $243 #
vertex $-1 $98 $244 #
straight-curve $-1 -10.084585046042836 34.742664639349385 12.444187254645996 0 -1 0 I I #
coedge $-1 $168 $168 $-1 $245 reversed $101 $-1 #
edge $-1 $246 0 $246 6.2831853071796004 $102 $247 forward 7 unknown #
vertex $-1 $105 $248 #
ellipse-curve $-1 -5.2580475012940582 31.94194260903592 10.474960994977334 0 0.64278761758704617 0.76604443648966558 1 0 0 1 I I #
coedge $-1 $172 $172 $-1 $249 reversed $108 $-1 #
edge $-1 $250 0 $250 6.2831853071796004 $109 $251 forward 7 unknown #
vertex $-1 $112 $252 #
ellipse-curve $-1 1.9817588158291102 31.94194260903592 10.474960994977334 0 0.64278761758704617 0.76604443648966558 1 0 0 1 I I #
coedge $-1 $176 $176 $-1 $253 reversed $115 $-1 #
edge $-1 $254 0 $254 6.2831853071796004 $116 $255 forward 7 unknown #
vertex $-1 $119 $256 #
ellipse-curve $-1 9.2215651329522785 31.94194260903592 10.474960994977334 0 0.64278761758704617 0.76604443648966558 1 0 0 1 I I #
face $-1 $-1 $135 $18 $-1 $257 reversed single #
loop $-1 $-1 $196 $120 #
plane-surface $-1 0 34.288775029472596 0 0 -1 0 0 0 -1 forward_v I I I I #
coedge $-1 $258 $194 $197 $259 forward $121 $-1 #
coedge $-1 $200 $123 $124 $188 reversed $76 $-1 #
coedge $-1 $194 $258 $123 $186 reversed $121 $-1 #
edge $-1 $201 -12.444187254645989 $260 12.444187254645989 $185 $261 forward 7 unknown #
coedge $-1 $125 $124 $258 $262 forward $49 $-1 #
edge $-1 $192 -68.241828669087795 $260 68.241828669087795 $184 $263 forward 7 unknown #
coedge $-1 $197 $196 $125 $190 reversed $181 $-1 #
edge $-1 $264 -68.241828669087795 $191 68.241828669087795 $189 $265 forward 7 unknown #
vertex $-1 $127 $266 #
vertex $-1 $203 $267 #
straight-curve $-1 68.241828669087795 0 -12.444187254645989 0 -1 0 I I #
coedge $-1 $183 $185 $128 $195 reversed $121 $-1 #
edge $-1 $198 -34.288775029472596 $201 34.288775029472596 $194 $268 forward 7 unknown #
coedge $-1 $189 $129 $134 $204 forward $181 $-1 #
coedge $-1 $129 $189 $183 $259 reversed $181 $-1 #
vertex $-1 $130 $269 #
straight-curve $-1 0 34.288775029472596 12.444187254645989 -1 0 0 I I #
coedge $-1 $131 $184 $133 $203 reversed $76 $-1 #
vertex $-1 $195 $270 #
straight-curve $-1 0 -34.288775029472596 12.444187254645989 1 0 0 I I #
edge $-1 $136 -12.444187254645989 $192 12.444187254645989 $133 $271 forward 7 unknown #
edge $-1 $137 -12.444187254645989 $191 12.444187254645989 $134 $272 forward 7 unknown #
point $-1 68.241828669087795 -34.288775029472596 12.444187254645989 #
point $-1 68.241828669087795 34.288775029472596 12.444187254645989 #
face $-1 $-1 $220 $19 $-1 $273 reversed single #
loop $-1 $-1 $274 $139 #
plane-surface $-1 -83.188548171025246 0 0.93844031667260808 1 0 0 0 0 -1 forward_v I I I I #
coedge $-1 $275 $212 $145 $217 reversed $140 $-1 #
coedge $-1 $143 $142 $274 $276 reversed $53 $-1 #
coedge $-1 $210 $277 $142 $213 forward $140 $-1 #
edge $-1 $278 -7.4733597509687257 $215 7.4733597509687257 $142 $279 forward 7 unknown #
edge $-1 $150 -7.4733597509687257 $280 7.4733597509687257 $143 $281 forward 7 unknown #
vertex $-1 $144 $282 #
straight-curve $-1 -68.241828669087795 34.288775029472596 0 0 0 -1 I I #
edge $-1 $221 -34.288775029472596 $215 34.288775029472596 $210 $283 forward 7 unknown #
coedge $-1 $284 $146 $149 $224 reversed $220 $-1 #
coedge $-1 $146 $284 $275 $285 reversed $220 $-1 #
loop $-1 $-1 $146 $207 #
vertex $-1 $147 $286 #
straight-curve $-1 -68.241828669087795 -34.288775029472596 0 0 0 1 I I #
coedge $-1 $149 $148 $287 $288 forward $84 $-1 #
edge $-1 $289 -7.4733597509687257 $151 7.4733597509687257 $218 $290 forward 7 unknown #
point $-1 -68.241828669087795 34.288775029472596 3.6485744353859255 #
point $-1 -68.241828669087795 -34.288775029472596 3.6485744353859255 #
loop $-1 $-1 $161 $153 #
plane-surface $-1 0 34.288775029472596 0 0 -1 0 0 0 -1 forward_v I I I I #
coedge $-1 $230 $156 $158 $234 reversed $92 $-1 #
coedge $-1 $156 $229 $291 $292 reversed $92 $-1 #
coedge $-1 $164 $159 $156 $232 forward $154 $-1 #
edge $-1 $235 -5.1475544507501354 $293 -0.45388960987678928 $231 $294 forward 7 unknown #
coedge $-1 $158 $157 $238 $295 reversed $57 $-1 #
edge $-1 $296 -68.577550058945178 $235 -62.450405708962457 $229 $297 forward 7 unknown #
vertex $-1 $160 $298 #
straight-curve $-1 0.99087940791455509 29.595110188599254 12.444187254645993 1 0 0 I I #
coedge $-1 $291 $161 $164 $242 reversed $227 $-1 #
coedge $-1 $161 $291 $233 $295 forward $227 $-1 #
vertex $-1 $162 $299 #
straight-curve $-1 -10.084585046042836 34.288775029472596 78.56954056666288 0 0 1 I I #
straight-curve $-1 -10.084585046042836 -18.244675661273888 52.586534757654434 0 0.76604443648966558 -0.64278761758704617 I I #
edge $-1 $293 -14.048102677701056 $165 10.084585046042836 $237 $300 forward 7 unknown #
point $-1 -10.084585046042836 34.288775029472596 12.444187254645989 #
point $-1 -10.084585046042836 29.59511018859925 12.444187254645989 #
edge $-1 $301 1 $301 0 $168 $-1 forward 7 unknown #
vertex $-1 $169 $302 #
ellipse-curve $-1 -5.2580475012940582 30.448584957238921 8.6952466856962509 0 0.64278761758704617 0.76604443648966558 1 0 0 1 I I #
point $-1 -4.2580475012940582 31.941942609035895 10.474960994977305 #
edge $-1 $303 1 $303 0 $172 $-1 forward 7 unknown #
vertex $-1 $173 $304 #
ellipse-curve $-1 1.9817588158291102 30.448584957238921 8.6952466856962509 0 0.64278761758704617 0.76604443648966558 1 0 0 1 I I #
point $-1 2.9817588158291102 31.941942609035895 10.474960994977305 #
edge $-1 $305 1 $305 0 $176 $-1 forward 7 unknown #
vertex $-1 $177 $306 #
ellipse-curve $-1 9.2215651329522785 30.448584957238921 8.6952466856962509 0 0.64278761758704617 0.76604443648966558 1 0 0 1 I I #
point $-1 10.221565132952279 31.941942609035895 10.474960994977305 #
plane-surface $-1 68.241828669087795 0 0 -1 0 0 0 0 1 forward_v I I I I #
coedge $-1 $185 $183 $187 $262 reversed $121 $-1 #
edge $-1 $198 -12.444187254645989 $264 12.444187254645989 $197 $307 forward 7 unknown #
vertex $-1 $262 $308 #
straight-curve $-1 -68.241828669087795 -34.288775029472596 0 0 0 -1 I I #
edge $-1 $260 -34.288775029472596 $264 34.288775029472596 $258 $309 forward 7 unknown #
straight-curve $-1 0 -34.288775029472596 -12.444187254645989 -1 0 0 I I #
vertex $-1 $190 $310 #
straight-curve $-1 0 34.288775029472596 -12.444187254645989 1 0 0 I I #
point $-1 68.241828669087795 34.288775029472596 -12.444187254645989 #
point $-1 68.241828669087795 -34.288775029472596 -12.444187254645989 #
straight-curve $-1 -68.241828669087795 0 12.444187254645989 0 -1 0 I I #
point $-1 -68.241828669087795 34.288775029472596 12.444187254645989 #
point $-1 -68.241828669087795 -34.288775029472596 12.444187254645989 #
straight-curve $-1 68.241828669087795 -34.288775029472596 0 0 0 -1 I I #
straight-curve $-1 68.241828669087795 34.288775029472596 0 0 0 -1 I I #
plane-surface $-1 0 -34.288775029472596 0 0 1 0 0 0 1 forward_v I I I I #
coedge $-1 $311 $287 $211 $276 forward $208 $-1 #
coedge $-1 $277 $210 $219 $285 forward $140 $-1 #
edge $-1 $280 -2.7101341187133174 $278 2.7101341187133174 $211 $312 forward 7 unknown #
coedge $-1 $212 $275 $311 $313 forward $140 $-1 #
vertex $-1 $213 $314 #
straight-curve $-1 -75.715188420056521 34.288775029472596 -1.7716938020407094 1 0 0 I I #
vertex $-1 $214 $315 #
straight-curve $-1 -75.715188420056521 34.288775029472596 3.6485744353859255 -1 0 0 I I #
point $-1 -68.241828669087795 34.288775029472596 -1.7716938020407094 #
straight-curve $-1 -68.241828669087795 0 -1.7716938020407094 0 1 0 I I #
coedge $-1 $219 $218 $316 $317 forward $220 $-1 #
edge $-1 $221 -7.4733597509687257 $318 7.4733597509687257 $219 $319 forward 7 unknown #
point $-1 -68.241828669087795 -34.288775029472596 -1.7716938020407094 #
coedge $-1 $274 $316 $223 $288 reversed $208 $-1 #
edge $-1 $280 -34.288775029472596 $289 34.288775029472596 $287 $320 forward 7 unknown #
vertex $-1 $288 $321 #
straight-curve $-1 -75.715188420056521 -34.288775029472596 3.6485744353859255 1 0 0 I I #
coedge $-1 $238 $237 $230 $292 forward $227 $-1 #
edge $-1 $293 66.125353312016898 $296 70.063805831354216 $291 $322 forward 7 unknown #
vertex $-1 $242 $323 #
straight-curve $-1 14.048102677701056 34.742664639349385 12.444187254645996 0 1 0 I I #
edge $-1 $296 -13.057223269786501 $239 11.075464453957391 $238 $324 forward 7 unknown #
vertex $-1 $295 $325 #
straight-curve $-1 14.048102677701056 -18.244675661273888 52.586534757654434 0 -0.76604443648966558 0.64278761758704617 I I #
point $-1 14.048102677701056 29.59511018859925 12.444187254645989 #
point $-1 -10.084585046042836 34.288775029472596 8.5057347353086712 #
straight-curve $-1 0 34.288775029472596 12.444187254645989 -1 0 0 I I #
vertex $-1 $245 $326 #
point $-1 -4.2580475012940582 30.448584957238921 8.6952466856962509 #
vertex $-1 $249 $327 #
point $-1 2.9817588158291102 30.448584957238921 8.6952466856962509 #
vertex $-1 $253 $328 #
point $-1 10.221565132952279 30.448584957238921 8.6952466856962509 #
straight-curve $-1 -68.241828669087795 34.288775029472596 0 0 0 -1 I I #
point $-1 -68.241828669087795 -34.288775029472596 -12.444187254645989 #
straight-curve $-1 -68.241828669087795 0 -12.444187254645989 0 1 0 I I #
point $-1 -68.241828669087795 34.288775029472596 -12.444187254645989 #
coedge $-1 $316 $274 $277 $313 reversed $208 $-1 #
straight-curve $-1 -83.188548171025246 34.288775029472596 0.93844031667260808 0 0 -1 I I #
edge $-1 $318 -34.288775029472596 $278 34.288775029472596 $311 $329 forward 7 unknown #
point $-1 -83.188548171025246 34.288775029472596 -1.7716938020407094 #
point $-1 -83.188548171025246 34.288775029472596 3.6485744353859255 #
coedge $-1 $287 $311 $284 $317 reversed $208 $-1 #
edge $-1 $289 -2.7101341187133174 $318 2.7101341187133174 $316 $330 forward 7 unknown #
vertex $-1 $313 $331 #
straight-curve $-1 -75.715188420056521 -34.288775029472596 -1.7716938020407094 -1 0 0 I I #
straight-curve $-1 -83.188548171025246 0 3.6485744353859255 0 -1 0 I I #
point $-1 -83.188548171025246 -34.288775029472596 3.6485744353859255 #
straight-curve $-1 14.048102677701056 34.288775029472596 78.56954056666288 0 0 -1 I I #
point $-1 14.048102677701056 34.288775029472596 12.444187254645989 #
straight-curve $-1 0.99087940791455509 34.288775029472589 8.5057347353086747 -1 0 0 I I #
point $-1 14.048102677701056 34.288775029472596 8.5057347353086712 #
point $-1 -5.2580475012940582 29.805797339651875 7.9292022492065861 #
point $-1 1.9817588158291102 29.805797339651875 7.9292022492065861 #
point $-1 9.2215651329522785 29.805797339651875 7.9292022492065861 #
straight-curve $-1 -83.188548171025246 0 -1.7716938020407094 0 1 0 I I #
straight-curve $-1 -83.188548171025246 -34.288775029472596 0.93844031667260808 0 0 -1 I I #
point $-1 -83.188548171025246 -34.288775029472596 -1.7716938020407094 #
End-of-ACIS-data 