500 0 7 0           
7 Unknown 11 ACIS 5.0 NT 24 Fri Mar 26 03:24:48 1999 
-1 9.9999999999999995e-007 1e-010 
body $-1 $7 $-1 $8 #
body $-1 $9 $-1 $10 #
body $-1 $11 $-1 $12 #
body $-1 $13 $-1 $14 #
body $-1 $15 $-1 $16 #
body $-1 $17 $-1 $18 #
body $-1 $19 $-1 $20 #
lump $-1 $-1 $21 $0 #
transform $-1 1 0 0 0 1 0 0 0 1 49.879451887569815 29.410411763316869 8.940704141837081 1 rotate no_reflect no_shear #
lump $-1 $-1 $22 $1 #
transform $-1 1 0 0 0 1 0 0 0 1 49.879451887569815 29.410411763316869 8.940704141837081 1 rotate no_reflect no_shear #
lump $-1 $-1 $23 $2 #
transform $-1 1 0 0 0 1 0 0 0 1 49.879451887569815 29.410411763316869 8.940704141837081 1 rotate no_reflect no_shear #
lump $-1 $-1 $24 $3 #
transform $-1 1 0 0 0 1 0 0 0 1 49.879451887569815 29.410411763316869 8.940704141837081 1 rotate no_reflect no_shear #
lump $-1 $-1 $25 $4 #
transform $-1 1 0 0 0 1 0 0 0 1 49.879451887569815 29.410411763316869 8.940704141837081 1 rotate no_reflect no_shear #
lump $-1 $-1 $26 $5 #
transform $-1 1 0 0 0 1 0 0 0 1 49.879451887569815 29.410411763316869 8.940704141837081 1 rotate no_reflect no_shear #
lump $-1 $-1 $27 $6 #
transform $-1 1 0 0 0 1 0 0 0 1 49.879451887569815 29.410411763316869 8.940704141837081 1 rotate no_reflect no_shear #
shell $-1 $-1 $-1 $28 $-1 $7 #
shell $-1 $-1 $-1 $29 $-1 $9 #
shell $-1 $-1 $-1 $30 $-1 $11 #
shell $-1 $-1 $-1 $31 $-1 $13 #
shell $-1 $-1 $-1 $32 $-1 $15 #
shell $-1 $-1 $-1 $33 $-1 $17 #
shell $-1 $-1 $-1 $34 $-1 $19 #
face $-1 $35 $36 $21 $-1 $37 forward single #
face $-1 $38 $39 $22 $-1 $40 forward single #
face $-1 $41 $42 $23 $-1 $43 forward single #
face $-1 $44 $45 $24 $-1 $46 reversed single #
face $-1 $47 $48 $25 $-1 $49 forward single #
face $-1 $50 $51 $26 $-1 $52 reversed single #
face $-1 $53 $54 $27 $-1 $55 forward single #
face $-1 $56 $57 $21 $-1 $58 reversed single #
loop $-1 $-1 $59 $28 #
plane-surface $-1 0 0 8.940704141837081 0 0 1 1 0 0 forward_v I I I I #
face $-1 $60 $61 $22 $-1 $62 reversed single #
loop $-1 $-1 $63 $29 #
plane-surface $-1 0 -26.248558906466958 -5.940704141837081 0 0 1 1 0 0 forward_v I I I I #
face $-1 $64 $65 $23 $-1 $66 reversed single #
loop $-1 $-1 $67 $30 #
plane-surface $-1 0 26.248558906466958 -5.940704141837081 0 0 1 1 0 0 forward_v I I I I #
face $-1 $68 $69 $24 $-1 $70 reversed single #
loop $-1 $-1 $71 $31 #
plane-surface $-1 69.514049809862215 23.086706049617042 141.8413276125271 0 -1 0 -0.79863551827123203 0 -0.60181501223851219 forward_v I I I I #
face $-1 $72 $73 $25 $-1 $74 forward single #
loop $-1 $75 $76 $32 #
cone-surface $-1 46.712586926184755 18.762978563705889 5.0835024247750562 -0.79863551827123203 0 -0.60181501223851219 0.60181501223851219 0 -0.79863551827123203 1 I I 0 1 1 forward I I I I #
face $-1 $77 $78 $26 $-1 $79 reversed single #
loop $-1 $-1 $80 $33 #
plane-surface $-1 -132.58333211952052 -23.08670604961705 55.818554524841694 0 1 0 -0.82903758062907751 0 0.55919289150049634 forward_v I I I I #
face $-1 $81 $82 $27 $-1 $83 forward single #
loop $-1 $84 $85 $34 #
cone-surface $-1 -44.450809633681089 -16.910862390895016 2.8518145016544967 0.82903758062907751 0 -0.55919289150049634 1.3979822287512409 0 2.0725939515726939 1 I I 0 1 2.5 forward I I I I #
face $-1 $86 $87 $21 $-1 $88 reversed single #
loop $-1 $-1 $89 $35 #
plane-surface $-1 0 0 -8.940704141837081 0 0 1 1 0 0 forward_v I I I I #
coedge $-1 $90 $91 $92 $93 forward $36 $-1 #
face $-1 $94 $95 $22 $-1 $96 reversed single #
loop $-1 $-1 $97 $38 #
plane-surface $-1 0 -23.086706049617046 -7.440704141837081 0 -1 0 0 0 -1 forward_v I I I I #
coedge $-1 $98 $99 $100 $101 reversed $39 $-1 #
face $-1 $102 $103 $23 $-1 $104 reversed single #
loop $-1 $-1 $105 $41 #
plane-surface $-1 0 23.086706049617046 -7.440704141837081 0 1 0 0 0 1 forward_v I I I I #
coedge $-1 $106 $107 $108 $109 reversed $42 $-1 #
face $-1 $110 $111 $24 $-1 $112 reversed single #
loop $-1 $-1 $113 $44 #
plane-surface $-1 -10.156954008766391 18.762978563705889 81.804921716190876 0.79863551827123203 0 0.60181501223851219 0.60181501223851219 0 -0.79863551827123203 forward_v I I I I #
coedge $-1 $114 $115 $116 $117 reversed $45 $-1 #
face $-1 $-1 $118 $25 $-1 $119 forward single #
loop $-1 $120 $121 $47 #
cone-surface $-1 45.711044804025221 18.762978563705889 4.3287863237311726 -0.79863551827123203 0 -0.60181501223851219 0.3009075061192561 0 -0.39931775913561601 1 I I -0.70710678118654746 0.70710678118654746 0.5 forward I I I I #
loop $-1 $-1 $122 $32 #
coedge $-1 $76 $76 $123 $124 reversed $48 $-1 #
face $-1 $125 $126 $26 $-1 $127 reversed single #
loop $-1 $-1 $128 $50 #
plane-surface $-1 -49.879451887569815 -16.910862390895019 0.034084669901588427 -0.82903758062907751 0 0.55919289150049634 0.55919289150049634 0 0.82903758062907751 forward_v I I I I #
coedge $-1 $129 $130 $131 $132 reversed $51 $-1 #
face $-1 $-1 $133 $27 $-1 $134 forward single #
loop $-1 $135 $136 $53 #
cone-surface $-1 -40.989665655499323 -16.910862390895016 0.51724348306403911 0.82903758062907751 0 -0.55919289150049634 0.69899111437562045 0 1.0362969757863469 1 I I -0.70710678118654746 0.70710678118654746 1.25 forward I I I I #
loop $-1 $-1 $137 $34 #
coedge $-1 $85 $85 $138 $139 reversed $54 $-1 #
face $-1 $140 $141 $21 $-1 $142 reversed single #
loop $-1 $-1 $143 $56 #
plane-surface $-1 0 -29.410411763316869 0 0 1 0 0 0 1 forward_v I I I I #
coedge $-1 $144 $145 $146 $147 forward $57 $-1 #
coedge $-1 $148 $59 $149 $150 forward $36 $-1 #
coedge $-1 $59 $148 $151 $152 forward $36 $-1 #
coedge $-1 $153 $154 $59 $93 reversed $155 $-1 #
edge $-1 $156 -29.410411763316869 $157 29.410411763316869 $92 $158 forward 7 unknown #
face $-1 $159 $160 $22 $-1 $161 reversed single #
loop $-1 $-1 $162 $60 #
plane-surface $-1 0 0 -8.940704141837081 0 0 1 1 0 0 forward_v I I I I #
coedge $-1 $163 $164 $165 $166 reversed $61 $-1 #
coedge $-1 $167 $63 $164 $168 forward $39 $-1 #
coedge $-1 $63 $167 $169 $170 reversed $39 $-1 #
coedge $-1 $171 $165 $63 $101 forward $160 $-1 #
edge $-1 $172 9.9624265963835672 $173 16.286132310083389 $100 $174 forward 7 unknown #
face $-1 $175 $176 $23 $-1 $177 reversed single #
loop $-1 $-1 $108 $64 #
plane-surface $-1 49.879451887569815 0 0 -1 0 0 0 0 1 forward_v I I I I #
coedge $-1 $178 $179 $180 $181 reversed $65 $-1 #
coedge $-1 $182 $67 $183 $184 reversed $42 $-1 #
coedge $-1 $67 $182 $179 $185 forward $42 $-1 #
coedge $-1 $186 $187 $67 $109 forward $103 $-1 #
edge $-1 $188 -16.286132310083389 $189 -9.9624265963835672 $108 $190 forward 7 unknown #
face $-1 $191 $192 $24 $-1 $193 forward single #
loop $-1 $-1 $194 $68 #
plane-surface $-1 69.514049809862215 14.439251077794736 141.8413276125271 0 1 0 0.79863551827123203 0 0.60181501223851219 forward_v I I I I #
coedge $-1 $195 $196 $197 $198 reversed $69 $-1 #
coedge $-1 $115 $71 $199 $200 reversed $45 $-1 #
coedge $-1 $71 $114 $195 $201 reversed $45 $-1 #
coedge $-1 $197 $202 $71 $117 forward $192 $-1 #
edge $-1 $203 -15.122426982638707 $204 -9.9931457859164468 $116 $205 forward 7 unknown #
loop $-1 $-1 $123 $72 #
plane-surface $-1 -10.156954008766391 18.762978563705889 81.804921716190876 0.79863551827123203 0 0.60181501223851219 0.60181501223851219 0 -0.79863551827123203 forward_v I I I I #
loop $-1 $-1 $206 $47 #
coedge $-1 $121 $121 $122 $207 reversed $73 $-1 #
coedge $-1 $122 $122 $121 $207 forward $75 $-1 #
coedge $-1 $123 $123 $76 $124 forward $118 $-1 #
edge $-1 $208 0 $208 6.2831853071796004 $123 $209 forward 7 unknown #
face $-1 $210 $211 $26 $-1 $212 reversed single #
loop $-1 $-1 $213 $77 #
plane-surface $-1 -132.58333211952052 -10.735018732172987 55.818554524841694 0 -1 0 0.82903758062907751 0 -0.55919289150049634 forward_v I I I I #
coedge $-1 $214 $215 $216 $217 reversed $78 $-1 #
coedge $-1 $130 $80 $218 $219 reversed $51 $-1 #
coedge $-1 $80 $129 $214 $220 reversed $51 $-1 #
coedge $-1 $216 $221 $80 $132 forward $222 $-1 #
edge $-1 $223 16.412214172190446 $224 22.419804675177041 $131 $225 forward 7 unknown #
loop $-1 $-1 $138 $81 #
plane-surface $-1 -49.879451887569815 -16.910862390895019 0.034084669901588427 -0.82903758062907751 0 0.55919289150049634 0.55919289150049634 0 0.82903758062907751 forward_v I I I I #
loop $-1 $-1 $226 $53 #
coedge $-1 $136 $136 $137 $227 reversed $82 $-1 #
coedge $-1 $137 $137 $136 $227 forward $84 $-1 #
coedge $-1 $138 $138 $85 $139 forward $133 $-1 #
edge $-1 $228 0 $228 6.2831853071796004 $138 $229 forward 7 unknown #
face $-1 $230 $231 $21 $-1 $232 reversed single #
loop $-1 $-1 $233 $86 #
plane-surface $-1 -49.879451887569815 0 0 1 0 0 0 0 -1 forward_v I I I I #
coedge $-1 $234 $151 $235 $236 forward $87 $-1 #
coedge $-1 $237 $89 $234 $238 forward $57 $-1 #
coedge $-1 $89 $237 $239 $240 forward $57 $-1 #
coedge $-1 $154 $153 $89 $147 reversed $155 $-1 #
edge $-1 $241 -29.410411763316869 $242 29.410411763316869 $146 $243 forward 7 unknown #
coedge $-1 $91 $90 $244 $245 forward $36 $-1 #
coedge $-1 $246 $247 $90 $150 reversed $231 $-1 #
edge $-1 $157 -49.879451887569815 $248 49.879451887569815 $149 $249 forward 7 unknown #
coedge $-1 $143 $250 $91 $152 reversed $87 $-1 #
edge $-1 $251 -49.879451887569815 $156 49.879451887569815 $151 $252 forward 7 unknown #
coedge $-1 $146 $92 $250 $253 forward $155 $-1 #
coedge $-1 $92 $146 $246 $254 reversed $155 $-1 #
loop $-1 $-1 $153 $230 #
vertex $-1 $93 $255 #
vertex $-1 $93 $256 #
straight-curve $-1 49.879451887569815 0 8.940704141837081 0 1 0 I I #
face $-1 $257 $258 $22 $-1 $259 reversed single #
loop $-1 $-1 $165 $94 #
plane-surface $-1 49.879451887569815 0 0 -1 0 0 0 0 1 forward_v I I I I #
coedge $-1 $260 $261 $163 $262 forward $95 $-1 #
coedge $-1 $263 $97 $162 $262 reversed $61 $-1 #
coedge $-1 $97 $263 $98 $168 reversed $61 $-1 #
coedge $-1 $100 $264 $97 $166 forward $160 $-1 #
edge $-1 $265 -5.2203520709185405 $172 -2.2203520709185405 $165 $266 forward 7 unknown #
coedge $-1 $99 $98 $267 $268 reversed $39 $-1 #
edge $-1 $172 -49.879451887569815 $269 49.879451887569815 $164 $270 forward 7 unknown #
coedge $-1 $271 $272 $99 $170 forward $258 $-1 #
edge $-1 $173 -49.879451887569815 $273 49.879451887569815 $169 $274 forward 7 unknown #
coedge $-1 $264 $100 $272 $275 forward $160 $-1 #
vertex $-1 $101 $276 #
vertex $-1 $275 $277 #
straight-curve $-1 49.879451887569815 -13.124279453233479 -5.940704141837081 0 -1 0 I I #
face $-1 $278 $279 $23 $-1 $280 reversed single #
loop $-1 $-1 $281 $102 #
plane-surface $-1 0 0 -8.940704141837081 0 0 1 1 0 0 forward_v I I I I #
coedge $-1 $282 $105 $281 $283 reversed $65 $-1 #
coedge $-1 $105 $282 $107 $185 reversed $65 $-1 #
coedge $-1 $284 $285 $105 $181 forward $279 $-1 #
edge $-1 $286 -5.2203520709185405 $287 -2.2203520709185405 $180 $288 forward 7 unknown #
coedge $-1 $107 $106 $284 $289 reversed $42 $-1 #
coedge $-1 $290 $291 $106 $184 forward $292 $-1 #
edge $-1 $293 -49.879451887569815 $188 49.879451887569815 $183 $294 forward 7 unknown #
edge $-1 $287 -49.879451887569815 $189 49.879451887569815 $179 $295 forward 7 unknown #
coedge $-1 $296 $108 $282 $297 forward $103 $-1 #
coedge $-1 $108 $296 $290 $298 reversed $103 $-1 #
vertex $-1 $298 $299 #
vertex $-1 $109 $300 #
straight-curve $-1 49.879451887569815 13.124279453233479 -5.940704141837081 0 -1 0 I I #
face $-1 $-1 $301 $24 $-1 $302 reversed single #
loop $-1 $-1 $116 $110 #
plane-surface $-1 0 0 8.940704141837081 0 0 1 1 0 0 forward_v I I I I #
coedge $-1 $303 $304 $305 $306 reversed $111 $-1 #
coedge $-1 $307 $113 $115 $201 forward $69 $-1 #
coedge $-1 $113 $307 $303 $308 forward $69 $-1 #
coedge $-1 $305 $116 $113 $198 forward $192 $-1 #
edge $-1 $204 -13.705216767764098 $309 -5.0577617959417918 $197 $310 forward 7 unknown #
coedge $-1 $311 $312 $114 $200 forward $301 $-1 #
edge $-1 $313 -68.786745908701263 $203 -61.979959664426467 $199 $314 forward 7 unknown #
edge $-1 $204 91.235884089001544 $313 99.758903775139615 $115 $315 forward 7 unknown #
coedge $-1 $116 $305 $311 $316 forward $192 $-1 #
vertex $-1 $200 $317 #
vertex $-1 $117 $318 #
straight-curve $-1 34.757024904931107 23.086706049617042 8.9407041418370881 -1 0 0 I I #
coedge $-1 $206 $206 $-1 $319 reversed $120 $-1 #
edge $-1 $320 0 $320 6.2831853071796004 $121 $321 forward 7 unknown #
vertex $-1 $124 $322 #
ellipse-curve $-1 47.314811289208677 18.762978563705889 5.5373110196996835 0.79863551827123203 0 0.60181501223851219 0.60181501223851219 0 -0.79863551827123203 1 I I #
face $-1 $-1 $222 $26 $-1 $323 forward single #
loop $-1 $-1 $324 $125 #
plane-surface $-1 -49.879451887569815 0 0 1 0 0 0 0 -1 forward_v I I I I #
coedge $-1 $325 $326 $327 $328 reversed $126 $-1 #
coedge $-1 $329 $128 $130 $220 forward $78 $-1 #
coedge $-1 $128 $329 $325 $330 forward $78 $-1 #
coedge $-1 $327 $131 $128 $217 forward $222 $-1 #
edge $-1 $224 -14.63127485416954 $331 -2.2795875367254776 $216 $332 forward 7 unknown #
coedge $-1 $333 $334 $129 $219 forward $211 $-1 #
edge $-1 $335 -27.875192592519259 $223 -18.968573120583766 $218 $336 forward 7 unknown #
edge $-1 $224 -10.743324162913227 $335 0 $130 $337 forward 7 unknown #
coedge $-1 $131 $327 $333 $338 forward $222 $-1 #
loop $-1 $-1 $327 $210 #
vertex $-1 $219 $339 #
vertex $-1 $132 $340 #
straight-curve $-1 -66.29166605976026 -23.08670604961705 8.940704141837081 1 0 0 I I #
coedge $-1 $226 $226 $-1 $341 reversed $135 $-1 #
edge $-1 $342 0 $342 6.2831853071796004 $136 $343 forward 7 unknown #
vertex $-1 $139 $344 #
ellipse-curve $-1 -46.875656636076513 -16.910862390895016 4.4873944058693365 -0.82903758062907751 0 0.55919289150049634 1.3979822287512409 0 2.0725939515726939 1 I I #
face $-1 $-1 $155 $21 $-1 $345 reversed single #
loop $-1 $-1 $246 $140 #
plane-surface $-1 0 29.410411763316869 0 0 -1 0 0 0 -1 forward_v I I I I #
coedge $-1 $346 $244 $247 $347 forward $141 $-1 #
coedge $-1 $250 $143 $144 $238 reversed $87 $-1 #
coedge $-1 $244 $346 $143 $236 reversed $141 $-1 #
edge $-1 $251 -8.940704141837081 $348 8.940704141837081 $235 $349 forward 7 unknown #
coedge $-1 $145 $144 $346 $350 forward $57 $-1 #
edge $-1 $242 -49.879451887569815 $348 49.879451887569815 $234 $351 forward 7 unknown #
coedge $-1 $247 $246 $145 $240 reversed $231 $-1 #
edge $-1 $352 -49.879451887569815 $241 49.879451887569815 $239 $353 forward 7 unknown #
vertex $-1 $147 $354 #
vertex $-1 $253 $355 #
straight-curve $-1 49.879451887569815 0 -8.940704141837081 0 -1 0 I I #
coedge $-1 $233 $235 $148 $245 reversed $141 $-1 #
edge $-1 $248 -29.410411763316869 $251 29.410411763316869 $244 $356 forward 7 unknown #
coedge $-1 $239 $149 $154 $254 forward $231 $-1 #
coedge $-1 $149 $239 $233 $347 reversed $231 $-1 #
vertex $-1 $150 $357 #
straight-curve $-1 0 29.410411763316869 8.940704141837081 -1 0 0 I I #
coedge $-1 $151 $234 $153 $253 reversed $87 $-1 #
vertex $-1 $245 $358 #
straight-curve $-1 0 -29.410411763316869 8.940704141837081 1 0 0 I I #
edge $-1 $156 -8.940704141837081 $242 8.940704141837081 $153 $359 forward 7 unknown #
edge $-1 $157 -8.940704141837081 $241 8.940704141837081 $154 $360 forward 7 unknown #
point $-1 49.879451887569815 -29.410411763316869 8.940704141837081 #
point $-1 49.879451887569815 29.410411763316869 8.940704141837081 #
face $-1 $-1 $361 $22 $-1 $362 reversed single #
loop $-1 $-1 $169 $159 #
plane-surface $-1 0 -29.410411763316869 0 0 1 0 0 0 1 forward_v I I I I #
coedge $-1 $363 $162 $264 $364 forward $95 $-1 #
coedge $-1 $162 $363 $365 $366 forward $95 $-1 #
edge $-1 $367 -49.879451887569815 $265 49.879451887569815 $162 $368 forward 7 unknown #
coedge $-1 $164 $163 $369 $370 reversed $61 $-1 #
coedge $-1 $165 $171 $260 $364 reversed $160 $-1 #
vertex $-1 $364 $371 #
straight-curve $-1 49.879451887569815 -23.086706049617046 -3.7203520709185405 0 0 1 I I #
coedge $-1 $369 $372 $167 $268 forward $361 $-1 #
edge $-1 $273 -16.286132310083389 $269 -9.9624265963835672 $267 $373 forward 7 unknown #
vertex $-1 $268 $374 #
straight-curve $-1 0 -23.086706049617046 -5.940704141837081 -1 0 0 I I #
coedge $-1 $375 $169 $372 $376 forward $258 $-1 #
coedge $-1 $169 $375 $171 $275 reversed $258 $-1 #
vertex $-1 $376 $377 #
straight-curve $-1 0 -29.410411763316869 -5.940704141837081 -1 0 0 I I #
edge $-1 $173 5.940704141837081 $378 8.940704141837081 $171 $379 forward 7 unknown #
point $-1 49.879451887569815 -23.086706049617046 -5.940704141837081 #
point $-1 49.879451887569815 -29.410411763316869 -5.940704141837081 #
face $-1 $-1 $292 $23 $-1 $380 reversed single #
loop $-1 $-1 $284 $175 #
plane-surface $-1 -49.879451887569815 0 0 1 0 0 0 0 -1 forward_v I I I I #
coedge $-1 $381 $382 $178 $283 forward $176 $-1 #
coedge $-1 $179 $178 $186 $297 reversed $65 $-1 #
edge $-1 $383 -49.879451887569815 $286 49.879451887569815 $281 $384 forward 7 unknown #
coedge $-1 $385 $180 $182 $289 forward $279 $-1 #
coedge $-1 $180 $385 $381 $386 reversed $279 $-1 #
vertex $-1 $386 $387 #
vertex $-1 $289 $388 #
straight-curve $-1 -49.879451887569815 23.086706049617046 -3.7203520709185405 0 0 1 I I #
edge $-1 $287 9.9624265963835672 $293 16.286132310083389 $284 $389 forward 7 unknown #
coedge $-1 $390 $183 $187 $298 forward $292 $-1 #
coedge $-1 $183 $390 $385 $391 reversed $292 $-1 #
loop $-1 $-1 $183 $278 #
vertex $-1 $391 $392 #
straight-curve $-1 0 29.410411763316869 -5.940704141837081 1 0 0 I I #
straight-curve $-1 0 23.086706049617046 -5.940704141837081 1 0 0 I I #
coedge $-1 $187 $186 $382 $393 reversed $103 $-1 #
edge $-1 $189 2.2203520709185405 $383 5.2203520709185405 $186 $394 forward 7 unknown #
edge $-1 $188 5.940704141837081 $395 8.940704141837081 $187 $396 forward 7 unknown #
point $-1 49.879451887569815 29.410411763316869 -5.940704141837081 #
point $-1 49.879451887569815 23.086706049617046 -5.940704141837081 #
loop $-1 $-1 $199 $191 #
plane-surface $-1 49.879451887569815 0 0 -1 0 0 0 0 1 forward_v I I I I #
coedge $-1 $304 $194 $196 $308 reversed $111 $-1 #
coedge $-1 $194 $303 $397 $398 reversed $111 $-1 #
coedge $-1 $202 $197 $194 $306 forward $192 $-1 #
edge $-1 $309 9.9931457859164468 $399 15.122426982638707 $305 $400 forward 7 unknown #
coedge $-1 $196 $195 $312 $401 reversed $69 $-1 #
edge $-1 $402 -99.758903775139615 $309 -91.235884089001544 $303 $403 forward 7 unknown #
vertex $-1 $198 $404 #
straight-curve $-1 44.75017069084754 9.3814892818529447 8.940704141837081 0 -1 0 I I #
coedge $-1 $397 $199 $202 $316 reversed $301 $-1 #
coedge $-1 $199 $397 $307 $401 forward $301 $-1 #
vertex $-1 $200 $405 #
straight-curve $-1 49.879451887569815 23.086706049617042 70.920663806263548 0 0 1 I I #
straight-curve $-1 -10.156954008766391 23.086706049617042 81.804921716190876 0.60181501223851219 0 -0.79863551827123203 I I #
edge $-1 $399 14.439251077794736 $203 23.086706049617042 $311 $406 forward 7 unknown #
point $-1 49.879451887569815 23.086706049617042 8.940704141837081 #
point $-1 44.750170690847554 23.086706049617042 8.9407041418370738 #
edge $-1 $407 1 $407 0 $206 $-1 forward 7 unknown #
vertex $-1 $207 $408 #
ellipse-curve $-1 46.110362563160834 18.762978563705889 4.6296938298504289 0.79863551827123203 0 0.60181501223851219 0.60181501223851219 0 -0.79863551827123203 1 I I #
point $-1 47.916626301447188 18.762978563705889 4.7386755014284523 #
plane-surface $-1 0 0 8.940704141837081 0 0 1 1 0 0 forward_v I I I I #
coedge $-1 $334 $333 $326 $409 forward $211 $-1 #
coedge $-1 $326 $213 $215 $330 reversed $126 $-1 #
coedge $-1 $213 $325 $324 $409 reversed $126 $-1 #
coedge $-1 $221 $216 $213 $328 forward $222 $-1 #
edge $-1 $331 -22.419804675177041 $410 -16.412214172190446 $327 $411 forward 7 unknown #
coedge $-1 $215 $214 $334 $412 reversed $78 $-1 #
edge $-1 $413 0 $331 10.743324162913227 $325 $414 forward 7 unknown #
vertex $-1 $217 $415 #
straight-curve $-1 -43.871861384583219 -8.4554311954475097 8.940704141837081 0 1 0 I I #
coedge $-1 $324 $218 $221 $338 reversed $211 $-1 #
coedge $-1 $218 $324 $329 $412 forward $211 $-1 #
vertex $-1 $219 $416 #
straight-curve $-1 -49.879451887569815 -23.08670604961705 27.909277262420847 0 0 1 I I #
straight-curve $-1 -49.879451887569815 -23.08670604961705 0.034084669901588427 -0.55919289150049634 0 -0.82903758062907751 I I #
edge $-1 $410 10.735018732172987 $223 23.08670604961705 $333 $417 forward 7 unknown #
point $-1 -49.879451887569815 -23.08670604961705 8.940704141837081 #
point $-1 -43.871861384583219 -23.08670604961705 8.940704141837081 #
edge $-1 $418 1 $418 0 $226 $-1 forward 7 unknown #
vertex $-1 $227 $419 #
ellipse-curve $-1 -42.025962631285672 -16.910862390895016 1.2162345974396596 -0.82903758062907751 0 0.55919289150049634 1.3979822287512409 0 2.0725939515726939 1 I I #
point $-1 -45.477674407325274 -16.910862390895016 6.5599883574420286 #
plane-surface $-1 49.879451887569815 0 0 -1 0 0 0 0 1 forward_v I I I I #
coedge $-1 $235 $233 $237 $350 reversed $141 $-1 #
edge $-1 $248 -8.940704141837081 $352 8.940704141837081 $247 $420 forward 7 unknown #
vertex $-1 $350 $421 #
straight-curve $-1 -49.879451887569815 -29.410411763316869 0 0 0 -1 I I #
edge $-1 $348 -29.410411763316869 $352 29.410411763316869 $346 $422 forward 7 unknown #
straight-curve $-1 0 -29.410411763316869 -8.940704141837081 -1 0 0 I I #
vertex $-1 $240 $423 #
straight-curve $-1 0 29.410411763316869 -8.940704141837081 1 0 0 I I #
point $-1 49.879451887569815 29.410411763316869 -8.940704141837081 #
point $-1 49.879451887569815 -29.410411763316869 -8.940704141837081 #
straight-curve $-1 -49.879451887569815 0 8.940704141837081 0 -1 0 I I #
point $-1 -49.879451887569815 29.410411763316869 8.940704141837081 #
point $-1 -49.879451887569815 -29.410411763316869 8.940704141837081 #
straight-curve $-1 49.879451887569815 -29.410411763316869 0 0 0 -1 I I #
straight-curve $-1 49.879451887569815 29.410411763316869 0 0 0 -1 I I #
loop $-1 $-1 $369 $257 #
plane-surface $-1 -49.879451887569815 0 0 1 0 0 0 0 -1 forward_v I I I I #
coedge $-1 $261 $260 $375 $424 forward $95 $-1 #
edge $-1 $265 23.086706049617046 $378 29.410411763316869 $264 $425 forward 7 unknown #
coedge $-1 $372 $369 $261 $366 reversed $361 $-1 #
edge $-1 $426 -29.410411763316869 $367 -23.086706049617046 $365 $427 forward 7 unknown #
vertex $-1 $370 $428 #
straight-curve $-1 0 -23.086706049617046 -8.940704141837081 1 0 0 I I #
coedge $-1 $365 $267 $263 $370 forward $361 $-1 #
edge $-1 $269 2.2203520709185405 $367 5.2203520709185405 $369 $429 forward 7 unknown #
point $-1 49.879451887569815 -23.086706049617046 -8.940704141837081 #
coedge $-1 $267 $365 $271 $376 reversed $361 $-1 #
straight-curve $-1 -49.879451887569815 -13.124279453233479 -5.940704141837081 0 1 0 I I #
point $-1 -49.879451887569815 -23.086706049617046 -5.940704141837081 #
coedge $-1 $272 $271 $363 $424 reversed $258 $-1 #
edge $-1 $273 5.940704141837081 $426 8.940704141837081 $372 $430 forward 7 unknown #
point $-1 -49.879451887569815 -29.410411763316869 -5.940704141837081 #
vertex $-1 $275 $431 #
straight-curve $-1 49.879451887569815 -29.410411763316869 0 0 0 -1 I I #
plane-surface $-1 0 29.410411763316869 0 0 -1 0 0 0 -1 forward_v I I I I #
coedge $-1 $432 $281 $285 $386 forward $176 $-1 #
coedge $-1 $281 $432 $296 $393 forward $176 $-1 #
vertex $-1 $283 $433 #
straight-curve $-1 0 23.086706049617046 -8.940704141837081 -1 0 0 I I #
coedge $-1 $285 $284 $291 $391 forward $279 $-1 #
edge $-1 $286 23.086706049617046 $434 29.410411763316869 $285 $435 forward 7 unknown #
point $-1 -49.879451887569815 23.086706049617046 -8.940704141837081 #
point $-1 -49.879451887569815 23.086706049617046 -5.940704141837081 #
straight-curve $-1 -49.879451887569815 13.124279453233479 -5.940704141837081 0 1 0 I I #
coedge $-1 $291 $290 $432 $436 reversed $292 $-1 #
edge $-1 $293 5.940704141837081 $434 8.940704141837081 $291 $437 forward 7 unknown #
point $-1 -49.879451887569815 29.410411763316869 -5.940704141837081 #
edge $-1 $395 -29.410411763316869 $383 -23.086706049617046 $296 $438 forward 7 unknown #
straight-curve $-1 49.879451887569815 23.086706049617046 -3.7203520709185405 0 0 -1 I I #
vertex $-1 $393 $439 #
straight-curve $-1 49.879451887569815 29.410411763316869 0 0 0 -1 I I #
coedge $-1 $312 $311 $304 $398 forward $301 $-1 #
edge $-1 $399 61.979959664426467 $402 68.786745908701263 $397 $440 forward 7 unknown #
vertex $-1 $316 $441 #
straight-curve $-1 34.757024904931107 14.439251077794736 8.9407041418370881 1 0 0 I I #
edge $-1 $402 5.0577617959417918 $313 13.705216767764098 $312 $442 forward 7 unknown #
vertex $-1 $401 $443 #
straight-curve $-1 -10.156954008766391 14.439251077794736 81.804921716190876 -0.60181501223851219 0 0.79863551827123203 I I #
point $-1 44.750170690847554 14.439251077794736 8.9407041418370738 #
point $-1 49.879451887569815 23.086706049617042 2.1339178975622843 #
straight-curve $-1 49.879451887569815 0 8.940704141837081 0 1 0 I I #
vertex $-1 $319 $444 #
point $-1 46.712177575399352 18.762978563705889 3.8310583115791967 #
edge $-1 $410 18.968573120583766 $413 27.875192592519259 $324 $445 forward 7 unknown #
vertex $-1 $338 $446 #
straight-curve $-1 -66.29166605976026 -10.735018732172987 8.940704141837081 -1 0 0 I I #
edge $-1 $413 2.2795875367254776 $335 14.63127485416954 $334 $447 forward 7 unknown #
vertex $-1 $412 $448 #
straight-curve $-1 -49.879451887569815 -10.735018732172987 0.034084669901588427 0.55919289150049634 0 0.82903758062907751 I I #
point $-1 -43.871861384583219 -10.735018732172987 8.940704141837081 #
point $-1 -49.879451887569815 -23.08670604961705 0.034084669901588427 #
straight-curve $-1 -49.879451887569815 0 8.940704141837081 0 -1 0 I I #
vertex $-1 $341 $449 #
point $-1 -40.627980402534426 -16.910862390895016 3.2888285490123534 #
straight-curve $-1 -49.879451887569815 29.410411763316869 0 0 0 -1 I I #
point $-1 -49.879451887569815 -29.410411763316869 -8.940704141837081 #
straight-curve $-1 -49.879451887569815 0 -8.940704141837081 0 1 0 I I #
point $-1 -49.879451887569815 29.410411763316869 -8.940704141837081 #
edge $-1 $378 -49.879451887569815 $426 49.879451887569815 $375 $450 forward 7 unknown #
straight-curve $-1 49.879451887569815 0 -8.940704141837081 0 -1 0 I I #
vertex $-1 $366 $451 #
straight-curve $-1 -49.879451887569815 0 -8.940704141837081 0 1 0 I I #
point $-1 -49.879451887569815 -23.086706049617046 -8.940704141837081 #
straight-curve $-1 -49.879451887569815 -23.086706049617046 -3.7203520709185405 0 0 -1 I I #
straight-curve $-1 -49.879451887569815 -29.410411763316869 0 0 0 -1 I I #
point $-1 49.879451887569815 -29.410411763316869 -8.940704141837081 #
coedge $-1 $382 $381 $390 $436 forward $176 $-1 #
point $-1 49.879451887569815 23.086706049617046 -8.940704141837081 #
vertex $-1 $436 $452 #
straight-curve $-1 -49.879451887569815 0 -8.940704141837081 0 1 0 I I #
edge $-1 $434 -49.879451887569815 $395 49.879451887569815 $390 $453 forward 7 unknown #
straight-curve $-1 -49.879451887569815 29.410411763316869 0 0 0 -1 I I #
straight-curve $-1 49.879451887569815 0 -8.940704141837081 0 -1 0 I I #
point $-1 49.879451887569815 29.410411763316869 -8.940704141837081 #
straight-curve $-1 49.879451887569815 14.439251077794736 70.920663806263548 0 0 -1 I I #
point $-1 49.879451887569815 14.439251077794736 8.940704141837081 #
straight-curve $-1 49.879451887569815 9.3814892818529447 2.1339178975622843 0 1 0 I I #
point $-1 49.879451887569815 14.439251077794736 2.1339178975622843 #
point $-1 45.311727044889608 18.762978563705889 4.0278788176119162 #
straight-curve $-1 -49.879451887569815 -10.735018732172987 27.909277262420847 0 0 -1 I I #
point $-1 -49.879451887569815 -10.735018732172987 8.940704141837081 #
straight-curve $-1 -49.879451887569815 -8.4554311954475097 0.034084669901585291 0 -1 0 I I #
point $-1 -49.879451887569815 -10.735018732172987 0.034084669901588427 #
point $-1 -39.953368679712973 -16.910862390895016 -0.18174763131158134 #
straight-curve $-1 0 -29.410411763316869 -8.940704141837081 -1 0 0 I I #
point $-1 -49.879451887569815 -29.410411763316869 -8.940704141837081 #
point $-1 -49.879451887569815 29.410411763316869 -8.940704141837081 #
straight-curve $-1 0 29.410411763316869 -8.940704141837081 1 0 0 I I #
End-of-ACIS-data 