500 0 14 0           
7 Unknown 11 ACIS 5.0 NT 24 Thu Mar 25 23:52:43 1999 
-1 9.9999999999999995e-007 1e-010 
body $-1 $14 $-1 $15 #
body $-1 $16 $-1 $17 #
body $-1 $18 $-1 $19 #
body $-1 $20 $-1 $21 #
body $-1 $22 $-1 $23 #
body $-1 $24 $-1 $25 #
body $-1 $26 $-1 $27 #
body $-1 $28 $-1 $29 #
body $-1 $30 $-1 $31 #
body $-1 $32 $-1 $33 #
body $-1 $34 $-1 $35 #
body $-1 $36 $-1 $37 #
body $-1 $38 $-1 $39 #
body $-1 $40 $-1 $41 #
lump $-1 $-1 $42 $0 #
transform $-1 1 0 0 0 1 0 0 0 1 71.34861293374432 35.634241325785673 10.084967709423305 1 rotate no_reflect no_shear #
lump $-1 $-1 $43 $1 #
transform $-1 1 0 0 0 1 0 0 0 1 71.34861293374432 35.634241325785673 10.084967709423305 1 rotate no_reflect no_shear #
lump $-1 $-1 $44 $2 #
transform $-1 1 0 0 0 1 0 0 0 1 71.34861293374432 35.634241325785673 10.084967709423305 1 rotate no_reflect no_shear #
lump $-1 $-1 $45 $3 #
transform $-1 1 0 0 0 1 0 0 0 1 71.34861293374432 35.634241325785673 10.084967709423305 1 rotate no_reflect no_shear #
lump $-1 $-1 $46 $4 #
transform $-1 1 0 0 0 1 0 0 0 1 71.34861293374432 35.634241325785673 10.084967709423305 1 rotate no_reflect no_shear #
lump $-1 $-1 $47 $5 #
transform $-1 1 0 0 0 1 0 0 0 1 71.34861293374432 35.634241325785673 10.084967709423305 1 rotate no_reflect no_shear #
lump $-1 $-1 $48 $6 #
transform $-1 1 0 0 0 1 0 0 0 1 71.34861293374432 35.634241325785673 10.084967709423305 1 rotate no_reflect no_shear #
lump $-1 $-1 $49 $7 #
transform $-1 1 0 0 0 1 0 0 0 1 71.34861293374432 35.634241325785673 10.084967709423305 1 rotate no_reflect no_shear #
lump $-1 $-1 $50 $8 #
transform $-1 1 0 0 0 1 0 0 0 1 71.34861293374432 35.634241325785673 10.084967709423305 1 rotate no_reflect no_shear #
lump $-1 $-1 $51 $9 #
transform $-1 1 0 0 0 1 0 0 0 1 71.34861293374432 35.634241325785673 10.084967709423305 1 rotate no_reflect no_shear #
lump $-1 $-1 $52 $10 #
transform $-1 1 0 0 0 1 0 0 0 1 71.34861293374432 35.634241325785673 10.084967709423305 1 rotate no_reflect no_shear #
lump $-1 $-1 $53 $11 #
transform $-1 1 0 0 0 1 0 0 0 1 71.34861293374432 35.634241325785673 10.084967709423305 1 rotate no_reflect no_shear #
lump $-1 $-1 $54 $12 #
transform $-1 1 0 0 0 1 0 0 0 1 71.34861293374432 35.634241325785673 10.084967709423305 1 rotate no_reflect no_shear #
lump $-1 $-1 $55 $13 #
transform $-1 1 0 0 0 1 0 0 0 1 71.34861293374432 35.634241325785673 10.084967709423305 1 rotate no_reflect no_shear #
shell $-1 $-1 $-1 $56 $-1 $14 #
shell $-1 $-1 $-1 $57 $-1 $16 #
shell $-1 $-1 $-1 $58 $-1 $18 #
shell $-1 $-1 $-1 $59 $-1 $20 #
shell $-1 $-1 $-1 $60 $-1 $22 #
shell $-1 $-1 $-1 $61 $-1 $24 #
shell $-1 $-1 $-1 $62 $-1 $26 #
shell $-1 $-1 $-1 $63 $-1 $28 #
shell $-1 $-1 $-1 $64 $-1 $30 #
shell $-1 $-1 $-1 $65 $-1 $32 #
shell $-1 $-1 $-1 $66 $-1 $34 #
shell $-1 $-1 $-1 $67 $-1 $36 #
shell $-1 $-1 $-1 $68 $-1 $38 #
shell $-1 $-1 $-1 $69 $-1 $40 #
face $-1 $70 $71 $42 $-1 $72 reversed single #
face $-1 $73 $74 $43 $-1 $75 forward single #
face $-1 $76 $77 $44 $-1 $78 reversed single #
face $-1 $79 $80 $45 $-1 $81 forward single #
face $-1 $82 $83 $46 $-1 $84 forward single #
face $-1 $85 $86 $47 $-1 $87 reversed single #
face $-1 $88 $89 $48 $-1 $90 forward single #
face $-1 $91 $92 $49 $-1 $93 forward single #
face $-1 $94 $95 $50 $-1 $96 reversed single #
face $-1 $97 $98 $51 $-1 $99 forward single #
face $-1 $100 $101 $52 $-1 $102 forward single #
face $-1 $103 $104 $53 $-1 $105 reversed single #
face $-1 $106 $107 $54 $-1 $108 forward single #
face $-1 $109 $110 $55 $-1 $111 forward single #
face $-1 $112 $113 $42 $-1 $114 forward single #
loop $-1 $-1 $115 $56 #
plane-surface $-1 0 -35.634241325785673 0 0 1 0 0 0 1 forward_v I I I I #
face $-1 $116 $117 $43 $-1 $118 reversed single #
loop $-1 $-1 $119 $57 #
plane-surface $-1 0 -35.634241325785673 0 0 1 0 0 0 1 forward_v I I I I #
face $-1 $120 $121 $44 $-1 $122 reversed single #
loop $-1 $-1 $123 $58 #
plane-surface $-1 -56.969146699671604 96.572875095471517 148.87188000604516 -1 0 0 0 0.75470958851134928 0.65605901945558964 forward_v I I I I #
face $-1 $124 $125 $45 $-1 $126 forward single #
loop $-1 $127 $128 $59 #
cone-surface $-1 -67.240194009723538 30.63024078282449 4.6822054244951321 0 -0.75470958851134928 -0.65605901945558964 1.5 0 0 1 I I 0 1 1.5 forward I I I I #
face $-1 $129 $130 $46 $-1 $131 forward single #
loop $-1 $132 $133 $60 #
cone-surface $-1 -61.077565623692379 30.63024078282449 4.6822054244951321 0 -0.75470958851134928 -0.65605901945558964 1.5 0 0 1 I I 0 1 1.5 forward I I I I #
face $-1 $134 $135 $47 $-1 $136 reversed single #
loop $-1 $-1 $137 $61 #
plane-surface $-1 -21.294840232799441 96.572875095471517 148.87188000604516 -1 0 0 0 0.75470958851134928 0.65605901945558964 forward_v I I I I #
face $-1 $138 $139 $48 $-1 $140 forward single #
loop $-1 $141 $142 $62 #
cone-surface $-1 -31.565887542851385 30.63024078282449 4.6822054244951321 0 -0.75470958851134928 -0.65605901945558964 1.5 0 0 1 I I 0 1 1.5 forward I I I I #
face $-1 $143 $144 $49 $-1 $145 forward single #
loop $-1 $146 $147 $63 #
cone-surface $-1 -25.403259156820219 30.63024078282449 4.6822054244951321 0 -0.75470958851134928 -0.65605901945558964 1.5 0 0 1 I I 0 1 1.5 forward I I I I #
face $-1 $148 $149 $50 $-1 $150 reversed single #
loop $-1 $-1 $151 $64 #
plane-surface $-1 14.379466234072726 96.572875095471517 148.87188000604516 -1 0 0 0 0.75470958851134928 0.65605901945558964 forward_v I I I I #
face $-1 $152 $153 $51 $-1 $154 forward single #
loop $-1 $155 $156 $65 #
cone-surface $-1 4.1084189240207678 30.63024078282449 4.6822054244951321 0 -0.75470958851134928 -0.65605901945558964 1.5 0 0 1 I I 0 1 1.5 forward I I I I #
face $-1 $157 $158 $52 $-1 $159 forward single #
loop $-1 $160 $161 $66 #
cone-surface $-1 10.271047310051941 30.63024078282449 4.6822054244951321 0 -0.75470958851134928 -0.65605901945558964 1.5 0 0 1 I I 0 1 1.5 forward I I I I #
face $-1 $162 $163 $53 $-1 $164 reversed single #
loop $-1 $-1 $165 $67 #
plane-surface $-1 50.053772700944897 96.572875095471517 148.87188000604516 -1 0 0 0 0.75470958851134928 0.65605901945558964 forward_v I I I I #
face $-1 $166 $167 $54 $-1 $168 forward single #
loop $-1 $169 $170 $68 #
cone-surface $-1 39.782725390892935 30.63024078282449 4.6822054244951321 0 -0.75470958851134928 -0.65605901945558964 1.5 0 0 1 I I 0 1 1.5 forward I I I I #
face $-1 $171 $172 $55 $-1 $173 forward single #
loop $-1 $174 $175 $69 #
cone-surface $-1 45.945353776924108 30.63024078282449 4.6822054244951321 0 -0.75470958851134928 -0.65605901945558964 1.5 0 0 1 I I 0 1 1.5 forward I I I I #
face $-1 $176 $177 $42 $-1 $178 reversed single #
loop $-1 $-1 $179 $70 #
plane-surface $-1 0 0 10.084967709423305 0 0 1 1 0 0 forward_v I I I I #
coedge $-1 $180 $181 $182 $183 reversed $71 $-1 #
face $-1 $184 $185 $43 $-1 $186 reversed single #
loop $-1 $-1 $187 $73 #
plane-surface $-1 0 0 -10.084967709423305 0 0 1 1 0 0 forward_v I I I I #
coedge $-1 $188 $189 $190 $191 forward $74 $-1 #
face $-1 $192 $193 $44 $-1 $194 reversed single #
loop $-1 $-1 $195 $76 #
plane-surface $-1 -64.158879816707966 -11.122089520691901 55.254077924387758 0 0.75470958851134928 0.65605901945558964 1 0 0 forward_v I I I I #
coedge $-1 $196 $197 $198 $199 reversed $77 $-1 #
face $-1 $-1 $200 $45 $-1 $201 forward single #
loop $-1 $202 $203 $79 #
cone-surface $-1 -67.240194009723538 28.805919738248242 3.0963473753908684 0 -0.75470958851134928 -0.65605901945558964 0.75 0 0 1 I I -0.70710678118654757 0.70710678118654757 0.75 forward I I I I #
loop $-1 $-1 $204 $59 #
coedge $-1 $128 $128 $205 $206 reversed $80 $-1 #
face $-1 $-1 $207 $46 $-1 $208 forward single #
loop $-1 $209 $210 $82 #
cone-surface $-1 -61.077565623692379 28.805919738248242 3.0963473753908684 0 -0.75470958851134928 -0.65605901945558964 0.75 0 0 1 I I -0.70710678118654757 0.70710678118654757 0.75 forward I I I I #
loop $-1 $-1 $211 $60 #
coedge $-1 $133 $133 $212 $213 reversed $83 $-1 #
face $-1 $214 $215 $47 $-1 $216 reversed single #
loop $-1 $-1 $217 $85 #
plane-surface $-1 -28.484573349835799 -11.122089520691901 55.254077924387758 0 0.75470958851134928 0.65605901945558964 1 0 0 forward_v I I I I #
coedge $-1 $218 $219 $220 $221 reversed $86 $-1 #
face $-1 $-1 $222 $48 $-1 $223 forward single #
loop $-1 $224 $225 $88 #
cone-surface $-1 -31.565887542851385 28.805919738248242 3.0963473753908684 0 -0.75470958851134928 -0.65605901945558964 0.75 0 0 1 I I -0.70710678118654757 0.70710678118654757 0.75 forward I I I I #
loop $-1 $-1 $226 $62 #
coedge $-1 $142 $142 $227 $228 reversed $89 $-1 #
face $-1 $-1 $229 $49 $-1 $230 forward single #
loop $-1 $231 $232 $91 #
cone-surface $-1 -25.403259156820219 28.805919738248242 3.0963473753908684 0 -0.75470958851134928 -0.65605901945558964 0.75 0 0 1 I I -0.70710678118654757 0.70710678118654757 0.75 forward I I I I #
loop $-1 $-1 $233 $63 #
coedge $-1 $147 $147 $234 $235 reversed $92 $-1 #
face $-1 $236 $237 $50 $-1 $238 reversed single #
loop $-1 $-1 $239 $94 #
plane-surface $-1 7.1897331170363685 -11.122089520691901 55.254077924387758 0 0.75470958851134928 0.65605901945558964 1 0 0 forward_v I I I I #
coedge $-1 $240 $241 $242 $243 reversed $95 $-1 #
face $-1 $-1 $244 $51 $-1 $245 forward single #
loop $-1 $246 $247 $97 #
cone-surface $-1 4.1084189240207678 28.805919738248242 3.0963473753908684 0 -0.75470958851134928 -0.65605901945558964 0.75 0 0 1 I I -0.70710678118654757 0.70710678118654757 0.75 forward I I I I #
loop $-1 $-1 $248 $65 #
coedge $-1 $156 $156 $249 $250 reversed $98 $-1 #
face $-1 $-1 $251 $52 $-1 $252 forward single #
loop $-1 $253 $254 $100 #
cone-surface $-1 10.271047310051941 28.805919738248242 3.0963473753908684 0 -0.75470958851134928 -0.65605901945558964 0.75 0 0 1 I I -0.70710678118654757 0.70710678118654757 0.75 forward I I I I #
loop $-1 $-1 $255 $66 #
coedge $-1 $161 $161 $256 $257 reversed $101 $-1 #
face $-1 $258 $259 $53 $-1 $260 reversed single #
loop $-1 $-1 $261 $103 #
plane-surface $-1 42.864039583908536 -11.122089520691901 55.254077924387758 0 0.75470958851134928 0.65605901945558964 1 0 0 forward_v I I I I #
coedge $-1 $262 $263 $264 $265 reversed $104 $-1 #
face $-1 $-1 $266 $54 $-1 $267 forward single #
loop $-1 $268 $269 $106 #
cone-surface $-1 39.782725390892935 28.805919738248242 3.0963473753908684 0 -0.75470958851134928 -0.65605901945558964 0.75 0 0 1 I I -0.70710678118654757 0.70710678118654757 0.75 forward I I I I #
loop $-1 $-1 $270 $68 #
coedge $-1 $170 $170 $271 $272 reversed $107 $-1 #
face $-1 $-1 $273 $55 $-1 $274 forward single #
loop $-1 $275 $276 $109 #
cone-surface $-1 45.945353776924108 28.805919738248242 3.0963473753908684 0 -0.75470958851134928 -0.65605901945558964 0.75 0 0 1 I I -0.70710678118654757 0.70710678118654757 0.75 forward I I I I #
loop $-1 $-1 $277 $69 #
coedge $-1 $175 $175 $278 $279 reversed $110 $-1 #
face $-1 $280 $281 $42 $-1 $282 reversed single #
loop $-1 $-1 $283 $112 #
plane-surface $-1 0 0 -10.084967709423305 0 0 1 1 0 0 forward_v I I I I #
coedge $-1 $284 $285 $286 $287 forward $113 $-1 #
coedge $-1 $288 $115 $289 $290 reversed $71 $-1 #
coedge $-1 $115 $288 $291 $292 forward $71 $-1 #
coedge $-1 $293 $283 $115 $183 forward $177 $-1 #
edge $-1 $294 -71.34861293374432 $295 71.34861293374432 $115 $296 forward 7 unknown #
face $-1 $297 $298 $43 $-1 $299 reversed single #
loop $-1 $-1 $300 $116 #
plane-surface $-1 -52.678677514897714 -46.909171822615313 0 0 1 0 0 0 1 forward_v I I I I #
coedge $-1 $301 $302 $189 $303 forward $117 $-1 #
coedge $-1 $304 $119 $305 $306 reversed $74 $-1 #
coedge $-1 $119 $304 $187 $303 reversed $74 $-1 #
coedge $-1 $307 $308 $119 $191 reversed $298 $-1 #
edge $-1 $309 -10.084967709423305 $310 10.084967709423305 $190 $311 forward 7 unknown #
face $-1 $312 $313 $44 $-1 $314 forward single #
loop $-1 $-1 $315 $120 #
plane-surface $-1 -71.34861293374432 0 0 1 0 0 0 0 -1 forward_v I I I I #
coedge $-1 $316 $317 $318 $319 reversed $121 $-1 #
coedge $-1 $197 $123 $320 $321 reversed $77 $-1 #
coedge $-1 $123 $196 $316 $322 reversed $77 $-1 #
coedge $-1 $318 $323 $123 $199 forward $324 $-1 #
edge $-1 $325 64.35097229359927 $326 72.968869294430448 $198 $327 forward 7 unknown #
loop $-1 $-1 $205 $124 #
plane-surface $-1 -64.158879816707966 -11.122089520691901 55.254077924387758 0 0.75470958851134928 0.65605901945558964 1 0 0 forward_v I I I I #
loop $-1 $-1 $328 $79 #
coedge $-1 $203 $203 $204 $329 reversed $125 $-1 #
coedge $-1 $204 $204 $203 $329 forward $127 $-1 #
coedge $-1 $205 $205 $128 $206 forward $200 $-1 #
edge $-1 $330 -1.5195099725680915e-016 $330 6.2831853071796004 $205 $331 forward 7 unknown #
loop $-1 $-1 $212 $129 #
plane-surface $-1 -64.158879816707966 -11.122089520691901 55.254077924387758 0 0.75470958851134928 0.65605901945558964 1 0 0 forward_v I I I I #
loop $-1 $-1 $332 $82 #
coedge $-1 $210 $210 $211 $333 reversed $130 $-1 #
coedge $-1 $211 $211 $210 $333 forward $132 $-1 #
coedge $-1 $212 $212 $133 $213 forward $207 $-1 #
edge $-1 $334 -1.5195099725680915e-016 $334 6.2831853071796004 $212 $335 forward 7 unknown #
face $-1 $336 $337 $47 $-1 $338 forward single #
loop $-1 $-1 $339 $134 #
plane-surface $-1 -35.67430646687216 96.572875095471517 148.87188000604516 1 0 0 0 -0.75470958851134928 -0.65605901945558964 forward_v I I I I #
coedge $-1 $340 $341 $342 $343 reversed $135 $-1 #
coedge $-1 $219 $137 $344 $345 reversed $86 $-1 #
coedge $-1 $137 $218 $340 $346 reversed $86 $-1 #
coedge $-1 $342 $347 $137 $221 forward $348 $-1 #
edge $-1 $349 64.35097229359927 $350 72.968869294430448 $220 $351 forward 7 unknown #
loop $-1 $-1 $227 $138 #
plane-surface $-1 -28.484573349835799 -11.122089520691901 55.254077924387758 0 0.75470958851134928 0.65605901945558964 1 0 0 forward_v I I I I #
loop $-1 $-1 $352 $88 #
coedge $-1 $225 $225 $226 $353 reversed $139 $-1 #
coedge $-1 $226 $226 $225 $353 forward $141 $-1 #
coedge $-1 $227 $227 $142 $228 forward $222 $-1 #
edge $-1 $354 -1.5195099725680915e-016 $354 6.2831853071796004 $227 $355 forward 7 unknown #
loop $-1 $-1 $234 $143 #
plane-surface $-1 -28.484573349835799 -11.122089520691901 55.254077924387758 0 0.75470958851134928 0.65605901945558964 1 0 0 forward_v I I I I #
loop $-1 $-1 $356 $91 #
coedge $-1 $232 $232 $233 $357 reversed $144 $-1 #
coedge $-1 $233 $233 $232 $357 forward $146 $-1 #
coedge $-1 $234 $234 $147 $235 forward $229 $-1 #
edge $-1 $358 -1.5195099725680915e-016 $358 6.2831853071796004 $234 $359 forward 7 unknown #
face $-1 $360 $361 $50 $-1 $362 forward single #
loop $-1 $-1 $363 $148 #
plane-surface $-1 9.7699626167013776e-015 96.572875095471517 148.87188000604516 1 0 0 0 -0.75470958851134928 -0.65605901945558964 forward_v I I I I #
coedge $-1 $364 $365 $366 $367 reversed $149 $-1 #
coedge $-1 $241 $151 $368 $369 reversed $95 $-1 #
coedge $-1 $151 $240 $364 $370 reversed $95 $-1 #
coedge $-1 $366 $371 $151 $243 forward $372 $-1 #
edge $-1 $373 64.35097229359927 $374 72.968869294430448 $242 $375 forward 7 unknown #
loop $-1 $-1 $249 $152 #
plane-surface $-1 7.1897331170363685 -11.122089520691901 55.254077924387758 0 0.75470958851134928 0.65605901945558964 1 0 0 forward_v I I I I #
loop $-1 $-1 $376 $97 #
coedge $-1 $247 $247 $248 $377 reversed $153 $-1 #
coedge $-1 $248 $248 $247 $377 forward $155 $-1 #
coedge $-1 $249 $249 $156 $250 forward $244 $-1 #
edge $-1 $378 -1.5195099725680915e-016 $378 6.2831853071796004 $249 $379 forward 7 unknown #
loop $-1 $-1 $256 $157 #
plane-surface $-1 7.1897331170363685 -11.122089520691901 55.254077924387758 0 0.75470958851134928 0.65605901945558964 1 0 0 forward_v I I I I #
loop $-1 $-1 $380 $100 #
coedge $-1 $254 $254 $255 $381 reversed $158 $-1 #
coedge $-1 $255 $255 $254 $381 forward $160 $-1 #
coedge $-1 $256 $256 $161 $257 forward $251 $-1 #
edge $-1 $382 -1.5195099725680915e-016 $382 6.2831853071796004 $256 $383 forward 7 unknown #
face $-1 $384 $385 $53 $-1 $386 forward single #
loop $-1 $-1 $387 $162 #
plane-surface $-1 35.674306466872174 96.572875095471517 148.87188000604516 1 0 0 0 -0.75470958851134928 -0.65605901945558964 forward_v I I I I #
coedge $-1 $388 $389 $390 $391 reversed $163 $-1 #
coedge $-1 $263 $165 $392 $393 reversed $104 $-1 #
coedge $-1 $165 $262 $388 $394 reversed $104 $-1 #
coedge $-1 $390 $395 $165 $265 forward $396 $-1 #
edge $-1 $397 64.35097229359927 $398 72.968869294430448 $264 $399 forward 7 unknown #
loop $-1 $-1 $271 $166 #
plane-surface $-1 42.864039583908536 -11.122089520691901 55.254077924387758 0 0.75470958851134928 0.65605901945558964 1 0 0 forward_v I I I I #
loop $-1 $-1 $400 $106 #
coedge $-1 $269 $269 $270 $401 reversed $167 $-1 #
coedge $-1 $270 $270 $269 $401 forward $169 $-1 #
coedge $-1 $271 $271 $170 $272 forward $266 $-1 #
edge $-1 $402 -1.5195099725680915e-016 $402 6.2831853071796004 $271 $403 forward 7 unknown #
loop $-1 $-1 $278 $171 #
plane-surface $-1 42.864039583908536 -11.122089520691901 55.254077924387758 0 0.75470958851134928 0.65605901945558964 1 0 0 forward_v I I I I #
loop $-1 $-1 $404 $109 #
coedge $-1 $276 $276 $277 $405 reversed $172 $-1 #
coedge $-1 $277 $277 $276 $405 forward $174 $-1 #
coedge $-1 $278 $278 $175 $279 forward $273 $-1 #
edge $-1 $406 -1.5195099725680915e-016 $406 6.2831853071796004 $278 $407 forward 7 unknown #
face $-1 $408 $409 $42 $-1 $410 reversed single #
loop $-1 $-1 $411 $176 #
plane-surface $-1 -71.34861293374432 0 0 1 0 0 0 0 -1 forward_v I I I I #
coedge $-1 $182 $412 $413 $414 forward $177 $-1 #
coedge $-1 $415 $179 $416 $417 forward $113 $-1 #
coedge $-1 $179 $415 $288 $418 forward $113 $-1 #
coedge $-1 $289 $419 $179 $287 reversed $420 $-1 #
edge $-1 $421 -35.634241325785673 $422 35.634241325785673 $286 $423 forward 7 unknown #
coedge $-1 $181 $180 $285 $418 reversed $71 $-1 #
coedge $-1 $413 $286 $180 $290 forward $420 $-1 #
edge $-1 $421 -10.084967709423305 $294 10.084967709423305 $289 $424 forward 7 unknown #
coedge $-1 $425 $426 $181 $292 reversed $281 $-1 #
edge $-1 $427 -10.084967709423305 $295 10.084967709423305 $291 $428 forward 7 unknown #
coedge $-1 $412 $182 $426 $429 forward $177 $-1 #
vertex $-1 $290 $430 #
vertex $-1 $429 $431 #
straight-curve $-1 0 -35.634241325785673 -10.084967709423305 -1 0 0 I I #
face $-1 $432 $433 $43 $-1 $434 reversed single #
loop $-1 $-1 $190 $184 #
plane-surface $-1 -54.178677514897714 -41.271706574200493 0 1 0 0 0 0 -1 forward_v I I I I #
coedge $-1 $435 $436 $437 $438 forward $185 $-1 #
coedge $-1 $439 $187 $440 $441 forward $117 $-1 #
coedge $-1 $187 $439 $307 $442 forward $117 $-1 #
edge $-1 $309 -54.178677514897714 $443 -51.178677514897714 $187 $444 forward 7 unknown #
coedge $-1 $189 $188 $445 $446 forward $74 $-1 #
coedge $-1 $447 $448 $188 $306 forward $449 $-1 #
edge $-1 $450 51.178677514897714 $310 54.178677514897714 $305 $451 forward 7 unknown #
coedge $-1 $437 $190 $302 $442 reversed $298 $-1 #
coedge $-1 $190 $437 $447 $452 reversed $298 $-1 #
vertex $-1 $303 $453 #
vertex $-1 $452 $454 #
straight-curve $-1 -54.178677514897714 -35.634241325785673 0 0 0 1 I I #
face $-1 $-1 $324 $44 $-1 $455 reversed single #
loop $-1 $-1 $320 $192 #
plane-surface $-1 0 0 10.084967709423305 0 0 1 1 0 0 forward_v I I I I #
coedge $-1 $456 $457 $317 $458 forward $193 $-1 #
coedge $-1 $459 $195 $197 $322 forward $121 $-1 #
coedge $-1 $195 $459 $315 $458 reversed $121 $-1 #
coedge $-1 $460 $198 $195 $319 forward $324 $-1 #
edge $-1 $326 24.889706791317622 $461 39.269173025390337 $318 $462 forward 7 unknown #
coedge $-1 $463 $464 $196 $321 forward $313 $-1 #
edge $-1 $465 -20.14361960148694 $325 -12.652196221950085 $320 $466 forward 7 unknown #
edge $-1 $326 -71.268482651571333 $465 -59.849657275535215 $197 $467 forward 7 unknown #
coedge $-1 $198 $460 $463 $468 reversed $324 $-1 #
loop $-1 $-1 $318 $312 #
vertex $-1 $468 $469 #
vertex $-1 $199 $470 #
straight-curve $-1 -56.969146699671604 35.634241325785673 74.43594000302258 0 0 -1 I I #
coedge $-1 $328 $328 $-1 $471 reversed $202 $-1 #
edge $-1 $472 0 $472 6.2831853071796004 $203 $473 forward 7 unknown #
vertex $-1 $206 $474 #
ellipse-curve $-1 -67.240194009723538 31.88852963601725 5.7760192090077247 0 0.75470958851134928 0.65605901945558964 1.5 0 0 1 I I #
coedge $-1 $332 $332 $-1 $475 reversed $209 $-1 #
edge $-1 $476 0 $476 6.2831853071796004 $210 $477 forward 7 unknown #
vertex $-1 $213 $478 #
ellipse-curve $-1 -61.077565623692379 31.88852963601725 5.7760192090077247 0 0.75470958851134928 0.65605901945558964 1.5 0 0 1 I I #
face $-1 $-1 $348 $47 $-1 $479 reversed single #
loop $-1 $-1 $480 $214 #
plane-surface $-1 0 0 10.084967709423305 0 0 1 1 0 0 forward_v I I I I #
coedge $-1 $481 $482 $483 $484 reversed $215 $-1 #
coedge $-1 $485 $217 $219 $346 forward $135 $-1 #
coedge $-1 $217 $485 $481 $486 forward $135 $-1 #
coedge $-1 $483 $220 $217 $343 forward $348 $-1 #
edge $-1 $350 7.0525535578815415 $487 21.432019791954261 $342 $488 forward 7 unknown #
coedge $-1 $489 $490 $218 $345 forward $337 $-1 #
edge $-1 $491 -20.14361960148694 $349 -12.652196221950085 $344 $492 forward 7 unknown #
edge $-1 $350 -71.268482651571333 $491 -59.849657275535215 $219 $493 forward 7 unknown #
coedge $-1 $220 $483 $489 $494 reversed $348 $-1 #
loop $-1 $-1 $483 $336 #
vertex $-1 $494 $495 #
vertex $-1 $221 $496 #
straight-curve $-1 -21.294840232799441 35.634241325785673 74.43594000302258 0 0 -1 I I #
coedge $-1 $352 $352 $-1 $497 reversed $224 $-1 #
edge $-1 $498 0 $498 6.2831853071796004 $225 $499 forward 7 unknown #
vertex $-1 $228 $500 #
ellipse-curve $-1 -31.565887542851385 31.88852963601725 5.7760192090077247 0 0.75470958851134928 0.65605901945558964 1.5 0 0 1 I I #
coedge $-1 $356 $356 $-1 $501 reversed $231 $-1 #
edge $-1 $502 0 $502 6.2831853071796004 $232 $503 forward 7 unknown #
vertex $-1 $235 $504 #
ellipse-curve $-1 -25.403259156820219 31.88852963601725 5.7760192090077247 0 0.75470958851134928 0.65605901945558964 1.5 0 0 1 I I #
face $-1 $-1 $372 $50 $-1 $505 reversed single #
loop $-1 $-1 $506 $236 #
plane-surface $-1 0 0 10.084967709423305 0 0 1 1 0 0 forward_v I I I I #
coedge $-1 $507 $508 $509 $510 reversed $237 $-1 #
coedge $-1 $511 $239 $241 $370 forward $149 $-1 #
coedge $-1 $239 $511 $507 $512 forward $149 $-1 #
coedge $-1 $509 $242 $239 $367 forward $372 $-1 #
edge $-1 $374 -10.784599675554542 $513 3.5948665585181745 $366 $514 forward 7 unknown #
coedge $-1 $515 $516 $240 $369 forward $361 $-1 #
edge $-1 $517 -20.14361960148694 $373 -12.652196221950085 $368 $518 forward 7 unknown #
edge $-1 $374 -71.268482651571333 $517 -59.849657275535215 $241 $519 forward 7 unknown #
coedge $-1 $242 $509 $515 $520 reversed $372 $-1 #
loop $-1 $-1 $509 $360 #
vertex $-1 $520 $521 #
vertex $-1 $243 $522 #
straight-curve $-1 14.379466234072726 35.634241325785673 74.43594000302258 0 0 -1 I I #
coedge $-1 $376 $376 $-1 $523 reversed $246 $-1 #
edge $-1 $524 0 $524 6.2831853071796004 $247 $525 forward 7 unknown #
vertex $-1 $250 $526 #
ellipse-curve $-1 4.1084189240207678 31.88852963601725 5.7760192090077247 0 0.75470958851134928 0.65605901945558964 1.5 0 0 1 I I #
coedge $-1 $380 $380 $-1 $527 reversed $253 $-1 #
edge $-1 $528 0 $528 6.2831853071796004 $254 $529 forward 7 unknown #
vertex $-1 $257 $530 #
ellipse-curve $-1 10.271047310051941 31.88852963601725 5.7760192090077247 0 0.75470958851134928 0.65605901945558964 1.5 0 0 1 I I #
face $-1 $-1 $396 $53 $-1 $531 reversed single #
loop $-1 $-1 $532 $258 #
plane-surface $-1 0 0 10.084967709423305 0 0 1 1 0 0 forward_v I I I I #
coedge $-1 $533 $534 $535 $536 reversed $259 $-1 #
coedge $-1 $537 $261 $263 $394 forward $163 $-1 #
coedge $-1 $261 $537 $533 $538 forward $163 $-1 #
coedge $-1 $535 $264 $261 $391 forward $396 $-1 #
edge $-1 $398 -28.621752908990629 $539 -14.242286674917906 $390 $540 forward 7 unknown #
coedge $-1 $541 $542 $262 $393 forward $385 $-1 #
edge $-1 $543 -20.14361960148694 $397 -12.652196221950085 $392 $544 forward 7 unknown #
edge $-1 $398 -71.268482651571333 $543 -59.849657275535215 $263 $545 forward 7 unknown #
coedge $-1 $264 $535 $541 $546 reversed $396 $-1 #
loop $-1 $-1 $535 $384 #
vertex $-1 $546 $547 #
vertex $-1 $265 $548 #
straight-curve $-1 50.053772700944897 35.634241325785673 74.43594000302258 0 0 -1 I I #
coedge $-1 $400 $400 $-1 $549 reversed $268 $-1 #
edge $-1 $550 0 $550 6.2831853071796004 $269 $551 forward 7 unknown #
vertex $-1 $272 $552 #
ellipse-curve $-1 39.782725390892935 31.88852963601725 5.7760192090077247 0 0.75470958851134928 0.65605901945558964 1.5 0 0 1 I I #
coedge $-1 $404 $404 $-1 $553 reversed $275 $-1 #
edge $-1 $554 0 $554 6.2831853071796004 $276 $555 forward 7 unknown #
vertex $-1 $279 $556 #
ellipse-curve $-1 45.945353776924108 31.88852963601725 5.7760192090077247 0 0.75470958851134928 0.65605901945558964 1.5 0 0 1 I I #
face $-1 $-1 $420 $42 $-1 $557 reversed single #
loop $-1 $-1 $558 $280 #
plane-surface $-1 0 35.634241325785673 0 0 -1 0 0 0 -1 forward_v I I I I #
coedge $-1 $426 $425 $559 $560 forward $281 $-1 #
coedge $-1 $283 $293 $561 $562 forward $177 $-1 #
coedge $-1 $419 $289 $283 $414 reversed $420 $-1 #
edge $-1 $563 -35.634241325785673 $294 35.634241325785673 $413 $564 forward 7 unknown #
coedge $-1 $285 $284 $425 $565 forward $113 $-1 #
coedge $-1 $558 $559 $284 $417 reversed $409 $-1 #
edge $-1 $422 -71.34861293374432 $566 71.34861293374432 $416 $567 forward 7 unknown #
edge $-1 $427 -71.34861293374432 $421 71.34861293374432 $288 $568 forward 7 unknown #
coedge $-1 $286 $413 $558 $569 reversed $420 $-1 #
loop $-1 $-1 $289 $408 #
vertex $-1 $287 $570 #
vertex $-1 $287 $571 #
straight-curve $-1 71.34861293374432 0 10.084967709423305 0 1 0 I I #
straight-curve $-1 71.34861293374432 -35.634241325785673 0 0 0 -1 I I #
coedge $-1 $411 $291 $415 $565 reversed $281 $-1 #
coedge $-1 $291 $411 $293 $429 reversed $281 $-1 #
vertex $-1 $565 $572 #
straight-curve $-1 -71.34861293374432 -35.634241325785673 0 0 0 -1 I I #
edge $-1 $295 -35.634241325785673 $573 35.634241325785673 $426 $574 forward 7 unknown #
point $-1 71.34861293374432 -35.634241325785673 -10.084967709423305 #
point $-1 -71.34861293374432 -35.634241325785673 -10.084967709423305 #
face $-1 $-1 $449 $43 $-1 $575 forward single #
loop $-1 $-1 $576 $297 #
plane-surface $-1 -51.178677514897714 -41.271706574200493 0 -1 0 0 0 0 1 forward_v I I I I #
coedge $-1 $577 $300 $439 $578 reversed $185 $-1 #
coedge $-1 $300 $577 $579 $580 reversed $185 $-1 #
coedge $-1 $308 $307 $300 $438 reversed $298 $-1 #
edge $-1 $581 -10.084967709423305 $582 10.084967709423305 $437 $583 forward 7 unknown #
coedge $-1 $302 $301 $435 $578 forward $117 $-1 #
coedge $-1 $445 $576 $301 $441 reversed $433 $-1 #
edge $-1 $443 -5.63746524841482 $584 5.63746524841482 $440 $585 forward 7 unknown #
edge $-1 $582 -5.63746524841482 $309 5.63746524841482 $307 $586 forward 7 unknown #
vertex $-1 $441 $587 #
straight-curve $-1 0 -35.634241325785673 -10.084967709423305 1 0 0 I I #
coedge $-1 $588 $440 $304 $446 reversed $433 $-1 #
edge $-1 $450 -10.084967709423305 $443 10.084967709423305 $445 $589 forward 7 unknown #
coedge $-1 $579 $305 $308 $452 forward $449 $-1 #
coedge $-1 $305 $579 $588 $590 forward $449 $-1 #
loop $-1 $-1 $305 $432 #
vertex $-1 $306 $591 #
straight-curve $-1 0 -35.634241325785673 10.084967709423305 -1 0 0 I I #
edge $-1 $310 -5.63746524841482 $581 5.63746524841482 $308 $592 forward 7 unknown #
point $-1 -54.178677514897714 -35.634241325785673 -10.084967709423305 #
point $-1 -54.178677514897714 -35.634241325785673 10.084967709423305 #
plane-surface $-1 0 35.634241325785673 0 0 -1 0 0 0 -1 forward_v I I I I #
coedge $-1 $457 $315 $593 $594 reversed $193 $-1 #
coedge $-1 $315 $456 $460 $595 forward $193 $-1 #
edge $-1 $461 -46.769717872005742 $596 -35.350892495969639 $315 $597 forward 7 unknown #
coedge $-1 $317 $316 $464 $598 reversed $121 $-1 #
coedge $-1 $323 $318 $457 $595 reversed $324 $-1 #
vertex $-1 $458 $599 #
straight-curve $-1 -32.079439908353983 35.634241325785673 1.4670707085921357 -1 0 0 I I #
coedge $-1 $593 $320 $323 $468 forward $313 $-1 #
coedge $-1 $320 $593 $459 $598 forward $313 $-1 #
vertex $-1 $321 $600 #
straight-curve $-1 -56.969146699671604 48.286437547735758 10.08496770942331 0 1 0 I I #
straight-curve $-1 -56.969146699671604 -11.122089520691901 55.254077924387758 0 -0.65605901945558964 0.75470958851134928 I I #
edge $-1 $325 56.969146699671604 $601 71.34861293374432 $323 $602 forward 7 unknown #
point $-1 -56.969146699671604 35.634241325785673 10.084967709423305 #
point $-1 -56.969146699671604 35.63424132578568 1.4670707085921393 #
edge $-1 $603 1 $603 0 $328 $-1 forward 7 unknown #
vertex $-1 $329 $604 #
ellipse-curve $-1 -67.240194009723538 29.371951929631756 3.5883916399825608 0 0.75470958851134928 0.65605901945558964 1.5 0 0 1 I I #
point $-1 -65.740194009723538 31.888529636017225 5.7760192090077034 #
edge $-1 $605 1 $605 0 $332 $-1 forward 7 unknown #
vertex $-1 $333 $606 #
ellipse-curve $-1 -61.077565623692379 29.371951929631756 3.5883916399825608 0 0.75470958851134928 0.65605901945558964 1.5 0 0 1 I I #
point $-1 -59.577565623692379 31.888529636017225 5.7760192090077034 #
plane-surface $-1 0 35.634241325785673 0 0 -1 0 0 0 -1 forward_v I I I I #
coedge $-1 $490 $489 $482 $607 forward $337 $-1 #
coedge $-1 $482 $339 $341 $486 reversed $215 $-1 #
coedge $-1 $339 $481 $480 $607 reversed $215 $-1 #
coedge $-1 $347 $342 $339 $484 forward $348 $-1 #
edge $-1 $487 -72.968869294430448 $608 -64.35097229359927 $483 $609 forward 7 unknown #
coedge $-1 $341 $340 $490 $610 reversed $135 $-1 #
edge $-1 $611 59.849657275535215 $487 71.268482651571333 $481 $612 forward 7 unknown #
vertex $-1 $343 $613 #
straight-curve $-1 -14.242286674917899 35.634241325785673 1.4670707085921357 -1 0 0 I I #
coedge $-1 $480 $344 $347 $494 forward $337 $-1 #
coedge $-1 $344 $480 $485 $610 forward $337 $-1 #
vertex $-1 $345 $614 #
straight-curve $-1 -21.294840232799441 48.286437547735758 10.08496770942331 0 1 0 I I #
straight-curve $-1 -21.294840232799441 -11.122089520691901 55.254077924387758 0 -0.65605901945558964 0.75470958851134928 I I #
edge $-1 $349 21.294840232799441 $608 35.67430646687216 $347 $615 forward 7 unknown #
point $-1 -21.294840232799441 35.634241325785673 10.084967709423305 #
point $-1 -21.294840232799441 35.63424132578568 1.4670707085921393 #
edge $-1 $616 1 $616 0 $352 $-1 forward 7 unknown #
vertex $-1 $353 $617 #
ellipse-curve $-1 -31.565887542851385 29.371951929631756 3.5883916399825608 0 0.75470958851134928 0.65605901945558964 1.5 0 0 1 I I #
point $-1 -30.065887542851385 31.888529636017225 5.7760192090077034 #
edge $-1 $618 1 $618 0 $356 $-1 forward 7 unknown #
vertex $-1 $357 $619 #
ellipse-curve $-1 -25.403259156820219 29.371951929631756 3.5883916399825608 0 0.75470958851134928 0.65605901945558964 1.5 0 0 1 I I #
point $-1 -23.903259156820219 31.888529636017225 5.7760192090077034 #
plane-surface $-1 0 35.634241325785673 0 0 -1 0 0 0 -1 forward_v I I I I #
coedge $-1 $516 $515 $508 $620 forward $361 $-1 #
coedge $-1 $508 $363 $365 $512 reversed $237 $-1 #
coedge $-1 $363 $507 $506 $620 reversed $237 $-1 #
coedge $-1 $371 $366 $363 $510 forward $372 $-1 #
edge $-1 $513 -72.968869294430448 $621 -64.35097229359927 $509 $622 forward 7 unknown #
coedge $-1 $365 $364 $516 $623 reversed $149 $-1 #
edge $-1 $624 59.849657275535215 $513 71.268482651571333 $507 $625 forward 7 unknown #
vertex $-1 $367 $626 #
straight-curve $-1 3.5948665585181843 35.634241325785673 1.4670707085921357 -1 0 0 I I #
coedge $-1 $506 $368 $371 $520 forward $361 $-1 #
coedge $-1 $368 $506 $511 $623 forward $361 $-1 #
vertex $-1 $369 $627 #
straight-curve $-1 14.379466234072726 48.286437547735758 10.08496770942331 0 1 0 I I #
straight-curve $-1 14.379466234072726 -11.122089520691901 55.254077924387758 0 -0.65605901945558964 0.75470958851134928 I I #
edge $-1 $373 -14.379466234072726 $621 -9.7699626167013776e-015 $371 $628 forward 7 unknown #
point $-1 14.379466234072726 35.634241325785673 10.084967709423305 #
point $-1 14.379466234072726 35.63424132578568 1.4670707085921393 #
edge $-1 $629 1 $629 0 $376 $-1 forward 7 unknown #
vertex $-1 $377 $630 #
ellipse-curve $-1 4.1084189240207678 29.371951929631756 3.5883916399825608 0 0.75470958851134928 0.65605901945558964 1.5 0 0 1 I I #
point $-1 5.6084189240207678 31.888529636017225 5.7760192090077034 #
edge $-1 $631 1 $631 0 $380 $-1 forward 7 unknown #
vertex $-1 $381 $632 #
ellipse-curve $-1 10.271047310051941 29.371951929631756 3.5883916399825608 0 0.75470958851134928 0.65605901945558964 1.5 0 0 1 I I #
point $-1 11.771047310051941 31.888529636017225 5.7760192090077034 #
plane-surface $-1 0 35.634241325785673 0 0 -1 0 0 0 -1 forward_v I I I I #
coedge $-1 $542 $541 $534 $633 forward $385 $-1 #
coedge $-1 $534 $387 $389 $538 reversed $259 $-1 #
coedge $-1 $387 $533 $532 $633 reversed $259 $-1 #
coedge $-1 $395 $390 $387 $536 forward $396 $-1 #
edge $-1 $539 -72.968869294430448 $634 -64.35097229359927 $535 $635 forward 7 unknown #
coedge $-1 $389 $388 $542 $636 reversed $163 $-1 #
edge $-1 $637 59.849657275535215 $539 71.268482651571333 $533 $638 forward 7 unknown #
vertex $-1 $391 $639 #
straight-curve $-1 21.432019791954268 35.634241325785673 1.4670707085921357 -1 0 0 I I #
coedge $-1 $532 $392 $395 $546 forward $385 $-1 #
coedge $-1 $392 $532 $537 $636 forward $385 $-1 #
vertex $-1 $393 $640 #
straight-curve $-1 50.053772700944897 48.286437547735758 10.08496770942331 0 1 0 I I #
straight-curve $-1 50.053772700944897 -11.122089520691901 55.254077924387758 0 -0.65605901945558964 0.75470958851134928 I I #
edge $-1 $397 -50.053772700944897 $634 -35.674306466872174 $395 $641 forward 7 unknown #
point $-1 50.053772700944897 35.634241325785673 10.084967709423305 #
point $-1 50.053772700944897 35.63424132578568 1.4670707085921393 #
edge $-1 $642 1 $642 0 $400 $-1 forward 7 unknown #
vertex $-1 $401 $643 #
ellipse-curve $-1 39.782725390892935 29.371951929631756 3.5883916399825608 0 0.75470958851134928 0.65605901945558964 1.5 0 0 1 I I #
point $-1 41.282725390892935 31.888529636017225 5.7760192090077034 #
edge $-1 $644 1 $644 0 $404 $-1 forward 7 unknown #
vertex $-1 $405 $645 #
ellipse-curve $-1 45.945353776924108 29.371951929631756 3.5883916399825608 0 0.75470958851134928 0.65605901945558964 1.5 0 0 1 I I #
point $-1 47.445353776924108 31.888529636017225 5.7760192090077034 #
plane-surface $-1 71.34861293374432 0 0 -1 0 0 0 0 1 forward_v I I I I #
coedge $-1 $561 $416 $419 $569 forward $409 $-1 #
coedge $-1 $416 $561 $411 $560 reversed $409 $-1 #
edge $-1 $566 -10.084967709423305 $573 10.084967709423305 $559 $646 forward 7 unknown #
coedge $-1 $559 $558 $412 $562 reversed $409 $-1 #
edge $-1 $573 -71.34861293374432 $563 71.34861293374432 $561 $647 forward 7 unknown #
vertex $-1 $414 $648 #
straight-curve $-1 71.34861293374432 0 -10.084967709423305 0 -1 0 I I #
edge $-1 $566 -35.634241325785673 $427 35.634241325785673 $425 $649 forward 7 unknown #
vertex $-1 $417 $650 #
straight-curve $-1 0 35.634241325785673 10.084967709423305 -1 0 0 I I #
straight-curve $-1 0 -35.634241325785673 10.084967709423305 1 0 0 I I #
edge $-1 $422 -10.084967709423305 $563 10.084967709423305 $419 $651 forward 7 unknown #
point $-1 71.34861293374432 -35.634241325785673 10.084967709423305 #
point $-1 71.34861293374432 35.634241325785673 10.084967709423305 #
point $-1 -71.34861293374432 -35.634241325785673 10.084967709423305 #
vertex $-1 $562 $652 #
straight-curve $-1 -71.34861293374432 0 -10.084967709423305 0 1 0 I I #
plane-surface $-1 0 0 10.084967709423305 0 0 1 1 0 0 forward_v I I I I #
coedge $-1 $440 $588 $577 $653 forward $433 $-1 #
coedge $-1 $436 $435 $576 $653 reversed $185 $-1 #
edge $-1 $584 -1.5 $582 1.5 $435 $654 forward 7 unknown #
coedge $-1 $448 $447 $436 $580 forward $449 $-1 #
edge $-1 $581 -1.5 $655 1.5 $436 $656 forward 7 unknown #
vertex $-1 $452 $657 #
vertex $-1 $442 $658 #
straight-curve $-1 -54.178677514897714 -46.909171822615313 0 0 0 -1 I I #
vertex $-1 $653 $659 #
straight-curve $-1 -51.178677514897714 -41.271706574200493 -10.084967709423305 0 -1 0 I I #
straight-curve $-1 -54.178677514897714 -41.271706574200493 -10.084967709423305 0 1 0 I I #
point $-1 -51.178677514897714 -35.634241325785673 -10.084967709423305 #
coedge $-1 $576 $445 $448 $590 reversed $433 $-1 #
straight-curve $-1 -51.178677514897714 -35.634241325785673 0 0 0 -1 I I #
edge $-1 $655 -5.63746524841482 $450 5.63746524841482 $588 $660 forward 7 unknown #
point $-1 -51.178677514897714 -35.634241325785673 10.084967709423305 #
straight-curve $-1 -54.178677514897714 -41.271706574200493 10.084967709423305 0 -1 0 I I #
coedge $-1 $464 $463 $456 $594 forward $313 $-1 #
edge $-1 $601 -35.634241325785673 $596 -28.142817946248819 $456 $661 forward 7 unknown #
edge $-1 $601 -10.084967709423305 $461 -1.4670707085921371 $460 $662 forward 7 unknown #
vertex $-1 $458 $663 #
straight-curve $-1 -71.34861293374432 4.9505460784630202 36.764625238565493 0 -0.65605901945558975 0.75470958851134939 I I #
edge $-1 $596 -39.269173025390337 $465 -24.889706791317622 $464 $664 forward 7 unknown #
point $-1 -71.34861293374432 35.634241325785673 1.4670707085921371 #
point $-1 -56.969146699671604 28.142817946248819 10.084967709423303 #
vertex $-1 $468 $665 #
straight-curve $-1 0 35.634241325785673 10.084967709423305 -1 0 0 I I #
vertex $-1 $471 $666 #
point $-1 -65.740194009723538 29.371951929631756 3.5883916399825608 #
vertex $-1 $475 $667 #
point $-1 -59.577565623692379 29.371951929631756 3.5883916399825608 #
edge $-1 $608 12.652196221950085 $611 20.14361960148694 $480 $668 forward 7 unknown #
vertex $-1 $484 $669 #
straight-curve $-1 -35.67430646687216 35.634241325785673 74.43594000302258 0 0 1 I I #
edge $-1 $611 -21.432019791954261 $491 -7.0525535578815415 $490 $670 forward 7 unknown #
vertex $-1 $610 $671 #
straight-curve $-1 -35.67430646687216 -11.122089520691901 55.254077924387758 0 0.65605901945558964 -0.75470958851134928 I I #
point $-1 -35.67430646687216 35.63424132578568 1.4670707085921393 #
point $-1 -21.294840232799441 28.142817946248819 10.084967709423303 #
straight-curve $-1 0 35.634241325785673 10.084967709423305 -1 0 0 I I #
vertex $-1 $497 $672 #
point $-1 -30.065887542851385 29.371951929631756 3.5883916399825608 #
vertex $-1 $501 $673 #
point $-1 -23.903259156820219 29.371951929631756 3.5883916399825608 #
edge $-1 $621 12.652196221950085 $624 20.14361960148694 $506 $674 forward 7 unknown #
vertex $-1 $510 $675 #
straight-curve $-1 9.7699626167013776e-015 35.634241325785673 74.43594000302258 0 0 1 I I #
edge $-1 $624 -3.5948665585181745 $517 10.784599675554542 $516 $676 forward 7 unknown #
vertex $-1 $623 $677 #
straight-curve $-1 9.7699626167013776e-015 -11.122089520691901 55.254077924387758 0 0.65605901945558964 -0.75470958851134928 I I #
point $-1 9.7699626167013776e-015 35.63424132578568 1.4670707085921393 #
point $-1 14.379466234072726 28.142817946248819 10.084967709423303 #
straight-curve $-1 0 35.634241325785673 10.084967709423305 -1 0 0 I I #
vertex $-1 $523 $678 #
point $-1 5.6084189240207678 29.371951929631756 3.5883916399825608 #
vertex $-1 $527 $679 #
point $-1 11.771047310051941 29.371951929631756 3.5883916399825608 #
edge $-1 $634 12.652196221950085 $637 20.14361960148694 $532 $680 forward 7 unknown #
vertex $-1 $536 $681 #
straight-curve $-1 35.674306466872174 35.634241325785673 74.43594000302258 0 0 1 I I #
edge $-1 $637 14.242286674917906 $543 28.621752908990629 $542 $682 forward 7 unknown #
vertex $-1 $636 $683 #
straight-curve $-1 35.674306466872174 -11.122089520691901 55.254077924387758 0 0.65605901945558964 -0.75470958851134928 I I #
point $-1 35.674306466872174 35.63424132578568 1.4670707085921393 #
point $-1 50.053772700944897 28.142817946248819 10.084967709423303 #
straight-curve $-1 0 35.634241325785673 10.084967709423305 -1 0 0 I I #
vertex $-1 $549 $684 #
point $-1 41.282725390892935 29.371951929631756 3.5883916399825608 #
vertex $-1 $553 $685 #
point $-1 47.445353776924108 29.371951929631756 3.5883916399825608 #
straight-curve $-1 -71.34861293374432 35.634241325785673 0 0 0 -1 I I #
straight-curve $-1 0 35.634241325785673 -10.084967709423305 1 0 0 I I #
point $-1 71.34861293374432 35.634241325785673 -10.084967709423305 #
straight-curve $-1 -71.34861293374432 0 10.084967709423305 0 -1 0 I I #
point $-1 -71.34861293374432 35.634241325785673 10.084967709423305 #
straight-curve $-1 71.34861293374432 35.634241325785673 0 0 0 -1 I I #
point $-1 -71.34861293374432 35.634241325785673 -10.084967709423305 #
edge $-1 $655 -10.084967709423305 $584 10.084967709423305 $576 $686 forward 7 unknown #
straight-curve $-1 -52.678677514897714 -46.909171822615313 -10.084967709423305 -1 0 0 I I #
vertex $-1 $590 $687 #
straight-curve $-1 -52.678677514897714 -46.909171822615313 10.084967709423305 1 0 0 I I #
point $-1 -54.178677514897714 -46.909171822615313 10.084967709423305 #
point $-1 -54.178677514897714 -46.909171822615313 -10.084967709423305 #
point $-1 -51.178677514897714 -46.909171822615313 -10.084967709423305 #
straight-curve $-1 -51.178677514897714 -41.271706574200493 10.084967709423305 0 1 0 I I #
straight-curve $-1 -71.34861293374432 0 10.084967709423305 0 -1 0 I I #
straight-curve $-1 -71.34861293374432 35.634241325785673 0 0 0 -1 I I #
point $-1 -71.34861293374432 28.142817946248819 10.084967709423303 #
straight-curve $-1 -32.079439908353983 28.142817946248826 10.084967709423299 1 0 0 I I #
point $-1 -71.34861293374432 35.634241325785673 10.084967709423305 #
point $-1 -67.240194009723538 28.239887546864729 2.6043031107991759 #
point $-1 -61.077565623692379 28.239887546864729 2.6043031107991759 #
straight-curve $-1 -35.67430646687216 48.286437547735758 10.08496770942331 0 -1 0 I I #
point $-1 -35.67430646687216 35.634241325785673 10.084967709423305 #
straight-curve $-1 -14.242286674917899 28.142817946248826 10.084967709423299 1 0 0 I I #
point $-1 -35.67430646687216 28.142817946248819 10.084967709423303 #
point $-1 -31.565887542851385 28.239887546864729 2.6043031107991759 #
point $-1 -25.403259156820219 28.239887546864729 2.6043031107991759 #
straight-curve $-1 9.7699626167013776e-015 48.286437547735758 10.08496770942331 0 -1 0 I I #
point $-1 9.7699626167013776e-015 35.634241325785673 10.084967709423305 #
straight-curve $-1 3.5948665585181843 28.142817946248826 10.084967709423299 1 0 0 I I #
point $-1 9.7699626167013776e-015 28.142817946248819 10.084967709423303 #
point $-1 4.1084189240207678 28.239887546864729 2.6043031107991759 #
point $-1 10.271047310051941 28.239887546864729 2.6043031107991759 #
straight-curve $-1 35.674306466872174 48.286437547735758 10.08496770942331 0 -1 0 I I #
point $-1 35.674306466872174 35.634241325785673 10.084967709423305 #
straight-curve $-1 21.432019791954268 28.142817946248826 10.084967709423299 1 0 0 I I #
point $-1 35.674306466872174 28.142817946248819 10.084967709423303 #
point $-1 39.782725390892935 28.239887546864729 2.6043031107991759 #
point $-1 45.945353776924108 28.239887546864729 2.6043031107991759 #
straight-curve $-1 -51.178677514897714 -46.909171822615313 0 0 0 -1 I I #
point $-1 -51.178677514897714 -46.909171822615313 10.084967709423305 #
End-of-ACIS-data 