500 0 13 0           
7 Unknown 11 ACIS 5.0 NT 24 Fri Mar 26 16:43:31 1999 
-1 9.9999999999999995e-007 1e-010 
body $-1 $13 $-1 $14 #
body $-1 $15 $-1 $16 #
body $-1 $17 $-1 $18 #
body $-1 $19 $-1 $20 #
body $-1 $21 $-1 $22 #
body $-1 $23 $-1 $24 #
body $-1 $25 $-1 $26 #
body $-1 $27 $-1 $28 #
body $-1 $29 $-1 $30 #
body $-1 $31 $-1 $32 #
body $-1 $33 $-1 $34 #
body $-1 $35 $-1 $36 #
body $-1 $37 $-1 $38 #
lump $-1 $-1 $39 $0 #
transform $-1 1 0 0 0 1 0 0 0 1 46.036561174352244 27.239364128306644 6.4835954663503532 1 rotate no_reflect no_shear #
lump $-1 $-1 $40 $1 #
transform $-1 1 0 0 0 1 0 0 0 1 46.036561174352244 27.239364128306644 6.4835954663503532 1 rotate no_reflect no_shear #
lump $-1 $-1 $41 $2 #
transform $-1 1 0 0 0 1 0 0 0 1 46.036561174352244 27.239364128306644 6.4835954663503532 1 rotate no_reflect no_shear #
lump $-1 $-1 $42 $3 #
transform $-1 1 0 0 0 1 0 0 0 1 46.036561174352244 27.239364128306644 6.4835954663503532 1 rotate no_reflect no_shear #
lump $-1 $-1 $43 $4 #
transform $-1 1 0 0 0 1 0 0 0 1 46.036561174352244 27.239364128306644 6.4835954663503532 1 rotate no_reflect no_shear #
lump $-1 $-1 $44 $5 #
transform $-1 1 0 0 0 1 0 0 0 1 46.036561174352244 27.239364128306644 6.4835954663503532 1 rotate no_reflect no_shear #
lump $-1 $-1 $45 $6 #
transform $-1 1 0 0 0 1 0 0 0 1 46.036561174352244 27.239364128306644 6.4835954663503532 1 rotate no_reflect no_shear #
lump $-1 $-1 $46 $7 #
transform $-1 1 0 0 0 1 0 0 0 1 46.036561174352244 27.239364128306644 6.4835954663503532 1 rotate no_reflect no_shear #
lump $-1 $-1 $47 $8 #
transform $-1 1 0 0 0 1 0 0 0 1 46.036561174352244 27.239364128306644 6.4835954663503532 1 rotate no_reflect no_shear #
lump $-1 $-1 $48 $9 #
transform $-1 1 0 0 0 1 0 0 0 1 46.036561174352244 27.239364128306644 6.4835954663503532 1 rotate no_reflect no_shear #
lump $-1 $-1 $49 $10 #
transform $-1 1 0 0 0 1 0 0 0 1 46.036561174352244 27.239364128306644 6.4835954663503532 1 rotate no_reflect no_shear #
lump $-1 $-1 $50 $11 #
transform $-1 1 0 0 0 1 0 0 0 1 46.036561174352244 27.239364128306644 6.4835954663503532 1 rotate no_reflect no_shear #
lump $-1 $-1 $51 $12 #
transform $-1 1 0 0 0 1 0 0 0 1 46.036561174352244 27.239364128306644 6.4835954663503532 1 rotate no_reflect no_shear #
shell $-1 $-1 $-1 $52 $-1 $13 #
shell $-1 $-1 $-1 $53 $-1 $15 #
shell $-1 $-1 $-1 $54 $-1 $17 #
shell $-1 $-1 $-1 $55 $-1 $19 #
shell $-1 $-1 $-1 $56 $-1 $21 #
shell $-1 $-1 $-1 $57 $-1 $23 #
shell $-1 $-1 $-1 $58 $-1 $25 #
shell $-1 $-1 $-1 $59 $-1 $27 #
shell $-1 $-1 $-1 $60 $-1 $29 #
shell $-1 $-1 $-1 $61 $-1 $31 #
shell $-1 $-1 $-1 $62 $-1 $33 #
shell $-1 $-1 $-1 $63 $-1 $35 #
shell $-1 $-1 $-1 $64 $-1 $37 #
face $-1 $65 $66 $39 $-1 $67 forward single #
face $-1 $68 $69 $40 $-1 $70 reversed single #
face $-1 $71 $72 $41 $-1 $73 forward single #
face $-1 $74 $75 $42 $-1 $76 reversed single #
face $-1 $77 $78 $43 $-1 $79 forward single #
face $-1 $80 $81 $44 $-1 $82 forward single #
face $-1 $83 $84 $45 $-1 $85 reversed single #
face $-1 $86 $87 $46 $-1 $88 forward single #
face $-1 $89 $90 $47 $-1 $91 forward single #
face $-1 $92 $93 $48 $-1 $94 reversed single #
face $-1 $95 $96 $49 $-1 $97 forward single #
face $-1 $98 $99 $50 $-1 $100 reversed single #
face $-1 $101 $102 $51 $-1 $103 forward single #
face $-1 $104 $105 $39 $-1 $106 reversed single #
loop $-1 $-1 $107 $52 #
plane-surface $-1 0 0 6.4835954663503532 0 0 1 1 0 0 forward_v I I I I #
face $-1 $108 $109 $40 $-1 $110 reversed single #
loop $-1 $-1 $111 $53 #
plane-surface $-1 -42.629429481283928 -19.85438956657967 0 0 1 0 0 0 1 forward_v I I I I #
face $-1 $112 $113 $41 $-1 $114 reversed single #
loop $-1 $-1 $115 $54 #
plane-surface $-1 46.036561174352244 0 0 -1 0 0 0 0 1 forward_v I I I I #
face $-1 $116 $117 $42 $-1 $118 reversed single #
loop $-1 $-1 $119 $55 #
plane-surface $-1 -30.927216835581184 73.10732514215627 99.867445043944628 1 0 0 0 -0.82903758062907751 -0.55919289150049634 forward_v I I I I #
face $-1 $120 $121 $43 $-1 $122 forward single #
loop $-1 $123 $124 $56 #
cone-surface $-1 -27.485224022242694 25.722799966740752 4.5701495167659072 0 -0.82903758062907751 -0.55919289150049634 0.5 0 0 1 I I 0 1 0.5 forward I I I I #
face $-1 $125 $126 $44 $-1 $127 forward single #
loop $-1 $128 $129 $57 #
cone-surface $-1 -22.322234802234959 25.722799966740752 4.5701495167659072 0 -0.82903758062907751 -0.55919289150049634 0.5 0 0 1 I I 0 1 0.5 forward I I I I #
face $-1 $130 $131 $45 $-1 $132 reversed single #
loop $-1 $-1 $133 $58 #
plane-surface $-1 7.7495898898717757 73.10732514215627 99.867445043944628 1 0 0 0 -0.82903758062907751 -0.55919289150049634 forward_v I I I I #
face $-1 $134 $135 $46 $-1 $136 forward single #
loop $-1 $137 $138 $59 #
cone-surface $-1 11.191582703210258 25.722799966740752 4.5701495167659072 0 -0.82903758062907751 -0.55919289150049634 0.5 0 0 1 I I 0 1 0.5 forward I I I I #
face $-1 $139 $140 $47 $-1 $141 forward single #
loop $-1 $142 $143 $60 #
cone-surface $-1 16.354571923217996 25.722799966740752 4.5701495167659072 0 -0.82903758062907751 -0.55919289150049634 0.5 0 0 1 I I 0 1 0.5 forward I I I I #
face $-1 $144 $145 $48 $-1 $146 reversed single #
loop $-1 $-1 $147 $61 #
plane-surface $-1 -23.694445746994916 -97.77146862712236 59.839313258993045 -1 0 0 0 -0.7660444514056185 0.64278759981090561 forward_v I I I I #
face $-1 $148 $149 $49 $-1 $150 forward single #
loop $-1 $151 $152 $62 #
cone-surface $-1 -31.458371767605268 -23.440297488040979 2.4335509608160848 0 0.7660444514056185 -0.64278759981090561 1.5 0 0 1 I I 0 1 1.5 forward I I I I #
face $-1 $153 $154 $50 $-1 $155 reversed single #
loop $-1 $-1 $156 $63 #
plane-surface $-1 38.131315662690291 -97.77146862712236 59.839313258993045 -1 0 0 0 -0.7660444514056185 0.64278759981090561 forward_v I I I I #
face $-1 $157 $158 $51 $-1 $159 forward single #
loop $-1 $160 $161 $64 #
cone-surface $-1 30.367389642079942 -23.440297488040979 2.4335509608160848 0 0.7660444514056185 -0.64278759981090561 1.5 0 0 1 I I 0 1 1.5 forward I I I I #
face $-1 $162 $163 $39 $-1 $164 reversed single #
loop $-1 $-1 $165 $65 #
plane-surface $-1 0 0 -6.4835954663503532 0 0 1 1 0 0 forward_v I I I I #
coedge $-1 $166 $167 $168 $169 forward $66 $-1 #
face $-1 $170 $171 $40 $-1 $172 reversed single #
loop $-1 $-1 $173 $68 #
plane-surface $-1 -42.629429481283928 -16.85438956657967 0 0 -1 0 0 0 -1 forward_v I I I I #
coedge $-1 $174 $175 $176 $177 reversed $69 $-1 #
face $-1 $178 $179 $41 $-1 $180 reversed single #
loop $-1 $-1 $181 $71 #
plane-surface $-1 0 -27.239364128306644 0 0 1 0 0 0 1 forward_v I I I I #
coedge $-1 $182 $183 $184 $185 forward $72 $-1 #
face $-1 $186 $187 $42 $-1 $188 reversed single #
loop $-1 $-1 $189 $74 #
plane-surface $-1 -24.903729412238828 -3.2247534507787492 48.380809528293597 0 0.82903758062907751 0.55919289150049634 1 0 0 forward_v I I I I #
coedge $-1 $190 $191 $192 $193 reversed $75 $-1 #
face $-1 $-1 $194 $43 $-1 $195 forward single #
loop $-1 $196 $197 $77 #
cone-surface $-1 -27.485224022242694 25.101021781268944 4.1507548481405347 0 -0.82903758062907751 -0.55919289150049634 0.25 0 0 1 I I -0.70710678118654746 0.70710678118654746 0.25 forward I I I I #
loop $-1 $-1 $198 $56 #
coedge $-1 $124 $124 $199 $200 reversed $78 $-1 #
face $-1 $-1 $201 $44 $-1 $202 forward single #
loop $-1 $203 $204 $80 #
cone-surface $-1 -22.322234802234959 25.101021781268944 4.1507548481405347 0 -0.82903758062907751 -0.55919289150049634 0.25 0 0 1 I I -0.70710678118654746 0.70710678118654746 0.25 forward I I I I #
loop $-1 $-1 $205 $57 #
coedge $-1 $129 $129 $206 $207 reversed $81 $-1 #
face $-1 $208 $209 $45 $-1 $210 reversed single #
loop $-1 $-1 $211 $83 #
plane-surface $-1 13.773077313214131 -3.2247534507787492 48.380809528293597 0 0.82903758062907751 0.55919289150049634 1 0 0 forward_v I I I I #
coedge $-1 $212 $213 $214 $215 reversed $84 $-1 #
face $-1 $-1 $216 $46 $-1 $217 forward single #
loop $-1 $218 $219 $86 #
cone-surface $-1 11.191582703210258 25.101021781268944 4.1507548481405347 0 -0.82903758062907751 -0.55919289150049634 0.25 0 0 1 I I -0.70710678118654746 0.70710678118654746 0.25 forward I I I I #
loop $-1 $-1 $220 $59 #
coedge $-1 $138 $138 $221 $222 reversed $87 $-1 #
face $-1 $-1 $223 $47 $-1 $224 forward single #
loop $-1 $225 $226 $89 #
cone-surface $-1 16.354571923217996 25.101021781268944 4.1507548481405347 0 -0.82903758062907751 -0.55919289150049634 0.25 0 0 1 I I -0.70710678118654746 0.70710678118654746 0.25 forward I I I I #
loop $-1 $-1 $227 $60 #
coedge $-1 $143 $143 $228 $229 reversed $90 $-1 #
face $-1 $230 $231 $48 $-1 $232 reversed single #
loop $-1 $-1 $233 $92 #
plane-surface $-1 -31.458371767605268 -27.239364128306633 0.65585193737343417 0 -0.7660444514056185 0.64278759981090561 1 0 0 forward_v I I I I #
coedge $-1 $234 $235 $236 $237 reversed $93 $-1 #
face $-1 $-1 $238 $49 $-1 $239 forward single #
loop $-1 $240 $241 $95 #
cone-surface $-1 -31.458371767605268 -21.511726168087474 0.81528751991209614 0 0.7660444514056185 -0.64278759981090561 0.75 0 0 1 I I -0.70710678118654757 0.70710678118654757 0.75 forward I I I I #
loop $-1 $-1 $242 $62 #
coedge $-1 $152 $152 $243 $244 reversed $96 $-1 #
face $-1 $245 $246 $50 $-1 $247 reversed single #
loop $-1 $-1 $248 $98 #
plane-surface $-1 30.367389642079942 -27.239364128306633 0.65585193737343417 0 -0.7660444514056185 0.64278759981090561 1 0 0 forward_v I I I I #
coedge $-1 $249 $250 $251 $252 reversed $99 $-1 #
face $-1 $-1 $253 $51 $-1 $254 forward single #
loop $-1 $255 $256 $101 #
cone-surface $-1 30.367389642079942 -21.511726168087474 0.81528751991209614 0 0.7660444514056185 -0.64278759981090561 0.75 0 0 1 I I -0.70710678118654757 0.70710678118654757 0.75 forward I I I I #
loop $-1 $-1 $257 $64 #
coedge $-1 $161 $161 $258 $259 reversed $102 $-1 #
face $-1 $260 $261 $39 $-1 $262 reversed single #
loop $-1 $-1 $263 $104 #
plane-surface $-1 0 -27.239364128306644 0 0 1 0 0 0 1 forward_v I I I I #
coedge $-1 $264 $265 $266 $267 forward $105 $-1 #
coedge $-1 $268 $107 $269 $270 forward $66 $-1 #
coedge $-1 $107 $268 $271 $272 forward $66 $-1 #
coedge $-1 $273 $274 $107 $169 reversed $275 $-1 #
edge $-1 $276 -27.239364128306644 $277 27.239364128306644 $168 $278 forward 7 unknown #
face $-1 $279 $280 $40 $-1 $281 reversed single #
loop $-1 $-1 $282 $108 #
plane-surface $-1 -39.222297788215613 -18.35438956657967 0 -1 0 0 0 0 1 forward_v I I I I #
coedge $-1 $283 $284 $285 $286 forward $109 $-1 #
coedge $-1 $287 $111 $288 $289 reversed $69 $-1 #
coedge $-1 $111 $287 $290 $291 reversed $69 $-1 #
coedge $-1 $292 $293 $111 $177 forward $294 $-1 #
edge $-1 $295 -6.4835954663503532 $296 6.4835954663503532 $176 $297 forward 7 unknown #
face $-1 $298 $299 $41 $-1 $300 forward single #
loop $-1 $-1 $301 $112 #
plane-surface $-1 0 0 -6.4835954663503532 0 0 1 1 0 0 forward_v I I I I #
coedge $-1 $302 $303 $183 $304 forward $113 $-1 #
coedge $-1 $305 $115 $306 $307 reversed $72 $-1 #
coedge $-1 $115 $305 $181 $304 reversed $72 $-1 #
coedge $-1 $308 $309 $115 $185 reversed $299 $-1 #
edge $-1 $310 -27.239364128306644 $311 27.239364128306644 $184 $312 forward 7 unknown #
face $-1 $313 $314 $42 $-1 $315 reversed single #
loop $-1 $-1 $316 $116 #
plane-surface $-1 -18.880241988896472 73.10732514215627 99.867445043944628 -1 0 0 0 0.82903758062907751 0.55919289150049634 forward_v I I I I #
coedge $-1 $317 $318 $319 $320 reversed $117 $-1 #
coedge $-1 $191 $119 $321 $322 reversed $75 $-1 #
coedge $-1 $119 $190 $317 $323 reversed $75 $-1 #
coedge $-1 $319 $324 $119 $193 forward $325 $-1 #
edge $-1 $326 9.3142984427714914 $327 11.518389185274213 $192 $328 forward 7 unknown #
loop $-1 $-1 $199 $120 #
plane-surface $-1 -24.903729412238828 -3.2247534507787492 48.380809528293597 0 0.82903758062907751 0.55919289150049634 1 0 0 forward_v I I I I #
loop $-1 $-1 $329 $77 #
coedge $-1 $197 $197 $198 $330 reversed $121 $-1 #
coedge $-1 $198 $198 $197 $330 forward $123 $-1 #
coedge $-1 $199 $199 $124 $200 forward $194 $-1 #
edge $-1 $331 -1.3340857799017796e-015 $331 6.2831853071795987 $199 $332 forward 7 unknown #
loop $-1 $-1 $206 $125 #
plane-surface $-1 -24.903729412238828 -3.2247534507787492 48.380809528293597 0 0.82903758062907751 0.55919289150049634 1 0 0 forward_v I I I I #
loop $-1 $-1 $333 $80 #
coedge $-1 $204 $204 $205 $334 reversed $126 $-1 #
coedge $-1 $205 $205 $204 $334 forward $128 $-1 #
coedge $-1 $206 $206 $129 $207 forward $201 $-1 #
edge $-1 $335 -1.3340857799017796e-015 $335 6.2831853071795987 $206 $336 forward 7 unknown #
face $-1 $337 $338 $45 $-1 $339 forward single #
loop $-1 $-1 $340 $130 #
plane-surface $-1 19.796564736556487 73.10732514215627 99.867445043944628 -1 0 0 0 0.82903758062907751 0.55919289150049634 forward_v I I I I #
coedge $-1 $341 $342 $343 $344 reversed $131 $-1 #
coedge $-1 $213 $133 $345 $346 reversed $84 $-1 #
coedge $-1 $133 $212 $341 $347 reversed $84 $-1 #
coedge $-1 $343 $348 $133 $215 forward $338 $-1 #
edge $-1 $349 9.3142984427714914 $350 11.518389185274213 $214 $351 forward 7 unknown #
loop $-1 $-1 $221 $134 #
plane-surface $-1 13.773077313214131 -3.2247534507787492 48.380809528293597 0 0.82903758062907751 0.55919289150049634 1 0 0 forward_v I I I I #
loop $-1 $-1 $352 $86 #
coedge $-1 $219 $219 $220 $353 reversed $135 $-1 #
coedge $-1 $220 $220 $219 $353 forward $137 $-1 #
coedge $-1 $221 $221 $138 $222 forward $216 $-1 #
edge $-1 $354 -1.3340857799017796e-015 $354 6.2831853071795987 $221 $355 forward 7 unknown #
loop $-1 $-1 $228 $139 #
plane-surface $-1 13.773077313214131 -3.2247534507787492 48.380809528293597 0 0.82903758062907751 0.55919289150049634 1 0 0 forward_v I I I I #
loop $-1 $-1 $356 $89 #
coedge $-1 $226 $226 $227 $357 reversed $140 $-1 #
coedge $-1 $227 $227 $226 $357 forward $142 $-1 #
coedge $-1 $228 $228 $143 $229 forward $223 $-1 #
edge $-1 $358 -1.3340857799017796e-015 $358 6.2831853071795987 $228 $359 forward 7 unknown #
face $-1 $360 $361 $48 $-1 $362 forward single #
loop $-1 $-1 $363 $144 #
plane-surface $-1 -39.22229778821562 -97.77146862712236 59.839313258993045 1 0 0 0 0.7660444514056185 -0.64278759981090561 forward_v I I I I #
coedge $-1 $364 $365 $366 $367 reversed $145 $-1 #
coedge $-1 $235 $147 $368 $369 reversed $93 $-1 #
coedge $-1 $147 $234 $364 $370 reversed $93 $-1 #
coedge $-1 $366 $371 $147 $237 forward $361 $-1 #
edge $-1 $372 21.646370185254536 $373 26.536427502987291 $236 $374 forward 7 unknown #
loop $-1 $-1 $243 $148 #
plane-surface $-1 -31.458371767605268 -27.239364128306633 0.65585193737343417 0 -0.7660444514056185 0.64278759981090561 1 0 0 forward_v I I I I #
loop $-1 $-1 $375 $95 #
coedge $-1 $241 $241 $242 $376 reversed $149 $-1 #
coedge $-1 $242 $242 $241 $376 forward $151 $-1 #
coedge $-1 $243 $243 $152 $244 forward $238 $-1 #
edge $-1 $377 -9.6522413380931768e-017 $377 6.2831853071796004 $243 $378 forward 7 unknown #
face $-1 $379 $380 $50 $-1 $381 reversed single #
loop $-1 $-1 $382 $153 #
plane-surface $-1 22.60346362146959 -97.77146862712236 59.839313258993045 1 0 0 0 0.7660444514056185 -0.64278759981090561 forward_v I I I I #
coedge $-1 $383 $384 $385 $386 reversed $154 $-1 #
coedge $-1 $250 $156 $387 $388 reversed $99 $-1 #
coedge $-1 $156 $249 $383 $389 reversed $99 $-1 #
coedge $-1 $385 $390 $156 $252 forward $391 $-1 #
edge $-1 $392 21.646370185254536 $393 26.536427502987291 $251 $394 forward 7 unknown #
loop $-1 $-1 $258 $157 #
plane-surface $-1 30.367389642079942 -27.239364128306633 0.65585193737343417 0 -0.7660444514056185 0.64278759981090561 1 0 0 forward_v I I I I #
loop $-1 $-1 $395 $101 #
coedge $-1 $256 $256 $257 $396 reversed $158 $-1 #
coedge $-1 $257 $257 $256 $396 forward $160 $-1 #
coedge $-1 $258 $258 $161 $259 forward $253 $-1 #
edge $-1 $397 -9.6522413380931768e-017 $397 6.2831853071796004 $258 $398 forward 7 unknown #
face $-1 $399 $400 $39 $-1 $401 reversed single #
loop $-1 $-1 $402 $162 #
plane-surface $-1 -46.036561174352244 0 0 1 0 0 0 0 -1 forward_v I I I I #
coedge $-1 $403 $271 $404 $405 forward $163 $-1 #
coedge $-1 $406 $165 $403 $407 forward $105 $-1 #
coedge $-1 $165 $406 $408 $409 forward $105 $-1 #
coedge $-1 $274 $273 $165 $267 reversed $275 $-1 #
edge $-1 $410 -27.239364128306644 $411 27.239364128306644 $266 $412 forward 7 unknown #
coedge $-1 $167 $166 $413 $414 forward $66 $-1 #
coedge $-1 $415 $416 $166 $270 reversed $400 $-1 #
edge $-1 $277 -46.036561174352244 $417 46.036561174352244 $269 $418 forward 7 unknown #
coedge $-1 $263 $419 $167 $272 reversed $163 $-1 #
edge $-1 $420 -46.036561174352244 $276 46.036561174352244 $271 $421 forward 7 unknown #
coedge $-1 $266 $168 $419 $422 forward $275 $-1 #
coedge $-1 $168 $266 $415 $423 reversed $275 $-1 #
loop $-1 $-1 $274 $399 #
vertex $-1 $169 $424 #
vertex $-1 $169 $425 #
straight-curve $-1 46.036561174352244 0 6.4835954663503532 0 1 0 I I #
face $-1 $426 $427 $40 $-1 $428 forward single #
loop $-1 $-1 $429 $170 #
plane-surface $-1 0 0 -6.4835954663503532 0 0 1 1 0 0 forward_v I I I I #
coedge $-1 $430 $431 $287 $432 forward $171 $-1 #
coedge $-1 $433 $173 $429 $434 reversed $109 $-1 #
coedge $-1 $173 $433 $435 $436 reversed $109 $-1 #
coedge $-1 $431 $430 $173 $286 reversed $171 $-1 #
edge $-1 $437 -6.4835954663503532 $438 6.4835954663503532 $285 $439 forward 7 unknown #
coedge $-1 $175 $174 $282 $432 reversed $69 $-1 #
coedge $-1 $440 $441 $174 $289 forward $280 $-1 #
edge $-1 $442 17.907583047573649 $295 24.721846433710279 $288 $443 forward 7 unknown #
coedge $-1 $444 $445 $175 $291 forward $427 $-1 #
edge $-1 $296 -24.721846433710279 $446 -17.907583047573649 $290 $447 forward 7 unknown #
coedge $-1 $448 $176 $445 $449 reversed $294 $-1 #
coedge $-1 $176 $448 $440 $450 reversed $294 $-1 #
loop $-1 $-1 $448 $426 #
vertex $-1 $450 $451 #
vertex $-1 $177 $452 #
straight-curve $-1 -46.036561174352244 -19.85438956657967 0 0 0 1 I I #
face $-1 $453 $454 $41 $-1 $455 reversed single #
loop $-1 $-1 $456 $178 #
plane-surface $-1 49.989183930183216 0 -3.0481426874609796 0 0 1 1 0 0 forward_v I I I I #
coedge $-1 $457 $458 $305 $459 forward $179 $-1 #
coedge $-1 $460 $181 $458 $461 reversed $113 $-1 #
coedge $-1 $181 $460 $308 $462 reversed $113 $-1 #
edge $-1 $310 3.0481426874609796 $463 6.4835954663503532 $181 $464 forward 7 unknown #
coedge $-1 $183 $182 $301 $459 reversed $72 $-1 #
coedge $-1 $465 $466 $182 $307 forward $467 $-1 #
edge $-1 $468 -6.4835954663503532 $311 -3.0481426874609796 $306 $469 forward 7 unknown #
coedge $-1 $456 $184 $303 $462 forward $299 $-1 #
coedge $-1 $184 $456 $465 $470 forward $299 $-1 #
vertex $-1 $304 $471 #
vertex $-1 $470 $472 #
straight-curve $-1 46.036561174352244 0 -3.0481426874609796 0 1 0 I I #
face $-1 $-1 $325 $42 $-1 $473 forward single #
loop $-1 $-1 $474 $186 #
plane-surface $-1 0 27.239364128306644 0 0 -1 0 0 0 -1 forward_v I I I I #
coedge $-1 $475 $476 $477 $478 reversed $187 $-1 #
coedge $-1 $479 $189 $191 $323 forward $117 $-1 #
coedge $-1 $189 $479 $475 $480 forward $117 $-1 #
coedge $-1 $477 $192 $189 $320 forward $325 $-1 #
edge $-1 $327 -18.475352129461768 $481 -6.428377282777058 $319 $482 forward 7 unknown #
coedge $-1 $483 $484 $190 $322 forward $314 $-1 #
edge $-1 $485 -46.717826063290381 $326 -43.450127055621962 $321 $486 forward 7 unknown #
edge $-1 $327 50.537171101642279 $485 54.478728256613316 $191 $487 forward 7 unknown #
coedge $-1 $192 $477 $483 $488 forward $325 $-1 #
loop $-1 $-1 $477 $313 #
vertex $-1 $322 $489 #
vertex $-1 $193 $490 #
straight-curve $-1 -30.927216835581184 36.553662571078135 6.4835954663503514 0 -1 0 I I #
coedge $-1 $329 $329 $-1 $491 reversed $196 $-1 #
edge $-1 $492 0 $492 6.2831853071796004 $197 $493 forward 7 unknown #
vertex $-1 $200 $494 #
ellipse-curve $-1 -27.485224022242694 26.137318757055279 4.8497459625161472 0 0.82903758062907751 0.55919289150049634 0.5 0 0 1 I I #
coedge $-1 $333 $333 $-1 $495 reversed $203 $-1 #
edge $-1 $496 0 $496 6.2831853071796004 $204 $497 forward 7 unknown #
vertex $-1 $207 $498 #
ellipse-curve $-1 -22.322234802234959 26.137318757055279 4.8497459625161472 0 0.82903758062907751 0.55919289150049634 0.5 0 0 1 I I #
face $-1 $-1 $499 $45 $-1 $500 reversed single #
loop $-1 $-1 $214 $208 #
plane-surface $-1 0 0 6.4835954663503532 0 0 1 1 0 0 forward_v I I I I #
coedge $-1 $501 $502 $503 $504 reversed $209 $-1 #
coedge $-1 $505 $211 $213 $347 forward $131 $-1 #
coedge $-1 $211 $505 $501 $506 forward $131 $-1 #
coedge $-1 $503 $214 $211 $344 forward $338 $-1 #
edge $-1 $350 0.86305123326471023 $507 12.910026079949422 $343 $508 forward 7 unknown #
coedge $-1 $509 $510 $212 $346 forward $499 $-1 #
edge $-1 $511 -46.717826063290381 $349 -43.450127055621962 $345 $512 forward 7 unknown #
edge $-1 $350 50.537171101642279 $511 54.478728256613316 $213 $513 forward 7 unknown #
coedge $-1 $214 $503 $509 $514 forward $338 $-1 #
vertex $-1 $215 $515 #
vertex $-1 $215 $516 #
straight-curve $-1 7.7495898898717757 36.553662571078135 6.4835954663503514 0 -1 0 I I #
coedge $-1 $352 $352 $-1 $517 reversed $218 $-1 #
edge $-1 $518 0 $518 6.2831853071796004 $219 $519 forward 7 unknown #
vertex $-1 $222 $520 #
ellipse-curve $-1 11.191582703210258 26.137318757055279 4.8497459625161472 0 0.82903758062907751 0.55919289150049634 0.5 0 0 1 I I #
coedge $-1 $356 $356 $-1 $521 reversed $225 $-1 #
edge $-1 $522 0 $522 6.2831853071796004 $226 $523 forward 7 unknown #
vertex $-1 $229 $524 #
ellipse-curve $-1 16.354571923217996 26.137318757055279 4.8497459625161472 0 0.82903758062907751 0.55919289150049634 0.5 0 0 1 I I #
face $-1 $-1 $525 $48 $-1 $526 reversed single #
loop $-1 $-1 $236 $230 #
plane-surface $-1 0 0 6.4835954663503532 0 0 1 1 0 0 forward_v I I I I #
coedge $-1 $527 $528 $529 $530 reversed $231 $-1 #
coedge $-1 $531 $233 $235 $370 forward $145 $-1 #
coedge $-1 $233 $531 $527 $532 forward $145 $-1 #
coedge $-1 $529 $236 $233 $367 forward $361 $-1 #
edge $-1 $373 7.9652598631922817 $533 23.493111904412984 $366 $534 forward 7 unknown #
coedge $-1 $535 $536 $234 $369 forward $525 $-1 #
edge $-1 $537 -29.263804692123102 $372 -23.436061163146171 $368 $538 forward 7 unknown #
edge $-1 $373 -7.6075788007909546 $537 1.6546395036574903e-014 $235 $539 forward 7 unknown #
coedge $-1 $236 $529 $535 $540 forward $361 $-1 #
vertex $-1 $369 $541 #
vertex $-1 $237 $542 #
straight-curve $-1 -23.694445746994916 -48.88573431356118 6.4835954663503514 0 1 0 I I #
coedge $-1 $375 $375 $-1 $543 reversed $240 $-1 #
edge $-1 $544 0 $544 6.2831853071796004 $241 $545 forward 7 unknown #
vertex $-1 $244 $546 #
ellipse-curve $-1 -31.458371767605268 -24.794335469440266 3.5697237018618884 0 -0.7660444514056185 0.64278759981090561 1.5 0 0 1 I I #
face $-1 $-1 $391 $50 $-1 $547 forward single #
loop $-1 $-1 $548 $245 #
plane-surface $-1 0 -27.239364128306644 0 0 1 0 0 0 1 forward_v I I I I #
coedge $-1 $549 $550 $551 $552 reversed $246 $-1 #
coedge $-1 $553 $248 $250 $389 forward $154 $-1 #
coedge $-1 $248 $553 $549 $554 forward $154 $-1 #
coedge $-1 $551 $251 $248 $386 forward $391 $-1 #
edge $-1 $393 -22.94762084165032 $555 -7.4197688004296189 $385 $556 forward 7 unknown #
coedge $-1 $557 $558 $249 $388 forward $380 $-1 #
edge $-1 $559 -29.263804692123102 $392 -23.436061163146171 $387 $560 forward 7 unknown #
edge $-1 $393 -7.6075788007909546 $559 1.6546395036574903e-014 $250 $561 forward 7 unknown #
coedge $-1 $251 $551 $557 $562 forward $391 $-1 #
loop $-1 $-1 $551 $379 #
vertex $-1 $388 $563 #
vertex $-1 $252 $564 #
straight-curve $-1 38.131315662690291 -48.88573431356118 6.4835954663503514 0 1 0 I I #
coedge $-1 $395 $395 $-1 $565 reversed $255 $-1 #
edge $-1 $566 0 $566 6.2831853071796004 $256 $567 forward 7 unknown #
vertex $-1 $259 $568 #
ellipse-curve $-1 30.367389642079942 -24.794335469440266 3.5697237018618884 0 -0.7660444514056185 0.64278759981090561 1.5 0 0 1 I I #
face $-1 $-1 $275 $39 $-1 $569 reversed single #
loop $-1 $-1 $415 $260 #
plane-surface $-1 0 27.239364128306644 0 0 -1 0 0 0 -1 forward_v I I I I #
coedge $-1 $570 $413 $416 $571 forward $261 $-1 #
coedge $-1 $419 $263 $264 $407 reversed $163 $-1 #
coedge $-1 $413 $570 $263 $405 reversed $261 $-1 #
edge $-1 $420 -6.4835954663503532 $572 6.4835954663503532 $404 $573 forward 7 unknown #
coedge $-1 $265 $264 $570 $574 forward $105 $-1 #
edge $-1 $411 -46.036561174352244 $572 46.036561174352244 $403 $575 forward 7 unknown #
coedge $-1 $416 $415 $265 $409 reversed $400 $-1 #
edge $-1 $576 -46.036561174352244 $410 46.036561174352244 $408 $577 forward 7 unknown #
vertex $-1 $267 $578 #
vertex $-1 $422 $579 #
straight-curve $-1 46.036561174352244 0 -6.4835954663503532 0 -1 0 I I #
coedge $-1 $402 $404 $268 $414 reversed $261 $-1 #
edge $-1 $417 -27.239364128306644 $420 27.239364128306644 $413 $580 forward 7 unknown #
coedge $-1 $408 $269 $274 $423 forward $400 $-1 #
coedge $-1 $269 $408 $402 $571 reversed $400 $-1 #
vertex $-1 $270 $581 #
straight-curve $-1 0 27.239364128306644 6.4835954663503532 -1 0 0 I I #
coedge $-1 $271 $403 $273 $422 reversed $163 $-1 #
vertex $-1 $414 $582 #
straight-curve $-1 0 -27.239364128306644 6.4835954663503532 1 0 0 I I #
edge $-1 $276 -6.4835954663503532 $411 6.4835954663503532 $273 $583 forward 7 unknown #
edge $-1 $277 -6.4835954663503532 $410 6.4835954663503532 $274 $584 forward 7 unknown #
point $-1 46.036561174352244 -27.239364128306644 6.4835954663503532 #
point $-1 46.036561174352244 27.239364128306644 6.4835954663503532 #
face $-1 $-1 $294 $40 $-1 $585 reversed single #
loop $-1 $-1 $435 $279 #
plane-surface $-1 0 0 6.4835954663503532 0 0 1 1 0 0 forward_v I I I I #
coedge $-1 $441 $440 $283 $434 forward $280 $-1 #
coedge $-1 $285 $282 $441 $586 reversed $171 $-1 #
coedge $-1 $282 $285 $444 $587 reversed $171 $-1 #
edge $-1 $446 -6.4835954663503532 $442 6.4835954663503532 $282 $588 forward 7 unknown #
coedge $-1 $284 $283 $448 $589 reversed $109 $-1 #
edge $-1 $590 -24.721846433710279 $438 -17.907583047573649 $429 $591 forward 7 unknown #
coedge $-1 $445 $444 $284 $436 forward $427 $-1 #
edge $-1 $437 17.907583047573649 $592 24.721846433710279 $435 $593 forward 7 unknown #
vertex $-1 $436 $594 #
vertex $-1 $434 $595 #
straight-curve $-1 -39.222297788215613 -16.85438956657967 0 0 0 -1 I I #
coedge $-1 $429 $288 $293 $450 forward $280 $-1 #
coedge $-1 $288 $429 $430 $586 forward $280 $-1 #
vertex $-1 $289 $596 #
straight-curve $-1 -21.314714740641964 -19.85438956657967 -6.4835954663503532 -1 0 0 I I #
coedge $-1 $435 $290 $431 $587 forward $427 $-1 #
coedge $-1 $290 $435 $292 $449 forward $427 $-1 #
vertex $-1 $291 $597 #
straight-curve $-1 -21.314714740641964 -19.85438956657967 6.4835954663503532 1 0 0 I I #
coedge $-1 $293 $292 $433 $589 forward $294 $-1 #
edge $-1 $592 16.85438956657967 $296 19.85438956657967 $292 $598 forward 7 unknown #
edge $-1 $295 -19.85438956657967 $590 -16.85438956657967 $293 $599 forward 7 unknown #
point $-1 -46.036561174352244 -19.85438956657967 -6.4835954663503532 #
point $-1 -46.036561174352244 -19.85438956657967 6.4835954663503532 #
face $-1 $-1 $467 $41 $-1 $600 reversed single #
loop $-1 $-1 $601 $298 #
plane-surface $-1 53.941806686014189 0 -4.7658690769056662 -1 0 0 0 0 1 forward_v I I I I #
coedge $-1 $309 $308 $602 $603 forward $299 $-1 #
coedge $-1 $604 $301 $466 $605 forward $179 $-1 #
coedge $-1 $301 $604 $302 $461 forward $179 $-1 #
edge $-1 $463 -27.239364128306644 $468 27.239364128306644 $301 $606 forward 7 unknown #
coedge $-1 $303 $302 $601 $607 reversed $113 $-1 #
edge $-1 $608 -3.9526227558309728 $463 3.9526227558309728 $302 $609 forward 7 unknown #
edge $-1 $310 -3.9526227558309728 $610 3.9526227558309728 $303 $611 forward 7 unknown #
vertex $-1 $459 $612 #
straight-curve $-1 46.036561174352244 -27.239364128306644 0 0 0 -1 I I #
coedge $-1 $613 $306 $309 $470 reversed $467 $-1 #
coedge $-1 $306 $613 $457 $605 reversed $467 $-1 #
loop $-1 $-1 $306 $453 #
vertex $-1 $605 $614 #
straight-curve $-1 46.036561174352244 27.239364128306644 0 0 0 1 I I #
edge $-1 $615 -3.9526227558309728 $311 3.9526227558309728 $465 $616 forward 7 unknown #
point $-1 46.036561174352244 -27.239364128306644 -3.0481426874609796 #
point $-1 46.036561174352244 27.239364128306644 -3.0481426874609796 #
plane-surface $-1 0 0 6.4835954663503532 0 0 1 1 0 0 forward_v I I I I #
coedge $-1 $484 $483 $476 $617 forward $314 $-1 #
coedge $-1 $476 $316 $318 $480 reversed $187 $-1 #
coedge $-1 $316 $475 $474 $617 reversed $187 $-1 #
coedge $-1 $324 $319 $316 $478 forward $325 $-1 #
edge $-1 $481 -11.518389185274213 $618 -9.3142984427714914 $477 $619 forward 7 unknown #
coedge $-1 $318 $317 $484 $620 reversed $117 $-1 #
edge $-1 $621 -54.478728256613316 $481 -50.537171101642279 $475 $622 forward 7 unknown #
vertex $-1 $320 $623 #
straight-curve $-1 -12.451864706119414 25.035273385803919 6.4835954663503514 1 0 0 I I #
coedge $-1 $474 $321 $324 $488 reversed $314 $-1 #
coedge $-1 $321 $474 $479 $620 forward $314 $-1 #
vertex $-1 $322 $624 #
straight-curve $-1 -30.927216835581184 27.239364128306644 49.933722521972314 0 0 1 I I #
straight-curve $-1 -30.927216835581184 -3.2247534507787492 48.380809528293597 0 0.55919289150049634 -0.82903758062907751 I I #
edge $-1 $618 18.880241988896472 $326 30.927216835581184 $483 $625 forward 7 unknown #
point $-1 -30.927216835581184 27.239364128306644 6.4835954663503532 #
point $-1 -30.927216835581184 25.035273385803922 6.4835954663503514 #
edge $-1 $626 1 $626 0 $329 $-1 forward 7 unknown #
vertex $-1 $330 $627 #
ellipse-curve $-1 -27.485224022242694 25.308281176426213 4.2905530710156592 0 0.82903758062907751 0.55919289150049634 0.5 0 0 1 I I #
point $-1 -26.985224022242694 26.13731875705529 4.8497459625161552 #
edge $-1 $628 1 $628 0 $333 $-1 forward 7 unknown #
vertex $-1 $334 $629 #
ellipse-curve $-1 -22.322234802234959 25.308281176426213 4.2905530710156592 0 0.82903758062907751 0.55919289150049634 0.5 0 0 1 I I #
point $-1 -21.822234802234959 26.13731875705529 4.8497459625161552 #
loop $-1 $-1 $345 $337 #
plane-surface $-1 0 27.239364128306644 0 0 -1 0 0 0 -1 forward_v I I I I #
coedge $-1 $502 $340 $342 $506 reversed $209 $-1 #
coedge $-1 $340 $501 $630 $631 reversed $209 $-1 #
coedge $-1 $348 $343 $340 $504 forward $338 $-1 #
edge $-1 $507 -11.518389185274213 $632 -9.3142984427714914 $503 $633 forward 7 unknown #
coedge $-1 $342 $341 $510 $634 reversed $131 $-1 #
edge $-1 $635 -54.478728256613316 $507 -50.537171101642279 $501 $636 forward 7 unknown #
vertex $-1 $344 $637 #
straight-curve $-1 6.8865386566070654 25.035273385803919 6.4835954663503514 1 0 0 I I #
coedge $-1 $630 $345 $348 $514 reversed $499 $-1 #
coedge $-1 $345 $630 $505 $634 forward $499 $-1 #
vertex $-1 $346 $638 #
straight-curve $-1 7.7495898898717757 27.239364128306644 49.933722521972314 0 0 1 I I #
straight-curve $-1 7.7495898898717757 -3.2247534507787492 48.380809528293597 0 0.55919289150049634 -0.82903758062907751 I I #
edge $-1 $632 -19.796564736556487 $349 -7.7495898898717757 $509 $639 forward 7 unknown #
point $-1 7.7495898898717757 27.239364128306644 6.4835954663503532 #
point $-1 7.7495898898717757 25.035273385803922 6.4835954663503514 #
edge $-1 $640 1 $640 0 $352 $-1 forward 7 unknown #
vertex $-1 $353 $641 #
ellipse-curve $-1 11.191582703210258 25.308281176426213 4.2905530710156592 0 0.82903758062907751 0.55919289150049634 0.5 0 0 1 I I #
point $-1 11.691582703210258 26.13731875705529 4.8497459625161552 #
edge $-1 $642 1 $642 0 $356 $-1 forward 7 unknown #
vertex $-1 $357 $643 #
ellipse-curve $-1 16.354571923217996 25.308281176426213 4.2905530710156592 0 0.82903758062907751 0.55919289150049634 0.5 0 0 1 I I #
point $-1 16.854571923217996 26.13731875705529 4.8497459625161552 #
loop $-1 $-1 $368 $360 #
plane-surface $-1 0 -27.239364128306644 0 0 1 0 0 0 1 forward_v I I I I #
coedge $-1 $528 $363 $365 $532 reversed $231 $-1 #
coedge $-1 $363 $527 $644 $645 reversed $231 $-1 #
coedge $-1 $371 $366 $363 $530 forward $361 $-1 #
edge $-1 $533 -26.536427502987291 $646 -21.646370185254536 $529 $647 forward 7 unknown #
coedge $-1 $365 $364 $536 $648 reversed $145 $-1 #
edge $-1 $649 -1.6546395036574903e-014 $533 7.6075788007909546 $527 $650 forward 7 unknown #
vertex $-1 $367 $651 #
straight-curve $-1 -15.729185883802634 -22.349306810573889 6.4835954663503532 -1 0 0 I I #
coedge $-1 $644 $368 $371 $540 reversed $525 $-1 #
coedge $-1 $368 $644 $531 $648 forward $525 $-1 #
vertex $-1 $369 $652 #
straight-curve $-1 -23.694445746994916 -27.23936412830664 29.919656629496522 0 0 1 I I #
straight-curve $-1 -23.694445746994916 -27.239364128306633 0.65585193737343417 0 -0.64278759981090561 -0.7660444514056185 I I #
edge $-1 $646 -39.22229778821562 $372 -23.694445746994916 $535 $653 forward 7 unknown #
point $-1 -23.694445746994916 -27.239364128306644 6.4835954663503532 #
point $-1 -23.694445746994916 -22.349306810573889 6.4835954663503532 #
edge $-1 $654 1 $654 0 $375 $-1 forward 7 unknown #
vertex $-1 $376 $655 #
ellipse-curve $-1 -31.458371767605268 -22.086259506641689 1.2973782197702755 0 -0.7660444514056185 0.64278759981090561 1.5 0 0 1 I I #
point $-1 -29.958371767605268 -24.794335469440274 3.5697237018618941 #
plane-surface $-1 0 0 6.4835954663503532 0 0 1 1 0 0 forward_v I I I I #
coedge $-1 $558 $557 $550 $656 forward $380 $-1 #
coedge $-1 $550 $382 $384 $554 reversed $246 $-1 #
coedge $-1 $382 $549 $548 $656 reversed $246 $-1 #
coedge $-1 $390 $385 $382 $552 forward $391 $-1 #
edge $-1 $555 -26.536427502987291 $657 -21.646370185254536 $551 $658 forward 7 unknown #
coedge $-1 $384 $383 $558 $659 reversed $154 $-1 #
edge $-1 $660 -1.6546395036574903e-014 $555 7.6075788007909546 $549 $661 forward 7 unknown #
vertex $-1 $386 $662 #
straight-curve $-1 15.183694821039971 -22.349306810573889 6.4835954663503532 -1 0 0 I I #
coedge $-1 $548 $387 $390 $562 reversed $380 $-1 #
coedge $-1 $387 $548 $553 $659 forward $380 $-1 #
vertex $-1 $388 $663 #
straight-curve $-1 38.131315662690291 -27.23936412830664 29.919656629496522 0 0 1 I I #
straight-curve $-1 38.131315662690291 -27.239364128306633 0.65585193737343417 0 -0.64278759981090561 -0.7660444514056185 I I #
edge $-1 $657 22.60346362146959 $392 38.131315662690291 $557 $664 forward 7 unknown #
point $-1 38.131315662690291 -27.239364128306644 6.4835954663503532 #
point $-1 38.131315662690291 -22.349306810573889 6.4835954663503532 #
edge $-1 $665 1 $665 0 $395 $-1 forward 7 unknown #
vertex $-1 $396 $666 #
ellipse-curve $-1 30.367389642079942 -22.086259506641689 1.2973782197702755 0 -0.7660444514056185 0.64278759981090561 1.5 0 0 1 I I #
point $-1 31.867389642079942 -24.794335469440274 3.5697237018618941 #
plane-surface $-1 46.036561174352244 0 0 -1 0 0 0 0 1 forward_v I I I I #
coedge $-1 $404 $402 $406 $574 reversed $261 $-1 #
edge $-1 $417 -6.4835954663503532 $576 6.4835954663503532 $416 $667 forward 7 unknown #
vertex $-1 $574 $668 #
straight-curve $-1 -46.036561174352244 -27.239364128306644 0 0 0 -1 I I #
edge $-1 $572 -27.239364128306644 $576 27.239364128306644 $570 $669 forward 7 unknown #
straight-curve $-1 0 -27.239364128306644 -6.4835954663503532 -1 0 0 I I #
vertex $-1 $409 $670 #
straight-curve $-1 0 27.239364128306644 -6.4835954663503532 1 0 0 I I #
point $-1 46.036561174352244 27.239364128306644 -6.4835954663503532 #
point $-1 46.036561174352244 -27.239364128306644 -6.4835954663503532 #
straight-curve $-1 -46.036561174352244 0 6.4835954663503532 0 -1 0 I I #
point $-1 -46.036561174352244 27.239364128306644 6.4835954663503532 #
point $-1 -46.036561174352244 -27.239364128306644 6.4835954663503532 #
straight-curve $-1 46.036561174352244 -27.239364128306644 0 0 0 -1 I I #
straight-curve $-1 46.036561174352244 27.239364128306644 0 0 0 -1 I I #
plane-surface $-1 -46.036561174352244 0 0 1 0 0 0 0 -1 forward_v I I I I #
edge $-1 $438 7.6771947832898348 $442 10.677194783289835 $441 $671 forward 7 unknown #
edge $-1 $446 -10.677194783289835 $437 -7.6771947832898348 $444 $672 forward 7 unknown #
straight-curve $-1 -39.222297788215613 -19.85438956657967 0 0 0 -1 I I #
edge $-1 $592 -6.4835954663503532 $590 6.4835954663503532 $448 $673 forward 7 unknown #
vertex $-1 $589 $674 #
straight-curve $-1 -21.314714740641964 -16.85438956657967 -6.4835954663503532 1 0 0 I I #
vertex $-1 $449 $675 #
straight-curve $-1 -21.314714740641964 -16.85438956657967 6.4835954663503532 -1 0 0 I I #
point $-1 -39.222297788215613 -16.85438956657967 6.4835954663503532 #
point $-1 -39.222297788215613 -16.85438956657967 -6.4835954663503532 #
point $-1 -39.222297788215613 -19.85438956657967 -6.4835954663503532 #
point $-1 -39.222297788215613 -19.85438956657967 6.4835954663503532 #
straight-curve $-1 -46.036561174352244 0 6.4835954663503532 0 -1 0 I I #
straight-curve $-1 -46.036561174352244 0 -6.4835954663503532 0 1 0 I I #
plane-surface $-1 0 27.239364128306644 0 0 -1 0 0 0 -1 forward_v I I I I #
coedge $-1 $676 $602 $460 $607 forward $454 $-1 #
coedge $-1 $601 $677 $456 $603 reversed $454 $-1 #
edge $-1 $610 -27.239364128306644 $615 27.239364128306644 $602 $678 forward 7 unknown #
coedge $-1 $458 $457 $676 $679 forward $179 $-1 #
edge $-1 $468 -3.9526227558309728 $680 3.9526227558309728 $466 $681 forward 7 unknown #
straight-curve $-1 46.036561174352244 0 -6.4835954663503532 0 1 0 I I #
edge $-1 $610 -1.7177263894446866 $608 1.717726389444687 $601 $682 forward 7 unknown #
vertex $-1 $607 $683 #
straight-curve $-1 49.989183930183216 -27.239364128306644 -6.4835954663503532 -1 0 0 I I #
vertex $-1 $603 $684 #
straight-curve $-1 49.989183930183216 -27.239364128306644 -3.0481426874609796 1 0 0 I I #
point $-1 46.036561174352244 -27.239364128306644 -6.4835954663503532 #
coedge $-1 $466 $465 $677 $685 forward $467 $-1 #
point $-1 46.036561174352244 27.239364128306644 -6.4835954663503532 #
vertex $-1 $603 $686 #
straight-curve $-1 49.989183930183216 27.239364128306644 -3.0481426874609796 -1 0 0 I I #
edge $-1 $618 43.450127055621962 $621 46.717826063290381 $474 $687 forward 7 unknown #
vertex $-1 $488 $688 #
straight-curve $-1 -18.880241988896472 36.553662571078135 6.4835954663503514 0 1 0 I I #
edge $-1 $621 6.428377282777058 $485 18.475352129461768 $484 $689 forward 7 unknown #
vertex $-1 $620 $690 #
straight-curve $-1 -18.880241988896472 -3.2247534507787492 48.380809528293597 0 -0.55919289150049634 0.82903758062907751 I I #
point $-1 -18.880241988896472 25.035273385803922 6.4835954663503514 #
point $-1 -30.927216835581184 27.239364128306644 3.2158964586819323 #
straight-curve $-1 0 27.239364128306644 6.4835954663503532 -1 0 0 I I #
vertex $-1 $491 $691 #
point $-1 -26.985224022242694 25.308281176426213 4.2905530710156592 #
vertex $-1 $495 $692 #
point $-1 -21.822234802234959 25.308281176426213 4.2905530710156592 #
coedge $-1 $510 $509 $502 $631 forward $499 $-1 #
edge $-1 $632 43.450127055621962 $635 46.717826063290381 $630 $693 forward 7 unknown #
vertex $-1 $514 $694 #
straight-curve $-1 19.796564736556487 36.553662571078135 6.4835954663503514 0 1 0 I I #
edge $-1 $635 -12.910026079949422 $511 -0.86305123326471023 $510 $695 forward 7 unknown #
vertex $-1 $634 $696 #
straight-curve $-1 19.796564736556487 -3.2247534507787492 48.380809528293597 0 -0.55919289150049634 0.82903758062907751 I I #
point $-1 19.796564736556487 25.035273385803922 6.4835954663503514 #
point $-1 7.7495898898717757 27.239364128306644 3.2158964586819323 #
straight-curve $-1 0 27.239364128306644 6.4835954663503532 -1 0 0 I I #
vertex $-1 $517 $697 #
point $-1 11.691582703210258 25.308281176426213 4.2905530710156592 #
vertex $-1 $521 $698 #
point $-1 16.854571923217996 25.308281176426213 4.2905530710156592 #
coedge $-1 $536 $535 $528 $645 forward $525 $-1 #
edge $-1 $646 23.436061163146171 $649 29.263804692123102 $644 $699 forward 7 unknown #
vertex $-1 $540 $700 #
straight-curve $-1 -39.22229778821562 -48.88573431356118 6.4835954663503514 0 -1 0 I I #
edge $-1 $649 -23.493111904412984 $537 -7.9652598631922817 $536 $701 forward 7 unknown #
vertex $-1 $648 $702 #
straight-curve $-1 -39.22229778821562 -27.239364128306633 0.65585193737343417 0 0.64278759981090561 0.7660444514056185 I I #
point $-1 -39.22229778821562 -22.349306810573889 6.4835954663503532 #
point $-1 -23.694445746994916 -27.239364128306644 0.65585193737342151 #
straight-curve $-1 0 -27.239364128306644 6.4835954663503532 1 0 0 I I #
vertex $-1 $543 $703 #
point $-1 -29.958371767605268 -22.086259506641689 1.2973782197702755 #
edge $-1 $657 23.436061163146171 $660 29.263804692123102 $548 $704 forward 7 unknown #
vertex $-1 $562 $705 #
straight-curve $-1 22.60346362146959 -48.88573431356118 6.4835954663503514 0 -1 0 I I #
edge $-1 $660 7.4197688004296189 $559 22.94762084165032 $558 $706 forward 7 unknown #
vertex $-1 $659 $707 #
straight-curve $-1 22.60346362146959 -27.239364128306633 0.65585193737343417 0 0.64278759981090561 0.7660444514056185 I I #
point $-1 22.60346362146959 -22.349306810573889 6.4835954663503532 #
point $-1 38.131315662690291 -27.239364128306644 0.65585193737342151 #
straight-curve $-1 0 -27.239364128306644 6.4835954663503532 1 0 0 I I #
vertex $-1 $565 $708 #
point $-1 31.867389642079942 -22.086259506641689 1.2973782197702755 #
straight-curve $-1 -46.036561174352244 27.239364128306644 0 0 0 -1 I I #
point $-1 -46.036561174352244 -27.239364128306644 -6.4835954663503532 #
straight-curve $-1 -46.036561174352244 0 -6.4835954663503532 0 1 0 I I #
point $-1 -46.036561174352244 27.239364128306644 -6.4835954663503532 #
straight-curve $-1 -39.222297788215613 -9.1771947832898348 -6.4835954663503532 0 -1 0 I I #
straight-curve $-1 -39.222297788215613 -9.1771947832898348 6.4835954663503532 0 1 0 I I #
straight-curve $-1 -46.036561174352244 -16.85438956657967 0 0 0 -1 I I #
point $-1 -46.036561174352244 -16.85438956657967 -6.4835954663503532 #
point $-1 -46.036561174352244 -16.85438956657967 6.4835954663503532 #
coedge $-1 $677 $601 $604 $679 reversed $454 $-1 #
coedge $-1 $602 $676 $613 $685 reversed $454 $-1 #
straight-curve $-1 53.941806686014189 0 -3.0481426874609796 0 1 0 I I #
edge $-1 $680 -27.239364128306644 $608 27.239364128306644 $676 $709 forward 7 unknown #
vertex $-1 $679 $710 #
straight-curve $-1 49.989183930183216 27.239364128306644 -6.4835954663503532 1 0 0 I I #
straight-curve $-1 53.941806686014189 -27.239364128306644 -4.7658690769056662 0 0 -1 I I #
point $-1 53.941806686014189 -27.239364128306644 -6.4835954663503532 #
point $-1 53.941806686014189 -27.239364128306644 -3.0481426874609796 #
edge $-1 $615 -1.7177263894446866 $680 1.717726389444687 $677 $711 forward 7 unknown #
point $-1 53.941806686014189 27.239364128306644 -3.0481426874609796 #
straight-curve $-1 -18.880241988896472 27.239364128306644 49.933722521972314 0 0 -1 I I #
point $-1 -18.880241988896472 27.239364128306644 6.4835954663503532 #
straight-curve $-1 -12.451864706119414 27.239364128306647 3.2158964586819323 -1 0 0 I I #
point $-1 -18.880241988896472 27.239364128306644 3.2158964586819323 #
point $-1 -27.485224022242694 24.893762386111675 4.0109566252654103 #
point $-1 -22.322234802234959 24.893762386111675 4.0109566252654103 #
straight-curve $-1 19.796564736556487 27.239364128306644 49.933722521972314 0 0 -1 I I #
point $-1 19.796564736556487 27.239364128306644 6.4835954663503532 #
straight-curve $-1 6.8865386566070654 27.239364128306647 3.2158964586819323 -1 0 0 I I #
point $-1 19.796564736556487 27.239364128306644 3.2158964586819323 #
point $-1 11.191582703210258 24.893762386111675 4.0109566252654103 #
point $-1 16.354571923217996 24.893762386111675 4.0109566252654103 #
straight-curve $-1 -39.22229778821562 -27.23936412830664 29.919656629496522 0 0 -1 I I #
point $-1 -39.22229778821562 -27.239364128306644 6.4835954663503532 #
straight-curve $-1 -15.729185883802634 -27.239364128306644 0.65585193737342196 1 0 0 I I #
point $-1 -39.22229778821562 -27.239364128306644 0.65585193737342151 #
point $-1 -31.458371767605268 -20.937192829533259 0.33319682005391693 #
straight-curve $-1 22.60346362146959 -27.23936412830664 29.919656629496522 0 0 -1 I I #
point $-1 22.60346362146959 -27.239364128306644 6.4835954663503532 #
straight-curve $-1 15.183694821039971 -27.239364128306644 0.65585193737342196 1 0 0 I I #
point $-1 22.60346362146959 -27.239364128306644 0.65585193737342151 #
point $-1 30.367389642079942 -20.937192829533259 0.33319682005391693 #
straight-curve $-1 53.941806686014189 0 -6.4835954663503532 0 -1 0 I I #
point $-1 53.941806686014189 27.239364128306644 -6.4835954663503532 #
straight-curve $-1 53.941806686014189 27.239364128306644 -4.7658690769056662 0 0 -1 I I #
End-of-ACIS-data 