500 0 4 0           
7 Unknown 11 ACIS 5.0 NT 24 Thu Mar 25 15:21:47 1999 
-1 9.9999999999999995e-007 1e-010 
body $-1 $4 $-1 $5 #
body $-1 $6 $-1 $7 #
body $-1 $8 $-1 $9 #
body $-1 $10 $-1 $11 #
lump $-1 $-1 $12 $0 #
transform $-1 1 0 0 0 1 0 0 0 1 43.675649281289104 27.607883485634098 9.6257290835788059 1 rotate no_reflect no_shear #
lump $-1 $-1 $13 $1 #
transform $-1 1 0 0 0 1 0 0 0 1 43.675649281289104 27.607883485634098 9.6257290835788059 1 rotate no_reflect no_shear #
lump $-1 $-1 $14 $2 #
transform $-1 1 0 0 0 1 0 0 0 1 43.675649281289104 27.607883485634098 9.6257290835788059 1 rotate no_reflect no_shear #
lump $-1 $-1 $15 $3 #
transform $-1 1 0 0 0 1 0 0 0 1 43.675649281289104 27.607883485634098 9.6257290835788059 1 rotate no_reflect no_shear #
shell $-1 $-1 $-1 $16 $-1 $4 #
shell $-1 $-1 $-1 $17 $-1 $6 #
shell $-1 $-1 $-1 $18 $-1 $8 #
shell $-1 $-1 $-1 $19 $-1 $10 #
face $-1 $20 $21 $12 $-1 $22 forward single #
face $-1 $23 $24 $13 $-1 $25 reversed single #
face $-1 $26 $27 $14 $-1 $28 reversed single #
face $-1 $29 $30 $15 $-1 $31 forward single #
face $-1 $32 $33 $12 $-1 $34 reversed single #
loop $-1 $-1 $35 $16 #
plane-surface $-1 0 0 9.6257290835788059 0 0 1 1 0 0 forward_v I I I I #
face $-1 $36 $37 $13 $-1 $38 reversed single #
loop $-1 $-1 $39 $17 #
plane-surface $-1 0 -22.372640764855124 6.6257290835788059 0 0 1 1 0 0 forward_v I I I I #
face $-1 $40 $41 $14 $-1 $42 reversed single #
loop $-1 $-1 $43 $18 #
plane-surface $-1 -22.174919025337633 65.821556320563531 100.43879795920583 -1 0 0 0 0.80901700255871778 0.5877852410284794 forward_v I I I I #
face $-1 $44 $45 $15 $-1 $46 forward single #
loop $-1 $47 $48 $19 #
cone-surface $-1 -32.92528415331337 24.827833588966204 6.3780608554511842 0 -0.80901700255871778 -0.5877852410284794 1 0 0 1 I I 0 1 1 forward I I I I #
face $-1 $49 $50 $12 $-1 $51 reversed single #
loop $-1 $-1 $52 $20 #
plane-surface $-1 0 0 -9.6257290835788059 0 0 1 1 0 0 forward_v I I I I #
coedge $-1 $53 $54 $55 $56 forward $21 $-1 #
face $-1 $57 $58 $13 $-1 $59 reversed single #
loop $-1 $-1 $60 $23 #
plane-surface $-1 0 -17.13739804407615 8.1257290835788059 0 -1 0 0 0 -1 forward_v I I I I #
coedge $-1 $61 $62 $63 $64 reversed $24 $-1 #
face $-1 $65 $66 $14 $-1 $67 reversed single #
loop $-1 $-1 $68 $26 #
plane-surface $-1 -32.92528415331337 -4.8471294121451223 49.094993879450129 0 0.80901700255871778 0.5877852410284794 1 0 0 forward_v I I I I #
coedge $-1 $69 $70 $71 $72 reversed $27 $-1 #
face $-1 $-1 $73 $15 $-1 $74 forward single #
loop $-1 $75 $76 $29 #
cone-surface $-1 -32.92528415331337 23.532732348061749 5.4371147534116826 0 -0.80901700255871778 -0.5877852410284794 0.5 0 0 1 I I -0.70710678118654746 0.70710678118654746 0.5 forward I I I I #
loop $-1 $-1 $77 $19 #
coedge $-1 $48 $48 $78 $79 reversed $30 $-1 #
face $-1 $80 $81 $12 $-1 $82 reversed single #
loop $-1 $-1 $83 $32 #
plane-surface $-1 0 -27.607883485634098 0 0 1 0 0 0 1 forward_v I I I I #
coedge $-1 $84 $85 $86 $87 forward $33 $-1 #
coedge $-1 $88 $35 $89 $90 forward $21 $-1 #
coedge $-1 $35 $88 $91 $92 forward $21 $-1 #
coedge $-1 $93 $94 $35 $56 reversed $95 $-1 #
edge $-1 $96 -27.607883485634098 $97 27.607883485634098 $55 $98 forward 7 unknown #
face $-1 $99 $100 $13 $-1 $101 reversed single #
loop $-1 $-1 $102 $36 #
plane-surface $-1 -43.675649281289104 0 0 1 0 0 0 0 -1 forward_v I I I I #
coedge $-1 $103 $104 $105 $106 reversed $37 $-1 #
coedge $-1 $107 $39 $108 $109 reversed $24 $-1 #
coedge $-1 $39 $107 $103 $110 forward $24 $-1 #
coedge $-1 $105 $111 $39 $64 forward $112 $-1 #
edge $-1 $113 -16.421563103206537 $114 -5.9510776616485881 $63 $115 forward 7 unknown #
face $-1 $116 $117 $14 $-1 $118 forward single #
loop $-1 $-1 $119 $40 #
plane-surface $-1 -43.675649281289104 0 0 1 0 0 0 0 -1 forward_v I I I I #
coedge $-1 $120 $121 $122 $123 reversed $41 $-1 #
coedge $-1 $70 $43 $124 $125 reversed $27 $-1 #
coedge $-1 $43 $69 $120 $126 reversed $27 $-1 #
coedge $-1 $122 $127 $43 $72 forward $128 $-1 #
edge $-1 $129 40.59366989602411 $130 45.794899389228817 $71 $131 forward 7 unknown #
loop $-1 $-1 $78 $44 #
plane-surface $-1 -32.92528415331337 -4.8471294121451223 49.094993879450129 0 0.80901700255871778 0.5877852410284794 1 0 0 forward_v I I I I #
loop $-1 $-1 $132 $29 #
coedge $-1 $76 $76 $77 $133 reversed $45 $-1 #
coedge $-1 $77 $77 $76 $133 forward $47 $-1 #
coedge $-1 $78 $78 $48 $79 forward $73 $-1 #
edge $-1 $134 0 $134 6.2831853071796004 $78 $135 forward 7 unknown #
face $-1 $136 $137 $12 $-1 $138 reversed single #
loop $-1 $-1 $139 $49 #
plane-surface $-1 -43.675649281289104 0 0 1 0 0 0 0 -1 forward_v I I I I #
coedge $-1 $140 $91 $141 $142 forward $50 $-1 #
coedge $-1 $143 $52 $140 $144 forward $33 $-1 #
coedge $-1 $52 $143 $145 $146 forward $33 $-1 #
coedge $-1 $94 $93 $52 $87 reversed $95 $-1 #
edge $-1 $147 -27.607883485634098 $148 27.607883485634098 $86 $149 forward 7 unknown #
coedge $-1 $54 $53 $150 $151 forward $21 $-1 #
coedge $-1 $152 $153 $53 $90 reversed $137 $-1 #
edge $-1 $97 -43.675649281289104 $154 43.675649281289104 $89 $155 forward 7 unknown #
coedge $-1 $83 $156 $54 $92 reversed $50 $-1 #
edge $-1 $157 -43.675649281289104 $96 43.675649281289104 $91 $158 forward 7 unknown #
coedge $-1 $86 $55 $156 $159 forward $95 $-1 #
coedge $-1 $55 $86 $152 $160 reversed $95 $-1 #
loop $-1 $-1 $93 $136 #
vertex $-1 $56 $161 #
vertex $-1 $56 $162 #
straight-curve $-1 43.675649281289104 0 9.6257290835788059 0 1 0 I I #
face $-1 $163 $164 $13 $-1 $165 forward single #
loop $-1 $-1 $108 $57 #
plane-surface $-1 0 -27.607883485634098 0 0 1 0 0 0 1 forward_v I I I I #
coedge $-1 $166 $167 $168 $169 forward $58 $-1 #
coedge $-1 $168 $60 $62 $110 reversed $37 $-1 #
coedge $-1 $60 $168 $170 $171 reversed $37 $-1 #
coedge $-1 $172 $63 $60 $106 forward $112 $-1 #
edge $-1 $114 2.5628645417894029 $173 5.5628645417894029 $105 $174 forward 7 unknown #
coedge $-1 $62 $61 $166 $175 reversed $24 $-1 #
coedge $-1 $176 $177 $61 $109 forward $100 $-1 #
edge $-1 $178 -43.675649281289104 $113 43.675649281289104 $108 $179 forward 7 unknown #
edge $-1 $180 -43.675649281289104 $114 43.675649281289104 $103 $181 forward 7 unknown #
coedge $-1 $63 $172 $176 $182 forward $112 $-1 #
loop $-1 $-1 $105 $163 #
vertex $-1 $109 $183 #
vertex $-1 $64 $184 #
straight-curve $-1 43.675649281289104 -11.186320382427562 6.6257290835788059 0 1 0 I I #
face $-1 $-1 $128 $14 $-1 $185 reversed single #
loop $-1 $-1 $124 $65 #
plane-surface $-1 0 0 9.6257290835788059 0 0 1 1 0 0 forward_v I I I I #
coedge $-1 $186 $187 $121 $188 forward $66 $-1 #
coedge $-1 $189 $68 $70 $126 forward $41 $-1 #
coedge $-1 $68 $189 $119 $188 reversed $41 $-1 #
coedge $-1 $190 $71 $68 $123 forward $128 $-1 #
edge $-1 $130 5.7122769486809482 $191 27.213007204632419 $122 $192 forward 7 unknown #
coedge $-1 $193 $194 $69 $125 forward $117 $-1 #
edge $-1 $195 -9.0818089887332683 $129 -5.3028946746476677 $124 $196 forward 7 unknown #
edge $-1 $130 -55.215766971268181 $195 -48.786693816124931 $70 $197 forward 7 unknown #
coedge $-1 $71 $190 $193 $198 reversed $128 $-1 #
loop $-1 $-1 $122 $116 #
vertex $-1 $198 $199 #
vertex $-1 $72 $200 #
straight-curve $-1 -22.174919025337633 27.607883485634098 50.219398979602914 0 0 -1 I I #
coedge $-1 $132 $132 $-1 $201 reversed $75 $-1 #
edge $-1 $202 0 $202 6.2831853071796004 $76 $203 forward 7 unknown #
vertex $-1 $79 $204 #
ellipse-curve $-1 -32.92528415331337 25.718426328591299 7.025114336976447 0 0.80901700255871778 0.5877852410284794 1 0 0 1 I I #
face $-1 $-1 $95 $12 $-1 $205 reversed single #
loop $-1 $-1 $152 $80 #
plane-surface $-1 0 27.607883485634098 0 0 -1 0 0 0 -1 forward_v I I I I #
coedge $-1 $206 $150 $153 $207 forward $81 $-1 #
coedge $-1 $156 $83 $84 $144 reversed $50 $-1 #
coedge $-1 $150 $206 $83 $142 reversed $81 $-1 #
edge $-1 $157 -9.6257290835788059 $208 9.6257290835788059 $141 $209 forward 7 unknown #
coedge $-1 $85 $84 $206 $210 forward $33 $-1 #
edge $-1 $148 -43.675649281289104 $208 43.675649281289104 $140 $211 forward 7 unknown #
coedge $-1 $153 $152 $85 $146 reversed $137 $-1 #
edge $-1 $212 -43.675649281289104 $147 43.675649281289104 $145 $213 forward 7 unknown #
vertex $-1 $87 $214 #
vertex $-1 $159 $215 #
straight-curve $-1 43.675649281289104 0 -9.6257290835788059 0 -1 0 I I #
coedge $-1 $139 $141 $88 $151 reversed $81 $-1 #
edge $-1 $154 -27.607883485634098 $157 27.607883485634098 $150 $216 forward 7 unknown #
coedge $-1 $145 $89 $94 $160 forward $137 $-1 #
coedge $-1 $89 $145 $139 $207 reversed $137 $-1 #
vertex $-1 $90 $217 #
straight-curve $-1 0 27.607883485634098 9.6257290835788059 -1 0 0 I I #
coedge $-1 $91 $140 $93 $159 reversed $50 $-1 #
vertex $-1 $151 $218 #
straight-curve $-1 0 -27.607883485634098 9.6257290835788059 1 0 0 I I #
edge $-1 $96 -9.6257290835788059 $148 9.6257290835788059 $93 $219 forward 7 unknown #
edge $-1 $97 -9.6257290835788059 $147 9.6257290835788059 $94 $220 forward 7 unknown #
point $-1 43.675649281289104 -27.607883485634098 9.6257290835788059 #
point $-1 43.675649281289104 27.607883485634098 9.6257290835788059 #
face $-1 $-1 $112 $13 $-1 $221 reversed single #
loop $-1 $-1 $170 $99 #
plane-surface $-1 0 0 9.6257290835788059 0 0 1 1 0 0 forward_v I I I I #
coedge $-1 $222 $102 $107 $175 forward $58 $-1 #
coedge $-1 $102 $222 $223 $224 reversed $58 $-1 #
coedge $-1 $104 $103 $102 $169 reversed $37 $-1 #
edge $-1 $225 -5.5628645417894029 $180 -2.5628645417894029 $102 $226 forward 7 unknown #
coedge $-1 $223 $227 $104 $171 forward $164 $-1 #
edge $-1 $173 -43.675649281289104 $225 43.675649281289104 $170 $228 forward 7 unknown #
coedge $-1 $111 $105 $227 $229 reversed $112 $-1 #
vertex $-1 $106 $230 #
straight-curve $-1 43.675649281289104 -17.13739804407615 4.0628645417894029 0 0 1 I I #
edge $-1 $180 5.9510776616485881 $178 16.421563103206537 $166 $231 forward 7 unknown #
coedge $-1 $232 $108 $111 $182 reversed $100 $-1 #
coedge $-1 $108 $232 $222 $233 forward $100 $-1 #
vertex $-1 $109 $234 #
straight-curve $-1 0 -27.607883485634098 6.6257290835788059 1 0 0 I I #
vertex $-1 $175 $235 #
straight-curve $-1 0 -17.13739804407615 6.6257290835788059 1 0 0 I I #
edge $-1 $236 -9.6257290835788059 $113 -6.6257290835788059 $111 $237 forward 7 unknown #
point $-1 43.675649281289104 -27.607883485634098 6.6257290835788059 #
point $-1 43.675649281289104 -17.13739804407615 6.6257290835788059 #
plane-surface $-1 0 27.607883485634098 0 0 -1 0 0 0 -1 forward_v I I I I #
coedge $-1 $187 $119 $238 $239 reversed $66 $-1 #
coedge $-1 $119 $186 $190 $240 forward $66 $-1 #
edge $-1 $191 -33.931889011865536 $241 -27.502815856722282 $119 $242 forward 7 unknown #
coedge $-1 $121 $120 $194 $243 reversed $41 $-1 #
coedge $-1 $127 $122 $187 $240 reversed $128 $-1 #
vertex $-1 $188 $244 #
straight-curve $-1 -16.462642076656685 27.607883485634098 4.4244995903740971 -1 0 0 I I #
coedge $-1 $238 $124 $127 $198 forward $117 $-1 #
coedge $-1 $124 $238 $189 $243 forward $117 $-1 #
vertex $-1 $125 $245 #
straight-curve $-1 -22.174919025337633 32.910778160281765 9.6257290835788041 0 1 0 I I #
straight-curve $-1 -22.174919025337633 -4.8471294121451223 49.094993879450129 0 -0.5877852410284794 0.80901700255871778 I I #
edge $-1 $129 22.174919025337633 $246 43.675649281289104 $127 $247 forward 7 unknown #
point $-1 -22.174919025337633 27.607883485634098 9.6257290835788059 #
point $-1 -22.174919025337633 27.607883485634098 4.4244995903740971 #
edge $-1 $248 1 $248 0 $132 $-1 forward 7 unknown #
vertex $-1 $133 $249 #
ellipse-curve $-1 -32.92528415331337 23.937240849341109 5.7310073739259222 0 0.80901700255871778 0.5877852410284794 1 0 0 1 I I #
point $-1 -31.92528415331337 25.718426328591299 7.025114336976447 #
plane-surface $-1 43.675649281289104 0 0 -1 0 0 0 0 1 forward_v I I I I #
coedge $-1 $141 $139 $143 $210 reversed $81 $-1 #
edge $-1 $154 -9.6257290835788059 $212 9.6257290835788059 $153 $250 forward 7 unknown #
vertex $-1 $210 $251 #
straight-curve $-1 -43.675649281289104 -27.607883485634098 0 0 0 -1 I I #
edge $-1 $208 -27.607883485634098 $212 27.607883485634098 $206 $252 forward 7 unknown #
straight-curve $-1 0 -27.607883485634098 -9.6257290835788059 -1 0 0 I I #
vertex $-1 $146 $253 #
straight-curve $-1 0 27.607883485634098 -9.6257290835788059 1 0 0 I I #
point $-1 43.675649281289104 27.607883485634098 -9.6257290835788059 #
point $-1 43.675649281289104 -27.607883485634098 -9.6257290835788059 #
straight-curve $-1 -43.675649281289104 0 9.6257290835788059 0 -1 0 I I #
point $-1 -43.675649281289104 27.607883485634098 9.6257290835788059 #
point $-1 -43.675649281289104 -27.607883485634098 9.6257290835788059 #
straight-curve $-1 43.675649281289104 -27.607883485634098 0 0 0 -1 I I #
straight-curve $-1 43.675649281289104 27.607883485634098 0 0 0 -1 I I #
plane-surface $-1 43.675649281289104 0 0 -1 0 0 0 0 1 forward_v I I I I #
coedge $-1 $167 $166 $177 $233 reversed $58 $-1 #
coedge $-1 $254 $170 $167 $224 forward $164 $-1 #
edge $-1 $225 17.13739804407615 $255 27.607883485634098 $167 $256 forward 7 unknown #
vertex $-1 $224 $257 #
straight-curve $-1 -43.675649281289104 -17.13739804407615 4.0628645417894029 0 0 -1 I I #
coedge $-1 $170 $254 $172 $229 forward $164 $-1 #
straight-curve $-1 0 -17.13739804407615 9.6257290835788059 -1 0 0 I I #
edge $-1 $236 -27.607883485634098 $173 -17.13739804407615 $172 $258 forward 7 unknown #
point $-1 43.675649281289104 -17.13739804407615 9.6257290835788059 #
straight-curve $-1 -43.675649281289104 -11.186320382427562 6.6257290835788059 0 -1 0 I I #
coedge $-1 $177 $176 $254 $259 reversed $100 $-1 #
edge $-1 $255 -9.6257290835788059 $178 -6.6257290835788059 $222 $260 forward 7 unknown #
point $-1 -43.675649281289104 -27.607883485634098 6.6257290835788059 #
point $-1 -43.675649281289104 -17.13739804407615 6.6257290835788059 #
vertex $-1 $229 $261 #
straight-curve $-1 43.675649281289104 -27.607883485634098 0 0 0 -1 I I #
coedge $-1 $194 $193 $186 $239 forward $117 $-1 #
edge $-1 $246 -27.607883485634098 $241 -23.828969171548497 $186 $262 forward 7 unknown #
edge $-1 $246 -9.6257290835788059 $191 -4.4244995903740971 $190 $263 forward 7 unknown #
vertex $-1 $188 $264 #
straight-curve $-1 -43.675649281289104 7.6632199242431032 31.875974729908641 0 -0.5877852410284794 0.80901700255871778 I I #
edge $-1 $241 -27.213007204632426 $195 -5.7122769486809482 $194 $265 forward 7 unknown #
point $-1 -43.675649281289104 27.607883485634098 4.4244995903740971 #
point $-1 -22.174919025337633 23.828969171548497 9.6257290835788041 #
vertex $-1 $198 $266 #
straight-curve $-1 0 27.607883485634098 9.6257290835788059 -1 0 0 I I #
vertex $-1 $201 $267 #
point $-1 -31.92528415331337 23.937240849341109 5.7310073739259222 #
straight-curve $-1 -43.675649281289104 27.607883485634098 0 0 0 -1 I I #
point $-1 -43.675649281289104 -27.607883485634098 -9.6257290835788059 #
straight-curve $-1 -43.675649281289104 0 -9.6257290835788059 0 1 0 I I #
point $-1 -43.675649281289104 27.607883485634098 -9.6257290835788059 #
coedge $-1 $227 $223 $232 $259 forward $164 $-1 #
vertex $-1 $224 $268 #
straight-curve $-1 -43.675649281289104 0 9.6257290835788059 0 -1 0 I I #
point $-1 -43.675649281289104 -17.13739804407615 9.6257290835788059 #
straight-curve $-1 43.675649281289104 0 9.6257290835788059 0 1 0 I I #
edge $-1 $255 -43.675649281289104 $236 43.675649281289104 $232 $269 forward 7 unknown #
straight-curve $-1 -43.675649281289104 -27.607883485634098 0 0 0 -1 I I #
point $-1 43.675649281289104 -27.607883485634098 9.6257290835788059 #
straight-curve $-1 -43.675649281289104 0 9.6257290835788059 0 -1 0 I I #
straight-curve $-1 -43.675649281289104 27.607883485634098 0 0 0 -1 I I #
point $-1 -43.675649281289111 23.828969171548497 9.6257290835788041 #
straight-curve $-1 -16.462642076656685 23.828969171548493 9.6257290835788041 1 0 0 I I #
point $-1 -43.675649281289104 27.607883485634098 9.6257290835788059 #
point $-1 -32.92528415331337 23.12822384678239 5.143222132897443 #
point $-1 -43.675649281289104 -27.607883485634098 9.6257290835788059 #
straight-curve $-1 0 -27.607883485634098 9.6257290835788059 1 0 0 I I #
End-of-ACIS-data 