500 0 5 0           
7 Unknown 11 ACIS 5.0 NT 24 Thu Mar 25 21:04:40 1999 
-1 9.9999999999999995e-007 1e-010 
body $-1 $5 $-1 $6 #
body $-1 $7 $-1 $8 #
body $-1 $9 $-1 $10 #
body $-1 $11 $-1 $12 #
body $-1 $13 $-1 $14 #
lump $-1 $-1 $15 $0 #
transform $-1 1 0 0 0 1 0 0 0 1 51.076998199407939 30.391024365817952 14.604238095161884 1 rotate no_reflect no_shear #
lump $-1 $-1 $16 $1 #
transform $-1 1 0 0 0 1 0 0 0 1 51.076998199407939 30.391024365817952 14.604238095161884 1 rotate no_reflect no_shear #
lump $-1 $-1 $17 $2 #
transform $-1 1 0 0 0 1 0 0 0 1 51.076998199407939 30.391024365817952 14.604238095161884 1 rotate no_reflect no_shear #
lump $-1 $-1 $18 $3 #
transform $-1 1 0 0 0 1 0 0 0 1 51.076998199407939 30.391024365817952 14.604238095161884 1 rotate no_reflect no_shear #
lump $-1 $-1 $19 $4 #
transform $-1 1 0 0 0 1 0 0 0 1 51.076998199407939 30.391024365817952 14.604238095161884 1 rotate no_reflect no_shear #
shell $-1 $-1 $-1 $20 $-1 $5 #
shell $-1 $-1 $-1 $21 $-1 $7 #
shell $-1 $-1 $-1 $22 $-1 $9 #
shell $-1 $-1 $-1 $23 $-1 $11 #
shell $-1 $-1 $-1 $24 $-1 $13 #
face $-1 $25 $26 $15 $-1 $27 forward single #
face $-1 $28 $29 $16 $-1 $30 forward single #
face $-1 $31 $32 $17 $-1 $33 reversed single #
face $-1 $34 $35 $18 $-1 $36 forward single #
face $-1 $37 $38 $19 $-1 $39 forward single #
face $-1 $40 $41 $15 $-1 $42 reversed single #
loop $-1 $-1 $43 $20 #
plane-surface $-1 0 0 14.604238095161884 0 0 1 1 0 0 forward_v I I I I #
face $-1 $44 $45 $16 $-1 $46 reversed single #
loop $-1 $-1 $47 $21 #
plane-surface $-1 0 -30.391024365817952 0 0 1 0 0 0 1 forward_v I I I I #
face $-1 $48 $49 $17 $-1 $50 reversed single #
loop $-1 $-1 $51 $22 #
plane-surface $-1 -17.756031359103826 63.64847159402477 119.84500179902628 1 0 0 0 -0.73135370988377701 -0.68199835119979291 forward_v I I I I #
face $-1 $52 $53 $18 $-1 $54 forward single #
loop $-1 $55 $56 $23 #
cone-surface $-1 -13.292803723673174 25.396164513944662 9.3673276992085501 0 -0.73135370988377701 -0.68199835119979291 1.5 0 0 1 I I 0 1 1.5 forward I I I I #
face $-1 $57 $58 $19 $-1 $59 forward single #
loop $-1 $60 $61 $24 #
cone-surface $-1 -6.5979622705271908 25.396164513944662 9.3673276992085501 0 -0.73135370988377701 -0.68199835119979291 1.5 0 0 1 I I 0 1 1.5 forward I I I I #
face $-1 $62 $63 $15 $-1 $64 reversed single #
loop $-1 $-1 $65 $25 #
plane-surface $-1 0 0 -14.604238095161884 0 0 1 1 0 0 forward_v I I I I #
coedge $-1 $66 $67 $68 $69 forward $26 $-1 #
face $-1 $70 $71 $16 $-1 $72 reversed single #
loop $-1 $-1 $73 $28 #
plane-surface $-1 0 0 -14.604238095161884 0 0 1 1 0 0 forward_v I I I I #
coedge $-1 $74 $75 $76 $77 forward $29 $-1 #
face $-1 $78 $79 $17 $-1 $80 reversed single #
loop $-1 $-1 $81 $31 #
plane-surface $-1 -9.9453829971001824 -11.062232651703226 50.176144686564271 0 0.73135370988377701 0.68199835119979291 1 0 0 forward_v I I I I #
coedge $-1 $82 $83 $84 $85 reversed $32 $-1 #
face $-1 $-1 $86 $18 $-1 $87 forward single #
loop $-1 $88 $89 $34 #
cone-surface $-1 -13.292803723673174 23.993748521797077 8.0595536612633989 0 -0.73135370988377701 -0.68199835119979291 0.75 0 0 1 I I -0.70710678118654757 0.70710678118654757 0.75 forward I I I I #
loop $-1 $-1 $90 $23 #
coedge $-1 $56 $56 $91 $92 reversed $35 $-1 #
face $-1 $-1 $93 $19 $-1 $94 forward single #
loop $-1 $95 $96 $37 #
cone-surface $-1 -6.5979622705271908 23.993748521797077 8.0595536612633989 0 -0.73135370988377701 -0.68199835119979291 0.75 0 0 1 I I -0.70710678118654757 0.70710678118654757 0.75 forward I I I I #
loop $-1 $-1 $97 $24 #
coedge $-1 $61 $61 $98 $99 reversed $38 $-1 #
face $-1 $100 $101 $15 $-1 $102 reversed single #
loop $-1 $-1 $103 $40 #
plane-surface $-1 0 -30.391024365817952 0 0 1 0 0 0 1 forward_v I I I I #
coedge $-1 $104 $105 $106 $107 forward $41 $-1 #
coedge $-1 $108 $43 $109 $110 forward $26 $-1 #
coedge $-1 $43 $108 $111 $112 forward $26 $-1 #
coedge $-1 $113 $114 $43 $69 reversed $115 $-1 #
edge $-1 $116 -30.391024365817952 $117 30.391024365817952 $68 $118 forward 7 unknown #
face $-1 $119 $120 $16 $-1 $121 forward single #
loop $-1 $-1 $122 $44 #
plane-surface $-1 51.076998199407939 0 0 -1 0 0 0 0 1 forward_v I I I I #
coedge $-1 $123 $124 $125 $126 forward $45 $-1 #
coedge $-1 $125 $47 $122 $127 reversed $29 $-1 #
coedge $-1 $47 $125 $128 $129 reversed $29 $-1 #
coedge $-1 $130 $131 $47 $77 reversed $120 $-1 #
edge $-1 $132 -51.076998199407939 $133 51.076998199407939 $76 $134 forward 7 unknown #
face $-1 $135 $136 $17 $-1 $137 forward single #
loop $-1 $-1 $138 $48 #
plane-surface $-1 -2.1347346350965388 63.64847159402477 119.84500179902628 -1 0 0 0 0.73135370988377701 0.68199835119979291 forward_v I I I I #
coedge $-1 $139 $140 $141 $142 reversed $49 $-1 #
coedge $-1 $83 $51 $143 $144 reversed $32 $-1 #
coedge $-1 $51 $82 $139 $145 reversed $32 $-1 #
coedge $-1 $141 $146 $51 $85 forward $136 $-1 #
edge $-1 $147 1.4332114311944331 $148 9.7151297154715479 $84 $149 forward 7 unknown #
loop $-1 $-1 $91 $52 #
plane-surface $-1 -9.9453829971001824 -11.062232651703226 50.176144686564271 0 0.73135370988377701 0.68199835119979291 1 0 0 forward_v I I I I #
loop $-1 $-1 $150 $34 #
coedge $-1 $89 $89 $90 $151 reversed $53 $-1 #
coedge $-1 $90 $90 $89 $151 forward $55 $-1 #
coedge $-1 $91 $91 $56 $92 forward $86 $-1 #
edge $-1 $152 -5.8448485972898585e-016 $152 6.2831853071795996 $91 $153 forward 7 unknown #
loop $-1 $-1 $98 $57 #
plane-surface $-1 -9.9453829971001824 -11.062232651703226 50.176144686564271 0 0.73135370988377701 0.68199835119979291 1 0 0 forward_v I I I I #
loop $-1 $-1 $154 $37 #
coedge $-1 $96 $96 $97 $155 reversed $58 $-1 #
coedge $-1 $97 $97 $96 $155 forward $60 $-1 #
coedge $-1 $98 $98 $61 $99 forward $93 $-1 #
edge $-1 $156 -5.8448485972898585e-016 $156 6.2831853071795996 $98 $157 forward 7 unknown #
face $-1 $158 $159 $15 $-1 $160 reversed single #
loop $-1 $-1 $161 $62 #
plane-surface $-1 -51.076998199407939 0 0 1 0 0 0 0 -1 forward_v I I I I #
coedge $-1 $111 $162 $113 $163 reversed $63 $-1 #
coedge $-1 $164 $65 $162 $165 forward $41 $-1 #
coedge $-1 $65 $164 $166 $167 forward $41 $-1 #
coedge $-1 $114 $113 $65 $107 reversed $115 $-1 #
edge $-1 $168 -30.391024365817952 $169 30.391024365817952 $106 $170 forward 7 unknown #
coedge $-1 $67 $66 $171 $172 forward $26 $-1 #
coedge $-1 $173 $174 $66 $110 reversed $159 $-1 #
edge $-1 $117 -51.076998199407939 $175 51.076998199407939 $109 $176 forward 7 unknown #
coedge $-1 $177 $103 $67 $112 reversed $63 $-1 #
edge $-1 $178 -51.076998199407939 $116 51.076998199407939 $111 $179 forward 7 unknown #
coedge $-1 $106 $68 $103 $163 forward $115 $-1 #
coedge $-1 $68 $106 $173 $180 reversed $115 $-1 #
loop $-1 $-1 $113 $158 #
vertex $-1 $69 $181 #
vertex $-1 $69 $182 #
straight-curve $-1 51.076998199407939 0 14.604238095161884 0 1 0 I I #
face $-1 $183 $184 $16 $-1 $185 reversed single #
loop $-1 $-1 $131 $70 #
plane-surface $-1 0 -38.507534597585476 -10.18370053373012 0 0 1 1 0 0 forward_v I I I I #
coedge $-1 $186 $187 $74 $127 forward $71 $-1 #
coedge $-1 $188 $73 $187 $189 forward $45 $-1 #
coedge $-1 $73 $188 $190 $191 forward $45 $-1 #
coedge $-1 $75 $74 $73 $126 reversed $29 $-1 #
edge $-1 $192 -51.076998199407939 $193 51.076998199407939 $73 $194 forward 7 unknown #
edge $-1 $193 -14.604238095161884 $133 -10.18370053373012 $122 $195 forward 7 unknown #
coedge $-1 $190 $196 $75 $129 forward $197 $-1 #
edge $-1 $132 10.18370053373012 $192 14.604238095161884 $128 $198 forward 7 unknown #
coedge $-1 $199 $76 $196 $200 forward $120 $-1 #
coedge $-1 $76 $199 $186 $201 forward $120 $-1 #
vertex $-1 $129 $202 #
vertex $-1 $201 $203 #
straight-curve $-1 0 -30.391024365817952 -10.18370053373012 1 0 0 I I #
face $-1 $-1 $204 $17 $-1 $205 reversed single #
loop $-1 $-1 $84 $78 #
plane-surface $-1 0 0 14.604238095161884 0 0 1 1 0 0 forward_v I I I I #
coedge $-1 $206 $207 $208 $209 reversed $79 $-1 #
coedge $-1 $210 $81 $83 $145 forward $49 $-1 #
coedge $-1 $81 $210 $206 $211 forward $49 $-1 #
coedge $-1 $208 $84 $81 $142 forward $136 $-1 #
edge $-1 $148 -12.783339860553735 $212 2.8379568634535524 $141 $213 forward 7 unknown #
coedge $-1 $214 $215 $82 $144 forward $204 $-1 #
edge $-1 $216 -54.199533047167343 $147 -45.318262804351257 $143 $217 forward 7 unknown #
edge $-1 $148 48.638444176423597 $216 60.782048731635939 $83 $218 forward 7 unknown #
coedge $-1 $84 $208 $214 $219 forward $136 $-1 #
vertex $-1 $144 $220 #
vertex $-1 $85 $221 #
straight-curve $-1 -17.756031359103826 31.824235797012385 14.604238095161882 0 -1 0 I I #
coedge $-1 $150 $150 $-1 $222 reversed $88 $-1 #
edge $-1 $223 0 $223 6.2831853071796004 $89 $224 forward 7 unknown #
vertex $-1 $92 $225 #
ellipse-curve $-1 -13.292803723673174 26.250065223679393 10.163602973753839 0 0.73135370988377701 0.68199835119979291 1.5 0 0 1 I I #
coedge $-1 $154 $154 $-1 $226 reversed $95 $-1 #
edge $-1 $227 0 $227 6.2831853071796004 $96 $228 forward 7 unknown #
vertex $-1 $99 $229 #
ellipse-curve $-1 -6.5979622705271908 26.250065223679393 10.163602973753839 0 0.73135370988377701 0.68199835119979291 1.5 0 0 1 I I #
face $-1 $-1 $115 $15 $-1 $230 reversed single #
loop $-1 $-1 $173 $100 #
plane-surface $-1 0 30.391024365817952 0 0 -1 0 0 0 -1 forward_v I I I I #
coedge $-1 $231 $171 $174 $232 forward $101 $-1 #
coedge $-1 $103 $177 $104 $165 reversed $63 $-1 #
edge $-1 $116 -14.604238095161884 $169 14.604238095161884 $113 $233 forward 7 unknown #
coedge $-1 $105 $104 $231 $234 forward $41 $-1 #
edge $-1 $169 -51.076998199407939 $235 51.076998199407939 $162 $236 forward 7 unknown #
coedge $-1 $174 $173 $105 $167 reversed $159 $-1 #
edge $-1 $237 -51.076998199407939 $168 51.076998199407939 $166 $238 forward 7 unknown #
vertex $-1 $107 $239 #
vertex $-1 $163 $240 #
straight-curve $-1 51.076998199407939 0 -14.604238095161884 0 -1 0 I I #
coedge $-1 $161 $241 $108 $172 reversed $101 $-1 #
edge $-1 $175 -30.391024365817952 $178 30.391024365817952 $171 $242 forward 7 unknown #
coedge $-1 $166 $109 $114 $180 forward $159 $-1 #
coedge $-1 $109 $166 $161 $232 reversed $159 $-1 #
vertex $-1 $110 $243 #
straight-curve $-1 0 30.391024365817952 14.604238095161884 -1 0 0 I I #
coedge $-1 $162 $111 $241 $244 forward $63 $-1 #
vertex $-1 $172 $245 #
straight-curve $-1 0 -30.391024365817952 14.604238095161884 1 0 0 I I #
edge $-1 $117 -14.604238095161884 $168 14.604238095161884 $114 $246 forward 7 unknown #
point $-1 51.076998199407939 -30.391024365817952 14.604238095161884 #
point $-1 51.076998199407939 30.391024365817952 14.604238095161884 #
face $-1 $-1 $197 $16 $-1 $247 reversed single #
loop $-1 $-1 $248 $119 #
plane-surface $-1 0 -46.624044829352997 -12.393969314446002 0 1 0 0 0 1 forward_v I I I I #
coedge $-1 $249 $122 $131 $201 reversed $71 $-1 #
coedge $-1 $122 $249 $123 $189 reversed $71 $-1 #
coedge $-1 $124 $123 $250 $251 forward $45 $-1 #
edge $-1 $193 30.391024365817952 $252 46.624044829352997 $187 $253 forward 7 unknown #
coedge $-1 $254 $128 $124 $191 reversed $197 $-1 #
edge $-1 $255 -46.624044829352997 $192 -30.391024365817952 $190 $256 forward 7 unknown #
vertex $-1 $129 $257 #
vertex $-1 $189 $258 #
straight-curve $-1 0 -30.391024365817952 -14.604238095161884 1 0 0 I I #
straight-curve $-1 51.076998199407939 -30.391024365817952 0 0 0 1 I I #
coedge $-1 $128 $254 $130 $200 reversed $197 $-1 #
loop $-1 $-1 $128 $183 #
straight-curve $-1 -51.076998199407939 -30.391024365817952 0 0 0 -1 I I #
coedge $-1 $131 $130 $259 $260 forward $120 $-1 #
edge $-1 $132 -8.1165102317675206 $261 8.1165102317675206 $196 $262 forward 7 unknown #
edge $-1 $263 -8.1165102317675206 $133 8.1165102317675206 $186 $264 forward 7 unknown #
point $-1 -51.076998199407939 -30.391024365817955 -10.18370053373012 #
point $-1 51.076998199407939 -30.391024365817955 -10.18370053373012 #
loop $-1 $-1 $143 $135 #
plane-surface $-1 0 30.391024365817952 0 0 -1 0 0 0 -1 forward_v I I I I #
coedge $-1 $207 $138 $140 $211 reversed $79 $-1 #
coedge $-1 $138 $206 $265 $266 reversed $79 $-1 #
coedge $-1 $146 $141 $138 $209 forward $136 $-1 #
edge $-1 $212 -9.7151297154715479 $267 -1.4332114311944331 $208 $268 forward 7 unknown #
coedge $-1 $140 $139 $215 $269 reversed $49 $-1 #
edge $-1 $270 -60.782048731635939 $212 -48.638444176423597 $206 $271 forward 7 unknown #
vertex $-1 $142 $272 #
straight-curve $-1 -4.9726914985500912 22.109106081540844 14.604238095161879 1 0 0 I I #
coedge $-1 $265 $143 $146 $219 reversed $204 $-1 #
coedge $-1 $143 $265 $210 $269 forward $204 $-1 #
vertex $-1 $144 $273 #
straight-curve $-1 -17.756031359103826 30.391024365817952 59.922500899513139 0 0 1 I I #
straight-curve $-1 -17.756031359103826 -11.062232651703226 50.176144686564271 0 0.68199835119979291 -0.73135370988377701 I I #
edge $-1 $267 2.1347346350965388 $147 17.756031359103826 $214 $274 forward 7 unknown #
point $-1 -17.756031359103826 30.391024365817952 14.604238095161884 #
point $-1 -17.756031359103826 22.109106081540837 14.604238095161882 #
edge $-1 $275 1 $275 0 $150 $-1 forward 7 unknown #
vertex $-1 $151 $276 #
ellipse-curve $-1 -13.292803723673174 24.542263804209909 8.5710524246632431 0 0.73135370988377701 0.68199835119979291 1.5 0 0 1 I I #
point $-1 -11.792803723673174 26.25006522367941 10.163602973753857 #
edge $-1 $277 1 $277 0 $154 $-1 forward 7 unknown #
vertex $-1 $155 $278 #
ellipse-curve $-1 -6.5979622705271908 24.542263804209909 8.5710524246632431 0 0.73135370988377701 0.68199835119979291 1.5 0 0 1 I I #
point $-1 -5.0979622705271908 26.25006522367941 10.163602973753857 #
plane-surface $-1 51.076998199407939 0 0 -1 0 0 0 0 1 forward_v I I I I #
coedge $-1 $241 $161 $164 $234 reversed $101 $-1 #
edge $-1 $175 -14.604238095161884 $237 14.604238095161884 $174 $279 forward 7 unknown #
straight-curve $-1 51.076998199407939 -30.391024365817952 0 0 0 -1 I I #
edge $-1 $235 -30.391024365817952 $237 30.391024365817952 $231 $280 forward 7 unknown #
vertex $-1 $234 $281 #
straight-curve $-1 0 -30.391024365817952 -14.604238095161884 -1 0 0 I I #
vertex $-1 $167 $282 #
straight-curve $-1 0 30.391024365817952 -14.604238095161884 1 0 0 I I #
point $-1 51.076998199407939 30.391024365817952 -14.604238095161884 #
point $-1 51.076998199407939 -30.391024365817952 -14.604238095161884 #
coedge $-1 $171 $231 $177 $244 reversed $101 $-1 #
straight-curve $-1 -51.076998199407939 0 14.604238095161884 0 -1 0 I I #
point $-1 -51.076998199407939 30.391024365817952 14.604238095161884 #
edge $-1 $178 -14.604238095161884 $235 14.604238095161884 $241 $283 forward 7 unknown #
point $-1 -51.076998199407939 -30.391024365817952 14.604238095161884 #
straight-curve $-1 51.076998199407939 30.391024365817952 0 0 0 -1 I I #
plane-surface $-1 -51.076998199407939 0 0 1 0 0 0 0 -1 forward_v I I I I #
coedge $-1 $250 $259 $254 $284 forward $184 $-1 #
coedge $-1 $187 $186 $285 $286 forward $71 $-1 #
coedge $-1 $285 $248 $188 $251 reversed $184 $-1 #
edge $-1 $252 -51.076998199407939 $255 51.076998199407939 $250 $287 forward 7 unknown #
vertex $-1 $286 $288 #
straight-curve $-1 51.076998199407939 0 -14.604238095161884 0 -1 0 I I #
coedge $-1 $196 $190 $248 $284 reversed $197 $-1 #
vertex $-1 $191 $289 #
straight-curve $-1 -51.076998199407939 0 -14.604238095161884 0 1 0 I I #
point $-1 -51.076998199407939 -30.391024365817952 -14.604238095161884 #
point $-1 51.076998199407939 -30.391024365817952 -14.604238095161884 #
coedge $-1 $248 $285 $199 $260 reversed $184 $-1 #
edge $-1 $261 -51.076998199407939 $263 51.076998199407939 $259 $290 forward 7 unknown #
vertex $-1 $200 $291 #
straight-curve $-1 -51.076998199407939 -38.507534597585476 -10.18370053373012 0 -1 0 I I #
vertex $-1 $201 $292 #
straight-curve $-1 51.076998199407939 -38.507534597585476 -10.18370053373012 0 1 0 I I #
coedge $-1 $215 $214 $207 $266 forward $204 $-1 #
edge $-1 $267 45.318262804351257 $270 54.199533047167343 $265 $293 forward 7 unknown #
vertex $-1 $219 $294 #
straight-curve $-1 -2.1347346350965388 31.824235797012385 14.604238095161882 0 1 0 I I #
edge $-1 $270 -2.8379568634535524 $216 12.783339860553735 $215 $295 forward 7 unknown #
vertex $-1 $269 $296 #
straight-curve $-1 -2.1347346350965388 -11.062232651703226 50.176144686564271 0 -0.68199835119979291 0.73135370988377701 I I #
point $-1 -2.1347346350965388 22.109106081540837 14.604238095161882 #
point $-1 -17.756031359103826 30.391024365817955 5.7229678523457963 #
straight-curve $-1 0 30.391024365817952 14.604238095161884 -1 0 0 I I #
vertex $-1 $222 $297 #
point $-1 -11.792803723673174 24.542263804209909 8.5710524246632431 #
vertex $-1 $226 $298 #
point $-1 -5.0979622705271908 24.542263804209909 8.5710524246632431 #
straight-curve $-1 -51.076998199407939 30.391024365817952 0 0 0 -1 I I #
straight-curve $-1 -51.076998199407939 0 -14.604238095161884 0 1 0 I I #
point $-1 -51.076998199407939 -30.391024365817952 -14.604238095161884 #
point $-1 -51.076998199407939 30.391024365817952 -14.604238095161884 #
straight-curve $-1 -51.076998199407939 -30.391024365817952 0 0 0 -1 I I #
edge $-1 $261 -2.2102687807158823 $255 2.2102687807158823 $254 $299 forward 7 unknown #
coedge $-1 $259 $250 $249 $286 reversed $184 $-1 #
edge $-1 $263 -2.2102687807158823 $252 2.2102687807158823 $249 $300 forward 7 unknown #
straight-curve $-1 0 -46.624044829352997 -14.604238095161884 -1 0 0 I I #
point $-1 51.076998199407939 -46.624044829352997 -14.604238095161884 #
point $-1 -51.076998199407939 -46.624044829352997 -14.604238095161884 #
straight-curve $-1 0 -46.624044829352997 -10.18370053373012 1 0 0 I I #
point $-1 -51.076998199407939 -46.624044829352997 -10.18370053373012 #
point $-1 51.076998199407939 -46.624044829352997 -10.18370053373012 #
straight-curve $-1 -2.1347346350965388 30.391024365817952 59.922500899513139 0 0 -1 I I #
point $-1 -2.1347346350965388 30.391024365817952 14.604238095161884 #
straight-curve $-1 -4.9726914985500912 30.391024365817948 5.7229678523457963 -1 0 0 I I #
point $-1 -2.1347346350965388 30.391024365817955 5.7229678523457963 #
point $-1 -13.292803723673174 23.445233239384244 7.5480548978635547 #
point $-1 -6.5979622705271908 23.445233239384244 7.5480548978635547 #
straight-curve $-1 -51.076998199407939 -46.624044829352997 -12.393969314446002 0 0 -1 I I #
straight-curve $-1 51.076998199407939 -46.624044829352997 -12.393969314446002 0 0 -1 I I #
End-of-ACIS-data 