500 0 7 0           
7 Unknown 11 ACIS 5.0 NT 24 Thu Mar 25 16:04:59 1999 
-1 9.9999999999999995e-007 1e-010 
body $-1 $7 $-1 $8 #
body $-1 $9 $-1 $10 #
body $-1 $11 $-1 $12 #
body $-1 $13 $-1 $14 #
body $-1 $15 $-1 $16 #
body $-1 $17 $-1 $18 #
body $-1 $19 $-1 $20 #
lump $-1 $-1 $21 $0 #
transform $-1 1 0 0 0 1 0 0 0 1 42.009338663899655 18.642212947295512 5.1404762914731021 1 rotate no_reflect no_shear #
lump $-1 $-1 $22 $1 #
transform $-1 1 0 0 0 1 0 0 0 1 42.009338663899655 18.642212947295512 5.1404762914731021 1 rotate no_reflect no_shear #
lump $-1 $-1 $23 $2 #
transform $-1 1 0 0 0 1 0 0 0 1 42.009338663899655 18.642212947295512 5.1404762914731021 1 rotate no_reflect no_shear #
lump $-1 $-1 $24 $3 #
transform $-1 1 0 0 0 1 0 0 0 1 42.009338663899655 18.642212947295512 5.1404762914731021 1 rotate no_reflect no_shear #
lump $-1 $-1 $25 $4 #
transform $-1 1 0 0 0 1 0 0 0 1 42.009338663899655 18.642212947295512 5.1404762914731021 1 rotate no_reflect no_shear #
lump $-1 $-1 $26 $5 #
transform $-1 1 0 0 0 1 0 0 0 1 42.009338663899655 18.642212947295512 5.1404762914731021 1 rotate no_reflect no_shear #
lump $-1 $-1 $27 $6 #
transform $-1 1 0 0 0 1 0 0 0 1 42.009338663899655 18.642212947295512 5.1404762914731021 1 rotate no_reflect no_shear #
shell $-1 $-1 $-1 $28 $-1 $7 #
shell $-1 $-1 $-1 $29 $-1 $9 #
shell $-1 $-1 $-1 $30 $-1 $11 #
shell $-1 $-1 $-1 $31 $-1 $13 #
shell $-1 $-1 $-1 $32 $-1 $15 #
shell $-1 $-1 $-1 $33 $-1 $17 #
shell $-1 $-1 $-1 $34 $-1 $19 #
face $-1 $35 $36 $21 $-1 $37 forward single #
face $-1 $38 $39 $22 $-1 $40 forward single #
face $-1 $41 $42 $23 $-1 $43 reversed single #
face $-1 $44 $45 $24 $-1 $46 forward single #
face $-1 $47 $48 $25 $-1 $49 forward single #
face $-1 $50 $51 $26 $-1 $52 reversed single #
face $-1 $53 $54 $27 $-1 $55 forward single #
face $-1 $56 $57 $21 $-1 $58 reversed single #
loop $-1 $-1 $59 $28 #
plane-surface $-1 0 0 5.1404762914731021 0 0 1 1 0 0 forward_v I I I I #
face $-1 $60 $61 $22 $-1 $62 reversed single #
loop $-1 $-1 $63 $29 #
plane-surface $-1 0 -15.663453854201936 -1.5736343456405337 0 0 1 1 0 0 forward_v I I I I #
face $-1 $64 $65 $23 $-1 $66 reversed single #
loop $-1 $-1 $67 $30 #
plane-surface $-1 -93.7364021511261 -5.0050422962223085 67.626722478678957 0 1 0 -0.61566148304635926 0 0.78801074757464917 forward_v I I I I #
face $-1 $68 $69 $24 $-1 $70 forward single #
loop $-1 $71 $72 $31 #
cone-surface $-1 -39.231468526598 -2.8770068444215404 2.772549336572951 0.61566148304635926 0 -0.78801074757464917 0.78801074757464917 0 0.61566148304635926 1 I I 0 1 1 forward I I I I #
face $-1 $73 $74 $25 $-1 $75 forward single #
loop $-1 $76 $77 $32 #
cone-surface $-1 -39.231468526598 0.31504633327961429 2.772549336572951 0.61566148304635926 0 -0.78801074757464917 0.78801074757464917 0 0.61566148304635926 1 I I 0 1 1 forward I I I I #
face $-1 $78 $79 $26 $-1 $80 reversed single #
loop $-1 $-1 $81 $33 #
plane-surface $-1 46.15611061956713 14.52601478679469 118.90141718967809 0 -1 0 -0.73135370988377701 0 -0.68199835119979291 forward_v I I I I #
face $-1 $82 $83 $27 $-1 $84 forward single #
loop $-1 $85 $86 $34 #
cone-surface $-1 39.219020228666352 10.563381459331765 2.2132689315999237 -0.73135370988377701 0 -0.68199835119979291 0.68199835119979291 0 -0.73135370988377701 1 I I 0 1 1 forward I I I I #
face $-1 $87 $88 $21 $-1 $89 reversed single #
loop $-1 $-1 $90 $35 #
plane-surface $-1 0 0 -5.1404762914731021 0 0 1 1 0 0 forward_v I I I I #
coedge $-1 $91 $92 $93 $94 forward $36 $-1 #
face $-1 $95 $96 $22 $-1 $97 reversed single #
loop $-1 $-1 $98 $38 #
plane-surface $-1 0 -15.663453854201936 -4.5736343456405333 0 0 1 1 0 0 forward_v I I I I #
coedge $-1 $99 $100 $101 $102 reversed $39 $-1 #
face $-1 $103 $104 $23 $-1 $105 reversed single #
loop $-1 $-1 $106 $41 #
plane-surface $-1 -42.009338663899655 -1.2809802555709595 1.4191017473665966 -0.61566148304635926 0 0.78801074757464917 0.78801074757464917 0 0.61566148304635926 forward_v I I I I #
coedge $-1 $107 $108 $109 $110 reversed $42 $-1 #
face $-1 $-1 $111 $24 $-1 $112 forward single #
loop $-1 $113 $114 $44 #
cone-surface $-1 -38.527338703669329 -2.8770068444215404 1.8713042799387223 0.61566148304635926 0 -0.78801074757464917 0.39400537378732459 0 0.30783074152317963 1 I I -0.70710678118654746 0.70710678118654746 0.5 forward I I I I #
loop $-1 $-1 $115 $31 #
coedge $-1 $72 $72 $116 $117 reversed $45 $-1 #
face $-1 $-1 $118 $25 $-1 $119 forward single #
loop $-1 $120 $121 $47 #
cone-surface $-1 -38.527338703669329 0.31504633327961429 1.8713042799387223 0.61566148304635926 0 -0.78801074757464917 0.39400537378732459 0 0.30783074152317963 1 I I -0.70710678118654746 0.70710678118654746 0.5 forward I I I I #
loop $-1 $-1 $122 $32 #
coedge $-1 $77 $77 $123 $124 reversed $48 $-1 #
face $-1 $125 $126 $26 $-1 $127 reversed single #
loop $-1 $-1 $128 $50 #
plane-surface $-1 -15.29126074364688 10.563381459331765 61.600817782131536 0.73135370988377701 0 0.68199835119979291 0.68199835119979291 0 -0.73135370988377701 forward_v I I I I #
coedge $-1 $129 $130 $131 $132 reversed $51 $-1 #
face $-1 $-1 $133 $27 $-1 $134 forward single #
loop $-1 $135 $136 $53 #
cone-surface $-1 38.388265177586632 10.563381459331765 1.4385773324046385 -0.73135370988377701 0 -0.68199835119979291 0.34099917559989645 0 -0.36567685494188851 1 I I -0.70710678118654746 0.70710678118654746 0.5 forward I I I I #
loop $-1 $-1 $137 $34 #
coedge $-1 $86 $86 $138 $139 reversed $54 $-1 #
face $-1 $140 $141 $21 $-1 $142 reversed single #
loop $-1 $-1 $143 $56 #
plane-surface $-1 0 -18.642212947295512 0 0 1 0 0 0 1 forward_v I I I I #
coedge $-1 $144 $145 $146 $147 forward $57 $-1 #
coedge $-1 $148 $59 $149 $150 forward $36 $-1 #
coedge $-1 $59 $148 $151 $152 forward $36 $-1 #
coedge $-1 $153 $154 $59 $94 reversed $155 $-1 #
edge $-1 $156 -18.642212947295512 $157 18.642212947295512 $93 $158 forward 7 unknown #
face $-1 $159 $160 $22 $-1 $161 reversed single #
loop $-1 $-1 $162 $60 #
plane-surface $-1 0 -12.684694761108361 -3.0736343456405337 0 -1 0 0 0 -1 forward_v I I I I #
coedge $-1 $163 $164 $165 $166 reversed $61 $-1 #
coedge $-1 $167 $63 $168 $169 forward $39 $-1 #
coedge $-1 $63 $167 $170 $171 reversed $39 $-1 #
coedge $-1 $172 $173 $63 $102 forward $174 $-1 #
edge $-1 $175 4.8529678340073925 $176 10.810486020194544 $101 $177 forward 7 unknown #
face $-1 $178 $179 $23 $-1 $180 reversed single #
loop $-1 $-1 $181 $64 #
plane-surface $-1 -93.7364021511261 2.4430817850803894 67.626722478678957 0 -1 0 0.61566148304635926 0 -0.78801074757464917 forward_v I I I I #
coedge $-1 $182 $183 $184 $185 reversed $65 $-1 #
coedge $-1 $108 $67 $186 $187 reversed $42 $-1 #
coedge $-1 $67 $107 $182 $188 reversed $42 $-1 #
coedge $-1 $184 $189 $67 $110 forward $190 $-1 #
edge $-1 $191 4.8588624116633952 $192 9.622004523455729 $109 $193 forward 7 unknown #
loop $-1 $-1 $116 $68 #
plane-surface $-1 -42.009338663899655 -1.2809802555709595 1.4191017473665966 -0.61566148304635926 0 0.78801074757464917 0.78801074757464917 0 0.61566148304635926 forward_v I I I I #
loop $-1 $-1 $194 $44 #
coedge $-1 $114 $114 $115 $195 reversed $69 $-1 #
coedge $-1 $115 $115 $114 $195 forward $71 $-1 #
coedge $-1 $116 $116 $72 $117 forward $111 $-1 #
edge $-1 $196 0 $196 6.2831853071796004 $116 $197 forward 7 unknown #
loop $-1 $-1 $123 $73 #
plane-surface $-1 -42.009338663899655 -1.2809802555709595 1.4191017473665966 -0.61566148304635926 0 0.78801074757464917 0.78801074757464917 0 0.61566148304635926 forward_v I I I I #
loop $-1 $-1 $198 $47 #
coedge $-1 $121 $121 $122 $199 reversed $74 $-1 #
coedge $-1 $122 $122 $121 $199 forward $76 $-1 #
coedge $-1 $123 $123 $77 $124 forward $118 $-1 #
edge $-1 $200 0 $200 6.2831853071796004 $123 $201 forward 7 unknown #
face $-1 $202 $203 $26 $-1 $204 forward single #
loop $-1 $-1 $205 $78 #
plane-surface $-1 46.15611061956713 6.6007481318688406 118.90141718967809 0 1 0 0.73135370988377701 0 0.68199835119979291 forward_v I I I I #
coedge $-1 $206 $207 $208 $209 reversed $79 $-1 #
coedge $-1 $130 $81 $210 $211 reversed $51 $-1 #
coedge $-1 $81 $129 $206 $212 reversed $51 $-1 #
coedge $-1 $208 $213 $81 $132 forward $203 $-1 #
edge $-1 $214 -18.93128335411609 $215 -14.280802875925183 $131 $216 forward 7 unknown #
loop $-1 $-1 $138 $82 #
plane-surface $-1 -15.29126074364688 10.563381459331765 61.600817782131536 0.73135370988377701 0 0.68199835119979291 0.68199835119979291 0 -0.73135370988377701 forward_v I I I I #
loop $-1 $-1 $217 $53 #
coedge $-1 $136 $136 $137 $218 reversed $83 $-1 #
coedge $-1 $137 $137 $136 $218 forward $85 $-1 #
coedge $-1 $138 $138 $86 $139 forward $133 $-1 #
edge $-1 $219 0 $219 6.2831853071796004 $138 $220 forward 7 unknown #
face $-1 $221 $222 $21 $-1 $223 reversed single #
loop $-1 $-1 $224 $87 #
plane-surface $-1 -42.009338663899655 0 0 1 0 0 0 0 -1 forward_v I I I I #
coedge $-1 $225 $151 $226 $227 forward $88 $-1 #
coedge $-1 $228 $90 $225 $229 forward $57 $-1 #
coedge $-1 $90 $228 $230 $231 forward $57 $-1 #
coedge $-1 $154 $153 $90 $147 reversed $155 $-1 #
edge $-1 $232 -18.642212947295512 $233 18.642212947295512 $146 $234 forward 7 unknown #
coedge $-1 $92 $91 $235 $236 forward $36 $-1 #
coedge $-1 $237 $238 $91 $150 reversed $222 $-1 #
edge $-1 $157 -42.009338663899655 $239 42.009338663899655 $149 $240 forward 7 unknown #
coedge $-1 $143 $241 $92 $152 reversed $88 $-1 #
edge $-1 $242 -42.009338663899655 $156 42.009338663899655 $151 $243 forward 7 unknown #
coedge $-1 $146 $93 $241 $244 forward $155 $-1 #
coedge $-1 $93 $146 $237 $245 reversed $155 $-1 #
loop $-1 $-1 $153 $221 #
vertex $-1 $94 $246 #
vertex $-1 $94 $247 #
straight-curve $-1 42.009338663899655 0 5.1404762914731021 0 1 0 I I #
face $-1 $248 $249 $22 $-1 $250 reversed single #
loop $-1 $-1 $251 $95 #
plane-surface $-1 -42.009338663899655 0 0 1 0 0 0 0 -1 forward_v I I I I #
coedge $-1 $252 $168 $173 $253 reversed $96 $-1 #
coedge $-1 $254 $98 $255 $256 reversed $61 $-1 #
coedge $-1 $98 $254 $252 $257 forward $61 $-1 #
coedge $-1 $173 $172 $98 $166 forward $174 $-1 #
edge $-1 $258 -10.810486020194544 $259 -4.8529678340073925 $165 $260 forward 7 unknown #
coedge $-1 $100 $99 $251 $261 reversed $39 $-1 #
coedge $-1 $162 $262 $99 $169 reversed $96 $-1 #
edge $-1 $175 -42.009338663899655 $263 42.009338663899655 $168 $264 forward 7 unknown #
coedge $-1 $265 $266 $100 $171 forward $249 $-1 #
edge $-1 $176 -42.009338663899655 $267 42.009338663899655 $170 $268 forward 7 unknown #
coedge $-1 $165 $101 $266 $269 forward $174 $-1 #
coedge $-1 $101 $165 $162 $253 forward $174 $-1 #
loop $-1 $-1 $101 $248 #
vertex $-1 $102 $270 #
vertex $-1 $269 $271 #
straight-curve $-1 42.009338663899655 -7.8317269271009682 -1.5736343456405337 0 -1 0 I I #
face $-1 $-1 $190 $23 $-1 $272 forward single #
loop $-1 $-1 $273 $103 #
plane-surface $-1 -42.009338663899655 0 0 1 0 0 0 0 -1 forward_v I I I I #
coedge $-1 $274 $275 $276 $277 reversed $104 $-1 #
coedge $-1 $278 $106 $108 $188 forward $65 $-1 #
coedge $-1 $106 $278 $274 $279 forward $65 $-1 #
coedge $-1 $276 $109 $106 $185 forward $190 $-1 #
edge $-1 $192 -4.3645521684368287 $280 3.0835719128658692 $184 $281 forward 7 unknown #
coedge $-1 $282 $283 $107 $187 forward $179 $-1 #
edge $-1 $284 -32.394259491972882 $191 -28.672884947866375 $186 $285 forward 7 unknown #
edge $-1 $192 -6.0445141471133503 $284 0 $108 $286 forward 7 unknown #
coedge $-1 $109 $276 $282 $287 forward $190 $-1 #
loop $-1 $-1 $276 $178 #
vertex $-1 $187 $288 #
vertex $-1 $110 $289 #
straight-curve $-1 -46.86820107556305 -5.0050422962223085 5.140476291473103 1 0 0 I I #
coedge $-1 $194 $194 $-1 $290 reversed $113 $-1 #
edge $-1 $291 0 $291 6.2831853071796004 $114 $292 forward 7 unknown #
vertex $-1 $117 $293 #
ellipse-curve $-1 -39.627767608003488 -2.8770068444215404 3.279789019419848 -0.61566148304635926 0 0.78801074757464917 0.78801074757464917 0 0.61566148304635926 1 I I #
coedge $-1 $198 $198 $-1 $294 reversed $120 $-1 #
edge $-1 $295 0 $295 6.2831853071796004 $121 $296 forward 7 unknown #
vertex $-1 $124 $297 #
ellipse-curve $-1 -39.627767608003488 0.31504633327961429 3.279789019419848 -0.61566148304635926 0 0.78801074757464917 0.78801074757464917 0 0.61566148304635926 1 I I #
face $-1 $-1 $298 $26 $-1 $299 reversed single #
loop $-1 $-1 $131 $125 #
plane-surface $-1 0 0 5.1404762914731021 0 0 1 1 0 0 forward_v I I I I #
coedge $-1 $300 $301 $302 $303 reversed $126 $-1 #
coedge $-1 $304 $128 $130 $212 forward $79 $-1 #
coedge $-1 $128 $304 $300 $305 forward $79 $-1 #
coedge $-1 $302 $131 $128 $209 forward $203 $-1 #
edge $-1 $215 -9.2443240571288072 $306 -1.319057402202958 $208 $307 forward 7 unknown #
coedge $-1 $308 $309 $129 $211 forward $298 $-1 #
edge $-1 $310 -59.297262175921496 $214 -54.310232303365943 $210 $311 forward 7 unknown #
edge $-1 $215 77.199774510791542 $310 84.018677327799281 $130 $312 forward 7 unknown #
coedge $-1 $131 $302 $308 $313 forward $203 $-1 #
vertex $-1 $211 $314 #
vertex $-1 $132 $315 #
straight-curve $-1 23.078055309783565 14.52601478679469 5.1404762914730995 -1 0 0 I I #
coedge $-1 $217 $217 $-1 $316 reversed $135 $-1 #
edge $-1 $317 0 $317 6.2831853071796004 $136 $318 forward 7 unknown #
vertex $-1 $139 $319 #
ellipse-curve $-1 39.684098424804198 10.563381459331765 2.6469613551953284 0.73135370988377701 0 0.68199835119979291 0.68199835119979291 0 -0.73135370988377701 1 I I #
face $-1 $-1 $155 $21 $-1 $320 reversed single #
loop $-1 $-1 $237 $140 #
plane-surface $-1 0 18.642212947295512 0 0 -1 0 0 0 -1 forward_v I I I I #
coedge $-1 $321 $235 $238 $322 forward $141 $-1 #
coedge $-1 $241 $143 $144 $229 reversed $88 $-1 #
coedge $-1 $235 $321 $143 $227 reversed $141 $-1 #
edge $-1 $242 -5.1404762914731021 $323 5.1404762914731021 $226 $324 forward 7 unknown #
coedge $-1 $145 $144 $321 $325 forward $57 $-1 #
edge $-1 $233 -42.009338663899655 $323 42.009338663899655 $225 $326 forward 7 unknown #
coedge $-1 $238 $237 $145 $231 reversed $222 $-1 #
edge $-1 $327 -42.009338663899655 $232 42.009338663899655 $230 $328 forward 7 unknown #
vertex $-1 $147 $329 #
vertex $-1 $244 $330 #
straight-curve $-1 42.009338663899655 0 -5.1404762914731021 0 -1 0 I I #
coedge $-1 $224 $226 $148 $236 reversed $141 $-1 #
edge $-1 $239 -18.642212947295512 $242 18.642212947295512 $235 $331 forward 7 unknown #
coedge $-1 $230 $149 $154 $245 forward $222 $-1 #
coedge $-1 $149 $230 $224 $322 reversed $222 $-1 #
vertex $-1 $150 $332 #
straight-curve $-1 0 18.642212947295512 5.1404762914731021 -1 0 0 I I #
coedge $-1 $151 $225 $153 $244 reversed $88 $-1 #
vertex $-1 $236 $333 #
straight-curve $-1 0 -18.642212947295512 5.1404762914731021 1 0 0 I I #
edge $-1 $156 -5.1404762914731021 $233 5.1404762914731021 $153 $334 forward 7 unknown #
edge $-1 $157 -5.1404762914731021 $232 5.1404762914731021 $154 $335 forward 7 unknown #
point $-1 42.009338663899655 -18.642212947295512 5.1404762914731021 #
point $-1 42.009338663899655 18.642212947295512 5.1404762914731021 #
face $-1 $-1 $174 $22 $-1 $336 reversed single #
loop $-1 $-1 $170 $159 #
plane-surface $-1 0 -18.642212947295512 0 0 1 0 0 0 1 forward_v I I I I #
coedge $-1 $337 $338 $167 $261 forward $160 $-1 #
coedge $-1 $262 $162 $164 $257 reversed $96 $-1 #
edge $-1 $259 -3.0368171728202666 $175 -0.036817172820266864 $173 $339 forward 7 unknown #
coedge $-1 $164 $163 $340 $341 reversed $61 $-1 #
coedge $-1 $266 $265 $163 $256 forward $249 $-1 #
edge $-1 $342 -42.009338663899655 $258 42.009338663899655 $255 $343 forward 7 unknown #
edge $-1 $344 -42.009338663899655 $259 42.009338663899655 $252 $345 forward 7 unknown #
vertex $-1 $256 $346 #
vertex $-1 $166 $347 #
straight-curve $-1 42.009338663899655 -7.8317269271009682 -4.5736343456405333 0 1 0 I I #
edge $-1 $267 -10.810486020194544 $263 -4.8529678340073925 $251 $348 forward 7 unknown #
coedge $-1 $168 $252 $337 $349 reversed $96 $-1 #
vertex $-1 $261 $350 #
straight-curve $-1 0 -12.684694761108361 -1.5736343456405337 -1 0 0 I I #
coedge $-1 $255 $170 $338 $351 forward $249 $-1 #
coedge $-1 $170 $255 $172 $269 reversed $249 $-1 #
vertex $-1 $351 $352 #
straight-curve $-1 0 -18.642212947295512 -1.5736343456405337 -1 0 0 I I #
edge $-1 $176 1.5736343456405337 $258 4.5736343456405333 $172 $353 forward 7 unknown #
point $-1 42.009338663899655 -12.684694761108361 -1.5736343456405337 #
point $-1 42.009338663899655 -18.642212947295512 -1.5736343456405337 #
plane-surface $-1 0 0 5.1404762914731021 0 0 1 1 0 0 forward_v I I I I #
coedge $-1 $283 $282 $275 $354 forward $179 $-1 #
coedge $-1 $275 $181 $183 $279 reversed $104 $-1 #
coedge $-1 $181 $274 $273 $354 reversed $104 $-1 #
coedge $-1 $189 $184 $181 $277 forward $190 $-1 #
edge $-1 $280 -9.622004523455729 $355 -4.8588624116633952 $276 $356 forward 7 unknown #
coedge $-1 $183 $182 $283 $357 reversed $65 $-1 #
edge $-1 $358 0 $280 6.0445141471133503 $274 $359 forward 7 unknown #
vertex $-1 $185 $360 #
straight-curve $-1 -37.246196552107321 -0.64049012778547976 5.1404762914731004 0 1 0 I I #
coedge $-1 $273 $186 $189 $287 reversed $179 $-1 #
coedge $-1 $186 $273 $278 $357 forward $179 $-1 #
vertex $-1 $187 $361 #
straight-curve $-1 -42.009338663899655 -5.0050422962223085 33.813361239339478 0 0 1 I I #
straight-curve $-1 -42.009338663899655 -5.0050422962223085 1.4191017473665966 -0.78801074757464917 0 -0.61566148304635926 I I #
edge $-1 $355 -2.4430817850803894 $191 5.0050422962223085 $282 $362 forward 7 unknown #
point $-1 -42.009338663899655 -5.0050422962223085 5.1404762914731021 #
point $-1 -37.246196552107321 -5.0050422962223085 5.1404762914731021 #
edge $-1 $363 1 $363 0 $194 $-1 forward 7 unknown #
vertex $-1 $195 $364 #
ellipse-curve $-1 -38.835169445192506 -2.8770068444215404 2.2653096537260469 -0.61566148304635926 0 0.78801074757464917 0.78801074757464917 0 0.61566148304635926 1 I I #
point $-1 -38.839756860428849 -2.8770068444215404 3.8954505024662143 #
edge $-1 $365 1 $365 0 $198 $-1 forward 7 unknown #
vertex $-1 $199 $366 #
ellipse-curve $-1 -38.835169445192506 0.31504633327961429 2.2653096537260469 -0.61566148304635926 0 0.78801074757464917 0.78801074757464917 0 0.61566148304635926 1 I I #
point $-1 -38.839756860428849 0.31504633327961429 3.8954505024662143 #
loop $-1 $-1 $210 $202 #
plane-surface $-1 42.009338663899655 0 0 -1 0 0 0 0 1 forward_v I I I I #
coedge $-1 $301 $205 $207 $305 reversed $126 $-1 #
coedge $-1 $205 $300 $367 $368 reversed $126 $-1 #
coedge $-1 $213 $208 $205 $303 forward $203 $-1 #
edge $-1 $306 14.280802875925183 $369 18.93128335411609 $302 $370 forward 7 unknown #
coedge $-1 $207 $206 $309 $371 reversed $79 $-1 #
edge $-1 $372 -84.018677327799281 $306 -77.199774510791542 $300 $373 forward 7 unknown #
vertex $-1 $209 $374 #
straight-curve $-1 37.358858185708755 5.2816907296658826 5.1404762914730995 0 -1 0 I I #
coedge $-1 $367 $210 $213 $313 reversed $298 $-1 #
coedge $-1 $210 $367 $304 $371 forward $298 $-1 #
vertex $-1 $211 $375 #
straight-curve $-1 42.009338663899655 14.52601478679469 59.450708594839043 0 0 1 I I #
straight-curve $-1 -15.29126074364688 14.52601478679469 61.600817782131536 0.68199835119979291 0 -0.73135370988377701 I I #
edge $-1 $369 6.6007481318688406 $214 14.52601478679469 $308 $376 forward 7 unknown #
point $-1 42.009338663899655 14.52601478679469 5.1404762914731021 #
point $-1 37.358858185708748 14.52601478679469 5.1404762914730924 #
edge $-1 $377 1 $377 0 $217 $-1 forward 7 unknown #
vertex $-1 $218 $378 #
ellipse-curve $-1 38.753942032528521 10.563381459331765 1.7795765080045349 0.73135370988377701 0 0.68199835119979291 0.68199835119979291 0 -0.73135370988377701 1 I I #
point $-1 40.366096776003971 10.563381459331765 1.9156076453115347 #
plane-surface $-1 42.009338663899655 0 0 -1 0 0 0 0 1 forward_v I I I I #
coedge $-1 $226 $224 $228 $325 reversed $141 $-1 #
edge $-1 $239 -5.1404762914731021 $327 5.1404762914731021 $238 $379 forward 7 unknown #
vertex $-1 $325 $380 #
straight-curve $-1 -42.009338663899655 -18.642212947295512 0 0 0 -1 I I #
edge $-1 $323 -18.642212947295512 $327 18.642212947295512 $321 $381 forward 7 unknown #
straight-curve $-1 0 -18.642212947295512 -5.1404762914731021 -1 0 0 I I #
vertex $-1 $231 $382 #
straight-curve $-1 0 18.642212947295512 -5.1404762914731021 1 0 0 I I #
point $-1 42.009338663899655 18.642212947295512 -5.1404762914731021 #
point $-1 42.009338663899655 -18.642212947295512 -5.1404762914731021 #
straight-curve $-1 -42.009338663899655 0 5.1404762914731021 0 -1 0 I I #
point $-1 -42.009338663899655 18.642212947295512 5.1404762914731021 #
point $-1 -42.009338663899655 -18.642212947295512 5.1404762914731021 #
straight-curve $-1 42.009338663899655 -18.642212947295512 0 0 0 -1 I I #
straight-curve $-1 42.009338663899655 18.642212947295512 0 0 0 -1 I I #
plane-surface $-1 42.009338663899655 0 0 -1 0 0 0 0 1 forward_v I I I I #
coedge $-1 $340 $251 $262 $349 forward $160 $-1 #
coedge $-1 $251 $340 $265 $351 reversed $160 $-1 #
straight-curve $-1 42.009338663899655 -12.684694761108361 -1.5368171728202669 0 0 1 I I #
coedge $-1 $338 $337 $254 $341 forward $160 $-1 #
edge $-1 $344 4.8529678340073925 $342 10.810486020194544 $340 $383 forward 7 unknown #
vertex $-1 $256 $384 #
straight-curve $-1 0 -18.642212947295512 -4.5736343456405333 1 0 0 I I #
vertex $-1 $341 $385 #
straight-curve $-1 0 -12.684694761108361 -4.5736343456405333 1 0 0 I I #
point $-1 42.009338663899655 -18.642212947295512 -4.5736343456405333 #
point $-1 42.009338663899655 -12.684694761108361 -4.5736343456405333 #
straight-curve $-1 -42.009338663899655 -7.8317269271009682 -1.5736343456405337 0 1 0 I I #
edge $-1 $263 0.036817172820266864 $344 3.0368171728202666 $337 $386 forward 7 unknown #
point $-1 -42.009338663899655 -12.684694761108361 -1.5736343456405337 #
edge $-1 $267 1.5736343456405337 $342 4.5736343456405333 $338 $387 forward 7 unknown #
point $-1 -42.009338663899655 -18.642212947295512 -1.5736343456405337 #
straight-curve $-1 42.009338663899655 -18.642212947295512 0 0 0 -1 I I #
edge $-1 $355 28.672884947866375 $358 32.394259491972882 $273 $388 forward 7 unknown #
vertex $-1 $287 $389 #
straight-curve $-1 -46.86820107556305 2.4430817850803894 5.140476291473103 -1 0 0 I I #
edge $-1 $358 -3.0835719128658692 $284 4.3645521684368287 $283 $390 forward 7 unknown #
vertex $-1 $357 $391 #
straight-curve $-1 -42.009338663899655 2.4430817850803894 1.4191017473665966 0.78801074757464917 0 0.61566148304635926 I I #
point $-1 -37.246196552107321 2.4430817850803894 5.1404762914731021 #
point $-1 -42.009338663899655 -5.0050422962223085 1.4191017473665966 #
straight-curve $-1 -42.009338663899655 0 5.1404762914731021 0 -1 0 I I #
vertex $-1 $290 $392 #
point $-1 -38.04715869761786 -2.8770068444215404 2.880971136772406 #
vertex $-1 $294 $393 #
point $-1 -38.04715869761786 0.31504633327961429 2.880971136772406 #
coedge $-1 $309 $308 $301 $368 forward $298 $-1 #
edge $-1 $369 54.310232303365943 $372 59.297262175921496 $367 $394 forward 7 unknown #
vertex $-1 $313 $395 #
straight-curve $-1 23.078055309783565 6.6007481318688406 5.1404762914730995 1 0 0 I I #
edge $-1 $372 1.319057402202958 $310 9.2443240571288072 $309 $396 forward 7 unknown #
vertex $-1 $371 $397 #
straight-curve $-1 -15.29126074364688 6.6007481318688406 61.600817782131536 -0.68199835119979291 0 0.73135370988377701 I I #
point $-1 37.358858185708748 6.6007481318688406 5.1404762914730924 #
point $-1 42.009338663899655 14.52601478679469 0.15344641891754662 #
straight-curve $-1 42.009338663899655 0 5.1404762914731021 0 1 0 I I #
vertex $-1 $316 $398 #
point $-1 39.435940383728315 10.563381459331765 1.0482227981207579 #
straight-curve $-1 -42.009338663899655 18.642212947295512 0 0 0 -1 I I #
point $-1 -42.009338663899655 -18.642212947295512 -5.1404762914731021 #
straight-curve $-1 -42.009338663899655 0 -5.1404762914731021 0 1 0 I I #
point $-1 -42.009338663899655 18.642212947295512 -5.1404762914731021 #
straight-curve $-1 -42.009338663899655 -7.8317269271009682 -4.5736343456405333 0 -1 0 I I #
point $-1 -42.009338663899655 -18.642212947295512 -4.5736343456405333 #
point $-1 -42.009338663899655 -12.684694761108361 -4.5736343456405333 #
straight-curve $-1 -42.009338663899655 -12.684694761108361 -1.5368171728202669 0 0 -1 I I #
straight-curve $-1 -42.009338663899655 -18.642212947295512 0 0 0 -1 I I #
straight-curve $-1 -42.009338663899655 2.4430817850803894 33.813361239339478 0 0 -1 I I #
point $-1 -42.009338663899655 2.4430817850803894 5.1404762914731021 #
straight-curve $-1 -42.009338663899655 -0.64049012778547976 1.4191017473665972 0 -1 0 I I #
point $-1 -42.009338663899655 2.4430817850803894 1.4191017473665966 #
point $-1 -38.219507962146153 -2.8770068444215404 1.4772989061513977 #
point $-1 -38.219507962146153 0.31504633327961429 1.4772989061513977 #
straight-curve $-1 42.009338663899655 6.6007481318688406 59.450708594839043 0 0 -1 I I #
point $-1 42.009338663899655 6.6007481318688406 5.1404762914731021 #
straight-curve $-1 42.009338663899655 5.2816907296658826 0.15344641891754307 0 1 0 I I #
point $-1 42.009338663899655 6.6007481318688406 0.15344641891754662 #
point $-1 38.022588322644744 10.563381459331765 1.097578156804742 #
End-of-ACIS-data 