500 0 15 0           
7 Unknown 11 ACIS 5.0 NT 24 Thu Mar 25 19:00:10 1999 
-1 9.9999999999999995e-007 1e-010 
body $-1 $15 $-1 $16 #
body $-1 $17 $-1 $18 #
body $-1 $19 $-1 $20 #
body $-1 $21 $-1 $22 #
body $-1 $23 $-1 $24 #
body $-1 $25 $-1 $26 #
body $-1 $27 $-1 $28 #
body $-1 $29 $-1 $30 #
body $-1 $31 $-1 $32 #
body $-1 $33 $-1 $34 #
body $-1 $35 $-1 $36 #
body $-1 $37 $-1 $38 #
body $-1 $39 $-1 $40 #
body $-1 $41 $-1 $42 #
body $-1 $43 $-1 $44 #
lump $-1 $-1 $45 $0 #
transform $-1 1 0 0 0 1 0 0 0 1 75.677358317819753 52.294447262400141 14.765556707266454 1 rotate no_reflect no_shear #
lump $-1 $-1 $46 $1 #
transform $-1 1 0 0 0 1 0 0 0 1 75.677358317819753 52.294447262400141 14.765556707266454 1 rotate no_reflect no_shear #
lump $-1 $-1 $47 $2 #
transform $-1 1 0 0 0 1 0 0 0 1 75.677358317819753 52.294447262400141 14.765556707266454 1 rotate no_reflect no_shear #
lump $-1 $-1 $48 $3 #
transform $-1 1 0 0 0 1 0 0 0 1 75.677358317819753 52.294447262400141 14.765556707266454 1 rotate no_reflect no_shear #
lump $-1 $-1 $49 $4 #
transform $-1 1 0 0 0 1 0 0 0 1 75.677358317819753 52.294447262400141 14.765556707266454 1 rotate no_reflect no_shear #
lump $-1 $-1 $50 $5 #
transform $-1 1 0 0 0 1 0 0 0 1 75.677358317819753 52.294447262400141 14.765556707266454 1 rotate no_reflect no_shear #
lump $-1 $-1 $51 $6 #
transform $-1 1 0 0 0 1 0 0 0 1 75.677358317819753 52.294447262400141 14.765556707266454 1 rotate no_reflect no_shear #
lump $-1 $-1 $52 $7 #
transform $-1 1 0 0 0 1 0 0 0 1 75.677358317819753 52.294447262400141 14.765556707266454 1 rotate no_reflect no_shear #
lump $-1 $-1 $53 $8 #
transform $-1 1 0 0 0 1 0 0 0 1 75.677358317819753 52.294447262400141 14.765556707266454 1 rotate no_reflect no_shear #
lump $-1 $-1 $54 $9 #
transform $-1 1 0 0 0 1 0 0 0 1 75.677358317819753 52.294447262400141 14.765556707266454 1 rotate no_reflect no_shear #
lump $-1 $-1 $55 $10 #
transform $-1 1 0 0 0 1 0 0 0 1 75.677358317819753 52.294447262400141 14.765556707266454 1 rotate no_reflect no_shear #
lump $-1 $-1 $56 $11 #
transform $-1 1 0 0 0 1 0 0 0 1 75.677358317819753 52.294447262400141 14.765556707266454 1 rotate no_reflect no_shear #
lump $-1 $-1 $57 $12 #
transform $-1 1 0 0 0 1 0 0 0 1 75.677358317819753 52.294447262400141 14.765556707266454 1 rotate no_reflect no_shear #
lump $-1 $-1 $58 $13 #
transform $-1 1 0 0 0 1 0 0 0 1 75.677358317819753 52.294447262400141 14.765556707266454 1 rotate no_reflect no_shear #
lump $-1 $-1 $59 $14 #
transform $-1 1 0 0 0 1 0 0 0 1 75.677358317819753 52.294447262400141 14.765556707266454 1 rotate no_reflect no_shear #
shell $-1 $-1 $-1 $60 $-1 $15 #
shell $-1 $-1 $-1 $61 $-1 $17 #
shell $-1 $-1 $-1 $62 $-1 $19 #
shell $-1 $-1 $-1 $63 $-1 $21 #
shell $-1 $-1 $-1 $64 $-1 $23 #
shell $-1 $-1 $-1 $65 $-1 $25 #
shell $-1 $-1 $-1 $66 $-1 $27 #
shell $-1 $-1 $-1 $67 $-1 $29 #
shell $-1 $-1 $-1 $68 $-1 $31 #
shell $-1 $-1 $-1 $69 $-1 $33 #
shell $-1 $-1 $-1 $70 $-1 $35 #
shell $-1 $-1 $-1 $71 $-1 $37 #
shell $-1 $-1 $-1 $72 $-1 $39 #
shell $-1 $-1 $-1 $73 $-1 $41 #
shell $-1 $-1 $-1 $74 $-1 $43 #
face $-1 $75 $76 $45 $-1 $77 forward single #
face $-1 $78 $79 $46 $-1 $80 forward single #
face $-1 $81 $82 $47 $-1 $83 reversed single #
face $-1 $84 $85 $48 $-1 $86 reversed single #
face $-1 $87 $88 $49 $-1 $89 forward single #
face $-1 $90 $91 $50 $-1 $92 forward single #
face $-1 $93 $94 $51 $-1 $95 reversed single #
face $-1 $96 $97 $52 $-1 $98 forward single #
face $-1 $99 $100 $53 $-1 $101 forward single #
face $-1 $102 $103 $54 $-1 $104 reversed single #
face $-1 $105 $106 $55 $-1 $107 forward single #
face $-1 $108 $109 $56 $-1 $110 forward single #
face $-1 $111 $112 $57 $-1 $113 reversed single #
face $-1 $114 $115 $58 $-1 $116 forward single #
face $-1 $117 $118 $59 $-1 $119 forward single #
face $-1 $120 $121 $45 $-1 $122 reversed single #
loop $-1 $-1 $123 $60 #
plane-surface $-1 0 0 14.765556707266454 0 0 1 1 0 0 forward_v I I I I #
face $-1 $124 $125 $46 $-1 $126 forward single #
loop $-1 $-1 $127 $61 #
plane-surface $-1 0 -52.294447262400141 0 0 1 0 0 0 1 forward_v I I I I #
face $-1 $128 $129 $47 $-1 $130 reversed single #
loop $-1 $-1 $131 $62 #
plane-surface $-1 -51.687086817752203 36.823719975585149 0 0 1 0 0 0 1 forward_v I I I I #
face $-1 $132 $133 $48 $-1 $134 reversed single #
loop $-1 $-1 $135 $63 #
plane-surface $-1 127.46023349977271 -22.163254094298793 212.3199272424863 0 -1 0 -0.85716730853699208 0 -0.51503806187062418 forward_v I I I I #
face $-1 $136 $137 $49 $-1 $138 forward single #
loop $-1 $139 $140 $64 #
cone-surface $-1 71.66295760147473 -30.991708087677985 9.1153757111509357 -0.85716730853699208 0 -0.51503806187062418 0.77255709280593621 0 -1.2857509628054882 1 I I 0 1 1.5 forward I I I I #
face $-1 $141 $142 $50 $-1 $143 forward single #
loop $-1 $144 $145 $65 #
cone-surface $-1 71.66295760147473 -25.694635691650472 9.1153757111509357 -0.85716730853699208 0 -0.51503806187062418 0.77255709280593621 0 -1.2857509628054882 1 I I 0 1 1.5 forward I I I I #
face $-1 $146 $147 $51 $-1 $148 reversed single #
loop $-1 $-1 $149 $66 #
plane-surface $-1 127.46023349977271 -2.5009294043374783 212.3199272424863 0 -1 0 -0.85716730853699208 0 -0.51503806187062418 forward_v I I I I #
face $-1 $150 $151 $52 $-1 $152 forward single #
loop $-1 $153 $154 $67 #
cone-surface $-1 71.66295760147473 -11.329383397716668 9.1153757111509357 -0.85716730853699208 0 -0.51503806187062418 0.77255709280593621 0 -1.2857509628054882 1 I I 0 1 1.5 forward I I I I #
face $-1 $155 $156 $53 $-1 $157 forward single #
loop $-1 $158 $159 $68 #
cone-surface $-1 71.66295760147473 -6.0323110016891519 9.1153757111509357 -0.85716730853699208 0 -0.51503806187062418 0.77255709280593621 0 -1.2857509628054882 1 I I 0 1 1.5 forward I I I I #
face $-1 $160 $161 $54 $-1 $162 reversed single #
loop $-1 $-1 $163 $69 #
plane-surface $-1 127.46023349977271 17.16139528562384 212.3199272424863 0 -1 0 -0.85716730853699208 0 -0.51503806187062418 forward_v I I I I #
face $-1 $164 $165 $55 $-1 $166 forward single #
loop $-1 $167 $168 $70 #
cone-surface $-1 71.66295760147473 8.332941292244648 9.1153757111509357 -0.85716730853699208 0 -0.51503806187062418 0.77255709280593621 0 -1.2857509628054882 1 I I 0 1 1.5 forward I I I I #
face $-1 $169 $170 $56 $-1 $171 forward single #
loop $-1 $172 $173 $71 #
cone-surface $-1 71.66295760147473 13.630013688272172 9.1153757111509357 -0.85716730853699208 0 -0.51503806187062418 0.77255709280593621 0 -1.2857509628054882 1 I I 0 1 1.5 forward I I I I #
face $-1 $174 $175 $57 $-1 $176 reversed single #
loop $-1 $-1 $177 $72 #
plane-surface $-1 127.46023349977271 36.823719975585156 212.3199272424863 0 -1 0 -0.85716730853699208 0 -0.51503806187062418 forward_v I I I I #
face $-1 $178 $179 $58 $-1 $180 forward single #
loop $-1 $181 $182 $73 #
cone-surface $-1 71.66295760147473 27.995265982205964 9.1153757111509357 -0.85716730853699208 0 -0.51503806187062418 0.77255709280593621 0 -1.2857509628054882 1 I I 0 1 1.5 forward I I I I #
face $-1 $183 $184 $59 $-1 $185 forward single #
loop $-1 $186 $187 $74 #
cone-surface $-1 71.66295760147473 33.292338378233481 9.1153757111509357 -0.85716730853699208 0 -0.51503806187062418 0.77255709280593621 0 -1.2857509628054882 1 I I 0 1 1.5 forward I I I I #
face $-1 $188 $189 $45 $-1 $190 reversed single #
loop $-1 $-1 $191 $75 #
plane-surface $-1 0 0 -14.765556707266454 0 0 1 1 0 0 forward_v I I I I #
coedge $-1 $192 $193 $194 $195 forward $76 $-1 #
face $-1 $196 $197 $46 $-1 $198 reversed single #
loop $-1 $-1 $199 $78 #
plane-surface $-1 0 0 14.765556707266454 0 0 1 1 0 0 forward_v I I I I #
coedge $-1 $200 $201 $202 $203 forward $79 $-1 #
face $-1 $204 $205 $47 $-1 $206 reversed single #
loop $-1 $-1 $207 $81 #
plane-surface $-1 -54.125812253222506 44.559083618992645 0 1 0 0 0 0 -1 forward_v I I I I #
coedge $-1 $208 $209 $210 $211 forward $82 $-1 #
face $-1 $212 $213 $48 $-1 $214 reversed single #
loop $-1 $-1 $215 $84 #
plane-surface $-1 -2.2760815931774943 -28.343171889664227 134.366487331489 0.85716730853699208 0 0.51503806187062418 0.51503806187062418 0 -0.85716730853699208 forward_v I I I I #
coedge $-1 $216 $217 $218 $219 reversed $85 $-1 #
face $-1 $-1 $220 $49 $-1 $221 forward single #
loop $-1 $222 $223 $87 #
cone-surface $-1 70.050657991784661 -30.991708087677985 8.1466084029962946 -0.85716730853699208 0 -0.51503806187062418 0.3862785464029681 0 -0.64287548140274409 1 I I -0.70710678118654757 0.70710678118654757 0.75 forward I I I I #
loop $-1 $-1 $224 $64 #
coedge $-1 $140 $140 $225 $226 reversed $88 $-1 #
face $-1 $-1 $227 $50 $-1 $228 forward single #
loop $-1 $229 $230 $90 #
cone-surface $-1 70.050657991784661 -25.694635691650472 8.1466084029962946 -0.85716730853699208 0 -0.51503806187062418 0.3862785464029681 0 -0.64287548140274409 1 I I -0.70710678118654757 0.70710678118654757 0.75 forward I I I I #
loop $-1 $-1 $231 $65 #
coedge $-1 $145 $145 $232 $233 reversed $91 $-1 #
face $-1 $234 $235 $51 $-1 $236 reversed single #
loop $-1 $-1 $237 $93 #
plane-surface $-1 -2.2760815931774943 -8.6808471997029102 134.366487331489 0.85716730853699208 0 0.51503806187062418 0.51503806187062418 0 -0.85716730853699208 forward_v I I I I #
coedge $-1 $238 $239 $240 $241 reversed $94 $-1 #
face $-1 $-1 $242 $52 $-1 $243 forward single #
loop $-1 $244 $245 $96 #
cone-surface $-1 70.050657991784661 -11.329383397716668 8.1466084029962946 -0.85716730853699208 0 -0.51503806187062418 0.3862785464029681 0 -0.64287548140274409 1 I I -0.70710678118654757 0.70710678118654757 0.75 forward I I I I #
loop $-1 $-1 $246 $67 #
coedge $-1 $154 $154 $247 $248 reversed $97 $-1 #
face $-1 $-1 $249 $53 $-1 $250 forward single #
loop $-1 $251 $252 $99 #
cone-surface $-1 70.050657991784661 -6.0323110016891519 8.1466084029962946 -0.85716730853699208 0 -0.51503806187062418 0.3862785464029681 0 -0.64287548140274409 1 I I -0.70710678118654757 0.70710678118654757 0.75 forward I I I I #
loop $-1 $-1 $253 $68 #
coedge $-1 $159 $159 $254 $255 reversed $100 $-1 #
face $-1 $256 $257 $54 $-1 $258 reversed single #
loop $-1 $-1 $259 $102 #
plane-surface $-1 -2.2760815931774943 10.981477490258406 134.366487331489 0.85716730853699208 0 0.51503806187062418 0.51503806187062418 0 -0.85716730853699208 forward_v I I I I #
coedge $-1 $260 $261 $262 $263 reversed $103 $-1 #
face $-1 $-1 $264 $55 $-1 $265 forward single #
loop $-1 $266 $267 $105 #
cone-surface $-1 70.050657991784661 8.332941292244648 8.1466084029962946 -0.85716730853699208 0 -0.51503806187062418 0.3862785464029681 0 -0.64287548140274409 1 I I -0.70710678118654757 0.70710678118654757 0.75 forward I I I I #
loop $-1 $-1 $268 $70 #
coedge $-1 $168 $168 $269 $270 reversed $106 $-1 #
face $-1 $-1 $271 $56 $-1 $272 forward single #
loop $-1 $273 $274 $108 #
cone-surface $-1 70.050657991784661 13.630013688272172 8.1466084029962946 -0.85716730853699208 0 -0.51503806187062418 0.3862785464029681 0 -0.64287548140274409 1 I I -0.70710678118654757 0.70710678118654757 0.75 forward I I I I #
loop $-1 $-1 $275 $71 #
coedge $-1 $173 $173 $276 $277 reversed $109 $-1 #
face $-1 $278 $279 $57 $-1 $280 reversed single #
loop $-1 $-1 $281 $111 #
plane-surface $-1 -2.2760815931774943 30.643802180219723 134.366487331489 0.85716730853699208 0 0.51503806187062418 0.51503806187062418 0 -0.85716730853699208 forward_v I I I I #
coedge $-1 $282 $283 $284 $285 reversed $112 $-1 #
face $-1 $-1 $286 $58 $-1 $287 forward single #
loop $-1 $288 $289 $114 #
cone-surface $-1 70.050657991784661 27.995265982205964 8.1466084029962946 -0.85716730853699208 0 -0.51503806187062418 0.3862785464029681 0 -0.64287548140274409 1 I I -0.70710678118654757 0.70710678118654757 0.75 forward I I I I #
loop $-1 $-1 $290 $73 #
coedge $-1 $182 $182 $291 $292 reversed $115 $-1 #
face $-1 $-1 $293 $59 $-1 $294 forward single #
loop $-1 $295 $296 $117 #
cone-surface $-1 70.050657991784661 33.292338378233481 8.1466084029962946 -0.85716730853699208 0 -0.51503806187062418 0.3862785464029681 0 -0.64287548140274409 1 I I -0.70710678118654757 0.70710678118654757 0.75 forward I I I I #
loop $-1 $-1 $297 $74 #
coedge $-1 $187 $187 $298 $299 reversed $118 $-1 #
face $-1 $300 $301 $45 $-1 $302 reversed single #
loop $-1 $-1 $303 $120 #
plane-surface $-1 0 -52.294447262400141 0 0 1 0 0 0 1 forward_v I I I I #
coedge $-1 $304 $305 $306 $307 forward $121 $-1 #
coedge $-1 $308 $123 $309 $310 forward $76 $-1 #
coedge $-1 $123 $308 $311 $312 forward $76 $-1 #
coedge $-1 $313 $314 $123 $195 reversed $315 $-1 #
edge $-1 $316 -52.294447262400141 $317 52.294447262400141 $194 $318 forward 7 unknown #
face $-1 $319 $320 $46 $-1 $321 reversed single #
loop $-1 $-1 $322 $124 #
plane-surface $-1 -75.677358317819753 0 0 1 0 0 0 0 -1 forward_v I I I I #
coedge $-1 $323 $324 $325 $326 forward $125 $-1 #
coedge $-1 $325 $127 $322 $327 reversed $79 $-1 #
coedge $-1 $127 $325 $328 $329 reversed $79 $-1 #
coedge $-1 $330 $331 $127 $203 reversed $320 $-1 #
edge $-1 $332 -75.677358317819753 $333 75.677358317819753 $202 $334 forward 7 unknown #
face $-1 $335 $336 $47 $-1 $337 reversed single #
loop $-1 $-1 $338 $128 #
plane-surface $-1 -49.2483613822819 44.559083618992645 0 -1 0 0 0 0 1 forward_v I I I I #
coedge $-1 $339 $340 $341 $342 reversed $129 $-1 #
coedge $-1 $343 $131 $344 $345 reversed $82 $-1 #
coedge $-1 $131 $343 $346 $347 reversed $82 $-1 #
coedge $-1 $340 $339 $131 $211 reversed $129 $-1 #
edge $-1 $348 -14.765556707266454 $349 14.765556707266454 $210 $350 forward 7 unknown #
face $-1 $351 $352 $48 $-1 $353 reversed single #
loop $-1 $-1 $354 $132 #
plane-surface $-1 127.46023349977271 -34.52308968502966 212.3199272424863 0 1 0 0.85716730853699208 0 0.51503806187062418 forward_v I I I I #
coedge $-1 $355 $356 $357 $358 reversed $133 $-1 #
coedge $-1 $217 $135 $359 $360 reversed $85 $-1 #
coedge $-1 $135 $216 $355 $361 reversed $85 $-1 #
coedge $-1 $357 $362 $135 $219 forward $363 $-1 #
edge $-1 $364 -11.947241567933396 $365 -5.8572883918180665 $218 $366 forward 7 unknown #
loop $-1 $-1 $225 $136 #
plane-surface $-1 -2.2760815931774943 -28.343171889664227 134.366487331489 0.85716730853699208 0 0.51503806187062418 0.51503806187062418 0 -0.85716730853699208 forward_v I I I I #
loop $-1 $-1 $367 $87 #
coedge $-1 $223 $223 $224 $368 reversed $137 $-1 #
coedge $-1 $224 $224 $223 $368 forward $139 $-1 #
coedge $-1 $225 $225 $140 $226 forward $220 $-1 #
edge $-1 $369 0 $369 6.2831853071796004 $225 $370 forward 7 unknown #
loop $-1 $-1 $232 $141 #
plane-surface $-1 -2.2760815931774943 -28.343171889664227 134.366487331489 0.85716730853699208 0 0.51503806187062418 0.51503806187062418 0 -0.85716730853699208 forward_v I I I I #
loop $-1 $-1 $371 $90 #
coedge $-1 $230 $230 $231 $372 reversed $142 $-1 #
coedge $-1 $231 $231 $230 $372 forward $144 $-1 #
coedge $-1 $232 $232 $145 $233 forward $227 $-1 #
edge $-1 $373 0 $373 6.2831853071796004 $232 $374 forward 7 unknown #
face $-1 $375 $376 $51 $-1 $377 reversed single #
loop $-1 $-1 $378 $146 #
plane-surface $-1 127.46023349977271 -14.860764995068342 212.3199272424863 0 1 0 0.85716730853699208 0 0.51503806187062418 forward_v I I I I #
coedge $-1 $379 $380 $381 $382 reversed $147 $-1 #
coedge $-1 $239 $149 $383 $384 reversed $94 $-1 #
coedge $-1 $149 $238 $379 $385 reversed $94 $-1 #
coedge $-1 $381 $386 $149 $241 forward $387 $-1 #
edge $-1 $388 -11.947241567933396 $389 -5.8572883918180665 $240 $390 forward 7 unknown #
loop $-1 $-1 $247 $150 #
plane-surface $-1 -2.2760815931774943 -8.6808471997029102 134.366487331489 0.85716730853699208 0 0.51503806187062418 0.51503806187062418 0 -0.85716730853699208 forward_v I I I I #
loop $-1 $-1 $391 $96 #
coedge $-1 $245 $245 $246 $392 reversed $151 $-1 #
coedge $-1 $246 $246 $245 $392 forward $153 $-1 #
coedge $-1 $247 $247 $154 $248 forward $242 $-1 #
edge $-1 $393 0 $393 6.2831853071796004 $247 $394 forward 7 unknown #
loop $-1 $-1 $254 $155 #
plane-surface $-1 -2.2760815931774943 -8.6808471997029102 134.366487331489 0.85716730853699208 0 0.51503806187062418 0.51503806187062418 0 -0.85716730853699208 forward_v I I I I #
loop $-1 $-1 $395 $99 #
coedge $-1 $252 $252 $253 $396 reversed $156 $-1 #
coedge $-1 $253 $253 $252 $396 forward $158 $-1 #
coedge $-1 $254 $254 $159 $255 forward $249 $-1 #
edge $-1 $397 0 $397 6.2831853071796004 $254 $398 forward 7 unknown #
face $-1 $399 $400 $54 $-1 $401 reversed single #
loop $-1 $-1 $402 $160 #
plane-surface $-1 127.46023349977271 4.8015596948929744 212.3199272424863 0 1 0 0.85716730853699208 0 0.51503806187062418 forward_v I I I I #
coedge $-1 $403 $404 $405 $406 reversed $161 $-1 #
coedge $-1 $261 $163 $407 $408 reversed $103 $-1 #
coedge $-1 $163 $260 $403 $409 reversed $103 $-1 #
coedge $-1 $405 $410 $163 $263 forward $411 $-1 #
edge $-1 $412 -11.947241567933396 $413 -5.8572883918180665 $262 $414 forward 7 unknown #
loop $-1 $-1 $269 $164 #
plane-surface $-1 -2.2760815931774943 10.981477490258406 134.366487331489 0.85716730853699208 0 0.51503806187062418 0.51503806187062418 0 -0.85716730853699208 forward_v I I I I #
loop $-1 $-1 $415 $105 #
coedge $-1 $267 $267 $268 $416 reversed $165 $-1 #
coedge $-1 $268 $268 $267 $416 forward $167 $-1 #
coedge $-1 $269 $269 $168 $270 forward $264 $-1 #
edge $-1 $417 0 $417 6.2831853071796004 $269 $418 forward 7 unknown #
loop $-1 $-1 $276 $169 #
plane-surface $-1 -2.2760815931774943 10.981477490258406 134.366487331489 0.85716730853699208 0 0.51503806187062418 0.51503806187062418 0 -0.85716730853699208 forward_v I I I I #
loop $-1 $-1 $419 $108 #
coedge $-1 $274 $274 $275 $420 reversed $170 $-1 #
coedge $-1 $275 $275 $274 $420 forward $172 $-1 #
coedge $-1 $276 $276 $173 $277 forward $271 $-1 #
edge $-1 $421 0 $421 6.2831853071796004 $276 $422 forward 7 unknown #
face $-1 $423 $424 $57 $-1 $425 reversed single #
loop $-1 $-1 $426 $174 #
plane-surface $-1 127.46023349977271 24.463884384854289 212.3199272424863 0 1 0 0.85716730853699208 0 0.51503806187062418 forward_v I I I I #
coedge $-1 $427 $428 $429 $430 reversed $175 $-1 #
coedge $-1 $283 $177 $431 $432 reversed $112 $-1 #
coedge $-1 $177 $282 $427 $433 reversed $112 $-1 #
coedge $-1 $429 $434 $177 $285 forward $435 $-1 #
edge $-1 $436 -11.947241567933396 $437 -5.8572883918180665 $284 $438 forward 7 unknown #
loop $-1 $-1 $291 $178 #
plane-surface $-1 -2.2760815931774943 30.643802180219723 134.366487331489 0.85716730853699208 0 0.51503806187062418 0.51503806187062418 0 -0.85716730853699208 forward_v I I I I #
loop $-1 $-1 $439 $114 #
coedge $-1 $289 $289 $290 $440 reversed $179 $-1 #
coedge $-1 $290 $290 $289 $440 forward $181 $-1 #
coedge $-1 $291 $291 $182 $292 forward $286 $-1 #
edge $-1 $441 0 $441 6.2831853071796004 $291 $442 forward 7 unknown #
loop $-1 $-1 $298 $183 #
plane-surface $-1 -2.2760815931774943 30.643802180219723 134.366487331489 0.85716730853699208 0 0.51503806187062418 0.51503806187062418 0 -0.85716730853699208 forward_v I I I I #
loop $-1 $-1 $443 $117 #
coedge $-1 $296 $296 $297 $444 reversed $184 $-1 #
coedge $-1 $297 $297 $296 $444 forward $186 $-1 #
coedge $-1 $298 $298 $187 $299 forward $293 $-1 #
edge $-1 $445 0 $445 6.2831853071796004 $298 $446 forward 7 unknown #
face $-1 $447 $448 $45 $-1 $449 reversed single #
loop $-1 $-1 $450 $188 #
plane-surface $-1 -75.677358317819753 0 0 1 0 0 0 0 -1 forward_v I I I I #
coedge $-1 $451 $311 $452 $453 forward $189 $-1 #
coedge $-1 $454 $191 $451 $455 forward $121 $-1 #
coedge $-1 $191 $454 $456 $457 forward $121 $-1 #
coedge $-1 $314 $313 $191 $307 reversed $315 $-1 #
edge $-1 $458 -52.294447262400141 $459 52.294447262400141 $306 $460 forward 7 unknown #
coedge $-1 $193 $192 $461 $462 forward $76 $-1 #
coedge $-1 $463 $464 $192 $310 reversed $448 $-1 #
edge $-1 $317 -75.677358317819753 $465 75.677358317819753 $309 $466 forward 7 unknown #
coedge $-1 $303 $467 $193 $312 reversed $189 $-1 #
edge $-1 $468 -75.677358317819753 $316 75.677358317819753 $311 $469 forward 7 unknown #
coedge $-1 $306 $194 $467 $470 forward $315 $-1 #
coedge $-1 $194 $306 $463 $471 reversed $315 $-1 #
loop $-1 $-1 $313 $447 #
vertex $-1 $195 $472 #
vertex $-1 $195 $473 #
straight-curve $-1 75.677358317819753 0 14.765556707266454 0 1 0 I I #
face $-1 $474 $475 $46 $-1 $476 reversed single #
loop $-1 $-1 $330 $196 #
plane-surface $-1 0 -57.528881501470153 7.1115485009734254 0 0 1 1 0 0 forward_v I I I I #
coedge $-1 $477 $478 $200 $327 forward $197 $-1 #
coedge $-1 $479 $199 $478 $480 forward $125 $-1 #
coedge $-1 $199 $479 $481 $482 forward $125 $-1 #
coedge $-1 $201 $200 $199 $326 reversed $79 $-1 #
edge $-1 $483 -75.677358317819753 $484 75.677358317819753 $199 $485 forward 7 unknown #
edge $-1 $484 -14.765556707266454 $333 -7.1115485009734254 $322 $486 forward 7 unknown #
coedge $-1 $481 $487 $201 $329 forward $488 $-1 #
edge $-1 $332 7.1115485009734254 $483 14.765556707266454 $328 $489 forward 7 unknown #
coedge $-1 $490 $202 $487 $491 forward $320 $-1 #
coedge $-1 $202 $490 $477 $492 forward $320 $-1 #
vertex $-1 $329 $493 #
vertex $-1 $327 $494 #
straight-curve $-1 0 -52.294447262400141 7.1115485009734254 -1 0 0 I I #
face $-1 $495 $496 $47 $-1 $497 reversed single #
loop $-1 $-1 $498 $204 #
plane-surface $-1 0 52.294447262400141 0 0 -1 0 0 0 -1 forward_v I I I I #
coedge $-1 $499 $500 $343 $501 forward $205 $-1 #
coedge $-1 $210 $207 $502 $503 reversed $129 $-1 #
coedge $-1 $207 $210 $504 $505 reversed $129 $-1 #
coedge $-1 $506 $507 $207 $342 forward $336 $-1 #
edge $-1 $508 -14.765556707266454 $509 14.765556707266454 $341 $510 forward 7 unknown #
coedge $-1 $209 $208 $338 $501 reversed $82 $-1 #
coedge $-1 $502 $511 $208 $345 forward $496 $-1 #
edge $-1 $512 23.404817973405798 $349 28.282268844346405 $344 $513 forward 7 unknown #
coedge $-1 $514 $504 $209 $347 forward $515 $-1 #
edge $-1 $348 -28.282268844346405 $516 -23.404817973405798 $346 $517 forward 7 unknown #
vertex $-1 $347 $518 #
vertex $-1 $345 $519 #
straight-curve $-1 -54.125812253222506 36.823719975585149 0 0 0 -1 I I #
face $-1 $-1 $363 $48 $-1 $520 forward single #
loop $-1 $-1 $521 $212 #
plane-surface $-1 75.677358317819753 0 0 -1 0 0 0 0 1 forward_v I I I I #
coedge $-1 $522 $523 $524 $525 reversed $213 $-1 #
coedge $-1 $526 $215 $217 $361 forward $133 $-1 #
coedge $-1 $215 $526 $522 $527 forward $133 $-1 #
coedge $-1 $524 $218 $215 $358 forward $363 $-1 #
edge $-1 $365 7.9916681494666797 $528 20.351503740197547 $357 $529 forward 7 unknown #
coedge $-1 $530 $531 $216 $360 forward $352 $-1 #
edge $-1 $532 -101.52979138270427 $364 -91.394406913976695 $359 $533 forward 7 unknown #
edge $-1 $365 139.5304387288833 $532 151.35471663563945 $217 $534 forward 7 unknown #
coedge $-1 $218 $524 $530 $535 forward $363 $-1 #
loop $-1 $-1 $524 $351 #
vertex $-1 $360 $536 #
vertex $-1 $219 $537 #
straight-curve $-1 63.730116749886356 -22.163254094298793 14.765556707266455 -1 0 0 I I #
coedge $-1 $367 $367 $-1 $538 reversed $222 $-1 #
edge $-1 $539 0 $539 6.2831853071796004 $223 $540 forward 7 unknown #
vertex $-1 $226 $541 #
ellipse-curve $-1 72.632381729762102 -30.991708087677985 9.6978644729026318 0.85716730853699208 0 0.51503806187062418 0.77255709280593621 0 -1.2857509628054882 1 I I #
coedge $-1 $371 $371 $-1 $542 reversed $229 $-1 #
edge $-1 $543 0 $543 6.2831853071796004 $230 $544 forward 7 unknown #
vertex $-1 $233 $545 #
ellipse-curve $-1 72.632381729762102 -25.694635691650472 9.6978644729026318 0.85716730853699208 0 0.51503806187062418 0.77255709280593621 0 -1.2857509628054882 1 I I #
face $-1 $-1 $387 $51 $-1 $546 forward single #
loop $-1 $-1 $547 $234 #
plane-surface $-1 75.677358317819753 0 0 -1 0 0 0 0 1 forward_v I I I I #
coedge $-1 $548 $549 $550 $551 reversed $235 $-1 #
coedge $-1 $552 $237 $239 $385 forward $147 $-1 #
coedge $-1 $237 $552 $548 $553 forward $147 $-1 #
coedge $-1 $550 $240 $237 $382 forward $387 $-1 #
edge $-1 $389 -1.8394941955139767 $554 10.520341395216887 $381 $555 forward 7 unknown #
coedge $-1 $556 $557 $238 $384 forward $376 $-1 #
edge $-1 $558 -101.52979138270427 $388 -91.394406913976695 $383 $559 forward 7 unknown #
edge $-1 $389 139.5304387288833 $558 151.35471663563945 $239 $560 forward 7 unknown #
coedge $-1 $240 $550 $556 $561 forward $387 $-1 #
loop $-1 $-1 $550 $375 #
vertex $-1 $384 $562 #
vertex $-1 $241 $563 #
straight-curve $-1 63.730116749886356 -2.5009294043374783 14.765556707266455 -1 0 0 I I #
coedge $-1 $391 $391 $-1 $564 reversed $244 $-1 #
edge $-1 $565 0 $565 6.2831853071796004 $245 $566 forward 7 unknown #
vertex $-1 $248 $567 #
ellipse-curve $-1 72.632381729762102 -11.329383397716668 9.6978644729026318 0.85716730853699208 0 0.51503806187062418 0.77255709280593621 0 -1.2857509628054882 1 I I #
coedge $-1 $395 $395 $-1 $568 reversed $251 $-1 #
edge $-1 $569 0 $569 6.2831853071796004 $252 $570 forward 7 unknown #
vertex $-1 $255 $571 #
ellipse-curve $-1 72.632381729762102 -6.0323110016891519 9.6978644729026318 0.85716730853699208 0 0.51503806187062418 0.77255709280593621 0 -1.2857509628054882 1 I I #
face $-1 $-1 $411 $54 $-1 $572 forward single #
loop $-1 $-1 $573 $256 #
plane-surface $-1 75.677358317819753 0 0 -1 0 0 0 0 1 forward_v I I I I #
coedge $-1 $574 $575 $576 $577 reversed $257 $-1 #
coedge $-1 $578 $259 $261 $409 forward $161 $-1 #
coedge $-1 $259 $578 $574 $579 forward $161 $-1 #
coedge $-1 $576 $262 $259 $406 forward $411 $-1 #
edge $-1 $413 -11.670656540494637 $580 0.68917905023622872 $405 $581 forward 7 unknown #
coedge $-1 $582 $583 $260 $408 forward $400 $-1 #
edge $-1 $584 -101.52979138270427 $412 -91.394406913976695 $407 $585 forward 7 unknown #
edge $-1 $413 139.5304387288833 $584 151.35471663563945 $261 $586 forward 7 unknown #
coedge $-1 $262 $576 $582 $587 forward $411 $-1 #
loop $-1 $-1 $576 $399 #
vertex $-1 $408 $588 #
vertex $-1 $263 $589 #
straight-curve $-1 63.730116749886356 17.16139528562384 14.765556707266455 -1 0 0 I I #
coedge $-1 $415 $415 $-1 $590 reversed $266 $-1 #
edge $-1 $591 0 $591 6.2831853071796004 $267 $592 forward 7 unknown #
vertex $-1 $270 $593 #
ellipse-curve $-1 72.632381729762102 8.332941292244648 9.6978644729026318 0.85716730853699208 0 0.51503806187062418 0.77255709280593621 0 -1.2857509628054882 1 I I #
coedge $-1 $419 $419 $-1 $594 reversed $273 $-1 #
edge $-1 $595 0 $595 6.2831853071796004 $274 $596 forward 7 unknown #
vertex $-1 $277 $597 #
ellipse-curve $-1 72.632381729762102 13.630013688272172 9.6978644729026318 0.85716730853699208 0 0.51503806187062418 0.77255709280593621 0 -1.2857509628054882 1 I I #
face $-1 $-1 $435 $57 $-1 $598 forward single #
loop $-1 $-1 $599 $278 #
plane-surface $-1 75.677358317819753 0 0 -1 0 0 0 0 1 forward_v I I I I #
coedge $-1 $600 $601 $602 $603 reversed $279 $-1 #
coedge $-1 $604 $281 $283 $433 forward $175 $-1 #
coedge $-1 $281 $604 $600 $605 forward $175 $-1 #
coedge $-1 $602 $284 $281 $430 forward $435 $-1 #
edge $-1 $437 -21.501818885475295 $606 -9.1419832947444277 $429 $607 forward 7 unknown #
coedge $-1 $608 $609 $282 $432 forward $424 $-1 #
edge $-1 $610 -101.52979138270427 $436 -91.394406913976695 $431 $611 forward 7 unknown #
edge $-1 $437 139.5304387288833 $610 151.35471663563945 $283 $612 forward 7 unknown #
coedge $-1 $284 $602 $608 $613 forward $435 $-1 #
loop $-1 $-1 $602 $423 #
vertex $-1 $432 $614 #
vertex $-1 $285 $615 #
straight-curve $-1 63.730116749886356 36.823719975585156 14.765556707266455 -1 0 0 I I #
coedge $-1 $439 $439 $-1 $616 reversed $288 $-1 #
edge $-1 $617 0 $617 6.2831853071796004 $289 $618 forward 7 unknown #
vertex $-1 $292 $619 #
ellipse-curve $-1 72.632381729762102 27.995265982205964 9.6978644729026318 0.85716730853699208 0 0.51503806187062418 0.77255709280593621 0 -1.2857509628054882 1 I I #
coedge $-1 $443 $443 $-1 $620 reversed $295 $-1 #
edge $-1 $621 0 $621 6.2831853071796004 $296 $622 forward 7 unknown #
vertex $-1 $299 $623 #
ellipse-curve $-1 72.632381729762102 33.292338378233481 9.6978644729026318 0.85716730853699208 0 0.51503806187062418 0.77255709280593621 0 -1.2857509628054882 1 I I #
face $-1 $-1 $315 $45 $-1 $624 reversed single #
loop $-1 $-1 $463 $300 #
plane-surface $-1 0 52.294447262400141 0 0 -1 0 0 0 -1 forward_v I I I I #
coedge $-1 $625 $461 $464 $626 forward $301 $-1 #
coedge $-1 $467 $303 $304 $455 reversed $189 $-1 #
coedge $-1 $461 $625 $303 $453 reversed $301 $-1 #
edge $-1 $468 -14.765556707266454 $627 14.765556707266454 $452 $628 forward 7 unknown #
coedge $-1 $305 $304 $625 $629 forward $121 $-1 #
edge $-1 $459 -75.677358317819753 $627 75.677358317819753 $451 $630 forward 7 unknown #
coedge $-1 $464 $463 $305 $457 reversed $448 $-1 #
edge $-1 $631 -75.677358317819753 $458 75.677358317819753 $456 $632 forward 7 unknown #
vertex $-1 $307 $633 #
vertex $-1 $470 $634 #
straight-curve $-1 75.677358317819753 0 -14.765556707266454 0 -1 0 I I #
coedge $-1 $450 $452 $308 $462 reversed $301 $-1 #
edge $-1 $465 -52.294447262400141 $468 52.294447262400141 $461 $635 forward 7 unknown #
coedge $-1 $456 $309 $314 $471 forward $448 $-1 #
coedge $-1 $309 $456 $450 $626 reversed $448 $-1 #
vertex $-1 $310 $636 #
straight-curve $-1 0 52.294447262400141 14.765556707266454 -1 0 0 I I #
coedge $-1 $311 $451 $313 $470 reversed $189 $-1 #
vertex $-1 $462 $637 #
straight-curve $-1 0 -52.294447262400141 14.765556707266454 1 0 0 I I #
edge $-1 $316 -14.765556707266454 $459 14.765556707266454 $313 $638 forward 7 unknown #
edge $-1 $317 -14.765556707266454 $458 14.765556707266454 $314 $639 forward 7 unknown #
point $-1 75.677358317819753 -52.294447262400141 14.765556707266454 #
point $-1 75.677358317819753 52.294447262400141 14.765556707266454 #
face $-1 $-1 $488 $46 $-1 $640 reversed single #
loop $-1 $-1 $641 $319 #
plane-surface $-1 0 -62.763315740540165 10.938552604119939 0 1 0 0 0 1 forward_v I I I I #
coedge $-1 $642 $322 $331 $492 reversed $197 $-1 #
coedge $-1 $322 $642 $323 $480 reversed $197 $-1 #
coedge $-1 $324 $323 $643 $644 forward $125 $-1 #
edge $-1 $484 52.294447262400141 $645 62.763315740540165 $478 $646 forward 7 unknown #
coedge $-1 $647 $328 $324 $482 reversed $488 $-1 #
edge $-1 $648 -62.763315740540165 $483 -52.294447262400141 $481 $649 forward 7 unknown #
vertex $-1 $329 $650 #
vertex $-1 $480 $651 #
straight-curve $-1 0 -52.294447262400141 14.765556707266454 -1 0 0 I I #
straight-curve $-1 -75.677358317819753 -52.294447262400141 0 0 0 -1 I I #
coedge $-1 $328 $647 $330 $491 reversed $488 $-1 #
loop $-1 $-1 $328 $474 #
straight-curve $-1 75.677358317819753 -52.294447262400141 0 0 0 1 I I #
coedge $-1 $331 $330 $652 $653 forward $320 $-1 #
edge $-1 $332 -5.234434239070012 $654 5.234434239070012 $487 $655 forward 7 unknown #
edge $-1 $656 -5.234434239070012 $333 5.234434239070012 $477 $657 forward 7 unknown #
point $-1 75.677358317819753 -52.294447262400141 7.1115485009734254 #
point $-1 -75.677358317819753 -52.294447262400141 7.1115485009734254 #
face $-1 $-1 $515 $47 $-1 $658 forward single #
loop $-1 $-1 $511 $335 #
plane-surface $-1 0 0 -14.765556707266454 0 0 1 1 0 0 forward_v I I I I #
coedge $-1 $507 $506 $659 $660 forward $336 $-1 #
coedge $-1 $659 $338 $511 $661 reversed $205 $-1 #
coedge $-1 $338 $659 $514 $662 reversed $205 $-1 #
edge $-1 $516 -14.765556707266454 $512 14.765556707266454 $338 $663 forward 7 unknown #
coedge $-1 $664 $344 $339 $503 forward $496 $-1 #
edge $-1 $349 14.544178166088827 $508 30.014905452903818 $502 $665 forward 7 unknown #
coedge $-1 $346 $666 $340 $505 forward $515 $-1 #
edge $-1 $509 -30.014905452903818 $348 -14.544178166088827 $504 $667 forward 7 unknown #
coedge $-1 $498 $341 $666 $668 reversed $336 $-1 #
coedge $-1 $341 $498 $664 $669 reversed $336 $-1 #
vertex $-1 $669 $670 #
vertex $-1 $342 $671 #
straight-curve $-1 -54.125812253222506 52.294447262400141 0 0 0 1 I I #
coedge $-1 $344 $664 $499 $661 forward $496 $-1 #
vertex $-1 $345 $672 #
straight-curve $-1 -25.843543408876101 36.823719975585149 -14.765556707266454 -1 0 0 I I #
coedge $-1 $666 $346 $500 $662 forward $515 $-1 #
loop $-1 $-1 $514 $495 #
vertex $-1 $347 $673 #
straight-curve $-1 -25.843543408876101 36.823719975585149 14.765556707266454 1 0 0 I I #
point $-1 -54.125812253222506 36.823719975585149 14.765556707266454 #
point $-1 -54.125812253222506 36.823719975585149 -14.765556707266454 #
plane-surface $-1 0 0 14.765556707266454 0 0 1 1 0 0 forward_v I I I I #
coedge $-1 $531 $530 $523 $674 forward $352 $-1 #
coedge $-1 $523 $354 $356 $527 reversed $213 $-1 #
coedge $-1 $354 $522 $521 $674 reversed $213 $-1 #
coedge $-1 $362 $357 $354 $525 forward $363 $-1 #
edge $-1 $528 5.8572883918180665 $675 11.947241567933396 $524 $676 forward 7 unknown #
coedge $-1 $356 $355 $531 $677 reversed $133 $-1 #
edge $-1 $678 -151.35471663563945 $528 -139.5304387288833 $522 $679 forward 7 unknown #
vertex $-1 $358 $680 #
straight-curve $-1 69.587405141704409 -14.171585944832113 14.765556707266455 0 -1 0 I I #
coedge $-1 $521 $359 $362 $535 reversed $352 $-1 #
coedge $-1 $359 $521 $526 $677 forward $352 $-1 #
vertex $-1 $360 $681 #
straight-curve $-1 75.677358317819753 -22.163254094298793 106.15996362124315 0 0 1 I I #
straight-curve $-1 -2.2760815931774943 -22.163254094298793 134.366487331489 0.51503806187062418 0 -0.85716730853699208 I I #
edge $-1 $675 -34.52308968502966 $364 -22.163254094298793 $530 $682 forward 7 unknown #
point $-1 75.677358317819753 -22.163254094298793 14.765556707266454 #
point $-1 69.587405141704423 -22.163254094298793 14.765556707266455 #
edge $-1 $683 1 $683 0 $367 $-1 forward 7 unknown #
vertex $-1 $368 $684 #
ellipse-curve $-1 70.693533473187401 -30.991708087677985 8.5328869493992627 0.85716730853699208 0 0.51503806187062418 0.77255709280593621 0 -1.2857509628054882 1 I I #
point $-1 73.404938822567999 -30.991708087677985 8.4121135100971198 #
edge $-1 $685 1 $685 0 $371 $-1 forward 7 unknown #
vertex $-1 $372 $686 #
ellipse-curve $-1 70.693533473187401 -25.694635691650472 8.5328869493992627 0.85716730853699208 0 0.51503806187062418 0.77255709280593621 0 -1.2857509628054882 1 I I #
point $-1 73.404938822567999 -25.694635691650472 8.4121135100971198 #
plane-surface $-1 0 0 14.765556707266454 0 0 1 1 0 0 forward_v I I I I #
coedge $-1 $557 $556 $549 $687 forward $376 $-1 #
coedge $-1 $549 $378 $380 $553 reversed $235 $-1 #
coedge $-1 $378 $548 $547 $687 reversed $235 $-1 #
coedge $-1 $386 $381 $378 $551 forward $387 $-1 #
edge $-1 $554 5.8572883918180665 $688 11.947241567933396 $550 $689 forward 7 unknown #
coedge $-1 $380 $379 $557 $690 reversed $147 $-1 #
edge $-1 $691 -151.35471663563945 $554 -139.5304387288833 $548 $692 forward 7 unknown #
vertex $-1 $382 $693 #
straight-curve $-1 69.587405141704409 -4.3404235998514551 14.765556707266455 0 -1 0 I I #
coedge $-1 $547 $383 $386 $561 reversed $376 $-1 #
coedge $-1 $383 $547 $552 $690 forward $376 $-1 #
vertex $-1 $384 $694 #
straight-curve $-1 75.677358317819753 -2.5009294043374783 106.15996362124315 0 0 1 I I #
straight-curve $-1 -2.2760815931774943 -2.5009294043374783 134.366487331489 0.51503806187062418 0 -0.85716730853699208 I I #
edge $-1 $688 -14.860764995068342 $388 -2.5009294043374783 $556 $695 forward 7 unknown #
point $-1 75.677358317819753 -2.5009294043374783 14.765556707266454 #
point $-1 69.587405141704423 -2.5009294043374783 14.765556707266455 #
edge $-1 $696 1 $696 0 $391 $-1 forward 7 unknown #
vertex $-1 $392 $697 #
ellipse-curve $-1 70.693533473187401 -11.329383397716668 8.5328869493992627 0.85716730853699208 0 0.51503806187062418 0.77255709280593621 0 -1.2857509628054882 1 I I #
point $-1 73.404938822567999 -11.329383397716668 8.4121135100971198 #
edge $-1 $698 1 $698 0 $395 $-1 forward 7 unknown #
vertex $-1 $396 $699 #
ellipse-curve $-1 70.693533473187401 -6.0323110016891519 8.5328869493992627 0.85716730853699208 0 0.51503806187062418 0.77255709280593621 0 -1.2857509628054882 1 I I #
point $-1 73.404938822567999 -6.0323110016891519 8.4121135100971198 #
plane-surface $-1 0 0 14.765556707266454 0 0 1 1 0 0 forward_v I I I I #
coedge $-1 $583 $582 $575 $700 forward $400 $-1 #
coedge $-1 $575 $402 $404 $579 reversed $257 $-1 #
coedge $-1 $402 $574 $573 $700 reversed $257 $-1 #
coedge $-1 $410 $405 $402 $577 forward $411 $-1 #
edge $-1 $580 5.8572883918180665 $701 11.947241567933396 $576 $702 forward 7 unknown #
coedge $-1 $404 $403 $583 $703 reversed $161 $-1 #
edge $-1 $704 -151.35471663563945 $580 -139.5304387288833 $574 $705 forward 7 unknown #
vertex $-1 $406 $706 #
straight-curve $-1 69.587405141704409 5.4907387451292031 14.765556707266455 0 -1 0 I I #
coedge $-1 $573 $407 $410 $587 reversed $400 $-1 #
coedge $-1 $407 $573 $578 $703 forward $400 $-1 #
vertex $-1 $408 $707 #
straight-curve $-1 75.677358317819753 17.16139528562384 106.15996362124315 0 0 1 I I #
straight-curve $-1 -2.2760815931774943 17.16139528562384 134.366487331489 0.51503806187062418 0 -0.85716730853699208 I I #
edge $-1 $701 4.8015596948929744 $412 17.16139528562384 $582 $708 forward 7 unknown #
point $-1 75.677358317819753 17.16139528562384 14.765556707266454 #
point $-1 69.587405141704423 17.16139528562384 14.765556707266455 #
edge $-1 $709 1 $709 0 $415 $-1 forward 7 unknown #
vertex $-1 $416 $710 #
ellipse-curve $-1 70.693533473187401 8.332941292244648 8.5328869493992627 0.85716730853699208 0 0.51503806187062418 0.77255709280593621 0 -1.2857509628054882 1 I I #
point $-1 73.404938822567999 8.332941292244648 8.4121135100971198 #
edge $-1 $711 1 $711 0 $419 $-1 forward 7 unknown #
vertex $-1 $420 $712 #
ellipse-curve $-1 70.693533473187401 13.630013688272172 8.5328869493992627 0.85716730853699208 0 0.51503806187062418 0.77255709280593621 0 -1.2857509628054882 1 I I #
point $-1 73.404938822567999 13.630013688272172 8.4121135100971198 #
plane-surface $-1 0 0 14.765556707266454 0 0 1 1 0 0 forward_v I I I I #
coedge $-1 $609 $608 $601 $713 forward $424 $-1 #
coedge $-1 $601 $426 $428 $605 reversed $279 $-1 #
coedge $-1 $426 $600 $599 $713 reversed $279 $-1 #
coedge $-1 $434 $429 $426 $603 forward $435 $-1 #
edge $-1 $606 5.8572883918180665 $714 11.947241567933396 $602 $715 forward 7 unknown #
coedge $-1 $428 $427 $609 $716 reversed $175 $-1 #
edge $-1 $717 -151.35471663563945 $606 -139.5304387288833 $600 $718 forward 7 unknown #
vertex $-1 $430 $719 #
straight-curve $-1 69.587405141704409 15.321901090109861 14.765556707266455 0 -1 0 I I #
coedge $-1 $599 $431 $434 $613 reversed $424 $-1 #
coedge $-1 $431 $599 $604 $716 forward $424 $-1 #
vertex $-1 $432 $720 #
straight-curve $-1 75.677358317819753 36.823719975585156 106.15996362124315 0 0 1 I I #
straight-curve $-1 -2.2760815931774943 36.823719975585156 134.366487331489 0.51503806187062418 0 -0.85716730853699208 I I #
edge $-1 $714 24.463884384854289 $436 36.823719975585156 $608 $721 forward 7 unknown #
point $-1 75.677358317819753 36.823719975585156 14.765556707266454 #
point $-1 69.587405141704423 36.823719975585156 14.765556707266455 #
edge $-1 $722 1 $722 0 $439 $-1 forward 7 unknown #
vertex $-1 $440 $723 #
ellipse-curve $-1 70.693533473187401 27.995265982205964 8.5328869493992627 0.85716730853699208 0 0.51503806187062418 0.77255709280593621 0 -1.2857509628054882 1 I I #
point $-1 73.404938822567999 27.995265982205964 8.4121135100971198 #
edge $-1 $724 1 $724 0 $443 $-1 forward 7 unknown #
vertex $-1 $444 $725 #
ellipse-curve $-1 70.693533473187401 33.292338378233481 8.5328869493992627 0.85716730853699208 0 0.51503806187062418 0.77255709280593621 0 -1.2857509628054882 1 I I #
point $-1 73.404938822567999 33.292338378233481 8.4121135100971198 #
plane-surface $-1 75.677358317819753 0 0 -1 0 0 0 0 1 forward_v I I I I #
coedge $-1 $452 $450 $454 $629 reversed $301 $-1 #
edge $-1 $465 -14.765556707266454 $631 14.765556707266454 $464 $726 forward 7 unknown #
vertex $-1 $629 $727 #
straight-curve $-1 -75.677358317819753 -52.294447262400141 0 0 0 -1 I I #
edge $-1 $627 -52.294447262400141 $631 52.294447262400141 $625 $728 forward 7 unknown #
straight-curve $-1 0 -52.294447262400141 -14.765556707266454 -1 0 0 I I #
vertex $-1 $457 $729 #
straight-curve $-1 0 52.294447262400141 -14.765556707266454 1 0 0 I I #
point $-1 75.677358317819753 52.294447262400141 -14.765556707266454 #
point $-1 75.677358317819753 -52.294447262400141 -14.765556707266454 #
straight-curve $-1 -75.677358317819753 0 14.765556707266454 0 -1 0 I I #
point $-1 -75.677358317819753 52.294447262400141 14.765556707266454 #
point $-1 -75.677358317819753 -52.294447262400141 14.765556707266454 #
straight-curve $-1 75.677358317819753 -52.294447262400141 0 0 0 -1 I I #
straight-curve $-1 75.677358317819753 52.294447262400141 0 0 0 -1 I I #
plane-surface $-1 75.677358317819753 0 0 -1 0 0 0 0 1 forward_v I I I I #
coedge $-1 $652 $643 $642 $730 forward $475 $-1 #
coedge $-1 $478 $477 $641 $730 reversed $197 $-1 #
coedge $-1 $641 $731 $479 $644 reversed $475 $-1 #
edge $-1 $645 -75.677358317819753 $648 75.677358317819753 $643 $732 forward 7 unknown #
vertex $-1 $480 $733 #
straight-curve $-1 -75.677358317819753 0 14.765556707266454 0 -1 0 I I #
coedge $-1 $487 $481 $731 $734 forward $488 $-1 #
vertex $-1 $482 $735 #
straight-curve $-1 75.677358317819753 0 14.765556707266454 0 1 0 I I #
point $-1 75.677358317819753 -52.294447262400141 14.765556707266454 #
point $-1 -75.677358317819753 -52.294447262400141 14.765556707266454 #
coedge $-1 $731 $641 $490 $653 reversed $475 $-1 #
edge $-1 $654 -75.677358317819753 $656 75.677358317819753 $652 $736 forward 7 unknown #
vertex $-1 $734 $737 #
straight-curve $-1 75.677358317819753 -57.528881501470153 7.1115485009734254 0 -1 0 I I #
vertex $-1 $492 $738 #
straight-curve $-1 -75.677358317819753 -57.528881501470153 7.1115485009734254 0 1 0 I I #
plane-surface $-1 0 0 14.765556707266454 0 0 1 1 0 0 forward_v I I I I #
coedge $-1 $500 $499 $498 $660 reversed $205 $-1 #
edge $-1 $739 -14.765556707266454 $740 14.765556707266454 $498 $741 forward 7 unknown #
edge $-1 $740 -30.014905452903818 $512 -14.544178166088827 $511 $742 forward 7 unknown #
edge $-1 $516 14.544178166088827 $739 30.014905452903818 $514 $743 forward 7 unknown #
straight-curve $-1 -49.2483613822819 36.823719975585149 0 0 0 -1 I I #
coedge $-1 $511 $502 $507 $669 forward $496 $-1 #
straight-curve $-1 -54.125812253222506 22.279541809496322 -14.765556707266454 0 1 0 I I #
coedge $-1 $504 $514 $506 $668 forward $515 $-1 #
straight-curve $-1 -54.125812253222506 22.279541809496322 14.765556707266454 0 -1 0 I I #
edge $-1 $739 49.2483613822819 $509 54.125812253222506 $506 $744 forward 7 unknown #
edge $-1 $508 -54.125812253222506 $740 -49.2483613822819 $507 $745 forward 7 unknown #
point $-1 -54.125812253222506 52.294447262400141 -14.765556707266454 #
point $-1 -54.125812253222506 52.294447262400141 14.765556707266454 #
point $-1 -49.2483613822819 36.823719975585149 -14.765556707266454 #
point $-1 -49.2483613822819 36.823719975585149 14.765556707266454 #
edge $-1 $675 91.394406913976695 $678 101.52979138270427 $521 $746 forward 7 unknown #
vertex $-1 $535 $747 #
straight-curve $-1 63.730116749886356 -34.52308968502966 14.765556707266455 1 0 0 I I #
edge $-1 $678 -20.351503740197547 $532 -7.9916681494666797 $531 $748 forward 7 unknown #
vertex $-1 $677 $749 #
straight-curve $-1 -2.2760815931774943 -34.52308968502966 134.366487331489 -0.51503806187062418 0 0.85716730853699208 I I #
point $-1 69.587405141704423 -34.52308968502966 14.765556707266455 #
point $-1 75.677358317819753 -22.163254094298793 4.6301722385388757 #
straight-curve $-1 75.677358317819753 0 14.765556707266454 0 1 0 I I #
vertex $-1 $538 $750 #
point $-1 71.466090565993341 -30.991708087677985 7.2471359865937748 #
vertex $-1 $542 $751 #
point $-1 71.466090565993341 -25.694635691650472 7.2471359865937748 #
edge $-1 $688 91.394406913976695 $691 101.52979138270427 $547 $752 forward 7 unknown #
vertex $-1 $561 $753 #
straight-curve $-1 63.730116749886356 -14.860764995068342 14.765556707266455 1 0 0 I I #
edge $-1 $691 -10.520341395216887 $558 1.8394941955139767 $557 $754 forward 7 unknown #
vertex $-1 $690 $755 #
straight-curve $-1 -2.2760815931774943 -14.860764995068342 134.366487331489 -0.51503806187062418 0 0.85716730853699208 I I #
point $-1 69.587405141704423 -14.860764995068342 14.765556707266455 #
point $-1 75.677358317819753 -2.5009294043374783 4.6301722385388757 #
straight-curve $-1 75.677358317819753 0 14.765556707266454 0 1 0 I I #
vertex $-1 $564 $756 #
point $-1 71.466090565993341 -11.329383397716668 7.2471359865937748 #
vertex $-1 $568 $757 #
point $-1 71.466090565993341 -6.0323110016891519 7.2471359865937748 #
edge $-1 $701 91.394406913976695 $704 101.52979138270427 $573 $758 forward 7 unknown #
vertex $-1 $587 $759 #
straight-curve $-1 63.730116749886356 4.8015596948929744 14.765556707266455 1 0 0 I I #
edge $-1 $704 -0.68917905023622872 $584 11.670656540494637 $583 $760 forward 7 unknown #
vertex $-1 $703 $761 #
straight-curve $-1 -2.2760815931774943 4.8015596948929744 134.366487331489 -0.51503806187062418 0 0.85716730853699208 I I #
point $-1 69.587405141704423 4.8015596948929744 14.765556707266455 #
point $-1 75.677358317819753 17.16139528562384 4.6301722385388757 #
straight-curve $-1 75.677358317819753 0 14.765556707266454 0 1 0 I I #
vertex $-1 $590 $762 #
point $-1 71.466090565993341 8.332941292244648 7.2471359865937748 #
vertex $-1 $594 $763 #
point $-1 71.466090565993341 13.630013688272172 7.2471359865937748 #
edge $-1 $714 91.394406913976695 $717 101.52979138270427 $599 $764 forward 7 unknown #
vertex $-1 $613 $765 #
straight-curve $-1 63.730116749886356 24.463884384854289 14.765556707266455 1 0 0 I I #
edge $-1 $717 9.1419832947444277 $610 21.501818885475295 $609 $766 forward 7 unknown #
vertex $-1 $716 $767 #
straight-curve $-1 -2.2760815931774943 24.463884384854289 134.366487331489 -0.51503806187062418 0 0.85716730853699208 I I #
point $-1 69.587405141704423 24.463884384854289 14.765556707266455 #
point $-1 75.677358317819753 36.823719975585156 4.6301722385388757 #
straight-curve $-1 75.677358317819753 0 14.765556707266454 0 1 0 I I #
vertex $-1 $616 $768 #
point $-1 71.466090565993341 27.995265982205964 7.2471359865937748 #
vertex $-1 $620 $769 #
point $-1 71.466090565993341 33.292338378233481 7.2471359865937748 #
straight-curve $-1 -75.677358317819753 52.294447262400141 0 0 0 -1 I I #
point $-1 -75.677358317819753 -52.294447262400141 -14.765556707266454 #
straight-curve $-1 -75.677358317819753 0 -14.765556707266454 0 1 0 I I #
point $-1 -75.677358317819753 52.294447262400141 -14.765556707266454 #
edge $-1 $645 -3.8270041031465141 $656 3.8270041031465141 $642 $770 forward 7 unknown #
coedge $-1 $643 $652 $647 $734 reversed $475 $-1 #
straight-curve $-1 0 -62.763315740540165 14.765556707266454 1 0 0 I I #
point $-1 -75.677358317819753 -62.763315740540165 14.765556707266454 #
edge $-1 $648 -3.8270041031465141 $654 3.8270041031465141 $647 $771 forward 7 unknown #
point $-1 75.677358317819753 -62.763315740540165 14.765556707266454 #
straight-curve $-1 0 -62.763315740540165 7.1115485009734254 -1 0 0 I I #
point $-1 75.677358317819753 -62.763315740540165 7.1115485009734254 #
point $-1 -75.677358317819753 -62.763315740540165 7.1115485009734254 #
vertex $-1 $668 $772 #
vertex $-1 $660 $773 #
straight-curve $-1 -49.2483613822819 52.294447262400141 0 0 0 -1 I I #
straight-curve $-1 -49.2483613822819 22.279541809496322 -14.765556707266454 0 -1 0 I I #
straight-curve $-1 -49.2483613822819 22.279541809496322 14.765556707266454 0 1 0 I I #
straight-curve $-1 0 52.294447262400141 14.765556707266454 -1 0 0 I I #
straight-curve $-1 0 52.294447262400141 -14.765556707266454 1 0 0 I I #
straight-curve $-1 75.677358317819753 -34.52308968502966 106.15996362124315 0 0 -1 I I #
point $-1 75.677358317819753 -34.52308968502966 14.765556707266454 #
straight-curve $-1 75.677358317819753 -14.171585944832113 4.6301722385388544 0 1 0 I I #
point $-1 75.677358317819753 -34.52308968502966 4.6301722385388757 #
point $-1 69.407782510381921 -30.991708087677985 7.7603298565933265 #
point $-1 69.407782510381921 -25.694635691650472 7.7603298565933265 #
straight-curve $-1 75.677358317819753 -14.860764995068342 106.15996362124315 0 0 -1 I I #
point $-1 75.677358317819753 -14.860764995068342 14.765556707266454 #
straight-curve $-1 75.677358317819753 -4.3404235998514551 4.6301722385388544 0 1 0 I I #
point $-1 75.677358317819753 -14.860764995068342 4.6301722385388757 #
point $-1 69.407782510381921 -11.329383397716668 7.7603298565933265 #
point $-1 69.407782510381921 -6.0323110016891519 7.7603298565933265 #
straight-curve $-1 75.677358317819753 4.8015596948929744 106.15996362124315 0 0 -1 I I #
point $-1 75.677358317819753 4.8015596948929744 14.765556707266454 #
straight-curve $-1 75.677358317819753 5.4907387451292031 4.6301722385388544 0 1 0 I I #
point $-1 75.677358317819753 4.8015596948929744 4.6301722385388757 #
point $-1 69.407782510381921 8.332941292244648 7.7603298565933265 #
point $-1 69.407782510381921 13.630013688272172 7.7603298565933265 #
straight-curve $-1 75.677358317819753 24.463884384854289 106.15996362124315 0 0 -1 I I #
point $-1 75.677358317819753 24.463884384854289 14.765556707266454 #
straight-curve $-1 75.677358317819753 15.321901090109861 4.6301722385388544 0 1 0 I I #
point $-1 75.677358317819753 24.463884384854289 4.6301722385388757 #
point $-1 69.407782510381921 27.995265982205964 7.7603298565933265 #
point $-1 69.407782510381921 33.292338378233481 7.7603298565933265 #
straight-curve $-1 -75.677358317819753 -62.763315740540165 10.938552604119939 0 0 -1 I I #
straight-curve $-1 75.677358317819753 -62.763315740540165 10.938552604119939 0 0 -1 I I #
point $-1 -49.2483613822819 52.294447262400141 14.765556707266454 #
point $-1 -49.2483613822819 52.294447262400141 -14.765556707266454 #
End-of-ACIS-data 