500 0 10 0           
7 Unknown 11 ACIS 5.0 NT 24 Thu Mar 25 20:42:51 1999 
-1 9.9999999999999995e-007 1e-010 
body $-1 $10 $-1 $11 #
body $-1 $12 $-1 $13 #
body $-1 $14 $-1 $15 #
body $-1 $16 $-1 $17 #
body $-1 $18 $-1 $19 #
body $-1 $20 $-1 $21 #
body $-1 $22 $-1 $23 #
body $-1 $24 $-1 $25 #
body $-1 $26 $-1 $27 #
body $-1 $28 $-1 $29 #
lump $-1 $-1 $30 $0 #
transform $-1 1 0 0 0 1 0 0 0 1 78.455763420514543 45.592550746922562 21.621641402070797 1 rotate no_reflect no_shear #
lump $-1 $-1 $31 $1 #
transform $-1 1 0 0 0 1 0 0 0 1 78.455763420514543 45.592550746922562 21.621641402070797 1 rotate no_reflect no_shear #
lump $-1 $-1 $32 $2 #
transform $-1 1 0 0 0 1 0 0 0 1 78.455763420514543 45.592550746922562 21.621641402070797 1 rotate no_reflect no_shear #
lump $-1 $-1 $33 $3 #
transform $-1 1 0 0 0 1 0 0 0 1 78.455763420514543 45.592550746922562 21.621641402070797 1 rotate no_reflect no_shear #
lump $-1 $-1 $34 $4 #
transform $-1 1 0 0 0 1 0 0 0 1 78.455763420514543 45.592550746922562 21.621641402070797 1 rotate no_reflect no_shear #
lump $-1 $-1 $35 $5 #
transform $-1 1 0 0 0 1 0 0 0 1 78.455763420514543 45.592550746922562 21.621641402070797 1 rotate no_reflect no_shear #
lump $-1 $-1 $36 $6 #
transform $-1 1 0 0 0 1 0 0 0 1 78.455763420514543 45.592550746922562 21.621641402070797 1 rotate no_reflect no_shear #
lump $-1 $-1 $37 $7 #
transform $-1 1 0 0 0 1 0 0 0 1 78.455763420514543 45.592550746922562 21.621641402070797 1 rotate no_reflect no_shear #
lump $-1 $-1 $38 $8 #
transform $-1 1 0 0 0 1 0 0 0 1 78.455763420514543 45.592550746922562 21.621641402070797 1 rotate no_reflect no_shear #
lump $-1 $-1 $39 $9 #
transform $-1 1 0 0 0 1 0 0 0 1 78.455763420514543 45.592550746922562 21.621641402070797 1 rotate no_reflect no_shear #
shell $-1 $-1 $-1 $40 $-1 $10 #
shell $-1 $-1 $-1 $41 $-1 $12 #
shell $-1 $-1 $-1 $42 $-1 $14 #
shell $-1 $-1 $-1 $43 $-1 $16 #
shell $-1 $-1 $-1 $44 $-1 $18 #
shell $-1 $-1 $-1 $45 $-1 $20 #
shell $-1 $-1 $-1 $46 $-1 $22 #
shell $-1 $-1 $-1 $47 $-1 $24 #
shell $-1 $-1 $-1 $48 $-1 $26 #
shell $-1 $-1 $-1 $49 $-1 $28 #
face $-1 $50 $51 $30 $-1 $52 forward single #
face $-1 $53 $54 $31 $-1 $55 forward single #
face $-1 $56 $57 $32 $-1 $58 reversed single #
face $-1 $59 $60 $33 $-1 $61 forward single #
face $-1 $62 $63 $34 $-1 $64 forward single #
face $-1 $65 $66 $35 $-1 $67 reversed single #
face $-1 $68 $69 $36 $-1 $70 forward single #
face $-1 $71 $72 $37 $-1 $73 forward single #
face $-1 $74 $75 $38 $-1 $76 reversed single #
face $-1 $77 $78 $39 $-1 $79 forward single #
face $-1 $80 $81 $30 $-1 $82 reversed single #
loop $-1 $-1 $83 $40 #
plane-surface $-1 0 0 21.621641402070797 0 0 1 1 0 0 forward_v I I I I #
face $-1 $84 $85 $31 $-1 $86 reversed single #
loop $-1 $-1 $87 $41 #
plane-surface $-1 0 -45.592550746922562 0 0 1 0 0 0 1 forward_v I I I I #
face $-1 $88 $89 $32 $-1 $90 reversed single #
loop $-1 $-1 $91 $42 #
plane-surface $-1 139.62146268785978 9.8729613021046596 228.49523307234423 0 -1 0 -0.87461971476443456 0 -0.48480960649040278 forward_v I I I I #
face $-1 $92 $93 $33 $-1 $94 forward single #
loop $-1 $95 $96 $43 #
cone-surface $-1 76.234537781874536 4.0885334572855498 18.160967218682131 -0.87461971476443456 0 -0.48480960649040278 0.12120240162260069 0 -0.21865492869110864 1 I I 0 1 0.25 forward I I I I #
face $-1 $97 $98 $34 $-1 $99 forward single #
loop $-1 $100 $101 $44 #
cone-surface $-1 76.234537781874536 7.5591901641770178 18.160967218682131 -0.87461971476443456 0 -0.48480960649040278 0.12120240162260069 0 -0.21865492869110864 1 I I 0 1 0.25 forward I I I I #
face $-1 $102 $103 $35 $-1 $104 reversed single #
loop $-1 $-1 $105 $45 #
plane-surface $-1 139.62146268785978 37.494351764175804 228.49523307234423 0 1 0 0.87461971476443456 0 0.48480960649040278 forward_v I I I I #
face $-1 $106 $107 $36 $-1 $108 forward single #
loop $-1 $109 $110 $46 #
cone-surface $-1 76.234537781874536 39.808122902103442 18.160967218682131 -0.87461971476443456 0 -0.48480960649040278 0.12120240162260069 0 -0.21865492869110864 1 I I 0 1 0.25 forward I I I I #
face $-1 $111 $112 $37 $-1 $113 forward single #
loop $-1 $114 $115 $47 #
cone-surface $-1 76.234537781874536 43.278779608994917 18.160967218682131 -0.87461971476443456 0 -0.48480960649040278 0.12120240162260069 0 -0.21865492869110864 1 I I 0 1 0.25 forward I I I I #
face $-1 $116 $117 $38 $-1 $118 reversed single #
loop $-1 $-1 $119 $48 #
plane-surface $-1 -202.10373523130818 -6.6250450650547421 99.433969751159907 0 1 0 -0.78801076186113728 0 0.61566146476048833 forward_v I I I I #
face $-1 $120 $121 $39 $-1 $122 forward single #
loop $-1 $123 $124 $49 #
cone-surface $-1 -67.416150747947242 -1.1543349106671386 9.3359268053716242 0.78801076186113728 0 -0.61566146476048833 1.5391536619012207 0 1.9700269046528431 1 I I 0 1 2.5 forward I I I I #
face $-1 $125 $126 $30 $-1 $127 reversed single #
loop $-1 $-1 $128 $50 #
plane-surface $-1 0 0 -21.621641402070797 0 0 1 1 0 0 forward_v I I I I #
coedge $-1 $129 $130 $131 $132 forward $51 $-1 #
face $-1 $133 $134 $31 $-1 $135 forward single #
loop $-1 $-1 $136 $53 #
plane-surface $-1 -78.455763420514543 0 0 1 0 0 0 0 -1 forward_v I I I I #
coedge $-1 $137 $138 $139 $140 forward $54 $-1 #
face $-1 $141 $142 $32 $-1 $143 reversed single #
loop $-1 $-1 $144 $56 #
plane-surface $-1 2.383547838906992 5.8238618107312803 152.42301749073664 0.87461971476443456 0 0.48480960649040278 0.48480960649040278 0 -0.87461971476443456 forward_v I I I I #
coedge $-1 $145 $146 $147 $148 reversed $57 $-1 #
face $-1 $-1 $149 $33 $-1 $150 forward single #
loop $-1 $151 $152 $59 #
cone-surface $-1 75.687900460146764 4.0885334572855498 17.857961214625629 -0.87461971476443456 0 -0.48480960649040278 0.060601200811300347 0 -0.10932746434555432 1 I I -0.70710678118654746 0.70710678118654746 0.125 forward I I I I #
loop $-1 $-1 $153 $43 #
coedge $-1 $96 $96 $154 $155 reversed $60 $-1 #
face $-1 $-1 $156 $34 $-1 $157 forward single #
loop $-1 $158 $159 $62 #
cone-surface $-1 75.687900460146764 7.5591901641770178 17.857961214625629 -0.87461971476443456 0 -0.48480960649040278 0.060601200811300347 0 -0.10932746434555432 1 I I -0.70710678118654746 0.70710678118654746 0.125 forward I I I I #
loop $-1 $-1 $160 $44 #
coedge $-1 $101 $101 $161 $162 reversed $63 $-1 #
face $-1 $163 $164 $35 $-1 $165 reversed single #
loop $-1 $-1 $166 $65 #
plane-surface $-1 2.383547838906992 41.543451255549179 152.42301749073664 0.87461971476443456 0 0.48480960649040278 0.48480960649040278 0 -0.87461971476443456 forward_v I I I I #
coedge $-1 $167 $168 $169 $170 reversed $66 $-1 #
face $-1 $-1 $171 $36 $-1 $172 forward single #
loop $-1 $173 $174 $68 #
cone-surface $-1 75.687900460146764 39.808122902103442 17.857961214625629 -0.87461971476443456 0 -0.48480960649040278 0.060601200811300347 0 -0.10932746434555432 1 I I -0.70710678118654746 0.70710678118654746 0.125 forward I I I I #
loop $-1 $-1 $175 $46 #
coedge $-1 $110 $110 $176 $177 reversed $69 $-1 #
face $-1 $-1 $178 $37 $-1 $179 forward single #
loop $-1 $180 $181 $71 #
cone-surface $-1 75.687900460146764 43.278779608994917 17.857961214625629 -0.87461971476443456 0 -0.48480960649040278 0.060601200811300347 0 -0.10932746434555432 1 I I -0.70710678118654746 0.70710678118654746 0.125 forward I I I I #
loop $-1 $-1 $182 $47 #
coedge $-1 $115 $115 $183 $184 reversed $72 $-1 #
face $-1 $185 $186 $38 $-1 $187 reversed single #
loop $-1 $-1 $188 $74 #
plane-surface $-1 -78.455763420514558 -1.1543349106671386 2.8295892984072566 -0.78801076186113728 0 0.61566146476048833 0.61566146476048833 0 0.78801076186113728 forward_v I I I I #
coedge $-1 $189 $190 $191 $192 reversed $75 $-1 #
face $-1 $-1 $193 $39 $-1 $194 forward single #
loop $-1 $195 $196 $77 #
cone-surface $-1 -62.732504520759349 -1.1543349106671386 5.676661429553608 0.78801076186113728 0 -0.61566146476048833 0.76957683095061036 0 0.98501345232642157 1 I I -0.70710678118654746 0.70710678118654746 1.25 forward I I I I #
loop $-1 $-1 $197 $49 #
coedge $-1 $124 $124 $198 $199 reversed $78 $-1 #
face $-1 $200 $201 $30 $-1 $202 reversed single #
loop $-1 $-1 $203 $80 #
plane-surface $-1 0 -45.592550746922562 0 0 1 0 0 0 1 forward_v I I I I #
coedge $-1 $204 $205 $206 $207 forward $81 $-1 #
coedge $-1 $208 $83 $209 $210 forward $51 $-1 #
coedge $-1 $83 $208 $211 $212 forward $51 $-1 #
coedge $-1 $213 $214 $83 $132 reversed $215 $-1 #
edge $-1 $216 -45.592550746922562 $217 45.592550746922562 $131 $218 forward 7 unknown #
face $-1 $219 $220 $31 $-1 $221 reversed single #
loop $-1 $-1 $222 $84 #
plane-surface $-1 0 -55.465512049027232 3.0372534828315931 0 0 1 1 0 0 forward_v I I I I #
coedge $-1 $223 $224 $138 $225 forward $85 $-1 #
coedge $-1 $226 $87 $227 $228 reversed $54 $-1 #
coedge $-1 $87 $226 $136 $225 reversed $54 $-1 #
coedge $-1 $229 $222 $87 $140 reversed $134 $-1 #
edge $-1 $230 -78.455763420514543 $231 78.455763420514543 $139 $232 forward 7 unknown #
face $-1 $233 $234 $32 $-1 $235 reversed single #
loop $-1 $-1 $236 $88 #
plane-surface $-1 139.62146268785978 1.774762319357901 228.49523307234423 0 1 0 0.87461971476443456 0 0.48480960649040278 forward_v I I I I #
coedge $-1 $237 $238 $239 $240 reversed $89 $-1 #
coedge $-1 $146 $91 $241 $242 reversed $57 $-1 #
coedge $-1 $91 $145 $237 $243 reversed $57 $-1 #
coedge $-1 $239 $244 $91 $148 forward $245 $-1 #
edge $-1 $246 -8.6450320765846556 $247 -5.0772005140690908 $147 $248 forward 7 unknown #
loop $-1 $-1 $154 $92 #
plane-surface $-1 2.383547838906992 5.8238618107312803 152.42301749073664 0.87461971476443456 0 0.48480960649040278 0.48480960649040278 0 -0.87461971476443456 forward_v I I I I #
loop $-1 $-1 $249 $59 #
coedge $-1 $152 $152 $153 $250 reversed $93 $-1 #
coedge $-1 $153 $153 $152 $250 forward $95 $-1 #
coedge $-1 $154 $154 $96 $155 forward $149 $-1 #
edge $-1 $251 0 $251 6.2831853071796004 $154 $252 forward 7 unknown #
loop $-1 $-1 $161 $97 #
plane-surface $-1 2.383547838906992 5.8238618107312803 152.42301749073664 0.87461971476443456 0 0.48480960649040278 0.48480960649040278 0 -0.87461971476443456 forward_v I I I I #
loop $-1 $-1 $253 $62 #
coedge $-1 $159 $159 $160 $254 reversed $98 $-1 #
coedge $-1 $160 $160 $159 $254 forward $100 $-1 #
coedge $-1 $161 $161 $101 $162 forward $156 $-1 #
edge $-1 $255 0 $255 6.2831853071796004 $161 $256 forward 7 unknown #
face $-1 $257 $258 $35 $-1 $259 forward single #
loop $-1 $-1 $169 $102 #
plane-surface $-1 78.455763420514543 0 0 -1 0 0 0 0 1 forward_v I I I I #
coedge $-1 $260 $261 $262 $263 reversed $103 $-1 #
coedge $-1 $168 $105 $264 $265 reversed $66 $-1 #
coedge $-1 $105 $167 $260 $266 reversed $66 $-1 #
coedge $-1 $262 $267 $105 $170 forward $164 $-1 #
edge $-1 $268 92.625975134101324 $269 99.062513894388204 $169 $270 forward 7 unknown #
loop $-1 $-1 $176 $106 #
plane-surface $-1 2.383547838906992 41.543451255549179 152.42301749073664 0.87461971476443456 0 0.48480960649040278 0.48480960649040278 0 -0.87461971476443456 forward_v I I I I #
loop $-1 $-1 $271 $68 #
coedge $-1 $174 $174 $175 $272 reversed $107 $-1 #
coedge $-1 $175 $175 $174 $272 forward $109 $-1 #
coedge $-1 $176 $176 $110 $177 forward $171 $-1 #
edge $-1 $273 0 $273 6.2831853071796004 $176 $274 forward 7 unknown #
loop $-1 $-1 $183 $111 #
plane-surface $-1 2.383547838906992 41.543451255549179 152.42301749073664 0.87461971476443456 0 0.48480960649040278 0.48480960649040278 0 -0.87461971476443456 forward_v I I I I #
loop $-1 $-1 $275 $71 #
coedge $-1 $181 $181 $182 $276 reversed $112 $-1 #
coedge $-1 $182 $182 $181 $276 forward $114 $-1 #
coedge $-1 $183 $183 $115 $184 forward $178 $-1 #
edge $-1 $277 0 $277 6.2831853071796004 $183 $278 forward 7 unknown #
face $-1 $279 $280 $38 $-1 $281 reversed single #
loop $-1 $-1 $282 $116 #
plane-surface $-1 -202.10373523130818 4.316375243720465 99.433969751159907 0 -1 0 0.78801076186113728 0 -0.61566146476048833 forward_v I I I I #
coedge $-1 $283 $284 $285 $286 reversed $117 $-1 #
coedge $-1 $190 $119 $287 $288 reversed $75 $-1 #
coedge $-1 $119 $189 $283 $289 reversed $75 $-1 #
coedge $-1 $285 $290 $119 $192 forward $291 $-1 #
edge $-1 $292 22.596104195139546 $293 37.278063990551168 $191 $294 forward 7 unknown #
loop $-1 $-1 $198 $120 #
plane-surface $-1 -78.455763420514558 -1.1543349106671386 2.8295892984072566 -0.78801076186113728 0 0.61566146476048833 0.61566146476048833 0 0.78801076186113728 forward_v I I I I #
loop $-1 $-1 $295 $77 #
coedge $-1 $196 $196 $197 $296 reversed $121 $-1 #
coedge $-1 $197 $197 $196 $296 forward $123 $-1 #
coedge $-1 $198 $198 $124 $199 forward $193 $-1 #
edge $-1 $297 0 $297 6.2831853071796004 $198 $298 forward 7 unknown #
face $-1 $299 $300 $30 $-1 $301 reversed single #
loop $-1 $-1 $302 $125 #
plane-surface $-1 -78.455763420514543 0 0 1 0 0 0 0 -1 forward_v I I I I #
coedge $-1 $303 $211 $304 $305 forward $126 $-1 #
coedge $-1 $306 $128 $303 $307 forward $81 $-1 #
coedge $-1 $128 $306 $308 $309 forward $81 $-1 #
coedge $-1 $214 $213 $128 $207 reversed $215 $-1 #
edge $-1 $310 -45.592550746922562 $311 45.592550746922562 $206 $312 forward 7 unknown #
coedge $-1 $130 $129 $313 $314 forward $51 $-1 #
coedge $-1 $315 $316 $129 $210 reversed $300 $-1 #
edge $-1 $217 -78.455763420514543 $317 78.455763420514543 $209 $318 forward 7 unknown #
coedge $-1 $203 $319 $130 $212 reversed $126 $-1 #
edge $-1 $320 -78.455763420514543 $216 78.455763420514543 $211 $321 forward 7 unknown #
coedge $-1 $206 $131 $319 $322 forward $215 $-1 #
coedge $-1 $131 $206 $315 $323 reversed $215 $-1 #
loop $-1 $-1 $213 $299 #
vertex $-1 $132 $324 #
vertex $-1 $132 $325 #
straight-curve $-1 78.455763420514543 0 21.621641402070797 0 1 0 I I #
face $-1 $326 $327 $31 $-1 $328 reversed single #
loop $-1 $-1 $329 $133 #
plane-surface $-1 0 -55.465512049027232 -2.3874577805255637 0 0 1 1 0 0 forward_v I I I I #
coedge $-1 $139 $330 $331 $332 forward $134 $-1 #
coedge $-1 $333 $136 $334 $335 reversed $85 $-1 #
coedge $-1 $136 $333 $229 $336 reversed $85 $-1 #
edge $-1 $230 -3.0372534828315931 $337 2.3874577805255637 $136 $338 forward 7 unknown #
coedge $-1 $138 $137 $339 $340 forward $54 $-1 #
coedge $-1 $331 $341 $137 $228 forward $342 $-1 #
edge $-1 $343 -2.3874577805255637 $231 3.0372534828315931 $227 $344 forward 7 unknown #
coedge $-1 $330 $139 $224 $336 forward $134 $-1 #
vertex $-1 $225 $345 #
vertex $-1 $332 $346 #
straight-curve $-1 0 -45.592550746922562 3.0372534828315931 1 0 0 I I #
face $-1 $-1 $245 $32 $-1 $347 forward single #
loop $-1 $-1 $348 $141 #
plane-surface $-1 78.455763420514543 0 0 -1 0 0 0 0 1 forward_v I I I I #
coedge $-1 $349 $350 $351 $352 reversed $142 $-1 #
coedge $-1 $353 $144 $146 $243 forward $89 $-1 #
coedge $-1 $144 $353 $349 $354 forward $89 $-1 #
coedge $-1 $351 $147 $144 $240 forward $245 $-1 #
edge $-1 $247 -6.9610303967390195 $355 1.1371685860077392 $239 $356 forward 7 unknown #
coedge $-1 $357 $358 $145 $242 forward $234 $-1 #
edge $-1 $359 -99.062513894388204 $246 -92.625975134101324 $241 $360 forward 7 unknown #
edge $-1 $247 149.5522841305895 $359 156.91152684102903 $146 $361 forward 7 unknown #
coedge $-1 $147 $351 $357 $362 forward $245 $-1 #
loop $-1 $-1 $351 $233 #
vertex $-1 $242 $363 #
vertex $-1 $148 $364 #
straight-curve $-1 69.810731343929888 9.8729613021046596 21.621641402070793 -1 0 0 I I #
coedge $-1 $249 $249 $-1 $365 reversed $151 $-1 #
edge $-1 $366 0 $366 6.2831853071796004 $152 $367 forward 7 unknown #
vertex $-1 $155 $368 #
ellipse-curve $-1 76.671847639256782 4.0885334572855498 18.403372021927346 0.87461971476443456 0 0.48480960649040278 0.12120240162260069 0 -0.21865492869110864 1 I I #
coedge $-1 $253 $253 $-1 $369 reversed $158 $-1 #
edge $-1 $370 0 $370 6.2831853071796004 $159 $371 forward 7 unknown #
vertex $-1 $162 $372 #
ellipse-curve $-1 76.671847639256782 7.5591901641770178 18.403372021927346 0.87461971476443456 0 0.48480960649040278 0.12120240162260069 0 -0.21865492869110864 1 I I #
face $-1 $-1 $373 $35 $-1 $374 reversed single #
loop $-1 $-1 $264 $163 #
plane-surface $-1 0 0 21.621641402070797 0 0 1 1 0 0 forward_v I I I I #
coedge $-1 $375 $166 $168 $266 forward $103 $-1 #
coedge $-1 $166 $375 $376 $377 reversed $103 $-1 #
coedge $-1 $378 $169 $166 $263 forward $164 $-1 #
edge $-1 $269 16.722626136401214 $379 24.820825119147973 $262 $380 forward 7 unknown #
coedge $-1 $381 $382 $167 $265 forward $258 $-1 #
edge $-1 $383 5.0772005140690908 $268 8.6450320765846556 $264 $384 forward 7 unknown #
edge $-1 $269 -156.91152684102903 $383 -149.5522841305895 $168 $385 forward 7 unknown #
coedge $-1 $169 $378 $381 $386 reversed $164 $-1 #
vertex $-1 $386 $387 #
vertex $-1 $170 $388 #
straight-curve $-1 78.455763420514543 37.494351764175804 114.24761653617212 0 0 -1 I I #
coedge $-1 $271 $271 $-1 $389 reversed $173 $-1 #
edge $-1 $390 0 $390 6.2831853071796004 $174 $391 forward 7 unknown #
vertex $-1 $177 $392 #
ellipse-curve $-1 76.671847639256782 39.808122902103442 18.403372021927346 0.87461971476443456 0 0.48480960649040278 0.12120240162260069 0 -0.21865492869110864 1 I I #
coedge $-1 $275 $275 $-1 $393 reversed $180 $-1 #
edge $-1 $394 0 $394 6.2831853071796004 $181 $395 forward 7 unknown #
vertex $-1 $184 $396 #
ellipse-curve $-1 76.671847639256782 43.278779608994917 18.403372021927346 0.87461971476443456 0 0.48480960649040278 0.12120240162260069 0 -0.21865492869110864 1 I I #
face $-1 $-1 $291 $38 $-1 $397 forward single #
loop $-1 $-1 $398 $185 #
plane-surface $-1 -78.455763420514543 0 0 1 0 0 0 0 -1 forward_v I I I I #
coedge $-1 $399 $400 $401 $402 reversed $186 $-1 #
coedge $-1 $403 $188 $190 $289 forward $117 $-1 #
coedge $-1 $188 $403 $399 $404 forward $117 $-1 #
coedge $-1 $401 $191 $188 $286 forward $291 $-1 #
edge $-1 $293 -6.0478776097211728 $405 4.8935426990540343 $285 $406 forward 7 unknown #
coedge $-1 $407 $408 $189 $288 forward $280 $-1 #
edge $-1 $409 -46.887395577172676 $292 -28.095343473509157 $287 $410 forward 7 unknown #
edge $-1 $293 -23.847456168339821 $409 -2.3096905769578348e-014 $190 $411 forward 7 unknown #
coedge $-1 $191 $401 $407 $412 forward $291 $-1 #
loop $-1 $-1 $401 $279 #
vertex $-1 $288 $413 #
vertex $-1 $192 $414 #
straight-curve $-1 -101.05186761565409 -6.6250450650547421 21.621641402070793 1 0 0 I I #
coedge $-1 $295 $295 $-1 $415 reversed $195 $-1 #
edge $-1 $416 0 $416 6.2831853071796004 $196 $417 forward 7 unknown #
vertex $-1 $199 $418 #
ellipse-curve $-1 -71.114783522808736 -1.1543349106671386 12.225615350239039 -0.78801076186113728 0 0.61566146476048833 1.5391536619012207 0 1.9700269046528431 1 I I #
face $-1 $-1 $215 $30 $-1 $419 reversed single #
loop $-1 $-1 $315 $200 #
plane-surface $-1 0 45.592550746922562 0 0 -1 0 0 0 -1 forward_v I I I I #
coedge $-1 $420 $313 $316 $421 forward $201 $-1 #
coedge $-1 $319 $203 $204 $307 reversed $126 $-1 #
coedge $-1 $313 $420 $203 $305 reversed $201 $-1 #
edge $-1 $320 -21.621641402070797 $422 21.621641402070797 $304 $423 forward 7 unknown #
coedge $-1 $205 $204 $420 $424 forward $81 $-1 #
edge $-1 $311 -78.455763420514543 $422 78.455763420514543 $303 $425 forward 7 unknown #
coedge $-1 $316 $315 $205 $309 reversed $300 $-1 #
edge $-1 $426 -78.455763420514543 $310 78.455763420514543 $308 $427 forward 7 unknown #
vertex $-1 $207 $428 #
vertex $-1 $322 $429 #
straight-curve $-1 78.455763420514543 0 -21.621641402070797 0 -1 0 I I #
coedge $-1 $302 $304 $208 $314 reversed $201 $-1 #
edge $-1 $317 -45.592550746922562 $320 45.592550746922562 $313 $430 forward 7 unknown #
coedge $-1 $308 $209 $214 $323 forward $300 $-1 #
coedge $-1 $209 $308 $302 $421 reversed $300 $-1 #
vertex $-1 $210 $431 #
straight-curve $-1 0 45.592550746922562 21.621641402070797 -1 0 0 I I #
coedge $-1 $211 $303 $213 $322 reversed $126 $-1 #
vertex $-1 $314 $432 #
straight-curve $-1 0 -45.592550746922562 21.621641402070797 1 0 0 I I #
edge $-1 $216 -21.621641402070797 $311 21.621641402070797 $213 $433 forward 7 unknown #
edge $-1 $217 -21.621641402070797 $310 21.621641402070797 $214 $434 forward 7 unknown #
point $-1 78.455763420514543 -45.592550746922562 21.621641402070797 #
point $-1 78.455763420514543 45.592550746922562 21.621641402070797 #
face $-1 $-1 $342 $31 $-1 $435 reversed single #
loop $-1 $-1 $436 $219 #
plane-surface $-1 0 -65.338473351131896 0.32489785115301473 0 1 0 0 0 1 forward_v I I I I #
coedge $-1 $437 $339 $341 $438 forward $220 $-1 #
coedge $-1 $222 $229 $439 $440 forward $134 $-1 #
coedge $-1 $441 $227 $222 $332 reversed $342 $-1 #
edge $-1 $442 -9.8729613021046632 $231 9.8729613021046703 $331 $443 forward 7 unknown #
coedge $-1 $224 $223 $436 $444 reversed $85 $-1 #
coedge $-1 $339 $437 $223 $335 forward $220 $-1 #
edge $-1 $445 -9.8729613021046632 $337 9.8729613021046703 $223 $446 forward 7 unknown #
edge $-1 $230 -9.8729613021046703 $447 9.8729613021046632 $224 $448 forward 7 unknown #
vertex $-1 $225 $449 #
straight-curve $-1 -78.455763420514543 -45.592550746922562 0 0 0 -1 I I #
coedge $-1 $329 $334 $226 $340 reversed $220 $-1 #
edge $-1 $343 -78.455763420514543 $337 78.455763420514543 $339 $450 forward 7 unknown #
coedge $-1 $227 $441 $329 $438 reversed $342 $-1 #
loop $-1 $-1 $227 $326 #
vertex $-1 $228 $451 #
straight-curve $-1 78.455763420514543 -45.592550746922562 0 0 0 1 I I #
point $-1 -78.455763420514543 -45.592550746922562 3.0372534828315931 #
point $-1 78.455763420514543 -45.592550746922562 3.0372534828315931 #
plane-surface $-1 0 0 21.621641402070797 0 0 1 1 0 0 forward_v I I I I #
coedge $-1 $358 $357 $350 $452 forward $234 $-1 #
coedge $-1 $350 $236 $238 $354 reversed $142 $-1 #
coedge $-1 $236 $349 $348 $452 reversed $142 $-1 #
coedge $-1 $244 $239 $236 $352 forward $245 $-1 #
edge $-1 $355 5.0772005140690908 $453 8.6450320765846556 $351 $454 forward 7 unknown #
coedge $-1 $238 $237 $358 $455 reversed $89 $-1 #
edge $-1 $456 -156.91152684102903 $355 -149.5522841305895 $349 $457 forward 7 unknown #
vertex $-1 $240 $458 #
straight-curve $-1 74.887931857998979 2.9119309053656401 21.621641402070807 0 -1 0 I I #
coedge $-1 $348 $241 $244 $362 reversed $234 $-1 #
coedge $-1 $241 $348 $353 $455 forward $234 $-1 #
vertex $-1 $242 $459 #
straight-curve $-1 78.455763420514543 9.8729613021046596 114.24761653617212 0 0 1 I I #
straight-curve $-1 2.383547838906992 9.8729613021046596 152.42301749073664 0.48480960649040278 0 -0.87461971476443456 I I #
edge $-1 $453 1.774762319357901 $246 9.8729613021046596 $357 $460 forward 7 unknown #
point $-1 78.455763420514543 9.8729613021046596 21.621641402070797 #
point $-1 74.887931857998979 9.8729613021046596 21.621641402070793 #
edge $-1 $461 1 $461 0 $249 $-1 forward 7 unknown #
vertex $-1 $250 $462 #
ellipse-curve $-1 75.797227924492319 4.0885334572855498 17.918562415436931 0.87461971476443456 0 0.48480960649040278 0.12120240162260069 0 -0.21865492869110864 1 I I #
point $-1 76.793050040879351 4.0885334572855498 18.184717093236223 #
edge $-1 $463 1 $463 0 $253 $-1 forward 7 unknown #
vertex $-1 $254 $464 #
ellipse-curve $-1 75.797227924492319 7.5591901641770178 17.918562415436931 0.87461971476443456 0 0.48480960649040278 0.12120240162260069 0 -0.21865492869110864 1 I I #
point $-1 76.793050040879351 7.5591901641770178 18.184717093236223 #
loop $-1 $-1 $376 $257 #
plane-surface $-1 0 45.592550746922562 0 0 -1 0 0 0 -1 forward_v I I I I #
coedge $-1 $261 $260 $382 $465 reversed $103 $-1 #
coedge $-1 $466 $467 $261 $377 forward $373 $-1 #
edge $-1 $379 -90.833222245303546 $468 -83.473979534864014 $376 $469 forward 7 unknown #
coedge $-1 $267 $262 $467 $470 reversed $164 $-1 #
vertex $-1 $263 $471 #
straight-curve $-1 78.455763420514543 20.77172562777459 15.185102641783935 0 1 0 I I #
coedge $-1 $472 $264 $267 $386 forward $258 $-1 #
coedge $-1 $264 $472 $375 $465 forward $258 $-1 #
vertex $-1 $265 $473 #
straight-curve $-1 69.810731343929888 37.494351764175804 21.621641402070793 1 0 0 I I #
straight-curve $-1 2.383547838906992 37.494351764175804 152.42301749073664 -0.48480960649040278 0 0.87461971476443456 I I #
edge $-1 $268 37.494351764175804 $474 45.592550746922562 $267 $475 forward 7 unknown #
point $-1 78.455763420514543 37.494351764175804 21.621641402070797 #
point $-1 78.455763420514543 37.494351764175804 15.185102641783914 #
edge $-1 $476 1 $476 0 $271 $-1 forward 7 unknown #
vertex $-1 $272 $477 #
ellipse-curve $-1 75.797227924492319 39.808122902103442 17.918562415436931 0.87461971476443456 0 0.48480960649040278 0.12120240162260069 0 -0.21865492869110864 1 I I #
point $-1 76.793050040879351 39.808122902103442 18.184717093236223 #
edge $-1 $478 1 $478 0 $275 $-1 forward 7 unknown #
vertex $-1 $276 $479 #
ellipse-curve $-1 75.797227924492319 43.278779608994917 17.918562415436931 0.87461971476443456 0 0.48480960649040278 0.12120240162260069 0 -0.21865492869110864 1 I I #
point $-1 76.793050040879351 43.278779608994917 18.184717093236223 #
plane-surface $-1 0 0 21.621641402070797 0 0 1 1 0 0 forward_v I I I I #
coedge $-1 $408 $407 $400 $480 forward $280 $-1 #
coedge $-1 $400 $282 $284 $404 reversed $186 $-1 #
coedge $-1 $282 $399 $398 $480 reversed $186 $-1 #
coedge $-1 $290 $285 $282 $402 forward $291 $-1 #
edge $-1 $405 -37.278063990551168 $481 -22.596104195139546 $401 $482 forward 7 unknown #
coedge $-1 $284 $283 $408 $483 reversed $117 $-1 #
edge $-1 $484 2.3096905769578348e-014 $405 23.847456168339821 $399 $485 forward 7 unknown #
vertex $-1 $286 $486 #
straight-curve $-1 -63.773803625102921 -0.57716745533356928 21.621641402070797 0 1 0 I I #
coedge $-1 $398 $287 $290 $412 reversed $280 $-1 #
coedge $-1 $287 $398 $403 $483 forward $280 $-1 #
vertex $-1 $288 $487 #
straight-curve $-1 -78.455763420514543 -6.6250450650547421 49.716984875579953 0 0 1 I I #
straight-curve $-1 -78.455763420514558 -6.6250450650547421 2.8295892984072566 -0.61566146476048833 0 -0.78801076186113728 I I #
edge $-1 $481 -4.316375243720465 $292 6.6250450650547421 $407 $488 forward 7 unknown #
point $-1 -78.455763420514543 -6.6250450650547421 21.621641402070797 #
point $-1 -63.773803625102921 -6.6250450650547421 21.621641402070797 #
edge $-1 $489 1 $489 0 $295 $-1 forward 7 unknown #
vertex $-1 $296 $490 #
ellipse-curve $-1 -63.717517973085769 -1.1543349106671386 6.4462382605042183 -0.78801076186113728 0 0.61566146476048833 1.5391536619012207 0 1.9700269046528431 1 I I #
point $-1 -69.575629860907497 -1.1543349106671386 14.195642254891872 #
plane-surface $-1 78.455763420514543 0 0 -1 0 0 0 0 1 forward_v I I I I #
coedge $-1 $304 $302 $306 $424 reversed $201 $-1 #
edge $-1 $317 -21.621641402070797 $426 21.621641402070797 $316 $491 forward 7 unknown #
vertex $-1 $424 $492 #
straight-curve $-1 -78.455763420514543 -45.592550746922562 0 0 0 -1 I I #
edge $-1 $422 -45.592550746922562 $426 45.592550746922562 $420 $493 forward 7 unknown #
straight-curve $-1 0 -45.592550746922562 -21.621641402070797 -1 0 0 I I #
vertex $-1 $309 $494 #
straight-curve $-1 0 45.592550746922562 -21.621641402070797 1 0 0 I I #
point $-1 78.455763420514543 45.592550746922562 -21.621641402070797 #
point $-1 78.455763420514543 -45.592550746922562 -21.621641402070797 #
straight-curve $-1 -78.455763420514543 0 21.621641402070797 0 -1 0 I I #
point $-1 -78.455763420514543 45.592550746922562 21.621641402070797 #
point $-1 -78.455763420514543 -45.592550746922562 21.621641402070797 #
straight-curve $-1 78.455763420514543 -45.592550746922562 0 0 0 -1 I I #
straight-curve $-1 78.455763420514543 45.592550746922562 0 0 0 -1 I I #
plane-surface $-1 78.455763420514543 0 0 -1 0 0 0 0 1 forward_v I I I I #
coedge $-1 $495 $439 $333 $444 forward $327 $-1 #
coedge $-1 $334 $329 $495 $496 forward $220 $-1 #
edge $-1 $343 -9.8729613021046703 $497 9.8729613021046632 $341 $498 forward 7 unknown #
coedge $-1 $436 $499 $330 $440 reversed $327 $-1 #
edge $-1 $447 -78.455763420514543 $442 78.455763420514543 $439 $500 forward 7 unknown #
coedge $-1 $341 $331 $499 $501 forward $342 $-1 #
vertex $-1 $332 $502 #
straight-curve $-1 78.455763420514543 -55.465512049027232 3.0372534828315931 0 1 0 I I #
edge $-1 $447 -2.7123556316785784 $445 2.7123556316785784 $333 $503 forward 7 unknown #
vertex $-1 $335 $504 #
straight-curve $-1 -78.455763420514543 -55.465512049027232 -2.3874577805255637 0 1 0 I I #
vertex $-1 $336 $505 #
straight-curve $-1 -78.455763420514543 -55.465512049027232 3.0372534828315931 0 -1 0 I I #
point $-1 -78.455763420514543 -45.592550746922562 -2.3874577805255637 #
straight-curve $-1 0 -45.592550746922562 -2.3874577805255637 -1 0 0 I I #
point $-1 78.455763420514543 -45.592550746922562 -2.3874577805255637 #
edge $-1 $453 92.625975134101324 $456 99.062513894388204 $348 $506 forward 7 unknown #
vertex $-1 $362 $507 #
straight-curve $-1 69.810731343929888 1.774762319357901 21.621641402070793 1 0 0 I I #
edge $-1 $456 -1.1371685860077392 $359 6.9610303967390195 $358 $508 forward 7 unknown #
vertex $-1 $455 $509 #
straight-curve $-1 2.383547838906992 1.774762319357901 152.42301749073664 -0.48480960649040278 0 0.87461971476443456 I I #
point $-1 74.887931857998979 1.774762319357901 21.621641402070793 #
point $-1 78.455763420514543 9.8729613021046596 15.185102641783914 #
straight-curve $-1 78.455763420514543 0 21.621641402070797 0 1 0 I I #
vertex $-1 $365 $510 #
point $-1 75.918430326114915 4.0885334572855498 17.699907486745822 #
vertex $-1 $369 $511 #
point $-1 75.918430326114915 7.5591901641770178 17.699907486745822 #
edge $-1 $468 -24.820825119147965 $383 -16.722626136401214 $382 $512 forward 7 unknown #
coedge $-1 $467 $376 $472 $513 reversed $373 $-1 #
coedge $-1 $376 $466 $378 $470 forward $373 $-1 #
vertex $-1 $377 $514 #
straight-curve $-1 34.418944687513637 45.592550746922562 94.629629573105802 -0.48480960649040278 0 0.87461971476443456 I I #
edge $-1 $474 -21.621641402070797 $379 -15.18510264178393 $378 $515 forward 7 unknown #
point $-1 78.455763420514543 45.592550746922562 15.18510264178393 #
coedge $-1 $382 $381 $466 $513 forward $258 $-1 #
point $-1 74.887931857998979 37.494351764175804 21.621641402070793 #
vertex $-1 $386 $516 #
straight-curve $-1 78.455763420514543 0 21.621641402070797 0 1 0 I I #
vertex $-1 $389 $517 #
point $-1 75.918430326114915 39.808122902103442 17.699907486745822 #
vertex $-1 $393 $518 #
point $-1 75.918430326114915 43.278779608994917 17.699907486745822 #
edge $-1 $481 28.095343473509157 $484 46.887395577172676 $398 $519 forward 7 unknown #
vertex $-1 $412 $520 #
straight-curve $-1 -101.05186761565409 4.316375243720465 21.621641402070793 -1 0 0 I I #
edge $-1 $484 -4.8935426990540343 $409 6.0478776097211728 $408 $521 forward 7 unknown #
vertex $-1 $483 $522 #
straight-curve $-1 -78.455763420514558 4.316375243720465 2.8295892984072566 0.61566146476048833 0 0.78801076186113728 I I #
point $-1 -63.773803625102921 4.316375243720465 21.621641402070797 #
point $-1 -78.455763420514543 -6.6250450650547421 2.8295892984072748 #
straight-curve $-1 -78.455763420514543 0 21.621641402070797 0 -1 0 I I #
vertex $-1 $415 $523 #
point $-1 -62.178364311184552 -1.1543349106671386 8.4162651651570606 #
straight-curve $-1 -78.455763420514543 45.592550746922562 0 0 0 -1 I I #
point $-1 -78.455763420514543 -45.592550746922562 -21.621641402070797 #
straight-curve $-1 -78.455763420514543 0 -21.621641402070797 0 1 0 I I #
point $-1 -78.455763420514543 45.592550746922562 -21.621641402070797 #
coedge $-1 $499 $436 $437 $496 reversed $327 $-1 #
edge $-1 $497 -78.455763420514543 $445 78.455763420514543 $495 $524 forward 7 unknown #
vertex $-1 $501 $525 #
straight-curve $-1 78.455763420514543 -55.465512049027232 -2.3874577805255637 0 -1 0 I I #
coedge $-1 $439 $495 $441 $501 reversed $327 $-1 #
straight-curve $-1 0 -65.338473351131896 3.0372534828315931 1 0 0 I I #
edge $-1 $442 -2.7123556316785784 $497 2.7123556316785784 $441 $526 forward 7 unknown #
point $-1 78.455763420514543 -65.338473351131896 3.0372534828315931 #
straight-curve $-1 -78.455763420514543 -65.338473351131896 0.32489785115301473 0 0 -1 I I #
point $-1 -78.455763420514543 -65.338473351131896 -2.3874577805255637 #
point $-1 -78.455763420514543 -65.338473351131896 3.0372534828315931 #
straight-curve $-1 78.455763420514543 1.774762319357901 114.24761653617212 0 0 -1 I I #
point $-1 78.455763420514543 1.774762319357901 21.621641402070797 #
straight-curve $-1 78.455763420514543 2.9119309053656401 15.185102641783935 0 1 0 I I #
point $-1 78.455763420514543 1.774762319357901 15.185102641783914 #
point $-1 75.57857299580121 4.0885334572855498 17.797360013814327 #
point $-1 75.57857299580121 7.5591901641770178 17.797360013814327 #
straight-curve $-1 74.887931857998979 20.77172562777459 21.621641402070807 0 -1 0 I I #
edge $-1 $474 -78.455763420514543 $468 -74.887931857998979 $466 $527 forward 7 unknown #
point $-1 74.887931857998979 45.592550746922555 21.621641402070793 #
straight-curve $-1 78.455763420514543 45.592550746922562 0 0 0 -1 I I #
point $-1 78.455763420514543 45.592550746922562 21.621641402070797 #
point $-1 75.57857299580121 39.808122902103442 17.797360013814327 #
point $-1 75.57857299580121 43.278779608994917 17.797360013814327 #
straight-curve $-1 -78.455763420514543 4.316375243720465 49.716984875579953 0 0 -1 I I #
point $-1 -78.455763420514543 4.316375243720465 21.621641402070797 #
straight-curve $-1 -78.455763420514543 -0.57716745533356928 2.8295892984072841 0 -1 0 I I #
point $-1 -78.455763420514543 4.316375243720465 2.8295892984072748 #
point $-1 -61.747491068432929 -1.1543349106671386 4.9070845986029976 #
straight-curve $-1 0 -65.338473351131896 -2.3874577805255637 -1 0 0 I I #
point $-1 78.455763420514543 -65.338473351131896 -2.3874577805255637 #
straight-curve $-1 78.455763420514543 -65.338473351131896 0.32489785115301473 0 0 -1 I I #
straight-curve $-1 0 45.592550746922562 21.621641402070797 -1 0 0 I I #
End-of-ACIS-data 