500 0 9 0           
7 Unknown 11 ACIS 5.0 NT 24 Thu Mar 25 17:06:35 1999 
-1 9.9999999999999995e-007 1e-010 
body $-1 $9 $-1 $10 #
body $-1 $11 $-1 $12 #
body $-1 $13 $-1 $14 #
body $-1 $15 $-1 $16 #
body $-1 $17 $-1 $18 #
body $-1 $19 $-1 $20 #
body $-1 $21 $-1 $22 #
body $-1 $23 $-1 $24 #
body $-1 $25 $-1 $26 #
lump $-1 $-1 $27 $0 #
transform $-1 1 0 0 0 1 0 0 0 1 61.653492843409531 25.644707033294655 10.434289471397779 1 rotate no_reflect no_shear #
lump $-1 $-1 $28 $1 #
transform $-1 1 0 0 0 1 0 0 0 1 61.653492843409531 25.644707033294655 10.434289471397779 1 rotate no_reflect no_shear #
lump $-1 $-1 $29 $2 #
transform $-1 1 0 0 0 1 0 0 0 1 61.653492843409531 25.644707033294655 10.434289471397779 1 rotate no_reflect no_shear #
lump $-1 $-1 $30 $3 #
transform $-1 1 0 0 0 1 0 0 0 1 61.653492843409531 25.644707033294655 10.434289471397779 1 rotate no_reflect no_shear #
lump $-1 $-1 $31 $4 #
transform $-1 1 0 0 0 1 0 0 0 1 61.653492843409531 25.644707033294655 10.434289471397779 1 rotate no_reflect no_shear #
lump $-1 $-1 $32 $5 #
transform $-1 1 0 0 0 1 0 0 0 1 61.653492843409531 25.644707033294655 10.434289471397779 1 rotate no_reflect no_shear #
lump $-1 $-1 $33 $6 #
transform $-1 1 0 0 0 1 0 0 0 1 61.653492843409531 25.644707033294655 10.434289471397779 1 rotate no_reflect no_shear #
lump $-1 $-1 $34 $7 #
transform $-1 1 0 0 0 1 0 0 0 1 61.653492843409531 25.644707033294655 10.434289471397779 1 rotate no_reflect no_shear #
lump $-1 $-1 $35 $8 #
transform $-1 1 0 0 0 1 0 0 0 1 61.653492843409531 25.644707033294655 10.434289471397779 1 rotate no_reflect no_shear #
shell $-1 $-1 $-1 $36 $-1 $9 #
shell $-1 $-1 $-1 $37 $-1 $11 #
shell $-1 $-1 $-1 $38 $-1 $13 #
shell $-1 $-1 $-1 $39 $-1 $15 #
shell $-1 $-1 $-1 $40 $-1 $17 #
shell $-1 $-1 $-1 $41 $-1 $19 #
shell $-1 $-1 $-1 $42 $-1 $21 #
shell $-1 $-1 $-1 $43 $-1 $23 #
shell $-1 $-1 $-1 $44 $-1 $25 #
face $-1 $45 $46 $27 $-1 $47 reversed single #
face $-1 $48 $49 $28 $-1 $50 forward single #
face $-1 $51 $52 $29 $-1 $53 forward single #
face $-1 $54 $55 $30 $-1 $56 reversed single #
face $-1 $57 $58 $31 $-1 $59 forward single #
face $-1 $60 $61 $32 $-1 $62 forward single #
face $-1 $63 $64 $33 $-1 $65 reversed single #
face $-1 $66 $67 $34 $-1 $68 forward single #
face $-1 $69 $70 $35 $-1 $71 forward single #
face $-1 $72 $73 $27 $-1 $74 forward single #
loop $-1 $-1 $75 $36 #
plane-surface $-1 0 -25.644707033294655 0 0 1 0 0 0 1 forward_v I I I I #
face $-1 $76 $77 $28 $-1 $78 reversed single #
loop $-1 $-1 $79 $37 #
plane-surface $-1 0 -25.644707033294655 0 0 1 0 0 0 1 forward_v I I I I #
face $-1 $80 $81 $29 $-1 $82 reversed single #
loop $-1 $-1 $83 $38 #
plane-surface $-1 0 25.644707033294655 0 0 -1 0 0 0 -1 forward_v I I I I #
face $-1 $84 $85 $30 $-1 $86 reversed single #
loop $-1 $-1 $87 $39 #
plane-surface $-1 -140.91369640487994 6.4832228329734072 99.529248225016445 0 1 0 -0.64278761758704617 0 0.76604443648966558 forward_v I I I I #
face $-1 $88 $89 $31 $-1 $90 forward single #
loop $-1 $91 $92 $40 #
cone-surface $-1 -58.136011644962032 8.8073084313029888 7.3694314471129987 0.64278761758704617 0 -0.76604443648966558 0.38302221824483279 0 0.32139380879352308 1 I I 0 1 0.5 forward I I I I #
face $-1 $93 $94 $32 $-1 $95 forward single #
loop $-1 $96 $97 $41 #
cone-surface $-1 -58.136011644962032 12.293436828797365 7.3694314471129987 0.64278761758704617 0 -0.76604443648966558 0.38302221824483279 0 0.32139380879352308 1 I I 0 1 0.5 forward I I I I #
face $-1 $98 $99 $33 $-1 $100 reversed single #
loop $-1 $-1 $101 $42 #
plane-surface $-1 46.455066039181396 -12.459038830112917 177.19627631518478 0 -1 0 -0.64278761758704617 0 -0.76604443648966558 forward_v I I I I #
face $-1 $102 $103 $34 $-1 $104 forward single #
loop $-1 $105 $106 $43 #
cone-surface $-1 57.186675369067231 -16.745779426992495 6.5728437114619398 -0.64278761758704617 0 -0.76604443648966558 0.1915111091224164 0 -0.16069690439676154 1 I I 0 1 0.25 forward I I I I #
face $-1 $107 $108 $35 $-1 $109 forward single #
loop $-1 $110 $111 $44 #
cone-surface $-1 57.186675369067231 -14.173735068864749 6.5728437114619398 -0.64278761758704617 0 -0.76604443648966558 0.1915111091224164 0 -0.16069690439676154 1 I I 0 1 0.25 forward I I I I #
face $-1 $112 $113 $27 $-1 $114 reversed single #
loop $-1 $-1 $115 $45 #
plane-surface $-1 0 0 10.434289471397779 0 0 1 1 0 0 forward_v I I I I #
coedge $-1 $116 $117 $118 $119 reversed $46 $-1 #
face $-1 $120 $121 $28 $-1 $122 reversed single #
loop $-1 $-1 $123 $48 #
plane-surface $-1 0 0 -10.434289471397779 0 0 1 1 0 0 forward_v I I I I #
coedge $-1 $124 $125 $126 $127 forward $49 $-1 #
face $-1 $128 $129 $29 $-1 $130 forward single #
loop $-1 $-1 $131 $51 #
plane-surface $-1 -61.653492843409531 0 0 1 0 0 0 0 -1 forward_v I I I I #
coedge $-1 $132 $133 $134 $135 forward $52 $-1 #
face $-1 $136 $137 $30 $-1 $138 reversed single #
loop $-1 $-1 $139 $54 #
plane-surface $-1 -61.653492843409524 10.55037263005018 5.0706178593178777 -0.64278761758704617 0 0.76604443648966558 0.76604443648966558 0 0.64278761758704617 forward_v I I I I #
coedge $-1 $140 $141 $142 $143 reversed $55 $-1 #
face $-1 $-1 $144 $31 $-1 $145 forward single #
loop $-1 $146 $147 $57 #
cone-surface $-1 -57.653920931771751 8.8073084313029888 6.7948981197457492 0.64278761758704617 0 -0.76604443648966558 0.1915111091224164 0 0.16069690439676154 1 I I -0.70710678118654746 0.70710678118654746 0.25 forward I I I I #
loop $-1 $-1 $148 $40 #
coedge $-1 $92 $92 $149 $150 reversed $58 $-1 #
face $-1 $-1 $151 $32 $-1 $152 forward single #
loop $-1 $153 $154 $60 #
cone-surface $-1 -57.653920931771751 12.293436828797365 6.7948981197457492 0.64278761758704617 0 -0.76604443648966558 0.1915111091224164 0 0.16069690439676154 1 I I -0.70710678118654746 0.70710678118654746 0.25 forward I I I I #
loop $-1 $-1 $155 $41 #
coedge $-1 $97 $97 $156 $157 reversed $61 $-1 #
face $-1 $158 $159 $33 $-1 $160 reversed single #
loop $-1 $-1 $161 $63 #
plane-surface $-1 -32.805137522289037 -15.459757247928621 82.737645949486193 0.64278761758704617 0 0.76604443648966558 0.76604443648966558 0 -0.64278761758704617 forward_v I I I I #
coedge $-1 $162 $163 $164 $165 reversed $64 $-1 #
face $-1 $-1 $166 $34 $-1 $167 forward single #
loop $-1 $168 $169 $66 #
cone-surface $-1 56.784933108075329 -16.745779426992495 6.0940659386558984 -0.64278761758704617 0 -0.76604443648966558 0.095755554561208198 0 -0.080348452198380771 1 I I -0.70710678118654746 0.70710678118654746 0.125 forward I I I I #
loop $-1 $-1 $170 $43 #
coedge $-1 $106 $106 $171 $172 reversed $67 $-1 #
face $-1 $-1 $173 $35 $-1 $174 forward single #
loop $-1 $175 $176 $69 #
cone-surface $-1 56.784933108075329 -14.173735068864749 6.0940659386558984 -0.64278761758704617 0 -0.76604443648966558 0.095755554561208198 0 -0.080348452198380771 1 I I -0.70710678118654746 0.70710678118654746 0.125 forward I I I I #
loop $-1 $-1 $177 $44 #
coedge $-1 $111 $111 $178 $179 reversed $70 $-1 #
face $-1 $180 $181 $27 $-1 $182 reversed single #
loop $-1 $-1 $183 $72 #
plane-surface $-1 0 0 -10.434289471397779 0 0 1 1 0 0 forward_v I I I I #
coedge $-1 $184 $185 $186 $187 forward $73 $-1 #
coedge $-1 $188 $75 $189 $190 reversed $46 $-1 #
coedge $-1 $75 $188 $191 $192 forward $46 $-1 #
coedge $-1 $193 $183 $75 $119 forward $113 $-1 #
edge $-1 $194 -61.653492843409531 $195 61.653492843409531 $75 $196 forward 7 unknown #
face $-1 $197 $198 $28 $-1 $199 reversed single #
loop $-1 $-1 $200 $76 #
plane-surface $-1 -42.370962839186035 -32.828938400844983 0 0 1 0 0 0 1 forward_v I I I I #
coedge $-1 $201 $202 $125 $203 forward $77 $-1 #
coedge $-1 $204 $79 $205 $206 reversed $49 $-1 #
coedge $-1 $79 $204 $123 $203 reversed $49 $-1 #
coedge $-1 $207 $208 $79 $127 reversed $198 $-1 #
edge $-1 $209 -10.434289471397779 $210 10.434289471397779 $126 $211 forward 7 unknown #
face $-1 $212 $213 $29 $-1 $214 reversed single #
loop $-1 $-1 $215 $80 #
plane-surface $-1 0 0 10.434289471397779 0 0 1 1 0 0 forward_v I I I I #
coedge $-1 $216 $217 $133 $218 forward $81 $-1 #
coedge $-1 $219 $83 $220 $221 reversed $52 $-1 #
coedge $-1 $83 $219 $131 $218 reversed $52 $-1 #
coedge $-1 $222 $223 $83 $135 reversed $213 $-1 #
edge $-1 $224 -61.653492843409531 $225 61.653492843409531 $134 $226 forward 7 unknown #
face $-1 $227 $228 $30 $-1 $229 forward single #
loop $-1 $-1 $230 $84 #
plane-surface $-1 -140.91369640487994 14.617522427126953 99.529248225016445 0 -1 0 0.64278761758704617 0 -0.76604443648966558 forward_v I I I I #
coedge $-1 $231 $232 $233 $234 reversed $85 $-1 #
coedge $-1 $141 $87 $235 $236 reversed $55 $-1 #
coedge $-1 $87 $140 $231 $237 reversed $55 $-1 #
coedge $-1 $233 $238 $87 $143 forward $228 $-1 #
edge $-1 $239 8.8033553590304408 $240 15.195530138338405 $142 $241 forward 7 unknown #
loop $-1 $-1 $149 $88 #
plane-surface $-1 -61.653492843409524 10.55037263005018 5.0706178593178777 -0.64278761758704617 0 0.76604443648966558 0.76604443648966558 0 0.64278761758704617 forward_v I I I I #
loop $-1 $-1 $242 $57 #
coedge $-1 $147 $147 $148 $243 reversed $89 $-1 #
coedge $-1 $148 $148 $147 $243 forward $91 $-1 #
coedge $-1 $149 $149 $92 $150 forward $144 $-1 #
edge $-1 $244 0 $244 6.2831853071796004 $149 $245 forward 7 unknown #
loop $-1 $-1 $156 $93 #
plane-surface $-1 -61.653492843409524 10.55037263005018 5.0706178593178777 -0.64278761758704617 0 0.76604443648966558 0.76604443648966558 0 0.64278761758704617 forward_v I I I I #
loop $-1 $-1 $246 $60 #
coedge $-1 $154 $154 $155 $247 reversed $94 $-1 #
coedge $-1 $155 $155 $154 $247 forward $96 $-1 #
coedge $-1 $156 $156 $97 $157 forward $151 $-1 #
edge $-1 $248 0 $248 6.2831853071796004 $156 $249 forward 7 unknown #
face $-1 $250 $251 $33 $-1 $252 reversed single #
loop $-1 $-1 $253 $98 #
plane-surface $-1 46.455066039181396 -18.460475665744326 177.19627631518478 0 1 0 0.64278761758704617 0 0.76604443648966558 forward_v I I I I #
coedge $-1 $254 $255 $256 $257 reversed $99 $-1 #
coedge $-1 $163 $101 $258 $259 reversed $64 $-1 #
coedge $-1 $101 $162 $254 $260 reversed $64 $-1 #
coedge $-1 $256 $261 $101 $165 forward $262 $-1 #
edge $-1 $263 -38.425959823818829 $264 -30.135112492721237 $164 $265 forward 7 unknown #
loop $-1 $-1 $171 $102 #
plane-surface $-1 -32.805137522289037 -15.459757247928621 82.737645949486193 0.64278761758704617 0 0.76604443648966558 0.76604443648966558 0 -0.64278761758704617 forward_v I I I I #
loop $-1 $-1 $266 $66 #
coedge $-1 $169 $169 $170 $267 reversed $103 $-1 #
coedge $-1 $170 $170 $169 $267 forward $105 $-1 #
coedge $-1 $171 $171 $106 $172 forward $166 $-1 #
edge $-1 $268 0 $268 6.2831853071796004 $171 $269 forward 7 unknown #
loop $-1 $-1 $178 $107 #
plane-surface $-1 -32.805137522289037 -15.459757247928621 82.737645949486193 0.64278761758704617 0 0.76604443648966558 0.76604443648966558 0 -0.64278761758704617 forward_v I I I I #
loop $-1 $-1 $270 $69 #
coedge $-1 $176 $176 $177 $271 reversed $108 $-1 #
coedge $-1 $177 $177 $176 $271 forward $110 $-1 #
coedge $-1 $178 $178 $111 $179 forward $173 $-1 #
edge $-1 $272 0 $272 6.2831853071796004 $178 $273 forward 7 unknown #
face $-1 $274 $275 $27 $-1 $276 reversed single #
loop $-1 $-1 $277 $112 #
plane-surface $-1 -61.653492843409531 0 0 1 0 0 0 0 -1 forward_v I I I I #
coedge $-1 $118 $278 $279 $280 forward $113 $-1 #
coedge $-1 $281 $115 $282 $283 forward $73 $-1 #
coedge $-1 $115 $281 $188 $284 forward $73 $-1 #
coedge $-1 $189 $285 $115 $187 reversed $286 $-1 #
edge $-1 $287 -25.644707033294655 $288 25.644707033294655 $186 $289 forward 7 unknown #
coedge $-1 $117 $116 $185 $284 reversed $46 $-1 #
coedge $-1 $279 $186 $116 $190 forward $286 $-1 #
edge $-1 $287 -10.434289471397779 $194 10.434289471397779 $189 $290 forward 7 unknown #
coedge $-1 $291 $292 $117 $192 reversed $181 $-1 #
edge $-1 $293 -10.434289471397779 $195 10.434289471397779 $191 $294 forward 7 unknown #
coedge $-1 $278 $118 $292 $295 forward $113 $-1 #
vertex $-1 $190 $296 #
vertex $-1 $295 $297 #
straight-curve $-1 0 -25.644707033294655 -10.434289471397779 -1 0 0 I I #
face $-1 $298 $299 $28 $-1 $300 reversed single #
loop $-1 $-1 $126 $120 #
plane-surface $-1 -43.957011777758098 -29.23682271706982 0 1 0 0 0 0 -1 forward_v I I I I #
coedge $-1 $301 $302 $303 $304 forward $121 $-1 #
coedge $-1 $305 $123 $306 $307 forward $77 $-1 #
coedge $-1 $123 $305 $207 $308 forward $77 $-1 #
edge $-1 $209 -43.957011777758098 $309 -40.784913900613972 $123 $310 forward 7 unknown #
coedge $-1 $125 $124 $311 $312 forward $49 $-1 #
coedge $-1 $313 $314 $124 $206 forward $315 $-1 #
edge $-1 $316 40.784913900613972 $210 43.957011777758098 $205 $317 forward 7 unknown #
coedge $-1 $303 $126 $202 $308 reversed $198 $-1 #
coedge $-1 $126 $303 $313 $318 reversed $198 $-1 #
vertex $-1 $203 $319 #
vertex $-1 $318 $320 #
straight-curve $-1 -43.957011777758098 -25.644707033294655 0 0 0 1 I I #
face $-1 $321 $322 $29 $-1 $323 reversed single #
loop $-1 $-1 $223 $128 #
plane-surface $-1 0 31.158299336378501 4.3365017859887978 0 0 1 1 0 0 forward_v I I I I #
coedge $-1 $324 $325 $219 $326 forward $129 $-1 #
coedge $-1 $327 $131 $325 $328 reversed $81 $-1 #
coedge $-1 $131 $327 $222 $329 reversed $81 $-1 #
edge $-1 $224 4.3365017859887978 $330 10.434289471397779 $131 $331 forward 7 unknown #
coedge $-1 $133 $132 $215 $326 reversed $52 $-1 #
coedge $-1 $332 $333 $132 $221 forward $334 $-1 #
edge $-1 $335 -10.434289471397779 $225 -4.3365017859887978 $220 $336 forward 7 unknown #
coedge $-1 $337 $134 $217 $329 forward $213 $-1 #
coedge $-1 $134 $337 $332 $338 forward $213 $-1 #
vertex $-1 $218 $339 #
vertex $-1 $221 $340 #
straight-curve $-1 0 25.644707033294655 4.3365017859887978 1 0 0 I I #
face $-1 $-1 $341 $30 $-1 $342 reversed single #
loop $-1 $-1 $142 $136 #
plane-surface $-1 0 0 10.434289471397779 0 0 1 1 0 0 forward_v I I I I #
coedge $-1 $343 $344 $345 $346 reversed $137 $-1 #
coedge $-1 $347 $139 $141 $237 forward $85 $-1 #
coedge $-1 $139 $347 $343 $348 forward $85 $-1 #
coedge $-1 $345 $142 $139 $234 forward $228 $-1 #
edge $-1 $240 1.208036517948317 $349 9.3423361121018633 $233 $350 forward 7 unknown #
coedge $-1 $351 $352 $140 $236 forward $341 $-1 #
edge $-1 $353 -44.694006253190352 $239 -39.33033464111044 $235 $354 forward 7 unknown #
edge $-1 $240 -8.3443916238065281 $353 9.439443728910611e-015 $141 $355 forward 7 unknown #
coedge $-1 $142 $345 $351 $356 forward $228 $-1 #
vertex $-1 $143 $357 #
vertex $-1 $143 $358 #
straight-curve $-1 -70.456848202439971 6.4832228329734072 10.434289471397776 1 0 0 I I #
coedge $-1 $242 $242 $-1 $359 reversed $146 $-1 #
edge $-1 $360 0 $360 6.2831853071796004 $147 $361 forward 7 unknown #
vertex $-1 $150 $362 #
ellipse-curve $-1 -58.457405453755548 8.8073084313029888 7.7524536653578249 -0.64278761758704617 0 0.76604443648966558 0.38302221824483279 0 0.32139380879352308 1 I I #
coedge $-1 $246 $246 $-1 $363 reversed $153 $-1 #
edge $-1 $364 0 $364 6.2831853071796004 $154 $365 forward 7 unknown #
vertex $-1 $157 $366 #
ellipse-curve $-1 -58.457405453755548 12.293436828797365 7.7524536653578249 -0.64278761758704617 0 0.76604443648966558 0.38302221824483279 0 0.32139380879352308 1 I I #
face $-1 $-1 $262 $33 $-1 $367 forward single #
loop $-1 $-1 $368 $158 #
plane-surface $-1 61.653492843409531 0 0 -1 0 0 0 0 1 forward_v I I I I #
coedge $-1 $369 $370 $371 $372 reversed $159 $-1 #
coedge $-1 $373 $161 $163 $260 forward $99 $-1 #
coedge $-1 $161 $373 $369 $374 forward $99 $-1 #
coedge $-1 $371 $164 $161 $257 forward $262 $-1 #
edge $-1 $264 4.729160206148606 $375 10.730597041780015 $256 $376 forward 7 unknown #
coedge $-1 $377 $378 $162 $259 forward $251 $-1 #
edge $-1 $379 -85.120695769576614 $263 -78.163848686194612 $258 $380 forward 7 unknown #
edge $-1 $264 112.48405305240203 $379 123.30698568681905 $163 $381 forward 7 unknown #
coedge $-1 $164 $371 $377 $382 forward $262 $-1 #
loop $-1 $-1 $371 $250 #
vertex $-1 $259 $383 #
vertex $-1 $165 $384 #
straight-curve $-1 23.227533019590698 -12.459038830112917 10.434289471397776 -1 0 0 I I #
coedge $-1 $266 $266 $-1 $385 reversed $168 $-1 #
edge $-1 $386 0 $386 6.2831853071796004 $169 $387 forward 7 unknown #
vertex $-1 $172 $388 #
ellipse-curve $-1 57.508069177860747 -16.745779426992495 6.9558659297067615 0.64278761758704617 0 0.76604443648966558 0.1915111091224164 0 -0.16069690439676154 1 I I #
coedge $-1 $270 $270 $-1 $389 reversed $175 $-1 #
edge $-1 $390 0 $390 6.2831853071796004 $176 $391 forward 7 unknown #
vertex $-1 $179 $392 #
ellipse-curve $-1 57.508069177860747 -14.173735068864749 6.9558659297067615 0.64278761758704617 0 0.76604443648966558 0.1915111091224164 0 -0.16069690439676154 1 I I #
face $-1 $-1 $286 $27 $-1 $393 reversed single #
loop $-1 $-1 $394 $180 #
plane-surface $-1 0 25.644707033294655 0 0 -1 0 0 0 -1 forward_v I I I I #
coedge $-1 $292 $291 $395 $396 forward $181 $-1 #
coedge $-1 $183 $193 $397 $398 forward $113 $-1 #
coedge $-1 $285 $189 $183 $280 reversed $286 $-1 #
edge $-1 $399 -25.644707033294655 $194 25.644707033294655 $279 $400 forward 7 unknown #
coedge $-1 $185 $184 $291 $401 forward $73 $-1 #
coedge $-1 $394 $395 $184 $283 reversed $275 $-1 #
edge $-1 $288 -61.653492843409531 $402 61.653492843409531 $282 $403 forward 7 unknown #
edge $-1 $293 -61.653492843409531 $287 61.653492843409531 $188 $404 forward 7 unknown #
coedge $-1 $186 $279 $394 $405 reversed $286 $-1 #
loop $-1 $-1 $189 $274 #
vertex $-1 $187 $406 #
vertex $-1 $187 $407 #
straight-curve $-1 61.653492843409531 0 10.434289471397779 0 1 0 I I #
straight-curve $-1 61.653492843409531 -25.644707033294655 0 0 0 -1 I I #
coedge $-1 $277 $191 $281 $401 reversed $181 $-1 #
coedge $-1 $191 $277 $193 $295 reversed $181 $-1 #
vertex $-1 $401 $408 #
straight-curve $-1 -61.653492843409531 -25.644707033294655 0 0 0 -1 I I #
edge $-1 $195 -25.644707033294655 $409 25.644707033294655 $292 $410 forward 7 unknown #
point $-1 61.653492843409531 -25.644707033294655 -10.434289471397779 #
point $-1 -61.653492843409531 -25.644707033294655 -10.434289471397779 #
face $-1 $-1 $315 $28 $-1 $411 forward single #
loop $-1 $-1 $412 $197 #
plane-surface $-1 -40.784913900613972 -29.23682271706982 0 -1 0 0 0 0 1 forward_v I I I I #
coedge $-1 $413 $200 $305 $414 reversed $121 $-1 #
coedge $-1 $200 $413 $415 $416 reversed $121 $-1 #
coedge $-1 $208 $207 $200 $304 reversed $198 $-1 #
edge $-1 $417 -10.434289471397779 $418 10.434289471397779 $303 $419 forward 7 unknown #
coedge $-1 $202 $201 $301 $414 forward $77 $-1 #
coedge $-1 $311 $412 $201 $307 reversed $299 $-1 #
edge $-1 $309 -3.5921156837751624 $420 3.5921156837751624 $306 $421 forward 7 unknown #
edge $-1 $418 -3.5921156837751624 $209 3.5921156837751624 $207 $422 forward 7 unknown #
vertex $-1 $307 $423 #
straight-curve $-1 0 -25.644707033294655 -10.434289471397779 1 0 0 I I #
coedge $-1 $424 $306 $204 $312 reversed $299 $-1 #
edge $-1 $316 -10.434289471397779 $309 10.434289471397779 $311 $425 forward 7 unknown #
coedge $-1 $415 $205 $208 $318 forward $315 $-1 #
coedge $-1 $205 $415 $424 $426 forward $315 $-1 #
loop $-1 $-1 $205 $298 #
vertex $-1 $206 $427 #
straight-curve $-1 0 -25.644707033294655 10.434289471397779 -1 0 0 I I #
edge $-1 $210 -3.5921156837751624 $417 3.5921156837751624 $208 $428 forward 7 unknown #
point $-1 -43.957011777758098 -25.644707033294658 -10.434289471397779 #
point $-1 -43.957011777758098 -25.644707033294658 10.434289471397779 #
face $-1 $-1 $334 $29 $-1 $429 reversed single #
loop $-1 $-1 $430 $212 #
plane-surface $-1 0 36.671891639462352 7.3853956286932885 0 -1 0 0 0 -1 forward_v I I I I #
coedge $-1 $431 $215 $333 $432 forward $129 $-1 #
coedge $-1 $215 $431 $216 $328 forward $129 $-1 #
edge $-1 $330 -61.653492843409531 $335 61.653492843409531 $215 $433 forward 7 unknown #
coedge $-1 $217 $216 $434 $435 forward $81 $-1 #
edge $-1 $436 -36.671891639462352 $330 -25.644707033294655 $216 $437 forward 7 unknown #
edge $-1 $224 -5.5135923030838505 $438 5.5135923030838505 $217 $439 forward 7 unknown #
vertex $-1 $326 $440 #
straight-curve $-1 -61.653492843409531 25.644707033294655 0 0 0 1 I I #
coedge $-1 $441 $220 $223 $338 reversed $334 $-1 #
coedge $-1 $220 $441 $324 $432 reversed $334 $-1 #
loop $-1 $-1 $220 $321 #
vertex $-1 $432 $442 #
straight-curve $-1 61.653492843409531 25.644707033294655 0 0 0 -1 I I #
coedge $-1 $223 $222 $443 $444 forward $213 $-1 #
edge $-1 $445 -5.5135923030838505 $225 5.5135923030838505 $332 $446 forward 7 unknown #
point $-1 -61.653492843409531 25.644707033294651 4.3365017859887978 #
point $-1 61.653492843409531 25.644707033294651 4.3365017859887978 #
loop $-1 $-1 $235 $227 #
plane-surface $-1 -61.653492843409531 0 0 1 0 0 0 0 -1 forward_v I I I I #
coedge $-1 $344 $230 $232 $348 reversed $137 $-1 #
coedge $-1 $230 $343 $447 $448 reversed $137 $-1 #
coedge $-1 $238 $233 $230 $346 forward $228 $-1 #
edge $-1 $349 -15.195530138338405 $449 -8.8033553590304408 $345 $450 forward 7 unknown #
coedge $-1 $232 $231 $352 $451 reversed $85 $-1 #
edge $-1 $452 -9.439443728910611e-015 $349 8.3443916238065281 $343 $453 forward 7 unknown #
vertex $-1 $234 $454 #
straight-curve $-1 -55.261318064101559 5.2751863150250902 10.434289471397779 0 1 0 I I #
coedge $-1 $447 $235 $238 $356 reversed $341 $-1 #
coedge $-1 $235 $447 $347 $451 forward $341 $-1 #
vertex $-1 $236 $455 #
straight-curve $-1 -61.653492843409531 6.4832228329734072 49.764624112508223 0 0 1 I I #
straight-curve $-1 -61.653492843409524 6.4832228329734072 5.0706178593178777 -0.76604443648966558 0 -0.64278761758704617 I I #
edge $-1 $449 -14.617522427126953 $239 -6.4832228329734072 $351 $456 forward 7 unknown #
point $-1 -61.653492843409531 6.4832228329734072 10.434289471397779 #
point $-1 -55.261318064101566 6.4832228329734072 10.434289471397779 #
edge $-1 $457 1 $457 0 $242 $-1 forward 7 unknown #
vertex $-1 $243 $458 #
ellipse-curve $-1 -57.814617836168509 8.8073084313029888 6.9864092288681654 -0.64278761758704617 0 0.76604443648966558 0.38302221824483279 0 0.32139380879352308 1 I I #
point $-1 -58.074383235510723 8.8073084313029888 8.0738474741513535 #
edge $-1 $459 1 $459 0 $246 $-1 forward 7 unknown #
vertex $-1 $247 $460 #
ellipse-curve $-1 -57.814617836168509 12.293436828797365 6.9864092288681654 -0.64278761758704617 0 0.76604443648966558 0.38302221824483279 0 0.32139380879352308 1 I I #
point $-1 -58.074383235510723 12.293436828797365 8.0738474741513535 #
plane-surface $-1 0 0 10.434289471397779 0 0 1 1 0 0 forward_v I I I I #
coedge $-1 $378 $377 $370 $461 forward $251 $-1 #
coedge $-1 $370 $253 $255 $374 reversed $159 $-1 #
coedge $-1 $253 $369 $368 $461 reversed $159 $-1 #
coedge $-1 $261 $256 $253 $372 forward $262 $-1 #
edge $-1 $375 30.135112492721237 $462 38.425959823818829 $371 $463 forward 7 unknown #
coedge $-1 $255 $254 $378 $464 reversed $99 $-1 #
edge $-1 $465 -123.30698568681905 $375 -112.48405305240203 $369 $466 forward 7 unknown #
vertex $-1 $257 $467 #
straight-curve $-1 53.362645512311921 -7.7298786239643107 10.43428947139779 0 -1 0 I I #
coedge $-1 $368 $258 $261 $382 reversed $251 $-1 #
coedge $-1 $258 $368 $373 $464 forward $251 $-1 #
vertex $-1 $259 $468 #
straight-curve $-1 61.653492843409531 -12.459038830112917 88.598138157592388 0 0 1 I I #
straight-curve $-1 -32.805137522289037 -12.459038830112917 82.737645949486193 0.76604443648966558 0 -0.64278761758704617 I I #
edge $-1 $462 -18.460475665744326 $263 -12.459038830112917 $377 $469 forward 7 unknown #
point $-1 61.653492843409531 -12.459038830112917 10.434289471397779 #
point $-1 53.362645512311936 -12.459038830112917 10.434289471397776 #
edge $-1 $470 1 $470 0 $266 $-1 forward 7 unknown #
vertex $-1 $267 $471 #
ellipse-curve $-1 56.865281560273708 -16.745779426992495 6.1898214932171065 0.64278761758704617 0 0.76604443648966558 0.1915111091224164 0 -0.16069690439676154 1 I I #
point $-1 57.699580286983171 -16.745779426992495 6.7951690253100105 #
edge $-1 $472 1 $472 0 $270 $-1 forward 7 unknown #
vertex $-1 $271 $473 #
ellipse-curve $-1 56.865281560273708 -14.173735068864749 6.1898214932171065 0.64278761758704617 0 0.76604443648966558 0.1915111091224164 0 -0.16069690439676154 1 I I #
point $-1 57.699580286983171 -14.173735068864749 6.7951690253100105 #
plane-surface $-1 61.653492843409531 0 0 -1 0 0 0 0 1 forward_v I I I I #
coedge $-1 $397 $282 $285 $405 forward $275 $-1 #
coedge $-1 $282 $397 $277 $396 reversed $275 $-1 #
edge $-1 $402 -10.434289471397779 $409 10.434289471397779 $395 $474 forward 7 unknown #
coedge $-1 $395 $394 $278 $398 reversed $275 $-1 #
edge $-1 $409 -61.653492843409531 $399 61.653492843409531 $397 $475 forward 7 unknown #
vertex $-1 $280 $476 #
straight-curve $-1 61.653492843409531 0 -10.434289471397779 0 -1 0 I I #
edge $-1 $402 -25.644707033294655 $293 25.644707033294655 $291 $477 forward 7 unknown #
vertex $-1 $283 $478 #
straight-curve $-1 0 25.644707033294655 10.434289471397779 -1 0 0 I I #
straight-curve $-1 0 -25.644707033294655 10.434289471397779 1 0 0 I I #
edge $-1 $288 -10.434289471397779 $399 10.434289471397779 $285 $479 forward 7 unknown #
point $-1 61.653492843409531 -25.644707033294655 10.434289471397779 #
point $-1 61.653492843409531 25.644707033294655 10.434289471397779 #
point $-1 -61.653492843409531 -25.644707033294655 10.434289471397779 #
vertex $-1 $398 $480 #
straight-curve $-1 -61.653492843409531 0 -10.434289471397779 0 1 0 I I #
plane-surface $-1 0 0 10.434289471397779 0 0 1 1 0 0 forward_v I I I I #
coedge $-1 $306 $424 $413 $481 forward $299 $-1 #
coedge $-1 $302 $301 $412 $481 reversed $121 $-1 #
edge $-1 $420 -1.5860489385720626 $418 1.5860489385720626 $301 $482 forward 7 unknown #
coedge $-1 $314 $313 $302 $416 forward $315 $-1 #
edge $-1 $417 -1.5860489385720626 $483 1.5860489385720626 $302 $484 forward 7 unknown #
vertex $-1 $318 $485 #
vertex $-1 $308 $486 #
straight-curve $-1 -43.957011777758098 -32.828938400844983 0 0 0 -1 I I #
vertex $-1 $481 $487 #
straight-curve $-1 -40.784913900613972 -29.23682271706982 -10.434289471397779 0 -1 0 I I #
straight-curve $-1 -43.957011777758098 -29.23682271706982 -10.434289471397779 0 1 0 I I #
point $-1 -40.784913900613972 -25.644707033294658 -10.434289471397779 #
coedge $-1 $412 $311 $314 $426 reversed $299 $-1 #
straight-curve $-1 -40.784913900613972 -25.644707033294655 0 0 0 -1 I I #
edge $-1 $483 -3.5921156837751624 $316 3.5921156837751624 $424 $488 forward 7 unknown #
point $-1 -40.784913900613972 -25.644707033294658 10.434289471397779 #
straight-curve $-1 -43.957011777758098 -29.23682271706982 10.434289471397779 0 -1 0 I I #
plane-surface $-1 61.653492843409531 0 0 -1 0 0 0 0 1 forward_v I I I I #
coedge $-1 $443 $489 $441 $490 forward $322 $-1 #
coedge $-1 $325 $324 $489 $491 forward $129 $-1 #
edge $-1 $335 25.644707033294655 $492 36.671891639462352 $333 $493 forward 7 unknown #
straight-curve $-1 0 25.644707033294655 10.434289471397779 1 0 0 I I #
coedge $-1 $489 $443 $327 $435 reversed $322 $-1 #
edge $-1 $436 -3.0488938427044907 $438 3.0488938427044907 $434 $494 forward 7 unknown #
vertex $-1 $491 $495 #
straight-curve $-1 -61.653492843409531 0 10.434289471397779 0 -1 0 I I #
vertex $-1 $444 $496 #
straight-curve $-1 -61.653492843409531 31.158299336378501 4.3365017859887978 0 1 0 I I #
point $-1 -61.653492843409531 25.644707033294655 10.434289471397779 #
coedge $-1 $333 $332 $430 $490 reversed $334 $-1 #
point $-1 61.653492843409531 25.644707033294655 10.434289471397779 #
coedge $-1 $434 $430 $337 $444 reversed $322 $-1 #
edge $-1 $438 -61.653492843409531 $445 61.653492843409531 $443 $497 forward 7 unknown #
vertex $-1 $338 $498 #
straight-curve $-1 61.653492843409531 31.158299336378501 4.3365017859887978 0 -1 0 I I #
coedge $-1 $352 $351 $344 $448 forward $341 $-1 #
edge $-1 $449 39.33033464111044 $452 44.694006253190352 $447 $499 forward 7 unknown #
vertex $-1 $356 $500 #
straight-curve $-1 -70.456848202439971 14.617522427126953 10.434289471397776 -1 0 0 I I #
edge $-1 $452 -9.3423361121018633 $353 -1.208036517948317 $352 $501 forward 7 unknown #
vertex $-1 $451 $502 #
straight-curve $-1 -61.653492843409524 14.617522427126953 5.0706178593178777 0.76604443648966558 0 0.64278761758704617 I I #
point $-1 -55.261318064101566 14.617522427126953 10.434289471397779 #
point $-1 -61.653492843409531 6.4832228329734072 5.0706178593178715 #
straight-curve $-1 -61.653492843409531 0 10.434289471397779 0 -1 0 I I #
vertex $-1 $359 $503 #
point $-1 -57.431595617923676 8.8073084313029888 7.3078030376616887 #
vertex $-1 $363 $504 #
point $-1 -57.431595617923676 12.293436828797365 7.3078030376616887 #
edge $-1 $462 78.163848686194612 $465 85.120695769576614 $368 $505 forward 7 unknown #
vertex $-1 $382 $506 #
straight-curve $-1 23.227533019590698 -18.460475665744326 10.434289471397776 1 0 0 I I #
edge $-1 $465 -10.730597041780015 $379 -4.729160206148606 $378 $507 forward 7 unknown #
vertex $-1 $464 $508 #
straight-curve $-1 -32.805137522289037 -18.460475665744326 82.737645949486193 -0.76604443648966558 0 0.64278761758704617 I I #
point $-1 53.362645512311936 -18.460475665744326 10.434289471397776 #
point $-1 61.653492843409531 -12.459038830112917 3.4774423880157741 #
straight-curve $-1 61.653492843409531 0 10.434289471397779 0 1 0 I I #
vertex $-1 $385 $509 #
point $-1 57.056792669396124 -16.745779426992495 6.0291245888203449 #
vertex $-1 $389 $510 #
point $-1 57.056792669396124 -14.173735068864749 6.0291245888203449 #
straight-curve $-1 -61.653492843409531 25.644707033294655 0 0 0 -1 I I #
straight-curve $-1 0 25.644707033294655 -10.434289471397779 1 0 0 I I #
point $-1 61.653492843409531 25.644707033294655 -10.434289471397779 #
straight-curve $-1 -61.653492843409531 0 10.434289471397779 0 -1 0 I I #
point $-1 -61.653492843409531 25.644707033294655 10.434289471397779 #
straight-curve $-1 61.653492843409531 25.644707033294655 0 0 0 -1 I I #
point $-1 -61.653492843409531 25.644707033294655 -10.434289471397779 #
edge $-1 $483 -10.434289471397779 $420 10.434289471397779 $412 $511 forward 7 unknown #
straight-curve $-1 -42.370962839186035 -32.828938400844983 -10.434289471397779 -1 0 0 I I #
vertex $-1 $426 $512 #
straight-curve $-1 -42.370962839186035 -32.828938400844983 10.434289471397779 1 0 0 I I #
point $-1 -43.957011777758098 -32.828938400844983 10.434289471397779 #
point $-1 -43.957011777758098 -32.828938400844983 -10.434289471397779 #
point $-1 -40.784913900613972 -32.828938400844983 -10.434289471397779 #
straight-curve $-1 -40.784913900613972 -29.23682271706982 10.434289471397779 0 1 0 I I #
coedge $-1 $430 $434 $431 $491 reversed $322 $-1 #
edge $-1 $492 -3.0488938427044907 $445 3.0488938427044907 $441 $513 forward 7 unknown #
edge $-1 $492 -61.653492843409531 $436 61.653492843409531 $489 $514 forward 7 unknown #
vertex $-1 $432 $515 #
straight-curve $-1 61.653492843409531 0 10.434289471397779 0 1 0 I I #
straight-curve $-1 -61.653492843409531 36.671891639462352 7.3853956286932885 0 0 -1 I I #
point $-1 -61.653492843409531 36.671891639462352 10.434289471397779 #
point $-1 -61.653492843409531 36.671891639462352 4.3365017859887978 #
straight-curve $-1 0 36.671891639462352 4.3365017859887978 1 0 0 I I #
point $-1 61.653492843409531 36.671891639462352 4.3365017859887978 #
straight-curve $-1 -61.653492843409531 14.617522427126953 49.764624112508223 0 0 -1 I I #
point $-1 -61.653492843409531 14.617522427126953 10.434289471397779 #
straight-curve $-1 -61.653492843409531 5.2751863150250902 5.0706178593178697 0 -1 0 I I #
point $-1 -61.653492843409531 14.617522427126953 5.0706178593178715 #
point $-1 -57.493224027374993 8.8073084313029888 6.603387010623333 #
point $-1 -57.493224027374993 12.293436828797365 6.603387010623333 #
straight-curve $-1 61.653492843409531 -18.460475665744326 88.598138157592388 0 0 -1 I I #
point $-1 61.653492843409531 -18.460475665744326 10.434289471397779 #
straight-curve $-1 61.653492843409524 -7.7298786239643107 3.4774423880157812 0 1 0 I I #
point $-1 61.653492843409531 -18.460475665744326 3.4774423880157741 #
point $-1 56.70458465587695 -16.745779426992495 5.9983103840946903 #
point $-1 56.70458465587695 -14.173735068864749 5.9983103840946903 #
straight-curve $-1 -40.784913900613972 -32.828938400844983 0 0 0 -1 I I #
point $-1 -40.784913900613972 -32.828938400844983 10.434289471397779 #
straight-curve $-1 61.653492843409531 36.671891639462352 7.3853956286932885 0 0 -1 I I #
straight-curve $-1 0 36.671891639462352 10.434289471397779 -1 0 0 I I #
point $-1 61.653492843409531 36.671891639462352 10.434289471397779 #
End-of-ACIS-data 