500 0 17 0           
7 Unknown 11 ACIS 5.0 NT 24 Thu Mar 25 17:44:24 1999 
-1 9.9999999999999995e-007 1e-010 
body $-1 $17 $-1 $18 #
body $-1 $19 $-1 $20 #
body $-1 $21 $-1 $22 #
body $-1 $23 $-1 $24 #
body $-1 $25 $-1 $26 #
body $-1 $27 $-1 $28 #
body $-1 $29 $-1 $30 #
body $-1 $31 $-1 $32 #
body $-1 $33 $-1 $34 #
body $-1 $35 $-1 $36 #
body $-1 $37 $-1 $38 #
body $-1 $39 $-1 $40 #
body $-1 $41 $-1 $42 #
body $-1 $43 $-1 $44 #
body $-1 $45 $-1 $46 #
body $-1 $47 $-1 $48 #
body $-1 $49 $-1 $50 #
lump $-1 $-1 $51 $0 #
transform $-1 1 0 0 0 1 0 0 0 1 41.308633686330758 24.721389908611457 12.013266137114178 1 rotate no_reflect no_shear #
lump $-1 $-1 $52 $1 #
transform $-1 1 0 0 0 1 0 0 0 1 41.308633686330758 24.721389908611457 12.013266137114178 1 rotate no_reflect no_shear #
lump $-1 $-1 $53 $2 #
transform $-1 1 0 0 0 1 0 0 0 1 41.308633686330758 24.721389908611457 12.013266137114178 1 rotate no_reflect no_shear #
lump $-1 $-1 $54 $3 #
transform $-1 1 0 0 0 1 0 0 0 1 41.308633686330758 24.721389908611457 12.013266137114178 1 rotate no_reflect no_shear #
lump $-1 $-1 $55 $4 #
transform $-1 1 0 0 0 1 0 0 0 1 41.308633686330758 24.721389908611457 12.013266137114178 1 rotate no_reflect no_shear #
lump $-1 $-1 $56 $5 #
transform $-1 1 0 0 0 1 0 0 0 1 41.308633686330758 24.721389908611457 12.013266137114178 1 rotate no_reflect no_shear #
lump $-1 $-1 $57 $6 #
transform $-1 1 0 0 0 1 0 0 0 1 41.308633686330758 24.721389908611457 12.013266137114178 1 rotate no_reflect no_shear #
lump $-1 $-1 $58 $7 #
transform $-1 1 0 0 0 1 0 0 0 1 41.308633686330758 24.721389908611457 12.013266137114178 1 rotate no_reflect no_shear #
lump $-1 $-1 $59 $8 #
transform $-1 1 0 0 0 1 0 0 0 1 41.308633686330758 24.721389908611457 12.013266137114178 1 rotate no_reflect no_shear #
lump $-1 $-1 $60 $9 #
transform $-1 1 0 0 0 1 0 0 0 1 41.308633686330758 24.721389908611457 12.013266137114178 1 rotate no_reflect no_shear #
lump $-1 $-1 $61 $10 #
transform $-1 1 0 0 0 1 0 0 0 1 41.308633686330758 24.721389908611457 12.013266137114178 1 rotate no_reflect no_shear #
lump $-1 $-1 $62 $11 #
transform $-1 1 0 0 0 1 0 0 0 1 41.308633686330758 24.721389908611457 12.013266137114178 1 rotate no_reflect no_shear #
lump $-1 $-1 $63 $12 #
transform $-1 1 0 0 0 1 0 0 0 1 41.308633686330758 24.721389908611457 12.013266137114178 1 rotate no_reflect no_shear #
lump $-1 $-1 $64 $13 #
transform $-1 1 0 0 0 1 0 0 0 1 41.308633686330758 24.721389908611457 12.013266137114178 1 rotate no_reflect no_shear #
lump $-1 $-1 $65 $14 #
transform $-1 1 0 0 0 1 0 0 0 1 41.308633686330758 24.721389908611457 12.013266137114178 1 rotate no_reflect no_shear #
lump $-1 $-1 $66 $15 #
transform $-1 1 0 0 0 1 0 0 0 1 41.308633686330758 24.721389908611457 12.013266137114178 1 rotate no_reflect no_shear #
lump $-1 $-1 $67 $16 #
transform $-1 1 0 0 0 1 0 0 0 1 41.308633686330758 24.721389908611457 12.013266137114178 1 rotate no_reflect no_shear #
shell $-1 $-1 $-1 $68 $-1 $17 #
shell $-1 $-1 $-1 $69 $-1 $19 #
shell $-1 $-1 $-1 $70 $-1 $21 #
shell $-1 $-1 $-1 $71 $-1 $23 #
shell $-1 $-1 $-1 $72 $-1 $25 #
shell $-1 $-1 $-1 $73 $-1 $27 #
shell $-1 $-1 $-1 $74 $-1 $29 #
shell $-1 $-1 $-1 $75 $-1 $31 #
shell $-1 $-1 $-1 $76 $-1 $33 #
shell $-1 $-1 $-1 $77 $-1 $35 #
shell $-1 $-1 $-1 $78 $-1 $37 #
shell $-1 $-1 $-1 $79 $-1 $39 #
shell $-1 $-1 $-1 $80 $-1 $41 #
shell $-1 $-1 $-1 $81 $-1 $43 #
shell $-1 $-1 $-1 $82 $-1 $45 #
shell $-1 $-1 $-1 $83 $-1 $47 #
shell $-1 $-1 $-1 $84 $-1 $49 #
face $-1 $85 $86 $51 $-1 $87 forward single #
face $-1 $88 $89 $52 $-1 $90 reversed single #
face $-1 $91 $92 $53 $-1 $93 forward single #
face $-1 $94 $95 $54 $-1 $96 forward single #
face $-1 $97 $98 $55 $-1 $99 reversed single #
face $-1 $100 $101 $56 $-1 $102 forward single #
face $-1 $103 $104 $57 $-1 $105 forward single #
face $-1 $106 $107 $58 $-1 $108 reversed single #
face $-1 $109 $110 $59 $-1 $111 forward single #
face $-1 $112 $113 $60 $-1 $114 forward single #
face $-1 $115 $116 $61 $-1 $117 reversed single #
face $-1 $118 $119 $62 $-1 $120 forward single #
face $-1 $121 $122 $63 $-1 $123 forward single #
face $-1 $124 $125 $64 $-1 $126 reversed single #
face $-1 $127 $128 $65 $-1 $129 forward single #
face $-1 $130 $131 $66 $-1 $132 forward single #
face $-1 $133 $134 $67 $-1 $135 forward single #
face $-1 $136 $137 $51 $-1 $138 reversed single #
loop $-1 $-1 $139 $68 #
plane-surface $-1 0 0 12.013266137114178 0 0 1 1 0 0 forward_v I I I I #
face $-1 $140 $141 $52 $-1 $142 reversed single #
loop $-1 $-1 $143 $69 #
plane-surface $-1 -30.161593373885147 39.9513799710694 97.085428245455532 -1 0 0 0 0.64278761758704617 0.76604443648966558 forward_v I I I I #
face $-1 $144 $145 $53 $-1 $146 forward single #
loop $-1 $147 $148 $70 #
cone-surface $-1 -38.123765025632011 17.969355926845378 6.0673719794460492 0 -0.64278761758704617 -0.76604443648966558 1 0 0 1 I I 0 1 1 forward I I I I #
face $-1 $149 $150 $54 $-1 $151 forward single #
loop $-1 $152 $153 $71 #
cone-surface $-1 -33.346462034583894 17.969355926845378 6.0673719794460492 0 -0.64278761758704617 -0.76604443648966558 1 0 0 1 I I 0 1 1 forward I I I I #
face $-1 $154 $155 $55 $-1 $156 reversed single #
loop $-1 $-1 $157 $72 #
plane-surface $-1 -6.338184353813185 39.9513799710694 97.085428245455532 -1 0 0 0 0.64278761758704617 0.76604443648966558 forward_v I I I I #
face $-1 $158 $159 $56 $-1 $160 forward single #
loop $-1 $161 $162 $73 #
cone-surface $-1 -14.300356005560047 17.969355926845378 6.0673719794460492 0 -0.64278761758704617 -0.76604443648966558 1 0 0 1 I I 0 1 1 forward I I I I #
face $-1 $163 $164 $57 $-1 $165 forward single #
loop $-1 $166 $167 $74 #
cone-surface $-1 -9.5230530145119303 17.969355926845378 6.0673719794460492 0 -0.64278761758704617 -0.76604443648966558 1 0 0 1 I I 0 1 1 forward I I I I #
face $-1 $168 $169 $58 $-1 $170 reversed single #
loop $-1 $-1 $171 $75 #
plane-surface $-1 17.485224666258787 39.9513799710694 97.085428245455532 -1 0 0 0 0.64278761758704617 0.76604443648966558 forward_v I I I I #
face $-1 $172 $173 $59 $-1 $174 forward single #
loop $-1 $175 $176 $76 #
cone-surface $-1 9.5230530145119232 17.969355926845378 6.0673719794460492 0 -0.64278761758704617 -0.76604443648966558 1 0 0 1 I I 0 1 1 forward I I I I #
face $-1 $177 $178 $60 $-1 $179 forward single #
loop $-1 $180 $181 $77 #
cone-surface $-1 14.30035600556004 17.969355926845378 6.0673719794460492 0 -0.64278761758704617 -0.76604443648966558 1 0 0 1 I I 0 1 1 forward I I I I #
face $-1 $182 $183 $61 $-1 $184 reversed single #
loop $-1 $-1 $185 $78 #
plane-surface $-1 35.735113530107945 -13.1539764949557 33.79693021664901 0 0.64278761758704617 0.76604443648966558 1 0 0 forward_v I I I I #
face $-1 $186 $187 $62 $-1 $188 forward single #
loop $-1 $189 $190 $79 #
cone-surface $-1 33.346462034583887 17.969355926845378 6.0673719794460492 0 -0.64278761758704617 -0.76604443648966558 1 0 0 1 I I 0 1 1 forward I I I I #
face $-1 $191 $192 $63 $-1 $193 forward single #
loop $-1 $194 $195 $80 #
cone-surface $-1 38.123765025632004 17.969355926845378 6.0673719794460492 0 -0.64278761758704617 -0.76604443648966558 1 0 0 1 I I 0 1 1 forward I I I I #
face $-1 $196 $197 $64 $-1 $198 reversed single #
loop $-1 $-1 $199 $81 #
plane-surface $-1 11.029922450791338 -86.117985335857085 56.317110383262481 -1 0 0 0 -0.74314483375859142 0.66913059716165679 forward_v I I I I #
face $-1 $200 $201 $65 $-1 $202 forward single #
loop $-1 $203 $204 $82 #
cone-surface $-1 -5.3853144303502205 -17.58504728848483 4.5487669813988241 0 0.74314483375859142 -0.66913059716165679 1.5 0 0 1 I I 0 1 1.5 forward I I I I #
face $-1 $205 $206 $66 $-1 $207 forward single #
loop $-1 $208 $209 $83 #
cone-surface $-1 0.77039940007786356 -17.58504728848483 4.5487669813988241 0 0.74314483375859142 -0.66913059716165679 1.5 0 0 1 I I 0 1 1.5 forward I I I I #
face $-1 $210 $211 $67 $-1 $212 forward single #
loop $-1 $213 $214 $84 #
cone-surface $-1 6.9261132305059476 -17.58504728848483 4.5487669813988241 0 0.74314483375859142 -0.66913059716165679 1.5 0 0 1 I I 0 1 1.5 forward I I I I #
face $-1 $215 $216 $51 $-1 $217 reversed single #
loop $-1 $-1 $218 $85 #
plane-surface $-1 0 0 -12.013266137114178 0 0 1 1 0 0 forward_v I I I I #
coedge $-1 $219 $220 $221 $222 forward $86 $-1 #
face $-1 $223 $224 $52 $-1 $225 reversed single #
loop $-1 $-1 $226 $88 #
plane-surface $-1 -35.735113530107952 -13.1539764949557 33.79693021664901 0 0.64278761758704617 0.76604443648966558 1 0 0 forward_v I I I I #
coedge $-1 $227 $228 $229 $230 reversed $89 $-1 #
face $-1 $-1 $231 $53 $-1 $232 forward single #
loop $-1 $233 $234 $91 #
cone-surface $-1 -38.123765025632011 16.853231646617324 4.7372268865624765 0 -0.64278761758704617 -0.76604443648966558 0.5 0 0 1 I I -0.70710678118654746 0.70710678118654746 0.5 forward I I I I #
loop $-1 $-1 $235 $70 #
coedge $-1 $148 $148 $236 $237 reversed $92 $-1 #
face $-1 $-1 $238 $54 $-1 $239 forward single #
loop $-1 $240 $241 $94 #
cone-surface $-1 -33.346462034583894 16.853231646617324 4.7372268865624765 0 -0.64278761758704617 -0.76604443648966558 0.5 0 0 1 I I -0.70710678118654746 0.70710678118654746 0.5 forward I I I I #
loop $-1 $-1 $242 $71 #
coedge $-1 $153 $153 $243 $244 reversed $95 $-1 #
face $-1 $245 $246 $55 $-1 $247 reversed single #
loop $-1 $-1 $248 $97 #
plane-surface $-1 -11.911704510035989 -13.1539764949557 33.79693021664901 0 0.64278761758704617 0.76604443648966558 1 0 0 forward_v I I I I #
coedge $-1 $249 $250 $251 $252 reversed $98 $-1 #
face $-1 $-1 $253 $56 $-1 $254 forward single #
loop $-1 $255 $256 $100 #
cone-surface $-1 -14.300356005560047 16.853231646617324 4.7372268865624765 0 -0.64278761758704617 -0.76604443648966558 0.5 0 0 1 I I -0.70710678118654746 0.70710678118654746 0.5 forward I I I I #
loop $-1 $-1 $257 $73 #
coedge $-1 $162 $162 $258 $259 reversed $101 $-1 #
face $-1 $-1 $260 $57 $-1 $261 forward single #
loop $-1 $262 $263 $103 #
cone-surface $-1 -9.5230530145119303 16.853231646617324 4.7372268865624765 0 -0.64278761758704617 -0.76604443648966558 0.5 0 0 1 I I -0.70710678118654746 0.70710678118654746 0.5 forward I I I I #
loop $-1 $-1 $264 $74 #
coedge $-1 $167 $167 $265 $266 reversed $104 $-1 #
face $-1 $267 $268 $58 $-1 $269 reversed single #
loop $-1 $-1 $270 $106 #
plane-surface $-1 11.911704510035982 -13.1539764949557 33.79693021664901 0 0.64278761758704617 0.76604443648966558 1 0 0 forward_v I I I I #
coedge $-1 $271 $272 $273 $274 reversed $107 $-1 #
face $-1 $-1 $275 $59 $-1 $276 forward single #
loop $-1 $277 $278 $109 #
cone-surface $-1 9.5230530145119232 16.853231646617324 4.7372268865624765 0 -0.64278761758704617 -0.76604443648966558 0.5 0 0 1 I I -0.70710678118654746 0.70710678118654746 0.5 forward I I I I #
loop $-1 $-1 $279 $76 #
coedge $-1 $176 $176 $280 $281 reversed $110 $-1 #
face $-1 $-1 $282 $60 $-1 $283 forward single #
loop $-1 $284 $285 $112 #
cone-surface $-1 14.30035600556004 16.853231646617324 4.7372268865624765 0 -0.64278761758704617 -0.76604443648966558 0.5 0 0 1 I I -0.70710678118654746 0.70710678118654746 0.5 forward I I I I #
loop $-1 $-1 $286 $77 #
coedge $-1 $181 $181 $287 $288 reversed $113 $-1 #
face $-1 $289 $290 $61 $-1 $291 forward single #
loop $-1 $-1 $292 $115 #
plane-surface $-1 30.16159337388514 39.9513799710694 97.085428245455532 1 0 0 0 -0.64278761758704617 -0.76604443648966558 forward_v I I I I #
coedge $-1 $293 $294 $295 $296 reversed $116 $-1 #
face $-1 $-1 $297 $62 $-1 $298 forward single #
loop $-1 $299 $300 $118 #
cone-surface $-1 33.346462034583887 16.853231646617324 4.7372268865624765 0 -0.64278761758704617 -0.76604443648966558 0.5 0 0 1 I I -0.70710678118654746 0.70710678118654746 0.5 forward I I I I #
loop $-1 $-1 $301 $79 #
coedge $-1 $190 $190 $302 $303 reversed $119 $-1 #
face $-1 $-1 $304 $63 $-1 $305 forward single #
loop $-1 $306 $307 $121 #
cone-surface $-1 38.123765025632004 16.853231646617324 4.7372268865624765 0 -0.64278761758704617 -0.76604443648966558 0.5 0 0 1 I I -0.70710678118654746 0.70710678118654746 0.5 forward I I I I #
loop $-1 $-1 $308 $80 #
coedge $-1 $195 $195 $309 $310 reversed $122 $-1 #
face $-1 $311 $312 $64 $-1 $313 reversed single #
loop $-1 $-1 $314 $124 #
plane-surface $-1 0.77039940007786356 -24.721389908611442 1.0353689303292199 0 -0.74314483375859142 0.66913059716165679 1 0 0 forward_v I I I I #
coedge $-1 $315 $316 $317 $318 reversed $125 $-1 #
face $-1 $-1 $319 $65 $-1 $320 forward single #
loop $-1 $321 $322 $127 #
cone-surface $-1 -5.3853144303502205 -14.83361744147134 2.0713684812047042 0 0.74314483375859142 -0.66913059716165679 0.75 0 0 1 I I -0.70710678118654757 0.70710678118654757 0.75 forward I I I I #
loop $-1 $-1 $323 $82 #
coedge $-1 $204 $204 $324 $325 reversed $128 $-1 #
face $-1 $-1 $326 $66 $-1 $327 forward single #
loop $-1 $328 $329 $130 #
cone-surface $-1 0.77039940007786356 -14.83361744147134 2.0713684812047042 0 0.74314483375859142 -0.66913059716165679 0.75 0 0 1 I I -0.70710678118654757 0.70710678118654757 0.75 forward I I I I #
loop $-1 $-1 $330 $83 #
coedge $-1 $209 $209 $331 $332 reversed $131 $-1 #
face $-1 $-1 $333 $67 $-1 $334 forward single #
loop $-1 $335 $336 $133 #
cone-surface $-1 6.9261132305059476 -14.83361744147134 2.0713684812047042 0 0.74314483375859142 -0.66913059716165679 0.75 0 0 1 I I -0.70710678118654757 0.70710678118654757 0.75 forward I I I I #
loop $-1 $-1 $337 $84 #
coedge $-1 $214 $214 $338 $339 reversed $134 $-1 #
face $-1 $340 $341 $51 $-1 $342 reversed single #
loop $-1 $-1 $343 $136 #
plane-surface $-1 0 -24.721389908611457 0 0 1 0 0 0 1 forward_v I I I I #
coedge $-1 $344 $345 $346 $347 forward $137 $-1 #
coedge $-1 $348 $139 $349 $350 forward $86 $-1 #
coedge $-1 $139 $348 $351 $352 forward $86 $-1 #
coedge $-1 $353 $354 $139 $222 reversed $355 $-1 #
edge $-1 $356 -24.721389908611457 $357 24.721389908611457 $221 $358 forward 7 unknown #
face $-1 $359 $360 $52 $-1 $361 forward single #
loop $-1 $-1 $229 $140 #
plane-surface $-1 0 24.721389908611457 0 0 -1 0 0 0 -1 forward_v I I I I #
coedge $-1 $362 $363 $364 $365 reversed $141 $-1 #
coedge $-1 $228 $143 $366 $367 reversed $89 $-1 #
coedge $-1 $143 $227 $362 $368 reversed $89 $-1 #
coedge $-1 $364 $369 $143 $230 forward $224 $-1 #
edge $-1 $370 36.529447985613587 $371 46.526990551672384 $229 $372 forward 7 unknown #
loop $-1 $-1 $236 $144 #
plane-surface $-1 -35.735113530107952 -13.1539764949557 33.79693021664901 0 0.64278761758704617 0.76604443648966558 1 0 0 forward_v I I I I #
loop $-1 $-1 $373 $91 #
coedge $-1 $234 $234 $235 $374 reversed $145 $-1 #
coedge $-1 $235 $235 $234 $374 forward $147 $-1 #
coedge $-1 $236 $236 $148 $237 forward $231 $-1 #
edge $-1 $375 -2.549668169306083e-015 $375 6.2831853071795978 $236 $376 forward 7 unknown #
loop $-1 $-1 $243 $149 #
plane-surface $-1 -35.735113530107952 -13.1539764949557 33.79693021664901 0 0.64278761758704617 0.76604443648966558 1 0 0 forward_v I I I I #
loop $-1 $-1 $377 $94 #
coedge $-1 $241 $241 $242 $378 reversed $150 $-1 #
coedge $-1 $242 $242 $241 $378 forward $152 $-1 #
coedge $-1 $243 $243 $153 $244 forward $238 $-1 #
edge $-1 $379 -2.549668169306083e-015 $379 6.2831853071795978 $243 $380 forward 7 unknown #
face $-1 $381 $382 $55 $-1 $383 forward single #
loop $-1 $-1 $384 $154 #
plane-surface $-1 -17.485224666258794 39.9513799710694 97.085428245455532 1 0 0 0 -0.64278761758704617 -0.76604443648966558 forward_v I I I I #
coedge $-1 $385 $386 $387 $388 reversed $155 $-1 #
coedge $-1 $250 $157 $389 $390 reversed $98 $-1 #
coedge $-1 $157 $249 $385 $391 reversed $98 $-1 #
coedge $-1 $387 $392 $157 $252 forward $393 $-1 #
edge $-1 $394 36.529447985613587 $395 46.526990551672384 $251 $396 forward 7 unknown #
loop $-1 $-1 $258 $158 #
plane-surface $-1 -11.911704510035989 -13.1539764949557 33.79693021664901 0 0.64278761758704617 0.76604443648966558 1 0 0 forward_v I I I I #
loop $-1 $-1 $397 $100 #
coedge $-1 $256 $256 $257 $398 reversed $159 $-1 #
coedge $-1 $257 $257 $256 $398 forward $161 $-1 #
coedge $-1 $258 $258 $162 $259 forward $253 $-1 #
edge $-1 $399 -2.549668169306083e-015 $399 6.2831853071795978 $258 $400 forward 7 unknown #
loop $-1 $-1 $265 $163 #
plane-surface $-1 -11.911704510035989 -13.1539764949557 33.79693021664901 0 0.64278761758704617 0.76604443648966558 1 0 0 forward_v I I I I #
loop $-1 $-1 $401 $103 #
coedge $-1 $263 $263 $264 $402 reversed $164 $-1 #
coedge $-1 $264 $264 $263 $402 forward $166 $-1 #
coedge $-1 $265 $265 $167 $266 forward $260 $-1 #
edge $-1 $403 -2.549668169306083e-015 $403 6.2831853071795978 $265 $404 forward 7 unknown #
face $-1 $405 $406 $58 $-1 $407 forward single #
loop $-1 $-1 $408 $168 #
plane-surface $-1 6.3381843538131779 39.9513799710694 97.085428245455532 1 0 0 0 -0.64278761758704617 -0.76604443648966558 forward_v I I I I #
coedge $-1 $409 $410 $411 $412 reversed $169 $-1 #
coedge $-1 $272 $171 $413 $414 reversed $107 $-1 #
coedge $-1 $171 $271 $409 $415 reversed $107 $-1 #
coedge $-1 $411 $416 $171 $274 forward $417 $-1 #
edge $-1 $418 36.529447985613587 $419 46.526990551672384 $273 $420 forward 7 unknown #
loop $-1 $-1 $280 $172 #
plane-surface $-1 11.911704510035982 -13.1539764949557 33.79693021664901 0 0.64278761758704617 0.76604443648966558 1 0 0 forward_v I I I I #
loop $-1 $-1 $421 $109 #
coedge $-1 $278 $278 $279 $422 reversed $173 $-1 #
coedge $-1 $279 $279 $278 $422 forward $175 $-1 #
coedge $-1 $280 $280 $176 $281 forward $275 $-1 #
edge $-1 $423 -2.549668169306083e-015 $423 6.2831853071795978 $280 $424 forward 7 unknown #
loop $-1 $-1 $287 $177 #
plane-surface $-1 11.911704510035982 -13.1539764949557 33.79693021664901 0 0.64278761758704617 0.76604443648966558 1 0 0 forward_v I I I I #
loop $-1 $-1 $425 $112 #
coedge $-1 $285 $285 $286 $426 reversed $178 $-1 #
coedge $-1 $286 $286 $285 $426 forward $180 $-1 #
coedge $-1 $287 $287 $181 $288 forward $282 $-1 #
edge $-1 $427 -2.549668169306083e-015 $427 6.2831853071795978 $287 $428 forward 7 unknown #
face $-1 $429 $430 $61 $-1 $431 reversed single #
loop $-1 $-1 $432 $182 #
plane-surface $-1 0 0 12.013266137114178 0 0 1 1 0 0 forward_v I I I I #
coedge $-1 $433 $434 $435 $436 reversed $183 $-1 #
coedge $-1 $437 $185 $438 $439 reversed $116 $-1 #
coedge $-1 $185 $437 $433 $440 forward $116 $-1 #
coedge $-1 $435 $441 $185 $296 forward $442 $-1 #
edge $-1 $443 -23.441076921276778 $444 -12.294036608831167 $295 $445 forward 7 unknown #
loop $-1 $-1 $302 $186 #
plane-surface $-1 35.735113530107945 -13.1539764949557 33.79693021664901 0 0.64278761758704617 0.76604443648966558 1 0 0 forward_v I I I I #
loop $-1 $-1 $446 $118 #
coedge $-1 $300 $300 $301 $447 reversed $187 $-1 #
coedge $-1 $301 $301 $300 $447 forward $189 $-1 #
coedge $-1 $302 $302 $190 $303 forward $297 $-1 #
edge $-1 $448 -2.549668169306083e-015 $448 6.2831853071795978 $302 $449 forward 7 unknown #
loop $-1 $-1 $309 $191 #
plane-surface $-1 35.735113530107945 -13.1539764949557 33.79693021664901 0 0.64278761758704617 0.76604443648966558 1 0 0 forward_v I I I I #
loop $-1 $-1 $450 $121 #
coedge $-1 $307 $307 $308 $451 reversed $192 $-1 #
coedge $-1 $308 $308 $307 $451 forward $194 $-1 #
coedge $-1 $309 $309 $195 $310 forward $304 $-1 #
edge $-1 $452 -2.549668169306083e-015 $452 6.2831853071795978 $309 $453 forward 7 unknown #
face $-1 $454 $455 $64 $-1 $456 forward single #
loop $-1 $-1 $457 $196 #
plane-surface $-1 -9.4891236506356105 -86.117985335857085 56.317110383262481 1 0 0 0 0.74314483375859142 -0.66913059716165679 forward_v I I I I #
coedge $-1 $458 $459 $460 $461 reversed $197 $-1 #
coedge $-1 $316 $199 $462 $463 reversed $125 $-1 #
coedge $-1 $199 $315 $458 $464 reversed $125 $-1 #
coedge $-1 $460 $465 $199 $318 forward $455 $-1 #
edge $-1 $466 18.337602759317086 $467 28.222145556181268 $317 $468 forward 7 unknown #
loop $-1 $-1 $324 $200 #
plane-surface $-1 0.77039940007786356 -24.721389908611442 1.0353689303292199 0 -0.74314483375859142 0.66913059716165679 1 0 0 forward_v I I I I #
loop $-1 $-1 $469 $127 #
coedge $-1 $322 $322 $323 $470 reversed $201 $-1 #
coedge $-1 $323 $323 $322 $470 forward $203 $-1 #
coedge $-1 $324 $324 $204 $325 forward $319 $-1 #
edge $-1 $471 5.2590278156781206e-016 $471 6.2831853071796013 $324 $472 forward 7 unknown #
loop $-1 $-1 $331 $205 #
plane-surface $-1 0.77039940007786356 -24.721389908611442 1.0353689303292199 0 -0.74314483375859142 0.66913059716165679 1 0 0 forward_v I I I I #
loop $-1 $-1 $473 $130 #
coedge $-1 $329 $329 $330 $474 reversed $206 $-1 #
coedge $-1 $330 $330 $329 $474 forward $208 $-1 #
coedge $-1 $331 $331 $209 $332 forward $326 $-1 #
edge $-1 $475 5.2590278156781206e-016 $475 6.2831853071796013 $331 $476 forward 7 unknown #
loop $-1 $-1 $338 $210 #
plane-surface $-1 0.77039940007786356 -24.721389908611442 1.0353689303292199 0 -0.74314483375859142 0.66913059716165679 1 0 0 forward_v I I I I #
loop $-1 $-1 $477 $133 #
coedge $-1 $336 $336 $337 $478 reversed $211 $-1 #
coedge $-1 $337 $337 $336 $478 forward $213 $-1 #
coedge $-1 $338 $338 $214 $339 forward $333 $-1 #
edge $-1 $479 5.2590278156781206e-016 $479 6.2831853071796013 $338 $480 forward 7 unknown #
face $-1 $481 $482 $51 $-1 $483 reversed single #
loop $-1 $-1 $484 $215 #
plane-surface $-1 -41.308633686330758 0 0 1 0 0 0 0 -1 forward_v I I I I #
coedge $-1 $485 $351 $486 $487 forward $216 $-1 #
coedge $-1 $488 $218 $485 $489 forward $137 $-1 #
coedge $-1 $218 $488 $490 $491 forward $137 $-1 #
coedge $-1 $354 $353 $218 $347 reversed $355 $-1 #
edge $-1 $492 -24.721389908611457 $493 24.721389908611457 $346 $494 forward 7 unknown #
coedge $-1 $220 $219 $495 $496 forward $86 $-1 #
coedge $-1 $497 $498 $219 $350 reversed $482 $-1 #
edge $-1 $357 -41.308633686330758 $499 41.308633686330758 $349 $500 forward 7 unknown #
coedge $-1 $343 $501 $220 $352 reversed $216 $-1 #
edge $-1 $502 -41.308633686330758 $356 41.308633686330758 $351 $503 forward 7 unknown #
coedge $-1 $346 $221 $501 $504 forward $355 $-1 #
coedge $-1 $221 $346 $497 $505 reversed $355 $-1 #
loop $-1 $-1 $353 $481 #
vertex $-1 $222 $506 #
vertex $-1 $222 $507 #
straight-curve $-1 41.308633686330758 0 12.013266137114178 0 1 0 I I #
face $-1 $-1 $508 $52 $-1 $509 reversed single #
loop $-1 $-1 $366 $223 #
plane-surface $-1 0 0 12.013266137114178 0 0 1 1 0 0 forward_v I I I I #
coedge $-1 $510 $226 $228 $368 forward $141 $-1 #
coedge $-1 $226 $510 $511 $512 reversed $141 $-1 #
coedge $-1 $513 $229 $226 $365 forward $224 $-1 #
edge $-1 $371 12.294036608831171 $514 23.441076921276782 $364 $515 forward 7 unknown #
coedge $-1 $516 $517 $227 $367 forward $360 $-1 #
edge $-1 $518 -7.1689070975863842 $370 4.7456999230767565 $366 $519 forward 7 unknown #
edge $-1 $371 -49.442779817222942 $518 -33.889364828321213 $228 $520 forward 7 unknown #
coedge $-1 $229 $513 $516 $521 reversed $224 $-1 #
vertex $-1 $521 $522 #
vertex $-1 $230 $523 #
straight-curve $-1 -30.161593373885147 24.721389908611457 48.542714122727766 0 0 -1 I I #
coedge $-1 $373 $373 $-1 $524 reversed $233 $-1 #
edge $-1 $525 0 $525 6.2831853071796004 $234 $526 forward 7 unknown #
vertex $-1 $237 $527 #
ellipse-curve $-1 -38.123765025632011 18.764086398279897 7.0144948540847754 0 0.64278761758704617 0.76604443648966558 1 0 0 1 I I #
coedge $-1 $377 $377 $-1 $528 reversed $240 $-1 #
edge $-1 $529 0 $529 6.2831853071796004 $241 $530 forward 7 unknown #
vertex $-1 $244 $531 #
ellipse-curve $-1 -33.346462034583894 18.764086398279897 7.0144948540847754 0 0.64278761758704617 0.76604443648966558 1 0 0 1 I I #
face $-1 $-1 $393 $55 $-1 $532 reversed single #
loop $-1 $-1 $533 $245 #
plane-surface $-1 0 0 12.013266137114178 0 0 1 1 0 0 forward_v I I I I #
coedge $-1 $534 $535 $536 $537 reversed $246 $-1 #
coedge $-1 $538 $248 $250 $391 forward $155 $-1 #
coedge $-1 $248 $538 $534 $539 forward $155 $-1 #
coedge $-1 $536 $251 $248 $388 forward $393 $-1 #
edge $-1 $395 0.38233209879519059 $540 11.5293724112408 $387 $541 forward 7 unknown #
coedge $-1 $542 $543 $249 $390 forward $382 $-1 #
edge $-1 $544 -7.1689070975863842 $394 4.7456999230767565 $389 $545 forward 7 unknown #
edge $-1 $395 -49.442779817222942 $544 -33.889364828321213 $250 $546 forward 7 unknown #
coedge $-1 $251 $536 $542 $547 reversed $393 $-1 #
loop $-1 $-1 $536 $381 #
vertex $-1 $547 $548 #
vertex $-1 $252 $549 #
straight-curve $-1 -6.338184353813185 24.721389908611457 48.542714122727766 0 0 -1 I I #
coedge $-1 $397 $397 $-1 $550 reversed $255 $-1 #
edge $-1 $551 0 $551 6.2831853071796004 $256 $552 forward 7 unknown #
vertex $-1 $259 $553 #
ellipse-curve $-1 -14.300356005560047 18.764086398279897 7.0144948540847754 0 0.64278761758704617 0.76604443648966558 1 0 0 1 I I #
coedge $-1 $401 $401 $-1 $554 reversed $262 $-1 #
edge $-1 $555 0 $555 6.2831853071796004 $263 $556 forward 7 unknown #
vertex $-1 $266 $557 #
ellipse-curve $-1 -9.5230530145119303 18.764086398279897 7.0144948540847754 0 0.64278761758704617 0.76604443648966558 1 0 0 1 I I #
face $-1 $-1 $417 $58 $-1 $558 reversed single #
loop $-1 $-1 $559 $267 #
plane-surface $-1 0 0 12.013266137114178 0 0 1 1 0 0 forward_v I I I I #
coedge $-1 $560 $561 $562 $563 reversed $268 $-1 #
coedge $-1 $564 $270 $272 $415 forward $169 $-1 #
coedge $-1 $270 $564 $560 $565 forward $169 $-1 #
coedge $-1 $562 $273 $270 $412 forward $417 $-1 #
edge $-1 $419 -11.529372411240796 $566 -0.38233209879518704 $411 $567 forward 7 unknown #
coedge $-1 $568 $569 $271 $414 forward $406 $-1 #
edge $-1 $570 -7.1689070975863842 $418 4.7456999230767565 $413 $571 forward 7 unknown #
edge $-1 $419 -49.442779817222942 $570 -33.889364828321213 $272 $572 forward 7 unknown #
coedge $-1 $273 $562 $568 $573 reversed $417 $-1 #
loop $-1 $-1 $562 $405 #
vertex $-1 $573 $574 #
vertex $-1 $274 $575 #
straight-curve $-1 17.485224666258787 24.721389908611457 48.542714122727766 0 0 -1 I I #
coedge $-1 $421 $421 $-1 $576 reversed $277 $-1 #
edge $-1 $577 0 $577 6.2831853071796004 $278 $578 forward 7 unknown #
vertex $-1 $281 $579 #
ellipse-curve $-1 9.5230530145119232 18.764086398279897 7.0144948540847754 0 0.64278761758704617 0.76604443648966558 1 0 0 1 I I #
coedge $-1 $425 $425 $-1 $580 reversed $284 $-1 #
edge $-1 $581 0 $581 6.2831853071796004 $285 $582 forward 7 unknown #
vertex $-1 $288 $583 #
ellipse-curve $-1 14.30035600556004 18.764086398279897 7.0144948540847754 0 0.64278761758704617 0.76604443648966558 1 0 0 1 I I #
face $-1 $-1 $442 $61 $-1 $584 reversed single #
loop $-1 $-1 $438 $289 #
plane-surface $-1 41.308633686330758 0 0 -1 0 0 0 0 1 forward_v I I I I #
coedge $-1 $585 $586 $434 $587 forward $290 $-1 #
coedge $-1 $434 $292 $294 $440 reversed $183 $-1 #
coedge $-1 $292 $433 $432 $587 reversed $183 $-1 #
coedge $-1 $588 $295 $292 $436 forward $442 $-1 #
edge $-1 $444 -46.526990551672384 $589 -36.529447985613587 $435 $590 forward 7 unknown #
coedge $-1 $294 $293 $585 $591 reversed $116 $-1 #
coedge $-1 $592 $593 $293 $439 forward $430 $-1 #
edge $-1 $594 17.988975444625154 $443 33.542390433526883 $438 $595 forward 7 unknown #
edge $-1 $596 33.889364828321213 $444 49.442779817222942 $433 $597 forward 7 unknown #
coedge $-1 $295 $588 $592 $598 forward $442 $-1 #
loop $-1 $-1 $435 $429 #
vertex $-1 $439 $599 #
vertex $-1 $296 $600 #
straight-curve $-1 17.867556765053973 24.721389908611453 2.0157235710553909 -1 0 0 I I #
coedge $-1 $446 $446 $-1 $601 reversed $299 $-1 #
edge $-1 $602 0 $602 6.2831853071796004 $300 $603 forward 7 unknown #
vertex $-1 $303 $604 #
ellipse-curve $-1 33.346462034583887 18.764086398279897 7.0144948540847754 0 0.64278761758704617 0.76604443648966558 1 0 0 1 I I #
coedge $-1 $450 $450 $-1 $605 reversed $306 $-1 #
edge $-1 $606 0 $606 6.2831853071796004 $307 $607 forward 7 unknown #
vertex $-1 $310 $608 #
ellipse-curve $-1 38.123765025632004 18.764086398279897 7.0144948540847754 0 0.64278761758704617 0.76604443648966558 1 0 0 1 I I #
face $-1 $-1 $609 $64 $-1 $610 reversed single #
loop $-1 $-1 $317 $311 #
plane-surface $-1 0 0 12.013266137114178 0 0 1 1 0 0 forward_v I I I I #
coedge $-1 $611 $612 $613 $614 reversed $312 $-1 #
coedge $-1 $615 $314 $316 $464 forward $197 $-1 #
coedge $-1 $314 $615 $611 $616 forward $197 $-1 #
coedge $-1 $613 $317 $314 $461 forward $455 $-1 #
edge $-1 $467 -10.644722750752406 $617 9.8743233506745423 $460 $618 forward 7 unknown #
coedge $-1 $619 $620 $315 $463 forward $609 $-1 #
edge $-1 $621 -27.123186261302035 $466 -16.145289054517065 $462 $622 forward 7 unknown #
edge $-1 $467 -14.772217619090783 $621 2.1224720073754982e-014 $316 $623 forward 7 unknown #
coedge $-1 $317 $613 $619 $624 forward $455 $-1 #
vertex $-1 $318 $625 #
vertex $-1 $318 $626 #
straight-curve $-1 11.029922450791338 -43.058992667928543 12.013266137114179 0 1 0 I I #
coedge $-1 $469 $469 $-1 $627 reversed $321 $-1 #
edge $-1 $628 0 $628 6.2831853071796004 $322 $629 forward 7 unknown #
vertex $-1 $325 $630 #
ellipse-curve $-1 -5.3853144303502205 -19.779118510179366 6.5243175337216908 0 -0.74314483375859142 0.66913059716165679 1.5 0 0 1 I I #
coedge $-1 $473 $473 $-1 $631 reversed $328 $-1 #
edge $-1 $632 0 $632 6.2831853071796004 $329 $633 forward 7 unknown #
vertex $-1 $332 $634 #
ellipse-curve $-1 0.77039940007786356 -19.779118510179366 6.5243175337216908 0 -0.74314483375859142 0.66913059716165679 1.5 0 0 1 I I #
coedge $-1 $477 $477 $-1 $635 reversed $335 $-1 #
edge $-1 $636 0 $636 6.2831853071796004 $336 $637 forward 7 unknown #
vertex $-1 $339 $638 #
ellipse-curve $-1 6.9261132305059476 -19.779118510179366 6.5243175337216908 0 -0.74314483375859142 0.66913059716165679 1.5 0 0 1 I I #
face $-1 $-1 $355 $51 $-1 $639 reversed single #
loop $-1 $-1 $497 $340 #
plane-surface $-1 0 24.721389908611457 0 0 -1 0 0 0 -1 forward_v I I I I #
coedge $-1 $640 $495 $498 $641 forward $341 $-1 #
coedge $-1 $501 $343 $344 $489 reversed $216 $-1 #
coedge $-1 $495 $640 $343 $487 reversed $341 $-1 #
edge $-1 $502 -12.013266137114178 $642 12.013266137114178 $486 $643 forward 7 unknown #
coedge $-1 $345 $344 $640 $644 forward $137 $-1 #
edge $-1 $493 -41.308633686330758 $642 41.308633686330758 $485 $645 forward 7 unknown #
coedge $-1 $498 $497 $345 $491 reversed $482 $-1 #
edge $-1 $646 -41.308633686330758 $492 41.308633686330758 $490 $647 forward 7 unknown #
vertex $-1 $347 $648 #
vertex $-1 $504 $649 #
straight-curve $-1 41.308633686330758 0 -12.013266137114178 0 -1 0 I I #
coedge $-1 $484 $486 $348 $496 reversed $341 $-1 #
edge $-1 $499 -24.721389908611457 $502 24.721389908611457 $495 $650 forward 7 unknown #
coedge $-1 $490 $349 $354 $505 forward $482 $-1 #
coedge $-1 $349 $490 $484 $641 reversed $482 $-1 #
vertex $-1 $350 $651 #
straight-curve $-1 0 24.721389908611457 12.013266137114178 -1 0 0 I I #
coedge $-1 $351 $485 $353 $504 reversed $216 $-1 #
vertex $-1 $496 $652 #
straight-curve $-1 0 -24.721389908611457 12.013266137114178 1 0 0 I I #
edge $-1 $356 -12.013266137114178 $493 12.013266137114178 $353 $653 forward 7 unknown #
edge $-1 $357 -12.013266137114178 $492 12.013266137114178 $354 $654 forward 7 unknown #
point $-1 41.308633686330758 -24.721389908611457 12.013266137114178 #
point $-1 41.308633686330758 24.721389908611457 12.013266137114178 #
loop $-1 $-1 $511 $359 #
plane-surface $-1 -41.308633686330758 0 0 1 0 0 0 0 -1 forward_v I I I I #
coedge $-1 $363 $362 $517 $655 reversed $141 $-1 #
coedge $-1 $656 $657 $363 $512 forward $508 $-1 #
edge $-1 $514 -33.542390433526883 $658 -17.988975444625154 $511 $659 forward 7 unknown #
coedge $-1 $369 $364 $657 $660 reversed $224 $-1 #
vertex $-1 $365 $661 #
straight-curve $-1 -17.867556765053976 24.721389908611453 2.0157235710553909 -1 0 0 I I #
coedge $-1 $662 $366 $369 $521 forward $360 $-1 #
coedge $-1 $366 $662 $510 $655 forward $360 $-1 #
vertex $-1 $367 $663 #
straight-curve $-1 -30.161593373885147 19.9756899855347 12.013266137114179 0 1 0 I I #
straight-curve $-1 -30.161593373885147 -13.1539764949557 33.79693021664901 0 -0.76604443648966558 0.64278761758704617 I I #
edge $-1 $370 30.161593373885147 $664 41.308633686330758 $369 $665 forward 7 unknown #
point $-1 -30.161593373885147 24.721389908611457 12.013266137114178 #
point $-1 -30.161593373885147 24.721389908611457 2.0157235710553856 #
edge $-1 $666 1 $666 0 $373 $-1 forward 7 unknown #
vertex $-1 $374 $667 #
ellipse-curve $-1 -38.123765025632011 17.174625455410848 5.1202491048073089 0 0.64278761758704617 0.76604443648966558 1 0 0 1 I I #
point $-1 -37.123765025632011 18.764086398279904 7.0144948540847878 #
edge $-1 $668 1 $668 0 $377 $-1 forward 7 unknown #
vertex $-1 $378 $669 #
ellipse-curve $-1 -33.346462034583894 17.174625455410848 5.1202491048073089 0 0.64278761758704617 0.76604443648966558 1 0 0 1 I I #
point $-1 -32.346462034583894 18.764086398279904 7.0144948540847878 #
plane-surface $-1 0 24.721389908611457 0 0 -1 0 0 0 -1 forward_v I I I I #
coedge $-1 $543 $542 $535 $670 forward $382 $-1 #
coedge $-1 $535 $384 $386 $539 reversed $246 $-1 #
coedge $-1 $384 $534 $533 $670 reversed $246 $-1 #
coedge $-1 $392 $387 $384 $537 forward $393 $-1 #
edge $-1 $540 -46.526990551672384 $671 -36.529447985613587 $536 $672 forward 7 unknown #
coedge $-1 $386 $385 $543 $673 reversed $155 $-1 #
edge $-1 $674 33.889364828321213 $540 49.442779817222942 $534 $675 forward 7 unknown #
vertex $-1 $388 $676 #
straight-curve $-1 -5.9558522550179944 24.721389908611453 2.0157235710553909 -1 0 0 I I #
coedge $-1 $533 $389 $392 $547 forward $382 $-1 #
coedge $-1 $389 $533 $538 $673 forward $382 $-1 #
vertex $-1 $390 $677 #
straight-curve $-1 -6.338184353813185 19.9756899855347 12.013266137114179 0 1 0 I I #
straight-curve $-1 -6.338184353813185 -13.1539764949557 33.79693021664901 0 -0.76604443648966558 0.64278761758704617 I I #
edge $-1 $394 6.338184353813185 $671 17.485224666258794 $392 $678 forward 7 unknown #
point $-1 -6.338184353813185 24.721389908611457 12.013266137114178 #
point $-1 -6.338184353813185 24.721389908611457 2.0157235710553856 #
edge $-1 $679 1 $679 0 $397 $-1 forward 7 unknown #
vertex $-1 $398 $680 #
ellipse-curve $-1 -14.300356005560047 17.174625455410848 5.1202491048073089 0 0.64278761758704617 0.76604443648966558 1 0 0 1 I I #
point $-1 -13.300356005560047 18.764086398279904 7.0144948540847878 #
edge $-1 $681 1 $681 0 $401 $-1 forward 7 unknown #
vertex $-1 $402 $682 #
ellipse-curve $-1 -9.5230530145119303 17.174625455410848 5.1202491048073089 0 0.64278761758704617 0.76604443648966558 1 0 0 1 I I #
point $-1 -8.5230530145119303 18.764086398279904 7.0144948540847878 #
plane-surface $-1 0 24.721389908611457 0 0 -1 0 0 0 -1 forward_v I I I I #
coedge $-1 $569 $568 $561 $683 forward $406 $-1 #
coedge $-1 $561 $408 $410 $565 reversed $268 $-1 #
coedge $-1 $408 $560 $559 $683 reversed $268 $-1 #
coedge $-1 $416 $411 $408 $563 forward $417 $-1 #
edge $-1 $566 -46.526990551672384 $684 -36.529447985613587 $562 $685 forward 7 unknown #
coedge $-1 $410 $409 $569 $686 reversed $169 $-1 #
edge $-1 $687 33.889364828321213 $566 49.442779817222942 $560 $688 forward 7 unknown #
vertex $-1 $412 $689 #
straight-curve $-1 5.9558522550179909 24.721389908611453 2.0157235710553909 -1 0 0 I I #
coedge $-1 $559 $413 $416 $573 forward $406 $-1 #
coedge $-1 $413 $559 $564 $686 forward $406 $-1 #
vertex $-1 $414 $690 #
straight-curve $-1 17.485224666258787 19.9756899855347 12.013266137114179 0 1 0 I I #
straight-curve $-1 17.485224666258787 -13.1539764949557 33.79693021664901 0 -0.76604443648966558 0.64278761758704617 I I #
edge $-1 $418 -17.485224666258787 $684 -6.3381843538131779 $416 $691 forward 7 unknown #
point $-1 17.485224666258787 24.721389908611457 12.013266137114178 #
point $-1 17.485224666258787 24.721389908611457 2.0157235710553856 #
edge $-1 $692 1 $692 0 $421 $-1 forward 7 unknown #
vertex $-1 $422 $693 #
ellipse-curve $-1 9.5230530145119232 17.174625455410848 5.1202491048073089 0 0.64278761758704617 0.76604443648966558 1 0 0 1 I I #
point $-1 10.523053014511923 18.764086398279904 7.0144948540847878 #
edge $-1 $694 1 $694 0 $425 $-1 forward 7 unknown #
vertex $-1 $426 $695 #
ellipse-curve $-1 14.30035600556004 17.174625455410848 5.1202491048073089 0 0.64278761758704617 0.76604443648966558 1 0 0 1 I I #
point $-1 15.30035600556004 18.764086398279904 7.0144948540847878 #
plane-surface $-1 0 24.721389908611457 0 0 -1 0 0 0 -1 forward_v I I I I #
coedge $-1 $696 $432 $437 $591 forward $290 $-1 #
coedge $-1 $432 $696 $588 $697 forward $290 $-1 #
edge $-1 $589 -4.7456999230767565 $596 7.1689070975863842 $432 $698 forward 7 unknown #
coedge $-1 $441 $435 $586 $697 reversed $442 $-1 #
vertex $-1 $436 $699 #
straight-curve $-1 30.16159337388514 24.721389908611457 48.542714122727766 0 0 1 I I #
edge $-1 $596 12.294036608831167 $594 23.441076921276778 $585 $700 forward 7 unknown #
coedge $-1 $593 $438 $441 $598 reversed $430 $-1 #
coedge $-1 $438 $592 $696 $701 reversed $430 $-1 #
vertex $-1 $701 $702 #
straight-curve $-1 41.308633686330758 -0.97357166955599261 23.57635680599666 0 0.76604443648966558 -0.64278761758704617 I I #
vertex $-1 $591 $703 #
straight-curve $-1 30.16159337388514 -13.1539764949557 33.79693021664901 0 0.76604443648966558 -0.64278761758704617 I I #
edge $-1 $704 -12.013266137114178 $443 -2.0157235710553856 $592 $705 forward 7 unknown #
point $-1 41.308633686330751 24.721389908611457 2.0157235710553856 #
point $-1 30.16159337388514 24.721389908611457 2.0157235710553856 #
edge $-1 $706 1 $706 0 $446 $-1 forward 7 unknown #
vertex $-1 $447 $707 #
ellipse-curve $-1 33.346462034583887 17.174625455410848 5.1202491048073089 0 0.64278761758704617 0.76604443648966558 1 0 0 1 I I #
point $-1 34.346462034583887 18.764086398279904 7.0144948540847878 #
edge $-1 $708 1 $708 0 $450 $-1 forward 7 unknown #
vertex $-1 $451 $709 #
ellipse-curve $-1 38.123765025632004 17.174625455410848 5.1202491048073089 0 0.64278761758704617 0.76604443648966558 1 0 0 1 I I #
point $-1 39.123765025632004 18.764086398279904 7.0144948540847878 #
loop $-1 $-1 $462 $454 #
plane-surface $-1 0 -24.721389908611457 0 0 1 0 0 0 1 forward_v I I I I #
coedge $-1 $612 $457 $459 $616 reversed $312 $-1 #
coedge $-1 $457 $611 $710 $711 reversed $312 $-1 #
coedge $-1 $465 $460 $457 $614 forward $455 $-1 #
edge $-1 $617 -28.222145556181268 $712 -18.337602759317086 $613 $713 forward 7 unknown #
coedge $-1 $459 $458 $620 $714 reversed $197 $-1 #
edge $-1 $715 -2.1224720073754982e-014 $617 14.772217619090783 $611 $716 forward 7 unknown #
vertex $-1 $461 $717 #
straight-curve $-1 0.38519970003893178 -14.836847111747273 12.013266137114178 -1 0 0 I I #
coedge $-1 $710 $462 $465 $624 reversed $609 $-1 #
coedge $-1 $462 $710 $615 $714 forward $609 $-1 #
vertex $-1 $463 $718 #
straight-curve $-1 11.029922450791338 -24.721389908611457 28.15855519163124 0 0 1 I I #
straight-curve $-1 11.029922450791338 -24.721389908611442 1.0353689303292199 0 -0.66913059716165679 -0.74314483375859142 I I #
edge $-1 $712 -9.4891236506356105 $466 11.029922450791338 $619 $719 forward 7 unknown #
point $-1 11.029922450791338 -24.721389908611457 12.013266137114178 #
point $-1 11.029922450791338 -14.836847111747277 12.013266137114178 #
edge $-1 $720 1 $720 0 $469 $-1 forward 7 unknown #
vertex $-1 $470 $721 #
ellipse-curve $-1 -5.3853144303502205 -15.390976066790284 2.5732164290759467 0 -0.74314483375859142 0.66913059716165679 1.5 0 0 1 I I #
point $-1 -3.8853144303502205 -19.779118510179376 6.5243175337217014 #
edge $-1 $722 1 $722 0 $473 $-1 forward 7 unknown #
vertex $-1 $474 $723 #
ellipse-curve $-1 0.77039940007786356 -15.390976066790284 2.5732164290759467 0 -0.74314483375859142 0.66913059716165679 1.5 0 0 1 I I #
point $-1 2.2703994000778636 -19.779118510179376 6.5243175337217014 #
edge $-1 $724 1 $724 0 $477 $-1 forward 7 unknown #
vertex $-1 $478 $725 #
ellipse-curve $-1 6.9261132305059476 -15.390976066790284 2.5732164290759467 0 -0.74314483375859142 0.66913059716165679 1.5 0 0 1 I I #
point $-1 8.4261132305059476 -19.779118510179376 6.5243175337217014 #
plane-surface $-1 41.308633686330758 0 0 -1 0 0 0 0 1 forward_v I I I I #
coedge $-1 $486 $484 $488 $644 reversed $341 $-1 #
edge $-1 $499 -12.013266137114178 $646 12.013266137114178 $498 $726 forward 7 unknown #
vertex $-1 $644 $727 #
straight-curve $-1 -41.308633686330758 -24.721389908611457 0 0 0 -1 I I #
edge $-1 $642 -24.721389908611457 $646 24.721389908611457 $640 $728 forward 7 unknown #
straight-curve $-1 0 -24.721389908611457 -12.013266137114178 -1 0 0 I I #
vertex $-1 $491 $729 #
straight-curve $-1 0 24.721389908611457 -12.013266137114178 1 0 0 I I #
point $-1 41.308633686330758 24.721389908611457 -12.013266137114178 #
point $-1 41.308633686330758 -24.721389908611457 -12.013266137114178 #
straight-curve $-1 -41.308633686330758 0 12.013266137114178 0 -1 0 I I #
point $-1 -41.308633686330758 24.721389908611457 12.013266137114178 #
point $-1 -41.308633686330758 -24.721389908611457 12.013266137114178 #
straight-curve $-1 41.308633686330758 -24.721389908611457 0 0 0 -1 I I #
straight-curve $-1 41.308633686330758 24.721389908611457 0 0 0 -1 I I #
edge $-1 $658 -23.441076921276782 $518 -12.294036608831171 $517 $730 forward 7 unknown #
coedge $-1 $657 $511 $662 $731 reversed $508 $-1 #
coedge $-1 $511 $656 $513 $660 forward $508 $-1 #
vertex $-1 $512 $732 #
straight-curve $-1 -41.308633686330758 -0.97357166955599261 23.57635680599666 0 -0.76604443648966558 0.64278761758704617 I I #
edge $-1 $664 -12.013266137114178 $514 -2.0157235710553851 $513 $733 forward 7 unknown #
point $-1 -41.308633686330758 24.721389908611457 2.0157235710553851 #
coedge $-1 $517 $516 $656 $731 forward $360 $-1 #
point $-1 -30.161593373885147 12.806782887948316 12.013266137114183 #
vertex $-1 $521 $734 #
straight-curve $-1 0 24.721389908611457 12.013266137114178 -1 0 0 I I #
vertex $-1 $524 $735 #
point $-1 -37.123765025632011 17.174625455410848 5.1202491048073089 #
vertex $-1 $528 $736 #
point $-1 -32.346462034583894 17.174625455410848 5.1202491048073089 #
edge $-1 $671 -4.7456999230767565 $674 7.1689070975863842 $533 $737 forward 7 unknown #
vertex $-1 $670 $738 #
straight-curve $-1 -17.485224666258794 24.721389908611457 48.542714122727766 0 0 1 I I #
edge $-1 $674 -11.5293724112408 $544 -0.38233209879519059 $543 $739 forward 7 unknown #
vertex $-1 $673 $740 #
straight-curve $-1 -17.485224666258794 -13.1539764949557 33.79693021664901 0 0.76604443648966558 -0.64278761758704617 I I #
point $-1 -17.485224666258794 24.721389908611457 2.0157235710553856 #
point $-1 -6.338184353813185 12.806782887948316 12.013266137114183 #
straight-curve $-1 0 24.721389908611457 12.013266137114178 -1 0 0 I I #
vertex $-1 $550 $741 #
point $-1 -13.300356005560047 17.174625455410848 5.1202491048073089 #
vertex $-1 $554 $742 #
point $-1 -8.5230530145119303 17.174625455410848 5.1202491048073089 #
edge $-1 $684 -4.7456999230767565 $687 7.1689070975863842 $559 $743 forward 7 unknown #
vertex $-1 $563 $744 #
straight-curve $-1 6.3381843538131779 24.721389908611457 48.542714122727766 0 0 1 I I #
edge $-1 $687 0.38233209879518704 $570 11.529372411240796 $569 $745 forward 7 unknown #
vertex $-1 $686 $746 #
straight-curve $-1 6.3381843538131779 -13.1539764949557 33.79693021664901 0 0.76604443648966558 -0.64278761758704617 I I #
point $-1 6.3381843538131779 24.721389908611457 2.0157235710553856 #
point $-1 17.485224666258787 12.806782887948316 12.013266137114183 #
straight-curve $-1 0 24.721389908611457 12.013266137114178 -1 0 0 I I #
vertex $-1 $576 $747 #
point $-1 10.523053014511923 17.174625455410848 5.1202491048073089 #
vertex $-1 $580 $748 #
point $-1 15.30035600556004 17.174625455410848 5.1202491048073089 #
coedge $-1 $586 $585 $593 $701 forward $290 $-1 #
edge $-1 $704 -41.308633686330758 $589 -30.16159337388514 $588 $749 forward 7 unknown #
straight-curve $-1 30.16159337388514 19.9756899855347 12.013266137114179 0 -1 0 I I #
point $-1 30.16159337388514 24.721389908611457 12.013266137114178 #
straight-curve $-1 17.867556765053973 12.806782887948319 12.013266137114178 1 0 0 I I #
edge $-1 $594 12.806782887948316 $704 24.721389908611457 $593 $750 forward 7 unknown #
point $-1 41.308633686330751 12.806782887948316 12.013266137114183 #
point $-1 30.16159337388514 12.806782887948316 12.013266137114183 #
vertex $-1 $701 $751 #
straight-curve $-1 41.308633686330758 24.721389908611457 0 0 0 -1 I I #
vertex $-1 $601 $752 #
point $-1 34.346462034583887 17.174625455410848 5.1202491048073089 #
vertex $-1 $605 $753 #
point $-1 39.123765025632004 17.174625455410848 5.1202491048073089 #
coedge $-1 $620 $619 $612 $711 forward $609 $-1 #
edge $-1 $712 16.145289054517065 $715 27.123186261302035 $710 $754 forward 7 unknown #
vertex $-1 $624 $755 #
straight-curve $-1 -9.4891236506356105 -43.058992667928543 12.013266137114179 0 -1 0 I I #
edge $-1 $715 -9.8743233506745423 $621 10.644722750752406 $620 $756 forward 7 unknown #
vertex $-1 $714 $757 #
straight-curve $-1 -9.4891236506356105 -24.721389908611442 1.0353689303292199 0 0.66913059716165679 0.74314483375859142 I I #
point $-1 -9.4891236506356105 -14.836847111747277 12.013266137114178 #
point $-1 11.029922450791338 -24.721389908611457 1.0353689303292042 #
straight-curve $-1 0 -24.721389908611457 12.013266137114178 1 0 0 I I #
vertex $-1 $627 $758 #
point $-1 -3.8853144303502205 -15.390976066790284 2.5732164290759467 #
vertex $-1 $631 $759 #
point $-1 2.2703994000778636 -15.390976066790284 2.5732164290759467 #
vertex $-1 $635 $760 #
point $-1 8.4261132305059476 -15.390976066790284 2.5732164290759467 #
straight-curve $-1 -41.308633686330758 24.721389908611457 0 0 0 -1 I I #
point $-1 -41.308633686330758 -24.721389908611457 -12.013266137114178 #
straight-curve $-1 -41.308633686330758 0 -12.013266137114178 0 1 0 I I #
point $-1 -41.308633686330758 24.721389908611457 -12.013266137114178 #
straight-curve $-1 -17.867556765053976 12.806782887948319 12.013266137114178 1 0 0 I I #
edge $-1 $664 -24.721389908611457 $658 -12.806782887948316 $656 $761 forward 7 unknown #
point $-1 -41.308633686330758 12.806782887948316 12.013266137114183 #
straight-curve $-1 -41.308633686330758 24.721389908611457 0 0 0 -1 I I #
point $-1 -41.308633686330758 24.721389908611457 12.013266137114178 #
point $-1 -38.123765025632011 16.531837837823801 4.3542046683176441 #
point $-1 -33.346462034583894 16.531837837823801 4.3542046683176441 #
straight-curve $-1 -17.485224666258794 19.9756899855347 12.013266137114179 0 -1 0 I I #
point $-1 -17.485224666258794 24.721389908611457 12.013266137114178 #
straight-curve $-1 -5.9558522550179944 12.806782887948319 12.013266137114178 1 0 0 I I #
point $-1 -17.485224666258794 12.806782887948316 12.013266137114183 #
point $-1 -14.300356005560047 16.531837837823801 4.3542046683176441 #
point $-1 -9.5230530145119303 16.531837837823801 4.3542046683176441 #
straight-curve $-1 6.3381843538131779 19.9756899855347 12.013266137114179 0 -1 0 I I #
point $-1 6.3381843538131779 24.721389908611457 12.013266137114178 #
straight-curve $-1 5.9558522550179909 12.806782887948319 12.013266137114178 1 0 0 I I #
point $-1 6.3381843538131779 12.806782887948316 12.013266137114183 #
point $-1 9.5230530145119232 16.531837837823801 4.3542046683176441 #
point $-1 14.30035600556004 16.531837837823801 4.3542046683176441 #
straight-curve $-1 0 24.721389908611457 12.013266137114178 -1 0 0 I I #
straight-curve $-1 41.308633686330758 0 12.013266137114178 0 1 0 I I #
point $-1 41.308633686330758 24.721389908611457 12.013266137114178 #
point $-1 33.346462034583887 16.531837837823801 4.3542046683176441 #
point $-1 38.123765025632004 16.531837837823801 4.3542046683176441 #
straight-curve $-1 -9.4891236506356105 -24.721389908611457 28.15855519163124 0 0 -1 I I #
point $-1 -9.4891236506356105 -24.721389908611457 12.013266137114178 #
straight-curve $-1 0.38519970003893178 -24.721389908611457 1.0353689303292057 1 0 0 I I #
point $-1 -9.4891236506356105 -24.721389908611457 1.0353689303292042 #
point $-1 -5.3853144303502205 -14.276258816152396 1.5695205333334616 #
point $-1 0.77039940007786356 -14.276258816152396 1.5695205333334616 #
point $-1 6.9261132305059476 -14.276258816152396 1.5695205333334616 #
straight-curve $-1 -41.308633686330758 0 12.013266137114178 0 -1 0 I I #
End-of-ACIS-data 