500 0 8 0           
7 Unknown 11 ACIS 5.0 NT 24 Thu Mar 25 17:09:26 1999 
-1 9.9999999999999995e-007 1e-010 
body $-1 $8 $-1 $9 #
body $-1 $10 $-1 $11 #
body $-1 $12 $-1 $13 #
body $-1 $14 $-1 $15 #
body $-1 $16 $-1 $17 #
body $-1 $18 $-1 $19 #
body $-1 $20 $-1 $21 #
body $-1 $22 $-1 $23 #
lump $-1 $-1 $24 $0 #
transform $-1 1 0 0 0 1 0 0 0 1 57.846003601184115 37.955889969364875 9.4114204786247058 1 rotate no_reflect no_shear #
lump $-1 $-1 $25 $1 #
transform $-1 1 0 0 0 1 0 0 0 1 57.846003601184115 37.955889969364875 9.4114204786247058 1 rotate no_reflect no_shear #
lump $-1 $-1 $26 $2 #
transform $-1 1 0 0 0 1 0 0 0 1 57.846003601184115 37.955889969364875 9.4114204786247058 1 rotate no_reflect no_shear #
lump $-1 $-1 $27 $3 #
transform $-1 1 0 0 0 1 0 0 0 1 57.846003601184115 37.955889969364875 9.4114204786247058 1 rotate no_reflect no_shear #
lump $-1 $-1 $28 $4 #
transform $-1 1 0 0 0 1 0 0 0 1 57.846003601184115 37.955889969364875 9.4114204786247058 1 rotate no_reflect no_shear #
lump $-1 $-1 $29 $5 #
transform $-1 1 0 0 0 1 0 0 0 1 57.846003601184115 37.955889969364875 9.4114204786247058 1 rotate no_reflect no_shear #
lump $-1 $-1 $30 $6 #
transform $-1 1 0 0 0 1 0 0 0 1 57.846003601184115 37.955889969364875 9.4114204786247058 1 rotate no_reflect no_shear #
lump $-1 $-1 $31 $7 #
transform $-1 1 0 0 0 1 0 0 0 1 57.846003601184115 37.955889969364875 9.4114204786247058 1 rotate no_reflect no_shear #
shell $-1 $-1 $-1 $32 $-1 $8 #
shell $-1 $-1 $-1 $33 $-1 $10 #
shell $-1 $-1 $-1 $34 $-1 $12 #
shell $-1 $-1 $-1 $35 $-1 $14 #
shell $-1 $-1 $-1 $36 $-1 $16 #
shell $-1 $-1 $-1 $37 $-1 $18 #
shell $-1 $-1 $-1 $38 $-1 $20 #
shell $-1 $-1 $-1 $39 $-1 $22 #
face $-1 $40 $41 $24 $-1 $42 forward single #
face $-1 $43 $44 $25 $-1 $45 forward single #
face $-1 $46 $47 $26 $-1 $48 reversed single #
face $-1 $49 $50 $27 $-1 $51 forward single #
face $-1 $52 $53 $28 $-1 $54 forward single #
face $-1 $55 $56 $29 $-1 $57 reversed single #
face $-1 $58 $59 $30 $-1 $60 forward single #
face $-1 $61 $62 $31 $-1 $63 forward single #
face $-1 $64 $65 $24 $-1 $66 reversed single #
loop $-1 $-1 $67 $32 #
plane-surface $-1 0 0 9.4114204786247058 0 0 1 1 0 0 forward_v I I I I #
face $-1 $68 $69 $25 $-1 $70 forward single #
loop $-1 $-1 $71 $33 #
plane-surface $-1 0 -37.955889969364875 0 0 1 0 0 0 1 forward_v I I I I #
face $-1 $72 $73 $26 $-1 $74 reversed single #
loop $-1 $-1 $75 $34 #
plane-surface $-1 -158.0382217481289 -22.250413187347561 63.244063154273718 0 1 0 -0.86602541151947299 0 0.49999998660252726 forward_v I I I I #
face $-1 $76 $77 $27 $-1 $78 forward single #
loop $-1 $79 $80 $35 #
cone-surface $-1 -56.254433878900102 -17.749601604158201 7.1547407975461468 0.86602541151947299 0 -0.49999998660252726 0.24999999330126363 0 0.43301270575973649 1 I I 0 1 0.5 forward I I I I #
face $-1 $81 $82 $28 $-1 $83 forward single #
loop $-1 $84 $85 $36 #
cone-surface $-1 -56.254433878900102 -10.99838422937416 7.1547407975461468 0.86602541151947299 0 -0.49999998660252726 0.24999999330126363 0 0.43301270575973649 1 I I 0 1 0.5 forward I I I I #
face $-1 $86 $87 $29 $-1 $88 reversed single #
loop $-1 $-1 $89 $37 #
plane-surface $-1 100.19221969692529 -6.4975726461847998 163.43628130121849 0 -1 0 -0.86602541151947299 0 -0.49999998660252726 forward_v I I I I #
face $-1 $90 $91 $30 $-1 $92 forward single #
loop $-1 $93 $94 $38 #
cone-surface $-1 56.254433878900088 -17.749601604158201 7.1547407975461468 -0.86602541151947299 0 -0.49999998660252726 0.24999999330126363 0 -0.43301270575973649 1 I I 0 1 0.5 forward I I I I #
face $-1 $95 $96 $31 $-1 $97 forward single #
loop $-1 $98 $99 $39 #
cone-surface $-1 56.254433878900088 -10.99838422937416 7.1547407975461468 -0.86602541151947299 0 -0.49999998660252726 0.24999999330126363 0 -0.43301270575973649 1 I I 0 1 0.5 forward I I I I #
face $-1 $100 $101 $24 $-1 $102 reversed single #
loop $-1 $-1 $103 $40 #
plane-surface $-1 0 0 -9.4114204786247058 0 0 1 1 0 0 forward_v I I I I #
coedge $-1 $104 $105 $106 $107 forward $41 $-1 #
face $-1 $108 $109 $25 $-1 $110 reversed single #
loop $-1 $-1 $111 $43 #
plane-surface $-1 0 0 9.4114204786247058 0 0 1 1 0 0 forward_v I I I I #
coedge $-1 $112 $113 $114 $115 forward $44 $-1 #
face $-1 $116 $117 $26 $-1 $118 reversed single #
loop $-1 $-1 $119 $46 #
plane-surface $-1 -57.846003601184123 -14.373992916766181 5.3980611030701127 -0.86602541151947299 0 0.49999998660252726 0.49999998660252726 0 0.86602541151947299 forward_v I I I I #
coedge $-1 $120 $121 $122 $123 reversed $47 $-1 #
face $-1 $-1 $124 $27 $-1 $125 forward single #
loop $-1 $126 $127 $49 #
cone-surface $-1 -55.604914820260497 -17.749601604158201 6.7797408075942514 0.86602541151947299 0 -0.49999998660252726 0.12499999665063181 0 0.21650635287986825 1 I I -0.70710678118654746 0.70710678118654746 0.25 forward I I I I #
loop $-1 $-1 $128 $35 #
coedge $-1 $80 $80 $129 $130 reversed $50 $-1 #
face $-1 $-1 $131 $28 $-1 $132 forward single #
loop $-1 $133 $134 $52 #
cone-surface $-1 -55.604914820260497 -10.99838422937416 6.7797408075942514 0.86602541151947299 0 -0.49999998660252726 0.12499999665063181 0 0.21650635287986825 1 I I -0.70710678118654746 0.70710678118654746 0.25 forward I I I I #
loop $-1 $-1 $135 $36 #
coedge $-1 $85 $85 $136 $137 reversed $53 $-1 #
face $-1 $138 $139 $29 $-1 $140 reversed single #
loop $-1 $-1 $141 $55 #
plane-surface $-1 1.5499805101626407e-006 -14.373992916766181 105.59027925001487 0.86602541151947299 0 0.49999998660252726 0.49999998660252726 0 -0.86602541151947299 forward_v I I I I #
coedge $-1 $142 $143 $144 $145 reversed $56 $-1 #
face $-1 $-1 $146 $30 $-1 $147 forward single #
loop $-1 $148 $149 $58 #
cone-surface $-1 55.604914820260483 -17.749601604158201 6.7797408075942514 -0.86602541151947299 0 -0.49999998660252726 0.12499999665063181 0 -0.21650635287986825 1 I I -0.70710678118654746 0.70710678118654746 0.25 forward I I I I #
loop $-1 $-1 $150 $38 #
coedge $-1 $94 $94 $151 $152 reversed $59 $-1 #
face $-1 $-1 $153 $31 $-1 $154 forward single #
loop $-1 $155 $156 $61 #
cone-surface $-1 55.604914820260483 -10.99838422937416 6.7797408075942514 -0.86602541151947299 0 -0.49999998660252726 0.12499999665063181 0 -0.21650635287986825 1 I I -0.70710678118654746 0.70710678118654746 0.25 forward I I I I #
loop $-1 $-1 $157 $39 #
coedge $-1 $99 $99 $158 $159 reversed $62 $-1 #
face $-1 $160 $161 $24 $-1 $162 reversed single #
loop $-1 $-1 $163 $64 #
plane-surface $-1 0 -37.955889969364875 0 0 1 0 0 0 1 forward_v I I I I #
coedge $-1 $164 $165 $166 $167 forward $65 $-1 #
coedge $-1 $168 $67 $169 $170 forward $41 $-1 #
coedge $-1 $67 $168 $171 $172 forward $41 $-1 #
coedge $-1 $173 $174 $67 $107 reversed $175 $-1 #
edge $-1 $176 -37.955889969364875 $177 37.955889969364875 $106 $178 forward 7 unknown #
face $-1 $179 $180 $25 $-1 $181 reversed single #
loop $-1 $-1 $182 $68 #
plane-surface $-1 -57.846003601184115 0 0 1 0 0 0 0 -1 forward_v I I I I #
coedge $-1 $183 $184 $185 $186 forward $69 $-1 #
coedge $-1 $185 $71 $182 $187 reversed $44 $-1 #
coedge $-1 $71 $185 $188 $189 reversed $44 $-1 #
coedge $-1 $190 $191 $71 $115 reversed $180 $-1 #
edge $-1 $192 -57.846003601184115 $193 57.846003601184115 $114 $194 forward 7 unknown #
face $-1 $195 $196 $26 $-1 $197 forward single #
loop $-1 $-1 $198 $72 #
plane-surface $-1 -158.0382217481289 -6.4975726461847998 63.244063154273718 0 -1 0 0.86602541151947299 0 -0.49999998660252726 forward_v I I I I #
coedge $-1 $199 $200 $201 $202 reversed $73 $-1 #
coedge $-1 $121 $75 $203 $204 reversed $47 $-1 #
coedge $-1 $75 $120 $199 $205 reversed $47 $-1 #
coedge $-1 $201 $206 $75 $123 forward $196 $-1 #
edge $-1 $207 21.173107272880337 $208 23.490221305928891 $122 $209 forward 7 unknown #
loop $-1 $-1 $129 $76 #
plane-surface $-1 -57.846003601184123 -14.373992916766181 5.3980611030701127 -0.86602541151947299 0 0.49999998660252726 0.49999998660252726 0 0.86602541151947299 forward_v I I I I #
loop $-1 $-1 $210 $49 #
coedge $-1 $127 $127 $128 $211 reversed $77 $-1 #
coedge $-1 $128 $128 $127 $211 forward $79 $-1 #
coedge $-1 $129 $129 $80 $130 forward $124 $-1 #
edge $-1 $212 0 $212 6.2831853071796004 $129 $213 forward 7 unknown #
loop $-1 $-1 $136 $81 #
plane-surface $-1 -57.846003601184123 -14.373992916766181 5.3980611030701127 -0.86602541151947299 0 0.49999998660252726 0.49999998660252726 0 0.86602541151947299 forward_v I I I I #
loop $-1 $-1 $214 $52 #
coedge $-1 $134 $134 $135 $215 reversed $82 $-1 #
coedge $-1 $135 $135 $134 $215 forward $84 $-1 #
coedge $-1 $136 $136 $85 $137 forward $131 $-1 #
edge $-1 $216 0 $216 6.2831853071796004 $136 $217 forward 7 unknown #
face $-1 $218 $219 $29 $-1 $220 reversed single #
loop $-1 $-1 $221 $86 #
plane-surface $-1 100.19221969692529 -22.250413187347561 163.43628130121849 0 1 0 0.86602541151947299 0 0.49999998660252726 forward_v I I I I #
coedge $-1 $222 $223 $224 $225 reversed $87 $-1 #
coedge $-1 $143 $89 $226 $227 reversed $56 $-1 #
coedge $-1 $89 $142 $222 $228 reversed $56 $-1 #
coedge $-1 $224 $229 $89 $145 forward $230 $-1 #
edge $-1 $231 -7.7498937527214693 $232 -5.4327797196728937 $144 $233 forward 7 unknown #
loop $-1 $-1 $151 $90 #
plane-surface $-1 1.5499805101626407e-006 -14.373992916766181 105.59027925001487 0.86602541151947299 0 0.49999998660252726 0.49999998660252726 0 -0.86602541151947299 forward_v I I I I #
loop $-1 $-1 $234 $58 #
coedge $-1 $149 $149 $150 $235 reversed $91 $-1 #
coedge $-1 $150 $150 $149 $235 forward $93 $-1 #
coedge $-1 $151 $151 $94 $152 forward $146 $-1 #
edge $-1 $236 0 $236 6.2831853071796004 $151 $237 forward 7 unknown #
loop $-1 $-1 $158 $95 #
plane-surface $-1 1.5499805101626407e-006 -14.373992916766181 105.59027925001487 0.86602541151947299 0 0.49999998660252726 0.49999998660252726 0 -0.86602541151947299 forward_v I I I I #
loop $-1 $-1 $238 $61 #
coedge $-1 $156 $156 $157 $239 reversed $96 $-1 #
coedge $-1 $157 $157 $156 $239 forward $98 $-1 #
coedge $-1 $158 $158 $99 $159 forward $153 $-1 #
edge $-1 $240 0 $240 6.2831853071796004 $158 $241 forward 7 unknown #
face $-1 $242 $243 $24 $-1 $244 reversed single #
loop $-1 $-1 $245 $100 #
plane-surface $-1 -57.846003601184115 0 0 1 0 0 0 0 -1 forward_v I I I I #
coedge $-1 $246 $171 $247 $248 forward $101 $-1 #
coedge $-1 $249 $103 $246 $250 forward $65 $-1 #
coedge $-1 $103 $249 $251 $252 forward $65 $-1 #
coedge $-1 $174 $173 $103 $167 reversed $175 $-1 #
edge $-1 $253 -37.955889969364875 $254 37.955889969364875 $166 $255 forward 7 unknown #
coedge $-1 $105 $104 $256 $257 forward $41 $-1 #
coedge $-1 $258 $259 $104 $170 reversed $243 $-1 #
edge $-1 $177 -57.846003601184115 $260 57.846003601184115 $169 $261 forward 7 unknown #
coedge $-1 $163 $262 $105 $172 reversed $101 $-1 #
edge $-1 $263 -57.846003601184115 $176 57.846003601184115 $171 $264 forward 7 unknown #
coedge $-1 $166 $106 $262 $265 forward $175 $-1 #
coedge $-1 $106 $166 $258 $266 reversed $175 $-1 #
loop $-1 $-1 $173 $242 #
vertex $-1 $107 $267 #
vertex $-1 $107 $268 #
straight-curve $-1 57.846003601184115 0 9.4114204786247058 0 1 0 I I #
face $-1 $269 $270 $25 $-1 $271 reversed single #
loop $-1 $-1 $190 $108 #
plane-surface $-1 0 -43.638441144179346 6.4114204786247058 0 0 1 1 0 0 forward_v I I I I #
coedge $-1 $272 $273 $112 $187 forward $109 $-1 #
coedge $-1 $274 $111 $273 $275 forward $69 $-1 #
coedge $-1 $111 $274 $276 $277 forward $69 $-1 #
coedge $-1 $113 $112 $111 $186 reversed $44 $-1 #
edge $-1 $278 -57.846003601184115 $279 57.846003601184115 $111 $280 forward 7 unknown #
edge $-1 $279 -9.4114204786247058 $193 -6.4114204786247058 $182 $281 forward 7 unknown #
coedge $-1 $276 $282 $113 $189 forward $283 $-1 #
edge $-1 $192 6.4114204786247058 $278 9.4114204786247058 $188 $284 forward 7 unknown #
coedge $-1 $285 $114 $282 $286 forward $180 $-1 #
coedge $-1 $114 $285 $272 $287 forward $180 $-1 #
vertex $-1 $189 $288 #
vertex $-1 $187 $289 #
straight-curve $-1 0 -37.955889969364875 6.4114204786247058 -1 0 0 I I #
face $-1 $-1 $290 $26 $-1 $291 reversed single #
loop $-1 $-1 $122 $116 #
plane-surface $-1 0 0 9.4114204786247058 0 0 1 1 0 0 forward_v I I I I #
coedge $-1 $292 $293 $294 $295 reversed $117 $-1 #
coedge $-1 $296 $119 $121 $205 forward $73 $-1 #
coedge $-1 $119 $296 $292 $297 forward $73 $-1 #
coedge $-1 $294 $122 $119 $202 forward $196 $-1 #
edge $-1 $208 -15.063416728964471 $298 0.68942381219829052 $201 $299 forward 7 unknown #
coedge $-1 $300 $301 $120 $204 forward $290 $-1 #
edge $-1 $302 -26.223970474066732 $207 -22.210611098512153 $203 $303 forward 7 unknown #
edge $-1 $208 -4.6342281902710099 $302 -1.4321304723534956e-014 $121 $304 forward 7 unknown #
coedge $-1 $122 $294 $300 $305 forward $196 $-1 #
vertex $-1 $204 $306 #
vertex $-1 $123 $307 #
straight-curve $-1 -79.019110874064452 -22.250413187347561 9.4114204786247058 1 0 0 I I #
coedge $-1 $210 $210 $-1 $308 reversed $126 $-1 #
edge $-1 $309 0 $309 6.2831853071796004 $127 $310 forward 7 unknown #
vertex $-1 $130 $311 #
ellipse-curve $-1 -56.687446584659838 -17.749601604158201 7.4047407908474119 -0.86602541151947299 0 0.49999998660252726 0.24999999330126363 0 0.43301270575973649 1 I I #
coedge $-1 $214 $214 $-1 $312 reversed $133 $-1 #
edge $-1 $313 0 $313 6.2831853071796004 $134 $314 forward 7 unknown #
vertex $-1 $137 $315 #
ellipse-curve $-1 -56.687446584659838 -10.99838422937416 7.4047407908474119 -0.86602541151947299 0 0.49999998660252726 0.24999999330126363 0 0.43301270575973649 1 I I #
face $-1 $-1 $230 $29 $-1 $316 forward single #
loop $-1 $-1 $317 $138 #
plane-surface $-1 57.846003601184115 0 0 -1 0 0 0 0 1 forward_v I I I I #
coedge $-1 $318 $319 $320 $321 reversed $139 $-1 #
coedge $-1 $322 $141 $143 $228 forward $87 $-1 #
coedge $-1 $141 $322 $318 $323 forward $87 $-1 #
coedge $-1 $320 $144 $141 $225 forward $230 $-1 #
edge $-1 $232 -0.68942381219829052 $324 15.063416728964471 $224 $325 forward 7 unknown #
coedge $-1 $326 $327 $142 $227 forward $219 $-1 #
edge $-1 $328 -76.320079547539152 $231 -72.306720171984537 $226 $329 forward 7 unknown #
edge $-1 $232 111.0577790120972 $328 115.69200720236823 $143 $330 forward 7 unknown #
coedge $-1 $144 $320 $326 $331 forward $230 $-1 #
loop $-1 $-1 $320 $218 #
vertex $-1 $227 $332 #
vertex $-1 $145 $333 #
straight-curve $-1 50.096109848462646 -6.4975726461847998 9.4114204786247058 -1 0 0 I I #
coedge $-1 $234 $234 $-1 $334 reversed $148 $-1 #
edge $-1 $335 0 $335 6.2831853071796004 $149 $336 forward 7 unknown #
vertex $-1 $152 $337 #
ellipse-curve $-1 56.687446584659831 -17.749601604158201 7.4047407908474137 0.86602541151947299 0 0.49999998660252726 0.24999999330126363 0 -0.43301270575973649 1 I I #
coedge $-1 $238 $238 $-1 $338 reversed $155 $-1 #
edge $-1 $339 0 $339 6.2831853071796004 $156 $340 forward 7 unknown #
vertex $-1 $159 $341 #
ellipse-curve $-1 56.687446584659831 -10.99838422937416 7.4047407908474137 0.86602541151947299 0 0.49999998660252726 0.24999999330126363 0 -0.43301270575973649 1 I I #
face $-1 $-1 $175 $24 $-1 $342 reversed single #
loop $-1 $-1 $258 $160 #
plane-surface $-1 0 37.955889969364875 0 0 -1 0 0 0 -1 forward_v I I I I #
coedge $-1 $343 $256 $259 $344 forward $161 $-1 #
coedge $-1 $262 $163 $164 $250 reversed $101 $-1 #
coedge $-1 $256 $343 $163 $248 reversed $161 $-1 #
edge $-1 $263 -9.4114204786247058 $345 9.4114204786247058 $247 $346 forward 7 unknown #
coedge $-1 $165 $164 $343 $347 forward $65 $-1 #
edge $-1 $254 -57.846003601184115 $345 57.846003601184115 $246 $348 forward 7 unknown #
coedge $-1 $259 $258 $165 $252 reversed $243 $-1 #
edge $-1 $349 -57.846003601184115 $253 57.846003601184115 $251 $350 forward 7 unknown #
vertex $-1 $167 $351 #
vertex $-1 $265 $352 #
straight-curve $-1 57.846003601184115 0 -9.4114204786247058 0 -1 0 I I #
coedge $-1 $245 $247 $168 $257 reversed $161 $-1 #
edge $-1 $260 -37.955889969364875 $263 37.955889969364875 $256 $353 forward 7 unknown #
coedge $-1 $251 $169 $174 $266 forward $243 $-1 #
coedge $-1 $169 $251 $245 $344 reversed $243 $-1 #
vertex $-1 $170 $354 #
straight-curve $-1 0 37.955889969364875 9.4114204786247058 -1 0 0 I I #
coedge $-1 $171 $246 $173 $265 reversed $101 $-1 #
vertex $-1 $257 $355 #
straight-curve $-1 0 -37.955889969364875 9.4114204786247058 1 0 0 I I #
edge $-1 $176 -9.4114204786247058 $254 9.4114204786247058 $173 $356 forward 7 unknown #
edge $-1 $177 -9.4114204786247058 $253 9.4114204786247058 $174 $357 forward 7 unknown #
point $-1 57.846003601184115 -37.955889969364875 9.4114204786247058 #
point $-1 57.846003601184115 37.955889969364875 9.4114204786247058 #
face $-1 $-1 $283 $25 $-1 $358 reversed single #
loop $-1 $-1 $359 $179 #
plane-surface $-1 0 -49.320992318993817 7.9114204786247058 0 1 0 0 0 1 forward_v I I I I #
coedge $-1 $360 $182 $191 $287 reversed $109 $-1 #
coedge $-1 $182 $360 $183 $275 reversed $109 $-1 #
coedge $-1 $184 $183 $361 $362 forward $69 $-1 #
edge $-1 $279 37.955889969364875 $363 49.320992318993817 $273 $364 forward 7 unknown #
coedge $-1 $365 $188 $184 $277 reversed $283 $-1 #
edge $-1 $366 -49.320992318993817 $278 -37.955889969364875 $276 $367 forward 7 unknown #
vertex $-1 $189 $368 #
vertex $-1 $275 $369 #
straight-curve $-1 0 -37.955889969364875 9.4114204786247058 -1 0 0 I I #
straight-curve $-1 -57.846003601184115 -37.955889969364875 0 0 0 -1 I I #
coedge $-1 $188 $365 $190 $286 reversed $283 $-1 #
loop $-1 $-1 $188 $269 #
straight-curve $-1 57.846003601184115 -37.955889969364875 0 0 0 1 I I #
coedge $-1 $191 $190 $370 $371 forward $180 $-1 #
edge $-1 $192 -5.6825511748144706 $372 5.6825511748144706 $282 $373 forward 7 unknown #
edge $-1 $374 -5.6825511748144706 $193 5.6825511748144706 $272 $375 forward 7 unknown #
point $-1 57.846003601184115 -37.955889969364875 6.4114204786247058 #
point $-1 -57.846003601184115 -37.955889969364875 6.4114204786247058 #
loop $-1 $-1 $203 $195 #
plane-surface $-1 -57.846003601184115 0 0 1 0 0 0 0 -1 forward_v I I I I #
coedge $-1 $293 $198 $200 $297 reversed $117 $-1 #
coedge $-1 $198 $292 $376 $377 reversed $117 $-1 #
coedge $-1 $206 $201 $198 $295 forward $196 $-1 #
edge $-1 $298 -23.490221305928891 $378 -21.173107272880337 $294 $379 forward 7 unknown #
coedge $-1 $200 $199 $301 $380 reversed $73 $-1 #
edge $-1 $381 1.4321304723534956e-014 $298 4.6342281902710099 $292 $382 forward 7 unknown #
vertex $-1 $202 $383 #
straight-curve $-1 -55.528889568135568 -7.1869964583830903 9.4114204786247058 0 1 0 I I #
coedge $-1 $376 $203 $206 $305 reversed $290 $-1 #
coedge $-1 $203 $376 $296 $380 forward $290 $-1 #
vertex $-1 $204 $384 #
straight-curve $-1 -57.846003601184115 -22.250413187347561 31.622031577136859 0 0 1 I I #
straight-curve $-1 -57.846003601184123 -22.250413187347561 5.3980611030701127 -0.49999998660252726 0 -0.86602541151947299 I I #
edge $-1 $378 6.4975726461847998 $207 22.250413187347561 $300 $385 forward 7 unknown #
point $-1 -57.846003601184115 -22.250413187347561 9.4114204786247058 #
point $-1 -55.528889568135561 -22.250413187347561 9.4114204786247058 #
edge $-1 $386 1 $386 0 $210 $-1 forward 7 unknown #
vertex $-1 $211 $387 #
ellipse-curve $-1 -55.821421173140365 -17.749601604158201 6.9047408042448835 -0.86602541151947299 0 0.49999998660252726 0.24999999330126363 0 0.43301270575973649 1 I I #
point $-1 -56.437446591358572 -17.749601604158201 7.8377534966071467 #
edge $-1 $388 1 $388 0 $214 $-1 forward 7 unknown #
vertex $-1 $215 $389 #
ellipse-curve $-1 -55.821421173140365 -10.99838422937416 6.9047408042448835 -0.86602541151947299 0 0.49999998660252726 0.24999999330126363 0 0.43301270575973649 1 I I #
point $-1 -56.437446591358572 -10.99838422937416 7.8377534966071467 #
plane-surface $-1 0 0 9.4114204786247058 0 0 1 1 0 0 forward_v I I I I #
coedge $-1 $327 $326 $319 $390 forward $219 $-1 #
coedge $-1 $319 $221 $223 $323 reversed $139 $-1 #
coedge $-1 $221 $318 $317 $390 reversed $139 $-1 #
coedge $-1 $229 $224 $221 $321 forward $230 $-1 #
edge $-1 $324 5.4327797196728937 $391 7.7498937527214693 $320 $392 forward 7 unknown #
coedge $-1 $223 $222 $327 $393 reversed $87 $-1 #
edge $-1 $394 -115.69200720236823 $324 -111.0577790120972 $318 $395 forward 7 unknown #
vertex $-1 $225 $396 #
straight-curve $-1 55.52888956813554 -7.1869964583830903 9.4114204786247058 0 -1 0 I I #
coedge $-1 $317 $226 $229 $331 reversed $219 $-1 #
coedge $-1 $226 $317 $322 $393 forward $219 $-1 #
vertex $-1 $227 $397 #
straight-curve $-1 57.846003601184115 -6.4975726461847998 81.718140650609243 0 0 1 I I #
straight-curve $-1 1.5499805101626407e-006 -6.4975726461847998 105.59027925001487 0.49999998660252726 0 -0.86602541151947299 I I #
edge $-1 $391 -22.250413187347561 $231 -6.4975726461847998 $326 $398 forward 7 unknown #
point $-1 57.846003601184115 -6.4975726461847998 9.4114204786247058 #
point $-1 55.52888956813554 -6.4975726461847998 9.4114204786247058 #
edge $-1 $399 1 $399 0 $234 $-1 forward 7 unknown #
vertex $-1 $235 $400 #
ellipse-curve $-1 55.821421173140351 -17.749601604158201 6.9047408042448835 0.86602541151947299 0 0.49999998660252726 0.24999999330126363 0 -0.43301270575973649 1 I I #
point $-1 56.93744657796109 -17.749601604158201 6.9717280850876744 #
edge $-1 $401 1 $401 0 $238 $-1 forward 7 unknown #
vertex $-1 $239 $402 #
ellipse-curve $-1 55.821421173140351 -10.99838422937416 6.9047408042448835 0.86602541151947299 0 0.49999998660252726 0.24999999330126363 0 -0.43301270575973649 1 I I #
point $-1 56.93744657796109 -10.99838422937416 6.9717280850876744 #
plane-surface $-1 57.846003601184115 0 0 -1 0 0 0 0 1 forward_v I I I I #
coedge $-1 $247 $245 $249 $347 reversed $161 $-1 #
edge $-1 $260 -9.4114204786247058 $349 9.4114204786247058 $259 $403 forward 7 unknown #
vertex $-1 $347 $404 #
straight-curve $-1 -57.846003601184115 -37.955889969364875 0 0 0 -1 I I #
edge $-1 $345 -37.955889969364875 $349 37.955889969364875 $343 $405 forward 7 unknown #
straight-curve $-1 0 -37.955889969364875 -9.4114204786247058 -1 0 0 I I #
vertex $-1 $252 $406 #
straight-curve $-1 0 37.955889969364875 -9.4114204786247058 1 0 0 I I #
point $-1 57.846003601184115 37.955889969364875 -9.4114204786247058 #
point $-1 57.846003601184115 -37.955889969364875 -9.4114204786247058 #
straight-curve $-1 -57.846003601184115 0 9.4114204786247058 0 -1 0 I I #
point $-1 -57.846003601184115 37.955889969364875 9.4114204786247058 #
point $-1 -57.846003601184115 -37.955889969364875 9.4114204786247058 #
straight-curve $-1 57.846003601184115 -37.955889969364875 0 0 0 -1 I I #
straight-curve $-1 57.846003601184115 37.955889969364875 0 0 0 -1 I I #
plane-surface $-1 57.846003601184115 0 0 -1 0 0 0 0 1 forward_v I I I I #
coedge $-1 $370 $361 $360 $407 forward $270 $-1 #
coedge $-1 $273 $272 $359 $407 reversed $109 $-1 #
coedge $-1 $359 $408 $274 $362 reversed $270 $-1 #
edge $-1 $363 -57.846003601184115 $366 57.846003601184115 $361 $409 forward 7 unknown #
vertex $-1 $275 $410 #
straight-curve $-1 -57.846003601184115 0 9.4114204786247058 0 -1 0 I I #
coedge $-1 $282 $276 $408 $411 forward $283 $-1 #
vertex $-1 $277 $412 #
straight-curve $-1 57.846003601184115 0 9.4114204786247058 0 1 0 I I #
point $-1 57.846003601184115 -37.955889969364875 9.4114204786247058 #
point $-1 -57.846003601184115 -37.955889969364875 9.4114204786247058 #
coedge $-1 $408 $359 $285 $371 reversed $270 $-1 #
edge $-1 $372 -57.846003601184115 $374 57.846003601184115 $370 $413 forward 7 unknown #
vertex $-1 $411 $414 #
straight-curve $-1 57.846003601184115 -43.638441144179346 6.4114204786247058 0 -1 0 I I #
vertex $-1 $287 $415 #
straight-curve $-1 -57.846003601184115 -43.638441144179346 6.4114204786247058 0 1 0 I I #
coedge $-1 $301 $300 $293 $377 forward $290 $-1 #
edge $-1 $378 22.210611098512153 $381 26.223970474066732 $376 $416 forward 7 unknown #
vertex $-1 $305 $417 #
straight-curve $-1 -79.019110874064452 -6.4975726461847998 9.4114204786247058 -1 0 0 I I #
edge $-1 $381 -0.68942381219829052 $302 15.063416728964471 $301 $418 forward 7 unknown #
vertex $-1 $380 $419 #
straight-curve $-1 -57.846003601184123 -6.4975726461847998 5.3980611030701127 0.49999998660252726 0 0.86602541151947299 I I #
point $-1 -55.528889568135561 -6.4975726461847998 9.4114204786247058 #
point $-1 -57.846003601184115 -22.250413187347561 5.3980611030701251 #
straight-curve $-1 -57.846003601184115 0 9.4114204786247058 0 -1 0 I I #
vertex $-1 $308 $420 #
point $-1 -55.571421179839099 -17.749601604158201 7.3377535100046192 #
vertex $-1 $312 $421 #
point $-1 -55.571421179839099 -10.99838422937416 7.3377535100046192 #
edge $-1 $391 72.306720171984537 $394 76.320079547539152 $317 $422 forward 7 unknown #
vertex $-1 $331 $423 #
straight-curve $-1 50.096109848462646 -22.250413187347561 9.4114204786247058 1 0 0 I I #
edge $-1 $394 -15.063416728964471 $328 0.68942381219829052 $327 $424 forward 7 unknown #
vertex $-1 $393 $425 #
straight-curve $-1 1.5499805101626407e-006 -22.250413187347561 105.59027925001487 -0.49999998660252726 0 0.86602541151947299 I I #
point $-1 55.52888956813554 -22.250413187347561 9.4114204786247058 #
point $-1 57.846003601184115 -6.4975726461847998 5.3980611030700913 #
straight-curve $-1 57.846003601184115 0 9.4114204786247058 0 1 0 I I #
vertex $-1 $334 $426 #
point $-1 56.071421166441617 -17.749601604158201 6.4717280984851469 #
vertex $-1 $338 $427 #
point $-1 56.071421166441617 -10.99838422937416 6.4717280984851469 #
straight-curve $-1 -57.846003601184115 37.955889969364875 0 0 0 -1 I I #
point $-1 -57.846003601184115 -37.955889969364875 -9.4114204786247058 #
straight-curve $-1 -57.846003601184115 0 -9.4114204786247058 0 1 0 I I #
point $-1 -57.846003601184115 37.955889969364875 -9.4114204786247058 #
edge $-1 $363 -1.5 $374 1.5 $360 $428 forward 7 unknown #
coedge $-1 $361 $370 $365 $411 reversed $270 $-1 #
straight-curve $-1 0 -49.320992318993817 9.4114204786247058 1 0 0 I I #
point $-1 -57.846003601184115 -49.320992318993817 9.4114204786247058 #
edge $-1 $366 -1.5 $372 1.5 $365 $429 forward 7 unknown #
point $-1 57.846003601184115 -49.320992318993817 9.4114204786247058 #
straight-curve $-1 0 -49.320992318993817 6.4114204786247058 -1 0 0 I I #
point $-1 57.846003601184115 -49.320992318993817 6.4114204786247058 #
point $-1 -57.846003601184115 -49.320992318993817 6.4114204786247058 #
straight-curve $-1 -57.846003601184115 -6.4975726461847998 31.622031577136859 0 0 -1 I I #
point $-1 -57.846003601184115 -6.4975726461847998 9.4114204786247058 #
straight-curve $-1 -57.846003601184115 -7.1869964583830903 5.3980611030701269 0 -1 0 I I #
point $-1 -57.846003601184115 -6.4975726461847998 5.3980611030701251 #
point $-1 -55.388408467380629 -17.749601604158201 6.6547408109436192 #
point $-1 -55.388408467380629 -10.99838422937416 6.6547408109436192 #
straight-curve $-1 57.846003601184115 -22.250413187347561 81.718140650609243 0 0 -1 I I #
point $-1 57.846003601184115 -22.250413187347561 9.4114204786247058 #
straight-curve $-1 57.846003601184115 -7.1869964583830903 5.3980611030700913 0 1 0 I I #
point $-1 57.846003601184115 -22.250413187347561 5.3980611030700913 #
point $-1 55.388408467380614 -17.749601604158201 6.6547408109436192 #
point $-1 55.388408467380614 -10.99838422937416 6.6547408109436192 #
straight-curve $-1 -57.846003601184115 -49.320992318993817 7.9114204786247058 0 0 -1 I I #
straight-curve $-1 57.846003601184115 -49.320992318993817 7.9114204786247058 0 0 -1 I I #
End-of-ACIS-data 