500 0 14 0           
7 Unknown 11 ACIS 5.0 NT 24 Fri Mar 26 15:02:16 1999 
-1 9.9999999999999995e-007 1e-010 
body $-1 $14 $-1 $15 #
body $-1 $16 $-1 $17 #
body $-1 $18 $-1 $19 #
body $-1 $20 $-1 $21 #
body $-1 $22 $-1 $23 #
body $-1 $24 $-1 $25 #
body $-1 $26 $-1 $27 #
body $-1 $28 $-1 $29 #
body $-1 $30 $-1 $31 #
body $-1 $32 $-1 $33 #
body $-1 $34 $-1 $35 #
body $-1 $36 $-1 $37 #
body $-1 $38 $-1 $39 #
body $-1 $40 $-1 $41 #
lump $-1 $-1 $42 $0 #
transform $-1 1 0 0 0 1 0 0 0 1 50.326242866298408 23.773301883916336 9.8519865600112411 1 rotate no_reflect no_shear #
lump $-1 $-1 $43 $1 #
transform $-1 1 0 0 0 1 0 0 0 1 50.326242866298408 23.773301883916336 9.8519865600112411 1 rotate no_reflect no_shear #
lump $-1 $-1 $44 $2 #
transform $-1 1 0 0 0 1 0 0 0 1 50.326242866298408 23.773301883916336 9.8519865600112411 1 rotate no_reflect no_shear #
lump $-1 $-1 $45 $3 #
transform $-1 1 0 0 0 1 0 0 0 1 50.326242866298408 23.773301883916336 9.8519865600112411 1 rotate no_reflect no_shear #
lump $-1 $-1 $46 $4 #
transform $-1 1 0 0 0 1 0 0 0 1 50.326242866298408 23.773301883916336 9.8519865600112411 1 rotate no_reflect no_shear #
lump $-1 $-1 $47 $5 #
transform $-1 1 0 0 0 1 0 0 0 1 50.326242866298408 23.773301883916336 9.8519865600112411 1 rotate no_reflect no_shear #
lump $-1 $-1 $48 $6 #
transform $-1 1 0 0 0 1 0 0 0 1 50.326242866298408 23.773301883916336 9.8519865600112411 1 rotate no_reflect no_shear #
lump $-1 $-1 $49 $7 #
transform $-1 1 0 0 0 1 0 0 0 1 50.326242866298408 23.773301883916336 9.8519865600112411 1 rotate no_reflect no_shear #
lump $-1 $-1 $50 $8 #
transform $-1 1 0 0 0 1 0 0 0 1 50.326242866298408 23.773301883916336 9.8519865600112411 1 rotate no_reflect no_shear #
lump $-1 $-1 $51 $9 #
transform $-1 1 0 0 0 1 0 0 0 1 50.326242866298408 23.773301883916336 9.8519865600112411 1 rotate no_reflect no_shear #
lump $-1 $-1 $52 $10 #
transform $-1 1 0 0 0 1 0 0 0 1 50.326242866298408 23.773301883916336 9.8519865600112411 1 rotate no_reflect no_shear #
lump $-1 $-1 $53 $11 #
transform $-1 1 0 0 0 1 0 0 0 1 50.326242866298408 23.773301883916336 9.8519865600112411 1 rotate no_reflect no_shear #
lump $-1 $-1 $54 $12 #
transform $-1 1 0 0 0 1 0 0 0 1 50.326242866298408 23.773301883916336 9.8519865600112411 1 rotate no_reflect no_shear #
lump $-1 $-1 $55 $13 #
transform $-1 1 0 0 0 1 0 0 0 1 50.326242866298408 23.773301883916336 9.8519865600112411 1 rotate no_reflect no_shear #
shell $-1 $-1 $-1 $56 $-1 $14 #
shell $-1 $-1 $-1 $57 $-1 $16 #
shell $-1 $-1 $-1 $58 $-1 $18 #
shell $-1 $-1 $-1 $59 $-1 $20 #
shell $-1 $-1 $-1 $60 $-1 $22 #
shell $-1 $-1 $-1 $61 $-1 $24 #
shell $-1 $-1 $-1 $62 $-1 $26 #
shell $-1 $-1 $-1 $63 $-1 $28 #
shell $-1 $-1 $-1 $64 $-1 $30 #
shell $-1 $-1 $-1 $65 $-1 $32 #
shell $-1 $-1 $-1 $66 $-1 $34 #
shell $-1 $-1 $-1 $67 $-1 $36 #
shell $-1 $-1 $-1 $68 $-1 $38 #
shell $-1 $-1 $-1 $69 $-1 $40 #
face $-1 $70 $71 $42 $-1 $72 forward single #
face $-1 $73 $74 $43 $-1 $75 reversed single #
face $-1 $76 $77 $44 $-1 $78 reversed single #
face $-1 $79 $80 $45 $-1 $81 forward single #
face $-1 $82 $83 $46 $-1 $84 forward single #
face $-1 $85 $86 $47 $-1 $87 reversed single #
face $-1 $88 $89 $48 $-1 $90 forward single #
face $-1 $91 $92 $49 $-1 $93 forward single #
face $-1 $94 $95 $50 $-1 $96 reversed single #
face $-1 $97 $98 $51 $-1 $99 forward single #
face $-1 $100 $101 $52 $-1 $102 forward single #
face $-1 $103 $104 $53 $-1 $105 reversed single #
face $-1 $106 $107 $54 $-1 $108 forward single #
face $-1 $109 $110 $55 $-1 $111 forward single #
face $-1 $112 $113 $42 $-1 $114 reversed single #
loop $-1 $-1 $115 $56 #
plane-surface $-1 0 0 9.8519865600112411 0 0 1 1 0 0 forward_v I I I I #
face $-1 $116 $117 $43 $-1 $118 reversed single #
loop $-1 $-1 $119 $57 #
plane-surface $-1 -33.886140558481678 -20.051345417138272 0 1 0 0 0 0 -1 forward_v I I I I #
face $-1 $120 $121 $44 $-1 $122 reversed single #
loop $-1 $-1 $123 $58 #
plane-surface $-1 -46.45218402571966 57.644748600381973 111.87852856401717 1 0 0 0 -0.68199836817093118 -0.7313536940579346 forward_v I I I I #
face $-1 $124 $125 $45 $-1 $126 forward single #
loop $-1 $127 $128 $59 #
cone-surface $-1 -42.894927911255913 20.358989008498682 6.4914882416813668 0 -0.68199836817093118 -0.7313536940579346 1 0 0 1 I I 0 1 1 forward I I I I #
face $-1 $129 $130 $46 $-1 $131 forward single #
loop $-1 $132 $133 $60 #
cone-surface $-1 -37.559043739560281 20.358989008498682 6.4914882416813668 0 -0.68199836817093118 -0.7313536940579346 1 0 0 1 I I 0 1 1 forward I I I I #
face $-1 $134 $135 $47 $-1 $136 reversed single #
loop $-1 $-1 $137 $61 #
plane-surface $-1 -19.634193475447592 57.644748600381973 111.87852856401717 1 0 0 0 -0.68199836817093118 -0.7313536940579346 forward_v I I I I #
face $-1 $138 $139 $48 $-1 $140 forward single #
loop $-1 $141 $142 $62 #
cone-surface $-1 -16.076937360983848 20.358989008498682 6.4914882416813668 0 -0.68199836817093118 -0.7313536940579346 1 0 0 1 I I 0 1 1 forward I I I I #
face $-1 $143 $144 $49 $-1 $145 forward single #
loop $-1 $146 $147 $63 #
cone-surface $-1 -10.741053189288216 20.358989008498682 6.4914882416813668 0 -0.68199836817093118 -0.7313536940579346 1 0 0 1 I I 0 1 1 forward I I I I #
face $-1 $148 $149 $50 $-1 $150 reversed single #
loop $-1 $-1 $151 $64 #
plane-surface $-1 7.1837970748244713 57.644748600381973 111.87852856401717 1 0 0 0 -0.68199836817093118 -0.7313536940579346 forward_v I I I I #
face $-1 $152 $153 $51 $-1 $154 forward single #
loop $-1 $155 $156 $65 #
cone-surface $-1 10.741053189288216 20.358989008498682 6.4914882416813668 0 -0.68199836817093118 -0.7313536940579346 1 0 0 1 I I 0 1 1 forward I I I I #
face $-1 $157 $158 $52 $-1 $159 forward single #
loop $-1 $160 $161 $66 #
cone-surface $-1 16.076937360983855 20.358989008498682 6.4914882416813668 0 -0.68199836817093118 -0.7313536940579346 1 0 0 1 I I 0 1 1 forward I I I I #
face $-1 $162 $163 $53 $-1 $164 reversed single #
loop $-1 $-1 $165 $67 #
plane-surface $-1 34.001787625096533 57.644748600381973 111.87852856401717 1 0 0 0 -0.68199836817093118 -0.7313536940579346 forward_v I I I I #
face $-1 $166 $167 $54 $-1 $168 forward single #
loop $-1 $169 $170 $68 #
cone-surface $-1 37.559043739560273 20.358989008498682 6.4914882416813668 0 -0.68199836817093118 -0.7313536940579346 1 0 0 1 I I 0 1 1 forward I I I I #
face $-1 $171 $172 $55 $-1 $173 forward single #
loop $-1 $174 $175 $69 #
cone-surface $-1 42.894927911255927 20.358989008498682 6.4914882416813668 0 -0.68199836817093118 -0.7313536940579346 1 0 0 1 I I 0 1 1 forward I I I I #
face $-1 $176 $177 $42 $-1 $178 reversed single #
loop $-1 $-1 $179 $70 #
plane-surface $-1 0 0 -9.8519865600112411 0 0 1 1 0 0 forward_v I I I I #
coedge $-1 $180 $181 $182 $183 forward $71 $-1 #
face $-1 $184 $185 $43 $-1 $186 reversed single #
loop $-1 $-1 $187 $73 #
plane-surface $-1 -32.254205152378802 -16.329388950360212 0 0 -1 0 0 0 -1 forward_v I I I I #
coedge $-1 $188 $189 $190 $191 forward $74 $-1 #
face $-1 $192 $193 $44 $-1 $194 reversed single #
loop $-1 $-1 $195 $76 #
plane-surface $-1 -40.226985825408093 -11.000082421596986 38.26596130736894 0 0.68199836817093118 0.7313536940579346 1 0 0 forward_v I I I I #
coedge $-1 $196 $197 $198 $199 reversed $77 $-1 #
face $-1 $-1 $200 $45 $-1 $201 forward single #
loop $-1 $202 $203 $79 #
cone-surface $-1 -42.894927911255913 18.7552407171484 4.7716787935095475 0 -0.68199836817093118 -0.7313536940579346 0.5 0 0 1 I I -0.70710678118654746 0.70710678118654746 0.5 forward I I I I #
loop $-1 $-1 $204 $59 #
coedge $-1 $128 $128 $205 $206 reversed $80 $-1 #
face $-1 $-1 $207 $46 $-1 $208 forward single #
loop $-1 $209 $210 $82 #
cone-surface $-1 -37.559043739560281 18.7552407171484 4.7716787935095475 0 -0.68199836817093118 -0.7313536940579346 0.5 0 0 1 I I -0.70710678118654746 0.70710678118654746 0.5 forward I I I I #
loop $-1 $-1 $211 $60 #
coedge $-1 $133 $133 $212 $213 reversed $83 $-1 #
face $-1 $214 $215 $47 $-1 $216 reversed single #
loop $-1 $-1 $217 $85 #
plane-surface $-1 -13.408995275136029 -11.000082421596986 38.26596130736894 0 0.68199836817093118 0.7313536940579346 1 0 0 forward_v I I I I #
coedge $-1 $218 $219 $220 $221 reversed $86 $-1 #
face $-1 $-1 $222 $48 $-1 $223 forward single #
loop $-1 $224 $225 $88 #
cone-surface $-1 -16.076937360983848 18.7552407171484 4.7716787935095475 0 -0.68199836817093118 -0.7313536940579346 0.5 0 0 1 I I -0.70710678118654746 0.70710678118654746 0.5 forward I I I I #
loop $-1 $-1 $226 $62 #
coedge $-1 $142 $142 $227 $228 reversed $89 $-1 #
face $-1 $-1 $229 $49 $-1 $230 forward single #
loop $-1 $231 $232 $91 #
cone-surface $-1 -10.741053189288216 18.7552407171484 4.7716787935095475 0 -0.68199836817093118 -0.7313536940579346 0.5 0 0 1 I I -0.70710678118654746 0.70710678118654746 0.5 forward I I I I #
loop $-1 $-1 $233 $63 #
coedge $-1 $147 $147 $234 $235 reversed $92 $-1 #
face $-1 $236 $237 $50 $-1 $238 reversed single #
loop $-1 $-1 $239 $94 #
plane-surface $-1 13.408995275136036 -11.000082421596986 38.26596130736894 0 0.68199836817093118 0.7313536940579346 1 0 0 forward_v I I I I #
coedge $-1 $240 $241 $242 $243 reversed $95 $-1 #
face $-1 $-1 $244 $51 $-1 $245 forward single #
loop $-1 $246 $247 $97 #
cone-surface $-1 10.741053189288216 18.7552407171484 4.7716787935095475 0 -0.68199836817093118 -0.7313536940579346 0.5 0 0 1 I I -0.70710678118654746 0.70710678118654746 0.5 forward I I I I #
loop $-1 $-1 $248 $65 #
coedge $-1 $156 $156 $249 $250 reversed $98 $-1 #
face $-1 $-1 $251 $52 $-1 $252 forward single #
loop $-1 $253 $254 $100 #
cone-surface $-1 16.076937360983855 18.7552407171484 4.7716787935095475 0 -0.68199836817093118 -0.7313536940579346 0.5 0 0 1 I I -0.70710678118654746 0.70710678118654746 0.5 forward I I I I #
loop $-1 $-1 $255 $66 #
coedge $-1 $161 $161 $256 $257 reversed $101 $-1 #
face $-1 $258 $259 $53 $-1 $260 reversed single #
loop $-1 $-1 $261 $103 #
plane-surface $-1 40.2269858254081 -11.000082421596986 38.26596130736894 0 0.68199836817093118 0.7313536940579346 1 0 0 forward_v I I I I #
coedge $-1 $262 $263 $264 $265 reversed $104 $-1 #
face $-1 $-1 $266 $54 $-1 $267 forward single #
loop $-1 $268 $269 $106 #
cone-surface $-1 37.559043739560273 18.7552407171484 4.7716787935095475 0 -0.68199836817093118 -0.7313536940579346 0.5 0 0 1 I I -0.70710678118654746 0.70710678118654746 0.5 forward I I I I #
loop $-1 $-1 $270 $68 #
coedge $-1 $170 $170 $271 $272 reversed $107 $-1 #
face $-1 $-1 $273 $55 $-1 $274 forward single #
loop $-1 $275 $276 $109 #
cone-surface $-1 42.894927911255927 18.7552407171484 4.7716787935095475 0 -0.68199836817093118 -0.7313536940579346 0.5 0 0 1 I I -0.70710678118654746 0.70710678118654746 0.5 forward I I I I #
loop $-1 $-1 $277 $69 #
coedge $-1 $175 $175 $278 $279 reversed $110 $-1 #
face $-1 $280 $281 $42 $-1 $282 reversed single #
loop $-1 $-1 $283 $112 #
plane-surface $-1 0 -23.773301883916336 0 0 1 0 0 0 1 forward_v I I I I #
coedge $-1 $284 $285 $286 $287 forward $113 $-1 #
coedge $-1 $288 $115 $289 $290 forward $71 $-1 #
coedge $-1 $115 $288 $291 $292 forward $71 $-1 #
coedge $-1 $293 $294 $115 $183 reversed $295 $-1 #
edge $-1 $296 -23.773301883916336 $297 23.773301883916336 $182 $298 forward 7 unknown #
face $-1 $299 $300 $43 $-1 $301 forward single #
loop $-1 $-1 $302 $116 #
plane-surface $-1 -30.622269746275926 -20.051345417138272 0 -1 0 0 0 0 1 forward_v I I I I #
coedge $-1 $303 $304 $305 $306 forward $117 $-1 #
coedge $-1 $307 $119 $308 $309 reversed $74 $-1 #
coedge $-1 $119 $307 $310 $311 reversed $74 $-1 #
coedge $-1 $304 $303 $119 $191 reversed $117 $-1 #
edge $-1 $312 -9.8519865600112411 $313 9.8519865600112411 $190 $314 forward 7 unknown #
face $-1 $315 $316 $44 $-1 $317 reversed single #
loop $-1 $-1 $318 $120 #
plane-surface $-1 -34.001787625096526 57.644748600381973 111.87852856401717 -1 0 0 0 0.68199836817093118 0.7313536940579346 forward_v I I I I #
coedge $-1 $319 $320 $321 $322 reversed $121 $-1 #
coedge $-1 $197 $123 $323 $324 reversed $77 $-1 #
coedge $-1 $123 $196 $319 $325 reversed $77 $-1 #
coedge $-1 $321 $326 $123 $199 forward $327 $-1 #
edge $-1 $328 5.049072416274651 $329 9.3521999525802677 $198 $330 forward 7 unknown #
loop $-1 $-1 $205 $124 #
plane-surface $-1 -40.226985825408093 -11.000082421596986 38.26596130736894 0 0.68199836817093118 0.7313536940579346 1 0 0 forward_v I I I I #
loop $-1 $-1 $331 $79 #
coedge $-1 $203 $203 $204 $332 reversed $125 $-1 #
coedge $-1 $204 $204 $203 $332 forward $127 $-1 #
coedge $-1 $205 $205 $128 $206 forward $200 $-1 #
edge $-1 $333 1.5462182245184198e-015 $333 6.2831853071796022 $205 $334 forward 7 unknown #
loop $-1 $-1 $212 $129 #
plane-surface $-1 -40.226985825408093 -11.000082421596986 38.26596130736894 0 0.68199836817093118 0.7313536940579346 1 0 0 forward_v I I I I #
loop $-1 $-1 $335 $82 #
coedge $-1 $210 $210 $211 $336 reversed $130 $-1 #
coedge $-1 $211 $211 $210 $336 forward $132 $-1 #
coedge $-1 $212 $212 $133 $213 forward $207 $-1 #
edge $-1 $337 1.5462182245184198e-015 $337 6.2831853071796022 $212 $338 forward 7 unknown #
face $-1 $339 $340 $47 $-1 $341 forward single #
loop $-1 $-1 $342 $134 #
plane-surface $-1 -7.1837970748244642 57.644748600381973 111.87852856401717 -1 0 0 0 0.68199836817093118 0.7313536940579346 forward_v I I I I #
coedge $-1 $343 $344 $345 $346 reversed $135 $-1 #
coedge $-1 $219 $137 $347 $348 reversed $86 $-1 #
coedge $-1 $137 $218 $343 $349 reversed $86 $-1 #
coedge $-1 $345 $350 $137 $221 forward $340 $-1 #
edge $-1 $351 5.049072416274651 $352 9.3521999525802677 $220 $353 forward 7 unknown #
loop $-1 $-1 $227 $138 #
plane-surface $-1 -13.408995275136029 -11.000082421596986 38.26596130736894 0 0.68199836817093118 0.7313536940579346 1 0 0 forward_v I I I I #
loop $-1 $-1 $354 $88 #
coedge $-1 $225 $225 $226 $355 reversed $139 $-1 #
coedge $-1 $226 $226 $225 $355 forward $141 $-1 #
coedge $-1 $227 $227 $142 $228 forward $222 $-1 #
edge $-1 $356 1.5462182245184198e-015 $356 6.2831853071796022 $227 $357 forward 7 unknown #
loop $-1 $-1 $234 $143 #
plane-surface $-1 -13.408995275136029 -11.000082421596986 38.26596130736894 0 0.68199836817093118 0.7313536940579346 1 0 0 forward_v I I I I #
loop $-1 $-1 $358 $91 #
coedge $-1 $232 $232 $233 $359 reversed $144 $-1 #
coedge $-1 $233 $233 $232 $359 forward $146 $-1 #
coedge $-1 $234 $234 $147 $235 forward $229 $-1 #
edge $-1 $360 1.5462182245184198e-015 $360 6.2831853071796022 $234 $361 forward 7 unknown #
face $-1 $362 $363 $50 $-1 $364 forward single #
loop $-1 $-1 $365 $148 #
plane-surface $-1 19.634193475447599 57.644748600381973 111.87852856401717 -1 0 0 0 0.68199836817093118 0.7313536940579346 forward_v I I I I #
coedge $-1 $366 $367 $368 $369 reversed $149 $-1 #
coedge $-1 $241 $151 $370 $371 reversed $95 $-1 #
coedge $-1 $151 $240 $366 $372 reversed $95 $-1 #
coedge $-1 $368 $373 $151 $243 forward $363 $-1 #
edge $-1 $374 5.049072416274651 $375 9.3521999525802677 $242 $376 forward 7 unknown #
loop $-1 $-1 $249 $152 #
plane-surface $-1 13.408995275136036 -11.000082421596986 38.26596130736894 0 0.68199836817093118 0.7313536940579346 1 0 0 forward_v I I I I #
loop $-1 $-1 $377 $97 #
coedge $-1 $247 $247 $248 $378 reversed $153 $-1 #
coedge $-1 $248 $248 $247 $378 forward $155 $-1 #
coedge $-1 $249 $249 $156 $250 forward $244 $-1 #
edge $-1 $379 1.5462182245184198e-015 $379 6.2831853071796022 $249 $380 forward 7 unknown #
loop $-1 $-1 $256 $157 #
plane-surface $-1 13.408995275136036 -11.000082421596986 38.26596130736894 0 0.68199836817093118 0.7313536940579346 1 0 0 forward_v I I I I #
loop $-1 $-1 $381 $100 #
coedge $-1 $254 $254 $255 $382 reversed $158 $-1 #
coedge $-1 $255 $255 $254 $382 forward $160 $-1 #
coedge $-1 $256 $256 $161 $257 forward $251 $-1 #
edge $-1 $383 1.5462182245184198e-015 $383 6.2831853071796022 $256 $384 forward 7 unknown #
face $-1 $385 $386 $53 $-1 $387 forward single #
loop $-1 $-1 $388 $162 #
plane-surface $-1 46.452184025719667 57.644748600381973 111.87852856401717 -1 0 0 0 0.68199836817093118 0.7313536940579346 forward_v I I I I #
coedge $-1 $389 $390 $391 $392 reversed $163 $-1 #
coedge $-1 $263 $165 $393 $394 reversed $104 $-1 #
coedge $-1 $165 $262 $389 $395 reversed $104 $-1 #
coedge $-1 $391 $396 $165 $265 forward $386 $-1 #
edge $-1 $397 5.049072416274651 $398 9.3521999525802677 $264 $399 forward 7 unknown #
loop $-1 $-1 $271 $166 #
plane-surface $-1 40.2269858254081 -11.000082421596986 38.26596130736894 0 0.68199836817093118 0.7313536940579346 1 0 0 forward_v I I I I #
loop $-1 $-1 $400 $106 #
coedge $-1 $269 $269 $270 $401 reversed $167 $-1 #
coedge $-1 $270 $270 $269 $401 forward $169 $-1 #
coedge $-1 $271 $271 $170 $272 forward $266 $-1 #
edge $-1 $402 1.5462182245184198e-015 $402 6.2831853071796022 $271 $403 forward 7 unknown #
loop $-1 $-1 $278 $171 #
plane-surface $-1 40.2269858254081 -11.000082421596986 38.26596130736894 0 0.68199836817093118 0.7313536940579346 1 0 0 forward_v I I I I #
loop $-1 $-1 $404 $109 #
coedge $-1 $276 $276 $277 $405 reversed $172 $-1 #
coedge $-1 $277 $277 $276 $405 forward $174 $-1 #
coedge $-1 $278 $278 $175 $279 forward $273 $-1 #
edge $-1 $406 1.5462182245184198e-015 $406 6.2831853071796022 $278 $407 forward 7 unknown #
face $-1 $408 $409 $42 $-1 $410 reversed single #
loop $-1 $-1 $411 $176 #
plane-surface $-1 -50.326242866298408 0 0 1 0 0 0 0 -1 forward_v I I I I #
coedge $-1 $412 $291 $413 $414 forward $177 $-1 #
coedge $-1 $415 $179 $412 $416 forward $113 $-1 #
coedge $-1 $179 $415 $417 $418 forward $113 $-1 #
coedge $-1 $294 $293 $179 $287 reversed $295 $-1 #
edge $-1 $419 -23.773301883916336 $420 23.773301883916336 $286 $421 forward 7 unknown #
coedge $-1 $181 $180 $422 $423 forward $71 $-1 #
coedge $-1 $424 $425 $180 $290 reversed $409 $-1 #
edge $-1 $297 -50.326242866298408 $426 50.326242866298408 $289 $427 forward 7 unknown #
coedge $-1 $283 $428 $181 $292 reversed $177 $-1 #
edge $-1 $429 -50.326242866298408 $296 50.326242866298408 $291 $430 forward 7 unknown #
coedge $-1 $286 $182 $428 $431 forward $295 $-1 #
coedge $-1 $182 $286 $424 $432 reversed $295 $-1 #
loop $-1 $-1 $293 $408 #
vertex $-1 $183 $433 #
vertex $-1 $183 $434 #
straight-curve $-1 50.326242866298408 0 9.8519865600112411 0 1 0 I I #
face $-1 $435 $436 $43 $-1 $437 reversed single #
loop $-1 $-1 $438 $184 #
plane-surface $-1 0 0 9.8519865600112411 0 0 1 1 0 0 forward_v I I I I #
coedge $-1 $439 $440 $441 $442 reversed $185 $-1 #
coedge $-1 $190 $187 $443 $444 reversed $117 $-1 #
coedge $-1 $187 $190 $445 $446 reversed $117 $-1 #
coedge $-1 $440 $439 $187 $306 reversed $185 $-1 #
edge $-1 $447 -9.8519865600112411 $448 9.8519865600112411 $305 $449 forward 7 unknown #
coedge $-1 $189 $188 $450 $451 reversed $74 $-1 #
coedge $-1 $443 $452 $188 $309 forward $436 $-1 #
edge $-1 $453 -13.747629175347196 $313 -6.3037162417910757 $308 $454 forward 7 unknown #
coedge $-1 $455 $445 $189 $311 forward $300 $-1 #
edge $-1 $312 6.3037162417910757 $456 13.747629175347196 $310 $457 forward 7 unknown #
vertex $-1 $311 $458 #
vertex $-1 $309 $459 #
straight-curve $-1 -33.886140558481678 -16.329388950360212 0 0 0 -1 I I #
face $-1 $-1 $327 $44 $-1 $460 forward single #
loop $-1 $-1 $461 $192 #
plane-surface $-1 0 23.773301883916336 0 0 -1 0 0 0 -1 forward_v I I I I #
coedge $-1 $462 $463 $464 $465 reversed $193 $-1 #
coedge $-1 $466 $195 $197 $325 forward $121 $-1 #
coedge $-1 $195 $466 $462 $467 forward $121 $-1 #
coedge $-1 $464 $198 $195 $322 forward $327 $-1 #
edge $-1 $329 -26.338691113015614 $468 -13.888294712392479 $321 $469 forward 7 unknown #
coedge $-1 $470 $471 $196 $324 forward $316 $-1 #
edge $-1 $472 -50.100009156371357 $328 -46.087277721997346 $323 $473 forward 7 unknown #
edge $-1 $329 41.662819258001839 $472 47.546603767832643 $197 $474 forward 7 unknown #
coedge $-1 $198 $464 $470 $475 forward $327 $-1 #
loop $-1 $-1 $464 $315 #
vertex $-1 $324 $476 #
vertex $-1 $199 $477 #
straight-curve $-1 -46.45218402571966 28.822374300190987 9.8519865600112411 0 -1 0 I I #
coedge $-1 $331 $331 $-1 $478 reversed $202 $-1 #
edge $-1 $479 0 $479 6.2831853071796004 $203 $480 forward 7 unknown #
vertex $-1 $206 $481 #
ellipse-curve $-1 -42.894927911255913 21.62173811576352 7.8456208428242409 0 0.68199836817093118 0.7313536940579346 1 0 0 1 I I #
coedge $-1 $335 $335 $-1 $482 reversed $209 $-1 #
edge $-1 $483 0 $483 6.2831853071796004 $210 $484 forward 7 unknown #
vertex $-1 $213 $485 #
ellipse-curve $-1 -37.559043739560281 21.62173811576352 7.8456208428242409 0 0.68199836817093118 0.7313536940579346 1 0 0 1 I I #
face $-1 $-1 $486 $47 $-1 $487 reversed single #
loop $-1 $-1 $220 $214 #
plane-surface $-1 0 0 9.8519865600112411 0 0 1 1 0 0 forward_v I I I I #
coedge $-1 $488 $489 $490 $491 reversed $215 $-1 #
coedge $-1 $492 $217 $219 $349 forward $135 $-1 #
coedge $-1 $217 $492 $488 $493 forward $135 $-1 #
coedge $-1 $490 $220 $217 $346 forward $340 $-1 #
edge $-1 $352 -12.929695837879578 $494 -0.47929943725644986 $345 $495 forward 7 unknown #
coedge $-1 $496 $497 $218 $348 forward $486 $-1 #
edge $-1 $498 -50.100009156371357 $351 -46.087277721997346 $347 $499 forward 7 unknown #
edge $-1 $352 41.662819258001839 $498 47.546603767832643 $219 $500 forward 7 unknown #
coedge $-1 $220 $490 $496 $501 forward $340 $-1 #
vertex $-1 $348 $502 #
vertex $-1 $221 $503 #
straight-curve $-1 -19.634193475447592 28.822374300190987 9.8519865600112411 0 -1 0 I I #
coedge $-1 $354 $354 $-1 $504 reversed $224 $-1 #
edge $-1 $505 0 $505 6.2831853071796004 $225 $506 forward 7 unknown #
vertex $-1 $228 $507 #
ellipse-curve $-1 -16.076937360983848 21.62173811576352 7.8456208428242409 0 0.68199836817093118 0.7313536940579346 1 0 0 1 I I #
coedge $-1 $358 $358 $-1 $508 reversed $231 $-1 #
edge $-1 $509 0 $509 6.2831853071796004 $232 $510 forward 7 unknown #
vertex $-1 $235 $511 #
ellipse-curve $-1 -10.741053189288216 21.62173811576352 7.8456208428242409 0 0.68199836817093118 0.7313536940579346 1 0 0 1 I I #
face $-1 $-1 $512 $50 $-1 $513 reversed single #
loop $-1 $-1 $242 $236 #
plane-surface $-1 0 0 9.8519865600112411 0 0 1 1 0 0 forward_v I I I I #
coedge $-1 $514 $515 $516 $517 reversed $237 $-1 #
coedge $-1 $518 $239 $241 $372 forward $149 $-1 #
coedge $-1 $239 $518 $514 $519 forward $149 $-1 #
coedge $-1 $516 $242 $239 $369 forward $363 $-1 #
edge $-1 $375 0.47929943725645341 $520 12.929695837879581 $368 $521 forward 7 unknown #
coedge $-1 $522 $523 $240 $371 forward $512 $-1 #
edge $-1 $524 -50.100009156371357 $374 -46.087277721997346 $370 $525 forward 7 unknown #
edge $-1 $375 41.662819258001839 $524 47.546603767832643 $241 $526 forward 7 unknown #
coedge $-1 $242 $516 $522 $527 forward $363 $-1 #
vertex $-1 $243 $528 #
vertex $-1 $243 $529 #
straight-curve $-1 7.1837970748244713 28.822374300190987 9.8519865600112411 0 -1 0 I I #
coedge $-1 $377 $377 $-1 $530 reversed $246 $-1 #
edge $-1 $531 0 $531 6.2831853071796004 $247 $532 forward 7 unknown #
vertex $-1 $250 $533 #
ellipse-curve $-1 10.741053189288216 21.62173811576352 7.8456208428242409 0 0.68199836817093118 0.7313536940579346 1 0 0 1 I I #
coedge $-1 $381 $381 $-1 $534 reversed $253 $-1 #
edge $-1 $535 0 $535 6.2831853071796004 $254 $536 forward 7 unknown #
vertex $-1 $257 $537 #
ellipse-curve $-1 16.076937360983855 21.62173811576352 7.8456208428242409 0 0.68199836817093118 0.7313536940579346 1 0 0 1 I I #
face $-1 $-1 $538 $53 $-1 $539 reversed single #
loop $-1 $-1 $264 $258 #
plane-surface $-1 0 0 9.8519865600112411 0 0 1 1 0 0 forward_v I I I I #
coedge $-1 $540 $541 $542 $543 reversed $259 $-1 #
coedge $-1 $544 $261 $263 $395 forward $163 $-1 #
coedge $-1 $261 $544 $540 $545 forward $163 $-1 #
coedge $-1 $542 $264 $261 $392 forward $386 $-1 #
edge $-1 $398 13.888294712392483 $546 26.338691113015617 $391 $547 forward 7 unknown #
coedge $-1 $548 $549 $262 $394 forward $538 $-1 #
edge $-1 $550 -50.100009156371357 $397 -46.087277721997346 $393 $551 forward 7 unknown #
edge $-1 $398 41.662819258001839 $550 47.546603767832643 $263 $552 forward 7 unknown #
coedge $-1 $264 $542 $548 $553 forward $386 $-1 #
vertex $-1 $265 $554 #
vertex $-1 $265 $555 #
straight-curve $-1 34.001787625096533 28.822374300190987 9.8519865600112411 0 -1 0 I I #
coedge $-1 $400 $400 $-1 $556 reversed $268 $-1 #
edge $-1 $557 0 $557 6.2831853071796004 $269 $558 forward 7 unknown #
vertex $-1 $272 $559 #
ellipse-curve $-1 37.559043739560273 21.62173811576352 7.8456208428242409 0 0.68199836817093118 0.7313536940579346 1 0 0 1 I I #
coedge $-1 $404 $404 $-1 $560 reversed $275 $-1 #
edge $-1 $561 0 $561 6.2831853071796004 $276 $562 forward 7 unknown #
vertex $-1 $279 $563 #
ellipse-curve $-1 42.894927911255927 21.62173811576352 7.8456208428242409 0 0.68199836817093118 0.7313536940579346 1 0 0 1 I I #
face $-1 $-1 $295 $42 $-1 $564 reversed single #
loop $-1 $-1 $424 $280 #
plane-surface $-1 0 23.773301883916336 0 0 -1 0 0 0 -1 forward_v I I I I #
coedge $-1 $565 $422 $425 $566 forward $281 $-1 #
coedge $-1 $428 $283 $284 $416 reversed $177 $-1 #
coedge $-1 $422 $565 $283 $414 reversed $281 $-1 #
edge $-1 $429 -9.8519865600112411 $567 9.8519865600112411 $413 $568 forward 7 unknown #
coedge $-1 $285 $284 $565 $569 forward $113 $-1 #
edge $-1 $420 -50.326242866298408 $567 50.326242866298408 $412 $570 forward 7 unknown #
coedge $-1 $425 $424 $285 $418 reversed $409 $-1 #
edge $-1 $571 -50.326242866298408 $419 50.326242866298408 $417 $572 forward 7 unknown #
vertex $-1 $287 $573 #
vertex $-1 $431 $574 #
straight-curve $-1 50.326242866298408 0 -9.8519865600112411 0 -1 0 I I #
coedge $-1 $411 $413 $288 $423 reversed $281 $-1 #
edge $-1 $426 -23.773301883916336 $429 23.773301883916336 $422 $575 forward 7 unknown #
coedge $-1 $417 $289 $294 $432 forward $409 $-1 #
coedge $-1 $289 $417 $411 $566 reversed $409 $-1 #
vertex $-1 $290 $576 #
straight-curve $-1 0 23.773301883916336 9.8519865600112411 -1 0 0 I I #
coedge $-1 $291 $412 $293 $431 reversed $177 $-1 #
vertex $-1 $423 $577 #
straight-curve $-1 0 -23.773301883916336 9.8519865600112411 1 0 0 I I #
edge $-1 $296 -9.8519865600112411 $420 9.8519865600112411 $293 $578 forward 7 unknown #
edge $-1 $297 -9.8519865600112411 $419 9.8519865600112411 $294 $579 forward 7 unknown #
point $-1 50.326242866298408 -23.773301883916336 9.8519865600112411 #
point $-1 50.326242866298408 23.773301883916336 9.8519865600112411 #
face $-1 $-1 $580 $43 $-1 $581 reversed single #
loop $-1 $-1 $582 $299 #
plane-surface $-1 0 0 -9.8519865600112411 0 0 1 1 0 0 forward_v I I I I #
coedge $-1 $445 $455 $440 $583 forward $300 $-1 #
coedge $-1 $305 $302 $582 $584 reversed $185 $-1 #
coedge $-1 $302 $305 $438 $583 reversed $185 $-1 #
coedge $-1 $585 $586 $302 $442 forward $580 $-1 #
edge $-1 $587 -9.8519865600112411 $588 9.8519865600112411 $441 $589 forward 7 unknown #
coedge $-1 $582 $308 $303 $444 forward $436 $-1 #
edge $-1 $313 -17.759037982292277 $448 -14.495167170086525 $443 $590 forward 7 unknown #
coedge $-1 $310 $438 $304 $446 forward $300 $-1 #
edge $-1 $447 14.495167170086525 $312 17.759037982292277 $445 $591 forward 7 unknown #
vertex $-1 $446 $592 #
vertex $-1 $444 $593 #
straight-curve $-1 -30.622269746275926 -16.329388950360212 0 0 0 -1 I I #
coedge $-1 $586 $585 $307 $451 forward $580 $-1 #
edge $-1 $456 -9.8519865600112411 $453 9.8519865600112411 $450 $594 forward 7 unknown #
coedge $-1 $308 $582 $586 $595 forward $436 $-1 #
vertex $-1 $309 $596 #
straight-curve $-1 -33.886140558481678 -10.025672708569136 -9.8519865600112411 0 1 0 I I #
coedge $-1 $438 $310 $585 $597 forward $300 $-1 #
vertex $-1 $597 $598 #
straight-curve $-1 -33.886140558481678 -10.025672708569136 9.8519865600112411 0 -1 0 I I #
point $-1 -33.886140558481678 -16.329388950360212 9.8519865600112411 #
point $-1 -33.886140558481678 -16.329388950360212 -9.8519865600112411 #
plane-surface $-1 0 0 9.8519865600112411 0 0 1 1 0 0 forward_v I I I I #
coedge $-1 $471 $470 $463 $599 forward $316 $-1 #
coedge $-1 $463 $318 $320 $467 reversed $193 $-1 #
coedge $-1 $318 $462 $461 $599 reversed $193 $-1 #
coedge $-1 $326 $321 $318 $465 forward $327 $-1 #
edge $-1 $468 -9.3521999525802677 $600 -5.049072416274651 $464 $601 forward 7 unknown #
coedge $-1 $320 $319 $471 $602 reversed $121 $-1 #
edge $-1 $603 -47.546603767832643 $468 -41.662819258001839 $462 $604 forward 7 unknown #
vertex $-1 $322 $605 #
straight-curve $-1 -20.113492912704046 19.470174347610715 9.8519865600112411 1 0 0 I I #
coedge $-1 $461 $323 $326 $475 reversed $316 $-1 #
coedge $-1 $323 $461 $466 $602 forward $316 $-1 #
vertex $-1 $324 $606 #
straight-curve $-1 -46.45218402571966 23.773301883916336 55.939264282008587 0 0 1 I I #
straight-curve $-1 -46.45218402571966 -11.000082421596986 38.26596130736894 0 0.7313536940579346 -0.68199836817093118 I I #
edge $-1 $600 34.001787625096526 $328 46.45218402571966 $470 $607 forward 7 unknown #
point $-1 -46.45218402571966 23.773301883916336 9.8519865600112411 #
point $-1 -46.45218402571966 19.470174347610719 9.8519865600112411 #
edge $-1 $608 1 $608 0 $331 $-1 forward 7 unknown #
vertex $-1 $332 $609 #
ellipse-curve $-1 -42.894927911255913 19.096239901233865 5.137355640538515 0 0.68199836817093118 0.7313536940579346 1 0 0 1 I I #
point $-1 -41.894927911255913 21.621738115763502 7.8456208428242196 #
edge $-1 $610 1 $610 0 $335 $-1 forward 7 unknown #
vertex $-1 $336 $611 #
ellipse-curve $-1 -37.559043739560281 19.096239901233865 5.137355640538515 0 0.68199836817093118 0.7313536940579346 1 0 0 1 I I #
point $-1 -36.559043739560281 21.621738115763502 7.8456208428242196 #
loop $-1 $-1 $347 $339 #
plane-surface $-1 0 23.773301883916336 0 0 -1 0 0 0 -1 forward_v I I I I #
coedge $-1 $489 $342 $344 $493 reversed $215 $-1 #
coedge $-1 $342 $488 $612 $613 reversed $215 $-1 #
coedge $-1 $350 $345 $342 $491 forward $340 $-1 #
edge $-1 $494 -9.3521999525802677 $614 -5.049072416274651 $490 $615 forward 7 unknown #
coedge $-1 $344 $343 $497 $616 reversed $135 $-1 #
edge $-1 $617 -47.546603767832643 $494 -41.662819258001839 $488 $618 forward 7 unknown #
vertex $-1 $346 $619 #
straight-curve $-1 -6.7044976375680143 19.470174347610715 9.8519865600112411 1 0 0 I I #
coedge $-1 $612 $347 $350 $501 reversed $486 $-1 #
coedge $-1 $347 $612 $492 $616 forward $486 $-1 #
vertex $-1 $348 $620 #
straight-curve $-1 -19.634193475447592 23.773301883916336 55.939264282008587 0 0 1 I I #
straight-curve $-1 -19.634193475447592 -11.000082421596986 38.26596130736894 0 0.7313536940579346 -0.68199836817093118 I I #
edge $-1 $614 7.1837970748244642 $351 19.634193475447592 $496 $621 forward 7 unknown #
point $-1 -19.634193475447592 23.773301883916336 9.8519865600112411 #
point $-1 -19.634193475447592 19.470174347610719 9.8519865600112411 #
edge $-1 $622 1 $622 0 $354 $-1 forward 7 unknown #
vertex $-1 $355 $623 #
ellipse-curve $-1 -16.076937360983848 19.096239901233865 5.137355640538515 0 0.68199836817093118 0.7313536940579346 1 0 0 1 I I #
point $-1 -15.076937360983848 21.621738115763502 7.8456208428242196 #
edge $-1 $624 1 $624 0 $358 $-1 forward 7 unknown #
vertex $-1 $359 $625 #
ellipse-curve $-1 -10.741053189288216 19.096239901233865 5.137355640538515 0 0.68199836817093118 0.7313536940579346 1 0 0 1 I I #
point $-1 -9.7410531892882162 21.621738115763502 7.8456208428242196 #
loop $-1 $-1 $370 $362 #
plane-surface $-1 0 23.773301883916336 0 0 -1 0 0 0 -1 forward_v I I I I #
coedge $-1 $515 $365 $367 $519 reversed $237 $-1 #
coedge $-1 $365 $514 $626 $627 reversed $237 $-1 #
coedge $-1 $373 $368 $365 $517 forward $363 $-1 #
edge $-1 $520 -9.3521999525802677 $628 -5.049072416274651 $516 $629 forward 7 unknown #
coedge $-1 $367 $366 $523 $630 reversed $149 $-1 #
edge $-1 $631 -47.546603767832643 $520 -41.662819258001839 $514 $632 forward 7 unknown #
vertex $-1 $369 $633 #
straight-curve $-1 6.7044976375680179 19.470174347610715 9.8519865600112411 1 0 0 I I #
coedge $-1 $626 $370 $373 $527 reversed $512 $-1 #
coedge $-1 $370 $626 $518 $630 forward $512 $-1 #
vertex $-1 $371 $634 #
straight-curve $-1 7.1837970748244713 23.773301883916336 55.939264282008587 0 0 1 I I #
straight-curve $-1 7.1837970748244713 -11.000082421596986 38.26596130736894 0 0.7313536940579346 -0.68199836817093118 I I #
edge $-1 $628 -19.634193475447599 $374 -7.1837970748244713 $522 $635 forward 7 unknown #
point $-1 7.1837970748244713 23.773301883916336 9.8519865600112411 #
point $-1 7.1837970748244713 19.470174347610719 9.8519865600112411 #
edge $-1 $636 1 $636 0 $377 $-1 forward 7 unknown #
vertex $-1 $378 $637 #
ellipse-curve $-1 10.741053189288216 19.096239901233865 5.137355640538515 0 0.68199836817093118 0.7313536940579346 1 0 0 1 I I #
point $-1 11.741053189288216 21.621738115763502 7.8456208428242196 #
edge $-1 $638 1 $638 0 $381 $-1 forward 7 unknown #
vertex $-1 $382 $639 #
ellipse-curve $-1 16.076937360983855 19.096239901233865 5.137355640538515 0 0.68199836817093118 0.7313536940579346 1 0 0 1 I I #
point $-1 17.076937360983855 21.621738115763502 7.8456208428242196 #
loop $-1 $-1 $393 $385 #
plane-surface $-1 0 23.773301883916336 0 0 -1 0 0 0 -1 forward_v I I I I #
coedge $-1 $541 $388 $390 $545 reversed $259 $-1 #
coedge $-1 $388 $540 $640 $641 reversed $259 $-1 #
coedge $-1 $396 $391 $388 $543 forward $386 $-1 #
edge $-1 $546 -9.3521999525802677 $642 -5.049072416274651 $542 $643 forward 7 unknown #
coedge $-1 $390 $389 $549 $644 reversed $163 $-1 #
edge $-1 $645 -47.546603767832643 $546 -41.662819258001839 $540 $646 forward 7 unknown #
vertex $-1 $392 $647 #
straight-curve $-1 20.11349291270405 19.470174347610715 9.8519865600112411 1 0 0 I I #
coedge $-1 $640 $393 $396 $553 reversed $538 $-1 #
coedge $-1 $393 $640 $544 $644 forward $538 $-1 #
vertex $-1 $394 $648 #
straight-curve $-1 34.001787625096533 23.773301883916336 55.939264282008587 0 0 1 I I #
straight-curve $-1 34.001787625096533 -11.000082421596986 38.26596130736894 0 0.7313536940579346 -0.68199836817093118 I I #
edge $-1 $642 -46.452184025719667 $397 -34.001787625096533 $548 $649 forward 7 unknown #
point $-1 34.001787625096533 23.773301883916336 9.8519865600112411 #
point $-1 34.001787625096533 19.470174347610719 9.8519865600112411 #
edge $-1 $650 1 $650 0 $400 $-1 forward 7 unknown #
vertex $-1 $401 $651 #
ellipse-curve $-1 37.559043739560273 19.096239901233865 5.137355640538515 0 0.68199836817093118 0.7313536940579346 1 0 0 1 I I #
point $-1 38.559043739560273 21.621738115763502 7.8456208428242196 #
edge $-1 $652 1 $652 0 $404 $-1 forward 7 unknown #
vertex $-1 $405 $653 #
ellipse-curve $-1 42.894927911255927 19.096239901233865 5.137355640538515 0 0.68199836817093118 0.7313536940579346 1 0 0 1 I I #
point $-1 43.894927911255927 21.621738115763502 7.8456208428242196 #
plane-surface $-1 50.326242866298408 0 0 -1 0 0 0 0 1 forward_v I I I I #
coedge $-1 $413 $411 $415 $569 reversed $281 $-1 #
edge $-1 $426 -9.8519865600112411 $571 9.8519865600112411 $425 $654 forward 7 unknown #
vertex $-1 $569 $655 #
straight-curve $-1 -50.326242866298408 -23.773301883916336 0 0 0 -1 I I #
edge $-1 $567 -23.773301883916336 $571 23.773301883916336 $565 $656 forward 7 unknown #
straight-curve $-1 0 -23.773301883916336 -9.8519865600112411 -1 0 0 I I #
vertex $-1 $418 $657 #
straight-curve $-1 0 23.773301883916336 -9.8519865600112411 1 0 0 I I #
point $-1 50.326242866298408 23.773301883916336 -9.8519865600112411 #
point $-1 50.326242866298408 -23.773301883916336 -9.8519865600112411 #
straight-curve $-1 -50.326242866298408 0 9.8519865600112411 0 -1 0 I I #
point $-1 -50.326242866298408 23.773301883916336 9.8519865600112411 #
point $-1 -50.326242866298408 -23.773301883916336 9.8519865600112411 #
straight-curve $-1 50.326242866298408 -23.773301883916336 0 0 0 -1 I I #
straight-curve $-1 50.326242866298408 23.773301883916336 0 0 0 -1 I I #
loop $-1 $-1 $441 $435 #
plane-surface $-1 0 -23.773301883916336 0 0 1 0 0 0 1 forward_v I I I I #
coedge $-1 $452 $443 $439 $584 forward $436 $-1 #
edge $-1 $588 -13.747629175347196 $447 -6.3037162417910757 $438 $658 forward 7 unknown #
edge $-1 $448 6.3037162417910757 $587 13.747629175347196 $582 $659 forward 7 unknown #
coedge $-1 $450 $441 $455 $597 reversed $580 $-1 #
coedge $-1 $441 $450 $452 $595 reversed $580 $-1 #
vertex $-1 $595 $660 #
vertex $-1 $442 $661 #
straight-curve $-1 -30.622269746275926 -23.773301883916336 0 0 0 1 I I #
straight-curve $-1 -16.127102576189401 -16.329388950360212 -9.8519865600112411 1 0 0 I I #
straight-curve $-1 -16.127102576189401 -16.329388950360212 9.8519865600112411 -1 0 0 I I #
point $-1 -30.622269746275926 -16.329388950360212 9.8519865600112411 #
point $-1 -30.622269746275926 -16.329388950360212 -9.8519865600112411 #
straight-curve $-1 -33.886140558481678 -23.773301883916336 0 0 0 -1 I I #
edge $-1 $587 30.622269746275926 $453 33.886140558481678 $586 $662 forward 7 unknown #
point $-1 -33.886140558481678 -23.773301883916332 -9.8519865600112411 #
edge $-1 $456 -33.886140558481678 $588 -30.622269746275926 $585 $663 forward 7 unknown #
point $-1 -33.886140558481678 -23.773301883916332 9.8519865600112411 #
edge $-1 $600 46.087277721997346 $603 50.100009156371357 $461 $664 forward 7 unknown #
vertex $-1 $475 $665 #
straight-curve $-1 -34.001787625096526 28.822374300190987 9.8519865600112411 0 1 0 I I #
edge $-1 $603 13.888294712392479 $472 26.338691113015614 $471 $666 forward 7 unknown #
vertex $-1 $602 $667 #
straight-curve $-1 -34.001787625096526 -11.000082421596986 38.26596130736894 0 -0.7313536940579346 0.68199836817093118 I I #
point $-1 -34.001787625096526 19.470174347610719 9.8519865600112411 #
point $-1 -46.45218402571966 23.773301883916332 5.83925512563723 #
straight-curve $-1 0 23.773301883916336 9.8519865600112411 -1 0 0 I I #
vertex $-1 $478 $668 #
point $-1 -41.894927911255913 19.096239901233865 5.137355640538515 #
vertex $-1 $482 $669 #
point $-1 -36.559043739560281 19.096239901233865 5.137355640538515 #
coedge $-1 $497 $496 $489 $613 forward $486 $-1 #
edge $-1 $614 46.087277721997346 $617 50.100009156371357 $612 $670 forward 7 unknown #
vertex $-1 $501 $671 #
straight-curve $-1 -7.1837970748244642 28.822374300190987 9.8519865600112411 0 1 0 I I #
edge $-1 $617 0.47929943725644986 $498 12.929695837879578 $497 $672 forward 7 unknown #
vertex $-1 $616 $673 #
straight-curve $-1 -7.1837970748244642 -11.000082421596986 38.26596130736894 0 -0.7313536940579346 0.68199836817093118 I I #
point $-1 -7.1837970748244642 19.470174347610719 9.8519865600112411 #
point $-1 -19.634193475447592 23.773301883916332 5.83925512563723 #
straight-curve $-1 0 23.773301883916336 9.8519865600112411 -1 0 0 I I #
vertex $-1 $504 $674 #
point $-1 -15.076937360983848 19.096239901233865 5.137355640538515 #
vertex $-1 $508 $675 #
point $-1 -9.7410531892882162 19.096239901233865 5.137355640538515 #
coedge $-1 $523 $522 $515 $627 forward $512 $-1 #
edge $-1 $628 46.087277721997346 $631 50.100009156371357 $626 $676 forward 7 unknown #
vertex $-1 $527 $677 #
straight-curve $-1 19.634193475447599 28.822374300190987 9.8519865600112411 0 1 0 I I #
edge $-1 $631 -12.929695837879581 $524 -0.47929943725645341 $523 $678 forward 7 unknown #
vertex $-1 $630 $679 #
straight-curve $-1 19.634193475447599 -11.000082421596986 38.26596130736894 0 -0.7313536940579346 0.68199836817093118 I I #
point $-1 19.634193475447599 19.470174347610719 9.8519865600112411 #
point $-1 7.1837970748244713 23.773301883916332 5.83925512563723 #
straight-curve $-1 0 23.773301883916336 9.8519865600112411 -1 0 0 I I #
vertex $-1 $530 $680 #
point $-1 11.741053189288216 19.096239901233865 5.137355640538515 #
vertex $-1 $534 $681 #
point $-1 17.076937360983855 19.096239901233865 5.137355640538515 #
coedge $-1 $549 $548 $541 $641 forward $538 $-1 #
edge $-1 $642 46.087277721997346 $645 50.100009156371357 $640 $682 forward 7 unknown #
vertex $-1 $553 $683 #
straight-curve $-1 46.452184025719667 28.822374300190987 9.8519865600112411 0 1 0 I I #
edge $-1 $645 -26.338691113015617 $550 -13.888294712392483 $549 $684 forward 7 unknown #
vertex $-1 $644 $685 #
straight-curve $-1 46.452184025719667 -11.000082421596986 38.26596130736894 0 -0.7313536940579346 0.68199836817093118 I I #
point $-1 46.452184025719667 19.470174347610719 9.8519865600112411 #
point $-1 34.001787625096533 23.773301883916332 5.83925512563723 #
straight-curve $-1 0 23.773301883916336 9.8519865600112411 -1 0 0 I I #
vertex $-1 $556 $686 #
point $-1 38.559043739560273 19.096239901233865 5.137355640538515 #
vertex $-1 $560 $687 #
point $-1 43.894927911255927 19.096239901233865 5.137355640538515 #
straight-curve $-1 -50.326242866298408 23.773301883916336 0 0 0 -1 I I #
point $-1 -50.326242866298408 -23.773301883916336 -9.8519865600112411 #
straight-curve $-1 -50.326242866298408 0 -9.8519865600112411 0 1 0 I I #
point $-1 -50.326242866298408 23.773301883916336 -9.8519865600112411 #
straight-curve $-1 -30.622269746275926 -10.025672708569136 9.8519865600112411 0 1 0 I I #
straight-curve $-1 -30.622269746275926 -10.025672708569136 -9.8519865600112411 0 -1 0 I I #
point $-1 -30.622269746275926 -23.773301883916332 -9.8519865600112411 #
point $-1 -30.622269746275926 -23.773301883916332 9.8519865600112411 #
straight-curve $-1 0 -23.773301883916336 -9.8519865600112411 -1 0 0 I I #
straight-curve $-1 0 -23.773301883916336 9.8519865600112411 1 0 0 I I #
straight-curve $-1 -34.001787625096526 23.773301883916336 55.939264282008587 0 0 -1 I I #
point $-1 -34.001787625096526 23.773301883916336 9.8519865600112411 #
straight-curve $-1 -20.113492912704046 23.773301883916336 5.8392551256372265 -1 0 0 I I #
point $-1 -34.001787625096526 23.773301883916332 5.83925512563723 #
point $-1 -42.894927911255913 18.414241533062935 4.40600194648058 #
point $-1 -37.559043739560281 18.414241533062935 4.40600194648058 #
straight-curve $-1 -7.1837970748244642 23.773301883916336 55.939264282008587 0 0 -1 I I #
point $-1 -7.1837970748244642 23.773301883916336 9.8519865600112411 #
straight-curve $-1 -6.7044976375680143 23.773301883916336 5.8392551256372265 -1 0 0 I I #
point $-1 -7.1837970748244642 23.773301883916332 5.83925512563723 #
point $-1 -16.076937360983848 18.414241533062935 4.40600194648058 #
point $-1 -10.741053189288216 18.414241533062935 4.40600194648058 #
straight-curve $-1 19.634193475447599 23.773301883916336 55.939264282008587 0 0 -1 I I #
point $-1 19.634193475447599 23.773301883916336 9.8519865600112411 #
straight-curve $-1 6.7044976375680179 23.773301883916336 5.8392551256372265 -1 0 0 I I #
point $-1 19.634193475447599 23.773301883916332 5.83925512563723 #
point $-1 10.741053189288216 18.414241533062935 4.40600194648058 #
point $-1 16.076937360983855 18.414241533062935 4.40600194648058 #
straight-curve $-1 46.452184025719667 23.773301883916336 55.939264282008587 0 0 -1 I I #
point $-1 46.452184025719667 23.773301883916336 9.8519865600112411 #
straight-curve $-1 20.11349291270405 23.773301883916336 5.8392551256372265 -1 0 0 I I #
point $-1 46.452184025719667 23.773301883916332 5.83925512563723 #
point $-1 37.559043739560273 18.414241533062935 4.40600194648058 #
point $-1 42.894927911255927 18.414241533062935 4.40600194648058 #
End-of-ACIS-data 