500 0 10 0           
7 Unknown 11 ACIS 5.0 NT 24 Fri Mar 26 19:29:15 1999 
-1 9.9999999999999995e-007 1e-010 
body $-1 $10 $-1 $11 #
body $-1 $12 $-1 $13 #
body $-1 $14 $-1 $15 #
body $-1 $16 $-1 $17 #
body $-1 $18 $-1 $19 #
body $-1 $20 $-1 $21 #
body $-1 $22 $-1 $23 #
body $-1 $24 $-1 $25 #
body $-1 $26 $-1 $27 #
body $-1 $28 $-1 $29 #
lump $-1 $-1 $30 $0 #
transform $-1 1 0 0 0 1 0 0 0 1 75.025482955412457 44.121175234409968 18.857638322790148 1 rotate no_reflect no_shear #
lump $-1 $-1 $31 $1 #
transform $-1 1 0 0 0 1 0 0 0 1 75.025482955412457 44.121175234409968 18.857638322790148 1 rotate no_reflect no_shear #
lump $-1 $-1 $32 $2 #
transform $-1 1 0 0 0 1 0 0 0 1 75.025482955412457 44.121175234409968 18.857638322790148 1 rotate no_reflect no_shear #
lump $-1 $-1 $33 $3 #
transform $-1 1 0 0 0 1 0 0 0 1 75.025482955412457 44.121175234409968 18.857638322790148 1 rotate no_reflect no_shear #
lump $-1 $-1 $34 $4 #
transform $-1 1 0 0 0 1 0 0 0 1 75.025482955412457 44.121175234409968 18.857638322790148 1 rotate no_reflect no_shear #
lump $-1 $-1 $35 $5 #
transform $-1 1 0 0 0 1 0 0 0 1 75.025482955412457 44.121175234409968 18.857638322790148 1 rotate no_reflect no_shear #
lump $-1 $-1 $36 $6 #
transform $-1 1 0 0 0 1 0 0 0 1 75.025482955412457 44.121175234409968 18.857638322790148 1 rotate no_reflect no_shear #
lump $-1 $-1 $37 $7 #
transform $-1 1 0 0 0 1 0 0 0 1 75.025482955412457 44.121175234409968 18.857638322790148 1 rotate no_reflect no_shear #
lump $-1 $-1 $38 $8 #
transform $-1 1 0 0 0 1 0 0 0 1 75.025482955412457 44.121175234409968 18.857638322790148 1 rotate no_reflect no_shear #
lump $-1 $-1 $39 $9 #
transform $-1 1 0 0 0 1 0 0 0 1 75.025482955412457 44.121175234409968 18.857638322790148 1 rotate no_reflect no_shear #
shell $-1 $-1 $-1 $40 $-1 $10 #
shell $-1 $-1 $-1 $41 $-1 $12 #
shell $-1 $-1 $-1 $42 $-1 $14 #
shell $-1 $-1 $-1 $43 $-1 $16 #
shell $-1 $-1 $-1 $44 $-1 $18 #
shell $-1 $-1 $-1 $45 $-1 $20 #
shell $-1 $-1 $-1 $46 $-1 $22 #
shell $-1 $-1 $-1 $47 $-1 $24 #
shell $-1 $-1 $-1 $48 $-1 $26 #
shell $-1 $-1 $-1 $49 $-1 $28 #
face $-1 $50 $51 $30 $-1 $52 forward single #
face $-1 $53 $54 $31 $-1 $55 reversed single #
face $-1 $56 $57 $32 $-1 $58 forward single #
face $-1 $59 $60 $33 $-1 $61 forward single #
face $-1 $62 $63 $34 $-1 $64 reversed single #
face $-1 $65 $66 $35 $-1 $67 forward single #
face $-1 $68 $69 $36 $-1 $70 forward single #
face $-1 $71 $72 $37 $-1 $73 reversed single #
face $-1 $74 $75 $38 $-1 $76 forward single #
face $-1 $77 $78 $39 $-1 $79 forward single #
face $-1 $80 $81 $30 $-1 $82 reversed single #
loop $-1 $-1 $83 $40 #
plane-surface $-1 0 0 18.857638322790148 0 0 1 1 0 0 forward_v I I I I #
face $-1 $84 $85 $31 $-1 $86 reversed single #
loop $-1 $-1 $87 $41 #
plane-surface $-1 -41.363100730808242 -160.73267864643972 100.59083342042581 -1 0 0 0 -0.77714596973225614 0.62932038083071107 forward_v I I I I #
face $-1 $88 $89 $32 $-1 $90 forward single #
loop $-1 $91 $92 $42 #
cone-surface $-1 -63.515945529531109 -35.99282794535241 10.089973476246669 0 0.77714596973225614 -0.62932038083071107 3 0 0 1 I I 0 1 3 forward I I I I #
face $-1 $93 $94 $33 $-1 $95 forward single #
loop $-1 $96 $97 $43 #
cone-surface $-1 -50.224238650297394 -35.99282794535241 10.089973476246669 0 0.77714596973225614 -0.62932038083071107 3 0 0 1 I I 0 1 3 forward I I I I #
face $-1 $98 $99 $34 $-1 $100 reversed single #
loop $-1 $-1 $101 $44 #
plane-surface $-1 72.377083449020247 -160.73267864643972 100.59083342042581 -1 0 0 0 -0.77714596973225614 0.62932038083071107 forward_v I I I I #
face $-1 $102 $103 $35 $-1 $104 forward single #
loop $-1 $105 $106 $45 #
cone-surface $-1 50.22423865029738 -35.99282794535241 10.089973476246669 0 0.77714596973225614 -0.62932038083071107 3 0 0 1 I I 0 1 3 forward I I I I #
face $-1 $107 $108 $36 $-1 $109 forward single #
loop $-1 $110 $111 $46 #
cone-surface $-1 63.515945529531109 -35.99282794535241 10.089973476246669 0 0.77714596973225614 -0.62932038083071107 3 0 0 1 I I 0 1 3 forward I I I I #
face $-1 $112 $113 $37 $-1 $114 reversed single #
loop $-1 $-1 $115 $47 #
plane-surface $-1 -35.275508914586823 127.29178866719832 166.41782364325462 -1 0 0 0 0.85716730853699208 0.51503806187062418 forward_v I I I I #
face $-1 $116 $117 $38 $-1 $118 forward single #
loop $-1 $119 $120 $48 #
cone-surface $-1 -63.668347515176563 41.863260906329799 15.788442311112602 0 -0.85716730853699208 -0.51503806187062418 1 0 0 1 I I 0 1 1 forward I I I I #
face $-1 $121 $122 $39 $-1 $123 forward single #
loop $-1 $124 $125 $49 #
cone-surface $-1 -46.632644354822723 41.863260906329799 15.788442311112602 0 -0.85716730853699208 -0.51503806187062418 1 0 0 1 I I 0 1 1 forward I I I I #
face $-1 $126 $127 $30 $-1 $128 reversed single #
loop $-1 $-1 $129 $50 #
plane-surface $-1 0 0 -18.857638322790148 0 0 1 1 0 0 forward_v I I I I #
coedge $-1 $130 $131 $132 $133 forward $51 $-1 #
face $-1 $134 $135 $31 $-1 $136 reversed single #
loop $-1 $-1 $137 $53 #
plane-surface $-1 -56.870092089914245 -44.121175234409989 6.1607024094094243 0 -0.77714596973225614 0.62932038083071107 1 0 0 forward_v I I I I #
coedge $-1 $138 $139 $140 $141 reversed $54 $-1 #
face $-1 $-1 $142 $32 $-1 $143 forward single #
loop $-1 $144 $145 $56 #
cone-surface $-1 -63.515945529531109 -31.839649550053178 6.7267960151474817 0 0.77714596973225614 -0.62932038083071107 1.5 0 0 1 I I -0.70710678118654768 0.70710678118654735 1.5 forward I I I I #
loop $-1 $-1 $146 $42 #
coedge $-1 $92 $92 $147 $148 reversed $57 $-1 #
face $-1 $-1 $149 $33 $-1 $150 forward single #
loop $-1 $151 $152 $59 #
cone-surface $-1 -50.224238650297394 -31.839649550053178 6.7267960151474817 0 0.77714596973225614 -0.62932038083071107 1.5 0 0 1 I I -0.70710678118654768 0.70710678118654735 1.5 forward I I I I #
loop $-1 $-1 $153 $43 #
coedge $-1 $97 $97 $154 $155 reversed $60 $-1 #
face $-1 $156 $157 $34 $-1 $158 reversed single #
loop $-1 $-1 $159 $62 #
plane-surface $-1 56.870092089914237 -44.121175234409989 6.1607024094094243 0 -0.77714596973225614 0.62932038083071107 1 0 0 forward_v I I I I #
coedge $-1 $160 $161 $162 $163 reversed $63 $-1 #
face $-1 $-1 $164 $35 $-1 $165 forward single #
loop $-1 $166 $167 $65 #
cone-surface $-1 50.22423865029738 -31.839649550053178 6.7267960151474817 0 0.77714596973225614 -0.62932038083071107 1.5 0 0 1 I I -0.70710678118654768 0.70710678118654735 1.5 forward I I I I #
loop $-1 $-1 $168 $45 #
coedge $-1 $106 $106 $169 $170 reversed $66 $-1 #
face $-1 $-1 $171 $36 $-1 $172 forward single #
loop $-1 $173 $174 $68 #
cone-surface $-1 63.515945529531109 -31.839649550053178 6.7267960151474817 0 0.77714596973225614 -0.62932038083071107 1.5 0 0 1 I I -0.70710678118654768 0.70710678118654735 1.5 forward I I I I #
loop $-1 $-1 $175 $46 #
coedge $-1 $111 $111 $176 $177 reversed $69 $-1 #
face $-1 $178 $179 $37 $-1 $180 reversed single #
loop $-1 $-1 $181 $71 #
plane-surface $-1 -55.15049593499964 -1.3269939259594139 89.135864978728264 0 0.85716730853699208 0.51503806187062418 1 0 0 forward_v I I I I #
coedge $-1 $182 $183 $184 $185 reversed $72 $-1 #
face $-1 $-1 $186 $38 $-1 $187 forward single #
loop $-1 $188 $189 $74 #
cone-surface $-1 -63.668347515176563 40.787138845375601 15.141842965698867 0 -0.85716730853699208 -0.51503806187062418 0.5 0 0 1 I I -0.70710678118654746 0.70710678118654746 0.5 forward I I I I #
loop $-1 $-1 $190 $48 #
coedge $-1 $120 $120 $191 $192 reversed $75 $-1 #
face $-1 $-1 $193 $39 $-1 $194 forward single #
loop $-1 $195 $196 $77 #
cone-surface $-1 -46.632644354822723 40.787138845375601 15.141842965698867 0 -0.85716730853699208 -0.51503806187062418 0.5 0 0 1 I I -0.70710678118654746 0.70710678118654746 0.5 forward I I I I #
loop $-1 $-1 $197 $49 #
coedge $-1 $125 $125 $198 $199 reversed $78 $-1 #
face $-1 $200 $201 $30 $-1 $202 reversed single #
loop $-1 $-1 $203 $80 #
plane-surface $-1 0 -44.121175234409968 0 0 1 0 0 0 1 forward_v I I I I #
coedge $-1 $204 $205 $206 $207 forward $81 $-1 #
coedge $-1 $208 $83 $209 $210 forward $51 $-1 #
coedge $-1 $83 $208 $211 $212 forward $51 $-1 #
coedge $-1 $213 $214 $83 $133 reversed $215 $-1 #
edge $-1 $216 -44.121175234409968 $217 44.121175234409968 $132 $218 forward 7 unknown #
face $-1 $219 $220 $31 $-1 $221 reversed single #
loop $-1 $-1 $222 $84 #
plane-surface $-1 -72.377083449020247 -160.73267864643972 100.59083342042581 1 0 0 0 0.77714596973225614 -0.62932038083071107 forward_v I I I I #
coedge $-1 $223 $224 $225 $226 reversed $85 $-1 #
coedge $-1 $139 $87 $227 $228 reversed $54 $-1 #
coedge $-1 $87 $138 $223 $229 reversed $54 $-1 #
coedge $-1 $225 $230 $87 $141 forward $231 $-1 #
edge $-1 $232 36.245164088809894 $233 46.526939785523282 $140 $234 forward 7 unknown #
loop $-1 $-1 $147 $88 #
plane-surface $-1 -56.870092089914245 -44.121175234409989 6.1607024094094243 0 -0.77714596973225614 0.62932038083071107 1 0 0 forward_v I I I I #
loop $-1 $-1 $235 $56 #
coedge $-1 $145 $145 $146 $236 reversed $89 $-1 #
coedge $-1 $146 $146 $145 $236 forward $91 $-1 #
coedge $-1 $147 $147 $92 $148 forward $142 $-1 #
edge $-1 $237 -8.1028418069358373e-016 $237 6.2831853071795996 $147 $238 forward 7 unknown #
loop $-1 $-1 $154 $93 #
plane-surface $-1 -56.870092089914245 -44.121175234409989 6.1607024094094243 0 -0.77714596973225614 0.62932038083071107 1 0 0 forward_v I I I I #
loop $-1 $-1 $239 $59 #
coedge $-1 $152 $152 $153 $240 reversed $94 $-1 #
coedge $-1 $153 $153 $152 $240 forward $96 $-1 #
coedge $-1 $154 $154 $97 $155 forward $149 $-1 #
edge $-1 $241 -8.1028418069358373e-016 $241 6.2831853071795996 $154 $242 forward 7 unknown #
face $-1 $243 $244 $34 $-1 $245 reversed single #
loop $-1 $-1 $246 $98 #
plane-surface $-1 41.363100730808235 -160.73267864643972 100.59083342042581 1 0 0 0 0.77714596973225614 -0.62932038083071107 forward_v I I I I #
coedge $-1 $247 $248 $249 $250 reversed $99 $-1 #
coedge $-1 $161 $101 $251 $252 reversed $63 $-1 #
coedge $-1 $101 $160 $247 $253 reversed $63 $-1 #
coedge $-1 $249 $254 $101 $163 forward $255 $-1 #
edge $-1 $256 36.245164088809894 $257 46.526939785523282 $162 $258 forward 7 unknown #
loop $-1 $-1 $169 $102 #
plane-surface $-1 56.870092089914237 -44.121175234409989 6.1607024094094243 0 -0.77714596973225614 0.62932038083071107 1 0 0 forward_v I I I I #
loop $-1 $-1 $259 $65 #
coedge $-1 $167 $167 $168 $260 reversed $103 $-1 #
coedge $-1 $168 $168 $167 $260 forward $105 $-1 #
coedge $-1 $169 $169 $106 $170 forward $164 $-1 #
edge $-1 $261 -8.1028418069358373e-016 $261 6.2831853071795996 $169 $262 forward 7 unknown #
loop $-1 $-1 $176 $107 #
plane-surface $-1 56.870092089914237 -44.121175234409989 6.1607024094094243 0 -0.77714596973225614 0.62932038083071107 1 0 0 forward_v I I I I #
loop $-1 $-1 $263 $68 #
coedge $-1 $174 $174 $175 $264 reversed $108 $-1 #
coedge $-1 $175 $175 $174 $264 forward $110 $-1 #
coedge $-1 $176 $176 $111 $177 forward $171 $-1 #
edge $-1 $265 -8.1028418069358373e-016 $265 6.2831853071795996 $176 $266 forward 7 unknown #
face $-1 $267 $268 $37 $-1 $269 forward single #
loop $-1 $-1 $184 $112 #
plane-surface $-1 0 44.121175234409968 0 0 -1 0 0 0 -1 forward_v I I I I #
coedge $-1 $270 $271 $272 $273 reversed $113 $-1 #
coedge $-1 $183 $115 $274 $275 reversed $72 $-1 #
coedge $-1 $115 $182 $270 $276 reversed $72 $-1 #
coedge $-1 $272 $277 $115 $185 forward $179 $-1 #
edge $-1 $278 64.351273498837159 $279 69.7115048932354 $184 $280 forward 7 unknown #
loop $-1 $-1 $191 $116 #
plane-surface $-1 -55.15049593499964 -1.3269939259594139 89.135864978728264 0 0.85716730853699208 0.51503806187062418 1 0 0 forward_v I I I I #
loop $-1 $-1 $281 $74 #
coedge $-1 $189 $189 $190 $282 reversed $117 $-1 #
coedge $-1 $190 $190 $189 $282 forward $119 $-1 #
coedge $-1 $191 $191 $120 $192 forward $186 $-1 #
edge $-1 $283 0 $283 6.2831853071796004 $191 $284 forward 7 unknown #
loop $-1 $-1 $198 $121 #
plane-surface $-1 -55.15049593499964 -1.3269939259594139 89.135864978728264 0 0.85716730853699208 0.51503806187062418 1 0 0 forward_v I I I I #
loop $-1 $-1 $285 $77 #
coedge $-1 $196 $196 $197 $286 reversed $122 $-1 #
coedge $-1 $197 $197 $196 $286 forward $124 $-1 #
coedge $-1 $198 $198 $125 $199 forward $193 $-1 #
edge $-1 $287 0 $287 6.2831853071796004 $198 $288 forward 7 unknown #
face $-1 $289 $290 $30 $-1 $291 reversed single #
loop $-1 $-1 $292 $126 #
plane-surface $-1 -75.025482955412457 0 0 1 0 0 0 0 -1 forward_v I I I I #
coedge $-1 $293 $211 $294 $295 forward $127 $-1 #
coedge $-1 $296 $129 $293 $297 forward $81 $-1 #
coedge $-1 $129 $296 $298 $299 forward $81 $-1 #
coedge $-1 $214 $213 $129 $207 reversed $215 $-1 #
edge $-1 $300 -44.121175234409968 $301 44.121175234409968 $206 $302 forward 7 unknown #
coedge $-1 $131 $130 $303 $304 forward $51 $-1 #
coedge $-1 $305 $306 $130 $210 reversed $290 $-1 #
edge $-1 $217 -75.025482955412457 $307 75.025482955412457 $209 $308 forward 7 unknown #
coedge $-1 $203 $309 $131 $212 reversed $127 $-1 #
edge $-1 $310 -75.025482955412457 $216 75.025482955412457 $211 $311 forward 7 unknown #
coedge $-1 $206 $132 $309 $312 forward $215 $-1 #
coedge $-1 $132 $206 $305 $313 reversed $215 $-1 #
loop $-1 $-1 $213 $289 #
vertex $-1 $133 $314 #
vertex $-1 $133 $315 #
straight-curve $-1 75.025482955412457 0 18.857638322790148 0 1 0 I I #
face $-1 $-1 $231 $31 $-1 $316 forward single #
loop $-1 $-1 $317 $134 #
plane-surface $-1 0 -44.121175234409968 0 0 1 0 0 0 1 forward_v I I I I #
coedge $-1 $318 $319 $320 $321 reversed $135 $-1 #
coedge $-1 $322 $137 $139 $229 forward $85 $-1 #
coedge $-1 $137 $322 $318 $323 forward $85 $-1 #
coedge $-1 $320 $140 $137 $226 forward $231 $-1 #
edge $-1 $233 12.928054685851119 $324 43.942037404063129 $225 $325 forward 7 unknown #
coedge $-1 $326 $327 $138 $228 forward $220 $-1 #
edge $-1 $328 -44.134714300803452 $232 -31.437778387422757 $227 $329 forward 7 unknown #
edge $-1 $233 -16.337903570104203 $328 -3.4122099130144743e-014 $139 $330 forward 7 unknown #
coedge $-1 $140 $320 $326 $331 forward $231 $-1 #
loop $-1 $-1 $320 $219 #
vertex $-1 $228 $332 #
vertex $-1 $141 $333 #
straight-curve $-1 -41.363100730808242 -80.366339323219862 18.857638322790145 0 1 0 I I #
coedge $-1 $235 $235 $-1 $334 reversed $144 $-1 #
edge $-1 $335 0 $335 6.2831853071796004 $145 $336 forward 7 unknown #
vertex $-1 $148 $337 #
ellipse-curve $-1 -63.515945529531109 -38.98028738605327 12.5091703660998 0 -0.77714596973225614 0.62932038083071107 3 0 0 1 I I #
coedge $-1 $239 $239 $-1 $338 reversed $151 $-1 #
edge $-1 $339 0 $339 6.2831853071796004 $152 $340 forward 7 unknown #
vertex $-1 $155 $341 #
ellipse-curve $-1 -50.224238650297394 -38.98028738605327 12.5091703660998 0 -0.77714596973225614 0.62932038083071107 3 0 0 1 I I #
face $-1 $-1 $255 $34 $-1 $342 forward single #
loop $-1 $-1 $343 $156 #
plane-surface $-1 0 -44.121175234409968 0 0 1 0 0 0 1 forward_v I I I I #
coedge $-1 $344 $345 $346 $347 reversed $157 $-1 #
coedge $-1 $348 $159 $161 $253 forward $99 $-1 #
coedge $-1 $159 $348 $344 $349 forward $99 $-1 #
coedge $-1 $346 $162 $159 $250 forward $255 $-1 #
edge $-1 $257 -43.942037404063129 $350 -12.928054685851116 $249 $351 forward 7 unknown #
coedge $-1 $352 $353 $160 $252 forward $244 $-1 #
edge $-1 $354 -44.134714300803452 $256 -31.437778387422757 $251 $355 forward 7 unknown #
edge $-1 $257 -16.337903570104203 $354 -3.4122099130144743e-014 $161 $356 forward 7 unknown #
coedge $-1 $162 $346 $352 $357 forward $255 $-1 #
loop $-1 $-1 $346 $243 #
vertex $-1 $252 $358 #
vertex $-1 $163 $359 #
straight-curve $-1 72.377083449020247 -80.366339323219862 18.857638322790145 0 1 0 I I #
coedge $-1 $259 $259 $-1 $360 reversed $166 $-1 #
edge $-1 $361 0 $361 6.2831853071796004 $167 $362 forward 7 unknown #
vertex $-1 $170 $363 #
ellipse-curve $-1 50.22423865029738 -38.98028738605327 12.5091703660998 0 -0.77714596973225614 0.62932038083071107 3 0 0 1 I I #
coedge $-1 $263 $263 $-1 $364 reversed $173 $-1 #
edge $-1 $365 0 $365 6.2831853071796004 $174 $366 forward 7 unknown #
vertex $-1 $177 $367 #
ellipse-curve $-1 63.515945529531109 -38.98028738605327 12.5091703660998 0 -0.77714596973225614 0.62932038083071107 3 0 0 1 I I #
face $-1 $-1 $368 $37 $-1 $369 reversed single #
loop $-1 $-1 $274 $178 #
plane-surface $-1 0 0 18.857638322790148 0 0 1 1 0 0 forward_v I I I I #
coedge $-1 $370 $181 $183 $276 forward $113 $-1 #
coedge $-1 $181 $370 $371 $372 reversed $113 $-1 #
coedge $-1 $373 $184 $181 $273 forward $179 $-1 #
edge $-1 $279 7.7002609470870027 $374 47.450234987912637 $272 $375 forward 7 unknown #
coedge $-1 $376 $377 $182 $275 forward $268 $-1 #
edge $-1 $378 -22.74547094197812 $278 -19.524719099189191 $274 $379 forward 7 unknown #
edge $-1 $279 -88.242350468819936 $378 -81.988925564471856 $183 $380 forward 7 unknown #
coedge $-1 $184 $373 $376 $381 reversed $179 $-1 #
vertex $-1 $381 $382 #
vertex $-1 $185 $383 #
straight-curve $-1 -35.275508914586823 44.121175234409968 83.208911821627311 0 0 -1 I I #
coedge $-1 $281 $281 $-1 $384 reversed $188 $-1 #
edge $-1 $385 0 $385 6.2831853071796004 $189 $386 forward 7 unknown #
vertex $-1 $192 $387 #
ellipse-curve $-1 -63.668347515176563 42.510799313015504 16.177522625591024 0 0.85716730853699208 0.51503806187062418 1 0 0 1 I I #
coedge $-1 $285 $285 $-1 $388 reversed $195 $-1 #
edge $-1 $389 0 $389 6.2831853071796004 $196 $390 forward 7 unknown #
vertex $-1 $199 $391 #
ellipse-curve $-1 -46.632644354822723 42.510799313015504 16.177522625591024 0 0.85716730853699208 0.51503806187062418 1 0 0 1 I I #
face $-1 $-1 $215 $30 $-1 $392 reversed single #
loop $-1 $-1 $305 $200 #
plane-surface $-1 0 44.121175234409968 0 0 -1 0 0 0 -1 forward_v I I I I #
coedge $-1 $393 $303 $306 $394 forward $201 $-1 #
coedge $-1 $309 $203 $204 $297 reversed $127 $-1 #
coedge $-1 $303 $393 $203 $295 reversed $201 $-1 #
edge $-1 $310 -18.857638322790148 $395 18.857638322790148 $294 $396 forward 7 unknown #
coedge $-1 $205 $204 $393 $397 forward $81 $-1 #
edge $-1 $301 -75.025482955412457 $395 75.025482955412457 $293 $398 forward 7 unknown #
coedge $-1 $306 $305 $205 $299 reversed $290 $-1 #
edge $-1 $399 -75.025482955412457 $300 75.025482955412457 $298 $400 forward 7 unknown #
vertex $-1 $207 $401 #
vertex $-1 $312 $402 #
straight-curve $-1 75.025482955412457 0 -18.857638322790148 0 -1 0 I I #
coedge $-1 $292 $294 $208 $304 reversed $201 $-1 #
edge $-1 $307 -44.121175234409968 $310 44.121175234409968 $303 $403 forward 7 unknown #
coedge $-1 $298 $209 $214 $313 forward $290 $-1 #
coedge $-1 $209 $298 $292 $394 reversed $290 $-1 #
vertex $-1 $210 $404 #
straight-curve $-1 0 44.121175234409968 18.857638322790148 -1 0 0 I I #
coedge $-1 $211 $293 $213 $312 reversed $127 $-1 #
vertex $-1 $304 $405 #
straight-curve $-1 0 -44.121175234409968 18.857638322790148 1 0 0 I I #
edge $-1 $216 -18.857638322790148 $301 18.857638322790148 $213 $406 forward 7 unknown #
edge $-1 $217 -18.857638322790148 $300 18.857638322790148 $214 $407 forward 7 unknown #
point $-1 75.025482955412457 -44.121175234409968 18.857638322790148 #
point $-1 75.025482955412457 44.121175234409968 18.857638322790148 #
plane-surface $-1 0 0 18.857638322790148 0 0 1 1 0 0 forward_v I I I I #
coedge $-1 $327 $326 $319 $408 forward $220 $-1 #
coedge $-1 $319 $222 $224 $323 reversed $135 $-1 #
coedge $-1 $222 $318 $317 $408 reversed $135 $-1 #
coedge $-1 $230 $225 $222 $321 forward $231 $-1 #
edge $-1 $324 -46.526939785523282 $409 -36.245164088809894 $320 $410 forward 7 unknown #
coedge $-1 $224 $223 $327 $411 reversed $85 $-1 #
edge $-1 $412 3.4122099130144743e-014 $324 16.337903570104203 $318 $413 forward 7 unknown #
vertex $-1 $226 $414 #
straight-curve $-1 -28.435046044957122 -33.839399537696579 18.857638322790148 -1 0 0 I I #
coedge $-1 $317 $227 $230 $331 reversed $220 $-1 #
coedge $-1 $227 $317 $322 $411 forward $220 $-1 #
vertex $-1 $228 $415 #
straight-curve $-1 -41.363100730808242 -44.121175234409968 50.295416710212905 0 0 1 I I #
straight-curve $-1 -41.363100730808242 -44.121175234409989 6.1607024094094243 0 -0.62932038083071107 -0.77714596973225614 I I #
edge $-1 $409 -72.377083449020247 $232 -41.363100730808242 $326 $416 forward 7 unknown #
point $-1 -41.363100730808242 -44.121175234409968 18.857638322790148 #
point $-1 -41.363100730808242 -33.839399537696579 18.857638322790148 #
edge $-1 $417 1 $417 0 $235 $-1 forward 7 unknown #
vertex $-1 $236 $418 #
ellipse-curve $-1 -63.515945529531109 -33.005368504651564 7.670776586393548 0 -0.77714596973225614 0.62932038083071107 3 0 0 1 I I #
point $-1 -60.515945529531109 -38.980287386053263 12.509170366099791 #
edge $-1 $419 1 $419 0 $239 $-1 forward 7 unknown #
vertex $-1 $240 $420 #
ellipse-curve $-1 -50.224238650297394 -33.005368504651564 7.670776586393548 0 -0.77714596973225614 0.62932038083071107 3 0 0 1 I I #
point $-1 -47.224238650297394 -38.980287386053263 12.509170366099791 #
plane-surface $-1 0 0 18.857638322790148 0 0 1 1 0 0 forward_v I I I I #
coedge $-1 $353 $352 $345 $421 forward $244 $-1 #
coedge $-1 $345 $246 $248 $349 reversed $157 $-1 #
coedge $-1 $246 $344 $343 $421 reversed $157 $-1 #
coedge $-1 $254 $249 $246 $347 forward $255 $-1 #
edge $-1 $350 -46.526939785523282 $422 -36.245164088809894 $346 $423 forward 7 unknown #
coedge $-1 $248 $247 $353 $424 reversed $99 $-1 #
edge $-1 $425 3.4122099130144743e-014 $350 16.337903570104203 $344 $426 forward 7 unknown #
vertex $-1 $250 $427 #
straight-curve $-1 28.435046044957119 -33.839399537696579 18.857638322790148 -1 0 0 I I #
coedge $-1 $343 $251 $254 $357 reversed $244 $-1 #
coedge $-1 $251 $343 $348 $424 forward $244 $-1 #
vertex $-1 $252 $428 #
straight-curve $-1 72.377083449020247 -44.121175234409968 50.295416710212905 0 0 1 I I #
straight-curve $-1 72.377083449020247 -44.121175234409989 6.1607024094094243 0 -0.62932038083071107 -0.77714596973225614 I I #
edge $-1 $422 41.363100730808235 $256 72.377083449020247 $352 $429 forward 7 unknown #
point $-1 72.377083449020247 -44.121175234409968 18.857638322790148 #
point $-1 72.377083449020247 -33.839399537696579 18.857638322790148 #
edge $-1 $430 1 $430 0 $259 $-1 forward 7 unknown #
vertex $-1 $260 $431 #
ellipse-curve $-1 50.22423865029738 -33.005368504651564 7.670776586393548 0 -0.77714596973225614 0.62932038083071107 3 0 0 1 I I #
point $-1 53.22423865029738 -38.980287386053263 12.509170366099791 #
edge $-1 $432 1 $432 0 $263 $-1 forward 7 unknown #
vertex $-1 $264 $433 #
ellipse-curve $-1 63.515945529531109 -33.005368504651564 7.670776586393548 0 -0.77714596973225614 0.62932038083071107 3 0 0 1 I I #
point $-1 66.515945529531109 -38.980287386053263 12.509170366099791 #
loop $-1 $-1 $371 $267 #
plane-surface $-1 -75.025482955412457 0 0 1 0 0 0 0 -1 forward_v I I I I #
coedge $-1 $271 $270 $377 $434 reversed $113 $-1 #
coedge $-1 $435 $436 $271 $372 forward $368 $-1 #
edge $-1 $374 -49.698449539983201 $437 -43.445024635635107 $371 $438 forward 7 unknown #
coedge $-1 $277 $272 $436 $439 reversed $179 $-1 #
vertex $-1 $273 $440 #
straight-curve $-1 -27.57524796749982 44.121175234409968 13.497406928391896 -1 0 0 I I #
coedge $-1 $441 $274 $277 $381 forward $268 $-1 #
coedge $-1 $274 $441 $370 $434 forward $268 $-1 #
vertex $-1 $275 $442 #
straight-curve $-1 -35.275508914586823 63.645894333599159 18.857638322790152 0 1 0 I I #
straight-curve $-1 -35.275508914586823 -1.3269939259594139 89.135864978728264 0 -0.51503806187062418 0.85716730853699208 I I #
edge $-1 $278 35.275508914586823 $443 75.025482955412457 $277 $444 forward 7 unknown #
point $-1 -35.275508914586823 44.121175234409968 18.857638322790148 #
point $-1 -35.275508914586823 44.121175234409968 13.497406928391911 #
edge $-1 $445 1 $445 0 $281 $-1 forward 7 unknown #
vertex $-1 $282 $446 #
ellipse-curve $-1 -63.668347515176563 41.215722499644095 15.399361996634179 0 0.85716730853699208 0.51503806187062418 1 0 0 1 I I #
point $-1 -62.668347515176563 42.510799313015504 16.177522625591024 #
edge $-1 $447 1 $447 0 $285 $-1 forward 7 unknown #
vertex $-1 $286 $448 #
ellipse-curve $-1 -46.632644354822723 41.215722499644095 15.399361996634179 0 0.85716730853699208 0.51503806187062418 1 0 0 1 I I #
point $-1 -45.632644354822723 42.510799313015504 16.177522625591024 #
plane-surface $-1 75.025482955412457 0 0 -1 0 0 0 0 1 forward_v I I I I #
coedge $-1 $294 $292 $296 $397 reversed $201 $-1 #
edge $-1 $307 -18.857638322790148 $399 18.857638322790148 $306 $449 forward 7 unknown #
vertex $-1 $397 $450 #
straight-curve $-1 -75.025482955412457 -44.121175234409968 0 0 0 -1 I I #
edge $-1 $395 -44.121175234409968 $399 44.121175234409968 $393 $451 forward 7 unknown #
straight-curve $-1 0 -44.121175234409968 -18.857638322790148 -1 0 0 I I #
vertex $-1 $299 $452 #
straight-curve $-1 0 44.121175234409968 -18.857638322790148 1 0 0 I I #
point $-1 75.025482955412457 44.121175234409968 -18.857638322790148 #
point $-1 75.025482955412457 -44.121175234409968 -18.857638322790148 #
straight-curve $-1 -75.025482955412457 0 18.857638322790148 0 -1 0 I I #
point $-1 -75.025482955412457 44.121175234409968 18.857638322790148 #
point $-1 -75.025482955412457 -44.121175234409968 18.857638322790148 #
straight-curve $-1 75.025482955412457 -44.121175234409968 0 0 0 -1 I I #
straight-curve $-1 75.025482955412457 44.121175234409968 0 0 0 -1 I I #
edge $-1 $409 31.437778387422757 $412 44.134714300803452 $317 $453 forward 7 unknown #
vertex $-1 $331 $454 #
straight-curve $-1 -72.377083449020247 -80.366339323219862 18.857638322790145 0 -1 0 I I #
edge $-1 $412 -43.942037404063129 $328 -12.928054685851119 $327 $455 forward 7 unknown #
vertex $-1 $411 $456 #
straight-curve $-1 -72.377083449020247 -44.121175234409989 6.1607024094094243 0 0.62932038083071107 0.77714596973225614 I I #
point $-1 -72.377083449020247 -33.839399537696579 18.857638322790148 #
point $-1 -41.363100730808242 -44.121175234409968 6.1607024094094509 #
straight-curve $-1 0 -44.121175234409968 18.857638322790148 1 0 0 I I #
vertex $-1 $334 $457 #
point $-1 -60.515945529531109 -33.005368504651564 7.670776586393548 #
vertex $-1 $338 $458 #
point $-1 -47.224238650297394 -33.005368504651564 7.670776586393548 #
edge $-1 $422 31.437778387422757 $425 44.134714300803452 $343 $459 forward 7 unknown #
vertex $-1 $357 $460 #
straight-curve $-1 41.363100730808235 -80.366339323219862 18.857638322790145 0 -1 0 I I #
edge $-1 $425 12.928054685851116 $354 43.942037404063129 $353 $461 forward 7 unknown #
vertex $-1 $424 $462 #
straight-curve $-1 41.363100730808235 -44.121175234409989 6.1607024094094243 0 0.62932038083071107 0.77714596973225614 I I #
point $-1 41.363100730808235 -33.839399537696579 18.857638322790148 #
point $-1 72.377083449020247 -44.121175234409968 6.1607024094094509 #
straight-curve $-1 0 -44.121175234409968 18.857638322790148 1 0 0 I I #
vertex $-1 $360 $463 #
point $-1 53.22423865029738 -33.005368504651564 7.670776586393548 #
vertex $-1 $364 $464 #
point $-1 66.515945529531109 -33.005368504651564 7.670776586393548 #
edge $-1 $437 -47.450234987912637 $378 -7.7002609470870027 $377 $465 forward 7 unknown #
coedge $-1 $436 $371 $441 $466 reversed $368 $-1 #
coedge $-1 $371 $435 $373 $439 forward $368 $-1 #
vertex $-1 $372 $467 #
straight-curve $-1 -75.025482955412457 18.524582105362008 56.097293159040809 0 -0.51503806187062429 0.85716730853699219 I I #
edge $-1 $443 -18.857638322790148 $374 -13.497406928391896 $373 $468 forward 7 unknown #
point $-1 -75.025482955412457 44.121175234409968 13.497406928391896 #
coedge $-1 $377 $376 $435 $466 forward $268 $-1 #
point $-1 -35.275508914586823 40.90042339162104 18.857638322790152 #
vertex $-1 $381 $469 #
straight-curve $-1 0 44.121175234409968 18.857638322790148 -1 0 0 I I #
vertex $-1 $384 $470 #
point $-1 -62.668347515176563 41.215722499644095 15.399361996634179 #
vertex $-1 $388 $471 #
point $-1 -45.632644354822723 41.215722499644095 15.399361996634179 #
straight-curve $-1 -75.025482955412457 44.121175234409968 0 0 0 -1 I I #
point $-1 -75.025482955412457 -44.121175234409968 -18.857638322790148 #
straight-curve $-1 -75.025482955412457 0 -18.857638322790148 0 1 0 I I #
point $-1 -75.025482955412457 44.121175234409968 -18.857638322790148 #
straight-curve $-1 -72.377083449020247 -44.121175234409968 50.295416710212905 0 0 -1 I I #
point $-1 -72.377083449020247 -44.121175234409968 18.857638322790148 #
straight-curve $-1 -28.435046044957122 -44.121175234409968 6.1607024094094482 1 0 0 I I #
point $-1 -72.377083449020247 -44.121175234409968 6.1607024094094509 #
point $-1 -63.515945529531109 -30.673930595454795 5.7828154439014154 #
point $-1 -50.224238650297394 -30.673930595454795 5.7828154439014154 #
straight-curve $-1 41.363100730808235 -44.121175234409968 50.295416710212905 0 0 -1 I I #
point $-1 41.363100730808235 -44.121175234409968 18.857638322790148 #
straight-curve $-1 28.435046044957119 -44.121175234409968 6.1607024094094482 1 0 0 I I #
point $-1 41.363100730808235 -44.121175234409968 6.1607024094094509 #
point $-1 50.22423865029738 -30.673930595454795 5.7828154439014154 #
point $-1 63.515945529531109 -30.673930595454795 5.7828154439014154 #
straight-curve $-1 -27.57524796749982 40.900423391621032 18.857638322790145 1 0 0 I I #
edge $-1 $443 -44.121175234409968 $437 -40.90042339162104 $435 $472 forward 7 unknown #
point $-1 -75.025482955412457 40.90042339162104 18.857638322790152 #
straight-curve $-1 -75.025482955412457 44.121175234409968 0 0 0 -1 I I #
point $-1 -75.025482955412457 44.121175234409968 18.857638322790148 #
point $-1 -63.668347515176563 40.358555191107108 14.884323934763556 #
point $-1 -46.632644354822723 40.358555191107108 14.884323934763556 #
straight-curve $-1 -75.025482955412457 0 18.857638322790148 0 -1 0 I I #
End-of-ACIS-data 