500 0 8 0           
7 Unknown 11 ACIS 5.0 NT 24 Thu Mar 25 18:28:20 1999 
-1 9.9999999999999995e-007 1e-010 
body $-1 $8 $-1 $9 #
body $-1 $10 $-1 $11 #
body $-1 $12 $-1 $13 #
body $-1 $14 $-1 $15 #
body $-1 $16 $-1 $17 #
body $-1 $18 $-1 $19 #
body $-1 $20 $-1 $21 #
body $-1 $22 $-1 $23 #
lump $-1 $-1 $24 $0 #
transform $-1 1 0 0 0 1 0 0 0 1 63.144016846217227 26.267579553486815 8.9393302138383799 1 rotate no_reflect no_shear #
lump $-1 $-1 $25 $1 #
transform $-1 1 0 0 0 1 0 0 0 1 63.144016846217227 26.267579553486815 8.9393302138383799 1 rotate no_reflect no_shear #
lump $-1 $-1 $26 $2 #
transform $-1 1 0 0 0 1 0 0 0 1 63.144016846217227 26.267579553486815 8.9393302138383799 1 rotate no_reflect no_shear #
lump $-1 $-1 $27 $3 #
transform $-1 1 0 0 0 1 0 0 0 1 63.144016846217227 26.267579553486815 8.9393302138383799 1 rotate no_reflect no_shear #
lump $-1 $-1 $28 $4 #
transform $-1 1 0 0 0 1 0 0 0 1 63.144016846217227 26.267579553486815 8.9393302138383799 1 rotate no_reflect no_shear #
lump $-1 $-1 $29 $5 #
transform $-1 1 0 0 0 1 0 0 0 1 63.144016846217227 26.267579553486815 8.9393302138383799 1 rotate no_reflect no_shear #
lump $-1 $-1 $30 $6 #
transform $-1 1 0 0 0 1 0 0 0 1 63.144016846217227 26.267579553486815 8.9393302138383799 1 rotate no_reflect no_shear #
lump $-1 $-1 $31 $7 #
transform $-1 1 0 0 0 1 0 0 0 1 63.144016846217227 26.267579553486815 8.9393302138383799 1 rotate no_reflect no_shear #
shell $-1 $-1 $-1 $32 $-1 $8 #
shell $-1 $-1 $-1 $33 $-1 $10 #
shell $-1 $-1 $-1 $34 $-1 $12 #
shell $-1 $-1 $-1 $35 $-1 $14 #
shell $-1 $-1 $-1 $36 $-1 $16 #
shell $-1 $-1 $-1 $37 $-1 $18 #
shell $-1 $-1 $-1 $38 $-1 $20 #
shell $-1 $-1 $-1 $39 $-1 $22 #
face $-1 $40 $41 $24 $-1 $42 forward single #
face $-1 $43 $44 $25 $-1 $45 reversed single #
face $-1 $46 $47 $26 $-1 $48 reversed single #
face $-1 $49 $50 $27 $-1 $51 forward single #
face $-1 $52 $53 $28 $-1 $54 forward single #
face $-1 $55 $56 $29 $-1 $57 reversed single #
face $-1 $58 $59 $30 $-1 $60 forward single #
face $-1 $61 $62 $31 $-1 $63 forward single #
face $-1 $64 $65 $24 $-1 $66 reversed single #
loop $-1 $-1 $67 $32 #
plane-surface $-1 0 0 8.9393302138383799 0 0 1 1 0 0 forward_v I I I I #
face $-1 $68 $69 $25 $-1 $70 reversed single #
loop $-1 $-1 $71 $33 #
plane-surface $-1 0 -21.577430792518737 3.8457098430235108 0 0 1 1 0 0 forward_v I I I I #
face $-1 $72 $73 $26 $-1 $74 reversed single #
loop $-1 $-1 $75 $34 #
plane-surface $-1 66.260988212358001 14.206071383289451 179.79165010721073 0 -1 0 -0.71933980857756763 0 -0.69465836192734942 forward_v I I I I #
face $-1 $76 $77 $27 $-1 $78 forward single #
loop $-1 $79 $80 $35 #
cone-surface $-1 58.362880457597214 8.5426888161116459 4.0619448484348109 -0.71933980857756763 0 -0.69465836192734942 0.69465836192734942 0 -0.71933980857756763 1 I I 0 1 1 forward I I I I #
face $-1 $81 $82 $28 $-1 $83 forward single #
loop $-1 $84 $85 $36 #
cone-surface $-1 58.362880457597214 11.940718356418326 4.0619448484348109 -0.71933980857756763 0 -0.69465836192734942 0.69465836192734942 0 -0.71933980857756763 1 I I 0 1 1 forward I I I I #
face $-1 $86 $87 $29 $-1 $88 reversed single #
loop $-1 $-1 $89 $37 #
plane-surface $-1 -153.98802682817043 6.2773357892405208 88.947640125257536 0 1 0 -0.71933980857756763 0 0.69465836192734942 forward_v I I I I #
face $-1 $90 $91 $30 $-1 $92 forward single #
loop $-1 $93 $94 $38 #
cone-surface $-1 -58.362880457597214 8.5426888161116459 4.0619448484348144 0.71933980857756763 0 -0.69465836192734942 0.69465836192734942 0 0.71933980857756763 1 I I 0 1 1 forward I I I I #
face $-1 $95 $96 $31 $-1 $97 forward single #
loop $-1 $98 $99 $39 #
cone-surface $-1 -58.362880457597214 11.940718356418326 4.0619448484348144 0.71933980857756763 0 -0.69465836192734942 0.69465836192734942 0 0.71933980857756763 1 I I 0 1 1 forward I I I I #
face $-1 $100 $101 $24 $-1 $102 reversed single #
loop $-1 $-1 $103 $40 #
plane-surface $-1 0 0 -8.9393302138383799 0 0 1 1 0 0 forward_v I I I I #
coedge $-1 $104 $105 $106 $107 forward $41 $-1 #
face $-1 $108 $109 $25 $-1 $110 reversed single #
loop $-1 $-1 $111 $43 #
plane-surface $-1 0 -16.887282031550658 6.3925200284309458 0 -1 0 0 0 -1 forward_v I I I I #
coedge $-1 $112 $113 $114 $115 reversed $44 $-1 #
face $-1 $116 $117 $26 $-1 $118 reversed single #
loop $-1 $-1 $119 $46 #
plane-surface $-1 -24.583021769595206 10.241703586264986 92.064611491398296 0.71933980857756763 0 0.69465836192734942 0.69465836192734942 0 -0.71933980857756763 forward_v I I I I #
coedge $-1 $120 $121 $122 $123 reversed $47 $-1 #
face $-1 $-1 $124 $27 $-1 $125 forward single #
loop $-1 $126 $127 $49 #
cone-surface $-1 56.949018909035388 8.5426888161116459 2.6965946542642119 -0.71933980857756763 0 -0.69465836192734942 0.34732918096367471 0 -0.35966990428878381 1 I I -0.70710678118654746 0.70710678118654746 0.5 forward I I I I #
loop $-1 $-1 $128 $35 #
coedge $-1 $80 $80 $129 $130 reversed $50 $-1 #
face $-1 $-1 $131 $28 $-1 $132 forward single #
loop $-1 $133 $134 $52 #
cone-surface $-1 56.949018909035388 11.940718356418326 2.6965946542642119 -0.71933980857756763 0 -0.69465836192734942 0.34732918096367471 0 -0.35966990428878381 1 I I -0.70710678118654746 0.70710678118654746 0.5 forward I I I I #
loop $-1 $-1 $135 $36 #
coedge $-1 $85 $85 $136 $137 reversed $53 $-1 #
face $-1 $138 $139 $29 $-1 $140 reversed single #
loop $-1 $-1 $141 $55 #
plane-surface $-1 -63.144016846217227 10.241703586264986 1.2206015094451033 -0.71933980857756763 0 0.69465836192734942 0.69465836192734942 0 0.71933980857756763 forward_v I I I I #
coedge $-1 $142 $143 $144 $145 reversed $56 $-1 #
face $-1 $-1 $146 $30 $-1 $147 forward single #
loop $-1 $148 $149 $58 #
cone-surface $-1 -56.949018909035388 8.5426888161116459 2.6965946542642154 0.71933980857756763 0 -0.69465836192734942 0.34732918096367471 0 0.35966990428878381 1 I I -0.70710678118654746 0.70710678118654746 0.5 forward I I I I #
loop $-1 $-1 $150 $38 #
coedge $-1 $94 $94 $151 $152 reversed $59 $-1 #
face $-1 $-1 $153 $31 $-1 $154 forward single #
loop $-1 $155 $156 $61 #
cone-surface $-1 -56.949018909035388 11.940718356418326 2.6965946542642154 0.71933980857756763 0 -0.69465836192734942 0.34732918096367471 0 0.35966990428878381 1 I I -0.70710678118654746 0.70710678118654746 0.5 forward I I I I #
loop $-1 $-1 $157 $39 #
coedge $-1 $99 $99 $158 $159 reversed $62 $-1 #
face $-1 $160 $161 $24 $-1 $162 reversed single #
loop $-1 $-1 $163 $64 #
plane-surface $-1 0 -26.267579553486815 0 0 1 0 0 0 1 forward_v I I I I #
coedge $-1 $164 $165 $166 $167 forward $65 $-1 #
coedge $-1 $168 $67 $169 $170 forward $41 $-1 #
coedge $-1 $67 $168 $171 $172 forward $41 $-1 #
coedge $-1 $173 $174 $67 $107 reversed $175 $-1 #
edge $-1 $176 -26.267579553486815 $177 26.267579553486815 $106 $178 forward 7 unknown #
face $-1 $179 $180 $25 $-1 $181 reversed single #
loop $-1 $-1 $182 $68 #
plane-surface $-1 -63.144016846217227 0 0 1 0 0 0 0 -1 forward_v I I I I #
coedge $-1 $183 $184 $185 $186 reversed $69 $-1 #
coedge $-1 $187 $71 $188 $189 reversed $44 $-1 #
coedge $-1 $71 $187 $183 $190 forward $44 $-1 #
coedge $-1 $185 $191 $71 $115 forward $192 $-1 #
edge $-1 $193 -15.478864157227447 $194 -6.0985666352912897 $114 $195 forward 7 unknown #
face $-1 $196 $197 $26 $-1 $198 reversed single #
loop $-1 $-1 $199 $72 #
plane-surface $-1 66.260988212358001 6.2773357892405208 179.79165010721073 0 1 0 0.71933980857756763 0 0.69465836192734942 forward_v I I I I #
coedge $-1 $200 $201 $202 $203 reversed $73 $-1 #
coedge $-1 $121 $75 $204 $205 reversed $47 $-1 #
coedge $-1 $75 $120 $200 $206 reversed $47 $-1 #
coedge $-1 $202 $207 $75 $123 forward $208 $-1 #
edge $-1 $209 -30.013522740038226 $210 -22.559633251344266 $122 $211 forward 7 unknown #
loop $-1 $-1 $129 $76 #
plane-surface $-1 -24.583021769595206 10.241703586264986 92.064611491398296 0.71933980857756763 0 0.69465836192734942 0.69465836192734942 0 -0.71933980857756763 forward_v I I I I #
loop $-1 $-1 $212 $49 #
coedge $-1 $127 $127 $128 $213 reversed $77 $-1 #
coedge $-1 $128 $128 $127 $213 forward $79 $-1 #
coedge $-1 $129 $129 $80 $130 forward $124 $-1 #
edge $-1 $214 0 $214 6.2831853071796004 $129 $215 forward 7 unknown #
loop $-1 $-1 $136 $81 #
plane-surface $-1 -24.583021769595206 10.241703586264986 92.064611491398296 0.71933980857756763 0 0.69465836192734942 0.69465836192734942 0 -0.71933980857756763 forward_v I I I I #
loop $-1 $-1 $216 $52 #
coedge $-1 $134 $134 $135 $217 reversed $82 $-1 #
coedge $-1 $135 $135 $134 $217 forward $84 $-1 #
coedge $-1 $136 $136 $85 $137 forward $131 $-1 #
edge $-1 $218 0 $218 6.2831853071796004 $136 $219 forward 7 unknown #
face $-1 $220 $221 $29 $-1 $222 forward single #
loop $-1 $-1 $223 $86 #
plane-surface $-1 -153.98802682817043 14.206071383289451 88.947640125257536 0 -1 0 0.71933980857756763 0 -0.69465836192734942 forward_v I I I I #
coedge $-1 $224 $225 $226 $227 reversed $87 $-1 #
coedge $-1 $143 $89 $228 $229 reversed $56 $-1 #
coedge $-1 $89 $142 $224 $230 reversed $56 $-1 #
coedge $-1 $226 $231 $89 $145 forward $221 $-1 #
edge $-1 $232 13.84999656786799 $233 21.303886056561936 $144 $234 forward 7 unknown #
loop $-1 $-1 $151 $90 #
plane-surface $-1 -63.144016846217227 10.241703586264986 1.2206015094451033 -0.71933980857756763 0 0.69465836192734942 0.69465836192734942 0 0.71933980857756763 forward_v I I I I #
loop $-1 $-1 $235 $58 #
coedge $-1 $149 $149 $150 $236 reversed $91 $-1 #
coedge $-1 $150 $150 $149 $236 forward $93 $-1 #
coedge $-1 $151 $151 $94 $152 forward $146 $-1 #
edge $-1 $237 0 $237 6.2831853071796004 $151 $238 forward 7 unknown #
loop $-1 $-1 $158 $95 #
plane-surface $-1 -63.144016846217227 10.241703586264986 1.2206015094451033 -0.71933980857756763 0 0.69465836192734942 0.69465836192734942 0 0.71933980857756763 forward_v I I I I #
loop $-1 $-1 $239 $61 #
coedge $-1 $156 $156 $157 $240 reversed $96 $-1 #
coedge $-1 $157 $157 $156 $240 forward $98 $-1 #
coedge $-1 $158 $158 $99 $159 forward $153 $-1 #
edge $-1 $241 0 $241 6.2831853071796004 $158 $242 forward 7 unknown #
face $-1 $243 $244 $24 $-1 $245 reversed single #
loop $-1 $-1 $246 $100 #
plane-surface $-1 -63.144016846217227 0 0 1 0 0 0 0 -1 forward_v I I I I #
coedge $-1 $247 $171 $248 $249 forward $101 $-1 #
coedge $-1 $250 $103 $247 $251 forward $65 $-1 #
coedge $-1 $103 $250 $252 $253 forward $65 $-1 #
coedge $-1 $174 $173 $103 $167 reversed $175 $-1 #
edge $-1 $254 -26.267579553486815 $255 26.267579553486815 $166 $256 forward 7 unknown #
coedge $-1 $105 $104 $257 $258 forward $41 $-1 #
coedge $-1 $259 $260 $104 $170 reversed $244 $-1 #
edge $-1 $177 -63.144016846217227 $261 63.144016846217227 $169 $262 forward 7 unknown #
coedge $-1 $163 $263 $105 $172 reversed $101 $-1 #
edge $-1 $264 -63.144016846217227 $176 63.144016846217227 $171 $265 forward 7 unknown #
coedge $-1 $166 $106 $263 $266 forward $175 $-1 #
coedge $-1 $106 $166 $259 $267 reversed $175 $-1 #
loop $-1 $-1 $173 $243 #
vertex $-1 $107 $268 #
vertex $-1 $107 $269 #
straight-curve $-1 63.144016846217227 0 8.9393302138383799 0 1 0 I I #
face $-1 $270 $271 $25 $-1 $272 forward single #
loop $-1 $-1 $188 $108 #
plane-surface $-1 0 -26.267579553486815 0 0 1 0 0 0 1 forward_v I I I I #
coedge $-1 $273 $274 $275 $276 forward $109 $-1 #
coedge $-1 $275 $111 $113 $190 reversed $69 $-1 #
coedge $-1 $111 $275 $277 $278 reversed $69 $-1 #
coedge $-1 $279 $114 $111 $186 forward $192 $-1 #
edge $-1 $194 0.64944982880803792 $280 5.7430701996229088 $185 $281 forward 7 unknown #
coedge $-1 $113 $112 $273 $282 reversed $44 $-1 #
coedge $-1 $283 $284 $112 $189 forward $180 $-1 #
edge $-1 $285 -63.144016846217227 $193 63.144016846217227 $188 $286 forward 7 unknown #
edge $-1 $287 -63.144016846217227 $194 63.144016846217227 $183 $288 forward 7 unknown #
coedge $-1 $114 $279 $283 $289 forward $192 $-1 #
loop $-1 $-1 $185 $270 #
vertex $-1 $189 $290 #
vertex $-1 $115 $291 #
straight-curve $-1 63.144016846217227 -10.788715396259368 3.8457098430235108 0 1 0 I I #
face $-1 $-1 $208 $26 $-1 $292 forward single #
loop $-1 $-1 $293 $116 #
plane-surface $-1 63.144016846217227 0 0 -1 0 0 0 0 1 forward_v I I I I #
coedge $-1 $294 $295 $296 $297 reversed $117 $-1 #
coedge $-1 $298 $119 $121 $206 forward $73 $-1 #
coedge $-1 $119 $298 $294 $299 forward $73 $-1 #
coedge $-1 $296 $122 $119 $203 forward $208 $-1 #
edge $-1 $210 -9.0852195901569583 $300 -1.1564839961080278 $202 $301 forward 7 unknown #
coedge $-1 $302 $303 $120 $205 forward $197 $-1 #
edge $-1 $304 -88.675223544160275 $209 -80.956494839766989 $204 $305 forward 7 unknown #
edge $-1 $210 115.55773820155038 $304 126.28803369243445 $121 $306 forward 7 unknown #
coedge $-1 $122 $296 $302 $307 forward $208 $-1 #
loop $-1 $-1 $296 $196 #
vertex $-1 $205 $308 #
vertex $-1 $123 $309 #
straight-curve $-1 33.130494106179 14.206071383289451 8.9393302138383746 -1 0 0 I I #
coedge $-1 $212 $212 $-1 $310 reversed $126 $-1 #
edge $-1 $311 0 $311 6.2831853071796004 $127 $312 forward 7 unknown #
vertex $-1 $130 $313 #
ellipse-curve $-1 59.417072101870247 8.5426888161116459 5.0799658616417265 0.71933980857756763 0 0.69465836192734942 0.69465836192734942 0 -0.71933980857756763 1 I I #
coedge $-1 $216 $216 $-1 $314 reversed $133 $-1 #
edge $-1 $315 0 $315 6.2831853071796004 $134 $316 forward 7 unknown #
vertex $-1 $137 $317 #
ellipse-curve $-1 59.417072101870247 11.940718356418326 5.0799658616417265 0.71933980857756763 0 0.69465836192734942 0.69465836192734942 0 -0.71933980857756763 1 I I #
face $-1 $-1 $318 $29 $-1 $319 reversed single #
loop $-1 $-1 $144 $138 #
plane-surface $-1 0 0 8.9393302138383799 0 0 1 1 0 0 forward_v I I I I #
coedge $-1 $320 $321 $322 $323 reversed $139 $-1 #
coedge $-1 $324 $141 $143 $230 forward $87 $-1 #
coedge $-1 $141 $324 $320 $325 forward $87 $-1 #
coedge $-1 $322 $144 $141 $227 forward $221 $-1 #
edge $-1 $233 1.1564839961080278 $326 9.0852195901569583 $226 $327 forward 7 unknown #
coedge $-1 $328 $329 $142 $229 forward $318 $-1 #
edge $-1 $330 -43.253218553183665 $232 -35.534489848790386 $228 $331 forward 7 unknown #
edge $-1 $233 -10.730295490884062 $330 0 $143 $332 forward 7 unknown #
coedge $-1 $144 $322 $328 $333 forward $221 $-1 #
vertex $-1 $229 $334 #
vertex $-1 $145 $335 #
straight-curve $-1 -76.994013414085217 6.2773357892405208 8.9393302138383817 1 0 0 I I #
coedge $-1 $235 $235 $-1 $336 reversed $148 $-1 #
edge $-1 $337 0 $337 6.2831853071796004 $149 $338 forward 7 unknown #
vertex $-1 $152 $339 #
ellipse-curve $-1 -59.417072101870254 8.5426888161116459 5.0799658616417389 -0.71933980857756763 0 0.69465836192734942 0.69465836192734942 0 0.71933980857756763 1 I I #
coedge $-1 $239 $239 $-1 $340 reversed $155 $-1 #
edge $-1 $341 0 $341 6.2831853071796004 $156 $342 forward 7 unknown #
vertex $-1 $159 $343 #
ellipse-curve $-1 -59.417072101870254 11.940718356418326 5.0799658616417389 -0.71933980857756763 0 0.69465836192734942 0.69465836192734942 0 0.71933980857756763 1 I I #
face $-1 $-1 $175 $24 $-1 $344 reversed single #
loop $-1 $-1 $259 $160 #
plane-surface $-1 0 26.267579553486815 0 0 -1 0 0 0 -1 forward_v I I I I #
coedge $-1 $345 $257 $260 $346 forward $161 $-1 #
coedge $-1 $263 $163 $164 $251 reversed $101 $-1 #
coedge $-1 $257 $345 $163 $249 reversed $161 $-1 #
edge $-1 $264 -8.9393302138383799 $347 8.9393302138383799 $248 $348 forward 7 unknown #
coedge $-1 $165 $164 $345 $349 forward $65 $-1 #
edge $-1 $255 -63.144016846217227 $347 63.144016846217227 $247 $350 forward 7 unknown #
coedge $-1 $260 $259 $165 $253 reversed $244 $-1 #
edge $-1 $351 -63.144016846217227 $254 63.144016846217227 $252 $352 forward 7 unknown #
vertex $-1 $167 $353 #
vertex $-1 $266 $354 #
straight-curve $-1 63.144016846217227 0 -8.9393302138383799 0 -1 0 I I #
coedge $-1 $246 $248 $168 $258 reversed $161 $-1 #
edge $-1 $261 -26.267579553486815 $264 26.267579553486815 $257 $355 forward 7 unknown #
coedge $-1 $252 $169 $174 $267 forward $244 $-1 #
coedge $-1 $169 $252 $246 $346 reversed $244 $-1 #
vertex $-1 $170 $356 #
straight-curve $-1 0 26.267579553486815 8.9393302138383799 -1 0 0 I I #
coedge $-1 $171 $247 $173 $266 reversed $101 $-1 #
vertex $-1 $258 $357 #
straight-curve $-1 0 -26.267579553486815 8.9393302138383799 1 0 0 I I #
edge $-1 $176 -8.9393302138383799 $255 8.9393302138383799 $173 $358 forward 7 unknown #
edge $-1 $177 -8.9393302138383799 $254 8.9393302138383799 $174 $359 forward 7 unknown #
point $-1 63.144016846217227 -26.267579553486815 8.9393302138383799 #
point $-1 63.144016846217227 26.267579553486815 8.9393302138383799 #
face $-1 $-1 $192 $25 $-1 $360 reversed single #
loop $-1 $-1 $277 $179 #
plane-surface $-1 0 0 8.9393302138383799 0 0 1 1 0 0 forward_v I I I I #
coedge $-1 $361 $182 $187 $282 forward $109 $-1 #
coedge $-1 $182 $361 $362 $363 reversed $109 $-1 #
coedge $-1 $184 $183 $182 $276 reversed $69 $-1 #
edge $-1 $364 -5.7430701996229088 $287 -0.64944982880803792 $182 $365 forward 7 unknown #
coedge $-1 $362 $366 $184 $278 forward $271 $-1 #
edge $-1 $280 -63.144016846217227 $364 63.144016846217227 $277 $367 forward 7 unknown #
coedge $-1 $191 $185 $366 $368 reversed $192 $-1 #
vertex $-1 $186 $369 #
straight-curve $-1 63.144016846217227 -16.887282031550658 3.1962600142154729 0 0 1 I I #
edge $-1 $287 6.0985666352912897 $285 15.478864157227447 $273 $370 forward 7 unknown #
coedge $-1 $371 $188 $191 $289 reversed $180 $-1 #
coedge $-1 $188 $371 $361 $372 forward $180 $-1 #
vertex $-1 $189 $373 #
straight-curve $-1 0 -26.267579553486815 3.8457098430235108 1 0 0 I I #
vertex $-1 $282 $374 #
straight-curve $-1 0 -16.887282031550658 3.8457098430235108 1 0 0 I I #
edge $-1 $375 -8.9393302138383799 $193 -3.8457098430235108 $191 $376 forward 7 unknown #
point $-1 63.144016846217227 -26.267579553486815 3.8457098430235108 #
point $-1 63.144016846217227 -16.887282031550658 3.8457098430235108 #
plane-surface $-1 0 0 8.9393302138383799 0 0 1 1 0 0 forward_v I I I I #
coedge $-1 $303 $302 $295 $377 forward $197 $-1 #
coedge $-1 $295 $199 $201 $299 reversed $117 $-1 #
coedge $-1 $199 $294 $293 $377 reversed $117 $-1 #
coedge $-1 $207 $202 $199 $297 forward $208 $-1 #
edge $-1 $300 22.559633251344266 $378 30.013522740038226 $296 $379 forward 7 unknown #
coedge $-1 $201 $200 $303 $380 reversed $73 $-1 #
edge $-1 $381 -126.28803369243445 $300 -115.55773820155038 $294 $382 forward 7 unknown #
vertex $-1 $203 $383 #
straight-curve $-1 55.690127357523259 5.1208517931324931 8.9393302138383959 0 -1 0 I I #
coedge $-1 $293 $204 $207 $307 reversed $197 $-1 #
coedge $-1 $204 $293 $298 $380 forward $197 $-1 #
vertex $-1 $205 $384 #
straight-curve $-1 63.144016846217227 14.206071383289451 89.895825053605364 0 0 1 I I #
straight-curve $-1 -24.583021769595206 14.206071383289451 92.064611491398296 0.69465836192734942 0 -0.71933980857756763 I I #
edge $-1 $378 6.2773357892405208 $209 14.206071383289451 $302 $385 forward 7 unknown #
point $-1 63.144016846217227 14.206071383289451 8.9393302138383799 #
point $-1 55.690127357523266 14.206071383289451 8.9393302138383746 #
edge $-1 $386 1 $386 0 $212 $-1 forward 7 unknown #
vertex $-1 $213 $387 #
ellipse-curve $-1 57.308688813324174 8.5426888161116459 3.0439238352278863 0.71933980857756763 0 0.69465836192734942 0.69465836192734942 0 -0.71933980857756763 1 I I #
point $-1 60.111730463797606 8.5426888161116459 4.3606260530641689 #
edge $-1 $388 1 $388 0 $216 $-1 forward 7 unknown #
vertex $-1 $217 $389 #
ellipse-curve $-1 57.308688813324174 11.940718356418326 3.0439238352278863 0.71933980857756763 0 0.69465836192734942 0.69465836192734942 0 -0.71933980857756763 1 I I #
point $-1 60.111730463797606 11.940718356418326 4.3606260530641689 #
loop $-1 $-1 $228 $220 #
plane-surface $-1 -63.144016846217227 0 0 1 0 0 0 0 -1 forward_v I I I I #
coedge $-1 $321 $223 $225 $325 reversed $139 $-1 #
coedge $-1 $223 $320 $390 $391 reversed $139 $-1 #
coedge $-1 $231 $226 $223 $323 forward $221 $-1 #
edge $-1 $326 -21.303886056561936 $392 -13.84999656786799 $322 $393 forward 7 unknown #
coedge $-1 $225 $224 $329 $394 reversed $87 $-1 #
edge $-1 $395 0 $326 10.730295490884062 $320 $396 forward 7 unknown #
vertex $-1 $227 $397 #
straight-curve $-1 -55.690127357523281 5.1208517931324931 8.9393302138383817 0 1 0 I I #
coedge $-1 $390 $228 $231 $333 reversed $318 $-1 #
coedge $-1 $228 $390 $324 $394 forward $318 $-1 #
vertex $-1 $229 $398 #
straight-curve $-1 -63.144016846217227 6.2773357892405208 44.473820062628768 0 0 1 I I #
straight-curve $-1 -63.144016846217227 6.2773357892405208 1.2206015094451033 -0.69465836192734942 0 -0.71933980857756763 I I #
edge $-1 $392 -14.206071383289451 $232 -6.2773357892405208 $328 $399 forward 7 unknown #
point $-1 -63.144016846217227 6.2773357892405208 8.9393302138383799 #
point $-1 -55.690127357523281 6.2773357892405208 8.9393302138383817 #
edge $-1 $400 1 $400 0 $235 $-1 forward 7 unknown #
vertex $-1 $236 $401 #
ellipse-curve $-1 -57.308688813324174 8.5426888161116459 3.0439238352278899 -0.71933980857756763 0 0.69465836192734942 0.69465836192734942 0 0.71933980857756763 1 I I #
point $-1 -58.722413739942908 8.5426888161116459 5.799305670219308 #
edge $-1 $402 1 $402 0 $239 $-1 forward 7 unknown #
vertex $-1 $240 $403 #
ellipse-curve $-1 -57.308688813324174 11.940718356418326 3.0439238352278899 -0.71933980857756763 0 0.69465836192734942 0.69465836192734942 0 0.71933980857756763 1 I I #
point $-1 -58.722413739942908 11.940718356418326 5.799305670219308 #
plane-surface $-1 63.144016846217227 0 0 -1 0 0 0 0 1 forward_v I I I I #
coedge $-1 $248 $246 $250 $349 reversed $161 $-1 #
edge $-1 $261 -8.9393302138383799 $351 8.9393302138383799 $260 $404 forward 7 unknown #
vertex $-1 $349 $405 #
straight-curve $-1 -63.144016846217227 -26.267579553486815 0 0 0 -1 I I #
edge $-1 $347 -26.267579553486815 $351 26.267579553486815 $345 $406 forward 7 unknown #
straight-curve $-1 0 -26.267579553486815 -8.9393302138383799 -1 0 0 I I #
vertex $-1 $253 $407 #
straight-curve $-1 0 26.267579553486815 -8.9393302138383799 1 0 0 I I #
point $-1 63.144016846217227 26.267579553486815 -8.9393302138383799 #
point $-1 63.144016846217227 -26.267579553486815 -8.9393302138383799 #
straight-curve $-1 -63.144016846217227 0 8.9393302138383799 0 -1 0 I I #
point $-1 -63.144016846217227 26.267579553486815 8.9393302138383799 #
point $-1 -63.144016846217227 -26.267579553486815 8.9393302138383799 #
straight-curve $-1 63.144016846217227 -26.267579553486815 0 0 0 -1 I I #
straight-curve $-1 63.144016846217227 26.267579553486815 0 0 0 -1 I I #
plane-surface $-1 63.144016846217227 0 0 -1 0 0 0 0 1 forward_v I I I I #
coedge $-1 $274 $273 $284 $372 reversed $109 $-1 #
coedge $-1 $408 $277 $274 $363 forward $271 $-1 #
edge $-1 $364 16.887282031550658 $409 26.267579553486815 $274 $410 forward 7 unknown #
vertex $-1 $363 $411 #
straight-curve $-1 -63.144016846217227 -16.887282031550658 3.1962600142154729 0 0 -1 I I #
coedge $-1 $277 $408 $279 $368 forward $271 $-1 #
straight-curve $-1 0 -16.887282031550658 8.9393302138383799 -1 0 0 I I #
edge $-1 $375 -26.267579553486815 $280 -16.887282031550658 $279 $412 forward 7 unknown #
point $-1 63.144016846217227 -16.887282031550658 8.9393302138383817 #
straight-curve $-1 -63.144016846217227 -10.788715396259368 3.8457098430235108 0 -1 0 I I #
coedge $-1 $284 $283 $408 $413 reversed $180 $-1 #
edge $-1 $409 -8.9393302138383799 $285 -3.8457098430235108 $361 $414 forward 7 unknown #
point $-1 -63.144016846217227 -26.267579553486815 3.8457098430235108 #
point $-1 -63.144016846217227 -16.887282031550658 3.8457098430235108 #
vertex $-1 $368 $415 #
straight-curve $-1 63.144016846217227 -26.267579553486815 0 0 0 -1 I I #
edge $-1 $378 80.956494839766989 $381 88.675223544160275 $293 $416 forward 7 unknown #
vertex $-1 $307 $417 #
straight-curve $-1 33.130494106179 6.2773357892405208 8.9393302138383746 1 0 0 I I #
edge $-1 $381 1.1564839961080278 $304 9.0852195901569583 $303 $418 forward 7 unknown #
vertex $-1 $380 $419 #
straight-curve $-1 -24.583021769595206 6.2773357892405208 92.064611491398296 -0.69465836192734942 0 0.71933980857756763 I I #
point $-1 55.690127357523266 6.2773357892405208 8.9393302138383746 #
point $-1 63.144016846217227 14.206071383289451 1.2206015094450891 #
straight-curve $-1 63.144016846217227 0 8.9393302138383799 0 1 0 I I #
vertex $-1 $310 $420 #
point $-1 58.00334717525152 8.5426888161116459 2.324584026650319 #
vertex $-1 $314 $421 #
point $-1 58.00334717525152 11.940718356418326 2.324584026650319 #
coedge $-1 $329 $328 $321 $391 forward $318 $-1 #
edge $-1 $392 35.534489848790386 $395 43.253218553183665 $390 $422 forward 7 unknown #
vertex $-1 $333 $423 #
straight-curve $-1 -76.994013414085217 14.206071383289451 8.9393302138383817 -1 0 0 I I #
edge $-1 $395 -9.0852195901569583 $330 -1.1564839961080278 $329 $424 forward 7 unknown #
vertex $-1 $394 $425 #
straight-curve $-1 -63.144016846217227 14.206071383289451 1.2206015094451033 0.69465836192734942 0 0.71933980857756763 I I #
point $-1 -55.690127357523281 14.206071383289451 8.9393302138383817 #
point $-1 -63.144016846217227 6.2773357892405208 1.2206015094451033 #
straight-curve $-1 -63.144016846217227 0 8.9393302138383799 0 -1 0 I I #
vertex $-1 $336 $426 #
point $-1 -56.614030451396822 8.5426888161116459 3.7632636438054576 #
vertex $-1 $340 $427 #
point $-1 -56.614030451396822 11.940718356418326 3.7632636438054576 #
straight-curve $-1 -63.144016846217227 26.267579553486815 0 0 0 -1 I I #
point $-1 -63.144016846217227 -26.267579553486815 -8.9393302138383799 #
straight-curve $-1 -63.144016846217227 0 -8.9393302138383799 0 1 0 I I #
point $-1 -63.144016846217227 26.267579553486815 -8.9393302138383799 #
coedge $-1 $366 $362 $371 $413 forward $271 $-1 #
vertex $-1 $363 $428 #
straight-curve $-1 -63.144016846217227 0 8.9393302138383799 0 -1 0 I I #
point $-1 -63.144016846217227 -16.887282031550658 8.9393302138383817 #
straight-curve $-1 63.144016846217227 0 8.9393302138383799 0 1 0 I I #
edge $-1 $409 -63.144016846217227 $375 63.144016846217227 $371 $429 forward 7 unknown #
straight-curve $-1 -63.144016846217227 -26.267579553486815 0 0 0 -1 I I #
point $-1 63.144016846217227 -26.267579553486815 8.9393302138383799 #
straight-curve $-1 63.144016846217227 6.2773357892405208 89.895825053605364 0 0 -1 I I #
point $-1 63.144016846217227 6.2773357892405208 8.9393302138383799 #
straight-curve $-1 63.144016846217227 5.1208517931324931 1.2206015094450891 0 1 0 I I #
point $-1 63.144016846217227 6.2773357892405208 1.2206015094450891 #
point $-1 56.589349004746602 8.5426888161116459 2.3492654733005374 #
point $-1 56.589349004746602 11.940718356418326 2.3492654733005374 #
straight-curve $-1 -63.144016846217227 14.206071383289451 44.473820062628768 0 0 -1 I I #
point $-1 -63.144016846217227 14.206071383289451 8.9393302138383799 #
straight-curve $-1 -63.144016846217227 5.1208517931324931 1.2206015094451059 0 -1 0 I I #
point $-1 -63.144016846217227 14.206071383289451 1.2206015094451033 #
point $-1 -56.589349004746602 8.5426888161116459 2.3492654733005409 #
point $-1 -56.589349004746602 11.940718356418326 2.3492654733005409 #
point $-1 -63.144016846217227 -26.267579553486815 8.9393302138383799 #
straight-curve $-1 0 -26.267579553486815 8.9393302138383799 1 0 0 I I #
End-of-ACIS-data 