500 0 10 0           
7 Unknown 11 ACIS 5.0 NT 24 Thu Mar 25 16:23:28 1999 
-1 9.9999999999999995e-007 1e-010 
body $-1 $10 $-1 $11 #
body $-1 $12 $-1 $13 #
body $-1 $14 $-1 $15 #
body $-1 $16 $-1 $17 #
body $-1 $18 $-1 $19 #
body $-1 $20 $-1 $21 #
body $-1 $22 $-1 $23 #
body $-1 $24 $-1 $25 #
body $-1 $26 $-1 $27 #
body $-1 $28 $-1 $29 #
lump $-1 $-1 $30 $0 #
transform $-1 1 0 0 0 1 0 0 0 1 42.80892361217078 26.817013752643277 6.7562637297340631 1 rotate no_reflect no_shear #
lump $-1 $-1 $31 $1 #
transform $-1 1 0 0 0 1 0 0 0 1 42.80892361217078 26.817013752643277 6.7562637297340631 1 rotate no_reflect no_shear #
lump $-1 $-1 $32 $2 #
transform $-1 1 0 0 0 1 0 0 0 1 42.80892361217078 26.817013752643277 6.7562637297340631 1 rotate no_reflect no_shear #
lump $-1 $-1 $33 $3 #
transform $-1 1 0 0 0 1 0 0 0 1 42.80892361217078 26.817013752643277 6.7562637297340631 1 rotate no_reflect no_shear #
lump $-1 $-1 $34 $4 #
transform $-1 1 0 0 0 1 0 0 0 1 42.80892361217078 26.817013752643277 6.7562637297340631 1 rotate no_reflect no_shear #
lump $-1 $-1 $35 $5 #
transform $-1 1 0 0 0 1 0 0 0 1 42.80892361217078 26.817013752643277 6.7562637297340631 1 rotate no_reflect no_shear #
lump $-1 $-1 $36 $6 #
transform $-1 1 0 0 0 1 0 0 0 1 42.80892361217078 26.817013752643277 6.7562637297340631 1 rotate no_reflect no_shear #
lump $-1 $-1 $37 $7 #
transform $-1 1 0 0 0 1 0 0 0 1 42.80892361217078 26.817013752643277 6.7562637297340631 1 rotate no_reflect no_shear #
lump $-1 $-1 $38 $8 #
transform $-1 1 0 0 0 1 0 0 0 1 42.80892361217078 26.817013752643277 6.7562637297340631 1 rotate no_reflect no_shear #
lump $-1 $-1 $39 $9 #
transform $-1 1 0 0 0 1 0 0 0 1 42.80892361217078 26.817013752643277 6.7562637297340631 1 rotate no_reflect no_shear #
shell $-1 $-1 $-1 $40 $-1 $10 #
shell $-1 $-1 $-1 $41 $-1 $12 #
shell $-1 $-1 $-1 $42 $-1 $14 #
shell $-1 $-1 $-1 $43 $-1 $16 #
shell $-1 $-1 $-1 $44 $-1 $18 #
shell $-1 $-1 $-1 $45 $-1 $20 #
shell $-1 $-1 $-1 $46 $-1 $22 #
shell $-1 $-1 $-1 $47 $-1 $24 #
shell $-1 $-1 $-1 $48 $-1 $26 #
shell $-1 $-1 $-1 $49 $-1 $28 #
face $-1 $50 $51 $30 $-1 $52 forward single #
face $-1 $53 $54 $31 $-1 $55 forward single #
face $-1 $56 $57 $32 $-1 $58 forward single #
face $-1 $59 $60 $33 $-1 $61 reversed single #
face $-1 $62 $63 $34 $-1 $64 forward single #
face $-1 $65 $66 $35 $-1 $67 forward single #
face $-1 $68 $69 $36 $-1 $70 reversed single #
face $-1 $71 $72 $37 $-1 $73 forward single #
face $-1 $74 $75 $38 $-1 $76 forward single #
face $-1 $77 $78 $39 $-1 $79 forward single #
face $-1 $80 $81 $30 $-1 $82 reversed single #
loop $-1 $-1 $83 $40 #
plane-surface $-1 0 0 6.7562637297340631 0 0 1 1 0 0 forward_v I I I I #
face $-1 $84 $85 $31 $-1 $86 forward single #
loop $-1 $-1 $87 $41 #
plane-surface $-1 0 -26.817013752643277 0 0 1 0 0 0 1 forward_v I I I I #
face $-1 $88 $89 $32 $-1 $90 reversed single #
loop $-1 $-1 $91 $42 #
plane-surface $-1 0 26.817013752643277 0 0 -1 0 0 0 -1 forward_v I I I I #
face $-1 $92 $93 $33 $-1 $94 reversed single #
loop $-1 $-1 $95 $43 #
plane-surface $-1 -97.843015652436975 -12.680523913075783 68.978683511260698 0 1 0 -0.64278761758704617 0 0.76604443648966558 forward_v I I I I #
face $-1 $96 $97 $34 $-1 $98 forward single #
loop $-1 $99 $100 $44 #
cone-surface $-1 -40.322564915264827 -9.5333060291672034 4.5001798641842292 0.64278761758704617 0 -0.76604443648966558 0.76604443648966558 0 0.64278761758704617 1 I I 0 1 1 forward I I I I #
face $-1 $101 $102 $35 $-1 $103 forward single #
loop $-1 $104 $105 $45 #
cone-surface $-1 -40.322564915264827 -4.8124792033043278 4.5001798641842292 0.64278761758704617 0 -0.76604443648966558 0.76604443648966558 0 0.64278761758704617 1 I I 0 1 1 forward I I I I #
face $-1 $106 $107 $36 $-1 $108 reversed single #
loop $-1 $-1 $109 $46 #
plane-surface $-1 59.660271628297799 16.371570576240817 121.76099971087186 0 -1 0 -0.79863551827123203 0 -0.60181501223851219 forward_v I I I I #
face $-1 $110 $111 $37 $-1 $112 forward single #
loop $-1 $113 $114 $47 #
cone-surface $-1 40.56384172879514 10.641165862627993 4.0059444309680128 -0.79863551827123203 0 -0.60181501223851219 0.3009075061192561 0 -0.39931775913561601 1 I I 0 1 0.5 forward I I I I #
face $-1 $115 $116 $38 $-1 $117 forward single #
loop $-1 $118 $119 $48 #
cone-surface $-1 40.56384172879514 12.790067630232805 4.0059444309680128 -0.79863551827123203 0 -0.60181501223851219 0.3009075061192561 0 -0.39931775913561601 1 I I 0 1 0.5 forward I I I I #
face $-1 $120 $121 $39 $-1 $122 forward single #
loop $-1 $123 $124 $49 #
cone-surface $-1 40.56384172879514 14.938969397837617 4.0059444309680128 -0.79863551827123203 0 -0.60181501223851219 0.3009075061192561 0 -0.39931775913561601 1 I I 0 1 0.5 forward I I I I #
face $-1 $125 $126 $30 $-1 $127 reversed single #
loop $-1 $-1 $128 $50 #
plane-surface $-1 0 0 -6.7562637297340631 0 0 1 1 0 0 forward_v I I I I #
coedge $-1 $129 $130 $131 $132 forward $51 $-1 #
face $-1 $133 $134 $31 $-1 $135 reversed single #
loop $-1 $-1 $136 $53 #
plane-surface $-1 0 0 6.7562637297340631 0 0 1 1 0 0 forward_v I I I I #
coedge $-1 $137 $138 $139 $140 forward $54 $-1 #
face $-1 $141 $142 $32 $-1 $143 reversed single #
loop $-1 $-1 $144 $56 #
plane-surface $-1 42.80892361217078 0 0 -1 0 0 0 0 1 forward_v I I I I #
coedge $-1 $145 $146 $147 $148 forward $57 $-1 #
face $-1 $149 $150 $33 $-1 $151 reversed single #
loop $-1 $-1 $152 $59 #
plane-surface $-1 -42.80892361217078 -7.1728926162357638 3.3916079808316937 -0.64278761758704617 0 0.76604443648966558 0.76604443648966558 0 0.64278761758704617 forward_v I I I I #
coedge $-1 $153 $154 $155 $156 reversed $60 $-1 #
face $-1 $-1 $157 $34 $-1 $158 forward single #
loop $-1 $159 $160 $62 #
cone-surface $-1 -39.519732655870968 -9.5333060291672034 3.543401654840749 0.64278761758704617 0 -0.76604443648966558 0.38302221824483279 0 0.32139380879352308 1 I I -0.70710678118654746 0.70710678118654746 0.5 forward I I I I #
loop $-1 $-1 $161 $44 #
coedge $-1 $100 $100 $162 $163 reversed $63 $-1 #
face $-1 $-1 $164 $35 $-1 $165 forward single #
loop $-1 $166 $167 $65 #
cone-surface $-1 -39.519732655870968 -4.8124792033043278 3.543401654840749 0.64278761758704617 0 -0.76604443648966558 0.38302221824483279 0 0.32139380879352308 1 I I -0.70710678118654746 0.70710678118654746 0.5 forward I I I I #
loop $-1 $-1 $168 $45 #
coedge $-1 $105 $105 $169 $170 reversed $66 $-1 #
face $-1 $171 $172 $36 $-1 $173 reversed single #
loop $-1 $-1 $174 $68 #
plane-surface $-1 -8.7171821629813806 12.790067630232798 70.234893935719668 0.79863551827123203 0 0.60181501223851219 0.60181501223851219 0 -0.79863551827123203 forward_v I I I I #
coedge $-1 $175 $176 $177 $178 reversed $69 $-1 #
face $-1 $-1 $179 $37 $-1 $180 forward single #
loop $-1 $181 $182 $71 #
cone-surface $-1 39.964865090091713 10.641165862627993 3.5545831717891287 -0.79863551827123203 0 -0.60181501223851219 0.15045375305962805 0 -0.19965887956780801 1 I I -0.70710678118654746 0.70710678118654746 0.25 forward I I I I #
loop $-1 $-1 $183 $47 #
coedge $-1 $114 $114 $184 $185 reversed $72 $-1 #
face $-1 $-1 $186 $38 $-1 $187 forward single #
loop $-1 $188 $189 $74 #
cone-surface $-1 39.964865090091713 12.790067630232805 3.5545831717891287 -0.79863551827123203 0 -0.60181501223851219 0.15045375305962805 0 -0.19965887956780801 1 I I -0.70710678118654746 0.70710678118654746 0.25 forward I I I I #
loop $-1 $-1 $190 $48 #
coedge $-1 $119 $119 $191 $192 reversed $75 $-1 #
face $-1 $-1 $193 $39 $-1 $194 forward single #
loop $-1 $195 $196 $77 #
cone-surface $-1 39.964865090091713 14.938969397837617 3.5545831717891287 -0.79863551827123203 0 -0.60181501223851219 0.15045375305962805 0 -0.19965887956780801 1 I I -0.70710678118654746 0.70710678118654746 0.25 forward I I I I #
loop $-1 $-1 $197 $49 #
coedge $-1 $124 $124 $198 $199 reversed $78 $-1 #
face $-1 $200 $201 $30 $-1 $202 reversed single #
loop $-1 $-1 $203 $80 #
plane-surface $-1 0 -26.817013752643277 0 0 1 0 0 0 1 forward_v I I I I #
coedge $-1 $204 $205 $206 $207 forward $81 $-1 #
coedge $-1 $208 $83 $209 $210 forward $51 $-1 #
coedge $-1 $83 $208 $211 $212 forward $51 $-1 #
coedge $-1 $213 $214 $83 $132 reversed $215 $-1 #
edge $-1 $216 -26.817013752643277 $217 26.817013752643277 $131 $218 forward 7 unknown #
face $-1 $219 $220 $31 $-1 $221 reversed single #
loop $-1 $-1 $222 $84 #
plane-surface $-1 -42.80892361217078 0 0 1 0 0 0 0 -1 forward_v I I I I #
coedge $-1 $223 $224 $225 $226 forward $85 $-1 #
coedge $-1 $225 $87 $222 $227 reversed $54 $-1 #
coedge $-1 $87 $225 $228 $229 reversed $54 $-1 #
coedge $-1 $230 $231 $87 $140 reversed $220 $-1 #
edge $-1 $232 -42.80892361217078 $233 42.80892361217078 $139 $234 forward 7 unknown #
face $-1 $235 $236 $32 $-1 $237 reversed single #
loop $-1 $-1 $238 $88 #
plane-surface $-1 0 29.391082809182691 3.3910188085331701 0 0 1 1 0 0 forward_v I I I I #
coedge $-1 $239 $240 $145 $241 forward $89 $-1 #
coedge $-1 $242 $91 $144 $241 reversed $57 $-1 #
coedge $-1 $91 $242 $243 $244 reversed $57 $-1 #
coedge $-1 $245 $238 $91 $148 reversed $142 $-1 #
edge $-1 $246 -42.80892361217078 $247 42.80892361217078 $147 $248 forward 7 unknown #
face $-1 $249 $250 $33 $-1 $251 reversed single #
loop $-1 $-1 $252 $92 #
plane-surface $-1 -97.843015652436975 -1.6652613193957446 68.978683511260698 0 -1 0 0.64278761758704617 0 -0.76604443648966558 forward_v I I I I #
coedge $-1 $253 $254 $255 $256 reversed $93 $-1 #
coedge $-1 $154 $95 $257 $258 reversed $60 $-1 #
coedge $-1 $95 $153 $253 $259 reversed $60 $-1 #
coedge $-1 $255 $260 $95 $156 forward $261 $-1 #
edge $-1 $262 6.1125842140477076 $263 10.122424706658919 $155 $264 forward 7 unknown #
loop $-1 $-1 $162 $96 #
plane-surface $-1 -42.80892361217078 -7.1728926162357638 3.3916079808316937 -0.64278761758704617 0 0.76604443648966558 0.76604443648966558 0 0.64278761758704617 forward_v I I I I #
loop $-1 $-1 $265 $62 #
coedge $-1 $160 $160 $161 $266 reversed $97 $-1 #
coedge $-1 $161 $161 $160 $266 forward $99 $-1 #
coedge $-1 $162 $162 $100 $163 forward $157 $-1 #
edge $-1 $267 0 $267 6.2831853071796004 $162 $268 forward 7 unknown #
loop $-1 $-1 $169 $101 #
plane-surface $-1 -42.80892361217078 -7.1728926162357638 3.3916079808316937 -0.64278761758704617 0 0.76604443648966558 0.76604443648966558 0 0.64278761758704617 forward_v I I I I #
loop $-1 $-1 $269 $65 #
coedge $-1 $167 $167 $168 $270 reversed $102 $-1 #
coedge $-1 $168 $168 $167 $270 forward $104 $-1 #
coedge $-1 $169 $169 $105 $170 forward $164 $-1 #
edge $-1 $271 0 $271 6.2831853071796004 $169 $272 forward 7 unknown #
face $-1 $273 $274 $36 $-1 $275 forward single #
loop $-1 $-1 $276 $106 #
plane-surface $-1 59.660271628297799 9.208564684224779 121.76099971087186 0 1 0 0.79863551827123203 0 0.60181501223851219 forward_v I I I I #
coedge $-1 $277 $278 $279 $280 reversed $107 $-1 #
coedge $-1 $176 $109 $281 $282 reversed $69 $-1 #
coedge $-1 $109 $175 $277 $283 reversed $69 $-1 #
coedge $-1 $279 $284 $109 $178 forward $274 $-1 #
edge $-1 $285 -12.97878779802188 $286 -9.2872595495418331 $177 $287 forward 7 unknown #
loop $-1 $-1 $184 $110 #
plane-surface $-1 -8.7171821629813806 12.790067630232798 70.234893935719668 0.79863551827123203 0 0.60181501223851219 0.60181501223851219 0 -0.79863551827123203 forward_v I I I I #
loop $-1 $-1 $288 $71 #
coedge $-1 $182 $182 $183 $289 reversed $111 $-1 #
coedge $-1 $183 $183 $182 $289 forward $113 $-1 #
coedge $-1 $184 $184 $114 $185 forward $179 $-1 #
edge $-1 $290 0 $290 6.2831853071796004 $184 $291 forward 7 unknown #
loop $-1 $-1 $191 $115 #
plane-surface $-1 -8.7171821629813806 12.790067630232798 70.234893935719668 0.79863551827123203 0 0.60181501223851219 0.60181501223851219 0 -0.79863551827123203 forward_v I I I I #
loop $-1 $-1 $292 $74 #
coedge $-1 $189 $189 $190 $293 reversed $116 $-1 #
coedge $-1 $190 $190 $189 $293 forward $118 $-1 #
coedge $-1 $191 $191 $119 $192 forward $186 $-1 #
edge $-1 $294 0 $294 6.2831853071796004 $191 $295 forward 7 unknown #
loop $-1 $-1 $198 $120 #
plane-surface $-1 -8.7171821629813806 12.790067630232798 70.234893935719668 0.79863551827123203 0 0.60181501223851219 0.60181501223851219 0 -0.79863551827123203 forward_v I I I I #
loop $-1 $-1 $296 $77 #
coedge $-1 $196 $196 $197 $297 reversed $121 $-1 #
coedge $-1 $197 $197 $196 $297 forward $123 $-1 #
coedge $-1 $198 $198 $124 $199 forward $193 $-1 #
edge $-1 $298 0 $298 6.2831853071796004 $198 $299 forward 7 unknown #
face $-1 $300 $301 $30 $-1 $302 reversed single #
loop $-1 $-1 $303 $125 #
plane-surface $-1 -42.80892361217078 0 0 1 0 0 0 0 -1 forward_v I I I I #
coedge $-1 $304 $211 $305 $306 forward $126 $-1 #
coedge $-1 $307 $128 $304 $308 forward $81 $-1 #
coedge $-1 $128 $307 $309 $310 forward $81 $-1 #
coedge $-1 $214 $213 $128 $207 reversed $215 $-1 #
edge $-1 $311 -26.817013752643277 $312 26.817013752643277 $206 $313 forward 7 unknown #
coedge $-1 $130 $129 $314 $315 forward $51 $-1 #
coedge $-1 $316 $317 $129 $210 reversed $301 $-1 #
edge $-1 $217 -42.80892361217078 $318 42.80892361217078 $209 $319 forward 7 unknown #
coedge $-1 $203 $320 $130 $212 reversed $126 $-1 #
edge $-1 $321 -42.80892361217078 $216 42.80892361217078 $211 $322 forward 7 unknown #
coedge $-1 $206 $131 $320 $323 forward $215 $-1 #
coedge $-1 $131 $206 $316 $324 reversed $215 $-1 #
loop $-1 $-1 $213 $300 #
vertex $-1 $132 $325 #
vertex $-1 $132 $326 #
straight-curve $-1 42.80892361217078 0 6.7562637297340631 0 1 0 I I #
face $-1 $327 $328 $31 $-1 $329 reversed single #
loop $-1 $-1 $230 $133 #
plane-surface $-1 0 -29.391082809182695 3.3910188085331701 0 0 1 1 0 0 forward_v I I I I #
coedge $-1 $330 $331 $137 $227 forward $134 $-1 #
coedge $-1 $332 $136 $331 $333 forward $85 $-1 #
coedge $-1 $136 $332 $334 $335 forward $85 $-1 #
coedge $-1 $138 $137 $136 $226 reversed $54 $-1 #
edge $-1 $336 -42.80892361217078 $337 42.80892361217078 $136 $338 forward 7 unknown #
edge $-1 $337 -6.7562637297340631 $233 -3.3910188085331701 $222 $339 forward 7 unknown #
coedge $-1 $334 $340 $138 $229 forward $341 $-1 #
edge $-1 $232 3.3910188085331701 $336 6.7562637297340631 $228 $342 forward 7 unknown #
coedge $-1 $343 $139 $340 $344 forward $220 $-1 #
coedge $-1 $139 $343 $330 $345 forward $220 $-1 #
vertex $-1 $229 $346 #
vertex $-1 $227 $347 #
straight-curve $-1 0 -26.817013752643277 3.3910188085331701 -1 0 0 I I #
face $-1 $348 $349 $32 $-1 $350 forward single #
loop $-1 $-1 $351 $141 #
plane-surface $-1 0 31.96515186572211 5.0736412691336161 0 -1 0 0 0 -1 forward_v I I I I #
coedge $-1 $147 $352 $239 $353 forward $142 $-1 #
coedge $-1 $354 $144 $238 $353 reversed $89 $-1 #
coedge $-1 $144 $354 $355 $356 reversed $89 $-1 #
edge $-1 $357 -6.7562637297340631 $247 -3.3910188085331701 $144 $358 forward 7 unknown #
coedge $-1 $146 $145 $359 $360 reversed $57 $-1 #
coedge $-1 $361 $362 $146 $244 forward $363 $-1 #
edge $-1 $246 3.3910188085331701 $364 6.7562637297340631 $243 $365 forward 7 unknown #
coedge $-1 $352 $147 $362 $366 forward $142 $-1 #
vertex $-1 $244 $367 #
vertex $-1 $241 $368 #
straight-curve $-1 0 26.817013752643277 3.3910188085331701 1 0 0 I I #
face $-1 $-1 $261 $33 $-1 $369 forward single #
loop $-1 $-1 $370 $149 #
plane-surface $-1 -42.80892361217078 0 0 1 0 0 0 0 -1 forward_v I I I I #
coedge $-1 $371 $372 $373 $374 reversed $150 $-1 #
coedge $-1 $375 $152 $154 $259 forward $93 $-1 #
coedge $-1 $152 $375 $371 $376 forward $93 $-1 #
coedge $-1 $373 $155 $152 $256 forward $261 $-1 #
edge $-1 $263 -9.0940776049579011 $377 1.9211849887221373 $255 $378 forward 7 unknown #
coedge $-1 $379 $380 $153 $258 forward $250 $-1 #
edge $-1 $381 -31.097733774798655 $262 -27.733078025896287 $257 $382 forward 7 unknown #
edge $-1 $263 -5.2344750534133109 $381 0 $154 $383 forward 7 unknown #
coedge $-1 $155 $373 $379 $384 forward $261 $-1 #
loop $-1 $-1 $373 $249 #
vertex $-1 $258 $385 #
vertex $-1 $156 $386 #
straight-curve $-1 -48.921507826218487 -12.680523913075783 6.7562637297340622 1 0 0 I I #
coedge $-1 $265 $265 $-1 $387 reversed $159 $-1 #
edge $-1 $388 0 $388 6.2831853071796004 $160 $389 forward 7 unknown #
vertex $-1 $163 $390 #
ellipse-curve $-1 -40.804003365865171 -9.5333060291672034 5.0739358552828815 -0.64278761758704617 0 0.76604443648966558 0.76604443648966558 0 0.64278761758704617 1 I I #
coedge $-1 $269 $269 $-1 $391 reversed $166 $-1 #
edge $-1 $392 0 $392 6.2831853071796004 $167 $393 forward 7 unknown #
vertex $-1 $170 $394 #
ellipse-curve $-1 -40.804003365865171 -4.8124792033043278 5.0739358552828815 -0.64278761758704617 0 0.76604443648966558 0.76604443648966558 0 0.64278761758704617 1 I I #
face $-1 $-1 $395 $36 $-1 $396 reversed single #
loop $-1 $-1 $177 $171 #
plane-surface $-1 0 0 6.7562637297340631 0 0 1 1 0 0 forward_v I I I I #
coedge $-1 $397 $398 $399 $400 reversed $172 $-1 #
coedge $-1 $401 $174 $176 $283 forward $107 $-1 #
coedge $-1 $174 $401 $397 $402 forward $107 $-1 #
coedge $-1 $399 $177 $174 $280 forward $274 $-1 #
edge $-1 $286 -9.976536761124418 $403 -2.81353086910838 $279 $404 forward 7 unknown #
coedge $-1 $405 $406 $175 $282 forward $395 $-1 #
edge $-1 $407 -59.023059710995412 $285 -54.124236125701863 $281 $408 forward 7 unknown #
edge $-1 $286 79.483855593343435 $407 85.617847224341517 $176 $409 forward 7 unknown #
coedge $-1 $177 $399 $405 $410 forward $274 $-1 #
vertex $-1 $282 $411 #
vertex $-1 $178 $412 #
straight-curve $-1 29.8301358141489 16.371570576240817 6.7562637297340657 -1 0 0 I I #
coedge $-1 $288 $288 $-1 $413 reversed $181 $-1 #
edge $-1 $414 0 $414 6.2831853071796004 $182 $415 forward 7 unknown #
vertex $-1 $185 $416 #
ellipse-curve $-1 40.96315948793076 10.641165862627993 4.3068519370872735 0.79863551827123203 0 0.60181501223851219 0.3009075061192561 0 -0.39931775913561601 1 I I #
coedge $-1 $292 $292 $-1 $417 reversed $188 $-1 #
edge $-1 $418 0 $418 6.2831853071796004 $189 $419 forward 7 unknown #
vertex $-1 $192 $420 #
ellipse-curve $-1 40.96315948793076 12.790067630232805 4.3068519370872735 0.79863551827123203 0 0.60181501223851219 0.3009075061192561 0 -0.39931775913561601 1 I I #
coedge $-1 $296 $296 $-1 $421 reversed $195 $-1 #
edge $-1 $422 0 $422 6.2831853071796004 $196 $423 forward 7 unknown #
vertex $-1 $199 $424 #
ellipse-curve $-1 40.96315948793076 14.938969397837617 4.3068519370872735 0.79863551827123203 0 0.60181501223851219 0.3009075061192561 0 -0.39931775913561601 1 I I #
face $-1 $-1 $215 $30 $-1 $425 reversed single #
loop $-1 $-1 $316 $200 #
plane-surface $-1 0 26.817013752643277 0 0 -1 0 0 0 -1 forward_v I I I I #
coedge $-1 $426 $314 $317 $427 forward $201 $-1 #
coedge $-1 $320 $203 $204 $308 reversed $126 $-1 #
coedge $-1 $314 $426 $203 $306 reversed $201 $-1 #
edge $-1 $321 -6.7562637297340631 $428 6.7562637297340631 $305 $429 forward 7 unknown #
coedge $-1 $205 $204 $426 $430 forward $81 $-1 #
edge $-1 $312 -42.80892361217078 $428 42.80892361217078 $304 $431 forward 7 unknown #
coedge $-1 $317 $316 $205 $310 reversed $301 $-1 #
edge $-1 $432 -42.80892361217078 $311 42.80892361217078 $309 $433 forward 7 unknown #
vertex $-1 $207 $434 #
vertex $-1 $323 $435 #
straight-curve $-1 42.80892361217078 0 -6.7562637297340631 0 -1 0 I I #
coedge $-1 $303 $305 $208 $315 reversed $201 $-1 #
edge $-1 $318 -26.817013752643277 $321 26.817013752643277 $314 $436 forward 7 unknown #
coedge $-1 $309 $209 $214 $324 forward $301 $-1 #
coedge $-1 $209 $309 $303 $427 reversed $301 $-1 #
vertex $-1 $210 $437 #
straight-curve $-1 0 26.817013752643277 6.7562637297340631 -1 0 0 I I #
coedge $-1 $211 $304 $213 $323 reversed $126 $-1 #
vertex $-1 $315 $438 #
straight-curve $-1 0 -26.817013752643277 6.7562637297340631 1 0 0 I I #
edge $-1 $216 -6.7562637297340631 $312 6.7562637297340631 $213 $439 forward 7 unknown #
edge $-1 $217 -6.7562637297340631 $311 6.7562637297340631 $214 $440 forward 7 unknown #
point $-1 42.80892361217078 -26.817013752643277 6.7562637297340631 #
point $-1 42.80892361217078 26.817013752643277 6.7562637297340631 #
face $-1 $-1 $341 $31 $-1 $441 reversed single #
loop $-1 $-1 $442 $219 #
plane-surface $-1 0 -31.965151865722113 5.0736412691336161 0 1 0 0 0 1 forward_v I I I I #
coedge $-1 $443 $222 $231 $345 reversed $134 $-1 #
coedge $-1 $222 $443 $223 $333 reversed $134 $-1 #
coedge $-1 $224 $223 $444 $445 forward $85 $-1 #
edge $-1 $337 26.817013752643277 $446 31.965151865722113 $331 $447 forward 7 unknown #
coedge $-1 $448 $228 $224 $335 reversed $341 $-1 #
edge $-1 $449 -31.965151865722113 $336 -26.817013752643277 $334 $450 forward 7 unknown #
vertex $-1 $229 $451 #
vertex $-1 $333 $452 #
straight-curve $-1 0 -26.817013752643277 6.7562637297340631 -1 0 0 I I #
straight-curve $-1 -42.80892361217078 -26.817013752643277 0 0 0 -1 I I #
coedge $-1 $228 $448 $230 $344 reversed $341 $-1 #
loop $-1 $-1 $228 $327 #
straight-curve $-1 42.80892361217078 -26.817013752643277 0 0 0 1 I I #
coedge $-1 $231 $230 $453 $454 forward $220 $-1 #
edge $-1 $232 -2.5740690565394182 $455 2.5740690565394182 $340 $456 forward 7 unknown #
edge $-1 $457 -2.5740690565394182 $233 2.5740690565394182 $330 $458 forward 7 unknown #
point $-1 42.80892361217078 -26.817013752643277 3.3910188085331701 #
point $-1 -42.80892361217078 -26.817013752643277 3.3910188085331701 #
face $-1 $-1 $363 $32 $-1 $459 reversed single #
loop $-1 $-1 $359 $235 #
plane-surface $-1 0 0 6.7562637297340631 0 0 1 1 0 0 forward_v I I I I #
coedge $-1 $460 $461 $354 $462 forward $236 $-1 #
coedge $-1 $238 $245 $460 $463 forward $142 $-1 #
edge $-1 $464 -2.5740690565394182 $247 2.5740690565394182 $239 $465 forward 7 unknown #
coedge $-1 $240 $239 $351 $462 reversed $89 $-1 #
coedge $-1 $466 $359 $240 $356 forward $349 $-1 #
edge $-1 $357 26.817013752643277 $467 31.96515186572211 $240 $468 forward 7 unknown #
vertex $-1 $356 $469 #
straight-curve $-1 42.80892361217078 26.817013752643277 0 0 0 -1 I I #
coedge $-1 $355 $470 $242 $360 forward $349 $-1 #
edge $-1 $364 -42.80892361217078 $357 42.80892361217078 $359 $471 forward 7 unknown #
coedge $-1 $472 $243 $470 $473 reversed $363 $-1 #
coedge $-1 $243 $472 $245 $366 reversed $363 $-1 #
loop $-1 $-1 $243 $348 #
vertex $-1 $244 $474 #
straight-curve $-1 -42.80892361217078 26.817013752643277 0 0 0 1 I I #
edge $-1 $246 -2.5740690565394182 $475 2.5740690565394182 $362 $476 forward 7 unknown #
point $-1 -42.80892361217078 26.817013752643273 3.3910188085331701 #
point $-1 42.80892361217078 26.817013752643273 3.3910188085331701 #
plane-surface $-1 0 0 6.7562637297340631 0 0 1 1 0 0 forward_v I I I I #
coedge $-1 $380 $379 $372 $477 forward $250 $-1 #
coedge $-1 $372 $252 $254 $376 reversed $150 $-1 #
coedge $-1 $252 $371 $370 $477 reversed $150 $-1 #
coedge $-1 $260 $255 $252 $374 forward $261 $-1 #
edge $-1 $377 -10.122424706658919 $478 -6.1125842140477076 $373 $479 forward 7 unknown #
coedge $-1 $254 $253 $380 $480 reversed $93 $-1 #
edge $-1 $481 0 $377 5.2344750534133109 $371 $482 forward 7 unknown #
vertex $-1 $256 $483 #
straight-curve $-1 -38.799083119559562 -3.5864463081178819 6.756263729734064 0 1 0 I I #
coedge $-1 $370 $257 $260 $384 reversed $250 $-1 #
coedge $-1 $257 $370 $375 $480 forward $250 $-1 #
vertex $-1 $258 $484 #
straight-curve $-1 -42.80892361217078 -12.680523913075783 34.489341755630349 0 0 1 I I #
straight-curve $-1 -42.80892361217078 -12.680523913075783 3.3916079808316937 -0.76604443648966558 0 -0.64278761758704617 I I #
edge $-1 $478 1.6652613193957446 $262 12.680523913075783 $379 $485 forward 7 unknown #
point $-1 -42.80892361217078 -12.680523913075783 6.7562637297340631 #
point $-1 -38.799083119559569 -12.680523913075783 6.7562637297340631 #
edge $-1 $486 1 $486 0 $265 $-1 forward 7 unknown #
vertex $-1 $266 $487 #
ellipse-curve $-1 -39.841126464664491 -9.5333060291672034 3.9264238730855818 -0.64278761758704617 0 0.76604443648966558 0.76604443648966558 0 0.64278761758704617 1 I I #
point $-1 -40.037958929375499 -9.5333060291672034 5.7167234728699228 #
edge $-1 $488 1 $488 0 $269 $-1 forward 7 unknown #
vertex $-1 $270 $489 #
ellipse-curve $-1 -39.841126464664491 -4.8124792033043278 3.9264238730855818 -0.64278761758704617 0 0.76604443648966558 0.76604443648966558 0 0.64278761758704617 1 I I #
point $-1 -40.037958929375499 -4.8124792033043278 5.7167234728699228 #
loop $-1 $-1 $281 $273 #
plane-surface $-1 42.80892361217078 0 0 -1 0 0 0 0 1 forward_v I I I I #
coedge $-1 $398 $276 $278 $402 reversed $172 $-1 #
coedge $-1 $276 $397 $490 $491 reversed $172 $-1 #
coedge $-1 $284 $279 $276 $400 forward $274 $-1 #
edge $-1 $403 9.2872595495418331 $492 12.97878779802188 $399 $493 forward 7 unknown #
coedge $-1 $278 $277 $406 $494 reversed $107 $-1 #
edge $-1 $495 -85.617847224341517 $403 -79.483855593343435 $397 $496 forward 7 unknown #
vertex $-1 $280 $497 #
straight-curve $-1 39.117395363690726 6.395033815116399 6.7562637297340729 0 -1 0 I I #
coedge $-1 $490 $281 $284 $410 reversed $395 $-1 #
coedge $-1 $281 $490 $401 $494 forward $395 $-1 #
vertex $-1 $282 $498 #
straight-curve $-1 42.80892361217078 16.371570576240817 60.880499855435929 0 0 1 I I #
straight-curve $-1 -8.7171821629813806 16.371570576240817 70.234893935719668 0.60181501223851219 0 -0.79863551827123203 I I #
edge $-1 $492 9.208564684224779 $285 16.371570576240817 $405 $499 forward 7 unknown #
point $-1 42.80892361217078 16.371570576240817 6.7562637297340631 #
point $-1 39.117395363690733 16.371570576240817 6.7562637297340729 #
edge $-1 $500 1 $500 0 $288 $-1 forward 7 unknown #
vertex $-1 $289 $501 #
ellipse-curve $-1 40.16452396965952 10.641165862627993 3.7050369248487569 0.79863551827123203 0 0.60181501223851219 0.3009075061192561 0 -0.39931775913561601 1 I I #
point $-1 41.264066994050012 10.641165862627993 3.907534177951653 #
edge $-1 $502 1 $502 0 $292 $-1 forward 7 unknown #
vertex $-1 $293 $503 #
ellipse-curve $-1 40.16452396965952 12.790067630232805 3.7050369248487569 0.79863551827123203 0 0.60181501223851219 0.3009075061192561 0 -0.39931775913561601 1 I I #
point $-1 41.264066994050012 12.790067630232805 3.907534177951653 #
edge $-1 $504 1 $504 0 $296 $-1 forward 7 unknown #
vertex $-1 $297 $505 #
ellipse-curve $-1 40.16452396965952 14.938969397837617 3.7050369248487569 0.79863551827123203 0 0.60181501223851219 0.3009075061192561 0 -0.39931775913561601 1 I I #
point $-1 41.264066994050012 14.938969397837617 3.907534177951653 #
plane-surface $-1 42.80892361217078 0 0 -1 0 0 0 0 1 forward_v I I I I #
coedge $-1 $305 $303 $307 $430 reversed $201 $-1 #
edge $-1 $318 -6.7562637297340631 $432 6.7562637297340631 $317 $506 forward 7 unknown #
vertex $-1 $430 $507 #
straight-curve $-1 -42.80892361217078 -26.817013752643277 0 0 0 -1 I I #
edge $-1 $428 -26.817013752643277 $432 26.817013752643277 $426 $508 forward 7 unknown #
straight-curve $-1 0 -26.817013752643277 -6.7562637297340631 -1 0 0 I I #
vertex $-1 $310 $509 #
straight-curve $-1 0 26.817013752643277 -6.7562637297340631 1 0 0 I I #
point $-1 42.80892361217078 26.817013752643277 -6.7562637297340631 #
point $-1 42.80892361217078 -26.817013752643277 -6.7562637297340631 #
straight-curve $-1 -42.80892361217078 0 6.7562637297340631 0 -1 0 I I #
point $-1 -42.80892361217078 26.817013752643277 6.7562637297340631 #
point $-1 -42.80892361217078 -26.817013752643277 6.7562637297340631 #
straight-curve $-1 42.80892361217078 -26.817013752643277 0 0 0 -1 I I #
straight-curve $-1 42.80892361217078 26.817013752643277 0 0 0 -1 I I #
plane-surface $-1 42.80892361217078 0 0 -1 0 0 0 0 1 forward_v I I I I #
coedge $-1 $453 $444 $443 $510 forward $328 $-1 #
coedge $-1 $331 $330 $442 $510 reversed $134 $-1 #
coedge $-1 $442 $511 $332 $445 reversed $328 $-1 #
edge $-1 $446 -42.80892361217078 $449 42.80892361217078 $444 $512 forward 7 unknown #
vertex $-1 $333 $513 #
straight-curve $-1 -42.80892361217078 0 6.7562637297340631 0 -1 0 I I #
coedge $-1 $340 $334 $511 $514 forward $341 $-1 #
vertex $-1 $335 $515 #
straight-curve $-1 42.80892361217078 0 6.7562637297340631 0 1 0 I I #
point $-1 42.80892361217078 -26.817013752643277 6.7562637297340631 #
point $-1 -42.80892361217078 -26.817013752643277 6.7562637297340631 #
coedge $-1 $511 $442 $343 $454 reversed $328 $-1 #
edge $-1 $455 -42.80892361217078 $457 42.80892361217078 $453 $516 forward 7 unknown #
vertex $-1 $514 $517 #
straight-curve $-1 42.80892361217078 -29.391082809182695 3.3910188085331701 0 -1 0 I I #
vertex $-1 $345 $518 #
straight-curve $-1 -42.80892361217078 -29.391082809182695 3.3910188085331701 0 1 0 I I #
plane-surface $-1 -42.80892361217078 0 0 1 0 0 0 0 -1 forward_v I I I I #
coedge $-1 $519 $351 $352 $463 reversed $236 $-1 #
coedge $-1 $351 $519 $466 $520 reversed $236 $-1 #
edge $-1 $467 -1.6826224606004461 $464 1.6826224606004461 $354 $521 forward 7 unknown #
edge $-1 $475 -42.80892361217078 $464 42.80892361217078 $460 $522 forward 7 unknown #
vertex $-1 $353 $523 #
straight-curve $-1 42.80892361217078 29.391082809182691 3.3910188085331701 0 -1 0 I I #
coedge $-1 $470 $355 $461 $520 forward $349 $-1 #
vertex $-1 $356 $524 #
straight-curve $-1 42.80892361217078 0 6.7562637297340631 0 1 0 I I #
point $-1 42.80892361217078 26.817013752643277 6.7562637297340631 #
coedge $-1 $359 $466 $361 $473 forward $349 $-1 #
straight-curve $-1 0 26.817013752643277 6.7562637297340631 1 0 0 I I #
coedge $-1 $362 $361 $519 $525 forward $363 $-1 #
edge $-1 $526 -31.96515186572211 $364 -26.817013752643277 $361 $527 forward 7 unknown #
point $-1 -42.80892361217078 26.817013752643277 6.7562637297340631 #
vertex $-1 $463 $528 #
straight-curve $-1 -42.80892361217078 29.391082809182691 3.3910188085331701 0 1 0 I I #
edge $-1 $478 27.733078025896287 $481 31.097733774798655 $370 $529 forward 7 unknown #
vertex $-1 $384 $530 #
straight-curve $-1 -48.921507826218487 -1.6652613193957446 6.7562637297340622 -1 0 0 I I #
edge $-1 $481 -1.9211849887221373 $381 9.0940776049579011 $380 $531 forward 7 unknown #
vertex $-1 $480 $532 #
straight-curve $-1 -42.80892361217078 -1.6652613193957446 3.3916079808316937 0.76604443648966558 0 0.64278761758704617 I I #
point $-1 -38.799083119559569 -1.6652613193957446 6.7562637297340631 #
point $-1 -42.80892361217078 -12.680523913075783 3.3916079808316937 #
straight-curve $-1 -42.80892361217078 0 6.7562637297340631 0 -1 0 I I #
vertex $-1 $387 $533 #
point $-1 -39.075082028174826 -9.5333060291672034 4.569211490672628 #
vertex $-1 $391 $534 #
point $-1 -39.075082028174826 -4.8124792033043278 4.569211490672628 #
coedge $-1 $406 $405 $398 $491 forward $395 $-1 #
edge $-1 $492 54.124236125701863 $495 59.023059710995412 $490 $535 forward 7 unknown #
vertex $-1 $410 $536 #
straight-curve $-1 29.8301358141489 9.208564684224779 6.7562637297340657 1 0 0 I I #
edge $-1 $495 2.81353086910838 $407 9.976536761124418 $406 $537 forward 7 unknown #
vertex $-1 $494 $538 #
straight-curve $-1 -8.7171821629813806 9.208564684224779 70.234893935719668 -0.60181501223851219 0 0.79863551827123203 I I #
point $-1 39.117395363690733 9.208564684224779 6.7562637297340729 #
point $-1 42.80892361217078 16.371570576240817 1.8574401444405169 #
straight-curve $-1 42.80892361217078 0 6.7562637297340631 0 1 0 I I #
vertex $-1 $413 $539 #
point $-1 40.465431475778779 10.641165862627993 3.3057191657131408 #
vertex $-1 $417 $540 #
point $-1 40.465431475778779 12.790067630232805 3.3057191657131408 #
vertex $-1 $421 $541 #
point $-1 40.465431475778779 14.938969397837617 3.3057191657131408 #
straight-curve $-1 -42.80892361217078 26.817013752643277 0 0 0 -1 I I #
point $-1 -42.80892361217078 -26.817013752643277 -6.7562637297340631 #
straight-curve $-1 -42.80892361217078 0 -6.7562637297340631 0 1 0 I I #
point $-1 -42.80892361217078 26.817013752643277 -6.7562637297340631 #
edge $-1 $446 -1.6826224606004461 $457 1.6826224606004461 $443 $542 forward 7 unknown #
coedge $-1 $444 $453 $448 $514 reversed $328 $-1 #
straight-curve $-1 0 -31.965151865722113 6.7562637297340622 1 0 0 I I #
point $-1 -42.80892361217078 -31.965151865722113 6.7562637297340622 #
edge $-1 $449 -1.6826224606004461 $455 1.6826224606004461 $448 $543 forward 7 unknown #
point $-1 42.80892361217078 -31.965151865722113 6.7562637297340622 #
straight-curve $-1 0 -31.965151865722113 3.3910188085331701 -1 0 0 I I #
point $-1 42.80892361217078 -31.965151865722113 3.3910188085331701 #
point $-1 -42.80892361217078 -31.965151865722113 3.3910188085331701 #
coedge $-1 $461 $460 $472 $525 reversed $236 $-1 #
edge $-1 $467 -42.80892361217078 $526 42.80892361217078 $461 $544 forward 7 unknown #
straight-curve $-1 42.80892361217078 31.96515186572211 5.0736412691336161 0 0 -1 I I #
straight-curve $-1 0 31.96515186572211 3.3910188085331701 1 0 0 I I #
point $-1 42.80892361217078 31.96515186572211 3.3910188085331701 #
point $-1 42.80892361217078 31.96515186572211 6.7562637297340622 #
edge $-1 $526 -1.6826224606004461 $475 1.6826224606004461 $519 $545 forward 7 unknown #
vertex $-1 $520 $546 #
straight-curve $-1 -42.80892361217078 0 6.7562637297340631 0 -1 0 I I #
point $-1 -42.80892361217078 31.96515186572211 3.3910188085331701 #
straight-curve $-1 -42.80892361217078 -1.6652613193957446 34.489341755630349 0 0 -1 I I #
point $-1 -42.80892361217078 -1.6652613193957446 6.7562637297340631 #
straight-curve $-1 -42.80892361217078 -3.5864463081178819 3.3916079808316932 0 -1 0 I I #
point $-1 -42.80892361217078 -1.6652613193957446 3.3916079808316937 #
point $-1 -39.198338847077444 -9.5333060291672034 3.1603794365959161 #
point $-1 -39.198338847077444 -4.8124792033043278 3.1603794365959161 #
straight-curve $-1 42.80892361217078 9.208564684224779 60.880499855435929 0 0 -1 I I #
point $-1 42.80892361217078 9.208564684224779 6.7562637297340631 #
straight-curve $-1 42.80892361217078 6.395033815116399 1.8574401444405169 0 1 0 I I #
point $-1 42.80892361217078 9.208564684224779 1.8574401444405169 #
point $-1 39.765206210523907 10.641165862627993 3.4041294187295006 #
point $-1 39.765206210523907 12.790067630232805 3.4041294187295006 #
point $-1 39.765206210523907 14.938969397837617 3.4041294187295006 #
straight-curve $-1 -42.80892361217078 -31.965151865722113 5.0736412691336161 0 0 -1 I I #
straight-curve $-1 42.80892361217078 -31.965151865722113 5.0736412691336161 0 0 -1 I I #
straight-curve $-1 0 31.96515186572211 6.7562637297340622 -1 0 0 I I #
straight-curve $-1 -42.80892361217078 31.96515186572211 5.0736412691336161 0 0 -1 I I #
point $-1 -42.80892361217078 31.96515186572211 6.7562637297340622 #
End-of-ACIS-data 