500 0 5 0           
7 Unknown 11 ACIS 5.0 NT 24 Thu Mar 25 23:41:10 1999 
-1 9.9999999999999995e-007 1e-010 
body $-1 $5 $-1 $6 #
body $-1 $7 $-1 $8 #
body $-1 $9 $-1 $10 #
body $-1 $11 $-1 $12 #
body $-1 $13 $-1 $14 #
lump $-1 $-1 $15 $0 #
transform $-1 1 0 0 0 1 0 0 0 1 50.845057527390367 31.839026990005554 15.422499355612908 1 rotate no_reflect no_shear #
lump $-1 $-1 $16 $1 #
transform $-1 1 0 0 0 1 0 0 0 1 50.845057527390367 31.839026990005554 15.422499355612908 1 rotate no_reflect no_shear #
lump $-1 $-1 $17 $2 #
transform $-1 1 0 0 0 1 0 0 0 1 50.845057527390367 31.839026990005554 15.422499355612908 1 rotate no_reflect no_shear #
lump $-1 $-1 $18 $3 #
transform $-1 1 0 0 0 1 0 0 0 1 50.845057527390367 31.839026990005554 15.422499355612908 1 rotate no_reflect no_shear #
lump $-1 $-1 $19 $4 #
transform $-1 1 0 0 0 1 0 0 0 1 50.845057527390367 31.839026990005554 15.422499355612908 1 rotate no_reflect no_shear #
shell $-1 $-1 $-1 $20 $-1 $5 #
shell $-1 $-1 $-1 $21 $-1 $7 #
shell $-1 $-1 $-1 $22 $-1 $9 #
shell $-1 $-1 $-1 $23 $-1 $11 #
shell $-1 $-1 $-1 $24 $-1 $13 #
face $-1 $25 $26 $15 $-1 $27 forward single #
face $-1 $28 $29 $16 $-1 $30 reversed single #
face $-1 $31 $32 $17 $-1 $33 reversed single #
face $-1 $34 $35 $18 $-1 $36 forward single #
face $-1 $37 $38 $19 $-1 $39 forward single #
face $-1 $40 $41 $15 $-1 $42 reversed single #
loop $-1 $-1 $43 $20 #
plane-surface $-1 0 0 15.422499355612908 0 0 1 1 0 0 forward_v I I I I #
face $-1 $44 $45 $16 $-1 $46 reversed single #
loop $-1 $-1 $47 $21 #
plane-surface $-1 -46.446677626018037 -21.196386942720881 0 0 -1 0 0 0 -1 forward_v I I I I #
face $-1 $48 $49 $17 $-1 $50 reversed single #
loop $-1 $-1 $51 $22 #
plane-surface $-1 -138.01049975371382 13.017939896976376 53.281883866548874 0 1 0 -0.85716730853699208 0 0.51503806187062418 forward_v I I I I #
face $-1 $52 $53 $18 $-1 $54 forward single #
loop $-1 $55 $56 $23 #
cone-surface $-1 -46.0557595483778 14.908687945537327 7.9075326955380554 0.85716730853699208 0 -0.51503806187062418 0.25751903093531209 0 0.42858365426849604 1 I I 0 1 0.5 forward I I I I #
face $-1 $57 $58 $19 $-1 $59 forward single #
loop $-1 $60 $61 $24 #
cone-surface $-1 -46.0557595483778 17.744810018378754 7.9075326955380554 0.85716730853699208 0 -0.51503806187062418 0.25751903093531209 0 0.42858365426849604 1 I I 0 1 0.5 forward I I I I #
face $-1 $62 $63 $15 $-1 $64 reversed single #
loop $-1 $-1 $65 $25 #
plane-surface $-1 0 0 -15.422499355612908 0 0 1 1 0 0 forward_v I I I I #
coedge $-1 $66 $67 $68 $69 forward $26 $-1 #
face $-1 $70 $71 $16 $-1 $72 forward single #
loop $-1 $-1 $73 $28 #
plane-surface $-1 -42.048297724645707 -26.517706966363217 0 -1 0 0 0 0 1 forward_v I I I I #
coedge $-1 $74 $75 $76 $77 forward $29 $-1 #
face $-1 $78 $79 $17 $-1 $80 reversed single #
loop $-1 $-1 $81 $31 #
plane-surface $-1 -50.845057527390352 16.326748981958037 0.90760409733382374 -0.85716730853699208 0 0.51503806187062418 0.51503806187062418 0 0.85716730853699208 forward_v I I I I #
coedge $-1 $82 $83 $84 $85 reversed $32 $-1 #
face $-1 $-1 $86 $18 $-1 $87 forward single #
loop $-1 $88 $89 $34 #
cone-surface $-1 -45.412884066975053 14.908687945537327 7.5212541491350873 0.85716730853699208 0 -0.51503806187062418 0.12875951546765604 0 0.21429182713424802 1 I I -0.70710678118654746 0.70710678118654746 0.25 forward I I I I #
loop $-1 $-1 $90 $23 #
coedge $-1 $56 $56 $91 $92 reversed $35 $-1 #
face $-1 $-1 $93 $19 $-1 $94 forward single #
loop $-1 $95 $96 $37 #
cone-surface $-1 -45.412884066975053 17.744810018378754 7.5212541491350873 0.85716730853699208 0 -0.51503806187062418 0.12875951546765604 0 0.21429182713424802 1 I I -0.70710678118654746 0.70710678118654746 0.25 forward I I I I #
loop $-1 $-1 $97 $24 #
coedge $-1 $61 $61 $98 $99 reversed $38 $-1 #
face $-1 $100 $101 $15 $-1 $102 reversed single #
loop $-1 $-1 $103 $40 #
plane-surface $-1 0 -31.839026990005554 0 0 1 0 0 0 1 forward_v I I I I #
coedge $-1 $104 $105 $106 $107 forward $41 $-1 #
coedge $-1 $108 $43 $109 $110 forward $26 $-1 #
coedge $-1 $43 $108 $111 $112 forward $26 $-1 #
coedge $-1 $113 $114 $43 $69 reversed $115 $-1 #
edge $-1 $116 -31.839026990005554 $117 31.839026990005554 $68 $118 forward 7 unknown #
face $-1 $119 $120 $16 $-1 $121 reversed single #
loop $-1 $-1 $122 $44 #
plane-surface $-1 0 0 15.422499355612908 0 0 1 1 0 0 forward_v I I I I #
coedge $-1 $123 $124 $125 $126 reversed $45 $-1 #
coedge $-1 $127 $47 $128 $129 reversed $29 $-1 #
coedge $-1 $47 $127 $130 $131 reversed $29 $-1 #
coedge $-1 $124 $123 $47 $77 reversed $45 $-1 #
edge $-1 $132 -15.422499355612908 $133 15.422499355612908 $76 $134 forward 7 unknown #
face $-1 $135 $136 $17 $-1 $137 reversed single #
loop $-1 $-1 $138 $48 #
plane-surface $-1 -138.01049975371382 19.635558066939698 53.281883866548874 0 -1 0 0.85716730853699208 0 -0.51503806187062418 forward_v I I I I #
coedge $-1 $139 $140 $141 $142 reversed $49 $-1 #
coedge $-1 $83 $51 $143 $144 reversed $32 $-1 #
coedge $-1 $51 $82 $139 $145 reversed $32 $-1 #
coedge $-1 $141 $146 $51 $85 forward $147 $-1 #
edge $-1 $148 18.160192349466541 $149 26.881620998954709 $84 $150 forward 7 unknown #
loop $-1 $-1 $91 $52 #
plane-surface $-1 -50.845057527390352 16.326748981958037 0.90760409733382374 -0.85716730853699208 0 0.51503806187062418 0.51503806187062418 0 0.85716730853699208 forward_v I I I I #
loop $-1 $-1 $151 $34 #
coedge $-1 $89 $89 $90 $152 reversed $53 $-1 #
coedge $-1 $90 $90 $89 $152 forward $55 $-1 #
coedge $-1 $91 $91 $56 $92 forward $86 $-1 #
edge $-1 $153 0 $153 6.2831853071796004 $91 $154 forward 7 unknown #
loop $-1 $-1 $98 $57 #
plane-surface $-1 -50.845057527390352 16.326748981958037 0.90760409733382374 -0.85716730853699208 0 0.51503806187062418 0.51503806187062418 0 0.85716730853699208 forward_v I I I I #
loop $-1 $-1 $155 $37 #
coedge $-1 $96 $96 $97 $156 reversed $58 $-1 #
coedge $-1 $97 $97 $96 $156 forward $60 $-1 #
coedge $-1 $98 $98 $61 $99 forward $93 $-1 #
edge $-1 $157 0 $157 6.2831853071796004 $98 $158 forward 7 unknown #
face $-1 $159 $160 $15 $-1 $161 reversed single #
loop $-1 $-1 $162 $62 #
plane-surface $-1 -50.845057527390367 0 0 1 0 0 0 0 -1 forward_v I I I I #
coedge $-1 $163 $111 $164 $165 forward $63 $-1 #
coedge $-1 $166 $65 $163 $167 forward $41 $-1 #
coedge $-1 $65 $166 $168 $169 forward $41 $-1 #
coedge $-1 $114 $113 $65 $107 reversed $115 $-1 #
edge $-1 $170 -31.839026990005554 $171 31.839026990005554 $106 $172 forward 7 unknown #
coedge $-1 $67 $66 $173 $174 forward $26 $-1 #
coedge $-1 $175 $176 $66 $110 reversed $160 $-1 #
edge $-1 $117 -50.845057527390367 $177 50.845057527390367 $109 $178 forward 7 unknown #
coedge $-1 $103 $179 $67 $112 reversed $63 $-1 #
edge $-1 $180 -50.845057527390367 $116 50.845057527390367 $111 $181 forward 7 unknown #
coedge $-1 $106 $68 $179 $182 forward $115 $-1 #
coedge $-1 $68 $106 $175 $183 reversed $115 $-1 #
loop $-1 $-1 $113 $159 #
vertex $-1 $69 $184 #
vertex $-1 $69 $185 #
straight-curve $-1 50.845057527390367 0 15.422499355612908 0 1 0 I I #
face $-1 $186 $187 $16 $-1 $188 reversed single #
loop $-1 $-1 $189 $70 #
plane-surface $-1 -50.845057527390367 0 0 1 0 0 0 0 -1 forward_v I I I I #
coedge $-1 $130 $190 $124 $191 forward $71 $-1 #
coedge $-1 $76 $73 $192 $193 reversed $45 $-1 #
coedge $-1 $73 $76 $122 $191 reversed $45 $-1 #
coedge $-1 $194 $195 $73 $126 forward $196 $-1 #
edge $-1 $197 -15.422499355612908 $198 15.422499355612908 $125 $199 forward 7 unknown #
coedge $-1 $75 $74 $189 $200 reversed $29 $-1 #
coedge $-1 $192 $201 $74 $129 forward $187 $-1 #
edge $-1 $202 -27.621718714381348 $133 -18.824958911636688 $128 $203 forward 7 unknown #
coedge $-1 $204 $122 $75 $131 forward $71 $-1 #
edge $-1 $132 18.824958911636688 $205 27.621718714381348 $130 $206 forward 7 unknown #
vertex $-1 $131 $207 #
vertex $-1 $129 $208 #
straight-curve $-1 -42.048297724645707 -21.196386942720881 0 0 0 -1 I I #
face $-1 $-1 $147 $17 $-1 $209 forward single #
loop $-1 $-1 $210 $78 #
plane-surface $-1 -50.845057527390367 0 0 1 0 0 0 0 -1 forward_v I I I I #
coedge $-1 $211 $212 $213 $214 reversed $79 $-1 #
coedge $-1 $215 $81 $83 $145 forward $49 $-1 #
coedge $-1 $81 $215 $211 $216 forward $49 $-1 #
coedge $-1 $213 $84 $81 $142 forward $147 $-1 #
edge $-1 $149 4.8545654059973575 $217 11.472183575960679 $141 $218 forward 7 unknown #
coedge $-1 $219 $220 $82 $144 forward $136 $-1 #
edge $-1 $221 -25.733337835940638 $148 -11.218442577661529 $143 $222 forward 7 unknown #
edge $-1 $149 -16.93356141061075 $221 2.7589209654379419e-014 $83 $223 forward 7 unknown #
coedge $-1 $84 $213 $219 $224 forward $147 $-1 #
loop $-1 $-1 $213 $135 #
vertex $-1 $144 $225 #
vertex $-1 $85 $226 #
straight-curve $-1 -69.005249876856908 13.017939896976376 15.422499355612906 1 0 0 I I #
coedge $-1 $151 $151 $-1 $227 reversed $88 $-1 #
edge $-1 $228 0 $228 6.2831853071796004 $89 $229 forward 7 unknown #
vertex $-1 $92 $230 #
ellipse-curve $-1 -46.484343202646279 14.908687945537327 8.165051726473358 -0.85716730853699208 0 0.51503806187062418 0.25751903093531209 0 0.42858365426849604 1 I I #
coedge $-1 $155 $155 $-1 $231 reversed $95 $-1 #
edge $-1 $232 0 $232 6.2831853071796004 $96 $233 forward 7 unknown #
vertex $-1 $99 $234 #
ellipse-curve $-1 -46.484343202646279 17.744810018378754 8.165051726473358 -0.85716730853699208 0 0.51503806187062418 0.25751903093531209 0 0.42858365426849604 1 I I #
face $-1 $-1 $115 $15 $-1 $235 reversed single #
loop $-1 $-1 $175 $100 #
plane-surface $-1 0 31.839026990005554 0 0 -1 0 0 0 -1 forward_v I I I I #
coedge $-1 $236 $173 $176 $237 forward $101 $-1 #
coedge $-1 $179 $103 $104 $167 reversed $63 $-1 #
coedge $-1 $173 $236 $103 $165 reversed $101 $-1 #
edge $-1 $180 -15.422499355612908 $238 15.422499355612908 $164 $239 forward 7 unknown #
coedge $-1 $105 $104 $236 $240 forward $41 $-1 #
edge $-1 $171 -50.845057527390367 $238 50.845057527390367 $163 $241 forward 7 unknown #
coedge $-1 $176 $175 $105 $169 reversed $160 $-1 #
edge $-1 $242 -50.845057527390367 $170 50.845057527390367 $168 $243 forward 7 unknown #
vertex $-1 $107 $244 #
vertex $-1 $182 $245 #
straight-curve $-1 50.845057527390367 0 -15.422499355612908 0 -1 0 I I #
coedge $-1 $162 $164 $108 $174 reversed $101 $-1 #
edge $-1 $177 -31.839026990005554 $180 31.839026990005554 $173 $246 forward 7 unknown #
coedge $-1 $168 $109 $114 $183 forward $160 $-1 #
coedge $-1 $109 $168 $162 $237 reversed $160 $-1 #
vertex $-1 $110 $247 #
straight-curve $-1 0 31.839026990005554 15.422499355612908 -1 0 0 I I #
coedge $-1 $111 $163 $113 $182 reversed $63 $-1 #
vertex $-1 $174 $248 #
straight-curve $-1 0 -31.839026990005554 15.422499355612908 1 0 0 I I #
edge $-1 $116 -15.422499355612908 $171 15.422499355612908 $113 $249 forward 7 unknown #
edge $-1 $117 -15.422499355612908 $170 15.422499355612908 $114 $250 forward 7 unknown #
point $-1 50.845057527390367 -31.839026990005554 15.422499355612908 #
point $-1 50.845057527390367 31.839026990005554 15.422499355612908 #
face $-1 $-1 $196 $16 $-1 $251 reversed single #
loop $-1 $-1 $192 $119 #
plane-surface $-1 0 0 -15.422499355612908 0 0 1 1 0 0 forward_v I I I I #
coedge $-1 $252 $253 $127 $200 forward $120 $-1 #
coedge $-1 $122 $204 $194 $254 forward $71 $-1 #
edge $-1 $198 -18.580173506823947 $132 -7.9375334595392726 $122 $255 forward 7 unknown #
coedge $-1 $256 $128 $123 $193 forward $187 $-1 #
edge $-1 $133 7.9375334595392726 $197 18.580173506823947 $192 $257 forward 7 unknown #
coedge $-1 $258 $125 $190 $254 reversed $196 $-1 #
coedge $-1 $125 $258 $256 $259 reversed $196 $-1 #
loop $-1 $-1 $125 $186 #
vertex $-1 $259 $260 #
vertex $-1 $126 $261 #
straight-curve $-1 -42.048297724645707 -31.839026990005554 0 0 0 1 I I #
edge $-1 $205 -15.422499355612908 $202 15.422499355612908 $189 $262 forward 7 unknown #
coedge $-1 $128 $256 $252 $263 forward $187 $-1 #
vertex $-1 $129 $264 #
straight-curve $-1 -23.223338813009018 -21.196386942720881 -15.422499355612908 1 0 0 I I #
coedge $-1 $190 $130 $253 $265 forward $71 $-1 #
vertex $-1 $265 $266 #
straight-curve $-1 -23.223338813009018 -21.196386942720881 15.422499355612908 -1 0 0 I I #
point $-1 -42.048297724645707 -21.196386942720881 15.422499355612908 #
point $-1 -42.048297724645707 -21.196386942720881 -15.422499355612908 #
plane-surface $-1 0 0 15.422499355612908 0 0 1 1 0 0 forward_v I I I I #
coedge $-1 $220 $219 $212 $267 forward $136 $-1 #
coedge $-1 $212 $138 $140 $216 reversed $79 $-1 #
coedge $-1 $138 $211 $210 $267 reversed $79 $-1 #
coedge $-1 $146 $141 $138 $214 forward $147 $-1 #
edge $-1 $217 -26.881620998954709 $268 -18.160192349466541 $213 $269 forward 7 unknown #
coedge $-1 $140 $139 $220 $270 reversed $49 $-1 #
edge $-1 $271 -2.7589209654379419e-014 $217 16.93356141061075 $211 $272 forward 7 unknown #
vertex $-1 $142 $273 #
straight-curve $-1 -42.123628877902199 8.1633744909790185 15.422499355612908 0 1 0 I I #
coedge $-1 $210 $143 $146 $224 reversed $136 $-1 #
coedge $-1 $143 $210 $215 $270 forward $136 $-1 #
vertex $-1 $144 $274 #
straight-curve $-1 -50.845057527390367 13.017939896976376 26.640941933274437 0 0 1 I I #
straight-curve $-1 -50.845057527390352 13.017939896976376 0.90760409733382374 -0.51503806187062418 0 -0.85716730853699208 I I #
edge $-1 $268 -19.635558066939698 $148 -13.017939896976376 $219 $275 forward 7 unknown #
point $-1 -50.845057527390367 13.017939896976376 15.422499355612908 #
point $-1 -42.123628877902199 13.017939896976376 15.422499355612906 #
edge $-1 $276 1 $276 0 $151 $-1 forward 7 unknown #
vertex $-1 $152 $277 #
ellipse-curve $-1 -45.6271758941093 14.908687945537327 7.650013664602743 -0.85716730853699208 0 0.51503806187062418 0.25751903093531209 0 0.42858365426849604 1 I I #
point $-1 -46.22682417171098 14.908687945537327 8.5936353807418637 #
edge $-1 $278 1 $278 0 $155 $-1 forward 7 unknown #
vertex $-1 $156 $279 #
ellipse-curve $-1 -45.6271758941093 17.744810018378754 7.650013664602743 -0.85716730853699208 0 0.51503806187062418 0.25751903093531209 0 0.42858365426849604 1 I I #
point $-1 -46.22682417171098 17.744810018378754 8.5936353807418637 #
plane-surface $-1 50.845057527390367 0 0 -1 0 0 0 0 1 forward_v I I I I #
coedge $-1 $164 $162 $166 $240 reversed $101 $-1 #
edge $-1 $177 -15.422499355612908 $242 15.422499355612908 $176 $280 forward 7 unknown #
vertex $-1 $240 $281 #
straight-curve $-1 -50.845057527390367 -31.839026990005554 0 0 0 -1 I I #
edge $-1 $238 -31.839026990005554 $242 31.839026990005554 $236 $282 forward 7 unknown #
straight-curve $-1 0 -31.839026990005554 -15.422499355612908 -1 0 0 I I #
vertex $-1 $169 $283 #
straight-curve $-1 0 31.839026990005554 -15.422499355612908 1 0 0 I I #
point $-1 50.845057527390367 31.839026990005554 -15.422499355612908 #
point $-1 50.845057527390367 -31.839026990005554 -15.422499355612908 #
straight-curve $-1 -50.845057527390367 0 15.422499355612908 0 -1 0 I I #
point $-1 -50.845057527390367 31.839026990005554 15.422499355612908 #
point $-1 -50.845057527390367 -31.839026990005554 15.422499355612908 #
straight-curve $-1 50.845057527390367 -31.839026990005554 0 0 0 -1 I I #
straight-curve $-1 50.845057527390367 31.839026990005554 0 0 0 -1 I I #
plane-surface $-1 0 -31.839026990005554 0 0 1 0 0 0 1 forward_v I I I I #
coedge $-1 $284 $189 $201 $263 reversed $120 $-1 #
coedge $-1 $189 $284 $204 $265 reversed $120 $-1 #
edge $-1 $285 -50.845057527390367 $198 -42.048297724645707 $194 $286 forward 7 unknown #
straight-curve $-1 -42.048297724645707 -13.258853483181609 15.422499355612908 0 1 0 I I #
coedge $-1 $201 $192 $195 $259 forward $187 $-1 #
straight-curve $-1 -42.048297724645707 -13.258853483181609 -15.422499355612908 0 -1 0 I I #
coedge $-1 $195 $194 $284 $287 forward $196 $-1 #
edge $-1 $197 42.048297724645707 $288 50.845057527390367 $195 $289 forward 7 unknown #
point $-1 -42.048297724645707 -31.839026990005554 -15.422499355612908 #
point $-1 -42.048297724645707 -31.839026990005554 15.422499355612908 #
straight-curve $-1 -50.845057527390367 -21.196386942720881 0 0 0 -1 I I #
edge $-1 $288 -31.839026990005554 $202 -21.196386942720881 $252 $290 forward 7 unknown #
point $-1 -50.845057527390367 -21.196386942720881 -15.422499355612908 #
edge $-1 $205 21.196386942720881 $285 31.839026990005554 $253 $291 forward 7 unknown #
point $-1 -50.845057527390367 -21.196386942720881 15.422499355612908 #
edge $-1 $268 11.218442577661529 $271 25.733337835940638 $210 $292 forward 7 unknown #
vertex $-1 $224 $293 #
straight-curve $-1 -69.005249876856908 19.635558066939698 15.422499355612906 -1 0 0 I I #
edge $-1 $271 -11.472183575960679 $221 -4.8545654059973575 $220 $294 forward 7 unknown #
vertex $-1 $270 $295 #
straight-curve $-1 -50.845057527390352 19.635558066939698 0.90760409733382374 0.51503806187062418 0 0.85716730853699208 I I #
point $-1 -42.123628877902199 19.635558066939698 15.422499355612906 #
point $-1 -50.845057527390367 13.017939896976376 0.9076040973338001 #
straight-curve $-1 -50.845057527390367 0 15.422499355612908 0 -1 0 I I #
vertex $-1 $227 $296 #
point $-1 -45.369656863173986 14.908687945537327 8.078597318871239 #
vertex $-1 $231 $297 #
point $-1 -45.369656863173986 17.744810018378754 8.078597318871239 #
straight-curve $-1 -50.845057527390367 31.839026990005554 0 0 0 -1 I I #
point $-1 -50.845057527390367 -31.839026990005554 -15.422499355612908 #
straight-curve $-1 -50.845057527390367 0 -15.422499355612908 0 1 0 I I #
point $-1 -50.845057527390367 31.839026990005554 -15.422499355612908 #
coedge $-1 $253 $252 $258 $287 reversed $120 $-1 #
vertex $-1 $265 $298 #
straight-curve $-1 0 -31.839026990005554 15.422499355612908 1 0 0 I I #
edge $-1 $285 -15.422499355612908 $288 15.422499355612908 $284 $299 forward 7 unknown #
vertex $-1 $263 $300 #
straight-curve $-1 0 -31.839026990005554 -15.422499355612908 -1 0 0 I I #
straight-curve $-1 -50.845057527390367 0 -15.422499355612908 0 1 0 I I #
straight-curve $-1 -50.845057527390367 0 15.422499355612908 0 -1 0 I I #
straight-curve $-1 -50.845057527390367 19.635558066939698 26.640941933274437 0 0 -1 I I #
point $-1 -50.845057527390367 19.635558066939698 15.422499355612908 #
straight-curve $-1 -50.845057527390367 8.1633744909790185 0.90760409733380065 0 -1 0 I I #
point $-1 -50.845057527390367 19.635558066939698 0.9076040973338001 #
point $-1 -45.198592239840806 14.908687945537327 7.3924946336674315 #
point $-1 -45.198592239840806 17.744810018378754 7.3924946336674315 #
point $-1 -50.845057527390367 -31.839026990005554 15.422499355612908 #
straight-curve $-1 -50.845057527390367 -31.839026990005554 0 0 0 -1 I I #
point $-1 -50.845057527390367 -31.839026990005554 -15.422499355612908 #
End-of-ACIS-data 