500 0 5 0           
7 Unknown 11 ACIS 5.0 NT 24 Fri Mar 26 18:34:16 1999 
-1 9.9999999999999995e-007 1e-010 
body $-1 $5 $-1 $6 #
body $-1 $7 $-1 $8 #
body $-1 $9 $-1 $10 #
body $-1 $11 $-1 $12 #
body $-1 $13 $-1 $14 #
lump $-1 $-1 $15 $0 #
transform $-1 1 0 0 0 1 0 0 0 1 64.201178014465768 33.568122877676771 15.845153860561743 1 rotate no_reflect no_shear #
lump $-1 $-1 $16 $1 #
transform $-1 1 0 0 0 1 0 0 0 1 64.201178014465768 33.568122877676771 15.845153860561743 1 rotate no_reflect no_shear #
lump $-1 $-1 $17 $2 #
transform $-1 1 0 0 0 1 0 0 0 1 64.201178014465768 33.568122877676771 15.845153860561743 1 rotate no_reflect no_shear #
lump $-1 $-1 $18 $3 #
transform $-1 1 0 0 0 1 0 0 0 1 64.201178014465768 33.568122877676771 15.845153860561743 1 rotate no_reflect no_shear #
lump $-1 $-1 $19 $4 #
transform $-1 1 0 0 0 1 0 0 0 1 64.201178014465768 33.568122877676771 15.845153860561743 1 rotate no_reflect no_shear #
shell $-1 $-1 $-1 $20 $-1 $5 #
shell $-1 $-1 $-1 $21 $-1 $7 #
shell $-1 $-1 $-1 $22 $-1 $9 #
shell $-1 $-1 $-1 $23 $-1 $11 #
shell $-1 $-1 $-1 $24 $-1 $13 #
face $-1 $25 $26 $15 $-1 $27 forward single #
face $-1 $28 $29 $16 $-1 $30 forward single #
face $-1 $31 $32 $17 $-1 $33 forward single #
face $-1 $34 $35 $18 $-1 $36 reversed single #
face $-1 $37 $38 $19 $-1 $39 reversed single #
face $-1 $40 $41 $15 $-1 $42 reversed single #
loop $-1 $-1 $43 $20 #
plane-surface $-1 0 0 15.845153860561743 0 0 1 1 0 0 forward_v I I I I #
face $-1 $44 $45 $16 $-1 $46 forward single #
loop $-1 $-1 $47 $21 #
plane-surface $-1 -50.151495802633235 -24.70466770358486 0 1 0 0 0 0 -1 forward_v I I I I #
face $-1 $48 $49 $17 $-1 $50 forward single #
loop $-1 $-1 $51 $22 #
plane-surface $-1 -165.3836164135891 -15.841212529492944 88.648124533021601 0 1 0 -0.78801076186113728 0 0.61566146476048833 forward_v I I I I #
face $-1 $52 $53 $18 $-1 $54 reversed single #
loop $-1 $55 $56 $23 #
cone-surface $-1 -60.452110290663647 -13.144901781817747 11.698698261063052 0.78801076186113728 0 -0.61566146476048833 0.61566146476048833 0 0.78801076186113728 1 I I 0 1 1 forward I I I I #
face $-1 $57 $58 $19 $-1 $59 reversed single #
loop $-1 $60 $61 $24 #
cone-surface $-1 -60.452110290663647 -9.1004356603049494 11.698698261063052 0.78801076186113728 0 -0.61566146476048833 0.61566146476048833 0 0.78801076186113728 1 I I 0 1 1 forward I I I I #
face $-1 $62 $63 $15 $-1 $64 reversed single #
loop $-1 $-1 $65 $25 #
plane-surface $-1 0 0 -15.845153860561743 0 0 1 1 0 0 forward_v I I I I #
coedge $-1 $66 $67 $68 $69 forward $26 $-1 #
face $-1 $70 $71 $16 $-1 $72 forward single #
loop $-1 $-1 $73 $28 #
plane-surface $-1 -47.053211391487721 -15.841212529492948 0 0 -1 0 0 0 -1 forward_v I I I I #
coedge $-1 $74 $75 $76 $77 reversed $29 $-1 #
face $-1 $78 $79 $17 $-1 $80 forward single #
loop $-1 $-1 $81 $31 #
plane-surface $-1 -64.201178014465768 -11.122668721061345 9.5957419415518928 -0.78801076186113728 0 0.61566146476048833 0.61566146476048833 0 0.78801076186113728 forward_v I I I I #
coedge $-1 $82 $83 $84 $85 reversed $32 $-1 #
face $-1 $86 $87 $18 $-1 $88 forward single #
loop $-1 $89 $90 $34 #
cone-surface $-1 -58.750324971685387 -13.144901781817747 10.369117888689052 0.78801076186113728 0 -0.61566146476048833 0.30783073238024417 0 0.39400538093056864 1 I I -0.70710678118654746 0.70710678118654746 0.5 forward I I I I #
loop $-1 $-1 $91 $23 #
coedge $-1 $56 $56 $92 $93 reversed $35 $-1 #
face $-1 $94 $95 $19 $-1 $96 reversed single #
loop $-1 $97 $98 $37 #
cone-surface $-1 -58.750324971685387 -9.1004356603049494 10.369117888689052 0.78801076186113728 0 -0.61566146476048833 0.30783073238024417 0 0.39400538093056864 1 I I -0.70710678118654746 0.70710678118654746 0.5 forward I I I I #
loop $-1 $-1 $99 $24 #
coedge $-1 $61 $61 $100 $101 reversed $38 $-1 #
face $-1 $102 $103 $15 $-1 $104 reversed single #
loop $-1 $-1 $105 $40 #
plane-surface $-1 0 -33.568122877676771 0 0 1 0 0 0 1 forward_v I I I I #
coedge $-1 $106 $107 $108 $109 forward $41 $-1 #
coedge $-1 $110 $43 $111 $112 forward $26 $-1 #
coedge $-1 $43 $110 $113 $114 forward $26 $-1 #
coedge $-1 $115 $116 $43 $69 reversed $117 $-1 #
edge $-1 $118 -33.568122877676771 $119 33.568122877676771 $68 $120 forward 7 unknown #
face $-1 $121 $122 $16 $-1 $123 forward single #
loop $-1 $-1 $124 $44 #
plane-surface $-1 -43.954926980342208 -24.70466770358486 0 -1 0 0 0 0 1 forward_v I I I I #
coedge $-1 $125 $126 $127 $128 reversed $45 $-1 #
coedge $-1 $129 $47 $130 $131 reversed $29 $-1 #
coedge $-1 $47 $129 $132 $133 reversed $29 $-1 #
coedge $-1 $126 $125 $47 $77 forward $45 $-1 #
edge $-1 $134 -15.845153860561743 $135 15.845153860561743 $76 $136 forward 7 unknown #
face $-1 $137 $138 $17 $-1 $139 forward single #
loop $-1 $-1 $140 $48 #
plane-surface $-1 -165.3836164135891 -6.4041249126297455 88.648124533021601 0 -1 0 0.78801076186113728 0 -0.61566146476048833 forward_v I I I I #
coedge $-1 $141 $142 $143 $144 reversed $49 $-1 #
coedge $-1 $83 $51 $142 $145 forward $32 $-1 #
coedge $-1 $51 $82 $146 $147 reversed $32 $-1 #
coedge $-1 $148 $143 $51 $85 forward $138 $-1 #
edge $-1 $149 -23.373205763837618 $150 -18.49063019232878 $84 $151 forward 7 unknown #
face $-1 $152 $153 $18 $-1 $154 forward single #
loop $-1 $-1 $155 $52 #
plane-surface $-1 -165.3836164135891 -15.841212529492944 88.648124533021601 0 1 0 -0.78801076186113728 0 0.61566146476048833 forward_v I I I I #
loop $-1 $-1 $156 $34 #
coedge $-1 $90 $90 $91 $157 forward $53 $-1 #
coedge $-1 $91 $91 $90 $157 reversed $55 $-1 #
coedge $-1 $92 $92 $56 $93 forward $153 $-1 #
edge $-1 $158 0 $158 6.2831853071796004 $92 $159 forward 7 unknown #
face $-1 $160 $161 $19 $-1 $162 reversed single #
loop $-1 $163 $164 $57 #
cone-surface $-1 -60.452110290663647 -13.144901781817747 11.698698261063052 0.78801076186113728 0 -0.61566146476048833 0.61566146476048833 0 0.78801076186113728 1 I I 0 1 1 forward I I I I #
loop $-1 $-1 $165 $37 #
coedge $-1 $98 $98 $99 $166 forward $58 $-1 #
coedge $-1 $99 $99 $98 $166 reversed $60 $-1 #
coedge $-1 $100 $100 $61 $101 forward $167 $-1 #
edge $-1 $168 0 $168 6.2831853071796004 $100 $169 forward 7 unknown #
face $-1 $170 $171 $15 $-1 $172 reversed single #
loop $-1 $-1 $173 $62 #
plane-surface $-1 -64.201178014465768 0 0 1 0 0 0 0 -1 forward_v I I I I #
coedge $-1 $174 $113 $175 $176 forward $63 $-1 #
coedge $-1 $177 $65 $174 $178 forward $41 $-1 #
coedge $-1 $65 $177 $179 $180 forward $41 $-1 #
coedge $-1 $116 $115 $65 $109 reversed $117 $-1 #
edge $-1 $181 -33.568122877676771 $182 33.568122877676771 $108 $183 forward 7 unknown #
coedge $-1 $67 $66 $184 $185 forward $26 $-1 #
coedge $-1 $186 $187 $66 $112 reversed $171 $-1 #
edge $-1 $119 -64.201178014465768 $188 64.201178014465768 $111 $189 forward 7 unknown #
coedge $-1 $105 $190 $67 $114 reversed $63 $-1 #
edge $-1 $191 -64.201178014465768 $118 64.201178014465768 $113 $192 forward 7 unknown #
coedge $-1 $108 $68 $190 $193 forward $117 $-1 #
coedge $-1 $68 $108 $186 $194 reversed $117 $-1 #
loop $-1 $-1 $115 $170 #
vertex $-1 $69 $195 #
vertex $-1 $69 $196 #
straight-curve $-1 64.201178014465768 0 15.845153860561743 0 1 0 I I #
face $-1 $197 $198 $16 $-1 $199 reversed single #
loop $-1 $-1 $130 $70 #
plane-surface $-1 0 0 15.845153860561743 0 0 1 1 0 0 forward_v I I I I #
coedge $-1 $200 $201 $202 $203 reversed $71 $-1 #
coedge $-1 $76 $73 $204 $205 reversed $45 $-1 #
coedge $-1 $73 $76 $206 $207 reversed $45 $-1 #
coedge $-1 $201 $200 $73 $128 forward $71 $-1 #
edge $-1 $208 -15.845153860561743 $209 15.845153860561743 $127 $210 forward 7 unknown #
coedge $-1 $75 $74 $211 $212 reversed $29 $-1 #
coedge $-1 $204 $213 $74 $131 forward $122 $-1 #
edge $-1 $214 -21.215789025884341 $134 -3.4888786777005176 $130 $215 forward 7 unknown #
coedge $-1 $216 $206 $75 $133 forward $217 $-1 #
edge $-1 $135 3.4888786777005176 $218 21.215789025884341 $132 $219 forward 7 unknown #
vertex $-1 $131 $220 #
vertex $-1 $133 $221 #
straight-curve $-1 -50.151495802633235 -15.841212529492948 0 0 0 -1 I I #
face $-1 $222 $223 $17 $-1 $224 forward single #
loop $-1 $-1 $225 $78 #
plane-surface $-1 0 0 15.845153860561743 0 0 1 1 0 0 forward_v I I I I #
coedge $-1 $226 $227 $225 $228 reversed $79 $-1 #
coedge $-1 $229 $81 $227 $230 reversed $49 $-1 #
coedge $-1 $81 $229 $82 $145 reversed $49 $-1 #
coedge $-1 $84 $225 $81 $144 forward $138 $-1 #
edge $-1 $231 0.84279055209907305 $149 10.279878168962272 $143 $232 forward 7 unknown #
edge $-1 $149 -7.9306174756419328 $233 0 $82 $234 forward 7 unknown #
coedge $-1 $235 $236 $83 $147 forward $237 $-1 #
edge $-1 $150 28.478908405949056 $233 34.728320324958908 $146 $238 forward 7 unknown #
coedge $-1 $239 $84 $236 $240 forward $138 $-1 #
vertex $-1 $144 $241 #
vertex $-1 $240 $242 #
straight-curve $-1 -82.691808206794548 -15.841212529492944 15.845153860561744 -1 0 0 I I #
face $-1 $243 $244 $18 $-1 $245 forward single #
loop $-1 $246 $92 $86 #
plane-surface $-1 -64.201178014465768 -11.122668721061345 9.5957419415518928 -0.78801076186113728 0 0.61566146476048833 0.61566146476048833 0 0.78801076186113728 forward_v I I I I #
coedge $-1 $247 $248 $249 $250 reversed $87 $-1 #
coedge $-1 $156 $156 $-1 $251 forward $89 $-1 #
edge $-1 $252 0 $252 6.2831853071796004 $90 $253 forward 7 unknown #
vertex $-1 $93 $254 #
ellipse-curve $-1 -61.759890228711349 -13.144901781817747 12.720447901056817 0.78801076186113728 0 -0.61566146476048833 0.61566146476048833 0 0.78801076186113728 1 I I #
face $-1 $255 $256 $19 $-1 $257 forward single #
loop $-1 $258 $259 $94 #
cone-surface $-1 -58.750324971685387 -13.144901781817747 10.369117888689052 0.78801076186113728 0 -0.61566146476048833 0.30783073238024417 0 0.39400538093056864 1 I I -0.70710678118654746 0.70710678118654746 0.5 forward I I I I #
loop $-1 $-1 $260 $57 #
coedge $-1 $164 $164 $261 $262 reversed $95 $-1 #
coedge $-1 $165 $165 $-1 $263 forward $97 $-1 #
edge $-1 $264 0 $264 6.2831853071796004 $98 $265 forward 7 unknown #
loop $-1 $266 $100 $255 #
vertex $-1 $101 $267 #
ellipse-curve $-1 -61.759890228711349 -9.1004356603049494 12.720447901056817 0.78801076186113728 0 -0.61566146476048833 0.61566146476048833 0 0.78801076186113728 1 I I #
face $-1 $-1 $117 $15 $-1 $268 reversed single #
loop $-1 $-1 $186 $102 #
plane-surface $-1 0 33.568122877676771 0 0 -1 0 0 0 -1 forward_v I I I I #
coedge $-1 $269 $184 $187 $270 forward $103 $-1 #
coedge $-1 $190 $105 $106 $178 reversed $63 $-1 #
coedge $-1 $184 $269 $105 $176 reversed $103 $-1 #
edge $-1 $191 -15.845153860561743 $271 15.845153860561743 $175 $272 forward 7 unknown #
coedge $-1 $107 $106 $269 $273 forward $41 $-1 #
edge $-1 $182 -64.201178014465768 $271 64.201178014465768 $174 $274 forward 7 unknown #
coedge $-1 $187 $186 $107 $180 reversed $171 $-1 #
edge $-1 $275 -64.201178014465768 $181 64.201178014465768 $179 $276 forward 7 unknown #
vertex $-1 $109 $277 #
vertex $-1 $193 $278 #
straight-curve $-1 64.201178014465768 0 -15.845153860561743 0 -1 0 I I #
coedge $-1 $173 $175 $110 $185 reversed $103 $-1 #
edge $-1 $188 -33.568122877676771 $191 33.568122877676771 $184 $279 forward 7 unknown #
coedge $-1 $179 $111 $116 $194 forward $171 $-1 #
coedge $-1 $111 $179 $173 $270 reversed $171 $-1 #
vertex $-1 $112 $280 #
straight-curve $-1 0 33.568122877676771 15.845153860561743 -1 0 0 I I #
coedge $-1 $113 $174 $115 $193 reversed $63 $-1 #
vertex $-1 $185 $281 #
straight-curve $-1 0 -33.568122877676771 15.845153860561743 1 0 0 I I #
edge $-1 $118 -15.845153860561743 $182 15.845153860561743 $115 $282 forward 7 unknown #
edge $-1 $119 -15.845153860561743 $181 15.845153860561743 $116 $283 forward 7 unknown #
point $-1 64.201178014465768 -33.568122877676771 15.845153860561743 #
point $-1 64.201178014465768 33.568122877676771 15.845153860561743 #
face $-1 $284 $217 $16 $-1 $285 reversed single #
loop $-1 $-1 $202 $121 #
plane-surface $-1 0 -33.568122877676771 0 0 1 0 0 0 1 forward_v I I I I #
coedge $-1 $127 $124 $286 $287 reversed $71 $-1 #
coedge $-1 $124 $127 $288 $289 reversed $71 $-1 #
coedge $-1 $290 $291 $124 $203 forward $198 $-1 #
edge $-1 $292 -15.845153860561743 $293 15.845153860561743 $202 $294 forward 7 unknown #
coedge $-1 $286 $130 $125 $205 forward $122 $-1 #
edge $-1 $134 -26.624890106889374 $208 -20.428321284598347 $204 $295 forward 7 unknown #
coedge $-1 $132 $288 $126 $207 forward $217 $-1 #
edge $-1 $209 20.428321284598347 $135 26.624890106889374 $206 $296 forward 7 unknown #
vertex $-1 $205 $297 #
vertex $-1 $207 $298 #
straight-curve $-1 -43.954926980342208 -15.841212529492948 0 0 0 -1 I I #
coedge $-1 $299 $300 $129 $212 forward $301 $-1 #
edge $-1 $218 -15.845153860561743 $214 15.845153860561743 $211 $302 forward 7 unknown #
coedge $-1 $130 $303 $299 $304 forward $122 $-1 #
vertex $-1 $212 $305 #
straight-curve $-1 -50.151495802633235 -12.35233385179243 15.845153860561743 0 1 0 I I #
coedge $-1 $306 $132 $300 $307 forward $217 $-1 #
loop $-1 $-1 $132 $197 #
vertex $-1 $307 $308 #
straight-curve $-1 -50.151495802633235 -12.35233385179243 -15.845153860561743 0 -1 0 I I #
point $-1 -50.151495802633235 -15.841212529492948 15.845153860561743 #
point $-1 -50.151495802633235 -15.841212529492948 -15.845153860561743 #
face $-1 $309 $310 $17 $-1 $311 forward single #
loop $-1 $-1 $312 $137 #
plane-surface $-1 -50.151495802633235 -24.70466770358486 0 1 0 0 0 0 -1 forward_v I I I I #
coedge $-1 $143 $313 $140 $228 forward $138 $-1 #
coedge $-1 $227 $140 $314 $315 reversed $79 $-1 #
coedge $-1 $140 $226 $141 $230 forward $79 $-1 #
edge $-1 $316 18.49063019232878 $231 23.373205763837618 $225 $317 forward 7 unknown #
coedge $-1 $142 $141 $235 $318 reversed $49 $-1 #
edge $-1 $319 0 $231 7.9306174756419328 $227 $320 forward 7 unknown #
vertex $-1 $144 $321 #
straight-curve $-1 -59.318602442956923 -5.5613343605306724 15.845153860561744 0 -1 0 I I #
vertex $-1 $318 $322 #
straight-curve $-1 -64.201178014465768 -15.841212529492944 9.5957419415518928 -0.61566146476048833 0 -0.78801076186113728 I I #
coedge $-1 $314 $146 $229 $318 forward $237 $-1 #
coedge $-1 $146 $323 $148 $240 reversed $237 $-1 #
loop $-1 $-1 $314 $324 #
straight-curve $-1 -64.201178014465768 -15.841212529492944 44.324062266510801 0 0 -1 I I #
coedge $-1 $325 $148 $326 $327 forward $138 $-1 #
edge $-1 $150 15.841212529492944 $328 33.568122877676771 $236 $329 forward 7 unknown #
point $-1 -59.31860244295693 -15.841212529492944 15.845153860561743 #
point $-1 -64.201178014465768 -15.841212529492944 15.845153860561743 #
face $-1 $330 $331 $18 $-1 $332 forward single #
loop $-1 $-1 $333 $152 #
plane-surface $-1 -165.3836164135891 -6.4041249126297455 88.648124533021601 0 -1 0 0.78801076186113728 0 -0.61566146476048833 forward_v I I I I #
loop $-1 $-1 $334 $86 #
coedge $-1 $248 $155 $335 $336 forward $87 $-1 #
coedge $-1 $155 $247 $337 $338 reversed $87 $-1 #
coedge $-1 $339 $340 $155 $250 forward $331 $-1 #
edge $-1 $341 -23.373205763837618 $342 -18.49063019232878 $249 $343 forward 7 unknown #
edge $-1 $344 1 $344 0 $156 $-1 forward 7 unknown #
vertex $-1 $157 $345 #
ellipse-curve $-1 -59.144330352615953 -13.144901781817747 10.676948621069297 -0.78801076186113728 0 0.61566146476048833 0.61566146476048833 0 0.78801076186113728 1 I I #
point $-1 -61.144228763950849 -13.144901781817747 13.508458662917946 #
face $-1 $346 $167 $19 $-1 $347 forward single #
loop $-1 $-1 $348 $160 #
plane-surface $-1 -165.3836164135891 -15.841212529492944 88.648124533021601 0 1 0 -0.78801076186113728 0 0.61566146476048833 forward_v I I I I #
loop $-1 $-1 $349 $94 #
coedge $-1 $259 $259 $260 $350 forward $161 $-1 #
coedge $-1 $260 $260 $259 $350 reversed $163 $-1 #
coedge $-1 $261 $261 $164 $262 forward $266 $-1 #
edge $-1 $351 0 $351 6.2831853071796004 $261 $352 forward 7 unknown #
edge $-1 $353 1 $353 0 $165 $-1 forward 7 unknown #
vertex $-1 $166 $354 #
ellipse-curve $-1 -59.144330352615953 -9.1004356603049494 10.676948621069297 -0.78801076186113728 0 0.61566146476048833 0.61566146476048833 0 0.78801076186113728 1 I I #
loop $-1 $355 $261 $255 #
point $-1 -61.144228763950849 -9.1004356603049494 13.508458662917946 #
plane-surface $-1 64.201178014465768 0 0 -1 0 0 0 0 1 forward_v I I I I #
coedge $-1 $175 $173 $177 $273 reversed $103 $-1 #
edge $-1 $188 -15.845153860561743 $275 15.845153860561743 $187 $356 forward 7 unknown #
vertex $-1 $273 $357 #
straight-curve $-1 -64.201178014465768 -33.568122877676771 0 0 0 -1 I I #
edge $-1 $271 -33.568122877676771 $275 33.568122877676771 $269 $358 forward 7 unknown #
straight-curve $-1 0 -33.568122877676771 -15.845153860561743 -1 0 0 I I #
vertex $-1 $180 $359 #
straight-curve $-1 0 33.568122877676771 -15.845153860561743 1 0 0 I I #
point $-1 64.201178014465768 33.568122877676771 -15.845153860561743 #
point $-1 64.201178014465768 -33.568122877676771 -15.845153860561743 #
straight-curve $-1 -64.201178014465768 0 15.845153860561743 0 -1 0 I I #
point $-1 -64.201178014465768 33.568122877676771 15.845153860561743 #
point $-1 -64.201178014465768 -33.568122877676771 15.845153860561743 #
straight-curve $-1 64.201178014465768 -33.568122877676771 0 0 0 -1 I I #
straight-curve $-1 64.201178014465768 33.568122877676771 0 0 0 -1 I I #
face $-1 $360 $301 $16 $-1 $199 reversed single #
plane-surface $-1 0 0 -15.845153860561743 0 0 1 1 0 0 forward_v I I I I #
coedge $-1 $361 $204 $200 $287 forward $122 $-1 #
edge $-1 $208 3.4888786777005176 $292 21.215789025884341 $286 $362 forward 7 unknown #
coedge $-1 $206 $363 $201 $289 forward $217 $-1 #
edge $-1 $293 -21.215789025884341 $209 -3.4888786777005176 $288 $364 forward 7 unknown #
coedge $-1 $365 $202 $363 $366 reversed $198 $-1 #
coedge $-1 $202 $365 $361 $367 reversed $198 $-1 #
vertex $-1 $367 $368 #
vertex $-1 $203 $369 #
straight-curve $-1 -43.954926980342208 -33.568122877676771 0 0 0 -1 I I #
straight-curve $-1 -23.526605695743861 -15.841212529492948 15.845153860561743 1 0 0 I I #
straight-curve $-1 -23.526605695743861 -15.841212529492948 -15.845153860561743 -1 0 0 I I #
point $-1 -43.954926980342208 -15.841212529492948 15.845153860561743 #
point $-1 -43.954926980342208 -15.841212529492948 -15.845153860561743 #
coedge $-1 $370 $211 $213 $304 reversed $301 $-1 #
coedge $-1 $211 $370 $216 $307 reversed $301 $-1 #
loop $-1 $-1 $211 $284 #
straight-curve $-1 -50.151495802633235 -33.568122877676771 0 0 0 1 I I #
coedge $-1 $213 $371 $372 $373 forward $122 $-1 #
edge $-1 $374 -64.201178014465768 $214 -50.151495802633235 $299 $375 forward 7 unknown #
point $-1 -50.151495802633235 -33.568122877676771 15.845153860561743 #
coedge $-1 $376 $216 $377 $378 forward $217 $-1 #
edge $-1 $218 50.151495802633235 $379 64.201178014465768 $300 $380 forward 7 unknown #
point $-1 -50.151495802633235 -33.568122877676771 -15.845153860561743 #
face $-1 $381 $382 $17 $-1 $383 forward single #
loop $-1 $-1 $384 $222 #
plane-surface $-1 -47.053211391487721 -15.841212529492948 0 0 -1 0 0 0 -1 forward_v I I I I #
coedge $-1 $385 $386 $387 $388 reversed $223 $-1 #
coedge $-1 $225 $389 $390 $391 forward $138 $-1 #
coedge $-1 $390 $235 $226 $315 forward $237 $-1 #
edge $-1 $319 -34.728320324958908 $316 -28.478908405949056 $314 $392 forward 7 unknown #
vertex $-1 $315 $393 #
straight-curve $-1 -82.691808206794548 -6.4041249126297455 15.845153860561744 1 0 0 I I #
edge $-1 $233 -10.279878168962272 $319 -0.84279055209907305 $235 $394 forward 7 unknown #
vertex $-1 $318 $395 #
straight-curve $-1 -64.201178014465768 -6.4041249126297455 9.5957419415518928 0.61566146476048833 0 0.78801076186113728 I I #
point $-1 -59.31860244295693 -6.4041249126297455 15.845153860561743 #
point $-1 -64.201178014465768 -15.841212529492944 9.5957419415518928 #
coedge $-1 $236 $396 $397 $398 reversed $237 $-1 #
face $-1 $399 $237 $17 $-1 $400 reversed single #
coedge $-1 $401 $239 $385 $402 forward $138 $-1 #
coedge $-1 $397 $403 $239 $327 reversed $404 $-1 #
edge $-1 $328 -64.201178014465768 $405 -50.151495802633235 $326 $406 forward 7 unknown #
vertex $-1 $240 $407 #
straight-curve $-1 -64.201178014465768 0 15.845153860561743 0 -1 0 I I #
face $-1 $408 $409 $18 $-1 $410 forward single #
loop $-1 $-1 $411 $243 #
plane-surface $-1 0 0 15.845153860561743 0 0 1 1 0 0 forward_v I I I I #
coedge $-1 $412 $413 $411 $414 reversed $244 $-1 #
coedge $-1 $415 $335 $340 $416 reversed $246 $-1 #
coedge $-1 $334 $417 $247 $336 reversed $246 $-1 #
edge $-1 $341 -7.9306174756419328 $418 0 $247 $419 forward 7 unknown #
coedge $-1 $420 $421 $248 $338 forward $422 $-1 #
edge $-1 $342 28.478908405949056 $418 34.728320324958908 $337 $423 forward 7 unknown #
coedge $-1 $424 $249 $421 $425 forward $331 $-1 #
coedge $-1 $249 $411 $334 $416 forward $331 $-1 #
vertex $-1 $416 $426 #
vertex $-1 $425 $427 #
straight-curve $-1 -82.691808206794548 -15.841212529492944 15.845153860561744 -1 0 0 I I #
vertex $-1 $251 $428 #
point $-1 -58.528668887855467 -13.144901781817747 11.464959382930434 #
face $-1 $429 $430 $19 $-1 $431 forward single #
plane-surface $-1 -64.201178014465768 -11.122668721061345 9.5957419415518928 -0.78801076186113728 0 0.61566146476048833 0.61566146476048833 0 0.78801076186113728 forward_v I I I I #
coedge $-1 $432 $433 $434 $435 reversed $256 $-1 #
coedge $-1 $349 $349 $-1 $436 forward $258 $-1 #
edge $-1 $437 0 $437 6.2831853071796004 $259 $438 forward 7 unknown #
vertex $-1 $262 $439 #
ellipse-curve $-1 -61.759890228711349 -13.144901781817747 12.720447901056817 0.78801076186113728 0 -0.61566146476048833 0.61566146476048833 0 0.78801076186113728 1 I I #
vertex $-1 $263 $440 #
point $-1 -58.528668887855467 -9.1004356603049494 11.464959382930434 #
loop $-1 $-1 $441 $255 #
straight-curve $-1 -64.201178014465768 33.568122877676771 0 0 0 -1 I I #
point $-1 -64.201178014465768 -33.568122877676771 -15.845153860561743 #
straight-curve $-1 -64.201178014465768 0 -15.845153860561743 0 1 0 I I #
point $-1 -64.201178014465768 33.568122877676771 -15.845153860561743 #
face $-1 $442 $443 $16 $-1 $444 reversed single #
coedge $-1 $445 $286 $291 $367 forward $122 $-1 #
straight-curve $-1 -43.954926980342208 -12.35233385179243 15.845153860561743 0 -1 0 I I #
coedge $-1 $288 $446 $290 $366 forward $217 $-1 #
straight-curve $-1 -43.954926980342208 -12.35233385179243 -15.845153860561743 0 1 0 I I #
coedge $-1 $291 $290 $447 $448 reversed $198 $-1 #
edge $-1 $449 -64.201178014465768 $293 43.954926980342208 $290 $380 forward 7 unknown #
edge $-1 $292 -43.954926980342208 $450 64.201178014465768 $291 $375 forward 7 unknown #
point $-1 -43.954926980342208 -33.568122877676771 15.845153860561743 #
point $-1 -43.954926980342208 -33.568122877676771 -15.845153860561743 #
coedge $-1 $300 $299 $451 $452 forward $301 $-1 #
coedge $-1 $303 $445 $453 $454 forward $122 $-1 #
coedge $-1 $455 $451 $303 $373 reversed $443 $-1 #
edge $-1 $456 -33.568122877676771 $374 33.568122877676771 $372 $457 forward 7 unknown #
vertex $-1 $373 $458 #
straight-curve $-1 0 -33.568122877676771 15.845153860561743 1 0 0 I I #
coedge $-1 $446 $306 $459 $460 forward $217 $-1 #
coedge $-1 $451 $455 $306 $378 reversed $443 $-1 #
edge $-1 $379 -33.568122877676771 $461 33.568122877676771 $377 $462 forward 7 unknown #
vertex $-1 $378 $463 #
straight-curve $-1 0 -33.568122877676771 -15.845153860561743 -1 0 0 I I #
face $-1 $464 $465 $17 $-1 $466 reversed single #
loop $-1 $-1 $467 $309 #
plane-surface $-1 -43.954926980342208 -24.70466770358486 0 -1 0 0 0 0 1 forward_v I I I I #
coedge $-1 $468 $469 $470 $471 reversed $310 $-1 #
coedge $-1 $472 $312 $325 $402 reversed $223 $-1 #
coedge $-1 $312 $472 $473 $474 reversed $223 $-1 #
coedge $-1 $469 $468 $312 $388 forward $310 $-1 #
edge $-1 $475 -15.845153860561743 $476 15.845153860561743 $387 $477 forward 7 unknown #
coedge $-1 $313 $478 $479 $480 forward $138 $-1 #
coedge $-1 $481 $314 $313 $391 reversed $237 $-1 #
edge $-1 $482 -33.568122877676771 $316 6.4041249126297455 $390 $329 forward 7 unknown #
straight-curve $-1 -64.201178014465768 -6.4041249126297455 44.324062266510801 0 0 1 I I #
point $-1 -64.201178014465768 -6.4041249126297455 15.845153860561743 #
straight-curve $-1 -64.201178014465768 -5.5613343605306724 9.5957419415518999 0 1 0 I I #
point $-1 -64.201178014465768 -6.4041249126297455 9.5957419415518928 #
coedge $-1 $323 $481 $483 $484 reversed $237 $-1 #
coedge $-1 $485 $326 $323 $398 forward $404 $-1 #
edge $-1 $328 -15.845153860561743 $486 15.845153860561743 $323 $487 forward 7 unknown #
face $-1 $488 $489 $17 $-1 $490 reversed single #
plane-surface $-1 -64.201178014465768 0 0 1 0 0 0 0 -1 forward_v I I I I #
coedge $-1 $491 $325 $468 $492 forward $138 $-1 #
edge $-1 $405 -21.215789025884341 $475 -3.4888786777005176 $325 $493 forward 7 unknown #
coedge $-1 $326 $485 $472 $494 forward $404 $-1 #
loop $-1 $-1 $403 $495 #
vertex $-1 $494 $496 #
straight-curve $-1 0 -33.568122877676771 15.845153860561743 1 0 0 I I #
point $-1 -64.201178014465768 -33.568122877676771 15.845153860561743 #
face $-1 $497 $498 $18 $-1 $499 forward single #
loop $-1 $-1 $500 $330 #
plane-surface $-1 -50.151495802633235 -24.70466770358486 0 1 0 0 0 0 -1 forward_v I I I I #
coedge $-1 $340 $501 $333 $414 forward $331 $-1 #
coedge $-1 $413 $333 $502 $503 reversed $244 $-1 #
coedge $-1 $333 $412 $415 $504 forward $244 $-1 #
edge $-1 $505 18.49063019232878 $506 23.373205763837618 $411 $507 forward 7 unknown #
coedge $-1 $417 $334 $413 $504 reversed $246 $-1 #
edge $-1 $506 0.84279055209907305 $341 10.279878168962272 $340 $508 forward 7 unknown #
coedge $-1 $335 $415 $420 $509 reversed $246 $-1 #
vertex $-1 $509 $510 #
straight-curve $-1 -64.201178014465768 -15.841212529492944 9.5957419415518928 -0.61566146476048833 0 -0.78801076186113728 I I #
coedge $-1 $502 $337 $417 $509 forward $422 $-1 #
coedge $-1 $337 $511 $339 $425 reversed $422 $-1 #
loop $-1 $-1 $502 $512 #
straight-curve $-1 -64.201178014465768 -15.841212529492944 44.324062266510801 0 0 -1 I I #
coedge $-1 $513 $339 $514 $515 forward $331 $-1 #
edge $-1 $342 15.841212529492944 $516 33.568122877676771 $421 $517 forward 7 unknown #
point $-1 -59.31860244295693 -15.841212529492944 15.845153860561743 #
point $-1 -64.201178014465768 -15.841212529492944 15.845153860561743 #
point $-1 -58.356319590754822 -13.144901781817747 10.061287156308808 #
face $-1 $518 $519 $19 $-1 $520 forward single #
loop $-1 $-1 $521 $346 #
plane-surface $-1 -165.3836164135891 -6.4041249126297455 88.648124533021601 0 -1 0 0.78801076186113728 0 -0.61566146476048833 forward_v I I I I #
coedge $-1 $433 $348 $522 $523 forward $256 $-1 #
coedge $-1 $348 $432 $524 $525 reversed $256 $-1 #
coedge $-1 $526 $527 $348 $435 forward $519 $-1 #
edge $-1 $528 -23.373205763837618 $529 -18.49063019232878 $434 $530 forward 7 unknown #
edge $-1 $531 1 $531 0 $349 $-1 forward 7 unknown #
vertex $-1 $350 $532 #
ellipse-curve $-1 -59.144330352615953 -13.144901781817747 10.676948621069297 -0.78801076186113728 0 0.61566146476048833 0.61566146476048833 0 0.78801076186113728 1 I I #
point $-1 -61.144228763950849 -13.144901781817747 13.508458662917946 #
point $-1 -58.356319590754822 -9.1004356603049494 10.061287156308808 #
coedge $-1 $533 $522 $527 $534 reversed $355 $-1 #
face $-1 $535 $536 $16 $-1 $537 reversed single #
loop $-1 $-1 $455 $360 #
plane-surface $-1 -64.201178014465768 0 0 1 0 0 0 0 -1 forward_v I I I I #
coedge $-1 $371 $361 $538 $539 forward $122 $-1 #
coedge $-1 $363 $376 $540 $541 forward $217 $-1 #
coedge $-1 $540 $538 $365 $448 forward $542 $-1 #
edge $-1 $450 -15.845153860561743 $449 15.845153860561743 $447 $543 forward 7 unknown #
vertex $-1 $448 $544 #
vertex $-1 $539 $545 #
coedge $-1 $372 $377 $370 $452 reversed $443 $-1 #
edge $-1 $374 -15.845153860561743 $379 15.845153860561743 $451 $546 forward 7 unknown #
coedge $-1 $547 $548 $371 $454 reversed $536 $-1 #
edge $-1 $549 -64.201178014465768 $456 64.201178014465768 $453 $550 forward 7 unknown #
coedge $-1 $377 $372 $548 $551 forward $443 $-1 #
vertex $-1 $454 $552 #
straight-curve $-1 -64.201178014465768 0 15.845153860561743 0 -1 0 I I #
point $-1 -64.201178014465768 -33.568122877676771 15.845153860561743 #
coedge $-1 $548 $547 $376 $460 reversed $536 $-1 #
edge $-1 $461 -64.201178014465768 $553 64.201178014465768 $459 $554 forward 7 unknown #
vertex $-1 $460 $555 #
straight-curve $-1 -64.201178014465768 0 -15.845153860561743 0 1 0 I I #
point $-1 -64.201178014465768 -33.568122877676771 -15.845153860561743 #
face $-1 $495 $556 $17 $-1 $557 reversed single #
loop $-1 $-1 $558 $381 #
plane-surface $-1 0 -33.568122877676771 0 0 1 0 0 0 1 forward_v I I I I #
coedge $-1 $559 $560 $558 $561 reversed $382 $-1 #
coedge $-1 $387 $384 $401 $492 reversed $310 $-1 #
coedge $-1 $384 $387 $562 $563 reversed $310 $-1 #
coedge $-1 $560 $559 $384 $471 forward $382 $-1 #
edge $-1 $564 -15.845153860561743 $565 15.845153860561743 $470 $566 forward 7 unknown #
coedge $-1 $386 $385 $403 $494 reversed $223 $-1 #
coedge $-1 $567 $562 $386 $474 forward $556 $-1 #
edge $-1 $476 3.4888786777005176 $568 21.215789025884341 $473 $569 forward 7 unknown #
vertex $-1 $402 $570 #
vertex $-1 $474 $571 #
straight-curve $-1 -50.151495802633235 -15.841212529492948 0 0 0 -1 I I #
coedge $-1 $389 $572 $573 $574 forward $138 $-1 #
coedge $-1 $575 $576 $389 $480 reversed $489 $-1 #
edge $-1 $577 -64.201178014465768 $482 64.201178014465768 $479 $578 forward 7 unknown #
coedge $-1 $396 $390 $576 $579 forward $237 $-1 #
vertex $-1 $480 $580 #
coedge $-1 $581 $567 $396 $484 forward $556 $-1 #
edge $-1 $486 -33.568122877676771 $582 33.568122877676771 $396 $583 forward 7 unknown #
coedge $-1 $403 $397 $567 $584 reversed $404 $-1 #
vertex $-1 $484 $585 #
straight-curve $-1 -64.201178014465768 -33.568122877676771 0 0 0 -1 I I #
face $-1 $-1 $586 $17 $-1 $587 reversed single #
loop $-1 $-1 $575 $399 #
plane-surface $-1 0 33.568122877676771 0 0 -1 0 0 0 -1 forward_v I I I I #
coedge $-1 $572 $401 $559 $588 forward $138 $-1 #
edge $-1 $475 -26.624890106889374 $564 -20.428321284598347 $401 $589 forward 7 unknown #
straight-curve $-1 -50.151495802633235 -12.35233385179243 15.845153860561743 0 1 0 I I #
edge $-1 $568 -15.845153860561743 $405 15.845153860561743 $403 $590 forward 7 unknown #
face $-1 $324 $404 $17 $-1 $466 reversed single #
point $-1 -50.151495802633235 -33.568122877676771 15.845153860561743 #
face $-1 $591 $592 $18 $-1 $593 forward single #
loop $-1 $-1 $594 $408 #
plane-surface $-1 -47.053211391487721 -15.841212529492948 0 0 -1 0 0 0 -1 forward_v I I I I #
coedge $-1 $595 $596 $597 $598 reversed $409 $-1 #
coedge $-1 $411 $599 $600 $601 forward $331 $-1 #
coedge $-1 $600 $420 $412 $503 forward $422 $-1 #
edge $-1 $602 -34.728320324958908 $505 -28.478908405949056 $502 $603 forward 7 unknown #
edge $-1 $602 0 $506 7.9306174756419328 $413 $604 forward 7 unknown #
vertex $-1 $503 $605 #
vertex $-1 $416 $606 #
straight-curve $-1 -82.691808206794548 -6.4041249126297455 15.845153860561744 1 0 0 I I #
straight-curve $-1 -59.318602442956923 -5.5613343605306724 15.845153860561744 0 -1 0 I I #
edge $-1 $418 -10.279878168962272 $602 -0.84279055209907305 $420 $607 forward 7 unknown #
point $-1 -64.201178014465768 -15.841212529492944 9.5957419415518928 #
coedge $-1 $421 $608 $609 $610 reversed $422 $-1 #
face $-1 $611 $422 $18 $-1 $612 reversed single #
coedge $-1 $613 $424 $595 $614 forward $331 $-1 #
coedge $-1 $609 $615 $424 $515 reversed $616 $-1 #
edge $-1 $516 -64.201178014465768 $617 -50.151495802633235 $514 $618 forward 7 unknown #
vertex $-1 $425 $619 #
straight-curve $-1 -64.201178014465768 0 15.845153860561743 0 -1 0 I I #
face $-1 $620 $621 $19 $-1 $622 forward single #
loop $-1 $-1 $623 $429 #
plane-surface $-1 0 0 15.845153860561743 0 0 1 1 0 0 forward_v I I I I #
coedge $-1 $624 $625 $623 $626 reversed $430 $-1 #
coedge $-1 $441 $627 $432 $523 reversed $355 $-1 #
edge $-1 $528 -7.9306174756419328 $628 0 $432 $629 forward 7 unknown #
coedge $-1 $630 $631 $433 $525 forward $632 $-1 #
edge $-1 $529 28.478908405949056 $628 34.728320324958908 $524 $633 forward 7 unknown #
coedge $-1 $634 $434 $631 $635 forward $519 $-1 #
coedge $-1 $434 $623 $441 $534 forward $519 $-1 #
vertex $-1 $534 $636 #
vertex $-1 $635 $637 #
straight-curve $-1 -82.691808206794548 -15.841212529492944 15.845153860561744 -1 0 0 I I #
vertex $-1 $436 $638 #
point $-1 -58.528668887855467 -13.144901781817747 11.464959382930434 #
coedge $-1 $627 $441 $625 $639 reversed $355 $-1 #
edge $-1 $640 0.84279055209907305 $528 10.279878168962272 $527 $641 forward 7 unknown #
face $-1 $-1 $542 $16 $-1 $642 reversed single #
loop $-1 $-1 $547 $442 #
plane-surface $-1 0 33.568122877676771 0 0 -1 0 0 0 -1 forward_v I I I I #
coedge $-1 $447 $643 $445 $539 reversed $542 $-1 #
edge $-1 $450 -33.568122877676771 $549 33.568122877676771 $538 $644 forward 7 unknown #
coedge $-1 $643 $447 $446 $541 reversed $542 $-1 #
edge $-1 $553 -33.568122877676771 $449 33.568122877676771 $540 $645 forward 7 unknown #
loop $-1 $-1 $447 $535 #
straight-curve $-1 64.201178014465768 -33.568122877676771 0 0 0 -1 I I #
point $-1 64.201178014465768 -33.568122877676771 -15.845153860561743 #
point $-1 64.201178014465768 -33.568122877676771 15.845153860561743 #
straight-curve $-1 -64.201178014465768 -33.568122877676771 0 0 0 -1 I I #
coedge $-1 $459 $453 $643 $646 forward $536 $-1 #
coedge $-1 $453 $459 $455 $551 reversed $536 $-1 #
vertex $-1 $539 $647 #
straight-curve $-1 0 33.568122877676771 15.845153860561743 -1 0 0 I I #
edge $-1 $456 -15.845153860561743 $461 15.845153860561743 $548 $648 forward 7 unknown #
point $-1 -64.201178014465768 33.568122877676771 15.845153860561743 #
vertex $-1 $541 $649 #
straight-curve $-1 0 33.568122877676771 -15.845153860561743 1 0 0 I I #
point $-1 -64.201178014465768 33.568122877676771 -15.845153860561743 #
loop $-1 $-1 $473 $464 #
plane-surface $-1 0 0 -15.845153860561743 0 0 1 1 0 0 forward_v I I I I #
coedge $-1 $650 $651 $467 $561 forward $465 $-1 #
coedge $-1 $470 $467 $491 $588 reversed $382 $-1 #
coedge $-1 $467 $470 $652 $653 reversed $382 $-1 #
edge $-1 $654 -15.845153860561743 $655 15.845153860561743 $558 $656 forward 7 unknown #
coedge $-1 $473 $652 $469 $563 forward $556 $-1 #
edge $-1 $565 20.428321284598347 $476 26.624890106889374 $562 $657 forward 7 unknown #
vertex $-1 $492 $658 #
vertex $-1 $563 $659 #
straight-curve $-1 -43.954926980342208 -15.841212529492948 0 0 0 -1 I I #
coedge $-1 $483 $473 $485 $584 forward $556 $-1 #
vertex $-1 $584 $660 #
straight-curve $-1 -50.151495802633235 -12.35233385179243 -15.845153860561743 0 -1 0 I I #
point $-1 -50.151495802633235 -15.841212529492948 15.845153860561743 #
point $-1 -50.151495802633235 -15.841212529492948 -15.845153860561743 #
coedge $-1 $478 $491 $651 $661 forward $138 $-1 #
coedge $-1 $662 $663 $478 $574 reversed $586 $-1 #
edge $-1 $664 -33.568122877676771 $577 33.568122877676771 $573 $665 forward 7 unknown #
coedge $-1 $666 $479 $663 $667 forward $489 $-1 #
coedge $-1 $479 $666 $481 $579 reversed $489 $-1 #
vertex $-1 $574 $668 #
straight-curve $-1 0 33.568122877676771 15.845153860561743 -1 0 0 I I #
edge $-1 $482 -15.845153860561743 $582 15.845153860561743 $576 $669 forward 7 unknown #
point $-1 -64.201178014465768 33.568122877676771 15.845153860561743 #
coedge $-1 $670 $483 $666 $671 forward $556 $-1 #
vertex $-1 $671 $672 #
straight-curve $-1 -64.201178014465768 0 -15.845153860561743 0 1 0 I I #
edge $-1 $568 50.151495802633235 $486 64.201178014465768 $485 $673 forward 7 unknown #
point $-1 -64.201178014465768 -33.568122877676771 -15.845153860561743 #
loop $-1 $-1 $662 $488 #
plane-surface $-1 64.201178014465768 0 0 -1 0 0 0 0 1 forward_v I I I I #
edge $-1 $564 3.4888786777005176 $654 21.215789025884341 $491 $674 forward 7 unknown #
straight-curve $-1 -23.526605695743861 -15.841212529492948 15.845153860561743 1 0 0 I I #
straight-curve $-1 -50.151495802633235 -33.568122877676771 0 0 0 1 I I #
face $-1 $675 $676 $18 $-1 $677 reversed single #
loop $-1 $-1 $678 $497 #
plane-surface $-1 -43.954926980342208 -24.70466770358486 0 -1 0 0 0 0 1 forward_v I I I I #
coedge $-1 $679 $680 $681 $682 reversed $498 $-1 #
coedge $-1 $683 $500 $513 $614 reversed $409 $-1 #
coedge $-1 $500 $683 $684 $685 reversed $409 $-1 #
coedge $-1 $680 $679 $500 $598 forward $498 $-1 #
edge $-1 $686 -15.845153860561743 $687 15.845153860561743 $597 $688 forward 7 unknown #
coedge $-1 $501 $689 $690 $691 forward $331 $-1 #
coedge $-1 $692 $502 $501 $601 reversed $422 $-1 #
edge $-1 $693 -33.568122877676771 $505 6.4041249126297455 $600 $517 forward 7 unknown #
vertex $-1 $509 $694 #
straight-curve $-1 -64.201178014465768 -6.4041249126297455 44.324062266510801 0 0 1 I I #
straight-curve $-1 -64.201178014465768 -6.4041249126297455 9.5957419415518928 0.61566146476048833 0 0.78801076186113728 I I #
point $-1 -64.201178014465768 -6.4041249126297455 15.845153860561743 #
point $-1 -59.31860244295693 -6.4041249126297455 15.845153860561743 #
straight-curve $-1 -64.201178014465768 -5.5613343605306724 9.5957419415518999 0 1 0 I I #
coedge $-1 $511 $692 $695 $696 reversed $422 $-1 #
coedge $-1 $697 $514 $511 $610 forward $616 $-1 #
edge $-1 $516 -15.845153860561743 $698 15.845153860561743 $511 $699 forward 7 unknown #
face $-1 $700 $701 $18 $-1 $702 reversed single #
plane-surface $-1 -64.201178014465768 0 0 1 0 0 0 0 -1 forward_v I I I I #
coedge $-1 $703 $513 $679 $704 forward $331 $-1 #
edge $-1 $617 -21.215789025884341 $686 -3.4888786777005176 $513 $705 forward 7 unknown #
coedge $-1 $514 $697 $683 $706 forward $616 $-1 #
loop $-1 $-1 $615 $707 #
vertex $-1 $706 $708 #
straight-curve $-1 0 -33.568122877676771 15.845153860561743 1 0 0 I I #
point $-1 -64.201178014465768 -33.568122877676771 15.845153860561743 #
face $-1 $709 $710 $19 $-1 $711 forward single #
loop $-1 $-1 $712 $518 #
plane-surface $-1 -50.151495802633235 -24.70466770358486 0 1 0 0 0 0 -1 forward_v I I I I #
coedge $-1 $527 $713 $521 $626 forward $519 $-1 #
coedge $-1 $625 $521 $714 $715 reversed $430 $-1 #
coedge $-1 $521 $624 $533 $639 forward $430 $-1 #
edge $-1 $716 18.49063019232878 $640 23.373205763837618 $623 $717 forward 7 unknown #
coedge $-1 $522 $533 $630 $718 reversed $355 $-1 #
vertex $-1 $718 $719 #
straight-curve $-1 -64.201178014465768 -15.841212529492944 9.5957419415518928 -0.61566146476048833 0 -0.78801076186113728 I I #
coedge $-1 $714 $524 $627 $718 forward $632 $-1 #
coedge $-1 $524 $720 $526 $635 reversed $632 $-1 #
loop $-1 $-1 $714 $721 #
straight-curve $-1 -64.201178014465768 -15.841212529492944 44.324062266510801 0 0 -1 I I #
coedge $-1 $722 $526 $723 $724 forward $519 $-1 #
edge $-1 $529 15.841212529492944 $725 33.568122877676771 $631 $726 forward 7 unknown #
point $-1 -59.31860244295693 -15.841212529492944 15.845153860561743 #
point $-1 -64.201178014465768 -15.841212529492944 15.845153860561743 #
point $-1 -58.356319590754822 -13.144901781817747 10.061287156308808 #
edge $-1 $727 0 $640 7.9306174756419328 $625 $728 forward 7 unknown #
vertex $-1 $534 $729 #
straight-curve $-1 -59.318602442956923 -5.5613343605306724 15.845153860561744 0 -1 0 I I #
plane-surface $-1 64.201178014465768 0 0 -1 0 0 0 0 1 forward_v I I I I #
coedge $-1 $538 $540 $547 $646 reversed $542 $-1 #
straight-curve $-1 64.201178014465768 0 15.845153860561743 0 1 0 I I #
straight-curve $-1 64.201178014465768 0 -15.845153860561743 0 -1 0 I I #
edge $-1 $549 -15.845153860561743 $553 15.845153860561743 $643 $730 forward 7 unknown #
point $-1 64.201178014465768 33.568122877676771 15.845153860561743 #
straight-curve $-1 -64.201178014465768 33.568122877676771 0 0 0 -1 I I #
point $-1 64.201178014465768 33.568122877676771 -15.845153860561743 #
coedge $-1 $731 $558 $732 $733 reversed $465 $-1 #
coedge $-1 $558 $731 $572 $661 reversed $465 $-1 #
coedge $-1 $562 $732 $560 $653 forward $556 $-1 #
edge $-1 $655 -21.215789025884341 $565 -3.4888786777005176 $652 $734 forward 7 unknown #
vertex $-1 $661 $735 #
vertex $-1 $561 $736 #
straight-curve $-1 -43.954926980342208 -33.568122877676771 0 0 0 -1 I I #
straight-curve $-1 -23.526605695743861 -15.841212529492948 -15.845153860561743 -1 0 0 I I #
point $-1 -43.954926980342208 -15.841212529492948 15.845153860561743 #
point $-1 -43.954926980342208 -15.841212529492948 -15.845153860561743 #
point $-1 -50.151495802633235 -33.568122877676771 -15.845153860561743 #
edge $-1 $654 -43.954926980342208 $664 64.201178014465768 $651 $406 forward 7 unknown #
coedge $-1 $737 $573 $731 $738 forward $586 $-1 #
coedge $-1 $573 $737 $575 $667 reversed $586 $-1 #
vertex $-1 $574 $739 #
straight-curve $-1 64.201178014465768 0 15.845153860561743 0 1 0 I I #
coedge $-1 $576 $575 $581 $671 reversed $489 $-1 #
edge $-1 $577 -15.845153860561743 $740 15.845153860561743 $663 $741 forward 7 unknown #
point $-1 64.201178014465768 33.568122877676771 15.845153860561743 #
straight-curve $-1 -64.201178014465768 33.568122877676771 0 0 0 -1 I I #
coedge $-1 $732 $581 $737 $742 forward $556 $-1 #
edge $-1 $582 -64.201178014465768 $740 64.201178014465768 $666 $743 forward 7 unknown #
point $-1 -64.201178014465768 33.568122877676771 -15.845153860561743 #
straight-curve $-1 0 -33.568122877676771 -15.845153860561743 -1 0 0 I I #
straight-curve $-1 -43.954926980342208 -12.35233385179243 15.845153860561743 0 -1 0 I I #
face $-1 $707 $744 $18 $-1 $745 reversed single #
loop $-1 $-1 $746 $591 #
plane-surface $-1 0 -33.568122877676771 0 0 1 0 0 0 1 forward_v I I I I #
coedge $-1 $747 $748 $746 $749 reversed $592 $-1 #
coedge $-1 $597 $594 $613 $704 reversed $498 $-1 #
coedge $-1 $594 $597 $750 $751 reversed $498 $-1 #
coedge $-1 $748 $747 $594 $682 forward $592 $-1 #
edge $-1 $752 -15.845153860561743 $753 15.845153860561743 $681 $754 forward 7 unknown #
coedge $-1 $596 $595 $615 $706 reversed $409 $-1 #
coedge $-1 $755 $750 $596 $685 forward $744 $-1 #
edge $-1 $687 3.4888786777005176 $756 21.215789025884341 $684 $757 forward 7 unknown #
vertex $-1 $614 $758 #
vertex $-1 $685 $759 #
straight-curve $-1 -50.151495802633235 -15.841212529492948 0 0 0 -1 I I #
coedge $-1 $599 $760 $761 $762 forward $331 $-1 #
coedge $-1 $763 $764 $599 $691 reversed $701 $-1 #
edge $-1 $765 -64.201178014465768 $693 64.201178014465768 $690 $766 forward 7 unknown #
coedge $-1 $608 $600 $764 $767 forward $422 $-1 #
vertex $-1 $691 $768 #
point $-1 -64.201178014465768 -6.4041249126297455 9.5957419415518928 #
coedge $-1 $769 $755 $608 $696 forward $744 $-1 #
edge $-1 $698 -33.568122877676771 $770 33.568122877676771 $608 $771 forward 7 unknown #
coedge $-1 $615 $609 $755 $772 reversed $616 $-1 #
vertex $-1 $696 $773 #
straight-curve $-1 -64.201178014465768 -33.568122877676771 0 0 0 -1 I I #
face $-1 $-1 $774 $18 $-1 $775 reversed single #
loop $-1 $-1 $763 $611 #
plane-surface $-1 0 33.568122877676771 0 0 -1 0 0 0 -1 forward_v I I I I #
coedge $-1 $760 $613 $747 $776 forward $331 $-1 #
edge $-1 $686 -26.624890106889374 $752 -20.428321284598347 $613 $777 forward 7 unknown #
straight-curve $-1 -50.151495802633235 -12.35233385179243 15.845153860561743 0 1 0 I I #
edge $-1 $756 -15.845153860561743 $617 15.845153860561743 $615 $778 forward 7 unknown #
face $-1 $512 $616 $18 $-1 $677 reversed single #
point $-1 -50.151495802633235 -33.568122877676771 15.845153860561743 #
face $-1 $779 $780 $19 $-1 $781 forward single #
loop $-1 $-1 $782 $620 #
plane-surface $-1 -47.053211391487721 -15.841212529492948 0 0 -1 0 0 0 -1 forward_v I I I I #
coedge $-1 $783 $784 $785 $786 reversed $621 $-1 #
coedge $-1 $623 $787 $788 $789 forward $519 $-1 #
coedge $-1 $788 $630 $624 $715 forward $632 $-1 #
edge $-1 $727 -34.728320324958908 $716 -28.478908405949056 $714 $790 forward 7 unknown #
vertex $-1 $715 $791 #
straight-curve $-1 -82.691808206794548 -6.4041249126297455 15.845153860561744 1 0 0 I I #
edge $-1 $628 -10.279878168962272 $727 -0.84279055209907305 $630 $792 forward 7 unknown #
point $-1 -64.201178014465768 -15.841212529492944 9.5957419415518928 #
coedge $-1 $631 $793 $794 $795 reversed $632 $-1 #
face $-1 $796 $632 $19 $-1 $797 reversed single #
coedge $-1 $798 $634 $783 $799 forward $519 $-1 #
coedge $-1 $794 $800 $634 $724 reversed $801 $-1 #
edge $-1 $725 -64.201178014465768 $802 -50.151495802633235 $723 $803 forward 7 unknown #
vertex $-1 $635 $804 #
straight-curve $-1 -64.201178014465768 0 15.845153860561743 0 -1 0 I I #
vertex $-1 $718 $805 #
straight-curve $-1 -64.201178014465768 -6.4041249126297455 9.5957419415518928 0.61566146476048833 0 0.78801076186113728 I I #
point $-1 -59.31860244295693 -6.4041249126297455 15.845153860561743 #
straight-curve $-1 64.201178014465768 33.568122877676771 0 0 0 -1 I I #
coedge $-1 $651 $650 $662 $738 reversed $465 $-1 #
coedge $-1 $652 $670 $650 $733 forward $556 $-1 #
edge $-1 $806 -64.201178014465768 $655 43.954926980342208 $650 $673 forward 7 unknown #
straight-curve $-1 -43.954926980342208 -12.35233385179243 -15.845153860561743 0 1 0 I I #
point $-1 -43.954926980342208 -33.568122877676771 15.845153860561743 #
point $-1 -43.954926980342208 -33.568122877676771 -15.845153860561743 #
coedge $-1 $663 $662 $670 $742 reversed $586 $-1 #
edge $-1 $664 -15.845153860561743 $806 15.845153860561743 $662 $807 forward 7 unknown #
point $-1 64.201178014465768 -33.568122877676771 15.845153860561743 #
vertex $-1 $742 $808 #
straight-curve $-1 64.201178014465768 33.568122877676771 0 0 0 -1 I I #
edge $-1 $740 -33.568122877676771 $806 33.568122877676771 $737 $809 forward 7 unknown #
straight-curve $-1 0 33.568122877676771 -15.845153860561743 1 0 0 I I #
loop $-1 $-1 $684 $675 #
plane-surface $-1 0 0 -15.845153860561743 0 0 1 1 0 0 forward_v I I I I #
coedge $-1 $810 $811 $678 $749 forward $676 $-1 #
coedge $-1 $681 $678 $703 $776 reversed $592 $-1 #
coedge $-1 $678 $681 $812 $813 reversed $592 $-1 #
edge $-1 $814 -15.845153860561743 $815 15.845153860561743 $746 $816 forward 7 unknown #
coedge $-1 $684 $812 $680 $751 forward $744 $-1 #
edge $-1 $753 20.428321284598347 $687 26.624890106889374 $750 $817 forward 7 unknown #
vertex $-1 $704 $818 #
vertex $-1 $751 $819 #
straight-curve $-1 -43.954926980342208 -15.841212529492948 0 0 0 -1 I I #
coedge $-1 $695 $684 $697 $772 forward $744 $-1 #
vertex $-1 $772 $820 #
straight-curve $-1 -50.151495802633235 -12.35233385179243 -15.845153860561743 0 -1 0 I I #
point $-1 -50.151495802633235 -15.841212529492948 15.845153860561743 #
point $-1 -50.151495802633235 -15.841212529492948 -15.845153860561743 #
coedge $-1 $689 $703 $811 $821 forward $331 $-1 #
coedge $-1 $822 $823 $689 $762 reversed $774 $-1 #
edge $-1 $824 -33.568122877676771 $765 33.568122877676771 $761 $825 forward 7 unknown #
coedge $-1 $826 $690 $823 $827 forward $701 $-1 #
coedge $-1 $690 $826 $692 $767 reversed $701 $-1 #
vertex $-1 $762 $828 #
straight-curve $-1 0 33.568122877676771 15.845153860561743 -1 0 0 I I #
edge $-1 $693 -15.845153860561743 $770 15.845153860561743 $764 $829 forward 7 unknown #
point $-1 -64.201178014465768 33.568122877676771 15.845153860561743 #
coedge $-1 $830 $695 $826 $831 forward $744 $-1 #
vertex $-1 $831 $832 #
straight-curve $-1 -64.201178014465768 0 -15.845153860561743 0 1 0 I I #
edge $-1 $756 50.151495802633235 $698 64.201178014465768 $697 $833 forward 7 unknown #
point $-1 -64.201178014465768 -33.568122877676771 -15.845153860561743 #
loop $-1 $-1 $822 $700 #
plane-surface $-1 64.201178014465768 0 0 -1 0 0 0 0 1 forward_v I I I I #
edge $-1 $752 3.4888786777005176 $814 21.215789025884341 $703 $834 forward 7 unknown #
straight-curve $-1 -23.526605695743861 -15.841212529492948 15.845153860561743 1 0 0 I I #
straight-curve $-1 -50.151495802633235 -33.568122877676771 0 0 0 1 I I #
face $-1 $835 $836 $19 $-1 $837 reversed single #
loop $-1 $-1 $838 $709 #
plane-surface $-1 -43.954926980342208 -24.70466770358486 0 -1 0 0 0 0 1 forward_v I I I I #
coedge $-1 $839 $840 $841 $842 reversed $710 $-1 #
coedge $-1 $843 $712 $722 $799 reversed $621 $-1 #
coedge $-1 $712 $843 $844 $845 reversed $621 $-1 #
coedge $-1 $840 $839 $712 $786 forward $710 $-1 #
edge $-1 $846 -15.845153860561743 $847 15.845153860561743 $785 $848 forward 7 unknown #
coedge $-1 $713 $849 $850 $851 forward $519 $-1 #
coedge $-1 $852 $714 $713 $789 reversed $632 $-1 #
edge $-1 $853 -33.568122877676771 $716 6.4041249126297455 $788 $726 forward 7 unknown #
straight-curve $-1 -64.201178014465768 -6.4041249126297455 44.324062266510801 0 0 1 I I #
point $-1 -64.201178014465768 -6.4041249126297455 15.845153860561743 #
straight-curve $-1 -64.201178014465768 -5.5613343605306724 9.5957419415518999 0 1 0 I I #
coedge $-1 $720 $852 $854 $855 reversed $632 $-1 #
coedge $-1 $856 $723 $720 $795 forward $801 $-1 #
edge $-1 $725 -15.845153860561743 $857 15.845153860561743 $720 $858 forward 7 unknown #
face $-1 $859 $860 $19 $-1 $861 reversed single #
plane-surface $-1 -64.201178014465768 0 0 1 0 0 0 0 -1 forward_v I I I I #
coedge $-1 $862 $722 $839 $863 forward $519 $-1 #
edge $-1 $802 -21.215789025884341 $846 -3.4888786777005176 $722 $864 forward 7 unknown #
coedge $-1 $723 $856 $843 $865 forward $801 $-1 #
loop $-1 $-1 $800 $866 #
vertex $-1 $865 $867 #
straight-curve $-1 0 -33.568122877676771 15.845153860561743 1 0 0 I I #
point $-1 -64.201178014465768 -33.568122877676771 15.845153860561743 #
point $-1 -64.201178014465768 -6.4041249126297455 9.5957419415518928 #
vertex $-1 $738 $868 #
straight-curve $-1 64.201178014465768 -33.568122877676771 0 0 0 -1 I I #
point $-1 64.201178014465768 33.568122877676771 -15.845153860561743 #
straight-curve $-1 64.201178014465768 0 -15.845153860561743 0 -1 0 I I #
coedge $-1 $869 $746 $870 $871 reversed $676 $-1 #
coedge $-1 $746 $869 $760 $821 reversed $676 $-1 #
coedge $-1 $750 $870 $748 $813 forward $744 $-1 #
edge $-1 $815 -21.215789025884341 $753 -3.4888786777005176 $812 $872 forward 7 unknown #
vertex $-1 $821 $873 #
vertex $-1 $749 $874 #
straight-curve $-1 -43.954926980342208 -33.568122877676771 0 0 0 -1 I I #
straight-curve $-1 -23.526605695743861 -15.841212529492948 -15.845153860561743 -1 0 0 I I #
point $-1 -43.954926980342208 -15.841212529492948 15.845153860561743 #
point $-1 -43.954926980342208 -15.841212529492948 -15.845153860561743 #
point $-1 -50.151495802633235 -33.568122877676771 -15.845153860561743 #
edge $-1 $814 -43.954926980342208 $824 64.201178014465768 $811 $618 forward 7 unknown #
coedge $-1 $875 $761 $869 $876 forward $774 $-1 #
coedge $-1 $761 $875 $763 $827 reversed $774 $-1 #
vertex $-1 $762 $877 #
straight-curve $-1 64.201178014465768 0 15.845153860561743 0 1 0 I I #
coedge $-1 $764 $763 $769 $831 reversed $701 $-1 #
edge $-1 $765 -15.845153860561743 $878 15.845153860561743 $823 $879 forward 7 unknown #
point $-1 64.201178014465768 33.568122877676771 15.845153860561743 #
straight-curve $-1 -64.201178014465768 33.568122877676771 0 0 0 -1 I I #
coedge $-1 $870 $769 $875 $880 forward $744 $-1 #
edge $-1 $770 -64.201178014465768 $878 64.201178014465768 $826 $881 forward 7 unknown #
point $-1 -64.201178014465768 33.568122877676771 -15.845153860561743 #
straight-curve $-1 0 -33.568122877676771 -15.845153860561743 -1 0 0 I I #
straight-curve $-1 -43.954926980342208 -12.35233385179243 15.845153860561743 0 -1 0 I I #
face $-1 $866 $882 $19 $-1 $883 reversed single #
loop $-1 $-1 $884 $779 #
plane-surface $-1 0 -33.568122877676771 0 0 1 0 0 0 1 forward_v I I I I #
coedge $-1 $885 $886 $884 $887 reversed $780 $-1 #
coedge $-1 $785 $782 $798 $863 reversed $710 $-1 #
coedge $-1 $782 $785 $888 $889 reversed $710 $-1 #
coedge $-1 $886 $885 $782 $842 forward $780 $-1 #
edge $-1 $890 -15.845153860561743 $891 15.845153860561743 $841 $892 forward 7 unknown #
coedge $-1 $784 $783 $800 $865 reversed $621 $-1 #
coedge $-1 $893 $888 $784 $845 forward $882 $-1 #
edge $-1 $847 3.4888786777005176 $894 21.215789025884341 $844 $895 forward 7 unknown #
vertex $-1 $799 $896 #
vertex $-1 $845 $897 #
straight-curve $-1 -50.151495802633235 -15.841212529492948 0 0 0 -1 I I #
coedge $-1 $787 $898 $899 $900 forward $519 $-1 #
coedge $-1 $901 $902 $787 $851 reversed $860 $-1 #
edge $-1 $903 -64.201178014465768 $853 64.201178014465768 $850 $904 forward 7 unknown #
coedge $-1 $793 $788 $902 $905 forward $632 $-1 #
vertex $-1 $851 $906 #
coedge $-1 $907 $893 $793 $855 forward $882 $-1 #
edge $-1 $857 -33.568122877676771 $908 33.568122877676771 $793 $909 forward 7 unknown #
coedge $-1 $800 $794 $893 $910 reversed $801 $-1 #
vertex $-1 $855 $911 #
straight-curve $-1 -64.201178014465768 -33.568122877676771 0 0 0 -1 I I #
face $-1 $-1 $912 $19 $-1 $913 reversed single #
loop $-1 $-1 $901 $796 #
plane-surface $-1 0 33.568122877676771 0 0 -1 0 0 0 -1 forward_v I I I I #
coedge $-1 $898 $798 $885 $914 forward $519 $-1 #
edge $-1 $846 -26.624890106889374 $890 -20.428321284598347 $798 $915 forward 7 unknown #
straight-curve $-1 -50.151495802633235 -12.35233385179243 15.845153860561743 0 1 0 I I #
edge $-1 $894 -15.845153860561743 $802 15.845153860561743 $800 $916 forward 7 unknown #
face $-1 $721 $801 $19 $-1 $837 reversed single #
point $-1 -50.151495802633235 -33.568122877676771 15.845153860561743 #
point $-1 64.201178014465768 -33.568122877676771 -15.845153860561743 #
coedge $-1 $811 $810 $822 $876 reversed $676 $-1 #
coedge $-1 $812 $830 $810 $871 forward $744 $-1 #
edge $-1 $917 -64.201178014465768 $815 43.954926980342208 $810 $833 forward 7 unknown #
straight-curve $-1 -43.954926980342208 -12.35233385179243 -15.845153860561743 0 1 0 I I #
point $-1 -43.954926980342208 -33.568122877676771 15.845153860561743 #
point $-1 -43.954926980342208 -33.568122877676771 -15.845153860561743 #
coedge $-1 $823 $822 $830 $880 reversed $774 $-1 #
edge $-1 $824 -15.845153860561743 $917 15.845153860561743 $822 $918 forward 7 unknown #
point $-1 64.201178014465768 -33.568122877676771 15.845153860561743 #
vertex $-1 $880 $919 #
straight-curve $-1 64.201178014465768 33.568122877676771 0 0 0 -1 I I #
edge $-1 $878 -33.568122877676771 $917 33.568122877676771 $875 $920 forward 7 unknown #
straight-curve $-1 0 33.568122877676771 -15.845153860561743 1 0 0 I I #
loop $-1 $-1 $844 $835 #
plane-surface $-1 0 0 -15.845153860561743 0 0 1 1 0 0 forward_v I I I I #
coedge $-1 $921 $922 $838 $887 forward $836 $-1 #
coedge $-1 $841 $838 $862 $914 reversed $780 $-1 #
coedge $-1 $838 $841 $923 $924 reversed $780 $-1 #
edge $-1 $925 -15.845153860561743 $926 15.845153860561743 $884 $927 forward 7 unknown #
coedge $-1 $844 $923 $840 $889 forward $882 $-1 #
edge $-1 $891 20.428321284598347 $847 26.624890106889374 $888 $928 forward 7 unknown #
vertex $-1 $863 $929 #
vertex $-1 $889 $930 #
straight-curve $-1 -43.954926980342208 -15.841212529492948 0 0 0 -1 I I #
coedge $-1 $854 $844 $856 $910 forward $882 $-1 #
vertex $-1 $910 $931 #
straight-curve $-1 -50.151495802633235 -12.35233385179243 -15.845153860561743 0 -1 0 I I #
point $-1 -50.151495802633235 -15.841212529492948 15.845153860561743 #
point $-1 -50.151495802633235 -15.841212529492948 -15.845153860561743 #
coedge $-1 $849 $862 $922 $932 forward $519 $-1 #
coedge $-1 $933 $934 $849 $900 reversed $912 $-1 #
edge $-1 $935 -33.568122877676771 $903 33.568122877676771 $899 $936 forward 7 unknown #
coedge $-1 $937 $850 $934 $938 forward $860 $-1 #
coedge $-1 $850 $937 $852 $905 reversed $860 $-1 #
vertex $-1 $900 $939 #
straight-curve $-1 0 33.568122877676771 15.845153860561743 -1 0 0 I I #
edge $-1 $853 -15.845153860561743 $908 15.845153860561743 $902 $940 forward 7 unknown #
point $-1 -64.201178014465768 33.568122877676771 15.845153860561743 #
coedge $-1 $941 $854 $937 $942 forward $882 $-1 #
vertex $-1 $942 $943 #
straight-curve $-1 -64.201178014465768 0 -15.845153860561743 0 1 0 I I #
edge $-1 $894 50.151495802633235 $857 64.201178014465768 $856 $944 forward 7 unknown #
point $-1 -64.201178014465768 -33.568122877676771 -15.845153860561743 #
loop $-1 $-1 $933 $859 #
plane-surface $-1 64.201178014465768 0 0 -1 0 0 0 0 1 forward_v I I I I #
edge $-1 $890 3.4888786777005176 $925 21.215789025884341 $862 $945 forward 7 unknown #
straight-curve $-1 -23.526605695743861 -15.841212529492948 15.845153860561743 1 0 0 I I #
straight-curve $-1 -50.151495802633235 -33.568122877676771 0 0 0 1 I I #
vertex $-1 $876 $946 #
straight-curve $-1 64.201178014465768 -33.568122877676771 0 0 0 -1 I I #
point $-1 64.201178014465768 33.568122877676771 -15.845153860561743 #
straight-curve $-1 64.201178014465768 0 -15.845153860561743 0 -1 0 I I #
coedge $-1 $947 $884 $948 $949 reversed $836 $-1 #
coedge $-1 $884 $947 $898 $932 reversed $836 $-1 #
coedge $-1 $888 $948 $886 $924 forward $882 $-1 #
edge $-1 $926 -21.215789025884341 $891 -3.4888786777005176 $923 $950 forward 7 unknown #
vertex $-1 $932 $951 #
vertex $-1 $887 $952 #
straight-curve $-1 -43.954926980342208 -33.568122877676771 0 0 0 -1 I I #
straight-curve $-1 -23.526605695743861 -15.841212529492948 -15.845153860561743 -1 0 0 I I #
point $-1 -43.954926980342208 -15.841212529492948 15.845153860561743 #
point $-1 -43.954926980342208 -15.841212529492948 -15.845153860561743 #
point $-1 -50.151495802633235 -33.568122877676771 -15.845153860561743 #
edge $-1 $925 -43.954926980342208 $935 64.201178014465768 $922 $803 forward 7 unknown #
coedge $-1 $953 $899 $947 $954 forward $912 $-1 #
coedge $-1 $899 $953 $901 $938 reversed $912 $-1 #
vertex $-1 $900 $955 #
straight-curve $-1 64.201178014465768 0 15.845153860561743 0 1 0 I I #
coedge $-1 $902 $901 $907 $942 reversed $860 $-1 #
edge $-1 $903 -15.845153860561743 $956 15.845153860561743 $934 $957 forward 7 unknown #
point $-1 64.201178014465768 33.568122877676771 15.845153860561743 #
straight-curve $-1 -64.201178014465768 33.568122877676771 0 0 0 -1 I I #
coedge $-1 $948 $907 $953 $958 forward $882 $-1 #
edge $-1 $908 -64.201178014465768 $956 64.201178014465768 $937 $959 forward 7 unknown #
point $-1 -64.201178014465768 33.568122877676771 -15.845153860561743 #
straight-curve $-1 0 -33.568122877676771 -15.845153860561743 -1 0 0 I I #
straight-curve $-1 -43.954926980342208 -12.35233385179243 15.845153860561743 0 -1 0 I I #
point $-1 64.201178014465768 -33.568122877676771 -15.845153860561743 #
coedge $-1 $922 $921 $933 $954 reversed $836 $-1 #
coedge $-1 $923 $941 $921 $949 forward $882 $-1 #
edge $-1 $960 -64.201178014465768 $926 43.954926980342208 $921 $944 forward 7 unknown #
straight-curve $-1 -43.954926980342208 -12.35233385179243 -15.845153860561743 0 1 0 I I #
point $-1 -43.954926980342208 -33.568122877676771 15.845153860561743 #
point $-1 -43.954926980342208 -33.568122877676771 -15.845153860561743 #
coedge $-1 $934 $933 $941 $958 reversed $912 $-1 #
edge $-1 $935 -15.845153860561743 $960 15.845153860561743 $933 $961 forward 7 unknown #
point $-1 64.201178014465768 -33.568122877676771 15.845153860561743 #
vertex $-1 $958 $962 #
straight-curve $-1 64.201178014465768 33.568122877676771 0 0 0 -1 I I #
edge $-1 $956 -33.568122877676771 $960 33.568122877676771 $953 $963 forward 7 unknown #
straight-curve $-1 0 33.568122877676771 -15.845153860561743 1 0 0 I I #
vertex $-1 $954 $964 #
straight-curve $-1 64.201178014465768 -33.568122877676771 0 0 0 -1 I I #
point $-1 64.201178014465768 33.568122877676771 -15.845153860561743 #
straight-curve $-1 64.201178014465768 0 -15.845153860561743 0 -1 0 I I #
point $-1 64.201178014465768 -33.568122877676771 -15.845153860561743 #
End-of-ACIS-data 