600 0 9 0           
107 GICL ACIS Healer - Source: /gicl/data5/repository/Drexel/CICIRELLO-THESISDATA/Part10001.smdg.feat.sat - 6 0 18 ACIS 6.0.3 Solaris 24 Fri Apr 12 10:13:21 2002 
1 9.999999999999999547e-07 1.000000000000000036e-10 
body $-1 $9 $-1 $-1 #
body $-1 $10 $-1 $-1 #
body $-1 $11 $-1 $-1 #
body $-1 $12 $-1 $-1 #
body $-1 $13 $-1 $-1 #
body $-1 $14 $-1 $-1 #
body $-1 $15 $-1 $-1 #
body $-1 $16 $-1 $-1 #
body $-1 $17 $-1 $-1 #
lump $-1 $-1 $18 $0 #
lump $-1 $-1 $19 $1 #
lump $-1 $-1 $20 $2 #
lump $-1 $-1 $21 $3 #
lump $-1 $-1 $22 $4 #
lump $-1 $-1 $23 $5 #
lump $-1 $-1 $24 $6 #
lump $-1 $-1 $25 $7 #
lump $-1 $-1 $26 $8 #
shell $-1 $-1 $-1 $27 $-1 $9 #
shell $-1 $-1 $-1 $28 $-1 $10 #
shell $-1 $-1 $-1 $29 $-1 $11 #
shell $-1 $-1 $-1 $30 $-1 $12 #
shell $-1 $-1 $-1 $31 $-1 $13 #
shell $-1 $-1 $-1 $32 $-1 $14 #
shell $-1 $-1 $-1 $33 $-1 $15 #
shell $-1 $-1 $-1 $34 $-1 $16 #
shell $-1 $-1 $-1 $35 $-1 $17 #
face $-1 $36 $37 $18 $-1 $38 forward single #
face $-1 $39 $40 $19 $-1 $41 forward single #
face $-1 $42 $43 $20 $-1 $44 forward single #
face $-1 $45 $46 $21 $-1 $47 forward single #
face $-1 $48 $49 $22 $-1 $50 forward single #
face $-1 $51 $52 $23 $-1 $53 forward single #
face $-1 $54 $55 $24 $-1 $56 forward single #
face $-1 $57 $58 $25 $-1 $59 forward single #
face $-1 $60 $61 $26 $-1 $62 forward single #
face $-1 $63 $64 $18 $-1 $65 reversed single #
loop $-1 $-1 $66 $27 #
plane-surface $-1 61.20303964354381066 29.82581187279996016 18.42178749981611929 0 0 1 1 0 0 forward_v I I I I #
face $-1 $67 $68 $19 $-1 $69 reversed single #
loop $-1 $-1 $70 $28 #
plane-surface $-1 16.92178749981611929 6.063698302486625558 18.42178749981611929 0 0 1 1 0 0 forward_v I I I I #
face $-1 $71 $72 $20 $-1 $73 reversed single #
loop $-1 $-1 $74 $29 #
plane-surface $-1 -170.0608171415263996 22.28050938080738064 190.75402629697777 -0.6946583786197038091 0 0.7193397924579483238 0.7193397924579483238 0 0.6946583786197038091 forward_v I I I I #
face $-1 $75 $76 $21 $-1 $77 forward single #
loop $-1 $78 $79 $30 #
cone-surface $-1 2.299763842964068328 19.50632965168752619 16.17667333220319392 0.6946583786197038091 0 -0.7193397924579483238 0.3596698962289741619 0 0.3473291893098519045 1 I I 0 1 0.5 forward I I I I #
face $-1 $80 $81 $22 $-1 $82 forward single #
loop $-1 $83 $84 $31 #
cone-surface $-1 2.299763842964068328 22.28050938080738419 16.17667333220319392 0.6946583786197038091 0 -0.7193397924579483238 0.3596698962289741619 0 0.3473291893098519045 1 I I 0 1 0.5 forward I I I I #
face $-1 $85 $86 $23 $-1 $87 forward single #
loop $-1 $88 $89 $32 #
cone-surface $-1 2.299763842964068328 25.05468910992724219 16.17667333220319392 0.6946583786197038091 0 -0.7193397924579483238 0.3596698962289741619 0 0.3473291893098519045 1 I I 0 1 0.5 forward I I I I #
face $-1 $90 $91 $24 $-1 $92 reversed single #
loop $-1 $-1 $93 $33 #
plane-surface $-1 261.0557059238252577 15.26813833468338544 245.9975388572725024 0.8386705759497471435 0 0.5446390226894501918 0.5446390226894501918 0 -0.8386705759497471435 forward_v I I I I #
face $-1 $94 $95 $25 $-1 $96 forward single #
loop $-1 $97 $98 $34 #
cone-surface $-1 118.9216434405635709 13.92210616480761409 13.72535456852623881 -0.8386705759497471435 0 -0.5446390226894501918 0.2723195113447250959 0 -0.4193352879748735718 1 I I 0 1 0.5 forward I I I I #
face $-1 $99 $100 $26 $-1 $101 forward single #
loop $-1 $102 $103 $35 #
cone-surface $-1 118.9216434405635709 16.61417050455915856 13.72535456852623881 -0.8386705759497471435 0 -0.5446390226894501918 0.2723195113447250959 0 -0.4193352879748735718 1 I I 0 1 0.5 forward I I I I #
face $-1 $104 $105 $18 $-1 $106 reversed single #
loop $-1 $-1 $107 $36 #
plane-surface $-1 61.20303964354381066 29.82581187279996016 0 0 0 1 1 0 0 forward_v I I I I #
coedge $-1 $108 $109 $110 $111 forward $37 $-1 #
face $-1 $112 $113 $19 $-1 $114 reversed single #
loop $-1 $-1 $115 $39 #
plane-surface $-1 16.92178749981611929 6.063698302486625558 0 0 0 1 1 0 0 forward_v I I I I #
coedge $-1 $116 $117 $118 $119 forward $40 $-1 #
face $-1 $120 $121 $20 $-1 $122 reversed single #
loop $-1 $-1 $123 $42 #
plane-surface $-1 1.421085471520200372e-14 22.28050938080738064 14.65089895704819867 -0.6946583786197038091 0 0.7193397924579483238 0.7193397924579483238 0 0.6946583786197038091 forward_v I I I I #
coedge $-1 $124 $125 $126 $127 forward $43 $-1 #
face $-1 $-1 $128 $21 $-1 $129 forward single #
loop $-1 $-1 $130 $45 #
plane-surface $-1 1.952434653654216312 19.50632965168752619 16.53634322843216609 -0.6946583786197038091 0 0.7193397924579483238 -0.7193397924579483238 0 -0.6946583786197038091 forward_v I I I I #
loop $-1 $-1 $131 $30 #
coedge $-1 $79 $79 $130 $132 reversed $46 $-1 #
face $-1 $-1 $133 $22 $-1 $134 forward single #
loop $-1 $-1 $135 $48 #
plane-surface $-1 1.952434653654216312 22.28050938080738419 16.53634322843216609 -0.6946583786197038091 0 0.7193397924579483238 -0.7193397924579483238 0 -0.6946583786197038091 forward_v I I I I #
loop $-1 $-1 $136 $31 #
coedge $-1 $84 $84 $135 $137 reversed $49 $-1 #
face $-1 $-1 $138 $23 $-1 $139 forward single #
loop $-1 $-1 $140 $51 #
plane-surface $-1 1.952434653654216312 25.05468910992724219 16.53634322843216609 -0.6946583786197038091 0 0.7193397924579483238 -0.7193397924579483238 0 -0.6946583786197038091 forward_v I I I I #
loop $-1 $-1 $141 $32 #
coedge $-1 $89 $89 $140 $142 reversed $52 $-1 #
face $-1 $143 $144 $24 $-1 $145 reversed single #
loop $-1 $-1 $146 $54 #
plane-surface $-1 55.73895189292086627 15.26813833468338544 112.6632840689389923 0.8386705759497471435 0 0.5446390226894501918 0.5446390226894501918 0 -0.8386705759497471435 forward_v I I I I #
coedge $-1 $147 $148 $149 $150 forward $55 $-1 #
face $-1 $-1 $151 $25 $-1 $152 forward single #
loop $-1 $-1 $153 $57 #
plane-surface $-1 119.6730863385801342 13.92210616480761409 14.2133472766514739 0.8386705759497471435 0 0.5446390226894501918 -0.5446390226894501918 0 0.8386705759497471435 forward_v I I I I #
loop $-1 $-1 $154 $34 #
coedge $-1 $98 $98 $153 $155 reversed $58 $-1 #
face $-1 $-1 $156 $26 $-1 $157 forward single #
loop $-1 $-1 $158 $60 #
plane-surface $-1 119.6730863385801342 16.61417050455915856 14.2133472766514739 0.8386705759497471435 0 0.5446390226894501918 -0.5446390226894501918 0 0.8386705759497471435 forward_v I I I I #
loop $-1 $-1 $159 $35 #
coedge $-1 $103 $103 $158 $160 reversed $61 $-1 #
face $-1 $161 $162 $18 $-1 $163 reversed single #
loop $-1 $-1 $164 $63 #
plane-surface $-1 61.20303964354381066 0 9.210893749908059647 0 1 0 0 0 1 forward_v I I I I #
coedge $-1 $165 $166 $167 $168 forward $64 $-1 #
coedge $-1 $169 $66 $170 $171 forward $37 $-1 #
coedge $-1 $66 $169 $172 $173 forward $37 $-1 #
coedge $-1 $174 $175 $66 $111 reversed $176 $-1 #
edge $-1 $177 -29.82581187279996016 $178 29.82581187279996016 $110 $179 forward 7 unknown #
face $-1 $180 $181 $19 $-1 $182 reversed single #
loop $-1 $-1 $183 $67 #
plane-surface $-1 16.92178749981611929 0 9.210893749908059647 0 1 0 0 0 1 forward_v I I I I #
coedge $-1 $184 $185 $186 $187 forward $68 $-1 #
coedge $-1 $188 $70 $189 $190 forward $40 $-1 #
coedge $-1 $70 $188 $191 $192 forward $40 $-1 #
coedge $-1 $193 $194 $70 $119 reversed $195 $-1 #
edge $-1 $196 -6.063698302486625558 $197 6.063698302486625558 $118 $198 forward 7 unknown #
face $-1 $199 $200 $20 $-1 $201 reversed single #
loop $-1 $-1 $202 $71 #
plane-surface $-1 -85.03040857076318559 17.65687649894095301 102.7024626270129772 0 1 0 -0.6946583786197038091 0 0.7193397924579483238 forward_v I I I I #
coedge $-1 $203 $204 $205 $206 forward $72 $-1 #
coedge $-1 $207 $74 $208 $209 forward $43 $-1 #
coedge $-1 $74 $207 $210 $211 forward $43 $-1 #
coedge $-1 $212 $213 $74 $127 reversed $214 $-1 #
edge $-1 $215 -4.623632881866427624 $216 4.623632881866427624 $126 $217 forward 7 unknown #
loop $-1 $218 $219 $75 #
cone-surface $-1 2.820757626928846129 19.50632965168752619 15.63716848785973212 0.6946583786197038091 0 -0.7193397924579483238 0.179834948114487081 0 0.1736645946549259523 1 I I -0.7071067811865474617 0.7071067811865474617 0.25 forward I I I I #
coedge $-1 $130 $130 $79 $132 forward $76 $-1 #
coedge $-1 $131 $131 $219 $220 forward $78 $-1 #
edge $-1 $221 0 $221 6.283185307179586232 $130 $222 forward 7 unknown #
loop $-1 $223 $224 $80 #
cone-surface $-1 2.820757626928846129 22.28050938080738419 15.63716848785973212 0.6946583786197038091 0 -0.7193397924579483238 0.179834948114487081 0 0.1736645946549259523 1 I I -0.7071067811865474617 0.7071067811865474617 0.25 forward I I I I #
coedge $-1 $135 $135 $84 $137 forward $81 $-1 #
coedge $-1 $136 $136 $224 $225 forward $83 $-1 #
edge $-1 $226 0 $226 6.283185307179586232 $135 $227 forward 7 unknown #
loop $-1 $228 $229 $85 #
cone-surface $-1 2.820757626928846129 25.05468910992724219 15.63716848785973212 0.6946583786197038091 0 -0.7193397924579483238 0.179834948114487081 0 0.1736645946549259523 1 I I -0.7071067811865474617 0.7071067811865474617 0.25 forward I I I I #
coedge $-1 $140 $140 $89 $142 forward $86 $-1 #
coedge $-1 $141 $141 $229 $230 forward $88 $-1 #
edge $-1 $231 0 $231 6.283185307179586232 $140 $232 forward 7 unknown #
face $-1 $233 $234 $24 $-1 $235 reversed single #
loop $-1 $-1 $236 $90 #
plane-surface $-1 158.3973289083730549 12.12739660497324934 179.3304114631057473 0 1 0 0.8386705759497471435 0 0.5446390226894501918 forward_v I I I I #
coedge $-1 $237 $238 $239 $240 forward $91 $-1 #
coedge $-1 $241 $93 $242 $243 forward $55 $-1 #
coedge $-1 $93 $241 $244 $245 forward $55 $-1 #
coedge $-1 $246 $247 $93 $150 reversed $248 $-1 #
edge $-1 $249 -3.140741729710136099 $250 3.140741729710136099 $149 $251 forward 7 unknown #
loop $-1 $252 $253 $94 #
cone-surface $-1 117.9605328985595776 13.92210616480761409 13.10120210472864244 -0.8386705759497471435 0 -0.5446390226894501918 0.136159755672362548 0 -0.2096676439874367859 1 I I -0.7071067811865481278 0.7071067811865469066 0.25 forward I I I I #
coedge $-1 $153 $153 $98 $155 forward $95 $-1 #
coedge $-1 $154 $154 $253 $254 forward $97 $-1 #
edge $-1 $255 0 $255 6.283185307179586232 $153 $256 forward 7 unknown #
loop $-1 $257 $258 $99 #
cone-surface $-1 117.9605328985595776 16.61417050455915856 13.10120210472864244 -0.8386705759497471435 0 -0.5446390226894501918 0.136159755672362548 0 -0.2096676439874367859 1 I I -0.7071067811865481278 0.7071067811865469066 0.25 forward I I I I #
coedge $-1 $158 $158 $103 $160 forward $100 $-1 #
coedge $-1 $159 $159 $258 $259 forward $102 $-1 #
edge $-1 $260 0 $260 6.283185307179586232 $158 $261 forward 7 unknown #
face $-1 $262 $263 $18 $-1 $264 reversed single #
loop $-1 $-1 $265 $104 #
plane-surface $-1 0 29.82581187279996016 9.210893749908059647 1 0 0 0 0 -1 forward_v I I I I #
coedge $-1 $266 $172 $267 $268 forward $105 $-1 #
coedge $-1 $269 $107 $266 $270 forward $64 $-1 #
coedge $-1 $107 $269 $271 $272 forward $64 $-1 #
coedge $-1 $175 $174 $107 $168 reversed $176 $-1 #
edge $-1 $273 -29.82581187279996016 $274 29.82581187279996016 $167 $275 forward 7 unknown #
coedge $-1 $109 $108 $276 $277 forward $37 $-1 #
coedge $-1 $278 $279 $108 $171 reversed $263 $-1 #
edge $-1 $178 -61.20303964354381066 $280 61.20303964354381066 $170 $281 forward 7 unknown #
coedge $-1 $164 $282 $109 $173 reversed $105 $-1 #
edge $-1 $283 -61.20303964354381066 $177 61.20303964354381066 $172 $284 forward 7 unknown #
coedge $-1 $167 $110 $282 $285 forward $176 $-1 #
coedge $-1 $110 $167 $278 $286 reversed $176 $-1 #
loop $-1 $-1 $174 $262 #
vertex $-1 $111 $287 #
vertex $-1 $111 $288 #
straight-curve $-1 122.4060792870876213 29.82581187279996016 18.42178749981611929 0 1 0 I I #
face $-1 $289 $290 $19 $-1 $291 reversed single #
loop $-1 $-1 $292 $112 #
plane-surface $-1 15.42178749981611929 6.063698302486625558 9.210893749908059647 1 0 0 0 0 -1 forward_v I I I I #
coedge $-1 $293 $191 $294 $295 forward $113 $-1 #
coedge $-1 $296 $115 $293 $297 forward $68 $-1 #
coedge $-1 $115 $296 $298 $299 forward $68 $-1 #
coedge $-1 $194 $193 $115 $187 reversed $195 $-1 #
edge $-1 $300 -6.063698302486625558 $301 6.063698302486625558 $186 $302 forward 7 unknown #
coedge $-1 $117 $116 $303 $304 forward $40 $-1 #
coedge $-1 $305 $306 $116 $190 reversed $290 $-1 #
edge $-1 $197 -1.5 $307 1.5 $189 $308 forward 7 unknown #
coedge $-1 $183 $309 $117 $192 reversed $113 $-1 #
edge $-1 $310 -1.5 $196 1.5 $191 $311 forward 7 unknown #
coedge $-1 $186 $118 $309 $312 forward $195 $-1 #
coedge $-1 $118 $186 $305 $313 reversed $195 $-1 #
loop $-1 $-1 $193 $289 #
vertex $-1 $119 $314 #
vertex $-1 $119 $315 #
straight-curve $-1 18.42178749981611929 6.063698302486625558 18.42178749981611929 0 1 0 I I #
face $-1 $316 $317 $20 $-1 $318 reversed single #
loop $-1 $-1 $319 $120 #
plane-surface $-1 -261.1335359106927285 22.28050938080738064 -67.35835451451342237 0.7193397924579483238 0 0.6946583786197038091 0.6946583786197038091 0 -0.7193397924579483238 forward_v I I I I #
coedge $-1 $320 $210 $321 $322 forward $121 $-1 #
coedge $-1 $323 $123 $320 $324 forward $72 $-1 #
coedge $-1 $123 $323 $325 $326 forward $72 $-1 #
coedge $-1 $213 $212 $123 $206 reversed $214 $-1 #
edge $-1 $327 -4.623632881866427624 $328 4.623632881866427624 $205 $329 forward 7 unknown #
coedge $-1 $125 $124 $330 $331 forward $43 $-1 #
coedge $-1 $332 $333 $124 $209 reversed $317 $-1 #
edge $-1 $216 -244.8121585741752142 $334 244.812158574175271 $208 $335 forward 7 unknown #
coedge $-1 $202 $336 $125 $211 reversed $121 $-1 #
edge $-1 $337 -244.812158574175271 $215 244.8121585741752142 $210 $338 forward 7 unknown #
coedge $-1 $205 $126 $336 $339 forward $214 $-1 #
coedge $-1 $126 $205 $332 $340 reversed $214 $-1 #
loop $-1 $-1 $212 $316 #
vertex $-1 $127 $341 #
vertex $-1 $127 $342 #
straight-curve $-1 6.042310198403171739 22.28050938080738064 360.8148434385041128 0 1 0 I I #
loop $-1 $-1 $343 $75 #
coedge $-1 $219 $219 $131 $220 reversed $128 $-1 #
edge $-1 $344 0 $344 6.283185307179586232 $219 $345 forward 7 unknown #
vertex $-1 $132 $346 #
ellipse-curve $-1 1.952434653654216312 19.50632965168752619 16.53634322843216609 -0.6946583786197038091 0 0.7193397924579483238 0.3596698962289741619 0 0.3473291893098519045 1 I I #
loop $-1 $-1 $347 $80 #
coedge $-1 $224 $224 $136 $225 reversed $133 $-1 #
edge $-1 $348 0 $348 6.283185307179586232 $224 $349 forward 7 unknown #
vertex $-1 $137 $350 #
ellipse-curve $-1 1.952434653654216312 22.28050938080738419 16.53634322843216609 -0.6946583786197038091 0 0.7193397924579483238 0.3596698962289741619 0 0.3473291893098519045 1 I I #
loop $-1 $-1 $351 $85 #
coedge $-1 $229 $229 $141 $230 reversed $138 $-1 #
edge $-1 $352 0 $352 6.283185307179586232 $229 $353 forward 7 unknown #
vertex $-1 $142 $354 #
ellipse-curve $-1 1.952434653654216312 25.05468910992724219 16.53634322843216609 -0.6946583786197038091 0 0.7193397924579483238 0.3596698962289741619 0 0.3473291893098519045 1 I I #
face $-1 $355 $356 $24 $-1 $357 reversed single #
loop $-1 $-1 $358 $143 #
plane-surface $-1 25.06307412003954482 15.26813833468338544 384.6471654940100962 0.5446390226894501918 0 -0.8386705759497471435 -0.8386705759497471435 0 -0.5446390226894501918 forward_v I I I I #
coedge $-1 $359 $244 $360 $361 forward $144 $-1 #
coedge $-1 $362 $146 $359 $363 forward $91 $-1 #
coedge $-1 $146 $362 $364 $365 forward $91 $-1 #
coedge $-1 $247 $246 $146 $240 reversed $248 $-1 #
edge $-1 $366 -3.140741729710136099 $367 3.140741729710136099 $239 $368 forward 7 unknown #
coedge $-1 $148 $147 $369 $370 forward $55 $-1 #
coedge $-1 $371 $372 $147 $243 reversed $356 $-1 #
edge $-1 $250 -244.812158574175271 $373 244.8121585741752142 $242 $374 forward 7 unknown #
coedge $-1 $236 $375 $148 $245 reversed $144 $-1 #
edge $-1 $376 -244.8121585741752142 $249 244.812158574175271 $244 $377 forward 7 unknown #
coedge $-1 $239 $149 $375 $378 forward $248 $-1 #
coedge $-1 $149 $239 $371 $379 reversed $248 $-1 #
loop $-1 $-1 $246 $355 #
vertex $-1 $150 $380 #
vertex $-1 $150 $381 #
straight-curve $-1 394.3899607121587678 15.26813833468338544 40.6807848263681251 0 1 0 I I #
loop $-1 $-1 $382 $94 #
coedge $-1 $253 $253 $154 $254 reversed $151 $-1 #
edge $-1 $383 0 $383 6.283185307179586232 $253 $384 forward 7 unknown #
vertex $-1 $155 $385 #
ellipse-curve $-1 119.6730863385801342 13.92210616480761409 14.2133472766514739 0.8386705759497471435 0 0.5446390226894501918 0.2723195113447250959 0 -0.4193352879748735718 1 I I #
loop $-1 $-1 $386 $99 #
coedge $-1 $258 $258 $159 $259 reversed $156 $-1 #
edge $-1 $387 0 $387 6.283185307179586232 $258 $388 forward 7 unknown #
vertex $-1 $160 $389 #
ellipse-curve $-1 119.6730863385801342 16.61417050455915856 14.2133472766514739 0.8386705759497471435 0 0.5446390226894501918 0.2723195113447250959 0 -0.4193352879748735718 1 I I #
face $-1 $-1 $176 $18 $-1 $390 reversed single #
loop $-1 $-1 $278 $161 #
plane-surface $-1 61.20303964354381066 59.65162374559992031 9.210893749908059647 0 -1 0 0 0 -1 forward_v I I I I #
coedge $-1 $391 $276 $279 $392 forward $162 $-1 #
coedge $-1 $282 $164 $165 $270 reversed $105 $-1 #
coedge $-1 $276 $391 $164 $268 reversed $162 $-1 #
edge $-1 $283 -9.210893749908059647 $393 9.210893749908059647 $267 $394 forward 7 unknown #
coedge $-1 $166 $165 $391 $395 forward $64 $-1 #
edge $-1 $274 -61.20303964354381066 $393 61.20303964354381066 $266 $396 forward 7 unknown #
coedge $-1 $279 $278 $166 $272 reversed $263 $-1 #
edge $-1 $397 -61.20303964354381066 $273 61.20303964354381066 $271 $398 forward 7 unknown #
vertex $-1 $168 $399 #
vertex $-1 $285 $400 #
straight-curve $-1 122.4060792870876213 29.82581187279996016 0 0 -1 0 I I #
coedge $-1 $265 $267 $169 $277 reversed $162 $-1 #
edge $-1 $280 -29.82581187279996016 $283 29.82581187279996016 $276 $401 forward 7 unknown #
coedge $-1 $271 $170 $175 $286 forward $263 $-1 #
coedge $-1 $170 $271 $265 $392 reversed $263 $-1 #
vertex $-1 $171 $402 #
straight-curve $-1 61.20303964354381066 59.65162374559992031 18.42178749981611929 -1 0 0 I I #
coedge $-1 $172 $266 $174 $285 reversed $105 $-1 #
vertex $-1 $277 $403 #
straight-curve $-1 61.20303964354381066 0 18.42178749981611929 1 0 0 I I #
edge $-1 $177 -9.210893749908059647 $274 9.210893749908059647 $174 $404 forward 7 unknown #
edge $-1 $178 -9.210893749908059647 $273 9.210893749908059647 $175 $405 forward 7 unknown #
point $-1 122.4060792870876213 0 18.42178749981611929 #
point $-1 122.4060792870876213 59.65162374559992031 18.42178749981611929 #
face $-1 $-1 $195 $19 $-1 $406 reversed single #
loop $-1 $-1 $305 $180 #
plane-surface $-1 16.92178749981611929 12.12739660497325112 9.210893749908059647 0 -1 0 0 0 -1 forward_v I I I I #
coedge $-1 $407 $303 $306 $408 forward $181 $-1 #
coedge $-1 $309 $183 $184 $297 reversed $113 $-1 #
coedge $-1 $303 $407 $183 $295 reversed $181 $-1 #
edge $-1 $310 -9.210893749908059647 $409 9.210893749908059647 $294 $410 forward 7 unknown #
coedge $-1 $185 $184 $407 $411 forward $68 $-1 #
edge $-1 $301 -1.5 $409 1.5 $293 $412 forward 7 unknown #
coedge $-1 $306 $305 $185 $299 reversed $290 $-1 #
edge $-1 $413 -1.5 $300 1.5 $298 $414 forward 7 unknown #
vertex $-1 $187 $415 #
vertex $-1 $312 $416 #
straight-curve $-1 18.42178749981611929 6.063698302486625558 0 0 -1 0 I I #
coedge $-1 $292 $294 $188 $304 reversed $181 $-1 #
edge $-1 $307 -6.063698302486625558 $310 6.063698302486625558 $303 $417 forward 7 unknown #
coedge $-1 $298 $189 $194 $313 forward $290 $-1 #
coedge $-1 $189 $298 $292 $408 reversed $290 $-1 #
vertex $-1 $190 $418 #
straight-curve $-1 16.92178749981611929 12.12739660497325112 18.42178749981611929 -1 0 0 I I #
coedge $-1 $191 $293 $193 $312 reversed $113 $-1 #
vertex $-1 $304 $419 #
straight-curve $-1 16.92178749981611929 0 18.42178749981611929 1 0 0 I I #
edge $-1 $196 -9.210893749908059647 $301 9.210893749908059647 $193 $420 forward 7 unknown #
edge $-1 $197 -9.210893749908059647 $300 9.210893749908059647 $194 $421 forward 7 unknown #
point $-1 18.42178749981611929 0 18.42178749981611929 #
point $-1 18.42178749981611929 12.12739660497325112 18.42178749981611929 #
face $-1 $-1 $214 $20 $-1 $422 reversed single #
loop $-1 $-1 $332 $199 #
plane-surface $-1 -85.03040857076318559 26.90414226267380826 102.7024626270129772 0 -1 0 0.6946583786197038091 0 -0.7193397924579483238 forward_v I I I I #
coedge $-1 $423 $330 $333 $424 forward $200 $-1 #
coedge $-1 $336 $202 $203 $324 reversed $121 $-1 #
coedge $-1 $330 $423 $202 $322 reversed $200 $-1 #
edge $-1 $337 -122.4060792870876639 $425 122.4060792870876071 $321 $426 forward 7 unknown #
coedge $-1 $204 $203 $423 $427 forward $72 $-1 #
edge $-1 $328 -244.812158574175271 $425 244.8121585741752142 $320 $428 forward 7 unknown #
coedge $-1 $333 $332 $204 $326 reversed $317 $-1 #
edge $-1 $429 -244.8121585741752142 $327 244.812158574175271 $325 $430 forward 7 unknown #
vertex $-1 $206 $431 #
vertex $-1 $339 $432 #
straight-curve $-1 176.1031273399295856 22.28050938080738064 184.7117160985745841 0 -1 0 I I #
coedge $-1 $319 $321 $207 $331 reversed $200 $-1 #
edge $-1 $334 -4.623632881866427624 $337 4.623632881866427624 $330 $433 forward 7 unknown #
coedge $-1 $325 $208 $213 $340 forward $317 $-1 #
coedge $-1 $208 $325 $319 $424 reversed $317 $-1 #
vertex $-1 $209 $434 #
straight-curve $-1 -170.0608171415263996 26.90414226267380826 190.75402629697777 -0.7193397924579483238 0 -0.6946583786197038091 I I #
coedge $-1 $210 $320 $212 $339 reversed $121 $-1 #
vertex $-1 $331 $435 #
straight-curve $-1 -170.0608171415263996 17.65687649894095301 190.75402629697777 0.7193397924579483238 0 0.6946583786197038091 I I #
edge $-1 $215 -122.4060792870875787 $328 122.4060792870876639 $212 $436 forward 7 unknown #
edge $-1 $216 -122.4060792870875787 $327 122.4060792870876639 $213 $437 forward 7 unknown #
point $-1 6.042310198403171739 17.65687649894095301 360.8148434385041128 #
point $-1 6.042310198403171739 26.90414226267380826 360.8148434385041128 #
coedge $-1 $343 $343 $-1 $438 reversed $218 $-1 #
vertex $-1 $220 $439 #
ellipse-curve $-1 2.647093032273920343 19.50632965168752619 15.81700343597421998 -0.6946583786197038091 0 0.7193397924579483238 0.3596698962289741619 0 0.3473291893098519045 1 I I #
point $-1 2.312104549883190252 19.50632965168752619 16.88367241774201943 #
coedge $-1 $347 $347 $-1 $440 reversed $223 $-1 #
vertex $-1 $225 $441 #
ellipse-curve $-1 2.647093032273920343 22.28050938080738419 15.81700343597421998 -0.6946583786197038091 0 0.7193397924579483238 0.3596698962289741619 0 0.3473291893098519045 1 I I #
point $-1 2.312104549883190252 22.28050938080738419 16.88367241774201943 #
coedge $-1 $351 $351 $-1 $442 reversed $228 $-1 #
vertex $-1 $230 $443 #
ellipse-curve $-1 2.647093032273920343 25.05468910992724219 15.81700343597421998 -0.6946583786197038091 0 0.7193397924579483238 0.3596698962289741619 0 0.3473291893098519045 1 I I #
point $-1 2.312104549883190252 25.05468910992724219 16.88367241774201943 #
face $-1 $-1 $248 $24 $-1 $444 reversed single #
loop $-1 $-1 $371 $233 #
plane-surface $-1 158.3973289083730549 18.40888006439352154 179.3304114631057473 0 -1 0 -0.8386705759497471435 0 -0.5446390226894501918 forward_v I I I I #
coedge $-1 $445 $369 $372 $446 forward $234 $-1 #
coedge $-1 $375 $236 $237 $363 reversed $144 $-1 #
coedge $-1 $369 $445 $236 $361 reversed $234 $-1 #
edge $-1 $376 -122.4060792870876355 $447 122.4060792870876071 $360 $448 forward 7 unknown #
coedge $-1 $238 $237 $445 $449 forward $91 $-1 #
edge $-1 $367 -244.8121585741752142 $447 244.8121585741752142 $359 $450 forward 7 unknown #
coedge $-1 $372 $371 $238 $365 reversed $356 $-1 #
edge $-1 $451 -244.8121585741752142 $366 244.8121585741752142 $364 $452 forward 7 unknown #
vertex $-1 $240 $453 #
vertex $-1 $378 $454 #
straight-curve $-1 189.0732066812543621 15.26813833468338544 -92.65346996196535656 0 -1 0 I I #
coedge $-1 $358 $360 $241 $370 reversed $234 $-1 #
edge $-1 $373 -3.140741729710136099 $376 3.140741729710136099 $369 $455 forward 7 unknown #
coedge $-1 $364 $242 $247 $379 forward $356 $-1 #
coedge $-1 $242 $364 $358 $446 reversed $356 $-1 #
vertex $-1 $243 $456 #
straight-curve $-1 261.0557059238252577 18.40888006439352154 245.9975388572725024 -0.5446390226894501918 0 0.8386705759497471435 I I #
coedge $-1 $244 $359 $246 $378 reversed $144 $-1 #
vertex $-1 $370 $457 #
straight-curve $-1 261.0557059238252577 12.12739660497324934 245.9975388572725024 0.5446390226894501918 0 -0.8386705759497471435 I I #
edge $-1 $249 -122.4060792870876071 $367 122.4060792870876355 $246 $458 forward 7 unknown #
edge $-1 $250 -122.4060792870876071 $366 122.4060792870876355 $247 $459 forward 7 unknown #
point $-1 394.3899607121587678 12.12739660497324934 40.6807848263681251 #
point $-1 394.3899607121587678 18.40888006439352154 40.6807848263681251 #
coedge $-1 $382 $382 $-1 $460 reversed $252 $-1 #
vertex $-1 $254 $461 #
ellipse-curve $-1 118.1702005425470077 13.92210616480761409 13.23736186040100549 0.8386705759497471435 0 0.5446390226894501918 0.2723195113447250959 0 -0.4193352879748735718 1 I I #
point $-1 119.9454058499248532 13.92210616480761409 13.79401198867660128 #
coedge $-1 $386 $386 $-1 $462 reversed $257 $-1 #
vertex $-1 $259 $463 #
ellipse-curve $-1 118.1702005425470077 16.61417050455915856 13.23736186040100549 0.8386705759497471435 0 0.5446390226894501918 0.2723195113447250959 0 -0.4193352879748735718 1 I I #
point $-1 119.9454058499248532 16.61417050455915856 13.79401198867660128 #
plane-surface $-1 122.4060792870876213 29.82581187279996016 9.210893749908059647 -1 0 0 0 0 1 forward_v I I I I #
coedge $-1 $267 $265 $269 $395 reversed $162 $-1 #
edge $-1 $280 -9.210893749908059647 $397 9.210893749908059647 $279 $464 forward 7 unknown #
vertex $-1 $395 $465 #
straight-curve $-1 0 0 9.210893749908059647 0 0 -1 I I #
edge $-1 $393 -29.82581187279996016 $397 29.82581187279996016 $391 $466 forward 7 unknown #
straight-curve $-1 61.20303964354381066 0 0 -1 0 0 I I #
vertex $-1 $272 $467 #
straight-curve $-1 61.20303964354381066 59.65162374559992031 0 1 0 0 I I #
point $-1 122.4060792870876213 59.65162374559992031 0 #
point $-1 122.4060792870876213 0 0 #
straight-curve $-1 0 29.82581187279996016 18.42178749981611929 0 -1 0 I I #
point $-1 0 59.65162374559992031 18.42178749981611929 #
point $-1 0 0 18.42178749981611929 #
straight-curve $-1 122.4060792870876213 0 9.210893749908059647 0 0 -1 I I #
straight-curve $-1 122.4060792870876213 59.65162374559992031 9.210893749908059647 0 0 -1 I I #
plane-surface $-1 18.42178749981611929 6.063698302486625558 9.210893749908059647 -1 0 0 0 0 1 forward_v I I I I #
coedge $-1 $294 $292 $296 $411 reversed $181 $-1 #
edge $-1 $307 -9.210893749908059647 $413 9.210893749908059647 $306 $468 forward 7 unknown #
vertex $-1 $411 $469 #
straight-curve $-1 15.42178749981611929 0 9.210893749908059647 0 0 -1 I I #
edge $-1 $409 -6.063698302486625558 $413 6.063698302486625558 $407 $470 forward 7 unknown #
straight-curve $-1 16.92178749981611929 0 0 -1 0 0 I I #
vertex $-1 $299 $471 #
straight-curve $-1 16.92178749981611929 12.12739660497325112 0 1 0 0 I I #
point $-1 18.42178749981611929 12.12739660497325112 0 #
point $-1 18.42178749981611929 0 0 #
straight-curve $-1 15.42178749981611929 6.063698302486625558 18.42178749981611929 0 -1 0 I I #
point $-1 15.42178749981611929 12.12739660497325112 18.42178749981611929 #
point $-1 15.42178749981611929 0 18.42178749981611929 #
straight-curve $-1 18.42178749981611929 0 9.210893749908059647 0 0 -1 I I #
straight-curve $-1 18.42178749981611929 12.12739660497325112 9.210893749908059647 0 0 -1 I I #
plane-surface $-1 91.07271876916637154 22.28050938080738064 272.7632797685394053 -0.7193397924579483238 0 -0.6946583786197038091 -0.6946583786197038091 0 0.7193397924579483238 forward_v I I I I #
coedge $-1 $321 $319 $323 $427 reversed $200 $-1 #
edge $-1 $334 -122.4060792870876639 $429 122.4060792870876071 $333 $472 forward 7 unknown #
vertex $-1 $427 $473 #
straight-curve $-1 -261.1335359106927285 17.65687649894095301 -67.35835451451342237 0.6946583786197038091 0 -0.7193397924579483238 I I #
edge $-1 $425 -4.623632881866427624 $429 4.623632881866427624 $423 $474 forward 7 unknown #
straight-curve $-1 1.421085471520200372e-14 17.65687649894095301 14.65089895704819867 -0.7193397924579483238 0 -0.6946583786197038091 I I #
vertex $-1 $326 $475 #
straight-curve $-1 1.421085471520200372e-14 26.90414226267380826 14.65089895704819867 0.7193397924579483238 0 0.6946583786197038091 I I #
point $-1 176.1031273399295856 26.90414226267380826 184.7117160985745841 #
point $-1 176.1031273399295856 17.65687649894095301 184.7117160985745841 #
straight-curve $-1 -346.1639444814559852 22.28050938080738064 20.6932091554513562 0 -1 0 I I #
point $-1 -346.1639444814559852 26.90414226267380826 20.6932091554513562 #
point $-1 -346.1639444814559852 17.65687649894095301 20.6932091554513562 #
straight-curve $-1 91.07271876916637154 17.65687649894095301 272.7632797685394053 0.6946583786197038091 0 -0.7193397924579483238 I I #
straight-curve $-1 91.07271876916637154 26.90414226267380826 272.7632797685394053 0.6946583786197038091 0 -0.7193397924579483238 I I #
edge $-1 $476 1 $476 0 $343 $-1 forward 7 unknown #
point $-1 3.006762928502894283 19.50632965168752619 16.16433262528407155 #
edge $-1 $477 1 $477 0 $347 $-1 forward 7 unknown #
point $-1 3.006762928502894283 22.28050938080738419 16.16433262528407155 #
edge $-1 $478 1 $478 0 $351 $-1 forward 7 unknown #
point $-1 3.006762928502894283 25.05468910992724219 16.16433262528407155 #
plane-surface $-1 291.7315836967065934 15.26813833468338544 -25.98634256779862994 -0.5446390226894501918 0 0.8386705759497471435 0.8386705759497471435 0 0.5446390226894501918 forward_v I I I I #
coedge $-1 $360 $358 $362 $449 reversed $234 $-1 #
edge $-1 $373 -122.4060792870876355 $451 122.4060792870876071 $372 $479 forward 7 unknown #
vertex $-1 $449 $480 #
straight-curve $-1 25.06307412003954482 12.12739660497324934 384.6471654940100962 -0.8386705759497471435 0 -0.5446390226894501918 I I #
edge $-1 $447 -3.140741729710136099 $451 3.140741729710136099 $445 $481 forward 7 unknown #
straight-curve $-1 55.73895189292086627 12.12739660497324934 112.6632840689389923 -0.5446390226894501918 0 0.8386705759497471435 I I #
vertex $-1 $365 $482 #
straight-curve $-1 55.73895189292086627 18.40888006439352154 112.6632840689389923 0.5446390226894501918 0 -0.8386705759497471435 I I #
point $-1 189.0732066812543621 18.40888006439352154 -92.65346996196535656 #
point $-1 189.0732066812543621 12.12739660497324934 -92.65346996196535656 #
straight-curve $-1 127.7214511354917335 15.26813833468338544 451.3142928881768512 0 -1 0 I I #
point $-1 127.7214511354917335 18.40888006439352154 451.3142928881768512 #
point $-1 127.7214511354917335 12.12739660497324934 451.3142928881768512 #
straight-curve $-1 291.7315836967065934 12.12739660497324934 -25.98634256779862994 -0.8386705759497471435 0 -0.5446390226894501918 I I #
straight-curve $-1 291.7315836967065934 18.40888006439352154 -25.98634256779862994 -0.8386705759497471435 0 -0.5446390226894501918 I I #
edge $-1 $483 1 $483 0 $382 $-1 forward 7 unknown #
point $-1 118.4425200538917409 13.92210616480761409 12.81802657242613108 #
edge $-1 $484 1 $484 0 $386 $-1 forward 7 unknown #
point $-1 118.4425200538917409 16.61417050455915856 12.81802657242613108 #
straight-curve $-1 0 59.65162374559992031 9.210893749908059647 0 0 -1 I I #
point $-1 0 0 0 #
straight-curve $-1 0 29.82581187279996016 0 0 1 0 I I #
point $-1 0 59.65162374559992031 0 #
straight-curve $-1 15.42178749981611929 12.12739660497325112 9.210893749908059647 0 0 -1 I I #
point $-1 15.42178749981611929 0 0 #
straight-curve $-1 15.42178749981611929 6.063698302486625558 0 0 1 0 I I #
point $-1 15.42178749981611929 12.12739660497325112 0 #
straight-curve $-1 -261.1335359106927285 26.90414226267380826 -67.35835451451342237 0.6946583786197038091 0 -0.7193397924579483238 I I #
point $-1 -176.1031273399295287 17.65687649894095301 -155.4099181844781867 #
straight-curve $-1 -176.1031273399295287 22.28050938080738064 -155.4099181844781867 0 1 0 I I #
point $-1 -176.1031273399295287 26.90414226267380826 -155.4099181844781867 #
vertex $-1 $438 $485 #
vertex $-1 $440 $486 #
vertex $-1 $442 $487 #
straight-curve $-1 25.06307412003954482 18.40888006439352154 384.6471654940100962 -0.8386705759497471435 0 -0.5446390226894501918 I I #
point $-1 -77.5953028954126296 12.12739660497324934 317.9800380998433411 #
straight-curve $-1 -77.5953028954126296 15.26813833468338544 317.9800380998433411 0 1 0 I I #
point $-1 -77.5953028954126296 18.40888006439352154 317.9800380998433411 #
vertex $-1 $460 $488 #
vertex $-1 $462 $489 #
point $-1 2.994422221583771915 19.50632965168752619 15.45733353974524427 #
point $-1 2.994422221583771915 22.28050938080738419 15.45733353974524427 #
point $-1 2.994422221583771915 25.05468910992724219 15.45733353974524427 #
point $-1 117.7508652545721475 13.92210616480761409 12.96504234905627939 #
point $-1 117.7508652545721475 16.61417050455915856 12.96504234905627939 #
End-of-ACIS-data 