500 0 7 0           
7 Unknown 11 ACIS 5.0 NT 24 Thu Mar 25 15:35:12 1999 
-1 9.9999999999999995e-007 1e-010 
body $-1 $7 $-1 $8 #
body $-1 $9 $-1 $10 #
body $-1 $11 $-1 $12 #
body $-1 $13 $-1 $14 #
body $-1 $15 $-1 $16 #
body $-1 $17 $-1 $18 #
body $-1 $19 $-1 $20 #
lump $-1 $-1 $21 $0 #
transform $-1 1 0 0 0 1 0 0 0 1 45.299233985412151 24.949209442772744 10.814192079647594 1 rotate no_reflect no_shear #
lump $-1 $-1 $22 $1 #
transform $-1 1 0 0 0 1 0 0 0 1 45.299233985412151 24.949209442772744 10.814192079647594 1 rotate no_reflect no_shear #
lump $-1 $-1 $23 $2 #
transform $-1 1 0 0 0 1 0 0 0 1 45.299233985412151 24.949209442772744 10.814192079647594 1 rotate no_reflect no_shear #
lump $-1 $-1 $24 $3 #
transform $-1 1 0 0 0 1 0 0 0 1 45.299233985412151 24.949209442772744 10.814192079647594 1 rotate no_reflect no_shear #
lump $-1 $-1 $25 $4 #
transform $-1 1 0 0 0 1 0 0 0 1 45.299233985412151 24.949209442772744 10.814192079647594 1 rotate no_reflect no_shear #
lump $-1 $-1 $26 $5 #
transform $-1 1 0 0 0 1 0 0 0 1 45.299233985412151 24.949209442772744 10.814192079647594 1 rotate no_reflect no_shear #
lump $-1 $-1 $27 $6 #
transform $-1 1 0 0 0 1 0 0 0 1 45.299233985412151 24.949209442772744 10.814192079647594 1 rotate no_reflect no_shear #
shell $-1 $-1 $-1 $28 $-1 $7 #
shell $-1 $-1 $-1 $29 $-1 $9 #
shell $-1 $-1 $-1 $30 $-1 $11 #
shell $-1 $-1 $-1 $31 $-1 $13 #
shell $-1 $-1 $-1 $32 $-1 $15 #
shell $-1 $-1 $-1 $33 $-1 $17 #
shell $-1 $-1 $-1 $34 $-1 $19 #
face $-1 $35 $36 $21 $-1 $37 forward single #
face $-1 $38 $39 $22 $-1 $40 reversed single #
face $-1 $41 $42 $23 $-1 $43 reversed single #
face $-1 $44 $45 $24 $-1 $46 forward single #
face $-1 $47 $48 $25 $-1 $49 forward single #
face $-1 $50 $51 $26 $-1 $52 reversed single #
face $-1 $53 $54 $27 $-1 $55 forward single #
face $-1 $56 $57 $21 $-1 $58 reversed single #
loop $-1 $-1 $59 $28 #
plane-surface $-1 0 0 10.814192079647594 0 0 1 1 0 0 forward_v I I I I #
face $-1 $60 $61 $22 $-1 $62 reversed single #
loop $-1 $-1 $63 $29 #
plane-surface $-1 -38.45113455724519 0 6.0933337054999708 0 0 1 1 0 0 forward_v I I I I #
face $-1 $64 $65 $23 $-1 $66 reversed single #
loop $-1 $-1 $67 $30 #
plane-surface $-1 -15.254936860368682 -76.914356510064309 74.679427849105778 -1 0 0 0 -0.57357644374324357 0.81915203911291934 forward_v I I I I #
face $-1 $68 $69 $24 $-1 $70 forward single #
loop $-1 $71 $72 $31 #
cone-surface $-1 -26.932149909446927 -16.487705707203961 4.1091929793950168 0 0.57357644374324357 -0.81915203911291934 2 0 0 1 I I 0 1 2 forward I I I I #
face $-1 $73 $74 $25 $-1 $75 forward single #
loop $-1 $76 $77 $32 #
cone-surface $-1 -19.925822079999978 -16.487705707203961 4.1091929793950168 0 0.57357644374324357 -0.81915203911291934 2 0 0 1 I I 0 1 2 forward I I I I #
face $-1 $78 $79 $26 $-1 $80 reversed single #
loop $-1 $-1 $81 $33 #
plane-surface $-1 1.8998471642756627 63.955351714313935 101.04699975951226 1 0 0 0 -0.77714596973225614 -0.62932038083071107 forward_v I I I I #
face $-1 $82 $83 $27 $-1 $84 forward single #
loop $-1 $85 $86 $34 #
cone-surface $-1 11.930327917929176 20.654115298293874 6.3789051023826087 0 -0.77714596973225614 -0.62932038083071107 1.5 0 0 1 I I 0 1 1.5 forward I I I I #
face $-1 $87 $88 $21 $-1 $89 reversed single #
loop $-1 $-1 $90 $35 #
plane-surface $-1 0 0 -10.814192079647594 0 0 1 1 0 0 forward_v I I I I #
coedge $-1 $91 $92 $93 $94 forward $36 $-1 #
face $-1 $95 $96 $22 $-1 $97 reversed single #
loop $-1 $-1 $98 $38 #
plane-surface $-1 -31.603035129078229 0 8.4537628925737813 -1 0 0 0 0 1 forward_v I I I I #
coedge $-1 $99 $100 $98 $101 forward $39 $-1 #
face $-1 $102 $103 $23 $-1 $104 forward single #
loop $-1 $-1 $105 $41 #
plane-surface $-1 -23.428985994723455 -24.949209442772748 0.46550807029854013 0 -0.57357644374324357 0.81915203911291934 1 0 0 forward_v I I I I #
coedge $-1 $106 $107 $108 $109 reversed $42 $-1 #
face $-1 $-1 $110 $24 $-1 $111 forward single #
loop $-1 $112 $113 $44 #
cone-surface $-1 -26.932149909446927 -14.842351606137457 1.7593838447040522 0 0.57357644374324357 -0.81915203911291934 1 0 0 1 I I -0.70710678118654746 0.70710678118654746 1 forward I I I I #
loop $-1 $-1 $114 $31 #
coedge $-1 $72 $72 $115 $116 reversed $45 $-1 #
face $-1 $-1 $117 $25 $-1 $118 forward single #
loop $-1 $119 $120 $47 #
cone-surface $-1 -19.925822079999978 -14.842351606137457 1.7593838447040522 0 0.57357644374324357 -0.81915203911291934 1 0 0 1 I I -0.70710678118654746 0.70710678118654746 1 forward I I I I #
loop $-1 $-1 $121 $32 #
coedge $-1 $77 $77 $122 $123 reversed $48 $-1 #
face $-1 $124 $125 $26 $-1 $126 reversed single #
loop $-1 $-1 $127 $50 #
plane-surface $-1 11.930327917929176 -6.4528825331290705 44.031537393434135 0 0.77714596973225614 0.62932038083071107 1 0 0 forward_v I I I I #
coedge $-1 $128 $129 $130 $131 reversed $51 $-1 #
face $-1 $-1 $132 $27 $-1 $133 forward single #
loop $-1 $134 $135 $53 #
cone-surface $-1 11.930327917929176 18.027770095962449 4.2521327490581058 0 -0.77714596973225614 -0.62932038083071107 0.75 0 0 1 I I -0.70710678118654757 0.70710678118654757 0.75 forward I I I I #
loop $-1 $-1 $136 $34 #
coedge $-1 $86 $86 $137 $138 reversed $54 $-1 #
face $-1 $139 $140 $21 $-1 $141 reversed single #
loop $-1 $-1 $142 $56 #
plane-surface $-1 0 -24.949209442772744 0 0 1 0 0 0 1 forward_v I I I I #
coedge $-1 $143 $144 $145 $146 forward $57 $-1 #
coedge $-1 $147 $59 $148 $149 forward $36 $-1 #
coedge $-1 $59 $147 $150 $151 forward $36 $-1 #
coedge $-1 $152 $153 $59 $94 reversed $154 $-1 #
edge $-1 $155 -24.949209442772744 $156 24.949209442772744 $93 $157 forward 7 unknown #
face $-1 $158 $159 $22 $-1 $160 reversed single #
loop $-1 $-1 $161 $60 #
plane-surface $-1 0 24.949209442772744 0 0 -1 0 0 0 -1 forward_v I I I I #
coedge $-1 $162 $163 $63 $101 reversed $61 $-1 #
coedge $-1 $164 $63 $165 $166 reversed $39 $-1 #
coedge $-1 $63 $164 $167 $168 reversed $39 $-1 #
edge $-1 $169 -24.949209442772744 $170 24.949209442772744 $98 $171 forward 7 unknown #
face $-1 $172 $173 $23 $-1 $174 forward single #
loop $-1 $-1 $175 $64 #
plane-surface $-1 -31.603035129078229 0 8.4537628925737813 -1 0 0 0 0 1 forward_v I I I I #
coedge $-1 $176 $177 $178 $179 reversed $65 $-1 #
coedge $-1 $107 $67 $180 $181 reversed $42 $-1 #
coedge $-1 $67 $106 $176 $182 reversed $42 $-1 #
coedge $-1 $178 $183 $67 $109 forward $173 $-1 #
edge $-1 $184 13.50796881225941 $185 28.287420968750439 $108 $186 forward 7 unknown #
loop $-1 $-1 $115 $68 #
plane-surface $-1 -23.428985994723455 -24.949209442772748 0.46550807029854013 0 -0.57357644374324357 0.81915203911291934 1 0 0 forward_v I I I I #
loop $-1 $-1 $187 $44 #
coedge $-1 $113 $113 $114 $188 reversed $69 $-1 #
coedge $-1 $114 $114 $113 $188 forward $71 $-1 #
coedge $-1 $115 $115 $72 $116 forward $110 $-1 #
edge $-1 $189 -3.2792744064692585e-016 $189 6.2831853071796004 $115 $190 forward 7 unknown #
loop $-1 $-1 $122 $73 #
plane-surface $-1 -23.428985994723455 -24.949209442772748 0.46550807029854013 0 -0.57357644374324357 0.81915203911291934 1 0 0 forward_v I I I I #
loop $-1 $-1 $191 $47 #
coedge $-1 $120 $120 $121 $192 reversed $74 $-1 #
coedge $-1 $121 $121 $120 $192 forward $76 $-1 #
coedge $-1 $122 $122 $77 $123 forward $117 $-1 #
edge $-1 $193 -3.2792744064692585e-016 $193 6.2831853071796004 $122 $194 forward 7 unknown #
face $-1 $195 $196 $26 $-1 $197 forward single #
loop $-1 $-1 $198 $78 #
plane-surface $-1 21.96080867158269 63.955351714313935 101.04699975951226 -1 0 0 0 0.77714596973225614 0.62932038083071107 forward_v I I I I #
coedge $-1 $199 $200 $201 $202 reversed $79 $-1 #
coedge $-1 $129 $81 $203 $204 reversed $51 $-1 #
coedge $-1 $81 $128 $199 $205 reversed $51 $-1 #
coedge $-1 $201 $206 $81 $131 forward $196 $-1 #
edge $-1 $207 7.0284664143842228 $208 11.531683253277492 $130 $209 forward 7 unknown #
loop $-1 $-1 $137 $82 #
plane-surface $-1 11.930327917929176 -6.4528825331290705 44.031537393434135 0 0.77714596973225614 0.62932038083071107 1 0 0 forward_v I I I I #
loop $-1 $-1 $210 $53 #
coedge $-1 $135 $135 $136 $211 reversed $83 $-1 #
coedge $-1 $136 $136 $135 $211 forward $85 $-1 #
coedge $-1 $137 $137 $86 $138 forward $132 $-1 #
edge $-1 $212 3.5012132784483932e-016 $212 6.2831853071796004 $137 $213 forward 7 unknown #
face $-1 $214 $215 $21 $-1 $216 reversed single #
loop $-1 $-1 $217 $87 #
plane-surface $-1 -45.299233985412151 0 0 1 0 0 0 0 -1 forward_v I I I I #
coedge $-1 $218 $150 $219 $220 forward $88 $-1 #
coedge $-1 $221 $90 $218 $222 forward $57 $-1 #
coedge $-1 $90 $221 $223 $224 forward $57 $-1 #
coedge $-1 $153 $152 $90 $146 reversed $154 $-1 #
edge $-1 $225 -24.949209442772744 $226 24.949209442772744 $145 $227 forward 7 unknown #
coedge $-1 $92 $91 $228 $229 forward $36 $-1 #
coedge $-1 $230 $231 $91 $149 reversed $215 $-1 #
edge $-1 $156 -45.299233985412151 $232 45.299233985412151 $148 $233 forward 7 unknown #
coedge $-1 $142 $234 $92 $151 reversed $88 $-1 #
edge $-1 $235 -45.299233985412151 $155 45.299233985412151 $150 $236 forward 7 unknown #
coedge $-1 $145 $93 $234 $237 forward $154 $-1 #
coedge $-1 $93 $145 $230 $238 reversed $154 $-1 #
loop $-1 $-1 $152 $214 #
vertex $-1 $94 $239 #
vertex $-1 $94 $240 #
straight-curve $-1 45.299233985412151 0 10.814192079647594 0 1 0 I I #
face $-1 $241 $242 $22 $-1 $243 forward single #
loop $-1 $-1 $244 $95 #
plane-surface $-1 -45.299233985412151 0 0 1 0 0 0 0 -1 forward_v I I I I #
coedge $-1 $167 $245 $162 $246 forward $96 $-1 #
coedge $-1 $247 $98 $161 $246 reversed $61 $-1 #
coedge $-1 $98 $247 $248 $249 reversed $61 $-1 #
coedge $-1 $100 $99 $244 $250 reversed $39 $-1 #
coedge $-1 $248 $251 $99 $166 forward $252 $-1 #
edge $-1 $253 -26.073666706789556 $170 -12.377467850455634 $165 $254 forward 7 unknown #
coedge $-1 $255 $161 $100 $168 forward $96 $-1 #
edge $-1 $169 12.377467850455634 $256 26.073666706789556 $167 $257 forward 7 unknown #
vertex $-1 $168 $258 #
vertex $-1 $166 $259 #
straight-curve $-1 -31.603035129078229 0 6.0933337054999708 0 -1 0 I I #
face $-1 $-1 $260 $23 $-1 $261 reversed single #
loop $-1 $-1 $178 $102 #
plane-surface $-1 0 0 10.814192079647594 0 0 1 1 0 0 forward_v I I I I #
coedge $-1 $262 $263 $177 $264 reversed $103 $-1 #
coedge $-1 $265 $105 $107 $182 forward $65 $-1 #
coedge $-1 $105 $265 $175 $264 forward $65 $-1 #
coedge $-1 $266 $108 $105 $179 forward $173 $-1 #
edge $-1 $185 3.5404438630069546 $267 19.888542131716502 $178 $268 forward 7 unknown #
coedge $-1 $269 $270 $106 $181 forward $260 $-1 #
edge $-1 $271 -36.874205854254349 $184 -26.525521844905295 $180 $272 forward 7 unknown #
edge $-1 $185 -18.042379742466466 $271 -4.3430076463831122e-015 $107 $273 forward 7 unknown #
coedge $-1 $108 $266 $269 $274 forward $173 $-1 #
vertex $-1 $181 $275 #
vertex $-1 $109 $276 #
straight-curve $-1 -15.254936860368682 -38.457178255032154 10.814192079647594 0 1 0 I I #
coedge $-1 $187 $187 $-1 $277 reversed $112 $-1 #
edge $-1 $278 0 $278 6.2831853071796004 $113 $279 forward 7 unknown #
vertex $-1 $116 $280 #
ellipse-curve $-1 -26.932149909446927 -17.559483364527228 5.6398500749730696 0 -0.57357644374324357 0.81915203911291934 2 0 0 1 I I #
coedge $-1 $191 $191 $-1 $281 reversed $119 $-1 #
edge $-1 $282 0 $282 6.2831853071796004 $120 $283 forward 7 unknown #
vertex $-1 $123 $284 #
ellipse-curve $-1 -19.925822079999978 -17.559483364527228 5.6398500749730696 0 -0.57357644374324357 0.81915203911291934 2 0 0 1 I I #
face $-1 $-1 $285 $26 $-1 $286 reversed single #
loop $-1 $-1 $130 $124 #
plane-surface $-1 0 0 10.814192079647594 0 0 1 1 0 0 forward_v I I I I #
coedge $-1 $287 $288 $289 $290 reversed $125 $-1 #
coedge $-1 $291 $127 $129 $205 forward $79 $-1 #
coedge $-1 $127 $291 $287 $292 forward $79 $-1 #
coedge $-1 $289 $130 $127 $202 forward $196 $-1 #
edge $-1 $208 -4.0653167946889255 $293 15.995644712618102 $201 $294 forward 7 unknown #
coedge $-1 $295 $296 $128 $204 forward $285 $-1 #
edge $-1 $297 -45.270317619235549 $207 -39.709307800108533 $203 $298 forward 7 unknown #
edge $-1 $208 42.742736380953815 $297 49.89841888554546 $129 $299 forward 7 unknown #
coedge $-1 $130 $289 $295 $300 forward $196 $-1 #
vertex $-1 $204 $301 #
vertex $-1 $131 $302 #
straight-curve $-1 1.8998471642756627 31.977675857156967 10.814192079647597 0 -1 0 I I #
coedge $-1 $210 $210 $-1 $303 reversed $134 $-1 #
edge $-1 $304 0 $304 6.2831853071796004 $135 $305 forward 7 unknown #
vertex $-1 $138 $306 #
ellipse-curve $-1 11.930327917929176 22.697601023326111 8.0336871700840824 0 0.77714596973225614 0.62932038083071107 1.5 0 0 1 I I #
face $-1 $-1 $154 $21 $-1 $307 reversed single #
loop $-1 $-1 $230 $139 #
plane-surface $-1 0 24.949209442772744 0 0 -1 0 0 0 -1 forward_v I I I I #
coedge $-1 $308 $228 $231 $309 forward $140 $-1 #
coedge $-1 $234 $142 $143 $222 reversed $88 $-1 #
coedge $-1 $228 $308 $142 $220 reversed $140 $-1 #
edge $-1 $235 -10.814192079647594 $310 10.814192079647594 $219 $311 forward 7 unknown #
coedge $-1 $144 $143 $308 $312 forward $57 $-1 #
edge $-1 $226 -45.299233985412151 $310 45.299233985412151 $218 $313 forward 7 unknown #
coedge $-1 $231 $230 $144 $224 reversed $215 $-1 #
edge $-1 $314 -45.299233985412151 $225 45.299233985412151 $223 $315 forward 7 unknown #
vertex $-1 $146 $316 #
vertex $-1 $237 $317 #
straight-curve $-1 45.299233985412151 0 -10.814192079647594 0 -1 0 I I #
coedge $-1 $217 $219 $147 $229 reversed $140 $-1 #
edge $-1 $232 -24.949209442772744 $235 24.949209442772744 $228 $318 forward 7 unknown #
coedge $-1 $223 $148 $153 $238 forward $215 $-1 #
coedge $-1 $148 $223 $217 $309 reversed $215 $-1 #
vertex $-1 $149 $319 #
straight-curve $-1 0 24.949209442772744 10.814192079647594 -1 0 0 I I #
coedge $-1 $150 $218 $152 $237 reversed $88 $-1 #
vertex $-1 $229 $320 #
straight-curve $-1 0 -24.949209442772744 10.814192079647594 1 0 0 I I #
edge $-1 $155 -10.814192079647594 $226 10.814192079647594 $152 $321 forward 7 unknown #
edge $-1 $156 -10.814192079647594 $225 10.814192079647594 $153 $322 forward 7 unknown #
point $-1 45.299233985412151 -24.949209442772744 10.814192079647594 #
point $-1 45.299233985412151 24.949209442772744 10.814192079647594 #
face $-1 $-1 $252 $22 $-1 $323 reversed single #
loop $-1 $-1 $324 $158 #
plane-surface $-1 0 0 10.814192079647594 0 0 1 1 0 0 forward_v I I I I #
coedge $-1 $325 $326 $164 $250 forward $159 $-1 #
coedge $-1 $161 $255 $327 $328 reversed $96 $-1 #
edge $-1 $329 -6.5873106333607012 $169 -1.8664522592130801 $161 $330 forward 7 unknown #
coedge $-1 $163 $162 $324 $331 reversed $61 $-1 #
coedge $-1 $332 $165 $163 $249 forward $252 $-1 #
edge $-1 $170 1.8664522592130801 $333 6.5873106333607012 $248 $334 forward 7 unknown #
edge $-1 $256 -24.949209442772744 $253 24.949209442772744 $244 $335 forward 7 unknown #
coedge $-1 $165 $332 $325 $336 forward $252 $-1 #
loop $-1 $-1 $248 $241 #
vertex $-1 $250 $337 #
straight-curve $-1 -19.225567278622595 -24.949209442772744 6.0933337054999708 1 0 0 I I #
coedge $-1 $245 $167 $326 $338 reversed $96 $-1 #
vertex $-1 $250 $339 #
straight-curve $-1 -19.225567278622595 24.949209442772744 6.0933337054999708 -1 0 0 I I #
point $-1 -31.603035129078229 24.949209442772744 6.0933337054999708 #
point $-1 -31.603035129078229 -24.949209442772744 6.0933337054999708 #
loop $-1 $-1 $180 $172 #
plane-surface $-1 0 -24.949209442772744 0 0 1 0 0 0 1 forward_v I I I I #
coedge $-1 $263 $175 $340 $341 reversed $103 $-1 #
coedge $-1 $175 $262 $266 $342 reversed $103 $-1 #
edge $-1 $343 4.3430076463831122e-015 $267 18.042379742466466 $175 $344 forward 7 unknown #
coedge $-1 $177 $176 $270 $345 reversed $65 $-1 #
coedge $-1 $183 $178 $263 $342 forward $173 $-1 #
vertex $-1 $342 $346 #
straight-curve $-1 -11.714492997361727 -10.169757286281715 10.814192079647594 -1 0 0 I I #
coedge $-1 $340 $180 $183 $274 reversed $260 $-1 #
coedge $-1 $180 $340 $265 $345 forward $260 $-1 #
vertex $-1 $181 $347 #
straight-curve $-1 -15.254936860368682 -24.949209442772744 37.339713924552889 0 0 1 I I #
straight-curve $-1 -15.254936860368682 -24.949209442772748 0.46550807029854013 0 -0.81915203911291934 -0.57357644374324357 I I #
edge $-1 $348 -31.603035129078229 $184 -15.254936860368682 $269 $349 forward 7 unknown #
point $-1 -15.254936860368682 -24.949209442772744 10.814192079647594 #
point $-1 -15.254936860368682 -10.169757286281714 10.814192079647594 #
edge $-1 $350 1 $350 0 $187 $-1 forward 7 unknown #
vertex $-1 $188 $351 #
ellipse-curve $-1 -26.932149909446927 -15.415928049880701 2.5785358838169716 0 -0.57357644374324357 0.81915203911291934 2 0 0 1 I I #
point $-1 -24.932149909446927 -17.559483364527225 5.6398500749730633 #
edge $-1 $352 1 $352 0 $191 $-1 forward 7 unknown #
vertex $-1 $192 $353 #
ellipse-curve $-1 -19.925822079999978 -15.415928049880701 2.5785358838169716 0 -0.57357644374324357 0.81915203911291934 2 0 0 1 I I #
point $-1 -17.925822079999978 -17.559483364527225 5.6398500749730633 #
loop $-1 $-1 $203 $195 #
plane-surface $-1 0 24.949209442772744 0 0 -1 0 0 0 -1 forward_v I I I I #
coedge $-1 $288 $198 $200 $292 reversed $125 $-1 #
coedge $-1 $198 $287 $354 $355 reversed $125 $-1 #
coedge $-1 $206 $201 $198 $290 forward $196 $-1 #
edge $-1 $293 -11.531683253277492 $356 -7.0284664143842228 $289 $357 forward 7 unknown #
coedge $-1 $200 $199 $296 $358 reversed $79 $-1 #
edge $-1 $359 -49.89841888554546 $293 -42.742736380953815 $287 $360 forward 7 unknown #
vertex $-1 $202 $361 #
straight-curve $-1 5.9651639589645882 20.445992603879475 10.814192079647594 1 0 0 I I #
coedge $-1 $354 $203 $206 $300 reversed $285 $-1 #
coedge $-1 $203 $354 $291 $358 forward $285 $-1 #
vertex $-1 $204 $362 #
straight-curve $-1 1.8998471642756627 24.949209442772744 50.52349987975613 0 0 1 I I #
straight-curve $-1 1.8998471642756627 -6.4528825331290705 44.031537393434135 0 0.62932038083071107 -0.77714596973225614 I I #
edge $-1 $356 -21.96080867158269 $207 -1.8998471642756627 $295 $363 forward 7 unknown #
point $-1 1.8998471642756627 24.949209442772744 10.814192079647594 #
point $-1 1.8998471642756627 20.445992603879475 10.814192079647597 #
edge $-1 $364 1 $364 0 $210 $-1 forward 7 unknown #
vertex $-1 $211 $365 #
ellipse-curve $-1 11.930327917929176 18.61062957326164 4.7241230346811394 0 0.77714596973225614 0.62932038083071107 1.5 0 0 1 I I #
point $-1 13.430327917929176 22.697601023326108 8.0336871700840788 #
plane-surface $-1 45.299233985412151 0 0 -1 0 0 0 0 1 forward_v I I I I #
coedge $-1 $219 $217 $221 $312 reversed $140 $-1 #
edge $-1 $232 -10.814192079647594 $314 10.814192079647594 $231 $366 forward 7 unknown #
vertex $-1 $312 $367 #
straight-curve $-1 -45.299233985412151 -24.949209442772744 0 0 0 -1 I I #
edge $-1 $310 -24.949209442772744 $314 24.949209442772744 $308 $368 forward 7 unknown #
straight-curve $-1 0 -24.949209442772744 -10.814192079647594 -1 0 0 I I #
vertex $-1 $224 $369 #
straight-curve $-1 0 24.949209442772744 -10.814192079647594 1 0 0 I I #
point $-1 45.299233985412151 24.949209442772744 -10.814192079647594 #
point $-1 45.299233985412151 -24.949209442772744 -10.814192079647594 #
straight-curve $-1 -45.299233985412151 0 10.814192079647594 0 -1 0 I I #
point $-1 -45.299233985412151 24.949209442772744 10.814192079647594 #
point $-1 -45.299233985412151 -24.949209442772744 10.814192079647594 #
straight-curve $-1 45.299233985412151 -24.949209442772744 0 0 0 -1 I I #
straight-curve $-1 45.299233985412151 24.949209442772744 0 0 0 -1 I I #
plane-surface $-1 0 -24.949209442772744 0 0 1 0 0 0 1 forward_v I I I I #
coedge $-1 $327 $370 $247 $331 forward $242 $-1 #
coedge $-1 $371 $244 $251 $336 reversed $159 $-1 #
coedge $-1 $244 $371 $255 $338 forward $159 $-1 #
coedge $-1 $372 $324 $245 $328 forward $242 $-1 #
edge $-1 $329 31.603035129078229 $373 45.299233985412151 $245 $374 forward 7 unknown #
vertex $-1 $328 $375 #
straight-curve $-1 -31.603035129078229 24.949209442772744 4.2268814462868907 0 0 -1 I I #
edge $-1 $333 -24.949209442772744 $329 24.949209442772744 $324 $376 forward 7 unknown #
coedge $-1 $251 $248 $370 $377 reversed $252 $-1 #
vertex $-1 $249 $378 #
straight-curve $-1 -31.603035129078229 -24.949209442772744 4.2268814462868907 0 0 1 I I #
straight-curve $-1 -45.299233985412151 0 6.0933337054999708 0 -1 0 I I #
edge $-1 $379 -10.814192079647594 $253 -6.0933337054999708 $325 $380 forward 7 unknown #
point $-1 -45.299233985412151 -24.949209442772744 6.0933337054999708 #
edge $-1 $373 -10.814192079647594 $256 -6.0933337054999708 $255 $381 forward 7 unknown #
point $-1 -45.299233985412151 24.949209442772744 6.0933337054999708 #
coedge $-1 $270 $269 $262 $341 forward $260 $-1 #
edge $-1 $348 26.525521844905299 $343 36.874205854254349 $340 $382 forward 7 unknown #
edge $-1 $267 10.169757286281714 $348 24.949209442772744 $266 $383 forward 7 unknown #
vertex $-1 $341 $384 #
straight-curve $-1 -31.603035129078229 -24.949209442772748 0.46550807029854013 0 0.81915203911291934 0.57357644374324357 I I #
edge $-1 $343 -19.888542131716502 $271 -3.5404438630069546 $270 $385 forward 7 unknown #
point $-1 -31.603035129078229 -10.169757286281714 10.814192079647594 #
point $-1 -15.254936860368682 -24.949209442772744 0.46550807029854263 #
vertex $-1 $274 $386 #
straight-curve $-1 0 -24.949209442772744 10.814192079647594 1 0 0 I I #
vertex $-1 $277 $387 #
point $-1 -24.932149909446927 -15.415928049880701 2.5785358838169716 #
vertex $-1 $281 $388 #
point $-1 -17.925822079999978 -15.415928049880701 2.5785358838169716 #
coedge $-1 $296 $295 $288 $355 forward $285 $-1 #
edge $-1 $356 39.709307800108533 $359 45.270317619235549 $354 $389 forward 7 unknown #
vertex $-1 $300 $390 #
straight-curve $-1 21.96080867158269 31.977675857156967 10.814192079647597 0 1 0 I I #
edge $-1 $359 -15.995644712618102 $297 4.0653167946889255 $296 $391 forward 7 unknown #
vertex $-1 $358 $392 #
straight-curve $-1 21.96080867158269 -6.4528825331290705 44.031537393434135 0 -0.62932038083071107 0.77714596973225614 I I #
point $-1 21.96080867158269 20.445992603879475 10.814192079647597 #
point $-1 1.8998471642756627 24.949209442772744 5.2531822605205818 #
straight-curve $-1 0 24.949209442772744 10.814192079647594 -1 0 0 I I #
vertex $-1 $303 $393 #
point $-1 13.430327917929176 18.61062957326164 4.7241230346811394 #
straight-curve $-1 -45.299233985412151 24.949209442772744 0 0 0 -1 I I #
point $-1 -45.299233985412151 -24.949209442772744 -10.814192079647594 #
straight-curve $-1 -45.299233985412151 0 -10.814192079647594 0 1 0 I I #
point $-1 -45.299233985412151 24.949209442772744 -10.814192079647594 #
coedge $-1 $324 $372 $332 $377 forward $242 $-1 #
coedge $-1 $326 $325 $372 $394 reversed $159 $-1 #
coedge $-1 $370 $327 $371 $394 forward $242 $-1 #
vertex $-1 $328 $395 #
straight-curve $-1 0 24.949209442772744 10.814192079647594 -1 0 0 I I #
point $-1 -31.603035129078229 24.949209442772744 10.814192079647592 #
straight-curve $-1 -31.603035129078229 0 10.814192079647594 0 1 0 I I #
edge $-1 $379 -45.299233985412151 $333 -31.603035129078229 $332 $396 forward 7 unknown #
point $-1 -31.603035129078229 -24.949209442772744 10.814192079647592 #
vertex $-1 $394 $397 #
straight-curve $-1 -45.299233985412151 -24.949209442772744 0 0 0 -1 I I #
straight-curve $-1 -45.299233985412151 24.949209442772744 0 0 0 -1 I I #
straight-curve $-1 -31.603035129078229 -24.949209442772744 37.339713924552889 0 0 -1 I I #
straight-curve $-1 -31.603035129078229 0 10.814192079647594 0 -1 0 I I #
point $-1 -31.603035129078229 -24.949209442772744 0.46550807029854263 #
straight-curve $-1 -11.714492997361727 -24.949209442772744 0.46550807029854402 1 0 0 I I #
point $-1 -31.603035129078229 -24.949209442772744 10.814192079647592 #
point $-1 -26.932149909446927 -14.268775162394213 0.94023180559113284 #
point $-1 -19.925822079999978 -14.268775162394213 0.94023180559113284 #
straight-curve $-1 21.96080867158269 24.949209442772744 50.52349987975613 0 0 -1 I I #
point $-1 21.96080867158269 24.949209442772744 10.814192079647594 #
straight-curve $-1 5.9651639589645882 24.949209442772744 5.2531822605205818 -1 0 0 I I #
point $-1 21.96080867158269 24.949209442772744 5.2531822605205818 #
point $-1 11.930327917929176 17.444910618663258 3.7801424634350727 #
edge $-1 $373 -24.949209442772744 $379 24.949209442772744 $371 $398 forward 7 unknown #
point $-1 -45.299233985412151 24.949209442772744 10.814192079647594 #
straight-curve $-1 0 -24.949209442772744 10.814192079647594 1 0 0 I I #
point $-1 -45.299233985412151 -24.949209442772744 10.814192079647594 #
straight-curve $-1 -45.299233985412151 0 10.814192079647594 0 -1 0 I I #
End-of-ACIS-data 