500 0 9 0           
7 Unknown 11 ACIS 5.0 NT 24 Fri Mar 26 01:31:23 1999 
-1 9.9999999999999995e-007 1e-010 
body $-1 $9 $-1 $10 #
body $-1 $11 $-1 $12 #
body $-1 $13 $-1 $14 #
body $-1 $15 $-1 $16 #
body $-1 $17 $-1 $18 #
body $-1 $19 $-1 $20 #
body $-1 $21 $-1 $22 #
body $-1 $23 $-1 $24 #
body $-1 $25 $-1 $26 #
lump $-1 $-1 $27 $0 #
transform $-1 1 0 0 0 1 0 0 0 1 73.76934110538042 41.335325493063948 10.024576481312966 1 rotate no_reflect no_shear #
lump $-1 $-1 $28 $1 #
transform $-1 1 0 0 0 1 0 0 0 1 73.76934110538042 41.335325493063948 10.024576481312966 1 rotate no_reflect no_shear #
lump $-1 $-1 $29 $2 #
transform $-1 1 0 0 0 1 0 0 0 1 73.76934110538042 41.335325493063948 10.024576481312966 1 rotate no_reflect no_shear #
lump $-1 $-1 $30 $3 #
transform $-1 1 0 0 0 1 0 0 0 1 73.76934110538042 41.335325493063948 10.024576481312966 1 rotate no_reflect no_shear #
lump $-1 $-1 $31 $4 #
transform $-1 1 0 0 0 1 0 0 0 1 73.76934110538042 41.335325493063948 10.024576481312966 1 rotate no_reflect no_shear #
lump $-1 $-1 $32 $5 #
transform $-1 1 0 0 0 1 0 0 0 1 73.76934110538042 41.335325493063948 10.024576481312966 1 rotate no_reflect no_shear #
lump $-1 $-1 $33 $6 #
transform $-1 1 0 0 0 1 0 0 0 1 73.76934110538042 41.335325493063948 10.024576481312966 1 rotate no_reflect no_shear #
lump $-1 $-1 $34 $7 #
transform $-1 1 0 0 0 1 0 0 0 1 73.76934110538042 41.335325493063948 10.024576481312966 1 rotate no_reflect no_shear #
lump $-1 $-1 $35 $8 #
transform $-1 1 0 0 0 1 0 0 0 1 73.76934110538042 41.335325493063948 10.024576481312966 1 rotate no_reflect no_shear #
shell $-1 $-1 $-1 $36 $-1 $9 #
shell $-1 $-1 $-1 $37 $-1 $11 #
shell $-1 $-1 $-1 $38 $-1 $13 #
shell $-1 $-1 $-1 $39 $-1 $15 #
shell $-1 $-1 $-1 $40 $-1 $17 #
shell $-1 $-1 $-1 $41 $-1 $19 #
shell $-1 $-1 $-1 $42 $-1 $21 #
shell $-1 $-1 $-1 $43 $-1 $23 #
shell $-1 $-1 $-1 $44 $-1 $25 #
face $-1 $45 $46 $27 $-1 $47 forward single #
face $-1 $48 $49 $28 $-1 $50 forward single #
face $-1 $51 $52 $29 $-1 $53 reversed single #
face $-1 $54 $55 $30 $-1 $56 forward single #
face $-1 $57 $58 $31 $-1 $59 forward single #
face $-1 $60 $61 $32 $-1 $62 reversed single #
face $-1 $63 $64 $33 $-1 $65 forward single #
face $-1 $66 $67 $34 $-1 $68 forward single #
face $-1 $69 $70 $35 $-1 $71 forward single #
face $-1 $72 $73 $27 $-1 $74 reversed single #
loop $-1 $-1 $75 $36 #
plane-surface $-1 0 0 10.024576481312966 0 0 1 1 0 0 forward_v I I I I #
face $-1 $76 $77 $28 $-1 $78 reversed single #
loop $-1 $-1 $79 $37 #
plane-surface $-1 0 -37.404805524246015 9.0328565940249916 0 0 1 1 0 0 forward_v I I I I #
face $-1 $80 $81 $29 $-1 $82 reversed single #
loop $-1 $-1 $83 $38 #
plane-surface $-1 124.24663930429665 26.025233915254489 208.94971720974783 0 1 0 0.85716730853699208 0 0.51503806187062418 forward_v I I I I #
face $-1 $84 $85 $30 $-1 $86 forward single #
loop $-1 $87 $88 $39 #
cone-surface $-1 71.722749147872207 30.399545794628622 7.667649123653498 -0.85716730853699208 0 -0.51503806187062418 0.51503806187062418 0 -0.85716730853699208 1 I I 0 1 1 forward I I I I #
face $-1 $89 $90 $31 $-1 $91 forward single #
loop $-1 $92 $93 $40 #
cone-surface $-1 71.722749147872207 36.961013613689815 7.667649123653498 -0.85716730853699208 0 -0.51503806187062418 0.51503806187062418 0 -0.85716730853699208 1 I I 0 1 1 forward I I I I #
face $-1 $94 $95 $32 $-1 $96 reversed single #
loop $-1 $-1 $97 $41 #
plane-surface $-1 -172.49199018177879 -4.0679390034071119 113.45127521667008 0 1 0 -0.66913061440640931 0 0.74314481823134659 forward_v I I I I #
face $-1 $98 $99 $33 $-1 $100 forward single #
loop $-1 $101 $102 $42 #
cone-surface $-1 -69.921249472486664 -1.8375089543420842 6.4764211650634094 0.66913061440640931 0 -0.74314481823134659 0.3715724091156733 0 0.33456530720320465 1 I I 0 1 0.5 forward I I I I #
face $-1 $103 $104 $34 $-1 $105 forward single #
loop $-1 $106 $107 $43 #
cone-surface $-1 -69.921249472486664 1.508136119255461 6.4764211650634094 0.66913061440640931 0 -0.74314481823134659 0.3715724091156733 0 0.33456530720320465 1 I I 0 1 0.5 forward I I I I #
face $-1 $108 $109 $35 $-1 $110 forward single #
loop $-1 $111 $112 $44 #
cone-surface $-1 -69.921249472486664 4.8537811928530061 6.4764211650634094 0.66913061440640931 0 -0.74314481823134659 0.3715724091156733 0 0.33456530720320465 1 I I 0 1 0.5 forward I I I I #
face $-1 $113 $114 $27 $-1 $115 reversed single #
loop $-1 $-1 $116 $45 #
plane-surface $-1 0 0 -10.024576481312966 0 0 1 1 0 0 forward_v I I I I #
coedge $-1 $117 $118 $119 $120 forward $46 $-1 #
face $-1 $121 $122 $28 $-1 $123 reversed single #
loop $-1 $-1 $124 $48 #
plane-surface $-1 0 -37.404805524246015 6.0328565940249916 0 0 1 1 0 0 forward_v I I I I #
coedge $-1 $125 $126 $127 $128 reversed $49 $-1 #
face $-1 $129 $130 $29 $-1 $131 forward single #
loop $-1 $-1 $132 $51 #
plane-surface $-1 -2.2186958313958058 33.680279704159219 132.96168027297165 0.85716730853699208 0 0.51503806187062418 0.51503806187062418 0 -0.85716730853699208 forward_v I I I I #
coedge $-1 $133 $134 $135 $136 reversed $52 $-1 #
face $-1 $-1 $137 $30 $-1 $138 forward single #
loop $-1 $139 $140 $54 #
cone-surface $-1 70.307561134294872 30.399545794628622 6.8173184070756001 -0.85716730853699208 0 -0.51503806187062418 0.25751903093531209 0 -0.42858365426849604 1 I I -0.70710678118654746 0.70710678118654746 0.5 forward I I I I #
loop $-1 $-1 $141 $39 #
coedge $-1 $88 $88 $142 $143 reversed $55 $-1 #
face $-1 $-1 $144 $31 $-1 $145 forward single #
loop $-1 $146 $147 $57 #
cone-surface $-1 70.307561134294872 36.961013613689815 6.8173184070756001 -0.85716730853699208 0 -0.51503806187062418 0.25751903093531209 0 -0.42858365426849604 1 I I -0.70710678118654746 0.70710678118654746 0.5 forward I I I I #
loop $-1 $-1 $148 $40 #
coedge $-1 $93 $93 $149 $150 reversed $58 $-1 #
face $-1 $151 $152 $32 $-1 $153 reversed single #
loop $-1 $-1 $154 $60 #
plane-surface $-1 -73.76934110538042 1.508136119255461 3.8086680430618145 -0.66913061440640931 0 0.74314481823134659 0.74314481823134659 0 0.66913061440640931 forward_v I I I I #
coedge $-1 $155 $156 $157 $158 reversed $61 $-1 #
face $-1 $-1 $159 $33 $-1 $160 forward single #
loop $-1 $161 $162 $63 #
cone-surface $-1 -69.357607962098626 -1.8375089543420842 5.8504338633815962 0.66913061440640931 0 -0.74314481823134659 0.18578620455783665 0 0.16728265360160233 1 I I -0.70710678118654746 0.70710678118654746 0.25 forward I I I I #
loop $-1 $-1 $163 $42 #
coedge $-1 $102 $102 $164 $165 reversed $64 $-1 #
face $-1 $-1 $166 $34 $-1 $167 forward single #
loop $-1 $168 $169 $66 #
cone-surface $-1 -69.357607962098626 1.508136119255461 5.8504338633815962 0.66913061440640931 0 -0.74314481823134659 0.18578620455783665 0 0.16728265360160233 1 I I -0.70710678118654746 0.70710678118654746 0.25 forward I I I I #
loop $-1 $-1 $170 $43 #
coedge $-1 $107 $107 $171 $172 reversed $67 $-1 #
face $-1 $-1 $173 $35 $-1 $174 forward single #
loop $-1 $175 $176 $69 #
cone-surface $-1 -69.357607962098626 4.8537811928530061 5.8504338633815962 0.66913061440640931 0 -0.74314481823134659 0.18578620455783665 0 0.16728265360160233 1 I I -0.70710678118654746 0.70710678118654746 0.25 forward I I I I #
loop $-1 $-1 $177 $44 #
coedge $-1 $112 $112 $178 $179 reversed $70 $-1 #
face $-1 $180 $181 $27 $-1 $182 reversed single #
loop $-1 $-1 $183 $72 #
plane-surface $-1 0 -41.335325493063948 0 0 1 0 0 0 1 forward_v I I I I #
coedge $-1 $184 $185 $186 $187 forward $73 $-1 #
coedge $-1 $188 $75 $189 $190 forward $46 $-1 #
coedge $-1 $75 $188 $191 $192 forward $46 $-1 #
coedge $-1 $193 $194 $75 $120 reversed $195 $-1 #
edge $-1 $196 -41.335325493063948 $197 41.335325493063948 $119 $198 forward 7 unknown #
face $-1 $199 $200 $28 $-1 $201 reversed single #
loop $-1 $-1 $202 $76 #
plane-surface $-1 0 -33.474285555428082 7.5328565940249916 0 -1 0 0 0 -1 forward_v I I I I #
coedge $-1 $203 $204 $205 $206 reversed $77 $-1 #
coedge $-1 $207 $79 $208 $209 forward $49 $-1 #
coedge $-1 $79 $207 $210 $211 reversed $49 $-1 #
coedge $-1 $212 $213 $79 $128 forward $214 $-1 #
edge $-1 $215 14.771882793305075 $216 22.63292273094094 $127 $217 forward 7 unknown #
face $-1 $218 $219 $29 $-1 $220 reversed single #
loop $-1 $-1 $221 $80 #
plane-surface $-1 0 0 10.024576481312966 0 0 1 1 0 0 forward_v I I I I #
coedge $-1 $222 $223 $224 $225 reversed $81 $-1 #
coedge $-1 $134 $83 $226 $227 reversed $52 $-1 #
coedge $-1 $83 $133 $222 $228 reversed $52 $-1 #
coedge $-1 $224 $229 $83 $136 forward $219 $-1 #
edge $-1 $230 94.450282123560953 $231 97.978513467594766 $135 $232 forward 7 unknown #
loop $-1 $-1 $142 $84 #
plane-surface $-1 -2.2186958313958058 33.680279704159219 132.96168027297165 0.85716730853699208 0 0.51503806187062418 0.51503806187062418 0 -0.85716730853699208 forward_v I I I I #
loop $-1 $-1 $233 $54 #
coedge $-1 $140 $140 $141 $234 reversed $85 $-1 #
coedge $-1 $141 $141 $140 $234 forward $87 $-1 #
coedge $-1 $142 $142 $88 $143 forward $137 $-1 #
edge $-1 $235 0 $235 6.2831853071796004 $142 $236 forward 7 unknown #
loop $-1 $-1 $149 $89 #
plane-surface $-1 -2.2186958313958058 33.680279704159219 132.96168027297165 0.85716730853699208 0 0.51503806187062418 0.51503806187062418 0 -0.85716730853699208 forward_v I I I I #
loop $-1 $-1 $237 $57 #
coedge $-1 $147 $147 $148 $238 reversed $90 $-1 #
coedge $-1 $148 $148 $147 $238 forward $92 $-1 #
coedge $-1 $149 $149 $93 $150 forward $144 $-1 #
edge $-1 $239 0 $239 6.2831853071796004 $149 $240 forward 7 unknown #
face $-1 $241 $242 $32 $-1 $243 reversed single #
loop $-1 $-1 $244 $94 #
plane-surface $-1 -172.49199018177879 7.0842112419180339 113.45127521667008 0 -1 0 0.66913061440640931 0 -0.74314481823134659 forward_v I I I I #
coedge $-1 $245 $246 $247 $248 reversed $95 $-1 #
coedge $-1 $156 $97 $249 $250 reversed $61 $-1 #
coedge $-1 $97 $155 $245 $251 reversed $61 $-1 #
coedge $-1 $247 $252 $97 $158 forward $253 $-1 #
edge $-1 $254 12.476653985508975 $255 19.380119537723587 $157 $256 forward 7 unknown #
loop $-1 $-1 $164 $98 #
plane-surface $-1 -73.76934110538042 1.508136119255461 3.8086680430618145 -0.66913061440640931 0 0.74314481823134659 0.74314481823134659 0 0.66913061440640931 forward_v I I I I #
loop $-1 $-1 $257 $63 #
coedge $-1 $162 $162 $163 $258 reversed $99 $-1 #
coedge $-1 $163 $163 $162 $258 forward $101 $-1 #
coedge $-1 $164 $164 $102 $165 forward $159 $-1 #
edge $-1 $259 0 $259 6.2831853071796004 $164 $260 forward 7 unknown #
loop $-1 $-1 $171 $103 #
plane-surface $-1 -73.76934110538042 1.508136119255461 3.8086680430618145 -0.66913061440640931 0 0.74314481823134659 0.74314481823134659 0 0.66913061440640931 forward_v I I I I #
loop $-1 $-1 $261 $66 #
coedge $-1 $169 $169 $170 $262 reversed $104 $-1 #
coedge $-1 $170 $170 $169 $262 forward $106 $-1 #
coedge $-1 $171 $171 $107 $172 forward $166 $-1 #
edge $-1 $263 0 $263 6.2831853071796004 $171 $264 forward 7 unknown #
loop $-1 $-1 $178 $108 #
plane-surface $-1 -73.76934110538042 1.508136119255461 3.8086680430618145 -0.66913061440640931 0 0.74314481823134659 0.74314481823134659 0 0.66913061440640931 forward_v I I I I #
loop $-1 $-1 $265 $69 #
coedge $-1 $176 $176 $177 $266 reversed $109 $-1 #
coedge $-1 $177 $177 $176 $266 forward $111 $-1 #
coedge $-1 $178 $178 $112 $179 forward $173 $-1 #
edge $-1 $267 0 $267 6.2831853071796004 $178 $268 forward 7 unknown #
face $-1 $269 $270 $27 $-1 $271 reversed single #
loop $-1 $-1 $272 $113 #
plane-surface $-1 -73.76934110538042 0 0 1 0 0 0 0 -1 forward_v I I I I #
coedge $-1 $273 $191 $274 $275 forward $114 $-1 #
coedge $-1 $276 $116 $273 $277 forward $73 $-1 #
coedge $-1 $116 $276 $278 $279 forward $73 $-1 #
coedge $-1 $194 $193 $116 $187 reversed $195 $-1 #
edge $-1 $280 -41.335325493063948 $281 41.335325493063948 $186 $282 forward 7 unknown #
coedge $-1 $118 $117 $283 $284 forward $46 $-1 #
coedge $-1 $285 $286 $117 $190 reversed $270 $-1 #
edge $-1 $197 -73.76934110538042 $287 73.76934110538042 $189 $288 forward 7 unknown #
coedge $-1 $183 $289 $118 $192 reversed $114 $-1 #
edge $-1 $290 -73.76934110538042 $196 73.76934110538042 $191 $291 forward 7 unknown #
coedge $-1 $186 $119 $289 $292 forward $195 $-1 #
coedge $-1 $119 $186 $285 $293 reversed $195 $-1 #
loop $-1 $-1 $193 $269 #
vertex $-1 $120 $294 #
vertex $-1 $120 $295 #
straight-curve $-1 73.76934110538042 0 10.024576481312966 0 1 0 I I #
face $-1 $296 $297 $28 $-1 $298 reversed single #
loop $-1 $-1 $299 $121 #
plane-surface $-1 -73.76934110538042 0 0 1 0 0 0 0 -1 forward_v I I I I #
coedge $-1 $300 $208 $213 $301 reversed $122 $-1 #
coedge $-1 $302 $124 $303 $304 reversed $77 $-1 #
coedge $-1 $124 $302 $300 $305 forward $77 $-1 #
coedge $-1 $213 $212 $124 $206 forward $214 $-1 #
edge $-1 $306 -22.63292273094094 $307 -14.771882793305075 $205 $308 forward 7 unknown #
coedge $-1 $126 $125 $299 $309 reversed $49 $-1 #
coedge $-1 $202 $310 $125 $209 reversed $122 $-1 #
edge $-1 $215 -73.76934110538042 $311 73.76934110538042 $208 $312 forward 7 unknown #
coedge $-1 $313 $314 $126 $211 forward $297 $-1 #
edge $-1 $216 -73.76934110538042 $315 73.76934110538042 $210 $316 forward 7 unknown #
coedge $-1 $205 $127 $314 $317 forward $214 $-1 #
coedge $-1 $127 $205 $202 $301 forward $214 $-1 #
loop $-1 $-1 $127 $296 #
vertex $-1 $128 $318 #
vertex $-1 $317 $319 #
straight-curve $-1 73.76934110538042 -18.702402762123008 9.0328565940249916 0 -1 0 I I #
face $-1 $-1 $320 $29 $-1 $321 reversed single #
loop $-1 $-1 $135 $129 #
plane-surface $-1 73.76934110538042 0 0 -1 0 0 0 0 1 forward_v I I I I #
coedge $-1 $226 $322 $323 $324 forward $130 $-1 #
coedge $-1 $323 $132 $134 $228 forward $81 $-1 #
coedge $-1 $132 $323 $325 $326 reversed $81 $-1 #
coedge $-1 $327 $135 $132 $225 forward $219 $-1 #
edge $-1 $231 9.1850940631748799 $328 24.495185640984339 $224 $329 forward 7 unknown #
coedge $-1 $330 $221 $133 $227 forward $130 $-1 #
edge $-1 $331 9.5260462568332684 $230 11.646021453232095 $226 $332 forward 7 unknown #
edge $-1 $231 -147.53868221076092 $331 -143.42252972933255 $134 $333 forward 7 unknown #
coedge $-1 $135 $327 $330 $334 reversed $219 $-1 #
vertex $-1 $334 $335 #
vertex $-1 $136 $336 #
straight-curve $-1 73.76934110538042 26.025233915254489 104.47485860487392 0 0 -1 I I #
coedge $-1 $233 $233 $-1 $337 reversed $139 $-1 #
edge $-1 $338 0 $338 6.2831853071796004 $140 $339 forward 7 unknown #
vertex $-1 $143 $340 #
ellipse-curve $-1 72.709353507181007 30.399545794628622 8.2604608092960596 0.85716730853699208 0 0.51503806187062418 0.51503806187062418 0 -0.85716730853699208 1 I I #
coedge $-1 $237 $237 $-1 $341 reversed $146 $-1 #
edge $-1 $342 0 $342 6.2831853071796004 $147 $343 forward 7 unknown #
vertex $-1 $150 $344 #
ellipse-curve $-1 72.709353507181007 36.961013613689815 8.2604608092960596 0.85716730853699208 0 0.51503806187062418 0.51503806187062418 0 -0.85716730853699208 1 I I #
face $-1 $-1 $253 $32 $-1 $345 forward single #
loop $-1 $-1 $346 $151 #
plane-surface $-1 -73.76934110538042 0 0 1 0 0 0 0 -1 forward_v I I I I #
coedge $-1 $347 $348 $349 $350 reversed $152 $-1 #
coedge $-1 $351 $154 $156 $251 forward $95 $-1 #
coedge $-1 $154 $351 $347 $352 forward $95 $-1 #
coedge $-1 $349 $157 $154 $248 forward $253 $-1 #
edge $-1 $255 -4.8220070630348424 $353 6.3301431822903034 $247 $354 forward 7 unknown #
coedge $-1 $355 $356 $155 $250 forward $242 $-1 #
edge $-1 $357 -52.916969565273227 $254 -46.701061127022072 $249 $358 forward 7 unknown #
edge $-1 $255 -9.2895292853478679 $357 0 $156 $359 forward 7 unknown #
coedge $-1 $157 $349 $355 $360 forward $253 $-1 #
loop $-1 $-1 $349 $241 #
vertex $-1 $250 $361 #
vertex $-1 $158 $362 #
straight-curve $-1 -86.245995090889394 -4.0679390034071119 10.024576481312963 1 0 0 I I #
coedge $-1 $257 $257 $-1 $363 reversed $161 $-1 #
edge $-1 $364 0 $364 6.2831853071796004 $162 $365 forward 7 unknown #
vertex $-1 $165 $366 #
ellipse-curve $-1 -70.317608329273114 -1.8375089543420842 6.9166222621873938 -0.66913061440640931 0 0.74314481823134659 0.3715724091156733 0 0.33456530720320465 1 I I #
coedge $-1 $261 $261 $-1 $367 reversed $168 $-1 #
edge $-1 $368 0 $368 6.2831853071796004 $169 $369 forward 7 unknown #
vertex $-1 $172 $370 #
ellipse-curve $-1 -70.317608329273114 1.508136119255461 6.9166222621873938 -0.66913061440640931 0 0.74314481823134659 0.3715724091156733 0 0.33456530720320465 1 I I #
coedge $-1 $265 $265 $-1 $371 reversed $175 $-1 #
edge $-1 $372 0 $372 6.2831853071796004 $176 $373 forward 7 unknown #
vertex $-1 $179 $374 #
ellipse-curve $-1 -70.317608329273114 4.8537811928530061 6.9166222621873938 -0.66913061440640931 0 0.74314481823134659 0.3715724091156733 0 0.33456530720320465 1 I I #
face $-1 $-1 $195 $27 $-1 $375 reversed single #
loop $-1 $-1 $285 $180 #
plane-surface $-1 0 41.335325493063948 0 0 -1 0 0 0 -1 forward_v I I I I #
coedge $-1 $376 $283 $286 $377 forward $181 $-1 #
coedge $-1 $289 $183 $184 $277 reversed $114 $-1 #
coedge $-1 $283 $376 $183 $275 reversed $181 $-1 #
edge $-1 $290 -10.024576481312966 $378 10.024576481312966 $274 $379 forward 7 unknown #
coedge $-1 $185 $184 $376 $380 forward $73 $-1 #
edge $-1 $281 -73.76934110538042 $378 73.76934110538042 $273 $381 forward 7 unknown #
coedge $-1 $286 $285 $185 $279 reversed $270 $-1 #
edge $-1 $382 -73.76934110538042 $280 73.76934110538042 $278 $383 forward 7 unknown #
vertex $-1 $187 $384 #
vertex $-1 $292 $385 #
straight-curve $-1 73.76934110538042 0 -10.024576481312966 0 -1 0 I I #
coedge $-1 $272 $274 $188 $284 reversed $181 $-1 #
edge $-1 $287 -41.335325493063948 $290 41.335325493063948 $283 $386 forward 7 unknown #
coedge $-1 $278 $189 $194 $293 forward $270 $-1 #
coedge $-1 $189 $278 $272 $377 reversed $270 $-1 #
vertex $-1 $190 $387 #
straight-curve $-1 0 41.335325493063948 10.024576481312966 -1 0 0 I I #
coedge $-1 $191 $273 $193 $292 reversed $114 $-1 #
vertex $-1 $284 $388 #
straight-curve $-1 0 -41.335325493063948 10.024576481312966 1 0 0 I I #
edge $-1 $196 -10.024576481312966 $281 10.024576481312966 $193 $389 forward 7 unknown #
edge $-1 $197 -10.024576481312966 $280 10.024576481312966 $194 $390 forward 7 unknown #
point $-1 73.76934110538042 -41.335325493063948 10.024576481312966 #
point $-1 73.76934110538042 41.335325493063948 10.024576481312966 #
face $-1 $-1 $214 $28 $-1 $391 reversed single #
loop $-1 $-1 $210 $199 #
plane-surface $-1 0 -41.335325493063948 0 0 1 0 0 0 1 forward_v I I I I #
coedge $-1 $392 $393 $207 $309 forward $200 $-1 #
coedge $-1 $310 $202 $204 $305 reversed $122 $-1 #
edge $-1 $307 2.2664282970124958 $215 5.2664282970124958 $213 $394 forward 7 unknown #
coedge $-1 $204 $203 $395 $396 reversed $77 $-1 #
coedge $-1 $314 $313 $203 $304 forward $297 $-1 #
edge $-1 $397 -73.76934110538042 $306 73.76934110538042 $303 $398 forward 7 unknown #
edge $-1 $399 -73.76934110538042 $307 73.76934110538042 $300 $400 forward 7 unknown #
vertex $-1 $304 $401 #
vertex $-1 $206 $402 #
straight-curve $-1 73.76934110538042 -18.702402762123008 6.0328565940249916 0 1 0 I I #
edge $-1 $315 -22.63292273094094 $311 -14.771882793305075 $299 $403 forward 7 unknown #
coedge $-1 $208 $300 $392 $404 reversed $122 $-1 #
vertex $-1 $309 $405 #
straight-curve $-1 0 -33.474285555428082 9.0328565940249916 -1 0 0 I I #
coedge $-1 $303 $210 $393 $406 forward $297 $-1 #
coedge $-1 $210 $303 $212 $317 reversed $297 $-1 #
vertex $-1 $406 $407 #
straight-curve $-1 0 -41.335325493063948 9.0328565940249916 -1 0 0 I I #
edge $-1 $216 -9.0328565940249916 $306 -6.0328565940249916 $212 $408 forward 7 unknown #
point $-1 73.76934110538042 -33.474285555428082 9.0328565940249916 #
point $-1 73.76934110538042 -41.335325493063948 9.0328565940249916 #
loop $-1 $-1 $325 $218 #
plane-surface $-1 0 41.335325493063948 0 0 -1 0 0 0 -1 forward_v I I I I #
coedge $-1 $221 $330 $409 $410 forward $130 $-1 #
coedge $-1 $223 $222 $221 $324 reversed $81 $-1 #
edge $-1 $411 -24.495185640984339 $331 -9.1850940631748799 $221 $412 forward 7 unknown #
coedge $-1 $409 $413 $223 $326 forward $320 $-1 #
edge $-1 $328 -89.982123001250031 $411 -85.865970519821659 $325 $414 forward 7 unknown #
coedge $-1 $229 $224 $413 $415 reversed $219 $-1 #
vertex $-1 $326 $416 #
straight-curve $-1 73.76934110538042 16.840139852079609 6.4963451372791496 0 1 0 I I #
coedge $-1 $322 $226 $229 $334 forward $130 $-1 #
vertex $-1 $227 $417 #
straight-curve $-1 62.123319652148325 26.025233915254489 10.024576481312963 1 0 0 I I #
straight-curve $-1 -2.2186958313958058 26.025233915254489 132.96168027297165 -0.51503806187062418 0 0.85716730853699208 I I #
edge $-1 $230 26.025233915254489 $418 41.335325493063948 $229 $419 forward 7 unknown #
point $-1 73.76934110538042 26.025233915254489 10.024576481312966 #
point $-1 73.76934110538042 26.025233915254489 6.4963451372791496 #
edge $-1 $420 1 $420 0 $233 $-1 forward 7 unknown #
vertex $-1 $234 $421 #
ellipse-curve $-1 70.736144788563365 30.399545794628622 7.0748374380109125 0.85716730853699208 0 0.51503806187062418 0.51503806187062418 0 -0.85716730853699208 1 I I #
point $-1 73.224391569051662 30.399545794628622 7.4032935007590916 #
edge $-1 $422 1 $422 0 $237 $-1 forward 7 unknown #
vertex $-1 $238 $423 #
ellipse-curve $-1 70.736144788563365 36.961013613689815 7.0748374380109125 0.85716730853699208 0 0.51503806187062418 0.51503806187062418 0 -0.85716730853699208 1 I I #
point $-1 73.224391569051662 36.961013613689815 7.4032935007590916 #
plane-surface $-1 0 0 10.024576481312966 0 0 1 1 0 0 forward_v I I I I #
coedge $-1 $356 $355 $348 $424 forward $242 $-1 #
coedge $-1 $348 $244 $246 $352 reversed $152 $-1 #
coedge $-1 $244 $347 $346 $424 reversed $152 $-1 #
coedge $-1 $252 $247 $244 $350 forward $253 $-1 #
edge $-1 $353 -19.380119537723587 $425 -12.476653985508975 $349 $426 forward 7 unknown #
coedge $-1 $246 $245 $356 $427 reversed $95 $-1 #
edge $-1 $428 0 $353 9.2895292853478679 $347 $429 forward 7 unknown #
vertex $-1 $248 $430 #
straight-curve $-1 -66.865875553165807 0.75406805962773049 10.024576481312964 0 1 0 I I #
coedge $-1 $346 $249 $252 $360 reversed $242 $-1 #
coedge $-1 $249 $346 $351 $427 forward $242 $-1 #
vertex $-1 $250 $431 #
straight-curve $-1 -73.76934110538042 -4.0679390034071119 56.725637608335042 0 0 1 I I #
straight-curve $-1 -73.76934110538042 -4.0679390034071119 3.8086680430618145 -0.74314481823134659 0 -0.66913061440640931 I I #
edge $-1 $425 -7.0842112419180339 $254 4.0679390034071119 $355 $432 forward 7 unknown #
point $-1 -73.76934110538042 -4.0679390034071119 10.024576481312966 #
point $-1 -66.865875553165807 -4.0679390034071119 10.024576481312966 #
edge $-1 $433 1 $433 0 $257 $-1 forward 7 unknown #
vertex $-1 $258 $434 #
ellipse-curve $-1 -69.52489061570023 -1.8375089543420842 6.0362200679394329 -0.66913061440640931 0 0.74314481823134659 0.3715724091156733 0 0.33456530720320465 1 I I #
point $-1 -69.946035920157428 -1.8375089543420842 7.2511875693905905 #
edge $-1 $435 1 $435 0 $261 $-1 forward 7 unknown #
vertex $-1 $262 $436 #
ellipse-curve $-1 -69.52489061570023 1.508136119255461 6.0362200679394329 -0.66913061440640931 0 0.74314481823134659 0.3715724091156733 0 0.33456530720320465 1 I I #
point $-1 -69.946035920157428 1.508136119255461 7.2511875693905905 #
edge $-1 $437 1 $437 0 $265 $-1 forward 7 unknown #
vertex $-1 $266 $438 #
ellipse-curve $-1 -69.52489061570023 4.8537811928530061 6.0362200679394329 -0.66913061440640931 0 0.74314481823134659 0.3715724091156733 0 0.33456530720320465 1 I I #
point $-1 -69.946035920157428 4.8537811928530061 7.2511875693905905 #
plane-surface $-1 73.76934110538042 0 0 -1 0 0 0 0 1 forward_v I I I I #
coedge $-1 $274 $272 $276 $380 reversed $181 $-1 #
edge $-1 $287 -10.024576481312966 $382 10.024576481312966 $286 $439 forward 7 unknown #
vertex $-1 $380 $440 #
straight-curve $-1 -73.76934110538042 -41.335325493063948 0 0 0 -1 I I #
edge $-1 $378 -41.335325493063948 $382 41.335325493063948 $376 $441 forward 7 unknown #
straight-curve $-1 0 -41.335325493063948 -10.024576481312966 -1 0 0 I I #
vertex $-1 $279 $442 #
straight-curve $-1 0 41.335325493063948 -10.024576481312966 1 0 0 I I #
point $-1 73.76934110538042 41.335325493063948 -10.024576481312966 #
point $-1 73.76934110538042 -41.335325493063948 -10.024576481312966 #
straight-curve $-1 -73.76934110538042 0 10.024576481312966 0 -1 0 I I #
point $-1 -73.76934110538042 41.335325493063948 10.024576481312966 #
point $-1 -73.76934110538042 -41.335325493063948 10.024576481312966 #
straight-curve $-1 73.76934110538042 -41.335325493063948 0 0 0 -1 I I #
straight-curve $-1 73.76934110538042 41.335325493063948 0 0 0 -1 I I #
plane-surface $-1 73.76934110538042 0 0 -1 0 0 0 0 1 forward_v I I I I #
coedge $-1 $395 $299 $310 $404 forward $200 $-1 #
coedge $-1 $299 $395 $313 $406 reversed $200 $-1 #
straight-curve $-1 73.76934110538042 -33.474285555428082 3.7664282970124958 0 0 1 I I #
coedge $-1 $393 $392 $302 $396 forward $200 $-1 #
edge $-1 $399 14.771882793305075 $397 22.63292273094094 $395 $443 forward 7 unknown #
vertex $-1 $304 $444 #
straight-curve $-1 0 -41.335325493063948 6.0328565940249916 1 0 0 I I #
vertex $-1 $396 $445 #
straight-curve $-1 0 -33.474285555428082 6.0328565940249916 1 0 0 I I #
point $-1 73.76934110538042 -41.335325493063948 6.0328565940249916 #
point $-1 73.76934110538042 -33.474285555428082 6.0328565940249916 #
straight-curve $-1 -73.76934110538042 -18.702402762123008 9.0328565940249916 0 1 0 I I #
edge $-1 $311 -5.2664282970124958 $399 -2.2664282970124958 $392 $446 forward 7 unknown #
point $-1 -73.76934110538042 -33.474285555428082 9.0328565940249916 #
edge $-1 $315 -9.0328565940249916 $397 -6.0328565940249916 $393 $447 forward 7 unknown #
point $-1 -73.76934110538042 -41.335325493063948 9.0328565940249916 #
straight-curve $-1 73.76934110538042 -41.335325493063948 0 0 0 -1 I I #
coedge $-1 $413 $325 $322 $410 reversed $320 $-1 #
edge $-1 $418 -73.76934110538042 $411 -71.649365908981594 $409 $448 forward 7 unknown #
vertex $-1 $326 $449 #
straight-curve $-1 71.649365908981594 16.840139852079609 10.024576481312963 0 -1 0 I I #
coedge $-1 $325 $409 $327 $415 forward $320 $-1 #
straight-curve $-1 27.425122871812494 41.335325493063948 83.626079326705195 -0.51503806187062429 0 0.85716730853699219 I I #
edge $-1 $418 -10.024576481312966 $328 -6.4963451372791496 $327 $450 forward 7 unknown #
point $-1 73.76934110538042 41.335325493063948 6.4963451372791496 #
point $-1 71.649365908981594 26.025233915254489 10.024576481312963 #
vertex $-1 $334 $451 #
straight-curve $-1 73.76934110538042 0 10.024576481312966 0 1 0 I I #
vertex $-1 $337 $452 #
point $-1 71.251182850433992 30.399545794628622 6.2176701294739196 #
vertex $-1 $341 $453 #
point $-1 71.251182850433992 36.961013613689815 6.2176701294739196 #
edge $-1 $425 46.701061127022072 $428 52.916969565273227 $346 $454 forward 7 unknown #
vertex $-1 $360 $455 #
straight-curve $-1 -86.245995090889394 7.0842112419180339 10.024576481312963 -1 0 0 I I #
edge $-1 $428 -6.3301431822903034 $357 4.8220070630348424 $356 $456 forward 7 unknown #
vertex $-1 $427 $457 #
straight-curve $-1 -73.76934110538042 7.0842112419180339 3.8086680430618145 0.74314481823134659 0 0.66913061440640931 I I #
point $-1 -66.865875553165807 7.0842112419180339 10.024576481312966 #
point $-1 -73.76934110538042 -4.0679390034071119 3.8086680430618145 #
straight-curve $-1 -73.76934110538042 0 10.024576481312966 0 -1 0 I I #
vertex $-1 $363 $458 #
point $-1 -69.153318206584558 -1.8375089543420842 6.3707853751426375 #
vertex $-1 $367 $459 #
point $-1 -69.153318206584558 1.508136119255461 6.3707853751426375 #
vertex $-1 $371 $460 #
point $-1 -69.153318206584558 4.8537811928530061 6.3707853751426375 #
straight-curve $-1 -73.76934110538042 41.335325493063948 0 0 0 -1 I I #
point $-1 -73.76934110538042 -41.335325493063948 -10.024576481312966 #
straight-curve $-1 -73.76934110538042 0 -10.024576481312966 0 1 0 I I #
point $-1 -73.76934110538042 41.335325493063948 -10.024576481312966 #
straight-curve $-1 -73.76934110538042 -18.702402762123008 6.0328565940249916 0 -1 0 I I #
point $-1 -73.76934110538042 -41.335325493063948 6.0328565940249916 #
point $-1 -73.76934110538042 -33.474285555428082 6.0328565940249916 #
straight-curve $-1 -73.76934110538042 -33.474285555428082 3.7664282970124958 0 0 -1 I I #
straight-curve $-1 -73.76934110538042 -41.335325493063948 0 0 0 -1 I I #
straight-curve $-1 0 41.335325493063948 10.024576481312966 -1 0 0 I I #
point $-1 71.649365908981594 41.335325493063948 10.024576481312963 #
straight-curve $-1 73.76934110538042 41.335325493063948 0 0 0 -1 I I #
point $-1 73.76934110538042 41.335325493063948 10.024576481312966 #
point $-1 69.878977480026379 30.399545794628622 6.5597993761402877 #
point $-1 69.878977480026379 36.961013613689815 6.5597993761402877 #
straight-curve $-1 -73.76934110538042 7.0842112419180339 56.725637608335042 0 0 -1 I I #
point $-1 -73.76934110538042 7.0842112419180339 10.024576481312966 #
straight-curve $-1 -73.76934110538042 0.75406805962773049 3.8086680430618163 0 -1 0 I I #
point $-1 -73.76934110538042 7.0842112419180339 3.8086680430618145 #
point $-1 -69.190325308497023 -1.8375089543420842 5.6646476588237595 #
point $-1 -69.190325308497023 1.508136119255461 5.6646476588237595 #
point $-1 -69.190325308497023 4.8537811928530061 5.6646476588237595 #
End-of-ACIS-data 