500 0 11 0           
7 Unknown 11 ACIS 5.0 NT 24 Fri Mar 26 02:09:46 1999 
-1 9.9999999999999995e-007 1e-010 
body $-1 $11 $-1 $12 #
body $-1 $13 $-1 $14 #
body $-1 $15 $-1 $16 #
body $-1 $17 $-1 $18 #
body $-1 $19 $-1 $20 #
body $-1 $21 $-1 $22 #
body $-1 $23 $-1 $24 #
body $-1 $25 $-1 $26 #
body $-1 $27 $-1 $28 #
body $-1 $29 $-1 $30 #
body $-1 $31 $-1 $32 #
lump $-1 $-1 $33 $0 #
transform $-1 1 0 0 0 1 0 0 0 1 65.81621753593555 44.699871415340532 21.524474353459549 1 rotate no_reflect no_shear #
lump $-1 $-1 $34 $1 #
transform $-1 1 0 0 0 1 0 0 0 1 65.81621753593555 44.699871415340532 21.524474353459549 1 rotate no_reflect no_shear #
lump $-1 $-1 $35 $2 #
transform $-1 1 0 0 0 1 0 0 0 1 65.81621753593555 44.699871415340532 21.524474353459549 1 rotate no_reflect no_shear #
lump $-1 $-1 $36 $3 #
transform $-1 1 0 0 0 1 0 0 0 1 65.81621753593555 44.699871415340532 21.524474353459549 1 rotate no_reflect no_shear #
lump $-1 $-1 $37 $4 #
transform $-1 1 0 0 0 1 0 0 0 1 65.81621753593555 44.699871415340532 21.524474353459549 1 rotate no_reflect no_shear #
lump $-1 $-1 $38 $5 #
transform $-1 1 0 0 0 1 0 0 0 1 65.81621753593555 44.699871415340532 21.524474353459549 1 rotate no_reflect no_shear #
lump $-1 $-1 $39 $6 #
transform $-1 1 0 0 0 1 0 0 0 1 65.81621753593555 44.699871415340532 21.524474353459549 1 rotate no_reflect no_shear #
lump $-1 $-1 $40 $7 #
transform $-1 1 0 0 0 1 0 0 0 1 65.81621753593555 44.699871415340532 21.524474353459549 1 rotate no_reflect no_shear #
lump $-1 $-1 $41 $8 #
transform $-1 1 0 0 0 1 0 0 0 1 65.81621753593555 44.699871415340532 21.524474353459549 1 rotate no_reflect no_shear #
lump $-1 $-1 $42 $9 #
transform $-1 1 0 0 0 1 0 0 0 1 65.81621753593555 44.699871415340532 21.524474353459549 1 rotate no_reflect no_shear #
lump $-1 $-1 $43 $10 #
transform $-1 1 0 0 0 1 0 0 0 1 65.81621753593555 44.699871415340532 21.524474353459549 1 rotate no_reflect no_shear #
shell $-1 $-1 $-1 $44 $-1 $11 #
shell $-1 $-1 $-1 $45 $-1 $13 #
shell $-1 $-1 $-1 $46 $-1 $15 #
shell $-1 $-1 $-1 $47 $-1 $17 #
shell $-1 $-1 $-1 $48 $-1 $19 #
shell $-1 $-1 $-1 $49 $-1 $21 #
shell $-1 $-1 $-1 $50 $-1 $23 #
shell $-1 $-1 $-1 $51 $-1 $25 #
shell $-1 $-1 $-1 $52 $-1 $27 #
shell $-1 $-1 $-1 $53 $-1 $29 #
shell $-1 $-1 $-1 $54 $-1 $31 #
face $-1 $55 $56 $33 $-1 $57 forward single #
face $-1 $58 $59 $34 $-1 $60 forward single #
face $-1 $61 $62 $35 $-1 $63 forward single #
face $-1 $64 $65 $36 $-1 $66 reversed single #
face $-1 $67 $68 $37 $-1 $69 forward single #
face $-1 $70 $71 $38 $-1 $72 reversed single #
face $-1 $73 $74 $39 $-1 $75 forward single #
face $-1 $76 $77 $40 $-1 $78 forward single #
face $-1 $79 $80 $41 $-1 $81 reversed single #
face $-1 $82 $83 $42 $-1 $84 forward single #
face $-1 $85 $86 $43 $-1 $87 forward single #
face $-1 $88 $89 $33 $-1 $90 reversed single #
loop $-1 $-1 $91 $44 #
plane-surface $-1 0 0 21.524474353459549 0 0 1 1 0 0 forward_v I I I I #
face $-1 $92 $93 $34 $-1 $94 reversed single #
loop $-1 $-1 $95 $45 #
plane-surface $-1 0 -30.690333546950384 -13.112147211357016 0 0 1 1 0 0 forward_v I I I I #
face $-1 $96 $97 $35 $-1 $98 reversed single #
loop $-1 $-1 $99 $46 #
plane-surface $-1 0 30.690333546950377 -13.112147211357016 0 0 1 1 0 0 forward_v I I I I #
face $-1 $100 $101 $36 $-1 $102 reversed single #
loop $-1 $-1 $103 $47 #
plane-surface $-1 117.12787130367607 -8.7472041414285489 179.75625382651998 0 -1 0 -0.87461971476443456 0 -0.48480960649040278 forward_v I I I I #
face $-1 $104 $105 $37 $-1 $106 forward single #
loop $-1 $107 $108 $48 #
cone-surface $-1 58.586065259285022 -12.713999909994392 10.342284758627695 -0.87461971476443456 0 -0.48480960649040278 0.48480960649040278 0 -0.87461971476443456 1 I I 0 1 1 forward I I I I #
face $-1 $109 $110 $38 $-1 $111 reversed single #
loop $-1 $-1 $112 $49 #
plane-surface $-1 -145.03459549916636 -16.68079567856023 119.51309184605562 0 1 0 -0.6018150307709319 0 0.79863550430605224 forward_v I I I I #
face $-1 $113 $114 $39 $-1 $115 forward single #
loop $-1 $116 $117 $50 #
cone-surface $-1 -59.940466678162828 -14.656319422771023 16.44316262273373 0.6018150307709319 0 -0.79863550430605224 0.79863550430605224 0 0.6018150307709319 1 I I 0 1 1 forward I I I I #
face $-1 $118 $119 $40 $-1 $120 forward single #
loop $-1 $121 $122 $51 #
cone-surface $-1 -59.940466678162828 -11.619605039087205 16.44316262273373 0.6018150307709319 0 -0.79863550430605224 0.79863550430605224 0 0.6018150307709319 1 I I 0 1 1 forward I I I I #
face $-1 $123 $124 $41 $-1 $125 reversed single #
loop $-1 $-1 $126 $52 #
plane-surface $-1 -145.03459549916636 5.3290705182007514e-015 119.51309184605562 0 1 0 -0.6018150307709319 0 0.79863550430605224 forward_v I I I I #
face $-1 $127 $128 $42 $-1 $129 forward single #
loop $-1 $130 $131 $53 #
cone-surface $-1 -59.940466678162828 2.0244762557892173 16.44316262273373 0.6018150307709319 0 -0.79863550430605224 0.79863550430605224 0 0.6018150307709319 1 I I 0 1 1 forward I I I I #
face $-1 $132 $133 $43 $-1 $134 forward single #
loop $-1 $135 $136 $54 #
cone-surface $-1 -59.940466678162828 5.0611906394730326 16.44316262273373 0.6018150307709319 0 -0.79863550430605224 0.79863550430605224 0 0.6018150307709319 1 I I 0 1 1 forward I I I I #
face $-1 $137 $138 $33 $-1 $139 reversed single #
loop $-1 $-1 $140 $55 #
plane-surface $-1 0 0 -21.524474353459549 0 0 1 1 0 0 forward_v I I I I #
coedge $-1 $141 $142 $143 $144 forward $56 $-1 #
face $-1 $145 $146 $34 $-1 $147 reversed single #
loop $-1 $-1 $148 $58 #
plane-surface $-1 0 -16.680795678560237 -17.318310782408282 0 -1 0 0 0 -1 forward_v I I I I #
coedge $-1 $149 $150 $151 $152 reversed $59 $-1 #
face $-1 $153 $154 $35 $-1 $155 reversed single #
loop $-1 $-1 $156 $61 #
plane-surface $-1 0 16.68079567856023 -17.318310782408282 0 1 0 0 0 1 forward_v I I I I #
coedge $-1 $157 $158 $159 $160 reversed $62 $-1 #
face $-1 $161 $162 $36 $-1 $163 reversed single #
loop $-1 $-1 $164 $64 #
plane-surface $-1 1.9995484873682159 -12.713999909994392 115.93958477795266 0.87461971476443456 0 0.48480960649040278 0.48480960649040278 0 -0.87461971476443456 forward_v I I I I #
coedge $-1 $165 $166 $167 $168 reversed $65 $-1 #
face $-1 $-1 $169 $37 $-1 $170 forward single #
loop $-1 $171 $172 $67 #
cone-surface $-1 56.659363469039235 -12.713999909994392 9.2742965564580295 -0.87461971476443456 0 -0.48480960649040278 0.24240480324520139 0 -0.43730985738221728 1 I I -0.70710678118654746 0.70710678118654746 0.5 forward I I I I #
loop $-1 $-1 $173 $48 #
coedge $-1 $108 $108 $174 $175 reversed $68 $-1 #
face $-1 $176 $177 $38 $-1 $178 reversed single #
loop $-1 $-1 $179 $70 #
plane-surface $-1 -65.81621753593555 -13.137962230929112 14.386755679398163 -0.6018150307709319 0 0.79863550430605224 0.79863550430605224 0 0.6018150307709319 forward_v I I I I #
coedge $-1 $180 $181 $182 $183 reversed $71 $-1 #
face $-1 $-1 $184 $39 $-1 $185 forward single #
loop $-1 $186 $187 $73 #
cone-surface $-1 -58.499844513298939 -14.656319422771023 14.531392476885589 0.6018150307709319 0 -0.79863550430605224 0.39931775215302612 0 0.30090751538546595 1 I I -0.70710678118654746 0.70710678118654746 0.5 forward I I I I #
loop $-1 $-1 $188 $50 #
coedge $-1 $117 $117 $189 $190 reversed $74 $-1 #
face $-1 $-1 $191 $40 $-1 $192 forward single #
loop $-1 $193 $194 $76 #
cone-surface $-1 -58.499844513298939 -11.619605039087205 14.531392476885589 0.6018150307709319 0 -0.79863550430605224 0.39931775215302612 0 0.30090751538546595 1 I I -0.70710678118654746 0.70710678118654746 0.5 forward I I I I #
loop $-1 $-1 $195 $51 #
coedge $-1 $122 $122 $196 $197 reversed $77 $-1 #
face $-1 $198 $199 $41 $-1 $200 reversed single #
loop $-1 $-1 $201 $79 #
plane-surface $-1 -65.81621753593555 3.542833447631125 14.386755679398163 -0.6018150307709319 0 0.79863550430605224 0.79863550430605224 0 0.6018150307709319 forward_v I I I I #
coedge $-1 $202 $203 $204 $205 reversed $80 $-1 #
face $-1 $-1 $206 $42 $-1 $207 forward single #
loop $-1 $208 $209 $82 #
cone-surface $-1 -58.499844513298939 2.0244762557892173 14.531392476885589 0.6018150307709319 0 -0.79863550430605224 0.39931775215302612 0 0.30090751538546595 1 I I -0.70710678118654746 0.70710678118654746 0.5 forward I I I I #
loop $-1 $-1 $210 $53 #
coedge $-1 $131 $131 $211 $212 reversed $83 $-1 #
face $-1 $-1 $213 $43 $-1 $214 forward single #
loop $-1 $215 $216 $85 #
cone-surface $-1 -58.499844513298939 5.0611906394730326 14.531392476885589 0.6018150307709319 0 -0.79863550430605224 0.39931775215302612 0 0.30090751538546595 1 I I -0.70710678118654746 0.70710678118654746 0.5 forward I I I I #
loop $-1 $-1 $217 $54 #
coedge $-1 $136 $136 $218 $219 reversed $86 $-1 #
face $-1 $220 $221 $33 $-1 $222 reversed single #
loop $-1 $-1 $223 $88 #
plane-surface $-1 0 -44.699871415340532 0 0 1 0 0 0 1 forward_v I I I I #
coedge $-1 $224 $225 $226 $227 forward $89 $-1 #
coedge $-1 $228 $91 $229 $230 forward $56 $-1 #
coedge $-1 $91 $228 $231 $232 forward $56 $-1 #
coedge $-1 $233 $234 $91 $144 reversed $235 $-1 #
edge $-1 $236 -44.699871415340532 $237 44.699871415340532 $143 $238 forward 7 unknown #
face $-1 $239 $240 $34 $-1 $241 reversed single #
loop $-1 $-1 $242 $92 #
plane-surface $-1 0 0 -21.524474353459549 0 0 1 1 0 0 forward_v I I I I #
coedge $-1 $243 $244 $245 $246 reversed $93 $-1 #
coedge $-1 $247 $95 $244 $248 forward $59 $-1 #
coedge $-1 $95 $247 $249 $250 reversed $59 $-1 #
coedge $-1 $251 $245 $95 $152 forward $240 $-1 #
edge $-1 $252 1.3356289050850449 $253 29.354704641865339 $151 $254 forward 7 unknown #
face $-1 $255 $256 $35 $-1 $257 reversed single #
loop $-1 $-1 $159 $96 #
plane-surface $-1 65.81621753593555 0 0 -1 0 0 0 0 1 forward_v I I I I #
coedge $-1 $258 $259 $260 $261 reversed $97 $-1 #
coedge $-1 $262 $99 $263 $264 reversed $62 $-1 #
coedge $-1 $99 $262 $259 $265 forward $62 $-1 #
coedge $-1 $266 $267 $99 $160 forward $154 $-1 #
edge $-1 $268 -29.354704641865336 $269 -1.3356289050850414 $159 $270 forward 7 unknown #
face $-1 $271 $272 $36 $-1 $273 forward single #
loop $-1 $-1 $274 $100 #
plane-surface $-1 117.12787130367607 -16.680795678560237 179.75625382651998 0 1 0 0.87461971476443456 0 0.48480960649040278 forward_v I I I I #
coedge $-1 $275 $276 $277 $278 reversed $101 $-1 #
coedge $-1 $166 $103 $279 $280 reversed $65 $-1 #
coedge $-1 $103 $165 $275 $281 reversed $65 $-1 #
coedge $-1 $277 $282 $103 $168 forward $272 $-1 #
edge $-1 $283 -7.2522818840975134 $284 4.2292388034764059 $167 $285 forward 7 unknown #
loop $-1 $-1 $174 $104 #
plane-surface $-1 1.9995484873682159 -12.713999909994392 115.93958477795266 0.87461971476443456 0 0.48480960649040278 0.48480960649040278 0 -0.87461971476443456 forward_v I I I I #
loop $-1 $-1 $286 $67 #
coedge $-1 $172 $172 $173 $287 reversed $105 $-1 #
coedge $-1 $173 $173 $172 $287 forward $107 $-1 #
coedge $-1 $174 $174 $108 $175 forward $169 $-1 #
edge $-1 $288 0 $288 6.2831853071796004 $174 $289 forward 7 unknown #
face $-1 $290 $291 $38 $-1 $292 reversed single #
loop $-1 $-1 $293 $109 #
plane-surface $-1 -145.03459549916636 -9.5951287832979926 119.51309184605562 0 -1 0 0.6018150307709319 0 -0.79863550430605224 forward_v I I I I #
coedge $-1 $294 $295 $296 $297 reversed $110 $-1 #
coedge $-1 $181 $112 $298 $299 reversed $71 $-1 #
coedge $-1 $112 $180 $294 $300 reversed $71 $-1 #
coedge $-1 $296 $301 $112 $183 forward $302 $-1 #
edge $-1 $303 6.7010802136476286 $304 16.173152630236189 $182 $305 forward 7 unknown #
loop $-1 $-1 $189 $113 #
plane-surface $-1 -65.81621753593555 -13.137962230929112 14.386755679398163 -0.6018150307709319 0 0.79863550430605224 0.79863550430605224 0 0.6018150307709319 forward_v I I I I #
loop $-1 $-1 $306 $73 #
coedge $-1 $187 $187 $188 $307 reversed $114 $-1 #
coedge $-1 $188 $188 $187 $307 forward $116 $-1 #
coedge $-1 $189 $189 $117 $190 forward $184 $-1 #
edge $-1 $308 0 $308 6.2831853071796004 $189 $309 forward 7 unknown #
loop $-1 $-1 $196 $118 #
plane-surface $-1 -65.81621753593555 -13.137962230929112 14.386755679398163 -0.6018150307709319 0 0.79863550430605224 0.79863550430605224 0 0.6018150307709319 forward_v I I I I #
loop $-1 $-1 $310 $76 #
coedge $-1 $194 $194 $195 $311 reversed $119 $-1 #
coedge $-1 $195 $195 $194 $311 forward $121 $-1 #
coedge $-1 $196 $196 $122 $197 forward $191 $-1 #
edge $-1 $312 0 $312 6.2831853071796004 $196 $313 forward 7 unknown #
face $-1 $314 $315 $41 $-1 $316 forward single #
loop $-1 $-1 $317 $123 #
plane-surface $-1 -145.03459549916636 7.0856668952622446 119.51309184605562 0 -1 0 0.6018150307709319 0 -0.79863550430605224 forward_v I I I I #
coedge $-1 $318 $319 $320 $321 reversed $124 $-1 #
coedge $-1 $203 $126 $322 $323 reversed $80 $-1 #
coedge $-1 $126 $202 $318 $324 reversed $80 $-1 #
coedge $-1 $320 $325 $126 $205 forward $315 $-1 #
edge $-1 $326 6.7010802136476286 $327 16.173152630236189 $204 $328 forward 7 unknown #
loop $-1 $-1 $211 $127 #
plane-surface $-1 -65.81621753593555 3.542833447631125 14.386755679398163 -0.6018150307709319 0 0.79863550430605224 0.79863550430605224 0 0.6018150307709319 forward_v I I I I #
loop $-1 $-1 $329 $82 #
coedge $-1 $209 $209 $210 $330 reversed $128 $-1 #
coedge $-1 $210 $210 $209 $330 forward $130 $-1 #
coedge $-1 $211 $211 $131 $212 forward $206 $-1 #
edge $-1 $331 0 $331 6.2831853071796004 $211 $332 forward 7 unknown #
loop $-1 $-1 $218 $132 #
plane-surface $-1 -65.81621753593555 3.542833447631125 14.386755679398163 -0.6018150307709319 0 0.79863550430605224 0.79863550430605224 0 0.6018150307709319 forward_v I I I I #
loop $-1 $-1 $333 $85 #
coedge $-1 $216 $216 $217 $334 reversed $133 $-1 #
coedge $-1 $217 $217 $216 $334 forward $135 $-1 #
coedge $-1 $218 $218 $136 $219 forward $213 $-1 #
edge $-1 $335 0 $335 6.2831853071796004 $218 $336 forward 7 unknown #
face $-1 $337 $338 $33 $-1 $339 reversed single #
loop $-1 $-1 $340 $137 #
plane-surface $-1 -65.81621753593555 0 0 1 0 0 0 0 -1 forward_v I I I I #
coedge $-1 $341 $231 $342 $343 forward $138 $-1 #
coedge $-1 $344 $140 $341 $345 forward $89 $-1 #
coedge $-1 $140 $344 $346 $347 forward $89 $-1 #
coedge $-1 $234 $233 $140 $227 reversed $235 $-1 #
edge $-1 $348 -44.699871415340532 $349 44.699871415340532 $226 $350 forward 7 unknown #
coedge $-1 $142 $141 $351 $352 forward $56 $-1 #
coedge $-1 $353 $354 $141 $230 reversed $338 $-1 #
edge $-1 $237 -65.81621753593555 $355 65.81621753593555 $229 $356 forward 7 unknown #
coedge $-1 $223 $357 $142 $232 reversed $138 $-1 #
edge $-1 $358 -65.81621753593555 $236 65.81621753593555 $231 $359 forward 7 unknown #
coedge $-1 $226 $143 $357 $360 forward $235 $-1 #
coedge $-1 $143 $226 $353 $361 reversed $235 $-1 #
loop $-1 $-1 $233 $337 #
vertex $-1 $144 $362 #
vertex $-1 $144 $363 #
straight-curve $-1 65.81621753593555 0 21.524474353459549 0 1 0 I I #
face $-1 $364 $365 $34 $-1 $366 reversed single #
loop $-1 $-1 $245 $145 #
plane-surface $-1 65.81621753593555 0 0 -1 0 0 0 0 1 forward_v I I I I #
coedge $-1 $367 $368 $243 $369 forward $146 $-1 #
coedge $-1 $370 $148 $242 $369 reversed $93 $-1 #
coedge $-1 $148 $370 $149 $248 reversed $93 $-1 #
coedge $-1 $151 $371 $148 $246 forward $240 $-1 #
edge $-1 $372 -12.865318962255408 $252 -4.4529918201528744 $245 $373 forward 7 unknown #
coedge $-1 $150 $149 $374 $375 reversed $59 $-1 #
edge $-1 $252 -65.81621753593555 $376 65.81621753593555 $244 $377 forward 7 unknown #
coedge $-1 $378 $379 $150 $250 forward $365 $-1 #
edge $-1 $253 -65.81621753593555 $380 65.81621753593555 $249 $381 forward 7 unknown #
coedge $-1 $371 $151 $379 $382 forward $240 $-1 #
vertex $-1 $152 $383 #
vertex $-1 $382 $384 #
straight-curve $-1 65.81621753593555 -15.345166773475192 -13.112147211357016 0 -1 0 I I #
face $-1 $385 $386 $35 $-1 $387 reversed single #
loop $-1 $-1 $388 $153 #
plane-surface $-1 0 0 -21.524474353459549 0 0 1 1 0 0 forward_v I I I I #
coedge $-1 $389 $156 $388 $390 reversed $97 $-1 #
coedge $-1 $156 $389 $158 $265 reversed $97 $-1 #
coedge $-1 $391 $392 $156 $261 forward $386 $-1 #
edge $-1 $393 -12.865318962255408 $394 -4.4529918201528744 $260 $395 forward 7 unknown #
coedge $-1 $158 $157 $391 $396 reversed $62 $-1 #
coedge $-1 $397 $398 $157 $264 forward $399 $-1 #
edge $-1 $400 -65.81621753593555 $268 65.81621753593555 $263 $401 forward 7 unknown #
edge $-1 $394 -65.81621753593555 $269 65.81621753593555 $259 $402 forward 7 unknown #
coedge $-1 $403 $159 $389 $404 forward $154 $-1 #
coedge $-1 $159 $403 $397 $405 reversed $154 $-1 #
vertex $-1 $405 $406 #
vertex $-1 $160 $407 #
straight-curve $-1 65.81621753593555 15.345166773475189 -13.112147211357016 0 -1 0 I I #
face $-1 $-1 $408 $36 $-1 $409 reversed single #
loop $-1 $-1 $167 $161 #
plane-surface $-1 0 0 21.524474353459549 0 0 1 1 0 0 forward_v I I I I #
coedge $-1 $410 $411 $412 $413 reversed $162 $-1 #
coedge $-1 $414 $164 $166 $281 forward $101 $-1 #
coedge $-1 $164 $414 $410 $415 forward $101 $-1 #
coedge $-1 $412 $167 $164 $278 forward $272 $-1 #
edge $-1 $284 2.3902041864313528 $416 10.323795723563041 $277 $417 forward 7 unknown #
coedge $-1 $418 $419 $165 $280 forward $408 $-1 #
edge $-1 $420 -89.066864951615216 $283 -68.353652559800437 $279 $421 forward 7 unknown #
edge $-1 $284 107.94989963143283 $420 131.63243507187113 $166 $422 forward 7 unknown #
coedge $-1 $167 $412 $418 $423 forward $272 $-1 #
vertex $-1 $280 $424 #
vertex $-1 $168 $425 #
straight-curve $-1 58.563935651838037 -8.7472041414285489 21.524474353459553 -1 0 0 I I #
coedge $-1 $286 $286 $-1 $426 reversed $171 $-1 #
edge $-1 $427 0 $427 6.2831853071796004 $172 $428 forward 7 unknown #
vertex $-1 $175 $429 #
ellipse-curve $-1 60.07545719214859 -12.713999909994392 11.167868157552158 0.87461971476443456 0 0.48480960649040278 0.48480960649040278 0 -0.87461971476443456 1 I I #
face $-1 $-1 $302 $38 $-1 $430 forward single #
loop $-1 $-1 $431 $176 #
plane-surface $-1 -65.81621753593555 0 0 1 0 0 0 0 -1 forward_v I I I I #
coedge $-1 $432 $433 $434 $435 reversed $177 $-1 #
coedge $-1 $436 $179 $181 $300 forward $110 $-1 #
coedge $-1 $179 $436 $432 $437 forward $110 $-1 #
coedge $-1 $434 $182 $179 $297 forward $302 $-1 #
edge $-1 $304 -10.111814563095674 $438 -3.0261476678334365 $296 $439 forward 7 unknown #
coedge $-1 $440 $441 $180 $299 forward $291 $-1 #
edge $-1 $442 -45.369790243629645 $303 -38.232071569568262 $298 $443 forward 7 unknown #
edge $-1 $304 -11.86031971471016 $442 0 $181 $444 forward 7 unknown #
coedge $-1 $182 $434 $440 $445 forward $302 $-1 #
loop $-1 $-1 $434 $290 #
vertex $-1 $299 $446 #
vertex $-1 $183 $447 #
straight-curve $-1 -72.517297749583179 -16.68079567856023 21.524474353459553 1 0 0 I I #
coedge $-1 $306 $306 $-1 $448 reversed $186 $-1 #
edge $-1 $449 0 $449 6.2831853071796004 $187 $450 forward 7 unknown #
vertex $-1 $190 $451 #
ellipse-curve $-1 -61.080181327641263 -14.656319422771023 17.955615016428862 -0.6018150307709319 0 0.79863550430605224 0.79863550430605224 0 0.6018150307709319 1 I I #
coedge $-1 $310 $310 $-1 $452 reversed $193 $-1 #
edge $-1 $453 0 $453 6.2831853071796004 $194 $454 forward 7 unknown #
vertex $-1 $197 $455 #
ellipse-curve $-1 -61.080181327641263 -11.619605039087205 17.955615016428862 -0.6018150307709319 0 0.79863550430605224 0.79863550430605224 0 0.6018150307709319 1 I I #
face $-1 $-1 $456 $41 $-1 $457 reversed single #
loop $-1 $-1 $204 $198 #
plane-surface $-1 0 0 21.524474353459549 0 0 1 1 0 0 forward_v I I I I #
coedge $-1 $458 $459 $460 $461 reversed $199 $-1 #
coedge $-1 $462 $201 $203 $324 forward $124 $-1 #
coedge $-1 $201 $462 $458 $463 forward $124 $-1 #
coedge $-1 $460 $204 $201 $321 forward $315 $-1 #
edge $-1 $327 -1.7714167238155571 $464 5.3142501714466821 $320 $465 forward 7 unknown #
coedge $-1 $466 $467 $202 $323 forward $456 $-1 #
edge $-1 $468 -45.369790243629645 $326 -38.232071569568262 $322 $469 forward 7 unknown #
edge $-1 $327 -11.86031971471016 $468 0 $203 $470 forward 7 unknown #
coedge $-1 $204 $460 $466 $471 forward $315 $-1 #
vertex $-1 $323 $472 #
vertex $-1 $205 $473 #
straight-curve $-1 -72.517297749583179 5.3290705182007514e-015 21.524474353459553 1 0 0 I I #
coedge $-1 $329 $329 $-1 $474 reversed $208 $-1 #
edge $-1 $475 0 $475 6.2831853071796004 $209 $476 forward 7 unknown #
vertex $-1 $212 $477 #
ellipse-curve $-1 -61.080181327641263 2.0244762557892173 17.955615016428862 -0.6018150307709319 0 0.79863550430605224 0.79863550430605224 0 0.6018150307709319 1 I I #
coedge $-1 $333 $333 $-1 $478 reversed $215 $-1 #
edge $-1 $479 0 $479 6.2831853071796004 $216 $480 forward 7 unknown #
vertex $-1 $219 $481 #
ellipse-curve $-1 -61.080181327641263 5.0611906394730326 17.955615016428862 -0.6018150307709319 0 0.79863550430605224 0.79863550430605224 0 0.6018150307709319 1 I I #
face $-1 $-1 $235 $33 $-1 $482 reversed single #
loop $-1 $-1 $353 $220 #
plane-surface $-1 0 44.699871415340532 0 0 -1 0 0 0 -1 forward_v I I I I #
coedge $-1 $483 $351 $354 $484 forward $221 $-1 #
coedge $-1 $357 $223 $224 $345 reversed $138 $-1 #
coedge $-1 $351 $483 $223 $343 reversed $221 $-1 #
edge $-1 $358 -21.524474353459549 $485 21.524474353459549 $342 $486 forward 7 unknown #
coedge $-1 $225 $224 $483 $487 forward $89 $-1 #
edge $-1 $349 -65.81621753593555 $485 65.81621753593555 $341 $488 forward 7 unknown #
coedge $-1 $354 $353 $225 $347 reversed $338 $-1 #
edge $-1 $489 -65.81621753593555 $348 65.81621753593555 $346 $490 forward 7 unknown #
vertex $-1 $227 $491 #
vertex $-1 $360 $492 #
straight-curve $-1 65.81621753593555 0 -21.524474353459549 0 -1 0 I I #
coedge $-1 $340 $342 $228 $352 reversed $221 $-1 #
edge $-1 $355 -44.699871415340532 $358 44.699871415340532 $351 $493 forward 7 unknown #
coedge $-1 $346 $229 $234 $361 forward $338 $-1 #
coedge $-1 $229 $346 $340 $484 reversed $338 $-1 #
vertex $-1 $230 $494 #
straight-curve $-1 0 44.699871415340532 21.524474353459549 -1 0 0 I I #
coedge $-1 $231 $341 $233 $360 reversed $138 $-1 #
vertex $-1 $352 $495 #
straight-curve $-1 0 -44.699871415340532 21.524474353459549 1 0 0 I I #
edge $-1 $236 -21.524474353459549 $349 21.524474353459549 $233 $496 forward 7 unknown #
edge $-1 $237 -21.524474353459549 $348 21.524474353459549 $234 $497 forward 7 unknown #
point $-1 65.81621753593555 -44.699871415340532 21.524474353459549 #
point $-1 65.81621753593555 44.699871415340532 21.524474353459549 #
face $-1 $-1 $498 $34 $-1 $499 reversed single #
loop $-1 $-1 $249 $239 #
plane-surface $-1 0 -44.699871415340532 0 0 1 0 0 0 1 forward_v I I I I #
coedge $-1 $500 $242 $371 $501 forward $146 $-1 #
coedge $-1 $242 $500 $502 $503 forward $146 $-1 #
edge $-1 $504 -65.81621753593555 $372 65.81621753593555 $242 $505 forward 7 unknown #
coedge $-1 $244 $243 $506 $507 reversed $93 $-1 #
coedge $-1 $245 $251 $367 $501 reversed $240 $-1 #
vertex $-1 $501 $508 #
straight-curve $-1 65.81621753593555 -16.680795678560237 -8.6591553912041412 0 0 1 I I #
coedge $-1 $506 $509 $247 $375 forward $498 $-1 #
edge $-1 $380 -29.354704641865339 $376 -1.3356289050850449 $374 $510 forward 7 unknown #
vertex $-1 $375 $511 #
straight-curve $-1 0 -16.680795678560237 -13.112147211357016 -1 0 0 I I #
coedge $-1 $512 $249 $509 $513 forward $365 $-1 #
coedge $-1 $249 $512 $251 $382 reversed $365 $-1 #
vertex $-1 $513 $514 #
straight-curve $-1 0 -44.699871415340532 -13.112147211357016 -1 0 0 I I #
edge $-1 $253 13.112147211357016 $515 21.524474353459549 $251 $516 forward 7 unknown #
point $-1 65.81621753593555 -16.680795678560237 -13.112147211357016 #
point $-1 65.81621753593555 -44.699871415340532 -13.112147211357016 #
face $-1 $-1 $399 $35 $-1 $517 reversed single #
loop $-1 $-1 $391 $255 #
plane-surface $-1 -65.81621753593555 0 0 1 0 0 0 0 -1 forward_v I I I I #
coedge $-1 $518 $519 $258 $390 forward $256 $-1 #
coedge $-1 $259 $258 $266 $404 reversed $97 $-1 #
edge $-1 $520 -65.81621753593555 $393 65.81621753593555 $388 $521 forward 7 unknown #
coedge $-1 $522 $260 $262 $396 forward $386 $-1 #
coedge $-1 $260 $522 $518 $523 reversed $386 $-1 #
vertex $-1 $523 $524 #
vertex $-1 $396 $525 #
straight-curve $-1 -65.81621753593555 16.68079567856023 -8.6591553912041412 0 0 1 I I #
edge $-1 $394 1.3356289050850414 $400 29.354704641865336 $391 $526 forward 7 unknown #
coedge $-1 $527 $263 $267 $405 forward $399 $-1 #
coedge $-1 $263 $527 $522 $528 reversed $399 $-1 #
loop $-1 $-1 $263 $385 #
vertex $-1 $528 $529 #
straight-curve $-1 0 44.699871415340532 -13.112147211357016 1 0 0 I I #
straight-curve $-1 0 16.68079567856023 -13.112147211357016 1 0 0 I I #
coedge $-1 $267 $266 $519 $530 reversed $154 $-1 #
edge $-1 $269 4.4529918201528744 $520 12.865318962255408 $266 $531 forward 7 unknown #
edge $-1 $268 13.112147211357016 $532 21.524474353459549 $267 $533 forward 7 unknown #
point $-1 65.81621753593555 44.699871415340525 -13.112147211357016 #
point $-1 65.81621753593555 16.68079567856023 -13.112147211357016 #
loop $-1 $-1 $279 $271 #
plane-surface $-1 65.81621753593555 0 0 -1 0 0 0 0 1 forward_v I I I I #
coedge $-1 $411 $274 $276 $415 reversed $162 $-1 #
coedge $-1 $274 $410 $534 $535 reversed $162 $-1 #
coedge $-1 $282 $277 $274 $413 forward $272 $-1 #
edge $-1 $416 -4.2292388034764059 $536 7.2522818840975134 $412 $537 forward 7 unknown #
coedge $-1 $276 $275 $419 $538 reversed $101 $-1 #
edge $-1 $539 -131.63243507187113 $416 -107.94989963143283 $410 $540 forward 7 unknown #
vertex $-1 $278 $541 #
straight-curve $-1 54.334696848361624 -6.3569999549971961 21.524474353459553 0 -1 0 I I #
coedge $-1 $534 $279 $282 $423 reversed $408 $-1 #
coedge $-1 $279 $534 $414 $538 forward $408 $-1 #
vertex $-1 $280 $542 #
straight-curve $-1 65.81621753593555 -8.7472041414285489 89.87812691325999 0 0 1 I I #
straight-curve $-1 1.9995484873682159 -8.7472041414285489 115.93958477795266 0.48480960649040278 0 -0.87461971476443456 I I #
edge $-1 $536 -16.680795678560237 $283 -8.7472041414285489 $418 $543 forward 7 unknown #
point $-1 65.81621753593555 -8.7472041414285489 21.524474353459549 #
point $-1 54.334696848361631 -8.7472041414285489 21.524474353459553 #
edge $-1 $544 1 $544 0 $286 $-1 forward 7 unknown #
vertex $-1 $287 $545 #
ellipse-curve $-1 57.096673326421453 -12.713999909994392 9.5167013597032302 0.87461971476443456 0 0.48480960649040278 0.48480960649040278 0 -0.87461971476443456 1 I I #
point $-1 60.560266798638999 -12.713999909994392 10.293248442787728 #
plane-surface $-1 0 0 21.524474353459549 0 0 1 1 0 0 forward_v I I I I #
coedge $-1 $441 $440 $433 $546 forward $291 $-1 #
coedge $-1 $433 $293 $295 $437 reversed $177 $-1 #
coedge $-1 $293 $432 $431 $546 reversed $177 $-1 #
coedge $-1 $301 $296 $293 $435 forward $302 $-1 #
edge $-1 $438 -16.173152630236189 $547 -6.7010802136476286 $434 $548 forward 7 unknown #
coedge $-1 $295 $294 $441 $549 reversed $110 $-1 #
edge $-1 $550 0 $438 11.86031971471016 $432 $551 forward 7 unknown #
vertex $-1 $297 $552 #
straight-curve $-1 -56.34414511934699 -6.5689811154645561 21.524474353459549 0 1 0 I I #
coedge $-1 $431 $298 $301 $445 reversed $291 $-1 #
coedge $-1 $298 $431 $436 $549 forward $291 $-1 #
vertex $-1 $299 $553 #
straight-curve $-1 -65.81621753593555 -16.68079567856023 59.756545923027808 0 0 1 I I #
straight-curve $-1 -65.81621753593555 -16.68079567856023 14.386755679398163 -0.79863550430605224 0 -0.6018150307709319 I I #
edge $-1 $547 9.5951287832979926 $303 16.68079567856023 $440 $554 forward 7 unknown #
point $-1 -65.81621753593555 -16.68079567856023 21.524474353459549 #
point $-1 -56.34414511934699 -16.68079567856023 21.524474353459549 #
edge $-1 $555 1 $555 0 $306 $-1 forward 7 unknown #
vertex $-1 $307 $556 #
ellipse-curve $-1 -58.800752028684407 -14.656319422771023 14.930710229038615 -0.6018150307709319 0 0.79863550430605224 0.79863550430605224 0 0.6018150307709319 1 I I #
point $-1 -60.281545823335193 -14.656319422771023 18.557430047199773 #
edge $-1 $557 1 $557 0 $310 $-1 forward 7 unknown #
vertex $-1 $311 $558 #
ellipse-curve $-1 -58.800752028684407 -11.619605039087205 14.930710229038615 -0.6018150307709319 0 0.79863550430605224 0.79863550430605224 0 0.6018150307709319 1 I I #
point $-1 -60.281545823335193 -11.619605039087205 18.557430047199773 #
loop $-1 $-1 $322 $314 #
plane-surface $-1 -65.81621753593555 0 0 1 0 0 0 0 -1 forward_v I I I I #
coedge $-1 $459 $317 $319 $463 reversed $199 $-1 #
coedge $-1 $317 $458 $559 $560 reversed $199 $-1 #
coedge $-1 $325 $320 $317 $461 forward $315 $-1 #
edge $-1 $464 -16.173152630236189 $561 -6.7010802136476286 $460 $562 forward 7 unknown #
coedge $-1 $319 $318 $467 $563 reversed $124 $-1 #
edge $-1 $564 0 $464 11.86031971471016 $458 $565 forward 7 unknown #
vertex $-1 $321 $566 #
straight-curve $-1 -56.34414511934699 1.7714167238155625 21.524474353459549 0 1 0 I I #
coedge $-1 $559 $322 $325 $471 reversed $456 $-1 #
coedge $-1 $322 $559 $462 $563 forward $456 $-1 #
vertex $-1 $323 $567 #
straight-curve $-1 -65.81621753593555 5.3290705182007514e-015 59.756545923027808 0 0 1 I I #
straight-curve $-1 -65.81621753593555 5.3290705182007514e-015 14.386755679398163 -0.79863550430605224 0 -0.6018150307709319 I I #
edge $-1 $561 -7.0856668952622446 $326 -5.3290705182007514e-015 $466 $568 forward 7 unknown #
point $-1 -65.81621753593555 5.3290705182007514e-015 21.524474353459549 #
point $-1 -56.34414511934699 5.3290705182007514e-015 21.524474353459549 #
edge $-1 $569 1 $569 0 $329 $-1 forward 7 unknown #
vertex $-1 $330 $570 #
ellipse-curve $-1 -58.800752028684407 2.0244762557892173 14.930710229038615 -0.6018150307709319 0 0.79863550430605224 0.79863550430605224 0 0.6018150307709319 1 I I #
point $-1 -60.281545823335193 2.0244762557892173 18.557430047199773 #
edge $-1 $571 1 $571 0 $333 $-1 forward 7 unknown #
vertex $-1 $334 $572 #
ellipse-curve $-1 -58.800752028684407 5.0611906394730326 14.930710229038615 -0.6018150307709319 0 0.79863550430605224 0.79863550430605224 0 0.6018150307709319 1 I I #
point $-1 -60.281545823335193 5.0611906394730326 18.557430047199773 #
plane-surface $-1 65.81621753593555 0 0 -1 0 0 0 0 1 forward_v I I I I #
coedge $-1 $342 $340 $344 $487 reversed $221 $-1 #
edge $-1 $355 -21.524474353459549 $489 21.524474353459549 $354 $573 forward 7 unknown #
vertex $-1 $487 $574 #
straight-curve $-1 -65.81621753593555 -44.699871415340532 0 0 0 -1 I I #
edge $-1 $485 -44.699871415340532 $489 44.699871415340532 $483 $575 forward 7 unknown #
straight-curve $-1 0 -44.699871415340532 -21.524474353459549 -1 0 0 I I #
vertex $-1 $347 $576 #
straight-curve $-1 0 44.699871415340532 -21.524474353459549 1 0 0 I I #
point $-1 65.81621753593555 44.699871415340532 -21.524474353459549 #
point $-1 65.81621753593555 -44.699871415340532 -21.524474353459549 #
straight-curve $-1 -65.81621753593555 0 21.524474353459549 0 -1 0 I I #
point $-1 -65.81621753593555 44.699871415340532 21.524474353459549 #
point $-1 -65.81621753593555 -44.699871415340532 21.524474353459549 #
straight-curve $-1 65.81621753593555 -44.699871415340532 0 0 0 -1 I I #
straight-curve $-1 65.81621753593555 44.699871415340532 0 0 0 -1 I I #
loop $-1 $-1 $506 $364 #
plane-surface $-1 -65.81621753593555 0 0 1 0 0 0 0 -1 forward_v I I I I #
coedge $-1 $368 $367 $512 $577 forward $146 $-1 #
edge $-1 $372 16.680795678560237 $515 44.699871415340532 $371 $578 forward 7 unknown #
coedge $-1 $509 $506 $368 $503 reversed $498 $-1 #
edge $-1 $579 -44.699871415340532 $504 -16.680795678560237 $502 $580 forward 7 unknown #
vertex $-1 $507 $581 #
straight-curve $-1 0 -16.680795678560237 -21.524474353459549 1 0 0 I I #
coedge $-1 $502 $374 $370 $507 forward $498 $-1 #
edge $-1 $376 4.4529918201528744 $504 12.865318962255408 $506 $582 forward 7 unknown #
point $-1 65.81621753593555 -16.680795678560237 -21.524474353459549 #
coedge $-1 $374 $502 $378 $513 reversed $498 $-1 #
straight-curve $-1 -65.81621753593555 -15.345166773475192 -13.112147211357016 0 1 0 I I #
point $-1 -65.81621753593555 -16.680795678560237 -13.112147211357016 #
coedge $-1 $379 $378 $500 $577 reversed $365 $-1 #
edge $-1 $380 13.112147211357016 $579 21.524474353459549 $509 $583 forward 7 unknown #
point $-1 -65.81621753593555 -44.699871415340532 -13.112147211357016 #
vertex $-1 $382 $584 #
straight-curve $-1 65.81621753593555 -44.699871415340532 0 0 0 -1 I I #
plane-surface $-1 0 44.699871415340532 0 0 -1 0 0 0 -1 forward_v I I I I #
coedge $-1 $585 $388 $392 $523 forward $256 $-1 #
coedge $-1 $388 $585 $403 $530 forward $256 $-1 #
vertex $-1 $390 $586 #
straight-curve $-1 0 16.68079567856023 -21.524474353459549 -1 0 0 I I #
coedge $-1 $392 $391 $398 $528 forward $386 $-1 #
edge $-1 $393 16.68079567856023 $587 44.699871415340532 $392 $588 forward 7 unknown #
point $-1 -65.81621753593555 16.68079567856023 -21.524474353459549 #
point $-1 -65.81621753593555 16.68079567856023 -13.112147211357016 #
straight-curve $-1 -65.81621753593555 15.345166773475189 -13.112147211357016 0 1 0 I I #
coedge $-1 $398 $397 $585 $589 reversed $399 $-1 #
edge $-1 $400 13.112147211357016 $587 21.524474353459549 $398 $590 forward 7 unknown #
point $-1 -65.81621753593555 44.699871415340525 -13.112147211357016 #
edge $-1 $532 -44.699871415340532 $520 -16.68079567856023 $403 $591 forward 7 unknown #
straight-curve $-1 65.81621753593555 16.68079567856023 -8.6591553912041412 0 0 -1 I I #
vertex $-1 $530 $592 #
straight-curve $-1 65.81621753593555 44.699871415340532 0 0 0 -1 I I #
coedge $-1 $419 $418 $411 $535 forward $408 $-1 #
edge $-1 $536 68.353652559800437 $539 89.066864951615216 $534 $593 forward 7 unknown #
vertex $-1 $423 $594 #
straight-curve $-1 58.563935651838037 -16.680795678560237 21.524474353459553 1 0 0 I I #
edge $-1 $539 -10.323795723563041 $420 -2.3902041864313528 $419 $595 forward 7 unknown #
vertex $-1 $538 $596 #
straight-curve $-1 1.9995484873682159 -16.680795678560237 115.93958477795266 -0.48480960649040278 0 0.87461971476443456 I I #
point $-1 54.334696848361631 -16.680795678560237 21.524474353459553 #
point $-1 65.81621753593555 -8.7472041414285489 0.81126196164477449 #
straight-curve $-1 65.81621753593555 0 21.524474353459549 0 1 0 I I #
vertex $-1 $426 $597 #
point $-1 57.581482932911854 -12.713999909994392 8.6420816449387967 #
edge $-1 $547 38.232071569568262 $550 45.369790243629645 $431 $598 forward 7 unknown #
vertex $-1 $445 $599 #
straight-curve $-1 -72.517297749583179 -9.5951287832979926 21.524474353459553 -1 0 0 I I #
edge $-1 $550 3.0261476678334365 $442 10.111814563095674 $441 $600 forward 7 unknown #
vertex $-1 $549 $601 #
straight-curve $-1 -65.81621753593555 -9.5951287832979926 14.386755679398163 0.79863550430605224 0 0.6018150307709319 I I #
point $-1 -56.34414511934699 -9.5951287832979926 21.524474353459549 #
point $-1 -65.81621753593555 -16.68079567856023 14.386755679398163 #
straight-curve $-1 -65.81621753593555 0 21.524474353459549 0 -1 0 I I #
vertex $-1 $448 $602 #
point $-1 -58.002116524378351 -14.656319422771023 15.532525259809548 #
vertex $-1 $452 $603 #
point $-1 -58.002116524378351 -11.619605039087205 15.532525259809548 #
coedge $-1 $467 $466 $459 $560 forward $456 $-1 #
edge $-1 $561 38.232071569568262 $564 45.369790243629645 $559 $604 forward 7 unknown #
vertex $-1 $471 $605 #
straight-curve $-1 -72.517297749583179 7.0856668952622446 21.524474353459553 -1 0 0 I I #
edge $-1 $564 -5.3142501714466821 $468 1.7714167238155571 $467 $606 forward 7 unknown #
vertex $-1 $563 $607 #
straight-curve $-1 -65.81621753593555 7.0856668952622446 14.386755679398163 0.79863550430605224 0 0.6018150307709319 I I #
point $-1 -56.34414511934699 7.0856668952622446 21.524474353459549 #
point $-1 -65.81621753593555 5.3290705182007514e-015 14.386755679398163 #
straight-curve $-1 -65.81621753593555 0 21.524474353459549 0 -1 0 I I #
vertex $-1 $474 $608 #
point $-1 -58.002116524378351 2.0244762557892173 15.532525259809548 #
vertex $-1 $478 $609 #
point $-1 -58.002116524378351 5.0611906394730326 15.532525259809548 #
straight-curve $-1 -65.81621753593555 44.699871415340532 0 0 0 -1 I I #
point $-1 -65.81621753593555 -44.699871415340532 -21.524474353459549 #
straight-curve $-1 -65.81621753593555 0 -21.524474353459549 0 1 0 I I #
point $-1 -65.81621753593555 44.699871415340532 -21.524474353459549 #
edge $-1 $515 -65.81621753593555 $579 65.81621753593555 $512 $610 forward 7 unknown #
straight-curve $-1 65.81621753593555 0 -21.524474353459549 0 -1 0 I I #
vertex $-1 $503 $611 #
straight-curve $-1 -65.81621753593555 0 -21.524474353459549 0 1 0 I I #
point $-1 -65.81621753593555 -16.680795678560237 -21.524474353459549 #
straight-curve $-1 -65.81621753593555 -16.680795678560237 -8.6591553912041412 0 0 -1 I I #
straight-curve $-1 -65.81621753593555 -44.699871415340532 0 0 0 -1 I I #
point $-1 65.81621753593555 -44.699871415340532 -21.524474353459549 #
coedge $-1 $519 $518 $527 $589 forward $256 $-1 #
point $-1 65.81621753593555 16.68079567856023 -21.524474353459549 #
vertex $-1 $589 $612 #
straight-curve $-1 -65.81621753593555 0 -21.524474353459549 0 1 0 I I #
edge $-1 $587 -65.81621753593555 $532 65.81621753593555 $527 $613 forward 7 unknown #
straight-curve $-1 -65.81621753593555 44.699871415340532 0 0 0 -1 I I #
straight-curve $-1 65.81621753593555 0 -21.524474353459549 0 -1 0 I I #
point $-1 65.81621753593555 44.699871415340532 -21.524474353459549 #
straight-curve $-1 65.81621753593555 -16.680795678560237 89.87812691325999 0 0 -1 I I #
point $-1 65.81621753593555 -16.680795678560237 21.524474353459549 #
straight-curve $-1 65.81621753593555 -6.3569999549971961 0.8112619616447887 0 1 0 I I #
point $-1 65.81621753593555 -16.680795678560237 0.81126196164477449 #
point $-1 56.222053611657017 -12.713999909994392 9.0318917532128289 #
straight-curve $-1 -65.81621753593555 -9.5951287832979926 59.756545923027808 0 0 -1 I I #
point $-1 -65.81621753593555 -9.5951287832979926 21.524474353459549 #
straight-curve $-1 -65.81621753593555 -6.5689811154645561 14.38675567939816 0 -1 0 I I #
point $-1 -65.81621753593555 -9.5951287832979926 14.386755679398163 #
point $-1 -58.198936997913471 -14.656319422771023 14.132074724732563 #
point $-1 -58.198936997913471 -11.619605039087205 14.132074724732563 #
straight-curve $-1 -65.81621753593555 7.0856668952622446 59.756545923027808 0 0 -1 I I #
point $-1 -65.81621753593555 7.0856668952622446 21.524474353459549 #
straight-curve $-1 -65.81621753593555 1.7714167238155625 14.38675567939816 0 -1 0 I I #
point $-1 -65.81621753593555 7.0856668952622446 14.386755679398163 #
point $-1 -58.198936997913471 2.0244762557892173 14.132074724732563 #
point $-1 -58.198936997913471 5.0611906394730326 14.132074724732563 #
straight-curve $-1 0 -44.699871415340532 -21.524474353459549 -1 0 0 I I #
point $-1 -65.81621753593555 -44.699871415340532 -21.524474353459549 #
point $-1 -65.81621753593555 44.699871415340532 -21.524474353459549 #
straight-curve $-1 0 44.699871415340532 -21.524474353459549 1 0 0 I I #
End-of-ACIS-data 