600 0 13 0           
109 GICL ACIS Healer - Source: /gicl/data5/repository/Drexel/CICIRELLO-THESISDATA/Part10006.smdg.deltas.sat - 6 0 18 ACIS 6.0.3 Solaris 24 Fri Apr 12 10:18:17 2002 
1 9.999999999999999547e-07 1.000000000000000036e-10 
body $-1 $13 $-1 $-1 #
body $-1 $14 $-1 $-1 #
body $-1 $15 $-1 $-1 #
body $-1 $16 $-1 $-1 #
body $-1 $17 $-1 $-1 #
body $-1 $18 $-1 $-1 #
body $-1 $19 $-1 $-1 #
body $-1 $20 $-1 $-1 #
body $-1 $21 $-1 $-1 #
body $-1 $22 $-1 $-1 #
body $-1 $23 $-1 $-1 #
body $-1 $24 $-1 $-1 #
body $-1 $25 $-1 $-1 #
lump $-1 $-1 $26 $0 #
lump $-1 $-1 $27 $1 #
lump $-1 $-1 $28 $2 #
lump $-1 $-1 $29 $3 #
lump $-1 $-1 $30 $4 #
lump $-1 $-1 $31 $5 #
lump $-1 $-1 $32 $6 #
lump $-1 $-1 $33 $7 #
lump $-1 $-1 $34 $8 #
lump $-1 $-1 $35 $9 #
lump $-1 $-1 $36 $10 #
lump $-1 $-1 $37 $11 #
lump $-1 $-1 $38 $12 #
shell $-1 $-1 $-1 $39 $-1 $13 #
shell $-1 $-1 $-1 $40 $-1 $14 #
shell $-1 $-1 $-1 $41 $-1 $15 #
shell $-1 $-1 $-1 $42 $-1 $16 #
shell $-1 $-1 $-1 $43 $-1 $17 #
shell $-1 $-1 $-1 $44 $-1 $18 #
shell $-1 $-1 $-1 $45 $-1 $19 #
shell $-1 $-1 $-1 $46 $-1 $20 #
shell $-1 $-1 $-1 $47 $-1 $21 #
shell $-1 $-1 $-1 $48 $-1 $22 #
shell $-1 $-1 $-1 $49 $-1 $23 #
shell $-1 $-1 $-1 $50 $-1 $24 #
shell $-1 $-1 $-1 $51 $-1 $25 #
face $-1 $52 $53 $26 $-1 $54 forward single #
face $-1 $55 $56 $27 $-1 $57 forward single #
face $-1 $58 $59 $28 $-1 $60 reversed single #
face $-1 $61 $62 $29 $-1 $63 forward single #
face $-1 $64 $65 $30 $-1 $66 forward single #
face $-1 $67 $68 $31 $-1 $69 reversed single #
face $-1 $70 $71 $32 $-1 $72 forward single #
face $-1 $73 $74 $33 $-1 $75 forward single #
face $-1 $76 $77 $34 $-1 $78 forward single #
face $-1 $79 $80 $35 $-1 $81 reversed single #
face $-1 $82 $83 $36 $-1 $84 forward single #
face $-1 $85 $86 $37 $-1 $87 forward single #
face $-1 $88 $89 $38 $-1 $90 forward single #
face $-1 $91 $92 $26 $-1 $93 reversed single #
loop $-1 $-1 $94 $39 #
plane-surface $-1 78.94405957213049874 32.63143197902920178 24.10485583216046379 0 0 1 1 0 0 forward_v I I I I #
face $-1 $95 $96 $27 $-1 $97 reversed single #
loop $-1 $-1 $98 $40 #
plane-surface $-1 6.464889671579797437 32.63143197902920178 22.41186879344182969 0 0 1 1 0 0 forward_v I I I I #
face $-1 $99 $100 $28 $-1 $101 reversed single #
loop $-1 $-1 $102 $41 #
plane-surface $-1 63.35591999817692255 130.7588118401415613 177.1001429727259051 1 0 0 0 -0.7071067893907904134 -0.70710677298230451 forward_v I I I I #
face $-1 $103 $104 $29 $-1 $105 forward single #
loop $-1 $106 $107 $42 #
cone-surface $-1 73.85007235702788364 62.49414138130330798 21.33613320835556237 0 -0.7071067893907905244 -0.7071067729823046211 1 0 0 1 I I 0 1 1 forward I I I I #
face $-1 $108 $109 $30 $-1 $110 forward single #
loop $-1 $111 $112 $43 #
cone-surface $-1 89.59130089530434304 62.49414138130330798 21.33613320835556237 0 -0.7071067893907905244 -0.7071067729823046211 1 0 0 1 I I 0 1 1 forward I I I I #
face $-1 $113 $114 $31 $-1 $115 reversed single #
loop $-1 $-1 $116 $44 #
plane-surface $-1 47.49379750689436719 -107.6794396099635662 134.8930700456709246 -1 0 0 0 -0.6819983681709311796 0.7313536940579346002 forward_v I I I I #
face $-1 $117 $118 $32 $-1 $119 forward single #
loop $-1 $120 $121 $45 #
cone-surface $-1 30.56136101829548579 3.602243734270793141 20.59315133739955073 0 0.6819983681709311796 -0.7313536940579346002 1.5 0 0 1 I I 0 1 1.5 forward I I I I #
face $-1 $122 $123 $33 $-1 $124 forward single #
loop $-1 $125 $126 $46 #
cone-surface $-1 36.91102470152006276 3.602243734270793141 20.59315133739955073 0 0.6819983681709311796 -0.7313536940579346002 1.5 0 0 1 I I 0 1 1.5 forward I I I I #
face $-1 $127 $128 $34 $-1 $129 forward single #
loop $-1 $130 $131 $47 #
cone-surface $-1 43.26068838474464684 3.602243734270793141 20.59315133739955073 0 0.6819983681709311796 -0.7313536940579346002 1.5 0 0 1 I I 0 1 1.5 forward I I I I #
face $-1 $132 $133 $35 $-1 $134 reversed single #
loop $-1 $-1 $135 $48 #
plane-surface $-1 144.489646591274834 -107.6794396099635662 134.8930700456709246 -1 0 0 0 -0.6819983681709311796 0.7313536940579346002 forward_v I I I I #
face $-1 $136 $137 $36 $-1 $138 forward single #
loop $-1 $139 $140 $49 #
cone-surface $-1 127.5572101026759526 3.602243734270793141 20.59315133739955073 0 0.6819983681709311796 -0.7313536940579346002 1.5 0 0 1 I I 0 1 1.5 forward I I I I #
face $-1 $141 $142 $37 $-1 $143 forward single #
loop $-1 $144 $145 $50 #
cone-surface $-1 133.9068737859005296 3.602243734270793141 20.59315133739955073 0 0.6819983681709311796 -0.7313536940579346002 1.5 0 0 1 I I 0 1 1.5 forward I I I I #
face $-1 $146 $147 $38 $-1 $148 forward single #
loop $-1 $149 $150 $51 #
cone-surface $-1 140.2565374691251066 3.602243734270793141 20.59315133739955073 0 0.6819983681709311796 -0.7313536940579346002 1.5 0 0 1 I I 0 1 1.5 forward I I I I #
face $-1 $151 $152 $26 $-1 $153 reversed single #
loop $-1 $-1 $154 $52 #
plane-surface $-1 78.94405957213049874 32.63143197902920178 0 0 0 1 1 0 0 forward_v I I I I #
coedge $-1 $155 $156 $157 $158 forward $53 $-1 #
face $-1 $159 $160 $27 $-1 $161 reversed single #
loop $-1 $-1 $162 $55 #
plane-surface $-1 6.464889671579797437 32.63143197902920178 17.60906804050668129 0 0 1 1 0 0 forward_v I I I I #
coedge $-1 $163 $164 $165 $166 forward $56 $-1 #
face $-1 $167 $168 $28 $-1 $169 reversed single #
loop $-1 $-1 $170 $58 #
plane-surface $-1 81.72068662616612755 19.11505082909258135 65.45638455238189124 0 0.7071067893907905244 0.7071067729823046211 1 0 0 forward_v I I I I #
coedge $-1 $171 $172 $173 $174 reversed $59 $-1 #
face $-1 $-1 $175 $29 $-1 $176 forward single #
loop $-1 $177 $178 $61 #
cone-surface $-1 73.85007235702788364 61.77000809400824011 20.61199993786408413 0 -0.7071067893907905244 -0.7071067729823046211 0.5 0 0 1 I I -0.7071067811865474617 0.7071067811865474617 0.5 forward I I I I #
loop $-1 $-1 $179 $42 #
coedge $-1 $107 $107 $180 $181 reversed $62 $-1 #
face $-1 $-1 $182 $30 $-1 $183 forward single #
loop $-1 $184 $185 $64 #
cone-surface $-1 89.59130089530434304 61.77000809400824011 20.61199993786408413 0 -0.7071067893907905244 -0.7071067729823046211 0.5 0 0 1 I I -0.7071067811865474617 0.7071067811865474617 0.5 forward I I I I #
loop $-1 $-1 $186 $43 #
coedge $-1 $112 $112 $187 $188 reversed $65 $-1 #
face $-1 $189 $190 $31 $-1 $191 reversed single #
loop $-1 $-1 $192 $67 #
plane-surface $-1 36.91102470152006276 0 19.42101086165634172 0 -0.6819983681709311796 0.7313536940579346002 1 0 0 forward_v I I I I #
coedge $-1 $193 $194 $195 $196 reversed $68 $-1 #
face $-1 $-1 $197 $32 $-1 $198 forward single #
loop $-1 $199 $200 $70 #
cone-surface $-1 30.56136101829548579 5.204581906005500969 18.87485405734725319 0 0.6819983681709311796 -0.7313536940579346002 0.75 0 0 1 I I -0.7071067811865479058 0.7071067811865470176 0.75 forward I I I I #
loop $-1 $-1 $201 $45 #
coedge $-1 $121 $121 $202 $203 reversed $71 $-1 #
face $-1 $-1 $204 $33 $-1 $205 forward single #
loop $-1 $206 $207 $73 #
cone-surface $-1 36.91102470152006276 5.204581906005500969 18.87485405734725319 0 0.6819983681709311796 -0.7313536940579346002 0.75 0 0 1 I I -0.7071067811865479058 0.7071067811865470176 0.75 forward I I I I #
loop $-1 $-1 $208 $46 #
coedge $-1 $126 $126 $209 $210 reversed $74 $-1 #
face $-1 $-1 $211 $34 $-1 $212 forward single #
loop $-1 $213 $214 $76 #
cone-surface $-1 43.26068838474464684 5.204581906005500969 18.87485405734725319 0 0.6819983681709311796 -0.7313536940579346002 0.75 0 0 1 I I -0.7071067811865479058 0.7071067811865470176 0.75 forward I I I I #
loop $-1 $-1 $215 $47 #
coedge $-1 $131 $131 $216 $217 reversed $77 $-1 #
face $-1 $218 $219 $35 $-1 $220 reversed single #
loop $-1 $-1 $221 $79 #
plane-surface $-1 133.9068737859005296 0 19.42101086165634172 0 -0.6819983681709311796 0.7313536940579346002 1 0 0 forward_v I I I I #
coedge $-1 $222 $223 $224 $225 reversed $80 $-1 #
face $-1 $-1 $226 $36 $-1 $227 forward single #
loop $-1 $228 $229 $82 #
cone-surface $-1 127.5572101026759526 5.204581906005500969 18.87485405734725319 0 0.6819983681709311796 -0.7313536940579346002 0.75 0 0 1 I I -0.7071067811865479058 0.7071067811865470176 0.75 forward I I I I #
loop $-1 $-1 $230 $49 #
coedge $-1 $140 $140 $231 $232 reversed $83 $-1 #
face $-1 $-1 $233 $37 $-1 $234 forward single #
loop $-1 $235 $236 $85 #
cone-surface $-1 133.9068737859005296 5.204581906005500969 18.87485405734725319 0 0.6819983681709311796 -0.7313536940579346002 0.75 0 0 1 I I -0.7071067811865479058 0.7071067811865470176 0.75 forward I I I I #
loop $-1 $-1 $237 $50 #
coedge $-1 $145 $145 $238 $239 reversed $86 $-1 #
face $-1 $-1 $240 $38 $-1 $241 forward single #
loop $-1 $242 $243 $88 #
cone-surface $-1 140.2565374691251066 5.204581906005500969 18.87485405734725319 0 0.6819983681709311796 -0.7313536940579346002 0.75 0 0 1 I I -0.7071067811865479058 0.7071067811865470176 0.75 forward I I I I #
loop $-1 $-1 $244 $51 #
coedge $-1 $150 $150 $245 $246 reversed $89 $-1 #
face $-1 $247 $248 $26 $-1 $249 reversed single #
loop $-1 $-1 $250 $91 #
plane-surface $-1 78.94405957213049874 0 12.0524279160802319 0 1 0 0 0 1 forward_v I I I I #
coedge $-1 $251 $252 $253 $254 forward $92 $-1 #
coedge $-1 $255 $94 $256 $257 forward $53 $-1 #
coedge $-1 $94 $255 $258 $259 forward $53 $-1 #
coedge $-1 $260 $261 $94 $158 reversed $262 $-1 #
edge $-1 $263 -32.63143197902920178 $264 32.63143197902920178 $157 $265 forward 7 unknown #
face $-1 $266 $267 $27 $-1 $268 reversed single #
loop $-1 $-1 $269 $95 #
plane-surface $-1 12.92977934315959487 32.63143197902920178 20.01046841697425549 -1 0 0 0 0 1 forward_v I I I I #
coedge $-1 $270 $271 $272 $273 forward $96 $-1 #
coedge $-1 $274 $98 $275 $276 reversed $56 $-1 #
coedge $-1 $98 $274 $277 $278 reversed $56 $-1 #
coedge $-1 $269 $279 $98 $166 reversed $160 $-1 #
edge $-1 $280 -32.63143197902920178 $281 32.63143197902920178 $165 $282 forward 7 unknown #
face $-1 $283 $284 $28 $-1 $285 forward single #
loop $-1 $-1 $286 $99 #
plane-surface $-1 100.0854532541553397 130.7588118401415613 177.1001429727259051 -1 0 0 0 0.7071067893907904134 0.70710677298230451 forward_v I I I I #
coedge $-1 $287 $288 $289 $290 reversed $100 $-1 #
coedge $-1 $172 $102 $291 $292 reversed $59 $-1 #
coedge $-1 $102 $171 $287 $293 reversed $59 $-1 #
coedge $-1 $289 $294 $102 $174 forward $284 $-1 #
edge $-1 $295 16.43225795152697799 $296 21.22854331983786125 $173 $297 forward 7 unknown #
loop $-1 $-1 $180 $103 #
plane-surface $-1 81.72068662616612755 19.11505082909258135 65.45638455238189124 0 0.7071067893907905244 0.7071067729823046211 1 0 0 forward_v I I I I #
loop $-1 $-1 $298 $61 #
coedge $-1 $178 $178 $179 $299 reversed $104 $-1 #
coedge $-1 $179 $179 $178 $299 forward $106 $-1 #
coedge $-1 $180 $180 $107 $181 forward $175 $-1 #
edge $-1 $300 -2.331786090762867273e-22 $300 6.283185307179586232 $180 $301 forward 7 unknown #
loop $-1 $-1 $187 $108 #
plane-surface $-1 81.72068662616612755 19.11505082909258135 65.45638455238189124 0 0.7071067893907905244 0.7071067729823046211 1 0 0 forward_v I I I I #
loop $-1 $-1 $302 $64 #
coedge $-1 $185 $185 $186 $303 reversed $109 $-1 #
coedge $-1 $186 $186 $185 $303 forward $111 $-1 #
coedge $-1 $187 $187 $112 $188 forward $182 $-1 #
edge $-1 $304 -2.331786090762867273e-22 $304 6.283185307179586232 $187 $305 forward 7 unknown #
face $-1 $306 $307 $31 $-1 $308 reversed single #
loop $-1 $-1 $309 $113 #
plane-surface $-1 26.32825189614575834 -107.6794396099635662 134.8930700456709246 1 0 0 0 0.6819983681709311796 -0.7313536940579346002 forward_v I I I I #
coedge $-1 $310 $311 $312 $313 reversed $114 $-1 #
coedge $-1 $194 $116 $314 $315 reversed $68 $-1 #
coedge $-1 $116 $193 $310 $316 reversed $68 $-1 #
coedge $-1 $312 $317 $116 $196 forward $318 $-1 #
edge $-1 $319 37.52400381546718222 $320 42.54681249279573763 $195 $321 forward 7 unknown #
loop $-1 $-1 $202 $117 #
plane-surface $-1 36.91102470152006276 0 19.42101086165634172 0 -0.6819983681709311796 0.7313536940579346002 1 0 0 forward_v I I I I #
loop $-1 $-1 $322 $70 #
coedge $-1 $200 $200 $201 $323 reversed $118 $-1 #
coedge $-1 $201 $201 $200 $323 forward $120 $-1 #
coedge $-1 $202 $202 $121 $203 forward $197 $-1 #
edge $-1 $324 -1.498399726746715836e-15 $324 6.283185307179584456 $202 $325 forward 7 unknown #
loop $-1 $-1 $209 $122 #
plane-surface $-1 36.91102470152006276 0 19.42101086165634172 0 -0.6819983681709311796 0.7313536940579346002 1 0 0 forward_v I I I I #
loop $-1 $-1 $326 $73 #
coedge $-1 $207 $207 $208 $327 reversed $123 $-1 #
coedge $-1 $208 $208 $207 $327 forward $125 $-1 #
coedge $-1 $209 $209 $126 $210 forward $204 $-1 #
edge $-1 $328 -1.498399726746715836e-15 $328 6.283185307179584456 $209 $329 forward 7 unknown #
loop $-1 $-1 $216 $127 #
plane-surface $-1 36.91102470152006276 0 19.42101086165634172 0 -0.6819983681709311796 0.7313536940579346002 1 0 0 forward_v I I I I #
loop $-1 $-1 $330 $76 #
coedge $-1 $214 $214 $215 $331 reversed $128 $-1 #
coedge $-1 $215 $215 $214 $331 forward $130 $-1 #
coedge $-1 $216 $216 $131 $217 forward $211 $-1 #
edge $-1 $332 -1.498399726746715836e-15 $332 6.283185307179584456 $216 $333 forward 7 unknown #
face $-1 $334 $335 $35 $-1 $336 reversed single #
loop $-1 $-1 $337 $132 #
plane-surface $-1 123.3241009805262252 -107.6794396099635662 134.8930700456709246 1 0 0 0 0.6819983681709311796 -0.7313536940579346002 forward_v I I I I #
coedge $-1 $338 $339 $340 $341 reversed $133 $-1 #
coedge $-1 $223 $135 $342 $343 reversed $80 $-1 #
coedge $-1 $135 $222 $338 $344 reversed $80 $-1 #
coedge $-1 $340 $345 $135 $225 forward $346 $-1 #
edge $-1 $347 37.52400381546718222 $348 42.54681249279573763 $224 $349 forward 7 unknown #
loop $-1 $-1 $231 $136 #
plane-surface $-1 133.9068737859005296 0 19.42101086165634172 0 -0.6819983681709311796 0.7313536940579346002 1 0 0 forward_v I I I I #
loop $-1 $-1 $350 $82 #
coedge $-1 $229 $229 $230 $351 reversed $137 $-1 #
coedge $-1 $230 $230 $229 $351 forward $139 $-1 #
coedge $-1 $231 $231 $140 $232 forward $226 $-1 #
edge $-1 $352 -1.498399726746715836e-15 $352 6.283185307179584456 $231 $353 forward 7 unknown #
loop $-1 $-1 $238 $141 #
plane-surface $-1 133.9068737859005296 0 19.42101086165634172 0 -0.6819983681709311796 0.7313536940579346002 1 0 0 forward_v I I I I #
loop $-1 $-1 $354 $85 #
coedge $-1 $236 $236 $237 $355 reversed $142 $-1 #
coedge $-1 $237 $237 $236 $355 forward $144 $-1 #
coedge $-1 $238 $238 $145 $239 forward $233 $-1 #
edge $-1 $356 -1.498399726746715836e-15 $356 6.283185307179584456 $238 $357 forward 7 unknown #
loop $-1 $-1 $245 $146 #
plane-surface $-1 133.9068737859005296 0 19.42101086165634172 0 -0.6819983681709311796 0.7313536940579346002 1 0 0 forward_v I I I I #
loop $-1 $-1 $358 $88 #
coedge $-1 $243 $243 $244 $359 reversed $147 $-1 #
coedge $-1 $244 $244 $243 $359 forward $149 $-1 #
coedge $-1 $245 $245 $150 $246 forward $240 $-1 #
edge $-1 $360 -1.498399726746715836e-15 $360 6.283185307179584456 $245 $361 forward 7 unknown #
face $-1 $362 $363 $26 $-1 $364 reversed single #
loop $-1 $-1 $365 $151 #
plane-surface $-1 0 32.63143197902920178 12.0524279160802319 1 0 0 0 0 -1 forward_v I I I I #
coedge $-1 $366 $258 $367 $368 forward $152 $-1 #
coedge $-1 $369 $154 $366 $370 forward $92 $-1 #
coedge $-1 $154 $369 $371 $372 forward $92 $-1 #
coedge $-1 $261 $260 $154 $254 reversed $262 $-1 #
edge $-1 $373 -32.63143197902920178 $374 32.63143197902920178 $253 $375 forward 7 unknown #
coedge $-1 $156 $155 $376 $377 forward $53 $-1 #
coedge $-1 $378 $379 $155 $257 reversed $363 $-1 #
edge $-1 $264 -78.94405957213049874 $380 78.94405957213049874 $256 $381 forward 7 unknown #
coedge $-1 $250 $382 $156 $259 reversed $152 $-1 #
edge $-1 $383 -78.94405957213049874 $263 78.94405957213049874 $258 $384 forward 7 unknown #
coedge $-1 $253 $157 $382 $385 forward $262 $-1 #
coedge $-1 $157 $253 $378 $386 reversed $262 $-1 #
loop $-1 $-1 $260 $362 #
vertex $-1 $158 $387 #
vertex $-1 $158 $388 #
straight-curve $-1 157.8881191442609975 32.63143197902920178 24.10485583216046379 0 1 0 I I #
face $-1 $389 $390 $27 $-1 $391 reversed single #
loop $-1 $-1 $392 $159 #
plane-surface $-1 78.94405957213049874 0 12.0524279160802319 0 1 0 0 0 1 forward_v I I I I #
coedge $-1 $272 $165 $393 $394 reversed $160 $-1 #
coedge $-1 $395 $162 $392 $396 reversed $96 $-1 #
coedge $-1 $162 $395 $397 $398 reversed $96 $-1 #
coedge $-1 $279 $269 $162 $273 reversed $160 $-1 #
edge $-1 $399 -32.63143197902920178 $400 32.63143197902920178 $272 $401 forward 7 unknown #
coedge $-1 $164 $163 $402 $403 reversed $56 $-1 #
coedge $-1 $404 $405 $163 $276 forward $406 $-1 #
edge $-1 $407 -42.70447462185514809 $281 -29.77469527869555321 $275 $408 forward 7 unknown #
coedge $-1 $409 $393 $164 $278 forward $267 $-1 #
edge $-1 $280 29.77469527869555321 $410 42.70447462185514809 $277 $411 forward 7 unknown #
coedge $-1 $165 $272 $404 $412 reversed $160 $-1 #
vertex $-1 $278 $413 #
vertex $-1 $276 $414 #
straight-curve $-1 12.92977934315959487 32.63143197902920178 22.41186879344182969 0 1 0 I I #
face $-1 $-1 $415 $28 $-1 $416 reversed single #
loop $-1 $-1 $173 $167 #
plane-surface $-1 78.94405957213049874 32.63143197902920178 24.10485583216046379 0 0 1 1 0 0 forward_v I I I I #
coedge $-1 $417 $418 $419 $420 reversed $168 $-1 #
coedge $-1 $421 $170 $172 $293 forward $100 $-1 #
coedge $-1 $170 $421 $417 $422 forward $100 $-1 #
coedge $-1 $419 $173 $170 $290 forward $284 $-1 #
edge $-1 $296 -16.9764531009713906 $423 19.75308015500702652 $289 $424 forward 7 unknown #
coedge $-1 $425 $426 $171 $292 forward $415 $-1 #
edge $-1 $427 -75.26771509185178388 $295 -70.47142961224260205 $291 $428 forward 7 unknown #
edge $-1 $296 58.47989206248174554 $427 65.26286395805841778 $172 $429 forward 7 unknown #
coedge $-1 $173 $419 $425 $430 forward $284 $-1 #
vertex $-1 $292 $431 #
vertex $-1 $174 $432 #
straight-curve $-1 63.35591999817692255 81.69512190958538156 24.10485583216046734 0 -1 0 I I #
coedge $-1 $298 $298 $-1 $433 reversed $177 $-1 #
edge $-1 $434 0 $434 6.283185307179586232 $178 $435 forward 7 unknown #
vertex $-1 $181 $436 #
ellipse-curve $-1 73.85007235702788364 62.86472127390295839 21.70671309235586932 0 0.7071067893907905244 0.7071067729823046211 1 0 0 1 I I #
coedge $-1 $302 $302 $-1 $437 reversed $184 $-1 #
edge $-1 $438 0 $438 6.283185307179586232 $185 $439 forward 7 unknown #
vertex $-1 $188 $440 #
ellipse-curve $-1 89.59130089530434304 62.86472127390295839 21.70671309235586932 0 0.7071067893907905244 0.7071067729823046211 1 0 0 1 I I #
face $-1 $-1 $318 $31 $-1 $441 forward single #
loop $-1 $-1 $442 $189 #
plane-surface $-1 78.94405957213049874 0 12.0524279160802319 0 1 0 0 0 1 forward_v I I I I #
coedge $-1 $443 $444 $445 $446 reversed $190 $-1 #
coedge $-1 $447 $192 $194 $316 forward $114 $-1 #
coedge $-1 $192 $447 $443 $448 forward $114 $-1 #
coedge $-1 $445 $195 $192 $313 forward $318 $-1 #
edge $-1 $320 10.43374462993091356 $449 31.59929024067952241 $312 $450 forward 7 unknown #
coedge $-1 $451 $452 $193 $315 forward $307 $-1 #
edge $-1 $453 -54.05173811921923743 $319 -49.36789314871511181 $314 $454 forward 7 unknown #
edge $-1 $320 -6.867824307359921221 $453 0 $194 $455 forward 7 unknown #
coedge $-1 $195 $445 $451 $456 forward $318 $-1 #
loop $-1 $-1 $445 $306 #
vertex $-1 $315 $457 #
vertex $-1 $196 $458 #
straight-curve $-1 47.49379750689436719 -37.52400381546718222 24.10485583216046734 0 1 0 I I #
coedge $-1 $322 $322 $-1 $459 reversed $199 $-1 #
edge $-1 $460 0 $460 6.283185307179586232 $200 $461 forward 7 unknown #
vertex $-1 $203 $462 #
ellipse-curve $-1 30.56136101829548579 2.511404338664277702 21.76293334690840453 0 -0.6819983681709311796 0.7313536940579346002 1.5 0 0 1 I I #
coedge $-1 $326 $326 $-1 $463 reversed $206 $-1 #
edge $-1 $464 0 $464 6.283185307179586232 $207 $465 forward 7 unknown #
vertex $-1 $210 $466 #
ellipse-curve $-1 36.91102470152006276 2.511404338664277702 21.76293334690840453 0 -0.6819983681709311796 0.7313536940579346002 1.5 0 0 1 I I #
coedge $-1 $330 $330 $-1 $467 reversed $213 $-1 #
edge $-1 $468 0 $468 6.283185307179586232 $214 $469 forward 7 unknown #
vertex $-1 $217 $470 #
ellipse-curve $-1 43.26068838474464684 2.511404338664277702 21.76293334690840453 0 -0.6819983681709311796 0.7313536940579346002 1.5 0 0 1 I I #
face $-1 $-1 $346 $35 $-1 $471 forward single #
loop $-1 $-1 $472 $218 #
plane-surface $-1 78.94405957213049874 0 12.0524279160802319 0 1 0 0 0 1 forward_v I I I I #
coedge $-1 $473 $474 $475 $476 reversed $219 $-1 #
coedge $-1 $477 $221 $223 $344 forward $133 $-1 #
coedge $-1 $221 $477 $473 $478 forward $133 $-1 #
coedge $-1 $475 $224 $221 $341 forward $346 $-1 #
edge $-1 $348 -38.06417991225931985 $479 -16.898634301510711 $340 $480 forward 7 unknown #
coedge $-1 $481 $482 $222 $343 forward $335 $-1 #
edge $-1 $483 -54.05173811921923743 $347 -49.36789314871511181 $342 $484 forward 7 unknown #
edge $-1 $348 -6.867824307359921221 $483 0 $223 $485 forward 7 unknown #
coedge $-1 $224 $475 $481 $486 forward $346 $-1 #
loop $-1 $-1 $475 $334 #
vertex $-1 $343 $487 #
vertex $-1 $225 $488 #
straight-curve $-1 144.489646591274834 -37.52400381546718222 24.10485583216046734 0 1 0 I I #
coedge $-1 $350 $350 $-1 $489 reversed $228 $-1 #
edge $-1 $490 0 $490 6.283185307179586232 $229 $491 forward 7 unknown #
vertex $-1 $232 $492 #
ellipse-curve $-1 127.5572101026759526 2.511404338664277702 21.76293334690840453 0 -0.6819983681709311796 0.7313536940579346002 1.5 0 0 1 I I #
coedge $-1 $354 $354 $-1 $493 reversed $235 $-1 #
edge $-1 $494 0 $494 6.283185307179586232 $236 $495 forward 7 unknown #
vertex $-1 $239 $496 #
ellipse-curve $-1 133.9068737859005296 2.511404338664277702 21.76293334690840453 0 -0.6819983681709311796 0.7313536940579346002 1.5 0 0 1 I I #
coedge $-1 $358 $358 $-1 $497 reversed $242 $-1 #
edge $-1 $498 0 $498 6.283185307179586232 $243 $499 forward 7 unknown #
vertex $-1 $246 $500 #
ellipse-curve $-1 140.2565374691251066 2.511404338664277702 21.76293334690840453 0 -0.6819983681709311796 0.7313536940579346002 1.5 0 0 1 I I #
face $-1 $-1 $262 $26 $-1 $501 reversed single #
loop $-1 $-1 $378 $247 #
plane-surface $-1 78.94405957213049874 65.26286395805840357 12.0524279160802319 0 -1 0 0 0 -1 forward_v I I I I #
coedge $-1 $502 $376 $379 $503 forward $248 $-1 #
coedge $-1 $382 $250 $251 $370 reversed $152 $-1 #
coedge $-1 $376 $502 $250 $368 reversed $248 $-1 #
edge $-1 $383 -12.0524279160802319 $504 12.0524279160802319 $367 $505 forward 7 unknown #
coedge $-1 $252 $251 $502 $506 forward $92 $-1 #
edge $-1 $374 -78.94405957213049874 $504 78.94405957213049874 $366 $507 forward 7 unknown #
coedge $-1 $379 $378 $252 $372 reversed $363 $-1 #
edge $-1 $508 -78.94405957213049874 $373 78.94405957213049874 $371 $509 forward 7 unknown #
vertex $-1 $254 $510 #
vertex $-1 $385 $511 #
straight-curve $-1 157.8881191442609975 32.63143197902920178 0 0 -1 0 I I #
coedge $-1 $365 $367 $255 $377 reversed $248 $-1 #
edge $-1 $380 -32.63143197902920178 $383 32.63143197902920178 $376 $512 forward 7 unknown #
coedge $-1 $371 $256 $261 $386 forward $363 $-1 #
coedge $-1 $256 $371 $365 $503 reversed $363 $-1 #
vertex $-1 $257 $513 #
straight-curve $-1 78.94405957213049874 65.26286395805840357 24.10485583216046379 -1 0 0 I I #
coedge $-1 $258 $366 $260 $385 reversed $152 $-1 #
vertex $-1 $377 $514 #
straight-curve $-1 78.94405957213049874 0 24.10485583216046379 1 0 0 I I #
edge $-1 $263 -12.0524279160802319 $374 12.0524279160802319 $260 $515 forward 7 unknown #
edge $-1 $264 -12.0524279160802319 $373 12.0524279160802319 $261 $516 forward 7 unknown #
point $-1 157.8881191442609975 0 24.10485583216046379 #
point $-1 157.8881191442609975 65.26286395805840357 24.10485583216046379 #
face $-1 $-1 $406 $27 $-1 $517 reversed single #
loop $-1 $-1 $518 $266 #
plane-surface $-1 0 32.63143197902920178 12.0524279160802319 1 0 0 0 0 -1 forward_v I I I I #
coedge $-1 $393 $409 $270 $396 forward $267 $-1 #
coedge $-1 $277 $392 $269 $394 forward $267 $-1 #
edge $-1 $400 1.577619873979436704 $280 6.380420626914585114 $393 $519 forward 7 unknown #
coedge $-1 $271 $270 $518 $520 reversed $96 $-1 #
edge $-1 $521 -42.70447462185514809 $400 -29.77469527869555321 $392 $522 forward 7 unknown #
coedge $-1 $405 $404 $271 $398 forward $406 $-1 #
edge $-1 $399 29.77469527869555321 $523 42.70447462185514809 $397 $524 forward 7 unknown #
vertex $-1 $398 $525 #
vertex $-1 $396 $526 #
straight-curve $-1 12.92977934315959487 32.63143197902920178 17.60906804050668129 0 -1 0 I I #
coedge $-1 $527 $528 $274 $403 forward $390 $-1 #
edge $-1 $410 -32.63143197902920178 $407 32.63143197902920178 $402 $529 forward 7 unknown #
coedge $-1 $397 $275 $279 $412 forward $406 $-1 #
coedge $-1 $275 $397 $527 $530 reversed $406 $-1 #
loop $-1 $-1 $397 $389 #
vertex $-1 $530 $531 #
straight-curve $-1 42.70447462185514809 65.26286395805840357 22.41186879344182969 1 0 0 I I #
coedge $-1 $392 $277 $528 $532 forward $267 $-1 #
vertex $-1 $532 $533 #
straight-curve $-1 42.70447462185514809 0 22.41186879344182969 -1 0 0 I I #
edge $-1 $281 -6.380420626914585114 $399 -1.577619873979436704 $404 $534 forward 7 unknown #
point $-1 12.92977934315959487 0 22.41186879344182969 #
point $-1 12.92977934315959487 65.26286395805840357 22.41186879344182969 #
loop $-1 $-1 $291 $283 #
plane-surface $-1 78.94405957213049874 65.26286395805840357 12.0524279160802319 0 -1 0 0 0 -1 forward_v I I I I #
coedge $-1 $418 $286 $288 $422 reversed $168 $-1 #
coedge $-1 $286 $417 $535 $536 reversed $168 $-1 #
coedge $-1 $294 $289 $286 $420 forward $284 $-1 #
edge $-1 $423 -21.22854331983786125 $537 -16.43225795152697799 $419 $538 forward 7 unknown #
coedge $-1 $288 $287 $426 $539 reversed $100 $-1 #
edge $-1 $540 -65.26286395805841778 $423 -58.47989206248174554 $417 $541 forward 7 unknown #
vertex $-1 $290 $542 #
straight-curve $-1 80.33237309914831314 60.46657858974752742 24.10485583216046024 1 0 0 I I #
coedge $-1 $535 $291 $294 $430 reversed $415 $-1 #
coedge $-1 $291 $535 $421 $539 forward $415 $-1 #
vertex $-1 $292 $543 #
straight-curve $-1 63.35591999817692255 65.26286395805840357 94.57628544440306939 0 0 1 I I #
straight-curve $-1 63.35591999817692255 19.11505082909258135 65.45638455238189124 0 0.70710677298230451 -0.7071067893907904134 I I #
edge $-1 $537 -21.14139368202484093 $295 15.58813957395357619 $425 $544 forward 7 unknown #
point $-1 63.35591999817692255 65.26286395805840357 24.10485583216046379 #
point $-1 63.35591999817692255 60.46657858974752031 24.10485583216046734 #
edge $-1 $545 1 $545 0 $298 $-1 forward 7 unknown #
vertex $-1 $299 $546 #
ellipse-curve $-1 73.85007235702788364 62.12356148870363626 20.96555332435523411 0 0.7071067893907905244 0.7071067729823046211 1 0 0 1 I I #
point $-1 74.85007235702788364 62.8647212739029726 21.70671309235588353 #
edge $-1 $547 1 $547 0 $302 $-1 forward 7 unknown #
vertex $-1 $303 $548 #
ellipse-curve $-1 89.59130089530434304 62.12356148870363626 20.96555332435523411 0 0.7071067893907905244 0.7071067729823046211 1 0 0 1 I I #
point $-1 90.59130089530434304 62.8647212739029726 21.70671309235588353 #
plane-surface $-1 78.94405957213049874 32.63143197902920178 24.10485583216046379 0 0 1 1 0 0 forward_v I I I I #
coedge $-1 $452 $451 $444 $549 forward $307 $-1 #
coedge $-1 $444 $309 $311 $448 reversed $190 $-1 #
coedge $-1 $309 $443 $442 $549 reversed $190 $-1 #
coedge $-1 $317 $312 $309 $446 forward $318 $-1 #
edge $-1 $449 -42.54681249279573763 $550 -37.52400381546718222 $445 $551 forward 7 unknown #
coedge $-1 $311 $310 $452 $552 reversed $114 $-1 #
edge $-1 $553 0 $449 6.867824307359921221 $443 $554 forward 7 unknown #
vertex $-1 $313 $555 #
straight-curve $-1 57.92754213682528075 5.022808677328555405 24.10485583216046379 -1 0 0 I I #
coedge $-1 $442 $314 $317 $456 reversed $307 $-1 #
coedge $-1 $314 $442 $447 $552 forward $307 $-1 #
vertex $-1 $315 $556 #
straight-curve $-1 47.49379750689436719 0 73.47274898087557915 0 0 1 I I #
straight-curve $-1 47.49379750689436719 0 19.42101086165634172 0 -0.7313536940579346002 -0.6819983681709311796 I I #
edge $-1 $550 -52.6158076759847404 $319 -31.45026206523613155 $451 $557 forward 7 unknown #
point $-1 47.49379750689436719 0 24.10485583216046379 #
point $-1 47.49379750689436719 5.022808677328555405 24.10485583216046379 #
edge $-1 $558 1 $558 0 $322 $-1 forward 7 unknown #
vertex $-1 $323 $559 #
ellipse-curve $-1 30.56136101829548579 4.693083129877301474 19.42336932789070403 0 -0.6819983681709311796 0.7313536940579346002 1.5 0 0 1 I I #
point $-1 32.06136101829548579 2.511404338664281255 21.76293334690839743 #
edge $-1 $560 1 $560 0 $326 $-1 forward 7 unknown #
vertex $-1 $327 $561 #
ellipse-curve $-1 36.91102470152006276 4.693083129877301474 19.42336932789070403 0 -0.6819983681709311796 0.7313536940579346002 1.5 0 0 1 I I #
point $-1 38.41102470152006276 2.511404338664281255 21.76293334690839743 #
edge $-1 $562 1 $562 0 $330 $-1 forward 7 unknown #
vertex $-1 $331 $563 #
ellipse-curve $-1 43.26068838474464684 4.693083129877301474 19.42336932789070403 0 -0.6819983681709311796 0.7313536940579346002 1.5 0 0 1 I I #
point $-1 44.76068838474464684 2.511404338664281255 21.76293334690839743 #
plane-surface $-1 78.94405957213049874 32.63143197902920178 24.10485583216046379 0 0 1 1 0 0 forward_v I I I I #
coedge $-1 $482 $481 $474 $564 forward $335 $-1 #
coedge $-1 $474 $337 $339 $478 reversed $219 $-1 #
coedge $-1 $337 $473 $472 $564 reversed $219 $-1 #
coedge $-1 $345 $340 $337 $476 forward $346 $-1 #
edge $-1 $479 -42.54681249279573763 $565 -37.52400381546718222 $475 $566 forward 7 unknown #
coedge $-1 $339 $338 $482 $567 reversed $133 $-1 #
edge $-1 $568 0 $479 6.867824307359921221 $473 $569 forward 7 unknown #
vertex $-1 $341 $570 #
straight-curve $-1 106.4254666790155142 5.022808677328555405 24.10485583216046379 -1 0 0 I I #
coedge $-1 $472 $342 $345 $486 reversed $335 $-1 #
coedge $-1 $342 $472 $477 $567 forward $335 $-1 #
vertex $-1 $343 $571 #
straight-curve $-1 144.489646591274834 0 73.47274898087557915 0 0 1 I I #
straight-curve $-1 144.489646591274834 0 19.42101086165634172 0 -0.7313536940579346002 -0.6819983681709311796 I I #
edge $-1 $565 44.38004140839572642 $347 65.54558701914433527 $481 $572 forward 7 unknown #
point $-1 144.489646591274834 0 24.10485583216046379 #
point $-1 144.489646591274834 5.022808677328555405 24.10485583216046379 #
edge $-1 $573 1 $573 0 $350 $-1 forward 7 unknown #
vertex $-1 $351 $574 #
ellipse-curve $-1 127.5572101026759526 4.693083129877301474 19.42336932789070403 0 -0.6819983681709311796 0.7313536940579346002 1.5 0 0 1 I I #
point $-1 129.0572101026759526 2.511404338664281255 21.76293334690839743 #
edge $-1 $575 1 $575 0 $354 $-1 forward 7 unknown #
vertex $-1 $355 $576 #
ellipse-curve $-1 133.9068737859005296 4.693083129877301474 19.42336932789070403 0 -0.6819983681709311796 0.7313536940579346002 1.5 0 0 1 I I #
point $-1 135.4068737859005296 2.511404338664281255 21.76293334690839743 #
edge $-1 $577 1 $577 0 $358 $-1 forward 7 unknown #
vertex $-1 $359 $578 #
ellipse-curve $-1 140.2565374691251066 4.693083129877301474 19.42336932789070403 0 -0.6819983681709311796 0.7313536940579346002 1.5 0 0 1 I I #
point $-1 141.7565374691251066 2.511404338664281255 21.76293334690839743 #
plane-surface $-1 157.8881191442609975 32.63143197902920178 12.0524279160802319 -1 0 0 0 0 1 forward_v I I I I #
coedge $-1 $367 $365 $369 $506 reversed $248 $-1 #
edge $-1 $380 -12.0524279160802319 $508 12.0524279160802319 $379 $579 forward 7 unknown #
vertex $-1 $506 $580 #
straight-curve $-1 0 0 12.0524279160802319 0 0 -1 I I #
edge $-1 $504 -32.63143197902920178 $508 32.63143197902920178 $502 $581 forward 7 unknown #
straight-curve $-1 78.94405957213049874 0 0 -1 0 0 I I #
vertex $-1 $372 $582 #
straight-curve $-1 78.94405957213049874 65.26286395805840357 0 1 0 0 I I #
point $-1 157.8881191442609975 65.26286395805840357 0 #
point $-1 157.8881191442609975 0 0 #
straight-curve $-1 0 32.63143197902920178 24.10485583216046379 0 -1 0 I I #
point $-1 0 65.26286395805840357 24.10485583216046379 #
point $-1 0 0 24.10485583216046379 #
straight-curve $-1 157.8881191442609975 0 12.0524279160802319 0 0 -1 I I #
straight-curve $-1 157.8881191442609975 65.26286395805840357 12.0524279160802319 0 0 -1 I I #
plane-surface $-1 78.94405957213049874 65.26286395805840357 12.0524279160802319 0 -1 0 0 0 -1 forward_v I I I I #
coedge $-1 $528 $527 $395 $520 forward $390 $-1 #
straight-curve $-1 12.92977934315959487 0 16.03144816652724458 0 0 1 I I #
edge $-1 $523 -32.63143197902920178 $521 32.63143197902920178 $518 $583 forward 7 unknown #
vertex $-1 $396 $584 #
straight-curve $-1 42.70447462185514809 0 17.60906804050668129 1 0 0 I I #
vertex $-1 $398 $585 #
straight-curve $-1 42.70447462185514809 65.26286395805840357 17.60906804050668129 -1 0 0 I I #
point $-1 12.92977934315959487 65.26286395805840357 17.60906804050668129 #
point $-1 12.92977934315959487 0 17.60906804050668129 #
coedge $-1 $518 $402 $405 $530 forward $390 $-1 #
coedge $-1 $402 $518 $409 $532 reversed $390 $-1 #
straight-curve $-1 0 32.63143197902920178 22.41186879344182969 0 1 0 I I #
edge $-1 $407 -10.3594408773615978 $523 -5.55664012442644939 $405 $586 forward 7 unknown #
point $-1 0 65.26286395805840357 22.41186879344182969 #
edge $-1 $410 -10.3594408773615978 $521 -5.55664012442644939 $528 $587 forward 7 unknown #
point $-1 0 0 22.41186879344182969 #
straight-curve $-1 12.92977934315959487 65.26286395805840357 16.03144816652724458 0 0 -1 I I #
coedge $-1 $426 $425 $418 $536 forward $415 $-1 #
edge $-1 $537 70.47142961224260205 $540 75.26771509185178388 $535 $588 forward 7 unknown #
vertex $-1 $430 $589 #
straight-curve $-1 100.0854532541553397 81.69512190958538156 24.10485583216046734 0 1 0 I I #
edge $-1 $540 -19.75308015500702652 $427 16.9764531009713906 $426 $590 forward 7 unknown #
vertex $-1 $539 $591 #
straight-curve $-1 100.0854532541553397 19.11505082909258135 65.45638455238189124 0 -0.70710677298230451 0.7071067893907904134 I I #
point $-1 100.0854532541553397 60.46657858974752031 24.10485583216046734 #
point $-1 63.35591999817692255 65.26286395805840357 19.30857035255128551 #
straight-curve $-1 78.94405957213049874 65.26286395805840357 24.10485583216046379 -1 0 0 I I #
vertex $-1 $433 $592 #
point $-1 74.85007235702788364 62.12356148870363626 20.96555332435523411 #
vertex $-1 $437 $593 #
point $-1 90.59130089530434304 62.12356148870363626 20.96555332435523411 #
edge $-1 $550 49.36789314871511181 $553 54.05173811921923743 $442 $594 forward 7 unknown #
vertex $-1 $456 $595 #
straight-curve $-1 26.32825189614575834 -37.52400381546718222 24.10485583216046734 0 -1 0 I I #
edge $-1 $553 -31.59929024067952241 $453 -10.43374462993091356 $452 $596 forward 7 unknown #
vertex $-1 $552 $597 #
straight-curve $-1 26.32825189614575834 0 19.42101086165634172 0 0.7313536940579346002 0.6819983681709311796 I I #
point $-1 26.32825189614575834 5.022808677328555405 24.10485583216046379 #
point $-1 47.49379750689436719 0 19.42101086165634172 #
straight-curve $-1 78.94405957213049874 0 24.10485583216046379 1 0 0 I I #
vertex $-1 $459 $598 #
point $-1 32.06136101829548579 4.693083129877301474 19.42336932789070403 #
vertex $-1 $463 $599 #
point $-1 38.41102470152006276 4.693083129877301474 19.42336932789070403 #
vertex $-1 $467 $600 #
point $-1 44.76068838474464684 4.693083129877301474 19.42336932789070403 #
edge $-1 $565 49.36789314871511181 $568 54.05173811921923743 $472 $601 forward 7 unknown #
vertex $-1 $486 $602 #
straight-curve $-1 123.3241009805262252 -37.52400381546718222 24.10485583216046734 0 -1 0 I I #
edge $-1 $568 16.898634301510711 $483 38.06417991225931985 $482 $603 forward 7 unknown #
vertex $-1 $567 $604 #
straight-curve $-1 123.3241009805262252 0 19.42101086165634172 0 0.7313536940579346002 0.6819983681709311796 I I #
point $-1 123.3241009805262252 5.022808677328555405 24.10485583216046379 #
point $-1 144.489646591274834 0 19.42101086165634172 #
straight-curve $-1 78.94405957213049874 0 24.10485583216046379 1 0 0 I I #
vertex $-1 $489 $605 #
point $-1 129.0572101026759526 4.693083129877301474 19.42336932789070403 #
vertex $-1 $493 $606 #
point $-1 135.4068737859005296 4.693083129877301474 19.42336932789070403 #
vertex $-1 $497 $607 #
point $-1 141.7565374691251066 4.693083129877301474 19.42336932789070403 #
straight-curve $-1 0 65.26286395805840357 12.0524279160802319 0 0 -1 I I #
point $-1 0 0 0 #
straight-curve $-1 0 32.63143197902920178 0 0 1 0 I I #
point $-1 0 65.26286395805840357 0 #
straight-curve $-1 0 32.63143197902920178 17.60906804050668129 0 -1 0 I I #
point $-1 0 0 17.60906804050668129 #
point $-1 0 65.26286395805840357 17.60906804050668129 #
straight-curve $-1 0 65.26286395805840357 12.0524279160802319 0 0 -1 I I #
straight-curve $-1 0 0 12.0524279160802319 0 0 -1 I I #
straight-curve $-1 100.0854532541553397 65.26286395805840357 94.57628544440306939 0 0 -1 I I #
point $-1 100.0854532541553397 65.26286395805840357 24.10485583216046379 #
straight-curve $-1 80.33237309914831314 65.26286395805840357 19.30857035255128551 -1 0 0 I I #
point $-1 100.0854532541553397 65.26286395805840357 19.30857035255128551 #
point $-1 73.85007235702788364 61.41645469931284396 20.25844655137293415 #
point $-1 89.59130089530434304 61.41645469931284396 20.25844655137293415 #
straight-curve $-1 26.32825189614575834 0 73.47274898087557915 0 0 -1 I I #
point $-1 26.32825189614575834 0 24.10485583216046379 #
straight-curve $-1 57.92754213682528075 0 19.42101086165633816 1 0 0 I I #
point $-1 26.32825189614575834 0 19.42101086165634172 #
point $-1 30.56136101829548579 5.716080682133700464 18.32633878680380235 #
point $-1 36.91102470152006276 5.716080682133700464 18.32633878680380235 #
point $-1 43.26068838474464684 5.716080682133700464 18.32633878680380235 #
straight-curve $-1 123.3241009805262252 0 73.47274898087557915 0 0 -1 I I #
point $-1 123.3241009805262252 0 24.10485583216046379 #
straight-curve $-1 106.4254666790155142 0 19.42101086165633816 1 0 0 I I #
point $-1 123.3241009805262252 0 19.42101086165634172 #
point $-1 127.5572101026759526 5.716080682133700464 18.32633878680380235 #
point $-1 133.9068737859005296 5.716080682133700464 18.32633878680380235 #
point $-1 140.2565374691251066 5.716080682133700464 18.32633878680380235 #
End-of-ACIS-data 