500 0 13 0           
7 Unknown 11 ACIS 5.0 NT 24 Fri Mar 26 15:44:27 1999 
-1 9.9999999999999995e-007 1e-010 
body $-1 $13 $-1 $14 #
body $-1 $15 $-1 $16 #
body $-1 $17 $-1 $18 #
body $-1 $19 $-1 $20 #
body $-1 $21 $-1 $22 #
body $-1 $23 $-1 $24 #
body $-1 $25 $-1 $26 #
body $-1 $27 $-1 $28 #
body $-1 $29 $-1 $30 #
body $-1 $31 $-1 $32 #
body $-1 $33 $-1 $34 #
body $-1 $35 $-1 $36 #
body $-1 $37 $-1 $38 #
lump $-1 $-1 $39 $0 #
transform $-1 1 0 0 0 1 0 0 0 1 48.473158970915861 23.165989405583307 6.0003779803786328 1 rotate no_reflect no_shear #
lump $-1 $-1 $40 $1 #
transform $-1 1 0 0 0 1 0 0 0 1 48.473158970915861 23.165989405583307 6.0003779803786328 1 rotate no_reflect no_shear #
lump $-1 $-1 $41 $2 #
transform $-1 1 0 0 0 1 0 0 0 1 48.473158970915861 23.165989405583307 6.0003779803786328 1 rotate no_reflect no_shear #
lump $-1 $-1 $42 $3 #
transform $-1 1 0 0 0 1 0 0 0 1 48.473158970915861 23.165989405583307 6.0003779803786328 1 rotate no_reflect no_shear #
lump $-1 $-1 $43 $4 #
transform $-1 1 0 0 0 1 0 0 0 1 48.473158970915861 23.165989405583307 6.0003779803786328 1 rotate no_reflect no_shear #
lump $-1 $-1 $44 $5 #
transform $-1 1 0 0 0 1 0 0 0 1 48.473158970915861 23.165989405583307 6.0003779803786328 1 rotate no_reflect no_shear #
lump $-1 $-1 $45 $6 #
transform $-1 1 0 0 0 1 0 0 0 1 48.473158970915861 23.165989405583307 6.0003779803786328 1 rotate no_reflect no_shear #
lump $-1 $-1 $46 $7 #
transform $-1 1 0 0 0 1 0 0 0 1 48.473158970915861 23.165989405583307 6.0003779803786328 1 rotate no_reflect no_shear #
lump $-1 $-1 $47 $8 #
transform $-1 1 0 0 0 1 0 0 0 1 48.473158970915861 23.165989405583307 6.0003779803786328 1 rotate no_reflect no_shear #
lump $-1 $-1 $48 $9 #
transform $-1 1 0 0 0 1 0 0 0 1 48.473158970915861 23.165989405583307 6.0003779803786328 1 rotate no_reflect no_shear #
lump $-1 $-1 $49 $10 #
transform $-1 1 0 0 0 1 0 0 0 1 48.473158970915861 23.165989405583307 6.0003779803786328 1 rotate no_reflect no_shear #
lump $-1 $-1 $50 $11 #
transform $-1 1 0 0 0 1 0 0 0 1 48.473158970915861 23.165989405583307 6.0003779803786328 1 rotate no_reflect no_shear #
lump $-1 $-1 $51 $12 #
transform $-1 1 0 0 0 1 0 0 0 1 48.473158970915861 23.165989405583307 6.0003779803786328 1 rotate no_reflect no_shear #
shell $-1 $-1 $-1 $52 $-1 $13 #
shell $-1 $-1 $-1 $53 $-1 $15 #
shell $-1 $-1 $-1 $54 $-1 $17 #
shell $-1 $-1 $-1 $55 $-1 $19 #
shell $-1 $-1 $-1 $56 $-1 $21 #
shell $-1 $-1 $-1 $57 $-1 $23 #
shell $-1 $-1 $-1 $58 $-1 $25 #
shell $-1 $-1 $-1 $59 $-1 $27 #
shell $-1 $-1 $-1 $60 $-1 $29 #
shell $-1 $-1 $-1 $61 $-1 $31 #
shell $-1 $-1 $-1 $62 $-1 $33 #
shell $-1 $-1 $-1 $63 $-1 $35 #
shell $-1 $-1 $-1 $64 $-1 $37 #
face $-1 $65 $66 $39 $-1 $67 forward single #
face $-1 $68 $69 $40 $-1 $70 forward single #
face $-1 $71 $72 $41 $-1 $73 reversed single #
face $-1 $74 $75 $42 $-1 $76 forward single #
face $-1 $77 $78 $43 $-1 $79 forward single #
face $-1 $80 $81 $44 $-1 $82 reversed single #
face $-1 $83 $84 $45 $-1 $85 forward single #
face $-1 $86 $87 $46 $-1 $88 forward single #
face $-1 $89 $90 $47 $-1 $91 forward single #
face $-1 $92 $93 $48 $-1 $94 reversed single #
face $-1 $95 $96 $49 $-1 $97 forward single #
face $-1 $98 $99 $50 $-1 $100 forward single #
face $-1 $101 $102 $51 $-1 $103 forward single #
face $-1 $104 $105 $39 $-1 $106 reversed single #
loop $-1 $-1 $107 $52 #
plane-surface $-1 0 0 6.0003779803786328 0 0 1 1 0 0 forward_v I I I I #
face $-1 $108 $109 $40 $-1 $110 reversed single #
loop $-1 $-1 $111 $53 #
plane-surface $-1 0 -20.180241463019122 -2.9448310305510086 0 0 1 1 0 0 forward_v I I I I #
face $-1 $112 $113 $41 $-1 $114 reversed single #
loop $-1 $-1 $115 $54 #
plane-surface $-1 34.142015593384244 17.795570972637162 138.66307015381068 0 -1 0 -0.62932039886446345 0 -0.77714595512881146 forward_v I I I I #
face $-1 $116 $117 $42 $-1 $118 forward single #
loop $-1 $119 $120 $55 #
cone-surface $-1 45.253218750912538 10.033548936749536 2.9924029756477024 -0.62932039886446345 0 -0.77714595512881146 0.77714595512881146 0 -0.62932039886446345 1 I I 0 1 1 forward I I I I #
face $-1 $121 $122 $43 $-1 $123 forward single #
loop $-1 $124 $125 $56 #
cone-surface $-1 45.253218750912538 14.690762158282116 2.9924029756477024 -0.62932039886446345 0 -0.77714595512881146 0.77714595512881146 0 -0.62932039886446345 1 I I 0 1 1 forward I I I I #
face $-1 $126 $127 $44 $-1 $128 reversed single #
loop $-1 $-1 $129 $57 #
plane-surface $-1 -119.37520825724667 -3.4362833142867206 66.642549236388533 0 1 0 -0.73135370988377701 0 0.68199835119979291 forward_v I I I I #
face $-1 $130 $131 $45 $-1 $132 forward single #
loop $-1 $133 $134 $58 #
cone-surface $-1 -45.554695210216394 -2.1518770629165402 2.9218499371736075 0.73135370988377701 0 -0.68199835119979291 0.34099917559989645 0 0.36567685494188851 1 I I 0 1 0.5 forward I I I I #
face $-1 $135 $136 $46 $-1 $137 forward single #
loop $-1 $138 $139 $59 #
cone-surface $-1 -45.554695210216394 -0.22526768586126522 2.9218499371736075 0.73135370988377701 0 -0.68199835119979291 0.34099917559989645 0 0.36567685494188851 1 I I 0 1 0.5 forward I I I I #
face $-1 $140 $141 $47 $-1 $142 forward single #
loop $-1 $143 $144 $60 #
cone-surface $-1 -45.554695210216394 1.7013416911940098 2.9218499371736075 0.73135370988377701 0 -0.68199835119979291 0.34099917559989645 0 0.36567685494188851 1 I I 0 1 0.5 forward I I I I #
face $-1 $145 $146 $48 $-1 $147 reversed single #
loop $-1 $-1 $148 $61 #
plane-surface $-1 -119.37520825724667 16.743958148732403 66.642549236388533 0 1 0 -0.73135370988377701 0 0.68199835119979291 forward_v I I I I #
face $-1 $149 $150 $49 $-1 $151 forward single #
loop $-1 $152 $153 $62 #
cone-surface $-1 -45.554695210216394 18.028364400102586 2.9218499371736075 0.73135370988377701 0 -0.68199835119979291 0.34099917559989645 0 0.36567685494188851 1 I I 0 1 0.5 forward I I I I #
face $-1 $154 $155 $50 $-1 $156 forward single #
loop $-1 $157 $158 $63 #
cone-surface $-1 -45.554695210216394 19.954973777157857 2.9218499371736075 0.73135370988377701 0 -0.68199835119979291 0.34099917559989645 0 0.36567685494188851 1 I I 0 1 0.5 forward I I I I #
face $-1 $159 $160 $51 $-1 $161 forward single #
loop $-1 $162 $163 $64 #
cone-surface $-1 -45.554695210216394 21.881583154213136 2.9218499371736075 0.73135370988377701 0 -0.68199835119979291 0.34099917559989645 0 0.36567685494188851 1 I I 0 1 0.5 forward I I I I #
face $-1 $164 $165 $39 $-1 $166 reversed single #
loop $-1 $-1 $167 $65 #
plane-surface $-1 0 0 -6.0003779803786328 0 0 1 1 0 0 forward_v I I I I #
coedge $-1 $168 $169 $170 $171 forward $66 $-1 #
face $-1 $172 $173 $40 $-1 $174 reversed single #
loop $-1 $-1 $175 $68 #
plane-surface $-1 0 -17.194493520454937 -4.4726045054648207 0 -1 0 0 0 -1 forward_v I I I I #
coedge $-1 $176 $177 $178 $179 reversed $69 $-1 #
face $-1 $180 $181 $41 $-1 $182 reversed single #
loop $-1 $-1 $183 $71 #
plane-surface $-1 -26.868279882210388 12.362155547515822 63.32163130068443 0.62932039886446345 0 0.77714595512881146 0.77714595512881146 0 -0.62932039886446345 forward_v I I I I #
coedge $-1 $184 $185 $186 $187 reversed $72 $-1 #
face $-1 $-1 $188 $42 $-1 $189 forward single #
loop $-1 $190 $191 $74 #
cone-surface $-1 43.996412118596723 10.033548936749536 1.4403760709967814 -0.62932039886446345 0 -0.77714595512881146 0.38857297756440573 0 -0.31466019943223172 1 I I -0.70710678118654746 0.70710678118654746 0.5 forward I I I I #
loop $-1 $-1 $192 $55 #
coedge $-1 $120 $120 $193 $194 reversed $75 $-1 #
face $-1 $-1 $195 $43 $-1 $196 forward single #
loop $-1 $197 $198 $77 #
cone-surface $-1 43.996412118596723 14.690762158282116 1.4403760709967814 -0.62932039886446345 0 -0.77714595512881146 0.38857297756440573 0 -0.31466019943223172 1 I I -0.70710678118654746 0.70710678118654746 0.5 forward I I I I #
loop $-1 $-1 $199 $56 #
coedge $-1 $125 $125 $200 $201 reversed $78 $-1 #
face $-1 $202 $203 $44 $-1 $204 reversed single #
loop $-1 $-1 $205 $80 #
plane-surface $-1 -48.473158970915861 -0.22526768586126522 0.52532024516840181 -0.73135370988377701 0 0.68199835119979291 0.68199835119979291 0 0.73135370988377701 forward_v I I I I #
coedge $-1 $206 $207 $208 $209 reversed $81 $-1 #
face $-1 $-1 $210 $45 $-1 $211 forward single #
loop $-1 $212 $213 $83 #
cone-surface $-1 -45.006179927803558 -2.1518770629165402 2.4103511737737628 0.73135370988377701 0 -0.68199835119979291 0.17049958779994823 0 0.18283842747094425 1 I I -0.70710678118654746 0.70710678118654746 0.25 forward I I I I #
loop $-1 $-1 $214 $58 #
coedge $-1 $134 $134 $215 $216 reversed $84 $-1 #
face $-1 $-1 $217 $46 $-1 $218 forward single #
loop $-1 $219 $220 $86 #
cone-surface $-1 -45.006179927803558 -0.22526768586126522 2.4103511737737628 0.73135370988377701 0 -0.68199835119979291 0.17049958779994823 0 0.18283842747094425 1 I I -0.70710678118654746 0.70710678118654746 0.25 forward I I I I #
loop $-1 $-1 $221 $59 #
coedge $-1 $139 $139 $222 $223 reversed $87 $-1 #
face $-1 $-1 $224 $47 $-1 $225 forward single #
loop $-1 $226 $227 $89 #
cone-surface $-1 -45.006179927803558 1.7013416911940098 2.4103511737737628 0.73135370988377701 0 -0.68199835119979291 0.17049958779994823 0 0.18283842747094425 1 I I -0.70710678118654746 0.70710678118654746 0.25 forward I I I I #
loop $-1 $-1 $228 $60 #
coedge $-1 $144 $144 $229 $230 reversed $90 $-1 #
face $-1 $231 $232 $48 $-1 $233 forward single #
loop $-1 $-1 $234 $92 #
plane-surface $-1 -48.473158970915861 19.954973777157857 0.52532024516840181 -0.73135370988377701 0 0.68199835119979291 0.68199835119979291 0 0.73135370988377701 forward_v I I I I #
coedge $-1 $235 $236 $237 $238 reversed $93 $-1 #
face $-1 $-1 $239 $49 $-1 $240 forward single #
loop $-1 $241 $242 $95 #
cone-surface $-1 -45.006179927803558 18.028364400102586 2.4103511737737628 0.73135370988377701 0 -0.68199835119979291 0.17049958779994823 0 0.18283842747094425 1 I I -0.70710678118654746 0.70710678118654746 0.25 forward I I I I #
loop $-1 $-1 $243 $62 #
coedge $-1 $153 $153 $244 $245 reversed $96 $-1 #
face $-1 $-1 $246 $50 $-1 $247 forward single #
loop $-1 $248 $249 $98 #
cone-surface $-1 -45.006179927803558 19.954973777157857 2.4103511737737628 0.73135370988377701 0 -0.68199835119979291 0.17049958779994823 0 0.18283842747094425 1 I I -0.70710678118654746 0.70710678118654746 0.25 forward I I I I #
loop $-1 $-1 $250 $63 #
coedge $-1 $158 $158 $251 $252 reversed $99 $-1 #
face $-1 $-1 $253 $51 $-1 $254 forward single #
loop $-1 $255 $256 $101 #
cone-surface $-1 -45.006179927803558 21.881583154213136 2.4103511737737628 0.73135370988377701 0 -0.68199835119979291 0.17049958779994823 0 0.18283842747094425 1 I I -0.70710678118654746 0.70710678118654746 0.25 forward I I I I #
loop $-1 $-1 $257 $64 #
coedge $-1 $163 $163 $258 $259 reversed $102 $-1 #
face $-1 $260 $261 $39 $-1 $262 reversed single #
loop $-1 $-1 $263 $104 #
plane-surface $-1 0 -23.165989405583307 0 0 1 0 0 0 1 forward_v I I I I #
coedge $-1 $264 $265 $266 $267 forward $105 $-1 #
coedge $-1 $268 $107 $269 $270 forward $66 $-1 #
coedge $-1 $107 $268 $271 $272 forward $66 $-1 #
coedge $-1 $273 $274 $107 $171 reversed $275 $-1 #
edge $-1 $276 -23.165989405583307 $277 23.165989405583307 $170 $278 forward 7 unknown #
face $-1 $279 $280 $40 $-1 $281 reversed single #
loop $-1 $-1 $282 $108 #
plane-surface $-1 0 0 -6.0003779803786328 0 0 1 1 0 0 forward_v I I I I #
coedge $-1 $283 $284 $285 $286 reversed $109 $-1 #
coedge $-1 $287 $111 $284 $288 forward $69 $-1 #
coedge $-1 $111 $287 $289 $290 reversed $69 $-1 #
coedge $-1 $291 $285 $111 $179 forward $280 $-1 #
edge $-1 $292 7.1043727889453763 $293 13.075868674073746 $178 $294 forward 7 unknown #
face $-1 $295 $296 $41 $-1 $297 reversed single #
loop $-1 $-1 $298 $112 #
plane-surface $-1 34.142015593384244 6.9287401223944833 138.66307015381068 0 1 0 0.62932039886446345 0 0.77714595512881146 forward_v I I I I #
coedge $-1 $299 $300 $301 $302 reversed $113 $-1 #
coedge $-1 $185 $115 $303 $304 reversed $72 $-1 #
coedge $-1 $115 $184 $299 $305 reversed $72 $-1 #
coedge $-1 $301 $306 $115 $187 forward $307 $-1 #
edge $-1 $308 -31.402151174223739 $309 -26.846563599984258 $186 $310 forward 7 unknown #
loop $-1 $-1 $193 $116 #
plane-surface $-1 -26.868279882210388 12.362155547515822 63.32163130068443 0.62932039886446345 0 0.77714595512881146 0.77714595512881146 0 -0.62932039886446345 forward_v I I I I #
loop $-1 $-1 $311 $74 #
coedge $-1 $191 $191 $192 $312 reversed $117 $-1 #
coedge $-1 $192 $192 $191 $312 forward $119 $-1 #
coedge $-1 $193 $193 $120 $194 forward $188 $-1 #
edge $-1 $313 0 $313 6.2831853071796004 $193 $314 forward 7 unknown #
loop $-1 $-1 $200 $121 #
plane-surface $-1 -26.868279882210388 12.362155547515822 63.32163130068443 0.62932039886446345 0 0.77714595512881146 0.77714595512881146 0 -0.62932039886446345 forward_v I I I I #
loop $-1 $-1 $315 $77 #
coedge $-1 $198 $198 $199 $316 reversed $122 $-1 #
coedge $-1 $199 $199 $198 $316 forward $124 $-1 #
coedge $-1 $200 $200 $125 $201 forward $195 $-1 #
edge $-1 $317 0 $317 6.2831853071796004 $200 $318 forward 7 unknown #
face $-1 $319 $320 $44 $-1 $321 forward single #
loop $-1 $-1 $322 $126 #
plane-surface $-1 -119.37520825724667 2.9857479425641902 66.642549236388533 0 -1 0 0.73135370988377701 0 -0.68199835119979291 forward_v I I I I #
coedge $-1 $323 $324 $325 $326 reversed $127 $-1 #
coedge $-1 $207 $129 $327 $328 reversed $81 $-1 #
coedge $-1 $129 $206 $323 $329 reversed $81 $-1 #
coedge $-1 $325 $330 $129 $209 forward $320 $-1 #
edge $-1 $331 11.214445157707473 $332 16.320018969222609 $208 $333 forward 7 unknown #
loop $-1 $-1 $215 $130 #
plane-surface $-1 -48.473158970915861 -0.22526768586126522 0.52532024516840181 -0.73135370988377701 0 0.68199835119979291 0.68199835119979291 0 0.73135370988377701 forward_v I I I I #
loop $-1 $-1 $334 $83 #
coedge $-1 $213 $213 $214 $335 reversed $131 $-1 #
coedge $-1 $214 $214 $213 $335 forward $133 $-1 #
coedge $-1 $215 $215 $134 $216 forward $210 $-1 #
edge $-1 $336 0 $336 6.2831853071796004 $215 $337 forward 7 unknown #
loop $-1 $-1 $222 $135 #
plane-surface $-1 -48.473158970915861 -0.22526768586126522 0.52532024516840181 -0.73135370988377701 0 0.68199835119979291 0.68199835119979291 0 0.73135370988377701 forward_v I I I I #
loop $-1 $-1 $338 $86 #
coedge $-1 $220 $220 $221 $339 reversed $136 $-1 #
coedge $-1 $221 $221 $220 $339 forward $138 $-1 #
coedge $-1 $222 $222 $139 $223 forward $217 $-1 #
edge $-1 $340 0 $340 6.2831853071796004 $222 $341 forward 7 unknown #
loop $-1 $-1 $229 $140 #
plane-surface $-1 -48.473158970915861 -0.22526768586126522 0.52532024516840181 -0.73135370988377701 0 0.68199835119979291 0.68199835119979291 0 0.73135370988377701 forward_v I I I I #
loop $-1 $-1 $342 $89 #
coedge $-1 $227 $227 $228 $343 reversed $141 $-1 #
coedge $-1 $228 $228 $227 $343 forward $143 $-1 #
coedge $-1 $229 $229 $144 $230 forward $224 $-1 #
edge $-1 $344 0 $344 6.2831853071796004 $229 $345 forward 7 unknown #
face $-1 $346 $347 $48 $-1 $348 reversed single #
loop $-1 $-1 $237 $145 #
plane-surface $-1 0 0 6.0003779803786328 0 0 1 1 0 0 forward_v I I I I #
coedge $-1 $349 $350 $351 $352 reversed $146 $-1 #
coedge $-1 $236 $148 $353 $354 reversed $93 $-1 #
coedge $-1 $148 $235 $349 $355 reversed $93 $-1 #
coedge $-1 $351 $356 $148 $238 forward $232 $-1 #
edge $-1 $357 11.214445157707473 $358 16.320018969222609 $237 $359 forward 7 unknown #
loop $-1 $-1 $244 $149 #
plane-surface $-1 -48.473158970915861 19.954973777157857 0.52532024516840181 -0.73135370988377701 0 0.68199835119979291 0.68199835119979291 0 0.73135370988377701 forward_v I I I I #
loop $-1 $-1 $360 $95 #
coedge $-1 $242 $242 $243 $361 reversed $150 $-1 #
coedge $-1 $243 $243 $242 $361 forward $152 $-1 #
coedge $-1 $244 $244 $153 $245 forward $239 $-1 #
edge $-1 $362 0 $362 6.2831853071796004 $244 $363 forward 7 unknown #
loop $-1 $-1 $251 $154 #
plane-surface $-1 -48.473158970915861 19.954973777157857 0.52532024516840181 -0.73135370988377701 0 0.68199835119979291 0.68199835119979291 0 0.73135370988377701 forward_v I I I I #
loop $-1 $-1 $364 $98 #
coedge $-1 $249 $249 $250 $365 reversed $155 $-1 #
coedge $-1 $250 $250 $249 $365 forward $157 $-1 #
coedge $-1 $251 $251 $158 $252 forward $246 $-1 #
edge $-1 $366 0 $366 6.2831853071796004 $251 $367 forward 7 unknown #
loop $-1 $-1 $258 $159 #
plane-surface $-1 -48.473158970915861 19.954973777157857 0.52532024516840181 -0.73135370988377701 0 0.68199835119979291 0.68199835119979291 0 0.73135370988377701 forward_v I I I I #
loop $-1 $-1 $368 $101 #
coedge $-1 $256 $256 $257 $369 reversed $160 $-1 #
coedge $-1 $257 $257 $256 $369 forward $162 $-1 #
coedge $-1 $258 $258 $163 $259 forward $253 $-1 #
edge $-1 $370 0 $370 6.2831853071796004 $258 $371 forward 7 unknown #
face $-1 $372 $373 $39 $-1 $374 reversed single #
loop $-1 $-1 $375 $164 #
plane-surface $-1 -48.473158970915861 0 0 1 0 0 0 0 -1 forward_v I I I I #
coedge $-1 $376 $271 $377 $378 forward $165 $-1 #
coedge $-1 $379 $167 $376 $380 forward $105 $-1 #
coedge $-1 $167 $379 $381 $382 forward $105 $-1 #
coedge $-1 $274 $273 $167 $267 reversed $275 $-1 #
edge $-1 $383 -23.165989405583307 $384 23.165989405583307 $266 $385 forward 7 unknown #
coedge $-1 $169 $168 $386 $387 forward $66 $-1 #
coedge $-1 $388 $389 $168 $270 reversed $373 $-1 #
edge $-1 $277 -48.473158970915861 $390 48.473158970915861 $269 $391 forward 7 unknown #
coedge $-1 $263 $392 $169 $272 reversed $165 $-1 #
edge $-1 $393 -48.473158970915861 $276 48.473158970915861 $271 $394 forward 7 unknown #
coedge $-1 $266 $170 $392 $395 forward $275 $-1 #
coedge $-1 $170 $266 $388 $396 reversed $275 $-1 #
loop $-1 $-1 $273 $372 #
vertex $-1 $171 $397 #
vertex $-1 $171 $398 #
straight-curve $-1 48.473158970915861 0 6.0003779803786328 0 1 0 I I #
face $-1 $399 $400 $40 $-1 $401 reversed single #
loop $-1 $-1 $285 $172 #
plane-surface $-1 48.473158970915861 0 0 -1 0 0 0 0 1 forward_v I I I I #
coedge $-1 $402 $403 $283 $404 forward $173 $-1 #
coedge $-1 $405 $175 $282 $404 reversed $109 $-1 #
coedge $-1 $175 $405 $176 $288 reversed $109 $-1 #
coedge $-1 $178 $406 $175 $286 forward $280 $-1 #
edge $-1 $407 -3.7640757276462224 $292 -0.70852877781859824 $285 $408 forward 7 unknown #
coedge $-1 $177 $176 $409 $410 reversed $69 $-1 #
edge $-1 $292 -48.473158970915861 $411 48.473158970915861 $284 $412 forward 7 unknown #
coedge $-1 $413 $414 $177 $290 forward $400 $-1 #
edge $-1 $293 -48.473158970915861 $415 48.473158970915861 $289 $416 forward 7 unknown #
coedge $-1 $406 $178 $414 $417 forward $280 $-1 #
vertex $-1 $179 $418 #
vertex $-1 $417 $419 #
straight-curve $-1 48.473158970915861 -10.090120731509561 -2.9448310305510086 0 -1 0 I I #
face $-1 $-1 $307 $41 $-1 $420 forward single #
loop $-1 $-1 $421 $180 #
plane-surface $-1 48.473158970915861 0 0 -1 0 0 0 0 1 forward_v I I I I #
coedge $-1 $422 $423 $424 $425 reversed $181 $-1 #
coedge $-1 $426 $183 $185 $305 forward $113 $-1 #
coedge $-1 $183 $426 $422 $427 forward $113 $-1 #
coedge $-1 $424 $186 $183 $302 forward $307 $-1 #
edge $-1 $309 -11.61449319887925 $428 -0.7476623486365721 $301 $429 forward 7 unknown #
coedge $-1 $430 $431 $184 $304 forward $296 $-1 #
edge $-1 $432 -67.020199251815541 $308 -63.331157096526709 $303 $433 forward 7 unknown #
edge $-1 $309 91.084372004682251 $432 96.946317941831722 $185 $434 forward 7 unknown #
coedge $-1 $186 $424 $430 $435 forward $307 $-1 #
loop $-1 $-1 $424 $295 #
vertex $-1 $304 $436 #
vertex $-1 $187 $437 #
straight-curve $-1 17.071007796692122 17.795570972637162 6.0003779803786301 -1 0 0 I I #
coedge $-1 $311 $311 $-1 $438 reversed $190 $-1 #
edge $-1 $439 0 $439 6.2831853071796004 $191 $440 forward 7 unknown #
vertex $-1 $194 $441 #
ellipse-curve $-1 46.19536518379612 10.033548936749536 4.155856902734218 0.62932039886446345 0 0.77714595512881146 0.77714595512881146 0 -0.62932039886446345 1 I I #
coedge $-1 $315 $315 $-1 $442 reversed $197 $-1 #
edge $-1 $443 0 $443 6.2831853071796004 $198 $444 forward 7 unknown #
vertex $-1 $201 $445 #
ellipse-curve $-1 46.19536518379612 14.690762158282116 4.155856902734218 0.62932039886446345 0 0.77714595512881146 0.77714595512881146 0 -0.62932039886446345 1 I I #
face $-1 $-1 $446 $44 $-1 $447 reversed single #
loop $-1 $-1 $208 $202 #
plane-surface $-1 0 0 6.0003779803786328 0 0 1 1 0 0 forward_v I I I I #
coedge $-1 $448 $449 $450 $451 reversed $203 $-1 #
coedge $-1 $452 $205 $207 $329 forward $127 $-1 #
coedge $-1 $205 $452 $448 $453 forward $127 $-1 #
coedge $-1 $450 $208 $205 $326 forward $320 $-1 #
edge $-1 $332 -3.323649471356088 $454 3.0983817854948228 $325 $455 forward 7 unknown #
coedge $-1 $456 $457 $206 $328 forward $446 $-1 #
edge $-1 $458 -32.795954373025864 $331 -27.320896637815633 $327 $459 forward 7 unknown #
edge $-1 $332 -7.4861967078560365 $458 0 $207 $460 forward 7 unknown #
coedge $-1 $208 $450 $456 $461 forward $320 $-1 #
vertex $-1 $328 $462 #
vertex $-1 $209 $463 #
straight-curve $-1 -59.687604128623335 -3.4362833142867206 6.0003779803786337 1 0 0 I I #
coedge $-1 $334 $334 $-1 $464 reversed $212 $-1 #
edge $-1 $465 0 $465 6.2831853071796004 $213 $466 forward 7 unknown #
vertex $-1 $216 $467 #
ellipse-curve $-1 -45.920372065158297 -2.1518770629165402 3.2628491127735155 -0.73135370988377701 0 0.68199835119979291 0.34099917559989645 0 0.36567685494188851 1 I I #
coedge $-1 $338 $338 $-1 $468 reversed $219 $-1 #
edge $-1 $469 0 $469 6.2831853071796004 $220 $470 forward 7 unknown #
vertex $-1 $223 $471 #
ellipse-curve $-1 -45.920372065158297 -0.22526768586126522 3.2628491127735155 -0.73135370988377701 0 0.68199835119979291 0.34099917559989645 0 0.36567685494188851 1 I I #
coedge $-1 $342 $342 $-1 $472 reversed $226 $-1 #
edge $-1 $473 0 $473 6.2831853071796004 $227 $474 forward 7 unknown #
vertex $-1 $230 $475 #
ellipse-curve $-1 -45.920372065158297 1.7013416911940098 3.2628491127735155 -0.73135370988377701 0 0.68199835119979291 0.34099917559989645 0 0.36567685494188851 1 I I #
face $-1 $-1 $476 $48 $-1 $477 reversed single #
loop $-1 $-1 $478 $231 #
plane-surface $-1 0 23.165989405583307 0 0 -1 0 0 0 -1 forward_v I I I I #
coedge $-1 $479 $234 $236 $355 forward $146 $-1 #
coedge $-1 $234 $479 $478 $480 reversed $146 $-1 #
coedge $-1 $481 $237 $234 $352 forward $232 $-1 #
edge $-1 $358 6.7664712601534749 $482 13.188502517004382 $351 $483 forward 7 unknown #
coedge $-1 $484 $485 $235 $354 forward $476 $-1 #
edge $-1 $486 -32.795954373025864 $357 -27.320896637815633 $353 $487 forward 7 unknown #
edge $-1 $358 -7.4861967078560365 $486 0 $236 $488 forward 7 unknown #
coedge $-1 $237 $481 $484 $489 forward $232 $-1 #
vertex $-1 $354 $490 #
vertex $-1 $238 $491 #
straight-curve $-1 -59.687604128623335 16.743958148732403 6.0003779803786337 1 0 0 I I #
coedge $-1 $360 $360 $-1 $492 reversed $241 $-1 #
edge $-1 $493 0 $493 6.2831853071796004 $242 $494 forward 7 unknown #
vertex $-1 $245 $495 #
ellipse-curve $-1 -45.920372065158297 18.028364400102586 3.2628491127735155 -0.73135370988377701 0 0.68199835119979291 0.34099917559989645 0 0.36567685494188851 1 I I #
coedge $-1 $364 $364 $-1 $496 reversed $248 $-1 #
edge $-1 $497 0 $497 6.2831853071796004 $249 $498 forward 7 unknown #
vertex $-1 $252 $499 #
ellipse-curve $-1 -45.920372065158297 19.954973777157857 3.2628491127735155 -0.73135370988377701 0 0.68199835119979291 0.34099917559989645 0 0.36567685494188851 1 I I #
coedge $-1 $368 $368 $-1 $500 reversed $255 $-1 #
edge $-1 $501 0 $501 6.2831853071796004 $256 $502 forward 7 unknown #
vertex $-1 $259 $503 #
ellipse-curve $-1 -45.920372065158297 21.881583154213136 3.2628491127735155 -0.73135370988377701 0 0.68199835119979291 0.34099917559989645 0 0.36567685494188851 1 I I #
face $-1 $-1 $275 $39 $-1 $504 reversed single #
loop $-1 $-1 $388 $260 #
plane-surface $-1 0 23.165989405583307 0 0 -1 0 0 0 -1 forward_v I I I I #
coedge $-1 $505 $386 $389 $506 forward $261 $-1 #
coedge $-1 $392 $263 $264 $380 reversed $165 $-1 #
coedge $-1 $386 $505 $263 $378 reversed $261 $-1 #
edge $-1 $393 -6.0003779803786328 $507 6.0003779803786328 $377 $508 forward 7 unknown #
coedge $-1 $265 $264 $505 $509 forward $105 $-1 #
edge $-1 $384 -48.473158970915861 $507 48.473158970915861 $376 $510 forward 7 unknown #
coedge $-1 $389 $388 $265 $382 reversed $373 $-1 #
edge $-1 $511 -48.473158970915861 $383 48.473158970915861 $381 $512 forward 7 unknown #
vertex $-1 $267 $513 #
vertex $-1 $395 $514 #
straight-curve $-1 48.473158970915861 0 -6.0003779803786328 0 -1 0 I I #
coedge $-1 $375 $377 $268 $387 reversed $261 $-1 #
edge $-1 $390 -23.165989405583307 $393 23.165989405583307 $386 $515 forward 7 unknown #
coedge $-1 $381 $269 $274 $396 forward $373 $-1 #
coedge $-1 $269 $381 $375 $506 reversed $373 $-1 #
vertex $-1 $270 $516 #
straight-curve $-1 0 23.165989405583307 6.0003779803786328 -1 0 0 I I #
coedge $-1 $271 $376 $273 $395 reversed $165 $-1 #
vertex $-1 $387 $517 #
straight-curve $-1 0 -23.165989405583307 6.0003779803786328 1 0 0 I I #
edge $-1 $276 -6.0003779803786328 $384 6.0003779803786328 $273 $518 forward 7 unknown #
edge $-1 $277 -6.0003779803786328 $383 6.0003779803786328 $274 $519 forward 7 unknown #
point $-1 48.473158970915861 -23.165989405583307 6.0003779803786328 #
point $-1 48.473158970915861 23.165989405583307 6.0003779803786328 #
face $-1 $-1 $520 $40 $-1 $521 reversed single #
loop $-1 $-1 $289 $279 #
plane-surface $-1 0 -23.165989405583307 0 0 1 0 0 0 1 forward_v I I I I #
coedge $-1 $522 $282 $406 $523 forward $173 $-1 #
coedge $-1 $282 $522 $524 $525 forward $173 $-1 #
edge $-1 $526 -48.473158970915861 $407 48.473158970915861 $282 $527 forward 7 unknown #
coedge $-1 $284 $283 $528 $529 reversed $109 $-1 #
coedge $-1 $285 $291 $402 $523 reversed $280 $-1 #
vertex $-1 $523 $530 #
straight-curve $-1 48.473158970915861 -17.194493520454937 -2.2363022527324103 0 0 1 I I #
coedge $-1 $528 $531 $287 $410 forward $520 $-1 #
edge $-1 $415 -13.075868674073746 $411 -7.1043727889453763 $409 $532 forward 7 unknown #
vertex $-1 $410 $533 #
straight-curve $-1 0 -17.194493520454937 -2.9448310305510086 -1 0 0 I I #
coedge $-1 $534 $289 $531 $535 forward $400 $-1 #
coedge $-1 $289 $534 $291 $417 reversed $400 $-1 #
vertex $-1 $535 $536 #
straight-curve $-1 0 -23.165989405583307 -2.9448310305510086 -1 0 0 I I #
edge $-1 $293 2.9448310305510086 $537 6.0003779803786328 $291 $538 forward 7 unknown #
point $-1 48.473158970915861 -17.194493520454937 -2.9448310305510086 #
point $-1 48.473158970915861 -23.165989405583307 -2.9448310305510086 #
plane-surface $-1 0 0 6.0003779803786328 0 0 1 1 0 0 forward_v I I I I #
coedge $-1 $431 $430 $423 $539 forward $296 $-1 #
coedge $-1 $423 $298 $300 $427 reversed $181 $-1 #
coedge $-1 $298 $422 $421 $539 reversed $181 $-1 #
coedge $-1 $306 $301 $298 $425 forward $307 $-1 #
edge $-1 $428 26.846563599984258 $540 31.402151174223739 $424 $541 forward 7 unknown #
coedge $-1 $300 $299 $431 $542 reversed $113 $-1 #
edge $-1 $543 -96.946317941831722 $428 -91.084372004682251 $422 $544 forward 7 unknown #
vertex $-1 $302 $545 #
straight-curve $-1 43.917571396676387 6.1810777737579112 6.000377980378623 0 -1 0 I I #
coedge $-1 $421 $303 $306 $435 reversed $296 $-1 #
coedge $-1 $303 $421 $426 $542 forward $296 $-1 #
vertex $-1 $304 $546 #
straight-curve $-1 48.473158970915861 17.795570972637162 69.33153507690534 0 0 1 I I #
straight-curve $-1 -26.868279882210388 17.795570972637162 63.32163130068443 0.77714595512881146 0 -0.62932039886446345 I I #
edge $-1 $540 6.9287401223944833 $308 17.795570972637162 $430 $547 forward 7 unknown #
point $-1 48.473158970915861 17.795570972637162 6.0003779803786328 #
point $-1 43.917571396676379 17.795570972637162 6.0003779803786301 #
edge $-1 $548 1 $548 0 $311 $-1 forward 7 unknown #
vertex $-1 $312 $549 #
ellipse-curve $-1 44.311072318028955 10.033548936749536 1.8289490485611872 0.62932039886446345 0 0.77714595512881146 0.77714595512881146 0 -0.62932039886446345 1 I I #
point $-1 46.972511138924929 10.033548936749536 3.5265365038697545 #
edge $-1 $550 1 $550 0 $315 $-1 forward 7 unknown #
vertex $-1 $316 $551 #
ellipse-curve $-1 44.311072318028955 14.690762158282116 1.8289490485611872 0.62932039886446345 0 0.77714595512881146 0.77714595512881146 0 -0.62932039886446345 1 I I #
point $-1 46.972511138924929 14.690762158282116 3.5265365038697545 #
loop $-1 $-1 $327 $319 #
plane-surface $-1 -48.473158970915861 0 0 1 0 0 0 0 -1 forward_v I I I I #
coedge $-1 $449 $322 $324 $453 reversed $203 $-1 #
coedge $-1 $322 $448 $552 $553 reversed $203 $-1 #
coedge $-1 $330 $325 $322 $451 forward $320 $-1 #
edge $-1 $454 -16.320018969222609 $554 -11.214445157707473 $450 $555 forward 7 unknown #
coedge $-1 $324 $323 $457 $556 reversed $127 $-1 #
edge $-1 $557 0 $454 7.4861967078560365 $448 $558 forward 7 unknown #
vertex $-1 $326 $559 #
straight-curve $-1 -43.367585159400726 -0.11263384293063261 6.0003779803786337 0 1 0 I I #
coedge $-1 $552 $327 $330 $461 reversed $446 $-1 #
coedge $-1 $327 $552 $452 $556 forward $446 $-1 #
vertex $-1 $328 $560 #
straight-curve $-1 -48.473158970915861 -3.4362833142867206 33.321274618194266 0 0 1 I I #
straight-curve $-1 -48.473158970915861 -3.4362833142867206 0.52532024516840181 -0.68199835119979291 0 -0.73135370988377701 I I #
edge $-1 $554 -2.9857479425641902 $331 3.4362833142867206 $456 $561 forward 7 unknown #
point $-1 -48.473158970915861 -3.4362833142867206 6.0003779803786328 #
point $-1 -43.367585159400726 -3.4362833142867206 6.0003779803786328 #
edge $-1 $562 1 $562 0 $334 $-1 forward 7 unknown #
vertex $-1 $335 $563 #
ellipse-curve $-1 -45.189018355274499 -2.1518770629165402 2.5808507615737111 -0.73135370988377701 0 0.68199835119979291 0.34099917559989645 0 0.36567685494188851 1 I I #
point $-1 -45.579372889558385 -2.1518770629165402 3.6285259677153925 #
edge $-1 $564 1 $564 0 $338 $-1 forward 7 unknown #
vertex $-1 $339 $565 #
ellipse-curve $-1 -45.189018355274499 -0.22526768586126522 2.5808507615737111 -0.73135370988377701 0 0.68199835119979291 0.34099917559989645 0 0.36567685494188851 1 I I #
point $-1 -45.579372889558385 -0.22526768586126522 3.6285259677153925 #
edge $-1 $566 1 $566 0 $342 $-1 forward 7 unknown #
vertex $-1 $343 $567 #
ellipse-curve $-1 -45.189018355274499 1.7013416911940098 2.5808507615737111 -0.73135370988377701 0 0.68199835119979291 0.34099917559989645 0 0.36567685494188851 1 I I #
point $-1 -45.579372889558385 1.7013416911940098 3.6285259677153925 #
loop $-1 $-1 $353 $346 #
plane-surface $-1 -48.473158970915861 0 0 1 0 0 0 0 -1 forward_v I I I I #
coedge $-1 $568 $569 $350 $480 forward $347 $-1 #
coedge $-1 $350 $349 $485 $570 reversed $146 $-1 #
edge $-1 $482 8.8510130848585113 $571 16.337209792714546 $478 $572 forward 7 unknown #
coedge $-1 $356 $351 $569 $573 forward $232 $-1 #
vertex $-1 $573 $574 #
straight-curve $-1 -43.367585159400726 9.9774868885789285 6.0003779803786337 0 1 0 I I #
coedge $-1 $575 $353 $356 $489 reversed $476 $-1 #
coedge $-1 $353 $575 $479 $570 forward $476 $-1 #
vertex $-1 $354 $576 #
straight-curve $-1 -48.473158970915861 16.743958148732403 33.321274618194266 0 0 1 I I #
straight-curve $-1 -48.473158970915861 16.743958148732403 0.52532024516840181 -0.68199835119979291 0 -0.73135370988377701 I I #
edge $-1 $577 -23.165989405583307 $357 -16.743958148732403 $484 $578 forward 7 unknown #
point $-1 -48.473158970915861 16.743958148732403 6.0003779803786328 #
point $-1 -43.367585159400726 16.743958148732403 6.0003779803786328 #
edge $-1 $579 1 $579 0 $360 $-1 forward 7 unknown #
vertex $-1 $361 $580 #
ellipse-curve $-1 -45.189018355274499 18.028364400102586 2.5808507615737111 -0.73135370988377701 0 0.68199835119979291 0.34099917559989645 0 0.36567685494188851 1 I I #
point $-1 -45.579372889558385 18.028364400102586 3.6285259677153925 #
edge $-1 $581 1 $581 0 $364 $-1 forward 7 unknown #
vertex $-1 $365 $582 #
ellipse-curve $-1 -45.189018355274499 19.954973777157857 2.5808507615737111 -0.73135370988377701 0 0.68199835119979291 0.34099917559989645 0 0.36567685494188851 1 I I #
point $-1 -45.579372889558385 19.954973777157857 3.6285259677153925 #
edge $-1 $583 1 $583 0 $368 $-1 forward 7 unknown #
vertex $-1 $369 $584 #
ellipse-curve $-1 -45.189018355274499 21.881583154213136 2.5808507615737111 -0.73135370988377701 0 0.68199835119979291 0.34099917559989645 0 0.36567685494188851 1 I I #
point $-1 -45.579372889558385 21.881583154213136 3.6285259677153925 #
plane-surface $-1 48.473158970915861 0 0 -1 0 0 0 0 1 forward_v I I I I #
coedge $-1 $377 $375 $379 $509 reversed $261 $-1 #
edge $-1 $390 -6.0003779803786328 $511 6.0003779803786328 $389 $585 forward 7 unknown #
vertex $-1 $509 $586 #
straight-curve $-1 -48.473158970915861 -23.165989405583307 0 0 0 -1 I I #
edge $-1 $507 -23.165989405583307 $511 23.165989405583307 $505 $587 forward 7 unknown #
straight-curve $-1 0 -23.165989405583307 -6.0003779803786328 -1 0 0 I I #
vertex $-1 $382 $588 #
straight-curve $-1 0 23.165989405583307 -6.0003779803786328 1 0 0 I I #
point $-1 48.473158970915861 23.165989405583307 -6.0003779803786328 #
point $-1 48.473158970915861 -23.165989405583307 -6.0003779803786328 #
straight-curve $-1 -48.473158970915861 0 6.0003779803786328 0 -1 0 I I #
point $-1 -48.473158970915861 23.165989405583307 6.0003779803786328 #
point $-1 -48.473158970915861 -23.165989405583307 6.0003779803786328 #
straight-curve $-1 48.473158970915861 -23.165989405583307 0 0 0 -1 I I #
straight-curve $-1 48.473158970915861 23.165989405583307 0 0 0 -1 I I #
loop $-1 $-1 $528 $399 #
plane-surface $-1 -48.473158970915861 0 0 1 0 0 0 0 -1 forward_v I I I I #
coedge $-1 $403 $402 $534 $589 forward $173 $-1 #
edge $-1 $407 17.194493520454937 $537 23.165989405583307 $406 $590 forward 7 unknown #
coedge $-1 $531 $528 $403 $525 reversed $520 $-1 #
edge $-1 $591 -23.165989405583307 $526 -17.194493520454937 $524 $592 forward 7 unknown #
vertex $-1 $529 $593 #
straight-curve $-1 0 -17.194493520454937 -6.0003779803786328 1 0 0 I I #
coedge $-1 $524 $409 $405 $529 forward $520 $-1 #
edge $-1 $411 0.70852877781859824 $526 3.7640757276462224 $528 $594 forward 7 unknown #
point $-1 48.473158970915861 -17.194493520454937 -6.0003779803786328 #
coedge $-1 $409 $524 $413 $535 reversed $520 $-1 #
straight-curve $-1 -48.473158970915861 -10.090120731509561 -2.9448310305510086 0 1 0 I I #
point $-1 -48.473158970915861 -17.194493520454937 -2.9448310305510086 #
coedge $-1 $414 $413 $522 $589 reversed $400 $-1 #
edge $-1 $415 2.9448310305510086 $591 6.0003779803786328 $531 $595 forward 7 unknown #
point $-1 -48.473158970915861 -23.165989405583307 -2.9448310305510086 #
vertex $-1 $417 $596 #
straight-curve $-1 48.473158970915861 -23.165989405583307 0 0 0 -1 I I #
edge $-1 $540 63.331157096526709 $543 67.020199251815541 $421 $597 forward 7 unknown #
vertex $-1 $435 $598 #
straight-curve $-1 17.071007796692122 6.9287401223944833 6.0003779803786301 1 0 0 I I #
edge $-1 $543 0.7476623486365721 $432 11.61449319887925 $431 $599 forward 7 unknown #
vertex $-1 $542 $600 #
straight-curve $-1 -26.868279882210388 6.9287401223944833 63.32163130068443 -0.77714595512881146 0 0.62932039886446345 I I #
point $-1 43.917571396676379 6.9287401223944833 6.0003779803786301 #
point $-1 48.473158970915861 17.795570972637162 2.3113358250897988 #
straight-curve $-1 48.473158970915861 0 6.0003779803786328 0 1 0 I I #
vertex $-1 $438 $601 #
point $-1 45.088218273157764 10.033548936749536 1.1996286496967237 #
vertex $-1 $442 $602 #
point $-1 45.088218273157764 14.690762158282116 1.1996286496967237 #
coedge $-1 $457 $456 $449 $553 forward $446 $-1 #
edge $-1 $554 27.320896637815633 $557 32.795954373025864 $552 $603 forward 7 unknown #
vertex $-1 $461 $604 #
straight-curve $-1 -59.687604128623335 2.9857479425641902 6.0003779803786337 -1 0 0 I I #
edge $-1 $557 -3.0983817854948228 $458 3.323649471356088 $457 $605 forward 7 unknown #
vertex $-1 $556 $606 #
straight-curve $-1 -48.473158970915861 2.9857479425641902 0.52532024516840181 0.68199835119979291 0 0.73135370988377701 I I #
point $-1 -43.367585159400726 2.9857479425641902 6.0003779803786328 #
point $-1 -48.473158970915861 -3.4362833142867206 0.52532024516840181 #
straight-curve $-1 -48.473158970915861 0 6.0003779803786328 0 -1 0 I I #
vertex $-1 $464 $607 #
point $-1 -44.848019179674608 -2.1518770629165402 2.9465276165155996 #
vertex $-1 $468 $608 #
point $-1 -44.848019179674608 -0.22526768586126522 2.9465276165155996 #
vertex $-1 $472 $609 #
point $-1 -44.848019179674608 1.7013416911940098 2.9465276165155996 #
coedge $-1 $569 $478 $575 $610 reversed $347 $-1 #
coedge $-1 $478 $568 $481 $573 reversed $347 $-1 #
edge $-1 $571 -13.188502517004382 $486 -6.7664712601534749 $485 $611 forward 7 unknown #
vertex $-1 $480 $612 #
straight-curve $-1 -37.331208829079429 23.165989405583307 12.47359923621976 -0.68199835119979291 0 -0.73135370988377701 I I #
edge $-1 $482 43.367585159400726 $577 48.473158970915861 $569 $613 forward 7 unknown #
point $-1 -43.367585159400726 23.165989405583311 6.0003779803786328 #
coedge $-1 $485 $484 $568 $610 forward $476 $-1 #
point $-1 -48.473158970915861 16.743958148732403 0.52532024516840181 #
vertex $-1 $573 $614 #
straight-curve $-1 -48.473158970915861 0 6.0003779803786328 0 -1 0 I I #
vertex $-1 $492 $615 #
point $-1 -44.848019179674608 18.028364400102586 2.9465276165155996 #
vertex $-1 $496 $616 #
point $-1 -44.848019179674608 19.954973777157857 2.9465276165155996 #
vertex $-1 $500 $617 #
point $-1 -44.848019179674608 21.881583154213136 2.9465276165155996 #
straight-curve $-1 -48.473158970915861 23.165989405583307 0 0 0 -1 I I #
point $-1 -48.473158970915861 -23.165989405583307 -6.0003779803786328 #
straight-curve $-1 -48.473158970915861 0 -6.0003779803786328 0 1 0 I I #
point $-1 -48.473158970915861 23.165989405583307 -6.0003779803786328 #
edge $-1 $537 -48.473158970915861 $591 48.473158970915861 $534 $618 forward 7 unknown #
straight-curve $-1 48.473158970915861 0 -6.0003779803786328 0 -1 0 I I #
vertex $-1 $525 $619 #
straight-curve $-1 -48.473158970915861 0 -6.0003779803786328 0 1 0 I I #
point $-1 -48.473158970915861 -17.194493520454937 -6.0003779803786328 #
straight-curve $-1 -48.473158970915861 -17.194493520454937 -2.2363022527324103 0 0 -1 I I #
straight-curve $-1 -48.473158970915861 -23.165989405583307 0 0 0 -1 I I #
point $-1 48.473158970915861 -23.165989405583307 -6.0003779803786328 #
straight-curve $-1 48.473158970915861 6.9287401223944833 69.33153507690534 0 0 -1 I I #
point $-1 48.473158970915861 6.9287401223944833 6.0003779803786328 #
straight-curve $-1 48.473158970915861 6.1810777737579112 2.3113358250897953 0 1 0 I I #
point $-1 48.473158970915861 6.9287401223944833 2.3113358250897988 #
point $-1 43.681751919164491 10.033548936749536 1.0518030934323757 #
point $-1 43.681751919164491 14.690762158282116 1.0518030934323757 #
straight-curve $-1 -48.473158970915861 2.9857479425641902 33.321274618194266 0 0 -1 I I #
point $-1 -48.473158970915861 2.9857479425641902 6.0003779803786328 #
straight-curve $-1 -48.473158970915861 -0.11263384293063261 0.52532024516839937 0 -1 0 I I #
point $-1 -48.473158970915861 2.9857479425641902 0.52532024516840181 #
point $-1 -44.823341500332617 -2.1518770629165402 2.2398515859738146 #
point $-1 -44.823341500332617 -0.22526768586126522 2.2398515859738146 #
point $-1 -44.823341500332617 1.7013416911940098 2.2398515859738146 #
edge $-1 $577 -6.0003779803786328 $571 -0.52532024516840181 $568 $620 forward 7 unknown #
straight-curve $-1 -48.473158970915861 9.9774868885789285 0.52532024516839937 0 -1 0 I I #
point $-1 -48.473158970915861 23.165989405583311 0.52532024516840181 #
straight-curve $-1 0 23.165989405583307 6.0003779803786328 -1 0 0 I I #
point $-1 -48.473158970915861 23.165989405583307 6.0003779803786328 #
point $-1 -44.823341500332617 18.028364400102586 2.2398515859738146 #
point $-1 -44.823341500332617 19.954973777157857 2.2398515859738146 #
point $-1 -44.823341500332617 21.881583154213136 2.2398515859738146 #
straight-curve $-1 0 -23.165989405583307 -6.0003779803786328 -1 0 0 I I #
point $-1 -48.473158970915861 -23.165989405583307 -6.0003779803786328 #
straight-curve $-1 -48.473158970915861 23.165989405583307 0 0 0 -1 I I #
End-of-ACIS-data 