500 0 9 0           
7 Unknown 11 ACIS 5.0 NT 24 Thu Mar 25 19:17:30 1999 
-1 9.9999999999999995e-007 1e-010 
body $-1 $9 $-1 $10 #
body $-1 $11 $-1 $12 #
body $-1 $13 $-1 $14 #
body $-1 $15 $-1 $16 #
body $-1 $17 $-1 $18 #
body $-1 $19 $-1 $20 #
body $-1 $21 $-1 $22 #
body $-1 $23 $-1 $24 #
body $-1 $25 $-1 $26 #
lump $-1 $-1 $27 $0 #
transform $-1 1 0 0 0 1 0 0 0 1 47.492904446546831 28.209338727419734 13.163009318540896 1 rotate no_reflect no_shear #
lump $-1 $-1 $28 $1 #
transform $-1 1 0 0 0 1 0 0 0 1 47.492904446546831 28.209338727419734 13.163009318540896 1 rotate no_reflect no_shear #
lump $-1 $-1 $29 $2 #
transform $-1 1 0 0 0 1 0 0 0 1 47.492904446546831 28.209338727419734 13.163009318540896 1 rotate no_reflect no_shear #
lump $-1 $-1 $30 $3 #
transform $-1 1 0 0 0 1 0 0 0 1 47.492904446546831 28.209338727419734 13.163009318540896 1 rotate no_reflect no_shear #
lump $-1 $-1 $31 $4 #
transform $-1 1 0 0 0 1 0 0 0 1 47.492904446546831 28.209338727419734 13.163009318540896 1 rotate no_reflect no_shear #
lump $-1 $-1 $32 $5 #
transform $-1 1 0 0 0 1 0 0 0 1 47.492904446546831 28.209338727419734 13.163009318540896 1 rotate no_reflect no_shear #
lump $-1 $-1 $33 $6 #
transform $-1 1 0 0 0 1 0 0 0 1 47.492904446546831 28.209338727419734 13.163009318540896 1 rotate no_reflect no_shear #
lump $-1 $-1 $34 $7 #
transform $-1 1 0 0 0 1 0 0 0 1 47.492904446546831 28.209338727419734 13.163009318540896 1 rotate no_reflect no_shear #
lump $-1 $-1 $35 $8 #
transform $-1 1 0 0 0 1 0 0 0 1 47.492904446546831 28.209338727419734 13.163009318540896 1 rotate no_reflect no_shear #
shell $-1 $-1 $-1 $36 $-1 $9 #
shell $-1 $-1 $-1 $37 $-1 $11 #
shell $-1 $-1 $-1 $38 $-1 $13 #
shell $-1 $-1 $-1 $39 $-1 $15 #
shell $-1 $-1 $-1 $40 $-1 $17 #
shell $-1 $-1 $-1 $41 $-1 $19 #
shell $-1 $-1 $-1 $42 $-1 $21 #
shell $-1 $-1 $-1 $43 $-1 $23 #
shell $-1 $-1 $-1 $44 $-1 $25 #
face $-1 $45 $46 $27 $-1 $47 forward single #
face $-1 $48 $49 $28 $-1 $50 forward single #
face $-1 $51 $52 $29 $-1 $53 forward single #
face $-1 $54 $55 $30 $-1 $56 reversed single #
face $-1 $57 $58 $31 $-1 $59 forward single #
face $-1 $60 $61 $32 $-1 $62 forward single #
face $-1 $63 $64 $33 $-1 $65 reversed single #
face $-1 $66 $67 $34 $-1 $68 forward single #
face $-1 $69 $70 $35 $-1 $71 forward single #
face $-1 $72 $73 $27 $-1 $74 reversed single #
loop $-1 $-1 $75 $36 #
plane-surface $-1 0 0 13.163009318540896 0 0 1 1 0 0 forward_v I I I I #
face $-1 $76 $77 $28 $-1 $78 reversed single #
loop $-1 $-1 $79 $37 #
plane-surface $-1 0 -22.012404278447011 -8.2866411396399204 0 0 1 1 0 0 forward_v I I I I #
face $-1 $80 $81 $29 $-1 $82 reversed single #
loop $-1 $-1 $83 $38 #
plane-surface $-1 0 22.012404278447008 -8.2866411396399204 0 0 1 1 0 0 forward_v I I I I #
face $-1 $84 $85 $30 $-1 $86 reversed single #
loop $-1 $-1 $87 $39 #
plane-surface $-1 -101.97452691752285 -8.6902144868175633 78.434342031876668 0 -1 0 0.57357644374324357 0 -0.81915203911291934 forward_v I I I I #
face $-1 $88 $89 $31 $-1 $90 forward single #
loop $-1 $91 $92 $40 #
cone-surface $-1 -38.241695951807792 -13.779682588715225 6.4674218829137535 0.57357644374324357 0 -0.81915203911291934 0.40957601955645967 0 0.28678822187162178 1 I I 0 1 0.5 forward I I I I #
face $-1 $93 $94 $32 $-1 $95 forward single #
loop $-1 $96 $97 $41 #
cone-surface $-1 -38.241695951807792 -10.72600172757663 6.4674218829137535 0.57357644374324357 0 -0.81915203911291934 0.40957601955645967 0 0.28678822187162178 1 I I 0 1 0.5 forward I I I I #
face $-1 $98 $99 $33 $-1 $100 reversed single #
loop $-1 $-1 $101 $42 #
plane-surface $-1 24.166707875955112 -15.815469829474289 132.91596450285269 0 1 0 0.57357644374324357 0 0.81915203911291934 forward_v I I I I #
face $-1 $102 $103 $34 $-1 $104 forward single #
loop $-1 $105 $106 $43 #
cone-surface $-1 38.241695951807799 -13.779682588715225 6.46742188291375 -0.57357644374324357 0 -0.81915203911291934 0.40957601955645967 0 -0.28678822187162178 1 I I 0 1 0.5 forward I I I I #
face $-1 $107 $108 $35 $-1 $109 forward single #
loop $-1 $110 $111 $44 #
cone-surface $-1 38.241695951807799 -10.72600172757663 6.46742188291375 -0.57357644374324357 0 -0.81915203911291934 0.40957601955645967 0 -0.28678822187162178 1 I I 0 1 0.5 forward I I I I #
face $-1 $112 $113 $27 $-1 $114 reversed single #
loop $-1 $-1 $115 $45 #
plane-surface $-1 0 0 -13.163009318540896 0 0 1 1 0 0 forward_v I I I I #
coedge $-1 $116 $117 $118 $119 forward $46 $-1 #
face $-1 $120 $121 $28 $-1 $122 reversed single #
loop $-1 $-1 $123 $48 #
plane-surface $-1 0 -22.012404278447011 -12.663009318540896 0 0 1 1 0 0 forward_v I I I I #
coedge $-1 $124 $125 $126 $127 reversed $49 $-1 #
face $-1 $128 $129 $29 $-1 $130 reversed single #
loop $-1 $-1 $131 $51 #
plane-surface $-1 0 22.012404278447008 -12.663009318540896 0 0 1 1 0 0 forward_v I I I I #
coedge $-1 $132 $133 $134 $135 reversed $52 $-1 #
face $-1 $136 $137 $30 $-1 $138 reversed single #
loop $-1 $-1 $139 $54 #
plane-surface $-1 -47.492904446546831 -12.252842158145926 0.62652299030892777 -0.57357644374324357 0 0.81915203911291934 0.81915203911291934 0 0.57357644374324357 forward_v I I I I #
coedge $-1 $140 $141 $142 $143 reversed $55 $-1 #
face $-1 $-1 $144 $31 $-1 $145 forward single #
loop $-1 $146 $147 $57 #
cone-surface $-1 -37.799072154801912 -13.779682588715225 5.8352896016243694 0.57357644374324357 0 -0.81915203911291934 0.20478800977822983 0 0.14339411093581089 1 I I -0.70710678118654746 0.70710678118654746 0.25 forward I I I I #
loop $-1 $-1 $148 $40 #
coedge $-1 $92 $92 $149 $150 reversed $58 $-1 #
face $-1 $-1 $151 $32 $-1 $152 forward single #
loop $-1 $153 $154 $60 #
cone-surface $-1 -37.799072154801912 -10.72600172757663 5.8352896016243694 0.57357644374324357 0 -0.81915203911291934 0.20478800977822983 0 0.14339411093581089 1 I I -0.70710678118654746 0.70710678118654746 0.25 forward I I I I #
loop $-1 $-1 $155 $41 #
coedge $-1 $97 $97 $156 $157 reversed $61 $-1 #
face $-1 $158 $159 $33 $-1 $160 reversed single #
loop $-1 $-1 $161 $63 #
plane-surface $-1 -30.314914595020909 -12.252842158145926 55.108145461284948 0.57357644374324357 0 0.81915203911291934 0.81915203911291934 0 -0.57357644374324357 forward_v I I I I #
coedge $-1 $162 $163 $164 $165 reversed $64 $-1 #
face $-1 $-1 $166 $34 $-1 $167 forward single #
loop $-1 $168 $169 $66 #
cone-surface $-1 37.79907215480192 -13.779682588715225 5.8352896016243658 -0.57357644374324357 0 -0.81915203911291934 0.20478800977822983 0 -0.14339411093581089 1 I I -0.70710678118654746 0.70710678118654746 0.25 forward I I I I #
loop $-1 $-1 $170 $43 #
coedge $-1 $106 $106 $171 $172 reversed $67 $-1 #
face $-1 $-1 $173 $35 $-1 $174 forward single #
loop $-1 $175 $176 $69 #
cone-surface $-1 37.79907215480192 -10.72600172757663 5.8352896016243658 -0.57357644374324357 0 -0.81915203911291934 0.20478800977822983 0 -0.14339411093581089 1 I I -0.70710678118654746 0.70710678118654746 0.25 forward I I I I #
loop $-1 $-1 $177 $44 #
coedge $-1 $111 $111 $178 $179 reversed $70 $-1 #
face $-1 $180 $181 $27 $-1 $182 reversed single #
loop $-1 $-1 $183 $72 #
plane-surface $-1 0 -28.209338727419734 0 0 1 0 0 0 1 forward_v I I I I #
coedge $-1 $184 $185 $186 $187 forward $73 $-1 #
coedge $-1 $188 $75 $189 $190 forward $46 $-1 #
coedge $-1 $75 $188 $191 $192 forward $46 $-1 #
coedge $-1 $193 $194 $75 $119 reversed $195 $-1 #
edge $-1 $196 -28.209338727419734 $197 28.209338727419734 $118 $198 forward 7 unknown #
face $-1 $199 $200 $28 $-1 $201 reversed single #
loop $-1 $-1 $202 $76 #
plane-surface $-1 0 -15.815469829474289 -10.474825229090408 0 -1 0 0 0 -1 forward_v I I I I #
coedge $-1 $203 $204 $205 $206 reversed $77 $-1 #
coedge $-1 $207 $79 $208 $209 forward $49 $-1 #
coedge $-1 $79 $207 $210 $211 reversed $49 $-1 #
coedge $-1 $212 $213 $79 $127 forward $214 $-1 #
edge $-1 $215 4.8092676902507829 $216 17.20313658819623 $126 $217 forward 7 unknown #
face $-1 $218 $219 $29 $-1 $220 reversed single #
loop $-1 $-1 $221 $80 #
plane-surface $-1 0 15.815469829474285 -10.474825229090408 0 1 0 0 0 1 forward_v I I I I #
coedge $-1 $222 $223 $224 $225 reversed $81 $-1 #
coedge $-1 $226 $83 $227 $228 reversed $52 $-1 #
coedge $-1 $83 $226 $229 $230 forward $52 $-1 #
coedge $-1 $231 $232 $83 $135 forward $219 $-1 #
edge $-1 $233 -17.203136588196227 $234 -4.8092676902507812 $134 $235 forward 7 unknown #
face $-1 $236 $237 $30 $-1 $238 reversed single #
loop $-1 $-1 $239 $84 #
plane-surface $-1 -101.97452691752285 -15.815469829474289 78.434342031876668 0 1 0 -0.57357644374324357 0 0.81915203911291934 forward_v I I I I #
coedge $-1 $240 $241 $242 $243 reversed $85 $-1 #
coedge $-1 $141 $87 $244 $245 reversed $55 $-1 #
coedge $-1 $87 $140 $240 $246 reversed $55 $-1 #
coedge $-1 $242 $247 $87 $143 forward $237 $-1 #
edge $-1 $248 26.05416169739744 $249 38.590648025629406 $142 $250 forward 7 unknown #
loop $-1 $-1 $149 $88 #
plane-surface $-1 -47.492904446546831 -12.252842158145926 0.62652299030892777 -0.57357644374324357 0 0.81915203911291934 0.81915203911291934 0 0.57357644374324357 forward_v I I I I #
loop $-1 $-1 $251 $57 #
coedge $-1 $147 $147 $148 $252 reversed $89 $-1 #
coedge $-1 $148 $148 $147 $252 forward $91 $-1 #
coedge $-1 $149 $149 $92 $150 forward $144 $-1 #
edge $-1 $253 0 $253 6.2831853071796004 $149 $254 forward 7 unknown #
loop $-1 $-1 $156 $93 #
plane-surface $-1 -47.492904446546831 -12.252842158145926 0.62652299030892777 -0.57357644374324357 0 0.81915203911291934 0.81915203911291934 0 0.57357644374324357 forward_v I I I I #
loop $-1 $-1 $255 $60 #
coedge $-1 $154 $154 $155 $256 reversed $94 $-1 #
coedge $-1 $155 $155 $154 $256 forward $96 $-1 #
coedge $-1 $156 $156 $97 $157 forward $151 $-1 #
edge $-1 $257 0 $257 6.2831853071796004 $156 $258 forward 7 unknown #
face $-1 $259 $260 $33 $-1 $261 forward single #
loop $-1 $-1 $262 $98 #
plane-surface $-1 24.166707875955112 -8.6902144868175633 132.91596450285269 0 -1 0 -0.57357644374324357 0 -0.81915203911291934 forward_v I I I I #
coedge $-1 $263 $264 $265 $266 reversed $99 $-1 #
coedge $-1 $163 $101 $267 $268 reversed $64 $-1 #
coedge $-1 $101 $162 $263 $269 reversed $64 $-1 #
coedge $-1 $265 $270 $101 $165 forward $271 $-1 #
edge $-1 $272 53.29497293288545 $273 65.831459261117416 $164 $274 forward 7 unknown #
loop $-1 $-1 $171 $102 #
plane-surface $-1 -30.314914595020909 -12.252842158145926 55.108145461284948 0.57357644374324357 0 0.81915203911291934 0.81915203911291934 0 -0.57357644374324357 forward_v I I I I #
loop $-1 $-1 $275 $66 #
coedge $-1 $169 $169 $170 $276 reversed $103 $-1 #
coedge $-1 $170 $170 $169 $276 forward $105 $-1 #
coedge $-1 $171 $171 $106 $172 forward $166 $-1 #
edge $-1 $277 0 $277 6.2831853071796004 $171 $278 forward 7 unknown #
loop $-1 $-1 $178 $107 #
plane-surface $-1 -30.314914595020909 -12.252842158145926 55.108145461284948 0.57357644374324357 0 0.81915203911291934 0.81915203911291934 0 -0.57357644374324357 forward_v I I I I #
loop $-1 $-1 $279 $69 #
coedge $-1 $176 $176 $177 $280 reversed $108 $-1 #
coedge $-1 $177 $177 $176 $280 forward $110 $-1 #
coedge $-1 $178 $178 $111 $179 forward $173 $-1 #
edge $-1 $281 0 $281 6.2831853071796004 $178 $282 forward 7 unknown #
face $-1 $283 $284 $27 $-1 $285 reversed single #
loop $-1 $-1 $286 $112 #
plane-surface $-1 -47.492904446546831 0 0 1 0 0 0 0 -1 forward_v I I I I #
coedge $-1 $287 $191 $288 $289 forward $113 $-1 #
coedge $-1 $290 $115 $287 $291 forward $73 $-1 #
coedge $-1 $115 $290 $292 $293 forward $73 $-1 #
coedge $-1 $194 $193 $115 $187 reversed $195 $-1 #
edge $-1 $294 -28.209338727419734 $295 28.209338727419734 $186 $296 forward 7 unknown #
coedge $-1 $117 $116 $297 $298 forward $46 $-1 #
coedge $-1 $299 $300 $116 $190 reversed $284 $-1 #
edge $-1 $197 -47.492904446546831 $301 47.492904446546831 $189 $302 forward 7 unknown #
coedge $-1 $183 $303 $117 $192 reversed $113 $-1 #
edge $-1 $304 -47.492904446546831 $196 47.492904446546831 $191 $305 forward 7 unknown #
coedge $-1 $186 $118 $303 $306 forward $195 $-1 #
coedge $-1 $118 $186 $299 $307 reversed $195 $-1 #
loop $-1 $-1 $193 $283 #
vertex $-1 $119 $308 #
vertex $-1 $119 $309 #
straight-curve $-1 47.492904446546831 0 13.163009318540896 0 1 0 I I #
face $-1 $310 $311 $28 $-1 $312 reversed single #
loop $-1 $-1 $313 $120 #
plane-surface $-1 -47.492904446546831 0 0 1 0 0 0 0 -1 forward_v I I I I #
coedge $-1 $314 $208 $213 $315 reversed $121 $-1 #
coedge $-1 $316 $123 $317 $318 reversed $77 $-1 #
coedge $-1 $123 $316 $314 $319 forward $77 $-1 #
coedge $-1 $213 $212 $123 $206 forward $214 $-1 #
edge $-1 $320 -17.20313658819623 $321 -4.8092676902507829 $205 $322 forward 7 unknown #
coedge $-1 $125 $124 $313 $323 reversed $49 $-1 #
coedge $-1 $202 $324 $124 $209 reversed $121 $-1 #
edge $-1 $215 -47.492904446546831 $325 47.492904446546831 $208 $326 forward 7 unknown #
coedge $-1 $327 $328 $125 $211 forward $311 $-1 #
edge $-1 $216 -47.492904446546831 $329 47.492904446546831 $210 $330 forward 7 unknown #
coedge $-1 $205 $126 $328 $331 forward $214 $-1 #
coedge $-1 $126 $205 $202 $315 forward $214 $-1 #
loop $-1 $-1 $126 $310 #
vertex $-1 $127 $332 #
vertex $-1 $331 $333 #
straight-curve $-1 47.492904446546831 -11.006202139223506 -8.2866411396399204 0 -1 0 I I #
face $-1 $334 $335 $29 $-1 $336 reversed single #
loop $-1 $-1 $134 $128 #
plane-surface $-1 47.492904446546831 0 0 -1 0 0 0 0 1 forward_v I I I I #
coedge $-1 $337 $229 $338 $339 reversed $129 $-1 #
coedge $-1 $340 $131 $337 $341 forward $81 $-1 #
coedge $-1 $131 $340 $342 $343 reversed $81 $-1 #
coedge $-1 $232 $231 $131 $225 forward $219 $-1 #
edge $-1 $344 4.8092676902507812 $345 17.203136588196227 $224 $346 forward 7 unknown #
coedge $-1 $133 $132 $347 $348 reversed $52 $-1 #
coedge $-1 $349 $350 $132 $228 forward $351 $-1 #
edge $-1 $352 -47.492904446546831 $233 47.492904446546831 $227 $353 forward 7 unknown #
coedge $-1 $221 $354 $133 $230 reversed $129 $-1 #
edge $-1 $355 -47.492904446546831 $234 47.492904446546831 $229 $356 forward 7 unknown #
coedge $-1 $224 $134 $354 $357 forward $219 $-1 #
coedge $-1 $134 $224 $349 $358 reversed $219 $-1 #
vertex $-1 $358 $359 #
vertex $-1 $135 $360 #
straight-curve $-1 47.492904446546831 11.006202139223504 -8.2866411396399204 0 -1 0 I I #
face $-1 $-1 $361 $30 $-1 $362 forward single #
loop $-1 $-1 $142 $136 #
plane-surface $-1 -47.492904446546831 0 0 1 0 0 0 0 -1 forward_v I I I I #
coedge $-1 $363 $364 $365 $366 reversed $137 $-1 #
coedge $-1 $367 $139 $141 $246 forward $85 $-1 #
coedge $-1 $139 $367 $363 $368 forward $85 $-1 #
coedge $-1 $365 $142 $139 $243 forward $237 $-1 #
edge $-1 $249 2.5637934077446003 $369 9.6890487504013265 $242 $370 forward 7 unknown #
coedge $-1 $371 $372 $140 $245 forward $361 $-1 #
edge $-1 $373 -21.398316629552532 $248 -3.4943590122145949 $244 $374 forward 7 unknown #
edge $-1 $249 0 $373 21.856696635616743 $141 $375 forward 7 unknown #
coedge $-1 $142 $365 $371 $376 reversed $237 $-1 #
vertex $-1 $376 $377 #
vertex $-1 $143 $378 #
straight-curve $-1 -47.492904446546831 -8.6902144868175633 39.217171015938334 0 0 -1 I I #
coedge $-1 $251 $251 $-1 $379 reversed $146 $-1 #
edge $-1 $380 0 $380 6.2831853071796004 $147 $381 forward 7 unknown #
vertex $-1 $150 $382 #
ellipse-curve $-1 -38.540925637877862 -13.779682588715225 6.8947661544249108 -0.57357644374324357 0 0.81915203911291934 0.40957601955645967 0 0.28678822187162178 1 I I #
coedge $-1 $255 $255 $-1 $383 reversed $153 $-1 #
edge $-1 $384 0 $384 6.2831853071796004 $154 $385 forward 7 unknown #
vertex $-1 $157 $386 #
ellipse-curve $-1 -38.540925637877862 -10.72600172757663 6.8947661544249108 -0.57357644374324357 0 0.81915203911291934 0.40957601955645967 0 0.28678822187162178 1 I I #
face $-1 $-1 $271 $33 $-1 $387 reversed single #
loop $-1 $-1 $388 $158 #
plane-surface $-1 0 0 13.163009318540896 0 0 1 1 0 0 forward_v I I I I #
coedge $-1 $389 $390 $391 $392 reversed $159 $-1 #
coedge $-1 $393 $161 $163 $269 forward $99 $-1 #
coedge $-1 $161 $393 $389 $394 forward $99 $-1 #
coedge $-1 $391 $164 $161 $266 forward $271 $-1 #
edge $-1 $273 -9.6890487504013265 $395 -2.5637934077446003 $265 $396 forward 7 unknown #
coedge $-1 $397 $398 $162 $268 forward $260 $-1 #
edge $-1 $399 17.505592891231338 $272 35.409550508569275 $267 $400 forward 7 unknown #
edge $-1 $273 -94.985808893093662 $399 -73.129112257476919 $163 $401 forward 7 unknown #
coedge $-1 $164 $391 $397 $402 reversed $271 $-1 #
loop $-1 $-1 $391 $259 #
vertex $-1 $402 $403 #
vertex $-1 $165 $404 #
straight-curve $-1 47.492904446546831 -15.815469829474289 66.457982251426344 0 0 -1 I I #
coedge $-1 $275 $275 $-1 $405 reversed $168 $-1 #
edge $-1 $406 0 $406 6.2831853071796004 $169 $407 forward 7 unknown #
vertex $-1 $172 $408 #
ellipse-curve $-1 38.540925637877869 -13.779682588715225 6.8947661544249046 0.57357644374324357 0 0.81915203911291934 0.40957601955645967 0 -0.28678822187162178 1 I I #
coedge $-1 $279 $279 $-1 $409 reversed $175 $-1 #
edge $-1 $410 0 $410 6.2831853071796004 $176 $411 forward 7 unknown #
vertex $-1 $179 $412 #
ellipse-curve $-1 38.540925637877869 -10.72600172757663 6.8947661544249046 0.57357644374324357 0 0.81915203911291934 0.40957601955645967 0 -0.28678822187162178 1 I I #
face $-1 $-1 $195 $27 $-1 $413 reversed single #
loop $-1 $-1 $299 $180 #
plane-surface $-1 0 28.209338727419734 0 0 -1 0 0 0 -1 forward_v I I I I #
coedge $-1 $414 $297 $300 $415 forward $181 $-1 #
coedge $-1 $303 $183 $184 $291 reversed $113 $-1 #
coedge $-1 $297 $414 $183 $289 reversed $181 $-1 #
edge $-1 $304 -13.163009318540896 $416 13.163009318540896 $288 $417 forward 7 unknown #
coedge $-1 $185 $184 $414 $418 forward $73 $-1 #
edge $-1 $295 -47.492904446546831 $416 47.492904446546831 $287 $419 forward 7 unknown #
coedge $-1 $300 $299 $185 $293 reversed $284 $-1 #
edge $-1 $420 -47.492904446546831 $294 47.492904446546831 $292 $421 forward 7 unknown #
vertex $-1 $187 $422 #
vertex $-1 $306 $423 #
straight-curve $-1 47.492904446546831 0 -13.163009318540896 0 -1 0 I I #
coedge $-1 $286 $288 $188 $298 reversed $181 $-1 #
edge $-1 $301 -28.209338727419734 $304 28.209338727419734 $297 $424 forward 7 unknown #
coedge $-1 $292 $189 $194 $307 forward $284 $-1 #
coedge $-1 $189 $292 $286 $415 reversed $284 $-1 #
vertex $-1 $190 $425 #
straight-curve $-1 0 28.209338727419734 13.163009318540896 -1 0 0 I I #
coedge $-1 $191 $287 $193 $306 reversed $113 $-1 #
vertex $-1 $298 $426 #
straight-curve $-1 0 -28.209338727419734 13.163009318540896 1 0 0 I I #
edge $-1 $196 -13.163009318540896 $295 13.163009318540896 $193 $427 forward 7 unknown #
edge $-1 $197 -13.163009318540896 $294 13.163009318540896 $194 $428 forward 7 unknown #
point $-1 47.492904446546831 -28.209338727419734 13.163009318540896 #
point $-1 47.492904446546831 28.209338727419734 13.163009318540896 #
face $-1 $-1 $214 $28 $-1 $429 reversed single #
loop $-1 $-1 $210 $199 #
plane-surface $-1 0 -28.209338727419734 0 0 1 0 0 0 1 forward_v I I I I #
coedge $-1 $430 $431 $207 $323 forward $200 $-1 #
coedge $-1 $324 $202 $204 $319 reversed $121 $-1 #
edge $-1 $321 -7.4255967039956916 $215 -3.0492285250947164 $213 $432 forward 7 unknown #
coedge $-1 $204 $203 $433 $434 reversed $77 $-1 #
coedge $-1 $328 $327 $203 $318 forward $311 $-1 #
edge $-1 $435 -47.492904446546831 $320 47.492904446546831 $317 $436 forward 7 unknown #
edge $-1 $437 -47.492904446546831 $321 47.492904446546831 $314 $438 forward 7 unknown #
vertex $-1 $318 $439 #
vertex $-1 $206 $440 #
straight-curve $-1 47.492904446546831 -11.006202139223506 -12.663009318540896 0 1 0 I I #
edge $-1 $329 -17.20313658819623 $325 -4.8092676902507829 $313 $441 forward 7 unknown #
coedge $-1 $208 $314 $430 $442 reversed $121 $-1 #
vertex $-1 $323 $443 #
straight-curve $-1 0 -15.815469829474289 -8.2866411396399204 -1 0 0 I I #
coedge $-1 $317 $210 $431 $444 forward $311 $-1 #
coedge $-1 $210 $317 $212 $331 reversed $311 $-1 #
vertex $-1 $444 $445 #
straight-curve $-1 0 -28.209338727419734 -8.2866411396399204 -1 0 0 I I #
edge $-1 $216 8.2866411396399204 $320 12.663009318540896 $212 $446 forward 7 unknown #
point $-1 47.492904446546831 -15.815469829474289 -8.2866411396399204 #
point $-1 47.492904446546831 -28.209338727419734 -8.2866411396399204 #
face $-1 $-1 $351 $29 $-1 $447 reversed single #
loop $-1 $-1 $347 $218 #
plane-surface $-1 -47.492904446546831 0 0 1 0 0 0 0 -1 forward_v I I I I #
coedge $-1 $354 $221 $222 $341 reversed $129 $-1 #
coedge $-1 $347 $448 $221 $339 forward $335 $-1 #
edge $-1 $449 -7.4255967039956916 $355 -3.0492285250947164 $338 $450 forward 7 unknown #
coedge $-1 $223 $222 $448 $451 reversed $81 $-1 #
edge $-1 $344 -47.492904446546831 $449 47.492904446546831 $337 $452 forward 7 unknown #
coedge $-1 $350 $349 $223 $343 forward $351 $-1 #
edge $-1 $345 -47.492904446546831 $453 47.492904446546831 $342 $454 forward 7 unknown #
vertex $-1 $225 $455 #
vertex $-1 $343 $456 #
straight-curve $-1 47.492904446546831 11.006202139223504 -12.663009318540896 0 1 0 I I #
coedge $-1 $457 $338 $226 $348 forward $335 $-1 #
edge $-1 $355 4.8092676902507812 $352 17.203136588196227 $347 $458 forward 7 unknown #
coedge $-1 $342 $227 $232 $358 forward $351 $-1 #
coedge $-1 $227 $342 $457 $459 reversed $351 $-1 #
loop $-1 $-1 $227 $334 #
vertex $-1 $459 $460 #
straight-curve $-1 0 28.209338727419734 -8.2866411396399204 1 0 0 I I #
coedge $-1 $229 $337 $231 $357 reversed $129 $-1 #
vertex $-1 $348 $461 #
straight-curve $-1 0 15.815469829474285 -8.2866411396399204 1 0 0 I I #
edge $-1 $234 3.0492285250947164 $344 7.4255967039956916 $231 $462 forward 7 unknown #
edge $-1 $233 8.2866411396399204 $345 12.663009318540896 $232 $463 forward 7 unknown #
point $-1 47.492904446546831 28.20933872741973 -8.2866411396399204 #
point $-1 47.492904446546831 15.815469829474285 -8.2866411396399204 #
loop $-1 $-1 $244 $236 #
plane-surface $-1 0 0 13.163009318540896 0 0 1 1 0 0 forward_v I I I I #
coedge $-1 $364 $239 $241 $368 reversed $137 $-1 #
coedge $-1 $239 $363 $464 $465 reversed $137 $-1 #
coedge $-1 $247 $242 $239 $366 forward $237 $-1 #
edge $-1 $369 -38.590648025629406 $466 -26.05416169739744 $365 $467 forward 7 unknown #
coedge $-1 $241 $240 $372 $468 reversed $85 $-1 #
edge $-1 $469 -21.856696635616743 $369 0 $363 $470 forward 7 unknown #
vertex $-1 $243 $471 #
straight-curve $-1 -47.492904446546831 -6.126421079072963 0.62652299030892755 0 -1 0 I I #
coedge $-1 $464 $244 $247 $376 forward $361 $-1 #
coedge $-1 $244 $464 $367 $468 forward $361 $-1 #
vertex $-1 $245 $472 #
straight-curve $-1 -50.987263458761426 -8.6902144868175633 13.163009318540894 -1 0 0 I I #
straight-curve $-1 -47.492904446546831 -8.6902144868175633 0.62652299030892777 0.81915203911291934 0 0.57357644374324357 I I #
edge $-1 $248 8.6902144868175633 $466 15.815469829474289 $247 $473 forward 7 unknown #
point $-1 -47.492904446546831 -8.6902144868175633 13.163009318540896 #
point $-1 -47.492904446546831 -8.6902144868175633 0.62652299030892777 #
edge $-1 $474 1 $474 0 $251 $-1 forward 7 unknown #
vertex $-1 $252 $475 #
ellipse-curve $-1 -37.942466265737721 -13.779682588715225 6.0400776114025989 -0.57357644374324357 0 0.81915203911291934 0.40957601955645967 0 0.28678822187162178 1 I I #
point $-1 -38.131349618321401 -13.779682588715225 7.181554376296531 #
edge $-1 $476 1 $476 0 $255 $-1 forward 7 unknown #
vertex $-1 $256 $477 #
ellipse-curve $-1 -37.942466265737721 -10.72600172757663 6.0400776114025989 -0.57357644374324357 0 0.81915203911291934 0.40957601955645967 0 0.28678822187162178 1 I I #
point $-1 -38.131349618321401 -10.72600172757663 7.181554376296531 #
plane-surface $-1 47.492904446546831 0 0 -1 0 0 0 0 1 forward_v I I I I #
coedge $-1 $398 $397 $390 $478 forward $260 $-1 #
coedge $-1 $390 $262 $264 $394 reversed $159 $-1 #
coedge $-1 $262 $389 $388 $478 reversed $159 $-1 #
coedge $-1 $270 $265 $262 $392 forward $271 $-1 #
edge $-1 $395 -65.831459261117416 $479 -53.29497293288545 $391 $480 forward 7 unknown #
coedge $-1 $264 $263 $398 $481 reversed $99 $-1 #
edge $-1 $482 73.129112257476919 $395 94.985808893093662 $389 $483 forward 7 unknown #
vertex $-1 $266 $484 #
straight-curve $-1 47.492904446546838 -6.126421079072963 0.62652299030892422 0 1 0 I I #
coedge $-1 $388 $267 $270 $402 forward $260 $-1 #
coedge $-1 $267 $388 $393 $481 forward $260 $-1 #
vertex $-1 $268 $485 #
straight-curve $-1 12.083353937977556 -15.815469829474289 13.163009318540894 1 0 0 I I #
straight-curve $-1 -30.314914595020909 -15.815469829474289 55.108145461284948 -0.81915203911291934 0 0.57357644374324357 I I #
edge $-1 $272 -15.815469829474289 $479 -8.6902144868175633 $270 $486 forward 7 unknown #
point $-1 47.492904446546831 -15.815469829474289 13.163009318540896 #
point $-1 47.492904446546831 -15.815469829474289 0.62652299030892777 #
edge $-1 $487 1 $487 0 $275 $-1 forward 7 unknown #
vertex $-1 $276 $488 #
ellipse-curve $-1 37.942466265737728 -13.779682588715225 6.0400776114025954 0.57357644374324357 0 0.81915203911291934 0.40957601955645967 0 -0.28678822187162178 1 I I #
point $-1 38.95050165743433 -13.779682588715225 6.6079779325532844 #
edge $-1 $489 1 $489 0 $279 $-1 forward 7 unknown #
vertex $-1 $280 $490 #
ellipse-curve $-1 37.942466265737728 -10.72600172757663 6.0400776114025954 0.57357644374324357 0 0.81915203911291934 0.40957601955645967 0 -0.28678822187162178 1 I I #
point $-1 38.95050165743433 -10.72600172757663 6.6079779325532844 #
plane-surface $-1 47.492904446546831 0 0 -1 0 0 0 0 1 forward_v I I I I #
coedge $-1 $288 $286 $290 $418 reversed $181 $-1 #
edge $-1 $301 -13.163009318540896 $420 13.163009318540896 $300 $491 forward 7 unknown #
vertex $-1 $418 $492 #
straight-curve $-1 -47.492904446546831 -28.209338727419734 0 0 0 -1 I I #
edge $-1 $416 -28.209338727419734 $420 28.209338727419734 $414 $493 forward 7 unknown #
straight-curve $-1 0 -28.209338727419734 -13.163009318540896 -1 0 0 I I #
vertex $-1 $293 $494 #
straight-curve $-1 0 28.209338727419734 -13.163009318540896 1 0 0 I I #
point $-1 47.492904446546831 28.209338727419734 -13.163009318540896 #
point $-1 47.492904446546831 -28.209338727419734 -13.163009318540896 #
straight-curve $-1 -47.492904446546831 0 13.163009318540896 0 -1 0 I I #
point $-1 -47.492904446546831 28.209338727419734 13.163009318540896 #
point $-1 -47.492904446546831 -28.209338727419734 13.163009318540896 #
straight-curve $-1 47.492904446546831 -28.209338727419734 0 0 0 -1 I I #
straight-curve $-1 47.492904446546831 28.209338727419734 0 0 0 -1 I I #
plane-surface $-1 47.492904446546831 0 0 -1 0 0 0 0 1 forward_v I I I I #
coedge $-1 $433 $313 $324 $442 forward $200 $-1 #
coedge $-1 $313 $433 $327 $444 reversed $200 $-1 #
straight-curve $-1 47.492904446546831 -15.815469829474289 -5.237412614545204 0 0 1 I I #
coedge $-1 $431 $430 $316 $434 forward $200 $-1 #
edge $-1 $437 4.8092676902507829 $435 17.20313658819623 $433 $495 forward 7 unknown #
vertex $-1 $318 $496 #
straight-curve $-1 0 -28.209338727419734 -12.663009318540896 1 0 0 I I #
vertex $-1 $434 $497 #
straight-curve $-1 0 -15.815469829474289 -12.663009318540896 1 0 0 I I #
point $-1 47.492904446546831 -28.209338727419734 -12.663009318540896 #
point $-1 47.492904446546831 -15.815469829474289 -12.663009318540896 #
straight-curve $-1 -47.492904446546831 -11.006202139223506 -8.2866411396399204 0 1 0 I I #
edge $-1 $325 3.0492285250947164 $437 7.4255967039956916 $430 $498 forward 7 unknown #
point $-1 -47.492904446546831 -15.815469829474289 -8.2866411396399204 #
edge $-1 $329 8.2866411396399204 $435 12.663009318540896 $431 $499 forward 7 unknown #
point $-1 -47.492904446546831 -28.209338727419734 -8.2866411396399204 #
straight-curve $-1 47.492904446546831 -28.209338727419734 0 0 0 -1 I I #
plane-surface $-1 0 28.209338727419734 0 0 -1 0 0 0 -1 forward_v I I I I #
coedge $-1 $338 $457 $340 $451 forward $335 $-1 #
vertex $-1 $451 $500 #
straight-curve $-1 -47.492904446546831 15.815469829474285 -5.237412614545204 0 0 1 I I #
edge $-1 $453 -17.203136588196227 $449 -4.8092676902507812 $448 $501 forward 7 unknown #
straight-curve $-1 0 15.815469829474285 -12.663009318540896 -1 0 0 I I #
vertex $-1 $343 $502 #
straight-curve $-1 0 28.209338727419734 -12.663009318540896 -1 0 0 I I #
point $-1 47.492904446546831 15.815469829474285 -12.663009318540896 #
point $-1 47.492904446546831 28.20933872741973 -12.663009318540896 #
coedge $-1 $448 $347 $350 $459 forward $335 $-1 #
straight-curve $-1 -47.492904446546831 11.006202139223504 -8.2866411396399204 0 1 0 I I #
edge $-1 $352 8.2866411396399204 $453 12.663009318540896 $350 $503 forward 7 unknown #
point $-1 -47.492904446546831 28.20933872741973 -8.2866411396399204 #
point $-1 -47.492904446546831 15.815469829474285 -8.2866411396399204 #
straight-curve $-1 47.492904446546831 15.815469829474285 -5.237412614545204 0 0 -1 I I #
straight-curve $-1 47.492904446546831 28.209338727419734 0 0 0 -1 I I #
coedge $-1 $372 $371 $364 $465 forward $361 $-1 #
edge $-1 $466 3.4943590122145949 $469 21.398316629552532 $464 $504 forward 7 unknown #
vertex $-1 $465 $505 #
straight-curve $-1 -47.492904446546831 -15.815469829474289 39.217171015938334 0 0 1 I I #
edge $-1 $469 -9.6890487504013265 $373 -2.5637934077446003 $372 $506 forward 7 unknown #
vertex $-1 $468 $507 #
straight-curve $-1 -47.492904446546831 -15.815469829474289 0.62652299030892777 -0.81915203911291934 0 -0.57357644374324357 I I #
point $-1 -47.492904446546831 -15.815469829474289 0.62652299030892777 #
point $-1 -29.588946829208894 -8.6902144868175633 13.163009318540896 #
straight-curve $-1 -47.492904446546831 0 13.163009318540896 0 -1 0 I I #
vertex $-1 $379 $508 #
point $-1 -37.53289024618126 -13.779682588715225 6.3268658332742209 #
vertex $-1 $383 $509 #
point $-1 -37.53289024618126 -10.72600172757663 6.3268658332742209 #
edge $-1 $479 -35.409550508569275 $482 -17.505592891231338 $388 $510 forward 7 unknown #
vertex $-1 $392 $511 #
straight-curve $-1 47.492904446546831 -8.6902144868175633 66.457982251426344 0 0 1 I I #
edge $-1 $482 2.5637934077446003 $399 9.6890487504013265 $398 $512 forward 7 unknown #
vertex $-1 $481 $513 #
straight-curve $-1 -30.314914595020909 -8.6902144868175633 55.108145461284948 0.81915203911291934 0 -0.57357644374324357 I I #
point $-1 47.492904446546831 -8.6902144868175633 0.62652299030892777 #
point $-1 29.588946829208894 -15.815469829474289 13.163009318540894 #
straight-curve $-1 47.492904446546831 0 13.163009318540896 0 1 0 I I #
vertex $-1 $405 $514 #
point $-1 38.352042285294189 -13.779682588715225 5.7532893895309742 #
vertex $-1 $409 $515 #
point $-1 38.352042285294189 -10.72600172757663 5.7532893895309742 #
straight-curve $-1 -47.492904446546831 28.209338727419734 0 0 0 -1 I I #
point $-1 -47.492904446546831 -28.209338727419734 -13.163009318540896 #
straight-curve $-1 -47.492904446546831 0 -13.163009318540896 0 1 0 I I #
point $-1 -47.492904446546831 28.209338727419734 -13.163009318540896 #
straight-curve $-1 -47.492904446546831 -11.006202139223506 -12.663009318540896 0 -1 0 I I #
point $-1 -47.492904446546831 -28.209338727419734 -12.663009318540896 #
point $-1 -47.492904446546831 -15.815469829474289 -12.663009318540896 #
straight-curve $-1 -47.492904446546831 -15.815469829474289 -5.237412614545204 0 0 -1 I I #
straight-curve $-1 -47.492904446546831 -28.209338727419734 0 0 0 -1 I I #
point $-1 -47.492904446546831 15.815469829474285 -12.663009318540896 #
straight-curve $-1 -47.492904446546831 11.006202139223504 -12.663009318540896 0 -1 0 I I #
point $-1 -47.492904446546831 28.20933872741973 -12.663009318540896 #
straight-curve $-1 -47.492904446546831 28.209338727419734 0 0 0 -1 I I #
straight-curve $-1 -50.987263458761426 -15.815469829474289 13.163009318540894 1 0 0 I I #
point $-1 -47.492904446546831 -15.815469829474289 13.163009318540896 #
straight-curve $-1 -29.588946829208894 -6.126421079072963 13.163009318540896 0 1 0 I I #
point $-1 -29.588946829208894 -15.815469829474289 13.163009318540896 #
point $-1 -37.655678043866104 -13.779682588715225 5.6305015918461399 #
point $-1 -37.655678043866104 -10.72600172757663 5.6305015918461399 #
straight-curve $-1 12.083353937977556 -8.6902144868175633 13.163009318540894 -1 0 0 I I #
point $-1 47.492904446546831 -8.6902144868175633 13.163009318540896 #
straight-curve $-1 29.588946829208897 -6.126421079072963 13.163009318540894 0 -1 0 I I #
point $-1 29.588946829208894 -8.6902144868175633 13.163009318540894 #
point $-1 37.655678043866111 -13.779682588715225 5.6305015918461363 #
point $-1 37.655678043866111 -10.72600172757663 5.6305015918461363 #
End-of-ACIS-data 