500 0 15 0           
7 Unknown 11 ACIS 5.0 NT 24 Thu Mar 25 23:28:59 1999 
-1 9.9999999999999995e-007 1e-010 
body $-1 $15 $-1 $16 #
body $-1 $17 $-1 $18 #
body $-1 $19 $-1 $20 #
body $-1 $21 $-1 $22 #
body $-1 $23 $-1 $24 #
body $-1 $25 $-1 $26 #
body $-1 $27 $-1 $28 #
body $-1 $29 $-1 $30 #
body $-1 $31 $-1 $32 #
body $-1 $33 $-1 $34 #
body $-1 $35 $-1 $36 #
body $-1 $37 $-1 $38 #
body $-1 $39 $-1 $40 #
body $-1 $41 $-1 $42 #
body $-1 $43 $-1 $44 #
lump $-1 $-1 $45 $0 #
transform $-1 1 0 0 0 1 0 0 0 1 40.025635547959837 26.2329337068931 10.693561168747271 1 rotate no_reflect no_shear #
lump $-1 $-1 $46 $1 #
transform $-1 1 0 0 0 1 0 0 0 1 40.025635547959837 26.2329337068931 10.693561168747271 1 rotate no_reflect no_shear #
lump $-1 $-1 $47 $2 #
transform $-1 1 0 0 0 1 0 0 0 1 40.025635547959837 26.2329337068931 10.693561168747271 1 rotate no_reflect no_shear #
lump $-1 $-1 $48 $3 #
transform $-1 1 0 0 0 1 0 0 0 1 40.025635547959837 26.2329337068931 10.693561168747271 1 rotate no_reflect no_shear #
lump $-1 $-1 $49 $4 #
transform $-1 1 0 0 0 1 0 0 0 1 40.025635547959837 26.2329337068931 10.693561168747271 1 rotate no_reflect no_shear #
lump $-1 $-1 $50 $5 #
transform $-1 1 0 0 0 1 0 0 0 1 40.025635547959837 26.2329337068931 10.693561168747271 1 rotate no_reflect no_shear #
lump $-1 $-1 $51 $6 #
transform $-1 1 0 0 0 1 0 0 0 1 40.025635547959837 26.2329337068931 10.693561168747271 1 rotate no_reflect no_shear #
lump $-1 $-1 $52 $7 #
transform $-1 1 0 0 0 1 0 0 0 1 40.025635547959837 26.2329337068931 10.693561168747271 1 rotate no_reflect no_shear #
lump $-1 $-1 $53 $8 #
transform $-1 1 0 0 0 1 0 0 0 1 40.025635547959837 26.2329337068931 10.693561168747271 1 rotate no_reflect no_shear #
lump $-1 $-1 $54 $9 #
transform $-1 1 0 0 0 1 0 0 0 1 40.025635547959837 26.2329337068931 10.693561168747271 1 rotate no_reflect no_shear #
lump $-1 $-1 $55 $10 #
transform $-1 1 0 0 0 1 0 0 0 1 40.025635547959837 26.2329337068931 10.693561168747271 1 rotate no_reflect no_shear #
lump $-1 $-1 $56 $11 #
transform $-1 1 0 0 0 1 0 0 0 1 40.025635547959837 26.2329337068931 10.693561168747271 1 rotate no_reflect no_shear #
lump $-1 $-1 $57 $12 #
transform $-1 1 0 0 0 1 0 0 0 1 40.025635547959837 26.2329337068931 10.693561168747271 1 rotate no_reflect no_shear #
lump $-1 $-1 $58 $13 #
transform $-1 1 0 0 0 1 0 0 0 1 40.025635547959837 26.2329337068931 10.693561168747271 1 rotate no_reflect no_shear #
lump $-1 $-1 $59 $14 #
transform $-1 1 0 0 0 1 0 0 0 1 40.025635547959837 26.2329337068931 10.693561168747271 1 rotate no_reflect no_shear #
shell $-1 $-1 $-1 $60 $-1 $15 #
shell $-1 $-1 $-1 $61 $-1 $17 #
shell $-1 $-1 $-1 $62 $-1 $19 #
shell $-1 $-1 $-1 $63 $-1 $21 #
shell $-1 $-1 $-1 $64 $-1 $23 #
shell $-1 $-1 $-1 $65 $-1 $25 #
shell $-1 $-1 $-1 $66 $-1 $27 #
shell $-1 $-1 $-1 $67 $-1 $29 #
shell $-1 $-1 $-1 $68 $-1 $31 #
shell $-1 $-1 $-1 $69 $-1 $33 #
shell $-1 $-1 $-1 $70 $-1 $35 #
shell $-1 $-1 $-1 $71 $-1 $37 #
shell $-1 $-1 $-1 $72 $-1 $39 #
shell $-1 $-1 $-1 $73 $-1 $41 #
shell $-1 $-1 $-1 $74 $-1 $43 #
face $-1 $75 $76 $45 $-1 $77 forward single #
face $-1 $78 $79 $46 $-1 $80 forward single #
face $-1 $81 $82 $47 $-1 $83 forward single #
face $-1 $84 $85 $48 $-1 $86 reversed single #
face $-1 $87 $88 $49 $-1 $89 forward single #
face $-1 $90 $91 $50 $-1 $92 reversed single #
face $-1 $93 $94 $51 $-1 $95 forward single #
face $-1 $96 $97 $52 $-1 $98 reversed single #
face $-1 $99 $100 $53 $-1 $101 forward single #
face $-1 $102 $103 $54 $-1 $104 reversed single #
face $-1 $105 $106 $55 $-1 $107 forward single #
face $-1 $108 $109 $56 $-1 $110 reversed single #
face $-1 $111 $112 $57 $-1 $113 forward single #
face $-1 $114 $115 $58 $-1 $116 reversed single #
face $-1 $117 $118 $59 $-1 $119 forward single #
face $-1 $120 $121 $45 $-1 $122 reversed single #
loop $-1 $-1 $123 $60 #
plane-surface $-1 0 0 10.693561168747271 0 0 1 1 0 0 forward_v I I I I #
face $-1 $124 $125 $46 $-1 $126 reversed single #
loop $-1 $-1 $127 $61 #
plane-surface $-1 0 -26.2329337068931 0 0 1 0 0 0 1 forward_v I I I I #
face $-1 $128 $129 $47 $-1 $130 reversed single #
loop $-1 $-1 $131 $62 #
plane-surface $-1 0 26.2329337068931 0 0 -1 0 0 0 -1 forward_v I I I I #
face $-1 $132 $133 $48 $-1 $134 reversed single #
loop $-1 $-1 $135 $63 #
plane-surface $-1 -94.62047180538589 -10.873509662758533 58.76063118781483 0 1 0 -0.68199836817093118 0 0.7313536940579346 forward_v I I I I #
face $-1 $136 $137 $49 $-1 $138 forward single #
loop $-1 $139 $140 $64 #
cone-surface $-1 -33.30461344423977 -8.2390494728060766 4.271918651955442 0.68199836817093118 0 -0.7313536940579346 0.7313536940579346 0 0.68199836817093118 1 I I 0 1 1 forward I I I I #
face $-1 $141 $142 $50 $-1 $143 reversed single #
loop $-1 $-1 $144 $65 #
plane-surface $-1 -94.62047180538589 -2.5114779302221706 58.76063118781483 0 1 0 -0.68199836817093118 0 0.7313536940579346 forward_v I I I I #
face $-1 $145 $146 $51 $-1 $147 forward single #
loop $-1 $148 $149 $66 #
cone-surface $-1 -33.30461344423977 0.12298225973028565 4.271918651955442 0.68199836817093118 0 -0.7313536940579346 0.7313536940579346 0 0.68199836817093118 1 I I 0 1 1 forward I I I I #
face $-1 $150 $151 $52 $-1 $152 reversed single #
loop $-1 $-1 $153 $67 #
plane-surface $-1 -94.62047180538589 5.8505538023141881 58.76063118781483 0 1 0 -0.68199836817093118 0 0.7313536940579346 forward_v I I I I #
face $-1 $154 $155 $53 $-1 $156 forward single #
loop $-1 $157 $158 $68 #
cone-surface $-1 -33.30461344423977 8.4850139922666443 4.271918651955442 0.68199836817093118 0 -0.7313536940579346 0.7313536940579346 0 0.68199836817093118 1 I I 0 1 1 forward I I I I #
face $-1 $159 $160 $54 $-1 $161 reversed single #
loop $-1 $-1 $162 $69 #
plane-surface $-1 36.074678975351873 -5.6045892828536203 113.35546744524089 0 -1 0 -0.68199836817093118 0 -0.7313536940579346 forward_v I I I I #
face $-1 $163 $164 $55 $-1 $165 forward single #
loop $-1 $166 $167 $70 #
cone-surface $-1 33.304613444239777 -8.2390494728060766 4.271918651955442 -0.68199836817093118 0 -0.7313536940579346 0.7313536940579346 0 -0.68199836817093118 1 I I 0 1 1 forward I I I I #
face $-1 $168 $169 $56 $-1 $170 reversed single #
loop $-1 $-1 $171 $71 #
plane-surface $-1 36.074678975351873 2.7574424496827419 113.35546744524089 0 -1 0 -0.68199836817093118 0 -0.7313536940579346 forward_v I I I I #
face $-1 $172 $173 $57 $-1 $174 forward single #
loop $-1 $175 $176 $72 #
cone-surface $-1 33.304613444239777 0.12298225973028565 4.271918651955442 -0.68199836817093118 0 -0.7313536940579346 0.7313536940579346 0 -0.68199836817093118 1 I I 0 1 1 forward I I I I #
face $-1 $177 $178 $58 $-1 $179 reversed single #
loop $-1 $-1 $180 $73 #
plane-surface $-1 36.074678975351873 11.119474182219101 113.35546744524089 0 -1 0 -0.68199836817093118 0 -0.7313536940579346 forward_v I I I I #
face $-1 $181 $182 $59 $-1 $183 forward single #
loop $-1 $184 $185 $74 #
cone-surface $-1 33.304613444239777 8.4850139922666443 4.271918651955442 -0.68199836817093118 0 -0.7313536940579346 0.7313536940579346 0 -0.68199836817093118 1 I I 0 1 1 forward I I I I #
face $-1 $186 $187 $45 $-1 $188 reversed single #
loop $-1 $-1 $189 $75 #
plane-surface $-1 0 0 -10.693561168747271 0 0 1 1 0 0 forward_v I I I I #
coedge $-1 $190 $191 $192 $193 forward $76 $-1 #
face $-1 $194 $195 $46 $-1 $196 forward single #
loop $-1 $-1 $197 $78 #
plane-surface $-1 -40.025635547959837 0 0 1 0 0 0 0 -1 forward_v I I I I #
coedge $-1 $198 $199 $200 $201 forward $79 $-1 #
face $-1 $202 $203 $47 $-1 $204 forward single #
loop $-1 $-1 $205 $81 #
plane-surface $-1 40.025635547959837 0 0 -1 0 0 0 0 1 forward_v I I I I #
coedge $-1 $206 $207 $208 $209 forward $82 $-1 #
face $-1 $210 $211 $48 $-1 $212 reversed single #
loop $-1 $-1 $213 $84 #
plane-surface $-1 -40.025635547959844 -8.2390494728060766 0.21483835778081328 -0.68199836817093118 0 0.7313536940579346 0.7313536940579346 0 0.68199836817093118 forward_v I I I I #
coedge $-1 $214 $215 $216 $217 reversed $85 $-1 #
face $-1 $-1 $218 $49 $-1 $219 forward single #
loop $-1 $220 $221 $87 #
cone-surface $-1 -31.86111926329728 -8.2390494728060766 2.7239606936178777 0.68199836817093118 0 -0.7313536940579346 0.3656768470289673 0 0.34099918408546559 1 I I -0.70710678118654746 0.70710678118654746 0.5 forward I I I I #
loop $-1 $-1 $222 $64 #
coedge $-1 $140 $140 $223 $224 reversed $88 $-1 #
face $-1 $225 $226 $50 $-1 $227 reversed single #
loop $-1 $-1 $228 $90 #
plane-surface $-1 -40.025635547959844 0.12298225973028565 0.21483835778081328 -0.68199836817093118 0 0.7313536940579346 0.7313536940579346 0 0.68199836817093118 forward_v I I I I #
coedge $-1 $229 $230 $231 $232 reversed $91 $-1 #
face $-1 $-1 $233 $51 $-1 $234 forward single #
loop $-1 $235 $236 $93 #
cone-surface $-1 -31.86111926329728 0.12298225973028565 2.7239606936178777 0.68199836817093118 0 -0.7313536940579346 0.3656768470289673 0 0.34099918408546559 1 I I -0.70710678118654746 0.70710678118654746 0.5 forward I I I I #
loop $-1 $-1 $237 $66 #
coedge $-1 $149 $149 $238 $239 reversed $94 $-1 #
face $-1 $240 $241 $52 $-1 $242 reversed single #
loop $-1 $-1 $243 $96 #
plane-surface $-1 -40.025635547959844 8.4850139922666443 0.21483835778081328 -0.68199836817093118 0 0.7313536940579346 0.7313536940579346 0 0.68199836817093118 forward_v I I I I #
coedge $-1 $244 $245 $246 $247 reversed $97 $-1 #
face $-1 $-1 $248 $53 $-1 $249 forward single #
loop $-1 $250 $251 $99 #
cone-surface $-1 -31.86111926329728 8.4850139922666443 2.7239606936178777 0.68199836817093118 0 -0.7313536940579346 0.3656768470289673 0 0.34099918408546559 1 I I -0.70710678118654746 0.70710678118654746 0.5 forward I I I I #
loop $-1 $-1 $252 $68 #
coedge $-1 $158 $158 $253 $254 reversed $100 $-1 #
face $-1 $255 $256 $54 $-1 $257 reversed single #
loop $-1 $-1 $258 $102 #
plane-surface $-1 -18.520157282074173 -8.2390494728060766 54.809674615206873 0.68199836817093118 0 0.7313536940579346 0.7313536940579346 0 -0.68199836817093118 forward_v I I I I #
coedge $-1 $259 $260 $261 $262 reversed $103 $-1 #
face $-1 $-1 $263 $55 $-1 $264 forward single #
loop $-1 $265 $266 $105 #
cone-surface $-1 31.861119263297283 -8.2390494728060766 2.7239606936178777 -0.68199836817093118 0 -0.7313536940579346 0.3656768470289673 0 -0.34099918408546559 1 I I -0.70710678118654746 0.70710678118654746 0.5 forward I I I I #
loop $-1 $-1 $267 $70 #
coedge $-1 $167 $167 $268 $269 reversed $106 $-1 #
face $-1 $270 $271 $56 $-1 $272 reversed single #
loop $-1 $-1 $273 $108 #
plane-surface $-1 -18.520157282074173 0.12298225973028565 54.809674615206873 0.68199836817093118 0 0.7313536940579346 0.7313536940579346 0 -0.68199836817093118 forward_v I I I I #
coedge $-1 $274 $275 $276 $277 reversed $109 $-1 #
face $-1 $-1 $278 $57 $-1 $279 forward single #
loop $-1 $280 $281 $111 #
cone-surface $-1 31.861119263297283 0.12298225973028565 2.7239606936178777 -0.68199836817093118 0 -0.7313536940579346 0.3656768470289673 0 -0.34099918408546559 1 I I -0.70710678118654746 0.70710678118654746 0.5 forward I I I I #
loop $-1 $-1 $282 $72 #
coedge $-1 $176 $176 $283 $284 reversed $112 $-1 #
face $-1 $285 $286 $58 $-1 $287 reversed single #
loop $-1 $-1 $288 $114 #
plane-surface $-1 -18.520157282074173 8.4850139922666443 54.809674615206873 0.68199836817093118 0 0.7313536940579346 0.7313536940579346 0 -0.68199836817093118 forward_v I I I I #
coedge $-1 $289 $290 $291 $292 reversed $115 $-1 #
face $-1 $-1 $293 $59 $-1 $294 forward single #
loop $-1 $295 $296 $117 #
cone-surface $-1 31.861119263297283 8.4850139922666443 2.7239606936178777 -0.68199836817093118 0 -0.7313536940579346 0.3656768470289673 0 -0.34099918408546559 1 I I -0.70710678118654746 0.70710678118654746 0.5 forward I I I I #
loop $-1 $-1 $297 $74 #
coedge $-1 $185 $185 $298 $299 reversed $118 $-1 #
face $-1 $300 $301 $45 $-1 $302 reversed single #
loop $-1 $-1 $303 $120 #
plane-surface $-1 0 -26.2329337068931 0 0 1 0 0 0 1 forward_v I I I I #
coedge $-1 $304 $305 $306 $307 forward $121 $-1 #
coedge $-1 $308 $123 $309 $310 forward $76 $-1 #
coedge $-1 $123 $308 $311 $312 forward $76 $-1 #
coedge $-1 $313 $314 $123 $193 reversed $315 $-1 #
edge $-1 $316 -26.2329337068931 $317 26.2329337068931 $192 $318 forward 7 unknown #
face $-1 $319 $320 $46 $-1 $321 reversed single #
loop $-1 $-1 $322 $124 #
plane-surface $-1 0 -33.077876760937379 4.4794527303399638 0 0 1 1 0 0 forward_v I I I I #
coedge $-1 $323 $324 $199 $325 forward $125 $-1 #
coedge $-1 $326 $127 $327 $328 reversed $79 $-1 #
coedge $-1 $127 $326 $197 $325 reversed $79 $-1 #
coedge $-1 $329 $322 $127 $201 reversed $195 $-1 #
edge $-1 $330 -40.025635547959837 $331 40.025635547959837 $200 $332 forward 7 unknown #
face $-1 $333 $334 $47 $-1 $335 reversed single #
loop $-1 $-1 $336 $128 #
plane-surface $-1 0 33.077876760937379 4.4794527303399638 0 0 1 1 0 0 forward_v I I I I #
coedge $-1 $337 $338 $207 $339 forward $129 $-1 #
coedge $-1 $340 $131 $341 $342 reversed $82 $-1 #
coedge $-1 $131 $340 $205 $339 reversed $82 $-1 #
coedge $-1 $336 $343 $131 $209 reversed $203 $-1 #
edge $-1 $344 -40.025635547959837 $345 40.025635547959837 $208 $346 forward 7 unknown #
face $-1 $347 $348 $48 $-1 $349 reversed single #
loop $-1 $-1 $350 $132 #
plane-surface $-1 -94.62047180538589 -5.6045892828536203 58.76063118781483 0 -1 0 0.68199836817093118 0 -0.7313536940579346 forward_v I I I I #
coedge $-1 $351 $352 $353 $354 reversed $133 $-1 #
coedge $-1 $215 $135 $355 $356 reversed $85 $-1 #
coedge $-1 $135 $214 $351 $357 reversed $85 $-1 #
coedge $-1 $353 $358 $135 $217 forward $359 $-1 #
edge $-1 $360 7.284600354733108 $361 18.521654568459169 $216 $362 forward 7 unknown #
loop $-1 $-1 $223 $136 #
plane-surface $-1 -40.025635547959844 -8.2390494728060766 0.21483835778081328 -0.68199836817093118 0 0.7313536940579346 0.7313536940579346 0 0.68199836817093118 forward_v I I I I #
loop $-1 $-1 $363 $87 #
coedge $-1 $221 $221 $222 $364 reversed $137 $-1 #
coedge $-1 $222 $222 $221 $364 forward $139 $-1 #
coedge $-1 $223 $223 $140 $224 forward $218 $-1 #
edge $-1 $365 0 $365 6.2831853071796004 $223 $366 forward 7 unknown #
face $-1 $367 $368 $50 $-1 $369 forward single #
loop $-1 $-1 $370 $141 #
plane-surface $-1 -94.62047180538589 2.7574424496827419 58.76063118781483 0 -1 0 0.68199836817093118 0 -0.7313536940579346 forward_v I I I I #
coedge $-1 $371 $372 $373 $374 reversed $142 $-1 #
coedge $-1 $230 $144 $375 $376 reversed $91 $-1 #
coedge $-1 $144 $229 $371 $377 reversed $91 $-1 #
coedge $-1 $373 $378 $144 $232 forward $368 $-1 #
edge $-1 $379 7.284600354733108 $380 18.521654568459169 $231 $381 forward 7 unknown #
loop $-1 $-1 $238 $145 #
plane-surface $-1 -40.025635547959844 0.12298225973028565 0.21483835778081328 -0.68199836817093118 0 0.7313536940579346 0.7313536940579346 0 0.68199836817093118 forward_v I I I I #
loop $-1 $-1 $382 $93 #
coedge $-1 $236 $236 $237 $383 reversed $146 $-1 #
coedge $-1 $237 $237 $236 $383 forward $148 $-1 #
coedge $-1 $238 $238 $149 $239 forward $233 $-1 #
edge $-1 $384 0 $384 6.2831853071796004 $238 $385 forward 7 unknown #
face $-1 $386 $387 $52 $-1 $388 forward single #
loop $-1 $-1 $389 $150 #
plane-surface $-1 -94.62047180538589 11.119474182219101 58.76063118781483 0 -1 0 0.68199836817093118 0 -0.7313536940579346 forward_v I I I I #
coedge $-1 $390 $391 $392 $393 reversed $151 $-1 #
coedge $-1 $245 $153 $394 $395 reversed $97 $-1 #
coedge $-1 $153 $244 $390 $396 reversed $97 $-1 #
coedge $-1 $392 $397 $153 $247 forward $387 $-1 #
edge $-1 $398 7.284600354733108 $399 18.521654568459169 $246 $400 forward 7 unknown #
loop $-1 $-1 $253 $154 #
plane-surface $-1 -40.025635547959844 8.4850139922666443 0.21483835778081328 -0.68199836817093118 0 0.7313536940579346 0.7313536940579346 0 0.68199836817093118 forward_v I I I I #
loop $-1 $-1 $401 $99 #
coedge $-1 $251 $251 $252 $402 reversed $155 $-1 #
coedge $-1 $252 $252 $251 $402 forward $157 $-1 #
coedge $-1 $253 $253 $158 $254 forward $248 $-1 #
edge $-1 $403 0 $403 6.2831853071796004 $253 $404 forward 7 unknown #
face $-1 $405 $406 $54 $-1 $407 forward single #
loop $-1 $-1 $408 $159 #
plane-surface $-1 36.074678975351873 -10.873509662758533 113.35546744524089 0 1 0 0.68199836817093118 0 0.7313536940579346 forward_v I I I I #
coedge $-1 $409 $410 $411 $412 reversed $160 $-1 #
coedge $-1 $260 $162 $413 $414 reversed $103 $-1 #
coedge $-1 $162 $259 $409 $415 reversed $103 $-1 #
coedge $-1 $411 $416 $162 $262 forward $406 $-1 #
edge $-1 $417 -21.988296060283901 $418 -10.751241846557861 $261 $419 forward 7 unknown #
loop $-1 $-1 $268 $163 #
plane-surface $-1 -18.520157282074173 -8.2390494728060766 54.809674615206873 0.68199836817093118 0 0.7313536940579346 0.7313536940579346 0 -0.68199836817093118 forward_v I I I I #
loop $-1 $-1 $420 $105 #
coedge $-1 $266 $266 $267 $421 reversed $164 $-1 #
coedge $-1 $267 $267 $266 $421 forward $166 $-1 #
coedge $-1 $268 $268 $167 $269 forward $263 $-1 #
edge $-1 $422 0 $422 6.2831853071796004 $268 $423 forward 7 unknown #
face $-1 $424 $425 $56 $-1 $426 reversed single #
loop $-1 $-1 $427 $168 #
plane-surface $-1 36.074678975351873 -2.5114779302221706 113.35546744524089 0 1 0 0.68199836817093118 0 0.7313536940579346 forward_v I I I I #
coedge $-1 $428 $429 $430 $431 reversed $169 $-1 #
coedge $-1 $275 $171 $432 $433 reversed $109 $-1 #
coedge $-1 $171 $274 $428 $434 reversed $109 $-1 #
coedge $-1 $430 $435 $171 $277 forward $436 $-1 #
edge $-1 $437 -21.988296060283901 $438 -10.751241846557861 $276 $439 forward 7 unknown #
loop $-1 $-1 $283 $172 #
plane-surface $-1 -18.520157282074173 0.12298225973028565 54.809674615206873 0.68199836817093118 0 0.7313536940579346 0.7313536940579346 0 -0.68199836817093118 forward_v I I I I #
loop $-1 $-1 $440 $111 #
coedge $-1 $281 $281 $282 $441 reversed $173 $-1 #
coedge $-1 $282 $282 $281 $441 forward $175 $-1 #
coedge $-1 $283 $283 $176 $284 forward $278 $-1 #
edge $-1 $442 0 $442 6.2831853071796004 $283 $443 forward 7 unknown #
face $-1 $444 $445 $58 $-1 $446 reversed single #
loop $-1 $-1 $447 $177 #
plane-surface $-1 36.074678975351873 5.8505538023141881 113.35546744524089 0 1 0 0.68199836817093118 0 0.7313536940579346 forward_v I I I I #
coedge $-1 $448 $449 $450 $451 reversed $178 $-1 #
coedge $-1 $290 $180 $452 $453 reversed $115 $-1 #
coedge $-1 $180 $289 $448 $454 reversed $115 $-1 #
coedge $-1 $450 $455 $180 $292 forward $456 $-1 #
edge $-1 $457 -21.988296060283901 $458 -10.751241846557861 $291 $459 forward 7 unknown #
loop $-1 $-1 $298 $181 #
plane-surface $-1 -18.520157282074173 8.4850139922666443 54.809674615206873 0.68199836817093118 0 0.7313536940579346 0.7313536940579346 0 -0.68199836817093118 forward_v I I I I #
loop $-1 $-1 $460 $117 #
coedge $-1 $296 $296 $297 $461 reversed $182 $-1 #
coedge $-1 $297 $297 $296 $461 forward $184 $-1 #
coedge $-1 $298 $298 $185 $299 forward $293 $-1 #
edge $-1 $462 0 $462 6.2831853071796004 $298 $463 forward 7 unknown #
face $-1 $464 $465 $45 $-1 $466 reversed single #
loop $-1 $-1 $467 $186 #
plane-surface $-1 -40.025635547959837 0 0 1 0 0 0 0 -1 forward_v I I I I #
coedge $-1 $468 $311 $469 $470 forward $187 $-1 #
coedge $-1 $471 $189 $468 $472 forward $121 $-1 #
coedge $-1 $189 $471 $473 $474 forward $121 $-1 #
coedge $-1 $314 $313 $189 $307 reversed $315 $-1 #
edge $-1 $475 -26.2329337068931 $476 26.2329337068931 $306 $477 forward 7 unknown #
coedge $-1 $191 $190 $478 $479 forward $76 $-1 #
coedge $-1 $480 $481 $190 $310 reversed $465 $-1 #
edge $-1 $317 -40.025635547959837 $482 40.025635547959837 $309 $483 forward 7 unknown #
coedge $-1 $303 $484 $191 $312 reversed $187 $-1 #
edge $-1 $485 -40.025635547959837 $316 40.025635547959837 $311 $486 forward 7 unknown #
coedge $-1 $306 $192 $484 $487 forward $315 $-1 #
coedge $-1 $192 $306 $480 $488 reversed $315 $-1 #
loop $-1 $-1 $313 $464 #
vertex $-1 $193 $489 #
vertex $-1 $193 $490 #
straight-curve $-1 40.025635547959837 0 10.693561168747271 0 1 0 I I #
face $-1 $491 $492 $46 $-1 $493 reversed single #
loop $-1 $-1 $494 $194 #
plane-surface $-1 0 -33.077876760937379 -0.57775612561698875 0 0 1 1 0 0 forward_v I I I I #
coedge $-1 $200 $495 $496 $497 forward $195 $-1 #
coedge $-1 $498 $197 $499 $500 reversed $125 $-1 #
coedge $-1 $197 $498 $329 $501 reversed $125 $-1 #
edge $-1 $330 -4.4794527303399638 $502 0.57775612561698875 $197 $503 forward 7 unknown #
coedge $-1 $199 $198 $504 $505 forward $79 $-1 #
coedge $-1 $496 $506 $198 $328 forward $507 $-1 #
edge $-1 $508 -0.57775612561698875 $331 4.4794527303399638 $327 $509 forward 7 unknown #
coedge $-1 $495 $200 $324 $501 forward $195 $-1 #
vertex $-1 $325 $510 #
vertex $-1 $497 $511 #
straight-curve $-1 0 -26.2329337068931 4.4794527303399638 1 0 0 I I #
face $-1 $512 $513 $47 $-1 $514 reversed single #
loop $-1 $-1 $515 $202 #
plane-surface $-1 0 33.077876760937379 -0.57775612561698875 0 0 1 1 0 0 forward_v I I I I #
coedge $-1 $516 $208 $338 $517 forward $203 $-1 #
coedge $-1 $518 $205 $515 $519 reversed $129 $-1 #
coedge $-1 $205 $518 $336 $517 reversed $129 $-1 #
edge $-1 $344 -4.4794527303399638 $520 0.57775612561698875 $205 $521 forward 7 unknown #
coedge $-1 $207 $206 $522 $523 forward $82 $-1 #
coedge $-1 $524 $525 $206 $342 forward $526 $-1 #
edge $-1 $527 -0.57775612561698875 $345 4.4794527303399638 $341 $528 forward 7 unknown #
coedge $-1 $208 $516 $524 $529 forward $203 $-1 #
vertex $-1 $339 $530 #
vertex $-1 $529 $531 #
straight-curve $-1 0 26.2329337068931 4.4794527303399638 -1 0 0 I I #
face $-1 $-1 $359 $48 $-1 $532 forward single #
loop $-1 $-1 $533 $210 #
plane-surface $-1 -40.025635547959837 0 0 1 0 0 0 0 -1 forward_v I I I I #
coedge $-1 $534 $535 $536 $537 reversed $211 $-1 #
coedge $-1 $538 $213 $215 $357 forward $133 $-1 #
coedge $-1 $213 $538 $534 $539 forward $133 $-1 #
coedge $-1 $536 $216 $213 $354 forward $359 $-1 #
edge $-1 $361 -6.7539849263554945 $540 -1.4850645464505821 $353 $541 forward 7 unknown #
coedge $-1 $542 $543 $214 $356 forward $348 $-1 #
edge $-1 $544 -29.165477236126595 $360 -18.686754425160146 $355 $545 forward 7 unknown #
edge $-1 $361 -15.364732967132477 $544 -9.7206730351652108e-015 $215 $546 forward 7 unknown #
coedge $-1 $216 $536 $542 $547 forward $359 $-1 #
loop $-1 $-1 $536 $347 #
vertex $-1 $356 $548 #
vertex $-1 $217 $549 #
straight-curve $-1 -47.310235902692945 -10.873509662758533 10.693561168747273 1 0 0 I I #
coedge $-1 $363 $363 $-1 $550 reversed $220 $-1 #
edge $-1 $551 0 $551 6.2831853071796004 $221 $552 forward 7 unknown #
vertex $-1 $224 $553 #
ellipse-curve $-1 -34.407108441096803 -8.2390494728060766 5.4541997632640467 -0.68199836817093118 0 0.7313536940579346 0.7313536940579346 0 0.68199836817093118 1 I I #
face $-1 $-1 $554 $50 $-1 $555 reversed single #
loop $-1 $-1 $231 $225 #
plane-surface $-1 0 0 10.693561168747271 0 0 1 1 0 0 forward_v I I I I #
coedge $-1 $556 $557 $558 $559 reversed $226 $-1 #
coedge $-1 $560 $228 $230 $377 forward $142 $-1 #
coedge $-1 $228 $560 $556 $561 forward $142 $-1 #
coedge $-1 $558 $231 $228 $374 forward $368 $-1 #
edge $-1 $380 -2.5729690600873134 $562 2.6959513198175991 $373 $563 forward 7 unknown #
coedge $-1 $564 $565 $229 $376 forward $554 $-1 #
edge $-1 $566 -29.165477236126595 $379 -18.686754425160146 $375 $567 forward 7 unknown #
edge $-1 $380 -15.364732967132477 $566 -9.7206730351652108e-015 $230 $568 forward 7 unknown #
coedge $-1 $231 $558 $564 $569 forward $368 $-1 #
vertex $-1 $232 $570 #
vertex $-1 $232 $571 #
straight-curve $-1 -47.310235902692945 -2.5114779302221706 10.693561168747273 1 0 0 I I #
coedge $-1 $382 $382 $-1 $572 reversed $235 $-1 #
edge $-1 $573 0 $573 6.2831853071796004 $236 $574 forward 7 unknown #
vertex $-1 $239 $575 #
ellipse-curve $-1 -34.407108441096803 0.12298225973028565 5.4541997632640467 -0.68199836817093118 0 0.7313536940579346 0.7313536940579346 0 0.68199836817093118 1 I I #
face $-1 $-1 $576 $52 $-1 $577 reversed single #
loop $-1 $-1 $246 $240 #
plane-surface $-1 0 0 10.693561168747271 0 0 1 1 0 0 forward_v I I I I #
coedge $-1 $578 $579 $580 $581 reversed $241 $-1 #
coedge $-1 $582 $243 $245 $396 forward $151 $-1 #
coedge $-1 $243 $582 $578 $583 forward $151 $-1 #
coedge $-1 $580 $246 $243 $393 forward $387 $-1 #
edge $-1 $399 1.6080468061808659 $584 6.8769671860857784 $392 $585 forward 7 unknown #
coedge $-1 $586 $587 $244 $395 forward $576 $-1 #
edge $-1 $588 -29.165477236126595 $398 -18.686754425160146 $394 $589 forward 7 unknown #
edge $-1 $399 -15.364732967132477 $588 -9.7206730351652108e-015 $245 $590 forward 7 unknown #
coedge $-1 $246 $580 $586 $591 forward $387 $-1 #
vertex $-1 $247 $592 #
vertex $-1 $247 $593 #
straight-curve $-1 -47.310235902692945 5.8505538023141881 10.693561168747273 1 0 0 I I #
coedge $-1 $401 $401 $-1 $594 reversed $250 $-1 #
edge $-1 $595 0 $595 6.2831853071796004 $251 $596 forward 7 unknown #
vertex $-1 $254 $597 #
ellipse-curve $-1 -34.407108441096803 8.4850139922666443 5.4541997632640467 -0.68199836817093118 0 0.7313536940579346 0.7313536940579346 0 0.68199836817093118 1 I I #
face $-1 $-1 $598 $54 $-1 $599 reversed single #
loop $-1 $-1 $261 $255 #
plane-surface $-1 0 0 10.693561168747271 0 0 1 1 0 0 forward_v I I I I #
coedge $-1 $600 $601 $602 $603 reversed $256 $-1 #
coedge $-1 $604 $258 $260 $415 forward $160 $-1 #
coedge $-1 $258 $604 $600 $605 forward $160 $-1 #
coedge $-1 $602 $261 $258 $412 forward $406 $-1 #
edge $-1 $418 1.4850645464505821 $606 6.7539849263554945 $411 $607 forward 7 unknown #
coedge $-1 $608 $609 $259 $414 forward $598 $-1 #
edge $-1 $610 -56.462895364839611 $417 -45.984172553873172 $413 $611 forward 7 unknown #
edge $-1 $418 64.68653812878722 $610 80.05127109591966 $260 $612 forward 7 unknown #
coedge $-1 $261 $602 $608 $613 forward $406 $-1 #
vertex $-1 $414 $614 #
vertex $-1 $262 $615 #
straight-curve $-1 18.037339487675936 -5.6045892828536203 10.693561168747273 -1 0 0 I I #
coedge $-1 $420 $420 $-1 $616 reversed $265 $-1 #
edge $-1 $617 0 $617 6.2831853071796004 $266 $618 forward 7 unknown #
vertex $-1 $269 $619 #
ellipse-curve $-1 34.407108441096817 -8.2390494728060766 5.454199763264052 0.68199836817093118 0 0.7313536940579346 0.7313536940579346 0 -0.68199836817093118 1 I I #
face $-1 $-1 $436 $56 $-1 $620 forward single #
loop $-1 $-1 $621 $270 #
plane-surface $-1 40.025635547959837 0 0 -1 0 0 0 0 1 forward_v I I I I #
coedge $-1 $622 $623 $624 $625 reversed $271 $-1 #
coedge $-1 $626 $273 $275 $434 forward $169 $-1 #
coedge $-1 $273 $626 $622 $627 forward $169 $-1 #
coedge $-1 $624 $276 $273 $431 forward $436 $-1 #
edge $-1 $438 -2.6959513198175991 $628 2.5729690600873134 $430 $629 forward 7 unknown #
coedge $-1 $630 $631 $274 $433 forward $425 $-1 #
edge $-1 $632 -56.462895364839611 $437 -45.984172553873172 $432 $633 forward 7 unknown #
edge $-1 $438 64.68653812878722 $632 80.05127109591966 $275 $634 forward 7 unknown #
coedge $-1 $276 $624 $630 $635 forward $436 $-1 #
loop $-1 $-1 $624 $424 #
vertex $-1 $433 $636 #
vertex $-1 $277 $637 #
straight-curve $-1 18.037339487675936 2.7574424496827419 10.693561168747273 -1 0 0 I I #
coedge $-1 $440 $440 $-1 $638 reversed $280 $-1 #
edge $-1 $639 0 $639 6.2831853071796004 $281 $640 forward 7 unknown #
vertex $-1 $284 $641 #
ellipse-curve $-1 34.407108441096817 0.12298225973028565 5.454199763264052 0.68199836817093118 0 0.7313536940579346 0.7313536940579346 0 -0.68199836817093118 1 I I #
face $-1 $-1 $456 $58 $-1 $642 forward single #
loop $-1 $-1 $643 $285 #
plane-surface $-1 40.025635547959837 0 0 -1 0 0 0 0 1 forward_v I I I I #
coedge $-1 $644 $645 $646 $647 reversed $286 $-1 #
coedge $-1 $648 $288 $290 $454 forward $178 $-1 #
coedge $-1 $288 $648 $644 $649 forward $178 $-1 #
coedge $-1 $646 $291 $288 $451 forward $456 $-1 #
edge $-1 $458 -6.8769671860857784 $650 -1.6080468061808659 $450 $651 forward 7 unknown #
coedge $-1 $652 $653 $289 $453 forward $445 $-1 #
edge $-1 $654 -56.462895364839611 $457 -45.984172553873172 $452 $655 forward 7 unknown #
edge $-1 $458 64.68653812878722 $654 80.05127109591966 $290 $656 forward 7 unknown #
coedge $-1 $291 $646 $652 $657 forward $456 $-1 #
loop $-1 $-1 $646 $444 #
vertex $-1 $453 $658 #
vertex $-1 $292 $659 #
straight-curve $-1 18.037339487675936 11.119474182219101 10.693561168747273 -1 0 0 I I #
coedge $-1 $460 $460 $-1 $660 reversed $295 $-1 #
edge $-1 $661 0 $661 6.2831853071796004 $296 $662 forward 7 unknown #
vertex $-1 $299 $663 #
ellipse-curve $-1 34.407108441096817 8.4850139922666443 5.454199763264052 0.68199836817093118 0 0.7313536940579346 0.7313536940579346 0 -0.68199836817093118 1 I I #
face $-1 $-1 $315 $45 $-1 $664 reversed single #
loop $-1 $-1 $480 $300 #
plane-surface $-1 0 26.2329337068931 0 0 -1 0 0 0 -1 forward_v I I I I #
coedge $-1 $665 $478 $481 $666 forward $301 $-1 #
coedge $-1 $484 $303 $304 $472 reversed $187 $-1 #
coedge $-1 $478 $665 $303 $470 reversed $301 $-1 #
edge $-1 $485 -10.693561168747271 $667 10.693561168747271 $469 $668 forward 7 unknown #
coedge $-1 $305 $304 $665 $669 forward $121 $-1 #
edge $-1 $476 -40.025635547959837 $667 40.025635547959837 $468 $670 forward 7 unknown #
coedge $-1 $481 $480 $305 $474 reversed $465 $-1 #
edge $-1 $671 -40.025635547959837 $475 40.025635547959837 $473 $672 forward 7 unknown #
vertex $-1 $307 $673 #
vertex $-1 $487 $674 #
straight-curve $-1 40.025635547959837 0 -10.693561168747271 0 -1 0 I I #
coedge $-1 $467 $469 $308 $479 reversed $301 $-1 #
edge $-1 $482 -26.2329337068931 $485 26.2329337068931 $478 $675 forward 7 unknown #
coedge $-1 $473 $309 $314 $488 forward $465 $-1 #
coedge $-1 $309 $473 $467 $666 reversed $465 $-1 #
vertex $-1 $310 $676 #
straight-curve $-1 0 26.2329337068931 10.693561168747271 -1 0 0 I I #
coedge $-1 $311 $468 $313 $487 reversed $187 $-1 #
vertex $-1 $479 $677 #
straight-curve $-1 0 -26.2329337068931 10.693561168747271 1 0 0 I I #
edge $-1 $316 -10.693561168747271 $476 10.693561168747271 $313 $678 forward 7 unknown #
edge $-1 $317 -10.693561168747271 $475 10.693561168747271 $314 $679 forward 7 unknown #
point $-1 40.025635547959837 -26.2329337068931 10.693561168747271 #
point $-1 40.025635547959837 26.2329337068931 10.693561168747271 #
face $-1 $-1 $507 $46 $-1 $680 reversed single #
loop $-1 $-1 $681 $319 #
plane-surface $-1 0 -39.922819814981658 1.9508483023614875 0 1 0 0 0 1 forward_v I I I I #
coedge $-1 $682 $504 $506 $683 forward $320 $-1 #
coedge $-1 $322 $329 $684 $685 forward $195 $-1 #
coedge $-1 $686 $327 $322 $497 reversed $507 $-1 #
edge $-1 $687 -6.8449430540442791 $331 6.8449430540442791 $496 $688 forward 7 unknown #
coedge $-1 $324 $323 $681 $689 reversed $125 $-1 #
coedge $-1 $504 $682 $323 $500 forward $320 $-1 #
edge $-1 $690 -6.8449430540442791 $502 6.8449430540442791 $323 $691 forward 7 unknown #
edge $-1 $330 -6.8449430540442791 $692 6.8449430540442791 $324 $693 forward 7 unknown #
vertex $-1 $325 $694 #
straight-curve $-1 -40.025635547959837 -26.2329337068931 0 0 0 -1 I I #
coedge $-1 $494 $499 $326 $505 reversed $320 $-1 #
edge $-1 $508 -40.025635547959837 $502 40.025635547959837 $504 $695 forward 7 unknown #
coedge $-1 $327 $686 $494 $683 reversed $507 $-1 #
loop $-1 $-1 $327 $491 #
vertex $-1 $328 $696 #
straight-curve $-1 40.025635547959837 -26.2329337068931 0 0 0 1 I I #
point $-1 -40.025635547959837 -26.2329337068931 4.4794527303399638 #
point $-1 40.025635547959837 -26.2329337068931 4.4794527303399638 #
face $-1 $-1 $526 $47 $-1 $697 reversed single #
loop $-1 $-1 $698 $333 #
plane-surface $-1 0 39.922819814981658 1.9508483023614875 0 -1 0 0 0 -1 forward_v I I I I #
coedge $-1 $522 $699 $337 $519 forward $334 $-1 #
coedge $-1 $343 $336 $700 $701 forward $203 $-1 #
edge $-1 $344 -6.8449430540442791 $702 6.8449430540442791 $338 $703 forward 7 unknown #
coedge $-1 $338 $337 $698 $704 reversed $129 $-1 #
edge $-1 $705 -6.8449430540442791 $520 6.8449430540442791 $337 $706 forward 7 unknown #
vertex $-1 $339 $707 #
straight-curve $-1 40.025635547959837 26.2329337068931 0 0 0 -1 I I #
coedge $-1 $708 $515 $340 $523 reversed $334 $-1 #
edge $-1 $527 -40.025635547959837 $520 40.025635547959837 $522 $709 forward 7 unknown #
coedge $-1 $710 $341 $343 $529 reversed $526 $-1 #
coedge $-1 $341 $710 $708 $711 reversed $526 $-1 #
loop $-1 $-1 $341 $512 #
vertex $-1 $342 $712 #
straight-curve $-1 -40.025635547959837 26.2329337068931 0 0 0 1 I I #
edge $-1 $713 -6.8449430540442791 $345 6.8449430540442791 $524 $714 forward 7 unknown #
point $-1 40.025635547959837 26.2329337068931 4.4794527303399638 #
point $-1 -40.025635547959837 26.2329337068931 4.4794527303399638 #
plane-surface $-1 0 0 10.693561168747271 0 0 1 1 0 0 forward_v I I I I #
coedge $-1 $543 $542 $535 $715 forward $348 $-1 #
coedge $-1 $535 $350 $352 $539 reversed $211 $-1 #
coedge $-1 $350 $534 $533 $715 reversed $211 $-1 #
coedge $-1 $358 $353 $350 $537 forward $359 $-1 #
edge $-1 $540 -18.521654568459169 $716 -7.284600354733108 $536 $717 forward 7 unknown #
coedge $-1 $352 $351 $543 $718 reversed $133 $-1 #
edge $-1 $719 9.7206730351652108e-015 $540 15.364732967132477 $534 $720 forward 7 unknown #
vertex $-1 $354 $721 #
straight-curve $-1 -28.788581334233779 -4.1195247364030383 10.693561168747271 0 1 0 I I #
coedge $-1 $533 $355 $358 $547 reversed $348 $-1 #
coedge $-1 $355 $533 $538 $718 forward $348 $-1 #
vertex $-1 $356 $722 #
straight-curve $-1 -40.025635547959837 -10.873509662758533 29.380315593907415 0 0 1 I I #
straight-curve $-1 -40.025635547959844 -10.873509662758533 0.21483835778081328 -0.7313536940579346 0 -0.68199836817093118 I I #
edge $-1 $716 5.6045892828536203 $360 10.873509662758533 $542 $723 forward 7 unknown #
point $-1 -40.025635547959837 -10.873509662758533 10.693561168747271 #
point $-1 -28.788581334233776 -10.873509662758533 10.693561168747271 #
edge $-1 $724 1 $724 0 $363 $-1 forward 7 unknown #
vertex $-1 $364 $725 #
ellipse-curve $-1 -32.202118447382745 -8.2390494728060766 3.0896375406468453 -0.68199836817093118 0 0.7313536940579346 0.7313536940579346 0 0.68199836817093118 1 I I #
point $-1 -33.675754747038866 -8.2390494728060766 6.1361981314349698 #
loop $-1 $-1 $375 $367 #
plane-surface $-1 -40.025635547959837 0 0 1 0 0 0 0 -1 forward_v I I I I #
coedge $-1 $557 $370 $372 $561 reversed $226 $-1 #
coedge $-1 $370 $556 $726 $727 reversed $226 $-1 #
coedge $-1 $378 $373 $370 $559 forward $368 $-1 #
edge $-1 $562 -18.521654568459169 $728 -7.284600354733108 $558 $729 forward 7 unknown #
coedge $-1 $372 $371 $565 $730 reversed $142 $-1 #
edge $-1 $731 9.7206730351652108e-015 $562 15.364732967132477 $556 $732 forward 7 unknown #
vertex $-1 $374 $733 #
straight-curve $-1 -28.788581334233779 0.061491129865142824 10.693561168747271 0 1 0 I I #
coedge $-1 $726 $375 $378 $569 reversed $554 $-1 #
coedge $-1 $375 $726 $560 $730 forward $554 $-1 #
vertex $-1 $376 $734 #
straight-curve $-1 -40.025635547959837 -2.5114779302221706 29.380315593907415 0 0 1 I I #
straight-curve $-1 -40.025635547959844 -2.5114779302221706 0.21483835778081328 -0.7313536940579346 0 -0.68199836817093118 I I #
edge $-1 $728 -2.7574424496827419 $379 2.5114779302221706 $564 $735 forward 7 unknown #
point $-1 -40.025635547959837 -2.5114779302221706 10.693561168747271 #
point $-1 -28.788581334233776 -2.5114779302221706 10.693561168747271 #
edge $-1 $736 1 $736 0 $382 $-1 forward 7 unknown #
vertex $-1 $383 $737 #
ellipse-curve $-1 -32.202118447382745 0.12298225973028565 3.0896375406468453 -0.68199836817093118 0 0.7313536940579346 0.7313536940579346 0 0.68199836817093118 1 I I #
point $-1 -33.675754747038866 0.12298225973028565 6.1361981314349698 #
loop $-1 $-1 $394 $386 #
plane-surface $-1 -40.025635547959837 0 0 1 0 0 0 0 -1 forward_v I I I I #
coedge $-1 $579 $389 $391 $583 reversed $241 $-1 #
coedge $-1 $389 $578 $738 $739 reversed $241 $-1 #
coedge $-1 $397 $392 $389 $581 forward $387 $-1 #
edge $-1 $584 -18.521654568459169 $740 -7.284600354733108 $580 $741 forward 7 unknown #
coedge $-1 $391 $390 $587 $742 reversed $151 $-1 #
edge $-1 $743 9.7206730351652108e-015 $584 15.364732967132477 $578 $744 forward 7 unknown #
vertex $-1 $393 $745 #
straight-curve $-1 -28.788581334233779 4.2425069961333222 10.693561168747271 0 1 0 I I #
coedge $-1 $738 $394 $397 $591 reversed $576 $-1 #
coedge $-1 $394 $738 $582 $742 forward $576 $-1 #
vertex $-1 $395 $746 #
straight-curve $-1 -40.025635547959837 5.8505538023141881 29.380315593907415 0 0 1 I I #
straight-curve $-1 -40.025635547959844 5.8505538023141881 0.21483835778081328 -0.7313536940579346 0 -0.68199836817093118 I I #
edge $-1 $740 -11.119474182219101 $398 -5.8505538023141881 $586 $747 forward 7 unknown #
point $-1 -40.025635547959837 5.8505538023141881 10.693561168747271 #
point $-1 -28.788581334233776 5.8505538023141881 10.693561168747271 #
edge $-1 $748 1 $748 0 $401 $-1 forward 7 unknown #
vertex $-1 $402 $749 #
ellipse-curve $-1 -32.202118447382745 8.4850139922666443 3.0896375406468453 -0.68199836817093118 0 0.7313536940579346 0.7313536940579346 0 0.68199836817093118 1 I I #
point $-1 -33.675754747038866 8.4850139922666443 6.1361981314349698 #
loop $-1 $-1 $413 $405 #
plane-surface $-1 40.025635547959837 0 0 -1 0 0 0 0 1 forward_v I I I I #
coedge $-1 $601 $408 $410 $605 reversed $256 $-1 #
coedge $-1 $408 $600 $750 $751 reversed $256 $-1 #
coedge $-1 $416 $411 $408 $603 forward $406 $-1 #
edge $-1 $606 10.751241846557861 $752 21.988296060283901 $602 $753 forward 7 unknown #
coedge $-1 $410 $409 $609 $754 reversed $160 $-1 #
edge $-1 $755 -80.05127109591966 $606 -64.68653812878722 $600 $756 forward 7 unknown #
vertex $-1 $412 $757 #
straight-curve $-1 28.788581334233786 -4.1195247364030383 10.693561168747276 0 -1 0 I I #
coedge $-1 $750 $413 $416 $613 reversed $598 $-1 #
coedge $-1 $413 $750 $604 $754 forward $598 $-1 #
vertex $-1 $414 $758 #
straight-curve $-1 40.025635547959837 -5.6045892828536203 56.677733722620445 0 0 1 I I #
straight-curve $-1 -18.520157282074173 -5.6045892828536203 54.809674615206873 0.7313536940579346 0 -0.68199836817093118 I I #
edge $-1 $752 -10.873509662758533 $417 -5.6045892828536203 $608 $759 forward 7 unknown #
point $-1 40.025635547959837 -5.6045892828536203 10.693561168747271 #
point $-1 28.788581334233797 -5.6045892828536203 10.693561168747266 #
edge $-1 $760 1 $760 0 $420 $-1 forward 7 unknown #
vertex $-1 $421 $761 #
ellipse-curve $-1 32.202118447382752 -8.2390494728060766 3.0896375406468453 0.68199836817093118 0 0.7313536940579346 0.7313536940579346 0 -0.68199836817093118 1 I I #
point $-1 35.138462135154739 -8.2390494728060766 4.7722013950931075 #
plane-surface $-1 0 0 10.693561168747271 0 0 1 1 0 0 forward_v I I I I #
coedge $-1 $631 $630 $623 $762 forward $425 $-1 #
coedge $-1 $623 $427 $429 $627 reversed $271 $-1 #
coedge $-1 $427 $622 $621 $762 reversed $271 $-1 #
coedge $-1 $435 $430 $427 $625 forward $436 $-1 #
edge $-1 $628 10.751241846557861 $763 21.988296060283901 $624 $764 forward 7 unknown #
coedge $-1 $429 $428 $631 $765 reversed $169 $-1 #
edge $-1 $766 -80.05127109591966 $628 -64.68653812878722 $622 $767 forward 7 unknown #
vertex $-1 $431 $768 #
straight-curve $-1 28.788581334233786 0.061491129865142824 10.693561168747276 0 -1 0 I I #
coedge $-1 $621 $432 $435 $635 reversed $425 $-1 #
coedge $-1 $432 $621 $626 $765 forward $425 $-1 #
vertex $-1 $433 $769 #
straight-curve $-1 40.025635547959837 2.7574424496827419 56.677733722620445 0 0 1 I I #
straight-curve $-1 -18.520157282074173 2.7574424496827419 54.809674615206873 0.7313536940579346 0 -0.68199836817093118 I I #
edge $-1 $763 -2.5114779302221706 $437 2.7574424496827419 $630 $770 forward 7 unknown #
point $-1 40.025635547959837 2.7574424496827419 10.693561168747271 #
point $-1 28.788581334233797 2.7574424496827419 10.693561168747266 #
edge $-1 $771 1 $771 0 $440 $-1 forward 7 unknown #
vertex $-1 $441 $772 #
ellipse-curve $-1 32.202118447382752 0.12298225973028565 3.0896375406468453 0.68199836817093118 0 0.7313536940579346 0.7313536940579346 0 -0.68199836817093118 1 I I #
point $-1 35.138462135154739 0.12298225973028565 4.7722013950931075 #
plane-surface $-1 0 0 10.693561168747271 0 0 1 1 0 0 forward_v I I I I #
coedge $-1 $653 $652 $645 $773 forward $445 $-1 #
coedge $-1 $645 $447 $449 $649 reversed $286 $-1 #
coedge $-1 $447 $644 $643 $773 reversed $286 $-1 #
coedge $-1 $455 $450 $447 $647 forward $456 $-1 #
edge $-1 $650 10.751241846557861 $774 21.988296060283901 $646 $775 forward 7 unknown #
coedge $-1 $449 $448 $653 $776 reversed $178 $-1 #
edge $-1 $777 -80.05127109591966 $650 -64.68653812878722 $644 $778 forward 7 unknown #
vertex $-1 $451 $779 #
straight-curve $-1 28.788581334233786 4.2425069961333222 10.693561168747276 0 -1 0 I I #
coedge $-1 $643 $452 $455 $657 reversed $445 $-1 #
coedge $-1 $452 $643 $648 $776 forward $445 $-1 #
vertex $-1 $453 $780 #
straight-curve $-1 40.025635547959837 11.119474182219101 56.677733722620445 0 0 1 I I #
straight-curve $-1 -18.520157282074173 11.119474182219101 54.809674615206873 0.7313536940579346 0 -0.68199836817093118 I I #
edge $-1 $774 5.8505538023141881 $457 11.119474182219101 $652 $781 forward 7 unknown #
point $-1 40.025635547959837 11.119474182219101 10.693561168747271 #
point $-1 28.788581334233797 11.119474182219101 10.693561168747266 #
edge $-1 $782 1 $782 0 $460 $-1 forward 7 unknown #
vertex $-1 $461 $783 #
ellipse-curve $-1 32.202118447382752 8.4850139922666443 3.0896375406468453 0.68199836817093118 0 0.7313536940579346 0.7313536940579346 0 -0.68199836817093118 1 I I #
point $-1 35.138462135154739 8.4850139922666443 4.7722013950931075 #
plane-surface $-1 40.025635547959837 0 0 -1 0 0 0 0 1 forward_v I I I I #
coedge $-1 $469 $467 $471 $669 reversed $301 $-1 #
edge $-1 $482 -10.693561168747271 $671 10.693561168747271 $481 $784 forward 7 unknown #
vertex $-1 $669 $785 #
straight-curve $-1 -40.025635547959837 -26.2329337068931 0 0 0 -1 I I #
edge $-1 $667 -26.2329337068931 $671 26.2329337068931 $665 $786 forward 7 unknown #
straight-curve $-1 0 -26.2329337068931 -10.693561168747271 -1 0 0 I I #
vertex $-1 $474 $787 #
straight-curve $-1 0 26.2329337068931 -10.693561168747271 1 0 0 I I #
point $-1 40.025635547959837 26.2329337068931 -10.693561168747271 #
point $-1 40.025635547959837 -26.2329337068931 -10.693561168747271 #
straight-curve $-1 -40.025635547959837 0 10.693561168747271 0 -1 0 I I #
point $-1 -40.025635547959837 26.2329337068931 10.693561168747271 #
point $-1 -40.025635547959837 -26.2329337068931 10.693561168747271 #
straight-curve $-1 40.025635547959837 -26.2329337068931 0 0 0 -1 I I #
straight-curve $-1 40.025635547959837 26.2329337068931 0 0 0 -1 I I #
plane-surface $-1 40.025635547959837 0 0 -1 0 0 0 0 1 forward_v I I I I #
coedge $-1 $788 $684 $498 $689 forward $492 $-1 #
coedge $-1 $499 $494 $788 $789 forward $320 $-1 #
edge $-1 $508 -6.8449430540442791 $790 6.8449430540442791 $506 $791 forward 7 unknown #
coedge $-1 $681 $792 $495 $685 reversed $492 $-1 #
edge $-1 $692 -40.025635547959837 $687 40.025635547959837 $684 $793 forward 7 unknown #
coedge $-1 $506 $496 $792 $794 forward $507 $-1 #
vertex $-1 $497 $795 #
straight-curve $-1 40.025635547959837 -33.077876760937379 4.4794527303399638 0 1 0 I I #
edge $-1 $692 -2.5286044279784763 $690 2.5286044279784763 $498 $796 forward 7 unknown #
vertex $-1 $500 $797 #
straight-curve $-1 -40.025635547959837 -33.077876760937379 -0.57775612561698875 0 1 0 I I #
vertex $-1 $501 $798 #
straight-curve $-1 -40.025635547959837 -33.077876760937379 4.4794527303399638 0 -1 0 I I #
point $-1 -40.025635547959837 -26.2329337068931 -0.57775612561698875 #
straight-curve $-1 0 -26.2329337068931 -0.57775612561698875 -1 0 0 I I #
point $-1 40.025635547959837 -26.2329337068931 -0.57775612561698875 #
plane-surface $-1 -40.025635547959837 0 0 1 0 0 0 0 -1 forward_v I I I I #
coedge $-1 $799 $700 $518 $704 forward $513 $-1 #
coedge $-1 $515 $708 $799 $800 forward $334 $-1 #
coedge $-1 $698 $801 $516 $701 reversed $513 $-1 #
edge $-1 $702 -40.025635547959837 $713 40.025635547959837 $700 $802 forward 7 unknown #
vertex $-1 $517 $803 #
straight-curve $-1 40.025635547959837 33.077876760937379 4.4794527303399638 0 1 0 I I #
edge $-1 $702 -2.5286044279784763 $705 2.5286044279784763 $518 $804 forward 7 unknown #
vertex $-1 $519 $805 #
straight-curve $-1 40.025635547959837 33.077876760937379 -0.57775612561698875 0 -1 0 I I #
point $-1 40.025635547959837 26.2329337068931 -0.57775612561698875 #
coedge $-1 $699 $522 $525 $711 forward $334 $-1 #
straight-curve $-1 0 26.2329337068931 -0.57775612561698875 1 0 0 I I #
coedge $-1 $525 $524 $801 $806 forward $526 $-1 #
edge $-1 $527 -6.8449430540442791 $807 6.8449430540442791 $525 $808 forward 7 unknown #
point $-1 -40.025635547959837 26.2329337068931 -0.57775612561698875 #
vertex $-1 $701 $809 #
straight-curve $-1 -40.025635547959837 33.077876760937379 4.4794527303399638 0 -1 0 I I #
edge $-1 $716 18.686754425160146 $719 29.165477236126595 $533 $810 forward 7 unknown #
vertex $-1 $547 $811 #
straight-curve $-1 -47.310235902692945 -5.6045892828536203 10.693561168747273 -1 0 0 I I #
edge $-1 $719 1.4850645464505821 $544 6.7539849263554945 $543 $812 forward 7 unknown #
vertex $-1 $718 $813 #
straight-curve $-1 -40.025635547959844 -5.6045892828536203 0.21483835778081328 0.7313536940579346 0 0.68199836817093118 I I #
point $-1 -28.788581334233776 -5.6045892828536203 10.693561168747271 #
point $-1 -40.025635547959837 -10.873509662758533 0.21483835778081992 #
straight-curve $-1 -40.025635547959837 0 10.693561168747271 0 -1 0 I I #
vertex $-1 $550 $814 #
point $-1 -31.470764753324811 -8.2390494728060766 3.7716359088177764 #
coedge $-1 $565 $564 $557 $727 forward $554 $-1 #
edge $-1 $728 18.686754425160146 $731 29.165477236126595 $726 $815 forward 7 unknown #
vertex $-1 $569 $816 #
straight-curve $-1 -47.310235902692945 2.7574424496827419 10.693561168747273 -1 0 0 I I #
edge $-1 $731 -2.6959513198175991 $566 2.5729690600873134 $565 $817 forward 7 unknown #
vertex $-1 $730 $818 #
straight-curve $-1 -40.025635547959844 2.7574424496827419 0.21483835778081328 0.7313536940579346 0 0.68199836817093118 I I #
point $-1 -28.788581334233776 2.7574424496827419 10.693561168747271 #
point $-1 -40.025635547959837 -2.5114779302221706 0.21483835778081992 #
straight-curve $-1 -40.025635547959837 0 10.693561168747271 0 -1 0 I I #
vertex $-1 $572 $819 #
point $-1 -31.470764753324811 0.12298225973028565 3.7716359088177764 #
coedge $-1 $587 $586 $579 $739 forward $576 $-1 #
edge $-1 $740 18.686754425160146 $743 29.165477236126595 $738 $820 forward 7 unknown #
vertex $-1 $591 $821 #
straight-curve $-1 -47.310235902692945 11.119474182219101 10.693561168747273 -1 0 0 I I #
edge $-1 $743 -6.8769671860857784 $588 -1.6080468061808659 $587 $822 forward 7 unknown #
vertex $-1 $742 $823 #
straight-curve $-1 -40.025635547959844 11.119474182219101 0.21483835778081328 0.7313536940579346 0 0.68199836817093118 I I #
point $-1 -28.788581334233776 11.119474182219101 10.693561168747271 #
point $-1 -40.025635547959837 5.8505538023141881 0.21483835778081992 #
straight-curve $-1 -40.025635547959837 0 10.693561168747271 0 -1 0 I I #
vertex $-1 $594 $824 #
point $-1 -31.470764753324811 8.4850139922666443 3.7716359088177764 #
coedge $-1 $609 $608 $601 $751 forward $598 $-1 #
edge $-1 $752 45.984172553873172 $755 56.462895364839611 $750 $825 forward 7 unknown #
vertex $-1 $613 $826 #
straight-curve $-1 18.037339487675936 -10.873509662758533 10.693561168747273 1 0 0 I I #
edge $-1 $755 -6.7539849263554945 $610 -1.4850645464505821 $609 $827 forward 7 unknown #
vertex $-1 $754 $828 #
straight-curve $-1 -18.520157282074173 -10.873509662758533 54.809674615206873 -0.7313536940579346 0 0.68199836817093118 I I #
point $-1 28.788581334233797 -10.873509662758533 10.693561168747266 #
point $-1 40.025635547959837 -5.6045892828536203 0.2148383577808346 #
straight-curve $-1 40.025635547959837 0 10.693561168747271 0 1 0 I I #
vertex $-1 $616 $829 #
point $-1 32.933472141440681 -8.2390494728060766 2.4076391724759141 #
edge $-1 $763 45.984172553873172 $766 56.462895364839611 $621 $830 forward 7 unknown #
vertex $-1 $635 $831 #
straight-curve $-1 18.037339487675936 -2.5114779302221706 10.693561168747273 1 0 0 I I #
edge $-1 $766 -2.5729690600873134 $632 2.6959513198175991 $631 $832 forward 7 unknown #
vertex $-1 $765 $833 #
straight-curve $-1 -18.520157282074173 -2.5114779302221706 54.809674615206873 -0.7313536940579346 0 0.68199836817093118 I I #
point $-1 28.788581334233797 -2.5114779302221706 10.693561168747266 #
point $-1 40.025635547959837 2.7574424496827419 0.2148383577808346 #
straight-curve $-1 40.025635547959837 0 10.693561168747271 0 1 0 I I #
vertex $-1 $638 $834 #
point $-1 32.933472141440681 0.12298225973028565 2.4076391724759141 #
edge $-1 $774 45.984172553873172 $777 56.462895364839611 $643 $835 forward 7 unknown #
vertex $-1 $657 $836 #
straight-curve $-1 18.037339487675936 5.8505538023141881 10.693561168747273 1 0 0 I I #
edge $-1 $777 1.6080468061808659 $654 6.8769671860857784 $653 $837 forward 7 unknown #
vertex $-1 $776 $838 #
straight-curve $-1 -18.520157282074173 5.8505538023141881 54.809674615206873 -0.7313536940579346 0 0.68199836817093118 I I #
point $-1 28.788581334233797 5.8505538023141881 10.693561168747266 #
point $-1 40.025635547959837 11.119474182219101 0.2148383577808346 #
straight-curve $-1 40.025635547959837 0 10.693561168747271 0 1 0 I I #
vertex $-1 $660 $839 #
point $-1 32.933472141440681 8.4850139922666443 2.4076391724759141 #
straight-curve $-1 -40.025635547959837 26.2329337068931 0 0 0 -1 I I #
point $-1 -40.025635547959837 -26.2329337068931 -10.693561168747271 #
straight-curve $-1 -40.025635547959837 0 -10.693561168747271 0 1 0 I I #
point $-1 -40.025635547959837 26.2329337068931 -10.693561168747271 #
coedge $-1 $792 $681 $682 $789 reversed $492 $-1 #
edge $-1 $790 -40.025635547959837 $690 40.025635547959837 $788 $840 forward 7 unknown #
vertex $-1 $794 $841 #
straight-curve $-1 40.025635547959837 -33.077876760937379 -0.57775612561698875 0 -1 0 I I #
coedge $-1 $684 $788 $686 $794 reversed $492 $-1 #
straight-curve $-1 0 -39.922819814981658 4.4794527303399638 1 0 0 I I #
edge $-1 $687 -2.5286044279784763 $790 2.5286044279784763 $686 $842 forward 7 unknown #
point $-1 40.025635547959837 -39.922819814981658 4.4794527303399638 #
straight-curve $-1 -40.025635547959837 -39.922819814981658 1.9508483023614875 0 0 -1 I I #
point $-1 -40.025635547959837 -39.922819814981658 -0.57775612561698875 #
point $-1 -40.025635547959837 -39.922819814981658 4.4794527303399638 #
coedge $-1 $801 $698 $699 $800 reversed $513 $-1 #
edge $-1 $807 -40.025635547959837 $705 40.025635547959837 $799 $843 forward 7 unknown #
coedge $-1 $700 $799 $710 $806 reversed $513 $-1 #
straight-curve $-1 0 39.922819814981658 4.4794527303399638 -1 0 0 I I #
point $-1 40.025635547959837 39.922819814981658 4.4794527303399638 #
straight-curve $-1 40.025635547959837 39.922819814981658 1.9508483023614875 0 0 -1 I I #
point $-1 40.025635547959837 39.922819814981658 -0.57775612561698875 #
edge $-1 $713 -2.5286044279784763 $807 2.5286044279784763 $801 $844 forward 7 unknown #
vertex $-1 $800 $845 #
straight-curve $-1 -40.025635547959837 33.077876760937379 -0.57775612561698875 0 1 0 I I #
point $-1 -40.025635547959837 39.922819814981658 4.4794527303399638 #
straight-curve $-1 -40.025635547959837 -5.6045892828536203 29.380315593907415 0 0 -1 I I #
point $-1 -40.025635547959837 -5.6045892828536203 10.693561168747271 #
straight-curve $-1 -40.025635547959837 -4.1195247364030383 0.21483835778081814 0 -1 0 I I #
point $-1 -40.025635547959837 -5.6045892828536203 0.21483835778081992 #
point $-1 -31.520120079211814 -8.2390494728060766 2.3582838465889102 #
straight-curve $-1 -40.025635547959837 2.7574424496827419 29.380315593907415 0 0 -1 I I #
point $-1 -40.025635547959837 2.7574424496827419 10.693561168747271 #
straight-curve $-1 -40.025635547959837 0.061491129865142824 0.21483835778081814 0 -1 0 I I #
point $-1 -40.025635547959837 2.7574424496827419 0.21483835778081992 #
point $-1 -31.520120079211814 0.12298225973028565 2.3582838465889102 #
straight-curve $-1 -40.025635547959837 11.119474182219101 29.380315593907415 0 0 -1 I I #
point $-1 -40.025635547959837 11.119474182219101 10.693561168747271 #
straight-curve $-1 -40.025635547959837 4.2425069961333222 0.21483835778081814 0 -1 0 I I #
point $-1 -40.025635547959837 11.119474182219101 0.21483835778081992 #
point $-1 -31.520120079211814 8.4850139922666443 2.3582838465889102 #
straight-curve $-1 40.025635547959837 -10.873509662758533 56.677733722620445 0 0 -1 I I #
point $-1 40.025635547959837 -10.873509662758533 10.693561168747271 #
straight-curve $-1 40.025635547959837 -4.1195247364030383 0.21483835778083815 0 1 0 I I #
point $-1 40.025635547959837 -10.873509662758533 0.2148383577808346 #
point $-1 31.520120079211818 -8.2390494728060766 2.3582838465889102 #
straight-curve $-1 40.025635547959837 -2.5114779302221706 56.677733722620445 0 0 -1 I I #
point $-1 40.025635547959837 -2.5114779302221706 10.693561168747271 #
straight-curve $-1 40.025635547959837 0.061491129865142824 0.21483835778083815 0 1 0 I I #
point $-1 40.025635547959837 -2.5114779302221706 0.2148383577808346 #
point $-1 31.520120079211818 0.12298225973028565 2.3582838465889102 #
straight-curve $-1 40.025635547959837 5.8505538023141881 56.677733722620445 0 0 -1 I I #
point $-1 40.025635547959837 5.8505538023141881 10.693561168747271 #
straight-curve $-1 40.025635547959837 4.2425069961333222 0.21483835778083815 0 1 0 I I #
point $-1 40.025635547959837 5.8505538023141881 0.2148383577808346 #
point $-1 31.520120079211818 8.4850139922666443 2.3582838465889102 #
straight-curve $-1 0 -39.922819814981658 -0.57775612561698875 -1 0 0 I I #
point $-1 40.025635547959837 -39.922819814981658 -0.57775612561698875 #
straight-curve $-1 40.025635547959837 -39.922819814981658 1.9508483023614875 0 0 -1 I I #
straight-curve $-1 0 39.922819814981658 -0.57775612561698875 1 0 0 I I #
straight-curve $-1 -40.025635547959837 39.922819814981658 1.9508483023614875 0 0 -1 I I #
point $-1 -40.025635547959837 39.922819814981658 -0.57775612561698875 #
End-of-ACIS-data 