500 0 4 0           
7 Unknown 11 ACIS 5.0 NT 24 Fri Mar 26 14:42:33 1999 
-1 9.9999999999999995e-007 1e-010 
body $-1 $4 $-1 $5 #
body $-1 $6 $-1 $7 #
body $-1 $8 $-1 $9 #
body $-1 $10 $-1 $11 #
lump $-1 $-1 $12 $0 #
transform $-1 1 0 0 0 1 0 0 0 1 57.022003845332193 35.74773409194659 15.129865434960262 1 rotate no_reflect no_shear #
lump $-1 $-1 $13 $1 #
transform $-1 1 0 0 0 1 0 0 0 1 57.022003845332193 35.74773409194659 15.129865434960262 1 rotate no_reflect no_shear #
lump $-1 $-1 $14 $2 #
transform $-1 1 0 0 0 1 0 0 0 1 57.022003845332193 35.74773409194659 15.129865434960262 1 rotate no_reflect no_shear #
lump $-1 $-1 $15 $3 #
transform $-1 1 0 0 0 1 0 0 0 1 57.022003845332193 35.74773409194659 15.129865434960262 1 rotate no_reflect no_shear #
shell $-1 $-1 $-1 $16 $-1 $4 #
shell $-1 $-1 $-1 $17 $-1 $6 #
shell $-1 $-1 $-1 $18 $-1 $8 #
shell $-1 $-1 $-1 $19 $-1 $10 #
face $-1 $20 $21 $12 $-1 $22 forward single #
face $-1 $23 $24 $13 $-1 $25 reversed single #
face $-1 $26 $27 $14 $-1 $28 reversed single #
face $-1 $29 $30 $15 $-1 $31 forward single #
face $-1 $32 $33 $12 $-1 $34 reversed single #
loop $-1 $-1 $35 $16 #
plane-surface $-1 0 0 15.129865434960262 0 0 1 1 0 0 forward_v I I I I #
face $-1 $36 $37 $13 $-1 $38 reversed single #
loop $-1 $-1 $39 $17 #
plane-surface $-1 -53.308175277568012 -17.141892083083555 0 0 -1 0 0 0 -1 forward_v I I I I #
face $-1 $40 $41 $14 $-1 $42 reversed single #
loop $-1 $-1 $43 $18 #
plane-surface $-1 -27.834575856969494 77.154113008158049 133.40359970251026 -1 0 0 0 0.7660444514056185 0.64278759981090561 forward_v I I I I #
face $-1 $44 $45 $15 $-1 $46 forward single #
loop $-1 $47 $48 $19 #
cone-surface $-1 -42.428289851150844 28.602312865154119 7.6840224085767082 0 -0.7660444514056185 -0.64278759981090561 2.5 0 0 1 I I 0 1 2.5 forward I I I I #
face $-1 $49 $50 $12 $-1 $51 reversed single #
loop $-1 $-1 $52 $20 #
plane-surface $-1 0 0 -15.129865434960262 0 0 1 1 0 0 forward_v I I I I #
coedge $-1 $53 $54 $55 $56 forward $21 $-1 #
face $-1 $57 $58 $13 $-1 $59 forward single #
loop $-1 $-1 $60 $23 #
plane-surface $-1 -49.59434670980383 -26.444813087515072 0 -1 0 0 0 0 1 forward_v I I I I #
coedge $-1 $61 $62 $63 $64 forward $24 $-1 #
face $-1 $65 $66 $14 $-1 $67 reversed single #
loop $-1 $-1 $68 $26 #
plane-surface $-1 -42.428289851150844 -10.208666299335093 60.097525726211643 0 0.7660444514056185 0.64278759981090561 1 0 0 forward_v I I I I #
coedge $-1 $69 $70 $71 $72 reversed $27 $-1 #
face $-1 $-1 $73 $15 $-1 $74 forward single #
loop $-1 $75 $76 $29 #
cone-surface $-1 -42.428289851150844 24.611363181037383 4.3352180882629874 0 -0.7660444514056185 -0.64278759981090561 1.25 0 0 1 I I -0.70710678118654746 0.70710678118654746 1.25 forward I I I I #
loop $-1 $-1 $77 $19 #
coedge $-1 $48 $48 $78 $79 reversed $30 $-1 #
face $-1 $80 $81 $12 $-1 $82 reversed single #
loop $-1 $-1 $83 $32 #
plane-surface $-1 0 -35.74773409194659 0 0 1 0 0 0 1 forward_v I I I I #
coedge $-1 $84 $85 $86 $87 forward $33 $-1 #
coedge $-1 $88 $35 $89 $90 forward $21 $-1 #
coedge $-1 $35 $88 $91 $92 forward $21 $-1 #
coedge $-1 $93 $94 $35 $56 reversed $95 $-1 #
edge $-1 $96 -35.74773409194659 $97 35.74773409194659 $55 $98 forward 7 unknown #
face $-1 $99 $100 $13 $-1 $101 reversed single #
loop $-1 $-1 $102 $36 #
plane-surface $-1 0 0 15.129865434960262 0 0 1 1 0 0 forward_v I I I I #
coedge $-1 $103 $104 $105 $106 reversed $37 $-1 #
coedge $-1 $107 $39 $108 $109 reversed $24 $-1 #
coedge $-1 $39 $107 $110 $111 reversed $24 $-1 #
coedge $-1 $104 $103 $39 $64 reversed $37 $-1 #
edge $-1 $112 -15.129865434960262 $113 15.129865434960262 $63 $114 forward 7 unknown #
face $-1 $115 $116 $14 $-1 $117 reversed single #
loop $-1 $-1 $71 $40 #
plane-surface $-1 0 35.74773409194659 0 0 -1 0 0 0 -1 forward_v I I I I #
coedge $-1 $118 $119 $120 $121 reversed $41 $-1 #
coedge $-1 $70 $43 $122 $123 reversed $27 $-1 #
coedge $-1 $43 $69 $118 $124 reversed $27 $-1 #
coedge $-1 $120 $125 $43 $72 forward $66 $-1 #
edge $-1 $126 51.571934416294866 $127 61.372980827961811 $71 $128 forward 7 unknown #
loop $-1 $-1 $78 $44 #
plane-surface $-1 -42.428289851150844 -10.208666299335093 60.097525726211643 0 0.7660444514056185 0.64278759981090561 1 0 0 forward_v I I I I #
loop $-1 $-1 $129 $29 #
coedge $-1 $76 $76 $77 $130 reversed $45 $-1 #
coedge $-1 $77 $77 $76 $130 forward $47 $-1 #
coedge $-1 $78 $78 $48 $79 forward $73 $-1 #
edge $-1 $131 1.9399027808245752e-016 $131 6.2831853071796004 $78 $132 forward 7 unknown #
face $-1 $133 $134 $12 $-1 $135 reversed single #
loop $-1 $-1 $136 $49 #
plane-surface $-1 -57.022003845332193 0 0 1 0 0 0 0 -1 forward_v I I I I #
coedge $-1 $137 $91 $138 $139 forward $50 $-1 #
coedge $-1 $140 $52 $137 $141 forward $33 $-1 #
coedge $-1 $52 $140 $142 $143 forward $33 $-1 #
coedge $-1 $94 $93 $52 $87 reversed $95 $-1 #
edge $-1 $144 -35.74773409194659 $145 35.74773409194659 $86 $146 forward 7 unknown #
coedge $-1 $54 $53 $147 $148 forward $21 $-1 #
coedge $-1 $149 $150 $53 $90 reversed $134 $-1 #
edge $-1 $97 -57.022003845332193 $151 57.022003845332193 $89 $152 forward 7 unknown #
coedge $-1 $83 $153 $54 $92 reversed $50 $-1 #
edge $-1 $154 -57.022003845332193 $96 57.022003845332193 $91 $155 forward 7 unknown #
coedge $-1 $86 $55 $153 $156 forward $95 $-1 #
coedge $-1 $55 $86 $149 $157 reversed $95 $-1 #
loop $-1 $-1 $93 $133 #
vertex $-1 $56 $158 #
vertex $-1 $56 $159 #
straight-curve $-1 57.022003845332193 0 15.129865434960262 0 1 0 I I #
face $-1 $160 $161 $13 $-1 $162 reversed single #
loop $-1 $-1 $163 $57 #
plane-surface $-1 -57.022003845332193 0 0 1 0 0 0 0 -1 forward_v I I I I #
coedge $-1 $110 $164 $104 $165 forward $58 $-1 #
coedge $-1 $63 $60 $166 $167 reversed $37 $-1 #
coedge $-1 $60 $63 $102 $165 reversed $37 $-1 #
coedge $-1 $168 $169 $60 $106 forward $170 $-1 #
edge $-1 $171 -15.129865434960262 $172 15.129865434960262 $105 $173 forward 7 unknown #
coedge $-1 $62 $61 $163 $174 reversed $24 $-1 #
coedge $-1 $166 $175 $61 $109 forward $161 $-1 #
edge $-1 $176 -30.367916206548188 $113 -22.940259071019824 $108 $177 forward 7 unknown #
coedge $-1 $178 $102 $62 $111 forward $58 $-1 #
edge $-1 $112 22.940259071019824 $179 30.367916206548188 $110 $180 forward 7 unknown #
vertex $-1 $111 $181 #
vertex $-1 $109 $182 #
straight-curve $-1 -49.59434670980383 -17.141892083083555 0 0 0 -1 I I #
face $-1 $-1 $183 $14 $-1 $184 forward single #
loop $-1 $-1 $185 $65 #
plane-surface $-1 -57.022003845332193 0 0 1 0 0 0 0 -1 forward_v I I I I #
coedge $-1 $186 $68 $70 $124 forward $41 $-1 #
coedge $-1 $68 $186 $185 $187 reversed $41 $-1 #
coedge $-1 $188 $71 $68 $121 forward $66 $-1 #
edge $-1 $127 6.6204309313940719 $189 35.807858919756768 $120 $190 forward 7 unknown #
coedge $-1 $191 $192 $69 $123 forward $183 $-1 #
edge $-1 $193 -11.053376625997963 $126 -2.8293224121324343 $122 $194 forward 7 unknown #
edge $-1 $127 -71.495468183893223 $193 -58.701110893421422 $70 $195 forward 7 unknown #
coedge $-1 $71 $188 $191 $196 reversed $66 $-1 #
vertex $-1 $196 $197 #
vertex $-1 $72 $198 #
straight-curve $-1 -27.834575856969494 35.74773409194659 66.701799851255132 0 0 -1 I I #
coedge $-1 $129 $129 $-1 $199 reversed $75 $-1 #
edge $-1 $200 0 $200 6.2831853071796004 $76 $201 forward 7 unknown #
vertex $-1 $79 $202 #
ellipse-curve $-1 -42.428289851150844 31.635706985013826 10.229342229126791 0 0.7660444514056185 0.64278759981090561 2.5 0 0 1 I I #
face $-1 $-1 $95 $12 $-1 $203 reversed single #
loop $-1 $-1 $149 $80 #
plane-surface $-1 0 35.74773409194659 0 0 -1 0 0 0 -1 forward_v I I I I #
coedge $-1 $204 $147 $150 $205 forward $81 $-1 #
coedge $-1 $153 $83 $84 $141 reversed $50 $-1 #
coedge $-1 $147 $204 $83 $139 reversed $81 $-1 #
edge $-1 $154 -15.129865434960262 $206 15.129865434960262 $138 $207 forward 7 unknown #
coedge $-1 $85 $84 $204 $208 forward $33 $-1 #
edge $-1 $145 -57.022003845332193 $206 57.022003845332193 $137 $209 forward 7 unknown #
coedge $-1 $150 $149 $85 $143 reversed $134 $-1 #
edge $-1 $210 -57.022003845332193 $144 57.022003845332193 $142 $211 forward 7 unknown #
vertex $-1 $87 $212 #
vertex $-1 $156 $213 #
straight-curve $-1 57.022003845332193 0 -15.129865434960262 0 -1 0 I I #
coedge $-1 $136 $138 $88 $148 reversed $81 $-1 #
edge $-1 $151 -35.74773409194659 $154 35.74773409194659 $147 $214 forward 7 unknown #
coedge $-1 $142 $89 $94 $157 forward $134 $-1 #
coedge $-1 $89 $142 $136 $205 reversed $134 $-1 #
vertex $-1 $90 $215 #
straight-curve $-1 0 35.74773409194659 15.129865434960262 -1 0 0 I I #
coedge $-1 $91 $137 $93 $156 reversed $50 $-1 #
vertex $-1 $148 $216 #
straight-curve $-1 0 -35.74773409194659 15.129865434960262 1 0 0 I I #
edge $-1 $96 -15.129865434960262 $145 15.129865434960262 $93 $217 forward 7 unknown #
edge $-1 $97 -15.129865434960262 $144 15.129865434960262 $94 $218 forward 7 unknown #
point $-1 57.022003845332193 -35.74773409194659 15.129865434960262 #
point $-1 57.022003845332193 35.74773409194659 15.129865434960262 #
face $-1 $-1 $170 $13 $-1 $219 reversed single #
loop $-1 $-1 $166 $99 #
plane-surface $-1 0 0 -15.129865434960262 0 0 1 1 0 0 forward_v I I I I #
coedge $-1 $220 $221 $107 $174 forward $100 $-1 #
coedge $-1 $102 $178 $168 $222 forward $58 $-1 #
edge $-1 $172 -22.525327548189054 $112 -3.9194855393260184 $102 $223 forward 7 unknown #
coedge $-1 $224 $108 $103 $167 forward $161 $-1 #
edge $-1 $113 3.9194855393260184 $171 22.525327548189054 $166 $225 forward 7 unknown #
coedge $-1 $226 $105 $164 $222 reversed $170 $-1 #
coedge $-1 $105 $226 $224 $227 reversed $170 $-1 #
loop $-1 $-1 $105 $160 #
vertex $-1 $227 $228 #
vertex $-1 $106 $229 #
straight-curve $-1 -49.59434670980383 -35.74773409194659 0 0 0 1 I I #
edge $-1 $179 -15.129865434960262 $176 15.129865434960262 $163 $230 forward 7 unknown #
coedge $-1 $108 $224 $220 $231 forward $161 $-1 #
vertex $-1 $109 $232 #
straight-curve $-1 -26.654087638784006 -17.141892083083555 -15.129865434960262 1 0 0 I I #
coedge $-1 $164 $110 $221 $233 forward $58 $-1 #
vertex $-1 $233 $234 #
straight-curve $-1 -26.654087638784006 -17.141892083083555 15.129865434960262 -1 0 0 I I #
point $-1 -49.59434670980383 -17.141892083083555 15.129865434960262 #
point $-1 -49.59434670980383 -17.141892083083555 -15.129865434960262 #
loop $-1 $-1 $122 $115 #
plane-surface $-1 0 0 15.129865434960262 0 0 1 1 0 0 forward_v I I I I #
coedge $-1 $235 $236 $119 $187 forward $116 $-1 #
coedge $-1 $119 $118 $192 $237 reversed $41 $-1 #
edge $-1 $189 -45.195778067097741 $238 -32.401420776625947 $185 $239 forward 7 unknown #
coedge $-1 $125 $120 $236 $240 reversed $66 $-1 #
vertex $-1 $187 $241 #
straight-curve $-1 -21.214144925575422 35.74773409194659 5.3288190232933239 -1 0 0 I I #
coedge $-1 $242 $122 $125 $196 forward $183 $-1 #
coedge $-1 $122 $242 $186 $237 forward $183 $-1 #
vertex $-1 $123 $243 #
straight-curve $-1 -27.834575856969494 38.577056504079025 15.129865434960266 0 1 0 I I #
straight-curve $-1 -27.834575856969494 -10.208666299335093 60.097525726211643 0 -0.64278759981090561 0.7660444514056185 I I #
edge $-1 $126 27.834575856969494 $244 57.022003845332193 $125 $245 forward 7 unknown #
point $-1 -27.834575856969494 35.74773409194659 15.129865434960262 #
point $-1 -27.834575856969494 35.74773409194659 5.3288190232933204 #
edge $-1 $246 1 $246 0 $129 $-1 forward 7 unknown #
vertex $-1 $130 $247 #
ellipse-curve $-1 -42.428289851150844 25.568918745294408 5.1387025880266197 0 0.7660444514056185 0.64278759981090561 2.5 0 0 1 I I #
point $-1 -39.928289851150844 31.635706985013833 10.229342229126797 #
plane-surface $-1 57.022003845332193 0 0 -1 0 0 0 0 1 forward_v I I I I #
coedge $-1 $138 $136 $140 $208 reversed $81 $-1 #
edge $-1 $151 -15.129865434960262 $210 15.129865434960262 $150 $248 forward 7 unknown #
vertex $-1 $208 $249 #
straight-curve $-1 -57.022003845332193 -35.74773409194659 0 0 0 -1 I I #
edge $-1 $206 -35.74773409194659 $210 35.74773409194659 $204 $250 forward 7 unknown #
straight-curve $-1 0 -35.74773409194659 -15.129865434960262 -1 0 0 I I #
vertex $-1 $143 $251 #
straight-curve $-1 0 35.74773409194659 -15.129865434960262 1 0 0 I I #
point $-1 57.022003845332193 35.74773409194659 -15.129865434960262 #
point $-1 57.022003845332193 -35.74773409194659 -15.129865434960262 #
straight-curve $-1 -57.022003845332193 0 15.129865434960262 0 -1 0 I I #
point $-1 -57.022003845332193 35.74773409194659 15.129865434960262 #
point $-1 -57.022003845332193 -35.74773409194659 15.129865434960262 #
straight-curve $-1 57.022003845332193 -35.74773409194659 0 0 0 -1 I I #
straight-curve $-1 57.022003845332193 35.74773409194659 0 0 0 -1 I I #
plane-surface $-1 0 -35.74773409194659 0 0 1 0 0 0 1 forward_v I I I I #
coedge $-1 $252 $163 $175 $231 reversed $100 $-1 #
coedge $-1 $163 $252 $178 $233 reversed $100 $-1 #
edge $-1 $253 -57.022003845332193 $172 -49.59434670980383 $168 $254 forward 7 unknown #
straight-curve $-1 -49.59434670980383 -13.222406543757536 15.129865434960262 0 1 0 I I #
coedge $-1 $175 $166 $169 $227 forward $161 $-1 #
straight-curve $-1 -49.59434670980383 -13.222406543757536 -15.129865434960262 0 -1 0 I I #
coedge $-1 $169 $168 $252 $255 forward $170 $-1 #
edge $-1 $171 49.59434670980383 $256 57.022003845332193 $169 $257 forward 7 unknown #
point $-1 -49.59434670980383 -35.74773409194659 -15.129865434960262 #
point $-1 -49.59434670980383 -35.74773409194659 15.129865434960262 #
straight-curve $-1 -57.022003845332193 -17.141892083083555 0 0 0 -1 I I #
edge $-1 $256 -35.74773409194659 $176 -17.141892083083555 $220 $258 forward 7 unknown #
point $-1 -57.022003845332193 -17.141892083083555 -15.129865434960262 #
edge $-1 $179 17.141892083083555 $253 35.74773409194659 $221 $259 forward 7 unknown #
point $-1 -57.022003845332193 -17.141892083083555 15.129865434960262 #
coedge $-1 $236 $185 $242 $260 reversed $116 $-1 #
coedge $-1 $185 $235 $188 $240 forward $116 $-1 #
edge $-1 $238 -35.807858919756768 $193 -6.6204309313940719 $192 $261 forward 7 unknown #
vertex $-1 $187 $262 #
straight-curve $-1 -57.022003845332193 6.6964483866104612 39.950794038553298 0 -0.64278759981090572 0.76604445140561861 I I #
edge $-1 $244 -15.129865434960262 $189 -5.3288190232933248 $188 $263 forward 7 unknown #
point $-1 -57.022003845332193 35.74773409194659 5.3288190232933248 #
coedge $-1 $192 $191 $235 $260 forward $183 $-1 #
point $-1 -27.834575856969494 27.523679878081062 15.129865434960266 #
vertex $-1 $196 $264 #
straight-curve $-1 0 35.74773409194659 15.129865434960262 -1 0 0 I I #
vertex $-1 $199 $265 #
point $-1 -39.928289851150844 25.568918745294408 5.1387025880266197 #
straight-curve $-1 -57.022003845332193 35.74773409194659 0 0 0 -1 I I #
point $-1 -57.022003845332193 -35.74773409194659 -15.129865434960262 #
straight-curve $-1 -57.022003845332193 0 -15.129865434960262 0 1 0 I I #
point $-1 -57.022003845332193 35.74773409194659 -15.129865434960262 #
coedge $-1 $221 $220 $226 $255 reversed $100 $-1 #
vertex $-1 $233 $266 #
straight-curve $-1 0 -35.74773409194659 15.129865434960262 1 0 0 I I #
edge $-1 $253 -15.129865434960262 $256 15.129865434960262 $252 $267 forward 7 unknown #
vertex $-1 $231 $268 #
straight-curve $-1 0 -35.74773409194659 -15.129865434960262 -1 0 0 I I #
straight-curve $-1 -57.022003845332193 0 -15.129865434960262 0 1 0 I I #
straight-curve $-1 -57.022003845332193 0 15.129865434960262 0 -1 0 I I #
edge $-1 $244 -35.74773409194659 $238 -27.523679878081062 $235 $269 forward 7 unknown #
straight-curve $-1 -21.214144925575422 27.523679878081062 15.129865434960262 1 0 0 I I #
point $-1 -57.022003845332193 27.523679878081062 15.129865434960266 #
straight-curve $-1 -57.022003845332193 35.74773409194659 0 0 0 -1 I I #
point $-1 -57.022003845332193 35.74773409194659 15.129865434960262 #
point $-1 -42.428289851150844 23.653807616780359 3.5317335884993555 #
point $-1 -57.022003845332193 -35.74773409194659 15.129865434960262 #
straight-curve $-1 -57.022003845332193 -35.74773409194659 0 0 0 -1 I I #
point $-1 -57.022003845332193 -35.74773409194659 -15.129865434960262 #
straight-curve $-1 -57.022003845332193 0 15.129865434960262 0 -1 0 I I #
End-of-ACIS-data 