500 0 9 0           
7 Unknown 11 ACIS 5.0 NT 24 Thu Mar 25 23:32:51 1999 
-1 9.9999999999999995e-007 1e-010 
body $-1 $9 $-1 $10 #
body $-1 $11 $-1 $12 #
body $-1 $13 $-1 $14 #
body $-1 $15 $-1 $16 #
body $-1 $17 $-1 $18 #
body $-1 $19 $-1 $20 #
body $-1 $21 $-1 $22 #
body $-1 $23 $-1 $24 #
body $-1 $25 $-1 $26 #
lump $-1 $-1 $27 $0 #
transform $-1 1 0 0 0 1 0 0 0 1 40.67751091036714 20.543092693742071 7.9844525590121815 1 rotate no_reflect no_shear #
lump $-1 $-1 $28 $1 #
transform $-1 1 0 0 0 1 0 0 0 1 40.67751091036714 20.543092693742071 7.9844525590121815 1 rotate no_reflect no_shear #
lump $-1 $-1 $29 $2 #
transform $-1 1 0 0 0 1 0 0 0 1 40.67751091036714 20.543092693742071 7.9844525590121815 1 rotate no_reflect no_shear #
lump $-1 $-1 $30 $3 #
transform $-1 1 0 0 0 1 0 0 0 1 40.67751091036714 20.543092693742071 7.9844525590121815 1 rotate no_reflect no_shear #
lump $-1 $-1 $31 $4 #
transform $-1 1 0 0 0 1 0 0 0 1 40.67751091036714 20.543092693742071 7.9844525590121815 1 rotate no_reflect no_shear #
lump $-1 $-1 $32 $5 #
transform $-1 1 0 0 0 1 0 0 0 1 40.67751091036714 20.543092693742071 7.9844525590121815 1 rotate no_reflect no_shear #
lump $-1 $-1 $33 $6 #
transform $-1 1 0 0 0 1 0 0 0 1 40.67751091036714 20.543092693742071 7.9844525590121815 1 rotate no_reflect no_shear #
lump $-1 $-1 $34 $7 #
transform $-1 1 0 0 0 1 0 0 0 1 40.67751091036714 20.543092693742071 7.9844525590121815 1 rotate no_reflect no_shear #
lump $-1 $-1 $35 $8 #
transform $-1 1 0 0 0 1 0 0 0 1 40.67751091036714 20.543092693742071 7.9844525590121815 1 rotate no_reflect no_shear #
shell $-1 $-1 $-1 $36 $-1 $9 #
shell $-1 $-1 $-1 $37 $-1 $11 #
shell $-1 $-1 $-1 $38 $-1 $13 #
shell $-1 $-1 $-1 $39 $-1 $15 #
shell $-1 $-1 $-1 $40 $-1 $17 #
shell $-1 $-1 $-1 $41 $-1 $19 #
shell $-1 $-1 $-1 $42 $-1 $21 #
shell $-1 $-1 $-1 $43 $-1 $23 #
shell $-1 $-1 $-1 $44 $-1 $25 #
face $-1 $45 $46 $27 $-1 $47 forward single #
face $-1 $48 $49 $28 $-1 $50 forward single #
face $-1 $51 $52 $29 $-1 $53 reversed single #
face $-1 $54 $55 $30 $-1 $56 forward single #
face $-1 $57 $58 $31 $-1 $59 forward single #
face $-1 $60 $61 $32 $-1 $62 forward single #
face $-1 $63 $64 $33 $-1 $65 reversed single #
face $-1 $66 $67 $34 $-1 $68 forward single #
face $-1 $69 $70 $35 $-1 $71 forward single #
face $-1 $72 $73 $27 $-1 $74 reversed single #
loop $-1 $-1 $75 $36 #
plane-surface $-1 0 0 7.9844525590121815 0 0 1 1 0 0 forward_v I I I I #
face $-1 $76 $77 $28 $-1 $78 reversed single #
loop $-1 $-1 $79 $37 #
plane-surface $-1 -35.770672863882893 0 -0.13323425914876275 0 0 1 1 0 0 forward_v I I I I #
face $-1 $80 $81 $29 $-1 $82 reversed single #
loop $-1 $-1 $83 $38 #
plane-surface $-1 -14.94496542073772 -86.360688590251598 48.594322639004069 1 0 0 0 0.80901700255871778 -0.5877852410284794 forward_v I I I I #
face $-1 $84 $85 $30 $-1 $86 forward single #
loop $-1 $87 $88 $39 #
cone-surface $-1 -11.714546270010224 -16.989567640651906 3.7007543670116312 0 0.80901700255871778 -0.5877852410284794 1 0 0 1 I I 0 1 1 forward I I I I #
face $-1 $89 $90 $31 $-1 $91 forward single #
loop $-1 $92 $93 $40 #
cone-surface $-1 -6.8689175439189896 -16.989567640651906 3.7007543670116312 0 0.80901700255871778 -0.5877852410284794 1 0 0 1 I I 0 1 1 forward I I I I #
face $-1 $94 $95 $32 $-1 $96 forward single #
loop $-1 $97 $98 $41 #
cone-surface $-1 -2.0232888178277548 -16.989567640651906 3.7007543670116312 0 0.80901700255871778 -0.5877852410284794 1 0 0 1 I I 0 1 1 forward I I I I #
face $-1 $99 $100 $33 $-1 $101 reversed single #
loop $-1 $-1 $102 $42 #
plane-surface $-1 -6.3950088803598462 27.226292618340477 90.968830896664073 1 0 0 0 -0.51503808176128008 -0.85716729658548041 forward_v I I I I #
face $-1 $103 $104 $34 $-1 $105 forward single #
loop $-1 $106 $107 $43 #
cone-surface $-1 -3.7789365987652843 13.613483293941378 3.4525788659098513 0 -0.51503808176128008 -0.85716729658548041 0.5 0 0 1 I I 0 1 0.5 forward I I I I #
face $-1 $108 $109 $35 $-1 $110 forward single #
loop $-1 $111 $112 $44 #
cone-surface $-1 0.1451718236265549 13.613483293941378 3.4525788659098513 0 -0.51503808176128008 -0.85716729658548041 0.5 0 0 1 I I 0 1 0.5 forward I I I I #
face $-1 $113 $114 $27 $-1 $115 reversed single #
loop $-1 $-1 $116 $45 #
plane-surface $-1 0 0 -7.9844525590121815 0 0 1 1 0 0 forward_v I I I I #
coedge $-1 $117 $118 $119 $120 forward $46 $-1 #
face $-1 $121 $122 $28 $-1 $123 reversed single #
loop $-1 $-1 $124 $48 #
plane-surface $-1 -35.770672863882893 0 -3.1332342591487627 0 0 1 1 0 0 forward_v I I I I #
coedge $-1 $125 $126 $127 $128 forward $49 $-1 #
face $-1 $129 $130 $29 $-1 $131 reversed single #
loop $-1 $-1 $132 $51 #
plane-surface $-1 -6.8689175439189896 -20.543092693742068 0.77504152922656289 0 -0.80901700255871778 0.5877852410284794 1 0 0 forward_v I I I I #
coedge $-1 $133 $134 $135 $136 reversed $52 $-1 #
face $-1 $-1 $137 $30 $-1 $138 forward single #
loop $-1 $139 $140 $54 #
cone-surface $-1 -11.714546270010224 -15.650505867106201 2.7278690693896461 0 0.80901700255871778 -0.5877852410284794 0.5 0 0 1 I I -0.70710678118654746 0.70710678118654746 0.5 forward I I I I #
loop $-1 $-1 $141 $39 #
coedge $-1 $88 $88 $142 $143 reversed $55 $-1 #
face $-1 $-1 $144 $31 $-1 $145 forward single #
loop $-1 $146 $147 $57 #
cone-surface $-1 -6.8689175439189896 -15.650505867106201 2.7278690693896461 0 0.80901700255871778 -0.5877852410284794 0.5 0 0 1 I I -0.70710678118654746 0.70710678118654746 0.5 forward I I I I #
loop $-1 $-1 $148 $40 #
coedge $-1 $93 $93 $149 $150 reversed $58 $-1 #
face $-1 $-1 $151 $32 $-1 $152 forward single #
loop $-1 $153 $154 $60 #
cone-surface $-1 -2.0232888178277548 -15.650505867106201 2.7278690693896461 0 0.80901700255871778 -0.5877852410284794 0.5 0 0 1 I I -0.70710678118654746 0.70710678118654746 0.5 forward I I I I #
loop $-1 $-1 $155 $41 #
coedge $-1 $98 $98 $156 $157 reversed $61 $-1 #
face $-1 $158 $159 $33 $-1 $160 reversed single #
loop $-1 $-1 $161 $63 #
plane-surface $-1 -1.8168823875693647 -14.67464176185759 21.233966778932498 0 0.51503808176128008 0.85716729658548041 1 0 0 forward_v I I I I #
coedge $-1 $162 $163 $164 $165 reversed $64 $-1 #
face $-1 $-1 $166 $34 $-1 $167 forward single #
loop $-1 $168 $169 $66 #
cone-surface $-1 -3.7789365987652843 13.138534467453152 2.6621312931300682 0 -0.51503808176128008 -0.85716729658548041 0.25 0 0 1 I I -0.70710678118654746 0.70710678118654746 0.25 forward I I I I #
loop $-1 $-1 $170 $43 #
coedge $-1 $107 $107 $171 $172 reversed $67 $-1 #
face $-1 $-1 $173 $35 $-1 $174 forward single #
loop $-1 $175 $176 $69 #
cone-surface $-1 0.1451718236265549 13.138534467453152 2.6621312931300682 0 -0.51503808176128008 -0.85716729658548041 0.25 0 0 1 I I -0.70710678118654746 0.70710678118654746 0.25 forward I I I I #
loop $-1 $-1 $177 $44 #
coedge $-1 $112 $112 $178 $179 reversed $70 $-1 #
face $-1 $180 $181 $27 $-1 $182 reversed single #
loop $-1 $-1 $183 $72 #
plane-surface $-1 0 -20.543092693742071 0 0 1 0 0 0 1 forward_v I I I I #
coedge $-1 $184 $185 $186 $187 forward $73 $-1 #
coedge $-1 $188 $75 $189 $190 forward $46 $-1 #
coedge $-1 $75 $188 $191 $192 forward $46 $-1 #
coedge $-1 $193 $194 $75 $120 reversed $195 $-1 #
edge $-1 $196 -20.543092693742071 $197 20.543092693742071 $119 $198 forward 7 unknown #
face $-1 $199 $200 $28 $-1 $201 reversed single #
loop $-1 $-1 $202 $76 #
plane-surface $-1 -30.863834817398651 0 -1.6332342591487627 -1 0 0 0 0 1 forward_v I I I I #
coedge $-1 $203 $204 $205 $206 forward $77 $-1 #
coedge $-1 $207 $79 $208 $209 reversed $49 $-1 #
coedge $-1 $79 $207 $210 $211 reversed $49 $-1 #
coedge $-1 $202 $212 $79 $128 reversed $122 $-1 #
edge $-1 $213 -20.543092693742071 $214 20.543092693742071 $127 $215 forward 7 unknown #
face $-1 $216 $217 $29 $-1 $218 forward single #
loop $-1 $-1 $219 $80 #
plane-surface $-1 1.2071303328997409 -86.360688590251598 48.594322639004069 -1 0 0 0 -0.80901700255871778 0.5877852410284794 forward_v I I I I #
coedge $-1 $220 $221 $222 $223 reversed $81 $-1 #
coedge $-1 $134 $83 $224 $225 reversed $52 $-1 #
coedge $-1 $83 $133 $220 $226 reversed $52 $-1 #
coedge $-1 $222 $227 $83 $136 forward $228 $-1 #
edge $-1 $229 16.312708760489855 $230 23.522119790275475 $135 $231 forward 7 unknown #
loop $-1 $-1 $142 $84 #
plane-surface $-1 -6.8689175439189896 -20.543092693742068 0.77504152922656289 0 -0.80901700255871778 0.5877852410284794 1 0 0 forward_v I I I I #
loop $-1 $-1 $232 $54 #
coedge $-1 $140 $140 $141 $233 reversed $85 $-1 #
coedge $-1 $141 $141 $140 $233 forward $87 $-1 #
coedge $-1 $142 $142 $88 $143 forward $137 $-1 #
edge $-1 $234 2.223075991059877e-015 $234 6.2831853071796031 $142 $235 forward 7 unknown #
loop $-1 $-1 $149 $89 #
plane-surface $-1 -6.8689175439189896 -20.543092693742068 0.77504152922656289 0 -0.80901700255871778 0.5877852410284794 1 0 0 forward_v I I I I #
loop $-1 $-1 $236 $57 #
coedge $-1 $147 $147 $148 $237 reversed $90 $-1 #
coedge $-1 $148 $148 $147 $237 forward $92 $-1 #
coedge $-1 $149 $149 $93 $150 forward $144 $-1 #
edge $-1 $238 2.223075991059877e-015 $238 6.2831853071796031 $149 $239 forward 7 unknown #
loop $-1 $-1 $156 $94 #
plane-surface $-1 -6.8689175439189896 -20.543092693742068 0.77504152922656289 0 -0.80901700255871778 0.5877852410284794 1 0 0 forward_v I I I I #
loop $-1 $-1 $240 $60 #
coedge $-1 $154 $154 $155 $241 reversed $95 $-1 #
coedge $-1 $155 $155 $154 $241 forward $97 $-1 #
coedge $-1 $156 $156 $98 $157 forward $151 $-1 #
edge $-1 $242 2.223075991059877e-015 $242 6.2831853071796031 $156 $243 forward 7 unknown #
face $-1 $244 $245 $33 $-1 $246 reversed single #
loop $-1 $-1 $247 $99 #
plane-surface $-1 2.7612441052211167 27.226292618340477 90.968830896664073 -1 0 0 0 0.51503808176128008 0.85716729658548041 forward_v I I I I #
coedge $-1 $248 $249 $250 $251 reversed $100 $-1 #
coedge $-1 $163 $102 $252 $253 reversed $64 $-1 #
coedge $-1 $102 $162 $248 $254 reversed $64 $-1 #
coedge $-1 $250 $255 $102 $165 forward $256 $-1 #
edge $-1 $257 -6.9299463845718332 $258 6.2368938029337553 $164 $259 forward 7 unknown #
loop $-1 $-1 $171 $103 #
plane-surface $-1 -1.8168823875693647 -14.67464176185759 21.233966778932498 0 0.51503808176128008 0.85716729658548041 1 0 0 forward_v I I I I #
loop $-1 $-1 $260 $66 #
coedge $-1 $169 $169 $170 $261 reversed $104 $-1 #
coedge $-1 $170 $170 $169 $261 forward $106 $-1 #
coedge $-1 $171 $171 $107 $172 forward $166 $-1 #
edge $-1 $262 -6.2739994883656428e-016 $262 6.2831853071795996 $171 $263 forward 7 unknown #
loop $-1 $-1 $178 $108 #
plane-surface $-1 -1.8168823875693647 -14.67464176185759 21.233966778932498 0 0.51503808176128008 0.85716729658548041 1 0 0 forward_v I I I I #
loop $-1 $-1 $264 $69 #
coedge $-1 $176 $176 $177 $265 reversed $109 $-1 #
coedge $-1 $177 $177 $176 $265 forward $111 $-1 #
coedge $-1 $178 $178 $112 $179 forward $173 $-1 #
edge $-1 $266 -6.2739994883656428e-016 $266 6.2831853071795996 $178 $267 forward 7 unknown #
face $-1 $268 $269 $27 $-1 $270 reversed single #
loop $-1 $-1 $271 $113 #
plane-surface $-1 -40.67751091036714 0 0 1 0 0 0 0 -1 forward_v I I I I #
coedge $-1 $272 $191 $273 $274 forward $114 $-1 #
coedge $-1 $275 $116 $272 $276 forward $73 $-1 #
coedge $-1 $116 $275 $277 $278 forward $73 $-1 #
coedge $-1 $194 $193 $116 $187 reversed $195 $-1 #
edge $-1 $279 -20.543092693742071 $280 20.543092693742071 $186 $281 forward 7 unknown #
coedge $-1 $118 $117 $282 $283 forward $46 $-1 #
coedge $-1 $284 $285 $117 $190 reversed $269 $-1 #
edge $-1 $197 -40.67751091036714 $286 40.67751091036714 $189 $287 forward 7 unknown #
coedge $-1 $183 $288 $118 $192 reversed $114 $-1 #
edge $-1 $289 -40.67751091036714 $196 40.67751091036714 $191 $290 forward 7 unknown #
coedge $-1 $186 $119 $288 $291 forward $195 $-1 #
coedge $-1 $119 $186 $284 $292 reversed $195 $-1 #
loop $-1 $-1 $193 $268 #
vertex $-1 $120 $293 #
vertex $-1 $120 $294 #
straight-curve $-1 40.67751091036714 0 7.9844525590121815 0 1 0 I I #
face $-1 $295 $296 $28 $-1 $297 reversed single #
loop $-1 $-1 $298 $121 #
plane-surface $-1 0 -20.543092693742071 0 0 1 0 0 0 1 forward_v I I I I #
coedge $-1 $205 $127 $299 $300 reversed $122 $-1 #
coedge $-1 $301 $124 $298 $302 reversed $77 $-1 #
coedge $-1 $124 $301 $303 $304 reversed $77 $-1 #
coedge $-1 $212 $202 $124 $206 reversed $122 $-1 #
edge $-1 $305 -20.543092693742071 $306 20.543092693742071 $205 $307 forward 7 unknown #
coedge $-1 $126 $125 $308 $309 reversed $49 $-1 #
coedge $-1 $310 $311 $125 $209 forward $312 $-1 #
edge $-1 $313 -22.792174478425686 $214 -12.978498385457204 $208 $314 forward 7 unknown #
coedge $-1 $315 $299 $126 $211 forward $200 $-1 #
edge $-1 $213 12.978498385457204 $316 22.792174478425686 $210 $317 forward 7 unknown #
coedge $-1 $127 $205 $310 $318 reversed $122 $-1 #
vertex $-1 $211 $319 #
vertex $-1 $209 $320 #
straight-curve $-1 -30.863834817398651 0 -0.13323425914876275 0 1 0 I I #
face $-1 $-1 $228 $29 $-1 $321 reversed single #
loop $-1 $-1 $322 $129 #
plane-surface $-1 0 0 7.9844525590121815 0 0 1 1 0 0 forward_v I I I I #
coedge $-1 $323 $324 $325 $326 reversed $130 $-1 #
coedge $-1 $327 $132 $134 $226 forward $81 $-1 #
coedge $-1 $132 $327 $323 $328 forward $81 $-1 #
coedge $-1 $325 $135 $132 $223 forward $228 $-1 #
edge $-1 $230 -11.510506648778225 $329 4.6415891048592357 $222 $330 forward 7 unknown #
coedge $-1 $331 $332 $133 $225 forward $217 $-1 #
edge $-1 $333 -27.875195163031382 $229 -22.637251601383728 $224 $334 forward 7 unknown #
edge $-1 $230 -6.040265601636166e-015 $333 8.9113220204075567 $134 $335 forward 7 unknown #
coedge $-1 $135 $325 $331 $336 reversed $228 $-1 #
loop $-1 $-1 $325 $216 #
vertex $-1 $336 $337 #
vertex $-1 $136 $338 #
straight-curve $-1 -14.94496542073772 -20.543092693742075 24.297161319502035 0 0 -1 I I #
coedge $-1 $232 $232 $-1 $339 reversed $139 $-1 #
edge $-1 $340 0 $340 6.2831853071796004 $140 $341 forward 7 unknown #
vertex $-1 $143 $342 #
ellipse-curve $-1 -11.714546270010224 -17.924120912918244 4.3797470441193713 0 -0.80901700255871778 0.5877852410284794 1 0 0 1 I I #
coedge $-1 $236 $236 $-1 $343 reversed $146 $-1 #
edge $-1 $344 0 $344 6.2831853071796004 $147 $345 forward 7 unknown #
vertex $-1 $150 $346 #
ellipse-curve $-1 -6.8689175439189896 -17.924120912918244 4.3797470441193713 0 -0.80901700255871778 0.5877852410284794 1 0 0 1 I I #
coedge $-1 $240 $240 $-1 $347 reversed $153 $-1 #
edge $-1 $348 0 $348 6.2831853071796004 $154 $349 forward 7 unknown #
vertex $-1 $157 $350 #
ellipse-curve $-1 -2.0232888178277548 -17.924120912918244 4.3797470441193713 0 -0.80901700255871778 0.5877852410284794 1 0 0 1 I I #
face $-1 $-1 $256 $33 $-1 $351 forward single #
loop $-1 $-1 $352 $158 #
plane-surface $-1 0 20.543092693742071 0 0 -1 0 0 0 -1 forward_v I I I I #
coedge $-1 $353 $354 $355 $356 reversed $159 $-1 #
coedge $-1 $357 $161 $163 $254 forward $100 $-1 #
coedge $-1 $161 $357 $353 $358 forward $100 $-1 #
coedge $-1 $355 $164 $161 $251 forward $256 $-1 #
edge $-1 $258 -5.4865676865751638 $359 3.6696852990057991 $250 $360 forward 7 unknown #
coedge $-1 $361 $362 $162 $253 forward $245 $-1 #
edge $-1 $363 -45.41139877825772 $257 -37.499962889319853 $252 $364 forward 7 unknown #
edge $-1 $258 25.725309815171023 $363 41.08618538748415 $163 $365 forward 7 unknown #
coedge $-1 $164 $355 $361 $366 forward $256 $-1 #
loop $-1 $-1 $355 $244 #
vertex $-1 $253 $367 #
vertex $-1 $165 $368 #
straight-curve $-1 -6.3950088803598462 13.613146309170238 7.9844525590121833 0 -1 0 I I #
coedge $-1 $260 $260 $-1 $369 reversed $168 $-1 #
edge $-1 $370 0 $370 6.2831853071796004 $169 $371 forward 7 unknown #
vertex $-1 $172 $372 #
ellipse-curve $-1 -3.7789365987652843 13.959672599989277 4.0287346145432528 0 0.51503808176128008 0.85716729658548041 0.5 0 0 1 I I #
coedge $-1 $264 $264 $-1 $373 reversed $175 $-1 #
edge $-1 $374 0 $374 6.2831853071796004 $176 $375 forward 7 unknown #
vertex $-1 $179 $376 #
ellipse-curve $-1 0.1451718236265549 13.959672599989277 4.0287346145432528 0 0.51503808176128008 0.85716729658548041 0.5 0 0 1 I I #
face $-1 $-1 $195 $27 $-1 $377 reversed single #
loop $-1 $-1 $284 $180 #
plane-surface $-1 0 20.543092693742071 0 0 -1 0 0 0 -1 forward_v I I I I #
coedge $-1 $378 $282 $285 $379 forward $181 $-1 #
coedge $-1 $288 $183 $184 $276 reversed $114 $-1 #
coedge $-1 $282 $378 $183 $274 reversed $181 $-1 #
edge $-1 $289 -7.9844525590121815 $380 7.9844525590121815 $273 $381 forward 7 unknown #
coedge $-1 $185 $184 $378 $382 forward $73 $-1 #
edge $-1 $280 -40.67751091036714 $380 40.67751091036714 $272 $383 forward 7 unknown #
coedge $-1 $285 $284 $185 $278 reversed $269 $-1 #
edge $-1 $384 -40.67751091036714 $279 40.67751091036714 $277 $385 forward 7 unknown #
vertex $-1 $187 $386 #
vertex $-1 $291 $387 #
straight-curve $-1 40.67751091036714 0 -7.9844525590121815 0 -1 0 I I #
coedge $-1 $271 $273 $188 $283 reversed $181 $-1 #
edge $-1 $286 -20.543092693742071 $289 20.543092693742071 $282 $388 forward 7 unknown #
coedge $-1 $277 $189 $194 $292 forward $269 $-1 #
coedge $-1 $189 $277 $271 $379 reversed $269 $-1 #
vertex $-1 $190 $389 #
straight-curve $-1 0 20.543092693742071 7.9844525590121815 -1 0 0 I I #
coedge $-1 $191 $272 $193 $291 reversed $114 $-1 #
vertex $-1 $283 $390 #
straight-curve $-1 0 -20.543092693742071 7.9844525590121815 1 0 0 I I #
edge $-1 $196 -7.9844525590121815 $280 7.9844525590121815 $193 $391 forward 7 unknown #
edge $-1 $197 -7.9844525590121815 $279 7.9844525590121815 $194 $392 forward 7 unknown #
point $-1 40.67751091036714 -20.543092693742071 7.9844525590121815 #
point $-1 40.67751091036714 20.543092693742071 7.9844525590121815 #
face $-1 $-1 $312 $28 $-1 $393 reversed single #
loop $-1 $-1 $394 $199 #
plane-surface $-1 -40.67751091036714 0 0 1 0 0 0 0 -1 forward_v I I I I #
coedge $-1 $299 $315 $203 $302 forward $200 $-1 #
coedge $-1 $210 $298 $202 $300 forward $200 $-1 #
edge $-1 $306 -2.3166171295743814 $213 0.68338287042561863 $299 $395 forward 7 unknown #
coedge $-1 $204 $203 $394 $396 reversed $77 $-1 #
edge $-1 $397 -22.792174478425686 $306 -12.978498385457204 $298 $398 forward 7 unknown #
coedge $-1 $311 $310 $204 $304 forward $312 $-1 #
edge $-1 $305 12.978498385457204 $399 22.792174478425686 $303 $400 forward 7 unknown #
vertex $-1 $304 $401 #
vertex $-1 $302 $402 #
straight-curve $-1 -30.863834817398651 0 -3.1332342591487627 0 -1 0 I I #
coedge $-1 $403 $404 $207 $309 forward $296 $-1 #
edge $-1 $316 -20.543092693742071 $313 20.543092693742071 $308 $405 forward 7 unknown #
coedge $-1 $303 $208 $212 $318 forward $312 $-1 #
coedge $-1 $208 $303 $403 $406 reversed $312 $-1 #
loop $-1 $-1 $303 $295 #
vertex $-1 $406 $407 #
straight-curve $-1 -17.885336431941447 20.543092693742071 -0.13323425914876275 1 0 0 I I #
coedge $-1 $298 $210 $404 $408 forward $200 $-1 #
vertex $-1 $408 $409 #
straight-curve $-1 -17.885336431941447 -20.543092693742071 -0.13323425914876275 -1 0 0 I I #
edge $-1 $214 -0.68338287042561863 $305 2.3166171295743814 $310 $410 forward 7 unknown #
point $-1 -30.863834817398651 -20.543092693742071 -0.13323425914876275 #
point $-1 -30.863834817398651 20.543092693742071 -0.13323425914876275 #
plane-surface $-1 0 -20.543092693742071 0 0 1 0 0 0 1 forward_v I I I I #
coedge $-1 $332 $331 $324 $411 forward $217 $-1 #
coedge $-1 $324 $219 $221 $328 reversed $130 $-1 #
coedge $-1 $219 $323 $322 $411 reversed $130 $-1 #
coedge $-1 $227 $222 $219 $326 forward $228 $-1 #
edge $-1 $329 -23.522119790275475 $412 -16.312708760489855 $325 $413 forward 7 unknown #
coedge $-1 $221 $220 $332 $414 reversed $81 $-1 #
edge $-1 $415 -8.9113220204075567 $329 6.040265601636166e-015 $323 $416 forward 7 unknown #
vertex $-1 $223 $417 #
straight-curve $-1 -3.4344587719594948 -20.543092693742071 0.775041529226556 1 0 0 I I #
coedge $-1 $322 $224 $227 $336 forward $217 $-1 #
coedge $-1 $224 $322 $327 $414 forward $217 $-1 #
vertex $-1 $225 $418 #
straight-curve $-1 -14.94496542073772 -43.180344295125799 7.9844525590121798 0 -1 0 I I #
straight-curve $-1 -14.94496542073772 -20.543092693742068 0.77504152922656289 0 0.5877852410284794 0.80901700255871778 I I #
edge $-1 $229 -14.94496542073772 $412 1.2071303328997409 $227 $419 forward 7 unknown #
point $-1 -14.94496542073772 -20.543092693742071 7.9844525590121815 #
point $-1 -14.94496542073772 -20.543092693742071 0.775041529226558 #
edge $-1 $420 1 $420 0 $232 $-1 forward 7 unknown #
vertex $-1 $233 $421 #
ellipse-curve $-1 -11.714546270010224 -16.05501436838556 3.0217616899038857 0 -0.80901700255871778 0.5877852410284794 1 0 0 1 I I #
point $-1 -10.714546270010224 -17.924120912918248 4.3797470441193767 #
edge $-1 $422 1 $422 0 $236 $-1 forward 7 unknown #
vertex $-1 $237 $423 #
ellipse-curve $-1 -6.8689175439189896 -16.05501436838556 3.0217616899038857 0 -0.80901700255871778 0.5877852410284794 1 0 0 1 I I #
point $-1 -5.8689175439189896 -17.924120912918248 4.3797470441193767 #
edge $-1 $424 1 $424 0 $240 $-1 forward 7 unknown #
vertex $-1 $241 $425 #
ellipse-curve $-1 -2.0232888178277548 -16.05501436838556 3.0217616899038857 0 -0.80901700255871778 0.5877852410284794 1 0 0 1 I I #
point $-1 -1.0232888178277548 -17.924120912918248 4.3797470441193767 #
plane-surface $-1 0 0 7.9844525590121815 0 0 1 1 0 0 forward_v I I I I #
coedge $-1 $362 $361 $354 $426 forward $245 $-1 #
coedge $-1 $354 $247 $249 $358 reversed $159 $-1 #
coedge $-1 $247 $353 $352 $426 reversed $159 $-1 #
coedge $-1 $255 $250 $247 $356 forward $256 $-1 #
edge $-1 $359 -6.2368938029337553 $427 6.9299463845718332 $355 $428 forward 7 unknown #
coedge $-1 $249 $248 $362 $429 reversed $100 $-1 #
edge $-1 $430 -41.08618538748415 $359 -25.725309815171023 $353 $431 forward 7 unknown #
vertex $-1 $251 $432 #
straight-curve $-1 -0.90844119378468235 7.3762525062364839 7.9844525590121833 1 0 0 I I #
coedge $-1 $352 $252 $255 $366 reversed $245 $-1 #
coedge $-1 $252 $352 $357 $429 forward $245 $-1 #
vertex $-1 $253 $433 #
straight-curve $-1 -6.3950088803598462 20.543092693742071 45.484415448332037 0 0 1 I I #
straight-curve $-1 -6.3950088803598462 -14.67464176185759 21.233966778932498 0 0.85716729658548041 -0.51503808176128008 I I #
edge $-1 $427 -2.7612441052211167 $257 6.3950088803598462 $361 $434 forward 7 unknown #
point $-1 -6.3950088803598462 20.543092693742071 7.9844525590121815 #
point $-1 -6.3950088803598462 7.376252506236483 7.9844525590121815 #
edge $-1 $435 1 $435 0 $260 $-1 forward 7 unknown #
vertex $-1 $261 $436 #
ellipse-curve $-1 -3.7789365987652843 13.267293987893472 2.8764231172764383 0 0.51503808176128008 0.85716729658548041 0.5 0 0 1 I I #
point $-1 -3.2789365987652843 13.959672599989284 4.0287346145432652 #
edge $-1 $437 1 $437 0 $264 $-1 forward 7 unknown #
vertex $-1 $265 $438 #
ellipse-curve $-1 0.1451718236265549 13.267293987893472 2.8764231172764383 0 0.51503808176128008 0.85716729658548041 0.5 0 0 1 I I #
point $-1 0.6451718236265549 13.959672599989284 4.0287346145432652 #
plane-surface $-1 40.67751091036714 0 0 -1 0 0 0 0 1 forward_v I I I I #
coedge $-1 $273 $271 $275 $382 reversed $181 $-1 #
edge $-1 $286 -7.9844525590121815 $384 7.9844525590121815 $285 $439 forward 7 unknown #
vertex $-1 $382 $440 #
straight-curve $-1 -40.67751091036714 -20.543092693742071 0 0 0 -1 I I #
edge $-1 $380 -20.543092693742071 $384 20.543092693742071 $378 $441 forward 7 unknown #
straight-curve $-1 0 -20.543092693742071 -7.9844525590121815 -1 0 0 I I #
vertex $-1 $278 $442 #
straight-curve $-1 0 20.543092693742071 -7.9844525590121815 1 0 0 I I #
point $-1 40.67751091036714 20.543092693742071 -7.9844525590121815 #
point $-1 40.67751091036714 -20.543092693742071 -7.9844525590121815 #
straight-curve $-1 -40.67751091036714 0 7.9844525590121815 0 -1 0 I I #
point $-1 -40.67751091036714 20.543092693742071 7.9844525590121815 #
point $-1 -40.67751091036714 -20.543092693742071 7.9844525590121815 #
straight-curve $-1 40.67751091036714 -20.543092693742071 0 0 0 -1 I I #
straight-curve $-1 40.67751091036714 20.543092693742071 0 0 0 -1 I I #
plane-surface $-1 0 20.543092693742071 0 0 -1 0 0 0 -1 forward_v I I I I #
coedge $-1 $404 $403 $301 $396 forward $296 $-1 #
straight-curve $-1 -30.863834817398651 -20.543092693742071 -0.81661712957438137 0 0 1 I I #
edge $-1 $399 -20.543092693742071 $397 20.543092693742071 $394 $443 forward 7 unknown #
vertex $-1 $302 $444 #
straight-curve $-1 -17.885336431941447 -20.543092693742071 -3.1332342591487627 1 0 0 I I #
vertex $-1 $304 $445 #
straight-curve $-1 -17.885336431941447 20.543092693742071 -3.1332342591487627 -1 0 0 I I #
point $-1 -30.863834817398651 20.543092693742071 -3.1332342591487627 #
point $-1 -30.863834817398651 -20.543092693742071 -3.1332342591487627 #
coedge $-1 $394 $308 $311 $406 forward $296 $-1 #
coedge $-1 $308 $394 $315 $408 reversed $296 $-1 #
straight-curve $-1 -40.67751091036714 0 -0.13323425914876275 0 1 0 I I #
edge $-1 $313 0.13323425914876275 $399 3.1332342591487627 $311 $446 forward 7 unknown #
point $-1 -40.677510910367133 20.543092693742071 -0.13323425914876275 #
edge $-1 $316 0.13323425914876275 $397 3.1332342591487627 $404 $447 forward 7 unknown #
point $-1 -40.677510910367133 -20.543092693742071 -0.13323425914876275 #
straight-curve $-1 -30.863834817398651 20.543092693742071 -0.81661712957438137 0 0 -1 I I #
edge $-1 $412 22.637251601383728 $415 27.875195163031382 $322 $448 forward 7 unknown #
vertex $-1 $411 $449 #
straight-curve $-1 1.2071303328997409 -20.543092693742075 24.297161319502035 0 0 1 I I #
edge $-1 $415 -4.6415891048592357 $333 11.510506648778225 $332 $450 forward 7 unknown #
vertex $-1 $414 $451 #
straight-curve $-1 1.2071303328997409 -20.543092693742068 0.77504152922656289 0 -0.5877852410284794 -0.80901700255871778 I I #
point $-1 1.2071303328997409 -20.543092693742071 0.775041529226558 #
point $-1 -14.94496542073772 -15.305149132094417 7.9844525590121815 #
straight-curve $-1 0 -20.543092693742071 7.9844525590121815 1 0 0 I I #
vertex $-1 $339 $452 #
point $-1 -10.714546270010224 -16.05501436838556 3.0217616899038857 #
vertex $-1 $343 $453 #
point $-1 -5.8689175439189896 -16.05501436838556 3.0217616899038857 #
vertex $-1 $347 $454 #
point $-1 -1.0232888178277548 -16.05501436838556 3.0217616899038857 #
edge $-1 $427 37.499962889319853 $430 45.41139877825772 $352 $455 forward 7 unknown #
vertex $-1 $366 $456 #
straight-curve $-1 2.7612441052211167 13.613146309170238 7.9844525590121833 0 1 0 I I #
edge $-1 $430 -3.6696852990057991 $363 5.4865676865751638 $362 $457 forward 7 unknown #
vertex $-1 $429 $458 #
straight-curve $-1 2.7612441052211167 -14.67464176185759 21.233966778932498 0 -0.85716729658548041 0.51503808176128008 I I #
point $-1 2.7612441052211167 7.376252506236483 7.9844525590121815 #
point $-1 -6.3950088803598462 20.543092693742071 0.073016670074320444 #
straight-curve $-1 0 20.543092693742071 7.9844525590121815 -1 0 0 I I #
vertex $-1 $369 $459 #
point $-1 -3.2789365987652843 13.267293987893472 2.8764231172764383 #
vertex $-1 $373 $460 #
point $-1 0.6451718236265549 13.267293987893472 2.8764231172764383 #
straight-curve $-1 -40.67751091036714 20.543092693742071 0 0 0 -1 I I #
point $-1 -40.67751091036714 -20.543092693742071 -7.9844525590121815 #
straight-curve $-1 -40.67751091036714 0 -7.9844525590121815 0 1 0 I I #
point $-1 -40.67751091036714 20.543092693742071 -7.9844525590121815 #
straight-curve $-1 -40.67751091036714 0 -3.1332342591487627 0 -1 0 I I #
point $-1 -40.677510910367133 -20.543092693742071 -3.1332342591487627 #
point $-1 -40.677510910367133 20.543092693742071 -3.1332342591487627 #
straight-curve $-1 -40.67751091036714 20.543092693742071 0 0 0 -1 I I #
straight-curve $-1 -40.67751091036714 -20.543092693742071 0 0 0 -1 I I #
straight-curve $-1 1.2071303328997409 -43.180344295125799 7.9844525590121798 0 1 0 I I #
point $-1 1.2071303328997409 -20.543092693742071 7.9844525590121815 #
straight-curve $-1 -3.4344587719594948 -15.305149132094417 7.9844525590121815 -1 0 0 I I #
point $-1 1.2071303328997409 -15.305149132094417 7.9844525590121815 #
point $-1 -11.714546270010224 -15.245997365826842 2.4339764488754065 #
point $-1 -6.8689175439189896 -15.245997365826842 2.4339764488754065 #
point $-1 -2.0232888178277548 -15.245997365826842 2.4339764488754065 #
straight-curve $-1 2.7612441052211167 20.543092693742071 45.484415448332037 0 0 -1 I I #
point $-1 2.7612441052211167 20.543092693742071 7.9844525590121815 #
straight-curve $-1 -0.90844119378468235 20.543092693742068 0.073016670074325773 -1 0 0 I I #
point $-1 2.7612441052211167 20.543092693742071 0.073016670074320444 #
point $-1 -3.7789365987652843 13.009774947012831 2.4478394689836982 #
point $-1 0.1451718236265549 13.009774947012831 2.4478394689836982 #
End-of-ACIS-data 