500 0 13 0           
7 Unknown 11 ACIS 5.0 NT 24 Thu Mar 25 20:50:05 1999 
-1 9.9999999999999995e-007 1e-010 
body $-1 $13 $-1 $14 #
body $-1 $15 $-1 $16 #
body $-1 $17 $-1 $18 #
body $-1 $19 $-1 $20 #
body $-1 $21 $-1 $22 #
body $-1 $23 $-1 $24 #
body $-1 $25 $-1 $26 #
body $-1 $27 $-1 $28 #
body $-1 $29 $-1 $30 #
body $-1 $31 $-1 $32 #
body $-1 $33 $-1 $34 #
body $-1 $35 $-1 $36 #
body $-1 $37 $-1 $38 #
lump $-1 $-1 $39 $0 #
transform $-1 1 0 0 0 1 0 0 0 1 43.376567888424333 29.026836199416156 13.948950799489323 1 rotate no_reflect no_shear #
lump $-1 $-1 $40 $1 #
transform $-1 1 0 0 0 1 0 0 0 1 43.376567888424333 29.026836199416156 13.948950799489323 1 rotate no_reflect no_shear #
lump $-1 $-1 $41 $2 #
transform $-1 1 0 0 0 1 0 0 0 1 43.376567888424333 29.026836199416156 13.948950799489323 1 rotate no_reflect no_shear #
lump $-1 $-1 $42 $3 #
transform $-1 1 0 0 0 1 0 0 0 1 43.376567888424333 29.026836199416156 13.948950799489323 1 rotate no_reflect no_shear #
lump $-1 $-1 $43 $4 #
transform $-1 1 0 0 0 1 0 0 0 1 43.376567888424333 29.026836199416156 13.948950799489323 1 rotate no_reflect no_shear #
lump $-1 $-1 $44 $5 #
transform $-1 1 0 0 0 1 0 0 0 1 43.376567888424333 29.026836199416156 13.948950799489323 1 rotate no_reflect no_shear #
lump $-1 $-1 $45 $6 #
transform $-1 1 0 0 0 1 0 0 0 1 43.376567888424333 29.026836199416156 13.948950799489323 1 rotate no_reflect no_shear #
lump $-1 $-1 $46 $7 #
transform $-1 1 0 0 0 1 0 0 0 1 43.376567888424333 29.026836199416156 13.948950799489323 1 rotate no_reflect no_shear #
lump $-1 $-1 $47 $8 #
transform $-1 1 0 0 0 1 0 0 0 1 43.376567888424333 29.026836199416156 13.948950799489323 1 rotate no_reflect no_shear #
lump $-1 $-1 $48 $9 #
transform $-1 1 0 0 0 1 0 0 0 1 43.376567888424333 29.026836199416156 13.948950799489323 1 rotate no_reflect no_shear #
lump $-1 $-1 $49 $10 #
transform $-1 1 0 0 0 1 0 0 0 1 43.376567888424333 29.026836199416156 13.948950799489323 1 rotate no_reflect no_shear #
lump $-1 $-1 $50 $11 #
transform $-1 1 0 0 0 1 0 0 0 1 43.376567888424333 29.026836199416156 13.948950799489323 1 rotate no_reflect no_shear #
lump $-1 $-1 $51 $12 #
transform $-1 1 0 0 0 1 0 0 0 1 43.376567888424333 29.026836199416156 13.948950799489323 1 rotate no_reflect no_shear #
shell $-1 $-1 $-1 $52 $-1 $13 #
shell $-1 $-1 $-1 $53 $-1 $15 #
shell $-1 $-1 $-1 $54 $-1 $17 #
shell $-1 $-1 $-1 $55 $-1 $19 #
shell $-1 $-1 $-1 $56 $-1 $21 #
shell $-1 $-1 $-1 $57 $-1 $23 #
shell $-1 $-1 $-1 $58 $-1 $25 #
shell $-1 $-1 $-1 $59 $-1 $27 #
shell $-1 $-1 $-1 $60 $-1 $29 #
shell $-1 $-1 $-1 $61 $-1 $31 #
shell $-1 $-1 $-1 $62 $-1 $33 #
shell $-1 $-1 $-1 $63 $-1 $35 #
shell $-1 $-1 $-1 $64 $-1 $37 #
face $-1 $65 $66 $39 $-1 $67 forward single #
face $-1 $68 $69 $40 $-1 $70 reversed single #
face $-1 $71 $72 $41 $-1 $73 reversed single #
face $-1 $74 $75 $42 $-1 $76 forward single #
face $-1 $77 $78 $43 $-1 $79 forward single #
face $-1 $80 $81 $44 $-1 $82 forward single #
face $-1 $83 $84 $45 $-1 $85 reversed single #
face $-1 $86 $87 $46 $-1 $88 forward single #
face $-1 $89 $90 $47 $-1 $91 forward single #
face $-1 $92 $93 $48 $-1 $94 forward single #
face $-1 $95 $96 $49 $-1 $97 reversed single #
face $-1 $98 $99 $50 $-1 $100 forward single #
face $-1 $101 $102 $51 $-1 $103 forward single #
face $-1 $104 $105 $39 $-1 $106 reversed single #
loop $-1 $-1 $107 $52 #
plane-surface $-1 0 0 13.948950799489323 0 0 1 1 0 0 forward_v I I I I #
face $-1 $108 $109 $40 $-1 $110 reversed single #
loop $-1 $-1 $111 $53 #
plane-surface $-1 -38.427408456685605 -21.213152565518257 0 0 1 0 0 0 1 forward_v I I I I #
face $-1 $112 $113 $41 $-1 $114 reversed single #
loop $-1 $-1 $115 $54 #
plane-surface $-1 4.9491594317387282 -94.500259603630823 61.094002800489861 -1 0 0 0 -0.75470958851134928 0.65605901945558964 forward_v I I I I #
face $-1 $116 $117 $42 $-1 $118 forward single #
loop $-1 $119 $120 $55 #
cone-surface $-1 -9.6967647040022769 -23.651689414435609 8.0827879496304771 0 0.75470958851134928 -0.65605901945558964 1.5 0 0 1 I I 0 1 1.5 forward I I I I #
face $-1 $121 $122 $43 $-1 $123 forward single #
loop $-1 $124 $125 $56 #
cone-surface $-1 -4.2045431530994009 -23.651689414435609 8.0827879496304771 0 0.75470958851134928 -0.65605901945558964 1.5 0 0 1 I I 0 1 1.5 forward I I I I #
face $-1 $126 $127 $44 $-1 $128 forward single #
loop $-1 $129 $130 $57 #
cone-surface $-1 1.2876783978034751 -23.651689414435609 8.0827879496304771 0 0.75470958851134928 -0.65605901945558964 1.5 0 0 1 I I 0 1 1.5 forward I I I I #
face $-1 $131 $132 $45 $-1 $133 reversed single #
loop $-1 $-1 $134 $58 #
plane-surface $-1 34.222865303586204 -29.026836199416152 4.1788256080328949 0 -0.75470958851134928 0.65605901945558964 1 0 0 forward_v I I I I #
face $-1 $135 $136 $46 $-1 $137 forward single #
loop $-1 $138 $139 $59 #
cone-surface $-1 28.730643752683321 -23.651689414435609 8.0827879496304771 0 0.75470958851134928 -0.65605901945558964 1.5 0 0 1 I I 0 1 1.5 forward I I I I #
face $-1 $140 $141 $47 $-1 $142 forward single #
loop $-1 $143 $144 $60 #
cone-surface $-1 34.222865303586204 -23.651689414435609 8.0827879496304771 0 0.75470958851134928 -0.65605901945558964 1.5 0 0 1 I I 0 1 1.5 forward I I I I #
face $-1 $145 $146 $48 $-1 $147 forward single #
loop $-1 $148 $149 $61 #
cone-surface $-1 39.715086854489087 -23.651689414435609 8.0827879496304771 0 0.75470958851134928 -0.65605901945558964 1.5 0 0 1 I I 0 1 1.5 forward I I I I #
face $-1 $150 $151 $49 $-1 $152 reversed single #
loop $-1 $-1 $153 $62 #
plane-surface $-1 21.424644776346511 51.104351310198382 111.50749672172263 1 0 0 0 -0.71933980857756763 -0.69465836192734942 forward_v I I I I #
face $-1 $154 $155 $50 $-1 $156 forward single #
loop $-1 $157 $158 $63 #
cone-surface $-1 25.257249735249076 26.158580004447572 11.028517587418136 0 -0.71933980857756763 -0.69465836192734942 1 0 0 1 I I 0 1 1 forward I I I I #
face $-1 $159 $160 $51 $-1 $161 forward single #
loop $-1 $162 $163 $64 #
cone-surface $-1 31.006157173602929 26.158580004447572 11.028517587418136 0 -0.71933980857756763 -0.69465836192734942 1 0 0 1 I I 0 1 1 forward I I I I #
face $-1 $164 $165 $39 $-1 $166 reversed single #
loop $-1 $-1 $167 $65 #
plane-surface $-1 0 0 -13.948950799489323 0 0 1 1 0 0 forward_v I I I I #
coedge $-1 $168 $169 $170 $171 forward $66 $-1 #
face $-1 $172 $173 $40 $-1 $174 reversed single #
loop $-1 $-1 $175 $68 #
plane-surface $-1 -38.427408456685605 -14.910305928747144 0 0 -1 0 0 0 -1 forward_v I I I I #
coedge $-1 $176 $177 $178 $179 reversed $69 $-1 #
face $-1 $180 $181 $41 $-1 $182 reversed single #
loop $-1 $-1 $183 $71 #
plane-surface $-1 -4.2045431530994009 -29.026836199416152 4.1788256080328949 0 -0.75470958851134928 0.65605901945558964 1 0 0 forward_v I I I I #
coedge $-1 $184 $185 $186 $187 reversed $72 $-1 #
face $-1 $-1 $188 $42 $-1 $189 forward single #
loop $-1 $190 $191 $74 #
cone-surface $-1 -9.6967647040022769 -21.957030457585567 6.6096434309081591 0 0.75470958851134928 -0.65605901945558964 0.75 0 0 1 I I -0.70710678118654757 0.70710678118654757 0.75 forward I I I I #
loop $-1 $-1 $192 $55 #
coedge $-1 $120 $120 $193 $194 reversed $75 $-1 #
face $-1 $-1 $195 $43 $-1 $196 forward single #
loop $-1 $197 $198 $77 #
cone-surface $-1 -4.2045431530994009 -21.957030457585567 6.6096434309081591 0 0.75470958851134928 -0.65605901945558964 0.75 0 0 1 I I -0.70710678118654757 0.70710678118654757 0.75 forward I I I I #
loop $-1 $-1 $199 $56 #
coedge $-1 $125 $125 $200 $201 reversed $78 $-1 #
face $-1 $-1 $202 $44 $-1 $203 forward single #
loop $-1 $204 $205 $80 #
cone-surface $-1 1.2876783978034751 -21.957030457585567 6.6096434309081591 0 0.75470958851134928 -0.65605901945558964 0.75 0 0 1 I I -0.70710678118654757 0.70710678118654757 0.75 forward I I I I #
loop $-1 $-1 $206 $57 #
coedge $-1 $130 $130 $207 $208 reversed $81 $-1 #
face $-1 $209 $210 $45 $-1 $211 reversed single #
loop $-1 $-1 $212 $83 #
plane-surface $-1 25.069162718748075 -94.500259603630823 61.094002800489861 1 0 0 0 0.75470958851134928 -0.65605901945558964 forward_v I I I I #
coedge $-1 $213 $214 $215 $216 reversed $84 $-1 #
face $-1 $-1 $217 $46 $-1 $218 forward single #
loop $-1 $219 $220 $86 #
cone-surface $-1 28.730643752683321 -21.957030457585567 6.6096434309081591 0 0.75470958851134928 -0.65605901945558964 0.75 0 0 1 I I -0.70710678118654757 0.70710678118654757 0.75 forward I I I I #
loop $-1 $-1 $221 $59 #
coedge $-1 $139 $139 $222 $223 reversed $87 $-1 #
face $-1 $-1 $224 $47 $-1 $225 forward single #
loop $-1 $226 $227 $89 #
cone-surface $-1 34.222865303586204 -21.957030457585567 6.6096434309081591 0 0.75470958851134928 -0.65605901945558964 0.75 0 0 1 I I -0.70710678118654757 0.70710678118654757 0.75 forward I I I I #
loop $-1 $-1 $228 $60 #
coedge $-1 $144 $144 $229 $230 reversed $90 $-1 #
face $-1 $-1 $231 $48 $-1 $232 forward single #
loop $-1 $233 $234 $92 #
cone-surface $-1 39.715086854489087 -21.957030457585567 6.6096434309081591 0 0.75470958851134928 -0.65605901945558964 0.75 0 0 1 I I -0.70710678118654757 0.70710678118654757 0.75 forward I I I I #
loop $-1 $-1 $235 $61 #
coedge $-1 $149 $149 $236 $237 reversed $93 $-1 #
face $-1 $238 $239 $49 $-1 $240 reversed single #
loop $-1 $-1 $241 $95 #
plane-surface $-1 28.131703454426003 -11.300632773023672 51.243705530916003 0 0.71933980857756763 0.69465836192734942 1 0 0 forward_v I I I I #
coedge $-1 $242 $243 $244 $245 reversed $96 $-1 #
face $-1 $-1 $246 $50 $-1 $247 forward single #
loop $-1 $248 $249 $98 #
cone-surface $-1 25.257249735249076 25.0868258171629 9.9935366239703622 0 -0.71933980857756763 -0.69465836192734942 0.5 0 0 1 I I -0.70710678118654746 0.70710678118654746 0.5 forward I I I I #
loop $-1 $-1 $250 $63 #
coedge $-1 $158 $158 $251 $252 reversed $99 $-1 #
face $-1 $-1 $253 $51 $-1 $254 forward single #
loop $-1 $255 $256 $101 #
cone-surface $-1 31.006157173602929 25.0868258171629 9.9935366239703622 0 -0.71933980857756763 -0.69465836192734942 0.5 0 0 1 I I -0.70710678118654746 0.70710678118654746 0.5 forward I I I I #
loop $-1 $-1 $257 $64 #
coedge $-1 $163 $163 $258 $259 reversed $102 $-1 #
face $-1 $260 $261 $39 $-1 $262 reversed single #
loop $-1 $-1 $263 $104 #
plane-surface $-1 0 -29.026836199416156 0 0 1 0 0 0 1 forward_v I I I I #
coedge $-1 $264 $265 $266 $267 forward $105 $-1 #
coedge $-1 $268 $107 $269 $270 forward $66 $-1 #
coedge $-1 $107 $268 $271 $272 forward $66 $-1 #
coedge $-1 $273 $274 $107 $171 reversed $275 $-1 #
edge $-1 $276 -29.026836199416156 $277 29.026836199416156 $170 $278 forward 7 unknown #
face $-1 $279 $280 $40 $-1 $281 reversed single #
loop $-1 $-1 $282 $108 #
plane-surface $-1 -33.478249024946876 -18.0617292471327 0 -1 0 0 0 0 1 forward_v I I I I #
coedge $-1 $283 $284 $285 $286 forward $109 $-1 #
coedge $-1 $287 $111 $288 $289 reversed $69 $-1 #
coedge $-1 $111 $287 $290 $291 reversed $69 $-1 #
coedge $-1 $292 $293 $111 $179 forward $294 $-1 #
edge $-1 $295 -13.948950799489323 $296 13.948950799489323 $178 $297 forward 7 unknown #
face $-1 $298 $299 $41 $-1 $300 reversed single #
loop $-1 $-1 $301 $112 #
plane-surface $-1 -13.35824573793753 -94.500259603630823 61.094002800489861 1 0 0 0 0.75470958851134928 -0.65605901945558964 forward_v I I I I #
coedge $-1 $302 $303 $304 $305 reversed $113 $-1 #
coedge $-1 $185 $115 $306 $307 reversed $72 $-1 #
coedge $-1 $115 $184 $302 $308 reversed $72 $-1 #
coedge $-1 $304 $309 $115 $187 forward $310 $-1 #
edge $-1 $311 18.223293602399256 $312 26.716333641427291 $186 $313 forward 7 unknown #
loop $-1 $-1 $193 $116 #
plane-surface $-1 -4.2045431530994009 -29.026836199416152 4.1788256080328949 0 -0.75470958851134928 0.65605901945558964 1 0 0 forward_v I I I I #
loop $-1 $-1 $314 $74 #
coedge $-1 $191 $191 $192 $315 reversed $117 $-1 #
coedge $-1 $192 $192 $191 $315 forward $119 $-1 #
coedge $-1 $193 $193 $120 $194 forward $188 $-1 #
edge $-1 $316 6.6010420880482233e-016 $316 6.2831853071796013 $193 $317 forward 7 unknown #
loop $-1 $-1 $200 $121 #
plane-surface $-1 -4.2045431530994009 -29.026836199416152 4.1788256080328949 0 -0.75470958851134928 0.65605901945558964 1 0 0 forward_v I I I I #
loop $-1 $-1 $318 $77 #
coedge $-1 $198 $198 $199 $319 reversed $122 $-1 #
coedge $-1 $199 $199 $198 $319 forward $124 $-1 #
coedge $-1 $200 $200 $125 $201 forward $195 $-1 #
edge $-1 $320 6.6010420880482233e-016 $320 6.2831853071796013 $200 $321 forward 7 unknown #
loop $-1 $-1 $207 $126 #
plane-surface $-1 -4.2045431530994009 -29.026836199416152 4.1788256080328949 0 -0.75470958851134928 0.65605901945558964 1 0 0 forward_v I I I I #
loop $-1 $-1 $322 $80 #
coedge $-1 $205 $205 $206 $323 reversed $127 $-1 #
coedge $-1 $206 $206 $205 $323 forward $129 $-1 #
coedge $-1 $207 $207 $130 $208 forward $202 $-1 #
edge $-1 $324 6.6010420880482233e-016 $324 6.2831853071796013 $207 $325 forward 7 unknown #
face $-1 $326 $327 $45 $-1 $328 forward single #
loop $-1 $-1 $329 $131 #
plane-surface $-1 0 -29.026836199416156 0 0 1 0 0 0 1 forward_v I I I I #
coedge $-1 $330 $331 $332 $333 reversed $132 $-1 #
coedge $-1 $334 $134 $335 $336 reversed $84 $-1 #
coedge $-1 $134 $334 $330 $337 forward $84 $-1 #
coedge $-1 $332 $338 $134 $216 forward $327 $-1 #
edge $-1 $339 -26.265135236631231 $340 -7.9577300669549729 $215 $341 forward 7 unknown #
loop $-1 $-1 $222 $135 #
plane-surface $-1 34.222865303586204 -29.026836199416152 4.1788256080328949 0 -0.75470958851134928 0.65605901945558964 1 0 0 forward_v I I I I #
loop $-1 $-1 $342 $86 #
coedge $-1 $220 $220 $221 $343 reversed $136 $-1 #
coedge $-1 $221 $221 $220 $343 forward $138 $-1 #
coedge $-1 $222 $222 $139 $223 forward $217 $-1 #
edge $-1 $344 6.6010420880482233e-016 $344 6.2831853071796013 $222 $345 forward 7 unknown #
loop $-1 $-1 $229 $140 #
plane-surface $-1 34.222865303586204 -29.026836199416152 4.1788256080328949 0 -0.75470958851134928 0.65605901945558964 1 0 0 forward_v I I I I #
loop $-1 $-1 $346 $89 #
coedge $-1 $227 $227 $228 $347 reversed $141 $-1 #
coedge $-1 $228 $228 $227 $347 forward $143 $-1 #
coedge $-1 $229 $229 $144 $230 forward $224 $-1 #
edge $-1 $348 6.6010420880482233e-016 $348 6.2831853071796013 $229 $349 forward 7 unknown #
loop $-1 $-1 $236 $145 #
plane-surface $-1 34.222865303586204 -29.026836199416152 4.1788256080328949 0 -0.75470958851134928 0.65605901945558964 1 0 0 forward_v I I I I #
loop $-1 $-1 $350 $92 #
coedge $-1 $234 $234 $235 $351 reversed $146 $-1 #
coedge $-1 $235 $235 $234 $351 forward $148 $-1 #
coedge $-1 $236 $236 $149 $237 forward $231 $-1 #
edge $-1 $352 6.6010420880482233e-016 $352 6.2831853071796013 $236 $353 forward 7 unknown #
face $-1 $354 $355 $49 $-1 $356 forward single #
loop $-1 $-1 $357 $150 #
plane-surface $-1 34.838762132505494 51.104351310198382 111.50749672172263 -1 0 0 0 0.71933980857756763 0.69465836192734942 forward_v I I I I #
coedge $-1 $358 $359 $360 $361 reversed $151 $-1 #
coedge $-1 $243 $153 $362 $363 reversed $96 $-1 #
coedge $-1 $153 $242 $358 $364 reversed $96 $-1 #
coedge $-1 $360 $365 $153 $245 forward $355 $-1 #
edge $-1 $366 -3.4746605443169649 $367 0.83768327962843614 $244 $368 forward 7 unknown #
loop $-1 $-1 $251 $154 #
plane-surface $-1 28.131703454426003 -11.300632773023672 51.243705530916003 0 0.71933980857756763 0.69465836192734942 1 0 0 forward_v I I I I #
loop $-1 $-1 $369 $98 #
coedge $-1 $249 $249 $250 $370 reversed $155 $-1 #
coedge $-1 $250 $250 $249 $370 forward $157 $-1 #
coedge $-1 $251 $251 $158 $252 forward $246 $-1 #
edge $-1 $371 -8.7686113126814785e-017 $371 6.2831853071796004 $251 $372 forward 7 unknown #
loop $-1 $-1 $258 $159 #
plane-surface $-1 28.131703454426003 -11.300632773023672 51.243705530916003 0 0.71933980857756763 0.69465836192734942 1 0 0 forward_v I I I I #
loop $-1 $-1 $373 $101 #
coedge $-1 $256 $256 $257 $374 reversed $160 $-1 #
coedge $-1 $257 $257 $256 $374 forward $162 $-1 #
coedge $-1 $258 $258 $163 $259 forward $253 $-1 #
edge $-1 $375 -8.7686113126814785e-017 $375 6.2831853071796004 $258 $376 forward 7 unknown #
face $-1 $377 $378 $39 $-1 $379 reversed single #
loop $-1 $-1 $380 $164 #
plane-surface $-1 -43.376567888424333 0 0 1 0 0 0 0 -1 forward_v I I I I #
coedge $-1 $381 $271 $382 $383 forward $165 $-1 #
coedge $-1 $384 $167 $381 $385 forward $105 $-1 #
coedge $-1 $167 $384 $386 $387 forward $105 $-1 #
coedge $-1 $274 $273 $167 $267 reversed $275 $-1 #
edge $-1 $388 -29.026836199416156 $389 29.026836199416156 $266 $390 forward 7 unknown #
coedge $-1 $169 $168 $391 $392 forward $66 $-1 #
coedge $-1 $393 $394 $168 $270 reversed $378 $-1 #
edge $-1 $277 -43.376567888424333 $395 43.376567888424333 $269 $396 forward 7 unknown #
coedge $-1 $263 $397 $169 $272 reversed $165 $-1 #
edge $-1 $398 -43.376567888424333 $276 43.376567888424333 $271 $399 forward 7 unknown #
coedge $-1 $266 $170 $397 $400 forward $275 $-1 #
coedge $-1 $170 $266 $393 $401 reversed $275 $-1 #
loop $-1 $-1 $273 $377 #
vertex $-1 $171 $402 #
vertex $-1 $171 $403 #
straight-curve $-1 43.376567888424333 0 13.948950799489323 0 1 0 I I #
face $-1 $404 $405 $40 $-1 $406 forward single #
loop $-1 $-1 $407 $172 #
plane-surface $-1 0 0 -13.948950799489323 0 0 1 1 0 0 forward_v I I I I #
coedge $-1 $408 $409 $287 $410 forward $173 $-1 #
coedge $-1 $411 $175 $407 $412 reversed $109 $-1 #
coedge $-1 $175 $411 $413 $414 reversed $109 $-1 #
coedge $-1 $409 $408 $175 $286 reversed $173 $-1 #
edge $-1 $415 -13.948950799489323 $416 13.948950799489323 $285 $417 forward 7 unknown #
coedge $-1 $177 $176 $282 $410 reversed $69 $-1 #
coedge $-1 $418 $419 $176 $289 forward $280 $-1 #
edge $-1 $420 14.264544796604074 $295 24.162863660081531 $288 $421 forward 7 unknown #
coedge $-1 $422 $423 $177 $291 forward $405 $-1 #
edge $-1 $296 -24.162863660081531 $424 -14.264544796604074 $290 $425 forward 7 unknown #
coedge $-1 $426 $178 $423 $427 reversed $294 $-1 #
coedge $-1 $178 $426 $418 $428 reversed $294 $-1 #
loop $-1 $-1 $426 $404 #
vertex $-1 $428 $429 #
vertex $-1 $179 $430 #
straight-curve $-1 -43.376567888424333 -21.213152565518257 0 0 0 1 I I #
face $-1 $-1 $310 $41 $-1 $431 forward single #
loop $-1 $-1 $432 $180 #
plane-surface $-1 0 -29.026836199416156 0 0 1 0 0 0 1 forward_v I I I I #
coedge $-1 $433 $434 $435 $436 reversed $181 $-1 #
coedge $-1 $437 $183 $185 $308 forward $113 $-1 #
coedge $-1 $183 $437 $433 $438 forward $113 $-1 #
coedge $-1 $435 $186 $183 $305 forward $310 $-1 #
edge $-1 $312 -7.0514310082884286 $439 11.255974161387829 $304 $440 forward 7 unknown #
coedge $-1 $441 $442 $184 $307 forward $299 $-1 #
edge $-1 $443 -26.368175792212039 $311 -16.598050600755606 $306 $444 forward 7 unknown #
edge $-1 $312 -12.945542683150245 $443 5.682373700803029e-015 $185 $445 forward 7 unknown #
coedge $-1 $186 $435 $441 $446 forward $310 $-1 #
loop $-1 $-1 $435 $298 #
vertex $-1 $307 $447 #
vertex $-1 $187 $448 #
straight-curve $-1 4.9491594317387282 -47.250129801815412 13.948950799489324 0 1 0 I I #
coedge $-1 $314 $314 $-1 $449 reversed $190 $-1 #
edge $-1 $450 0 $450 6.2831853071796004 $191 $451 forward 7 unknown #
vertex $-1 $194 $452 #
ellipse-curve $-1 -9.6967647040022769 -24.78031617990214 9.0638882037611044 0 -0.75470958851134928 0.65605901945558964 1.5 0 0 1 I I #
coedge $-1 $318 $318 $-1 $453 reversed $197 $-1 #
edge $-1 $454 0 $454 6.2831853071796004 $198 $455 forward 7 unknown #
vertex $-1 $201 $456 #
ellipse-curve $-1 -4.2045431530994009 -24.78031617990214 9.0638882037611044 0 -0.75470958851134928 0.65605901945558964 1.5 0 0 1 I I #
coedge $-1 $322 $322 $-1 $457 reversed $204 $-1 #
edge $-1 $458 0 $458 6.2831853071796004 $205 $459 forward 7 unknown #
vertex $-1 $208 $460 #
ellipse-curve $-1 1.2876783978034751 -24.78031617990214 9.0638882037611044 0 -0.75470958851134928 0.65605901945558964 1.5 0 0 1 I I #
face $-1 $-1 $461 $45 $-1 $462 reversed single #
loop $-1 $-1 $332 $209 #
plane-surface $-1 0 0 13.948950799489323 0 0 1 1 0 0 forward_v I I I I #
coedge $-1 $463 $464 $331 $465 forward $210 $-1 #
coedge $-1 $331 $212 $214 $337 reversed $132 $-1 #
coedge $-1 $212 $330 $329 $465 reversed $132 $-1 #
coedge $-1 $466 $215 $212 $333 forward $327 $-1 #
edge $-1 $340 -26.716333641427291 $467 -18.223293602399256 $332 $468 forward 7 unknown #
coedge $-1 $214 $213 $463 $469 reversed $84 $-1 #
coedge $-1 $470 $471 $213 $336 forward $461 $-1 #
edge $-1 $472 -7.944758969893897 $339 5.000783713256352 $335 $473 forward 7 unknown #
edge $-1 $474 -5.682373700803029e-015 $340 12.945542683150245 $330 $475 forward 7 unknown #
coedge $-1 $215 $466 $470 $476 forward $327 $-1 #
vertex $-1 $336 $477 #
vertex $-1 $216 $478 #
straight-curve $-1 17.111432651793102 -20.533796160388121 13.948950799489323 -1 0 0 I I #
coedge $-1 $342 $342 $-1 $479 reversed $219 $-1 #
edge $-1 $480 0 $480 6.2831853071796004 $220 $481 forward 7 unknown #
vertex $-1 $223 $482 #
ellipse-curve $-1 28.730643752683321 -24.78031617990214 9.0638882037611044 0 -0.75470958851134928 0.65605901945558964 1.5 0 0 1 I I #
coedge $-1 $346 $346 $-1 $483 reversed $226 $-1 #
edge $-1 $484 0 $484 6.2831853071796004 $227 $485 forward 7 unknown #
vertex $-1 $230 $486 #
ellipse-curve $-1 34.222865303586204 -24.78031617990214 9.0638882037611044 0 -0.75470958851134928 0.65605901945558964 1.5 0 0 1 I I #
coedge $-1 $350 $350 $-1 $487 reversed $233 $-1 #
edge $-1 $488 0 $488 6.2831853071796004 $234 $489 forward 7 unknown #
vertex $-1 $237 $490 #
ellipse-curve $-1 39.715086854489087 -24.78031617990214 9.0638882037611044 0 -0.75470958851134928 0.65605901945558964 1.5 0 0 1 I I #
face $-1 $-1 $491 $49 $-1 $492 reversed single #
loop $-1 $-1 $244 $238 #
plane-surface $-1 0 0 13.948950799489323 0 0 1 1 0 0 forward_v I I I I #
coedge $-1 $493 $494 $495 $496 reversed $239 $-1 #
coedge $-1 $497 $241 $243 $364 forward $151 $-1 #
coedge $-1 $241 $497 $493 $498 forward $151 $-1 #
coedge $-1 $495 $244 $241 $361 forward $355 $-1 #
edge $-1 $367 7.3587930491335101 $499 20.772910405292492 $360 $500 forward 7 unknown #
coedge $-1 $501 $502 $242 $363 forward $491 $-1 #
edge $-1 $503 -46.270360420546169 $366 -41.804797561371991 $362 $504 forward 7 unknown #
edge $-1 $367 51.845809569713424 $503 58.053672398832312 $243 $505 forward 7 unknown #
coedge $-1 $244 $495 $501 $506 forward $355 $-1 #
vertex $-1 $363 $507 #
vertex $-1 $245 $508 #
straight-curve $-1 21.424644776346511 25.552175655099191 13.948950799489324 0 -1 0 I I #
coedge $-1 $369 $369 $-1 $509 reversed $248 $-1 #
edge $-1 $510 0 $510 6.2831853071796004 $249 $511 forward 7 unknown #
vertex $-1 $252 $512 #
ellipse-curve $-1 25.257249735249076 26.870664287443457 11.716169369902232 0 0.71933980857756763 0.69465836192734942 1 0 0 1 I I #
coedge $-1 $373 $373 $-1 $513 reversed $255 $-1 #
edge $-1 $514 0 $514 6.2831853071796004 $256 $515 forward 7 unknown #
vertex $-1 $259 $516 #
ellipse-curve $-1 31.006157173602929 26.870664287443457 11.716169369902232 0 0.71933980857756763 0.69465836192734942 1 0 0 1 I I #
face $-1 $-1 $275 $39 $-1 $517 reversed single #
loop $-1 $-1 $393 $260 #
plane-surface $-1 0 29.026836199416156 0 0 -1 0 0 0 -1 forward_v I I I I #
coedge $-1 $518 $391 $394 $519 forward $261 $-1 #
coedge $-1 $397 $263 $264 $385 reversed $165 $-1 #
coedge $-1 $391 $518 $263 $383 reversed $261 $-1 #
edge $-1 $398 -13.948950799489323 $520 13.948950799489323 $382 $521 forward 7 unknown #
coedge $-1 $265 $264 $518 $522 forward $105 $-1 #
edge $-1 $389 -43.376567888424333 $520 43.376567888424333 $381 $523 forward 7 unknown #
coedge $-1 $394 $393 $265 $387 reversed $378 $-1 #
edge $-1 $524 -43.376567888424333 $388 43.376567888424333 $386 $525 forward 7 unknown #
vertex $-1 $267 $526 #
vertex $-1 $400 $527 #
straight-curve $-1 43.376567888424333 0 -13.948950799489323 0 -1 0 I I #
coedge $-1 $380 $382 $268 $392 reversed $261 $-1 #
edge $-1 $395 -29.026836199416156 $398 29.026836199416156 $391 $528 forward 7 unknown #
coedge $-1 $386 $269 $274 $401 forward $378 $-1 #
coedge $-1 $269 $386 $380 $519 reversed $378 $-1 #
vertex $-1 $270 $529 #
straight-curve $-1 0 29.026836199416156 13.948950799489323 -1 0 0 I I #
coedge $-1 $271 $381 $273 $400 reversed $165 $-1 #
vertex $-1 $392 $530 #
straight-curve $-1 0 -29.026836199416156 13.948950799489323 1 0 0 I I #
edge $-1 $276 -13.948950799489323 $389 13.948950799489323 $273 $531 forward 7 unknown #
edge $-1 $277 -13.948950799489323 $388 13.948950799489323 $274 $532 forward 7 unknown #
point $-1 43.376567888424333 -29.026836199416156 13.948950799489323 #
point $-1 43.376567888424333 29.026836199416156 13.948950799489323 #
face $-1 $-1 $294 $40 $-1 $533 reversed single #
loop $-1 $-1 $413 $279 #
plane-surface $-1 0 0 13.948950799489323 0 0 1 1 0 0 forward_v I I I I #
coedge $-1 $419 $418 $283 $412 forward $280 $-1 #
coedge $-1 $285 $282 $419 $534 reversed $173 $-1 #
coedge $-1 $282 $285 $422 $535 reversed $173 $-1 #
edge $-1 $424 -13.948950799489323 $420 13.948950799489323 $282 $536 forward 7 unknown #
coedge $-1 $284 $283 $426 $537 reversed $109 $-1 #
edge $-1 $538 -24.162863660081531 $416 -14.264544796604074 $407 $539 forward 7 unknown #
coedge $-1 $423 $422 $284 $414 forward $405 $-1 #
edge $-1 $415 14.264544796604074 $540 24.162863660081531 $413 $541 forward 7 unknown #
vertex $-1 $414 $542 #
vertex $-1 $412 $543 #
straight-curve $-1 -33.478249024946876 -14.910305928747144 0 0 0 -1 I I #
coedge $-1 $407 $288 $293 $428 forward $280 $-1 #
coedge $-1 $288 $407 $408 $534 forward $280 $-1 #
vertex $-1 $289 $544 #
straight-curve $-1 -19.213704228342802 -21.213152565518257 -13.948950799489323 -1 0 0 I I #
coedge $-1 $413 $290 $409 $535 forward $405 $-1 #
coedge $-1 $290 $413 $292 $427 forward $405 $-1 #
vertex $-1 $291 $545 #
straight-curve $-1 -19.213704228342802 -21.213152565518257 13.948950799489323 1 0 0 I I #
coedge $-1 $293 $292 $411 $537 forward $294 $-1 #
edge $-1 $540 14.910305928747144 $296 21.213152565518257 $292 $546 forward 7 unknown #
edge $-1 $295 -21.213152565518257 $538 -14.910305928747144 $293 $547 forward 7 unknown #
point $-1 -43.376567888424333 -21.213152565518257 -13.948950799489323 #
point $-1 -43.376567888424333 -21.213152565518257 13.948950799489323 #
plane-surface $-1 0 0 13.948950799489323 0 0 1 1 0 0 forward_v I I I I #
coedge $-1 $442 $441 $434 $548 forward $299 $-1 #
coedge $-1 $434 $301 $303 $438 reversed $181 $-1 #
coedge $-1 $301 $433 $432 $548 reversed $181 $-1 #
coedge $-1 $309 $304 $301 $436 forward $310 $-1 #
edge $-1 $439 -26.716333641427291 $549 -18.223293602399256 $435 $550 forward 7 unknown #
coedge $-1 $303 $302 $442 $551 reversed $113 $-1 #
edge $-1 $552 -5.682373700803029e-015 $439 12.945542683150245 $433 $553 forward 7 unknown #
vertex $-1 $305 $554 #
straight-curve $-1 -2.1022715765497004 -20.533796160388121 13.948950799489323 -1 0 0 I I #
coedge $-1 $432 $306 $309 $446 reversed $299 $-1 #
coedge $-1 $306 $432 $437 $551 forward $299 $-1 #
vertex $-1 $307 $555 #
straight-curve $-1 4.9491594317387282 -29.026836199416159 30.54700140024493 0 0 1 I I #
straight-curve $-1 4.9491594317387282 -29.026836199416152 4.1788256080328949 0 -0.65605901945558964 -0.75470958851134928 I I #
edge $-1 $549 -13.35824573793753 $311 4.9491594317387282 $441 $556 forward 7 unknown #
point $-1 4.9491594317387282 -29.026836199416156 13.948950799489323 #
point $-1 4.9491594317387282 -20.533796160388121 13.948950799489323 #
edge $-1 $557 1 $557 0 $314 $-1 forward 7 unknown #
vertex $-1 $315 $558 #
ellipse-curve $-1 -9.6967647040022769 -22.523062648969081 7.1016876954998516 0 -0.75470958851134928 0.65605901945558964 1.5 0 0 1 I I #
point $-1 -8.1967647040022769 -24.780316179902137 9.0638882037611026 #
edge $-1 $559 1 $559 0 $318 $-1 forward 7 unknown #
vertex $-1 $319 $560 #
ellipse-curve $-1 -4.2045431530994009 -22.523062648969081 7.1016876954998516 0 -0.75470958851134928 0.65605901945558964 1.5 0 0 1 I I #
point $-1 -2.7045431530994009 -24.780316179902137 9.0638882037611026 #
edge $-1 $561 1 $561 0 $322 $-1 forward 7 unknown #
vertex $-1 $323 $562 #
ellipse-curve $-1 1.2876783978034751 -22.523062648969081 7.1016876954998516 0 -0.75470958851134928 0.65605901945558964 1.5 0 0 1 I I #
point $-1 2.7876783978034751 -24.780316179902137 9.0638882037611026 #
loop $-1 $-1 $335 $326 #
plane-surface $-1 43.376567888424333 0 0 -1 0 0 0 0 1 forward_v I I I I #
coedge $-1 $563 $329 $334 $469 forward $210 $-1 #
coedge $-1 $329 $563 $466 $564 reversed $210 $-1 #
edge $-1 $467 16.598050600755606 $474 26.368175792212039 $329 $565 forward 7 unknown #
coedge $-1 $338 $332 $464 $564 forward $327 $-1 #
vertex $-1 $564 $566 #
straight-curve $-1 25.069162718748075 -47.250129801815412 13.948950799489324 0 -1 0 I I #
edge $-1 $474 7.9577300669549729 $472 26.265135236631231 $463 $567 forward 7 unknown #
coedge $-1 $471 $335 $338 $476 reversed $461 $-1 #
coedge $-1 $335 $470 $563 $568 forward $461 $-1 #
vertex $-1 $469 $569 #
straight-curve $-1 43.376567888424333 -23.814605419816566 10.174811381023364 0 0.65605901945558975 0.75470958851134939 I I #
vertex $-1 $469 $570 #
straight-curve $-1 25.069162718748075 -29.026836199416152 4.1788256080328949 0 0.65605901945558964 0.75470958851134928 I I #
edge $-1 $571 -29.026836199416156 $339 -20.533796160388121 $470 $572 forward 7 unknown #
point $-1 43.376567888424333 -20.533796160388121 13.948950799489323 #
point $-1 25.069162718748075 -20.533796160388121 13.948950799489323 #
edge $-1 $573 1 $573 0 $342 $-1 forward 7 unknown #
vertex $-1 $343 $574 #
ellipse-curve $-1 28.730643752683321 -22.523062648969081 7.1016876954998516 0 -0.75470958851134928 0.65605901945558964 1.5 0 0 1 I I #
point $-1 30.230643752683321 -24.780316179902137 9.0638882037611026 #
edge $-1 $575 1 $575 0 $346 $-1 forward 7 unknown #
vertex $-1 $347 $576 #
ellipse-curve $-1 34.222865303586204 -22.523062648969081 7.1016876954998516 0 -0.75470958851134928 0.65605901945558964 1.5 0 0 1 I I #
point $-1 35.722865303586204 -24.780316179902137 9.0638882037611026 #
edge $-1 $577 1 $577 0 $350 $-1 forward 7 unknown #
vertex $-1 $351 $578 #
ellipse-curve $-1 39.715086854489087 -22.523062648969081 7.1016876954998516 0 -0.75470958851134928 0.65605901945558964 1.5 0 0 1 I I #
point $-1 41.215086854489087 -24.780316179902137 9.0638882037611026 #
loop $-1 $-1 $362 $354 #
plane-surface $-1 0 29.026836199416156 0 0 -1 0 0 0 -1 forward_v I I I I #
coedge $-1 $494 $357 $359 $498 reversed $239 $-1 #
coedge $-1 $357 $493 $579 $580 reversed $239 $-1 #
coedge $-1 $365 $360 $357 $496 forward $355 $-1 #
edge $-1 $499 -0.83768327962843614 $581 3.4746605443169649 $495 $582 forward 7 unknown #
coedge $-1 $359 $358 $502 $583 reversed $151 $-1 #
edge $-1 $584 -58.053672398832312 $499 -51.845809569713424 $493 $585 forward 7 unknown #
vertex $-1 $361 $586 #
straight-curve $-1 14.065851727213001 24.714492375470748 13.948950799489328 1 0 0 I I #
coedge $-1 $579 $362 $365 $506 reversed $491 $-1 #
coedge $-1 $362 $579 $497 $583 forward $491 $-1 #
vertex $-1 $363 $587 #
straight-curve $-1 21.424644776346511 29.026836199416156 55.753748360861316 0 0 1 I I #
straight-curve $-1 21.424644776346511 -11.300632773023672 51.243705530916003 0 0.69465836192734942 -0.71933980857756763 I I #
edge $-1 $581 -34.838762132505494 $366 -21.424644776346511 $501 $588 forward 7 unknown #
point $-1 21.424644776346511 29.026836199416156 13.948950799489323 #
point $-1 21.424644776346511 24.714492375470755 13.948950799489324 #
edge $-1 $589 1 $589 0 $369 $-1 forward 7 unknown #
vertex $-1 $370 $590 #
ellipse-curve $-1 25.257249735249076 25.446495721451683 10.340865804934037 0 0.71933980857756763 0.69465836192734942 1 0 0 1 I I #
point $-1 26.257249735249076 26.870664287443461 11.716169369902236 #
edge $-1 $591 1 $591 0 $373 $-1 forward 7 unknown #
vertex $-1 $374 $592 #
ellipse-curve $-1 31.006157173602929 25.446495721451683 10.340865804934037 0 0.71933980857756763 0.69465836192734942 1 0 0 1 I I #
point $-1 32.006157173602929 26.870664287443461 11.716169369902236 #
plane-surface $-1 43.376567888424333 0 0 -1 0 0 0 0 1 forward_v I I I I #
coedge $-1 $382 $380 $384 $522 reversed $261 $-1 #
edge $-1 $395 -13.948950799489323 $524 13.948950799489323 $394 $593 forward 7 unknown #
vertex $-1 $522 $594 #
straight-curve $-1 -43.376567888424333 -29.026836199416156 0 0 0 -1 I I #
edge $-1 $520 -29.026836199416156 $524 29.026836199416156 $518 $595 forward 7 unknown #
straight-curve $-1 0 -29.026836199416156 -13.948950799489323 -1 0 0 I I #
vertex $-1 $387 $596 #
straight-curve $-1 0 29.026836199416156 -13.948950799489323 1 0 0 I I #
point $-1 43.376567888424333 29.026836199416156 -13.948950799489323 #
point $-1 43.376567888424333 -29.026836199416156 -13.948950799489323 #
straight-curve $-1 -43.376567888424333 0 13.948950799489323 0 -1 0 I I #
point $-1 -43.376567888424333 29.026836199416156 13.948950799489323 #
point $-1 -43.376567888424333 -29.026836199416156 13.948950799489323 #
straight-curve $-1 43.376567888424333 -29.026836199416156 0 0 0 -1 I I #
straight-curve $-1 43.376567888424333 29.026836199416156 0 0 0 -1 I I #
plane-surface $-1 -43.376567888424333 0 0 1 0 0 0 0 -1 forward_v I I I I #
edge $-1 $416 5.8794413051807943 $420 12.182287941951907 $419 $597 forward 7 unknown #
edge $-1 $424 -12.182287941951907 $415 -5.8794413051807943 $422 $598 forward 7 unknown #
straight-curve $-1 -33.478249024946876 -21.213152565518257 0 0 0 -1 I I #
edge $-1 $540 -13.948950799489323 $538 13.948950799489323 $426 $599 forward 7 unknown #
vertex $-1 $537 $600 #
straight-curve $-1 -19.213704228342802 -14.910305928747144 -13.948950799489323 1 0 0 I I #
vertex $-1 $427 $601 #
straight-curve $-1 -19.213704228342802 -14.910305928747144 13.948950799489323 -1 0 0 I I #
point $-1 -33.478249024946876 -14.910305928747144 13.948950799489323 #
point $-1 -33.478249024946876 -14.910305928747144 -13.948950799489323 #
point $-1 -33.478249024946876 -21.213152565518257 -13.948950799489323 #
point $-1 -33.478249024946876 -21.213152565518257 13.948950799489323 #
straight-curve $-1 -43.376567888424333 0 13.948950799489323 0 -1 0 I I #
straight-curve $-1 -43.376567888424333 0 -13.948950799489323 0 1 0 I I #
edge $-1 $549 16.598050600755606 $552 26.368175792212039 $432 $602 forward 7 unknown #
vertex $-1 $446 $603 #
straight-curve $-1 -13.35824573793753 -47.250129801815412 13.948950799489324 0 -1 0 I I #
edge $-1 $552 -11.255974161387829 $443 7.0514310082884286 $442 $604 forward 7 unknown #
vertex $-1 $551 $605 #
straight-curve $-1 -13.35824573793753 -29.026836199416152 4.1788256080328949 0 0.65605901945558964 0.75470958851134928 I I #
point $-1 -13.35824573793753 -20.533796160388121 13.948950799489323 #
point $-1 4.9491594317387282 -29.026836199416156 4.1788256080328905 #
straight-curve $-1 0 -29.026836199416156 13.948950799489323 1 0 0 I I #
vertex $-1 $449 $606 #
point $-1 -8.1967647040022769 -22.523062648969081 7.1016876954998516 #
vertex $-1 $453 $607 #
point $-1 -2.7045431530994009 -22.523062648969081 7.1016876954998516 #
vertex $-1 $457 $608 #
point $-1 2.7876783978034751 -22.523062648969081 7.1016876954998516 #
coedge $-1 $464 $463 $471 $568 reversed $210 $-1 #
edge $-1 $467 25.069162718748075 $571 43.376567888424333 $464 $609 forward 7 unknown #
straight-curve $-1 25.069162718748075 -29.026836199416159 30.54700140024493 0 0 -1 I I #
point $-1 25.069162718748075 -29.026836199416156 13.948950799489323 #
straight-curve $-1 17.111432651793102 -29.026836199416156 4.1788256080328878 1 0 0 I I #
edge $-1 $571 -13.948950799489323 $472 -4.1788256080328905 $471 $610 forward 7 unknown #
point $-1 43.376567888424333 -29.026836199416156 4.1788256080328905 #
point $-1 25.069162718748075 -29.026836199416156 4.1788256080328905 #
vertex $-1 $476 $611 #
straight-curve $-1 43.376567888424333 0 13.948950799489323 0 1 0 I I #
vertex $-1 $479 $612 #
point $-1 30.230643752683321 -22.523062648969081 7.1016876954998516 #
vertex $-1 $483 $613 #
point $-1 35.722865303586204 -22.523062648969081 7.1016876954998516 #
vertex $-1 $487 $614 #
point $-1 41.215086854489087 -22.523062648969081 7.1016876954998516 #
coedge $-1 $502 $501 $494 $580 forward $491 $-1 #
edge $-1 $581 41.804797561371991 $584 46.270360420546169 $579 $615 forward 7 unknown #
vertex $-1 $506 $616 #
straight-curve $-1 34.838762132505494 25.552175655099191 13.948950799489324 0 1 0 I I #
edge $-1 $584 -20.772910405292492 $503 -7.3587930491335101 $502 $617 forward 7 unknown #
vertex $-1 $583 $618 #
straight-curve $-1 34.838762132505494 -11.300632773023672 51.243705530916003 0 -0.69465836192734942 0.71933980857756763 I I #
point $-1 34.838762132505494 24.714492375470755 13.948950799489324 #
point $-1 21.424644776346511 29.026836199416159 9.4833879403151471 #
straight-curve $-1 0 29.026836199416156 13.948950799489323 -1 0 0 I I #
vertex $-1 $509 $619 #
point $-1 26.257249735249076 25.446495721451683 10.340865804934037 #
vertex $-1 $513 $620 #
point $-1 32.006157173602929 25.446495721451683 10.340865804934037 #
straight-curve $-1 -43.376567888424333 29.026836199416156 0 0 0 -1 I I #
point $-1 -43.376567888424333 -29.026836199416156 -13.948950799489323 #
straight-curve $-1 -43.376567888424333 0 -13.948950799489323 0 1 0 I I #
point $-1 -43.376567888424333 29.026836199416156 -13.948950799489323 #
straight-curve $-1 -33.478249024946876 -9.0308646235663499 -13.948950799489323 0 -1 0 I I #
straight-curve $-1 -33.478249024946876 -9.0308646235663499 13.948950799489323 0 1 0 I I #
straight-curve $-1 -43.376567888424333 -14.910305928747144 0 0 0 -1 I I #
point $-1 -43.376567888424333 -14.910305928747144 -13.948950799489323 #
point $-1 -43.376567888424333 -14.910305928747144 13.948950799489323 #
straight-curve $-1 -13.35824573793753 -29.026836199416159 30.54700140024493 0 0 -1 I I #
point $-1 -13.35824573793753 -29.026836199416156 13.948950799489323 #
straight-curve $-1 -2.1022715765497004 -29.026836199416156 4.1788256080328878 1 0 0 I I #
point $-1 -13.35824573793753 -29.026836199416156 4.1788256080328905 #
point $-1 -9.6967647040022769 -21.390998266202054 6.1175991663164666 #
point $-1 -4.2045431530994009 -21.390998266202054 6.1175991663164666 #
point $-1 1.2876783978034751 -21.390998266202054 6.1175991663164666 #
straight-curve $-1 0 -29.026836199416156 13.948950799489323 1 0 0 I I #
straight-curve $-1 43.376567888424333 -29.026836199416156 0 0 0 -1 I I #
point $-1 43.376567888424333 -29.026836199416156 13.948950799489323 #
point $-1 28.730643752683321 -21.390998266202054 6.1175991663164666 #
point $-1 34.222865303586204 -21.390998266202054 6.1175991663164666 #
point $-1 39.715086854489087 -21.390998266202054 6.1175991663164666 #
straight-curve $-1 34.838762132505494 29.026836199416156 55.753748360861316 0 0 -1 I I #
point $-1 34.838762132505494 29.026836199416156 13.948950799489323 #
straight-curve $-1 14.065851727213001 29.026836199416156 9.4833879403151471 -1 0 0 I I #
point $-1 34.838762132505494 29.026836199416159 9.4833879403151471 #
point $-1 25.257249735249076 24.727155912874117 9.6462074430066878 #
point $-1 31.006157173602929 24.727155912874117 9.6462074430066878 #
End-of-ACIS-data 