500 0 18 0           
7 Unknown 11 ACIS 5.0 NT 24 Fri Mar 26 17:20:01 1999 
-1 9.9999999999999995e-007 1e-010 
body $-1 $18 $-1 $19 #
body $-1 $20 $-1 $21 #
body $-1 $22 $-1 $23 #
body $-1 $24 $-1 $25 #
body $-1 $26 $-1 $27 #
body $-1 $28 $-1 $29 #
body $-1 $30 $-1 $31 #
body $-1 $32 $-1 $33 #
body $-1 $34 $-1 $35 #
body $-1 $36 $-1 $37 #
body $-1 $38 $-1 $39 #
body $-1 $40 $-1 $41 #
body $-1 $42 $-1 $43 #
body $-1 $44 $-1 $45 #
body $-1 $46 $-1 $47 #
body $-1 $48 $-1 $49 #
body $-1 $50 $-1 $51 #
body $-1 $52 $-1 $53 #
lump $-1 $-1 $54 $0 #
transform $-1 1 0 0 0 1 0 0 0 1 62.892544328135017 30.916329493423323 9.0735516171576318 1 rotate no_reflect no_shear #
lump $-1 $-1 $55 $1 #
transform $-1 1 0 0 0 1 0 0 0 1 62.892544328135017 30.916329493423323 9.0735516171576318 1 rotate no_reflect no_shear #
lump $-1 $-1 $56 $2 #
transform $-1 1 0 0 0 1 0 0 0 1 62.892544328135017 30.916329493423323 9.0735516171576318 1 rotate no_reflect no_shear #
lump $-1 $-1 $57 $3 #
transform $-1 1 0 0 0 1 0 0 0 1 62.892544328135017 30.916329493423323 9.0735516171576318 1 rotate no_reflect no_shear #
lump $-1 $-1 $58 $4 #
transform $-1 1 0 0 0 1 0 0 0 1 62.892544328135017 30.916329493423323 9.0735516171576318 1 rotate no_reflect no_shear #
lump $-1 $-1 $59 $5 #
transform $-1 1 0 0 0 1 0 0 0 1 62.892544328135017 30.916329493423323 9.0735516171576318 1 rotate no_reflect no_shear #
lump $-1 $-1 $60 $6 #
transform $-1 1 0 0 0 1 0 0 0 1 62.892544328135017 30.916329493423323 9.0735516171576318 1 rotate no_reflect no_shear #
lump $-1 $-1 $61 $7 #
transform $-1 1 0 0 0 1 0 0 0 1 62.892544328135017 30.916329493423323 9.0735516171576318 1 rotate no_reflect no_shear #
lump $-1 $-1 $62 $8 #
transform $-1 1 0 0 0 1 0 0 0 1 62.892544328135017 30.916329493423323 9.0735516171576318 1 rotate no_reflect no_shear #
lump $-1 $-1 $63 $9 #
transform $-1 1 0 0 0 1 0 0 0 1 62.892544328135017 30.916329493423323 9.0735516171576318 1 rotate no_reflect no_shear #
lump $-1 $-1 $64 $10 #
transform $-1 1 0 0 0 1 0 0 0 1 62.892544328135017 30.916329493423323 9.0735516171576318 1 rotate no_reflect no_shear #
lump $-1 $-1 $65 $11 #
transform $-1 1 0 0 0 1 0 0 0 1 62.892544328135017 30.916329493423323 9.0735516171576318 1 rotate no_reflect no_shear #
lump $-1 $-1 $66 $12 #
transform $-1 1 0 0 0 1 0 0 0 1 62.892544328135017 30.916329493423323 9.0735516171576318 1 rotate no_reflect no_shear #
lump $-1 $-1 $67 $13 #
transform $-1 1 0 0 0 1 0 0 0 1 62.892544328135017 30.916329493423323 9.0735516171576318 1 rotate no_reflect no_shear #
lump $-1 $-1 $68 $14 #
transform $-1 1 0 0 0 1 0 0 0 1 62.892544328135017 30.916329493423323 9.0735516171576318 1 rotate no_reflect no_shear #
lump $-1 $-1 $69 $15 #
transform $-1 1 0 0 0 1 0 0 0 1 62.892544328135017 30.916329493423323 9.0735516171576318 1 rotate no_reflect no_shear #
lump $-1 $-1 $70 $16 #
transform $-1 1 0 0 0 1 0 0 0 1 62.892544328135017 30.916329493423323 9.0735516171576318 1 rotate no_reflect no_shear #
lump $-1 $-1 $71 $17 #
transform $-1 1 0 0 0 1 0 0 0 1 62.892544328135017 30.916329493423323 9.0735516171576318 1 rotate no_reflect no_shear #
shell $-1 $-1 $-1 $72 $-1 $18 #
shell $-1 $-1 $-1 $73 $-1 $20 #
shell $-1 $-1 $-1 $74 $-1 $22 #
shell $-1 $-1 $-1 $75 $-1 $24 #
shell $-1 $-1 $-1 $76 $-1 $26 #
shell $-1 $-1 $-1 $77 $-1 $28 #
shell $-1 $-1 $-1 $78 $-1 $30 #
shell $-1 $-1 $-1 $79 $-1 $32 #
shell $-1 $-1 $-1 $80 $-1 $34 #
shell $-1 $-1 $-1 $81 $-1 $36 #
shell $-1 $-1 $-1 $82 $-1 $38 #
shell $-1 $-1 $-1 $83 $-1 $40 #
shell $-1 $-1 $-1 $84 $-1 $42 #
shell $-1 $-1 $-1 $85 $-1 $44 #
shell $-1 $-1 $-1 $86 $-1 $46 #
shell $-1 $-1 $-1 $87 $-1 $48 #
shell $-1 $-1 $-1 $88 $-1 $50 #
shell $-1 $-1 $-1 $89 $-1 $52 #
face $-1 $90 $91 $54 $-1 $92 forward single #
face $-1 $93 $94 $55 $-1 $95 reversed single #
face $-1 $96 $97 $56 $-1 $98 reversed single #
face $-1 $99 $100 $57 $-1 $101 forward single #
face $-1 $102 $103 $58 $-1 $104 forward single #
face $-1 $105 $106 $59 $-1 $107 forward single #
face $-1 $108 $109 $60 $-1 $110 reversed single #
face $-1 $111 $112 $61 $-1 $113 forward single #
face $-1 $114 $115 $62 $-1 $116 forward single #
face $-1 $117 $118 $63 $-1 $119 reversed single #
face $-1 $120 $121 $64 $-1 $122 forward single #
face $-1 $123 $124 $65 $-1 $125 forward single #
face $-1 $126 $127 $66 $-1 $128 reversed single #
face $-1 $129 $130 $67 $-1 $131 forward single #
face $-1 $132 $133 $68 $-1 $134 forward single #
face $-1 $135 $136 $69 $-1 $137 reversed single #
face $-1 $138 $139 $70 $-1 $140 forward single #
face $-1 $141 $142 $71 $-1 $143 forward single #
face $-1 $144 $145 $54 $-1 $146 reversed single #
loop $-1 $-1 $147 $72 #
plane-surface $-1 0 0 9.0735516171576318 0 0 1 1 0 0 forward_v I I I I #
face $-1 $148 $149 $55 $-1 $150 reversed single #
loop $-1 $-1 $151 $73 #
plane-surface $-1 -57.851801082770343 0 4.0477781951037155 0 0 1 1 0 0 forward_v I I I I #
face $-1 $152 $153 $56 $-1 $154 reversed single #
loop $-1 $-1 $155 $74 #
plane-surface $-1 41.168854918588124 104.82181907831244 122.90707437620468 1 0 0 0 -0.84804810408105047 -0.52991925155115449 forward_v I I I I #
face $-1 $156 $157 $57 $-1 $158 forward single #
loop $-1 $159 $160 $75 #
cone-surface $-1 45.513592800497506 28.756353205295945 6.1209193980524272 0 -0.84804810408105047 -0.52991925155115449 1 0 0 1 I I 0 1 1 forward I I I I #
face $-1 $161 $162 $58 $-1 $163 forward single #
loop $-1 $164 $165 $76 #
cone-surface $-1 52.030699623361571 28.756353205295945 6.1209193980524272 0 -0.84804810408105047 -0.52991925155115449 1 0 0 1 I I 0 1 1 forward I I I I #
face $-1 $166 $167 $59 $-1 $168 forward single #
loop $-1 $169 $170 $77 #
cone-surface $-1 58.547806446225636 28.756353205295945 6.1209193980524272 0 -0.84804810408105047 -0.52991925155115449 1 0 0 1 I I 0 1 1 forward I I I I #
face $-1 $171 $172 $60 $-1 $173 reversed single #
loop $-1 $-1 $174 $78 #
plane-surface $-1 -31.351505730472141 -118.29399523392354 95.160598511054957 -1 0 0 0 -0.69465837861970381 0.71933979245794832 forward_v I I I I #
face $-1 $175 $176 $61 $-1 $177 forward single #
loop $-1 $178 $179 $79 #
cone-surface $-1 -42.43689438102578 -26.867213236285117 5.0395050813272615 0 0.69465837861970381 -0.71933979245794832 1.5 0 0 1 I I 0 1 1.5 forward I I I I #
face $-1 $180 $181 $62 $-1 $182 forward single #
loop $-1 $183 $184 $80 #
cone-surface $-1 -35.785661190693595 -26.867213236285117 5.0395050813272615 0 0.69465837861970381 -0.71933979245794832 1.5 0 0 1 I I 0 1 1.5 forward I I I I #
face $-1 $185 $186 $63 $-1 $187 reversed single #
loop $-1 $-1 $188 $81 #
plane-surface $-1 -1.9168250429892382 -118.29399523392354 95.160598511054957 -1 0 0 0 -0.69465837861970381 0.71933979245794832 forward_v I I I I #
face $-1 $189 $190 $64 $-1 $191 forward single #
loop $-1 $192 $193 $82 #
cone-surface $-1 -13.002213693542878 -26.867213236285117 5.0395050813272615 0 0.69465837861970381 -0.71933979245794832 1.5 0 0 1 I I 0 1 1.5 forward I I I I #
face $-1 $194 $195 $65 $-1 $196 forward single #
loop $-1 $197 $198 $83 #
cone-surface $-1 -6.3509805032106925 -26.867213236285117 5.0395050813272615 0 0.69465837861970381 -0.71933979245794832 1.5 0 0 1 I I 0 1 1.5 forward I I I I #
face $-1 $199 $200 $66 $-1 $201 reversed single #
loop $-1 $-1 $202 $84 #
plane-surface $-1 27.517855644493672 -118.29399523392354 95.160598511054957 -1 0 0 0 -0.69465837861970381 0.71933979245794832 forward_v I I I I #
face $-1 $203 $204 $67 $-1 $205 forward single #
loop $-1 $206 $207 $85 #
cone-surface $-1 16.432466993940025 -26.867213236285117 5.0395050813272615 0 0.69465837861970381 -0.71933979245794832 1.5 0 0 1 I I 0 1 1.5 forward I I I I #
face $-1 $208 $209 $68 $-1 $210 forward single #
loop $-1 $211 $212 $86 #
cone-surface $-1 23.083700184272217 -26.867213236285117 5.0395050813272615 0 0.69465837861970381 -0.71933979245794832 1.5 0 0 1 I I 0 1 1.5 forward I I I I #
face $-1 $213 $214 $69 $-1 $215 reversed single #
loop $-1 $-1 $216 $87 #
plane-surface $-1 56.952536331976582 -118.29399523392354 95.160598511054957 -1 0 0 0 -0.69465837861970381 0.71933979245794832 forward_v I I I I #
face $-1 $217 $218 $70 $-1 $219 forward single #
loop $-1 $220 $221 $88 #
cone-surface $-1 45.867147681422935 -26.867213236285117 5.0395050813272615 0 0.69465837861970381 -0.71933979245794832 1.5 0 0 1 I I 0 1 1.5 forward I I I I #
face $-1 $222 $223 $71 $-1 $224 forward single #
loop $-1 $225 $226 $89 #
cone-surface $-1 52.518380871755127 -26.867213236285117 5.0395050813272615 0 0.69465837861970381 -0.71933979245794832 1.5 0 0 1 I I 0 1 1.5 forward I I I I #
face $-1 $227 $228 $54 $-1 $229 reversed single #
loop $-1 $-1 $230 $90 #
plane-surface $-1 0 0 -9.0735516171576318 0 0 1 1 0 0 forward_v I I I I #
coedge $-1 $231 $232 $233 $234 forward $91 $-1 #
face $-1 $235 $236 $55 $-1 $237 reversed single #
loop $-1 $-1 $238 $93 #
plane-surface $-1 -52.81105783740567 0 6.5606649061306737 -1 0 0 0 0 1 forward_v I I I I #
coedge $-1 $239 $240 $241 $242 forward $94 $-1 #
face $-1 $243 $244 $56 $-1 $245 forward single #
loop $-1 $-1 $246 $96 #
plane-surface $-1 52.030699623361571 -1.8499868783042075 56.251134339178449 0 0.84804810408105047 0.52991925155115449 1 0 0 forward_v I I I I #
coedge $-1 $247 $248 $249 $250 reversed $97 $-1 #
face $-1 $-1 $251 $57 $-1 $252 forward single #
loop $-1 $253 $254 $99 #
cone-surface $-1 45.513592800497506 27.815598771406908 5.5330708042039536 0 -0.84804810408105047 -0.52991925155115449 0.5 0 0 1 I I -0.70710678118654746 0.70710678118654746 0.5 forward I I I I #
loop $-1 $-1 $255 $75 #
coedge $-1 $160 $160 $256 $257 reversed $100 $-1 #
face $-1 $-1 $258 $58 $-1 $259 forward single #
loop $-1 $260 $261 $102 #
cone-surface $-1 52.030699623361571 27.815598771406908 5.5330708042039536 0 -0.84804810408105047 -0.52991925155115449 0.5 0 0 1 I I -0.70710678118654746 0.70710678118654746 0.5 forward I I I I #
loop $-1 $-1 $262 $76 #
coedge $-1 $165 $165 $263 $264 reversed $103 $-1 #
face $-1 $-1 $265 $59 $-1 $266 forward single #
loop $-1 $267 $268 $105 #
cone-surface $-1 58.547806446225636 27.815598771406908 5.5330708042039536 0 -0.84804810408105047 -0.52991925155115449 0.5 0 0 1 I I -0.70710678118654746 0.70710678118654746 0.5 forward I I I I #
loop $-1 $-1 $269 $77 #
coedge $-1 $170 $170 $270 $271 reversed $106 $-1 #
face $-1 $272 $273 $60 $-1 $274 reversed single #
loop $-1 $-1 $275 $108 #
plane-surface $-1 -39.111277785859691 -30.916329493423305 4.678378942749049 0 -0.69465837861970381 0.71933979245794832 1 0 0 forward_v I I I I #
coedge $-1 $276 $277 $278 $279 reversed $109 $-1 #
face $-1 $-1 $280 $61 $-1 $281 forward single #
loop $-1 $282 $283 $111 #
cone-surface $-1 -42.43689438102578 -24.572770412864074 2.6635400383577128 0 0.69465837861970381 -0.71933979245794832 0.75 0 0 1 I I -0.70710678118654757 0.70710678118654757 0.75 forward I I I I #
loop $-1 $-1 $284 $79 #
coedge $-1 $179 $179 $285 $286 reversed $112 $-1 #
face $-1 $-1 $287 $62 $-1 $288 forward single #
loop $-1 $289 $290 $114 #
cone-surface $-1 -35.785661190693595 -24.572770412864074 2.6635400383577128 0 0.69465837861970381 -0.71933979245794832 0.75 0 0 1 I I -0.70710678118654757 0.70710678118654757 0.75 forward I I I I #
loop $-1 $-1 $291 $80 #
coedge $-1 $184 $184 $292 $293 reversed $115 $-1 #
face $-1 $294 $295 $63 $-1 $296 reversed single #
loop $-1 $-1 $297 $117 #
plane-surface $-1 -9.6765970983767886 -30.916329493423305 4.678378942749049 0 -0.69465837861970381 0.71933979245794832 1 0 0 forward_v I I I I #
coedge $-1 $298 $299 $300 $301 reversed $118 $-1 #
face $-1 $-1 $302 $64 $-1 $303 forward single #
loop $-1 $304 $305 $120 #
cone-surface $-1 -13.002213693542878 -24.572770412864074 2.6635400383577128 0 0.69465837861970381 -0.71933979245794832 0.75 0 0 1 I I -0.70710678118654757 0.70710678118654757 0.75 forward I I I I #
loop $-1 $-1 $306 $82 #
coedge $-1 $193 $193 $307 $308 reversed $121 $-1 #
face $-1 $-1 $309 $65 $-1 $310 forward single #
loop $-1 $311 $312 $123 #
cone-surface $-1 -6.3509805032106925 -24.572770412864074 2.6635400383577128 0 0.69465837861970381 -0.71933979245794832 0.75 0 0 1 I I -0.70710678118654757 0.70710678118654757 0.75 forward I I I I #
loop $-1 $-1 $313 $83 #
coedge $-1 $198 $198 $314 $315 reversed $124 $-1 #
face $-1 $316 $317 $66 $-1 $318 reversed single #
loop $-1 $-1 $319 $126 #
plane-surface $-1 19.758083589106121 -30.916329493423305 4.678378942749049 0 -0.69465837861970381 0.71933979245794832 1 0 0 forward_v I I I I #
coedge $-1 $320 $321 $322 $323 reversed $127 $-1 #
face $-1 $-1 $324 $67 $-1 $325 forward single #
loop $-1 $326 $327 $129 #
cone-surface $-1 16.432466993940025 -24.572770412864074 2.6635400383577128 0 0.69465837861970381 -0.71933979245794832 0.75 0 0 1 I I -0.70710678118654757 0.70710678118654757 0.75 forward I I I I #
loop $-1 $-1 $328 $85 #
coedge $-1 $207 $207 $329 $330 reversed $130 $-1 #
face $-1 $-1 $331 $68 $-1 $332 forward single #
loop $-1 $333 $334 $132 #
cone-surface $-1 23.083700184272217 -24.572770412864074 2.6635400383577128 0 0.69465837861970381 -0.71933979245794832 0.75 0 0 1 I I -0.70710678118654757 0.70710678118654757 0.75 forward I I I I #
loop $-1 $-1 $335 $86 #
coedge $-1 $212 $212 $336 $337 reversed $133 $-1 #
face $-1 $338 $339 $69 $-1 $340 reversed single #
loop $-1 $-1 $341 $135 #
plane-surface $-1 49.192764276589031 -30.916329493423305 4.678378942749049 0 -0.69465837861970381 0.71933979245794832 1 0 0 forward_v I I I I #
coedge $-1 $342 $343 $344 $345 reversed $136 $-1 #
face $-1 $-1 $346 $70 $-1 $347 forward single #
loop $-1 $348 $349 $138 #
cone-surface $-1 45.867147681422935 -24.572770412864074 2.6635400383577128 0 0.69465837861970381 -0.71933979245794832 0.75 0 0 1 I I -0.70710678118654757 0.70710678118654757 0.75 forward I I I I #
loop $-1 $-1 $350 $88 #
coedge $-1 $221 $221 $351 $352 reversed $139 $-1 #
face $-1 $-1 $353 $71 $-1 $354 forward single #
loop $-1 $355 $356 $141 #
cone-surface $-1 52.518380871755127 -24.572770412864074 2.6635400383577128 0 0.69465837861970381 -0.71933979245794832 0.75 0 0 1 I I -0.70710678118654757 0.70710678118654757 0.75 forward I I I I #
loop $-1 $-1 $357 $89 #
coedge $-1 $226 $226 $358 $359 reversed $142 $-1 #
face $-1 $360 $361 $54 $-1 $362 reversed single #
loop $-1 $-1 $363 $144 #
plane-surface $-1 0 -30.916329493423323 0 0 1 0 0 0 1 forward_v I I I I #
coedge $-1 $364 $365 $366 $367 forward $145 $-1 #
coedge $-1 $368 $147 $369 $370 forward $91 $-1 #
coedge $-1 $147 $368 $371 $372 forward $91 $-1 #
coedge $-1 $373 $374 $147 $234 reversed $375 $-1 #
edge $-1 $376 -30.916329493423323 $377 30.916329493423323 $233 $378 forward 7 unknown #
face $-1 $379 $380 $55 $-1 $381 reversed single #
loop $-1 $-1 $382 $148 #
plane-surface $-1 0 30.916329493423323 0 0 -1 0 0 0 -1 forward_v I I I I #
coedge $-1 $241 $383 $384 $385 reversed $149 $-1 #
coedge $-1 $386 $151 $387 $388 reversed $94 $-1 #
coedge $-1 $151 $386 $389 $390 reversed $94 $-1 #
coedge $-1 $391 $238 $151 $242 reversed $149 $-1 #
edge $-1 $392 -30.916329493423323 $393 30.916329493423323 $241 $394 forward 7 unknown #
face $-1 $395 $396 $56 $-1 $397 reversed single #
loop $-1 $-1 $249 $152 #
plane-surface $-1 0 0 9.0735516171576318 0 0 1 1 0 0 forward_v I I I I #
coedge $-1 $398 $399 $400 $401 reversed $153 $-1 #
coedge $-1 $248 $155 $402 $403 reversed $97 $-1 #
coedge $-1 $155 $247 $398 $404 reversed $97 $-1 #
coedge $-1 $400 $405 $155 $250 forward $244 $-1 #
edge $-1 $406 21.494580045732899 $407 24.78107185829062 $249 $408 forward 7 unknown #
loop $-1 $-1 $256 $156 #
plane-surface $-1 52.030699623361571 -1.8499868783042075 56.251134339178449 0 0.84804810408105047 0.52991925155115449 1 0 0 forward_v I I I I #
loop $-1 $-1 $409 $99 #
coedge $-1 $254 $254 $255 $410 reversed $157 $-1 #
coedge $-1 $255 $255 $254 $410 forward $159 $-1 #
coedge $-1 $256 $256 $160 $257 forward $251 $-1 #
edge $-1 $411 1.5072234270957425e-015 $411 6.2831853071796022 $256 $412 forward 7 unknown #
loop $-1 $-1 $263 $161 #
plane-surface $-1 52.030699623361571 -1.8499868783042075 56.251134339178449 0 0.84804810408105047 0.52991925155115449 1 0 0 forward_v I I I I #
loop $-1 $-1 $413 $102 #
coedge $-1 $261 $261 $262 $414 reversed $162 $-1 #
coedge $-1 $262 $262 $261 $414 forward $164 $-1 #
coedge $-1 $263 $263 $165 $264 forward $258 $-1 #
edge $-1 $415 1.5072234270957425e-015 $415 6.2831853071796022 $263 $416 forward 7 unknown #
loop $-1 $-1 $270 $166 #
plane-surface $-1 52.030699623361571 -1.8499868783042075 56.251134339178449 0 0.84804810408105047 0.52991925155115449 1 0 0 forward_v I I I I #
loop $-1 $-1 $417 $105 #
coedge $-1 $268 $268 $269 $418 reversed $167 $-1 #
coedge $-1 $269 $269 $268 $418 forward $169 $-1 #
coedge $-1 $270 $270 $170 $271 forward $265 $-1 #
edge $-1 $419 1.5072234270957425e-015 $419 6.2831853071796022 $270 $420 forward 7 unknown #
face $-1 $421 $422 $60 $-1 $423 reversed single #
loop $-1 $-1 $424 $171 #
plane-surface $-1 -46.871049841247242 -118.29399523392354 95.160598511054957 1 0 0 0 0.69465837861970381 -0.71933979245794832 forward_v I I I I #
coedge $-1 $425 $426 $427 $428 reversed $172 $-1 #
coedge $-1 $277 $174 $429 $430 reversed $109 $-1 #
coedge $-1 $174 $276 $425 $431 reversed $109 $-1 #
coedge $-1 $427 $432 $174 $279 forward $433 $-1 #
edge $-1 $434 28.230668123538447 $435 32.78200255890237 $278 $436 forward 7 unknown #
loop $-1 $-1 $285 $175 #
plane-surface $-1 -39.111277785859691 -30.916329493423305 4.678378942749049 0 -0.69465837861970381 0.71933979245794832 1 0 0 forward_v I I I I #
loop $-1 $-1 $437 $111 #
coedge $-1 $283 $283 $284 $438 reversed $176 $-1 #
coedge $-1 $284 $284 $283 $438 forward $178 $-1 #
coedge $-1 $285 $285 $179 $286 forward $280 $-1 #
edge $-1 $439 -2.9228665518422552e-016 $439 6.2831853071796004 $285 $440 forward 7 unknown #
loop $-1 $-1 $292 $180 #
plane-surface $-1 -39.111277785859691 -30.916329493423305 4.678378942749049 0 -0.69465837861970381 0.71933979245794832 1 0 0 forward_v I I I I #
loop $-1 $-1 $441 $114 #
coedge $-1 $290 $290 $291 $442 reversed $181 $-1 #
coedge $-1 $291 $291 $290 $442 forward $183 $-1 #
coedge $-1 $292 $292 $184 $293 forward $287 $-1 #
edge $-1 $443 -2.9228665518422552e-016 $443 6.2831853071796004 $292 $444 forward 7 unknown #
face $-1 $445 $446 $63 $-1 $447 reversed single #
loop $-1 $-1 $448 $185 #
plane-surface $-1 -17.436369153764339 -118.29399523392354 95.160598511054957 1 0 0 0 0.69465837861970381 -0.71933979245794832 forward_v I I I I #
coedge $-1 $449 $450 $451 $452 reversed $186 $-1 #
coedge $-1 $299 $188 $453 $454 reversed $118 $-1 #
coedge $-1 $188 $298 $449 $455 reversed $118 $-1 #
coedge $-1 $451 $456 $188 $301 forward $457 $-1 #
edge $-1 $458 28.230668123538447 $459 32.78200255890237 $300 $460 forward 7 unknown #
loop $-1 $-1 $307 $189 #
plane-surface $-1 -9.6765970983767886 -30.916329493423305 4.678378942749049 0 -0.69465837861970381 0.71933979245794832 1 0 0 forward_v I I I I #
loop $-1 $-1 $461 $120 #
coedge $-1 $305 $305 $306 $462 reversed $190 $-1 #
coedge $-1 $306 $306 $305 $462 forward $192 $-1 #
coedge $-1 $307 $307 $193 $308 forward $302 $-1 #
edge $-1 $463 -2.9228665518422552e-016 $463 6.2831853071796004 $307 $464 forward 7 unknown #
loop $-1 $-1 $314 $194 #
plane-surface $-1 -9.6765970983767886 -30.916329493423305 4.678378942749049 0 -0.69465837861970381 0.71933979245794832 1 0 0 forward_v I I I I #
loop $-1 $-1 $465 $123 #
coedge $-1 $312 $312 $313 $466 reversed $195 $-1 #
coedge $-1 $313 $313 $312 $466 forward $197 $-1 #
coedge $-1 $314 $314 $198 $315 forward $309 $-1 #
edge $-1 $467 -2.9228665518422552e-016 $467 6.2831853071796004 $314 $468 forward 7 unknown #
face $-1 $469 $470 $66 $-1 $471 reversed single #
loop $-1 $-1 $472 $199 #
plane-surface $-1 11.998311533718571 -118.29399523392354 95.160598511054957 1 0 0 0 0.69465837861970381 -0.71933979245794832 forward_v I I I I #
coedge $-1 $473 $474 $475 $476 reversed $200 $-1 #
coedge $-1 $321 $202 $477 $478 reversed $127 $-1 #
coedge $-1 $202 $320 $473 $479 reversed $127 $-1 #
coedge $-1 $475 $480 $202 $323 forward $481 $-1 #
edge $-1 $482 28.230668123538447 $483 32.78200255890237 $322 $484 forward 7 unknown #
loop $-1 $-1 $329 $203 #
plane-surface $-1 19.758083589106121 -30.916329493423305 4.678378942749049 0 -0.69465837861970381 0.71933979245794832 1 0 0 forward_v I I I I #
loop $-1 $-1 $485 $129 #
coedge $-1 $327 $327 $328 $486 reversed $204 $-1 #
coedge $-1 $328 $328 $327 $486 forward $206 $-1 #
coedge $-1 $329 $329 $207 $330 forward $324 $-1 #
edge $-1 $487 -2.9228665518422552e-016 $487 6.2831853071796004 $329 $488 forward 7 unknown #
loop $-1 $-1 $336 $208 #
plane-surface $-1 19.758083589106121 -30.916329493423305 4.678378942749049 0 -0.69465837861970381 0.71933979245794832 1 0 0 forward_v I I I I #
loop $-1 $-1 $489 $132 #
coedge $-1 $334 $334 $335 $490 reversed $209 $-1 #
coedge $-1 $335 $335 $334 $490 forward $211 $-1 #
coedge $-1 $336 $336 $212 $337 forward $331 $-1 #
edge $-1 $491 -2.9228665518422552e-016 $491 6.2831853071796004 $336 $492 forward 7 unknown #
face $-1 $493 $494 $69 $-1 $495 reversed single #
loop $-1 $-1 $496 $213 #
plane-surface $-1 41.432992221201481 -118.29399523392354 95.160598511054957 1 0 0 0 0.69465837861970381 -0.71933979245794832 forward_v I I I I #
coedge $-1 $497 $498 $499 $500 reversed $214 $-1 #
coedge $-1 $343 $216 $501 $502 reversed $136 $-1 #
coedge $-1 $216 $342 $497 $503 reversed $136 $-1 #
coedge $-1 $499 $504 $216 $345 forward $505 $-1 #
edge $-1 $506 28.230668123538447 $507 32.78200255890237 $344 $508 forward 7 unknown #
loop $-1 $-1 $351 $217 #
plane-surface $-1 49.192764276589031 -30.916329493423305 4.678378942749049 0 -0.69465837861970381 0.71933979245794832 1 0 0 forward_v I I I I #
loop $-1 $-1 $509 $138 #
coedge $-1 $349 $349 $350 $510 reversed $218 $-1 #
coedge $-1 $350 $350 $349 $510 forward $220 $-1 #
coedge $-1 $351 $351 $221 $352 forward $346 $-1 #
edge $-1 $511 -2.9228665518422552e-016 $511 6.2831853071796004 $351 $512 forward 7 unknown #
loop $-1 $-1 $358 $222 #
plane-surface $-1 49.192764276589031 -30.916329493423305 4.678378942749049 0 -0.69465837861970381 0.71933979245794832 1 0 0 forward_v I I I I #
loop $-1 $-1 $513 $141 #
coedge $-1 $356 $356 $357 $514 reversed $223 $-1 #
coedge $-1 $357 $357 $356 $514 forward $225 $-1 #
coedge $-1 $358 $358 $226 $359 forward $353 $-1 #
edge $-1 $515 -2.9228665518422552e-016 $515 6.2831853071796004 $358 $516 forward 7 unknown #
face $-1 $517 $518 $54 $-1 $519 reversed single #
loop $-1 $-1 $520 $227 #
plane-surface $-1 -62.892544328135017 0 0 1 0 0 0 0 -1 forward_v I I I I #
coedge $-1 $521 $371 $522 $523 forward $228 $-1 #
coedge $-1 $524 $230 $521 $525 forward $145 $-1 #
coedge $-1 $230 $524 $526 $527 forward $145 $-1 #
coedge $-1 $374 $373 $230 $367 reversed $375 $-1 #
edge $-1 $528 -30.916329493423323 $529 30.916329493423323 $366 $530 forward 7 unknown #
coedge $-1 $232 $231 $531 $532 forward $91 $-1 #
coedge $-1 $533 $534 $231 $370 reversed $518 $-1 #
edge $-1 $377 -62.892544328135017 $535 62.892544328135017 $369 $536 forward 7 unknown #
coedge $-1 $363 $537 $232 $372 reversed $228 $-1 #
edge $-1 $538 -62.892544328135017 $376 62.892544328135017 $371 $539 forward 7 unknown #
coedge $-1 $366 $233 $537 $540 forward $375 $-1 #
coedge $-1 $233 $366 $533 $541 reversed $375 $-1 #
loop $-1 $-1 $373 $517 #
vertex $-1 $234 $542 #
vertex $-1 $234 $543 #
straight-curve $-1 62.892544328135017 0 9.0735516171576318 0 1 0 I I #
face $-1 $544 $545 $55 $-1 $546 forward single #
loop $-1 $-1 $547 $235 #
plane-surface $-1 -62.892544328135017 0 0 1 0 0 0 0 -1 forward_v I I I I #
coedge $-1 $389 $548 $391 $549 forward $236 $-1 #
coedge $-1 $238 $391 $550 $551 reversed $149 $-1 #
coedge $-1 $552 $387 $238 $385 forward $553 $-1 #
edge $-1 $393 0.76744574203837868 $554 5.793219164092295 $384 $555 forward 7 unknown #
coedge $-1 $240 $239 $547 $556 reversed $94 $-1 #
coedge $-1 $384 $557 $239 $388 forward $553 $-1 #
edge $-1 $558 -33.966643786749842 $393 -23.885157296020498 $387 $559 forward 7 unknown #
coedge $-1 $560 $382 $240 $390 forward $236 $-1 #
edge $-1 $392 23.885157296020498 $561 33.966643786749842 $389 $562 forward 7 unknown #
coedge $-1 $383 $241 $382 $549 reversed $149 $-1 #
vertex $-1 $390 $563 #
vertex $-1 $388 $564 #
straight-curve $-1 -52.81105783740567 0 4.0477781951037155 0 -1 0 I I #
face $-1 $-1 $565 $56 $-1 $566 reversed single #
loop $-1 $-1 $567 $243 #
plane-surface $-1 62.892544328135017 0 0 -1 0 0 0 0 1 forward_v I I I I #
coedge $-1 $568 $246 $248 $404 forward $153 $-1 #
coedge $-1 $246 $568 $567 $569 reversed $153 $-1 #
coedge $-1 $570 $249 $246 $401 forward $244 $-1 #
edge $-1 $407 15.153505106907339 $571 36.877194516454232 $400 $572 forward 7 unknown #
coedge $-1 $573 $574 $247 $403 forward $565 $-1 #
edge $-1 $575 -57.639472073009287 $406 -52.379985570944704 $402 $576 forward 7 unknown #
edge $-1 $407 55.630786148791287 $575 61.83265898684661 $248 $577 forward 7 unknown #
coedge $-1 $249 $570 $573 $578 forward $244 $-1 #
vertex $-1 $403 $579 #
vertex $-1 $250 $580 #
straight-curve $-1 41.168854918588124 52.410909539156222 9.0735516171576336 0 -1 0 I I #
coedge $-1 $409 $409 $-1 $581 reversed $253 $-1 #
edge $-1 $582 0 $582 6.2831853071796004 $254 $583 forward 7 unknown #
vertex $-1 $257 $584 #
ellipse-curve $-1 45.513592800497506 29.273083587144466 6.4438083661253289 0 0.84804810408105047 0.52991925155115449 1 0 0 1 I I #
coedge $-1 $413 $413 $-1 $585 reversed $260 $-1 #
edge $-1 $586 0 $586 6.2831853071796004 $261 $587 forward 7 unknown #
vertex $-1 $264 $588 #
ellipse-curve $-1 52.030699623361571 29.273083587144466 6.4438083661253289 0 0.84804810408105047 0.52991925155115449 1 0 0 1 I I #
coedge $-1 $417 $417 $-1 $589 reversed $267 $-1 #
edge $-1 $590 0 $590 6.2831853071796004 $268 $591 forward 7 unknown #
vertex $-1 $271 $592 #
ellipse-curve $-1 58.547806446225636 29.273083587144466 6.4438083661253289 0 0.84804810408105047 0.52991925155115449 1 0 0 1 I I #
face $-1 $-1 $433 $60 $-1 $593 forward single #
loop $-1 $-1 $594 $272 #
plane-surface $-1 0 -30.916329493423323 0 0 1 0 0 0 1 forward_v I I I I #
coedge $-1 $595 $596 $597 $598 reversed $273 $-1 #
coedge $-1 $599 $275 $277 $431 forward $172 $-1 #
coedge $-1 $275 $599 $595 $600 forward $172 $-1 #
coedge $-1 $597 $278 $275 $428 forward $433 $-1 #
edge $-1 $435 11.795866837542295 $601 27.315410948317396 $427 $602 forward 7 unknown #
coedge $-1 $603 $604 $276 $430 forward $422 $-1 #
edge $-1 $605 -42.901920312778444 $434 -38.506747638369845 $429 $606 forward 7 unknown #
edge $-1 $435 -6.3270994918996788 $605 2.4500672639978428e-014 $277 $607 forward 7 unknown #
coedge $-1 $278 $597 $603 $608 forward $433 $-1 #
loop $-1 $-1 $597 $421 #
vertex $-1 $430 $609 #
vertex $-1 $279 $610 #
straight-curve $-1 -31.351505730472141 -59.146997616961769 9.0735516171576336 0 1 0 I I #
coedge $-1 $437 $437 $-1 $611 reversed $282 $-1 #
edge $-1 $612 0 $612 6.2831853071796004 $283 $613 forward 7 unknown #
vertex $-1 $286 $614 #
ellipse-curve $-1 -42.43689438102578 -28.640662275741363 6.8759652799533297 0 -0.69465837861970381 0.71933979245794832 1.5 0 0 1 I I #
coedge $-1 $441 $441 $-1 $615 reversed $289 $-1 #
edge $-1 $616 0 $616 6.2831853071796004 $290 $617 forward 7 unknown #
vertex $-1 $293 $618 #
ellipse-curve $-1 -35.785661190693595 -28.640662275741363 6.8759652799533297 0 -0.69465837861970381 0.71933979245794832 1.5 0 0 1 I I #
face $-1 $-1 $457 $63 $-1 $619 forward single #
loop $-1 $-1 $620 $294 #
plane-surface $-1 0 -30.916329493423323 0 0 1 0 0 0 1 forward_v I I I I #
coedge $-1 $621 $622 $623 $624 reversed $295 $-1 #
coedge $-1 $625 $297 $299 $455 forward $186 $-1 #
coedge $-1 $297 $625 $621 $626 forward $186 $-1 #
coedge $-1 $623 $300 $297 $452 forward $457 $-1 #
edge $-1 $459 -2.9214735061991561 $627 12.598070604575945 $451 $628 forward 7 unknown #
coedge $-1 $629 $630 $298 $454 forward $446 $-1 #
edge $-1 $631 -42.901920312778444 $458 -38.506747638369845 $453 $632 forward 7 unknown #
edge $-1 $459 -6.3270994918996788 $631 2.4500672639978428e-014 $299 $633 forward 7 unknown #
coedge $-1 $300 $623 $629 $634 forward $457 $-1 #
loop $-1 $-1 $623 $445 #
vertex $-1 $454 $635 #
vertex $-1 $301 $636 #
straight-curve $-1 -1.9168250429892382 -59.146997616961769 9.0735516171576336 0 1 0 I I #
coedge $-1 $461 $461 $-1 $637 reversed $304 $-1 #
edge $-1 $638 0 $638 6.2831853071796004 $305 $639 forward 7 unknown #
vertex $-1 $308 $640 #
ellipse-curve $-1 -13.002213693542878 -28.640662275741363 6.8759652799533297 0 -0.69465837861970381 0.71933979245794832 1.5 0 0 1 I I #
coedge $-1 $465 $465 $-1 $641 reversed $311 $-1 #
edge $-1 $642 0 $642 6.2831853071796004 $312 $643 forward 7 unknown #
vertex $-1 $315 $644 #
ellipse-curve $-1 -6.3509805032106925 -28.640662275741363 6.8759652799533297 0 -0.69465837861970381 0.71933979245794832 1.5 0 0 1 I I #
face $-1 $-1 $481 $66 $-1 $645 forward single #
loop $-1 $-1 $646 $316 #
plane-surface $-1 0 -30.916329493423323 0 0 1 0 0 0 1 forward_v I I I I #
coedge $-1 $647 $648 $649 $650 reversed $317 $-1 #
coedge $-1 $651 $319 $321 $479 forward $200 $-1 #
coedge $-1 $319 $651 $647 $652 forward $200 $-1 #
coedge $-1 $649 $322 $319 $476 forward $481 $-1 #
edge $-1 $483 -17.638813849940611 $653 -2.1192697391655102 $475 $654 forward 7 unknown #
coedge $-1 $655 $656 $320 $478 forward $470 $-1 #
edge $-1 $657 -42.901920312778444 $482 -38.506747638369845 $477 $658 forward 7 unknown #
edge $-1 $483 -6.3270994918996788 $657 2.4500672639978428e-014 $321 $659 forward 7 unknown #
coedge $-1 $322 $649 $655 $660 forward $481 $-1 #
loop $-1 $-1 $649 $469 #
vertex $-1 $478 $661 #
vertex $-1 $323 $662 #
straight-curve $-1 27.517855644493672 -59.146997616961769 9.0735516171576336 0 1 0 I I #
coedge $-1 $485 $485 $-1 $663 reversed $326 $-1 #
edge $-1 $664 0 $664 6.2831853071796004 $327 $665 forward 7 unknown #
vertex $-1 $330 $666 #
ellipse-curve $-1 16.432466993940025 -28.640662275741363 6.8759652799533297 0 -0.69465837861970381 0.71933979245794832 1.5 0 0 1 I I #
coedge $-1 $489 $489 $-1 $667 reversed $333 $-1 #
edge $-1 $668 0 $668 6.2831853071796004 $334 $669 forward 7 unknown #
vertex $-1 $337 $670 #
ellipse-curve $-1 23.083700184272217 -28.640662275741363 6.8759652799533297 0 -0.69465837861970381 0.71933979245794832 1.5 0 0 1 I I #
face $-1 $-1 $505 $69 $-1 $671 forward single #
loop $-1 $-1 $672 $338 #
plane-surface $-1 0 -30.916329493423323 0 0 1 0 0 0 1 forward_v I I I I #
coedge $-1 $673 $674 $675 $676 reversed $339 $-1 #
coedge $-1 $677 $341 $343 $503 forward $214 $-1 #
coedge $-1 $341 $677 $673 $678 forward $214 $-1 #
coedge $-1 $675 $344 $341 $500 forward $505 $-1 #
edge $-1 $507 -32.356154193682066 $679 -16.836610082906965 $499 $680 forward 7 unknown #
coedge $-1 $681 $682 $342 $502 forward $494 $-1 #
edge $-1 $683 -42.901920312778444 $506 -38.506747638369845 $501 $684 forward 7 unknown #
edge $-1 $507 -6.3270994918996788 $683 2.4500672639978428e-014 $343 $685 forward 7 unknown #
coedge $-1 $344 $675 $681 $686 forward $505 $-1 #
loop $-1 $-1 $675 $493 #
vertex $-1 $502 $687 #
vertex $-1 $345 $688 #
straight-curve $-1 56.952536331976582 -59.146997616961769 9.0735516171576336 0 1 0 I I #
coedge $-1 $509 $509 $-1 $689 reversed $348 $-1 #
edge $-1 $690 0 $690 6.2831853071796004 $349 $691 forward 7 unknown #
vertex $-1 $352 $692 #
ellipse-curve $-1 45.867147681422935 -28.640662275741363 6.8759652799533297 0 -0.69465837861970381 0.71933979245794832 1.5 0 0 1 I I #
coedge $-1 $513 $513 $-1 $693 reversed $355 $-1 #
edge $-1 $694 0 $694 6.2831853071796004 $356 $695 forward 7 unknown #
vertex $-1 $359 $696 #
ellipse-curve $-1 52.518380871755127 -28.640662275741363 6.8759652799533297 0 -0.69465837861970381 0.71933979245794832 1.5 0 0 1 I I #
face $-1 $-1 $375 $54 $-1 $697 reversed single #
loop $-1 $-1 $533 $360 #
plane-surface $-1 0 30.916329493423323 0 0 -1 0 0 0 -1 forward_v I I I I #
coedge $-1 $698 $531 $534 $699 forward $361 $-1 #
coedge $-1 $537 $363 $364 $525 reversed $228 $-1 #
coedge $-1 $531 $698 $363 $523 reversed $361 $-1 #
edge $-1 $538 -9.0735516171576318 $700 9.0735516171576318 $522 $701 forward 7 unknown #
coedge $-1 $365 $364 $698 $702 forward $145 $-1 #
edge $-1 $529 -62.892544328135017 $700 62.892544328135017 $521 $703 forward 7 unknown #
coedge $-1 $534 $533 $365 $527 reversed $518 $-1 #
edge $-1 $704 -62.892544328135017 $528 62.892544328135017 $526 $705 forward 7 unknown #
vertex $-1 $367 $706 #
vertex $-1 $540 $707 #
straight-curve $-1 62.892544328135017 0 -9.0735516171576318 0 -1 0 I I #
coedge $-1 $520 $522 $368 $532 reversed $361 $-1 #
edge $-1 $535 -30.916329493423323 $538 30.916329493423323 $531 $708 forward 7 unknown #
coedge $-1 $526 $369 $374 $541 forward $518 $-1 #
coedge $-1 $369 $526 $520 $699 reversed $518 $-1 #
vertex $-1 $370 $709 #
straight-curve $-1 0 30.916329493423323 9.0735516171576318 -1 0 0 I I #
coedge $-1 $371 $521 $373 $540 reversed $228 $-1 #
vertex $-1 $532 $710 #
straight-curve $-1 0 -30.916329493423323 9.0735516171576318 1 0 0 I I #
edge $-1 $376 -9.0735516171576318 $529 9.0735516171576318 $373 $711 forward 7 unknown #
edge $-1 $377 -9.0735516171576318 $528 9.0735516171576318 $374 $712 forward 7 unknown #
point $-1 62.892544328135017 -30.916329493423323 9.0735516171576318 #
point $-1 62.892544328135017 30.916329493423323 9.0735516171576318 #
face $-1 $-1 $553 $55 $-1 $713 reversed single #
loop $-1 $-1 $550 $379 #
plane-surface $-1 0 0 9.0735516171576318 0 0 1 1 0 0 forward_v I I I I #
coedge $-1 $714 $715 $386 $556 forward $380 $-1 #
coedge $-1 $382 $560 $716 $717 reversed $236 $-1 #
edge $-1 $718 -5.793219164092295 $392 -0.76744574203837868 $382 $719 forward 7 unknown #
coedge $-1 $716 $720 $383 $551 forward $545 $-1 #
edge $-1 $554 -30.916329493423323 $718 30.916329493423323 $550 $721 forward 7 unknown #
coedge $-1 $557 $384 $720 $722 reversed $553 $-1 #
loop $-1 $-1 $384 $544 #
vertex $-1 $385 $723 #
straight-curve $-1 -52.81105783740567 -30.916329493423323 3.2803324530653368 0 0 1 I I #
edge $-1 $561 -30.916329493423323 $558 30.916329493423323 $547 $724 forward 7 unknown #
coedge $-1 $387 $552 $714 $725 forward $553 $-1 #
vertex $-1 $556 $726 #
straight-curve $-1 -28.925900541385172 -30.916329493423323 4.0477781951037155 1 0 0 I I #
coedge $-1 $548 $389 $715 $727 reversed $236 $-1 #
vertex $-1 $556 $728 #
straight-curve $-1 -28.925900541385172 30.916329493423323 4.0477781951037155 -1 0 0 I I #
point $-1 -52.81105783740567 30.916329493423323 4.0477781951037155 #
point $-1 -52.81105783740567 -30.916329493423323 4.0477781951037155 #
loop $-1 $-1 $402 $395 #
plane-surface $-1 0 30.916329493423323 0 0 -1 0 0 0 -1 forward_v I I I I #
coedge $-1 $729 $730 $399 $569 forward $396 $-1 #
coedge $-1 $399 $398 $574 $731 reversed $153 $-1 #
edge $-1 $571 31.288780403451696 $732 37.490653241507019 $567 $733 forward 7 unknown #
coedge $-1 $405 $400 $730 $734 forward $244 $-1 #
vertex $-1 $734 $735 #
straight-curve $-1 26.015349811680785 27.629837680865599 9.0735516171576336 1 0 0 I I #
coedge $-1 $736 $402 $405 $578 reversed $565 $-1 #
coedge $-1 $402 $736 $568 $731 forward $565 $-1 #
vertex $-1 $403 $737 #
straight-curve $-1 41.168854918588124 30.916329493423319 61.453537188102338 0 0 1 I I #
straight-curve $-1 41.168854918588124 -1.8499868783042075 56.251134339178449 0 0.52991925155115449 -0.84804810408105047 I I #
edge $-1 $738 -62.892544328135017 $406 -41.168854918588124 $573 $739 forward 7 unknown #
point $-1 41.168854918588124 30.916329493423323 9.0735516171576318 #
point $-1 41.168854918588124 27.629837680865602 9.0735516171576336 #
edge $-1 $740 1 $740 0 $409 $-1 forward 7 unknown #
vertex $-1 $410 $741 #
ellipse-curve $-1 45.513592800497506 28.239622823447434 5.7980304299795309 0 0.84804810408105047 0.52991925155115449 1 0 0 1 I I #
point $-1 46.513592800497506 29.273083587144459 6.4438083661253227 #
edge $-1 $742 1 $742 0 $413 $-1 forward 7 unknown #
vertex $-1 $414 $743 #
ellipse-curve $-1 52.030699623361571 28.239622823447434 5.7980304299795309 0 0.84804810408105047 0.52991925155115449 1 0 0 1 I I #
point $-1 53.030699623361571 29.273083587144459 6.4438083661253227 #
edge $-1 $744 1 $744 0 $417 $-1 forward 7 unknown #
vertex $-1 $418 $745 #
ellipse-curve $-1 58.547806446225636 28.239622823447434 5.7980304299795309 0 0.84804810408105047 0.52991925155115449 1 0 0 1 I I #
point $-1 59.547806446225636 29.273083587144459 6.4438083661253227 #
plane-surface $-1 0 0 9.0735516171576318 0 0 1 1 0 0 forward_v I I I I #
coedge $-1 $604 $603 $596 $746 forward $422 $-1 #
coedge $-1 $596 $424 $426 $600 reversed $273 $-1 #
coedge $-1 $424 $595 $594 $746 reversed $273 $-1 #
coedge $-1 $432 $427 $424 $598 forward $433 $-1 #
edge $-1 $601 -32.78200255890237 $747 -28.230668123538447 $597 $748 forward 7 unknown #
coedge $-1 $426 $425 $604 $749 reversed $172 $-1 #
edge $-1 $750 -2.4500672639978428e-014 $601 6.3270994918996788 $595 $751 forward 7 unknown #
vertex $-1 $428 $752 #
straight-curve $-1 -19.555638892929846 -26.364995058059399 9.0735516171576318 -1 0 0 I I #
coedge $-1 $594 $429 $432 $608 reversed $422 $-1 #
coedge $-1 $429 $594 $599 $749 forward $422 $-1 #
vertex $-1 $430 $753 #
straight-curve $-1 -31.351505730472141 -30.916329493423319 47.580299255527478 0 0 1 I I #
straight-curve $-1 -31.351505730472141 -30.916329493423305 4.678378942749049 0 -0.71933979245794832 -0.69465837861970381 I I #
edge $-1 $747 -46.871049841247242 $434 -31.351505730472141 $603 $754 forward 7 unknown #
point $-1 -31.351505730472141 -30.916329493423323 9.0735516171576318 #
point $-1 -31.351505730472141 -26.364995058059399 9.0735516171576318 #
edge $-1 $755 1 $755 0 $437 $-1 forward 7 unknown #
vertex $-1 $438 $756 #
ellipse-curve $-1 -42.43689438102578 -25.09376419682885 3.2030448827011742 0 -0.69465837861970381 0.71933979245794832 1.5 0 0 1 I I #
point $-1 -40.93689438102578 -28.640662275741381 6.8759652799533475 #
edge $-1 $757 1 $757 0 $441 $-1 forward 7 unknown #
vertex $-1 $442 $758 #
ellipse-curve $-1 -35.785661190693595 -25.09376419682885 3.2030448827011742 0 -0.69465837861970381 0.71933979245794832 1.5 0 0 1 I I #
point $-1 -34.285661190693595 -28.640662275741381 6.8759652799533475 #
plane-surface $-1 0 0 9.0735516171576318 0 0 1 1 0 0 forward_v I I I I #
coedge $-1 $630 $629 $622 $759 forward $446 $-1 #
coedge $-1 $622 $448 $450 $626 reversed $295 $-1 #
coedge $-1 $448 $621 $620 $759 reversed $295 $-1 #
coedge $-1 $456 $451 $448 $624 forward $457 $-1 #
edge $-1 $627 -32.78200255890237 $760 -28.230668123538447 $623 $761 forward 7 unknown #
coedge $-1 $450 $449 $630 $762 reversed $186 $-1 #
edge $-1 $763 -2.4500672639978428e-014 $627 6.3270994918996788 $621 $764 forward 7 unknown #
vertex $-1 $452 $765 #
straight-curve $-1 -4.8382985491883943 -26.364995058059399 9.0735516171576318 -1 0 0 I I #
coedge $-1 $620 $453 $456 $634 reversed $446 $-1 #
coedge $-1 $453 $620 $625 $762 forward $446 $-1 #
vertex $-1 $454 $766 #
straight-curve $-1 -1.9168250429892382 -30.916329493423319 47.580299255527478 0 0 1 I I #
straight-curve $-1 -1.9168250429892382 -30.916329493423305 4.678378942749049 0 -0.71933979245794832 -0.69465837861970381 I I #
edge $-1 $760 -17.436369153764339 $458 -1.9168250429892382 $629 $767 forward 7 unknown #
point $-1 -1.9168250429892382 -30.916329493423323 9.0735516171576318 #
point $-1 -1.9168250429892382 -26.364995058059399 9.0735516171576318 #
edge $-1 $768 1 $768 0 $461 $-1 forward 7 unknown #
vertex $-1 $462 $769 #
ellipse-curve $-1 -13.002213693542878 -25.09376419682885 3.2030448827011742 0 -0.69465837861970381 0.71933979245794832 1.5 0 0 1 I I #
point $-1 -11.502213693542878 -28.640662275741381 6.8759652799533475 #
edge $-1 $770 1 $770 0 $465 $-1 forward 7 unknown #
vertex $-1 $466 $771 #
ellipse-curve $-1 -6.3509805032106925 -25.09376419682885 3.2030448827011742 0 -0.69465837861970381 0.71933979245794832 1.5 0 0 1 I I #
point $-1 -4.8509805032106925 -28.640662275741381 6.8759652799533475 #
plane-surface $-1 0 0 9.0735516171576318 0 0 1 1 0 0 forward_v I I I I #
coedge $-1 $656 $655 $648 $772 forward $470 $-1 #
coedge $-1 $648 $472 $474 $652 reversed $317 $-1 #
coedge $-1 $472 $647 $646 $772 reversed $317 $-1 #
coedge $-1 $480 $475 $472 $650 forward $481 $-1 #
edge $-1 $653 -32.78200255890237 $773 -28.230668123538447 $649 $774 forward 7 unknown #
coedge $-1 $474 $473 $656 $775 reversed $200 $-1 #
edge $-1 $776 -2.4500672639978428e-014 $653 6.3270994918996788 $647 $777 forward 7 unknown #
vertex $-1 $476 $778 #
straight-curve $-1 9.8790417945530606 -26.364995058059399 9.0735516171576318 -1 0 0 I I #
coedge $-1 $646 $477 $480 $660 reversed $470 $-1 #
coedge $-1 $477 $646 $651 $775 forward $470 $-1 #
vertex $-1 $478 $779 #
straight-curve $-1 27.517855644493672 -30.916329493423319 47.580299255527478 0 0 1 I I #
straight-curve $-1 27.517855644493672 -30.916329493423305 4.678378942749049 0 -0.71933979245794832 -0.69465837861970381 I I #
edge $-1 $773 11.998311533718571 $482 27.517855644493672 $655 $780 forward 7 unknown #
point $-1 27.517855644493672 -30.916329493423323 9.0735516171576318 #
point $-1 27.517855644493672 -26.364995058059399 9.0735516171576318 #
edge $-1 $781 1 $781 0 $485 $-1 forward 7 unknown #
vertex $-1 $486 $782 #
ellipse-curve $-1 16.432466993940025 -25.09376419682885 3.2030448827011742 0 -0.69465837861970381 0.71933979245794832 1.5 0 0 1 I I #
point $-1 17.932466993940025 -28.640662275741381 6.8759652799533475 #
edge $-1 $783 1 $783 0 $489 $-1 forward 7 unknown #
vertex $-1 $490 $784 #
ellipse-curve $-1 23.083700184272217 -25.09376419682885 3.2030448827011742 0 -0.69465837861970381 0.71933979245794832 1.5 0 0 1 I I #
point $-1 24.583700184272217 -28.640662275741381 6.8759652799533475 #
plane-surface $-1 0 0 9.0735516171576318 0 0 1 1 0 0 forward_v I I I I #
coedge $-1 $682 $681 $674 $785 forward $494 $-1 #
coedge $-1 $674 $496 $498 $678 reversed $339 $-1 #
coedge $-1 $496 $673 $672 $785 reversed $339 $-1 #
coedge $-1 $504 $499 $496 $676 forward $505 $-1 #
edge $-1 $679 -32.78200255890237 $786 -28.230668123538447 $675 $787 forward 7 unknown #
coedge $-1 $498 $497 $682 $788 reversed $214 $-1 #
edge $-1 $789 -2.4500672639978428e-014 $679 6.3270994918996788 $673 $790 forward 7 unknown #
vertex $-1 $500 $791 #
straight-curve $-1 24.596382138294516 -26.364995058059399 9.0735516171576318 -1 0 0 I I #
coedge $-1 $672 $501 $504 $686 reversed $494 $-1 #
coedge $-1 $501 $672 $677 $788 forward $494 $-1 #
vertex $-1 $502 $792 #
straight-curve $-1 56.952536331976582 -30.916329493423319 47.580299255527478 0 0 1 I I #
straight-curve $-1 56.952536331976582 -30.916329493423305 4.678378942749049 0 -0.71933979245794832 -0.69465837861970381 I I #
edge $-1 $786 41.432992221201481 $506 56.952536331976582 $681 $793 forward 7 unknown #
point $-1 56.952536331976582 -30.916329493423323 9.0735516171576318 #
point $-1 56.952536331976582 -26.364995058059399 9.0735516171576318 #
edge $-1 $794 1 $794 0 $509 $-1 forward 7 unknown #
vertex $-1 $510 $795 #
ellipse-curve $-1 45.867147681422935 -25.09376419682885 3.2030448827011742 0 -0.69465837861970381 0.71933979245794832 1.5 0 0 1 I I #
point $-1 47.367147681422935 -28.640662275741381 6.8759652799533475 #
edge $-1 $796 1 $796 0 $513 $-1 forward 7 unknown #
vertex $-1 $514 $797 #
ellipse-curve $-1 52.518380871755127 -25.09376419682885 3.2030448827011742 0 -0.69465837861970381 0.71933979245794832 1.5 0 0 1 I I #
point $-1 54.018380871755127 -28.640662275741381 6.8759652799533475 #
plane-surface $-1 62.892544328135017 0 0 -1 0 0 0 0 1 forward_v I I I I #
coedge $-1 $522 $520 $524 $702 reversed $361 $-1 #
edge $-1 $535 -9.0735516171576318 $704 9.0735516171576318 $534 $798 forward 7 unknown #
vertex $-1 $702 $799 #
straight-curve $-1 -62.892544328135017 -30.916329493423323 0 0 0 -1 I I #
edge $-1 $700 -30.916329493423323 $704 30.916329493423323 $698 $800 forward 7 unknown #
straight-curve $-1 0 -30.916329493423323 -9.0735516171576318 -1 0 0 I I #
vertex $-1 $527 $801 #
straight-curve $-1 0 30.916329493423323 -9.0735516171576318 1 0 0 I I #
point $-1 62.892544328135017 30.916329493423323 -9.0735516171576318 #
point $-1 62.892544328135017 -30.916329493423323 -9.0735516171576318 #
straight-curve $-1 -62.892544328135017 0 9.0735516171576318 0 -1 0 I I #
point $-1 -62.892544328135017 30.916329493423323 9.0735516171576318 #
point $-1 -62.892544328135017 -30.916329493423323 9.0735516171576318 #
straight-curve $-1 62.892544328135017 -30.916329493423323 0 0 0 -1 I I #
straight-curve $-1 62.892544328135017 30.916329493423323 0 0 0 -1 I I #
plane-surface $-1 0 -30.916329493423323 0 0 1 0 0 0 1 forward_v I I I I #
coedge $-1 $802 $547 $557 $725 reversed $380 $-1 #
coedge $-1 $547 $802 $560 $727 forward $380 $-1 #
coedge $-1 $803 $550 $548 $717 forward $545 $-1 #
edge $-1 $718 52.81105783740567 $804 62.892544328135017 $548 $805 forward 7 unknown #
vertex $-1 $717 $806 #
straight-curve $-1 -52.81105783740567 30.916329493423323 3.2803324530653368 0 0 -1 I I #
coedge $-1 $550 $803 $552 $722 forward $545 $-1 #
straight-curve $-1 -52.81105783740567 0 9.0735516171576318 0 1 0 I I #
edge $-1 $807 -62.892544328135017 $554 -52.81105783740567 $552 $808 forward 7 unknown #
point $-1 -52.81105783740567 -30.916329493423323 9.0735516171576318 #
straight-curve $-1 -62.892544328135017 0 4.0477781951037155 0 -1 0 I I #
edge $-1 $807 -9.0735516171576318 $558 -4.0477781951037155 $714 $809 forward 7 unknown #
point $-1 -62.892544328135017 -30.916329493423323 4.0477781951037155 #
edge $-1 $804 -9.0735516171576318 $561 -4.0477781951037155 $560 $810 forward 7 unknown #
point $-1 -62.892544328135017 30.916329493423323 4.0477781951037155 #
coedge $-1 $730 $567 $736 $811 reversed $396 $-1 #
coedge $-1 $567 $729 $570 $734 reversed $396 $-1 #
edge $-1 $732 -36.877194516454232 $575 -15.153505106907339 $574 $812 forward 7 unknown #
vertex $-1 $569 $813 #
straight-curve $-1 62.892544328135017 11.049310587520051 35.60794251731317 0 0.52991925155115449 -0.84804810408105047 I I #
edge $-1 $571 27.629837680865602 $738 30.916329493423323 $730 $814 forward 7 unknown #
point $-1 62.892544328135017 27.629837680865602 9.0735516171576336 #
coedge $-1 $574 $573 $729 $811 forward $565 $-1 #
point $-1 41.168854918588124 30.916329493423319 3.8140651150930509 #
vertex $-1 $734 $815 #
straight-curve $-1 0 30.916329493423323 9.0735516171576318 -1 0 0 I I #
vertex $-1 $581 $816 #
point $-1 46.513592800497506 28.239622823447434 5.7980304299795309 #
vertex $-1 $585 $817 #
point $-1 53.030699623361571 28.239622823447434 5.7980304299795309 #
vertex $-1 $589 $818 #
point $-1 59.547806446225636 28.239622823447434 5.7980304299795309 #
edge $-1 $747 38.506747638369845 $750 42.901920312778444 $594 $819 forward 7 unknown #
vertex $-1 $608 $820 #
straight-curve $-1 -46.871049841247242 -59.146997616961769 9.0735516171576336 0 -1 0 I I #
edge $-1 $750 -27.315410948317396 $605 -11.795866837542295 $604 $821 forward 7 unknown #
vertex $-1 $749 $822 #
straight-curve $-1 -46.871049841247242 -30.916329493423305 4.678378942749049 0 0.71933979245794832 0.69465837861970381 I I #
point $-1 -46.871049841247242 -26.364995058059399 9.0735516171576318 #
point $-1 -31.351505730472141 -30.916329493423323 4.6783789427490321 #
straight-curve $-1 0 -30.916329493423323 9.0735516171576318 1 0 0 I I #
vertex $-1 $611 $823 #
point $-1 -40.93689438102578 -25.09376419682885 3.2030448827011742 #
vertex $-1 $615 $824 #
point $-1 -34.285661190693595 -25.09376419682885 3.2030448827011742 #
edge $-1 $760 38.506747638369845 $763 42.901920312778444 $620 $825 forward 7 unknown #
vertex $-1 $634 $826 #
straight-curve $-1 -17.436369153764339 -59.146997616961769 9.0735516171576336 0 -1 0 I I #
edge $-1 $763 -12.598070604575945 $631 2.9214735061991561 $630 $827 forward 7 unknown #
vertex $-1 $762 $828 #
straight-curve $-1 -17.436369153764339 -30.916329493423305 4.678378942749049 0 0.71933979245794832 0.69465837861970381 I I #
point $-1 -17.436369153764339 -26.364995058059399 9.0735516171576318 #
point $-1 -1.9168250429892382 -30.916329493423323 4.6783789427490321 #
straight-curve $-1 0 -30.916329493423323 9.0735516171576318 1 0 0 I I #
vertex $-1 $637 $829 #
point $-1 -11.502213693542878 -25.09376419682885 3.2030448827011742 #
vertex $-1 $641 $830 #
point $-1 -4.8509805032106925 -25.09376419682885 3.2030448827011742 #
edge $-1 $773 38.506747638369845 $776 42.901920312778444 $646 $831 forward 7 unknown #
vertex $-1 $660 $832 #
straight-curve $-1 11.998311533718571 -59.146997616961769 9.0735516171576336 0 -1 0 I I #
edge $-1 $776 2.1192697391655102 $657 17.638813849940611 $656 $833 forward 7 unknown #
vertex $-1 $775 $834 #
straight-curve $-1 11.998311533718571 -30.916329493423305 4.678378942749049 0 0.71933979245794832 0.69465837861970381 I I #
point $-1 11.998311533718571 -26.364995058059399 9.0735516171576318 #
point $-1 27.517855644493672 -30.916329493423323 4.6783789427490321 #
straight-curve $-1 0 -30.916329493423323 9.0735516171576318 1 0 0 I I #
vertex $-1 $663 $835 #
point $-1 17.932466993940025 -25.09376419682885 3.2030448827011742 #
vertex $-1 $667 $836 #
point $-1 24.583700184272217 -25.09376419682885 3.2030448827011742 #
edge $-1 $786 38.506747638369845 $789 42.901920312778444 $672 $837 forward 7 unknown #
vertex $-1 $686 $838 #
straight-curve $-1 41.432992221201481 -59.146997616961769 9.0735516171576336 0 -1 0 I I #
edge $-1 $789 16.836610082906965 $683 32.356154193682066 $682 $839 forward 7 unknown #
vertex $-1 $788 $840 #
straight-curve $-1 41.432992221201481 -30.916329493423305 4.678378942749049 0 0.71933979245794832 0.69465837861970381 I I #
point $-1 41.432992221201481 -26.364995058059399 9.0735516171576318 #
point $-1 56.952536331976582 -30.916329493423323 4.6783789427490321 #
straight-curve $-1 0 -30.916329493423323 9.0735516171576318 1 0 0 I I #
vertex $-1 $689 $841 #
point $-1 47.367147681422935 -25.09376419682885 3.2030448827011742 #
vertex $-1 $693 $842 #
point $-1 54.018380871755127 -25.09376419682885 3.2030448827011742 #
straight-curve $-1 -62.892544328135017 30.916329493423323 0 0 0 -1 I I #
point $-1 -62.892544328135017 -30.916329493423323 -9.0735516171576318 #
straight-curve $-1 -62.892544328135017 0 -9.0735516171576318 0 1 0 I I #
point $-1 -62.892544328135017 30.916329493423323 -9.0735516171576318 #
coedge $-1 $715 $714 $803 $843 reversed $380 $-1 #
coedge $-1 $720 $716 $802 $843 forward $545 $-1 #
vertex $-1 $717 $844 #
straight-curve $-1 0 30.916329493423323 9.0735516171576318 -1 0 0 I I #
point $-1 -52.81105783740567 30.916329493423323 9.0735516171576318 #
vertex $-1 $843 $845 #
straight-curve $-1 0 -30.916329493423323 9.0735516171576318 1 0 0 I I #
straight-curve $-1 -62.892544328135017 -30.916329493423323 0 0 0 -1 I I #
straight-curve $-1 -62.892544328135017 30.916329493423323 0 0 0 -1 I I #
edge $-1 $738 -9.0735516171576318 $732 -3.8140651150930509 $729 $846 forward 7 unknown #
straight-curve $-1 26.015349811680785 30.916329493423319 3.8140651150930438 -1 0 0 I I #
point $-1 62.892544328135017 30.916329493423319 3.8140651150930509 #
straight-curve $-1 62.892544328135017 0 9.0735516171576318 0 1 0 I I #
point $-1 62.892544328135017 30.916329493423323 9.0735516171576318 #
point $-1 45.513592800497506 27.391574719366382 5.2681111784283763 #
point $-1 52.030699623361571 27.391574719366382 5.2681111784283763 #
point $-1 58.547806446225636 27.391574719366382 5.2681111784283763 #
straight-curve $-1 -46.871049841247242 -30.916329493423319 47.580299255527478 0 0 -1 I I #
point $-1 -46.871049841247242 -30.916329493423323 9.0735516171576318 #
straight-curve $-1 -19.555638892929846 -30.916329493423323 4.6783789427490303 1 0 0 I I #
point $-1 -46.871049841247242 -30.916329493423323 4.6783789427490321 #
point $-1 -42.43689438102578 -24.051776628899297 2.1240351940142514 #
point $-1 -35.785661190693595 -24.051776628899297 2.1240351940142514 #
straight-curve $-1 -17.436369153764339 -30.916329493423319 47.580299255527478 0 0 -1 I I #
point $-1 -17.436369153764339 -30.916329493423323 9.0735516171576318 #
straight-curve $-1 -4.8382985491883943 -30.916329493423323 4.6783789427490303 1 0 0 I I #
point $-1 -17.436369153764339 -30.916329493423323 4.6783789427490321 #
point $-1 -13.002213693542878 -24.051776628899297 2.1240351940142514 #
point $-1 -6.3509805032106925 -24.051776628899297 2.1240351940142514 #
straight-curve $-1 11.998311533718571 -30.916329493423319 47.580299255527478 0 0 -1 I I #
point $-1 11.998311533718571 -30.916329493423323 9.0735516171576318 #
straight-curve $-1 9.8790417945530606 -30.916329493423323 4.6783789427490303 1 0 0 I I #
point $-1 11.998311533718571 -30.916329493423323 4.6783789427490321 #
point $-1 16.432466993940025 -24.051776628899297 2.1240351940142514 #
point $-1 23.083700184272217 -24.051776628899297 2.1240351940142514 #
straight-curve $-1 41.432992221201481 -30.916329493423319 47.580299255527478 0 0 -1 I I #
point $-1 41.432992221201481 -30.916329493423323 9.0735516171576318 #
straight-curve $-1 24.596382138294516 -30.916329493423323 4.6783789427490303 1 0 0 I I #
point $-1 41.432992221201481 -30.916329493423323 4.6783789427490321 #
point $-1 45.867147681422935 -24.051776628899297 2.1240351940142514 #
point $-1 52.518380871755127 -24.051776628899297 2.1240351940142514 #
edge $-1 $804 -30.916329493423323 $807 30.916329493423323 $802 $847 forward 7 unknown #
point $-1 -62.892544328135017 30.916329493423323 9.0735516171576318 #
point $-1 -62.892544328135017 -30.916329493423323 9.0735516171576318 #
straight-curve $-1 62.892544328135017 30.916329493423323 0 0 0 -1 I I #
straight-curve $-1 -62.892544328135017 0 9.0735516171576318 0 -1 0 I I #
End-of-ACIS-data 