500 0 14 0           
7 Unknown 11 ACIS 5.0 NT 24 Thu Mar 25 18:45:54 1999 
-1 9.9999999999999995e-007 1e-010 
body $-1 $14 $-1 $15 #
body $-1 $16 $-1 $17 #
body $-1 $18 $-1 $19 #
body $-1 $20 $-1 $21 #
body $-1 $22 $-1 $23 #
body $-1 $24 $-1 $25 #
body $-1 $26 $-1 $27 #
body $-1 $28 $-1 $29 #
body $-1 $30 $-1 $31 #
body $-1 $32 $-1 $33 #
body $-1 $34 $-1 $35 #
body $-1 $36 $-1 $37 #
body $-1 $38 $-1 $39 #
body $-1 $40 $-1 $41 #
lump $-1 $-1 $42 $0 #
transform $-1 1 0 0 0 1 0 0 0 1 44.879299295022435 25.107863489383625 12.499910797519306 1 rotate no_reflect no_shear #
lump $-1 $-1 $43 $1 #
transform $-1 1 0 0 0 1 0 0 0 1 44.879299295022435 25.107863489383625 12.499910797519306 1 rotate no_reflect no_shear #
lump $-1 $-1 $44 $2 #
transform $-1 1 0 0 0 1 0 0 0 1 44.879299295022435 25.107863489383625 12.499910797519306 1 rotate no_reflect no_shear #
lump $-1 $-1 $45 $3 #
transform $-1 1 0 0 0 1 0 0 0 1 44.879299295022435 25.107863489383625 12.499910797519306 1 rotate no_reflect no_shear #
lump $-1 $-1 $46 $4 #
transform $-1 1 0 0 0 1 0 0 0 1 44.879299295022435 25.107863489383625 12.499910797519306 1 rotate no_reflect no_shear #
lump $-1 $-1 $47 $5 #
transform $-1 1 0 0 0 1 0 0 0 1 44.879299295022435 25.107863489383625 12.499910797519306 1 rotate no_reflect no_shear #
lump $-1 $-1 $48 $6 #
transform $-1 1 0 0 0 1 0 0 0 1 44.879299295022435 25.107863489383625 12.499910797519306 1 rotate no_reflect no_shear #
lump $-1 $-1 $49 $7 #
transform $-1 1 0 0 0 1 0 0 0 1 44.879299295022435 25.107863489383625 12.499910797519306 1 rotate no_reflect no_shear #
lump $-1 $-1 $50 $8 #
transform $-1 1 0 0 0 1 0 0 0 1 44.879299295022435 25.107863489383625 12.499910797519306 1 rotate no_reflect no_shear #
lump $-1 $-1 $51 $9 #
transform $-1 1 0 0 0 1 0 0 0 1 44.879299295022435 25.107863489383625 12.499910797519306 1 rotate no_reflect no_shear #
lump $-1 $-1 $52 $10 #
transform $-1 1 0 0 0 1 0 0 0 1 44.879299295022435 25.107863489383625 12.499910797519306 1 rotate no_reflect no_shear #
lump $-1 $-1 $53 $11 #
transform $-1 1 0 0 0 1 0 0 0 1 44.879299295022435 25.107863489383625 12.499910797519306 1 rotate no_reflect no_shear #
lump $-1 $-1 $54 $12 #
transform $-1 1 0 0 0 1 0 0 0 1 44.879299295022435 25.107863489383625 12.499910797519306 1 rotate no_reflect no_shear #
lump $-1 $-1 $55 $13 #
transform $-1 1 0 0 0 1 0 0 0 1 44.879299295022435 25.107863489383625 12.499910797519306 1 rotate no_reflect no_shear #
shell $-1 $-1 $-1 $56 $-1 $14 #
shell $-1 $-1 $-1 $57 $-1 $16 #
shell $-1 $-1 $-1 $58 $-1 $18 #
shell $-1 $-1 $-1 $59 $-1 $20 #
shell $-1 $-1 $-1 $60 $-1 $22 #
shell $-1 $-1 $-1 $61 $-1 $24 #
shell $-1 $-1 $-1 $62 $-1 $26 #
shell $-1 $-1 $-1 $63 $-1 $28 #
shell $-1 $-1 $-1 $64 $-1 $30 #
shell $-1 $-1 $-1 $65 $-1 $32 #
shell $-1 $-1 $-1 $66 $-1 $34 #
shell $-1 $-1 $-1 $67 $-1 $36 #
shell $-1 $-1 $-1 $68 $-1 $38 #
shell $-1 $-1 $-1 $69 $-1 $40 #
face $-1 $70 $71 $42 $-1 $72 forward single #
face $-1 $73 $74 $43 $-1 $75 reversed single #
face $-1 $76 $77 $44 $-1 $78 reversed single #
face $-1 $79 $80 $45 $-1 $81 forward single #
face $-1 $82 $83 $46 $-1 $84 forward single #
face $-1 $85 $86 $47 $-1 $87 forward single #
face $-1 $88 $89 $48 $-1 $90 reversed single #
face $-1 $91 $92 $49 $-1 $93 forward single #
face $-1 $94 $95 $50 $-1 $96 forward single #
face $-1 $97 $98 $51 $-1 $99 forward single #
face $-1 $100 $101 $52 $-1 $102 reversed single #
face $-1 $103 $104 $53 $-1 $105 forward single #
face $-1 $106 $107 $54 $-1 $108 reversed single #
face $-1 $109 $110 $55 $-1 $111 forward single #
face $-1 $112 $113 $42 $-1 $114 reversed single #
loop $-1 $-1 $115 $56 #
plane-surface $-1 0 0 12.499910797519306 0 0 1 1 0 0 forward_v I I I I #
face $-1 $116 $117 $43 $-1 $118 reversed single #
loop $-1 $-1 $119 $57 #
plane-surface $-1 0 -17.115615003263574 9.4999107975193056 0 0 1 1 0 0 forward_v I I I I #
face $-1 $120 $121 $44 $-1 $122 reversed single #
loop $-1 $-1 $123 $58 #
plane-surface $-1 16.324502190989655 -2.2639987756516451 129.17121440937581 0 -1 0 -0.52991927123019833 0 -0.84804809178421925 forward_v I I I I #
face $-1 $124 $125 $45 $-1 $126 forward single #
loop $-1 $127 $128 $59 #
cone-surface $-1 39.002674080874044 -7.7514929688451488 8.5693288540585666 -0.52991927123019833 0 -0.84804809178421925 0.42402404589210962 0 -0.26495963561509916 1 I I 0 1 0.5 forward I I I I #
face $-1 $129 $130 $46 $-1 $131 forward single #
loop $-1 $132 $133 $60 #
cone-surface $-1 39.002674080874044 -5.6936826463975869 8.5693288540585666 -0.52991927123019833 0 -0.84804809178421925 0.42402404589210962 0 -0.26495963561509916 1 I I 0 1 0.5 forward I I I I #
face $-1 $134 $135 $47 $-1 $136 forward single #
loop $-1 $137 $138 $61 #
cone-surface $-1 39.002674080874044 -3.635872323950025 8.5693288540585666 -0.52991927123019833 0 -0.84804809178421925 0.42402404589210962 0 -0.26495963561509916 1 I I 0 1 0.5 forward I I I I #
face $-1 $139 $140 $48 $-1 $141 reversed single #
loop $-1 $-1 $142 $62 #
plane-surface $-1 -31.240308960490829 21.678179618637692 53.051606153862537 0.52991927123019833 0 0.84804809178421925 0.84804809178421925 0 -0.52991927123019833 forward_v I I I I #
face $-1 $143 $144 $49 $-1 $145 forward single #
loop $-1 $146 $147 $63 #
cone-surface $-1 39.002674080874044 19.620369296190127 8.5693288540585666 -0.52991927123019833 0 -0.84804809178421925 0.42402404589210962 0 -0.26495963561509916 1 I I 0 1 0.5 forward I I I I #
face $-1 $148 $149 $50 $-1 $150 forward single #
loop $-1 $151 $152 $64 #
cone-surface $-1 39.002674080874044 21.678179618637685 8.5693288540585666 -0.52991927123019833 0 -0.84804809178421925 0.42402404589210962 0 -0.26495963561509916 1 I I 0 1 0.5 forward I I I I #
face $-1 $153 $154 $51 $-1 $155 forward single #
loop $-1 $156 $157 $65 #
cone-surface $-1 39.002674080874044 23.735989941085244 8.5693288540585666 -0.52991927123019833 0 -0.84804809178421925 0.42402404589210962 0 -0.26495963561509916 1 I I 0 1 0.5 forward I I I I #
face $-1 $158 $159 $52 $-1 $160 reversed single #
loop $-1 $-1 $161 $66 #
plane-surface $-1 -89.758599191314062 1.4371604663408917 80.780898053138174 0 1 0 -0.50000000669873634 0 0.8660253999169214 forward_v I I I I #
face $-1 $162 $163 $53 $-1 $164 forward single #
loop $-1 $165 $166 $67 #
cone-surface $-1 -35.8185996427204 4.7147044762304695 6.258557405712514 0.50000000669873634 0 -0.8660253999169214 0.8660253999169214 0 0.50000000669873634 1 I I 0 1 1 forward I I I I #
face $-1 $167 $168 $54 $-1 $169 reversed single #
loop $-1 $-1 $170 $68 #
plane-surface $-1 -44.879299295022442 21.830319479494044 3.0476718132121476 -0.50000000669873634 0 0.8660253999169214 0.8660253999169214 0 0.50000000669873634 forward_v I I I I #
face $-1 $171 $172 $55 $-1 $173 forward single #
loop $-1 $174 $175 $69 #
cone-surface $-1 -35.8185996427204 21.830319479494044 6.258557405712514 0.50000000669873634 0 -0.8660253999169214 0.8660253999169214 0 0.50000000669873634 1 I I 0 1 1 forward I I I I #
face $-1 $176 $177 $42 $-1 $178 reversed single #
loop $-1 $-1 $179 $70 #
plane-surface $-1 0 0 -12.499910797519306 0 0 1 1 0 0 forward_v I I I I #
coedge $-1 $180 $181 $182 $183 forward $71 $-1 #
face $-1 $184 $185 $43 $-1 $186 reversed single #
loop $-1 $-1 $187 $73 #
plane-surface $-1 0 -9.1233665171435234 10.999910797519306 0 -1 0 0 0 -1 forward_v I I I I #
coedge $-1 $188 $189 $190 $191 reversed $74 $-1 #
face $-1 $192 $193 $44 $-1 $194 forward single #
loop $-1 $-1 $195 $76 #
plane-surface $-1 -31.240308960490829 -5.6936826463975834 53.051606153862537 0.52991927123019833 0 0.84804809178421925 0.84804809178421925 0 -0.52991927123019833 forward_v I I I I #
coedge $-1 $196 $197 $198 $199 reversed $77 $-1 #
face $-1 $-1 $200 $45 $-1 $201 forward single #
loop $-1 $202 $203 $79 #
cone-surface $-1 38.605234627451395 -7.7514929688451488 7.9332927852204023 -0.52991927123019833 0 -0.84804809178421925 0.21201202294605481 0 -0.13247981780754958 1 I I -0.70710678118654746 0.70710678118654746 0.25 forward I I I I #
loop $-1 $-1 $204 $59 #
coedge $-1 $128 $128 $205 $206 reversed $80 $-1 #
face $-1 $-1 $207 $46 $-1 $208 forward single #
loop $-1 $209 $210 $82 #
cone-surface $-1 38.605234627451395 -5.6936826463975869 7.9332927852204023 -0.52991927123019833 0 -0.84804809178421925 0.21201202294605481 0 -0.13247981780754958 1 I I -0.70710678118654746 0.70710678118654746 0.25 forward I I I I #
loop $-1 $-1 $211 $60 #
coedge $-1 $133 $133 $212 $213 reversed $83 $-1 #
face $-1 $-1 $214 $47 $-1 $215 forward single #
loop $-1 $216 $217 $85 #
cone-surface $-1 38.605234627451395 -3.635872323950025 7.9332927852204023 -0.52991927123019833 0 -0.84804809178421925 0.21201202294605481 0 -0.13247981780754958 1 I I -0.70710678118654746 0.70710678118654746 0.25 forward I I I I #
loop $-1 $-1 $218 $61 #
coedge $-1 $138 $138 $219 $220 reversed $86 $-1 #
face $-1 $221 $222 $48 $-1 $223 reversed single #
loop $-1 $-1 $224 $88 #
plane-surface $-1 16.324502190989655 18.248495747891752 129.17121440937581 0 1 0 0.52991927123019833 0 0.84804809178421925 forward_v I I I I #
coedge $-1 $225 $226 $227 $228 reversed $89 $-1 #
face $-1 $-1 $229 $49 $-1 $230 forward single #
loop $-1 $231 $232 $91 #
cone-surface $-1 38.605234627451395 19.620369296190127 7.9332927852204023 -0.52991927123019833 0 -0.84804809178421925 0.21201202294605481 0 -0.13247981780754958 1 I I -0.70710678118654746 0.70710678118654746 0.25 forward I I I I #
loop $-1 $-1 $233 $63 #
coedge $-1 $147 $147 $234 $235 reversed $92 $-1 #
face $-1 $-1 $236 $50 $-1 $237 forward single #
loop $-1 $238 $239 $94 #
cone-surface $-1 38.605234627451395 21.678179618637685 7.9332927852204023 -0.52991927123019833 0 -0.84804809178421925 0.21201202294605481 0 -0.13247981780754958 1 I I -0.70710678118654746 0.70710678118654746 0.25 forward I I I I #
loop $-1 $-1 $240 $64 #
coedge $-1 $152 $152 $241 $242 reversed $95 $-1 #
face $-1 $-1 $243 $51 $-1 $244 forward single #
loop $-1 $245 $246 $97 #
cone-surface $-1 38.605234627451395 23.735989941085244 7.9332927852204023 -0.52991927123019833 0 -0.84804809178421925 0.21201202294605481 0 -0.13247981780754958 1 I I -0.70710678118654746 0.70710678118654746 0.25 forward I I I I #
loop $-1 $-1 $247 $65 #
coedge $-1 $157 $157 $248 $249 reversed $98 $-1 #
face $-1 $250 $251 $52 $-1 $252 reversed single #
loop $-1 $-1 $253 $100 #
plane-surface $-1 -44.879299295022442 4.7147044762304695 3.0476718132121476 -0.50000000669873634 0 0.8660253999169214 0.8660253999169214 0 0.50000000669873634 forward_v I I I I #
coedge $-1 $254 $255 $256 $257 reversed $101 $-1 #
face $-1 $-1 $258 $53 $-1 $259 forward single #
loop $-1 $260 $261 $103 #
cone-surface $-1 -34.693778923893817 4.7147044762304695 4.3103108061008335 0.50000000669873634 0 -0.8660253999169214 0.4330126999584607 0 0.25000000334936817 1 I I -0.70710678118654746 0.70710678118654746 0.5 forward I I I I #
loop $-1 $-1 $262 $67 #
coedge $-1 $166 $166 $263 $264 reversed $104 $-1 #
face $-1 $265 $266 $54 $-1 $267 forward single #
loop $-1 $-1 $268 $106 #
plane-surface $-1 -89.758599191314062 18.552775469604466 80.780898053138174 0 1 0 -0.50000000669873634 0 0.8660253999169214 forward_v I I I I #
coedge $-1 $269 $270 $271 $272 reversed $107 $-1 #
face $-1 $-1 $273 $55 $-1 $274 forward single #
loop $-1 $275 $276 $109 #
cone-surface $-1 -34.693778923893817 21.830319479494044 4.3103108061008335 0.50000000669873634 0 -0.8660253999169214 0.4330126999584607 0 0.25000000334936817 1 I I -0.70710678118654746 0.70710678118654746 0.5 forward I I I I #
loop $-1 $-1 $277 $69 #
coedge $-1 $175 $175 $278 $279 reversed $110 $-1 #
face $-1 $280 $281 $42 $-1 $282 reversed single #
loop $-1 $-1 $283 $112 #
plane-surface $-1 0 -25.107863489383625 0 0 1 0 0 0 1 forward_v I I I I #
coedge $-1 $284 $285 $286 $287 forward $113 $-1 #
coedge $-1 $288 $115 $289 $290 forward $71 $-1 #
coedge $-1 $115 $288 $291 $292 forward $71 $-1 #
coedge $-1 $293 $294 $115 $183 reversed $295 $-1 #
edge $-1 $296 -25.107863489383625 $297 25.107863489383625 $182 $298 forward 7 unknown #
face $-1 $299 $300 $43 $-1 $301 reversed single #
loop $-1 $-1 $302 $116 #
plane-surface $-1 -44.879299295022435 0 0 1 0 0 0 0 -1 forward_v I I I I #
coedge $-1 $303 $304 $189 $305 reversed $117 $-1 #
coedge $-1 $306 $119 $307 $308 reversed $74 $-1 #
coedge $-1 $119 $306 $187 $305 forward $74 $-1 #
coedge $-1 $309 $310 $119 $191 forward $311 $-1 #
edge $-1 $312 -16.55005598775184 $313 -0.56555901551173626 $190 $314 forward 7 unknown #
face $-1 $315 $316 $44 $-1 $317 forward single #
loop $-1 $-1 $318 $120 #
plane-surface $-1 0 -9.1233665171435234 10.999910797519306 0 -1 0 0 0 -1 forward_v I I I I #
coedge $-1 $319 $320 $321 $322 reversed $121 $-1 #
coedge $-1 $197 $123 $323 $324 reversed $77 $-1 #
coedge $-1 $123 $196 $319 $325 reversed $77 $-1 #
coedge $-1 $321 $326 $123 $199 forward $316 $-1 #
edge $-1 $327 -36.717048199527611 $328 -25.493717042461004 $198 $329 forward 7 unknown #
loop $-1 $-1 $205 $124 #
plane-surface $-1 -31.240308960490829 -5.6936826463975834 53.051606153862537 0.52991927123019833 0 0.84804809178421925 0.84804809178421925 0 -0.52991927123019833 forward_v I I I I #
loop $-1 $-1 $330 $79 #
coedge $-1 $203 $203 $204 $331 reversed $125 $-1 #
coedge $-1 $204 $204 $203 $331 forward $127 $-1 #
coedge $-1 $205 $205 $128 $206 forward $200 $-1 #
edge $-1 $332 0 $332 6.2831853071796004 $205 $333 forward 7 unknown #
loop $-1 $-1 $212 $129 #
plane-surface $-1 -31.240308960490829 -5.6936826463975834 53.051606153862537 0.52991927123019833 0 0.84804809178421925 0.84804809178421925 0 -0.52991927123019833 forward_v I I I I #
loop $-1 $-1 $334 $82 #
coedge $-1 $210 $210 $211 $335 reversed $130 $-1 #
coedge $-1 $211 $211 $210 $335 forward $132 $-1 #
coedge $-1 $212 $212 $133 $213 forward $207 $-1 #
edge $-1 $336 0 $336 6.2831853071796004 $212 $337 forward 7 unknown #
loop $-1 $-1 $219 $134 #
plane-surface $-1 -31.240308960490829 -5.6936826463975834 53.051606153862537 0.52991927123019833 0 0.84804809178421925 0.84804809178421925 0 -0.52991927123019833 forward_v I I I I #
loop $-1 $-1 $338 $85 #
coedge $-1 $217 $217 $218 $339 reversed $135 $-1 #
coedge $-1 $218 $218 $217 $339 forward $137 $-1 #
coedge $-1 $219 $219 $138 $220 forward $214 $-1 #
edge $-1 $340 0 $340 6.2831853071796004 $219 $341 forward 7 unknown #
face $-1 $342 $343 $48 $-1 $344 forward single #
loop $-1 $-1 $345 $139 #
plane-surface $-1 0 25.107863489383625 0 0 -1 0 0 0 -1 forward_v I I I I #
coedge $-1 $346 $347 $348 $349 reversed $140 $-1 #
coedge $-1 $350 $142 $345 $351 reversed $89 $-1 #
coedge $-1 $142 $350 $346 $352 forward $89 $-1 #
coedge $-1 $348 $353 $142 $228 forward $343 $-1 #
edge $-1 $354 -14.268773680064786 $355 -7.4094059385729061 $227 $356 forward 7 unknown #
loop $-1 $-1 $234 $143 #
plane-surface $-1 -31.240308960490829 21.678179618637692 53.051606153862537 0.52991927123019833 0 0.84804809178421925 0.84804809178421925 0 -0.52991927123019833 forward_v I I I I #
loop $-1 $-1 $357 $91 #
coedge $-1 $232 $232 $233 $358 reversed $144 $-1 #
coedge $-1 $233 $233 $232 $358 forward $146 $-1 #
coedge $-1 $234 $234 $147 $235 forward $229 $-1 #
edge $-1 $359 0 $359 6.2831853071796004 $234 $360 forward 7 unknown #
loop $-1 $-1 $241 $148 #
plane-surface $-1 -31.240308960490829 21.678179618637692 53.051606153862537 0.52991927123019833 0 0.84804809178421925 0.84804809178421925 0 -0.52991927123019833 forward_v I I I I #
loop $-1 $-1 $361 $94 #
coedge $-1 $239 $239 $240 $362 reversed $149 $-1 #
coedge $-1 $240 $240 $239 $362 forward $151 $-1 #
coedge $-1 $241 $241 $152 $242 forward $236 $-1 #
edge $-1 $363 0 $363 6.2831853071796004 $241 $364 forward 7 unknown #
loop $-1 $-1 $248 $153 #
plane-surface $-1 -31.240308960490829 21.678179618637692 53.051606153862537 0.52991927123019833 0 0.84804809178421925 0.84804809178421925 0 -0.52991927123019833 forward_v I I I I #
loop $-1 $-1 $365 $97 #
coedge $-1 $246 $246 $247 $366 reversed $154 $-1 #
coedge $-1 $247 $247 $246 $366 forward $156 $-1 #
coedge $-1 $248 $248 $157 $249 forward $243 $-1 #
edge $-1 $367 0 $367 6.2831853071796004 $248 $368 forward 7 unknown #
face $-1 $369 $370 $52 $-1 $371 reversed single #
loop $-1 $-1 $372 $158 #
plane-surface $-1 -89.758599191314062 7.9922484861200473 80.780898053138174 0 -1 0 0.50000000669873634 0 -0.8660253999169214 forward_v I I I I #
coedge $-1 $373 $374 $375 $376 reversed $159 $-1 #
coedge $-1 $255 $161 $377 $378 reversed $101 $-1 #
coedge $-1 $161 $254 $373 $379 reversed $101 $-1 #
coedge $-1 $375 $380 $161 $257 forward $381 $-1 #
edge $-1 $382 3.0063459632856393e-007 $383 16.371758174284253 $256 $384 forward 7 unknown #
loop $-1 $-1 $263 $162 #
plane-surface $-1 -44.879299295022442 4.7147044762304695 3.0476718132121476 -0.50000000669873634 0 0.8660253999169214 0.8660253999169214 0 0.50000000669873634 forward_v I I I I #
loop $-1 $-1 $385 $103 #
coedge $-1 $261 $261 $262 $386 reversed $163 $-1 #
coedge $-1 $262 $262 $261 $386 forward $165 $-1 #
coedge $-1 $263 $263 $166 $264 forward $258 $-1 #
edge $-1 $387 0 $387 6.2831853071796004 $263 $388 forward 7 unknown #
face $-1 $389 $390 $54 $-1 $391 reversed single #
loop $-1 $-1 $392 $167 #
plane-surface $-1 0 0 12.499910797519306 0 0 1 1 0 0 forward_v I I I I #
coedge $-1 $393 $394 $395 $396 reversed $168 $-1 #
coedge $-1 $397 $170 $398 $399 reversed $107 $-1 #
coedge $-1 $170 $397 $393 $400 forward $107 $-1 #
coedge $-1 $395 $401 $170 $272 forward $402 $-1 #
edge $-1 $403 -14.192703749636603 $404 -7.6376157298574441 $271 $405 forward 7 unknown #
loop $-1 $-1 $278 $171 #
plane-surface $-1 -44.879299295022442 21.830319479494044 3.0476718132121476 -0.50000000669873634 0 0.8660253999169214 0.8660253999169214 0 0.50000000669873634 forward_v I I I I #
loop $-1 $-1 $406 $109 #
coedge $-1 $276 $276 $277 $407 reversed $172 $-1 #
coedge $-1 $277 $277 $276 $407 forward $174 $-1 #
coedge $-1 $278 $278 $175 $279 forward $273 $-1 #
edge $-1 $408 0 $408 6.2831853071796004 $278 $409 forward 7 unknown #
face $-1 $410 $411 $42 $-1 $412 reversed single #
loop $-1 $-1 $413 $176 #
plane-surface $-1 -44.879299295022435 0 0 1 0 0 0 0 -1 forward_v I I I I #
coedge $-1 $414 $291 $415 $416 forward $177 $-1 #
coedge $-1 $417 $179 $414 $418 forward $113 $-1 #
coedge $-1 $179 $417 $419 $420 forward $113 $-1 #
coedge $-1 $294 $293 $179 $287 reversed $295 $-1 #
edge $-1 $421 -25.107863489383625 $422 25.107863489383625 $286 $423 forward 7 unknown #
coedge $-1 $181 $180 $424 $425 forward $71 $-1 #
coedge $-1 $426 $427 $180 $290 reversed $411 $-1 #
edge $-1 $297 -44.879299295022435 $428 44.879299295022435 $289 $429 forward 7 unknown #
coedge $-1 $283 $430 $181 $292 reversed $177 $-1 #
edge $-1 $431 -44.879299295022435 $296 44.879299295022435 $291 $432 forward 7 unknown #
coedge $-1 $286 $182 $430 $433 forward $295 $-1 #
coedge $-1 $182 $286 $426 $434 reversed $295 $-1 #
loop $-1 $-1 $293 $410 #
vertex $-1 $183 $435 #
vertex $-1 $183 $436 #
straight-curve $-1 44.879299295022435 0 12.499910797519306 0 1 0 I I #
face $-1 $437 $438 $43 $-1 $439 forward single #
loop $-1 $-1 $307 $184 #
plane-surface $-1 0 -25.107863489383625 0 0 1 0 0 0 1 forward_v I I I I #
coedge $-1 $440 $441 $303 $442 forward $185 $-1 #
coedge $-1 $443 $187 $302 $442 reversed $117 $-1 #
coedge $-1 $187 $443 $309 $444 reversed $117 $-1 #
edge $-1 $445 -44.879299295022435 $313 44.879299295022435 $187 $446 forward 7 unknown #
coedge $-1 $189 $188 $440 $447 reversed $74 $-1 #
coedge $-1 $448 $449 $188 $308 forward $300 $-1 #
edge $-1 $450 -44.879299295022435 $312 44.879299295022435 $307 $451 forward 7 unknown #
coedge $-1 $452 $190 $304 $444 forward $311 $-1 #
coedge $-1 $190 $452 $448 $453 forward $311 $-1 #
loop $-1 $-1 $309 $437 #
vertex $-1 $308 $454 #
vertex $-1 $191 $455 #
straight-curve $-1 44.879299295022435 -8.5578075016317872 9.4999107975193056 0 1 0 I I #
face $-1 $-1 $456 $44 $-1 $457 reversed single #
loop $-1 $-1 $321 $192 #
plane-surface $-1 0 0 12.499910797519306 0 0 1 1 0 0 forward_v I I I I #
coedge $-1 $458 $459 $320 $460 reversed $193 $-1 #
coedge $-1 $461 $195 $197 $325 forward $121 $-1 #
coedge $-1 $195 $461 $318 $460 forward $121 $-1 #
coedge $-1 $462 $198 $195 $322 forward $316 $-1 #
edge $-1 $328 -0.58284254754714659 $463 6.2765251939447317 $321 $464 forward 7 unknown #
coedge $-1 $465 $466 $196 $324 forward $456 $-1 #
edge $-1 $467 -59.098812202305858 $327 -52.085696407168598 $323 $468 forward 7 unknown #
edge $-1 $328 76.524288807620053 $467 89.758598590044883 $197 $469 forward 7 unknown #
coedge $-1 $198 $462 $465 $470 forward $316 $-1 #
vertex $-1 $324 $471 #
vertex $-1 $199 $472 #
straight-curve $-1 8.1622510954948275 -2.2639987756516451 12.499910797519306 -1 0 0 I I #
coedge $-1 $330 $330 $-1 $473 reversed $202 $-1 #
edge $-1 $474 0 $474 6.2831853071796004 $203 $475 forward 7 unknown #
vertex $-1 $206 $476 #
ellipse-curve $-1 39.267633716489136 -7.7514929688451488 8.9933528999506702 0.52991927123019833 0 0.84804809178421925 0.42402404589210962 0 -0.26495963561509916 1 I I #
coedge $-1 $334 $334 $-1 $477 reversed $209 $-1 #
edge $-1 $478 0 $478 6.2831853071796004 $210 $479 forward 7 unknown #
vertex $-1 $213 $480 #
ellipse-curve $-1 39.267633716489136 -5.6936826463975869 8.9933528999506702 0.52991927123019833 0 0.84804809178421925 0.42402404589210962 0 -0.26495963561509916 1 I I #
coedge $-1 $338 $338 $-1 $481 reversed $216 $-1 #
edge $-1 $482 0 $482 6.2831853071796004 $217 $483 forward 7 unknown #
vertex $-1 $220 $484 #
ellipse-curve $-1 39.267633716489136 -3.635872323950025 8.9933528999506702 0.52991927123019833 0 0.84804809178421925 0.42402404589210962 0 -0.26495963561509916 1 I I #
face $-1 $-1 $485 $48 $-1 $486 reversed single #
loop $-1 $-1 $227 $221 #
plane-surface $-1 0 0 12.499910797519306 0 0 1 1 0 0 forward_v I I I I #
coedge $-1 $487 $488 $225 $351 forward $222 $-1 #
coedge $-1 $347 $224 $226 $352 reversed $140 $-1 #
coedge $-1 $224 $346 $489 $490 reversed $140 $-1 #
coedge $-1 $491 $227 $224 $349 forward $343 $-1 #
edge $-1 $355 25.493717042461004 $492 36.717048199527611 $348 $493 forward 7 unknown #
coedge $-1 $226 $225 $494 $495 reversed $89 $-1 #
edge $-1 $496 -62.455422154374872 $354 -49.221112371950035 $345 $497 forward 7 unknown #
edge $-1 $498 -89.758598590044883 $355 -76.524288807620053 $346 $499 forward 7 unknown #
coedge $-1 $227 $491 $487 $500 forward $343 $-1 #
vertex $-1 $351 $501 #
vertex $-1 $228 $502 #
straight-curve $-1 33.655968137955838 10.839089809318846 12.499910797519302 0 -1 0 I I #
coedge $-1 $357 $357 $-1 $503 reversed $231 $-1 #
edge $-1 $504 0 $504 6.2831853071796004 $232 $505 forward 7 unknown #
vertex $-1 $235 $506 #
ellipse-curve $-1 39.267633716489136 19.620369296190127 8.9933528999506702 0.52991927123019833 0 0.84804809178421925 0.42402404589210962 0 -0.26495963561509916 1 I I #
coedge $-1 $361 $361 $-1 $507 reversed $238 $-1 #
edge $-1 $508 0 $508 6.2831853071796004 $239 $509 forward 7 unknown #
vertex $-1 $242 $510 #
ellipse-curve $-1 39.267633716489136 21.678179618637685 8.9933528999506702 0.52991927123019833 0 0.84804809178421925 0.42402404589210962 0 -0.26495963561509916 1 I I #
coedge $-1 $365 $365 $-1 $511 reversed $245 $-1 #
edge $-1 $512 0 $512 6.2831853071796004 $246 $513 forward 7 unknown #
vertex $-1 $249 $514 #
ellipse-curve $-1 39.267633716489136 23.735989941085244 8.9933528999506702 0.52991927123019833 0 0.84804809178421925 0.42402404589210962 0 -0.26495963561509916 1 I I #
face $-1 $-1 $381 $52 $-1 $515 forward single #
loop $-1 $-1 $516 $250 #
plane-surface $-1 -44.879299295022435 0 0 1 0 0 0 0 -1 forward_v I I I I #
coedge $-1 $517 $518 $519 $520 reversed $251 $-1 #
coedge $-1 $521 $253 $255 $379 forward $159 $-1 #
coedge $-1 $253 $521 $517 $522 forward $159 $-1 #
coedge $-1 $519 $256 $253 $376 forward $381 $-1 #
edge $-1 $383 -0.92019177177434308 $523 5.6348962480048126 $375 $524 forward 7 unknown #
coedge $-1 $525 $526 $254 $378 forward $370 $-1 #
edge $-1 $527 -37.342777213356932 $382 -27.890538229049781 $377 $528 forward 7 unknown #
edge $-1 $383 -18.90447771534209 $527 -8.1518820400458524e-015 $255 $529 forward 7 unknown #
coedge $-1 $256 $519 $525 $530 forward $381 $-1 #
loop $-1 $-1 $519 $369 #
vertex $-1 $378 $531 #
vertex $-1 $257 $532 #
straight-curve $-1 -44.879299595657031 1.4371604663408917 12.499910797519306 1 0 0 I I #
coedge $-1 $385 $385 $-1 $533 reversed $260 $-1 #
edge $-1 $534 0 $534 6.2831853071796004 $261 $535 forward 7 unknown #
vertex $-1 $264 $536 #
ellipse-curve $-1 -36.693420358197613 4.7147044762304695 7.7737913053657266 -0.50000000669873634 0 0.8660253999169214 0.8660253999169214 0 0.50000000669873634 1 I I #
face $-1 $-1 $402 $54 $-1 $537 reversed single #
loop $-1 $-1 $398 $265 #
plane-surface $-1 0 25.107863489383625 0 0 -1 0 0 0 -1 forward_v I I I I #
coedge $-1 $538 $539 $394 $540 forward $266 $-1 #
coedge $-1 $394 $268 $270 $400 reversed $168 $-1 #
coedge $-1 $268 $393 $392 $540 reversed $168 $-1 #
coedge $-1 $541 $271 $268 $396 forward $402 $-1 #
edge $-1 $404 -37.342777213356932 $542 -27.890538229049781 $395 $543 forward 7 unknown #
coedge $-1 $270 $269 $538 $544 reversed $107 $-1 #
coedge $-1 $545 $546 $269 $399 forward $390 $-1 #
edge $-1 $547 -0.23308911887139352 $403 18.671388596470692 $398 $548 forward 7 unknown #
edge $-1 $549 -18.90447771534209 $404 -8.1518820400458524e-015 $393 $550 forward 7 unknown #
coedge $-1 $271 $541 $545 $551 forward $402 $-1 #
loop $-1 $-1 $395 $389 #
vertex $-1 $272 $552 #
vertex $-1 $272 $553 #
straight-curve $-1 -44.879299295022435 10.915159739747022 3.047671813212149 0 -1 0 I I #
coedge $-1 $406 $406 $-1 $554 reversed $275 $-1 #
edge $-1 $555 0 $555 6.2831853071796004 $276 $556 forward 7 unknown #
vertex $-1 $279 $557 #
ellipse-curve $-1 -36.693420358197613 21.830319479494044 7.7737913053657266 -0.50000000669873634 0 0.8660253999169214 0.8660253999169214 0 0.50000000669873634 1 I I #
face $-1 $-1 $295 $42 $-1 $558 reversed single #
loop $-1 $-1 $426 $280 #
plane-surface $-1 0 25.107863489383625 0 0 -1 0 0 0 -1 forward_v I I I I #
coedge $-1 $559 $424 $427 $560 forward $281 $-1 #
coedge $-1 $430 $283 $284 $418 reversed $177 $-1 #
coedge $-1 $424 $559 $283 $416 reversed $281 $-1 #
edge $-1 $431 -12.499910797519306 $561 12.499910797519306 $415 $562 forward 7 unknown #
coedge $-1 $285 $284 $559 $563 forward $113 $-1 #
edge $-1 $422 -44.879299295022435 $561 44.879299295022435 $414 $564 forward 7 unknown #
coedge $-1 $427 $426 $285 $420 reversed $411 $-1 #
edge $-1 $565 -44.879299295022435 $421 44.879299295022435 $419 $566 forward 7 unknown #
vertex $-1 $287 $567 #
vertex $-1 $433 $568 #
straight-curve $-1 44.879299295022435 0 -12.499910797519306 0 -1 0 I I #
coedge $-1 $413 $415 $288 $425 reversed $281 $-1 #
edge $-1 $428 -25.107863489383625 $431 25.107863489383625 $424 $569 forward 7 unknown #
coedge $-1 $419 $289 $294 $434 forward $411 $-1 #
coedge $-1 $289 $419 $413 $560 reversed $411 $-1 #
vertex $-1 $290 $570 #
straight-curve $-1 0 25.107863489383625 12.499910797519306 -1 0 0 I I #
coedge $-1 $291 $414 $293 $433 reversed $177 $-1 #
vertex $-1 $425 $571 #
straight-curve $-1 0 -25.107863489383625 12.499910797519306 1 0 0 I I #
edge $-1 $296 -12.499910797519306 $422 12.499910797519306 $293 $572 forward 7 unknown #
edge $-1 $297 -12.499910797519306 $421 12.499910797519306 $294 $573 forward 7 unknown #
point $-1 44.879299295022435 -25.107863489383625 12.499910797519306 #
point $-1 44.879299295022435 25.107863489383625 12.499910797519306 #
face $-1 $-1 $311 $43 $-1 $574 reversed single #
loop $-1 $-1 $575 $299 #
plane-surface $-1 0 0 12.499910797519306 0 0 1 1 0 0 forward_v I I I I #
coedge $-1 $576 $302 $306 $447 forward $185 $-1 #
coedge $-1 $302 $576 $577 $578 reversed $185 $-1 #
edge $-1 $579 -6.9999553987596528 $445 -3.9999553987596528 $302 $580 forward 7 unknown #
coedge $-1 $304 $303 $575 $581 reversed $117 $-1 #
edge $-1 $313 3.9999553987596528 $582 6.9999553987596528 $309 $583 forward 7 unknown #
vertex $-1 $447 $584 #
straight-curve $-1 0 -9.1233665171435234 9.4999107975193056 1 0 0 I I #
edge $-1 $445 0.56555901551173626 $450 16.55005598775184 $440 $585 forward 7 unknown #
coedge $-1 $586 $307 $310 $453 reversed $300 $-1 #
coedge $-1 $307 $586 $576 $587 forward $300 $-1 #
vertex $-1 $308 $588 #
straight-curve $-1 0 -25.107863489383625 9.4999107975193056 1 0 0 I I #
coedge $-1 $310 $309 $589 $590 reversed $311 $-1 #
edge $-1 $591 -12.499910797519306 $312 -9.4999107975193056 $310 $592 forward 7 unknown #
point $-1 44.879299295022435 -25.107863489383625 9.4999107975193056 #
point $-1 44.879299295022435 -9.1233665171435234 9.4999107975193056 #
loop $-1 $-1 $323 $315 #
plane-surface $-1 44.879299295022435 0 0 -1 0 0 0 0 1 forward_v I I I I #
coedge $-1 $459 $318 $593 $594 reversed $193 $-1 #
coedge $-1 $318 $458 $462 $595 reversed $193 $-1 #
edge $-1 $596 -89.758598590044883 $463 -76.524288807620053 $318 $597 forward 7 unknown #
coedge $-1 $320 $319 $466 $598 reversed $121 $-1 #
coedge $-1 $326 $321 $459 $595 forward $316 $-1 #
vertex $-1 $595 $599 #
straight-curve $-1 33.655968137955838 -2.8468413231987917 12.499910797519302 0 -1 0 I I #
coedge $-1 $593 $323 $326 $470 reversed $456 $-1 #
coedge $-1 $323 $593 $461 $598 forward $456 $-1 #
vertex $-1 $324 $600 #
straight-curve $-1 44.879299295022435 -2.2639987756516451 64.585607204687904 0 0 1 I I #
straight-curve $-1 -31.240308960490829 -2.2639987756516451 53.051606153862537 0.84804809178421925 0 -0.52991927123019833 I I #
edge $-1 $601 -9.1233665171435234 $327 -2.2639987756516451 $465 $602 forward 7 unknown #
point $-1 44.879299295022435 -2.2639987756516451 12.499910797519306 #
point $-1 33.655968137955831 -2.2639987756516451 12.499910797519306 #
edge $-1 $603 1 $603 0 $330 $-1 forward 7 unknown #
vertex $-1 $331 $604 #
ellipse-curve $-1 38.737714445258945 -7.7514929688451488 8.1453048081664576 0.52991927123019833 0 0.84804809178421925 0.42402404589210962 0 -0.26495963561509916 1 I I #
point $-1 39.691657762381254 -7.7514929688451488 8.7283932643355779 #
edge $-1 $605 1 $605 0 $334 $-1 forward 7 unknown #
vertex $-1 $335 $606 #
ellipse-curve $-1 38.737714445258945 -5.6936826463975869 8.1453048081664576 0.52991927123019833 0 0.84804809178421925 0.42402404589210962 0 -0.26495963561509916 1 I I #
point $-1 39.691657762381254 -5.6936826463975869 8.7283932643355779 #
edge $-1 $607 1 $607 0 $338 $-1 forward 7 unknown #
vertex $-1 $339 $608 #
ellipse-curve $-1 38.737714445258945 -3.635872323950025 8.1453048081664576 0.52991927123019833 0 0.84804809178421925 0.42402404589210962 0 -0.26495963561509916 1 I I #
point $-1 39.691657762381254 -3.635872323950025 8.7283932643355779 #
loop $-1 $-1 $494 $342 #
plane-surface $-1 44.879299295022435 0 0 -1 0 0 0 0 1 forward_v I I I I #
coedge $-1 $488 $345 $353 $500 reversed $222 $-1 #
coedge $-1 $345 $487 $609 $610 forward $222 $-1 #
coedge $-1 $494 $611 $347 $490 forward $485 $-1 #
edge $-1 $492 52.085696407168598 $498 59.098812202305858 $489 $612 forward 7 unknown #
coedge $-1 $353 $348 $611 $613 forward $343 $-1 #
vertex $-1 $613 $614 #
straight-curve $-1 8.1622510954948275 18.248495747891752 12.499910797519306 1 0 0 I I #
coedge $-1 $609 $489 $350 $495 forward $485 $-1 #
edge $-1 $498 7.4094059385729061 $496 14.268773680064786 $494 $615 forward 7 unknown #
vertex $-1 $351 $616 #
straight-curve $-1 -8.0859022845730131 25.107863489383625 38.583126794802759 -0.84804809178421925 0 0.52991927123019833 I I #
vertex $-1 $495 $617 #
straight-curve $-1 -31.240308960490829 18.248495747891752 53.051606153862537 -0.84804809178421925 0 0.52991927123019833 I I #
edge $-1 $618 -44.879299295022435 $354 -33.655968137955831 $487 $619 forward 7 unknown #
point $-1 33.655968137955831 25.107863489383632 12.499910797519306 #
point $-1 33.655968137955831 18.248495747891752 12.499910797519306 #
edge $-1 $620 1 $620 0 $357 $-1 forward 7 unknown #
vertex $-1 $358 $621 #
ellipse-curve $-1 38.737714445258945 19.620369296190127 8.1453048081664576 0.52991927123019833 0 0.84804809178421925 0.42402404589210962 0 -0.26495963561509916 1 I I #
point $-1 39.691657762381254 19.620369296190127 8.7283932643355779 #
edge $-1 $622 1 $622 0 $361 $-1 forward 7 unknown #
vertex $-1 $362 $623 #
ellipse-curve $-1 38.737714445258945 21.678179618637685 8.1453048081664576 0.52991927123019833 0 0.84804809178421925 0.42402404589210962 0 -0.26495963561509916 1 I I #
point $-1 39.691657762381254 21.678179618637685 8.7283932643355779 #
edge $-1 $624 1 $624 0 $365 $-1 forward 7 unknown #
vertex $-1 $366 $625 #
ellipse-curve $-1 38.737714445258945 23.735989941085244 8.1453048081664576 0.52991927123019833 0 0.84804809178421925 0.42402404589210962 0 -0.26495963561509916 1 I I #
point $-1 39.691657762381254 23.735989941085244 8.7283932643355779 #
plane-surface $-1 0 0 12.499910797519306 0 0 1 1 0 0 forward_v I I I I #
coedge $-1 $526 $525 $518 $626 forward $370 $-1 #
coedge $-1 $518 $372 $374 $522 reversed $251 $-1 #
coedge $-1 $372 $517 $516 $626 reversed $251 $-1 #
coedge $-1 $380 $375 $372 $520 forward $381 $-1 #
edge $-1 $523 -16.371758174284253 $627 -3.0063459632856393e-007 $519 $628 forward 7 unknown #
coedge $-1 $374 $373 $526 $629 reversed $159 $-1 #
edge $-1 $630 8.1518820400458524e-015 $523 18.90447771534209 $517 $631 forward 7 unknown #
vertex $-1 $376 $632 #
straight-curve $-1 -28.507541421372775 2.3573522381152348 12.499910797519306 0 1 0 I I #
coedge $-1 $516 $377 $380 $530 reversed $370 $-1 #
coedge $-1 $377 $516 $521 $629 forward $370 $-1 #
vertex $-1 $378 $633 #
straight-curve $-1 -44.879299295022435 1.4371604663408917 40.390449026569087 0 0 1 I I #
straight-curve $-1 -44.879299295022442 1.4371604663408917 3.0476718132121476 -0.8660253999169214 0 -0.50000000669873634 I I #
edge $-1 $627 -7.9922484861200473 $382 -1.4371604663408917 $525 $634 forward 7 unknown #
point $-1 -44.879299295022435 1.4371604663408917 12.499910797519306 #
point $-1 -28.507541421372778 1.4371604663408917 12.499910797519306 #
edge $-1 $635 1 $635 0 $385 $-1 forward 7 unknown #
vertex $-1 $386 $636 #
ellipse-curve $-1 -34.943778927243187 4.7147044762304695 4.7433235060592942 -0.50000000669873634 0 0.8660253999169214 0.8660253999169214 0 0.50000000669873634 1 I I #
point $-1 -35.827394958280692 4.7147044762304695 8.2737913120644713 #
plane-surface $-1 -44.879299295022435 0 0 1 0 0 0 0 -1 forward_v I I I I #
coedge $-1 $637 $392 $397 $544 forward $266 $-1 #
coedge $-1 $392 $637 $541 $638 forward $266 $-1 #
edge $-1 $542 3.0063459632856393e-007 $549 16.371758174284253 $392 $639 forward 7 unknown #
coedge $-1 $401 $395 $539 $638 reversed $402 $-1 #
vertex $-1 $396 $640 #
straight-curve $-1 -44.879299295022435 18.552775469604466 40.390449026569087 0 0 1 I I #
edge $-1 $549 7.6376157298574441 $547 14.1927037496366 $538 $641 forward 7 unknown #
coedge $-1 $546 $398 $401 $551 reversed $390 $-1 #
coedge $-1 $398 $545 $637 $642 reversed $390 $-1 #
vertex $-1 $642 $643 #
straight-curve $-1 -28.70940251875966 25.107863489383625 12.383366236522207 -0.8660253999169214 0 -0.50000000669873634 I I #
vertex $-1 $544 $644 #
straight-curve $-1 -44.879299295022442 18.552775469604466 3.0476718132121476 -0.8660253999169214 0 -0.50000000669873634 I I #
edge $-1 $645 -12.499910797519306 $403 -3.0476718132121516 $545 $646 forward 7 unknown #
point $-1 -44.879299295022435 25.107863489383625 3.0476718132121516 #
point $-1 -44.879299295022435 18.552775469604466 3.0476718132121516 #
edge $-1 $647 1 $647 0 $406 $-1 forward 7 unknown #
vertex $-1 $407 $648 #
ellipse-curve $-1 -34.943778927243187 21.830319479494044 4.7433235060592942 -0.50000000669873634 0 0.8660253999169214 0.8660253999169214 0 0.50000000669873634 1 I I #
point $-1 -35.827394958280692 21.830319479494044 8.2737913120644713 #
plane-surface $-1 44.879299295022435 0 0 -1 0 0 0 0 1 forward_v I I I I #
coedge $-1 $415 $413 $417 $563 reversed $281 $-1 #
edge $-1 $428 -12.499910797519306 $565 12.499910797519306 $427 $649 forward 7 unknown #
vertex $-1 $563 $650 #
straight-curve $-1 -44.879299295022435 -25.107863489383625 0 0 0 -1 I I #
edge $-1 $561 -25.107863489383625 $565 25.107863489383625 $559 $651 forward 7 unknown #
straight-curve $-1 0 -25.107863489383625 -12.499910797519306 -1 0 0 I I #
vertex $-1 $420 $652 #
straight-curve $-1 0 25.107863489383625 -12.499910797519306 1 0 0 I I #
point $-1 44.879299295022435 25.107863489383625 -12.499910797519306 #
point $-1 44.879299295022435 -25.107863489383625 -12.499910797519306 #
straight-curve $-1 -44.879299295022435 0 12.499910797519306 0 -1 0 I I #
point $-1 -44.879299295022435 25.107863489383625 12.499910797519306 #
point $-1 -44.879299295022435 -25.107863489383625 12.499910797519306 #
straight-curve $-1 44.879299295022435 -25.107863489383625 0 0 0 -1 I I #
straight-curve $-1 44.879299295022435 25.107863489383625 0 0 0 -1 I I #
plane-surface $-1 44.879299295022435 0 0 -1 0 0 0 0 1 forward_v I I I I #
coedge $-1 $577 $589 $443 $581 forward $438 $-1 #
coedge $-1 $441 $440 $449 $587 reversed $185 $-1 #
coedge $-1 $653 $575 $441 $578 forward $438 $-1 #
edge $-1 $579 9.1233665171435234 $654 25.107863489383625 $441 $655 forward 7 unknown #
vertex $-1 $578 $656 #
straight-curve $-1 -44.879299295022435 -9.1233665171435234 5.4999553987596528 0 0 -1 I I #
edge $-1 $582 -44.879299295022435 $579 44.879299295022435 $575 $657 forward 7 unknown #
vertex $-1 $444 $658 #
straight-curve $-1 44.879299295022435 -9.1233665171435234 5.4999553987596528 0 0 1 I I #
point $-1 -44.879299295022435 -9.1233665171435234 9.4999107975193056 #
straight-curve $-1 -44.879299295022435 -8.5578075016317872 9.4999107975193056 0 -1 0 I I #
coedge $-1 $449 $448 $653 $659 reversed $300 $-1 #
edge $-1 $654 -12.499910797519306 $450 -9.4999107975193056 $576 $660 forward 7 unknown #
point $-1 -44.879299295022435 -25.107863489383625 9.4999107975193056 #
coedge $-1 $575 $653 $452 $590 forward $438 $-1 #
edge $-1 $591 -25.107863489383625 $582 -9.1233665171435234 $452 $661 forward 7 unknown #
vertex $-1 $590 $662 #
straight-curve $-1 44.879299295022435 -25.107863489383625 0 0 0 -1 I I #
coedge $-1 $466 $465 $458 $594 forward $456 $-1 #
edge $-1 $601 52.085696407168598 $596 59.098812202305858 $593 $663 forward 7 unknown #
edge $-1 $463 33.655968137955831 $601 44.879299295022435 $462 $664 forward 7 unknown #
vertex $-1 $594 $665 #
straight-curve $-1 -31.240308960490829 -9.1233665171435216 53.051606153862537 -0.84804809178421925 0 0.52991927123019833 I I #
edge $-1 $596 -6.27652519394473 $467 0.58284254754714659 $466 $666 forward 7 unknown #
point $-1 33.655968137955831 -9.1233665171435234 12.499910797519306 #
point $-1 44.879299295022442 -2.2639987756516451 5.4867950023820455 #
vertex $-1 $470 $667 #
straight-curve $-1 44.879299295022435 0 12.499910797519306 0 1 0 I I #
vertex $-1 $473 $668 #
point $-1 39.161738491151056 -7.7514929688451488 7.8803451725513582 #
vertex $-1 $477 $669 #
point $-1 39.161738491151056 -5.6936826463975869 7.8803451725513582 #
vertex $-1 $481 $670 #
point $-1 39.161738491151056 -3.635872323950025 7.8803451725513582 #
coedge $-1 $611 $494 $488 $610 reversed $485 $-1 #
edge $-1 $618 -12.499910797519306 $496 -5.4867950023820455 $609 $671 forward 7 unknown #
coedge $-1 $489 $609 $491 $613 reversed $485 $-1 #
straight-curve $-1 44.879299295022435 18.248495747891752 64.585607204687904 0 0 -1 I I #
edge $-1 $492 18.248495747891752 $618 25.107863489383625 $611 $672 forward 7 unknown #
point $-1 44.879299295022435 18.248495747891752 12.499910797519306 #
straight-curve $-1 44.879299295022442 10.839089809318846 5.4867950023820455 0 1 0 I I #
point $-1 44.879299295022442 25.107863489383632 5.4867950023820455 #
point $-1 44.879299295022442 18.248495747891752 5.4867950023820455 #
vertex $-1 $613 $673 #
straight-curve $-1 0 25.107863489383625 12.499910797519306 -1 0 0 I I #
vertex $-1 $503 $674 #
point $-1 39.161738491151056 19.620369296190127 7.8803451725513582 #
vertex $-1 $507 $675 #
point $-1 39.161738491151056 21.678179618637685 7.8803451725513582 #
vertex $-1 $511 $676 #
point $-1 39.161738491151056 23.735989941085244 7.8803451725513582 #
edge $-1 $627 27.890538229049781 $630 37.342777213356932 $516 $677 forward 7 unknown #
vertex $-1 $530 $678 #
straight-curve $-1 -44.879299595657031 7.9922484861200473 12.499910797519306 -1 0 0 I I #
edge $-1 $630 -5.6348962480048126 $527 0.92019177177434308 $526 $679 forward 7 unknown #
vertex $-1 $629 $680 #
straight-curve $-1 -44.879299295022442 7.9922484861200473 3.0476718132121476 0.8660253999169214 0 0.50000000669873634 I I #
point $-1 -28.507541421372778 7.9922484861200473 12.499910797519306 #
point $-1 -44.879299295022435 1.4371604663408917 3.0476718132121516 #
straight-curve $-1 -44.879299295022435 0 12.499910797519306 0 -1 0 I I #
vertex $-1 $533 $681 #
point $-1 -34.077753527326266 4.7147044762304695 5.2433235127580309 #
coedge $-1 $539 $538 $546 $642 forward $266 $-1 #
edge $-1 $645 -25.107863489383625 $542 -18.552775469604466 $541 $682 forward 7 unknown #
straight-curve $-1 -44.879299595657031 18.552775469604466 12.499910797519306 1 0 0 I I #
point $-1 -44.879299295022435 18.552775469604466 12.499910797519306 #
straight-curve $-1 -28.507541421372775 10.915159739747022 12.499910797519306 0 1 0 I I #
edge $-1 $547 28.507541421372778 $645 44.879299295022435 $546 $683 forward 7 unknown #
point $-1 -28.507541421372778 25.107863489383622 12.499910797519306 #
point $-1 -28.507541421372778 18.552775469604466 12.499910797519306 #
vertex $-1 $642 $684 #
straight-curve $-1 -44.879299295022435 25.107863489383625 0 0 0 -1 I I #
vertex $-1 $554 $685 #
point $-1 -34.077753527326266 21.830319479494044 5.2433235127580309 #
straight-curve $-1 -44.879299295022435 25.107863489383625 0 0 0 -1 I I #
point $-1 -44.879299295022435 -25.107863489383625 -12.499910797519306 #
straight-curve $-1 -44.879299295022435 0 -12.499910797519306 0 1 0 I I #
point $-1 -44.879299295022435 25.107863489383625 -12.499910797519306 #
coedge $-1 $589 $577 $586 $659 forward $438 $-1 #
vertex $-1 $578 $686 #
straight-curve $-1 -44.879299295022435 0 12.499910797519306 0 -1 0 I I #
point $-1 -44.879299295022435 -9.1233665171435234 12.499910797519306 #
straight-curve $-1 0 -9.1233665171435234 12.499910797519306 -1 0 0 I I #
point $-1 44.879299295022435 -9.1233665171435234 12.499910797519306 #
edge $-1 $654 -44.879299295022435 $591 44.879299295022435 $586 $687 forward 7 unknown #
straight-curve $-1 -44.879299295022435 -25.107863489383625 0 0 0 -1 I I #
straight-curve $-1 44.879299295022435 0 12.499910797519306 0 1 0 I I #
point $-1 44.879299295022435 -25.107863489383625 12.499910797519306 #
straight-curve $-1 44.879299295022435 -9.1233665171435216 64.585607204687904 0 0 -1 I I #
straight-curve $-1 0 -9.1233665171435234 12.499910797519306 1 0 0 I I #
point $-1 44.879299295022442 -9.1233665171435216 5.4867950023820455 #
straight-curve $-1 44.879299295022442 -2.8468413231987917 5.4867950023820455 0 1 0 I I #
point $-1 44.879299295022435 -9.1233665171435234 12.499910797519306 #
point $-1 38.472754809643845 -7.7514929688451488 7.7212807622743478 #
point $-1 38.472754809643845 -5.6936826463975869 7.7212807622743478 #
point $-1 38.472754809643845 -3.635872323950025 7.7212807622743478 #
straight-curve $-1 44.879299295022435 25.107863489383625 0 0 0 -1 I I #
straight-curve $-1 44.879299295022435 0 12.499910797519306 0 1 0 I I #
point $-1 44.879299295022435 25.107863489383625 12.499910797519306 #
point $-1 38.472754809643845 19.620369296190127 7.7212807622743478 #
point $-1 38.472754809643845 21.678179618637685 7.7212807622743478 #
point $-1 38.472754809643845 23.735989941085244 7.7212807622743478 #
straight-curve $-1 -44.879299295022435 7.9922484861200473 40.390449026569087 0 0 -1 I I #
point $-1 -44.879299295022435 7.9922484861200473 12.499910797519306 #
straight-curve $-1 -44.879299295022435 2.3573522381152348 3.047671813212149 0 -1 0 I I #
point $-1 -44.879299295022435 7.9922484861200473 3.0476718132121516 #
point $-1 -34.443778920544446 4.7147044762304695 3.8772981061423728 #
straight-curve $-1 -44.879299295022435 0 12.499910797519306 0 -1 0 I I #
straight-curve $-1 0 25.107863489383625 12.499910797519306 -1 0 0 I I #
point $-1 -44.879299295022435 25.107863489383625 12.499910797519306 #
point $-1 -34.443778920544446 21.830319479494044 3.8772981061423728 #
point $-1 -44.879299295022435 -25.107863489383625 12.499910797519306 #
straight-curve $-1 0 -25.107863489383625 12.499910797519306 1 0 0 I I #
End-of-ACIS-data 