500 0 10 0           
7 Unknown 11 ACIS 5.0 NT 24 Fri Mar 26 15:52:23 1999 
-1 9.9999999999999995e-007 1e-010 
body $-1 $10 $-1 $11 #
body $-1 $12 $-1 $13 #
body $-1 $14 $-1 $15 #
body $-1 $16 $-1 $17 #
body $-1 $18 $-1 $19 #
body $-1 $20 $-1 $21 #
body $-1 $22 $-1 $23 #
body $-1 $24 $-1 $25 #
body $-1 $26 $-1 $27 #
body $-1 $28 $-1 $29 #
lump $-1 $-1 $30 $0 #
transform $-1 1 0 0 0 1 0 0 0 1 47.662587359233378 32.641170281073421 7.2849170893121107 1 rotate no_reflect no_shear #
lump $-1 $-1 $31 $1 #
transform $-1 1 0 0 0 1 0 0 0 1 47.662587359233378 32.641170281073421 7.2849170893121107 1 rotate no_reflect no_shear #
lump $-1 $-1 $32 $2 #
transform $-1 1 0 0 0 1 0 0 0 1 47.662587359233378 32.641170281073421 7.2849170893121107 1 rotate no_reflect no_shear #
lump $-1 $-1 $33 $3 #
transform $-1 1 0 0 0 1 0 0 0 1 47.662587359233378 32.641170281073421 7.2849170893121107 1 rotate no_reflect no_shear #
lump $-1 $-1 $34 $4 #
transform $-1 1 0 0 0 1 0 0 0 1 47.662587359233378 32.641170281073421 7.2849170893121107 1 rotate no_reflect no_shear #
lump $-1 $-1 $35 $5 #
transform $-1 1 0 0 0 1 0 0 0 1 47.662587359233378 32.641170281073421 7.2849170893121107 1 rotate no_reflect no_shear #
lump $-1 $-1 $36 $6 #
transform $-1 1 0 0 0 1 0 0 0 1 47.662587359233378 32.641170281073421 7.2849170893121107 1 rotate no_reflect no_shear #
lump $-1 $-1 $37 $7 #
transform $-1 1 0 0 0 1 0 0 0 1 47.662587359233378 32.641170281073421 7.2849170893121107 1 rotate no_reflect no_shear #
lump $-1 $-1 $38 $8 #
transform $-1 1 0 0 0 1 0 0 0 1 47.662587359233378 32.641170281073421 7.2849170893121107 1 rotate no_reflect no_shear #
lump $-1 $-1 $39 $9 #
transform $-1 1 0 0 0 1 0 0 0 1 47.662587359233378 32.641170281073421 7.2849170893121107 1 rotate no_reflect no_shear #
shell $-1 $-1 $-1 $40 $-1 $10 #
shell $-1 $-1 $-1 $41 $-1 $12 #
shell $-1 $-1 $-1 $42 $-1 $14 #
shell $-1 $-1 $-1 $43 $-1 $16 #
shell $-1 $-1 $-1 $44 $-1 $18 #
shell $-1 $-1 $-1 $45 $-1 $20 #
shell $-1 $-1 $-1 $46 $-1 $22 #
shell $-1 $-1 $-1 $47 $-1 $24 #
shell $-1 $-1 $-1 $48 $-1 $26 #
shell $-1 $-1 $-1 $49 $-1 $28 #
face $-1 $50 $51 $30 $-1 $52 forward single #
face $-1 $53 $54 $31 $-1 $55 reversed single #
face $-1 $56 $57 $32 $-1 $58 reversed single #
face $-1 $59 $60 $33 $-1 $61 reversed single #
face $-1 $62 $63 $34 $-1 $64 forward single #
face $-1 $65 $66 $35 $-1 $67 forward single #
face $-1 $68 $69 $36 $-1 $70 forward single #
face $-1 $71 $72 $37 $-1 $73 reversed single #
face $-1 $74 $75 $38 $-1 $76 forward single #
face $-1 $77 $78 $39 $-1 $79 forward single #
face $-1 $80 $81 $30 $-1 $82 reversed single #
loop $-1 $-1 $83 $40 #
plane-surface $-1 0 0 7.2849170893121107 0 0 1 1 0 0 forward_v I I I I #
face $-1 $84 $85 $31 $-1 $86 reversed single #
loop $-1 $-1 $87 $41 #
plane-surface $-1 -44.503909827044559 -28.998645038973997 0 0 -1 0 0 0 -1 forward_v I I I I #
face $-1 $88 $89 $32 $-1 $90 reversed single #
loop $-1 $-1 $91 $42 #
plane-surface $-1 41.345232294855741 -30.819907660023709 0 1 0 0 0 0 -1 forward_v I I I I #
face $-1 $92 $93 $33 $-1 $94 reversed single #
loop $-1 $-1 $95 $43 #
plane-surface $-1 -20.176746313877207 67.566612422034069 112.87345547836718 1 0 0 0 -0.78801076186113728 -0.61566146476048833 forward_v I I I I #
face $-1 $96 $97 $34 $-1 $98 forward single #
loop $-1 $99 $100 $44 #
cone-surface $-1 -16.178724052733489 29.509763270076505 3.9534951314552988 0 -0.78801076186113728 -0.61566146476048833 1 0 0 1 I I 0 1 1 forward I I I I #
face $-1 $101 $102 $35 $-1 $103 forward single #
loop $-1 $104 $105 $45 #
cone-surface $-1 -10.181690661017903 29.509763270076505 3.9534951314552988 0 -0.78801076186113728 -0.61566146476048833 1 0 0 1 I I 0 1 1 forward I I I I #
face $-1 $106 $107 $36 $-1 $108 forward single #
loop $-1 $109 $110 $46 #
cone-surface $-1 -4.1846572693023205 29.509763270076505 3.9534951314552988 0 -0.78801076186113728 -0.61566146476048833 1 0 0 1 I I 0 1 1 forward I I I I #
face $-1 $111 $112 $37 $-1 $113 reversed single #
loop $-1 $-1 $114 $47 #
plane-surface $-1 32.896001529365677 -114.35079373032011 53.118817911787815 1 0 0 0 0.85716730853699208 -0.51503806187062418 forward_v I I I I #
face $-1 $115 $116 $38 $-1 $117 forward single #
loop $-1 $118 $119 $48 #
cone-surface $-1 35.310067462362831 -31.165766220605533 5.3561890213600076 0 0.85716730853699208 -0.51503806187062418 0.5 0 0 1 I I 0 1 0.5 forward I I I I #
face $-1 $120 $121 $39 $-1 $122 forward single #
loop $-1 $123 $124 $49 #
cone-surface $-1 38.93116636185858 -31.165766220605533 5.3561890213600076 0 0.85716730853699208 -0.51503806187062418 0.5 0 0 1 I I 0 1 0.5 forward I I I I #
face $-1 $125 $126 $30 $-1 $127 reversed single #
loop $-1 $-1 $128 $50 #
plane-surface $-1 0 0 -7.2849170893121107 0 0 1 1 0 0 forward_v I I I I #
coedge $-1 $129 $130 $131 $132 forward $51 $-1 #
face $-1 $133 $134 $31 $-1 $135 forward single #
loop $-1 $-1 $136 $53 #
plane-surface $-1 -41.345232294855741 -30.819907660023709 0 -1 0 0 0 0 1 forward_v I I I I #
coedge $-1 $137 $138 $139 $140 forward $54 $-1 #
face $-1 $141 $142 $32 $-1 $143 forward single #
loop $-1 $-1 $144 $56 #
plane-surface $-1 44.503909827044559 -28.998645038973997 0 0 -1 0 0 0 -1 forward_v I I I I #
coedge $-1 $145 $146 $147 $148 forward $57 $-1 #
face $-1 $149 $150 $33 $-1 $151 reversed single #
loop $-1 $-1 $152 $59 #
plane-surface $-1 -10.181690661017903 -7.550651132410934 54.185418782646465 0 0.78801076186113728 0.61566146476048833 1 0 0 forward_v I I I I #
coedge $-1 $153 $154 $155 $156 reversed $60 $-1 #
face $-1 $-1 $157 $34 $-1 $158 forward single #
loop $-1 $159 $160 $62 #
cone-surface $-1 -16.178724052733489 27.758918166736031 2.5855850557788491 0 -0.78801076186113728 -0.61566146476048833 0.5 0 0 1 I I -0.70710678118654746 0.70710678118654746 0.5 forward I I I I #
loop $-1 $-1 $161 $44 #
coedge $-1 $100 $100 $162 $163 reversed $63 $-1 #
face $-1 $-1 $164 $35 $-1 $165 forward single #
loop $-1 $166 $167 $65 #
cone-surface $-1 -10.181690661017903 27.758918166736031 2.5855850557788491 0 -0.78801076186113728 -0.61566146476048833 0.5 0 0 1 I I -0.70710678118654746 0.70710678118654746 0.5 forward I I I I #
loop $-1 $-1 $168 $45 #
coedge $-1 $105 $105 $169 $170 reversed $66 $-1 #
face $-1 $-1 $171 $36 $-1 $172 forward single #
loop $-1 $173 $174 $68 #
cone-surface $-1 -4.1846572693023205 27.758918166736031 2.5855850557788491 0 -0.78801076186113728 -0.61566146476048833 0.5 0 0 1 I I -0.70710678118654746 0.70710678118654746 0.5 forward I I I I #
loop $-1 $-1 $175 $46 #
coedge $-1 $110 $110 $176 $177 reversed $69 $-1 #
face $-1 $178 $179 $37 $-1 $180 forward single #
loop $-1 $-1 $181 $71 #
plane-surface $-1 37.120616912110712 -32.641170281073428 4.022724677310066 0 -0.85716730853699208 0.51503806187062418 1 0 0 forward_v I I I I #
coedge $-1 $182 $183 $184 $185 reversed $72 $-1 #
face $-1 $-1 $186 $38 $-1 $187 forward single #
loop $-1 $188 $189 $74 #
cone-surface $-1 35.310067462362831 -30.456131775263877 4.9297976439412663 0 0.85716730853699208 -0.51503806187062418 0.25 0 0 1 I I -0.70710678118654746 0.70710678118654746 0.25 forward I I I I #
loop $-1 $-1 $190 $48 #
coedge $-1 $119 $119 $191 $192 reversed $75 $-1 #
face $-1 $-1 $193 $39 $-1 $194 forward single #
loop $-1 $195 $196 $77 #
cone-surface $-1 38.93116636185858 -30.456131775263877 4.9297976439412663 0 0.85716730853699208 -0.51503806187062418 0.25 0 0 1 I I -0.70710678118654746 0.70710678118654746 0.25 forward I I I I #
loop $-1 $-1 $197 $49 #
coedge $-1 $124 $124 $198 $199 reversed $78 $-1 #
face $-1 $200 $201 $30 $-1 $202 reversed single #
loop $-1 $-1 $203 $80 #
plane-surface $-1 0 -32.641170281073421 0 0 1 0 0 0 1 forward_v I I I I #
coedge $-1 $204 $205 $206 $207 forward $81 $-1 #
coedge $-1 $208 $83 $209 $210 forward $51 $-1 #
coedge $-1 $83 $208 $211 $212 forward $51 $-1 #
coedge $-1 $213 $214 $83 $132 reversed $215 $-1 #
edge $-1 $216 -32.641170281073421 $217 32.641170281073421 $131 $218 forward 7 unknown #
face $-1 $219 $220 $31 $-1 $221 reversed single #
loop $-1 $-1 $222 $84 #
plane-surface $-1 0 0 7.2849170893121107 0 0 1 1 0 0 forward_v I I I I #
coedge $-1 $223 $224 $225 $226 reversed $85 $-1 #
coedge $-1 $227 $87 $228 $229 reversed $54 $-1 #
coedge $-1 $87 $227 $230 $231 reversed $54 $-1 #
coedge $-1 $224 $223 $87 $140 reversed $85 $-1 #
edge $-1 $232 -7.2849170893121107 $233 7.2849170893121107 $139 $234 forward 7 unknown #
face $-1 $235 $236 $32 $-1 $237 reversed single #
loop $-1 $-1 $238 $88 #
plane-surface $-1 0 0 7.2849170893121107 0 0 1 1 0 0 forward_v I I I I #
coedge $-1 $239 $240 $241 $242 reversed $89 $-1 #
coedge $-1 $243 $91 $244 $245 reversed $57 $-1 #
coedge $-1 $91 $243 $246 $247 reversed $57 $-1 #
coedge $-1 $240 $239 $91 $148 reversed $89 $-1 #
edge $-1 $248 -7.2849170893121107 $249 7.2849170893121107 $147 $250 forward 7 unknown #
face $-1 $251 $252 $33 $-1 $253 reversed single #
loop $-1 $-1 $254 $92 #
plane-surface $-1 -0.1866350081585999 67.566612422034069 112.87345547836718 -1 0 0 0 0.78801076186113728 0.61566146476048833 forward_v I I I I #
coedge $-1 $255 $256 $257 $258 reversed $93 $-1 #
coedge $-1 $154 $95 $259 $260 reversed $60 $-1 #
coedge $-1 $95 $153 $255 $261 reversed $60 $-1 #
coedge $-1 $257 $262 $95 $156 forward $263 $-1 #
edge $-1 $264 1.1421359299436133 $265 4.6912705071176077 $155 $266 forward 7 unknown #
loop $-1 $-1 $162 $96 #
plane-surface $-1 -10.181690661017903 -7.550651132410934 54.185418782646465 0 0.78801076186113728 0.61566146476048833 1 0 0 forward_v I I I I #
loop $-1 $-1 $267 $62 #
coedge $-1 $160 $160 $161 $268 reversed $97 $-1 #
coedge $-1 $161 $161 $160 $268 forward $99 $-1 #
coedge $-1 $162 $162 $100 $163 forward $157 $-1 #
edge $-1 $269 3.4954836183495873e-016 $269 6.2831853071796004 $162 $270 forward 7 unknown #
loop $-1 $-1 $169 $101 #
plane-surface $-1 -10.181690661017903 -7.550651132410934 54.185418782646465 0 0.78801076186113728 0.61566146476048833 1 0 0 forward_v I I I I #
loop $-1 $-1 $271 $65 #
coedge $-1 $167 $167 $168 $272 reversed $102 $-1 #
coedge $-1 $168 $168 $167 $272 forward $104 $-1 #
coedge $-1 $169 $169 $105 $170 forward $164 $-1 #
edge $-1 $273 3.4954836183495873e-016 $273 6.2831853071796004 $169 $274 forward 7 unknown #
loop $-1 $-1 $176 $106 #
plane-surface $-1 -10.181690661017903 -7.550651132410934 54.185418782646465 0 0.78801076186113728 0.61566146476048833 1 0 0 forward_v I I I I #
loop $-1 $-1 $275 $68 #
coedge $-1 $174 $174 $175 $276 reversed $107 $-1 #
coedge $-1 $175 $175 $174 $276 forward $109 $-1 #
coedge $-1 $176 $176 $110 $177 forward $171 $-1 #
edge $-1 $277 3.4954836183495873e-016 $277 6.2831853071796004 $176 $278 forward 7 unknown #
face $-1 $279 $280 $37 $-1 $281 reversed single #
loop $-1 $-1 $282 $111 #
plane-surface $-1 0 0 7.2849170893121107 0 0 1 1 0 0 forward_v I I I I #
coedge $-1 $283 $284 $285 $286 reversed $112 $-1 #
coedge $-1 $183 $114 $287 $288 reversed $72 $-1 #
coedge $-1 $114 $182 $283 $289 reversed $72 $-1 #
coedge $-1 $285 $290 $114 $185 forward $280 $-1 #
edge $-1 $291 19.274491866581798 $292 22.536684278583831 $184 $293 forward 7 unknown #
loop $-1 $-1 $191 $115 #
plane-surface $-1 37.120616912110712 -32.641170281073428 4.022724677310066 0 -0.85716730853699208 0.51503806187062418 1 0 0 forward_v I I I I #
loop $-1 $-1 $294 $74 #
coedge $-1 $189 $189 $190 $295 reversed $116 $-1 #
coedge $-1 $190 $190 $189 $295 forward $118 $-1 #
coedge $-1 $191 $191 $119 $192 forward $186 $-1 #
edge $-1 $296 -4.5679050330899711e-015 $296 6.283185307179596 $191 $297 forward 7 unknown #
loop $-1 $-1 $198 $120 #
plane-surface $-1 37.120616912110712 -32.641170281073428 4.022724677310066 0 -0.85716730853699208 0.51503806187062418 1 0 0 forward_v I I I I #
loop $-1 $-1 $298 $77 #
coedge $-1 $196 $196 $197 $299 reversed $121 $-1 #
coedge $-1 $197 $197 $196 $299 forward $123 $-1 #
coedge $-1 $198 $198 $124 $199 forward $193 $-1 #
edge $-1 $300 -4.5679050330899711e-015 $300 6.283185307179596 $198 $301 forward 7 unknown #
face $-1 $302 $303 $30 $-1 $304 reversed single #
loop $-1 $-1 $305 $125 #
plane-surface $-1 -47.662587359233378 0 0 1 0 0 0 0 -1 forward_v I I I I #
coedge $-1 $306 $211 $307 $308 forward $126 $-1 #
coedge $-1 $309 $128 $306 $310 forward $81 $-1 #
coedge $-1 $128 $309 $311 $312 forward $81 $-1 #
coedge $-1 $214 $213 $128 $207 reversed $215 $-1 #
edge $-1 $313 -32.641170281073421 $314 32.641170281073421 $206 $315 forward 7 unknown #
coedge $-1 $130 $129 $316 $317 forward $51 $-1 #
coedge $-1 $318 $319 $129 $210 reversed $303 $-1 #
edge $-1 $217 -47.662587359233378 $320 47.662587359233378 $209 $321 forward 7 unknown #
coedge $-1 $203 $322 $130 $212 reversed $126 $-1 #
edge $-1 $323 -47.662587359233378 $216 47.662587359233378 $211 $324 forward 7 unknown #
coedge $-1 $206 $131 $322 $325 forward $215 $-1 #
coedge $-1 $131 $206 $318 $326 reversed $215 $-1 #
loop $-1 $-1 $213 $302 #
vertex $-1 $132 $327 #
vertex $-1 $132 $328 #
straight-curve $-1 47.662587359233378 0 7.2849170893121107 0 1 0 I I #
face $-1 $329 $330 $31 $-1 $331 reversed single #
loop $-1 $-1 $332 $133 #
plane-surface $-1 -47.662587359233378 0 0 1 0 0 0 0 -1 forward_v I I I I #
coedge $-1 $230 $333 $224 $334 forward $134 $-1 #
coedge $-1 $139 $136 $335 $336 reversed $85 $-1 #
coedge $-1 $136 $139 $222 $334 reversed $85 $-1 #
coedge $-1 $337 $338 $136 $226 forward $339 $-1 #
edge $-1 $340 -7.2849170893121107 $341 7.2849170893121107 $225 $342 forward 7 unknown #
coedge $-1 $138 $137 $332 $343 reversed $54 $-1 #
coedge $-1 $335 $344 $137 $229 forward $330 $-1 #
edge $-1 $345 -25.410632445711098 $233 -19.093277381333461 $228 $346 forward 7 unknown #
coedge $-1 $347 $222 $138 $231 forward $134 $-1 #
edge $-1 $232 19.093277381333461 $348 25.410632445711098 $230 $349 forward 7 unknown #
vertex $-1 $231 $350 #
vertex $-1 $229 $351 #
straight-curve $-1 -41.345232294855741 -28.998645038973997 0 0 0 -1 I I #
face $-1 $352 $353 $32 $-1 $354 reversed single #
loop $-1 $-1 $355 $141 #
plane-surface $-1 0 -32.641170281073421 0 0 1 0 0 0 1 forward_v I I I I #
coedge $-1 $246 $356 $240 $357 forward $142 $-1 #
coedge $-1 $147 $144 $358 $359 reversed $89 $-1 #
coedge $-1 $144 $147 $238 $357 reversed $89 $-1 #
coedge $-1 $360 $361 $144 $242 forward $362 $-1 #
edge $-1 $363 -7.2849170893121107 $364 7.2849170893121107 $241 $365 forward 7 unknown #
coedge $-1 $146 $145 $355 $366 reversed $57 $-1 #
coedge $-1 $358 $367 $145 $245 forward $353 $-1 #
edge $-1 $368 -17.231216451061567 $249 -13.588691208962143 $244 $369 forward 7 unknown #
coedge $-1 $370 $238 $146 $247 forward $142 $-1 #
edge $-1 $248 13.588691208962143 $371 17.231216451061567 $246 $372 forward 7 unknown #
vertex $-1 $247 $373 #
vertex $-1 $245 $374 #
straight-curve $-1 41.345232294855741 -28.998645038973997 0 0 0 -1 I I #
face $-1 $-1 $263 $33 $-1 $375 forward single #
loop $-1 $-1 $376 $149 #
plane-surface $-1 0 32.641170281073421 0 0 -1 0 0 0 -1 forward_v I I I I #
coedge $-1 $377 $378 $379 $380 reversed $150 $-1 #
coedge $-1 $381 $152 $154 $261 forward $93 $-1 #
coedge $-1 $152 $381 $377 $382 forward $93 $-1 #
coedge $-1 $379 $155 $152 $258 forward $263 $-1 #
edge $-1 $265 -15.085900983368255 $383 4.9042103223503517 $257 $384 forward 7 unknown #
coedge $-1 $385 $386 $153 $260 forward $252 $-1 #
edge $-1 $387 -53.694495878992669 $264 -49.151810649871479 $259 $388 forward 7 unknown #
edge $-1 $265 59.517590321436657 $387 65.282340562146828 $154 $389 forward 7 unknown #
coedge $-1 $155 $379 $385 $390 forward $263 $-1 #
loop $-1 $-1 $379 $251 #
vertex $-1 $260 $391 #
vertex $-1 $156 $392 #
straight-curve $-1 -20.176746313877207 33.783306211017035 7.2849170893121098 0 -1 0 I I #
coedge $-1 $267 $267 $-1 $393 reversed $159 $-1 #
edge $-1 $394 0 $394 6.2831853071796004 $160 $395 forward 7 unknown #
vertex $-1 $163 $396 #
ellipse-curve $-1 -16.178724052733489 30.866602992486424 5.0135744747515156 0 0.78801076186113728 0.61566146476048833 1 0 0 1 I I #
coedge $-1 $271 $271 $-1 $397 reversed $166 $-1 #
edge $-1 $398 0 $398 6.2831853071796004 $167 $399 forward 7 unknown #
vertex $-1 $170 $400 #
ellipse-curve $-1 -10.181690661017903 30.866602992486424 5.0135744747515156 0 0.78801076186113728 0.61566146476048833 1 0 0 1 I I #
coedge $-1 $275 $275 $-1 $401 reversed $173 $-1 #
edge $-1 $402 0 $402 6.2831853071796004 $174 $403 forward 7 unknown #
vertex $-1 $177 $404 #
ellipse-curve $-1 -4.1846572693023205 30.866602992486424 5.0135744747515156 0 0.78801076186113728 0.61566146476048833 1 0 0 1 I I #
face $-1 $-1 $405 $37 $-1 $406 forward single #
loop $-1 $-1 $184 $178 #
plane-surface $-1 0 -32.641170281073421 0 0 1 0 0 0 1 forward_v I I I I #
coedge $-1 $287 $407 $408 $409 forward $179 $-1 #
coedge $-1 $408 $181 $183 $289 forward $112 $-1 #
coedge $-1 $181 $408 $410 $411 reversed $112 $-1 #
coedge $-1 $412 $184 $181 $286 forward $280 $-1 #
edge $-1 $292 14.335693073310321 $413 22.784923838800385 $285 $414 forward 7 unknown #
coedge $-1 $415 $282 $182 $288 forward $179 $-1 #
edge $-1 $416 -26.494349468607577 $291 -24.534226584086632 $287 $417 forward 7 unknown #
edge $-1 $292 1.3556693106716273e-014 $416 3.8057825811975206 $183 $418 forward 7 unknown #
coedge $-1 $184 $412 $415 $419 reversed $280 $-1 #
vertex $-1 $419 $420 #
vertex $-1 $185 $421 #
straight-curve $-1 32.896001529365677 -32.641170281073421 26.559408955893907 0 0 -1 I I #
coedge $-1 $294 $294 $-1 $422 reversed $188 $-1 #
edge $-1 $423 0 $423 6.2831853071796004 $189 $424 forward 7 unknown #
vertex $-1 $192 $425 #
ellipse-curve $-1 35.310067462362831 -31.661108838812947 5.653820883311095 0 -0.85716730853699208 0.51503806187062418 0.5 0 0 1 I I #
coedge $-1 $298 $298 $-1 $426 reversed $195 $-1 #
edge $-1 $427 0 $427 6.2831853071796004 $196 $428 forward 7 unknown #
vertex $-1 $199 $429 #
ellipse-curve $-1 38.93116636185858 -31.661108838812947 5.653820883311095 0 -0.85716730853699208 0.51503806187062418 0.5 0 0 1 I I #
face $-1 $-1 $215 $30 $-1 $430 reversed single #
loop $-1 $-1 $318 $200 #
plane-surface $-1 0 32.641170281073421 0 0 -1 0 0 0 -1 forward_v I I I I #
coedge $-1 $431 $316 $319 $432 forward $201 $-1 #
coedge $-1 $322 $203 $204 $310 reversed $126 $-1 #
coedge $-1 $316 $431 $203 $308 reversed $201 $-1 #
edge $-1 $323 -7.2849170893121107 $433 7.2849170893121107 $307 $434 forward 7 unknown #
coedge $-1 $205 $204 $431 $435 forward $81 $-1 #
edge $-1 $314 -47.662587359233378 $433 47.662587359233378 $306 $436 forward 7 unknown #
coedge $-1 $319 $318 $205 $312 reversed $303 $-1 #
edge $-1 $437 -47.662587359233378 $313 47.662587359233378 $311 $438 forward 7 unknown #
vertex $-1 $207 $439 #
vertex $-1 $325 $440 #
straight-curve $-1 47.662587359233378 0 -7.2849170893121107 0 -1 0 I I #
coedge $-1 $305 $307 $208 $317 reversed $201 $-1 #
edge $-1 $320 -32.641170281073421 $323 32.641170281073421 $316 $441 forward 7 unknown #
coedge $-1 $311 $209 $214 $326 forward $303 $-1 #
coedge $-1 $209 $311 $305 $432 reversed $303 $-1 #
vertex $-1 $210 $442 #
straight-curve $-1 0 32.641170281073421 7.2849170893121107 -1 0 0 I I #
coedge $-1 $211 $306 $213 $325 reversed $126 $-1 #
vertex $-1 $317 $443 #
straight-curve $-1 0 -32.641170281073421 7.2849170893121107 1 0 0 I I #
edge $-1 $216 -7.2849170893121107 $314 7.2849170893121107 $213 $444 forward 7 unknown #
edge $-1 $217 -7.2849170893121107 $313 7.2849170893121107 $214 $445 forward 7 unknown #
point $-1 47.662587359233378 -32.641170281073421 7.2849170893121107 #
point $-1 47.662587359233378 32.641170281073421 7.2849170893121107 #
face $-1 $-1 $339 $31 $-1 $446 reversed single #
loop $-1 $-1 $335 $219 #
plane-surface $-1 0 0 -7.2849170893121107 0 0 1 1 0 0 forward_v I I I I #
coedge $-1 $447 $448 $227 $343 forward $220 $-1 #
coedge $-1 $222 $347 $337 $449 forward $134 $-1 #
edge $-1 $341 -17.231216451061567 $232 -13.588691208962143 $222 $450 forward 7 unknown #
coedge $-1 $451 $228 $223 $336 forward $330 $-1 #
edge $-1 $233 13.588691208962143 $340 17.231216451061567 $335 $452 forward 7 unknown #
coedge $-1 $453 $225 $333 $449 reversed $339 $-1 #
coedge $-1 $225 $453 $451 $454 reversed $339 $-1 #
loop $-1 $-1 $225 $329 #
vertex $-1 $454 $455 #
vertex $-1 $226 $456 #
straight-curve $-1 -41.345232294855741 -32.641170281073421 0 0 0 1 I I #
edge $-1 $348 -7.2849170893121107 $345 7.2849170893121107 $332 $457 forward 7 unknown #
coedge $-1 $228 $451 $447 $458 forward $330 $-1 #
vertex $-1 $229 $459 #
straight-curve $-1 -22.25195491352228 -28.998645038973997 -7.2849170893121107 1 0 0 I I #
coedge $-1 $333 $230 $448 $460 forward $134 $-1 #
vertex $-1 $460 $461 #
straight-curve $-1 -22.25195491352228 -28.998645038973997 7.2849170893121107 -1 0 0 I I #
point $-1 -41.345232294855741 -28.998645038973997 7.2849170893121107 #
point $-1 -41.345232294855741 -28.998645038973997 -7.2849170893121107 #
face $-1 $-1 $362 $32 $-1 $462 reversed single #
loop $-1 $-1 $358 $235 #
plane-surface $-1 0 0 -7.2849170893121107 0 0 1 1 0 0 forward_v I I I I #
coedge $-1 $463 $464 $243 $366 forward $236 $-1 #
coedge $-1 $238 $370 $360 $465 forward $142 $-1 #
edge $-1 $364 -25.410632445711098 $248 -19.093277381333461 $238 $466 forward 7 unknown #
coedge $-1 $467 $244 $239 $359 forward $353 $-1 #
edge $-1 $249 19.093277381333461 $363 25.410632445711098 $358 $468 forward 7 unknown #
coedge $-1 $469 $241 $356 $465 reversed $362 $-1 #
coedge $-1 $241 $469 $467 $470 reversed $362 $-1 #
loop $-1 $-1 $241 $352 #
vertex $-1 $470 $471 #
vertex $-1 $242 $472 #
straight-curve $-1 47.662587359233378 -28.998645038973997 0 0 0 1 I I #
edge $-1 $371 -7.2849170893121107 $368 7.2849170893121107 $355 $473 forward 7 unknown #
coedge $-1 $244 $467 $463 $474 forward $353 $-1 #
vertex $-1 $245 $475 #
straight-curve $-1 41.345232294855741 -15.409953830011855 -7.2849170893121107 0 1 0 I I #
coedge $-1 $356 $246 $464 $476 forward $142 $-1 #
vertex $-1 $476 $477 #
straight-curve $-1 41.345232294855741 -15.409953830011855 7.2849170893121107 0 -1 0 I I #
point $-1 41.345232294855741 -28.998645038973997 7.2849170893121107 #
point $-1 41.345232294855741 -28.998645038973997 -7.2849170893121107 #
plane-surface $-1 0 0 7.2849170893121107 0 0 1 1 0 0 forward_v I I I I #
coedge $-1 $386 $385 $378 $478 forward $252 $-1 #
coedge $-1 $378 $254 $256 $382 reversed $150 $-1 #
coedge $-1 $254 $377 $376 $478 reversed $150 $-1 #
coedge $-1 $262 $257 $254 $380 forward $263 $-1 #
edge $-1 $383 -4.6912705071176077 $479 -1.1421359299436133 $379 $480 forward 7 unknown #
coedge $-1 $256 $255 $386 $481 reversed $93 $-1 #
edge $-1 $482 -65.282340562146828 $383 -59.517590321436657 $377 $483 forward 7 unknown #
vertex $-1 $258 $484 #
straight-curve $-1 -5.0908453305089516 29.092035703899427 7.2849170893121062 1 0 0 I I #
coedge $-1 $376 $259 $262 $390 reversed $252 $-1 #
coedge $-1 $259 $376 $381 $481 forward $252 $-1 #
vertex $-1 $260 $485 #
straight-curve $-1 -20.176746313877207 32.641170281073421 56.436727739183588 0 0 1 I I #
straight-curve $-1 -20.176746313877207 -7.550651132410934 54.185418782646465 0 0.61566146476048833 -0.78801076186113728 I I #
edge $-1 $479 0.1866350081585999 $264 20.176746313877207 $385 $486 forward 7 unknown #
point $-1 -20.176746313877207 32.641170281073421 7.2849170893121107 #
point $-1 -20.176746313877207 29.092035703899427 7.2849170893121098 #
edge $-1 $487 1 $487 0 $267 $-1 forward 7 unknown #
vertex $-1 $268 $488 #
ellipse-curve $-1 -16.178724052733489 28.1529235476666 2.8934157881590932 0 0.78801076186113728 0.61566146476048833 1 0 0 1 I I #
point $-1 -15.178724052733489 30.86660299248641 5.0135744747515041 #
edge $-1 $489 1 $489 0 $271 $-1 forward 7 unknown #
vertex $-1 $272 $490 #
ellipse-curve $-1 -10.181690661017903 28.1529235476666 2.8934157881590932 0 0.78801076186113728 0.61566146476048833 1 0 0 1 I I #
point $-1 -9.1816906610179032 30.86660299248641 5.0135744747515041 #
edge $-1 $491 1 $491 0 $275 $-1 forward 7 unknown #
vertex $-1 $276 $492 #
ellipse-curve $-1 -4.1846572693023205 28.1529235476666 2.8934157881590932 0 0.78801076186113728 0.61566146476048833 1 0 0 1 I I #
point $-1 -3.1846572693023205 30.86660299248641 5.0135744747515041 #
loop $-1 $-1 $410 $279 #
plane-surface $-1 41.345232294855741 -30.819907660023709 0 1 0 0 0 0 -1 forward_v I I I I #
coedge $-1 $282 $415 $493 $494 forward $179 $-1 #
coedge $-1 $284 $283 $282 $409 reversed $112 $-1 #
edge $-1 $495 -22.784923838800392 $416 -14.335693073310321 $282 $496 forward 7 unknown #
coedge $-1 $493 $497 $284 $411 forward $405 $-1 #
edge $-1 $413 1.2550642570661905 $495 5.0608468382636964 $410 $498 forward 7 unknown #
coedge $-1 $290 $285 $497 $499 forward $280 $-1 #
vertex $-1 $499 $500 #
straight-curve $-1 18.560308456055356 -32.641170281073421 4.0227246773100847 1 0 0 I I #
coedge $-1 $407 $287 $290 $419 forward $179 $-1 #
vertex $-1 $288 $501 #
straight-curve $-1 32.896001529365677 -57.175396865160053 7.2849170893121098 0 -1 0 I I #
straight-curve $-1 32.896001529365677 -32.641170281073428 4.022724677310066 0 0.51503806187062418 0.85716730853699208 I I #
edge $-1 $291 32.896001529365677 $502 41.345232294855741 $290 $503 forward 7 unknown #
point $-1 32.896001529365677 -32.641170281073421 7.2849170893121107 #
point $-1 32.896001529365677 -32.641170281073421 4.0227246773100775 #
edge $-1 $504 1 $504 0 $294 $-1 forward 7 unknown #
vertex $-1 $295 $505 #
ellipse-curve $-1 35.310067462362831 -30.670423602398124 5.058557159408922 0 -0.85716730853699208 0.51503806187062418 0.5 0 0 1 I I #
point $-1 35.810067462362831 -31.661108838812947 5.6538208833110923 #
edge $-1 $506 1 $506 0 $298 $-1 forward 7 unknown #
vertex $-1 $299 $507 #
ellipse-curve $-1 38.93116636185858 -30.670423602398124 5.058557159408922 0 -0.85716730853699208 0.51503806187062418 0.5 0 0 1 I I #
point $-1 39.43116636185858 -31.661108838812947 5.6538208833110923 #
plane-surface $-1 47.662587359233378 0 0 -1 0 0 0 0 1 forward_v I I I I #
coedge $-1 $307 $305 $309 $435 reversed $201 $-1 #
edge $-1 $320 -7.2849170893121107 $437 7.2849170893121107 $319 $508 forward 7 unknown #
vertex $-1 $435 $509 #
straight-curve $-1 -47.662587359233378 -32.641170281073421 0 0 0 -1 I I #
edge $-1 $433 -32.641170281073421 $437 32.641170281073421 $431 $510 forward 7 unknown #
straight-curve $-1 0 -32.641170281073421 -7.2849170893121107 -1 0 0 I I #
vertex $-1 $312 $511 #
straight-curve $-1 0 32.641170281073421 -7.2849170893121107 1 0 0 I I #
point $-1 47.662587359233378 32.641170281073421 -7.2849170893121107 #
point $-1 47.662587359233378 -32.641170281073421 -7.2849170893121107 #
straight-curve $-1 -47.662587359233378 0 7.2849170893121107 0 -1 0 I I #
point $-1 -47.662587359233378 32.641170281073421 7.2849170893121107 #
point $-1 -47.662587359233378 -32.641170281073421 7.2849170893121107 #
straight-curve $-1 47.662587359233378 -32.641170281073421 0 0 0 -1 I I #
straight-curve $-1 47.662587359233378 32.641170281073421 0 0 0 -1 I I #
plane-surface $-1 0 -32.641170281073421 0 0 1 0 0 0 1 forward_v I I I I #
coedge $-1 $512 $332 $344 $458 reversed $220 $-1 #
coedge $-1 $332 $512 $347 $460 reversed $220 $-1 #
edge $-1 $513 -47.662587359233378 $341 -41.345232294855741 $337 $514 forward 7 unknown #
straight-curve $-1 -41.345232294855741 -15.409953830011855 7.2849170893121107 0 1 0 I I #
coedge $-1 $344 $335 $338 $454 forward $330 $-1 #
straight-curve $-1 -41.345232294855741 -15.409953830011855 -7.2849170893121107 0 -1 0 I I #
coedge $-1 $338 $337 $512 $515 forward $339 $-1 #
edge $-1 $340 41.345232294855741 $516 47.662587359233378 $338 $517 forward 7 unknown #
point $-1 -41.345232294855741 -32.641170281073421 -7.2849170893121107 #
point $-1 -41.345232294855741 -32.641170281073421 7.2849170893121107 #
straight-curve $-1 -47.662587359233378 -28.998645038973997 0 0 0 -1 I I #
edge $-1 $516 -32.641170281073421 $345 -28.998645038973997 $447 $518 forward 7 unknown #
point $-1 -47.662587359233378 -28.998645038973997 -7.2849170893121107 #
edge $-1 $348 28.998645038973997 $513 32.641170281073421 $448 $519 forward 7 unknown #
point $-1 -47.662587359233378 -28.998645038973997 7.2849170893121107 #
plane-surface $-1 47.662587359233378 0 0 -1 0 0 0 0 1 forward_v I I I I #
coedge $-1 $520 $355 $367 $474 reversed $236 $-1 #
coedge $-1 $355 $520 $370 $476 reversed $236 $-1 #
edge $-1 $521 -32.641170281073421 $364 -28.998645038973997 $360 $522 forward 7 unknown #
straight-curve $-1 22.25195491352228 -28.998645038973997 7.2849170893121107 -1 0 0 I I #
coedge $-1 $367 $358 $361 $470 forward $353 $-1 #
straight-curve $-1 22.25195491352228 -28.998645038973997 -7.2849170893121107 1 0 0 I I #
coedge $-1 $361 $360 $520 $523 forward $362 $-1 #
edge $-1 $363 28.998645038973997 $524 32.641170281073421 $361 $525 forward 7 unknown #
point $-1 47.662587359233378 -28.998645038973997 -7.2849170893121107 #
point $-1 47.662587359233378 -28.998645038973997 7.2849170893121107 #
straight-curve $-1 41.345232294855741 -32.641170281073421 0 0 0 -1 I I #
edge $-1 $524 -47.662587359233378 $368 -41.345232294855741 $463 $526 forward 7 unknown #
point $-1 41.345232294855741 -32.641170281073421 -7.2849170893121107 #
edge $-1 $371 41.345232294855741 $521 47.662587359233378 $464 $527 forward 7 unknown #
point $-1 41.345232294855741 -32.641170281073421 7.2849170893121107 #
edge $-1 $479 49.151810649871479 $482 53.694495878992669 $376 $528 forward 7 unknown #
vertex $-1 $390 $529 #
straight-curve $-1 -0.1866350081585999 33.783306211017035 7.2849170893121098 0 1 0 I I #
edge $-1 $482 -4.9042103223503517 $387 15.085900983368255 $386 $530 forward 7 unknown #
vertex $-1 $481 $531 #
straight-curve $-1 -0.1866350081585999 -7.550651132410934 54.185418782646465 0 -0.61566146476048833 0.78801076186113728 I I #
point $-1 -0.1866350081585999 29.092035703899427 7.2849170893121098 #
point $-1 -20.176746313877207 32.641170281073421 2.7422318601909197 #
straight-curve $-1 0 32.641170281073421 7.2849170893121107 -1 0 0 I I #
vertex $-1 $393 $532 #
point $-1 -15.178724052733489 28.1529235476666 2.8934157881590932 #
vertex $-1 $397 $533 #
point $-1 -9.1816906610179032 28.1529235476666 2.8934157881590932 #
vertex $-1 $401 $534 #
point $-1 -3.1846572693023205 28.1529235476666 2.8934157881590932 #
coedge $-1 $497 $410 $407 $494 reversed $405 $-1 #
edge $-1 $502 -17.231216451061567 $495 -15.271093566540621 $407 $535 forward 7 unknown #
vertex $-1 $411 $536 #
straight-curve $-1 18.560308456055356 -30.681047396552469 7.2849170893121107 -1 0 0 I I #
coedge $-1 $410 $493 $412 $499 reversed $405 $-1 #
straight-curve $-1 41.345232294855741 -33.287576143555889 2.9469246260396735 0 0.51503806187062429 0.85716730853699219 I I #
edge $-1 $413 4.0227246773100784 $502 7.2849170893121107 $412 $537 forward 7 unknown #
point $-1 41.345232294855741 -32.641170281073421 4.0227246773100784 #
point $-1 32.896001529365677 -30.681047396552476 7.2849170893121107 #
vertex $-1 $499 $538 #
straight-curve $-1 0 -32.641170281073421 7.2849170893121107 1 0 0 I I #
vertex $-1 $422 $539 #
point $-1 35.810067462362831 -30.670423602398124 5.058557159408922 #
vertex $-1 $426 $540 #
point $-1 39.43116636185858 -30.670423602398124 5.058557159408922 #
straight-curve $-1 -47.662587359233378 32.641170281073421 0 0 0 -1 I I #
point $-1 -47.662587359233378 -32.641170281073421 -7.2849170893121107 #
straight-curve $-1 -47.662587359233378 0 -7.2849170893121107 0 1 0 I I #
point $-1 -47.662587359233378 32.641170281073421 -7.2849170893121107 #
coedge $-1 $448 $447 $453 $515 reversed $220 $-1 #
vertex $-1 $460 $541 #
straight-curve $-1 0 -32.641170281073421 7.2849170893121107 1 0 0 I I #
edge $-1 $513 -7.2849170893121107 $516 7.2849170893121107 $512 $542 forward 7 unknown #
vertex $-1 $458 $543 #
straight-curve $-1 0 -32.641170281073421 -7.2849170893121107 -1 0 0 I I #
straight-curve $-1 -47.662587359233378 0 -7.2849170893121107 0 1 0 I I #
straight-curve $-1 -47.662587359233378 0 7.2849170893121107 0 -1 0 I I #
coedge $-1 $464 $463 $469 $523 reversed $236 $-1 #
vertex $-1 $465 $544 #
straight-curve $-1 47.662587359233378 0 7.2849170893121107 0 1 0 I I #
edge $-1 $521 -7.2849170893121107 $524 7.2849170893121107 $469 $545 forward 7 unknown #
vertex $-1 $523 $546 #
straight-curve $-1 47.662587359233378 0 -7.2849170893121107 0 -1 0 I I #
straight-curve $-1 0 -32.641170281073421 -7.2849170893121107 -1 0 0 I I #
straight-curve $-1 0 -32.641170281073421 7.2849170893121107 1 0 0 I I #
straight-curve $-1 -0.1866350081585999 32.641170281073421 56.436727739183588 0 0 -1 I I #
point $-1 -0.1866350081585999 32.641170281073421 7.2849170893121107 #
straight-curve $-1 -5.0908453305089516 32.641170281073428 2.7422318601909161 -1 0 0 I I #
point $-1 -0.1866350081585999 32.641170281073421 2.7422318601909197 #
point $-1 -16.178724052733489 27.364912785805462 2.2777543233986051 #
point $-1 -10.181690661017903 27.364912785805462 2.2777543233986051 #
point $-1 -4.1846572693023205 27.364912785805462 2.2777543233986051 #
straight-curve $-1 41.345232294855741 -15.409953830011855 7.2849170893121107 0 1 0 I I #
point $-1 41.345232294855748 -30.681047396552476 7.2849170893121107 #
straight-curve $-1 41.345232294855741 -32.641170281073421 0 0 0 1 I I #
point $-1 41.345232294855741 -32.641170281073421 7.2849170893121107 #
point $-1 35.310067462362831 -30.24183994812963 4.8010381284736106 #
point $-1 38.93116636185858 -30.24183994812963 4.8010381284736106 #
point $-1 -47.662587359233378 -32.641170281073421 7.2849170893121107 #
straight-curve $-1 -47.662587359233378 -32.641170281073421 0 0 0 -1 I I #
point $-1 -47.662587359233378 -32.641170281073421 -7.2849170893121107 #
point $-1 47.662587359233378 -32.641170281073421 7.2849170893121107 #
straight-curve $-1 47.662587359233378 -32.641170281073421 0 0 0 -1 I I #
point $-1 47.662587359233378 -32.641170281073421 -7.2849170893121107 #
End-of-ACIS-data 