500 0 3 0           
7 Unknown 11 ACIS 5.0 NT 24 Fri Mar 26 18:12:55 1999 
-1 9.9999999999999995e-007 1e-010 
body $-1 $3 $-1 $4 #
body $-1 $5 $-1 $6 #
body $-1 $7 $-1 $8 #
lump $-1 $-1 $9 $0 #
transform $-1 1 0 0 0 1 0 0 0 1 41.862849818414865 26.284917740229613 9.2429184142047678 1 rotate no_reflect no_shear #
lump $-1 $-1 $10 $1 #
transform $-1 1 0 0 0 1 0 0 0 1 41.862849818414865 26.284917740229613 9.2429184142047678 1 rotate no_reflect no_shear #
lump $-1 $-1 $11 $2 #
transform $-1 1 0 0 0 1 0 0 0 1 41.862849818414865 26.284917740229613 9.2429184142047678 1 rotate no_reflect no_shear #
shell $-1 $-1 $-1 $12 $-1 $3 #
shell $-1 $-1 $-1 $13 $-1 $5 #
shell $-1 $-1 $-1 $14 $-1 $7 #
face $-1 $15 $16 $9 $-1 $17 forward single #
face $-1 $18 $19 $10 $-1 $20 reversed single #
face $-1 $21 $22 $11 $-1 $23 forward single #
face $-1 $24 $25 $9 $-1 $26 reversed single #
loop $-1 $-1 $27 $12 #
plane-surface $-1 0 0 9.2429184142047678 0 0 1 1 0 0 forward_v I I I I #
face $-1 $28 $29 $10 $-1 $30 reversed single #
loop $-1 $-1 $31 $13 #
plane-surface $-1 68.498410571142216 18.431567269031948 117.82504679684315 0 -1 0 -0.84804810408105047 0 -0.52991925155115449 forward_v I I I I #
face $-1 $32 $33 $11 $-1 $34 forward single #
loop $-1 $35 $36 $14 #
cone-surface $-1 37.269863814625552 11.018283491657183 4.3037780074198162 -0.84804810408105047 0 -0.52991925155115449 0.79487887732673168 0 -1.2720721561215758 1 I I 0 1 1.5 forward I I I I #
face $-1 $37 $38 $9 $-1 $39 reversed single #
loop $-1 $-1 $40 $15 #
plane-surface $-1 0 0 -9.2429184142047678 0 0 1 1 0 0 forward_v I I I I #
coedge $-1 $41 $42 $43 $44 forward $16 $-1 #
face $-1 $45 $46 $10 $-1 $47 reversed single #
loop $-1 $-1 $48 $18 #
plane-surface $-1 -2.5050102687307287 11.018283491657183 73.457186709697567 0.84804810408105047 0 0.52991925155115449 0.52991925155115449 0 -0.84804810408105047 forward_v I I I I #
coedge $-1 $49 $50 $51 $52 reversed $19 $-1 #
face $-1 $-1 $53 $11 $-1 $54 forward single #
loop $-1 $55 $56 $21 #
cone-surface $-1 34.162008337400458 11.018283491657183 2.361774434161573 -0.84804810408105047 0 -0.52991925155115449 0.39743943866336584 0 -0.63603607806078788 1 I I -0.70710678118654757 0.70710678118654757 0.75 forward I I I I #
loop $-1 $-1 $57 $14 #
coedge $-1 $36 $36 $58 $59 reversed $22 $-1 #
face $-1 $60 $61 $9 $-1 $62 reversed single #
loop $-1 $-1 $63 $24 #
plane-surface $-1 0 -26.284917740229613 0 0 1 0 0 0 1 forward_v I I I I #
coedge $-1 $64 $65 $66 $67 forward $25 $-1 #
coedge $-1 $68 $27 $69 $70 forward $16 $-1 #
coedge $-1 $27 $68 $71 $72 forward $16 $-1 #
coedge $-1 $73 $74 $27 $44 reversed $75 $-1 #
edge $-1 $76 -26.284917740229613 $77 26.284917740229613 $43 $78 forward 7 unknown #
face $-1 $79 $80 $10 $-1 $81 forward single #
loop $-1 $-1 $82 $28 #
plane-surface $-1 68.498410571142216 3.6049997142824175 117.82504679684315 0 1 0 0.84804810408105047 0 0.52991925155115449 forward_v I I I I #
coedge $-1 $83 $84 $85 $86 reversed $29 $-1 #
coedge $-1 $50 $31 $87 $88 reversed $19 $-1 #
coedge $-1 $31 $49 $83 $89 reversed $19 $-1 #
coedge $-1 $85 $90 $31 $52 forward $80 $-1 #
edge $-1 $91 -7.6136445328437574 $92 -3.3713113235937371 $51 $93 forward 7 unknown #
loop $-1 $-1 $58 $32 #
plane-surface $-1 -2.5050102687307287 11.018283491657183 73.457186709697567 0.84804810408105047 0 0.52991925155115449 0.52991925155115449 0 -0.84804810408105047 forward_v I I I I #
loop $-1 $-1 $94 $21 #
coedge $-1 $56 $56 $57 $95 reversed $33 $-1 #
coedge $-1 $57 $57 $56 $95 forward $35 $-1 #
coedge $-1 $58 $58 $36 $59 forward $53 $-1 #
edge $-1 $96 0 $96 6.2831853071796004 $58 $97 forward 7 unknown #
face $-1 $98 $99 $9 $-1 $100 reversed single #
loop $-1 $-1 $101 $37 #
plane-surface $-1 -41.862849818414865 0 0 1 0 0 0 0 -1 forward_v I I I I #
coedge $-1 $102 $71 $103 $104 forward $38 $-1 #
coedge $-1 $105 $40 $102 $106 forward $25 $-1 #
coedge $-1 $40 $105 $107 $108 forward $25 $-1 #
coedge $-1 $74 $73 $40 $67 reversed $75 $-1 #
edge $-1 $109 -26.284917740229613 $110 26.284917740229613 $66 $111 forward 7 unknown #
coedge $-1 $42 $41 $112 $113 forward $16 $-1 #
coedge $-1 $114 $115 $41 $70 reversed $99 $-1 #
edge $-1 $77 -41.862849818414865 $116 41.862849818414865 $69 $117 forward 7 unknown #
coedge $-1 $63 $118 $42 $72 reversed $38 $-1 #
edge $-1 $119 -41.862849818414865 $76 41.862849818414865 $71 $120 forward 7 unknown #
coedge $-1 $66 $43 $118 $121 forward $75 $-1 #
coedge $-1 $43 $66 $114 $122 reversed $75 $-1 #
loop $-1 $-1 $73 $98 #
vertex $-1 $44 $123 #
vertex $-1 $44 $124 #
straight-curve $-1 41.862849818414865 0 9.2429184142047678 0 1 0 I I #
face $-1 $-1 $125 $10 $-1 $126 reversed single #
loop $-1 $-1 $51 $45 #
plane-surface $-1 0 0 9.2429184142047678 0 0 1 1 0 0 forward_v I I I I #
coedge $-1 $127 $128 $129 $130 reversed $46 $-1 #
coedge $-1 $131 $48 $50 $89 forward $29 $-1 #
coedge $-1 $48 $131 $127 $132 forward $29 $-1 #
coedge $-1 $129 $51 $48 $86 forward $80 $-1 #
edge $-1 $92 -12.922425523203357 $133 1.9041420315461739 $85 $134 forward 7 unknown #
coedge $-1 $135 $136 $49 $88 forward $125 $-1 #
edge $-1 $137 -56.458757528596983 $91 -49.669604984216811 $87 $138 forward 7 unknown #
edge $-1 $92 75.72007765417473 $137 83.725699636829759 $50 $139 forward 7 unknown #
coedge $-1 $51 $129 $135 $140 forward $80 $-1 #
vertex $-1 $88 $141 #
vertex $-1 $52 $142 #
straight-curve $-1 34.249205285571108 18.431567269031948 9.242918414204766 -1 0 0 I I #
coedge $-1 $94 $94 $-1 $143 reversed $55 $-1 #
edge $-1 $144 0 $144 6.2831853071796004 $56 $145 forward 7 unknown #
vertex $-1 $59 $146 #
ellipse-curve $-1 39.741683213789848 11.018283491657183 5.8483421420146868 0.84804810408105047 0 0.52991925155115449 0.79487887732673168 0 -1.2720721561215758 1 I I #
face $-1 $-1 $75 $9 $-1 $147 reversed single #
loop $-1 $-1 $114 $60 #
plane-surface $-1 0 26.284917740229613 0 0 -1 0 0 0 -1 forward_v I I I I #
coedge $-1 $148 $112 $115 $149 forward $61 $-1 #
coedge $-1 $118 $63 $64 $106 reversed $38 $-1 #
coedge $-1 $112 $148 $63 $104 reversed $61 $-1 #
edge $-1 $119 -9.2429184142047678 $150 9.2429184142047678 $103 $151 forward 7 unknown #
coedge $-1 $65 $64 $148 $152 forward $25 $-1 #
edge $-1 $110 -41.862849818414865 $150 41.862849818414865 $102 $153 forward 7 unknown #
coedge $-1 $115 $114 $65 $108 reversed $99 $-1 #
edge $-1 $154 -41.862849818414865 $109 41.862849818414865 $107 $155 forward 7 unknown #
vertex $-1 $67 $156 #
vertex $-1 $121 $157 #
straight-curve $-1 41.862849818414865 0 -9.2429184142047678 0 -1 0 I I #
coedge $-1 $101 $103 $68 $113 reversed $61 $-1 #
edge $-1 $116 -26.284917740229613 $119 26.284917740229613 $112 $158 forward 7 unknown #
coedge $-1 $107 $69 $74 $122 forward $99 $-1 #
coedge $-1 $69 $107 $101 $149 reversed $99 $-1 #
vertex $-1 $70 $159 #
straight-curve $-1 0 26.284917740229613 9.2429184142047678 -1 0 0 I I #
coedge $-1 $71 $102 $73 $121 reversed $38 $-1 #
vertex $-1 $113 $160 #
straight-curve $-1 0 -26.284917740229613 9.2429184142047678 1 0 0 I I #
edge $-1 $76 -9.2429184142047678 $110 9.2429184142047678 $73 $161 forward 7 unknown #
edge $-1 $77 -9.2429184142047678 $109 9.2429184142047678 $74 $162 forward 7 unknown #
point $-1 41.862849818414865 -26.284917740229613 9.2429184142047678 #
point $-1 41.862849818414865 26.284917740229613 9.2429184142047678 #
loop $-1 $-1 $87 $79 #
plane-surface $-1 41.862849818414865 0 0 -1 0 0 0 0 1 forward_v I I I I #
coedge $-1 $128 $82 $84 $132 reversed $46 $-1 #
coedge $-1 $82 $127 $163 $164 reversed $46 $-1 #
coedge $-1 $90 $85 $82 $130 forward $80 $-1 #
edge $-1 $133 3.3713113235937371 $165 7.6136445328437574 $129 $166 forward 7 unknown #
coedge $-1 $84 $83 $136 $167 reversed $29 $-1 #
edge $-1 $168 -83.725699636829759 $133 -75.72007765417473 $127 $169 forward 7 unknown #
vertex $-1 $86 $170 #
straight-curve $-1 37.620516609164852 5.5091417458285914 9.2429184142047589 0 -1 0 I I #
coedge $-1 $163 $87 $90 $140 reversed $125 $-1 #
coedge $-1 $87 $163 $131 $167 forward $125 $-1 #
vertex $-1 $88 $171 #
straight-curve $-1 41.862849818414865 18.431567269031948 58.912523398421577 0 0 1 I I #
straight-curve $-1 -2.5050102687307287 18.431567269031948 73.457186709697567 0.52991925155115449 0 -0.84804810408105047 I I #
edge $-1 $165 3.6049997142824175 $91 18.431567269031948 $135 $172 forward 7 unknown #
point $-1 41.862849818414865 18.431567269031948 9.2429184142047678 #
point $-1 37.620516609164845 18.431567269031948 9.242918414204766 #
edge $-1 $173 1 $173 0 $94 $-1 forward 7 unknown #
vertex $-1 $95 $174 #
ellipse-curve $-1 34.798044415461248 11.018283491657183 2.7592138728249389 0.84804810408105047 0 0.52991925155115449 0.79487887732673168 0 -1.2720721561215758 1 I I #
point $-1 40.536562091116593 11.018283491657183 4.5762699858931173 #
plane-surface $-1 41.862849818414865 0 0 -1 0 0 0 0 1 forward_v I I I I #
coedge $-1 $103 $101 $105 $152 reversed $61 $-1 #
edge $-1 $116 -9.2429184142047678 $154 9.2429184142047678 $115 $175 forward 7 unknown #
vertex $-1 $152 $176 #
straight-curve $-1 -41.862849818414865 -26.284917740229613 0 0 0 -1 I I #
edge $-1 $150 -26.284917740229613 $154 26.284917740229613 $148 $177 forward 7 unknown #
straight-curve $-1 0 -26.284917740229613 -9.2429184142047678 -1 0 0 I I #
vertex $-1 $108 $178 #
straight-curve $-1 0 26.284917740229613 -9.2429184142047678 1 0 0 I I #
point $-1 41.862849818414865 26.284917740229613 -9.2429184142047678 #
point $-1 41.862849818414865 -26.284917740229613 -9.2429184142047678 #
straight-curve $-1 -41.862849818414865 0 9.2429184142047678 0 -1 0 I I #
point $-1 -41.862849818414865 26.284917740229613 9.2429184142047678 #
point $-1 -41.862849818414865 -26.284917740229613 9.2429184142047678 #
straight-curve $-1 41.862849818414865 -26.284917740229613 0 0 0 -1 I I #
straight-curve $-1 41.862849818414865 26.284917740229613 0 0 0 -1 I I #
coedge $-1 $136 $135 $128 $164 forward $125 $-1 #
edge $-1 $165 49.669604984216811 $168 56.458757528596983 $163 $179 forward 7 unknown #
vertex $-1 $140 $180 #
straight-curve $-1 34.249205285571108 3.6049997142824175 9.242918414204766 1 0 0 I I #
edge $-1 $168 -1.9041420315461739 $137 12.922425523203357 $136 $181 forward 7 unknown #
vertex $-1 $167 $182 #
straight-curve $-1 -2.5050102687307287 3.6049997142824175 73.457186709697567 -0.52991925155115449 0 0.84804810408105047 I I #
point $-1 37.620516609164845 3.6049997142824175 9.242918414204766 #
point $-1 41.862849818414865 18.431567269031948 2.4537658698245934 #
straight-curve $-1 41.862849818414865 0 9.2429184142047678 0 1 0 I I #
vertex $-1 $143 $183 #
point $-1 35.59292329278798 11.018283491657183 1.4871417167033631 #
straight-curve $-1 -41.862849818414865 26.284917740229613 0 0 0 -1 I I #
point $-1 -41.862849818414865 -26.284917740229613 -9.2429184142047678 #
straight-curve $-1 -41.862849818414865 0 -9.2429184142047678 0 1 0 I I #
point $-1 -41.862849818414865 26.284917740229613 -9.2429184142047678 #
straight-curve $-1 41.862849818414865 3.6049997142824175 58.912523398421577 0 0 -1 I I #
point $-1 41.862849818414865 3.6049997142824175 9.2429184142047678 #
straight-curve $-1 41.862849818414858 5.5091417458285914 2.4537658698246005 0 1 0 I I #
point $-1 41.862849818414865 3.6049997142824175 2.4537658698245934 #
point $-1 33.525972259339667 11.018283491657183 1.964334995498207 #
End-of-ACIS-data 