500 0 17 0           
7 Unknown 11 ACIS 5.0 NT 24 Fri Mar 26 00:44:17 1999 
-1 9.9999999999999995e-007 1e-010 
body $-1 $17 $-1 $18 #
body $-1 $19 $-1 $20 #
body $-1 $21 $-1 $22 #
body $-1 $23 $-1 $24 #
body $-1 $25 $-1 $26 #
body $-1 $27 $-1 $28 #
body $-1 $29 $-1 $30 #
body $-1 $31 $-1 $32 #
body $-1 $33 $-1 $34 #
body $-1 $35 $-1 $36 #
body $-1 $37 $-1 $38 #
body $-1 $39 $-1 $40 #
body $-1 $41 $-1 $42 #
body $-1 $43 $-1 $44 #
body $-1 $45 $-1 $46 #
body $-1 $47 $-1 $48 #
body $-1 $49 $-1 $50 #
lump $-1 $-1 $51 $0 #
transform $-1 1 0 0 0 1 0 0 0 1 61.974547563097019 31.33036844776592 8.3548924068904267 1 rotate no_reflect no_shear #
lump $-1 $-1 $52 $1 #
transform $-1 0.76604443648966558 0 0.64278761758704617 0 1 0 -0.64278761758704617 0 0.76604443648966558 -79.672943558236412 8.128285748602087 106.20600790316672 1 rotate no_reflect no_shear #
lump $-1 $-1 $53 $2 #
transform $-1 0.76604443648966558 0 0.64278761758704617 0 -1 0 0.64278761758704617 0 -0.76604443648966558 6.7718182273584269 8.128285748602087 9.7856017620746698 1 rotate no_reflect no_shear #
lump $-1 $-1 $54 $3 #
transform $-1 0.76604443648966558 0 0.64278761758704617 0 1 0 -0.64278761758704617 0 0.76604443648966558 -79.672943558236412 23.596340881377976 106.20600790316672 1 rotate no_reflect no_shear #
lump $-1 $-1 $55 $4 #
transform $-1 0.76604443648966558 0 0.64278761758704617 0 -1 0 0.64278761758704617 0 -0.76604443648966558 6.7718182273584269 23.596340881377976 9.7856017620746698 1 rotate no_reflect no_shear #
lump $-1 $-1 $56 $5 #
transform $-1 0.76604443648966558 0 0.64278761758704617 0 1 0 -0.64278761758704617 0 0.76604443648966558 -79.672943558236412 39.064396014153864 106.20600790316672 1 rotate no_reflect no_shear #
lump $-1 $-1 $57 $6 #
transform $-1 0.76604443648966558 0 0.64278761758704617 0 -1 0 0.64278761758704617 0 -0.76604443648966558 6.7718182273584269 39.064396014153864 9.7856017620746698 1 rotate no_reflect no_shear #
lump $-1 $-1 $58 $7 #
transform $-1 0.76604443648966558 0 0.64278761758704617 0 1 0 -0.64278761758704617 0 0.76604443648966558 -79.672943558236412 54.532451146929752 106.20600790316672 1 rotate no_reflect no_shear #
lump $-1 $-1 $59 $8 #
transform $-1 0.76604443648966558 0 0.64278761758704617 0 -1 0 0.64278761758704617 0 -0.76604443648966558 6.7718182273584269 54.532451146929752 9.7856017620746698 1 rotate no_reflect no_shear #
lump $-1 $-1 $60 $9 #
transform $-1 0.76604443648966558 0 -0.64278761758704617 0 1 0 0.64278761758704617 0 0.76604443648966558 108.67152395508118 8.128285748602087 185.87895146140315 1 rotate no_reflect no_shear #
lump $-1 $-1 $61 $10 #
transform $-1 0.76604443648966558 0 -0.64278761758704617 0 -1 0 -0.64278761758704617 0 -0.76604443648966558 117.1772768988356 8.128285748602087 9.7856017620746627 1 rotate no_reflect no_shear #
lump $-1 $-1 $62 $11 #
transform $-1 0.76604443648966558 0 -0.64278761758704617 0 1 0 0.64278761758704617 0 0.76604443648966558 108.67152395508118 23.596340881377976 185.87895146140315 1 rotate no_reflect no_shear #
lump $-1 $-1 $63 $12 #
transform $-1 0.76604443648966558 0 -0.64278761758704617 0 -1 0 -0.64278761758704617 0 -0.76604443648966558 117.1772768988356 23.596340881377976 9.7856017620746627 1 rotate no_reflect no_shear #
lump $-1 $-1 $64 $13 #
transform $-1 0.76604443648966558 0 -0.64278761758704617 0 1 0 0.64278761758704617 0 0.76604443648966558 108.67152395508118 39.064396014153864 185.87895146140315 1 rotate no_reflect no_shear #
lump $-1 $-1 $65 $14 #
transform $-1 0.76604443648966558 0 -0.64278761758704617 0 -1 0 -0.64278761758704617 0 -0.76604443648966558 117.1772768988356 39.064396014153864 9.7856017620746627 1 rotate no_reflect no_shear #
lump $-1 $-1 $66 $15 #
transform $-1 0.76604443648966558 0 -0.64278761758704617 0 1 0 0.64278761758704617 0 0.76604443648966558 108.67152395508118 54.532451146929752 185.87895146140315 1 rotate no_reflect no_shear #
lump $-1 $-1 $67 $16 #
transform $-1 0.76604443648966558 0 -0.64278761758704617 0 -1 0 -0.64278761758704617 0 -0.76604443648966558 117.1772768988356 54.532451146929752 9.7856017620746627 1 rotate no_reflect no_shear #
shell $-1 $-1 $-1 $68 $-1 $17 #
shell $-1 $-1 $-1 $69 $-1 $19 #
shell $-1 $-1 $-1 $70 $-1 $21 #
shell $-1 $-1 $-1 $71 $-1 $23 #
shell $-1 $-1 $-1 $72 $-1 $25 #
shell $-1 $-1 $-1 $73 $-1 $27 #
shell $-1 $-1 $-1 $74 $-1 $29 #
shell $-1 $-1 $-1 $75 $-1 $31 #
shell $-1 $-1 $-1 $76 $-1 $33 #
shell $-1 $-1 $-1 $77 $-1 $35 #
shell $-1 $-1 $-1 $78 $-1 $37 #
shell $-1 $-1 $-1 $79 $-1 $39 #
shell $-1 $-1 $-1 $80 $-1 $41 #
shell $-1 $-1 $-1 $81 $-1 $43 #
shell $-1 $-1 $-1 $82 $-1 $45 #
shell $-1 $-1 $-1 $83 $-1 $47 #
shell $-1 $-1 $-1 $84 $-1 $49 #
face $-1 $85 $86 $51 $-1 $87 forward single #
face $-1 $88 $89 $52 $-1 $90 forward single #
face $-1 $91 $92 $53 $-1 $93 forward single #
face $-1 $94 $95 $54 $-1 $96 forward single #
face $-1 $97 $98 $55 $-1 $99 forward single #
face $-1 $100 $101 $56 $-1 $102 forward single #
face $-1 $103 $104 $57 $-1 $105 forward single #
face $-1 $106 $107 $58 $-1 $108 forward single #
face $-1 $109 $110 $59 $-1 $111 forward single #
face $-1 $112 $113 $60 $-1 $114 forward single #
face $-1 $115 $116 $61 $-1 $117 forward single #
face $-1 $118 $119 $62 $-1 $120 forward single #
face $-1 $121 $122 $63 $-1 $123 forward single #
face $-1 $124 $125 $64 $-1 $126 forward single #
face $-1 $127 $128 $65 $-1 $129 forward single #
face $-1 $130 $131 $66 $-1 $132 forward single #
face $-1 $133 $134 $67 $-1 $135 forward single #
face $-1 $136 $137 $51 $-1 $138 reversed single #
loop $-1 $-1 $139 $68 #
plane-surface $-1 0 0 8.3548924068904267 0 0 1 1 0 0 forward_v I I I I #
face $-1 $140 $141 $52 $-1 $142 reversed single #
loop $-1 $-1 $143 $69 #
plane-surface $-1 0 0 123.94909512619404 0 0 1 1 0 0 forward_v I I I I #
face $-1 $144 $145 $53 $-1 $146 forward single #
loop $-1 $147 $148 $70 #
cone-surface $-1 0 0 -3.1144215216528828 0 0 1 1.5 0 0 1 I I 0 1 1.5 forward I I I I #
face $-1 $149 $150 $54 $-1 $151 reversed single #
loop $-1 $-1 $152 $71 #
plane-surface $-1 0 0 123.94909512619404 0 0 1 1 0 0 forward_v I I I I #
face $-1 $153 $154 $55 $-1 $155 forward single #
loop $-1 $156 $157 $72 #
cone-surface $-1 0 0 -3.1144215216528828 0 0 1 1.5 0 0 1 I I 0 1 1.5 forward I I I I #
face $-1 $158 $159 $56 $-1 $160 reversed single #
loop $-1 $-1 $161 $73 #
plane-surface $-1 0 0 123.94909512619404 0 0 1 1 0 0 forward_v I I I I #
face $-1 $162 $163 $57 $-1 $164 forward single #
loop $-1 $165 $166 $74 #
cone-surface $-1 0 0 -3.1144215216528828 0 0 1 1.5 0 0 1 I I 0 1 1.5 forward I I I I #
face $-1 $167 $168 $58 $-1 $169 reversed single #
loop $-1 $-1 $170 $75 #
plane-surface $-1 0 0 123.94909512619404 0 0 1 1 0 0 forward_v I I I I #
face $-1 $171 $172 $59 $-1 $173 forward single #
loop $-1 $174 $175 $76 #
cone-surface $-1 0 0 -3.1144215216528828 0 0 1 1.5 0 0 1 I I 0 1 1.5 forward I I I I #
face $-1 $176 $177 $60 $-1 $178 reversed single #
loop $-1 $-1 $179 $77 #
plane-surface $-1 0 0 123.94909512619404 0 0 1 1 0 0 forward_v I I I I #
face $-1 $180 $181 $61 $-1 $182 forward single #
loop $-1 $183 $184 $78 #
cone-surface $-1 0 0 -3.1144215216528828 0 0 1 1.5 0 0 1 I I 0 1 1.5 forward I I I I #
face $-1 $185 $186 $62 $-1 $187 reversed single #
loop $-1 $-1 $188 $79 #
plane-surface $-1 0 0 123.94909512619404 0 0 1 1 0 0 forward_v I I I I #
face $-1 $189 $190 $63 $-1 $191 forward single #
loop $-1 $192 $193 $80 #
cone-surface $-1 0 0 -3.1144215216528828 0 0 1 1.5 0 0 1 I I 0 1 1.5 forward I I I I #
face $-1 $194 $195 $64 $-1 $196 reversed single #
loop $-1 $-1 $197 $81 #
plane-surface $-1 0 0 123.94909512619404 0 0 1 1 0 0 forward_v I I I I #
face $-1 $198 $199 $65 $-1 $200 forward single #
loop $-1 $201 $202 $82 #
cone-surface $-1 0 0 -3.1144215216528828 0 0 1 1.5 0 0 1 I I 0 1 1.5 forward I I I I #
face $-1 $203 $204 $66 $-1 $205 reversed single #
loop $-1 $-1 $206 $83 #
plane-surface $-1 0 0 123.94909512619404 0 0 1 1 0 0 forward_v I I I I #
face $-1 $207 $208 $67 $-1 $209 forward single #
loop $-1 $210 $211 $84 #
cone-surface $-1 0 0 -3.1144215216528828 0 0 1 1.5 0 0 1 I I 0 1 1.5 forward I I I I #
face $-1 $212 $213 $51 $-1 $214 reversed single #
loop $-1 $-1 $215 $85 #
plane-surface $-1 0 0 -8.3548924068904267 0 0 1 1 0 0 forward_v I I I I #
coedge $-1 $216 $217 $218 $219 forward $86 $-1 #
face $-1 $220 $221 $52 $-1 $222 reversed single #
loop $-1 $-1 $223 $88 #
plane-surface $-1 0 0 -123.94909512619404 0 0 1 1 0 0 forward_v I I I I #
coedge $-1 $224 $225 $226 $227 forward $89 $-1 #
face $-1 $-1 $228 $53 $-1 $229 forward single #
loop $-1 $-1 $230 $91 #
plane-surface $-1 0 0 -5.4788430433057655 0 0 -1 -1 0 0 forward_v I I I I #
loop $-1 $-1 $231 $70 #
coedge $-1 $148 $148 $230 $232 reversed $92 $-1 #
face $-1 $233 $234 $54 $-1 $235 reversed single #
loop $-1 $-1 $236 $94 #
plane-surface $-1 0 0 -123.94909512619404 0 0 1 1 0 0 forward_v I I I I #
coedge $-1 $237 $238 $239 $240 forward $95 $-1 #
face $-1 $-1 $241 $55 $-1 $242 forward single #
loop $-1 $-1 $243 $97 #
plane-surface $-1 0 0 -5.4788430433057655 0 0 -1 -1 0 0 forward_v I I I I #
loop $-1 $-1 $244 $72 #
coedge $-1 $157 $157 $243 $245 reversed $98 $-1 #
face $-1 $246 $247 $56 $-1 $248 reversed single #
loop $-1 $-1 $249 $100 #
plane-surface $-1 0 0 -123.94909512619404 0 0 1 1 0 0 forward_v I I I I #
coedge $-1 $250 $251 $252 $253 forward $101 $-1 #
face $-1 $-1 $254 $57 $-1 $255 forward single #
loop $-1 $-1 $256 $103 #
plane-surface $-1 0 0 -5.4788430433057655 0 0 -1 -1 0 0 forward_v I I I I #
loop $-1 $-1 $257 $74 #
coedge $-1 $166 $166 $256 $258 reversed $104 $-1 #
face $-1 $259 $260 $58 $-1 $261 reversed single #
loop $-1 $-1 $262 $106 #
plane-surface $-1 0 0 -123.94909512619404 0 0 1 1 0 0 forward_v I I I I #
coedge $-1 $263 $264 $265 $266 forward $107 $-1 #
face $-1 $-1 $267 $59 $-1 $268 forward single #
loop $-1 $-1 $269 $109 #
plane-surface $-1 0 0 -5.4788430433057655 0 0 -1 -1 0 0 forward_v I I I I #
loop $-1 $-1 $270 $76 #
coedge $-1 $175 $175 $269 $271 reversed $110 $-1 #
face $-1 $272 $273 $60 $-1 $274 reversed single #
loop $-1 $-1 $275 $112 #
plane-surface $-1 0 0 -123.94909512619404 0 0 1 1 0 0 forward_v I I I I #
coedge $-1 $276 $277 $278 $279 forward $113 $-1 #
face $-1 $-1 $280 $61 $-1 $281 forward single #
loop $-1 $-1 $282 $115 #
plane-surface $-1 0 0 -5.4788430433057655 0 0 -1 -1 0 0 forward_v I I I I #
loop $-1 $-1 $283 $78 #
coedge $-1 $184 $184 $282 $284 reversed $116 $-1 #
face $-1 $285 $286 $62 $-1 $287 reversed single #
loop $-1 $-1 $288 $118 #
plane-surface $-1 0 0 -123.94909512619404 0 0 1 1 0 0 forward_v I I I I #
coedge $-1 $289 $290 $291 $292 forward $119 $-1 #
face $-1 $-1 $293 $63 $-1 $294 forward single #
loop $-1 $-1 $295 $121 #
plane-surface $-1 0 0 -5.4788430433057655 0 0 -1 -1 0 0 forward_v I I I I #
loop $-1 $-1 $296 $80 #
coedge $-1 $193 $193 $295 $297 reversed $122 $-1 #
face $-1 $298 $299 $64 $-1 $300 reversed single #
loop $-1 $-1 $301 $124 #
plane-surface $-1 0 0 -123.94909512619404 0 0 1 1 0 0 forward_v I I I I #
coedge $-1 $302 $303 $304 $305 forward $125 $-1 #
face $-1 $-1 $306 $65 $-1 $307 forward single #
loop $-1 $-1 $308 $127 #
plane-surface $-1 0 0 -5.4788430433057655 0 0 -1 -1 0 0 forward_v I I I I #
loop $-1 $-1 $309 $82 #
coedge $-1 $202 $202 $308 $310 reversed $128 $-1 #
face $-1 $311 $312 $66 $-1 $313 reversed single #
loop $-1 $-1 $314 $130 #
plane-surface $-1 0 0 -123.94909512619404 0 0 1 1 0 0 forward_v I I I I #
coedge $-1 $315 $316 $317 $318 forward $131 $-1 #
face $-1 $-1 $319 $67 $-1 $320 forward single #
loop $-1 $-1 $321 $133 #
plane-surface $-1 0 0 -5.4788430433057655 0 0 -1 -1 0 0 forward_v I I I I #
loop $-1 $-1 $322 $84 #
coedge $-1 $211 $211 $321 $323 reversed $134 $-1 #
face $-1 $324 $325 $51 $-1 $326 reversed single #
loop $-1 $-1 $327 $136 #
plane-surface $-1 0 -31.33036844776592 0 0 1 0 0 0 1 forward_v I I I I #
coedge $-1 $328 $329 $330 $331 forward $137 $-1 #
coedge $-1 $332 $139 $333 $334 forward $86 $-1 #
coedge $-1 $139 $332 $335 $336 forward $86 $-1 #
coedge $-1 $337 $338 $139 $219 reversed $339 $-1 #
edge $-1 $340 -31.33036844776592 $341 31.33036844776592 $218 $342 forward 7 unknown #
face $-1 $343 $344 $52 $-1 $345 reversed single #
loop $-1 $-1 $346 $140 #
plane-surface $-1 0 -5.0944955634187323 0 0 1 0 0 0 1 forward_v I I I I #
coedge $-1 $347 $348 $349 $350 forward $141 $-1 #
coedge $-1 $351 $143 $352 $353 forward $89 $-1 #
coedge $-1 $143 $351 $354 $355 forward $89 $-1 #
coedge $-1 $356 $357 $143 $227 reversed $358 $-1 #
edge $-1 $359 -5.0944955634187323 $360 5.0944955634187323 $226 $361 forward 7 unknown #
loop $-1 $362 $363 $144 #
cone-surface $-1 0 0 0 0 0 1 0.75 0 0 1 I I -0.70710678118654757 0.70710678118654757 0.75 forward I I I I #
coedge $-1 $230 $230 $148 $232 forward $145 $-1 #
coedge $-1 $231 $231 $363 $364 forward $147 $-1 #
edge $-1 $365 0 $365 6.2831853071796004 $230 $366 forward 7 unknown #
face $-1 $367 $368 $54 $-1 $369 reversed single #
loop $-1 $-1 $370 $149 #
plane-surface $-1 0 -5.0944955634187323 0 0 1 0 0 0 1 forward_v I I I I #
coedge $-1 $371 $372 $373 $374 forward $150 $-1 #
coedge $-1 $375 $152 $376 $377 forward $95 $-1 #
coedge $-1 $152 $375 $378 $379 forward $95 $-1 #
coedge $-1 $380 $381 $152 $240 reversed $382 $-1 #
edge $-1 $383 -5.0944955634187323 $384 5.0944955634187323 $239 $385 forward 7 unknown #
loop $-1 $386 $387 $153 #
cone-surface $-1 0 0 0 0 0 1 0.75 0 0 1 I I -0.70710678118654757 0.70710678118654757 0.75 forward I I I I #
coedge $-1 $243 $243 $157 $245 forward $154 $-1 #
coedge $-1 $244 $244 $387 $388 forward $156 $-1 #
edge $-1 $389 0 $389 6.2831853071796004 $243 $390 forward 7 unknown #
face $-1 $391 $392 $56 $-1 $393 reversed single #
loop $-1 $-1 $394 $158 #
plane-surface $-1 0 -5.0944955634187323 0 0 1 0 0 0 1 forward_v I I I I #
coedge $-1 $395 $396 $397 $398 forward $159 $-1 #
coedge $-1 $399 $161 $400 $401 forward $101 $-1 #
coedge $-1 $161 $399 $402 $403 forward $101 $-1 #
coedge $-1 $404 $405 $161 $253 reversed $406 $-1 #
edge $-1 $407 -5.0944955634187323 $408 5.0944955634187323 $252 $409 forward 7 unknown #
loop $-1 $410 $411 $162 #
cone-surface $-1 0 0 0 0 0 1 0.75 0 0 1 I I -0.70710678118654757 0.70710678118654757 0.75 forward I I I I #
coedge $-1 $256 $256 $166 $258 forward $163 $-1 #
coedge $-1 $257 $257 $411 $412 forward $165 $-1 #
edge $-1 $413 0 $413 6.2831853071796004 $256 $414 forward 7 unknown #
face $-1 $415 $416 $58 $-1 $417 reversed single #
loop $-1 $-1 $418 $167 #
plane-surface $-1 0 -5.0944955634187323 0 0 1 0 0 0 1 forward_v I I I I #
coedge $-1 $419 $420 $421 $422 forward $168 $-1 #
coedge $-1 $423 $170 $424 $425 forward $107 $-1 #
coedge $-1 $170 $423 $426 $427 forward $107 $-1 #
coedge $-1 $428 $429 $170 $266 reversed $430 $-1 #
edge $-1 $431 -5.0944955634187323 $432 5.0944955634187323 $265 $433 forward 7 unknown #
loop $-1 $434 $435 $171 #
cone-surface $-1 0 0 0 0 0 1 0.75 0 0 1 I I -0.70710678118654757 0.70710678118654757 0.75 forward I I I I #
coedge $-1 $269 $269 $175 $271 forward $172 $-1 #
coedge $-1 $270 $270 $435 $436 forward $174 $-1 #
edge $-1 $437 0 $437 6.2831853071796004 $269 $438 forward 7 unknown #
face $-1 $439 $440 $60 $-1 $441 reversed single #
loop $-1 $-1 $442 $176 #
plane-surface $-1 0 -5.0944955634187323 0 0 1 0 0 0 1 forward_v I I I I #
coedge $-1 $443 $444 $445 $446 forward $177 $-1 #
coedge $-1 $447 $179 $448 $449 forward $113 $-1 #
coedge $-1 $179 $447 $450 $451 forward $113 $-1 #
coedge $-1 $452 $453 $179 $279 reversed $454 $-1 #
edge $-1 $455 -5.0944955634187323 $456 5.0944955634187323 $278 $457 forward 7 unknown #
loop $-1 $458 $459 $180 #
cone-surface $-1 0 0 0 0 0 1 0.75 0 0 1 I I -0.70710678118654757 0.70710678118654757 0.75 forward I I I I #
coedge $-1 $282 $282 $184 $284 forward $181 $-1 #
coedge $-1 $283 $283 $459 $460 forward $183 $-1 #
edge $-1 $461 0 $461 6.2831853071796004 $282 $462 forward 7 unknown #
face $-1 $463 $464 $62 $-1 $465 reversed single #
loop $-1 $-1 $466 $185 #
plane-surface $-1 0 -5.0944955634187323 0 0 1 0 0 0 1 forward_v I I I I #
coedge $-1 $467 $468 $469 $470 forward $186 $-1 #
coedge $-1 $471 $188 $472 $473 forward $119 $-1 #
coedge $-1 $188 $471 $474 $475 forward $119 $-1 #
coedge $-1 $476 $477 $188 $292 reversed $478 $-1 #
edge $-1 $479 -5.0944955634187323 $480 5.0944955634187323 $291 $481 forward 7 unknown #
loop $-1 $482 $483 $189 #
cone-surface $-1 0 0 0 0 0 1 0.75 0 0 1 I I -0.70710678118654757 0.70710678118654757 0.75 forward I I I I #
coedge $-1 $295 $295 $193 $297 forward $190 $-1 #
coedge $-1 $296 $296 $483 $484 forward $192 $-1 #
edge $-1 $485 0 $485 6.2831853071796004 $295 $486 forward 7 unknown #
face $-1 $487 $488 $64 $-1 $489 reversed single #
loop $-1 $-1 $490 $194 #
plane-surface $-1 0 -5.0944955634187323 0 0 1 0 0 0 1 forward_v I I I I #
coedge $-1 $491 $492 $493 $494 forward $195 $-1 #
coedge $-1 $495 $197 $496 $497 forward $125 $-1 #
coedge $-1 $197 $495 $498 $499 forward $125 $-1 #
coedge $-1 $500 $501 $197 $305 reversed $502 $-1 #
edge $-1 $503 -5.0944955634187323 $504 5.0944955634187323 $304 $505 forward 7 unknown #
loop $-1 $506 $507 $198 #
cone-surface $-1 0 0 0 0 0 1 0.75 0 0 1 I I -0.70710678118654757 0.70710678118654757 0.75 forward I I I I #
coedge $-1 $308 $308 $202 $310 forward $199 $-1 #
coedge $-1 $309 $309 $507 $508 forward $201 $-1 #
edge $-1 $509 0 $509 6.2831853071796004 $308 $510 forward 7 unknown #
face $-1 $511 $512 $66 $-1 $513 reversed single #
loop $-1 $-1 $514 $203 #
plane-surface $-1 0 -5.0944955634187323 0 0 1 0 0 0 1 forward_v I I I I #
coedge $-1 $515 $516 $517 $518 forward $204 $-1 #
coedge $-1 $519 $206 $520 $521 forward $131 $-1 #
coedge $-1 $206 $519 $522 $523 forward $131 $-1 #
coedge $-1 $524 $525 $206 $318 reversed $526 $-1 #
edge $-1 $527 -5.0944955634187323 $528 5.0944955634187323 $317 $529 forward 7 unknown #
loop $-1 $530 $531 $207 #
cone-surface $-1 0 0 0 0 0 1 0.75 0 0 1 I I -0.70710678118654757 0.70710678118654757 0.75 forward I I I I #
coedge $-1 $321 $321 $211 $323 forward $208 $-1 #
coedge $-1 $322 $322 $531 $532 forward $210 $-1 #
edge $-1 $533 0 $533 6.2831853071796004 $321 $534 forward 7 unknown #
face $-1 $535 $536 $51 $-1 $537 reversed single #
loop $-1 $-1 $538 $212 #
plane-surface $-1 -61.974547563097019 0 0 1 0 0 0 0 -1 forward_v I I I I #
coedge $-1 $539 $335 $540 $541 forward $213 $-1 #
coedge $-1 $542 $215 $539 $543 forward $137 $-1 #
coedge $-1 $215 $542 $544 $545 forward $137 $-1 #
coedge $-1 $338 $337 $215 $331 reversed $339 $-1 #
edge $-1 $546 -31.33036844776592 $547 31.33036844776592 $330 $548 forward 7 unknown #
coedge $-1 $217 $216 $549 $550 forward $86 $-1 #
coedge $-1 $551 $552 $216 $334 reversed $536 $-1 #
edge $-1 $341 -61.974547563097019 $553 61.974547563097019 $333 $554 forward 7 unknown #
coedge $-1 $327 $555 $217 $336 reversed $213 $-1 #
edge $-1 $556 -61.974547563097019 $340 61.974547563097019 $335 $557 forward 7 unknown #
coedge $-1 $330 $218 $555 $558 forward $339 $-1 #
coedge $-1 $218 $330 $551 $559 reversed $339 $-1 #
loop $-1 $-1 $337 $535 #
vertex $-1 $219 $560 #
vertex $-1 $219 $561 #
straight-curve $-1 61.974547563097019 0 8.3548924068904267 0 1 0 I I #
face $-1 $562 $563 $52 $-1 $564 reversed single #
loop $-1 $-1 $565 $220 #
plane-surface $-1 -247.89819025238808 0 0 1 0 0 0 0 -1 forward_v I I I I #
coedge $-1 $566 $354 $567 $568 forward $221 $-1 #
coedge $-1 $569 $223 $566 $570 forward $141 $-1 #
coedge $-1 $223 $569 $571 $572 forward $141 $-1 #
coedge $-1 $357 $356 $223 $350 reversed $358 $-1 #
edge $-1 $573 -5.0944955634187323 $574 5.0944955634187323 $349 $575 forward 7 unknown #
coedge $-1 $225 $224 $576 $577 forward $89 $-1 #
coedge $-1 $578 $579 $224 $353 reversed $563 $-1 #
edge $-1 $360 -247.89819025238808 $580 247.89819025238808 $352 $581 forward 7 unknown #
coedge $-1 $346 $582 $225 $355 reversed $221 $-1 #
edge $-1 $583 -247.89819025238808 $359 247.89819025238808 $354 $584 forward 7 unknown #
coedge $-1 $349 $226 $582 $585 forward $358 $-1 #
coedge $-1 $226 $349 $578 $586 reversed $358 $-1 #
loop $-1 $-1 $356 $562 #
vertex $-1 $227 $587 #
vertex $-1 $227 $588 #
straight-curve $-1 247.89819025238808 0 123.94909512619404 0 1 0 I I #
loop $-1 $-1 $589 $144 #
coedge $-1 $363 $363 $231 $364 reversed $228 $-1 #
edge $-1 $590 0 $590 6.2831853071796004 $363 $591 forward 7 unknown #
vertex $-1 $232 $592 #
ellipse-curve $-1 0 0 -5.4788430433057655 0 0 -1 1.5 0 0 1 I I #
face $-1 $593 $594 $54 $-1 $595 reversed single #
loop $-1 $-1 $596 $233 #
plane-surface $-1 -247.89819025238808 0 0 1 0 0 0 0 -1 forward_v I I I I #
coedge $-1 $597 $378 $598 $599 forward $234 $-1 #
coedge $-1 $600 $236 $597 $601 forward $150 $-1 #
coedge $-1 $236 $600 $602 $603 forward $150 $-1 #
coedge $-1 $381 $380 $236 $374 reversed $382 $-1 #
edge $-1 $604 -5.0944955634187323 $605 5.0944955634187323 $373 $606 forward 7 unknown #
coedge $-1 $238 $237 $607 $608 forward $95 $-1 #
coedge $-1 $609 $610 $237 $377 reversed $594 $-1 #
edge $-1 $384 -247.89819025238808 $611 247.89819025238808 $376 $612 forward 7 unknown #
coedge $-1 $370 $613 $238 $379 reversed $234 $-1 #
edge $-1 $614 -247.89819025238808 $383 247.89819025238808 $378 $615 forward 7 unknown #
coedge $-1 $373 $239 $613 $616 forward $382 $-1 #
coedge $-1 $239 $373 $609 $617 reversed $382 $-1 #
loop $-1 $-1 $380 $593 #
vertex $-1 $240 $618 #
vertex $-1 $240 $619 #
straight-curve $-1 247.89819025238808 0 123.94909512619404 0 1 0 I I #
loop $-1 $-1 $620 $153 #
coedge $-1 $387 $387 $244 $388 reversed $241 $-1 #
edge $-1 $621 0 $621 6.2831853071796004 $387 $622 forward 7 unknown #
vertex $-1 $245 $623 #
ellipse-curve $-1 0 0 -5.4788430433057655 0 0 -1 1.5 0 0 1 I I #
face $-1 $624 $625 $56 $-1 $626 reversed single #
loop $-1 $-1 $627 $246 #
plane-surface $-1 -247.89819025238808 0 0 1 0 0 0 0 -1 forward_v I I I I #
coedge $-1 $628 $402 $629 $630 forward $247 $-1 #
coedge $-1 $631 $249 $628 $632 forward $159 $-1 #
coedge $-1 $249 $631 $633 $634 forward $159 $-1 #
coedge $-1 $405 $404 $249 $398 reversed $406 $-1 #
edge $-1 $635 -5.0944955634187323 $636 5.0944955634187323 $397 $637 forward 7 unknown #
coedge $-1 $251 $250 $638 $639 forward $101 $-1 #
coedge $-1 $640 $641 $250 $401 reversed $625 $-1 #
edge $-1 $408 -247.89819025238808 $642 247.89819025238808 $400 $643 forward 7 unknown #
coedge $-1 $394 $644 $251 $403 reversed $247 $-1 #
edge $-1 $645 -247.89819025238808 $407 247.89819025238808 $402 $646 forward 7 unknown #
coedge $-1 $397 $252 $644 $647 forward $406 $-1 #
coedge $-1 $252 $397 $640 $648 reversed $406 $-1 #
loop $-1 $-1 $404 $624 #
vertex $-1 $253 $649 #
vertex $-1 $253 $650 #
straight-curve $-1 247.89819025238808 0 123.94909512619404 0 1 0 I I #
loop $-1 $-1 $651 $162 #
coedge $-1 $411 $411 $257 $412 reversed $254 $-1 #
edge $-1 $652 0 $652 6.2831853071796004 $411 $653 forward 7 unknown #
vertex $-1 $258 $654 #
ellipse-curve $-1 0 0 -5.4788430433057655 0 0 -1 1.5 0 0 1 I I #
face $-1 $655 $656 $58 $-1 $657 reversed single #
loop $-1 $-1 $658 $259 #
plane-surface $-1 -247.89819025238808 0 0 1 0 0 0 0 -1 forward_v I I I I #
coedge $-1 $659 $426 $660 $661 forward $260 $-1 #
coedge $-1 $662 $262 $659 $663 forward $168 $-1 #
coedge $-1 $262 $662 $664 $665 forward $168 $-1 #
coedge $-1 $429 $428 $262 $422 reversed $430 $-1 #
edge $-1 $666 -5.0944955634187323 $667 5.0944955634187323 $421 $668 forward 7 unknown #
coedge $-1 $264 $263 $669 $670 forward $107 $-1 #
coedge $-1 $671 $672 $263 $425 reversed $656 $-1 #
edge $-1 $432 -247.89819025238808 $673 247.89819025238808 $424 $674 forward 7 unknown #
coedge $-1 $418 $675 $264 $427 reversed $260 $-1 #
edge $-1 $676 -247.89819025238808 $431 247.89819025238808 $426 $677 forward 7 unknown #
coedge $-1 $421 $265 $675 $678 forward $430 $-1 #
coedge $-1 $265 $421 $671 $679 reversed $430 $-1 #
loop $-1 $-1 $428 $655 #
vertex $-1 $266 $680 #
vertex $-1 $266 $681 #
straight-curve $-1 247.89819025238808 0 123.94909512619404 0 1 0 I I #
loop $-1 $-1 $682 $171 #
coedge $-1 $435 $435 $270 $436 reversed $267 $-1 #
edge $-1 $683 0 $683 6.2831853071796004 $435 $684 forward 7 unknown #
vertex $-1 $271 $685 #
ellipse-curve $-1 0 0 -5.4788430433057655 0 0 -1 1.5 0 0 1 I I #
face $-1 $686 $687 $60 $-1 $688 reversed single #
loop $-1 $-1 $689 $272 #
plane-surface $-1 -247.89819025238808 0 0 1 0 0 0 0 -1 forward_v I I I I #
coedge $-1 $690 $450 $691 $692 forward $273 $-1 #
coedge $-1 $693 $275 $690 $694 forward $177 $-1 #
coedge $-1 $275 $693 $695 $696 forward $177 $-1 #
coedge $-1 $453 $452 $275 $446 reversed $454 $-1 #
edge $-1 $697 -5.0944955634187323 $698 5.0944955634187323 $445 $699 forward 7 unknown #
coedge $-1 $277 $276 $700 $701 forward $113 $-1 #
coedge $-1 $702 $703 $276 $449 reversed $687 $-1 #
edge $-1 $456 -247.89819025238808 $704 247.89819025238808 $448 $705 forward 7 unknown #
coedge $-1 $442 $706 $277 $451 reversed $273 $-1 #
edge $-1 $707 -247.89819025238808 $455 247.89819025238808 $450 $708 forward 7 unknown #
coedge $-1 $445 $278 $706 $709 forward $454 $-1 #
coedge $-1 $278 $445 $702 $710 reversed $454 $-1 #
loop $-1 $-1 $452 $686 #
vertex $-1 $279 $711 #
vertex $-1 $279 $712 #
straight-curve $-1 247.89819025238808 0 123.94909512619404 0 1 0 I I #
loop $-1 $-1 $713 $180 #
coedge $-1 $459 $459 $283 $460 reversed $280 $-1 #
edge $-1 $714 0 $714 6.2831853071796004 $459 $715 forward 7 unknown #
vertex $-1 $284 $716 #
ellipse-curve $-1 0 0 -5.4788430433057655 0 0 -1 1.5 0 0 1 I I #
face $-1 $717 $718 $62 $-1 $719 reversed single #
loop $-1 $-1 $720 $285 #
plane-surface $-1 -247.89819025238808 0 0 1 0 0 0 0 -1 forward_v I I I I #
coedge $-1 $721 $474 $722 $723 forward $286 $-1 #
coedge $-1 $724 $288 $721 $725 forward $186 $-1 #
coedge $-1 $288 $724 $726 $727 forward $186 $-1 #
coedge $-1 $477 $476 $288 $470 reversed $478 $-1 #
edge $-1 $728 -5.0944955634187323 $729 5.0944955634187323 $469 $730 forward 7 unknown #
coedge $-1 $290 $289 $731 $732 forward $119 $-1 #
coedge $-1 $733 $734 $289 $473 reversed $718 $-1 #
edge $-1 $480 -247.89819025238808 $735 247.89819025238808 $472 $736 forward 7 unknown #
coedge $-1 $466 $737 $290 $475 reversed $286 $-1 #
edge $-1 $738 -247.89819025238808 $479 247.89819025238808 $474 $739 forward 7 unknown #
coedge $-1 $469 $291 $737 $740 forward $478 $-1 #
coedge $-1 $291 $469 $733 $741 reversed $478 $-1 #
loop $-1 $-1 $476 $717 #
vertex $-1 $292 $742 #
vertex $-1 $292 $743 #
straight-curve $-1 247.89819025238808 0 123.94909512619404 0 1 0 I I #
loop $-1 $-1 $744 $189 #
coedge $-1 $483 $483 $296 $484 reversed $293 $-1 #
edge $-1 $745 0 $745 6.2831853071796004 $483 $746 forward 7 unknown #
vertex $-1 $297 $747 #
ellipse-curve $-1 0 0 -5.4788430433057655 0 0 -1 1.5 0 0 1 I I #
face $-1 $748 $749 $64 $-1 $750 reversed single #
loop $-1 $-1 $751 $298 #
plane-surface $-1 -247.89819025238808 0 0 1 0 0 0 0 -1 forward_v I I I I #
coedge $-1 $752 $498 $753 $754 forward $299 $-1 #
coedge $-1 $755 $301 $752 $756 forward $195 $-1 #
coedge $-1 $301 $755 $757 $758 forward $195 $-1 #
coedge $-1 $501 $500 $301 $494 reversed $502 $-1 #
edge $-1 $759 -5.0944955634187323 $760 5.0944955634187323 $493 $761 forward 7 unknown #
coedge $-1 $303 $302 $762 $763 forward $125 $-1 #
coedge $-1 $764 $765 $302 $497 reversed $749 $-1 #
edge $-1 $504 -247.89819025238808 $766 247.89819025238808 $496 $767 forward 7 unknown #
coedge $-1 $490 $768 $303 $499 reversed $299 $-1 #
edge $-1 $769 -247.89819025238808 $503 247.89819025238808 $498 $770 forward 7 unknown #
coedge $-1 $493 $304 $768 $771 forward $502 $-1 #
coedge $-1 $304 $493 $764 $772 reversed $502 $-1 #
loop $-1 $-1 $500 $748 #
vertex $-1 $305 $773 #
vertex $-1 $305 $774 #
straight-curve $-1 247.89819025238808 0 123.94909512619404 0 1 0 I I #
loop $-1 $-1 $775 $198 #
coedge $-1 $507 $507 $309 $508 reversed $306 $-1 #
edge $-1 $776 0 $776 6.2831853071796004 $507 $777 forward 7 unknown #
vertex $-1 $310 $778 #
ellipse-curve $-1 0 0 -5.4788430433057655 0 0 -1 1.5 0 0 1 I I #
face $-1 $779 $780 $66 $-1 $781 reversed single #
loop $-1 $-1 $782 $311 #
plane-surface $-1 -247.89819025238808 0 0 1 0 0 0 0 -1 forward_v I I I I #
coedge $-1 $783 $522 $784 $785 forward $312 $-1 #
coedge $-1 $786 $314 $783 $787 forward $204 $-1 #
coedge $-1 $314 $786 $788 $789 forward $204 $-1 #
coedge $-1 $525 $524 $314 $518 reversed $526 $-1 #
edge $-1 $790 -5.0944955634187323 $791 5.0944955634187323 $517 $792 forward 7 unknown #
coedge $-1 $316 $315 $793 $794 forward $131 $-1 #
coedge $-1 $795 $796 $315 $521 reversed $780 $-1 #
edge $-1 $528 -247.89819025238808 $797 247.89819025238808 $520 $798 forward 7 unknown #
coedge $-1 $514 $799 $316 $523 reversed $312 $-1 #
edge $-1 $800 -247.89819025238808 $527 247.89819025238808 $522 $801 forward 7 unknown #
coedge $-1 $517 $317 $799 $802 forward $526 $-1 #
coedge $-1 $317 $517 $795 $803 reversed $526 $-1 #
loop $-1 $-1 $524 $779 #
vertex $-1 $318 $804 #
vertex $-1 $318 $805 #
straight-curve $-1 247.89819025238808 0 123.94909512619404 0 1 0 I I #
loop $-1 $-1 $806 $207 #
coedge $-1 $531 $531 $322 $532 reversed $319 $-1 #
edge $-1 $807 0 $807 6.2831853071796004 $531 $808 forward 7 unknown #
vertex $-1 $323 $809 #
ellipse-curve $-1 0 0 -5.4788430433057655 0 0 -1 1.5 0 0 1 I I #
face $-1 $-1 $339 $51 $-1 $810 reversed single #
loop $-1 $-1 $551 $324 #
plane-surface $-1 0 31.33036844776592 0 0 -1 0 0 0 -1 forward_v I I I I #
coedge $-1 $811 $549 $552 $812 forward $325 $-1 #
coedge $-1 $555 $327 $328 $543 reversed $213 $-1 #
coedge $-1 $549 $811 $327 $541 reversed $325 $-1 #
edge $-1 $556 -8.3548924068904267 $813 8.3548924068904267 $540 $814 forward 7 unknown #
coedge $-1 $329 $328 $811 $815 forward $137 $-1 #
edge $-1 $547 -61.974547563097019 $813 61.974547563097019 $539 $816 forward 7 unknown #
coedge $-1 $552 $551 $329 $545 reversed $536 $-1 #
edge $-1 $817 -61.974547563097019 $546 61.974547563097019 $544 $818 forward 7 unknown #
vertex $-1 $331 $819 #
vertex $-1 $558 $820 #
straight-curve $-1 61.974547563097019 0 -8.3548924068904267 0 -1 0 I I #
coedge $-1 $538 $540 $332 $550 reversed $325 $-1 #
edge $-1 $553 -31.33036844776592 $556 31.33036844776592 $549 $821 forward 7 unknown #
coedge $-1 $544 $333 $338 $559 forward $536 $-1 #
coedge $-1 $333 $544 $538 $812 reversed $536 $-1 #
vertex $-1 $334 $822 #
straight-curve $-1 0 31.33036844776592 8.3548924068904267 -1 0 0 I I #
coedge $-1 $335 $539 $337 $558 reversed $213 $-1 #
vertex $-1 $550 $823 #
straight-curve $-1 0 -31.33036844776592 8.3548924068904267 1 0 0 I I #
edge $-1 $340 -8.3548924068904267 $547 8.3548924068904267 $337 $824 forward 7 unknown #
edge $-1 $341 -8.3548924068904267 $546 8.3548924068904267 $338 $825 forward 7 unknown #
point $-1 61.974547563097019 -31.33036844776592 8.3548924068904267 #
point $-1 61.974547563097019 31.33036844776592 8.3548924068904267 #
face $-1 $-1 $358 $52 $-1 $826 reversed single #
loop $-1 $-1 $578 $343 #
plane-surface $-1 0 5.0944955634187323 0 0 -1 0 0 0 -1 forward_v I I I I #
coedge $-1 $827 $576 $579 $828 forward $344 $-1 #
coedge $-1 $582 $346 $347 $570 reversed $221 $-1 #
coedge $-1 $576 $827 $346 $568 reversed $344 $-1 #
edge $-1 $583 -123.94909512619404 $829 123.94909512619404 $567 $830 forward 7 unknown #
coedge $-1 $348 $347 $827 $831 forward $141 $-1 #
edge $-1 $574 -247.89819025238808 $829 247.89819025238808 $566 $832 forward 7 unknown #
coedge $-1 $579 $578 $348 $572 reversed $563 $-1 #
edge $-1 $833 -247.89819025238808 $573 247.89819025238808 $571 $834 forward 7 unknown #
vertex $-1 $350 $835 #
vertex $-1 $585 $836 #
straight-curve $-1 247.89819025238808 0 -123.94909512619404 0 -1 0 I I #
coedge $-1 $565 $567 $351 $577 reversed $344 $-1 #
edge $-1 $580 -5.0944955634187323 $583 5.0944955634187323 $576 $837 forward 7 unknown #
coedge $-1 $571 $352 $357 $586 forward $563 $-1 #
coedge $-1 $352 $571 $565 $828 reversed $563 $-1 #
vertex $-1 $353 $838 #
straight-curve $-1 0 5.0944955634187323 123.94909512619404 -1 0 0 I I #
coedge $-1 $354 $566 $356 $585 reversed $221 $-1 #
vertex $-1 $577 $839 #
straight-curve $-1 0 -5.0944955634187323 123.94909512619404 1 0 0 I I #
edge $-1 $359 -123.94909512619404 $574 123.94909512619404 $356 $840 forward 7 unknown #
edge $-1 $360 -123.94909512619404 $573 123.94909512619404 $357 $841 forward 7 unknown #
point $-1 247.89819025238808 -5.0944955634187323 123.94909512619404 #
point $-1 247.89819025238808 5.0944955634187323 123.94909512619404 #
coedge $-1 $589 $589 $-1 $842 reversed $362 $-1 #
vertex $-1 $364 $843 #
ellipse-curve $-1 0 0 -0.75 0 0 -1 1.5 0 0 1 I I #
point $-1 1.5 0 -5.4788430433057655 #
face $-1 $-1 $382 $54 $-1 $844 reversed single #
loop $-1 $-1 $609 $367 #
plane-surface $-1 0 5.0944955634187323 0 0 -1 0 0 0 -1 forward_v I I I I #
coedge $-1 $845 $607 $610 $846 forward $368 $-1 #
coedge $-1 $613 $370 $371 $601 reversed $234 $-1 #
coedge $-1 $607 $845 $370 $599 reversed $368 $-1 #
edge $-1 $614 -123.94909512619404 $847 123.94909512619404 $598 $848 forward 7 unknown #
coedge $-1 $372 $371 $845 $849 forward $150 $-1 #
edge $-1 $605 -247.89819025238808 $847 247.89819025238808 $597 $850 forward 7 unknown #
coedge $-1 $610 $609 $372 $603 reversed $594 $-1 #
edge $-1 $851 -247.89819025238808 $604 247.89819025238808 $602 $852 forward 7 unknown #
vertex $-1 $374 $853 #
vertex $-1 $616 $854 #
straight-curve $-1 247.89819025238808 0 -123.94909512619404 0 -1 0 I I #
coedge $-1 $596 $598 $375 $608 reversed $368 $-1 #
edge $-1 $611 -5.0944955634187323 $614 5.0944955634187323 $607 $855 forward 7 unknown #
coedge $-1 $602 $376 $381 $617 forward $594 $-1 #
coedge $-1 $376 $602 $596 $846 reversed $594 $-1 #
vertex $-1 $377 $856 #
straight-curve $-1 0 5.0944955634187323 123.94909512619404 -1 0 0 I I #
coedge $-1 $378 $597 $380 $616 reversed $234 $-1 #
vertex $-1 $608 $857 #
straight-curve $-1 0 -5.0944955634187323 123.94909512619404 1 0 0 I I #
edge $-1 $383 -123.94909512619404 $605 123.94909512619404 $380 $858 forward 7 unknown #
edge $-1 $384 -123.94909512619404 $604 123.94909512619404 $381 $859 forward 7 unknown #
point $-1 247.89819025238808 -5.0944955634187323 123.94909512619404 #
point $-1 247.89819025238808 5.0944955634187323 123.94909512619404 #
coedge $-1 $620 $620 $-1 $860 reversed $386 $-1 #
vertex $-1 $388 $861 #
ellipse-curve $-1 0 0 -0.75 0 0 -1 1.5 0 0 1 I I #
point $-1 1.5 0 -5.4788430433057655 #
face $-1 $-1 $406 $56 $-1 $862 reversed single #
loop $-1 $-1 $640 $391 #
plane-surface $-1 0 5.0944955634187323 0 0 -1 0 0 0 -1 forward_v I I I I #
coedge $-1 $863 $638 $641 $864 forward $392 $-1 #
coedge $-1 $644 $394 $395 $632 reversed $247 $-1 #
coedge $-1 $638 $863 $394 $630 reversed $392 $-1 #
edge $-1 $645 -123.94909512619404 $865 123.94909512619404 $629 $866 forward 7 unknown #
coedge $-1 $396 $395 $863 $867 forward $159 $-1 #
edge $-1 $636 -247.89819025238808 $865 247.89819025238808 $628 $868 forward 7 unknown #
coedge $-1 $641 $640 $396 $634 reversed $625 $-1 #
edge $-1 $869 -247.89819025238808 $635 247.89819025238808 $633 $870 forward 7 unknown #
vertex $-1 $398 $871 #
vertex $-1 $647 $872 #
straight-curve $-1 247.89819025238808 0 -123.94909512619404 0 -1 0 I I #
coedge $-1 $627 $629 $399 $639 reversed $392 $-1 #
edge $-1 $642 -5.0944955634187323 $645 5.0944955634187323 $638 $873 forward 7 unknown #
coedge $-1 $633 $400 $405 $648 forward $625 $-1 #
coedge $-1 $400 $633 $627 $864 reversed $625 $-1 #
vertex $-1 $401 $874 #
straight-curve $-1 0 5.0944955634187323 123.94909512619404 -1 0 0 I I #
coedge $-1 $402 $628 $404 $647 reversed $247 $-1 #
vertex $-1 $639 $875 #
straight-curve $-1 0 -5.0944955634187323 123.94909512619404 1 0 0 I I #
edge $-1 $407 -123.94909512619404 $636 123.94909512619404 $404 $876 forward 7 unknown #
edge $-1 $408 -123.94909512619404 $635 123.94909512619404 $405 $877 forward 7 unknown #
point $-1 247.89819025238808 -5.0944955634187323 123.94909512619404 #
point $-1 247.89819025238808 5.0944955634187323 123.94909512619404 #
coedge $-1 $651 $651 $-1 $878 reversed $410 $-1 #
vertex $-1 $412 $879 #
ellipse-curve $-1 0 0 -0.75 0 0 -1 1.5 0 0 1 I I #
point $-1 1.5 0 -5.4788430433057655 #
face $-1 $-1 $430 $58 $-1 $880 reversed single #
loop $-1 $-1 $671 $415 #
plane-surface $-1 0 5.0944955634187323 0 0 -1 0 0 0 -1 forward_v I I I I #
coedge $-1 $881 $669 $672 $882 forward $416 $-1 #
coedge $-1 $675 $418 $419 $663 reversed $260 $-1 #
coedge $-1 $669 $881 $418 $661 reversed $416 $-1 #
edge $-1 $676 -123.94909512619404 $883 123.94909512619404 $660 $884 forward 7 unknown #
coedge $-1 $420 $419 $881 $885 forward $168 $-1 #
edge $-1 $667 -247.89819025238808 $883 247.89819025238808 $659 $886 forward 7 unknown #
coedge $-1 $672 $671 $420 $665 reversed $656 $-1 #
edge $-1 $887 -247.89819025238808 $666 247.89819025238808 $664 $888 forward 7 unknown #
vertex $-1 $422 $889 #
vertex $-1 $678 $890 #
straight-curve $-1 247.89819025238808 0 -123.94909512619404 0 -1 0 I I #
coedge $-1 $658 $660 $423 $670 reversed $416 $-1 #
edge $-1 $673 -5.0944955634187323 $676 5.0944955634187323 $669 $891 forward 7 unknown #
coedge $-1 $664 $424 $429 $679 forward $656 $-1 #
coedge $-1 $424 $664 $658 $882 reversed $656 $-1 #
vertex $-1 $425 $892 #
straight-curve $-1 0 5.0944955634187323 123.94909512619404 -1 0 0 I I #
coedge $-1 $426 $659 $428 $678 reversed $260 $-1 #
vertex $-1 $670 $893 #
straight-curve $-1 0 -5.0944955634187323 123.94909512619404 1 0 0 I I #
edge $-1 $431 -123.94909512619404 $667 123.94909512619404 $428 $894 forward 7 unknown #
edge $-1 $432 -123.94909512619404 $666 123.94909512619404 $429 $895 forward 7 unknown #
point $-1 247.89819025238808 -5.0944955634187323 123.94909512619404 #
point $-1 247.89819025238808 5.0944955634187323 123.94909512619404 #
coedge $-1 $682 $682 $-1 $896 reversed $434 $-1 #
vertex $-1 $436 $897 #
ellipse-curve $-1 0 0 -0.75 0 0 -1 1.5 0 0 1 I I #
point $-1 1.5 0 -5.4788430433057655 #
face $-1 $-1 $454 $60 $-1 $898 reversed single #
loop $-1 $-1 $702 $439 #
plane-surface $-1 0 5.0944955634187323 0 0 -1 0 0 0 -1 forward_v I I I I #
coedge $-1 $899 $700 $703 $900 forward $440 $-1 #
coedge $-1 $706 $442 $443 $694 reversed $273 $-1 #
coedge $-1 $700 $899 $442 $692 reversed $440 $-1 #
edge $-1 $707 -123.94909512619404 $901 123.94909512619404 $691 $902 forward 7 unknown #
coedge $-1 $444 $443 $899 $903 forward $177 $-1 #
edge $-1 $698 -247.89819025238808 $901 247.89819025238808 $690 $904 forward 7 unknown #
coedge $-1 $703 $702 $444 $696 reversed $687 $-1 #
edge $-1 $905 -247.89819025238808 $697 247.89819025238808 $695 $906 forward 7 unknown #
vertex $-1 $446 $907 #
vertex $-1 $709 $908 #
straight-curve $-1 247.89819025238808 0 -123.94909512619404 0 -1 0 I I #
coedge $-1 $689 $691 $447 $701 reversed $440 $-1 #
edge $-1 $704 -5.0944955634187323 $707 5.0944955634187323 $700 $909 forward 7 unknown #
coedge $-1 $695 $448 $453 $710 forward $687 $-1 #
coedge $-1 $448 $695 $689 $900 reversed $687 $-1 #
vertex $-1 $449 $910 #
straight-curve $-1 0 5.0944955634187323 123.94909512619404 -1 0 0 I I #
coedge $-1 $450 $690 $452 $709 reversed $273 $-1 #
vertex $-1 $701 $911 #
straight-curve $-1 0 -5.0944955634187323 123.94909512619404 1 0 0 I I #
edge $-1 $455 -123.94909512619404 $698 123.94909512619404 $452 $912 forward 7 unknown #
edge $-1 $456 -123.94909512619404 $697 123.94909512619404 $453 $913 forward 7 unknown #
point $-1 247.89819025238808 -5.0944955634187323 123.94909512619404 #
point $-1 247.89819025238808 5.0944955634187323 123.94909512619404 #
coedge $-1 $713 $713 $-1 $914 reversed $458 $-1 #
vertex $-1 $460 $915 #
ellipse-curve $-1 0 0 -0.75 0 0 -1 1.5 0 0 1 I I #
point $-1 1.5 0 -5.4788430433057655 #
face $-1 $-1 $478 $62 $-1 $916 reversed single #
loop $-1 $-1 $733 $463 #
plane-surface $-1 0 5.0944955634187323 0 0 -1 0 0 0 -1 forward_v I I I I #
coedge $-1 $917 $731 $734 $918 forward $464 $-1 #
coedge $-1 $737 $466 $467 $725 reversed $286 $-1 #
coedge $-1 $731 $917 $466 $723 reversed $464 $-1 #
edge $-1 $738 -123.94909512619404 $919 123.94909512619404 $722 $920 forward 7 unknown #
coedge $-1 $468 $467 $917 $921 forward $186 $-1 #
edge $-1 $729 -247.89819025238808 $919 247.89819025238808 $721 $922 forward 7 unknown #
coedge $-1 $734 $733 $468 $727 reversed $718 $-1 #
edge $-1 $923 -247.89819025238808 $728 247.89819025238808 $726 $924 forward 7 unknown #
vertex $-1 $470 $925 #
vertex $-1 $740 $926 #
straight-curve $-1 247.89819025238808 0 -123.94909512619404 0 -1 0 I I #
coedge $-1 $720 $722 $471 $732 reversed $464 $-1 #
edge $-1 $735 -5.0944955634187323 $738 5.0944955634187323 $731 $927 forward 7 unknown #
coedge $-1 $726 $472 $477 $741 forward $718 $-1 #
coedge $-1 $472 $726 $720 $918 reversed $718 $-1 #
vertex $-1 $473 $928 #
straight-curve $-1 0 5.0944955634187323 123.94909512619404 -1 0 0 I I #
coedge $-1 $474 $721 $476 $740 reversed $286 $-1 #
vertex $-1 $732 $929 #
straight-curve $-1 0 -5.0944955634187323 123.94909512619404 1 0 0 I I #
edge $-1 $479 -123.94909512619404 $729 123.94909512619404 $476 $930 forward 7 unknown #
edge $-1 $480 -123.94909512619404 $728 123.94909512619404 $477 $931 forward 7 unknown #
point $-1 247.89819025238808 -5.0944955634187323 123.94909512619404 #
point $-1 247.89819025238808 5.0944955634187323 123.94909512619404 #
coedge $-1 $744 $744 $-1 $932 reversed $482 $-1 #
vertex $-1 $484 $933 #
ellipse-curve $-1 0 0 -0.75 0 0 -1 1.5 0 0 1 I I #
point $-1 1.5 0 -5.4788430433057655 #
face $-1 $-1 $502 $64 $-1 $934 reversed single #
loop $-1 $-1 $764 $487 #
plane-surface $-1 0 5.0944955634187323 0 0 -1 0 0 0 -1 forward_v I I I I #
coedge $-1 $935 $762 $765 $936 forward $488 $-1 #
coedge $-1 $768 $490 $491 $756 reversed $299 $-1 #
coedge $-1 $762 $935 $490 $754 reversed $488 $-1 #
edge $-1 $769 -123.94909512619404 $937 123.94909512619404 $753 $938 forward 7 unknown #
coedge $-1 $492 $491 $935 $939 forward $195 $-1 #
edge $-1 $760 -247.89819025238808 $937 247.89819025238808 $752 $940 forward 7 unknown #
coedge $-1 $765 $764 $492 $758 reversed $749 $-1 #
edge $-1 $941 -247.89819025238808 $759 247.89819025238808 $757 $942 forward 7 unknown #
vertex $-1 $494 $943 #
vertex $-1 $771 $944 #
straight-curve $-1 247.89819025238808 0 -123.94909512619404 0 -1 0 I I #
coedge $-1 $751 $753 $495 $763 reversed $488 $-1 #
edge $-1 $766 -5.0944955634187323 $769 5.0944955634187323 $762 $945 forward 7 unknown #
coedge $-1 $757 $496 $501 $772 forward $749 $-1 #
coedge $-1 $496 $757 $751 $936 reversed $749 $-1 #
vertex $-1 $497 $946 #
straight-curve $-1 0 5.0944955634187323 123.94909512619404 -1 0 0 I I #
coedge $-1 $498 $752 $500 $771 reversed $299 $-1 #
vertex $-1 $763 $947 #
straight-curve $-1 0 -5.0944955634187323 123.94909512619404 1 0 0 I I #
edge $-1 $503 -123.94909512619404 $760 123.94909512619404 $500 $948 forward 7 unknown #
edge $-1 $504 -123.94909512619404 $759 123.94909512619404 $501 $949 forward 7 unknown #
point $-1 247.89819025238808 -5.0944955634187323 123.94909512619404 #
point $-1 247.89819025238808 5.0944955634187323 123.94909512619404 #
coedge $-1 $775 $775 $-1 $950 reversed $506 $-1 #
vertex $-1 $508 $951 #
ellipse-curve $-1 0 0 -0.75 0 0 -1 1.5 0 0 1 I I #
point $-1 1.5 0 -5.4788430433057655 #
face $-1 $-1 $526 $66 $-1 $952 reversed single #
loop $-1 $-1 $795 $511 #
plane-surface $-1 0 5.0944955634187323 0 0 -1 0 0 0 -1 forward_v I I I I #
coedge $-1 $953 $793 $796 $954 forward $512 $-1 #
coedge $-1 $799 $514 $515 $787 reversed $312 $-1 #
coedge $-1 $793 $953 $514 $785 reversed $512 $-1 #
edge $-1 $800 -123.94909512619404 $955 123.94909512619404 $784 $956 forward 7 unknown #
coedge $-1 $516 $515 $953 $957 forward $204 $-1 #
edge $-1 $791 -247.89819025238808 $955 247.89819025238808 $783 $958 forward 7 unknown #
coedge $-1 $796 $795 $516 $789 reversed $780 $-1 #
edge $-1 $959 -247.89819025238808 $790 247.89819025238808 $788 $960 forward 7 unknown #
vertex $-1 $518 $961 #
vertex $-1 $802 $962 #
straight-curve $-1 247.89819025238808 0 -123.94909512619404 0 -1 0 I I #
coedge $-1 $782 $784 $519 $794 reversed $512 $-1 #
edge $-1 $797 -5.0944955634187323 $800 5.0944955634187323 $793 $963 forward 7 unknown #
coedge $-1 $788 $520 $525 $803 forward $780 $-1 #
coedge $-1 $520 $788 $782 $954 reversed $780 $-1 #
vertex $-1 $521 $964 #
straight-curve $-1 0 5.0944955634187323 123.94909512619404 -1 0 0 I I #
coedge $-1 $522 $783 $524 $802 reversed $312 $-1 #
vertex $-1 $794 $965 #
straight-curve $-1 0 -5.0944955634187323 123.94909512619404 1 0 0 I I #
edge $-1 $527 -123.94909512619404 $791 123.94909512619404 $524 $966 forward 7 unknown #
edge $-1 $528 -123.94909512619404 $790 123.94909512619404 $525 $967 forward 7 unknown #
point $-1 247.89819025238808 -5.0944955634187323 123.94909512619404 #
point $-1 247.89819025238808 5.0944955634187323 123.94909512619404 #
coedge $-1 $806 $806 $-1 $968 reversed $530 $-1 #
vertex $-1 $532 $969 #
ellipse-curve $-1 0 0 -0.75 0 0 -1 1.5 0 0 1 I I #
point $-1 1.5 0 -5.4788430433057655 #
plane-surface $-1 61.974547563097019 0 0 -1 0 0 0 0 1 forward_v I I I I #
coedge $-1 $540 $538 $542 $815 reversed $325 $-1 #
edge $-1 $553 -8.3548924068904267 $817 8.3548924068904267 $552 $970 forward 7 unknown #
vertex $-1 $815 $971 #
straight-curve $-1 -61.974547563097019 -31.33036844776592 0 0 0 -1 I I #
edge $-1 $813 -31.33036844776592 $817 31.33036844776592 $811 $972 forward 7 unknown #
straight-curve $-1 0 -31.33036844776592 -8.3548924068904267 -1 0 0 I I #
vertex $-1 $545 $973 #
straight-curve $-1 0 31.33036844776592 -8.3548924068904267 1 0 0 I I #
point $-1 61.974547563097019 31.33036844776592 -8.3548924068904267 #
point $-1 61.974547563097019 -31.33036844776592 -8.3548924068904267 #
straight-curve $-1 -61.974547563097019 0 8.3548924068904267 0 -1 0 I I #
point $-1 -61.974547563097019 31.33036844776592 8.3548924068904267 #
point $-1 -61.974547563097019 -31.33036844776592 8.3548924068904267 #
straight-curve $-1 61.974547563097019 -31.33036844776592 0 0 0 -1 I I #
straight-curve $-1 61.974547563097019 31.33036844776592 0 0 0 -1 I I #
plane-surface $-1 247.89819025238808 0 0 -1 0 0 0 0 1 forward_v I I I I #
coedge $-1 $567 $565 $569 $831 reversed $344 $-1 #
edge $-1 $580 -123.94909512619404 $833 123.94909512619404 $579 $974 forward 7 unknown #
vertex $-1 $831 $975 #
straight-curve $-1 -247.89819025238808 -5.0944955634187323 0 0 0 -1 I I #
edge $-1 $829 -5.0944955634187323 $833 5.0944955634187323 $827 $976 forward 7 unknown #
straight-curve $-1 0 -5.0944955634187323 -123.94909512619404 -1 0 0 I I #
vertex $-1 $572 $977 #
straight-curve $-1 0 5.0944955634187323 -123.94909512619404 1 0 0 I I #
point $-1 247.89819025238808 5.0944955634187323 -123.94909512619404 #
point $-1 247.89819025238808 -5.0944955634187323 -123.94909512619404 #
straight-curve $-1 -247.89819025238808 0 123.94909512619404 0 -1 0 I I #
point $-1 -247.89819025238808 5.0944955634187323 123.94909512619404 #
point $-1 -247.89819025238808 -5.0944955634187323 123.94909512619404 #
straight-curve $-1 247.89819025238808 -5.0944955634187323 0 0 0 -1 I I #
straight-curve $-1 247.89819025238808 5.0944955634187323 0 0 0 -1 I I #
edge $-1 $978 1 $978 0 $589 $-1 forward 7 unknown #
point $-1 1.5 0 -0.75 #
plane-surface $-1 247.89819025238808 0 0 -1 0 0 0 0 1 forward_v I I I I #
coedge $-1 $598 $596 $600 $849 reversed $368 $-1 #
edge $-1 $611 -123.94909512619404 $851 123.94909512619404 $610 $979 forward 7 unknown #
vertex $-1 $849 $980 #
straight-curve $-1 -247.89819025238808 -5.0944955634187323 0 0 0 -1 I I #
edge $-1 $847 -5.0944955634187323 $851 5.0944955634187323 $845 $981 forward 7 unknown #
straight-curve $-1 0 -5.0944955634187323 -123.94909512619404 -1 0 0 I I #
vertex $-1 $603 $982 #
straight-curve $-1 0 5.0944955634187323 -123.94909512619404 1 0 0 I I #
point $-1 247.89819025238808 5.0944955634187323 -123.94909512619404 #
point $-1 247.89819025238808 -5.0944955634187323 -123.94909512619404 #
straight-curve $-1 -247.89819025238808 0 123.94909512619404 0 -1 0 I I #
point $-1 -247.89819025238808 5.0944955634187323 123.94909512619404 #
point $-1 -247.89819025238808 -5.0944955634187323 123.94909512619404 #
straight-curve $-1 247.89819025238808 -5.0944955634187323 0 0 0 -1 I I #
straight-curve $-1 247.89819025238808 5.0944955634187323 0 0 0 -1 I I #
edge $-1 $983 1 $983 0 $620 $-1 forward 7 unknown #
point $-1 1.5 0 -0.75 #
plane-surface $-1 247.89819025238808 0 0 -1 0 0 0 0 1 forward_v I I I I #
coedge $-1 $629 $627 $631 $867 reversed $392 $-1 #
edge $-1 $642 -123.94909512619404 $869 123.94909512619404 $641 $984 forward 7 unknown #
vertex $-1 $867 $985 #
straight-curve $-1 -247.89819025238808 -5.0944955634187323 0 0 0 -1 I I #
edge $-1 $865 -5.0944955634187323 $869 5.0944955634187323 $863 $986 forward 7 unknown #
straight-curve $-1 0 -5.0944955634187323 -123.94909512619404 -1 0 0 I I #
vertex $-1 $634 $987 #
straight-curve $-1 0 5.0944955634187323 -123.94909512619404 1 0 0 I I #
point $-1 247.89819025238808 5.0944955634187323 -123.94909512619404 #
point $-1 247.89819025238808 -5.0944955634187323 -123.94909512619404 #
straight-curve $-1 -247.89819025238808 0 123.94909512619404 0 -1 0 I I #
point $-1 -247.89819025238808 5.0944955634187323 123.94909512619404 #
point $-1 -247.89819025238808 -5.0944955634187323 123.94909512619404 #
straight-curve $-1 247.89819025238808 -5.0944955634187323 0 0 0 -1 I I #
straight-curve $-1 247.89819025238808 5.0944955634187323 0 0 0 -1 I I #
edge $-1 $988 1 $988 0 $651 $-1 forward 7 unknown #
point $-1 1.5 0 -0.75 #
plane-surface $-1 247.89819025238808 0 0 -1 0 0 0 0 1 forward_v I I I I #
coedge $-1 $660 $658 $662 $885 reversed $416 $-1 #
edge $-1 $673 -123.94909512619404 $887 123.94909512619404 $672 $989 forward 7 unknown #
vertex $-1 $885 $990 #
straight-curve $-1 -247.89819025238808 -5.0944955634187323 0 0 0 -1 I I #
edge $-1 $883 -5.0944955634187323 $887 5.0944955634187323 $881 $991 forward 7 unknown #
straight-curve $-1 0 -5.0944955634187323 -123.94909512619404 -1 0 0 I I #
vertex $-1 $665 $992 #
straight-curve $-1 0 5.0944955634187323 -123.94909512619404 1 0 0 I I #
point $-1 247.89819025238808 5.0944955634187323 -123.94909512619404 #
point $-1 247.89819025238808 -5.0944955634187323 -123.94909512619404 #
straight-curve $-1 -247.89819025238808 0 123.94909512619404 0 -1 0 I I #
point $-1 -247.89819025238808 5.0944955634187323 123.94909512619404 #
point $-1 -247.89819025238808 -5.0944955634187323 123.94909512619404 #
straight-curve $-1 247.89819025238808 -5.0944955634187323 0 0 0 -1 I I #
straight-curve $-1 247.89819025238808 5.0944955634187323 0 0 0 -1 I I #
edge $-1 $993 1 $993 0 $682 $-1 forward 7 unknown #
point $-1 1.5 0 -0.75 #
plane-surface $-1 247.89819025238808 0 0 -1 0 0 0 0 1 forward_v I I I I #
coedge $-1 $691 $689 $693 $903 reversed $440 $-1 #
edge $-1 $704 -123.94909512619404 $905 123.94909512619404 $703 $994 forward 7 unknown #
vertex $-1 $903 $995 #
straight-curve $-1 -247.89819025238808 -5.0944955634187323 0 0 0 -1 I I #
edge $-1 $901 -5.0944955634187323 $905 5.0944955634187323 $899 $996 forward 7 unknown #
straight-curve $-1 0 -5.0944955634187323 -123.94909512619404 -1 0 0 I I #
vertex $-1 $696 $997 #
straight-curve $-1 0 5.0944955634187323 -123.94909512619404 1 0 0 I I #
point $-1 247.89819025238808 5.0944955634187323 -123.94909512619404 #
point $-1 247.89819025238808 -5.0944955634187323 -123.94909512619404 #
straight-curve $-1 -247.89819025238808 0 123.94909512619404 0 -1 0 I I #
point $-1 -247.89819025238808 5.0944955634187323 123.94909512619404 #
point $-1 -247.89819025238808 -5.0944955634187323 123.94909512619404 #
straight-curve $-1 247.89819025238808 -5.0944955634187323 0 0 0 -1 I I #
straight-curve $-1 247.89819025238808 5.0944955634187323 0 0 0 -1 I I #
edge $-1 $998 1 $998 0 $713 $-1 forward 7 unknown #
point $-1 1.5 0 -0.75 #
plane-surface $-1 247.89819025238808 0 0 -1 0 0 0 0 1 forward_v I I I I #
coedge $-1 $722 $720 $724 $921 reversed $464 $-1 #
edge $-1 $735 -123.94909512619404 $923 123.94909512619404 $734 $999 forward 7 unknown #
vertex $-1 $921 $1000 #
straight-curve $-1 -247.89819025238808 -5.0944955634187323 0 0 0 -1 I I #
edge $-1 $919 -5.0944955634187323 $923 5.0944955634187323 $917 $1001 forward 7 unknown #
straight-curve $-1 0 -5.0944955634187323 -123.94909512619404 -1 0 0 I I #
vertex $-1 $727 $1002 #
straight-curve $-1 0 5.0944955634187323 -123.94909512619404 1 0 0 I I #
point $-1 247.89819025238808 5.0944955634187323 -123.94909512619404 #
point $-1 247.89819025238808 -5.0944955634187323 -123.94909512619404 #
straight-curve $-1 -247.89819025238808 0 123.94909512619404 0 -1 0 I I #
point $-1 -247.89819025238808 5.0944955634187323 123.94909512619404 #
point $-1 -247.89819025238808 -5.0944955634187323 123.94909512619404 #
straight-curve $-1 247.89819025238808 -5.0944955634187323 0 0 0 -1 I I #
straight-curve $-1 247.89819025238808 5.0944955634187323 0 0 0 -1 I I #
edge $-1 $1003 1 $1003 0 $744 $-1 forward 7 unknown #
point $-1 1.5 0 -0.75 #
plane-surface $-1 247.89819025238808 0 0 -1 0 0 0 0 1 forward_v I I I I #
coedge $-1 $753 $751 $755 $939 reversed $488 $-1 #
edge $-1 $766 -123.94909512619404 $941 123.94909512619404 $765 $1004 forward 7 unknown #
vertex $-1 $939 $1005 #
straight-curve $-1 -247.89819025238808 -5.0944955634187323 0 0 0 -1 I I #
edge $-1 $937 -5.0944955634187323 $941 5.0944955634187323 $935 $1006 forward 7 unknown #
straight-curve $-1 0 -5.0944955634187323 -123.94909512619404 -1 0 0 I I #
vertex $-1 $758 $1007 #
straight-curve $-1 0 5.0944955634187323 -123.94909512619404 1 0 0 I I #
point $-1 247.89819025238808 5.0944955634187323 -123.94909512619404 #
point $-1 247.89819025238808 -5.0944955634187323 -123.94909512619404 #
straight-curve $-1 -247.89819025238808 0 123.94909512619404 0 -1 0 I I #
point $-1 -247.89819025238808 5.0944955634187323 123.94909512619404 #
point $-1 -247.89819025238808 -5.0944955634187323 123.94909512619404 #
straight-curve $-1 247.89819025238808 -5.0944955634187323 0 0 0 -1 I I #
straight-curve $-1 247.89819025238808 5.0944955634187323 0 0 0 -1 I I #
edge $-1 $1008 1 $1008 0 $775 $-1 forward 7 unknown #
point $-1 1.5 0 -0.75 #
plane-surface $-1 247.89819025238808 0 0 -1 0 0 0 0 1 forward_v I I I I #
coedge $-1 $784 $782 $786 $957 reversed $512 $-1 #
edge $-1 $797 -123.94909512619404 $959 123.94909512619404 $796 $1009 forward 7 unknown #
vertex $-1 $957 $1010 #
straight-curve $-1 -247.89819025238808 -5.0944955634187323 0 0 0 -1 I I #
edge $-1 $955 -5.0944955634187323 $959 5.0944955634187323 $953 $1011 forward 7 unknown #
straight-curve $-1 0 -5.0944955634187323 -123.94909512619404 -1 0 0 I I #
vertex $-1 $789 $1012 #
straight-curve $-1 0 5.0944955634187323 -123.94909512619404 1 0 0 I I #
point $-1 247.89819025238808 5.0944955634187323 -123.94909512619404 #
point $-1 247.89819025238808 -5.0944955634187323 -123.94909512619404 #
straight-curve $-1 -247.89819025238808 0 123.94909512619404 0 -1 0 I I #
point $-1 -247.89819025238808 5.0944955634187323 123.94909512619404 #
point $-1 -247.89819025238808 -5.0944955634187323 123.94909512619404 #
straight-curve $-1 247.89819025238808 -5.0944955634187323 0 0 0 -1 I I #
straight-curve $-1 247.89819025238808 5.0944955634187323 0 0 0 -1 I I #
edge $-1 $1013 1 $1013 0 $806 $-1 forward 7 unknown #
point $-1 1.5 0 -0.75 #
straight-curve $-1 -61.974547563097019 31.33036844776592 0 0 0 -1 I I #
point $-1 -61.974547563097019 -31.33036844776592 -8.3548924068904267 #
straight-curve $-1 -61.974547563097019 0 -8.3548924068904267 0 1 0 I I #
point $-1 -61.974547563097019 31.33036844776592 -8.3548924068904267 #
straight-curve $-1 -247.89819025238808 5.0944955634187323 0 0 0 -1 I I #
point $-1 -247.89819025238808 -5.0944955634187323 -123.94909512619404 #
straight-curve $-1 -247.89819025238808 0 -123.94909512619404 0 1 0 I I #
point $-1 -247.89819025238808 5.0944955634187323 -123.94909512619404 #
vertex $-1 $842 $1014 #
straight-curve $-1 -247.89819025238808 5.0944955634187323 0 0 0 -1 I I #
point $-1 -247.89819025238808 -5.0944955634187323 -123.94909512619404 #
straight-curve $-1 -247.89819025238808 0 -123.94909512619404 0 1 0 I I #
point $-1 -247.89819025238808 5.0944955634187323 -123.94909512619404 #
vertex $-1 $860 $1015 #
straight-curve $-1 -247.89819025238808 5.0944955634187323 0 0 0 -1 I I #
point $-1 -247.89819025238808 -5.0944955634187323 -123.94909512619404 #
straight-curve $-1 -247.89819025238808 0 -123.94909512619404 0 1 0 I I #
point $-1 -247.89819025238808 5.0944955634187323 -123.94909512619404 #
vertex $-1 $878 $1016 #
straight-curve $-1 -247.89819025238808 5.0944955634187323 0 0 0 -1 I I #
point $-1 -247.89819025238808 -5.0944955634187323 -123.94909512619404 #
straight-curve $-1 -247.89819025238808 0 -123.94909512619404 0 1 0 I I #
point $-1 -247.89819025238808 5.0944955634187323 -123.94909512619404 #
vertex $-1 $896 $1017 #
straight-curve $-1 -247.89819025238808 5.0944955634187323 0 0 0 -1 I I #
point $-1 -247.89819025238808 -5.0944955634187323 -123.94909512619404 #
straight-curve $-1 -247.89819025238808 0 -123.94909512619404 0 1 0 I I #
point $-1 -247.89819025238808 5.0944955634187323 -123.94909512619404 #
vertex $-1 $914 $1018 #
straight-curve $-1 -247.89819025238808 5.0944955634187323 0 0 0 -1 I I #
point $-1 -247.89819025238808 -5.0944955634187323 -123.94909512619404 #
straight-curve $-1 -247.89819025238808 0 -123.94909512619404 0 1 0 I I #
point $-1 -247.89819025238808 5.0944955634187323 -123.94909512619404 #
vertex $-1 $932 $1019 #
straight-curve $-1 -247.89819025238808 5.0944955634187323 0 0 0 -1 I I #
point $-1 -247.89819025238808 -5.0944955634187323 -123.94909512619404 #
straight-curve $-1 -247.89819025238808 0 -123.94909512619404 0 1 0 I I #
point $-1 -247.89819025238808 5.0944955634187323 -123.94909512619404 #
vertex $-1 $950 $1020 #
straight-curve $-1 -247.89819025238808 5.0944955634187323 0 0 0 -1 I I #
point $-1 -247.89819025238808 -5.0944955634187323 -123.94909512619404 #
straight-curve $-1 -247.89819025238808 0 -123.94909512619404 0 1 0 I I #
point $-1 -247.89819025238808 5.0944955634187323 -123.94909512619404 #
vertex $-1 $968 $1021 #
point $-1 0 0 0.75 #
point $-1 0 0 0.75 #
point $-1 0 0 0.75 #
point $-1 0 0 0.75 #
point $-1 0 0 0.75 #
point $-1 0 0 0.75 #
point $-1 0 0 0.75 #
point $-1 0 0 0.75 #
End-of-ACIS-data 