500 0 11 0           
7 Unknown 11 ACIS 5.0 NT 24 Thu Mar 25 16:56:06 1999 
-1 9.9999999999999995e-007 1e-010 
body $-1 $11 $-1 $12 #
body $-1 $13 $-1 $14 #
body $-1 $15 $-1 $16 #
body $-1 $17 $-1 $18 #
body $-1 $19 $-1 $20 #
body $-1 $21 $-1 $22 #
body $-1 $23 $-1 $24 #
body $-1 $25 $-1 $26 #
body $-1 $27 $-1 $28 #
body $-1 $29 $-1 $30 #
body $-1 $31 $-1 $32 #
lump $-1 $-1 $33 $0 #
transform $-1 1 0 0 0 1 0 0 0 1 47.968993194372388 22.317652038602485 7.83334806652935 1 rotate no_reflect no_shear #
lump $-1 $-1 $34 $1 #
transform $-1 1 0 0 0 1 0 0 0 1 47.968993194372388 22.317652038602485 7.83334806652935 1 rotate no_reflect no_shear #
lump $-1 $-1 $35 $2 #
transform $-1 1 0 0 0 1 0 0 0 1 47.968993194372388 22.317652038602485 7.83334806652935 1 rotate no_reflect no_shear #
lump $-1 $-1 $36 $3 #
transform $-1 1 0 0 0 1 0 0 0 1 47.968993194372388 22.317652038602485 7.83334806652935 1 rotate no_reflect no_shear #
lump $-1 $-1 $37 $4 #
transform $-1 1 0 0 0 1 0 0 0 1 47.968993194372388 22.317652038602485 7.83334806652935 1 rotate no_reflect no_shear #
lump $-1 $-1 $38 $5 #
transform $-1 1 0 0 0 1 0 0 0 1 47.968993194372388 22.317652038602485 7.83334806652935 1 rotate no_reflect no_shear #
lump $-1 $-1 $39 $6 #
transform $-1 1 0 0 0 1 0 0 0 1 47.968993194372388 22.317652038602485 7.83334806652935 1 rotate no_reflect no_shear #
lump $-1 $-1 $40 $7 #
transform $-1 1 0 0 0 1 0 0 0 1 47.968993194372388 22.317652038602485 7.83334806652935 1 rotate no_reflect no_shear #
lump $-1 $-1 $41 $8 #
transform $-1 1 0 0 0 1 0 0 0 1 47.968993194372388 22.317652038602485 7.83334806652935 1 rotate no_reflect no_shear #
lump $-1 $-1 $42 $9 #
transform $-1 1 0 0 0 1 0 0 0 1 47.968993194372388 22.317652038602485 7.83334806652935 1 rotate no_reflect no_shear #
lump $-1 $-1 $43 $10 #
transform $-1 1 0 0 0 1 0 0 0 1 47.968993194372388 22.317652038602485 7.83334806652935 1 rotate no_reflect no_shear #
shell $-1 $-1 $-1 $44 $-1 $11 #
shell $-1 $-1 $-1 $45 $-1 $13 #
shell $-1 $-1 $-1 $46 $-1 $15 #
shell $-1 $-1 $-1 $47 $-1 $17 #
shell $-1 $-1 $-1 $48 $-1 $19 #
shell $-1 $-1 $-1 $49 $-1 $21 #
shell $-1 $-1 $-1 $50 $-1 $23 #
shell $-1 $-1 $-1 $51 $-1 $25 #
shell $-1 $-1 $-1 $52 $-1 $27 #
shell $-1 $-1 $-1 $53 $-1 $29 #
shell $-1 $-1 $-1 $54 $-1 $31 #
face $-1 $55 $56 $33 $-1 $57 forward single #
face $-1 $58 $59 $34 $-1 $60 reversed single #
face $-1 $61 $62 $35 $-1 $63 reversed single #
face $-1 $64 $65 $36 $-1 $66 forward single #
face $-1 $67 $68 $37 $-1 $69 forward single #
face $-1 $70 $71 $38 $-1 $72 reversed single #
face $-1 $73 $74 $39 $-1 $75 forward single #
face $-1 $76 $77 $40 $-1 $78 forward single #
face $-1 $79 $80 $41 $-1 $81 reversed single #
face $-1 $82 $83 $42 $-1 $84 forward single #
face $-1 $85 $86 $43 $-1 $87 forward single #
face $-1 $88 $89 $33 $-1 $90 reversed single #
loop $-1 $-1 $91 $44 #
plane-surface $-1 0 0 7.83334806652935 0 0 1 1 0 0 forward_v I I I I #
face $-1 $92 $93 $34 $-1 $94 reversed single #
loop $-1 $-1 $95 $45 #
plane-surface $-1 -43.537240726182858 -21.817652038602485 0 0 1 0 0 0 1 forward_v I I I I #
face $-1 $96 $97 $35 $-1 $98 reversed single #
loop $-1 $-1 $99 $46 #
plane-surface $-1 -15.618470927490407 53.342200880661636 104.7671366565456 1 0 0 0 -0.66913061440640931 -0.74314481823134659 forward_v I I I I #
face $-1 $100 $101 $36 $-1 $102 forward single #
loop $-1 $103 $104 $47 #
cone-surface $-1 -9.8898356715818494 18.363974074072228 3.9359810039615852 0 -0.66913061440640931 -0.74314481823134659 1.5 0 0 1 I I 0 1 1.5 forward I I I I #
face $-1 $105 $106 $37 $-1 $107 forward single #
loop $-1 $108 $109 $48 #
cone-surface $-1 -1.2968827877190137 18.363974074072228 3.9359810039615852 0 -0.66913061440640931 -0.74314481823134659 1.5 0 0 1 I I 0 1 1.5 forward I I I I #
face $-1 $110 $111 $38 $-1 $112 reversed single #
loop $-1 $-1 $113 $49 #
plane-surface $-1 27.918769798692445 53.342200880661636 104.7671366565456 1 0 0 0 -0.66913061440640931 -0.74314481823134659 forward_v I I I I #
face $-1 $114 $115 $39 $-1 $116 forward single #
loop $-1 $117 $118 $50 #
cone-surface $-1 33.647405054601009 18.363974074072228 3.9359810039615852 0 -0.66913061440640931 -0.74314481823134659 1.5 0 0 1 I I 0 1 1.5 forward I I I I #
face $-1 $119 $120 $40 $-1 $121 forward single #
loop $-1 $122 $123 $51 #
cone-surface $-1 42.240357938463845 18.363974074072228 3.9359810039615852 0 -0.66913061440640931 -0.74314481823134659 1.5 0 0 1 I I 0 1 1.5 forward I I I I #
face $-1 $124 $125 $41 $-1 $126 reversed single #
loop $-1 $-1 $127 $52 #
plane-surface $-1 40.674874403682793 -22.317652038602489 2.8431893057757165 0 -0.78801076186113728 0.61566146476048833 1 0 0 forward_v I I I I #
face $-1 $128 $129 $42 $-1 $130 forward single #
loop $-1 $131 $132 $53 #
cone-surface $-1 37.54882349338726 -19.366440755762884 4.5555442032970817 0 0.78801076186113728 -0.61566146476048833 1 0 0 1 I I 0 1 1 forward I I I I #
face $-1 $133 $134 $43 $-1 $135 forward single #
loop $-1 $136 $137 $54 #
cone-surface $-1 43.80092531397834 -19.366440755762884 4.5555442032970817 0 0.78801076186113728 -0.61566146476048833 1 0 0 1 I I 0 1 1 forward I I I I #
face $-1 $138 $139 $33 $-1 $140 reversed single #
loop $-1 $-1 $141 $55 #
plane-surface $-1 0 0 -7.83334806652935 0 0 1 1 0 0 forward_v I I I I #
coedge $-1 $142 $143 $144 $145 forward $56 $-1 #
face $-1 $146 $147 $34 $-1 $148 reversed single #
loop $-1 $-1 $149 $58 #
plane-surface $-1 -43.537240726182858 -18.817652038602485 0 0 -1 0 0 0 -1 forward_v I I I I #
coedge $-1 $150 $151 $152 $153 reversed $59 $-1 #
face $-1 $154 $155 $35 $-1 $156 reversed single #
loop $-1 $-1 $157 $61 #
plane-surface $-1 -5.5933592296504386 -10.852842896552886 33.471319200200469 0 0.66913061440640931 0.74314481823134659 1 0 0 forward_v I I I I #
coedge $-1 $158 $159 $160 $161 reversed $62 $-1 #
face $-1 $-1 $162 $36 $-1 $163 forward single #
loop $-1 $164 $165 $64 #
cone-surface $-1 -9.8898356715818494 16.256770128415642 1.5956939815832811 0 -0.66913061440640931 -0.74314481823134659 0.75 0 0 1 I I -0.70710678118654757 0.70710678118654757 0.75 forward I I I I #
loop $-1 $-1 $166 $47 #
coedge $-1 $104 $104 $167 $168 reversed $65 $-1 #
face $-1 $-1 $169 $37 $-1 $170 forward single #
loop $-1 $171 $172 $67 #
cone-surface $-1 -1.2968827877190137 16.256770128415642 1.5956939815832811 0 -0.66913061440640931 -0.74314481823134659 0.75 0 0 1 I I -0.70710678118654757 0.70710678118654757 0.75 forward I I I I #
loop $-1 $-1 $173 $48 #
coedge $-1 $109 $109 $174 $175 reversed $68 $-1 #
face $-1 $176 $177 $38 $-1 $178 forward single #
loop $-1 $-1 $179 $70 #
plane-surface $-1 37.943881496532413 -10.852842896552886 33.471319200200469 0 0.66913061440640931 0.74314481823134659 1 0 0 forward_v I I I I #
coedge $-1 $180 $181 $182 $183 reversed $71 $-1 #
face $-1 $-1 $184 $39 $-1 $185 forward single #
loop $-1 $186 $187 $73 #
cone-surface $-1 33.647405054601009 16.256770128415642 1.5956939815832811 0 -0.66913061440640931 -0.74314481823134659 0.75 0 0 1 I I -0.70710678118654757 0.70710678118654757 0.75 forward I I I I #
loop $-1 $-1 $188 $50 #
coedge $-1 $118 $118 $189 $190 reversed $74 $-1 #
face $-1 $-1 $191 $40 $-1 $192 forward single #
loop $-1 $193 $194 $76 #
cone-surface $-1 42.240357938463845 16.256770128415642 1.5956939815832811 0 -0.66913061440640931 -0.74314481823134659 0.75 0 0 1 I I -0.70710678118654757 0.70710678118654757 0.75 forward I I I I #
loop $-1 $-1 $195 $51 #
coedge $-1 $123 $123 $196 $197 reversed $77 $-1 #
face $-1 $198 $199 $41 $-1 $200 forward single #
loop $-1 $-1 $201 $79 #
plane-surface $-1 33.380755612993198 -97.917817784220674 61.908510532042115 1 0 0 0 0.78801076186113728 -0.61566146476048833 forward_v I I I I #
coedge $-1 $202 $203 $204 $205 reversed $80 $-1 #
face $-1 $-1 $206 $42 $-1 $207 forward single #
loop $-1 $208 $209 $82 #
cone-surface $-1 37.54882349338726 -17.970593695002236 3.4649889880613784 0 0.78801076186113728 -0.61566146476048833 0.5 0 0 1 I I -0.70710678118654746 0.70710678118654746 0.5 forward I I I I #
loop $-1 $-1 $210 $53 #
coedge $-1 $132 $132 $211 $212 reversed $83 $-1 #
face $-1 $-1 $213 $43 $-1 $214 forward single #
loop $-1 $215 $216 $85 #
cone-surface $-1 43.80092531397834 -17.970593695002236 3.4649889880613784 0 0.78801076186113728 -0.61566146476048833 0.5 0 0 1 I I -0.70710678118654746 0.70710678118654746 0.5 forward I I I I #
loop $-1 $-1 $217 $54 #
coedge $-1 $137 $137 $218 $219 reversed $86 $-1 #
face $-1 $220 $221 $33 $-1 $222 reversed single #
loop $-1 $-1 $223 $88 #
plane-surface $-1 0 -22.317652038602485 0 0 1 0 0 0 1 forward_v I I I I #
coedge $-1 $224 $225 $226 $227 forward $89 $-1 #
coedge $-1 $228 $91 $229 $230 forward $56 $-1 #
coedge $-1 $91 $228 $231 $232 forward $56 $-1 #
coedge $-1 $233 $234 $91 $145 reversed $235 $-1 #
edge $-1 $236 -22.317652038602485 $237 22.317652038602485 $144 $238 forward 7 unknown #
face $-1 $239 $240 $34 $-1 $241 reversed single #
loop $-1 $-1 $242 $92 #
plane-surface $-1 -39.105488257993329 -20.317652038602485 0 -1 0 0 0 0 1 forward_v I I I I #
coedge $-1 $243 $244 $245 $246 forward $93 $-1 #
coedge $-1 $247 $95 $248 $249 reversed $59 $-1 #
coedge $-1 $95 $247 $250 $251 reversed $59 $-1 #
coedge $-1 $252 $253 $95 $153 forward $254 $-1 #
edge $-1 $255 -7.83334806652935 $256 7.83334806652935 $152 $257 forward 7 unknown #
face $-1 $258 $259 $35 $-1 $260 reversed single #
loop $-1 $-1 $261 $96 #
plane-surface $-1 4.4317524681895293 53.342200880661636 104.7671366565456 -1 0 0 0 0.66913061440640931 0.74314481823134659 forward_v I I I I #
coedge $-1 $262 $263 $264 $265 reversed $97 $-1 #
coedge $-1 $159 $99 $266 $267 reversed $62 $-1 #
coedge $-1 $99 $158 $262 $268 reversed $62 $-1 #
coedge $-1 $264 $269 $99 $161 forward $270 $-1 #
edge $-1 $271 4.3534484017283326 $272 9.0500923610852837 $160 $273 forward 7 unknown #
loop $-1 $-1 $167 $100 #
plane-surface $-1 -5.5933592296504386 -10.852842896552886 33.471319200200469 0 0.66913061440640931 0.74314481823134659 1 0 0 forward_v I I I I #
loop $-1 $-1 $274 $64 #
coedge $-1 $165 $165 $166 $275 reversed $101 $-1 #
coedge $-1 $166 $166 $165 $275 forward $103 $-1 #
coedge $-1 $167 $167 $104 $168 forward $162 $-1 #
edge $-1 $276 5.7150576402056092e-016 $276 6.2831853071796013 $167 $277 forward 7 unknown #
loop $-1 $-1 $174 $105 #
plane-surface $-1 -5.5933592296504386 -10.852842896552886 33.471319200200469 0 0.66913061440640931 0.74314481823134659 1 0 0 forward_v I I I I #
loop $-1 $-1 $278 $67 #
coedge $-1 $172 $172 $173 $279 reversed $106 $-1 #
coedge $-1 $173 $173 $172 $279 forward $108 $-1 #
coedge $-1 $174 $174 $109 $175 forward $169 $-1 #
edge $-1 $280 5.7150576402056092e-016 $280 6.2831853071796013 $174 $281 forward 7 unknown #
face $-1 $282 $283 $38 $-1 $284 reversed single #
loop $-1 $-1 $182 $110 #
plane-surface $-1 0 0 7.83334806652935 0 0 1 1 0 0 forward_v I I I I #
coedge $-1 $285 $286 $287 $288 reversed $111 $-1 #
coedge $-1 $181 $113 $289 $290 reversed $71 $-1 #
coedge $-1 $113 $180 $285 $291 reversed $71 $-1 #
coedge $-1 $287 $292 $113 $183 forward $177 $-1 #
edge $-1 $293 4.3534484017283326 $294 9.0500923610852837 $182 $295 forward 7 unknown #
loop $-1 $-1 $189 $114 #
plane-surface $-1 37.943881496532413 -10.852842896552886 33.471319200200469 0 0.66913061440640931 0.74314481823134659 1 0 0 forward_v I I I I #
loop $-1 $-1 $296 $73 #
coedge $-1 $187 $187 $188 $297 reversed $115 $-1 #
coedge $-1 $188 $188 $187 $297 forward $117 $-1 #
coedge $-1 $189 $189 $118 $190 forward $184 $-1 #
edge $-1 $298 5.7150576402056092e-016 $298 6.2831853071796013 $189 $299 forward 7 unknown #
loop $-1 $-1 $196 $119 #
plane-surface $-1 37.943881496532413 -10.852842896552886 33.471319200200469 0 0.66913061440640931 0.74314481823134659 1 0 0 forward_v I I I I #
loop $-1 $-1 $300 $76 #
coedge $-1 $194 $194 $195 $301 reversed $120 $-1 #
coedge $-1 $195 $195 $194 $301 forward $122 $-1 #
coedge $-1 $196 $196 $123 $197 forward $191 $-1 #
edge $-1 $302 5.7150576402056092e-016 $302 6.2831853071796013 $196 $303 forward 7 unknown #
face $-1 $304 $305 $41 $-1 $306 reversed single #
loop $-1 $-1 $204 $124 #
plane-surface $-1 0 0 7.83334806652935 0 0 1 1 0 0 forward_v I I I I #
coedge $-1 $307 $308 $309 $310 reversed $125 $-1 #
coedge $-1 $311 $127 $312 $313 reversed $80 $-1 #
coedge $-1 $127 $311 $307 $314 forward $80 $-1 #
coedge $-1 $309 $315 $127 $205 forward $199 $-1 #
edge $-1 $316 -27.631555992530991 $317 -13.043318411151802 $204 $318 forward 7 unknown #
loop $-1 $-1 $211 $128 #
plane-surface $-1 40.674874403682793 -22.317652038602489 2.8431893057757165 0 -0.78801076186113728 0.61566146476048833 1 0 0 forward_v I I I I #
loop $-1 $-1 $319 $82 #
coedge $-1 $209 $209 $210 $320 reversed $129 $-1 #
coedge $-1 $210 $210 $209 $320 forward $131 $-1 #
coedge $-1 $211 $211 $132 $212 forward $206 $-1 #
edge $-1 $321 -1.7517289567077944e-016 $321 6.2831853071796004 $211 $322 forward 7 unknown #
loop $-1 $-1 $218 $133 #
plane-surface $-1 40.674874403682793 -22.317652038602489 2.8431893057757165 0 -0.78801076186113728 0.61566146476048833 1 0 0 forward_v I I I I #
loop $-1 $-1 $323 $85 #
coedge $-1 $216 $216 $217 $324 reversed $134 $-1 #
coedge $-1 $217 $217 $216 $324 forward $136 $-1 #
coedge $-1 $218 $218 $137 $219 forward $213 $-1 #
edge $-1 $325 -1.7517289567077944e-016 $325 6.2831853071796004 $218 $326 forward 7 unknown #
face $-1 $327 $328 $33 $-1 $329 reversed single #
loop $-1 $-1 $330 $138 #
plane-surface $-1 -47.968993194372388 0 0 1 0 0 0 0 -1 forward_v I I I I #
coedge $-1 $331 $231 $332 $333 forward $139 $-1 #
coedge $-1 $334 $141 $331 $335 forward $89 $-1 #
coedge $-1 $141 $334 $336 $337 forward $89 $-1 #
coedge $-1 $234 $233 $141 $227 reversed $235 $-1 #
edge $-1 $338 -22.317652038602485 $339 22.317652038602485 $226 $340 forward 7 unknown #
coedge $-1 $143 $142 $341 $342 forward $56 $-1 #
coedge $-1 $343 $344 $142 $230 reversed $328 $-1 #
edge $-1 $237 -47.968993194372388 $345 47.968993194372388 $229 $346 forward 7 unknown #
coedge $-1 $223 $347 $143 $232 reversed $139 $-1 #
edge $-1 $348 -47.968993194372388 $236 47.968993194372388 $231 $349 forward 7 unknown #
coedge $-1 $226 $144 $347 $350 forward $235 $-1 #
coedge $-1 $144 $226 $343 $351 reversed $235 $-1 #
loop $-1 $-1 $233 $327 #
vertex $-1 $145 $352 #
vertex $-1 $145 $353 #
straight-curve $-1 47.968993194372388 0 7.83334806652935 0 1 0 I I #
face $-1 $354 $355 $34 $-1 $356 forward single #
loop $-1 $-1 $357 $146 #
plane-surface $-1 0 0 -7.83334806652935 0 0 1 1 0 0 forward_v I I I I #
coedge $-1 $358 $359 $247 $360 forward $147 $-1 #
coedge $-1 $361 $149 $357 $362 reversed $93 $-1 #
coedge $-1 $149 $361 $363 $364 reversed $93 $-1 #
coedge $-1 $359 $358 $149 $246 reversed $147 $-1 #
edge $-1 $365 -7.83334806652935 $366 7.83334806652935 $245 $367 forward 7 unknown #
coedge $-1 $151 $150 $242 $360 reversed $59 $-1 #
coedge $-1 $368 $369 $150 $249 forward $240 $-1 #
edge $-1 $370 17.3368678949019 $255 26.200372831280959 $248 $371 forward 7 unknown #
coedge $-1 $372 $373 $151 $251 forward $355 $-1 #
edge $-1 $256 -26.200372831280959 $374 -17.3368678949019 $250 $375 forward 7 unknown #
coedge $-1 $376 $152 $373 $377 reversed $254 $-1 #
coedge $-1 $152 $376 $368 $378 reversed $254 $-1 #
loop $-1 $-1 $376 $354 #
vertex $-1 $378 $379 #
vertex $-1 $153 $380 #
straight-curve $-1 -47.968993194372388 -21.817652038602485 0 0 0 1 I I #
face $-1 $-1 $270 $35 $-1 $381 forward single #
loop $-1 $-1 $382 $154 #
plane-surface $-1 0 22.317652038602485 0 0 -1 0 0 0 -1 forward_v I I I I #
coedge $-1 $383 $384 $385 $386 reversed $155 $-1 #
coedge $-1 $387 $157 $159 $268 forward $97 $-1 #
coedge $-1 $157 $387 $383 $388 forward $97 $-1 #
coedge $-1 $385 $160 $157 $265 forward $270 $-1 #
edge $-1 $272 -12.821791312665187 $389 7.2284320830147486 $264 $390 forward 7 unknown #
coedge $-1 $391 $392 $158 $267 forward $259 $-1 #
edge $-1 $393 -48.779097569469407 $271 -44.550220261743448 $266 $394 forward 7 unknown #
edge $-1 $272 38.31534618456331 $393 44.635304077204978 $159 $395 forward 7 unknown #
coedge $-1 $160 $385 $391 $396 forward $270 $-1 #
loop $-1 $-1 $385 $258 #
vertex $-1 $267 $397 #
vertex $-1 $161 $398 #
straight-curve $-1 -15.618470927490407 26.671100440330818 7.8333480665293465 0 -1 0 I I #
coedge $-1 $274 $274 $-1 $399 reversed $164 $-1 #
edge $-1 $400 0 $400 6.2831853071796004 $165 $401 forward 7 unknown #
vertex $-1 $168 $402 #
ellipse-curve $-1 -9.8898356715818494 19.969330058924005 5.7189094126663758 0 0.66913061440640931 0.74314481823134659 1.5 0 0 1 I I #
coedge $-1 $278 $278 $-1 $403 reversed $171 $-1 #
edge $-1 $404 0 $404 6.2831853071796004 $172 $405 forward 7 unknown #
vertex $-1 $175 $406 #
ellipse-curve $-1 -1.2968827877190137 19.969330058924005 5.7189094126663758 0 0.66913061440640931 0.74314481823134659 1.5 0 0 1 I I #
face $-1 $-1 $407 $38 $-1 $408 reversed single #
loop $-1 $-1 $409 $176 #
plane-surface $-1 47.968993194372388 0 0 -1 0 0 0 0 1 forward_v I I I I #
coedge $-1 $410 $179 $181 $291 forward $111 $-1 #
coedge $-1 $179 $410 $409 $411 reversed $111 $-1 #
coedge $-1 $412 $182 $179 $288 forward $177 $-1 #
edge $-1 $294 8.9468290504262384 $413 28.997052446106174 $287 $414 forward 7 unknown #
coedge $-1 $415 $416 $180 $290 forward $407 $-1 #
edge $-1 $417 -48.779097569469407 $293 -44.550220261743448 $289 $418 forward 7 unknown #
edge $-1 $294 38.31534618456331 $417 44.635304077204978 $181 $419 forward 7 unknown #
coedge $-1 $182 $412 $415 $420 forward $177 $-1 #
vertex $-1 $290 $421 #
vertex $-1 $183 $422 #
straight-curve $-1 27.918769798692445 26.671100440330818 7.8333480665293465 0 -1 0 I I #
coedge $-1 $296 $296 $-1 $423 reversed $186 $-1 #
edge $-1 $424 0 $424 6.2831853071796004 $187 $425 forward 7 unknown #
vertex $-1 $190 $426 #
ellipse-curve $-1 33.647405054601009 19.969330058924005 5.7189094126663758 0 0.66913061440640931 0.74314481823134659 1.5 0 0 1 I I #
coedge $-1 $300 $300 $-1 $427 reversed $193 $-1 #
edge $-1 $428 0 $428 6.2831853071796004 $194 $429 forward 7 unknown #
vertex $-1 $197 $430 #
ellipse-curve $-1 42.240357938463845 19.969330058924005 5.7189094126663758 0 0.66913061440640931 0.74314481823134659 1.5 0 0 1 I I #
face $-1 $-1 $431 $41 $-1 $432 reversed single #
loop $-1 $-1 $433 $198 #
plane-surface $-1 0 -22.317652038602485 0 0 1 0 0 0 1 forward_v I I I I #
coedge $-1 $308 $201 $203 $314 reversed $125 $-1 #
coedge $-1 $201 $307 $434 $435 reversed $125 $-1 #
coedge $-1 $436 $204 $201 $310 forward $199 $-1 #
edge $-1 $317 -30.539996059526906 $437 -26.641256853507851 $309 $438 forward 7 unknown #
coedge $-1 $203 $202 $433 $439 reversed $80 $-1 #
coedge $-1 $440 $441 $202 $313 forward $431 $-1 #
edge $-1 $442 -5.7498272865705662 $316 0.58277501059576398 $312 $443 forward 7 unknown #
edge $-1 $444 5.6867396732475225e-015 $317 6.3326022971663365 $307 $445 forward 7 unknown #
coedge $-1 $204 $436 $440 $446 forward $199 $-1 #
vertex $-1 $313 $447 #
vertex $-1 $205 $448 #
straight-curve $-1 20.337437201841396 -18.41891283258343 7.83334806652935 -1 0 0 I I #
coedge $-1 $319 $319 $-1 $449 reversed $208 $-1 #
edge $-1 $450 0 $450 6.2831853071796004 $209 $451 forward 7 unknown #
vertex $-1 $212 $452 #
ellipse-curve $-1 37.54882349338726 -20.368282435592956 5.338268686152535 0 -0.78801076186113728 0.61566146476048833 1 0 0 1 I I #
coedge $-1 $323 $323 $-1 $453 reversed $215 $-1 #
edge $-1 $454 0 $454 6.2831853071796004 $216 $455 forward 7 unknown #
vertex $-1 $219 $456 #
ellipse-curve $-1 43.80092531397834 -20.368282435592956 5.338268686152535 0 -0.78801076186113728 0.61566146476048833 1 0 0 1 I I #
face $-1 $-1 $235 $33 $-1 $457 reversed single #
loop $-1 $-1 $343 $220 #
plane-surface $-1 0 22.317652038602485 0 0 -1 0 0 0 -1 forward_v I I I I #
coedge $-1 $458 $341 $344 $459 forward $221 $-1 #
coedge $-1 $347 $223 $224 $335 reversed $139 $-1 #
coedge $-1 $341 $458 $223 $333 reversed $221 $-1 #
edge $-1 $348 -7.83334806652935 $460 7.83334806652935 $332 $461 forward 7 unknown #
coedge $-1 $225 $224 $458 $462 forward $89 $-1 #
edge $-1 $339 -47.968993194372388 $460 47.968993194372388 $331 $463 forward 7 unknown #
coedge $-1 $344 $343 $225 $337 reversed $328 $-1 #
edge $-1 $464 -47.968993194372388 $338 47.968993194372388 $336 $465 forward 7 unknown #
vertex $-1 $227 $466 #
vertex $-1 $350 $467 #
straight-curve $-1 47.968993194372388 0 -7.83334806652935 0 -1 0 I I #
coedge $-1 $330 $332 $228 $342 reversed $221 $-1 #
edge $-1 $345 -22.317652038602485 $348 22.317652038602485 $341 $468 forward 7 unknown #
coedge $-1 $336 $229 $234 $351 forward $328 $-1 #
coedge $-1 $229 $336 $330 $459 reversed $328 $-1 #
vertex $-1 $230 $469 #
straight-curve $-1 0 22.317652038602485 7.83334806652935 -1 0 0 I I #
coedge $-1 $231 $331 $233 $350 reversed $139 $-1 #
vertex $-1 $342 $470 #
straight-curve $-1 0 -22.317652038602485 7.83334806652935 1 0 0 I I #
edge $-1 $236 -7.83334806652935 $339 7.83334806652935 $233 $471 forward 7 unknown #
edge $-1 $237 -7.83334806652935 $338 7.83334806652935 $234 $472 forward 7 unknown #
point $-1 47.968993194372388 -22.317652038602485 7.83334806652935 #
point $-1 47.968993194372388 22.317652038602485 7.83334806652935 #
face $-1 $-1 $254 $34 $-1 $473 reversed single #
loop $-1 $-1 $363 $239 #
plane-surface $-1 0 0 7.83334806652935 0 0 1 1 0 0 forward_v I I I I #
coedge $-1 $369 $368 $243 $362 forward $240 $-1 #
coedge $-1 $245 $242 $369 $474 reversed $147 $-1 #
coedge $-1 $242 $245 $372 $475 reversed $147 $-1 #
edge $-1 $374 -7.83334806652935 $370 7.83334806652935 $242 $476 forward 7 unknown #
coedge $-1 $244 $243 $376 $477 reversed $93 $-1 #
edge $-1 $478 -26.200372831280959 $366 -17.3368678949019 $357 $479 forward 7 unknown #
coedge $-1 $373 $372 $244 $364 forward $355 $-1 #
edge $-1 $365 17.3368678949019 $480 26.200372831280959 $363 $481 forward 7 unknown #
vertex $-1 $364 $482 #
vertex $-1 $362 $483 #
straight-curve $-1 -39.105488257993329 -18.817652038602485 0 0 0 -1 I I #
coedge $-1 $357 $248 $253 $378 forward $240 $-1 #
coedge $-1 $248 $357 $358 $474 forward $240 $-1 #
vertex $-1 $249 $484 #
straight-curve $-1 -21.768620363091429 -21.817652038602485 -7.83334806652935 -1 0 0 I I #
coedge $-1 $363 $250 $359 $475 forward $355 $-1 #
coedge $-1 $250 $363 $252 $377 forward $355 $-1 #
vertex $-1 $251 $485 #
straight-curve $-1 -21.768620363091429 -21.817652038602485 7.83334806652935 1 0 0 I I #
coedge $-1 $253 $252 $361 $477 forward $254 $-1 #
edge $-1 $480 18.817652038602485 $256 21.817652038602485 $252 $486 forward 7 unknown #
edge $-1 $255 -21.817652038602485 $478 -18.817652038602485 $253 $487 forward 7 unknown #
point $-1 -47.968993194372388 -21.817652038602485 -7.83334806652935 #
point $-1 -47.968993194372388 -21.817652038602485 7.83334806652935 #
plane-surface $-1 0 0 7.83334806652935 0 0 1 1 0 0 forward_v I I I I #
coedge $-1 $392 $391 $384 $488 forward $259 $-1 #
coedge $-1 $384 $261 $263 $388 reversed $155 $-1 #
coedge $-1 $261 $383 $382 $488 reversed $155 $-1 #
coedge $-1 $269 $264 $261 $386 forward $270 $-1 #
edge $-1 $389 -9.0500923610852837 $489 -4.3534484017283326 $385 $490 forward 7 unknown #
coedge $-1 $263 $262 $392 $491 reversed $97 $-1 #
edge $-1 $492 -44.635304077204978 $389 -38.31534618456331 $383 $493 forward 7 unknown #
vertex $-1 $265 $494 #
straight-curve $-1 -2.7966796148252193 17.621008079245541 7.8333480665293465 1 0 0 I I #
coedge $-1 $382 $266 $269 $396 reversed $259 $-1 #
coedge $-1 $266 $382 $387 $491 forward $259 $-1 #
vertex $-1 $267 $495 #
straight-curve $-1 -15.618470927490407 22.317652038602485 52.383568328272801 0 0 1 I I #
straight-curve $-1 -15.618470927490407 -10.852842896552886 33.471319200200469 0 0.74314481823134659 -0.66913061440640931 I I #
edge $-1 $489 -4.4317524681895293 $271 15.618470927490407 $391 $496 forward 7 unknown #
point $-1 -15.618470927490407 22.317652038602485 7.83334806652935 #
point $-1 -15.618470927490407 17.621008079245534 7.83334806652935 #
edge $-1 $497 1 $497 0 $274 $-1 forward 7 unknown #
vertex $-1 $275 $498 #
ellipse-curve $-1 -9.8898356715818494 16.758618089220448 2.1530525952567912 0 0.66913061440640931 0.74314481823134659 1.5 0 0 1 I I #
point $-1 -8.3898356715818494 19.969330058924008 5.7189094126663784 #
edge $-1 $499 1 $499 0 $278 $-1 forward 7 unknown #
vertex $-1 $279 $500 #
ellipse-curve $-1 -1.2968827877190137 16.758618089220448 2.1530525952567912 0 0.66913061440640931 0.74314481823134659 1.5 0 0 1 I I #
point $-1 0.20311721228098634 19.969330058924008 5.7189094126663784 #
loop $-1 $-1 $289 $282 #
plane-surface $-1 0 22.317652038602485 0 0 -1 0 0 0 -1 forward_v I I I I #
coedge $-1 $501 $502 $286 $411 forward $283 $-1 #
coedge $-1 $286 $285 $416 $503 reversed $111 $-1 #
edge $-1 $413 23.084387013025641 $504 29.404344905667305 $409 $505 forward 7 unknown #
coedge $-1 $292 $287 $502 $506 forward $177 $-1 #
vertex $-1 $506 $507 #
straight-curve $-1 18.971940748266206 17.621008079245541 7.8333480665293465 1 0 0 I I #
coedge $-1 $508 $289 $292 $420 reversed $407 $-1 #
coedge $-1 $289 $508 $410 $503 forward $407 $-1 #
vertex $-1 $290 $509 #
straight-curve $-1 27.918769798692445 22.317652038602485 52.383568328272801 0 0 1 I I #
straight-curve $-1 27.918769798692445 -10.852842896552886 33.471319200200469 0 0.74314481823134659 -0.66913061440640931 I I #
edge $-1 $510 -47.968993194372388 $293 -27.918769798692445 $415 $511 forward 7 unknown #
point $-1 27.918769798692445 22.317652038602485 7.83334806652935 #
point $-1 27.918769798692445 17.621008079245534 7.83334806652935 #
edge $-1 $512 1 $512 0 $296 $-1 forward 7 unknown #
vertex $-1 $297 $513 #
ellipse-curve $-1 33.647405054601009 16.758618089220448 2.1530525952567912 0 0.66913061440640931 0.74314481823134659 1.5 0 0 1 I I #
point $-1 35.147405054601009 19.969330058924008 5.7189094126663784 #
edge $-1 $514 1 $514 0 $300 $-1 forward 7 unknown #
vertex $-1 $301 $515 #
ellipse-curve $-1 42.240357938463845 16.758618089220448 2.1530525952567912 0 0.66913061440640931 0.74314481823134659 1.5 0 0 1 I I #
point $-1 43.740357938463845 19.969330058924008 5.7189094126663784 #
loop $-1 $-1 $312 $304 #
plane-surface $-1 47.968993194372388 0 0 -1 0 0 0 0 1 forward_v I I I I #
coedge $-1 $516 $434 $311 $439 forward $305 $-1 #
coedge $-1 $433 $517 $308 $435 forward $305 $-1 #
edge $-1 $437 23.120907199491707 $444 28.111065960245337 $434 $518 forward 7 unknown #
coedge $-1 $315 $309 $517 $519 forward $199 $-1 #
vertex $-1 $519 $520 #
straight-curve $-1 33.380755612993198 -48.958908892110337 7.83334806652935 0 -1 0 I I #
edge $-1 $444 13.043318411151802 $442 27.631555992530991 $433 $521 forward 7 unknown #
coedge $-1 $441 $312 $315 $446 reversed $431 $-1 #
coedge $-1 $312 $440 $516 $522 forward $431 $-1 #
vertex $-1 $439 $523 #
straight-curve $-1 47.968993194372388 -18.777704949232628 7.3741150864361504 0 0.61566146476048833 0.78801076186113728 I I #
vertex $-1 $439 $524 #
straight-curve $-1 33.380755612993198 -22.317652038602489 2.8431893057757165 0 0.61566146476048833 0.78801076186113728 I I #
edge $-1 $525 -22.317652038602485 $316 -18.41891283258343 $440 $526 forward 7 unknown #
point $-1 47.968993194372388 -18.41891283258343 7.83334806652935 #
point $-1 33.380755612993198 -18.41891283258343 7.83334806652935 #
edge $-1 $527 1 $527 0 $319 $-1 forward 7 unknown #
vertex $-1 $320 $528 #
ellipse-curve $-1 37.54882349338726 -18.364599075932805 3.7728197204416225 0 -0.78801076186113728 0.61566146476048833 1 0 0 1 I I #
point $-1 38.54882349338726 -20.368282435592963 5.3382686861525404 #
edge $-1 $529 1 $529 0 $323 $-1 forward 7 unknown #
vertex $-1 $324 $530 #
ellipse-curve $-1 43.80092531397834 -18.364599075932805 3.7728197204416225 0 -0.78801076186113728 0.61566146476048833 1 0 0 1 I I #
point $-1 44.80092531397834 -20.368282435592963 5.3382686861525404 #
plane-surface $-1 47.968993194372388 0 0 -1 0 0 0 0 1 forward_v I I I I #
coedge $-1 $332 $330 $334 $462 reversed $221 $-1 #
edge $-1 $345 -7.83334806652935 $464 7.83334806652935 $344 $531 forward 7 unknown #
vertex $-1 $462 $532 #
straight-curve $-1 -47.968993194372388 -22.317652038602485 0 0 0 -1 I I #
edge $-1 $460 -22.317652038602485 $464 22.317652038602485 $458 $533 forward 7 unknown #
straight-curve $-1 0 -22.317652038602485 -7.83334806652935 -1 0 0 I I #
vertex $-1 $337 $534 #
straight-curve $-1 0 22.317652038602485 -7.83334806652935 1 0 0 I I #
point $-1 47.968993194372388 22.317652038602485 -7.83334806652935 #
point $-1 47.968993194372388 -22.317652038602485 -7.83334806652935 #
straight-curve $-1 -47.968993194372388 0 7.83334806652935 0 -1 0 I I #
point $-1 -47.968993194372388 22.317652038602485 7.83334806652935 #
point $-1 -47.968993194372388 -22.317652038602485 7.83334806652935 #
straight-curve $-1 47.968993194372388 -22.317652038602485 0 0 0 -1 I I #
straight-curve $-1 47.968993194372388 22.317652038602485 0 0 0 -1 I I #
plane-surface $-1 -47.968993194372388 0 0 1 0 0 0 0 -1 forward_v I I I I #
edge $-1 $366 8.6588260193012427 $370 11.658826019301243 $369 $535 forward 7 unknown #
edge $-1 $374 -11.658826019301243 $365 -8.6588260193012427 $372 $536 forward 7 unknown #
straight-curve $-1 -39.105488257993329 -21.817652038602485 0 0 0 -1 I I #
edge $-1 $480 -7.83334806652935 $478 7.83334806652935 $376 $537 forward 7 unknown #
vertex $-1 $477 $538 #
straight-curve $-1 -21.768620363091429 -18.817652038602485 -7.83334806652935 1 0 0 I I #
vertex $-1 $377 $539 #
straight-curve $-1 -21.768620363091429 -18.817652038602485 7.83334806652935 -1 0 0 I I #
point $-1 -39.105488257993329 -18.817652038602485 7.83334806652935 #
point $-1 -39.105488257993329 -18.817652038602485 -7.83334806652935 #
point $-1 -39.105488257993329 -21.817652038602485 -7.83334806652935 #
point $-1 -39.105488257993329 -21.817652038602485 7.83334806652935 #
straight-curve $-1 -47.968993194372388 0 7.83334806652935 0 -1 0 I I #
straight-curve $-1 -47.968993194372388 0 -7.83334806652935 0 1 0 I I #
edge $-1 $489 44.550220261743448 $492 48.779097569469407 $382 $540 forward 7 unknown #
vertex $-1 $396 $541 #
straight-curve $-1 4.4317524681895293 26.671100440330818 7.8333480665293465 0 1 0 I I #
edge $-1 $492 -7.2284320830147486 $393 12.821791312665187 $392 $542 forward 7 unknown #
vertex $-1 $491 $543 #
straight-curve $-1 4.4317524681895293 -10.852842896552886 33.471319200200469 0 -0.74314481823134659 0.66913061440640931 I I #
point $-1 4.4317524681895293 17.621008079245534 7.83334806652935 #
point $-1 -15.618470927490407 22.317652038602489 3.6044707588033944 #
straight-curve $-1 0 22.317652038602485 7.83334806652935 -1 0 0 I I #
vertex $-1 $399 $544 #
point $-1 -8.3898356715818494 16.758618089220448 2.1530525952567912 #
vertex $-1 $403 $545 #
point $-1 0.20311721228098634 16.758618089220448 2.1530525952567912 #
coedge $-1 $502 $409 $508 $546 reversed $283 $-1 #
coedge $-1 $409 $501 $412 $506 reversed $283 $-1 #
edge $-1 $504 -28.997052446106174 $417 -8.9468290504262384 $416 $547 forward 7 unknown #
vertex $-1 $411 $548 #
straight-curve $-1 47.968993194372388 0.46596548846853736 23.279818131750531 0 0.74314481823134659 -0.66913061440640931 I I #
edge $-1 $413 17.621008079245534 $510 22.317652038602485 $502 $549 forward 7 unknown #
point $-1 47.968993194372381 17.621008079245534 7.83334806652935 #
coedge $-1 $416 $415 $501 $546 forward $407 $-1 #
point $-1 27.918769798692445 22.317652038602489 3.6044707588033944 #
vertex $-1 $506 $550 #
straight-curve $-1 0 22.317652038602485 7.83334806652935 -1 0 0 I I #
vertex $-1 $423 $551 #
point $-1 35.147405054601009 16.758618089220448 2.1530525952567912 #
vertex $-1 $427 $552 #
point $-1 43.740357938463845 16.758618089220448 2.1530525952567912 #
coedge $-1 $517 $433 $441 $522 reversed $305 $-1 #
coedge $-1 $434 $516 $436 $519 reversed $305 $-1 #
straight-curve $-1 33.380755612993198 -22.317652038602482 30.954255266021057 0 0 -1 I I #
edge $-1 $437 33.380755612993198 $525 47.968993194372388 $517 $553 forward 7 unknown #
point $-1 33.380755612993198 -22.317652038602485 7.83334806652935 #
straight-curve $-1 20.337437201841396 -22.317652038602485 2.8431893057757214 1 0 0 I I #
edge $-1 $525 -7.83334806652935 $442 -2.8431893057757209 $441 $554 forward 7 unknown #
point $-1 47.968993194372388 -22.317652038602485 2.8431893057757209 #
point $-1 33.380755612993198 -22.317652038602485 2.8431893057757209 #
vertex $-1 $446 $555 #
straight-curve $-1 47.968993194372388 0 7.83334806652935 0 1 0 I I #
vertex $-1 $449 $556 #
point $-1 38.54882349338726 -18.364599075932805 3.7728197204416225 #
vertex $-1 $453 $557 #
point $-1 44.80092531397834 -18.364599075932805 3.7728197204416225 #
straight-curve $-1 -47.968993194372388 22.317652038602485 0 0 0 -1 I I #
point $-1 -47.968993194372388 -22.317652038602485 -7.83334806652935 #
straight-curve $-1 -47.968993194372388 0 -7.83334806652935 0 1 0 I I #
point $-1 -47.968993194372388 22.317652038602485 -7.83334806652935 #
straight-curve $-1 -39.105488257993329 -10.158826019301243 -7.83334806652935 0 -1 0 I I #
straight-curve $-1 -39.105488257993329 -10.158826019301243 7.83334806652935 0 1 0 I I #
straight-curve $-1 -47.968993194372388 -18.817652038602485 0 0 0 -1 I I #
point $-1 -47.968993194372388 -18.817652038602485 -7.83334806652935 #
point $-1 -47.968993194372388 -18.817652038602485 7.83334806652935 #
straight-curve $-1 4.4317524681895293 22.317652038602485 52.383568328272801 0 0 -1 I I #
point $-1 4.4317524681895293 22.317652038602485 7.83334806652935 #
straight-curve $-1 -2.7966796148252193 22.317652038602482 3.604470758803398 -1 0 0 I I #
point $-1 4.4317524681895293 22.317652038602489 3.6044707588033944 #
point $-1 -9.8898356715818494 15.754922167610836 1.0383353679097711 #
point $-1 -1.2968827877190137 15.754922167610836 1.0383353679097711 #
edge $-1 $510 -7.83334806652935 $504 -3.6044707588033944 $501 $558 forward 7 unknown #
straight-curve $-1 18.971940748266206 22.317652038602482 3.604470758803398 -1 0 0 I I #
point $-1 47.968993194372381 22.317652038602489 3.6044707588033944 #
straight-curve $-1 47.968993194372388 0 7.83334806652935 0 1 0 I I #
point $-1 47.968993194372388 22.317652038602485 7.83334806652935 #
point $-1 33.647405054601009 15.754922167610836 1.0383353679097711 #
point $-1 42.240357938463845 15.754922167610836 1.0383353679097711 #
straight-curve $-1 0 -22.317652038602485 7.83334806652935 1 0 0 I I #
straight-curve $-1 47.968993194372388 -22.317652038602485 0 0 0 -1 I I #
point $-1 47.968993194372388 -22.317652038602485 7.83334806652935 #
point $-1 37.54882349338726 -17.576588314071667 3.1571582556811344 #
point $-1 43.80092531397834 -17.576588314071667 3.1571582556811344 #
straight-curve $-1 47.968993194372388 22.317652038602485 0 0 0 -1 I I #
End-of-ACIS-data 