500 0 6 0           
7 Unknown 11 ACIS 5.0 NT 24 Thu Mar 25 19:09:26 1999 
-1 9.9999999999999995e-007 1e-010 
body $-1 $6 $-1 $7 #
body $-1 $8 $-1 $9 #
body $-1 $10 $-1 $11 #
body $-1 $12 $-1 $13 #
body $-1 $14 $-1 $15 #
body $-1 $16 $-1 $17 #
lump $-1 $-1 $18 $0 #
transform $-1 1 0 0 0 1 0 0 0 1 44.332407605212559 28.663518815958501 8.4722143035505137 1 rotate no_reflect no_shear #
lump $-1 $-1 $19 $1 #
transform $-1 1 0 0 0 1 0 0 0 1 44.332407605212559 28.663518815958501 8.4722143035505137 1 rotate no_reflect no_shear #
lump $-1 $-1 $20 $2 #
transform $-1 1 0 0 0 1 0 0 0 1 44.332407605212559 28.663518815958501 8.4722143035505137 1 rotate no_reflect no_shear #
lump $-1 $-1 $21 $3 #
transform $-1 1 0 0 0 1 0 0 0 1 44.332407605212559 28.663518815958501 8.4722143035505137 1 rotate no_reflect no_shear #
lump $-1 $-1 $22 $4 #
transform $-1 1 0 0 0 1 0 0 0 1 44.332407605212559 28.663518815958501 8.4722143035505137 1 rotate no_reflect no_shear #
lump $-1 $-1 $23 $5 #
transform $-1 1 0 0 0 1 0 0 0 1 44.332407605212559 28.663518815958501 8.4722143035505137 1 rotate no_reflect no_shear #
shell $-1 $-1 $-1 $24 $-1 $6 #
shell $-1 $-1 $-1 $25 $-1 $8 #
shell $-1 $-1 $-1 $26 $-1 $10 #
shell $-1 $-1 $-1 $27 $-1 $12 #
shell $-1 $-1 $-1 $28 $-1 $14 #
shell $-1 $-1 $-1 $29 $-1 $16 #
face $-1 $30 $31 $18 $-1 $32 forward single #
face $-1 $33 $34 $19 $-1 $35 reversed single #
face $-1 $36 $37 $20 $-1 $38 reversed single #
face $-1 $39 $40 $21 $-1 $41 reversed single #
face $-1 $42 $43 $22 $-1 $44 forward single #
face $-1 $45 $46 $23 $-1 $47 forward single #
face $-1 $48 $49 $18 $-1 $50 reversed single #
loop $-1 $-1 $51 $24 #
plane-surface $-1 0 0 8.4722143035505137 0 0 1 1 0 0 forward_v I I I I #
face $-1 $52 $53 $19 $-1 $54 reversed single #
loop $-1 $-1 $55 $25 #
plane-surface $-1 0 -25.387822622284666 5.4722143035505137 0 0 1 1 0 0 forward_v I I I I #
face $-1 $56 $57 $20 $-1 $58 reversed single #
loop $-1 $-1 $59 $26 #
plane-surface $-1 0 25.38782262228467 5.4722143035505137 0 0 1 1 0 0 forward_v I I I I #
face $-1 $60 $61 $21 $-1 $62 reversed single #
loop $-1 $-1 $63 $27 #
plane-surface $-1 57.439336128540326 12.909395504861617 129.74358646771196 0 -1 0 -0.77714596973225614 0 -0.62932038083071107 forward_v I I I I #
face $-1 $64 $65 $22 $-1 $66 forward single #
loop $-1 $67 $68 $28 #
cone-surface $-1 42.216093716145735 7.1388210896350266 6.1676027255997257 -0.77714596973225614 0 -0.62932038083071107 0.62932038083071107 0 -0.77714596973225614 1 I I 0 1 1 forward I I I I #
face $-1 $69 $70 $23 $-1 $71 forward single #
loop $-1 $72 $73 $29 #
cone-surface $-1 42.216093716145735 10.601165738770984 6.1676027255997257 -0.77714596973225614 0 -0.62932038083071107 0.62932038083071107 0 -0.77714596973225614 1 I I 0 1 1 forward I I I I #
face $-1 $74 $75 $18 $-1 $76 reversed single #
loop $-1 $-1 $77 $30 #
plane-surface $-1 0 0 -8.4722143035505137 0 0 1 1 0 0 forward_v I I I I #
coedge $-1 $78 $79 $80 $81 forward $31 $-1 #
face $-1 $82 $83 $19 $-1 $84 reversed single #
loop $-1 $-1 $85 $33 #
plane-surface $-1 0 -22.112126428610832 6.9722143035505137 0 -1 0 0 0 -1 forward_v I I I I #
coedge $-1 $86 $87 $88 $89 reversed $34 $-1 #
face $-1 $90 $91 $20 $-1 $92 forward single #
loop $-1 $-1 $93 $36 #
plane-surface $-1 0 22.112126428610836 6.9722143035505137 0 1 0 0 0 1 forward_v I I I I #
coedge $-1 $94 $95 $96 $97 reversed $37 $-1 #
face $-1 $98 $99 $21 $-1 $100 reversed single #
loop $-1 $-1 $101 $39 #
plane-surface $-1 -11.466167669296802 8.8699934142030052 73.945011193202603 0.77714596973225614 0 0.62932038083071107 0.62932038083071107 0 -0.77714596973225614 forward_v I I I I #
coedge $-1 $102 $103 $104 $105 reversed $40 $-1 #
face $-1 $-1 $106 $22 $-1 $107 forward single #
loop $-1 $108 $109 $42 #
cone-surface $-1 41.10108242728689 7.1388210896350266 5.2646844113261029 -0.77714596973225614 0 -0.62932038083071107 0.31466019041535553 0 -0.38857298486612807 1 I I -0.70710678118654746 0.70710678118654746 0.5 forward I I I I #
loop $-1 $-1 $110 $28 #
coedge $-1 $68 $68 $111 $112 reversed $43 $-1 #
face $-1 $-1 $113 $23 $-1 $114 forward single #
loop $-1 $115 $116 $45 #
cone-surface $-1 41.10108242728689 10.601165738770984 5.2646844113261029 -0.77714596973225614 0 -0.62932038083071107 0.31466019041535553 0 -0.38857298486612807 1 I I -0.70710678118654746 0.70710678118654746 0.5 forward I I I I #
loop $-1 $-1 $117 $29 #
coedge $-1 $73 $73 $118 $119 reversed $46 $-1 #
face $-1 $120 $121 $18 $-1 $122 reversed single #
loop $-1 $-1 $123 $48 #
plane-surface $-1 0 -28.663518815958501 0 0 1 0 0 0 1 forward_v I I I I #
coedge $-1 $124 $125 $126 $127 forward $49 $-1 #
coedge $-1 $128 $51 $129 $130 forward $31 $-1 #
coedge $-1 $51 $128 $131 $132 forward $31 $-1 #
coedge $-1 $133 $134 $51 $81 reversed $135 $-1 #
edge $-1 $136 -28.663518815958501 $137 28.663518815958501 $80 $138 forward 7 unknown #
face $-1 $139 $140 $19 $-1 $141 reversed single #
loop $-1 $-1 $142 $52 #
plane-surface $-1 -44.332407605212559 0 0 1 0 0 0 0 -1 forward_v I I I I #
coedge $-1 $143 $144 $145 $146 reversed $53 $-1 #
coedge $-1 $147 $55 $148 $149 reversed $34 $-1 #
coedge $-1 $55 $147 $143 $150 forward $34 $-1 #
coedge $-1 $145 $151 $55 $89 forward $152 $-1 #
edge $-1 $153 -15.969607504816167 $154 -9.4182151174684989 $88 $155 forward 7 unknown #
face $-1 $156 $157 $20 $-1 $158 reversed single #
loop $-1 $-1 $159 $56 #
plane-surface $-1 0 0 8.4722143035505137 0 0 1 1 0 0 forward_v I I I I #
coedge $-1 $160 $161 $162 $163 reversed $57 $-1 #
coedge $-1 $164 $59 $160 $165 forward $37 $-1 #
coedge $-1 $59 $164 $166 $167 reversed $37 $-1 #
coedge $-1 $168 $169 $59 $97 forward $157 $-1 #
edge $-1 $170 9.4182151174685007 $171 15.969607504816169 $96 $172 forward 7 unknown #
face $-1 $173 $174 $21 $-1 $175 forward single #
loop $-1 $-1 $176 $60 #
plane-surface $-1 57.439336128540326 4.8305913235443931 129.74358646771196 0 1 0 0.77714596973225614 0 0.62932038083071107 forward_v I I I I #
coedge $-1 $177 $178 $179 $180 reversed $61 $-1 #
coedge $-1 $103 $63 $181 $182 reversed $40 $-1 #
coedge $-1 $63 $102 $177 $183 reversed $40 $-1 #
coedge $-1 $179 $184 $63 $105 forward $174 $-1 #
edge $-1 $185 -15.612739540942396 $186 -12.832988370794173 $104 $187 forward 7 unknown #
loop $-1 $-1 $111 $64 #
plane-surface $-1 -11.466167669296802 8.8699934142030052 73.945011193202603 0.77714596973225614 0 0.62932038083071107 0.62932038083071107 0 -0.77714596973225614 forward_v I I I I #
loop $-1 $-1 $188 $42 #
coedge $-1 $109 $109 $110 $189 reversed $65 $-1 #
coedge $-1 $110 $110 $109 $189 forward $67 $-1 #
coedge $-1 $111 $111 $68 $112 forward $106 $-1 #
edge $-1 $190 0 $190 6.2831853071796004 $111 $191 forward 7 unknown #
loop $-1 $-1 $118 $69 #
plane-surface $-1 -11.466167669296802 8.8699934142030052 73.945011193202603 0.77714596973225614 0 0.62932038083071107 0.62932038083071107 0 -0.77714596973225614 forward_v I I I I #
loop $-1 $-1 $192 $45 #
coedge $-1 $116 $116 $117 $193 reversed $70 $-1 #
coedge $-1 $117 $117 $116 $193 forward $72 $-1 #
coedge $-1 $118 $118 $73 $119 forward $113 $-1 #
edge $-1 $194 0 $194 6.2831853071796004 $118 $195 forward 7 unknown #
face $-1 $196 $197 $18 $-1 $198 reversed single #
loop $-1 $-1 $199 $74 #
plane-surface $-1 -44.332407605212559 0 0 1 0 0 0 0 -1 forward_v I I I I #
coedge $-1 $200 $131 $201 $202 forward $75 $-1 #
coedge $-1 $203 $77 $200 $204 forward $49 $-1 #
coedge $-1 $77 $203 $205 $206 forward $49 $-1 #
coedge $-1 $134 $133 $77 $127 reversed $135 $-1 #
edge $-1 $207 -28.663518815958501 $208 28.663518815958501 $126 $209 forward 7 unknown #
coedge $-1 $79 $78 $210 $211 forward $31 $-1 #
coedge $-1 $212 $213 $78 $130 reversed $197 $-1 #
edge $-1 $137 -44.332407605212559 $214 44.332407605212559 $129 $215 forward 7 unknown #
coedge $-1 $123 $216 $79 $132 reversed $75 $-1 #
edge $-1 $217 -44.332407605212559 $136 44.332407605212559 $131 $218 forward 7 unknown #
coedge $-1 $126 $80 $216 $219 forward $135 $-1 #
coedge $-1 $80 $126 $212 $220 reversed $135 $-1 #
loop $-1 $-1 $133 $196 #
vertex $-1 $81 $221 #
vertex $-1 $81 $222 #
straight-curve $-1 44.332407605212559 0 8.4722143035505137 0 1 0 I I #
face $-1 $223 $224 $19 $-1 $225 forward single #
loop $-1 $-1 $148 $82 #
plane-surface $-1 0 -28.663518815958501 0 0 1 0 0 0 1 forward_v I I I I #
coedge $-1 $226 $227 $228 $229 forward $83 $-1 #
coedge $-1 $228 $85 $87 $150 reversed $53 $-1 #
coedge $-1 $85 $228 $230 $231 reversed $53 $-1 #
coedge $-1 $232 $88 $85 $146 forward $152 $-1 #
edge $-1 $154 1.9861071517752569 $233 4.9861071517752569 $145 $234 forward 7 unknown #
coedge $-1 $87 $86 $226 $235 reversed $34 $-1 #
coedge $-1 $236 $237 $86 $149 forward $140 $-1 #
edge $-1 $238 -44.332407605212559 $153 44.332407605212559 $148 $239 forward 7 unknown #
edge $-1 $240 -44.332407605212559 $154 44.332407605212559 $143 $241 forward 7 unknown #
coedge $-1 $88 $232 $236 $242 forward $152 $-1 #
loop $-1 $-1 $145 $223 #
vertex $-1 $149 $243 #
vertex $-1 $89 $244 #
straight-curve $-1 44.332407605212559 -12.693911311142333 5.4722143035505137 0 1 0 I I #
face $-1 $245 $246 $20 $-1 $247 reversed single #
loop $-1 $-1 $169 $90 #
plane-surface $-1 44.332407605212559 0 0 -1 0 0 0 0 1 forward_v I I I I #
coedge $-1 $248 $249 $161 $250 forward $91 $-1 #
coedge $-1 $251 $93 $94 $165 reversed $57 $-1 #
coedge $-1 $93 $251 $159 $250 reversed $57 $-1 #
coedge $-1 $252 $253 $93 $163 forward $246 $-1 #
edge $-1 $254 1.9861071517752569 $255 4.9861071517752569 $162 $256 forward 7 unknown #
coedge $-1 $95 $94 $253 $257 reversed $37 $-1 #
edge $-1 $170 -44.332407605212559 $254 44.332407605212559 $160 $258 forward 7 unknown #
coedge $-1 $259 $260 $95 $167 forward $261 $-1 #
edge $-1 $171 -44.332407605212559 $262 44.332407605212559 $166 $263 forward 7 unknown #
coedge $-1 $264 $96 $260 $265 reversed $157 $-1 #
coedge $-1 $96 $264 $251 $266 forward $157 $-1 #
vertex $-1 $97 $267 #
vertex $-1 $167 $268 #
straight-curve $-1 44.332407605212559 12.693911311142335 5.4722143035505137 0 1 0 I I #
face $-1 $-1 $269 $21 $-1 $270 reversed single #
loop $-1 $-1 $104 $98 #
plane-surface $-1 0 0 8.4722143035505137 0 0 1 1 0 0 forward_v I I I I #
coedge $-1 $271 $272 $273 $274 reversed $99 $-1 #
coedge $-1 $275 $101 $103 $183 forward $61 $-1 #
coedge $-1 $101 $275 $271 $276 forward $61 $-1 #
coedge $-1 $273 $104 $101 $180 forward $174 $-1 #
edge $-1 $186 -8.4743987977601147 $277 -0.39559461644289051 $179 $278 forward 7 unknown #
coedge $-1 $279 $280 $102 $182 forward $269 $-1 #
edge $-1 $281 -59.832285838490506 $185 -56.399578930305466 $181 $282 forward 7 unknown #
edge $-1 $186 84.247746806444752 $281 88.664815210425132 $103 $283 forward 7 unknown #
coedge $-1 $104 $273 $279 $284 forward $174 $-1 #
vertex $-1 $182 $285 #
vertex $-1 $105 $286 #
straight-curve $-1 28.719668064270163 12.909395504861617 8.4722143035505155 -1 0 0 I I #
coedge $-1 $188 $188 $-1 $287 reversed $108 $-1 #
edge $-1 $288 0 $288 6.2831853071796004 $109 $289 forward 7 unknown #
vertex $-1 $112 $290 #
ellipse-curve $-1 42.942532020138444 7.1388210896350266 6.7558608494579895 0.77714596973225614 0 0.62932038083071107 0.62932038083071107 0 -0.77714596973225614 1 I I #
coedge $-1 $192 $192 $-1 $291 reversed $115 $-1 #
edge $-1 $292 0 $292 6.2831853071796004 $116 $293 forward 7 unknown #
vertex $-1 $119 $294 #
ellipse-curve $-1 42.942532020138444 10.601165738770984 6.7558608494579895 0.77714596973225614 0 0.62932038083071107 0.62932038083071107 0 -0.77714596973225614 1 I I #
face $-1 $-1 $135 $18 $-1 $295 reversed single #
loop $-1 $-1 $212 $120 #
plane-surface $-1 0 28.663518815958501 0 0 -1 0 0 0 -1 forward_v I I I I #
coedge $-1 $296 $210 $213 $297 forward $121 $-1 #
coedge $-1 $216 $123 $124 $204 reversed $75 $-1 #
coedge $-1 $210 $296 $123 $202 reversed $121 $-1 #
edge $-1 $217 -8.4722143035505137 $298 8.4722143035505137 $201 $299 forward 7 unknown #
coedge $-1 $125 $124 $296 $300 forward $49 $-1 #
edge $-1 $208 -44.332407605212559 $298 44.332407605212559 $200 $301 forward 7 unknown #
coedge $-1 $213 $212 $125 $206 reversed $197 $-1 #
edge $-1 $302 -44.332407605212559 $207 44.332407605212559 $205 $303 forward 7 unknown #
vertex $-1 $127 $304 #
vertex $-1 $219 $305 #
straight-curve $-1 44.332407605212559 0 -8.4722143035505137 0 -1 0 I I #
coedge $-1 $199 $201 $128 $211 reversed $121 $-1 #
edge $-1 $214 -28.663518815958501 $217 28.663518815958501 $210 $306 forward 7 unknown #
coedge $-1 $205 $129 $134 $220 forward $197 $-1 #
coedge $-1 $129 $205 $199 $297 reversed $197 $-1 #
vertex $-1 $130 $307 #
straight-curve $-1 0 28.663518815958501 8.4722143035505137 -1 0 0 I I #
coedge $-1 $131 $200 $133 $219 reversed $75 $-1 #
vertex $-1 $211 $308 #
straight-curve $-1 0 -28.663518815958501 8.4722143035505137 1 0 0 I I #
edge $-1 $136 -8.4722143035505137 $208 8.4722143035505137 $133 $309 forward 7 unknown #
edge $-1 $137 -8.4722143035505137 $207 8.4722143035505137 $134 $310 forward 7 unknown #
point $-1 44.332407605212559 -28.663518815958501 8.4722143035505137 #
point $-1 44.332407605212559 28.663518815958501 8.4722143035505137 #
face $-1 $-1 $152 $19 $-1 $311 reversed single #
loop $-1 $-1 $230 $139 #
plane-surface $-1 0 0 8.4722143035505137 0 0 1 1 0 0 forward_v I I I I #
coedge $-1 $312 $142 $147 $235 forward $83 $-1 #
coedge $-1 $142 $312 $313 $314 reversed $83 $-1 #
coedge $-1 $144 $143 $142 $229 reversed $53 $-1 #
edge $-1 $315 -4.9861071517752569 $240 -1.9861071517752569 $142 $316 forward 7 unknown #
coedge $-1 $313 $317 $144 $231 forward $224 $-1 #
edge $-1 $233 -44.332407605212559 $315 44.332407605212559 $230 $318 forward 7 unknown #
coedge $-1 $151 $145 $317 $319 reversed $152 $-1 #
vertex $-1 $146 $320 #
straight-curve $-1 44.332407605212559 -22.112126428610832 3.4861071517752569 0 0 1 I I #
edge $-1 $240 9.4182151174684989 $238 15.969607504816167 $226 $321 forward 7 unknown #
coedge $-1 $322 $148 $151 $242 reversed $140 $-1 #
coedge $-1 $148 $322 $312 $323 forward $140 $-1 #
vertex $-1 $149 $324 #
straight-curve $-1 0 -28.663518815958501 5.4722143035505137 1 0 0 I I #
vertex $-1 $235 $325 #
straight-curve $-1 0 -22.112126428610832 5.4722143035505137 1 0 0 I I #
edge $-1 $326 -8.4722143035505137 $153 -5.4722143035505137 $151 $327 forward 7 unknown #
point $-1 44.332407605212559 -28.663518815958501 5.4722143035505137 #
point $-1 44.332407605212559 -22.112126428610832 5.4722143035505137 #
face $-1 $-1 $261 $20 $-1 $328 reversed single #
loop $-1 $-1 $162 $156 #
plane-surface $-1 -44.332407605212559 0 0 1 0 0 0 0 -1 forward_v I I I I #
coedge $-1 $329 $159 $264 $330 forward $91 $-1 #
coedge $-1 $159 $329 $252 $331 forward $91 $-1 #
edge $-1 $255 -44.332407605212559 $332 44.332407605212559 $159 $333 forward 7 unknown #
coedge $-1 $161 $160 $169 $266 reversed $57 $-1 #
coedge $-1 $334 $162 $249 $331 reversed $246 $-1 #
coedge $-1 $162 $334 $164 $257 forward $246 $-1 #
vertex $-1 $257 $335 #
vertex $-1 $163 $336 #
straight-curve $-1 -44.332407605212559 22.112126428610836 3.4861071517752569 0 0 1 I I #
edge $-1 $262 -15.969607504816169 $254 -9.4182151174685007 $253 $337 forward 7 unknown #
straight-curve $-1 0 22.112126428610836 5.4722143035505137 -1 0 0 I I #
coedge $-1 $338 $166 $334 $339 reversed $261 $-1 #
coedge $-1 $166 $338 $168 $265 forward $261 $-1 #
loop $-1 $-1 $166 $245 #
vertex $-1 $167 $340 #
straight-curve $-1 0 28.663518815958501 5.4722143035505137 -1 0 0 I I #
coedge $-1 $169 $168 $248 $330 reversed $157 $-1 #
edge $-1 $341 -8.4722143035505137 $171 -5.4722143035505137 $168 $342 forward 7 unknown #
edge $-1 $332 -4.9861071517752569 $170 -1.9861071517752569 $169 $343 forward 7 unknown #
point $-1 44.332407605212559 22.112126428610836 5.4722143035505137 #
point $-1 44.332407605212559 28.663518815958504 5.4722143035505137 #
loop $-1 $-1 $181 $173 #
plane-surface $-1 44.332407605212559 0 0 -1 0 0 0 0 1 forward_v I I I I #
coedge $-1 $272 $176 $178 $276 reversed $99 $-1 #
coedge $-1 $176 $271 $344 $345 reversed $99 $-1 #
coedge $-1 $184 $179 $176 $274 forward $174 $-1 #
edge $-1 $277 12.832988370794173 $346 15.612739540942396 $273 $347 forward 7 unknown #
coedge $-1 $178 $177 $280 $348 reversed $61 $-1 #
edge $-1 $349 -88.664815210425132 $277 -84.247746806444752 $271 $350 forward 7 unknown #
vertex $-1 $180 $351 #
straight-curve $-1 41.552656435064328 4.4349967071015026 8.4722143035505155 0 -1 0 I I #
coedge $-1 $344 $181 $184 $284 reversed $269 $-1 #
coedge $-1 $181 $344 $275 $348 forward $269 $-1 #
vertex $-1 $182 $352 #
straight-curve $-1 44.332407605212559 12.909395504861617 64.871793233855982 0 0 1 I I #
straight-curve $-1 -11.466167669296802 12.909395504861617 73.945011193202603 0.62932038083071107 0 -0.77714596973225614 I I #
edge $-1 $346 4.8305913235443931 $185 12.909395504861617 $279 $353 forward 7 unknown #
point $-1 44.332407605212559 12.909395504861617 8.4722143035505137 #
point $-1 41.552656435064335 12.909395504861617 8.4722143035505155 #
edge $-1 $354 1 $354 0 $188 $-1 forward 7 unknown #
vertex $-1 $189 $355 #
ellipse-curve $-1 41.48965541215302 7.1388210896350266 5.5793446017414583 0.77714596973225614 0 0.62932038083071107 0.62932038083071107 0 -0.77714596973225614 1 I I #
point $-1 43.571852400969156 7.1388210896350266 5.9787148797257377 #
edge $-1 $356 1 $356 0 $192 $-1 forward 7 unknown #
vertex $-1 $193 $357 #
ellipse-curve $-1 41.48965541215302 10.601165738770984 5.5793446017414583 0.77714596973225614 0 0.62932038083071107 0.62932038083071107 0 -0.77714596973225614 1 I I #
point $-1 43.571852400969156 10.601165738770984 5.9787148797257377 #
plane-surface $-1 44.332407605212559 0 0 -1 0 0 0 0 1 forward_v I I I I #
coedge $-1 $201 $199 $203 $300 reversed $121 $-1 #
edge $-1 $214 -8.4722143035505137 $302 8.4722143035505137 $213 $358 forward 7 unknown #
vertex $-1 $300 $359 #
straight-curve $-1 -44.332407605212559 -28.663518815958501 0 0 0 -1 I I #
edge $-1 $298 -28.663518815958501 $302 28.663518815958501 $296 $360 forward 7 unknown #
straight-curve $-1 0 -28.663518815958501 -8.4722143035505137 -1 0 0 I I #
vertex $-1 $206 $361 #
straight-curve $-1 0 28.663518815958501 -8.4722143035505137 1 0 0 I I #
point $-1 44.332407605212559 28.663518815958501 -8.4722143035505137 #
point $-1 44.332407605212559 -28.663518815958501 -8.4722143035505137 #
straight-curve $-1 -44.332407605212559 0 8.4722143035505137 0 -1 0 I I #
point $-1 -44.332407605212559 28.663518815958501 8.4722143035505137 #
point $-1 -44.332407605212559 -28.663518815958501 8.4722143035505137 #
straight-curve $-1 44.332407605212559 -28.663518815958501 0 0 0 -1 I I #
straight-curve $-1 44.332407605212559 28.663518815958501 0 0 0 -1 I I #
plane-surface $-1 44.332407605212559 0 0 -1 0 0 0 0 1 forward_v I I I I #
coedge $-1 $227 $226 $237 $323 reversed $83 $-1 #
coedge $-1 $362 $230 $227 $314 forward $224 $-1 #
edge $-1 $315 22.112126428610832 $363 28.663518815958501 $227 $364 forward 7 unknown #
vertex $-1 $314 $365 #
straight-curve $-1 -44.332407605212559 -22.112126428610832 3.4861071517752569 0 0 -1 I I #
coedge $-1 $230 $362 $232 $319 forward $224 $-1 #
straight-curve $-1 0 -22.112126428610832 8.4722143035505137 -1 0 0 I I #
edge $-1 $326 -28.663518815958501 $233 -22.112126428610832 $232 $366 forward 7 unknown #
point $-1 44.332407605212559 -22.112126428610832 8.4722143035505137 #
straight-curve $-1 -44.332407605212559 -12.693911311142333 5.4722143035505137 0 -1 0 I I #
coedge $-1 $237 $236 $362 $367 reversed $140 $-1 #
edge $-1 $363 -8.4722143035505137 $238 -5.4722143035505137 $312 $368 forward 7 unknown #
point $-1 -44.332407605212559 -28.663518815958501 5.4722143035505137 #
point $-1 -44.332407605212559 -22.112126428610832 5.4722143035505137 #
vertex $-1 $319 $369 #
straight-curve $-1 44.332407605212559 -28.663518815958501 0 0 0 -1 I I #
plane-surface $-1 0 28.663518815958501 0 0 -1 0 0 0 -1 forward_v I I I I #
coedge $-1 $249 $248 $338 $370 forward $91 $-1 #
edge $-1 $332 22.112126428610836 $341 28.663518815958501 $264 $371 forward 7 unknown #
edge $-1 $372 -28.663518815958501 $255 -22.112126428610836 $252 $373 forward 7 unknown #
vertex $-1 $330 $374 #
straight-curve $-1 0 22.112126428610836 8.4722143035505137 1 0 0 I I #
coedge $-1 $253 $252 $259 $339 forward $246 $-1 #
point $-1 -44.332407605212559 22.112126428610836 5.4722143035505137 #
point $-1 -44.332407605212559 22.112126428610836 8.4722143035505137 #
straight-curve $-1 -44.332407605212559 12.693911311142335 5.4722143035505137 0 -1 0 I I #
coedge $-1 $260 $259 $329 $370 reversed $261 $-1 #
edge $-1 $372 -8.4722143035505137 $262 -5.4722143035505137 $259 $375 forward 7 unknown #
point $-1 -44.332407605212559 28.663518815958504 5.4722143035505137 #
vertex $-1 $330 $376 #
straight-curve $-1 44.332407605212559 28.663518815958501 0 0 0 -1 I I #
straight-curve $-1 44.332407605212559 22.112126428610836 3.4861071517752569 0 0 -1 I I #
coedge $-1 $280 $279 $272 $345 forward $269 $-1 #
edge $-1 $346 56.399578930305466 $349 59.832285838490506 $344 $377 forward 7 unknown #
vertex $-1 $284 $378 #
straight-curve $-1 28.719668064270163 4.8305913235443931 8.4722143035505155 1 0 0 I I #
edge $-1 $349 0.39559461644289051 $281 8.4743987977601147 $280 $379 forward 7 unknown #
vertex $-1 $348 $380 #
straight-curve $-1 -11.466167669296802 4.8305913235443931 73.945011193202603 -0.62932038083071107 0 0.77714596973225614 I I #
point $-1 41.552656435064335 4.8305913235443931 8.4722143035505155 #
point $-1 44.332407605212559 12.909395504861617 5.0395073953654759 #
straight-curve $-1 44.332407605212559 0 8.4722143035505137 0 1 0 I I #
vertex $-1 $287 $381 #
point $-1 42.118975792983733 7.1388210896350266 4.8021986320092021 #
vertex $-1 $291 $382 #
point $-1 42.118975792983733 10.601165738770984 4.8021986320092021 #
straight-curve $-1 -44.332407605212559 28.663518815958501 0 0 0 -1 I I #
point $-1 -44.332407605212559 -28.663518815958501 -8.4722143035505137 #
straight-curve $-1 -44.332407605212559 0 -8.4722143035505137 0 1 0 I I #
point $-1 -44.332407605212559 28.663518815958501 -8.4722143035505137 #
coedge $-1 $317 $313 $322 $367 forward $224 $-1 #
vertex $-1 $314 $383 #
straight-curve $-1 -44.332407605212559 0 8.4722143035505137 0 -1 0 I I #
point $-1 -44.332407605212559 -22.112126428610832 8.4722143035505137 #
straight-curve $-1 44.332407605212559 0 8.4722143035505137 0 1 0 I I #
edge $-1 $363 -44.332407605212559 $326 44.332407605212559 $322 $384 forward 7 unknown #
straight-curve $-1 -44.332407605212559 -28.663518815958501 0 0 0 -1 I I #
point $-1 44.332407605212559 -28.663518815958501 8.4722143035505137 #
edge $-1 $341 -44.332407605212559 $372 44.332407605212559 $338 $385 forward 7 unknown #
straight-curve $-1 44.332407605212559 0 8.4722143035505137 0 1 0 I I #
vertex $-1 $370 $386 #
straight-curve $-1 -44.332407605212559 0 8.4722143035505137 0 -1 0 I I #
point $-1 44.332407605212559 22.112126428610836 8.4722143035505137 #
straight-curve $-1 -44.332407605212559 28.663518815958501 0 0 0 -1 I I #
point $-1 44.332407605212559 28.663518815958501 8.4722143035505137 #
straight-curve $-1 44.332407605212559 4.8305913235443931 64.871793233855982 0 0 -1 I I #
point $-1 44.332407605212559 4.8305913235443931 8.4722143035505137 #
straight-curve $-1 44.332407605212559 4.4349967071015026 5.0395073953654759 0 1 0 I I #
point $-1 44.332407605212559 4.8305913235443931 5.0395073953654759 #
point $-1 40.71250944242076 7.1388210896350266 4.9500242209107475 #
point $-1 40.71250944242076 10.601165738770984 4.9500242209107475 #
point $-1 -44.332407605212559 -28.663518815958501 8.4722143035505137 #
straight-curve $-1 0 -28.663518815958501 8.4722143035505137 1 0 0 I I #
straight-curve $-1 0 28.663518815958501 8.4722143035505137 -1 0 0 I I #
point $-1 -44.332407605212559 28.663518815958501 8.4722143035505137 #
End-of-ACIS-data 