500 0 10 0           
7 Unknown 11 ACIS 5.0 NT 24 Fri Mar 26 19:47:15 1999 
-1 9.9999999999999995e-007 1e-010 
body $-1 $10 $-1 $11 #
body $-1 $12 $-1 $13 #
body $-1 $14 $-1 $15 #
body $-1 $16 $-1 $17 #
body $-1 $18 $-1 $19 #
body $-1 $20 $-1 $21 #
body $-1 $22 $-1 $23 #
body $-1 $24 $-1 $25 #
body $-1 $26 $-1 $27 #
body $-1 $28 $-1 $29 #
lump $-1 $-1 $30 $0 #
transform $-1 1 0 0 0 1 0 0 0 1 52.251350444044313 25.694007978600336 12.647518054373078 1 rotate no_reflect no_shear #
lump $-1 $-1 $31 $1 #
transform $-1 1 0 0 0 1 0 0 0 1 52.251350444044313 25.694007978600336 12.647518054373078 1 rotate no_reflect no_shear #
lump $-1 $-1 $32 $2 #
transform $-1 1 0 0 0 1 0 0 0 1 52.251350444044313 25.694007978600336 12.647518054373078 1 rotate no_reflect no_shear #
lump $-1 $-1 $33 $3 #
transform $-1 1 0 0 0 1 0 0 0 1 52.251350444044313 25.694007978600336 12.647518054373078 1 rotate no_reflect no_shear #
lump $-1 $-1 $34 $4 #
transform $-1 1 0 0 0 1 0 0 0 1 52.251350444044313 25.694007978600336 12.647518054373078 1 rotate no_reflect no_shear #
lump $-1 $-1 $35 $5 #
transform $-1 1 0 0 0 1 0 0 0 1 52.251350444044313 25.694007978600336 12.647518054373078 1 rotate no_reflect no_shear #
lump $-1 $-1 $36 $6 #
transform $-1 1 0 0 0 1 0 0 0 1 52.251350444044313 25.694007978600336 12.647518054373078 1 rotate no_reflect no_shear #
lump $-1 $-1 $37 $7 #
transform $-1 1 0 0 0 1 0 0 0 1 52.251350444044313 25.694007978600336 12.647518054373078 1 rotate no_reflect no_shear #
lump $-1 $-1 $38 $8 #
transform $-1 1 0 0 0 1 0 0 0 1 52.251350444044313 25.694007978600336 12.647518054373078 1 rotate no_reflect no_shear #
lump $-1 $-1 $39 $9 #
transform $-1 1 0 0 0 1 0 0 0 1 52.251350444044313 25.694007978600336 12.647518054373078 1 rotate no_reflect no_shear #
shell $-1 $-1 $-1 $40 $-1 $10 #
shell $-1 $-1 $-1 $41 $-1 $12 #
shell $-1 $-1 $-1 $42 $-1 $14 #
shell $-1 $-1 $-1 $43 $-1 $16 #
shell $-1 $-1 $-1 $44 $-1 $18 #
shell $-1 $-1 $-1 $45 $-1 $20 #
shell $-1 $-1 $-1 $46 $-1 $22 #
shell $-1 $-1 $-1 $47 $-1 $24 #
shell $-1 $-1 $-1 $48 $-1 $26 #
shell $-1 $-1 $-1 $49 $-1 $28 #
face $-1 $50 $51 $30 $-1 $52 reversed single #
face $-1 $53 $54 $31 $-1 $55 forward single #
face $-1 $56 $57 $32 $-1 $58 reversed single #
face $-1 $59 $60 $33 $-1 $61 forward single #
face $-1 $62 $63 $34 $-1 $64 forward single #
face $-1 $65 $66 $35 $-1 $67 forward single #
face $-1 $68 $69 $36 $-1 $70 reversed single #
face $-1 $71 $72 $37 $-1 $73 forward single #
face $-1 $74 $75 $38 $-1 $76 reversed single #
face $-1 $77 $78 $39 $-1 $79 forward single #
face $-1 $80 $81 $30 $-1 $82 forward single #
loop $-1 $-1 $83 $40 #
plane-surface $-1 0 -25.694007978600336 0 0 1 0 0 0 1 forward_v I I I I #
face $-1 $84 $85 $31 $-1 $86 reversed single #
loop $-1 $-1 $87 $41 #
plane-surface $-1 0 -25.694007978600336 0 0 1 0 0 0 1 forward_v I I I I #
face $-1 $88 $89 $32 $-1 $90 reversed single #
loop $-1 $-1 $91 $42 #
plane-surface $-1 88.004780773486857 16.164185880568109 152.71780950302085 0 -1 0 -0.85716730853699208 0 -0.51503806187062418 forward_v I I I I #
face $-1 $92 $93 $33 $-1 $94 forward single #
loop $-1 $95 $96 $43 #
cone-surface $-1 50.772177283307315 10.940503523017338 10.695221013479792 -0.85716730853699208 0 -0.51503806187062418 0.25751903093531209 0 -0.42858365426849604 1 I I 0 1 0.5 forward I I I I #
face $-1 $97 $98 $34 $-1 $99 forward single #
loop $-1 $100 $101 $44 #
cone-surface $-1 50.772177283307315 12.899384407098875 10.695221013479792 -0.85716730853699208 0 -0.51503806187062418 0.25751903093531209 0 -0.42858365426849604 1 I I 0 1 0.5 forward I I I I #
face $-1 $102 $103 $35 $-1 $104 forward single #
loop $-1 $105 $106 $45 #
cone-surface $-1 50.772177283307315 14.858265291180413 10.695221013479792 -0.85716730853699208 0 -0.51503806187062418 0.25751903093531209 0 -0.42858365426849604 1 I I 0 1 0.5 forward I I I I #
face $-1 $107 $108 $36 $-1 $109 reversed single #
loop $-1 $-1 $110 $46 #
plane-surface $-1 -139.89469078616176 -7.8579244646517488 58.340102065037115 0 1 0 -0.83867057594974714 0 0.54463902268945019 forward_v I I I I #
face $-1 $111 $112 $37 $-1 $113 forward single #
loop $-1 $114 $115 $47 #
cone-surface $-1 -47.369844406637867 -2.8742494993761305 6.2322778215230308 0.83867057594974714 0 -0.54463902268945019 0.81695853403417529 0 1.2580058639246208 1 I I 0 1 1.5 forward I I I I #
face $-1 $116 $117 $38 $-1 $118 reversed single #
loop $-1 $-1 $119 $48 #
plane-surface $-1 -139.89469078616176 7.8227302510282861 58.340102065037115 0 1 0 -0.83867057594974714 0 0.54463902268945019 forward_v I I I I #
face $-1 $120 $121 $39 $-1 $122 forward single #
loop $-1 $123 $124 $49 #
cone-surface $-1 -47.369844406637867 12.806405216303904 6.2322778215230308 0.83867057594974714 0 -0.54463902268945019 0.81695853403417529 0 1.2580058639246208 1 I I 0 1 1.5 forward I I I I #
face $-1 $125 $126 $30 $-1 $127 reversed single #
loop $-1 $-1 $128 $50 #
plane-surface $-1 0 0 12.647518054373078 0 0 1 1 0 0 forward_v I I I I #
coedge $-1 $129 $130 $131 $132 reversed $51 $-1 #
face $-1 $133 $134 $31 $-1 $135 reversed single #
loop $-1 $-1 $136 $53 #
plane-surface $-1 0 0 -12.647518054373078 0 0 1 1 0 0 forward_v I I I I #
coedge $-1 $137 $138 $139 $140 forward $54 $-1 #
face $-1 $141 $142 $32 $-1 $143 reversed single #
loop $-1 $-1 $144 $56 #
plane-surface $-1 -1.5715180816024201 12.899384407098875 98.894940977374119 0.85716730853699208 0 0.51503806187062418 0.51503806187062418 0 -0.85716730853699208 forward_v I I I I #
coedge $-1 $145 $146 $147 $148 reversed $57 $-1 #
face $-1 $-1 $149 $33 $-1 $150 forward single #
loop $-1 $151 $152 $59 #
cone-surface $-1 50.078807487585173 10.940503523017338 10.278602423162953 -0.85716730853699208 0 -0.51503806187062418 0.12875951546765604 0 -0.21429182713424802 1 I I -0.70710678118654746 0.70710678118654746 0.25 forward I I I I #
loop $-1 $-1 $153 $43 #
coedge $-1 $96 $96 $154 $155 reversed $60 $-1 #
face $-1 $-1 $156 $34 $-1 $157 forward single #
loop $-1 $158 $159 $62 #
cone-surface $-1 50.078807487585173 12.899384407098875 10.278602423162953 -0.85716730853699208 0 -0.51503806187062418 0.12875951546765604 0 -0.21429182713424802 1 I I -0.70710678118654746 0.70710678118654746 0.25 forward I I I I #
loop $-1 $-1 $160 $44 #
coedge $-1 $101 $101 $161 $162 reversed $63 $-1 #
face $-1 $-1 $163 $35 $-1 $164 forward single #
loop $-1 $165 $166 $65 #
cone-surface $-1 50.078807487585173 14.858265291180413 10.278602423162953 -0.85716730853699208 0 -0.51503806187062418 0.12875951546765604 0 -0.21429182713424802 1 I I -0.70710678118654746 0.70710678118654746 0.25 forward I I I I #
loop $-1 $-1 $167 $45 #
coedge $-1 $106 $106 $168 $169 reversed $66 $-1 #
face $-1 $170 $171 $36 $-1 $172 reversed single #
loop $-1 $-1 $173 $68 #
plane-surface $-1 -52.25135044404432 -2.8742494993761305 1.4238531849405902 -0.83867057594974714 0 0.54463902268945019 0.54463902268945019 0 0.83867057594974714 forward_v I I I I #
coedge $-1 $174 $175 $176 $177 reversed $69 $-1 #
face $-1 $-1 $178 $37 $-1 $179 forward single #
loop $-1 $180 $181 $71 #
cone-surface $-1 -45.503701914869197 -2.8742494993761305 5.0203907563721426 0.83867057594974714 0 -0.54463902268945019 0.40847926701708764 0 0.62900293196231039 1 I I -0.70710678118654757 0.70710678118654757 0.75 forward I I I I #
loop $-1 $-1 $182 $47 #
coedge $-1 $115 $115 $183 $184 reversed $72 $-1 #
face $-1 $185 $186 $38 $-1 $187 reversed single #
loop $-1 $-1 $188 $74 #
plane-surface $-1 -52.25135044404432 12.806405216303904 1.4238531849405902 -0.83867057594974714 0 0.54463902268945019 0.54463902268945019 0 0.83867057594974714 forward_v I I I I #
coedge $-1 $189 $190 $191 $192 reversed $75 $-1 #
face $-1 $-1 $193 $39 $-1 $194 forward single #
loop $-1 $195 $196 $77 #
cone-surface $-1 -45.503701914869197 12.806405216303904 5.0203907563721426 0.83867057594974714 0 -0.54463902268945019 0.40847926701708764 0 0.62900293196231039 1 I I -0.70710678118654757 0.70710678118654757 0.75 forward I I I I #
loop $-1 $-1 $197 $49 #
coedge $-1 $124 $124 $198 $199 reversed $78 $-1 #
face $-1 $200 $201 $30 $-1 $202 reversed single #
loop $-1 $-1 $203 $80 #
plane-surface $-1 0 0 -12.647518054373078 0 0 1 1 0 0 forward_v I I I I #
coedge $-1 $204 $205 $206 $207 forward $81 $-1 #
coedge $-1 $208 $83 $209 $210 reversed $51 $-1 #
coedge $-1 $83 $208 $211 $212 forward $51 $-1 #
coedge $-1 $213 $203 $83 $132 forward $126 $-1 #
edge $-1 $214 -52.251350444044313 $215 52.251350444044313 $83 $216 forward 7 unknown #
face $-1 $217 $218 $31 $-1 $219 reversed single #
loop $-1 $-1 $220 $84 #
plane-surface $-1 -28.456314335298156 -35.626163695528113 0 0 1 0 0 0 1 forward_v I I I I #
coedge $-1 $221 $222 $138 $223 forward $85 $-1 #
coedge $-1 $224 $87 $225 $226 reversed $54 $-1 #
coedge $-1 $87 $224 $136 $223 reversed $54 $-1 #
coedge $-1 $227 $228 $87 $140 reversed $218 $-1 #
edge $-1 $229 -12.647518054373078 $230 12.647518054373078 $139 $231 forward 7 unknown #
face $-1 $232 $233 $32 $-1 $234 forward single #
loop $-1 $-1 $235 $88 #
plane-surface $-1 88.004780773486857 9.6345829336296411 152.71780950302085 0 1 0 0.85716730853699208 0 0.51503806187062418 forward_v I I I I #
coedge $-1 $236 $237 $238 $239 reversed $89 $-1 #
coedge $-1 $146 $91 $240 $241 reversed $57 $-1 #
coedge $-1 $91 $145 $236 $242 reversed $57 $-1 #
coedge $-1 $238 $243 $91 $148 forward $233 $-1 #
edge $-1 $244 -8.2489600573008843 $245 -6.2487696730026485 $147 $246 forward 7 unknown #
loop $-1 $-1 $154 $92 #
plane-surface $-1 -1.5715180816024201 12.899384407098875 98.894940977374119 0.85716730853699208 0 0.51503806187062418 0.51503806187062418 0 -0.85716730853699208 forward_v I I I I #
loop $-1 $-1 $247 $59 #
coedge $-1 $152 $152 $153 $248 reversed $93 $-1 #
coedge $-1 $153 $153 $152 $248 forward $95 $-1 #
coedge $-1 $154 $154 $96 $155 forward $149 $-1 #
edge $-1 $249 0 $249 6.2831853071796004 $154 $250 forward 7 unknown #
loop $-1 $-1 $161 $97 #
plane-surface $-1 -1.5715180816024201 12.899384407098875 98.894940977374119 0.85716730853699208 0 0.51503806187062418 0.51503806187062418 0 -0.85716730853699208 forward_v I I I I #
loop $-1 $-1 $251 $62 #
coedge $-1 $159 $159 $160 $252 reversed $98 $-1 #
coedge $-1 $160 $160 $159 $252 forward $100 $-1 #
coedge $-1 $161 $161 $101 $162 forward $156 $-1 #
edge $-1 $253 0 $253 6.2831853071796004 $161 $254 forward 7 unknown #
loop $-1 $-1 $168 $102 #
plane-surface $-1 -1.5715180816024201 12.899384407098875 98.894940977374119 0.85716730853699208 0 0.51503806187062418 0.51503806187062418 0 -0.85716730853699208 forward_v I I I I #
loop $-1 $-1 $255 $65 #
coedge $-1 $166 $166 $167 $256 reversed $103 $-1 #
coedge $-1 $167 $167 $166 $256 forward $105 $-1 #
coedge $-1 $168 $168 $106 $169 forward $163 $-1 #
edge $-1 $257 0 $257 6.2831853071796004 $168 $258 forward 7 unknown #
face $-1 $259 $260 $36 $-1 $261 reversed single #
loop $-1 $-1 $262 $107 #
plane-surface $-1 -139.89469078616176 2.1094254658994878 58.340102065037115 0 -1 0 0.83867057594974714 0 -0.54463902268945019 forward_v I I I I #
coedge $-1 $263 $264 $265 $266 reversed $108 $-1 #
coedge $-1 $175 $110 $267 $268 reversed $69 $-1 #
coedge $-1 $110 $174 $263 $269 reversed $69 $-1 #
coedge $-1 $265 $270 $110 $177 forward $271 $-1 #
edge $-1 $272 17.695994949036567 $273 24.984727904236728 $176 $274 forward 7 unknown #
loop $-1 $-1 $183 $111 #
plane-surface $-1 -52.25135044404432 -2.8742494993761305 1.4238531849405902 -0.83867057594974714 0 0.54463902268945019 0.54463902268945019 0 0.83867057594974714 forward_v I I I I #
loop $-1 $-1 $275 $71 #
coedge $-1 $181 $181 $182 $276 reversed $112 $-1 #
coedge $-1 $182 $182 $181 $276 forward $114 $-1 #
coedge $-1 $183 $183 $115 $184 forward $178 $-1 #
edge $-1 $277 0 $277 6.2831853071796004 $183 $278 forward 7 unknown #
face $-1 $279 $280 $38 $-1 $281 forward single #
loop $-1 $-1 $282 $116 #
plane-surface $-1 -139.89469078616176 17.790080181579523 58.340102065037115 0 -1 0 0.83867057594974714 0 -0.54463902268945019 forward_v I I I I #
coedge $-1 $283 $284 $285 $286 reversed $117 $-1 #
coedge $-1 $190 $119 $287 $288 reversed $75 $-1 #
coedge $-1 $119 $189 $283 $289 reversed $75 $-1 #
coedge $-1 $285 $290 $119 $192 forward $280 $-1 #
edge $-1 $291 17.695994949036567 $292 24.984727904236728 $191 $293 forward 7 unknown #
loop $-1 $-1 $198 $120 #
plane-surface $-1 -52.25135044404432 12.806405216303904 1.4238531849405902 -0.83867057594974714 0 0.54463902268945019 0.54463902268945019 0 0.83867057594974714 forward_v I I I I #
loop $-1 $-1 $294 $77 #
coedge $-1 $196 $196 $197 $295 reversed $121 $-1 #
coedge $-1 $197 $197 $196 $295 forward $123 $-1 #
coedge $-1 $198 $198 $124 $199 forward $193 $-1 #
edge $-1 $296 0 $296 6.2831853071796004 $198 $297 forward 7 unknown #
face $-1 $298 $299 $30 $-1 $300 reversed single #
loop $-1 $-1 $301 $125 #
plane-surface $-1 -52.251350444044313 0 0 1 0 0 0 0 -1 forward_v I I I I #
coedge $-1 $131 $302 $303 $304 forward $126 $-1 #
coedge $-1 $305 $128 $306 $307 forward $81 $-1 #
coedge $-1 $128 $305 $208 $308 forward $81 $-1 #
coedge $-1 $209 $309 $128 $207 reversed $310 $-1 #
edge $-1 $311 -25.694007978600336 $312 25.694007978600336 $206 $313 forward 7 unknown #
coedge $-1 $130 $129 $205 $308 reversed $51 $-1 #
coedge $-1 $303 $206 $129 $210 forward $310 $-1 #
edge $-1 $311 -12.647518054373078 $214 12.647518054373078 $209 $314 forward 7 unknown #
coedge $-1 $315 $316 $130 $212 reversed $201 $-1 #
edge $-1 $317 -12.647518054373078 $215 12.647518054373078 $211 $318 forward 7 unknown #
coedge $-1 $302 $131 $316 $319 forward $126 $-1 #
vertex $-1 $210 $320 #
vertex $-1 $319 $321 #
straight-curve $-1 0 -25.694007978600336 -12.647518054373078 -1 0 0 I I #
face $-1 $322 $323 $31 $-1 $324 reversed single #
loop $-1 $-1 $139 $133 #
plane-surface $-1 -29.956314335298156 -30.660085837064223 0 1 0 0 0 0 -1 forward_v I I I I #
coedge $-1 $325 $326 $327 $328 forward $134 $-1 #
coedge $-1 $329 $136 $330 $331 forward $85 $-1 #
coedge $-1 $136 $329 $227 $332 forward $85 $-1 #
edge $-1 $229 -29.956314335298156 $333 -26.956314335298156 $136 $334 forward 7 unknown #
coedge $-1 $138 $137 $335 $336 forward $54 $-1 #
coedge $-1 $337 $338 $137 $226 forward $339 $-1 #
edge $-1 $340 26.956314335298156 $230 29.956314335298156 $225 $341 forward 7 unknown #
coedge $-1 $327 $139 $222 $332 reversed $218 $-1 #
coedge $-1 $139 $327 $337 $342 reversed $218 $-1 #
vertex $-1 $223 $343 #
vertex $-1 $342 $344 #
straight-curve $-1 -29.956314335298156 -25.694007978600336 0 0 0 1 I I #
face $-1 $-1 $345 $32 $-1 $346 reversed single #
loop $-1 $-1 $147 $141 #
plane-surface $-1 0 0 12.647518054373078 0 0 1 1 0 0 forward_v I I I I #
coedge $-1 $347 $348 $349 $350 reversed $142 $-1 #
coedge $-1 $351 $144 $146 $242 forward $89 $-1 #
coedge $-1 $144 $351 $347 $352 forward $89 $-1 #
coedge $-1 $349 $147 $144 $239 forward $233 $-1 #
edge $-1 $245 -9.7144936770186714 $353 -3.1848907300802036 $238 $354 forward 7 unknown #
coedge $-1 $355 $356 $145 $241 forward $345 $-1 #
edge $-1 $357 -67.04026262922558 $244 -63.711386697137343 $240 $358 forward 7 unknown #
edge $-1 $245 100.61912308602579 $357 104.50270088808865 $146 $359 forward 7 unknown #
coedge $-1 $147 $349 $355 $360 forward $233 $-1 #
vertex $-1 $148 $361 #
vertex $-1 $148 $362 #
straight-curve $-1 44.002390386743429 16.164185880568109 12.64751805437308 -1 0 0 I I #
coedge $-1 $247 $247 $-1 $363 reversed $151 $-1 #
edge $-1 $364 0 $364 6.2831853071796004 $152 $365 forward 7 unknown #
vertex $-1 $155 $366 #
ellipse-curve $-1 51.251255251895188 10.940503523017338 10.983080088328965 0.85716730853699208 0 0.51503806187062418 0.25751903093531209 0 -0.42858365426849604 1 I I #
coedge $-1 $251 $251 $-1 $367 reversed $158 $-1 #
edge $-1 $368 0 $368 6.2831853071796004 $159 $369 forward 7 unknown #
vertex $-1 $162 $370 #
ellipse-curve $-1 51.251255251895188 12.899384407098875 10.983080088328965 0.85716730853699208 0 0.51503806187062418 0.25751903093531209 0 -0.42858365426849604 1 I I #
coedge $-1 $255 $255 $-1 $371 reversed $165 $-1 #
edge $-1 $372 0 $372 6.2831853071796004 $166 $373 forward 7 unknown #
vertex $-1 $169 $374 #
ellipse-curve $-1 51.251255251895188 14.858265291180413 10.983080088328965 0.85716730853699208 0 0.51503806187062418 0.25751903093531209 0 -0.42858365426849604 1 I I #
face $-1 $-1 $271 $36 $-1 $375 forward single #
loop $-1 $-1 $376 $170 #
plane-surface $-1 -52.251350444044313 0 0 1 0 0 0 0 -1 forward_v I I I I #
coedge $-1 $377 $378 $379 $380 reversed $171 $-1 #
coedge $-1 $381 $173 $175 $269 forward $108 $-1 #
coedge $-1 $173 $381 $377 $382 forward $108 $-1 #
coedge $-1 $379 $176 $173 $266 forward $271 $-1 #
edge $-1 $273 -6.4207997149636835 $383 3.546550215587553 $265 $384 forward 7 unknown #
coedge $-1 $385 $386 $174 $268 forward $260 $-1 #
edge $-1 $387 -27.746197847577957 $272 -16.522532978145478 $267 $388 forward 7 unknown #
edge $-1 $273 -13.382685873678497 $387 -1.2994784570086186e-014 $175 $389 forward 7 unknown #
coedge $-1 $176 $379 $385 $390 forward $271 $-1 #
loop $-1 $-1 $379 $259 #
vertex $-1 $268 $391 #
vertex $-1 $177 $392 #
straight-curve $-1 -69.94734539308088 -7.8579244646517488 12.64751805437308 1 0 0 I I #
coedge $-1 $275 $275 $-1 $393 reversed $180 $-1 #
edge $-1 $394 0 $394 6.2831853071796004 $181 $395 forward 7 unknown #
vertex $-1 $184 $396 #
ellipse-curve $-1 -48.606983966444233 -2.8742494993761305 7.0356856196568369 -0.83867057594974714 0 0.54463902268945019 0.81695853403417529 0 1.2580058639246208 1 I I #
face $-1 $-1 $397 $38 $-1 $398 reversed single #
loop $-1 $-1 $191 $185 #
plane-surface $-1 0 0 12.647518054373078 0 0 1 1 0 0 forward_v I I I I #
coedge $-1 $399 $400 $401 $402 reversed $186 $-1 #
coedge $-1 $403 $188 $190 $289 forward $117 $-1 #
coedge $-1 $188 $403 $399 $404 forward $117 $-1 #
coedge $-1 $401 $191 $188 $286 forward $280 $-1 #
edge $-1 $292 1.4195276428763339 $405 11.38687757342757 $285 $406 forward 7 unknown #
coedge $-1 $407 $408 $189 $288 forward $397 $-1 #
edge $-1 $409 -27.746197847577957 $291 -16.522532978145478 $287 $410 forward 7 unknown #
edge $-1 $292 -13.382685873678497 $409 -1.2994784570086186e-014 $190 $411 forward 7 unknown #
coedge $-1 $191 $401 $407 $412 forward $280 $-1 #
vertex $-1 $288 $413 #
vertex $-1 $192 $414 #
straight-curve $-1 -69.94734539308088 7.8227302510282861 12.64751805437308 1 0 0 I I #
coedge $-1 $294 $294 $-1 $415 reversed $195 $-1 #
edge $-1 $416 0 $416 6.2831853071796004 $196 $417 forward 7 unknown #
vertex $-1 $199 $418 #
ellipse-curve $-1 -48.606983966444233 12.806405216303904 7.0356856196568369 -0.83867057594974714 0 0.54463902268945019 0.81695853403417529 0 1.2580058639246208 1 I I #
face $-1 $-1 $310 $30 $-1 $419 reversed single #
loop $-1 $-1 $420 $200 #
plane-surface $-1 0 25.694007978600336 0 0 -1 0 0 0 -1 forward_v I I I I #
coedge $-1 $316 $315 $421 $422 forward $201 $-1 #
coedge $-1 $203 $213 $423 $424 forward $126 $-1 #
coedge $-1 $309 $209 $203 $304 reversed $310 $-1 #
edge $-1 $425 -25.694007978600336 $214 25.694007978600336 $303 $426 forward 7 unknown #
coedge $-1 $205 $204 $315 $427 forward $81 $-1 #
coedge $-1 $420 $421 $204 $307 reversed $299 $-1 #
edge $-1 $312 -52.251350444044313 $428 52.251350444044313 $306 $429 forward 7 unknown #
edge $-1 $317 -52.251350444044313 $311 52.251350444044313 $208 $430 forward 7 unknown #
coedge $-1 $206 $303 $420 $431 reversed $310 $-1 #
loop $-1 $-1 $209 $298 #
vertex $-1 $207 $432 #
vertex $-1 $207 $433 #
straight-curve $-1 52.251350444044313 0 12.647518054373078 0 1 0 I I #
straight-curve $-1 52.251350444044313 -25.694007978600336 0 0 0 -1 I I #
coedge $-1 $301 $211 $305 $427 reversed $201 $-1 #
coedge $-1 $211 $301 $213 $319 reversed $201 $-1 #
vertex $-1 $427 $434 #
straight-curve $-1 -52.251350444044313 -25.694007978600336 0 0 0 -1 I I #
edge $-1 $215 -25.694007978600336 $435 25.694007978600336 $316 $436 forward 7 unknown #
point $-1 52.251350444044313 -25.694007978600336 -12.647518054373078 #
point $-1 -52.251350444044313 -25.694007978600336 -12.647518054373078 #
face $-1 $-1 $339 $31 $-1 $437 forward single #
loop $-1 $-1 $438 $217 #
plane-surface $-1 -26.956314335298156 -30.660085837064223 0 -1 0 0 0 0 1 forward_v I I I I #
coedge $-1 $439 $220 $329 $440 reversed $134 $-1 #
coedge $-1 $220 $439 $441 $442 reversed $134 $-1 #
coedge $-1 $228 $227 $220 $328 reversed $218 $-1 #
edge $-1 $443 -12.647518054373078 $444 12.647518054373078 $327 $445 forward 7 unknown #
coedge $-1 $222 $221 $325 $440 forward $85 $-1 #
coedge $-1 $335 $438 $221 $331 reversed $323 $-1 #
edge $-1 $333 -4.9660778584638869 $446 4.9660778584638905 $330 $447 forward 7 unknown #
edge $-1 $444 -4.9660778584638905 $229 4.9660778584638869 $227 $448 forward 7 unknown #
vertex $-1 $331 $449 #
straight-curve $-1 0 -25.694007978600336 -12.647518054373078 1 0 0 I I #
coedge $-1 $450 $330 $224 $336 reversed $323 $-1 #
edge $-1 $340 -12.647518054373078 $333 12.647518054373078 $335 $451 forward 7 unknown #
coedge $-1 $441 $225 $228 $342 forward $339 $-1 #
coedge $-1 $225 $441 $450 $452 forward $339 $-1 #
loop $-1 $-1 $225 $322 #
vertex $-1 $226 $453 #
straight-curve $-1 0 -25.694007978600336 12.647518054373078 -1 0 0 I I #
edge $-1 $230 -4.9660778584638869 $443 4.9660778584638905 $228 $454 forward 7 unknown #
point $-1 -29.956314335298156 -25.694007978600336 -12.647518054373078 #
point $-1 -29.956314335298156 -25.694007978600336 12.647518054373078 #
loop $-1 $-1 $240 $232 #
plane-surface $-1 52.251350444044313 0 0 -1 0 0 0 0 1 forward_v I I I I #
coedge $-1 $348 $235 $237 $352 reversed $142 $-1 #
coedge $-1 $235 $347 $455 $456 reversed $142 $-1 #
coedge $-1 $243 $238 $235 $350 forward $233 $-1 #
edge $-1 $353 6.2487696730026485 $457 8.2489600573008843 $349 $458 forward 7 unknown #
coedge $-1 $237 $236 $356 $459 reversed $89 $-1 #
edge $-1 $460 -104.50270088808865 $353 -100.61912308602579 $347 $461 forward 7 unknown #
vertex $-1 $239 $462 #
straight-curve $-1 50.251160059746077 6.4496922035494375 12.647518054373073 0 -1 0 I I #
coedge $-1 $455 $240 $243 $360 reversed $345 $-1 #
coedge $-1 $240 $455 $351 $459 forward $345 $-1 #
vertex $-1 $241 $463 #
straight-curve $-1 52.251350444044313 16.164185880568109 76.358904751510423 0 0 1 I I #
straight-curve $-1 -1.5715180816024201 16.164185880568109 98.894940977374119 0.51503806187062418 0 -0.85716730853699208 I I #
edge $-1 $457 9.6345829336296411 $244 16.164185880568109 $355 $464 forward 7 unknown #
point $-1 52.251350444044313 16.164185880568109 12.647518054373078 #
point $-1 50.251160059746077 16.164185880568109 12.64751805437308 #
edge $-1 $465 1 $465 0 $247 $-1 forward 7 unknown #
vertex $-1 $248 $466 #
ellipse-curve $-1 50.29309931471942 10.940503523017338 10.40736193863061 0.85716730853699208 0 0.51503806187062418 0.25751903093531209 0 -0.42858365426849604 1 I I #
point $-1 51.508774282830515 10.940503523017338 10.554496434060479 #
edge $-1 $467 1 $467 0 $251 $-1 forward 7 unknown #
vertex $-1 $252 $468 #
ellipse-curve $-1 50.29309931471942 12.899384407098875 10.40736193863061 0.85716730853699208 0 0.51503806187062418 0.25751903093531209 0 -0.42858365426849604 1 I I #
point $-1 51.508774282830515 12.899384407098875 10.554496434060479 #
edge $-1 $469 1 $469 0 $255 $-1 forward 7 unknown #
vertex $-1 $256 $470 #
ellipse-curve $-1 50.29309931471942 14.858265291180413 10.40736193863061 0.85716730853699208 0 0.51503806187062418 0.25751903093531209 0 -0.42858365426849604 1 I I #
point $-1 51.508774282830515 14.858265291180413 10.554496434060479 #
plane-surface $-1 0 0 12.647518054373078 0 0 1 1 0 0 forward_v I I I I #
coedge $-1 $386 $385 $378 $471 forward $260 $-1 #
coedge $-1 $378 $262 $264 $382 reversed $171 $-1 #
coedge $-1 $262 $377 $376 $471 reversed $171 $-1 #
coedge $-1 $270 $265 $262 $380 forward $271 $-1 #
edge $-1 $383 -24.984727904236728 $472 -17.695994949036567 $379 $473 forward 7 unknown #
coedge $-1 $264 $263 $386 $474 reversed $108 $-1 #
edge $-1 $475 1.2994784570086186e-014 $383 13.382685873678497 $377 $476 forward 7 unknown #
vertex $-1 $266 $477 #
straight-curve $-1 -44.962617488844153 -1.4371247496880653 12.647518054373078 0 1 0 I I #
coedge $-1 $376 $267 $270 $390 reversed $260 $-1 #
coedge $-1 $267 $376 $381 $474 forward $260 $-1 #
vertex $-1 $268 $478 #
straight-curve $-1 -52.251350444044313 -7.8579244646517488 29.170051032518558 0 0 1 I I #
straight-curve $-1 -52.25135044404432 -7.8579244646517488 1.4238531849405902 -0.54463902268945019 0 -0.83867057594974714 I I #
edge $-1 $472 -2.1094254658994878 $272 7.8579244646517488 $385 $479 forward 7 unknown #
point $-1 -52.251350444044313 -7.8579244646517488 12.647518054373078 #
point $-1 -44.962617488844153 -7.8579244646517488 12.647518054373078 #
edge $-1 $480 1 $480 0 $275 $-1 forward 7 unknown #
vertex $-1 $276 $481 #
ellipse-curve $-1 -46.132704846831508 -2.8742494993761305 5.42887002338923 -0.83867057594974714 0 0.54463902268945019 0.81695853403417529 0 1.2580058639246208 1 I I #
point $-1 -47.790025432410054 -2.8742494993761305 8.2936914835814513 #
loop $-1 $-1 $287 $279 #
plane-surface $-1 -52.251350444044313 0 0 1 0 0 0 0 -1 forward_v I I I I #
coedge $-1 $400 $282 $284 $404 reversed $186 $-1 #
coedge $-1 $282 $399 $482 $483 reversed $186 $-1 #
coedge $-1 $290 $285 $282 $402 forward $280 $-1 #
edge $-1 $405 -24.984727904236728 $484 -17.695994949036567 $401 $485 forward 7 unknown #
coedge $-1 $284 $283 $408 $486 reversed $117 $-1 #
edge $-1 $487 1.2994784570086186e-014 $405 13.382685873678497 $399 $488 forward 7 unknown #
vertex $-1 $286 $489 #
straight-curve $-1 -44.962617488844153 6.4032026081519522 12.647518054373078 0 1 0 I I #
coedge $-1 $482 $287 $290 $412 reversed $397 $-1 #
coedge $-1 $287 $482 $403 $486 forward $397 $-1 #
vertex $-1 $288 $490 #
straight-curve $-1 -52.251350444044313 7.8227302510282861 29.170051032518558 0 0 1 I I #
straight-curve $-1 -52.25135044404432 7.8227302510282861 1.4238531849405902 -0.54463902268945019 0 -0.83867057594974714 I I #
edge $-1 $484 -17.790080181579523 $291 -7.8227302510282861 $407 $491 forward 7 unknown #
point $-1 -52.251350444044313 7.8227302510282861 12.647518054373078 #
point $-1 -44.962617488844153 7.8227302510282861 12.647518054373078 #
edge $-1 $492 1 $492 0 $294 $-1 forward 7 unknown #
vertex $-1 $295 $493 #
ellipse-curve $-1 -46.132704846831508 12.806405216303904 5.42887002338923 -0.83867057594974714 0 0.54463902268945019 0.81695853403417529 0 1.2580058639246208 1 I I #
point $-1 -47.790025432410054 12.806405216303904 8.2936914835814513 #
plane-surface $-1 52.251350444044313 0 0 -1 0 0 0 0 1 forward_v I I I I #
coedge $-1 $423 $306 $309 $431 forward $299 $-1 #
coedge $-1 $306 $423 $301 $422 reversed $299 $-1 #
edge $-1 $428 -12.647518054373078 $435 12.647518054373078 $421 $494 forward 7 unknown #
coedge $-1 $421 $420 $302 $424 reversed $299 $-1 #
edge $-1 $435 -52.251350444044313 $425 52.251350444044313 $423 $495 forward 7 unknown #
vertex $-1 $304 $496 #
straight-curve $-1 52.251350444044313 0 -12.647518054373078 0 -1 0 I I #
edge $-1 $428 -25.694007978600336 $317 25.694007978600336 $315 $497 forward 7 unknown #
vertex $-1 $307 $498 #
straight-curve $-1 0 25.694007978600336 12.647518054373078 -1 0 0 I I #
straight-curve $-1 0 -25.694007978600336 12.647518054373078 1 0 0 I I #
edge $-1 $312 -12.647518054373078 $425 12.647518054373078 $309 $499 forward 7 unknown #
point $-1 52.251350444044313 -25.694007978600336 12.647518054373078 #
point $-1 52.251350444044313 25.694007978600336 12.647518054373078 #
point $-1 -52.251350444044313 -25.694007978600336 12.647518054373078 #
vertex $-1 $424 $500 #
straight-curve $-1 -52.251350444044313 0 -12.647518054373078 0 1 0 I I #
plane-surface $-1 0 0 12.647518054373078 0 0 1 1 0 0 forward_v I I I I #
coedge $-1 $330 $450 $439 $501 forward $323 $-1 #
coedge $-1 $326 $325 $438 $501 reversed $134 $-1 #
edge $-1 $446 -1.5 $444 1.5 $325 $502 forward 7 unknown #
coedge $-1 $338 $337 $326 $442 forward $339 $-1 #
edge $-1 $443 -1.5 $503 1.5 $326 $504 forward 7 unknown #
vertex $-1 $342 $505 #
vertex $-1 $332 $506 #
straight-curve $-1 -29.956314335298156 -35.626163695528113 0 0 0 -1 I I #
vertex $-1 $501 $507 #
straight-curve $-1 -26.956314335298156 -30.660085837064223 -12.647518054373078 0 -1 0 I I #
straight-curve $-1 -29.956314335298156 -30.660085837064223 -12.647518054373078 0 1 0 I I #
point $-1 -26.956314335298156 -25.694007978600336 -12.647518054373078 #
coedge $-1 $438 $335 $338 $452 reversed $323 $-1 #
straight-curve $-1 -26.956314335298156 -25.694007978600336 0 0 0 -1 I I #
edge $-1 $503 -4.9660778584638905 $340 4.9660778584638869 $450 $508 forward 7 unknown #
point $-1 -26.956314335298156 -25.694007978600336 12.647518054373078 #
straight-curve $-1 -29.956314335298156 -30.660085837064223 12.647518054373078 0 -1 0 I I #
coedge $-1 $356 $355 $348 $456 forward $345 $-1 #
edge $-1 $457 63.711386697137343 $460 67.04026262922558 $455 $509 forward 7 unknown #
vertex $-1 $360 $510 #
straight-curve $-1 44.002390386743429 9.6345829336296411 12.64751805437308 1 0 0 I I #
edge $-1 $460 3.1848907300802036 $357 9.7144936770186714 $356 $511 forward 7 unknown #
vertex $-1 $459 $512 #
straight-curve $-1 -1.5715180816024201 9.6345829336296411 98.894940977374119 -0.51503806187062418 0 0.85716730853699208 I I #
point $-1 50.251160059746077 9.6345829336296411 12.64751805437308 #
point $-1 52.251350444044313 16.164185880568109 9.3186421222848423 #
straight-curve $-1 52.251350444044313 0 12.647518054373078 0 1 0 I I #
vertex $-1 $363 $513 #
point $-1 50.550618345654733 10.940503523017338 9.9787782843621127 #
vertex $-1 $367 $514 #
point $-1 50.550618345654733 12.899384407098875 9.9787782843621127 #
vertex $-1 $371 $515 #
point $-1 50.550618345654733 14.858265291180413 9.9787782843621127 #
edge $-1 $472 16.522532978145478 $475 27.746197847577957 $376 $516 forward 7 unknown #
vertex $-1 $390 $517 #
straight-curve $-1 -69.94734539308088 2.1094254658994878 12.64751805437308 -1 0 0 I I #
edge $-1 $475 -3.546550215587553 $387 6.4207997149636835 $386 $518 forward 7 unknown #
vertex $-1 $474 $519 #
straight-curve $-1 -52.25135044404432 2.1094254658994878 1.4238531849405902 0.54463902268945019 0 0.83867057594974714 I I #
point $-1 -44.962617488844153 2.1094254658994878 12.647518054373078 #
point $-1 -52.251350444044313 -7.8579244646517488 1.4238531849406011 #
straight-curve $-1 -52.251350444044313 0 12.647518054373078 0 -1 0 I I #
vertex $-1 $393 $520 #
point $-1 -45.31574631279733 -2.8742494993761305 6.6868758873138514 #
coedge $-1 $408 $407 $400 $483 forward $397 $-1 #
edge $-1 $484 16.522532978145478 $487 27.746197847577957 $482 $521 forward 7 unknown #
vertex $-1 $412 $522 #
straight-curve $-1 -69.94734539308088 17.790080181579523 12.64751805437308 -1 0 0 I I #
edge $-1 $487 -11.38687757342757 $409 -1.4195276428763339 $408 $523 forward 7 unknown #
vertex $-1 $486 $524 #
straight-curve $-1 -52.25135044404432 17.790080181579523 1.4238531849405902 0.54463902268945019 0 0.83867057594974714 I I #
point $-1 -44.962617488844153 17.790080181579523 12.647518054373078 #
point $-1 -52.251350444044313 7.8227302510282861 1.4238531849406011 #
straight-curve $-1 -52.251350444044313 0 12.647518054373078 0 -1 0 I I #
vertex $-1 $415 $525 #
point $-1 -45.31574631279733 12.806405216303904 6.6868758873138514 #
straight-curve $-1 -52.251350444044313 25.694007978600336 0 0 0 -1 I I #
straight-curve $-1 0 25.694007978600336 -12.647518054373078 1 0 0 I I #
point $-1 52.251350444044313 25.694007978600336 -12.647518054373078 #
straight-curve $-1 -52.251350444044313 0 12.647518054373078 0 -1 0 I I #
point $-1 -52.251350444044313 25.694007978600336 12.647518054373078 #
straight-curve $-1 52.251350444044313 25.694007978600336 0 0 0 -1 I I #
point $-1 -52.251350444044313 25.694007978600336 -12.647518054373078 #
edge $-1 $503 -12.647518054373078 $446 12.647518054373078 $438 $526 forward 7 unknown #
straight-curve $-1 -28.456314335298156 -35.626163695528113 -12.647518054373078 -1 0 0 I I #
vertex $-1 $452 $527 #
straight-curve $-1 -28.456314335298156 -35.626163695528113 12.647518054373078 1 0 0 I I #
point $-1 -29.956314335298156 -35.626163695528113 12.647518054373078 #
point $-1 -29.956314335298156 -35.626163695528113 -12.647518054373078 #
point $-1 -26.956314335298156 -35.626163695528113 -12.647518054373078 #
straight-curve $-1 -26.956314335298156 -30.660085837064223 12.647518054373078 0 1 0 I I #
straight-curve $-1 52.251350444044313 9.6345829336296411 76.358904751510423 0 0 -1 I I #
point $-1 52.251350444044313 9.6345829336296411 12.647518054373078 #
straight-curve $-1 52.251350444044313 6.4496922035494375 9.3186421222848423 0 1 0 I I #
point $-1 52.251350444044313 9.6345829336296411 9.3186421222848423 #
point $-1 49.864515660450927 10.940503523017338 10.149842907695296 #
point $-1 49.864515660450927 12.899384407098875 10.149842907695296 #
point $-1 49.864515660450927 14.858265291180413 10.149842907695296 #
straight-curve $-1 -52.251350444044313 2.1094254658994878 29.170051032518558 0 0 -1 I I #
point $-1 -52.251350444044313 2.1094254658994878 12.647518054373078 #
straight-curve $-1 -52.251350444044313 -1.4371247496880653 1.4238531849406013 0 -1 0 I I #
point $-1 -52.251350444044313 2.1094254658994878 1.4238531849406011 #
point $-1 -44.874698982906885 -2.8742494993761305 4.6119114893550552 #
straight-curve $-1 -52.251350444044313 17.790080181579523 29.170051032518558 0 0 -1 I I #
point $-1 -52.251350444044313 17.790080181579523 12.647518054373078 #
straight-curve $-1 -52.251350444044313 6.4032026081519522 1.4238531849406013 0 -1 0 I I #
point $-1 -52.251350444044313 17.790080181579523 1.4238531849406011 #
point $-1 -44.874698982906885 12.806405216303904 4.6119114893550552 #
straight-curve $-1 -26.956314335298156 -35.626163695528113 0 0 0 -1 I I #
point $-1 -26.956314335298156 -35.626163695528113 12.647518054373078 #
End-of-ACIS-data 