500 0 7 0           
7 Unknown 11 ACIS 5.0 NT 24 Thu Mar 25 20:58:55 1999 
-1 9.9999999999999995e-007 1e-010 
body $-1 $7 $-1 $8 #
body $-1 $9 $-1 $10 #
body $-1 $11 $-1 $12 #
body $-1 $13 $-1 $14 #
body $-1 $15 $-1 $16 #
body $-1 $17 $-1 $18 #
body $-1 $19 $-1 $20 #
lump $-1 $-1 $21 $0 #
transform $-1 1 0 0 0 1 0 0 0 1 42.431714835047458 28.126890435595712 12.906935330292802 1 rotate no_reflect no_shear #
lump $-1 $-1 $22 $1 #
transform $-1 1 0 0 0 1 0 0 0 1 42.431714835047458 28.126890435595712 12.906935330292802 1 rotate no_reflect no_shear #
lump $-1 $-1 $23 $2 #
transform $-1 1 0 0 0 1 0 0 0 1 42.431714835047458 28.126890435595712 12.906935330292802 1 rotate no_reflect no_shear #
lump $-1 $-1 $24 $3 #
transform $-1 1 0 0 0 1 0 0 0 1 42.431714835047458 28.126890435595712 12.906935330292802 1 rotate no_reflect no_shear #
lump $-1 $-1 $25 $4 #
transform $-1 1 0 0 0 1 0 0 0 1 42.431714835047458 28.126890435595712 12.906935330292802 1 rotate no_reflect no_shear #
lump $-1 $-1 $26 $5 #
transform $-1 1 0 0 0 1 0 0 0 1 42.431714835047458 28.126890435595712 12.906935330292802 1 rotate no_reflect no_shear #
lump $-1 $-1 $27 $6 #
transform $-1 1 0 0 0 1 0 0 0 1 42.431714835047458 28.126890435595712 12.906935330292802 1 rotate no_reflect no_shear #
shell $-1 $-1 $-1 $28 $-1 $7 #
shell $-1 $-1 $-1 $29 $-1 $9 #
shell $-1 $-1 $-1 $30 $-1 $11 #
shell $-1 $-1 $-1 $31 $-1 $13 #
shell $-1 $-1 $-1 $32 $-1 $15 #
shell $-1 $-1 $-1 $33 $-1 $17 #
shell $-1 $-1 $-1 $34 $-1 $19 #
face $-1 $35 $36 $21 $-1 $37 forward single #
face $-1 $38 $39 $22 $-1 $40 forward single #
face $-1 $41 $42 $23 $-1 $43 reversed single #
face $-1 $44 $45 $24 $-1 $46 forward single #
face $-1 $47 $48 $25 $-1 $49 reversed single #
face $-1 $50 $51 $26 $-1 $52 forward single #
face $-1 $53 $54 $27 $-1 $55 forward single #
face $-1 $56 $57 $21 $-1 $58 reversed single #
loop $-1 $-1 $59 $28 #
plane-surface $-1 0 0 12.906935330292802 0 0 1 1 0 0 forward_v I I I I #
face $-1 $60 $61 $22 $-1 $62 reversed single #
loop $-1 $-1 $63 $29 #
plane-surface $-1 -42.431714835047458 0 0 1 0 0 0 0 -1 forward_v I I I I #
face $-1 $64 $65 $23 $-1 $66 reversed single #
loop $-1 $-1 $67 $30 #
plane-surface $-1 12.396040587644659 58.676511980341203 105.17331557592628 1 0 0 0 -0.77714596973225614 -0.62932038083071107 forward_v I I I I #
face $-1 $68 $69 $24 $-1 $70 forward single #
loop $-1 $71 $72 $31 #
cone-surface $-1 17.91811311602963 25.765478951763672 10.158638844036512 0 -0.77714596973225614 -0.62932038083071107 1 0 0 1 I I 0 1 1 forward I I I I #
face $-1 $73 $74 $25 $-1 $75 reversed single #
loop $-1 $-1 $76 $32 #
plane-surface $-1 -12.016893661778042 -100.09516107313527 50.285081437845484 -1 0 0 0 -0.84804810408105047 0.52991925155115449 forward_v I I I I #
face $-1 $77 $78 $26 $-1 $79 forward single #
loop $-1 $80 $81 $33 #
cone-surface $-1 -18.655675137253535 -24.227393793197745 8.1562633522017176 0 0.84804810408105047 -0.52991925155115449 1 0 0 1 I I 0 1 1 forward I I I I #
face $-1 $82 $83 $27 $-1 $84 forward single #
loop $-1 $85 $86 $34 #
cone-surface $-1 -14.672406251968241 -24.227393793197745 8.1562633522017176 0 0.84804810408105047 -0.52991925155115449 1 0 0 1 I I 0 1 1 forward I I I I #
face $-1 $87 $88 $21 $-1 $89 reversed single #
loop $-1 $-1 $90 $35 #
plane-surface $-1 0 0 -12.906935330292802 0 0 1 1 0 0 forward_v I I I I #
coedge $-1 $91 $92 $93 $94 forward $36 $-1 #
face $-1 $95 $96 $22 $-1 $97 reversed single #
loop $-1 $-1 $98 $38 #
plane-surface $-1 0 28.126890435595712 0 0 -1 0 0 0 -1 forward_v I I I I #
coedge $-1 $99 $100 $101 $102 forward $39 $-1 #
face $-1 $103 $104 $23 $-1 $105 reversed single #
loop $-1 $-1 $106 $41 #
plane-surface $-1 17.91811311602963 -7.2747603654298274 51.767029697341883 0 0.77714596973225614 0.62932038083071107 1 0 0 forward_v I I I I #
coedge $-1 $107 $108 $109 $110 reversed $42 $-1 #
face $-1 $-1 $111 $24 $-1 $112 forward single #
loop $-1 $113 $114 $44 #
cone-surface $-1 17.91811311602963 24.982178333172946 9.5243345269642905 0 -0.77714596973225614 -0.62932038083071107 0.5 0 0 1 I I -0.70710678118654746 0.70710678118654746 0.5 forward I I I I #
loop $-1 $-1 $115 $31 #
coedge $-1 $72 $72 $116 $117 reversed $45 $-1 #
face $-1 $118 $119 $25 $-1 $120 reversed single #
loop $-1 $-1 $121 $47 #
plane-surface $-1 -16.664040694610886 -28.126890435595712 5.3143163030047518 0 -0.84804810408105047 0.52991925155115449 1 0 0 forward_v I I I I #
coedge $-1 $122 $123 $124 $125 reversed $48 $-1 #
face $-1 $-1 $126 $26 $-1 $127 forward single #
loop $-1 $128 $129 $50 #
cone-surface $-1 -18.655675137253535 -22.276070485258572 6.9369412619790811 0 0.84804810408105047 -0.52991925155115449 0.5 0 0 1 I I -0.70710678118654746 0.70710678118654746 0.5 forward I I I I #
loop $-1 $-1 $130 $33 #
coedge $-1 $81 $81 $131 $132 reversed $51 $-1 #
face $-1 $-1 $133 $27 $-1 $134 forward single #
loop $-1 $135 $136 $53 #
cone-surface $-1 -14.672406251968241 -22.276070485258572 6.9369412619790811 0 0.84804810408105047 -0.52991925155115449 0.5 0 0 1 I I -0.70710678118654746 0.70710678118654746 0.5 forward I I I I #
loop $-1 $-1 $137 $34 #
coedge $-1 $86 $86 $138 $139 reversed $54 $-1 #
face $-1 $140 $141 $21 $-1 $142 reversed single #
loop $-1 $-1 $143 $56 #
plane-surface $-1 0 -28.126890435595712 0 0 1 0 0 0 1 forward_v I I I I #
coedge $-1 $144 $145 $146 $147 forward $57 $-1 #
coedge $-1 $148 $59 $149 $150 forward $36 $-1 #
coedge $-1 $59 $148 $151 $152 forward $36 $-1 #
coedge $-1 $153 $154 $59 $94 reversed $155 $-1 #
edge $-1 $156 -28.126890435595712 $157 28.126890435595712 $93 $158 forward 7 unknown #
face $-1 $159 $160 $22 $-1 $161 reversed single #
loop $-1 $-1 $101 $60 #
plane-surface $-1 -49.329612475304877 0 9.9069353302928018 0 0 1 1 0 0 forward_v I I I I #
coedge $-1 $162 $163 $99 $164 forward $61 $-1 #
coedge $-1 $165 $63 $98 $164 reversed $39 $-1 #
coedge $-1 $63 $165 $166 $167 reversed $39 $-1 #
coedge $-1 $168 $169 $63 $102 reversed $96 $-1 #
edge $-1 $170 -28.126890435595712 $171 28.126890435595712 $101 $172 forward 7 unknown #
face $-1 $173 $174 $23 $-1 $175 forward single #
loop $-1 $-1 $176 $64 #
plane-surface $-1 23.440185644414601 58.676511980341203 105.17331557592628 -1 0 0 0 0.77714596973225614 0.62932038083071107 forward_v I I I I #
coedge $-1 $177 $178 $179 $180 reversed $65 $-1 #
coedge $-1 $108 $67 $181 $182 reversed $42 $-1 #
coedge $-1 $67 $107 $177 $183 reversed $42 $-1 #
coedge $-1 $179 $184 $67 $110 forward $174 $-1 #
edge $-1 $185 1.2113655545748898 $186 5.1447332547897346 $109 $187 forward 7 unknown #
loop $-1 $-1 $116 $68 #
plane-surface $-1 17.91811311602963 -7.2747603654298274 51.767029697341883 0 0.77714596973225614 0.62932038083071107 1 0 0 forward_v I I I I #
loop $-1 $-1 $188 $44 #
coedge $-1 $114 $114 $115 $189 reversed $69 $-1 #
coedge $-1 $115 $115 $114 $189 forward $71 $-1 #
coedge $-1 $116 $116 $72 $117 forward $111 $-1 #
edge $-1 $190 -1.3204983000468654e-015 $190 6.2831853071795996 $116 $191 forward 7 unknown #
face $-1 $192 $193 $25 $-1 $194 reversed single #
loop $-1 $-1 $195 $73 #
plane-surface $-1 -21.31118772744373 -100.09516107313527 50.285081437845484 1 0 0 0 0.84804810408105047 -0.52991925155115449 forward_v I I I I #
coedge $-1 $196 $197 $198 $199 reversed $74 $-1 #
coedge $-1 $123 $76 $200 $201 reversed $48 $-1 #
coedge $-1 $76 $122 $196 $202 reversed $48 $-1 #
coedge $-1 $198 $203 $76 $125 forward $204 $-1 #
edge $-1 $205 21.920690100971925 $206 26.66508487397056 $124 $207 forward 7 unknown #
loop $-1 $-1 $131 $77 #
plane-surface $-1 -16.664040694610886 -28.126890435595712 5.3143163030047518 0 -0.84804810408105047 0.52991925155115449 1 0 0 forward_v I I I I #
loop $-1 $-1 $208 $50 #
coedge $-1 $129 $129 $130 $209 reversed $78 $-1 #
coedge $-1 $130 $130 $129 $209 forward $80 $-1 #
coedge $-1 $131 $131 $81 $132 forward $126 $-1 #
edge $-1 $210 -1.1302207260040686e-015 $210 6.2831853071795996 $131 $211 forward 7 unknown #
loop $-1 $-1 $138 $82 #
plane-surface $-1 -16.664040694610886 -28.126890435595712 5.3143163030047518 0 -0.84804810408105047 0.52991925155115449 1 0 0 forward_v I I I I #
loop $-1 $-1 $212 $53 #
coedge $-1 $136 $136 $137 $213 reversed $83 $-1 #
coedge $-1 $137 $137 $136 $213 forward $85 $-1 #
coedge $-1 $138 $138 $86 $139 forward $133 $-1 #
edge $-1 $214 -1.1302207260040686e-015 $214 6.2831853071795996 $138 $215 forward 7 unknown #
face $-1 $216 $217 $21 $-1 $218 reversed single #
loop $-1 $-1 $219 $87 #
plane-surface $-1 -42.431714835047458 0 0 1 0 0 0 0 -1 forward_v I I I I #
coedge $-1 $220 $151 $221 $222 forward $88 $-1 #
coedge $-1 $223 $90 $220 $224 forward $57 $-1 #
coedge $-1 $90 $223 $225 $226 forward $57 $-1 #
coedge $-1 $154 $153 $90 $147 reversed $155 $-1 #
edge $-1 $227 -28.126890435595712 $228 28.126890435595712 $146 $229 forward 7 unknown #
coedge $-1 $92 $91 $230 $231 forward $36 $-1 #
coedge $-1 $232 $233 $91 $150 reversed $217 $-1 #
edge $-1 $157 -42.431714835047458 $234 42.431714835047458 $149 $235 forward 7 unknown #
coedge $-1 $143 $236 $92 $152 reversed $88 $-1 #
edge $-1 $237 -42.431714835047458 $156 42.431714835047458 $151 $238 forward 7 unknown #
coedge $-1 $146 $93 $236 $239 forward $155 $-1 #
coedge $-1 $93 $146 $232 $240 reversed $155 $-1 #
loop $-1 $-1 $153 $216 #
vertex $-1 $94 $241 #
vertex $-1 $94 $242 #
straight-curve $-1 42.431714835047458 0 12.906935330292802 0 1 0 I I #
face $-1 $243 $244 $22 $-1 $245 forward single #
loop $-1 $-1 $246 $95 #
plane-surface $-1 -56.227510115562296 0 11.406935330292802 1 0 0 0 0 -1 forward_v I I I I #
coedge $-1 $247 $98 $169 $248 reversed $61 $-1 #
coedge $-1 $98 $247 $249 $250 reversed $61 $-1 #
edge $-1 $251 -12.906935330292802 $171 -9.9069353302928018 $98 $252 forward 7 unknown #
coedge $-1 $100 $99 $253 $254 reversed $39 $-1 #
coedge $-1 $255 $256 $100 $167 forward $257 $-1 #
edge $-1 $170 9.9069353302928018 $258 12.906935330292802 $166 $259 forward 7 unknown #
coedge $-1 $260 $101 $256 $261 forward $96 $-1 #
coedge $-1 $101 $260 $162 $248 forward $96 $-1 #
vertex $-1 $167 $262 #
vertex $-1 $164 $263 #
straight-curve $-1 -42.431714835047458 0 9.9069353302928018 0 1 0 I I #
face $-1 $-1 $264 $23 $-1 $265 reversed single #
loop $-1 $-1 $109 $103 #
plane-surface $-1 0 0 12.906935330292802 0 0 1 1 0 0 forward_v I I I I #
coedge $-1 $266 $267 $268 $269 reversed $104 $-1 #
coedge $-1 $270 $106 $108 $183 forward $65 $-1 #
coedge $-1 $106 $270 $266 $271 forward $65 $-1 #
coedge $-1 $268 $109 $106 $180 forward $174 $-1 #
edge $-1 $186 3.4369840296298442 $272 14.481129086399786 $179 $273 forward 7 unknown #
coedge $-1 $274 $275 $107 $182 forward $264 $-1 #
edge $-1 $276 -44.537027176869138 $185 -39.679722457670337 $181 $277 forward 7 unknown #
edge $-1 $186 50.003597625858156 $276 56.253780871191395 $108 $278 forward 7 unknown #
coedge $-1 $109 $268 $274 $279 forward $174 $-1 #
vertex $-1 $182 $280 #
vertex $-1 $110 $281 #
straight-curve $-1 12.396040587644659 29.338255990170602 12.906935330292804 0 -1 0 I I #
coedge $-1 $188 $188 $-1 $282 reversed $113 $-1 #
edge $-1 $283 0 $283 6.2831853071796004 $114 $284 forward 7 unknown #
vertex $-1 $117 $285 #
ellipse-curve $-1 17.91811311602963 26.1602065854883 10.4782829706934 0 0.77714596973225614 0.62932038083071107 1 0 0 1 I I #
face $-1 $-1 $204 $25 $-1 $286 forward single #
loop $-1 $-1 $287 $118 #
plane-surface $-1 0 -28.126890435595712 0 0 1 0 0 0 1 forward_v I I I I #
coedge $-1 $288 $289 $290 $291 reversed $119 $-1 #
coedge $-1 $292 $121 $123 $202 forward $74 $-1 #
coedge $-1 $121 $292 $288 $293 forward $74 $-1 #
coedge $-1 $290 $124 $121 $199 forward $204 $-1 #
edge $-1 $206 3.6848733144725987 $294 12.979167380138287 $198 $295 forward 7 unknown #
coedge $-1 $296 $297 $122 $201 forward $193 $-1 #
edge $-1 $298 -19.82822441591799 $205 -12.23560538862994 $200 $299 forward 7 unknown #
edge $-1 $206 -8.9530522982719845 $298 0 $123 $300 forward 7 unknown #
coedge $-1 $124 $290 $296 $301 forward $204 $-1 #
loop $-1 $-1 $290 $192 #
vertex $-1 $201 $302 #
vertex $-1 $125 $303 #
straight-curve $-1 -12.016893661778042 -50.047580536567636 12.906935330292804 0 1 0 I I #
coedge $-1 $208 $208 $-1 $304 reversed $128 $-1 #
edge $-1 $305 0 $305 6.2831853071796004 $129 $306 forward 7 unknown #
vertex $-1 $132 $307 #
ellipse-curve $-1 -18.655675137253535 -25.754693049096396 9.1106258166487777 0 -0.84804810408105047 0.52991925155115449 1 0 0 1 I I #
coedge $-1 $212 $212 $-1 $308 reversed $135 $-1 #
edge $-1 $309 0 $309 6.2831853071796004 $136 $310 forward 7 unknown #
vertex $-1 $139 $311 #
ellipse-curve $-1 -14.672406251968241 -25.754693049096396 9.1106258166487777 0 -0.84804810408105047 0.52991925155115449 1 0 0 1 I I #
face $-1 $-1 $155 $21 $-1 $312 reversed single #
loop $-1 $-1 $232 $140 #
plane-surface $-1 0 28.126890435595712 0 0 -1 0 0 0 -1 forward_v I I I I #
coedge $-1 $313 $230 $233 $314 forward $141 $-1 #
coedge $-1 $236 $143 $144 $224 reversed $88 $-1 #
coedge $-1 $230 $313 $143 $222 reversed $141 $-1 #
edge $-1 $237 -12.906935330292802 $315 12.906935330292802 $221 $316 forward 7 unknown #
coedge $-1 $145 $144 $313 $317 forward $57 $-1 #
edge $-1 $228 -42.431714835047458 $315 42.431714835047458 $220 $318 forward 7 unknown #
coedge $-1 $233 $232 $145 $226 reversed $217 $-1 #
edge $-1 $319 -42.431714835047458 $227 42.431714835047458 $225 $320 forward 7 unknown #
vertex $-1 $147 $321 #
vertex $-1 $239 $322 #
straight-curve $-1 42.431714835047458 0 -12.906935330292802 0 -1 0 I I #
coedge $-1 $219 $221 $148 $231 reversed $141 $-1 #
edge $-1 $234 -28.126890435595712 $237 28.126890435595712 $230 $323 forward 7 unknown #
coedge $-1 $225 $149 $154 $240 forward $217 $-1 #
coedge $-1 $149 $225 $219 $314 reversed $217 $-1 #
vertex $-1 $150 $324 #
straight-curve $-1 0 28.126890435595712 12.906935330292802 -1 0 0 I I #
coedge $-1 $151 $220 $153 $239 reversed $88 $-1 #
vertex $-1 $231 $325 #
straight-curve $-1 0 -28.126890435595712 12.906935330292802 1 0 0 I I #
edge $-1 $156 -12.906935330292802 $228 12.906935330292802 $153 $326 forward 7 unknown #
edge $-1 $157 -12.906935330292802 $227 12.906935330292802 $154 $327 forward 7 unknown #
point $-1 42.431714835047458 -28.126890435595712 12.906935330292802 #
point $-1 42.431714835047458 28.126890435595712 12.906935330292802 #
face $-1 $-1 $257 $22 $-1 $328 reversed single #
loop $-1 $-1 $253 $159 #
plane-surface $-1 0 0 12.906935330292802 0 0 1 1 0 0 forward_v I I I I #
coedge $-1 $329 $330 $247 $331 forward $160 $-1 #
coedge $-1 $163 $162 $246 $331 reversed $61 $-1 #
edge $-1 $332 -6.897897640257419 $171 6.897897640257419 $162 $333 forward 7 unknown #
coedge $-1 $334 $253 $163 $250 forward $244 $-1 #
edge $-1 $251 42.431714835047458 $335 56.227510115562296 $163 $336 forward 7 unknown #
vertex $-1 $250 $337 #
straight-curve $-1 -42.431714835047458 28.126890435595712 0 0 0 -1 I I #
coedge $-1 $249 $338 $165 $254 forward $244 $-1 #
edge $-1 $258 -28.126890435595712 $251 28.126890435595712 $253 $339 forward 7 unknown #
coedge $-1 $340 $166 $338 $341 reversed $257 $-1 #
coedge $-1 $166 $340 $168 $261 reversed $257 $-1 #
loop $-1 $-1 $166 $243 #
vertex $-1 $167 $342 #
straight-curve $-1 -42.431714835047458 -28.126890435595712 0 0 0 1 I I #
coedge $-1 $169 $168 $329 $343 forward $96 $-1 #
edge $-1 $170 -6.897897640257419 $344 6.897897640257419 $256 $345 forward 7 unknown #
point $-1 -42.431714835047458 -28.126890435595712 9.9069353302928018 #
point $-1 -42.431714835047458 28.126890435595712 9.9069353302928018 #
loop $-1 $-1 $181 $173 #
plane-surface $-1 0 28.126890435595712 0 0 -1 0 0 0 -1 forward_v I I I I #
coedge $-1 $267 $176 $178 $271 reversed $104 $-1 #
coedge $-1 $176 $266 $346 $347 reversed $104 $-1 #
coedge $-1 $184 $179 $176 $269 forward $174 $-1 #
edge $-1 $272 -5.1447332547897346 $348 -1.2113655545748898 $268 $349 forward 7 unknown #
coedge $-1 $178 $177 $275 $350 reversed $65 $-1 #
edge $-1 $351 -56.253780871191395 $272 -50.003597625858156 $266 $352 forward 7 unknown #
vertex $-1 $180 $353 #
straight-curve $-1 8.9590565580148152 24.193522735380867 12.906935330292804 1 0 0 I I #
coedge $-1 $346 $181 $184 $279 reversed $264 $-1 #
coedge $-1 $181 $346 $270 $350 forward $264 $-1 #
vertex $-1 $182 $354 #
straight-curve $-1 12.396040587644659 28.126890435595712 52.586657787963141 0 0 1 I I #
straight-curve $-1 12.396040587644659 -7.2747603654298274 51.767029697341883 0 0.62932038083071107 -0.77714596973225614 I I #
edge $-1 $348 -23.440185644414601 $185 -12.396040587644659 $274 $355 forward 7 unknown #
point $-1 12.396040587644659 28.126890435595712 12.906935330292802 #
point $-1 12.396040587644659 24.193522735380867 12.906935330292804 #
edge $-1 $356 1 $356 0 $188 $-1 forward 7 unknown #
vertex $-1 $189 $357 #
ellipse-curve $-1 17.91811311602963 25.370751318039073 9.8389947173796468 0 0.77714596973225614 0.62932038083071107 1 0 0 1 I I #
point $-1 18.91811311602963 26.160206585488272 10.478282970693378 #
plane-surface $-1 0 0 12.906935330292802 0 0 1 1 0 0 forward_v I I I I #
coedge $-1 $297 $296 $289 $358 forward $193 $-1 #
coedge $-1 $289 $195 $197 $293 reversed $119 $-1 #
coedge $-1 $195 $288 $287 $358 reversed $119 $-1 #
coedge $-1 $203 $198 $195 $291 forward $204 $-1 #
edge $-1 $294 -26.66508487397056 $359 -21.920690100971925 $290 $360 forward 7 unknown #
coedge $-1 $197 $196 $297 $361 reversed $74 $-1 #
edge $-1 $362 0 $294 8.9530522982719845 $288 $363 forward 7 unknown #
vertex $-1 $199 $364 #
straight-curve $-1 -8.3320203473054431 -23.382495662597073 12.906935330292802 -1 0 0 I I #
coedge $-1 $287 $200 $203 $301 reversed $193 $-1 #
coedge $-1 $200 $287 $292 $361 forward $193 $-1 #
vertex $-1 $201 $365 #
straight-curve $-1 -12.016893661778042 -28.126890435595712 25.142540718922742 0 0 1 I I #
straight-curve $-1 -12.016893661778042 -28.126890435595712 5.3143163030047518 0 -0.52991925155115449 -0.84804810408105047 I I #
edge $-1 $359 -21.31118772744373 $205 -12.016893661778042 $296 $366 forward 7 unknown #
point $-1 -12.016893661778042 -28.126890435595712 12.906935330292802 #
point $-1 -12.016893661778042 -23.382495662597076 12.9069353302928 #
edge $-1 $367 1 $367 0 $208 $-1 forward 7 unknown #
vertex $-1 $209 $368 #
ellipse-curve $-1 -18.655675137253535 -22.700094537299098 7.2019008877546584 0 -0.84804810408105047 0.52991925155115449 1 0 0 1 I I #
point $-1 -17.655675137253535 -25.754693049096392 9.1106258166487741 #
edge $-1 $369 1 $369 0 $212 $-1 forward 7 unknown #
vertex $-1 $213 $370 #
ellipse-curve $-1 -14.672406251968241 -22.700094537299098 7.2019008877546584 0 -0.84804810408105047 0.52991925155115449 1 0 0 1 I I #
point $-1 -13.672406251968241 -25.754693049096392 9.1106258166487741 #
plane-surface $-1 42.431714835047458 0 0 -1 0 0 0 0 1 forward_v I I I I #
coedge $-1 $221 $219 $223 $317 reversed $141 $-1 #
edge $-1 $234 -12.906935330292802 $319 12.906935330292802 $233 $371 forward 7 unknown #
vertex $-1 $317 $372 #
straight-curve $-1 -42.431714835047458 -28.126890435595712 0 0 0 -1 I I #
edge $-1 $315 -28.126890435595712 $319 28.126890435595712 $313 $373 forward 7 unknown #
straight-curve $-1 0 -28.126890435595712 -12.906935330292802 -1 0 0 I I #
vertex $-1 $226 $374 #
straight-curve $-1 0 28.126890435595712 -12.906935330292802 1 0 0 I I #
point $-1 42.431714835047458 28.126890435595712 -12.906935330292802 #
point $-1 42.431714835047458 -28.126890435595712 -12.906935330292802 #
straight-curve $-1 -42.431714835047458 0 12.906935330292802 0 -1 0 I I #
point $-1 -42.431714835047458 28.126890435595712 12.906935330292802 #
point $-1 -42.431714835047458 -28.126890435595712 12.906935330292802 #
straight-curve $-1 42.431714835047458 -28.126890435595712 0 0 0 -1 I I #
straight-curve $-1 42.431714835047458 28.126890435595712 0 0 0 -1 I I #
plane-surface $-1 0 -28.126890435595712 0 0 1 0 0 0 1 forward_v I I I I #
coedge $-1 $375 $246 $260 $343 reversed $160 $-1 #
coedge $-1 $246 $375 $334 $376 reversed $160 $-1 #
edge $-1 $335 -1.5 $332 1.5 $247 $377 forward 7 unknown #
vertex $-1 $248 $378 #
straight-curve $-1 -49.329612475304877 28.126890435595712 9.9069353302928018 1 0 0 I I #
coedge $-1 $338 $249 $330 $376 forward $244 $-1 #
vertex $-1 $250 $379 #
straight-curve $-1 0 28.126890435595712 12.906935330292802 -1 0 0 I I #
point $-1 -42.431714835047458 28.126890435595712 12.906935330292802 #
coedge $-1 $253 $334 $255 $341 forward $244 $-1 #
straight-curve $-1 -42.431714835047458 0 12.906935330292802 0 1 0 I I #
coedge $-1 $256 $255 $375 $380 forward $257 $-1 #
edge $-1 $381 -56.227510115562296 $258 -42.431714835047458 $255 $382 forward 7 unknown #
point $-1 -42.431714835047458 -28.126890435595712 12.906935330292802 #
edge $-1 $344 -28.126890435595712 $332 28.126890435595712 $329 $383 forward 7 unknown #
vertex $-1 $343 $384 #
straight-curve $-1 -49.329612475304877 -28.126890435595712 9.9069353302928018 -1 0 0 I I #
coedge $-1 $275 $274 $267 $347 forward $264 $-1 #
edge $-1 $348 39.679722457670337 $351 44.537027176869138 $346 $385 forward 7 unknown #
vertex $-1 $279 $386 #
straight-curve $-1 23.440185644414601 29.338255990170602 12.906935330292804 0 1 0 I I #
edge $-1 $351 -14.481129086399786 $276 -3.4369840296298442 $275 $387 forward 7 unknown #
vertex $-1 $350 $388 #
straight-curve $-1 23.440185644414601 -7.2747603654298274 51.767029697341883 0 -0.62932038083071107 0.77714596973225614 I I #
point $-1 23.440185644414601 24.193522735380867 12.906935330292804 #
point $-1 12.396040587644659 28.126890435595712 8.0496306110940026 #
straight-curve $-1 0 28.126890435595712 12.906935330292802 -1 0 0 I I #
vertex $-1 $282 $389 #
point $-1 18.91811311602963 25.370751318039073 9.8389947173796468 #
edge $-1 $359 12.23560538862994 $362 19.82822441591799 $287 $390 forward 7 unknown #
vertex $-1 $301 $391 #
straight-curve $-1 -21.31118772744373 -50.047580536567636 12.906935330292804 0 -1 0 I I #
edge $-1 $362 -12.979167380138287 $298 -3.6848733144725987 $297 $392 forward 7 unknown #
vertex $-1 $361 $393 #
straight-curve $-1 -21.31118772744373 -28.126890435595712 5.3143163030047518 0 0.52991925155115449 0.84804810408105047 I I #
point $-1 -21.31118772744373 -23.382495662597076 12.9069353302928 #
point $-1 -12.016893661778042 -28.126890435595712 5.3143163030047518 #
straight-curve $-1 0 -28.126890435595712 12.906935330292802 1 0 0 I I #
vertex $-1 $304 $394 #
point $-1 -17.655675137253535 -22.700094537299098 7.2019008877546584 #
vertex $-1 $308 $395 #
point $-1 -13.672406251968241 -22.700094537299098 7.2019008877546584 #
straight-curve $-1 -42.431714835047458 28.126890435595712 0 0 0 -1 I I #
point $-1 -42.431714835047458 -28.126890435595712 -12.906935330292802 #
straight-curve $-1 -42.431714835047458 0 -12.906935330292802 0 1 0 I I #
point $-1 -42.431714835047458 28.126890435595712 -12.906935330292802 #
coedge $-1 $330 $329 $340 $380 reversed $160 $-1 #
edge $-1 $335 -28.126890435595712 $381 28.126890435595712 $330 $396 forward 7 unknown #
straight-curve $-1 -56.227510115562296 28.126890435595712 11.406935330292802 0 0 -1 I I #
point $-1 -56.227510115562296 28.126890435595712 9.9069353302928018 #
point $-1 -56.227510115562296 28.126890435595712 12.906935330292802 #
edge $-1 $381 -1.5 $344 1.5 $375 $397 forward 7 unknown #
vertex $-1 $376 $398 #
straight-curve $-1 0 -28.126890435595712 12.906935330292802 1 0 0 I I #
straight-curve $-1 -56.227510115562296 0 9.9069353302928018 0 1 0 I I #
point $-1 -56.227510115562296 -28.126890435595712 9.9069353302928018 #
straight-curve $-1 23.440185644414601 28.126890435595712 52.586657787963141 0 0 -1 I I #
point $-1 23.440185644414601 28.126890435595712 12.906935330292802 #
straight-curve $-1 8.9590565580148152 28.126890435595712 8.0496306110940026 -1 0 0 I I #
point $-1 23.440185644414601 28.126890435595712 8.0496306110940026 #
point $-1 17.91811311602963 24.59360534830682 9.2096743365489342 #
straight-curve $-1 -21.31118772744373 -28.126890435595712 25.142540718922742 0 0 -1 I I #
point $-1 -21.31118772744373 -28.126890435595712 12.906935330292802 #
straight-curve $-1 -8.3320203473054431 -28.126890435595712 5.3143163030047518 1 0 0 I I #
point $-1 -21.31118772744373 -28.126890435595712 5.3143163030047518 #
point $-1 -18.655675137253535 -21.852046433218046 6.6719816362035038 #
point $-1 -14.672406251968241 -21.852046433218046 6.6719816362035038 #
straight-curve $-1 -56.227510115562296 0 12.906935330292802 0 -1 0 I I #
straight-curve $-1 -56.227510115562296 -28.126890435595712 11.406935330292802 0 0 -1 I I #
point $-1 -56.227510115562296 -28.126890435595712 12.906935330292802 #
End-of-ACIS-data 