500 0 11 0           
7 Unknown 11 ACIS 5.0 NT 24 Thu Mar 25 15:43:53 1999 
-1 9.9999999999999995e-007 1e-010 
body $-1 $11 $-1 $12 #
body $-1 $13 $-1 $14 #
body $-1 $15 $-1 $16 #
body $-1 $17 $-1 $18 #
body $-1 $19 $-1 $20 #
body $-1 $21 $-1 $22 #
body $-1 $23 $-1 $24 #
body $-1 $25 $-1 $26 #
body $-1 $27 $-1 $28 #
body $-1 $29 $-1 $30 #
body $-1 $31 $-1 $32 #
lump $-1 $-1 $33 $0 #
transform $-1 1 0 0 0 1 0 0 0 1 42.037415692617571 18.202058590864532 7.7658302223098552 1 rotate no_reflect no_shear #
lump $-1 $-1 $34 $1 #
transform $-1 1 0 0 0 1 0 0 0 1 42.037415692617571 18.202058590864532 7.7658302223098552 1 rotate no_reflect no_shear #
lump $-1 $-1 $35 $2 #
transform $-1 1 0 0 0 1 0 0 0 1 42.037415692617571 18.202058590864532 7.7658302223098552 1 rotate no_reflect no_shear #
lump $-1 $-1 $36 $3 #
transform $-1 1 0 0 0 1 0 0 0 1 42.037415692617571 18.202058590864532 7.7658302223098552 1 rotate no_reflect no_shear #
lump $-1 $-1 $37 $4 #
transform $-1 1 0 0 0 1 0 0 0 1 42.037415692617571 18.202058590864532 7.7658302223098552 1 rotate no_reflect no_shear #
lump $-1 $-1 $38 $5 #
transform $-1 1 0 0 0 1 0 0 0 1 42.037415692617571 18.202058590864532 7.7658302223098552 1 rotate no_reflect no_shear #
lump $-1 $-1 $39 $6 #
transform $-1 1 0 0 0 1 0 0 0 1 42.037415692617571 18.202058590864532 7.7658302223098552 1 rotate no_reflect no_shear #
lump $-1 $-1 $40 $7 #
transform $-1 1 0 0 0 1 0 0 0 1 42.037415692617571 18.202058590864532 7.7658302223098552 1 rotate no_reflect no_shear #
lump $-1 $-1 $41 $8 #
transform $-1 1 0 0 0 1 0 0 0 1 42.037415692617571 18.202058590864532 7.7658302223098552 1 rotate no_reflect no_shear #
lump $-1 $-1 $42 $9 #
transform $-1 1 0 0 0 1 0 0 0 1 42.037415692617571 18.202058590864532 7.7658302223098552 1 rotate no_reflect no_shear #
lump $-1 $-1 $43 $10 #
transform $-1 1 0 0 0 1 0 0 0 1 42.037415692617571 18.202058590864532 7.7658302223098552 1 rotate no_reflect no_shear #
shell $-1 $-1 $-1 $44 $-1 $11 #
shell $-1 $-1 $-1 $45 $-1 $13 #
shell $-1 $-1 $-1 $46 $-1 $15 #
shell $-1 $-1 $-1 $47 $-1 $17 #
shell $-1 $-1 $-1 $48 $-1 $19 #
shell $-1 $-1 $-1 $49 $-1 $21 #
shell $-1 $-1 $-1 $50 $-1 $23 #
shell $-1 $-1 $-1 $51 $-1 $25 #
shell $-1 $-1 $-1 $52 $-1 $27 #
shell $-1 $-1 $-1 $53 $-1 $29 #
shell $-1 $-1 $-1 $54 $-1 $31 #
face $-1 $55 $56 $33 $-1 $57 forward single #
face $-1 $58 $59 $34 $-1 $60 forward single #
face $-1 $61 $62 $35 $-1 $63 reversed single #
face $-1 $64 $65 $36 $-1 $66 forward single #
face $-1 $67 $68 $37 $-1 $69 forward single #
face $-1 $70 $71 $38 $-1 $72 reversed single #
face $-1 $73 $74 $39 $-1 $75 forward single #
face $-1 $76 $77 $40 $-1 $78 forward single #
face $-1 $79 $80 $41 $-1 $81 reversed single #
face $-1 $82 $83 $42 $-1 $84 forward single #
face $-1 $85 $86 $43 $-1 $87 forward single #
face $-1 $88 $89 $33 $-1 $90 reversed single #
loop $-1 $-1 $91 $44 #
plane-surface $-1 0 0 7.7658302223098552 0 0 1 1 0 0 forward_v I I I I #
face $-1 $92 $93 $34 $-1 $94 reversed single #
loop $-1 $-1 $95 $45 #
plane-surface $-1 0 -13.559638790124868 0.26794506294923615 0 0 1 1 0 0 forward_v I I I I #
face $-1 $96 $97 $35 $-1 $98 reversed single #
loop $-1 $-1 $99 $46 #
plane-surface $-1 -106.4424737781399 -8.917218989385205 57.695863464811879 0 1 0 -0.7660444514056185 0 0.64278759981090561 forward_v I I I I #
face $-1 $100 $101 $36 $-1 $102 forward single #
loop $-1 $103 $104 $47 #
cone-surface $-1 -39.929109924238226 -7.0406925994529139 5.3883235083444729 0.7660444514056185 0 -0.64278759981090561 0.3213937999054528 0 0.38302222570280925 1 I I 0 1 0.5 forward I I I I #
face $-1 $105 $106 $37 $-1 $107 forward single #
loop $-1 $108 $109 $48 #
cone-surface $-1 -39.929109924238226 -4.2259030145544791 5.3883235083444729 0.7660444514056185 0 -0.64278759981090561 0.3213937999054528 0 0.38302222570280925 1 I I 0 1 0.5 forward I I I I #
face $-1 $110 $111 $38 $-1 $112 reversed single #
loop $-1 $-1 $113 $49 #
plane-surface $-1 -106.4424737781399 11.634216226101518 57.695863464811879 0 1 0 -0.7660444514056185 0 0.64278759981090561 forward_v I I I I #
face $-1 $114 $115 $39 $-1 $116 forward single #
loop $-1 $117 $118 $50 #
cone-surface $-1 -39.929109924238226 13.510742616033809 5.3883235083444729 0.7660444514056185 0 -0.64278759981090561 0.3213937999054528 0 0.38302222570280925 1 I I 0 1 0.5 forward I I I I #
face $-1 $119 $120 $40 $-1 $121 forward single #
loop $-1 $122 $123 $51 #
cone-surface $-1 -39.929109924238226 16.325532200932244 5.3883235083444729 0.7660444514056185 0 -0.64278759981090561 0.3213937999054528 0 0.38302222570280925 1 I I 0 1 0.5 forward I I I I #
face $-1 $124 $125 $41 $-1 $126 reversed single #
loop $-1 $-1 $127 $52 #
plane-surface $-1 -22.367641138848526 14.681784470753875 54.171852982155201 0.64278761758704617 0 0.76604443648966558 0.76604443648966558 0 -0.64278761758704617 forward_v I I I I #
face $-1 $128 $129 $42 $-1 $130 forward single #
loop $-1 $131 $132 $53 #
cone-surface $-1 36.869216080326886 13.173095562135018 3.2112757969789647 -0.64278761758704617 0 -0.76604443648966558 0.76604443648966558 0 -0.64278761758704617 1 I I 0 1 1 forward I I I I #
face $-1 $133 $134 $43 $-1 $135 forward single #
loop $-1 $136 $137 $54 #
cone-surface $-1 36.869216080326886 16.190473379372726 3.2112757969789647 -0.64278761758704617 0 -0.76604443648966558 0.76604443648966558 0 -0.64278761758704617 1 I I 0 1 1 forward I I I I #
face $-1 $138 $139 $33 $-1 $140 reversed single #
loop $-1 $-1 $141 $55 #
plane-surface $-1 0 0 -7.7658302223098552 0 0 1 1 0 0 forward_v I I I I #
coedge $-1 $142 $143 $144 $145 forward $56 $-1 #
face $-1 $146 $147 $34 $-1 $148 reversed single #
loop $-1 $-1 $149 $58 #
plane-surface $-1 0 -13.559638790124868 -2.7320549370507639 0 0 1 1 0 0 forward_v I I I I #
coedge $-1 $150 $151 $152 $153 reversed $59 $-1 #
face $-1 $154 $155 $35 $-1 $156 reversed single #
loop $-1 $-1 $157 $61 #
plane-surface $-1 -42.037415692617571 -5.6332978070036965 3.6536043941899834 -0.7660444514056185 0 0.64278759981090561 0.64278759981090561 0 0.7660444514056185 forward_v I I I I #
coedge $-1 $158 $159 $160 $161 reversed $62 $-1 #
face $-1 $-1 $162 $36 $-1 $163 forward single #
loop $-1 $164 $165 $64 #
cone-surface $-1 -39.354576585684015 -7.0406925994529139 4.9062328084862941 0.7660444514056185 0 -0.64278759981090561 0.1606968999527264 0 0.19151111285140462 1 I I -0.70710678118654746 0.70710678118654746 0.25 forward I I I I #
loop $-1 $-1 $166 $47 #
coedge $-1 $104 $104 $167 $168 reversed $65 $-1 #
face $-1 $-1 $169 $37 $-1 $170 forward single #
loop $-1 $171 $172 $67 #
cone-surface $-1 -39.354576585684015 -4.2259030145544791 4.9062328084862941 0.7660444514056185 0 -0.64278759981090561 0.1606968999527264 0 0.19151111285140462 1 I I -0.70710678118654746 0.70710678118654746 0.25 forward I I I I #
loop $-1 $-1 $173 $48 #
coedge $-1 $109 $109 $174 $175 reversed $68 $-1 #
face $-1 $176 $177 $38 $-1 $178 forward single #
loop $-1 $-1 $179 $70 #
plane-surface $-1 -42.037415692617571 14.918137408483027 3.6536043941899834 -0.7660444514056185 0 0.64278759981090561 0.64278759981090561 0 0.7660444514056185 forward_v I I I I #
coedge $-1 $180 $181 $182 $183 reversed $71 $-1 #
face $-1 $-1 $184 $39 $-1 $185 forward single #
loop $-1 $186 $187 $73 #
cone-surface $-1 -39.354576585684015 13.510742616033809 4.9062328084862941 0.7660444514056185 0 -0.64278759981090561 0.1606968999527264 0 0.19151111285140462 1 I I -0.70710678118654746 0.70710678118654746 0.25 forward I I I I #
loop $-1 $-1 $188 $50 #
coedge $-1 $118 $118 $189 $190 reversed $74 $-1 #
face $-1 $-1 $191 $40 $-1 $192 forward single #
loop $-1 $193 $194 $76 #
cone-surface $-1 -39.354576585684015 16.325532200932244 4.9062328084862941 0.7660444514056185 0 -0.64278759981090561 0.1606968999527264 0 0.19151111285140462 1 I I -0.70710678118654746 0.70710678118654746 0.25 forward I I I I #
loop $-1 $-1 $195 $51 #
coedge $-1 $123 $123 $196 $197 reversed $77 $-1 #
face $-1 $198 $199 $41 $-1 $200 reversed single #
loop $-1 $-1 $201 $79 #
plane-surface $-1 31.674619426299387 11.161510350643216 118.57690981362131 0 1 0 0.64278761758704617 0 0.76604443648966558 forward_v I I I I #
coedge $-1 $202 $203 $204 $205 reversed $80 $-1 #
face $-1 $-1 $206 $42 $-1 $207 forward single #
loop $-1 $208 $209 $82 #
cone-surface $-1 35.929879483124267 13.173095562135018 2.0918180560545245 -0.64278761758704617 0 -0.76604443648966558 0.38302221824483279 0 -0.32139380879352308 1 I I -0.70710678118654746 0.70710678118654746 0.5 forward I I I I #
loop $-1 $-1 $210 $53 #
coedge $-1 $132 $132 $211 $212 reversed $83 $-1 #
face $-1 $-1 $213 $43 $-1 $214 forward single #
loop $-1 $215 $216 $85 #
cone-surface $-1 35.929879483124267 16.190473379372726 2.0918180560545245 -0.64278761758704617 0 -0.76604443648966558 0.38302221824483279 0 -0.32139380879352308 1 I I -0.70710678118654746 0.70710678118654746 0.5 forward I I I I #
loop $-1 $-1 $217 $54 #
coedge $-1 $137 $137 $218 $219 reversed $86 $-1 #
face $-1 $220 $221 $33 $-1 $222 reversed single #
loop $-1 $-1 $223 $88 #
plane-surface $-1 0 -18.202058590864532 0 0 1 0 0 0 1 forward_v I I I I #
coedge $-1 $224 $225 $226 $227 forward $89 $-1 #
coedge $-1 $228 $91 $229 $230 forward $56 $-1 #
coedge $-1 $91 $228 $231 $232 forward $56 $-1 #
coedge $-1 $233 $234 $91 $145 reversed $235 $-1 #
edge $-1 $236 -18.202058590864532 $237 18.202058590864532 $144 $238 forward 7 unknown #
face $-1 $239 $240 $34 $-1 $241 reversed single #
loop $-1 $-1 $242 $92 #
plane-surface $-1 0 -8.917218989385205 -1.2320549370507639 0 -1 0 0 0 -1 forward_v I I I I #
coedge $-1 $243 $244 $245 $246 reversed $93 $-1 #
coedge $-1 $247 $95 $248 $249 forward $59 $-1 #
coedge $-1 $95 $247 $250 $251 reversed $59 $-1 #
coedge $-1 $252 $253 $95 $153 forward $254 $-1 #
edge $-1 $255 2.1373995943227708 $256 11.422239195802097 $152 $257 forward 7 unknown #
face $-1 $258 $259 $35 $-1 $260 reversed single #
loop $-1 $-1 $261 $96 #
plane-surface $-1 -106.4424737781399 -2.349376624622189 57.695863464811879 0 -1 0 0.7660444514056185 0 -0.64278759981090561 forward_v I I I I #
coedge $-1 $262 $263 $264 $265 reversed $97 $-1 #
coedge $-1 $159 $99 $266 $267 reversed $62 $-1 #
coedge $-1 $99 $158 $262 $268 reversed $62 $-1 #
coedge $-1 $264 $269 $99 $161 forward $270 $-1 #
edge $-1 $271 11.183821196452378 $272 14.634388281805464 $160 $273 forward 7 unknown #
loop $-1 $-1 $167 $100 #
plane-surface $-1 -42.037415692617571 -5.6332978070036965 3.6536043941899834 -0.7660444514056185 0 0.64278759981090561 0.64278759981090561 0 0.7660444514056185 forward_v I I I I #
loop $-1 $-1 $274 $64 #
coedge $-1 $165 $165 $166 $275 reversed $101 $-1 #
coedge $-1 $166 $166 $165 $275 forward $103 $-1 #
coedge $-1 $167 $167 $104 $168 forward $162 $-1 #
edge $-1 $276 0 $276 6.2831853071796004 $167 $277 forward 7 unknown #
loop $-1 $-1 $174 $105 #
plane-surface $-1 -42.037415692617571 -5.6332978070036965 3.6536043941899834 -0.7660444514056185 0 0.64278759981090561 0.64278759981090561 0 0.7660444514056185 forward_v I I I I #
loop $-1 $-1 $278 $67 #
coedge $-1 $172 $172 $173 $279 reversed $106 $-1 #
coedge $-1 $173 $173 $172 $279 forward $108 $-1 #
coedge $-1 $174 $174 $109 $175 forward $169 $-1 #
edge $-1 $280 0 $280 6.2831853071796004 $174 $281 forward 7 unknown #
face $-1 $282 $283 $38 $-1 $284 reversed single #
loop $-1 $-1 $182 $110 #
plane-surface $-1 0 0 7.7658302223098552 0 0 1 1 0 0 forward_v I I I I #
coedge $-1 $285 $286 $287 $288 reversed $111 $-1 #
coedge $-1 $181 $113 $289 $290 reversed $71 $-1 #
coedge $-1 $113 $180 $285 $291 reversed $71 $-1 #
coedge $-1 $287 $292 $113 $183 forward $177 $-1 #
edge $-1 $293 11.183821196452378 $294 14.634388281805464 $182 $295 forward 7 unknown #
loop $-1 $-1 $189 $114 #
plane-surface $-1 -42.037415692617571 14.918137408483027 3.6536043941899834 -0.7660444514056185 0 0.64278759981090561 0.64278759981090561 0 0.7660444514056185 forward_v I I I I #
loop $-1 $-1 $296 $73 #
coedge $-1 $187 $187 $188 $297 reversed $115 $-1 #
coedge $-1 $188 $188 $187 $297 forward $117 $-1 #
coedge $-1 $189 $189 $118 $190 forward $184 $-1 #
edge $-1 $298 0 $298 6.2831853071796004 $189 $299 forward 7 unknown #
loop $-1 $-1 $196 $119 #
plane-surface $-1 -42.037415692617571 14.918137408483027 3.6536043941899834 -0.7660444514056185 0 0.64278759981090561 0.64278759981090561 0 0.7660444514056185 forward_v I I I I #
loop $-1 $-1 $300 $76 #
coedge $-1 $194 $194 $195 $301 reversed $120 $-1 #
coedge $-1 $195 $195 $194 $301 forward $122 $-1 #
coedge $-1 $196 $196 $123 $197 forward $191 $-1 #
edge $-1 $302 0 $302 6.2831853071796004 $196 $303 forward 7 unknown #
face $-1 $304 $305 $41 $-1 $306 forward single #
loop $-1 $-1 $307 $124 #
plane-surface $-1 42.037415692617571 0 0 -1 0 0 0 0 1 forward_v I I I I #
coedge $-1 $308 $309 $310 $311 reversed $125 $-1 #
coedge $-1 $312 $127 $313 $314 reversed $80 $-1 #
coedge $-1 $127 $312 $308 $315 forward $80 $-1 #
coedge $-1 $310 $316 $127 $205 forward $305 $-1 #
edge $-1 $317 -10.861166355487597 $318 -3.8206181152662779 $204 $319 forward 7 unknown #
loop $-1 $-1 $211 $128 #
plane-surface $-1 -22.367641138848526 14.681784470753875 54.171852982155201 0.64278761758704617 0 0.76604443648966558 0.76604443648966558 0 -0.64278761758704617 forward_v I I I I #
loop $-1 $-1 $320 $82 #
coedge $-1 $209 $209 $210 $321 reversed $129 $-1 #
coedge $-1 $210 $210 $209 $321 forward $131 $-1 #
coedge $-1 $211 $211 $132 $212 forward $206 $-1 #
edge $-1 $322 0 $322 6.2831853071796004 $211 $323 forward 7 unknown #
loop $-1 $-1 $218 $133 #
plane-surface $-1 -22.367641138848526 14.681784470753875 54.171852982155201 0.64278761758704617 0 0.76604443648966558 0.76604443648966558 0 -0.64278761758704617 forward_v I I I I #
loop $-1 $-1 $324 $85 #
coedge $-1 $216 $216 $217 $325 reversed $134 $-1 #
coedge $-1 $217 $217 $216 $325 forward $136 $-1 #
coedge $-1 $218 $218 $137 $219 forward $213 $-1 #
edge $-1 $326 0 $326 6.2831853071796004 $218 $327 forward 7 unknown #
face $-1 $328 $329 $33 $-1 $330 reversed single #
loop $-1 $-1 $331 $138 #
plane-surface $-1 -42.037415692617571 0 0 1 0 0 0 0 -1 forward_v I I I I #
coedge $-1 $332 $231 $333 $334 forward $139 $-1 #
coedge $-1 $335 $141 $332 $336 forward $89 $-1 #
coedge $-1 $141 $335 $337 $338 forward $89 $-1 #
coedge $-1 $234 $233 $141 $227 reversed $235 $-1 #
edge $-1 $339 -18.202058590864532 $340 18.202058590864532 $226 $341 forward 7 unknown #
coedge $-1 $143 $142 $342 $343 forward $56 $-1 #
coedge $-1 $344 $345 $142 $230 reversed $329 $-1 #
edge $-1 $237 -42.037415692617571 $346 42.037415692617571 $229 $347 forward 7 unknown #
coedge $-1 $223 $348 $143 $232 reversed $139 $-1 #
edge $-1 $349 -42.037415692617571 $236 42.037415692617571 $231 $350 forward 7 unknown #
coedge $-1 $226 $144 $348 $351 forward $235 $-1 #
coedge $-1 $144 $226 $344 $352 reversed $235 $-1 #
loop $-1 $-1 $233 $328 #
vertex $-1 $145 $353 #
vertex $-1 $145 $354 #
straight-curve $-1 42.037415692617571 0 7.7658302223098552 0 1 0 I I #
face $-1 $355 $356 $34 $-1 $357 reversed single #
loop $-1 $-1 $358 $146 #
plane-surface $-1 -42.037415692617571 0 0 1 0 0 0 0 -1 forward_v I I I I #
coedge $-1 $359 $248 $253 $360 reversed $147 $-1 #
coedge $-1 $361 $149 $362 $363 reversed $93 $-1 #
coedge $-1 $149 $361 $359 $364 forward $93 $-1 #
coedge $-1 $253 $252 $149 $246 forward $254 $-1 #
edge $-1 $365 -11.422239195802097 $366 -2.1373995943227708 $245 $367 forward 7 unknown #
coedge $-1 $151 $150 $358 $368 reversed $59 $-1 #
coedge $-1 $242 $369 $150 $249 reversed $147 $-1 #
edge $-1 $255 -42.037415692617571 $370 42.037415692617571 $248 $371 forward 7 unknown #
coedge $-1 $372 $373 $151 $251 forward $356 $-1 #
edge $-1 $256 -42.037415692617571 $374 42.037415692617571 $250 $375 forward 7 unknown #
coedge $-1 $245 $152 $373 $376 forward $254 $-1 #
coedge $-1 $152 $245 $242 $360 forward $254 $-1 #
loop $-1 $-1 $152 $355 #
vertex $-1 $153 $377 #
vertex $-1 $376 $378 #
straight-curve $-1 42.037415692617571 -6.7798193950624341 0.26794506294923615 0 -1 0 I I #
face $-1 $-1 $270 $35 $-1 $379 forward single #
loop $-1 $-1 $380 $154 #
plane-surface $-1 -42.037415692617571 0 0 1 0 0 0 0 -1 forward_v I I I I #
coedge $-1 $381 $382 $383 $384 reversed $155 $-1 #
coedge $-1 $385 $157 $159 $268 forward $97 $-1 #
coedge $-1 $157 $385 $381 $386 forward $97 $-1 #
coedge $-1 $383 $160 $157 $265 forward $270 $-1 #
edge $-1 $272 -6.1005700858833567 $387 0.46727227887965928 $264 $388 forward 7 unknown #
coedge $-1 $389 $390 $158 $267 forward $259 $-1 #
edge $-1 $391 -25.194327338215956 $271 -21.082101510096084 $266 $392 forward 7 unknown #
edge $-1 $272 -5.3681295133387268 $391 0 $159 $393 forward 7 unknown #
coedge $-1 $160 $383 $389 $394 forward $270 $-1 #
loop $-1 $-1 $383 $258 #
vertex $-1 $267 $395 #
vertex $-1 $161 $396 #
straight-curve $-1 -53.221236889069949 -8.917218989385205 7.7658302223098552 1 0 0 I I #
coedge $-1 $274 $274 $-1 $397 reversed $164 $-1 #
edge $-1 $398 0 $398 6.2831853071796004 $165 $399 forward 7 unknown #
vertex $-1 $168 $400 #
ellipse-curve $-1 -40.312132149941029 -7.0406925994529139 5.7097173082499211 -0.7660444514056185 0 0.64278759981090561 0.3213937999054528 0 0.38302222570280925 1 I I #
coedge $-1 $278 $278 $-1 $401 reversed $171 $-1 #
edge $-1 $402 0 $402 6.2831853071796004 $172 $403 forward 7 unknown #
vertex $-1 $175 $404 #
ellipse-curve $-1 -40.312132149941029 -4.2259030145544791 5.7097173082499211 -0.7660444514056185 0 0.64278759981090561 0.3213937999054528 0 0.38302222570280925 1 I I #
face $-1 $-1 $405 $38 $-1 $406 reversed single #
loop $-1 $-1 $407 $176 #
plane-surface $-1 0 18.202058590864532 0 0 -1 0 0 0 -1 forward_v I I I I #
coedge $-1 $408 $179 $181 $291 forward $111 $-1 #
coedge $-1 $179 $408 $407 $409 reversed $111 $-1 #
coedge $-1 $410 $182 $179 $288 forward $177 $-1 #
edge $-1 $294 4.1751475218600049 $411 10.742989886623022 $287 $412 forward 7 unknown #
coedge $-1 $413 $414 $180 $290 forward $405 $-1 #
edge $-1 $415 -25.194327338215956 $293 -21.082101510096084 $289 $416 forward 7 unknown #
edge $-1 $294 -5.3681295133387268 $415 0 $181 $417 forward 7 unknown #
coedge $-1 $182 $410 $413 $418 forward $177 $-1 #
vertex $-1 $290 $419 #
vertex $-1 $183 $420 #
straight-curve $-1 -53.221236889069949 11.634216226101518 7.7658302223098552 1 0 0 I I #
coedge $-1 $296 $296 $-1 $421 reversed $186 $-1 #
edge $-1 $422 0 $422 6.2831853071796004 $187 $423 forward 7 unknown #
vertex $-1 $190 $424 #
ellipse-curve $-1 -40.312132149941029 13.510742616033809 5.7097173082499211 -0.7660444514056185 0 0.64278759981090561 0.3213937999054528 0 0.38302222570280925 1 I I #
coedge $-1 $300 $300 $-1 $425 reversed $193 $-1 #
edge $-1 $426 0 $426 6.2831853071796004 $194 $427 forward 7 unknown #
vertex $-1 $197 $428 #
ellipse-curve $-1 -40.312132149941029 16.325532200932244 5.7097173082499211 -0.7660444514056185 0 0.64278759981090561 0.3213937999054528 0 0.38302222570280925 1 I I #
face $-1 $-1 $429 $41 $-1 $430 reversed single #
loop $-1 $-1 $310 $198 #
plane-surface $-1 0 0 7.7658302223098552 0 0 1 1 0 0 forward_v I I I I #
coedge $-1 $431 $432 $309 $433 forward $199 $-1 #
coedge $-1 $309 $201 $203 $315 reversed $125 $-1 #
coedge $-1 $201 $308 $307 $433 reversed $125 $-1 #
coedge $-1 $434 $204 $201 $311 forward $305 $-1 #
edge $-1 $318 17.099592331704713 $435 26.200105979467878 $310 $436 forward 7 unknown #
coedge $-1 $203 $202 $431 $437 reversed $80 $-1 #
coedge $-1 $438 $439 $202 $314 forward $429 $-1 #
edge $-1 $440 -58.097029699991353 $317 -46.217152744725539 $313 $441 forward 7 unknown #
edge $-1 $442 -84.074831385235129 $318 -72.194954429969314 $308 $443 forward 7 unknown #
coedge $-1 $204 $434 $438 $444 forward $305 $-1 #
vertex $-1 $314 $445 #
vertex $-1 $205 $446 #
straight-curve $-1 32.936902044854413 7.3408922353769377 7.7658302223098588 0 -1 0 I I #
coedge $-1 $320 $320 $-1 $447 reversed $208 $-1 #
edge $-1 $448 0 $448 6.2831853071796004 $209 $449 forward 7 unknown #
vertex $-1 $212 $450 #
ellipse-curve $-1 37.487158868735982 13.173095562135018 3.9477113196585787 0.64278761758704617 0 0.76604443648966558 0.76604443648966558 0 -0.64278761758704617 1 I I #
coedge $-1 $324 $324 $-1 $451 reversed $215 $-1 #
edge $-1 $452 0 $452 6.2831853071796004 $216 $453 forward 7 unknown #
vertex $-1 $219 $454 #
ellipse-curve $-1 37.487158868735982 16.190473379372726 3.9477113196585787 0.64278761758704617 0 0.76604443648966558 0.76604443648966558 0 -0.64278761758704617 1 I I #
face $-1 $-1 $235 $33 $-1 $455 reversed single #
loop $-1 $-1 $344 $220 #
plane-surface $-1 0 18.202058590864532 0 0 -1 0 0 0 -1 forward_v I I I I #
coedge $-1 $456 $342 $345 $457 forward $221 $-1 #
coedge $-1 $348 $223 $224 $336 reversed $139 $-1 #
coedge $-1 $342 $456 $223 $334 reversed $221 $-1 #
edge $-1 $349 -7.7658302223098552 $458 7.7658302223098552 $333 $459 forward 7 unknown #
coedge $-1 $225 $224 $456 $460 forward $89 $-1 #
edge $-1 $340 -42.037415692617571 $458 42.037415692617571 $332 $461 forward 7 unknown #
coedge $-1 $345 $344 $225 $338 reversed $329 $-1 #
edge $-1 $462 -42.037415692617571 $339 42.037415692617571 $337 $463 forward 7 unknown #
vertex $-1 $227 $464 #
vertex $-1 $351 $465 #
straight-curve $-1 42.037415692617571 0 -7.7658302223098552 0 -1 0 I I #
coedge $-1 $331 $333 $228 $343 reversed $221 $-1 #
edge $-1 $346 -18.202058590864532 $349 18.202058590864532 $342 $466 forward 7 unknown #
coedge $-1 $337 $229 $234 $352 forward $329 $-1 #
coedge $-1 $229 $337 $331 $457 reversed $329 $-1 #
vertex $-1 $230 $467 #
straight-curve $-1 0 18.202058590864532 7.7658302223098552 -1 0 0 I I #
coedge $-1 $231 $332 $233 $351 reversed $139 $-1 #
vertex $-1 $343 $468 #
straight-curve $-1 0 -18.202058590864532 7.7658302223098552 1 0 0 I I #
edge $-1 $236 -7.7658302223098552 $340 7.7658302223098552 $233 $469 forward 7 unknown #
edge $-1 $237 -7.7658302223098552 $339 7.7658302223098552 $234 $470 forward 7 unknown #
point $-1 42.037415692617571 -18.202058590864532 7.7658302223098552 #
point $-1 42.037415692617571 18.202058590864532 7.7658302223098552 #
face $-1 $-1 $254 $34 $-1 $471 reversed single #
loop $-1 $-1 $250 $239 #
plane-surface $-1 0 -18.202058590864532 0 0 1 0 0 0 1 forward_v I I I I #
coedge $-1 $472 $473 $247 $368 forward $240 $-1 #
coedge $-1 $369 $242 $244 $364 reversed $147 $-1 #
edge $-1 $366 -2.1160274685253819 $255 0.88397253147461807 $253 $474 forward 7 unknown #
coedge $-1 $244 $243 $475 $476 reversed $93 $-1 #
coedge $-1 $373 $372 $243 $363 forward $356 $-1 #
edge $-1 $477 -42.037415692617571 $365 42.037415692617571 $362 $478 forward 7 unknown #
edge $-1 $479 -42.037415692617571 $366 42.037415692617571 $359 $480 forward 7 unknown #
vertex $-1 $363 $481 #
vertex $-1 $246 $482 #
straight-curve $-1 42.037415692617571 -6.7798193950624341 -2.7320549370507639 0 1 0 I I #
edge $-1 $374 -11.422239195802097 $370 -2.1373995943227708 $358 $483 forward 7 unknown #
coedge $-1 $248 $359 $472 $484 reversed $147 $-1 #
vertex $-1 $368 $485 #
straight-curve $-1 0 -8.917218989385205 0.26794506294923615 -1 0 0 I I #
coedge $-1 $362 $250 $473 $486 forward $356 $-1 #
coedge $-1 $250 $362 $252 $376 reversed $356 $-1 #
vertex $-1 $486 $487 #
straight-curve $-1 0 -18.202058590864532 0.26794506294923615 -1 0 0 I I #
edge $-1 $256 -0.26794506294923615 $365 2.7320549370507639 $252 $488 forward 7 unknown #
point $-1 42.037415692617571 -8.917218989385205 0.26794506294923615 #
point $-1 42.037415692617571 -18.202058590864532 0.26794506294923615 #
plane-surface $-1 0 0 7.7658302223098552 0 0 1 1 0 0 forward_v I I I I #
coedge $-1 $390 $389 $382 $489 forward $259 $-1 #
coedge $-1 $382 $261 $263 $386 reversed $155 $-1 #
coedge $-1 $261 $381 $380 $489 reversed $155 $-1 #
coedge $-1 $269 $264 $261 $384 forward $270 $-1 #
edge $-1 $387 -14.634388281805464 $490 -11.183821196452378 $383 $491 forward 7 unknown #
coedge $-1 $263 $262 $390 $492 reversed $97 $-1 #
edge $-1 $493 0 $387 5.3681295133387268 $381 $494 forward 7 unknown #
vertex $-1 $265 $495 #
straight-curve $-1 -38.586848607264486 -2.8166489035018483 7.7658302223098552 0 1 0 I I #
coedge $-1 $380 $266 $269 $394 reversed $259 $-1 #
coedge $-1 $266 $380 $385 $492 forward $259 $-1 #
vertex $-1 $267 $496 #
straight-curve $-1 -42.037415692617571 -8.917218989385205 28.847931732405939 0 0 1 I I #
straight-curve $-1 -42.037415692617571 -8.917218989385205 3.6536043941899834 -0.64278759981090561 0 -0.7660444514056185 I I #
edge $-1 $490 2.349376624622189 $271 8.917218989385205 $389 $497 forward 7 unknown #
point $-1 -42.037415692617571 -8.917218989385205 7.7658302223098552 #
point $-1 -38.586848607264486 -8.917218989385205 7.7658302223098552 #
edge $-1 $498 1 $498 0 $274 $-1 forward 7 unknown #
vertex $-1 $275 $499 #
ellipse-curve $-1 -39.546087698535416 -7.0406925994529139 5.0669297084390204 -0.7660444514056185 0 0.64278759981090561 0.3213937999054528 0 0.38302222570280925 1 I I #
point $-1 -39.990738350035585 -7.0406925994529139 6.0927395339527353 #
edge $-1 $500 1 $500 0 $278 $-1 forward 7 unknown #
vertex $-1 $279 $501 #
ellipse-curve $-1 -39.546087698535416 -4.2259030145544791 5.0669297084390204 -0.7660444514056185 0 0.64278759981090561 0.3213937999054528 0 0.38302222570280925 1 I I #
point $-1 -39.990738350035585 -4.2259030145544791 6.0927395339527353 #
loop $-1 $-1 $289 $282 #
plane-surface $-1 -42.037415692617571 0 0 1 0 0 0 0 -1 forward_v I I I I #
coedge $-1 $502 $503 $286 $409 forward $283 $-1 #
coedge $-1 $286 $285 $414 $504 reversed $111 $-1 #
edge $-1 $411 6.7430235674165377 $505 12.111153080755264 $407 $506 forward 7 unknown #
coedge $-1 $292 $287 $503 $507 forward $177 $-1 #
vertex $-1 $507 $508 #
straight-curve $-1 -38.586848607264486 7.4590687042415134 7.7658302223098552 0 1 0 I I #
coedge $-1 $509 $289 $292 $418 reversed $405 $-1 #
coedge $-1 $289 $509 $408 $504 forward $405 $-1 #
vertex $-1 $290 $510 #
straight-curve $-1 -42.037415692617571 11.634216226101518 28.847931732405939 0 0 1 I I #
straight-curve $-1 -42.037415692617571 11.634216226101518 3.6536043941899834 -0.64278759981090561 0 -0.7660444514056185 I I #
edge $-1 $511 -18.202058590864532 $293 -11.634216226101518 $413 $512 forward 7 unknown #
point $-1 -42.037415692617571 11.634216226101518 7.7658302223098552 #
point $-1 -38.586848607264486 11.634216226101518 7.7658302223098552 #
edge $-1 $513 1 $513 0 $296 $-1 forward 7 unknown #
vertex $-1 $297 $514 #
ellipse-curve $-1 -39.546087698535416 13.510742616033809 5.0669297084390204 -0.7660444514056185 0 0.64278759981090561 0.3213937999054528 0 0.38302222570280925 1 I I #
point $-1 -39.990738350035585 13.510742616033809 6.0927395339527353 #
edge $-1 $515 1 $515 0 $300 $-1 forward 7 unknown #
vertex $-1 $301 $516 #
ellipse-curve $-1 -39.546087698535416 16.325532200932244 5.0669297084390204 -0.7660444514056185 0 0.64278759981090561 0.3213937999054528 0 0.38302222570280925 1 I I #
point $-1 -39.990738350035585 16.325532200932244 6.0927395339527353 #
loop $-1 $-1 $313 $304 #
plane-surface $-1 0 18.202058590864532 0 0 -1 0 0 0 -1 forward_v I I I I #
coedge $-1 $517 $307 $312 $437 forward $199 $-1 #
coedge $-1 $307 $517 $434 $518 reversed $199 $-1 #
edge $-1 $435 51.522624684500798 $442 59.158862489803361 $307 $519 forward 7 unknown #
coedge $-1 $316 $310 $432 $518 forward $305 $-1 #
vertex $-1 $518 $520 #
straight-curve $-1 15.837309713149693 11.161510350643216 7.7658302223098588 1 0 0 I I #
edge $-1 $442 3.8206181152662779 $440 10.861166355487597 $431 $521 forward 7 unknown #
coedge $-1 $439 $313 $316 $444 reversed $429 $-1 #
coedge $-1 $313 $438 $517 $522 forward $429 $-1 #
vertex $-1 $314 $523 #
straight-curve $-1 -2.467490685635676 18.202058590864532 37.473643726748605 -0.76604443648966558 0 0.64278761758704617 I I #
vertex $-1 $437 $524 #
straight-curve $-1 -22.367641138848526 11.161510350643216 54.171852982155201 -0.76604443648966558 0 0.64278761758704617 I I #
edge $-1 $525 -42.037415692617571 $317 -32.936902044854406 $438 $526 forward 7 unknown #
point $-1 32.936902044854406 18.202058590864535 7.7658302223098588 #
point $-1 32.936902044854406 11.161510350643216 7.7658302223098588 #
edge $-1 $527 1 $527 0 $320 $-1 forward 7 unknown #
vertex $-1 $321 $528 #
ellipse-curve $-1 36.251273291917791 13.173095562135018 2.4748402742993574 0.64278761758704617 0 0.76604443648966558 0.76604443648966558 0 -0.64278761758704617 1 I I #
point $-1 38.253203305225639 13.173095562135018 3.3049237020715259 #
edge $-1 $529 1 $529 0 $324 $-1 forward 7 unknown #
vertex $-1 $325 $530 #
ellipse-curve $-1 36.251273291917791 16.190473379372726 2.4748402742993574 0.64278761758704617 0 0.76604443648966558 0.76604443648966558 0 -0.64278761758704617 1 I I #
point $-1 38.253203305225639 16.190473379372726 3.3049237020715259 #
plane-surface $-1 42.037415692617571 0 0 -1 0 0 0 0 1 forward_v I I I I #
coedge $-1 $333 $331 $335 $460 reversed $221 $-1 #
edge $-1 $346 -7.7658302223098552 $462 7.7658302223098552 $345 $531 forward 7 unknown #
vertex $-1 $460 $532 #
straight-curve $-1 -42.037415692617571 -18.202058590864532 0 0 0 -1 I I #
edge $-1 $458 -18.202058590864532 $462 18.202058590864532 $456 $533 forward 7 unknown #
straight-curve $-1 0 -18.202058590864532 -7.7658302223098552 -1 0 0 I I #
vertex $-1 $338 $534 #
straight-curve $-1 0 18.202058590864532 -7.7658302223098552 1 0 0 I I #
point $-1 42.037415692617571 18.202058590864532 -7.7658302223098552 #
point $-1 42.037415692617571 -18.202058590864532 -7.7658302223098552 #
straight-curve $-1 -42.037415692617571 0 7.7658302223098552 0 -1 0 I I #
point $-1 -42.037415692617571 18.202058590864532 7.7658302223098552 #
point $-1 -42.037415692617571 -18.202058590864532 7.7658302223098552 #
straight-curve $-1 42.037415692617571 -18.202058590864532 0 0 0 -1 I I #
straight-curve $-1 42.037415692617571 18.202058590864532 0 0 0 -1 I I #
plane-surface $-1 42.037415692617571 0 0 -1 0 0 0 0 1 forward_v I I I I #
coedge $-1 $475 $358 $369 $484 forward $240 $-1 #
coedge $-1 $358 $475 $372 $486 reversed $240 $-1 #
straight-curve $-1 42.037415692617571 -8.917218989385205 -0.61602746852538193 0 0 1 I I #
coedge $-1 $473 $472 $361 $476 forward $240 $-1 #
edge $-1 $479 2.1373995943227708 $477 11.422239195802097 $475 $535 forward 7 unknown #
vertex $-1 $363 $536 #
straight-curve $-1 0 -18.202058590864532 -2.7320549370507639 1 0 0 I I #
vertex $-1 $476 $537 #
straight-curve $-1 0 -8.917218989385205 -2.7320549370507639 1 0 0 I I #
point $-1 42.037415692617571 -18.202058590864532 -2.7320549370507639 #
point $-1 42.037415692617571 -8.917218989385205 -2.7320549370507639 #
straight-curve $-1 -42.037415692617571 -6.7798193950624341 0.26794506294923615 0 1 0 I I #
edge $-1 $370 -0.88397253147461807 $479 2.1160274685253819 $472 $538 forward 7 unknown #
point $-1 -42.037415692617571 -8.917218989385205 0.26794506294923615 #
edge $-1 $374 -0.26794506294923615 $477 2.7320549370507639 $473 $539 forward 7 unknown #
point $-1 -42.037415692617571 -18.202058590864532 0.26794506294923615 #
straight-curve $-1 42.037415692617571 -18.202058590864532 0 0 0 -1 I I #
edge $-1 $490 21.082101510096084 $493 25.194327338215956 $380 $540 forward 7 unknown #
vertex $-1 $394 $541 #
straight-curve $-1 -53.221236889069949 -2.349376624622189 7.7658302223098552 -1 0 0 I I #
edge $-1 $493 -0.46727227887965928 $391 6.1005700858833567 $390 $542 forward 7 unknown #
vertex $-1 $492 $543 #
straight-curve $-1 -42.037415692617571 -2.349376624622189 3.6536043941899834 0.64278759981090561 0 0.7660444514056185 I I #
point $-1 -38.586848607264486 -2.349376624622189 7.7658302223098552 #
point $-1 -42.037415692617571 -8.917218989385205 3.6536043941899834 #
straight-curve $-1 -42.037415692617571 0 7.7658302223098552 0 -1 0 I I #
vertex $-1 $397 $544 #
point $-1 -39.224693898629965 -7.0406925994529139 5.4499519341418292 #
vertex $-1 $401 $545 #
point $-1 -39.224693898629965 -4.2259030145544791 5.4499519341418292 #
coedge $-1 $503 $407 $509 $546 reversed $283 $-1 #
coedge $-1 $407 $502 $410 $507 reversed $283 $-1 #
edge $-1 $505 -10.742989886623022 $415 -4.1751475218600049 $414 $547 forward 7 unknown #
vertex $-1 $409 $548 #
straight-curve $-1 -34.252516672896441 18.202058590864532 12.931286011826614 -0.64278759981090572 0 -0.76604445140561861 I I #
edge $-1 $411 38.586848607264486 $511 42.037415692617571 $503 $549 forward 7 unknown #
point $-1 -38.586848607264486 18.202058590864535 7.7658302223098552 #
coedge $-1 $414 $413 $502 $546 forward $405 $-1 #
point $-1 -42.037415692617571 11.634216226101518 3.6536043941899834 #
vertex $-1 $507 $550 #
straight-curve $-1 -42.037415692617571 0 7.7658302223098552 0 -1 0 I I #
vertex $-1 $421 $551 #
point $-1 -39.224693898629965 13.510742616033809 5.4499519341418292 #
vertex $-1 $425 $552 #
point $-1 -39.224693898629965 16.325532200932244 5.4499519341418292 #
coedge $-1 $432 $431 $439 $522 reversed $199 $-1 #
edge $-1 $435 11.161510350643216 $525 18.202058590864532 $432 $553 forward 7 unknown #
straight-curve $-1 42.037415692617571 11.161510350643216 59.288454906810657 0 0 -1 I I #
point $-1 42.037415692617571 11.161510350643216 7.7658302223098552 #
straight-curve $-1 42.037415692617564 7.3408922353769377 0.12959241700729152 0 1 0 I I #
edge $-1 $525 -7.7658302223098552 $440 -0.12959241700729507 $517 $554 forward 7 unknown #
point $-1 42.037415692617571 18.202058590864535 0.12959241700729507 #
point $-1 42.037415692617571 11.161510350643216 0.12959241700729507 #
vertex $-1 $518 $555 #
straight-curve $-1 0 18.202058590864532 7.7658302223098552 -1 0 0 I I #
vertex $-1 $447 $556 #
point $-1 37.017317728407455 13.173095562135018 1.8320526567123112 #
vertex $-1 $451 $557 #
point $-1 37.017317728407455 16.190473379372726 1.8320526567123112 #
straight-curve $-1 -42.037415692617571 18.202058590864532 0 0 0 -1 I I #
point $-1 -42.037415692617571 -18.202058590864532 -7.7658302223098552 #
straight-curve $-1 -42.037415692617571 0 -7.7658302223098552 0 1 0 I I #
point $-1 -42.037415692617571 18.202058590864532 -7.7658302223098552 #
straight-curve $-1 -42.037415692617571 -6.7798193950624341 -2.7320549370507639 0 -1 0 I I #
point $-1 -42.037415692617571 -18.202058590864532 -2.7320549370507639 #
point $-1 -42.037415692617571 -8.917218989385205 -2.7320549370507639 #
straight-curve $-1 -42.037415692617571 -8.917218989385205 -0.61602746852538193 0 0 -1 I I #
straight-curve $-1 -42.037415692617571 -18.202058590864532 0 0 0 -1 I I #
straight-curve $-1 -42.037415692617571 -2.349376624622189 28.847931732405939 0 0 -1 I I #
point $-1 -42.037415692617571 -2.349376624622189 7.7658302223098552 #
straight-curve $-1 -42.037415692617571 -2.8166489035018483 3.6536043941899812 0 -1 0 I I #
point $-1 -42.037415692617571 -2.349376624622189 3.6536043941899834 #
point $-1 -39.163065472832614 -7.0406925994529139 4.7455359085335678 #
point $-1 -39.163065472832614 -4.2259030145544791 4.7455359085335678 #
edge $-1 $511 -7.7658302223098552 $505 -3.6536043941899834 $502 $558 forward 7 unknown #
straight-curve $-1 -42.037415692617571 7.4590687042415134 3.6536043941899812 0 -1 0 I I #
point $-1 -42.037415692617571 18.202058590864535 3.6536043941899834 #
straight-curve $-1 0 18.202058590864532 7.7658302223098552 -1 0 0 I I #
point $-1 -42.037415692617571 18.202058590864532 7.7658302223098552 #
point $-1 -39.163065472832614 13.510742616033809 4.7455359085335678 #
point $-1 -39.163065472832614 16.325532200932244 4.7455359085335678 #
straight-curve $-1 42.037415692617571 0 7.7658302223098552 0 1 0 I I #
straight-curve $-1 42.037415692617571 18.202058590864532 0 0 0 -1 I I #
point $-1 42.037415692617571 18.202058590864532 7.7658302223098552 #
point $-1 35.608485674330744 13.173095562135018 1.7087958378096917 #
point $-1 35.608485674330744 16.190473379372726 1.7087958378096917 #
straight-curve $-1 -42.037415692617571 18.202058590864532 0 0 0 -1 I I #
End-of-ACIS-data 