500 0 5 0           
7 Unknown 11 ACIS 5.0 NT 24 Fri Mar 26 16:40:37 1999 
-1 9.9999999999999995e-007 1e-010 
body $-1 $5 $-1 $6 #
body $-1 $7 $-1 $8 #
body $-1 $9 $-1 $10 #
body $-1 $11 $-1 $12 #
body $-1 $13 $-1 $14 #
lump $-1 $-1 $15 $0 #
transform $-1 1 0 0 0 1 0 0 0 1 72.825708792382585 30.619824519567093 6.6075538558734994 1 rotate no_reflect no_shear #
lump $-1 $-1 $16 $1 #
transform $-1 1 0 0 0 1 0 0 0 1 72.825708792382585 30.619824519567093 6.6075538558734994 1 rotate no_reflect no_shear #
lump $-1 $-1 $17 $2 #
transform $-1 1 0 0 0 1 0 0 0 1 72.825708792382585 30.619824519567093 6.6075538558734994 1 rotate no_reflect no_shear #
lump $-1 $-1 $18 $3 #
transform $-1 1 0 0 0 1 0 0 0 1 72.825708792382585 30.619824519567093 6.6075538558734994 1 rotate no_reflect no_shear #
lump $-1 $-1 $19 $4 #
transform $-1 1 0 0 0 1 0 0 0 1 72.825708792382585 30.619824519567093 6.6075538558734994 1 rotate no_reflect no_shear #
shell $-1 $-1 $-1 $20 $-1 $5 #
shell $-1 $-1 $-1 $21 $-1 $7 #
shell $-1 $-1 $-1 $22 $-1 $9 #
shell $-1 $-1 $-1 $23 $-1 $11 #
shell $-1 $-1 $-1 $24 $-1 $13 #
face $-1 $25 $26 $15 $-1 $27 forward single #
face $-1 $28 $29 $16 $-1 $30 reversed single #
face $-1 $31 $32 $17 $-1 $33 forward single #
face $-1 $34 $35 $18 $-1 $36 reversed single #
face $-1 $37 $38 $19 $-1 $39 reversed single #
face $-1 $40 $41 $15 $-1 $42 reversed single #
loop $-1 $-1 $43 $20 #
plane-surface $-1 0 0 6.6075538558734994 0 0 1 1 0 0 forward_v I I I I #
face $-1 $44 $45 $16 $-1 $46 forward single #
loop $-1 $-1 $47 $21 #
plane-surface $-1 0 -28.38729325266652 -3.6075538558734994 0 0 1 1 0 0 forward_v I I I I #
face $-1 $48 $49 $17 $-1 $50 forward single #
loop $-1 $-1 $51 $22 #
plane-surface $-1 83.605987274180336 16.423402504559668 207.67087800899037 0 1 0 0.74314483375859142 0 0.66913059716165679 forward_v I I I I #
face $-1 $52 $53 $18 $-1 $54 reversed single #
loop $-1 $55 $56 $23 #
cone-surface $-1 69.617588654271756 20.479523080276078 3.2801594501444749 -0.74314483375859142 0 -0.66913059716165679 0.66913059716165679 0 -0.74314483375859142 1 I I 0 1 1 forward I I I I #
face $-1 $57 $58 $19 $-1 $59 reversed single #
loop $-1 $60 $61 $24 #
cone-surface $-1 69.617588654271756 26.563703943850687 3.2801594501444749 -0.74314483375859142 0 -0.66913059716165679 0.66913059716165679 0 -0.74314483375859142 1 I I 0 1 1 forward I I I I #
face $-1 $62 $63 $15 $-1 $64 reversed single #
loop $-1 $-1 $65 $25 #
plane-surface $-1 0 0 -6.6075538558734994 0 0 1 1 0 0 forward_v I I I I #
coedge $-1 $66 $67 $68 $69 forward $26 $-1 #
face $-1 $70 $71 $16 $-1 $72 reversed single #
loop $-1 $-1 $73 $28 #
plane-surface $-1 0 -26.154761985765948 -5.1075538558734994 0 -1 0 0 0 -1 forward_v I I I I #
coedge $-1 $74 $75 $76 $77 reversed $29 $-1 #
face $-1 $78 $79 $17 $-1 $80 reversed single #
loop $-1 $-1 $81 $31 #
plane-surface $-1 -24.634111233553156 23.521613512063379 110.21105798305462 0.74314483375859142 0 0.66913059716165679 0.66913059716165679 0 -0.74314483375859142 forward_v I I I I #
coedge $-1 $82 $83 $84 $85 reversed $32 $-1 #
face $-1 $86 $87 $18 $-1 $88 forward single #
loop $-1 $89 $90 $34 #
cone-surface $-1 68.125300213338363 20.479523080276078 1.9364969361108049 -0.74314483375859142 0 -0.66913059716165679 0.3345652985808284 0 -0.37157241687929571 1 I I -0.70710678118654746 0.70710678118654746 0.5 forward I I I I #
loop $-1 $-1 $91 $23 #
coedge $-1 $56 $56 $92 $93 reversed $35 $-1 #
face $-1 $94 $95 $19 $-1 $96 reversed single #
loop $-1 $97 $98 $37 #
cone-surface $-1 68.125300213338363 26.563703943850687 1.9364969361108049 -0.74314483375859142 0 -0.66913059716165679 0.3345652985808284 0 -0.37157241687929571 1 I I -0.70710678118654746 0.70710678118654746 0.5 forward I I I I #
loop $-1 $-1 $99 $24 #
coedge $-1 $61 $61 $100 $101 reversed $38 $-1 #
face $-1 $102 $103 $15 $-1 $104 reversed single #
loop $-1 $-1 $105 $40 #
plane-surface $-1 0 -30.619824519567093 0 0 1 0 0 0 1 forward_v I I I I #
coedge $-1 $106 $107 $108 $109 forward $41 $-1 #
coedge $-1 $110 $43 $111 $112 forward $26 $-1 #
coedge $-1 $43 $110 $113 $114 forward $26 $-1 #
coedge $-1 $115 $116 $43 $69 reversed $117 $-1 #
edge $-1 $118 -30.619824519567093 $119 30.619824519567093 $68 $120 forward 7 unknown #
face $-1 $121 $122 $16 $-1 $123 reversed single #
loop $-1 $-1 $124 $44 #
plane-surface $-1 0 -30.619824519567093 0 0 1 0 0 0 1 forward_v I I I I #
coedge $-1 $125 $126 $127 $128 reversed $45 $-1 #
coedge $-1 $129 $47 $124 $130 reversed $29 $-1 #
coedge $-1 $47 $129 $125 $131 reversed $29 $-1 #
coedge $-1 $127 $132 $47 $77 forward $133 $-1 #
edge $-1 $134 -16.426177893233834 $135 -11.961115359432688 $76 $136 forward 7 unknown #
face $-1 $137 $138 $17 $-1 $139 forward single #
loop $-1 $-1 $140 $48 #
plane-surface $-1 72.825708792382585 0 0 -1 0 0 0 0 1 forward_v I I I I #
coedge $-1 $141 $142 $140 $143 reversed $49 $-1 #
coedge $-1 $83 $51 $142 $144 forward $32 $-1 #
coedge $-1 $51 $82 $145 $146 reversed $32 $-1 #
coedge $-1 $147 $140 $51 $85 forward $79 $-1 #
edge $-1 $148 -101.86447952917403 $149 -97.227885148621681 $84 $150 forward 7 unknown #
face $-1 $151 $152 $18 $-1 $153 forward single #
loop $-1 $-1 $154 $52 #
plane-surface $-1 83.605987274180336 16.423402504559668 207.67087800899037 0 1 0 0.74314483375859142 0 0.66913059716165679 forward_v I I I I #
loop $-1 $-1 $155 $34 #
coedge $-1 $90 $90 $91 $156 forward $53 $-1 #
coedge $-1 $91 $91 $90 $156 reversed $55 $-1 #
coedge $-1 $92 $92 $56 $93 forward $152 $-1 #
edge $-1 $157 0 $157 6.2831853071796004 $92 $158 forward 7 unknown #
face $-1 $159 $160 $19 $-1 $161 reversed single #
loop $-1 $162 $163 $57 #
cone-surface $-1 69.617588654271756 20.479523080276078 3.2801594501444749 -0.74314483375859142 0 -0.66913059716165679 0.66913059716165679 0 -0.74314483375859142 1 I I 0 1 1 forward I I I I #
loop $-1 $-1 $164 $37 #
coedge $-1 $98 $98 $99 $165 forward $58 $-1 #
coedge $-1 $99 $99 $98 $165 reversed $60 $-1 #
coedge $-1 $100 $100 $61 $101 forward $166 $-1 #
edge $-1 $167 0 $167 6.2831853071796004 $100 $168 forward 7 unknown #
face $-1 $169 $170 $15 $-1 $171 reversed single #
loop $-1 $-1 $172 $62 #
plane-surface $-1 -72.825708792382585 0 0 1 0 0 0 0 -1 forward_v I I I I #
coedge $-1 $173 $113 $174 $175 forward $63 $-1 #
coedge $-1 $176 $65 $173 $177 forward $41 $-1 #
coedge $-1 $65 $176 $178 $179 forward $41 $-1 #
coedge $-1 $116 $115 $65 $109 reversed $117 $-1 #
edge $-1 $180 -30.619824519567093 $181 30.619824519567093 $108 $182 forward 7 unknown #
coedge $-1 $67 $66 $183 $184 forward $26 $-1 #
coedge $-1 $185 $186 $66 $112 reversed $170 $-1 #
edge $-1 $119 -72.825708792382585 $187 72.825708792382585 $111 $188 forward 7 unknown #
coedge $-1 $105 $189 $67 $114 reversed $63 $-1 #
edge $-1 $190 -72.825708792382585 $118 72.825708792382585 $113 $191 forward 7 unknown #
coedge $-1 $108 $68 $189 $192 forward $117 $-1 #
coedge $-1 $68 $108 $185 $193 reversed $117 $-1 #
loop $-1 $-1 $115 $169 #
vertex $-1 $69 $194 #
vertex $-1 $69 $195 #
straight-curve $-1 72.825708792382585 0 6.6075538558734994 0 1 0 I I #
face $-1 $196 $197 $16 $-1 $198 forward single #
loop $-1 $-1 $199 $70 #
plane-surface $-1 0 0 -6.6075538558734994 0 0 1 1 0 0 forward_v I I I I #
coedge $-1 $200 $201 $74 $130 forward $71 $-1 #
coedge $-1 $202 $73 $75 $131 forward $45 $-1 #
coedge $-1 $73 $202 $199 $203 reversed $45 $-1 #
coedge $-1 $204 $76 $73 $128 forward $133 $-1 #
edge $-1 $135 1.0537769279367497 $205 4.0537769279367497 $127 $206 forward 7 unknown #
coedge $-1 $75 $74 $207 $208 reversed $29 $-1 #
edge $-1 $209 -72.825708792382585 $134 72.825708792382585 $124 $210 forward 7 unknown #
edge $-1 $135 -72.825708792382585 $211 72.825708792382585 $125 $212 forward 7 unknown #
coedge $-1 $76 $213 $200 $214 forward $133 $-1 #
loop $-1 $-1 $127 $215 #
vertex $-1 $130 $216 #
vertex $-1 $77 $217 #
straight-curve $-1 72.825708792382585 -14.19364662633326 -3.6075538558734994 0 1 0 I I #
face $-1 $218 $219 $17 $-1 $220 reversed single #
loop $-1 $-1 $145 $78 #
plane-surface $-1 0 0 6.6075538558734994 0 0 1 1 0 0 forward_v I I I I #
coedge $-1 $84 $221 $81 $143 forward $79 $-1 #
coedge $-1 $222 $81 $223 $224 reversed $49 $-1 #
coedge $-1 $81 $222 $82 $144 reversed $49 $-1 #
edge $-1 $225 -18.859017763535405 $148 -4.6625957485279788 $140 $226 forward 7 unknown #
edge $-1 $148 -145.65141758476511 $227 -139.41226450191056 $82 $228 forward 7 unknown #
coedge $-1 $229 $230 $83 $146 forward $138 $-1 #
edge $-1 $149 -31.022715155292417 $227 -26.847906927178954 $145 $231 forward 7 unknown #
coedge $-1 $232 $84 $230 $233 reversed $79 $-1 #
vertex $-1 $143 $234 #
vertex $-1 $146 $235 #
straight-curve $-1 72.825708792382585 16.423402504559668 103.83543900449519 0 0 1 I I #
face $-1 $236 $237 $18 $-1 $238 reversed single #
loop $-1 $239 $92 $86 #
plane-surface $-1 -24.634111233553156 23.521613512063379 110.21105798305462 0.74314483375859142 0 0.66913059716165679 0.66913059716165679 0 -0.74314483375859142 forward_v I I I I #
coedge $-1 $240 $241 $242 $243 reversed $87 $-1 #
coedge $-1 $155 $155 $-1 $244 forward $89 $-1 #
edge $-1 $245 0 $245 6.2831853071796004 $90 $246 forward 7 unknown #
vertex $-1 $93 $247 #
ellipse-curve $-1 70.738304678325861 20.479523080276078 4.2892566655973168 -0.74314483375859142 0 -0.66913059716165679 0.66913059716165679 0 -0.74314483375859142 1 I I #
face $-1 $248 $249 $19 $-1 $250 forward single #
loop $-1 $251 $252 $94 #
cone-surface $-1 68.125300213338363 20.479523080276078 1.9364969361108049 -0.74314483375859142 0 -0.66913059716165679 0.3345652985808284 0 -0.37157241687929571 1 I I -0.70710678118654746 0.70710678118654746 0.5 forward I I I I #
loop $-1 $-1 $253 $57 #
coedge $-1 $163 $163 $254 $255 reversed $95 $-1 #
coedge $-1 $164 $164 $-1 $256 forward $97 $-1 #
edge $-1 $257 0 $257 6.2831853071796004 $98 $258 forward 7 unknown #
loop $-1 $259 $100 $248 #
vertex $-1 $101 $260 #
ellipse-curve $-1 70.738304678325861 26.563703943850687 4.2892566655973168 -0.74314483375859142 0 -0.66913059716165679 0.66913059716165679 0 -0.74314483375859142 1 I I #
face $-1 $-1 $117 $15 $-1 $261 reversed single #
loop $-1 $-1 $185 $102 #
plane-surface $-1 0 30.619824519567093 0 0 -1 0 0 0 -1 forward_v I I I I #
coedge $-1 $262 $183 $186 $263 forward $103 $-1 #
coedge $-1 $189 $105 $106 $177 reversed $63 $-1 #
coedge $-1 $183 $262 $105 $175 reversed $103 $-1 #
edge $-1 $190 -6.6075538558734994 $264 6.6075538558734994 $174 $265 forward 7 unknown #
coedge $-1 $107 $106 $262 $266 forward $41 $-1 #
edge $-1 $181 -72.825708792382585 $264 72.825708792382585 $173 $267 forward 7 unknown #
coedge $-1 $186 $185 $107 $179 reversed $170 $-1 #
edge $-1 $268 -72.825708792382585 $180 72.825708792382585 $178 $269 forward 7 unknown #
vertex $-1 $109 $270 #
vertex $-1 $192 $271 #
straight-curve $-1 72.825708792382585 0 -6.6075538558734994 0 -1 0 I I #
coedge $-1 $172 $174 $110 $184 reversed $103 $-1 #
edge $-1 $187 -30.619824519567093 $190 30.619824519567093 $183 $272 forward 7 unknown #
coedge $-1 $178 $111 $116 $193 forward $170 $-1 #
coedge $-1 $111 $178 $172 $263 reversed $170 $-1 #
vertex $-1 $112 $273 #
straight-curve $-1 0 30.619824519567093 6.6075538558734994 -1 0 0 I I #
coedge $-1 $113 $173 $115 $192 reversed $63 $-1 #
vertex $-1 $184 $274 #
straight-curve $-1 0 -30.619824519567093 6.6075538558734994 1 0 0 I I #
edge $-1 $118 -6.6075538558734994 $181 6.6075538558734994 $115 $275 forward 7 unknown #
edge $-1 $119 -6.6075538558734994 $180 6.6075538558734994 $116 $276 forward 7 unknown #
point $-1 72.825708792382585 -30.619824519567093 6.6075538558734994 #
point $-1 72.825708792382585 30.619824519567093 6.6075538558734994 #
face $-1 $277 $278 $16 $-1 $279 reversed single #
loop $-1 $-1 $280 $121 #
plane-surface $-1 0 0 6.6075538558734994 0 0 1 1 0 0 forward_v I I I I #
coedge $-1 $281 $282 $126 $203 forward $122 $-1 #
coedge $-1 $283 $124 $132 $214 reversed $71 $-1 #
coedge $-1 $124 $283 $284 $285 forward $71 $-1 #
coedge $-1 $126 $125 $286 $287 reversed $45 $-1 #
edge $-1 $205 -72.825708792382585 $288 72.825708792382585 $199 $289 forward 7 unknown #
coedge $-1 $290 $127 $282 $291 reversed $133 $-1 #
vertex $-1 $203 $292 #
straight-curve $-1 72.825708792382585 -26.154761985765948 -2.5537769279367497 0 0 -1 I I #
coedge $-1 $284 $286 $129 $208 forward $278 $-1 #
edge $-1 $211 11.961115359432688 $209 16.426177893233834 $207 $293 forward 7 unknown #
vertex $-1 $130 $294 #
straight-curve $-1 0 -30.619824519567093 -3.6075538558734994 1 0 0 I I #
vertex $-1 $208 $295 #
straight-curve $-1 0 -26.154761985765948 -3.6075538558734994 -1 0 0 I I #
coedge $-1 $132 $290 $280 $296 reversed $133 $-1 #
edge $-1 $297 -6.6075538558734994 $134 3.6075538558734994 $132 $298 forward 7 unknown #
face $-1 $-1 $133 $16 $-1 $299 reversed single #
point $-1 72.825708792382585 -30.619824519567093 -3.6075538558734994 #
point $-1 72.825708792382585 -26.154761985765948 -3.6075538558734994 #
face $-1 $300 $301 $17 $-1 $302 forward single #
loop $-1 $-1 $303 $137 #
plane-surface $-1 0 -28.38729325266652 -3.6075538558734994 0 0 1 1 0 0 forward_v I I I I #
coedge $-1 $140 $304 $305 $306 reversed $79 $-1 #
coedge $-1 $142 $141 $229 $307 reversed $49 $-1 #
coedge $-1 $305 $308 $141 $224 forward $309 $-1 #
edge $-1 $310 90.219156540195712 $225 96.458309623050269 $223 $311 forward 7 unknown #
vertex $-1 $306 $312 #
straight-curve $-1 72.825708792382585 11.760806756031689 1.9709594753211377 0 -1 0 I I #
vertex $-1 $307 $313 #
straight-curve $-1 -24.634111233553156 16.423402504559668 110.21105798305462 -0.66913059716165679 0 0.74314483375859142 I I #
coedge $-1 $314 $145 $222 $307 forward $138 $-1 #
coedge $-1 $145 $315 $147 $233 forward $138 $-1 #
straight-curve $-1 41.802993637090168 16.423402504559668 6.6075538558735047 -1 0 0 I I #
coedge $-1 $316 $147 $317 $318 forward $79 $-1 #
edge $-1 $319 -30.619824519567093 $149 16.423402504559668 $147 $320 forward 7 unknown #
point $-1 72.825708792382585 16.423402504559668 1.9709594753211519 #
point $-1 72.825708792382585 16.423402504559668 6.6075538558734994 #
face $-1 $321 $322 $18 $-1 $323 forward single #
loop $-1 $-1 $324 $151 #
plane-surface $-1 72.825708792382585 0 0 -1 0 0 0 0 1 forward_v I I I I #
loop $-1 $-1 $325 $86 #
coedge $-1 $241 $154 $326 $327 forward $87 $-1 #
coedge $-1 $154 $240 $328 $329 reversed $87 $-1 #
coedge $-1 $330 $324 $154 $243 forward $237 $-1 #
edge $-1 $331 -101.86447952917403 $332 -97.227885148621681 $242 $333 forward 7 unknown #
edge $-1 $334 1 $334 0 $155 $-1 forward 7 unknown #
vertex $-1 $156 $335 #
ellipse-curve $-1 68.496872630217652 20.479523080276078 2.2710622346916334 0.74314483375859142 0 0.66913059716165679 0.66913059716165679 0 -0.74314483375859142 1 I I #
point $-1 71.407435275487515 20.479523080276078 3.5461118318387252 #
face $-1 $336 $166 $19 $-1 $337 forward single #
loop $-1 $-1 $338 $159 #
plane-surface $-1 83.605987274180336 16.423402504559668 207.67087800899037 0 1 0 0.74314483375859142 0 0.66913059716165679 forward_v I I I I #
loop $-1 $-1 $339 $94 #
coedge $-1 $252 $252 $253 $340 forward $160 $-1 #
coedge $-1 $253 $253 $252 $340 reversed $162 $-1 #
coedge $-1 $254 $254 $163 $255 forward $259 $-1 #
edge $-1 $341 0 $341 6.2831853071796004 $254 $342 forward 7 unknown #
edge $-1 $343 1 $343 0 $164 $-1 forward 7 unknown #
vertex $-1 $165 $344 #
ellipse-curve $-1 68.496872630217652 26.563703943850687 2.2710622346916334 0.74314483375859142 0 0.66913059716165679 0.66913059716165679 0 -0.74314483375859142 1 I I #
loop $-1 $345 $254 $248 #
point $-1 71.407435275487515 26.563703943850687 3.5461118318387252 #
plane-surface $-1 72.825708792382585 0 0 -1 0 0 0 0 1 forward_v I I I I #
coedge $-1 $174 $172 $176 $266 reversed $103 $-1 #
edge $-1 $187 -6.6075538558734994 $268 6.6075538558734994 $186 $346 forward 7 unknown #
vertex $-1 $266 $347 #
straight-curve $-1 -72.825708792382585 -30.619824519567093 0 0 0 -1 I I #
edge $-1 $264 -30.619824519567093 $268 30.619824519567093 $262 $348 forward 7 unknown #
straight-curve $-1 0 -30.619824519567093 -6.6075538558734994 -1 0 0 I I #
vertex $-1 $179 $349 #
straight-curve $-1 0 30.619824519567093 -6.6075538558734994 1 0 0 I I #
point $-1 72.825708792382585 30.619824519567093 -6.6075538558734994 #
point $-1 72.825708792382585 -30.619824519567093 -6.6075538558734994 #
straight-curve $-1 -72.825708792382585 0 6.6075538558734994 0 -1 0 I I #
point $-1 -72.825708792382585 30.619824519567093 6.6075538558734994 #
point $-1 -72.825708792382585 -30.619824519567093 6.6075538558734994 #
straight-curve $-1 72.825708792382585 -30.619824519567093 0 0 0 -1 I I #
straight-curve $-1 72.825708792382585 30.619824519567093 0 0 0 -1 I I #
face $-1 $215 $350 $16 $-1 $351 reversed single #
loop $-1 $-1 $207 $196 #
plane-surface $-1 -72.825708792382585 0 0 1 0 0 0 0 -1 forward_v I I I I #
coedge $-1 $352 $353 $213 $296 forward $197 $-1 #
coedge $-1 $354 $199 $355 $356 forward $122 $-1 #
coedge $-1 $199 $354 $204 $291 forward $122 $-1 #
coedge $-1 $201 $200 $353 $357 reversed $71 $-1 #
coedge $-1 $358 $207 $201 $285 reversed $278 $-1 #
edge $-1 $359 -6.6075538558734994 $209 3.6075538558734994 $284 $360 forward 7 unknown #
coedge $-1 $207 $355 $202 $287 forward $278 $-1 #
edge $-1 $288 -4.0537769279367497 $211 -1.0537769279367497 $286 $361 forward 7 unknown #
vertex $-1 $356 $362 #
straight-curve $-1 0 -26.154761985765948 -6.6075538558734994 -1 0 0 I I #
coedge $-1 $213 $204 $363 $364 reversed $133 $-1 #
edge $-1 $365 -30.619824519567093 $205 26.154761985765948 $204 $366 forward 7 unknown #
point $-1 72.825708792382585 -26.154761985765948 -6.6075538558734994 #
straight-curve $-1 -72.825708792382585 -14.19364662633326 -3.6075538558734994 0 -1 0 I I #
point $-1 -72.825708792382585 -30.619824519567093 -3.6075538558734994 #
point $-1 -72.825708792382585 -26.154761985765948 -3.6075538558734994 #
edge $-1 $297 -30.619824519567093 $367 30.619824519567093 $213 $368 forward 7 unknown #
vertex $-1 $296 $369 #
straight-curve $-1 72.825708792382585 -30.619824519567093 0 0 0 -1 I I #
plane-surface $-1 72.825708792382585 0 0 -1 0 0 0 0 1 forward_v I I I I #
face $-1 $370 $371 $17 $-1 $372 reversed single #
loop $-1 $-1 $373 $218 #
plane-surface $-1 0 -26.154761985765948 -5.1075538558734994 0 -1 0 0 0 -1 forward_v I I I I #
coedge $-1 $374 $375 $316 $376 reversed $219 $-1 #
coedge $-1 $221 $377 $378 $379 reversed $79 $-1 #
coedge $-1 $380 $223 $221 $306 forward $309 $-1 #
edge $-1 $225 -1.9709594753211461 $381 6.6075538558734994 $221 $382 forward 7 unknown #
edge $-1 $227 4.6625957485279788 $310 18.859017763535398 $229 $383 forward 7 unknown #
coedge $-1 $223 $384 $314 $385 reversed $309 $-1 #
loop $-1 $-1 $223 $386 #
vertex $-1 $385 $387 #
straight-curve $-1 8.2825024731069554 30.619824519567093 73.653453944777581 0.66913059716165679 0 -0.74314483375859142 I I #
point $-1 72.825708792382585 30.619824519567093 1.9709594753211461 #
point $-1 68.650900564269122 16.423402504559668 6.6075538558735047 #
coedge $-1 $388 $229 $308 $385 forward $138 $-1 #
coedge $-1 $230 $388 $389 $390 forward $138 $-1 #
coedge $-1 $377 $232 $303 $376 forward $79 $-1 #
coedge $-1 $389 $391 $232 $318 reversed $371 $-1 #
edge $-1 $319 -6.6075538558734994 $392 3.6075538558734994 $232 $393 forward 7 unknown #
vertex $-1 $233 $394 #
straight-curve $-1 72.825708792382585 0 6.6075538558734994 0 1 0 I I #
face $-1 $395 $396 $18 $-1 $397 reversed single #
loop $-1 $-1 $328 $236 #
plane-surface $-1 0 0 6.6075538558734994 0 0 1 1 0 0 forward_v I I I I #
coedge $-1 $242 $398 $325 $399 forward $237 $-1 #
coedge $-1 $400 $326 $324 $399 reversed $239 $-1 #
coedge $-1 $325 $401 $240 $327 reversed $239 $-1 #
edge $-1 $331 -145.65141758476511 $402 -139.41226450191056 $240 $403 forward 7 unknown #
coedge $-1 $404 $405 $241 $329 forward $322 $-1 #
edge $-1 $332 -31.022715155292417 $402 -26.847906927178954 $328 $406 forward 7 unknown #
coedge $-1 $407 $242 $405 $408 reversed $237 $-1 #
vertex $-1 $399 $409 #
vertex $-1 $329 $410 #
straight-curve $-1 72.825708792382585 16.423402504559668 103.83543900449519 0 0 1 I I #
vertex $-1 $244 $411 #
point $-1 69.166003227379321 20.479523080276078 1.5279174009330418 #
face $-1 $412 $413 $19 $-1 $414 reversed single #
plane-surface $-1 -24.634111233553156 23.521613512063379 110.21105798305462 0.74314483375859142 0 0.66913059716165679 0.66913059716165679 0 -0.74314483375859142 forward_v I I I I #
coedge $-1 $415 $416 $417 $418 reversed $249 $-1 #
coedge $-1 $339 $339 $-1 $419 forward $251 $-1 #
edge $-1 $420 0 $420 6.2831853071796004 $252 $421 forward 7 unknown #
vertex $-1 $255 $422 #
ellipse-curve $-1 70.738304678325861 20.479523080276078 4.2892566655973168 -0.74314483375859142 0 -0.66913059716165679 0.66913059716165679 0 -0.74314483375859142 1 I I #
vertex $-1 $256 $423 #
point $-1 69.166003227379321 26.563703943850687 1.5279174009330418 #
loop $-1 $-1 $424 $248 #
straight-curve $-1 -72.825708792382585 30.619824519567093 0 0 0 -1 I I #
point $-1 -72.825708792382585 -30.619824519567093 -6.6075538558734994 #
straight-curve $-1 -72.825708792382585 0 -6.6075538558734994 0 1 0 I I #
point $-1 -72.825708792382585 30.619824519567093 -6.6075538558734994 #
loop $-1 $-1 $363 $277 #
plane-surface $-1 0 30.619824519567093 0 0 -1 0 0 0 -1 forward_v I I I I #
coedge $-1 $425 $280 $426 $427 forward $197 $-1 #
coedge $-1 $280 $425 $283 $357 forward $197 $-1 #
coedge $-1 $282 $281 $428 $429 forward $122 $-1 #
coedge $-1 $286 $430 $281 $356 reversed $278 $-1 #
edge $-1 $288 -26.154761985765948 $431 30.619824519567093 $355 $432 forward 7 unknown #
edge $-1 $359 -72.825708792382585 $297 72.825708792382585 $283 $433 forward 7 unknown #
coedge $-1 $430 $284 $425 $434 reversed $278 $-1 #
vertex $-1 $434 $435 #
straight-curve $-1 -72.825708792382585 -30.619824519567093 0 0 0 -1 I I #
straight-curve $-1 -72.825708792382585 -26.154761985765948 -2.5537769279367497 0 0 1 I I #
point $-1 -72.825708792382585 -26.154761985765948 -6.6075538558734994 #
coedge $-1 $428 $426 $290 $364 forward $350 $-1 #
edge $-1 $367 -6.6075538558734994 $365 6.6075538558734994 $290 $436 forward 7 unknown #
vertex $-1 $291 $437 #
straight-curve $-1 72.825708792382585 0 -6.6075538558734994 0 -1 0 I I #
vertex $-1 $296 $438 #
straight-curve $-1 72.825708792382585 0 6.6075538558734994 0 1 0 I I #
point $-1 72.825708792382585 -30.619824519567093 6.6075538558734994 #
face $-1 $439 $440 $17 $-1 $441 reversed single #
loop $-1 $-1 $391 $300 #
plane-surface $-1 0 -30.619824519567093 0 0 1 0 0 0 1 forward_v I I I I #
coedge $-1 $442 $443 $377 $444 reversed $301 $-1 #
coedge $-1 $445 $303 $391 $446 reversed $219 $-1 #
coedge $-1 $303 $445 $442 $447 reversed $219 $-1 #
edge $-1 $392 -16.426177893233834 $448 -11.961115359432688 $316 $449 forward 7 unknown #
coedge $-1 $304 $316 $373 $444 forward $79 $-1 #
coedge $-1 $450 $451 $304 $379 forward $440 $-1 #
edge $-1 $381 -30.619824519567093 $452 26.154761985765948 $304 $453 forward 7 unknown #
coedge $-1 $384 $305 $451 $454 reversed $309 $-1 #
vertex $-1 $379 $455 #
straight-curve $-1 72.825708792382585 30.619824519567093 0 0 0 -1 I I #
straight-curve $-1 68.650900564269108 11.760806756031689 6.6075538558735047 0 1 0 I I #
coedge $-1 $308 $380 $456 $457 reversed $309 $-1 #
edge $-1 $310 -68.650900564269122 $458 72.825708792382585 $308 $459 forward 7 unknown #
face $-1 $-1 $309 $17 $-1 $460 reversed single #
point $-1 68.650900564269122 30.619824519567089 6.6075538558735047 #
coedge $-1 $315 $314 $461 $462 forward $138 $-1 #
coedge $-1 $463 $317 $315 $390 reversed $371 $-1 #
edge $-1 $464 -72.825708792382585 $319 72.825708792382585 $389 $465 forward 7 unknown #
coedge $-1 $317 $463 $374 $446 forward $371 $-1 #
vertex $-1 $446 $466 #
straight-curve $-1 72.825708792382585 -30.619824519567093 0 0 0 -1 I I #
point $-1 72.825708792382585 -30.619824519567093 6.6075538558734994 #
face $-1 $467 $468 $18 $-1 $469 forward single #
loop $-1 $-1 $470 $321 #
plane-surface $-1 0 -28.38729325266652 -3.6075538558734994 0 0 1 1 0 0 forward_v I I I I #
coedge $-1 $324 $471 $472 $473 reversed $237 $-1 #
edge $-1 $474 -18.859017763535405 $331 -4.6625957485279788 $324 $475 forward 7 unknown #
coedge $-1 $401 $325 $476 $477 reversed $239 $-1 #
coedge $-1 $326 $400 $404 $478 reversed $239 $-1 #
vertex $-1 $478 $479 #
straight-curve $-1 -24.634111233553156 16.423402504559668 110.21105798305462 -0.66913059716165679 0 0.74314483375859142 I I #
coedge $-1 $480 $328 $401 $478 forward $322 $-1 #
coedge $-1 $328 $481 $330 $408 forward $322 $-1 #
straight-curve $-1 41.802993637090168 16.423402504559668 6.6075538558735047 -1 0 0 I I #
coedge $-1 $482 $330 $483 $484 forward $237 $-1 #
edge $-1 $485 -30.619824519567093 $332 16.423402504559668 $330 $486 forward 7 unknown #
point $-1 72.825708792382585 16.423402504559668 1.9709594753211519 #
point $-1 72.825708792382585 16.423402504559668 6.6075538558734994 #
point $-1 67.753727796459074 20.479523080276078 1.6019316375299764 #
face $-1 $487 $488 $19 $-1 $489 forward single #
loop $-1 $-1 $490 $336 #
plane-surface $-1 72.825708792382585 0 0 -1 0 0 0 0 1 forward_v I I I I #
coedge $-1 $416 $338 $491 $492 forward $249 $-1 #
coedge $-1 $338 $415 $493 $494 reversed $249 $-1 #
coedge $-1 $495 $490 $338 $418 forward $413 $-1 #
edge $-1 $496 -101.86447952917403 $497 -97.227885148621681 $417 $498 forward 7 unknown #
edge $-1 $499 1 $499 0 $339 $-1 forward 7 unknown #
vertex $-1 $340 $500 #
ellipse-curve $-1 68.496872630217652 20.479523080276078 2.2710622346916334 0.74314483375859142 0 0.66913059716165679 0.66913059716165679 0 -0.74314483375859142 1 I I #
point $-1 71.407435275487515 20.479523080276078 3.5461118318387252 #
point $-1 67.753727796459074 26.563703943850687 1.6019316375299764 #
coedge $-1 $501 $491 $490 $502 reversed $345 $-1 #
coedge $-1 $353 $352 $358 $434 forward $197 $-1 #
coedge $-1 $363 $503 $352 $427 reversed $350 $-1 #
edge $-1 $367 -72.825708792382585 $504 72.825708792382585 $426 $505 forward 7 unknown #
coedge $-1 $503 $363 $354 $429 reversed $350 $-1 #
edge $-1 $431 -72.825708792382585 $365 72.825708792382585 $428 $506 forward 7 unknown #
coedge $-1 $355 $358 $503 $507 forward $278 $-1 #
vertex $-1 $429 $508 #
straight-curve $-1 -72.825708792382585 0 -6.6075538558734994 0 1 0 I I #
straight-curve $-1 0 -30.619824519567093 6.6075538558734994 1 0 0 I I #
edge $-1 $504 -30.619824519567093 $359 30.619824519567093 $358 $509 forward 7 unknown #
point $-1 -72.825708792382585 -30.619824519567093 6.6075538558734994 #
straight-curve $-1 72.825708792382585 30.619824519567093 0 0 0 -1 I I #
point $-1 72.825708792382585 30.619824519567093 -6.6075538558734994 #
point $-1 72.825708792382585 30.619824519567093 6.6075538558734994 #
face $-1 $386 $510 $17 $-1 $511 reversed single #
loop $-1 $-1 $450 $370 #
plane-surface $-1 0 0 -6.6075538558734994 0 0 1 1 0 0 forward_v I I I I #
coedge $-1 $512 $373 $375 $447 forward $301 $-1 #
coedge $-1 $373 $512 $450 $513 reversed $301 $-1 #
edge $-1 $448 1.0537769279367497 $452 4.0537769279367497 $377 $514 forward 7 unknown #
coedge $-1 $375 $374 $515 $516 reversed $219 $-1 #
edge $-1 $517 -72.825708792382585 $392 72.825708792382585 $391 $518 forward 7 unknown #
edge $-1 $448 -72.825708792382585 $519 72.825708792382585 $442 $520 forward 7 unknown #
vertex $-1 $376 $521 #
straight-curve $-1 72.825708792382585 -14.19364662633326 -3.6075538558734994 0 1 0 I I #
coedge $-1 $522 $378 $443 $513 forward $440 $-1 #
coedge $-1 $378 $522 $380 $454 forward $440 $-1 #
vertex $-1 $513 $523 #
straight-curve $-1 72.825708792382585 0 -6.6075538558734994 0 -1 0 I I #
edge $-1 $524 -72.825708792382585 $381 72.825708792382585 $380 $525 forward 7 unknown #
point $-1 72.825708792382585 30.619824519567093 -6.6075538558734994 #
coedge $-1 $526 $461 $384 $457 forward $510 $-1 #
edge $-1 $458 -6.6075538558734994 $524 6.6075538558734994 $384 $527 forward 7 unknown #
vertex $-1 $385 $528 #
straight-curve $-1 0 30.619824519567093 6.6075538558734994 -1 0 0 I I #
plane-surface $-1 0 30.619824519567093 0 0 -1 0 0 0 -1 forward_v I I I I #
coedge $-1 $456 $529 $388 $462 reversed $510 $-1 #
edge $-1 $458 -30.619824519567093 $464 30.619824519567093 $461 $530 forward 7 unknown #
coedge $-1 $391 $389 $529 $531 forward $371 $-1 #
vertex $-1 $462 $532 #
straight-curve $-1 0 -30.619824519567093 6.6075538558734994 1 0 0 I I #
point $-1 72.825708792382585 -30.619824519567093 -3.6075538558734994 #
face $-1 $533 $534 $18 $-1 $535 reversed single #
loop $-1 $-1 $536 $395 #
plane-surface $-1 0 -26.154761985765948 -5.1075538558734994 0 -1 0 0 0 -1 forward_v I I I I #
coedge $-1 $537 $538 $482 $539 reversed $396 $-1 #
coedge $-1 $398 $540 $541 $542 reversed $237 $-1 #
coedge $-1 $543 $476 $398 $473 forward $544 $-1 #
edge $-1 $474 -1.9709594753211461 $545 6.6075538558734994 $398 $546 forward 7 unknown #
vertex $-1 $473 $547 #
straight-curve $-1 72.825708792382585 11.760806756031689 1.9709594753211377 0 -1 0 I I #
coedge $-1 $472 $548 $400 $477 forward $544 $-1 #
edge $-1 $549 90.219156540195712 $474 96.458309623050269 $476 $550 forward 7 unknown #
edge $-1 $402 4.6625957485279788 $549 18.859017763535398 $404 $551 forward 7 unknown #
point $-1 68.650900564269122 16.423402504559668 6.6075538558735047 #
coedge $-1 $552 $404 $548 $553 forward $322 $-1 #
coedge $-1 $405 $552 $554 $555 forward $322 $-1 #
coedge $-1 $540 $407 $470 $539 forward $237 $-1 #
coedge $-1 $554 $556 $407 $484 reversed $534 $-1 #
edge $-1 $485 -6.6075538558734994 $557 3.6075538558734994 $407 $558 forward 7 unknown #
vertex $-1 $408 $559 #
straight-curve $-1 72.825708792382585 0 6.6075538558734994 0 1 0 I I #
face $-1 $560 $561 $19 $-1 $562 reversed single #
loop $-1 $-1 $493 $412 #
plane-surface $-1 0 0 6.6075538558734994 0 0 1 1 0 0 forward_v I I I I #
coedge $-1 $417 $563 $424 $502 forward $413 $-1 #
coedge $-1 $424 $564 $415 $492 reversed $345 $-1 #
edge $-1 $496 -145.65141758476511 $565 -139.41226450191056 $415 $566 forward 7 unknown #
coedge $-1 $567 $568 $416 $494 forward $488 $-1 #
edge $-1 $497 -31.022715155292417 $565 -26.847906927178954 $493 $569 forward 7 unknown #
coedge $-1 $570 $417 $568 $571 reversed $413 $-1 #
vertex $-1 $502 $572 #
vertex $-1 $494 $573 #
straight-curve $-1 72.825708792382585 16.423402504559668 103.83543900449519 0 0 1 I I #
vertex $-1 $419 $574 #
point $-1 69.166003227379321 20.479523080276078 1.5279174009330418 #
coedge $-1 $564 $424 $575 $576 reversed $345 $-1 #
edge $-1 $577 -18.859017763535405 $496 -4.6625957485279788 $490 $578 forward 7 unknown #
coedge $-1 $426 $428 $430 $507 reversed $350 $-1 #
vertex $-1 $427 $579 #
straight-curve $-1 0 30.619824519567093 6.6075538558734994 -1 0 0 I I #
straight-curve $-1 0 30.619824519567093 -6.6075538558734994 1 0 0 I I #
edge $-1 $504 -6.6075538558734994 $431 6.6075538558734994 $503 $580 forward 7 unknown #
point $-1 -72.825708792382585 30.619824519567093 -6.6075538558734994 #
straight-curve $-1 -72.825708792382585 0 6.6075538558734994 0 -1 0 I I #
loop $-1 $-1 $515 $439 #
plane-surface $-1 -72.825708792382585 0 0 1 0 0 0 0 -1 forward_v I I I I #
coedge $-1 $443 $442 $581 $582 reversed $301 $-1 #
edge $-1 $452 -72.825708792382585 $583 72.825708792382585 $450 $584 forward 7 unknown #
straight-curve $-1 72.825708792382585 -26.154761985765948 -2.5537769279367497 0 0 -1 I I #
coedge $-1 $529 $581 $445 $516 forward $510 $-1 #
edge $-1 $519 11.961115359432688 $517 16.426177893233834 $515 $585 forward 7 unknown #
vertex $-1 $446 $586 #
straight-curve $-1 0 -30.619824519567093 -3.6075538558734994 1 0 0 I I #
vertex $-1 $516 $587 #
straight-curve $-1 0 -26.154761985765948 -3.6075538558734994 -1 0 0 I I #
point $-1 72.825708792382585 -26.154761985765948 -3.6075538558734994 #
coedge $-1 $451 $450 $526 $588 forward $440 $-1 #
point $-1 72.825708792382585 -26.154761985765948 -6.6075538558734994 #
vertex $-1 $454 $589 #
straight-curve $-1 0 30.619824519567093 -6.6075538558734994 1 0 0 I I #
coedge $-1 $581 $456 $522 $588 reversed $510 $-1 #
straight-curve $-1 -72.825708792382585 30.619824519567093 0 0 0 -1 I I #
point $-1 -72.825708792382585 30.619824519567093 6.6075538558734994 #
coedge $-1 $461 $515 $463 $531 reversed $510 $-1 #
straight-curve $-1 -72.825708792382585 0 6.6075538558734994 0 -1 0 I I #
edge $-1 $464 -6.6075538558734994 $517 3.6075538558734994 $529 $590 forward 7 unknown #
point $-1 -72.825708792382585 -30.619824519567093 6.6075538558734994 #
face $-1 $591 $592 $18 $-1 $593 reversed single #
loop $-1 $-1 $556 $467 #
plane-surface $-1 0 -30.619824519567093 0 0 1 0 0 0 1 forward_v I I I I #
coedge $-1 $594 $595 $540 $596 reversed $468 $-1 #
coedge $-1 $597 $470 $556 $598 reversed $396 $-1 #
coedge $-1 $470 $597 $594 $599 reversed $396 $-1 #
edge $-1 $557 -16.426177893233834 $600 -11.961115359432688 $482 $601 forward 7 unknown #
coedge $-1 $471 $482 $536 $596 forward $237 $-1 #
coedge $-1 $602 $603 $471 $542 forward $592 $-1 #
edge $-1 $545 -30.619824519567093 $604 26.154761985765948 $471 $605 forward 7 unknown #
coedge $-1 $606 $472 $603 $607 reversed $544 $-1 #
loop $-1 $-1 $476 $608 #
vertex $-1 $542 $609 #
straight-curve $-1 72.825708792382585 30.619824519567093 0 0 0 -1 I I #
point $-1 72.825708792382585 30.619824519567093 1.9709594753211461 #
coedge $-1 $476 $606 $480 $553 reversed $544 $-1 #
vertex $-1 $553 $610 #
straight-curve $-1 8.2825024731069554 30.619824519567093 73.653453944777581 0.66913059716165679 0 -0.74314483375859142 I I #
straight-curve $-1 68.650900564269108 11.760806756031689 6.6075538558735047 0 1 0 I I #
coedge $-1 $481 $480 $611 $612 forward $322 $-1 #
edge $-1 $549 -68.650900564269122 $613 72.825708792382585 $548 $614 forward 7 unknown #
coedge $-1 $615 $483 $481 $555 reversed $534 $-1 #
edge $-1 $616 -72.825708792382585 $485 72.825708792382585 $554 $617 forward 7 unknown #
coedge $-1 $483 $615 $537 $598 forward $534 $-1 #
vertex $-1 $598 $618 #
straight-curve $-1 72.825708792382585 -30.619824519567093 0 0 0 -1 I I #
point $-1 72.825708792382585 -30.619824519567093 6.6075538558734994 #
face $-1 $619 $620 $19 $-1 $621 forward single #
loop $-1 $-1 $622 $487 #
plane-surface $-1 0 -28.38729325266652 -3.6075538558734994 0 0 1 1 0 0 forward_v I I I I #
coedge $-1 $490 $623 $624 $625 reversed $413 $-1 #
coedge $-1 $491 $501 $567 $626 reversed $345 $-1 #
vertex $-1 $626 $627 #
straight-curve $-1 -24.634111233553156 16.423402504559668 110.21105798305462 -0.66913059716165679 0 0.74314483375859142 I I #
coedge $-1 $628 $493 $564 $626 forward $488 $-1 #
coedge $-1 $493 $629 $495 $571 forward $488 $-1 #
straight-curve $-1 41.802993637090168 16.423402504559668 6.6075538558735047 -1 0 0 I I #
coedge $-1 $630 $495 $631 $632 forward $413 $-1 #
edge $-1 $633 -30.619824519567093 $497 16.423402504559668 $495 $634 forward 7 unknown #
point $-1 72.825708792382585 16.423402504559668 1.9709594753211519 #
point $-1 72.825708792382585 16.423402504559668 6.6075538558734994 #
point $-1 67.753727796459074 20.479523080276078 1.6019316375299764 #
coedge $-1 $624 $635 $501 $576 forward $636 $-1 #
edge $-1 $637 90.219156540195712 $577 96.458309623050269 $575 $638 forward 7 unknown #
vertex $-1 $625 $639 #
straight-curve $-1 72.825708792382585 11.760806756031689 1.9709594753211377 0 -1 0 I I #
point $-1 -72.825708792382585 30.619824519567093 6.6075538558734994 #
straight-curve $-1 -72.825708792382585 30.619824519567093 0 0 0 -1 I I #
coedge $-1 $515 $526 $512 $582 forward $510 $-1 #
edge $-1 $583 -4.0537769279367497 $519 -1.0537769279367497 $581 $640 forward 7 unknown #
vertex $-1 $588 $641 #
straight-curve $-1 0 -26.154761985765948 -6.6075538558734994 -1 0 0 I I #
straight-curve $-1 -72.825708792382585 -14.19364662633326 -3.6075538558734994 0 -1 0 I I #
point $-1 -72.825708792382585 -30.619824519567093 -3.6075538558734994 #
point $-1 -72.825708792382585 -26.154761985765948 -3.6075538558734994 #
edge $-1 $583 -26.154761985765948 $524 30.619824519567093 $526 $642 forward 7 unknown #
point $-1 -72.825708792382585 30.619824519567093 -6.6075538558734994 #
straight-curve $-1 -72.825708792382585 -30.619824519567093 0 0 0 -1 I I #
face $-1 $608 $643 $18 $-1 $644 reversed single #
loop $-1 $-1 $602 $533 #
plane-surface $-1 0 0 -6.6075538558734994 0 0 1 1 0 0 forward_v I I I I #
coedge $-1 $645 $536 $538 $599 forward $468 $-1 #
coedge $-1 $536 $645 $602 $646 reversed $468 $-1 #
edge $-1 $600 1.0537769279367497 $604 4.0537769279367497 $540 $647 forward 7 unknown #
coedge $-1 $538 $537 $648 $649 reversed $396 $-1 #
edge $-1 $650 -72.825708792382585 $557 72.825708792382585 $556 $651 forward 7 unknown #
edge $-1 $600 -72.825708792382585 $652 72.825708792382585 $594 $653 forward 7 unknown #
vertex $-1 $539 $654 #
straight-curve $-1 72.825708792382585 -14.19364662633326 -3.6075538558734994 0 1 0 I I #
coedge $-1 $655 $541 $595 $646 forward $592 $-1 #
coedge $-1 $541 $655 $543 $607 forward $592 $-1 #
vertex $-1 $646 $656 #
straight-curve $-1 72.825708792382585 0 -6.6075538558734994 0 -1 0 I I #
coedge $-1 $548 $543 $657 $658 reversed $544 $-1 #
edge $-1 $659 -72.825708792382585 $545 72.825708792382585 $543 $660 forward 7 unknown #
face $-1 $-1 $544 $18 $-1 $661 reversed single #
point $-1 72.825708792382585 30.619824519567093 -6.6075538558734994 #
point $-1 68.650900564269122 30.619824519567089 6.6075538558735047 #
coedge $-1 $657 $662 $552 $612 reversed $643 $-1 #
edge $-1 $613 -30.619824519567093 $616 30.619824519567093 $611 $663 forward 7 unknown #
vertex $-1 $553 $664 #
straight-curve $-1 0 30.619824519567093 6.6075538558734994 -1 0 0 I I #
coedge $-1 $556 $554 $662 $665 forward $534 $-1 #
vertex $-1 $612 $666 #
straight-curve $-1 0 -30.619824519567093 6.6075538558734994 1 0 0 I I #
point $-1 72.825708792382585 -30.619824519567093 -3.6075538558734994 #
face $-1 $667 $668 $19 $-1 $669 reversed single #
loop $-1 $-1 $670 $560 #
plane-surface $-1 0 -26.154761985765948 -5.1075538558734994 0 -1 0 0 0 -1 forward_v I I I I #
coedge $-1 $671 $672 $630 $673 reversed $561 $-1 #
coedge $-1 $563 $674 $675 $676 reversed $413 $-1 #
coedge $-1 $677 $575 $563 $625 forward $636 $-1 #
edge $-1 $577 -1.9709594753211461 $678 6.6075538558734994 $563 $679 forward 7 unknown #
edge $-1 $565 4.6625957485279788 $637 18.859017763535398 $567 $680 forward 7 unknown #
point $-1 68.650900564269122 16.423402504559668 6.6075538558735047 #
coedge $-1 $681 $567 $635 $682 forward $488 $-1 #
coedge $-1 $568 $681 $683 $684 forward $488 $-1 #
coedge $-1 $674 $570 $622 $673 forward $413 $-1 #
coedge $-1 $683 $685 $570 $632 reversed $668 $-1 #
edge $-1 $633 -6.6075538558734994 $686 3.6075538558734994 $570 $687 forward 7 unknown #
vertex $-1 $571 $688 #
straight-curve $-1 72.825708792382585 0 6.6075538558734994 0 1 0 I I #
coedge $-1 $575 $689 $628 $682 reversed $636 $-1 #
loop $-1 $-1 $575 $690 #
vertex $-1 $682 $691 #
straight-curve $-1 8.2825024731069554 30.619824519567093 73.653453944777581 0.66913059716165679 0 -0.74314483375859142 I I #
point $-1 72.825708792382585 30.619824519567093 1.9709594753211461 #
straight-curve $-1 -72.825708792382585 -26.154761985765948 -2.5537769279367497 0 0 1 I I #
point $-1 -72.825708792382585 -26.154761985765948 -6.6075538558734994 #
straight-curve $-1 -72.825708792382585 0 -6.6075538558734994 0 1 0 I I #
loop $-1 $-1 $648 $591 #
plane-surface $-1 -72.825708792382585 0 0 1 0 0 0 0 -1 forward_v I I I I #
coedge $-1 $595 $594 $692 $693 reversed $468 $-1 #
edge $-1 $604 -72.825708792382585 $694 72.825708792382585 $602 $695 forward 7 unknown #
straight-curve $-1 72.825708792382585 -26.154761985765948 -2.5537769279367497 0 0 -1 I I #
coedge $-1 $662 $692 $597 $649 forward $643 $-1 #
edge $-1 $652 11.961115359432688 $650 16.426177893233834 $648 $696 forward 7 unknown #
vertex $-1 $598 $697 #
straight-curve $-1 0 -30.619824519567093 -3.6075538558734994 1 0 0 I I #
vertex $-1 $649 $698 #
straight-curve $-1 0 -26.154761985765948 -3.6075538558734994 -1 0 0 I I #
point $-1 72.825708792382585 -26.154761985765948 -3.6075538558734994 #
coedge $-1 $603 $602 $699 $700 forward $592 $-1 #
point $-1 72.825708792382585 -26.154761985765948 -6.6075538558734994 #
coedge $-1 $699 $611 $606 $658 forward $643 $-1 #
edge $-1 $613 -6.6075538558734994 $659 6.6075538558734994 $606 $701 forward 7 unknown #
vertex $-1 $607 $702 #
straight-curve $-1 0 30.619824519567093 -6.6075538558734994 1 0 0 I I #
plane-surface $-1 0 30.619824519567093 0 0 -1 0 0 0 -1 forward_v I I I I #
coedge $-1 $611 $648 $615 $665 reversed $643 $-1 #
straight-curve $-1 -72.825708792382585 0 6.6075538558734994 0 -1 0 I I #
point $-1 -72.825708792382585 30.619824519567093 6.6075538558734994 #
edge $-1 $616 -6.6075538558734994 $650 3.6075538558734994 $662 $703 forward 7 unknown #
point $-1 -72.825708792382585 -30.619824519567093 6.6075538558734994 #
face $-1 $704 $705 $19 $-1 $706 reversed single #
loop $-1 $-1 $685 $619 #
plane-surface $-1 0 -30.619824519567093 0 0 1 0 0 0 1 forward_v I I I I #
coedge $-1 $707 $708 $674 $709 reversed $620 $-1 #
coedge $-1 $710 $622 $685 $711 reversed $561 $-1 #
coedge $-1 $622 $710 $707 $712 reversed $561 $-1 #
edge $-1 $686 -16.426177893233834 $713 -11.961115359432688 $630 $714 forward 7 unknown #
coedge $-1 $623 $630 $670 $709 forward $413 $-1 #
coedge $-1 $715 $716 $623 $676 forward $705 $-1 #
edge $-1 $678 -30.619824519567093 $717 26.154761985765948 $623 $718 forward 7 unknown #
coedge $-1 $689 $624 $716 $719 reversed $636 $-1 #
vertex $-1 $676 $720 #
straight-curve $-1 72.825708792382585 30.619824519567093 0 0 0 -1 I I #
straight-curve $-1 68.650900564269108 11.760806756031689 6.6075538558735047 0 1 0 I I #
coedge $-1 $629 $628 $721 $722 forward $488 $-1 #
edge $-1 $637 -68.650900564269122 $723 72.825708792382585 $635 $724 forward 7 unknown #
coedge $-1 $725 $631 $629 $684 reversed $668 $-1 #
edge $-1 $726 -72.825708792382585 $633 72.825708792382585 $683 $727 forward 7 unknown #
coedge $-1 $631 $725 $671 $711 forward $668 $-1 #
vertex $-1 $711 $728 #
straight-curve $-1 72.825708792382585 -30.619824519567093 0 0 0 -1 I I #
point $-1 72.825708792382585 -30.619824519567093 6.6075538558734994 #
coedge $-1 $635 $677 $729 $730 reversed $636 $-1 #
face $-1 $-1 $636 $19 $-1 $731 reversed single #
point $-1 68.650900564269122 30.619824519567089 6.6075538558735047 #
coedge $-1 $648 $699 $645 $693 forward $643 $-1 #
edge $-1 $694 -4.0537769279367497 $652 -1.0537769279367497 $692 $732 forward 7 unknown #
vertex $-1 $700 $733 #
straight-curve $-1 0 -26.154761985765948 -6.6075538558734994 -1 0 0 I I #
straight-curve $-1 -72.825708792382585 -14.19364662633326 -3.6075538558734994 0 -1 0 I I #
point $-1 -72.825708792382585 -30.619824519567093 -3.6075538558734994 #
point $-1 -72.825708792382585 -26.154761985765948 -3.6075538558734994 #
coedge $-1 $692 $657 $655 $700 reversed $643 $-1 #
edge $-1 $694 -26.154761985765948 $659 30.619824519567093 $699 $734 forward 7 unknown #
straight-curve $-1 -72.825708792382585 30.619824519567093 0 0 0 -1 I I #
point $-1 -72.825708792382585 30.619824519567093 -6.6075538558734994 #
straight-curve $-1 -72.825708792382585 -30.619824519567093 0 0 0 -1 I I #
face $-1 $690 $735 $19 $-1 $736 reversed single #
loop $-1 $-1 $715 $667 #
plane-surface $-1 0 0 -6.6075538558734994 0 0 1 1 0 0 forward_v I I I I #
coedge $-1 $737 $670 $672 $712 forward $620 $-1 #
coedge $-1 $670 $737 $715 $738 reversed $620 $-1 #
edge $-1 $713 1.0537769279367497 $717 4.0537769279367497 $674 $739 forward 7 unknown #
coedge $-1 $672 $671 $740 $741 reversed $561 $-1 #
edge $-1 $742 -72.825708792382585 $686 72.825708792382585 $685 $743 forward 7 unknown #
edge $-1 $713 -72.825708792382585 $744 72.825708792382585 $707 $745 forward 7 unknown #
vertex $-1 $673 $746 #
straight-curve $-1 72.825708792382585 -14.19364662633326 -3.6075538558734994 0 1 0 I I #
coedge $-1 $747 $675 $708 $738 forward $705 $-1 #
coedge $-1 $675 $747 $677 $719 forward $705 $-1 #
vertex $-1 $738 $748 #
straight-curve $-1 72.825708792382585 0 -6.6075538558734994 0 -1 0 I I #
edge $-1 $749 -72.825708792382585 $678 72.825708792382585 $677 $750 forward 7 unknown #
point $-1 72.825708792382585 30.619824519567093 -6.6075538558734994 #
coedge $-1 $729 $751 $681 $722 reversed $735 $-1 #
edge $-1 $723 -30.619824519567093 $726 30.619824519567093 $721 $752 forward 7 unknown #
vertex $-1 $682 $753 #
straight-curve $-1 0 30.619824519567093 6.6075538558734994 -1 0 0 I I #
coedge $-1 $685 $683 $751 $754 forward $668 $-1 #
vertex $-1 $722 $755 #
straight-curve $-1 0 -30.619824519567093 6.6075538558734994 1 0 0 I I #
point $-1 72.825708792382585 -30.619824519567093 -3.6075538558734994 #
coedge $-1 $756 $721 $689 $730 forward $735 $-1 #
edge $-1 $723 -6.6075538558734994 $749 6.6075538558734994 $689 $757 forward 7 unknown #
plane-surface $-1 0 30.619824519567093 0 0 -1 0 0 0 -1 forward_v I I I I #
straight-curve $-1 -72.825708792382585 -26.154761985765948 -2.5537769279367497 0 0 1 I I #
point $-1 -72.825708792382585 -26.154761985765948 -6.6075538558734994 #
straight-curve $-1 -72.825708792382585 0 -6.6075538558734994 0 1 0 I I #
loop $-1 $-1 $740 $704 #
plane-surface $-1 -72.825708792382585 0 0 1 0 0 0 0 -1 forward_v I I I I #
coedge $-1 $708 $707 $758 $759 reversed $620 $-1 #
edge $-1 $717 -72.825708792382585 $760 72.825708792382585 $715 $761 forward 7 unknown #
straight-curve $-1 72.825708792382585 -26.154761985765948 -2.5537769279367497 0 0 -1 I I #
coedge $-1 $751 $758 $710 $741 forward $735 $-1 #
edge $-1 $744 11.961115359432688 $742 16.426177893233834 $740 $762 forward 7 unknown #
vertex $-1 $711 $763 #
straight-curve $-1 0 -30.619824519567093 -3.6075538558734994 1 0 0 I I #
vertex $-1 $741 $764 #
straight-curve $-1 0 -26.154761985765948 -3.6075538558734994 -1 0 0 I I #
point $-1 72.825708792382585 -26.154761985765948 -3.6075538558734994 #
coedge $-1 $716 $715 $756 $765 forward $705 $-1 #
point $-1 72.825708792382585 -26.154761985765948 -6.6075538558734994 #
vertex $-1 $719 $766 #
straight-curve $-1 0 30.619824519567093 -6.6075538558734994 1 0 0 I I #
coedge $-1 $721 $740 $725 $754 reversed $735 $-1 #
straight-curve $-1 -72.825708792382585 0 6.6075538558734994 0 -1 0 I I #
point $-1 -72.825708792382585 30.619824519567093 6.6075538558734994 #
edge $-1 $726 -6.6075538558734994 $742 3.6075538558734994 $751 $767 forward 7 unknown #
point $-1 -72.825708792382585 -30.619824519567093 6.6075538558734994 #
coedge $-1 $758 $729 $747 $765 reversed $735 $-1 #
straight-curve $-1 -72.825708792382585 30.619824519567093 0 0 0 -1 I I #
coedge $-1 $740 $756 $737 $759 forward $735 $-1 #
edge $-1 $760 -4.0537769279367497 $744 -1.0537769279367497 $758 $768 forward 7 unknown #
vertex $-1 $765 $769 #
straight-curve $-1 0 -26.154761985765948 -6.6075538558734994 -1 0 0 I I #
straight-curve $-1 -72.825708792382585 -14.19364662633326 -3.6075538558734994 0 -1 0 I I #
point $-1 -72.825708792382585 -30.619824519567093 -3.6075538558734994 #
point $-1 -72.825708792382585 -26.154761985765948 -3.6075538558734994 #
edge $-1 $760 -26.154761985765948 $749 30.619824519567093 $756 $770 forward 7 unknown #
point $-1 -72.825708792382585 30.619824519567093 -6.6075538558734994 #
straight-curve $-1 -72.825708792382585 -30.619824519567093 0 0 0 -1 I I #
straight-curve $-1 -72.825708792382585 -26.154761985765948 -2.5537769279367497 0 0 1 I I #
point $-1 -72.825708792382585 -26.154761985765948 -6.6075538558734994 #
straight-curve $-1 -72.825708792382585 0 -6.6075538558734994 0 1 0 I I #
End-of-ACIS-data 