500 0 8 0           
7 Unknown 11 ACIS 5.0 NT 24 Fri Mar 26 16:43:50 1999 
-1 9.9999999999999995e-007 1e-010 
body $-1 $8 $-1 $9 #
body $-1 $10 $-1 $11 #
body $-1 $12 $-1 $13 #
body $-1 $14 $-1 $15 #
body $-1 $16 $-1 $17 #
body $-1 $18 $-1 $19 #
body $-1 $20 $-1 $21 #
body $-1 $22 $-1 $23 #
lump $-1 $-1 $24 $0 #
transform $-1 1 0 0 0 1 0 0 0 1 77.086092715231786 37.998665674175093 12.057708249574357 1 rotate no_reflect no_shear #
lump $-1 $-1 $25 $1 #
transform $-1 1 0 0 0 1 0 0 0 1 77.086092715231786 37.998665674175093 12.057708249574357 1 rotate no_reflect no_shear #
lump $-1 $-1 $26 $2 #
transform $-1 1 0 0 0 1 0 0 0 1 77.086092715231786 37.998665674175093 12.057708249574357 1 rotate no_reflect no_shear #
lump $-1 $-1 $27 $3 #
transform $-1 1 0 0 0 1 0 0 0 1 77.086092715231786 37.998665674175093 12.057708249574357 1 rotate no_reflect no_shear #
lump $-1 $-1 $28 $4 #
transform $-1 1 0 0 0 1 0 0 0 1 77.086092715231786 37.998665674175093 12.057708249574357 1 rotate no_reflect no_shear #
lump $-1 $-1 $29 $5 #
transform $-1 1 0 0 0 1 0 0 0 1 77.086092715231786 37.998665674175093 12.057708249574357 1 rotate no_reflect no_shear #
lump $-1 $-1 $30 $6 #
transform $-1 1 0 0 0 1 0 0 0 1 77.086092715231786 37.998665674175093 12.057708249574357 1 rotate no_reflect no_shear #
lump $-1 $-1 $31 $7 #
transform $-1 1 0 0 0 1 0 0 0 1 77.086092715231786 37.998665674175093 12.057708249574357 1 rotate no_reflect no_shear #
shell $-1 $-1 $-1 $32 $-1 $8 #
shell $-1 $-1 $-1 $33 $-1 $10 #
shell $-1 $-1 $-1 $34 $-1 $12 #
shell $-1 $-1 $-1 $35 $-1 $14 #
shell $-1 $-1 $-1 $36 $-1 $16 #
shell $-1 $-1 $-1 $37 $-1 $18 #
shell $-1 $-1 $-1 $38 $-1 $20 #
shell $-1 $-1 $-1 $39 $-1 $22 #
face $-1 $40 $41 $24 $-1 $42 forward single #
face $-1 $43 $44 $25 $-1 $45 reversed single #
face $-1 $46 $47 $26 $-1 $48 reversed single #
face $-1 $49 $50 $27 $-1 $51 forward single #
face $-1 $52 $53 $28 $-1 $54 forward single #
face $-1 $55 $56 $29 $-1 $57 reversed single #
face $-1 $58 $59 $30 $-1 $60 forward single #
face $-1 $61 $62 $31 $-1 $63 forward single #
face $-1 $64 $65 $24 $-1 $66 reversed single #
loop $-1 $-1 $67 $32 #
plane-surface $-1 0 0 12.057708249574357 0 0 1 1 0 0 forward_v I I I I #
face $-1 $68 $69 $25 $-1 $70 reversed single #
loop $-1 $-1 $71 $33 #
plane-surface $-1 0 -33.362539961346869 8.1654018669623447 0 0 1 1 0 0 forward_v I I I I #
face $-1 $72 $73 $26 $-1 $74 reversed single #
loop $-1 $-1 $75 $34 #
plane-surface $-1 -207.83152227156856 -14.152208665298005 89.887428501028495 0 1 0 -0.84804810408105047 0 0.52991925155115449 forward_v I I I I #
face $-1 $76 $77 $27 $-1 $78 forward single #
loop $-1 $79 $80 $35 #
cone-surface $-1 -74.560059264931056 -11.418437902616379 9.3000884565882611 0.84804810408105047 0 -0.52991925155115449 0.52991925155115449 0 0.84804810408105047 1 I I 0 1 1 forward I I I I #
face $-1 $81 $82 $28 $-1 $83 forward single #
loop $-1 $84 $85 $36 #
cone-surface $-1 -74.560059264931056 -7.317781758593938 9.3000884565882611 0.84804810408105047 0 -0.52991925155115449 0.52991925155115449 0 0.84804810408105047 1 I I 0 1 1 forward I I I I #
face $-1 $86 $87 $29 $-1 $88 reversed single #
loop $-1 $-1 $89 $37 #
plane-surface $-1 126.13271315825151 -4.5840109959123083 220.63285805736527 0 -1 0 -0.84804810408105047 0 -0.52991925155115449 forward_v I I I I #
face $-1 $90 $91 $30 $-1 $92 forward single #
loop $-1 $93 $94 $38 #
cone-surface $-1 74.560059264931056 -11.418437902616379 9.3000884565882505 -0.84804810408105047 0 -0.52991925155115449 0.52991925155115449 0 -0.84804810408105047 1 I I 0 1 1 forward I I I I #
face $-1 $95 $96 $31 $-1 $97 forward single #
loop $-1 $98 $99 $39 #
cone-surface $-1 74.560059264931056 -7.317781758593938 9.3000884565882505 -0.84804810408105047 0 -0.52991925155115449 0.52991925155115449 0 -0.84804810408105047 1 I I 0 1 1 forward I I I I #
face $-1 $100 $101 $24 $-1 $102 reversed single #
loop $-1 $-1 $103 $40 #
plane-surface $-1 0 0 -12.057708249574357 0 0 1 1 0 0 forward_v I I I I #
coedge $-1 $104 $105 $106 $107 forward $41 $-1 #
face $-1 $108 $109 $25 $-1 $110 reversed single #
loop $-1 $-1 $111 $43 #
plane-surface $-1 0 -28.726414248518644 10.111555058268351 0 -1 0 0 0 -1 forward_v I I I I #
coedge $-1 $112 $113 $114 $115 reversed $44 $-1 #
face $-1 $116 $117 $26 $-1 $118 reversed single #
loop $-1 $-1 $119 $46 #
plane-surface $-1 -77.086092715231786 -9.3681098306051567 8.1886193877114408 -0.84804810408105047 0 0.52991925155115449 0.52991925155115449 0 0.84804810408105047 forward_v I I I I #
coedge $-1 $120 $121 $122 $123 reversed $47 $-1 #
face $-1 $-1 $124 $27 $-1 $125 forward single #
loop $-1 $126 $127 $49 #
cone-surface $-1 -72.81883924715973 -11.418437902616379 8.2120534687580431 0.84804810408105047 0 -0.52991925155115449 0.26495962577557725 0 0.42402405204052523 1 I I -0.70710678118654746 0.70710678118654746 0.5 forward I I I I #
loop $-1 $-1 $128 $35 #
coedge $-1 $80 $80 $129 $130 reversed $50 $-1 #
face $-1 $-1 $131 $28 $-1 $132 forward single #
loop $-1 $133 $134 $52 #
cone-surface $-1 -72.81883924715973 -7.317781758593938 8.2120534687580431 0.84804810408105047 0 -0.52991925155115449 0.26495962577557725 0 0.42402405204052523 1 I I -0.70710678118654746 0.70710678118654746 0.5 forward I I I I #
loop $-1 $-1 $135 $36 #
coedge $-1 $85 $85 $136 $137 reversed $53 $-1 #
face $-1 $138 $139 $29 $-1 $140 reversed single #
loop $-1 $-1 $141 $55 #
plane-surface $-1 -4.6127163980852686 -9.3681098306051567 138.93404894404821 0.84804810408105047 0 0.52991925155115449 0.52991925155115449 0 -0.84804810408105047 forward_v I I I I #
coedge $-1 $142 $143 $144 $145 reversed $56 $-1 #
face $-1 $-1 $146 $30 $-1 $147 forward single #
loop $-1 $148 $149 $58 #
cone-surface $-1 72.81883924715973 -11.418437902616379 8.2120534687580324 -0.84804810408105047 0 -0.52991925155115449 0.26495962577557725 0 -0.42402405204052523 1 I I -0.70710678118654746 0.70710678118654746 0.5 forward I I I I #
loop $-1 $-1 $150 $38 #
coedge $-1 $94 $94 $151 $152 reversed $59 $-1 #
face $-1 $-1 $153 $31 $-1 $154 forward single #
loop $-1 $155 $156 $61 #
cone-surface $-1 72.81883924715973 -7.317781758593938 8.2120534687580324 -0.84804810408105047 0 -0.52991925155115449 0.26495962577557725 0 -0.42402405204052523 1 I I -0.70710678118654746 0.70710678118654746 0.5 forward I I I I #
loop $-1 $-1 $157 $39 #
coedge $-1 $99 $99 $158 $159 reversed $62 $-1 #
face $-1 $160 $161 $24 $-1 $162 reversed single #
loop $-1 $-1 $163 $64 #
plane-surface $-1 0 -37.998665674175093 0 0 1 0 0 0 1 forward_v I I I I #
coedge $-1 $164 $165 $166 $167 forward $65 $-1 #
coedge $-1 $168 $67 $169 $170 forward $41 $-1 #
coedge $-1 $67 $168 $171 $172 forward $41 $-1 #
coedge $-1 $173 $174 $67 $107 reversed $175 $-1 #
edge $-1 $176 -37.998665674175093 $177 37.998665674175093 $106 $178 forward 7 unknown #
face $-1 $179 $180 $25 $-1 $181 reversed single #
loop $-1 $-1 $182 $68 #
plane-surface $-1 -77.086092715231786 0 0 1 0 0 0 0 -1 forward_v I I I I #
coedge $-1 $183 $184 $185 $186 reversed $69 $-1 #
coedge $-1 $187 $71 $188 $189 reversed $44 $-1 #
coedge $-1 $71 $187 $183 $190 forward $44 $-1 #
coedge $-1 $185 $191 $71 $115 forward $192 $-1 #
edge $-1 $193 -21.317395693501659 $194 -12.04514426784521 $114 $195 forward 7 unknown #
face $-1 $196 $197 $26 $-1 $198 forward single #
loop $-1 $-1 $199 $72 #
plane-surface $-1 -207.83152227156856 -4.5840109959123083 89.887428501028495 0 -1 0 0.84804810408105047 0 -0.52991925155115449 forward_v I I I I #
coedge $-1 $200 $201 $202 $203 reversed $73 $-1 #
coedge $-1 $121 $75 $204 $205 reversed $47 $-1 #
coedge $-1 $75 $120 $200 $206 reversed $47 $-1 #
coedge $-1 $202 $207 $75 $123 forward $197 $-1 #
edge $-1 $208 26.829668420552494 $209 29.247343389692389 $122 $210 forward 7 unknown #
loop $-1 $-1 $129 $76 #
plane-surface $-1 -77.086092715231786 -9.3681098306051567 8.1886193877114408 -0.84804810408105047 0 0.52991925155115449 0.52991925155115449 0 0.84804810408105047 forward_v I I I I #
loop $-1 $-1 $211 $49 #
coedge $-1 $127 $127 $128 $212 reversed $77 $-1 #
coedge $-1 $128 $128 $127 $212 forward $79 $-1 #
coedge $-1 $129 $129 $80 $130 forward $124 $-1 #
edge $-1 $213 0 $213 6.2831853071796004 $129 $214 forward 7 unknown #
loop $-1 $-1 $136 $81 #
plane-surface $-1 -77.086092715231786 -9.3681098306051567 8.1886193877114408 -0.84804810408105047 0 0.52991925155115449 0.52991925155115449 0 0.84804810408105047 forward_v I I I I #
loop $-1 $-1 $215 $52 #
coedge $-1 $134 $134 $135 $216 reversed $82 $-1 #
coedge $-1 $135 $135 $134 $216 forward $84 $-1 #
coedge $-1 $136 $136 $85 $137 forward $131 $-1 #
edge $-1 $217 0 $217 6.2831853071796004 $136 $218 forward 7 unknown #
face $-1 $219 $220 $29 $-1 $221 reversed single #
loop $-1 $-1 $222 $86 #
plane-surface $-1 126.13271315825151 -14.152208665298005 220.63285805736527 0 1 0 0.84804810408105047 0 0.52991925155115449 forward_v I I I I #
coedge $-1 $223 $224 $225 $226 reversed $87 $-1 #
coedge $-1 $143 $89 $227 $228 reversed $56 $-1 #
coedge $-1 $89 $142 $223 $229 reversed $56 $-1 #
coedge $-1 $225 $230 $89 $145 forward $231 $-1 #
edge $-1 $232 -14.019736136106033 $233 -11.602061166966138 $144 $234 forward 7 unknown #
loop $-1 $-1 $151 $90 #
plane-surface $-1 -4.6127163980852686 -9.3681098306051567 138.93404894404821 0.84804810408105047 0 0.52991925155115449 0.52991925155115449 0 -0.84804810408105047 forward_v I I I I #
loop $-1 $-1 $235 $58 #
coedge $-1 $149 $149 $150 $236 reversed $91 $-1 #
coedge $-1 $150 $150 $149 $236 forward $93 $-1 #
coedge $-1 $151 $151 $94 $152 forward $146 $-1 #
edge $-1 $237 0 $237 6.2831853071796004 $151 $238 forward 7 unknown #
loop $-1 $-1 $158 $95 #
plane-surface $-1 -4.6127163980852686 -9.3681098306051567 138.93404894404821 0.84804810408105047 0 0.52991925155115449 0.52991925155115449 0 -0.84804810408105047 forward_v I I I I #
loop $-1 $-1 $239 $61 #
coedge $-1 $156 $156 $157 $240 reversed $96 $-1 #
coedge $-1 $157 $157 $156 $240 forward $98 $-1 #
coedge $-1 $158 $158 $99 $159 forward $153 $-1 #
edge $-1 $241 0 $241 6.2831853071796004 $158 $242 forward 7 unknown #
face $-1 $243 $244 $24 $-1 $245 reversed single #
loop $-1 $-1 $246 $100 #
plane-surface $-1 -77.086092715231786 0 0 1 0 0 0 0 -1 forward_v I I I I #
coedge $-1 $247 $171 $248 $249 forward $101 $-1 #
coedge $-1 $250 $103 $247 $251 forward $65 $-1 #
coedge $-1 $103 $250 $252 $253 forward $65 $-1 #
coedge $-1 $174 $173 $103 $167 reversed $175 $-1 #
edge $-1 $254 -37.998665674175093 $255 37.998665674175093 $166 $256 forward 7 unknown #
coedge $-1 $105 $104 $257 $258 forward $41 $-1 #
coedge $-1 $259 $260 $104 $170 reversed $244 $-1 #
edge $-1 $177 -77.086092715231786 $261 77.086092715231786 $169 $262 forward 7 unknown #
coedge $-1 $163 $263 $105 $172 reversed $101 $-1 #
edge $-1 $264 -77.086092715231786 $176 77.086092715231786 $171 $265 forward 7 unknown #
coedge $-1 $166 $106 $263 $266 forward $175 $-1 #
coedge $-1 $106 $166 $259 $267 reversed $175 $-1 #
loop $-1 $-1 $173 $243 #
vertex $-1 $107 $268 #
vertex $-1 $107 $269 #
straight-curve $-1 77.086092715231786 0 12.057708249574357 0 1 0 I I #
face $-1 $270 $271 $25 $-1 $272 forward single #
loop $-1 $-1 $188 $108 #
plane-surface $-1 0 -37.998665674175093 0 0 1 0 0 0 1 forward_v I I I I #
coedge $-1 $273 $274 $275 $276 forward $109 $-1 #
coedge $-1 $275 $111 $113 $190 reversed $69 $-1 #
coedge $-1 $111 $275 $277 $278 reversed $69 $-1 #
coedge $-1 $279 $114 $111 $186 forward $192 $-1 #
edge $-1 $194 3.1096243378281692 $280 7.0019307204401819 $185 $281 forward 7 unknown #
coedge $-1 $113 $112 $273 $282 reversed $44 $-1 #
coedge $-1 $283 $284 $112 $189 forward $180 $-1 #
edge $-1 $285 -77.086092715231786 $193 77.086092715231786 $188 $286 forward 7 unknown #
edge $-1 $287 -77.086092715231786 $194 77.086092715231786 $183 $288 forward 7 unknown #
coedge $-1 $114 $279 $283 $289 forward $192 $-1 #
loop $-1 $-1 $185 $270 #
vertex $-1 $189 $290 #
vertex $-1 $115 $291 #
straight-curve $-1 77.086092715231786 -16.681269980673434 8.1654018669623447 0 1 0 I I #
face $-1 $-1 $292 $26 $-1 $293 reversed single #
loop $-1 $-1 $122 $116 #
plane-surface $-1 0 0 12.057708249574357 0 0 1 1 0 0 forward_v I I I I #
coedge $-1 $294 $295 $296 $297 reversed $117 $-1 #
coedge $-1 $298 $119 $121 $206 forward $73 $-1 #
coedge $-1 $119 $298 $294 $299 forward $73 $-1 #
coedge $-1 $296 $122 $119 $203 forward $197 $-1 #
edge $-1 $209 -9.4681537499954267 $300 0.10004391939027002 $202 $301 forward 7 unknown #
coedge $-1 $302 $303 $120 $205 forward $292 $-1 #
edge $-1 $304 -36.755094862802807 $208 -32.886006000939886 $204 $305 forward 7 unknown #
edge $-1 $209 -4.5623459839645299 $304 0 $121 $306 forward 7 unknown #
coedge $-1 $122 $296 $302 $307 forward $197 $-1 #
vertex $-1 $205 $308 #
vertex $-1 $123 $309 #
straight-curve $-1 -103.91576113578428 -14.152208665298005 12.057708249574354 1 0 0 I I #
coedge $-1 $211 $211 $-1 $310 reversed $126 $-1 #
edge $-1 $311 0 $311 6.2831853071796004 $127 $312 forward 7 unknown #
vertex $-1 $130 $313 #
ellipse-curve $-1 -75.877255230661831 -11.418437902616379 10.123163818642896 -0.84804810408105047 0 0.52991925155115449 0.52991925155115449 0 0.84804810408105047 1 I I #
coedge $-1 $215 $215 $-1 $314 reversed $133 $-1 #
edge $-1 $315 0 $315 6.2831853071796004 $134 $316 forward 7 unknown #
vertex $-1 $137 $317 #
ellipse-curve $-1 -75.877255230661831 -7.317781758593938 10.123163818642896 -0.84804810408105047 0 0.52991925155115449 0.52991925155115449 0 0.84804810408105047 1 I I #
face $-1 $-1 $231 $29 $-1 $318 forward single #
loop $-1 $-1 $319 $138 #
plane-surface $-1 77.086092715231786 0 0 -1 0 0 0 0 1 forward_v I I I I #
coedge $-1 $320 $321 $322 $323 reversed $139 $-1 #
coedge $-1 $324 $141 $143 $229 forward $87 $-1 #
coedge $-1 $141 $324 $320 $325 forward $87 $-1 #
coedge $-1 $322 $144 $141 $226 forward $231 $-1 #
edge $-1 $233 -0.10004391939027002 $326 9.4681537499954267 $225 $327 forward 7 unknown #
coedge $-1 $328 $329 $142 $228 forward $220 $-1 #
edge $-1 $330 -102.12780964097119 $232 -98.258720779108273 $227 $331 forward 7 unknown #
edge $-1 $233 149.60983944649902 $330 154.17218543046357 $143 $332 forward 7 unknown #
coedge $-1 $144 $322 $328 $333 forward $231 $-1 #
loop $-1 $-1 $322 $219 #
vertex $-1 $228 $334 #
vertex $-1 $145 $335 #
straight-curve $-1 63.066356579125753 -4.5840109959123083 12.057708249574361 -1 0 0 I I #
coedge $-1 $235 $235 $-1 $336 reversed $148 $-1 #
edge $-1 $337 0 $337 6.2831853071796004 $149 $338 forward 7 unknown #
vertex $-1 $152 $339 #
ellipse-curve $-1 75.877255230661845 -11.418437902616379 10.123163818642892 0.84804810408105047 0 0.52991925155115449 0.52991925155115449 0 -0.84804810408105047 1 I I #
coedge $-1 $239 $239 $-1 $340 reversed $155 $-1 #
edge $-1 $341 0 $341 6.2831853071796004 $156 $342 forward 7 unknown #
vertex $-1 $159 $343 #
ellipse-curve $-1 75.877255230661845 -7.317781758593938 10.123163818642892 0.84804810408105047 0 0.52991925155115449 0.52991925155115449 0 -0.84804810408105047 1 I I #
face $-1 $-1 $175 $24 $-1 $344 reversed single #
loop $-1 $-1 $259 $160 #
plane-surface $-1 0 37.998665674175093 0 0 -1 0 0 0 -1 forward_v I I I I #
coedge $-1 $345 $257 $260 $346 forward $161 $-1 #
coedge $-1 $263 $163 $164 $251 reversed $101 $-1 #
coedge $-1 $257 $345 $163 $249 reversed $161 $-1 #
edge $-1 $264 -12.057708249574357 $347 12.057708249574357 $248 $348 forward 7 unknown #
coedge $-1 $165 $164 $345 $349 forward $65 $-1 #
edge $-1 $255 -77.086092715231786 $347 77.086092715231786 $247 $350 forward 7 unknown #
coedge $-1 $260 $259 $165 $253 reversed $244 $-1 #
edge $-1 $351 -77.086092715231786 $254 77.086092715231786 $252 $352 forward 7 unknown #
vertex $-1 $167 $353 #
vertex $-1 $266 $354 #
straight-curve $-1 77.086092715231786 0 -12.057708249574357 0 -1 0 I I #
coedge $-1 $246 $248 $168 $258 reversed $161 $-1 #
edge $-1 $261 -37.998665674175093 $264 37.998665674175093 $257 $355 forward 7 unknown #
coedge $-1 $252 $169 $174 $267 forward $244 $-1 #
coedge $-1 $169 $252 $246 $346 reversed $244 $-1 #
vertex $-1 $170 $356 #
straight-curve $-1 0 37.998665674175093 12.057708249574357 -1 0 0 I I #
coedge $-1 $171 $247 $173 $266 reversed $101 $-1 #
vertex $-1 $258 $357 #
straight-curve $-1 0 -37.998665674175093 12.057708249574357 1 0 0 I I #
edge $-1 $176 -12.057708249574357 $255 12.057708249574357 $173 $358 forward 7 unknown #
edge $-1 $177 -12.057708249574357 $254 12.057708249574357 $174 $359 forward 7 unknown #
point $-1 77.086092715231786 -37.998665674175093 12.057708249574357 #
point $-1 77.086092715231786 37.998665674175093 12.057708249574357 #
face $-1 $-1 $192 $25 $-1 $360 reversed single #
loop $-1 $-1 $277 $179 #
plane-surface $-1 0 0 12.057708249574357 0 0 1 1 0 0 forward_v I I I I #
coedge $-1 $361 $182 $187 $282 forward $109 $-1 #
coedge $-1 $182 $361 $362 $363 reversed $109 $-1 #
coedge $-1 $184 $183 $182 $276 reversed $69 $-1 #
edge $-1 $364 -7.0019307204401819 $287 -3.1096243378281692 $182 $365 forward 7 unknown #
coedge $-1 $362 $366 $184 $278 forward $271 $-1 #
edge $-1 $280 -77.086092715231786 $364 77.086092715231786 $277 $367 forward 7 unknown #
coedge $-1 $191 $185 $366 $368 reversed $192 $-1 #
vertex $-1 $186 $369 #
straight-curve $-1 77.086092715231786 -28.726414248518644 5.0557775291341756 0 0 1 I I #
edge $-1 $287 12.04514426784521 $285 21.317395693501659 $273 $370 forward 7 unknown #
coedge $-1 $371 $188 $191 $289 reversed $180 $-1 #
coedge $-1 $188 $371 $361 $372 forward $180 $-1 #
vertex $-1 $189 $373 #
straight-curve $-1 0 -37.998665674175093 8.1654018669623447 1 0 0 I I #
vertex $-1 $282 $374 #
straight-curve $-1 0 -28.726414248518644 8.1654018669623447 1 0 0 I I #
edge $-1 $375 -12.057708249574357 $193 -8.1654018669623447 $191 $376 forward 7 unknown #
point $-1 77.086092715231786 -37.998665674175093 8.1654018669623447 #
point $-1 77.086092715231786 -28.726414248518644 8.1654018669623447 #
loop $-1 $-1 $204 $196 #
plane-surface $-1 -77.086092715231786 0 0 1 0 0 0 0 -1 forward_v I I I I #
coedge $-1 $295 $199 $201 $299 reversed $117 $-1 #
coedge $-1 $199 $294 $377 $378 reversed $117 $-1 #
coedge $-1 $207 $202 $199 $297 forward $197 $-1 #
edge $-1 $300 -29.247343389692389 $379 -26.829668420552494 $296 $380 forward 7 unknown #
coedge $-1 $201 $200 $303 $381 reversed $73 $-1 #
edge $-1 $382 0 $300 4.5623459839645299 $294 $383 forward 7 unknown #
vertex $-1 $203 $384 #
straight-curve $-1 -74.66841774609189 -4.6840549153025783 12.057708249574357 0 1 0 I I #
coedge $-1 $377 $204 $207 $307 reversed $292 $-1 #
coedge $-1 $204 $377 $298 $381 forward $292 $-1 #
vertex $-1 $205 $385 #
straight-curve $-1 -77.086092715231786 -14.152208665298005 44.943714250514248 0 0 1 I I #
straight-curve $-1 -77.086092715231786 -14.152208665298005 8.1886193877114408 -0.52991925155115449 0 -0.84804810408105047 I I #
edge $-1 $379 4.5840109959123083 $208 14.152208665298005 $302 $386 forward 7 unknown #
point $-1 -77.086092715231786 -14.152208665298005 12.057708249574357 #
point $-1 -74.66841774609189 -14.152208665298005 12.057708249574357 #
edge $-1 $387 1 $387 0 $211 $-1 forward 7 unknown #
vertex $-1 $212 $388 #
ellipse-curve $-1 -73.242863299200252 -11.418437902616379 8.4770130945336195 -0.84804810408105047 0 0.52991925155115449 0.52991925155115449 0 0.84804810408105047 1 I I #
point $-1 -75.347335979110696 -11.418437902616379 10.971211922723954 #
edge $-1 $389 1 $389 0 $215 $-1 forward 7 unknown #
vertex $-1 $216 $390 #
ellipse-curve $-1 -73.242863299200252 -7.317781758593938 8.4770130945336195 -0.84804810408105047 0 0.52991925155115449 0.52991925155115449 0 0.84804810408105047 1 I I #
point $-1 -75.347335979110696 -7.317781758593938 10.971211922723954 #
plane-surface $-1 0 0 12.057708249574357 0 0 1 1 0 0 forward_v I I I I #
coedge $-1 $329 $328 $321 $391 forward $220 $-1 #
coedge $-1 $321 $222 $224 $325 reversed $139 $-1 #
coedge $-1 $222 $320 $319 $391 reversed $139 $-1 #
coedge $-1 $230 $225 $222 $323 forward $231 $-1 #
edge $-1 $326 11.602061166966138 $392 14.019736136106033 $322 $393 forward 7 unknown #
coedge $-1 $224 $223 $329 $394 reversed $87 $-1 #
edge $-1 $395 -154.17218543046357 $326 -149.60983944649902 $320 $396 forward 7 unknown #
vertex $-1 $226 $397 #
straight-curve $-1 74.668417746091876 -4.6840549153025783 12.057708249574361 0 -1 0 I I #
coedge $-1 $319 $227 $230 $333 reversed $220 $-1 #
coedge $-1 $227 $319 $324 $394 forward $220 $-1 #
vertex $-1 $228 $398 #
straight-curve $-1 77.086092715231786 -4.5840109959123083 110.31642902868263 0 0 1 I I #
straight-curve $-1 -4.6127163980852686 -4.5840109959123083 138.93404894404821 0.52991925155115449 0 -0.84804810408105047 I I #
edge $-1 $392 -14.152208665298005 $232 -4.5840109959123083 $328 $399 forward 7 unknown #
point $-1 77.086092715231786 -4.5840109959123083 12.057708249574357 #
point $-1 74.66841774609189 -4.5840109959123083 12.057708249574361 #
edge $-1 $400 1 $400 0 $235 $-1 forward 7 unknown #
vertex $-1 $236 $401 #
ellipse-curve $-1 73.242863299200252 -11.418437902616379 8.4770130945336089 0.84804810408105047 0 0.52991925155115449 0.52991925155115449 0 -0.84804810408105047 1 I I #
point $-1 76.407174482212994 -11.418437902616379 9.2751157145618421 #
edge $-1 $402 1 $402 0 $239 $-1 forward 7 unknown #
vertex $-1 $240 $403 #
ellipse-curve $-1 73.242863299200252 -7.317781758593938 8.4770130945336089 0.84804810408105047 0 0.52991925155115449 0.52991925155115449 0 -0.84804810408105047 1 I I #
point $-1 76.407174482212994 -7.317781758593938 9.2751157145618421 #
plane-surface $-1 77.086092715231786 0 0 -1 0 0 0 0 1 forward_v I I I I #
coedge $-1 $248 $246 $250 $349 reversed $161 $-1 #
edge $-1 $261 -12.057708249574357 $351 12.057708249574357 $260 $404 forward 7 unknown #
vertex $-1 $349 $405 #
straight-curve $-1 -77.086092715231786 -37.998665674175093 0 0 0 -1 I I #
edge $-1 $347 -37.998665674175093 $351 37.998665674175093 $345 $406 forward 7 unknown #
straight-curve $-1 0 -37.998665674175093 -12.057708249574357 -1 0 0 I I #
vertex $-1 $253 $407 #
straight-curve $-1 0 37.998665674175093 -12.057708249574357 1 0 0 I I #
point $-1 77.086092715231786 37.998665674175093 -12.057708249574357 #
point $-1 77.086092715231786 -37.998665674175093 -12.057708249574357 #
straight-curve $-1 -77.086092715231786 0 12.057708249574357 0 -1 0 I I #
point $-1 -77.086092715231786 37.998665674175093 12.057708249574357 #
point $-1 -77.086092715231786 -37.998665674175093 12.057708249574357 #
straight-curve $-1 77.086092715231786 -37.998665674175093 0 0 0 -1 I I #
straight-curve $-1 77.086092715231786 37.998665674175093 0 0 0 -1 I I #
plane-surface $-1 77.086092715231786 0 0 -1 0 0 0 0 1 forward_v I I I I #
coedge $-1 $274 $273 $284 $372 reversed $109 $-1 #
coedge $-1 $408 $277 $274 $363 forward $271 $-1 #
edge $-1 $364 28.726414248518644 $409 37.998665674175093 $274 $410 forward 7 unknown #
vertex $-1 $363 $411 #
straight-curve $-1 -77.086092715231786 -28.726414248518644 5.0557775291341756 0 0 -1 I I #
coedge $-1 $277 $408 $279 $368 forward $271 $-1 #
straight-curve $-1 0 -28.726414248518644 12.057708249574357 -1 0 0 I I #
edge $-1 $375 -37.998665674175093 $280 -28.726414248518644 $279 $412 forward 7 unknown #
point $-1 77.086092715231786 -28.726414248518644 12.057708249574357 #
straight-curve $-1 -77.086092715231786 -16.681269980673434 8.1654018669623447 0 -1 0 I I #
coedge $-1 $284 $283 $408 $413 reversed $180 $-1 #
edge $-1 $409 -12.057708249574357 $285 -8.1654018669623447 $361 $414 forward 7 unknown #
point $-1 -77.086092715231786 -37.998665674175093 8.1654018669623447 #
point $-1 -77.086092715231786 -28.726414248518644 8.1654018669623447 #
vertex $-1 $368 $415 #
straight-curve $-1 77.086092715231786 -37.998665674175093 0 0 0 -1 I I #
coedge $-1 $303 $302 $295 $378 forward $292 $-1 #
edge $-1 $379 32.886006000939886 $382 36.755094862802807 $377 $416 forward 7 unknown #
vertex $-1 $307 $417 #
straight-curve $-1 -103.91576113578428 -4.5840109959123083 12.057708249574354 -1 0 0 I I #
edge $-1 $382 -0.10004391939027002 $304 9.4681537499954267 $303 $418 forward 7 unknown #
vertex $-1 $381 $419 #
straight-curve $-1 -77.086092715231786 -4.5840109959123083 8.1886193877114408 0.52991925155115449 0 0.84804810408105047 I I #
point $-1 -74.66841774609189 -4.5840109959123083 12.057708249574357 #
point $-1 -77.086092715231786 -14.152208665298005 8.1886193877114408 #
straight-curve $-1 -77.086092715231786 0 12.057708249574357 0 -1 0 I I #
vertex $-1 $310 $420 #
point $-1 -72.712944047649103 -11.418437902616379 9.3250611986146712 #
vertex $-1 $314 $421 #
point $-1 -72.712944047649103 -7.317781758593938 9.3250611986146712 #
edge $-1 $392 98.258720779108273 $395 102.12780964097119 $319 $422 forward 7 unknown #
vertex $-1 $333 $423 #
straight-curve $-1 63.066356579125753 -14.152208665298005 12.057708249574361 1 0 0 I I #
edge $-1 $395 -9.4681537499954267 $330 0.10004391939027002 $329 $424 forward 7 unknown #
vertex $-1 $394 $425 #
straight-curve $-1 -4.6127163980852686 -14.152208665298005 138.93404894404821 -0.52991925155115449 0 0.84804810408105047 I I #
point $-1 74.66841774609189 -14.152208665298005 12.057708249574361 #
point $-1 77.086092715231786 -4.5840109959123083 8.1886193877114408 #
straight-curve $-1 77.086092715231786 0 12.057708249574357 0 1 0 I I #
vertex $-1 $336 $426 #
point $-1 73.772782550751415 -11.418437902616379 7.6289649904525589 #
vertex $-1 $340 $427 #
point $-1 73.772782550751415 -7.317781758593938 7.6289649904525589 #
straight-curve $-1 -77.086092715231786 37.998665674175093 0 0 0 -1 I I #
point $-1 -77.086092715231786 -37.998665674175093 -12.057708249574357 #
straight-curve $-1 -77.086092715231786 0 -12.057708249574357 0 1 0 I I #
point $-1 -77.086092715231786 37.998665674175093 -12.057708249574357 #
coedge $-1 $366 $362 $371 $413 forward $271 $-1 #
vertex $-1 $363 $428 #
straight-curve $-1 -77.086092715231786 0 12.057708249574357 0 -1 0 I I #
point $-1 -77.086092715231786 -28.726414248518644 12.057708249574357 #
straight-curve $-1 77.086092715231786 0 12.057708249574357 0 1 0 I I #
edge $-1 $409 -77.086092715231786 $375 77.086092715231786 $371 $429 forward 7 unknown #
straight-curve $-1 -77.086092715231786 -37.998665674175093 0 0 0 -1 I I #
point $-1 77.086092715231786 -37.998665674175093 12.057708249574357 #
straight-curve $-1 -77.086092715231786 -4.5840109959123083 44.943714250514248 0 0 -1 I I #
point $-1 -77.086092715231786 -4.5840109959123083 12.057708249574357 #
straight-curve $-1 -77.086092715231786 -4.6840549153025783 8.1886193877114373 0 -1 0 I I #
point $-1 -77.086092715231786 -4.5840109959123083 8.1886193877114408 #
point $-1 -72.394815195119207 -11.418437902616379 7.9470938429824658 #
point $-1 -72.394815195119207 -7.317781758593938 7.9470938429824658 #
straight-curve $-1 77.086092715231786 -14.152208665298005 110.31642902868263 0 0 -1 I I #
point $-1 77.086092715231786 -14.152208665298005 12.057708249574357 #
straight-curve $-1 77.086092715231786 -4.6840549153025783 8.1886193877114337 0 1 0 I I #
point $-1 77.086092715231786 -14.152208665298005 8.1886193877114408 #
point $-1 72.394815195119207 -11.418437902616379 7.9470938429824551 #
point $-1 72.394815195119207 -7.317781758593938 7.9470938429824551 #
point $-1 -77.086092715231786 -37.998665674175093 12.057708249574357 #
straight-curve $-1 0 -37.998665674175093 12.057708249574357 1 0 0 I I #
End-of-ACIS-data 