500 0 10 0           
7 Unknown 11 ACIS 5.0 NT 24 Fri Mar 26 19:28:12 1999 
-1 9.9999999999999995e-007 1e-010 
body $-1 $10 $-1 $11 #
body $-1 $12 $-1 $13 #
body $-1 $14 $-1 $15 #
body $-1 $16 $-1 $17 #
body $-1 $18 $-1 $19 #
body $-1 $20 $-1 $21 #
body $-1 $22 $-1 $23 #
body $-1 $24 $-1 $25 #
body $-1 $26 $-1 $27 #
body $-1 $28 $-1 $29 #
lump $-1 $-1 $30 $0 #
transform $-1 1 0 0 0 1 0 0 0 1 76.957914975432601 32.713748774981099 16.080424390975999 1 rotate no_reflect no_shear #
lump $-1 $-1 $31 $1 #
transform $-1 1 0 0 0 1 0 0 0 1 76.957914975432601 32.713748774981099 16.080424390975999 1 rotate no_reflect no_shear #
lump $-1 $-1 $32 $2 #
transform $-1 1 0 0 0 1 0 0 0 1 76.957914975432601 32.713748774981099 16.080424390975999 1 rotate no_reflect no_shear #
lump $-1 $-1 $33 $3 #
transform $-1 1 0 0 0 1 0 0 0 1 76.957914975432601 32.713748774981099 16.080424390975999 1 rotate no_reflect no_shear #
lump $-1 $-1 $34 $4 #
transform $-1 1 0 0 0 1 0 0 0 1 76.957914975432601 32.713748774981099 16.080424390975999 1 rotate no_reflect no_shear #
lump $-1 $-1 $35 $5 #
transform $-1 1 0 0 0 1 0 0 0 1 76.957914975432601 32.713748774981099 16.080424390975999 1 rotate no_reflect no_shear #
lump $-1 $-1 $36 $6 #
transform $-1 1 0 0 0 1 0 0 0 1 76.957914975432601 32.713748774981099 16.080424390975999 1 rotate no_reflect no_shear #
lump $-1 $-1 $37 $7 #
transform $-1 1 0 0 0 1 0 0 0 1 76.957914975432601 32.713748774981099 16.080424390975999 1 rotate no_reflect no_shear #
lump $-1 $-1 $38 $8 #
transform $-1 1 0 0 0 1 0 0 0 1 76.957914975432601 32.713748774981099 16.080424390975999 1 rotate no_reflect no_shear #
lump $-1 $-1 $39 $9 #
transform $-1 1 0 0 0 1 0 0 0 1 76.957914975432601 32.713748774981099 16.080424390975999 1 rotate no_reflect no_shear #
shell $-1 $-1 $-1 $40 $-1 $10 #
shell $-1 $-1 $-1 $41 $-1 $12 #
shell $-1 $-1 $-1 $42 $-1 $14 #
shell $-1 $-1 $-1 $43 $-1 $16 #
shell $-1 $-1 $-1 $44 $-1 $18 #
shell $-1 $-1 $-1 $45 $-1 $20 #
shell $-1 $-1 $-1 $46 $-1 $22 #
shell $-1 $-1 $-1 $47 $-1 $24 #
shell $-1 $-1 $-1 $48 $-1 $26 #
shell $-1 $-1 $-1 $49 $-1 $28 #
face $-1 $50 $51 $30 $-1 $52 forward single #
face $-1 $53 $54 $31 $-1 $55 forward single #
face $-1 $56 $57 $32 $-1 $58 reversed single #
face $-1 $59 $60 $33 $-1 $61 forward single #
face $-1 $62 $63 $34 $-1 $64 forward single #
face $-1 $65 $66 $35 $-1 $67 reversed single #
face $-1 $68 $69 $36 $-1 $70 forward single #
face $-1 $71 $72 $37 $-1 $73 forward single #
face $-1 $74 $75 $38 $-1 $76 reversed single #
face $-1 $77 $78 $39 $-1 $79 forward single #
face $-1 $80 $81 $30 $-1 $82 reversed single #
loop $-1 $-1 $83 $40 #
plane-surface $-1 0 0 16.080424390975999 0 0 1 1 0 0 forward_v I I I I #
face $-1 $84 $85 $31 $-1 $86 reversed single #
loop $-1 $-1 $87 $41 #
plane-surface $-1 0 -32.713748774981099 0 0 1 0 0 0 1 forward_v I I I I #
face $-1 $88 $89 $32 $-1 $90 reversed single #
loop $-1 $-1 $91 $42 #
plane-surface $-1 -187.67569862934542 -10.823488751675422 108.07778155512926 0 1 0 -0.71933980857756763 0 0.69465836192734942 forward_v I I I I #
face $-1 $92 $93 $33 $-1 $94 forward single #
loop $-1 $95 $96 $43 #
cone-surface $-1 -69.197564978258029 -7.3517986506538975 8.0831475929118444 0.71933980857756763 0 -0.69465836192734942 1.0419875428910241 0 1.0790097128663514 1 I I 0 1 1.5 forward I I I I #
face $-1 $97 $98 $34 $-1 $99 forward single #
loop $-1 $100 $101 $44 #
cone-surface $-1 -69.197564978258029 -2.1442634991216067 8.0831475929118444 0.71933980857756763 0 -0.69465836192734942 1.0419875428910241 0 1.0790097128663514 1 I I 0 1 1.5 forward I I I I #
face $-1 $102 $103 $35 $-1 $104 reversed single #
loop $-1 $-1 $105 $45 #
plane-surface $-1 -187.67569862934542 11.72814859851403 108.07778155512926 0 1 0 -0.71933980857756763 0 0.69465836192734942 forward_v I I I I #
face $-1 $106 $107 $36 $-1 $108 forward single #
loop $-1 $109 $110 $46 #
cone-surface $-1 -69.197564978258029 15.199838699535555 8.0831475929118444 0.71933980857756763 0 -0.69465836192734942 1.0419875428910241 0 1.0790097128663514 1 I I 0 1 1.5 forward I I I I #
face $-1 $111 $112 $37 $-1 $113 forward single #
loop $-1 $114 $115 $47 #
cone-surface $-1 -69.197564978258029 20.407373851067845 8.0831475929118444 0.71933980857756763 0 -0.69465836192734942 1.0419875428910241 0 1.0790097128663514 1 I I 0 1 1.5 forward I I I I #
face $-1 $116 $117 $38 $-1 $118 reversed single #
loop $-1 $-1 $119 $48 #
plane-surface $-1 50.430634884139636 18.915026956227507 228.360947043941 0 1 0 0.61566148304635926 0 0.78801074757464917 forward_v I I I I #
face $-1 $120 $121 $39 $-1 $122 forward single #
loop $-1 $123 $124 $49 #
cone-surface $-1 72.807168647305289 25.814387865604303 11.96980962708302 -0.61566148304635926 0 -0.78801074757464917 1.1820161213619738 0 -0.92349222456953894 1 I I 0 1 1.5 forward I I I I #
face $-1 $125 $126 $30 $-1 $127 reversed single #
loop $-1 $-1 $128 $50 #
plane-surface $-1 0 0 -16.080424390975999 0 0 1 1 0 0 forward_v I I I I #
coedge $-1 $129 $130 $131 $132 forward $51 $-1 #
face $-1 $133 $134 $31 $-1 $135 reversed single #
loop $-1 $-1 $136 $53 #
plane-surface $-1 0 0 -16.080424390975999 0 0 1 1 0 0 forward_v I I I I #
coedge $-1 $137 $138 $139 $140 forward $54 $-1 #
face $-1 $141 $142 $32 $-1 $143 reversed single #
loop $-1 $-1 $144 $56 #
plane-surface $-1 -76.957914975432601 -4.7480310748877486 1.158863246772782 -0.71933980857756763 0 0.69465836192734942 0.69465836192734942 0 0.71933980857756763 forward_v I I I I #
coedge $-1 $145 $146 $147 $148 reversed $57 $-1 #
face $-1 $-1 $149 $33 $-1 $150 forward single #
loop $-1 $151 $152 $59 #
cone-surface $-1 -68.102502003420113 -7.3517986506538975 7.0256575955037945 0.71933980857756763 0 -0.69465836192734942 0.52099377144551207 0 0.53950485643317569 1 I I -0.70710678118654757 0.70710678118654757 0.75 forward I I I I #
loop $-1 $-1 $153 $43 #
coedge $-1 $96 $96 $154 $155 reversed $60 $-1 #
face $-1 $-1 $156 $34 $-1 $157 forward single #
loop $-1 $158 $159 $62 #
cone-surface $-1 -68.102502003420113 -2.1442634991216067 7.0256575955037945 0.71933980857756763 0 -0.69465836192734942 0.52099377144551207 0 0.53950485643317569 1 I I -0.70710678118654757 0.70710678118654757 0.75 forward I I I I #
loop $-1 $-1 $160 $44 #
coedge $-1 $101 $101 $161 $162 reversed $63 $-1 #
face $-1 $163 $164 $35 $-1 $165 reversed single #
loop $-1 $-1 $166 $65 #
plane-surface $-1 -76.957914975432601 17.803606275301703 1.158863246772782 -0.71933980857756763 0 0.69465836192734942 0.69465836192734942 0 0.71933980857756763 forward_v I I I I #
coedge $-1 $167 $168 $169 $170 reversed $66 $-1 #
face $-1 $-1 $171 $36 $-1 $172 forward single #
loop $-1 $173 $174 $68 #
cone-surface $-1 -68.102502003420113 15.199838699535555 7.0256575955037945 0.71933980857756763 0 -0.69465836192734942 0.52099377144551207 0 0.53950485643317569 1 I I -0.70710678118654757 0.70710678118654757 0.75 forward I I I I #
loop $-1 $-1 $175 $46 #
coedge $-1 $110 $110 $176 $177 reversed $69 $-1 #
face $-1 $-1 $178 $37 $-1 $179 forward single #
loop $-1 $180 $181 $71 #
cone-surface $-1 -68.102502003420113 20.407373851067845 7.0256575955037945 0.71933980857756763 0 -0.69465836192734942 0.52099377144551207 0 0.53950485643317569 1 I I -0.70710678118654757 0.70710678118654757 0.75 forward I I I I #
loop $-1 $-1 $182 $47 #
coedge $-1 $115 $115 $183 $184 reversed $72 $-1 #
face $-1 $185 $186 $38 $-1 $187 reversed single #
loop $-1 $-1 $188 $74 #
plane-surface $-1 -44.329413247721277 25.814387865604303 107.07361882078713 0.61566148304635926 0 0.78801074757464917 0.78801074757464917 0 -0.61566148304635926 forward_v I I I I #
coedge $-1 $189 $190 $191 $192 reversed $75 $-1 #
face $-1 $-1 $193 $39 $-1 $194 forward single #
loop $-1 $195 $196 $77 #
cone-surface $-1 70.605352596025938 25.814387865604303 9.1516136535339356 -0.61566148304635926 0 -0.78801074757464917 0.59100806068098688 0 -0.46174611228476947 1 I I -0.70710678118654757 0.70710678118654757 0.75 forward I I I I #
loop $-1 $-1 $197 $49 #
coedge $-1 $124 $124 $198 $199 reversed $78 $-1 #
face $-1 $200 $201 $30 $-1 $202 reversed single #
loop $-1 $-1 $203 $80 #
plane-surface $-1 0 -32.713748774981099 0 0 1 0 0 0 1 forward_v I I I I #
coedge $-1 $204 $205 $206 $207 forward $81 $-1 #
coedge $-1 $208 $83 $209 $210 forward $51 $-1 #
coedge $-1 $83 $208 $211 $212 forward $51 $-1 #
coedge $-1 $213 $214 $83 $132 reversed $215 $-1 #
edge $-1 $216 -32.713748774981099 $217 32.713748774981099 $131 $218 forward 7 unknown #
face $-1 $219 $220 $31 $-1 $221 forward single #
loop $-1 $-1 $222 $84 #
plane-surface $-1 76.957914975432601 0 0 -1 0 0 0 0 1 forward_v I I I I #
coedge $-1 $223 $224 $225 $226 forward $85 $-1 #
coedge $-1 $225 $87 $222 $227 reversed $54 $-1 #
coedge $-1 $87 $225 $228 $229 reversed $54 $-1 #
coedge $-1 $230 $231 $87 $140 reversed $220 $-1 #
edge $-1 $232 -76.957914975432601 $233 76.957914975432601 $139 $234 forward 7 unknown #
face $-1 $235 $236 $32 $-1 $237 forward single #
loop $-1 $-1 $238 $88 #
plane-surface $-1 -187.67569862934542 1.3274266018999246 108.07778155512926 0 -1 0 0.71933980857756763 0 -0.69465836192734942 forward_v I I I I #
coedge $-1 $239 $240 $241 $242 reversed $89 $-1 #
coedge $-1 $146 $91 $243 $244 reversed $57 $-1 #
coedge $-1 $91 $145 $239 $245 reversed $57 $-1 #
coedge $-1 $241 $246 $91 $148 forward $236 $-1 #
edge $-1 $247 16.879934339240108 $248 31.289518096779751 $147 $249 forward 7 unknown #
loop $-1 $-1 $154 $92 #
plane-surface $-1 -76.957914975432601 -4.7480310748877486 1.158863246772782 -0.71933980857756763 0 0.69465836192734942 0.69465836192734942 0 0.71933980857756763 forward_v I I I I #
loop $-1 $-1 $250 $59 #
coedge $-1 $152 $152 $153 $251 reversed $93 $-1 #
coedge $-1 $153 $153 $152 $251 forward $95 $-1 #
coedge $-1 $154 $154 $96 $155 forward $149 $-1 #
edge $-1 $252 0 $252 6.2831853071796004 $154 $253 forward 7 unknown #
loop $-1 $-1 $161 $97 #
plane-surface $-1 -76.957914975432601 -4.7480310748877486 1.158863246772782 -0.71933980857756763 0 0.69465836192734942 0.69465836192734942 0 0.71933980857756763 forward_v I I I I #
loop $-1 $-1 $254 $62 #
coedge $-1 $159 $159 $160 $255 reversed $98 $-1 #
coedge $-1 $160 $160 $159 $255 forward $100 $-1 #
coedge $-1 $161 $161 $101 $162 forward $156 $-1 #
edge $-1 $256 0 $256 6.2831853071796004 $161 $257 forward 7 unknown #
face $-1 $258 $259 $35 $-1 $260 forward single #
loop $-1 $-1 $261 $102 #
plane-surface $-1 -187.67569862934542 23.879063952089375 108.07778155512926 0 -1 0 0.71933980857756763 0 -0.69465836192734942 forward_v I I I I #
coedge $-1 $262 $263 $264 $265 reversed $103 $-1 #
coedge $-1 $168 $105 $266 $267 reversed $66 $-1 #
coedge $-1 $105 $167 $262 $268 reversed $66 $-1 #
coedge $-1 $264 $269 $105 $170 forward $259 $-1 #
edge $-1 $270 16.879934339240108 $271 31.289518096779751 $169 $272 forward 7 unknown #
loop $-1 $-1 $176 $106 #
plane-surface $-1 -76.957914975432601 17.803606275301703 1.158863246772782 -0.71933980857756763 0 0.69465836192734942 0.69465836192734942 0 0.71933980857756763 forward_v I I I I #
loop $-1 $-1 $273 $68 #
coedge $-1 $174 $174 $175 $274 reversed $107 $-1 #
coedge $-1 $175 $175 $174 $274 forward $109 $-1 #
coedge $-1 $176 $176 $110 $177 forward $171 $-1 #
edge $-1 $275 0 $275 6.2831853071796004 $176 $276 forward 7 unknown #
loop $-1 $-1 $183 $111 #
plane-surface $-1 -76.957914975432601 17.803606275301703 1.158863246772782 -0.71933980857756763 0 0.69465836192734942 0.69465836192734942 0 0.71933980857756763 forward_v I I I I #
loop $-1 $-1 $277 $71 #
coedge $-1 $181 $181 $182 $278 reversed $112 $-1 #
coedge $-1 $182 $182 $181 $278 forward $114 $-1 #
coedge $-1 $183 $183 $115 $184 forward $178 $-1 #
edge $-1 $279 0 $279 6.2831853071796004 $183 $280 forward 7 unknown #
face $-1 $281 $282 $38 $-1 $283 forward single #
loop $-1 $-1 $284 $116 #
plane-surface $-1 0 32.713748774981099 0 0 -1 0 0 0 -1 forward_v I I I I #
coedge $-1 $285 $286 $287 $288 reversed $117 $-1 #
coedge $-1 $190 $119 $289 $290 reversed $75 $-1 #
coedge $-1 $119 $189 $285 $291 reversed $75 $-1 #
coedge $-1 $287 $292 $119 $192 forward $293 $-1 #
edge $-1 $294 98.100049130994506 $295 101.86690283304429 $191 $296 forward 7 unknown #
loop $-1 $-1 $198 $120 #
plane-surface $-1 -44.329413247721277 25.814387865604303 107.07361882078713 0.61566148304635926 0 0.78801074757464917 0.78801074757464917 0 -0.61566148304635926 forward_v I I I I #
loop $-1 $-1 $297 $77 #
coedge $-1 $196 $196 $197 $298 reversed $121 $-1 #
coedge $-1 $197 $197 $196 $298 forward $123 $-1 #
coedge $-1 $198 $198 $124 $199 forward $193 $-1 #
edge $-1 $299 0 $299 6.2831853071796004 $198 $300 forward 7 unknown #
face $-1 $301 $302 $30 $-1 $303 reversed single #
loop $-1 $-1 $304 $125 #
plane-surface $-1 -76.957914975432601 0 0 1 0 0 0 0 -1 forward_v I I I I #
coedge $-1 $211 $305 $213 $306 reversed $126 $-1 #
coedge $-1 $307 $128 $305 $308 forward $81 $-1 #
coedge $-1 $128 $307 $309 $310 forward $81 $-1 #
coedge $-1 $214 $213 $128 $207 reversed $215 $-1 #
edge $-1 $311 -32.713748774981099 $312 32.713748774981099 $206 $313 forward 7 unknown #
coedge $-1 $130 $129 $314 $315 forward $51 $-1 #
coedge $-1 $316 $317 $129 $210 reversed $302 $-1 #
edge $-1 $217 -76.957914975432601 $318 76.957914975432601 $209 $319 forward 7 unknown #
coedge $-1 $320 $203 $130 $212 reversed $126 $-1 #
edge $-1 $321 -76.957914975432601 $216 76.957914975432601 $211 $322 forward 7 unknown #
coedge $-1 $206 $131 $203 $306 forward $215 $-1 #
coedge $-1 $131 $206 $316 $323 reversed $215 $-1 #
loop $-1 $-1 $213 $301 #
vertex $-1 $132 $324 #
vertex $-1 $132 $325 #
straight-curve $-1 76.957914975432601 0 16.080424390975999 0 1 0 I I #
face $-1 $326 $327 $31 $-1 $328 reversed single #
loop $-1 $-1 $231 $133 #
plane-surface $-1 0 -39.241536375188076 -9.759655017188571 0 0 1 1 0 0 forward_v I I I I #
coedge $-1 $329 $330 $137 $227 forward $134 $-1 #
coedge $-1 $331 $136 $330 $332 forward $85 $-1 #
coedge $-1 $136 $331 $333 $334 forward $85 $-1 #
coedge $-1 $138 $137 $136 $226 reversed $54 $-1 #
edge $-1 $335 -76.957914975432601 $336 76.957914975432601 $136 $337 forward 7 unknown #
edge $-1 $336 -16.080424390975999 $233 -9.759655017188571 $222 $338 forward 7 unknown #
coedge $-1 $333 $339 $138 $229 forward $340 $-1 #
edge $-1 $232 9.759655017188571 $335 16.080424390975999 $228 $341 forward 7 unknown #
coedge $-1 $342 $139 $339 $343 forward $220 $-1 #
coedge $-1 $139 $342 $329 $344 forward $220 $-1 #
vertex $-1 $229 $345 #
vertex $-1 $344 $346 #
straight-curve $-1 0 -32.713748774981099 -9.759655017188571 1 0 0 I I #
face $-1 $-1 $347 $32 $-1 $348 reversed single #
loop $-1 $-1 $147 $141 #
plane-surface $-1 0 0 16.080424390975999 0 0 1 1 0 0 forward_v I I I I #
coedge $-1 $349 $350 $351 $352 reversed $142 $-1 #
coedge $-1 $353 $144 $146 $245 forward $89 $-1 #
coedge $-1 $144 $353 $349 $354 forward $89 $-1 #
coedge $-1 $351 $147 $144 $242 forward $236 $-1 #
edge $-1 $248 -8.4494732142315474 $355 3.7014421393437988 $241 $356 forward 7 unknown #
coedge $-1 $357 $358 $145 $244 forward $347 $-1 #
edge $-1 $359 -52.88002753079185 $247 -37.958466386588633 $243 $360 forward 7 unknown #
edge $-1 $248 -20.743410786217041 $359 0 $146 $361 forward 7 unknown #
coedge $-1 $147 $351 $357 $362 forward $236 $-1 #
vertex $-1 $244 $363 #
vertex $-1 $148 $364 #
straight-curve $-1 -93.83784931467271 -10.823488751675422 16.080424390975999 1 0 0 I I #
coedge $-1 $250 $250 $-1 $365 reversed $151 $-1 #
edge $-1 $366 0 $366 6.2831853071796004 $152 $367 forward 7 unknown #
vertex $-1 $155 $368 #
ellipse-curve $-1 -69.753123096662776 -7.3517986506538975 8.6196438188743905 -0.71933980857756763 0 0.69465836192734942 1.0419875428910241 0 1.0790097128663514 1 I I #
coedge $-1 $254 $254 $-1 $369 reversed $158 $-1 #
edge $-1 $370 0 $370 6.2831853071796004 $159 $371 forward 7 unknown #
vertex $-1 $162 $372 #
ellipse-curve $-1 -69.753123096662776 -2.1442634991216067 8.6196438188743905 -0.71933980857756763 0 0.69465836192734942 1.0419875428910241 0 1.0790097128663514 1 I I #
face $-1 $-1 $373 $35 $-1 $374 reversed single #
loop $-1 $-1 $169 $163 #
plane-surface $-1 0 0 16.080424390975999 0 0 1 1 0 0 forward_v I I I I #
coedge $-1 $375 $376 $377 $378 reversed $164 $-1 #
coedge $-1 $379 $166 $168 $268 forward $103 $-1 #
coedge $-1 $166 $379 $375 $380 forward $103 $-1 #
coedge $-1 $377 $169 $166 $265 forward $259 $-1 #
edge $-1 $271 2.8263454608631786 $381 14.977260814438523 $264 $382 forward 7 unknown #
coedge $-1 $383 $384 $167 $267 forward $373 $-1 #
edge $-1 $385 -52.88002753079185 $270 -37.958466386588633 $266 $386 forward 7 unknown #
edge $-1 $271 -20.743410786217041 $385 0 $168 $387 forward 7 unknown #
coedge $-1 $169 $377 $383 $388 forward $259 $-1 #
vertex $-1 $170 $389 #
vertex $-1 $170 $390 #
straight-curve $-1 -93.83784931467271 11.72814859851403 16.080424390975999 1 0 0 I I #
coedge $-1 $273 $273 $-1 $391 reversed $173 $-1 #
edge $-1 $392 0 $392 6.2831853071796004 $174 $393 forward 7 unknown #
vertex $-1 $177 $394 #
ellipse-curve $-1 -69.753123096662776 15.199838699535555 8.6196438188743905 -0.71933980857756763 0 0.69465836192734942 1.0419875428910241 0 1.0790097128663514 1 I I #
coedge $-1 $277 $277 $-1 $395 reversed $180 $-1 #
edge $-1 $396 0 $396 6.2831853071796004 $181 $397 forward 7 unknown #
vertex $-1 $184 $398 #
ellipse-curve $-1 -69.753123096662776 20.407373851067845 8.6196438188743905 -0.71933980857756763 0 0.69465836192734942 1.0419875428910241 0 1.0790097128663514 1 I I #
face $-1 $-1 $293 $38 $-1 $399 reversed single #
loop $-1 $-1 $400 $185 #
plane-surface $-1 0 0 16.080424390975999 0 0 1 1 0 0 forward_v I I I I #
coedge $-1 $401 $402 $286 $403 forward $186 $-1 #
coedge $-1 $404 $188 $190 $291 forward $117 $-1 #
coedge $-1 $188 $404 $284 $403 reversed $117 $-1 #
coedge $-1 $405 $191 $188 $288 forward $293 $-1 #
edge $-1 $295 6.0078330234253556 $406 19.806554842178947 $287 $407 forward 7 unknown #
coedge $-1 $408 $400 $189 $290 forward $282 $-1 #
edge $-1 $409 46.921244755097334 $294 51.742597533362783 $289 $410 forward 7 unknown #
edge $-1 $295 -153.91582995086523 $409 -147.79744540712051 $190 $411 forward 7 unknown #
coedge $-1 $191 $405 $408 $412 reversed $293 $-1 #
loop $-1 $-1 $287 $281 #
vertex $-1 $412 $413 #
vertex $-1 $192 $414 #
straight-curve $-1 76.957914975432601 18.915026956227507 114.1804735219705 0 0 -1 I I #
coedge $-1 $297 $297 $-1 $415 reversed $195 $-1 #
edge $-1 $416 0 $416 6.2831853071796004 $196 $417 forward 7 unknown #
vertex $-1 $199 $418 #
ellipse-curve $-1 74.547238586299869 25.814387865604303 14.196997539951104 0.61566148304635926 0 0.78801074757464917 1.1820161213619738 0 -0.92349222456953894 1 I I #
face $-1 $-1 $215 $30 $-1 $419 reversed single #
loop $-1 $-1 $316 $200 #
plane-surface $-1 0 32.713748774981099 0 0 -1 0 0 0 -1 forward_v I I I I #
coedge $-1 $420 $314 $317 $421 forward $201 $-1 #
coedge $-1 $203 $320 $204 $308 reversed $126 $-1 #
edge $-1 $216 -16.080424390975999 $312 16.080424390975999 $213 $422 forward 7 unknown #
coedge $-1 $205 $204 $420 $423 forward $81 $-1 #
edge $-1 $312 -76.957914975432601 $424 76.957914975432601 $305 $425 forward 7 unknown #
coedge $-1 $317 $316 $205 $310 reversed $302 $-1 #
edge $-1 $426 -76.957914975432601 $311 76.957914975432601 $309 $427 forward 7 unknown #
vertex $-1 $207 $428 #
vertex $-1 $306 $429 #
straight-curve $-1 76.957914975432601 0 -16.080424390975999 0 -1 0 I I #
coedge $-1 $304 $430 $208 $315 reversed $201 $-1 #
edge $-1 $318 -32.713748774981099 $321 32.713748774981099 $314 $431 forward 7 unknown #
coedge $-1 $309 $209 $214 $323 forward $302 $-1 #
coedge $-1 $209 $309 $304 $421 reversed $302 $-1 #
vertex $-1 $210 $432 #
straight-curve $-1 0 32.713748774981099 16.080424390975999 -1 0 0 I I #
coedge $-1 $305 $211 $430 $433 forward $126 $-1 #
vertex $-1 $315 $434 #
straight-curve $-1 0 -32.713748774981099 16.080424390975999 1 0 0 I I #
edge $-1 $217 -16.080424390975999 $311 16.080424390975999 $214 $435 forward 7 unknown #
point $-1 76.957914975432601 -32.713748774981099 16.080424390975999 #
point $-1 76.957914975432601 32.713748774981099 16.080424390975999 #
face $-1 $-1 $340 $31 $-1 $436 reversed single #
loop $-1 $-1 $437 $219 #
plane-surface $-1 0 -45.769323975395054 -12.920039704082285 0 1 0 0 0 1 forward_v I I I I #
coedge $-1 $438 $222 $231 $344 reversed $134 $-1 #
coedge $-1 $222 $438 $223 $332 reversed $134 $-1 #
coedge $-1 $224 $223 $439 $440 forward $85 $-1 #
edge $-1 $336 32.713748774981099 $441 45.769323975395054 $330 $442 forward 7 unknown #
coedge $-1 $443 $228 $224 $334 reversed $340 $-1 #
edge $-1 $444 -45.769323975395054 $335 -32.713748774981099 $333 $445 forward 7 unknown #
vertex $-1 $229 $446 #
vertex $-1 $332 $447 #
straight-curve $-1 0 -32.713748774981099 -16.080424390975999 1 0 0 I I #
straight-curve $-1 76.957914975432601 -32.713748774981099 0 0 0 1 I I #
coedge $-1 $228 $443 $230 $343 reversed $340 $-1 #
loop $-1 $-1 $228 $326 #
straight-curve $-1 -76.957914975432601 -32.713748774981099 0 0 0 -1 I I #
coedge $-1 $231 $230 $448 $449 forward $220 $-1 #
edge $-1 $232 -6.5277876002069775 $450 6.5277876002069775 $339 $451 forward 7 unknown #
edge $-1 $452 -6.5277876002069775 $233 6.5277876002069775 $329 $453 forward 7 unknown #
point $-1 -76.957914975432601 -32.713748774981099 -9.759655017188571 #
point $-1 76.957914975432601 -32.713748774981099 -9.759655017188571 #
loop $-1 $-1 $243 $235 #
plane-surface $-1 -76.957914975432601 0 0 1 0 0 0 0 -1 forward_v I I I I #
coedge $-1 $350 $238 $240 $354 reversed $142 $-1 #
coedge $-1 $238 $349 $454 $455 reversed $142 $-1 #
coedge $-1 $246 $241 $238 $352 forward $236 $-1 #
edge $-1 $355 -31.289518096779751 $456 -16.879934339240108 $351 $457 forward 7 unknown #
coedge $-1 $240 $239 $358 $458 reversed $89 $-1 #
edge $-1 $459 0 $355 20.743410786217041 $349 $460 forward 7 unknown #
vertex $-1 $242 $461 #
straight-curve $-1 -62.548331217892958 -2.3740155374438743 16.080424390975999 0 1 0 I I #
coedge $-1 $454 $243 $246 $362 reversed $347 $-1 #
coedge $-1 $243 $454 $353 $458 forward $347 $-1 #
vertex $-1 $244 $462 #
straight-curve $-1 -76.957914975432601 -10.823488751675422 54.038890777564632 0 0 1 I I #
straight-curve $-1 -76.957914975432601 -10.823488751675422 1.158863246772782 -0.69465836192734942 0 -0.71933980857756763 I I #
edge $-1 $456 -1.3274266018999246 $247 10.823488751675422 $357 $463 forward 7 unknown #
point $-1 -76.957914975432601 -10.823488751675422 16.080424390975999 #
point $-1 -62.548331217892958 -10.823488751675422 16.080424390975999 #
edge $-1 $464 1 $464 0 $250 $-1 forward 7 unknown #
vertex $-1 $251 $465 #
ellipse-curve $-1 -68.642006859853282 -7.3517986506538975 7.5466513669493063 -0.71933980857756763 0 0.69465836192734942 1.0419875428910241 0 1.0790097128663514 1 I I #
point $-1 -68.711135553771754 -7.3517986506538975 9.6986535317407352 #
edge $-1 $466 1 $466 0 $254 $-1 forward 7 unknown #
vertex $-1 $255 $467 #
ellipse-curve $-1 -68.642006859853282 -2.1442634991216067 7.5466513669493063 -0.71933980857756763 0 0.69465836192734942 1.0419875428910241 0 1.0790097128663514 1 I I #
point $-1 -68.711135553771754 -2.1442634991216067 9.6986535317407352 #
loop $-1 $-1 $266 $258 #
plane-surface $-1 -76.957914975432601 0 0 1 0 0 0 0 -1 forward_v I I I I #
coedge $-1 $376 $261 $263 $380 reversed $164 $-1 #
coedge $-1 $261 $375 $468 $469 reversed $164 $-1 #
coedge $-1 $269 $264 $261 $378 forward $259 $-1 #
edge $-1 $381 -31.289518096779751 $470 -16.879934339240108 $377 $471 forward 7 unknown #
coedge $-1 $263 $262 $384 $472 reversed $103 $-1 #
edge $-1 $473 0 $381 20.743410786217041 $375 $474 forward 7 unknown #
vertex $-1 $265 $475 #
straight-curve $-1 -62.548331217892958 8.9018031376508517 16.080424390975999 0 1 0 I I #
coedge $-1 $468 $266 $269 $388 reversed $373 $-1 #
coedge $-1 $266 $468 $379 $472 forward $373 $-1 #
vertex $-1 $267 $476 #
straight-curve $-1 -76.957914975432601 11.72814859851403 54.038890777564632 0 0 1 I I #
straight-curve $-1 -76.957914975432601 11.72814859851403 1.158863246772782 -0.69465836192734942 0 -0.71933980857756763 I I #
edge $-1 $470 -23.879063952089375 $270 -11.72814859851403 $383 $477 forward 7 unknown #
point $-1 -76.957914975432601 11.72814859851403 16.080424390975999 #
point $-1 -62.548331217892958 11.72814859851403 16.080424390975999 #
edge $-1 $478 1 $478 0 $273 $-1 forward 7 unknown #
vertex $-1 $274 $479 #
ellipse-curve $-1 -68.642006859853282 15.199838699535555 7.5466513669493063 -0.71933980857756763 0 0.69465836192734942 1.0419875428910241 0 1.0790097128663514 1 I I #
point $-1 -68.711135553771754 15.199838699535555 9.6986535317407352 #
edge $-1 $480 1 $480 0 $277 $-1 forward 7 unknown #
vertex $-1 $278 $481 #
ellipse-curve $-1 -68.642006859853282 20.407373851067845 7.5466513669493063 -0.71933980857756763 0 0.69465836192734942 1.0419875428910241 0 1.0790097128663514 1 I I #
point $-1 -68.711135553771754 20.407373851067845 9.6986535317407352 #
plane-surface $-1 76.957914975432601 0 0 -1 0 0 0 0 1 forward_v I I I I #
coedge $-1 $289 $482 $404 $483 forward $282 $-1 #
coedge $-1 $402 $284 $482 $484 reversed $186 $-1 #
coedge $-1 $284 $401 $405 $485 forward $186 $-1 #
edge $-1 $406 -103.48925143525084 $486 -97.370866891506111 $284 $487 forward 7 unknown #
coedge $-1 $286 $285 $400 $483 reversed $117 $-1 #
coedge $-1 $292 $287 $402 $485 reversed $293 $-1 #
vertex $-1 $288 $488 #
straight-curve $-1 76.957914975432601 12.907193932802151 12.313570688926212 0 1 0 I I #
coedge $-1 $482 $289 $292 $412 forward $282 $-1 #
vertex $-1 $290 $489 #
straight-curve $-1 25.215317442069818 18.915026956227507 16.080424390976006 1 0 0 I I #
straight-curve $-1 -44.329413247721277 18.915026956227507 107.07361882078713 -0.78801074757464917 0 0.61566148304635926 I I #
edge $-1 $294 18.915026956227507 $490 32.713748774981099 $292 $491 forward 7 unknown #
point $-1 76.957914975432601 18.915026956227507 16.080424390975999 #
point $-1 76.957914975432615 18.915026956227507 12.313570688926205 #
edge $-1 $492 1 $492 0 $297 $-1 forward 7 unknown #
vertex $-1 $298 $493 #
ellipse-curve $-1 71.067098708310709 25.814387865604303 9.7426217142149234 0.61566148304635926 0 0.78801074757464917 1.1820161213619738 0 -0.92349222456953894 1 I I #
point $-1 75.729254707661852 25.814387865604303 13.273505315381579 #
plane-surface $-1 76.957914975432601 0 0 -1 0 0 0 0 1 forward_v I I I I #
coedge $-1 $430 $304 $307 $423 reversed $201 $-1 #
edge $-1 $318 -16.080424390975999 $426 16.080424390975999 $317 $494 forward 7 unknown #
straight-curve $-1 76.957914975432601 -32.713748774981099 0 0 0 -1 I I #
edge $-1 $424 -32.713748774981099 $426 32.713748774981099 $420 $495 forward 7 unknown #
vertex $-1 $423 $496 #
straight-curve $-1 0 -32.713748774981099 -16.080424390975999 -1 0 0 I I #
vertex $-1 $310 $497 #
straight-curve $-1 0 32.713748774981099 -16.080424390975999 1 0 0 I I #
point $-1 76.957914975432601 32.713748774981099 -16.080424390975999 #
point $-1 76.957914975432601 -32.713748774981099 -16.080424390975999 #
coedge $-1 $314 $420 $320 $433 reversed $201 $-1 #
straight-curve $-1 -76.957914975432601 0 16.080424390975999 0 -1 0 I I #
point $-1 -76.957914975432601 32.713748774981099 16.080424390975999 #
edge $-1 $321 -16.080424390975999 $424 16.080424390975999 $430 $498 forward 7 unknown #
point $-1 -76.957914975432601 -32.713748774981099 16.080424390975999 #
straight-curve $-1 76.957914975432601 32.713748774981099 0 0 0 -1 I I #
plane-surface $-1 -76.957914975432601 0 0 1 0 0 0 0 -1 forward_v I I I I #
coedge $-1 $439 $448 $443 $499 forward $327 $-1 #
coedge $-1 $330 $329 $500 $501 forward $134 $-1 #
coedge $-1 $500 $437 $331 $440 reversed $327 $-1 #
edge $-1 $441 -76.957914975432601 $444 76.957914975432601 $439 $502 forward 7 unknown #
vertex $-1 $501 $503 #
straight-curve $-1 76.957914975432601 0 -16.080424390975999 0 -1 0 I I #
coedge $-1 $339 $333 $437 $499 reversed $340 $-1 #
vertex $-1 $334 $504 #
straight-curve $-1 -76.957914975432601 0 -16.080424390975999 0 1 0 I I #
point $-1 -76.957914975432601 -32.713748774981099 -16.080424390975999 #
point $-1 76.957914975432601 -32.713748774981099 -16.080424390975999 #
coedge $-1 $437 $500 $342 $449 reversed $327 $-1 #
edge $-1 $450 -76.957914975432601 $452 76.957914975432601 $448 $505 forward 7 unknown #
vertex $-1 $343 $506 #
straight-curve $-1 -76.957914975432601 -39.241536375188076 -9.759655017188571 0 -1 0 I I #
vertex $-1 $344 $507 #
straight-curve $-1 76.957914975432601 -39.241536375188076 -9.759655017188571 0 1 0 I I #
coedge $-1 $358 $357 $350 $455 forward $347 $-1 #
edge $-1 $456 37.958466386588633 $459 52.88002753079185 $454 $508 forward 7 unknown #
vertex $-1 $362 $509 #
straight-curve $-1 -93.83784931467271 1.3274266018999246 16.080424390975999 -1 0 0 I I #
edge $-1 $459 -3.7014421393437988 $359 8.4494732142315474 $358 $510 forward 7 unknown #
vertex $-1 $458 $511 #
straight-curve $-1 -76.957914975432601 1.3274266018999246 1.158863246772782 0.69465836192734942 0 0.71933980857756763 I I #
point $-1 -62.548331217892958 1.3274266018999246 16.080424390975999 #
point $-1 -76.957914975432601 -10.823488751675422 1.158863246772782 #
straight-curve $-1 -76.957914975432601 0 16.080424390975999 0 -1 0 I I #
vertex $-1 $365 $512 #
point $-1 -67.600019316962261 -7.3517986506538975 8.6256610798156572 #
vertex $-1 $369 $513 #
point $-1 -67.600019316962261 -2.1442634991216067 8.6256610798156572 #
coedge $-1 $384 $383 $376 $469 forward $373 $-1 #
edge $-1 $470 37.958466386588633 $473 52.88002753079185 $468 $514 forward 7 unknown #
vertex $-1 $388 $515 #
straight-curve $-1 -93.83784931467271 23.879063952089375 16.080424390975999 -1 0 0 I I #
edge $-1 $473 -14.977260814438523 $385 -2.8263454608631786 $384 $516 forward 7 unknown #
vertex $-1 $472 $517 #
straight-curve $-1 -76.957914975432601 23.879063952089375 1.158863246772782 0.69465836192734942 0 0.71933980857756763 I I #
point $-1 -62.548331217892958 23.879063952089375 16.080424390975999 #
point $-1 -76.957914975432601 11.72814859851403 1.158863246772782 #
straight-curve $-1 -76.957914975432601 0 16.080424390975999 0 -1 0 I I #
vertex $-1 $391 $518 #
point $-1 -67.600019316962261 15.199838699535555 8.6256610798156572 #
vertex $-1 $395 $519 #
point $-1 -67.600019316962261 20.407373851067845 8.6256610798156572 #
coedge $-1 $400 $408 $401 $484 forward $282 $-1 #
edge $-1 $486 -19.806554842178947 $409 -6.0078330234253556 $400 $520 forward 7 unknown #
edge $-1 $490 -76.957914975432601 $486 -72.136562197167152 $401 $521 forward 7 unknown #
edge $-1 $490 -16.080424390975999 $406 -12.313570688926214 $405 $522 forward 7 unknown #
vertex $-1 $483 $523 #
straight-curve $-1 -4.5927274140002439 32.713748774981099 76.027916706910304 -0.78801074757464917 0 0.61566148304635926 I I #
point $-1 76.957914975432601 32.713748774981099 12.313570688926214 #
point $-1 72.136562197167152 18.915026956227507 16.080424390976006 #
vertex $-1 $412 $524 #
straight-curve $-1 76.957914975432601 0 16.080424390975999 0 1 0 I I #
vertex $-1 $415 $525 #
point $-1 72.249114829672678 25.814387865604303 8.819129489645384 #
straight-curve $-1 -76.957914975432601 32.713748774981099 0 0 0 -1 I I #
straight-curve $-1 -76.957914975432601 0 -16.080424390975999 0 1 0 I I #
point $-1 -76.957914975432601 -32.713748774981099 -16.080424390975999 #
point $-1 -76.957914975432601 32.713748774981099 -16.080424390975999 #
straight-curve $-1 -76.957914975432601 -32.713748774981099 0 0 0 -1 I I #
edge $-1 $450 -3.160384686893714 $444 3.160384686893714 $443 $526 forward 7 unknown #
coedge $-1 $448 $439 $438 $501 reversed $327 $-1 #
edge $-1 $452 -3.160384686893714 $441 3.160384686893714 $438 $527 forward 7 unknown #
straight-curve $-1 0 -45.769323975395054 -16.080424390975999 -1 0 0 I I #
point $-1 76.957914975432601 -45.769323975395054 -16.080424390975999 #
point $-1 -76.957914975432601 -45.769323975395054 -16.080424390975999 #
straight-curve $-1 0 -45.769323975395054 -9.759655017188571 1 0 0 I I #
point $-1 -76.957914975432601 -45.769323975395054 -9.759655017188571 #
point $-1 76.957914975432601 -45.769323975395054 -9.759655017188571 #
straight-curve $-1 -76.957914975432601 1.3274266018999246 54.038890777564632 0 0 -1 I I #
point $-1 -76.957914975432601 1.3274266018999246 16.080424390975999 #
straight-curve $-1 -76.957914975432601 -2.3740155374438743 1.158863246772786 0 -1 0 I I #
point $-1 -76.957914975432601 1.3274266018999246 1.158863246772782 #
point $-1 -67.562997146986945 -7.3517986506538975 6.5046638240582828 #
point $-1 -67.562997146986945 -2.1442634991216067 6.5046638240582828 #
straight-curve $-1 -76.957914975432601 23.879063952089375 54.038890777564632 0 0 -1 I I #
point $-1 -76.957914975432601 23.879063952089375 16.080424390975999 #
straight-curve $-1 -76.957914975432601 8.9018031376508517 1.158863246772786 0 -1 0 I I #
point $-1 -76.957914975432601 23.879063952089375 1.158863246772782 #
point $-1 -67.562997146986945 15.199838699535555 6.5046638240582828 #
point $-1 -67.562997146986945 20.407373851067845 6.5046638240582828 #
straight-curve $-1 72.136562197167152 12.907193932802151 16.080424390975999 0 -1 0 I I #
straight-curve $-1 0 32.713748774981099 16.080424390975999 -1 0 0 I I #
straight-curve $-1 76.957914975432601 32.713748774981099 0 0 0 -1 I I #
point $-1 72.136562197167152 32.713748774981099 16.080424390976006 #
point $-1 76.957914975432601 32.713748774981099 16.080424390975999 #
point $-1 70.143606483741166 25.814387865604303 8.5606055928529479 #
straight-curve $-1 -76.957914975432601 -45.769323975395054 -12.920039704082285 0 0 -1 I I #
straight-curve $-1 76.957914975432601 -45.769323975395054 -12.920039704082285 0 0 -1 I I #
End-of-ACIS-data 