500 0 16 0           
7 Unknown 11 ACIS 5.0 NT 24 Fri Mar 26 15:46:29 1999 
-1 9.9999999999999995e-007 1e-010 
body $-1 $16 $-1 $17 #
body $-1 $18 $-1 $19 #
body $-1 $20 $-1 $21 #
body $-1 $22 $-1 $23 #
body $-1 $24 $-1 $25 #
body $-1 $26 $-1 $27 #
body $-1 $28 $-1 $29 #
body $-1 $30 $-1 $31 #
body $-1 $32 $-1 $33 #
body $-1 $34 $-1 $35 #
body $-1 $36 $-1 $37 #
body $-1 $38 $-1 $39 #
body $-1 $40 $-1 $41 #
body $-1 $42 $-1 $43 #
body $-1 $44 $-1 $45 #
body $-1 $46 $-1 $47 #
lump $-1 $-1 $48 $0 #
transform $-1 1 0 0 0 1 0 0 0 1 55.503402813806574 38.466685237565109 16.049601343588716 1 rotate no_reflect no_shear #
lump $-1 $-1 $49 $1 #
transform $-1 1 0 0 0 1 0 0 0 1 55.503402813806574 38.466685237565109 16.049601343588716 1 rotate no_reflect no_shear #
lump $-1 $-1 $50 $2 #
transform $-1 1 0 0 0 1 0 0 0 1 55.503402813806574 38.466685237565109 16.049601343588716 1 rotate no_reflect no_shear #
lump $-1 $-1 $51 $3 #
transform $-1 1 0 0 0 1 0 0 0 1 55.503402813806574 38.466685237565109 16.049601343588716 1 rotate no_reflect no_shear #
lump $-1 $-1 $52 $4 #
transform $-1 1 0 0 0 1 0 0 0 1 55.503402813806574 38.466685237565109 16.049601343588716 1 rotate no_reflect no_shear #
lump $-1 $-1 $53 $5 #
transform $-1 1 0 0 0 1 0 0 0 1 55.503402813806574 38.466685237565109 16.049601343588716 1 rotate no_reflect no_shear #
lump $-1 $-1 $54 $6 #
transform $-1 1 0 0 0 1 0 0 0 1 55.503402813806574 38.466685237565109 16.049601343588716 1 rotate no_reflect no_shear #
lump $-1 $-1 $55 $7 #
transform $-1 1 0 0 0 1 0 0 0 1 55.503402813806574 38.466685237565109 16.049601343588716 1 rotate no_reflect no_shear #
lump $-1 $-1 $56 $8 #
transform $-1 1 0 0 0 1 0 0 0 1 55.503402813806574 38.466685237565109 16.049601343588716 1 rotate no_reflect no_shear #
lump $-1 $-1 $57 $9 #
transform $-1 1 0 0 0 1 0 0 0 1 55.503402813806574 38.466685237565109 16.049601343588716 1 rotate no_reflect no_shear #
lump $-1 $-1 $58 $10 #
transform $-1 1 0 0 0 1 0 0 0 1 55.503402813806574 38.466685237565109 16.049601343588716 1 rotate no_reflect no_shear #
lump $-1 $-1 $59 $11 #
transform $-1 1 0 0 0 1 0 0 0 1 55.503402813806574 38.466685237565109 16.049601343588716 1 rotate no_reflect no_shear #
lump $-1 $-1 $60 $12 #
transform $-1 1 0 0 0 1 0 0 0 1 55.503402813806574 38.466685237565109 16.049601343588716 1 rotate no_reflect no_shear #
lump $-1 $-1 $61 $13 #
transform $-1 1 0 0 0 1 0 0 0 1 55.503402813806574 38.466685237565109 16.049601343588716 1 rotate no_reflect no_shear #
lump $-1 $-1 $62 $14 #
transform $-1 1 0 0 0 1 0 0 0 1 55.503402813806574 38.466685237565109 16.049601343588716 1 rotate no_reflect no_shear #
lump $-1 $-1 $63 $15 #
transform $-1 1 0 0 0 1 0 0 0 1 55.503402813806574 38.466685237565109 16.049601343588716 1 rotate no_reflect no_shear #
shell $-1 $-1 $-1 $64 $-1 $16 #
shell $-1 $-1 $-1 $65 $-1 $18 #
shell $-1 $-1 $-1 $66 $-1 $20 #
shell $-1 $-1 $-1 $67 $-1 $22 #
shell $-1 $-1 $-1 $68 $-1 $24 #
shell $-1 $-1 $-1 $69 $-1 $26 #
shell $-1 $-1 $-1 $70 $-1 $28 #
shell $-1 $-1 $-1 $71 $-1 $30 #
shell $-1 $-1 $-1 $72 $-1 $32 #
shell $-1 $-1 $-1 $73 $-1 $34 #
shell $-1 $-1 $-1 $74 $-1 $36 #
shell $-1 $-1 $-1 $75 $-1 $38 #
shell $-1 $-1 $-1 $76 $-1 $40 #
shell $-1 $-1 $-1 $77 $-1 $42 #
shell $-1 $-1 $-1 $78 $-1 $44 #
shell $-1 $-1 $-1 $79 $-1 $46 #
face $-1 $80 $81 $48 $-1 $82 forward single #
face $-1 $83 $84 $49 $-1 $85 reversed single #
face $-1 $86 $87 $50 $-1 $88 forward single #
face $-1 $89 $90 $51 $-1 $91 forward single #
face $-1 $92 $93 $52 $-1 $94 reversed single #
face $-1 $95 $96 $53 $-1 $97 forward single #
face $-1 $98 $99 $54 $-1 $100 forward single #
face $-1 $101 $102 $55 $-1 $103 reversed single #
face $-1 $104 $105 $56 $-1 $106 forward single #
face $-1 $107 $108 $57 $-1 $109 forward single #
face $-1 $110 $111 $58 $-1 $112 reversed single #
face $-1 $113 $114 $59 $-1 $115 forward single #
face $-1 $116 $117 $60 $-1 $118 forward single #
face $-1 $119 $120 $61 $-1 $121 reversed single #
face $-1 $122 $123 $62 $-1 $124 forward single #
face $-1 $125 $126 $63 $-1 $127 forward single #
face $-1 $128 $129 $48 $-1 $130 reversed single #
loop $-1 $-1 $131 $64 #
plane-surface $-1 0 0 16.049601343588716 0 0 1 1 0 0 forward_v I I I I #
face $-1 $132 $133 $49 $-1 $134 reversed single #
loop $-1 $-1 $135 $65 #
plane-surface $-1 88.142906294957541 -6.3073851459996391 161.71820679465424 0 -1 0 -0.83867057594974714 0 -0.54463902268945019 forward_v I I I I #
face $-1 $136 $137 $50 $-1 $138 forward single #
loop $-1 $139 $140 $66 #
cone-surface $-1 51.632842149735559 -22.632779922324147 11.255283435511375 -0.83867057594974714 0 -0.54463902268945019 0.81695853403417529 0 -1.2580058639246208 1 I I 0 1 1.5 forward I I I I #
face $-1 $141 $142 $51 $-1 $143 forward single #
loop $-1 $144 $145 $67 #
cone-surface $-1 51.632842149735559 -12.837543056529444 11.255283435511375 -0.83867057594974714 0 -0.54463902268945019 0.81695853403417529 0 -1.2580058639246208 1 I I 0 1 1.5 forward I I I I #
face $-1 $146 $147 $52 $-1 $148 reversed single #
loop $-1 $-1 $149 $68 #
plane-surface $-1 -114.32804835358361 -26.306777534892142 106.74824168436567 0 -1 0 0.52991927123019833 0 -0.84804809178421925 forward_v I I I I #
face $-1 $150 $151 $53 $-1 $152 forward single #
loop $-1 $153 $154 $69 #
cone-surface $-1 -51.75785799192532 -34.992425893944265 12.740884365398681 0.52991927123019833 0 -0.84804809178421925 0.84804809178421925 0 0.52991927123019833 1 I I 0 1 1 forward I I I I #
face $-1 $155 $156 $54 $-1 $157 forward single #
loop $-1 $158 $159 $70 #
cone-surface $-1 -51.75785799192532 -29.781036878512992 12.740884365398681 0.52991927123019833 0 -0.84804809178421925 0.84804809178421925 0 0.52991927123019833 1 I I 0 1 1 forward I I I I #
face $-1 $160 $161 $55 $-1 $162 reversed single #
loop $-1 $-1 $163 $71 #
plane-surface $-1 -114.32804835358361 -7.0734349161095924 106.74824168436567 0 -1 0 0.52991927123019833 0 -0.84804809178421925 forward_v I I I I #
face $-1 $164 $165 $56 $-1 $166 forward single #
loop $-1 $167 $168 $72 #
cone-surface $-1 -51.75785799192532 -15.759083275161707 12.740884365398681 0.52991927123019833 0 -0.84804809178421925 0.84804809178421925 0 0.52991927123019833 1 I I 0 1 1 forward I I I I #
face $-1 $169 $170 $57 $-1 $171 forward single #
loop $-1 $172 $173 $73 #
cone-surface $-1 -51.75785799192532 -10.547694259730438 12.740884365398681 0.52991927123019833 0 -0.84804809178421925 0.84804809178421925 0 0.52991927123019833 1 I I 0 1 1 forward I I I I #
face $-1 $174 $175 $58 $-1 $176 reversed single #
loop $-1 $-1 $177 $74 #
plane-surface $-1 -114.32804835358361 12.159907702672959 106.74824168436567 0 -1 0 0.52991927123019833 0 -0.84804809178421925 forward_v I I I I #
face $-1 $178 $179 $59 $-1 $180 forward single #
loop $-1 $181 $182 $75 #
cone-surface $-1 -51.75785799192532 3.4742593436208509 12.740884365398681 0.52991927123019833 0 -0.84804809178421925 0.84804809178421925 0 0.52991927123019833 1 I I 0 1 1 forward I I I I #
face $-1 $183 $184 $60 $-1 $185 forward single #
loop $-1 $186 $187 $76 #
cone-surface $-1 -51.75785799192532 8.6856483590521165 12.740884365398681 0.52991927123019833 0 -0.84804809178421925 0.84804809178421925 0 0.52991927123019833 1 I I 0 1 1 forward I I I I #
face $-1 $188 $189 $61 $-1 $190 reversed single #
loop $-1 $-1 $191 $77 #
plane-surface $-1 -114.32804835358361 31.393250321455518 106.74824168436567 0 -1 0 0.52991927123019833 0 -0.84804809178421925 forward_v I I I I #
face $-1 $192 $193 $62 $-1 $194 forward single #
loop $-1 $195 $196 $78 #
cone-surface $-1 -51.75785799192532 22.707601962403409 12.740884365398681 0.52991927123019833 0 -0.84804809178421925 0.84804809178421925 0 0.52991927123019833 1 I I 0 1 1 forward I I I I #
face $-1 $197 $198 $63 $-1 $199 forward single #
loop $-1 $200 $201 $79 #
cone-surface $-1 -51.75785799192532 27.918990977834675 12.740884365398681 0.52991927123019833 0 -0.84804809178421925 0.84804809178421925 0 0.52991927123019833 1 I I 0 1 1 forward I I I I #
face $-1 $202 $203 $48 $-1 $204 reversed single #
loop $-1 $-1 $205 $80 #
plane-surface $-1 0 0 -16.049601343588716 0 0 1 1 0 0 forward_v I I I I #
coedge $-1 $206 $207 $208 $209 forward $81 $-1 #
face $-1 $210 $211 $49 $-1 $212 reversed single #
loop $-1 $-1 $213 $83 #
plane-surface $-1 -4.9552353150944128 -17.735161489426794 101.25956866575325 0.83867057594974714 0 0.54463902268945019 0.54463902268945019 0 -0.83867057594974714 forward_v I I I I #
coedge $-1 $214 $215 $216 $217 reversed $84 $-1 #
face $-1 $-1 $218 $50 $-1 $219 forward single #
loop $-1 $220 $221 $86 #
cone-surface $-1 49.694598610802046 -22.632779922324147 9.9965734043606638 -0.83867057594974714 0 -0.54463902268945019 0.40847926701708764 0 -0.62900293196231039 1 I I -0.70710678118654757 0.70710678118654757 0.75 forward I I I I #
loop $-1 $-1 $222 $66 #
coedge $-1 $140 $140 $223 $224 reversed $87 $-1 #
face $-1 $-1 $225 $51 $-1 $226 forward single #
loop $-1 $227 $228 $89 #
cone-surface $-1 49.694598610802046 -12.837543056529444 9.9965734043606638 -0.83867057594974714 0 -0.54463902268945019 0.40847926701708764 0 -0.62900293196231039 1 I I -0.70710678118654757 0.70710678118654757 0.75 forward I I I I #
loop $-1 $-1 $229 $67 #
coedge $-1 $145 $145 $230 $231 reversed $90 $-1 #
face $-1 $232 $233 $52 $-1 $234 reversed single #
loop $-1 $-1 $235 $92 #
plane-surface $-1 -55.503402813806574 -32.386731386228625 12.60913199680661 -0.52991927123019833 0 0.84804809178421925 0.84804809178421925 0 0.52991927123019833 forward_v I I I I #
coedge $-1 $236 $237 $238 $239 reversed $93 $-1 #
face $-1 $-1 $240 $53 $-1 $241 forward single #
loop $-1 $242 $243 $95 #
cone-surface $-1 -50.500304429767517 -34.992425893944265 10.728378014707591 0.52991927123019833 0 -0.84804809178421925 0.42402404589210962 0 0.26495963561509916 1 I I -0.70710678118654746 0.70710678118654746 0.5 forward I I I I #
loop $-1 $-1 $244 $69 #
coedge $-1 $154 $154 $245 $246 reversed $96 $-1 #
face $-1 $-1 $247 $54 $-1 $248 forward single #
loop $-1 $249 $250 $98 #
cone-surface $-1 -50.500304429767517 -29.781036878512992 10.728378014707591 0.52991927123019833 0 -0.84804809178421925 0.42402404589210962 0 0.26495963561509916 1 I I -0.70710678118654746 0.70710678118654746 0.5 forward I I I I #
loop $-1 $-1 $251 $70 #
coedge $-1 $159 $159 $252 $253 reversed $99 $-1 #
face $-1 $254 $255 $55 $-1 $256 reversed single #
loop $-1 $-1 $257 $101 #
plane-surface $-1 -55.503402813806574 -13.153388767446074 12.60913199680661 -0.52991927123019833 0 0.84804809178421925 0.84804809178421925 0 0.52991927123019833 forward_v I I I I #
coedge $-1 $258 $259 $260 $261 reversed $102 $-1 #
face $-1 $-1 $262 $56 $-1 $263 forward single #
loop $-1 $264 $265 $104 #
cone-surface $-1 -50.500304429767517 -15.759083275161707 10.728378014707591 0.52991927123019833 0 -0.84804809178421925 0.42402404589210962 0 0.26495963561509916 1 I I -0.70710678118654746 0.70710678118654746 0.5 forward I I I I #
loop $-1 $-1 $266 $72 #
coedge $-1 $168 $168 $267 $268 reversed $105 $-1 #
face $-1 $-1 $269 $57 $-1 $270 forward single #
loop $-1 $271 $272 $107 #
cone-surface $-1 -50.500304429767517 -10.547694259730438 10.728378014707591 0.52991927123019833 0 -0.84804809178421925 0.42402404589210962 0 0.26495963561509916 1 I I -0.70710678118654746 0.70710678118654746 0.5 forward I I I I #
loop $-1 $-1 $273 $73 #
coedge $-1 $173 $173 $274 $275 reversed $108 $-1 #
face $-1 $276 $277 $58 $-1 $278 reversed single #
loop $-1 $-1 $279 $110 #
plane-surface $-1 -55.503402813806574 6.0799538513364766 12.60913199680661 -0.52991927123019833 0 0.84804809178421925 0.84804809178421925 0 0.52991927123019833 forward_v I I I I #
coedge $-1 $280 $281 $282 $283 reversed $111 $-1 #
face $-1 $-1 $284 $59 $-1 $285 forward single #
loop $-1 $286 $287 $113 #
cone-surface $-1 -50.500304429767517 3.4742593436208509 10.728378014707591 0.52991927123019833 0 -0.84804809178421925 0.42402404589210962 0 0.26495963561509916 1 I I -0.70710678118654746 0.70710678118654746 0.5 forward I I I I #
loop $-1 $-1 $288 $75 #
coedge $-1 $182 $182 $289 $290 reversed $114 $-1 #
face $-1 $-1 $291 $60 $-1 $292 forward single #
loop $-1 $293 $294 $116 #
cone-surface $-1 -50.500304429767517 8.6856483590521165 10.728378014707591 0.52991927123019833 0 -0.84804809178421925 0.42402404589210962 0 0.26495963561509916 1 I I -0.70710678118654746 0.70710678118654746 0.5 forward I I I I #
loop $-1 $-1 $295 $76 #
coedge $-1 $187 $187 $296 $297 reversed $117 $-1 #
face $-1 $298 $299 $61 $-1 $300 reversed single #
loop $-1 $-1 $301 $119 #
plane-surface $-1 -55.503402813806574 25.313296470119035 12.60913199680661 -0.52991927123019833 0 0.84804809178421925 0.84804809178421925 0 0.52991927123019833 forward_v I I I I #
coedge $-1 $302 $303 $304 $305 reversed $120 $-1 #
face $-1 $-1 $306 $62 $-1 $307 forward single #
loop $-1 $308 $309 $122 #
cone-surface $-1 -50.500304429767517 22.707601962403409 10.728378014707591 0.52991927123019833 0 -0.84804809178421925 0.42402404589210962 0 0.26495963561509916 1 I I -0.70710678118654746 0.70710678118654746 0.5 forward I I I I #
loop $-1 $-1 $310 $78 #
coedge $-1 $196 $196 $311 $312 reversed $123 $-1 #
face $-1 $-1 $313 $63 $-1 $314 forward single #
loop $-1 $315 $316 $125 #
cone-surface $-1 -50.500304429767517 27.918990977834675 10.728378014707591 0.52991927123019833 0 -0.84804809178421925 0.42402404589210962 0 0.26495963561509916 1 I I -0.70710678118654746 0.70710678118654746 0.5 forward I I I I #
loop $-1 $-1 $317 $79 #
coedge $-1 $201 $201 $318 $319 reversed $126 $-1 #
face $-1 $320 $321 $48 $-1 $322 reversed single #
loop $-1 $-1 $323 $128 #
plane-surface $-1 0 -38.466685237565109 0 0 1 0 0 0 1 forward_v I I I I #
coedge $-1 $324 $325 $326 $327 forward $129 $-1 #
coedge $-1 $328 $131 $329 $330 forward $81 $-1 #
coedge $-1 $131 $328 $331 $332 forward $81 $-1 #
coedge $-1 $333 $334 $131 $209 reversed $335 $-1 #
edge $-1 $336 -38.466685237565109 $337 38.466685237565109 $208 $338 forward 7 unknown #
face $-1 $339 $340 $49 $-1 $341 forward single #
loop $-1 $-1 $342 $132 #
plane-surface $-1 88.142906294957541 -29.162937832853949 161.71820679465424 0 1 0 0.83867057594974714 0 0.54463902268945019 forward_v I I I I #
coedge $-1 $343 $344 $345 $346 reversed $133 $-1 #
coedge $-1 $215 $135 $347 $348 reversed $84 $-1 #
coedge $-1 $135 $214 $343 $349 reversed $84 $-1 #
coedge $-1 $345 $350 $135 $217 forward $340 $-1 #
edge $-1 $351 -11.431949666327803 $352 -6.3093095521282052 $216 $353 forward 7 unknown #
loop $-1 $-1 $223 $136 #
plane-surface $-1 -4.9552353150944128 -17.735161489426794 101.25956866575325 0.83867057594974714 0 0.54463902268945019 0.54463902268945019 0 -0.83867057594974714 forward_v I I I I #
loop $-1 $-1 $354 $86 #
coedge $-1 $221 $221 $222 $355 reversed $137 $-1 #
coedge $-1 $222 $222 $221 $355 forward $139 $-1 #
coedge $-1 $223 $223 $140 $224 forward $218 $-1 #
edge $-1 $356 0 $356 6.2831853071796004 $223 $357 forward 7 unknown #
loop $-1 $-1 $230 $141 #
plane-surface $-1 -4.9552353150944128 -17.735161489426794 101.25956866575325 0.83867057594974714 0 0.54463902268945019 0.54463902268945019 0 -0.83867057594974714 forward_v I I I I #
loop $-1 $-1 $358 $89 #
coedge $-1 $228 $228 $229 $359 reversed $142 $-1 #
coedge $-1 $229 $229 $228 $359 forward $144 $-1 #
coedge $-1 $230 $230 $145 $231 forward $225 $-1 #
edge $-1 $360 0 $360 6.2831853071796004 $230 $361 forward 7 unknown #
face $-1 $362 $363 $52 $-1 $364 forward single #
loop $-1 $-1 $365 $146 #
plane-surface $-1 0 -38.466685237565109 0 0 1 0 0 0 1 forward_v I I I I #
coedge $-1 $366 $367 $368 $369 reversed $147 $-1 #
coedge $-1 $237 $149 $370 $371 reversed $93 $-1 #
coedge $-1 $149 $236 $366 $372 reversed $93 $-1 #
coedge $-1 $368 $373 $149 $239 forward $374 $-1 #
edge $-1 $375 37.324519498594114 $376 40.764988845376223 $238 $377 forward 7 unknown #
loop $-1 $-1 $245 $150 #
plane-surface $-1 -55.503402813806574 -32.386731386228625 12.60913199680661 -0.52991927123019833 0 0.84804809178421925 0.84804809178421925 0 0.52991927123019833 forward_v I I I I #
loop $-1 $-1 $378 $95 #
coedge $-1 $243 $243 $244 $379 reversed $151 $-1 #
coedge $-1 $244 $244 $243 $379 forward $153 $-1 #
coedge $-1 $245 $245 $154 $246 forward $240 $-1 #
edge $-1 $380 0 $380 6.2831853071796004 $245 $381 forward 7 unknown #
loop $-1 $-1 $252 $155 #
plane-surface $-1 -55.503402813806574 -32.386731386228625 12.60913199680661 -0.52991927123019833 0 0.84804809178421925 0.84804809178421925 0 0.52991927123019833 forward_v I I I I #
loop $-1 $-1 $382 $98 #
coedge $-1 $250 $250 $251 $383 reversed $156 $-1 #
coedge $-1 $251 $251 $250 $383 forward $158 $-1 #
coedge $-1 $252 $252 $159 $253 forward $247 $-1 #
edge $-1 $384 0 $384 6.2831853071796004 $252 $385 forward 7 unknown #
face $-1 $386 $387 $55 $-1 $388 forward single #
loop $-1 $-1 $389 $160 #
plane-surface $-1 -114.32804835358361 -19.233342618782558 106.74824168436567 0 1 0 -0.52991927123019833 0 0.84804809178421925 forward_v I I I I #
coedge $-1 $390 $391 $392 $393 reversed $161 $-1 #
coedge $-1 $259 $163 $394 $395 reversed $102 $-1 #
coedge $-1 $163 $258 $390 $396 reversed $102 $-1 #
coedge $-1 $392 $397 $163 $261 forward $398 $-1 #
edge $-1 $399 37.324519498594114 $400 40.764988845376223 $260 $401 forward 7 unknown #
loop $-1 $-1 $267 $164 #
plane-surface $-1 -55.503402813806574 -13.153388767446074 12.60913199680661 -0.52991927123019833 0 0.84804809178421925 0.84804809178421925 0 0.52991927123019833 forward_v I I I I #
loop $-1 $-1 $402 $104 #
coedge $-1 $265 $265 $266 $403 reversed $165 $-1 #
coedge $-1 $266 $266 $265 $403 forward $167 $-1 #
coedge $-1 $267 $267 $168 $268 forward $262 $-1 #
edge $-1 $404 0 $404 6.2831853071796004 $267 $405 forward 7 unknown #
loop $-1 $-1 $274 $169 #
plane-surface $-1 -55.503402813806574 -13.153388767446074 12.60913199680661 -0.52991927123019833 0 0.84804809178421925 0.84804809178421925 0 0.52991927123019833 forward_v I I I I #
loop $-1 $-1 $406 $107 #
coedge $-1 $272 $272 $273 $407 reversed $170 $-1 #
coedge $-1 $273 $273 $272 $407 forward $172 $-1 #
coedge $-1 $274 $274 $173 $275 forward $269 $-1 #
edge $-1 $408 0 $408 6.2831853071796004 $274 $409 forward 7 unknown #
face $-1 $410 $411 $58 $-1 $412 forward single #
loop $-1 $-1 $413 $174 #
plane-surface $-1 -114.32804835358361 -5.3290705182007514e-015 106.74824168436567 0 1 0 -0.52991927123019833 0 0.84804809178421925 forward_v I I I I #
coedge $-1 $414 $415 $416 $417 reversed $175 $-1 #
coedge $-1 $281 $177 $418 $419 reversed $111 $-1 #
coedge $-1 $177 $280 $414 $420 reversed $111 $-1 #
coedge $-1 $416 $421 $177 $283 forward $422 $-1 #
edge $-1 $423 37.324519498594114 $424 40.764988845376223 $282 $425 forward 7 unknown #
loop $-1 $-1 $289 $178 #
plane-surface $-1 -55.503402813806574 6.0799538513364766 12.60913199680661 -0.52991927123019833 0 0.84804809178421925 0.84804809178421925 0 0.52991927123019833 forward_v I I I I #
loop $-1 $-1 $426 $113 #
coedge $-1 $287 $287 $288 $427 reversed $179 $-1 #
coedge $-1 $288 $288 $287 $427 forward $181 $-1 #
coedge $-1 $289 $289 $182 $290 forward $284 $-1 #
edge $-1 $428 0 $428 6.2831853071796004 $289 $429 forward 7 unknown #
loop $-1 $-1 $296 $183 #
plane-surface $-1 -55.503402813806574 6.0799538513364766 12.60913199680661 -0.52991927123019833 0 0.84804809178421925 0.84804809178421925 0 0.52991927123019833 forward_v I I I I #
loop $-1 $-1 $430 $116 #
coedge $-1 $294 $294 $295 $431 reversed $184 $-1 #
coedge $-1 $295 $295 $294 $431 forward $186 $-1 #
coedge $-1 $296 $296 $187 $297 forward $291 $-1 #
edge $-1 $432 0 $432 6.2831853071796004 $296 $433 forward 7 unknown #
face $-1 $434 $435 $61 $-1 $436 forward single #
loop $-1 $-1 $437 $188 #
plane-surface $-1 -114.32804835358361 19.233342618782551 106.74824168436567 0 1 0 -0.52991927123019833 0 0.84804809178421925 forward_v I I I I #
coedge $-1 $438 $439 $440 $441 reversed $189 $-1 #
coedge $-1 $303 $191 $442 $443 reversed $120 $-1 #
coedge $-1 $191 $302 $438 $444 reversed $120 $-1 #
coedge $-1 $440 $445 $191 $305 forward $446 $-1 #
edge $-1 $447 37.324519498594114 $448 40.764988845376223 $304 $449 forward 7 unknown #
loop $-1 $-1 $311 $192 #
plane-surface $-1 -55.503402813806574 25.313296470119035 12.60913199680661 -0.52991927123019833 0 0.84804809178421925 0.84804809178421925 0 0.52991927123019833 forward_v I I I I #
loop $-1 $-1 $450 $122 #
coedge $-1 $309 $309 $310 $451 reversed $193 $-1 #
coedge $-1 $310 $310 $309 $451 forward $195 $-1 #
coedge $-1 $311 $311 $196 $312 forward $306 $-1 #
edge $-1 $452 0 $452 6.2831853071796004 $311 $453 forward 7 unknown #
loop $-1 $-1 $318 $197 #
plane-surface $-1 -55.503402813806574 25.313296470119035 12.60913199680661 -0.52991927123019833 0 0.84804809178421925 0.84804809178421925 0 0.52991927123019833 forward_v I I I I #
loop $-1 $-1 $454 $125 #
coedge $-1 $316 $316 $317 $455 reversed $198 $-1 #
coedge $-1 $317 $317 $316 $455 forward $200 $-1 #
coedge $-1 $318 $318 $201 $319 forward $313 $-1 #
edge $-1 $456 0 $456 6.2831853071796004 $318 $457 forward 7 unknown #
face $-1 $458 $459 $48 $-1 $460 reversed single #
loop $-1 $-1 $461 $202 #
plane-surface $-1 -55.503402813806574 0 0 1 0 0 0 0 -1 forward_v I I I I #
coedge $-1 $462 $331 $463 $464 forward $203 $-1 #
coedge $-1 $465 $205 $462 $466 forward $129 $-1 #
coedge $-1 $205 $465 $467 $468 forward $129 $-1 #
coedge $-1 $334 $333 $205 $327 reversed $335 $-1 #
edge $-1 $469 -38.466685237565109 $470 38.466685237565109 $326 $471 forward 7 unknown #
coedge $-1 $207 $206 $472 $473 forward $81 $-1 #
coedge $-1 $474 $475 $206 $330 reversed $459 $-1 #
edge $-1 $337 -55.503402813806574 $476 55.503402813806574 $329 $477 forward 7 unknown #
coedge $-1 $323 $478 $207 $332 reversed $203 $-1 #
edge $-1 $479 -55.503402813806574 $336 55.503402813806574 $331 $480 forward 7 unknown #
coedge $-1 $326 $208 $478 $481 forward $335 $-1 #
coedge $-1 $208 $326 $474 $482 reversed $335 $-1 #
loop $-1 $-1 $333 $458 #
vertex $-1 $209 $483 #
vertex $-1 $209 $484 #
straight-curve $-1 55.503402813806574 0 16.049601343588716 0 1 0 I I #
face $-1 $-1 $485 $49 $-1 $486 reversed single #
loop $-1 $-1 $216 $210 #
plane-surface $-1 0 0 16.049601343588716 0 0 1 1 0 0 forward_v I I I I #
coedge $-1 $487 $488 $489 $490 reversed $211 $-1 #
coedge $-1 $491 $213 $215 $349 forward $133 $-1 #
coedge $-1 $213 $491 $487 $492 forward $133 $-1 #
coedge $-1 $489 $216 $213 $346 forward $340 $-1 #
edge $-1 $352 -2.5601955987137579 $493 20.295357088140552 $345 $494 forward 7 unknown #
coedge $-1 $495 $496 $214 $348 forward $485 $-1 #
edge $-1 $497 -72.697676341625822 $351 -64.809502053738399 $347 $498 forward 7 unknown #
edge $-1 $352 101.60123624901118 $497 111.00680562761315 $215 $499 forward 7 unknown #
coedge $-1 $216 $489 $495 $500 forward $340 $-1 #
vertex $-1 $348 $501 #
vertex $-1 $217 $502 #
straight-curve $-1 44.071453147478771 -6.3073851459996391 16.049601343588719 -1 0 0 I I #
coedge $-1 $354 $354 $-1 $503 reversed $220 $-1 #
edge $-1 $504 0 $504 6.2831853071796004 $221 $505 forward 7 unknown #
vertex $-1 $224 $506 #
ellipse-curve $-1 52.942082756706775 -22.632779922324147 12.105514199645004 0.83867057594974714 0 0.54463902268945019 0.81695853403417529 0 -1.2580058639246208 1 I I #
coedge $-1 $358 $358 $-1 $507 reversed $227 $-1 #
edge $-1 $508 0 $508 6.2831853071796004 $228 $509 forward 7 unknown #
vertex $-1 $231 $510 #
ellipse-curve $-1 52.942082756706775 -12.837543056529444 12.105514199645004 0.83867057594974714 0 0.54463902268945019 0.81695853403417529 0 -1.2580058639246208 1 I I #
face $-1 $-1 $374 $52 $-1 $511 reversed single #
loop $-1 $-1 $512 $232 #
plane-surface $-1 0 0 16.049601343588716 0 0 1 1 0 0 forward_v I I I I #
coedge $-1 $513 $514 $367 $515 forward $233 $-1 #
coedge $-1 $516 $235 $237 $372 forward $147 $-1 #
coedge $-1 $235 $516 $365 $515 reversed $147 $-1 #
coedge $-1 $517 $238 $235 $369 forward $374 $-1 #
edge $-1 $376 10.113411841777829 $518 22.273319544450796 $368 $519 forward 7 unknown #
coedge $-1 $520 $512 $236 $371 forward $363 $-1 #
edge $-1 $521 -7.1665231536623537 $375 -1.660621362985232 $370 $522 forward 7 unknown #
edge $-1 $376 0 $521 6.4924405160716585 $237 $523 forward 7 unknown #
coedge $-1 $238 $517 $520 $524 reversed $374 $-1 #
loop $-1 $-1 $368 $362 #
vertex $-1 $524 $525 #
vertex $-1 $239 $526 #
straight-curve $-1 -55.503402813806574 -26.306777534892142 53.374120842182833 0 0 -1 I I #
coedge $-1 $378 $378 $-1 $527 reversed $242 $-1 #
edge $-1 $528 0 $528 6.2831853071796004 $243 $529 forward 7 unknown #
vertex $-1 $246 $530 #
ellipse-curve $-1 -52.750451918468016 -34.992425893944265 14.329366670197659 -0.52991927123019833 0 0.84804809178421925 0.84804809178421925 0 0.52991927123019833 1 I I #
coedge $-1 $382 $382 $-1 $531 reversed $249 $-1 #
edge $-1 $532 0 $532 6.2831853071796004 $250 $533 forward 7 unknown #
vertex $-1 $253 $534 #
ellipse-curve $-1 -52.750451918468016 -29.781036878512992 14.329366670197659 -0.52991927123019833 0 0.84804809178421925 0.84804809178421925 0 0.52991927123019833 1 I I #
face $-1 $-1 $398 $55 $-1 $535 reversed single #
loop $-1 $-1 $536 $254 #
plane-surface $-1 0 0 16.049601343588716 0 0 1 1 0 0 forward_v I I I I #
coedge $-1 $537 $538 $539 $540 reversed $255 $-1 #
coedge $-1 $541 $257 $259 $396 forward $161 $-1 #
coedge $-1 $257 $541 $537 $542 forward $161 $-1 #
coedge $-1 $539 $260 $257 $393 forward $398 $-1 #
edge $-1 $400 0.49674053238655524 $543 12.656648235059521 $392 $544 forward 7 unknown #
coedge $-1 $545 $546 $258 $395 forward $387 $-1 #
edge $-1 $547 -7.1665231536623537 $399 -1.660621362985232 $394 $548 forward 7 unknown #
edge $-1 $400 0 $547 6.4924405160716585 $259 $549 forward 7 unknown #
coedge $-1 $260 $539 $545 $550 reversed $398 $-1 #
loop $-1 $-1 $539 $386 #
vertex $-1 $550 $551 #
vertex $-1 $261 $552 #
straight-curve $-1 -55.503402813806574 -7.0734349161095924 53.374120842182833 0 0 -1 I I #
coedge $-1 $402 $402 $-1 $553 reversed $264 $-1 #
edge $-1 $554 0 $554 6.2831853071796004 $265 $555 forward 7 unknown #
vertex $-1 $268 $556 #
ellipse-curve $-1 -52.750451918468016 -15.759083275161707 14.329366670197659 -0.52991927123019833 0 0.84804809178421925 0.84804809178421925 0 0.52991927123019833 1 I I #
coedge $-1 $406 $406 $-1 $557 reversed $271 $-1 #
edge $-1 $558 0 $558 6.2831853071796004 $272 $559 forward 7 unknown #
vertex $-1 $275 $560 #
ellipse-curve $-1 -52.750451918468016 -10.547694259730438 14.329366670197659 -0.52991927123019833 0 0.84804809178421925 0.84804809178421925 0 0.52991927123019833 1 I I #
face $-1 $-1 $422 $58 $-1 $561 reversed single #
loop $-1 $-1 $562 $276 #
plane-surface $-1 0 0 16.049601343588716 0 0 1 1 0 0 forward_v I I I I #
coedge $-1 $563 $564 $565 $566 reversed $277 $-1 #
coedge $-1 $567 $279 $281 $420 forward $175 $-1 #
coedge $-1 $279 $567 $563 $568 forward $175 $-1 #
coedge $-1 $565 $282 $279 $417 forward $422 $-1 #
edge $-1 $424 -9.1199307770047202 $569 3.0399769256682436 $416 $570 forward 7 unknown #
coedge $-1 $571 $572 $280 $419 forward $411 $-1 #
edge $-1 $573 -7.1665231536623537 $423 -1.660621362985232 $418 $574 forward 7 unknown #
edge $-1 $424 0 $573 6.4924405160716585 $281 $575 forward 7 unknown #
coedge $-1 $282 $565 $571 $576 reversed $422 $-1 #
loop $-1 $-1 $565 $410 #
vertex $-1 $576 $577 #
vertex $-1 $283 $578 #
straight-curve $-1 -55.503402813806574 12.159907702672959 53.374120842182833 0 0 -1 I I #
coedge $-1 $426 $426 $-1 $579 reversed $286 $-1 #
edge $-1 $580 0 $580 6.2831853071796004 $287 $581 forward 7 unknown #
vertex $-1 $290 $582 #
ellipse-curve $-1 -52.750451918468016 3.4742593436208509 14.329366670197659 -0.52991927123019833 0 0.84804809178421925 0.84804809178421925 0 0.52991927123019833 1 I I #
coedge $-1 $430 $430 $-1 $583 reversed $293 $-1 #
edge $-1 $584 0 $584 6.2831853071796004 $294 $585 forward 7 unknown #
vertex $-1 $297 $586 #
ellipse-curve $-1 -52.750451918468016 8.6856483590521165 14.329366670197659 -0.52991927123019833 0 0.84804809178421925 0.84804809178421925 0 0.52991927123019833 1 I I #
face $-1 $-1 $446 $61 $-1 $587 reversed single #
loop $-1 $-1 $588 $298 #
plane-surface $-1 0 0 16.049601343588716 0 0 1 1 0 0 forward_v I I I I #
coedge $-1 $589 $590 $591 $592 reversed $299 $-1 #
coedge $-1 $593 $301 $303 $444 forward $189 $-1 #
coedge $-1 $301 $593 $589 $594 forward $189 $-1 #
coedge $-1 $591 $304 $301 $441 forward $446 $-1 #
edge $-1 $448 -18.736602086396001 $595 -6.5766943837230336 $440 $596 forward 7 unknown #
coedge $-1 $597 $598 $302 $443 forward $435 $-1 #
edge $-1 $599 -7.1665231536623537 $447 -1.660621362985232 $442 $600 forward 7 unknown #
edge $-1 $448 0 $599 6.4924405160716585 $303 $601 forward 7 unknown #
coedge $-1 $304 $591 $597 $602 reversed $446 $-1 #
loop $-1 $-1 $591 $434 #
vertex $-1 $602 $603 #
vertex $-1 $305 $604 #
straight-curve $-1 -55.503402813806574 31.393250321455518 53.374120842182833 0 0 -1 I I #
coedge $-1 $450 $450 $-1 $605 reversed $308 $-1 #
edge $-1 $606 0 $606 6.2831853071796004 $309 $607 forward 7 unknown #
vertex $-1 $312 $608 #
ellipse-curve $-1 -52.750451918468016 22.707601962403409 14.329366670197659 -0.52991927123019833 0 0.84804809178421925 0.84804809178421925 0 0.52991927123019833 1 I I #
coedge $-1 $454 $454 $-1 $609 reversed $315 $-1 #
edge $-1 $610 0 $610 6.2831853071796004 $316 $611 forward 7 unknown #
vertex $-1 $319 $612 #
ellipse-curve $-1 -52.750451918468016 27.918990977834675 14.329366670197659 -0.52991927123019833 0 0.84804809178421925 0.84804809178421925 0 0.52991927123019833 1 I I #
face $-1 $-1 $335 $48 $-1 $613 reversed single #
loop $-1 $-1 $474 $320 #
plane-surface $-1 0 38.466685237565109 0 0 -1 0 0 0 -1 forward_v I I I I #
coedge $-1 $614 $472 $475 $615 forward $321 $-1 #
coedge $-1 $478 $323 $324 $466 reversed $203 $-1 #
coedge $-1 $472 $614 $323 $464 reversed $321 $-1 #
edge $-1 $479 -16.049601343588716 $616 16.049601343588716 $463 $617 forward 7 unknown #
coedge $-1 $325 $324 $614 $618 forward $129 $-1 #
edge $-1 $470 -55.503402813806574 $616 55.503402813806574 $462 $619 forward 7 unknown #
coedge $-1 $475 $474 $325 $468 reversed $459 $-1 #
edge $-1 $620 -55.503402813806574 $469 55.503402813806574 $467 $621 forward 7 unknown #
vertex $-1 $327 $622 #
vertex $-1 $481 $623 #
straight-curve $-1 55.503402813806574 0 -16.049601343588716 0 -1 0 I I #
coedge $-1 $461 $463 $328 $473 reversed $321 $-1 #
edge $-1 $476 -38.466685237565109 $479 38.466685237565109 $472 $624 forward 7 unknown #
coedge $-1 $467 $329 $334 $482 forward $459 $-1 #
coedge $-1 $329 $467 $461 $615 reversed $459 $-1 #
vertex $-1 $330 $625 #
straight-curve $-1 0 38.466685237565109 16.049601343588716 -1 0 0 I I #
coedge $-1 $331 $462 $333 $481 reversed $203 $-1 #
vertex $-1 $473 $626 #
straight-curve $-1 0 -38.466685237565109 16.049601343588716 1 0 0 I I #
edge $-1 $336 -16.049601343588716 $470 16.049601343588716 $333 $627 forward 7 unknown #
edge $-1 $337 -16.049601343588716 $469 16.049601343588716 $334 $628 forward 7 unknown #
point $-1 55.503402813806574 -38.466685237565109 16.049601343588716 #
point $-1 55.503402813806574 38.466685237565109 16.049601343588716 #
loop $-1 $-1 $347 $339 #
plane-surface $-1 55.503402813806574 0 0 -1 0 0 0 0 1 forward_v I I I I #
coedge $-1 $488 $342 $344 $492 reversed $211 $-1 #
coedge $-1 $342 $487 $629 $630 reversed $211 $-1 #
coedge $-1 $350 $345 $342 $490 forward $340 $-1 #
edge $-1 $493 6.3093095521282052 $631 11.431949666327803 $489 $632 forward 7 unknown #
coedge $-1 $344 $343 $496 $633 reversed $133 $-1 #
edge $-1 $634 -111.00680562761315 $493 -101.60123624901118 $487 $635 forward 7 unknown #
vertex $-1 $346 $636 #
straight-curve $-1 50.380762699606976 -8.867580744713397 16.049601343588719 0 -1 0 I I #
coedge $-1 $629 $347 $350 $500 reversed $485 $-1 #
coedge $-1 $347 $629 $491 $633 forward $485 $-1 #
vertex $-1 $348 $637 #
straight-curve $-1 55.503402813806574 -6.3073851459996391 80.859103397327118 0 0 1 I I #
straight-curve $-1 -4.9552353150944128 -6.3073851459996391 101.25956866575325 0.54463902268945019 0 -0.83867057594974714 I I #
edge $-1 $631 -29.162937832853949 $351 -6.3073851459996391 $495 $638 forward 7 unknown #
point $-1 55.503402813806574 -6.3073851459996391 16.049601343588716 #
point $-1 50.380762699606976 -6.3073851459996391 16.049601343588719 #
edge $-1 $639 1 $639 0 $354 $-1 forward 7 unknown #
vertex $-1 $355 $640 #
ellipse-curve $-1 50.323601542764358 -22.632779922324147 10.405052671377751 0.83867057594974714 0 0.54463902268945019 0.81695853403417529 0 -1.2580058639246208 1 I I #
point $-1 53.759041290740939 -22.632779922324147 10.847508335720377 #
edge $-1 $641 1 $641 0 $358 $-1 forward 7 unknown #
vertex $-1 $359 $642 #
ellipse-curve $-1 50.323601542764358 -12.837543056529444 10.405052671377751 0.83867057594974714 0 0.54463902268945019 0.81695853403417529 0 -1.2580058639246208 1 I I #
point $-1 53.759041290740939 -12.837543056529444 10.847508335720377 #
plane-surface $-1 -55.503402813806574 0 0 1 0 0 0 0 -1 forward_v I I I I #
coedge $-1 $370 $643 $516 $644 forward $363 $-1 #
coedge $-1 $514 $365 $643 $645 reversed $233 $-1 #
coedge $-1 $365 $513 $517 $646 forward $233 $-1 #
edge $-1 $518 -20.193866402593198 $647 -13.701425886521539 $365 $648 forward 7 unknown #
coedge $-1 $367 $366 $512 $644 reversed $147 $-1 #
coedge $-1 $373 $368 $514 $646 reversed $374 $-1 #
vertex $-1 $515 $649 #
straight-curve $-1 -55.503402813806574 -16.193365693114313 12.609131996806608 0 -1 0 I I #
coedge $-1 $643 $370 $373 $524 forward $363 $-1 #
vertex $-1 $371 $650 #
straight-curve $-1 -57.164024176791806 -26.306777534892142 16.049601343588712 -1 0 0 I I #
straight-curve $-1 -55.503402813806574 -26.306777534892142 12.60913199680661 0.84804809178421925 0 0.52991927123019833 I I #
edge $-1 $375 26.306777534892142 $651 38.466685237565109 $373 $652 forward 7 unknown #
point $-1 -55.503402813806574 -26.306777534892142 16.049601343588716 #
point $-1 -55.503402813806574 -26.306777534892142 12.60913199680661 #
edge $-1 $653 1 $653 0 $378 $-1 forward 7 unknown #
vertex $-1 $379 $654 #
ellipse-curve $-1 -50.765264065382617 -34.992425893944265 11.1524020605997 -0.52991927123019833 0 0.84804809178421925 0.84804809178421925 0 0.52991927123019833 1 I I #
point $-1 -51.902403826683795 -34.992425893944265 14.859285941427864 #
edge $-1 $655 1 $655 0 $382 $-1 forward 7 unknown #
vertex $-1 $383 $656 #
ellipse-curve $-1 -50.765264065382617 -29.781036878512992 11.1524020605997 -0.52991927123019833 0 0.84804809178421925 0.84804809178421925 0 0.52991927123019833 1 I I #
point $-1 -51.902403826683795 -29.781036878512992 14.859285941427864 #
plane-surface $-1 -55.503402813806574 0 0 1 0 0 0 0 -1 forward_v I I I I #
coedge $-1 $546 $545 $538 $657 forward $387 $-1 #
coedge $-1 $538 $389 $391 $542 reversed $255 $-1 #
coedge $-1 $389 $537 $536 $657 reversed $255 $-1 #
coedge $-1 $397 $392 $389 $540 forward $398 $-1 #
edge $-1 $543 -40.764988845376223 $658 -37.324519498594114 $539 $659 forward 7 unknown #
coedge $-1 $391 $390 $546 $660 reversed $161 $-1 #
edge $-1 $661 -6.4924405160716585 $543 0 $537 $662 forward 7 unknown #
vertex $-1 $393 $663 #
straight-curve $-1 -55.503402813806574 -6.5766943837230372 12.609131996806608 0 -1 0 I I #
coedge $-1 $536 $394 $397 $550 forward $387 $-1 #
coedge $-1 $394 $536 $541 $660 forward $387 $-1 #
vertex $-1 $395 $664 #
straight-curve $-1 -57.164024176791806 -7.0734349161095924 16.049601343588712 -1 0 0 I I #
straight-curve $-1 -55.503402813806574 -7.0734349161095924 12.60913199680661 0.84804809178421925 0 0.52991927123019833 I I #
edge $-1 $399 7.0734349161095924 $658 19.233342618782558 $397 $665 forward 7 unknown #
point $-1 -55.503402813806574 -7.0734349161095924 16.049601343588716 #
point $-1 -55.503402813806574 -7.0734349161095924 12.60913199680661 #
edge $-1 $666 1 $666 0 $402 $-1 forward 7 unknown #
vertex $-1 $403 $667 #
ellipse-curve $-1 -50.765264065382617 -15.759083275161707 11.1524020605997 -0.52991927123019833 0 0.84804809178421925 0.84804809178421925 0 0.52991927123019833 1 I I #
point $-1 -51.902403826683795 -15.759083275161707 14.859285941427864 #
edge $-1 $668 1 $668 0 $406 $-1 forward 7 unknown #
vertex $-1 $407 $669 #
ellipse-curve $-1 -50.765264065382617 -10.547694259730438 11.1524020605997 -0.52991927123019833 0 0.84804809178421925 0.84804809178421925 0 0.52991927123019833 1 I I #
point $-1 -51.902403826683795 -10.547694259730438 14.859285941427864 #
plane-surface $-1 -55.503402813806574 0 0 1 0 0 0 0 -1 forward_v I I I I #
coedge $-1 $572 $571 $564 $670 forward $411 $-1 #
coedge $-1 $564 $413 $415 $568 reversed $277 $-1 #
coedge $-1 $413 $563 $562 $670 reversed $277 $-1 #
coedge $-1 $421 $416 $413 $566 forward $422 $-1 #
edge $-1 $569 -40.764988845376223 $671 -37.324519498594114 $565 $672 forward 7 unknown #
coedge $-1 $415 $414 $572 $673 reversed $175 $-1 #
edge $-1 $674 -6.4924405160716585 $569 0 $563 $675 forward 7 unknown #
vertex $-1 $417 $676 #
straight-curve $-1 -55.503402813806574 3.0399769256682383 12.609131996806608 0 -1 0 I I #
coedge $-1 $562 $418 $421 $576 forward $411 $-1 #
coedge $-1 $418 $562 $567 $673 forward $411 $-1 #
vertex $-1 $419 $677 #
straight-curve $-1 -57.164024176791806 12.159907702672959 16.049601343588712 -1 0 0 I I #
straight-curve $-1 -55.503402813806574 12.159907702672959 12.60913199680661 0.84804809178421925 0 0.52991927123019833 I I #
edge $-1 $423 -12.159907702672959 $671 5.3290705182007514e-015 $421 $678 forward 7 unknown #
point $-1 -55.503402813806574 12.159907702672959 16.049601343588716 #
point $-1 -55.503402813806574 12.159907702672959 12.60913199680661 #
edge $-1 $679 1 $679 0 $426 $-1 forward 7 unknown #
vertex $-1 $427 $680 #
ellipse-curve $-1 -50.765264065382617 3.4742593436208509 11.1524020605997 -0.52991927123019833 0 0.84804809178421925 0.84804809178421925 0 0.52991927123019833 1 I I #
point $-1 -51.902403826683795 3.4742593436208509 14.859285941427864 #
edge $-1 $681 1 $681 0 $430 $-1 forward 7 unknown #
vertex $-1 $431 $682 #
ellipse-curve $-1 -50.765264065382617 8.6856483590521165 11.1524020605997 -0.52991927123019833 0 0.84804809178421925 0.84804809178421925 0 0.52991927123019833 1 I I #
point $-1 -51.902403826683795 8.6856483590521165 14.859285941427864 #
plane-surface $-1 -55.503402813806574 0 0 1 0 0 0 0 -1 forward_v I I I I #
coedge $-1 $598 $597 $590 $683 forward $435 $-1 #
coedge $-1 $590 $437 $439 $594 reversed $299 $-1 #
coedge $-1 $437 $589 $588 $683 reversed $299 $-1 #
coedge $-1 $445 $440 $437 $592 forward $446 $-1 #
edge $-1 $595 -40.764988845376223 $684 -37.324519498594114 $591 $685 forward 7 unknown #
coedge $-1 $439 $438 $598 $686 reversed $189 $-1 #
edge $-1 $687 -6.4924405160716585 $595 0 $589 $688 forward 7 unknown #
vertex $-1 $441 $689 #
straight-curve $-1 -55.503402813806574 12.656648235059517 12.609131996806608 0 -1 0 I I #
coedge $-1 $588 $442 $445 $602 forward $435 $-1 #
coedge $-1 $442 $588 $593 $686 forward $435 $-1 #
vertex $-1 $443 $690 #
straight-curve $-1 -57.164024176791806 31.393250321455518 16.049601343588712 -1 0 0 I I #
straight-curve $-1 -55.503402813806574 31.393250321455518 12.60913199680661 0.84804809178421925 0 0.52991927123019833 I I #
edge $-1 $447 -31.393250321455518 $684 -19.233342618782551 $445 $691 forward 7 unknown #
point $-1 -55.503402813806574 31.393250321455518 16.049601343588716 #
point $-1 -55.503402813806574 31.393250321455518 12.60913199680661 #
edge $-1 $692 1 $692 0 $450 $-1 forward 7 unknown #
vertex $-1 $451 $693 #
ellipse-curve $-1 -50.765264065382617 22.707601962403409 11.1524020605997 -0.52991927123019833 0 0.84804809178421925 0.84804809178421925 0 0.52991927123019833 1 I I #
point $-1 -51.902403826683795 22.707601962403409 14.859285941427864 #
edge $-1 $694 1 $694 0 $454 $-1 forward 7 unknown #
vertex $-1 $455 $695 #
ellipse-curve $-1 -50.765264065382617 27.918990977834675 11.1524020605997 -0.52991927123019833 0 0.84804809178421925 0.84804809178421925 0 0.52991927123019833 1 I I #
point $-1 -51.902403826683795 27.918990977834675 14.859285941427864 #
plane-surface $-1 55.503402813806574 0 0 -1 0 0 0 0 1 forward_v I I I I #
coedge $-1 $463 $461 $465 $618 reversed $321 $-1 #
edge $-1 $476 -16.049601343588716 $620 16.049601343588716 $475 $696 forward 7 unknown #
vertex $-1 $618 $697 #
straight-curve $-1 -55.503402813806574 -38.466685237565109 0 0 0 -1 I I #
edge $-1 $616 -38.466685237565109 $620 38.466685237565109 $614 $698 forward 7 unknown #
straight-curve $-1 0 -38.466685237565109 -16.049601343588716 -1 0 0 I I #
vertex $-1 $468 $699 #
straight-curve $-1 0 38.466685237565109 -16.049601343588716 1 0 0 I I #
point $-1 55.503402813806574 38.466685237565109 -16.049601343588716 #
point $-1 55.503402813806574 -38.466685237565109 -16.049601343588716 #
straight-curve $-1 -55.503402813806574 0 16.049601343588716 0 -1 0 I I #
point $-1 -55.503402813806574 38.466685237565109 16.049601343588716 #
point $-1 -55.503402813806574 -38.466685237565109 16.049601343588716 #
straight-curve $-1 55.503402813806574 -38.466685237565109 0 0 0 -1 I I #
straight-curve $-1 55.503402813806574 38.466685237565109 0 0 0 -1 I I #
coedge $-1 $496 $495 $488 $630 forward $485 $-1 #
edge $-1 $631 64.809502053738399 $634 72.697676341625822 $629 $700 forward 7 unknown #
vertex $-1 $500 $701 #
straight-curve $-1 44.071453147478771 -29.162937832853949 16.049601343588719 1 0 0 I I #
edge $-1 $634 -20.295357088140552 $497 2.5601955987137579 $496 $702 forward 7 unknown #
vertex $-1 $633 $703 #
straight-curve $-1 -4.9552353150944128 -29.162937832853949 101.25956866575325 -0.54463902268945019 0 0.83867057594974714 I I #
point $-1 50.380762699606976 -29.162937832853949 16.049601343588719 #
point $-1 55.503402813806574 -6.3073851459996391 8.1614270557012958 #
straight-curve $-1 55.503402813806574 0 16.049601343588716 0 1 0 I I #
vertex $-1 $503 $704 #
point $-1 51.140560076798529 -22.632779922324147 9.1470468074531297 #
vertex $-1 $507 $705 #
point $-1 51.140560076798529 -12.837543056529444 9.1470468074531297 #
coedge $-1 $512 $520 $513 $645 forward $363 $-1 #
edge $-1 $647 -22.273319544450796 $521 -10.113411841777829 $512 $706 forward 7 unknown #
edge $-1 $651 -55.503402813806574 $647 -49.997501023129452 $513 $707 forward 7 unknown #
edge $-1 $651 -16.049601343588716 $518 -12.609131996806612 $517 $708 forward 7 unknown #
vertex $-1 $515 $709 #
straight-curve $-1 -38.378032945341957 -38.466685237565109 23.310250964188786 0.84804809178421925 0 0.52991927123019833 I I #
point $-1 -55.503402813806574 -38.466685237565109 12.609131996806612 #
point $-1 -49.997501023129452 -26.306777534892142 16.049601343588716 #
vertex $-1 $524 $710 #
straight-curve $-1 -55.503402813806574 0 16.049601343588716 0 -1 0 I I #
vertex $-1 $527 $711 #
point $-1 -49.917215973598395 -34.992425893944265 11.682321331829899 #
vertex $-1 $531 $712 #
point $-1 -49.917215973598395 -29.781036878512992 11.682321331829899 #
edge $-1 $658 1.660621362985232 $661 7.1665231536623537 $536 $713 forward 7 unknown #
vertex $-1 $540 $714 #
straight-curve $-1 -55.503402813806574 -19.233342618782558 53.374120842182833 0 0 1 I I #
edge $-1 $661 -12.656648235059521 $547 -0.49674053238655524 $546 $715 forward 7 unknown #
vertex $-1 $660 $716 #
straight-curve $-1 -55.503402813806574 -19.233342618782558 12.60913199680661 -0.84804809178421925 0 -0.52991927123019833 I I #
point $-1 -55.503402813806574 -19.233342618782558 12.60913199680661 #
point $-1 -49.997501023129452 -7.0734349161095924 16.049601343588716 #
straight-curve $-1 -55.503402813806574 0 16.049601343588716 0 -1 0 I I #
vertex $-1 $553 $717 #
point $-1 -49.917215973598395 -15.759083275161707 11.682321331829899 #
vertex $-1 $557 $718 #
point $-1 -49.917215973598395 -10.547694259730438 11.682321331829899 #
edge $-1 $671 1.660621362985232 $674 7.1665231536623537 $562 $719 forward 7 unknown #
vertex $-1 $566 $720 #
straight-curve $-1 -55.503402813806574 -5.3290705182007514e-015 53.374120842182833 0 0 1 I I #
edge $-1 $674 -3.0399769256682436 $573 9.1199307770047202 $572 $721 forward 7 unknown #
vertex $-1 $673 $722 #
straight-curve $-1 -55.503402813806574 -5.3290705182007514e-015 12.60913199680661 -0.84804809178421925 0 -0.52991927123019833 I I #
point $-1 -55.503402813806574 -5.3290705182007514e-015 12.60913199680661 #
point $-1 -49.997501023129452 12.159907702672959 16.049601343588716 #
straight-curve $-1 -55.503402813806574 0 16.049601343588716 0 -1 0 I I #
vertex $-1 $579 $723 #
point $-1 -49.917215973598395 3.4742593436208509 11.682321331829899 #
vertex $-1 $583 $724 #
point $-1 -49.917215973598395 8.6856483590521165 11.682321331829899 #
edge $-1 $684 1.660621362985232 $687 7.1665231536623537 $588 $725 forward 7 unknown #
vertex $-1 $592 $726 #
straight-curve $-1 -55.503402813806574 19.233342618782551 53.374120842182833 0 0 1 I I #
edge $-1 $687 6.5766943837230336 $599 18.736602086396001 $598 $727 forward 7 unknown #
vertex $-1 $686 $728 #
straight-curve $-1 -55.503402813806574 19.233342618782551 12.60913199680661 -0.84804809178421925 0 -0.52991927123019833 I I #
point $-1 -55.503402813806574 19.233342618782551 12.60913199680661 #
point $-1 -49.997501023129452 31.393250321455518 16.049601343588716 #
straight-curve $-1 -55.503402813806574 0 16.049601343588716 0 -1 0 I I #
vertex $-1 $605 $729 #
point $-1 -49.917215973598395 22.707601962403409 11.682321331829899 #
vertex $-1 $609 $730 #
point $-1 -49.917215973598395 27.918990977834675 11.682321331829899 #
straight-curve $-1 -55.503402813806574 38.466685237565109 0 0 0 -1 I I #
point $-1 -55.503402813806574 -38.466685237565109 -16.049601343588716 #
straight-curve $-1 -55.503402813806574 0 -16.049601343588716 0 1 0 I I #
point $-1 -55.503402813806574 38.466685237565109 -16.049601343588716 #
straight-curve $-1 55.503402813806574 -29.162937832853949 80.859103397327118 0 0 -1 I I #
point $-1 55.503402813806574 -29.162937832853949 16.049601343588716 #
straight-curve $-1 55.503402813806574 -8.867580744713397 8.1614270557012958 0 1 0 I I #
point $-1 55.503402813806574 -29.162937832853949 8.1614270557012958 #
point $-1 49.065595678839735 -22.632779922324147 9.5880941373435764 #
point $-1 49.065595678839735 -12.837543056529444 9.5880941373435764 #
straight-curve $-1 -49.997501023129459 -16.193365693114313 16.049601343588712 0 1 0 I I #
straight-curve $-1 0 -38.466685237565109 16.049601343588716 1 0 0 I I #
straight-curve $-1 -55.503402813806574 -38.466685237565109 0 0 0 -1 I I #
point $-1 -49.997501023129452 -38.466685237565109 16.049601343588716 #
point $-1 -55.503402813806574 -38.466685237565109 16.049601343588716 #
point $-1 -50.235344794152418 -34.992425893944265 10.304353968815482 #
point $-1 -50.235344794152418 -29.781036878512992 10.304353968815482 #
straight-curve $-1 -57.164024176791806 -19.233342618782558 16.049601343588712 1 0 0 I I #
point $-1 -55.503402813806574 -19.233342618782558 16.049601343588716 #
straight-curve $-1 -49.997501023129459 -6.5766943837230372 16.049601343588712 0 1 0 I I #
point $-1 -49.997501023129452 -19.233342618782558 16.049601343588716 #
point $-1 -50.235344794152418 -15.759083275161707 10.304353968815482 #
point $-1 -50.235344794152418 -10.547694259730438 10.304353968815482 #
straight-curve $-1 -57.164024176791806 -5.3290705182007514e-015 16.049601343588712 1 0 0 I I #
point $-1 -55.503402813806574 -5.3290705182007514e-015 16.049601343588716 #
straight-curve $-1 -49.997501023129459 3.0399769256682383 16.049601343588712 0 1 0 I I #
point $-1 -49.997501023129452 -5.3290705182007514e-015 16.049601343588716 #
point $-1 -50.235344794152418 3.4742593436208509 10.304353968815482 #
point $-1 -50.235344794152418 8.6856483590521165 10.304353968815482 #
straight-curve $-1 -57.164024176791806 19.233342618782551 16.049601343588712 1 0 0 I I #
point $-1 -55.503402813806574 19.233342618782551 16.049601343588716 #
straight-curve $-1 -49.997501023129459 12.656648235059517 16.049601343588712 0 1 0 I I #
point $-1 -49.997501023129452 19.233342618782551 16.049601343588716 #
point $-1 -50.235344794152418 22.707601962403409 10.304353968815482 #
point $-1 -50.235344794152418 27.918990977834675 10.304353968815482 #
End-of-ACIS-data 