500 0 6 0           
7 Unknown 11 ACIS 5.0 NT 24 Thu Mar 25 15:50:59 1999 
-1 9.9999999999999995e-007 1e-010 
body $-1 $6 $-1 $7 #
body $-1 $8 $-1 $9 #
body $-1 $10 $-1 $11 #
body $-1 $12 $-1 $13 #
body $-1 $14 $-1 $15 #
body $-1 $16 $-1 $17 #
lump $-1 $-1 $18 $0 #
transform $-1 1 0 0 0 1 0 0 0 1 58.733481856746117 26.827902960237584 8.0018660237827692 1 rotate no_reflect no_shear #
lump $-1 $-1 $19 $1 #
transform $-1 1 0 0 0 1 0 0 0 1 58.733481856746117 26.827902960237584 8.0018660237827692 1 rotate no_reflect no_shear #
lump $-1 $-1 $20 $2 #
transform $-1 1 0 0 0 1 0 0 0 1 58.733481856746117 26.827902960237584 8.0018660237827692 1 rotate no_reflect no_shear #
lump $-1 $-1 $21 $3 #
transform $-1 1 0 0 0 1 0 0 0 1 58.733481856746117 26.827902960237584 8.0018660237827692 1 rotate no_reflect no_shear #
lump $-1 $-1 $22 $4 #
transform $-1 1 0 0 0 1 0 0 0 1 58.733481856746117 26.827902960237584 8.0018660237827692 1 rotate no_reflect no_shear #
lump $-1 $-1 $23 $5 #
transform $-1 1 0 0 0 1 0 0 0 1 58.733481856746117 26.827902960237584 8.0018660237827692 1 rotate no_reflect no_shear #
shell $-1 $-1 $-1 $24 $-1 $6 #
shell $-1 $-1 $-1 $25 $-1 $8 #
shell $-1 $-1 $-1 $26 $-1 $10 #
shell $-1 $-1 $-1 $27 $-1 $12 #
shell $-1 $-1 $-1 $28 $-1 $14 #
shell $-1 $-1 $-1 $29 $-1 $16 #
face $-1 $30 $31 $18 $-1 $32 forward single #
face $-1 $33 $34 $19 $-1 $35 forward single #
face $-1 $36 $37 $20 $-1 $38 reversed single #
face $-1 $39 $40 $21 $-1 $41 forward single #
face $-1 $42 $43 $22 $-1 $44 reversed single #
face $-1 $45 $46 $23 $-1 $47 forward single #
face $-1 $48 $49 $18 $-1 $50 reversed single #
loop $-1 $-1 $51 $24 #
plane-surface $-1 0 0 8.0018660237827692 0 0 1 1 0 0 forward_v I I I I #
face $-1 $52 $53 $19 $-1 $54 reversed single #
loop $-1 $-1 $55 $25 #
plane-surface $-1 0 -26.827902960237584 0 0 1 0 0 0 1 forward_v I I I I #
face $-1 $56 $57 $20 $-1 $58 reversed single #
loop $-1 $-1 $59 $26 #
plane-surface $-1 -26.989941192600924 39.094094823719701 132.32878863555553 1 0 0 0 -0.50000000669873634 -0.8660253999169214 forward_v I I I I #
face $-1 $60 $61 $21 $-1 $62 forward single #
loop $-1 $63 $64 $27 #
cone-surface $-1 -13.494970596300462 21.999248810928151 3.8687465625900628 0 -0.50000000669873634 -0.8660253999169214 2 0 0 1 I I 0 1 2 forward I I I I #
face $-1 $65 $66 $22 $-1 $67 reversed single #
loop $-1 $-1 $68 $28 #
plane-surface $-1 -13.494970596300462 -19.639387819906638 30.599414408551922 0 0.50000000669873634 0.8660253999169214 1 0 0 forward_v I I I I #
face $-1 $69 $70 $23 $-1 $71 forward single #
loop $-1 $72 $73 $29 #
cone-surface $-1 13.494970596300469 21.999248810928151 3.8687465625900628 0 -0.50000000669873634 -0.8660253999169214 2 0 0 1 I I 0 1 2 forward I I I I #
face $-1 $74 $75 $18 $-1 $76 reversed single #
loop $-1 $-1 $77 $30 #
plane-surface $-1 0 0 -8.0018660237827692 0 0 1 1 0 0 forward_v I I I I #
coedge $-1 $78 $79 $80 $81 forward $31 $-1 #
face $-1 $82 $83 $19 $-1 $84 forward single #
loop $-1 $-1 $85 $33 #
plane-surface $-1 -58.733481856746117 0 0 1 0 0 0 0 -1 forward_v I I I I #
coedge $-1 $86 $87 $88 $89 forward $34 $-1 #
face $-1 $90 $91 $20 $-1 $92 reversed single #
loop $-1 $-1 $93 $36 #
plane-surface $-1 -13.494970596300462 -19.639387819906638 30.599414408551922 0 0.50000000669873634 0.8660253999169214 1 0 0 forward_v I I I I #
coedge $-1 $94 $95 $96 $97 reversed $37 $-1 #
face $-1 $-1 $98 $21 $-1 $99 forward single #
loop $-1 $100 $101 $39 #
cone-surface $-1 -13.494970596300462 20.334189430119633 0.9847791689276999 0 -0.50000000669873634 -0.8660253999169214 1 0 0 1 I I -0.70710678118654746 0.70710678118654746 1 forward I I I I #
loop $-1 $-1 $102 $27 #
coedge $-1 $64 $64 $103 $104 reversed $40 $-1 #
face $-1 $105 $106 $22 $-1 $107 forward single #
loop $-1 $-1 $108 $42 #
plane-surface $-1 26.989941192600931 39.094094823719701 132.32878863555553 -1 0 0 0 0.50000000669873634 0.8660253999169214 forward_v I I I I #
coedge $-1 $109 $110 $111 $112 reversed $43 $-1 #
face $-1 $-1 $113 $23 $-1 $114 forward single #
loop $-1 $115 $116 $45 #
cone-surface $-1 13.494970596300469 20.334189430119633 0.9847791689276999 0 -0.50000000669873634 -0.8660253999169214 1 0 0 1 I I -0.70710678118654746 0.70710678118654746 1 forward I I I I #
loop $-1 $-1 $117 $29 #
coedge $-1 $73 $73 $118 $119 reversed $46 $-1 #
face $-1 $120 $121 $18 $-1 $122 reversed single #
loop $-1 $-1 $123 $48 #
plane-surface $-1 0 -26.827902960237584 0 0 1 0 0 0 1 forward_v I I I I #
coedge $-1 $124 $125 $126 $127 forward $49 $-1 #
coedge $-1 $128 $51 $129 $130 forward $31 $-1 #
coedge $-1 $51 $128 $131 $132 forward $31 $-1 #
coedge $-1 $133 $134 $51 $81 reversed $135 $-1 #
edge $-1 $136 -26.827902960237584 $137 26.827902960237584 $80 $138 forward 7 unknown #
face $-1 $139 $140 $19 $-1 $141 reversed single #
loop $-1 $-1 $142 $52 #
plane-surface $-1 0 -29.528395377938228 5.1270518829531309 0 0 1 1 0 0 forward_v I I I I #
coedge $-1 $143 $144 $87 $145 forward $53 $-1 #
coedge $-1 $146 $55 $147 $148 reversed $34 $-1 #
coedge $-1 $55 $146 $85 $145 reversed $34 $-1 #
coedge $-1 $149 $142 $55 $89 reversed $83 $-1 #
edge $-1 $150 -58.733481856746117 $151 58.733481856746117 $88 $152 forward 7 unknown #
face $-1 $153 $154 $20 $-1 $155 forward single #
loop $-1 $-1 $156 $56 #
plane-surface $-1 1.7763568394002505e-015 39.094094823719701 132.32878863555553 -1 0 0 0 0.50000000669873634 0.8660253999169214 forward_v I I I I #
coedge $-1 $157 $158 $159 $160 reversed $57 $-1 #
coedge $-1 $95 $59 $161 $162 reversed $37 $-1 #
coedge $-1 $59 $94 $157 $163 reversed $37 $-1 #
coedge $-1 $159 $164 $59 $97 forward $154 $-1 #
edge $-1 $165 -7.2808555483777333 $166 0.046334002021552578 $96 $167 forward 7 unknown #
loop $-1 $-1 $103 $60 #
plane-surface $-1 -13.494970596300462 -19.639387819906638 30.599414408551922 0 0.50000000669873634 0.8660253999169214 1 0 0 forward_v I I I I #
loop $-1 $-1 $168 $39 #
coedge $-1 $101 $101 $102 $169 reversed $61 $-1 #
coedge $-1 $102 $102 $101 $169 forward $63 $-1 #
coedge $-1 $103 $103 $64 $104 forward $98 $-1 #
edge $-1 $170 1.5942113062314452e-017 $170 6.2831853071796004 $103 $171 forward 7 unknown #
face $-1 $172 $173 $22 $-1 $174 forward single #
loop $-1 $-1 $175 $65 #
plane-surface $-1 0 0 8.0018660237827692 0 0 1 1 0 0 forward_v I I I I #
coedge $-1 $176 $177 $178 $179 reversed $66 $-1 #
coedge $-1 $180 $68 $181 $182 reversed $43 $-1 #
coedge $-1 $68 $180 $175 $183 reversed $43 $-1 #
coedge $-1 $184 $185 $68 $112 forward $173 $-1 #
edge $-1 $186 -53.655805920475167 $187 -45.19509616403824 $111 $188 forward 7 unknown #
loop $-1 $-1 $118 $69 #
plane-surface $-1 -13.494970596300462 -19.639387819906638 30.599414408551922 0 0.50000000669873634 0.8660253999169214 1 0 0 forward_v I I I I #
loop $-1 $-1 $189 $45 #
coedge $-1 $116 $116 $117 $190 reversed $70 $-1 #
coedge $-1 $117 $117 $116 $190 forward $72 $-1 #
coedge $-1 $118 $118 $73 $119 forward $113 $-1 #
edge $-1 $191 1.5942113062314452e-017 $191 6.2831853071796004 $118 $192 forward 7 unknown #
face $-1 $193 $194 $18 $-1 $195 reversed single #
loop $-1 $-1 $196 $74 #
plane-surface $-1 -58.733481856746117 0 0 1 0 0 0 0 -1 forward_v I I I I #
coedge $-1 $197 $131 $198 $199 forward $75 $-1 #
coedge $-1 $200 $77 $197 $201 forward $49 $-1 #
coedge $-1 $77 $200 $202 $203 forward $49 $-1 #
coedge $-1 $134 $133 $77 $127 reversed $135 $-1 #
edge $-1 $204 -26.827902960237584 $205 26.827902960237584 $126 $206 forward 7 unknown #
coedge $-1 $79 $78 $207 $208 forward $31 $-1 #
coedge $-1 $209 $210 $78 $130 reversed $194 $-1 #
edge $-1 $137 -58.733481856746117 $211 58.733481856746117 $129 $212 forward 7 unknown #
coedge $-1 $123 $213 $79 $132 reversed $75 $-1 #
edge $-1 $214 -58.733481856746117 $136 58.733481856746117 $131 $215 forward 7 unknown #
coedge $-1 $126 $80 $213 $216 forward $135 $-1 #
coedge $-1 $80 $126 $209 $217 reversed $135 $-1 #
loop $-1 $-1 $133 $193 #
vertex $-1 $81 $218 #
vertex $-1 $81 $219 #
straight-curve $-1 58.733481856746117 0 8.0018660237827692 0 1 0 I I #
face $-1 $220 $221 $19 $-1 $222 reversed single #
loop $-1 $-1 $223 $82 #
plane-surface $-1 0 -29.528395377938228 2.1270518829531309 0 0 1 1 0 0 forward_v I I I I #
coedge $-1 $88 $224 $225 $226 forward $83 $-1 #
coedge $-1 $227 $85 $228 $229 reversed $53 $-1 #
coedge $-1 $85 $227 $149 $230 reversed $53 $-1 #
edge $-1 $150 -5.1270518829531309 $231 -2.1270518829531309 $85 $232 forward 7 unknown #
coedge $-1 $87 $86 $233 $234 forward $34 $-1 #
coedge $-1 $225 $235 $86 $148 forward $236 $-1 #
edge $-1 $237 2.1270518829531309 $151 5.1270518829531309 $147 $238 forward 7 unknown #
coedge $-1 $224 $88 $144 $230 forward $83 $-1 #
vertex $-1 $145 $239 #
vertex $-1 $226 $240 #
straight-curve $-1 0 -26.827902960237584 5.1270518829531309 1 0 0 I I #
face $-1 $-1 $241 $20 $-1 $242 reversed single #
loop $-1 $-1 $96 $90 #
plane-surface $-1 0 0 8.0018660237827692 0 0 1 1 0 0 forward_v I I I I #
coedge $-1 $243 $244 $245 $246 reversed $91 $-1 #
coedge $-1 $247 $93 $95 $163 forward $57 $-1 #
coedge $-1 $93 $247 $243 $248 forward $57 $-1 #
coedge $-1 $245 $96 $93 $160 forward $154 $-1 #
edge $-1 $166 -20.242455894450693 $249 6.7474852981502327 $159 $250 forward 7 unknown #
coedge $-1 $251 $252 $94 $162 forward $241 $-1 #
edge $-1 $253 -62.392883228889517 $165 -58.162528293994995 $161 $254 forward 7 unknown #
edge $-1 $166 45.19509616403824 $253 53.655805920475167 $95 $255 forward 7 unknown #
coedge $-1 $96 $245 $251 $256 forward $154 $-1 #
vertex $-1 $162 $257 #
vertex $-1 $97 $258 #
straight-curve $-1 -26.989941192600924 19.54704741185985 8.0018660237827675 0 -1 0 I I #
coedge $-1 $168 $168 $-1 $259 reversed $100 $-1 #
edge $-1 $260 0 $260 6.2831853071796004 $101 $261 forward 7 unknown #
vertex $-1 $104 $262 #
ellipse-curve $-1 -13.494970596300462 23.164308185037935 5.8866885563355105 0 0.50000000669873634 0.8660253999169214 2 0 0 1 I I #
face $-1 $-1 $263 $22 $-1 $264 reversed single #
loop $-1 $-1 $184 $105 #
plane-surface $-1 1.7763568394002505e-015 39.094094823719701 132.32878863555553 -1 0 0 0 0.50000000669873634 0.8660253999169214 forward_v I I I I #
coedge $-1 $178 $265 $110 $183 forward $106 $-1 #
coedge $-1 $177 $108 $180 $266 reversed $66 $-1 #
coedge $-1 $108 $176 $267 $268 reversed $66 $-1 #
coedge $-1 $269 $175 $108 $179 forward $106 $-1 #
edge $-1 $270 -0.046334002021552578 $271 7.2808555483777333 $178 $272 forward 7 unknown #
coedge $-1 $110 $109 $176 $266 forward $43 $-1 #
coedge $-1 $273 $267 $109 $182 forward $263 $-1 #
edge $-1 $274 -33.737426490751162 $186 -6.7474852981502327 $181 $275 forward 7 unknown #
edge $-1 $187 6.7474852981502327 $270 33.737426490751162 $175 $276 forward 7 unknown #
coedge $-1 $185 $111 $265 $277 reversed $173 $-1 #
coedge $-1 $111 $184 $273 $278 reversed $173 $-1 #
vertex $-1 $182 $279 #
vertex $-1 $183 $280 #
straight-curve $-1 1.7763568394002505e-015 -19.639387819906638 30.599414408551922 0 -0.8660253999169214 0.50000000669873634 I I #
coedge $-1 $189 $189 $-1 $281 reversed $115 $-1 #
edge $-1 $282 0 $282 6.2831853071796004 $116 $283 forward 7 unknown #
vertex $-1 $119 $284 #
ellipse-curve $-1 13.494970596300469 23.164308185037935 5.8866885563355105 0 0.50000000669873634 0.8660253999169214 2 0 0 1 I I #
face $-1 $-1 $135 $18 $-1 $285 reversed single #
loop $-1 $-1 $209 $120 #
plane-surface $-1 0 26.827902960237584 0 0 -1 0 0 0 -1 forward_v I I I I #
coedge $-1 $286 $207 $210 $287 forward $121 $-1 #
coedge $-1 $213 $123 $124 $201 reversed $75 $-1 #
coedge $-1 $207 $286 $123 $199 reversed $121 $-1 #
edge $-1 $214 -8.0018660237827692 $288 8.0018660237827692 $198 $289 forward 7 unknown #
coedge $-1 $125 $124 $286 $290 forward $49 $-1 #
edge $-1 $205 -58.733481856746117 $288 58.733481856746117 $197 $291 forward 7 unknown #
coedge $-1 $210 $209 $125 $203 reversed $194 $-1 #
edge $-1 $292 -58.733481856746117 $204 58.733481856746117 $202 $293 forward 7 unknown #
vertex $-1 $127 $294 #
vertex $-1 $216 $295 #
straight-curve $-1 58.733481856746117 0 -8.0018660237827692 0 -1 0 I I #
coedge $-1 $196 $198 $128 $208 reversed $121 $-1 #
edge $-1 $211 -26.827902960237584 $214 26.827902960237584 $207 $296 forward 7 unknown #
coedge $-1 $202 $129 $134 $217 forward $194 $-1 #
coedge $-1 $129 $202 $196 $287 reversed $194 $-1 #
vertex $-1 $130 $297 #
straight-curve $-1 0 26.827902960237584 8.0018660237827692 -1 0 0 I I #
coedge $-1 $131 $197 $133 $216 reversed $75 $-1 #
vertex $-1 $208 $298 #
straight-curve $-1 0 -26.827902960237584 8.0018660237827692 1 0 0 I I #
edge $-1 $136 -8.0018660237827692 $205 8.0018660237827692 $133 $299 forward 7 unknown #
edge $-1 $137 -8.0018660237827692 $204 8.0018660237827692 $134 $300 forward 7 unknown #
point $-1 58.733481856746117 -26.827902960237584 8.0018660237827692 #
point $-1 58.733481856746117 26.827902960237584 8.0018660237827692 #
face $-1 $-1 $236 $19 $-1 $301 reversed single #
loop $-1 $-1 $302 $139 #
plane-surface $-1 0 -32.228887795638869 3.6270518829531309 0 1 0 0 0 1 forward_v I I I I #
coedge $-1 $303 $233 $235 $304 forward $140 $-1 #
coedge $-1 $142 $149 $305 $306 forward $83 $-1 #
coedge $-1 $307 $147 $142 $226 reversed $236 $-1 #
edge $-1 $308 -2.7004924177006409 $151 2.7004924177006444 $225 $309 forward 7 unknown #
coedge $-1 $144 $143 $302 $310 reversed $53 $-1 #
coedge $-1 $233 $303 $143 $229 forward $140 $-1 #
edge $-1 $311 -2.7004924177006409 $231 2.7004924177006444 $143 $312 forward 7 unknown #
edge $-1 $150 -2.7004924177006444 $313 2.7004924177006409 $144 $314 forward 7 unknown #
vertex $-1 $145 $315 #
straight-curve $-1 -58.733481856746117 -26.827902960237584 0 0 0 -1 I I #
coedge $-1 $223 $228 $146 $234 reversed $140 $-1 #
edge $-1 $237 -58.733481856746117 $231 58.733481856746117 $233 $316 forward 7 unknown #
coedge $-1 $147 $307 $223 $304 reversed $236 $-1 #
loop $-1 $-1 $147 $220 #
vertex $-1 $148 $317 #
straight-curve $-1 58.733481856746117 -26.827902960237584 0 0 0 1 I I #
point $-1 -58.733481856746117 -26.827902960237584 5.1270518829531309 #
point $-1 58.733481856746117 -26.827902960237584 5.1270518829531309 #
loop $-1 $-1 $161 $153 #
plane-surface $-1 0 26.827902960237584 0 0 -1 0 0 0 -1 forward_v I I I I #
coedge $-1 $244 $156 $158 $248 reversed $91 $-1 #
coedge $-1 $156 $243 $318 $319 reversed $91 $-1 #
coedge $-1 $164 $159 $156 $246 forward $154 $-1 #
edge $-1 $249 -0.046334002021552578 $320 7.2808555483777333 $245 $321 forward 7 unknown #
coedge $-1 $158 $157 $252 $322 reversed $57 $-1 #
edge $-1 $323 -53.655805920475167 $249 -45.19509616403824 $243 $324 forward 7 unknown #
vertex $-1 $160 $325 #
straight-curve $-1 -6.7474852981502309 19.500713409838305 8.001866023782771 1 0 0 I I #
coedge $-1 $318 $161 $164 $256 reversed $241 $-1 #
coedge $-1 $161 $318 $247 $322 forward $241 $-1 #
vertex $-1 $162 $326 #
straight-curve $-1 -26.989941192600924 26.827902960237584 66.164394317777763 0 0 1 I I #
straight-curve $-1 -26.989941192600924 -19.639387819906638 30.599414408551922 0 0.8660253999169214 -0.50000000669873634 I I #
edge $-1 $320 -1.7763568394002505e-015 $165 26.989941192600924 $251 $327 forward 7 unknown #
point $-1 -26.989941192600924 26.827902960237584 8.0018660237827692 #
point $-1 -26.989941192600924 19.500713409838298 8.0018660237827675 #
edge $-1 $328 1 $328 0 $168 $-1 forward 7 unknown #
vertex $-1 $169 $329 #
ellipse-curve $-1 -13.494970596300462 20.83418943681837 1.8508045688446213 0 0.50000000669873634 0.8660253999169214 2 0 0 1 I I #
point $-1 -11.494970596300462 23.164308185037932 5.8866885563355043 #
loop $-1 $-1 $181 $172 #
plane-surface $-1 0 26.827902960237584 0 0 -1 0 0 0 -1 forward_v I I I I #
coedge $-1 $175 $269 $184 $277 forward $106 $-1 #
edge $-1 $274 -53.655805920475167 $270 -45.19509616403824 $176 $330 forward 7 unknown #
coedge $-1 $181 $331 $177 $268 forward $263 $-1 #
edge $-1 $271 58.162528293994995 $274 62.392883228889517 $267 $332 forward 7 unknown #
coedge $-1 $265 $178 $331 $333 forward $106 $-1 #
vertex $-1 $179 $334 #
vertex $-1 $333 $335 #
straight-curve $-1 26.989941192600931 19.54704741185985 8.0018660237827675 0 1 0 I I #
coedge $-1 $331 $181 $185 $278 forward $263 $-1 #
vertex $-1 $268 $336 #
straight-curve $-1 -6.7474852981502309 26.827902960237584 3.771511088888241 -1 0 0 I I #
straight-curve $-1 -6.7474852981502309 19.500713409838305 8.001866023782771 1 0 0 I I #
edge $-1 $337 -7.2808555483777333 $187 0.046334002021552578 $265 $338 forward 7 unknown #
edge $-1 $186 -62.392883228889517 $337 -58.162528293994995 $273 $339 forward 7 unknown #
point $-1 1.7763568394002505e-015 26.827902960237587 3.7715110888882428 #
point $-1 1.7763568394002505e-015 19.500713409838298 8.0018660237827675 #
edge $-1 $340 1 $340 0 $189 $-1 forward 7 unknown #
vertex $-1 $190 $341 #
ellipse-curve $-1 13.494970596300469 20.83418943681837 1.8508045688446213 0 0.50000000669873634 0.8660253999169214 2 0 0 1 I I #
point $-1 15.494970596300469 23.164308185037932 5.8866885563355043 #
plane-surface $-1 58.733481856746117 0 0 -1 0 0 0 0 1 forward_v I I I I #
coedge $-1 $198 $196 $200 $290 reversed $121 $-1 #
edge $-1 $211 -8.0018660237827692 $292 8.0018660237827692 $210 $342 forward 7 unknown #
vertex $-1 $290 $343 #
straight-curve $-1 -58.733481856746117 -26.827902960237584 0 0 0 -1 I I #
edge $-1 $288 -26.827902960237584 $292 26.827902960237584 $286 $344 forward 7 unknown #
straight-curve $-1 0 -26.827902960237584 -8.0018660237827692 -1 0 0 I I #
vertex $-1 $203 $345 #
straight-curve $-1 0 26.827902960237584 -8.0018660237827692 1 0 0 I I #
point $-1 58.733481856746117 26.827902960237584 -8.0018660237827692 #
point $-1 58.733481856746117 -26.827902960237584 -8.0018660237827692 #
straight-curve $-1 -58.733481856746117 0 8.0018660237827692 0 -1 0 I I #
point $-1 -58.733481856746117 26.827902960237584 8.0018660237827692 #
point $-1 -58.733481856746117 -26.827902960237584 8.0018660237827692 #
straight-curve $-1 58.733481856746117 -26.827902960237584 0 0 0 -1 I I #
straight-curve $-1 58.733481856746117 26.827902960237584 0 0 0 -1 I I #
plane-surface $-1 58.733481856746117 0 0 -1 0 0 0 0 1 forward_v I I I I #
coedge $-1 $346 $305 $227 $310 forward $221 $-1 #
coedge $-1 $228 $223 $346 $347 forward $140 $-1 #
edge $-1 $237 -2.7004924177006444 $348 2.7004924177006409 $235 $349 forward 7 unknown #
coedge $-1 $302 $350 $224 $306 reversed $221 $-1 #
edge $-1 $313 -58.733481856746117 $308 58.733481856746117 $305 $351 forward 7 unknown #
coedge $-1 $235 $225 $350 $352 forward $236 $-1 #
vertex $-1 $226 $353 #
straight-curve $-1 58.733481856746117 -29.528395377938228 5.1270518829531309 0 1 0 I I #
edge $-1 $313 -1.5 $311 1.5 $227 $354 forward 7 unknown #
vertex $-1 $229 $355 #
straight-curve $-1 -58.733481856746117 -29.528395377938228 2.1270518829531309 0 1 0 I I #
vertex $-1 $230 $356 #
straight-curve $-1 -58.733481856746117 -29.528395377938228 5.1270518829531309 0 -1 0 I I #
point $-1 -58.733481856746117 -26.827902960237584 2.1270518829531309 #
straight-curve $-1 0 -26.827902960237584 2.1270518829531309 -1 0 0 I I #
point $-1 58.733481856746117 -26.827902960237584 2.1270518829531309 #
coedge $-1 $252 $251 $244 $319 forward $241 $-1 #
edge $-1 $320 58.162528293994995 $323 62.392883228889517 $318 $357 forward 7 unknown #
vertex $-1 $256 $358 #
straight-curve $-1 1.7763568394002505e-015 19.54704741185985 8.0018660237827675 0 1 0 I I #
edge $-1 $323 -6.7474852981502327 $253 20.242455894450693 $252 $359 forward 7 unknown #
vertex $-1 $322 $360 #
straight-curve $-1 1.7763568394002505e-015 -19.639387819906638 30.599414408551922 0 -0.8660253999169214 0.50000000669873634 I I #
point $-1 1.7763568394002505e-015 19.500713409838298 8.0018660237827675 #
point $-1 -26.989941192600924 26.827902960237587 3.7715110888882428 #
straight-curve $-1 0 26.827902960237584 8.0018660237827692 -1 0 0 I I #
vertex $-1 $259 $361 #
point $-1 -11.494970596300462 20.83418943681837 1.8508045688446213 #
straight-curve $-1 26.989941192600931 -19.639387819906638 30.599414408551922 0 -0.8660253999169214 0.50000000669873634 I I #
coedge $-1 $267 $273 $269 $333 reversed $263 $-1 #
straight-curve $-1 26.989941192600931 26.827902960237584 66.164394317777763 0 0 -1 I I #
edge $-1 $271 -26.989941192600931 $337 -1.7763568394002505e-015 $331 $362 forward 7 unknown #
point $-1 26.989941192600931 19.500713409838298 8.0018660237827675 #
point $-1 26.989941192600931 26.827902960237584 8.0018660237827692 #
point $-1 26.989941192600931 26.827902960237587 3.7715110888882428 #
vertex $-1 $278 $363 #
straight-curve $-1 1.7763568394002505e-015 19.54704741185985 8.0018660237827675 0 -1 0 I I #
straight-curve $-1 1.7763568394002505e-015 26.827902960237584 66.164394317777763 0 0 1 I I #
vertex $-1 $281 $364 #
point $-1 15.494970596300469 20.83418943681837 1.8508045688446213 #
straight-curve $-1 -58.733481856746117 26.827902960237584 0 0 0 -1 I I #
point $-1 -58.733481856746117 -26.827902960237584 -8.0018660237827692 #
straight-curve $-1 -58.733481856746117 0 -8.0018660237827692 0 1 0 I I #
point $-1 -58.733481856746117 26.827902960237584 -8.0018660237827692 #
coedge $-1 $350 $302 $303 $347 reversed $221 $-1 #
edge $-1 $348 -58.733481856746117 $311 58.733481856746117 $346 $365 forward 7 unknown #
vertex $-1 $352 $366 #
straight-curve $-1 58.733481856746117 -29.528395377938228 2.1270518829531309 0 -1 0 I I #
coedge $-1 $305 $346 $307 $352 reversed $221 $-1 #
straight-curve $-1 0 -32.228887795638869 5.1270518829531309 1 0 0 I I #
edge $-1 $308 -1.5 $348 1.5 $307 $367 forward 7 unknown #
point $-1 58.733481856746117 -32.228887795638869 5.1270518829531309 #
straight-curve $-1 -58.733481856746117 -32.228887795638869 3.6270518829531309 0 0 -1 I I #
point $-1 -58.733481856746117 -32.228887795638869 2.1270518829531309 #
point $-1 -58.733481856746117 -32.228887795638869 5.1270518829531309 #
straight-curve $-1 1.7763568394002505e-015 26.827902960237584 66.164394317777763 0 0 -1 I I #
point $-1 1.7763568394002505e-015 26.827902960237584 8.0018660237827692 #
straight-curve $-1 -6.7474852981502309 26.827902960237584 3.771511088888241 -1 0 0 I I #
point $-1 1.7763568394002505e-015 26.827902960237587 3.7715110888882428 #
point $-1 -13.494970596300462 19.834189423420895 0.1187537690107785 #
straight-curve $-1 0 26.827902960237584 8.0018660237827692 -1 0 0 I I #
point $-1 1.7763568394002505e-015 26.827902960237584 8.0018660237827692 #
point $-1 13.494970596300469 19.834189423420895 0.1187537690107785 #
straight-curve $-1 0 -32.228887795638869 2.1270518829531309 -1 0 0 I I #
point $-1 58.733481856746117 -32.228887795638869 2.1270518829531309 #
straight-curve $-1 58.733481856746117 -32.228887795638869 3.6270518829531309 0 0 -1 I I #
End-of-ACIS-data 