500 0 9 0           
7 Unknown 11 ACIS 5.0 NT 24 Thu Mar 25 21:37:12 1999 
-1 9.9999999999999995e-007 1e-010 
body $-1 $9 $-1 $10 #
body $-1 $11 $-1 $12 #
body $-1 $13 $-1 $14 #
body $-1 $15 $-1 $16 #
body $-1 $17 $-1 $18 #
body $-1 $19 $-1 $20 #
body $-1 $21 $-1 $22 #
body $-1 $23 $-1 $24 #
body $-1 $25 $-1 $26 #
lump $-1 $-1 $27 $0 #
transform $-1 1 0 0 0 1 0 0 0 1 72.210455641346471 34.885889916490463 7.7389460498055218 1 rotate no_reflect no_shear #
lump $-1 $-1 $28 $1 #
transform $-1 1 0 0 0 1 0 0 0 1 72.210455641346471 34.885889916490463 7.7389460498055218 1 rotate no_reflect no_shear #
lump $-1 $-1 $29 $2 #
transform $-1 1 0 0 0 1 0 0 0 1 72.210455641346471 34.885889916490463 7.7389460498055218 1 rotate no_reflect no_shear #
lump $-1 $-1 $30 $3 #
transform $-1 1 0 0 0 1 0 0 0 1 72.210455641346471 34.885889916490463 7.7389460498055218 1 rotate no_reflect no_shear #
lump $-1 $-1 $31 $4 #
transform $-1 1 0 0 0 1 0 0 0 1 72.210455641346471 34.885889916490463 7.7389460498055218 1 rotate no_reflect no_shear #
lump $-1 $-1 $32 $5 #
transform $-1 1 0 0 0 1 0 0 0 1 72.210455641346471 34.885889916490463 7.7389460498055218 1 rotate no_reflect no_shear #
lump $-1 $-1 $33 $6 #
transform $-1 1 0 0 0 1 0 0 0 1 72.210455641346471 34.885889916490463 7.7389460498055218 1 rotate no_reflect no_shear #
lump $-1 $-1 $34 $7 #
transform $-1 1 0 0 0 1 0 0 0 1 72.210455641346471 34.885889916490463 7.7389460498055218 1 rotate no_reflect no_shear #
lump $-1 $-1 $35 $8 #
transform $-1 1 0 0 0 1 0 0 0 1 72.210455641346471 34.885889916490463 7.7389460498055218 1 rotate no_reflect no_shear #
shell $-1 $-1 $-1 $36 $-1 $9 #
shell $-1 $-1 $-1 $37 $-1 $11 #
shell $-1 $-1 $-1 $38 $-1 $13 #
shell $-1 $-1 $-1 $39 $-1 $15 #
shell $-1 $-1 $-1 $40 $-1 $17 #
shell $-1 $-1 $-1 $41 $-1 $19 #
shell $-1 $-1 $-1 $42 $-1 $21 #
shell $-1 $-1 $-1 $43 $-1 $23 #
shell $-1 $-1 $-1 $44 $-1 $25 #
face $-1 $45 $46 $27 $-1 $47 forward single #
face $-1 $48 $49 $28 $-1 $50 reversed single #
face $-1 $51 $52 $29 $-1 $53 reversed single #
face $-1 $54 $55 $30 $-1 $56 reversed single #
face $-1 $57 $58 $31 $-1 $59 forward single #
face $-1 $60 $61 $32 $-1 $62 reversed single #
face $-1 $63 $64 $33 $-1 $65 forward single #
face $-1 $66 $67 $34 $-1 $68 forward single #
face $-1 $69 $70 $35 $-1 $71 forward single #
face $-1 $72 $73 $27 $-1 $74 reversed single #
loop $-1 $-1 $75 $36 #
plane-surface $-1 0 0 7.7389460498055218 0 0 1 1 0 0 forward_v I I I I #
face $-1 $76 $77 $28 $-1 $78 reversed single #
loop $-1 $-1 $79 $37 #
plane-surface $-1 -71.710455641346471 -31.807425178955071 0 1 0 0 0 0 -1 forward_v I I I I #
face $-1 $80 $81 $29 $-1 $82 reversed single #
loop $-1 $-1 $83 $38 #
plane-surface $-1 -69.504783981916901 28.728960441419687 0 0 1 0 0 0 1 forward_v I I I I #
face $-1 $84 $85 $30 $-1 $86 reversed single #
loop $-1 $-1 $87 $39 #
plane-surface $-1 -172.53365171176205 -18.652362788538149 108.14476199948813 0 1 0 -0.69465837861970381 0 0.71933979245794832 forward_v I I I I #
face $-1 $88 $89 $31 $-1 $90 forward single #
loop $-1 $91 $92 $40 #
cone-surface $-1 -69.05865864344365 -14.840433460035793 4.6010752104653259 0.69465837861970381 0 -0.71933979245794832 0.71933979245794832 0 0.69465837861970381 1 I I 0 1 1 forward I I I I #
face $-1 $93 $94 $32 $-1 $95 reversed single #
loop $-1 $-1 $96 $41 #
plane-surface $-1 57.963255287669369 28.728960441419684 205.45902443369664 0 -1 0 -0.6560590369687036 0 -0.75470957328743171 forward_v I I I I #
face $-1 $97 $98 $33 $-1 $99 forward single #
loop $-1 $100 $101 $42 #
cone-surface $-1 68.307064979867903 15.209576791448541 4.222597537147216 -0.6560590369687036 0 -0.75470957328743171 0.37735478664371586 0 -0.3280295184843518 1 I I 0 1 0.5 forward I I I I #
face $-1 $102 $103 $34 $-1 $104 forward single #
loop $-1 $105 $106 $43 #
cone-surface $-1 68.307064979867903 20.279345660187715 4.222597537147216 -0.6560590369687036 0 -0.75470957328743171 0.37735478664371586 0 -0.3280295184843518 1 I I 0 1 0.5 forward I I I I #
face $-1 $107 $108 $35 $-1 $109 forward single #
loop $-1 $110 $111 $44 #
cone-surface $-1 68.307064979867903 25.34911452892689 4.222597537147216 -0.6560590369687036 0 -0.75470957328743171 0.37735478664371586 0 -0.3280295184843518 1 I I 0 1 0.5 forward I I I I #
face $-1 $112 $113 $27 $-1 $114 reversed single #
loop $-1 $-1 $115 $45 #
plane-surface $-1 0 0 -7.7389460498055218 0 0 1 1 0 0 forward_v I I I I #
coedge $-1 $116 $117 $118 $119 forward $46 $-1 #
face $-1 $120 $121 $28 $-1 $122 reversed single #
loop $-1 $-1 $123 $48 #
plane-surface $-1 -69.504783981916901 -28.72896044141968 0 0 -1 0 0 0 -1 forward_v I I I I #
coedge $-1 $124 $125 $126 $127 forward $49 $-1 #
face $-1 $128 $129 $29 $-1 $130 reversed single #
loop $-1 $-1 $131 $51 #
plane-surface $-1 -71.710455641346471 31.807425178955079 0 1 0 0 0 0 -1 forward_v I I I I #
coedge $-1 $132 $133 $134 $135 forward $52 $-1 #
face $-1 $136 $137 $30 $-1 $138 reversed single #
loop $-1 $-1 $139 $54 #
plane-surface $-1 -72.210455641346485 -14.840433460035793 4.2570536508080181 -0.69465837861970381 0 0.71933979245794832 0.71933979245794832 0 0.69465837861970381 forward_v I I I I #
coedge $-1 $140 $141 $142 $143 reversed $55 $-1 #
face $-1 $-1 $144 $31 $-1 $145 forward single #
loop $-1 $146 $147 $57 #
cone-surface $-1 -67.362334979560941 -14.840433460035793 2.8444806743949211 0.69465837861970381 0 -0.71933979245794832 0.35966989622897416 0 0.3473291893098519 1 I I -0.70710678118654746 0.70710678118654746 0.5 forward I I I I #
loop $-1 $-1 $148 $40 #
coedge $-1 $92 $92 $149 $150 reversed $58 $-1 #
face $-1 $151 $152 $32 $-1 $153 reversed single #
loop $-1 $-1 $154 $60 #
plane-surface $-1 -36.785388686596747 20.279345660187722 96.463180105753423 0.6560590369687036 0 0.75470957328743171 0.75470957328743171 0 -0.6560590369687036 forward_v I I I I #
coedge $-1 $155 $156 $157 $158 reversed $61 $-1 #
face $-1 $-1 $159 $33 $-1 $160 forward single #
loop $-1 $161 $162 $63 #
cone-surface $-1 67.704804906256697 15.209576791448541 3.5297765903261489 -0.6560590369687036 0 -0.75470957328743171 0.18867739332185793 0 -0.1640147592421759 1 I I -0.70710678118654691 0.70710678118654813 0.25 forward I I I I #
loop $-1 $-1 $163 $42 #
coedge $-1 $101 $101 $164 $165 reversed $64 $-1 #
face $-1 $-1 $166 $34 $-1 $167 forward single #
loop $-1 $168 $169 $66 #
cone-surface $-1 67.704804906256697 20.279345660187715 3.5297765903261489 -0.6560590369687036 0 -0.75470957328743171 0.18867739332185793 0 -0.1640147592421759 1 I I -0.70710678118654691 0.70710678118654813 0.25 forward I I I I #
loop $-1 $-1 $170 $43 #
coedge $-1 $106 $106 $171 $172 reversed $67 $-1 #
face $-1 $-1 $173 $35 $-1 $174 forward single #
loop $-1 $175 $176 $69 #
cone-surface $-1 67.704804906256697 25.34911452892689 3.5297765903261489 -0.6560590369687036 0 -0.75470957328743171 0.18867739332185793 0 -0.1640147592421759 1 I I -0.70710678118654691 0.70710678118654813 0.25 forward I I I I #
loop $-1 $-1 $177 $44 #
coedge $-1 $111 $111 $178 $179 reversed $70 $-1 #
face $-1 $180 $181 $27 $-1 $182 reversed single #
loop $-1 $-1 $183 $72 #
plane-surface $-1 0 -34.885889916490463 0 0 1 0 0 0 1 forward_v I I I I #
coedge $-1 $184 $185 $186 $187 forward $73 $-1 #
coedge $-1 $188 $75 $189 $190 forward $46 $-1 #
coedge $-1 $75 $188 $191 $192 forward $46 $-1 #
coedge $-1 $193 $194 $75 $119 reversed $195 $-1 #
edge $-1 $196 -34.885889916490463 $197 34.885889916490463 $118 $198 forward 7 unknown #
face $-1 $199 $200 $28 $-1 $201 forward single #
loop $-1 $-1 $202 $76 #
plane-surface $-1 -67.299112322487332 -31.807425178955071 0 -1 0 0 0 0 1 forward_v I I I I #
coedge $-1 $203 $204 $205 $206 forward $77 $-1 #
coedge $-1 $207 $79 $208 $209 reversed $49 $-1 #
coedge $-1 $79 $207 $210 $211 reversed $49 $-1 #
coedge $-1 $204 $203 $79 $127 reversed $77 $-1 #
edge $-1 $212 -7.7389460498055218 $213 7.7389460498055218 $126 $214 forward 7 unknown #
face $-1 $215 $216 $29 $-1 $217 reversed single #
loop $-1 $-1 $218 $80 #
plane-surface $-1 -67.299112322487332 31.807425178955079 0 -1 0 0 0 0 1 forward_v I I I I #
coedge $-1 $219 $220 $221 $222 reversed $81 $-1 #
coedge $-1 $223 $83 $224 $225 reversed $52 $-1 #
coedge $-1 $83 $223 $226 $227 reversed $52 $-1 #
coedge $-1 $220 $219 $83 $135 reversed $81 $-1 #
edge $-1 $228 -7.7389460498055218 $229 7.7389460498055218 $134 $230 forward 7 unknown #
face $-1 $231 $232 $30 $-1 $233 reversed single #
loop $-1 $-1 $234 $84 #
plane-surface $-1 -172.53365171176205 -11.028504131533438 108.14476199948813 0 -1 0 0.69465837861970381 0 -0.71933979245794832 forward_v I I I I #
coedge $-1 $235 $236 $237 $238 reversed $85 $-1 #
coedge $-1 $141 $87 $239 $240 reversed $55 $-1 #
coedge $-1 $87 $140 $235 $241 reversed $55 $-1 #
coedge $-1 $237 $242 $87 $143 forward $243 $-1 #
edge $-1 $244 14.056370214534553 $245 17.661975261194414 $142 $246 forward 7 unknown #
loop $-1 $-1 $149 $88 #
plane-surface $-1 -72.210455641346485 -14.840433460035793 4.2570536508080181 -0.69465837861970381 0 0.71933979245794832 0.71933979245794832 0 0.69465837861970381 forward_v I I I I #
loop $-1 $-1 $247 $57 #
coedge $-1 $147 $147 $148 $248 reversed $89 $-1 #
coedge $-1 $148 $148 $147 $248 forward $91 $-1 #
coedge $-1 $149 $149 $92 $150 forward $144 $-1 #
edge $-1 $249 0 $249 6.2831853071796004 $149 $250 forward 7 unknown #
face $-1 $251 $252 $32 $-1 $253 forward single #
loop $-1 $-1 $254 $93 #
plane-surface $-1 57.963255287669369 11.829730878955761 205.45902443369664 0 1 0 0.6560590369687036 0 0.75470957328743171 forward_v I I I I #
coedge $-1 $255 $256 $257 $258 reversed $94 $-1 #
coedge $-1 $156 $96 $259 $260 reversed $61 $-1 #
coedge $-1 $96 $155 $255 $261 reversed $61 $-1 #
coedge $-1 $257 $262 $96 $158 forward $252 $-1 #
edge $-1 $263 -43.228827997511786 $264 -36.298537303292761 $157 $265 forward 7 unknown #
loop $-1 $-1 $164 $97 #
plane-surface $-1 -36.785388686596747 20.279345660187722 96.463180105753423 0.6560590369687036 0 0.75470957328743171 0.75470957328743171 0 -0.6560590369687036 forward_v I I I I #
loop $-1 $-1 $266 $63 #
coedge $-1 $162 $162 $163 $267 reversed $98 $-1 #
coedge $-1 $163 $163 $162 $267 forward $100 $-1 #
coedge $-1 $164 $164 $101 $165 forward $159 $-1 #
edge $-1 $268 0 $268 6.2831853071796004 $164 $269 forward 7 unknown #
loop $-1 $-1 $171 $102 #
plane-surface $-1 -36.785388686596747 20.279345660187722 96.463180105753423 0.6560590369687036 0 0.75470957328743171 0.75470957328743171 0 -0.6560590369687036 forward_v I I I I #
loop $-1 $-1 $270 $66 #
coedge $-1 $169 $169 $170 $271 reversed $103 $-1 #
coedge $-1 $170 $170 $169 $271 forward $105 $-1 #
coedge $-1 $171 $171 $106 $172 forward $166 $-1 #
edge $-1 $272 0 $272 6.2831853071796004 $171 $273 forward 7 unknown #
loop $-1 $-1 $178 $107 #
plane-surface $-1 -36.785388686596747 20.279345660187722 96.463180105753423 0.6560590369687036 0 0.75470957328743171 0.75470957328743171 0 -0.6560590369687036 forward_v I I I I #
loop $-1 $-1 $274 $69 #
coedge $-1 $176 $176 $177 $275 reversed $108 $-1 #
coedge $-1 $177 $177 $176 $275 forward $110 $-1 #
coedge $-1 $178 $178 $111 $179 forward $173 $-1 #
edge $-1 $276 0 $276 6.2831853071796004 $178 $277 forward 7 unknown #
face $-1 $278 $279 $27 $-1 $280 reversed single #
loop $-1 $-1 $281 $112 #
plane-surface $-1 -72.210455641346471 0 0 1 0 0 0 0 -1 forward_v I I I I #
coedge $-1 $282 $191 $283 $284 forward $113 $-1 #
coedge $-1 $285 $115 $282 $286 forward $73 $-1 #
coedge $-1 $115 $285 $287 $288 forward $73 $-1 #
coedge $-1 $194 $193 $115 $187 reversed $195 $-1 #
edge $-1 $289 -34.885889916490463 $290 34.885889916490463 $186 $291 forward 7 unknown #
coedge $-1 $117 $116 $292 $293 forward $46 $-1 #
coedge $-1 $294 $295 $116 $190 reversed $279 $-1 #
edge $-1 $197 -72.210455641346471 $296 72.210455641346471 $189 $297 forward 7 unknown #
coedge $-1 $183 $298 $117 $192 reversed $113 $-1 #
edge $-1 $299 -72.210455641346471 $196 72.210455641346471 $191 $300 forward 7 unknown #
coedge $-1 $186 $118 $298 $301 forward $195 $-1 #
coedge $-1 $118 $186 $294 $302 reversed $195 $-1 #
loop $-1 $-1 $193 $278 #
vertex $-1 $119 $303 #
vertex $-1 $119 $304 #
straight-curve $-1 72.210455641346471 0 7.7389460498055218 0 1 0 I I #
face $-1 $305 $306 $28 $-1 $307 reversed single #
loop $-1 $-1 $308 $120 #
plane-surface $-1 0 0 7.7389460498055218 0 0 1 1 0 0 forward_v I I I I #
coedge $-1 $309 $310 $311 $312 reversed $121 $-1 #
coedge $-1 $126 $123 $313 $314 reversed $77 $-1 #
coedge $-1 $123 $126 $315 $316 reversed $77 $-1 #
coedge $-1 $310 $309 $123 $206 reversed $121 $-1 #
edge $-1 $317 -7.7389460498055218 $318 7.7389460498055218 $205 $319 forward 7 unknown #
coedge $-1 $125 $124 $320 $321 reversed $49 $-1 #
coedge $-1 $313 $322 $124 $209 forward $306 $-1 #
edge $-1 $323 -18.982177327012927 $213 -12.825247851942144 $208 $324 forward 7 unknown #
coedge $-1 $325 $315 $125 $211 forward $200 $-1 #
edge $-1 $212 12.825247851942144 $326 18.982177327012927 $210 $327 forward 7 unknown #
vertex $-1 $211 $328 #
vertex $-1 $209 $329 #
straight-curve $-1 -71.710455641346471 -28.72896044141968 0 0 0 -1 I I #
face $-1 $330 $331 $29 $-1 $332 forward single #
loop $-1 $-1 $333 $128 #
plane-surface $-1 0 0 -7.7389460498055218 0 0 1 1 0 0 forward_v I I I I #
coedge $-1 $334 $335 $223 $336 forward $129 $-1 #
coedge $-1 $134 $131 $337 $338 reversed $81 $-1 #
coedge $-1 $131 $134 $339 $340 reversed $81 $-1 #
coedge $-1 $341 $342 $131 $222 forward $343 $-1 #
edge $-1 $344 -7.7389460498055218 $345 7.7389460498055218 $221 $346 forward 7 unknown #
coedge $-1 $133 $132 $218 $336 reversed $52 $-1 #
coedge $-1 $337 $333 $132 $225 forward $216 $-1 #
edge $-1 $347 32.546720331528881 $229 36.95806365038802 $224 $348 forward 7 unknown #
coedge $-1 $349 $339 $133 $227 forward $331 $-1 #
edge $-1 $228 -36.95806365038802 $350 -32.546720331528881 $226 $351 forward 7 unknown #
vertex $-1 $227 $352 #
vertex $-1 $225 $353 #
straight-curve $-1 -71.710455641346471 28.728960441419687 0 0 0 -1 I I #
face $-1 $-1 $243 $30 $-1 $354 forward single #
loop $-1 $-1 $355 $136 #
plane-surface $-1 -72.210455641346471 0 0 1 0 0 0 0 -1 forward_v I I I I #
coedge $-1 $356 $357 $358 $359 reversed $137 $-1 #
coedge $-1 $360 $139 $141 $241 forward $85 $-1 #
coedge $-1 $139 $360 $356 $361 forward $85 $-1 #
coedge $-1 $358 $142 $139 $238 forward $243 $-1 #
edge $-1 $245 -11.232146058520252 $362 -3.6082874015155415 $237 $363 forward 7 unknown #
coedge $-1 $364 $365 $140 $240 forward $232 $-1 #
edge $-1 $366 -49.81532734893603 $244 -46.333434949938543 $239 $367 forward 7 unknown #
edge $-1 $245 -5.0123809143655222 $366 -1.9477141995791963e-014 $141 $368 forward 7 unknown #
coedge $-1 $142 $358 $364 $369 forward $243 $-1 #
loop $-1 $-1 $358 $231 #
vertex $-1 $240 $370 #
vertex $-1 $143 $371 #
straight-curve $-1 -86.266825855881024 -18.652362788538149 7.73894604980552 1 0 0 I I #
coedge $-1 $247 $247 $-1 $372 reversed $146 $-1 #
edge $-1 $373 0 $373 6.2831853071796004 $147 $374 forward 7 unknown #
vertex $-1 $150 $375 #
ellipse-curve $-1 -70.40765311801654 -14.840433460035793 5.9979998503067797 -0.69465837861970381 0 0.71933979245794832 0.71933979245794832 0 0.69465837861970381 1 I I #
face $-1 $-1 $376 $32 $-1 $377 reversed single #
loop $-1 $-1 $157 $151 #
plane-surface $-1 0 0 7.7389460498055218 0 0 1 1 0 0 forward_v I I I I #
coedge $-1 $378 $379 $380 $381 reversed $152 $-1 #
coedge $-1 $382 $154 $156 $261 forward $94 $-1 #
coedge $-1 $154 $382 $378 $383 forward $94 $-1 #
coedge $-1 $380 $157 $154 $258 forward $252 $-1 #
edge $-1 $264 -18.589287611325823 $384 -1.6900580488618999 $257 $385 forward 7 unknown #
coedge $-1 $386 $387 $155 $260 forward $376 $-1 #
edge $-1 $388 -101.01497608536101 $263 -94.9905661670428 $259 $389 forward 7 unknown #
edge $-1 $264 135.23818598078449 $388 144.42091128269294 $156 $390 forward 7 unknown #
coedge $-1 $157 $380 $386 $391 forward $252 $-1 #
vertex $-1 $158 $392 #
vertex $-1 $158 $393 #
straight-curve $-1 28.981627643834685 28.728960441419684 7.73894604980552 -1 0 0 I I #
coedge $-1 $266 $266 $-1 $394 reversed $161 $-1 #
edge $-1 $395 0 $395 6.2831853071796004 $162 $396 forward 7 unknown #
vertex $-1 $165 $397 #
ellipse-curve $-1 68.745310294236944 15.209576791448541 4.7267410906464278 0.6560590369687036 0 0.75470957328743171 0.37735478664371586 0 -0.3280295184843518 1 I I #
coedge $-1 $270 $270 $-1 $398 reversed $168 $-1 #
edge $-1 $399 0 $399 6.2831853071796004 $169 $400 forward 7 unknown #
vertex $-1 $172 $401 #
ellipse-curve $-1 68.745310294236944 20.279345660187715 4.7267410906464278 0.6560590369687036 0 0.75470957328743171 0.37735478664371586 0 -0.3280295184843518 1 I I #
coedge $-1 $274 $274 $-1 $402 reversed $175 $-1 #
edge $-1 $403 0 $403 6.2831853071796004 $176 $404 forward 7 unknown #
vertex $-1 $179 $405 #
ellipse-curve $-1 68.745310294236944 25.34911452892689 4.7267410906464278 0.6560590369687036 0 0.75470957328743171 0.37735478664371586 0 -0.3280295184843518 1 I I #
face $-1 $-1 $195 $27 $-1 $406 reversed single #
loop $-1 $-1 $294 $180 #
plane-surface $-1 0 34.885889916490463 0 0 -1 0 0 0 -1 forward_v I I I I #
coedge $-1 $407 $292 $295 $408 forward $181 $-1 #
coedge $-1 $298 $183 $184 $286 reversed $113 $-1 #
coedge $-1 $292 $407 $183 $284 reversed $181 $-1 #
edge $-1 $299 -7.7389460498055218 $409 7.7389460498055218 $283 $410 forward 7 unknown #
coedge $-1 $185 $184 $407 $411 forward $73 $-1 #
edge $-1 $290 -72.210455641346471 $409 72.210455641346471 $282 $412 forward 7 unknown #
coedge $-1 $295 $294 $185 $288 reversed $279 $-1 #
edge $-1 $413 -72.210455641346471 $289 72.210455641346471 $287 $414 forward 7 unknown #
vertex $-1 $187 $415 #
vertex $-1 $301 $416 #
straight-curve $-1 72.210455641346471 0 -7.7389460498055218 0 -1 0 I I #
coedge $-1 $281 $283 $188 $293 reversed $181 $-1 #
edge $-1 $296 -34.885889916490463 $299 34.885889916490463 $292 $417 forward 7 unknown #
coedge $-1 $287 $189 $194 $302 forward $279 $-1 #
coedge $-1 $189 $287 $281 $408 reversed $279 $-1 #
vertex $-1 $190 $418 #
straight-curve $-1 0 34.885889916490463 7.7389460498055218 -1 0 0 I I #
coedge $-1 $191 $282 $193 $301 reversed $113 $-1 #
vertex $-1 $293 $419 #
straight-curve $-1 0 -34.885889916490463 7.7389460498055218 1 0 0 I I #
edge $-1 $196 -7.7389460498055218 $290 7.7389460498055218 $193 $420 forward 7 unknown #
edge $-1 $197 -7.7389460498055218 $289 7.7389460498055218 $194 $421 forward 7 unknown #
point $-1 72.210455641346471 -34.885889916490463 7.7389460498055218 #
point $-1 72.210455641346471 34.885889916490463 7.7389460498055218 #
face $-1 $-1 $422 $28 $-1 $423 reversed single #
loop $-1 $-1 $424 $199 #
plane-surface $-1 0 0 -7.7389460498055218 0 0 1 1 0 0 forward_v I I I I #
coedge $-1 $315 $325 $310 $425 forward $200 $-1 #
coedge $-1 $205 $202 $424 $426 reversed $121 $-1 #
coedge $-1 $202 $205 $308 $425 reversed $121 $-1 #
coedge $-1 $427 $428 $202 $312 forward $422 $-1 #
edge $-1 $429 -7.7389460498055218 $430 7.7389460498055218 $311 $431 forward 7 unknown #
coedge $-1 $424 $208 $203 $314 forward $306 $-1 #
edge $-1 $213 -36.95806365038802 $318 -32.546720331528881 $313 $432 forward 7 unknown #
coedge $-1 $210 $308 $204 $316 forward $200 $-1 #
edge $-1 $317 32.546720331528881 $212 36.95806365038802 $315 $433 forward 7 unknown #
vertex $-1 $316 $434 #
vertex $-1 $314 $435 #
straight-curve $-1 -67.299112322487332 -28.72896044141968 0 0 0 -1 I I #
coedge $-1 $428 $427 $207 $321 forward $422 $-1 #
edge $-1 $326 -7.7389460498055218 $323 7.7389460498055218 $320 $436 forward 7 unknown #
coedge $-1 $208 $424 $428 $437 forward $306 $-1 #
vertex $-1 $209 $438 #
straight-curve $-1 -71.710455641346471 -15.903712589477536 -7.7389460498055218 0 1 0 I I #
coedge $-1 $308 $210 $427 $439 forward $200 $-1 #
vertex $-1 $439 $440 #
straight-curve $-1 -71.710455641346471 -15.903712589477536 7.7389460498055218 0 -1 0 I I #
point $-1 -71.710455641346471 -28.72896044141968 7.7389460498055218 #
point $-1 -71.710455641346471 -28.72896044141968 -7.7389460498055218 #
face $-1 $-1 $343 $29 $-1 $441 reversed single #
loop $-1 $-1 $349 $215 #
plane-surface $-1 0 0 7.7389460498055218 0 0 1 1 0 0 forward_v I I I I #
coedge $-1 $224 $442 $334 $443 forward $216 $-1 #
coedge $-1 $444 $218 $333 $443 reversed $129 $-1 #
coedge $-1 $218 $444 $349 $445 reversed $129 $-1 #
edge $-1 $350 -7.7389460498055218 $347 7.7389460498055218 $218 $446 forward 7 unknown #
coedge $-1 $442 $224 $219 $338 forward $216 $-1 #
edge $-1 $229 12.825247851942148 $344 18.982177327012931 $337 $447 forward 7 unknown #
coedge $-1 $226 $448 $220 $340 forward $331 $-1 #
edge $-1 $345 -18.982177327012931 $228 -12.825247851942148 $339 $449 forward 7 unknown #
coedge $-1 $450 $221 $448 $451 reversed $343 $-1 #
coedge $-1 $221 $450 $442 $452 reversed $343 $-1 #
loop $-1 $-1 $450 $330 #
vertex $-1 $452 $453 #
vertex $-1 $222 $454 #
straight-curve $-1 -71.710455641346471 34.885889916490463 0 0 0 1 I I #
vertex $-1 $225 $455 #
straight-curve $-1 -34.752391990958451 28.728960441419687 -7.7389460498055218 -1 0 0 I I #
coedge $-1 $448 $226 $335 $445 forward $331 $-1 #
vertex $-1 $227 $456 #
straight-curve $-1 -34.752391990958451 28.728960441419687 7.7389460498055218 1 0 0 I I #
point $-1 -71.710455641346471 28.728960441419687 7.7389460498055218 #
point $-1 -71.710455641346471 28.728960441419687 -7.7389460498055218 #
plane-surface $-1 0 0 7.7389460498055218 0 0 1 1 0 0 forward_v I I I I #
coedge $-1 $365 $364 $357 $457 forward $232 $-1 #
coedge $-1 $357 $234 $236 $361 reversed $137 $-1 #
coedge $-1 $234 $356 $355 $457 reversed $137 $-1 #
coedge $-1 $242 $237 $234 $359 forward $243 $-1 #
edge $-1 $362 -17.661975261194414 $458 -14.056370214534553 $358 $459 forward 7 unknown #
coedge $-1 $236 $235 $365 $460 reversed $85 $-1 #
edge $-1 $461 1.9477141995791963e-014 $362 5.0123809143655222 $356 $462 forward 7 unknown #
vertex $-1 $238 $463 #
straight-curve $-1 -68.604850594686596 -7.4202167300178967 7.7389460498055218 0 1 0 I I #
coedge $-1 $355 $239 $242 $369 reversed $232 $-1 #
coedge $-1 $239 $355 $360 $460 forward $232 $-1 #
vertex $-1 $240 $464 #
straight-curve $-1 -72.210455641346471 -18.652362788538149 54.072380999744063 0 0 1 I I #
straight-curve $-1 -72.210455641346485 -18.652362788538149 4.2570536508080181 -0.71933979245794832 0 -0.69465837861970381 I I #
edge $-1 $458 11.028504131533438 $244 18.652362788538149 $364 $465 forward 7 unknown #
point $-1 -72.210455641346471 -18.652362788538149 7.7389460498055218 #
point $-1 -68.60485059468661 -18.652362788538149 7.7389460498055218 #
edge $-1 $466 1 $466 0 $247 $-1 forward 7 unknown #
vertex $-1 $248 $467 #
ellipse-curve $-1 -67.709664168870788 -14.840433460035793 3.2041505706238951 -0.69465837861970381 0 0.71933979245794832 0.71933979245794832 0 0.69465837861970381 1 I I #
point $-1 -69.688313325558568 -14.840433460035793 6.6926582289264607 #
loop $-1 $-1 $259 $251 #
plane-surface $-1 72.210455641346471 0 0 -1 0 0 0 0 1 forward_v I I I I #
coedge $-1 $379 $254 $256 $383 reversed $152 $-1 #
coedge $-1 $254 $378 $468 $469 reversed $152 $-1 #
coedge $-1 $262 $257 $254 $381 forward $252 $-1 #
edge $-1 $384 36.298537303292761 $470 43.228827997511786 $380 $471 forward 7 unknown #
coedge $-1 $256 $255 $387 $472 reversed $94 $-1 #
edge $-1 $473 -144.42091128269294 $384 -135.23818598078449 $378 $474 forward 7 unknown #
vertex $-1 $258 $475 #
straight-curve $-1 65.280164947127432 10.139672830093861 7.7389460498055342 0 -1 0 I I #
coedge $-1 $468 $259 $262 $391 reversed $376 $-1 #
coedge $-1 $259 $468 $382 $472 forward $376 $-1 #
vertex $-1 $260 $476 #
straight-curve $-1 72.210455641346471 28.728960441419684 102.72951221684832 0 0 1 I I #
straight-curve $-1 -36.785388686596747 28.728960441419684 96.463180105753423 0.75470957328743171 0 -0.6560590369687036 I I #
edge $-1 $470 11.829730878955761 $263 28.728960441419684 $386 $477 forward 7 unknown #
point $-1 72.210455641346471 28.728960441419684 7.7389460498055218 #
point $-1 65.280164947127446 28.728960441419684 7.73894604980552 #
edge $-1 $478 1 $478 0 $266 $-1 forward 7 unknown #
vertex $-1 $267 $479 #
ellipse-curve $-1 67.868819665498876 15.209576791448541 3.7184539836480073 0.6560590369687036 0 0.75470957328743171 0.37735478664371586 0 -0.3280295184843518 1 I I #
point $-1 69.122665080880665 15.209576791448541 4.3987115721620746 #
edge $-1 $480 1 $480 0 $270 $-1 forward 7 unknown #
vertex $-1 $271 $481 #
ellipse-curve $-1 67.868819665498876 20.279345660187715 3.7184539836480073 0.6560590369687036 0 0.75470957328743171 0.37735478664371586 0 -0.3280295184843518 1 I I #
point $-1 69.122665080880665 20.279345660187715 4.3987115721620746 #
edge $-1 $482 1 $482 0 $274 $-1 forward 7 unknown #
vertex $-1 $275 $483 #
ellipse-curve $-1 67.868819665498876 25.34911452892689 3.7184539836480073 0.6560590369687036 0 0.75470957328743171 0.37735478664371586 0 -0.3280295184843518 1 I I #
point $-1 69.122665080880665 25.34911452892689 4.3987115721620746 #
plane-surface $-1 72.210455641346471 0 0 -1 0 0 0 0 1 forward_v I I I I #
coedge $-1 $283 $281 $285 $411 reversed $181 $-1 #
edge $-1 $296 -7.7389460498055218 $413 7.7389460498055218 $295 $484 forward 7 unknown #
vertex $-1 $411 $485 #
straight-curve $-1 -72.210455641346471 -34.885889916490463 0 0 0 -1 I I #
edge $-1 $409 -34.885889916490463 $413 34.885889916490463 $407 $486 forward 7 unknown #
straight-curve $-1 0 -34.885889916490463 -7.7389460498055218 -1 0 0 I I #
vertex $-1 $288 $487 #
straight-curve $-1 0 34.885889916490463 -7.7389460498055218 1 0 0 I I #
point $-1 72.210455641346471 34.885889916490463 -7.7389460498055218 #
point $-1 72.210455641346471 -34.885889916490463 -7.7389460498055218 #
straight-curve $-1 -72.210455641346471 0 7.7389460498055218 0 -1 0 I I #
point $-1 -72.210455641346471 34.885889916490463 7.7389460498055218 #
point $-1 -72.210455641346471 -34.885889916490463 7.7389460498055218 #
straight-curve $-1 72.210455641346471 -34.885889916490463 0 0 0 -1 I I #
straight-curve $-1 72.210455641346471 34.885889916490463 0 0 0 -1 I I #
loop $-1 $-1 $311 $305 #
plane-surface $-1 0 -34.885889916490463 0 0 1 0 0 0 1 forward_v I I I I #
coedge $-1 $322 $313 $309 $426 forward $306 $-1 #
edge $-1 $430 -18.982177327012927 $317 -12.825247851942144 $308 $488 forward 7 unknown #
edge $-1 $318 12.825247851942144 $429 18.982177327012927 $424 $489 forward 7 unknown #
coedge $-1 $320 $311 $325 $439 reversed $422 $-1 #
coedge $-1 $311 $320 $322 $437 reversed $422 $-1 #
vertex $-1 $437 $490 #
vertex $-1 $312 $491 #
straight-curve $-1 -67.299112322487332 -34.885889916490463 0 0 0 1 I I #
straight-curve $-1 -34.752391990958451 -28.72896044141968 -7.7389460498055218 1 0 0 I I #
straight-curve $-1 -34.752391990958451 -28.72896044141968 7.7389460498055218 -1 0 0 I I #
point $-1 -67.299112322487332 -28.72896044141968 7.7389460498055218 #
point $-1 -67.299112322487332 -28.72896044141968 -7.7389460498055218 #
straight-curve $-1 -71.710455641346471 -34.885889916490463 0 0 0 -1 I I #
edge $-1 $429 67.299112322487332 $323 71.710455641346471 $428 $492 forward 7 unknown #
point $-1 -71.710455641346471 -34.885889916490463 -7.7389460498055218 #
edge $-1 $326 -71.710455641346471 $430 -67.299112322487332 $427 $493 forward 7 unknown #
point $-1 -71.710455641346471 -34.885889916490463 7.7389460498055218 #
plane-surface $-1 0 34.885889916490463 0 0 -1 0 0 0 -1 forward_v I I I I #
coedge $-1 $333 $337 $342 $452 forward $216 $-1 #
edge $-1 $494 -18.982177327012931 $347 -12.825247851942148 $333 $495 forward 7 unknown #
coedge $-1 $335 $334 $450 $496 reversed $129 $-1 #
edge $-1 $350 12.825247851942148 $497 18.982177327012931 $349 $498 forward 7 unknown #
straight-curve $-1 -67.299112322487332 28.728960441419687 0 0 0 -1 I I #
straight-curve $-1 -71.710455641346471 15.903712589477539 -7.7389460498055218 0 1 0 I I #
coedge $-1 $339 $349 $341 $451 forward $331 $-1 #
straight-curve $-1 -71.710455641346471 15.903712589477539 7.7389460498055218 0 -1 0 I I #
coedge $-1 $342 $341 $444 $496 forward $343 $-1 #
edge $-1 $497 67.299112322487332 $345 71.710455641346471 $341 $499 forward 7 unknown #
edge $-1 $344 -71.710455641346471 $494 -67.299112322487332 $342 $500 forward 7 unknown #
point $-1 -71.710455641346471 34.88588991649047 -7.7389460498055218 #
point $-1 -71.710455641346471 34.88588991649047 7.7389460498055218 #
point $-1 -67.299112322487332 28.728960441419687 -7.7389460498055218 #
point $-1 -67.299112322487332 28.728960441419687 7.7389460498055218 #
edge $-1 $458 46.333434949938543 $461 49.81532734893603 $355 $501 forward 7 unknown #
vertex $-1 $369 $502 #
straight-curve $-1 -86.266825855881024 -11.028504131533438 7.73894604980552 -1 0 0 I I #
edge $-1 $461 3.6082874015155415 $366 11.232146058520252 $365 $503 forward 7 unknown #
vertex $-1 $460 $504 #
straight-curve $-1 -72.210455641346485 -11.028504131533438 4.2570536508080181 0.71933979245794832 0 0.69465837861970381 I I #
point $-1 -68.60485059468661 -11.028504131533438 7.7389460498055218 #
point $-1 -72.210455641346471 -18.652362788538149 4.2570536508080314 #
straight-curve $-1 -72.210455641346471 0 7.7389460498055218 0 -1 0 I I #
vertex $-1 $372 $505 #
point $-1 -66.990324376412843 -14.840433460035793 3.8988089492435991 #
coedge $-1 $387 $386 $379 $469 forward $376 $-1 #
edge $-1 $470 94.9905661670428 $473 101.01497608536101 $468 $506 forward 7 unknown #
vertex $-1 $391 $507 #
straight-curve $-1 28.981627643834685 11.829730878955761 7.73894604980552 1 0 0 I I #
edge $-1 $473 1.6900580488618999 $388 18.589287611325823 $387 $508 forward 7 unknown #
vertex $-1 $472 $509 #
straight-curve $-1 -36.785388686596747 11.829730878955761 96.463180105753423 -0.75470957328743171 0 0.6560590369687036 I I #
point $-1 65.280164947127446 11.829730878955761 7.73894604980552 #
point $-1 72.210455641346471 28.728960441419684 1.7145361314873071 #
straight-curve $-1 72.210455641346471 0 7.7389460498055218 0 1 0 I I #
vertex $-1 $394 $510 #
point $-1 68.246174452142583 15.209576791448541 3.3904244651636555 #
vertex $-1 $398 $511 #
point $-1 68.246174452142583 20.279345660187715 3.3904244651636555 #
vertex $-1 $402 $512 #
point $-1 68.246174452142583 25.34911452892689 3.3904244651636555 #
straight-curve $-1 -72.210455641346471 34.885889916490463 0 0 0 -1 I I #
point $-1 -72.210455641346471 -34.885889916490463 -7.7389460498055218 #
straight-curve $-1 -72.210455641346471 0 -7.7389460498055218 0 1 0 I I #
point $-1 -72.210455641346471 34.885889916490463 -7.7389460498055218 #
straight-curve $-1 -67.299112322487332 -15.903712589477536 7.7389460498055218 0 1 0 I I #
straight-curve $-1 -67.299112322487332 -15.903712589477536 -7.7389460498055218 0 -1 0 I I #
point $-1 -67.299112322487332 -34.885889916490463 -7.7389460498055218 #
point $-1 -67.299112322487332 -34.885889916490463 7.7389460498055218 #
straight-curve $-1 0 -34.885889916490463 -7.7389460498055218 -1 0 0 I I #
straight-curve $-1 0 -34.885889916490463 7.7389460498055218 1 0 0 I I #
vertex $-1 $496 $513 #
straight-curve $-1 -67.299112322487332 15.903712589477539 -7.7389460498055218 0 -1 0 I I #
edge $-1 $497 -7.7389460498055218 $494 7.7389460498055218 $450 $514 forward 7 unknown #
vertex $-1 $451 $515 #
straight-curve $-1 -67.299112322487332 15.903712589477539 7.7389460498055218 0 1 0 I I #
straight-curve $-1 0 34.885889916490463 7.7389460498055218 -1 0 0 I I #
straight-curve $-1 0 34.885889916490463 -7.7389460498055218 1 0 0 I I #
straight-curve $-1 -72.210455641346471 -11.028504131533438 54.072380999744063 0 0 -1 I I #
point $-1 -72.210455641346471 -11.028504131533438 7.7389460498055218 #
straight-curve $-1 -72.210455641346471 -7.4202167300178967 4.2570536508080199 0 -1 0 I I #
point $-1 -72.210455641346471 -11.028504131533438 4.2570536508080314 #
point $-1 -67.015005790251095 -14.840433460035793 2.4848107781659472 #
straight-curve $-1 72.210455641346471 11.829730878955761 102.72951221684832 0 0 -1 I I #
point $-1 72.210455641346471 11.829730878955761 7.7389460498055218 #
straight-curve $-1 72.210455641346471 10.139672830093861 1.7145361314873213 0 1 0 I I #
point $-1 72.210455641346471 11.829730878955761 1.7145361314873071 #
point $-1 67.540790147014519 15.209576791448541 3.3410991970042905 #
point $-1 67.540790147014519 20.279345660187715 3.3410991970042905 #
point $-1 67.540790147014519 25.34911452892689 3.3410991970042905 #
point $-1 -67.299112322487332 34.88588991649047 -7.7389460498055218 #
straight-curve $-1 -67.299112322487332 34.885889916490463 0 0 0 -1 I I #
point $-1 -67.299112322487332 34.88588991649047 7.7389460498055218 #
End-of-ACIS-data 