500 0 9 0           
7 Unknown 11 ACIS 5.0 NT 24 Fri Mar 26 19:50:58 1999 
-1 9.9999999999999995e-007 1e-010 
body $-1 $9 $-1 $10 #
body $-1 $11 $-1 $12 #
body $-1 $13 $-1 $14 #
body $-1 $15 $-1 $16 #
body $-1 $17 $-1 $18 #
body $-1 $19 $-1 $20 #
body $-1 $21 $-1 $22 #
body $-1 $23 $-1 $24 #
body $-1 $25 $-1 $26 #
lump $-1 $-1 $27 $0 #
transform $-1 1 0 0 0 1 0 0 0 1 43.209326456495866 20.546287258095536 4.5548962453545272 1 rotate no_reflect no_shear #
lump $-1 $-1 $28 $1 #
transform $-1 1 0 0 0 1 0 0 0 1 43.209326456495866 20.546287258095536 4.5548962453545272 1 rotate no_reflect no_shear #
lump $-1 $-1 $29 $2 #
transform $-1 1 0 0 0 1 0 0 0 1 43.209326456495866 20.546287258095536 4.5548962453545272 1 rotate no_reflect no_shear #
lump $-1 $-1 $30 $3 #
transform $-1 1 0 0 0 1 0 0 0 1 43.209326456495866 20.546287258095536 4.5548962453545272 1 rotate no_reflect no_shear #
lump $-1 $-1 $31 $4 #
transform $-1 1 0 0 0 1 0 0 0 1 43.209326456495866 20.546287258095536 4.5548962453545272 1 rotate no_reflect no_shear #
lump $-1 $-1 $32 $5 #
transform $-1 1 0 0 0 1 0 0 0 1 43.209326456495866 20.546287258095536 4.5548962453545272 1 rotate no_reflect no_shear #
lump $-1 $-1 $33 $6 #
transform $-1 1 0 0 0 1 0 0 0 1 43.209326456495866 20.546287258095536 4.5548962453545272 1 rotate no_reflect no_shear #
lump $-1 $-1 $34 $7 #
transform $-1 1 0 0 0 1 0 0 0 1 43.209326456495866 20.546287258095536 4.5548962453545272 1 rotate no_reflect no_shear #
lump $-1 $-1 $35 $8 #
transform $-1 1 0 0 0 1 0 0 0 1 43.209326456495866 20.546287258095536 4.5548962453545272 1 rotate no_reflect no_shear #
shell $-1 $-1 $-1 $36 $-1 $9 #
shell $-1 $-1 $-1 $37 $-1 $11 #
shell $-1 $-1 $-1 $38 $-1 $13 #
shell $-1 $-1 $-1 $39 $-1 $15 #
shell $-1 $-1 $-1 $40 $-1 $17 #
shell $-1 $-1 $-1 $41 $-1 $19 #
shell $-1 $-1 $-1 $42 $-1 $21 #
shell $-1 $-1 $-1 $43 $-1 $23 #
shell $-1 $-1 $-1 $44 $-1 $25 #
face $-1 $45 $46 $27 $-1 $47 forward single #
face $-1 $48 $49 $28 $-1 $50 reversed single #
face $-1 $51 $52 $29 $-1 $53 reversed single #
face $-1 $54 $55 $30 $-1 $56 forward single #
face $-1 $57 $58 $31 $-1 $59 forward single #
face $-1 $60 $61 $32 $-1 $62 forward single #
face $-1 $63 $64 $33 $-1 $65 reversed single #
face $-1 $66 $67 $34 $-1 $68 forward single #
face $-1 $69 $70 $35 $-1 $71 forward single #
face $-1 $72 $73 $27 $-1 $74 reversed single #
loop $-1 $-1 $75 $36 #
plane-surface $-1 0 0 4.5548962453545272 0 0 1 1 0 0 forward_v I I I I #
face $-1 $76 $77 $28 $-1 $78 reversed single #
loop $-1 $-1 $79 $37 #
plane-surface $-1 -40.717742467820607 -14.436494767386481 0 0 1 0 0 0 1 forward_v I I I I #
face $-1 $80 $81 $29 $-1 $82 reversed single #
loop $-1 $-1 $83 $38 #
plane-surface $-1 24.070434291979858 -93.833462018196514 45.982442585345446 -1 0 0 0 -0.84804810408105047 0.52991925155115449 forward_v I I I I #
face $-1 $84 $85 $30 $-1 $86 forward single #
loop $-1 $87 $88 $39 #
cone-surface $-1 6.1208773731169686 -17.71914989175044 1.4572677069513853 0 0.84804810408105047 -0.52991925155115449 1 0 0 1 I I 0 1 1 forward I I I I #
face $-1 $89 $90 $31 $-1 $91 forward single #
loop $-1 $92 $93 $40 #
cone-surface $-1 12.851961217690551 -17.71914989175044 1.4572677069513853 0 0.84804810408105047 -0.52991925155115449 1 0 0 1 I I 0 1 1 forward I I I I #
face $-1 $94 $95 $32 $-1 $96 forward single #
loop $-1 $97 $98 $41 #
cone-surface $-1 19.583045062264134 -17.71914989175044 1.4572677069513853 0 0.84804810408105047 -0.52991925155115449 1 0 0 1 I I 0 1 1 forward I I I I #
face $-1 $99 $100 $33 $-1 $101 reversed single #
loop $-1 $-1 $102 $42 #
plane-surface $-1 18.425963848505553 57.271563785833379 89.130843247620007 1 0 0 0 -0.74314483375859142 -0.66913059716165679 forward_v I I I I #
face $-1 $103 $104 $34 $-1 $105 forward single #
loop $-1 $106 $107 $43 #
cone-surface $-1 22.753137107745509 18.128311474732023 2.0193390503949664 0 -0.74314483375859142 -0.66913059716165679 1 0 0 1 I I 0 1 1 forward I I I I #
face $-1 $108 $109 $35 $-1 $110 forward single #
loop $-1 $111 $112 $44 #
cone-surface $-1 29.243896996605436 18.128311474732023 2.0193390503949664 0 -0.74314483375859142 -0.66913059716165679 1 0 0 1 I I 0 1 1 forward I I I I #
face $-1 $113 $114 $27 $-1 $115 reversed single #
loop $-1 $-1 $116 $45 #
plane-surface $-1 0 0 -4.5548962453545272 0 0 1 1 0 0 forward_v I I I I #
coedge $-1 $117 $118 $119 $120 forward $46 $-1 #
face $-1 $121 $122 $28 $-1 $123 reversed single #
loop $-1 $-1 $124 $48 #
plane-surface $-1 -40.717742467820607 -11.436494767386481 0 0 -1 0 0 0 -1 forward_v I I I I #
coedge $-1 $125 $126 $127 $128 reversed $49 $-1 #
face $-1 $129 $130 $29 $-1 $131 reversed single #
loop $-1 $-1 $132 $51 #
plane-surface $-1 12.851961217690551 -20.546287258095532 0.1875347136338732 0 -0.84804810408105047 0.52991925155115449 1 0 0 forward_v I I I I #
coedge $-1 $133 $134 $135 $136 reversed $52 $-1 #
face $-1 $-1 $137 $30 $-1 $138 forward single #
loop $-1 $139 $140 $54 #
cone-surface $-1 6.1208773731169686 -15.832503612898416 0.27836030863299399 0 0.84804810408105047 -0.52991925155115449 0.5 0 0 1 I I -0.70710678118654768 0.70710678118654735 0.5 forward I I I I #
loop $-1 $-1 $141 $39 #
coedge $-1 $88 $88 $142 $143 reversed $55 $-1 #
face $-1 $-1 $144 $31 $-1 $145 forward single #
loop $-1 $146 $147 $57 #
cone-surface $-1 12.851961217690551 -15.832503612898416 0.27836030863299399 0 0.84804810408105047 -0.52991925155115449 0.5 0 0 1 I I -0.70710678118654768 0.70710678118654735 0.5 forward I I I I #
loop $-1 $-1 $148 $40 #
coedge $-1 $93 $93 $149 $150 reversed $58 $-1 #
face $-1 $-1 $151 $32 $-1 $152 forward single #
loop $-1 $153 $154 $60 #
cone-surface $-1 19.583045062264134 -15.832503612898416 0.27836030863299399 0 0.84804810408105047 -0.52991925155115449 0.5 0 0 1 I I -0.70710678118654768 0.70710678118654735 0.5 forward I I I I #
loop $-1 $-1 $155 $41 #
coedge $-1 $98 $98 $156 $157 reversed $61 $-1 #
face $-1 $158 $159 $33 $-1 $160 reversed single #
loop $-1 $-1 $161 $63 #
plane-surface $-1 25.998517052175465 -6.9500116668332765 31.305478418043897 0 0.74314483375859142 0.66913059716165679 1 0 0 forward_v I I I I #
coedge $-1 $162 $163 $164 $165 reversed $64 $-1 #
face $-1 $-1 $166 $34 $-1 $167 forward single #
loop $-1 $168 $169 $66 #
cone-surface $-1 22.753137107745509 17.043746848883774 1.0427926992835559 0 -0.74314483375859142 -0.66913059716165679 0.5 0 0 1 I I -0.70710678118654746 0.70710678118654746 0.5 forward I I I I #
loop $-1 $-1 $170 $43 #
coedge $-1 $107 $107 $171 $172 reversed $67 $-1 #
face $-1 $-1 $173 $35 $-1 $174 forward single #
loop $-1 $175 $176 $69 #
cone-surface $-1 29.243896996605436 17.043746848883774 1.0427926992835559 0 -0.74314483375859142 -0.66913059716165679 0.5 0 0 1 I I -0.70710678118654746 0.70710678118654746 0.5 forward I I I I #
loop $-1 $-1 $177 $44 #
coedge $-1 $112 $112 $178 $179 reversed $70 $-1 #
face $-1 $180 $181 $27 $-1 $182 reversed single #
loop $-1 $-1 $183 $72 #
plane-surface $-1 0 -20.546287258095536 0 0 1 0 0 0 1 forward_v I I I I #
coedge $-1 $184 $185 $186 $187 forward $73 $-1 #
coedge $-1 $188 $75 $189 $190 forward $46 $-1 #
coedge $-1 $75 $188 $191 $192 forward $46 $-1 #
coedge $-1 $193 $194 $75 $120 reversed $195 $-1 #
edge $-1 $196 -20.546287258095536 $197 20.546287258095536 $119 $198 forward 7 unknown #
face $-1 $199 $200 $28 $-1 $201 reversed single #
loop $-1 $-1 $202 $76 #
plane-surface $-1 -38.226158479145347 -12.936494767386481 0 -1 0 0 0 0 1 forward_v I I I I #
coedge $-1 $203 $204 $205 $206 forward $77 $-1 #
coedge $-1 $207 $79 $208 $209 reversed $49 $-1 #
coedge $-1 $79 $207 $210 $211 reversed $49 $-1 #
coedge $-1 $212 $213 $79 $128 forward $214 $-1 #
edge $-1 $215 -4.5548962453545272 $216 4.5548962453545272 $127 $217 forward 7 unknown #
face $-1 $218 $219 $29 $-1 $220 reversed single #
loop $-1 $-1 $221 $80 #
plane-surface $-1 1.6334881434012445 -93.833462018196514 45.982442585345446 1 0 0 0 0.84804810408105047 -0.52991925155115449 forward_v I I I I #
coedge $-1 $222 $223 $224 $225 reversed $81 $-1 #
coedge $-1 $134 $83 $226 $227 reversed $52 $-1 #
coedge $-1 $83 $133 $222 $228 reversed $52 $-1 #
coedge $-1 $224 $229 $83 $136 forward $230 $-1 #
edge $-1 $231 26.370443751002721 $232 29.099474030069917 $135 $233 forward 7 unknown #
loop $-1 $-1 $142 $84 #
plane-surface $-1 12.851961217690551 -20.546287258095532 0.1875347136338732 0 -0.84804810408105047 0.52991925155115449 1 0 0 forward_v I I I I #
loop $-1 $-1 $234 $54 #
coedge $-1 $140 $140 $141 $235 reversed $85 $-1 #
coedge $-1 $141 $141 $140 $235 forward $87 $-1 #
coedge $-1 $142 $142 $88 $143 forward $137 $-1 #
edge $-1 $236 1.1298270373685919e-015 $236 6.2831853071796013 $142 $237 forward 7 unknown #
loop $-1 $-1 $149 $89 #
plane-surface $-1 12.851961217690551 -20.546287258095532 0.1875347136338732 0 -0.84804810408105047 0.52991925155115449 1 0 0 forward_v I I I I #
loop $-1 $-1 $238 $57 #
coedge $-1 $147 $147 $148 $239 reversed $90 $-1 #
coedge $-1 $148 $148 $147 $239 forward $92 $-1 #
coedge $-1 $149 $149 $93 $150 forward $144 $-1 #
edge $-1 $240 1.1298270373685919e-015 $240 6.2831853071796013 $149 $241 forward 7 unknown #
loop $-1 $-1 $156 $94 #
plane-surface $-1 12.851961217690551 -20.546287258095532 0.1875347136338732 0 -0.84804810408105047 0.52991925155115449 1 0 0 forward_v I I I I #
loop $-1 $-1 $242 $60 #
coedge $-1 $154 $154 $155 $243 reversed $95 $-1 #
coedge $-1 $155 $155 $154 $243 forward $97 $-1 #
coedge $-1 $156 $156 $98 $157 forward $151 $-1 #
edge $-1 $244 1.1298270373685919e-015 $244 6.2831853071796013 $156 $245 forward 7 unknown #
face $-1 $246 $247 $33 $-1 $248 reversed single #
loop $-1 $-1 $249 $99 #
plane-surface $-1 33.571070255845378 57.271563785833379 89.130843247620007 -1 0 0 0 0.74314483375859142 0.66913059716165679 forward_v I I I I #
coedge $-1 $250 $251 $252 $253 reversed $100 $-1 #
coedge $-1 $163 $102 $254 $255 reversed $64 $-1 #
coedge $-1 $102 $162 $250 $256 reversed $64 $-1 #
coedge $-1 $252 $257 $102 $165 forward $258 $-1 #
edge $-1 $259 8.0894946348211541 $260 11.499461783610279 $164 $261 forward 7 unknown #
loop $-1 $-1 $171 $103 #
plane-surface $-1 25.998517052175465 -6.9500116668332765 31.305478418043897 0 0.74314483375859142 0.66913059716165679 1 0 0 forward_v I I I I #
loop $-1 $-1 $262 $66 #
coedge $-1 $169 $169 $170 $263 reversed $104 $-1 #
coedge $-1 $170 $170 $169 $263 forward $106 $-1 #
coedge $-1 $171 $171 $107 $172 forward $166 $-1 #
edge $-1 $264 1.7842554326282506e-015 $264 6.2831853071796022 $171 $265 forward 7 unknown #
loop $-1 $-1 $178 $108 #
plane-surface $-1 25.998517052175465 -6.9500116668332765 31.305478418043897 0 0.74314483375859142 0.66913059716165679 1 0 0 forward_v I I I I #
loop $-1 $-1 $266 $69 #
coedge $-1 $176 $176 $177 $267 reversed $109 $-1 #
coedge $-1 $177 $177 $176 $267 forward $111 $-1 #
coedge $-1 $178 $178 $112 $179 forward $173 $-1 #
edge $-1 $268 1.7842554326282506e-015 $268 6.2831853071796022 $178 $269 forward 7 unknown #
face $-1 $270 $271 $27 $-1 $272 reversed single #
loop $-1 $-1 $273 $113 #
plane-surface $-1 -43.209326456495866 0 0 1 0 0 0 0 -1 forward_v I I I I #
coedge $-1 $274 $191 $275 $276 forward $114 $-1 #
coedge $-1 $277 $116 $274 $278 forward $73 $-1 #
coedge $-1 $116 $277 $279 $280 forward $73 $-1 #
coedge $-1 $194 $193 $116 $187 reversed $195 $-1 #
edge $-1 $281 -20.546287258095536 $282 20.546287258095536 $186 $283 forward 7 unknown #
coedge $-1 $118 $117 $284 $285 forward $46 $-1 #
coedge $-1 $286 $287 $117 $190 reversed $271 $-1 #
edge $-1 $197 -43.209326456495866 $288 43.209326456495866 $189 $289 forward 7 unknown #
coedge $-1 $183 $290 $118 $192 reversed $114 $-1 #
edge $-1 $291 -43.209326456495866 $196 43.209326456495866 $191 $292 forward 7 unknown #
coedge $-1 $186 $119 $290 $293 forward $195 $-1 #
coedge $-1 $119 $186 $286 $294 reversed $195 $-1 #
loop $-1 $-1 $193 $270 #
vertex $-1 $120 $295 #
vertex $-1 $120 $296 #
straight-curve $-1 43.209326456495866 0 4.5548962453545272 0 1 0 I I #
face $-1 $297 $298 $28 $-1 $299 forward single #
loop $-1 $-1 $300 $121 #
plane-surface $-1 0 0 -4.5548962453545272 0 0 1 1 0 0 forward_v I I I I #
coedge $-1 $301 $302 $207 $303 forward $122 $-1 #
coedge $-1 $304 $124 $300 $305 reversed $77 $-1 #
coedge $-1 $124 $304 $306 $307 reversed $77 $-1 #
coedge $-1 $302 $301 $124 $206 reversed $122 $-1 #
edge $-1 $308 -4.5548962453545272 $309 4.5548962453545272 $205 $310 forward 7 unknown #
coedge $-1 $126 $125 $202 $303 reversed $49 $-1 #
coedge $-1 $311 $312 $125 $209 forward $200 $-1 #
edge $-1 $313 17.867287245235044 $215 22.850455222585563 $208 $314 forward 7 unknown #
coedge $-1 $315 $316 $126 $211 forward $298 $-1 #
edge $-1 $216 -22.850455222585563 $317 -17.867287245235044 $210 $318 forward 7 unknown #
coedge $-1 $319 $127 $316 $320 reversed $214 $-1 #
coedge $-1 $127 $319 $311 $321 reversed $214 $-1 #
loop $-1 $-1 $319 $297 #
vertex $-1 $321 $322 #
vertex $-1 $128 $323 #
straight-curve $-1 -43.209326456495866 -14.436494767386481 0 0 0 1 I I #
face $-1 $-1 $230 $29 $-1 $324 forward single #
loop $-1 $-1 $325 $129 #
plane-surface $-1 0 -20.546287258095536 0 0 1 0 0 0 1 forward_v I I I I #
coedge $-1 $326 $327 $328 $329 reversed $130 $-1 #
coedge $-1 $330 $132 $134 $228 forward $81 $-1 #
coedge $-1 $132 $330 $326 $331 forward $81 $-1 #
coedge $-1 $328 $135 $132 $225 forward $230 $-1 #
edge $-1 $232 -17.644453683134582 $332 4.7924924654440311 $224 $333 forward 7 unknown #
coedge $-1 $334 $335 $133 $227 forward $219 $-1 #
edge $-1 $336 -22.803686579038857 $231 -18.436325047318196 $226 $337 forward 7 unknown #
edge $-1 $232 -5.1498983497559383 $336 6.7079543457405389e-015 $134 $338 forward 7 unknown #
coedge $-1 $135 $328 $334 $339 forward $230 $-1 #
loop $-1 $-1 $328 $218 #
vertex $-1 $227 $340 #
vertex $-1 $136 $341 #
straight-curve $-1 24.070434291979858 -46.916731009098257 4.5548962453545272 0 1 0 I I #
coedge $-1 $234 $234 $-1 $342 reversed $139 $-1 #
edge $-1 $343 0 $343 6.2831853071796004 $140 $344 forward 7 unknown #
vertex $-1 $143 $345 #
ellipse-curve $-1 6.1208773731169686 -19.181772118561938 2.371215479494198 0 -0.84804810408105047 0.52991925155115449 1 0 0 1 I I #
coedge $-1 $238 $238 $-1 $346 reversed $146 $-1 #
edge $-1 $347 0 $347 6.2831853071796004 $147 $348 forward 7 unknown #
vertex $-1 $150 $349 #
ellipse-curve $-1 12.851961217690551 -19.181772118561938 2.371215479494198 0 -0.84804810408105047 0.52991925155115449 1 0 0 1 I I #
coedge $-1 $242 $242 $-1 $350 reversed $153 $-1 #
edge $-1 $351 0 $351 6.2831853071796004 $154 $352 forward 7 unknown #
vertex $-1 $157 $353 #
ellipse-curve $-1 19.583045062264134 -19.181772118561938 2.371215479494198 0 -0.84804810408105047 0.52991925155115449 1 0 0 1 I I #
face $-1 $-1 $258 $33 $-1 $354 forward single #
loop $-1 $-1 $355 $158 #
plane-surface $-1 0 20.546287258095536 0 0 -1 0 0 0 -1 forward_v I I I I #
coedge $-1 $356 $357 $358 $359 reversed $159 $-1 #
coedge $-1 $360 $161 $163 $256 forward $100 $-1 #
coedge $-1 $161 $360 $356 $361 forward $100 $-1 #
coedge $-1 $358 $164 $161 $253 forward $258 $-1 #
edge $-1 $260 5.4267053224178206 $362 20.571811729757645 $252 $363 forward 7 unknown #
coedge $-1 $364 $365 $162 $255 forward $247 $-1 #
edge $-1 $366 -43.797677663313451 $259 -40.010525378455476 $254 $367 forward 7 unknown #
edge $-1 $260 35.996458506470915 $366 41.092574516191064 $163 $368 forward 7 unknown #
coedge $-1 $164 $358 $364 $369 forward $258 $-1 #
loop $-1 $-1 $358 $246 #
vertex $-1 $255 $370 #
vertex $-1 $165 $371 #
straight-curve $-1 18.425963848505553 28.63578189291669 4.5548962453545272 0 -1 0 I I #
coedge $-1 $262 $262 $-1 $372 reversed $168 $-1 #
edge $-1 $373 0 $373 6.2831853071796004 $169 $374 forward 7 unknown #
vertex $-1 $172 $375 #
ellipse-curve $-1 22.753137107745509 18.841303683700971 2.6613201029255444 0 0.74314483375859142 0.66913059716165679 1 0 0 1 I I #
coedge $-1 $266 $266 $-1 $376 reversed $175 $-1 #
edge $-1 $377 0 $377 6.2831853071796004 $176 $378 forward 7 unknown #
vertex $-1 $179 $379 #
ellipse-curve $-1 29.243896996605436 18.841303683700971 2.6613201029255444 0 0.74314483375859142 0.66913059716165679 1 0 0 1 I I #
face $-1 $-1 $195 $27 $-1 $380 reversed single #
loop $-1 $-1 $286 $180 #
plane-surface $-1 0 20.546287258095536 0 0 -1 0 0 0 -1 forward_v I I I I #
coedge $-1 $381 $284 $287 $382 forward $181 $-1 #
coedge $-1 $290 $183 $184 $278 reversed $114 $-1 #
coedge $-1 $284 $381 $183 $276 reversed $181 $-1 #
edge $-1 $291 -4.5548962453545272 $383 4.5548962453545272 $275 $384 forward 7 unknown #
coedge $-1 $185 $184 $381 $385 forward $73 $-1 #
edge $-1 $282 -43.209326456495866 $383 43.209326456495866 $274 $386 forward 7 unknown #
coedge $-1 $287 $286 $185 $280 reversed $271 $-1 #
edge $-1 $387 -43.209326456495866 $281 43.209326456495866 $279 $388 forward 7 unknown #
vertex $-1 $187 $389 #
vertex $-1 $293 $390 #
straight-curve $-1 43.209326456495866 0 -4.5548962453545272 0 -1 0 I I #
coedge $-1 $273 $275 $188 $285 reversed $181 $-1 #
edge $-1 $288 -20.546287258095536 $291 20.546287258095536 $284 $391 forward 7 unknown #
coedge $-1 $279 $189 $194 $294 forward $271 $-1 #
coedge $-1 $189 $279 $273 $382 reversed $271 $-1 #
vertex $-1 $190 $392 #
straight-curve $-1 0 20.546287258095536 4.5548962453545272 -1 0 0 I I #
coedge $-1 $191 $274 $193 $293 reversed $114 $-1 #
vertex $-1 $285 $393 #
straight-curve $-1 0 -20.546287258095536 4.5548962453545272 1 0 0 I I #
edge $-1 $196 -4.5548962453545272 $282 4.5548962453545272 $193 $394 forward 7 unknown #
edge $-1 $197 -4.5548962453545272 $281 4.5548962453545272 $194 $395 forward 7 unknown #
point $-1 43.209326456495866 -20.546287258095536 4.5548962453545272 #
point $-1 43.209326456495866 20.546287258095536 4.5548962453545272 #
face $-1 $-1 $214 $28 $-1 $396 reversed single #
loop $-1 $-1 $306 $199 #
plane-surface $-1 0 0 4.5548962453545272 0 0 1 1 0 0 forward_v I I I I #
coedge $-1 $312 $311 $203 $305 forward $200 $-1 #
coedge $-1 $205 $202 $312 $397 reversed $122 $-1 #
coedge $-1 $202 $205 $315 $398 reversed $122 $-1 #
edge $-1 $317 -4.5548962453545272 $313 4.5548962453545272 $202 $399 forward 7 unknown #
coedge $-1 $204 $203 $319 $400 reversed $77 $-1 #
edge $-1 $401 -22.850455222585563 $309 -17.867287245235044 $300 $402 forward 7 unknown #
coedge $-1 $316 $315 $204 $307 forward $298 $-1 #
edge $-1 $308 17.867287245235044 $403 22.850455222585563 $306 $404 forward 7 unknown #
vertex $-1 $307 $405 #
vertex $-1 $305 $406 #
straight-curve $-1 -38.226158479145347 -11.436494767386481 0 0 0 -1 I I #
coedge $-1 $300 $208 $213 $321 forward $200 $-1 #
coedge $-1 $208 $300 $301 $397 forward $200 $-1 #
vertex $-1 $209 $407 #
straight-curve $-1 -20.358871233910303 -14.436494767386481 -4.5548962453545272 -1 0 0 I I #
coedge $-1 $306 $210 $302 $398 forward $298 $-1 #
coedge $-1 $210 $306 $212 $320 forward $298 $-1 #
vertex $-1 $211 $408 #
straight-curve $-1 -20.358871233910303 -14.436494767386481 4.5548962453545272 1 0 0 I I #
coedge $-1 $213 $212 $304 $400 forward $214 $-1 #
edge $-1 $403 11.436494767386481 $216 14.436494767386481 $212 $409 forward 7 unknown #
edge $-1 $215 -14.436494767386481 $401 -11.436494767386481 $213 $410 forward 7 unknown #
point $-1 -43.209326456495866 -14.436494767386481 -4.5548962453545272 #
point $-1 -43.209326456495866 -14.436494767386481 4.5548962453545272 #
plane-surface $-1 0 0 4.5548962453545272 0 0 1 1 0 0 forward_v I I I I #
coedge $-1 $335 $334 $327 $411 forward $219 $-1 #
coedge $-1 $327 $221 $223 $331 reversed $130 $-1 #
coedge $-1 $221 $326 $325 $411 reversed $130 $-1 #
coedge $-1 $229 $224 $221 $329 forward $230 $-1 #
edge $-1 $332 -29.099474030069917 $412 -26.370443751002721 $328 $413 forward 7 unknown #
coedge $-1 $223 $222 $335 $414 reversed $81 $-1 #
edge $-1 $415 -6.7079543457405389e-015 $332 5.1498983497559383 $326 $416 forward 7 unknown #
vertex $-1 $225 $417 #
straight-curve $-1 6.4259806088452756 -17.81725697902834 4.5548962453545272 -1 0 0 I I #
coedge $-1 $325 $226 $229 $339 reversed $219 $-1 #
coedge $-1 $226 $325 $330 $414 forward $219 $-1 #
vertex $-1 $227 $418 #
straight-curve $-1 24.070434291979858 -20.546287258095532 22.991221292672723 0 0 1 I I #
straight-curve $-1 24.070434291979858 -20.546287258095532 0.1875347136338732 0 -0.52991925155115449 -0.84804810408105047 I I #
edge $-1 $412 1.6334881434012445 $231 24.070434291979858 $334 $419 forward 7 unknown #
point $-1 24.070434291979858 -20.546287258095536 4.5548962453545272 #
point $-1 24.070434291979858 -17.81725697902834 4.5548962453545272 #
edge $-1 $420 1 $420 0 $234 $-1 forward 7 unknown #
vertex $-1 $235 $421 #
ellipse-curve $-1 6.1208773731169686 -16.25652766493894 0.54331993440857107 0 -0.84804810408105047 0.52991925155115449 1 0 0 1 I I #
point $-1 7.1208773731169686 -19.181772118561938 2.3712154794941993 #
edge $-1 $422 1 $422 0 $238 $-1 forward 7 unknown #
vertex $-1 $239 $423 #
ellipse-curve $-1 12.851961217690551 -16.25652766493894 0.54331993440857107 0 -0.84804810408105047 0.52991925155115449 1 0 0 1 I I #
point $-1 13.851961217690551 -19.181772118561938 2.3712154794941993 #
edge $-1 $424 1 $424 0 $242 $-1 forward 7 unknown #
vertex $-1 $243 $425 #
ellipse-curve $-1 19.583045062264134 -16.25652766493894 0.54331993440857107 0 -0.84804810408105047 0.52991925155115449 1 0 0 1 I I #
point $-1 20.583045062264134 -19.181772118561938 2.3712154794941993 #
plane-surface $-1 0 0 4.5548962453545272 0 0 1 1 0 0 forward_v I I I I #
coedge $-1 $365 $364 $357 $426 forward $247 $-1 #
coedge $-1 $357 $249 $251 $361 reversed $159 $-1 #
coedge $-1 $249 $356 $355 $426 reversed $159 $-1 #
coedge $-1 $257 $252 $249 $359 forward $258 $-1 #
edge $-1 $362 -11.499461783610279 $427 -8.0894946348211541 $358 $428 forward 7 unknown #
coedge $-1 $251 $250 $365 $429 reversed $100 $-1 #
edge $-1 $430 -41.092574516191064 $362 -35.996458506470915 $356 $431 forward 7 unknown #
vertex $-1 $253 $432 #
straight-curve $-1 12.999258526087733 17.136320109306411 4.5548962453545272 1 0 0 I I #
coedge $-1 $355 $254 $257 $369 reversed $247 $-1 #
coedge $-1 $254 $355 $360 $429 forward $247 $-1 #
vertex $-1 $255 $433 #
straight-curve $-1 18.425963848505553 20.546287258095536 44.565421623810003 0 0 1 I I #
straight-curve $-1 18.425963848505553 -6.9500116668332765 31.305478418043897 0 0.66913059716165679 -0.74314483375859142 I I #
edge $-1 $427 -33.571070255845378 $259 -18.425963848505553 $364 $434 forward 7 unknown #
point $-1 18.425963848505553 20.546287258095536 4.5548962453545272 #
point $-1 18.425963848505553 17.136320109306411 4.5548962453545307 #
edge $-1 $435 1 $435 0 $262 $-1 forward 7 unknown #
vertex $-1 $263 $436 #
ellipse-curve $-1 22.753137107745509 17.41531926576307 1.3773579978643844 0 0.74314483375859142 0.66913059716165679 1 0 0 1 I I #
point $-1 23.753137107745509 18.841303683700978 2.6613201029255484 #
edge $-1 $437 1 $437 0 $266 $-1 forward 7 unknown #
vertex $-1 $267 $438 #
ellipse-curve $-1 29.243896996605436 17.41531926576307 1.3773579978643844 0 0.74314483375859142 0.66913059716165679 1 0 0 1 I I #
point $-1 30.243896996605436 18.841303683700978 2.6613201029255484 #
plane-surface $-1 43.209326456495866 0 0 -1 0 0 0 0 1 forward_v I I I I #
coedge $-1 $275 $273 $277 $385 reversed $181 $-1 #
edge $-1 $288 -4.5548962453545272 $387 4.5548962453545272 $287 $439 forward 7 unknown #
vertex $-1 $385 $440 #
straight-curve $-1 -43.209326456495866 -20.546287258095536 0 0 0 -1 I I #
edge $-1 $383 -20.546287258095536 $387 20.546287258095536 $381 $441 forward 7 unknown #
straight-curve $-1 0 -20.546287258095536 -4.5548962453545272 -1 0 0 I I #
vertex $-1 $280 $442 #
straight-curve $-1 0 20.546287258095536 -4.5548962453545272 1 0 0 I I #
point $-1 43.209326456495866 20.546287258095536 -4.5548962453545272 #
point $-1 43.209326456495866 -20.546287258095536 -4.5548962453545272 #
straight-curve $-1 -43.209326456495866 0 4.5548962453545272 0 -1 0 I I #
point $-1 -43.209326456495866 20.546287258095536 4.5548962453545272 #
point $-1 -43.209326456495866 -20.546287258095536 4.5548962453545272 #
straight-curve $-1 43.209326456495866 -20.546287258095536 0 0 0 -1 I I #
straight-curve $-1 43.209326456495866 20.546287258095536 0 0 0 -1 I I #
plane-surface $-1 -43.209326456495866 0 0 1 0 0 0 0 -1 forward_v I I I I #
edge $-1 $309 4.9682473836932406 $313 7.9682473836932406 $312 $443 forward 7 unknown #
edge $-1 $317 -7.9682473836932406 $308 -4.9682473836932406 $315 $444 forward 7 unknown #
straight-curve $-1 -38.226158479145347 -14.436494767386481 0 0 0 -1 I I #
edge $-1 $403 -4.5548962453545272 $401 4.5548962453545272 $319 $445 forward 7 unknown #
vertex $-1 $400 $446 #
straight-curve $-1 -20.358871233910303 -11.436494767386481 -4.5548962453545272 1 0 0 I I #
vertex $-1 $320 $447 #
straight-curve $-1 -20.358871233910303 -11.436494767386481 4.5548962453545272 -1 0 0 I I #
point $-1 -38.226158479145347 -11.436494767386481 4.5548962453545272 #
point $-1 -38.226158479145347 -11.436494767386481 -4.5548962453545272 #
point $-1 -38.226158479145347 -14.436494767386481 -4.5548962453545272 #
point $-1 -38.226158479145347 -14.436494767386481 4.5548962453545272 #
straight-curve $-1 -43.209326456495866 0 4.5548962453545272 0 -1 0 I I #
straight-curve $-1 -43.209326456495866 0 -4.5548962453545272 0 1 0 I I #
edge $-1 $412 18.436325047318196 $415 22.803686579038857 $325 $448 forward 7 unknown #
vertex $-1 $339 $449 #
straight-curve $-1 1.6334881434012445 -46.916731009098257 4.5548962453545272 0 -1 0 I I #
edge $-1 $415 -4.7924924654440311 $336 17.644453683134582 $335 $450 forward 7 unknown #
vertex $-1 $414 $451 #
straight-curve $-1 1.6334881434012445 -20.546287258095532 0.1875347136338732 0 0.52991925155115449 0.84804810408105047 I I #
point $-1 1.6334881434012445 -17.81725697902834 4.5548962453545272 #
point $-1 24.070434291979858 -20.546287258095536 0.18753471363386751 #
straight-curve $-1 0 -20.546287258095536 4.5548962453545272 1 0 0 I I #
vertex $-1 $342 $452 #
point $-1 7.1208773731169686 -16.25652766493894 0.54331993440857107 #
vertex $-1 $346 $453 #
point $-1 13.851961217690551 -16.25652766493894 0.54331993440857107 #
vertex $-1 $350 $454 #
point $-1 20.583045062264134 -16.25652766493894 0.54331993440857107 #
edge $-1 $427 40.010525378455476 $430 43.797677663313451 $355 $455 forward 7 unknown #
vertex $-1 $369 $456 #
straight-curve $-1 33.571070255845378 28.63578189291669 4.5548962453545272 0 1 0 I I #
edge $-1 $430 -20.571811729757645 $366 -5.4267053224178206 $365 $457 forward 7 unknown #
vertex $-1 $429 $458 #
straight-curve $-1 33.571070255845378 -6.9500116668332765 31.305478418043897 0 -0.66913059716165679 0.74314483375859142 I I #
point $-1 33.571070255845378 17.136320109306411 4.5548962453545307 #
point $-1 18.425963848505553 20.546287258095536 0.7677439604965528 #
straight-curve $-1 0 20.546287258095536 4.5548962453545272 -1 0 0 I I #
vertex $-1 $372 $459 #
point $-1 23.753137107745509 17.41531926576307 1.3773579978643844 #
vertex $-1 $376 $460 #
point $-1 30.243896996605436 17.41531926576307 1.3773579978643844 #
straight-curve $-1 -43.209326456495866 20.546287258095536 0 0 0 -1 I I #
point $-1 -43.209326456495866 -20.546287258095536 -4.5548962453545272 #
straight-curve $-1 -43.209326456495866 0 -4.5548962453545272 0 1 0 I I #
point $-1 -43.209326456495866 20.546287258095536 -4.5548962453545272 #
straight-curve $-1 -38.226158479145347 -6.4682473836932406 -4.5548962453545272 0 -1 0 I I #
straight-curve $-1 -38.226158479145347 -6.4682473836932406 4.5548962453545272 0 1 0 I I #
straight-curve $-1 -43.209326456495866 -11.436494767386481 0 0 0 -1 I I #
point $-1 -43.209326456495866 -11.436494767386481 -4.5548962453545272 #
point $-1 -43.209326456495866 -11.436494767386481 4.5548962453545272 #
straight-curve $-1 1.6334881434012445 -20.546287258095532 22.991221292672723 0 0 -1 I I #
point $-1 1.6334881434012445 -20.546287258095536 4.5548962453545272 #
straight-curve $-1 6.4259806088452756 -20.546287258095536 0.18753471363386678 1 0 0 I I #
point $-1 1.6334881434012445 -20.546287258095536 0.18753471363386751 #
point $-1 6.1208773731169686 -15.40847956085789 0.013400682857416857 #
point $-1 12.851961217690551 -15.40847956085789 0.013400682857416857 #
point $-1 19.583045062264134 -15.40847956085789 0.013400682857416857 #
straight-curve $-1 33.571070255845378 20.546287258095536 44.565421623810003 0 0 -1 I I #
point $-1 33.571070255845378 20.546287258095536 4.5548962453545272 #
straight-curve $-1 12.999258526087733 20.546287258095539 0.76774396049655103 -1 0 0 I I #
point $-1 33.571070255845378 20.546287258095536 0.7677439604965528 #
point $-1 22.753137107745509 16.672174432004478 0.70822740070272749 #
point $-1 29.243896996605436 16.672174432004478 0.70822740070272749 #
End-of-ACIS-data 