500 0 10 0           
7 Unknown 11 ACIS 5.0 NT 24 Thu Mar 25 19:08:16 1999 
-1 9.9999999999999995e-007 1e-010 
body $-1 $10 $-1 $11 #
body $-1 $12 $-1 $13 #
body $-1 $14 $-1 $15 #
body $-1 $16 $-1 $17 #
body $-1 $18 $-1 $19 #
body $-1 $20 $-1 $21 #
body $-1 $22 $-1 $23 #
body $-1 $24 $-1 $25 #
body $-1 $26 $-1 $27 #
body $-1 $28 $-1 $29 #
lump $-1 $-1 $30 $0 #
transform $-1 1 0 0 0 1 0 0 0 1 54.156926175725573 36.915200104600608 16.693349331642185 1 rotate no_reflect no_shear #
lump $-1 $-1 $31 $1 #
transform $-1 1 0 0 0 1 0 0 0 1 54.156926175725573 36.915200104600608 16.693349331642185 1 rotate no_reflect no_shear #
lump $-1 $-1 $32 $2 #
transform $-1 1 0 0 0 1 0 0 0 1 54.156926175725573 36.915200104600608 16.693349331642185 1 rotate no_reflect no_shear #
lump $-1 $-1 $33 $3 #
transform $-1 1 0 0 0 1 0 0 0 1 54.156926175725573 36.915200104600608 16.693349331642185 1 rotate no_reflect no_shear #
lump $-1 $-1 $34 $4 #
transform $-1 1 0 0 0 1 0 0 0 1 54.156926175725573 36.915200104600608 16.693349331642185 1 rotate no_reflect no_shear #
lump $-1 $-1 $35 $5 #
transform $-1 1 0 0 0 1 0 0 0 1 54.156926175725573 36.915200104600608 16.693349331642185 1 rotate no_reflect no_shear #
lump $-1 $-1 $36 $6 #
transform $-1 1 0 0 0 1 0 0 0 1 54.156926175725573 36.915200104600608 16.693349331642185 1 rotate no_reflect no_shear #
lump $-1 $-1 $37 $7 #
transform $-1 1 0 0 0 1 0 0 0 1 54.156926175725573 36.915200104600608 16.693349331642185 1 rotate no_reflect no_shear #
lump $-1 $-1 $38 $8 #
transform $-1 1 0 0 0 1 0 0 0 1 54.156926175725573 36.915200104600608 16.693349331642185 1 rotate no_reflect no_shear #
lump $-1 $-1 $39 $9 #
transform $-1 1 0 0 0 1 0 0 0 1 54.156926175725573 36.915200104600608 16.693349331642185 1 rotate no_reflect no_shear #
shell $-1 $-1 $-1 $40 $-1 $10 #
shell $-1 $-1 $-1 $41 $-1 $12 #
shell $-1 $-1 $-1 $42 $-1 $14 #
shell $-1 $-1 $-1 $43 $-1 $16 #
shell $-1 $-1 $-1 $44 $-1 $18 #
shell $-1 $-1 $-1 $45 $-1 $20 #
shell $-1 $-1 $-1 $46 $-1 $22 #
shell $-1 $-1 $-1 $47 $-1 $24 #
shell $-1 $-1 $-1 $48 $-1 $26 #
shell $-1 $-1 $-1 $49 $-1 $28 #
face $-1 $50 $51 $30 $-1 $52 forward single #
face $-1 $53 $54 $31 $-1 $55 reversed single #
face $-1 $56 $57 $32 $-1 $58 reversed single #
face $-1 $59 $60 $33 $-1 $61 forward single #
face $-1 $62 $63 $34 $-1 $64 reversed single #
face $-1 $65 $66 $35 $-1 $67 forward single #
face $-1 $68 $69 $36 $-1 $70 reversed single #
face $-1 $71 $72 $37 $-1 $73 forward single #
face $-1 $74 $75 $38 $-1 $76 reversed single #
face $-1 $77 $78 $39 $-1 $79 forward single #
face $-1 $80 $81 $30 $-1 $82 reversed single #
loop $-1 $-1 $83 $40 #
plane-surface $-1 0 0 16.693349331642185 0 0 1 1 0 0 forward_v I I I I #
face $-1 $84 $85 $31 $-1 $86 reversed single #
loop $-1 $-1 $87 $41 #
plane-surface $-1 -26.87218748084878 -30.343200617962705 0 1 0 0 0 0 -1 forward_v I I I I #
face $-1 $88 $89 $32 $-1 $90 reversed single #
loop $-1 $-1 $91 $42 #
plane-surface $-1 67.507350600660018 -1.1942807451017572 164.19444035047417 0 -1 0 -0.7660444514056185 0 -0.64278759981090561 forward_v I I I I #
face $-1 $92 $93 $33 $-1 $94 forward single #
loop $-1 $95 $96 $43 #
cone-surface $-1 51.380820638134523 -8.1864035438327996 13.610094336690061 -0.7660444514056185 0 -0.64278759981090561 0.64278759981090561 0 -0.7660444514056185 1 I I 0 1 1 forward I I I I #
face $-1 $97 $98 $34 $-1 $99 reversed single #
loop $-1 $-1 $100 $44 #
plane-surface $-1 67.507350600660018 29.148919872860947 164.19444035047417 0 -1 0 -0.7660444514056185 0 -0.64278759981090561 forward_v I I I I #
face $-1 $101 $102 $35 $-1 $103 forward single #
loop $-1 $104 $105 $45 #
cone-surface $-1 51.380820638134523 22.156797074129905 13.610094336690061 -0.7660444514056185 0 -0.64278759981090561 0.64278759981090561 0 -0.7660444514056185 1 I I 0 1 1 forward I I I I #
face $-1 $106 $107 $36 $-1 $108 reversed single #
loop $-1 $-1 $109 $46 #
plane-surface $-1 -137.13015177992213 -15.178526342563842 81.22121474627761 0 1 0 -0.7660444514056185 0 0.64278759981090561 forward_v I I I I #
face $-1 $110 $111 $37 $-1 $112 forward single #
loop $-1 $113 $114 $47 #
cone-surface $-1 -51.38082063813453 -8.1864035438327996 13.610094336690057 0.7660444514056185 0 -0.64278759981090561 0.64278759981090561 0 0.7660444514056185 1 I I 0 1 1 forward I I I I #
face $-1 $115 $116 $38 $-1 $117 reversed single #
loop $-1 $-1 $118 $48 #
plane-surface $-1 -137.13015177992213 15.164674275398863 81.22121474627761 0 1 0 -0.7660444514056185 0 0.64278759981090561 forward_v I I I I #
face $-1 $119 $120 $39 $-1 $121 forward single #
loop $-1 $122 $123 $49 #
cone-surface $-1 -51.38082063813453 22.156797074129905 13.610094336690057 0.7660444514056185 0 -0.64278759981090561 0.64278759981090561 0 0.7660444514056185 1 I I 0 1 1 forward I I I I #
face $-1 $124 $125 $30 $-1 $126 reversed single #
loop $-1 $-1 $127 $50 #
plane-surface $-1 0 0 -16.693349331642185 0 0 1 1 0 0 forward_v I I I I #
coedge $-1 $128 $129 $130 $131 forward $51 $-1 #
face $-1 $132 $133 $31 $-1 $134 reversed single #
loop $-1 $-1 $135 $53 #
plane-surface $-1 -23.821207496644991 -23.771201131324801 0 0 -1 0 0 0 -1 forward_v I I I I #
coedge $-1 $136 $137 $138 $139 forward $54 $-1 #
face $-1 $140 $141 $32 $-1 $142 reversed single #
loop $-1 $-1 $143 $56 #
plane-surface $-1 -15.465875003536539 -8.1864035438327996 94.57163917121207 0.7660444514056185 0 0.64278759981090561 0.64278759981090561 0 -0.7660444514056185 forward_v I I I I #
coedge $-1 $144 $145 $146 $147 reversed $57 $-1 #
face $-1 $-1 $148 $33 $-1 $149 forward single #
loop $-1 $150 $151 $59 #
cone-surface $-1 50.359272179361369 -8.1864035438327996 12.752913424145813 -0.7660444514056185 0 -0.64278759981090561 0.3213937999054528 0 -0.38302222570280925 1 I I -0.70710678118654746 0.70710678118654746 0.5 forward I I I I #
loop $-1 $-1 $152 $43 #
coedge $-1 $96 $96 $153 $154 reversed $60 $-1 #
face $-1 $155 $156 $34 $-1 $157 reversed single #
loop $-1 $-1 $158 $62 #
plane-surface $-1 -15.465875003536539 22.156797074129905 94.57163917121207 0.7660444514056185 0 0.64278759981090561 0.64278759981090561 0 -0.7660444514056185 forward_v I I I I #
coedge $-1 $159 $160 $161 $162 reversed $63 $-1 #
face $-1 $-1 $163 $35 $-1 $164 forward single #
loop $-1 $165 $166 $65 #
cone-surface $-1 50.359272179361369 22.156797074129905 12.752913424145813 -0.7660444514056185 0 -0.64278759981090561 0.3213937999054528 0 -0.38302222570280925 1 I I -0.70710678118654746 0.70710678118654746 0.5 forward I I I I #
loop $-1 $-1 $167 $45 #
coedge $-1 $105 $105 $168 $169 reversed $66 $-1 #
face $-1 $170 $171 $36 $-1 $172 reversed single #
loop $-1 $-1 $173 $68 #
plane-surface $-1 -54.156926175725573 -8.1864035438327996 11.598413567015513 -0.7660444514056185 0 0.64278759981090561 0.64278759981090561 0 0.7660444514056185 forward_v I I I I #
coedge $-1 $174 $175 $176 $177 reversed $69 $-1 #
face $-1 $-1 $178 $37 $-1 $179 forward single #
loop $-1 $180 $181 $71 #
cone-surface $-1 -50.359272179361376 -8.1864035438327996 12.75291342414581 0.7660444514056185 0 -0.64278759981090561 0.3213937999054528 0 0.38302222570280925 1 I I -0.70710678118654746 0.70710678118654746 0.5 forward I I I I #
loop $-1 $-1 $182 $47 #
coedge $-1 $114 $114 $183 $184 reversed $72 $-1 #
face $-1 $185 $186 $38 $-1 $187 reversed single #
loop $-1 $-1 $188 $74 #
plane-surface $-1 -54.156926175725573 22.156797074129905 11.598413567015513 -0.7660444514056185 0 0.64278759981090561 0.64278759981090561 0 0.7660444514056185 forward_v I I I I #
coedge $-1 $189 $190 $191 $192 reversed $75 $-1 #
face $-1 $-1 $193 $39 $-1 $194 forward single #
loop $-1 $195 $196 $77 #
cone-surface $-1 -50.359272179361376 22.156797074129905 12.75291342414581 0.7660444514056185 0 -0.64278759981090561 0.3213937999054528 0 0.38302222570280925 1 I I -0.70710678118654746 0.70710678118654746 0.5 forward I I I I #
loop $-1 $-1 $197 $49 #
coedge $-1 $123 $123 $198 $199 reversed $78 $-1 #
face $-1 $200 $201 $30 $-1 $202 reversed single #
loop $-1 $-1 $203 $80 #
plane-surface $-1 0 -36.915200104600608 0 0 1 0 0 0 1 forward_v I I I I #
coedge $-1 $204 $205 $206 $207 forward $81 $-1 #
coedge $-1 $208 $83 $209 $210 forward $51 $-1 #
coedge $-1 $83 $208 $211 $212 forward $51 $-1 #
coedge $-1 $213 $214 $83 $131 reversed $215 $-1 #
edge $-1 $216 -36.915200104600608 $217 36.915200104600608 $130 $218 forward 7 unknown #
face $-1 $219 $220 $31 $-1 $221 forward single #
loop $-1 $-1 $222 $84 #
plane-surface $-1 -20.770227512441203 -30.343200617962705 0 -1 0 0 0 0 1 forward_v I I I I #
coedge $-1 $223 $224 $225 $226 forward $85 $-1 #
coedge $-1 $227 $87 $228 $229 reversed $54 $-1 #
coedge $-1 $87 $227 $230 $231 reversed $54 $-1 #
coedge $-1 $224 $223 $87 $139 reversed $85 $-1 #
edge $-1 $232 -16.693349331642185 $233 16.693349331642185 $138 $234 forward 7 unknown #
face $-1 $235 $236 $32 $-1 $237 reversed single #
loop $-1 $-1 $238 $88 #
plane-surface $-1 67.507350600660018 -15.178526342563842 164.19444035047417 0 1 0 0.7660444514056185 0 0.64278759981090561 forward_v I I I I #
coedge $-1 $239 $240 $241 $242 reversed $89 $-1 #
coedge $-1 $145 $91 $243 $244 reversed $57 $-1 #
coedge $-1 $91 $144 $239 $245 reversed $57 $-1 #
coedge $-1 $241 $246 $91 $147 forward $247 $-1 #
edge $-1 $248 -20.403250875395564 $249 -16.128092266354166 $146 $250 forward 7 unknown #
loop $-1 $-1 $153 $92 #
plane-surface $-1 -15.465875003536539 -8.1864035438327996 94.57163917121207 0.7660444514056185 0 0.64278759981090561 0.64278759981090561 0 -0.7660444514056185 forward_v I I I I #
loop $-1 $-1 $251 $59 #
coedge $-1 $151 $151 $152 $252 reversed $93 $-1 #
coedge $-1 $152 $152 $151 $252 forward $95 $-1 #
coedge $-1 $153 $153 $96 $154 forward $148 $-1 #
edge $-1 $253 0 $253 6.2831853071796004 $153 $254 forward 7 unknown #
face $-1 $255 $256 $34 $-1 $257 reversed single #
loop $-1 $-1 $258 $97 #
plane-surface $-1 67.507350600660018 15.164674275398863 164.19444035047417 0 1 0 0.7660444514056185 0 0.64278759981090561 forward_v I I I I #
coedge $-1 $259 $260 $261 $262 reversed $98 $-1 #
coedge $-1 $160 $100 $263 $264 reversed $63 $-1 #
coedge $-1 $100 $159 $259 $265 reversed $63 $-1 #
coedge $-1 $261 $266 $100 $162 forward $267 $-1 #
edge $-1 $268 -20.403250875395564 $269 -16.128092266354166 $161 $270 forward 7 unknown #
loop $-1 $-1 $168 $101 #
plane-surface $-1 -15.465875003536539 22.156797074129905 94.57163917121207 0.7660444514056185 0 0.64278759981090561 0.64278759981090561 0 -0.7660444514056185 forward_v I I I I #
loop $-1 $-1 $271 $65 #
coedge $-1 $166 $166 $167 $272 reversed $102 $-1 #
coedge $-1 $167 $167 $166 $272 forward $104 $-1 #
coedge $-1 $168 $168 $105 $169 forward $163 $-1 #
edge $-1 $273 0 $273 6.2831853071796004 $168 $274 forward 7 unknown #
face $-1 $275 $276 $36 $-1 $277 reversed single #
loop $-1 $-1 $278 $106 #
plane-surface $-1 -137.13015177992213 -1.1942807451017572 81.22121474627761 0 -1 0 0.7660444514056185 0 -0.64278759981090561 forward_v I I I I #
coedge $-1 $279 $280 $281 $282 reversed $107 $-1 #
coedge $-1 $175 $109 $283 $284 reversed $69 $-1 #
coedge $-1 $109 $174 $279 $285 reversed $69 $-1 #
coedge $-1 $281 $286 $109 $177 forward $287 $-1 #
edge $-1 $288 14.408149714235492 $289 18.683308323276883 $176 $290 forward 7 unknown #
loop $-1 $-1 $183 $110 #
plane-surface $-1 -54.156926175725573 -8.1864035438327996 11.598413567015513 -0.7660444514056185 0 0.64278759981090561 0.64278759981090561 0 0.7660444514056185 forward_v I I I I #
loop $-1 $-1 $291 $71 #
coedge $-1 $181 $181 $182 $292 reversed $111 $-1 #
coedge $-1 $182 $182 $181 $292 forward $113 $-1 #
coedge $-1 $183 $183 $114 $184 forward $178 $-1 #
edge $-1 $293 0 $293 6.2831853071796004 $183 $294 forward 7 unknown #
face $-1 $295 $296 $38 $-1 $297 forward single #
loop $-1 $-1 $298 $115 #
plane-surface $-1 -137.13015177992213 29.148919872860947 81.22121474627761 0 -1 0 0.7660444514056185 0 -0.64278759981090561 forward_v I I I I #
coedge $-1 $299 $300 $301 $302 reversed $116 $-1 #
coedge $-1 $190 $118 $303 $304 reversed $75 $-1 #
coedge $-1 $118 $189 $299 $305 reversed $75 $-1 #
coedge $-1 $301 $306 $118 $192 forward $296 $-1 #
edge $-1 $307 14.408149714235492 $308 18.683308323276883 $191 $309 forward 7 unknown #
loop $-1 $-1 $198 $119 #
plane-surface $-1 -54.156926175725573 22.156797074129905 11.598413567015513 -0.7660444514056185 0 0.64278759981090561 0.64278759981090561 0 0.7660444514056185 forward_v I I I I #
loop $-1 $-1 $310 $77 #
coedge $-1 $196 $196 $197 $311 reversed $120 $-1 #
coedge $-1 $197 $197 $196 $311 forward $122 $-1 #
coedge $-1 $198 $198 $123 $199 forward $193 $-1 #
edge $-1 $312 0 $312 6.2831853071796004 $198 $313 forward 7 unknown #
face $-1 $314 $315 $30 $-1 $316 reversed single #
loop $-1 $-1 $317 $124 #
plane-surface $-1 -54.156926175725573 0 0 1 0 0 0 0 -1 forward_v I I I I #
coedge $-1 $318 $211 $319 $320 forward $125 $-1 #
coedge $-1 $321 $127 $318 $322 forward $81 $-1 #
coedge $-1 $127 $321 $323 $324 forward $81 $-1 #
coedge $-1 $214 $213 $127 $207 reversed $215 $-1 #
edge $-1 $325 -36.915200104600608 $326 36.915200104600608 $206 $327 forward 7 unknown #
coedge $-1 $129 $128 $328 $329 forward $51 $-1 #
coedge $-1 $330 $331 $128 $210 reversed $315 $-1 #
edge $-1 $217 -54.156926175725573 $332 54.156926175725573 $209 $333 forward 7 unknown #
coedge $-1 $203 $334 $129 $212 reversed $125 $-1 #
edge $-1 $335 -54.156926175725573 $216 54.156926175725573 $211 $336 forward 7 unknown #
coedge $-1 $206 $130 $334 $337 forward $215 $-1 #
coedge $-1 $130 $206 $330 $338 reversed $215 $-1 #
loop $-1 $-1 $213 $314 #
vertex $-1 $131 $339 #
vertex $-1 $131 $340 #
straight-curve $-1 54.156926175725573 0 16.693349331642185 0 1 0 I I #
face $-1 $341 $342 $31 $-1 $343 reversed single #
loop $-1 $-1 $344 $132 #
plane-surface $-1 0 0 16.693349331642185 0 0 1 1 0 0 forward_v I I I I #
coedge $-1 $345 $346 $347 $348 reversed $133 $-1 #
coedge $-1 $138 $135 $349 $350 reversed $85 $-1 #
coedge $-1 $135 $138 $351 $352 reversed $85 $-1 #
coedge $-1 $346 $345 $135 $226 reversed $133 $-1 #
edge $-1 $353 -16.693349331642185 $354 16.693349331642185 $225 $355 forward 7 unknown #
coedge $-1 $137 $136 $356 $357 reversed $54 $-1 #
coedge $-1 $349 $358 $136 $229 forward $342 $-1 #
edge $-1 $359 -21.743599795619254 $233 -8.599600822343449 $228 $360 forward 7 unknown #
coedge $-1 $361 $351 $137 $231 forward $220 $-1 #
edge $-1 $232 8.599600822343449 $362 21.743599795619254 $230 $363 forward 7 unknown #
vertex $-1 $231 $364 #
vertex $-1 $229 $365 #
straight-curve $-1 -26.87218748084878 -23.771201131324801 0 0 0 -1 I I #
face $-1 $-1 $247 $32 $-1 $366 forward single #
loop $-1 $-1 $367 $140 #
plane-surface $-1 54.156926175725573 0 0 -1 0 0 0 0 1 forward_v I I I I #
coedge $-1 $368 $369 $370 $371 reversed $141 $-1 #
coedge $-1 $372 $143 $145 $245 forward $89 $-1 #
coedge $-1 $143 $372 $368 $373 forward $89 $-1 #
coedge $-1 $370 $146 $143 $242 forward $247 $-1 #
edge $-1 $249 -2.8989210268146426 $374 11.085324570647442 $241 $375 forward 7 unknown #
coedge $-1 $376 $377 $144 $244 forward $236 $-1 #
edge $-1 $378 -70.498806608221585 $248 -65.403870843594902 $243 $379 forward 7 unknown #
edge $-1 $249 101.66288613757423 $378 108.31385235145119 $145 $380 forward 7 unknown #
coedge $-1 $146 $370 $376 $381 forward $247 $-1 #
loop $-1 $-1 $370 $235 #
vertex $-1 $244 $382 #
vertex $-1 $147 $383 #
straight-curve $-1 33.753675300330009 -1.1942807451017572 16.693349331642182 -1 0 0 I I #
coedge $-1 $251 $251 $-1 $384 reversed $150 $-1 #
edge $-1 $385 0 $385 6.2831853071796004 $151 $386 forward 7 unknown #
vertex $-1 $154 $387 #
ellipse-curve $-1 52.019346871204867 -8.1864035438327996 14.145881449328858 0.7660444514056185 0 0.64278759981090561 0.64278759981090561 0 -0.7660444514056185 1 I I #
face $-1 $-1 $267 $34 $-1 $388 forward single #
loop $-1 $-1 $389 $155 #
plane-surface $-1 54.156926175725573 0 0 -1 0 0 0 0 1 forward_v I I I I #
coedge $-1 $390 $391 $392 $393 reversed $156 $-1 #
coedge $-1 $394 $158 $160 $265 forward $98 $-1 #
coedge $-1 $158 $394 $390 $395 forward $98 $-1 #
coedge $-1 $392 $161 $158 $262 forward $267 $-1 #
edge $-1 $269 -18.070521335795995 $396 -4.0862757383339101 $261 $397 forward 7 unknown #
coedge $-1 $398 $399 $159 $264 forward $256 $-1 #
edge $-1 $400 -70.498806608221585 $268 -65.403870843594902 $263 $401 forward 7 unknown #
edge $-1 $269 101.66288613757423 $400 108.31385235145119 $160 $402 forward 7 unknown #
coedge $-1 $161 $392 $398 $403 forward $267 $-1 #
loop $-1 $-1 $392 $255 #
vertex $-1 $264 $404 #
vertex $-1 $162 $405 #
straight-curve $-1 33.753675300330009 29.148919872860947 16.693349331642182 -1 0 0 I I #
coedge $-1 $271 $271 $-1 $406 reversed $165 $-1 #
edge $-1 $407 0 $407 6.2831853071796004 $166 $408 forward 7 unknown #
vertex $-1 $169 $409 #
ellipse-curve $-1 52.019346871204867 22.156797074129905 14.145881449328858 0.7660444514056185 0 0.64278759981090561 0.64278759981090561 0 -0.7660444514056185 1 I I #
face $-1 $-1 $287 $36 $-1 $410 forward single #
loop $-1 $-1 $411 $170 #
plane-surface $-1 -54.156926175725573 0 0 1 0 0 0 0 -1 forward_v I I I I #
coedge $-1 $412 $413 $414 $415 reversed $171 $-1 #
coedge $-1 $416 $173 $175 $285 forward $107 $-1 #
coedge $-1 $173 $416 $412 $417 forward $107 $-1 #
coedge $-1 $414 $176 $173 $282 forward $287 $-1 #
edge $-1 $289 -11.085324570647442 $418 2.8989210268146426 $281 $419 forward 7 unknown #
coedge $-1 $420 $421 $174 $284 forward $276 $-1 #
edge $-1 $422 -29.012193806123292 $288 -23.91725804149662 $283 $423 forward 7 unknown #
edge $-1 $289 -6.650966213876953 $422 0 $175 $424 forward 7 unknown #
coedge $-1 $176 $414 $420 $425 forward $287 $-1 #
loop $-1 $-1 $414 $275 #
vertex $-1 $284 $426 #
vertex $-1 $177 $427 #
straight-curve $-1 -68.565075889961065 -15.178526342563842 16.693349331642189 1 0 0 I I #
coedge $-1 $291 $291 $-1 $428 reversed $180 $-1 #
edge $-1 $429 0 $429 6.2831853071796004 $181 $430 forward 7 unknown #
vertex $-1 $184 $431 #
ellipse-curve $-1 -52.019346871204874 -8.1864035438327996 14.145881449328852 -0.7660444514056185 0 0.64278759981090561 0.64278759981090561 0 0.7660444514056185 1 I I #
face $-1 $-1 $432 $38 $-1 $433 reversed single #
loop $-1 $-1 $191 $185 #
plane-surface $-1 0 0 16.693349331642185 0 0 1 1 0 0 forward_v I I I I #
coedge $-1 $434 $435 $436 $437 reversed $186 $-1 #
coedge $-1 $438 $188 $190 $305 forward $116 $-1 #
coedge $-1 $188 $438 $434 $439 forward $116 $-1 #
coedge $-1 $436 $191 $188 $302 forward $296 $-1 #
edge $-1 $308 4.0862757383339101 $440 18.070521335795995 $301 $441 forward 7 unknown #
coedge $-1 $442 $443 $189 $304 forward $432 $-1 #
edge $-1 $444 -29.012193806123292 $307 -23.91725804149662 $303 $445 forward 7 unknown #
edge $-1 $308 -6.650966213876953 $444 0 $190 $446 forward 7 unknown #
coedge $-1 $191 $436 $442 $447 forward $296 $-1 #
vertex $-1 $304 $448 #
vertex $-1 $192 $449 #
straight-curve $-1 -68.565075889961065 15.164674275398863 16.693349331642189 1 0 0 I I #
coedge $-1 $310 $310 $-1 $450 reversed $195 $-1 #
edge $-1 $451 0 $451 6.2831853071796004 $196 $452 forward 7 unknown #
vertex $-1 $199 $453 #
ellipse-curve $-1 -52.019346871204874 22.156797074129905 14.145881449328852 -0.7660444514056185 0 0.64278759981090561 0.64278759981090561 0 0.7660444514056185 1 I I #
face $-1 $-1 $215 $30 $-1 $454 reversed single #
loop $-1 $-1 $330 $200 #
plane-surface $-1 0 36.915200104600608 0 0 -1 0 0 0 -1 forward_v I I I I #
coedge $-1 $455 $328 $331 $456 forward $201 $-1 #
coedge $-1 $334 $203 $204 $322 reversed $125 $-1 #
coedge $-1 $328 $455 $203 $320 reversed $201 $-1 #
edge $-1 $335 -16.693349331642185 $457 16.693349331642185 $319 $458 forward 7 unknown #
coedge $-1 $205 $204 $455 $459 forward $81 $-1 #
edge $-1 $326 -54.156926175725573 $457 54.156926175725573 $318 $460 forward 7 unknown #
coedge $-1 $331 $330 $205 $324 reversed $315 $-1 #
edge $-1 $461 -54.156926175725573 $325 54.156926175725573 $323 $462 forward 7 unknown #
vertex $-1 $207 $463 #
vertex $-1 $337 $464 #
straight-curve $-1 54.156926175725573 0 -16.693349331642185 0 -1 0 I I #
coedge $-1 $317 $319 $208 $329 reversed $201 $-1 #
edge $-1 $332 -36.915200104600608 $335 36.915200104600608 $328 $465 forward 7 unknown #
coedge $-1 $323 $209 $214 $338 forward $315 $-1 #
coedge $-1 $209 $323 $317 $456 reversed $315 $-1 #
vertex $-1 $210 $466 #
straight-curve $-1 0 36.915200104600608 16.693349331642185 -1 0 0 I I #
coedge $-1 $211 $318 $213 $337 reversed $125 $-1 #
vertex $-1 $329 $467 #
straight-curve $-1 0 -36.915200104600608 16.693349331642185 1 0 0 I I #
edge $-1 $216 -16.693349331642185 $326 16.693349331642185 $213 $468 forward 7 unknown #
edge $-1 $217 -16.693349331642185 $325 16.693349331642185 $214 $469 forward 7 unknown #
point $-1 54.156926175725573 -36.915200104600608 16.693349331642185 #
point $-1 54.156926175725573 36.915200104600608 16.693349331642185 #
face $-1 $-1 $470 $31 $-1 $471 reversed single #
loop $-1 $-1 $472 $219 #
plane-surface $-1 0 0 -16.693349331642185 0 0 1 1 0 0 forward_v I I I I #
coedge $-1 $351 $361 $346 $473 forward $220 $-1 #
coedge $-1 $225 $222 $472 $474 reversed $133 $-1 #
coedge $-1 $222 $225 $344 $473 reversed $133 $-1 #
coedge $-1 $475 $476 $222 $348 forward $470 $-1 #
edge $-1 $477 -16.693349331642185 $478 16.693349331642185 $347 $479 forward 7 unknown #
coedge $-1 $472 $228 $223 $350 forward $342 $-1 #
edge $-1 $233 -14.961583732526284 $354 -8.859623764118707 $349 $480 forward 7 unknown #
coedge $-1 $230 $344 $224 $352 forward $220 $-1 #
edge $-1 $353 8.859623764118707 $232 14.961583732526284 $351 $481 forward 7 unknown #
vertex $-1 $352 $482 #
vertex $-1 $350 $483 #
straight-curve $-1 -20.770227512441203 -23.771201131324801 0 0 0 -1 I I #
coedge $-1 $476 $475 $227 $357 forward $470 $-1 #
edge $-1 $362 -16.693349331642185 $359 16.693349331642185 $356 $484 forward 7 unknown #
coedge $-1 $228 $472 $476 $485 forward $342 $-1 #
vertex $-1 $229 $486 #
straight-curve $-1 -26.87218748084878 -15.171600308981352 -16.693349331642185 0 1 0 I I #
coedge $-1 $344 $230 $475 $487 forward $220 $-1 #
vertex $-1 $487 $488 #
straight-curve $-1 -26.87218748084878 -15.171600308981352 16.693349331642185 0 -1 0 I I #
point $-1 -26.87218748084878 -23.771201131324801 16.693349331642185 #
point $-1 -26.87218748084878 -23.771201131324801 -16.693349331642185 #
plane-surface $-1 0 0 16.693349331642185 0 0 1 1 0 0 forward_v I I I I #
coedge $-1 $377 $376 $369 $489 forward $236 $-1 #
coedge $-1 $369 $238 $240 $373 reversed $141 $-1 #
coedge $-1 $238 $368 $367 $489 reversed $141 $-1 #
coedge $-1 $246 $241 $238 $371 forward $247 $-1 #
edge $-1 $374 16.128092266354166 $490 20.403250875395564 $370 $491 forward 7 unknown #
coedge $-1 $240 $239 $377 $492 reversed $89 $-1 #
edge $-1 $493 -108.31385235145119 $374 -101.66288613757423 $368 $494 forward 7 unknown #
vertex $-1 $242 $495 #
straight-curve $-1 49.881767566684175 -4.0932017719163998 16.693349331642175 0 -1 0 I I #
coedge $-1 $367 $243 $246 $381 reversed $236 $-1 #
coedge $-1 $243 $367 $372 $492 forward $236 $-1 #
vertex $-1 $244 $496 #
straight-curve $-1 54.156926175725573 -1.1942807451017572 82.097220175237084 0 0 1 I I #
straight-curve $-1 -15.465875003536539 -1.1942807451017572 94.57163917121207 0.64278759981090561 0 -0.7660444514056185 I I #
edge $-1 $490 -15.178526342563842 $248 -1.1942807451017572 $376 $497 forward 7 unknown #
point $-1 54.156926175725573 -1.1942807451017572 16.693349331642185 #
point $-1 49.881767566684175 -1.1942807451017572 16.693349331642182 #
edge $-1 $498 1 $498 0 $251 $-1 forward 7 unknown #
vertex $-1 $252 $499 #
ellipse-curve $-1 50.742294405064179 -8.1864035438327996 13.074307224051266 0.7660444514056185 0 0.64278759981090561 0.64278759981090561 0 -0.7660444514056185 1 I I #
point $-1 52.662134471015776 -8.1864035438327996 13.379836997923235 #
plane-surface $-1 0 0 16.693349331642185 0 0 1 1 0 0 forward_v I I I I #
coedge $-1 $399 $398 $391 $500 forward $256 $-1 #
coedge $-1 $391 $258 $260 $395 reversed $156 $-1 #
coedge $-1 $258 $390 $389 $500 reversed $156 $-1 #
coedge $-1 $266 $261 $258 $393 forward $267 $-1 #
edge $-1 $396 16.128092266354166 $501 20.403250875395564 $392 $502 forward 7 unknown #
coedge $-1 $260 $259 $399 $503 reversed $98 $-1 #
edge $-1 $504 -108.31385235145119 $396 -101.66288613757423 $390 $505 forward 7 unknown #
vertex $-1 $262 $506 #
straight-curve $-1 49.881767566684175 11.078398537064952 16.693349331642175 0 -1 0 I I #
coedge $-1 $389 $263 $266 $403 reversed $256 $-1 #
coedge $-1 $263 $389 $394 $503 forward $256 $-1 #
vertex $-1 $264 $507 #
straight-curve $-1 54.156926175725573 29.148919872860947 82.097220175237084 0 0 1 I I #
straight-curve $-1 -15.465875003536539 29.148919872860947 94.57163917121207 0.64278759981090561 0 -0.7660444514056185 I I #
edge $-1 $501 15.164674275398863 $268 29.148919872860947 $398 $508 forward 7 unknown #
point $-1 54.156926175725573 29.148919872860947 16.693349331642185 #
point $-1 49.881767566684175 29.148919872860947 16.693349331642182 #
edge $-1 $509 1 $509 0 $271 $-1 forward 7 unknown #
vertex $-1 $272 $510 #
ellipse-curve $-1 50.742294405064179 22.156797074129905 13.074307224051266 0.7660444514056185 0 0.64278759981090561 0.64278759981090561 0 -0.7660444514056185 1 I I #
point $-1 52.662134471015776 22.156797074129905 13.379836997923235 #
plane-surface $-1 0 0 16.693349331642185 0 0 1 1 0 0 forward_v I I I I #
coedge $-1 $421 $420 $413 $511 forward $276 $-1 #
coedge $-1 $413 $278 $280 $417 reversed $171 $-1 #
coedge $-1 $278 $412 $411 $511 reversed $171 $-1 #
coedge $-1 $286 $281 $278 $415 forward $287 $-1 #
edge $-1 $418 -18.683308323276883 $512 -14.408149714235492 $414 $513 forward 7 unknown #
coedge $-1 $280 $279 $421 $514 reversed $107 $-1 #
edge $-1 $515 0 $418 6.650966213876953 $412 $516 forward 7 unknown #
vertex $-1 $282 $517 #
straight-curve $-1 -49.881767566684175 -4.0932017719163998 16.693349331642185 0 1 0 I I #
coedge $-1 $411 $283 $286 $425 reversed $276 $-1 #
coedge $-1 $283 $411 $416 $514 forward $276 $-1 #
vertex $-1 $284 $518 #
straight-curve $-1 -54.156926175725573 -15.178526342563842 40.610607373138805 0 0 1 I I #
straight-curve $-1 -54.156926175725573 -15.178526342563842 11.598413567015513 -0.64278759981090561 0 -0.7660444514056185 I I #
edge $-1 $512 1.1942807451017572 $288 15.178526342563842 $420 $519 forward 7 unknown #
point $-1 -54.156926175725573 -15.178526342563842 16.693349331642185 #
point $-1 -49.881767566684182 -15.178526342563842 16.693349331642185 #
edge $-1 $520 1 $520 0 $291 $-1 forward 7 unknown #
vertex $-1 $292 $521 #
ellipse-curve $-1 -50.742294405064186 -8.1864035438327996 13.074307224051262 -0.7660444514056185 0 0.64278759981090561 0.64278759981090561 0 0.7660444514056185 1 I I #
point $-1 -51.376559271393965 -8.1864035438327996 14.911925900734468 #
loop $-1 $-1 $303 $295 #
plane-surface $-1 -54.156926175725573 0 0 1 0 0 0 0 -1 forward_v I I I I #
coedge $-1 $435 $298 $300 $439 reversed $186 $-1 #
coedge $-1 $298 $434 $522 $523 reversed $186 $-1 #
coedge $-1 $306 $301 $298 $437 forward $296 $-1 #
edge $-1 $440 -18.683308323276883 $524 -14.408149714235492 $436 $525 forward 7 unknown #
coedge $-1 $300 $299 $443 $526 reversed $116 $-1 #
edge $-1 $527 0 $440 6.650966213876953 $434 $528 forward 7 unknown #
vertex $-1 $302 $529 #
straight-curve $-1 -49.881767566684175 11.078398537064952 16.693349331642185 0 1 0 I I #
coedge $-1 $522 $303 $306 $447 reversed $432 $-1 #
coedge $-1 $303 $522 $438 $526 forward $432 $-1 #
vertex $-1 $304 $530 #
straight-curve $-1 -54.156926175725573 15.164674275398863 40.610607373138805 0 0 1 I I #
straight-curve $-1 -54.156926175725573 15.164674275398863 11.598413567015513 -0.64278759981090561 0 -0.7660444514056185 I I #
edge $-1 $524 -29.148919872860947 $307 -15.164674275398863 $442 $531 forward 7 unknown #
point $-1 -54.156926175725573 15.164674275398863 16.693349331642185 #
point $-1 -49.881767566684182 15.164674275398863 16.693349331642185 #
edge $-1 $532 1 $532 0 $310 $-1 forward 7 unknown #
vertex $-1 $311 $533 #
ellipse-curve $-1 -50.742294405064186 22.156797074129905 13.074307224051262 -0.7660444514056185 0 0.64278759981090561 0.64278759981090561 0 0.7660444514056185 1 I I #
point $-1 -51.376559271393965 22.156797074129905 14.911925900734468 #
plane-surface $-1 54.156926175725573 0 0 -1 0 0 0 0 1 forward_v I I I I #
coedge $-1 $319 $317 $321 $459 reversed $201 $-1 #
edge $-1 $332 -16.693349331642185 $461 16.693349331642185 $331 $534 forward 7 unknown #
vertex $-1 $459 $535 #
straight-curve $-1 -54.156926175725573 -36.915200104600608 0 0 0 -1 I I #
edge $-1 $457 -36.915200104600608 $461 36.915200104600608 $455 $536 forward 7 unknown #
straight-curve $-1 0 -36.915200104600608 -16.693349331642185 -1 0 0 I I #
vertex $-1 $324 $537 #
straight-curve $-1 0 36.915200104600608 -16.693349331642185 1 0 0 I I #
point $-1 54.156926175725573 36.915200104600608 -16.693349331642185 #
point $-1 54.156926175725573 -36.915200104600608 -16.693349331642185 #
straight-curve $-1 -54.156926175725573 0 16.693349331642185 0 -1 0 I I #
point $-1 -54.156926175725573 36.915200104600608 16.693349331642185 #
point $-1 -54.156926175725573 -36.915200104600608 16.693349331642185 #
straight-curve $-1 54.156926175725573 -36.915200104600608 0 0 0 -1 I I #
straight-curve $-1 54.156926175725573 36.915200104600608 0 0 0 -1 I I #
loop $-1 $-1 $347 $341 #
plane-surface $-1 0 -36.915200104600608 0 0 1 0 0 0 1 forward_v I I I I #
coedge $-1 $358 $349 $345 $474 forward $342 $-1 #
edge $-1 $478 -21.743599795619254 $353 -8.599600822343449 $344 $538 forward 7 unknown #
edge $-1 $354 8.599600822343449 $477 21.743599795619254 $472 $539 forward 7 unknown #
coedge $-1 $356 $347 $361 $487 reversed $470 $-1 #
coedge $-1 $347 $356 $358 $485 reversed $470 $-1 #
vertex $-1 $485 $540 #
vertex $-1 $348 $541 #
straight-curve $-1 -20.770227512441203 -36.915200104600608 0 0 0 1 I I #
straight-curve $-1 -11.910603748322496 -23.771201131324801 -16.693349331642185 1 0 0 I I #
straight-curve $-1 -11.910603748322496 -23.771201131324801 16.693349331642185 -1 0 0 I I #
point $-1 -20.770227512441203 -23.771201131324801 16.693349331642185 #
point $-1 -20.770227512441203 -23.771201131324801 -16.693349331642185 #
straight-curve $-1 -26.87218748084878 -36.915200104600608 0 0 0 -1 I I #
edge $-1 $477 20.770227512441203 $359 26.87218748084878 $476 $542 forward 7 unknown #
point $-1 -26.87218748084878 -36.915200104600608 -16.693349331642185 #
edge $-1 $362 -26.87218748084878 $478 -20.770227512441203 $475 $543 forward 7 unknown #
point $-1 -26.87218748084878 -36.915200104600608 16.693349331642185 #
edge $-1 $490 65.403870843594902 $493 70.498806608221585 $367 $544 forward 7 unknown #
vertex $-1 $381 $545 #
straight-curve $-1 33.753675300330009 -15.178526342563842 16.693349331642182 1 0 0 I I #
edge $-1 $493 -11.085324570647442 $378 2.8989210268146426 $377 $546 forward 7 unknown #
vertex $-1 $492 $547 #
straight-curve $-1 -15.465875003536539 -15.178526342563842 94.57163917121207 -0.64278759981090561 0 0.7660444514056185 I I #
point $-1 49.881767566684175 -15.178526342563842 16.693349331642182 #
point $-1 54.156926175725573 -1.1942807451017572 11.598413567015498 #
straight-curve $-1 54.156926175725573 0 16.693349331642185 0 1 0 I I #
vertex $-1 $384 $548 #
point $-1 51.385082004875088 -8.1864035438327996 12.308262772645648 #
edge $-1 $501 65.403870843594902 $504 70.498806608221585 $389 $549 forward 7 unknown #
vertex $-1 $403 $550 #
straight-curve $-1 33.753675300330009 15.164674275398863 16.693349331642182 1 0 0 I I #
edge $-1 $504 4.0862757383339101 $400 18.070521335795995 $399 $551 forward 7 unknown #
vertex $-1 $503 $552 #
straight-curve $-1 -15.465875003536539 15.164674275398863 94.57163917121207 -0.64278759981090561 0 0.7660444514056185 I I #
point $-1 49.881767566684175 15.164674275398863 16.693349331642182 #
point $-1 54.156926175725573 29.148919872860947 11.598413567015498 #
straight-curve $-1 54.156926175725573 0 16.693349331642185 0 1 0 I I #
vertex $-1 $406 $553 #
point $-1 51.385082004875088 22.156797074129905 12.308262772645648 #
edge $-1 $512 23.91725804149662 $515 29.012193806123292 $411 $554 forward 7 unknown #
vertex $-1 $425 $555 #
straight-curve $-1 -68.565075889961065 -1.1942807451017572 16.693349331642189 -1 0 0 I I #
edge $-1 $515 -2.8989210268146426 $422 11.085324570647442 $421 $556 forward 7 unknown #
vertex $-1 $514 $557 #
straight-curve $-1 -54.156926175725573 -1.1942807451017572 11.598413567015513 0.64278759981090561 0 0.7660444514056185 I I #
point $-1 -49.881767566684182 -1.1942807451017572 16.693349331642185 #
point $-1 -54.156926175725573 -15.178526342563842 11.598413567015513 #
straight-curve $-1 -54.156926175725573 0 16.693349331642185 0 -1 0 I I #
vertex $-1 $428 $558 #
point $-1 -50.099506805253277 -8.1864035438327996 13.84035167545688 #
coedge $-1 $443 $442 $435 $523 forward $432 $-1 #
edge $-1 $524 23.91725804149662 $527 29.012193806123292 $522 $559 forward 7 unknown #
vertex $-1 $447 $560 #
straight-curve $-1 -68.565075889961065 29.148919872860947 16.693349331642189 -1 0 0 I I #
edge $-1 $527 -18.070521335795995 $444 -4.0862757383339101 $443 $561 forward 7 unknown #
vertex $-1 $526 $562 #
straight-curve $-1 -54.156926175725573 29.148919872860947 11.598413567015513 0.64278759981090561 0 0.7660444514056185 I I #
point $-1 -49.881767566684182 29.148919872860947 16.693349331642185 #
point $-1 -54.156926175725573 15.164674275398863 11.598413567015513 #
straight-curve $-1 -54.156926175725573 0 16.693349331642185 0 -1 0 I I #
vertex $-1 $450 $563 #
point $-1 -50.099506805253277 22.156797074129905 13.84035167545688 #
straight-curve $-1 -54.156926175725573 36.915200104600608 0 0 0 -1 I I #
point $-1 -54.156926175725573 -36.915200104600608 -16.693349331642185 #
straight-curve $-1 -54.156926175725573 0 -16.693349331642185 0 1 0 I I #
point $-1 -54.156926175725573 36.915200104600608 -16.693349331642185 #
straight-curve $-1 -20.770227512441203 -15.171600308981352 16.693349331642185 0 1 0 I I #
straight-curve $-1 -20.770227512441203 -15.171600308981352 -16.693349331642185 0 -1 0 I I #
point $-1 -20.770227512441203 -36.915200104600608 -16.693349331642185 #
point $-1 -20.770227512441203 -36.915200104600608 16.693349331642185 #
straight-curve $-1 0 -36.915200104600608 -16.693349331642185 -1 0 0 I I #
straight-curve $-1 0 -36.915200104600608 16.693349331642185 1 0 0 I I #
straight-curve $-1 54.156926175725573 -15.178526342563842 82.097220175237084 0 0 -1 I I #
point $-1 54.156926175725573 -15.178526342563842 16.693349331642185 #
straight-curve $-1 54.156926175725573 -4.0932017719163998 11.598413567015506 0 1 0 I I #
point $-1 54.156926175725573 -15.178526342563842 11.598413567015498 #
point $-1 49.976249953658559 -8.1864035438327996 12.43151962424036 #
straight-curve $-1 54.156926175725573 15.164674275398863 82.097220175237084 0 0 -1 I I #
point $-1 54.156926175725573 15.164674275398863 16.693349331642185 #
straight-curve $-1 54.156926175725573 11.078398537064952 11.598413567015506 0 1 0 I I #
point $-1 54.156926175725573 15.164674275398863 11.598413567015498 #
point $-1 49.976249953658559 22.156797074129905 12.43151962424036 #
straight-curve $-1 -54.156926175725573 -1.1942807451017572 40.610607373138805 0 0 -1 I I #
point $-1 -54.156926175725573 -1.1942807451017572 16.693349331642185 #
straight-curve $-1 -54.156926175725573 -4.0932017719163998 11.598413567015513 0 -1 0 I I #
point $-1 -54.156926175725573 -1.1942807451017572 11.598413567015513 #
point $-1 -49.976249953658566 -8.1864035438327996 12.431519624240357 #
straight-curve $-1 -54.156926175725573 29.148919872860947 40.610607373138805 0 0 -1 I I #
point $-1 -54.156926175725573 29.148919872860947 16.693349331642185 #
straight-curve $-1 -54.156926175725573 11.078398537064952 11.598413567015513 0 -1 0 I I #
point $-1 -54.156926175725573 29.148919872860947 11.598413567015513 #
point $-1 -49.976249953658566 22.156797074129905 12.431519624240357 #
End-of-ACIS-data 