500 0 8 0           
7 Unknown 11 ACIS 5.0 NT 24 Fri Mar 26 18:45:52 1999 
-1 9.9999999999999995e-007 1e-010 
body $-1 $8 $-1 $9 #
body $-1 $10 $-1 $11 #
body $-1 $12 $-1 $13 #
body $-1 $14 $-1 $15 #
body $-1 $16 $-1 $17 #
body $-1 $18 $-1 $19 #
body $-1 $20 $-1 $21 #
body $-1 $22 $-1 $23 #
lump $-1 $-1 $24 $0 #
transform $-1 1 0 0 0 1 0 0 0 1 74.105044709616379 49.353005391739636 16.265691431226962 1 rotate no_reflect no_shear #
lump $-1 $-1 $25 $1 #
transform $-1 1 0 0 0 1 0 0 0 1 74.105044709616379 49.353005391739636 16.265691431226962 1 rotate no_reflect no_shear #
lump $-1 $-1 $26 $2 #
transform $-1 1 0 0 0 1 0 0 0 1 74.105044709616379 49.353005391739636 16.265691431226962 1 rotate no_reflect no_shear #
lump $-1 $-1 $27 $3 #
transform $-1 1 0 0 0 1 0 0 0 1 74.105044709616379 49.353005391739636 16.265691431226962 1 rotate no_reflect no_shear #
lump $-1 $-1 $28 $4 #
transform $-1 1 0 0 0 1 0 0 0 1 74.105044709616379 49.353005391739636 16.265691431226962 1 rotate no_reflect no_shear #
lump $-1 $-1 $29 $5 #
transform $-1 1 0 0 0 1 0 0 0 1 74.105044709616379 49.353005391739636 16.265691431226962 1 rotate no_reflect no_shear #
lump $-1 $-1 $30 $6 #
transform $-1 1 0 0 0 1 0 0 0 1 74.105044709616379 49.353005391739636 16.265691431226962 1 rotate no_reflect no_shear #
lump $-1 $-1 $31 $7 #
transform $-1 1 0 0 0 1 0 0 0 1 74.105044709616379 49.353005391739636 16.265691431226962 1 rotate no_reflect no_shear #
shell $-1 $-1 $-1 $32 $-1 $8 #
shell $-1 $-1 $-1 $33 $-1 $10 #
shell $-1 $-1 $-1 $34 $-1 $12 #
shell $-1 $-1 $-1 $35 $-1 $14 #
shell $-1 $-1 $-1 $36 $-1 $16 #
shell $-1 $-1 $-1 $37 $-1 $18 #
shell $-1 $-1 $-1 $38 $-1 $20 #
shell $-1 $-1 $-1 $39 $-1 $22 #
face $-1 $40 $41 $24 $-1 $42 forward single #
face $-1 $43 $44 $25 $-1 $45 reversed single #
face $-1 $46 $47 $26 $-1 $48 forward single #
face $-1 $49 $50 $27 $-1 $51 forward single #
face $-1 $52 $53 $28 $-1 $54 reversed single #
face $-1 $55 $56 $29 $-1 $57 forward single #
face $-1 $58 $59 $30 $-1 $60 reversed single #
face $-1 $61 $62 $31 $-1 $63 forward single #
face $-1 $64 $65 $24 $-1 $66 reversed single #
loop $-1 $-1 $67 $32 #
plane-surface $-1 0 0 16.265691431226962 0 0 1 1 0 0 forward_v I I I I #
face $-1 $68 $69 $25 $-1 $70 reversed single #
loop $-1 $-1 $71 $33 #
plane-surface $-1 -39.703315009129341 119.89330119984263 170.4067173754033 -1 0 0 0 0.83867057594974714 0.54463902268945019 forward_v I I I I #
face $-1 $72 $73 $26 $-1 $74 forward single #
loop $-1 $75 $76 $34 #
cone-surface $-1 -64.275979080905799 45.646758154495508 11.152003504709963 0 -0.83867057594974714 -0.54463902268945019 1.5 0 0 1 I I 0 1 1.5 forward I I I I #
face $-1 $77 $78 $27 $-1 $79 forward single #
loop $-1 $80 $81 $35 #
cone-surface $-1 -49.532380637839928 45.646758154495508 11.152003504709963 0 -0.83867057594974714 -0.54463902268945019 1.5 0 0 1 I I 0 1 1.5 forward I I I I #
face $-1 $82 $83 $28 $-1 $84 reversed single #
loop $-1 $-1 $85 $36 #
plane-surface $-1 -46.213938584984433 -150.43204452212419 113.08093476736559 -1 0 0 0 -0.68199836817093118 0.7313536940579346 forward_v I I I I #
face $-1 $86 $87 $29 $-1 $88 forward single #
loop $-1 $89 $90 $37 #
cone-surface $-1 -60.159491647300406 -39.610046176722811 6.6859064822538112 0 0.68199836817093118 -0.7313536940579346 3 0 0 1 I I 0 1 3 forward I I I I #
face $-1 $91 $92 $30 $-1 $93 reversed single #
loop $-1 $-1 $94 $38 #
plane-surface $-1 60.159491647300399 -49.353005391739657 4.6869383739529127 0 -0.68199836817093118 0.7313536940579346 1 0 0 forward_v I I I I #
face $-1 $95 $96 $31 $-1 $97 forward single #
loop $-1 $98 $99 $39 #
cone-surface $-1 60.159491647300399 -39.610046176722811 6.6859064822538112 0 0.68199836817093118 -0.7313536940579346 3 0 0 1 I I 0 1 3 forward I I I I #
face $-1 $100 $101 $24 $-1 $102 reversed single #
loop $-1 $-1 $103 $40 #
plane-surface $-1 0 0 -16.265691431226962 0 0 1 1 0 0 forward_v I I I I #
coedge $-1 $104 $105 $106 $107 forward $41 $-1 #
face $-1 $108 $109 $25 $-1 $110 reversed single #
loop $-1 $-1 $111 $43 #
plane-surface $-1 -56.90417985937286 -4.4061398549488331 89.685719121396346 0 0.83867057594974714 0.54463902268945019 1 0 0 forward_v I I I I #
coedge $-1 $112 $113 $114 $115 reversed $44 $-1 #
face $-1 $-1 $116 $26 $-1 $117 forward single #
loop $-1 $118 $119 $46 #
cone-surface $-1 -64.275979080905799 44.351319638288821 10.310735922832428 0 -0.83867057594974714 -0.54463902268945019 0.75 0 0 1 I I -0.70710678118654757 0.70710678118654757 0.75 forward I I I I #
loop $-1 $-1 $120 $34 #
coedge $-1 $76 $76 $121 $122 reversed $47 $-1 #
face $-1 $-1 $123 $27 $-1 $124 forward single #
loop $-1 $125 $126 $49 #
cone-surface $-1 -49.532380637839928 44.351319638288821 10.310735922832428 0 -0.83867057594974714 -0.54463902268945019 0.75 0 0 1 I I -0.70710678118654757 0.70710678118654757 0.75 forward I I I I #
loop $-1 $-1 $127 $35 #
coedge $-1 $81 $81 $128 $129 reversed $50 $-1 #
face $-1 $130 $131 $28 $-1 $132 reversed single #
loop $-1 $-1 $133 $52 #
plane-surface $-1 -60.159491647300406 -49.353005391739657 4.6869383739529127 0 -0.68199836817093118 0.7313536940579346 1 0 0 forward_v I I I I #
coedge $-1 $134 $135 $136 $137 reversed $53 $-1 #
face $-1 $-1 $138 $29 $-1 $139 forward single #
loop $-1 $140 $141 $55 #
cone-surface $-1 -60.159491647300406 -35.052435511312694 1.7984675208307905 0 0.68199836817093118 -0.7313536940579346 1.5 0 0 1 I I -0.70710678118654757 0.70710678118654757 1.5 forward I I I I #
loop $-1 $-1 $142 $37 #
coedge $-1 $90 $90 $143 $144 reversed $56 $-1 #
face $-1 $145 $146 $30 $-1 $147 reversed single #
loop $-1 $-1 $148 $58 #
plane-surface $-1 46.213938584984426 -150.43204452212419 113.08093476736559 1 0 0 0 0.68199836817093118 -0.7313536940579346 forward_v I I I I #
coedge $-1 $149 $150 $151 $152 reversed $59 $-1 #
face $-1 $-1 $153 $31 $-1 $154 forward single #
loop $-1 $155 $156 $61 #
cone-surface $-1 60.159491647300399 -35.052435511312694 1.7984675208307905 0 0.68199836817093118 -0.7313536940579346 1.5 0 0 1 I I -0.70710678118654757 0.70710678118654757 1.5 forward I I I I #
loop $-1 $-1 $157 $39 #
coedge $-1 $99 $99 $158 $159 reversed $62 $-1 #
face $-1 $160 $161 $24 $-1 $162 reversed single #
loop $-1 $-1 $163 $64 #
plane-surface $-1 0 -49.353005391739636 0 0 1 0 0 0 1 forward_v I I I I #
coedge $-1 $164 $165 $166 $167 forward $65 $-1 #
coedge $-1 $168 $67 $169 $170 forward $41 $-1 #
coedge $-1 $67 $168 $171 $172 forward $41 $-1 #
coedge $-1 $173 $174 $67 $107 reversed $175 $-1 #
edge $-1 $176 -49.353005391739636 $177 49.353005391739636 $106 $178 forward 7 unknown #
face $-1 $179 $180 $25 $-1 $181 forward single #
loop $-1 $-1 $114 $68 #
plane-surface $-1 0 49.353005391739636 0 0 -1 0 0 0 -1 forward_v I I I I #
coedge $-1 $182 $183 $184 $185 reversed $69 $-1 #
coedge $-1 $113 $71 $186 $187 reversed $44 $-1 #
coedge $-1 $71 $112 $182 $188 reversed $44 $-1 #
coedge $-1 $184 $189 $71 $115 forward $109 $-1 #
edge $-1 $190 68.937667256474697 $191 78.299466479787796 $114 $192 forward 7 unknown #
loop $-1 $-1 $121 $72 #
plane-surface $-1 -56.90417985937286 -4.4061398549488331 89.685719121396346 0 0.83867057594974714 0.54463902268945019 1 0 0 forward_v I I I I #
loop $-1 $-1 $193 $46 #
coedge $-1 $119 $119 $120 $194 reversed $73 $-1 #
coedge $-1 $120 $120 $119 $194 forward $75 $-1 #
coedge $-1 $121 $121 $76 $122 forward $116 $-1 #
edge $-1 $195 2.5799286745564613e-015 $195 6.2831853071796031 $121 $196 forward 7 unknown #
loop $-1 $-1 $128 $77 #
plane-surface $-1 -56.90417985937286 -4.4061398549488331 89.685719121396346 0 0.83867057594974714 0.54463902268945019 1 0 0 forward_v I I I I #
loop $-1 $-1 $197 $49 #
coedge $-1 $126 $126 $127 $198 reversed $78 $-1 #
coedge $-1 $127 $127 $126 $198 forward $80 $-1 #
coedge $-1 $128 $128 $81 $129 forward $123 $-1 #
edge $-1 $199 2.5799286745564613e-015 $199 6.2831853071796031 $128 $200 forward 7 unknown #
face $-1 $201 $202 $28 $-1 $203 forward single #
loop $-1 $-1 $204 $82 #
plane-surface $-1 -74.105044709616379 0 0 1 0 0 0 0 -1 forward_v I I I I #
coedge $-1 $205 $206 $207 $208 reversed $83 $-1 #
coedge $-1 $135 $85 $209 $210 reversed $53 $-1 #
coedge $-1 $85 $134 $205 $211 reversed $53 $-1 #
coedge $-1 $207 $212 $85 $137 forward $202 $-1 #
edge $-1 $213 25.863016869322458 $214 38.279709073048622 $136 $215 forward 7 unknown #
loop $-1 $-1 $143 $86 #
plane-surface $-1 -60.159491647300406 -49.353005391739657 4.6869383739529127 0 -0.68199836817093118 0.7313536940579346 1 0 0 forward_v I I I I #
loop $-1 $-1 $216 $55 #
coedge $-1 $141 $141 $142 $217 reversed $87 $-1 #
coedge $-1 $142 $142 $141 $217 forward $89 $-1 #
coedge $-1 $143 $143 $90 $144 forward $138 $-1 #
edge $-1 $218 3.5069068280082758e-016 $218 6.2831853071796004 $143 $219 forward 7 unknown #
face $-1 $220 $221 $30 $-1 $222 reversed single #
loop $-1 $-1 $223 $91 #
plane-surface $-1 0 -49.353005391739636 0 0 1 0 0 0 1 forward_v I I I I #
coedge $-1 $224 $225 $226 $227 reversed $92 $-1 #
coedge $-1 $228 $94 $229 $230 reversed $59 $-1 #
coedge $-1 $94 $228 $224 $231 forward $59 $-1 #
coedge $-1 $226 $232 $94 $152 forward $233 $-1 #
edge $-1 $234 -44.025298885966166 $235 -16.134192761334226 $151 $236 forward 7 unknown #
loop $-1 $-1 $158 $95 #
plane-surface $-1 60.159491647300399 -49.353005391739657 4.6869383739529127 0 -0.68199836817093118 0.7313536940579346 1 0 0 forward_v I I I I #
loop $-1 $-1 $237 $61 #
coedge $-1 $156 $156 $157 $238 reversed $96 $-1 #
coedge $-1 $157 $157 $156 $238 forward $98 $-1 #
coedge $-1 $158 $158 $99 $159 forward $153 $-1 #
edge $-1 $239 3.5069068280082758e-016 $239 6.2831853071796004 $158 $240 forward 7 unknown #
face $-1 $241 $242 $24 $-1 $243 reversed single #
loop $-1 $-1 $244 $100 #
plane-surface $-1 -74.105044709616379 0 0 1 0 0 0 0 -1 forward_v I I I I #
coedge $-1 $245 $171 $246 $247 forward $101 $-1 #
coedge $-1 $248 $103 $245 $249 forward $65 $-1 #
coedge $-1 $103 $248 $250 $251 forward $65 $-1 #
coedge $-1 $174 $173 $103 $167 reversed $175 $-1 #
edge $-1 $252 -49.353005391739636 $253 49.353005391739636 $166 $254 forward 7 unknown #
coedge $-1 $105 $104 $255 $256 forward $41 $-1 #
coedge $-1 $257 $258 $104 $170 reversed $242 $-1 #
edge $-1 $177 -74.105044709616379 $259 74.105044709616379 $169 $260 forward 7 unknown #
coedge $-1 $163 $261 $105 $172 reversed $101 $-1 #
edge $-1 $262 -74.105044709616379 $176 74.105044709616379 $171 $263 forward 7 unknown #
coedge $-1 $166 $106 $261 $264 forward $175 $-1 #
coedge $-1 $106 $166 $257 $265 reversed $175 $-1 #
loop $-1 $-1 $173 $241 #
vertex $-1 $107 $266 #
vertex $-1 $107 $267 #
straight-curve $-1 74.105044709616379 0 16.265691431226962 0 1 0 I I #
face $-1 $-1 $268 $25 $-1 $269 reversed single #
loop $-1 $-1 $186 $108 #
plane-surface $-1 0 0 16.265691431226962 0 0 1 1 0 0 forward_v I I I I #
coedge $-1 $270 $111 $113 $188 forward $69 $-1 #
coedge $-1 $111 $270 $271 $272 reversed $69 $-1 #
coedge $-1 $273 $114 $111 $185 forward $109 $-1 #
edge $-1 $191 11.251225079442911 $274 45.652954779929949 $184 $275 forward 7 unknown #
coedge $-1 $276 $277 $112 $187 forward $180 $-1 #
edge $-1 $278 -16.673268514181181 $190 -10.593645208181677 $186 $279 forward 7 unknown #
edge $-1 $191 -98.706010783479243 $278 -87.543345141237779 $113 $280 forward 7 unknown #
coedge $-1 $114 $273 $276 $281 reversed $109 $-1 #
vertex $-1 $281 $282 #
vertex $-1 $115 $283 #
straight-curve $-1 -39.703315009129341 49.353005391739636 85.203358687701652 0 0 -1 I I #
coedge $-1 $193 $193 $-1 $284 reversed $118 $-1 #
edge $-1 $285 0 $285 6.2831853071796004 $119 $286 forward 7 unknown #
vertex $-1 $122 $287 #
ellipse-curve $-1 -64.275979080905799 46.313193738739884 11.584791819570409 0 0.83867057594974714 0.54463902268945019 1.5 0 0 1 I I #
coedge $-1 $197 $197 $-1 $288 reversed $125 $-1 #
edge $-1 $289 0 $289 6.2831853071796004 $126 $290 forward 7 unknown #
vertex $-1 $129 $291 #
ellipse-curve $-1 -49.532380637839928 46.313193738739884 11.584791819570409 0 0.83867057594974714 0.54463902268945019 1.5 0 0 1 I I #
face $-1 $-1 $292 $28 $-1 $293 reversed single #
loop $-1 $-1 $207 $130 #
plane-surface $-1 0 0 16.265691431226962 0 0 1 1 0 0 forward_v I I I I #
coedge $-1 $294 $295 $206 $296 forward $131 $-1 #
coedge $-1 $297 $133 $135 $211 forward $83 $-1 #
coedge $-1 $133 $297 $204 $296 reversed $83 $-1 #
coedge $-1 $298 $136 $133 $208 forward $202 $-1 #
edge $-1 $214 16.13419276133423 $299 44.02529888596618 $207 $300 forward 7 unknown #
coedge $-1 $301 $302 $134 $210 forward $292 $-1 #
edge $-1 $303 -51.853529009729861 $213 -40.274775952455833 $209 $304 forward 7 unknown #
edge $-1 $214 -16.977684401690585 $303 -2.8915938760888084e-014 $135 $305 forward 7 unknown #
coedge $-1 $136 $298 $301 $306 forward $202 $-1 #
vertex $-1 $210 $307 #
vertex $-1 $137 $308 #
straight-curve $-1 -46.213938584984433 -75.216022261062093 16.265691431226962 0 1 0 I I #
coedge $-1 $216 $216 $-1 $309 reversed $140 $-1 #
edge $-1 $310 0 $310 6.2831853071796004 $141 $311 forward 7 unknown #
vertex $-1 $144 $312 #
ellipse-curve $-1 -60.159491647300406 -43.14465928987655 10.476314902589952 0 -0.68199836817093118 0.7313536940579346 3 0 0 1 I I #
face $-1 $-1 $233 $30 $-1 $313 forward single #
loop $-1 $-1 $229 $145 #
plane-surface $-1 74.105044709616379 0 0 -1 0 0 0 0 1 forward_v I I I I #
coedge $-1 $314 $315 $225 $316 forward $146 $-1 #
coedge $-1 $225 $148 $150 $231 reversed $92 $-1 #
coedge $-1 $148 $224 $223 $316 reversed $92 $-1 #
coedge $-1 $317 $151 $148 $227 forward $233 $-1 #
edge $-1 $235 -38.279709073048622 $318 -25.863016869322458 $226 $319 forward 7 unknown #
coedge $-1 $150 $149 $314 $320 reversed $59 $-1 #
coedge $-1 $321 $322 $149 $230 forward $221 $-1 #
edge $-1 $323 -16.449009241678151 $234 0.52867516001240478 $229 $324 forward 7 unknown #
edge $-1 $325 2.8915938760888084e-014 $235 16.977684401690585 $224 $326 forward 7 unknown #
coedge $-1 $151 $317 $321 $327 forward $233 $-1 #
loop $-1 $-1 $226 $220 #
vertex $-1 $230 $328 #
vertex $-1 $152 $329 #
straight-curve $-1 30.0797458236502 -36.936313188013472 16.265691431226962 -1 0 0 I I #
coedge $-1 $237 $237 $-1 $330 reversed $155 $-1 #
edge $-1 $331 0 $331 6.2831853071796004 $156 $332 forward 7 unknown #
vertex $-1 $159 $333 #
ellipse-curve $-1 60.159491647300399 -43.14465928987655 10.476314902589952 0 -0.68199836817093118 0.7313536940579346 3 0 0 1 I I #
face $-1 $-1 $175 $24 $-1 $334 reversed single #
loop $-1 $-1 $257 $160 #
plane-surface $-1 0 49.353005391739636 0 0 -1 0 0 0 -1 forward_v I I I I #
coedge $-1 $335 $255 $258 $336 forward $161 $-1 #
coedge $-1 $261 $163 $164 $249 reversed $101 $-1 #
coedge $-1 $255 $335 $163 $247 reversed $161 $-1 #
edge $-1 $262 -16.265691431226962 $337 16.265691431226962 $246 $338 forward 7 unknown #
coedge $-1 $165 $164 $335 $339 forward $65 $-1 #
edge $-1 $253 -74.105044709616379 $337 74.105044709616379 $245 $340 forward 7 unknown #
coedge $-1 $258 $257 $165 $251 reversed $242 $-1 #
edge $-1 $341 -74.105044709616379 $252 74.105044709616379 $250 $342 forward 7 unknown #
vertex $-1 $167 $343 #
vertex $-1 $264 $344 #
straight-curve $-1 74.105044709616379 0 -16.265691431226962 0 -1 0 I I #
coedge $-1 $244 $246 $168 $256 reversed $161 $-1 #
edge $-1 $259 -49.353005391739636 $262 49.353005391739636 $255 $345 forward 7 unknown #
coedge $-1 $250 $169 $174 $265 forward $242 $-1 #
coedge $-1 $169 $250 $244 $336 reversed $242 $-1 #
vertex $-1 $170 $346 #
straight-curve $-1 0 49.353005391739636 16.265691431226962 -1 0 0 I I #
coedge $-1 $171 $245 $173 $264 reversed $101 $-1 #
vertex $-1 $256 $347 #
straight-curve $-1 0 -49.353005391739636 16.265691431226962 1 0 0 I I #
edge $-1 $176 -16.265691431226962 $253 16.265691431226962 $173 $348 forward 7 unknown #
edge $-1 $177 -16.265691431226962 $252 16.265691431226962 $174 $349 forward 7 unknown #
point $-1 74.105044709616379 -49.353005391739636 16.265691431226962 #
point $-1 74.105044709616379 49.353005391739636 16.265691431226962 #
loop $-1 $-1 $271 $179 #
plane-surface $-1 -74.105044709616379 0 0 1 0 0 0 0 -1 forward_v I I I I #
coedge $-1 $183 $182 $277 $350 reversed $69 $-1 #
coedge $-1 $351 $352 $183 $272 forward $268 $-1 #
edge $-1 $274 -59.897746076258706 $353 -48.73508043401722 $271 $354 forward 7 unknown #
coedge $-1 $189 $184 $352 $355 reversed $109 $-1 #
vertex $-1 $185 $356 #
straight-curve $-1 -28.45208992968643 49.353005391739636 6.9038922079138558 -1 0 0 I I #
coedge $-1 $357 $186 $189 $281 forward $180 $-1 #
coedge $-1 $186 $357 $270 $350 forward $180 $-1 #
vertex $-1 $187 $358 #
straight-curve $-1 -39.703315009129341 59.946650599921313 16.265691431226955 0 1 0 I I #
straight-curve $-1 -39.703315009129341 -4.4061398549488331 89.685719121396346 0 -0.54463902268945019 0.83867057594974714 I I #
edge $-1 $190 39.703315009129341 $359 74.105044709616379 $189 $360 forward 7 unknown #
point $-1 -39.703315009129341 49.353005391739636 16.265691431226962 #
point $-1 -39.703315009129341 49.353005391739636 6.9038922079138558 #
edge $-1 $361 1 $361 0 $193 $-1 forward 7 unknown #
vertex $-1 $194 $362 #
ellipse-curve $-1 -64.275979080905799 44.980322570251133 10.719215189849516 0 0.83867057594974714 0.54463902268945019 1.5 0 0 1 I I #
point $-1 -62.775979080905799 46.313193738739891 11.584791819570409 #
edge $-1 $363 1 $363 0 $197 $-1 forward 7 unknown #
vertex $-1 $198 $364 #
ellipse-curve $-1 -49.532380637839928 44.980322570251133 10.719215189849516 0 0.83867057594974714 0.54463902268945019 1.5 0 0 1 I I #
point $-1 -48.032380637839928 46.313193738739891 11.584791819570409 #
loop $-1 $-1 $209 $201 #
plane-surface $-1 0 -49.353005391739636 0 0 1 0 0 0 1 forward_v I I I I #
coedge $-1 $295 $204 $365 $366 reversed $131 $-1 #
coedge $-1 $204 $294 $298 $367 reversed $131 $-1 #
edge $-1 $299 -0.52867516001240478 $368 16.449009241678151 $204 $369 forward 7 unknown #
coedge $-1 $206 $205 $302 $370 reversed $83 $-1 #
coedge $-1 $212 $207 $295 $367 forward $202 $-1 #
vertex $-1 $367 $371 #
straight-curve $-1 -30.079745823650203 -36.936313188013472 16.265691431226962 -1 0 0 I I #
coedge $-1 $365 $209 $212 $306 reversed $292 $-1 #
coedge $-1 $209 $365 $297 $370 forward $292 $-1 #
vertex $-1 $210 $372 #
straight-curve $-1 -46.213938584984433 -49.353005391739636 56.540467383682795 0 0 1 I I #
straight-curve $-1 -46.213938584984433 -49.353005391739657 4.6869383739529127 0 -0.7313536940579346 -0.68199836817093118 I I #
edge $-1 $373 -74.105044709616379 $213 -46.213938584984433 $301 $374 forward 7 unknown #
point $-1 -46.213938584984433 -49.353005391739636 16.265691431226962 #
point $-1 -46.213938584984433 -36.936313188013472 16.265691431226962 #
edge $-1 $375 1 $375 0 $216 $-1 forward 7 unknown #
vertex $-1 $217 $376 #
ellipse-curve $-1 -60.159491647300406 -36.075433063569093 2.8954980619176922 0 -0.68199836817093118 0.7313536940579346 3 0 0 1 I I #
point $-1 -57.159491647300406 -43.144659289876529 10.47631490258993 #
plane-surface $-1 0 0 16.265691431226962 0 0 1 1 0 0 forward_v I I I I #
coedge $-1 $377 $223 $228 $320 forward $146 $-1 #
coedge $-1 $223 $377 $317 $378 reversed $146 $-1 #
edge $-1 $318 40.274775952455833 $325 51.853529009729861 $223 $379 forward 7 unknown #
coedge $-1 $232 $226 $315 $378 forward $233 $-1 #
vertex $-1 $378 $380 #
straight-curve $-1 46.213938584984426 -75.216022261062093 16.265691431226962 0 -1 0 I I #
edge $-1 $325 16.134192761334226 $323 44.025298885966166 $314 $381 forward 7 unknown #
coedge $-1 $322 $229 $232 $327 reversed $221 $-1 #
coedge $-1 $229 $321 $377 $382 forward $221 $-1 #
vertex $-1 $230 $383 #
straight-curve $-1 74.105044709616379 -37.322961719245214 15.905135834805996 0 0.7313536940579346 0.68199836817093118 I I #
vertex $-1 $320 $384 #
straight-curve $-1 46.213938584984426 -49.353005391739657 4.6869383739529127 0 0.7313536940579346 0.68199836817093118 I I #
edge $-1 $385 -49.353005391739636 $234 -36.936313188013472 $321 $386 forward 7 unknown #
point $-1 74.105044709616365 -36.936313188013472 16.265691431226962 #
point $-1 46.213938584984426 -36.936313188013472 16.265691431226962 #
edge $-1 $387 1 $387 0 $237 $-1 forward 7 unknown #
vertex $-1 $238 $388 #
ellipse-curve $-1 60.159491647300399 -36.075433063569093 2.8954980619176922 0 -0.68199836817093118 0.7313536940579346 3 0 0 1 I I #
point $-1 63.159491647300399 -43.144659289876529 10.47631490258993 #
plane-surface $-1 74.105044709616379 0 0 -1 0 0 0 0 1 forward_v I I I I #
coedge $-1 $246 $244 $248 $339 reversed $161 $-1 #
edge $-1 $259 -16.265691431226962 $341 16.265691431226962 $258 $389 forward 7 unknown #
vertex $-1 $339 $390 #
straight-curve $-1 -74.105044709616379 -49.353005391739636 0 0 0 -1 I I #
edge $-1 $337 -49.353005391739636 $341 49.353005391739636 $335 $391 forward 7 unknown #
straight-curve $-1 0 -49.353005391739636 -16.265691431226962 -1 0 0 I I #
vertex $-1 $251 $392 #
straight-curve $-1 0 49.353005391739636 -16.265691431226962 1 0 0 I I #
point $-1 74.105044709616379 49.353005391739636 -16.265691431226962 #
point $-1 74.105044709616379 -49.353005391739636 -16.265691431226962 #
straight-curve $-1 -74.105044709616379 0 16.265691431226962 0 -1 0 I I #
point $-1 -74.105044709616379 49.353005391739636 16.265691431226962 #
point $-1 -74.105044709616379 -49.353005391739636 16.265691431226962 #
straight-curve $-1 74.105044709616379 -49.353005391739636 0 0 0 -1 I I #
straight-curve $-1 74.105044709616379 49.353005391739636 0 0 0 -1 I I #
edge $-1 $353 -45.652954779929949 $278 -11.251225079442911 $277 $393 forward 7 unknown #
coedge $-1 $352 $271 $357 $394 reversed $268 $-1 #
coedge $-1 $271 $351 $273 $355 forward $268 $-1 #
vertex $-1 $272 $395 #
straight-curve $-1 -74.105044709616379 16.730355507465248 57.138369407781447 0 -0.54463902268945019 0.83867057594974714 I I #
edge $-1 $359 -16.265691431226962 $274 -6.9038922079138496 $273 $396 forward 7 unknown #
point $-1 -74.105044709616379 49.353005391739636 6.9038922079138496 #
coedge $-1 $277 $276 $351 $394 forward $180 $-1 #
point $-1 -39.703315009129341 43.273382085740131 16.265691431226969 #
vertex $-1 $281 $397 #
straight-curve $-1 0 49.353005391739636 16.265691431226962 -1 0 0 I I #
vertex $-1 $284 $398 #
point $-1 -62.775979080905799 44.980322570251133 10.719215189849516 #
vertex $-1 $288 $399 #
point $-1 -48.032380637839928 44.980322570251133 10.719215189849516 #
coedge $-1 $302 $301 $294 $366 forward $292 $-1 #
edge $-1 $373 -16.265691431226962 $368 -4.6869383739529322 $294 $400 forward 7 unknown #
edge $-1 $299 36.936313188013472 $373 49.353005391739636 $295 $401 forward 7 unknown #
vertex $-1 $296 $402 #
straight-curve $-1 -74.105044709616379 -37.322961719245214 15.905135834805996 0 -0.7313536940579346 -0.68199836817093118 I I #
edge $-1 $368 -44.02529888596618 $303 -16.13419276133423 $302 $403 forward 7 unknown #
point $-1 -74.105044709616379 -36.936313188013472 16.265691431226962 #
point $-1 -46.213938584984433 -49.353005391739636 4.6869383739529322 #
vertex $-1 $367 $404 #
straight-curve $-1 0 -49.353005391739636 16.265691431226962 1 0 0 I I #
vertex $-1 $309 $405 #
point $-1 -57.159491647300406 -36.075433063569093 2.8954980619176922 #
coedge $-1 $315 $314 $322 $382 reversed $146 $-1 #
edge $-1 $318 46.213938584984426 $385 74.105044709616379 $315 $406 forward 7 unknown #
straight-curve $-1 46.213938584984426 -49.353005391739636 56.540467383682795 0 0 -1 I I #
point $-1 46.213938584984426 -49.353005391739636 16.265691431226962 #
straight-curve $-1 30.0797458236502 -49.353005391739636 4.6869383739529287 1 0 0 I I #
edge $-1 $385 -16.265691431226962 $323 -4.6869383739529322 $322 $407 forward 7 unknown #
point $-1 74.105044709616365 -49.353005391739636 4.6869383739529322 #
point $-1 46.213938584984426 -49.353005391739636 4.6869383739529322 #
vertex $-1 $327 $408 #
straight-curve $-1 74.105044709616379 0 16.265691431226962 0 1 0 I I #
vertex $-1 $330 $409 #
point $-1 63.159491647300399 -36.075433063569093 2.8954980619176922 #
straight-curve $-1 -74.105044709616379 49.353005391739636 0 0 0 -1 I I #
point $-1 -74.105044709616379 -49.353005391739636 -16.265691431226962 #
straight-curve $-1 -74.105044709616379 0 -16.265691431226962 0 1 0 I I #
point $-1 -74.105044709616379 49.353005391739636 -16.265691431226962 #
straight-curve $-1 -28.45208992968643 43.273382085740138 16.265691431226969 1 0 0 I I #
edge $-1 $359 -49.353005391739636 $353 -43.273382085740131 $351 $410 forward 7 unknown #
point $-1 -74.105044709616379 43.273382085740131 16.265691431226969 #
straight-curve $-1 -74.105044709616379 49.353005391739636 0 0 0 -1 I I #
point $-1 -74.105044709616379 49.353005391739636 16.265691431226962 #
point $-1 -64.275979080905799 43.722316706326509 9.9022566558153411 #
point $-1 -49.532380637839928 43.722316706326509 9.9022566558153411 #
straight-curve $-1 -74.105044709616379 -49.353005391739636 0 0 0 -1 I I #
straight-curve $-1 -74.105044709616379 0 16.265691431226962 0 -1 0 I I #
point $-1 -74.105044709616379 -49.353005391739636 4.6869383739529322 #
straight-curve $-1 -30.079745823650203 -49.353005391739636 4.6869383739529287 1 0 0 I I #
point $-1 -74.105044709616379 -49.353005391739636 16.265691431226962 #
point $-1 -60.159491647300406 -34.029437959056295 0.70143697974388863 #
straight-curve $-1 0 -49.353005391739636 16.265691431226962 1 0 0 I I #
straight-curve $-1 74.105044709616379 -49.353005391739636 0 0 0 -1 I I #
point $-1 74.105044709616379 -49.353005391739636 16.265691431226962 #
point $-1 60.159491647300399 -34.029437959056295 0.70143697974388863 #
straight-curve $-1 -74.105044709616379 0 16.265691431226962 0 -1 0 I I #
End-of-ACIS-data 