500 0 8 0           
7 Unknown 11 ACIS 5.0 NT 24 Fri Mar 26 00:55:44 1999 
-1 9.9999999999999995e-007 1e-010 
body $-1 $8 $-1 $9 #
body $-1 $10 $-1 $11 #
body $-1 $12 $-1 $13 #
body $-1 $14 $-1 $15 #
body $-1 $16 $-1 $17 #
body $-1 $18 $-1 $19 #
body $-1 $20 $-1 $21 #
body $-1 $22 $-1 $23 #
lump $-1 $-1 $24 $0 #
transform $-1 1 0 0 0 1 0 0 0 1 51.788689840388194 33.559835985164426 13.197894298789249 1 rotate no_reflect no_shear #
lump $-1 $-1 $25 $1 #
transform $-1 1 0 0 0 1 0 0 0 1 51.788689840388194 33.559835985164426 13.197894298789249 1 rotate no_reflect no_shear #
lump $-1 $-1 $26 $2 #
transform $-1 1 0 0 0 1 0 0 0 1 51.788689840388194 33.559835985164426 13.197894298789249 1 rotate no_reflect no_shear #
lump $-1 $-1 $27 $3 #
transform $-1 1 0 0 0 1 0 0 0 1 51.788689840388194 33.559835985164426 13.197894298789249 1 rotate no_reflect no_shear #
lump $-1 $-1 $28 $4 #
transform $-1 1 0 0 0 1 0 0 0 1 51.788689840388194 33.559835985164426 13.197894298789249 1 rotate no_reflect no_shear #
lump $-1 $-1 $29 $5 #
transform $-1 1 0 0 0 1 0 0 0 1 51.788689840388194 33.559835985164426 13.197894298789249 1 rotate no_reflect no_shear #
lump $-1 $-1 $30 $6 #
transform $-1 1 0 0 0 1 0 0 0 1 51.788689840388194 33.559835985164426 13.197894298789249 1 rotate no_reflect no_shear #
lump $-1 $-1 $31 $7 #
transform $-1 1 0 0 0 1 0 0 0 1 51.788689840388194 33.559835985164426 13.197894298789249 1 rotate no_reflect no_shear #
shell $-1 $-1 $-1 $32 $-1 $8 #
shell $-1 $-1 $-1 $33 $-1 $10 #
shell $-1 $-1 $-1 $34 $-1 $12 #
shell $-1 $-1 $-1 $35 $-1 $14 #
shell $-1 $-1 $-1 $36 $-1 $16 #
shell $-1 $-1 $-1 $37 $-1 $18 #
shell $-1 $-1 $-1 $38 $-1 $20 #
shell $-1 $-1 $-1 $39 $-1 $22 #
face $-1 $40 $41 $24 $-1 $42 forward single #
face $-1 $43 $44 $25 $-1 $45 forward single #
face $-1 $46 $47 $26 $-1 $48 reversed single #
face $-1 $49 $50 $27 $-1 $51 forward single #
face $-1 $52 $53 $28 $-1 $54 reversed single #
face $-1 $55 $56 $29 $-1 $57 forward single #
face $-1 $58 $59 $30 $-1 $60 forward single #
face $-1 $61 $62 $31 $-1 $63 forward single #
face $-1 $64 $65 $24 $-1 $66 reversed single #
loop $-1 $-1 $67 $32 #
plane-surface $-1 0 0 13.197894298789249 0 0 1 1 0 0 forward_v I I I I #
face $-1 $68 $69 $25 $-1 $70 reversed single #
loop $-1 $-1 $71 $33 #
plane-surface $-1 0 -33.559835985164426 0 0 1 0 0 0 1 forward_v I I I I #
face $-1 $72 $73 $26 $-1 $74 reversed single #
loop $-1 $-1 $75 $34 #
plane-surface $-1 -135.58455108261614 9.585420711425332 69.733103270898795 0 1 0 -0.80901700255871778 0 0.5877852410284794 forward_v I I I I #
face $-1 $76 $77 $27 $-1 $78 forward single #
loop $-1 $79 $80 $35 #
cone-surface $-1 -49.540143126598899 16.350516693409254 10.538267150686259 0.80901700255871778 0 -0.5877852410284794 0.5877852410284794 0 0.80901700255871778 1 I I 0 1 1 forward I I I I #
face $-1 $81 $82 $28 $-1 $83 reversed single #
loop $-1 $-1 $84 $36 #
plane-surface $-1 39.022071510666869 27.11249465076898 150.72875059784658 0 1 0 0.64278761758704617 0 0.76604443648966558 forward_v I I I I #
face $-1 $85 $86 $29 $-1 $87 forward single #
loop $-1 $88 $89 $37 #
cone-surface $-1 46.238476934000069 28.401962917648071 8.3469467926992795 -0.64278761758704617 0 -0.76604443648966558 0.38302221824483279 0 -0.32139380879352308 1 I I 0 1 0.5 forward I I I I #
face $-1 $90 $91 $30 $-1 $92 forward single #
loop $-1 $93 $94 $38 #
cone-surface $-1 46.238476934000069 30.336165317966703 8.3469467926992795 -0.64278761758704617 0 -0.76604443648966558 0.38302221824483279 0 -0.32139380879352308 1 I I 0 1 0.5 forward I I I I #
face $-1 $95 $96 $31 $-1 $97 forward single #
loop $-1 $98 $99 $39 #
cone-surface $-1 46.238476934000069 32.270367718285343 8.3469467926992795 -0.64278761758704617 0 -0.76604443648966558 0.38302221824483279 0 -0.32139380879352308 1 I I 0 1 0.5 forward I I I I #
face $-1 $100 $101 $24 $-1 $102 reversed single #
loop $-1 $-1 $103 $40 #
plane-surface $-1 0 0 -13.197894298789249 0 0 1 1 0 0 forward_v I I I I #
coedge $-1 $104 $105 $106 $107 forward $41 $-1 #
face $-1 $108 $109 $25 $-1 $110 reversed single #
loop $-1 $-1 $111 $43 #
plane-surface $-1 0 0 -13.197894298789249 0 0 1 1 0 0 forward_v I I I I #
coedge $-1 $112 $113 $114 $115 forward $44 $-1 #
face $-1 $116 $117 $26 $-1 $118 reversed single #
loop $-1 $-1 $119 $46 #
plane-surface $-1 -51.788689840388173 16.350516693409261 8.8518481901353141 -0.80901700255871778 0 0.5877852410284794 0.5877852410284794 0 0.80901700255871778 forward_v I I I I #
coedge $-1 $120 $121 $122 $123 reversed $47 $-1 #
face $-1 $-1 $124 $27 $-1 $125 forward single #
loop $-1 $126 $127 $49 #
cone-surface $-1 -48.46588152860916 16.350516693409254 9.7577704363959921 0.80901700255871778 0 -0.5877852410284794 0.2938926205142397 0 0.40450850127935889 1 I I -0.70710678118654746 0.70710678118654746 0.5 forward I I I I #
loop $-1 $-1 $128 $35 #
coedge $-1 $80 $80 $129 $130 reversed $50 $-1 #
face $-1 $131 $132 $28 $-1 $133 reversed single #
loop $-1 $-1 $134 $52 #
plane-surface $-1 -27.556185610248299 30.336165317966703 71.383875147210105 0.64278761758704617 0 0.76604443648966558 0.76604443648966558 0 -0.64278761758704617 forward_v I I I I #
coedge $-1 $135 $136 $137 $138 reversed $53 $-1 #
face $-1 $-1 $139 $29 $-1 $140 forward single #
loop $-1 $141 $142 $55 #
cone-surface $-1 45.528329717368571 28.401962917648071 7.5006263137340614 -0.64278761758704617 0 -0.76604443648966558 0.1915111091224164 0 -0.16069690439676154 1 I I -0.70710678118654879 0.70710678118654635 0.25 forward I I I I #
loop $-1 $-1 $143 $37 #
coedge $-1 $89 $89 $144 $145 reversed $56 $-1 #
face $-1 $-1 $146 $30 $-1 $147 forward single #
loop $-1 $148 $149 $58 #
cone-surface $-1 45.528329717368571 30.336165317966703 7.5006263137340614 -0.64278761758704617 0 -0.76604443648966558 0.1915111091224164 0 -0.16069690439676154 1 I I -0.70710678118654879 0.70710678118654635 0.25 forward I I I I #
loop $-1 $-1 $150 $38 #
coedge $-1 $94 $94 $151 $152 reversed $59 $-1 #
face $-1 $-1 $153 $31 $-1 $154 forward single #
loop $-1 $155 $156 $61 #
cone-surface $-1 45.528329717368571 32.270367718285343 7.5006263137340614 -0.64278761758704617 0 -0.76604443648966558 0.1915111091224164 0 -0.16069690439676154 1 I I -0.70710678118654879 0.70710678118654635 0.25 forward I I I I #
loop $-1 $-1 $157 $39 #
coedge $-1 $99 $99 $158 $159 reversed $62 $-1 #
face $-1 $160 $161 $24 $-1 $162 reversed single #
loop $-1 $-1 $163 $64 #
plane-surface $-1 0 -33.559835985164426 0 0 1 0 0 0 1 forward_v I I I I #
coedge $-1 $164 $165 $166 $167 forward $65 $-1 #
coedge $-1 $168 $67 $169 $170 forward $41 $-1 #
coedge $-1 $67 $168 $171 $172 forward $41 $-1 #
coedge $-1 $173 $174 $67 $107 reversed $175 $-1 #
edge $-1 $176 -33.559835985164426 $177 33.559835985164426 $106 $178 forward 7 unknown #
face $-1 $179 $180 $25 $-1 $181 reversed single #
loop $-1 $-1 $182 $68 #
plane-surface $-1 -27.772082792341791 -45.40144898043755 0 0 1 0 0 0 1 forward_v I I I I #
coedge $-1 $183 $184 $113 $185 forward $69 $-1 #
coedge $-1 $186 $71 $187 $188 reversed $44 $-1 #
coedge $-1 $71 $186 $111 $185 reversed $44 $-1 #
coedge $-1 $189 $190 $71 $115 reversed $180 $-1 #
edge $-1 $191 -13.197894298789249 $192 13.197894298789249 $114 $193 forward 7 unknown #
face $-1 $194 $195 $26 $-1 $196 reversed single #
loop $-1 $-1 $197 $72 #
plane-surface $-1 -135.58455108261614 23.115612675393191 69.733103270898795 0 -1 0 0.80901700255871778 0 -0.5877852410284794 forward_v I I I I #
coedge $-1 $198 $199 $200 $201 reversed $73 $-1 #
coedge $-1 $121 $75 $202 $203 reversed $47 $-1 #
coedge $-1 $75 $120 $198 $204 reversed $47 $-1 #
coedge $-1 $200 $205 $75 $123 forward $206 $-1 #
edge $-1 $207 16.003585700919878 $208 19.16117293507773 $122 $209 forward 7 unknown #
loop $-1 $-1 $129 $76 #
plane-surface $-1 -51.788689840388173 16.350516693409261 8.8518481901353141 -0.80901700255871778 0 0.5877852410284794 0.5877852410284794 0 0.80901700255871778 forward_v I I I I #
loop $-1 $-1 $210 $49 #
coedge $-1 $127 $127 $128 $211 reversed $77 $-1 #
coedge $-1 $128 $128 $127 $211 forward $79 $-1 #
coedge $-1 $129 $129 $80 $130 forward $124 $-1 #
edge $-1 $212 0 $212 6.2831853071796004 $129 $213 forward 7 unknown #
face $-1 $214 $215 $28 $-1 $216 forward single #
loop $-1 $-1 $217 $81 #
plane-surface $-1 0 33.559835985164426 0 0 -1 0 0 0 -1 forward_v I I I I #
coedge $-1 $218 $219 $220 $221 reversed $82 $-1 #
coedge $-1 $136 $84 $222 $223 reversed $53 $-1 #
coedge $-1 $84 $135 $218 $224 reversed $53 $-1 #
coedge $-1 $220 $225 $84 $138 forward $226 $-1 #
edge $-1 $227 62.166481000134041 $228 70.55875727262837 $137 $229 forward 7 unknown #
loop $-1 $-1 $144 $85 #
plane-surface $-1 -27.556185610248299 30.336165317966703 71.383875147210105 0.64278761758704617 0 0.76604443648966558 0.76604443648966558 0 -0.64278761758704617 forward_v I I I I #
loop $-1 $-1 $230 $55 #
coedge $-1 $142 $142 $143 $231 reversed $86 $-1 #
coedge $-1 $143 $143 $142 $231 forward $88 $-1 #
coedge $-1 $144 $144 $89 $145 forward $139 $-1 #
edge $-1 $232 0 $232 6.2831853071796004 $144 $233 forward 7 unknown #
loop $-1 $-1 $151 $90 #
plane-surface $-1 -27.556185610248299 30.336165317966703 71.383875147210105 0.64278761758704617 0 0.76604443648966558 0.76604443648966558 0 -0.64278761758704617 forward_v I I I I #
loop $-1 $-1 $234 $58 #
coedge $-1 $149 $149 $150 $235 reversed $91 $-1 #
coedge $-1 $150 $150 $149 $235 forward $93 $-1 #
coedge $-1 $151 $151 $94 $152 forward $146 $-1 #
edge $-1 $236 0 $236 6.2831853071796004 $151 $237 forward 7 unknown #
loop $-1 $-1 $158 $95 #
plane-surface $-1 -27.556185610248299 30.336165317966703 71.383875147210105 0.64278761758704617 0 0.76604443648966558 0.76604443648966558 0 -0.64278761758704617 forward_v I I I I #
loop $-1 $-1 $238 $61 #
coedge $-1 $156 $156 $157 $239 reversed $96 $-1 #
coedge $-1 $157 $157 $156 $239 forward $98 $-1 #
coedge $-1 $158 $158 $99 $159 forward $153 $-1 #
edge $-1 $240 0 $240 6.2831853071796004 $158 $241 forward 7 unknown #
face $-1 $242 $243 $24 $-1 $244 reversed single #
loop $-1 $-1 $245 $100 #
plane-surface $-1 -51.788689840388194 0 0 1 0 0 0 0 -1 forward_v I I I I #
coedge $-1 $246 $171 $247 $248 forward $101 $-1 #
coedge $-1 $249 $103 $246 $250 forward $65 $-1 #
coedge $-1 $103 $249 $251 $252 forward $65 $-1 #
coedge $-1 $174 $173 $103 $167 reversed $175 $-1 #
edge $-1 $253 -33.559835985164426 $254 33.559835985164426 $166 $255 forward 7 unknown #
coedge $-1 $105 $104 $256 $257 forward $41 $-1 #
coedge $-1 $258 $259 $104 $170 reversed $243 $-1 #
edge $-1 $177 -51.788689840388194 $260 51.788689840388194 $169 $261 forward 7 unknown #
coedge $-1 $163 $262 $105 $172 reversed $101 $-1 #
edge $-1 $263 -51.788689840388194 $176 51.788689840388194 $171 $264 forward 7 unknown #
coedge $-1 $166 $106 $262 $265 forward $175 $-1 #
coedge $-1 $106 $166 $258 $266 reversed $175 $-1 #
loop $-1 $-1 $173 $242 #
vertex $-1 $107 $267 #
vertex $-1 $107 $268 #
straight-curve $-1 51.788689840388194 0 13.197894298789249 0 1 0 I I #
face $-1 $269 $270 $25 $-1 $271 reversed single #
loop $-1 $-1 $114 $108 #
plane-surface $-1 -30.15126434187389 -39.480642482800988 0 1 0 0 0 0 -1 forward_v I I I I #
coedge $-1 $272 $273 $274 $275 forward $109 $-1 #
coedge $-1 $276 $111 $277 $278 forward $69 $-1 #
coedge $-1 $111 $276 $189 $279 forward $69 $-1 #
edge $-1 $191 -30.15126434187389 $280 -25.392901242809693 $111 $281 forward 7 unknown #
coedge $-1 $113 $112 $282 $283 forward $44 $-1 #
coedge $-1 $284 $285 $112 $188 forward $286 $-1 #
edge $-1 $287 25.392901242809693 $192 30.15126434187389 $187 $288 forward 7 unknown #
coedge $-1 $274 $114 $184 $279 reversed $180 $-1 #
coedge $-1 $114 $274 $284 $289 reversed $180 $-1 #
vertex $-1 $185 $290 #
vertex $-1 $289 $291 #
straight-curve $-1 -30.15126434187389 -33.559835985164426 0 0 0 1 I I #
face $-1 $-1 $206 $26 $-1 $292 forward single #
loop $-1 $-1 $293 $116 #
plane-surface $-1 -51.788689840388194 0 0 1 0 0 0 0 -1 forward_v I I I I #
coedge $-1 $294 $295 $296 $297 reversed $117 $-1 #
coedge $-1 $298 $119 $121 $204 forward $73 $-1 #
coedge $-1 $119 $298 $294 $299 forward $73 $-1 #
coedge $-1 $296 $122 $119 $201 forward $206 $-1 #
edge $-1 $208 1.4101623647207013 $300 14.94035432868856 $200 $301 forward 7 unknown #
coedge $-1 $302 $303 $120 $203 forward $195 $-1 #
edge $-1 $304 -26.014703445314112 $207 -21.668657336660146 $202 $305 forward 7 unknown #
edge $-1 $208 -5.3720083693030958 $304 3.6960145052660132e-014 $121 $306 forward 7 unknown #
coedge $-1 $122 $296 $302 $307 forward $206 $-1 #
loop $-1 $-1 $296 $194 #
vertex $-1 $203 $308 #
vertex $-1 $123 $309 #
straight-curve $-1 -67.792275541308072 9.585420711425332 13.197894298789251 1 0 0 I I #
coedge $-1 $210 $210 $-1 $310 reversed $126 $-1 #
edge $-1 $311 0 $311 6.2831853071796004 $127 $312 forward 7 unknown #
vertex $-1 $130 $313 #
ellipse-curve $-1 -50.209896223309265 16.350516693409254 11.024871244462274 -0.80901700255871778 0 0.5877852410284794 0.5877852410284794 0 0.80901700255871778 1 I I #
face $-1 $-1 $226 $28 $-1 $314 reversed single #
loop $-1 $-1 $315 $131 #
plane-surface $-1 0 0 13.197894298789249 0 0 1 1 0 0 forward_v I I I I #
coedge $-1 $316 $317 $219 $318 forward $132 $-1 #
coedge $-1 $319 $134 $136 $224 forward $82 $-1 #
coedge $-1 $134 $319 $217 $318 reversed $82 $-1 #
coedge $-1 $320 $137 $134 $221 forward $226 $-1 #
edge $-1 $228 11.944411991785628 $321 18.391753326181075 $220 $322 forward 7 unknown #
coedge $-1 $323 $315 $135 $223 forward $215 $-1 #
edge $-1 $324 22.276128896748045 $227 32.277654085054763 $222 $325 forward 7 unknown #
edge $-1 $228 -103.57737968077639 $324 -90.521315682533853 $136 $326 forward 7 unknown #
coedge $-1 $137 $320 $323 $327 reversed $226 $-1 #
loop $-1 $-1 $220 $214 #
vertex $-1 $327 $328 #
vertex $-1 $138 $329 #
straight-curve $-1 51.788689840388194 27.11249465076898 75.364375298923292 0 0 -1 I I #
coedge $-1 $230 $230 $-1 $330 reversed $141 $-1 #
edge $-1 $331 0 $331 6.2831853071796004 $142 $332 forward 7 unknown #
vertex $-1 $145 $333 #
ellipse-curve $-1 46.787927246234823 28.401962917648071 9.0017561625420992 0.64278761758704617 0 0.76604443648966558 0.38302221824483279 0 -0.32139380879352308 1 I I #
coedge $-1 $234 $234 $-1 $334 reversed $148 $-1 #
edge $-1 $335 0 $335 6.2831853071796004 $149 $336 forward 7 unknown #
vertex $-1 $152 $337 #
ellipse-curve $-1 46.787927246234823 30.336165317966703 9.0017561625420992 0.64278761758704617 0 0.76604443648966558 0.38302221824483279 0 -0.32139380879352308 1 I I #
coedge $-1 $238 $238 $-1 $338 reversed $155 $-1 #
edge $-1 $339 0 $339 6.2831853071796004 $156 $340 forward 7 unknown #
vertex $-1 $159 $341 #
ellipse-curve $-1 46.787927246234823 32.270367718285343 9.0017561625420992 0.64278761758704617 0 0.76604443648966558 0.38302221824483279 0 -0.32139380879352308 1 I I #
face $-1 $-1 $175 $24 $-1 $342 reversed single #
loop $-1 $-1 $258 $160 #
plane-surface $-1 0 33.559835985164426 0 0 -1 0 0 0 -1 forward_v I I I I #
coedge $-1 $343 $256 $259 $344 forward $161 $-1 #
coedge $-1 $262 $163 $164 $250 reversed $101 $-1 #
coedge $-1 $256 $343 $163 $248 reversed $161 $-1 #
edge $-1 $263 -13.197894298789249 $345 13.197894298789249 $247 $346 forward 7 unknown #
coedge $-1 $165 $164 $343 $347 forward $65 $-1 #
edge $-1 $254 -51.788689840388194 $345 51.788689840388194 $246 $348 forward 7 unknown #
coedge $-1 $259 $258 $165 $252 reversed $243 $-1 #
edge $-1 $349 -51.788689840388194 $253 51.788689840388194 $251 $350 forward 7 unknown #
vertex $-1 $167 $351 #
vertex $-1 $265 $352 #
straight-curve $-1 51.788689840388194 0 -13.197894298789249 0 -1 0 I I #
coedge $-1 $245 $247 $168 $257 reversed $161 $-1 #
edge $-1 $260 -33.559835985164426 $263 33.559835985164426 $256 $353 forward 7 unknown #
coedge $-1 $251 $169 $174 $266 forward $243 $-1 #
coedge $-1 $169 $251 $245 $344 reversed $243 $-1 #
vertex $-1 $170 $354 #
straight-curve $-1 0 33.559835985164426 13.197894298789249 -1 0 0 I I #
coedge $-1 $171 $246 $173 $265 reversed $101 $-1 #
vertex $-1 $257 $355 #
straight-curve $-1 0 -33.559835985164426 13.197894298789249 1 0 0 I I #
edge $-1 $176 -13.197894298789249 $254 13.197894298789249 $173 $356 forward 7 unknown #
edge $-1 $177 -13.197894298789249 $253 13.197894298789249 $174 $357 forward 7 unknown #
point $-1 51.788689840388194 -33.559835985164426 13.197894298789249 #
point $-1 51.788689840388194 33.559835985164426 13.197894298789249 #
face $-1 $-1 $286 $25 $-1 $358 forward single #
loop $-1 $-1 $359 $179 #
plane-surface $-1 -25.392901242809693 -39.480642482800988 0 -1 0 0 0 0 1 forward_v I I I I #
coedge $-1 $360 $182 $276 $361 reversed $109 $-1 #
coedge $-1 $182 $360 $362 $363 reversed $109 $-1 #
coedge $-1 $190 $189 $182 $275 reversed $180 $-1 #
edge $-1 $364 -13.197894298789249 $365 13.197894298789249 $274 $366 forward 7 unknown #
coedge $-1 $184 $183 $272 $361 forward $69 $-1 #
coedge $-1 $282 $359 $183 $278 reversed $270 $-1 #
edge $-1 $280 -5.920806497636562 $367 5.920806497636562 $277 $368 forward 7 unknown #
edge $-1 $365 -5.920806497636562 $191 5.920806497636562 $189 $369 forward 7 unknown #
vertex $-1 $278 $370 #
straight-curve $-1 0 -33.559835985164426 -13.197894298789249 1 0 0 I I #
coedge $-1 $371 $277 $186 $283 reversed $270 $-1 #
edge $-1 $287 -13.197894298789249 $280 13.197894298789249 $282 $372 forward 7 unknown #
coedge $-1 $362 $187 $190 $289 forward $286 $-1 #
coedge $-1 $187 $362 $371 $373 forward $286 $-1 #
loop $-1 $-1 $187 $269 #
vertex $-1 $188 $374 #
straight-curve $-1 0 -33.559835985164426 13.197894298789249 -1 0 0 I I #
edge $-1 $192 -5.920806497636562 $364 5.920806497636562 $190 $375 forward 7 unknown #
point $-1 -30.15126434187389 -33.559835985164426 -13.197894298789249 #
point $-1 -30.15126434187389 -33.559835985164426 13.197894298789249 #
plane-surface $-1 0 0 13.197894298789249 0 0 1 1 0 0 forward_v I I I I #
coedge $-1 $303 $302 $295 $376 forward $195 $-1 #
coedge $-1 $295 $197 $199 $299 reversed $117 $-1 #
coedge $-1 $197 $294 $293 $376 reversed $117 $-1 #
coedge $-1 $205 $200 $197 $297 forward $206 $-1 #
edge $-1 $300 -19.16117293507773 $377 -16.003585700919878 $296 $378 forward 7 unknown #
coedge $-1 $199 $198 $303 $379 reversed $73 $-1 #
edge $-1 $380 -3.6960145052660132e-014 $300 5.3720083693030958 $294 $381 forward 7 unknown #
vertex $-1 $201 $382 #
straight-curve $-1 -48.631102606230343 8.1752583467046307 13.197894298789249 0 1 0 I I #
coedge $-1 $293 $202 $205 $307 reversed $195 $-1 #
coedge $-1 $202 $293 $298 $379 forward $195 $-1 #
vertex $-1 $203 $383 #
straight-curve $-1 -51.788689840388194 9.585420711425332 34.866551635449397 0 0 1 I I #
straight-curve $-1 -51.788689840388173 9.585420711425332 8.8518481901353141 -0.5877852410284794 0 -0.80901700255871778 I I #
edge $-1 $377 -23.115612675393191 $207 -9.585420711425332 $302 $384 forward 7 unknown #
point $-1 -51.788689840388194 9.585420711425332 13.197894298789249 #
point $-1 -48.631102606230343 9.585420711425332 13.197894298789249 #
edge $-1 $385 1 $385 0 $210 $-1 forward 7 unknown #
vertex $-1 $211 $386 #
ellipse-curve $-1 -48.870390029888519 16.350516693409254 10.051663056910233 -0.80901700255871778 0 0.5877852410284794 0.5877852410284794 0 0.80901700255871778 1 I I #
point $-1 -49.622110982280802 16.350516693409254 11.833888247021003 #
plane-surface $-1 51.788689840388194 0 0 -1 0 0 0 0 1 forward_v I I I I #
coedge $-1 $222 $387 $319 $388 forward $215 $-1 #
coedge $-1 $317 $217 $387 $389 reversed $132 $-1 #
coedge $-1 $217 $316 $320 $390 forward $132 $-1 #
edge $-1 $321 -70.080412821969588 $391 -57.024348823727038 $217 $392 forward 7 unknown #
coedge $-1 $219 $218 $315 $388 reversed $82 $-1 #
coedge $-1 $225 $220 $317 $390 reversed $226 $-1 #
vertex $-1 $221 $393 #
straight-curve $-1 51.788689840388194 15.168082658983352 4.8056180262949226 0 1 0 I I #
coedge $-1 $387 $222 $225 $327 forward $215 $-1 #
vertex $-1 $223 $394 #
straight-curve $-1 19.511035755333435 27.11249465076898 13.197894298789251 1 0 0 I I #
straight-curve $-1 -27.556185610248299 27.11249465076898 71.383875147210105 -0.76604443648966558 0 0.64278761758704617 I I #
edge $-1 $227 27.11249465076898 $395 33.559835985164426 $225 $396 forward 7 unknown #
point $-1 51.788689840388194 27.11249465076898 13.197894298789249 #
point $-1 51.788689840388194 27.11249465076898 4.8056180262949226 #
edge $-1 $397 1 $397 0 $230 $-1 forward 7 unknown #
vertex $-1 $231 $398 #
ellipse-curve $-1 45.689026621765329 28.401962917648071 7.6921374228564767 0.64278761758704617 0 0.76604443648966558 0.38302221824483279 0 -0.32139380879352308 1 I I #
point $-1 47.170949464479634 28.401962917648071 8.6803623537485564 #
edge $-1 $399 1 $399 0 $234 $-1 forward 7 unknown #
vertex $-1 $235 $400 #
ellipse-curve $-1 45.689026621765329 30.336165317966703 7.6921374228564767 0.64278761758704617 0 0.76604443648966558 0.38302221824483279 0 -0.32139380879352308 1 I I #
point $-1 47.170949464479634 30.336165317966703 8.6803623537485564 #
edge $-1 $401 1 $401 0 $238 $-1 forward 7 unknown #
vertex $-1 $239 $402 #
ellipse-curve $-1 45.689026621765329 32.270367718285343 7.6921374228564767 0.64278761758704617 0 0.76604443648966558 0.38302221824483279 0 -0.32139380879352308 1 I I #
point $-1 47.170949464479634 32.270367718285343 8.6803623537485564 #
plane-surface $-1 51.788689840388194 0 0 -1 0 0 0 0 1 forward_v I I I I #
coedge $-1 $247 $245 $249 $347 reversed $161 $-1 #
edge $-1 $260 -13.197894298789249 $349 13.197894298789249 $259 $403 forward 7 unknown #
vertex $-1 $347 $404 #
straight-curve $-1 -51.788689840388194 -33.559835985164426 0 0 0 -1 I I #
edge $-1 $345 -33.559835985164426 $349 33.559835985164426 $343 $405 forward 7 unknown #
straight-curve $-1 0 -33.559835985164426 -13.197894298789249 -1 0 0 I I #
vertex $-1 $252 $406 #
straight-curve $-1 0 33.559835985164426 -13.197894298789249 1 0 0 I I #
point $-1 51.788689840388194 33.559835985164426 -13.197894298789249 #
point $-1 51.788689840388194 -33.559835985164426 -13.197894298789249 #
straight-curve $-1 -51.788689840388194 0 13.197894298789249 0 -1 0 I I #
point $-1 -51.788689840388194 33.559835985164426 13.197894298789249 #
point $-1 -51.788689840388194 -33.559835985164426 13.197894298789249 #
straight-curve $-1 51.788689840388194 -33.559835985164426 0 0 0 -1 I I #
straight-curve $-1 51.788689840388194 33.559835985164426 0 0 0 -1 I I #
plane-surface $-1 0 0 13.197894298789249 0 0 1 1 0 0 forward_v I I I I #
coedge $-1 $277 $371 $360 $407 forward $270 $-1 #
coedge $-1 $273 $272 $359 $407 reversed $109 $-1 #
edge $-1 $367 -2.3791815495320989 $365 2.3791815495320989 $272 $408 forward 7 unknown #
coedge $-1 $285 $284 $273 $363 forward $286 $-1 #
edge $-1 $364 -2.3791815495320989 $409 2.3791815495320989 $273 $410 forward 7 unknown #
vertex $-1 $289 $411 #
vertex $-1 $279 $412 #
straight-curve $-1 -30.15126434187389 -45.40144898043755 0 0 0 -1 I I #
vertex $-1 $407 $413 #
straight-curve $-1 -25.392901242809693 -39.480642482800988 -13.197894298789249 0 -1 0 I I #
straight-curve $-1 -30.15126434187389 -39.480642482800988 -13.197894298789249 0 1 0 I I #
point $-1 -25.392901242809693 -33.559835985164426 -13.197894298789249 #
coedge $-1 $359 $282 $285 $373 reversed $270 $-1 #
straight-curve $-1 -25.392901242809693 -33.559835985164426 0 0 0 -1 I I #
edge $-1 $409 -5.920806497636562 $287 5.920806497636562 $371 $414 forward 7 unknown #
point $-1 -25.392901242809693 -33.559835985164426 13.197894298789249 #
straight-curve $-1 -30.15126434187389 -39.480642482800988 13.197894298789249 0 -1 0 I I #
edge $-1 $377 21.668657336660146 $380 26.014703445314112 $293 $415 forward 7 unknown #
vertex $-1 $307 $416 #
straight-curve $-1 -67.792275541308072 23.115612675393191 13.197894298789251 -1 0 0 I I #
edge $-1 $380 -14.94035432868856 $304 -1.4101623647207013 $303 $417 forward 7 unknown #
vertex $-1 $379 $418 #
straight-curve $-1 -51.788689840388173 23.115612675393191 8.8518481901353141 0.5877852410284794 0 0.80901700255871778 I I #
point $-1 -48.631102606230343 23.115612675393191 13.197894298789249 #
point $-1 -51.788689840388194 9.585420711425332 8.8518481901352839 #
straight-curve $-1 -51.788689840388194 0 13.197894298789249 0 -1 0 I I #
vertex $-1 $310 $419 #
point $-1 -48.282604788860041 16.350516693409254 10.860680059468949 #
coedge $-1 $315 $323 $316 $389 forward $215 $-1 #
edge $-1 $391 -18.391753326181075 $324 -11.944411991785628 $315 $420 forward 7 unknown #
edge $-1 $395 -51.788689840388194 $391 -41.787164652081479 $316 $421 forward 7 unknown #
edge $-1 $395 -13.197894298789249 $321 -4.80561802629492 $320 $422 forward 7 unknown #
vertex $-1 $388 $423 #
straight-curve $-1 -1.8960205087806301 33.559835985164426 49.852439623645431 -0.76604443648966558 0 0.64278761758704617 I I #
point $-1 51.788689840388194 33.559835985164426 4.80561802629492 #
point $-1 41.787164652081479 27.11249465076898 13.197894298789251 #
vertex $-1 $327 $424 #
straight-curve $-1 51.788689840388194 0 13.197894298789249 0 1 0 I I #
vertex $-1 $330 $425 #
point $-1 46.072048840010162 28.401962917648071 7.3707436140629543 #
vertex $-1 $334 $426 #
point $-1 46.072048840010162 30.336165317966703 7.3707436140629543 #
vertex $-1 $338 $427 #
point $-1 46.072048840010162 32.270367718285343 7.3707436140629543 #
straight-curve $-1 -51.788689840388194 33.559835985164426 0 0 0 -1 I I #
point $-1 -51.788689840388194 -33.559835985164426 -13.197894298789249 #
straight-curve $-1 -51.788689840388194 0 -13.197894298789249 0 1 0 I I #
point $-1 -51.788689840388194 33.559835985164426 -13.197894298789249 #
edge $-1 $409 -13.197894298789249 $367 13.197894298789249 $359 $428 forward 7 unknown #
straight-curve $-1 -27.772082792341791 -45.40144898043755 -13.197894298789249 -1 0 0 I I #
vertex $-1 $373 $429 #
straight-curve $-1 -27.772082792341791 -45.40144898043755 13.197894298789249 1 0 0 I I #
point $-1 -30.15126434187389 -45.40144898043755 13.197894298789249 #
point $-1 -30.15126434187389 -45.40144898043755 -13.197894298789249 #
point $-1 -25.392901242809693 -45.40144898043755 -13.197894298789249 #
straight-curve $-1 -25.392901242809693 -39.480642482800988 13.197894298789249 0 1 0 I I #
straight-curve $-1 -51.788689840388194 23.115612675393191 34.866551635449397 0 0 -1 I I #
point $-1 -51.788689840388194 23.115612675393191 13.197894298789249 #
straight-curve $-1 -51.788689840388194 8.1752583467046307 8.8518481901352857 0 -1 0 I I #
point $-1 -51.788689840388194 23.115612675393191 8.8518481901352839 #
point $-1 -48.0613730273298 16.350516693409254 9.4638778158817516 #
straight-curve $-1 41.787164652081472 15.168082658983352 13.197894298789258 0 -1 0 I I #
straight-curve $-1 0 33.559835985164426 13.197894298789249 -1 0 0 I I #
straight-curve $-1 51.788689840388194 33.559835985164426 0 0 0 -1 I I #
point $-1 41.787164652081479 33.559835985164426 13.197894298789251 #
point $-1 51.788689840388194 33.559835985164426 13.197894298789249 #
point $-1 45.367632812971813 28.401962917648071 7.3091152046116461 #
point $-1 45.367632812971813 30.336165317966703 7.3091152046116461 #
point $-1 45.367632812971813 32.270367718285343 7.3091152046116461 #
straight-curve $-1 -25.392901242809693 -45.40144898043755 0 0 0 -1 I I #
point $-1 -25.392901242809693 -45.40144898043755 13.197894298789249 #
End-of-ACIS-data 