500 0 9 0           
7 Unknown 11 ACIS 5.0 NT 24 Fri Mar 26 00:08:58 1999 
-1 9.9999999999999995e-007 1e-010 
body $-1 $9 $-1 $10 #
body $-1 $11 $-1 $12 #
body $-1 $13 $-1 $14 #
body $-1 $15 $-1 $16 #
body $-1 $17 $-1 $18 #
body $-1 $19 $-1 $20 #
body $-1 $21 $-1 $22 #
body $-1 $23 $-1 $24 #
body $-1 $25 $-1 $26 #
lump $-1 $-1 $27 $0 #
transform $-1 1 0 0 0 1 0 0 0 1 60.458388012329479 30.018668109005805 9.90450228970899 1 rotate no_reflect no_shear #
lump $-1 $-1 $28 $1 #
transform $-1 1 0 0 0 1 0 0 0 1 60.458388012329479 30.018668109005805 9.90450228970899 1 rotate no_reflect no_shear #
lump $-1 $-1 $29 $2 #
transform $-1 1 0 0 0 1 0 0 0 1 60.458388012329479 30.018668109005805 9.90450228970899 1 rotate no_reflect no_shear #
lump $-1 $-1 $30 $3 #
transform $-1 1 0 0 0 1 0 0 0 1 60.458388012329479 30.018668109005805 9.90450228970899 1 rotate no_reflect no_shear #
lump $-1 $-1 $31 $4 #
transform $-1 1 0 0 0 1 0 0 0 1 60.458388012329479 30.018668109005805 9.90450228970899 1 rotate no_reflect no_shear #
lump $-1 $-1 $32 $5 #
transform $-1 1 0 0 0 1 0 0 0 1 60.458388012329479 30.018668109005805 9.90450228970899 1 rotate no_reflect no_shear #
lump $-1 $-1 $33 $6 #
transform $-1 1 0 0 0 1 0 0 0 1 60.458388012329479 30.018668109005805 9.90450228970899 1 rotate no_reflect no_shear #
lump $-1 $-1 $34 $7 #
transform $-1 1 0 0 0 1 0 0 0 1 60.458388012329479 30.018668109005805 9.90450228970899 1 rotate no_reflect no_shear #
lump $-1 $-1 $35 $8 #
transform $-1 1 0 0 0 1 0 0 0 1 60.458388012329479 30.018668109005805 9.90450228970899 1 rotate no_reflect no_shear #
shell $-1 $-1 $-1 $36 $-1 $9 #
shell $-1 $-1 $-1 $37 $-1 $11 #
shell $-1 $-1 $-1 $38 $-1 $13 #
shell $-1 $-1 $-1 $39 $-1 $15 #
shell $-1 $-1 $-1 $40 $-1 $17 #
shell $-1 $-1 $-1 $41 $-1 $19 #
shell $-1 $-1 $-1 $42 $-1 $21 #
shell $-1 $-1 $-1 $43 $-1 $23 #
shell $-1 $-1 $-1 $44 $-1 $25 #
face $-1 $45 $46 $27 $-1 $47 forward single #
face $-1 $48 $49 $28 $-1 $50 reversed single #
face $-1 $51 $52 $29 $-1 $53 forward single #
face $-1 $54 $55 $30 $-1 $56 forward single #
face $-1 $57 $58 $31 $-1 $59 forward single #
face $-1 $60 $61 $32 $-1 $62 reversed single #
face $-1 $63 $64 $33 $-1 $65 forward single #
face $-1 $66 $67 $34 $-1 $68 forward single #
face $-1 $69 $70 $35 $-1 $71 forward single #
face $-1 $72 $73 $27 $-1 $74 reversed single #
loop $-1 $-1 $75 $36 #
plane-surface $-1 0 0 9.90450228970899 0 0 1 1 0 0 forward_v I I I I #
face $-1 $76 $77 $28 $-1 $78 reversed single #
loop $-1 $-1 $79 $37 #
plane-surface $-1 -161.86773020291679 -17.401244835648669 72.257098592309248 0 -1 0 0.83867057594974714 0 -0.54463902268945019 forward_v I I I I #
face $-1 $80 $81 $29 $-1 $82 forward single #
loop $-1 $83 $84 $38 #
cone-surface $-1 -58.901485993558495 -27.495183454334377 7.8804835692496855 0.83867057594974714 0 -0.54463902268945019 0.2723195113447251 0 0.41933528797487357 1 I I 0 1 0.5 forward I I I I #
face $-1 $85 $86 $30 $-1 $87 forward single #
loop $-1 $88 $89 $39 #
cone-surface $-1 -58.901485993558495 -23.709956472327235 7.8804835692496855 0.83867057594974714 0 -0.54463902268945019 0.2723195113447251 0 0.41933528797487357 1 I I 0 1 0.5 forward I I I I #
face $-1 $90 $91 $31 $-1 $92 forward single #
loop $-1 $93 $94 $40 #
cone-surface $-1 -58.901485993558495 -19.924729490320097 7.8804835692496855 0.83867057594974714 0 -0.54463902268945019 0.2723195113447251 0 0.41933528797487357 1 I I 0 1 0.5 forward I I I I #
face $-1 $95 $96 $32 $-1 $97 reversed single #
loop $-1 $-1 $98 $41 #
plane-surface $-1 -5.3976067084998931 -23.709956472327235 107.81044606206713 0.83867057594974714 0 0.54463902268945019 0.54463902268945019 0 -0.83867057594974714 forward_v I I I I #
face $-1 $99 $100 $33 $-1 $101 forward single #
loop $-1 $102 $103 $42 #
cone-surface $-1 58.901485993558474 -27.495183454334377 7.8804835692496891 -0.83867057594974714 0 -0.54463902268945019 0.2723195113447251 0 -0.41933528797487357 1 I I 0 1 0.5 forward I I I I #
face $-1 $104 $105 $34 $-1 $106 forward single #
loop $-1 $107 $108 $43 #
cone-surface $-1 58.901485993558474 -23.709956472327235 7.8804835692496891 -0.83867057594974714 0 -0.54463902268945019 0.2723195113447251 0 -0.41933528797487357 1 I I 0 1 0.5 forward I I I I #
face $-1 $109 $110 $35 $-1 $111 forward single #
loop $-1 $112 $113 $44 #
cone-surface $-1 58.901485993558474 -19.924729490320097 7.8804835692496891 -0.83867057594974714 0 -0.54463902268945019 0.2723195113447251 0 -0.41933528797487357 1 I I 0 1 0.5 forward I I I I #
face $-1 $114 $115 $27 $-1 $116 reversed single #
loop $-1 $-1 $117 $45 #
plane-surface $-1 0 0 -9.90450228970899 0 0 1 1 0 0 forward_v I I I I #
coedge $-1 $118 $119 $120 $121 forward $46 $-1 #
face $-1 $122 $123 $28 $-1 $124 forward single #
loop $-1 $-1 $125 $48 #
plane-surface $-1 -60.458388012329479 -23.709956472327235 6.4011038714798474 -0.83867057594974714 0 0.54463902268945019 0.54463902268945019 0 0.83867057594974714 forward_v I I I I #
coedge $-1 $126 $127 $128 $129 reversed $49 $-1 #
face $-1 $-1 $130 $29 $-1 $131 forward single #
loop $-1 $132 $133 $51 #
cone-surface $-1 -58.272483061596184 -27.495183454334377 7.4720043022325981 0.83867057594974714 0 -0.54463902268945019 0.13615975567236255 0 0.20966764398743679 1 I I -0.70710678118654746 0.70710678118654746 0.25 forward I I I I #
loop $-1 $-1 $134 $38 #
coedge $-1 $84 $84 $135 $136 reversed $52 $-1 #
face $-1 $-1 $137 $30 $-1 $138 forward single #
loop $-1 $139 $140 $54 #
cone-surface $-1 -58.272483061596184 -23.709956472327235 7.4720043022325981 0.83867057594974714 0 -0.54463902268945019 0.13615975567236255 0 0.20966764398743679 1 I I -0.70710678118654746 0.70710678118654746 0.25 forward I I I I #
loop $-1 $-1 $141 $39 #
coedge $-1 $89 $89 $142 $143 reversed $55 $-1 #
face $-1 $-1 $144 $31 $-1 $145 forward single #
loop $-1 $146 $147 $57 #
cone-surface $-1 -58.272483061596184 -19.924729490320097 7.4720043022325981 0.83867057594974714 0 -0.54463902268945019 0.13615975567236255 0 0.20966764398743679 1 I I -0.70710678118654746 0.70710678118654746 0.25 forward I I I I #
loop $-1 $-1 $148 $40 #
coedge $-1 $94 $94 $149 $150 reversed $58 $-1 #
face $-1 $151 $152 $32 $-1 $153 forward single #
loop $-1 $-1 $154 $60 #
plane-surface $-1 96.011735482087417 -17.401244835648669 173.66644078289653 0 -1 0 -0.83867057594974714 0 -0.54463902268945019 forward_v I I I I #
coedge $-1 $155 $156 $157 $158 reversed $61 $-1 #
face $-1 $-1 $159 $33 $-1 $160 forward single #
loop $-1 $161 $162 $63 #
cone-surface $-1 58.272483061596162 -27.495183454334377 7.4720043022326017 -0.83867057594974714 0 -0.54463902268945019 0.13615975567236255 0 -0.20966764398743679 1 I I -0.70710678118654746 0.70710678118654746 0.25 forward I I I I #
loop $-1 $-1 $163 $42 #
coedge $-1 $103 $103 $164 $165 reversed $64 $-1 #
face $-1 $-1 $166 $34 $-1 $167 forward single #
loop $-1 $168 $169 $66 #
cone-surface $-1 58.272483061596162 -23.709956472327235 7.4720043022326017 -0.83867057594974714 0 -0.54463902268945019 0.13615975567236255 0 -0.20966764398743679 1 I I -0.70710678118654746 0.70710678118654746 0.25 forward I I I I #
loop $-1 $-1 $170 $43 #
coedge $-1 $108 $108 $171 $172 reversed $67 $-1 #
face $-1 $-1 $173 $35 $-1 $174 forward single #
loop $-1 $175 $176 $69 #
cone-surface $-1 58.272483061596162 -19.924729490320097 7.4720043022326017 -0.83867057594974714 0 -0.54463902268945019 0.13615975567236255 0 -0.20966764398743679 1 I I -0.70710678118654746 0.70710678118654746 0.25 forward I I I I #
loop $-1 $-1 $177 $44 #
coedge $-1 $113 $113 $178 $179 reversed $70 $-1 #
face $-1 $180 $181 $27 $-1 $182 reversed single #
loop $-1 $-1 $183 $72 #
plane-surface $-1 0 -30.018668109005805 0 0 1 0 0 0 1 forward_v I I I I #
coedge $-1 $184 $185 $186 $187 forward $73 $-1 #
coedge $-1 $188 $75 $189 $190 forward $46 $-1 #
coedge $-1 $75 $188 $191 $192 forward $46 $-1 #
coedge $-1 $193 $194 $75 $121 reversed $195 $-1 #
edge $-1 $196 -30.018668109005805 $197 30.018668109005805 $120 $198 forward 7 unknown #
face $-1 $199 $200 $28 $-1 $201 reversed single #
loop $-1 $-1 $202 $76 #
plane-surface $-1 0 0 9.90450228970899 0 0 1 1 0 0 forward_v I I I I #
coedge $-1 $203 $204 $205 $206 reversed $77 $-1 #
coedge $-1 $127 $79 $207 $208 reversed $49 $-1 #
coedge $-1 $79 $126 $203 $209 reversed $49 $-1 #
coedge $-1 $205 $210 $79 $129 forward $200 $-1 #
edge $-1 $211 26.224047006445634 $212 29.727445424674777 $128 $213 forward 7 unknown #
loop $-1 $-1 $135 $80 #
plane-surface $-1 -60.458388012329479 -23.709956472327235 6.4011038714798474 -0.83867057594974714 0 0.54463902268945019 0.54463902268945019 0 0.83867057594974714 forward_v I I I I #
loop $-1 $-1 $214 $51 #
coedge $-1 $133 $133 $134 $215 reversed $81 $-1 #
coedge $-1 $134 $134 $133 $215 forward $83 $-1 #
coedge $-1 $135 $135 $84 $136 forward $130 $-1 #
edge $-1 $216 0 $216 6.2831853071796004 $135 $217 forward 7 unknown #
loop $-1 $-1 $142 $85 #
plane-surface $-1 -60.458388012329479 -23.709956472327235 6.4011038714798474 -0.83867057594974714 0 0.54463902268945019 0.54463902268945019 0 0.83867057594974714 forward_v I I I I #
loop $-1 $-1 $218 $54 #
coedge $-1 $140 $140 $141 $219 reversed $86 $-1 #
coedge $-1 $141 $141 $140 $219 forward $88 $-1 #
coedge $-1 $142 $142 $89 $143 forward $137 $-1 #
edge $-1 $220 0 $220 6.2831853071796004 $142 $221 forward 7 unknown #
loop $-1 $-1 $149 $90 #
plane-surface $-1 -60.458388012329479 -23.709956472327235 6.4011038714798474 -0.83867057594974714 0 0.54463902268945019 0.54463902268945019 0 0.83867057594974714 forward_v I I I I #
loop $-1 $-1 $222 $57 #
coedge $-1 $147 $147 $148 $223 reversed $91 $-1 #
coedge $-1 $148 $148 $147 $223 forward $93 $-1 #
coedge $-1 $149 $149 $94 $150 forward $144 $-1 #
edge $-1 $224 0 $224 6.2831853071796004 $149 $225 forward 7 unknown #
face $-1 $226 $227 $32 $-1 $228 reversed single #
loop $-1 $-1 $229 $95 #
plane-surface $-1 0 0 9.90450228970899 0 0 1 1 0 0 forward_v I I I I #
coedge $-1 $230 $231 $232 $233 reversed $96 $-1 #
coedge $-1 $234 $98 $235 $236 reversed $61 $-1 #
coedge $-1 $98 $234 $230 $237 forward $61 $-1 #
coedge $-1 $232 $238 $98 $158 forward $239 $-1 #
edge $-1 $240 -18.163689872842188 $241 -5.5462665994850511 $157 $242 forward 7 unknown #
loop $-1 $-1 $164 $99 #
plane-surface $-1 -5.3976067084998931 -23.709956472327235 107.81044606206713 0.83867057594974714 0 0.54463902268945019 0.54463902268945019 0 -0.83867057594974714 forward_v I I I I #
loop $-1 $-1 $243 $63 #
coedge $-1 $162 $162 $163 $244 reversed $100 $-1 #
coedge $-1 $163 $163 $162 $244 forward $102 $-1 #
coedge $-1 $164 $164 $103 $165 forward $159 $-1 #
edge $-1 $245 0 $245 6.2831853071796004 $164 $246 forward 7 unknown #
loop $-1 $-1 $171 $104 #
plane-surface $-1 -5.3976067084998931 -23.709956472327235 107.81044606206713 0.83867057594974714 0 0.54463902268945019 0.54463902268945019 0 -0.83867057594974714 forward_v I I I I #
loop $-1 $-1 $247 $66 #
coedge $-1 $169 $169 $170 $248 reversed $105 $-1 #
coedge $-1 $170 $170 $169 $248 forward $107 $-1 #
coedge $-1 $171 $171 $108 $172 forward $166 $-1 #
edge $-1 $249 0 $249 6.2831853071796004 $171 $250 forward 7 unknown #
loop $-1 $-1 $178 $109 #
plane-surface $-1 -5.3976067084998931 -23.709956472327235 107.81044606206713 0.83867057594974714 0 0.54463902268945019 0.54463902268945019 0 -0.83867057594974714 forward_v I I I I #
loop $-1 $-1 $251 $69 #
coedge $-1 $176 $176 $177 $252 reversed $110 $-1 #
coedge $-1 $177 $177 $176 $252 forward $112 $-1 #
coedge $-1 $178 $178 $113 $179 forward $173 $-1 #
edge $-1 $253 0 $253 6.2831853071796004 $178 $254 forward 7 unknown #
face $-1 $255 $256 $27 $-1 $257 reversed single #
loop $-1 $-1 $258 $114 #
plane-surface $-1 -60.458388012329479 0 0 1 0 0 0 0 -1 forward_v I I I I #
coedge $-1 $259 $191 $260 $261 forward $115 $-1 #
coedge $-1 $262 $117 $259 $263 forward $73 $-1 #
coedge $-1 $117 $262 $264 $265 forward $73 $-1 #
coedge $-1 $194 $193 $117 $187 reversed $195 $-1 #
edge $-1 $266 -30.018668109005805 $267 30.018668109005805 $186 $268 forward 7 unknown #
coedge $-1 $119 $118 $269 $270 forward $46 $-1 #
coedge $-1 $271 $272 $118 $190 reversed $256 $-1 #
edge $-1 $197 -60.458388012329479 $273 60.458388012329479 $189 $274 forward 7 unknown #
coedge $-1 $183 $275 $119 $192 reversed $115 $-1 #
edge $-1 $276 -60.458388012329479 $196 60.458388012329479 $191 $277 forward 7 unknown #
coedge $-1 $186 $120 $275 $278 forward $195 $-1 #
coedge $-1 $120 $186 $271 $279 reversed $195 $-1 #
loop $-1 $-1 $193 $255 #
vertex $-1 $121 $280 #
vertex $-1 $121 $281 #
straight-curve $-1 60.458388012329479 0 9.90450228970899 0 1 0 I I #
face $-1 $-1 $282 $28 $-1 $283 reversed single #
loop $-1 $-1 $128 $122 #
plane-surface $-1 -60.458388012329479 0 0 1 0 0 0 0 -1 forward_v I I I I #
coedge $-1 $207 $284 $285 $286 forward $123 $-1 #
coedge $-1 $285 $125 $127 $209 forward $77 $-1 #
coedge $-1 $125 $285 $287 $288 reversed $77 $-1 #
coedge $-1 $289 $128 $125 $206 forward $200 $-1 #
edge $-1 $212 5.5462665994850511 $290 18.163689872842188 $205 $291 forward 7 unknown #
coedge $-1 $292 $202 $126 $208 forward $123 $-1 #
edge $-1 $293 -22.750610550721134 $211 -20.475477089128916 $207 $294 forward 7 unknown #
edge $-1 $212 0 $293 4.1773236342073199 $127 $295 forward 7 unknown #
coedge $-1 $128 $289 $292 $296 reversed $200 $-1 #
vertex $-1 $296 $297 #
vertex $-1 $129 $298 #
straight-curve $-1 -60.458388012329479 -17.401244835648669 36.128549296154624 0 0 -1 I I #
coedge $-1 $214 $214 $-1 $299 reversed $132 $-1 #
edge $-1 $300 0 $300 6.2831853071796004 $133 $301 forward 7 unknown #
vertex $-1 $136 $302 #
ellipse-curve $-1 -59.320821281533377 -27.495183454334377 8.1528030805944134 -0.83867057594974714 0 0.54463902268945019 0.2723195113447251 0 0.41933528797487357 1 I I #
coedge $-1 $218 $218 $-1 $303 reversed $139 $-1 #
edge $-1 $304 0 $304 6.2831853071796004 $140 $305 forward 7 unknown #
vertex $-1 $143 $306 #
ellipse-curve $-1 -59.320821281533377 -23.709956472327235 8.1528030805944134 -0.83867057594974714 0 0.54463902268945019 0.2723195113447251 0 0.41933528797487357 1 I I #
coedge $-1 $222 $222 $-1 $307 reversed $146 $-1 #
edge $-1 $308 0 $308 6.2831853071796004 $147 $309 forward 7 unknown #
vertex $-1 $150 $310 #
ellipse-curve $-1 -59.320821281533377 -19.924729490320097 8.1528030805944134 -0.83867057594974714 0 0.54463902268945019 0.2723195113447251 0 0.41933528797487357 1 I I #
face $-1 $-1 $239 $32 $-1 $311 reversed single #
loop $-1 $-1 $235 $151 #
plane-surface $-1 0 -30.018668109005805 0 0 1 0 0 0 1 forward_v I I I I #
coedge $-1 $312 $313 $231 $314 forward $152 $-1 #
coedge $-1 $231 $154 $156 $237 reversed $96 $-1 #
coedge $-1 $154 $230 $229 $314 reversed $96 $-1 #
coedge $-1 $315 $157 $154 $233 forward $239 $-1 #
edge $-1 $241 -80.432116519968403 $316 -76.928718101739278 $232 $317 forward 7 unknown #
coedge $-1 $156 $155 $312 $318 reversed $61 $-1 #
coedge $-1 $319 $320 $155 $236 forward $227 $-1 #
edge $-1 $321 70.060854323025424 $240 74.238177957232722 $235 $322 forward 7 unknown #
edge $-1 $323 116.73945239045162 $241 120.91677602465893 $230 $324 forward 7 unknown #
coedge $-1 $157 $315 $319 $325 forward $239 $-1 #
loop $-1 $-1 $232 $226 #
vertex $-1 $236 $326 #
vertex $-1 $158 $327 #
straight-curve $-1 60.458388012329472 -11.854978236163618 6.4011038714798687 0 1 0 I I #
coedge $-1 $243 $243 $-1 $328 reversed $161 $-1 #
edge $-1 $329 0 $329 6.2831853071796004 $162 $330 forward 7 unknown #
vertex $-1 $165 $331 #
ellipse-curve $-1 59.320821281533362 -27.495183454334377 8.1528030805944258 0.83867057594974714 0 0.54463902268945019 0.2723195113447251 0 -0.41933528797487357 1 I I #
coedge $-1 $247 $247 $-1 $332 reversed $168 $-1 #
edge $-1 $333 0 $333 6.2831853071796004 $169 $334 forward 7 unknown #
vertex $-1 $172 $335 #
ellipse-curve $-1 59.320821281533362 -23.709956472327235 8.1528030805944258 0.83867057594974714 0 0.54463902268945019 0.2723195113447251 0 -0.41933528797487357 1 I I #
coedge $-1 $251 $251 $-1 $336 reversed $175 $-1 #
edge $-1 $337 0 $337 6.2831853071796004 $176 $338 forward 7 unknown #
vertex $-1 $179 $339 #
ellipse-curve $-1 59.320821281533362 -19.924729490320097 8.1528030805944258 0.83867057594974714 0 0.54463902268945019 0.2723195113447251 0 -0.41933528797487357 1 I I #
face $-1 $-1 $195 $27 $-1 $340 reversed single #
loop $-1 $-1 $271 $180 #
plane-surface $-1 0 30.018668109005805 0 0 -1 0 0 0 -1 forward_v I I I I #
coedge $-1 $341 $269 $272 $342 forward $181 $-1 #
coedge $-1 $275 $183 $184 $263 reversed $115 $-1 #
coedge $-1 $269 $341 $183 $261 reversed $181 $-1 #
edge $-1 $276 -9.90450228970899 $343 9.90450228970899 $260 $344 forward 7 unknown #
coedge $-1 $185 $184 $341 $345 forward $73 $-1 #
edge $-1 $267 -60.458388012329479 $343 60.458388012329479 $259 $346 forward 7 unknown #
coedge $-1 $272 $271 $185 $265 reversed $256 $-1 #
edge $-1 $347 -60.458388012329479 $266 60.458388012329479 $264 $348 forward 7 unknown #
vertex $-1 $187 $349 #
vertex $-1 $278 $350 #
straight-curve $-1 60.458388012329479 0 -9.90450228970899 0 -1 0 I I #
coedge $-1 $258 $260 $188 $270 reversed $181 $-1 #
edge $-1 $273 -30.018668109005805 $276 30.018668109005805 $269 $351 forward 7 unknown #
coedge $-1 $264 $189 $194 $279 forward $256 $-1 #
coedge $-1 $189 $264 $258 $342 reversed $256 $-1 #
vertex $-1 $190 $352 #
straight-curve $-1 0 30.018668109005805 9.90450228970899 -1 0 0 I I #
coedge $-1 $191 $259 $193 $278 reversed $115 $-1 #
vertex $-1 $270 $353 #
straight-curve $-1 0 -30.018668109005805 9.90450228970899 1 0 0 I I #
edge $-1 $196 -9.90450228970899 $267 9.90450228970899 $193 $354 forward 7 unknown #
edge $-1 $197 -9.90450228970899 $266 9.90450228970899 $194 $355 forward 7 unknown #
point $-1 60.458388012329479 -30.018668109005805 9.90450228970899 #
point $-1 60.458388012329479 30.018668109005805 9.90450228970899 #
loop $-1 $-1 $287 $199 #
plane-surface $-1 0 -30.018668109005805 0 0 1 0 0 0 1 forward_v I I I I #
coedge $-1 $202 $292 $356 $357 forward $123 $-1 #
coedge $-1 $204 $203 $202 $286 reversed $77 $-1 #
edge $-1 $358 -18.163689872842184 $293 -5.5462665994850511 $202 $359 forward 7 unknown #
coedge $-1 $356 $360 $204 $288 forward $282 $-1 #
edge $-1 $290 -13.779789944903268 $358 -9.6024663106959487 $287 $361 forward 7 unknown #
coedge $-1 $210 $205 $360 $362 reversed $200 $-1 #
vertex $-1 $206 $363 #
straight-curve $-1 -60.458388012329479 -11.854978236163618 6.4011038714798456 0 -1 0 I I #
coedge $-1 $284 $207 $210 $296 forward $123 $-1 #
vertex $-1 $208 $364 #
straight-curve $-1 -80.933865101458395 -17.401244835648669 9.90450228970899 -1 0 0 I I #
straight-curve $-1 -60.458388012329479 -17.401244835648669 6.4011038714798474 0.54463902268945019 0 0.83867057594974714 I I #
edge $-1 $211 17.401244835648669 $365 30.018668109005805 $210 $366 forward 7 unknown #
point $-1 -60.458388012329479 -17.401244835648669 9.90450228970899 #
point $-1 -60.458388012329479 -17.401244835648669 6.4011038714798474 #
edge $-1 $367 1 $367 0 $214 $-1 forward 7 unknown #
vertex $-1 $215 $368 #
ellipse-curve $-1 -58.482150705583621 -27.495183454334377 7.6081640579049603 -0.83867057594974714 0 0.54463902268945019 0.2723195113447251 0 0.41933528797487357 1 I I #
point $-1 -59.048501770188643 -27.495183454334377 8.5721383685692842 #
edge $-1 $369 1 $369 0 $218 $-1 forward 7 unknown #
vertex $-1 $219 $370 #
ellipse-curve $-1 -58.482150705583621 -23.709956472327235 7.6081640579049603 -0.83867057594974714 0 0.54463902268945019 0.2723195113447251 0 0.41933528797487357 1 I I #
point $-1 -59.048501770188643 -23.709956472327235 8.5721383685692842 #
edge $-1 $371 1 $371 0 $222 $-1 forward 7 unknown #
vertex $-1 $223 $372 #
ellipse-curve $-1 -58.482150705583621 -19.924729490320097 7.6081640579049603 -0.83867057594974714 0 0.54463902268945019 0.2723195113447251 0 0.41933528797487357 1 I I #
point $-1 -59.048501770188643 -19.924729490320097 8.5721383685692842 #
plane-surface $-1 60.458388012329479 0 0 -1 0 0 0 0 1 forward_v I I I I #
coedge $-1 $373 $229 $234 $318 forward $152 $-1 #
coedge $-1 $229 $373 $315 $374 forward $152 $-1 #
edge $-1 $316 -12.452520271285771 $323 -10.177386809693566 $229 $375 forward 7 unknown #
coedge $-1 $238 $232 $313 $374 reversed $239 $-1 #
vertex $-1 $314 $376 #
straight-curve $-1 60.458388012329479 -17.401244835648669 86.833220391448265 0 0 1 I I #
edge $-1 $323 5.5462665994850511 $321 18.163689872842184 $312 $377 forward 7 unknown #
coedge $-1 $320 $235 $238 $325 reversed $227 $-1 #
coedge $-1 $235 $319 $373 $378 reversed $227 $-1 #
vertex $-1 $378 $379 #
straight-curve $-1 20.025379323456768 -30.018668109005805 68.662479336332055 0.54463902268945019 0 -0.83867057594974714 I I #
vertex $-1 $318 $380 #
straight-curve $-1 -5.3976067084998931 -17.401244835648669 107.81044606206713 0.54463902268945019 0 -0.83867057594974714 I I #
edge $-1 $381 -9.90450228970899 $240 -6.401103871479866 $238 $382 forward 7 unknown #
point $-1 60.458388012329479 -30.018668109005805 6.401103871479866 #
point $-1 60.458388012329479 -17.401244835648669 6.4011038714798616 #
edge $-1 $383 1 $383 0 $243 $-1 forward 7 unknown #
vertex $-1 $244 $384 #
ellipse-curve $-1 58.482150705583599 -27.495183454334377 7.6081640579049639 0.83867057594974714 0 0.54463902268945019 0.2723195113447251 0 -0.41933528797487357 1 I I #
point $-1 59.593140792878074 -27.495183454334377 7.7334677926195408 #
edge $-1 $385 1 $385 0 $247 $-1 forward 7 unknown #
vertex $-1 $248 $386 #
ellipse-curve $-1 58.482150705583599 -23.709956472327235 7.6081640579049639 0.83867057594974714 0 0.54463902268945019 0.2723195113447251 0 -0.41933528797487357 1 I I #
point $-1 59.593140792878074 -23.709956472327235 7.7334677926195408 #
edge $-1 $387 1 $387 0 $251 $-1 forward 7 unknown #
vertex $-1 $252 $388 #
ellipse-curve $-1 58.482150705583599 -19.924729490320097 7.6081640579049639 0.83867057594974714 0 0.54463902268945019 0.2723195113447251 0 -0.41933528797487357 1 I I #
point $-1 59.593140792878074 -19.924729490320097 7.7334677926195408 #
plane-surface $-1 60.458388012329479 0 0 -1 0 0 0 0 1 forward_v I I I I #
coedge $-1 $260 $258 $262 $345 reversed $181 $-1 #
edge $-1 $273 -9.90450228970899 $347 9.90450228970899 $272 $389 forward 7 unknown #
vertex $-1 $345 $390 #
straight-curve $-1 -60.458388012329479 -30.018668109005805 0 0 0 -1 I I #
edge $-1 $343 -30.018668109005805 $347 30.018668109005805 $341 $391 forward 7 unknown #
straight-curve $-1 0 -30.018668109005805 -9.90450228970899 -1 0 0 I I #
vertex $-1 $265 $392 #
straight-curve $-1 0 30.018668109005805 -9.90450228970899 1 0 0 I I #
point $-1 60.458388012329479 30.018668109005805 -9.90450228970899 #
point $-1 60.458388012329479 -30.018668109005805 -9.90450228970899 #
straight-curve $-1 -60.458388012329479 0 9.90450228970899 0 -1 0 I I #
point $-1 -60.458388012329479 30.018668109005805 9.90450228970899 #
point $-1 -60.458388012329479 -30.018668109005805 9.90450228970899 #
straight-curve $-1 60.458388012329479 -30.018668109005805 0 0 0 -1 I I #
straight-curve $-1 60.458388012329479 30.018668109005805 0 0 0 -1 I I #
coedge $-1 $360 $287 $284 $357 reversed $282 $-1 #
edge $-1 $365 -60.458388012329479 $358 -58.18325455073726 $356 $393 forward 7 unknown #
vertex $-1 $288 $394 #
straight-curve $-1 -58.183254550737267 -11.854978236163618 9.90450228970899 0 1 0 I I #
coedge $-1 $287 $356 $289 $362 forward $282 $-1 #
straight-curve $-1 -52.953376683871454 -30.018668109005805 17.957808241038407 0.54463902268945019 0 0.83867057594974714 I I #
edge $-1 $365 -9.90450228970899 $290 -6.4011038714798474 $289 $395 forward 7 unknown #
point $-1 -60.458388012329479 -30.018668109005805 6.4011038714798474 #
point $-1 -58.18325455073726 -17.401244835648669 9.90450228970899 #
vertex $-1 $296 $396 #
straight-curve $-1 -60.458388012329479 0 9.90450228970899 0 -1 0 I I #
vertex $-1 $299 $397 #
point $-1 -58.209831194238895 -27.495183454334377 8.0274993458798338 #
vertex $-1 $303 $398 #
point $-1 -58.209831194238895 -23.709956472327235 8.0274993458798338 #
vertex $-1 $307 $399 #
point $-1 -58.209831194238895 -19.924729490320097 8.0274993458798338 #
coedge $-1 $313 $312 $320 $378 forward $152 $-1 #
edge $-1 $381 -30.018668109005805 $316 -17.401244835648669 $315 $400 forward 7 unknown #
straight-curve $-1 48.005867741043708 -17.401244835648669 9.9045022897089865 -1 0 0 I I #
point $-1 60.458388012329479 -17.401244835648669 9.90450228970899 #
straight-curve $-1 58.183254550737274 -11.854978236163618 9.9045022897089865 0 -1 0 I I #
edge $-1 $321 58.183254550737274 $381 60.458388012329479 $320 $401 forward 7 unknown #
point $-1 58.183254550737274 -30.018668109005802 9.9045022897089865 #
point $-1 58.183254550737274 -17.401244835648669 9.9045022897089865 #
vertex $-1 $374 $402 #
straight-curve $-1 60.458388012329479 -30.018668109005805 0 0 0 -1 I I #
vertex $-1 $328 $403 #
point $-1 58.754470216928325 -27.495183454334377 7.1888287699300903 #
vertex $-1 $332 $404 #
point $-1 58.754470216928325 -23.709956472327235 7.1888287699300903 #
vertex $-1 $336 $405 #
point $-1 58.754470216928325 -19.924729490320097 7.1888287699300903 #
straight-curve $-1 -60.458388012329479 30.018668109005805 0 0 0 -1 I I #
point $-1 -60.458388012329479 -30.018668109005805 -9.90450228970899 #
straight-curve $-1 -60.458388012329479 0 -9.90450228970899 0 1 0 I I #
point $-1 -60.458388012329479 30.018668109005805 -9.90450228970899 #
straight-curve $-1 0 -30.018668109005805 9.90450228970899 1 0 0 I I #
point $-1 -58.18325455073726 -30.018668109005802 9.90450228970899 #
straight-curve $-1 -60.458388012329479 -30.018668109005805 0 0 0 -1 I I #
point $-1 -60.458388012329479 -30.018668109005805 9.90450228970899 #
point $-1 -58.062815417608746 -27.495183454334377 7.335844546560236 #
point $-1 -58.062815417608746 -23.709956472327235 7.335844546560236 #
point $-1 -58.062815417608746 -19.924729490320097 7.335844546560236 #
straight-curve $-1 60.458388012329479 0 9.90450228970899 0 1 0 I I #
straight-curve $-1 0 -30.018668109005805 9.90450228970899 1 0 0 I I #
point $-1 60.458388012329479 -30.018668109005805 9.90450228970899 #
point $-1 58.062815417608725 -27.495183454334377 7.3358445465602395 #
point $-1 58.062815417608725 -23.709956472327235 7.3358445465602395 #
point $-1 58.062815417608725 -19.924729490320097 7.3358445465602395 #
End-of-ACIS-data 