500 0 6 0           
7 Unknown 11 ACIS 5.0 NT 24 Thu Mar 25 19:26:11 1999 
-1 9.9999999999999995e-007 1e-010 
body $-1 $6 $-1 $7 #
body $-1 $8 $-1 $9 #
body $-1 $10 $-1 $11 #
body $-1 $12 $-1 $13 #
body $-1 $14 $-1 $15 #
body $-1 $16 $-1 $17 #
lump $-1 $-1 $18 $0 #
transform $-1 1 0 0 0 1 0 0 0 1 62.200384533219399 37.346616575976185 17.891316844377837 1 rotate no_reflect no_shear #
lump $-1 $-1 $19 $1 #
transform $-1 1 0 0 0 1 0 0 0 1 62.200384533219399 37.346616575976185 17.891316844377837 1 rotate no_reflect no_shear #
lump $-1 $-1 $20 $2 #
transform $-1 1 0 0 0 1 0 0 0 1 62.200384533219399 37.346616575976185 17.891316844377837 1 rotate no_reflect no_shear #
lump $-1 $-1 $21 $3 #
transform $-1 1 0 0 0 1 0 0 0 1 62.200384533219399 37.346616575976185 17.891316844377837 1 rotate no_reflect no_shear #
lump $-1 $-1 $22 $4 #
transform $-1 1 0 0 0 1 0 0 0 1 62.200384533219399 37.346616575976185 17.891316844377837 1 rotate no_reflect no_shear #
lump $-1 $-1 $23 $5 #
transform $-1 1 0 0 0 1 0 0 0 1 62.200384533219399 37.346616575976185 17.891316844377837 1 rotate no_reflect no_shear #
shell $-1 $-1 $-1 $24 $-1 $6 #
shell $-1 $-1 $-1 $25 $-1 $8 #
shell $-1 $-1 $-1 $26 $-1 $10 #
shell $-1 $-1 $-1 $27 $-1 $12 #
shell $-1 $-1 $-1 $28 $-1 $14 #
shell $-1 $-1 $-1 $29 $-1 $16 #
face $-1 $30 $31 $18 $-1 $32 forward single #
face $-1 $33 $34 $19 $-1 $35 reversed single #
face $-1 $36 $37 $20 $-1 $38 forward single #
face $-1 $39 $40 $21 $-1 $41 forward single #
face $-1 $42 $43 $22 $-1 $44 reversed single #
face $-1 $45 $46 $23 $-1 $47 forward single #
face $-1 $48 $49 $18 $-1 $50 reversed single #
loop $-1 $-1 $51 $24 #
plane-surface $-1 0 0 17.891316844377837 0 0 1 1 0 0 forward_v I I I I #
face $-1 $52 $53 $19 $-1 $54 reversed single #
loop $-1 $-1 $55 $25 #
plane-surface $-1 -0.38872005718995339 -140.4795291912132 75.062546908478382 -1 0 0 0 -0.82903758062907751 0.55919289150049634 forward_v I I I I #
face $-1 $56 $57 $20 $-1 $58 forward single #
loop $-1 $59 $60 $26 #
cone-surface $-1 -18.050972781111284 -30.495846553217731 9.893140179949949 0 0.82903758062907751 -0.55919289150049634 2.5 0 0 1 I I 0 1 2.5 forward I I I I #
face $-1 $61 $62 $21 $-1 $63 forward single #
loop $-1 $64 $65 $27 #
cone-surface $-1 -7.4536211467584863 -30.495846553217731 9.893140179949949 0 0.82903758062907751 -0.55919289150049634 2.5 0 0 1 I I 0 1 2.5 forward I I I I #
face $-1 $66 $67 $22 $-1 $68 reversed single #
loop $-1 $-1 $69 $28 #
plane-surface $-1 -20.62469886997054 39.925527616432646 153.82895217221088 1 0 0 0 -0.52991927123019833 -0.84804809178421925 forward_v I I I I #
face $-1 $70 $71 $23 $-1 $72 forward single #
loop $-1 $73 $74 $29 #
cone-surface $-1 -6.1369656384881424 28.273830463136051 10.507152176793774 0 -0.52991927123019833 -0.84804809178421925 3 0 0 1 I I 0 1 3 forward I I I I #
face $-1 $75 $76 $18 $-1 $77 reversed single #
loop $-1 $-1 $78 $30 #
plane-surface $-1 0 0 -17.891316844377837 0 0 1 1 0 0 forward_v I I I I #
coedge $-1 $79 $80 $81 $82 forward $31 $-1 #
face $-1 $83 $84 $19 $-1 $85 reversed single #
loop $-1 $-1 $86 $33 #
plane-surface $-1 -12.752296963934889 -37.346616575976185 5.4985211493309549 0 -0.82903758062907751 0.55919289150049634 1 0 0 forward_v I I I I #
coedge $-1 $87 $88 $89 $90 reversed $34 $-1 #
face $-1 $-1 $91 $20 $-1 $92 forward single #
loop $-1 $93 $94 $36 #
cone-surface $-1 -18.050972781111284 -26.788302546398874 7.3923702486698808 0 0.82903758062907751 -0.55919289150049634 1.25 0 0 1 I I -0.70710678118654779 0.70710678118654724 1.25 forward I I I I #
loop $-1 $-1 $95 $26 #
coedge $-1 $60 $60 $96 $97 reversed $37 $-1 #
face $-1 $-1 $98 $21 $-1 $99 forward single #
loop $-1 $100 $101 $39 #
cone-surface $-1 -7.4536211467584863 -26.788302546398874 7.3923702486698808 0 0.82903758062907751 -0.55919289150049634 1.25 0 0 1 I I -0.70710678118654779 0.70710678118654724 1.25 forward I I I I #
loop $-1 $-1 $102 $27 #
coedge $-1 $65 $65 $103 $104 reversed $40 $-1 #
face $-1 $105 $106 $22 $-1 $107 reversed single #
loop $-1 $-1 $108 $42 #
plane-surface $-1 -6.1369656384881424 -25.996837267730811 48.331117348928117 0 0.52991927123019833 0.84804809178421925 1 0 0 forward_v I I I I #
coedge $-1 $109 $110 $111 $112 reversed $43 $-1 #
face $-1 $-1 $113 $23 $-1 $114 forward single #
loop $-1 $115 $116 $45 #
cone-surface $-1 -6.1369656384881424 25.72096091020866 6.4217069581132051 0 -0.52991927123019833 -0.84804809178421925 1.5 0 0 1 I I -0.70710678118654757 0.70710678118654757 1.5 forward I I I I #
loop $-1 $-1 $117 $29 #
coedge $-1 $74 $74 $118 $119 reversed $46 $-1 #
face $-1 $120 $121 $18 $-1 $122 reversed single #
loop $-1 $-1 $123 $48 #
plane-surface $-1 0 -37.346616575976185 0 0 1 0 0 0 1 forward_v I I I I #
coedge $-1 $124 $125 $126 $127 forward $49 $-1 #
coedge $-1 $128 $51 $129 $130 forward $31 $-1 #
coedge $-1 $51 $128 $131 $132 forward $31 $-1 #
coedge $-1 $133 $134 $51 $82 reversed $135 $-1 #
edge $-1 $136 -37.346616575976185 $137 37.346616575976185 $81 $138 forward 7 unknown #
face $-1 $139 $140 $19 $-1 $141 reversed single #
loop $-1 $-1 $142 $52 #
plane-surface $-1 -25.115873870679824 -140.4795291912132 75.062546908478382 1 0 0 0 0.82903758062907751 -0.55919289150049634 forward_v I I I I #
coedge $-1 $143 $144 $145 $146 reversed $53 $-1 #
coedge $-1 $88 $55 $147 $148 reversed $34 $-1 #
coedge $-1 $55 $87 $143 $149 reversed $34 $-1 #
coedge $-1 $145 $150 $55 $90 forward $151 $-1 #
edge $-1 $152 32.893148019630416 $153 41.252194003082316 $89 $154 forward 7 unknown #
loop $-1 $-1 $96 $56 #
plane-surface $-1 -12.752296963934889 -37.346616575976185 5.4985211493309549 0 -0.82903758062907751 0.55919289150049634 1 0 0 forward_v I I I I #
loop $-1 $-1 $155 $36 #
coedge $-1 $94 $94 $95 $156 reversed $57 $-1 #
coedge $-1 $95 $95 $94 $156 forward $59 $-1 #
coedge $-1 $96 $96 $60 $97 forward $91 $-1 #
edge $-1 $157 1.1781332611762388e-015 $157 6.2831853071796013 $96 $158 forward 7 unknown #
loop $-1 $-1 $103 $61 #
plane-surface $-1 -12.752296963934889 -37.346616575976185 5.4985211493309549 0 -0.82903758062907751 0.55919289150049634 1 0 0 forward_v I I I I #
loop $-1 $-1 $159 $39 #
coedge $-1 $101 $101 $102 $160 reversed $62 $-1 #
coedge $-1 $102 $102 $101 $160 forward $64 $-1 #
coedge $-1 $103 $103 $65 $104 forward $98 $-1 #
edge $-1 $161 1.1781332611762388e-015 $161 6.2831853071796013 $103 $162 forward 7 unknown #
face $-1 $163 $164 $22 $-1 $165 reversed single #
loop $-1 $-1 $166 $66 #
plane-surface $-1 8.3507675929942558 39.925527616432646 153.82895217221088 -1 0 0 0 0.52991927123019833 0.84804809178421925 forward_v I I I I #
coedge $-1 $167 $168 $169 $170 reversed $67 $-1 #
coedge $-1 $110 $69 $171 $172 reversed $43 $-1 #
coedge $-1 $69 $109 $167 $173 reversed $43 $-1 #
coedge $-1 $169 $174 $69 $112 forward $175 $-1 #
edge $-1 $176 -17.383852767759862 $177 -2.7542618342438203 $111 $178 forward 7 unknown #
loop $-1 $-1 $118 $70 #
plane-surface $-1 -6.1369656384881424 -25.996837267730811 48.331117348928117 0 0.52991927123019833 0.84804809178421925 1 0 0 forward_v I I I I #
loop $-1 $-1 $179 $45 #
coedge $-1 $116 $116 $117 $180 reversed $71 $-1 #
coedge $-1 $117 $117 $116 $180 forward $73 $-1 #
coedge $-1 $118 $118 $74 $119 forward $113 $-1 #
edge $-1 $181 -6.2860005829855442e-016 $181 6.2831853071795996 $118 $182 forward 7 unknown #
face $-1 $183 $184 $18 $-1 $185 reversed single #
loop $-1 $-1 $186 $75 #
plane-surface $-1 -62.200384533219399 0 0 1 0 0 0 0 -1 forward_v I I I I #
coedge $-1 $187 $131 $188 $189 forward $76 $-1 #
coedge $-1 $190 $78 $187 $191 forward $49 $-1 #
coedge $-1 $78 $190 $192 $193 forward $49 $-1 #
coedge $-1 $134 $133 $78 $127 reversed $135 $-1 #
edge $-1 $194 -37.346616575976185 $195 37.346616575976185 $126 $196 forward 7 unknown #
coedge $-1 $80 $79 $197 $198 forward $31 $-1 #
coedge $-1 $199 $200 $79 $130 reversed $184 $-1 #
edge $-1 $137 -62.200384533219399 $201 62.200384533219399 $129 $202 forward 7 unknown #
coedge $-1 $123 $203 $80 $132 reversed $76 $-1 #
edge $-1 $204 -62.200384533219399 $136 62.200384533219399 $131 $205 forward 7 unknown #
coedge $-1 $126 $81 $203 $206 forward $135 $-1 #
coedge $-1 $81 $126 $199 $207 reversed $135 $-1 #
loop $-1 $-1 $133 $183 #
vertex $-1 $82 $208 #
vertex $-1 $82 $209 #
straight-curve $-1 62.200384533219399 0 17.891316844377837 0 1 0 I I #
face $-1 $-1 $151 $19 $-1 $210 forward single #
loop $-1 $-1 $211 $83 #
plane-surface $-1 0 -37.346616575976185 0 0 1 0 0 0 1 forward_v I I I I #
coedge $-1 $212 $213 $214 $215 reversed $84 $-1 #
coedge $-1 $216 $86 $88 $149 forward $53 $-1 #
coedge $-1 $86 $216 $212 $217 forward $53 $-1 #
coedge $-1 $214 $89 $86 $146 forward $151 $-1 #
edge $-1 $153 -5.9874284247774909 $218 18.73972538871238 $145 $219 forward 7 unknown #
coedge $-1 $220 $221 $87 $148 forward $140 $-1 #
edge $-1 $222 -32.032752304908236 $152 -19.639956609861354 $147 $223 forward 7 unknown #
edge $-1 $153 -14.948412453924192 $222 0 $88 $224 forward 7 unknown #
coedge $-1 $89 $214 $220 $225 forward $151 $-1 #
loop $-1 $-1 $214 $139 #
vertex $-1 $148 $226 #
vertex $-1 $90 $227 #
straight-curve $-1 -0.38872005718995339 -70.239764595606601 17.891316844377837 0 1 0 I I #
coedge $-1 $155 $155 $-1 $228 reversed $93 $-1 #
edge $-1 $229 0 $229 6.2831853071796004 $94 $230 forward 7 unknown #
vertex $-1 $97 $231 #
ellipse-curve $-1 -18.050972781111284 -33.167093584250239 11.694918996854394 0 -0.82903758062907751 0.55919289150049634 2.5 0 0 1 I I #
coedge $-1 $159 $159 $-1 $232 reversed $100 $-1 #
edge $-1 $233 0 $233 6.2831853071796004 $101 $234 forward 7 unknown #
vertex $-1 $104 $235 #
ellipse-curve $-1 -7.4536211467584863 -33.167093584250239 11.694918996854394 0 -0.82903758062907751 0.55919289150049634 2.5 0 0 1 I I #
face $-1 $-1 $175 $22 $-1 $236 forward single #
loop $-1 $-1 $237 $105 #
plane-surface $-1 0 37.346616575976185 0 0 -1 0 0 0 -1 forward_v I I I I #
coedge $-1 $238 $239 $240 $241 reversed $106 $-1 #
coedge $-1 $242 $108 $110 $173 forward $67 $-1 #
coedge $-1 $108 $242 $238 $243 forward $67 $-1 #
coedge $-1 $240 $111 $108 $170 forward $175 $-1 #
edge $-1 $177 -17.556216050726469 $244 11.419250412238327 $169 $245 forward 7 unknown #
coedge $-1 $246 $247 $109 $172 forward $164 $-1 #
edge $-1 $248 -68.164742414887201 $176 -59.023159241727598 $171 $249 forward 7 unknown #
edge $-1 $177 57.442335384189398 $248 74.69323315195237 $110 $250 forward 7 unknown #
coedge $-1 $111 $240 $246 $251 forward $175 $-1 #
loop $-1 $-1 $240 $163 #
vertex $-1 $172 $252 #
vertex $-1 $112 $253 #
straight-curve $-1 -20.62469886997054 19.962763808216323 17.89131684437784 0 -1 0 I I #
coedge $-1 $179 $179 $-1 $254 reversed $115 $-1 #
edge $-1 $255 0 $255 6.2831853071796004 $116 $256 forward 7 unknown #
vertex $-1 $119 $257 #
ellipse-curve $-1 -6.1369656384881424 30.031821109218157 13.320525257798037 0 0.52991927123019833 0.84804809178421925 3 0 0 1 I I #
face $-1 $-1 $135 $18 $-1 $258 reversed single #
loop $-1 $-1 $199 $120 #
plane-surface $-1 0 37.346616575976185 0 0 -1 0 0 0 -1 forward_v I I I I #
coedge $-1 $259 $197 $200 $260 forward $121 $-1 #
coedge $-1 $203 $123 $124 $191 reversed $76 $-1 #
coedge $-1 $197 $259 $123 $189 reversed $121 $-1 #
edge $-1 $204 -17.891316844377837 $261 17.891316844377837 $188 $262 forward 7 unknown #
coedge $-1 $125 $124 $259 $263 forward $49 $-1 #
edge $-1 $195 -62.200384533219399 $261 62.200384533219399 $187 $264 forward 7 unknown #
coedge $-1 $200 $199 $125 $193 reversed $184 $-1 #
edge $-1 $265 -62.200384533219399 $194 62.200384533219399 $192 $266 forward 7 unknown #
vertex $-1 $127 $267 #
vertex $-1 $206 $268 #
straight-curve $-1 62.200384533219399 0 -17.891316844377837 0 -1 0 I I #
coedge $-1 $186 $188 $128 $198 reversed $121 $-1 #
edge $-1 $201 -37.346616575976185 $204 37.346616575976185 $197 $269 forward 7 unknown #
coedge $-1 $192 $129 $134 $207 forward $184 $-1 #
coedge $-1 $129 $192 $186 $260 reversed $184 $-1 #
vertex $-1 $130 $270 #
straight-curve $-1 0 37.346616575976185 17.891316844377837 -1 0 0 I I #
coedge $-1 $131 $187 $133 $206 reversed $76 $-1 #
vertex $-1 $198 $271 #
straight-curve $-1 0 -37.346616575976185 17.891316844377837 1 0 0 I I #
edge $-1 $136 -17.891316844377837 $195 17.891316844377837 $133 $272 forward 7 unknown #
edge $-1 $137 -17.891316844377837 $194 17.891316844377837 $134 $273 forward 7 unknown #
point $-1 62.200384533219399 -37.346616575976185 17.891316844377837 #
point $-1 62.200384533219399 37.346616575976185 17.891316844377837 #
plane-surface $-1 0 0 17.891316844377837 0 0 1 1 0 0 forward_v I I I I #
coedge $-1 $221 $220 $213 $274 forward $140 $-1 #
coedge $-1 $213 $142 $144 $217 reversed $84 $-1 #
coedge $-1 $142 $212 $211 $274 reversed $84 $-1 #
coedge $-1 $150 $145 $142 $215 forward $151 $-1 #
edge $-1 $218 -41.252194003082316 $275 -32.893148019630416 $214 $276 forward 7 unknown #
coedge $-1 $144 $143 $221 $277 reversed $53 $-1 #
edge $-1 $278 0 $218 14.948412453924192 $212 $279 forward 7 unknown #
vertex $-1 $146 $280 #
straight-curve $-1 -6.3761484819674443 -28.987570592524285 17.891316844377837 -1 0 0 I I #
coedge $-1 $211 $147 $150 $225 reversed $140 $-1 #
coedge $-1 $147 $211 $216 $277 forward $140 $-1 #
vertex $-1 $148 $281 #
straight-curve $-1 -0.38872005718995339 -37.346616575976185 37.531273454239191 0 0 1 I I #
straight-curve $-1 -0.38872005718995339 -37.346616575976185 5.4985211493309549 0 -0.55919289150049634 -0.82903758062907751 I I #
edge $-1 $275 -25.115873870679824 $152 -0.38872005718995339 $220 $282 forward 7 unknown #
point $-1 -0.38872005718995339 -37.346616575976185 17.891316844377837 #
point $-1 -0.38872005718995339 -28.987570592524285 17.891316844377837 #
edge $-1 $283 1 $283 0 $155 $-1 forward 7 unknown #
vertex $-1 $156 $284 #
ellipse-curve $-1 -18.050972781111284 -27.82459952218522 8.0913613630455004 0 -0.82903758062907751 0.55919289150049634 2.5 0 0 1 I I #
point $-1 -15.550972781111284 -33.167093584250239 11.694918996854398 #
edge $-1 $285 1 $285 0 $159 $-1 forward 7 unknown #
vertex $-1 $160 $286 #
ellipse-curve $-1 -7.4536211467584863 -27.82459952218522 8.0913613630455004 0 -0.82903758062907751 0.55919289150049634 2.5 0 0 1 I I #
point $-1 -4.9536211467584863 -33.167093584250239 11.694918996854398 #
plane-surface $-1 0 0 17.891316844377837 0 0 1 1 0 0 forward_v I I I I #
coedge $-1 $247 $246 $239 $287 forward $164 $-1 #
coedge $-1 $239 $166 $168 $243 reversed $106 $-1 #
coedge $-1 $166 $238 $237 $287 reversed $106 $-1 #
coedge $-1 $174 $169 $166 $241 forward $175 $-1 #
edge $-1 $244 2.7542618342438203 $288 17.383852767759862 $240 $289 forward 7 unknown #
coedge $-1 $168 $167 $247 $290 reversed $67 $-1 #
edge $-1 $291 -74.69323315195237 $244 -57.442335384189398 $238 $292 forward 7 unknown #
vertex $-1 $170 $293 #
straight-curve $-1 -3.0684828192440712 22.717025642460158 17.891316844377833 1 0 0 I I #
coedge $-1 $237 $171 $174 $251 reversed $164 $-1 #
coedge $-1 $171 $237 $242 $290 forward $164 $-1 #
vertex $-1 $172 $294 #
straight-curve $-1 -20.62469886997054 37.346616575976185 76.914476086105438 0 0 1 I I #
straight-curve $-1 -20.62469886997054 -25.996837267730811 48.331117348928117 0 0.84804809178421925 -0.52991927123019833 I I #
edge $-1 $288 -8.3507675929942558 $176 20.62469886997054 $246 $295 forward 7 unknown #
point $-1 -20.62469886997054 37.346616575976185 17.891316844377837 #
point $-1 -20.62469886997054 22.717025642460143 17.891316844377837 #
edge $-1 $296 1 $296 0 $179 $-1 forward 7 unknown #
vertex $-1 $180 $297 #
ellipse-curve $-1 -6.1369656384881424 26.515839817053958 7.6937790957895338 0 0.52991927123019833 0.84804809178421925 3 0 0 1 I I #
point $-1 -3.1369656384881424 30.031821109218139 13.320525257798012 #
plane-surface $-1 62.200384533219399 0 0 -1 0 0 0 0 1 forward_v I I I I #
coedge $-1 $188 $186 $190 $263 reversed $121 $-1 #
edge $-1 $201 -17.891316844377837 $265 17.891316844377837 $200 $298 forward 7 unknown #
vertex $-1 $263 $299 #
straight-curve $-1 -62.200384533219399 -37.346616575976185 0 0 0 -1 I I #
edge $-1 $261 -37.346616575976185 $265 37.346616575976185 $259 $300 forward 7 unknown #
straight-curve $-1 0 -37.346616575976185 -17.891316844377837 -1 0 0 I I #
vertex $-1 $193 $301 #
straight-curve $-1 0 37.346616575976185 -17.891316844377837 1 0 0 I I #
point $-1 62.200384533219399 37.346616575976185 -17.891316844377837 #
point $-1 62.200384533219399 -37.346616575976185 -17.891316844377837 #
straight-curve $-1 -62.200384533219399 0 17.891316844377837 0 -1 0 I I #
point $-1 -62.200384533219399 37.346616575976185 17.891316844377837 #
point $-1 -62.200384533219399 -37.346616575976185 17.891316844377837 #
straight-curve $-1 62.200384533219399 -37.346616575976185 0 0 0 -1 I I #
straight-curve $-1 62.200384533219399 37.346616575976185 0 0 0 -1 I I #
edge $-1 $275 19.639956609861354 $278 32.032752304908236 $211 $302 forward 7 unknown #
vertex $-1 $225 $303 #
straight-curve $-1 -25.115873870679824 -70.239764595606601 17.891316844377837 0 -1 0 I I #
edge $-1 $278 -18.73972538871238 $222 5.9874284247774909 $221 $304 forward 7 unknown #
vertex $-1 $277 $305 #
straight-curve $-1 -25.115873870679824 -37.346616575976185 5.4985211493309549 0 0.55919289150049634 0.82903758062907751 I I #
point $-1 -25.115873870679824 -28.987570592524285 17.891316844377837 #
point $-1 -0.38872005718995339 -37.346616575976185 5.4985211493309549 #
straight-curve $-1 0 -37.346616575976185 17.891316844377837 1 0 0 I I #
vertex $-1 $228 $306 #
point $-1 -15.550972781111284 -27.82459952218522 8.0913613630455004 #
vertex $-1 $232 $307 #
point $-1 -4.9536211467584863 -27.82459952218522 8.0913613630455004 #
edge $-1 $288 59.023159241727598 $291 68.164742414887201 $237 $308 forward 7 unknown #
vertex $-1 $251 $309 #
straight-curve $-1 8.3507675929942558 19.962763808216323 17.89131684437784 0 1 0 I I #
edge $-1 $291 -11.419250412238327 $248 17.556216050726469 $247 $310 forward 7 unknown #
vertex $-1 $290 $311 #
straight-curve $-1 8.3507675929942558 -25.996837267730811 48.331117348928117 0 -0.84804809178421925 0.52991927123019833 I I #
point $-1 8.3507675929942558 22.717025642460143 17.891316844377837 #
point $-1 -20.62469886997054 37.346616575976178 8.7497336712182303 #
straight-curve $-1 0 37.346616575976185 17.891316844377837 -1 0 0 I I #
vertex $-1 $254 $312 #
point $-1 -3.1369656384881424 26.515839817053958 7.6937790957895338 #
straight-curve $-1 -62.200384533219399 37.346616575976185 0 0 0 -1 I I #
point $-1 -62.200384533219399 -37.346616575976185 -17.891316844377837 #
straight-curve $-1 -62.200384533219399 0 -17.891316844377837 0 1 0 I I #
point $-1 -62.200384533219399 37.346616575976185 -17.891316844377837 #
straight-curve $-1 -25.115873870679824 -37.346616575976185 37.531273454239191 0 0 -1 I I #
point $-1 -25.115873870679824 -37.346616575976185 17.891316844377837 #
straight-curve $-1 -6.3761484819674443 -37.346616575976185 5.4985211493309585 1 0 0 I I #
point $-1 -25.115873870679824 -37.346616575976185 5.4985211493309549 #
point $-1 -18.050972781111284 -25.752005570612528 6.6933791342942612 #
point $-1 -7.4536211467584863 -25.752005570612528 6.6933791342942612 #
straight-curve $-1 8.3507675929942558 37.346616575976185 76.914476086105438 0 0 -1 I I #
point $-1 8.3507675929942558 37.346616575976185 17.891316844377837 #
straight-curve $-1 -3.0684828192440712 37.346616575976192 8.7497336712182197 -1 0 0 I I #
point $-1 8.3507675929942558 37.346616575976178 8.7497336712182303 #
point $-1 -6.1369656384881424 24.926082003363362 5.1496348204368765 #
End-of-ACIS-data 