500 0 6 0           
7 Unknown 11 ACIS 5.0 NT 24 Fri Mar 26 18:38:12 1999 
-1 9.9999999999999995e-007 1e-010 
body $-1 $6 $-1 $7 #
body $-1 $8 $-1 $9 #
body $-1 $10 $-1 $11 #
body $-1 $12 $-1 $13 #
body $-1 $14 $-1 $15 #
body $-1 $16 $-1 $17 #
lump $-1 $-1 $18 $0 #
transform $-1 1 0 0 0 1 0 0 0 1 71.982177190466018 44.679607806818197 21.875513414251667 1 rotate no_reflect no_shear #
lump $-1 $-1 $19 $1 #
transform $-1 1 0 0 0 1 0 0 0 1 71.982177190466018 44.679607806818197 21.875513414251667 1 rotate no_reflect no_shear #
lump $-1 $-1 $20 $2 #
transform $-1 1 0 0 0 1 0 0 0 1 71.982177190466018 44.679607806818197 21.875513414251667 1 rotate no_reflect no_shear #
lump $-1 $-1 $21 $3 #
transform $-1 1 0 0 0 1 0 0 0 1 71.982177190466018 44.679607806818197 21.875513414251667 1 rotate no_reflect no_shear #
lump $-1 $-1 $22 $4 #
transform $-1 1 0 0 0 1 0 0 0 1 71.982177190466018 44.679607806818197 21.875513414251667 1 rotate no_reflect no_shear #
lump $-1 $-1 $23 $5 #
transform $-1 1 0 0 0 1 0 0 0 1 71.982177190466018 44.679607806818197 21.875513414251667 1 rotate no_reflect no_shear #
shell $-1 $-1 $-1 $24 $-1 $6 #
shell $-1 $-1 $-1 $25 $-1 $8 #
shell $-1 $-1 $-1 $26 $-1 $10 #
shell $-1 $-1 $-1 $27 $-1 $12 #
shell $-1 $-1 $-1 $28 $-1 $14 #
shell $-1 $-1 $-1 $29 $-1 $16 #
face $-1 $30 $31 $18 $-1 $32 forward single #
face $-1 $33 $34 $19 $-1 $35 forward single #
face $-1 $36 $37 $20 $-1 $38 reversed single #
face $-1 $39 $40 $21 $-1 $41 forward single #
face $-1 $42 $43 $22 $-1 $44 forward single #
face $-1 $45 $46 $23 $-1 $47 forward single #
face $-1 $48 $49 $18 $-1 $50 reversed single #
loop $-1 $-1 $51 $24 #
plane-surface $-1 0 0 21.875513414251667 0 0 1 1 0 0 forward_v I I I I #
face $-1 $52 $53 $19 $-1 $54 forward single #
loop $-1 $-1 $55 $25 #
plane-surface $-1 0 -44.679607806818197 0 0 1 0 0 0 1 forward_v I I I I #
face $-1 $56 $57 $20 $-1 $58 reversed single #
loop $-1 $-1 $59 $26 #
plane-surface $-1 -191.33403724326109 -20.709887444042476 81.64845998631489 0 1 0 -0.82903758062907751 0 0.55919289150049634 forward_v I I I I #
face $-1 $60 $61 $21 $-1 $62 forward single #
loop $-1 $63 $64 $27 #
cone-surface $-1 -63.591765550593664 -17.424677152490084 10.566543156548285 0.82903758062907751 0 -0.55919289150049634 0.55919289150049634 0 0.82903758062907751 1 I I 0 1 1 forward I I I I #
face $-1 $65 $66 $22 $-1 $67 forward single #
loop $-1 $68 $69 $28 #
cone-surface $-1 -63.591765550593664 -12.496861715161501 10.566543156548285 0.82903758062907751 0 -0.55919289150049634 0.55919289150049634 0 0.82903758062907751 1 I I 0 1 1 forward I I I I #
face $-1 $70 $71 $23 $-1 $72 forward single #
loop $-1 $73 $74 $29 #
cone-surface $-1 -63.591765550593664 -7.5690462778329177 10.566543156548285 0.82903758062907751 0 -0.55919289150049634 0.55919289150049634 0 0.82903758062907751 1 I I 0 1 1 forward I I I I #
face $-1 $75 $76 $18 $-1 $77 reversed single #
loop $-1 $-1 $78 $30 #
plane-surface $-1 0 0 -21.875513414251667 0 0 1 1 0 0 forward_v I I I I #
coedge $-1 $79 $80 $81 $82 forward $31 $-1 #
face $-1 $83 $84 $19 $-1 $85 reversed single #
loop $-1 $-1 $86 $33 #
plane-surface $-1 0 0 21.875513414251667 0 0 1 1 0 0 forward_v I I I I #
coedge $-1 $87 $88 $89 $90 forward $34 $-1 #
face $-1 $91 $92 $20 $-1 $93 reversed single #
loop $-1 $-1 $94 $36 #
plane-surface $-1 -71.982177190466061 -12.496861715161501 1.1446163870393633 -0.82903758062907751 0 0.55919289150049634 0.55919289150049634 0 0.82903758062907751 forward_v I I I I #
coedge $-1 $95 $96 $97 $98 reversed $37 $-1 #
face $-1 $-1 $99 $21 $-1 $100 forward single #
loop $-1 $101 $102 $39 #
cone-surface $-1 -61.778418205970517 -17.424677152490084 9.3434249667008125 0.82903758062907751 0 -0.55919289150049634 0.27959644575024817 0 0.41451879031453875 1 I I -0.70710678118654746 0.70710678118654746 0.5 forward I I I I #
loop $-1 $-1 $103 $27 #
coedge $-1 $64 $64 $104 $105 reversed $40 $-1 #
face $-1 $-1 $106 $22 $-1 $107 forward single #
loop $-1 $108 $109 $42 #
cone-surface $-1 -61.778418205970517 -12.496861715161501 9.3434249667008125 0.82903758062907751 0 -0.55919289150049634 0.27959644575024817 0 0.41451879031453875 1 I I -0.70710678118654746 0.70710678118654746 0.5 forward I I I I #
loop $-1 $-1 $110 $28 #
coedge $-1 $69 $69 $111 $112 reversed $43 $-1 #
face $-1 $-1 $113 $23 $-1 $114 forward single #
loop $-1 $115 $116 $45 #
cone-surface $-1 -61.778418205970517 -7.5690462778329177 9.3434249667008125 0.82903758062907751 0 -0.55919289150049634 0.27959644575024817 0 0.41451879031453875 1 I I -0.70710678118654746 0.70710678118654746 0.5 forward I I I I #
loop $-1 $-1 $117 $29 #
coedge $-1 $74 $74 $118 $119 reversed $46 $-1 #
face $-1 $120 $121 $18 $-1 $122 reversed single #
loop $-1 $-1 $123 $48 #
plane-surface $-1 0 -44.679607806818197 0 0 1 0 0 0 1 forward_v I I I I #
coedge $-1 $124 $125 $126 $127 forward $49 $-1 #
coedge $-1 $128 $51 $129 $130 forward $31 $-1 #
coedge $-1 $51 $128 $131 $132 forward $31 $-1 #
coedge $-1 $133 $134 $51 $82 reversed $135 $-1 #
edge $-1 $136 -44.679607806818197 $137 44.679607806818197 $81 $138 forward 7 unknown #
face $-1 $139 $140 $19 $-1 $141 reversed single #
loop $-1 $-1 $142 $52 #
plane-surface $-1 -71.982177190466018 0 0 1 0 0 0 0 -1 forward_v I I I I #
coedge $-1 $143 $144 $145 $146 forward $53 $-1 #
coedge $-1 $145 $55 $142 $147 reversed $34 $-1 #
coedge $-1 $55 $145 $148 $149 reversed $34 $-1 #
coedge $-1 $150 $151 $55 $90 reversed $140 $-1 #
edge $-1 $152 -71.982177190466018 $153 71.982177190466018 $89 $154 forward 7 unknown #
face $-1 $155 $156 $20 $-1 $157 forward single #
loop $-1 $-1 $158 $56 #
plane-surface $-1 -191.33403724326109 -4.2838359862805255 81.64845998631489 0 -1 0 0.82903758062907751 0 -0.55919289150049634 forward_v I I I I #
coedge $-1 $159 $160 $161 $162 reversed $57 $-1 #
coedge $-1 $96 $59 $163 $164 reversed $37 $-1 #
coedge $-1 $59 $95 $159 $165 reversed $37 $-1 #
coedge $-1 $161 $166 $59 $98 forward $156 $-1 #
edge $-1 $167 23.684841431164529 $168 37.668007602291972 $97 $169 forward 7 unknown #
loop $-1 $-1 $104 $60 #
plane-surface $-1 -71.982177190466061 -12.496861715161501 1.1446163870393633 -0.82903758062907751 0 0.55919289150049634 0.55919289150049634 0 0.82903758062907751 forward_v I I I I #
loop $-1 $-1 $170 $39 #
coedge $-1 $102 $102 $103 $171 reversed $61 $-1 #
coedge $-1 $103 $103 $102 $171 forward $63 $-1 #
coedge $-1 $104 $104 $64 $105 forward $99 $-1 #
edge $-1 $172 0 $172 6.2831853071796004 $104 $173 forward 7 unknown #
loop $-1 $-1 $111 $65 #
plane-surface $-1 -71.982177190466061 -12.496861715161501 1.1446163870393633 -0.82903758062907751 0 0.55919289150049634 0.55919289150049634 0 0.82903758062907751 forward_v I I I I #
loop $-1 $-1 $174 $42 #
coedge $-1 $109 $109 $110 $175 reversed $66 $-1 #
coedge $-1 $110 $110 $109 $175 forward $68 $-1 #
coedge $-1 $111 $111 $69 $112 forward $106 $-1 #
edge $-1 $176 0 $176 6.2831853071796004 $111 $177 forward 7 unknown #
loop $-1 $-1 $118 $70 #
plane-surface $-1 -71.982177190466061 -12.496861715161501 1.1446163870393633 -0.82903758062907751 0 0.55919289150049634 0.55919289150049634 0 0.82903758062907751 forward_v I I I I #
loop $-1 $-1 $178 $45 #
coedge $-1 $116 $116 $117 $179 reversed $71 $-1 #
coedge $-1 $117 $117 $116 $179 forward $73 $-1 #
coedge $-1 $118 $118 $74 $119 forward $113 $-1 #
edge $-1 $180 0 $180 6.2831853071796004 $118 $181 forward 7 unknown #
face $-1 $182 $183 $18 $-1 $184 reversed single #
loop $-1 $-1 $185 $75 #
plane-surface $-1 -71.982177190466018 0 0 1 0 0 0 0 -1 forward_v I I I I #
coedge $-1 $186 $131 $187 $188 forward $76 $-1 #
coedge $-1 $189 $78 $186 $190 forward $49 $-1 #
coedge $-1 $78 $189 $191 $192 forward $49 $-1 #
coedge $-1 $134 $133 $78 $127 reversed $135 $-1 #
edge $-1 $193 -44.679607806818197 $194 44.679607806818197 $126 $195 forward 7 unknown #
coedge $-1 $80 $79 $196 $197 forward $31 $-1 #
coedge $-1 $198 $199 $79 $130 reversed $183 $-1 #
edge $-1 $137 -71.982177190466018 $200 71.982177190466018 $129 $201 forward 7 unknown #
coedge $-1 $123 $202 $80 $132 reversed $76 $-1 #
edge $-1 $203 -71.982177190466018 $136 71.982177190466018 $131 $204 forward 7 unknown #
coedge $-1 $126 $81 $202 $205 forward $135 $-1 #
coedge $-1 $81 $126 $198 $206 reversed $135 $-1 #
loop $-1 $-1 $133 $182 #
vertex $-1 $82 $207 #
vertex $-1 $82 $208 #
straight-curve $-1 71.982177190466018 0 21.875513414251667 0 1 0 I I #
face $-1 $209 $210 $19 $-1 $211 reversed single #
loop $-1 $-1 $150 $83 #
plane-surface $-1 0 -55.659450526262354 13.583153658447966 0 0 1 1 0 0 forward_v I I I I #
coedge $-1 $212 $213 $87 $147 forward $84 $-1 #
coedge $-1 $214 $86 $213 $215 forward $53 $-1 #
coedge $-1 $86 $214 $216 $217 forward $53 $-1 #
coedge $-1 $88 $87 $86 $146 reversed $34 $-1 #
edge $-1 $218 -71.982177190466018 $219 71.982177190466018 $86 $220 forward 7 unknown #
edge $-1 $219 -21.875513414251667 $153 -13.583153658447966 $142 $221 forward 7 unknown #
coedge $-1 $216 $222 $88 $149 forward $223 $-1 #
edge $-1 $152 13.583153658447966 $218 21.875513414251667 $148 $224 forward 7 unknown #
coedge $-1 $225 $89 $222 $226 forward $140 $-1 #
coedge $-1 $89 $225 $212 $227 forward $140 $-1 #
vertex $-1 $149 $228 #
vertex $-1 $147 $229 #
straight-curve $-1 0 -44.679607806818197 13.583153658447966 -1 0 0 I I #
face $-1 $-1 $230 $20 $-1 $231 reversed single #
loop $-1 $-1 $97 $91 #
plane-surface $-1 0 0 21.875513414251667 0 0 1 1 0 0 forward_v I I I I #
coedge $-1 $232 $233 $234 $235 reversed $92 $-1 #
coedge $-1 $236 $94 $96 $165 forward $57 $-1 #
coedge $-1 $94 $236 $232 $237 forward $57 $-1 #
coedge $-1 $234 $97 $94 $162 forward $156 $-1 #
edge $-1 $168 -14.461456586461725 $238 1.9645948713002248 $161 $239 forward 7 unknown #
coedge $-1 $240 $241 $95 $164 forward $230 $-1 #
edge $-1 $242 -39.679613606118018 $167 -18.948716578905778 $163 $243 forward 7 unknown #
edge $-1 $168 -25.005979839275327 $242 -7.6303573603416185e-014 $96 $244 forward 7 unknown #
coedge $-1 $97 $234 $240 $245 forward $156 $-1 #
vertex $-1 $164 $246 #
vertex $-1 $98 $247 #
straight-curve $-1 -95.667018621630547 -20.709887444042476 21.875513414251667 1 0 0 I I #
coedge $-1 $170 $170 $-1 $248 reversed $101 $-1 #
edge $-1 $249 0 $249 6.2831853071796004 $102 $250 forward 7 unknown #
vertex $-1 $105 $251 #
ellipse-curve $-1 -64.990594104902314 -17.424677152490084 11.510064900645531 -0.82903758062907751 0 0.55919289150049634 0.55919289150049634 0 0.82903758062907751 1 I I #
coedge $-1 $174 $174 $-1 $252 reversed $108 $-1 #
edge $-1 $253 0 $253 6.2831853071796004 $109 $254 forward 7 unknown #
vertex $-1 $112 $255 #
ellipse-curve $-1 -64.990594104902314 -12.496861715161501 11.510064900645531 -0.82903758062907751 0 0.55919289150049634 0.55919289150049634 0 0.82903758062907751 1 I I #
coedge $-1 $178 $178 $-1 $256 reversed $115 $-1 #
edge $-1 $257 0 $257 6.2831853071796004 $116 $258 forward 7 unknown #
vertex $-1 $119 $259 #
ellipse-curve $-1 -64.990594104902314 -7.5690462778329177 11.510064900645531 -0.82903758062907751 0 0.55919289150049634 0.55919289150049634 0 0.82903758062907751 1 I I #
face $-1 $-1 $135 $18 $-1 $260 reversed single #
loop $-1 $-1 $198 $120 #
plane-surface $-1 0 44.679607806818197 0 0 -1 0 0 0 -1 forward_v I I I I #
coedge $-1 $261 $196 $199 $262 forward $121 $-1 #
coedge $-1 $202 $123 $124 $190 reversed $76 $-1 #
coedge $-1 $196 $261 $123 $188 reversed $121 $-1 #
edge $-1 $203 -21.875513414251667 $263 21.875513414251667 $187 $264 forward 7 unknown #
coedge $-1 $125 $124 $261 $265 forward $49 $-1 #
edge $-1 $194 -71.982177190466018 $263 71.982177190466018 $186 $266 forward 7 unknown #
coedge $-1 $199 $198 $125 $192 reversed $183 $-1 #
edge $-1 $267 -71.982177190466018 $193 71.982177190466018 $191 $268 forward 7 unknown #
vertex $-1 $127 $269 #
vertex $-1 $205 $270 #
straight-curve $-1 71.982177190466018 0 -21.875513414251667 0 -1 0 I I #
coedge $-1 $185 $187 $128 $197 reversed $121 $-1 #
edge $-1 $200 -44.679607806818197 $203 44.679607806818197 $196 $271 forward 7 unknown #
coedge $-1 $191 $129 $134 $206 forward $183 $-1 #
coedge $-1 $129 $191 $185 $262 reversed $183 $-1 #
vertex $-1 $130 $272 #
straight-curve $-1 0 44.679607806818197 21.875513414251667 -1 0 0 I I #
coedge $-1 $131 $186 $133 $205 reversed $76 $-1 #
vertex $-1 $197 $273 #
straight-curve $-1 0 -44.679607806818197 21.875513414251667 1 0 0 I I #
edge $-1 $136 -21.875513414251667 $194 21.875513414251667 $133 $274 forward 7 unknown #
edge $-1 $137 -21.875513414251667 $193 21.875513414251667 $134 $275 forward 7 unknown #
point $-1 71.982177190466018 -44.679607806818197 21.875513414251667 #
point $-1 71.982177190466018 44.679607806818197 21.875513414251667 #
face $-1 $-1 $223 $19 $-1 $276 reversed single #
loop $-1 $-1 $277 $139 #
plane-surface $-1 0 -66.639293245706511 17.729333536349817 0 1 0 0 0 1 forward_v I I I I #
coedge $-1 $278 $142 $151 $227 reversed $84 $-1 #
coedge $-1 $142 $278 $143 $215 reversed $84 $-1 #
coedge $-1 $144 $143 $279 $280 forward $53 $-1 #
edge $-1 $219 44.679607806818197 $281 66.639293245706511 $213 $282 forward 7 unknown #
coedge $-1 $283 $148 $144 $217 reversed $223 $-1 #
edge $-1 $284 -66.639293245706511 $218 -44.679607806818197 $216 $285 forward 7 unknown #
vertex $-1 $149 $286 #
vertex $-1 $215 $287 #
straight-curve $-1 0 -44.679607806818197 21.875513414251667 -1 0 0 I I #
straight-curve $-1 -71.982177190466018 -44.679607806818197 0 0 0 -1 I I #
coedge $-1 $148 $283 $150 $226 reversed $223 $-1 #
loop $-1 $-1 $148 $209 #
straight-curve $-1 71.982177190466018 -44.679607806818197 0 0 0 1 I I #
coedge $-1 $151 $150 $288 $289 forward $140 $-1 #
edge $-1 $152 -10.979842719444157 $290 10.979842719444157 $222 $291 forward 7 unknown #
edge $-1 $292 -10.979842719444157 $153 10.979842719444157 $212 $293 forward 7 unknown #
point $-1 71.982177190466018 -44.679607806818197 13.583153658447966 #
point $-1 -71.982177190466018 -44.679607806818197 13.583153658447966 #
loop $-1 $-1 $163 $155 #
plane-surface $-1 -71.982177190466018 0 0 1 0 0 0 0 -1 forward_v I I I I #
coedge $-1 $233 $158 $160 $237 reversed $92 $-1 #
coedge $-1 $158 $232 $294 $295 reversed $92 $-1 #
coedge $-1 $166 $161 $158 $235 forward $156 $-1 #
edge $-1 $238 -37.668007602291972 $296 -23.684841431164529 $234 $297 forward 7 unknown #
coedge $-1 $160 $159 $241 $298 reversed $57 $-1 #
edge $-1 $299 7.6303573603416185e-014 $238 25.005979839275327 $232 $300 forward 7 unknown #
vertex $-1 $162 $301 #
straight-curve $-1 -57.999011019338582 -6.2484308575807503 21.875513414251667 0 1 0 I I #
coedge $-1 $294 $163 $166 $245 reversed $230 $-1 #
coedge $-1 $163 $294 $236 $298 forward $230 $-1 #
vertex $-1 $164 $302 #
straight-curve $-1 -71.982177190466018 -20.709887444042476 40.824229993157445 0 0 1 I I #
straight-curve $-1 -71.982177190466061 -20.709887444042476 1.1446163870393633 -0.55919289150049634 0 -0.82903758062907751 I I #
edge $-1 $296 4.2838359862805255 $167 20.709887444042476 $240 $303 forward 7 unknown #
point $-1 -71.982177190466018 -20.709887444042476 21.875513414251667 #
point $-1 -57.999011019338575 -20.709887444042476 21.875513414251667 #
edge $-1 $304 1 $304 0 $170 $-1 forward 7 unknown #
vertex $-1 $171 $305 #
ellipse-curve $-1 -62.192936996285056 -17.424677152490084 9.6230214124510614 -0.82903758062907751 0 0.55919289150049634 0.55919289150049634 0 0.82903758062907751 1 I I #
point $-1 -64.43140121340177 -17.424677152490084 12.339102481274583 #
edge $-1 $306 1 $306 0 $174 $-1 forward 7 unknown #
vertex $-1 $175 $307 #
ellipse-curve $-1 -62.192936996285056 -12.496861715161501 9.6230214124510614 -0.82903758062907751 0 0.55919289150049634 0.55919289150049634 0 0.82903758062907751 1 I I #
point $-1 -64.43140121340177 -12.496861715161501 12.339102481274583 #
edge $-1 $308 1 $308 0 $178 $-1 forward 7 unknown #
vertex $-1 $179 $309 #
ellipse-curve $-1 -62.192936996285056 -7.5690462778329177 9.6230214124510614 -0.82903758062907751 0 0.55919289150049634 0.55919289150049634 0 0.82903758062907751 1 I I #
point $-1 -64.43140121340177 -7.5690462778329177 12.339102481274583 #
plane-surface $-1 71.982177190466018 0 0 -1 0 0 0 0 1 forward_v I I I I #
coedge $-1 $187 $185 $189 $265 reversed $121 $-1 #
edge $-1 $200 -21.875513414251667 $267 21.875513414251667 $199 $310 forward 7 unknown #
vertex $-1 $265 $311 #
straight-curve $-1 -71.982177190466018 -44.679607806818197 0 0 0 -1 I I #
edge $-1 $263 -44.679607806818197 $267 44.679607806818197 $261 $312 forward 7 unknown #
straight-curve $-1 0 -44.679607806818197 -21.875513414251667 -1 0 0 I I #
vertex $-1 $192 $313 #
straight-curve $-1 0 44.679607806818197 -21.875513414251667 1 0 0 I I #
point $-1 71.982177190466018 44.679607806818197 -21.875513414251667 #
point $-1 71.982177190466018 -44.679607806818197 -21.875513414251667 #
straight-curve $-1 -71.982177190466018 0 21.875513414251667 0 -1 0 I I #
point $-1 -71.982177190466018 44.679607806818197 21.875513414251667 #
point $-1 -71.982177190466018 -44.679607806818197 21.875513414251667 #
straight-curve $-1 71.982177190466018 -44.679607806818197 0 0 0 -1 I I #
straight-curve $-1 71.982177190466018 44.679607806818197 0 0 0 -1 I I #
plane-surface $-1 71.982177190466018 0 0 -1 0 0 0 0 1 forward_v I I I I #
coedge $-1 $288 $279 $278 $314 forward $210 $-1 #
coedge $-1 $213 $212 $277 $314 reversed $84 $-1 #
coedge $-1 $277 $315 $214 $280 reversed $210 $-1 #
edge $-1 $281 -71.982177190466018 $284 71.982177190466018 $279 $316 forward 7 unknown #
vertex $-1 $215 $317 #
straight-curve $-1 -71.982177190466018 0 21.875513414251667 0 -1 0 I I #
coedge $-1 $222 $216 $315 $318 forward $223 $-1 #
vertex $-1 $217 $319 #
straight-curve $-1 71.982177190466018 0 21.875513414251667 0 1 0 I I #
point $-1 71.982177190466018 -44.679607806818197 21.875513414251667 #
point $-1 -71.982177190466018 -44.679607806818197 21.875513414251667 #
coedge $-1 $315 $277 $225 $289 reversed $210 $-1 #
edge $-1 $290 -71.982177190466018 $292 71.982177190466018 $288 $320 forward 7 unknown #
vertex $-1 $318 $321 #
straight-curve $-1 71.982177190466018 -55.659450526262354 13.583153658447966 0 -1 0 I I #
vertex $-1 $227 $322 #
straight-curve $-1 -71.982177190466018 -55.659450526262354 13.583153658447966 0 1 0 I I #
coedge $-1 $241 $240 $233 $295 forward $230 $-1 #
edge $-1 $296 18.948716578905778 $299 39.679613606118018 $294 $323 forward 7 unknown #
vertex $-1 $245 $324 #
straight-curve $-1 -95.667018621630547 -4.2838359862805255 21.875513414251667 -1 0 0 I I #
edge $-1 $299 -1.9645948713002248 $242 14.461456586461725 $241 $325 forward 7 unknown #
vertex $-1 $298 $326 #
straight-curve $-1 -71.982177190466061 -4.2838359862805255 1.1446163870393633 0.55919289150049634 0 0.82903758062907751 I I #
point $-1 -57.999011019338575 -4.2838359862805255 21.875513414251667 #
point $-1 -71.982177190466018 -20.709887444042476 1.1446163870394266 #
straight-curve $-1 -71.982177190466018 0 21.875513414251667 0 -1 0 I I #
vertex $-1 $248 $327 #
point $-1 -61.633744104784562 -17.424677152490084 10.452058993080138 #
vertex $-1 $252 $328 #
point $-1 -61.633744104784562 -12.496861715161501 10.452058993080138 #
vertex $-1 $256 $329 #
point $-1 -61.633744104784562 -7.5690462778329177 10.452058993080138 #
straight-curve $-1 -71.982177190466018 44.679607806818197 0 0 0 -1 I I #
point $-1 -71.982177190466018 -44.679607806818197 -21.875513414251667 #
straight-curve $-1 -71.982177190466018 0 -21.875513414251667 0 1 0 I I #
point $-1 -71.982177190466018 44.679607806818197 -21.875513414251667 #
edge $-1 $281 -4.1461798779018508 $292 4.1461798779018508 $278 $330 forward 7 unknown #
coedge $-1 $279 $288 $283 $318 reversed $210 $-1 #
straight-curve $-1 0 -66.639293245706511 21.875513414251667 1 0 0 I I #
point $-1 -71.982177190466018 -66.639293245706511 21.875513414251667 #
edge $-1 $284 -4.1461798779018508 $290 4.1461798779018508 $283 $331 forward 7 unknown #
point $-1 71.982177190466018 -66.639293245706511 21.875513414251667 #
straight-curve $-1 0 -66.639293245706511 13.583153658447966 -1 0 0 I I #
point $-1 71.982177190466018 -66.639293245706511 13.583153658447966 #
point $-1 -71.982177190466018 -66.639293245706511 13.583153658447966 #
straight-curve $-1 -71.982177190466018 -4.2838359862805255 40.824229993157445 0 0 -1 I I #
point $-1 -71.982177190466018 -4.2838359862805255 21.875513414251667 #
straight-curve $-1 -71.982177190466018 -6.2484308575807503 1.1446163870394468 0 -1 0 I I #
point $-1 -71.982177190466018 -4.2838359862805255 1.1446163870394266 #
point $-1 -61.363899415655979 -17.424677152490084 9.0638285209505636 #
point $-1 -61.363899415655979 -12.496861715161501 9.0638285209505636 #
point $-1 -61.363899415655979 -7.5690462778329177 9.0638285209505636 #
straight-curve $-1 -71.982177190466018 -66.639293245706511 17.729333536349817 0 0 -1 I I #
straight-curve $-1 71.982177190466018 -66.639293245706511 17.729333536349817 0 0 -1 I I #
End-of-ACIS-data 