500 0 4 0           
7 Unknown 11 ACIS 5.0 NT 24 Fri Mar 26 18:30:51 1999 
-1 9.9999999999999995e-007 1e-010 
body $-1 $4 $-1 $5 #
body $-1 $6 $-1 $7 #
body $-1 $8 $-1 $9 #
body $-1 $10 $-1 $11 #
lump $-1 $-1 $12 $0 #
transform $-1 1 0 0 0 1 0 0 0 1 71.048310800500502 39.574518404960315 15.156725324962599 1 rotate no_reflect no_shear #
lump $-1 $-1 $13 $1 #
transform $-1 1 0 0 0 1 0 0 0 1 71.048310800500502 39.574518404960315 15.156725324962599 1 rotate no_reflect no_shear #
lump $-1 $-1 $14 $2 #
transform $-1 1 0 0 0 1 0 0 0 1 71.048310800500502 39.574518404960315 15.156725324962599 1 rotate no_reflect no_shear #
lump $-1 $-1 $15 $3 #
transform $-1 1 0 0 0 1 0 0 0 1 71.048310800500502 39.574518404960315 15.156725324962599 1 rotate no_reflect no_shear #
shell $-1 $-1 $-1 $16 $-1 $4 #
shell $-1 $-1 $-1 $17 $-1 $6 #
shell $-1 $-1 $-1 $18 $-1 $8 #
shell $-1 $-1 $-1 $19 $-1 $10 #
face $-1 $20 $21 $12 $-1 $22 forward single #
face $-1 $23 $24 $13 $-1 $25 forward single #
face $-1 $26 $27 $14 $-1 $28 reversed single #
face $-1 $29 $30 $15 $-1 $31 forward single #
face $-1 $32 $33 $12 $-1 $34 reversed single #
loop $-1 $-1 $35 $16 #
plane-surface $-1 0 0 15.156725324962599 0 0 1 1 0 0 forward_v I I I I #
face $-1 $36 $37 $13 $-1 $38 reversed single #
loop $-1 $-1 $39 $17 #
plane-surface $-1 -71.048310800500502 0 0 1 0 0 0 0 -1 forward_v I I I I #
face $-1 $40 $41 $14 $-1 $42 reversed single #
loop $-1 $-1 $43 $18 #
plane-surface $-1 116.25334597880178 8.7676868735096463 199.35725110397166 0 -1 0 -0.84804810408105047 0 -0.52991925155115449 forward_v I I I I #
face $-1 $44 $45 $15 $-1 $46 forward single #
loop $-1 $47 $48 $19 #
cone-surface $-1 65.391024360861266 0.72922982379822088 8.0851252593897183 -0.84804810408105047 0 -0.52991925155115449 1.059838503102309 0 -1.6960962081621009 1 I I 0 1 2 forward I I I I #
face $-1 $49 $50 $12 $-1 $51 reversed single #
loop $-1 $-1 $52 $20 #
plane-surface $-1 0 0 -15.156725324962599 0 0 1 1 0 0 forward_v I I I I #
coedge $-1 $53 $54 $55 $56 forward $21 $-1 #
face $-1 $57 $58 $13 $-1 $59 reversed single #
loop $-1 $-1 $60 $23 #
plane-surface $-1 0 39.574518404960315 0 0 -1 0 0 0 -1 forward_v I I I I #
coedge $-1 $61 $62 $63 $64 forward $24 $-1 #
face $-1 $65 $66 $14 $-1 $67 reversed single #
loop $-1 $-1 $68 $26 #
plane-surface $-1 -4.2514245662495682 0.72922982379822088 124.05751573722159 0.84804810408105047 0 0.52991925155115449 0.52991925155115449 0 -0.84804810408105047 forward_v I I I I #
coedge $-1 $69 $70 $71 $72 reversed $27 $-1 #
face $-1 $-1 $73 $15 $-1 $74 forward single #
loop $-1 $75 $76 $29 #
cone-surface $-1 62.511175469070537 0.72922982379822088 6.2855960086618499 -0.84804810408105047 0 -0.52991925155115449 0.52991925155115449 0 -0.84804810408105047 1 I I -0.70710678118654746 0.70710678118654746 1 forward I I I I #
loop $-1 $-1 $77 $19 #
coedge $-1 $48 $48 $78 $79 reversed $30 $-1 #
face $-1 $80 $81 $12 $-1 $82 reversed single #
loop $-1 $-1 $83 $32 #
plane-surface $-1 0 -39.574518404960315 0 0 1 0 0 0 1 forward_v I I I I #
coedge $-1 $84 $85 $86 $87 forward $33 $-1 #
coedge $-1 $88 $35 $89 $90 forward $21 $-1 #
coedge $-1 $35 $88 $91 $92 forward $21 $-1 #
coedge $-1 $93 $94 $35 $56 reversed $95 $-1 #
edge $-1 $96 -39.574518404960315 $97 39.574518404960315 $55 $98 forward 7 unknown #
face $-1 $99 $100 $13 $-1 $101 reversed single #
loop $-1 $-1 $63 $36 #
plane-surface $-1 -78.432818913696281 0 9.9774335538634347 0 0 1 1 0 0 forward_v I I I I #
coedge $-1 $102 $103 $61 $104 forward $37 $-1 #
coedge $-1 $105 $39 $60 $104 reversed $24 $-1 #
coedge $-1 $39 $105 $106 $107 reversed $24 $-1 #
coedge $-1 $108 $109 $39 $64 reversed $58 $-1 #
edge $-1 $110 -39.574518404960315 $111 39.574518404960315 $63 $112 forward 7 unknown #
face $-1 $113 $114 $14 $-1 $115 forward single #
loop $-1 $-1 $116 $40 #
plane-surface $-1 116.25334597880178 -7.3092272259132045 199.35725110397166 0 1 0 0.84804810408105047 0 0.52991925155115449 forward_v I I I I #
coedge $-1 $117 $118 $119 $120 reversed $41 $-1 #
coedge $-1 $70 $43 $121 $122 reversed $27 $-1 #
coedge $-1 $43 $69 $117 $123 reversed $27 $-1 #
coedge $-1 $119 $124 $43 $72 forward $114 $-1 #
edge $-1 $125 -12.921637811099615 $126 -5.67066650724054 $71 $127 forward 7 unknown #
loop $-1 $-1 $78 $44 #
plane-surface $-1 -4.2514245662495682 0.72922982379822088 124.05751573722159 0.84804810408105047 0 0.52991925155115449 0.52991925155115449 0 -0.84804810408105047 forward_v I I I I #
loop $-1 $-1 $128 $29 #
coedge $-1 $76 $76 $77 $129 reversed $45 $-1 #
coedge $-1 $77 $77 $76 $129 forward $47 $-1 #
coedge $-1 $78 $78 $48 $79 forward $73 $-1 #
edge $-1 $130 0 $130 6.2831853071796004 $78 $131 forward 7 unknown #
face $-1 $132 $133 $12 $-1 $134 reversed single #
loop $-1 $-1 $135 $49 #
plane-surface $-1 -71.048310800500502 0 0 1 0 0 0 0 -1 forward_v I I I I #
coedge $-1 $136 $91 $137 $138 forward $50 $-1 #
coedge $-1 $139 $52 $136 $140 forward $33 $-1 #
coedge $-1 $52 $139 $141 $142 forward $33 $-1 #
coedge $-1 $94 $93 $52 $87 reversed $95 $-1 #
edge $-1 $143 -39.574518404960315 $144 39.574518404960315 $86 $145 forward 7 unknown #
coedge $-1 $54 $53 $146 $147 forward $21 $-1 #
coedge $-1 $148 $149 $53 $90 reversed $133 $-1 #
edge $-1 $97 -71.048310800500502 $150 71.048310800500502 $89 $151 forward 7 unknown #
coedge $-1 $83 $152 $54 $92 reversed $50 $-1 #
edge $-1 $153 -71.048310800500502 $96 71.048310800500502 $91 $154 forward 7 unknown #
coedge $-1 $86 $55 $152 $155 forward $95 $-1 #
coedge $-1 $55 $86 $148 $156 reversed $95 $-1 #
loop $-1 $-1 $93 $132 #
vertex $-1 $56 $157 #
vertex $-1 $56 $158 #
straight-curve $-1 71.048310800500502 0 15.156725324962599 0 1 0 I I #
face $-1 $159 $160 $13 $-1 $161 forward single #
loop $-1 $-1 $162 $57 #
plane-surface $-1 -85.817327026892059 0 12.567079439413016 1 0 0 0 0 -1 forward_v I I I I #
coedge $-1 $163 $60 $109 $164 reversed $37 $-1 #
coedge $-1 $60 $163 $165 $166 reversed $37 $-1 #
edge $-1 $167 -15.156725324962599 $111 -9.9774335538634347 $60 $168 forward 7 unknown #
coedge $-1 $62 $61 $169 $170 reversed $24 $-1 #
coedge $-1 $171 $172 $62 $107 forward $173 $-1 #
edge $-1 $110 9.9774335538634347 $174 15.156725324962599 $106 $175 forward 7 unknown #
coedge $-1 $176 $63 $172 $177 forward $58 $-1 #
coedge $-1 $63 $176 $102 $164 forward $58 $-1 #
vertex $-1 $107 $178 #
vertex $-1 $104 $179 #
straight-curve $-1 -71.048310800500502 0 9.9774335538634347 0 1 0 I I #
face $-1 $-1 $180 $14 $-1 $181 reversed single #
loop $-1 $-1 $71 $65 #
plane-surface $-1 0 0 15.156725324962599 0 0 1 1 0 0 forward_v I I I I #
coedge $-1 $182 $183 $184 $185 reversed $66 $-1 #
coedge $-1 $186 $68 $70 $123 forward $41 $-1 #
coedge $-1 $68 $186 $182 $187 forward $41 $-1 #
coedge $-1 $184 $71 $68 $120 forward $114 $-1 #
edge $-1 $126 -8.4030719616105358 $188 7.6738421378123149 $119 $189 forward 7 unknown #
coedge $-1 $190 $191 $69 $122 forward $180 $-1 #
edge $-1 $192 -96.125880359815582 $125 -84.521900227023238 $121 $193 forward 7 unknown #
edge $-1 $126 128.41345896323236 $192 142.096621601001 $70 $194 forward 7 unknown #
coedge $-1 $71 $184 $190 $195 forward $114 $-1 #
vertex $-1 $122 $196 #
vertex $-1 $72 $197 #
straight-curve $-1 58.126672989400888 8.7676868735096463 15.156725324962594 -1 0 0 I I #
coedge $-1 $128 $128 $-1 $198 reversed $75 $-1 #
edge $-1 $199 0 $199 6.2831853071796004 $76 $200 forward 7 unknown #
vertex $-1 $79 $201 #
ellipse-curve $-1 67.422825148570951 0.72922982379822088 9.3547352585664374 0.84804810408105047 0 0.52991925155115449 1.059838503102309 0 -1.6960962081621009 1 I I #
face $-1 $-1 $95 $12 $-1 $202 reversed single #
loop $-1 $-1 $148 $80 #
plane-surface $-1 0 39.574518404960315 0 0 -1 0 0 0 -1 forward_v I I I I #
coedge $-1 $203 $146 $149 $204 forward $81 $-1 #
coedge $-1 $152 $83 $84 $140 reversed $50 $-1 #
coedge $-1 $146 $203 $83 $138 reversed $81 $-1 #
edge $-1 $153 -15.156725324962599 $205 15.156725324962599 $137 $206 forward 7 unknown #
coedge $-1 $85 $84 $203 $207 forward $33 $-1 #
edge $-1 $144 -71.048310800500502 $205 71.048310800500502 $136 $208 forward 7 unknown #
coedge $-1 $149 $148 $85 $142 reversed $133 $-1 #
edge $-1 $209 -71.048310800500502 $143 71.048310800500502 $141 $210 forward 7 unknown #
vertex $-1 $87 $211 #
vertex $-1 $155 $212 #
straight-curve $-1 71.048310800500502 0 -15.156725324962599 0 -1 0 I I #
coedge $-1 $135 $137 $88 $147 reversed $81 $-1 #
edge $-1 $150 -39.574518404960315 $153 39.574518404960315 $146 $213 forward 7 unknown #
coedge $-1 $141 $89 $94 $156 forward $133 $-1 #
coedge $-1 $89 $141 $135 $204 reversed $133 $-1 #
vertex $-1 $90 $214 #
straight-curve $-1 0 39.574518404960315 15.156725324962599 -1 0 0 I I #
coedge $-1 $91 $136 $93 $155 reversed $50 $-1 #
vertex $-1 $147 $215 #
straight-curve $-1 0 -39.574518404960315 15.156725324962599 1 0 0 I I #
edge $-1 $96 -15.156725324962599 $144 15.156725324962599 $93 $216 forward 7 unknown #
edge $-1 $97 -15.156725324962599 $143 15.156725324962599 $94 $217 forward 7 unknown #
point $-1 71.048310800500502 -39.574518404960315 15.156725324962599 #
point $-1 71.048310800500502 39.574518404960315 15.156725324962599 #
face $-1 $-1 $173 $13 $-1 $218 reversed single #
loop $-1 $-1 $169 $99 #
plane-surface $-1 0 0 15.156725324962599 0 0 1 1 0 0 forward_v I I I I #
coedge $-1 $219 $220 $163 $221 forward $100 $-1 #
coedge $-1 $103 $102 $162 $221 reversed $37 $-1 #
edge $-1 $222 -7.3845081131957784 $111 7.3845081131957784 $102 $223 forward 7 unknown #
coedge $-1 $224 $169 $103 $166 forward $160 $-1 #
edge $-1 $167 71.048310800500502 $225 85.817327026892059 $103 $226 forward 7 unknown #
vertex $-1 $166 $227 #
straight-curve $-1 -71.048310800500502 39.574518404960315 0 0 0 -1 I I #
coedge $-1 $165 $228 $105 $170 forward $160 $-1 #
edge $-1 $174 -39.574518404960315 $167 39.574518404960315 $169 $229 forward 7 unknown #
coedge $-1 $230 $106 $228 $231 reversed $173 $-1 #
coedge $-1 $106 $230 $108 $177 reversed $173 $-1 #
loop $-1 $-1 $106 $159 #
vertex $-1 $107 $232 #
straight-curve $-1 -71.048310800500502 -39.574518404960315 0 0 0 1 I I #
coedge $-1 $109 $108 $219 $233 forward $58 $-1 #
edge $-1 $110 -7.3845081131957784 $234 7.3845081131957784 $172 $235 forward 7 unknown #
point $-1 -71.048310800500502 -39.574518404960315 9.9774335538634347 #
point $-1 -71.048310800500502 39.574518404960315 9.9774335538634347 #
loop $-1 $-1 $121 $113 #
plane-surface $-1 71.048310800500502 0 0 -1 0 0 0 0 1 forward_v I I I I #
coedge $-1 $183 $116 $118 $187 reversed $66 $-1 #
coedge $-1 $116 $182 $236 $237 reversed $66 $-1 #
coedge $-1 $124 $119 $116 $185 forward $114 $-1 #
edge $-1 $188 5.67066650724054 $238 12.921637811099615 $184 $239 forward 7 unknown #
coedge $-1 $118 $117 $191 $240 reversed $41 $-1 #
edge $-1 $241 -142.096621601001 $188 -128.41345896323236 $182 $242 forward 7 unknown #
vertex $-1 $120 $243 #
straight-curve $-1 63.797339496641428 0.36461491189911044 15.156725324962594 0 -1 0 I I #
coedge $-1 $236 $121 $124 $195 reversed $180 $-1 #
coedge $-1 $121 $236 $186 $240 forward $180 $-1 #
vertex $-1 $122 $244 #
straight-curve $-1 71.048310800500502 8.7676868735096463 99.678625551985832 0 0 1 I I #
straight-curve $-1 -4.2514245662495682 8.7676868735096463 124.05751573722159 0.52991925155115449 0 -0.84804810408105047 I I #
edge $-1 $238 -7.3092272259132045 $125 8.7676868735096463 $190 $245 forward 7 unknown #
point $-1 71.048310800500502 8.7676868735096463 15.156725324962599 #
point $-1 63.797339496641428 8.7676868735096463 15.156725324962594 #
edge $-1 $246 1 $246 0 $128 $-1 forward 7 unknown #
vertex $-1 $129 $247 #
ellipse-curve $-1 63.359223573151588 0.72922982379822088 6.8155152602130045 0.84804810408105047 0 0.52991925155115449 1.059838503102309 0 -1.6960962081621009 1 I I #
point $-1 68.482663651673249 0.72922982379822088 7.6586390504043305 #
plane-surface $-1 71.048310800500502 0 0 -1 0 0 0 0 1 forward_v I I I I #
coedge $-1 $137 $135 $139 $207 reversed $81 $-1 #
edge $-1 $150 -15.156725324962599 $209 15.156725324962599 $149 $248 forward 7 unknown #
vertex $-1 $207 $249 #
straight-curve $-1 -71.048310800500502 -39.574518404960315 0 0 0 -1 I I #
edge $-1 $205 -39.574518404960315 $209 39.574518404960315 $203 $250 forward 7 unknown #
straight-curve $-1 0 -39.574518404960315 -15.156725324962599 -1 0 0 I I #
vertex $-1 $142 $251 #
straight-curve $-1 0 39.574518404960315 -15.156725324962599 1 0 0 I I #
point $-1 71.048310800500502 39.574518404960315 -15.156725324962599 #
point $-1 71.048310800500502 -39.574518404960315 -15.156725324962599 #
straight-curve $-1 -71.048310800500502 0 15.156725324962599 0 -1 0 I I #
point $-1 -71.048310800500502 39.574518404960315 15.156725324962599 #
point $-1 -71.048310800500502 -39.574518404960315 15.156725324962599 #
straight-curve $-1 71.048310800500502 -39.574518404960315 0 0 0 -1 I I #
straight-curve $-1 71.048310800500502 39.574518404960315 0 0 0 -1 I I #
plane-surface $-1 0 -39.574518404960315 0 0 1 0 0 0 1 forward_v I I I I #
coedge $-1 $252 $162 $176 $233 reversed $100 $-1 #
coedge $-1 $162 $252 $224 $253 reversed $100 $-1 #
edge $-1 $225 -2.5896458855495812 $222 2.5896458855495812 $163 $254 forward 7 unknown #
vertex $-1 $164 $255 #
straight-curve $-1 -78.432818913696281 39.574518404960315 9.9774335538634347 1 0 0 I I #
coedge $-1 $228 $165 $220 $253 forward $160 $-1 #
vertex $-1 $166 $256 #
straight-curve $-1 0 39.574518404960315 15.156725324962599 -1 0 0 I I #
point $-1 -71.048310800500502 39.574518404960315 15.156725324962599 #
coedge $-1 $169 $224 $171 $231 forward $160 $-1 #
straight-curve $-1 -71.048310800500502 0 15.156725324962599 0 1 0 I I #
coedge $-1 $172 $171 $252 $257 forward $173 $-1 #
edge $-1 $258 -85.817327026892059 $174 -71.048310800500502 $171 $259 forward 7 unknown #
point $-1 -71.048310800500502 -39.574518404960315 15.156725324962599 #
edge $-1 $234 -39.574518404960315 $222 39.574518404960315 $219 $260 forward 7 unknown #
vertex $-1 $233 $261 #
straight-curve $-1 -78.432818913696281 -39.574518404960315 9.9774335538634347 -1 0 0 I I #
coedge $-1 $191 $190 $183 $237 forward $180 $-1 #
edge $-1 $238 84.521900227023238 $241 96.125880359815582 $236 $262 forward 7 unknown #
vertex $-1 $195 $263 #
straight-curve $-1 58.126672989400888 -7.3092272259132045 15.156725324962594 1 0 0 I I #
edge $-1 $241 -7.6738421378123149 $192 8.4030719616105358 $191 $264 forward 7 unknown #
vertex $-1 $240 $265 #
straight-curve $-1 -4.2514245662495682 -7.3092272259132045 124.05751573722159 -0.52991925155115449 0 0.84804810408105047 I I #
point $-1 63.797339496641428 -7.3092272259132045 15.156725324962594 #
point $-1 71.048310800500502 8.7676868735096463 3.5527451921702493 #
straight-curve $-1 71.048310800500502 0 15.156725324962599 0 1 0 I I #
vertex $-1 $198 $266 #
point $-1 64.419062076253894 0.72922982379822088 5.1194190520509029 #
straight-curve $-1 -71.048310800500502 39.574518404960315 0 0 0 -1 I I #
point $-1 -71.048310800500502 -39.574518404960315 -15.156725324962599 #
straight-curve $-1 -71.048310800500502 0 -15.156725324962599 0 1 0 I I #
point $-1 -71.048310800500502 39.574518404960315 -15.156725324962599 #
coedge $-1 $220 $219 $230 $257 reversed $100 $-1 #
edge $-1 $225 -39.574518404960315 $258 39.574518404960315 $220 $267 forward 7 unknown #
straight-curve $-1 -85.817327026892059 39.574518404960315 12.567079439413016 0 0 -1 I I #
point $-1 -85.817327026892059 39.574518404960315 9.9774335538634347 #
point $-1 -85.817327026892059 39.574518404960315 15.156725324962597 #
edge $-1 $258 -2.5896458855495812 $234 2.5896458855495812 $252 $268 forward 7 unknown #
vertex $-1 $253 $269 #
straight-curve $-1 0 -39.574518404960315 15.156725324962599 1 0 0 I I #
straight-curve $-1 -85.817327026892059 0 9.9774335538634347 0 1 0 I I #
point $-1 -85.817327026892059 -39.574518404960315 9.9774335538634347 #
straight-curve $-1 71.048310800500502 -7.3092272259132045 99.678625551985832 0 0 -1 I I #
point $-1 71.048310800500502 -7.3092272259132045 15.156725324962599 #
straight-curve $-1 71.048310800500502 0.36461491189911044 3.5527451921702493 0 1 0 I I #
point $-1 71.048310800500502 -7.3092272259132045 3.5527451921702493 #
point $-1 61.663127364989485 0.72922982379822088 5.7556767571106953 #
straight-curve $-1 -85.817327026892059 0 15.156725324962597 0 -1 0 I I #
straight-curve $-1 -85.817327026892059 -39.574518404960315 12.567079439413016 0 0 -1 I I #
point $-1 -85.817327026892059 -39.574518404960315 15.156725324962597 #
End-of-ACIS-data 