500 0 6 0           
7 Unknown 11 ACIS 5.0 NT 24 Fri Mar 26 15:29:40 1999 
-1 9.9999999999999995e-007 1e-010 
body $-1 $6 $-1 $7 #
body $-1 $8 $-1 $9 #
body $-1 $10 $-1 $11 #
body $-1 $12 $-1 $13 #
body $-1 $14 $-1 $15 #
body $-1 $16 $-1 $17 #
lump $-1 $-1 $18 $0 #
transform $-1 1 0 0 0 1 0 0 0 1 73.730277413251144 43.769912694793618 12.366232604856148 1 rotate no_reflect no_shear #
lump $-1 $-1 $19 $1 #
transform $-1 1 0 0 0 1 0 0 0 1 73.730277413251144 43.769912694793618 12.366232604856148 1 rotate no_reflect no_shear #
lump $-1 $-1 $20 $2 #
transform $-1 1 0 0 0 1 0 0 0 1 73.730277413251144 43.769912694793618 12.366232604856148 1 rotate no_reflect no_shear #
lump $-1 $-1 $21 $3 #
transform $-1 1 0 0 0 1 0 0 0 1 73.730277413251144 43.769912694793618 12.366232604856148 1 rotate no_reflect no_shear #
lump $-1 $-1 $22 $4 #
transform $-1 1 0 0 0 1 0 0 0 1 73.730277413251144 43.769912694793618 12.366232604856148 1 rotate no_reflect no_shear #
lump $-1 $-1 $23 $5 #
transform $-1 1 0 0 0 1 0 0 0 1 73.730277413251144 43.769912694793618 12.366232604856148 1 rotate no_reflect no_shear #
shell $-1 $-1 $-1 $24 $-1 $6 #
shell $-1 $-1 $-1 $25 $-1 $8 #
shell $-1 $-1 $-1 $26 $-1 $10 #
shell $-1 $-1 $-1 $27 $-1 $12 #
shell $-1 $-1 $-1 $28 $-1 $14 #
shell $-1 $-1 $-1 $29 $-1 $16 #
face $-1 $30 $31 $18 $-1 $32 forward single #
face $-1 $33 $34 $19 $-1 $35 reversed single #
face $-1 $36 $37 $20 $-1 $38 reversed single #
face $-1 $39 $40 $21 $-1 $41 forward single #
face $-1 $42 $43 $22 $-1 $44 forward single #
face $-1 $45 $46 $23 $-1 $47 forward single #
face $-1 $48 $49 $18 $-1 $50 reversed single #
loop $-1 $-1 $51 $24 #
plane-surface $-1 0 0 12.366232604856148 0 0 1 1 0 0 forward_v I I I I #
face $-1 $52 $53 $19 $-1 $54 reversed single #
loop $-1 $-1 $55 $25 #
plane-surface $-1 0 -36.834685499285136 7.0425670153721605 0 0 1 1 0 0 forward_v I I I I #
face $-1 $56 $57 $20 $-1 $58 reversed single #
loop $-1 $-1 $59 $26 #
plane-surface $-1 -33.830377356875772 91.913719948659917 166.59962498977046 -1 0 0 0 0.73135370988377701 0.68199835119979291 forward_v I I I I #
face $-1 $60 $61 $21 $-1 $62 forward single #
loop $-1 $63 $64 $27 #
cone-surface $-1 -65.75029740197607 36.223091778414314 4.653348403503073 0 -0.73135370988377701 -0.68199835119979291 2 0 0 1 I I 0 1 2 forward I I I I #
face $-1 $65 $66 $22 $-1 $67 forward single #
loop $-1 $68 $69 $28 #
cone-surface $-1 -53.780327385063458 36.223091778414314 4.653348403503073 0 -0.73135370988377701 -0.68199835119979291 2 0 0 1 I I 0 1 2 forward I I I I #
face $-1 $70 $71 $23 $-1 $72 forward single #
loop $-1 $73 $74 $29 #
cone-surface $-1 -41.810357368150846 36.223091778414314 4.653348403503073 0 -0.73135370988377701 -0.68199835119979291 2 0 0 1 I I 0 1 2 forward I I I I #
face $-1 $75 $76 $18 $-1 $77 reversed single #
loop $-1 $-1 $78 $30 #
plane-surface $-1 0 0 -12.366232604856148 0 0 1 1 0 0 forward_v I I I I #
coedge $-1 $79 $80 $81 $82 forward $31 $-1 #
face $-1 $83 $84 $19 $-1 $85 reversed single #
loop $-1 $-1 $86 $33 #
plane-surface $-1 0 -29.899458303776655 9.704399810114154 0 -1 0 0 0 -1 forward_v I I I I #
coedge $-1 $87 $88 $89 $90 reversed $34 $-1 #
face $-1 $91 $92 $20 $-1 $93 reversed single #
loop $-1 $-1 $94 $36 #
plane-surface $-1 -53.780327385063458 -15.932103885222631 66.031769731089241 0 0.73135370988377701 0.68199835119979291 1 0 0 forward_v I I I I #
coedge $-1 $95 $96 $97 $98 reversed $37 $-1 #
face $-1 $-1 $99 $21 $-1 $100 forward single #
loop $-1 $101 $102 $39 #
cone-surface $-1 -65.75029740197607 32.773964562136968 1.4369853184599997 0 -0.73135370988377701 -0.68199835119979291 1 0 0 1 I I -0.70710678118654746 0.70710678118654746 1 forward I I I I #
loop $-1 $-1 $103 $27 #
coedge $-1 $64 $64 $104 $105 reversed $40 $-1 #
face $-1 $-1 $106 $22 $-1 $107 forward single #
loop $-1 $108 $109 $42 #
cone-surface $-1 -53.780327385063458 32.773964562136968 1.4369853184599997 0 -0.73135370988377701 -0.68199835119979291 1 0 0 1 I I -0.70710678118654746 0.70710678118654746 1 forward I I I I #
loop $-1 $-1 $110 $28 #
coedge $-1 $69 $69 $111 $112 reversed $43 $-1 #
face $-1 $-1 $113 $23 $-1 $114 forward single #
loop $-1 $115 $116 $45 #
cone-surface $-1 -41.810357368150846 32.773964562136968 1.4369853184599997 0 -0.73135370988377701 -0.68199835119979291 1 0 0 1 I I -0.70710678118654746 0.70710678118654746 1 forward I I I I #
loop $-1 $-1 $117 $29 #
coedge $-1 $74 $74 $118 $119 reversed $46 $-1 #
face $-1 $120 $121 $18 $-1 $122 reversed single #
loop $-1 $-1 $123 $48 #
plane-surface $-1 0 -43.769912694793618 0 0 1 0 0 0 1 forward_v I I I I #
coedge $-1 $124 $125 $126 $127 forward $49 $-1 #
coedge $-1 $128 $51 $129 $130 forward $31 $-1 #
coedge $-1 $51 $128 $131 $132 forward $31 $-1 #
coedge $-1 $133 $134 $51 $82 reversed $135 $-1 #
edge $-1 $136 -43.769912694793618 $137 43.769912694793618 $81 $138 forward 7 unknown #
face $-1 $139 $140 $19 $-1 $141 reversed single #
loop $-1 $-1 $142 $52 #
plane-surface $-1 -73.730277413251144 0 0 1 0 0 0 0 -1 forward_v I I I I #
coedge $-1 $143 $144 $145 $146 reversed $53 $-1 #
coedge $-1 $147 $55 $148 $149 reversed $34 $-1 #
coedge $-1 $55 $147 $143 $150 forward $34 $-1 #
coedge $-1 $145 $151 $55 $90 forward $152 $-1 #
edge $-1 $153 -25.35256994515105 $154 -11.482115554134086 $89 $155 forward 7 unknown #
face $-1 $156 $157 $20 $-1 $158 forward single #
loop $-1 $-1 $159 $56 #
plane-surface $-1 -73.730277413251144 0 0 1 0 0 0 0 -1 forward_v I I I I #
coedge $-1 $160 $161 $162 $163 reversed $57 $-1 #
coedge $-1 $96 $59 $164 $165 reversed $37 $-1 #
coedge $-1 $59 $95 $160 $166 reversed $37 $-1 #
coedge $-1 $162 $167 $59 $98 forward $168 $-1 #
edge $-1 $169 70.93357989002908 $170 81.290618825048654 $97 $171 forward 7 unknown #
loop $-1 $-1 $104 $60 #
plane-surface $-1 -53.780327385063458 -15.932103885222631 66.031769731089241 0 0.73135370988377701 0.68199835119979291 1 0 0 forward_v I I I I #
loop $-1 $-1 $172 $39 #
coedge $-1 $102 $102 $103 $173 reversed $61 $-1 #
coedge $-1 $103 $103 $102 $173 forward $63 $-1 #
coedge $-1 $104 $104 $64 $105 forward $99 $-1 #
edge $-1 $174 -9.484542487354028e-016 $174 6.2831853071795996 $104 $175 forward 7 unknown #
loop $-1 $-1 $111 $65 #
plane-surface $-1 -53.780327385063458 -15.932103885222631 66.031769731089241 0 0.73135370988377701 0.68199835119979291 1 0 0 forward_v I I I I #
loop $-1 $-1 $176 $42 #
coedge $-1 $109 $109 $110 $177 reversed $66 $-1 #
coedge $-1 $110 $110 $109 $177 forward $68 $-1 #
coedge $-1 $111 $111 $69 $112 forward $106 $-1 #
edge $-1 $178 -9.484542487354028e-016 $178 6.2831853071795996 $111 $179 forward 7 unknown #
loop $-1 $-1 $118 $70 #
plane-surface $-1 -53.780327385063458 -15.932103885222631 66.031769731089241 0 0.73135370988377701 0.68199835119979291 1 0 0 forward_v I I I I #
loop $-1 $-1 $180 $45 #
coedge $-1 $116 $116 $117 $181 reversed $71 $-1 #
coedge $-1 $117 $117 $116 $181 forward $73 $-1 #
coedge $-1 $118 $118 $74 $119 forward $113 $-1 #
edge $-1 $182 -9.484542487354028e-016 $182 6.2831853071795996 $118 $183 forward 7 unknown #
face $-1 $184 $185 $18 $-1 $186 reversed single #
loop $-1 $-1 $187 $75 #
plane-surface $-1 -73.730277413251144 0 0 1 0 0 0 0 -1 forward_v I I I I #
coedge $-1 $188 $131 $189 $190 forward $76 $-1 #
coedge $-1 $191 $78 $188 $192 forward $49 $-1 #
coedge $-1 $78 $191 $193 $194 forward $49 $-1 #
coedge $-1 $134 $133 $78 $127 reversed $135 $-1 #
edge $-1 $195 -43.769912694793618 $196 43.769912694793618 $126 $197 forward 7 unknown #
coedge $-1 $80 $79 $198 $199 forward $31 $-1 #
coedge $-1 $200 $201 $79 $130 reversed $185 $-1 #
edge $-1 $137 -73.730277413251144 $202 73.730277413251144 $129 $203 forward 7 unknown #
coedge $-1 $123 $204 $80 $132 reversed $76 $-1 #
edge $-1 $205 -73.730277413251144 $136 73.730277413251144 $131 $206 forward 7 unknown #
coedge $-1 $126 $81 $204 $207 forward $135 $-1 #
coedge $-1 $81 $126 $200 $208 reversed $135 $-1 #
loop $-1 $-1 $133 $184 #
vertex $-1 $82 $209 #
vertex $-1 $82 $210 #
straight-curve $-1 73.730277413251144 0 12.366232604856148 0 1 0 I I #
face $-1 $211 $212 $19 $-1 $213 forward single #
loop $-1 $-1 $148 $83 #
plane-surface $-1 0 -43.769912694793618 0 0 1 0 0 0 1 forward_v I I I I #
coedge $-1 $214 $215 $216 $217 forward $84 $-1 #
coedge $-1 $216 $86 $88 $150 reversed $53 $-1 #
coedge $-1 $86 $216 $218 $219 reversed $53 $-1 #
coedge $-1 $220 $89 $86 $146 forward $152 $-1 #
edge $-1 $154 2.1903671103150835 $221 7.5140326997990705 $145 $222 forward 7 unknown #
coedge $-1 $88 $87 $214 $223 reversed $34 $-1 #
coedge $-1 $224 $225 $87 $149 forward $140 $-1 #
edge $-1 $226 -73.730277413251144 $153 73.730277413251144 $148 $227 forward 7 unknown #
edge $-1 $228 -73.730277413251144 $154 73.730277413251144 $143 $229 forward 7 unknown #
coedge $-1 $89 $220 $224 $230 forward $152 $-1 #
loop $-1 $-1 $145 $211 #
vertex $-1 $149 $231 #
vertex $-1 $90 $232 #
straight-curve $-1 73.730277413251144 -18.417342749642568 7.0425670153721605 0 1 0 I I #
face $-1 $-1 $168 $20 $-1 $233 reversed single #
loop $-1 $-1 $164 $91 #
plane-surface $-1 0 0 12.366232604856148 0 0 1 1 0 0 forward_v I I I I #
coedge $-1 $234 $235 $161 $236 forward $92 $-1 #
coedge $-1 $237 $94 $96 $166 forward $57 $-1 #
coedge $-1 $94 $237 $159 $236 reversed $57 $-1 #
coedge $-1 $238 $97 $94 $163 forward $168 $-1 #
edge $-1 $170 6.9402136643440429 $239 46.840113720719415 $162 $240 forward 7 unknown #
coedge $-1 $241 $242 $95 $165 forward $157 $-1 #
edge $-1 $243 -11.845042099507786 $169 -2.1869472795363407 $164 $244 forward 7 unknown #
edge $-1 $170 -87.539825389587207 $243 -73.378361798098126 $96 $245 forward 7 unknown #
coedge $-1 $97 $238 $241 $246 reversed $168 $-1 #
loop $-1 $-1 $162 $156 #
vertex $-1 $246 $247 #
vertex $-1 $98 $248 #
straight-curve $-1 -33.830377356875772 43.769912694793618 83.299812494885231 0 0 -1 I I #
coedge $-1 $172 $172 $-1 $249 reversed $101 $-1 #
edge $-1 $250 0 $250 6.2831853071796004 $102 $251 forward 7 unknown #
vertex $-1 $105 $252 #
ellipse-curve $-1 -65.75029740197607 38.940865284807899 7.1877131373463641 0 0.73135370988377701 0.68199835119979291 2 0 0 1 I I #
coedge $-1 $176 $176 $-1 $253 reversed $108 $-1 #
edge $-1 $254 0 $254 6.2831853071796004 $109 $255 forward 7 unknown #
vertex $-1 $112 $256 #
ellipse-curve $-1 -53.780327385063458 38.940865284807899 7.1877131373463641 0 0.73135370988377701 0.68199835119979291 2 0 0 1 I I #
coedge $-1 $180 $180 $-1 $257 reversed $115 $-1 #
edge $-1 $258 0 $258 6.2831853071796004 $116 $259 forward 7 unknown #
vertex $-1 $119 $260 #
ellipse-curve $-1 -41.810357368150846 38.940865284807899 7.1877131373463641 0 0.73135370988377701 0.68199835119979291 2 0 0 1 I I #
face $-1 $-1 $135 $18 $-1 $261 reversed single #
loop $-1 $-1 $200 $120 #
plane-surface $-1 0 43.769912694793618 0 0 -1 0 0 0 -1 forward_v I I I I #
coedge $-1 $262 $198 $201 $263 forward $121 $-1 #
coedge $-1 $204 $123 $124 $192 reversed $76 $-1 #
coedge $-1 $198 $262 $123 $190 reversed $121 $-1 #
edge $-1 $205 -12.366232604856148 $264 12.366232604856148 $189 $265 forward 7 unknown #
coedge $-1 $125 $124 $262 $266 forward $49 $-1 #
edge $-1 $196 -73.730277413251144 $264 73.730277413251144 $188 $267 forward 7 unknown #
coedge $-1 $201 $200 $125 $194 reversed $185 $-1 #
edge $-1 $268 -73.730277413251144 $195 73.730277413251144 $193 $269 forward 7 unknown #
vertex $-1 $127 $270 #
vertex $-1 $207 $271 #
straight-curve $-1 73.730277413251144 0 -12.366232604856148 0 -1 0 I I #
coedge $-1 $187 $189 $128 $199 reversed $121 $-1 #
edge $-1 $202 -43.769912694793618 $205 43.769912694793618 $198 $272 forward 7 unknown #
coedge $-1 $193 $129 $134 $208 forward $185 $-1 #
coedge $-1 $129 $193 $187 $263 reversed $185 $-1 #
vertex $-1 $130 $273 #
straight-curve $-1 0 43.769912694793618 12.366232604856148 -1 0 0 I I #
coedge $-1 $131 $188 $133 $207 reversed $76 $-1 #
vertex $-1 $199 $274 #
straight-curve $-1 0 -43.769912694793618 12.366232604856148 1 0 0 I I #
edge $-1 $136 -12.366232604856148 $196 12.366232604856148 $133 $275 forward 7 unknown #
edge $-1 $137 -12.366232604856148 $195 12.366232604856148 $134 $276 forward 7 unknown #
point $-1 73.730277413251144 -43.769912694793618 12.366232604856148 #
point $-1 73.730277413251144 43.769912694793618 12.366232604856148 #
face $-1 $-1 $152 $19 $-1 $277 reversed single #
loop $-1 $-1 $218 $139 #
plane-surface $-1 0 0 12.366232604856148 0 0 1 1 0 0 forward_v I I I I #
coedge $-1 $278 $142 $147 $223 forward $84 $-1 #
coedge $-1 $142 $278 $279 $280 reversed $84 $-1 #
coedge $-1 $144 $143 $142 $217 reversed $53 $-1 #
edge $-1 $281 -7.5140326997990705 $228 -2.1903671103150835 $142 $282 forward 7 unknown #
coedge $-1 $279 $283 $144 $219 forward $212 $-1 #
edge $-1 $221 -73.730277413251144 $281 73.730277413251144 $218 $284 forward 7 unknown #
coedge $-1 $151 $145 $283 $285 reversed $152 $-1 #
vertex $-1 $146 $286 #
straight-curve $-1 73.730277413251144 -29.899458303776655 4.852199905057077 0 0 1 I I #
edge $-1 $228 11.482115554134086 $226 25.35256994515105 $214 $287 forward 7 unknown #
coedge $-1 $288 $148 $151 $230 reversed $140 $-1 #
coedge $-1 $148 $288 $278 $289 forward $140 $-1 #
vertex $-1 $149 $290 #
straight-curve $-1 0 -43.769912694793618 7.0425670153721605 1 0 0 I I #
vertex $-1 $223 $291 #
straight-curve $-1 0 -29.899458303776655 7.0425670153721605 1 0 0 I I #
edge $-1 $292 -12.366232604856148 $153 -7.0425670153721605 $151 $293 forward 7 unknown #
point $-1 73.730277413251144 -43.769912694793618 7.0425670153721605 #
point $-1 73.730277413251144 -29.899458303776655 7.0425670153721605 #
plane-surface $-1 0 43.769912694793618 0 0 -1 0 0 0 -1 forward_v I I I I #
coedge $-1 $235 $159 $294 $295 reversed $92 $-1 #
coedge $-1 $159 $234 $238 $296 forward $92 $-1 #
edge $-1 $239 -57.960701217642679 $297 -43.799237626153598 $159 $298 forward 7 unknown #
coedge $-1 $161 $160 $242 $299 reversed $57 $-1 #
coedge $-1 $167 $162 $235 $296 reversed $168 $-1 #
vertex $-1 $236 $300 #
straight-curve $-1 -26.890163692531729 43.769912694793618 2.0091936698365771 -1 0 0 I I #
coedge $-1 $294 $164 $167 $246 forward $157 $-1 #
coedge $-1 $164 $294 $237 $299 forward $157 $-1 #
vertex $-1 $165 $301 #
straight-curve $-1 -33.830377356875772 45.956859974329959 12.366232604856151 0 1 0 I I #
straight-curve $-1 -33.830377356875772 -15.932103885222631 66.031769731089241 0 -0.68199835119979291 0.73135370988377701 I I #
edge $-1 $169 33.830377356875772 $302 73.730277413251144 $167 $303 forward 7 unknown #
point $-1 -33.830377356875772 43.769912694793618 12.366232604856148 #
point $-1 -33.830377356875772 43.769912694793611 2.0091936698365771 #
edge $-1 $304 1 $304 0 $172 $-1 forward 7 unknown #
vertex $-1 $173 $305 #
ellipse-curve $-1 -65.75029740197607 33.505318272020745 2.1189836696597926 0 0.73135370988377701 0.68199835119979291 2 0 0 1 I I #
point $-1 -63.75029740197607 38.940865284807884 7.1877131373463534 #
edge $-1 $306 1 $306 0 $176 $-1 forward 7 unknown #
vertex $-1 $177 $307 #
ellipse-curve $-1 -53.780327385063458 33.505318272020745 2.1189836696597926 0 0.73135370988377701 0.68199835119979291 2 0 0 1 I I #
point $-1 -51.780327385063458 38.940865284807884 7.1877131373463534 #
edge $-1 $308 1 $308 0 $180 $-1 forward 7 unknown #
vertex $-1 $181 $309 #
ellipse-curve $-1 -41.810357368150846 33.505318272020745 2.1189836696597926 0 0.73135370988377701 0.68199835119979291 2 0 0 1 I I #
point $-1 -39.810357368150846 38.940865284807884 7.1877131373463534 #
plane-surface $-1 73.730277413251144 0 0 -1 0 0 0 0 1 forward_v I I I I #
coedge $-1 $189 $187 $191 $266 reversed $121 $-1 #
edge $-1 $202 -12.366232604856148 $268 12.366232604856148 $201 $310 forward 7 unknown #
vertex $-1 $266 $311 #
straight-curve $-1 -73.730277413251144 -43.769912694793618 0 0 0 -1 I I #
edge $-1 $264 -43.769912694793618 $268 43.769912694793618 $262 $312 forward 7 unknown #
straight-curve $-1 0 -43.769912694793618 -12.366232604856148 -1 0 0 I I #
vertex $-1 $194 $313 #
straight-curve $-1 0 43.769912694793618 -12.366232604856148 1 0 0 I I #
point $-1 73.730277413251144 43.769912694793618 -12.366232604856148 #
point $-1 73.730277413251144 -43.769912694793618 -12.366232604856148 #
straight-curve $-1 -73.730277413251144 0 12.366232604856148 0 -1 0 I I #
point $-1 -73.730277413251144 43.769912694793618 12.366232604856148 #
point $-1 -73.730277413251144 -43.769912694793618 12.366232604856148 #
straight-curve $-1 73.730277413251144 -43.769912694793618 0 0 0 -1 I I #
straight-curve $-1 73.730277413251144 43.769912694793618 0 0 0 -1 I I #
plane-surface $-1 73.730277413251144 0 0 -1 0 0 0 0 1 forward_v I I I I #
coedge $-1 $215 $214 $225 $289 reversed $84 $-1 #
coedge $-1 $314 $218 $215 $280 forward $212 $-1 #
edge $-1 $281 29.899458303776655 $315 43.769912694793618 $215 $316 forward 7 unknown #
vertex $-1 $280 $317 #
straight-curve $-1 -73.730277413251144 -29.899458303776655 4.852199905057077 0 0 -1 I I #
coedge $-1 $218 $314 $220 $285 forward $212 $-1 #
straight-curve $-1 0 -29.899458303776655 12.366232604856148 -1 0 0 I I #
edge $-1 $292 -43.769912694793618 $221 -29.899458303776655 $220 $318 forward 7 unknown #
point $-1 73.730277413251144 -29.899458303776655 12.366232604856148 #
straight-curve $-1 -73.730277413251144 -18.417342749642568 7.0425670153721605 0 -1 0 I I #
coedge $-1 $225 $224 $314 $319 reversed $140 $-1 #
edge $-1 $315 -12.366232604856148 $226 -7.0425670153721605 $278 $320 forward 7 unknown #
point $-1 -73.730277413251144 -43.769912694793618 7.0425670153721605 #
point $-1 -73.730277413251144 -29.899458303776655 7.0425670153721605 #
vertex $-1 $285 $321 #
straight-curve $-1 73.730277413251144 -43.769912694793618 0 0 0 -1 I I #
coedge $-1 $242 $241 $234 $295 forward $157 $-1 #
edge $-1 $302 -43.769912694793618 $297 -34.111817874822172 $234 $322 forward 7 unknown #
edge $-1 $302 -12.366232604856148 $239 -2.0091936698365753 $238 $323 forward 7 unknown #
vertex $-1 $236 $324 #
straight-curve $-1 -73.730277413251144 4.2408100299774798 44.398967532824706 0 -0.68199835119979291 0.73135370988377701 I I #
edge $-1 $297 -46.840113720719415 $243 -6.9402136643440429 $242 $325 forward 7 unknown #
point $-1 -73.730277413251144 43.769912694793618 2.0091936698365753 #
point $-1 -33.830377356875772 34.111817874822172 12.366232604856151 #
vertex $-1 $246 $326 #
straight-curve $-1 0 43.769912694793618 12.366232604856148 -1 0 0 I I #
vertex $-1 $249 $327 #
point $-1 -63.75029740197607 33.505318272020745 2.1189836696597926 #
vertex $-1 $253 $328 #
point $-1 -51.780327385063458 33.505318272020745 2.1189836696597926 #
vertex $-1 $257 $329 #
point $-1 -39.810357368150846 33.505318272020745 2.1189836696597926 #
straight-curve $-1 -73.730277413251144 43.769912694793618 0 0 0 -1 I I #
point $-1 -73.730277413251144 -43.769912694793618 -12.366232604856148 #
straight-curve $-1 -73.730277413251144 0 -12.366232604856148 0 1 0 I I #
point $-1 -73.730277413251144 43.769912694793618 -12.366232604856148 #
coedge $-1 $283 $279 $288 $319 forward $212 $-1 #
vertex $-1 $280 $330 #
straight-curve $-1 -73.730277413251144 0 12.366232604856148 0 -1 0 I I #
point $-1 -73.730277413251144 -29.899458303776655 12.366232604856148 #
straight-curve $-1 73.730277413251144 0 12.366232604856148 0 1 0 I I #
edge $-1 $315 -73.730277413251144 $292 73.730277413251144 $288 $331 forward 7 unknown #
straight-curve $-1 -73.730277413251144 -43.769912694793618 0 0 0 -1 I I #
point $-1 73.730277413251144 -43.769912694793618 12.366232604856148 #
straight-curve $-1 -73.730277413251144 0 12.366232604856148 0 -1 0 I I #
straight-curve $-1 -73.730277413251144 43.769912694793618 0 0 0 -1 I I #
point $-1 -73.730277413251144 34.111817874822172 12.366232604856151 #
straight-curve $-1 -26.890163692531729 34.111817874822172 12.366232604856151 1 0 0 I I #
point $-1 -73.730277413251144 43.769912694793618 12.366232604856148 #
point $-1 -65.75029740197607 32.042610852253191 0.75498696726020675 #
point $-1 -53.780327385063458 32.042610852253191 0.75498696726020675 #
point $-1 -41.810357368150846 32.042610852253191 0.75498696726020675 #
point $-1 -73.730277413251144 -43.769912694793618 12.366232604856148 #
straight-curve $-1 0 -43.769912694793618 12.366232604856148 1 0 0 I I #
End-of-ACIS-data 