500 0 5 0           
7 Unknown 11 ACIS 5.0 NT 24 Thu Mar 25 16:09:10 1999 
-1 9.9999999999999995e-007 1e-010 
body $-1 $5 $-1 $6 #
body $-1 $7 $-1 $8 #
body $-1 $9 $-1 $10 #
body $-1 $11 $-1 $12 #
body $-1 $13 $-1 $14 #
lump $-1 $-1 $15 $0 #
transform $-1 1 0 0 0 1 0 0 0 1 42.291329691457868 25.628543211686779 10.100150453498827 1 rotate no_reflect no_shear #
lump $-1 $-1 $16 $1 #
transform $-1 1 0 0 0 1 0 0 0 1 42.291329691457868 25.628543211686779 10.100150453498827 1 rotate no_reflect no_shear #
lump $-1 $-1 $17 $2 #
transform $-1 1 0 0 0 1 0 0 0 1 42.291329691457868 25.628543211686779 10.100150453498827 1 rotate no_reflect no_shear #
lump $-1 $-1 $18 $3 #
transform $-1 1 0 0 0 1 0 0 0 1 42.291329691457868 25.628543211686779 10.100150453498827 1 rotate no_reflect no_shear #
lump $-1 $-1 $19 $4 #
transform $-1 1 0 0 0 1 0 0 0 1 42.291329691457868 25.628543211686779 10.100150453498827 1 rotate no_reflect no_shear #
shell $-1 $-1 $-1 $20 $-1 $5 #
shell $-1 $-1 $-1 $21 $-1 $7 #
shell $-1 $-1 $-1 $22 $-1 $9 #
shell $-1 $-1 $-1 $23 $-1 $11 #
shell $-1 $-1 $-1 $24 $-1 $13 #
face $-1 $25 $26 $15 $-1 $27 forward single #
face $-1 $28 $29 $16 $-1 $30 forward single #
face $-1 $31 $32 $17 $-1 $33 forward single #
face $-1 $34 $35 $18 $-1 $36 reversed single #
face $-1 $37 $38 $19 $-1 $39 reversed single #
face $-1 $40 $41 $15 $-1 $42 reversed single #
loop $-1 $-1 $43 $20 #
plane-surface $-1 0 0 10.100150453498827 0 0 1 1 0 0 forward_v I I I I #
face $-1 $44 $45 $16 $-1 $46 forward single #
loop $-1 $-1 $47 $21 #
plane-surface $-1 -31.079403480804853 -19.43727150613309 0 1 0 0 0 0 -1 forward_v I I I I #
face $-1 $48 $49 $17 $-1 $50 forward single #
loop $-1 $-1 $51 $22 #
plane-surface $-1 -89.589353189785072 -3.9951339993794868 71.451787551016835 0 1 0 -0.55919291073839883 0 0.82903756765294845 forward_v I I I I #
face $-1 $52 $53 $18 $-1 $54 reversed single #
loop $-1 $55 $56 $23 #
cone-surface $-1 -35.271936036400035 -1.8273042958606744 4.9469828293089231 0.55919291073839883 0 -0.82903756765294845 0.82903756765294845 0 0.55919291073839883 1 I I 0 1 1 forward I I I I #
face $-1 $57 $58 $19 $-1 $59 reversed single #
loop $-1 $60 $61 $24 #
cone-surface $-1 -35.271936036400035 1.424440259417544 4.9469828293089231 0.55919291073839883 0 -0.82903756765294845 0.82903756765294845 0 0.55919291073839883 1 I I 0 1 1 forward I I I I #
face $-1 $62 $63 $15 $-1 $64 reversed single #
loop $-1 $-1 $65 $25 #
plane-surface $-1 0 0 -10.100150453498827 0 0 1 1 0 0 forward_v I I I I #
coedge $-1 $66 $67 $68 $69 forward $26 $-1 #
face $-1 $70 $71 $16 $-1 $72 forward single #
loop $-1 $-1 $73 $28 #
plane-surface $-1 -29.266295934110758 -13.245999800579401 0 0 -1 0 0 0 -1 forward_v I I I I #
coedge $-1 $74 $75 $76 $77 reversed $29 $-1 #
face $-1 $78 $79 $17 $-1 $80 forward single #
loop $-1 $-1 $81 $31 #
plane-surface $-1 -42.291329691457882 -0.20143201822156698 1.3295853505865409 -0.55919291073839883 0 0.82903756765294845 0.82903756765294845 0 0.55919291073839883 forward_v I I I I #
coedge $-1 $82 $83 $84 $85 reversed $32 $-1 #
face $-1 $86 $87 $18 $-1 $88 forward single #
loop $-1 $89 $90 $34 #
cone-surface $-1 -34.47439454972158 -1.8273042958606744 3.7645789727486925 0.55919291073839883 0 -0.82903756765294845 0.41451878382647422 0 0.27959645536919941 1 I I -0.70710678118654746 0.70710678118654746 0.5 forward I I I I #
loop $-1 $-1 $91 $23 #
coedge $-1 $56 $56 $92 $93 reversed $35 $-1 #
face $-1 $94 $95 $19 $-1 $96 reversed single #
loop $-1 $97 $98 $37 #
cone-surface $-1 -34.47439454972158 1.424440259417544 3.7645789727486925 0.55919291073839883 0 -0.82903756765294845 0.41451878382647422 0 0.27959645536919941 1 I I -0.70710678118654746 0.70710678118654746 0.5 forward I I I I #
loop $-1 $-1 $99 $24 #
coedge $-1 $61 $61 $100 $101 reversed $38 $-1 #
face $-1 $102 $103 $15 $-1 $104 reversed single #
loop $-1 $-1 $105 $40 #
plane-surface $-1 0 -25.628543211686779 0 0 1 0 0 0 1 forward_v I I I I #
coedge $-1 $106 $107 $108 $109 forward $41 $-1 #
coedge $-1 $110 $43 $111 $112 forward $26 $-1 #
coedge $-1 $43 $110 $113 $114 forward $26 $-1 #
coedge $-1 $115 $116 $43 $69 reversed $117 $-1 #
edge $-1 $118 -25.628543211686779 $119 25.628543211686779 $68 $120 forward 7 unknown #
face $-1 $121 $122 $16 $-1 $123 forward single #
loop $-1 $-1 $124 $44 #
plane-surface $-1 -27.453188387416663 -19.43727150613309 0 -1 0 0 0 0 1 forward_v I I I I #
coedge $-1 $125 $126 $127 $128 reversed $45 $-1 #
coedge $-1 $129 $47 $130 $131 reversed $29 $-1 #
coedge $-1 $47 $129 $132 $133 reversed $29 $-1 #
coedge $-1 $126 $125 $47 $77 forward $45 $-1 #
edge $-1 $134 -10.100150453498827 $135 10.100150453498827 $76 $136 forward 7 unknown #
face $-1 $137 $138 $17 $-1 $139 forward single #
loop $-1 $-1 $140 $48 #
plane-surface $-1 -89.589353189785072 3.5922699629363528 71.451787551016835 0 -1 0 0.55919291073839883 0 -0.82903756765294845 forward_v I I I I #
coedge $-1 $141 $142 $143 $144 reversed $49 $-1 #
coedge $-1 $83 $51 $142 $145 forward $32 $-1 #
coedge $-1 $51 $82 $146 $147 reversed $32 $-1 #
coedge $-1 $148 $143 $51 $85 forward $138 $-1 #
edge $-1 $149 -15.506244150931781 $150 -2.503346903434668 $84 $151 forward 7 unknown #
face $-1 $152 $153 $18 $-1 $154 forward single #
loop $-1 $-1 $155 $52 #
plane-surface $-1 -89.589353189785072 -3.9951339993794868 71.451787551016835 0 1 0 -0.55919291073839883 0 0.82903756765294845 forward_v I I I I #
loop $-1 $-1 $156 $34 #
coedge $-1 $90 $90 $91 $157 forward $53 $-1 #
coedge $-1 $91 $91 $90 $157 reversed $55 $-1 #
coedge $-1 $92 $92 $56 $93 forward $153 $-1 #
edge $-1 $158 0 $158 6.2831853071796004 $92 $159 forward 7 unknown #
face $-1 $160 $161 $19 $-1 $162 reversed single #
loop $-1 $163 $164 $57 #
cone-surface $-1 -35.271936036400035 -1.8273042958606744 4.9469828293089231 0.55919291073839883 0 -0.82903756765294845 0.82903756765294845 0 0.55919291073839883 1 I I 0 1 1 forward I I I I #
loop $-1 $-1 $165 $37 #
coedge $-1 $98 $98 $99 $166 forward $58 $-1 #
coedge $-1 $99 $99 $98 $166 reversed $60 $-1 #
coedge $-1 $100 $100 $61 $101 forward $167 $-1 #
edge $-1 $168 0 $168 6.2831853071796004 $100 $169 forward 7 unknown #
face $-1 $170 $171 $15 $-1 $172 reversed single #
loop $-1 $-1 $173 $62 #
plane-surface $-1 -42.291329691457868 0 0 1 0 0 0 0 -1 forward_v I I I I #
coedge $-1 $174 $113 $175 $176 forward $63 $-1 #
coedge $-1 $177 $65 $174 $178 forward $41 $-1 #
coedge $-1 $65 $177 $179 $180 forward $41 $-1 #
coedge $-1 $116 $115 $65 $109 reversed $117 $-1 #
edge $-1 $181 -25.628543211686779 $182 25.628543211686779 $108 $183 forward 7 unknown #
coedge $-1 $67 $66 $184 $185 forward $26 $-1 #
coedge $-1 $186 $187 $66 $112 reversed $171 $-1 #
edge $-1 $119 -42.291329691457868 $188 42.291329691457868 $111 $189 forward 7 unknown #
coedge $-1 $105 $190 $67 $114 reversed $63 $-1 #
edge $-1 $191 -42.291329691457868 $118 42.291329691457868 $113 $192 forward 7 unknown #
coedge $-1 $108 $68 $190 $193 forward $117 $-1 #
coedge $-1 $68 $108 $186 $194 reversed $117 $-1 #
loop $-1 $-1 $115 $170 #
vertex $-1 $69 $195 #
vertex $-1 $69 $196 #
straight-curve $-1 42.291329691457868 0 10.100150453498827 0 1 0 I I #
face $-1 $197 $198 $16 $-1 $199 reversed single #
loop $-1 $-1 $130 $70 #
plane-surface $-1 0 0 10.100150453498827 0 0 1 1 0 0 forward_v I I I I #
coedge $-1 $200 $201 $202 $203 reversed $71 $-1 #
coedge $-1 $76 $73 $204 $205 reversed $45 $-1 #
coedge $-1 $73 $76 $206 $207 reversed $45 $-1 #
coedge $-1 $201 $200 $73 $128 forward $71 $-1 #
edge $-1 $208 -10.100150453498827 $209 10.100150453498827 $127 $210 forward 7 unknown #
coedge $-1 $75 $74 $211 $212 reversed $29 $-1 #
coedge $-1 $204 $213 $74 $131 forward $122 $-1 #
edge $-1 $214 -15.909907458620234 $134 -3.5273640475128563 $130 $215 forward 7 unknown #
coedge $-1 $216 $206 $75 $133 forward $217 $-1 #
edge $-1 $135 3.5273640475128563 $218 15.909907458620234 $132 $219 forward 7 unknown #
vertex $-1 $131 $220 #
vertex $-1 $133 $221 #
straight-curve $-1 -31.079403480804853 -13.245999800579401 0 0 0 -1 I I #
face $-1 $222 $223 $17 $-1 $224 forward single #
loop $-1 $-1 $225 $78 #
plane-surface $-1 0 0 10.100150453498827 0 0 1 1 0 0 forward_v I I I I #
coedge $-1 $226 $227 $225 $228 reversed $79 $-1 #
coedge $-1 $229 $81 $227 $230 reversed $49 $-1 #
coedge $-1 $81 $229 $82 $145 reversed $49 $-1 #
coedge $-1 $84 $225 $81 $144 forward $138 $-1 #
edge $-1 $231 -3.6929859720471363 $149 3.8944179902687033 $143 $232 forward 7 unknown #
edge $-1 $149 -15.684328135224384 $233 -1.7120460491857305e-014 $82 $234 forward 7 unknown #
coedge $-1 $235 $236 $83 $147 forward $237 $-1 #
edge $-1 $150 25.62574332200959 $233 34.39630842492187 $146 $238 forward 7 unknown #
coedge $-1 $239 $84 $236 $240 forward $138 $-1 #
vertex $-1 $144 $241 #
vertex $-1 $240 $242 #
straight-curve $-1 -44.794676594892536 -3.9951339993794868 10.100150453498827 -1 0 0 I I #
face $-1 $243 $244 $18 $-1 $245 forward single #
loop $-1 $246 $92 $86 #
plane-surface $-1 -42.291329691457882 -0.20143201822156698 1.3295853505865409 -0.55919291073839883 0 0.82903756765294845 0.82903756765294845 0 0.55919291073839883 forward_v I I I I #
coedge $-1 $247 $248 $249 $250 reversed $87 $-1 #
coedge $-1 $156 $156 $-1 $251 forward $89 $-1 #
edge $-1 $252 0 $252 6.2831853071796004 $90 $253 forward 7 unknown #
vertex $-1 $93 $254 #
ellipse-curve $-1 -35.789881067709302 -1.8273042958606744 5.7148679020426947 0.55919291073839883 0 -0.82903756765294845 0.82903756765294845 0 0.55919291073839883 1 I I #
face $-1 $255 $256 $19 $-1 $257 forward single #
loop $-1 $258 $259 $94 #
cone-surface $-1 -34.47439454972158 -1.8273042958606744 3.7645789727486925 0.55919291073839883 0 -0.82903756765294845 0.41451878382647422 0 0.27959645536919941 1 I I -0.70710678118654746 0.70710678118654746 0.5 forward I I I I #
loop $-1 $-1 $260 $57 #
coedge $-1 $164 $164 $261 $262 reversed $95 $-1 #
coedge $-1 $165 $165 $-1 $263 forward $97 $-1 #
edge $-1 $264 0 $264 6.2831853071796004 $98 $265 forward 7 unknown #
loop $-1 $266 $100 $255 #
vertex $-1 $101 $267 #
ellipse-curve $-1 -35.789881067709302 1.424440259417544 5.7148679020426947 0.55919291073839883 0 -0.82903756765294845 0.82903756765294845 0 0.55919291073839883 1 I I #
face $-1 $-1 $117 $15 $-1 $268 reversed single #
loop $-1 $-1 $186 $102 #
plane-surface $-1 0 25.628543211686779 0 0 -1 0 0 0 -1 forward_v I I I I #
coedge $-1 $269 $184 $187 $270 forward $103 $-1 #
coedge $-1 $190 $105 $106 $178 reversed $63 $-1 #
coedge $-1 $184 $269 $105 $176 reversed $103 $-1 #
edge $-1 $191 -10.100150453498827 $271 10.100150453498827 $175 $272 forward 7 unknown #
coedge $-1 $107 $106 $269 $273 forward $41 $-1 #
edge $-1 $182 -42.291329691457868 $271 42.291329691457868 $174 $274 forward 7 unknown #
coedge $-1 $187 $186 $107 $180 reversed $171 $-1 #
edge $-1 $275 -42.291329691457868 $181 42.291329691457868 $179 $276 forward 7 unknown #
vertex $-1 $109 $277 #
vertex $-1 $193 $278 #
straight-curve $-1 42.291329691457868 0 -10.100150453498827 0 -1 0 I I #
coedge $-1 $173 $175 $110 $185 reversed $103 $-1 #
edge $-1 $188 -25.628543211686779 $191 25.628543211686779 $184 $279 forward 7 unknown #
coedge $-1 $179 $111 $116 $194 forward $171 $-1 #
coedge $-1 $111 $179 $173 $270 reversed $171 $-1 #
vertex $-1 $112 $280 #
straight-curve $-1 0 25.628543211686779 10.100150453498827 -1 0 0 I I #
coedge $-1 $113 $174 $115 $193 reversed $63 $-1 #
vertex $-1 $185 $281 #
straight-curve $-1 0 -25.628543211686779 10.100150453498827 1 0 0 I I #
edge $-1 $118 -10.100150453498827 $182 10.100150453498827 $115 $282 forward 7 unknown #
edge $-1 $119 -10.100150453498827 $181 10.100150453498827 $116 $283 forward 7 unknown #
point $-1 42.291329691457868 -25.628543211686779 10.100150453498827 #
point $-1 42.291329691457868 25.628543211686779 10.100150453498827 #
face $-1 $284 $217 $16 $-1 $285 reversed single #
loop $-1 $-1 $202 $121 #
plane-surface $-1 0 -25.628543211686779 0 0 1 0 0 0 1 forward_v I I I I #
coedge $-1 $127 $124 $286 $287 reversed $71 $-1 #
coedge $-1 $124 $127 $288 $289 reversed $71 $-1 #
coedge $-1 $290 $291 $124 $203 forward $198 $-1 #
edge $-1 $292 -10.100150453498827 $293 10.100150453498827 $202 $294 forward 7 unknown #
coedge $-1 $286 $130 $125 $205 forward $122 $-1 #
edge $-1 $134 -16.446255513749474 $208 -12.820040420361284 $204 $295 forward 7 unknown #
coedge $-1 $132 $288 $126 $207 forward $217 $-1 #
edge $-1 $209 12.820040420361284 $135 16.446255513749474 $206 $296 forward 7 unknown #
vertex $-1 $205 $297 #
vertex $-1 $207 $298 #
straight-curve $-1 -27.453188387416663 -13.245999800579401 0 0 0 -1 I I #
coedge $-1 $299 $300 $129 $212 forward $301 $-1 #
edge $-1 $218 -10.100150453498827 $214 10.100150453498827 $211 $302 forward 7 unknown #
coedge $-1 $130 $303 $299 $304 forward $122 $-1 #
vertex $-1 $212 $305 #
straight-curve $-1 -31.079403480804853 -9.718635753066545 10.100150453498827 0 1 0 I I #
coedge $-1 $306 $132 $300 $307 forward $217 $-1 #
loop $-1 $-1 $132 $197 #
vertex $-1 $307 $308 #
straight-curve $-1 -31.079403480804853 -9.718635753066545 -10.100150453498827 0 -1 0 I I #
point $-1 -31.079403480804853 -13.245999800579401 10.100150453498827 #
point $-1 -31.079403480804853 -13.245999800579401 -10.100150453498827 #
face $-1 $309 $310 $17 $-1 $311 forward single #
loop $-1 $-1 $312 $137 #
plane-surface $-1 -31.079403480804853 -19.43727150613309 0 1 0 0 0 0 -1 forward_v I I I I #
coedge $-1 $143 $313 $140 $228 forward $138 $-1 #
coedge $-1 $227 $140 $314 $315 reversed $79 $-1 #
coedge $-1 $140 $226 $141 $230 forward $79 $-1 #
edge $-1 $316 2.503346903434668 $231 15.506244150931781 $225 $317 forward 7 unknown #
coedge $-1 $142 $141 $235 $318 reversed $49 $-1 #
edge $-1 $319 1.7120460491857305e-014 $231 15.684328135224384 $227 $320 forward 7 unknown #
vertex $-1 $144 $321 #
straight-curve $-1 -29.288432443960751 -0.10071600911078349 10.100150453498827 0 -1 0 I I #
vertex $-1 $318 $322 #
straight-curve $-1 -42.291329691457882 -3.9951339993794868 1.3295853505865409 -0.82903756765294845 0 -0.55919291073839883 I I #
coedge $-1 $314 $146 $229 $318 forward $237 $-1 #
coedge $-1 $146 $323 $148 $240 reversed $237 $-1 #
loop $-1 $-1 $314 $324 #
straight-curve $-1 -42.291329691457868 -3.9951339993794868 35.725893775508418 0 0 -1 I I #
coedge $-1 $325 $148 $326 $327 forward $138 $-1 #
edge $-1 $150 3.9951339993794868 $328 25.628543211686779 $236 $329 forward 7 unknown #
point $-1 -29.288432443960755 -3.9951339993794868 10.100150453498827 #
point $-1 -42.291329691457868 -3.9951339993794868 10.100150453498827 #
face $-1 $330 $331 $18 $-1 $332 forward single #
loop $-1 $-1 $333 $152 #
plane-surface $-1 -89.589353189785072 3.5922699629363528 71.451787551016835 0 -1 0 0.55919291073839883 0 -0.82903756765294845 forward_v I I I I #
loop $-1 $-1 $334 $86 #
coedge $-1 $248 $155 $335 $336 forward $87 $-1 #
coedge $-1 $155 $247 $337 $338 reversed $87 $-1 #
coedge $-1 $339 $340 $155 $250 forward $331 $-1 #
edge $-1 $341 -15.506244150931781 $342 -2.503346903434668 $249 $343 forward 7 unknown #
edge $-1 $344 1 $344 0 $156 $-1 forward 7 unknown #
vertex $-1 $157 $345 #
ellipse-curve $-1 -34.753991005090782 -1.8273042958606744 4.1790977565751666 -0.55919291073839883 0 0.82903756765294845 0.82903756765294845 0 0.55919291073839883 1 I I #
point $-1 -34.960843500056342 -1.8273042958606744 6.2740608127810784 #
face $-1 $346 $167 $19 $-1 $347 forward single #
loop $-1 $-1 $348 $160 #
plane-surface $-1 -89.589353189785072 -3.9951339993794868 71.451787551016835 0 1 0 -0.55919291073839883 0 0.82903756765294845 forward_v I I I I #
loop $-1 $-1 $349 $94 #
coedge $-1 $259 $259 $260 $350 forward $161 $-1 #
coedge $-1 $260 $260 $259 $350 reversed $163 $-1 #
coedge $-1 $261 $261 $164 $262 forward $266 $-1 #
edge $-1 $351 0 $351 6.2831853071796004 $261 $352 forward 7 unknown #
edge $-1 $353 1 $353 0 $165 $-1 forward 7 unknown #
vertex $-1 $166 $354 #
ellipse-curve $-1 -34.753991005090782 1.424440259417544 4.1790977565751666 -0.55919291073839883 0 0.82903756765294845 0.82903756765294845 0 0.55919291073839883 1 I I #
loop $-1 $355 $261 $255 #
point $-1 -34.960843500056342 1.424440259417544 6.2740608127810784 #
plane-surface $-1 42.291329691457868 0 0 -1 0 0 0 0 1 forward_v I I I I #
coedge $-1 $175 $173 $177 $273 reversed $103 $-1 #
edge $-1 $188 -10.100150453498827 $275 10.100150453498827 $187 $356 forward 7 unknown #
vertex $-1 $273 $357 #
straight-curve $-1 -42.291329691457868 -25.628543211686779 0 0 0 -1 I I #
edge $-1 $271 -25.628543211686779 $275 25.628543211686779 $269 $358 forward 7 unknown #
straight-curve $-1 0 -25.628543211686779 -10.100150453498827 -1 0 0 I I #
vertex $-1 $180 $359 #
straight-curve $-1 0 25.628543211686779 -10.100150453498827 1 0 0 I I #
point $-1 42.291329691457868 25.628543211686779 -10.100150453498827 #
point $-1 42.291329691457868 -25.628543211686779 -10.100150453498827 #
straight-curve $-1 -42.291329691457868 0 10.100150453498827 0 -1 0 I I #
point $-1 -42.291329691457868 25.628543211686779 10.100150453498827 #
point $-1 -42.291329691457868 -25.628543211686779 10.100150453498827 #
straight-curve $-1 42.291329691457868 -25.628543211686779 0 0 0 -1 I I #
straight-curve $-1 42.291329691457868 25.628543211686779 0 0 0 -1 I I #
face $-1 $360 $301 $16 $-1 $199 reversed single #
plane-surface $-1 0 0 -10.100150453498827 0 0 1 1 0 0 forward_v I I I I #
coedge $-1 $361 $204 $200 $287 forward $122 $-1 #
edge $-1 $208 3.5273640475128563 $292 15.909907458620234 $286 $362 forward 7 unknown #
coedge $-1 $206 $363 $201 $289 forward $217 $-1 #
edge $-1 $293 -15.909907458620234 $209 -3.5273640475128563 $288 $364 forward 7 unknown #
coedge $-1 $365 $202 $363 $366 reversed $198 $-1 #
coedge $-1 $202 $365 $361 $367 reversed $198 $-1 #
vertex $-1 $367 $368 #
vertex $-1 $203 $369 #
straight-curve $-1 -27.453188387416663 -25.628543211686779 0 0 0 -1 I I #
straight-curve $-1 -14.633147967055379 -13.245999800579401 10.100150453498827 1 0 0 I I #
straight-curve $-1 -14.633147967055379 -13.245999800579401 -10.100150453498827 -1 0 0 I I #
point $-1 -27.453188387416663 -13.245999800579401 10.100150453498827 #
point $-1 -27.453188387416663 -13.245999800579401 -10.100150453498827 #
coedge $-1 $370 $211 $213 $304 reversed $301 $-1 #
coedge $-1 $211 $370 $216 $307 reversed $301 $-1 #
loop $-1 $-1 $211 $284 #
straight-curve $-1 -31.079403480804853 -25.628543211686779 0 0 0 1 I I #
coedge $-1 $213 $371 $372 $373 forward $122 $-1 #
edge $-1 $374 -42.291329691457868 $214 -31.079403480804853 $299 $375 forward 7 unknown #
point $-1 -31.079403480804853 -25.628543211686779 10.100150453498827 #
coedge $-1 $376 $216 $377 $378 forward $217 $-1 #
edge $-1 $218 31.079403480804853 $379 42.291329691457868 $300 $380 forward 7 unknown #
point $-1 -31.079403480804853 -25.628543211686779 -10.100150453498827 #
face $-1 $381 $382 $17 $-1 $383 forward single #
loop $-1 $-1 $384 $222 #
plane-surface $-1 -29.266295934110758 -13.245999800579401 0 0 -1 0 0 0 -1 forward_v I I I I #
coedge $-1 $385 $386 $387 $388 reversed $223 $-1 #
coedge $-1 $225 $389 $390 $391 forward $138 $-1 #
coedge $-1 $390 $235 $226 $315 forward $237 $-1 #
edge $-1 $319 -34.39630842492187 $316 -25.62574332200959 $314 $392 forward 7 unknown #
vertex $-1 $315 $393 #
straight-curve $-1 -44.794676594892536 3.5922699629363528 10.100150453498827 1 0 0 I I #
edge $-1 $233 -3.8944179902687033 $319 3.6929859720471363 $235 $394 forward 7 unknown #
vertex $-1 $318 $395 #
straight-curve $-1 -42.291329691457882 3.5922699629363528 1.3295853505865409 0.82903756765294845 0 0.55919291073839883 I I #
point $-1 -29.288432443960755 3.5922699629363528 10.100150453498827 #
point $-1 -42.291329691457868 -3.9951339993794868 1.3295853505865505 #
coedge $-1 $236 $396 $397 $398 reversed $237 $-1 #
face $-1 $399 $237 $17 $-1 $400 reversed single #
coedge $-1 $401 $239 $385 $402 forward $138 $-1 #
coedge $-1 $397 $403 $239 $327 reversed $404 $-1 #
edge $-1 $328 -42.291329691457868 $405 -31.079403480804853 $326 $406 forward 7 unknown #
vertex $-1 $240 $407 #
straight-curve $-1 -42.291329691457868 0 10.100150453498827 0 -1 0 I I #
face $-1 $408 $409 $18 $-1 $410 forward single #
loop $-1 $-1 $411 $243 #
plane-surface $-1 0 0 10.100150453498827 0 0 1 1 0 0 forward_v I I I I #
coedge $-1 $412 $413 $411 $414 reversed $244 $-1 #
coedge $-1 $415 $335 $340 $416 reversed $246 $-1 #
coedge $-1 $334 $417 $247 $336 reversed $246 $-1 #
edge $-1 $341 -15.684328135224384 $418 -1.7120460491857305e-014 $247 $419 forward 7 unknown #
coedge $-1 $420 $421 $248 $338 forward $422 $-1 #
edge $-1 $342 25.62574332200959 $418 34.39630842492187 $337 $423 forward 7 unknown #
coedge $-1 $424 $249 $421 $425 forward $331 $-1 #
coedge $-1 $249 $411 $334 $416 forward $331 $-1 #
vertex $-1 $416 $426 #
vertex $-1 $425 $427 #
straight-curve $-1 -44.794676594892536 -3.9951339993794868 10.100150453498827 -1 0 0 I I #
vertex $-1 $251 $428 #
point $-1 -33.924953437437829 -1.8273042958606744 4.7382906673135654 #
face $-1 $429 $430 $19 $-1 $431 forward single #
plane-surface $-1 -42.291329691457882 -0.20143201822156698 1.3295853505865409 -0.55919291073839883 0 0.82903756765294845 0.82903756765294845 0 0.55919291073839883 forward_v I I I I #
coedge $-1 $432 $433 $434 $435 reversed $256 $-1 #
coedge $-1 $349 $349 $-1 $436 forward $258 $-1 #
edge $-1 $437 0 $437 6.2831853071796004 $259 $438 forward 7 unknown #
vertex $-1 $262 $439 #
ellipse-curve $-1 -35.789881067709302 -1.8273042958606744 5.7148679020426947 0.55919291073839883 0 -0.82903756765294845 0.82903756765294845 0 0.55919291073839883 1 I I #
vertex $-1 $263 $440 #
point $-1 -33.924953437437829 1.424440259417544 4.7382906673135654 #
loop $-1 $-1 $441 $255 #
straight-curve $-1 -42.291329691457868 25.628543211686779 0 0 0 -1 I I #
point $-1 -42.291329691457868 -25.628543211686779 -10.100150453498827 #
straight-curve $-1 -42.291329691457868 0 -10.100150453498827 0 1 0 I I #
point $-1 -42.291329691457868 25.628543211686779 -10.100150453498827 #
face $-1 $442 $443 $16 $-1 $444 reversed single #
coedge $-1 $445 $286 $291 $367 forward $122 $-1 #
straight-curve $-1 -27.453188387416663 -9.718635753066545 10.100150453498827 0 -1 0 I I #
coedge $-1 $288 $446 $290 $366 forward $217 $-1 #
straight-curve $-1 -27.453188387416663 -9.718635753066545 -10.100150453498827 0 1 0 I I #
coedge $-1 $291 $290 $447 $448 reversed $198 $-1 #
edge $-1 $449 -42.291329691457868 $293 27.453188387416663 $290 $380 forward 7 unknown #
edge $-1 $292 -27.453188387416663 $450 42.291329691457868 $291 $375 forward 7 unknown #
point $-1 -27.453188387416663 -25.628543211686779 10.100150453498827 #
point $-1 -27.453188387416663 -25.628543211686779 -10.100150453498827 #
coedge $-1 $300 $299 $451 $452 forward $301 $-1 #
coedge $-1 $303 $445 $453 $454 forward $122 $-1 #
coedge $-1 $455 $451 $303 $373 reversed $443 $-1 #
edge $-1 $456 -25.628543211686779 $374 25.628543211686779 $372 $457 forward 7 unknown #
vertex $-1 $373 $458 #
straight-curve $-1 0 -25.628543211686779 10.100150453498827 1 0 0 I I #
coedge $-1 $446 $306 $459 $460 forward $217 $-1 #
coedge $-1 $451 $455 $306 $378 reversed $443 $-1 #
edge $-1 $379 -25.628543211686779 $461 25.628543211686779 $377 $462 forward 7 unknown #
vertex $-1 $378 $463 #
straight-curve $-1 0 -25.628543211686779 -10.100150453498827 -1 0 0 I I #
face $-1 $464 $465 $17 $-1 $466 reversed single #
loop $-1 $-1 $467 $309 #
plane-surface $-1 -27.453188387416663 -19.43727150613309 0 -1 0 0 0 0 1 forward_v I I I I #
coedge $-1 $468 $469 $470 $471 reversed $310 $-1 #
coedge $-1 $472 $312 $325 $402 reversed $223 $-1 #
coedge $-1 $312 $472 $473 $474 reversed $223 $-1 #
coedge $-1 $469 $468 $312 $388 forward $310 $-1 #
edge $-1 $475 -10.100150453498827 $476 10.100150453498827 $387 $477 forward 7 unknown #
coedge $-1 $313 $478 $479 $480 forward $138 $-1 #
coedge $-1 $481 $314 $313 $391 reversed $237 $-1 #
edge $-1 $482 -25.628543211686779 $316 -3.5922699629363528 $390 $329 forward 7 unknown #
straight-curve $-1 -42.291329691457868 3.5922699629363528 35.725893775508418 0 0 1 I I #
point $-1 -42.291329691457868 3.5922699629363528 10.100150453498827 #
straight-curve $-1 -42.291329691457868 -0.10071600911078349 1.3295853505865487 0 1 0 I I #
point $-1 -42.291329691457868 3.5922699629363528 1.3295853505865505 #
coedge $-1 $323 $481 $483 $484 reversed $237 $-1 #
coedge $-1 $485 $326 $323 $398 forward $404 $-1 #
edge $-1 $328 -10.100150453498827 $486 10.100150453498827 $323 $487 forward 7 unknown #
face $-1 $488 $489 $17 $-1 $490 reversed single #
plane-surface $-1 -42.291329691457868 0 0 1 0 0 0 0 -1 forward_v I I I I #
coedge $-1 $491 $325 $468 $492 forward $138 $-1 #
edge $-1 $405 -15.909907458620234 $475 -3.5273640475128563 $325 $493 forward 7 unknown #
coedge $-1 $326 $485 $472 $494 forward $404 $-1 #
loop $-1 $-1 $403 $495 #
vertex $-1 $494 $496 #
straight-curve $-1 0 -25.628543211686779 10.100150453498827 1 0 0 I I #
point $-1 -42.291329691457868 -25.628543211686779 10.100150453498827 #
face $-1 $497 $498 $18 $-1 $499 forward single #
loop $-1 $-1 $500 $330 #
plane-surface $-1 -31.079403480804853 -19.43727150613309 0 1 0 0 0 0 -1 forward_v I I I I #
coedge $-1 $340 $501 $333 $414 forward $331 $-1 #
coedge $-1 $413 $333 $502 $503 reversed $244 $-1 #
coedge $-1 $333 $412 $415 $504 forward $244 $-1 #
edge $-1 $505 2.503346903434668 $506 15.506244150931781 $411 $507 forward 7 unknown #
coedge $-1 $417 $334 $413 $504 reversed $246 $-1 #
edge $-1 $506 -3.6929859720471363 $341 3.8944179902687033 $340 $508 forward 7 unknown #
coedge $-1 $335 $415 $420 $509 reversed $246 $-1 #
vertex $-1 $509 $510 #
straight-curve $-1 -42.291329691457882 -3.9951339993794868 1.3295853505865409 -0.82903756765294845 0 -0.55919291073839883 I I #
coedge $-1 $502 $337 $417 $509 forward $422 $-1 #
coedge $-1 $337 $511 $339 $425 reversed $422 $-1 #
loop $-1 $-1 $502 $512 #
straight-curve $-1 -42.291329691457868 -3.9951339993794868 35.725893775508418 0 0 -1 I I #
coedge $-1 $513 $339 $514 $515 forward $331 $-1 #
edge $-1 $342 3.9951339993794868 $516 25.628543211686779 $421 $517 forward 7 unknown #
point $-1 -29.288432443960755 -3.9951339993794868 10.100150453498827 #
point $-1 -42.291329691457868 -3.9951339993794868 10.100150453498827 #
point $-1 -34.194798094352379 -1.8273042958606744 3.3500601889222184 #
face $-1 $518 $519 $19 $-1 $520 forward single #
loop $-1 $-1 $521 $346 #
plane-surface $-1 -89.589353189785072 3.5922699629363528 71.451787551016835 0 -1 0 0.55919291073839883 0 -0.82903756765294845 forward_v I I I I #
coedge $-1 $433 $348 $522 $523 forward $256 $-1 #
coedge $-1 $348 $432 $524 $525 reversed $256 $-1 #
coedge $-1 $526 $527 $348 $435 forward $519 $-1 #
edge $-1 $528 -15.506244150931781 $529 -2.503346903434668 $434 $530 forward 7 unknown #
edge $-1 $531 1 $531 0 $349 $-1 forward 7 unknown #
vertex $-1 $350 $532 #
ellipse-curve $-1 -34.753991005090782 -1.8273042958606744 4.1790977565751666 -0.55919291073839883 0 0.82903756765294845 0.82903756765294845 0 0.55919291073839883 1 I I #
point $-1 -34.960843500056342 -1.8273042958606744 6.2740608127810784 #
point $-1 -34.194798094352379 1.424440259417544 3.3500601889222184 #
coedge $-1 $533 $522 $527 $534 reversed $355 $-1 #
face $-1 $535 $536 $16 $-1 $537 reversed single #
loop $-1 $-1 $455 $360 #
plane-surface $-1 -42.291329691457868 0 0 1 0 0 0 0 -1 forward_v I I I I #
coedge $-1 $371 $361 $538 $539 forward $122 $-1 #
coedge $-1 $363 $376 $540 $541 forward $217 $-1 #
coedge $-1 $540 $538 $365 $448 forward $542 $-1 #
edge $-1 $450 -10.100150453498827 $449 10.100150453498827 $447 $543 forward 7 unknown #
vertex $-1 $448 $544 #
vertex $-1 $539 $545 #
coedge $-1 $372 $377 $370 $452 reversed $443 $-1 #
edge $-1 $374 -10.100150453498827 $379 10.100150453498827 $451 $546 forward 7 unknown #
coedge $-1 $547 $548 $371 $454 reversed $536 $-1 #
edge $-1 $549 -42.291329691457868 $456 42.291329691457868 $453 $550 forward 7 unknown #
coedge $-1 $377 $372 $548 $551 forward $443 $-1 #
vertex $-1 $454 $552 #
straight-curve $-1 -42.291329691457868 0 10.100150453498827 0 -1 0 I I #
point $-1 -42.291329691457868 -25.628543211686779 10.100150453498827 #
coedge $-1 $548 $547 $376 $460 reversed $536 $-1 #
edge $-1 $461 -42.291329691457868 $553 42.291329691457868 $459 $554 forward 7 unknown #
vertex $-1 $460 $555 #
straight-curve $-1 -42.291329691457868 0 -10.100150453498827 0 1 0 I I #
point $-1 -42.291329691457868 -25.628543211686779 -10.100150453498827 #
face $-1 $495 $556 $17 $-1 $557 reversed single #
loop $-1 $-1 $558 $381 #
plane-surface $-1 0 -25.628543211686779 0 0 1 0 0 0 1 forward_v I I I I #
coedge $-1 $559 $560 $558 $561 reversed $382 $-1 #
coedge $-1 $387 $384 $401 $492 reversed $310 $-1 #
coedge $-1 $384 $387 $562 $563 reversed $310 $-1 #
coedge $-1 $560 $559 $384 $471 forward $382 $-1 #
edge $-1 $564 -10.100150453498827 $565 10.100150453498827 $470 $566 forward 7 unknown #
coedge $-1 $386 $385 $403 $494 reversed $223 $-1 #
coedge $-1 $567 $562 $386 $474 forward $556 $-1 #
edge $-1 $476 3.5273640475128563 $568 15.909907458620234 $473 $569 forward 7 unknown #
vertex $-1 $402 $570 #
vertex $-1 $474 $571 #
straight-curve $-1 -31.079403480804853 -13.245999800579401 0 0 0 -1 I I #
coedge $-1 $389 $572 $573 $574 forward $138 $-1 #
coedge $-1 $575 $576 $389 $480 reversed $489 $-1 #
edge $-1 $577 -42.291329691457868 $482 42.291329691457868 $479 $578 forward 7 unknown #
coedge $-1 $396 $390 $576 $579 forward $237 $-1 #
vertex $-1 $480 $580 #
coedge $-1 $581 $567 $396 $484 forward $556 $-1 #
edge $-1 $486 -25.628543211686779 $582 25.628543211686779 $396 $583 forward 7 unknown #
coedge $-1 $403 $397 $567 $584 reversed $404 $-1 #
vertex $-1 $484 $585 #
straight-curve $-1 -42.291329691457868 -25.628543211686779 0 0 0 -1 I I #
face $-1 $-1 $586 $17 $-1 $587 reversed single #
loop $-1 $-1 $575 $399 #
plane-surface $-1 0 25.628543211686779 0 0 -1 0 0 0 -1 forward_v I I I I #
coedge $-1 $572 $401 $559 $588 forward $138 $-1 #
edge $-1 $475 -16.446255513749474 $564 -12.820040420361284 $401 $589 forward 7 unknown #
straight-curve $-1 -31.079403480804853 -9.718635753066545 10.100150453498827 0 1 0 I I #
edge $-1 $568 -10.100150453498827 $405 10.100150453498827 $403 $590 forward 7 unknown #
face $-1 $324 $404 $17 $-1 $466 reversed single #
point $-1 -31.079403480804853 -25.628543211686779 10.100150453498827 #
face $-1 $591 $592 $18 $-1 $593 forward single #
loop $-1 $-1 $594 $408 #
plane-surface $-1 -29.266295934110758 -13.245999800579401 0 0 -1 0 0 0 -1 forward_v I I I I #
coedge $-1 $595 $596 $597 $598 reversed $409 $-1 #
coedge $-1 $411 $599 $600 $601 forward $331 $-1 #
coedge $-1 $600 $420 $412 $503 forward $422 $-1 #
edge $-1 $602 -34.39630842492187 $505 -25.62574332200959 $502 $603 forward 7 unknown #
edge $-1 $602 1.7120460491857305e-014 $506 15.684328135224384 $413 $604 forward 7 unknown #
vertex $-1 $503 $605 #
vertex $-1 $416 $606 #
straight-curve $-1 -44.794676594892536 3.5922699629363528 10.100150453498827 1 0 0 I I #
straight-curve $-1 -29.288432443960751 -0.10071600911078349 10.100150453498827 0 -1 0 I I #
edge $-1 $418 -3.8944179902687033 $602 3.6929859720471363 $420 $607 forward 7 unknown #
point $-1 -42.291329691457868 -3.9951339993794868 1.3295853505865505 #
coedge $-1 $421 $608 $609 $610 reversed $422 $-1 #
face $-1 $611 $422 $18 $-1 $612 reversed single #
coedge $-1 $613 $424 $595 $614 forward $331 $-1 #
coedge $-1 $609 $615 $424 $515 reversed $616 $-1 #
edge $-1 $516 -42.291329691457868 $617 -31.079403480804853 $514 $618 forward 7 unknown #
vertex $-1 $425 $619 #
straight-curve $-1 -42.291329691457868 0 10.100150453498827 0 -1 0 I I #
face $-1 $620 $621 $19 $-1 $622 forward single #
loop $-1 $-1 $623 $429 #
plane-surface $-1 0 0 10.100150453498827 0 0 1 1 0 0 forward_v I I I I #
coedge $-1 $624 $625 $623 $626 reversed $430 $-1 #
coedge $-1 $441 $627 $432 $523 reversed $355 $-1 #
edge $-1 $528 -15.684328135224384 $628 -1.7120460491857305e-014 $432 $629 forward 7 unknown #
coedge $-1 $630 $631 $433 $525 forward $632 $-1 #
edge $-1 $529 25.62574332200959 $628 34.39630842492187 $524 $633 forward 7 unknown #
coedge $-1 $634 $434 $631 $635 forward $519 $-1 #
coedge $-1 $434 $623 $441 $534 forward $519 $-1 #
vertex $-1 $534 $636 #
vertex $-1 $635 $637 #
straight-curve $-1 -44.794676594892536 -3.9951339993794868 10.100150453498827 -1 0 0 I I #
vertex $-1 $436 $638 #
point $-1 -33.924953437437829 -1.8273042958606744 4.7382906673135654 #
coedge $-1 $627 $441 $625 $639 reversed $355 $-1 #
edge $-1 $640 -3.6929859720471363 $528 3.8944179902687033 $527 $641 forward 7 unknown #
face $-1 $-1 $542 $16 $-1 $642 reversed single #
loop $-1 $-1 $547 $442 #
plane-surface $-1 0 25.628543211686779 0 0 -1 0 0 0 -1 forward_v I I I I #
coedge $-1 $447 $643 $445 $539 reversed $542 $-1 #
edge $-1 $450 -25.628543211686779 $549 25.628543211686779 $538 $644 forward 7 unknown #
coedge $-1 $643 $447 $446 $541 reversed $542 $-1 #
edge $-1 $553 -25.628543211686779 $449 25.628543211686779 $540 $645 forward 7 unknown #
loop $-1 $-1 $447 $535 #
straight-curve $-1 42.291329691457868 -25.628543211686779 0 0 0 -1 I I #
point $-1 42.291329691457868 -25.628543211686779 -10.100150453498827 #
point $-1 42.291329691457868 -25.628543211686779 10.100150453498827 #
straight-curve $-1 -42.291329691457868 -25.628543211686779 0 0 0 -1 I I #
coedge $-1 $459 $453 $643 $646 forward $536 $-1 #
coedge $-1 $453 $459 $455 $551 reversed $536 $-1 #
vertex $-1 $539 $647 #
straight-curve $-1 0 25.628543211686779 10.100150453498827 -1 0 0 I I #
edge $-1 $456 -10.100150453498827 $461 10.100150453498827 $548 $648 forward 7 unknown #
point $-1 -42.291329691457868 25.628543211686779 10.100150453498827 #
vertex $-1 $541 $649 #
straight-curve $-1 0 25.628543211686779 -10.100150453498827 1 0 0 I I #
point $-1 -42.291329691457868 25.628543211686779 -10.100150453498827 #
loop $-1 $-1 $473 $464 #
plane-surface $-1 0 0 -10.100150453498827 0 0 1 1 0 0 forward_v I I I I #
coedge $-1 $650 $651 $467 $561 forward $465 $-1 #
coedge $-1 $470 $467 $491 $588 reversed $382 $-1 #
coedge $-1 $467 $470 $652 $653 reversed $382 $-1 #
edge $-1 $654 -10.100150453498827 $655 10.100150453498827 $558 $656 forward 7 unknown #
coedge $-1 $473 $652 $469 $563 forward $556 $-1 #
edge $-1 $565 12.820040420361284 $476 16.446255513749474 $562 $657 forward 7 unknown #
vertex $-1 $492 $658 #
vertex $-1 $563 $659 #
straight-curve $-1 -27.453188387416663 -13.245999800579401 0 0 0 -1 I I #
coedge $-1 $483 $473 $485 $584 forward $556 $-1 #
vertex $-1 $584 $660 #
straight-curve $-1 -31.079403480804853 -9.718635753066545 -10.100150453498827 0 -1 0 I I #
point $-1 -31.079403480804853 -13.245999800579401 10.100150453498827 #
point $-1 -31.079403480804853 -13.245999800579401 -10.100150453498827 #
coedge $-1 $478 $491 $651 $661 forward $138 $-1 #
coedge $-1 $662 $663 $478 $574 reversed $586 $-1 #
edge $-1 $664 -25.628543211686779 $577 25.628543211686779 $573 $665 forward 7 unknown #
coedge $-1 $666 $479 $663 $667 forward $489 $-1 #
coedge $-1 $479 $666 $481 $579 reversed $489 $-1 #
vertex $-1 $574 $668 #
straight-curve $-1 0 25.628543211686779 10.100150453498827 -1 0 0 I I #
edge $-1 $482 -10.100150453498827 $582 10.100150453498827 $576 $669 forward 7 unknown #
point $-1 -42.291329691457868 25.628543211686779 10.100150453498827 #
coedge $-1 $670 $483 $666 $671 forward $556 $-1 #
vertex $-1 $671 $672 #
straight-curve $-1 -42.291329691457868 0 -10.100150453498827 0 1 0 I I #
edge $-1 $568 31.079403480804853 $486 42.291329691457868 $485 $673 forward 7 unknown #
point $-1 -42.291329691457868 -25.628543211686779 -10.100150453498827 #
loop $-1 $-1 $662 $488 #
plane-surface $-1 42.291329691457868 0 0 -1 0 0 0 0 1 forward_v I I I I #
edge $-1 $564 3.5273640475128563 $654 15.909907458620234 $491 $674 forward 7 unknown #
straight-curve $-1 -14.633147967055379 -13.245999800579401 10.100150453498827 1 0 0 I I #
straight-curve $-1 -31.079403480804853 -25.628543211686779 0 0 0 1 I I #
face $-1 $675 $676 $18 $-1 $677 reversed single #
loop $-1 $-1 $678 $497 #
plane-surface $-1 -27.453188387416663 -19.43727150613309 0 -1 0 0 0 0 1 forward_v I I I I #
coedge $-1 $679 $680 $681 $682 reversed $498 $-1 #
coedge $-1 $683 $500 $513 $614 reversed $409 $-1 #
coedge $-1 $500 $683 $684 $685 reversed $409 $-1 #
coedge $-1 $680 $679 $500 $598 forward $498 $-1 #
edge $-1 $686 -10.100150453498827 $687 10.100150453498827 $597 $688 forward 7 unknown #
coedge $-1 $501 $689 $690 $691 forward $331 $-1 #
coedge $-1 $692 $502 $501 $601 reversed $422 $-1 #
edge $-1 $693 -25.628543211686779 $505 -3.5922699629363528 $600 $517 forward 7 unknown #
vertex $-1 $509 $694 #
straight-curve $-1 -42.291329691457868 3.5922699629363528 35.725893775508418 0 0 1 I I #
straight-curve $-1 -42.291329691457882 3.5922699629363528 1.3295853505865409 0.82903756765294845 0 0.55919291073839883 I I #
point $-1 -42.291329691457868 3.5922699629363528 10.100150453498827 #
point $-1 -29.288432443960755 3.5922699629363528 10.100150453498827 #
straight-curve $-1 -42.291329691457868 -0.10071600911078349 1.3295853505865487 0 1 0 I I #
coedge $-1 $511 $692 $695 $696 reversed $422 $-1 #
coedge $-1 $697 $514 $511 $610 forward $616 $-1 #
edge $-1 $516 -10.100150453498827 $698 10.100150453498827 $511 $699 forward 7 unknown #
face $-1 $700 $701 $18 $-1 $702 reversed single #
plane-surface $-1 -42.291329691457868 0 0 1 0 0 0 0 -1 forward_v I I I I #
coedge $-1 $703 $513 $679 $704 forward $331 $-1 #
edge $-1 $617 -15.909907458620234 $686 -3.5273640475128563 $513 $705 forward 7 unknown #
coedge $-1 $514 $697 $683 $706 forward $616 $-1 #
loop $-1 $-1 $615 $707 #
vertex $-1 $706 $708 #
straight-curve $-1 0 -25.628543211686779 10.100150453498827 1 0 0 I I #
point $-1 -42.291329691457868 -25.628543211686779 10.100150453498827 #
face $-1 $709 $710 $19 $-1 $711 forward single #
loop $-1 $-1 $712 $518 #
plane-surface $-1 -31.079403480804853 -19.43727150613309 0 1 0 0 0 0 -1 forward_v I I I I #
coedge $-1 $527 $713 $521 $626 forward $519 $-1 #
coedge $-1 $625 $521 $714 $715 reversed $430 $-1 #
coedge $-1 $521 $624 $533 $639 forward $430 $-1 #
edge $-1 $716 2.503346903434668 $640 15.506244150931781 $623 $717 forward 7 unknown #
coedge $-1 $522 $533 $630 $718 reversed $355 $-1 #
vertex $-1 $718 $719 #
straight-curve $-1 -42.291329691457882 -3.9951339993794868 1.3295853505865409 -0.82903756765294845 0 -0.55919291073839883 I I #
coedge $-1 $714 $524 $627 $718 forward $632 $-1 #
coedge $-1 $524 $720 $526 $635 reversed $632 $-1 #
loop $-1 $-1 $714 $721 #
straight-curve $-1 -42.291329691457868 -3.9951339993794868 35.725893775508418 0 0 -1 I I #
coedge $-1 $722 $526 $723 $724 forward $519 $-1 #
edge $-1 $529 3.9951339993794868 $725 25.628543211686779 $631 $726 forward 7 unknown #
point $-1 -29.288432443960755 -3.9951339993794868 10.100150453498827 #
point $-1 -42.291329691457868 -3.9951339993794868 10.100150453498827 #
point $-1 -34.194798094352379 -1.8273042958606744 3.3500601889222184 #
edge $-1 $727 1.7120460491857305e-014 $640 15.684328135224384 $625 $728 forward 7 unknown #
vertex $-1 $534 $729 #
straight-curve $-1 -29.288432443960751 -0.10071600911078349 10.100150453498827 0 -1 0 I I #
plane-surface $-1 42.291329691457868 0 0 -1 0 0 0 0 1 forward_v I I I I #
coedge $-1 $538 $540 $547 $646 reversed $542 $-1 #
straight-curve $-1 42.291329691457868 0 10.100150453498827 0 1 0 I I #
straight-curve $-1 42.291329691457868 0 -10.100150453498827 0 -1 0 I I #
edge $-1 $549 -10.100150453498827 $553 10.100150453498827 $643 $730 forward 7 unknown #
point $-1 42.291329691457868 25.628543211686779 10.100150453498827 #
straight-curve $-1 -42.291329691457868 25.628543211686779 0 0 0 -1 I I #
point $-1 42.291329691457868 25.628543211686779 -10.100150453498827 #
coedge $-1 $731 $558 $732 $733 reversed $465 $-1 #
coedge $-1 $558 $731 $572 $661 reversed $465 $-1 #
coedge $-1 $562 $732 $560 $653 forward $556 $-1 #
edge $-1 $655 -15.909907458620234 $565 -3.5273640475128563 $652 $734 forward 7 unknown #
vertex $-1 $661 $735 #
vertex $-1 $561 $736 #
straight-curve $-1 -27.453188387416663 -25.628543211686779 0 0 0 -1 I I #
straight-curve $-1 -14.633147967055379 -13.245999800579401 -10.100150453498827 -1 0 0 I I #
point $-1 -27.453188387416663 -13.245999800579401 10.100150453498827 #
point $-1 -27.453188387416663 -13.245999800579401 -10.100150453498827 #
point $-1 -31.079403480804853 -25.628543211686779 -10.100150453498827 #
edge $-1 $654 -27.453188387416663 $664 42.291329691457868 $651 $406 forward 7 unknown #
coedge $-1 $737 $573 $731 $738 forward $586 $-1 #
coedge $-1 $573 $737 $575 $667 reversed $586 $-1 #
vertex $-1 $574 $739 #
straight-curve $-1 42.291329691457868 0 10.100150453498827 0 1 0 I I #
coedge $-1 $576 $575 $581 $671 reversed $489 $-1 #
edge $-1 $577 -10.100150453498827 $740 10.100150453498827 $663 $741 forward 7 unknown #
point $-1 42.291329691457868 25.628543211686779 10.100150453498827 #
straight-curve $-1 -42.291329691457868 25.628543211686779 0 0 0 -1 I I #
coedge $-1 $732 $581 $737 $742 forward $556 $-1 #
edge $-1 $582 -42.291329691457868 $740 42.291329691457868 $666 $743 forward 7 unknown #
point $-1 -42.291329691457868 25.628543211686779 -10.100150453498827 #
straight-curve $-1 0 -25.628543211686779 -10.100150453498827 -1 0 0 I I #
straight-curve $-1 -27.453188387416663 -9.718635753066545 10.100150453498827 0 -1 0 I I #
face $-1 $707 $744 $18 $-1 $745 reversed single #
loop $-1 $-1 $746 $591 #
plane-surface $-1 0 -25.628543211686779 0 0 1 0 0 0 1 forward_v I I I I #
coedge $-1 $747 $748 $746 $749 reversed $592 $-1 #
coedge $-1 $597 $594 $613 $704 reversed $498 $-1 #
coedge $-1 $594 $597 $750 $751 reversed $498 $-1 #
coedge $-1 $748 $747 $594 $682 forward $592 $-1 #
edge $-1 $752 -10.100150453498827 $753 10.100150453498827 $681 $754 forward 7 unknown #
coedge $-1 $596 $595 $615 $706 reversed $409 $-1 #
coedge $-1 $755 $750 $596 $685 forward $744 $-1 #
edge $-1 $687 3.5273640475128563 $756 15.909907458620234 $684 $757 forward 7 unknown #
vertex $-1 $614 $758 #
vertex $-1 $685 $759 #
straight-curve $-1 -31.079403480804853 -13.245999800579401 0 0 0 -1 I I #
coedge $-1 $599 $760 $761 $762 forward $331 $-1 #
coedge $-1 $763 $764 $599 $691 reversed $701 $-1 #
edge $-1 $765 -42.291329691457868 $693 42.291329691457868 $690 $766 forward 7 unknown #
coedge $-1 $608 $600 $764 $767 forward $422 $-1 #
vertex $-1 $691 $768 #
point $-1 -42.291329691457868 3.5922699629363528 1.3295853505865505 #
coedge $-1 $769 $755 $608 $696 forward $744 $-1 #
edge $-1 $698 -25.628543211686779 $770 25.628543211686779 $608 $771 forward 7 unknown #
coedge $-1 $615 $609 $755 $772 reversed $616 $-1 #
vertex $-1 $696 $773 #
straight-curve $-1 -42.291329691457868 -25.628543211686779 0 0 0 -1 I I #
face $-1 $-1 $774 $18 $-1 $775 reversed single #
loop $-1 $-1 $763 $611 #
plane-surface $-1 0 25.628543211686779 0 0 -1 0 0 0 -1 forward_v I I I I #
coedge $-1 $760 $613 $747 $776 forward $331 $-1 #
edge $-1 $686 -16.446255513749474 $752 -12.820040420361284 $613 $777 forward 7 unknown #
straight-curve $-1 -31.079403480804853 -9.718635753066545 10.100150453498827 0 1 0 I I #
edge $-1 $756 -10.100150453498827 $617 10.100150453498827 $615 $778 forward 7 unknown #
face $-1 $512 $616 $18 $-1 $677 reversed single #
point $-1 -31.079403480804853 -25.628543211686779 10.100150453498827 #
face $-1 $779 $780 $19 $-1 $781 forward single #
loop $-1 $-1 $782 $620 #
plane-surface $-1 -29.266295934110758 -13.245999800579401 0 0 -1 0 0 0 -1 forward_v I I I I #
coedge $-1 $783 $784 $785 $786 reversed $621 $-1 #
coedge $-1 $623 $787 $788 $789 forward $519 $-1 #
coedge $-1 $788 $630 $624 $715 forward $632 $-1 #
edge $-1 $727 -34.39630842492187 $716 -25.62574332200959 $714 $790 forward 7 unknown #
vertex $-1 $715 $791 #
straight-curve $-1 -44.794676594892536 3.5922699629363528 10.100150453498827 1 0 0 I I #
edge $-1 $628 -3.8944179902687033 $727 3.6929859720471363 $630 $792 forward 7 unknown #
point $-1 -42.291329691457868 -3.9951339993794868 1.3295853505865505 #
coedge $-1 $631 $793 $794 $795 reversed $632 $-1 #
face $-1 $796 $632 $19 $-1 $797 reversed single #
coedge $-1 $798 $634 $783 $799 forward $519 $-1 #
coedge $-1 $794 $800 $634 $724 reversed $801 $-1 #
edge $-1 $725 -42.291329691457868 $802 -31.079403480804853 $723 $803 forward 7 unknown #
vertex $-1 $635 $804 #
straight-curve $-1 -42.291329691457868 0 10.100150453498827 0 -1 0 I I #
vertex $-1 $718 $805 #
straight-curve $-1 -42.291329691457882 3.5922699629363528 1.3295853505865409 0.82903756765294845 0 0.55919291073839883 I I #
point $-1 -29.288432443960755 3.5922699629363528 10.100150453498827 #
straight-curve $-1 42.291329691457868 25.628543211686779 0 0 0 -1 I I #
coedge $-1 $651 $650 $662 $738 reversed $465 $-1 #
coedge $-1 $652 $670 $650 $733 forward $556 $-1 #
edge $-1 $806 -42.291329691457868 $655 27.453188387416663 $650 $673 forward 7 unknown #
straight-curve $-1 -27.453188387416663 -9.718635753066545 -10.100150453498827 0 1 0 I I #
point $-1 -27.453188387416663 -25.628543211686779 10.100150453498827 #
point $-1 -27.453188387416663 -25.628543211686779 -10.100150453498827 #
coedge $-1 $663 $662 $670 $742 reversed $586 $-1 #
edge $-1 $664 -10.100150453498827 $806 10.100150453498827 $662 $807 forward 7 unknown #
point $-1 42.291329691457868 -25.628543211686779 10.100150453498827 #
vertex $-1 $742 $808 #
straight-curve $-1 42.291329691457868 25.628543211686779 0 0 0 -1 I I #
edge $-1 $740 -25.628543211686779 $806 25.628543211686779 $737 $809 forward 7 unknown #
straight-curve $-1 0 25.628543211686779 -10.100150453498827 1 0 0 I I #
loop $-1 $-1 $684 $675 #
plane-surface $-1 0 0 -10.100150453498827 0 0 1 1 0 0 forward_v I I I I #
coedge $-1 $810 $811 $678 $749 forward $676 $-1 #
coedge $-1 $681 $678 $703 $776 reversed $592 $-1 #
coedge $-1 $678 $681 $812 $813 reversed $592 $-1 #
edge $-1 $814 -10.100150453498827 $815 10.100150453498827 $746 $816 forward 7 unknown #
coedge $-1 $684 $812 $680 $751 forward $744 $-1 #
edge $-1 $753 12.820040420361284 $687 16.446255513749474 $750 $817 forward 7 unknown #
vertex $-1 $704 $818 #
vertex $-1 $751 $819 #
straight-curve $-1 -27.453188387416663 -13.245999800579401 0 0 0 -1 I I #
coedge $-1 $695 $684 $697 $772 forward $744 $-1 #
vertex $-1 $772 $820 #
straight-curve $-1 -31.079403480804853 -9.718635753066545 -10.100150453498827 0 -1 0 I I #
point $-1 -31.079403480804853 -13.245999800579401 10.100150453498827 #
point $-1 -31.079403480804853 -13.245999800579401 -10.100150453498827 #
coedge $-1 $689 $703 $811 $821 forward $331 $-1 #
coedge $-1 $822 $823 $689 $762 reversed $774 $-1 #
edge $-1 $824 -25.628543211686779 $765 25.628543211686779 $761 $825 forward 7 unknown #
coedge $-1 $826 $690 $823 $827 forward $701 $-1 #
coedge $-1 $690 $826 $692 $767 reversed $701 $-1 #
vertex $-1 $762 $828 #
straight-curve $-1 0 25.628543211686779 10.100150453498827 -1 0 0 I I #
edge $-1 $693 -10.100150453498827 $770 10.100150453498827 $764 $829 forward 7 unknown #
point $-1 -42.291329691457868 25.628543211686779 10.100150453498827 #
coedge $-1 $830 $695 $826 $831 forward $744 $-1 #
vertex $-1 $831 $832 #
straight-curve $-1 -42.291329691457868 0 -10.100150453498827 0 1 0 I I #
edge $-1 $756 31.079403480804853 $698 42.291329691457868 $697 $833 forward 7 unknown #
point $-1 -42.291329691457868 -25.628543211686779 -10.100150453498827 #
loop $-1 $-1 $822 $700 #
plane-surface $-1 42.291329691457868 0 0 -1 0 0 0 0 1 forward_v I I I I #
edge $-1 $752 3.5273640475128563 $814 15.909907458620234 $703 $834 forward 7 unknown #
straight-curve $-1 -14.633147967055379 -13.245999800579401 10.100150453498827 1 0 0 I I #
straight-curve $-1 -31.079403480804853 -25.628543211686779 0 0 0 1 I I #
face $-1 $835 $836 $19 $-1 $837 reversed single #
loop $-1 $-1 $838 $709 #
plane-surface $-1 -27.453188387416663 -19.43727150613309 0 -1 0 0 0 0 1 forward_v I I I I #
coedge $-1 $839 $840 $841 $842 reversed $710 $-1 #
coedge $-1 $843 $712 $722 $799 reversed $621 $-1 #
coedge $-1 $712 $843 $844 $845 reversed $621 $-1 #
coedge $-1 $840 $839 $712 $786 forward $710 $-1 #
edge $-1 $846 -10.100150453498827 $847 10.100150453498827 $785 $848 forward 7 unknown #
coedge $-1 $713 $849 $850 $851 forward $519 $-1 #
coedge $-1 $852 $714 $713 $789 reversed $632 $-1 #
edge $-1 $853 -25.628543211686779 $716 -3.5922699629363528 $788 $726 forward 7 unknown #
straight-curve $-1 -42.291329691457868 3.5922699629363528 35.725893775508418 0 0 1 I I #
point $-1 -42.291329691457868 3.5922699629363528 10.100150453498827 #
straight-curve $-1 -42.291329691457868 -0.10071600911078349 1.3295853505865487 0 1 0 I I #
coedge $-1 $720 $852 $854 $855 reversed $632 $-1 #
coedge $-1 $856 $723 $720 $795 forward $801 $-1 #
edge $-1 $725 -10.100150453498827 $857 10.100150453498827 $720 $858 forward 7 unknown #
face $-1 $859 $860 $19 $-1 $861 reversed single #
plane-surface $-1 -42.291329691457868 0 0 1 0 0 0 0 -1 forward_v I I I I #
coedge $-1 $862 $722 $839 $863 forward $519 $-1 #
edge $-1 $802 -15.909907458620234 $846 -3.5273640475128563 $722 $864 forward 7 unknown #
coedge $-1 $723 $856 $843 $865 forward $801 $-1 #
loop $-1 $-1 $800 $866 #
vertex $-1 $865 $867 #
straight-curve $-1 0 -25.628543211686779 10.100150453498827 1 0 0 I I #
point $-1 -42.291329691457868 -25.628543211686779 10.100150453498827 #
point $-1 -42.291329691457868 3.5922699629363528 1.3295853505865505 #
vertex $-1 $738 $868 #
straight-curve $-1 42.291329691457868 -25.628543211686779 0 0 0 -1 I I #
point $-1 42.291329691457868 25.628543211686779 -10.100150453498827 #
straight-curve $-1 42.291329691457868 0 -10.100150453498827 0 -1 0 I I #
coedge $-1 $869 $746 $870 $871 reversed $676 $-1 #
coedge $-1 $746 $869 $760 $821 reversed $676 $-1 #
coedge $-1 $750 $870 $748 $813 forward $744 $-1 #
edge $-1 $815 -15.909907458620234 $753 -3.5273640475128563 $812 $872 forward 7 unknown #
vertex $-1 $821 $873 #
vertex $-1 $749 $874 #
straight-curve $-1 -27.453188387416663 -25.628543211686779 0 0 0 -1 I I #
straight-curve $-1 -14.633147967055379 -13.245999800579401 -10.100150453498827 -1 0 0 I I #
point $-1 -27.453188387416663 -13.245999800579401 10.100150453498827 #
point $-1 -27.453188387416663 -13.245999800579401 -10.100150453498827 #
point $-1 -31.079403480804853 -25.628543211686779 -10.100150453498827 #
edge $-1 $814 -27.453188387416663 $824 42.291329691457868 $811 $618 forward 7 unknown #
coedge $-1 $875 $761 $869 $876 forward $774 $-1 #
coedge $-1 $761 $875 $763 $827 reversed $774 $-1 #
vertex $-1 $762 $877 #
straight-curve $-1 42.291329691457868 0 10.100150453498827 0 1 0 I I #
coedge $-1 $764 $763 $769 $831 reversed $701 $-1 #
edge $-1 $765 -10.100150453498827 $878 10.100150453498827 $823 $879 forward 7 unknown #
point $-1 42.291329691457868 25.628543211686779 10.100150453498827 #
straight-curve $-1 -42.291329691457868 25.628543211686779 0 0 0 -1 I I #
coedge $-1 $870 $769 $875 $880 forward $744 $-1 #
edge $-1 $770 -42.291329691457868 $878 42.291329691457868 $826 $881 forward 7 unknown #
point $-1 -42.291329691457868 25.628543211686779 -10.100150453498827 #
straight-curve $-1 0 -25.628543211686779 -10.100150453498827 -1 0 0 I I #
straight-curve $-1 -27.453188387416663 -9.718635753066545 10.100150453498827 0 -1 0 I I #
face $-1 $866 $882 $19 $-1 $883 reversed single #
loop $-1 $-1 $884 $779 #
plane-surface $-1 0 -25.628543211686779 0 0 1 0 0 0 1 forward_v I I I I #
coedge $-1 $885 $886 $884 $887 reversed $780 $-1 #
coedge $-1 $785 $782 $798 $863 reversed $710 $-1 #
coedge $-1 $782 $785 $888 $889 reversed $710 $-1 #
coedge $-1 $886 $885 $782 $842 forward $780 $-1 #
edge $-1 $890 -10.100150453498827 $891 10.100150453498827 $841 $892 forward 7 unknown #
coedge $-1 $784 $783 $800 $865 reversed $621 $-1 #
coedge $-1 $893 $888 $784 $845 forward $882 $-1 #
edge $-1 $847 3.5273640475128563 $894 15.909907458620234 $844 $895 forward 7 unknown #
vertex $-1 $799 $896 #
vertex $-1 $845 $897 #
straight-curve $-1 -31.079403480804853 -13.245999800579401 0 0 0 -1 I I #
coedge $-1 $787 $898 $899 $900 forward $519 $-1 #
coedge $-1 $901 $902 $787 $851 reversed $860 $-1 #
edge $-1 $903 -42.291329691457868 $853 42.291329691457868 $850 $904 forward 7 unknown #
coedge $-1 $793 $788 $902 $905 forward $632 $-1 #
vertex $-1 $851 $906 #
coedge $-1 $907 $893 $793 $855 forward $882 $-1 #
edge $-1 $857 -25.628543211686779 $908 25.628543211686779 $793 $909 forward 7 unknown #
coedge $-1 $800 $794 $893 $910 reversed $801 $-1 #
vertex $-1 $855 $911 #
straight-curve $-1 -42.291329691457868 -25.628543211686779 0 0 0 -1 I I #
face $-1 $-1 $912 $19 $-1 $913 reversed single #
loop $-1 $-1 $901 $796 #
plane-surface $-1 0 25.628543211686779 0 0 -1 0 0 0 -1 forward_v I I I I #
coedge $-1 $898 $798 $885 $914 forward $519 $-1 #
edge $-1 $846 -16.446255513749474 $890 -12.820040420361284 $798 $915 forward 7 unknown #
straight-curve $-1 -31.079403480804853 -9.718635753066545 10.100150453498827 0 1 0 I I #
edge $-1 $894 -10.100150453498827 $802 10.100150453498827 $800 $916 forward 7 unknown #
face $-1 $721 $801 $19 $-1 $837 reversed single #
point $-1 -31.079403480804853 -25.628543211686779 10.100150453498827 #
point $-1 42.291329691457868 -25.628543211686779 -10.100150453498827 #
coedge $-1 $811 $810 $822 $876 reversed $676 $-1 #
coedge $-1 $812 $830 $810 $871 forward $744 $-1 #
edge $-1 $917 -42.291329691457868 $815 27.453188387416663 $810 $833 forward 7 unknown #
straight-curve $-1 -27.453188387416663 -9.718635753066545 -10.100150453498827 0 1 0 I I #
point $-1 -27.453188387416663 -25.628543211686779 10.100150453498827 #
point $-1 -27.453188387416663 -25.628543211686779 -10.100150453498827 #
coedge $-1 $823 $822 $830 $880 reversed $774 $-1 #
edge $-1 $824 -10.100150453498827 $917 10.100150453498827 $822 $918 forward 7 unknown #
point $-1 42.291329691457868 -25.628543211686779 10.100150453498827 #
vertex $-1 $880 $919 #
straight-curve $-1 42.291329691457868 25.628543211686779 0 0 0 -1 I I #
edge $-1 $878 -25.628543211686779 $917 25.628543211686779 $875 $920 forward 7 unknown #
straight-curve $-1 0 25.628543211686779 -10.100150453498827 1 0 0 I I #
loop $-1 $-1 $844 $835 #
plane-surface $-1 0 0 -10.100150453498827 0 0 1 1 0 0 forward_v I I I I #
coedge $-1 $921 $922 $838 $887 forward $836 $-1 #
coedge $-1 $841 $838 $862 $914 reversed $780 $-1 #
coedge $-1 $838 $841 $923 $924 reversed $780 $-1 #
edge $-1 $925 -10.100150453498827 $926 10.100150453498827 $884 $927 forward 7 unknown #
coedge $-1 $844 $923 $840 $889 forward $882 $-1 #
edge $-1 $891 12.820040420361284 $847 16.446255513749474 $888 $928 forward 7 unknown #
vertex $-1 $863 $929 #
vertex $-1 $889 $930 #
straight-curve $-1 -27.453188387416663 -13.245999800579401 0 0 0 -1 I I #
coedge $-1 $854 $844 $856 $910 forward $882 $-1 #
vertex $-1 $910 $931 #
straight-curve $-1 -31.079403480804853 -9.718635753066545 -10.100150453498827 0 -1 0 I I #
point $-1 -31.079403480804853 -13.245999800579401 10.100150453498827 #
point $-1 -31.079403480804853 -13.245999800579401 -10.100150453498827 #
coedge $-1 $849 $862 $922 $932 forward $519 $-1 #
coedge $-1 $933 $934 $849 $900 reversed $912 $-1 #
edge $-1 $935 -25.628543211686779 $903 25.628543211686779 $899 $936 forward 7 unknown #
coedge $-1 $937 $850 $934 $938 forward $860 $-1 #
coedge $-1 $850 $937 $852 $905 reversed $860 $-1 #
vertex $-1 $900 $939 #
straight-curve $-1 0 25.628543211686779 10.100150453498827 -1 0 0 I I #
edge $-1 $853 -10.100150453498827 $908 10.100150453498827 $902 $940 forward 7 unknown #
point $-1 -42.291329691457868 25.628543211686779 10.100150453498827 #
coedge $-1 $941 $854 $937 $942 forward $882 $-1 #
vertex $-1 $942 $943 #
straight-curve $-1 -42.291329691457868 0 -10.100150453498827 0 1 0 I I #
edge $-1 $894 31.079403480804853 $857 42.291329691457868 $856 $944 forward 7 unknown #
point $-1 -42.291329691457868 -25.628543211686779 -10.100150453498827 #
loop $-1 $-1 $933 $859 #
plane-surface $-1 42.291329691457868 0 0 -1 0 0 0 0 1 forward_v I I I I #
edge $-1 $890 3.5273640475128563 $925 15.909907458620234 $862 $945 forward 7 unknown #
straight-curve $-1 -14.633147967055379 -13.245999800579401 10.100150453498827 1 0 0 I I #
straight-curve $-1 -31.079403480804853 -25.628543211686779 0 0 0 1 I I #
vertex $-1 $876 $946 #
straight-curve $-1 42.291329691457868 -25.628543211686779 0 0 0 -1 I I #
point $-1 42.291329691457868 25.628543211686779 -10.100150453498827 #
straight-curve $-1 42.291329691457868 0 -10.100150453498827 0 -1 0 I I #
coedge $-1 $947 $884 $948 $949 reversed $836 $-1 #
coedge $-1 $884 $947 $898 $932 reversed $836 $-1 #
coedge $-1 $888 $948 $886 $924 forward $882 $-1 #
edge $-1 $926 -15.909907458620234 $891 -3.5273640475128563 $923 $950 forward 7 unknown #
vertex $-1 $932 $951 #
vertex $-1 $887 $952 #
straight-curve $-1 -27.453188387416663 -25.628543211686779 0 0 0 -1 I I #
straight-curve $-1 -14.633147967055379 -13.245999800579401 -10.100150453498827 -1 0 0 I I #
point $-1 -27.453188387416663 -13.245999800579401 10.100150453498827 #
point $-1 -27.453188387416663 -13.245999800579401 -10.100150453498827 #
point $-1 -31.079403480804853 -25.628543211686779 -10.100150453498827 #
edge $-1 $925 -27.453188387416663 $935 42.291329691457868 $922 $803 forward 7 unknown #
coedge $-1 $953 $899 $947 $954 forward $912 $-1 #
coedge $-1 $899 $953 $901 $938 reversed $912 $-1 #
vertex $-1 $900 $955 #
straight-curve $-1 42.291329691457868 0 10.100150453498827 0 1 0 I I #
coedge $-1 $902 $901 $907 $942 reversed $860 $-1 #
edge $-1 $903 -10.100150453498827 $956 10.100150453498827 $934 $957 forward 7 unknown #
point $-1 42.291329691457868 25.628543211686779 10.100150453498827 #
straight-curve $-1 -42.291329691457868 25.628543211686779 0 0 0 -1 I I #
coedge $-1 $948 $907 $953 $958 forward $882 $-1 #
edge $-1 $908 -42.291329691457868 $956 42.291329691457868 $937 $959 forward 7 unknown #
point $-1 -42.291329691457868 25.628543211686779 -10.100150453498827 #
straight-curve $-1 0 -25.628543211686779 -10.100150453498827 -1 0 0 I I #
straight-curve $-1 -27.453188387416663 -9.718635753066545 10.100150453498827 0 -1 0 I I #
point $-1 42.291329691457868 -25.628543211686779 -10.100150453498827 #
coedge $-1 $922 $921 $933 $954 reversed $836 $-1 #
coedge $-1 $923 $941 $921 $949 forward $882 $-1 #
edge $-1 $960 -42.291329691457868 $926 27.453188387416663 $921 $944 forward 7 unknown #
straight-curve $-1 -27.453188387416663 -9.718635753066545 -10.100150453498827 0 1 0 I I #
point $-1 -27.453188387416663 -25.628543211686779 10.100150453498827 #
point $-1 -27.453188387416663 -25.628543211686779 -10.100150453498827 #
coedge $-1 $934 $933 $941 $958 reversed $912 $-1 #
edge $-1 $935 -10.100150453498827 $960 10.100150453498827 $933 $961 forward 7 unknown #
point $-1 42.291329691457868 -25.628543211686779 10.100150453498827 #
vertex $-1 $958 $962 #
straight-curve $-1 42.291329691457868 25.628543211686779 0 0 0 -1 I I #
edge $-1 $956 -25.628543211686779 $960 25.628543211686779 $953 $963 forward 7 unknown #
straight-curve $-1 0 25.628543211686779 -10.100150453498827 1 0 0 I I #
vertex $-1 $954 $964 #
straight-curve $-1 42.291329691457868 -25.628543211686779 0 0 0 -1 I I #
point $-1 42.291329691457868 25.628543211686779 -10.100150453498827 #
straight-curve $-1 42.291329691457868 0 -10.100150453498827 0 -1 0 I I #
point $-1 42.291329691457868 -25.628543211686779 -10.100150453498827 #
End-of-ACIS-data 