500 0 13 0           
7 Unknown 11 ACIS 5.0 NT 24 Thu Mar 25 23:37:58 1999 
-1 9.9999999999999995e-007 1e-010 
body $-1 $13 $-1 $14 #
body $-1 $15 $-1 $16 #
body $-1 $17 $-1 $18 #
body $-1 $19 $-1 $20 #
body $-1 $21 $-1 $22 #
body $-1 $23 $-1 $24 #
body $-1 $25 $-1 $26 #
body $-1 $27 $-1 $28 #
body $-1 $29 $-1 $30 #
body $-1 $31 $-1 $32 #
body $-1 $33 $-1 $34 #
body $-1 $35 $-1 $36 #
body $-1 $37 $-1 $38 #
lump $-1 $-1 $39 $0 #
transform $-1 1 0 0 0 1 0 0 0 1 74.883877071443834 51.818125464815964 18.819276664600036 1 rotate no_reflect no_shear #
lump $-1 $-1 $40 $1 #
transform $-1 1 0 0 0 1 0 0 0 1 74.883877071443834 51.818125464815964 18.819276664600036 1 rotate no_reflect no_shear #
lump $-1 $-1 $41 $2 #
transform $-1 1 0 0 0 1 0 0 0 1 74.883877071443834 51.818125464815964 18.819276664600036 1 rotate no_reflect no_shear #
lump $-1 $-1 $42 $3 #
transform $-1 1 0 0 0 1 0 0 0 1 74.883877071443834 51.818125464815964 18.819276664600036 1 rotate no_reflect no_shear #
lump $-1 $-1 $43 $4 #
transform $-1 1 0 0 0 1 0 0 0 1 74.883877071443834 51.818125464815964 18.819276664600036 1 rotate no_reflect no_shear #
lump $-1 $-1 $44 $5 #
transform $-1 1 0 0 0 1 0 0 0 1 74.883877071443834 51.818125464815964 18.819276664600036 1 rotate no_reflect no_shear #
lump $-1 $-1 $45 $6 #
transform $-1 1 0 0 0 1 0 0 0 1 74.883877071443834 51.818125464815964 18.819276664600036 1 rotate no_reflect no_shear #
lump $-1 $-1 $46 $7 #
transform $-1 1 0 0 0 1 0 0 0 1 74.883877071443834 51.818125464815964 18.819276664600036 1 rotate no_reflect no_shear #
lump $-1 $-1 $47 $8 #
transform $-1 1 0 0 0 1 0 0 0 1 74.883877071443834 51.818125464815964 18.819276664600036 1 rotate no_reflect no_shear #
lump $-1 $-1 $48 $9 #
transform $-1 1 0 0 0 1 0 0 0 1 74.883877071443834 51.818125464815964 18.819276664600036 1 rotate no_reflect no_shear #
lump $-1 $-1 $49 $10 #
transform $-1 1 0 0 0 1 0 0 0 1 74.883877071443834 51.818125464815964 18.819276664600036 1 rotate no_reflect no_shear #
lump $-1 $-1 $50 $11 #
transform $-1 1 0 0 0 1 0 0 0 1 74.883877071443834 51.818125464815964 18.819276664600036 1 rotate no_reflect no_shear #
lump $-1 $-1 $51 $12 #
transform $-1 1 0 0 0 1 0 0 0 1 74.883877071443834 51.818125464815964 18.819276664600036 1 rotate no_reflect no_shear #
shell $-1 $-1 $-1 $52 $-1 $13 #
shell $-1 $-1 $-1 $53 $-1 $15 #
shell $-1 $-1 $-1 $54 $-1 $17 #
shell $-1 $-1 $-1 $55 $-1 $19 #
shell $-1 $-1 $-1 $56 $-1 $21 #
shell $-1 $-1 $-1 $57 $-1 $23 #
shell $-1 $-1 $-1 $58 $-1 $25 #
shell $-1 $-1 $-1 $59 $-1 $27 #
shell $-1 $-1 $-1 $60 $-1 $29 #
shell $-1 $-1 $-1 $61 $-1 $31 #
shell $-1 $-1 $-1 $62 $-1 $33 #
shell $-1 $-1 $-1 $63 $-1 $35 #
shell $-1 $-1 $-1 $64 $-1 $37 #
face $-1 $65 $66 $39 $-1 $67 forward single #
face $-1 $68 $69 $40 $-1 $70 reversed single #
face $-1 $71 $72 $41 $-1 $73 reversed single #
face $-1 $74 $75 $42 $-1 $76 forward single #
face $-1 $77 $78 $43 $-1 $79 forward single #
face $-1 $80 $81 $44 $-1 $82 reversed single #
face $-1 $83 $84 $45 $-1 $85 forward single #
face $-1 $86 $87 $46 $-1 $88 forward single #
face $-1 $89 $90 $47 $-1 $91 forward single #
face $-1 $92 $93 $48 $-1 $94 reversed single #
face $-1 $95 $96 $49 $-1 $97 forward single #
face $-1 $98 $99 $50 $-1 $100 forward single #
face $-1 $101 $102 $51 $-1 $103 forward single #
face $-1 $104 $105 $39 $-1 $106 reversed single #
loop $-1 $-1 $107 $52 #
plane-surface $-1 0 0 18.819276664600036 0 0 1 1 0 0 forward_v I I I I #
face $-1 $108 $109 $40 $-1 $110 reversed single #
loop $-1 $-1 $111 $53 #
plane-surface $-1 -66.863305476102795 -46.010092468251301 0 0 -1 0 0 0 -1 forward_v I I I I #
face $-1 $112 $113 $41 $-1 $114 reversed single #
loop $-1 $-1 $115 $54 #
plane-surface $-1 59.567696082785687 -180.19414818910491 84.043720720953189 -1 0 0 0 -0.85716730853699208 0.51503806187062418 forward_v I I I I #
face $-1 $116 $117 $42 $-1 $118 forward single #
loop $-1 $119 $120 $55 #
cone-surface $-1 47.522803708632722 -46.80074726666146 11.998958971195712 0 0.85716730853699208 -0.51503806187062418 1 0 0 1 I I 0 1 1 forward I I I I #
face $-1 $121 $122 $43 $-1 $123 forward single #
loop $-1 $124 $125 $56 #
cone-surface $-1 54.749739133124507 -46.80074726666146 11.998958971195712 0 0.85716730853699208 -0.51503806187062418 1 0 0 1 I I 0 1 1 forward I I I I #
face $-1 $126 $127 $44 $-1 $128 reversed single #
loop $-1 $-1 $129 $57 #
plane-surface $-1 -28.492630031812041 93.771071747589886 180.37721334746519 1 0 0 0 -0.74314483375859142 -0.66913059716165679 forward_v I I I I #
face $-1 $130 $131 $45 $-1 $132 forward single #
loop $-1 $133 $134 $58 #
cone-surface $-1 -23.64574948232115 41.893155889842866 8.3995599485983359 0 -0.74314483375859142 -0.66913059716165679 2 0 0 1 I I 0 1 2 forward I I I I #
face $-1 $135 $136 $46 $-1 $137 forward single #
loop $-1 $138 $139 $59 #
cone-surface $-1 -16.375428658084815 41.893155889842866 8.3995599485983359 0 -0.74314483375859142 -0.66913059716165679 2 0 0 1 I I 0 1 2 forward I I I I #
face $-1 $140 $141 $47 $-1 $142 forward single #
loop $-1 $143 $144 $60 #
cone-surface $-1 -9.1051078338484785 41.893155889842866 8.3995599485983359 0 -0.74314483375859142 -0.66913059716165679 2 0 0 1 I I 0 1 2 forward I I I I #
face $-1 $145 $146 $48 $-1 $147 reversed single #
loop $-1 $-1 $148 $61 #
plane-surface $-1 38.370675444290761 93.771071747589886 180.37721334746519 1 0 0 0 -0.74314483375859142 -0.66913059716165679 forward_v I I I I #
face $-1 $149 $150 $49 $-1 $151 forward single #
loop $-1 $152 $153 $62 #
cone-surface $-1 43.217555993781644 41.893155889842866 8.3995599485983359 0 -0.74314483375859142 -0.66913059716165679 2 0 0 1 I I 0 1 2 forward I I I I #
face $-1 $154 $155 $50 $-1 $156 forward single #
loop $-1 $157 $158 $63 #
cone-surface $-1 50.48787681801798 41.893155889842866 8.3995599485983359 0 -0.74314483375859142 -0.66913059716165679 2 0 0 1 I I 0 1 2 forward I I I I #
face $-1 $159 $160 $51 $-1 $161 forward single #
loop $-1 $162 $163 $64 #
cone-surface $-1 57.758197642254316 41.893155889842866 8.3995599485983359 0 -0.74314483375859142 -0.66913059716165679 2 0 0 1 I I 0 1 2 forward I I I I #
face $-1 $164 $165 $39 $-1 $166 reversed single #
loop $-1 $-1 $167 $65 #
plane-surface $-1 0 0 -18.819276664600036 0 0 1 1 0 0 forward_v I I I I #
coedge $-1 $168 $169 $170 $171 forward $66 $-1 #
face $-1 $172 $173 $40 $-1 $174 forward single #
loop $-1 $-1 $175 $68 #
plane-surface $-1 -58.842733880761763 -48.914108966533632 0 -1 0 0 0 0 1 forward_v I I I I #
coedge $-1 $176 $177 $178 $179 forward $69 $-1 #
face $-1 $180 $181 $41 $-1 $182 reversed single #
loop $-1 $-1 $183 $71 #
plane-surface $-1 51.136271420878614 -51.818125464815949 6.9076268964841745 0 -0.85716730853699208 0.51503806187062418 1 0 0 forward_v I I I I #
coedge $-1 $184 $185 $186 $187 reversed $72 $-1 #
face $-1 $-1 $188 $42 $-1 $189 forward single #
loop $-1 $190 $191 $74 #
cone-surface $-1 47.522803708632722 -44.933405917581716 10.876947130914004 0 0.85716730853699208 -0.51503806187062418 0.5 0 0 1 I I -0.70710678118654746 0.70710678118654746 0.5 forward I I I I #
loop $-1 $-1 $192 $55 #
coedge $-1 $120 $120 $193 $194 reversed $75 $-1 #
face $-1 $-1 $195 $43 $-1 $196 forward single #
loop $-1 $197 $198 $77 #
cone-surface $-1 54.749739133124507 -44.933405917581716 10.876947130914004 0 0.85716730853699208 -0.51503806187062418 0.5 0 0 1 I I -0.70710678118654746 0.70710678118654746 0.5 forward I I I I #
loop $-1 $-1 $199 $56 #
coedge $-1 $125 $125 $200 $201 reversed $78 $-1 #
face $-1 $202 $203 $44 $-1 $204 reversed single #
loop $-1 $-1 $205 $80 #
plane-surface $-1 -16.375428658084822 -17.528061007323956 80.163026582274568 0 0.74314483375859142 0.66913059716165679 1 0 0 forward_v I I I I #
coedge $-1 $206 $207 $208 $209 reversed $81 $-1 #
face $-1 $-1 $210 $45 $-1 $211 forward single #
loop $-1 $212 $213 $83 #
cone-surface $-1 -23.64574948232115 38.281055145392784 5.1472099108302025 0 -0.74314483375859142 -0.66913059716165679 1 0 0 1 I I -0.70710678118654746 0.70710678118654746 1 forward I I I I #
loop $-1 $-1 $214 $58 #
coedge $-1 $134 $134 $215 $216 reversed $84 $-1 #
face $-1 $-1 $217 $46 $-1 $218 forward single #
loop $-1 $219 $220 $86 #
cone-surface $-1 -16.375428658084815 38.281055145392784 5.1472099108302025 0 -0.74314483375859142 -0.66913059716165679 1 0 0 1 I I -0.70710678118654746 0.70710678118654746 1 forward I I I I #
loop $-1 $-1 $221 $59 #
coedge $-1 $139 $139 $222 $223 reversed $87 $-1 #
face $-1 $-1 $224 $47 $-1 $225 forward single #
loop $-1 $226 $227 $89 #
cone-surface $-1 -9.1051078338484785 38.281055145392784 5.1472099108302025 0 -0.74314483375859142 -0.66913059716165679 1 0 0 1 I I -0.70710678118654746 0.70710678118654746 1 forward I I I I #
loop $-1 $-1 $228 $60 #
coedge $-1 $144 $144 $229 $230 reversed $90 $-1 #
face $-1 $231 $232 $48 $-1 $233 reversed single #
loop $-1 $-1 $234 $92 #
plane-surface $-1 50.48787681801798 -17.528061007323956 80.163026582274568 0 0.74314483375859142 0.66913059716165679 1 0 0 forward_v I I I I #
coedge $-1 $235 $236 $237 $238 reversed $93 $-1 #
face $-1 $-1 $239 $49 $-1 $240 forward single #
loop $-1 $241 $242 $95 #
cone-surface $-1 43.217555993781644 38.281055145392784 5.1472099108302025 0 -0.74314483375859142 -0.66913059716165679 1 0 0 1 I I -0.70710678118654746 0.70710678118654746 1 forward I I I I #
loop $-1 $-1 $243 $62 #
coedge $-1 $153 $153 $244 $245 reversed $96 $-1 #
face $-1 $-1 $246 $50 $-1 $247 forward single #
loop $-1 $248 $249 $98 #
cone-surface $-1 50.48787681801798 38.281055145392784 5.1472099108302025 0 -0.74314483375859142 -0.66913059716165679 1 0 0 1 I I -0.70710678118654746 0.70710678118654746 1 forward I I I I #
loop $-1 $-1 $250 $63 #
coedge $-1 $158 $158 $251 $252 reversed $99 $-1 #
face $-1 $-1 $253 $51 $-1 $254 forward single #
loop $-1 $255 $256 $101 #
cone-surface $-1 57.758197642254316 38.281055145392784 5.1472099108302025 0 -0.74314483375859142 -0.66913059716165679 1 0 0 1 I I -0.70710678118654746 0.70710678118654746 1 forward I I I I #
loop $-1 $-1 $257 $64 #
coedge $-1 $163 $163 $258 $259 reversed $102 $-1 #
face $-1 $260 $261 $39 $-1 $262 reversed single #
loop $-1 $-1 $263 $104 #
plane-surface $-1 0 -51.818125464815964 0 0 1 0 0 0 1 forward_v I I I I #
coedge $-1 $264 $265 $266 $267 forward $105 $-1 #
coedge $-1 $268 $107 $269 $270 forward $66 $-1 #
coedge $-1 $107 $268 $271 $272 forward $66 $-1 #
coedge $-1 $273 $274 $107 $171 reversed $275 $-1 #
edge $-1 $276 -51.818125464815964 $277 51.818125464815964 $170 $278 forward 7 unknown #
face $-1 $279 $280 $40 $-1 $281 reversed single #
loop $-1 $-1 $282 $108 #
plane-surface $-1 0 0 18.819276664600036 0 0 1 1 0 0 forward_v I I I I #
coedge $-1 $283 $284 $285 $286 reversed $109 $-1 #
coedge $-1 $287 $111 $288 $289 reversed $69 $-1 #
coedge $-1 $111 $287 $290 $291 reversed $69 $-1 #
coedge $-1 $284 $283 $111 $179 reversed $109 $-1 #
edge $-1 $292 -18.819276664600036 $293 18.819276664600036 $178 $294 forward 7 unknown #
face $-1 $295 $296 $41 $-1 $297 forward single #
loop $-1 $-1 $298 $112 #
plane-surface $-1 42.704846758971541 -180.19414818910491 84.043720720953189 1 0 0 0 0.85716730853699208 -0.51503806187062418 forward_v I I I I #
coedge $-1 $299 $300 $301 $302 reversed $113 $-1 #
coedge $-1 $185 $115 $303 $304 reversed $72 $-1 #
coedge $-1 $115 $184 $299 $305 reversed $72 $-1 #
coedge $-1 $301 $306 $115 $187 forward $296 $-1 #
edge $-1 $307 38.27894862973649 $308 45.436189636423009 $186 $309 forward 7 unknown #
loop $-1 $-1 $193 $116 #
plane-surface $-1 51.136271420878614 -51.818125464815949 6.9076268964841745 0 -0.85716730853699208 0.51503806187062418 1 0 0 forward_v I I I I #
loop $-1 $-1 $310 $74 #
coedge $-1 $191 $191 $192 $311 reversed $117 $-1 #
coedge $-1 $192 $192 $191 $311 forward $119 $-1 #
coedge $-1 $193 $193 $120 $194 forward $188 $-1 #
edge $-1 $312 -3.365521549914039e-015 $312 6.2831853071795969 $193 $313 forward 7 unknown #
loop $-1 $-1 $200 $121 #
plane-surface $-1 51.136271420878614 -51.818125464815949 6.9076268964841745 0 -0.85716730853699208 0.51503806187062418 1 0 0 forward_v I I I I #
loop $-1 $-1 $314 $77 #
coedge $-1 $198 $198 $199 $315 reversed $122 $-1 #
coedge $-1 $199 $199 $198 $315 forward $124 $-1 #
coedge $-1 $200 $200 $125 $201 forward $195 $-1 #
edge $-1 $316 -3.365521549914039e-015 $316 6.2831853071795969 $200 $317 forward 7 unknown #
face $-1 $318 $319 $44 $-1 $320 reversed single #
loop $-1 $-1 $321 $126 #
plane-surface $-1 -4.2582272843576021 93.771071747589886 180.37721334746519 -1 0 0 0 0.74314483375859142 0.66913059716165679 forward_v I I I I #
coedge $-1 $322 $323 $324 $325 reversed $127 $-1 #
coedge $-1 $207 $129 $326 $327 reversed $81 $-1 #
coedge $-1 $129 $206 $322 $328 reversed $81 $-1 #
coedge $-1 $324 $329 $129 $209 forward $330 $-1 #
edge $-1 $331 -4.9325895910210207 $332 9.1794377375421945 $208 $333 forward 7 unknown #
loop $-1 $-1 $215 $130 #
plane-surface $-1 -16.375428658084822 -17.528061007323956 80.163026582274568 0 0.74314483375859142 0.66913059716165679 1 0 0 forward_v I I I I #
loop $-1 $-1 $334 $83 #
coedge $-1 $213 $213 $214 $335 reversed $131 $-1 #
coedge $-1 $214 $214 $213 $335 forward $133 $-1 #
coedge $-1 $215 $215 $134 $216 forward $210 $-1 #
edge $-1 $336 -6.60045204056018e-016 $336 6.2831853071795996 $215 $337 forward 7 unknown #
loop $-1 $-1 $222 $135 #
plane-surface $-1 -16.375428658084822 -17.528061007323956 80.163026582274568 0 0.74314483375859142 0.66913059716165679 1 0 0 forward_v I I I I #
loop $-1 $-1 $338 $86 #
coedge $-1 $220 $220 $221 $339 reversed $136 $-1 #
coedge $-1 $221 $221 $220 $339 forward $138 $-1 #
coedge $-1 $222 $222 $139 $223 forward $217 $-1 #
edge $-1 $340 -6.60045204056018e-016 $340 6.2831853071795996 $222 $341 forward 7 unknown #
loop $-1 $-1 $229 $140 #
plane-surface $-1 -16.375428658084822 -17.528061007323956 80.163026582274568 0 0.74314483375859142 0.66913059716165679 1 0 0 forward_v I I I I #
loop $-1 $-1 $342 $89 #
coedge $-1 $227 $227 $228 $343 reversed $141 $-1 #
coedge $-1 $228 $228 $227 $343 forward $143 $-1 #
coedge $-1 $229 $229 $144 $230 forward $224 $-1 #
edge $-1 $344 -6.60045204056018e-016 $344 6.2831853071795996 $229 $345 forward 7 unknown #
face $-1 $346 $347 $48 $-1 $348 forward single #
loop $-1 $-1 $349 $145 #
plane-surface $-1 62.6050781917452 93.771071747589886 180.37721334746519 -1 0 0 0 0.74314483375859142 0.66913059716165679 forward_v I I I I #
coedge $-1 $350 $351 $352 $353 reversed $146 $-1 #
coedge $-1 $236 $148 $354 $355 reversed $93 $-1 #
coedge $-1 $148 $235 $350 $356 reversed $93 $-1 #
coedge $-1 $352 $357 $148 $238 forward $347 $-1 #
edge $-1 $358 -4.9325895910210207 $359 9.1794377375421945 $237 $360 forward 7 unknown #
loop $-1 $-1 $244 $149 #
plane-surface $-1 50.48787681801798 -17.528061007323956 80.163026582274568 0 0.74314483375859142 0.66913059716165679 1 0 0 forward_v I I I I #
loop $-1 $-1 $361 $95 #
coedge $-1 $242 $242 $243 $362 reversed $150 $-1 #
coedge $-1 $243 $243 $242 $362 forward $152 $-1 #
coedge $-1 $244 $244 $153 $245 forward $239 $-1 #
edge $-1 $363 -6.60045204056018e-016 $363 6.2831853071795996 $244 $364 forward 7 unknown #
loop $-1 $-1 $251 $154 #
plane-surface $-1 50.48787681801798 -17.528061007323956 80.163026582274568 0 0.74314483375859142 0.66913059716165679 1 0 0 forward_v I I I I #
loop $-1 $-1 $365 $98 #
coedge $-1 $249 $249 $250 $366 reversed $155 $-1 #
coedge $-1 $250 $250 $249 $366 forward $157 $-1 #
coedge $-1 $251 $251 $158 $252 forward $246 $-1 #
edge $-1 $367 -6.60045204056018e-016 $367 6.2831853071795996 $251 $368 forward 7 unknown #
loop $-1 $-1 $258 $159 #
plane-surface $-1 50.48787681801798 -17.528061007323956 80.163026582274568 0 0.74314483375859142 0.66913059716165679 1 0 0 forward_v I I I I #
loop $-1 $-1 $369 $101 #
coedge $-1 $256 $256 $257 $370 reversed $160 $-1 #
coedge $-1 $257 $257 $256 $370 forward $162 $-1 #
coedge $-1 $258 $258 $163 $259 forward $253 $-1 #
edge $-1 $371 -6.60045204056018e-016 $371 6.2831853071795996 $258 $372 forward 7 unknown #
face $-1 $373 $374 $39 $-1 $375 reversed single #
loop $-1 $-1 $376 $164 #
plane-surface $-1 -74.883877071443834 0 0 1 0 0 0 0 -1 forward_v I I I I #
coedge $-1 $377 $271 $378 $379 forward $165 $-1 #
coedge $-1 $380 $167 $377 $381 forward $105 $-1 #
coedge $-1 $167 $380 $382 $383 forward $105 $-1 #
coedge $-1 $274 $273 $167 $267 reversed $275 $-1 #
edge $-1 $384 -51.818125464815964 $385 51.818125464815964 $266 $386 forward 7 unknown #
coedge $-1 $169 $168 $387 $388 forward $66 $-1 #
coedge $-1 $389 $390 $168 $270 reversed $374 $-1 #
edge $-1 $277 -74.883877071443834 $391 74.883877071443834 $269 $392 forward 7 unknown #
coedge $-1 $263 $393 $169 $272 reversed $165 $-1 #
edge $-1 $394 -74.883877071443834 $276 74.883877071443834 $271 $395 forward 7 unknown #
coedge $-1 $266 $170 $393 $396 forward $275 $-1 #
coedge $-1 $170 $266 $389 $397 reversed $275 $-1 #
loop $-1 $-1 $273 $373 #
vertex $-1 $171 $398 #
vertex $-1 $171 $399 #
straight-curve $-1 74.883877071443834 0 18.819276664600036 0 1 0 I I #
face $-1 $400 $401 $40 $-1 $402 reversed single #
loop $-1 $-1 $403 $172 #
plane-surface $-1 -74.883877071443834 0 0 1 0 0 0 0 -1 forward_v I I I I #
coedge $-1 $290 $404 $284 $405 forward $173 $-1 #
coedge $-1 $178 $175 $406 $407 reversed $109 $-1 #
coedge $-1 $175 $178 $282 $405 reversed $109 $-1 #
coedge $-1 $408 $409 $175 $286 forward $410 $-1 #
edge $-1 $411 -18.819276664600036 $412 18.819276664600036 $285 $413 forward 7 unknown #
coedge $-1 $177 $176 $403 $414 reversed $69 $-1 #
coedge $-1 $406 $415 $176 $289 forward $401 $-1 #
edge $-1 $416 -41.452224333392437 $293 -25.411081142710366 $288 $417 forward 7 unknown #
coedge $-1 $418 $282 $177 $291 forward $173 $-1 #
edge $-1 $292 25.411081142710366 $419 41.452224333392437 $290 $420 forward 7 unknown #
vertex $-1 $291 $421 #
vertex $-1 $289 $422 #
straight-curve $-1 -58.842733880761763 -46.010092468251301 0 0 0 -1 I I #
face $-1 $-1 $423 $41 $-1 $424 reversed single #
loop $-1 $-1 $186 $180 #
plane-surface $-1 0 0 18.819276664600036 0 0 1 1 0 0 forward_v I I I I #
coedge $-1 $425 $426 $427 $428 reversed $181 $-1 #
coedge $-1 $429 $183 $185 $305 forward $113 $-1 #
coedge $-1 $183 $429 $425 $430 forward $113 $-1 #
coedge $-1 $427 $186 $183 $302 forward $296 $-1 #
edge $-1 $308 -33.99956037234638 $431 -17.136711048532234 $301 $432 forward 7 unknown #
coedge $-1 $433 $434 $184 $304 forward $423 $-1 #
edge $-1 $435 -35.114233463992441 $307 -23.202583695876559 $303 $436 forward 7 unknown #
edge $-1 $308 -13.896528308395935 $435 2.787470371894754e-014 $185 $437 forward 7 unknown #
coedge $-1 $186 $427 $433 $438 forward $296 $-1 #
vertex $-1 $304 $439 #
vertex $-1 $187 $440 #
straight-curve $-1 59.567696082785687 -90.097074094552454 18.819276664600039 0 1 0 I I #
coedge $-1 $310 $310 $-1 $441 reversed $190 $-1 #
edge $-1 $442 0 $442 6.2831853071796004 $191 $443 forward 7 unknown #
vertex $-1 $194 $444 #
ellipse-curve $-1 47.522803708632722 -48.239504961472697 12.863451780542102 0 -0.85716730853699208 0.51503806187062418 1 0 0 1 I I #
coedge $-1 $314 $314 $-1 $445 reversed $197 $-1 #
edge $-1 $446 0 $446 6.2831853071796004 $198 $447 forward 7 unknown #
vertex $-1 $201 $448 #
ellipse-curve $-1 54.749739133124507 -48.239504961472697 12.863451780542102 0 -0.85716730853699208 0.51503806187062418 1 0 0 1 I I #
face $-1 $-1 $330 $44 $-1 $449 forward single #
loop $-1 $-1 $450 $202 #
plane-surface $-1 0 51.818125464815964 0 0 -1 0 0 0 -1 forward_v I I I I #
coedge $-1 $451 $452 $453 $454 reversed $203 $-1 #
coedge $-1 $455 $205 $207 $328 forward $127 $-1 #
coedge $-1 $205 $455 $451 $456 forward $127 $-1 #
coedge $-1 $453 $208 $205 $325 forward $330 $-1 #
edge $-1 $332 -20.30491570276963 $457 3.9294870446848087 $324 $458 forward 7 unknown #
coedge $-1 $459 $460 $206 $327 forward $319 $-1 #
edge $-1 $461 -87.042324559923003 $331 -71.369330009132554 $326 $462 forward 7 unknown #
edge $-1 $332 82.546156726162309 $461 103.63625092963191 $207 $463 forward 7 unknown #
coedge $-1 $208 $453 $459 $464 forward $330 $-1 #
loop $-1 $-1 $453 $318 #
vertex $-1 $327 $465 #
vertex $-1 $209 $466 #
straight-curve $-1 -28.492630031812041 46.885535873794943 18.819276664600039 0 -1 0 I I #
coedge $-1 $334 $334 $-1 $467 reversed $212 $-1 #
edge $-1 $468 0 $468 6.2831853071796004 $213 $469 forward 7 unknown #
vertex $-1 $216 $470 #
ellipse-curve $-1 -23.64574948232115 44.762111800534356 10.982779389204811 0 0.74314483375859142 0.66913059716165679 2 0 0 1 I I #
coedge $-1 $338 $338 $-1 $471 reversed $219 $-1 #
edge $-1 $472 0 $472 6.2831853071796004 $220 $473 forward 7 unknown #
vertex $-1 $223 $474 #
ellipse-curve $-1 -16.375428658084815 44.762111800534356 10.982779389204811 0 0.74314483375859142 0.66913059716165679 2 0 0 1 I I #
coedge $-1 $342 $342 $-1 $475 reversed $226 $-1 #
edge $-1 $476 0 $476 6.2831853071796004 $227 $477 forward 7 unknown #
vertex $-1 $230 $478 #
ellipse-curve $-1 -9.1051078338484785 44.762111800534356 10.982779389204811 0 0.74314483375859142 0.66913059716165679 2 0 0 1 I I #
face $-1 $-1 $479 $48 $-1 $480 reversed single #
loop $-1 $-1 $237 $231 #
plane-surface $-1 0 0 18.819276664600036 0 0 1 1 0 0 forward_v I I I I #
coedge $-1 $481 $482 $483 $484 reversed $232 $-1 #
coedge $-1 $485 $234 $236 $356 forward $146 $-1 #
coedge $-1 $234 $485 $481 $486 forward $146 $-1 #
coedge $-1 $483 $237 $234 $353 forward $347 $-1 #
edge $-1 $359 13.126737035281771 $487 37.36113978273621 $352 $488 forward 7 unknown #
coedge $-1 $489 $490 $235 $355 forward $479 $-1 #
edge $-1 $491 -87.042324559923003 $358 -71.369330009132554 $354 $492 forward 7 unknown #
edge $-1 $359 82.546156726162309 $491 103.63625092963191 $236 $493 forward 7 unknown #
coedge $-1 $237 $483 $489 $494 forward $347 $-1 #
vertex $-1 $355 $495 #
vertex $-1 $238 $496 #
straight-curve $-1 38.370675444290761 46.885535873794943 18.819276664600039 0 -1 0 I I #
coedge $-1 $361 $361 $-1 $497 reversed $241 $-1 #
edge $-1 $498 0 $498 6.2831853071796004 $242 $499 forward 7 unknown #
vertex $-1 $245 $500 #
ellipse-curve $-1 43.217555993781644 44.762111800534356 10.982779389204811 0 0.74314483375859142 0.66913059716165679 2 0 0 1 I I #
coedge $-1 $365 $365 $-1 $501 reversed $248 $-1 #
edge $-1 $502 0 $502 6.2831853071796004 $249 $503 forward 7 unknown #
vertex $-1 $252 $504 #
ellipse-curve $-1 50.48787681801798 44.762111800534356 10.982779389204811 0 0.74314483375859142 0.66913059716165679 2 0 0 1 I I #
coedge $-1 $369 $369 $-1 $505 reversed $255 $-1 #
edge $-1 $506 0 $506 6.2831853071796004 $256 $507 forward 7 unknown #
vertex $-1 $259 $508 #
ellipse-curve $-1 57.758197642254316 44.762111800534356 10.982779389204811 0 0.74314483375859142 0.66913059716165679 2 0 0 1 I I #
face $-1 $-1 $275 $39 $-1 $509 reversed single #
loop $-1 $-1 $389 $260 #
plane-surface $-1 0 51.818125464815964 0 0 -1 0 0 0 -1 forward_v I I I I #
coedge $-1 $510 $387 $390 $511 forward $261 $-1 #
coedge $-1 $393 $263 $264 $381 reversed $165 $-1 #
coedge $-1 $387 $510 $263 $379 reversed $261 $-1 #
edge $-1 $394 -18.819276664600036 $512 18.819276664600036 $378 $513 forward 7 unknown #
coedge $-1 $265 $264 $510 $514 forward $105 $-1 #
edge $-1 $385 -74.883877071443834 $512 74.883877071443834 $377 $515 forward 7 unknown #
coedge $-1 $390 $389 $265 $383 reversed $374 $-1 #
edge $-1 $516 -74.883877071443834 $384 74.883877071443834 $382 $517 forward 7 unknown #
vertex $-1 $267 $518 #
vertex $-1 $396 $519 #
straight-curve $-1 74.883877071443834 0 -18.819276664600036 0 -1 0 I I #
coedge $-1 $376 $378 $268 $388 reversed $261 $-1 #
edge $-1 $391 -51.818125464815964 $394 51.818125464815964 $387 $520 forward 7 unknown #
coedge $-1 $382 $269 $274 $397 forward $374 $-1 #
coedge $-1 $269 $382 $376 $511 reversed $374 $-1 #
vertex $-1 $270 $521 #
straight-curve $-1 0 51.818125464815964 18.819276664600036 -1 0 0 I I #
coedge $-1 $271 $377 $273 $396 reversed $165 $-1 #
vertex $-1 $388 $522 #
straight-curve $-1 0 -51.818125464815964 18.819276664600036 1 0 0 I I #
edge $-1 $276 -18.819276664600036 $385 18.819276664600036 $273 $523 forward 7 unknown #
edge $-1 $277 -18.819276664600036 $384 18.819276664600036 $274 $524 forward 7 unknown #
point $-1 74.883877071443834 -51.818125464815964 18.819276664600036 #
point $-1 74.883877071443834 51.818125464815964 18.819276664600036 #
face $-1 $-1 $410 $40 $-1 $525 reversed single #
loop $-1 $-1 $406 $279 #
plane-surface $-1 0 0 -18.819276664600036 0 0 1 1 0 0 forward_v I I I I #
coedge $-1 $526 $527 $287 $414 forward $280 $-1 #
coedge $-1 $282 $418 $408 $528 forward $173 $-1 #
edge $-1 $412 -27.361070981549148 $292 -21.553037984984485 $282 $529 forward 7 unknown #
coedge $-1 $530 $288 $283 $407 forward $401 $-1 #
edge $-1 $293 21.553037984984485 $411 27.361070981549148 $406 $531 forward 7 unknown #
coedge $-1 $532 $285 $404 $528 reversed $410 $-1 #
coedge $-1 $285 $532 $530 $533 reversed $410 $-1 #
loop $-1 $-1 $285 $400 #
vertex $-1 $533 $534 #
vertex $-1 $286 $535 #
straight-curve $-1 -58.842733880761763 -51.818125464815964 0 0 0 1 I I #
edge $-1 $419 -18.819276664600036 $416 18.819276664600036 $403 $536 forward 7 unknown #
coedge $-1 $288 $530 $526 $537 forward $401 $-1 #
vertex $-1 $289 $538 #
straight-curve $-1 -33.431652738051397 -46.010092468251301 -18.819276664600036 1 0 0 I I #
coedge $-1 $404 $290 $527 $539 forward $173 $-1 #
vertex $-1 $539 $540 #
straight-curve $-1 -33.431652738051397 -46.010092468251301 18.819276664600036 -1 0 0 I I #
point $-1 -58.842733880761763 -46.010092468251301 18.819276664600036 #
point $-1 -58.842733880761763 -46.010092468251301 -18.819276664600036 #
loop $-1 $-1 $303 $295 #
plane-surface $-1 0 -51.818125464815964 0 0 1 0 0 0 1 forward_v I I I I #
coedge $-1 $426 $298 $300 $430 reversed $181 $-1 #
coedge $-1 $298 $425 $541 $542 reversed $181 $-1 #
coedge $-1 $306 $301 $298 $428 forward $296 $-1 #
edge $-1 $431 -45.436189636423009 $543 -38.27894862973649 $427 $544 forward 7 unknown #
coedge $-1 $300 $299 $434 $545 reversed $113 $-1 #
edge $-1 $546 -2.787470371894754e-014 $431 13.896528308395935 $425 $547 forward 7 unknown #
vertex $-1 $302 $548 #
straight-curve $-1 25.568135710439307 -44.660884458129438 18.819276664600036 -1 0 0 I I #
coedge $-1 $541 $303 $306 $438 reversed $423 $-1 #
coedge $-1 $303 $541 $429 $545 forward $423 $-1 #
vertex $-1 $304 $549 #
straight-curve $-1 59.567696082785687 -51.818125464815964 42.021860360476595 0 0 1 I I #
straight-curve $-1 59.567696082785687 -51.818125464815949 6.9076268964841745 0 -0.51503806187062418 -0.85716730853699208 I I #
edge $-1 $543 42.704846758971541 $307 59.567696082785687 $433 $550 forward 7 unknown #
point $-1 59.567696082785687 -51.818125464815964 18.819276664600036 #
point $-1 59.567696082785687 -44.660884458129445 18.819276664600036 #
edge $-1 $551 1 $551 0 $310 $-1 forward 7 unknown #
vertex $-1 $311 $552 #
ellipse-curve $-1 47.522803708632722 -45.361989571850209 11.134466161849316 0 -0.85716730853699208 0.51503806187062418 1 0 0 1 I I #
point $-1 48.522803708632722 -48.239504961472718 12.86345178054211 #
edge $-1 $553 1 $553 0 $314 $-1 forward 7 unknown #
vertex $-1 $315 $554 #
ellipse-curve $-1 54.749739133124507 -45.361989571850209 11.134466161849316 0 -0.85716730853699208 0.51503806187062418 1 0 0 1 I I #
point $-1 55.749739133124507 -48.239504961472718 12.86345178054211 #
plane-surface $-1 0 0 18.819276664600036 0 0 1 1 0 0 forward_v I I I I #
coedge $-1 $460 $459 $452 $555 forward $319 $-1 #
coedge $-1 $452 $321 $323 $456 reversed $203 $-1 #
coedge $-1 $321 $451 $450 $555 reversed $203 $-1 #
coedge $-1 $329 $324 $321 $454 forward $330 $-1 #
edge $-1 $457 -9.1794377375421945 $556 4.9325895910210207 $453 $557 forward 7 unknown #
coedge $-1 $323 $322 $460 $558 reversed $127 $-1 #
edge $-1 $559 -103.63625092963191 $457 -82.546156726162309 $451 $560 forward 7 unknown #
vertex $-1 $325 $561 #
straight-curve $-1 -8.1877143290424108 37.706098136252749 18.819276664600039 1 0 0 I I #
coedge $-1 $450 $326 $329 $464 reversed $319 $-1 #
coedge $-1 $326 $450 $455 $558 forward $319 $-1 #
vertex $-1 $327 $562 #
straight-curve $-1 -28.492630031812041 51.818125464815964 90.188606673732593 0 0 1 I I #
straight-curve $-1 -28.492630031812041 -17.528061007323956 80.163026582274568 0 0.66913059716165679 -0.74314483375859142 I I #
edge $-1 $556 4.2582272843576021 $331 28.492630031812041 $459 $563 forward 7 unknown #
point $-1 -28.492630031812041 51.818125464815964 18.819276664600036 #
point $-1 -28.492630031812041 37.706098136252749 18.819276664600039 #
edge $-1 $564 1 $564 0 $334 $-1 forward 7 unknown #
vertex $-1 $335 $565 #
ellipse-curve $-1 -23.64574948232115 39.024199979151376 5.8163405079918595 0 0.74314483375859142 0.66913059716165679 2 0 0 1 I I #
point $-1 -21.64574948232115 44.762111800534356 10.982779389204813 #
edge $-1 $566 1 $566 0 $338 $-1 forward 7 unknown #
vertex $-1 $339 $567 #
ellipse-curve $-1 -16.375428658084815 39.024199979151376 5.8163405079918595 0 0.74314483375859142 0.66913059716165679 2 0 0 1 I I #
point $-1 -14.375428658084815 44.762111800534356 10.982779389204813 #
edge $-1 $568 1 $568 0 $342 $-1 forward 7 unknown #
vertex $-1 $343 $569 #
ellipse-curve $-1 -9.1051078338484785 39.024199979151376 5.8163405079918595 0 0.74314483375859142 0.66913059716165679 2 0 0 1 I I #
point $-1 -7.1051078338484785 44.762111800534356 10.982779389204813 #
loop $-1 $-1 $354 $346 #
plane-surface $-1 0 51.818125464815964 0 0 -1 0 0 0 -1 forward_v I I I I #
coedge $-1 $482 $349 $351 $486 reversed $232 $-1 #
coedge $-1 $349 $481 $570 $571 reversed $232 $-1 #
coedge $-1 $357 $352 $349 $484 forward $347 $-1 #
edge $-1 $487 -9.1794377375421945 $572 4.9325895910210207 $483 $573 forward 7 unknown #
coedge $-1 $351 $350 $490 $574 reversed $146 $-1 #
edge $-1 $575 -103.63625092963191 $487 -82.546156726162309 $481 $576 forward 7 unknown #
vertex $-1 $353 $577 #
straight-curve $-1 25.24393840900899 37.706098136252749 18.819276664600039 1 0 0 I I #
coedge $-1 $570 $354 $357 $494 reversed $479 $-1 #
coedge $-1 $354 $570 $485 $574 forward $479 $-1 #
vertex $-1 $355 $578 #
straight-curve $-1 38.370675444290761 51.818125464815964 90.188606673732593 0 0 1 I I #
straight-curve $-1 38.370675444290761 -17.528061007323956 80.163026582274568 0 0.66913059716165679 -0.74314483375859142 I I #
edge $-1 $572 -62.6050781917452 $358 -38.370675444290761 $489 $579 forward 7 unknown #
point $-1 38.370675444290761 51.818125464815964 18.819276664600036 #
point $-1 38.370675444290761 37.706098136252749 18.819276664600039 #
edge $-1 $580 1 $580 0 $361 $-1 forward 7 unknown #
vertex $-1 $362 $581 #
ellipse-curve $-1 43.217555993781644 39.024199979151376 5.8163405079918595 0 0.74314483375859142 0.66913059716165679 2 0 0 1 I I #
point $-1 45.217555993781644 44.762111800534356 10.982779389204813 #
edge $-1 $582 1 $582 0 $365 $-1 forward 7 unknown #
vertex $-1 $366 $583 #
ellipse-curve $-1 50.48787681801798 39.024199979151376 5.8163405079918595 0 0.74314483375859142 0.66913059716165679 2 0 0 1 I I #
point $-1 52.48787681801798 44.762111800534356 10.982779389204813 #
edge $-1 $584 1 $584 0 $369 $-1 forward 7 unknown #
vertex $-1 $370 $585 #
ellipse-curve $-1 57.758197642254316 39.024199979151376 5.8163405079918595 0 0.74314483375859142 0.66913059716165679 2 0 0 1 I I #
point $-1 59.758197642254316 44.762111800534356 10.982779389204813 #
plane-surface $-1 74.883877071443834 0 0 -1 0 0 0 0 1 forward_v I I I I #
coedge $-1 $378 $376 $380 $514 reversed $261 $-1 #
edge $-1 $391 -18.819276664600036 $516 18.819276664600036 $390 $586 forward 7 unknown #
vertex $-1 $514 $587 #
straight-curve $-1 -74.883877071443834 -51.818125464815964 0 0 0 -1 I I #
edge $-1 $512 -51.818125464815964 $516 51.818125464815964 $510 $588 forward 7 unknown #
straight-curve $-1 0 -51.818125464815964 -18.819276664600036 -1 0 0 I I #
vertex $-1 $383 $589 #
straight-curve $-1 0 51.818125464815964 -18.819276664600036 1 0 0 I I #
point $-1 74.883877071443834 51.818125464815964 -18.819276664600036 #
point $-1 74.883877071443834 -51.818125464815964 -18.819276664600036 #
straight-curve $-1 -74.883877071443834 0 18.819276664600036 0 -1 0 I I #
point $-1 -74.883877071443834 51.818125464815964 18.819276664600036 #
point $-1 -74.883877071443834 -51.818125464815964 18.819276664600036 #
straight-curve $-1 74.883877071443834 -51.818125464815964 0 0 0 -1 I I #
straight-curve $-1 74.883877071443834 51.818125464815964 0 0 0 -1 I I #
plane-surface $-1 0 -51.818125464815964 0 0 1 0 0 0 1 forward_v I I I I #
coedge $-1 $590 $403 $415 $537 reversed $280 $-1 #
coedge $-1 $403 $590 $418 $539 reversed $280 $-1 #
edge $-1 $591 -74.883877071443834 $412 -58.842733880761763 $408 $592 forward 7 unknown #
straight-curve $-1 -58.842733880761763 -24.457054483266816 18.819276664600036 0 1 0 I I #
coedge $-1 $415 $406 $409 $533 forward $401 $-1 #
straight-curve $-1 -58.842733880761763 -24.457054483266816 -18.819276664600036 0 -1 0 I I #
coedge $-1 $409 $408 $590 $593 forward $410 $-1 #
edge $-1 $411 58.842733880761763 $594 74.883877071443834 $409 $595 forward 7 unknown #
point $-1 -58.842733880761763 -51.818125464815964 -18.819276664600036 #
point $-1 -58.842733880761763 -51.818125464815964 18.819276664600036 #
straight-curve $-1 -74.883877071443834 -46.010092468251301 0 0 0 -1 I I #
edge $-1 $594 -51.818125464815964 $416 -46.010092468251301 $526 $596 forward 7 unknown #
point $-1 -74.883877071443834 -46.010092468251301 -18.819276664600036 #
edge $-1 $419 46.010092468251301 $591 51.818125464815964 $527 $597 forward 7 unknown #
point $-1 -74.883877071443834 -46.010092468251301 18.819276664600036 #
coedge $-1 $434 $433 $426 $542 forward $423 $-1 #
edge $-1 $543 23.202583695876559 $546 35.114233463992441 $541 $598 forward 7 unknown #
vertex $-1 $438 $599 #
straight-curve $-1 42.704846758971541 -90.097074094552454 18.819276664600039 0 -1 0 I I #
edge $-1 $546 17.136711048532234 $435 33.99956037234638 $434 $600 forward 7 unknown #
vertex $-1 $545 $601 #
straight-curve $-1 42.704846758971541 -51.818125464815949 6.9076268964841745 0 0.51503806187062418 0.85716730853699208 I I #
point $-1 42.704846758971541 -44.660884458129445 18.819276664600036 #
point $-1 59.567696082785687 -51.818125464815964 6.9076268964841505 #
straight-curve $-1 0 -51.818125464815964 18.819276664600036 1 0 0 I I #
vertex $-1 $441 $602 #
point $-1 48.522803708632722 -45.361989571850209 11.134466161849316 #
vertex $-1 $445 $603 #
point $-1 55.749739133124507 -45.361989571850209 11.134466161849316 #
edge $-1 $556 71.369330009132554 $559 87.042324559923003 $450 $604 forward 7 unknown #
vertex $-1 $464 $605 #
straight-curve $-1 -4.2582272843576021 46.885535873794943 18.819276664600039 0 1 0 I I #
edge $-1 $559 -3.9294870446848087 $461 20.30491570276963 $460 $606 forward 7 unknown #
vertex $-1 $558 $607 #
straight-curve $-1 -4.2582272843576021 -17.528061007323956 80.163026582274568 0 -0.66913059716165679 0.74314483375859142 I I #
point $-1 -4.2582272843576021 37.706098136252749 18.819276664600039 #
point $-1 -28.492630031812041 51.818125464815964 3.1462821138095904 #
straight-curve $-1 0 51.818125464815964 18.819276664600036 -1 0 0 I I #
vertex $-1 $467 $608 #
point $-1 -21.64574948232115 39.024199979151376 5.8163405079918595 #
vertex $-1 $471 $609 #
point $-1 -14.375428658084815 39.024199979151376 5.8163405079918595 #
vertex $-1 $475 $610 #
point $-1 -7.1051078338484785 39.024199979151376 5.8163405079918595 #
coedge $-1 $490 $489 $482 $571 forward $479 $-1 #
edge $-1 $572 71.369330009132554 $575 87.042324559923003 $570 $611 forward 7 unknown #
vertex $-1 $494 $612 #
straight-curve $-1 62.6050781917452 46.885535873794943 18.819276664600039 0 1 0 I I #
edge $-1 $575 -37.36113978273621 $491 -13.126737035281771 $490 $613 forward 7 unknown #
vertex $-1 $574 $614 #
straight-curve $-1 62.6050781917452 -17.528061007323956 80.163026582274568 0 -0.66913059716165679 0.74314483375859142 I I #
point $-1 62.6050781917452 37.706098136252749 18.819276664600039 #
point $-1 38.370675444290761 51.818125464815964 3.1462821138095904 #
straight-curve $-1 0 51.818125464815964 18.819276664600036 -1 0 0 I I #
vertex $-1 $497 $615 #
point $-1 45.217555993781644 39.024199979151376 5.8163405079918595 #
vertex $-1 $501 $616 #
point $-1 52.48787681801798 39.024199979151376 5.8163405079918595 #
vertex $-1 $505 $617 #
point $-1 59.758197642254316 39.024199979151376 5.8163405079918595 #
straight-curve $-1 -74.883877071443834 51.818125464815964 0 0 0 -1 I I #
point $-1 -74.883877071443834 -51.818125464815964 -18.819276664600036 #
straight-curve $-1 -74.883877071443834 0 -18.819276664600036 0 1 0 I I #
point $-1 -74.883877071443834 51.818125464815964 -18.819276664600036 #
coedge $-1 $527 $526 $532 $593 reversed $280 $-1 #
vertex $-1 $539 $618 #
straight-curve $-1 0 -51.818125464815964 18.819276664600036 1 0 0 I I #
edge $-1 $591 -18.819276664600036 $594 18.819276664600036 $590 $619 forward 7 unknown #
vertex $-1 $537 $620 #
straight-curve $-1 0 -51.818125464815964 -18.819276664600036 -1 0 0 I I #
straight-curve $-1 -74.883877071443834 0 -18.819276664600036 0 1 0 I I #
straight-curve $-1 -74.883877071443834 0 18.819276664600036 0 -1 0 I I #
straight-curve $-1 42.704846758971541 -51.818125464815964 42.021860360476595 0 0 -1 I I #
point $-1 42.704846758971541 -51.818125464815964 18.819276664600036 #
straight-curve $-1 25.568135710439307 -51.818125464815964 6.9076268964841478 1 0 0 I I #
point $-1 42.704846758971541 -51.818125464815964 6.9076268964841505 #
point $-1 47.522803708632722 -44.504822263313223 10.619428099978693 #
point $-1 54.749739133124507 -44.504822263313223 10.619428099978693 #
straight-curve $-1 -4.2582272843576021 51.818125464815964 90.188606673732593 0 0 -1 I I #
point $-1 -4.2582272843576021 51.818125464815964 18.819276664600036 #
straight-curve $-1 -8.1877143290424108 51.818125464815964 3.1462821138095833 -1 0 0 I I #
point $-1 -4.2582272843576021 51.818125464815964 3.1462821138095904 #
point $-1 -23.64574948232115 37.537910311634192 4.4780793136685455 #
point $-1 -16.375428658084815 37.537910311634192 4.4780793136685455 #
point $-1 -9.1051078338484785 37.537910311634192 4.4780793136685455 #
straight-curve $-1 62.6050781917452 51.818125464815964 90.188606673732593 0 0 -1 I I #
point $-1 62.6050781917452 51.818125464815964 18.819276664600036 #
straight-curve $-1 25.24393840900899 51.818125464815964 3.1462821138095833 -1 0 0 I I #
point $-1 62.6050781917452 51.818125464815964 3.1462821138095904 #
point $-1 43.217555993781644 37.537910311634192 4.4780793136685455 #
point $-1 50.48787681801798 37.537910311634192 4.4780793136685455 #
point $-1 57.758197642254316 37.537910311634192 4.4780793136685455 #
point $-1 -74.883877071443834 -51.818125464815964 18.819276664600036 #
straight-curve $-1 -74.883877071443834 -51.818125464815964 0 0 0 -1 I I #
point $-1 -74.883877071443834 -51.818125464815964 -18.819276664600036 #
End-of-ACIS-data 