500 0 5 0           
7 Unknown 11 ACIS 5.0 NT 24 Fri Mar 26 01:58:05 1999 
-1 9.9999999999999995e-007 1e-010 
body $-1 $5 $-1 $6 #
body $-1 $7 $-1 $8 #
body $-1 $9 $-1 $10 #
body $-1 $11 $-1 $12 #
body $-1 $13 $-1 $14 #
lump $-1 $-1 $15 $0 #
transform $-1 1 0 0 0 1 0 0 0 1 79.570299386577958 36.280044858101547 12.473639007611329 1 rotate no_reflect no_shear #
lump $-1 $-1 $16 $1 #
transform $-1 1 0 0 0 1 0 0 0 1 79.570299386577958 36.280044858101547 12.473639007611329 1 rotate no_reflect no_shear #
lump $-1 $-1 $17 $2 #
transform $-1 1 0 0 0 1 0 0 0 1 79.570299386577958 36.280044858101547 12.473639007611329 1 rotate no_reflect no_shear #
lump $-1 $-1 $18 $3 #
transform $-1 1 0 0 0 1 0 0 0 1 79.570299386577958 36.280044858101547 12.473639007611329 1 rotate no_reflect no_shear #
lump $-1 $-1 $19 $4 #
transform $-1 1 0 0 0 1 0 0 0 1 79.570299386577958 36.280044858101547 12.473639007611329 1 rotate no_reflect no_shear #
shell $-1 $-1 $-1 $20 $-1 $5 #
shell $-1 $-1 $-1 $21 $-1 $7 #
shell $-1 $-1 $-1 $22 $-1 $9 #
shell $-1 $-1 $-1 $23 $-1 $11 #
shell $-1 $-1 $-1 $24 $-1 $13 #
face $-1 $25 $26 $15 $-1 $27 forward single #
face $-1 $28 $29 $16 $-1 $30 reversed single #
face $-1 $31 $32 $17 $-1 $33 reversed single #
face $-1 $34 $35 $18 $-1 $36 forward single #
face $-1 $37 $38 $19 $-1 $39 forward single #
face $-1 $40 $41 $15 $-1 $42 reversed single #
loop $-1 $-1 $43 $20 #
plane-surface $-1 0 0 12.473639007611329 0 0 1 1 0 0 forward_v I I I I #
face $-1 $44 $45 $16 $-1 $46 reversed single #
loop $-1 $-1 $47 $21 #
plane-surface $-1 -75.413673413200215 -17.284497438551362 0 0 1 0 0 0 1 forward_v I I I I #
face $-1 $48 $49 $17 $-1 $50 reversed single #
loop $-1 $-1 $51 $22 #
plane-surface $-1 -43.970770720799706 -166.64039296692872 91.686378523742803 -1 0 0 0 -0.81915205242281985 0.57357642473473569 forward_v I I I I #
face $-1 $52 $53 $18 $-1 $54 forward single #
loop $-1 $55 $56 $23 #
cone-surface $-1 -63.460968377244541 -28.943122883981452 4.2610523400897584 0 0.81915205242281985 -0.57357642473473569 3 0 0 1 I I 0 1 3 forward I I I I #
face $-1 $57 $58 $19 $-1 $59 forward single #
loop $-1 $60 $61 $24 #
cone-surface $-1 -51.766849783377644 -28.943122883981452 4.2610523400897584 0 0.81915205242281985 -0.57357642473473569 3 0 0 1 I I 0 1 3 forward I I I I #
face $-1 $62 $63 $15 $-1 $64 reversed single #
loop $-1 $-1 $65 $25 #
plane-surface $-1 0 0 -12.473639007611329 0 0 1 1 0 0 forward_v I I I I #
coedge $-1 $66 $67 $68 $69 forward $26 $-1 #
face $-1 $70 $71 $16 $-1 $72 reversed single #
loop $-1 $-1 $73 $28 #
plane-surface $-1 -75.413673413200215 -11.332766842878888 0 0 -1 0 0 0 -1 forward_v I I I I #
coedge $-1 $74 $75 $76 $77 reversed $29 $-1 #
face $-1 $78 $79 $17 $-1 $80 reversed single #
loop $-1 $-1 $81 $31 #
plane-surface $-1 -57.613909080311089 -36.280044858101547 0.4070828492909726 0 -0.81915205242281985 0.57357642473473569 1 0 0 forward_v I I I I #
coedge $-1 $82 $83 $84 $85 reversed $32 $-1 #
face $-1 $-1 $86 $18 $-1 $87 forward single #
loop $-1 $88 $89 $34 #
cone-surface $-1 -63.460968377244541 -24.60201949486526 1.22137911462627 0 0.81915205242281985 -0.57357642473473569 1.5 0 0 1 I I -0.70710678118654746 0.70710678118654768 1.5 forward I I I I #
loop $-1 $-1 $90 $23 #
coedge $-1 $56 $56 $91 $92 reversed $35 $-1 #
face $-1 $-1 $93 $19 $-1 $94 forward single #
loop $-1 $95 $96 $37 #
cone-surface $-1 -51.766849783377644 -24.60201949486526 1.22137911462627 0 0.81915205242281985 -0.57357642473473569 1.5 0 0 1 I I -0.70710678118654746 0.70710678118654768 1.5 forward I I I I #
loop $-1 $-1 $97 $24 #
coedge $-1 $61 $61 $98 $99 reversed $38 $-1 #
face $-1 $100 $101 $15 $-1 $102 reversed single #
loop $-1 $-1 $103 $40 #
plane-surface $-1 0 -36.280044858101547 0 0 1 0 0 0 1 forward_v I I I I #
coedge $-1 $104 $105 $106 $107 forward $41 $-1 #
coedge $-1 $108 $43 $109 $110 forward $26 $-1 #
coedge $-1 $43 $108 $111 $112 forward $26 $-1 #
coedge $-1 $113 $114 $43 $69 reversed $115 $-1 #
edge $-1 $116 -36.280044858101547 $117 36.280044858101547 $68 $118 forward 7 unknown #
face $-1 $119 $120 $16 $-1 $121 reversed single #
loop $-1 $-1 $122 $44 #
plane-surface $-1 -71.257047439822472 -14.308632140715126 0 -1 0 0 0 0 1 forward_v I I I I #
coedge $-1 $123 $124 $125 $126 forward $45 $-1 #
coedge $-1 $127 $47 $128 $129 reversed $29 $-1 #
coedge $-1 $47 $127 $130 $131 reversed $29 $-1 #
coedge $-1 $132 $133 $47 $77 forward $134 $-1 #
edge $-1 $135 -12.473639007611329 $136 12.473639007611329 $76 $137 forward 7 unknown #
face $-1 $138 $139 $17 $-1 $140 reversed single #
loop $-1 $-1 $141 $48 #
plane-surface $-1 -71.257047439822472 -166.64039296692872 91.686378523742803 1 0 0 0 0.81915205242281985 -0.57357642473473569 forward_v I I I I #
coedge $-1 $142 $143 $144 $145 reversed $49 $-1 #
coedge $-1 $83 $51 $146 $147 reversed $32 $-1 #
coedge $-1 $51 $82 $142 $148 reversed $32 $-1 #
coedge $-1 $144 $149 $51 $85 forward $150 $-1 #
edge $-1 $151 47.04015162536281 $152 55.489244952639069 $84 $153 forward 7 unknown #
loop $-1 $-1 $91 $52 #
plane-surface $-1 -57.613909080311089 -36.280044858101547 0.4070828492909726 0 -0.81915205242281985 0.57357642473473569 1 0 0 forward_v I I I I #
loop $-1 $-1 $154 $34 #
coedge $-1 $89 $89 $90 $155 reversed $53 $-1 #
coedge $-1 $90 $90 $89 $155 forward $55 $-1 #
coedge $-1 $91 $91 $56 $92 forward $86 $-1 #
edge $-1 $156 1.4591324763669712e-016 $156 6.2831853071796004 $91 $157 forward 7 unknown #
loop $-1 $-1 $98 $57 #
plane-surface $-1 -57.613909080311089 -36.280044858101547 0.4070828492909726 0 -0.81915205242281985 0.57357642473473569 1 0 0 forward_v I I I I #
loop $-1 $-1 $158 $37 #
coedge $-1 $96 $96 $97 $159 reversed $58 $-1 #
coedge $-1 $97 $97 $96 $159 forward $60 $-1 #
coedge $-1 $98 $98 $61 $99 forward $93 $-1 #
edge $-1 $160 1.4591324763669712e-016 $160 6.2831853071796004 $98 $161 forward 7 unknown #
face $-1 $162 $163 $15 $-1 $164 reversed single #
loop $-1 $-1 $165 $62 #
plane-surface $-1 -79.570299386577958 0 0 1 0 0 0 0 -1 forward_v I I I I #
coedge $-1 $166 $111 $167 $168 forward $63 $-1 #
coedge $-1 $169 $65 $166 $170 forward $41 $-1 #
coedge $-1 $65 $169 $171 $172 forward $41 $-1 #
coedge $-1 $114 $113 $65 $107 reversed $115 $-1 #
edge $-1 $173 -36.280044858101547 $174 36.280044858101547 $106 $175 forward 7 unknown #
coedge $-1 $67 $66 $176 $177 forward $26 $-1 #
coedge $-1 $178 $179 $66 $110 reversed $163 $-1 #
edge $-1 $117 -79.570299386577958 $180 79.570299386577958 $109 $181 forward 7 unknown #
coedge $-1 $103 $182 $67 $112 reversed $63 $-1 #
edge $-1 $183 -79.570299386577958 $116 79.570299386577958 $111 $184 forward 7 unknown #
coedge $-1 $106 $68 $182 $185 forward $115 $-1 #
coedge $-1 $68 $106 $178 $186 reversed $115 $-1 #
loop $-1 $-1 $113 $162 #
vertex $-1 $69 $187 #
vertex $-1 $69 $188 #
straight-curve $-1 79.570299386577958 0 12.473639007611329 0 1 0 I I #
face $-1 $189 $190 $16 $-1 $191 forward single #
loop $-1 $-1 $192 $70 #
plane-surface $-1 0 0 -12.473639007611329 0 0 1 1 0 0 forward_v I I I I #
coedge $-1 $193 $194 $127 $195 forward $71 $-1 #
coedge $-1 $196 $73 $192 $197 reversed $45 $-1 #
coedge $-1 $73 $196 $198 $199 reversed $45 $-1 #
coedge $-1 $194 $193 $73 $126 reversed $71 $-1 #
edge $-1 $200 -12.473639007611329 $201 12.473639007611329 $125 $202 forward 7 unknown #
coedge $-1 $75 $74 $122 $195 reversed $29 $-1 #
coedge $-1 $203 $204 $74 $129 forward $120 $-1 #
edge $-1 $205 33.550210733222364 $135 41.86346267997785 $128 $206 forward 7 unknown #
coedge $-1 $207 $208 $75 $131 forward $190 $-1 #
edge $-1 $136 -41.86346267997785 $209 -33.550210733222364 $130 $210 forward 7 unknown #
coedge $-1 $211 $76 $208 $212 reversed $134 $-1 #
coedge $-1 $76 $211 $203 $213 reversed $134 $-1 #
loop $-1 $-1 $211 $189 #
vertex $-1 $213 $214 #
vertex $-1 $77 $215 #
straight-curve $-1 -79.570299386577958 -17.284497438551362 0 0 0 1 I I #
face $-1 $-1 $150 $17 $-1 $216 forward single #
loop $-1 $-1 $217 $78 #
plane-surface $-1 0 -36.280044858101547 0 0 1 0 0 0 1 forward_v I I I I #
coedge $-1 $218 $219 $220 $221 reversed $79 $-1 #
coedge $-1 $222 $81 $83 $148 forward $49 $-1 #
coedge $-1 $81 $222 $218 $223 forward $49 $-1 #
coedge $-1 $220 $84 $81 $145 forward $150 $-1 #
edge $-1 $152 15.163816180644162 $224 42.450092899666927 $144 $225 forward 7 unknown #
coedge $-1 $226 $227 $82 $147 forward $139 $-1 #
edge $-1 $228 -45.436106412580429 $151 -33.369550254260076 $146 $229 forward 7 unknown #
edge $-1 $152 -14.730544985672566 $228 0 $83 $230 forward 7 unknown #
coedge $-1 $84 $220 $226 $231 forward $150 $-1 #
loop $-1 $-1 $220 $138 #
vertex $-1 $147 $232 #
vertex $-1 $85 $233 #
straight-curve $-1 -43.970770720799706 -83.320196483464358 12.473639007611325 0 1 0 I I #
coedge $-1 $154 $154 $-1 $234 reversed $88 $-1 #
edge $-1 $235 0 $235 6.2831853071796004 $89 $236 forward 7 unknown #
vertex $-1 $92 $237 #
ellipse-curve $-1 -63.460968377244541 -32.055498194463418 6.440360928451148 0 -0.81915205242281985 0.57357642473473569 3 0 0 1 I I #
coedge $-1 $158 $158 $-1 $238 reversed $95 $-1 #
edge $-1 $239 0 $239 6.2831853071796004 $96 $240 forward 7 unknown #
vertex $-1 $99 $241 #
ellipse-curve $-1 -51.766849783377644 -32.055498194463418 6.440360928451148 0 -0.81915205242281985 0.57357642473473569 3 0 0 1 I I #
face $-1 $-1 $115 $15 $-1 $242 reversed single #
loop $-1 $-1 $178 $100 #
plane-surface $-1 0 36.280044858101547 0 0 -1 0 0 0 -1 forward_v I I I I #
coedge $-1 $243 $176 $179 $244 forward $101 $-1 #
coedge $-1 $182 $103 $104 $170 reversed $63 $-1 #
coedge $-1 $176 $243 $103 $168 reversed $101 $-1 #
edge $-1 $183 -12.473639007611329 $245 12.473639007611329 $167 $246 forward 7 unknown #
coedge $-1 $105 $104 $243 $247 forward $41 $-1 #
edge $-1 $174 -79.570299386577958 $245 79.570299386577958 $166 $248 forward 7 unknown #
coedge $-1 $179 $178 $105 $172 reversed $163 $-1 #
edge $-1 $249 -79.570299386577958 $173 79.570299386577958 $171 $250 forward 7 unknown #
vertex $-1 $107 $251 #
vertex $-1 $185 $252 #
straight-curve $-1 79.570299386577958 0 -12.473639007611329 0 -1 0 I I #
coedge $-1 $165 $167 $108 $177 reversed $101 $-1 #
edge $-1 $180 -36.280044858101547 $183 36.280044858101547 $176 $253 forward 7 unknown #
coedge $-1 $171 $109 $114 $186 forward $163 $-1 #
coedge $-1 $109 $171 $165 $244 reversed $163 $-1 #
vertex $-1 $110 $254 #
straight-curve $-1 0 36.280044858101547 12.473639007611329 -1 0 0 I I #
coedge $-1 $111 $166 $113 $185 reversed $63 $-1 #
vertex $-1 $177 $255 #
straight-curve $-1 0 -36.280044858101547 12.473639007611329 1 0 0 I I #
edge $-1 $116 -12.473639007611329 $174 12.473639007611329 $113 $256 forward 7 unknown #
edge $-1 $117 -12.473639007611329 $173 12.473639007611329 $114 $257 forward 7 unknown #
point $-1 79.570299386577958 -36.280044858101547 12.473639007611329 #
point $-1 79.570299386577958 36.280044858101547 12.473639007611329 #
face $-1 $-1 $134 $16 $-1 $258 reversed single #
loop $-1 $-1 $198 $119 #
plane-surface $-1 0 0 12.473639007611329 0 0 1 1 0 0 forward_v I I I I #
coedge $-1 $204 $203 $123 $197 forward $120 $-1 #
coedge $-1 $125 $122 $204 $259 reversed $71 $-1 #
coedge $-1 $122 $125 $207 $260 reversed $71 $-1 #
edge $-1 $209 -12.473639007611329 $205 12.473639007611329 $122 $261 forward 7 unknown #
coedge $-1 $124 $123 $211 $262 reversed $45 $-1 #
edge $-1 $263 -41.86346267997785 $201 -33.550210733222364 $192 $264 forward 7 unknown #
coedge $-1 $208 $207 $124 $199 forward $190 $-1 #
edge $-1 $200 33.550210733222364 $265 41.86346267997785 $198 $266 forward 7 unknown #
vertex $-1 $199 $267 #
vertex $-1 $197 $268 #
straight-curve $-1 -71.257047439822472 -11.332766842878888 0 0 0 -1 I I #
coedge $-1 $192 $128 $133 $213 forward $120 $-1 #
coedge $-1 $128 $192 $193 $259 forward $120 $-1 #
vertex $-1 $129 $269 #
straight-curve $-1 -37.706836706600107 -17.284497438551362 -12.473639007611329 -1 0 0 I I #
coedge $-1 $198 $130 $194 $260 forward $190 $-1 #
coedge $-1 $130 $198 $132 $212 forward $190 $-1 #
vertex $-1 $131 $270 #
straight-curve $-1 -37.706836706600107 -17.284497438551362 12.473639007611329 1 0 0 I I #
coedge $-1 $133 $132 $196 $262 forward $134 $-1 #
edge $-1 $265 11.332766842878888 $136 17.284497438551362 $132 $271 forward 7 unknown #
edge $-1 $135 -17.284497438551362 $263 -11.332766842878888 $133 $272 forward 7 unknown #
point $-1 -79.570299386577958 -17.284497438551362 -12.473639007611329 #
point $-1 -79.570299386577958 -17.284497438551362 12.473639007611329 #
plane-surface $-1 0 0 12.473639007611329 0 0 1 1 0 0 forward_v I I I I #
coedge $-1 $227 $226 $219 $273 forward $139 $-1 #
coedge $-1 $219 $141 $143 $223 reversed $79 $-1 #
coedge $-1 $141 $218 $217 $273 reversed $79 $-1 #
coedge $-1 $149 $144 $141 $221 forward $150 $-1 #
edge $-1 $224 -55.489244952639069 $274 -47.04015162536281 $220 $275 forward 7 unknown #
coedge $-1 $143 $142 $227 $276 reversed $49 $-1 #
edge $-1 $277 0 $224 14.730544985672566 $218 $278 forward 7 unknown #
vertex $-1 $145 $279 #
straight-curve $-1 -28.806954540155544 -27.830951530825292 12.473639007611329 -1 0 0 I I #
coedge $-1 $217 $146 $149 $231 reversed $139 $-1 #
coedge $-1 $146 $217 $222 $276 forward $139 $-1 #
vertex $-1 $147 $280 #
straight-curve $-1 -43.970770720799706 -36.280044858101547 45.843189261871402 0 0 1 I I #
straight-curve $-1 -43.970770720799706 -36.280044858101547 0.4070828492909726 0 -0.57357642473473569 -0.81915205242281985 I I #
edge $-1 $274 -71.257047439822472 $151 -43.970770720799706 $226 $281 forward 7 unknown #
point $-1 -43.970770720799706 -36.280044858101547 12.473639007611329 #
point $-1 -43.970770720799706 -27.830951530825288 12.473639007611329 #
edge $-1 $282 1 $282 0 $154 $-1 forward 7 unknown #
vertex $-1 $155 $283 #
ellipse-curve $-1 -63.460968377244541 -25.83074757349949 2.0817437517283737 0 -0.81915205242281985 0.57357642473473569 3 0 0 1 I I #
point $-1 -60.460968377244541 -32.055498194463411 6.4403609284511436 #
edge $-1 $284 1 $284 0 $158 $-1 forward 7 unknown #
vertex $-1 $159 $285 #
ellipse-curve $-1 -51.766849783377644 -25.83074757349949 2.0817437517283737 0 -0.81915205242281985 0.57357642473473569 3 0 0 1 I I #
point $-1 -48.766849783377644 -32.055498194463411 6.4403609284511436 #
plane-surface $-1 79.570299386577958 0 0 -1 0 0 0 0 1 forward_v I I I I #
coedge $-1 $167 $165 $169 $247 reversed $101 $-1 #
edge $-1 $180 -12.473639007611329 $249 12.473639007611329 $179 $286 forward 7 unknown #
vertex $-1 $247 $287 #
straight-curve $-1 -79.570299386577958 -36.280044858101547 0 0 0 -1 I I #
edge $-1 $245 -36.280044858101547 $249 36.280044858101547 $243 $288 forward 7 unknown #
straight-curve $-1 0 -36.280044858101547 -12.473639007611329 -1 0 0 I I #
vertex $-1 $172 $289 #
straight-curve $-1 0 36.280044858101547 -12.473639007611329 1 0 0 I I #
point $-1 79.570299386577958 36.280044858101547 -12.473639007611329 #
point $-1 79.570299386577958 -36.280044858101547 -12.473639007611329 #
straight-curve $-1 -79.570299386577958 0 12.473639007611329 0 -1 0 I I #
point $-1 -79.570299386577958 36.280044858101547 12.473639007611329 #
point $-1 -79.570299386577958 -36.280044858101547 12.473639007611329 #
straight-curve $-1 79.570299386577958 -36.280044858101547 0 0 0 -1 I I #
straight-curve $-1 79.570299386577958 36.280044858101547 0 0 0 -1 I I #
plane-surface $-1 -79.570299386577958 0 0 1 0 0 0 0 -1 forward_v I I I I #
edge $-1 $201 4.1784507725213249 $205 10.130181368193799 $204 $290 forward 7 unknown #
edge $-1 $209 -10.130181368193799 $200 -4.1784507725213249 $207 $291 forward 7 unknown #
straight-curve $-1 -71.257047439822472 -17.284497438551362 0 0 0 -1 I I #
edge $-1 $265 -12.473639007611329 $263 12.473639007611329 $211 $292 forward 7 unknown #
vertex $-1 $262 $293 #
straight-curve $-1 -37.706836706600107 -11.332766842878888 -12.473639007611329 1 0 0 I I #
vertex $-1 $212 $294 #
straight-curve $-1 -37.706836706600107 -11.332766842878888 12.473639007611329 -1 0 0 I I #
point $-1 -71.257047439822472 -11.332766842878888 12.473639007611329 #
point $-1 -71.257047439822472 -11.332766842878888 -12.473639007611329 #
point $-1 -71.257047439822472 -17.284497438551362 -12.473639007611329 #
point $-1 -71.257047439822472 -17.284497438551362 12.473639007611329 #
straight-curve $-1 -79.570299386577958 0 12.473639007611329 0 -1 0 I I #
straight-curve $-1 -79.570299386577958 0 -12.473639007611329 0 1 0 I I #
edge $-1 $274 33.369550254260076 $277 45.436106412580429 $217 $295 forward 7 unknown #
vertex $-1 $231 $296 #
straight-curve $-1 -71.257047439822472 -83.320196483464358 12.473639007611325 0 -1 0 I I #
edge $-1 $277 -42.450092899666927 $228 -15.163816180644162 $227 $297 forward 7 unknown #
vertex $-1 $276 $298 #
straight-curve $-1 -71.257047439822472 -36.280044858101547 0.4070828492909726 0 0.57357642473473569 0.81915205242281985 I I #
point $-1 -71.257047439822472 -27.830951530825288 12.473639007611329 #
point $-1 -43.970770720799706 -36.280044858101547 0.4070828492909726 #
straight-curve $-1 0 -36.280044858101547 12.473639007611329 1 0 0 I I #
vertex $-1 $234 $299 #
point $-1 -60.460968377244541 -25.83074757349949 2.0817437517283737 #
vertex $-1 $238 $300 #
point $-1 -48.766849783377644 -25.83074757349949 2.0817437517283737 #
straight-curve $-1 -79.570299386577958 36.280044858101547 0 0 0 -1 I I #
point $-1 -79.570299386577958 -36.280044858101547 -12.473639007611329 #
straight-curve $-1 -79.570299386577958 0 -12.473639007611329 0 1 0 I I #
point $-1 -79.570299386577958 36.280044858101547 -12.473639007611329 #
straight-curve $-1 -71.257047439822472 -7.154316070357563 -12.473639007611329 0 -1 0 I I #
straight-curve $-1 -71.257047439822472 -7.154316070357563 12.473639007611329 0 1 0 I I #
straight-curve $-1 -79.570299386577958 -11.332766842878888 0 0 0 -1 I I #
point $-1 -79.570299386577958 -11.332766842878888 -12.473639007611329 #
point $-1 -79.570299386577958 -11.332766842878888 12.473639007611329 #
straight-curve $-1 -71.257047439822472 -36.280044858101547 45.843189261871402 0 0 -1 I I #
point $-1 -71.257047439822472 -36.280044858101547 12.473639007611329 #
straight-curve $-1 -28.806954540155544 -36.280044858101547 0.40708284929097294 1 0 0 I I #
point $-1 -71.257047439822472 -36.280044858101547 0.4070828492909726 #
point $-1 -63.460968377244541 -23.37329141623103 0.36101447752416627 #
point $-1 -51.766849783377644 -23.37329141623103 0.36101447752416627 #
End-of-ACIS-data 