500 0 9 0           
7 Unknown 11 ACIS 5.0 NT 24 Fri Mar 26 14:51:11 1999 
-1 9.9999999999999995e-007 1e-010 
body $-1 $9 $-1 $10 #
body $-1 $11 $-1 $12 #
body $-1 $13 $-1 $14 #
body $-1 $15 $-1 $16 #
body $-1 $17 $-1 $18 #
body $-1 $19 $-1 $20 #
body $-1 $21 $-1 $22 #
body $-1 $23 $-1 $24 #
body $-1 $25 $-1 $26 #
lump $-1 $-1 $27 $0 #
transform $-1 1 0 0 0 1 0 0 0 1 52.18787194433424 21.111664143306793 8.6689452767045676 1 rotate no_reflect no_shear #
lump $-1 $-1 $28 $1 #
transform $-1 1 0 0 0 1 0 0 0 1 52.18787194433424 21.111664143306793 8.6689452767045676 1 rotate no_reflect no_shear #
lump $-1 $-1 $29 $2 #
transform $-1 1 0 0 0 1 0 0 0 1 52.18787194433424 21.111664143306793 8.6689452767045676 1 rotate no_reflect no_shear #
lump $-1 $-1 $30 $3 #
transform $-1 1 0 0 0 1 0 0 0 1 52.18787194433424 21.111664143306793 8.6689452767045676 1 rotate no_reflect no_shear #
lump $-1 $-1 $31 $4 #
transform $-1 1 0 0 0 1 0 0 0 1 52.18787194433424 21.111664143306793 8.6689452767045676 1 rotate no_reflect no_shear #
lump $-1 $-1 $32 $5 #
transform $-1 1 0 0 0 1 0 0 0 1 52.18787194433424 21.111664143306793 8.6689452767045676 1 rotate no_reflect no_shear #
lump $-1 $-1 $33 $6 #
transform $-1 1 0 0 0 1 0 0 0 1 52.18787194433424 21.111664143306793 8.6689452767045676 1 rotate no_reflect no_shear #
lump $-1 $-1 $34 $7 #
transform $-1 1 0 0 0 1 0 0 0 1 52.18787194433424 21.111664143306793 8.6689452767045676 1 rotate no_reflect no_shear #
lump $-1 $-1 $35 $8 #
transform $-1 1 0 0 0 1 0 0 0 1 52.18787194433424 21.111664143306793 8.6689452767045676 1 rotate no_reflect no_shear #
shell $-1 $-1 $-1 $36 $-1 $9 #
shell $-1 $-1 $-1 $37 $-1 $11 #
shell $-1 $-1 $-1 $38 $-1 $13 #
shell $-1 $-1 $-1 $39 $-1 $15 #
shell $-1 $-1 $-1 $40 $-1 $17 #
shell $-1 $-1 $-1 $41 $-1 $19 #
shell $-1 $-1 $-1 $42 $-1 $21 #
shell $-1 $-1 $-1 $43 $-1 $23 #
shell $-1 $-1 $-1 $44 $-1 $25 #
face $-1 $45 $46 $27 $-1 $47 forward single #
face $-1 $48 $49 $28 $-1 $50 forward single #
face $-1 $51 $52 $29 $-1 $53 forward single #
face $-1 $54 $55 $30 $-1 $56 reversed single #
face $-1 $57 $58 $31 $-1 $59 forward single #
face $-1 $60 $61 $32 $-1 $62 forward single #
face $-1 $63 $64 $33 $-1 $65 reversed single #
face $-1 $66 $67 $34 $-1 $68 forward single #
face $-1 $69 $70 $35 $-1 $71 forward single #
face $-1 $72 $73 $27 $-1 $74 reversed single #
loop $-1 $-1 $75 $36 #
plane-surface $-1 0 0 8.6689452767045676 0 0 1 1 0 0 forward_v I I I I #
face $-1 $76 $77 $28 $-1 $78 forward single #
loop $-1 $-1 $79 $37 #
plane-surface $-1 0 -21.111664143306793 0 0 1 0 0 0 1 forward_v I I I I #
face $-1 $80 $81 $29 $-1 $82 forward single #
loop $-1 $-1 $83 $38 #
plane-surface $-1 0 21.111664143306793 0 0 -1 0 0 0 -1 forward_v I I I I #
face $-1 $84 $85 $30 $-1 $86 reversed single #
loop $-1 $-1 $87 $39 #
plane-surface $-1 65.052897518907599 7.2820961209902499 147.75445705235973 0 -1 0 -0.7660444514056185 0 -0.64278759981090561 forward_v I I I I #
face $-1 $88 $89 $31 $-1 $90 forward single #
loop $-1 $91 $92 $40 #
cone-surface $-1 48.464234080766644 2.5034199111925552 4.3663606846650085 -0.7660444514056185 0 -0.64278759981090561 0.3213937999054528 0 -0.38302222570280925 1 I I 0 1 0.5 forward I I I I #
face $-1 $93 $94 $32 $-1 $95 forward single #
loop $-1 $96 $97 $41 #
cone-surface $-1 48.464234080766644 5.3706256370711714 4.3663606846650085 -0.7660444514056185 0 -0.64278759981090561 0.3213937999054528 0 -0.38302222570280925 1 I I 0 1 0.5 forward I I I I #
face $-1 $98 $99 $33 $-1 $100 reversed single #
loop $-1 $-1 $101 $42 #
plane-surface $-1 -109.03497711964496 -2.7853544909765642 88.109519609233303 0 1 0 -0.54463904215088732 0 0.83867056331134215 forward_v I I I I #
face $-1 $102 $103 $34 $-1 $104 forward single #
loop $-1 $105 $106 $43 #
cone-surface $-1 -45.68195620062798 -0.95020117824919126 4.2014651997382728 0.54463904215088732 0 -0.83867056331134215 0.41933528165567108 0 0.27231952107544366 1 I I 0 1 0.5 forward I I I I #
face $-1 $107 $108 $35 $-1 $109 forward single #
loop $-1 $110 $111 $44 #
cone-surface $-1 -45.68195620062798 1.8025287908418655 4.2014651997382728 0.54463904215088732 0 -0.83867056331134215 0.41933528165567108 0 0.27231952107544366 1 I I 0 1 0.5 forward I I I I #
face $-1 $112 $113 $27 $-1 $114 reversed single #
loop $-1 $-1 $115 $45 #
plane-surface $-1 0 0 -8.6689452767045676 0 0 1 1 0 0 forward_v I I I I #
coedge $-1 $116 $117 $118 $119 forward $46 $-1 #
face $-1 $120 $121 $28 $-1 $122 reversed single #
loop $-1 $-1 $123 $48 #
plane-surface $-1 0 0 8.6689452767045676 0 0 1 1 0 0 forward_v I I I I #
coedge $-1 $124 $125 $126 $127 forward $49 $-1 #
face $-1 $128 $129 $29 $-1 $130 reversed single #
loop $-1 $-1 $131 $51 #
plane-surface $-1 0 0 8.6689452767045676 0 0 1 1 0 0 forward_v I I I I #
coedge $-1 $132 $133 $134 $135 forward $52 $-1 #
face $-1 $136 $137 $30 $-1 $138 reversed single #
loop $-1 $-1 $139 $54 #
plane-surface $-1 -14.90356194834078 3.9370227741318651 80.663023159684712 0.7660444514056185 0 0.64278759981090561 0.64278759981090561 0 -0.7660444514056185 forward_v I I I I #
coedge $-1 $140 $141 $142 $143 reversed $55 $-1 #
face $-1 $-1 $144 $31 $-1 $145 forward single #
loop $-1 $146 $147 $57 #
cone-surface $-1 47.889700742212433 2.5034199111925552 3.8842699848068296 -0.7660444514056185 0 -0.64278759981090561 0.1606968999527264 0 -0.19151111285140462 1 I I -0.70710678118654746 0.70710678118654746 0.25 forward I I I I #
loop $-1 $-1 $148 $40 #
coedge $-1 $92 $92 $149 $150 reversed $58 $-1 #
face $-1 $-1 $151 $32 $-1 $152 forward single #
loop $-1 $153 $154 $60 #
cone-surface $-1 47.889700742212433 5.3706256370711714 3.8842699848068296 -0.7660444514056185 0 -0.64278759981090561 0.1606968999527264 0 -0.19151111285140462 1 I I -0.70710678118654746 0.70710678118654746 0.25 forward I I I I #
loop $-1 $-1 $155 $41 #
coedge $-1 $97 $97 $156 $157 reversed $61 $-1 #
face $-1 $158 $159 $33 $-1 $160 reversed single #
loop $-1 $-1 $161 $63 #
plane-surface $-1 -52.187871944334233 0.42616380629633355 0.57265568608332273 -0.54463904215088732 0 0.83867056331134215 0.83867056331134215 0 0.54463904215088732 forward_v I I I I #
coedge $-1 $162 $163 $164 $165 reversed $64 $-1 #
face $-1 $-1 $166 $34 $-1 $167 forward single #
loop $-1 $168 $169 $66 #
cone-surface $-1 -45.273476919014811 -0.95020117824919126 3.5724622772547665 0.54463904215088732 0 -0.83867056331134215 0.20966764082783554 0 0.13615976053772183 1 I I -0.70710678118654746 0.70710678118654746 0.25 forward I I I I #
loop $-1 $-1 $170 $43 #
coedge $-1 $106 $106 $171 $172 reversed $67 $-1 #
face $-1 $-1 $173 $35 $-1 $174 forward single #
loop $-1 $175 $176 $69 #
cone-surface $-1 -45.273476919014811 1.8025287908418655 3.5724622772547665 0.54463904215088732 0 -0.83867056331134215 0.20966764082783554 0 0.13615976053772183 1 I I -0.70710678118654746 0.70710678118654746 0.25 forward I I I I #
loop $-1 $-1 $177 $44 #
coedge $-1 $111 $111 $178 $179 reversed $70 $-1 #
face $-1 $180 $181 $27 $-1 $182 reversed single #
loop $-1 $-1 $183 $72 #
plane-surface $-1 0 -21.111664143306793 0 0 1 0 0 0 1 forward_v I I I I #
coedge $-1 $184 $185 $186 $187 forward $73 $-1 #
coedge $-1 $188 $75 $189 $190 forward $46 $-1 #
coedge $-1 $75 $188 $191 $192 forward $46 $-1 #
coedge $-1 $193 $194 $75 $119 reversed $195 $-1 #
edge $-1 $196 -21.111664143306793 $197 21.111664143306793 $118 $198 forward 7 unknown #
face $-1 $199 $200 $28 $-1 $201 reversed single #
loop $-1 $-1 $202 $76 #
plane-surface $-1 -52.18787194433424 0 0 1 0 0 0 0 -1 forward_v I I I I #
coedge $-1 $203 $204 $125 $205 forward $77 $-1 #
coedge $-1 $206 $79 $207 $208 reversed $49 $-1 #
coedge $-1 $79 $206 $123 $205 reversed $49 $-1 #
coedge $-1 $209 $210 $79 $127 reversed $211 $-1 #
edge $-1 $212 -8.6689452767045676 $213 8.6689452767045676 $126 $214 forward 7 unknown #
face $-1 $215 $216 $29 $-1 $217 reversed single #
loop $-1 $-1 $218 $80 #
plane-surface $-1 -49.64544519746687 30.93252856099414 0 0 -1 0 0 0 -1 forward_v I I I I #
coedge $-1 $219 $220 $132 $221 forward $81 $-1 #
coedge $-1 $222 $83 $131 $221 reversed $52 $-1 #
coedge $-1 $83 $222 $223 $224 reversed $52 $-1 #
coedge $-1 $225 $226 $83 $135 reversed $216 $-1 #
edge $-1 $227 -8.6689452767045676 $228 8.6689452767045676 $134 $229 forward 7 unknown #
face $-1 $230 $231 $30 $-1 $232 forward single #
loop $-1 $-1 $233 $84 #
plane-surface $-1 65.052897518907599 0.59194942727348021 147.75445705235973 0 1 0 0.7660444514056185 0 0.64278759981090561 forward_v I I I I #
coedge $-1 $234 $235 $236 $237 reversed $85 $-1 #
coedge $-1 $141 $87 $238 $239 reversed $55 $-1 #
coedge $-1 $87 $140 $234 $240 reversed $55 $-1 #
coedge $-1 $236 $241 $87 $143 forward $231 $-1 #
edge $-1 $242 -19.661423184880441 $243 -12.98019190915084 $142 $244 forward 7 unknown #
loop $-1 $-1 $149 $88 #
plane-surface $-1 -14.90356194834078 3.9370227741318651 80.663023159684712 0.7660444514056185 0 0.64278759981090561 0.64278759981090561 0 -0.7660444514056185 forward_v I I I I #
loop $-1 $-1 $245 $57 #
coedge $-1 $147 $147 $148 $246 reversed $89 $-1 #
coedge $-1 $148 $148 $147 $246 forward $91 $-1 #
coedge $-1 $149 $149 $92 $150 forward $144 $-1 #
edge $-1 $247 0 $247 6.2831853071796004 $149 $248 forward 7 unknown #
loop $-1 $-1 $156 $93 #
plane-surface $-1 -14.90356194834078 3.9370227741318651 80.663023159684712 0.7660444514056185 0 0.64278759981090561 0.64278759981090561 0 -0.7660444514056185 forward_v I I I I #
loop $-1 $-1 $249 $60 #
coedge $-1 $154 $154 $155 $250 reversed $94 $-1 #
coedge $-1 $155 $155 $154 $250 forward $96 $-1 #
coedge $-1 $156 $156 $97 $157 forward $151 $-1 #
edge $-1 $251 0 $251 6.2831853071796004 $156 $252 forward 7 unknown #
face $-1 $253 $254 $33 $-1 $255 reversed single #
loop $-1 $-1 $256 $98 #
plane-surface $-1 -109.03497711964496 3.6376821035692313 88.109519609233303 0 -1 0 0.54463904215088732 0 -0.83867056331134215 forward_v I I I I #
coedge $-1 $257 $258 $259 $260 reversed $99 $-1 #
coedge $-1 $163 $101 $261 $262 reversed $64 $-1 #
coedge $-1 $101 $162 $257 $263 reversed $64 $-1 #
coedge $-1 $259 $264 $101 $165 forward $265 $-1 #
edge $-1 $266 2.3296166154882414 $267 14.796809060749879 $164 $268 forward 7 unknown #
loop $-1 $-1 $171 $102 #
plane-surface $-1 -52.187871944334233 0.42616380629633355 0.57265568608332273 -0.54463904215088732 0 0.83867056331134215 0.83867056331134215 0 0.54463904215088732 forward_v I I I I #
loop $-1 $-1 $269 $66 #
coedge $-1 $169 $169 $170 $270 reversed $103 $-1 #
coedge $-1 $170 $170 $169 $270 forward $105 $-1 #
coedge $-1 $171 $171 $106 $172 forward $166 $-1 #
edge $-1 $271 0 $271 6.2831853071796004 $171 $272 forward 7 unknown #
loop $-1 $-1 $178 $107 #
plane-surface $-1 -52.187871944334233 0.42616380629633355 0.57265568608332273 -0.54463904215088732 0 0.83867056331134215 0.83867056331134215 0 0.54463904215088732 forward_v I I I I #
loop $-1 $-1 $273 $69 #
coedge $-1 $176 $176 $177 $274 reversed $108 $-1 #
coedge $-1 $177 $177 $176 $274 forward $110 $-1 #
coedge $-1 $178 $178 $111 $179 forward $173 $-1 #
edge $-1 $275 0 $275 6.2831853071796004 $178 $276 forward 7 unknown #
face $-1 $277 $278 $27 $-1 $279 reversed single #
loop $-1 $-1 $280 $112 #
plane-surface $-1 -52.18787194433424 0 0 1 0 0 0 0 -1 forward_v I I I I #
coedge $-1 $281 $191 $282 $283 forward $113 $-1 #
coedge $-1 $284 $115 $281 $285 forward $73 $-1 #
coedge $-1 $115 $284 $286 $287 forward $73 $-1 #
coedge $-1 $194 $193 $115 $187 reversed $195 $-1 #
edge $-1 $288 -21.111664143306793 $289 21.111664143306793 $186 $290 forward 7 unknown #
coedge $-1 $117 $116 $291 $292 forward $46 $-1 #
coedge $-1 $293 $294 $116 $190 reversed $278 $-1 #
edge $-1 $197 -52.18787194433424 $295 52.18787194433424 $189 $296 forward 7 unknown #
coedge $-1 $183 $297 $117 $192 reversed $113 $-1 #
edge $-1 $298 -52.18787194433424 $196 52.18787194433424 $191 $299 forward 7 unknown #
coedge $-1 $186 $118 $297 $300 forward $195 $-1 #
coedge $-1 $118 $186 $293 $301 reversed $195 $-1 #
loop $-1 $-1 $193 $277 #
vertex $-1 $119 $302 #
vertex $-1 $119 $303 #
straight-curve $-1 52.18787194433424 0 8.6689452767045676 0 1 0 I I #
face $-1 $304 $211 $28 $-1 $305 reversed single #
loop $-1 $-1 $306 $120 #
plane-surface $-1 -49.64544519746687 -30.93252856099414 0 0 1 0 0 0 1 forward_v I I I I #
coedge $-1 $307 $308 $206 $309 forward $121 $-1 #
coedge $-1 $310 $123 $308 $311 forward $77 $-1 #
coedge $-1 $123 $310 $209 $312 forward $77 $-1 #
edge $-1 $212 47.1030184505995 $313 52.18787194433424 $123 $314 forward 7 unknown #
coedge $-1 $125 $124 $202 $309 reversed $49 $-1 #
coedge $-1 $315 $316 $124 $208 forward $317 $-1 #
edge $-1 $318 -52.18787194433424 $213 -47.1030184505995 $207 $319 forward 7 unknown #
coedge $-1 $320 $126 $204 $312 reversed $211 $-1 #
coedge $-1 $126 $320 $315 $321 reversed $211 $-1 #
loop $-1 $-1 $320 $199 #
vertex $-1 $205 $322 #
vertex $-1 $321 $323 #
straight-curve $-1 -47.1030184505995 -21.111664143306793 0 0 0 -1 I I #
face $-1 $324 $325 $29 $-1 $326 reversed single #
loop $-1 $-1 $134 $128 #
plane-surface $-1 -47.1030184505995 26.022096352150466 0 -1 0 0 0 0 1 forward_v I I I I #
coedge $-1 $327 $328 $329 $330 forward $129 $-1 #
coedge $-1 $331 $131 $226 $332 forward $81 $-1 #
coedge $-1 $131 $331 $333 $334 forward $81 $-1 #
edge $-1 $335 -52.18787194433424 $228 -47.1030184505995 $131 $336 forward 7 unknown #
coedge $-1 $133 $132 $337 $338 reversed $52 $-1 #
coedge $-1 $339 $340 $133 $224 forward $325 $-1 #
edge $-1 $227 47.1030184505995 $341 52.18787194433424 $223 $342 forward 7 unknown #
coedge $-1 $329 $134 $340 $343 reversed $216 $-1 #
coedge $-1 $134 $329 $219 $332 reversed $216 $-1 #
vertex $-1 $224 $344 #
vertex $-1 $332 $345 #
straight-curve $-1 -47.1030184505995 21.111664143306793 0 0 0 1 I I #
face $-1 $-1 $346 $30 $-1 $347 reversed single #
loop $-1 $-1 $142 $136 #
plane-surface $-1 0 0 8.6689452767045676 0 0 1 1 0 0 forward_v I I I I #
coedge $-1 $348 $349 $350 $351 reversed $137 $-1 #
coedge $-1 $352 $139 $141 $240 forward $85 $-1 #
coedge $-1 $139 $352 $348 $353 forward $85 $-1 #
coedge $-1 $350 $142 $139 $237 forward $231 $-1 #
edge $-1 $243 -5.3135847339243174 $354 1.3765619597924523 $236 $355 forward 7 unknown #
coedge $-1 $356 $357 $140 $239 forward $346 $-1 #
edge $-1 $358 -73.17066483374353 $242 -65.208283249475301 $238 $359 forward 7 unknown #
edge $-1 $243 93.981593040557769 $358 104.37574388866851 $141 $360 forward 7 unknown #
coedge $-1 $142 $350 $356 $361 forward $231 $-1 #
vertex $-1 $143 $362 #
vertex $-1 $143 $363 #
straight-curve $-1 32.5264487594538 7.2820961209902499 8.6689452767045623 -1 0 0 I I #
coedge $-1 $245 $245 $-1 $364 reversed $146 $-1 #
edge $-1 $365 0 $365 6.2831853071796004 $147 $366 forward 7 unknown #
vertex $-1 $150 $367 #
ellipse-curve $-1 48.847256306469433 2.5034199111925552 4.6877544845704433 0.7660444514056185 0 0.64278759981090561 0.3213937999054528 0 -0.38302222570280925 1 I I #
coedge $-1 $249 $249 $-1 $368 reversed $153 $-1 #
edge $-1 $369 0 $369 6.2831853071796004 $154 $370 forward 7 unknown #
vertex $-1 $157 $371 #
ellipse-curve $-1 48.847256306469433 5.3706256370711714 4.6877544845704433 0.7660444514056185 0 0.64278759981090561 0.3213937999054528 0 -0.38302222570280925 1 I I #
face $-1 $-1 $265 $33 $-1 $372 forward single #
loop $-1 $-1 $373 $158 #
plane-surface $-1 -52.18787194433424 0 0 1 0 0 0 0 -1 forward_v I I I I #
coedge $-1 $374 $375 $376 $377 reversed $159 $-1 #
coedge $-1 $378 $161 $163 $263 forward $99 $-1 #
coedge $-1 $161 $378 $374 $379 forward $99 $-1 #
coedge $-1 $376 $164 $161 $260 forward $265 $-1 #
edge $-1 $267 -2.998436394124731 $380 3.4246002004210645 $259 $381 forward 7 unknown #
coedge $-1 $382 $383 $162 $262 forward $254 $-1 #
edge $-1 $384 -43.482104118533336 $266 -35.385814527912082 $261 $385 forward 7 unknown #
edge $-1 $267 -14.865422718590636 $384 8.4987301443310198e-015 $163 $386 forward 7 unknown #
coedge $-1 $164 $376 $382 $387 forward $265 $-1 #
loop $-1 $-1 $376 $253 #
vertex $-1 $262 $388 #
vertex $-1 $165 $389 #
straight-curve $-1 -54.517488559822482 -2.7853544909765642 8.6689452767045694 1 0 0 I I #
coedge $-1 $269 $269 $-1 $390 reversed $168 $-1 #
edge $-1 $391 0 $391 6.2831853071796004 $169 $392 forward 7 unknown #
vertex $-1 $172 $393 #
ellipse-curve $-1 -45.954275721703425 -0.95020117824919126 4.6208004813939416 -0.54463904215088732 0 0.83867056331134215 0.41933528165567108 0 0.27231952107544366 1 I I #
coedge $-1 $273 $273 $-1 $394 reversed $175 $-1 #
edge $-1 $395 0 $395 6.2831853071796004 $176 $396 forward 7 unknown #
vertex $-1 $179 $397 #
ellipse-curve $-1 -45.954275721703425 1.8025287908418655 4.6208004813939416 -0.54463904215088732 0 0.83867056331134215 0.41933528165567108 0 0.27231952107544366 1 I I #
face $-1 $-1 $195 $27 $-1 $398 reversed single #
loop $-1 $-1 $293 $180 #
plane-surface $-1 0 21.111664143306793 0 0 -1 0 0 0 -1 forward_v I I I I #
coedge $-1 $399 $291 $294 $400 forward $181 $-1 #
coedge $-1 $297 $183 $184 $285 reversed $113 $-1 #
coedge $-1 $291 $399 $183 $283 reversed $181 $-1 #
edge $-1 $298 -8.6689452767045676 $401 8.6689452767045676 $282 $402 forward 7 unknown #
coedge $-1 $185 $184 $399 $403 forward $73 $-1 #
edge $-1 $289 -52.18787194433424 $401 52.18787194433424 $281 $404 forward 7 unknown #
coedge $-1 $294 $293 $185 $287 reversed $278 $-1 #
edge $-1 $405 -52.18787194433424 $288 52.18787194433424 $286 $406 forward 7 unknown #
vertex $-1 $187 $407 #
vertex $-1 $300 $408 #
straight-curve $-1 52.18787194433424 0 -8.6689452767045676 0 -1 0 I I #
coedge $-1 $280 $282 $188 $292 reversed $181 $-1 #
edge $-1 $295 -21.111664143306793 $298 21.111664143306793 $291 $409 forward 7 unknown #
coedge $-1 $286 $189 $194 $301 forward $278 $-1 #
coedge $-1 $189 $286 $280 $400 reversed $278 $-1 #
vertex $-1 $190 $410 #
straight-curve $-1 0 21.111664143306793 8.6689452767045676 -1 0 0 I I #
coedge $-1 $191 $281 $193 $300 reversed $113 $-1 #
vertex $-1 $292 $411 #
straight-curve $-1 0 -21.111664143306793 8.6689452767045676 1 0 0 I I #
edge $-1 $196 -8.6689452767045676 $289 8.6689452767045676 $193 $412 forward 7 unknown #
edge $-1 $197 -8.6689452767045676 $288 8.6689452767045676 $194 $413 forward 7 unknown #
point $-1 52.18787194433424 -21.111664143306793 8.6689452767045676 #
point $-1 52.18787194433424 21.111664143306793 8.6689452767045676 #
face $-1 $-1 $317 $28 $-1 $414 reversed single #
plane-surface $-1 -47.1030184505995 -26.022096352150466 0 -1 0 0 0 0 1 forward_v I I I I #
coedge $-1 $415 $416 $417 $418 forward $200 $-1 #
coedge $-1 $417 $202 $316 $419 reversed $121 $-1 #
coedge $-1 $202 $417 $203 $311 reversed $121 $-1 #
edge $-1 $313 -8.6689452767045676 $318 8.6689452767045676 $202 $420 forward 7 unknown #
coedge $-1 $204 $203 $416 $421 forward $77 $-1 #
edge $-1 $313 21.111664143306793 $422 30.93252856099414 $308 $423 forward 7 unknown #
edge $-1 $424 -4.9104322088436732 $212 4.9104322088436732 $209 $425 forward 7 unknown #
vertex $-1 $311 $426 #
straight-curve $-1 0 -21.111664143306793 8.6689452767045676 -1 0 0 I I #
coedge $-1 $427 $207 $210 $321 forward $317 $-1 #
coedge $-1 $207 $427 $307 $419 forward $317 $-1 #
loop $-1 $-1 $207 $304 #
vertex $-1 $309 $428 #
straight-curve $-1 0 -21.111664143306793 -8.6689452767045676 1 0 0 I I #
coedge $-1 $210 $209 $429 $430 forward $211 $-1 #
edge $-1 $213 -4.9104322088436732 $431 4.9104322088436732 $210 $432 forward 7 unknown #
point $-1 -47.1030184505995 -21.111664143306793 8.6689452767045676 #
point $-1 -47.1030184505995 -21.111664143306793 -8.6689452767045676 #
face $-1 $-1 $433 $29 $-1 $434 reversed single #
loop $-1 $-1 $223 $215 #
plane-surface $-1 0 0 -8.6689452767045676 0 0 1 1 0 0 forward_v I I I I #
coedge $-1 $435 $218 $436 $437 reversed $129 $-1 #
coedge $-1 $218 $435 $331 $438 reversed $129 $-1 #
coedge $-1 $226 $225 $218 $330 reversed $216 $-1 #
edge $-1 $439 -8.6689452767045676 $440 8.6689452767045676 $329 $441 forward 7 unknown #
coedge $-1 $220 $219 $328 $438 forward $81 $-1 #
edge $-1 $228 -4.9104322088436732 $439 4.9104322088436732 $226 $442 forward 7 unknown #
coedge $-1 $443 $337 $220 $334 reversed $433 $-1 #
edge $-1 $444 -30.93252856099414 $335 -21.111664143306793 $333 $445 forward 7 unknown #
vertex $-1 $338 $446 #
straight-curve $-1 0 21.111664143306793 8.6689452767045676 1 0 0 I I #
coedge $-1 $333 $447 $222 $338 forward $433 $-1 #
edge $-1 $341 -8.6689452767045676 $335 8.6689452767045676 $337 $448 forward 7 unknown #
coedge $-1 $436 $223 $447 $449 forward $325 $-1 #
coedge $-1 $223 $436 $225 $343 forward $325 $-1 #
vertex $-1 $449 $450 #
straight-curve $-1 0 21.111664143306793 -8.6689452767045676 -1 0 0 I I #
edge $-1 $440 -4.9104322088436732 $227 4.9104322088436732 $225 $451 forward 7 unknown #
point $-1 -47.1030184505995 21.111664143306793 -8.6689452767045676 #
point $-1 -47.1030184505995 21.111664143306793 8.6689452767045676 #
loop $-1 $-1 $238 $230 #
plane-surface $-1 52.18787194433424 0 0 -1 0 0 0 0 1 forward_v I I I I #
coedge $-1 $349 $233 $235 $353 reversed $137 $-1 #
coedge $-1 $233 $348 $452 $453 reversed $137 $-1 #
coedge $-1 $241 $236 $233 $351 forward $231 $-1 #
edge $-1 $354 12.98019190915084 $454 19.661423184880441 $350 $455 forward 7 unknown #
coedge $-1 $235 $234 $357 $456 reversed $85 $-1 #
edge $-1 $457 -104.37574388866851 $354 -93.981593040557769 $348 $458 forward 7 unknown #
vertex $-1 $237 $459 #
straight-curve $-1 45.506640668604632 1.9685113870659325 8.6689452767045694 0 -1 0 I I #
coedge $-1 $452 $238 $241 $361 reversed $346 $-1 #
coedge $-1 $238 $452 $352 $456 forward $346 $-1 #
vertex $-1 $239 $460 #
straight-curve $-1 52.18787194433424 7.2820961209902499 73.877228526179863 0 0 1 I I #
straight-curve $-1 -14.90356194834078 7.2820961209902499 80.663023159684712 0.64278759981090561 0 -0.7660444514056185 I I #
edge $-1 $454 0.59194942727348021 $242 7.2820961209902499 $356 $461 forward 7 unknown #
point $-1 52.18787194433424 7.2820961209902499 8.6689452767045676 #
point $-1 45.506640668604639 7.2820961209902499 8.6689452767045623 #
edge $-1 $462 1 $462 0 $245 $-1 forward 7 unknown #
vertex $-1 $246 $463 #
ellipse-curve $-1 48.081211855063835 2.5034199111925552 4.0449668847595559 0.7660444514056185 0 0.64278759981090561 0.3213937999054528 0 -0.38302222570280925 1 I I #
point $-1 49.168650106374912 2.5034199111925552 4.3047322588676522 #
edge $-1 $464 1 $464 0 $249 $-1 forward 7 unknown #
vertex $-1 $250 $465 #
ellipse-curve $-1 48.081211855063835 5.3706256370711714 4.0449668847595559 0.7660444514056185 0 0.64278759981090561 0.3213937999054528 0 -0.38302222570280925 1 I I #
point $-1 49.168650106374912 5.3706256370711714 4.3047322588676522 #
plane-surface $-1 0 0 8.6689452767045676 0 0 1 1 0 0 forward_v I I I I #
coedge $-1 $383 $382 $375 $466 forward $254 $-1 #
coedge $-1 $375 $256 $258 $379 reversed $159 $-1 #
coedge $-1 $256 $374 $373 $466 reversed $159 $-1 #
coedge $-1 $264 $259 $256 $377 forward $265 $-1 #
edge $-1 $380 -14.796809060749879 $467 -2.3296166154882414 $376 $468 forward 7 unknown #
coedge $-1 $258 $257 $383 $469 reversed $99 $-1 #
edge $-1 $470 -8.4987301443310198e-015 $380 14.865422718590636 $374 $471 forward 7 unknown #
vertex $-1 $260 $472 #
straight-curve $-1 -39.720679499072595 0.21308190314816677 8.6689452767045676 0 1 0 I I #
coedge $-1 $373 $261 $264 $387 reversed $254 $-1 #
coedge $-1 $261 $373 $378 $469 forward $254 $-1 #
vertex $-1 $262 $473 #
straight-curve $-1 -52.18787194433424 -2.7853544909765642 44.054759804616651 0 0 1 I I #
straight-curve $-1 -52.187871944334233 -2.7853544909765642 0.57265568608332273 -0.83867056331134215 0 -0.54463904215088732 I I #
edge $-1 $467 -3.6376821035692313 $266 2.7853544909765642 $382 $474 forward 7 unknown #
point $-1 -52.18787194433424 -2.7853544909765642 8.6689452767045676 #
point $-1 -39.720679499072602 -2.7853544909765642 8.6689452767045676 #
edge $-1 $475 1 $475 0 $269 $-1 forward 7 unknown #
vertex $-1 $270 $476 #
ellipse-curve $-1 -45.409636679552534 -0.95020117824919126 3.7821299180826022 -0.54463904215088732 0 0.83867056331134215 0.41933528165567108 0 0.27231952107544366 1 I I #
point $-1 -45.534940440047748 -0.95020117824919126 4.8931200024693879 #
edge $-1 $477 1 $477 0 $273 $-1 forward 7 unknown #
vertex $-1 $274 $478 #
ellipse-curve $-1 -45.409636679552534 1.8025287908418655 3.7821299180826022 -0.54463904215088732 0 0.83867056331134215 0.41933528165567108 0 0.27231952107544366 1 I I #
point $-1 -45.534940440047748 1.8025287908418655 4.8931200024693879 #
plane-surface $-1 52.18787194433424 0 0 -1 0 0 0 0 1 forward_v I I I I #
coedge $-1 $282 $280 $284 $403 reversed $181 $-1 #
edge $-1 $295 -8.6689452767045676 $405 8.6689452767045676 $294 $479 forward 7 unknown #
vertex $-1 $403 $480 #
straight-curve $-1 -52.18787194433424 -21.111664143306793 0 0 0 -1 I I #
edge $-1 $401 -21.111664143306793 $405 21.111664143306793 $399 $481 forward 7 unknown #
straight-curve $-1 0 -21.111664143306793 -8.6689452767045676 -1 0 0 I I #
vertex $-1 $287 $482 #
straight-curve $-1 0 21.111664143306793 -8.6689452767045676 1 0 0 I I #
point $-1 52.18787194433424 21.111664143306793 -8.6689452767045676 #
point $-1 52.18787194433424 -21.111664143306793 -8.6689452767045676 #
straight-curve $-1 -52.18787194433424 0 8.6689452767045676 0 -1 0 I I #
point $-1 -52.18787194433424 21.111664143306793 8.6689452767045676 #
point $-1 -52.18787194433424 -21.111664143306793 8.6689452767045676 #
straight-curve $-1 52.18787194433424 -21.111664143306793 0 0 0 -1 I I #
straight-curve $-1 52.18787194433424 21.111664143306793 0 0 0 -1 I I #
plane-surface $-1 0 0 -8.6689452767045676 0 0 1 1 0 0 forward_v I I I I #
coedge $-1 $429 $306 $427 $483 reversed $200 $-1 #
coedge $-1 $306 $429 $310 $421 reversed $200 $-1 #
coedge $-1 $308 $307 $306 $418 reversed $121 $-1 #
edge $-1 $422 -8.6689452767045676 $484 8.6689452767045676 $417 $485 forward 7 unknown #
edge $-1 $484 -30.93252856099414 $318 -21.111664143306793 $307 $486 forward 7 unknown #
straight-curve $-1 -52.18787194433424 -21.111664143306793 0 0 0 -1 I I #
edge $-1 $422 -2.5424267468673705 $424 2.5424267468673705 $416 $487 forward 7 unknown #
vertex $-1 $311 $488 #
straight-curve $-1 -52.18787194433424 0 8.6689452767045676 0 -1 0 I I #
vertex $-1 $312 $489 #
straight-curve $-1 -47.1030184505995 -26.022096352150466 8.6689452767045676 0 1 0 I I #
point $-1 -52.18787194433424 -21.111664143306793 8.6689452767045676 #
coedge $-1 $316 $315 $415 $483 forward $317 $-1 #
point $-1 -52.18787194433424 -21.111664143306793 -8.6689452767045676 #
coedge $-1 $416 $415 $320 $430 reversed $200 $-1 #
edge $-1 $424 -8.6689452767045676 $431 8.6689452767045676 $320 $490 forward 7 unknown #
vertex $-1 $430 $491 #
straight-curve $-1 -47.1030184505995 -26.022096352150466 -8.6689452767045676 0 -1 0 I I #
loop $-1 $-1 $337 $324 #
plane-surface $-1 -52.18787194433424 0 0 1 0 0 0 0 -1 forward_v I I I I #
coedge $-1 $328 $327 $443 $492 reversed $129 $-1 #
coedge $-1 $340 $339 $327 $437 forward $325 $-1 #
edge $-1 $493 -2.5424267468673705 $440 2.5424267468673705 $327 $494 forward 7 unknown #
edge $-1 $439 -2.5424267468673705 $444 2.5424267468673705 $328 $495 forward 7 unknown #
vertex $-1 $332 $496 #
vertex $-1 $343 $497 #
straight-curve $-1 -47.1030184505995 30.93252856099414 0 0 0 -1 I I #
straight-curve $-1 -47.1030184505995 26.022096352150466 8.6689452767045676 0 1 0 I I #
coedge $-1 $447 $333 $435 $492 forward $433 $-1 #
vertex $-1 $438 $498 #
straight-curve $-1 -52.18787194433424 0 8.6689452767045676 0 -1 0 I I #
point $-1 -52.18787194433424 21.111664143306793 8.6689452767045676 #
coedge $-1 $337 $443 $339 $449 reversed $433 $-1 #
straight-curve $-1 -52.18787194433424 21.111664143306793 0 0 0 1 I I #
edge $-1 $341 -4.9104322088436732 $493 4.9104322088436732 $447 $499 forward 7 unknown #
point $-1 -52.18787194433424 21.111664143306793 -8.6689452767045676 #
straight-curve $-1 -47.1030184505995 26.022096352150466 -8.6689452767045676 0 -1 0 I I #
coedge $-1 $357 $356 $349 $453 forward $346 $-1 #
edge $-1 $454 65.208283249475301 $457 73.17066483374353 $452 $500 forward 7 unknown #
vertex $-1 $361 $501 #
straight-curve $-1 32.5264487594538 0.59194942727348021 8.6689452767045623 1 0 0 I I #
edge $-1 $457 -1.3765619597924523 $358 5.3135847339243174 $357 $502 forward 7 unknown #
vertex $-1 $456 $503 #
straight-curve $-1 -14.90356194834078 0.59194942727348021 80.663023159684712 -0.64278759981090561 0 0.7660444514056185 I I #
point $-1 45.506640668604639 0.59194942727348021 8.6689452767045623 #
point $-1 52.187871944334233 7.2820961209902499 0.70656369243633321 #
straight-curve $-1 52.18787194433424 0 8.6689452767045676 0 1 0 I I #
vertex $-1 $364 $504 #
point $-1 48.402605654969292 2.5034199111925552 3.6619446590567466 #
vertex $-1 $368 $505 #
point $-1 48.402605654969292 5.3706256370711714 3.6619446590567466 #
edge $-1 $467 35.385814527912082 $470 43.482104118533336 $373 $506 forward 7 unknown #
vertex $-1 $387 $507 #
straight-curve $-1 -54.517488559822482 3.6376821035692313 8.6689452767045694 -1 0 0 I I #
edge $-1 $470 -3.4246002004210645 $384 2.998436394124731 $383 $508 forward 7 unknown #
vertex $-1 $469 $509 #
straight-curve $-1 -52.187871944334233 3.6376821035692313 0.57265568608332273 0.83867056331134215 0 0.54463904215088732 I I #
point $-1 -39.720679499072602 3.6376821035692313 8.6689452767045676 #
point $-1 -52.18787194433424 -2.7853544909765642 0.57265568608331807 #
straight-curve $-1 -52.18787194433424 0 8.6689452767045676 0 -1 0 I I #
vertex $-1 $390 $510 #
point $-1 -44.990301397896864 -0.95020117824919126 4.0544494391580459 #
vertex $-1 $394 $511 #
point $-1 -44.990301397896864 1.8025287908418655 4.0544494391580459 #
straight-curve $-1 -52.18787194433424 21.111664143306793 0 0 0 -1 I I #
point $-1 -52.18787194433424 -21.111664143306793 -8.6689452767045676 #
straight-curve $-1 -52.18787194433424 0 -8.6689452767045676 0 1 0 I I #
point $-1 -52.18787194433424 21.111664143306793 -8.6689452767045676 #
edge $-1 $431 -2.5424267468673705 $484 2.5424267468673705 $415 $512 forward 7 unknown #
vertex $-1 $419 $513 #
straight-curve $-1 -52.18787194433424 -30.93252856099414 0 0 0 -1 I I #
straight-curve $-1 -52.18787194433424 0 -8.6689452767045676 0 1 0 I I #
straight-curve $-1 -49.64544519746687 -30.93252856099414 8.6689452767045676 1 0 0 I I #
point $-1 -52.18787194433424 -30.93252856099414 8.6689452767045676 #
point $-1 -47.1030184505995 -30.93252856099414 8.6689452767045676 #
straight-curve $-1 -47.1030184505995 -30.93252856099414 0 0 0 -1 I I #
point $-1 -47.1030184505995 -30.93252856099414 -8.6689452767045676 #
edge $-1 $444 -8.6689452767045676 $493 8.6689452767045676 $435 $514 forward 7 unknown #
vertex $-1 $437 $515 #
straight-curve $-1 -49.64544519746687 30.93252856099414 -8.6689452767045676 1 0 0 I I #
straight-curve $-1 -49.64544519746687 30.93252856099414 8.6689452767045676 -1 0 0 I I #
point $-1 -47.1030184505995 30.93252856099414 8.6689452767045676 #
point $-1 -47.1030184505995 30.93252856099414 -8.6689452767045676 #
point $-1 -52.18787194433424 30.93252856099414 8.6689452767045676 #
straight-curve $-1 -52.18787194433424 26.022096352150466 -8.6689452767045676 0 1 0 I I #
straight-curve $-1 52.18787194433424 0.59194942727348021 73.877228526179863 0 0 -1 I I #
point $-1 52.18787194433424 0.59194942727348021 8.6689452767045676 #
straight-curve $-1 52.187871944334233 1.9685113870659325 0.70656369243632611 0 1 0 I I #
point $-1 52.187871944334233 0.59194942727348021 0.70656369243633321 #
point $-1 47.698189629361032 2.5034199111925552 3.7235730848541033 #
point $-1 47.698189629361032 5.3706256370711714 3.7235730848541033 #
straight-curve $-1 -52.18787194433424 3.6376821035692313 44.054759804616651 0 0 -1 I I #
point $-1 -52.18787194433424 3.6376821035692313 8.6689452767045676 #
straight-curve $-1 -52.18787194433424 0.21308190314816677 0.57265568608331774 0 -1 0 I I #
point $-1 -52.18787194433424 3.6376821035692313 0.57265568608331807 #
point $-1 -45.137317158477089 -0.95020117824919126 3.3627946364269308 #
point $-1 -45.137317158477089 1.8025287908418655 3.3627946364269308 #
straight-curve $-1 -49.64544519746687 -30.93252856099414 -8.6689452767045676 -1 0 0 I I #
point $-1 -52.18787194433424 -30.93252856099414 -8.6689452767045676 #
straight-curve $-1 -52.18787194433424 30.93252856099414 0 0 0 -1 I I #
point $-1 -52.18787194433424 30.93252856099414 -8.6689452767045676 #
End-of-ACIS-data 