500 0 7 0           
7 Unknown 11 ACIS 5.0 NT 24 Fri Mar 26 15:40:59 1999 
-1 9.9999999999999995e-007 1e-010 
body $-1 $7 $-1 $8 #
body $-1 $9 $-1 $10 #
body $-1 $11 $-1 $12 #
body $-1 $13 $-1 $14 #
body $-1 $15 $-1 $16 #
body $-1 $17 $-1 $18 #
body $-1 $19 $-1 $20 #
lump $-1 $-1 $21 $0 #
transform $-1 1 0 0 0 1 0 0 0 1 66.245918149357578 39.4808851404187 15.36557926699739 1 rotate no_reflect no_shear #
lump $-1 $-1 $22 $1 #
transform $-1 1 0 0 0 1 0 0 0 1 66.245918149357578 39.4808851404187 15.36557926699739 1 rotate no_reflect no_shear #
lump $-1 $-1 $23 $2 #
transform $-1 1 0 0 0 1 0 0 0 1 66.245918149357578 39.4808851404187 15.36557926699739 1 rotate no_reflect no_shear #
lump $-1 $-1 $24 $3 #
transform $-1 1 0 0 0 1 0 0 0 1 66.245918149357578 39.4808851404187 15.36557926699739 1 rotate no_reflect no_shear #
lump $-1 $-1 $25 $4 #
transform $-1 1 0 0 0 1 0 0 0 1 66.245918149357578 39.4808851404187 15.36557926699739 1 rotate no_reflect no_shear #
lump $-1 $-1 $26 $5 #
transform $-1 1 0 0 0 1 0 0 0 1 66.245918149357578 39.4808851404187 15.36557926699739 1 rotate no_reflect no_shear #
lump $-1 $-1 $27 $6 #
transform $-1 1 0 0 0 1 0 0 0 1 66.245918149357578 39.4808851404187 15.36557926699739 1 rotate no_reflect no_shear #
shell $-1 $-1 $-1 $28 $-1 $7 #
shell $-1 $-1 $-1 $29 $-1 $9 #
shell $-1 $-1 $-1 $30 $-1 $11 #
shell $-1 $-1 $-1 $31 $-1 $13 #
shell $-1 $-1 $-1 $32 $-1 $15 #
shell $-1 $-1 $-1 $33 $-1 $17 #
shell $-1 $-1 $-1 $34 $-1 $19 #
face $-1 $35 $36 $21 $-1 $37 forward single #
face $-1 $38 $39 $22 $-1 $40 forward single #
face $-1 $41 $42 $23 $-1 $43 reversed single #
face $-1 $44 $45 $24 $-1 $46 forward single #
face $-1 $47 $48 $25 $-1 $49 reversed single #
face $-1 $50 $51 $26 $-1 $52 forward single #
face $-1 $53 $54 $27 $-1 $55 forward single #
face $-1 $56 $57 $21 $-1 $58 reversed single #
loop $-1 $-1 $59 $28 #
plane-surface $-1 0 0 15.36557926699739 0 0 1 1 0 0 forward_v I I I I #
face $-1 $60 $61 $22 $-1 $62 reversed single #
loop $-1 $-1 $63 $29 #
plane-surface $-1 -58.77698612945531 0 -8.6360867339924532 0 0 1 1 0 0 forward_v I I I I #
face $-1 $64 $65 $23 $-1 $66 reversed single #
loop $-1 $-1 $67 $30 #
plane-surface $-1 43.500506055082326 92.7541303981873 152.13069714130631 1 0 0 0 -0.77714596973225614 -0.62932038083071107 forward_v I I I I #
face $-1 $68 $69 $24 $-1 $70 forward single #
loop $-1 $71 $72 $31 #
cone-surface $-1 49.875442149490453 34.228519213100725 9.7388236118034381 0 -0.77714596973225614 -0.62932038083071107 2 0 0 1 I I 0 1 2 forward I I I I #
face $-1 $73 $74 $25 $-1 $75 reversed single #
loop $-1 $-1 $76 $32 #
plane-surface $-1 59.671513050841796 -39.480885140418678 6.0335362200004141 0 -0.61566148304635926 0.78801074757464917 1 0 0 forward_v I I I I #
face $-1 $77 $78 $26 $-1 $79 forward single #
loop $-1 $80 $81 $33 #
cone-surface $-1 56.853910865763609 -33.054067277354541 10.117718331077237 0 0.61566148304635926 -0.78801074757464917 1 0 0 1 I I 0 1 1 forward I I I I #
face $-1 $82 $83 $27 $-1 $84 forward single #
loop $-1 $85 $86 $34 #
cone-surface $-1 62.489115235919996 -33.054067277354541 10.117718331077237 0 0.61566148304635926 -0.78801074757464917 1 0 0 1 I I 0 1 1 forward I I I I #
face $-1 $87 $88 $21 $-1 $89 reversed single #
loop $-1 $-1 $90 $35 #
plane-surface $-1 0 0 -15.36557926699739 0 0 1 1 0 0 forward_v I I I I #
coedge $-1 $91 $92 $93 $94 forward $36 $-1 #
face $-1 $95 $96 $22 $-1 $97 reversed single #
loop $-1 $-1 $98 $38 #
plane-surface $-1 -51.308054109553041 0 -12.000833000494922 -1 0 0 0 0 1 forward_v I I I I #
coedge $-1 $99 $100 $101 $102 forward $39 $-1 #
face $-1 $103 $104 $23 $-1 $105 reversed single #
loop $-1 $-1 $106 $41 #
plane-surface $-1 49.875442149490453 -10.211366203785019 68.75088426483866 0 0.77714596973225614 0.62932038083071107 1 0 0 forward_v I I I I #
coedge $-1 $107 $108 $109 $110 reversed $42 $-1 #
face $-1 $-1 $111 $24 $-1 $112 forward single #
loop $-1 $113 $114 $44 #
cone-surface $-1 49.875442149490453 31.42984977206627 7.4725058451966468 0 -0.77714596973225614 -0.62932038083071107 1 0 0 1 I I -0.70710678118654746 0.70710678118654746 1 forward I I I I #
loop $-1 $-1 $115 $31 #
coedge $-1 $72 $72 $116 $117 reversed $45 $-1 #
face $-1 $118 $119 $25 $-1 $120 reversed single #
loop $-1 $-1 $121 $47 #
plane-surface $-1 53.097107952326013 -121.0510055676211 110.43852718928899 1 0 0 0 0.61566148304635926 -0.78801074757464917 forward_v I I I I #
coedge $-1 $122 $123 $124 $125 reversed $48 $-1 #
face $-1 $-1 $126 $26 $-1 $127 forward single #
loop $-1 $128 $129 $50 #
cone-surface $-1 56.853910865763609 -32.291653756790751 9.1418735448682362 0 0.61566148304635926 -0.78801074757464917 0.5 0 0 1 I I -0.70710678118654746 0.70710678118654746 0.5 forward I I I I #
loop $-1 $-1 $130 $33 #
coedge $-1 $81 $81 $131 $132 reversed $51 $-1 #
face $-1 $-1 $133 $27 $-1 $134 forward single #
loop $-1 $135 $136 $53 #
cone-surface $-1 62.489115235919996 -32.291653756790751 9.1418735448682362 0 0.61566148304635926 -0.78801074757464917 0.5 0 0 1 I I -0.70710678118654746 0.70710678118654746 0.5 forward I I I I #
loop $-1 $-1 $137 $34 #
coedge $-1 $86 $86 $138 $139 reversed $54 $-1 #
face $-1 $140 $141 $21 $-1 $142 reversed single #
loop $-1 $-1 $143 $56 #
plane-surface $-1 0 -39.4808851404187 0 0 1 0 0 0 1 forward_v I I I I #
coedge $-1 $144 $145 $146 $147 forward $57 $-1 #
coedge $-1 $148 $59 $149 $150 forward $36 $-1 #
coedge $-1 $59 $148 $151 $152 forward $36 $-1 #
coedge $-1 $153 $154 $59 $94 reversed $155 $-1 #
edge $-1 $156 -39.4808851404187 $157 39.4808851404187 $93 $158 forward 7 unknown #
face $-1 $159 $160 $22 $-1 $161 reversed single #
loop $-1 $-1 $162 $60 #
plane-surface $-1 0 0 -15.36557926699739 0 0 1 1 0 0 forward_v I I I I #
coedge $-1 $163 $101 $164 $165 reversed $61 $-1 #
coedge $-1 $166 $63 $167 $168 reversed $39 $-1 #
coedge $-1 $63 $166 $169 $170 reversed $39 $-1 #
coedge $-1 $98 $171 $63 $102 reversed $61 $-1 #
edge $-1 $172 -39.4808851404187 $173 39.4808851404187 $101 $174 forward 7 unknown #
face $-1 $175 $176 $23 $-1 $177 reversed single #
loop $-1 $-1 $178 $64 #
plane-surface $-1 56.250378243898581 92.7541303981873 152.13069714130631 -1 0 0 0 0.77714596973225614 0.62932038083071107 forward_v I I I I #
coedge $-1 $179 $180 $181 $182 reversed $65 $-1 #
coedge $-1 $108 $67 $183 $184 reversed $42 $-1 #
coedge $-1 $67 $107 $179 $185 reversed $42 $-1 #
coedge $-1 $181 $186 $67 $110 forward $187 $-1 #
edge $-1 $188 6.8961800586749504 $189 13.357864970706537 $109 $190 forward 7 unknown #
loop $-1 $-1 $116 $68 #
plane-surface $-1 49.875442149490453 -10.211366203785019 68.75088426483866 0 0.77714596973225614 0.62932038083071107 1 0 0 forward_v I I I I #
loop $-1 $-1 $191 $44 #
coedge $-1 $114 $114 $115 $192 reversed $69 $-1 #
coedge $-1 $115 $115 $114 $192 forward $71 $-1 #
coedge $-1 $116 $116 $72 $117 forward $111 $-1 #
edge $-1 $193 -3.601197042614006e-016 $193 6.2831853071796004 $116 $194 forward 7 unknown #
face $-1 $195 $196 $25 $-1 $197 forward single #
loop $-1 $-1 $198 $73 #
plane-surface $-1 66.245918149357578 0 0 -1 0 0 0 0 1 forward_v I I I I #
coedge $-1 $199 $200 $201 $202 reversed $74 $-1 #
coedge $-1 $203 $76 $198 $204 reversed $48 $-1 #
coedge $-1 $76 $203 $199 $205 forward $48 $-1 #
coedge $-1 $201 $206 $76 $125 forward $196 $-1 #
edge $-1 $207 -36.410161623936681 $208 -23.261351426905115 $124 $209 forward 7 unknown #
loop $-1 $-1 $131 $77 #
plane-surface $-1 59.671513050841796 -39.480885140418678 6.0335362200004141 0 -0.61566148304635926 0.78801074757464917 1 0 0 forward_v I I I I #
loop $-1 $-1 $210 $50 #
coedge $-1 $129 $129 $130 $211 reversed $78 $-1 #
coedge $-1 $130 $130 $129 $211 forward $80 $-1 #
coedge $-1 $131 $131 $81 $132 forward $126 $-1 #
edge $-1 $212 5.2062110446694654e-015 $212 6.2831853071796058 $131 $213 forward 7 unknown #
loop $-1 $-1 $138 $82 #
plane-surface $-1 59.671513050841796 -39.480885140418678 6.0335362200004141 0 -0.61566148304635926 0.78801074757464917 1 0 0 forward_v I I I I #
loop $-1 $-1 $214 $53 #
coedge $-1 $136 $136 $137 $215 reversed $83 $-1 #
coedge $-1 $137 $137 $136 $215 forward $85 $-1 #
coedge $-1 $138 $138 $86 $139 forward $133 $-1 #
edge $-1 $216 5.2062110446694654e-015 $216 6.2831853071796058 $138 $217 forward 7 unknown #
face $-1 $218 $219 $21 $-1 $220 reversed single #
loop $-1 $-1 $221 $87 #
plane-surface $-1 -66.245918149357578 0 0 1 0 0 0 0 -1 forward_v I I I I #
coedge $-1 $222 $151 $223 $224 forward $88 $-1 #
coedge $-1 $225 $90 $222 $226 forward $57 $-1 #
coedge $-1 $90 $225 $227 $228 forward $57 $-1 #
coedge $-1 $154 $153 $90 $147 reversed $155 $-1 #
edge $-1 $229 -39.4808851404187 $230 39.4808851404187 $146 $231 forward 7 unknown #
coedge $-1 $92 $91 $232 $233 forward $36 $-1 #
coedge $-1 $234 $235 $91 $150 reversed $219 $-1 #
edge $-1 $157 -66.245918149357578 $236 66.245918149357578 $149 $237 forward 7 unknown #
coedge $-1 $143 $238 $92 $152 reversed $88 $-1 #
edge $-1 $239 -66.245918149357578 $156 66.245918149357578 $151 $240 forward 7 unknown #
coedge $-1 $146 $93 $238 $241 forward $155 $-1 #
coedge $-1 $93 $146 $234 $242 reversed $155 $-1 #
loop $-1 $-1 $153 $218 #
vertex $-1 $94 $243 #
vertex $-1 $94 $244 #
straight-curve $-1 66.245918149357578 0 15.36557926699739 0 1 0 I I #
face $-1 $245 $246 $22 $-1 $247 reversed single #
loop $-1 $-1 $164 $95 #
plane-surface $-1 0 -39.4808851404187 0 0 1 0 0 0 1 forward_v I I I I #
coedge $-1 $248 $249 $163 $250 forward $96 $-1 #
coedge $-1 $171 $98 $162 $250 reversed $61 $-1 #
coedge $-1 $169 $251 $98 $165 forward $160 $-1 #
edge $-1 $252 -9.3651627667499291 $172 -2.6356702337449924 $164 $253 forward 7 unknown #
coedge $-1 $100 $99 $254 $255 reversed $39 $-1 #
coedge $-1 $256 $257 $99 $168 forward $258 $-1 #
edge $-1 $259 -36.857425084629924 $173 -21.919561044825386 $167 $260 forward 7 unknown #
coedge $-1 $261 $164 $100 $170 forward $160 $-1 #
edge $-1 $172 21.919561044825386 $262 36.857425084629924 $169 $263 forward 7 unknown #
coedge $-1 $101 $163 $256 $264 reversed $61 $-1 #
vertex $-1 $170 $265 #
vertex $-1 $168 $266 #
straight-curve $-1 -51.308054109553041 0 -8.6360867339924532 0 1 0 I I #
face $-1 $-1 $187 $23 $-1 $267 forward single #
loop $-1 $-1 $268 $103 #
plane-surface $-1 0 39.4808851404187 0 0 -1 0 0 0 -1 forward_v I I I I #
coedge $-1 $269 $270 $271 $272 reversed $104 $-1 #
coedge $-1 $273 $106 $108 $185 forward $65 $-1 #
coedge $-1 $106 $273 $269 $274 forward $65 $-1 #
coedge $-1 $271 $109 $106 $182 forward $187 $-1 #
edge $-1 $189 18.562784980337099 $275 31.312657169153354 $181 $276 forward 7 unknown #
coedge $-1 $277 $278 $107 $184 forward $176 $-1 #
edge $-1 $279 -68.67928584249151 $188 -60.699769303655771 $183 $280 forward 7 unknown #
edge $-1 $189 68.69405115262154 $279 78.961770280837399 $108 $281 forward 7 unknown #
coedge $-1 $109 $271 $277 $282 forward $187 $-1 #
loop $-1 $-1 $271 $175 #
vertex $-1 $184 $283 #
vertex $-1 $110 $284 #
straight-curve $-1 43.500506055082326 46.37706519909365 15.365579266997386 0 -1 0 I I #
coedge $-1 $191 $191 $-1 $285 reversed $113 $-1 #
edge $-1 $286 0 $286 6.2831853071796004 $114 $287 forward 7 unknown #
vertex $-1 $117 $288 #
ellipse-curve $-1 49.875442149490453 36.250042684402906 11.375820997579508 0 0.77714596973225614 0.62932038083071107 2 0 0 1 I I #
face $-1 $-1 $289 $25 $-1 $290 reversed single #
loop $-1 $-1 $124 $118 #
plane-surface $-1 0 0 15.36557926699739 0 0 1 1 0 0 forward_v I I I I #
coedge $-1 $291 $292 $122 $204 forward $119 $-1 #
coedge $-1 $200 $121 $123 $205 reversed $74 $-1 #
coedge $-1 $121 $199 $293 $294 reversed $74 $-1 #
coedge $-1 $295 $124 $121 $202 forward $196 $-1 #
edge $-1 $208 -32.989087811439006 $296 -21.044617643391852 $201 $297 forward 7 unknown #
coedge $-1 $123 $122 $298 $299 reversed $48 $-1 #
edge $-1 $300 -13.698372978595428 $207 1.4593773500771392 $198 $301 forward 7 unknown #
edge $-1 $302 -2.7186986990266253e-014 $208 15.15775032867254 $199 $303 forward 7 unknown #
coedge $-1 $124 $295 $291 $304 forward $196 $-1 #
vertex $-1 $125 $305 #
vertex $-1 $125 $306 #
straight-curve $-1 29.835756525420898 -27.536414972371546 15.36557926699739 -1 0 0 I I #
coedge $-1 $210 $210 $-1 $307 reversed $128 $-1 #
edge $-1 $308 0 $308 6.2831853071796004 $129 $309 forward 7 unknown #
vertex $-1 $132 $310 #
ellipse-curve $-1 56.853910865763609 -33.508650056395133 10.699557743498888 0 -0.61566148304635926 0.78801074757464917 1 0 0 1 I I #
coedge $-1 $214 $214 $-1 $311 reversed $135 $-1 #
edge $-1 $312 0 $312 6.2831853071796004 $136 $313 forward 7 unknown #
vertex $-1 $139 $314 #
ellipse-curve $-1 62.489115235919996 -33.508650056395133 10.699557743498888 0 -0.61566148304635926 0.78801074757464917 1 0 0 1 I I #
face $-1 $-1 $155 $21 $-1 $315 reversed single #
loop $-1 $-1 $234 $140 #
plane-surface $-1 0 39.4808851404187 0 0 -1 0 0 0 -1 forward_v I I I I #
coedge $-1 $316 $232 $235 $317 forward $141 $-1 #
coedge $-1 $238 $143 $144 $226 reversed $88 $-1 #
coedge $-1 $232 $316 $143 $224 reversed $141 $-1 #
edge $-1 $239 -15.36557926699739 $318 15.36557926699739 $223 $319 forward 7 unknown #
coedge $-1 $145 $144 $316 $320 forward $57 $-1 #
edge $-1 $230 -66.245918149357578 $318 66.245918149357578 $222 $321 forward 7 unknown #
coedge $-1 $235 $234 $145 $228 reversed $219 $-1 #
edge $-1 $322 -66.245918149357578 $229 66.245918149357578 $227 $323 forward 7 unknown #
vertex $-1 $147 $324 #
vertex $-1 $241 $325 #
straight-curve $-1 66.245918149357578 0 -15.36557926699739 0 -1 0 I I #
coedge $-1 $221 $223 $148 $233 reversed $141 $-1 #
edge $-1 $236 -39.4808851404187 $239 39.4808851404187 $232 $326 forward 7 unknown #
coedge $-1 $227 $149 $154 $242 forward $219 $-1 #
coedge $-1 $149 $227 $221 $317 reversed $219 $-1 #
vertex $-1 $150 $327 #
straight-curve $-1 0 39.4808851404187 15.36557926699739 -1 0 0 I I #
coedge $-1 $151 $222 $153 $241 reversed $88 $-1 #
vertex $-1 $233 $328 #
straight-curve $-1 0 -39.4808851404187 15.36557926699739 1 0 0 I I #
edge $-1 $156 -15.36557926699739 $230 15.36557926699739 $153 $329 forward 7 unknown #
edge $-1 $157 -15.36557926699739 $229 15.36557926699739 $154 $330 forward 7 unknown #
point $-1 66.245918149357578 -39.4808851404187 15.36557926699739 #
point $-1 66.245918149357578 39.4808851404187 15.36557926699739 #
face $-1 $-1 $258 $22 $-1 $331 reversed single #
loop $-1 $-1 $254 $159 #
plane-surface $-1 -66.245918149357578 0 0 1 0 0 0 0 -1 forward_v I I I I #
coedge $-1 $332 $162 $251 $333 forward $96 $-1 #
coedge $-1 $162 $332 $334 $335 forward $96 $-1 #
edge $-1 $336 -39.4808851404187 $252 39.4808851404187 $162 $337 forward 7 unknown #
coedge $-1 $164 $261 $248 $333 reversed $160 $-1 #
vertex $-1 $333 $338 #
straight-curve $-1 -51.308054109553041 -39.4808851404187 -6.0004165002474608 0 0 1 I I #
coedge $-1 $339 $340 $166 $255 forward $246 $-1 #
edge $-1 $262 -39.4808851404187 $259 39.4808851404187 $254 $341 forward 7 unknown #
coedge $-1 $334 $167 $171 $264 forward $258 $-1 #
coedge $-1 $167 $334 $339 $342 reversed $258 $-1 #
loop $-1 $-1 $256 $245 #
vertex $-1 $342 $343 #
straight-curve $-1 -29.388493064727655 39.4808851404187 -8.6360867339924532 1 0 0 I I #
coedge $-1 $251 $169 $340 $344 forward $160 $-1 #
vertex $-1 $344 $345 #
straight-curve $-1 -29.388493064727655 -39.4808851404187 -8.6360867339924532 -1 0 0 I I #
edge $-1 $173 2.6356702337449924 $336 9.3651627667499291 $256 $346 forward 7 unknown #
point $-1 -51.308054109553041 -39.4808851404187 -8.6360867339924532 #
point $-1 -51.308054109553041 39.4808851404187 -8.6360867339924532 #
plane-surface $-1 0 0 15.36557926699739 0 0 1 1 0 0 forward_v I I I I #
coedge $-1 $278 $277 $270 $347 forward $176 $-1 #
coedge $-1 $270 $178 $180 $274 reversed $104 $-1 #
coedge $-1 $178 $269 $268 $347 reversed $104 $-1 #
coedge $-1 $186 $181 $178 $272 forward $187 $-1 #
edge $-1 $275 -13.357864970706537 $348 -6.8961800586749504 $271 $349 forward 7 unknown #
coedge $-1 $180 $179 $278 $350 reversed $65 $-1 #
edge $-1 $351 -78.961770280837399 $275 -68.69405115262154 $269 $352 forward 7 unknown #
vertex $-1 $182 $353 #
straight-curve $-1 24.937721074745227 33.019200228387113 15.365579266997386 1 0 0 I I #
coedge $-1 $268 $183 $186 $282 reversed $176 $-1 #
coedge $-1 $183 $268 $273 $350 forward $176 $-1 #
vertex $-1 $184 $354 #
straight-curve $-1 43.500506055082326 39.4808851404187 76.065348570653157 0 0 1 I I #
straight-curve $-1 43.500506055082326 -10.211366203785019 68.75088426483866 0 0.62932038083071107 -0.77714596973225614 I I #
edge $-1 $348 -56.250378243898581 $188 -43.500506055082326 $277 $355 forward 7 unknown #
point $-1 43.500506055082326 39.4808851404187 15.36557926699739 #
point $-1 43.500506055082326 33.019200228387113 15.365579266997386 #
edge $-1 $356 1 $356 0 $191 $-1 forward 7 unknown #
vertex $-1 $192 $357 #
ellipse-curve $-1 49.875442149490453 32.206995741798522 8.1018262260273577 0 0.77714596973225614 0.62932038083071107 2 0 0 1 I I #
point $-1 51.875442149490453 36.250042684402921 11.37582099757952 #
loop $-1 $-1 $298 $195 #
plane-surface $-1 0 -39.4808851404187 0 0 1 0 0 0 1 forward_v I I I I #
coedge $-1 $292 $198 $206 $304 reversed $119 $-1 #
coedge $-1 $198 $291 $358 $359 forward $119 $-1 #
coedge $-1 $298 $360 $200 $294 forward $289 $-1 #
edge $-1 $296 39.853684327647102 $302 49.185727374644095 $293 $361 forward 7 unknown #
coedge $-1 $206 $201 $360 $362 forward $196 $-1 #
vertex $-1 $362 $363 #
straight-curve $-1 53.097107952326013 -60.525502783810552 15.365579266997386 0 -1 0 I I #
coedge $-1 $358 $293 $203 $299 forward $289 $-1 #
edge $-1 $302 23.261351426905115 $300 36.410161623936681 $298 $364 forward 7 unknown #
vertex $-1 $299 $365 #
straight-curve $-1 66.245918149357578 -28.686420008999342 14.467096843324631 0 0.78801074757464917 0.61566148304635926 I I #
vertex $-1 $299 $366 #
straight-curve $-1 53.097107952326013 -39.480885140418678 6.0335362200004141 0 0.78801074757464917 0.61566148304635926 I I #
edge $-1 $367 -39.4808851404187 $207 -27.536414972371546 $291 $368 forward 7 unknown #
point $-1 66.245918149357578 -27.536414972371546 15.36557926699739 #
point $-1 53.097107952326013 -27.536414972371546 15.36557926699739 #
edge $-1 $369 1 $369 0 $210 $-1 forward 7 unknown #
vertex $-1 $211 $370 #
ellipse-curve $-1 56.853910865763609 -32.599484498313927 9.5358789186555608 0 -0.61566148304635926 0.78801074757464917 1 0 0 1 I I #
point $-1 57.853910865763609 -33.508650056395147 10.699557743498914 #
edge $-1 $371 1 $371 0 $214 $-1 forward 7 unknown #
vertex $-1 $215 $372 #
ellipse-curve $-1 62.489115235919996 -32.599484498313927 9.5358789186555608 0 -0.61566148304635926 0.78801074757464917 1 0 0 1 I I #
point $-1 63.489115235919996 -33.508650056395147 10.699557743498914 #
plane-surface $-1 66.245918149357578 0 0 -1 0 0 0 0 1 forward_v I I I I #
coedge $-1 $223 $221 $225 $320 reversed $141 $-1 #
edge $-1 $236 -15.36557926699739 $322 15.36557926699739 $235 $373 forward 7 unknown #
vertex $-1 $320 $374 #
straight-curve $-1 -66.245918149357578 -39.4808851404187 0 0 0 -1 I I #
edge $-1 $318 -39.4808851404187 $322 39.4808851404187 $316 $375 forward 7 unknown #
straight-curve $-1 0 -39.4808851404187 -15.36557926699739 -1 0 0 I I #
vertex $-1 $228 $376 #
straight-curve $-1 0 39.4808851404187 -15.36557926699739 1 0 0 I I #
point $-1 66.245918149357578 39.4808851404187 -15.36557926699739 #
point $-1 66.245918149357578 -39.4808851404187 -15.36557926699739 #
straight-curve $-1 -66.245918149357578 0 15.36557926699739 0 -1 0 I I #
point $-1 -66.245918149357578 39.4808851404187 15.36557926699739 #
point $-1 -66.245918149357578 -39.4808851404187 15.36557926699739 #
straight-curve $-1 66.245918149357578 -39.4808851404187 0 0 0 -1 I I #
straight-curve $-1 66.245918149357578 39.4808851404187 0 0 0 -1 I I #
plane-surface $-1 0 39.4808851404187 0 0 -1 0 0 0 -1 forward_v I I I I #
coedge $-1 $249 $248 $377 $378 forward $96 $-1 #
edge $-1 $252 51.308054109553041 $379 66.245918149357578 $251 $380 forward 7 unknown #
coedge $-1 $257 $256 $249 $335 reversed $258 $-1 #
edge $-1 $381 -66.245918149357578 $336 -51.308054109553041 $334 $382 forward 7 unknown #
vertex $-1 $264 $383 #
straight-curve $-1 -51.308054109553041 0 -15.36557926699739 0 -1 0 I I #
point $-1 -51.308054109553041 -39.4808851404187 -15.36557926699739 #
coedge $-1 $377 $254 $257 $342 forward $246 $-1 #
coedge $-1 $254 $377 $261 $344 reversed $246 $-1 #
straight-curve $-1 -66.245918149357578 0 -8.6360867339924532 0 1 0 I I #
edge $-1 $259 8.6360867339924532 $381 15.36557926699739 $257 $384 forward 7 unknown #
point $-1 -66.245918149357578 39.4808851404187 -8.6360867339924532 #
edge $-1 $262 8.6360867339924532 $379 15.36557926699739 $340 $385 forward 7 unknown #
point $-1 -66.245918149357578 -39.4808851404187 -8.6360867339924532 #
straight-curve $-1 -51.308054109553041 39.4808851404187 -6.0004165002474608 0 0 -1 I I #
edge $-1 $348 60.699769303655771 $351 68.67928584249151 $268 $386 forward 7 unknown #
vertex $-1 $282 $387 #
straight-curve $-1 56.250378243898581 46.37706519909365 15.365579266997386 0 1 0 I I #
edge $-1 $351 -31.312657169153354 $279 -18.562784980337099 $278 $388 forward 7 unknown #
vertex $-1 $350 $389 #
straight-curve $-1 56.250378243898581 -10.211366203785019 68.75088426483866 0 -0.62932038083071107 0.77714596973225614 I I #
point $-1 56.250378243898581 33.019200228387113 15.365579266997386 #
point $-1 43.500506055082326 39.4808851404187 7.3860627281616402 #
straight-curve $-1 0 39.4808851404187 15.36557926699739 -1 0 0 I I #
vertex $-1 $285 $390 #
point $-1 51.875442149490453 32.206995741798522 8.1018262260273577 #
coedge $-1 $360 $298 $292 $359 reversed $289 $-1 #
edge $-1 $367 -15.36557926699739 $300 -6.0335362200003972 $292 $391 forward 7 unknown #
coedge $-1 $293 $358 $295 $362 reversed $289 $-1 #
straight-curve $-1 53.097107952326013 -39.4808851404187 55.219263594644495 0 0 -1 I I #
edge $-1 $296 53.097107952326013 $367 66.245918149357578 $360 $392 forward 7 unknown #
point $-1 53.097107952326013 -39.4808851404187 15.36557926699739 #
straight-curve $-1 29.835756525420898 -39.4808851404187 6.0335362200004017 1 0 0 I I #
point $-1 66.245918149357578 -39.4808851404187 6.0335362200003972 #
point $-1 53.097107952326013 -39.4808851404187 6.0335362200003972 #
vertex $-1 $304 $393 #
straight-curve $-1 66.245918149357578 0 15.36557926699739 0 1 0 I I #
vertex $-1 $307 $394 #
point $-1 57.853910865763609 -32.599484498313927 9.5358789186555608 #
vertex $-1 $311 $395 #
point $-1 63.489115235919996 -32.599484498313927 9.5358789186555608 #
straight-curve $-1 -66.245918149357578 39.4808851404187 0 0 0 -1 I I #
point $-1 -66.245918149357578 -39.4808851404187 -15.36557926699739 #
straight-curve $-1 -66.245918149357578 0 -15.36557926699739 0 1 0 I I #
point $-1 -66.245918149357578 39.4808851404187 -15.36557926699739 #
coedge $-1 $340 $339 $332 $378 reversed $246 $-1 #
edge $-1 $379 -39.4808851404187 $381 39.4808851404187 $377 $396 forward 7 unknown #
vertex $-1 $378 $397 #
straight-curve $-1 0 -39.4808851404187 -15.36557926699739 -1 0 0 I I #
vertex $-1 $335 $398 #
straight-curve $-1 0 39.4808851404187 -15.36557926699739 1 0 0 I I #
point $-1 -51.308054109553041 39.4808851404187 -15.36557926699739 #
straight-curve $-1 -66.245918149357578 39.4808851404187 0 0 0 -1 I I #
straight-curve $-1 -66.245918149357578 -39.4808851404187 0 0 0 -1 I I #
straight-curve $-1 56.250378243898581 39.4808851404187 76.065348570653157 0 0 -1 I I #
point $-1 56.250378243898581 39.4808851404187 15.36557926699739 #
straight-curve $-1 24.937721074745227 39.480885140418692 7.3860627281616331 -1 0 0 I I #
point $-1 56.250378243898581 39.4808851404187 7.3860627281616402 #
point $-1 49.875442149490453 30.652703802334013 6.843185464365936 #
straight-curve $-1 66.245918149357578 -39.4808851404187 0 0 0 -1 I I #
straight-curve $-1 0 -39.4808851404187 15.36557926699739 1 0 0 I I #
point $-1 66.245918149357578 -39.4808851404187 15.36557926699739 #
point $-1 56.853910865763609 -31.983823015267571 8.7478681710809116 #
point $-1 62.489115235919996 -31.983823015267571 8.7478681710809116 #
straight-curve $-1 -66.245918149357578 0 -15.36557926699739 0 1 0 I I #
point $-1 -66.245918149357578 -39.4808851404187 -15.36557926699739 #
point $-1 -66.245918149357578 39.4808851404187 -15.36557926699739 #
End-of-ACIS-data 