500 0 3 0           
7 Unknown 11 ACIS 5.0 NT 24 Thu Mar 25 23:27:03 1999 
-1 9.9999999999999995e-007 1e-010 
body $-1 $3 $-1 $4 #
body $-1 $5 $-1 $6 #
body $-1 $7 $-1 $8 #
lump $-1 $-1 $9 $0 #
transform $-1 1 0 0 0 1 0 0 0 1 70.318308053834642 41.792041582469921 13.155048533277725 1 rotate no_reflect no_shear #
lump $-1 $-1 $10 $1 #
transform $-1 1 0 0 0 1 0 0 0 1 70.318308053834642 41.792041582469921 13.155048533277725 1 rotate no_reflect no_shear #
lump $-1 $-1 $11 $2 #
transform $-1 1 0 0 0 1 0 0 0 1 70.318308053834642 41.792041582469921 13.155048533277725 1 rotate no_reflect no_shear #
shell $-1 $-1 $-1 $12 $-1 $3 #
shell $-1 $-1 $-1 $13 $-1 $5 #
shell $-1 $-1 $-1 $14 $-1 $7 #
face $-1 $15 $16 $9 $-1 $17 forward single #
face $-1 $18 $19 $10 $-1 $20 reversed single #
face $-1 $21 $22 $11 $-1 $23 forward single #
face $-1 $24 $25 $9 $-1 $26 reversed single #
loop $-1 $-1 $27 $12 #
plane-surface $-1 0 0 13.155048533277725 0 0 1 1 0 0 forward_v I I I I #
face $-1 $28 $29 $10 $-1 $30 reversed single #
loop $-1 $-1 $31 $13 #
plane-surface $-1 35.781387322417245 -7.8383187559656591 197.97791571259413 0 -1 0 -0.57357644374324357 0 -0.81915203911291934 forward_v I I I I #
face $-1 $32 $33 $11 $-1 $34 forward single #
loop $-1 $35 $36 $14 #
cone-surface $-1 59.271522131337164 -16.666468242381328 3.1202231003290724 -0.57357644374324357 0 -0.81915203911291934 2.4574561173387579 0 -1.7207293312297307 1 I I 0 1 3 forward I I I I #
face $-1 $37 $38 $9 $-1 $39 reversed single #
loop $-1 $-1 $40 $15 #
plane-surface $-1 0 0 -13.155048533277725 0 0 1 1 0 0 forward_v I I I I #
coedge $-1 $41 $42 $43 $44 forward $16 $-1 #
face $-1 $45 $46 $10 $-1 $47 reversed single #
loop $-1 $-1 $48 $18 #
plane-surface $-1 -44.884462804703475 -16.666468242381324 82.775144854055995 0.57357644374324357 0 0.81915203911291934 0.81915203911291934 0 -0.57357644374324357 forward_v I I I I #
coedge $-1 $49 $50 $51 $52 reversed $19 $-1 #
face $-1 $-1 $53 $11 $-1 $54 forward single #
loop $-1 $55 $56 $21 #
cone-surface $-1 55.251857032478128 -16.666468242381328 -2.6204534881177359 -0.57357644374324357 0 -0.81915203911291934 1.228728058669379 0 -0.86036466561486535 1 I I -0.70710678118654757 0.70710678118654757 1.5 forward I I I I #
loop $-1 $-1 $57 $14 #
coedge $-1 $36 $36 $58 $59 reversed $22 $-1 #
face $-1 $60 $61 $9 $-1 $62 reversed single #
loop $-1 $-1 $63 $24 #
plane-surface $-1 0 -41.792041582469921 0 0 1 0 0 0 1 forward_v I I I I #
coedge $-1 $64 $65 $66 $67 forward $25 $-1 #
coedge $-1 $68 $27 $69 $70 forward $16 $-1 #
coedge $-1 $27 $68 $71 $72 forward $16 $-1 #
coedge $-1 $73 $74 $27 $44 reversed $75 $-1 #
edge $-1 $76 -41.792041582469921 $77 41.792041582469921 $43 $78 forward 7 unknown #
face $-1 $79 $80 $10 $-1 $81 forward single #
loop $-1 $-1 $82 $28 #
plane-surface $-1 35.781387322417245 -25.494617728796989 197.97791571259413 0 1 0 0.57357644374324357 0 0.81915203911291934 forward_v I I I I #
coedge $-1 $83 $84 $85 $86 reversed $29 $-1 #
coedge $-1 $50 $31 $87 $88 reversed $19 $-1 #
coedge $-1 $31 $49 $83 $89 reversed $19 $-1 #
coedge $-1 $85 $90 $31 $52 forward $80 $-1 #
edge $-1 $91 -52.427614392626019 $92 -36.652643414119417 $51 $93 forward 7 unknown #
loop $-1 $-1 $58 $32 #
plane-surface $-1 -44.884462804703475 -16.666468242381324 82.775144854055995 0.57357644374324357 0 0.81915203911291934 0.81915203911291934 0 -0.57357644374324357 forward_v I I I I #
loop $-1 $-1 $94 $21 #
coedge $-1 $56 $56 $57 $95 reversed $33 $-1 #
coedge $-1 $57 $57 $56 $95 forward $35 $-1 #
coedge $-1 $58 $58 $36 $59 forward $53 $-1 #
edge $-1 $96 0 $96 6.2831853071796004 $58 $97 forward 7 unknown #
face $-1 $98 $99 $9 $-1 $100 reversed single #
loop $-1 $-1 $101 $37 #
plane-surface $-1 -70.318308053834642 0 0 1 0 0 0 0 -1 forward_v I I I I #
coedge $-1 $102 $71 $103 $104 forward $38 $-1 #
coedge $-1 $105 $40 $102 $106 forward $25 $-1 #
coedge $-1 $40 $105 $107 $108 forward $25 $-1 #
coedge $-1 $74 $73 $40 $67 reversed $75 $-1 #
edge $-1 $109 -41.792041582469921 $110 41.792041582469921 $66 $111 forward 7 unknown #
coedge $-1 $42 $41 $112 $113 forward $16 $-1 #
coedge $-1 $114 $115 $41 $70 reversed $99 $-1 #
edge $-1 $77 -70.318308053834642 $116 70.318308053834642 $69 $117 forward 7 unknown #
coedge $-1 $63 $118 $42 $72 reversed $38 $-1 #
edge $-1 $119 -70.318308053834642 $76 70.318308053834642 $71 $120 forward 7 unknown #
coedge $-1 $66 $43 $118 $121 forward $75 $-1 #
coedge $-1 $43 $66 $114 $122 reversed $75 $-1 #
loop $-1 $-1 $73 $98 #
vertex $-1 $44 $123 #
vertex $-1 $44 $124 #
straight-curve $-1 70.318308053834642 0 13.155048533277725 0 1 0 I I #
face $-1 $-1 $125 $10 $-1 $126 reversed single #
loop $-1 $-1 $51 $45 #
plane-surface $-1 0 0 13.155048533277725 0 0 1 1 0 0 forward_v I I I I #
coedge $-1 $127 $128 $129 $130 reversed $46 $-1 #
coedge $-1 $131 $48 $50 $89 forward $29 $-1 #
coedge $-1 $48 $131 $127 $132 forward $29 $-1 #
coedge $-1 $129 $51 $48 $86 forward $80 $-1 #
edge $-1 $92 -0.4949153652250029 $133 17.161383607606325 $85 $134 forward 7 unknown #
coedge $-1 $135 $136 $49 $88 forward $125 $-1 #
edge $-1 $137 -96.879663129361759 $91 -85.833909323019341 $87 $138 forward 7 unknown #
edge $-1 $92 121.37893227697317 $137 140.63661610766923 $50 $139 forward 7 unknown #
coedge $-1 $51 $129 $135 $140 forward $80 $-1 #
vertex $-1 $88 $141 #
vertex $-1 $52 $142 #
straight-curve $-1 17.890693661208623 -7.8383187559656591 13.155048533277721 -1 0 0 I I #
coedge $-1 $94 $94 $-1 $143 reversed $55 $-1 #
edge $-1 $144 0 $144 6.2831853071796004 $56 $145 forward 7 unknown #
vertex $-1 $59 $146 #
ellipse-curve $-1 62.430822564581341 -16.666468242381328 7.6321716301065017 0.57357644374324357 0 0.81915203911291934 2.4574561173387579 0 -1.7207293312297307 1 I I #
face $-1 $-1 $75 $9 $-1 $147 reversed single #
loop $-1 $-1 $114 $60 #
plane-surface $-1 0 41.792041582469921 0 0 -1 0 0 0 -1 forward_v I I I I #
coedge $-1 $148 $112 $115 $149 forward $61 $-1 #
coedge $-1 $118 $63 $64 $106 reversed $38 $-1 #
coedge $-1 $112 $148 $63 $104 reversed $61 $-1 #
edge $-1 $119 -13.155048533277725 $150 13.155048533277725 $103 $151 forward 7 unknown #
coedge $-1 $65 $64 $148 $152 forward $25 $-1 #
edge $-1 $110 -70.318308053834642 $150 70.318308053834642 $102 $153 forward 7 unknown #
coedge $-1 $115 $114 $65 $108 reversed $99 $-1 #
edge $-1 $154 -70.318308053834642 $109 70.318308053834642 $107 $155 forward 7 unknown #
vertex $-1 $67 $156 #
vertex $-1 $121 $157 #
straight-curve $-1 70.318308053834642 0 -13.155048533277725 0 -1 0 I I #
coedge $-1 $101 $103 $68 $113 reversed $61 $-1 #
edge $-1 $116 -41.792041582469921 $119 41.792041582469921 $112 $158 forward 7 unknown #
coedge $-1 $107 $69 $74 $122 forward $99 $-1 #
coedge $-1 $69 $107 $101 $149 reversed $99 $-1 #
vertex $-1 $70 $159 #
straight-curve $-1 0 41.792041582469921 13.155048533277725 -1 0 0 I I #
coedge $-1 $71 $102 $73 $121 reversed $38 $-1 #
vertex $-1 $113 $160 #
straight-curve $-1 0 -41.792041582469921 13.155048533277725 1 0 0 I I #
edge $-1 $76 -13.155048533277725 $110 13.155048533277725 $73 $161 forward 7 unknown #
edge $-1 $77 -13.155048533277725 $109 13.155048533277725 $74 $162 forward 7 unknown #
point $-1 70.318308053834642 -41.792041582469921 13.155048533277725 #
point $-1 70.318308053834642 41.792041582469921 13.155048533277725 #
loop $-1 $-1 $87 $79 #
plane-surface $-1 70.318308053834642 0 0 -1 0 0 0 0 1 forward_v I I I I #
coedge $-1 $128 $82 $84 $132 reversed $46 $-1 #
coedge $-1 $82 $127 $163 $164 reversed $46 $-1 #
coedge $-1 $90 $85 $82 $130 forward $80 $-1 #
edge $-1 $133 36.652643414119417 $165 52.427614392626019 $129 $166 forward 7 unknown #
coedge $-1 $84 $83 $136 $167 reversed $29 $-1 #
edge $-1 $168 -140.63661610766923 $133 -121.37893227697317 $127 $169 forward 7 unknown #
vertex $-1 $86 $170 #
straight-curve $-1 54.54333707532804 -8.333234121190662 13.155048533277721 0 -1 0 I I #
coedge $-1 $163 $87 $90 $140 reversed $125 $-1 #
coedge $-1 $87 $163 $131 $167 forward $125 $-1 #
vertex $-1 $88 $171 #
straight-curve $-1 70.318308053834642 -7.8383187559656591 98.988957856297063 0 0 1 I I #
straight-curve $-1 -44.884462804703475 -7.8383187559656591 82.775144854055995 0.81915203911291934 0 -0.57357644374324357 I I #
edge $-1 $165 -25.494617728796989 $91 -7.8383187559656591 $135 $172 forward 7 unknown #
point $-1 70.318308053834642 -7.8383187559656591 13.155048533277725 #
point $-1 54.54333707532804 -7.8383187559656591 13.155048533277721 #
edge $-1 $173 1 $173 0 $94 $-1 forward 7 unknown #
vertex $-1 $95 $174 #
ellipse-curve $-1 56.112221698092995 -16.666468242381328 -1.391725429448357 0.57357644374324357 0 0.81915203911291934 2.4574561173387579 0 -1.7207293312297307 1 I I #
point $-1 64.888278681920099 -16.666468242381328 5.9114422988767714 #
plane-surface $-1 70.318308053834642 0 0 -1 0 0 0 0 1 forward_v I I I I #
coedge $-1 $103 $101 $105 $152 reversed $61 $-1 #
edge $-1 $116 -13.155048533277725 $154 13.155048533277725 $115 $175 forward 7 unknown #
vertex $-1 $152 $176 #
straight-curve $-1 -70.318308053834642 -41.792041582469921 0 0 0 -1 I I #
edge $-1 $150 -41.792041582469921 $154 41.792041582469921 $148 $177 forward 7 unknown #
straight-curve $-1 0 -41.792041582469921 -13.155048533277725 -1 0 0 I I #
vertex $-1 $108 $178 #
straight-curve $-1 0 41.792041582469921 -13.155048533277725 1 0 0 I I #
point $-1 70.318308053834642 41.792041582469921 -13.155048533277725 #
point $-1 70.318308053834642 -41.792041582469921 -13.155048533277725 #
straight-curve $-1 -70.318308053834642 0 13.155048533277725 0 -1 0 I I #
point $-1 -70.318308053834642 41.792041582469921 13.155048533277725 #
point $-1 -70.318308053834642 -41.792041582469921 13.155048533277725 #
straight-curve $-1 70.318308053834642 -41.792041582469921 0 0 0 -1 I I #
straight-curve $-1 70.318308053834642 41.792041582469921 0 0 0 -1 I I #
coedge $-1 $136 $135 $128 $164 forward $125 $-1 #
edge $-1 $165 85.833909323019341 $168 96.879663129361759 $163 $179 forward 7 unknown #
vertex $-1 $140 $180 #
straight-curve $-1 17.890693661208623 -25.494617728796989 13.155048533277721 1 0 0 I I #
edge $-1 $168 -17.161383607606325 $137 0.4949153652250029 $136 $181 forward 7 unknown #
vertex $-1 $167 $182 #
straight-curve $-1 -44.884462804703475 -25.494617728796989 82.775144854055995 -0.81915203911291934 0 0.57357644374324357 I I #
point $-1 54.54333707532804 -25.494617728796989 13.155048533277721 #
point $-1 70.318308053834627 -7.8383187559656591 2.1092947269353033 #
straight-curve $-1 70.318308053834642 0 13.155048533277725 0 1 0 I I #
vertex $-1 $143 $183 #
point $-1 58.569677815431753 -16.666468242381328 -3.1124547606780877 #
straight-curve $-1 -70.318308053834642 41.792041582469921 0 0 0 -1 I I #
point $-1 -70.318308053834642 -41.792041582469921 -13.155048533277725 #
straight-curve $-1 -70.318308053834642 0 -13.155048533277725 0 1 0 I I #
point $-1 -70.318308053834642 41.792041582469921 -13.155048533277725 #
straight-curve $-1 70.318308053834642 -25.494617728796989 98.988957856297063 0 0 -1 I I #
point $-1 70.318308053834642 -25.494617728796989 13.155048533277725 #
straight-curve $-1 70.318308053834656 -8.333234121190662 2.109294726935282 0 1 0 I I #
point $-1 70.318308053834627 -25.494617728796989 2.1092947269353033 #
point $-1 54.391492366863261 -16.666468242381328 -3.8491815467871149 #
End-of-ACIS-data 