500 0 19 0           
7 Unknown 11 ACIS 5.0 NT 24 Thu Mar 25 15:55:59 1999 
-1 9.9999999999999995e-007 1e-010 
body $-1 $19 $-1 $20 #
body $-1 $21 $-1 $22 #
body $-1 $23 $-1 $24 #
body $-1 $25 $-1 $26 #
body $-1 $27 $-1 $28 #
body $-1 $29 $-1 $30 #
body $-1 $31 $-1 $32 #
body $-1 $33 $-1 $34 #
body $-1 $35 $-1 $36 #
body $-1 $37 $-1 $38 #
body $-1 $39 $-1 $40 #
body $-1 $41 $-1 $42 #
body $-1 $43 $-1 $44 #
body $-1 $45 $-1 $46 #
body $-1 $47 $-1 $48 #
body $-1 $49 $-1 $50 #
body $-1 $51 $-1 $52 #
body $-1 $53 $-1 $54 #
body $-1 $55 $-1 $56 #
lump $-1 $-1 $57 $0 #
transform $-1 1 0 0 0 1 0 0 0 1 64.348887600329604 43.43407535192388 11.168232016055772 1 rotate no_reflect no_shear #
lump $-1 $-1 $58 $1 #
transform $-1 0.7313536940579346 0 0.68199836817093118 0 1 0 -0.68199836817093118 0 0.7313536940579346 -87.771672674078914 14.805224419959851 105.33869039213815 1 rotate no_reflect no_shear #
lump $-1 $-1 $59 $2 #
transform $-1 0.7313536940579346 0 0.68199836817093118 0 -1 0 0.68199836817093118 0 -0.7313536940579346 7.2538461962407705 10.658136466358597 15.391627791818069 1 rotate no_reflect no_shear #
lump $-1 $-1 $60 $3 #
transform $-1 0.7313536940579346 0 0.68199836817093118 0 -1 0 0.68199836817093118 0 -0.7313536940579346 7.2538461962407705 14.805224419959851 15.391627791818069 1 rotate no_reflect no_shear #
lump $-1 $-1 $61 $4 #
transform $-1 0.7313536940579346 0 0.68199836817093118 0 -1 0 0.68199836817093118 0 -0.7313536940579346 7.2538461962407705 18.952312373561107 15.391627791818069 1 rotate no_reflect no_shear #
lump $-1 $-1 $62 $5 #
transform $-1 0.7313536940579346 0 0.68199836817093118 0 1 0 -0.68199836817093118 0 0.7313536940579346 -87.771672674078914 36.522262095921789 105.33869039213815 1 rotate no_reflect no_shear #
lump $-1 $-1 $63 $6 #
transform $-1 0.7313536940579346 0 0.68199836817093118 0 -1 0 0.68199836817093118 0 -0.7313536940579346 7.2538461962407705 32.375174142320539 15.391627791818069 1 rotate no_reflect no_shear #
lump $-1 $-1 $64 $7 #
transform $-1 0.7313536940579346 0 0.68199836817093118 0 -1 0 0.68199836817093118 0 -0.7313536940579346 7.2538461962407705 36.522262095921789 15.391627791818069 1 rotate no_reflect no_shear #
lump $-1 $-1 $65 $8 #
transform $-1 0.7313536940579346 0 0.68199836817093118 0 -1 0 0.68199836817093118 0 -0.7313536940579346 7.2538461962407705 40.669350049523047 15.391627791818069 1 rotate no_reflect no_shear #
lump $-1 $-1 $66 $9 #
transform $-1 0.7313536940579346 0 0.68199836817093118 0 1 0 -0.68199836817093118 0 0.7313536940579346 -87.771672674078914 58.239299771883729 105.33869039213815 1 rotate no_reflect no_shear #
lump $-1 $-1 $67 $10 #
transform $-1 0.7313536940579346 0 0.68199836817093118 0 -1 0 0.68199836817093118 0 -0.7313536940579346 7.2538461962407705 54.092211818282479 15.391627791818069 1 rotate no_reflect no_shear #
lump $-1 $-1 $68 $11 #
transform $-1 0.7313536940579346 0 0.68199836817093118 0 -1 0 0.68199836817093118 0 -0.7313536940579346 7.2538461962407705 58.239299771883729 15.391627791818069 1 rotate no_reflect no_shear #
lump $-1 $-1 $69 $12 #
transform $-1 0.7313536940579346 0 0.68199836817093118 0 -1 0 0.68199836817093118 0 -0.7313536940579346 7.2538461962407705 62.386387725484987 15.391627791818069 1 rotate no_reflect no_shear #
lump $-1 $-1 $70 $13 #
transform $-1 0.7313536940579346 0 0.68199836817093118 0 1 0 -0.68199836817093118 0 0.7313536940579346 -87.771672674078914 79.956337447845669 105.33869039213815 1 rotate no_reflect no_shear #
lump $-1 $-1 $71 $14 #
transform $-1 0.7313536940579346 0 0.68199836817093118 0 -1 0 0.68199836817093118 0 -0.7313536940579346 7.2538461962407705 75.809249494244426 15.391627791818069 1 rotate no_reflect no_shear #
lump $-1 $-1 $72 $15 #
transform $-1 0.7313536940579346 0 0.68199836817093118 0 -1 0 0.68199836817093118 0 -0.7313536940579346 7.2538461962407705 79.956337447845669 15.391627791818069 1 rotate no_reflect no_shear #
lump $-1 $-1 $73 $16 #
transform $-1 0.7313536940579346 0 0.68199836817093118 0 -1 0 0.68199836817093118 0 -0.7313536940579346 7.2538461962407705 84.103425401446927 15.391627791818069 1 rotate no_reflect no_shear #
lump $-1 $-1 $74 $17 #
transform $-1 0.74314481823134659 0 -0.66913061440640931 0 1 0 0.66913061440640931 0 0.74314481823134659 119.17231183514166 31.242404340629825 199.65406366045812 1 rotate no_reflect no_shear #
lump $-1 $-1 $75 $18 #
transform $-1 0.74314481823134659 0 -0.66913061440640931 0 -1 0 -0.66913061440640931 0 -0.74314481823134659 122.21221520042691 31.242404340629825 15.651697223091375 1 rotate no_reflect no_shear #
shell $-1 $-1 $-1 $76 $-1 $19 #
shell $-1 $-1 $-1 $77 $-1 $21 #
shell $-1 $-1 $-1 $78 $-1 $23 #
shell $-1 $-1 $-1 $79 $-1 $25 #
shell $-1 $-1 $-1 $80 $-1 $27 #
shell $-1 $-1 $-1 $81 $-1 $29 #
shell $-1 $-1 $-1 $82 $-1 $31 #
shell $-1 $-1 $-1 $83 $-1 $33 #
shell $-1 $-1 $-1 $84 $-1 $35 #
shell $-1 $-1 $-1 $85 $-1 $37 #
shell $-1 $-1 $-1 $86 $-1 $39 #
shell $-1 $-1 $-1 $87 $-1 $41 #
shell $-1 $-1 $-1 $88 $-1 $43 #
shell $-1 $-1 $-1 $89 $-1 $45 #
shell $-1 $-1 $-1 $90 $-1 $47 #
shell $-1 $-1 $-1 $91 $-1 $49 #
shell $-1 $-1 $-1 $92 $-1 $51 #
shell $-1 $-1 $-1 $93 $-1 $53 #
shell $-1 $-1 $-1 $94 $-1 $55 #
face $-1 $95 $96 $57 $-1 $97 forward single #
face $-1 $98 $99 $58 $-1 $100 forward single #
face $-1 $101 $102 $59 $-1 $103 forward single #
face $-1 $104 $105 $60 $-1 $106 forward single #
face $-1 $107 $108 $61 $-1 $109 forward single #
face $-1 $110 $111 $62 $-1 $112 forward single #
face $-1 $113 $114 $63 $-1 $115 forward single #
face $-1 $116 $117 $64 $-1 $118 forward single #
face $-1 $119 $120 $65 $-1 $121 forward single #
face $-1 $122 $123 $66 $-1 $124 forward single #
face $-1 $125 $126 $67 $-1 $127 forward single #
face $-1 $128 $129 $68 $-1 $130 forward single #
face $-1 $131 $132 $69 $-1 $133 forward single #
face $-1 $134 $135 $70 $-1 $136 forward single #
face $-1 $137 $138 $71 $-1 $139 forward single #
face $-1 $140 $141 $72 $-1 $142 forward single #
face $-1 $143 $144 $73 $-1 $145 forward single #
face $-1 $146 $147 $74 $-1 $148 forward single #
face $-1 $149 $150 $75 $-1 $151 forward single #
face $-1 $152 $153 $57 $-1 $154 reversed single #
loop $-1 $-1 $155 $76 #
plane-surface $-1 0 0 11.168232016055772 0 0 1 1 0 0 forward_v I I I I #
face $-1 $156 $157 $58 $-1 $158 reversed single #
loop $-1 $-1 $159 $77 #
plane-surface $-1 0 0 128.69777520065921 0 0 1 1 0 0 forward_v I I I I #
face $-1 $160 $161 $59 $-1 $162 forward single #
loop $-1 $163 $164 $78 #
cone-surface $-1 0 0 -1.1962950529496137 0 0 1 1 0 0 1 I I 0 1 1 forward I I I I #
face $-1 $165 $166 $60 $-1 $167 forward single #
loop $-1 $168 $169 $79 #
cone-surface $-1 0 0 -1.1962950529496137 0 0 1 1 0 0 1 I I 0 1 1 forward I I I I #
face $-1 $170 $171 $61 $-1 $172 forward single #
loop $-1 $173 $174 $80 #
cone-surface $-1 0 0 -1.1962950529496137 0 0 1 1 0 0 1 I I 0 1 1 forward I I I I #
face $-1 $175 $176 $62 $-1 $177 reversed single #
loop $-1 $-1 $178 $81 #
plane-surface $-1 0 0 128.69777520065921 0 0 1 1 0 0 forward_v I I I I #
face $-1 $179 $180 $63 $-1 $181 forward single #
loop $-1 $182 $183 $82 #
cone-surface $-1 0 0 -1.1962950529496137 0 0 1 1 0 0 1 I I 0 1 1 forward I I I I #
face $-1 $184 $185 $64 $-1 $186 forward single #
loop $-1 $187 $188 $83 #
cone-surface $-1 0 0 -1.1962950529496137 0 0 1 1 0 0 1 I I 0 1 1 forward I I I I #
face $-1 $189 $190 $65 $-1 $191 forward single #
loop $-1 $192 $193 $84 #
cone-surface $-1 0 0 -1.1962950529496137 0 0 1 1 0 0 1 I I 0 1 1 forward I I I I #
face $-1 $194 $195 $66 $-1 $196 reversed single #
loop $-1 $-1 $197 $85 #
plane-surface $-1 0 0 128.69777520065921 0 0 1 1 0 0 forward_v I I I I #
face $-1 $198 $199 $67 $-1 $200 forward single #
loop $-1 $201 $202 $86 #
cone-surface $-1 0 0 -1.1962950529496137 0 0 1 1 0 0 1 I I 0 1 1 forward I I I I #
face $-1 $203 $204 $68 $-1 $205 forward single #
loop $-1 $206 $207 $87 #
cone-surface $-1 0 0 -1.1962950529496137 0 0 1 1 0 0 1 I I 0 1 1 forward I I I I #
face $-1 $208 $209 $69 $-1 $210 forward single #
loop $-1 $211 $212 $88 #
cone-surface $-1 0 0 -1.1962950529496137 0 0 1 1 0 0 1 I I 0 1 1 forward I I I I #
face $-1 $213 $214 $70 $-1 $215 reversed single #
loop $-1 $-1 $216 $89 #
plane-surface $-1 0 0 128.69777520065921 0 0 1 1 0 0 forward_v I I I I #
face $-1 $217 $218 $71 $-1 $219 forward single #
loop $-1 $220 $221 $90 #
cone-surface $-1 0 0 -1.1962950529496137 0 0 1 1 0 0 1 I I 0 1 1 forward I I I I #
face $-1 $222 $223 $72 $-1 $224 forward single #
loop $-1 $225 $226 $91 #
cone-surface $-1 0 0 -1.1962950529496137 0 0 1 1 0 0 1 I I 0 1 1 forward I I I I #
face $-1 $227 $228 $73 $-1 $229 forward single #
loop $-1 $230 $231 $92 #
cone-surface $-1 0 0 -1.1962950529496137 0 0 1 1 0 0 1 I I 0 1 1 forward I I I I #
face $-1 $232 $233 $74 $-1 $234 reversed single #
loop $-1 $-1 $235 $93 #
plane-surface $-1 0 0 128.69777520065921 0 0 1 1 0 0 forward_v I I I I #
face $-1 $236 $237 $75 $-1 $238 forward single #
loop $-1 $239 $240 $94 #
cone-surface $-1 0 0 -3.379268776512955 0 0 1 1.5 0 0 1 I I 0 1 1.5 forward I I I I #
face $-1 $241 $242 $57 $-1 $243 reversed single #
loop $-1 $-1 $244 $95 #
plane-surface $-1 0 0 -11.168232016055772 0 0 1 1 0 0 forward_v I I I I #
coedge $-1 $245 $246 $247 $248 forward $96 $-1 #
face $-1 $249 $250 $58 $-1 $251 reversed single #
loop $-1 $-1 $252 $98 #
plane-surface $-1 0 0 -128.69777520065921 0 0 1 1 0 0 forward_v I I I I #
coedge $-1 $253 $254 $255 $256 forward $99 $-1 #
face $-1 $-1 $257 $59 $-1 $258 forward single #
loop $-1 $-1 $259 $101 #
plane-surface $-1 0 0 -1.8925901058992274 0 0 -1 -1 0 0 forward_v I I I I #
loop $-1 $-1 $260 $78 #
coedge $-1 $164 $164 $259 $261 reversed $102 $-1 #
face $-1 $-1 $262 $60 $-1 $263 forward single #
loop $-1 $-1 $264 $104 #
plane-surface $-1 0 0 -1.8925901058992274 0 0 -1 -1 0 0 forward_v I I I I #
loop $-1 $-1 $265 $79 #
coedge $-1 $169 $169 $264 $266 reversed $105 $-1 #
face $-1 $-1 $267 $61 $-1 $268 forward single #
loop $-1 $-1 $269 $107 #
plane-surface $-1 0 0 -1.8925901058992274 0 0 -1 -1 0 0 forward_v I I I I #
loop $-1 $-1 $270 $80 #
coedge $-1 $174 $174 $269 $271 reversed $108 $-1 #
face $-1 $272 $273 $62 $-1 $274 reversed single #
loop $-1 $-1 $275 $110 #
plane-surface $-1 0 0 -128.69777520065921 0 0 1 1 0 0 forward_v I I I I #
coedge $-1 $276 $277 $278 $279 forward $111 $-1 #
face $-1 $-1 $280 $63 $-1 $281 forward single #
loop $-1 $-1 $282 $113 #
plane-surface $-1 0 0 -1.8925901058992274 0 0 -1 -1 0 0 forward_v I I I I #
loop $-1 $-1 $283 $82 #
coedge $-1 $183 $183 $282 $284 reversed $114 $-1 #
face $-1 $-1 $285 $64 $-1 $286 forward single #
loop $-1 $-1 $287 $116 #
plane-surface $-1 0 0 -1.8925901058992274 0 0 -1 -1 0 0 forward_v I I I I #
loop $-1 $-1 $288 $83 #
coedge $-1 $188 $188 $287 $289 reversed $117 $-1 #
face $-1 $-1 $290 $65 $-1 $291 forward single #
loop $-1 $-1 $292 $119 #
plane-surface $-1 0 0 -1.8925901058992274 0 0 -1 -1 0 0 forward_v I I I I #
loop $-1 $-1 $293 $84 #
coedge $-1 $193 $193 $292 $294 reversed $120 $-1 #
face $-1 $295 $296 $66 $-1 $297 reversed single #
loop $-1 $-1 $298 $122 #
plane-surface $-1 0 0 -128.69777520065921 0 0 1 1 0 0 forward_v I I I I #
coedge $-1 $299 $300 $301 $302 forward $123 $-1 #
face $-1 $-1 $303 $67 $-1 $304 forward single #
loop $-1 $-1 $305 $125 #
plane-surface $-1 0 0 -1.8925901058992274 0 0 -1 -1 0 0 forward_v I I I I #
loop $-1 $-1 $306 $86 #
coedge $-1 $202 $202 $305 $307 reversed $126 $-1 #
face $-1 $-1 $308 $68 $-1 $309 forward single #
loop $-1 $-1 $310 $128 #
plane-surface $-1 0 0 -1.8925901058992274 0 0 -1 -1 0 0 forward_v I I I I #
loop $-1 $-1 $311 $87 #
coedge $-1 $207 $207 $310 $312 reversed $129 $-1 #
face $-1 $-1 $313 $69 $-1 $314 forward single #
loop $-1 $-1 $315 $131 #
plane-surface $-1 0 0 -1.8925901058992274 0 0 -1 -1 0 0 forward_v I I I I #
loop $-1 $-1 $316 $88 #
coedge $-1 $212 $212 $315 $317 reversed $132 $-1 #
face $-1 $318 $319 $70 $-1 $320 reversed single #
loop $-1 $-1 $321 $134 #
plane-surface $-1 0 0 -128.69777520065921 0 0 1 1 0 0 forward_v I I I I #
coedge $-1 $322 $323 $324 $325 forward $135 $-1 #
face $-1 $-1 $326 $71 $-1 $327 forward single #
loop $-1 $-1 $328 $137 #
plane-surface $-1 0 0 -1.8925901058992274 0 0 -1 -1 0 0 forward_v I I I I #
loop $-1 $-1 $329 $90 #
coedge $-1 $221 $221 $328 $330 reversed $138 $-1 #
face $-1 $-1 $331 $72 $-1 $332 forward single #
loop $-1 $-1 $333 $140 #
plane-surface $-1 0 0 -1.8925901058992274 0 0 -1 -1 0 0 forward_v I I I I #
loop $-1 $-1 $334 $91 #
coedge $-1 $226 $226 $333 $335 reversed $141 $-1 #
face $-1 $-1 $336 $73 $-1 $337 forward single #
loop $-1 $-1 $338 $143 #
plane-surface $-1 0 0 -1.8925901058992274 0 0 -1 -1 0 0 forward_v I I I I #
loop $-1 $-1 $339 $92 #
coedge $-1 $231 $231 $338 $340 reversed $144 $-1 #
face $-1 $341 $342 $74 $-1 $343 reversed single #
loop $-1 $-1 $344 $146 #
plane-surface $-1 0 0 -128.69777520065921 0 0 1 1 0 0 forward_v I I I I #
coedge $-1 $345 $346 $347 $348 forward $147 $-1 #
face $-1 $-1 $349 $75 $-1 $350 forward single #
loop $-1 $-1 $351 $149 #
plane-surface $-1 0 0 -6.00853755302591 0 0 -1 -1 0 0 forward_v I I I I #
loop $-1 $-1 $352 $94 #
coedge $-1 $240 $240 $351 $353 reversed $150 $-1 #
face $-1 $354 $355 $57 $-1 $356 reversed single #
loop $-1 $-1 $357 $152 #
plane-surface $-1 0 -43.43407535192388 0 0 1 0 0 0 1 forward_v I I I I #
coedge $-1 $358 $359 $360 $361 forward $153 $-1 #
coedge $-1 $362 $155 $363 $364 forward $96 $-1 #
coedge $-1 $155 $362 $365 $366 forward $96 $-1 #
coedge $-1 $367 $368 $155 $248 reversed $369 $-1 #
edge $-1 $370 -43.43407535192388 $371 43.43407535192388 $247 $372 forward 7 unknown #
face $-1 $373 $374 $58 $-1 $375 reversed single #
loop $-1 $-1 $376 $156 #
plane-surface $-1 0 -6.9118132560020893 0 0 1 0 0 0 1 forward_v I I I I #
coedge $-1 $377 $378 $379 $380 forward $157 $-1 #
coedge $-1 $381 $159 $382 $383 forward $99 $-1 #
coedge $-1 $159 $381 $384 $385 forward $99 $-1 #
coedge $-1 $386 $387 $159 $256 reversed $388 $-1 #
edge $-1 $389 -6.9118132560020893 $390 6.9118132560020893 $255 $391 forward 7 unknown #
loop $-1 $392 $393 $160 #
cone-surface $-1 0 0 0 0 0 1 0.5 0 0 1 I I -0.70710678118654746 0.70710678118654746 0.5 forward I I I I #
coedge $-1 $259 $259 $164 $261 forward $161 $-1 #
coedge $-1 $260 $260 $393 $394 forward $163 $-1 #
edge $-1 $395 0 $395 6.2831853071796004 $259 $396 forward 7 unknown #
loop $-1 $397 $398 $165 #
cone-surface $-1 0 0 0 0 0 1 0.5 0 0 1 I I -0.70710678118654746 0.70710678118654746 0.5 forward I I I I #
coedge $-1 $264 $264 $169 $266 forward $166 $-1 #
coedge $-1 $265 $265 $398 $399 forward $168 $-1 #
edge $-1 $400 0 $400 6.2831853071796004 $264 $401 forward 7 unknown #
loop $-1 $402 $403 $170 #
cone-surface $-1 0 0 0 0 0 1 0.5 0 0 1 I I -0.70710678118654746 0.70710678118654746 0.5 forward I I I I #
coedge $-1 $269 $269 $174 $271 forward $171 $-1 #
coedge $-1 $270 $270 $403 $404 forward $173 $-1 #
edge $-1 $405 0 $405 6.2831853071796004 $269 $406 forward 7 unknown #
face $-1 $407 $408 $62 $-1 $409 reversed single #
loop $-1 $-1 $410 $175 #
plane-surface $-1 0 -6.9118132560020893 0 0 1 0 0 0 1 forward_v I I I I #
coedge $-1 $411 $412 $413 $414 forward $176 $-1 #
coedge $-1 $415 $178 $416 $417 forward $111 $-1 #
coedge $-1 $178 $415 $418 $419 forward $111 $-1 #
coedge $-1 $420 $421 $178 $279 reversed $422 $-1 #
edge $-1 $423 -6.9118132560020893 $424 6.9118132560020893 $278 $425 forward 7 unknown #
loop $-1 $426 $427 $179 #
cone-surface $-1 0 0 0 0 0 1 0.5 0 0 1 I I -0.70710678118654746 0.70710678118654746 0.5 forward I I I I #
coedge $-1 $282 $282 $183 $284 forward $180 $-1 #
coedge $-1 $283 $283 $427 $428 forward $182 $-1 #
edge $-1 $429 0 $429 6.2831853071796004 $282 $430 forward 7 unknown #
loop $-1 $431 $432 $184 #
cone-surface $-1 0 0 0 0 0 1 0.5 0 0 1 I I -0.70710678118654746 0.70710678118654746 0.5 forward I I I I #
coedge $-1 $287 $287 $188 $289 forward $185 $-1 #
coedge $-1 $288 $288 $432 $433 forward $187 $-1 #
edge $-1 $434 0 $434 6.2831853071796004 $287 $435 forward 7 unknown #
loop $-1 $436 $437 $189 #
cone-surface $-1 0 0 0 0 0 1 0.5 0 0 1 I I -0.70710678118654746 0.70710678118654746 0.5 forward I I I I #
coedge $-1 $292 $292 $193 $294 forward $190 $-1 #
coedge $-1 $293 $293 $437 $438 forward $192 $-1 #
edge $-1 $439 0 $439 6.2831853071796004 $292 $440 forward 7 unknown #
face $-1 $441 $442 $66 $-1 $443 reversed single #
loop $-1 $-1 $444 $194 #
plane-surface $-1 0 -6.9118132560020893 0 0 1 0 0 0 1 forward_v I I I I #
coedge $-1 $445 $446 $447 $448 forward $195 $-1 #
coedge $-1 $449 $197 $450 $451 forward $123 $-1 #
coedge $-1 $197 $449 $452 $453 forward $123 $-1 #
coedge $-1 $454 $455 $197 $302 reversed $456 $-1 #
edge $-1 $457 -6.9118132560020893 $458 6.9118132560020893 $301 $459 forward 7 unknown #
loop $-1 $460 $461 $198 #
cone-surface $-1 0 0 0 0 0 1 0.5 0 0 1 I I -0.70710678118654746 0.70710678118654746 0.5 forward I I I I #
coedge $-1 $305 $305 $202 $307 forward $199 $-1 #
coedge $-1 $306 $306 $461 $462 forward $201 $-1 #
edge $-1 $463 0 $463 6.2831853071796004 $305 $464 forward 7 unknown #
loop $-1 $465 $466 $203 #
cone-surface $-1 0 0 0 0 0 1 0.5 0 0 1 I I -0.70710678118654746 0.70710678118654746 0.5 forward I I I I #
coedge $-1 $310 $310 $207 $312 forward $204 $-1 #
coedge $-1 $311 $311 $466 $467 forward $206 $-1 #
edge $-1 $468 0 $468 6.2831853071796004 $310 $469 forward 7 unknown #
loop $-1 $470 $471 $208 #
cone-surface $-1 0 0 0 0 0 1 0.5 0 0 1 I I -0.70710678118654746 0.70710678118654746 0.5 forward I I I I #
coedge $-1 $315 $315 $212 $317 forward $209 $-1 #
coedge $-1 $316 $316 $471 $472 forward $211 $-1 #
edge $-1 $473 0 $473 6.2831853071796004 $315 $474 forward 7 unknown #
face $-1 $475 $476 $70 $-1 $477 reversed single #
loop $-1 $-1 $478 $213 #
plane-surface $-1 0 -6.9118132560020893 0 0 1 0 0 0 1 forward_v I I I I #
coedge $-1 $479 $480 $481 $482 forward $214 $-1 #
coedge $-1 $483 $216 $484 $485 forward $135 $-1 #
coedge $-1 $216 $483 $486 $487 forward $135 $-1 #
coedge $-1 $488 $489 $216 $325 reversed $490 $-1 #
edge $-1 $491 -6.9118132560020893 $492 6.9118132560020893 $324 $493 forward 7 unknown #
loop $-1 $494 $495 $217 #
cone-surface $-1 0 0 0 0 0 1 0.5 0 0 1 I I -0.70710678118654746 0.70710678118654746 0.5 forward I I I I #
coedge $-1 $328 $328 $221 $330 forward $218 $-1 #
coedge $-1 $329 $329 $495 $496 forward $220 $-1 #
edge $-1 $497 0 $497 6.2831853071796004 $328 $498 forward 7 unknown #
loop $-1 $499 $500 $222 #
cone-surface $-1 0 0 0 0 0 1 0.5 0 0 1 I I -0.70710678118654746 0.70710678118654746 0.5 forward I I I I #
coedge $-1 $333 $333 $226 $335 forward $223 $-1 #
coedge $-1 $334 $334 $500 $501 forward $225 $-1 #
edge $-1 $502 0 $502 6.2831853071796004 $333 $503 forward 7 unknown #
loop $-1 $504 $505 $227 #
cone-surface $-1 0 0 0 0 0 1 0.5 0 0 1 I I -0.70710678118654746 0.70710678118654746 0.5 forward I I I I #
coedge $-1 $338 $338 $231 $340 forward $228 $-1 #
coedge $-1 $339 $339 $505 $506 forward $230 $-1 #
edge $-1 $507 0 $507 6.2831853071796004 $338 $508 forward 7 unknown #
face $-1 $509 $510 $74 $-1 $511 reversed single #
loop $-1 $-1 $512 $232 #
plane-surface $-1 0 -11.919152261634089 0 0 1 0 0 0 1 forward_v I I I I #
coedge $-1 $513 $514 $515 $516 forward $233 $-1 #
coedge $-1 $517 $235 $518 $519 forward $147 $-1 #
coedge $-1 $235 $517 $520 $521 forward $147 $-1 #
coedge $-1 $522 $523 $235 $348 reversed $524 $-1 #
edge $-1 $525 -11.919152261634089 $526 11.919152261634089 $347 $527 forward 7 unknown #
loop $-1 $528 $529 $236 #
cone-surface $-1 0 0 0 0 0 1 0.75 0 0 1 I I -0.70710678118654757 0.70710678118654757 0.75 forward I I I I #
coedge $-1 $351 $351 $240 $353 forward $237 $-1 #
coedge $-1 $352 $352 $529 $530 forward $239 $-1 #
edge $-1 $531 0 $531 6.2831853071796004 $351 $532 forward 7 unknown #
face $-1 $533 $534 $57 $-1 $535 reversed single #
loop $-1 $-1 $536 $241 #
plane-surface $-1 -64.348887600329604 0 0 1 0 0 0 0 -1 forward_v I I I I #
coedge $-1 $537 $365 $538 $539 forward $242 $-1 #
coedge $-1 $540 $244 $537 $541 forward $153 $-1 #
coedge $-1 $244 $540 $542 $543 forward $153 $-1 #
coedge $-1 $368 $367 $244 $361 reversed $369 $-1 #
edge $-1 $544 -43.43407535192388 $545 43.43407535192388 $360 $546 forward 7 unknown #
coedge $-1 $246 $245 $547 $548 forward $96 $-1 #
coedge $-1 $549 $550 $245 $364 reversed $534 $-1 #
edge $-1 $371 -64.348887600329604 $551 64.348887600329604 $363 $552 forward 7 unknown #
coedge $-1 $357 $553 $246 $366 reversed $242 $-1 #
edge $-1 $554 -64.348887600329604 $370 64.348887600329604 $365 $555 forward 7 unknown #
coedge $-1 $360 $247 $553 $556 forward $369 $-1 #
coedge $-1 $247 $360 $549 $557 reversed $369 $-1 #
loop $-1 $-1 $367 $533 #
vertex $-1 $248 $558 #
vertex $-1 $248 $559 #
straight-curve $-1 64.348887600329604 0 11.168232016055772 0 1 0 I I #
face $-1 $560 $561 $58 $-1 $562 reversed single #
loop $-1 $-1 $563 $249 #
plane-surface $-1 -257.39555040131842 0 0 1 0 0 0 0 -1 forward_v I I I I #
coedge $-1 $564 $384 $565 $566 forward $250 $-1 #
coedge $-1 $567 $252 $564 $568 forward $157 $-1 #
coedge $-1 $252 $567 $569 $570 forward $157 $-1 #
coedge $-1 $387 $386 $252 $380 reversed $388 $-1 #
edge $-1 $571 -6.9118132560020893 $572 6.9118132560020893 $379 $573 forward 7 unknown #
coedge $-1 $254 $253 $574 $575 forward $99 $-1 #
coedge $-1 $576 $577 $253 $383 reversed $561 $-1 #
edge $-1 $390 -257.39555040131842 $578 257.39555040131842 $382 $579 forward 7 unknown #
coedge $-1 $376 $580 $254 $385 reversed $250 $-1 #
edge $-1 $581 -257.39555040131842 $389 257.39555040131842 $384 $582 forward 7 unknown #
coedge $-1 $379 $255 $580 $583 forward $388 $-1 #
coedge $-1 $255 $379 $576 $584 reversed $388 $-1 #
loop $-1 $-1 $386 $560 #
vertex $-1 $256 $585 #
vertex $-1 $256 $586 #
straight-curve $-1 257.39555040131842 0 128.69777520065921 0 1 0 I I #
loop $-1 $-1 $587 $160 #
coedge $-1 $393 $393 $260 $394 reversed $257 $-1 #
edge $-1 $588 0 $588 6.2831853071796004 $393 $589 forward 7 unknown #
vertex $-1 $261 $590 #
ellipse-curve $-1 0 0 -1.8925901058992274 0 0 -1 1 0 0 1 I I #
loop $-1 $-1 $591 $165 #
coedge $-1 $398 $398 $265 $399 reversed $262 $-1 #
edge $-1 $592 0 $592 6.2831853071796004 $398 $593 forward 7 unknown #
vertex $-1 $266 $594 #
ellipse-curve $-1 0 0 -1.8925901058992274 0 0 -1 1 0 0 1 I I #
loop $-1 $-1 $595 $170 #
coedge $-1 $403 $403 $270 $404 reversed $267 $-1 #
edge $-1 $596 0 $596 6.2831853071796004 $403 $597 forward 7 unknown #
vertex $-1 $271 $598 #
ellipse-curve $-1 0 0 -1.8925901058992274 0 0 -1 1 0 0 1 I I #
face $-1 $599 $600 $62 $-1 $601 reversed single #
loop $-1 $-1 $602 $272 #
plane-surface $-1 -257.39555040131842 0 0 1 0 0 0 0 -1 forward_v I I I I #
coedge $-1 $603 $418 $604 $605 forward $273 $-1 #
coedge $-1 $606 $275 $603 $607 forward $176 $-1 #
coedge $-1 $275 $606 $608 $609 forward $176 $-1 #
coedge $-1 $421 $420 $275 $414 reversed $422 $-1 #
edge $-1 $610 -6.9118132560020893 $611 6.9118132560020893 $413 $612 forward 7 unknown #
coedge $-1 $277 $276 $613 $614 forward $111 $-1 #
coedge $-1 $615 $616 $276 $417 reversed $600 $-1 #
edge $-1 $424 -257.39555040131842 $617 257.39555040131842 $416 $618 forward 7 unknown #
coedge $-1 $410 $619 $277 $419 reversed $273 $-1 #
edge $-1 $620 -257.39555040131842 $423 257.39555040131842 $418 $621 forward 7 unknown #
coedge $-1 $413 $278 $619 $622 forward $422 $-1 #
coedge $-1 $278 $413 $615 $623 reversed $422 $-1 #
loop $-1 $-1 $420 $599 #
vertex $-1 $279 $624 #
vertex $-1 $279 $625 #
straight-curve $-1 257.39555040131842 0 128.69777520065921 0 1 0 I I #
loop $-1 $-1 $626 $179 #
coedge $-1 $427 $427 $283 $428 reversed $280 $-1 #
edge $-1 $627 0 $627 6.2831853071796004 $427 $628 forward 7 unknown #
vertex $-1 $284 $629 #
ellipse-curve $-1 0 0 -1.8925901058992274 0 0 -1 1 0 0 1 I I #
loop $-1 $-1 $630 $184 #
coedge $-1 $432 $432 $288 $433 reversed $285 $-1 #
edge $-1 $631 0 $631 6.2831853071796004 $432 $632 forward 7 unknown #
vertex $-1 $289 $633 #
ellipse-curve $-1 0 0 -1.8925901058992274 0 0 -1 1 0 0 1 I I #
loop $-1 $-1 $634 $189 #
coedge $-1 $437 $437 $293 $438 reversed $290 $-1 #
edge $-1 $635 0 $635 6.2831853071796004 $437 $636 forward 7 unknown #
vertex $-1 $294 $637 #
ellipse-curve $-1 0 0 -1.8925901058992274 0 0 -1 1 0 0 1 I I #
face $-1 $638 $639 $66 $-1 $640 reversed single #
loop $-1 $-1 $641 $295 #
plane-surface $-1 -257.39555040131842 0 0 1 0 0 0 0 -1 forward_v I I I I #
coedge $-1 $642 $452 $643 $644 forward $296 $-1 #
coedge $-1 $645 $298 $642 $646 forward $195 $-1 #
coedge $-1 $298 $645 $647 $648 forward $195 $-1 #
coedge $-1 $455 $454 $298 $448 reversed $456 $-1 #
edge $-1 $649 -6.9118132560020893 $650 6.9118132560020893 $447 $651 forward 7 unknown #
coedge $-1 $300 $299 $652 $653 forward $123 $-1 #
coedge $-1 $654 $655 $299 $451 reversed $639 $-1 #
edge $-1 $458 -257.39555040131842 $656 257.39555040131842 $450 $657 forward 7 unknown #
coedge $-1 $444 $658 $300 $453 reversed $296 $-1 #
edge $-1 $659 -257.39555040131842 $457 257.39555040131842 $452 $660 forward 7 unknown #
coedge $-1 $447 $301 $658 $661 forward $456 $-1 #
coedge $-1 $301 $447 $654 $662 reversed $456 $-1 #
loop $-1 $-1 $454 $638 #
vertex $-1 $302 $663 #
vertex $-1 $302 $664 #
straight-curve $-1 257.39555040131842 0 128.69777520065921 0 1 0 I I #
loop $-1 $-1 $665 $198 #
coedge $-1 $461 $461 $306 $462 reversed $303 $-1 #
edge $-1 $666 0 $666 6.2831853071796004 $461 $667 forward 7 unknown #
vertex $-1 $307 $668 #
ellipse-curve $-1 0 0 -1.8925901058992274 0 0 -1 1 0 0 1 I I #
loop $-1 $-1 $669 $203 #
coedge $-1 $466 $466 $311 $467 reversed $308 $-1 #
edge $-1 $670 0 $670 6.2831853071796004 $466 $671 forward 7 unknown #
vertex $-1 $312 $672 #
ellipse-curve $-1 0 0 -1.8925901058992274 0 0 -1 1 0 0 1 I I #
loop $-1 $-1 $673 $208 #
coedge $-1 $471 $471 $316 $472 reversed $313 $-1 #
edge $-1 $674 0 $674 6.2831853071796004 $471 $675 forward 7 unknown #
vertex $-1 $317 $676 #
ellipse-curve $-1 0 0 -1.8925901058992274 0 0 -1 1 0 0 1 I I #
face $-1 $677 $678 $70 $-1 $679 reversed single #
loop $-1 $-1 $680 $318 #
plane-surface $-1 -257.39555040131842 0 0 1 0 0 0 0 -1 forward_v I I I I #
coedge $-1 $681 $486 $682 $683 forward $319 $-1 #
coedge $-1 $684 $321 $681 $685 forward $214 $-1 #
coedge $-1 $321 $684 $686 $687 forward $214 $-1 #
coedge $-1 $489 $488 $321 $482 reversed $490 $-1 #
edge $-1 $688 -6.9118132560020893 $689 6.9118132560020893 $481 $690 forward 7 unknown #
coedge $-1 $323 $322 $691 $692 forward $135 $-1 #
coedge $-1 $693 $694 $322 $485 reversed $678 $-1 #
edge $-1 $492 -257.39555040131842 $695 257.39555040131842 $484 $696 forward 7 unknown #
coedge $-1 $478 $697 $323 $487 reversed $319 $-1 #
edge $-1 $698 -257.39555040131842 $491 257.39555040131842 $486 $699 forward 7 unknown #
coedge $-1 $481 $324 $697 $700 forward $490 $-1 #
coedge $-1 $324 $481 $693 $701 reversed $490 $-1 #
loop $-1 $-1 $488 $677 #
vertex $-1 $325 $702 #
vertex $-1 $325 $703 #
straight-curve $-1 257.39555040131842 0 128.69777520065921 0 1 0 I I #
loop $-1 $-1 $704 $217 #
coedge $-1 $495 $495 $329 $496 reversed $326 $-1 #
edge $-1 $705 0 $705 6.2831853071796004 $495 $706 forward 7 unknown #
vertex $-1 $330 $707 #
ellipse-curve $-1 0 0 -1.8925901058992274 0 0 -1 1 0 0 1 I I #
loop $-1 $-1 $708 $222 #
coedge $-1 $500 $500 $334 $501 reversed $331 $-1 #
edge $-1 $709 0 $709 6.2831853071796004 $500 $710 forward 7 unknown #
vertex $-1 $335 $711 #
ellipse-curve $-1 0 0 -1.8925901058992274 0 0 -1 1 0 0 1 I I #
loop $-1 $-1 $712 $227 #
coedge $-1 $505 $505 $339 $506 reversed $336 $-1 #
edge $-1 $713 0 $713 6.2831853071796004 $505 $714 forward 7 unknown #
vertex $-1 $340 $715 #
ellipse-curve $-1 0 0 -1.8925901058992274 0 0 -1 1 0 0 1 I I #
face $-1 $716 $717 $74 $-1 $718 reversed single #
loop $-1 $-1 $719 $341 #
plane-surface $-1 -257.39555040131842 0 0 1 0 0 0 0 -1 forward_v I I I I #
coedge $-1 $720 $520 $721 $722 forward $342 $-1 #
coedge $-1 $723 $344 $720 $724 forward $233 $-1 #
coedge $-1 $344 $723 $725 $726 forward $233 $-1 #
coedge $-1 $523 $522 $344 $516 reversed $524 $-1 #
edge $-1 $727 -11.919152261634089 $728 11.919152261634089 $515 $729 forward 7 unknown #
coedge $-1 $346 $345 $730 $731 forward $147 $-1 #
coedge $-1 $732 $733 $345 $519 reversed $717 $-1 #
edge $-1 $526 -257.39555040131842 $734 257.39555040131842 $518 $735 forward 7 unknown #
coedge $-1 $512 $736 $346 $521 reversed $342 $-1 #
edge $-1 $737 -257.39555040131842 $525 257.39555040131842 $520 $738 forward 7 unknown #
coedge $-1 $515 $347 $736 $739 forward $524 $-1 #
coedge $-1 $347 $515 $732 $740 reversed $524 $-1 #
loop $-1 $-1 $522 $716 #
vertex $-1 $348 $741 #
vertex $-1 $348 $742 #
straight-curve $-1 257.39555040131842 0 128.69777520065921 0 1 0 I I #
loop $-1 $-1 $743 $236 #
coedge $-1 $529 $529 $352 $530 reversed $349 $-1 #
edge $-1 $744 0 $744 6.2831853071796004 $529 $745 forward 7 unknown #
vertex $-1 $353 $746 #
ellipse-curve $-1 0 0 -6.00853755302591 0 0 -1 1.5 0 0 1 I I #
face $-1 $-1 $369 $57 $-1 $747 reversed single #
loop $-1 $-1 $549 $354 #
plane-surface $-1 0 43.43407535192388 0 0 -1 0 0 0 -1 forward_v I I I I #
coedge $-1 $748 $547 $550 $749 forward $355 $-1 #
coedge $-1 $553 $357 $358 $541 reversed $242 $-1 #
coedge $-1 $547 $748 $357 $539 reversed $355 $-1 #
edge $-1 $554 -11.168232016055772 $750 11.168232016055772 $538 $751 forward 7 unknown #
coedge $-1 $359 $358 $748 $752 forward $153 $-1 #
edge $-1 $545 -64.348887600329604 $750 64.348887600329604 $537 $753 forward 7 unknown #
coedge $-1 $550 $549 $359 $543 reversed $534 $-1 #
edge $-1 $754 -64.348887600329604 $544 64.348887600329604 $542 $755 forward 7 unknown #
vertex $-1 $361 $756 #
vertex $-1 $556 $757 #
straight-curve $-1 64.348887600329604 0 -11.168232016055772 0 -1 0 I I #
coedge $-1 $536 $538 $362 $548 reversed $355 $-1 #
edge $-1 $551 -43.43407535192388 $554 43.43407535192388 $547 $758 forward 7 unknown #
coedge $-1 $542 $363 $368 $557 forward $534 $-1 #
coedge $-1 $363 $542 $536 $749 reversed $534 $-1 #
vertex $-1 $364 $759 #
straight-curve $-1 0 43.43407535192388 11.168232016055772 -1 0 0 I I #
coedge $-1 $365 $537 $367 $556 reversed $242 $-1 #
vertex $-1 $548 $760 #
straight-curve $-1 0 -43.43407535192388 11.168232016055772 1 0 0 I I #
edge $-1 $370 -11.168232016055772 $545 11.168232016055772 $367 $761 forward 7 unknown #
edge $-1 $371 -11.168232016055772 $544 11.168232016055772 $368 $762 forward 7 unknown #
point $-1 64.348887600329604 -43.43407535192388 11.168232016055772 #
point $-1 64.348887600329604 43.43407535192388 11.168232016055772 #
face $-1 $-1 $388 $58 $-1 $763 reversed single #
loop $-1 $-1 $576 $373 #
plane-surface $-1 0 6.9118132560020893 0 0 -1 0 0 0 -1 forward_v I I I I #
coedge $-1 $764 $574 $577 $765 forward $374 $-1 #
coedge $-1 $580 $376 $377 $568 reversed $250 $-1 #
coedge $-1 $574 $764 $376 $566 reversed $374 $-1 #
edge $-1 $581 -128.69777520065921 $766 128.69777520065921 $565 $767 forward 7 unknown #
coedge $-1 $378 $377 $764 $768 forward $157 $-1 #
edge $-1 $572 -257.39555040131842 $766 257.39555040131842 $564 $769 forward 7 unknown #
coedge $-1 $577 $576 $378 $570 reversed $561 $-1 #
edge $-1 $770 -257.39555040131842 $571 257.39555040131842 $569 $771 forward 7 unknown #
vertex $-1 $380 $772 #
vertex $-1 $583 $773 #
straight-curve $-1 257.39555040131842 0 -128.69777520065921 0 -1 0 I I #
coedge $-1 $563 $565 $381 $575 reversed $374 $-1 #
edge $-1 $578 -6.9118132560020893 $581 6.9118132560020893 $574 $774 forward 7 unknown #
coedge $-1 $569 $382 $387 $584 forward $561 $-1 #
coedge $-1 $382 $569 $563 $765 reversed $561 $-1 #
vertex $-1 $383 $775 #
straight-curve $-1 0 6.9118132560020893 128.69777520065921 -1 0 0 I I #
coedge $-1 $384 $564 $386 $583 reversed $250 $-1 #
vertex $-1 $575 $776 #
straight-curve $-1 0 -6.9118132560020893 128.69777520065921 1 0 0 I I #
edge $-1 $389 -128.69777520065921 $572 128.69777520065921 $386 $777 forward 7 unknown #
edge $-1 $390 -128.69777520065921 $571 128.69777520065921 $387 $778 forward 7 unknown #
point $-1 257.39555040131842 -6.9118132560020893 128.69777520065921 #
point $-1 257.39555040131842 6.9118132560020893 128.69777520065921 #
coedge $-1 $587 $587 $-1 $779 reversed $392 $-1 #
vertex $-1 $394 $780 #
ellipse-curve $-1 0 0 -0.5 0 0 -1 1 0 0 1 I I #
point $-1 1 0 -1.8925901058992274 #
coedge $-1 $591 $591 $-1 $781 reversed $397 $-1 #
vertex $-1 $399 $782 #
ellipse-curve $-1 0 0 -0.5 0 0 -1 1 0 0 1 I I #
point $-1 1 0 -1.8925901058992274 #
coedge $-1 $595 $595 $-1 $783 reversed $402 $-1 #
vertex $-1 $404 $784 #
ellipse-curve $-1 0 0 -0.5 0 0 -1 1 0 0 1 I I #
point $-1 1 0 -1.8925901058992274 #
face $-1 $-1 $422 $62 $-1 $785 reversed single #
loop $-1 $-1 $615 $407 #
plane-surface $-1 0 6.9118132560020893 0 0 -1 0 0 0 -1 forward_v I I I I #
coedge $-1 $786 $613 $616 $787 forward $408 $-1 #
coedge $-1 $619 $410 $411 $607 reversed $273 $-1 #
coedge $-1 $613 $786 $410 $605 reversed $408 $-1 #
edge $-1 $620 -128.69777520065921 $788 128.69777520065921 $604 $789 forward 7 unknown #
coedge $-1 $412 $411 $786 $790 forward $176 $-1 #
edge $-1 $611 -257.39555040131842 $788 257.39555040131842 $603 $791 forward 7 unknown #
coedge $-1 $616 $615 $412 $609 reversed $600 $-1 #
edge $-1 $792 -257.39555040131842 $610 257.39555040131842 $608 $793 forward 7 unknown #
vertex $-1 $414 $794 #
vertex $-1 $622 $795 #
straight-curve $-1 257.39555040131842 0 -128.69777520065921 0 -1 0 I I #
coedge $-1 $602 $604 $415 $614 reversed $408 $-1 #
edge $-1 $617 -6.9118132560020893 $620 6.9118132560020893 $613 $796 forward 7 unknown #
coedge $-1 $608 $416 $421 $623 forward $600 $-1 #
coedge $-1 $416 $608 $602 $787 reversed $600 $-1 #
vertex $-1 $417 $797 #
straight-curve $-1 0 6.9118132560020893 128.69777520065921 -1 0 0 I I #
coedge $-1 $418 $603 $420 $622 reversed $273 $-1 #
vertex $-1 $614 $798 #
straight-curve $-1 0 -6.9118132560020893 128.69777520065921 1 0 0 I I #
edge $-1 $423 -128.69777520065921 $611 128.69777520065921 $420 $799 forward 7 unknown #
edge $-1 $424 -128.69777520065921 $610 128.69777520065921 $421 $800 forward 7 unknown #
point $-1 257.39555040131842 -6.9118132560020893 128.69777520065921 #
point $-1 257.39555040131842 6.9118132560020893 128.69777520065921 #
coedge $-1 $626 $626 $-1 $801 reversed $426 $-1 #
vertex $-1 $428 $802 #
ellipse-curve $-1 0 0 -0.5 0 0 -1 1 0 0 1 I I #
point $-1 1 0 -1.8925901058992274 #
coedge $-1 $630 $630 $-1 $803 reversed $431 $-1 #
vertex $-1 $433 $804 #
ellipse-curve $-1 0 0 -0.5 0 0 -1 1 0 0 1 I I #
point $-1 1 0 -1.8925901058992274 #
coedge $-1 $634 $634 $-1 $805 reversed $436 $-1 #
vertex $-1 $438 $806 #
ellipse-curve $-1 0 0 -0.5 0 0 -1 1 0 0 1 I I #
point $-1 1 0 -1.8925901058992274 #
face $-1 $-1 $456 $66 $-1 $807 reversed single #
loop $-1 $-1 $654 $441 #
plane-surface $-1 0 6.9118132560020893 0 0 -1 0 0 0 -1 forward_v I I I I #
coedge $-1 $808 $652 $655 $809 forward $442 $-1 #
coedge $-1 $658 $444 $445 $646 reversed $296 $-1 #
coedge $-1 $652 $808 $444 $644 reversed $442 $-1 #
edge $-1 $659 -128.69777520065921 $810 128.69777520065921 $643 $811 forward 7 unknown #
coedge $-1 $446 $445 $808 $812 forward $195 $-1 #
edge $-1 $650 -257.39555040131842 $810 257.39555040131842 $642 $813 forward 7 unknown #
coedge $-1 $655 $654 $446 $648 reversed $639 $-1 #
edge $-1 $814 -257.39555040131842 $649 257.39555040131842 $647 $815 forward 7 unknown #
vertex $-1 $448 $816 #
vertex $-1 $661 $817 #
straight-curve $-1 257.39555040131842 0 -128.69777520065921 0 -1 0 I I #
coedge $-1 $641 $643 $449 $653 reversed $442 $-1 #
edge $-1 $656 -6.9118132560020893 $659 6.9118132560020893 $652 $818 forward 7 unknown #
coedge $-1 $647 $450 $455 $662 forward $639 $-1 #
coedge $-1 $450 $647 $641 $809 reversed $639 $-1 #
vertex $-1 $451 $819 #
straight-curve $-1 0 6.9118132560020893 128.69777520065921 -1 0 0 I I #
coedge $-1 $452 $642 $454 $661 reversed $296 $-1 #
vertex $-1 $653 $820 #
straight-curve $-1 0 -6.9118132560020893 128.69777520065921 1 0 0 I I #
edge $-1 $457 -128.69777520065921 $650 128.69777520065921 $454 $821 forward 7 unknown #
edge $-1 $458 -128.69777520065921 $649 128.69777520065921 $455 $822 forward 7 unknown #
point $-1 257.39555040131842 -6.9118132560020893 128.69777520065921 #
point $-1 257.39555040131842 6.9118132560020893 128.69777520065921 #
coedge $-1 $665 $665 $-1 $823 reversed $460 $-1 #
vertex $-1 $462 $824 #
ellipse-curve $-1 0 0 -0.5 0 0 -1 1 0 0 1 I I #
point $-1 1 0 -1.8925901058992274 #
coedge $-1 $669 $669 $-1 $825 reversed $465 $-1 #
vertex $-1 $467 $826 #
ellipse-curve $-1 0 0 -0.5 0 0 -1 1 0 0 1 I I #
point $-1 1 0 -1.8925901058992274 #
coedge $-1 $673 $673 $-1 $827 reversed $470 $-1 #
vertex $-1 $472 $828 #
ellipse-curve $-1 0 0 -0.5 0 0 -1 1 0 0 1 I I #
point $-1 1 0 -1.8925901058992274 #
face $-1 $-1 $490 $70 $-1 $829 reversed single #
loop $-1 $-1 $693 $475 #
plane-surface $-1 0 6.9118132560020893 0 0 -1 0 0 0 -1 forward_v I I I I #
coedge $-1 $830 $691 $694 $831 forward $476 $-1 #
coedge $-1 $697 $478 $479 $685 reversed $319 $-1 #
coedge $-1 $691 $830 $478 $683 reversed $476 $-1 #
edge $-1 $698 -128.69777520065921 $832 128.69777520065921 $682 $833 forward 7 unknown #
coedge $-1 $480 $479 $830 $834 forward $214 $-1 #
edge $-1 $689 -257.39555040131842 $832 257.39555040131842 $681 $835 forward 7 unknown #
coedge $-1 $694 $693 $480 $687 reversed $678 $-1 #
edge $-1 $836 -257.39555040131842 $688 257.39555040131842 $686 $837 forward 7 unknown #
vertex $-1 $482 $838 #
vertex $-1 $700 $839 #
straight-curve $-1 257.39555040131842 0 -128.69777520065921 0 -1 0 I I #
coedge $-1 $680 $682 $483 $692 reversed $476 $-1 #
edge $-1 $695 -6.9118132560020893 $698 6.9118132560020893 $691 $840 forward 7 unknown #
coedge $-1 $686 $484 $489 $701 forward $678 $-1 #
coedge $-1 $484 $686 $680 $831 reversed $678 $-1 #
vertex $-1 $485 $841 #
straight-curve $-1 0 6.9118132560020893 128.69777520065921 -1 0 0 I I #
coedge $-1 $486 $681 $488 $700 reversed $319 $-1 #
vertex $-1 $692 $842 #
straight-curve $-1 0 -6.9118132560020893 128.69777520065921 1 0 0 I I #
edge $-1 $491 -128.69777520065921 $689 128.69777520065921 $488 $843 forward 7 unknown #
edge $-1 $492 -128.69777520065921 $688 128.69777520065921 $489 $844 forward 7 unknown #
point $-1 257.39555040131842 -6.9118132560020893 128.69777520065921 #
point $-1 257.39555040131842 6.9118132560020893 128.69777520065921 #
coedge $-1 $704 $704 $-1 $845 reversed $494 $-1 #
vertex $-1 $496 $846 #
ellipse-curve $-1 0 0 -0.5 0 0 -1 1 0 0 1 I I #
point $-1 1 0 -1.8925901058992274 #
coedge $-1 $708 $708 $-1 $847 reversed $499 $-1 #
vertex $-1 $501 $848 #
ellipse-curve $-1 0 0 -0.5 0 0 -1 1 0 0 1 I I #
point $-1 1 0 -1.8925901058992274 #
coedge $-1 $712 $712 $-1 $849 reversed $504 $-1 #
vertex $-1 $506 $850 #
ellipse-curve $-1 0 0 -0.5 0 0 -1 1 0 0 1 I I #
point $-1 1 0 -1.8925901058992274 #
face $-1 $-1 $524 $74 $-1 $851 reversed single #
loop $-1 $-1 $732 $509 #
plane-surface $-1 0 11.919152261634089 0 0 -1 0 0 0 -1 forward_v I I I I #
coedge $-1 $852 $730 $733 $853 forward $510 $-1 #
coedge $-1 $736 $512 $513 $724 reversed $342 $-1 #
coedge $-1 $730 $852 $512 $722 reversed $510 $-1 #
edge $-1 $737 -128.69777520065921 $854 128.69777520065921 $721 $855 forward 7 unknown #
coedge $-1 $514 $513 $852 $856 forward $233 $-1 #
edge $-1 $728 -257.39555040131842 $854 257.39555040131842 $720 $857 forward 7 unknown #
coedge $-1 $733 $732 $514 $726 reversed $717 $-1 #
edge $-1 $858 -257.39555040131842 $727 257.39555040131842 $725 $859 forward 7 unknown #
vertex $-1 $516 $860 #
vertex $-1 $739 $861 #
straight-curve $-1 257.39555040131842 0 -128.69777520065921 0 -1 0 I I #
coedge $-1 $719 $721 $517 $731 reversed $510 $-1 #
edge $-1 $734 -11.919152261634089 $737 11.919152261634089 $730 $862 forward 7 unknown #
coedge $-1 $725 $518 $523 $740 forward $717 $-1 #
coedge $-1 $518 $725 $719 $853 reversed $717 $-1 #
vertex $-1 $519 $863 #
straight-curve $-1 0 11.919152261634089 128.69777520065921 -1 0 0 I I #
coedge $-1 $520 $720 $522 $739 reversed $342 $-1 #
vertex $-1 $731 $864 #
straight-curve $-1 0 -11.919152261634089 128.69777520065921 1 0 0 I I #
edge $-1 $525 -128.69777520065921 $728 128.69777520065921 $522 $865 forward 7 unknown #
edge $-1 $526 -128.69777520065921 $727 128.69777520065921 $523 $866 forward 7 unknown #
point $-1 257.39555040131842 -11.919152261634089 128.69777520065921 #
point $-1 257.39555040131842 11.919152261634089 128.69777520065921 #
coedge $-1 $743 $743 $-1 $867 reversed $528 $-1 #
vertex $-1 $530 $868 #
ellipse-curve $-1 0 0 -0.75 0 0 -1 1.5 0 0 1 I I #
point $-1 1.5 0 -6.00853755302591 #
plane-surface $-1 64.348887600329604 0 0 -1 0 0 0 0 1 forward_v I I I I #
coedge $-1 $538 $536 $540 $752 reversed $355 $-1 #
edge $-1 $551 -11.168232016055772 $754 11.168232016055772 $550 $869 forward 7 unknown #
vertex $-1 $752 $870 #
straight-curve $-1 -64.348887600329604 -43.43407535192388 0 0 0 -1 I I #
edge $-1 $750 -43.43407535192388 $754 43.43407535192388 $748 $871 forward 7 unknown #
straight-curve $-1 0 -43.43407535192388 -11.168232016055772 -1 0 0 I I #
vertex $-1 $543 $872 #
straight-curve $-1 0 43.43407535192388 -11.168232016055772 1 0 0 I I #
point $-1 64.348887600329604 43.43407535192388 -11.168232016055772 #
point $-1 64.348887600329604 -43.43407535192388 -11.168232016055772 #
straight-curve $-1 -64.348887600329604 0 11.168232016055772 0 -1 0 I I #
point $-1 -64.348887600329604 43.43407535192388 11.168232016055772 #
point $-1 -64.348887600329604 -43.43407535192388 11.168232016055772 #
straight-curve $-1 64.348887600329604 -43.43407535192388 0 0 0 -1 I I #
straight-curve $-1 64.348887600329604 43.43407535192388 0 0 0 -1 I I #
plane-surface $-1 257.39555040131842 0 0 -1 0 0 0 0 1 forward_v I I I I #
coedge $-1 $565 $563 $567 $768 reversed $374 $-1 #
edge $-1 $578 -128.69777520065921 $770 128.69777520065921 $577 $873 forward 7 unknown #
vertex $-1 $768 $874 #
straight-curve $-1 -257.39555040131842 -6.9118132560020893 0 0 0 -1 I I #
edge $-1 $766 -6.9118132560020893 $770 6.9118132560020893 $764 $875 forward 7 unknown #
straight-curve $-1 0 -6.9118132560020893 -128.69777520065921 -1 0 0 I I #
vertex $-1 $570 $876 #
straight-curve $-1 0 6.9118132560020893 -128.69777520065921 1 0 0 I I #
point $-1 257.39555040131842 6.9118132560020893 -128.69777520065921 #
point $-1 257.39555040131842 -6.9118132560020893 -128.69777520065921 #
straight-curve $-1 -257.39555040131842 0 128.69777520065921 0 -1 0 I I #
point $-1 -257.39555040131842 6.9118132560020893 128.69777520065921 #
point $-1 -257.39555040131842 -6.9118132560020893 128.69777520065921 #
straight-curve $-1 257.39555040131842 -6.9118132560020893 0 0 0 -1 I I #
straight-curve $-1 257.39555040131842 6.9118132560020893 0 0 0 -1 I I #
edge $-1 $877 1 $877 0 $587 $-1 forward 7 unknown #
point $-1 1 0 -0.5 #
edge $-1 $878 1 $878 0 $591 $-1 forward 7 unknown #
point $-1 1 0 -0.5 #
edge $-1 $879 1 $879 0 $595 $-1 forward 7 unknown #
point $-1 1 0 -0.5 #
plane-surface $-1 257.39555040131842 0 0 -1 0 0 0 0 1 forward_v I I I I #
coedge $-1 $604 $602 $606 $790 reversed $408 $-1 #
edge $-1 $617 -128.69777520065921 $792 128.69777520065921 $616 $880 forward 7 unknown #
vertex $-1 $790 $881 #
straight-curve $-1 -257.39555040131842 -6.9118132560020893 0 0 0 -1 I I #
edge $-1 $788 -6.9118132560020893 $792 6.9118132560020893 $786 $882 forward 7 unknown #
straight-curve $-1 0 -6.9118132560020893 -128.69777520065921 -1 0 0 I I #
vertex $-1 $609 $883 #
straight-curve $-1 0 6.9118132560020893 -128.69777520065921 1 0 0 I I #
point $-1 257.39555040131842 6.9118132560020893 -128.69777520065921 #
point $-1 257.39555040131842 -6.9118132560020893 -128.69777520065921 #
straight-curve $-1 -257.39555040131842 0 128.69777520065921 0 -1 0 I I #
point $-1 -257.39555040131842 6.9118132560020893 128.69777520065921 #
point $-1 -257.39555040131842 -6.9118132560020893 128.69777520065921 #
straight-curve $-1 257.39555040131842 -6.9118132560020893 0 0 0 -1 I I #
straight-curve $-1 257.39555040131842 6.9118132560020893 0 0 0 -1 I I #
edge $-1 $884 1 $884 0 $626 $-1 forward 7 unknown #
point $-1 1 0 -0.5 #
edge $-1 $885 1 $885 0 $630 $-1 forward 7 unknown #
point $-1 1 0 -0.5 #
edge $-1 $886 1 $886 0 $634 $-1 forward 7 unknown #
point $-1 1 0 -0.5 #
plane-surface $-1 257.39555040131842 0 0 -1 0 0 0 0 1 forward_v I I I I #
coedge $-1 $643 $641 $645 $812 reversed $442 $-1 #
edge $-1 $656 -128.69777520065921 $814 128.69777520065921 $655 $887 forward 7 unknown #
vertex $-1 $812 $888 #
straight-curve $-1 -257.39555040131842 -6.9118132560020893 0 0 0 -1 I I #
edge $-1 $810 -6.9118132560020893 $814 6.9118132560020893 $808 $889 forward 7 unknown #
straight-curve $-1 0 -6.9118132560020893 -128.69777520065921 -1 0 0 I I #
vertex $-1 $648 $890 #
straight-curve $-1 0 6.9118132560020893 -128.69777520065921 1 0 0 I I #
point $-1 257.39555040131842 6.9118132560020893 -128.69777520065921 #
point $-1 257.39555040131842 -6.9118132560020893 -128.69777520065921 #
straight-curve $-1 -257.39555040131842 0 128.69777520065921 0 -1 0 I I #
point $-1 -257.39555040131842 6.9118132560020893 128.69777520065921 #
point $-1 -257.39555040131842 -6.9118132560020893 128.69777520065921 #
straight-curve $-1 257.39555040131842 -6.9118132560020893 0 0 0 -1 I I #
straight-curve $-1 257.39555040131842 6.9118132560020893 0 0 0 -1 I I #
edge $-1 $891 1 $891 0 $665 $-1 forward 7 unknown #
point $-1 1 0 -0.5 #
edge $-1 $892 1 $892 0 $669 $-1 forward 7 unknown #
point $-1 1 0 -0.5 #
edge $-1 $893 1 $893 0 $673 $-1 forward 7 unknown #
point $-1 1 0 -0.5 #
plane-surface $-1 257.39555040131842 0 0 -1 0 0 0 0 1 forward_v I I I I #
coedge $-1 $682 $680 $684 $834 reversed $476 $-1 #
edge $-1 $695 -128.69777520065921 $836 128.69777520065921 $694 $894 forward 7 unknown #
vertex $-1 $834 $895 #
straight-curve $-1 -257.39555040131842 -6.9118132560020893 0 0 0 -1 I I #
edge $-1 $832 -6.9118132560020893 $836 6.9118132560020893 $830 $896 forward 7 unknown #
straight-curve $-1 0 -6.9118132560020893 -128.69777520065921 -1 0 0 I I #
vertex $-1 $687 $897 #
straight-curve $-1 0 6.9118132560020893 -128.69777520065921 1 0 0 I I #
point $-1 257.39555040131842 6.9118132560020893 -128.69777520065921 #
point $-1 257.39555040131842 -6.9118132560020893 -128.69777520065921 #
straight-curve $-1 -257.39555040131842 0 128.69777520065921 0 -1 0 I I #
point $-1 -257.39555040131842 6.9118132560020893 128.69777520065921 #
point $-1 -257.39555040131842 -6.9118132560020893 128.69777520065921 #
straight-curve $-1 257.39555040131842 -6.9118132560020893 0 0 0 -1 I I #
straight-curve $-1 257.39555040131842 6.9118132560020893 0 0 0 -1 I I #
edge $-1 $898 1 $898 0 $704 $-1 forward 7 unknown #
point $-1 1 0 -0.5 #
edge $-1 $899 1 $899 0 $708 $-1 forward 7 unknown #
point $-1 1 0 -0.5 #
edge $-1 $900 1 $900 0 $712 $-1 forward 7 unknown #
point $-1 1 0 -0.5 #
plane-surface $-1 257.39555040131842 0 0 -1 0 0 0 0 1 forward_v I I I I #
coedge $-1 $721 $719 $723 $856 reversed $510 $-1 #
edge $-1 $734 -128.69777520065921 $858 128.69777520065921 $733 $901 forward 7 unknown #
vertex $-1 $856 $902 #
straight-curve $-1 -257.39555040131842 -11.919152261634089 0 0 0 -1 I I #
edge $-1 $854 -11.919152261634089 $858 11.919152261634089 $852 $903 forward 7 unknown #
straight-curve $-1 0 -11.919152261634089 -128.69777520065921 -1 0 0 I I #
vertex $-1 $726 $904 #
straight-curve $-1 0 11.919152261634089 -128.69777520065921 1 0 0 I I #
point $-1 257.39555040131842 11.919152261634089 -128.69777520065921 #
point $-1 257.39555040131842 -11.919152261634089 -128.69777520065921 #
straight-curve $-1 -257.39555040131842 0 128.69777520065921 0 -1 0 I I #
point $-1 -257.39555040131842 11.919152261634089 128.69777520065921 #
point $-1 -257.39555040131842 -11.919152261634089 128.69777520065921 #
straight-curve $-1 257.39555040131842 -11.919152261634089 0 0 0 -1 I I #
straight-curve $-1 257.39555040131842 11.919152261634089 0 0 0 -1 I I #
edge $-1 $905 1 $905 0 $743 $-1 forward 7 unknown #
point $-1 1.5 0 -0.75 #
straight-curve $-1 -64.348887600329604 43.43407535192388 0 0 0 -1 I I #
point $-1 -64.348887600329604 -43.43407535192388 -11.168232016055772 #
straight-curve $-1 -64.348887600329604 0 -11.168232016055772 0 1 0 I I #
point $-1 -64.348887600329604 43.43407535192388 -11.168232016055772 #
straight-curve $-1 -257.39555040131842 6.9118132560020893 0 0 0 -1 I I #
point $-1 -257.39555040131842 -6.9118132560020893 -128.69777520065921 #
straight-curve $-1 -257.39555040131842 0 -128.69777520065921 0 1 0 I I #
point $-1 -257.39555040131842 6.9118132560020893 -128.69777520065921 #
vertex $-1 $779 $906 #
vertex $-1 $781 $907 #
vertex $-1 $783 $908 #
straight-curve $-1 -257.39555040131842 6.9118132560020893 0 0 0 -1 I I #
point $-1 -257.39555040131842 -6.9118132560020893 -128.69777520065921 #
straight-curve $-1 -257.39555040131842 0 -128.69777520065921 0 1 0 I I #
point $-1 -257.39555040131842 6.9118132560020893 -128.69777520065921 #
vertex $-1 $801 $909 #
vertex $-1 $803 $910 #
vertex $-1 $805 $911 #
straight-curve $-1 -257.39555040131842 6.9118132560020893 0 0 0 -1 I I #
point $-1 -257.39555040131842 -6.9118132560020893 -128.69777520065921 #
straight-curve $-1 -257.39555040131842 0 -128.69777520065921 0 1 0 I I #
point $-1 -257.39555040131842 6.9118132560020893 -128.69777520065921 #
vertex $-1 $823 $912 #
vertex $-1 $825 $913 #
vertex $-1 $827 $914 #
straight-curve $-1 -257.39555040131842 6.9118132560020893 0 0 0 -1 I I #
point $-1 -257.39555040131842 -6.9118132560020893 -128.69777520065921 #
straight-curve $-1 -257.39555040131842 0 -128.69777520065921 0 1 0 I I #
point $-1 -257.39555040131842 6.9118132560020893 -128.69777520065921 #
vertex $-1 $845 $915 #
vertex $-1 $847 $916 #
vertex $-1 $849 $917 #
straight-curve $-1 -257.39555040131842 11.919152261634089 0 0 0 -1 I I #
point $-1 -257.39555040131842 -11.919152261634089 -128.69777520065921 #
straight-curve $-1 -257.39555040131842 0 -128.69777520065921 0 1 0 I I #
point $-1 -257.39555040131842 11.919152261634089 -128.69777520065921 #
vertex $-1 $867 $918 #
point $-1 0 0 0.5 #
point $-1 0 0 0.5 #
point $-1 0 0 0.5 #
point $-1 0 0 0.5 #
point $-1 0 0 0.5 #
point $-1 0 0 0.5 #
point $-1 0 0 0.5 #
point $-1 0 0 0.5 #
point $-1 0 0 0.5 #
point $-1 0 0 0.5 #
point $-1 0 0 0.5 #
point $-1 0 0 0.5 #
point $-1 0 0 0.75 #
End-of-ACIS-data 