500 0 9 0           
7 Unknown 11 ACIS 5.0 NT 24 Fri Mar 26 02:22:20 1999 
-1 9.9999999999999995e-007 1e-010 
body $-1 $9 $-1 $10 #
body $-1 $11 $-1 $12 #
body $-1 $13 $-1 $14 #
body $-1 $15 $-1 $16 #
body $-1 $17 $-1 $18 #
body $-1 $19 $-1 $20 #
body $-1 $21 $-1 $22 #
body $-1 $23 $-1 $24 #
body $-1 $25 $-1 $26 #
lump $-1 $-1 $27 $0 #
transform $-1 1 0 0 0 1 0 0 0 1 59.862666707358017 40.106726119570659 15.910253918205854 1 rotate no_reflect no_shear #
lump $-1 $-1 $28 $1 #
transform $-1 1 0 0 0 1 0 0 0 1 59.862666707358017 40.106726119570659 15.910253918205854 1 rotate no_reflect no_shear #
lump $-1 $-1 $29 $2 #
transform $-1 1 0 0 0 1 0 0 0 1 59.862666707358017 40.106726119570659 15.910253918205854 1 rotate no_reflect no_shear #
lump $-1 $-1 $30 $3 #
transform $-1 1 0 0 0 1 0 0 0 1 59.862666707358017 40.106726119570659 15.910253918205854 1 rotate no_reflect no_shear #
lump $-1 $-1 $31 $4 #
transform $-1 1 0 0 0 1 0 0 0 1 59.862666707358017 40.106726119570659 15.910253918205854 1 rotate no_reflect no_shear #
lump $-1 $-1 $32 $5 #
transform $-1 1 0 0 0 1 0 0 0 1 59.862666707358017 40.106726119570659 15.910253918205854 1 rotate no_reflect no_shear #
lump $-1 $-1 $33 $6 #
transform $-1 1 0 0 0 1 0 0 0 1 59.862666707358017 40.106726119570659 15.910253918205854 1 rotate no_reflect no_shear #
lump $-1 $-1 $34 $7 #
transform $-1 1 0 0 0 1 0 0 0 1 59.862666707358017 40.106726119570659 15.910253918205854 1 rotate no_reflect no_shear #
lump $-1 $-1 $35 $8 #
transform $-1 1 0 0 0 1 0 0 0 1 59.862666707358017 40.106726119570659 15.910253918205854 1 rotate no_reflect no_shear #
shell $-1 $-1 $-1 $36 $-1 $9 #
shell $-1 $-1 $-1 $37 $-1 $11 #
shell $-1 $-1 $-1 $38 $-1 $13 #
shell $-1 $-1 $-1 $39 $-1 $15 #
shell $-1 $-1 $-1 $40 $-1 $17 #
shell $-1 $-1 $-1 $41 $-1 $19 #
shell $-1 $-1 $-1 $42 $-1 $21 #
shell $-1 $-1 $-1 $43 $-1 $23 #
shell $-1 $-1 $-1 $44 $-1 $25 #
face $-1 $45 $46 $27 $-1 $47 forward single #
face $-1 $48 $49 $28 $-1 $50 forward single #
face $-1 $51 $52 $29 $-1 $53 reversed single #
face $-1 $54 $55 $30 $-1 $56 forward single #
face $-1 $57 $58 $31 $-1 $59 forward single #
face $-1 $60 $61 $32 $-1 $62 forward single #
face $-1 $63 $64 $33 $-1 $65 reversed single #
face $-1 $66 $67 $34 $-1 $68 forward single #
face $-1 $69 $70 $35 $-1 $71 forward single #
face $-1 $72 $73 $27 $-1 $74 reversed single #
loop $-1 $-1 $75 $36 #
plane-surface $-1 0 0 15.910253918205854 0 0 1 1 0 0 forward_v I I I I #
face $-1 $76 $77 $28 $-1 $78 reversed single #
loop $-1 $-1 $79 $37 #
plane-surface $-1 0 -32.531669086139161 3.3195434357444844 0 0 1 1 0 0 forward_v I I I I #
face $-1 $80 $81 $29 $-1 $82 reversed single #
loop $-1 $-1 $83 $38 #
plane-surface $-1 53.953583859744583 23.698596753843034 170.52370855526738 0 1 0 0.68199836817093118 0 0.7313536940579346 forward_v I I I I #
face $-1 $84 $85 $30 $-1 $86 forward single #
loop $-1 $87 $88 $39 #
cone-surface $-1 51.517163050231112 26.307047476319759 8.0556561102909008 -0.68199836817093118 0 -0.7313536940579346 0.7313536940579346 0 -0.68199836817093118 1 I I 0 1 1 forward I I I I #
face $-1 $89 $90 $31 $-1 $91 forward single #
loop $-1 $92 $93 $40 #
cone-surface $-1 51.517163050231112 30.219723560034858 8.0556561102909008 -0.68199836817093118 0 -0.7313536940579346 0.7313536940579346 0 -0.68199836817093118 1 I I 0 1 1 forward I I I I #
face $-1 $94 $95 $32 $-1 $96 forward single #
loop $-1 $97 $98 $41 #
cone-surface $-1 51.517163050231112 34.132399643749956 8.0556561102909008 -0.68199836817093118 0 -0.7313536940579346 0.7313536940579346 0 -0.68199836817093118 1 I I 0 1 1 forward I I I I #
face $-1 $99 $100 $33 $-1 $101 reversed single #
loop $-1 $-1 $102 $42 #
plane-surface $-1 -163.54784784714357 7.664562918797877 60.168016425909855 0 1 0 -0.86602541151947299 0 0.49999998660252726 forward_v I I I I #
face $-1 $103 $104 $34 $-1 $105 forward single #
loop $-1 $106 $107 $43 #
cone-surface $-1 -54.450518240341786 12.954694623213413 7.5839142711325129 0.86602541151947299 0 -0.49999998660252726 0.49999998660252726 0 0.86602541151947299 1 I I 0 1 1 forward I I I I #
face $-1 $108 $109 $35 $-1 $110 forward single #
loop $-1 $111 $112 $44 #
cone-surface $-1 -54.450518240341786 20.889892179836714 7.5839142711325129 0.86602541151947299 0 -0.49999998660252726 0.49999998660252726 0 0.86602541151947299 1 I I 0 1 1 forward I I I I #
face $-1 $113 $114 $27 $-1 $115 reversed single #
loop $-1 $-1 $116 $45 #
plane-surface $-1 0 0 -15.910253918205854 0 0 1 1 0 0 forward_v I I I I #
coedge $-1 $117 $118 $119 $120 forward $46 $-1 #
face $-1 $121 $122 $28 $-1 $123 reversed single #
loop $-1 $-1 $124 $48 #
plane-surface $-1 0 -32.531669086139161 -0.015166542570717034 0 0 1 1 0 0 forward_v I I I I #
coedge $-1 $125 $126 $127 $128 reversed $49 $-1 #
face $-1 $129 $130 $29 $-1 $131 reversed single #
loop $-1 $-1 $132 $51 #
plane-surface $-1 -27.698898157812422 30.219723560034872 82.962143690096923 0.68199836817093118 0 0.7313536940579346 0.7313536940579346 0 -0.68199836817093118 forward_v I I I I #
coedge $-1 $133 $134 $135 $136 reversed $52 $-1 #
face $-1 $-1 $137 $30 $-1 $138 forward single #
loop $-1 $139 $140 $54 #
cone-surface $-1 50.659269171045665 26.307047476319759 7.1356775781799371 -0.68199836817093118 0 -0.7313536940579346 0.3656768470289673 0 -0.34099918408546559 1 I I -0.70710678118654746 0.70710678118654746 0.5 forward I I I I #
loop $-1 $-1 $141 $39 #
coedge $-1 $88 $88 $142 $143 reversed $55 $-1 #
face $-1 $-1 $144 $31 $-1 $145 forward single #
loop $-1 $146 $147 $57 #
cone-surface $-1 50.659269171045665 30.219723560034858 7.1356775781799371 -0.68199836817093118 0 -0.7313536940579346 0.3656768470289673 0 -0.34099918408546559 1 I I -0.70710678118654746 0.70710678118654746 0.5 forward I I I I #
loop $-1 $-1 $148 $40 #
coedge $-1 $93 $93 $149 $150 reversed $58 $-1 #
face $-1 $-1 $151 $32 $-1 $152 forward single #
loop $-1 $153 $154 $60 #
cone-surface $-1 50.659269171045665 34.132399643749956 7.1356775781799371 -0.68199836817093118 0 -0.7313536940579346 0.3656768470289673 0 -0.34099918408546559 1 I I -0.70710678118654746 0.70710678118654746 0.5 forward I I I I #
loop $-1 $-1 $155 $41 #
coedge $-1 $98 $98 $156 $157 reversed $61 $-1 #
face $-1 $158 $159 $33 $-1 $160 reversed single #
loop $-1 $-1 $161 $63 #
plane-surface $-1 -59.862666707358017 16.922293401525067 0.30535132256873254 -0.86602541151947299 0 0.49999998660252726 0.49999998660252726 0 0.86602541151947299 forward_v I I I I #
coedge $-1 $162 $163 $164 $165 reversed $64 $-1 #
face $-1 $-1 $166 $34 $-1 $167 forward single #
loop $-1 $168 $169 $66 #
cone-surface $-1 -53.110104263761031 12.954694623213413 6.8100259285764722 0.86602541151947299 0 -0.49999998660252726 0.24999999330126363 0 0.43301270575973649 1 I I -0.70710678118654746 0.70710678118654746 0.5 forward I I I I #
loop $-1 $-1 $170 $43 #
coedge $-1 $107 $107 $171 $172 reversed $67 $-1 #
face $-1 $-1 $173 $35 $-1 $174 forward single #
loop $-1 $175 $176 $69 #
cone-surface $-1 -53.110104263761031 20.889892179836714 6.8100259285764722 0.86602541151947299 0 -0.49999998660252726 0.24999999330126363 0 0.43301270575973649 1 I I -0.70710678118654746 0.70710678118654746 0.5 forward I I I I #
loop $-1 $-1 $177 $44 #
coedge $-1 $112 $112 $178 $179 reversed $70 $-1 #
face $-1 $180 $181 $27 $-1 $182 reversed single #
loop $-1 $-1 $183 $72 #
plane-surface $-1 0 -40.106726119570659 0 0 1 0 0 0 1 forward_v I I I I #
coedge $-1 $184 $185 $186 $187 forward $73 $-1 #
coedge $-1 $188 $75 $189 $190 forward $46 $-1 #
coedge $-1 $75 $188 $191 $192 forward $46 $-1 #
coedge $-1 $193 $194 $75 $120 reversed $195 $-1 #
edge $-1 $196 -40.106726119570659 $197 40.106726119570659 $119 $198 forward 7 unknown #
face $-1 $199 $200 $28 $-1 $201 reversed single #
loop $-1 $-1 $202 $76 #
plane-surface $-1 0 -24.956612052707662 1.6521884465868837 0 -1 0 0 0 -1 forward_v I I I I #
coedge $-1 $203 $204 $205 $206 reversed $77 $-1 #
coedge $-1 $207 $79 $208 $209 forward $49 $-1 #
coedge $-1 $79 $207 $210 $211 reversed $49 $-1 #
coedge $-1 $212 $213 $79 $128 forward $214 $-1 #
edge $-1 $215 8.6907775096380817 $216 23.840891576501079 $127 $217 forward 7 unknown #
face $-1 $218 $219 $29 $-1 $220 forward single #
loop $-1 $-1 $221 $80 #
plane-surface $-1 53.953583859744583 36.740850366226709 170.52370855526738 0 -1 0 -0.68199836817093118 0 -0.7313536940579346 forward_v I I I I #
coedge $-1 $222 $223 $224 $225 reversed $81 $-1 #
coedge $-1 $134 $83 $226 $227 reversed $52 $-1 #
coedge $-1 $83 $133 $222 $228 reversed $52 $-1 #
coedge $-1 $224 $229 $83 $136 forward $230 $-1 #
edge $-1 $231 69.351600359427835 $232 83.952192605093757 $135 $233 forward 7 unknown #
loop $-1 $-1 $142 $84 #
plane-surface $-1 -27.698898157812422 30.219723560034872 82.962143690096923 0.68199836817093118 0 0.7313536940579346 0.7313536940579346 0 -0.68199836817093118 forward_v I I I I #
loop $-1 $-1 $234 $54 #
coedge $-1 $140 $140 $141 $235 reversed $85 $-1 #
coedge $-1 $141 $141 $140 $235 forward $87 $-1 #
coedge $-1 $142 $142 $88 $143 forward $137 $-1 #
edge $-1 $236 0 $236 6.2831853071796004 $142 $237 forward 7 unknown #
loop $-1 $-1 $149 $89 #
plane-surface $-1 -27.698898157812422 30.219723560034872 82.962143690096923 0.68199836817093118 0 0.7313536940579346 0.7313536940579346 0 -0.68199836817093118 forward_v I I I I #
loop $-1 $-1 $238 $57 #
coedge $-1 $147 $147 $148 $239 reversed $90 $-1 #
coedge $-1 $148 $148 $147 $239 forward $92 $-1 #
coedge $-1 $149 $149 $93 $150 forward $144 $-1 #
edge $-1 $240 0 $240 6.2831853071796004 $149 $241 forward 7 unknown #
loop $-1 $-1 $156 $94 #
plane-surface $-1 -27.698898157812422 30.219723560034872 82.962143690096923 0.68199836817093118 0 0.7313536940579346 0.7313536940579346 0 -0.68199836817093118 forward_v I I I I #
loop $-1 $-1 $242 $60 #
coedge $-1 $154 $154 $155 $243 reversed $95 $-1 #
coedge $-1 $155 $155 $154 $243 forward $97 $-1 #
coedge $-1 $156 $156 $98 $157 forward $151 $-1 #
edge $-1 $244 0 $244 6.2831853071796004 $156 $245 forward 7 unknown #
face $-1 $246 $247 $33 $-1 $248 reversed single #
loop $-1 $-1 $249 $99 #
plane-surface $-1 -163.54784784714357 26.180023884252257 60.168016425909855 0 -1 0 0.86602541151947299 0 -0.49999998660252726 forward_v I I I I #
coedge $-1 $250 $251 $252 $253 reversed $100 $-1 #
coedge $-1 $163 $102 $254 $255 reversed $64 $-1 #
coedge $-1 $102 $162 $250 $256 reversed $64 $-1 #
coedge $-1 $252 $257 $102 $165 forward $258 $-1 #
edge $-1 $259 21.91125721621377 $260 30.920751608604192 $164 $261 forward 7 unknown #
loop $-1 $-1 $171 $103 #
plane-surface $-1 -59.862666707358017 16.922293401525067 0.30535132256873254 -0.86602541151947299 0 0.49999998660252726 0.49999998660252726 0 0.86602541151947299 forward_v I I I I #
loop $-1 $-1 $262 $66 #
coedge $-1 $169 $169 $170 $263 reversed $104 $-1 #
coedge $-1 $170 $170 $169 $263 forward $106 $-1 #
coedge $-1 $171 $171 $107 $172 forward $166 $-1 #
edge $-1 $264 0 $264 6.2831853071796004 $171 $265 forward 7 unknown #
loop $-1 $-1 $178 $108 #
plane-surface $-1 -59.862666707358017 16.922293401525067 0.30535132256873254 -0.86602541151947299 0 0.49999998660252726 0.49999998660252726 0 0.86602541151947299 forward_v I I I I #
loop $-1 $-1 $266 $69 #
coedge $-1 $176 $176 $177 $267 reversed $109 $-1 #
coedge $-1 $177 $177 $176 $267 forward $111 $-1 #
coedge $-1 $178 $178 $112 $179 forward $173 $-1 #
edge $-1 $268 0 $268 6.2831853071796004 $178 $269 forward 7 unknown #
face $-1 $270 $271 $27 $-1 $272 reversed single #
loop $-1 $-1 $273 $113 #
plane-surface $-1 -59.862666707358017 0 0 1 0 0 0 0 -1 forward_v I I I I #
coedge $-1 $274 $191 $275 $276 forward $114 $-1 #
coedge $-1 $277 $116 $274 $278 forward $73 $-1 #
coedge $-1 $116 $277 $279 $280 forward $73 $-1 #
coedge $-1 $194 $193 $116 $187 reversed $195 $-1 #
edge $-1 $281 -40.106726119570659 $282 40.106726119570659 $186 $283 forward 7 unknown #
coedge $-1 $118 $117 $284 $285 forward $46 $-1 #
coedge $-1 $286 $287 $117 $190 reversed $271 $-1 #
edge $-1 $197 -59.862666707358017 $288 59.862666707358017 $189 $289 forward 7 unknown #
coedge $-1 $183 $290 $118 $192 reversed $114 $-1 #
edge $-1 $291 -59.862666707358017 $196 59.862666707358017 $191 $292 forward 7 unknown #
coedge $-1 $186 $119 $290 $293 forward $195 $-1 #
coedge $-1 $119 $186 $286 $294 reversed $195 $-1 #
loop $-1 $-1 $193 $270 #
vertex $-1 $120 $295 #
vertex $-1 $120 $296 #
straight-curve $-1 59.862666707358017 0 15.910253918205854 0 1 0 I I #
face $-1 $297 $298 $28 $-1 $299 reversed single #
loop $-1 $-1 $300 $121 #
plane-surface $-1 -59.862666707358017 0 0 1 0 0 0 0 -1 forward_v I I I I #
coedge $-1 $301 $208 $213 $302 reversed $122 $-1 #
coedge $-1 $303 $124 $304 $305 reversed $77 $-1 #
coedge $-1 $124 $303 $301 $306 forward $77 $-1 #
coedge $-1 $213 $212 $124 $206 forward $214 $-1 #
edge $-1 $307 -23.840891576501079 $308 -8.6907775096380817 $205 $309 forward 7 unknown #
coedge $-1 $126 $125 $300 $310 reversed $49 $-1 #
coedge $-1 $202 $311 $125 $209 reversed $122 $-1 #
edge $-1 $215 -59.862666707358017 $312 59.862666707358017 $208 $313 forward 7 unknown #
coedge $-1 $314 $315 $126 $211 forward $298 $-1 #
edge $-1 $216 -59.862666707358017 $316 59.862666707358017 $210 $317 forward 7 unknown #
coedge $-1 $205 $127 $315 $318 forward $214 $-1 #
coedge $-1 $127 $205 $202 $302 forward $214 $-1 #
loop $-1 $-1 $127 $297 #
vertex $-1 $128 $319 #
vertex $-1 $318 $320 #
straight-curve $-1 59.862666707358017 -16.26583454306958 3.3195434357444844 0 -1 0 I I #
face $-1 $-1 $230 $29 $-1 $321 reversed single #
loop $-1 $-1 $322 $129 #
plane-surface $-1 0 0 15.910253918205854 0 0 1 1 0 0 forward_v I I I I #
coedge $-1 $323 $324 $325 $326 reversed $130 $-1 #
coedge $-1 $327 $132 $134 $228 forward $81 $-1 #
coedge $-1 $132 $327 $323 $328 forward $81 $-1 #
coedge $-1 $325 $135 $132 $225 forward $230 $-1 #
edge $-1 $232 8.5887349738255985 $329 21.630988586209273 $224 $330 forward 7 unknown #
coedge $-1 $331 $332 $133 $227 forward $219 $-1 #
edge $-1 $333 17.228656853431829 $231 32.885874777485725 $226 $334 forward 7 unknown #
edge $-1 $232 -119.72533341471603 $333 -98.316789161415784 $134 $335 forward 7 unknown #
coedge $-1 $135 $325 $331 $336 reversed $230 $-1 #
loop $-1 $-1 $325 $218 #
vertex $-1 $336 $337 #
vertex $-1 $136 $338 #
straight-curve $-1 59.862666707358017 23.698596753843034 85.261854277633688 0 0 -1 I I #
coedge $-1 $234 $234 $-1 $339 reversed $139 $-1 #
edge $-1 $340 0 $340 6.2831853071796004 $140 $341 forward 7 unknown #
vertex $-1 $143 $342 #
ellipse-curve $-1 52.034057745331083 26.307047476319759 8.6099577953728925 0.68199836817093118 0 0.7313536940579346 0.7313536940579346 0 -0.68199836817093118 1 I I #
coedge $-1 $238 $238 $-1 $343 reversed $146 $-1 #
edge $-1 $344 0 $344 6.2831853071796004 $147 $345 forward 7 unknown #
vertex $-1 $150 $346 #
ellipse-curve $-1 52.034057745331083 30.219723560034858 8.6099577953728925 0.68199836817093118 0 0.7313536940579346 0.7313536940579346 0 -0.68199836817093118 1 I I #
coedge $-1 $242 $242 $-1 $347 reversed $153 $-1 #
edge $-1 $348 0 $348 6.2831853071796004 $154 $349 forward 7 unknown #
vertex $-1 $157 $350 #
ellipse-curve $-1 52.034057745331083 34.132399643749956 8.6099577953728925 0.68199836817093118 0 0.7313536940579346 0.7313536940579346 0 -0.68199836817093118 1 I I #
face $-1 $-1 $258 $33 $-1 $351 forward single #
loop $-1 $-1 $352 $158 #
plane-surface $-1 -59.862666707358017 0 0 1 0 0 0 0 -1 forward_v I I I I #
coedge $-1 $353 $354 $355 $356 reversed $159 $-1 #
coedge $-1 $357 $161 $163 $256 forward $100 $-1 #
coedge $-1 $161 $357 $353 $358 forward $100 $-1 #
coedge $-1 $355 $164 $161 $253 forward $258 $-1 #
edge $-1 $260 -0.79658378196465662 $359 17.718877183489724 $252 $360 forward 7 unknown #
coedge $-1 $361 $362 $162 $255 forward $247 $-1 #
edge $-1 $363 -29.778656890386195 $259 -14.173754294749074 $254 $364 forward 7 unknown #
edge $-1 $260 -18.018989267598688 $363 0 $163 $365 forward 7 unknown #
coedge $-1 $164 $355 $361 $366 forward $258 $-1 #
loop $-1 $-1 $355 $246 #
vertex $-1 $255 $367 #
vertex $-1 $165 $368 #
straight-curve $-1 -81.773923923571786 7.664562918797877 15.910253918205854 1 0 0 I I #
coedge $-1 $262 $262 $-1 $369 reversed $168 $-1 #
edge $-1 $370 0 $370 6.2831853071796004 $169 $371 forward 7 unknown #
vertex $-1 $172 $372 #
ellipse-curve $-1 -55.357919511162805 12.954694623213413 8.1078026203872895 -0.86602541151947299 0 0.49999998660252726 0.49999998660252726 0 0.86602541151947299 1 I I #
coedge $-1 $266 $266 $-1 $373 reversed $175 $-1 #
edge $-1 $374 0 $374 6.2831853071796004 $176 $375 forward 7 unknown #
vertex $-1 $179 $376 #
ellipse-curve $-1 -55.357919511162805 20.889892179836714 8.1078026203872895 -0.86602541151947299 0 0.49999998660252726 0.49999998660252726 0 0.86602541151947299 1 I I #
face $-1 $-1 $195 $27 $-1 $377 reversed single #
loop $-1 $-1 $286 $180 #
plane-surface $-1 0 40.106726119570659 0 0 -1 0 0 0 -1 forward_v I I I I #
coedge $-1 $378 $284 $287 $379 forward $181 $-1 #
coedge $-1 $290 $183 $184 $278 reversed $114 $-1 #
coedge $-1 $284 $378 $183 $276 reversed $181 $-1 #
edge $-1 $291 -15.910253918205854 $380 15.910253918205854 $275 $381 forward 7 unknown #
coedge $-1 $185 $184 $378 $382 forward $73 $-1 #
edge $-1 $282 -59.862666707358017 $380 59.862666707358017 $274 $383 forward 7 unknown #
coedge $-1 $287 $286 $185 $280 reversed $271 $-1 #
edge $-1 $384 -59.862666707358017 $281 59.862666707358017 $279 $385 forward 7 unknown #
vertex $-1 $187 $386 #
vertex $-1 $293 $387 #
straight-curve $-1 59.862666707358017 0 -15.910253918205854 0 -1 0 I I #
coedge $-1 $273 $275 $188 $285 reversed $181 $-1 #
edge $-1 $288 -40.106726119570659 $291 40.106726119570659 $284 $388 forward 7 unknown #
coedge $-1 $279 $189 $194 $294 forward $271 $-1 #
coedge $-1 $189 $279 $273 $379 reversed $271 $-1 #
vertex $-1 $190 $389 #
straight-curve $-1 0 40.106726119570659 15.910253918205854 -1 0 0 I I #
coedge $-1 $191 $274 $193 $293 reversed $114 $-1 #
vertex $-1 $285 $390 #
straight-curve $-1 0 -40.106726119570659 15.910253918205854 1 0 0 I I #
edge $-1 $196 -15.910253918205854 $282 15.910253918205854 $193 $391 forward 7 unknown #
edge $-1 $197 -15.910253918205854 $281 15.910253918205854 $194 $392 forward 7 unknown #
point $-1 59.862666707358017 -40.106726119570659 15.910253918205854 #
point $-1 59.862666707358017 40.106726119570659 15.910253918205854 #
face $-1 $-1 $214 $28 $-1 $393 reversed single #
loop $-1 $-1 $210 $199 #
plane-surface $-1 0 -40.106726119570659 0 0 1 0 0 0 1 forward_v I I I I #
coedge $-1 $394 $395 $207 $310 forward $200 $-1 #
coedge $-1 $311 $202 $204 $306 reversed $122 $-1 #
edge $-1 $308 -0.84126076586415888 $215 2.4934492124510426 $213 $396 forward 7 unknown #
coedge $-1 $204 $203 $397 $398 reversed $77 $-1 #
coedge $-1 $315 $314 $203 $305 forward $298 $-1 #
edge $-1 $399 -59.862666707358017 $307 59.862666707358017 $304 $400 forward 7 unknown #
edge $-1 $401 -59.862666707358017 $308 59.862666707358017 $301 $402 forward 7 unknown #
vertex $-1 $305 $403 #
vertex $-1 $206 $404 #
straight-curve $-1 59.862666707358017 -16.26583454306958 -0.015166542570717034 0 1 0 I I #
edge $-1 $316 -23.840891576501079 $312 -8.6907775096380817 $300 $405 forward 7 unknown #
coedge $-1 $208 $301 $394 $406 reversed $122 $-1 #
vertex $-1 $310 $407 #
straight-curve $-1 0 -24.956612052707662 3.3195434357444844 -1 0 0 I I #
coedge $-1 $304 $210 $395 $408 forward $298 $-1 #
coedge $-1 $210 $304 $212 $318 reversed $298 $-1 #
vertex $-1 $408 $409 #
straight-curve $-1 0 -40.106726119570659 3.3195434357444844 -1 0 0 I I #
edge $-1 $216 -3.3195434357444844 $307 0.015166542570717034 $212 $410 forward 7 unknown #
point $-1 59.862666707358017 -24.956612052707662 3.3195434357444844 #
point $-1 59.862666707358017 -40.106726119570659 3.3195434357444844 #
plane-surface $-1 59.862666707358017 0 0 -1 0 0 0 0 1 forward_v I I I I #
coedge $-1 $332 $331 $324 $411 forward $219 $-1 #
coedge $-1 $324 $221 $223 $328 reversed $130 $-1 #
coedge $-1 $221 $323 $322 $411 reversed $130 $-1 #
coedge $-1 $229 $224 $221 $326 forward $230 $-1 #
edge $-1 $329 -83.952192605093757 $412 -69.351600359427835 $325 $413 forward 7 unknown #
coedge $-1 $223 $222 $332 $414 reversed $81 $-1 #
edge $-1 $415 98.316789161415784 $329 119.72533341471603 $323 $416 forward 7 unknown #
vertex $-1 $225 $417 #
straight-curve $-1 59.862666707358017 15.109861780017436 1.3096616725399315 0 1 0 I I #
coedge $-1 $322 $226 $229 $336 forward $219 $-1 #
coedge $-1 $226 $322 $327 $414 forward $219 $-1 #
vertex $-1 $227 $418 #
straight-curve $-1 26.976791929872292 23.698596753843034 15.910253918205854 1 0 0 I I #
straight-curve $-1 -27.698898157812422 23.698596753843034 82.962143690096923 -0.7313536940579346 0 0.68199836817093118 I I #
edge $-1 $231 23.698596753843034 $412 36.740850366226709 $229 $419 forward 7 unknown #
point $-1 59.862666707358017 23.698596753843034 15.910253918205854 #
point $-1 59.862666707358017 23.698596753843034 1.3096616725399315 #
edge $-1 $420 1 $420 0 $234 $-1 forward 7 unknown #
vertex $-1 $235 $421 #
ellipse-curve $-1 51.000268355131134 26.307047476319759 7.5013544252089046 0.68199836817093118 0 0.7313536940579346 0.7313536940579346 0 -0.68199836817093118 1 I I #
point $-1 52.76541143938902 26.307047476319759 7.9279594272019658 #
edge $-1 $422 1 $422 0 $238 $-1 forward 7 unknown #
vertex $-1 $239 $423 #
ellipse-curve $-1 51.000268355131134 30.219723560034858 7.5013544252089046 0.68199836817093118 0 0.7313536940579346 0.7313536940579346 0 -0.68199836817093118 1 I I #
point $-1 52.76541143938902 30.219723560034858 7.9279594272019658 #
edge $-1 $424 1 $424 0 $242 $-1 forward 7 unknown #
vertex $-1 $243 $425 #
ellipse-curve $-1 51.000268355131134 34.132399643749956 7.5013544252089046 0.68199836817093118 0 0.7313536940579346 0.7313536940579346 0 -0.68199836817093118 1 I I #
point $-1 52.76541143938902 34.132399643749956 7.9279594272019658 #
plane-surface $-1 0 0 15.910253918205854 0 0 1 1 0 0 forward_v I I I I #
coedge $-1 $362 $361 $354 $426 forward $247 $-1 #
coedge $-1 $354 $249 $251 $358 reversed $159 $-1 #
coedge $-1 $249 $353 $352 $426 reversed $159 $-1 #
coedge $-1 $257 $252 $249 $356 forward $258 $-1 #
edge $-1 $359 -30.920751608604192 $427 -21.91125721621377 $355 $428 forward 7 unknown #
coedge $-1 $251 $250 $362 $429 reversed $100 $-1 #
edge $-1 $430 0 $359 18.018989267598688 $353 $431 forward 7 unknown #
vertex $-1 $253 $432 #
straight-curve $-1 -50.853172314967587 8.4611467007625336 15.910253918205854 0 1 0 I I #
coedge $-1 $352 $254 $257 $366 reversed $247 $-1 #
coedge $-1 $254 $352 $357 $429 forward $247 $-1 #
vertex $-1 $255 $433 #
straight-curve $-1 -59.862666707358017 7.664562918797877 30.084008212954927 0 0 1 I I #
straight-curve $-1 -59.862666707358017 7.664562918797877 0.30535132256873254 -0.49999998660252726 0 -0.86602541151947299 I I #
edge $-1 $427 -26.180023884252257 $259 -7.664562918797877 $361 $434 forward 7 unknown #
point $-1 -59.862666707358017 7.664562918797877 15.910253918205854 #
point $-1 -50.853172314967594 7.664562918797877 15.910253918205854 #
edge $-1 $435 1 $435 0 $262 $-1 forward 7 unknown #
vertex $-1 $263 $436 #
ellipse-curve $-1 -53.543116969520767 12.954694623213413 7.0600259218777355 -0.86602541151947299 0 0.49999998660252726 0.49999998660252726 0 0.86602541151947299 1 I I #
point $-1 -54.85791952456028 12.954694623213413 8.9738280319067627 #
edge $-1 $437 1 $437 0 $266 $-1 forward 7 unknown #
vertex $-1 $267 $438 #
ellipse-curve $-1 -53.543116969520767 20.889892179836714 7.0600259218777355 -0.86602541151947299 0 0.49999998660252726 0.49999998660252726 0 0.86602541151947299 1 I I #
point $-1 -54.85791952456028 20.889892179836714 8.9738280319067627 #
plane-surface $-1 59.862666707358017 0 0 -1 0 0 0 0 1 forward_v I I I I #
coedge $-1 $275 $273 $277 $382 reversed $181 $-1 #
edge $-1 $288 -15.910253918205854 $384 15.910253918205854 $287 $439 forward 7 unknown #
vertex $-1 $382 $440 #
straight-curve $-1 -59.862666707358017 -40.106726119570659 0 0 0 -1 I I #
edge $-1 $380 -40.106726119570659 $384 40.106726119570659 $378 $441 forward 7 unknown #
straight-curve $-1 0 -40.106726119570659 -15.910253918205854 -1 0 0 I I #
vertex $-1 $280 $442 #
straight-curve $-1 0 40.106726119570659 -15.910253918205854 1 0 0 I I #
point $-1 59.862666707358017 40.106726119570659 -15.910253918205854 #
point $-1 59.862666707358017 -40.106726119570659 -15.910253918205854 #
straight-curve $-1 -59.862666707358017 0 15.910253918205854 0 -1 0 I I #
point $-1 -59.862666707358017 40.106726119570659 15.910253918205854 #
point $-1 -59.862666707358017 -40.106726119570659 15.910253918205854 #
straight-curve $-1 59.862666707358017 -40.106726119570659 0 0 0 -1 I I #
straight-curve $-1 59.862666707358017 40.106726119570659 0 0 0 -1 I I #
plane-surface $-1 59.862666707358017 0 0 -1 0 0 0 0 1 forward_v I I I I #
coedge $-1 $397 $300 $311 $406 forward $200 $-1 #
coedge $-1 $300 $397 $314 $408 reversed $200 $-1 #
straight-curve $-1 59.862666707358017 -24.956612052707662 0.82609422329344184 0 0 1 I I #
coedge $-1 $395 $394 $303 $398 forward $200 $-1 #
edge $-1 $401 8.6907775096380817 $399 23.840891576501079 $397 $443 forward 7 unknown #
vertex $-1 $305 $444 #
straight-curve $-1 0 -40.106726119570659 -0.015166542570717034 1 0 0 I I #
vertex $-1 $398 $445 #
straight-curve $-1 0 -24.956612052707662 -0.015166542570717034 1 0 0 I I #
point $-1 59.862666707358017 -40.106726119570659 -0.015166542570717034 #
point $-1 59.862666707358017 -24.956612052707662 -0.015166542570717034 #
straight-curve $-1 -59.862666707358017 -16.26583454306958 3.3195434357444844 0 1 0 I I #
edge $-1 $312 -2.4934492124510426 $401 0.84126076586415888 $394 $446 forward 7 unknown #
point $-1 -59.862666707358017 -24.956612052707662 3.3195434357444844 #
edge $-1 $316 -3.3195434357444844 $399 0.015166542570717034 $395 $447 forward 7 unknown #
point $-1 -59.862666707358017 -40.106726119570659 3.3195434357444844 #
straight-curve $-1 59.862666707358017 -40.106726119570659 0 0 0 -1 I I #
edge $-1 $412 -32.885874777485725 $415 -17.228656853431829 $322 $448 forward 7 unknown #
vertex $-1 $411 $449 #
straight-curve $-1 59.862666707358017 36.740850366226709 85.261854277633688 0 0 1 I I #
edge $-1 $415 -21.630988586209273 $333 -8.5887349738255985 $332 $450 forward 7 unknown #
vertex $-1 $414 $451 #
straight-curve $-1 -27.698898157812422 36.740850366226709 82.962143690096923 0.7313536940579346 0 -0.68199836817093118 I I #
point $-1 59.862666707358017 36.740850366226709 1.3096616725399315 #
point $-1 44.205448783304121 23.698596753843034 15.910253918205854 #
straight-curve $-1 59.862666707358017 0 15.910253918205854 0 1 0 I I #
vertex $-1 $339 $452 #
point $-1 51.731622049189063 26.307047476319759 6.8193560570379734 #
vertex $-1 $343 $453 #
point $-1 51.731622049189063 30.219723560034858 6.8193560570379734 #
vertex $-1 $347 $454 #
point $-1 51.731622049189063 34.132399643749956 6.8193560570379734 #
edge $-1 $427 14.173754294749074 $430 29.778656890386195 $352 $455 forward 7 unknown #
vertex $-1 $366 $456 #
straight-curve $-1 -81.773923923571786 26.180023884252257 15.910253918205854 -1 0 0 I I #
edge $-1 $430 -17.718877183489724 $363 0.79658378196465662 $362 $457 forward 7 unknown #
vertex $-1 $429 $458 #
straight-curve $-1 -59.862666707358017 26.180023884252257 0.30535132256873254 0.49999998660252726 0 0.86602541151947299 I I #
point $-1 -50.853172314967594 26.180023884252257 15.910253918205854 #
point $-1 -59.862666707358017 7.664562918797877 0.30535132256873254 #
straight-curve $-1 -59.862666707358017 0 15.910253918205854 0 -1 0 I I #
vertex $-1 $369 $459 #
point $-1 -53.043116982918242 12.954694623213413 7.9260513333972087 #
vertex $-1 $373 $460 #
point $-1 -53.043116982918242 20.889892179836714 7.9260513333972087 #
straight-curve $-1 -59.862666707358017 40.106726119570659 0 0 0 -1 I I #
point $-1 -59.862666707358017 -40.106726119570659 -15.910253918205854 #
straight-curve $-1 -59.862666707358017 0 -15.910253918205854 0 1 0 I I #
point $-1 -59.862666707358017 40.106726119570659 -15.910253918205854 #
straight-curve $-1 -59.862666707358017 -16.26583454306958 -0.015166542570717034 0 -1 0 I I #
point $-1 -59.862666707358017 -40.106726119570659 -0.015166542570717034 #
point $-1 -59.862666707358017 -24.956612052707662 -0.015166542570717034 #
straight-curve $-1 -59.862666707358017 -24.956612052707662 0.82609422329344184 0 0 -1 I I #
straight-curve $-1 -59.862666707358017 -40.106726119570659 0 0 0 -1 I I #
straight-curve $-1 26.976791929872292 36.740850366226709 15.910253918205854 -1 0 0 I I #
point $-1 59.862666707358017 36.740850366226709 15.910253918205854 #
straight-curve $-1 44.205448783304121 15.109861780017436 15.910253918205854 0 -1 0 I I #
point $-1 44.205448783304121 36.740850366226709 15.910253918205854 #
point $-1 50.318269986960196 26.307047476319759 6.7700007311509696 #
point $-1 50.318269986960196 30.219723560034858 6.7700007311509696 #
point $-1 50.318269986960196 34.132399643749956 6.7700007311509696 #
straight-curve $-1 -59.862666707358017 26.180023884252257 30.084008212954927 0 0 -1 I I #
point $-1 -59.862666707358017 26.180023884252257 15.910253918205854 #
straight-curve $-1 -59.862666707358017 8.4611467007625336 0.30535132256873149 0 -1 0 I I #
point $-1 -59.862666707358017 26.180023884252257 0.30535132256873254 #
point $-1 -52.677091558001294 12.954694623213413 6.5600259352752088 #
point $-1 -52.677091558001294 20.889892179836714 6.5600259352752088 #
End-of-ACIS-data 