500 0 6 0           
7 Unknown 11 ACIS 5.0 NT 24 Fri Mar 26 17:30:00 1999 
-1 9.9999999999999995e-007 1e-010 
body $-1 $6 $-1 $7 #
body $-1 $8 $-1 $9 #
body $-1 $10 $-1 $11 #
body $-1 $12 $-1 $13 #
body $-1 $14 $-1 $15 #
body $-1 $16 $-1 $17 #
lump $-1 $-1 $18 $0 #
transform $-1 1 0 0 0 1 0 0 0 1 44.419080172124396 28.701257091838414 8.2631626034509136 1 rotate no_reflect no_shear #
lump $-1 $-1 $19 $1 #
transform $-1 1 0 0 0 1 0 0 0 1 44.419080172124396 28.701257091838414 8.2631626034509136 1 rotate no_reflect no_shear #
lump $-1 $-1 $20 $2 #
transform $-1 1 0 0 0 1 0 0 0 1 44.419080172124396 28.701257091838414 8.2631626034509136 1 rotate no_reflect no_shear #
lump $-1 $-1 $21 $3 #
transform $-1 1 0 0 0 1 0 0 0 1 44.419080172124396 28.701257091838414 8.2631626034509136 1 rotate no_reflect no_shear #
lump $-1 $-1 $22 $4 #
transform $-1 1 0 0 0 1 0 0 0 1 44.419080172124396 28.701257091838414 8.2631626034509136 1 rotate no_reflect no_shear #
lump $-1 $-1 $23 $5 #
transform $-1 1 0 0 0 1 0 0 0 1 44.419080172124396 28.701257091838414 8.2631626034509136 1 rotate no_reflect no_shear #
shell $-1 $-1 $-1 $24 $-1 $6 #
shell $-1 $-1 $-1 $25 $-1 $8 #
shell $-1 $-1 $-1 $26 $-1 $10 #
shell $-1 $-1 $-1 $27 $-1 $12 #
shell $-1 $-1 $-1 $28 $-1 $14 #
shell $-1 $-1 $-1 $29 $-1 $16 #
face $-1 $30 $31 $18 $-1 $32 forward single #
face $-1 $33 $34 $19 $-1 $35 forward single #
face $-1 $36 $37 $20 $-1 $38 reversed single #
face $-1 $39 $40 $21 $-1 $41 forward single #
face $-1 $42 $43 $22 $-1 $44 reversed single #
face $-1 $45 $46 $23 $-1 $47 forward single #
face $-1 $48 $49 $18 $-1 $50 reversed single #
loop $-1 $-1 $51 $24 #
plane-surface $-1 0 0 8.2631626034509136 0 0 1 1 0 0 forward_v I I I I #
face $-1 $52 $53 $19 $-1 $54 reversed single #
loop $-1 $-1 $55 $25 #
plane-surface $-1 -44.419080172124396 0 0 1 0 0 0 0 -1 forward_v I I I I #
face $-1 $56 $57 $20 $-1 $58 reversed single #
loop $-1 $-1 $59 $26 #
plane-surface $-1 -23.584821766145581 -88.145589905720698 68.742675121159209 -1 0 0 0 -0.66913061440640931 0.74314481823134659 forward_v I I I I #
face $-1 $60 $61 $21 $-1 $62 forward single #
loop $-1 $63 $64 $27 #
cone-surface $-1 -29.663234546732554 -24.110247037589577 3.811026355419338 0 0.66913061440640931 -0.74314481823134659 2 0 0 1 I I 0 1 2 forward I I I I #
face $-1 $65 $66 $22 $-1 $67 reversed single #
loop $-1 $-1 $68 $28 #
plane-surface $-1 38.340667391537423 -28.7012570918384 2.7230566001252186 0 -0.66913061440640931 0.74314481823134659 1 0 0 forward_v I I I I #
face $-1 $69 $70 $23 $-1 $71 forward single #
loop $-1 $72 $73 $29 #
cone-surface $-1 38.340667391537423 -24.110247037589577 3.811026355419338 0 0.66913061440640931 -0.74314481823134659 2 0 0 1 I I 0 1 2 forward I I I I #
face $-1 $74 $75 $18 $-1 $76 reversed single #
loop $-1 $-1 $77 $30 #
plane-surface $-1 0 0 -8.2631626034509136 0 0 1 1 0 0 forward_v I I I I #
coedge $-1 $78 $79 $80 $81 forward $31 $-1 #
face $-1 $82 $83 $19 $-1 $84 reversed single #
loop $-1 $-1 $85 $33 #
plane-surface $-1 0 0 -8.2631626034509136 0 0 1 1 0 0 forward_v I I I I #
coedge $-1 $86 $87 $88 $89 forward $34 $-1 #
face $-1 $90 $91 $20 $-1 $92 reversed single #
loop $-1 $-1 $93 $36 #
plane-surface $-1 -29.663234546732554 -28.7012570918384 2.7230566001252186 0 -0.66913061440640931 0.74314481823134659 1 0 0 forward_v I I I I #
coedge $-1 $94 $95 $96 $97 reversed $37 $-1 #
face $-1 $-1 $98 $21 $-1 $99 forward single #
loop $-1 $100 $101 $39 #
cone-surface $-1 -29.663234546732554 -21.926561832324065 1.3857982908192579 0 0.66913061440640931 -0.74314481823134659 1 0 0 1 I I -0.70710678118654746 0.70710678118654746 1 forward I I I I #
loop $-1 $-1 $102 $27 #
coedge $-1 $64 $64 $103 $104 reversed $40 $-1 #
face $-1 $105 $106 $22 $-1 $107 reversed single #
loop $-1 $-1 $108 $42 #
plane-surface $-1 32.26225461095045 -88.145589905720698 68.742675121159209 1 0 0 0 0.66913061440640931 -0.74314481823134659 forward_v I I I I #
coedge $-1 $109 $110 $111 $112 reversed $43 $-1 #
face $-1 $-1 $113 $23 $-1 $114 forward single #
loop $-1 $115 $116 $45 #
cone-surface $-1 38.340667391537423 -21.926561832324065 1.3857982908192579 0 0.66913061440640931 -0.74314481823134659 1 0 0 1 I I -0.70710678118654746 0.70710678118654746 1 forward I I I I #
loop $-1 $-1 $117 $29 #
coedge $-1 $73 $73 $118 $119 reversed $46 $-1 #
face $-1 $120 $121 $18 $-1 $122 reversed single #
loop $-1 $-1 $123 $48 #
plane-surface $-1 0 -28.701257091838414 0 0 1 0 0 0 1 forward_v I I I I #
coedge $-1 $124 $125 $126 $127 forward $49 $-1 #
coedge $-1 $128 $51 $129 $130 forward $31 $-1 #
coedge $-1 $51 $128 $131 $132 forward $31 $-1 #
coedge $-1 $133 $134 $51 $81 reversed $135 $-1 #
edge $-1 $136 -28.701257091838414 $137 28.701257091838414 $80 $138 forward 7 unknown #
face $-1 $139 $140 $19 $-1 $141 reversed single #
loop $-1 $-1 $142 $52 #
plane-surface $-1 -48.75779659452683 -16.215501638959008 0 0 1 0 0 0 1 forward_v I I I I #
coedge $-1 $143 $144 $87 $145 forward $53 $-1 #
coedge $-1 $146 $55 $147 $148 reversed $34 $-1 #
coedge $-1 $55 $146 $85 $145 reversed $34 $-1 #
coedge $-1 $149 $150 $55 $89 reversed $151 $-1 #
edge $-1 $152 -8.2631626034509136 $153 8.2631626034509136 $88 $154 forward 7 unknown #
face $-1 $155 $156 $20 $-1 $157 forward single #
loop $-1 $-1 $158 $56 #
plane-surface $-1 -35.741647327319527 -88.145589905720698 68.742675121159209 1 0 0 0 0.66913061440640931 -0.74314481823134659 forward_v I I I I #
coedge $-1 $159 $160 $161 $162 reversed $57 $-1 #
coedge $-1 $95 $59 $163 $164 reversed $37 $-1 #
coedge $-1 $59 $94 $159 $165 reversed $37 $-1 #
coedge $-1 $161 $166 $59 $97 forward $156 $-1 #
edge $-1 $167 15.371537861021935 $168 21.524448787801433 $96 $169 forward 7 unknown #
loop $-1 $-1 $103 $60 #
plane-surface $-1 -29.663234546732554 -28.7012570918384 2.7230566001252186 0 -0.66913061440640931 0.74314481823134659 1 0 0 forward_v I I I I #
loop $-1 $-1 $170 $39 #
coedge $-1 $101 $101 $102 $171 reversed $61 $-1 #
coedge $-1 $102 $102 $101 $171 forward $63 $-1 #
coedge $-1 $103 $103 $64 $104 forward $98 $-1 #
edge $-1 $172 4.9703414598311332e-016 $172 6.2831853071796013 $103 $173 forward 7 unknown #
face $-1 $174 $175 $22 $-1 $176 forward single #
loop $-1 $-1 $177 $65 #
plane-surface $-1 0 -28.701257091838414 0 0 1 0 0 0 1 forward_v I I I I #
coedge $-1 $178 $179 $180 $181 reversed $66 $-1 #
coedge $-1 $182 $68 $183 $184 reversed $43 $-1 #
coedge $-1 $68 $182 $178 $185 forward $43 $-1 #
coedge $-1 $180 $186 $68 $112 forward $175 $-1 #
edge $-1 $187 -25.248746476355684 $188 -13.091920915181738 $111 $189 forward 7 unknown #
loop $-1 $-1 $118 $69 #
plane-surface $-1 38.340667391537423 -28.7012570918384 2.7230566001252186 0 -0.66913061440640931 0.74314481823134659 1 0 0 forward_v I I I I #
loop $-1 $-1 $190 $45 #
coedge $-1 $116 $116 $117 $191 reversed $70 $-1 #
coedge $-1 $117 $117 $116 $191 forward $72 $-1 #
coedge $-1 $118 $118 $73 $119 forward $113 $-1 #
edge $-1 $192 4.9703414598311332e-016 $192 6.2831853071796013 $118 $193 forward 7 unknown #
face $-1 $194 $195 $18 $-1 $196 reversed single #
loop $-1 $-1 $197 $74 #
plane-surface $-1 -44.419080172124396 0 0 1 0 0 0 0 -1 forward_v I I I I #
coedge $-1 $198 $131 $199 $200 forward $75 $-1 #
coedge $-1 $201 $77 $198 $202 forward $49 $-1 #
coedge $-1 $77 $201 $203 $204 forward $49 $-1 #
coedge $-1 $134 $133 $77 $127 reversed $135 $-1 #
edge $-1 $205 -28.701257091838414 $206 28.701257091838414 $126 $207 forward 7 unknown #
coedge $-1 $79 $78 $208 $209 forward $31 $-1 #
coedge $-1 $210 $211 $78 $130 reversed $195 $-1 #
edge $-1 $137 -44.419080172124396 $212 44.419080172124396 $129 $213 forward 7 unknown #
coedge $-1 $123 $214 $79 $132 reversed $75 $-1 #
edge $-1 $215 -44.419080172124396 $136 44.419080172124396 $131 $216 forward 7 unknown #
coedge $-1 $126 $80 $214 $217 forward $135 $-1 #
coedge $-1 $80 $126 $210 $218 reversed $135 $-1 #
loop $-1 $-1 $133 $194 #
vertex $-1 $81 $219 #
vertex $-1 $81 $220 #
straight-curve $-1 44.419080172124396 0 8.2631626034509136 0 1 0 I I #
face $-1 $221 $151 $19 $-1 $222 reversed single #
loop $-1 $-1 $223 $82 #
plane-surface $-1 -53.096513016929265 -14.195216761947798 0 1 0 0 0 0 -1 forward_v I I I I #
coedge $-1 $224 $225 $226 $227 forward $83 $-1 #
coedge $-1 $228 $85 $224 $229 forward $53 $-1 #
coedge $-1 $85 $228 $149 $230 forward $53 $-1 #
edge $-1 $152 12.174931884936587 $231 16.215501638959008 $85 $232 forward 7 unknown #
coedge $-1 $87 $86 $233 $234 forward $34 $-1 #
coedge $-1 $235 $236 $86 $148 forward $237 $-1 #
edge $-1 $238 -16.215501638959008 $153 -12.174931884936587 $147 $239 forward 7 unknown #
coedge $-1 $240 $88 $144 $230 reversed $151 $-1 #
coedge $-1 $88 $240 $235 $241 reversed $151 $-1 #
loop $-1 $-1 $88 $139 #
vertex $-1 $145 $242 #
vertex $-1 $241 $243 #
straight-curve $-1 -44.419080172124396 -12.174931884936587 0 0 0 1 I I #
face $-1 $-1 $244 $20 $-1 $245 reversed single #
loop $-1 $-1 $96 $90 #
plane-surface $-1 0 0 8.2631626034509136 0 0 1 1 0 0 forward_v I I I I #
coedge $-1 $246 $247 $248 $249 reversed $91 $-1 #
coedge $-1 $250 $93 $95 $165 forward $57 $-1 #
coedge $-1 $93 $250 $246 $251 forward $57 $-1 #
coedge $-1 $248 $96 $93 $162 forward $156 $-1 #
edge $-1 $168 8.7532044927793038 $252 20.91003005395325 $161 $253 forward 7 unknown #
coedge $-1 $254 $255 $94 $164 forward $244 $-1 #
edge $-1 $256 -31.6482809604544 $167 -26.108174957128689 $163 $257 forward 7 unknown #
edge $-1 $168 -8.2795584061571645 $256 1.9178179933549516e-014 $95 $258 forward 7 unknown #
coedge $-1 $96 $248 $254 $259 forward $156 $-1 #
vertex $-1 $97 $260 #
vertex $-1 $97 $261 #
straight-curve $-1 -23.584821766145581 -44.072794952860349 8.2631626034509154 0 1 0 I I #
coedge $-1 $170 $170 $-1 $262 reversed $100 $-1 #
edge $-1 $263 0 $263 6.2831853071796004 $101 $264 forward 7 unknown #
vertex $-1 $104 $265 #
ellipse-curve $-1 -29.663234546732554 -25.624801628448665 5.4931096017880581 0 -0.66913061440640931 0.74314481823134659 2 0 0 1 I I #
face $-1 $-1 $266 $22 $-1 $267 reversed single #
loop $-1 $-1 $180 $105 #
plane-surface $-1 0 0 8.2631626034509136 0 0 1 1 0 0 forward_v I I I I #
coedge $-1 $268 $269 $179 $270 forward $106 $-1 #
coedge $-1 $179 $108 $110 $185 reversed $66 $-1 #
coedge $-1 $108 $178 $177 $270 reversed $66 $-1 #
coedge $-1 $271 $111 $108 $181 forward $175 $-1 #
edge $-1 $188 -21.524448787801433 $272 -15.371537861021935 $180 $273 forward 7 unknown #
coedge $-1 $110 $109 $268 $274 reversed $43 $-1 #
coedge $-1 $275 $276 $109 $184 forward $266 $-1 #
edge $-1 $277 -9.7535549743101075 $187 -1.4739965681529252 $183 $278 forward 7 unknown #
edge $-1 $279 -1.9178179933549516e-014 $188 8.2795584061571645 $178 $280 forward 7 unknown #
coedge $-1 $111 $271 $275 $281 forward $175 $-1 #
vertex $-1 $184 $282 #
vertex $-1 $112 $283 #
straight-curve $-1 19.170333695768711 -22.548346165058916 8.2631626034509136 -1 0 0 I I #
coedge $-1 $190 $190 $-1 $284 reversed $115 $-1 #
edge $-1 $285 0 $285 6.2831853071796004 $116 $286 forward 7 unknown #
vertex $-1 $119 $287 #
ellipse-curve $-1 38.340667391537423 -25.624801628448665 5.4931096017880581 0 -0.66913061440640931 0.74314481823134659 2 0 0 1 I I #
face $-1 $-1 $135 $18 $-1 $288 reversed single #
loop $-1 $-1 $210 $120 #
plane-surface $-1 0 28.701257091838414 0 0 -1 0 0 0 -1 forward_v I I I I #
coedge $-1 $289 $208 $211 $290 forward $121 $-1 #
coedge $-1 $214 $123 $124 $202 reversed $75 $-1 #
coedge $-1 $208 $289 $123 $200 reversed $121 $-1 #
edge $-1 $215 -8.2631626034509136 $291 8.2631626034509136 $199 $292 forward 7 unknown #
coedge $-1 $125 $124 $289 $293 forward $49 $-1 #
edge $-1 $206 -44.419080172124396 $291 44.419080172124396 $198 $294 forward 7 unknown #
coedge $-1 $211 $210 $125 $204 reversed $195 $-1 #
edge $-1 $295 -44.419080172124396 $205 44.419080172124396 $203 $296 forward 7 unknown #
vertex $-1 $127 $297 #
vertex $-1 $217 $298 #
straight-curve $-1 44.419080172124396 0 -8.2631626034509136 0 -1 0 I I #
coedge $-1 $197 $199 $128 $209 reversed $121 $-1 #
edge $-1 $212 -28.701257091838414 $215 28.701257091838414 $208 $299 forward 7 unknown #
coedge $-1 $203 $129 $134 $218 forward $195 $-1 #
coedge $-1 $129 $203 $197 $290 reversed $195 $-1 #
vertex $-1 $130 $300 #
straight-curve $-1 0 28.701257091838414 8.2631626034509136 -1 0 0 I I #
coedge $-1 $131 $198 $133 $217 reversed $75 $-1 #
vertex $-1 $209 $301 #
straight-curve $-1 0 -28.701257091838414 8.2631626034509136 1 0 0 I I #
edge $-1 $136 -8.2631626034509136 $206 8.2631626034509136 $133 $302 forward 7 unknown #
edge $-1 $137 -8.2631626034509136 $205 8.2631626034509136 $134 $303 forward 7 unknown #
point $-1 44.419080172124396 -28.701257091838414 8.2631626034509136 #
point $-1 44.419080172124396 28.701257091838414 8.2631626034509136 #
face $-1 $-1 $237 $19 $-1 $304 forward single #
plane-surface $-1 -48.75779659452683 -12.174931884936587 0 0 -1 0 0 0 -1 forward_v I I I I #
coedge $-1 $305 $306 $240 $307 forward $140 $-1 #
coedge $-1 $233 $142 $143 $229 reversed $83 $-1 #
coedge $-1 $142 $233 $236 $308 reversed $83 $-1 #
coedge $-1 $306 $305 $142 $227 reversed $140 $-1 #
edge $-1 $309 -8.2631626034509136 $310 8.2631626034509136 $226 $311 forward 7 unknown #
coedge $-1 $144 $143 $305 $312 forward $53 $-1 #
edge $-1 $231 -4.3387164224024346 $310 4.3387164224024346 $224 $313 forward 7 unknown #
edge $-1 $314 -4.3387164224024346 $152 4.3387164224024346 $149 $315 forward 7 unknown #
vertex $-1 $229 $316 #
straight-curve $-1 -44.419080172124396 0 -8.2631626034509136 0 -1 0 I I #
coedge $-1 $225 $224 $146 $234 reversed $83 $-1 #
edge $-1 $238 -8.2631626034509136 $231 8.2631626034509136 $233 $317 forward 7 unknown #
coedge $-1 $318 $147 $150 $241 forward $237 $-1 #
coedge $-1 $147 $318 $225 $308 forward $237 $-1 #
loop $-1 $-1 $147 $221 #
vertex $-1 $148 $319 #
straight-curve $-1 -44.419080172124396 0 8.2631626034509136 0 1 0 I I #
coedge $-1 $150 $149 $223 $307 reversed $151 $-1 #
edge $-1 $153 -4.3387164224024346 $320 4.3387164224024346 $150 $321 forward 7 unknown #
point $-1 -44.419080172124396 -12.174931884936587 -8.2631626034509136 #
point $-1 -44.419080172124396 -12.174931884936587 8.2631626034509136 #
loop $-1 $-1 $163 $155 #
plane-surface $-1 0 -28.701257091838414 0 0 1 0 0 0 1 forward_v I I I I #
coedge $-1 $247 $158 $160 $251 reversed $91 $-1 #
coedge $-1 $158 $246 $322 $323 reversed $91 $-1 #
coedge $-1 $166 $161 $158 $249 forward $156 $-1 #
edge $-1 $252 -21.524448787801433 $324 -15.371537861021935 $248 $325 forward 7 unknown #
coedge $-1 $160 $159 $255 $326 reversed $57 $-1 #
edge $-1 $327 -1.9178179933549516e-014 $252 8.2795584061571645 $246 $328 forward 7 unknown #
vertex $-1 $162 $329 #
straight-curve $-1 -14.831617273366277 -22.548346165058916 8.2631626034509136 -1 0 0 I I #
coedge $-1 $322 $163 $166 $259 reversed $244 $-1 #
coedge $-1 $163 $322 $250 $326 forward $244 $-1 #
vertex $-1 $164 $330 #
straight-curve $-1 -23.584821766145581 -28.701257091838414 34.371337560579605 0 0 1 I I #
straight-curve $-1 -23.584821766145581 -28.7012570918384 2.7230566001252186 0 -0.74314481823134659 -0.66913061440640931 I I #
edge $-1 $324 -35.741647327319527 $167 -23.584821766145581 $254 $331 forward 7 unknown #
point $-1 -23.584821766145581 -28.701257091838414 8.2631626034509136 #
point $-1 -23.584821766145581 -22.548346165058916 8.2631626034509118 #
edge $-1 $332 1 $332 0 $170 $-1 forward 7 unknown #
vertex $-1 $171 $333 #
ellipse-curve $-1 -29.663234546732554 -22.595692446730475 2.1289431090506046 0 -0.66913061440640931 0.74314481823134659 2 0 0 1 I I #
point $-1 -27.663234546732554 -25.624801628448676 5.4931096017880714 #
loop $-1 $-1 $183 $174 #
plane-surface $-1 44.419080172124396 0 0 -1 0 0 0 0 1 forward_v I I I I #
coedge $-1 $334 $177 $182 $274 forward $106 $-1 #
coedge $-1 $177 $334 $271 $335 reversed $106 $-1 #
edge $-1 $272 26.108174957128689 $279 31.6482809604544 $177 $336 forward 7 unknown #
coedge $-1 $186 $180 $269 $335 forward $175 $-1 #
vertex $-1 $335 $337 #
straight-curve $-1 32.26225461095045 -44.072794952860349 8.2631626034509154 0 -1 0 I I #
edge $-1 $279 13.091920915181738 $277 25.248746476355684 $268 $338 forward 7 unknown #
coedge $-1 $276 $183 $186 $281 reversed $266 $-1 #
coedge $-1 $183 $275 $334 $339 forward $266 $-1 #
vertex $-1 $274 $340 #
straight-curve $-1 44.419080172124396 -21.452953253345282 9.2494588327320173 0 0.74314481823134659 0.66913061440640931 I I #
vertex $-1 $274 $341 #
straight-curve $-1 32.26225461095045 -28.7012570918384 2.7230566001252186 0 0.74314481823134659 0.66913061440640931 I I #
edge $-1 $342 -28.701257091838414 $187 -22.548346165058916 $275 $343 forward 7 unknown #
point $-1 44.419080172124396 -22.548346165058916 8.2631626034509118 #
point $-1 32.26225461095045 -22.548346165058916 8.2631626034509118 #
edge $-1 $344 1 $344 0 $190 $-1 forward 7 unknown #
vertex $-1 $191 $345 #
ellipse-curve $-1 38.340667391537423 -22.595692446730475 2.1289431090506046 0 -0.66913061440640931 0.74314481823134659 2 0 0 1 I I #
point $-1 40.340667391537423 -25.624801628448676 5.4931096017880714 #
plane-surface $-1 44.419080172124396 0 0 -1 0 0 0 0 1 forward_v I I I I #
coedge $-1 $199 $197 $201 $293 reversed $121 $-1 #
edge $-1 $212 -8.2631626034509136 $295 8.2631626034509136 $211 $346 forward 7 unknown #
vertex $-1 $293 $347 #
straight-curve $-1 -44.419080172124396 -28.701257091838414 0 0 0 -1 I I #
edge $-1 $291 -28.701257091838414 $295 28.701257091838414 $289 $348 forward 7 unknown #
straight-curve $-1 0 -28.701257091838414 -8.2631626034509136 -1 0 0 I I #
vertex $-1 $204 $349 #
straight-curve $-1 0 28.701257091838414 -8.2631626034509136 1 0 0 I I #
point $-1 44.419080172124396 28.701257091838414 -8.2631626034509136 #
point $-1 44.419080172124396 -28.701257091838414 -8.2631626034509136 #
straight-curve $-1 -44.419080172124396 0 8.2631626034509136 0 -1 0 I I #
point $-1 -44.419080172124396 28.701257091838414 8.2631626034509136 #
point $-1 -44.419080172124396 -28.701257091838414 8.2631626034509136 #
straight-curve $-1 44.419080172124396 -28.701257091838414 0 0 0 -1 I I #
straight-curve $-1 44.419080172124396 28.701257091838414 0 0 0 -1 I I #
plane-surface $-1 0 0 8.2631626034509136 0 0 1 1 0 0 forward_v I I I I #
coedge $-1 $226 $223 $228 $312 reversed $140 $-1 #
coedge $-1 $223 $226 $318 $350 reversed $140 $-1 #
edge $-1 $320 -8.2631626034509136 $314 8.2631626034509136 $240 $351 forward 7 unknown #
edge $-1 $309 -4.3387164224024346 $238 4.3387164224024346 $225 $352 forward 7 unknown #
vertex $-1 $350 $353 #
vertex $-1 $312 $354 #
straight-curve $-1 -53.096513016929265 -16.215501638959008 0 0 0 -1 I I #
edge $-1 $310 -2.0202848770112105 $314 2.0202848770112105 $305 $355 forward 7 unknown #
straight-curve $-1 -48.75779659452683 -16.215501638959008 -8.2631626034509136 -1 0 0 I I #
vertex $-1 $230 $356 #
straight-curve $-1 -48.75779659452683 -12.174931884936587 -8.2631626034509136 1 0 0 I I #
point $-1 -44.419080172124396 -16.215501638959008 -8.2631626034509136 #
straight-curve $-1 -44.419080172124396 -16.215501638959008 0 0 0 -1 I I #
coedge $-1 $236 $235 $306 $350 forward $237 $-1 #
point $-1 -44.419080172124396 -16.215501638959008 8.2631626034509136 #
vertex $-1 $241 $357 #
straight-curve $-1 -48.75779659452683 -12.174931884936587 8.2631626034509136 -1 0 0 I I #
coedge $-1 $255 $254 $247 $323 forward $244 $-1 #
edge $-1 $324 26.108174957128689 $327 31.6482809604544 $322 $358 forward 7 unknown #
vertex $-1 $259 $359 #
straight-curve $-1 -35.741647327319527 -44.072794952860349 8.2631626034509154 0 -1 0 I I #
edge $-1 $327 -20.91003005395325 $256 -8.7532044927793038 $255 $360 forward 7 unknown #
vertex $-1 $326 $361 #
straight-curve $-1 -35.741647327319527 -28.7012570918384 2.7230566001252186 0 0.74314481823134659 0.66913061440640931 I I #
point $-1 -35.741647327319527 -22.548346165058916 8.2631626034509118 #
point $-1 -23.584821766145581 -28.701257091838414 2.7230566001252057 #
straight-curve $-1 0 -28.701257091838414 8.2631626034509136 1 0 0 I I #
vertex $-1 $262 $362 #
point $-1 -27.663234546732554 -22.595692446730475 2.1289431090506046 #
coedge $-1 $269 $268 $276 $339 reversed $106 $-1 #
edge $-1 $272 32.26225461095045 $342 44.419080172124396 $269 $363 forward 7 unknown #
straight-curve $-1 32.26225461095045 -28.701257091838414 34.371337560579605 0 0 -1 I I #
point $-1 32.26225461095045 -28.701257091838414 8.2631626034509136 #
straight-curve $-1 19.170333695768711 -28.701257091838414 2.723056600125207 1 0 0 I I #
edge $-1 $342 -8.2631626034509136 $277 -2.7230566001252057 $276 $364 forward 7 unknown #
point $-1 44.419080172124396 -28.701257091838414 2.7230566001252057 #
point $-1 32.26225461095045 -28.701257091838414 2.7230566001252057 #
vertex $-1 $281 $365 #
straight-curve $-1 44.419080172124396 0 8.2631626034509136 0 1 0 I I #
vertex $-1 $284 $366 #
point $-1 40.340667391537423 -22.595692446730475 2.1289431090506046 #
straight-curve $-1 -44.419080172124396 28.701257091838414 0 0 0 -1 I I #
point $-1 -44.419080172124396 -28.701257091838414 -8.2631626034509136 #
straight-curve $-1 -44.419080172124396 0 -8.2631626034509136 0 1 0 I I #
point $-1 -44.419080172124396 28.701257091838414 -8.2631626034509136 #
edge $-1 $320 -2.0202848770112105 $309 2.0202848770112105 $306 $367 forward 7 unknown #
straight-curve $-1 -53.096513016929265 -12.174931884936587 0 0 0 -1 I I #
straight-curve $-1 -48.75779659452683 -16.215501638959008 8.2631626034509136 1 0 0 I I #
point $-1 -53.096513016929265 -16.215501638959008 8.2631626034509136 #
point $-1 -53.096513016929265 -16.215501638959008 -8.2631626034509136 #
straight-curve $-1 -53.096513016929265 -14.195216761947798 -8.2631626034509136 0 1 0 I I #
point $-1 -53.096513016929265 -12.174931884936587 -8.2631626034509136 #
point $-1 -53.096513016929265 -12.174931884936587 8.2631626034509136 #
straight-curve $-1 -35.741647327319527 -28.701257091838414 34.371337560579605 0 0 -1 I I #
point $-1 -35.741647327319527 -28.701257091838414 8.2631626034509136 #
straight-curve $-1 -14.831617273366277 -28.701257091838414 2.723056600125207 1 0 0 I I #
point $-1 -35.741647327319527 -28.701257091838414 2.7230566001252057 #
point $-1 -29.663234546732554 -21.257431217917656 0.64265347258791128 #
straight-curve $-1 0 -28.701257091838414 8.2631626034509136 1 0 0 I I #
straight-curve $-1 44.419080172124396 -28.701257091838414 0 0 0 -1 I I #
point $-1 44.419080172124396 -28.701257091838414 8.2631626034509136 #
point $-1 38.340667391537423 -21.257431217917656 0.64265347258791128 #
straight-curve $-1 -53.096513016929265 -14.195216761947798 8.2631626034509136 0 -1 0 I I #
End-of-ACIS-data 