500 0 20 0           
7 Unknown 11 ACIS 5.0 NT 24 Thu Mar 25 17:25:08 1999 
-1 9.9999999999999995e-007 1e-010 
body $-1 $20 $-1 $21 #
body $-1 $22 $-1 $23 #
body $-1 $24 $-1 $25 #
body $-1 $26 $-1 $27 #
body $-1 $28 $-1 $29 #
body $-1 $30 $-1 $31 #
body $-1 $32 $-1 $33 #
body $-1 $34 $-1 $35 #
body $-1 $36 $-1 $37 #
body $-1 $38 $-1 $39 #
body $-1 $40 $-1 $41 #
body $-1 $42 $-1 $43 #
body $-1 $44 $-1 $45 #
body $-1 $46 $-1 $47 #
body $-1 $48 $-1 $49 #
body $-1 $50 $-1 $51 #
body $-1 $52 $-1 $53 #
body $-1 $54 $-1 $55 #
body $-1 $56 $-1 $57 #
body $-1 $58 $-1 $59 #
lump $-1 $-1 $60 $0 #
transform $-1 1 0 0 0 1 0 0 0 1 53.39640491958373 32.54154572468164 10.389817287590391 1 rotate no_reflect no_shear #
lump $-1 $-1 $61 $1 #
transform $-1 1 0 0 0 1 0 0 0 1 53.39640491958373 32.54154572468164 10.389817287590391 1 rotate no_reflect no_shear #
lump $-1 $-1 $62 $2 #
transform $-1 1 0 0 0 1 0 0 0 1 53.39640491958373 32.54154572468164 10.389817287590391 1 rotate no_reflect no_shear #
lump $-1 $-1 $63 $3 #
transform $-1 1 0 0 0 1 0 0 0 1 53.39640491958373 32.54154572468164 10.389817287590391 1 rotate no_reflect no_shear #
lump $-1 $-1 $64 $4 #
transform $-1 1 0 0 0 1 0 0 0 1 53.39640491958373 32.54154572468164 10.389817287590391 1 rotate no_reflect no_shear #
lump $-1 $-1 $65 $5 #
transform $-1 1 0 0 0 1 0 0 0 1 53.39640491958373 32.54154572468164 10.389817287590391 1 rotate no_reflect no_shear #
lump $-1 $-1 $66 $6 #
transform $-1 1 0 0 0 1 0 0 0 1 53.39640491958373 32.54154572468164 10.389817287590391 1 rotate no_reflect no_shear #
lump $-1 $-1 $67 $7 #
transform $-1 1 0 0 0 1 0 0 0 1 53.39640491958373 32.54154572468164 10.389817287590391 1 rotate no_reflect no_shear #
lump $-1 $-1 $68 $8 #
transform $-1 1 0 0 0 1 0 0 0 1 53.39640491958373 32.54154572468164 10.389817287590391 1 rotate no_reflect no_shear #
lump $-1 $-1 $69 $9 #
transform $-1 1 0 0 0 1 0 0 0 1 53.39640491958373 32.54154572468164 10.389817287590391 1 rotate no_reflect no_shear #
lump $-1 $-1 $70 $10 #
transform $-1 1 0 0 0 1 0 0 0 1 53.39640491958373 32.54154572468164 10.389817287590391 1 rotate no_reflect no_shear #
lump $-1 $-1 $71 $11 #
transform $-1 1 0 0 0 1 0 0 0 1 53.39640491958373 32.54154572468164 10.389817287590391 1 rotate no_reflect no_shear #
lump $-1 $-1 $72 $12 #
transform $-1 1 0 0 0 1 0 0 0 1 53.39640491958373 32.54154572468164 10.389817287590391 1 rotate no_reflect no_shear #
lump $-1 $-1 $73 $13 #
transform $-1 1 0 0 0 1 0 0 0 1 53.39640491958373 32.54154572468164 10.389817287590391 1 rotate no_reflect no_shear #
lump $-1 $-1 $74 $14 #
transform $-1 1 0 0 0 1 0 0 0 1 53.39640491958373 32.54154572468164 10.389817287590391 1 rotate no_reflect no_shear #
lump $-1 $-1 $75 $15 #
transform $-1 1 0 0 0 1 0 0 0 1 53.39640491958373 32.54154572468164 10.389817287590391 1 rotate no_reflect no_shear #
lump $-1 $-1 $76 $16 #
transform $-1 1 0 0 0 1 0 0 0 1 53.39640491958373 32.54154572468164 10.389817287590391 1 rotate no_reflect no_shear #
lump $-1 $-1 $77 $17 #
transform $-1 1 0 0 0 1 0 0 0 1 53.39640491958373 32.54154572468164 10.389817287590391 1 rotate no_reflect no_shear #
lump $-1 $-1 $78 $18 #
transform $-1 1 0 0 0 1 0 0 0 1 53.39640491958373 32.54154572468164 10.389817287590391 1 rotate no_reflect no_shear #
lump $-1 $-1 $79 $19 #
transform $-1 1 0 0 0 1 0 0 0 1 53.39640491958373 32.54154572468164 10.389817287590391 1 rotate no_reflect no_shear #
shell $-1 $-1 $-1 $80 $-1 $20 #
shell $-1 $-1 $-1 $81 $-1 $22 #
shell $-1 $-1 $-1 $82 $-1 $24 #
shell $-1 $-1 $-1 $83 $-1 $26 #
shell $-1 $-1 $-1 $84 $-1 $28 #
shell $-1 $-1 $-1 $85 $-1 $30 #
shell $-1 $-1 $-1 $86 $-1 $32 #
shell $-1 $-1 $-1 $87 $-1 $34 #
shell $-1 $-1 $-1 $88 $-1 $36 #
shell $-1 $-1 $-1 $89 $-1 $38 #
shell $-1 $-1 $-1 $90 $-1 $40 #
shell $-1 $-1 $-1 $91 $-1 $42 #
shell $-1 $-1 $-1 $92 $-1 $44 #
shell $-1 $-1 $-1 $93 $-1 $46 #
shell $-1 $-1 $-1 $94 $-1 $48 #
shell $-1 $-1 $-1 $95 $-1 $50 #
shell $-1 $-1 $-1 $96 $-1 $52 #
shell $-1 $-1 $-1 $97 $-1 $54 #
shell $-1 $-1 $-1 $98 $-1 $56 #
shell $-1 $-1 $-1 $99 $-1 $58 #
face $-1 $100 $101 $60 $-1 $102 forward single #
face $-1 $103 $104 $61 $-1 $105 reversed single #
face $-1 $106 $107 $62 $-1 $108 reversed single #
face $-1 $109 $110 $63 $-1 $111 forward single #
face $-1 $112 $113 $64 $-1 $114 forward single #
face $-1 $115 $116 $65 $-1 $117 reversed single #
face $-1 $118 $119 $66 $-1 $120 forward single #
face $-1 $121 $122 $67 $-1 $123 forward single #
face $-1 $124 $125 $68 $-1 $126 reversed single #
face $-1 $127 $128 $69 $-1 $129 forward single #
face $-1 $130 $131 $70 $-1 $132 forward single #
face $-1 $133 $134 $71 $-1 $135 reversed single #
face $-1 $136 $137 $72 $-1 $138 forward single #
face $-1 $139 $140 $73 $-1 $141 forward single #
face $-1 $142 $143 $74 $-1 $144 reversed single #
face $-1 $145 $146 $75 $-1 $147 forward single #
face $-1 $148 $149 $76 $-1 $150 forward single #
face $-1 $151 $152 $77 $-1 $153 reversed single #
face $-1 $154 $155 $78 $-1 $156 forward single #
face $-1 $157 $158 $79 $-1 $159 forward single #
face $-1 $160 $161 $60 $-1 $162 reversed single #
loop $-1 $-1 $163 $80 #
plane-surface $-1 0 0 10.389817287590391 0 0 1 1 0 0 forward_v I I I I #
face $-1 $164 $165 $61 $-1 $166 reversed single #
loop $-1 $-1 $167 $81 #
plane-surface $-1 -47.827834473231448 0 7.3898172875903914 0 0 1 1 0 0 forward_v I I I I #
face $-1 $168 $169 $62 $-1 $170 reversed single #
loop $-1 $-1 $171 $82 #
plane-surface $-1 -37.830717096880974 82.690968184225952 117.35496651453772 1 0 0 0 -0.81915205242281985 -0.57357642473473569 forward_v I I I I #
face $-1 $172 $173 $63 $-1 $174 forward single #
loop $-1 $175 $176 $83 #
cone-surface $-1 -33.435716757867446 28.70277960519951 5.7645714111921373 0 -0.81915205242281985 -0.57357642473473569 1 0 0 1 I I 0 1 1 forward I I I I #
face $-1 $177 $178 $64 $-1 $179 forward single #
loop $-1 $180 $181 $84 #
cone-surface $-1 -26.843216249347158 28.70277960519951 5.7645714111921373 0 -0.81915205242281985 -0.57357642473473569 1 0 0 1 I I 0 1 1 forward I I I I #
face $-1 $182 $183 $65 $-1 $184 reversed single #
loop $-1 $-1 $185 $85 #
plane-surface $-1 -14.025359130241249 82.690968184225952 117.35496651453772 1 0 0 0 -0.81915205242281985 -0.57357642473473569 forward_v I I I I #
face $-1 $186 $187 $66 $-1 $188 forward single #
loop $-1 $189 $190 $86 #
cone-surface $-1 -9.6303587912277209 28.70277960519951 5.7645714111921373 0 -0.81915205242281985 -0.57357642473473569 1 0 0 1 I I 0 1 1 forward I I I I #
face $-1 $191 $192 $67 $-1 $193 forward single #
loop $-1 $194 $195 $87 #
cone-surface $-1 -3.0378582827074325 28.70277960519951 5.7645714111921373 0 -0.81915205242281985 -0.57357642473473569 1 0 0 1 I I 0 1 1 forward I I I I #
face $-1 $196 $197 $68 $-1 $198 reversed single #
loop $-1 $-1 $199 $88 #
plane-surface $-1 9.7799988363984696 82.690968184225952 117.35496651453772 1 0 0 0 -0.81915205242281985 -0.57357642473473569 forward_v I I I I #
face $-1 $200 $201 $69 $-1 $202 forward single #
loop $-1 $203 $204 $89 #
cone-surface $-1 14.174999175411997 28.70277960519951 5.7645714111921373 0 -0.81915205242281985 -0.57357642473473569 1 0 0 1 I I 0 1 1 forward I I I I #
face $-1 $205 $206 $70 $-1 $207 forward single #
loop $-1 $208 $209 $90 #
cone-surface $-1 20.767499683932286 28.70277960519951 5.7645714111921373 0 -0.81915205242281985 -0.57357642473473569 1 0 0 1 I I 0 1 1 forward I I I I #
face $-1 $210 $211 $71 $-1 $212 reversed single #
loop $-1 $-1 $213 $91 #
plane-surface $-1 33.585356803038188 82.690968184225952 117.35496651453772 1 0 0 0 -0.81915205242281985 -0.57357642473473569 forward_v I I I I #
face $-1 $214 $215 $72 $-1 $216 forward single #
loop $-1 $217 $218 $92 #
cone-surface $-1 37.980357142051716 28.70277960519951 5.7645714111921373 0 -0.81915205242281985 -0.57357642473473569 1 0 0 1 I I 0 1 1 forward I I I I #
face $-1 $219 $220 $73 $-1 $221 forward single #
loop $-1 $222 $223 $93 #
cone-surface $-1 44.572857650572004 28.70277960519951 5.7645714111921373 0 -0.81915205242281985 -0.57357642473473569 1 0 0 1 I I 0 1 1 forward I I I I #
face $-1 $224 $225 $74 $-1 $226 reversed single #
loop $-1 $-1 $227 $94 #
plane-surface $-1 -26.246638747735791 -98.289765408951297 90.667755409115628 -1 0 0 0 -0.61566148304635926 0.78801074757464917 forward_v I I I I #
face $-1 $228 $229 $75 $-1 $230 forward single #
loop $-1 $231 $232 $95 #
cone-surface $-1 -37.684228232838201 -29.163914308100974 7.3035578696487153 0 0.61566148304635926 -0.78801074757464917 1.5 0 0 1 I I 0 1 1.5 forward I I I I #
face $-1 $233 $234 $76 $-1 $235 forward single #
loop $-1 $236 $237 $96 #
cone-surface $-1 -30.821674541776758 -29.163914308100974 7.3035578696487153 0 0.61566148304635926 -0.78801074757464917 1.5 0 0 1 I I 0 1 1.5 forward I I I I #
face $-1 $238 $239 $77 $-1 $240 reversed single #
loop $-1 $-1 $241 $97 #
plane-surface $-1 21.581195725495657 -98.289765408951297 90.667755409115628 -1 0 0 0 -0.61566148304635926 0.78801074757464917 forward_v I I I I #
face $-1 $242 $243 $78 $-1 $244 forward single #
loop $-1 $245 $246 $98 #
cone-surface $-1 10.143606240393247 -29.163914308100974 7.3035578696487153 0 0.61566148304635926 -0.78801074757464917 1.5 0 0 1 I I 0 1 1.5 forward I I I I #
face $-1 $247 $248 $79 $-1 $249 forward single #
loop $-1 $250 $251 $99 #
cone-surface $-1 17.00615993145469 -29.163914308100974 7.3035578696487153 0 0.61566148304635926 -0.78801074757464917 1.5 0 0 1 I I 0 1 1.5 forward I I I I #
face $-1 $252 $253 $60 $-1 $254 reversed single #
loop $-1 $-1 $255 $100 #
plane-surface $-1 0 0 -10.389817287590391 0 0 1 1 0 0 forward_v I I I I #
coedge $-1 $256 $257 $258 $259 forward $101 $-1 #
face $-1 $260 $261 $61 $-1 $262 reversed single #
loop $-1 $-1 $263 $103 #
plane-surface $-1 -42.259264026879165 0 8.8898172875903914 -1 0 0 0 0 1 forward_v I I I I #
coedge $-1 $264 $265 $263 $266 forward $104 $-1 #
face $-1 $267 $268 $62 $-1 $269 reversed single #
loop $-1 $-1 $270 $106 #
plane-surface $-1 -30.139466503607302 -4.7885811795279807 56.101128459611544 0 0.81915205242281985 0.57357642473473569 1 0 0 forward_v I I I I #
coedge $-1 $271 $272 $273 $274 reversed $107 $-1 #
face $-1 $-1 $275 $63 $-1 $276 forward single #
loop $-1 $277 $278 $109 #
cone-surface $-1 -33.435716757867446 27.115799062584898 4.6533557057999513 0 -0.81915205242281985 -0.57357642473473569 0.5 0 0 1 I I -0.70710678118654746 0.70710678118654746 0.5 forward I I I I #
loop $-1 $-1 $279 $83 #
coedge $-1 $176 $176 $280 $281 reversed $110 $-1 #
face $-1 $-1 $282 $64 $-1 $283 forward single #
loop $-1 $284 $285 $112 #
cone-surface $-1 -26.843216249347158 27.115799062584898 4.6533557057999513 0 -0.81915205242281985 -0.57357642473473569 0.5 0 0 1 I I -0.70710678118654746 0.70710678118654746 0.5 forward I I I I #
loop $-1 $-1 $286 $84 #
coedge $-1 $181 $181 $287 $288 reversed $113 $-1 #
face $-1 $289 $290 $65 $-1 $291 reversed single #
loop $-1 $-1 $292 $115 #
plane-surface $-1 -6.3341085369675767 -4.7885811795279807 56.101128459611544 0 0.81915205242281985 0.57357642473473569 1 0 0 forward_v I I I I #
coedge $-1 $293 $294 $295 $296 reversed $116 $-1 #
face $-1 $-1 $297 $66 $-1 $298 forward single #
loop $-1 $299 $300 $118 #
cone-surface $-1 -9.6303587912277209 27.115799062584898 4.6533557057999513 0 -0.81915205242281985 -0.57357642473473569 0.5 0 0 1 I I -0.70710678118654746 0.70710678118654746 0.5 forward I I I I #
loop $-1 $-1 $301 $86 #
coedge $-1 $190 $190 $302 $303 reversed $119 $-1 #
face $-1 $-1 $304 $67 $-1 $305 forward single #
loop $-1 $306 $307 $121 #
cone-surface $-1 -3.0378582827074325 27.115799062584898 4.6533557057999513 0 -0.81915205242281985 -0.57357642473473569 0.5 0 0 1 I I -0.70710678118654746 0.70710678118654746 0.5 forward I I I I #
loop $-1 $-1 $308 $87 #
coedge $-1 $195 $195 $309 $310 reversed $122 $-1 #
face $-1 $311 $312 $68 $-1 $313 reversed single #
loop $-1 $-1 $314 $124 #
plane-surface $-1 17.471249429672142 -4.7885811795279807 56.101128459611544 0 0.81915205242281985 0.57357642473473569 1 0 0 forward_v I I I I #
coedge $-1 $315 $316 $317 $318 reversed $125 $-1 #
face $-1 $-1 $319 $69 $-1 $320 forward single #
loop $-1 $321 $322 $127 #
cone-surface $-1 14.174999175411997 27.115799062584898 4.6533557057999513 0 -0.81915205242281985 -0.57357642473473569 0.5 0 0 1 I I -0.70710678118654746 0.70710678118654746 0.5 forward I I I I #
loop $-1 $-1 $323 $89 #
coedge $-1 $204 $204 $324 $325 reversed $128 $-1 #
face $-1 $-1 $326 $70 $-1 $327 forward single #
loop $-1 $328 $329 $130 #
cone-surface $-1 20.767499683932286 27.115799062584898 4.6533557057999513 0 -0.81915205242281985 -0.57357642473473569 0.5 0 0 1 I I -0.70710678118654746 0.70710678118654746 0.5 forward I I I I #
loop $-1 $-1 $330 $90 #
coedge $-1 $209 $209 $331 $332 reversed $131 $-1 #
face $-1 $333 $334 $71 $-1 $335 reversed single #
loop $-1 $-1 $336 $133 #
plane-surface $-1 41.27660739631186 -4.7885811795279807 56.101128459611544 0 0.81915205242281985 0.57357642473473569 1 0 0 forward_v I I I I #
coedge $-1 $337 $338 $339 $340 reversed $134 $-1 #
face $-1 $-1 $341 $72 $-1 $342 forward single #
loop $-1 $343 $344 $136 #
cone-surface $-1 37.980357142051716 27.115799062584898 4.6533557057999513 0 -0.81915205242281985 -0.57357642473473569 0.5 0 0 1 I I -0.70710678118654746 0.70710678118654746 0.5 forward I I I I #
loop $-1 $-1 $345 $92 #
coedge $-1 $218 $218 $346 $347 reversed $137 $-1 #
face $-1 $-1 $348 $73 $-1 $349 forward single #
loop $-1 $350 $351 $139 #
cone-surface $-1 44.572857650572004 27.115799062584898 4.6533557057999513 0 -0.81915205242281985 -0.57357642473473569 0.5 0 0 1 I I -0.70710678118654746 0.70710678118654746 0.5 forward I I I I #
loop $-1 $-1 $352 $93 #
coedge $-1 $223 $223 $353 $354 reversed $140 $-1 #
face $-1 $355 $356 $74 $-1 $357 forward single #
loop $-1 $-1 $358 $142 #
plane-surface $-1 -34.252951387307476 -32.541545724681626 6.5138734921559234 0 -0.61566148304635926 0.78801074757464917 1 0 0 forward_v I I I I #
coedge $-1 $359 $360 $361 $362 reversed $143 $-1 #
face $-1 $-1 $363 $75 $-1 $364 forward single #
loop $-1 $365 $366 $145 #
cone-surface $-1 -37.684228232838201 -27.805027643049776 5.5642622887432847 0 0.61566148304635926 -0.78801074757464917 0.75 0 0 1 I I -0.70710678118654757 0.70710678118654757 0.75 forward I I I I #
loop $-1 $-1 $367 $95 #
coedge $-1 $232 $232 $368 $369 reversed $146 $-1 #
face $-1 $-1 $370 $76 $-1 $371 forward single #
loop $-1 $372 $373 $148 #
cone-surface $-1 -30.821674541776758 -27.805027643049776 5.5642622887432847 0 0.61566148304635926 -0.78801074757464917 0.75 0 0 1 I I -0.70710678118654757 0.70710678118654757 0.75 forward I I I I #
loop $-1 $-1 $374 $96 #
coedge $-1 $237 $237 $375 $376 reversed $149 $-1 #
face $-1 $377 $378 $77 $-1 $379 reversed single #
loop $-1 $-1 $380 $151 #
plane-surface $-1 13.574883085923972 -32.541545724681626 6.5138734921559234 0 -0.61566148304635926 0.78801074757464917 1 0 0 forward_v I I I I #
coedge $-1 $381 $382 $383 $384 reversed $152 $-1 #
face $-1 $-1 $385 $78 $-1 $386 forward single #
loop $-1 $387 $388 $154 #
cone-surface $-1 10.143606240393247 -27.805027643049776 5.5642622887432847 0 0.61566148304635926 -0.78801074757464917 0.75 0 0 1 I I -0.70710678118654757 0.70710678118654757 0.75 forward I I I I #
loop $-1 $-1 $389 $98 #
coedge $-1 $246 $246 $390 $391 reversed $155 $-1 #
face $-1 $-1 $392 $79 $-1 $393 forward single #
loop $-1 $394 $395 $157 #
cone-surface $-1 17.00615993145469 -27.805027643049776 5.5642622887432847 0 0.61566148304635926 -0.78801074757464917 0.75 0 0 1 I I -0.70710678118654757 0.70710678118654757 0.75 forward I I I I #
loop $-1 $-1 $396 $99 #
coedge $-1 $251 $251 $397 $398 reversed $158 $-1 #
face $-1 $399 $400 $60 $-1 $401 reversed single #
loop $-1 $-1 $402 $160 #
plane-surface $-1 0 -32.54154572468164 0 0 1 0 0 0 1 forward_v I I I I #
coedge $-1 $403 $404 $405 $406 forward $161 $-1 #
coedge $-1 $407 $163 $408 $409 forward $101 $-1 #
coedge $-1 $163 $407 $410 $411 forward $101 $-1 #
coedge $-1 $412 $413 $163 $259 reversed $414 $-1 #
edge $-1 $415 -32.54154572468164 $416 32.54154572468164 $258 $417 forward 7 unknown #
face $-1 $418 $419 $61 $-1 $420 reversed single #
loop $-1 $-1 $421 $164 #
plane-surface $-1 0 32.54154572468164 0 0 -1 0 0 0 -1 forward_v I I I I #
coedge $-1 $422 $423 $167 $266 reversed $165 $-1 #
coedge $-1 $424 $167 $425 $426 reversed $104 $-1 #
coedge $-1 $167 $424 $427 $428 reversed $104 $-1 #
edge $-1 $429 -32.54154572468164 $430 32.54154572468164 $263 $431 forward 7 unknown #
face $-1 $432 $433 $62 $-1 $434 forward single #
loop $-1 $-1 $435 $168 #
plane-surface $-1 -22.44821591033363 82.690968184225952 117.35496651453772 -1 0 0 0 0.81915205242281985 0.57357642473473569 forward_v I I I I #
coedge $-1 $436 $437 $438 $439 reversed $169 $-1 #
coedge $-1 $272 $171 $440 $441 reversed $107 $-1 #
coedge $-1 $171 $271 $436 $442 reversed $107 $-1 #
coedge $-1 $438 $443 $171 $274 forward $433 $-1 #
edge $-1 $444 8.8039383674313356 $445 14.126661573589168 $273 $446 forward 7 unknown #
loop $-1 $-1 $280 $172 #
plane-surface $-1 -30.139466503607302 -4.7885811795279807 56.101128459611544 0 0.81915205242281985 0.57357642473473569 1 0 0 forward_v I I I I #
loop $-1 $-1 $447 $109 #
coedge $-1 $278 $278 $279 $448 reversed $173 $-1 #
coedge $-1 $279 $279 $278 $448 forward $175 $-1 #
coedge $-1 $280 $280 $176 $281 forward $275 $-1 #
edge $-1 $449 5.7962686500984556e-016 $449 6.2831853071796013 $280 $450 forward 7 unknown #
loop $-1 $-1 $287 $177 #
plane-surface $-1 -30.139466503607302 -4.7885811795279807 56.101128459611544 0 0.81915205242281985 0.57357642473473569 1 0 0 forward_v I I I I #
loop $-1 $-1 $451 $112 #
coedge $-1 $285 $285 $286 $452 reversed $178 $-1 #
coedge $-1 $286 $286 $285 $452 forward $180 $-1 #
coedge $-1 $287 $287 $181 $288 forward $282 $-1 #
edge $-1 $453 5.7962686500984556e-016 $453 6.2831853071796013 $287 $454 forward 7 unknown #
face $-1 $455 $456 $65 $-1 $457 forward single #
loop $-1 $-1 $458 $182 #
plane-surface $-1 1.3571420563060954 82.690968184225952 117.35496651453772 -1 0 0 0 0.81915205242281985 0.57357642473473569 forward_v I I I I #
coedge $-1 $459 $460 $461 $462 reversed $183 $-1 #
coedge $-1 $294 $185 $463 $464 reversed $116 $-1 #
coedge $-1 $185 $293 $459 $465 reversed $116 $-1 #
coedge $-1 $461 $466 $185 $296 forward $456 $-1 #
edge $-1 $467 8.8039383674313356 $468 14.126661573589168 $295 $469 forward 7 unknown #
loop $-1 $-1 $302 $186 #
plane-surface $-1 -6.3341085369675767 -4.7885811795279807 56.101128459611544 0 0.81915205242281985 0.57357642473473569 1 0 0 forward_v I I I I #
loop $-1 $-1 $470 $118 #
coedge $-1 $300 $300 $301 $471 reversed $187 $-1 #
coedge $-1 $301 $301 $300 $471 forward $189 $-1 #
coedge $-1 $302 $302 $190 $303 forward $297 $-1 #
edge $-1 $472 5.7962686500984556e-016 $472 6.2831853071796013 $302 $473 forward 7 unknown #
loop $-1 $-1 $309 $191 #
plane-surface $-1 -6.3341085369675767 -4.7885811795279807 56.101128459611544 0 0.81915205242281985 0.57357642473473569 1 0 0 forward_v I I I I #
loop $-1 $-1 $474 $121 #
coedge $-1 $307 $307 $308 $475 reversed $192 $-1 #
coedge $-1 $308 $308 $307 $475 forward $194 $-1 #
coedge $-1 $309 $309 $195 $310 forward $304 $-1 #
edge $-1 $476 5.7962686500984556e-016 $476 6.2831853071796013 $309 $477 forward 7 unknown #
face $-1 $478 $479 $68 $-1 $480 forward single #
loop $-1 $-1 $481 $196 #
plane-surface $-1 25.162500022945814 82.690968184225952 117.35496651453772 -1 0 0 0 0.81915205242281985 0.57357642473473569 forward_v I I I I #
coedge $-1 $482 $483 $484 $485 reversed $197 $-1 #
coedge $-1 $316 $199 $486 $487 reversed $125 $-1 #
coedge $-1 $199 $315 $482 $488 reversed $125 $-1 #
coedge $-1 $484 $489 $199 $318 forward $479 $-1 #
edge $-1 $490 8.8039383674313356 $491 14.126661573589168 $317 $492 forward 7 unknown #
loop $-1 $-1 $324 $200 #
plane-surface $-1 17.471249429672142 -4.7885811795279807 56.101128459611544 0 0.81915205242281985 0.57357642473473569 1 0 0 forward_v I I I I #
loop $-1 $-1 $493 $127 #
coedge $-1 $322 $322 $323 $494 reversed $201 $-1 #
coedge $-1 $323 $323 $322 $494 forward $203 $-1 #
coedge $-1 $324 $324 $204 $325 forward $319 $-1 #
edge $-1 $495 5.7962686500984556e-016 $495 6.2831853071796013 $324 $496 forward 7 unknown #
loop $-1 $-1 $331 $205 #
plane-surface $-1 17.471249429672142 -4.7885811795279807 56.101128459611544 0 0.81915205242281985 0.57357642473473569 1 0 0 forward_v I I I I #
loop $-1 $-1 $497 $130 #
coedge $-1 $329 $329 $330 $498 reversed $206 $-1 #
coedge $-1 $330 $330 $329 $498 forward $208 $-1 #
coedge $-1 $331 $331 $209 $332 forward $326 $-1 #
edge $-1 $499 5.7962686500984556e-016 $499 6.2831853071796013 $331 $500 forward 7 unknown #
face $-1 $501 $502 $71 $-1 $503 forward single #
loop $-1 $-1 $504 $210 #
plane-surface $-1 48.967857989585532 82.690968184225952 117.35496651453772 -1 0 0 0 0.81915205242281985 0.57357642473473569 forward_v I I I I #
coedge $-1 $505 $506 $507 $508 reversed $211 $-1 #
coedge $-1 $338 $213 $509 $510 reversed $134 $-1 #
coedge $-1 $213 $337 $505 $511 reversed $134 $-1 #
coedge $-1 $507 $512 $213 $340 forward $502 $-1 #
edge $-1 $513 8.8039383674313356 $514 14.126661573589168 $339 $515 forward 7 unknown #
loop $-1 $-1 $346 $214 #
plane-surface $-1 41.27660739631186 -4.7885811795279807 56.101128459611544 0 0.81915205242281985 0.57357642473473569 1 0 0 forward_v I I I I #
loop $-1 $-1 $516 $136 #
coedge $-1 $344 $344 $345 $517 reversed $215 $-1 #
coedge $-1 $345 $345 $344 $517 forward $217 $-1 #
coedge $-1 $346 $346 $218 $347 forward $341 $-1 #
edge $-1 $518 5.7962686500984556e-016 $518 6.2831853071796013 $346 $519 forward 7 unknown #
loop $-1 $-1 $353 $219 #
plane-surface $-1 41.27660739631186 -4.7885811795279807 56.101128459611544 0 0.81915205242281985 0.57357642473473569 1 0 0 forward_v I I I I #
loop $-1 $-1 $520 $139 #
coedge $-1 $351 $351 $352 $521 reversed $220 $-1 #
coedge $-1 $352 $352 $351 $521 forward $222 $-1 #
coedge $-1 $353 $353 $223 $354 forward $348 $-1 #
edge $-1 $522 5.7962686500984556e-016 $522 6.2831853071796013 $353 $523 forward 7 unknown #
face $-1 $524 $525 $74 $-1 $526 forward single #
loop $-1 $-1 $527 $224 #
plane-surface $-1 -42.259264026879165 0 8.8898172875903914 -1 0 0 0 0 1 forward_v I I I I #
coedge $-1 $528 $529 $530 $531 reversed $225 $-1 #
coedge $-1 $360 $227 $532 $533 reversed $143 $-1 #
coedge $-1 $227 $359 $528 $534 reversed $143 $-1 #
coedge $-1 $530 $535 $227 $362 forward $525 $-1 #
edge $-1 $536 16.603336979794008 $537 21.564318707422501 $361 $538 forward 7 unknown #
loop $-1 $-1 $368 $228 #
plane-surface $-1 -34.252951387307476 -32.541545724681626 6.5138734921559234 0 -0.61566148304635926 0.78801074757464917 1 0 0 forward_v I I I I #
loop $-1 $-1 $539 $145 #
coedge $-1 $366 $366 $367 $540 reversed $229 $-1 #
coedge $-1 $367 $367 $366 $540 forward $231 $-1 #
coedge $-1 $368 $368 $232 $369 forward $363 $-1 #
edge $-1 $541 1.7790639125821621e-015 $541 6.2831853071796022 $368 $542 forward 7 unknown #
loop $-1 $-1 $375 $233 #
plane-surface $-1 -34.252951387307476 -32.541545724681626 6.5138734921559234 0 -0.61566148304635926 0.78801074757464917 1 0 0 forward_v I I I I #
loop $-1 $-1 $543 $148 #
coedge $-1 $373 $373 $374 $544 reversed $234 $-1 #
coedge $-1 $374 $374 $373 $544 forward $236 $-1 #
coedge $-1 $375 $375 $237 $376 forward $370 $-1 #
edge $-1 $545 1.7790639125821621e-015 $545 6.2831853071796022 $375 $546 forward 7 unknown #
face $-1 $547 $548 $77 $-1 $549 reversed single #
loop $-1 $-1 $550 $238 #
plane-surface $-1 5.568570446352286 -98.289765408951297 90.667755409115628 1 0 0 0 0.61566148304635926 -0.78801074757464917 forward_v I I I I #
coedge $-1 $551 $552 $553 $554 reversed $239 $-1 #
coedge $-1 $382 $241 $555 $556 reversed $152 $-1 #
coedge $-1 $241 $381 $551 $557 reversed $152 $-1 #
coedge $-1 $553 $558 $241 $384 forward $559 $-1 #
edge $-1 $560 16.603336979794008 $561 21.564318707422501 $383 $562 forward 7 unknown #
loop $-1 $-1 $390 $242 #
plane-surface $-1 13.574883085923972 -32.541545724681626 6.5138734921559234 0 -0.61566148304635926 0.78801074757464917 1 0 0 forward_v I I I I #
loop $-1 $-1 $563 $154 #
coedge $-1 $388 $388 $389 $564 reversed $243 $-1 #
coedge $-1 $389 $389 $388 $564 forward $245 $-1 #
coedge $-1 $390 $390 $246 $391 forward $385 $-1 #
edge $-1 $565 1.7790639125821621e-015 $565 6.2831853071796022 $390 $566 forward 7 unknown #
loop $-1 $-1 $397 $247 #
plane-surface $-1 13.574883085923972 -32.541545724681626 6.5138734921559234 0 -0.61566148304635926 0.78801074757464917 1 0 0 forward_v I I I I #
loop $-1 $-1 $567 $157 #
coedge $-1 $395 $395 $396 $568 reversed $248 $-1 #
coedge $-1 $396 $396 $395 $568 forward $250 $-1 #
coedge $-1 $397 $397 $251 $398 forward $392 $-1 #
edge $-1 $569 1.7790639125821621e-015 $569 6.2831853071796022 $397 $570 forward 7 unknown #
face $-1 $571 $572 $60 $-1 $573 reversed single #
loop $-1 $-1 $574 $252 #
plane-surface $-1 -53.39640491958373 0 0 1 0 0 0 0 -1 forward_v I I I I #
coedge $-1 $575 $410 $576 $577 forward $253 $-1 #
coedge $-1 $578 $255 $575 $579 forward $161 $-1 #
coedge $-1 $255 $578 $580 $581 forward $161 $-1 #
coedge $-1 $413 $412 $255 $406 reversed $414 $-1 #
edge $-1 $582 -32.54154572468164 $583 32.54154572468164 $405 $584 forward 7 unknown #
coedge $-1 $257 $256 $585 $586 forward $101 $-1 #
coedge $-1 $587 $588 $256 $409 reversed $572 $-1 #
edge $-1 $416 -53.39640491958373 $589 53.39640491958373 $408 $590 forward 7 unknown #
coedge $-1 $402 $591 $257 $411 reversed $253 $-1 #
edge $-1 $592 -53.39640491958373 $415 53.39640491958373 $410 $593 forward 7 unknown #
coedge $-1 $405 $258 $591 $594 forward $414 $-1 #
coedge $-1 $258 $405 $587 $595 reversed $414 $-1 #
loop $-1 $-1 $412 $571 #
vertex $-1 $259 $596 #
vertex $-1 $259 $597 #
straight-curve $-1 53.39640491958373 0 10.389817287590391 0 1 0 I I #
face $-1 $598 $599 $61 $-1 $600 forward single #
loop $-1 $-1 $601 $260 #
plane-surface $-1 -53.39640491958373 0 0 1 0 0 0 0 -1 forward_v I I I I #
coedge $-1 $427 $602 $422 $603 forward $261 $-1 #
coedge $-1 $604 $263 $421 $603 reversed $165 $-1 #
coedge $-1 $263 $604 $605 $606 reversed $165 $-1 #
coedge $-1 $265 $264 $601 $607 reversed $104 $-1 #
coedge $-1 $605 $608 $264 $426 forward $609 $-1 #
edge $-1 $610 -29.482487682968006 $430 -18.345346790263442 $425 $611 forward 7 unknown #
coedge $-1 $612 $421 $265 $428 forward $261 $-1 #
edge $-1 $429 18.345346790263442 $613 29.482487682968006 $427 $614 forward 7 unknown #
vertex $-1 $428 $615 #
vertex $-1 $426 $616 #
straight-curve $-1 -42.259264026879165 0 7.3898172875903914 0 -1 0 I I #
face $-1 $-1 $617 $62 $-1 $618 reversed single #
loop $-1 $-1 $273 $267 #
plane-surface $-1 0 0 10.389817287590391 0 0 1 1 0 0 forward_v I I I I #
coedge $-1 $619 $620 $621 $622 reversed $268 $-1 #
coedge $-1 $623 $270 $272 $442 forward $169 $-1 #
coedge $-1 $270 $623 $619 $624 forward $169 $-1 #
coedge $-1 $621 $273 $270 $439 forward $433 $-1 #
edge $-1 $445 -22.760983845077323 $625 -7.378482658529979 $438 $626 forward 7 unknown #
coedge $-1 $627 $628 $271 $441 forward $617 $-1 #
edge $-1 $629 -55.8893027364253 $444 -48.287665969678471 $440 $630 forward 7 unknown #
edge $-1 $445 55.803206543669205 $629 65.083091449363266 $272 $631 forward 7 unknown #
coedge $-1 $273 $621 $627 $632 forward $433 $-1 #
vertex $-1 $441 $633 #
vertex $-1 $274 $634 #
straight-curve $-1 -37.830717096880974 41.345484092112976 10.38981728759039 0 -1 0 I I #
coedge $-1 $447 $447 $-1 $635 reversed $277 $-1 #
edge $-1 $636 0 $636 6.2831853071796004 $278 $637 forward 7 unknown #
vertex $-1 $281 $638 #
ellipse-curve $-1 -33.435716757867446 29.880184121602728 6.5889989042169663 0 0.81915205242281985 0.57357642473473569 1 0 0 1 I I #
coedge $-1 $451 $451 $-1 $639 reversed $284 $-1 #
edge $-1 $640 0 $640 6.2831853071796004 $285 $641 forward 7 unknown #
vertex $-1 $288 $642 #
ellipse-curve $-1 -26.843216249347158 29.880184121602728 6.5889989042169663 0 0.81915205242281985 0.57357642473473569 1 0 0 1 I I #
face $-1 $-1 $643 $65 $-1 $644 reversed single #
loop $-1 $-1 $295 $289 #
plane-surface $-1 0 0 10.389817287590391 0 0 1 1 0 0 forward_v I I I I #
coedge $-1 $645 $646 $647 $648 reversed $290 $-1 #
coedge $-1 $649 $292 $294 $465 forward $183 $-1 #
coedge $-1 $292 $649 $645 $650 forward $183 $-1 #
coedge $-1 $647 $295 $292 $462 forward $456 $-1 #
edge $-1 $468 -10.85830486175746 $651 4.5241963247898838 $461 $652 forward 7 unknown #
coedge $-1 $653 $654 $293 $464 forward $643 $-1 #
edge $-1 $655 -55.8893027364253 $467 -48.287665969678471 $463 $656 forward 7 unknown #
edge $-1 $468 55.803206543669205 $655 65.083091449363266 $294 $657 forward 7 unknown #
coedge $-1 $295 $647 $653 $658 forward $456 $-1 #
vertex $-1 $296 $659 #
vertex $-1 $296 $660 #
straight-curve $-1 -14.025359130241249 41.345484092112976 10.38981728759039 0 -1 0 I I #
coedge $-1 $470 $470 $-1 $661 reversed $299 $-1 #
edge $-1 $662 0 $662 6.2831853071796004 $300 $663 forward 7 unknown #
vertex $-1 $303 $664 #
ellipse-curve $-1 -9.6303587912277209 29.880184121602728 6.5889989042169663 0 0.81915205242281985 0.57357642473473569 1 0 0 1 I I #
coedge $-1 $474 $474 $-1 $665 reversed $306 $-1 #
edge $-1 $666 0 $666 6.2831853071796004 $307 $667 forward 7 unknown #
vertex $-1 $310 $668 #
ellipse-curve $-1 -3.0378582827074325 29.880184121602728 6.5889989042169663 0 0.81915205242281985 0.57357642473473569 1 0 0 1 I I #
face $-1 $-1 $669 $68 $-1 $670 reversed single #
loop $-1 $-1 $317 $311 #
plane-surface $-1 0 0 10.389817287590391 0 0 1 1 0 0 forward_v I I I I #
coedge $-1 $671 $672 $673 $674 reversed $312 $-1 #
coedge $-1 $675 $314 $316 $488 forward $197 $-1 #
coedge $-1 $314 $675 $671 $676 forward $197 $-1 #
coedge $-1 $673 $317 $314 $485 forward $479 $-1 #
edge $-1 $491 1.0443741215623987 $677 16.426875308109743 $484 $678 forward 7 unknown #
coedge $-1 $679 $680 $315 $487 forward $669 $-1 #
edge $-1 $681 -55.8893027364253 $490 -48.287665969678471 $486 $682 forward 7 unknown #
edge $-1 $491 55.803206543669205 $681 65.083091449363266 $316 $683 forward 7 unknown #
coedge $-1 $317 $673 $679 $684 forward $479 $-1 #
vertex $-1 $318 $685 #
vertex $-1 $318 $686 #
straight-curve $-1 9.7799988363984696 41.345484092112976 10.38981728759039 0 -1 0 I I #
coedge $-1 $493 $493 $-1 $687 reversed $321 $-1 #
edge $-1 $688 0 $688 6.2831853071796004 $322 $689 forward 7 unknown #
vertex $-1 $325 $690 #
ellipse-curve $-1 14.174999175411997 29.880184121602728 6.5889989042169663 0 0.81915205242281985 0.57357642473473569 1 0 0 1 I I #
coedge $-1 $497 $497 $-1 $691 reversed $328 $-1 #
edge $-1 $692 0 $692 6.2831853071796004 $329 $693 forward 7 unknown #
vertex $-1 $332 $694 #
ellipse-curve $-1 20.767499683932286 29.880184121602728 6.5889989042169663 0 0.81915205242281985 0.57357642473473569 1 0 0 1 I I #
face $-1 $-1 $695 $71 $-1 $696 reversed single #
loop $-1 $-1 $339 $333 #
plane-surface $-1 0 0 10.389817287590391 0 0 1 1 0 0 forward_v I I I I #
coedge $-1 $697 $698 $699 $700 reversed $334 $-1 #
coedge $-1 $701 $336 $338 $511 forward $211 $-1 #
coedge $-1 $336 $701 $697 $702 forward $211 $-1 #
coedge $-1 $699 $339 $336 $508 forward $502 $-1 #
edge $-1 $514 12.947053104882258 $703 28.329554291429602 $507 $704 forward 7 unknown #
coedge $-1 $705 $706 $337 $510 forward $695 $-1 #
edge $-1 $707 -55.8893027364253 $513 -48.287665969678471 $509 $708 forward 7 unknown #
edge $-1 $514 55.803206543669205 $707 65.083091449363266 $338 $709 forward 7 unknown #
coedge $-1 $339 $699 $705 $710 forward $502 $-1 #
vertex $-1 $340 $711 #
vertex $-1 $340 $712 #
straight-curve $-1 33.585356803038188 41.345484092112976 10.38981728759039 0 -1 0 I I #
coedge $-1 $516 $516 $-1 $713 reversed $343 $-1 #
edge $-1 $714 0 $714 6.2831853071796004 $344 $715 forward 7 unknown #
vertex $-1 $347 $716 #
ellipse-curve $-1 37.980357142051716 29.880184121602728 6.5889989042169663 0 0.81915205242281985 0.57357642473473569 1 0 0 1 I I #
coedge $-1 $520 $520 $-1 $717 reversed $350 $-1 #
edge $-1 $718 0 $718 6.2831853071796004 $351 $719 forward 7 unknown #
vertex $-1 $354 $720 #
ellipse-curve $-1 44.572857650572004 29.880184121602728 6.5889989042169663 0 0.81915205242281985 0.57357642473473569 1 0 0 1 I I #
face $-1 $-1 $721 $74 $-1 $722 reversed single #
loop $-1 $-1 $530 $355 #
plane-surface $-1 0 0 10.389817287590391 0 0 1 1 0 0 forward_v I I I I #
coedge $-1 $723 $724 $529 $725 reversed $356 $-1 #
coedge $-1 $726 $358 $360 $534 forward $225 $-1 #
coedge $-1 $358 $726 $527 $725 forward $225 $-1 #
coedge $-1 $727 $361 $358 $531 forward $525 $-1 #
edge $-1 $537 9.1201630540820524 $728 25.132788333225427 $530 $729 forward 7 unknown #
coedge $-1 $730 $731 $359 $533 forward $721 $-1 #
edge $-1 $732 -38.820004212401905 $536 -34.944060416967424 $532 $733 forward 7 unknown #
edge $-1 $537 -6.2955762251942113 $732 1.830693040787162e-014 $360 $734 forward 7 unknown #
coedge $-1 $361 $727 $730 $735 forward $525 $-1 #
vertex $-1 $533 $736 #
vertex $-1 $362 $737 #
straight-curve $-1 -26.246638747735791 -49.144882704475648 10.38981728759039 0 1 0 I I #
coedge $-1 $539 $539 $-1 $738 reversed $365 $-1 #
edge $-1 $739 0 $739 6.2831853071796004 $366 $740 forward 7 unknown #
vertex $-1 $369 $741 #
ellipse-curve $-1 -37.684228232838201 -30.061054860867397 8.4518453898731494 0 -0.61566148304635926 0.78801074757464917 1.5 0 0 1 I I #
coedge $-1 $543 $543 $-1 $742 reversed $372 $-1 #
edge $-1 $743 0 $743 6.2831853071796004 $373 $744 forward 7 unknown #
vertex $-1 $376 $745 #
ellipse-curve $-1 -30.821674541776758 -30.061054860867397 8.4518453898731494 0 -0.61566148304635926 0.78801074757464917 1.5 0 0 1 I I #
face $-1 $-1 $559 $77 $-1 $746 forward single #
loop $-1 $-1 $747 $377 #
plane-surface $-1 0 -32.54154572468164 0 0 1 0 0 0 1 forward_v I I I I #
coedge $-1 $748 $749 $750 $751 reversed $378 $-1 #
coedge $-1 $752 $380 $382 $557 forward $239 $-1 #
coedge $-1 $380 $752 $748 $753 forward $239 $-1 #
coedge $-1 $750 $383 $380 $554 forward $559 $-1 #
edge $-1 $561 -14.793754182533672 $754 1.2188710966096998 $553 $755 forward 7 unknown #
coedge $-1 $756 $757 $381 $556 forward $548 $-1 #
edge $-1 $758 -38.820004212401905 $560 -34.944060416967424 $555 $759 forward 7 unknown #
edge $-1 $561 -6.2955762251942113 $758 1.830693040787162e-014 $382 $760 forward 7 unknown #
coedge $-1 $383 $750 $756 $761 forward $559 $-1 #
loop $-1 $-1 $750 $547 #
vertex $-1 $556 $762 #
vertex $-1 $384 $763 #
straight-curve $-1 21.581195725495657 -49.144882704475648 10.38981728759039 0 1 0 I I #
coedge $-1 $563 $563 $-1 $764 reversed $387 $-1 #
edge $-1 $765 0 $765 6.2831853071796004 $388 $766 forward 7 unknown #
vertex $-1 $391 $767 #
ellipse-curve $-1 10.143606240393247 -30.061054860867397 8.4518453898731494 0 -0.61566148304635926 0.78801074757464917 1.5 0 0 1 I I #
coedge $-1 $567 $567 $-1 $768 reversed $394 $-1 #
edge $-1 $769 0 $769 6.2831853071796004 $395 $770 forward 7 unknown #
vertex $-1 $398 $771 #
ellipse-curve $-1 17.00615993145469 -30.061054860867397 8.4518453898731494 0 -0.61566148304635926 0.78801074757464917 1.5 0 0 1 I I #
face $-1 $-1 $414 $60 $-1 $772 reversed single #
loop $-1 $-1 $587 $399 #
plane-surface $-1 0 32.54154572468164 0 0 -1 0 0 0 -1 forward_v I I I I #
coedge $-1 $773 $585 $588 $774 forward $400 $-1 #
coedge $-1 $591 $402 $403 $579 reversed $253 $-1 #
coedge $-1 $585 $773 $402 $577 reversed $400 $-1 #
edge $-1 $592 -10.389817287590391 $775 10.389817287590391 $576 $776 forward 7 unknown #
coedge $-1 $404 $403 $773 $777 forward $161 $-1 #
edge $-1 $583 -53.39640491958373 $775 53.39640491958373 $575 $778 forward 7 unknown #
coedge $-1 $588 $587 $404 $581 reversed $572 $-1 #
edge $-1 $779 -53.39640491958373 $582 53.39640491958373 $580 $780 forward 7 unknown #
vertex $-1 $406 $781 #
vertex $-1 $594 $782 #
straight-curve $-1 53.39640491958373 0 -10.389817287590391 0 -1 0 I I #
coedge $-1 $574 $576 $407 $586 reversed $400 $-1 #
edge $-1 $589 -32.54154572468164 $592 32.54154572468164 $585 $783 forward 7 unknown #
coedge $-1 $580 $408 $413 $595 forward $572 $-1 #
coedge $-1 $408 $580 $574 $774 reversed $572 $-1 #
vertex $-1 $409 $784 #
straight-curve $-1 0 32.54154572468164 10.389817287590391 -1 0 0 I I #
coedge $-1 $410 $575 $412 $594 reversed $253 $-1 #
vertex $-1 $586 $785 #
straight-curve $-1 0 -32.54154572468164 10.389817287590391 1 0 0 I I #
edge $-1 $415 -10.389817287590391 $583 10.389817287590391 $412 $786 forward 7 unknown #
edge $-1 $416 -10.389817287590391 $582 10.389817287590391 $413 $787 forward 7 unknown #
point $-1 53.39640491958373 -32.54154572468164 10.389817287590391 #
point $-1 53.39640491958373 32.54154572468164 10.389817287590391 #
face $-1 $-1 $609 $61 $-1 $788 reversed single #
loop $-1 $-1 $789 $418 #
plane-surface $-1 0 0 10.389817287590391 0 0 1 1 0 0 forward_v I I I I #
coedge $-1 $790 $791 $424 $607 forward $419 $-1 #
coedge $-1 $421 $612 $792 $793 reversed $261 $-1 #
edge $-1 $794 -5.9449086437951957 $429 -2.9449086437951957 $421 $795 forward 7 unknown #
coedge $-1 $423 $422 $789 $796 reversed $165 $-1 #
coedge $-1 $797 $425 $423 $606 forward $609 $-1 #
edge $-1 $430 2.9449086437951957 $798 5.9449086437951957 $605 $799 forward 7 unknown #
edge $-1 $613 -32.54154572468164 $610 32.54154572468164 $601 $800 forward 7 unknown #
coedge $-1 $425 $797 $790 $801 forward $609 $-1 #
loop $-1 $-1 $605 $598 #
vertex $-1 $607 $802 #
straight-curve $-1 -23.913917236615724 -32.54154572468164 7.3898172875903914 1 0 0 I I #
coedge $-1 $602 $427 $791 $803 reversed $261 $-1 #
vertex $-1 $607 $804 #
straight-curve $-1 -23.913917236615724 32.54154572468164 7.3898172875903914 -1 0 0 I I #
point $-1 -42.259264026879165 32.54154572468164 7.3898172875903914 #
point $-1 -42.259264026879165 -32.54154572468164 7.3898172875903914 #
loop $-1 $-1 $440 $432 #
plane-surface $-1 0 32.54154572468164 0 0 -1 0 0 0 -1 forward_v I I I I #
coedge $-1 $620 $435 $437 $624 reversed $268 $-1 #
coedge $-1 $435 $619 $805 $806 reversed $268 $-1 #
coedge $-1 $443 $438 $435 $622 forward $433 $-1 #
edge $-1 $625 -14.126661573589168 $807 -8.8039383674313356 $621 $808 forward 7 unknown #
coedge $-1 $437 $436 $628 $809 reversed $169 $-1 #
edge $-1 $810 -65.083091449363266 $625 -55.803206543669205 $619 $811 forward 7 unknown #
vertex $-1 $439 $812 #
straight-curve $-1 -15.069733251803651 27.218822518523808 10.389817287590393 1 0 0 I I #
coedge $-1 $805 $440 $443 $632 reversed $617 $-1 #
coedge $-1 $440 $805 $623 $809 forward $617 $-1 #
vertex $-1 $441 $813 #
straight-curve $-1 -37.830717096880974 32.54154572468164 58.677483257268861 0 0 1 I I #
straight-curve $-1 -37.830717096880974 -4.7885811795279807 56.101128459611544 0 0.57357642473473569 -0.81915205242281985 I I #
edge $-1 $807 22.44821591033363 $444 37.830717096880974 $627 $814 forward 7 unknown #
point $-1 -37.830717096880974 32.54154572468164 10.389817287590391 #
point $-1 -37.830717096880974 27.218822518523808 10.38981728759039 #
edge $-1 $815 1 $815 0 $447 $-1 forward 7 unknown #
vertex $-1 $448 $816 #
ellipse-curve $-1 -33.435716757867446 27.525375088796309 4.940143918167319 0 0.81915205242281985 0.57357642473473569 1 0 0 1 I I #
point $-1 -32.435716757867446 29.880184121602714 6.5889989042169557 #
edge $-1 $817 1 $817 0 $451 $-1 forward 7 unknown #
vertex $-1 $452 $818 #
ellipse-curve $-1 -26.843216249347158 27.525375088796309 4.940143918167319 0 0.81915205242281985 0.57357642473473569 1 0 0 1 I I #
point $-1 -25.843216249347158 29.880184121602714 6.5889989042169557 #
loop $-1 $-1 $463 $455 #
plane-surface $-1 0 32.54154572468164 0 0 -1 0 0 0 -1 forward_v I I I I #
coedge $-1 $646 $458 $460 $650 reversed $290 $-1 #
coedge $-1 $458 $645 $819 $820 reversed $290 $-1 #
coedge $-1 $466 $461 $458 $648 forward $456 $-1 #
edge $-1 $651 -14.126661573589168 $821 -8.8039383674313356 $647 $822 forward 7 unknown #
coedge $-1 $460 $459 $654 $823 reversed $183 $-1 #
edge $-1 $824 -65.083091449363266 $651 -55.803206543669205 $645 $825 forward 7 unknown #
vertex $-1 $462 $826 #
straight-curve $-1 -3.1670542684837883 27.218822518523808 10.389817287590393 1 0 0 I I #
coedge $-1 $819 $463 $466 $658 reversed $643 $-1 #
coedge $-1 $463 $819 $649 $823 forward $643 $-1 #
vertex $-1 $464 $827 #
straight-curve $-1 -14.025359130241249 32.54154572468164 58.677483257268861 0 0 1 I I #
straight-curve $-1 -14.025359130241249 -4.7885811795279807 56.101128459611544 0 0.57357642473473569 -0.81915205242281985 I I #
edge $-1 $821 -1.3571420563060954 $467 14.025359130241249 $653 $828 forward 7 unknown #
point $-1 -14.025359130241249 32.54154572468164 10.389817287590391 #
point $-1 -14.025359130241249 27.218822518523808 10.38981728759039 #
edge $-1 $829 1 $829 0 $470 $-1 forward 7 unknown #
vertex $-1 $471 $830 #
ellipse-curve $-1 -9.6303587912277209 27.525375088796309 4.940143918167319 0 0.81915205242281985 0.57357642473473569 1 0 0 1 I I #
point $-1 -8.6303587912277209 29.880184121602714 6.5889989042169557 #
edge $-1 $831 1 $831 0 $474 $-1 forward 7 unknown #
vertex $-1 $475 $832 #
ellipse-curve $-1 -3.0378582827074325 27.525375088796309 4.940143918167319 0 0.81915205242281985 0.57357642473473569 1 0 0 1 I I #
point $-1 -2.0378582827074325 29.880184121602714 6.5889989042169557 #
loop $-1 $-1 $486 $478 #
plane-surface $-1 0 32.54154572468164 0 0 -1 0 0 0 -1 forward_v I I I I #
coedge $-1 $672 $481 $483 $676 reversed $312 $-1 #
coedge $-1 $481 $671 $833 $834 reversed $312 $-1 #
coedge $-1 $489 $484 $481 $674 forward $479 $-1 #
edge $-1 $677 -14.126661573589168 $835 -8.8039383674313356 $673 $836 forward 7 unknown #
coedge $-1 $483 $482 $680 $837 reversed $197 $-1 #
edge $-1 $838 -65.083091449363266 $677 -55.803206543669205 $671 $839 forward 7 unknown #
vertex $-1 $485 $840 #
straight-curve $-1 8.7356247148360708 27.218822518523808 10.389817287590393 1 0 0 I I #
coedge $-1 $833 $486 $489 $684 reversed $669 $-1 #
coedge $-1 $486 $833 $675 $837 forward $669 $-1 #
vertex $-1 $487 $841 #
straight-curve $-1 9.7799988363984696 32.54154572468164 58.677483257268861 0 0 1 I I #
straight-curve $-1 9.7799988363984696 -4.7885811795279807 56.101128459611544 0 0.57357642473473569 -0.81915205242281985 I I #
edge $-1 $835 -25.162500022945814 $490 -9.7799988363984696 $679 $842 forward 7 unknown #
point $-1 9.7799988363984696 32.54154572468164 10.389817287590391 #
point $-1 9.7799988363984696 27.218822518523808 10.38981728759039 #
edge $-1 $843 1 $843 0 $493 $-1 forward 7 unknown #
vertex $-1 $494 $844 #
ellipse-curve $-1 14.174999175411997 27.525375088796309 4.940143918167319 0 0.81915205242281985 0.57357642473473569 1 0 0 1 I I #
point $-1 15.174999175411997 29.880184121602714 6.5889989042169557 #
edge $-1 $845 1 $845 0 $497 $-1 forward 7 unknown #
vertex $-1 $498 $846 #
ellipse-curve $-1 20.767499683932286 27.525375088796309 4.940143918167319 0 0.81915205242281985 0.57357642473473569 1 0 0 1 I I #
point $-1 21.767499683932286 29.880184121602714 6.5889989042169557 #
loop $-1 $-1 $509 $501 #
plane-surface $-1 0 32.54154572468164 0 0 -1 0 0 0 -1 forward_v I I I I #
coedge $-1 $698 $504 $506 $702 reversed $334 $-1 #
coedge $-1 $504 $697 $847 $848 reversed $334 $-1 #
coedge $-1 $512 $507 $504 $700 forward $502 $-1 #
edge $-1 $703 -14.126661573589168 $849 -8.8039383674313356 $699 $850 forward 7 unknown #
coedge $-1 $506 $505 $706 $851 reversed $211 $-1 #
edge $-1 $852 -65.083091449363266 $703 -55.803206543669205 $697 $853 forward 7 unknown #
vertex $-1 $508 $854 #
straight-curve $-1 20.63830369815593 27.218822518523808 10.389817287590393 1 0 0 I I #
coedge $-1 $847 $509 $512 $710 reversed $695 $-1 #
coedge $-1 $509 $847 $701 $851 forward $695 $-1 #
vertex $-1 $510 $855 #
straight-curve $-1 33.585356803038188 32.54154572468164 58.677483257268861 0 0 1 I I #
straight-curve $-1 33.585356803038188 -4.7885811795279807 56.101128459611544 0 0.57357642473473569 -0.81915205242281985 I I #
edge $-1 $849 -48.967857989585532 $513 -33.585356803038188 $705 $856 forward 7 unknown #
point $-1 33.585356803038188 32.54154572468164 10.389817287590391 #
point $-1 33.585356803038188 27.218822518523808 10.38981728759039 #
edge $-1 $857 1 $857 0 $516 $-1 forward 7 unknown #
vertex $-1 $517 $858 #
ellipse-curve $-1 37.980357142051716 27.525375088796309 4.940143918167319 0 0.81915205242281985 0.57357642473473569 1 0 0 1 I I #
point $-1 38.980357142051716 29.880184121602714 6.5889989042169557 #
edge $-1 $859 1 $859 0 $520 $-1 forward 7 unknown #
vertex $-1 $521 $860 #
ellipse-curve $-1 44.572857650572004 27.525375088796309 4.940143918167319 0 0.81915205242281985 0.57357642473473569 1 0 0 1 I I #
point $-1 45.572857650572004 29.880184121602714 6.5889989042169557 #
loop $-1 $-1 $532 $524 #
plane-surface $-1 0 -32.54154572468164 0 0 1 0 0 0 1 forward_v I I I I #
coedge $-1 $724 $527 $861 $862 reversed $356 $-1 #
coedge $-1 $527 $723 $727 $863 reversed $356 $-1 #
edge $-1 $864 -1.830693040787162e-014 $728 6.2955762251942113 $527 $865 forward 7 unknown #
coedge $-1 $529 $528 $731 $866 reversed $225 $-1 #
coedge $-1 $535 $530 $724 $863 forward $525 $-1 #
vertex $-1 $863 $867 #
straight-curve $-1 -17.126475693653738 -27.580563997053147 10.389817287590391 -1 0 0 I I #
coedge $-1 $861 $532 $535 $735 reversed $721 $-1 #
coedge $-1 $532 $861 $726 $866 forward $721 $-1 #
vertex $-1 $533 $868 #
straight-curve $-1 -26.246638747735791 -32.54154572468164 45.333877704557814 0 0 1 I I #
straight-curve $-1 -26.246638747735791 -32.541545724681626 6.5138734921559234 0 -0.78801074757464917 -0.61566148304635926 I I #
edge $-1 $869 -42.259264026879165 $536 -26.246638747735791 $730 $870 forward 7 unknown #
point $-1 -26.246638747735791 -32.54154572468164 10.389817287590391 #
point $-1 -26.246638747735791 -27.580563997053147 10.389817287590391 #
edge $-1 $871 1 $871 0 $539 $-1 forward 7 unknown #
vertex $-1 $540 $872 #
ellipse-curve $-1 -37.684228232838201 -28.266773755334544 6.1552703494242715 0 -0.61566148304635926 0.78801074757464917 1.5 0 0 1 I I #
point $-1 -36.184228232838201 -30.061054860867401 8.4518453898731583 #
edge $-1 $873 1 $873 0 $543 $-1 forward 7 unknown #
vertex $-1 $544 $874 #
ellipse-curve $-1 -30.821674541776758 -28.266773755334544 6.1552703494242715 0 -0.61566148304635926 0.78801074757464917 1.5 0 0 1 I I #
point $-1 -29.321674541776758 -30.061054860867401 8.4518453898731583 #
plane-surface $-1 0 0 10.389817287590391 0 0 1 1 0 0 forward_v I I I I #
coedge $-1 $757 $756 $749 $875 forward $548 $-1 #
coedge $-1 $749 $550 $552 $753 reversed $378 $-1 #
coedge $-1 $550 $748 $747 $875 reversed $378 $-1 #
coedge $-1 $558 $553 $550 $751 forward $559 $-1 #
edge $-1 $754 -21.564318707422501 $876 -16.603336979794008 $750 $877 forward 7 unknown #
coedge $-1 $552 $551 $757 $878 reversed $239 $-1 #
edge $-1 $879 -1.830693040787162e-014 $754 6.2955762251942113 $748 $880 forward 7 unknown #
vertex $-1 $554 $881 #
straight-curve $-1 6.7874415429619859 -27.580563997053147 10.389817287590391 -1 0 0 I I #
coedge $-1 $747 $555 $558 $761 reversed $548 $-1 #
coedge $-1 $555 $747 $752 $878 forward $548 $-1 #
vertex $-1 $556 $882 #
straight-curve $-1 21.581195725495657 -32.54154572468164 45.333877704557814 0 0 1 I I #
straight-curve $-1 21.581195725495657 -32.541545724681626 6.5138734921559234 0 -0.78801074757464917 -0.61566148304635926 I I #
edge $-1 $876 5.568570446352286 $560 21.581195725495657 $756 $883 forward 7 unknown #
point $-1 21.581195725495657 -32.54154572468164 10.389817287590391 #
point $-1 21.581195725495657 -27.580563997053147 10.389817287590391 #
edge $-1 $884 1 $884 0 $563 $-1 forward 7 unknown #
vertex $-1 $564 $885 #
ellipse-curve $-1 10.143606240393247 -28.266773755334544 6.1552703494242715 0 -0.61566148304635926 0.78801074757464917 1.5 0 0 1 I I #
point $-1 11.643606240393247 -30.061054860867401 8.4518453898731583 #
edge $-1 $886 1 $886 0 $567 $-1 forward 7 unknown #
vertex $-1 $568 $887 #
ellipse-curve $-1 17.00615993145469 -28.266773755334544 6.1552703494242715 0 -0.61566148304635926 0.78801074757464917 1.5 0 0 1 I I #
point $-1 18.50615993145469 -30.061054860867401 8.4518453898731583 #
plane-surface $-1 53.39640491958373 0 0 -1 0 0 0 0 1 forward_v I I I I #
coedge $-1 $576 $574 $578 $777 reversed $400 $-1 #
edge $-1 $589 -10.389817287590391 $779 10.389817287590391 $588 $888 forward 7 unknown #
vertex $-1 $777 $889 #
straight-curve $-1 -53.39640491958373 -32.54154572468164 0 0 0 -1 I I #
edge $-1 $775 -32.54154572468164 $779 32.54154572468164 $773 $890 forward 7 unknown #
straight-curve $-1 0 -32.54154572468164 -10.389817287590391 -1 0 0 I I #
vertex $-1 $581 $891 #
straight-curve $-1 0 32.54154572468164 -10.389817287590391 1 0 0 I I #
point $-1 53.39640491958373 32.54154572468164 -10.389817287590391 #
point $-1 53.39640491958373 -32.54154572468164 -10.389817287590391 #
straight-curve $-1 -53.39640491958373 0 10.389817287590391 0 -1 0 I I #
point $-1 -53.39640491958373 32.54154572468164 10.389817287590391 #
point $-1 -53.39640491958373 -32.54154572468164 10.389817287590391 #
straight-curve $-1 53.39640491958373 -32.54154572468164 0 0 0 -1 I I #
straight-curve $-1 53.39640491958373 32.54154572468164 0 0 0 -1 I I #
plane-surface $-1 0 -32.54154572468164 0 0 1 0 0 0 1 forward_v I I I I #
coedge $-1 $792 $892 $604 $796 forward $599 $-1 #
coedge $-1 $893 $601 $608 $801 reversed $419 $-1 #
coedge $-1 $601 $893 $612 $803 forward $419 $-1 #
coedge $-1 $894 $789 $602 $793 forward $599 $-1 #
edge $-1 $794 42.259264026879165 $895 53.39640491958373 $602 $896 forward 7 unknown #
vertex $-1 $793 $897 #
straight-curve $-1 -42.259264026879165 32.54154572468164 4.4449086437951957 0 0 -1 I I #
edge $-1 $798 -32.54154572468164 $794 32.54154572468164 $789 $898 forward 7 unknown #
coedge $-1 $608 $605 $892 $899 reversed $609 $-1 #
vertex $-1 $606 $900 #
straight-curve $-1 -42.259264026879165 -32.54154572468164 4.4449086437951957 0 0 1 I I #
straight-curve $-1 -53.39640491958373 0 7.3898172875903914 0 -1 0 I I #
edge $-1 $901 -10.389817287590391 $610 -7.3898172875903914 $790 $902 forward 7 unknown #
point $-1 -53.39640491958373 -32.54154572468164 7.3898172875903914 #
edge $-1 $895 -10.389817287590391 $613 -7.3898172875903914 $612 $903 forward 7 unknown #
point $-1 -53.39640491958373 32.54154572468164 7.3898172875903914 #
coedge $-1 $628 $627 $620 $806 forward $617 $-1 #
edge $-1 $807 48.287665969678471 $810 55.8893027364253 $805 $904 forward 7 unknown #
vertex $-1 $632 $905 #
straight-curve $-1 -22.44821591033363 41.345484092112976 10.38981728759039 0 1 0 I I #
edge $-1 $810 7.378482658529979 $629 22.760983845077323 $628 $906 forward 7 unknown #
vertex $-1 $809 $907 #
straight-curve $-1 -22.44821591033363 -4.7885811795279807 56.101128459611544 0 -0.57357642473473569 0.81915205242281985 I I #
point $-1 -22.44821591033363 27.218822518523808 10.38981728759039 #
point $-1 -37.830717096880974 32.54154572468164 2.7881805208435608 #
straight-curve $-1 0 32.54154572468164 10.389817287590391 -1 0 0 I I #
vertex $-1 $635 $908 #
point $-1 -32.435716757867446 27.525375088796309 4.940143918167319 #
vertex $-1 $639 $909 #
point $-1 -25.843216249347158 27.525375088796309 4.940143918167319 #
coedge $-1 $654 $653 $646 $820 forward $643 $-1 #
edge $-1 $821 48.287665969678471 $824 55.8893027364253 $819 $910 forward 7 unknown #
vertex $-1 $658 $911 #
straight-curve $-1 1.3571420563060954 41.345484092112976 10.38981728759039 0 1 0 I I #
edge $-1 $824 -4.5241963247898838 $655 10.85830486175746 $654 $912 forward 7 unknown #
vertex $-1 $823 $913 #
straight-curve $-1 1.3571420563060954 -4.7885811795279807 56.101128459611544 0 -0.57357642473473569 0.81915205242281985 I I #
point $-1 1.3571420563060954 27.218822518523808 10.38981728759039 #
point $-1 -14.025359130241249 32.54154572468164 2.7881805208435608 #
straight-curve $-1 0 32.54154572468164 10.389817287590391 -1 0 0 I I #
vertex $-1 $661 $914 #
point $-1 -8.6303587912277209 27.525375088796309 4.940143918167319 #
vertex $-1 $665 $915 #
point $-1 -2.0378582827074325 27.525375088796309 4.940143918167319 #
coedge $-1 $680 $679 $672 $834 forward $669 $-1 #
edge $-1 $835 48.287665969678471 $838 55.8893027364253 $833 $916 forward 7 unknown #
vertex $-1 $684 $917 #
straight-curve $-1 25.162500022945814 41.345484092112976 10.38981728759039 0 1 0 I I #
edge $-1 $838 -16.426875308109743 $681 -1.0443741215623987 $680 $918 forward 7 unknown #
vertex $-1 $837 $919 #
straight-curve $-1 25.162500022945814 -4.7885811795279807 56.101128459611544 0 -0.57357642473473569 0.81915205242281985 I I #
point $-1 25.162500022945814 27.218822518523808 10.38981728759039 #
point $-1 9.7799988363984696 32.54154572468164 2.7881805208435608 #
straight-curve $-1 0 32.54154572468164 10.389817287590391 -1 0 0 I I #
vertex $-1 $687 $920 #
point $-1 15.174999175411997 27.525375088796309 4.940143918167319 #
vertex $-1 $691 $921 #
point $-1 21.767499683932286 27.525375088796309 4.940143918167319 #
coedge $-1 $706 $705 $698 $848 forward $695 $-1 #
edge $-1 $849 48.287665969678471 $852 55.8893027364253 $847 $922 forward 7 unknown #
vertex $-1 $710 $923 #
straight-curve $-1 48.967857989585532 41.345484092112976 10.38981728759039 0 1 0 I I #
edge $-1 $852 -28.329554291429602 $707 -12.947053104882258 $706 $924 forward 7 unknown #
vertex $-1 $851 $925 #
straight-curve $-1 48.967857989585532 -4.7885811795279807 56.101128459611544 0 -0.57357642473473569 0.81915205242281985 I I #
point $-1 48.967857989585532 27.218822518523808 10.38981728759039 #
point $-1 33.585356803038188 32.54154572468164 2.7881805208435608 #
straight-curve $-1 0 32.54154572468164 10.389817287590391 -1 0 0 I I #
vertex $-1 $713 $926 #
point $-1 38.980357142051716 27.525375088796309 4.940143918167319 #
vertex $-1 $717 $927 #
point $-1 45.572857650572004 27.525375088796309 4.940143918167319 #
coedge $-1 $731 $730 $723 $862 forward $721 $-1 #
edge $-1 $869 34.944060416967424 $864 38.820004212401905 $861 $928 forward 7 unknown #
edge $-1 $728 27.580563997053147 $869 32.54154572468164 $727 $929 forward 7 unknown #
vertex $-1 $862 $930 #
straight-curve $-1 -42.259264026879165 -32.541545724681626 6.5138734921559234 0 0.78801074757464917 0.61566148304635926 I I #
edge $-1 $864 -25.132788333225427 $732 -9.1201630540820524 $731 $931 forward 7 unknown #
point $-1 -42.259264026879165 -27.580563997053147 10.389817287590391 #
point $-1 -26.246638747735791 -32.54154572468164 6.5138734921559118 #
vertex $-1 $735 $932 #
straight-curve $-1 0 -32.54154572468164 10.389817287590391 1 0 0 I I #
vertex $-1 $738 $933 #
point $-1 -36.184228232838201 -28.266773755334544 6.1552703494242715 #
vertex $-1 $742 $934 #
point $-1 -29.321674541776758 -28.266773755334544 6.1552703494242715 #
edge $-1 $876 34.944060416967424 $879 38.820004212401905 $747 $935 forward 7 unknown #
vertex $-1 $761 $936 #
straight-curve $-1 5.568570446352286 -49.144882704475648 10.38981728759039 0 -1 0 I I #
edge $-1 $879 -1.2188710966096998 $758 14.793754182533672 $757 $937 forward 7 unknown #
vertex $-1 $878 $938 #
straight-curve $-1 5.568570446352286 -32.541545724681626 6.5138734921559234 0 0.78801074757464917 0.61566148304635926 I I #
point $-1 5.568570446352286 -27.580563997053147 10.389817287590391 #
point $-1 21.581195725495657 -32.54154572468164 6.5138734921559118 #
straight-curve $-1 0 -32.54154572468164 10.389817287590391 1 0 0 I I #
vertex $-1 $764 $939 #
point $-1 11.643606240393247 -28.266773755334544 6.1552703494242715 #
vertex $-1 $768 $940 #
point $-1 18.50615993145469 -28.266773755334544 6.1552703494242715 #
straight-curve $-1 -53.39640491958373 32.54154572468164 0 0 0 -1 I I #
point $-1 -53.39640491958373 -32.54154572468164 -10.389817287590391 #
straight-curve $-1 -53.39640491958373 0 -10.389817287590391 0 1 0 I I #
point $-1 -53.39640491958373 32.54154572468164 -10.389817287590391 #
coedge $-1 $789 $894 $797 $899 forward $599 $-1 #
coedge $-1 $791 $790 $894 $941 reversed $419 $-1 #
coedge $-1 $892 $792 $893 $941 forward $599 $-1 #
vertex $-1 $793 $942 #
straight-curve $-1 0 32.54154572468164 10.389817287590391 -1 0 0 I I #
point $-1 -42.259264026879165 32.54154572468164 10.389817287590391 #
straight-curve $-1 -42.259264026879165 0 10.389817287590391 0 1 0 I I #
edge $-1 $901 -53.39640491958373 $798 -42.259264026879165 $797 $943 forward 7 unknown #
point $-1 -42.259264026879165 -32.54154572468164 10.389817287590391 #
vertex $-1 $941 $944 #
straight-curve $-1 -53.39640491958373 -32.54154572468164 0 0 0 -1 I I #
straight-curve $-1 -53.39640491958373 32.54154572468164 0 0 0 -1 I I #
straight-curve $-1 -22.44821591033363 32.54154572468164 58.677483257268861 0 0 -1 I I #
point $-1 -22.44821591033363 32.54154572468164 10.389817287590391 #
straight-curve $-1 -15.069733251803651 32.54154572468164 2.7881805208435537 -1 0 0 I I #
point $-1 -22.44821591033363 32.54154572468164 2.7881805208435608 #
point $-1 -33.435716757867446 26.706223036373487 4.3665674934325835 #
point $-1 -26.843216249347158 26.706223036373487 4.3665674934325835 #
straight-curve $-1 1.3571420563060954 32.54154572468164 58.677483257268861 0 0 -1 I I #
point $-1 1.3571420563060954 32.54154572468164 10.389817287590391 #
straight-curve $-1 -3.1670542684837883 32.54154572468164 2.7881805208435537 -1 0 0 I I #
point $-1 1.3571420563060954 32.54154572468164 2.7881805208435608 #
point $-1 -9.6303587912277209 26.706223036373487 4.3665674934325835 #
point $-1 -3.0378582827074325 26.706223036373487 4.3665674934325835 #
straight-curve $-1 25.162500022945814 32.54154572468164 58.677483257268861 0 0 -1 I I #
point $-1 25.162500022945814 32.54154572468164 10.389817287590391 #
straight-curve $-1 8.7356247148360708 32.54154572468164 2.7881805208435537 -1 0 0 I I #
point $-1 25.162500022945814 32.54154572468164 2.7881805208435608 #
point $-1 14.174999175411997 26.706223036373487 4.3665674934325835 #
point $-1 20.767499683932286 26.706223036373487 4.3665674934325835 #
straight-curve $-1 48.967857989585532 32.54154572468164 58.677483257268861 0 0 -1 I I #
point $-1 48.967857989585532 32.54154572468164 10.389817287590391 #
straight-curve $-1 20.63830369815593 32.54154572468164 2.7881805208435537 -1 0 0 I I #
point $-1 48.967857989585532 32.54154572468164 2.7881805208435608 #
point $-1 37.980357142051716 26.706223036373487 4.3665674934325835 #
point $-1 44.572857650572004 26.706223036373487 4.3665674934325835 #
straight-curve $-1 -42.259264026879165 -32.54154572468164 45.333877704557814 0 0 -1 I I #
straight-curve $-1 -42.259264026879165 0 10.389817287590391 0 -1 0 I I #
point $-1 -42.259264026879165 -32.54154572468164 6.5138734921559118 #
straight-curve $-1 -17.126475693653738 -32.54154572468164 6.5138734921559127 1 0 0 I I #
point $-1 -42.259264026879165 -32.54154572468164 10.389817287590391 #
point $-1 -37.684228232838201 -27.343281530765008 4.9732542280622978 #
point $-1 -30.821674541776758 -27.343281530765008 4.9732542280622978 #
straight-curve $-1 5.568570446352286 -32.54154572468164 45.333877704557814 0 0 -1 I I #
point $-1 5.568570446352286 -32.54154572468164 10.389817287590391 #
straight-curve $-1 6.7874415429619859 -32.54154572468164 6.5138734921559127 1 0 0 I I #
point $-1 5.568570446352286 -32.54154572468164 6.5138734921559118 #
point $-1 10.143606240393247 -27.343281530765008 4.9732542280622978 #
point $-1 17.00615993145469 -27.343281530765008 4.9732542280622978 #
edge $-1 $895 -32.54154572468164 $901 32.54154572468164 $893 $945 forward 7 unknown #
point $-1 -53.39640491958373 32.54154572468164 10.389817287590391 #
straight-curve $-1 0 -32.54154572468164 10.389817287590391 1 0 0 I I #
point $-1 -53.39640491958373 -32.54154572468164 10.389817287590391 #
straight-curve $-1 -53.39640491958373 0 10.389817287590391 0 -1 0 I I #
End-of-ACIS-data 