500 0 11 0           
7 Unknown 11 ACIS 5.0 NT 24 Fri Mar 26 15:41:36 1999 
-1 9.9999999999999995e-007 1e-010 
body $-1 $11 $-1 $12 #
body $-1 $13 $-1 $14 #
body $-1 $15 $-1 $16 #
body $-1 $17 $-1 $18 #
body $-1 $19 $-1 $20 #
body $-1 $21 $-1 $22 #
body $-1 $23 $-1 $24 #
body $-1 $25 $-1 $26 #
body $-1 $27 $-1 $28 #
body $-1 $29 $-1 $30 #
body $-1 $31 $-1 $32 #
lump $-1 $-1 $33 $0 #
transform $-1 1 0 0 0 1 0 0 0 1 59.143650624103515 36.43019285489688 15.844971450243657 1 rotate no_reflect no_shear #
lump $-1 $-1 $34 $1 #
transform $-1 1 0 0 0 1 0 0 0 1 59.143650624103515 36.43019285489688 15.844971450243657 1 rotate no_reflect no_shear #
lump $-1 $-1 $35 $2 #
transform $-1 1 0 0 0 1 0 0 0 1 59.143650624103515 36.43019285489688 15.844971450243657 1 rotate no_reflect no_shear #
lump $-1 $-1 $36 $3 #
transform $-1 1 0 0 0 1 0 0 0 1 59.143650624103515 36.43019285489688 15.844971450243657 1 rotate no_reflect no_shear #
lump $-1 $-1 $37 $4 #
transform $-1 1 0 0 0 1 0 0 0 1 59.143650624103515 36.43019285489688 15.844971450243657 1 rotate no_reflect no_shear #
lump $-1 $-1 $38 $5 #
transform $-1 1 0 0 0 1 0 0 0 1 59.143650624103515 36.43019285489688 15.844971450243657 1 rotate no_reflect no_shear #
lump $-1 $-1 $39 $6 #
transform $-1 1 0 0 0 1 0 0 0 1 59.143650624103515 36.43019285489688 15.844971450243657 1 rotate no_reflect no_shear #
lump $-1 $-1 $40 $7 #
transform $-1 1 0 0 0 1 0 0 0 1 59.143650624103515 36.43019285489688 15.844971450243657 1 rotate no_reflect no_shear #
lump $-1 $-1 $41 $8 #
transform $-1 1 0 0 0 1 0 0 0 1 59.143650624103515 36.43019285489688 15.844971450243657 1 rotate no_reflect no_shear #
lump $-1 $-1 $42 $9 #
transform $-1 1 0 0 0 1 0 0 0 1 59.143650624103515 36.43019285489688 15.844971450243657 1 rotate no_reflect no_shear #
lump $-1 $-1 $43 $10 #
transform $-1 1 0 0 0 1 0 0 0 1 59.143650624103515 36.43019285489688 15.844971450243657 1 rotate no_reflect no_shear #
shell $-1 $-1 $-1 $44 $-1 $11 #
shell $-1 $-1 $-1 $45 $-1 $13 #
shell $-1 $-1 $-1 $46 $-1 $15 #
shell $-1 $-1 $-1 $47 $-1 $17 #
shell $-1 $-1 $-1 $48 $-1 $19 #
shell $-1 $-1 $-1 $49 $-1 $21 #
shell $-1 $-1 $-1 $50 $-1 $23 #
shell $-1 $-1 $-1 $51 $-1 $25 #
shell $-1 $-1 $-1 $52 $-1 $27 #
shell $-1 $-1 $-1 $53 $-1 $29 #
shell $-1 $-1 $-1 $54 $-1 $31 #
face $-1 $55 $56 $33 $-1 $57 forward single #
face $-1 $58 $59 $34 $-1 $60 reversed single #
face $-1 $61 $62 $35 $-1 $63 reversed single #
face $-1 $64 $65 $36 $-1 $66 reversed single #
face $-1 $67 $68 $37 $-1 $69 forward single #
face $-1 $70 $71 $38 $-1 $72 forward single #
face $-1 $73 $74 $39 $-1 $75 forward single #
face $-1 $76 $77 $40 $-1 $78 reversed single #
face $-1 $79 $80 $41 $-1 $81 forward single #
face $-1 $82 $83 $42 $-1 $84 forward single #
face $-1 $85 $86 $43 $-1 $87 forward single #
face $-1 $88 $89 $33 $-1 $90 reversed single #
loop $-1 $-1 $91 $44 #
plane-surface $-1 0 0 15.844971450243657 0 0 1 1 0 0 forward_v I I I I #
face $-1 $92 $93 $34 $-1 $94 reversed single #
loop $-1 $-1 $95 $45 #
plane-surface $-1 -57.467082719957887 -18.840403148919485 0 0 -1 0 0 0 -1 forward_v I I I I #
face $-1 $96 $97 $35 $-1 $98 reversed single #
loop $-1 $-1 $99 $46 #
plane-surface $-1 -57.467082719957887 18.840403148919492 0 0 1 0 0 0 1 forward_v I I I I #
face $-1 $100 $101 $36 $-1 $102 reversed single #
loop $-1 $-1 $103 $47 #
plane-surface $-1 -59.143650624103486 13.72765822204569 5.9024852786742343 -0.82903758062907751 0 0.55919289150049634 0.55919289150049634 0 0.82903758062907751 forward_v I I I I #
face $-1 $104 $105 $37 $-1 $106 forward single #
loop $-1 $107 $108 $48 #
cone-surface $-1 -55.375986137568049 10.660011265921412 10.594131918708703 0.82903758062907751 0 -0.55919289150049634 0.27959644575024817 0 0.41451879031453875 1 I I 0 1 0.5 forward I I I I #
face $-1 $109 $110 $38 $-1 $111 forward single #
loop $-1 $112 $113 $49 #
cone-surface $-1 -55.375986137568049 13.72765822204569 10.594131918708703 0.82903758062907751 0 -0.55919289150049634 0.27959644575024817 0 0.41451879031453875 1 I I 0 1 0.5 forward I I I I #
face $-1 $114 $115 $39 $-1 $116 forward single #
loop $-1 $117 $118 $50 #
cone-surface $-1 -55.375986137568049 16.795305178169968 10.594131918708703 0.82903758062907751 0 -0.55919289150049634 0.27959644575024817 0 0.41451879031453875 1 I I 0 1 0.5 forward I I I I #
face $-1 $119 $120 $40 $-1 $121 reversed single #
loop $-1 $-1 $122 $51 #
plane-surface $-1 91.06285065728477 18.840403148919485 170.11252133740581 0 -1 0 -0.82903758062907751 0 -0.55919289150049634 forward_v I I I I #
face $-1 $123 $124 $41 $-1 $125 forward single #
loop $-1 $126 $127 $52 #
cone-surface $-1 55.375986137568063 10.660011265921412 10.594131918708717 -0.82903758062907751 0 -0.55919289150049634 0.27959644575024817 0 -0.41451879031453875 1 I I 0 1 0.5 forward I I I I #
face $-1 $128 $129 $42 $-1 $130 forward single #
loop $-1 $131 $132 $53 #
cone-surface $-1 55.375986137568063 13.72765822204569 10.594131918708717 -0.82903758062907751 0 -0.55919289150049634 0.27959644575024817 0 -0.41451879031453875 1 I I 0 1 0.5 forward I I I I #
face $-1 $133 $134 $43 $-1 $135 forward single #
loop $-1 $136 $137 $54 #
cone-surface $-1 55.375986137568063 16.795305178169968 10.594131918708717 -0.82903758062907751 0 -0.55919289150049634 0.27959644575024817 0 -0.41451879031453875 1 I I 0 1 0.5 forward I I I I #
face $-1 $138 $139 $33 $-1 $140 reversed single #
loop $-1 $-1 $141 $55 #
plane-surface $-1 0 0 -15.844971450243657 0 0 1 1 0 0 forward_v I I I I #
coedge $-1 $142 $143 $144 $145 forward $56 $-1 #
face $-1 $146 $147 $34 $-1 $148 forward single #
loop $-1 $-1 $149 $58 #
plane-surface $-1 -55.790514815812259 -27.635298001908183 0 -1 0 0 0 0 1 forward_v I I I I #
coedge $-1 $150 $151 $152 $153 forward $59 $-1 #
face $-1 $154 $155 $35 $-1 $156 reversed single #
loop $-1 $-1 $157 $61 #
plane-surface $-1 -55.790514815812259 27.63529800190819 0 -1 0 0 0 0 1 forward_v I I I I #
coedge $-1 $158 $159 $160 $161 reversed $62 $-1 #
face $-1 $162 $163 $36 $-1 $164 forward single #
loop $-1 $-1 $165 $64 #
plane-surface $-1 -157.20826867005991 8.6149132951718954 72.047903291449387 0 1 0 -0.82903758062907751 0 0.55919289150049634 forward_v I I I I #
coedge $-1 $166 $167 $168 $169 reversed $65 $-1 #
face $-1 $-1 $170 $37 $-1 $171 forward single #
loop $-1 $172 $173 $67 #
cone-surface $-1 -54.754207952096237 10.660011265921412 10.17473725008333 0.82903758062907751 0 -0.55919289150049634 0.13979822287512408 0 0.20725939515726938 1 I I -0.70710678118654746 0.70710678118654746 0.25 forward I I I I #
loop $-1 $-1 $174 $48 #
coedge $-1 $108 $108 $175 $176 reversed $68 $-1 #
face $-1 $-1 $177 $38 $-1 $178 forward single #
loop $-1 $179 $180 $70 #
cone-surface $-1 -54.754207952096237 13.72765822204569 10.17473725008333 0.82903758062907751 0 -0.55919289150049634 0.13979822287512408 0 0.20725939515726938 1 I I -0.70710678118654746 0.70710678118654746 0.25 forward I I I I #
loop $-1 $-1 $181 $49 #
coedge $-1 $113 $113 $182 $183 reversed $71 $-1 #
face $-1 $-1 $184 $39 $-1 $185 forward single #
loop $-1 $186 $187 $73 #
cone-surface $-1 -54.754207952096237 16.795305178169968 10.17473725008333 0.82903758062907751 0 -0.55919289150049634 0.13979822287512408 0 0.20725939515726938 1 I I -0.70710678118654746 0.70710678118654746 0.25 forward I I I I #
loop $-1 $-1 $188 $50 #
coedge $-1 $118 $118 $189 $190 reversed $74 $-1 #
face $-1 $191 $192 $40 $-1 $193 reversed single #
loop $-1 $-1 $194 $76 #
plane-surface $-1 -7.0017673886716523 13.72765822204569 103.96710332463066 0.82903758062907751 0 0.55919289150049634 0.55919289150049634 0 -0.82903758062907751 forward_v I I I I #
coedge $-1 $195 $196 $197 $198 reversed $77 $-1 #
face $-1 $-1 $199 $41 $-1 $200 forward single #
loop $-1 $201 $202 $79 #
cone-surface $-1 54.754207952096252 10.660011265921412 10.174737250083345 -0.82903758062907751 0 -0.55919289150049634 0.13979822287512408 0 -0.20725939515726938 1 I I -0.70710678118654746 0.70710678118654746 0.25 forward I I I I #
loop $-1 $-1 $203 $52 #
coedge $-1 $127 $127 $204 $205 reversed $80 $-1 #
face $-1 $-1 $206 $42 $-1 $207 forward single #
loop $-1 $208 $209 $82 #
cone-surface $-1 54.754207952096252 13.72765822204569 10.174737250083345 -0.82903758062907751 0 -0.55919289150049634 0.13979822287512408 0 -0.20725939515726938 1 I I -0.70710678118654746 0.70710678118654746 0.25 forward I I I I #
loop $-1 $-1 $210 $53 #
coedge $-1 $132 $132 $211 $212 reversed $83 $-1 #
face $-1 $-1 $213 $43 $-1 $214 forward single #
loop $-1 $215 $216 $85 #
cone-surface $-1 54.754207952096252 16.795305178169968 10.174737250083345 -0.82903758062907751 0 -0.55919289150049634 0.13979822287512408 0 -0.20725939515726938 1 I I -0.70710678118654746 0.70710678118654746 0.25 forward I I I I #
loop $-1 $-1 $217 $54 #
coedge $-1 $137 $137 $218 $219 reversed $86 $-1 #
face $-1 $220 $221 $33 $-1 $222 reversed single #
loop $-1 $-1 $223 $88 #
plane-surface $-1 0 -36.43019285489688 0 0 1 0 0 0 1 forward_v I I I I #
coedge $-1 $224 $225 $226 $227 forward $89 $-1 #
coedge $-1 $228 $91 $229 $230 forward $56 $-1 #
coedge $-1 $91 $228 $231 $232 forward $56 $-1 #
coedge $-1 $233 $234 $91 $145 reversed $235 $-1 #
edge $-1 $236 -36.43019285489688 $237 36.43019285489688 $144 $238 forward 7 unknown #
face $-1 $239 $240 $34 $-1 $241 reversed single #
loop $-1 $-1 $242 $92 #
plane-surface $-1 0 0 15.844971450243657 0 0 1 1 0 0 forward_v I I I I #
coedge $-1 $243 $244 $245 $246 reversed $93 $-1 #
coedge $-1 $247 $95 $248 $249 reversed $59 $-1 #
coedge $-1 $95 $247 $250 $251 reversed $59 $-1 #
coedge $-1 $244 $243 $95 $153 reversed $93 $-1 #
edge $-1 $252 -15.844971450243657 $253 15.844971450243657 $152 $254 forward 7 unknown #
face $-1 $255 $256 $35 $-1 $257 reversed single #
loop $-1 $-1 $258 $96 #
plane-surface $-1 0 0 -15.844971450243657 0 0 1 1 0 0 forward_v I I I I #
coedge $-1 $259 $260 $261 $262 forward $97 $-1 #
coedge $-1 $261 $99 $263 $264 reversed $62 $-1 #
coedge $-1 $99 $261 $265 $266 reversed $62 $-1 #
coedge $-1 $267 $268 $99 $161 forward $256 $-1 #
edge $-1 $269 -15.844971450243657 $270 15.844971450243657 $160 $271 forward 7 unknown #
face $-1 $272 $273 $36 $-1 $274 forward single #
loop $-1 $-1 $275 $100 #
plane-surface $-1 0 0 15.844971450243657 0 0 1 1 0 0 forward_v I I I I #
coedge $-1 $276 $277 $278 $279 reversed $101 $-1 #
coedge $-1 $280 $103 $281 $282 reversed $65 $-1 #
coedge $-1 $103 $280 $276 $283 forward $65 $-1 #
coedge $-1 $278 $284 $103 $169 forward $285 $-1 #
edge $-1 $286 -11.976574037896647 $287 -1.7510841841490503 $168 $288 forward 7 unknown #
loop $-1 $-1 $175 $104 #
plane-surface $-1 -59.143650624103486 13.72765822204569 5.9024852786742343 -0.82903758062907751 0 0.55919289150049634 0.55919289150049634 0 0.82903758062907751 forward_v I I I I #
loop $-1 $-1 $289 $67 #
coedge $-1 $173 $173 $174 $290 reversed $105 $-1 #
coedge $-1 $174 $174 $173 $290 forward $107 $-1 #
coedge $-1 $175 $175 $108 $176 forward $170 $-1 #
edge $-1 $291 0 $291 6.2831853071796004 $175 $292 forward 7 unknown #
loop $-1 $-1 $182 $109 #
plane-surface $-1 -59.143650624103486 13.72765822204569 5.9024852786742343 -0.82903758062907751 0 0.55919289150049634 0.55919289150049634 0 0.82903758062907751 forward_v I I I I #
loop $-1 $-1 $293 $70 #
coedge $-1 $180 $180 $181 $294 reversed $110 $-1 #
coedge $-1 $181 $181 $180 $294 forward $112 $-1 #
coedge $-1 $182 $182 $113 $183 forward $177 $-1 #
edge $-1 $295 0 $295 6.2831853071796004 $182 $296 forward 7 unknown #
loop $-1 $-1 $189 $114 #
plane-surface $-1 -59.143650624103486 13.72765822204569 5.9024852786742343 -0.82903758062907751 0 0.55919289150049634 0.55919289150049634 0 0.82903758062907751 forward_v I I I I #
loop $-1 $-1 $297 $73 #
coedge $-1 $187 $187 $188 $298 reversed $115 $-1 #
coedge $-1 $188 $188 $187 $298 forward $117 $-1 #
coedge $-1 $189 $189 $118 $190 forward $184 $-1 #
edge $-1 $299 0 $299 6.2831853071796004 $189 $300 forward 7 unknown #
face $-1 $301 $302 $40 $-1 $303 reversed single #
loop $-1 $-1 $304 $119 #
plane-surface $-1 91.06285065728477 8.6149132951718954 170.11252133740581 0 1 0 0.82903758062907751 0 0.55919289150049634 forward_v I I I I #
coedge $-1 $305 $306 $307 $308 reversed $120 $-1 #
coedge $-1 $196 $122 $309 $310 reversed $77 $-1 #
coedge $-1 $122 $195 $305 $311 reversed $77 $-1 #
coedge $-1 $307 $312 $122 $198 forward $313 $-1 #
edge $-1 $314 -13.61222529546113 $315 -6.9059339030192675 $197 $316 forward 7 unknown #
loop $-1 $-1 $204 $123 #
plane-surface $-1 -7.0017673886716523 13.72765822204569 103.96710332463066 0.82903758062907751 0 0.55919289150049634 0.55919289150049634 0 -0.82903758062907751 forward_v I I I I #
loop $-1 $-1 $317 $79 #
coedge $-1 $202 $202 $203 $318 reversed $124 $-1 #
coedge $-1 $203 $203 $202 $318 forward $126 $-1 #
coedge $-1 $204 $204 $127 $205 forward $199 $-1 #
edge $-1 $319 0 $319 6.2831853071796004 $204 $320 forward 7 unknown #
loop $-1 $-1 $211 $128 #
plane-surface $-1 -7.0017673886716523 13.72765822204569 103.96710332463066 0.82903758062907751 0 0.55919289150049634 0.55919289150049634 0 -0.82903758062907751 forward_v I I I I #
loop $-1 $-1 $321 $82 #
coedge $-1 $209 $209 $210 $322 reversed $129 $-1 #
coedge $-1 $210 $210 $209 $322 forward $131 $-1 #
coedge $-1 $211 $211 $132 $212 forward $206 $-1 #
edge $-1 $323 0 $323 6.2831853071796004 $211 $324 forward 7 unknown #
loop $-1 $-1 $218 $133 #
plane-surface $-1 -7.0017673886716523 13.72765822204569 103.96710332463066 0.82903758062907751 0 0.55919289150049634 0.55919289150049634 0 -0.82903758062907751 forward_v I I I I #
loop $-1 $-1 $325 $85 #
coedge $-1 $216 $216 $217 $326 reversed $134 $-1 #
coedge $-1 $217 $217 $216 $326 forward $136 $-1 #
coedge $-1 $218 $218 $137 $219 forward $213 $-1 #
edge $-1 $327 0 $327 6.2831853071796004 $218 $328 forward 7 unknown #
face $-1 $329 $330 $33 $-1 $331 reversed single #
loop $-1 $-1 $332 $138 #
plane-surface $-1 -59.143650624103515 0 0 1 0 0 0 0 -1 forward_v I I I I #
coedge $-1 $333 $231 $334 $335 forward $139 $-1 #
coedge $-1 $336 $141 $333 $337 forward $89 $-1 #
coedge $-1 $141 $336 $338 $339 forward $89 $-1 #
coedge $-1 $234 $233 $141 $227 reversed $235 $-1 #
edge $-1 $340 -36.43019285489688 $341 36.43019285489688 $226 $342 forward 7 unknown #
coedge $-1 $143 $142 $343 $344 forward $56 $-1 #
coedge $-1 $345 $346 $142 $230 reversed $330 $-1 #
edge $-1 $237 -59.143650624103515 $347 59.143650624103515 $229 $348 forward 7 unknown #
coedge $-1 $223 $349 $143 $232 reversed $139 $-1 #
edge $-1 $350 -59.143650624103515 $236 59.143650624103515 $231 $351 forward 7 unknown #
coedge $-1 $226 $144 $349 $352 forward $235 $-1 #
coedge $-1 $144 $226 $345 $353 reversed $235 $-1 #
loop $-1 $-1 $233 $329 #
vertex $-1 $145 $354 #
vertex $-1 $145 $355 #
straight-curve $-1 59.143650624103515 0 15.844971450243657 0 1 0 I I #
face $-1 $356 $357 $34 $-1 $358 reversed single #
loop $-1 $-1 $359 $146 #
plane-surface $-1 -59.143650624103515 0 0 1 0 0 0 0 -1 forward_v I I I I #
coedge $-1 $250 $360 $244 $361 forward $147 $-1 #
coedge $-1 $152 $149 $362 $363 reversed $93 $-1 #
coedge $-1 $149 $152 $242 $361 reversed $93 $-1 #
coedge $-1 $364 $365 $149 $246 forward $366 $-1 #
edge $-1 $367 -15.844971450243657 $368 15.844971450243657 $245 $369 forward 7 unknown #
coedge $-1 $151 $150 $359 $370 reversed $59 $-1 #
coedge $-1 $362 $371 $150 $249 forward $357 $-1 #
edge $-1 $372 -30.410109264124571 $253 -27.056973455833315 $248 $373 forward 7 unknown #
coedge $-1 $374 $242 $151 $251 forward $147 $-1 #
edge $-1 $252 27.056973455833315 $375 30.410109264124571 $250 $376 forward 7 unknown #
vertex $-1 $251 $377 #
vertex $-1 $249 $378 #
straight-curve $-1 -55.790514815812259 -18.840403148919485 0 0 0 -1 I I #
face $-1 $379 $380 $35 $-1 $381 forward single #
loop $-1 $-1 $160 $154 #
plane-surface $-1 -59.143650624103515 0 0 1 0 0 0 0 -1 forward_v I I I I #
coedge $-1 $263 $382 $259 $383 forward $155 $-1 #
coedge $-1 $384 $157 $258 $383 reversed $97 $-1 #
coedge $-1 $157 $384 $385 $386 reversed $97 $-1 #
coedge $-1 $159 $158 $157 $262 reversed $62 $-1 #
edge $-1 $387 -15.844971450243657 $388 15.844971450243657 $157 $389 forward 7 unknown #
coedge $-1 $390 $258 $158 $264 forward $155 $-1 #
edge $-1 $388 27.056973455833315 $269 30.410109264124571 $263 $391 forward 7 unknown #
coedge $-1 $385 $392 $159 $266 forward $380 $-1 #
edge $-1 $270 -30.410109264124571 $387 -27.056973455833315 $265 $393 forward 7 unknown #
coedge $-1 $394 $160 $392 $395 reversed $256 $-1 #
coedge $-1 $160 $394 $390 $396 reversed $256 $-1 #
vertex $-1 $396 $397 #
vertex $-1 $161 $398 #
straight-curve $-1 -59.143650624103515 18.840403148919492 0 0 0 1 I I #
face $-1 $-1 $285 $36 $-1 $399 reversed single #
loop $-1 $-1 $281 $162 #
plane-surface $-1 -57.467082719957887 18.840403148919492 0 0 1 0 0 0 1 forward_v I I I I #
coedge $-1 $400 $401 $277 $402 forward $163 $-1 #
coedge $-1 $277 $165 $167 $283 reversed $101 $-1 #
coedge $-1 $165 $276 $275 $402 reversed $101 $-1 #
coedge $-1 $403 $168 $165 $279 forward $285 $-1 #
edge $-1 $287 -30.121466367050502 $404 -20.178980195481039 $278 $405 forward 7 unknown #
coedge $-1 $167 $166 $400 $406 reversed $65 $-1 #
coedge $-1 $407 $408 $166 $282 forward $273 $-1 #
edge $-1 $409 -13.970733786607788 $286 -1.9779286305073118 $281 $410 forward 7 unknown #
edge $-1 $411 -11.992805156100424 $287 5.0500882424826555e-014 $276 $412 forward 7 unknown #
coedge $-1 $168 $403 $407 $413 forward $285 $-1 #
loop $-1 $-1 $278 $272 #
vertex $-1 $282 $414 #
vertex $-1 $169 $415 #
straight-curve $-1 -59.143650624103515 6.8638291110228451 5.9024852786741917 0 -1 0 I I #
coedge $-1 $289 $289 $-1 $416 reversed $172 $-1 #
edge $-1 $417 0 $417 6.2831853071796004 $173 $418 forward 7 unknown #
vertex $-1 $176 $419 #
ellipse-curve $-1 -55.790504927882566 10.660011265921412 10.873728364458936 -0.82903758062907751 0 0.55919289150049634 0.27959644575024817 0 0.41451879031453875 1 I I #
coedge $-1 $293 $293 $-1 $420 reversed $179 $-1 #
edge $-1 $421 0 $421 6.2831853071796004 $180 $422 forward 7 unknown #
vertex $-1 $183 $423 #
ellipse-curve $-1 -55.790504927882566 13.72765822204569 10.873728364458936 -0.82903758062907751 0 0.55919289150049634 0.27959644575024817 0 0.41451879031453875 1 I I #
coedge $-1 $297 $297 $-1 $424 reversed $186 $-1 #
edge $-1 $425 0 $425 6.2831853071796004 $187 $426 forward 7 unknown #
vertex $-1 $190 $427 #
ellipse-curve $-1 -55.790504927882566 16.795305178169968 10.873728364458936 -0.82903758062907751 0 0.55919289150049634 0.27959644575024817 0 0.41451879031453875 1 I I #
face $-1 $-1 $313 $40 $-1 $428 forward single #
loop $-1 $-1 $429 $191 #
plane-surface $-1 59.143650624103515 0 0 -1 0 0 0 0 1 forward_v I I I I #
coedge $-1 $430 $431 $432 $433 reversed $192 $-1 #
coedge $-1 $434 $194 $196 $311 forward $120 $-1 #
coedge $-1 $194 $434 $430 $435 forward $120 $-1 #
coedge $-1 $432 $197 $194 $308 forward $313 $-1 #
edge $-1 $315 -11.97657403789664 $436 -1.7510841841490503 $307 $437 forward 7 unknown #
coedge $-1 $438 $439 $195 $310 forward $302 $-1 #
edge $-1 $440 -79.15377539002867 $314 -69.211289218459243 $309 $441 forward 7 unknown #
edge $-1 $315 106.29449609210661 $440 118.28730124820706 $196 $442 forward 7 unknown #
coedge $-1 $197 $432 $438 $443 forward $313 $-1 #
loop $-1 $-1 $432 $301 #
vertex $-1 $310 $444 #
vertex $-1 $198 $445 #
straight-curve $-1 45.531425328642385 18.840403148919485 15.844971450243662 -1 0 0 I I #
coedge $-1 $317 $317 $-1 $446 reversed $201 $-1 #
edge $-1 $447 0 $447 6.2831853071796004 $202 $448 forward 7 unknown #
vertex $-1 $205 $449 #
ellipse-curve $-1 55.790504927882587 10.660011265921412 10.873728364458954 0.82903758062907751 0 0.55919289150049634 0.27959644575024817 0 -0.41451879031453875 1 I I #
coedge $-1 $321 $321 $-1 $450 reversed $208 $-1 #
edge $-1 $451 0 $451 6.2831853071796004 $209 $452 forward 7 unknown #
vertex $-1 $212 $453 #
ellipse-curve $-1 55.790504927882587 13.72765822204569 10.873728364458954 0.82903758062907751 0 0.55919289150049634 0.27959644575024817 0 -0.41451879031453875 1 I I #
coedge $-1 $325 $325 $-1 $454 reversed $215 $-1 #
edge $-1 $455 0 $455 6.2831853071796004 $216 $456 forward 7 unknown #
vertex $-1 $219 $457 #
ellipse-curve $-1 55.790504927882587 16.795305178169968 10.873728364458954 0.82903758062907751 0 0.55919289150049634 0.27959644575024817 0 -0.41451879031453875 1 I I #
face $-1 $-1 $235 $33 $-1 $458 reversed single #
loop $-1 $-1 $345 $220 #
plane-surface $-1 0 36.43019285489688 0 0 -1 0 0 0 -1 forward_v I I I I #
coedge $-1 $459 $343 $346 $460 forward $221 $-1 #
coedge $-1 $349 $223 $224 $337 reversed $139 $-1 #
coedge $-1 $343 $459 $223 $335 reversed $221 $-1 #
edge $-1 $350 -15.844971450243657 $461 15.844971450243657 $334 $462 forward 7 unknown #
coedge $-1 $225 $224 $459 $463 forward $89 $-1 #
edge $-1 $341 -59.143650624103515 $461 59.143650624103515 $333 $464 forward 7 unknown #
coedge $-1 $346 $345 $225 $339 reversed $330 $-1 #
edge $-1 $465 -59.143650624103515 $340 59.143650624103515 $338 $466 forward 7 unknown #
vertex $-1 $227 $467 #
vertex $-1 $352 $468 #
straight-curve $-1 59.143650624103515 0 -15.844971450243657 0 -1 0 I I #
coedge $-1 $332 $334 $228 $344 reversed $221 $-1 #
edge $-1 $347 -36.43019285489688 $350 36.43019285489688 $343 $469 forward 7 unknown #
coedge $-1 $338 $229 $234 $353 forward $330 $-1 #
coedge $-1 $229 $338 $332 $460 reversed $330 $-1 #
vertex $-1 $230 $470 #
straight-curve $-1 0 36.43019285489688 15.844971450243657 -1 0 0 I I #
coedge $-1 $231 $333 $233 $352 reversed $139 $-1 #
vertex $-1 $344 $471 #
straight-curve $-1 0 -36.43019285489688 15.844971450243657 1 0 0 I I #
edge $-1 $236 -15.844971450243657 $341 15.844971450243657 $233 $472 forward 7 unknown #
edge $-1 $237 -15.844971450243657 $340 15.844971450243657 $234 $473 forward 7 unknown #
point $-1 59.143650624103515 -36.43019285489688 15.844971450243657 #
point $-1 59.143650624103515 36.43019285489688 15.844971450243657 #
face $-1 $-1 $366 $34 $-1 $474 reversed single #
loop $-1 $-1 $362 $239 #
plane-surface $-1 0 0 -15.844971450243657 0 0 1 1 0 0 forward_v I I I I #
coedge $-1 $475 $476 $247 $370 forward $240 $-1 #
coedge $-1 $242 $374 $364 $477 forward $147 $-1 #
edge $-1 $368 -22.612543853942789 $252 -5.0227541479653937 $242 $478 forward 7 unknown #
coedge $-1 $479 $248 $243 $363 forward $357 $-1 #
edge $-1 $253 5.0227541479653937 $367 22.612543853942789 $362 $480 forward 7 unknown #
coedge $-1 $481 $245 $360 $477 reversed $366 $-1 #
coedge $-1 $245 $481 $479 $482 reversed $366 $-1 #
loop $-1 $-1 $245 $356 #
vertex $-1 $482 $483 #
vertex $-1 $246 $484 #
straight-curve $-1 -55.790514815812259 -36.43019285489688 0 0 0 1 I I #
edge $-1 $375 -15.844971450243657 $372 15.844971450243657 $359 $485 forward 7 unknown #
coedge $-1 $248 $479 $475 $486 forward $357 $-1 #
vertex $-1 $249 $487 #
straight-curve $-1 -28.733541359978943 -18.840403148919485 -15.844971450243657 1 0 0 I I #
coedge $-1 $360 $250 $476 $488 forward $147 $-1 #
vertex $-1 $488 $489 #
straight-curve $-1 -28.733541359978943 -18.840403148919485 15.844971450243657 -1 0 0 I I #
point $-1 -55.790514815812259 -18.840403148919485 15.844971450243657 #
point $-1 -55.790514815812259 -18.840403148919485 -15.844971450243657 #
face $-1 $-1 $490 $35 $-1 $491 reversed single #
loop $-1 $-1 $385 $255 #
plane-surface $-1 0 0 15.844971450243657 0 0 1 1 0 0 forward_v I I I I #
coedge $-1 $258 $390 $492 $493 forward $155 $-1 #
edge $-1 $494 -22.612543853942793 $388 -5.0227541479653972 $258 $495 forward 7 unknown #
coedge $-1 $260 $259 $496 $497 reversed $97 $-1 #
coedge $-1 $498 $265 $260 $386 forward $380 $-1 #
edge $-1 $387 5.0227541479653972 $499 22.612543853942793 $385 $500 forward 7 unknown #
vertex $-1 $266 $501 #
vertex $-1 $264 $502 #
straight-curve $-1 -55.790514815812259 18.840403148919492 0 0 0 -1 I I #
coedge $-1 $382 $263 $268 $396 forward $155 $-1 #
straight-curve $-1 -28.733541359978943 18.840403148919492 -15.844971450243657 -1 0 0 I I #
coedge $-1 $265 $498 $267 $395 forward $380 $-1 #
straight-curve $-1 -28.733541359978943 18.840403148919492 15.844971450243657 1 0 0 I I #
coedge $-1 $268 $267 $503 $504 forward $256 $-1 #
edge $-1 $505 -36.43019285489688 $270 -18.840403148919492 $267 $506 forward 7 unknown #
edge $-1 $269 18.840403148919492 $507 36.43019285489688 $268 $508 forward 7 unknown #
point $-1 -59.143650624103515 18.840403148919492 -15.844971450243657 #
point $-1 -59.143650624103515 18.840403148919492 15.844971450243657 #
plane-surface $-1 -59.143650624103515 0 0 1 0 0 0 0 -1 forward_v I I I I #
coedge $-1 $509 $275 $280 $406 forward $163 $-1 #
coedge $-1 $275 $509 $403 $510 forward $163 $-1 #
edge $-1 $404 19.460483710926439 $411 26.166775103368323 $275 $511 forward 7 unknown #
coedge $-1 $284 $278 $401 $510 reversed $285 $-1 #
vertex $-1 $279 $512 #
straight-curve $-1 -59.143650624103515 8.6149132951718954 36.023951645724694 0 0 1 I I #
edge $-1 $411 1.7510841841490503 $409 11.97657403789664 $400 $513 forward 7 unknown #
coedge $-1 $408 $281 $284 $413 reversed $273 $-1 #
coedge $-1 $281 $407 $509 $514 reversed $273 $-1 #
vertex $-1 $514 $515 #
straight-curve $-1 -60.249694254178515 18.840403148919492 4.262708112181425 -0.55919289150049634 0 -0.82903758062907751 I I #
vertex $-1 $406 $516 #
straight-curve $-1 -59.143650624103486 8.6149132951718954 5.9024852786742343 -0.55919289150049634 0 -0.82903758062907751 I I #
edge $-1 $517 -15.844971450243657 $286 -5.9024852786741917 $284 $518 forward 7 unknown #
point $-1 -59.143650624103515 18.840403148919492 5.9024852786741917 #
point $-1 -59.143650624103515 8.6149132951718954 5.9024852786741926 #
edge $-1 $519 1 $519 0 $289 $-1 forward 7 unknown #
vertex $-1 $290 $520 #
ellipse-curve $-1 -54.96146734725351 10.660011265921412 10.314535472958454 -0.82903758062907751 0 0.55919289150049634 0.27959644575024817 0 0.41451879031453875 1 I I #
point $-1 -55.510908482132336 10.660011265921412 11.28824715477349 #
edge $-1 $521 1 $521 0 $293 $-1 forward 7 unknown #
vertex $-1 $294 $522 #
ellipse-curve $-1 -54.96146734725351 13.72765822204569 10.314535472958454 -0.82903758062907751 0 0.55919289150049634 0.27959644575024817 0 0.41451879031453875 1 I I #
point $-1 -55.510908482132336 13.72765822204569 11.28824715477349 #
edge $-1 $523 1 $523 0 $297 $-1 forward 7 unknown #
vertex $-1 $298 $524 #
ellipse-curve $-1 -54.96146734725351 16.795305178169968 10.314535472958454 -0.82903758062907751 0 0.55919289150049634 0.27959644575024817 0 0.41451879031453875 1 I I #
point $-1 -55.510908482132336 16.795305178169968 11.28824715477349 #
plane-surface $-1 0 0 15.844971450243657 0 0 1 1 0 0 forward_v I I I I #
coedge $-1 $439 $438 $431 $525 forward $302 $-1 #
coedge $-1 $431 $304 $306 $435 reversed $192 $-1 #
coedge $-1 $304 $430 $429 $525 reversed $192 $-1 #
coedge $-1 $312 $307 $304 $433 forward $313 $-1 #
edge $-1 $436 6.9059339030192675 $526 13.61222529546113 $432 $527 forward 7 unknown #
coedge $-1 $306 $305 $439 $528 reversed $120 $-1 #
edge $-1 $529 -118.28730124820706 $436 -106.29449609210661 $430 $530 forward 7 unknown #
vertex $-1 $308 $531 #
straight-curve $-1 52.437359231661645 6.8638291110228451 15.844971450243655 0 -1 0 I I #
coedge $-1 $429 $309 $312 $443 reversed $302 $-1 #
coedge $-1 $309 $429 $434 $528 forward $302 $-1 #
vertex $-1 $310 $532 #
straight-curve $-1 59.143650624103515 18.840403148919485 85.056260668702905 0 0 1 I I #
straight-curve $-1 -7.0017673886716523 18.840403148919485 103.96710332463066 0.55919289150049634 0 -0.82903758062907751 I I #
edge $-1 $526 8.6149132951718954 $314 18.840403148919485 $438 $533 forward 7 unknown #
point $-1 59.143650624103515 18.840403148919485 15.844971450243657 #
point $-1 52.437359231661652 18.840403148919485 15.844971450243662 #
edge $-1 $534 1 $534 0 $317 $-1 forward 7 unknown #
vertex $-1 $318 $535 #
ellipse-curve $-1 54.961467347253524 10.660011265921412 10.314535472958468 0.82903758062907751 0 0.55919289150049634 0.27959644575024817 0 -0.41451879031453875 1 I I #
point $-1 56.070101373632845 10.660011265921412 10.459209574144426 #
edge $-1 $536 1 $536 0 $321 $-1 forward 7 unknown #
vertex $-1 $322 $537 #
ellipse-curve $-1 54.961467347253524 13.72765822204569 10.314535472958468 0.82903758062907751 0 0.55919289150049634 0.27959644575024817 0 -0.41451879031453875 1 I I #
point $-1 56.070101373632845 13.72765822204569 10.459209574144426 #
edge $-1 $538 1 $538 0 $325 $-1 forward 7 unknown #
vertex $-1 $326 $539 #
ellipse-curve $-1 54.961467347253524 16.795305178169968 10.314535472958468 0.82903758062907751 0 0.55919289150049634 0.27959644575024817 0 -0.41451879031453875 1 I I #
point $-1 56.070101373632845 16.795305178169968 10.459209574144426 #
plane-surface $-1 59.143650624103515 0 0 -1 0 0 0 0 1 forward_v I I I I #
coedge $-1 $334 $332 $336 $463 reversed $221 $-1 #
edge $-1 $347 -15.844971450243657 $465 15.844971450243657 $346 $540 forward 7 unknown #
vertex $-1 $463 $541 #
straight-curve $-1 -59.143650624103515 -36.43019285489688 0 0 0 -1 I I #
edge $-1 $461 -36.43019285489688 $465 36.43019285489688 $459 $542 forward 7 unknown #
straight-curve $-1 0 -36.43019285489688 -15.844971450243657 -1 0 0 I I #
vertex $-1 $339 $543 #
straight-curve $-1 0 36.43019285489688 -15.844971450243657 1 0 0 I I #
point $-1 59.143650624103515 36.43019285489688 -15.844971450243657 #
point $-1 59.143650624103515 -36.43019285489688 -15.844971450243657 #
straight-curve $-1 -59.143650624103515 0 15.844971450243657 0 -1 0 I I #
point $-1 -59.143650624103515 36.43019285489688 15.844971450243657 #
point $-1 -59.143650624103515 -36.43019285489688 15.844971450243657 #
straight-curve $-1 59.143650624103515 -36.43019285489688 0 0 0 -1 I I #
straight-curve $-1 59.143650624103515 36.43019285489688 0 0 0 -1 I I #
plane-surface $-1 0 -36.43019285489688 0 0 1 0 0 0 1 forward_v I I I I #
coedge $-1 $544 $359 $371 $486 reversed $240 $-1 #
coedge $-1 $359 $544 $374 $488 reversed $240 $-1 #
edge $-1 $545 -59.143650624103515 $368 -55.790514815812259 $364 $546 forward 7 unknown #
straight-curve $-1 -55.790514815812259 -13.817649000954091 15.844971450243657 0 1 0 I I #
coedge $-1 $371 $362 $365 $482 forward $357 $-1 #
straight-curve $-1 -55.790514815812259 -13.817649000954091 -15.844971450243657 0 -1 0 I I #
coedge $-1 $365 $364 $544 $547 forward $366 $-1 #
edge $-1 $367 55.790514815812259 $548 59.143650624103515 $365 $549 forward 7 unknown #
point $-1 -55.790514815812259 -36.43019285489688 -15.844971450243657 #
point $-1 -55.790514815812259 -36.43019285489688 15.844971450243657 #
straight-curve $-1 -59.143650624103515 -18.840403148919485 0 0 0 -1 I I #
edge $-1 $548 -36.43019285489688 $372 -18.840403148919485 $475 $550 forward 7 unknown #
point $-1 -59.143650624103515 -18.840403148919485 -15.844971450243657 #
edge $-1 $375 18.840403148919485 $545 36.43019285489688 $476 $551 forward 7 unknown #
point $-1 -59.143650624103515 -18.840403148919485 15.844971450243657 #
loop $-1 $-1 $496 $379 #
plane-surface $-1 0 36.43019285489688 0 0 -1 0 0 0 -1 forward_v I I I I #
coedge $-1 $503 $496 $382 $493 reversed $490 $-1 #
edge $-1 $507 -59.143650624103515 $494 -55.790514815812259 $492 $552 forward 7 unknown #
vertex $-1 $383 $553 #
straight-curve $-1 -55.790514815812259 13.817649000954095 -15.844971450243657 0 -1 0 I I #
coedge $-1 $492 $554 $384 $497 forward $490 $-1 #
edge $-1 $499 -15.844971450243657 $494 15.844971450243657 $496 $555 forward 7 unknown #
coedge $-1 $392 $385 $554 $556 forward $380 $-1 #
vertex $-1 $556 $557 #
straight-curve $-1 -55.790514815812259 13.817649000954095 15.844971450243657 0 1 0 I I #
point $-1 -55.790514815812259 18.840403148919492 15.844971450243657 #
point $-1 -55.790514815812259 18.840403148919492 -15.844971450243657 #
coedge $-1 $554 $492 $394 $504 reversed $490 $-1 #
edge $-1 $505 -15.844971450243657 $507 15.844971450243657 $503 $558 forward 7 unknown #
vertex $-1 $556 $559 #
straight-curve $-1 -59.143650624103515 0 15.844971450243657 0 -1 0 I I #
vertex $-1 $493 $560 #
straight-curve $-1 -59.143650624103515 0 -15.844971450243657 0 1 0 I I #
coedge $-1 $401 $400 $408 $514 forward $163 $-1 #
edge $-1 $517 -18.840403148919492 $404 -8.6149132951718954 $403 $561 forward 7 unknown #
straight-curve $-1 -78.604134335029954 8.6149132951718954 15.844971450243655 1 0 0 I I #
point $-1 -59.143650624103515 8.6149132951718954 15.844971450243657 #
straight-curve $-1 -52.437359231661631 6.8638291110228451 15.844971450243658 0 1 0 I I #
edge $-1 $409 23.703817871682688 $517 30.410109264124571 $509 $562 forward 7 unknown #
point $-1 -52.437359231661631 18.840403148919485 15.844971450243657 #
point $-1 -52.437359231661631 8.6149132951718954 15.844971450243657 #
vertex $-1 $510 $563 #
straight-curve $-1 -59.143650624103515 18.840403148919492 0 0 0 -1 I I #
vertex $-1 $416 $564 #
point $-1 -54.68187090150326 10.660011265921412 10.729054263272992 #
vertex $-1 $420 $565 #
point $-1 -54.68187090150326 13.72765822204569 10.729054263272992 #
vertex $-1 $424 $566 #
point $-1 -54.68187090150326 16.795305178169968 10.729054263272992 #
edge $-1 $526 69.211289218459243 $529 79.15377539002867 $429 $567 forward 7 unknown #
vertex $-1 $443 $568 #
straight-curve $-1 45.531425328642385 8.6149132951718954 15.844971450243662 1 0 0 I I #
edge $-1 $529 1.7510841841490503 $440 11.97657403789664 $439 $569 forward 7 unknown #
vertex $-1 $528 $570 #
straight-curve $-1 -7.0017673886716523 8.6149132951718954 103.96710332463066 -0.55919289150049634 0 0.82903758062907751 I I #
point $-1 52.437359231661652 8.6149132951718954 15.844971450243662 #
point $-1 59.143650624103515 18.840403148919485 5.9024852786742343 #
straight-curve $-1 59.143650624103515 0 15.844971450243657 0 1 0 I I #
vertex $-1 $446 $571 #
point $-1 55.241063793003768 10.660011265921412 9.9000166826439298 #
vertex $-1 $450 $572 #
point $-1 55.241063793003768 13.72765822204569 9.9000166826439298 #
vertex $-1 $454 $573 #
point $-1 55.241063793003768 16.795305178169968 9.9000166826439298 #
straight-curve $-1 -59.143650624103515 36.43019285489688 0 0 0 -1 I I #
point $-1 -59.143650624103515 -36.43019285489688 -15.844971450243657 #
straight-curve $-1 -59.143650624103515 0 -15.844971450243657 0 1 0 I I #
point $-1 -59.143650624103515 36.43019285489688 -15.844971450243657 #
coedge $-1 $476 $475 $481 $547 reversed $240 $-1 #
vertex $-1 $488 $574 #
straight-curve $-1 0 -36.43019285489688 15.844971450243657 1 0 0 I I #
edge $-1 $545 -15.844971450243657 $548 15.844971450243657 $544 $575 forward 7 unknown #
vertex $-1 $486 $576 #
straight-curve $-1 0 -36.43019285489688 -15.844971450243657 -1 0 0 I I #
straight-curve $-1 -59.143650624103515 0 -15.844971450243657 0 1 0 I I #
straight-curve $-1 -59.143650624103515 0 15.844971450243657 0 -1 0 I I #
straight-curve $-1 0 36.43019285489688 -15.844971450243657 1 0 0 I I #
point $-1 -55.790514815812259 36.430192854896887 -15.844971450243657 #
coedge $-1 $496 $503 $498 $556 reversed $490 $-1 #
straight-curve $-1 -55.790514815812259 36.43019285489688 0 0 0 -1 I I #
edge $-1 $499 55.790514815812259 $505 59.143650624103515 $554 $577 forward 7 unknown #
point $-1 -55.790514815812259 36.430192854896887 15.844971450243657 #
straight-curve $-1 -59.143650624103515 36.43019285489688 0 0 0 -1 I I #
point $-1 -59.143650624103515 36.43019285489688 15.844971450243657 #
point $-1 -59.143650624103515 36.43019285489688 -15.844971450243657 #
straight-curve $-1 -59.143650624103515 0 15.844971450243657 0 -1 0 I I #
straight-curve $-1 -28.733541359978943 18.840403148919492 15.844971450243657 -1 0 0 I I #
point $-1 -59.143650624103515 18.840403148919492 15.844971450243657 #
point $-1 -54.546948556938965 10.660011265921412 10.034939027208207 #
point $-1 -54.546948556938965 13.72765822204569 10.034939027208207 #
point $-1 -54.546948556938965 16.795305178169968 10.034939027208207 #
straight-curve $-1 59.143650624103515 8.6149132951718954 85.056260668702905 0 0 -1 I I #
point $-1 59.143650624103515 8.6149132951718954 15.844971450243657 #
straight-curve $-1 59.143650624103515 6.8638291110228451 5.9024852786742272 0 1 0 I I #
point $-1 59.143650624103515 8.6149132951718954 5.9024852786742343 #
point $-1 54.546948556938979 10.660011265921412 10.034939027208221 #
point $-1 54.546948556938979 13.72765822204569 10.034939027208221 #
point $-1 54.546948556938979 16.795305178169968 10.034939027208221 #
point $-1 -59.143650624103515 -36.43019285489688 15.844971450243657 #
straight-curve $-1 -59.143650624103515 -36.43019285489688 0 0 0 -1 I I #
point $-1 -59.143650624103515 -36.43019285489688 -15.844971450243657 #
straight-curve $-1 0 36.43019285489688 15.844971450243657 -1 0 0 I I #
End-of-ACIS-data 