500 0 13 0           
7 Unknown 11 ACIS 5.0 NT 24 Fri Mar 26 00:38:05 1999 
-1 9.9999999999999995e-007 1e-010 
body $-1 $13 $-1 $14 #
body $-1 $15 $-1 $16 #
body $-1 $17 $-1 $18 #
body $-1 $19 $-1 $20 #
body $-1 $21 $-1 $22 #
body $-1 $23 $-1 $24 #
body $-1 $25 $-1 $26 #
body $-1 $27 $-1 $28 #
body $-1 $29 $-1 $30 #
body $-1 $31 $-1 $32 #
body $-1 $33 $-1 $34 #
body $-1 $35 $-1 $36 #
body $-1 $37 $-1 $38 #
lump $-1 $-1 $39 $0 #
transform $-1 1 0 0 0 1 0 0 0 1 48.0336924344615 31.486717933844581 15.131920671646393 1 rotate no_reflect no_shear #
lump $-1 $-1 $40 $1 #
transform $-1 1 0 0 0 1 0 0 0 1 48.0336924344615 31.486717933844581 15.131920671646393 1 rotate no_reflect no_shear #
lump $-1 $-1 $41 $2 #
transform $-1 1 0 0 0 1 0 0 0 1 48.0336924344615 31.486717933844581 15.131920671646393 1 rotate no_reflect no_shear #
lump $-1 $-1 $42 $3 #
transform $-1 1 0 0 0 1 0 0 0 1 48.0336924344615 31.486717933844581 15.131920671646393 1 rotate no_reflect no_shear #
lump $-1 $-1 $43 $4 #
transform $-1 1 0 0 0 1 0 0 0 1 48.0336924344615 31.486717933844581 15.131920671646393 1 rotate no_reflect no_shear #
lump $-1 $-1 $44 $5 #
transform $-1 1 0 0 0 1 0 0 0 1 48.0336924344615 31.486717933844581 15.131920671646393 1 rotate no_reflect no_shear #
lump $-1 $-1 $45 $6 #
transform $-1 1 0 0 0 1 0 0 0 1 48.0336924344615 31.486717933844581 15.131920671646393 1 rotate no_reflect no_shear #
lump $-1 $-1 $46 $7 #
transform $-1 1 0 0 0 1 0 0 0 1 48.0336924344615 31.486717933844581 15.131920671646393 1 rotate no_reflect no_shear #
lump $-1 $-1 $47 $8 #
transform $-1 1 0 0 0 1 0 0 0 1 48.0336924344615 31.486717933844581 15.131920671646393 1 rotate no_reflect no_shear #
lump $-1 $-1 $48 $9 #
transform $-1 1 0 0 0 1 0 0 0 1 48.0336924344615 31.486717933844581 15.131920671646393 1 rotate no_reflect no_shear #
lump $-1 $-1 $49 $10 #
transform $-1 1 0 0 0 1 0 0 0 1 48.0336924344615 31.486717933844581 15.131920671646393 1 rotate no_reflect no_shear #
lump $-1 $-1 $50 $11 #
transform $-1 1 0 0 0 1 0 0 0 1 48.0336924344615 31.486717933844581 15.131920671646393 1 rotate no_reflect no_shear #
lump $-1 $-1 $51 $12 #
transform $-1 1 0 0 0 1 0 0 0 1 48.0336924344615 31.486717933844581 15.131920671646393 1 rotate no_reflect no_shear #
shell $-1 $-1 $-1 $52 $-1 $13 #
shell $-1 $-1 $-1 $53 $-1 $15 #
shell $-1 $-1 $-1 $54 $-1 $17 #
shell $-1 $-1 $-1 $55 $-1 $19 #
shell $-1 $-1 $-1 $56 $-1 $21 #
shell $-1 $-1 $-1 $57 $-1 $23 #
shell $-1 $-1 $-1 $58 $-1 $25 #
shell $-1 $-1 $-1 $59 $-1 $27 #
shell $-1 $-1 $-1 $60 $-1 $29 #
shell $-1 $-1 $-1 $61 $-1 $31 #
shell $-1 $-1 $-1 $62 $-1 $33 #
shell $-1 $-1 $-1 $63 $-1 $35 #
shell $-1 $-1 $-1 $64 $-1 $37 #
face $-1 $65 $66 $39 $-1 $67 forward single #
face $-1 $68 $69 $40 $-1 $70 reversed single #
face $-1 $71 $72 $41 $-1 $73 forward single #
face $-1 $74 $75 $42 $-1 $76 forward single #
face $-1 $77 $78 $43 $-1 $79 reversed single #
face $-1 $80 $81 $44 $-1 $82 forward single #
face $-1 $83 $84 $45 $-1 $85 forward single #
face $-1 $86 $87 $46 $-1 $88 reversed single #
face $-1 $89 $90 $47 $-1 $91 forward single #
face $-1 $92 $93 $48 $-1 $94 forward single #
face $-1 $95 $96 $49 $-1 $97 reversed single #
face $-1 $98 $99 $50 $-1 $100 forward single #
face $-1 $101 $102 $51 $-1 $103 forward single #
face $-1 $104 $105 $39 $-1 $106 reversed single #
loop $-1 $-1 $107 $52 #
plane-surface $-1 0 0 15.131920671646393 0 0 1 1 0 0 forward_v I I I I #
face $-1 $108 $109 $40 $-1 $110 reversed single #
loop $-1 $-1 $111 $53 #
plane-surface $-1 -6.5160828030942213 -112.05560693185026 61.273165542786408 -1 0 0 0 -0.83867057594974714 0.54463902268945019 forward_v I I I I #
face $-1 $112 $113 $41 $-1 $114 forward single #
loop $-1 $115 $116 $54 #
cone-surface $-1 -20.361037763124212 -28.088355735256059 11.13791301897648 0 0.83867057594974714 -0.54463902268945019 1 0 0 1 I I 0 1 1 forward I I I I #
face $-1 $117 $118 $42 $-1 $119 forward single #
loop $-1 $120 $121 $55 #
cone-surface $-1 -12.054064787106213 -28.088355735256059 11.13791301897648 0 0.83867057594974714 -0.54463902268945019 1 0 0 1 I I 0 1 1 forward I I I I #
face $-1 $122 $123 $43 $-1 $124 reversed single #
loop $-1 $-1 $125 $56 #
plane-surface $-1 41.517609631367286 -112.05560693185026 61.273165542786408 -1 0 0 0 -0.83867057594974714 0.54463902268945019 forward_v I I I I #
face $-1 $126 $127 $44 $-1 $128 forward single #
loop $-1 $129 $130 $57 #
cone-surface $-1 27.672654671337284 -28.088355735256059 11.13791301897648 0 0.83867057594974714 -0.54463902268945019 1 0 0 1 I I 0 1 1 forward I I I I #
face $-1 $131 $132 $45 $-1 $133 forward single #
loop $-1 $134 $135 $58 #
cone-surface $-1 35.979627647355287 -28.088355735256059 11.13791301897648 0 0.83867057594974714 -0.54463902268945019 1 0 0 1 I I 0 1 1 forward I I I I #
face $-1 $136 $137 $46 $-1 $138 reversed single #
loop $-1 $-1 $139 $59 #
plane-surface $-1 -25.899019747136208 77.757816365475264 114.08713327147574 1 0 0 0 -0.83867057594974714 -0.54463902268945019 forward_v I I I I #
face $-1 $140 $141 $47 $-1 $142 forward single #
loop $-1 $143 $144 $60 #
cone-surface $-1 -20.361037763124212 28.088355735256052 11.13791301897648 0 -0.83867057594974714 -0.54463902268945019 1 0 0 1 I I 0 1 1 forward I I I I #
face $-1 $145 $146 $48 $-1 $147 forward single #
loop $-1 $148 $149 $61 #
cone-surface $-1 -12.054064787106213 28.088355735256052 11.13791301897648 0 -0.83867057594974714 -0.54463902268945019 1 0 0 1 I I 0 1 1 forward I I I I #
face $-1 $150 $151 $49 $-1 $152 reversed single #
loop $-1 $-1 $153 $62 #
plane-surface $-1 22.134672687325299 77.757816365475264 114.08713327147574 1 0 0 0 -0.83867057594974714 -0.54463902268945019 forward_v I I I I #
face $-1 $154 $155 $50 $-1 $156 forward single #
loop $-1 $157 $158 $63 #
cone-surface $-1 27.672654671337284 28.088355735256052 11.13791301897648 0 -0.83867057594974714 -0.54463902268945019 1 0 0 1 I I 0 1 1 forward I I I I #
face $-1 $159 $160 $51 $-1 $161 forward single #
loop $-1 $162 $163 $64 #
cone-surface $-1 35.979627647355287 28.088355735256052 11.13791301897648 0 -0.83867057594974714 -0.54463902268945019 1 0 0 1 I I 0 1 1 forward I I I I #
face $-1 $164 $165 $39 $-1 $166 reversed single #
loop $-1 $-1 $167 $65 #
plane-surface $-1 0 0 -15.131920671646393 0 0 1 1 0 0 forward_v I I I I #
coedge $-1 $168 $169 $170 $171 forward $66 $-1 #
face $-1 $172 $173 $40 $-1 $174 reversed single #
loop $-1 $-1 $175 $68 #
plane-surface $-1 -16.207551275115215 -31.486717933844588 8.9511189354449101 0 -0.83867057594974714 0.54463902268945019 1 0 0 forward_v I I I I #
coedge $-1 $176 $177 $178 $179 reversed $69 $-1 #
face $-1 $-1 $180 $41 $-1 $181 forward single #
loop $-1 $182 $183 $71 #
cone-surface $-1 -20.361037763124212 -26.277587973888927 9.9619867230625854 0 0.83867057594974714 -0.54463902268945019 0.5 0 0 1 I I -0.70710678118654746 0.70710678118654746 0.5 forward I I I I #
loop $-1 $-1 $184 $54 #
coedge $-1 $116 $116 $185 $186 reversed $72 $-1 #
face $-1 $-1 $187 $42 $-1 $188 forward single #
loop $-1 $189 $190 $74 #
cone-surface $-1 -12.054064787106213 -26.277587973888927 9.9619867230625854 0 0.83867057594974714 -0.54463902268945019 0.5 0 0 1 I I -0.70710678118654746 0.70710678118654746 0.5 forward I I I I #
loop $-1 $-1 $191 $55 #
coedge $-1 $121 $121 $192 $193 reversed $75 $-1 #
face $-1 $194 $195 $43 $-1 $196 reversed single #
loop $-1 $-1 $197 $77 #
plane-surface $-1 31.826141159346292 -31.486717933844588 8.9511189354449101 0 -0.83867057594974714 0.54463902268945019 1 0 0 forward_v I I I I #
coedge $-1 $198 $199 $200 $201 reversed $78 $-1 #
face $-1 $-1 $202 $44 $-1 $203 forward single #
loop $-1 $204 $205 $80 #
cone-surface $-1 27.672654671337284 -26.277587973888927 9.9619867230625854 0 0.83867057594974714 -0.54463902268945019 0.5 0 0 1 I I -0.70710678118654746 0.70710678118654746 0.5 forward I I I I #
loop $-1 $-1 $206 $57 #
coedge $-1 $130 $130 $207 $208 reversed $81 $-1 #
face $-1 $-1 $209 $45 $-1 $210 forward single #
loop $-1 $211 $212 $83 #
cone-surface $-1 35.979627647355287 -26.277587973888927 9.9619867230625854 0 0.83867057594974714 -0.54463902268945019 0.5 0 0 1 I I -0.70710678118654746 0.70710678118654746 0.5 forward I I I I #
loop $-1 $-1 $213 $58 #
coedge $-1 $135 $135 $214 $215 reversed $84 $-1 #
face $-1 $216 $217 $46 $-1 $218 reversed single #
loop $-1 $-1 $219 $86 #
plane-surface $-1 -16.207551275115215 -2.8110726325304114 61.765086664134238 0 0.83867057594974714 0.54463902268945019 1 0 0 forward_v I I I I #
coedge $-1 $220 $221 $222 $223 reversed $87 $-1 #
face $-1 $-1 $224 $47 $-1 $225 forward single #
loop $-1 $226 $227 $89 #
cone-surface $-1 -20.361037763124212 26.27758797388892 9.9619867230625854 0 -0.83867057594974714 -0.54463902268945019 0.5 0 0 1 I I -0.70710678118654746 0.70710678118654746 0.5 forward I I I I #
loop $-1 $-1 $228 $60 #
coedge $-1 $144 $144 $229 $230 reversed $90 $-1 #
face $-1 $-1 $231 $48 $-1 $232 forward single #
loop $-1 $233 $234 $92 #
cone-surface $-1 -12.054064787106213 26.27758797388892 9.9619867230625854 0 -0.83867057594974714 -0.54463902268945019 0.5 0 0 1 I I -0.70710678118654746 0.70710678118654746 0.5 forward I I I I #
loop $-1 $-1 $235 $61 #
coedge $-1 $149 $149 $236 $237 reversed $93 $-1 #
face $-1 $238 $239 $49 $-1 $240 reversed single #
loop $-1 $-1 $241 $95 #
plane-surface $-1 31.826141159346292 -2.8110726325304114 61.765086664134238 0 0.83867057594974714 0.54463902268945019 1 0 0 forward_v I I I I #
coedge $-1 $242 $243 $244 $245 reversed $96 $-1 #
face $-1 $-1 $246 $50 $-1 $247 forward single #
loop $-1 $248 $249 $98 #
cone-surface $-1 27.672654671337284 26.27758797388892 9.9619867230625854 0 -0.83867057594974714 -0.54463902268945019 0.5 0 0 1 I I -0.70710678118654746 0.70710678118654746 0.5 forward I I I I #
loop $-1 $-1 $250 $63 #
coedge $-1 $158 $158 $251 $252 reversed $99 $-1 #
face $-1 $-1 $253 $51 $-1 $254 forward single #
loop $-1 $255 $256 $101 #
cone-surface $-1 35.979627647355287 26.27758797388892 9.9619867230625854 0 -0.83867057594974714 -0.54463902268945019 0.5 0 0 1 I I -0.70710678118654746 0.70710678118654746 0.5 forward I I I I #
loop $-1 $-1 $257 $64 #
coedge $-1 $163 $163 $258 $259 reversed $102 $-1 #
face $-1 $260 $261 $39 $-1 $262 reversed single #
loop $-1 $-1 $263 $104 #
plane-surface $-1 0 -31.486717933844581 0 0 1 0 0 0 1 forward_v I I I I #
coedge $-1 $264 $265 $266 $267 forward $105 $-1 #
coedge $-1 $268 $107 $269 $270 forward $66 $-1 #
coedge $-1 $107 $268 $271 $272 forward $66 $-1 #
coedge $-1 $273 $274 $107 $171 reversed $275 $-1 #
edge $-1 $276 -31.486717933844581 $277 31.486717933844581 $170 $278 forward 7 unknown #
face $-1 $279 $280 $40 $-1 $281 reversed single #
loop $-1 $-1 $282 $108 #
plane-surface $-1 -25.899019747136208 -112.05560693185026 61.273165542786408 1 0 0 0 0.83867057594974714 -0.54463902268945019 forward_v I I I I #
coedge $-1 $283 $284 $285 $286 reversed $109 $-1 #
coedge $-1 $177 $111 $287 $288 reversed $69 $-1 #
coedge $-1 $111 $176 $283 $289 reversed $69 $-1 #
coedge $-1 $285 $290 $111 $179 forward $291 $-1 #
edge $-1 $292 24.541085532080551 $293 28.554944982473067 $178 $294 forward 7 unknown #
loop $-1 $-1 $185 $112 #
plane-surface $-1 -16.207551275115215 -31.486717933844588 8.9511189354449101 0 -0.83867057594974714 0.54463902268945019 1 0 0 forward_v I I I I #
loop $-1 $-1 $295 $71 #
coedge $-1 $183 $183 $184 $296 reversed $113 $-1 #
coedge $-1 $184 $184 $183 $296 forward $115 $-1 #
coedge $-1 $185 $185 $116 $186 forward $180 $-1 #
edge $-1 $297 1.3355048769757964e-015 $297 6.2831853071796022 $185 $298 forward 7 unknown #
loop $-1 $-1 $192 $117 #
plane-surface $-1 -16.207551275115215 -31.486717933844588 8.9511189354449101 0 -0.83867057594974714 0.54463902268945019 1 0 0 forward_v I I I I #
loop $-1 $-1 $299 $74 #
coedge $-1 $190 $190 $191 $300 reversed $118 $-1 #
coedge $-1 $191 $191 $190 $300 forward $120 $-1 #
coedge $-1 $192 $192 $121 $193 forward $187 $-1 #
edge $-1 $301 1.3355048769757964e-015 $301 6.2831853071796022 $192 $302 forward 7 unknown #
face $-1 $303 $304 $43 $-1 $305 reversed single #
loop $-1 $-1 $306 $122 #
plane-surface $-1 22.134672687325299 -112.05560693185026 61.273165542786408 1 0 0 0 0.83867057594974714 -0.54463902268945019 forward_v I I I I #
coedge $-1 $307 $308 $309 $310 reversed $123 $-1 #
coedge $-1 $199 $125 $311 $312 reversed $78 $-1 #
coedge $-1 $125 $198 $307 $313 reversed $78 $-1 #
coedge $-1 $309 $314 $125 $201 forward $315 $-1 #
edge $-1 $316 24.541085532080551 $317 28.554944982473067 $200 $318 forward 7 unknown #
loop $-1 $-1 $207 $126 #
plane-surface $-1 31.826141159346292 -31.486717933844588 8.9511189354449101 0 -0.83867057594974714 0.54463902268945019 1 0 0 forward_v I I I I #
loop $-1 $-1 $319 $80 #
coedge $-1 $205 $205 $206 $320 reversed $127 $-1 #
coedge $-1 $206 $206 $205 $320 forward $129 $-1 #
coedge $-1 $207 $207 $130 $208 forward $202 $-1 #
edge $-1 $321 1.3355048769757964e-015 $321 6.2831853071796022 $207 $322 forward 7 unknown #
loop $-1 $-1 $214 $131 #
plane-surface $-1 31.826141159346292 -31.486717933844588 8.9511189354449101 0 -0.83867057594974714 0.54463902268945019 1 0 0 forward_v I I I I #
loop $-1 $-1 $323 $83 #
coedge $-1 $212 $212 $213 $324 reversed $132 $-1 #
coedge $-1 $213 $213 $212 $324 forward $134 $-1 #
coedge $-1 $214 $214 $135 $215 forward $209 $-1 #
edge $-1 $325 1.3355048769757964e-015 $325 6.2831853071796022 $214 $326 forward 7 unknown #
face $-1 $327 $328 $46 $-1 $329 reversed single #
loop $-1 $-1 $330 $136 #
plane-surface $-1 -6.5160828030942213 77.757816365475264 114.08713327147574 -1 0 0 0 0.83867057594974714 0.54463902268945019 forward_v I I I I #
coedge $-1 $331 $332 $333 $334 reversed $137 $-1 #
coedge $-1 $221 $139 $335 $336 reversed $87 $-1 #
coedge $-1 $139 $220 $331 $337 reversed $87 $-1 #
coedge $-1 $333 $338 $139 $223 forward $339 $-1 #
edge $-1 $340 7.3921902488930513 $341 11.406049699285575 $222 $342 forward 7 unknown #
loop $-1 $-1 $229 $140 #
plane-surface $-1 -16.207551275115215 -2.8110726325304114 61.765086664134238 0 0.83867057594974714 0.54463902268945019 1 0 0 forward_v I I I I #
loop $-1 $-1 $343 $89 #
coedge $-1 $227 $227 $228 $344 reversed $141 $-1 #
coedge $-1 $228 $228 $227 $344 forward $143 $-1 #
coedge $-1 $229 $229 $144 $230 forward $224 $-1 #
edge $-1 $345 -4.4516829232526574e-016 $345 6.2831853071795996 $229 $346 forward 7 unknown #
loop $-1 $-1 $236 $145 #
plane-surface $-1 -16.207551275115215 -2.8110726325304114 61.765086664134238 0 0.83867057594974714 0.54463902268945019 1 0 0 forward_v I I I I #
loop $-1 $-1 $347 $92 #
coedge $-1 $234 $234 $235 $348 reversed $146 $-1 #
coedge $-1 $235 $235 $234 $348 forward $148 $-1 #
coedge $-1 $236 $236 $149 $237 forward $231 $-1 #
edge $-1 $349 -4.4516829232526574e-016 $349 6.2831853071795996 $236 $350 forward 7 unknown #
face $-1 $351 $352 $49 $-1 $353 forward single #
loop $-1 $-1 $354 $150 #
plane-surface $-1 41.517609631367286 77.757816365475264 114.08713327147574 -1 0 0 0 0.83867057594974714 0.54463902268945019 forward_v I I I I #
coedge $-1 $355 $356 $357 $358 reversed $151 $-1 #
coedge $-1 $243 $153 $359 $360 reversed $96 $-1 #
coedge $-1 $153 $242 $355 $361 reversed $96 $-1 #
coedge $-1 $357 $362 $153 $245 forward $352 $-1 #
edge $-1 $363 7.3921902488930513 $364 11.406049699285575 $244 $365 forward 7 unknown #
loop $-1 $-1 $251 $154 #
plane-surface $-1 31.826141159346292 -2.8110726325304114 61.765086664134238 0 0.83867057594974714 0.54463902268945019 1 0 0 forward_v I I I I #
loop $-1 $-1 $366 $98 #
coedge $-1 $249 $249 $250 $367 reversed $155 $-1 #
coedge $-1 $250 $250 $249 $367 forward $157 $-1 #
coedge $-1 $251 $251 $158 $252 forward $246 $-1 #
edge $-1 $368 -4.4516829232526574e-016 $368 6.2831853071795996 $251 $369 forward 7 unknown #
loop $-1 $-1 $258 $159 #
plane-surface $-1 31.826141159346292 -2.8110726325304114 61.765086664134238 0 0.83867057594974714 0.54463902268945019 1 0 0 forward_v I I I I #
loop $-1 $-1 $370 $101 #
coedge $-1 $256 $256 $257 $371 reversed $160 $-1 #
coedge $-1 $257 $257 $256 $371 forward $162 $-1 #
coedge $-1 $258 $258 $163 $259 forward $253 $-1 #
edge $-1 $372 -4.4516829232526574e-016 $372 6.2831853071795996 $258 $373 forward 7 unknown #
face $-1 $374 $375 $39 $-1 $376 reversed single #
loop $-1 $-1 $377 $164 #
plane-surface $-1 -48.0336924344615 0 0 1 0 0 0 0 -1 forward_v I I I I #
coedge $-1 $378 $271 $379 $380 forward $165 $-1 #
coedge $-1 $381 $167 $378 $382 forward $105 $-1 #
coedge $-1 $167 $381 $383 $384 forward $105 $-1 #
coedge $-1 $274 $273 $167 $267 reversed $275 $-1 #
edge $-1 $385 -31.486717933844581 $386 31.486717933844581 $266 $387 forward 7 unknown #
coedge $-1 $169 $168 $388 $389 forward $66 $-1 #
coedge $-1 $390 $391 $168 $270 reversed $375 $-1 #
edge $-1 $277 -48.0336924344615 $392 48.0336924344615 $269 $393 forward 7 unknown #
coedge $-1 $263 $394 $169 $272 reversed $165 $-1 #
edge $-1 $395 -48.0336924344615 $276 48.0336924344615 $271 $396 forward 7 unknown #
coedge $-1 $266 $170 $394 $397 forward $275 $-1 #
coedge $-1 $170 $266 $390 $398 reversed $275 $-1 #
loop $-1 $-1 $273 $374 #
vertex $-1 $171 $399 #
vertex $-1 $171 $400 #
straight-curve $-1 48.0336924344615 0 15.131920671646393 0 1 0 I I #
face $-1 $-1 $291 $40 $-1 $401 forward single #
loop $-1 $-1 $402 $172 #
plane-surface $-1 0 -31.486717933844581 0 0 1 0 0 0 1 forward_v I I I I #
coedge $-1 $403 $404 $405 $406 reversed $173 $-1 #
coedge $-1 $407 $175 $177 $289 forward $109 $-1 #
coedge $-1 $175 $407 $403 $408 forward $109 $-1 #
coedge $-1 $405 $178 $175 $286 forward $291 $-1 #
edge $-1 $293 -1.587692834463386 $409 17.795244109578601 $285 $410 forward 7 unknown #
coedge $-1 $411 $412 $176 $288 forward $280 $-1 #
edge $-1 $413 -21.685463835948283 $292 -15.504662099746811 $287 $414 forward 7 unknown #
edge $-1 $293 -7.3697610402058924 $413 -1.2808562293387176e-014 $177 $415 forward 7 unknown #
coedge $-1 $178 $405 $411 $416 forward $291 $-1 #
loop $-1 $-1 $405 $279 #
vertex $-1 $288 $417 #
vertex $-1 $179 $418 #
straight-curve $-1 -6.5160828030942213 -56.027803465925132 15.131920671646391 0 1 0 I I #
coedge $-1 $295 $295 $-1 $419 reversed $182 $-1 #
edge $-1 $420 0 $420 6.2831853071796004 $183 $421 forward 7 unknown #
vertex $-1 $186 $422 #
ellipse-curve $-1 -20.361037763124212 -29.479788208648326 12.041519803545654 0 -0.83867057594974714 0.54463902268945019 1 0 0 1 I I #
coedge $-1 $299 $299 $-1 $423 reversed $189 $-1 #
edge $-1 $424 0 $424 6.2831853071796004 $190 $425 forward 7 unknown #
vertex $-1 $193 $426 #
ellipse-curve $-1 -12.054064787106213 -29.479788208648326 12.041519803545654 0 -0.83867057594974714 0.54463902268945019 1 0 0 1 I I #
face $-1 $-1 $315 $43 $-1 $427 forward single #
loop $-1 $-1 $428 $194 #
plane-surface $-1 0 -31.486717933844581 0 0 1 0 0 0 1 forward_v I I I I #
coedge $-1 $429 $430 $431 $432 reversed $195 $-1 #
coedge $-1 $433 $197 $199 $313 forward $123 $-1 #
coedge $-1 $197 $433 $429 $434 forward $123 $-1 #
coedge $-1 $431 $200 $197 $310 forward $315 $-1 #
edge $-1 $317 -25.60453905169414 $435 -6.2216021076521528 $309 $436 forward 7 unknown #
coedge $-1 $437 $438 $198 $312 forward $304 $-1 #
edge $-1 $439 -21.685463835948283 $316 -15.504662099746811 $311 $440 forward 7 unknown #
edge $-1 $317 -7.3697610402058924 $439 -1.2808562293387176e-014 $199 $441 forward 7 unknown #
coedge $-1 $200 $431 $437 $442 forward $315 $-1 #
loop $-1 $-1 $431 $303 #
vertex $-1 $312 $443 #
vertex $-1 $201 $444 #
straight-curve $-1 41.517609631367286 -56.027803465925132 15.131920671646391 0 1 0 I I #
coedge $-1 $319 $319 $-1 $445 reversed $204 $-1 #
edge $-1 $446 0 $446 6.2831853071796004 $205 $447 forward 7 unknown #
vertex $-1 $208 $448 #
ellipse-curve $-1 27.672654671337284 -29.479788208648326 12.041519803545654 0 -0.83867057594974714 0.54463902268945019 1 0 0 1 I I #
coedge $-1 $323 $323 $-1 $449 reversed $211 $-1 #
edge $-1 $450 0 $450 6.2831853071796004 $212 $451 forward 7 unknown #
vertex $-1 $215 $452 #
ellipse-curve $-1 35.979627647355287 -29.479788208648326 12.041519803545654 0 -0.83867057594974714 0.54463902268945019 1 0 0 1 I I #
face $-1 $-1 $339 $46 $-1 $453 forward single #
loop $-1 $-1 $454 $216 #
plane-surface $-1 0 31.486717933844581 0 0 -1 0 0 0 -1 forward_v I I I I #
coedge $-1 $455 $456 $457 $458 reversed $217 $-1 #
coedge $-1 $459 $219 $221 $337 forward $137 $-1 #
coedge $-1 $219 $459 $455 $460 forward $137 $-1 #
coedge $-1 $457 $222 $219 $334 forward $339 $-1 #
edge $-1 $341 -17.795244109578601 $461 1.587692834463386 $333 $462 forward 7 unknown #
coedge $-1 $463 $464 $220 $336 forward $328 $-1 #
edge $-1 $465 -48.092447700292965 $340 -41.911645964091477 $335 $466 forward 7 unknown #
edge $-1 $341 55.603674827483268 $465 62.973435867689162 $221 $467 forward 7 unknown #
coedge $-1 $222 $457 $463 $468 forward $339 $-1 #
loop $-1 $-1 $457 $327 #
vertex $-1 $336 $469 #
vertex $-1 $223 $470 #
straight-curve $-1 -25.899019747136208 38.878908182737632 15.131920671646391 0 -1 0 I I #
coedge $-1 $343 $343 $-1 $471 reversed $226 $-1 #
edge $-1 $472 0 $472 6.2831853071796004 $227 $473 forward 7 unknown #
vertex $-1 $230 $474 #
ellipse-curve $-1 -20.361037763124212 29.479788208648312 12.041519803545651 0 0.83867057594974714 0.54463902268945019 1 0 0 1 I I #
coedge $-1 $347 $347 $-1 $475 reversed $233 $-1 #
edge $-1 $476 0 $476 6.2831853071796004 $234 $477 forward 7 unknown #
vertex $-1 $237 $478 #
ellipse-curve $-1 -12.054064787106213 29.479788208648312 12.041519803545651 0 0.83867057594974714 0.54463902268945019 1 0 0 1 I I #
face $-1 $-1 $479 $49 $-1 $480 reversed single #
loop $-1 $-1 $244 $238 #
plane-surface $-1 0 0 15.131920671646393 0 0 1 1 0 0 forward_v I I I I #
coedge $-1 $481 $482 $483 $484 reversed $239 $-1 #
coedge $-1 $485 $241 $243 $361 forward $151 $-1 #
coedge $-1 $241 $485 $481 $486 forward $151 $-1 #
coedge $-1 $483 $244 $241 $358 forward $352 $-1 #
edge $-1 $364 6.2216021076521528 $487 25.60453905169414 $357 $488 forward 7 unknown #
coedge $-1 $489 $490 $242 $360 forward $479 $-1 #
edge $-1 $491 -48.092447700292965 $363 -41.911645964091477 $359 $492 forward 7 unknown #
edge $-1 $364 55.603674827483268 $491 62.973435867689162 $243 $493 forward 7 unknown #
coedge $-1 $244 $483 $489 $494 forward $352 $-1 #
vertex $-1 $245 $495 #
vertex $-1 $245 $496 #
straight-curve $-1 22.134672687325299 38.878908182737632 15.131920671646391 0 -1 0 I I #
coedge $-1 $366 $366 $-1 $497 reversed $248 $-1 #
edge $-1 $498 0 $498 6.2831853071796004 $249 $499 forward 7 unknown #
vertex $-1 $252 $500 #
ellipse-curve $-1 27.672654671337284 29.479788208648312 12.041519803545651 0 0.83867057594974714 0.54463902268945019 1 0 0 1 I I #
coedge $-1 $370 $370 $-1 $501 reversed $255 $-1 #
edge $-1 $502 0 $502 6.2831853071796004 $256 $503 forward 7 unknown #
vertex $-1 $259 $504 #
ellipse-curve $-1 35.979627647355287 29.479788208648312 12.041519803545651 0 0.83867057594974714 0.54463902268945019 1 0 0 1 I I #
face $-1 $-1 $275 $39 $-1 $505 reversed single #
loop $-1 $-1 $390 $260 #
plane-surface $-1 0 31.486717933844581 0 0 -1 0 0 0 -1 forward_v I I I I #
coedge $-1 $506 $388 $391 $507 forward $261 $-1 #
coedge $-1 $394 $263 $264 $382 reversed $165 $-1 #
coedge $-1 $388 $506 $263 $380 reversed $261 $-1 #
edge $-1 $395 -15.131920671646393 $508 15.131920671646393 $379 $509 forward 7 unknown #
coedge $-1 $265 $264 $506 $510 forward $105 $-1 #
edge $-1 $386 -48.0336924344615 $508 48.0336924344615 $378 $511 forward 7 unknown #
coedge $-1 $391 $390 $265 $384 reversed $375 $-1 #
edge $-1 $512 -48.0336924344615 $385 48.0336924344615 $383 $513 forward 7 unknown #
vertex $-1 $267 $514 #
vertex $-1 $397 $515 #
straight-curve $-1 48.0336924344615 0 -15.131920671646393 0 -1 0 I I #
coedge $-1 $377 $379 $268 $389 reversed $261 $-1 #
edge $-1 $392 -31.486717933844581 $395 31.486717933844581 $388 $516 forward 7 unknown #
coedge $-1 $383 $269 $274 $398 forward $375 $-1 #
coedge $-1 $269 $383 $377 $507 reversed $375 $-1 #
vertex $-1 $270 $517 #
straight-curve $-1 0 31.486717933844581 15.131920671646393 -1 0 0 I I #
coedge $-1 $271 $378 $273 $397 reversed $165 $-1 #
vertex $-1 $389 $518 #
straight-curve $-1 0 -31.486717933844581 15.131920671646393 1 0 0 I I #
edge $-1 $276 -15.131920671646393 $386 15.131920671646393 $273 $519 forward 7 unknown #
edge $-1 $277 -15.131920671646393 $385 15.131920671646393 $274 $520 forward 7 unknown #
point $-1 48.0336924344615 -31.486717933844581 15.131920671646393 #
point $-1 48.0336924344615 31.486717933844581 15.131920671646393 #
plane-surface $-1 0 0 15.131920671646393 0 0 1 1 0 0 forward_v I I I I #
coedge $-1 $412 $411 $404 $521 forward $280 $-1 #
coedge $-1 $404 $282 $284 $408 reversed $173 $-1 #
coedge $-1 $282 $403 $402 $521 reversed $173 $-1 #
coedge $-1 $290 $285 $282 $406 forward $291 $-1 #
edge $-1 $409 -28.554944982473067 $522 -24.541085532080551 $405 $523 forward 7 unknown #
coedge $-1 $284 $283 $412 $524 reversed $109 $-1 #
edge $-1 $525 1.2808562293387176e-014 $409 7.3697610402058924 $403 $526 forward 7 unknown #
vertex $-1 $286 $527 #
straight-curve $-1 -8.1037756375576073 -27.472858483452065 15.131920671646393 -1 0 0 I I #
coedge $-1 $402 $287 $290 $416 reversed $280 $-1 #
coedge $-1 $287 $402 $407 $524 forward $280 $-1 #
vertex $-1 $288 $528 #
straight-curve $-1 -6.5160828030942213 -31.486717933844581 30.636582771393204 0 0 1 I I #
straight-curve $-1 -6.5160828030942213 -31.486717933844588 8.9511189354449101 0 -0.54463902268945019 -0.83867057594974714 I I #
edge $-1 $522 -25.899019747136208 $292 -6.5160828030942213 $411 $529 forward 7 unknown #
point $-1 -6.5160828030942213 -31.486717933844581 15.131920671646393 #
point $-1 -6.5160828030942213 -27.472858483452065 15.131920671646393 #
edge $-1 $530 1 $530 0 $295 $-1 forward 7 unknown #
vertex $-1 $296 $531 #
ellipse-curve $-1 -20.361037763124212 -26.696923261863802 10.23430623440731 0 -0.83867057594974714 0.54463902268945019 1 0 0 1 I I #
point $-1 -19.361037763124212 -29.479788208648316 12.041519803545649 #
edge $-1 $532 1 $532 0 $299 $-1 forward 7 unknown #
vertex $-1 $300 $533 #
ellipse-curve $-1 -12.054064787106213 -26.696923261863802 10.23430623440731 0 -0.83867057594974714 0.54463902268945019 1 0 0 1 I I #
point $-1 -11.054064787106213 -29.479788208648316 12.041519803545649 #
plane-surface $-1 0 0 15.131920671646393 0 0 1 1 0 0 forward_v I I I I #
coedge $-1 $438 $437 $430 $534 forward $304 $-1 #
coedge $-1 $430 $306 $308 $434 reversed $195 $-1 #
coedge $-1 $306 $429 $428 $534 reversed $195 $-1 #
coedge $-1 $314 $309 $306 $432 forward $315 $-1 #
edge $-1 $435 -28.554944982473067 $535 -24.541085532080551 $431 $536 forward 7 unknown #
coedge $-1 $308 $307 $438 $537 reversed $123 $-1 #
edge $-1 $538 1.2808562293387176e-014 $435 7.3697610402058924 $429 $539 forward 7 unknown #
vertex $-1 $310 $540 #
straight-curve $-1 15.913070579673146 -27.472858483452065 15.131920671646393 -1 0 0 I I #
coedge $-1 $428 $311 $314 $442 reversed $304 $-1 #
coedge $-1 $311 $428 $433 $537 forward $304 $-1 #
vertex $-1 $312 $541 #
straight-curve $-1 41.517609631367286 -31.486717933844581 30.636582771393204 0 0 1 I I #
straight-curve $-1 41.517609631367286 -31.486717933844588 8.9511189354449101 0 -0.54463902268945019 -0.83867057594974714 I I #
edge $-1 $535 22.134672687325299 $316 41.517609631367286 $437 $542 forward 7 unknown #
point $-1 41.517609631367286 -31.486717933844581 15.131920671646393 #
point $-1 41.517609631367286 -27.472858483452065 15.131920671646393 #
edge $-1 $543 1 $543 0 $319 $-1 forward 7 unknown #
vertex $-1 $320 $544 #
ellipse-curve $-1 27.672654671337284 -26.696923261863802 10.23430623440731 0 -0.83867057594974714 0.54463902268945019 1 0 0 1 I I #
point $-1 28.672654671337284 -29.479788208648316 12.041519803545649 #
edge $-1 $545 1 $545 0 $323 $-1 forward 7 unknown #
vertex $-1 $324 $546 #
ellipse-curve $-1 35.979627647355287 -26.696923261863802 10.23430623440731 0 -0.83867057594974714 0.54463902268945019 1 0 0 1 I I #
point $-1 36.979627647355287 -29.479788208648316 12.041519803545649 #
plane-surface $-1 0 0 15.131920671646393 0 0 1 1 0 0 forward_v I I I I #
coedge $-1 $464 $463 $456 $547 forward $328 $-1 #
coedge $-1 $456 $330 $332 $460 reversed $217 $-1 #
coedge $-1 $330 $455 $454 $547 reversed $217 $-1 #
coedge $-1 $338 $333 $330 $458 forward $339 $-1 #
edge $-1 $461 -11.406049699285575 $548 -7.3921902488930513 $457 $549 forward 7 unknown #
coedge $-1 $332 $331 $464 $550 reversed $137 $-1 #
edge $-1 $551 -62.973435867689162 $461 -55.603674827483268 $455 $552 forward 7 unknown #
vertex $-1 $334 $553 #
straight-curve $-1 -8.1037756375576073 27.472858483452057 15.131920671646391 1 0 0 I I #
coedge $-1 $454 $335 $338 $468 reversed $328 $-1 #
coedge $-1 $335 $454 $459 $550 forward $328 $-1 #
vertex $-1 $336 $554 #
straight-curve $-1 -25.899019747136208 31.486717933844581 57.043566635737868 0 0 1 I I #
straight-curve $-1 -25.899019747136208 -2.8110726325304114 61.765086664134238 0 0.54463902268945019 -0.83867057594974714 I I #
edge $-1 $548 6.5160828030942213 $340 25.899019747136208 $463 $555 forward 7 unknown #
point $-1 -25.899019747136208 31.486717933844581 15.131920671646393 #
point $-1 -25.899019747136208 27.472858483452057 15.131920671646391 #
edge $-1 $556 1 $556 0 $343 $-1 forward 7 unknown #
vertex $-1 $344 $557 #
ellipse-curve $-1 -20.361037763124212 26.696923261863795 10.23430623440731 0 0.83867057594974714 0.54463902268945019 1 0 0 1 I I #
point $-1 -19.361037763124212 29.479788208648309 12.041519803545649 #
edge $-1 $558 1 $558 0 $347 $-1 forward 7 unknown #
vertex $-1 $348 $559 #
ellipse-curve $-1 -12.054064787106213 26.696923261863795 10.23430623440731 0 0.83867057594974714 0.54463902268945019 1 0 0 1 I I #
point $-1 -11.054064787106213 29.479788208648309 12.041519803545649 #
loop $-1 $-1 $359 $351 #
plane-surface $-1 0 31.486717933844581 0 0 -1 0 0 0 -1 forward_v I I I I #
coedge $-1 $482 $354 $356 $486 reversed $239 $-1 #
coedge $-1 $354 $481 $560 $561 reversed $239 $-1 #
coedge $-1 $362 $357 $354 $484 forward $352 $-1 #
edge $-1 $487 -11.406049699285575 $562 -7.3921902488930513 $483 $563 forward 7 unknown #
coedge $-1 $356 $355 $490 $564 reversed $151 $-1 #
edge $-1 $565 -62.973435867689162 $487 -55.603674827483268 $481 $566 forward 7 unknown #
vertex $-1 $358 $567 #
straight-curve $-1 15.913070579673146 27.472858483452057 15.131920671646391 1 0 0 I I #
coedge $-1 $560 $359 $362 $494 reversed $479 $-1 #
coedge $-1 $359 $560 $485 $564 forward $479 $-1 #
vertex $-1 $360 $568 #
straight-curve $-1 22.134672687325299 31.486717933844581 57.043566635737868 0 0 1 I I #
straight-curve $-1 22.134672687325299 -2.8110726325304114 61.765086664134238 0 0.54463902268945019 -0.83867057594974714 I I #
edge $-1 $562 -41.517609631367286 $363 -22.134672687325299 $489 $569 forward 7 unknown #
point $-1 22.134672687325299 31.486717933844581 15.131920671646393 #
point $-1 22.134672687325299 27.472858483452057 15.131920671646391 #
edge $-1 $570 1 $570 0 $366 $-1 forward 7 unknown #
vertex $-1 $367 $571 #
ellipse-curve $-1 27.672654671337284 26.696923261863795 10.23430623440731 0 0.83867057594974714 0.54463902268945019 1 0 0 1 I I #
point $-1 28.672654671337284 29.479788208648309 12.041519803545649 #
edge $-1 $572 1 $572 0 $370 $-1 forward 7 unknown #
vertex $-1 $371 $573 #
ellipse-curve $-1 35.979627647355287 26.696923261863795 10.23430623440731 0 0.83867057594974714 0.54463902268945019 1 0 0 1 I I #
point $-1 36.979627647355287 29.479788208648309 12.041519803545649 #
plane-surface $-1 48.0336924344615 0 0 -1 0 0 0 0 1 forward_v I I I I #
coedge $-1 $379 $377 $381 $510 reversed $261 $-1 #
edge $-1 $392 -15.131920671646393 $512 15.131920671646393 $391 $574 forward 7 unknown #
vertex $-1 $510 $575 #
straight-curve $-1 -48.0336924344615 -31.486717933844581 0 0 0 -1 I I #
edge $-1 $508 -31.486717933844581 $512 31.486717933844581 $506 $576 forward 7 unknown #
straight-curve $-1 0 -31.486717933844581 -15.131920671646393 -1 0 0 I I #
vertex $-1 $384 $577 #
straight-curve $-1 0 31.486717933844581 -15.131920671646393 1 0 0 I I #
point $-1 48.0336924344615 31.486717933844581 -15.131920671646393 #
point $-1 48.0336924344615 -31.486717933844581 -15.131920671646393 #
straight-curve $-1 -48.0336924344615 0 15.131920671646393 0 -1 0 I I #
point $-1 -48.0336924344615 31.486717933844581 15.131920671646393 #
point $-1 -48.0336924344615 -31.486717933844581 15.131920671646393 #
straight-curve $-1 48.0336924344615 -31.486717933844581 0 0 0 -1 I I #
straight-curve $-1 48.0336924344615 31.486717933844581 0 0 0 -1 I I #
edge $-1 $522 15.504662099746811 $525 21.685463835948283 $402 $578 forward 7 unknown #
vertex $-1 $416 $579 #
straight-curve $-1 -25.899019747136208 -56.027803465925132 15.131920671646391 0 -1 0 I I #
edge $-1 $525 -17.795244109578601 $413 1.587692834463386 $412 $580 forward 7 unknown #
vertex $-1 $524 $581 #
straight-curve $-1 -25.899019747136208 -31.486717933844588 8.9511189354449101 0 0.54463902268945019 0.83867057594974714 I I #
point $-1 -25.899019747136208 -27.472858483452065 15.131920671646393 #
point $-1 -6.5160828030942213 -31.486717933844581 8.9511189354449208 #
straight-curve $-1 0 -31.486717933844581 15.131920671646393 1 0 0 I I #
vertex $-1 $419 $582 #
point $-1 -19.361037763124212 -26.696923261863802 10.23430623440731 #
vertex $-1 $423 $583 #
point $-1 -11.054064787106213 -26.696923261863802 10.23430623440731 #
edge $-1 $535 15.504662099746811 $538 21.685463835948283 $428 $584 forward 7 unknown #
vertex $-1 $442 $585 #
straight-curve $-1 22.134672687325299 -56.027803465925132 15.131920671646391 0 -1 0 I I #
edge $-1 $538 6.2216021076521528 $439 25.60453905169414 $438 $586 forward 7 unknown #
vertex $-1 $537 $587 #
straight-curve $-1 22.134672687325299 -31.486717933844588 8.9511189354449101 0 0.54463902268945019 0.83867057594974714 I I #
point $-1 22.134672687325299 -27.472858483452065 15.131920671646393 #
point $-1 41.517609631367286 -31.486717933844581 8.9511189354449208 #
straight-curve $-1 0 -31.486717933844581 15.131920671646393 1 0 0 I I #
vertex $-1 $445 $588 #
point $-1 28.672654671337284 -26.696923261863802 10.23430623440731 #
vertex $-1 $449 $589 #
point $-1 36.979627647355287 -26.696923261863802 10.23430623440731 #
edge $-1 $548 41.911645964091477 $551 48.092447700292965 $454 $590 forward 7 unknown #
vertex $-1 $468 $591 #
straight-curve $-1 -6.5160828030942213 38.878908182737632 15.131920671646391 0 1 0 I I #
edge $-1 $551 -1.587692834463386 $465 17.795244109578601 $464 $592 forward 7 unknown #
vertex $-1 $550 $593 #
straight-curve $-1 -6.5160828030942213 -2.8110726325304114 61.765086664134238 0 -0.54463902268945019 0.83867057594974714 I I #
point $-1 -6.5160828030942213 27.472858483452057 15.131920671646391 #
point $-1 -25.899019747136208 31.486717933844581 8.951118935444903 #
straight-curve $-1 0 31.486717933844581 15.131920671646393 -1 0 0 I I #
vertex $-1 $471 $594 #
point $-1 -19.361037763124212 26.696923261863795 10.23430623440731 #
vertex $-1 $475 $595 #
point $-1 -11.054064787106213 26.696923261863795 10.23430623440731 #
coedge $-1 $490 $489 $482 $561 forward $479 $-1 #
edge $-1 $562 41.911645964091477 $565 48.092447700292965 $560 $596 forward 7 unknown #
vertex $-1 $494 $597 #
straight-curve $-1 41.517609631367286 38.878908182737632 15.131920671646391 0 1 0 I I #
edge $-1 $565 -25.60453905169414 $491 -6.2216021076521528 $490 $598 forward 7 unknown #
vertex $-1 $564 $599 #
straight-curve $-1 41.517609631367286 -2.8110726325304114 61.765086664134238 0 -0.54463902268945019 0.83867057594974714 I I #
point $-1 41.517609631367286 27.472858483452057 15.131920671646391 #
point $-1 22.134672687325299 31.486717933844581 8.951118935444903 #
straight-curve $-1 0 31.486717933844581 15.131920671646393 -1 0 0 I I #
vertex $-1 $497 $600 #
point $-1 28.672654671337284 26.696923261863795 10.23430623440731 #
vertex $-1 $501 $601 #
point $-1 36.979627647355287 26.696923261863795 10.23430623440731 #
straight-curve $-1 -48.0336924344615 31.486717933844581 0 0 0 -1 I I #
point $-1 -48.0336924344615 -31.486717933844581 -15.131920671646393 #
straight-curve $-1 -48.0336924344615 0 -15.131920671646393 0 1 0 I I #
point $-1 -48.0336924344615 31.486717933844581 -15.131920671646393 #
straight-curve $-1 -25.899019747136208 -31.486717933844581 30.636582771393204 0 0 -1 I I #
point $-1 -25.899019747136208 -31.486717933844581 15.131920671646393 #
straight-curve $-1 -8.1037756375576073 -31.486717933844581 8.9511189354449261 1 0 0 I I #
point $-1 -25.899019747136208 -31.486717933844581 8.9511189354449208 #
point $-1 -20.361037763124212 -25.858252685914053 9.6896672117178611 #
point $-1 -12.054064787106213 -25.858252685914053 9.6896672117178611 #
straight-curve $-1 22.134672687325299 -31.486717933844581 30.636582771393204 0 0 -1 I I #
point $-1 22.134672687325299 -31.486717933844581 15.131920671646393 #
straight-curve $-1 15.913070579673146 -31.486717933844581 8.9511189354449261 1 0 0 I I #
point $-1 22.134672687325299 -31.486717933844581 8.9511189354449208 #
point $-1 27.672654671337284 -25.858252685914053 9.6896672117178611 #
point $-1 35.979627647355287 -25.858252685914053 9.6896672117178611 #
straight-curve $-1 -6.5160828030942213 31.486717933844581 57.043566635737868 0 0 -1 I I #
point $-1 -6.5160828030942213 31.486717933844581 15.131920671646393 #
straight-curve $-1 -8.1037756375576073 31.486717933844581 8.9511189354449101 -1 0 0 I I #
point $-1 -6.5160828030942213 31.486717933844581 8.951118935444903 #
point $-1 -20.361037763124212 25.858252685914046 9.6896672117178611 #
point $-1 -12.054064787106213 25.858252685914046 9.6896672117178611 #
straight-curve $-1 41.517609631367286 31.486717933844581 57.043566635737868 0 0 -1 I I #
point $-1 41.517609631367286 31.486717933844581 15.131920671646393 #
straight-curve $-1 15.913070579673146 31.486717933844581 8.9511189354449101 -1 0 0 I I #
point $-1 41.517609631367286 31.486717933844581 8.951118935444903 #
point $-1 27.672654671337284 25.858252685914046 9.6896672117178611 #
point $-1 35.979627647355287 25.858252685914046 9.6896672117178611 #
End-of-ACIS-data 