500 0 11 0           
7 Unknown 11 ACIS 5.0 NT 24 Thu Mar 25 17:19:57 1999 
-1 9.9999999999999995e-007 1e-010 
body $-1 $11 $-1 $12 #
body $-1 $13 $-1 $14 #
body $-1 $15 $-1 $16 #
body $-1 $17 $-1 $18 #
body $-1 $19 $-1 $20 #
body $-1 $21 $-1 $22 #
body $-1 $23 $-1 $24 #
body $-1 $25 $-1 $26 #
body $-1 $27 $-1 $28 #
body $-1 $29 $-1 $30 #
body $-1 $31 $-1 $32 #
lump $-1 $-1 $33 $0 #
transform $-1 1 0 0 0 1 0 0 0 1 59.646595660267948 40.871761600390521 12.676021304599402 1 rotate no_reflect no_shear #
lump $-1 $-1 $34 $1 #
transform $-1 1 0 0 0 1 0 0 0 1 59.646595660267948 40.871761600390521 12.676021304599402 1 rotate no_reflect no_shear #
lump $-1 $-1 $35 $2 #
transform $-1 1 0 0 0 1 0 0 0 1 59.646595660267948 40.871761600390521 12.676021304599402 1 rotate no_reflect no_shear #
lump $-1 $-1 $36 $3 #
transform $-1 1 0 0 0 1 0 0 0 1 59.646595660267948 40.871761600390521 12.676021304599402 1 rotate no_reflect no_shear #
lump $-1 $-1 $37 $4 #
transform $-1 1 0 0 0 1 0 0 0 1 59.646595660267948 40.871761600390521 12.676021304599402 1 rotate no_reflect no_shear #
lump $-1 $-1 $38 $5 #
transform $-1 1 0 0 0 1 0 0 0 1 59.646595660267948 40.871761600390521 12.676021304599402 1 rotate no_reflect no_shear #
lump $-1 $-1 $39 $6 #
transform $-1 1 0 0 0 1 0 0 0 1 59.646595660267948 40.871761600390521 12.676021304599402 1 rotate no_reflect no_shear #
lump $-1 $-1 $40 $7 #
transform $-1 1 0 0 0 1 0 0 0 1 59.646595660267948 40.871761600390521 12.676021304599402 1 rotate no_reflect no_shear #
lump $-1 $-1 $41 $8 #
transform $-1 1 0 0 0 1 0 0 0 1 59.646595660267948 40.871761600390521 12.676021304599402 1 rotate no_reflect no_shear #
lump $-1 $-1 $42 $9 #
transform $-1 1 0 0 0 1 0 0 0 1 59.646595660267948 40.871761600390521 12.676021304599402 1 rotate no_reflect no_shear #
lump $-1 $-1 $43 $10 #
transform $-1 1 0 0 0 1 0 0 0 1 59.646595660267948 40.871761600390521 12.676021304599402 1 rotate no_reflect no_shear #
shell $-1 $-1 $-1 $44 $-1 $11 #
shell $-1 $-1 $-1 $45 $-1 $13 #
shell $-1 $-1 $-1 $46 $-1 $15 #
shell $-1 $-1 $-1 $47 $-1 $17 #
shell $-1 $-1 $-1 $48 $-1 $19 #
shell $-1 $-1 $-1 $49 $-1 $21 #
shell $-1 $-1 $-1 $50 $-1 $23 #
shell $-1 $-1 $-1 $51 $-1 $25 #
shell $-1 $-1 $-1 $52 $-1 $27 #
shell $-1 $-1 $-1 $53 $-1 $29 #
shell $-1 $-1 $-1 $54 $-1 $31 #
face $-1 $55 $56 $33 $-1 $57 forward single #
face $-1 $58 $59 $34 $-1 $60 reversed single #
face $-1 $61 $62 $35 $-1 $63 reversed single #
face $-1 $64 $65 $36 $-1 $66 forward single #
face $-1 $67 $68 $37 $-1 $69 forward single #
face $-1 $70 $71 $38 $-1 $72 reversed single #
face $-1 $73 $74 $39 $-1 $75 forward single #
face $-1 $76 $77 $40 $-1 $78 forward single #
face $-1 $79 $80 $41 $-1 $81 reversed single #
face $-1 $82 $83 $42 $-1 $84 forward single #
face $-1 $85 $86 $43 $-1 $87 forward single #
face $-1 $88 $89 $33 $-1 $90 reversed single #
loop $-1 $-1 $91 $44 #
plane-surface $-1 0 0 12.676021304599402 0 0 1 1 0 0 forward_v I I I I #
face $-1 $92 $93 $34 $-1 $94 reversed single #
loop $-1 $-1 $95 $45 #
plane-surface $-1 -54.398172734804895 -35.871218780250963 0 0 -1 0 0 0 -1 forward_v I I I I #
face $-1 $96 $97 $35 $-1 $98 reversed single #
loop $-1 $-1 $99 $46 #
plane-surface $-1 -46.165384883506675 77.274901256168164 148.18121835310083 1 0 0 0 -0.75470958851134928 -0.65605901945558964 forward_v I I I I #
face $-1 $100 $101 $36 $-1 $102 forward single #
loop $-1 $103 $104 $47 #
cone-surface $-1 -42.110157385641301 38.159647879715401 9.7746615557487768 0 -0.75470958851134928 -0.65605901945558964 1 0 0 1 I I 0 1 1 forward I I I I #
face $-1 $105 $106 $37 $-1 $107 forward single #
loop $-1 $108 $109 $48 #
cone-surface $-1 -36.027316138843247 38.159647879715401 9.7746615557487768 0 -0.75470958851134928 -0.65605901945558964 1 0 0 1 I I 0 1 1 forward I I I I #
face $-1 $110 $111 $38 $-1 $112 reversed single #
loop $-1 $-1 $113 $49 #
plane-surface $-1 5.2484229254630606 -112.66419720572151 101.94078234854928 -1 0 0 0 -0.6018150307709319 0.79863550430605224 forward_v I I I I #
face $-1 $114 $115 $39 $-1 $116 forward single #
loop $-1 $117 $118 $50 #
cone-surface $-1 -8.3505866382256428 -36.030239438302388 8.5369183080176168 0 0.6018150307709319 -0.79863550430605224 1 0 0 1 I I 0 1 1 forward I I I I #
face $-1 $119 $120 $40 $-1 $121 forward single #
loop $-1 $122 $123 $51 #
cone-surface $-1 -0.19118090001242649 -36.030239438302388 8.5369183080176168 0 0.6018150307709319 -0.79863550430605224 1 0 0 1 I I 0 1 1 forward I I I I #
face $-1 $124 $125 $41 $-1 $126 reversed single #
loop $-1 $-1 $127 $52 #
plane-surface $-1 50.127288965685864 -40.871761600390528 6.6690043379947213 0 -0.6018150307709319 0.79863550430605224 1 0 0 forward_v I I I I #
face $-1 $128 $129 $42 $-1 $130 forward single #
loop $-1 $131 $132 $53 #
cone-surface $-1 46.047586096579252 -36.030239438302388 8.5369183080176168 0 0.6018150307709319 -0.79863550430605224 1 0 0 1 I I 0 1 1 forward I I I I #
face $-1 $133 $134 $43 $-1 $135 forward single #
loop $-1 $136 $137 $54 #
cone-surface $-1 54.206991834792476 -36.030239438302388 8.5369183080176168 0 0.6018150307709319 -0.79863550430605224 1 0 0 1 I I 0 1 1 forward I I I I #
face $-1 $138 $139 $33 $-1 $140 reversed single #
loop $-1 $-1 $141 $55 #
plane-surface $-1 0 0 -12.676021304599402 0 0 1 1 0 0 forward_v I I I I #
coedge $-1 $142 $143 $144 $145 forward $56 $-1 #
face $-1 $146 $147 $34 $-1 $148 forward single #
loop $-1 $-1 $149 $58 #
plane-surface $-1 -49.149749809341841 -38.371490190320742 0 -1 0 0 0 0 1 forward_v I I I I #
coedge $-1 $150 $151 $152 $153 forward $59 $-1 #
face $-1 $154 $155 $35 $-1 $156 reversed single #
loop $-1 $-1 $157 $61 #
plane-surface $-1 -39.068736762242281 -12.756814077559142 69.917844227621998 0 0.75470958851134928 0.65605901945558964 1 0 0 forward_v I I I I #
coedge $-1 $158 $159 $160 $161 reversed $62 $-1 #
face $-1 $-1 $162 $36 $-1 $163 forward single #
loop $-1 $164 $165 $64 #
cone-surface $-1 -42.110157385641301 37.004689080890138 8.7706712148237358 0 -0.75470958851134928 -0.65605901945558964 0.5 0 0 1 I I -0.70710678118654746 0.70710678118654746 0.5 forward I I I I #
loop $-1 $-1 $166 $47 #
coedge $-1 $104 $104 $167 $168 reversed $65 $-1 #
face $-1 $-1 $169 $37 $-1 $170 forward single #
loop $-1 $171 $172 $67 #
cone-surface $-1 -36.027316138843247 37.004689080890138 8.7706712148237358 0 -0.75470958851134928 -0.65605901945558964 0.5 0 0 1 I I -0.70710678118654746 0.70710678118654746 0.5 forward I I I I #
loop $-1 $-1 $173 $48 #
coedge $-1 $109 $109 $174 $175 reversed $68 $-1 #
face $-1 $176 $177 $38 $-1 $178 reversed single #
loop $-1 $-1 $179 $70 #
plane-surface $-1 -4.2708837691190311 -40.871761600390528 6.6690043379947213 0 -0.6018150307709319 0.79863550430605224 1 0 0 forward_v I I I I #
coedge $-1 $180 $181 $182 $183 reversed $71 $-1 #
face $-1 $-1 $184 $39 $-1 $185 forward single #
loop $-1 $186 $187 $73 #
cone-surface $-1 -8.3505866382256428 -34.873600061175559 7.002006042585144 0 0.6018150307709319 -0.79863550430605224 0.5 0 0 1 I I -0.70710678118654746 0.70710678118654746 0.5 forward I I I I #
loop $-1 $-1 $188 $50 #
coedge $-1 $118 $118 $189 $190 reversed $74 $-1 #
face $-1 $-1 $191 $40 $-1 $192 forward single #
loop $-1 $193 $194 $76 #
cone-surface $-1 -0.19118090001242649 -34.873600061175559 7.002006042585144 0 0.6018150307709319 -0.79863550430605224 0.5 0 0 1 I I -0.70710678118654746 0.70710678118654746 0.5 forward I I I I #
loop $-1 $-1 $195 $51 #
coedge $-1 $123 $123 $196 $197 reversed $77 $-1 #
face $-1 $198 $199 $41 $-1 $200 reversed single #
loop $-1 $-1 $201 $79 #
plane-surface $-1 40.607982271103772 -112.66419720572151 101.94078234854928 1 0 0 0 0.6018150307709319 -0.79863550430605224 forward_v I I I I #
coedge $-1 $202 $203 $204 $205 reversed $80 $-1 #
face $-1 $-1 $206 $42 $-1 $207 forward single #
loop $-1 $208 $209 $82 #
cone-surface $-1 46.047586096579252 -34.873600061175559 7.002006042585144 0 0.6018150307709319 -0.79863550430605224 0.5 0 0 1 I I -0.70710678118654746 0.70710678118654746 0.5 forward I I I I #
loop $-1 $-1 $210 $53 #
coedge $-1 $132 $132 $211 $212 reversed $83 $-1 #
face $-1 $-1 $213 $43 $-1 $214 forward single #
loop $-1 $215 $216 $85 #
cone-surface $-1 54.206991834792476 -34.873600061175559 7.002006042585144 0 0.6018150307709319 -0.79863550430605224 0.5 0 0 1 I I -0.70710678118654746 0.70710678118654746 0.5 forward I I I I #
loop $-1 $-1 $217 $54 #
coedge $-1 $137 $137 $218 $219 reversed $86 $-1 #
face $-1 $220 $221 $33 $-1 $222 reversed single #
loop $-1 $-1 $223 $88 #
plane-surface $-1 0 -40.871761600390521 0 0 1 0 0 0 1 forward_v I I I I #
coedge $-1 $224 $225 $226 $227 forward $89 $-1 #
coedge $-1 $228 $91 $229 $230 forward $56 $-1 #
coedge $-1 $91 $228 $231 $232 forward $56 $-1 #
coedge $-1 $233 $234 $91 $145 reversed $235 $-1 #
edge $-1 $236 -40.871761600390521 $237 40.871761600390521 $144 $238 forward 7 unknown #
face $-1 $239 $240 $34 $-1 $241 reversed single #
loop $-1 $-1 $242 $92 #
plane-surface $-1 0 0 12.676021304599402 0 0 1 1 0 0 forward_v I I I I #
coedge $-1 $243 $244 $245 $246 reversed $93 $-1 #
coedge $-1 $247 $95 $248 $249 reversed $59 $-1 #
coedge $-1 $95 $247 $250 $251 reversed $59 $-1 #
coedge $-1 $244 $243 $95 $153 reversed $93 $-1 #
edge $-1 $252 -12.676021304599402 $253 12.676021304599402 $152 $254 forward 7 unknown #
face $-1 $255 $256 $35 $-1 $257 reversed single #
loop $-1 $-1 $258 $96 #
plane-surface $-1 -31.972088640977884 77.274901256168164 148.18121835310083 -1 0 0 0 0.75470958851134928 0.65605901945558964 forward_v I I I I #
coedge $-1 $259 $260 $261 $262 reversed $97 $-1 #
coedge $-1 $159 $99 $263 $264 reversed $62 $-1 #
coedge $-1 $99 $158 $259 $265 reversed $62 $-1 #
coedge $-1 $261 $266 $99 $161 forward $267 $-1 #
edge $-1 $268 -2.2343109723064387 $269 1.6347084599046511 $160 $270 forward 7 unknown #
loop $-1 $-1 $167 $100 #
plane-surface $-1 -39.068736762242281 -12.756814077559142 69.917844227621998 0 0.75470958851134928 0.65605901945558964 1 0 0 forward_v I I I I #
loop $-1 $-1 $271 $64 #
coedge $-1 $165 $165 $166 $272 reversed $101 $-1 #
coedge $-1 $166 $166 $165 $272 forward $103 $-1 #
coedge $-1 $167 $167 $104 $168 forward $162 $-1 #
edge $-1 $273 -4.0831759830495707e-015 $273 6.283185307179596 $167 $274 forward 7 unknown #
loop $-1 $-1 $174 $105 #
plane-surface $-1 -39.068736762242281 -12.756814077559142 69.917844227621998 0 0.75470958851134928 0.65605901945558964 1 0 0 forward_v I I I I #
loop $-1 $-1 $275 $67 #
coedge $-1 $172 $172 $173 $276 reversed $106 $-1 #
coedge $-1 $173 $173 $172 $276 forward $108 $-1 #
coedge $-1 $174 $174 $109 $175 forward $169 $-1 #
edge $-1 $277 -4.0831759830495707e-015 $277 6.283185307179596 $174 $278 forward 7 unknown #
face $-1 $279 $280 $38 $-1 $281 forward single #
loop $-1 $-1 $282 $110 #
plane-surface $-1 -13.790190463701123 -112.66419720572151 101.94078234854928 1 0 0 0 0.6018150307709319 -0.79863550430605224 forward_v I I I I #
coedge $-1 $283 $284 $285 $286 reversed $111 $-1 #
coedge $-1 $181 $113 $287 $288 reversed $71 $-1 #
coedge $-1 $113 $180 $283 $289 reversed $71 $-1 #
coedge $-1 $285 $290 $113 $183 forward $280 $-1 #
edge $-1 $291 15.460337002470233 $292 23.431917603163754 $182 $293 forward 7 unknown #
loop $-1 $-1 $189 $114 #
plane-surface $-1 -4.2708837691190311 -40.871761600390528 6.6690043379947213 0 -0.6018150307709319 0.79863550430605224 1 0 0 forward_v I I I I #
loop $-1 $-1 $294 $73 #
coedge $-1 $187 $187 $188 $295 reversed $115 $-1 #
coedge $-1 $188 $188 $187 $295 forward $117 $-1 #
coedge $-1 $189 $189 $118 $190 forward $184 $-1 #
edge $-1 $296 3.5365700691200621e-015 $296 6.283185307179604 $189 $297 forward 7 unknown #
loop $-1 $-1 $196 $119 #
plane-surface $-1 -4.2708837691190311 -40.871761600390528 6.6690043379947213 0 -0.6018150307709319 0.79863550430605224 1 0 0 forward_v I I I I #
loop $-1 $-1 $298 $76 #
coedge $-1 $194 $194 $195 $299 reversed $120 $-1 #
coedge $-1 $195 $195 $194 $299 forward $122 $-1 #
coedge $-1 $196 $196 $123 $197 forward $191 $-1 #
edge $-1 $300 3.5365700691200621e-015 $300 6.283185307179604 $196 $301 forward 7 unknown #
face $-1 $302 $303 $41 $-1 $304 forward single #
loop $-1 $-1 $305 $124 #
plane-surface $-1 0 -40.871761600390521 0 0 1 0 0 0 1 forward_v I I I I #
coedge $-1 $306 $307 $308 $309 reversed $125 $-1 #
coedge $-1 $310 $127 $311 $312 reversed $80 $-1 #
coedge $-1 $127 $310 $306 $313 forward $80 $-1 #
coedge $-1 $308 $314 $127 $205 forward $303 $-1 #
edge $-1 $315 -34.582951177425024 $316 -15.54433778826084 $204 $317 forward 7 unknown #
loop $-1 $-1 $211 $128 #
plane-surface $-1 50.127288965685864 -40.871761600390528 6.6690043379947213 0 -0.6018150307709319 0.79863550430605224 1 0 0 forward_v I I I I #
loop $-1 $-1 $318 $82 #
coedge $-1 $209 $209 $210 $319 reversed $129 $-1 #
coedge $-1 $210 $210 $209 $319 forward $131 $-1 #
coedge $-1 $211 $211 $132 $212 forward $206 $-1 #
edge $-1 $320 3.5365700691200621e-015 $320 6.283185307179604 $211 $321 forward 7 unknown #
loop $-1 $-1 $218 $133 #
plane-surface $-1 50.127288965685864 -40.871761600390528 6.6690043379947213 0 -0.6018150307709319 0.79863550430605224 1 0 0 forward_v I I I I #
loop $-1 $-1 $322 $85 #
coedge $-1 $216 $216 $217 $323 reversed $134 $-1 #
coedge $-1 $217 $217 $216 $323 forward $136 $-1 #
coedge $-1 $218 $218 $137 $219 forward $213 $-1 #
edge $-1 $324 3.5365700691200621e-015 $324 6.283185307179604 $218 $325 forward 7 unknown #
face $-1 $326 $327 $33 $-1 $328 reversed single #
loop $-1 $-1 $329 $138 #
plane-surface $-1 -59.646595660267948 0 0 1 0 0 0 0 -1 forward_v I I I I #
coedge $-1 $330 $231 $331 $332 forward $139 $-1 #
coedge $-1 $333 $141 $330 $334 forward $89 $-1 #
coedge $-1 $141 $333 $335 $336 forward $89 $-1 #
coedge $-1 $234 $233 $141 $227 reversed $235 $-1 #
edge $-1 $337 -40.871761600390521 $338 40.871761600390521 $226 $339 forward 7 unknown #
coedge $-1 $143 $142 $340 $341 forward $56 $-1 #
coedge $-1 $342 $343 $142 $230 reversed $327 $-1 #
edge $-1 $237 -59.646595660267948 $344 59.646595660267948 $229 $345 forward 7 unknown #
coedge $-1 $223 $346 $143 $232 reversed $139 $-1 #
edge $-1 $347 -59.646595660267948 $236 59.646595660267948 $231 $348 forward 7 unknown #
coedge $-1 $226 $144 $346 $349 forward $235 $-1 #
coedge $-1 $144 $226 $342 $350 reversed $235 $-1 #
loop $-1 $-1 $233 $326 #
vertex $-1 $145 $351 #
vertex $-1 $145 $352 #
straight-curve $-1 59.646595660267948 0 12.676021304599402 0 1 0 I I #
face $-1 $353 $354 $34 $-1 $355 reversed single #
loop $-1 $-1 $356 $146 #
plane-surface $-1 -59.646595660267948 0 0 1 0 0 0 0 -1 forward_v I I I I #
coedge $-1 $250 $357 $244 $358 forward $147 $-1 #
coedge $-1 $152 $149 $359 $360 reversed $93 $-1 #
coedge $-1 $149 $152 $242 $358 reversed $93 $-1 #
coedge $-1 $361 $362 $149 $246 forward $363 $-1 #
edge $-1 $364 -12.676021304599402 $365 12.676021304599402 $245 $366 forward 7 unknown #
coedge $-1 $151 $150 $356 $367 reversed $59 $-1 #
coedge $-1 $359 $368 $150 $249 forward $354 $-1 #
edge $-1 $369 -32.447509292865504 $253 -21.950663441939394 $248 $370 forward 7 unknown #
coedge $-1 $371 $242 $151 $251 forward $147 $-1 #
edge $-1 $252 21.950663441939394 $372 32.447509292865504 $250 $373 forward 7 unknown #
vertex $-1 $251 $374 #
vertex $-1 $249 $375 #
straight-curve $-1 -49.149749809341841 -35.871218780250963 0 0 0 -1 I I #
face $-1 $-1 $267 $35 $-1 $376 forward single #
loop $-1 $-1 $377 $154 #
plane-surface $-1 0 40.871761600390521 0 0 -1 0 0 0 -1 forward_v I I I I #
coedge $-1 $378 $379 $380 $381 reversed $155 $-1 #
coedge $-1 $382 $157 $159 $265 forward $97 $-1 #
coedge $-1 $157 $382 $378 $383 forward $97 $-1 #
coedge $-1 $380 $160 $157 $262 forward $267 $-1 #
edge $-1 $269 -26.631016502385535 $384 -12.437720259856743 $261 $385 forward 7 unknown #
coedge $-1 $386 $387 $158 $264 forward $256 $-1 #
edge $-1 $388 -65.865385707257815 $268 -61.414587871951014 $263 $389 forward 7 unknown #
edge $-1 $269 75.846158302998433 $388 81.74352320078107 $159 $390 forward 7 unknown #
coedge $-1 $160 $380 $386 $391 forward $267 $-1 #
loop $-1 $-1 $380 $255 #
vertex $-1 $264 $392 #
vertex $-1 $161 $393 #
straight-curve $-1 -46.165384883506675 38.637450628084082 12.676021304599402 0 -1 0 I I #
coedge $-1 $271 $271 $-1 $394 reversed $164 $-1 #
edge $-1 $395 0 $395 6.2831853071796004 $165 $396 forward 7 unknown #
vertex $-1 $168 $397 #
ellipse-curve $-1 -42.110157385641301 38.937251884284969 10.450622386946003 0 0.75470958851134928 0.65605901945558964 1 0 0 1 I I #
coedge $-1 $275 $275 $-1 $398 reversed $171 $-1 #
edge $-1 $399 0 $399 6.2831853071796004 $172 $400 forward 7 unknown #
vertex $-1 $175 $401 #
ellipse-curve $-1 -36.027316138843247 38.937251884284969 10.450622386946003 0 0.75470958851134928 0.65605901945558964 1 0 0 1 I I #
face $-1 $-1 $402 $38 $-1 $403 reversed single #
loop $-1 $-1 $182 $176 #
plane-surface $-1 0 0 12.676021304599402 0 0 1 1 0 0 forward_v I I I I #
coedge $-1 $404 $405 $406 $407 reversed $177 $-1 #
coedge $-1 $408 $179 $181 $289 forward $111 $-1 #
coedge $-1 $179 $408 $404 $409 forward $111 $-1 #
coedge $-1 $406 $182 $179 $286 forward $280 $-1 #
edge $-1 $292 -7.3838648100225761 $410 11.654748579141607 $285 $411 forward 7 unknown #
coedge $-1 $412 $413 $180 $288 forward $402 $-1 #
edge $-1 $414 -44.30138683627991 $291 -38.294369869675236 $287 $415 forward 7 unknown #
edge $-1 $292 -9.9815003937499238 $414 -8.8817612989391469e-015 $181 $416 forward 7 unknown #
coedge $-1 $182 $406 $412 $417 forward $280 $-1 #
vertex $-1 $183 $418 #
vertex $-1 $183 $419 #
straight-curve $-1 5.2484229254630606 -56.332098602860754 12.676021304599402 0 1 0 I I #
coedge $-1 $294 $294 $-1 $420 reversed $186 $-1 #
edge $-1 $421 0 $421 6.2831853071796004 $187 $422 forward 7 unknown #
vertex $-1 $190 $423 #
ellipse-curve $-1 -8.3505866382256428 -36.885971300043757 9.672512821297067 0 -0.6018150307709319 0.79863550430605224 1 0 0 1 I I #
coedge $-1 $298 $298 $-1 $424 reversed $193 $-1 #
edge $-1 $425 0 $425 6.2831853071796004 $194 $426 forward 7 unknown #
vertex $-1 $197 $427 #
ellipse-curve $-1 -0.19118090001242649 -36.885971300043757 9.672512821297067 0 -0.6018150307709319 0.79863550430605224 1 0 0 1 I I #
face $-1 $-1 $428 $41 $-1 $429 reversed single #
loop $-1 $-1 $308 $198 #
plane-surface $-1 0 0 12.676021304599402 0 0 1 1 0 0 forward_v I I I I #
coedge $-1 $430 $431 $307 $432 forward $199 $-1 #
coedge $-1 $307 $201 $203 $313 reversed $125 $-1 #
coedge $-1 $201 $306 $305 $432 reversed $125 $-1 #
coedge $-1 $433 $204 $201 $309 forward $303 $-1 #
edge $-1 $316 -23.431917603163754 $434 -15.460337002470233 $308 $435 forward 7 unknown #
coedge $-1 $203 $202 $430 $436 reversed $80 $-1 #
coedge $-1 $437 $438 $202 $312 forward $428 $-1 #
edge $-1 $439 -14.314066443361423 $315 -4.3325660496115068 $311 $440 forward 7 unknown #
edge $-1 $441 8.8817612989391469e-015 $316 9.9815003937499238 $306 $442 forward 7 unknown #
coedge $-1 $204 $433 $437 $443 forward $303 $-1 #
vertex $-1 $312 $444 #
vertex $-1 $205 $445 #
straight-curve $-1 25.063644482842932 -32.900180999696993 12.676021304599402 -1 0 0 I I #
coedge $-1 $318 $318 $-1 $446 reversed $208 $-1 #
edge $-1 $447 0 $447 6.2831853071796004 $209 $448 forward 7 unknown #
vertex $-1 $212 $449 #
ellipse-curve $-1 46.047586096579252 -36.885971300043757 9.672512821297067 0 -0.6018150307709319 0.79863550430605224 1 0 0 1 I I #
coedge $-1 $322 $322 $-1 $450 reversed $215 $-1 #
edge $-1 $451 0 $451 6.2831853071796004 $216 $452 forward 7 unknown #
vertex $-1 $219 $453 #
ellipse-curve $-1 54.206991834792476 -36.885971300043757 9.672512821297067 0 -0.6018150307709319 0.79863550430605224 1 0 0 1 I I #
face $-1 $-1 $235 $33 $-1 $454 reversed single #
loop $-1 $-1 $342 $220 #
plane-surface $-1 0 40.871761600390521 0 0 -1 0 0 0 -1 forward_v I I I I #
coedge $-1 $455 $340 $343 $456 forward $221 $-1 #
coedge $-1 $346 $223 $224 $334 reversed $139 $-1 #
coedge $-1 $340 $455 $223 $332 reversed $221 $-1 #
edge $-1 $347 -12.676021304599402 $457 12.676021304599402 $331 $458 forward 7 unknown #
coedge $-1 $225 $224 $455 $459 forward $89 $-1 #
edge $-1 $338 -59.646595660267948 $457 59.646595660267948 $330 $460 forward 7 unknown #
coedge $-1 $343 $342 $225 $336 reversed $327 $-1 #
edge $-1 $461 -59.646595660267948 $337 59.646595660267948 $335 $462 forward 7 unknown #
vertex $-1 $227 $463 #
vertex $-1 $349 $464 #
straight-curve $-1 59.646595660267948 0 -12.676021304599402 0 -1 0 I I #
coedge $-1 $329 $331 $228 $341 reversed $221 $-1 #
edge $-1 $344 -40.871761600390521 $347 40.871761600390521 $340 $465 forward 7 unknown #
coedge $-1 $335 $229 $234 $350 forward $327 $-1 #
coedge $-1 $229 $335 $329 $456 reversed $327 $-1 #
vertex $-1 $230 $466 #
straight-curve $-1 0 40.871761600390521 12.676021304599402 -1 0 0 I I #
coedge $-1 $231 $330 $233 $349 reversed $139 $-1 #
vertex $-1 $341 $467 #
straight-curve $-1 0 -40.871761600390521 12.676021304599402 1 0 0 I I #
edge $-1 $236 -12.676021304599402 $338 12.676021304599402 $233 $468 forward 7 unknown #
edge $-1 $237 -12.676021304599402 $337 12.676021304599402 $234 $469 forward 7 unknown #
point $-1 59.646595660267948 -40.871761600390521 12.676021304599402 #
point $-1 59.646595660267948 40.871761600390521 12.676021304599402 #
face $-1 $-1 $363 $34 $-1 $470 reversed single #
loop $-1 $-1 $359 $239 #
plane-surface $-1 0 0 -12.676021304599402 0 0 1 1 0 0 forward_v I I I I #
coedge $-1 $471 $472 $247 $367 forward $240 $-1 #
coedge $-1 $242 $371 $361 $473 forward $147 $-1 #
edge $-1 $365 -21.68601650523015 $252 -16.685473685090592 $242 $474 forward 7 unknown #
coedge $-1 $475 $248 $243 $360 forward $354 $-1 #
edge $-1 $253 16.685473685090592 $364 21.68601650523015 $359 $476 forward 7 unknown #
coedge $-1 $477 $245 $357 $473 reversed $363 $-1 #
coedge $-1 $245 $477 $475 $478 reversed $363 $-1 #
loop $-1 $-1 $245 $353 #
vertex $-1 $478 $479 #
vertex $-1 $246 $480 #
straight-curve $-1 -49.149749809341841 -40.871761600390521 0 0 0 1 I I #
edge $-1 $372 -12.676021304599402 $369 12.676021304599402 $356 $481 forward 7 unknown #
coedge $-1 $248 $475 $471 $482 forward $354 $-1 #
vertex $-1 $249 $483 #
straight-curve $-1 -27.199086367402447 -35.871218780250963 -12.676021304599402 1 0 0 I I #
coedge $-1 $357 $250 $472 $484 forward $147 $-1 #
vertex $-1 $484 $485 #
straight-curve $-1 -27.199086367402447 -35.871218780250963 12.676021304599402 -1 0 0 I I #
point $-1 -49.149749809341841 -35.871218780250963 12.676021304599402 #
point $-1 -49.149749809341841 -35.871218780250963 -12.676021304599402 #
plane-surface $-1 0 0 12.676021304599402 0 0 1 1 0 0 forward_v I I I I #
coedge $-1 $387 $386 $379 $486 forward $256 $-1 #
coedge $-1 $379 $258 $260 $383 reversed $155 $-1 #
coedge $-1 $258 $378 $377 $486 reversed $155 $-1 #
coedge $-1 $266 $261 $258 $381 forward $267 $-1 #
edge $-1 $384 -1.6347084599046511 $487 2.2343109723064387 $380 $488 forward 7 unknown #
coedge $-1 $260 $259 $387 $489 reversed $97 $-1 #
edge $-1 $490 -81.74352320078107 $384 -75.846158302998433 $378 $491 forward 7 unknown #
vertex $-1 $262 $492 #
straight-curve $-1 -19.534368381121141 37.002742168179424 12.676021304599402 1 0 0 I I #
coedge $-1 $377 $263 $266 $391 reversed $256 $-1 #
coedge $-1 $263 $377 $382 $489 forward $256 $-1 #
vertex $-1 $264 $493 #
straight-curve $-1 -46.165384883506675 40.871761600390521 74.090609176550416 0 0 1 I I #
straight-curve $-1 -46.165384883506675 -12.756814077559142 69.917844227621998 0 0.65605901945558964 -0.75470958851134928 I I #
edge $-1 $487 31.972088640977884 $268 46.165384883506675 $386 $494 forward 7 unknown #
point $-1 -46.165384883506675 40.871761600390521 12.676021304599402 #
point $-1 -46.165384883506675 37.002742168179431 12.676021304599409 #
edge $-1 $495 1 $495 0 $271 $-1 forward 7 unknown #
vertex $-1 $272 $496 #
ellipse-curve $-1 -42.110157385641301 37.382043875145811 9.0987007245515308 0 0.75470958851134928 0.65605901945558964 1 0 0 1 I I #
point $-1 -41.110157385641301 38.937251884284983 10.450622386946021 #
edge $-1 $497 1 $497 0 $275 $-1 forward 7 unknown #
vertex $-1 $276 $498 #
ellipse-curve $-1 -36.027316138843247 37.382043875145811 9.0987007245515308 0 0.75470958851134928 0.65605901945558964 1 0 0 1 I I #
point $-1 -35.027316138843247 38.937251884284983 10.450622386946021 #
loop $-1 $-1 $287 $279 #
plane-surface $-1 0 -40.871761600390521 0 0 1 0 0 0 1 forward_v I I I I #
coedge $-1 $405 $282 $284 $409 reversed $177 $-1 #
coedge $-1 $282 $404 $499 $500 reversed $177 $-1 #
coedge $-1 $290 $285 $282 $407 forward $280 $-1 #
edge $-1 $410 -23.431917603163754 $501 -15.460337002470233 $406 $502 forward 7 unknown #
coedge $-1 $284 $283 $413 $503 reversed $111 $-1 #
edge $-1 $504 8.8817612989391469e-015 $410 9.9815003937499238 $404 $505 forward 7 unknown #
vertex $-1 $286 $506 #
straight-curve $-1 -2.1354418845595156 -32.900180999696993 12.676021304599402 -1 0 0 I I #
coedge $-1 $499 $287 $290 $417 reversed $402 $-1 #
coedge $-1 $287 $499 $408 $503 forward $402 $-1 #
vertex $-1 $288 $507 #
straight-curve $-1 5.2484229254630606 -40.871761600390521 50.970391174274639 0 0 1 I I #
straight-curve $-1 5.2484229254630606 -40.871761600390528 6.6690043379947213 0 -0.79863550430605224 -0.6018150307709319 I I #
edge $-1 $501 -13.790190463701123 $291 5.2484229254630606 $412 $508 forward 7 unknown #
point $-1 5.2484229254630606 -40.871761600390521 12.676021304599402 #
point $-1 5.2484229254630606 -32.900180999697 12.676021304599402 #
edge $-1 $509 1 $509 0 $294 $-1 forward 7 unknown #
vertex $-1 $295 $510 #
ellipse-curve $-1 -8.3505866382256428 -35.174507576561027 7.40132379473817 0 -0.6018150307709319 0.79863550430605224 1 0 0 1 I I #
point $-1 -7.3505866382256428 -36.885971300043749 9.6725128212970635 #
edge $-1 $511 1 $511 0 $298 $-1 forward 7 unknown #
vertex $-1 $299 $512 #
ellipse-curve $-1 -0.19118090001242649 -35.174507576561027 7.40132379473817 0 -0.6018150307709319 0.79863550430605224 1 0 0 1 I I #
point $-1 0.80881909998757351 -36.885971300043749 9.6725128212970635 #
loop $-1 $-1 $311 $302 #
plane-surface $-1 59.646595660267948 0 0 -1 0 0 0 0 1 forward_v I I I I #
coedge $-1 $513 $305 $310 $436 forward $199 $-1 #
coedge $-1 $305 $513 $433 $514 reversed $199 $-1 #
edge $-1 $434 38.294369869675236 $441 44.30138683627991 $305 $515 forward 7 unknown #
coedge $-1 $314 $308 $431 $514 forward $303 $-1 #
vertex $-1 $514 $516 #
straight-curve $-1 40.607982271103772 -56.332098602860754 12.676021304599402 0 -1 0 I I #
edge $-1 $441 15.54433778826084 $439 34.582951177425024 $430 $517 forward 7 unknown #
coedge $-1 $438 $311 $314 $443 reversed $428 $-1 #
coedge $-1 $311 $437 $513 $518 forward $428 $-1 #
vertex $-1 $436 $519 #
straight-curve $-1 59.646595660267948 -29.440039927726232 15.283424675063443 0 0.79863550430605224 0.6018150307709319 I I #
vertex $-1 $436 $520 #
straight-curve $-1 40.607982271103772 -40.871761600390528 6.6690043379947213 0 0.79863550430605224 0.6018150307709319 I I #
edge $-1 $521 -40.871761600390521 $315 -32.900180999697 $437 $522 forward 7 unknown #
point $-1 59.646595660267955 -32.900180999697 12.676021304599402 #
point $-1 40.607982271103772 -32.900180999697 12.676021304599402 #
edge $-1 $523 1 $523 0 $318 $-1 forward 7 unknown #
vertex $-1 $319 $524 #
ellipse-curve $-1 46.047586096579252 -35.174507576561027 7.40132379473817 0 -0.6018150307709319 0.79863550430605224 1 0 0 1 I I #
point $-1 47.047586096579252 -36.885971300043749 9.6725128212970635 #
edge $-1 $525 1 $525 0 $322 $-1 forward 7 unknown #
vertex $-1 $323 $526 #
ellipse-curve $-1 54.206991834792476 -35.174507576561027 7.40132379473817 0 -0.6018150307709319 0.79863550430605224 1 0 0 1 I I #
point $-1 55.206991834792476 -36.885971300043749 9.6725128212970635 #
plane-surface $-1 59.646595660267948 0 0 -1 0 0 0 0 1 forward_v I I I I #
coedge $-1 $331 $329 $333 $459 reversed $221 $-1 #
edge $-1 $344 -12.676021304599402 $461 12.676021304599402 $343 $527 forward 7 unknown #
vertex $-1 $459 $528 #
straight-curve $-1 -59.646595660267948 -40.871761600390521 0 0 0 -1 I I #
edge $-1 $457 -40.871761600390521 $461 40.871761600390521 $455 $529 forward 7 unknown #
straight-curve $-1 0 -40.871761600390521 -12.676021304599402 -1 0 0 I I #
vertex $-1 $336 $530 #
straight-curve $-1 0 40.871761600390521 -12.676021304599402 1 0 0 I I #
point $-1 59.646595660267948 40.871761600390521 -12.676021304599402 #
point $-1 59.646595660267948 -40.871761600390521 -12.676021304599402 #
straight-curve $-1 -59.646595660267948 0 12.676021304599402 0 -1 0 I I #
point $-1 -59.646595660267948 40.871761600390521 12.676021304599402 #
point $-1 -59.646595660267948 -40.871761600390521 12.676021304599402 #
straight-curve $-1 59.646595660267948 -40.871761600390521 0 0 0 -1 I I #
straight-curve $-1 59.646595660267948 40.871761600390521 0 0 0 -1 I I #
plane-surface $-1 0 -40.871761600390521 0 0 1 0 0 0 1 forward_v I I I I #
coedge $-1 $531 $356 $368 $482 reversed $240 $-1 #
coedge $-1 $356 $531 $371 $484 reversed $240 $-1 #
edge $-1 $532 -59.646595660267948 $365 -49.149749809341841 $361 $533 forward 7 unknown #
straight-curve $-1 -49.149749809341841 -19.185745095160371 12.676021304599402 0 1 0 I I #
coedge $-1 $368 $359 $362 $478 forward $354 $-1 #
straight-curve $-1 -49.149749809341841 -19.185745095160371 -12.676021304599402 0 -1 0 I I #
coedge $-1 $362 $361 $531 $534 forward $363 $-1 #
edge $-1 $364 49.149749809341841 $535 59.646595660267948 $362 $536 forward 7 unknown #
point $-1 -49.149749809341841 -40.871761600390521 -12.676021304599402 #
point $-1 -49.149749809341841 -40.871761600390521 12.676021304599402 #
straight-curve $-1 -59.646595660267948 -35.871218780250963 0 0 0 -1 I I #
edge $-1 $535 -40.871761600390521 $369 -35.871218780250963 $471 $537 forward 7 unknown #
point $-1 -59.646595660267948 -35.871218780250963 -12.676021304599402 #
edge $-1 $372 35.871218780250963 $532 40.871761600390521 $472 $538 forward 7 unknown #
point $-1 -59.646595660267948 -35.871218780250963 12.676021304599402 #
edge $-1 $487 61.414587871951014 $490 65.865385707257815 $377 $539 forward 7 unknown #
vertex $-1 $391 $540 #
straight-curve $-1 -31.972088640977884 38.637450628084082 12.676021304599402 0 1 0 I I #
edge $-1 $490 12.437720259856743 $388 26.631016502385535 $387 $541 forward 7 unknown #
vertex $-1 $489 $542 #
straight-curve $-1 -31.972088640977884 -12.756814077559142 69.917844227621998 0 -0.65605901945558964 0.75470958851134928 I I #
point $-1 -31.972088640977884 37.002742168179431 12.676021304599409 #
point $-1 -46.165384883506675 40.871761600390521 8.2252234692925938 #
straight-curve $-1 0 40.871761600390521 12.676021304599402 -1 0 0 I I #
vertex $-1 $394 $543 #
point $-1 -41.110157385641301 37.382043875145811 9.0987007245515308 #
vertex $-1 $398 $544 #
point $-1 -35.027316138843247 37.382043875145811 9.0987007245515308 #
coedge $-1 $413 $412 $405 $500 forward $402 $-1 #
edge $-1 $501 38.294369869675236 $504 44.30138683627991 $499 $545 forward 7 unknown #
vertex $-1 $417 $546 #
straight-curve $-1 -13.790190463701123 -56.332098602860754 12.676021304599402 0 -1 0 I I #
edge $-1 $504 -11.654748579141607 $414 7.3838648100225761 $413 $547 forward 7 unknown #
vertex $-1 $503 $548 #
straight-curve $-1 -13.790190463701123 -40.871761600390528 6.6690043379947213 0 0.79863550430605224 0.6018150307709319 I I #
point $-1 -13.790190463701123 -32.900180999697 12.676021304599402 #
point $-1 5.2484229254630606 -40.871761600390521 6.6690043379947266 #
straight-curve $-1 0 -40.871761600390521 12.676021304599402 1 0 0 I I #
vertex $-1 $420 $549 #
point $-1 -7.3505866382256428 -35.174507576561027 7.40132379473817 #
vertex $-1 $424 $550 #
point $-1 0.80881909998757351 -35.174507576561027 7.40132379473817 #
coedge $-1 $431 $430 $438 $518 reversed $199 $-1 #
edge $-1 $434 40.607982271103772 $521 59.646595660267948 $431 $551 forward 7 unknown #
straight-curve $-1 40.607982271103772 -40.871761600390521 50.970391174274639 0 0 -1 I I #
point $-1 40.607982271103772 -40.871761600390521 12.676021304599402 #
straight-curve $-1 25.063644482842932 -40.871761600390521 6.6690043379947275 1 0 0 I I #
edge $-1 $521 -12.676021304599402 $439 -6.6690043379947266 $438 $552 forward 7 unknown #
point $-1 59.646595660267955 -40.871761600390521 6.6690043379947266 #
point $-1 40.607982271103772 -40.871761600390521 6.6690043379947266 #
vertex $-1 $443 $553 #
straight-curve $-1 59.646595660267948 0 12.676021304599402 0 1 0 I I #
vertex $-1 $446 $554 #
point $-1 47.047586096579252 -35.174507576561027 7.40132379473817 #
vertex $-1 $450 $555 #
point $-1 55.206991834792476 -35.174507576561027 7.40132379473817 #
straight-curve $-1 -59.646595660267948 40.871761600390521 0 0 0 -1 I I #
point $-1 -59.646595660267948 -40.871761600390521 -12.676021304599402 #
straight-curve $-1 -59.646595660267948 0 -12.676021304599402 0 1 0 I I #
point $-1 -59.646595660267948 40.871761600390521 -12.676021304599402 #
coedge $-1 $472 $471 $477 $534 reversed $240 $-1 #
vertex $-1 $484 $556 #
straight-curve $-1 0 -40.871761600390521 12.676021304599402 1 0 0 I I #
edge $-1 $532 -12.676021304599402 $535 12.676021304599402 $531 $557 forward 7 unknown #
vertex $-1 $482 $558 #
straight-curve $-1 0 -40.871761600390521 -12.676021304599402 -1 0 0 I I #
straight-curve $-1 -59.646595660267948 0 -12.676021304599402 0 1 0 I I #
straight-curve $-1 -59.646595660267948 0 12.676021304599402 0 -1 0 I I #
straight-curve $-1 -31.972088640977884 40.871761600390521 74.090609176550416 0 0 -1 I I #
point $-1 -31.972088640977884 40.871761600390521 12.676021304599402 #
straight-curve $-1 -19.534368381121141 40.871761600390514 8.225223469292601 -1 0 0 I I #
point $-1 -31.972088640977884 40.871761600390521 8.2252234692925938 #
point $-1 -42.110157385641301 36.627334286634465 8.4426417050959408 #
point $-1 -36.027316138843247 36.627334286634465 8.4426417050959408 #
straight-curve $-1 -13.790190463701123 -40.871761600390521 50.970391174274639 0 0 -1 I I #
point $-1 -13.790190463701123 -40.871761600390521 12.676021304599402 #
straight-curve $-1 -2.1354418845595156 -40.871761600390521 6.6690043379947275 1 0 0 I I #
point $-1 -13.790190463701123 -40.871761600390521 6.6690043379947266 #
point $-1 -8.3505866382256428 -34.57269254579009 6.602688290432118 #
point $-1 -0.19118090001242649 -34.57269254579009 6.602688290432118 #
straight-curve $-1 0 -40.871761600390521 12.676021304599402 1 0 0 I I #
straight-curve $-1 59.646595660267948 -40.871761600390521 0 0 0 -1 I I #
point $-1 59.646595660267948 -40.871761600390521 12.676021304599402 #
point $-1 46.047586096579252 -34.57269254579009 6.602688290432118 #
point $-1 54.206991834792476 -34.57269254579009 6.602688290432118 #
point $-1 -59.646595660267948 -40.871761600390521 12.676021304599402 #
straight-curve $-1 -59.646595660267948 -40.871761600390521 0 0 0 -1 I I #
point $-1 -59.646595660267948 -40.871761600390521 -12.676021304599402 #
End-of-ACIS-data 