500 0 9 0           
7 Unknown 11 ACIS 5.0 NT 24 Thu Mar 25 22:23:15 1999 
-1 9.9999999999999995e-007 1e-010 
body $-1 $9 $-1 $10 #
body $-1 $11 $-1 $12 #
body $-1 $13 $-1 $14 #
body $-1 $15 $-1 $16 #
body $-1 $17 $-1 $18 #
body $-1 $19 $-1 $20 #
body $-1 $21 $-1 $22 #
body $-1 $23 $-1 $24 #
body $-1 $25 $-1 $26 #
lump $-1 $-1 $27 $0 #
transform $-1 1 0 0 0 1 0 0 0 1 70.914029358806118 44.674951177952295 18.959347394951294 1 rotate no_reflect no_shear #
lump $-1 $-1 $28 $1 #
transform $-1 1 0 0 0 1 0 0 0 1 70.914029358806118 44.674951177952295 18.959347394951294 1 rotate no_reflect no_shear #
lump $-1 $-1 $29 $2 #
transform $-1 1 0 0 0 1 0 0 0 1 70.914029358806118 44.674951177952295 18.959347394951294 1 rotate no_reflect no_shear #
lump $-1 $-1 $30 $3 #
transform $-1 1 0 0 0 1 0 0 0 1 70.914029358806118 44.674951177952295 18.959347394951294 1 rotate no_reflect no_shear #
lump $-1 $-1 $31 $4 #
transform $-1 1 0 0 0 1 0 0 0 1 70.914029358806118 44.674951177952295 18.959347394951294 1 rotate no_reflect no_shear #
lump $-1 $-1 $32 $5 #
transform $-1 1 0 0 0 1 0 0 0 1 70.914029358806118 44.674951177952295 18.959347394951294 1 rotate no_reflect no_shear #
lump $-1 $-1 $33 $6 #
transform $-1 1 0 0 0 1 0 0 0 1 70.914029358806118 44.674951177952295 18.959347394951294 1 rotate no_reflect no_shear #
lump $-1 $-1 $34 $7 #
transform $-1 1 0 0 0 1 0 0 0 1 70.914029358806118 44.674951177952295 18.959347394951294 1 rotate no_reflect no_shear #
lump $-1 $-1 $35 $8 #
transform $-1 1 0 0 0 1 0 0 0 1 70.914029358806118 44.674951177952295 18.959347394951294 1 rotate no_reflect no_shear #
shell $-1 $-1 $-1 $36 $-1 $9 #
shell $-1 $-1 $-1 $37 $-1 $11 #
shell $-1 $-1 $-1 $38 $-1 $13 #
shell $-1 $-1 $-1 $39 $-1 $15 #
shell $-1 $-1 $-1 $40 $-1 $17 #
shell $-1 $-1 $-1 $41 $-1 $19 #
shell $-1 $-1 $-1 $42 $-1 $21 #
shell $-1 $-1 $-1 $43 $-1 $23 #
shell $-1 $-1 $-1 $44 $-1 $25 #
face $-1 $45 $46 $27 $-1 $47 reversed single #
face $-1 $48 $49 $28 $-1 $50 forward single #
face $-1 $51 $52 $29 $-1 $53 reversed single #
face $-1 $54 $55 $30 $-1 $56 forward single #
face $-1 $57 $58 $31 $-1 $59 forward single #
face $-1 $60 $61 $32 $-1 $62 forward single #
face $-1 $63 $64 $33 $-1 $65 reversed single #
face $-1 $66 $67 $34 $-1 $68 forward single #
face $-1 $69 $70 $35 $-1 $71 forward single #
face $-1 $72 $73 $27 $-1 $74 forward single #
loop $-1 $-1 $75 $36 #
plane-surface $-1 -70.914029358806118 0 0 1 0 0 0 0 -1 forward_v I I I I #
face $-1 $76 $77 $28 $-1 $78 reversed single #
loop $-1 $-1 $79 $37 #
plane-surface $-1 -70.914029358806118 0 0 1 0 0 0 0 -1 forward_v I I I I #
face $-1 $80 $81 $29 $-1 $82 reversed single #
loop $-1 $-1 $83 $38 #
plane-surface $-1 -7.7053063094085346 81.782613302123892 165.49803786283903 1 0 0 0 -0.70710678939079041 -0.70710677298230451 forward_v I I I I #
face $-1 $84 $85 $30 $-1 $86 forward single #
loop $-1 $87 $88 $39 #
cone-surface $-1 -0.3345463855590225 32.936073086592586 7.2204691831586052 0 -0.70710678939079041 -0.70710677298230451 2.5 0 0 1 I I 0 1 2.5 forward I I I I #
face $-1 $89 $90 $31 $-1 $91 forward single #
loop $-1 $92 $93 $40 #
cone-surface $-1 10.721593500215221 32.936073086592586 7.2204691831586052 0 -0.70710678939079041 -0.70710677298230451 2.5 0 0 1 I I 0 1 2.5 forward I I I I #
face $-1 $94 $95 $32 $-1 $96 forward single #
loop $-1 $97 $98 $41 #
cone-surface $-1 21.777733385989478 32.936073086592586 7.2204691831586052 0 -0.70710678939079041 -0.70710677298230451 2.5 0 0 1 I I 0 1 2.5 forward I I I I #
face $-1 $99 $100 $33 $-1 $101 reversed single #
loop $-1 $-1 $102 $42 #
plane-surface $-1 1.8905194049162475 -131.99302414562356 120.96446109405579 -1 0 0 0 -0.61566148304635926 0.78801074757464917 forward_v I I I I #
face $-1 $103 $104 $34 $-1 $105 forward single #
loop $-1 $106 $107 $43 #
cone-surface $-1 -16.900177743111186 -36.994316462416471 12.242263350187413 0 0.61566148304635926 -0.78801074757464917 1.5 0 0 1 I I 0 1 1.5 forward I I I I #
face $-1 $108 $109 $35 $-1 $110 forward single #
loop $-1 $111 $112 $44 #
cone-surface $-1 -5.6257594542947231 -36.994316462416471 12.242263350187413 0 0.61566148304635926 -0.78801074757464917 1.5 0 0 1 I I 0 1 1.5 forward I I I I #
face $-1 $113 $114 $27 $-1 $115 reversed single #
loop $-1 $-1 $116 $45 #
plane-surface $-1 0 0 18.959347394951294 0 0 1 1 0 0 forward_v I I I I #
coedge $-1 $117 $118 $119 $120 reversed $46 $-1 #
face $-1 $121 $122 $28 $-1 $123 reversed single #
loop $-1 $-1 $124 $48 #
plane-surface $-1 0 0 -18.959347394951294 0 0 1 1 0 0 forward_v I I I I #
coedge $-1 $125 $126 $127 $128 forward $49 $-1 #
face $-1 $129 $130 $29 $-1 $131 reversed single #
loop $-1 $-1 $132 $51 #
plane-surface $-1 10.721593500215221 -18.5049699432154 65.210456944683443 0 0.70710678939079041 0.70710677298230451 1 0 0 forward_v I I I I #
coedge $-1 $133 $134 $135 $136 reversed $52 $-1 #
face $-1 $-1 $137 $30 $-1 $138 forward single #
loop $-1 $139 $140 $54 #
cone-surface $-1 -0.3345463855590225 28.777717830843045 3.0621140239041296 0 -0.70710678939079041 -0.70710677298230451 1.25 0 0 1 I I -0.70710678118654746 0.70710678118654746 1.25 forward I I I I #
loop $-1 $-1 $141 $39 #
coedge $-1 $88 $88 $142 $143 reversed $55 $-1 #
face $-1 $-1 $144 $31 $-1 $145 forward single #
loop $-1 $146 $147 $57 #
cone-surface $-1 10.721593500215221 28.777717830843045 3.0621140239041296 0 -0.70710678939079041 -0.70710677298230451 1.25 0 0 1 I I -0.70710678118654746 0.70710678118654746 1.25 forward I I I I #
loop $-1 $-1 $148 $40 #
coedge $-1 $93 $93 $149 $150 reversed $58 $-1 #
face $-1 $-1 $151 $32 $-1 $152 forward single #
loop $-1 $153 $154 $60 #
cone-surface $-1 21.777733385989478 28.777717830843045 3.0621140239041296 0 -0.70710678939079041 -0.70710677298230451 1.25 0 0 1 I I -0.70710678118654746 0.70710678118654746 1.25 forward I I I I #
loop $-1 $-1 $155 $41 #
coedge $-1 $98 $98 $156 $157 reversed $61 $-1 #
face $-1 $158 $159 $33 $-1 $160 reversed single #
loop $-1 $-1 $161 $63 #
plane-surface $-1 -11.262968598702955 -44.674951177952295 9.2024265169289379 0 -0.61566148304635926 0.78801074757464917 1 0 0 forward_v I I I I #
coedge $-1 $162 $163 $164 $165 reversed $64 $-1 #
face $-1 $-1 $166 $34 $-1 $167 forward single #
loop $-1 $168 $169 $66 #
cone-surface $-1 -16.900177743111186 -35.096080125390813 9.812631683753736 0 0.61566148304635926 -0.78801074757464917 0.75 0 0 1 I I -0.70710678118654757 0.70710678118654757 0.75 forward I I I I #
loop $-1 $-1 $170 $43 #
coedge $-1 $107 $107 $171 $172 reversed $67 $-1 #
face $-1 $-1 $173 $35 $-1 $174 forward single #
loop $-1 $175 $176 $69 #
cone-surface $-1 -5.6257594542947231 -35.096080125390813 9.812631683753736 0 0.61566148304635926 -0.78801074757464917 0.75 0 0 1 I I -0.70710678118654757 0.70710678118654757 0.75 forward I I I I #
loop $-1 $-1 $177 $44 #
coedge $-1 $112 $112 $178 $179 reversed $70 $-1 #
face $-1 $180 $181 $27 $-1 $182 reversed single #
loop $-1 $-1 $183 $72 #
plane-surface $-1 0 0 -18.959347394951294 0 0 1 1 0 0 forward_v I I I I #
coedge $-1 $184 $185 $186 $187 forward $73 $-1 #
coedge $-1 $188 $75 $189 $190 reversed $46 $-1 #
coedge $-1 $75 $188 $191 $192 forward $46 $-1 #
coedge $-1 $193 $194 $75 $120 forward $114 $-1 #
edge $-1 $195 -44.674951177952295 $196 44.674951177952295 $75 $197 forward 7 unknown #
face $-1 $198 $199 $28 $-1 $200 reversed single #
loop $-1 $-1 $201 $76 #
plane-surface $-1 -80.304920980892462 -15.932232642321374 0 0 1 0 0 0 1 forward_v I I I I #
coedge $-1 $202 $203 $126 $204 forward $77 $-1 #
coedge $-1 $205 $79 $206 $207 reversed $49 $-1 #
coedge $-1 $79 $205 $124 $204 reversed $49 $-1 #
coedge $-1 $208 $209 $79 $128 reversed $210 $-1 #
edge $-1 $211 -18.959347394951294 $212 18.959347394951294 $127 $213 forward 7 unknown #
face $-1 $214 $215 $29 $-1 $216 forward single #
loop $-1 $-1 $217 $80 #
plane-surface $-1 29.148493309838976 81.782613302123892 165.49803786283903 -1 0 0 0 0.70710678939079041 0.70710677298230451 forward_v I I I I #
coedge $-1 $218 $219 $220 $221 reversed $81 $-1 #
coedge $-1 $134 $83 $222 $223 reversed $52 $-1 #
coedge $-1 $83 $133 $218 $224 reversed $52 $-1 #
coedge $-1 $220 $225 $83 $136 forward $215 $-1 #
edge $-1 $226 -3.7836445268903489 $227 13.145168117806961 $135 $228 forward 7 unknown #
loop $-1 $-1 $142 $84 #
plane-surface $-1 10.721593500215221 -18.5049699432154 65.210456944683443 0 0.70710678939079041 0.70710677298230451 1 0 0 forward_v I I I I #
loop $-1 $-1 $229 $54 #
coedge $-1 $140 $140 $141 $230 reversed $85 $-1 #
coedge $-1 $141 $141 $140 $230 forward $87 $-1 #
coedge $-1 $142 $142 $88 $143 forward $137 $-1 #
edge $-1 $231 -2.5121478231342004e-015 $231 6.2831853071795978 $142 $232 forward 7 unknown #
loop $-1 $-1 $149 $89 #
plane-surface $-1 10.721593500215221 -18.5049699432154 65.210456944683443 0 0.70710678939079041 0.70710677298230451 1 0 0 forward_v I I I I #
loop $-1 $-1 $233 $57 #
coedge $-1 $147 $147 $148 $234 reversed $90 $-1 #
coedge $-1 $148 $148 $147 $234 forward $92 $-1 #
coedge $-1 $149 $149 $93 $150 forward $144 $-1 #
edge $-1 $235 -2.5121478231342004e-015 $235 6.2831853071795978 $149 $236 forward 7 unknown #
loop $-1 $-1 $156 $94 #
plane-surface $-1 10.721593500215221 -18.5049699432154 65.210456944683443 0 0.70710678939079041 0.70710677298230451 1 0 0 forward_v I I I I #
loop $-1 $-1 $237 $60 #
coedge $-1 $154 $154 $155 $238 reversed $95 $-1 #
coedge $-1 $155 $155 $154 $238 forward $97 $-1 #
coedge $-1 $156 $156 $98 $157 forward $151 $-1 #
edge $-1 $239 -2.5121478231342004e-015 $239 6.2831853071795978 $156 $240 forward 7 unknown #
face $-1 $241 $242 $33 $-1 $243 forward single #
loop $-1 $-1 $244 $99 #
plane-surface $-1 -24.416456602322157 -131.99302414562356 120.96446109405579 1 0 0 0 0.61566148304635926 -0.78801074757464917 forward_v I I I I #
coedge $-1 $245 $246 $247 $248 reversed $100 $-1 #
coedge $-1 $163 $102 $249 $250 reversed $64 $-1 #
coedge $-1 $102 $162 $245 $251 reversed $64 $-1 #
coedge $-1 $247 $252 $102 $165 forward $242 $-1 #
edge $-1 $253 21.321560894859488 $254 33.809849876449313 $164 $255 forward 7 unknown #
loop $-1 $-1 $171 $103 #
plane-surface $-1 -11.262968598702955 -44.674951177952295 9.2024265169289379 0 -0.61566148304635926 0.78801074757464917 1 0 0 forward_v I I I I #
loop $-1 $-1 $256 $66 #
coedge $-1 $169 $169 $170 $257 reversed $104 $-1 #
coedge $-1 $170 $170 $169 $257 forward $106 $-1 #
coedge $-1 $171 $171 $107 $172 forward $166 $-1 #
edge $-1 $258 9.0373058154583003e-016 $258 6.2831853071796013 $171 $259 forward 7 unknown #
loop $-1 $-1 $178 $108 #
plane-surface $-1 -11.262968598702955 -44.674951177952295 9.2024265169289379 0 -0.61566148304635926 0.78801074757464917 1 0 0 forward_v I I I I #
loop $-1 $-1 $260 $69 #
coedge $-1 $176 $176 $177 $261 reversed $109 $-1 #
coedge $-1 $177 $177 $176 $261 forward $111 $-1 #
coedge $-1 $178 $178 $112 $179 forward $173 $-1 #
edge $-1 $262 9.0373058154583003e-016 $262 6.2831853071796013 $178 $263 forward 7 unknown #
face $-1 $264 $265 $27 $-1 $266 reversed single #
loop $-1 $-1 $189 $113 #
plane-surface $-1 0 -44.674951177952295 0 0 1 0 0 0 1 forward_v I I I I #
coedge $-1 $194 $193 $267 $268 forward $114 $-1 #
coedge $-1 $269 $116 $270 $271 forward $73 $-1 #
coedge $-1 $116 $269 $272 $273 forward $73 $-1 #
coedge $-1 $274 $275 $116 $187 reversed $276 $-1 #
edge $-1 $277 -44.674951177952295 $278 44.674951177952295 $186 $279 forward 7 unknown #
coedge $-1 $118 $117 $269 $280 reversed $46 $-1 #
coedge $-1 $281 $272 $117 $190 forward $181 $-1 #
edge $-1 $282 -18.959347394951294 $195 18.959347394951294 $117 $283 forward 7 unknown #
coedge $-1 $270 $284 $118 $192 reversed $265 $-1 #
edge $-1 $285 -18.959347394951294 $196 18.959347394951294 $191 $286 forward 7 unknown #
coedge $-1 $183 $119 $284 $287 forward $114 $-1 #
coedge $-1 $119 $183 $281 $288 forward $114 $-1 #
vertex $-1 $120 $289 #
vertex $-1 $287 $290 #
straight-curve $-1 -70.914029358806118 0 -18.959347394951294 0 1 0 I I #
face $-1 $291 $210 $28 $-1 $292 reversed single #
loop $-1 $-1 $293 $121 #
plane-surface $-1 -89.695812602978805 -11.700213758034948 0 1 0 0 0 0 -1 forward_v I I I I #
coedge $-1 $294 $295 $296 $297 forward $122 $-1 #
coedge $-1 $298 $124 $294 $299 forward $77 $-1 #
coedge $-1 $124 $298 $208 $300 forward $77 $-1 #
edge $-1 $211 7.4681948737485229 $301 15.932232642321374 $124 $302 forward 7 unknown #
coedge $-1 $126 $125 $303 $304 forward $49 $-1 #
coedge $-1 $305 $306 $125 $207 forward $307 $-1 #
edge $-1 $308 -15.932232642321374 $212 -7.4681948737485229 $206 $309 forward 7 unknown #
coedge $-1 $310 $127 $203 $300 reversed $210 $-1 #
coedge $-1 $127 $310 $305 $311 reversed $210 $-1 #
loop $-1 $-1 $127 $198 #
vertex $-1 $204 $312 #
vertex $-1 $311 $313 #
straight-curve $-1 -70.914029358806118 -7.4681948737485229 0 0 0 1 I I #
face $-1 $-1 $314 $29 $-1 $315 reversed single #
loop $-1 $-1 $135 $129 #
plane-surface $-1 0 0 18.959347394951294 0 0 1 1 0 0 forward_v I I I I #
coedge $-1 $316 $317 $318 $319 reversed $130 $-1 #
coedge $-1 $320 $132 $134 $224 forward $81 $-1 #
coedge $-1 $132 $320 $316 $321 forward $81 $-1 #
coedge $-1 $318 $135 $132 $221 forward $215 $-1 #
edge $-1 $227 -13.066103059516145 $322 23.787696559731366 $220 $323 forward 7 unknown #
coedge $-1 $324 $325 $133 $223 forward $314 $-1 #
edge $-1 $326 -80.718484574000371 $226 -63.789671536468219 $222 $327 forward 7 unknown #
edge $-1 $227 65.408945641124333 $326 89.349902355904604 $134 $328 forward 7 unknown #
coedge $-1 $135 $318 $324 $329 forward $215 $-1 #
vertex $-1 $223 $330 #
vertex $-1 $136 $331 #
straight-curve $-1 -7.7053063094085346 40.891306651061946 18.959347394951294 0 -1 0 I I #
coedge $-1 $229 $229 $-1 $332 reversed $139 $-1 #
edge $-1 $333 0 $333 6.2831853071796004 $140 $334 forward 7 unknown #
vertex $-1 $143 $335 #
ellipse-curve $-1 -0.3345463855590225 36.210544855603651 10.494940876185213 0 0.70710678939079041 0.70710677298230451 2.5 0 0 1 I I #
coedge $-1 $233 $233 $-1 $336 reversed $146 $-1 #
edge $-1 $337 0 $337 6.2831853071796004 $147 $338 forward 7 unknown #
vertex $-1 $150 $339 #
ellipse-curve $-1 10.721593500215221 36.210544855603651 10.494940876185213 0 0.70710678939079041 0.70710677298230451 2.5 0 0 1 I I #
coedge $-1 $237 $237 $-1 $340 reversed $153 $-1 #
edge $-1 $341 0 $341 6.2831853071796004 $154 $342 forward 7 unknown #
vertex $-1 $157 $343 #
ellipse-curve $-1 21.777733385989478 36.210544855603651 10.494940876185213 0 0.70710678939079041 0.70710677298230451 2.5 0 0 1 I I #
face $-1 $-1 $344 $33 $-1 $345 reversed single #
loop $-1 $-1 $164 $158 #
plane-surface $-1 0 0 18.959347394951294 0 0 1 1 0 0 forward_v I I I I #
coedge $-1 $346 $347 $348 $349 reversed $159 $-1 #
coedge $-1 $350 $161 $163 $251 forward $100 $-1 #
coedge $-1 $161 $350 $346 $351 forward $100 $-1 #
coedge $-1 $348 $164 $161 $248 forward $242 $-1 #
edge $-1 $254 -7.5220037042677248 $352 18.784972302970679 $247 $353 forward 7 unknown #
coedge $-1 $354 $355 $162 $250 forward $344 $-1 #
edge $-1 $356 -51.279804030098958 $253 -41.522883152076602 $249 $357 forward 7 unknown #
edge $-1 $254 -15.847866314040083 $356 0 $163 $358 forward 7 unknown #
coedge $-1 $164 $348 $354 $359 forward $242 $-1 #
vertex $-1 $165 $360 #
vertex $-1 $165 $361 #
straight-curve $-1 1.8905194049162475 -65.996512072811782 18.959347394951294 0 1 0 I I #
coedge $-1 $256 $256 $-1 $362 reversed $168 $-1 #
edge $-1 $363 0 $363 6.2831853071796004 $169 $364 forward 7 unknown #
vertex $-1 $172 $365 #
ellipse-curve $-1 -16.900177743111186 -38.430806687157379 14.08088695594012 0 -0.61566148304635926 0.78801074757464917 1.5 0 0 1 I I #
coedge $-1 $260 $260 $-1 $366 reversed $175 $-1 #
edge $-1 $367 0 $367 6.2831853071796004 $176 $368 forward 7 unknown #
vertex $-1 $179 $369 #
ellipse-curve $-1 -5.6257594542947231 -38.430806687157379 14.08088695594012 0 -0.61566148304635926 0.78801074757464917 1.5 0 0 1 I I #
face $-1 $-1 $276 $27 $-1 $370 reversed single #
loop $-1 $-1 $371 $180 #
plane-surface $-1 0 44.674951177952295 0 0 -1 0 0 0 -1 forward_v I I I I #
coedge $-1 $275 $274 $183 $268 reversed $276 $-1 #
edge $-1 $372 -44.674951177952295 $373 44.674951177952295 $267 $374 forward 7 unknown #
coedge $-1 $185 $184 $188 $280 forward $73 $-1 #
coedge $-1 $371 $191 $184 $271 reversed $265 $-1 #
edge $-1 $278 -70.914029358806118 $285 70.914029358806118 $270 $375 forward 7 unknown #
coedge $-1 $189 $376 $185 $273 reversed $181 $-1 #
edge $-1 $282 -70.914029358806118 $277 70.914029358806118 $272 $377 forward 7 unknown #
coedge $-1 $267 $186 $376 $378 forward $276 $-1 #
coedge $-1 $186 $267 $371 $379 reversed $276 $-1 #
loop $-1 $-1 $274 $264 #
vertex $-1 $187 $380 #
vertex $-1 $187 $381 #
straight-curve $-1 70.914029358806118 0 18.959347394951294 0 1 0 I I #
edge $-1 $285 -44.674951177952295 $282 44.674951177952295 $188 $382 forward 7 unknown #
coedge $-1 $376 $189 $194 $288 reversed $181 $-1 #
vertex $-1 $280 $383 #
straight-curve $-1 -70.914029358806118 -44.674951177952295 0 0 0 -1 I I #
coedge $-1 $191 $371 $193 $287 reversed $265 $-1 #
vertex $-1 $271 $384 #
straight-curve $-1 -70.914029358806118 44.674951177952295 0 0 0 -1 I I #
edge $-1 $196 -70.914029358806118 $372 70.914029358806118 $284 $385 forward 7 unknown #
edge $-1 $373 -70.914029358806118 $195 70.914029358806118 $281 $386 forward 7 unknown #
point $-1 -70.914029358806118 -44.674951177952295 -18.959347394951294 #
point $-1 -70.914029358806118 44.674951177952295 -18.959347394951294 #
face $-1 $-1 $307 $28 $-1 $387 forward single #
plane-surface $-1 -80.304920980892462 -7.4681948737485229 0 0 -1 0 0 0 -1 forward_v I I I I #
coedge $-1 $388 $389 $310 $390 forward $199 $-1 #
coedge $-1 $303 $201 $202 $299 reversed $122 $-1 #
coedge $-1 $201 $303 $306 $391 reversed $122 $-1 #
coedge $-1 $389 $388 $201 $297 reversed $199 $-1 #
edge $-1 $392 -18.959347394951294 $393 18.959347394951294 $296 $394 forward 7 unknown #
coedge $-1 $203 $202 $388 $395 forward $77 $-1 #
edge $-1 $301 -9.3908916220863432 $393 9.3908916220863432 $294 $396 forward 7 unknown #
edge $-1 $397 -9.3908916220863432 $211 9.3908916220863432 $208 $398 forward 7 unknown #
vertex $-1 $299 $399 #
straight-curve $-1 -70.914029358806118 0 -18.959347394951294 0 -1 0 I I #
coedge $-1 $295 $294 $205 $304 reversed $122 $-1 #
edge $-1 $308 -18.959347394951294 $301 18.959347394951294 $303 $400 forward 7 unknown #
coedge $-1 $401 $206 $209 $311 forward $307 $-1 #
coedge $-1 $206 $401 $295 $391 forward $307 $-1 #
loop $-1 $-1 $206 $291 #
vertex $-1 $207 $402 #
straight-curve $-1 -70.914029358806118 0 18.959347394951294 0 1 0 I I #
coedge $-1 $209 $208 $293 $390 reversed $210 $-1 #
edge $-1 $212 -9.3908916220863432 $403 9.3908916220863432 $209 $404 forward 7 unknown #
point $-1 -70.914029358806118 -7.4681948737485229 -18.959347394951294 #
point $-1 -70.914029358806118 -7.4681948737485229 18.959347394951294 #
loop $-1 $-1 $222 $214 #
plane-surface $-1 0 44.674951177952295 0 0 -1 0 0 0 -1 forward_v I I I I #
coedge $-1 $317 $217 $219 $321 reversed $130 $-1 #
coedge $-1 $217 $316 $405 $406 reversed $130 $-1 #
coedge $-1 $225 $220 $217 $319 forward $215 $-1 #
edge $-1 $322 -13.145168117806961 $407 3.7836445268903489 $318 $408 forward 7 unknown #
coedge $-1 $219 $218 $325 $409 reversed $81 $-1 #
edge $-1 $410 -89.349902355904604 $322 -65.408945641124333 $316 $411 forward 7 unknown #
vertex $-1 $221 $412 #
straight-curve $-1 5.3607967501076104 27.746138533254985 18.959347394951294 1 0 0 I I #
coedge $-1 $405 $222 $225 $329 reversed $314 $-1 #
coedge $-1 $222 $405 $320 $409 forward $314 $-1 #
vertex $-1 $223 $413 #
straight-curve $-1 -7.7053063094085346 44.674951177952295 82.749018931419513 0 0 1 I I #
straight-curve $-1 -7.7053063094085346 -18.5049699432154 65.210456944683443 0 0.70710677298230451 -0.70710678939079041 I I #
edge $-1 $407 -29.148493309838976 $226 7.7053063094085346 $324 $414 forward 7 unknown #
point $-1 -7.7053063094085346 44.674951177952295 18.959347394951294 #
point $-1 -7.7053063094085346 27.746138533254985 18.959347394951294 #
edge $-1 $415 1 $415 0 $229 $-1 forward 7 unknown #
vertex $-1 $230 $416 #
ellipse-curve $-1 -0.3345463855590225 29.661601317581532 3.9459974901320103 0 0.70710678939079041 0.70710677298230451 2.5 0 0 1 I I #
point $-1 2.1654536144409775 36.210544855603629 10.494940876185201 #
edge $-1 $417 1 $417 0 $233 $-1 forward 7 unknown #
vertex $-1 $234 $418 #
ellipse-curve $-1 10.721593500215221 29.661601317581532 3.9459974901320103 0 0.70710678939079041 0.70710677298230451 2.5 0 0 1 I I #
point $-1 13.221593500215221 36.210544855603629 10.494940876185201 #
edge $-1 $419 1 $419 0 $237 $-1 forward 7 unknown #
vertex $-1 $238 $420 #
ellipse-curve $-1 21.777733385989478 29.661601317581532 3.9459974901320103 0 0.70710678939079041 0.70710677298230451 2.5 0 0 1 I I #
point $-1 24.277733385989478 36.210544855603629 10.494940876185201 #
loop $-1 $-1 $249 $241 #
plane-surface $-1 0 -44.674951177952295 0 0 1 0 0 0 1 forward_v I I I I #
coedge $-1 $347 $244 $246 $351 reversed $159 $-1 #
coedge $-1 $244 $346 $421 $422 reversed $159 $-1 #
coedge $-1 $252 $247 $244 $349 forward $242 $-1 #
edge $-1 $352 -33.809849876449313 $423 -21.321560894859488 $348 $424 forward 7 unknown #
coedge $-1 $246 $245 $355 $425 reversed $100 $-1 #
edge $-1 $426 0 $352 15.847866314040083 $346 $427 forward 7 unknown #
vertex $-1 $248 $428 #
straight-curve $-1 -5.6314842993514773 -32.18666219636247 18.959347394951294 -1 0 0 I I #
coedge $-1 $421 $249 $252 $359 reversed $344 $-1 #
coedge $-1 $249 $421 $350 $425 forward $344 $-1 #
vertex $-1 $250 $429 #
straight-curve $-1 1.8905194049162475 -44.674951177952295 60.482230547027896 0 0 1 I I #
straight-curve $-1 1.8905194049162475 -44.674951177952295 9.2024265169289379 0 -0.78801074757464917 -0.61566148304635926 I I #
edge $-1 $423 -24.416456602322157 $253 1.8905194049162475 $354 $430 forward 7 unknown #
point $-1 1.8905194049162475 -44.674951177952295 18.959347394951294 #
point $-1 1.8905194049162475 -32.18666219636247 18.959347394951294 #
edge $-1 $431 1 $431 0 $256 $-1 forward 7 unknown #
vertex $-1 $257 $432 #
ellipse-curve $-1 -16.900177743111186 -35.557826237675584 10.403639744434724 0 -0.61566148304635926 0.78801074757464917 1.5 0 0 1 I I #
point $-1 -15.400177743111186 -38.430806687157364 14.080886955940104 #
edge $-1 $433 1 $433 0 $260 $-1 forward 7 unknown #
vertex $-1 $261 $434 #
ellipse-curve $-1 -5.6257594542947231 -35.557826237675584 10.403639744434724 0 -0.61566148304635926 0.78801074757464917 1.5 0 0 1 I I #
point $-1 -4.1257594542947231 -38.430806687157364 14.080886955940104 #
plane-surface $-1 70.914029358806118 0 0 -1 0 0 0 0 1 forward_v I I I I #
coedge $-1 $284 $270 $275 $379 forward $265 $-1 #
vertex $-1 $268 $435 #
vertex $-1 $378 $436 #
straight-curve $-1 70.914029358806118 0 -18.959347394951294 0 -1 0 I I #
straight-curve $-1 0 44.674951177952295 18.959347394951294 -1 0 0 I I #
coedge $-1 $272 $281 $274 $378 reversed $181 $-1 #
straight-curve $-1 0 -44.674951177952295 18.959347394951294 1 0 0 I I #
edge $-1 $277 -18.959347394951294 $373 18.959347394951294 $274 $437 forward 7 unknown #
edge $-1 $278 -18.959347394951294 $372 18.959347394951294 $275 $438 forward 7 unknown #
point $-1 70.914029358806118 -44.674951177952295 18.959347394951294 #
point $-1 70.914029358806118 44.674951177952295 18.959347394951294 #
straight-curve $-1 -70.914029358806118 0 18.959347394951294 0 -1 0 I I #
point $-1 -70.914029358806118 -44.674951177952295 18.959347394951294 #
point $-1 -70.914029358806118 44.674951177952295 18.959347394951294 #
straight-curve $-1 0 44.674951177952295 -18.959347394951294 1 0 0 I I #
straight-curve $-1 0 -44.674951177952295 -18.959347394951294 -1 0 0 I I #
plane-surface $-1 0 0 18.959347394951294 0 0 1 1 0 0 forward_v I I I I #
coedge $-1 $296 $293 $298 $395 reversed $199 $-1 #
coedge $-1 $293 $296 $401 $439 reversed $199 $-1 #
edge $-1 $403 -18.959347394951294 $397 18.959347394951294 $310 $440 forward 7 unknown #
edge $-1 $392 -9.3908916220863432 $308 9.3908916220863432 $295 $441 forward 7 unknown #
vertex $-1 $439 $442 #
vertex $-1 $395 $443 #
straight-curve $-1 -89.695812602978805 -15.932232642321374 0 0 0 -1 I I #
edge $-1 $393 -4.2320188842864255 $397 4.2320188842864255 $388 $444 forward 7 unknown #
straight-curve $-1 -80.304920980892462 -15.932232642321374 -18.959347394951294 -1 0 0 I I #
vertex $-1 $300 $445 #
straight-curve $-1 -80.304920980892462 -7.4681948737485229 -18.959347394951294 1 0 0 I I #
point $-1 -70.914029358806118 -15.932232642321374 -18.959347394951294 #
straight-curve $-1 -70.914029358806118 -15.932232642321374 0 0 0 -1 I I #
coedge $-1 $306 $305 $389 $439 forward $307 $-1 #
point $-1 -70.914029358806118 -15.932232642321374 18.959347394951294 #
vertex $-1 $311 $446 #
straight-curve $-1 -80.304920980892462 -7.4681948737485229 18.959347394951294 -1 0 0 I I #
coedge $-1 $325 $324 $317 $406 forward $314 $-1 #
edge $-1 $407 63.789671536468219 $410 80.718484574000371 $405 $447 forward 7 unknown #
vertex $-1 $329 $448 #
straight-curve $-1 29.148493309838976 40.891306651061946 18.959347394951294 0 1 0 I I #
edge $-1 $410 -23.787696559731366 $326 13.066103059516145 $325 $449 forward 7 unknown #
vertex $-1 $409 $450 #
straight-curve $-1 29.148493309838976 -18.5049699432154 65.210456944683443 0 -0.70710677298230451 0.70710678939079041 I I #
point $-1 29.148493309838976 27.746138533254985 18.959347394951294 #
point $-1 -7.7053063094085346 44.674951177952295 2.0305343574191355 #
straight-curve $-1 0 44.674951177952295 18.959347394951294 -1 0 0 I I #
vertex $-1 $332 $451 #
point $-1 2.1654536144409775 29.661601317581532 3.9459974901320103 #
vertex $-1 $336 $452 #
point $-1 13.221593500215221 29.661601317581532 3.9459974901320103 #
vertex $-1 $340 $453 #
point $-1 24.277733385989478 29.661601317581532 3.9459974901320103 #
coedge $-1 $355 $354 $347 $422 forward $344 $-1 #
edge $-1 $423 41.522883152076602 $426 51.279804030098958 $421 $454 forward 7 unknown #
vertex $-1 $359 $455 #
straight-curve $-1 -24.416456602322157 -65.996512072811782 18.959347394951294 0 -1 0 I I #
edge $-1 $426 -18.784972302970679 $356 7.5220037042677248 $355 $456 forward 7 unknown #
vertex $-1 $425 $457 #
straight-curve $-1 -24.416456602322157 -44.674951177952295 9.2024265169289379 0 0.78801074757464917 0.61566148304635926 I I #
point $-1 -24.416456602322157 -32.18666219636247 18.959347394951294 #
point $-1 1.8905194049162475 -44.674951177952295 9.2024265169289379 #
straight-curve $-1 0 -44.674951177952295 18.959347394951294 1 0 0 I I #
vertex $-1 $362 $458 #
point $-1 -15.400177743111186 -35.557826237675584 10.403639744434724 #
vertex $-1 $366 $459 #
point $-1 -4.1257594542947231 -35.557826237675584 10.403639744434724 #
point $-1 70.914029358806118 44.674951177952295 -18.959347394951294 #
point $-1 70.914029358806118 -44.674951177952295 -18.959347394951294 #
straight-curve $-1 70.914029358806118 -44.674951177952295 0 0 0 -1 I I #
straight-curve $-1 70.914029358806118 44.674951177952295 0 0 0 -1 I I #
edge $-1 $403 -4.2320188842864255 $392 4.2320188842864255 $389 $460 forward 7 unknown #
straight-curve $-1 -89.695812602978805 -7.4681948737485229 0 0 0 -1 I I #
straight-curve $-1 -80.304920980892462 -15.932232642321374 18.959347394951294 1 0 0 I I #
point $-1 -89.695812602978805 -15.932232642321374 18.959347394951294 #
point $-1 -89.695812602978805 -15.932232642321374 -18.959347394951294 #
straight-curve $-1 -89.695812602978805 -11.700213758034948 -18.959347394951294 0 1 0 I I #
point $-1 -89.695812602978805 -7.4681948737485229 -18.959347394951294 #
point $-1 -89.695812602978805 -7.4681948737485229 18.959347394951294 #
straight-curve $-1 29.148493309838976 44.674951177952295 82.749018931419513 0 0 -1 I I #
point $-1 29.148493309838976 44.674951177952295 18.959347394951294 #
straight-curve $-1 5.3607967501076104 44.674951177952295 2.0305343574191426 -1 0 0 I I #
point $-1 29.148493309838976 44.674951177952295 2.0305343574191355 #
point $-1 -0.3345463855590225 27.893834344104558 2.1782305576762488 #
point $-1 10.721593500215221 27.893834344104558 2.1782305576762488 #
point $-1 21.777733385989478 27.893834344104558 2.1782305576762488 #
straight-curve $-1 -24.416456602322157 -44.674951177952295 60.482230547027896 0 0 -1 I I #
point $-1 -24.416456602322157 -44.674951177952295 18.959347394951294 #
straight-curve $-1 -5.6314842993514773 -44.674951177952295 9.2024265169289379 1 0 0 I I #
point $-1 -24.416456602322157 -44.674951177952295 9.2024265169289379 #
point $-1 -16.900177743111186 -34.634334013106042 9.2216236230727482 #
point $-1 -5.6257594542947231 -34.634334013106042 9.2216236230727482 #
straight-curve $-1 -89.695812602978805 -11.700213758034948 18.959347394951294 0 -1 0 I I #
End-of-ACIS-data 