500 0 11 0           
7 Unknown 11 ACIS 5.0 NT 24 Thu Mar 25 19:45:23 1999 
-1 9.9999999999999995e-007 1e-010 
body $-1 $11 $-1 $12 #
body $-1 $13 $-1 $14 #
body $-1 $15 $-1 $16 #
body $-1 $17 $-1 $18 #
body $-1 $19 $-1 $20 #
body $-1 $21 $-1 $22 #
body $-1 $23 $-1 $24 #
body $-1 $25 $-1 $26 #
body $-1 $27 $-1 $28 #
body $-1 $29 $-1 $30 #
body $-1 $31 $-1 $32 #
lump $-1 $-1 $33 $0 #
transform $-1 1 0 0 0 1 0 0 0 1 62.50312814722129 34.710056509406627 9.4496902708048864 1 rotate no_reflect no_shear #
lump $-1 $-1 $34 $1 #
transform $-1 1 0 0 0 1 0 0 0 1 62.50312814722129 34.710056509406627 9.4496902708048864 1 rotate no_reflect no_shear #
lump $-1 $-1 $35 $2 #
transform $-1 1 0 0 0 1 0 0 0 1 62.50312814722129 34.710056509406627 9.4496902708048864 1 rotate no_reflect no_shear #
lump $-1 $-1 $36 $3 #
transform $-1 1 0 0 0 1 0 0 0 1 62.50312814722129 34.710056509406627 9.4496902708048864 1 rotate no_reflect no_shear #
lump $-1 $-1 $37 $4 #
transform $-1 1 0 0 0 1 0 0 0 1 62.50312814722129 34.710056509406627 9.4496902708048864 1 rotate no_reflect no_shear #
lump $-1 $-1 $38 $5 #
transform $-1 1 0 0 0 1 0 0 0 1 62.50312814722129 34.710056509406627 9.4496902708048864 1 rotate no_reflect no_shear #
lump $-1 $-1 $39 $6 #
transform $-1 1 0 0 0 1 0 0 0 1 62.50312814722129 34.710056509406627 9.4496902708048864 1 rotate no_reflect no_shear #
lump $-1 $-1 $40 $7 #
transform $-1 1 0 0 0 1 0 0 0 1 62.50312814722129 34.710056509406627 9.4496902708048864 1 rotate no_reflect no_shear #
lump $-1 $-1 $41 $8 #
transform $-1 1 0 0 0 1 0 0 0 1 62.50312814722129 34.710056509406627 9.4496902708048864 1 rotate no_reflect no_shear #
lump $-1 $-1 $42 $9 #
transform $-1 1 0 0 0 1 0 0 0 1 62.50312814722129 34.710056509406627 9.4496902708048864 1 rotate no_reflect no_shear #
lump $-1 $-1 $43 $10 #
transform $-1 1 0 0 0 1 0 0 0 1 62.50312814722129 34.710056509406627 9.4496902708048864 1 rotate no_reflect no_shear #
shell $-1 $-1 $-1 $44 $-1 $11 #
shell $-1 $-1 $-1 $45 $-1 $13 #
shell $-1 $-1 $-1 $46 $-1 $15 #
shell $-1 $-1 $-1 $47 $-1 $17 #
shell $-1 $-1 $-1 $48 $-1 $19 #
shell $-1 $-1 $-1 $49 $-1 $21 #
shell $-1 $-1 $-1 $50 $-1 $23 #
shell $-1 $-1 $-1 $51 $-1 $25 #
shell $-1 $-1 $-1 $52 $-1 $27 #
shell $-1 $-1 $-1 $53 $-1 $29 #
shell $-1 $-1 $-1 $54 $-1 $31 #
face $-1 $55 $56 $33 $-1 $57 forward single #
face $-1 $58 $59 $34 $-1 $60 forward single #
face $-1 $61 $62 $35 $-1 $63 reversed single #
face $-1 $64 $65 $36 $-1 $66 forward single #
face $-1 $67 $68 $37 $-1 $69 forward single #
face $-1 $70 $71 $38 $-1 $72 reversed single #
face $-1 $73 $74 $39 $-1 $75 forward single #
face $-1 $76 $77 $40 $-1 $78 forward single #
face $-1 $79 $80 $41 $-1 $81 reversed single #
face $-1 $82 $83 $42 $-1 $84 forward single #
face $-1 $85 $86 $43 $-1 $87 forward single #
face $-1 $88 $89 $33 $-1 $90 reversed single #
loop $-1 $-1 $91 $44 #
plane-surface $-1 0 0 9.4496902708048864 0 0 1 1 0 0 forward_v I I I I #
face $-1 $92 $93 $34 $-1 $94 reversed single #
loop $-1 $-1 $95 $45 #
plane-surface $-1 -58.055506995202109 0 -3.7641715028147544 0 0 1 1 0 0 forward_v I I I I #
face $-1 $96 $97 $35 $-1 $98 reversed single #
loop $-1 $-1 $99 $46 #
plane-surface $-1 -18.752434551807074 85.848017708788262 136.78721047631629 1 0 0 0 -0.7660444514056185 -0.64278759981090561 forward_v I I I I #
face $-1 $100 $101 $36 $-1 $102 forward single #
loop $-1 $103 $104 $47 #
cone-surface $-1 -12.12384720785672 30.805996615835934 5.257379288631328 0 -0.7660444514056185 -0.64278759981090561 1.5 0 0 1 I I 0 1 1.5 forward I I I I #
face $-1 $105 $106 $37 $-1 $107 forward single #
loop $-1 $108 $109 $48 #
cone-surface $-1 -2.1809661919311765 30.805996615835934 5.257379288631328 0 -0.7660444514056185 -0.64278759981090561 1.5 0 0 1 I I 0 1 1.5 forward I I I I #
face $-1 $110 $111 $38 $-1 $112 reversed single #
loop $-1 $-1 $113 $49 #
plane-surface $-1 39.303072443395038 85.848017708788262 136.78721047631629 1 0 0 0 -0.7660444514056185 -0.64278759981090561 forward_v I I I I #
face $-1 $114 $115 $39 $-1 $116 forward single #
loop $-1 $117 $118 $50 #
cone-surface $-1 45.931659787345396 30.805996615835934 5.257379288631328 0 -0.7660444514056185 -0.64278759981090561 1.5 0 0 1 I I 0 1 1.5 forward I I I I #
face $-1 $119 $120 $40 $-1 $121 forward single #
loop $-1 $122 $123 $51 #
cone-surface $-1 55.874540803270932 30.805996615835934 5.257379288631328 0 -0.7660444514056185 -0.64278759981090561 1.5 0 0 1 I I 0 1 1.5 forward I I I I #
face $-1 $124 $125 $41 $-1 $126 reversed single #
loop $-1 $-1 $127 $52 #
plane-surface $-1 44.239973785145359 -134.5444927922652 77.472001051166728 -1 0 0 0 -0.79863551827123203 0.60181501223851219 forward_v I I I I #
face $-1 $128 $129 $42 $-1 $130 forward single #
loop $-1 $131 $132 $53 #
cone-surface $-1 20.980968844154603 -30.570803368132193 4.772976495830167 0 0.79863551827123203 -0.60181501223851219 1 0 0 1 I I 0 1 1 forward I I I I #
face $-1 $133 $134 $43 $-1 $135 forward single #
loop $-1 $136 $137 $54 #
cone-surface $-1 34.936371808749058 -30.570803368132193 4.772976495830167 0 0.79863551827123203 -0.60181501223851219 1 0 0 1 I I 0 1 1 forward I I I I #
face $-1 $138 $139 $33 $-1 $140 reversed single #
loop $-1 $-1 $141 $55 #
plane-surface $-1 0 0 -9.4496902708048864 0 0 1 1 0 0 forward_v I I I I #
coedge $-1 $142 $143 $144 $145 forward $56 $-1 #
face $-1 $146 $147 $34 $-1 $148 reversed single #
loop $-1 $-1 $149 $58 #
plane-surface $-1 -58.055506995202109 0 -8.5065219392651379 0 0 1 1 0 0 forward_v I I I I #
coedge $-1 $150 $151 $152 $153 forward $59 $-1 #
face $-1 $154 $155 $35 $-1 $156 reversed single #
loop $-1 $-1 $157 $61 #
plane-surface $-1 -7.1524066998939446 -9.9123313165581521 56.43473903146463 0 0.7660444514056185 0.64278759981090561 1 0 0 forward_v I I I I #
coedge $-1 $158 $159 $160 $161 reversed $62 $-1 #
face $-1 $-1 $162 $36 $-1 $163 forward single #
loop $-1 $164 $165 $64 #
cone-surface $-1 -12.12384720785672 28.926029269834032 3.6798994232761189 0 -0.7660444514056185 -0.64278759981090561 0.75 0 0 1 I I -0.70710678118654757 0.70710678118654757 0.75 forward I I I I #
loop $-1 $-1 $166 $47 #
coedge $-1 $104 $104 $167 $168 reversed $65 $-1 #
face $-1 $-1 $169 $37 $-1 $170 forward single #
loop $-1 $171 $172 $67 #
cone-surface $-1 -2.1809661919311765 28.926029269834032 3.6798994232761189 0 -0.7660444514056185 -0.64278759981090561 0.75 0 0 1 I I -0.70710678118654757 0.70710678118654757 0.75 forward I I I I #
loop $-1 $-1 $173 $48 #
coedge $-1 $109 $109 $174 $175 reversed $68 $-1 #
face $-1 $176 $177 $38 $-1 $178 forward single #
loop $-1 $-1 $179 $70 #
plane-surface $-1 50.903100295308164 -9.9123313165581521 56.43473903146463 0 0.7660444514056185 0.64278759981090561 1 0 0 forward_v I I I I #
coedge $-1 $180 $181 $182 $183 reversed $71 $-1 #
face $-1 $-1 $184 $39 $-1 $185 forward single #
loop $-1 $186 $187 $73 #
cone-surface $-1 45.931659787345396 28.926029269834032 3.6798994232761189 0 -0.7660444514056185 -0.64278759981090561 0.75 0 0 1 I I -0.70710678118654757 0.70710678118654757 0.75 forward I I I I #
loop $-1 $-1 $188 $50 #
coedge $-1 $118 $118 $189 $190 reversed $74 $-1 #
face $-1 $-1 $191 $40 $-1 $192 forward single #
loop $-1 $193 $194 $76 #
cone-surface $-1 55.874540803270932 28.926029269834032 3.6798994232761189 0 -0.7660444514056185 -0.64278759981090561 0.75 0 0 1 I I -0.70710678118654757 0.70710678118654757 0.75 forward I I I I #
loop $-1 $-1 $195 $51 #
coedge $-1 $123 $123 $196 $197 reversed $77 $-1 #
face $-1 $198 $199 $41 $-1 $200 reversed single #
loop $-1 $-1 $201 $79 #
plane-surface $-1 27.958670326451838 -34.710056509406598 2.2413593894361696 0 -0.79863551827123203 0.60181501223851219 1 0 0 forward_v I I I I #
coedge $-1 $202 $203 $204 $205 reversed $80 $-1 #
face $-1 $-1 $206 $42 $-1 $207 forward single #
loop $-1 $208 $209 $82 #
cone-surface $-1 20.980968844154603 -28.748165855571326 3.3995206554205453 0 0.79863551827123203 -0.60181501223851219 0.5 0 0 1 I I -0.70710678118654746 0.70710678118654746 0.5 forward I I I I #
loop $-1 $-1 $210 $53 #
coedge $-1 $132 $132 $211 $212 reversed $83 $-1 #
face $-1 $-1 $213 $43 $-1 $214 forward single #
loop $-1 $215 $216 $85 #
cone-surface $-1 34.936371808749058 -28.748165855571326 3.3995206554205453 0 0.79863551827123203 -0.60181501223851219 0.5 0 0 1 I I -0.70710678118654746 0.70710678118654746 0.5 forward I I I I #
loop $-1 $-1 $217 $54 #
coedge $-1 $137 $137 $218 $219 reversed $86 $-1 #
face $-1 $220 $221 $33 $-1 $222 reversed single #
loop $-1 $-1 $223 $88 #
plane-surface $-1 0 -34.710056509406627 0 0 1 0 0 0 1 forward_v I I I I #
coedge $-1 $224 $225 $226 $227 forward $89 $-1 #
coedge $-1 $228 $91 $229 $230 forward $56 $-1 #
coedge $-1 $91 $228 $231 $232 forward $56 $-1 #
coedge $-1 $233 $234 $91 $145 reversed $235 $-1 #
edge $-1 $236 -34.710056509406627 $237 34.710056509406627 $144 $238 forward 7 unknown #
face $-1 $239 $240 $34 $-1 $241 reversed single #
loop $-1 $-1 $242 $92 #
plane-surface $-1 -53.607885843182927 0 -6.1353467210399462 -1 0 0 0 0 1 forward_v I I I I #
coedge $-1 $243 $244 $245 $246 forward $93 $-1 #
coedge $-1 $247 $95 $248 $249 reversed $59 $-1 #
coedge $-1 $95 $247 $250 $251 reversed $59 $-1 #
coedge $-1 $242 $252 $95 $153 reversed $147 $-1 #
edge $-1 $253 -34.710056509406627 $254 34.710056509406627 $152 $255 forward 7 unknown #
face $-1 $256 $257 $35 $-1 $258 forward single #
loop $-1 $-1 $259 $96 #
plane-surface $-1 4.4476211520191846 85.848017708788262 136.78721047631629 -1 0 0 0 0.7660444514056185 0.64278759981090561 forward_v I I I I #
coedge $-1 $260 $261 $262 $263 reversed $97 $-1 #
coedge $-1 $159 $99 $264 $265 reversed $62 $-1 #
coedge $-1 $99 $158 $260 $266 reversed $62 $-1 #
coedge $-1 $262 $267 $99 $161 forward $257 $-1 #
edge $-1 $268 8.2139523449875043 $269 13.411204117233545 $160 $270 forward 7 unknown #
loop $-1 $-1 $167 $100 #
plane-surface $-1 -7.1524066998939446 -9.9123313165581521 56.43473903146463 0 0.7660444514056185 0.64278759981090561 1 0 0 forward_v I I I I #
loop $-1 $-1 $271 $64 #
coedge $-1 $165 $165 $166 $272 reversed $101 $-1 #
coedge $-1 $166 $166 $165 $272 forward $103 $-1 #
coedge $-1 $167 $167 $104 $168 forward $162 $-1 #
edge $-1 $273 6.2772523386298289e-017 $273 6.2831853071796004 $167 $274 forward 7 unknown #
loop $-1 $-1 $174 $105 #
plane-surface $-1 -7.1524066998939446 -9.9123313165581521 56.43473903146463 0 0.7660444514056185 0.64278759981090561 1 0 0 forward_v I I I I #
loop $-1 $-1 $275 $67 #
coedge $-1 $172 $172 $173 $276 reversed $106 $-1 #
coedge $-1 $173 $173 $172 $276 forward $108 $-1 #
coedge $-1 $174 $174 $109 $175 forward $169 $-1 #
edge $-1 $277 6.2772523386298289e-017 $277 6.2831853071796004 $174 $278 forward 7 unknown #
face $-1 $279 $280 $38 $-1 $281 reversed single #
loop $-1 $-1 $182 $110 #
plane-surface $-1 0 0 9.4496902708048864 0 0 1 1 0 0 forward_v I I I I #
coedge $-1 $282 $283 $284 $285 reversed $111 $-1 #
coedge $-1 $181 $113 $286 $287 reversed $71 $-1 #
coedge $-1 $113 $180 $282 $288 reversed $71 $-1 #
coedge $-1 $284 $289 $113 $183 forward $177 $-1 #
edge $-1 $290 8.2139523449875043 $291 13.411204117233545 $182 $292 forward 7 unknown #
loop $-1 $-1 $189 $114 #
plane-surface $-1 50.903100295308164 -9.9123313165581521 56.43473903146463 0 0.7660444514056185 0.64278759981090561 1 0 0 forward_v I I I I #
loop $-1 $-1 $293 $73 #
coedge $-1 $187 $187 $188 $294 reversed $115 $-1 #
coedge $-1 $188 $188 $187 $294 forward $117 $-1 #
coedge $-1 $189 $189 $118 $190 forward $184 $-1 #
edge $-1 $295 6.2772523386298289e-017 $295 6.2831853071796004 $189 $296 forward 7 unknown #
loop $-1 $-1 $196 $119 #
plane-surface $-1 50.903100295308164 -9.9123313165581521 56.43473903146463 0 0.7660444514056185 0.64278759981090561 1 0 0 forward_v I I I I #
loop $-1 $-1 $297 $76 #
coedge $-1 $194 $194 $195 $298 reversed $120 $-1 #
coedge $-1 $195 $195 $194 $298 forward $122 $-1 #
coedge $-1 $196 $196 $123 $197 forward $191 $-1 #
edge $-1 $299 6.2772523386298289e-017 $299 6.2831853071796004 $196 $300 forward 7 unknown #
face $-1 $301 $302 $41 $-1 $303 reversed single #
loop $-1 $-1 $304 $124 #
plane-surface $-1 11.677366867758316 -134.5444927922652 77.472001051166728 1 0 0 0 0.79863551827123203 -0.60181501223851219 forward_v I I I I #
coedge $-1 $305 $306 $307 $308 reversed $125 $-1 #
coedge $-1 $203 $127 $309 $310 reversed $80 $-1 #
coedge $-1 $127 $202 $305 $311 reversed $80 $-1 #
coedge $-1 $307 $312 $127 $205 forward $313 $-1 #
edge $-1 $314 32.562189886725974 $315 37.994056662424384 $204 $316 forward 7 unknown #
loop $-1 $-1 $211 $128 #
plane-surface $-1 27.958670326451838 -34.710056509406598 2.2413593894361696 0 -0.79863551827123203 0.60181501223851219 1 0 0 forward_v I I I I #
loop $-1 $-1 $317 $82 #
coedge $-1 $209 $209 $210 $318 reversed $129 $-1 #
coedge $-1 $210 $210 $209 $318 forward $131 $-1 #
coedge $-1 $211 $211 $132 $212 forward $206 $-1 #
edge $-1 $319 6.4882726163261355e-016 $319 6.2831853071796013 $211 $320 forward 7 unknown #
loop $-1 $-1 $218 $133 #
plane-surface $-1 27.958670326451838 -34.710056509406598 2.2413593894361696 0 -0.79863551827123203 0.60181501223851219 1 0 0 forward_v I I I I #
loop $-1 $-1 $321 $85 #
coedge $-1 $216 $216 $217 $322 reversed $134 $-1 #
coedge $-1 $217 $217 $216 $322 forward $136 $-1 #
coedge $-1 $218 $218 $137 $219 forward $213 $-1 #
edge $-1 $323 6.4882726163261355e-016 $323 6.2831853071796013 $218 $324 forward 7 unknown #
face $-1 $325 $326 $33 $-1 $327 reversed single #
loop $-1 $-1 $328 $138 #
plane-surface $-1 -62.50312814722129 0 0 1 0 0 0 0 -1 forward_v I I I I #
coedge $-1 $329 $231 $330 $331 forward $139 $-1 #
coedge $-1 $332 $141 $329 $333 forward $89 $-1 #
coedge $-1 $141 $332 $334 $335 forward $89 $-1 #
coedge $-1 $234 $233 $141 $227 reversed $235 $-1 #
edge $-1 $336 -34.710056509406627 $337 34.710056509406627 $226 $338 forward 7 unknown #
coedge $-1 $143 $142 $339 $340 forward $56 $-1 #
coedge $-1 $341 $342 $142 $230 reversed $326 $-1 #
edge $-1 $237 -62.50312814722129 $343 62.50312814722129 $229 $344 forward 7 unknown #
coedge $-1 $223 $345 $143 $232 reversed $139 $-1 #
edge $-1 $346 -62.50312814722129 $236 62.50312814722129 $231 $347 forward 7 unknown #
coedge $-1 $226 $144 $345 $348 forward $235 $-1 #
coedge $-1 $144 $226 $341 $349 reversed $235 $-1 #
loop $-1 $-1 $233 $325 #
vertex $-1 $145 $350 #
vertex $-1 $145 $351 #
straight-curve $-1 62.50312814722129 0 9.4496902708048864 0 1 0 I I #
face $-1 $352 $353 $34 $-1 $354 reversed single #
loop $-1 $-1 $355 $146 #
plane-surface $-1 0 -34.710056509406627 0 0 1 0 0 0 1 forward_v I I I I #
coedge $-1 $245 $152 $356 $357 reversed $147 $-1 #
coedge $-1 $358 $149 $355 $359 reversed $93 $-1 #
coedge $-1 $149 $358 $360 $361 reversed $93 $-1 #
coedge $-1 $252 $242 $149 $246 reversed $147 $-1 #
edge $-1 $362 -34.710056509406627 $363 34.710056509406627 $245 $364 forward 7 unknown #
coedge $-1 $151 $150 $365 $366 reversed $59 $-1 #
coedge $-1 $367 $368 $150 $249 forward $369 $-1 #
edge $-1 $370 -33.475374649620235 $254 -24.580132345581873 $248 $371 forward 7 unknown #
coedge $-1 $372 $356 $151 $251 forward $240 $-1 #
edge $-1 $253 24.580132345581873 $373 33.475374649620235 $250 $374 forward 7 unknown #
coedge $-1 $152 $245 $367 $375 reversed $147 $-1 #
vertex $-1 $251 $376 #
vertex $-1 $249 $377 #
straight-curve $-1 -53.607885843182927 0 -3.7641715028147544 0 1 0 I I #
face $-1 $-1 $378 $35 $-1 $379 reversed single #
loop $-1 $-1 $160 $154 #
plane-surface $-1 0 0 9.4496902708048864 0 0 1 1 0 0 forward_v I I I I #
coedge $-1 $380 $381 $382 $383 reversed $155 $-1 #
coedge $-1 $384 $157 $159 $266 forward $97 $-1 #
coedge $-1 $157 $384 $380 $385 forward $97 $-1 #
coedge $-1 $382 $160 $157 $263 forward $257 $-1 #
edge $-1 $269 -15.176231201860102 $386 8.0238245019661569 $262 $387 forward 7 unknown #
coedge $-1 $388 $389 $158 $265 forward $378 $-1 #
edge $-1 $390 -65.137758600706348 $268 -58.943914967353258 $264 $391 forward 7 unknown #
edge $-1 $269 61.334624478314112 $390 69.420113018813282 $159 $392 forward 7 unknown #
coedge $-1 $160 $382 $388 $393 forward $257 $-1 #
vertex $-1 $265 $394 #
vertex $-1 $161 $395 #
straight-curve $-1 -18.752434551807074 42.924008854394131 9.4496902708048864 0 -1 0 I I #
coedge $-1 $271 $271 $-1 $396 reversed $164 $-1 #
edge $-1 $397 0 $397 6.2831853071796004 $165 $398 forward 7 unknown #
vertex $-1 $168 $399 #
ellipse-curve $-1 -12.12384720785672 32.111430623283596 6.3527684541283396 0 0.7660444514056185 0.64278759981090561 1.5 0 0 1 I I #
coedge $-1 $275 $275 $-1 $400 reversed $171 $-1 #
edge $-1 $401 0 $401 6.2831853071796004 $172 $402 forward 7 unknown #
vertex $-1 $175 $403 #
ellipse-curve $-1 -2.1809661919311765 32.111430623283596 6.3527684541283396 0 0.7660444514056185 0.64278759981090561 1.5 0 0 1 I I #
face $-1 $-1 $404 $38 $-1 $405 reversed single #
loop $-1 $-1 $406 $176 #
plane-surface $-1 62.50312814722129 0 0 -1 0 0 0 0 1 forward_v I I I I #
coedge $-1 $407 $179 $181 $288 forward $111 $-1 #
coedge $-1 $179 $407 $406 $408 reversed $111 $-1 #
coedge $-1 $409 $182 $179 $285 forward $177 $-1 #
edge $-1 $291 13.851522295740956 $410 37.051577999567208 $284 $411 forward 7 unknown #
coedge $-1 $412 $413 $180 $287 forward $404 $-1 #
edge $-1 $414 -65.137758600706348 $290 -58.943914967353258 $286 $415 forward 7 unknown #
edge $-1 $291 61.334624478314112 $414 69.420113018813282 $181 $416 forward 7 unknown #
coedge $-1 $182 $409 $412 $417 forward $177 $-1 #
vertex $-1 $287 $418 #
vertex $-1 $183 $419 #
straight-curve $-1 39.303072443395038 42.924008854394131 9.4496902708048864 0 -1 0 I I #
coedge $-1 $293 $293 $-1 $420 reversed $186 $-1 #
edge $-1 $421 0 $421 6.2831853071796004 $187 $422 forward 7 unknown #
vertex $-1 $190 $423 #
ellipse-curve $-1 45.931659787345396 32.111430623283596 6.3527684541283396 0 0.7660444514056185 0.64278759981090561 1.5 0 0 1 I I #
coedge $-1 $297 $297 $-1 $424 reversed $193 $-1 #
edge $-1 $425 0 $425 6.2831853071796004 $194 $426 forward 7 unknown #
vertex $-1 $197 $427 #
ellipse-curve $-1 55.874540803270932 32.111430623283596 6.3527684541283396 0 0.7660444514056185 0.64278759981090561 1.5 0 0 1 I I #
face $-1 $-1 $313 $41 $-1 $428 forward single #
loop $-1 $-1 $429 $198 #
plane-surface $-1 0 -34.710056509406627 0 0 1 0 0 0 1 forward_v I I I I #
coedge $-1 $430 $431 $432 $433 reversed $199 $-1 #
coedge $-1 $434 $201 $203 $311 forward $125 $-1 #
coedge $-1 $201 $434 $430 $435 forward $125 $-1 #
coedge $-1 $432 $204 $201 $308 forward $313 $-1 #
edge $-1 $315 -30.260638621919441 $436 2.3019682954676028 $307 $437 forward 7 unknown #
coedge $-1 $438 $439 $202 $310 forward $302 $-1 #
edge $-1 $440 -36.49464113614723 $314 -29.286310254778478 $309 $441 forward 7 unknown #
edge $-1 $315 -9.0258080394073197 $440 4.7251171791415696e-014 $203 $442 forward 7 unknown #
coedge $-1 $204 $432 $438 $443 forward $313 $-1 #
loop $-1 $-1 $432 $301 #
vertex $-1 $310 $444 #
vertex $-1 $205 $445 #
straight-curve $-1 44.239973785145359 -67.272246396132601 9.4496902708048864 0 1 0 I I #
coedge $-1 $317 $317 $-1 $446 reversed $208 $-1 #
edge $-1 $447 0 $447 6.2831853071796004 $209 $448 forward 7 unknown #
vertex $-1 $212 $449 #
ellipse-curve $-1 20.980968844154603 -31.994123121557418 5.8455248301205156 0 -0.79863551827123203 0.60181501223851219 1 0 0 1 I I #
coedge $-1 $321 $321 $-1 $450 reversed $215 $-1 #
edge $-1 $451 0 $451 6.2831853071796004 $216 $452 forward 7 unknown #
vertex $-1 $219 $453 #
ellipse-curve $-1 34.936371808749058 -31.994123121557418 5.8455248301205156 0 -0.79863551827123203 0.60181501223851219 1 0 0 1 I I #
face $-1 $-1 $235 $33 $-1 $454 reversed single #
loop $-1 $-1 $341 $220 #
plane-surface $-1 0 34.710056509406627 0 0 -1 0 0 0 -1 forward_v I I I I #
coedge $-1 $455 $339 $342 $456 forward $221 $-1 #
coedge $-1 $345 $223 $224 $333 reversed $139 $-1 #
coedge $-1 $339 $455 $223 $331 reversed $221 $-1 #
edge $-1 $346 -9.4496902708048864 $457 9.4496902708048864 $330 $458 forward 7 unknown #
coedge $-1 $225 $224 $455 $459 forward $89 $-1 #
edge $-1 $337 -62.50312814722129 $457 62.50312814722129 $329 $460 forward 7 unknown #
coedge $-1 $342 $341 $225 $335 reversed $326 $-1 #
edge $-1 $461 -62.50312814722129 $336 62.50312814722129 $334 $462 forward 7 unknown #
vertex $-1 $227 $463 #
vertex $-1 $348 $464 #
straight-curve $-1 62.50312814722129 0 -9.4496902708048864 0 -1 0 I I #
coedge $-1 $328 $330 $228 $340 reversed $221 $-1 #
edge $-1 $343 -34.710056509406627 $346 34.710056509406627 $339 $465 forward 7 unknown #
coedge $-1 $334 $229 $234 $349 forward $326 $-1 #
coedge $-1 $229 $334 $328 $456 reversed $326 $-1 #
vertex $-1 $230 $466 #
straight-curve $-1 0 34.710056509406627 9.4496902708048864 -1 0 0 I I #
coedge $-1 $231 $329 $233 $348 reversed $139 $-1 #
vertex $-1 $340 $467 #
straight-curve $-1 0 -34.710056509406627 9.4496902708048864 1 0 0 I I #
edge $-1 $236 -9.4496902708048864 $337 9.4496902708048864 $233 $468 forward 7 unknown #
edge $-1 $237 -9.4496902708048864 $336 9.4496902708048864 $234 $469 forward 7 unknown #
point $-1 62.50312814722129 -34.710056509406627 9.4496902708048864 #
point $-1 62.50312814722129 34.710056509406627 9.4496902708048864 #
face $-1 $-1 $369 $34 $-1 $470 reversed single #
loop $-1 $-1 $471 $239 #
plane-surface $-1 -62.50312814722129 0 0 1 0 0 0 0 -1 forward_v I I I I #
coedge $-1 $356 $372 $243 $359 forward $240 $-1 #
coedge $-1 $250 $355 $242 $357 forward $240 $-1 #
edge $-1 $363 -5.4388485787451648 $253 -0.69649814229478135 $356 $472 forward 7 unknown #
coedge $-1 $244 $243 $471 $473 reversed $93 $-1 #
edge $-1 $474 -33.475374649620235 $363 -24.580132345581873 $355 $475 forward 7 unknown #
coedge $-1 $368 $367 $244 $361 forward $369 $-1 #
edge $-1 $362 24.580132345581873 $476 33.475374649620235 $360 $477 forward 7 unknown #
vertex $-1 $361 $478 #
vertex $-1 $359 $479 #
straight-curve $-1 -53.607885843182927 0 -8.5065219392651379 0 -1 0 I I #
coedge $-1 $480 $481 $247 $366 forward $353 $-1 #
edge $-1 $373 -34.710056509406627 $370 34.710056509406627 $365 $482 forward 7 unknown #
coedge $-1 $360 $248 $252 $375 forward $369 $-1 #
coedge $-1 $248 $360 $480 $483 reversed $369 $-1 #
loop $-1 $-1 $360 $352 #
vertex $-1 $483 $484 #
straight-curve $-1 -29.027753497601054 34.710056509406627 -3.7641715028147544 1 0 0 I I #
coedge $-1 $355 $250 $481 $485 forward $240 $-1 #
vertex $-1 $485 $486 #
straight-curve $-1 -29.027753497601054 -34.710056509406627 -3.7641715028147544 -1 0 0 I I #
edge $-1 $254 0.69649814229478135 $362 5.4388485787451648 $367 $487 forward 7 unknown #
point $-1 -53.607885843182927 -34.710056509406627 -3.7641715028147544 #
point $-1 -53.607885843182927 34.710056509406627 -3.7641715028147544 #
loop $-1 $-1 $264 $256 #
plane-surface $-1 0 34.710056509406627 0 0 -1 0 0 0 -1 forward_v I I I I #
coedge $-1 $381 $259 $261 $385 reversed $155 $-1 #
coedge $-1 $259 $380 $488 $489 reversed $155 $-1 #
coedge $-1 $267 $262 $259 $383 forward $257 $-1 #
edge $-1 $386 -13.411204117233545 $490 -8.2139523449875043 $382 $491 forward 7 unknown #
coedge $-1 $261 $260 $389 $492 reversed $97 $-1 #
edge $-1 $493 -69.420113018813282 $386 -61.334624478314112 $380 $494 forward 7 unknown #
vertex $-1 $263 $495 #
straight-curve $-1 -3.5762033499469723 29.512804737160593 9.4496902708048864 1 0 0 I I #
coedge $-1 $488 $264 $267 $393 reversed $378 $-1 #
coedge $-1 $264 $488 $384 $492 forward $378 $-1 #
vertex $-1 $265 $496 #
straight-curve $-1 -18.752434551807074 34.710056509406627 68.393605238158145 0 0 1 I I #
straight-curve $-1 -18.752434551807074 -9.9123313165581521 56.43473903146463 0 0.64278759981090561 -0.7660444514056185 I I #
edge $-1 $490 -4.4476211520191846 $268 18.752434551807074 $388 $497 forward 7 unknown #
point $-1 -18.752434551807074 34.710056509406627 9.4496902708048864 #
point $-1 -18.752434551807074 29.512804737160586 9.4496902708048864 #
edge $-1 $498 1 $498 0 $271 $-1 forward 7 unknown #
vertex $-1 $272 $499 #
ellipse-curve $-1 -12.12384720785672 29.500562608388247 4.1619901231342977 0 0.7660444514056185 0.64278759981090561 1.5 0 0 1 I I #
point $-1 -10.62384720785672 32.111430623283617 6.3527684541283573 #
edge $-1 $500 1 $500 0 $275 $-1 forward 7 unknown #
vertex $-1 $276 $501 #
ellipse-curve $-1 -2.1809661919311765 29.500562608388247 4.1619901231342977 0 0.7660444514056185 0.64278759981090561 1.5 0 0 1 I I #
point $-1 -0.68096619193117647 32.111430623283617 6.3527684541283573 #
loop $-1 $-1 $286 $279 #
plane-surface $-1 0 34.710056509406627 0 0 -1 0 0 0 -1 forward_v I I I I #
coedge $-1 $502 $503 $283 $408 forward $280 $-1 #
coedge $-1 $283 $282 $413 $504 reversed $111 $-1 #
edge $-1 $410 36.533103299774879 $505 44.618591840274043 $406 $506 forward 7 unknown #
coedge $-1 $289 $284 $503 $507 forward $177 $-1 #
vertex $-1 $507 $508 #
straight-curve $-1 25.451550147654082 29.512804737160593 9.4496902708048864 1 0 0 I I #
coedge $-1 $509 $286 $289 $417 reversed $404 $-1 #
coedge $-1 $286 $509 $407 $504 forward $404 $-1 #
vertex $-1 $287 $510 #
straight-curve $-1 39.303072443395038 34.710056509406627 68.393605238158145 0 0 1 I I #
straight-curve $-1 39.303072443395038 -9.9123313165581521 56.43473903146463 0 0.64278759981090561 -0.7660444514056185 I I #
edge $-1 $511 -62.50312814722129 $290 -39.303072443395038 $412 $512 forward 7 unknown #
point $-1 39.303072443395038 34.710056509406627 9.4496902708048864 #
point $-1 39.303072443395038 29.512804737160586 9.4496902708048864 #
edge $-1 $513 1 $513 0 $293 $-1 forward 7 unknown #
vertex $-1 $294 $514 #
ellipse-curve $-1 45.931659787345396 29.500562608388247 4.1619901231342977 0 0.7660444514056185 0.64278759981090561 1.5 0 0 1 I I #
point $-1 47.431659787345396 32.111430623283617 6.3527684541283573 #
edge $-1 $515 1 $515 0 $297 $-1 forward 7 unknown #
vertex $-1 $298 $516 #
ellipse-curve $-1 55.874540803270932 29.500562608388247 4.1619901231342977 0 0.7660444514056185 0.64278759981090561 1.5 0 0 1 I I #
point $-1 57.374540803270932 32.111430623283617 6.3527684541283573 #
plane-surface $-1 0 0 9.4496902708048864 0 0 1 1 0 0 forward_v I I I I #
coedge $-1 $439 $438 $431 $517 forward $302 $-1 #
coedge $-1 $431 $304 $306 $435 reversed $199 $-1 #
coedge $-1 $304 $430 $429 $517 reversed $199 $-1 #
coedge $-1 $312 $307 $304 $433 forward $313 $-1 #
edge $-1 $436 -37.994056662424384 $518 -32.562189886725974 $432 $519 forward 7 unknown #
coedge $-1 $306 $305 $439 $520 reversed $125 $-1 #
edge $-1 $521 -4.7251171791415696e-014 $436 9.0258080394073197 $430 $522 forward 7 unknown #
vertex $-1 $308 $523 #
straight-curve $-1 13.979335163225919 -29.278189733708217 9.4496902708048864 -1 0 0 I I #
coedge $-1 $429 $309 $312 $443 reversed $302 $-1 #
coedge $-1 $309 $429 $434 $520 forward $302 $-1 #
vertex $-1 $310 $524 #
straight-curve $-1 44.239973785145359 -34.710056509406627 38.736000525583364 0 0 1 I I #
straight-curve $-1 44.239973785145359 -34.710056509406598 2.2413593894361696 0 -0.60181501223851219 -0.79863551827123203 I I #
edge $-1 $518 11.677366867758316 $314 44.239973785145359 $438 $525 forward 7 unknown #
point $-1 44.239973785145359 -34.710056509406627 9.4496902708048864 #
point $-1 44.239973785145359 -29.278189733708221 9.4496902708048864 #
edge $-1 $526 1 $526 0 $317 $-1 forward 7 unknown #
vertex $-1 $318 $527 #
ellipse-curve $-1 20.980968844154603 -29.147483614706942 3.7004281615398016 0 -0.79863551827123203 0.60181501223851219 1 0 0 1 I I #
point $-1 21.980968844154603 -31.99412312155744 5.8455248301205325 #
edge $-1 $528 1 $528 0 $321 $-1 forward 7 unknown #
vertex $-1 $322 $529 #
ellipse-curve $-1 34.936371808749058 -29.147483614706942 3.7004281615398016 0 -0.79863551827123203 0.60181501223851219 1 0 0 1 I I #
point $-1 35.936371808749058 -31.99412312155744 5.8455248301205325 #
plane-surface $-1 62.50312814722129 0 0 -1 0 0 0 0 1 forward_v I I I I #
coedge $-1 $330 $328 $332 $459 reversed $221 $-1 #
edge $-1 $343 -9.4496902708048864 $461 9.4496902708048864 $342 $530 forward 7 unknown #
vertex $-1 $459 $531 #
straight-curve $-1 -62.50312814722129 -34.710056509406627 0 0 0 -1 I I #
edge $-1 $457 -34.710056509406627 $461 34.710056509406627 $455 $532 forward 7 unknown #
straight-curve $-1 0 -34.710056509406627 -9.4496902708048864 -1 0 0 I I #
vertex $-1 $335 $533 #
straight-curve $-1 0 34.710056509406627 -9.4496902708048864 1 0 0 I I #
point $-1 62.50312814722129 34.710056509406627 -9.4496902708048864 #
point $-1 62.50312814722129 -34.710056509406627 -9.4496902708048864 #
straight-curve $-1 -62.50312814722129 0 9.4496902708048864 0 -1 0 I I #
point $-1 -62.50312814722129 34.710056509406627 9.4496902708048864 #
point $-1 -62.50312814722129 -34.710056509406627 9.4496902708048864 #
straight-curve $-1 62.50312814722129 -34.710056509406627 0 0 0 -1 I I #
straight-curve $-1 62.50312814722129 34.710056509406627 0 0 0 -1 I I #
plane-surface $-1 0 34.710056509406627 0 0 -1 0 0 0 -1 forward_v I I I I #
coedge $-1 $481 $480 $358 $473 forward $353 $-1 #
straight-curve $-1 -53.607885843182927 -34.710056509406627 -3.0676733605199731 0 0 1 I I #
edge $-1 $476 -34.710056509406627 $474 34.710056509406627 $471 $534 forward 7 unknown #
vertex $-1 $359 $535 #
straight-curve $-1 -29.027753497601054 -34.710056509406627 -8.5065219392651379 1 0 0 I I #
vertex $-1 $361 $536 #
straight-curve $-1 -29.027753497601054 34.710056509406627 -8.5065219392651379 -1 0 0 I I #
point $-1 -53.607885843182927 34.710056509406627 -8.5065219392651379 #
point $-1 -53.607885843182927 -34.710056509406627 -8.5065219392651379 #
coedge $-1 $471 $365 $368 $483 forward $353 $-1 #
coedge $-1 $365 $471 $372 $485 reversed $353 $-1 #
straight-curve $-1 -62.50312814722129 0 -3.7641715028147544 0 1 0 I I #
edge $-1 $370 3.7641715028147544 $476 8.5065219392651379 $368 $537 forward 7 unknown #
point $-1 -62.50312814722129 34.710056509406627 -3.7641715028147544 #
edge $-1 $373 3.7641715028147544 $474 8.5065219392651379 $481 $538 forward 7 unknown #
point $-1 -62.50312814722129 -34.710056509406627 -3.7641715028147544 #
straight-curve $-1 -53.607885843182927 34.710056509406627 -3.0676733605199731 0 0 -1 I I #
coedge $-1 $389 $388 $381 $489 forward $378 $-1 #
edge $-1 $490 58.943914967353258 $493 65.137758600706348 $488 $539 forward 7 unknown #
vertex $-1 $393 $540 #
straight-curve $-1 4.4476211520191846 42.924008854394131 9.4496902708048864 0 1 0 I I #
edge $-1 $493 -8.0238245019661569 $390 15.176231201860102 $389 $541 forward 7 unknown #
vertex $-1 $492 $542 #
straight-curve $-1 4.4476211520191846 -9.9123313165581521 56.43473903146463 0 -0.64278759981090561 0.7660444514056185 I I #
point $-1 4.4476211520191846 29.512804737160586 9.4496902708048864 #
point $-1 -18.752434551807074 34.710056509406627 3.2558466374517891 #
straight-curve $-1 0 34.710056509406627 9.4496902708048864 -1 0 0 I I #
vertex $-1 $396 $543 #
point $-1 -10.62384720785672 29.500562608388247 4.1619901231342977 #
vertex $-1 $400 $544 #
point $-1 -0.68096619193117647 29.500562608388247 4.1619901231342977 #
coedge $-1 $503 $406 $509 $545 reversed $280 $-1 #
coedge $-1 $406 $502 $409 $507 reversed $280 $-1 #
edge $-1 $505 -37.051577999567208 $414 -13.851522295740956 $413 $546 forward 7 unknown #
vertex $-1 $408 $547 #
straight-curve $-1 62.50312814722129 6.0297789534544197 37.435671346225718 0 0.64278759981090572 -0.76604445140561861 I I #
edge $-1 $410 29.512804737160586 $511 34.710056509406627 $503 $548 forward 7 unknown #
point $-1 62.50312814722129 29.512804737160586 9.4496902708048864 #
coedge $-1 $413 $412 $502 $545 forward $404 $-1 #
point $-1 39.303072443395038 34.710056509406627 3.2558466374517891 #
vertex $-1 $507 $549 #
straight-curve $-1 0 34.710056509406627 9.4496902708048864 -1 0 0 I I #
vertex $-1 $420 $550 #
point $-1 47.431659787345396 29.500562608388247 4.1619901231342977 #
vertex $-1 $424 $551 #
point $-1 57.374540803270932 29.500562608388247 4.1619901231342977 #
edge $-1 $518 29.286310254778478 $521 36.49464113614723 $429 $552 forward 7 unknown #
vertex $-1 $443 $553 #
straight-curve $-1 11.677366867758316 -67.272246396132601 9.4496902708048864 0 -1 0 I I #
edge $-1 $521 -2.3019682954676028 $440 30.260638621919441 $439 $554 forward 7 unknown #
vertex $-1 $520 $555 #
straight-curve $-1 11.677366867758316 -34.710056509406598 2.2413593894361696 0 0.60181501223851219 0.79863551827123203 I I #
point $-1 11.677366867758316 -29.278189733708221 9.4496902708048864 #
point $-1 44.239973785145359 -34.710056509406627 2.2413593894361319 #
straight-curve $-1 0 -34.710056509406627 9.4496902708048864 1 0 0 I I #
vertex $-1 $446 $556 #
point $-1 21.980968844154603 -29.147483614706942 3.7004281615398016 #
vertex $-1 $450 $557 #
point $-1 35.936371808749058 -29.147483614706942 3.7004281615398016 #
straight-curve $-1 -62.50312814722129 34.710056509406627 0 0 0 -1 I I #
point $-1 -62.50312814722129 -34.710056509406627 -9.4496902708048864 #
straight-curve $-1 -62.50312814722129 0 -9.4496902708048864 0 1 0 I I #
point $-1 -62.50312814722129 34.710056509406627 -9.4496902708048864 #
straight-curve $-1 -62.50312814722129 0 -8.5065219392651379 0 -1 0 I I #
point $-1 -62.50312814722129 -34.710056509406627 -8.5065219392651379 #
point $-1 -62.50312814722129 34.710056509406627 -8.5065219392651379 #
straight-curve $-1 -62.50312814722129 34.710056509406627 0 0 0 -1 I I #
straight-curve $-1 -62.50312814722129 -34.710056509406627 0 0 0 -1 I I #
straight-curve $-1 4.4476211520191846 34.710056509406627 68.393605238158145 0 0 -1 I I #
point $-1 4.4476211520191846 34.710056509406627 9.4496902708048864 #
straight-curve $-1 -3.5762033499469723 34.710056509406627 3.2558466374517856 -1 0 0 I I #
point $-1 4.4476211520191846 34.710056509406627 3.2558466374517891 #
point $-1 -12.12384720785672 28.351495931279818 3.1978087234179395 #
point $-1 -2.1809661919311765 28.351495931279818 3.1978087234179395 #
edge $-1 $511 -9.4496902708048864 $505 -3.2558466374517891 $502 $558 forward 7 unknown #
straight-curve $-1 25.451550147654082 34.710056509406627 3.2558466374517856 -1 0 0 I I #
point $-1 62.50312814722129 34.710056509406627 3.2558466374517891 #
straight-curve $-1 62.50312814722129 0 9.4496902708048864 0 1 0 I I #
point $-1 62.50312814722129 34.710056509406627 9.4496902708048864 #
point $-1 45.931659787345396 28.351495931279818 3.1978087234179395 #
point $-1 55.874540803270932 28.351495931279818 3.1978087234179395 #
straight-curve $-1 11.677366867758316 -34.710056509406627 38.736000525583364 0 0 -1 I I #
point $-1 11.677366867758316 -34.710056509406627 9.4496902708048864 #
straight-curve $-1 13.979335163225919 -34.710056509406627 2.2413593894361359 1 0 0 I I #
point $-1 11.677366867758316 -34.710056509406627 2.2413593894361319 #
point $-1 20.980968844154603 -28.348848096435709 3.0986131493012889 #
point $-1 34.936371808749058 -28.348848096435709 3.0986131493012889 #
straight-curve $-1 62.50312814722129 34.710056509406627 0 0 0 -1 I I #
End-of-ACIS-data 