500 0 6 0           
7 Unknown 11 ACIS 5.0 NT 24 Fri Mar 26 20:38:55 1999 
-1 9.9999999999999995e-007 1e-010 
body $-1 $6 $-1 $7 #
body $-1 $8 $-1 $9 #
body $-1 $10 $-1 $11 #
body $-1 $12 $-1 $13 #
body $-1 $14 $-1 $15 #
body $-1 $16 $-1 $17 #
lump $-1 $-1 $18 $0 #
transform $-1 1 0 0 0 1 0 0 0 1 55.269020661030915 25.068828170797019 10.905517877065616 1 rotate no_reflect no_shear #
lump $-1 $-1 $19 $1 #
transform $-1 1 0 0 0 1 0 0 0 1 55.269020661030915 25.068828170797019 10.905517877065616 1 rotate no_reflect no_shear #
lump $-1 $-1 $20 $2 #
transform $-1 1 0 0 0 1 0 0 0 1 55.269020661030915 25.068828170797019 10.905517877065616 1 rotate no_reflect no_shear #
lump $-1 $-1 $21 $3 #
transform $-1 1 0 0 0 1 0 0 0 1 55.269020661030915 25.068828170797019 10.905517877065616 1 rotate no_reflect no_shear #
lump $-1 $-1 $22 $4 #
transform $-1 1 0 0 0 1 0 0 0 1 55.269020661030915 25.068828170797019 10.905517877065616 1 rotate no_reflect no_shear #
lump $-1 $-1 $23 $5 #
transform $-1 1 0 0 0 1 0 0 0 1 55.269020661030915 25.068828170797019 10.905517877065616 1 rotate no_reflect no_shear #
shell $-1 $-1 $-1 $24 $-1 $6 #
shell $-1 $-1 $-1 $25 $-1 $8 #
shell $-1 $-1 $-1 $26 $-1 $10 #
shell $-1 $-1 $-1 $27 $-1 $12 #
shell $-1 $-1 $-1 $28 $-1 $14 #
shell $-1 $-1 $-1 $29 $-1 $16 #
face $-1 $30 $31 $18 $-1 $32 reversed single #
face $-1 $33 $34 $19 $-1 $35 forward single #
face $-1 $36 $37 $20 $-1 $38 forward single #
face $-1 $39 $40 $21 $-1 $41 reversed single #
face $-1 $42 $43 $22 $-1 $44 forward single #
face $-1 $45 $46 $23 $-1 $47 forward single #
face $-1 $48 $49 $18 $-1 $50 forward single #
loop $-1 $-1 $51 $24 #
plane-surface $-1 55.269020661030915 0 0 -1 0 0 0 0 1 forward_v I I I I #
face $-1 $52 $53 $19 $-1 $54 reversed single #
loop $-1 $-1 $55 $25 #
plane-surface $-1 -55.269020661030915 0 0 1 0 0 0 0 -1 forward_v I I I I #
face $-1 $56 $57 $20 $-1 $58 reversed single #
loop $-1 $-1 $59 $26 #
plane-surface $-1 55.269020661030915 0 0 -1 0 0 0 0 1 forward_v I I I I #
face $-1 $60 $61 $21 $-1 $62 reversed single #
loop $-1 $-1 $63 $27 #
plane-surface $-1 -29.518313539034789 86.858513921572083 111.69680648304657 1 0 0 0 -0.81915205242281985 -0.57357642473473569 forward_v I I I I #
face $-1 $64 $65 $22 $-1 $66 forward single #
loop $-1 $67 $68 $28 #
cone-surface $-1 -23.858756933380334 23.18776255891455 8.650238439808259 0 -0.81915205242281985 -0.57357642473473569 0.5 0 0 1 I I 0 1 0.5 forward I I I I #
face $-1 $69 $70 $23 $-1 $71 forward single #
loop $-1 $72 $73 $29 #
cone-surface $-1 -15.369422024898647 23.18776255891455 8.650238439808259 0 -0.81915205242281985 -0.57357642473473569 0.5 0 0 1 I I 0 1 0.5 forward I I I I #
face $-1 $74 $75 $18 $-1 $76 reversed single #
loop $-1 $-1 $77 $30 #
plane-surface $-1 0 0 10.905517877065616 0 0 1 1 0 0 forward_v I I I I #
coedge $-1 $78 $79 $80 $81 reversed $31 $-1 #
face $-1 $82 $83 $19 $-1 $84 forward single #
loop $-1 $-1 $85 $33 #
plane-surface $-1 0 25.068828170797019 0 0 -1 0 0 0 -1 forward_v I I I I #
coedge $-1 $86 $87 $88 $89 forward $34 $-1 #
face $-1 $90 $91 $20 $-1 $92 forward single #
loop $-1 $-1 $93 $36 #
plane-surface $-1 0 -25.068828170797019 0 0 1 0 0 0 1 forward_v I I I I #
coedge $-1 $94 $95 $96 $97 forward $37 $-1 #
face $-1 $98 $99 $21 $-1 $100 reversed single #
loop $-1 $-1 $101 $39 #
plane-surface $-1 -19.614089479139487 -3.6889494981933382 48.294791944357868 0 0.81915205242281985 0.57357642473473569 1 0 0 forward_v I I I I #
coedge $-1 $102 $103 $104 $105 reversed $40 $-1 #
face $-1 $-1 $106 $22 $-1 $107 forward single #
loop $-1 $108 $109 $42 #
cone-surface $-1 -23.858756933380334 22.390672388454163 8.0921099106644654 0 -0.81915205242281985 -0.57357642473473569 0.25 0 0 1 I I -0.70710678118654746 0.70710678118654746 0.25 forward I I I I #
loop $-1 $-1 $110 $28 #
coedge $-1 $68 $68 $111 $112 reversed $43 $-1 #
face $-1 $-1 $113 $23 $-1 $114 forward single #
loop $-1 $115 $116 $45 #
cone-surface $-1 -15.369422024898647 22.390672388454163 8.0921099106644654 0 -0.81915205242281985 -0.57357642473473569 0.25 0 0 1 I I -0.70710678118654746 0.70710678118654746 0.25 forward I I I I #
loop $-1 $-1 $117 $29 #
coedge $-1 $73 $73 $118 $119 reversed $46 $-1 #
face $-1 $120 $121 $18 $-1 $122 reversed single #
loop $-1 $-1 $123 $48 #
plane-surface $-1 0 0 -10.905517877065616 0 0 1 1 0 0 forward_v I I I I #
coedge $-1 $124 $125 $78 $126 forward $49 $-1 #
coedge $-1 $127 $51 $77 $126 reversed $31 $-1 #
coedge $-1 $51 $127 $123 $128 reversed $31 $-1 #
coedge $-1 $129 $130 $51 $81 forward $131 $-1 #
edge $-1 $132 -10.905517877065616 $133 10.905517877065616 $51 $134 forward 7 unknown #
face $-1 $135 $136 $19 $-1 $137 reversed single #
loop $-1 $-1 $88 $52 #
plane-surface $-1 -60.540232863775223 0 7.83875702014954 0 0 1 1 0 0 forward_v I I I I #
coedge $-1 $138 $139 $87 $140 forward $53 $-1 #
coedge $-1 $141 $55 $142 $143 reversed $34 $-1 #
coedge $-1 $55 $141 $85 $140 reversed $34 $-1 #
coedge $-1 $144 $145 $55 $89 reversed $83 $-1 #
edge $-1 $146 -25.068828170797019 $147 25.068828170797019 $88 $148 forward 7 unknown #
face $-1 $149 $150 $20 $-1 $151 reversed single #
loop $-1 $-1 $152 $56 #
plane-surface $-1 60.540232863775223 0 7.83875702014954 0 0 1 1 0 0 forward_v I I I I #
coedge $-1 $153 $154 $95 $155 forward $57 $-1 #
coedge $-1 $156 $59 $157 $158 reversed $37 $-1 #
coedge $-1 $59 $156 $93 $155 reversed $37 $-1 #
coedge $-1 $159 $160 $59 $97 reversed $91 $-1 #
edge $-1 $161 -25.068828170797019 $162 25.068828170797019 $96 $163 forward 7 unknown #
face $-1 $164 $165 $21 $-1 $166 reversed single #
loop $-1 $-1 $167 $60 #
plane-surface $-1 -9.7098654192441849 86.858513921572083 111.69680648304657 -1 0 0 0 0.81915205242281985 0.57357642473473569 forward_v I I I I #
coedge $-1 $168 $169 $170 $171 reversed $61 $-1 #
coedge $-1 $103 $63 $172 $173 reversed $40 $-1 #
coedge $-1 $63 $102 $168 $174 reversed $40 $-1 #
coedge $-1 $170 $175 $63 $105 forward $176 $-1 #
edge $-1 $177 18.360428789989022 $178 20.937955699044608 $104 $179 forward 7 unknown #
loop $-1 $-1 $111 $64 #
plane-surface $-1 -19.614089479139487 -3.6889494981933382 48.294791944357868 0 0.81915205242281985 0.57357642473473569 1 0 0 forward_v I I I I #
loop $-1 $-1 $180 $42 #
coedge $-1 $109 $109 $110 $181 reversed $65 $-1 #
coedge $-1 $110 $110 $109 $181 forward $67 $-1 #
coedge $-1 $111 $111 $68 $112 forward $106 $-1 #
edge $-1 $182 -3.4898395666699014e-015 $182 6.2831853071795969 $111 $183 forward 7 unknown #
loop $-1 $-1 $118 $69 #
plane-surface $-1 -19.614089479139487 -3.6889494981933382 48.294791944357868 0 0.81915205242281985 0.57357642473473569 1 0 0 forward_v I I I I #
loop $-1 $-1 $184 $45 #
coedge $-1 $116 $116 $117 $185 reversed $70 $-1 #
coedge $-1 $117 $117 $116 $185 forward $72 $-1 #
coedge $-1 $118 $118 $73 $119 forward $113 $-1 #
edge $-1 $186 -3.4898395666699014e-015 $186 6.2831853071795969 $118 $187 forward 7 unknown #
face $-1 $188 $189 $18 $-1 $190 reversed single #
loop $-1 $-1 $191 $74 #
plane-surface $-1 0 -25.068828170797019 0 0 1 0 0 0 1 forward_v I I I I #
coedge $-1 $192 $193 $79 $128 forward $75 $-1 #
coedge $-1 $194 $77 $130 $195 forward $49 $-1 #
coedge $-1 $77 $194 $196 $197 forward $49 $-1 #
edge $-1 $198 -25.068828170797019 $132 25.068828170797019 $78 $199 forward 7 unknown #
coedge $-1 $79 $78 $200 $201 forward $31 $-1 #
edge $-1 $133 -25.068828170797019 $202 25.068828170797019 $79 $203 forward 7 unknown #
coedge $-1 $204 $80 $193 $205 reversed $131 $-1 #
coedge $-1 $80 $204 $124 $195 reversed $131 $-1 #
loop $-1 $-1 $80 $188 #
vertex $-1 $126 $206 #
vertex $-1 $128 $207 #
straight-curve $-1 55.269020661030915 25.068828170797019 0 0 0 -1 I I #
face $-1 $208 $209 $19 $-1 $210 reversed single #
loop $-1 $-1 $211 $82 #
plane-surface $-1 -60.540232863775223 0 4.83875702014954 0 0 1 1 0 0 forward_v I I I I #
coedge $-1 $212 $85 $213 $214 reversed $53 $-1 #
coedge $-1 $85 $212 $144 $215 reversed $53 $-1 #
edge $-1 $146 -7.83875702014954 $216 -4.83875702014954 $85 $217 forward 7 unknown #
coedge $-1 $87 $86 $211 $218 forward $34 $-1 #
coedge $-1 $219 $220 $86 $143 forward $221 $-1 #
edge $-1 $222 4.83875702014954 $147 7.83875702014954 $142 $223 forward 7 unknown #
coedge $-1 $224 $88 $139 $215 forward $83 $-1 #
coedge $-1 $88 $224 $219 $225 forward $83 $-1 #
vertex $-1 $140 $226 #
vertex $-1 $225 $227 #
straight-curve $-1 -55.269020661030915 0 7.83875702014954 0 -1 0 I I #
face $-1 $228 $229 $20 $-1 $230 reversed single #
loop $-1 $-1 $231 $90 #
plane-surface $-1 60.540232863775223 0 4.83875702014954 0 0 1 1 0 0 forward_v I I I I #
coedge $-1 $160 $159 $232 $233 forward $91 $-1 #
coedge $-1 $234 $93 $235 $236 reversed $57 $-1 #
coedge $-1 $93 $234 $159 $237 reversed $57 $-1 #
edge $-1 $161 -7.83875702014954 $238 -4.83875702014954 $93 $239 forward 7 unknown #
coedge $-1 $95 $94 $240 $241 forward $37 $-1 #
coedge $-1 $242 $243 $94 $158 forward $244 $-1 #
edge $-1 $245 4.83875702014954 $162 7.83875702014954 $157 $246 forward 7 unknown #
coedge $-1 $152 $96 $154 $237 forward $91 $-1 #
coedge $-1 $96 $152 $242 $247 forward $91 $-1 #
vertex $-1 $155 $248 #
vertex $-1 $247 $249 #
straight-curve $-1 55.269020661030915 0 7.83875702014954 0 1 0 I I #
face $-1 $-1 $176 $21 $-1 $250 forward single #
loop $-1 $-1 $251 $98 #
plane-surface $-1 0 25.068828170797019 0 0 -1 0 0 0 -1 forward_v I I I I #
coedge $-1 $252 $253 $254 $255 reversed $99 $-1 #
coedge $-1 $256 $101 $103 $174 forward $61 $-1 #
coedge $-1 $101 $256 $252 $257 forward $61 $-1 #
coedge $-1 $254 $104 $101 $171 forward $176 $-1 #
edge $-1 $178 -19.711268799465046 $258 0.097179320325558649 $170 $259 forward 7 unknown #
coedge $-1 $260 $261 $102 $173 forward $165 $-1 #
edge $-1 $262 -48.623975393052184 $177 -44.942885364457666 $172 $263 forward 7 unknown #
edge $-1 $178 45.643875220363995 $262 50.137656341594052 $103 $264 forward 7 unknown #
coedge $-1 $104 $254 $260 $265 forward $176 $-1 #
loop $-1 $-1 $254 $164 #
vertex $-1 $173 $266 #
vertex $-1 $105 $267 #
straight-curve $-1 -29.518313539034789 43.429256960786041 10.90551787706562 0 -1 0 I I #
coedge $-1 $180 $180 $-1 $268 reversed $108 $-1 #
edge $-1 $269 0 $269 6.2831853071796004 $109 $270 forward 7 unknown #
vertex $-1 $112 $271 #
ellipse-curve $-1 -23.858756933380334 23.780064716269219 9.0649728627683626 0 0.81915205242281985 0.57357642473473569 0.5 0 0 1 I I #
coedge $-1 $184 $184 $-1 $272 reversed $115 $-1 #
edge $-1 $273 0 $273 6.2831853071796004 $116 $274 forward 7 unknown #
vertex $-1 $119 $275 #
ellipse-curve $-1 -15.369422024898647 23.780064716269219 9.0649728627683626 0 0.81915205242281985 0.57357642473473569 0.5 0 0 1 I I #
face $-1 $-1 $131 $18 $-1 $276 reversed single #
loop $-1 $-1 $277 $120 #
plane-surface $-1 -55.269020661030915 0 0 1 0 0 0 0 -1 forward_v I I I I #
coedge $-1 $278 $196 $277 $279 forward $121 $-1 #
coedge $-1 $280 $123 $278 $281 forward $75 $-1 #
coedge $-1 $123 $280 $129 $205 forward $75 $-1 #
coedge $-1 $125 $124 $282 $283 forward $49 $-1 #
edge $-1 $132 -55.269020661030915 $284 55.269020661030915 $130 $285 forward 7 unknown #
coedge $-1 $191 $200 $125 $197 reversed $121 $-1 #
edge $-1 $286 -55.269020661030915 $198 55.269020661030915 $196 $287 forward 7 unknown #
vertex $-1 $126 $288 #
straight-curve $-1 55.269020661030915 0 10.905517877065616 0 1 0 I I #
coedge $-1 $196 $278 $127 $201 reversed $121 $-1 #
edge $-1 $198 -10.905517877065616 $202 10.905517877065616 $127 $289 forward 7 unknown #
vertex $-1 $201 $290 #
straight-curve $-1 55.269020661030915 0 -10.905517877065616 0 -1 0 I I #
coedge $-1 $130 $129 $291 $292 reversed $131 $-1 #
edge $-1 $293 -55.269020661030915 $133 55.269020661030915 $129 $294 forward 7 unknown #
point $-1 55.269020661030915 25.068828170797019 10.905517877065616 #
point $-1 55.269020661030915 25.068828170797019 -10.905517877065616 #
face $-1 $-1 $221 $19 $-1 $295 reversed single #
loop $-1 $-1 $296 $135 #
plane-surface $-1 -65.811445066519525 0 6.33875702014954 1 0 0 0 0 -1 forward_v I I I I #
coedge $-1 $297 $213 $141 $218 reversed $136 $-1 #
coedge $-1 $139 $138 $296 $298 reversed $53 $-1 #
coedge $-1 $211 $299 $138 $214 forward $136 $-1 #
edge $-1 $300 -5.2712122027443016 $216 5.2712122027443087 $138 $301 forward 7 unknown #
edge $-1 $146 -5.2712122027443087 $302 5.2712122027443016 $139 $303 forward 7 unknown #
vertex $-1 $140 $304 #
straight-curve $-1 -55.269020661030915 25.068828170797019 0 0 0 -1 I I #
edge $-1 $222 -25.068828170797019 $216 25.068828170797019 $211 $305 forward 7 unknown #
coedge $-1 $306 $142 $145 $225 reversed $221 $-1 #
coedge $-1 $142 $306 $297 $307 reversed $221 $-1 #
loop $-1 $-1 $142 $208 #
vertex $-1 $143 $308 #
straight-curve $-1 -55.269020661030915 -25.068828170797019 0 0 0 1 I I #
coedge $-1 $145 $144 $309 $310 forward $83 $-1 #
edge $-1 $311 -5.2712122027443016 $147 5.2712122027443087 $219 $312 forward 7 unknown #
point $-1 -55.269020661030915 25.068828170797019 7.83875702014954 #
point $-1 -55.269020661030915 -25.068828170797019 7.83875702014954 #
face $-1 $-1 $244 $20 $-1 $313 reversed single #
loop $-1 $-1 $314 $149 #
plane-surface $-1 65.811445066519525 0 6.33875702014954 -1 0 0 0 0 1 forward_v I I I I #
coedge $-1 $235 $315 $316 $317 forward $150 $-1 #
coedge $-1 $314 $318 $152 $233 reversed $229 $-1 #
edge $-1 $319 -25.068828170797019 $320 25.068828170797019 $232 $321 forward 7 unknown #
coedge $-1 $154 $153 $314 $322 reversed $57 $-1 #
coedge $-1 $240 $231 $153 $236 forward $150 $-1 #
edge $-1 $323 -5.2712122027443016 $238 5.2712122027443087 $153 $324 forward 7 unknown #
edge $-1 $161 -5.2712122027443087 $319 5.2712122027443016 $154 $325 forward 7 unknown #
vertex $-1 $155 $326 #
straight-curve $-1 55.269020661030915 -25.068828170797019 0 0 0 -1 I I #
coedge $-1 $315 $235 $156 $241 reversed $150 $-1 #
edge $-1 $245 -25.068828170797019 $238 25.068828170797019 $240 $327 forward 7 unknown #
coedge $-1 $328 $157 $160 $247 reversed $244 $-1 #
coedge $-1 $157 $328 $315 $329 reversed $244 $-1 #
loop $-1 $-1 $157 $228 #
vertex $-1 $158 $330 #
straight-curve $-1 55.269020661030915 25.068828170797019 0 0 0 1 I I #
edge $-1 $320 -5.2712122027443016 $162 5.2712122027443087 $242 $331 forward 7 unknown #
point $-1 55.269020661030915 -25.068828170797019 7.83875702014954 #
point $-1 55.269020661030915 25.068828170797019 7.83875702014954 #
plane-surface $-1 0 0 10.905517877065616 0 0 1 1 0 0 forward_v I I I I #
coedge $-1 $261 $260 $253 $332 forward $165 $-1 #
coedge $-1 $253 $167 $169 $257 reversed $99 $-1 #
coedge $-1 $167 $252 $251 $332 reversed $99 $-1 #
coedge $-1 $175 $170 $167 $255 forward $176 $-1 #
edge $-1 $258 -20.937955699044608 $333 -18.360428789989022 $254 $334 forward 7 unknown #
coedge $-1 $169 $168 $261 $335 reversed $61 $-1 #
edge $-1 $336 -50.137656341594052 $258 -45.643875220363995 $252 $337 forward 7 unknown #
vertex $-1 $171 $338 #
straight-curve $-1 -9.8070447395697435 22.491301261741437 10.905517877065616 1 0 0 I I #
coedge $-1 $251 $172 $175 $265 reversed $165 $-1 #
coedge $-1 $172 $251 $256 $335 forward $165 $-1 #
vertex $-1 $173 $339 #
straight-curve $-1 -29.518313539034789 25.068828170797019 55.848403241523286 0 0 1 I I #
straight-curve $-1 -29.518313539034789 -3.6889494981933382 48.294791944357868 0 0.57357642473473569 -0.81915205242281985 I I #
edge $-1 $333 9.7098654192441849 $177 29.518313539034789 $260 $340 forward 7 unknown #
point $-1 -29.518313539034789 25.068828170797019 10.905517877065616 #
point $-1 -29.518313539034789 22.491301261741434 10.90551787706562 #
edge $-1 $341 1 $341 0 $180 $-1 forward 7 unknown #
vertex $-1 $181 $342 #
ellipse-curve $-1 -23.858756933380334 22.595460401559869 8.2355040168481501 0 0.81915205242281985 0.57357642473473569 0.5 0 0 1 I I #
point $-1 -23.358756933380334 23.780064716269226 9.0649728627683697 #
edge $-1 $343 1 $343 0 $184 $-1 forward 7 unknown #
vertex $-1 $185 $344 #
ellipse-curve $-1 -15.369422024898647 22.595460401559869 8.2355040168481501 0 0.81915205242281985 0.57357642473473569 0.5 0 0 1 I I #
point $-1 -14.869422024898647 23.780064716269226 9.0649728627683697 #
plane-surface $-1 0 25.068828170797019 0 0 -1 0 0 0 -1 forward_v I I I I #
coedge $-1 $282 $345 $191 $279 reversed $189 $-1 #
coedge $-1 $200 $191 $192 $281 reversed $121 $-1 #
edge $-1 $286 -10.905517877065616 $346 10.905517877065616 $277 $347 forward 7 unknown #
coedge $-1 $193 $192 $345 $348 forward $75 $-1 #
edge $-1 $202 -55.269020661030915 $346 55.269020661030915 $278 $349 forward 7 unknown #
coedge $-1 $291 $277 $194 $283 reversed $189 $-1 #
edge $-1 $284 -25.068828170797019 $286 25.068828170797019 $282 $350 forward 7 unknown #
vertex $-1 $195 $351 #
straight-curve $-1 0 25.068828170797019 10.905517877065616 -1 0 0 I I #
vertex $-1 $283 $352 #
straight-curve $-1 0 -25.068828170797019 10.905517877065616 1 0 0 I I #
point $-1 55.269020661030915 -25.068828170797019 10.905517877065616 #
straight-curve $-1 55.269020661030915 -25.068828170797019 0 0 0 -1 I I #
point $-1 55.269020661030915 -25.068828170797019 -10.905517877065616 #
coedge $-1 $345 $282 $204 $292 forward $189 $-1 #
edge $-1 $284 -10.905517877065616 $293 10.905517877065616 $204 $353 forward 7 unknown #
vertex $-1 $205 $354 #
straight-curve $-1 0 25.068828170797019 -10.905517877065616 1 0 0 I I #
plane-surface $-1 0 -25.068828170797019 0 0 1 0 0 0 1 forward_v I I I I #
coedge $-1 $355 $309 $212 $298 forward $209 $-1 #
coedge $-1 $299 $211 $220 $307 forward $136 $-1 #
edge $-1 $302 -1.5 $300 1.5 $212 $356 forward 7 unknown #
coedge $-1 $213 $297 $355 $357 forward $136 $-1 #
vertex $-1 $214 $358 #
straight-curve $-1 -60.540232863775223 25.068828170797019 4.83875702014954 1 0 0 I I #
vertex $-1 $215 $359 #
straight-curve $-1 -60.540232863775223 25.068828170797019 7.83875702014954 -1 0 0 I I #
point $-1 -55.269020661030915 25.068828170797019 4.83875702014954 #
straight-curve $-1 -55.269020661030915 0 4.83875702014954 0 1 0 I I #
coedge $-1 $220 $219 $360 $361 forward $221 $-1 #
edge $-1 $222 -5.2712122027443087 $362 5.2712122027443016 $220 $363 forward 7 unknown #
point $-1 -55.269020661030915 -25.068828170797019 4.83875702014954 #
coedge $-1 $296 $360 $224 $310 reversed $209 $-1 #
edge $-1 $302 -25.068828170797019 $311 25.068828170797019 $309 $364 forward 7 unknown #
vertex $-1 $310 $365 #
straight-curve $-1 -60.540232863775223 -25.068828170797019 7.83875702014954 1 0 0 I I #
plane-surface $-1 0 25.068828170797019 0 0 -1 0 0 0 -1 forward_v I I I I #
coedge $-1 $316 $232 $234 $322 forward $229 $-1 #
coedge $-1 $231 $240 $243 $329 forward $150 $-1 #
coedge $-1 $318 $314 $231 $317 reversed $229 $-1 #
edge $-1 $366 -25.068828170797019 $323 25.068828170797019 $316 $367 forward 7 unknown #
coedge $-1 $232 $316 $328 $368 reversed $229 $-1 #
vertex $-1 $233 $369 #
vertex $-1 $233 $370 #
straight-curve $-1 65.811445066519525 0 7.83875702014954 0 1 0 I I #
edge $-1 $319 -1.5 $323 1.5 $314 $371 forward 7 unknown #
vertex $-1 $322 $372 #
straight-curve $-1 60.540232863775223 -25.068828170797019 4.83875702014954 -1 0 0 I I #
straight-curve $-1 60.540232863775223 -25.068828170797019 7.83875702014954 1 0 0 I I #
point $-1 55.269020661030915 -25.068828170797019 4.83875702014954 #
straight-curve $-1 55.269020661030915 0 4.83875702014954 0 -1 0 I I #
coedge $-1 $243 $242 $318 $368 forward $244 $-1 #
edge $-1 $245 -5.2712122027443087 $366 5.2712122027443016 $243 $373 forward 7 unknown #
point $-1 55.269020661030915 25.068828170797019 4.83875702014954 #
straight-curve $-1 60.540232863775223 25.068828170797019 7.83875702014954 -1 0 0 I I #
edge $-1 $333 44.942885364457666 $336 48.623975393052184 $251 $374 forward 7 unknown #
vertex $-1 $265 $375 #
straight-curve $-1 -9.7098654192441849 43.429256960786041 10.90551787706562 0 1 0 I I #
edge $-1 $336 -0.097179320325558649 $262 19.711268799465046 $261 $376 forward 7 unknown #
vertex $-1 $335 $377 #
straight-curve $-1 -9.7098654192441849 -3.6889494981933382 48.294791944357868 0 -0.57357642473473569 0.81915205242281985 I I #
point $-1 -9.7098654192441849 22.491301261741434 10.90551787706562 #
point $-1 -29.518313539034789 25.068828170797019 7.2244278484711018 #
straight-curve $-1 0 25.068828170797019 10.905517877065616 -1 0 0 I I #
vertex $-1 $268 $378 #
point $-1 -23.358756933380334 22.595460401559869 8.2355040168481501 #
vertex $-1 $272 $379 #
point $-1 -14.869422024898647 22.595460401559869 8.2355040168481501 #
coedge $-1 $277 $291 $280 $348 reversed $189 $-1 #
vertex $-1 $348 $380 #
straight-curve $-1 -55.269020661030915 -25.068828170797019 0 0 0 -1 I I #
edge $-1 $346 -25.068828170797019 $293 25.068828170797019 $345 $381 forward 7 unknown #
straight-curve $-1 0 -25.068828170797019 -10.905517877065616 -1 0 0 I I #
straight-curve $-1 -55.269020661030915 0 10.905517877065616 0 -1 0 I I #
point $-1 -55.269020661030915 25.068828170797019 10.905517877065616 #
point $-1 -55.269020661030915 -25.068828170797019 10.905517877065616 #
straight-curve $-1 -55.269020661030915 25.068828170797019 0 0 0 -1 I I #
point $-1 -55.269020661030915 25.068828170797019 -10.905517877065616 #
coedge $-1 $360 $296 $299 $357 reversed $209 $-1 #
straight-curve $-1 -65.811445066519525 25.068828170797019 6.33875702014954 0 0 -1 I I #
edge $-1 $362 -25.068828170797019 $300 25.068828170797019 $355 $382 forward 7 unknown #
point $-1 -65.811445066519525 25.068828170797019 4.83875702014954 #
point $-1 -65.811445066519525 25.068828170797019 7.83875702014954 #
coedge $-1 $309 $355 $306 $361 reversed $209 $-1 #
edge $-1 $311 -1.5 $362 1.5 $360 $383 forward 7 unknown #
vertex $-1 $357 $384 #
straight-curve $-1 -60.540232863775223 -25.068828170797019 4.83875702014954 -1 0 0 I I #
straight-curve $-1 -65.811445066519525 0 7.83875702014954 0 -1 0 I I #
point $-1 -65.811445066519525 -25.068828170797019 7.83875702014954 #
vertex $-1 $317 $385 #
straight-curve $-1 65.811445066519525 0 4.83875702014954 0 -1 0 I I #
edge $-1 $320 -1.5 $366 1.5 $318 $386 forward 7 unknown #
point $-1 65.811445066519525 -25.068828170797019 7.83875702014954 #
point $-1 65.811445066519525 25.068828170797019 7.83875702014954 #
straight-curve $-1 65.811445066519525 -25.068828170797019 6.33875702014954 0 0 -1 I I #
point $-1 65.811445066519525 -25.068828170797019 4.83875702014954 #
straight-curve $-1 60.540232863775223 25.068828170797019 4.83875702014954 1 0 0 I I #
straight-curve $-1 -9.7098654192441849 25.068828170797019 55.848403241523286 0 0 -1 I I #
point $-1 -9.7098654192441849 25.068828170797019 10.905517877065616 #
straight-curve $-1 -9.8070447395697435 25.068828170797019 7.2244278484711018 -1 0 0 I I #
point $-1 -9.7098654192441849 25.068828170797019 7.2244278484711018 #
point $-1 -23.858756933380334 22.185884375348458 7.9487158044807815 #
point $-1 -15.369422024898647 22.185884375348458 7.9487158044807815 #
point $-1 -55.269020661030915 -25.068828170797019 -10.905517877065616 #
straight-curve $-1 -55.269020661030915 0 -10.905517877065616 0 1 0 I I #
straight-curve $-1 -65.811445066519525 0 4.83875702014954 0 1 0 I I #
straight-curve $-1 -65.811445066519525 -25.068828170797019 6.33875702014954 0 0 -1 I I #
point $-1 -65.811445066519525 -25.068828170797019 4.83875702014954 #
point $-1 65.811445066519525 25.068828170797019 4.83875702014954 #
straight-curve $-1 65.811445066519525 25.068828170797019 6.33875702014954 0 0 -1 I I #
End-of-ACIS-data 