500 0 10 0           
7 Unknown 11 ACIS 5.0 NT 24 Thu Mar 25 21:08:53 1999 
-1 9.9999999999999995e-007 1e-010 
body $-1 $10 $-1 $11 #
body $-1 $12 $-1 $13 #
body $-1 $14 $-1 $15 #
body $-1 $16 $-1 $17 #
body $-1 $18 $-1 $19 #
body $-1 $20 $-1 $21 #
body $-1 $22 $-1 $23 #
body $-1 $24 $-1 $25 #
body $-1 $26 $-1 $27 #
body $-1 $28 $-1 $29 #
lump $-1 $-1 $30 $0 #
transform $-1 1 0 0 0 1 0 0 0 1 79.406720175786617 38.683846333873916 14.772396032323098 1 rotate no_reflect no_shear #
lump $-1 $-1 $31 $1 #
transform $-1 1 0 0 0 1 0 0 0 1 79.406720175786617 38.683846333873916 14.772396032323098 1 rotate no_reflect no_shear #
lump $-1 $-1 $32 $2 #
transform $-1 1 0 0 0 1 0 0 0 1 79.406720175786617 38.683846333873916 14.772396032323098 1 rotate no_reflect no_shear #
lump $-1 $-1 $33 $3 #
transform $-1 1 0 0 0 1 0 0 0 1 79.406720175786617 38.683846333873916 14.772396032323098 1 rotate no_reflect no_shear #
lump $-1 $-1 $34 $4 #
transform $-1 1 0 0 0 1 0 0 0 1 79.406720175786617 38.683846333873916 14.772396032323098 1 rotate no_reflect no_shear #
lump $-1 $-1 $35 $5 #
transform $-1 1 0 0 0 1 0 0 0 1 79.406720175786617 38.683846333873916 14.772396032323098 1 rotate no_reflect no_shear #
lump $-1 $-1 $36 $6 #
transform $-1 1 0 0 0 1 0 0 0 1 79.406720175786617 38.683846333873916 14.772396032323098 1 rotate no_reflect no_shear #
lump $-1 $-1 $37 $7 #
transform $-1 1 0 0 0 1 0 0 0 1 79.406720175786617 38.683846333873916 14.772396032323098 1 rotate no_reflect no_shear #
lump $-1 $-1 $38 $8 #
transform $-1 1 0 0 0 1 0 0 0 1 79.406720175786617 38.683846333873916 14.772396032323098 1 rotate no_reflect no_shear #
lump $-1 $-1 $39 $9 #
transform $-1 1 0 0 0 1 0 0 0 1 79.406720175786617 38.683846333873916 14.772396032323098 1 rotate no_reflect no_shear #
shell $-1 $-1 $-1 $40 $-1 $10 #
shell $-1 $-1 $-1 $41 $-1 $12 #
shell $-1 $-1 $-1 $42 $-1 $14 #
shell $-1 $-1 $-1 $43 $-1 $16 #
shell $-1 $-1 $-1 $44 $-1 $18 #
shell $-1 $-1 $-1 $45 $-1 $20 #
shell $-1 $-1 $-1 $46 $-1 $22 #
shell $-1 $-1 $-1 $47 $-1 $24 #
shell $-1 $-1 $-1 $48 $-1 $26 #
shell $-1 $-1 $-1 $49 $-1 $28 #
face $-1 $50 $51 $30 $-1 $52 forward single #
face $-1 $53 $54 $31 $-1 $55 forward single #
face $-1 $56 $57 $32 $-1 $58 reversed single #
face $-1 $59 $60 $33 $-1 $61 forward single #
face $-1 $62 $63 $34 $-1 $64 forward single #
face $-1 $65 $66 $35 $-1 $67 forward single #
face $-1 $68 $69 $36 $-1 $70 reversed single #
face $-1 $71 $72 $37 $-1 $73 forward single #
face $-1 $74 $75 $38 $-1 $76 forward single #
face $-1 $77 $78 $39 $-1 $79 forward single #
face $-1 $80 $81 $30 $-1 $82 reversed single #
loop $-1 $-1 $83 $40 #
plane-surface $-1 0 0 14.772396032323098 0 0 1 1 0 0 forward_v I I I I #
face $-1 $84 $85 $31 $-1 $86 reversed single #
loop $-1 $-1 $87 $41 #
plane-surface $-1 -79.406720175786617 0 0 1 0 0 0 0 -1 forward_v I I I I #
face $-1 $88 $89 $32 $-1 $90 reversed single #
loop $-1 $-1 $91 $42 #
plane-surface $-1 -64.484945631504843 72.471575575191082 175.34200890417728 1 0 0 0 -0.6018150307709319 -0.79863550430605224 forward_v I I I I #
face $-1 $92 $93 $33 $-1 $94 forward single #
loop $-1 $95 $96 $43 #
cone-surface $-1 -59.665955909418429 28.925060147426823 6.7024516617591914 0 -0.6018150307709319 -0.79863550430605224 2 0 0 1 I I 0 1 2 forward I I I I #
face $-1 $97 $98 $34 $-1 $99 forward single #
loop $-1 $100 $101 $44 #
cone-surface $-1 -52.437471326288808 28.925060147426823 6.7024516617591914 0 -0.6018150307709319 -0.79863550430605224 2 0 0 1 I I 0 1 2 forward I I I I #
face $-1 $102 $103 $35 $-1 $104 forward single #
loop $-1 $105 $106 $45 #
cone-surface $-1 -45.208986743159187 28.925060147426823 6.7024516617591914 0 -0.6018150307709319 -0.79863550430605224 2 0 0 1 I I 0 1 2 forward I I I I #
face $-1 $107 $108 $36 $-1 $109 reversed single #
loop $-1 $-1 $110 $46 #
plane-surface $-1 -40.389997021072773 -134.26016182589353 128.7809685606606 -1 0 0 0 -0.6018150307709319 0.79863550430605224 forward_v I I I I #
face $-1 $111 $112 $37 $-1 $113 forward single #
loop $-1 $114 $115 $47 #
cone-surface $-1 -59.665955909418429 -28.925060147426816 6.7024516617591949 0 0.6018150307709319 -0.79863550430605224 2 0 0 1 I I 0 1 2 forward I I I I #
face $-1 $116 $117 $38 $-1 $118 forward single #
loop $-1 $119 $120 $48 #
cone-surface $-1 -52.437471326288808 -28.925060147426816 6.7024516617591949 0 0.6018150307709319 -0.79863550430605224 2 0 0 1 I I 0 1 2 forward I I I I #
face $-1 $121 $122 $39 $-1 $123 forward single #
loop $-1 $124 $125 $49 #
cone-surface $-1 -45.208986743159187 -28.925060147426816 6.7024516617591949 0 0.6018150307709319 -0.79863550430605224 2 0 0 1 I I 0 1 2 forward I I I I #
face $-1 $126 $127 $30 $-1 $128 reversed single #
loop $-1 $-1 $129 $50 #
plane-surface $-1 0 0 -14.772396032323098 0 0 1 1 0 0 forward_v I I I I #
coedge $-1 $130 $131 $132 $133 forward $51 $-1 #
face $-1 $134 $135 $31 $-1 $136 reversed single #
loop $-1 $-1 $137 $53 #
plane-surface $-1 0 0 -14.772396032323098 0 0 1 1 0 0 forward_v I I I I #
coedge $-1 $138 $139 $140 $141 forward $54 $-1 #
face $-1 $142 $143 $32 $-1 $144 reversed single #
loop $-1 $-1 $145 $56 #
plane-surface $-1 -52.437471326288808 -23.104739916828521 48.507956878419435 0 0.6018150307709319 0.79863550430605224 1 0 0 forward_v I I I I #
coedge $-1 $146 $147 $148 $149 reversed $57 $-1 #
face $-1 $-1 $150 $33 $-1 $151 forward single #
loop $-1 $152 $153 $59 #
cone-surface $-1 -59.665955909418429 27.074451837222071 4.2466115355994027 0 -0.6018150307709319 -0.79863550430605224 1 0 0 1 I I -0.70710678118654746 0.70710678118654746 1 forward I I I I #
loop $-1 $-1 $154 $43 #
coedge $-1 $96 $96 $155 $156 reversed $60 $-1 #
face $-1 $-1 $157 $34 $-1 $158 forward single #
loop $-1 $159 $160 $62 #
cone-surface $-1 -52.437471326288808 27.074451837222071 4.2466115355994027 0 -0.6018150307709319 -0.79863550430605224 1 0 0 1 I I -0.70710678118654746 0.70710678118654746 1 forward I I I I #
loop $-1 $-1 $161 $44 #
coedge $-1 $101 $101 $162 $163 reversed $63 $-1 #
face $-1 $-1 $164 $35 $-1 $165 forward single #
loop $-1 $166 $167 $65 #
cone-surface $-1 -45.208986743159187 27.074451837222071 4.2466115355994027 0 -0.6018150307709319 -0.79863550430605224 1 0 0 1 I I -0.70710678118654746 0.70710678118654746 1 forward I I I I #
loop $-1 $-1 $168 $45 #
coedge $-1 $106 $106 $169 $170 reversed $66 $-1 #
face $-1 $171 $172 $36 $-1 $173 reversed single #
loop $-1 $-1 $174 $68 #
plane-surface $-1 -52.437471326288808 -38.68384633387393 1.9469165349027548 0 -0.6018150307709319 0.79863550430605224 1 0 0 forward_v I I I I #
coedge $-1 $175 $176 $177 $178 reversed $69 $-1 #
face $-1 $-1 $179 $37 $-1 $180 forward single #
loop $-1 $181 $182 $71 #
cone-surface $-1 -59.665955909418429 -27.074451837222064 4.2466115355994063 0 0.6018150307709319 -0.79863550430605224 1 0 0 1 I I -0.70710678118654746 0.70710678118654746 1 forward I I I I #
loop $-1 $-1 $183 $47 #
coedge $-1 $115 $115 $184 $185 reversed $72 $-1 #
face $-1 $-1 $186 $38 $-1 $187 forward single #
loop $-1 $188 $189 $74 #
cone-surface $-1 -52.437471326288808 -27.074451837222064 4.2466115355994063 0 0.6018150307709319 -0.79863550430605224 1 0 0 1 I I -0.70710678118654746 0.70710678118654746 1 forward I I I I #
loop $-1 $-1 $190 $48 #
coedge $-1 $120 $120 $191 $192 reversed $75 $-1 #
face $-1 $-1 $193 $39 $-1 $194 forward single #
loop $-1 $195 $196 $77 #
cone-surface $-1 -45.208986743159187 -27.074451837222064 4.2466115355994063 0 0.6018150307709319 -0.79863550430605224 1 0 0 1 I I -0.70710678118654746 0.70710678118654746 1 forward I I I I #
loop $-1 $-1 $197 $49 #
coedge $-1 $125 $125 $198 $199 reversed $78 $-1 #
face $-1 $200 $201 $30 $-1 $202 reversed single #
loop $-1 $-1 $203 $80 #
plane-surface $-1 0 -38.683846333873916 0 0 1 0 0 0 1 forward_v I I I I #
coedge $-1 $204 $205 $206 $207 forward $81 $-1 #
coedge $-1 $208 $83 $209 $210 forward $51 $-1 #
coedge $-1 $83 $208 $211 $212 forward $51 $-1 #
coedge $-1 $213 $214 $83 $133 reversed $215 $-1 #
edge $-1 $216 -38.683846333873916 $217 38.683846333873916 $132 $218 forward 7 unknown #
face $-1 $219 $220 $31 $-1 $221 reversed single #
loop $-1 $-1 $222 $84 #
plane-surface $-1 -86.867607447927497 -25.331333992634242 0 0 1 0 0 0 1 forward_v I I I I #
coedge $-1 $223 $224 $139 $225 forward $85 $-1 #
coedge $-1 $226 $87 $227 $228 reversed $54 $-1 #
coedge $-1 $87 $226 $137 $225 reversed $54 $-1 #
coedge $-1 $229 $230 $87 $141 reversed $231 $-1 #
edge $-1 $232 -14.772396032323098 $233 14.772396032323098 $140 $234 forward 7 unknown #
face $-1 $235 $236 $32 $-1 $237 forward single #
loop $-1 $-1 $238 $88 #
plane-surface $-1 -40.389997021072773 72.471575575191082 175.34200890417728 -1 0 0 0 0.6018150307709319 0.79863550430605224 forward_v I I I I #
coedge $-1 $239 $240 $241 $242 reversed $89 $-1 #
coedge $-1 $147 $91 $243 $244 reversed $57 $-1 #
coedge $-1 $91 $146 $239 $245 reversed $57 $-1 #
coedge $-1 $241 $246 $91 $149 forward $236 $-1 #
edge $-1 $247 -2.448058546278375 $248 14.571927267748173 $148 $249 forward 7 unknown #
loop $-1 $-1 $155 $92 #
plane-surface $-1 -52.437471326288808 -23.104739916828521 48.507956878419435 0 0.6018150307709319 0.79863550430605224 1 0 0 forward_v I I I I #
loop $-1 $-1 $250 $59 #
coedge $-1 $153 $153 $154 $251 reversed $93 $-1 #
coedge $-1 $154 $154 $153 $251 forward $95 $-1 #
coedge $-1 $155 $155 $96 $156 forward $150 $-1 #
edge $-1 $252 -6.9924678859621399e-016 $252 6.2831853071795996 $155 $253 forward 7 unknown #
loop $-1 $-1 $162 $97 #
plane-surface $-1 -52.437471326288808 -23.104739916828521 48.507956878419435 0 0.6018150307709319 0.79863550430605224 1 0 0 forward_v I I I I #
loop $-1 $-1 $254 $62 #
coedge $-1 $160 $160 $161 $255 reversed $98 $-1 #
coedge $-1 $161 $161 $160 $255 forward $100 $-1 #
coedge $-1 $162 $162 $101 $163 forward $157 $-1 #
edge $-1 $256 -6.9924678859621399e-016 $256 6.2831853071795996 $162 $257 forward 7 unknown #
loop $-1 $-1 $169 $102 #
plane-surface $-1 -52.437471326288808 -23.104739916828521 48.507956878419435 0 0.6018150307709319 0.79863550430605224 1 0 0 forward_v I I I I #
loop $-1 $-1 $258 $65 #
coedge $-1 $167 $167 $168 $259 reversed $103 $-1 #
coedge $-1 $168 $168 $167 $259 forward $105 $-1 #
coedge $-1 $169 $169 $106 $170 forward $164 $-1 #
edge $-1 $260 -6.9924678859621399e-016 $260 6.2831853071795996 $169 $261 forward 7 unknown #
face $-1 $262 $263 $36 $-1 $264 forward single #
loop $-1 $-1 $265 $107 #
plane-surface $-1 -64.484945631504843 -134.26016182589353 128.7809685606606 1 0 0 0 0.6018150307709319 -0.79863550430605224 forward_v I I I I #
coedge $-1 $266 $267 $268 $269 reversed $108 $-1 #
coedge $-1 $176 $110 $270 $271 reversed $69 $-1 #
coedge $-1 $110 $175 $266 $272 reversed $69 $-1 #
coedge $-1 $268 $273 $110 $178 forward $263 $-1 #
edge $-1 $274 28.446234579072851 $275 45.466220393099412 $177 $276 forward 7 unknown #
loop $-1 $-1 $184 $111 #
plane-surface $-1 -52.437471326288808 -38.68384633387393 1.9469165349027548 0 -0.6018150307709319 0.79863550430605224 1 0 0 forward_v I I I I #
loop $-1 $-1 $277 $71 #
coedge $-1 $182 $182 $183 $278 reversed $112 $-1 #
coedge $-1 $183 $183 $182 $278 forward $114 $-1 #
coedge $-1 $184 $184 $115 $185 forward $179 $-1 #
edge $-1 $279 0 $279 6.2831853071796004 $184 $280 forward 7 unknown #
loop $-1 $-1 $191 $116 #
plane-surface $-1 -52.437471326288808 -38.68384633387393 1.9469165349027548 0 -0.6018150307709319 0.79863550430605224 1 0 0 forward_v I I I I #
loop $-1 $-1 $281 $74 #
coedge $-1 $189 $189 $190 $282 reversed $117 $-1 #
coedge $-1 $190 $190 $189 $282 forward $119 $-1 #
coedge $-1 $191 $191 $120 $192 forward $186 $-1 #
edge $-1 $283 0 $283 6.2831853071796004 $191 $284 forward 7 unknown #
loop $-1 $-1 $198 $121 #
plane-surface $-1 -52.437471326288808 -38.68384633387393 1.9469165349027548 0 -0.6018150307709319 0.79863550430605224 1 0 0 forward_v I I I I #
loop $-1 $-1 $285 $77 #
coedge $-1 $196 $196 $197 $286 reversed $122 $-1 #
coedge $-1 $197 $197 $196 $286 forward $124 $-1 #
coedge $-1 $198 $198 $125 $199 forward $193 $-1 #
edge $-1 $287 0 $287 6.2831853071796004 $198 $288 forward 7 unknown #
face $-1 $289 $290 $30 $-1 $291 reversed single #
loop $-1 $-1 $292 $126 #
plane-surface $-1 -79.406720175786617 0 0 1 0 0 0 0 -1 forward_v I I I I #
coedge $-1 $293 $211 $294 $295 forward $127 $-1 #
coedge $-1 $296 $129 $293 $297 forward $81 $-1 #
coedge $-1 $129 $296 $298 $299 forward $81 $-1 #
coedge $-1 $214 $213 $129 $207 reversed $215 $-1 #
edge $-1 $300 -38.683846333873916 $301 38.683846333873916 $206 $302 forward 7 unknown #
coedge $-1 $131 $130 $303 $304 forward $51 $-1 #
coedge $-1 $305 $306 $130 $210 reversed $290 $-1 #
edge $-1 $217 -79.406720175786617 $307 79.406720175786617 $209 $308 forward 7 unknown #
coedge $-1 $203 $309 $131 $212 reversed $127 $-1 #
edge $-1 $310 -79.406720175786617 $216 79.406720175786617 $211 $311 forward 7 unknown #
coedge $-1 $206 $132 $309 $312 forward $215 $-1 #
coedge $-1 $132 $206 $305 $313 reversed $215 $-1 #
loop $-1 $-1 $213 $289 #
vertex $-1 $133 $314 #
vertex $-1 $133 $315 #
straight-curve $-1 79.406720175786617 0 14.772396032323098 0 1 0 I I #
face $-1 $316 $231 $31 $-1 $317 reversed single #
loop $-1 $-1 $318 $134 #
plane-surface $-1 -94.328494720068392 -23.204806851154558 0 1 0 0 0 0 -1 forward_v I I I I #
coedge $-1 $319 $320 $321 $322 forward $135 $-1 #
coedge $-1 $323 $137 $319 $324 forward $85 $-1 #
coedge $-1 $137 $323 $229 $325 forward $85 $-1 #
edge $-1 $232 21.078279709674874 $326 25.331333992634242 $137 $327 forward 7 unknown #
coedge $-1 $139 $138 $328 $329 forward $54 $-1 #
coedge $-1 $330 $331 $138 $228 forward $332 $-1 #
edge $-1 $333 -25.331333992634242 $233 -21.078279709674874 $227 $334 forward 7 unknown #
coedge $-1 $335 $140 $224 $325 reversed $231 $-1 #
coedge $-1 $140 $335 $330 $336 reversed $231 $-1 #
loop $-1 $-1 $140 $219 #
vertex $-1 $225 $337 #
vertex $-1 $336 $338 #
straight-curve $-1 -79.406720175786617 -21.078279709674874 0 0 0 1 I I #
face $-1 $-1 $339 $32 $-1 $340 reversed single #
loop $-1 $-1 $148 $142 #
plane-surface $-1 0 0 14.772396032323098 0 0 1 1 0 0 forward_v I I I I #
coedge $-1 $341 $342 $343 $344 reversed $143 $-1 #
coedge $-1 $345 $145 $147 $245 forward $89 $-1 #
coedge $-1 $145 $345 $341 $346 forward $89 $-1 #
coedge $-1 $343 $148 $145 $242 forward $236 $-1 #
edge $-1 $248 -38.266209968360442 $347 -14.171261357928369 $241 $348 forward 7 unknown #
coedge $-1 $349 $350 $146 $244 forward $339 $-1 #
edge $-1 $351 -85.724087917185869 $247 -72.898608419765537 $243 $352 forward 7 unknown #
edge $-1 $248 56.056361375488912 $351 77.367692667747832 $147 $353 forward 7 unknown #
coedge $-1 $148 $343 $349 $354 forward $236 $-1 #
vertex $-1 $244 $355 #
vertex $-1 $149 $356 #
straight-curve $-1 -64.484945631504843 36.235787787595541 14.772396032323101 0 -1 0 I I #
coedge $-1 $250 $250 $-1 $357 reversed $152 $-1 #
edge $-1 $358 0 $358 6.2831853071796004 $153 $359 forward 7 unknown #
vertex $-1 $156 $360 #
ellipse-curve $-1 -59.665955909418429 30.173853426860649 8.3596562836129351 0 0.6018150307709319 0.79863550430605224 2 0 0 1 I I #
coedge $-1 $254 $254 $-1 $361 reversed $159 $-1 #
edge $-1 $362 0 $362 6.2831853071796004 $160 $363 forward 7 unknown #
vertex $-1 $163 $364 #
ellipse-curve $-1 -52.437471326288808 30.173853426860649 8.3596562836129351 0 0.6018150307709319 0.79863550430605224 2 0 0 1 I I #
coedge $-1 $258 $258 $-1 $365 reversed $166 $-1 #
edge $-1 $366 0 $366 6.2831853071796004 $167 $367 forward 7 unknown #
vertex $-1 $170 $368 #
ellipse-curve $-1 -45.208986743159187 30.173853426860649 8.3596562836129351 0 0.6018150307709319 0.79863550430605224 2 0 0 1 I I #
face $-1 $-1 $369 $36 $-1 $370 reversed single #
loop $-1 $-1 $177 $171 #
plane-surface $-1 0 0 14.772396032323098 0 0 1 1 0 0 forward_v I I I I #
coedge $-1 $371 $372 $373 $374 reversed $172 $-1 #
coedge $-1 $375 $174 $176 $272 forward $108 $-1 #
coedge $-1 $174 $375 $371 $376 forward $108 $-1 #
coedge $-1 $373 $177 $174 $269 forward $263 $-1 #
edge $-1 $275 14.171261357928369 $377 38.266209968360442 $268 $378 forward 7 unknown #
coedge $-1 $379 $380 $175 $271 forward $369 $-1 #
edge $-1 $381 -62.443567745427529 $274 -49.618088248007197 $270 $382 forward 7 unknown #
edge $-1 $275 -21.311331292258949 $381 -1.7763522597878294e-014 $176 $383 forward 7 unknown #
coedge $-1 $177 $373 $379 $384 forward $263 $-1 #
vertex $-1 $178 $385 #
vertex $-1 $178 $386 #
straight-curve $-1 -40.389997021072773 -67.130080912946767 14.772396032323101 0 1 0 I I #
coedge $-1 $277 $277 $-1 $387 reversed $181 $-1 #
edge $-1 $388 0 $388 6.2831853071796004 $182 $389 forward 7 unknown #
vertex $-1 $185 $390 #
ellipse-curve $-1 -59.665955909418429 -30.173853426860635 8.3596562836129316 0 -0.6018150307709319 0.79863550430605224 2 0 0 1 I I #
coedge $-1 $281 $281 $-1 $391 reversed $188 $-1 #
edge $-1 $392 0 $392 6.2831853071796004 $189 $393 forward 7 unknown #
vertex $-1 $192 $394 #
ellipse-curve $-1 -52.437471326288808 -30.173853426860635 8.3596562836129316 0 -0.6018150307709319 0.79863550430605224 2 0 0 1 I I #
coedge $-1 $285 $285 $-1 $395 reversed $195 $-1 #
edge $-1 $396 0 $396 6.2831853071796004 $196 $397 forward 7 unknown #
vertex $-1 $199 $398 #
ellipse-curve $-1 -45.208986743159187 -30.173853426860635 8.3596562836129316 0 -0.6018150307709319 0.79863550430605224 2 0 0 1 I I #
face $-1 $-1 $215 $30 $-1 $399 reversed single #
loop $-1 $-1 $305 $200 #
plane-surface $-1 0 38.683846333873916 0 0 -1 0 0 0 -1 forward_v I I I I #
coedge $-1 $400 $303 $306 $401 forward $201 $-1 #
coedge $-1 $309 $203 $204 $297 reversed $127 $-1 #
coedge $-1 $303 $400 $203 $295 reversed $201 $-1 #
edge $-1 $310 -14.772396032323098 $402 14.772396032323098 $294 $403 forward 7 unknown #
coedge $-1 $205 $204 $400 $404 forward $81 $-1 #
edge $-1 $301 -79.406720175786617 $402 79.406720175786617 $293 $405 forward 7 unknown #
coedge $-1 $306 $305 $205 $299 reversed $290 $-1 #
edge $-1 $406 -79.406720175786617 $300 79.406720175786617 $298 $407 forward 7 unknown #
vertex $-1 $207 $408 #
vertex $-1 $312 $409 #
straight-curve $-1 79.406720175786617 0 -14.772396032323098 0 -1 0 I I #
coedge $-1 $292 $294 $208 $304 reversed $201 $-1 #
edge $-1 $307 -38.683846333873916 $310 38.683846333873916 $303 $410 forward 7 unknown #
coedge $-1 $298 $209 $214 $313 forward $290 $-1 #
coedge $-1 $209 $298 $292 $401 reversed $290 $-1 #
vertex $-1 $210 $411 #
straight-curve $-1 0 38.683846333873916 14.772396032323098 -1 0 0 I I #
coedge $-1 $211 $293 $213 $312 reversed $127 $-1 #
vertex $-1 $304 $412 #
straight-curve $-1 0 -38.683846333873916 14.772396032323098 1 0 0 I I #
edge $-1 $216 -14.772396032323098 $301 14.772396032323098 $213 $413 forward 7 unknown #
edge $-1 $217 -14.772396032323098 $300 14.772396032323098 $214 $414 forward 7 unknown #
point $-1 79.406720175786617 -38.683846333873916 14.772396032323098 #
point $-1 79.406720175786617 38.683846333873916 14.772396032323098 #
face $-1 $-1 $332 $31 $-1 $415 forward single #
plane-surface $-1 -86.867607447927497 -21.078279709674874 0 0 -1 0 0 0 -1 forward_v I I I I #
coedge $-1 $416 $417 $335 $418 forward $220 $-1 #
coedge $-1 $328 $222 $223 $324 reversed $135 $-1 #
coedge $-1 $222 $328 $331 $419 reversed $135 $-1 #
coedge $-1 $417 $416 $222 $322 reversed $220 $-1 #
edge $-1 $420 -14.772396032323098 $421 14.772396032323098 $321 $422 forward 7 unknown #
coedge $-1 $224 $223 $416 $423 forward $85 $-1 #
edge $-1 $326 -7.4608872721408943 $421 7.4608872721408943 $319 $424 forward 7 unknown #
edge $-1 $425 -7.4608872721408943 $232 7.4608872721408943 $229 $426 forward 7 unknown #
vertex $-1 $324 $427 #
straight-curve $-1 -79.406720175786617 0 -14.772396032323098 0 -1 0 I I #
coedge $-1 $320 $319 $226 $329 reversed $135 $-1 #
edge $-1 $333 -14.772396032323098 $326 14.772396032323098 $328 $428 forward 7 unknown #
coedge $-1 $429 $227 $230 $336 forward $332 $-1 #
coedge $-1 $227 $429 $320 $419 forward $332 $-1 #
loop $-1 $-1 $227 $316 #
vertex $-1 $228 $430 #
straight-curve $-1 -79.406720175786617 0 14.772396032323098 0 1 0 I I #
coedge $-1 $230 $229 $318 $418 reversed $231 $-1 #
edge $-1 $233 -7.4608872721408943 $431 7.4608872721408943 $230 $432 forward 7 unknown #
point $-1 -79.406720175786603 -21.078279709674874 -14.772396032323098 #
point $-1 -79.406720175786603 -21.078279709674874 14.772396032323098 #
loop $-1 $-1 $243 $235 #
plane-surface $-1 0 38.683846333873916 0 0 -1 0 0 0 -1 forward_v I I I I #
coedge $-1 $342 $238 $240 $346 reversed $143 $-1 #
coedge $-1 $238 $341 $433 $434 reversed $143 $-1 #
coedge $-1 $246 $241 $238 $344 forward $236 $-1 #
edge $-1 $347 -14.571927267748173 $435 2.448058546278375 $343 $436 forward 7 unknown #
coedge $-1 $240 $239 $350 $437 reversed $89 $-1 #
edge $-1 $438 -77.367692667747832 $347 -56.056361375488912 $341 $439 forward 7 unknown #
vertex $-1 $242 $440 #
straight-curve $-1 -26.218735663144404 21.663860519847372 14.772396032323101 1 0 0 I I #
coedge $-1 $433 $243 $246 $354 reversed $339 $-1 #
coedge $-1 $243 $433 $345 $437 forward $339 $-1 #
vertex $-1 $244 $441 #
straight-curve $-1 -64.484945631504843 38.683846333873916 87.671004452088638 0 0 1 I I #
straight-curve $-1 -64.484945631504843 -23.104739916828521 48.507956878419435 0 0.79863550430605224 -0.6018150307709319 I I #
edge $-1 $435 40.389997021072773 $247 64.484945631504843 $349 $442 forward 7 unknown #
point $-1 -64.484945631504843 38.683846333873916 14.772396032323098 #
point $-1 -64.484945631504843 21.663860519847368 14.772396032323101 #
edge $-1 $443 1 $443 0 $250 $-1 forward 7 unknown #
vertex $-1 $251 $444 #
ellipse-curve $-1 -59.665955909418429 27.676266867993004 5.0452470399054548 0 0.6018150307709319 0.79863550430605224 2 0 0 1 I I #
point $-1 -57.665955909418429 30.173853426860642 8.359656283612928 #
edge $-1 $445 1 $445 0 $254 $-1 forward 7 unknown #
vertex $-1 $255 $446 #
ellipse-curve $-1 -52.437471326288808 27.676266867993004 5.0452470399054548 0 0.6018150307709319 0.79863550430605224 2 0 0 1 I I #
point $-1 -50.437471326288808 30.173853426860642 8.359656283612928 #
edge $-1 $447 1 $447 0 $258 $-1 forward 7 unknown #
vertex $-1 $259 $448 #
ellipse-curve $-1 -45.208986743159187 27.676266867993004 5.0452470399054548 0 0.6018150307709319 0.79863550430605224 2 0 0 1 I I #
point $-1 -43.208986743159187 30.173853426860642 8.359656283612928 #
loop $-1 $-1 $270 $262 #
plane-surface $-1 0 -38.683846333873916 0 0 1 0 0 0 1 forward_v I I I I #
coedge $-1 $372 $265 $267 $376 reversed $172 $-1 #
coedge $-1 $265 $371 $449 $450 reversed $172 $-1 #
coedge $-1 $273 $268 $265 $374 forward $263 $-1 #
edge $-1 $377 -45.466220393099412 $451 -28.446234579072851 $373 $452 forward 7 unknown #
coedge $-1 $267 $266 $380 $453 reversed $108 $-1 #
edge $-1 $454 1.7763522597878294e-014 $377 21.311331292258949 $371 $455 forward 7 unknown #
vertex $-1 $269 $456 #
straight-curve $-1 -26.218735663144404 -21.663860519847354 14.772396032323098 -1 0 0 I I #
coedge $-1 $449 $270 $273 $384 reversed $369 $-1 #
coedge $-1 $270 $449 $375 $453 forward $369 $-1 #
vertex $-1 $271 $457 #
straight-curve $-1 -40.389997021072773 -38.683846333873916 64.390484280330298 0 0 1 I I #
straight-curve $-1 -40.389997021072773 -38.68384633387393 1.9469165349027548 0 -0.79863550430605224 -0.6018150307709319 I I #
edge $-1 $451 -64.484945631504843 $274 -40.389997021072773 $379 $458 forward 7 unknown #
point $-1 -40.389997021072773 -38.683846333873916 14.772396032323098 #
point $-1 -40.389997021072773 -21.663860519847354 14.772396032323098 #
edge $-1 $459 1 $459 0 $277 $-1 forward 7 unknown #
vertex $-1 $278 $460 #
ellipse-curve $-1 -59.665955909418429 -27.676266867992997 5.0452470399054583 0 -0.6018150307709319 0.79863550430605224 2 0 0 1 I I #
point $-1 -57.665955909418429 -30.173853426860635 8.3596562836129316 #
edge $-1 $461 1 $461 0 $281 $-1 forward 7 unknown #
vertex $-1 $282 $462 #
ellipse-curve $-1 -52.437471326288808 -27.676266867992997 5.0452470399054583 0 -0.6018150307709319 0.79863550430605224 2 0 0 1 I I #
point $-1 -50.437471326288808 -30.173853426860635 8.3596562836129316 #
edge $-1 $463 1 $463 0 $285 $-1 forward 7 unknown #
vertex $-1 $286 $464 #
ellipse-curve $-1 -45.208986743159187 -27.676266867992997 5.0452470399054583 0 -0.6018150307709319 0.79863550430605224 2 0 0 1 I I #
point $-1 -43.208986743159187 -30.173853426860635 8.3596562836129316 #
plane-surface $-1 79.406720175786617 0 0 -1 0 0 0 0 1 forward_v I I I I #
coedge $-1 $294 $292 $296 $404 reversed $201 $-1 #
edge $-1 $307 -14.772396032323098 $406 14.772396032323098 $306 $465 forward 7 unknown #
vertex $-1 $404 $466 #
straight-curve $-1 -79.406720175786617 -38.683846333873916 0 0 0 -1 I I #
edge $-1 $402 -38.683846333873916 $406 38.683846333873916 $400 $467 forward 7 unknown #
straight-curve $-1 0 -38.683846333873916 -14.772396032323098 -1 0 0 I I #
vertex $-1 $299 $468 #
straight-curve $-1 0 38.683846333873916 -14.772396032323098 1 0 0 I I #
point $-1 79.406720175786617 38.683846333873916 -14.772396032323098 #
point $-1 79.406720175786617 -38.683846333873916 -14.772396032323098 #
straight-curve $-1 -79.406720175786617 0 14.772396032323098 0 -1 0 I I #
point $-1 -79.406720175786617 38.683846333873916 14.772396032323098 #
point $-1 -79.406720175786617 -38.683846333873916 14.772396032323098 #
straight-curve $-1 79.406720175786617 -38.683846333873916 0 0 0 -1 I I #
straight-curve $-1 79.406720175786617 38.683846333873916 0 0 0 -1 I I #
plane-surface $-1 0 0 14.772396032323098 0 0 1 1 0 0 forward_v I I I I #
coedge $-1 $321 $318 $323 $423 reversed $220 $-1 #
coedge $-1 $318 $321 $429 $469 reversed $220 $-1 #
edge $-1 $431 -14.772396032323098 $425 14.772396032323098 $335 $470 forward 7 unknown #
edge $-1 $420 -7.4608872721408943 $333 7.4608872721408943 $320 $471 forward 7 unknown #
vertex $-1 $469 $472 #
vertex $-1 $423 $473 #
straight-curve $-1 -94.328494720068392 -25.331333992634242 0 0 0 -1 I I #
edge $-1 $421 -2.1265271414796842 $425 2.1265271414796842 $416 $474 forward 7 unknown #
straight-curve $-1 -86.867607447927497 -25.331333992634242 -14.772396032323098 -1 0 0 I I #
vertex $-1 $325 $475 #
straight-curve $-1 -86.867607447927497 -21.078279709674874 -14.772396032323098 1 0 0 I I #
point $-1 -79.406720175786603 -25.331333992634242 -14.772396032323098 #
straight-curve $-1 -79.406720175786617 -25.331333992634242 0 0 0 -1 I I #
coedge $-1 $331 $330 $417 $469 forward $332 $-1 #
point $-1 -79.406720175786603 -25.331333992634242 14.772396032323098 #
vertex $-1 $336 $476 #
straight-curve $-1 -86.867607447927497 -21.078279709674874 14.772396032323098 -1 0 0 I I #
coedge $-1 $350 $349 $342 $434 forward $339 $-1 #
edge $-1 $435 72.898608419765537 $438 85.724087917185869 $433 $477 forward 7 unknown #
vertex $-1 $354 $478 #
straight-curve $-1 -40.389997021072773 36.235787787595541 14.772396032323101 0 1 0 I I #
edge $-1 $438 14.171261357928369 $351 38.266209968360442 $350 $479 forward 7 unknown #
vertex $-1 $437 $480 #
straight-curve $-1 -40.389997021072773 -23.104739916828521 48.507956878419435 0 -0.79863550430605224 0.6018150307709319 I I #
point $-1 -40.389997021072773 21.663860519847368 14.772396032323101 #
point $-1 -64.484945631504843 38.683846333873916 1.9469165349027762 #
straight-curve $-1 0 38.683846333873916 14.772396032323098 -1 0 0 I I #
vertex $-1 $357 $481 #
point $-1 -57.665955909418429 27.676266867993004 5.0452470399054548 #
vertex $-1 $361 $482 #
point $-1 -50.437471326288808 27.676266867993004 5.0452470399054548 #
vertex $-1 $365 $483 #
point $-1 -43.208986743159187 27.676266867993004 5.0452470399054548 #
coedge $-1 $380 $379 $372 $450 forward $369 $-1 #
edge $-1 $451 49.618088248007197 $454 62.443567745427529 $449 $484 forward 7 unknown #
vertex $-1 $384 $485 #
straight-curve $-1 -64.484945631504843 -67.130080912946767 14.772396032323101 0 -1 0 I I #
edge $-1 $454 -38.266209968360442 $381 -14.171261357928369 $380 $486 forward 7 unknown #
vertex $-1 $453 $487 #
straight-curve $-1 -64.484945631504843 -38.68384633387393 1.9469165349027548 0 0.79863550430605224 0.6018150307709319 I I #
point $-1 -64.484945631504843 -21.663860519847354 14.772396032323098 #
point $-1 -40.389997021072773 -38.683846333873916 1.9469165349027655 #
straight-curve $-1 0 -38.683846333873916 14.772396032323098 1 0 0 I I #
vertex $-1 $387 $488 #
point $-1 -57.665955909418429 -27.676266867992997 5.0452470399054583 #
vertex $-1 $391 $489 #
point $-1 -50.437471326288808 -27.676266867992997 5.0452470399054583 #
vertex $-1 $395 $490 #
point $-1 -43.208986743159187 -27.676266867992997 5.0452470399054583 #
straight-curve $-1 -79.406720175786617 38.683846333873916 0 0 0 -1 I I #
point $-1 -79.406720175786617 -38.683846333873916 -14.772396032323098 #
straight-curve $-1 -79.406720175786617 0 -14.772396032323098 0 1 0 I I #
point $-1 -79.406720175786617 38.683846333873916 -14.772396032323098 #
edge $-1 $431 -2.1265271414796842 $420 2.1265271414796842 $417 $491 forward 7 unknown #
straight-curve $-1 -94.328494720068392 -21.078279709674874 0 0 0 -1 I I #
straight-curve $-1 -86.867607447927497 -25.331333992634242 14.772396032323098 1 0 0 I I #
point $-1 -94.328494720068392 -25.331333992634242 14.772396032323098 #
point $-1 -94.328494720068392 -25.331333992634242 -14.772396032323098 #
straight-curve $-1 -94.328494720068392 -23.204806851154558 -14.772396032323098 0 1 0 I I #
point $-1 -94.328494720068392 -21.078279709674874 -14.772396032323098 #
point $-1 -94.328494720068392 -21.078279709674874 14.772396032323098 #
straight-curve $-1 -40.389997021072773 38.683846333873916 87.671004452088638 0 0 -1 I I #
point $-1 -40.389997021072773 38.683846333873916 14.772396032323098 #
straight-curve $-1 -26.218735663144404 38.683846333873916 1.9469165349027797 -1 0 0 I I #
point $-1 -40.389997021072773 38.683846333873916 1.9469165349027762 #
point $-1 -59.665955909418429 26.472636806451138 3.4479760312933507 #
point $-1 -52.437471326288808 26.472636806451138 3.4479760312933507 #
point $-1 -45.208986743159187 26.472636806451138 3.4479760312933507 #
straight-curve $-1 -64.484945631504843 -38.683846333873916 64.390484280330298 0 0 -1 I I #
point $-1 -64.484945631504843 -38.683846333873916 14.772396032323098 #
straight-curve $-1 -26.218735663144404 -38.683846333873916 1.9469165349027673 1 0 0 I I #
point $-1 -64.484945631504843 -38.683846333873916 1.9469165349027655 #
point $-1 -59.665955909418429 -26.472636806451131 3.4479760312933543 #
point $-1 -52.437471326288808 -26.472636806451131 3.4479760312933543 #
point $-1 -45.208986743159187 -26.472636806451131 3.4479760312933543 #
straight-curve $-1 -94.328494720068392 -23.204806851154558 14.772396032323098 0 -1 0 I I #
End-of-ACIS-data 