500 0 8 0           
7 Unknown 11 ACIS 5.0 NT 24 Thu Mar 25 23:36:53 1999 
-1 9.9999999999999995e-007 1e-010 
body $-1 $8 $-1 $9 #
body $-1 $10 $-1 $11 #
body $-1 $12 $-1 $13 #
body $-1 $14 $-1 $15 #
body $-1 $16 $-1 $17 #
body $-1 $18 $-1 $19 #
body $-1 $20 $-1 $21 #
body $-1 $22 $-1 $23 #
lump $-1 $-1 $24 $0 #
transform $-1 1 0 0 0 1 0 0 0 1 71.539048432874537 49.517326397807778 13.874885726152298 1 rotate no_reflect no_shear #
lump $-1 $-1 $25 $1 #
transform $-1 1 0 0 0 1 0 0 0 1 71.539048432874537 49.517326397807778 13.874885726152298 1 rotate no_reflect no_shear #
lump $-1 $-1 $26 $2 #
transform $-1 1 0 0 0 1 0 0 0 1 71.539048432874537 49.517326397807778 13.874885726152298 1 rotate no_reflect no_shear #
lump $-1 $-1 $27 $3 #
transform $-1 1 0 0 0 1 0 0 0 1 71.539048432874537 49.517326397807778 13.874885726152298 1 rotate no_reflect no_shear #
lump $-1 $-1 $28 $4 #
transform $-1 1 0 0 0 1 0 0 0 1 71.539048432874537 49.517326397807778 13.874885726152298 1 rotate no_reflect no_shear #
lump $-1 $-1 $29 $5 #
transform $-1 1 0 0 0 1 0 0 0 1 71.539048432874537 49.517326397807778 13.874885726152298 1 rotate no_reflect no_shear #
lump $-1 $-1 $30 $6 #
transform $-1 1 0 0 0 1 0 0 0 1 71.539048432874537 49.517326397807778 13.874885726152298 1 rotate no_reflect no_shear #
lump $-1 $-1 $31 $7 #
transform $-1 1 0 0 0 1 0 0 0 1 71.539048432874537 49.517326397807778 13.874885726152298 1 rotate no_reflect no_shear #
shell $-1 $-1 $-1 $32 $-1 $8 #
shell $-1 $-1 $-1 $33 $-1 $10 #
shell $-1 $-1 $-1 $34 $-1 $12 #
shell $-1 $-1 $-1 $35 $-1 $14 #
shell $-1 $-1 $-1 $36 $-1 $16 #
shell $-1 $-1 $-1 $37 $-1 $18 #
shell $-1 $-1 $-1 $38 $-1 $20 #
shell $-1 $-1 $-1 $39 $-1 $22 #
face $-1 $40 $41 $24 $-1 $42 forward single #
face $-1 $43 $44 $25 $-1 $45 forward single #
face $-1 $46 $47 $26 $-1 $48 reversed single #
face $-1 $49 $50 $27 $-1 $51 forward single #
face $-1 $52 $53 $28 $-1 $54 forward single #
face $-1 $55 $56 $29 $-1 $57 reversed single #
face $-1 $58 $59 $30 $-1 $60 forward single #
face $-1 $61 $62 $31 $-1 $63 forward single #
face $-1 $64 $65 $24 $-1 $66 reversed single #
loop $-1 $-1 $67 $32 #
plane-surface $-1 0 0 13.874885726152298 0 0 1 1 0 0 forward_v I I I I #
face $-1 $68 $69 $25 $-1 $70 reversed single #
loop $-1 $-1 $71 $33 #
plane-surface $-1 0 -49.517326397807778 0 0 1 0 0 0 1 forward_v I I I I #
face $-1 $72 $73 $26 $-1 $74 reversed single #
loop $-1 $-1 $75 $34 #
plane-surface $-1 120.4902499280109 -0.1822080422668364 196.95880047380149 0 -1 0 -0.85716730853699208 0 -0.51503806187062418 forward_v I I I I #
face $-1 $76 $77 $27 $-1 $78 forward single #
loop $-1 $79 $80 $35 #
cone-surface $-1 64.216497606549041 -15.509126144867373 5.2423415937419122 -0.85716730853699208 0 -0.51503806187062418 1.0300761237412484 0 -1.7143346170739842 1 I I 0 1 2 forward I I I I #
face $-1 $81 $82 $28 $-1 $83 forward single #
loop $-1 $84 $85 $36 #
cone-surface $-1 64.216497606549041 -6.312975283307054 5.2423415937419122 -0.85716730853699208 0 -0.51503806187062418 1.0300761237412484 0 -1.7143346170739842 1 I I 0 1 2 forward I I I I #
face $-1 $86 $87 $29 $-1 $88 reversed single #
loop $-1 $-1 $89 $37 #
plane-surface $-1 -174.46081924392513 38.180538271386609 106.95771319206138 0 1 0 -0.71933980857756763 0 0.69465836192734942 forward_v I I I I #
face $-1 $90 $91 $30 $-1 $92 forward single #
loop $-1 $93 $94 $38 #
cone-surface $-1 -67.663764834076005 41.419620593221225 9.919860211662721 0.71933980857756763 0 -0.69465836192734942 0.69465836192734942 0 0.71933980857756763 1 I I 0 1 1 forward I I I I #
face $-1 $95 $96 $31 $-1 $97 forward single #
loop $-1 $98 $99 $39 #
cone-surface $-1 -67.663764834076005 46.278244075973149 9.919860211662721 0.71933980857756763 0 -0.69465836192734942 0.69465836192734942 0 0.71933980857756763 1 I I 0 1 1 forward I I I I #
face $-1 $100 $101 $24 $-1 $102 reversed single #
loop $-1 $-1 $103 $40 #
plane-surface $-1 0 0 -13.874885726152298 0 0 1 1 0 0 forward_v I I I I #
coedge $-1 $104 $105 $106 $107 forward $41 $-1 #
face $-1 $108 $109 $25 $-1 $110 reversed single #
loop $-1 $-1 $111 $43 #
plane-surface $-1 0 0 -13.874885726152298 0 0 1 1 0 0 forward_v I I I I #
coedge $-1 $112 $113 $114 $115 forward $44 $-1 #
face $-1 $116 $117 $26 $-1 $118 reversed single #
loop $-1 $-1 $119 $46 #
plane-surface $-1 -2.1516172729982799 -10.91105071408721 123.26813476792866 0.85716730853699208 0 0.51503806187062418 0.51503806187062418 0 -0.85716730853699208 forward_v I I I I #
coedge $-1 $120 $121 $122 $123 reversed $47 $-1 #
face $-1 $-1 $124 $27 $-1 $125 forward single #
loop $-1 $126 $127 $49 #
cone-surface $-1 60.017065788742698 -15.509126144867373 2.7190684790773094 -0.85716730853699208 0 -0.51503806187062418 0.51503806187062418 0 -0.85716730853699208 1 I I -0.70710678118654768 0.70710678118654735 1 forward I I I I #
loop $-1 $-1 $128 $35 #
coedge $-1 $80 $80 $129 $130 reversed $50 $-1 #
face $-1 $-1 $131 $28 $-1 $132 forward single #
loop $-1 $133 $134 $52 #
cone-surface $-1 60.017065788742698 -6.312975283307054 2.7190684790773094 -0.85716730853699208 0 -0.51503806187062418 0.51503806187062418 0 -0.85716730853699208 1 I I -0.70710678118654768 0.70710678118654735 1 forward I I I I #
loop $-1 $-1 $135 $36 #
coedge $-1 $85 $85 $136 $137 reversed $53 $-1 #
face $-1 $138 $139 $29 $-1 $140 reversed single #
loop $-1 $-1 $141 $55 #
plane-surface $-1 -71.539048432874509 43.848932334597194 7.5673167956175007 -0.71933980857756763 0 0.69465836192734942 0.69465836192734942 0 0.71933980857756763 forward_v I I I I #
coedge $-1 $142 $143 $144 $145 reversed $56 $-1 #
face $-1 $-1 $146 $30 $-1 $147 forward single #
loop $-1 $148 $149 $58 #
cone-surface $-1 -66.474385514970947 41.419620593221225 8.7712899814768637 0.71933980857756763 0 -0.69465836192734942 0.34732918096367471 0 0.35966990428878381 1 I I -0.70710678118654746 0.70710678118654746 0.5 forward I I I I #
loop $-1 $-1 $150 $38 #
coedge $-1 $94 $94 $151 $152 reversed $59 $-1 #
face $-1 $-1 $153 $31 $-1 $154 forward single #
loop $-1 $155 $156 $61 #
cone-surface $-1 -66.474385514970947 46.278244075973149 8.7712899814768637 0.71933980857756763 0 -0.69465836192734942 0.34732918096367471 0 0.35966990428878381 1 I I -0.70710678118654746 0.70710678118654746 0.5 forward I I I I #
loop $-1 $-1 $157 $39 #
coedge $-1 $99 $99 $158 $159 reversed $62 $-1 #
face $-1 $160 $161 $24 $-1 $162 reversed single #
loop $-1 $-1 $163 $64 #
plane-surface $-1 0 -49.517326397807778 0 0 1 0 0 0 1 forward_v I I I I #
coedge $-1 $164 $165 $166 $167 forward $65 $-1 #
coedge $-1 $168 $67 $169 $170 forward $41 $-1 #
coedge $-1 $67 $168 $171 $172 forward $41 $-1 #
coedge $-1 $173 $174 $67 $107 reversed $175 $-1 #
edge $-1 $176 -49.517326397807778 $177 49.517326397807778 $106 $178 forward 7 unknown #
face $-1 $179 $180 $25 $-1 $181 reversed single #
loop $-1 $-1 $182 $68 #
plane-surface $-1 -52.203005421488413 -65.842621871836627 0 0 1 0 0 0 1 forward_v I I I I #
coedge $-1 $183 $184 $113 $185 forward $69 $-1 #
coedge $-1 $186 $71 $187 $188 reversed $44 $-1 #
coedge $-1 $71 $186 $111 $185 reversed $44 $-1 #
coedge $-1 $189 $190 $71 $115 reversed $180 $-1 #
edge $-1 $191 -13.874885726152298 $192 13.874885726152298 $114 $193 forward 7 unknown #
face $-1 $194 $195 $26 $-1 $196 forward single #
loop $-1 $-1 $197 $72 #
plane-surface $-1 120.4902499280109 -21.639893385907584 196.95880047380149 0 1 0 0.85716730853699208 0 0.51503806187062418 forward_v I I I I #
coedge $-1 $198 $199 $200 $201 reversed $73 $-1 #
coedge $-1 $121 $75 $202 $203 reversed $47 $-1 #
coedge $-1 $75 $120 $198 $204 reversed $47 $-1 #
coedge $-1 $200 $205 $75 $123 forward $195 $-1 #
edge $-1 $206 -11.293923468869089 $207 -3.3333508347568639 $122 $208 forward 7 unknown #
loop $-1 $-1 $129 $76 #
plane-surface $-1 -2.1516172729982799 -10.91105071408721 123.26813476792866 0.85716730853699208 0 0.51503806187062418 0.51503806187062418 0 -0.85716730853699208 forward_v I I I I #
loop $-1 $-1 $209 $49 #
coedge $-1 $127 $127 $128 $210 reversed $77 $-1 #
coedge $-1 $128 $128 $127 $210 forward $79 $-1 #
coedge $-1 $129 $129 $80 $130 forward $124 $-1 #
edge $-1 $211 0 $211 6.2831853071796004 $129 $212 forward 7 unknown #
loop $-1 $-1 $136 $81 #
plane-surface $-1 -2.1516172729982799 -10.91105071408721 123.26813476792866 0.85716730853699208 0 0.51503806187062418 0.51503806187062418 0 -0.85716730853699208 forward_v I I I I #
loop $-1 $-1 $213 $52 #
coedge $-1 $134 $134 $135 $214 reversed $82 $-1 #
coedge $-1 $135 $135 $134 $214 forward $84 $-1 #
coedge $-1 $136 $136 $85 $137 forward $131 $-1 #
edge $-1 $215 0 $215 6.2831853071796004 $136 $216 forward 7 unknown #
face $-1 $217 $218 $29 $-1 $219 reversed single #
loop $-1 $-1 $220 $86 #
plane-surface $-1 0 49.517326397807778 0 0 -1 0 0 0 -1 forward_v I I I I #
coedge $-1 $221 $222 $223 $224 reversed $87 $-1 #
coedge $-1 $143 $89 $225 $226 reversed $56 $-1 #
coedge $-1 $89 $142 $221 $227 reversed $56 $-1 #
coedge $-1 $223 $228 $89 $145 forward $229 $-1 #
edge $-1 $230 15.691361189088028 $231 21.782509557052549 $144 $232 forward 7 unknown #
loop $-1 $-1 $151 $90 #
plane-surface $-1 -71.539048432874509 43.848932334597194 7.5673167956175007 -0.71933980857756763 0 0.69465836192734942 0.69465836192734942 0 0.71933980857756763 forward_v I I I I #
loop $-1 $-1 $233 $58 #
coedge $-1 $149 $149 $150 $234 reversed $91 $-1 #
coedge $-1 $150 $150 $149 $234 forward $93 $-1 #
coedge $-1 $151 $151 $94 $152 forward $146 $-1 #
edge $-1 $235 0 $235 6.2831853071796004 $151 $236 forward 7 unknown #
loop $-1 $-1 $158 $95 #
plane-surface $-1 -71.539048432874509 43.848932334597194 7.5673167956175007 -0.71933980857756763 0 0.69465836192734942 0.69465836192734942 0 0.71933980857756763 forward_v I I I I #
loop $-1 $-1 $237 $61 #
coedge $-1 $156 $156 $157 $238 reversed $96 $-1 #
coedge $-1 $157 $157 $156 $238 forward $98 $-1 #
coedge $-1 $158 $158 $99 $159 forward $153 $-1 #
edge $-1 $239 0 $239 6.2831853071796004 $158 $240 forward 7 unknown #
face $-1 $241 $242 $24 $-1 $243 reversed single #
loop $-1 $-1 $244 $100 #
plane-surface $-1 -71.539048432874537 0 0 1 0 0 0 0 -1 forward_v I I I I #
coedge $-1 $245 $171 $246 $247 forward $101 $-1 #
coedge $-1 $248 $103 $245 $249 forward $65 $-1 #
coedge $-1 $103 $248 $250 $251 forward $65 $-1 #
coedge $-1 $174 $173 $103 $167 reversed $175 $-1 #
edge $-1 $252 -49.517326397807778 $253 49.517326397807778 $166 $254 forward 7 unknown #
coedge $-1 $105 $104 $255 $256 forward $41 $-1 #
coedge $-1 $257 $258 $104 $170 reversed $242 $-1 #
edge $-1 $177 -71.539048432874537 $259 71.539048432874537 $169 $260 forward 7 unknown #
coedge $-1 $163 $261 $105 $172 reversed $101 $-1 #
edge $-1 $262 -71.539048432874537 $176 71.539048432874537 $171 $263 forward 7 unknown #
coedge $-1 $166 $106 $261 $264 forward $175 $-1 #
coedge $-1 $106 $166 $257 $265 reversed $175 $-1 #
loop $-1 $-1 $173 $241 #
vertex $-1 $107 $266 #
vertex $-1 $107 $267 #
straight-curve $-1 71.539048432874537 0 13.874885726152298 0 1 0 I I #
face $-1 $268 $269 $25 $-1 $270 reversed single #
loop $-1 $-1 $114 $108 #
plane-surface $-1 -54.980480867624792 -57.679974134822203 0 1 0 0 0 0 -1 forward_v I I I I #
coedge $-1 $271 $272 $273 $274 forward $109 $-1 #
coedge $-1 $275 $111 $276 $277 forward $69 $-1 #
coedge $-1 $111 $275 $189 $278 forward $69 $-1 #
edge $-1 $191 -54.980480867624792 $279 -49.425529975352035 $111 $280 forward 7 unknown #
coedge $-1 $113 $112 $281 $282 forward $44 $-1 #
coedge $-1 $283 $284 $112 $188 forward $285 $-1 #
edge $-1 $286 49.425529975352035 $192 54.980480867624792 $187 $287 forward 7 unknown #
coedge $-1 $273 $114 $184 $278 reversed $180 $-1 #
coedge $-1 $114 $273 $283 $288 reversed $180 $-1 #
vertex $-1 $185 $289 #
vertex $-1 $288 $290 #
straight-curve $-1 -54.980480867624792 -49.517326397807778 0 0 0 1 I I #
face $-1 $-1 $291 $26 $-1 $292 reversed single #
loop $-1 $-1 $122 $116 #
plane-surface $-1 0 0 13.874885726152298 0 0 1 1 0 0 forward_v I I I I #
coedge $-1 $293 $294 $295 $296 reversed $117 $-1 #
coedge $-1 $297 $119 $121 $204 forward $73 $-1 #
coedge $-1 $119 $297 $293 $298 forward $73 $-1 #
coedge $-1 $295 $122 $119 $201 forward $195 $-1 #
edge $-1 $207 -5.2733173147767687 $299 16.184368028863979 $200 $300 forward 7 unknown #
coedge $-1 $301 $302 $120 $203 forward $291 $-1 #
edge $-1 $303 -97.853132669981235 $206 -84.604514510748444 $202 $304 forward 7 unknown #
edge $-1 $207 127.62181659551167 $303 143.07809686574907 $121 $305 forward 7 unknown #
coedge $-1 $122 $295 $301 $306 forward $195 $-1 #
vertex $-1 $123 $307 #
vertex $-1 $123 $308 #
straight-curve $-1 60.245124964005448 -0.1822080422668364 13.8748857261523 -1 0 0 I I #
coedge $-1 $209 $209 $-1 $309 reversed $126 $-1 #
edge $-1 $310 0 $310 6.2831853071796004 $127 $311 forward 7 unknown #
vertex $-1 $130 $312 #
ellipse-curve $-1 67.558762115818411 -15.509126144867373 7.2505766465359072 0.85716730853699208 0 0.51503806187062418 1.0300761237412484 0 -1.7143346170739842 1 I I #
coedge $-1 $213 $213 $-1 $313 reversed $133 $-1 #
edge $-1 $314 0 $314 6.2831853071796004 $134 $315 forward 7 unknown #
vertex $-1 $137 $316 #
ellipse-curve $-1 67.558762115818411 -6.312975283307054 7.2505766465359072 0.85716730853699208 0 0.51503806187062418 1.0300761237412484 0 -1.7143346170739842 1 I I #
face $-1 $-1 $229 $29 $-1 $317 forward single #
loop $-1 $-1 $318 $138 #
plane-surface $-1 -71.539048432874537 0 0 1 0 0 0 0 -1 forward_v I I I I #
coedge $-1 $319 $320 $222 $321 forward $139 $-1 #
coedge $-1 $322 $141 $143 $227 forward $87 $-1 #
coedge $-1 $141 $322 $220 $321 reversed $87 $-1 #
coedge $-1 $323 $144 $141 $224 forward $229 $-1 #
edge $-1 $231 16.256072104088013 $324 27.592860230509181 $223 $325 forward 7 unknown #
coedge $-1 $326 $318 $142 $226 forward $218 $-1 #
edge $-1 $327 -45.911539800413216 $230 -39.603970869878388 $225 $328 forward 7 unknown #
edge $-1 $231 -8.7685525746273782 $327 4.082714723162343e-014 $143 $329 forward 7 unknown #
coedge $-1 $144 $323 $326 $330 forward $229 $-1 #
loop $-1 $-1 $223 $217 #
vertex $-1 $226 $331 #
vertex $-1 $145 $332 #
straight-curve $-1 -87.230409621962565 38.180538271386609 13.8748857261523 1 0 0 I I #
coedge $-1 $233 $233 $-1 $333 reversed $148 $-1 #
edge $-1 $334 0 $334 6.2831853071796004 $149 $335 forward 7 unknown #
vertex $-1 $152 $336 #
ellipse-curve $-1 -68.493474248892269 41.419620593221225 10.72110126088489 -0.71933980857756763 0 0.69465836192734942 0.69465836192734942 0 0.71933980857756763 1 I I #
coedge $-1 $237 $237 $-1 $337 reversed $155 $-1 #
edge $-1 $338 0 $338 6.2831853071796004 $156 $339 forward 7 unknown #
vertex $-1 $159 $340 #
ellipse-curve $-1 -68.493474248892269 46.278244075973149 10.72110126088489 -0.71933980857756763 0 0.69465836192734942 0.69465836192734942 0 0.71933980857756763 1 I I #
face $-1 $-1 $175 $24 $-1 $341 reversed single #
loop $-1 $-1 $257 $160 #
plane-surface $-1 0 49.517326397807778 0 0 -1 0 0 0 -1 forward_v I I I I #
coedge $-1 $342 $255 $258 $343 forward $161 $-1 #
coedge $-1 $261 $163 $164 $249 reversed $101 $-1 #
coedge $-1 $255 $342 $163 $247 reversed $161 $-1 #
edge $-1 $262 -13.874885726152298 $344 13.874885726152298 $246 $345 forward 7 unknown #
coedge $-1 $165 $164 $342 $346 forward $65 $-1 #
edge $-1 $253 -71.539048432874537 $344 71.539048432874537 $245 $347 forward 7 unknown #
coedge $-1 $258 $257 $165 $251 reversed $242 $-1 #
edge $-1 $348 -71.539048432874537 $252 71.539048432874537 $250 $349 forward 7 unknown #
vertex $-1 $167 $350 #
vertex $-1 $264 $351 #
straight-curve $-1 71.539048432874537 0 -13.874885726152298 0 -1 0 I I #
coedge $-1 $244 $246 $168 $256 reversed $161 $-1 #
edge $-1 $259 -49.517326397807778 $262 49.517326397807778 $255 $352 forward 7 unknown #
coedge $-1 $250 $169 $174 $265 forward $242 $-1 #
coedge $-1 $169 $250 $244 $343 reversed $242 $-1 #
vertex $-1 $170 $353 #
straight-curve $-1 0 49.517326397807778 13.874885726152298 -1 0 0 I I #
coedge $-1 $171 $245 $173 $264 reversed $101 $-1 #
vertex $-1 $256 $354 #
straight-curve $-1 0 -49.517326397807778 13.874885726152298 1 0 0 I I #
edge $-1 $176 -13.874885726152298 $253 13.874885726152298 $173 $355 forward 7 unknown #
edge $-1 $177 -13.874885726152298 $252 13.874885726152298 $174 $356 forward 7 unknown #
point $-1 71.539048432874537 -49.517326397807778 13.874885726152298 #
point $-1 71.539048432874537 49.517326397807778 13.874885726152298 #
face $-1 $-1 $285 $25 $-1 $357 forward single #
loop $-1 $-1 $358 $179 #
plane-surface $-1 -49.425529975352035 -57.679974134822203 0 -1 0 0 0 0 1 forward_v I I I I #
coedge $-1 $359 $182 $275 $360 reversed $109 $-1 #
coedge $-1 $182 $359 $361 $362 reversed $109 $-1 #
coedge $-1 $190 $189 $182 $274 reversed $180 $-1 #
edge $-1 $363 -13.874885726152298 $364 13.874885726152298 $273 $365 forward 7 unknown #
coedge $-1 $184 $183 $271 $360 forward $69 $-1 #
coedge $-1 $281 $358 $183 $277 reversed $269 $-1 #
edge $-1 $279 -8.1626477370144244 $366 8.1626477370144244 $276 $367 forward 7 unknown #
edge $-1 $364 -8.1626477370144244 $191 8.1626477370144244 $189 $368 forward 7 unknown #
vertex $-1 $277 $369 #
straight-curve $-1 0 -49.517326397807778 -13.874885726152298 1 0 0 I I #
coedge $-1 $370 $276 $186 $282 reversed $269 $-1 #
edge $-1 $286 -13.874885726152298 $279 13.874885726152298 $281 $371 forward 7 unknown #
coedge $-1 $361 $187 $190 $288 forward $285 $-1 #
coedge $-1 $187 $361 $370 $372 forward $285 $-1 #
loop $-1 $-1 $187 $268 #
vertex $-1 $188 $373 #
straight-curve $-1 0 -49.517326397807778 13.874885726152298 -1 0 0 I I #
edge $-1 $192 -8.1626477370144244 $363 8.1626477370144244 $190 $374 forward 7 unknown #
point $-1 -54.980480867624792 -49.517326397807778 -13.874885726152298 #
point $-1 -54.980480867624792 -49.517326397807778 13.874885726152298 #
loop $-1 $-1 $202 $194 #
plane-surface $-1 71.539048432874537 0 0 -1 0 0 0 0 1 forward_v I I I I #
coedge $-1 $294 $197 $199 $298 reversed $117 $-1 #
coedge $-1 $197 $293 $375 $376 reversed $117 $-1 #
coedge $-1 $205 $200 $197 $296 forward $195 $-1 #
edge $-1 $299 3.3333508347568639 $377 11.293923468869089 $295 $378 forward 7 unknown #
coedge $-1 $199 $198 $302 $379 reversed $73 $-1 #
edge $-1 $380 -143.07809686574907 $299 -127.62181659551167 $293 $381 forward 7 unknown #
vertex $-1 $201 $382 #
straight-curve $-1 63.578475798762305 -5.4555253570436051 13.8748857261523 0 -1 0 I I #
coedge $-1 $375 $202 $205 $306 reversed $291 $-1 #
coedge $-1 $202 $375 $297 $379 forward $291 $-1 #
vertex $-1 $203 $383 #
straight-curve $-1 71.539048432874537 -0.1822080422668364 98.479400236900744 0 0 1 I I #
straight-curve $-1 -2.1516172729982799 -0.1822080422668364 123.26813476792866 0.51503806187062418 0 -0.85716730853699208 I I #
edge $-1 $377 -21.639893385907584 $206 -0.1822080422668364 $301 $384 forward 7 unknown #
point $-1 71.539048432874537 -0.1822080422668364 13.874885726152298 #
point $-1 63.578475798762312 -0.1822080422668364 13.8748857261523 #
edge $-1 $385 1 $385 0 $209 $-1 forward 7 unknown #
vertex $-1 $210 $386 #
ellipse-curve $-1 60.874233097279692 -15.509126144867373 3.2341065409479333 0.85716730853699208 0 0.51503806187062418 1.0300761237412484 0 -1.7143346170739842 1 I I #
point $-1 68.588838239559635 -15.509126144867373 5.5362420294619064 #
edge $-1 $387 1 $387 0 $213 $-1 forward 7 unknown #
vertex $-1 $214 $388 #
ellipse-curve $-1 60.874233097279692 -6.312975283307054 3.2341065409479333 0.85716730853699208 0 0.51503806187062418 1.0300761237412484 0 -1.7143346170739842 1 I I #
point $-1 68.588838239559635 -6.312975283307054 5.5362420294619064 #
plane-surface $-1 0 0 13.874885726152298 0 0 1 1 0 0 forward_v I I I I #
coedge $-1 $225 $389 $322 $390 forward $218 $-1 #
coedge $-1 $320 $220 $389 $391 reversed $139 $-1 #
coedge $-1 $220 $319 $323 $392 reversed $139 $-1 #
edge $-1 $324 13.357310416880928 $393 22.125862991508345 $220 $394 forward 7 unknown #
coedge $-1 $222 $221 $318 $390 reversed $87 $-1 #
coedge $-1 $228 $223 $320 $392 forward $229 $-1 #
vertex $-1 $392 $395 #
straight-curve $-1 -65.447900064910016 21.924466167298597 13.874885726152298 0 1 0 I I #
coedge $-1 $389 $225 $228 $330 reversed $218 $-1 #
vertex $-1 $226 $396 #
straight-curve $-1 -71.539048432874537 38.180538271386609 53.478856596030688 0 0 1 I I #
straight-curve $-1 -71.539048432874509 38.180538271386609 7.5673167956175007 -0.69465836192734942 0 -0.71933980857756763 I I #
edge $-1 $397 -49.517326397807778 $230 -38.180538271386609 $326 $398 forward 7 unknown #
point $-1 -71.539048432874537 38.180538271386609 13.874885726152298 #
point $-1 -65.447900064910016 38.180538271386609 13.874885726152298 #
edge $-1 $399 1 $399 0 $233 $-1 forward 7 unknown #
vertex $-1 $234 $400 #
ellipse-curve $-1 -66.834055419259727 41.419620593221225 9.1186191624405382 -0.71933980857756763 0 0.69465836192734942 0.69465836192734942 0 0.71933980857756763 1 I I #
point $-1 -67.798815886964931 41.419620593221225 11.440441069462471 #
edge $-1 $401 1 $401 0 $237 $-1 forward 7 unknown #
vertex $-1 $238 $402 #
ellipse-curve $-1 -66.834055419259727 46.278244075973149 9.1186191624405382 -0.71933980857756763 0 0.69465836192734942 0.69465836192734942 0 0.71933980857756763 1 I I #
point $-1 -67.798815886964931 46.278244075973149 11.440441069462471 #
plane-surface $-1 71.539048432874537 0 0 -1 0 0 0 0 1 forward_v I I I I #
coedge $-1 $246 $244 $248 $346 reversed $161 $-1 #
edge $-1 $259 -13.874885726152298 $348 13.874885726152298 $258 $403 forward 7 unknown #
vertex $-1 $346 $404 #
straight-curve $-1 -71.539048432874537 -49.517326397807778 0 0 0 -1 I I #
edge $-1 $344 -49.517326397807778 $348 49.517326397807778 $342 $405 forward 7 unknown #
straight-curve $-1 0 -49.517326397807778 -13.874885726152298 -1 0 0 I I #
vertex $-1 $251 $406 #
straight-curve $-1 0 49.517326397807778 -13.874885726152298 1 0 0 I I #
point $-1 71.539048432874537 49.517326397807778 -13.874885726152298 #
point $-1 71.539048432874537 -49.517326397807778 -13.874885726152298 #
straight-curve $-1 -71.539048432874537 0 13.874885726152298 0 -1 0 I I #
point $-1 -71.539048432874537 49.517326397807778 13.874885726152298 #
point $-1 -71.539048432874537 -49.517326397807778 13.874885726152298 #
straight-curve $-1 71.539048432874537 -49.517326397807778 0 0 0 -1 I I #
straight-curve $-1 71.539048432874537 49.517326397807778 0 0 0 -1 I I #
plane-surface $-1 0 0 13.874885726152298 0 0 1 1 0 0 forward_v I I I I #
coedge $-1 $276 $370 $359 $407 forward $269 $-1 #
coedge $-1 $272 $271 $358 $407 reversed $109 $-1 #
edge $-1 $366 -2.7774754461363784 $364 2.7774754461363784 $271 $408 forward 7 unknown #
coedge $-1 $284 $283 $272 $362 forward $285 $-1 #
edge $-1 $363 -2.7774754461363784 $409 2.7774754461363784 $272 $410 forward 7 unknown #
vertex $-1 $288 $411 #
vertex $-1 $278 $412 #
straight-curve $-1 -54.980480867624792 -65.842621871836627 0 0 0 -1 I I #
vertex $-1 $407 $413 #
straight-curve $-1 -49.425529975352035 -57.679974134822203 -13.874885726152298 0 -1 0 I I #
straight-curve $-1 -54.980480867624792 -57.679974134822203 -13.874885726152298 0 1 0 I I #
point $-1 -49.425529975352035 -49.517326397807778 -13.874885726152298 #
coedge $-1 $358 $281 $284 $372 reversed $269 $-1 #
straight-curve $-1 -49.425529975352035 -49.517326397807778 0 0 0 -1 I I #
edge $-1 $409 -8.1626477370144244 $286 8.1626477370144244 $370 $414 forward 7 unknown #
point $-1 -49.425529975352035 -49.517326397807778 13.874885726152298 #
straight-curve $-1 -54.980480867624792 -57.679974134822203 13.874885726152298 0 -1 0 I I #
coedge $-1 $302 $301 $294 $376 forward $291 $-1 #
edge $-1 $377 84.604514510748444 $380 97.853132669981235 $375 $415 forward 7 unknown #
vertex $-1 $306 $416 #
straight-curve $-1 60.245124964005448 -21.639893385907584 13.8748857261523 1 0 0 I I #
edge $-1 $380 -16.184368028863979 $303 5.2733173147767687 $302 $417 forward 7 unknown #
vertex $-1 $379 $418 #
straight-curve $-1 -2.1516172729982799 -21.639893385907584 123.26813476792866 -0.51503806187062418 0 0.85716730853699208 I I #
point $-1 63.578475798762312 -21.639893385907584 13.8748857261523 #
point $-1 71.539048432874537 -0.1822080422668364 0.62626756691950902 #
straight-curve $-1 71.539048432874537 0 13.874885726152298 0 1 0 I I #
vertex $-1 $309 $419 #
point $-1 61.904309221020938 -15.509126144867373 1.5197719238739493 #
vertex $-1 $313 $420 #
point $-1 61.904309221020938 -6.312975283307054 1.5197719238739493 #
coedge $-1 $318 $326 $319 $391 forward $218 $-1 #
edge $-1 $393 -27.592860230509181 $327 -16.256072104088013 $318 $421 forward 7 unknown #
edge $-1 $397 -13.874885726152298 $393 -7.5673167956174714 $319 $422 forward 7 unknown #
edge $-1 $324 65.447900064910016 $397 71.539048432874537 $320 $423 forward 7 unknown #
vertex $-1 $390 $424 #
straight-curve $-1 -56.169132690964389 49.517326397807778 23.483330844542575 -0.69465836192734942 0 -0.71933980857756763 I I #
point $-1 -65.447900064910016 49.517326397807778 13.874885726152298 #
point $-1 -71.539048432874537 38.180538271386609 7.5673167956174714 #
vertex $-1 $392 $425 #
straight-curve $-1 -71.539048432874537 0 13.874885726152298 0 -1 0 I I #
vertex $-1 $333 $426 #
point $-1 -66.139397057332388 41.419620593221225 9.8379589710181055 #
vertex $-1 $337 $427 #
point $-1 -66.139397057332388 46.278244075973149 9.8379589710181055 #
straight-curve $-1 -71.539048432874537 49.517326397807778 0 0 0 -1 I I #
point $-1 -71.539048432874537 -49.517326397807778 -13.874885726152298 #
straight-curve $-1 -71.539048432874537 0 -13.874885726152298 0 1 0 I I #
point $-1 -71.539048432874537 49.517326397807778 -13.874885726152298 #
edge $-1 $409 -13.874885726152298 $366 13.874885726152298 $358 $428 forward 7 unknown #
straight-curve $-1 -52.203005421488413 -65.842621871836627 -13.874885726152298 -1 0 0 I I #
vertex $-1 $372 $429 #
straight-curve $-1 -52.203005421488413 -65.842621871836627 13.874885726152298 1 0 0 I I #
point $-1 -54.980480867624792 -65.842621871836627 13.874885726152298 #
point $-1 -54.980480867624792 -65.842621871836627 -13.874885726152298 #
point $-1 -49.425529975352035 -65.842621871836627 -13.874885726152298 #
straight-curve $-1 -49.425529975352035 -57.679974134822203 13.874885726152298 0 1 0 I I #
straight-curve $-1 71.539048432874537 -21.639893385907584 98.479400236900744 0 0 -1 I I #
point $-1 71.539048432874537 -21.639893385907584 13.874885726152298 #
straight-curve $-1 71.539048432874537 -5.4555253570436051 0.62626756691950192 0 1 0 I I #
point $-1 71.539048432874537 -21.639893385907584 0.62626756691950902 #
point $-1 59.159898480205705 -15.509126144867373 2.2040304172066856 #
point $-1 59.159898480205705 -6.312975283307054 2.2040304172066856 #
straight-curve $-1 -71.539048432874537 21.924466167298597 7.5673167956174678 0 -1 0 I I #
straight-curve $-1 -71.539048432874537 49.517326397807778 0 0 0 -1 I I #
straight-curve $-1 0 49.517326397807778 13.874885726152298 -1 0 0 I I #
point $-1 -71.539048432874537 49.517326397807778 7.5673167956174714 #
point $-1 -71.539048432874537 49.517326397807778 13.874885726152298 #
point $-1 -66.114715610682168 41.419620593221225 8.4239608005131892 #
point $-1 -66.114715610682168 46.278244075973149 8.4239608005131892 #
straight-curve $-1 -49.425529975352035 -65.842621871836627 0 0 0 -1 I I #
point $-1 -49.425529975352035 -65.842621871836627 13.874885726152298 #
End-of-ACIS-data 