500 0 15 0           
7 Unknown 11 ACIS 5.0 NT 24 Fri Mar 26 02:56:15 1999 
-1 9.9999999999999995e-007 1e-010 
body $-1 $15 $-1 $16 #
body $-1 $17 $-1 $18 #
body $-1 $19 $-1 $20 #
body $-1 $21 $-1 $22 #
body $-1 $23 $-1 $24 #
body $-1 $25 $-1 $26 #
body $-1 $27 $-1 $28 #
body $-1 $29 $-1 $30 #
body $-1 $31 $-1 $32 #
body $-1 $33 $-1 $34 #
body $-1 $35 $-1 $36 #
body $-1 $37 $-1 $38 #
body $-1 $39 $-1 $40 #
body $-1 $41 $-1 $42 #
body $-1 $43 $-1 $44 #
lump $-1 $-1 $45 $0 #
transform $-1 1 0 0 0 1 0 0 0 1 55.061494796594133 36.95961038401957 8.6036811464640053 1 rotate no_reflect no_shear #
lump $-1 $-1 $46 $1 #
transform $-1 1 0 0 0 1 0 0 0 1 55.061494796594133 36.95961038401957 8.6036811464640053 1 rotate no_reflect no_shear #
lump $-1 $-1 $47 $2 #
transform $-1 1 0 0 0 1 0 0 0 1 55.061494796594133 36.95961038401957 8.6036811464640053 1 rotate no_reflect no_shear #
lump $-1 $-1 $48 $3 #
transform $-1 1 0 0 0 1 0 0 0 1 55.061494796594133 36.95961038401957 8.6036811464640053 1 rotate no_reflect no_shear #
lump $-1 $-1 $49 $4 #
transform $-1 1 0 0 0 1 0 0 0 1 55.061494796594133 36.95961038401957 8.6036811464640053 1 rotate no_reflect no_shear #
lump $-1 $-1 $50 $5 #
transform $-1 1 0 0 0 1 0 0 0 1 55.061494796594133 36.95961038401957 8.6036811464640053 1 rotate no_reflect no_shear #
lump $-1 $-1 $51 $6 #
transform $-1 1 0 0 0 1 0 0 0 1 55.061494796594133 36.95961038401957 8.6036811464640053 1 rotate no_reflect no_shear #
lump $-1 $-1 $52 $7 #
transform $-1 1 0 0 0 1 0 0 0 1 55.061494796594133 36.95961038401957 8.6036811464640053 1 rotate no_reflect no_shear #
lump $-1 $-1 $53 $8 #
transform $-1 1 0 0 0 1 0 0 0 1 55.061494796594133 36.95961038401957 8.6036811464640053 1 rotate no_reflect no_shear #
lump $-1 $-1 $54 $9 #
transform $-1 1 0 0 0 1 0 0 0 1 55.061494796594133 36.95961038401957 8.6036811464640053 1 rotate no_reflect no_shear #
lump $-1 $-1 $55 $10 #
transform $-1 1 0 0 0 1 0 0 0 1 55.061494796594133 36.95961038401957 8.6036811464640053 1 rotate no_reflect no_shear #
lump $-1 $-1 $56 $11 #
transform $-1 1 0 0 0 1 0 0 0 1 55.061494796594133 36.95961038401957 8.6036811464640053 1 rotate no_reflect no_shear #
lump $-1 $-1 $57 $12 #
transform $-1 1 0 0 0 1 0 0 0 1 55.061494796594133 36.95961038401957 8.6036811464640053 1 rotate no_reflect no_shear #
lump $-1 $-1 $58 $13 #
transform $-1 1 0 0 0 1 0 0 0 1 55.061494796594133 36.95961038401957 8.6036811464640053 1 rotate no_reflect no_shear #
lump $-1 $-1 $59 $14 #
transform $-1 1 0 0 0 1 0 0 0 1 55.061494796594133 36.95961038401957 8.6036811464640053 1 rotate no_reflect no_shear #
shell $-1 $-1 $-1 $60 $-1 $15 #
shell $-1 $-1 $-1 $61 $-1 $17 #
shell $-1 $-1 $-1 $62 $-1 $19 #
shell $-1 $-1 $-1 $63 $-1 $21 #
shell $-1 $-1 $-1 $64 $-1 $23 #
shell $-1 $-1 $-1 $65 $-1 $25 #
shell $-1 $-1 $-1 $66 $-1 $27 #
shell $-1 $-1 $-1 $67 $-1 $29 #
shell $-1 $-1 $-1 $68 $-1 $31 #
shell $-1 $-1 $-1 $69 $-1 $33 #
shell $-1 $-1 $-1 $70 $-1 $35 #
shell $-1 $-1 $-1 $71 $-1 $37 #
shell $-1 $-1 $-1 $72 $-1 $39 #
shell $-1 $-1 $-1 $73 $-1 $41 #
shell $-1 $-1 $-1 $74 $-1 $43 #
face $-1 $75 $76 $45 $-1 $77 forward single #
face $-1 $78 $79 $46 $-1 $80 reversed single #
face $-1 $81 $82 $47 $-1 $83 reversed single #
face $-1 $84 $85 $48 $-1 $86 reversed single #
face $-1 $87 $88 $49 $-1 $89 forward single #
face $-1 $90 $91 $50 $-1 $92 forward single #
face $-1 $93 $94 $51 $-1 $95 reversed single #
face $-1 $96 $97 $52 $-1 $98 forward single #
face $-1 $99 $100 $53 $-1 $101 forward single #
face $-1 $102 $103 $54 $-1 $104 reversed single #
face $-1 $105 $106 $55 $-1 $107 forward single #
face $-1 $108 $109 $56 $-1 $110 forward single #
face $-1 $111 $112 $57 $-1 $113 reversed single #
face $-1 $114 $115 $58 $-1 $116 forward single #
face $-1 $117 $118 $59 $-1 $119 forward single #
face $-1 $120 $121 $45 $-1 $122 reversed single #
loop $-1 $-1 $123 $60 #
plane-surface $-1 0 0 8.6036811464640053 0 0 1 1 0 0 forward_v I I I I #
face $-1 $124 $125 $46 $-1 $126 reversed single #
loop $-1 $-1 $127 $61 #
plane-surface $-1 -51.027829024293844 -32.675860988832284 0 0 -1 0 0 0 -1 forward_v I I I I #
face $-1 $128 $129 $47 $-1 $130 reversed single #
loop $-1 $-1 $131 $62 #
plane-surface $-1 46.994163251993562 -34.817735686425927 0 1 0 0 0 0 -1 forward_v I I I I #
face $-1 $132 $133 $48 $-1 $134 reversed single #
loop $-1 $-1 $135 $63 #
plane-surface $-1 -1.7763568394002505e-015 -112.06330958467839 85.593917070436135 -1 0 0 0 -0.68199836817093118 0.7313536940579346 forward_v I I I I #
face $-1 $136 $137 $49 $-1 $138 forward single #
loop $-1 $139 $140 $64 #
cone-surface $-1 -16.69604158977436 -34.122647793171673 5.8275126797975494 0 0.68199836817093118 -0.7313536940579346 1 0 0 1 I I 0 1 1 forward I I I I #
face $-1 $141 $142 $50 $-1 $143 forward single #
loop $-1 $144 $145 $65 #
cone-surface $-1 -6.6784166359097412 -34.122647793171673 5.8275126797975494 0 0.68199836817093118 -0.7313536940579346 1 0 0 1 I I 0 1 1 forward I I I I #
face $-1 $146 $147 $51 $-1 $148 reversed single #
loop $-1 $-1 $149 $66 #
plane-surface $-1 23.619705026309454 -112.06330958467839 85.593917070436135 1 0 0 0 0.68199836817093118 -0.7313536940579346 forward_v I I I I #
face $-1 $150 $151 $52 $-1 $152 forward single #
loop $-1 $153 $154 $67 #
cone-surface $-1 30.298121662219188 -34.122647793171673 5.8275126797975494 0 0.68199836817093118 -0.7313536940579346 1 0 0 1 I I 0 1 1 forward I I I I #
face $-1 $155 $156 $53 $-1 $157 forward single #
loop $-1 $158 $159 $68 #
cone-surface $-1 40.315746616083814 -34.122647793171673 5.8275126797975494 0 0.68199836817093118 -0.7313536940579346 1 0 0 1 I I 0 1 1 forward I I I I #
face $-1 $160 $161 $54 $-1 $162 reversed single #
loop $-1 $-1 $163 $69 #
plane-surface $-1 -23.374458225684108 58.002214414088954 136.00670501070562 1 0 0 0 -0.68199836817093118 -0.7313536940579346 forward_v I I I I #
face $-1 $164 $165 $55 $-1 $166 forward single #
loop $-1 $167 $168 $70 #
cone-surface $-1 -16.69604158977436 34.122647793171666 5.8275126797975458 0 -0.68199836817093118 -0.7313536940579346 1 0 0 1 I I 0 1 1 forward I I I I #
face $-1 $169 $170 $56 $-1 $171 forward single #
loop $-1 $172 $173 $71 #
cone-surface $-1 -6.6784166359097412 34.122647793171666 5.8275126797975458 0 -0.68199836817093118 -0.7313536940579346 1 0 0 1 I I 0 1 1 forward I I I I #
face $-1 $174 $175 $57 $-1 $176 reversed single #
loop $-1 $-1 $177 $72 #
plane-surface $-1 23.619705026309454 58.002214414088954 136.00670501070562 1 0 0 0 -0.68199836817093118 -0.7313536940579346 forward_v I I I I #
face $-1 $178 $179 $58 $-1 $180 forward single #
loop $-1 $181 $182 $73 #
cone-surface $-1 30.298121662219188 34.122647793171666 5.8275126797975458 0 -0.68199836817093118 -0.7313536940579346 1 0 0 1 I I 0 1 1 forward I I I I #
face $-1 $183 $184 $59 $-1 $185 forward single #
loop $-1 $186 $187 $74 #
cone-surface $-1 40.315746616083814 34.122647793171666 5.8275126797975458 0 -0.68199836817093118 -0.7313536940579346 1 0 0 1 I I 0 1 1 forward I I I I #
face $-1 $188 $189 $45 $-1 $190 reversed single #
loop $-1 $-1 $191 $75 #
plane-surface $-1 0 0 -8.6036811464640053 0 0 1 1 0 0 forward_v I I I I #
coedge $-1 $192 $193 $194 $195 forward $76 $-1 #
face $-1 $196 $197 $46 $-1 $198 forward single #
loop $-1 $-1 $199 $78 #
plane-surface $-1 -46.994163251993555 -34.817735686425927 0 -1 0 0 0 0 1 forward_v I I I I #
coedge $-1 $200 $201 $202 $203 forward $79 $-1 #
face $-1 $204 $205 $47 $-1 $206 forward single #
loop $-1 $-1 $207 $81 #
plane-surface $-1 51.027829024293851 -32.675860988832284 0 0 -1 0 0 0 -1 forward_v I I I I #
coedge $-1 $208 $209 $210 $211 reversed $82 $-1 #
face $-1 $212 $213 $48 $-1 $214 reversed single #
loop $-1 $-1 $215 $84 #
plane-surface $-1 -11.687229112842054 -36.959610384019555 5.0550618307544113 0 -0.68199836817093118 0.7313536940579346 1 0 0 forward_v I I I I #
coedge $-1 $216 $217 $218 $219 reversed $85 $-1 #
face $-1 $-1 $220 $49 $-1 $221 forward single #
loop $-1 $222 $223 $87 #
cone-surface $-1 -16.69604158977436 -32.847400134923042 4.4599770239569274 0 0.68199836817093118 -0.7313536940579346 0.5 0 0 1 I I -0.70710678118654746 0.70710678118654746 0.5 forward I I I I #
loop $-1 $-1 $224 $64 #
coedge $-1 $140 $140 $225 $226 reversed $88 $-1 #
face $-1 $-1 $227 $50 $-1 $228 forward single #
loop $-1 $229 $230 $90 #
cone-surface $-1 -6.6784166359097412 -32.847400134923042 4.4599770239569274 0 0.68199836817093118 -0.7313536940579346 0.5 0 0 1 I I -0.70710678118654746 0.70710678118654746 0.5 forward I I I I #
loop $-1 $-1 $231 $65 #
coedge $-1 $145 $145 $232 $233 reversed $91 $-1 #
face $-1 $234 $235 $51 $-1 $236 reversed single #
loop $-1 $-1 $237 $93 #
plane-surface $-1 35.306934139151508 -36.959610384019555 5.0550618307544113 0 -0.68199836817093118 0.7313536940579346 1 0 0 forward_v I I I I #
coedge $-1 $238 $239 $240 $241 reversed $94 $-1 #
face $-1 $-1 $242 $52 $-1 $243 forward single #
loop $-1 $244 $245 $96 #
cone-surface $-1 30.298121662219188 -32.847400134923042 4.4599770239569274 0 0.68199836817093118 -0.7313536940579346 0.5 0 0 1 I I -0.70710678118654746 0.70710678118654746 0.5 forward I I I I #
loop $-1 $-1 $246 $67 #
coedge $-1 $154 $154 $247 $248 reversed $97 $-1 #
face $-1 $-1 $249 $53 $-1 $250 forward single #
loop $-1 $251 $252 $99 #
cone-surface $-1 40.315746616083814 -32.847400134923042 4.4599770239569274 0 0.68199836817093118 -0.7313536940579346 0.5 0 0 1 I I -0.70710678118654746 0.70710678118654746 0.5 forward I I I I #
loop $-1 $-1 $253 $68 #
coedge $-1 $159 $159 $254 $255 reversed $100 $-1 #
face $-1 $256 $257 $54 $-1 $258 reversed single #
loop $-1 $-1 $259 $102 #
plane-surface $-1 -11.687229112842054 -17.101484786569884 55.467849771023893 0 0.68199836817093118 0.7313536940579346 1 0 0 forward_v I I I I #
coedge $-1 $260 $261 $262 $263 reversed $103 $-1 #
face $-1 $-1 $264 $55 $-1 $265 forward single #
loop $-1 $266 $267 $105 #
cone-surface $-1 -16.69604158977436 32.847400134923035 4.4599770239569239 0 -0.68199836817093118 -0.7313536940579346 0.5 0 0 1 I I -0.70710678118654746 0.70710678118654746 0.5 forward I I I I #
loop $-1 $-1 $268 $70 #
coedge $-1 $168 $168 $269 $270 reversed $106 $-1 #
face $-1 $-1 $271 $56 $-1 $272 forward single #
loop $-1 $273 $274 $108 #
cone-surface $-1 -6.6784166359097412 32.847400134923035 4.4599770239569239 0 -0.68199836817093118 -0.7313536940579346 0.5 0 0 1 I I -0.70710678118654746 0.70710678118654746 0.5 forward I I I I #
loop $-1 $-1 $275 $71 #
coedge $-1 $173 $173 $276 $277 reversed $109 $-1 #
face $-1 $278 $279 $57 $-1 $280 reversed single #
loop $-1 $-1 $281 $111 #
plane-surface $-1 35.306934139151508 -17.101484786569884 55.467849771023893 0 0.68199836817093118 0.7313536940579346 1 0 0 forward_v I I I I #
coedge $-1 $282 $283 $284 $285 reversed $112 $-1 #
face $-1 $-1 $286 $58 $-1 $287 forward single #
loop $-1 $288 $289 $114 #
cone-surface $-1 30.298121662219188 32.847400134923035 4.4599770239569239 0 -0.68199836817093118 -0.7313536940579346 0.5 0 0 1 I I -0.70710678118654746 0.70710678118654746 0.5 forward I I I I #
loop $-1 $-1 $290 $73 #
coedge $-1 $182 $182 $291 $292 reversed $115 $-1 #
face $-1 $-1 $293 $59 $-1 $294 forward single #
loop $-1 $295 $296 $117 #
cone-surface $-1 40.315746616083814 32.847400134923035 4.4599770239569239 0 -0.68199836817093118 -0.7313536940579346 0.5 0 0 1 I I -0.70710678118654746 0.70710678118654746 0.5 forward I I I I #
loop $-1 $-1 $297 $74 #
coedge $-1 $187 $187 $298 $299 reversed $118 $-1 #
face $-1 $300 $301 $45 $-1 $302 reversed single #
loop $-1 $-1 $303 $120 #
plane-surface $-1 0 -36.95961038401957 0 0 1 0 0 0 1 forward_v I I I I #
coedge $-1 $304 $305 $306 $307 forward $121 $-1 #
coedge $-1 $308 $123 $309 $310 forward $76 $-1 #
coedge $-1 $123 $308 $311 $312 forward $76 $-1 #
coedge $-1 $313 $314 $123 $195 reversed $315 $-1 #
edge $-1 $316 -36.95961038401957 $317 36.95961038401957 $194 $318 forward 7 unknown #
face $-1 $319 $320 $46 $-1 $321 reversed single #
loop $-1 $-1 $322 $124 #
plane-surface $-1 0 0 8.6036811464640053 0 0 1 1 0 0 forward_v I I I I #
coedge $-1 $323 $324 $325 $326 reversed $125 $-1 #
coedge $-1 $327 $127 $328 $329 reversed $79 $-1 #
coedge $-1 $127 $327 $330 $331 reversed $79 $-1 #
coedge $-1 $324 $323 $127 $203 reversed $125 $-1 #
edge $-1 $332 -8.6036811464640053 $333 8.6036811464640053 $202 $334 forward 7 unknown #
face $-1 $335 $336 $47 $-1 $337 reversed single #
loop $-1 $-1 $338 $128 #
plane-surface $-1 0 0 8.6036811464640053 0 0 1 1 0 0 forward_v I I I I #
coedge $-1 $339 $340 $341 $342 reversed $129 $-1 #
coedge $-1 $343 $131 $344 $345 forward $82 $-1 #
coedge $-1 $131 $343 $346 $347 reversed $82 $-1 #
coedge $-1 $348 $338 $131 $211 forward $205 $-1 #
edge $-1 $349 15.26699314561932 $350 19.550742540806606 $210 $351 forward 7 unknown #
face $-1 $352 $353 $48 $-1 $354 forward single #
loop $-1 $-1 $355 $132 #
plane-surface $-1 -23.374458225684108 -112.06330958467839 85.593917070436135 1 0 0 0 0.68199836817093118 -0.7313536940579346 forward_v I I I I #
coedge $-1 $356 $357 $358 $359 reversed $133 $-1 #
coedge $-1 $217 $135 $360 $361 reversed $85 $-1 #
coedge $-1 $135 $216 $356 $362 reversed $85 $-1 #
coedge $-1 $358 $363 $135 $219 forward $353 $-1 #
edge $-1 $364 19.072044408319627 $365 22.877472641689089 $218 $366 forward 7 unknown #
loop $-1 $-1 $225 $136 #
plane-surface $-1 -11.687229112842054 -36.959610384019555 5.0550618307544113 0 -0.68199836817093118 0.7313536940579346 1 0 0 forward_v I I I I #
loop $-1 $-1 $367 $87 #
coedge $-1 $223 $223 $224 $368 reversed $137 $-1 #
coedge $-1 $224 $224 $223 $368 forward $139 $-1 #
coedge $-1 $225 $225 $140 $226 forward $220 $-1 #
edge $-1 $369 1.2114724657602437e-015 $369 6.2831853071796013 $225 $370 forward 7 unknown #
loop $-1 $-1 $232 $141 #
plane-surface $-1 -11.687229112842054 -36.959610384019555 5.0550618307544113 0 -0.68199836817093118 0.7313536940579346 1 0 0 forward_v I I I I #
loop $-1 $-1 $371 $90 #
coedge $-1 $230 $230 $231 $372 reversed $142 $-1 #
coedge $-1 $231 $231 $230 $372 forward $144 $-1 #
coedge $-1 $232 $232 $145 $233 forward $227 $-1 #
edge $-1 $373 1.2114724657602437e-015 $373 6.2831853071796013 $232 $374 forward 7 unknown #
face $-1 $375 $376 $51 $-1 $377 forward single #
loop $-1 $-1 $240 $146 #
plane-surface $-1 0 -36.95961038401957 0 0 1 0 0 0 1 forward_v I I I I #
coedge $-1 $378 $379 $380 $381 reversed $147 $-1 #
coedge $-1 $239 $149 $382 $383 reversed $94 $-1 #
coedge $-1 $149 $238 $378 $384 reversed $94 $-1 #
coedge $-1 $380 $385 $149 $241 forward $235 $-1 #
edge $-1 $386 34.193277388754062 $387 37.74189670446367 $240 $388 forward 7 unknown #
loop $-1 $-1 $247 $150 #
plane-surface $-1 35.306934139151508 -36.959610384019555 5.0550618307544113 0 -0.68199836817093118 0.7313536940579346 1 0 0 forward_v I I I I #
loop $-1 $-1 $389 $96 #
coedge $-1 $245 $245 $246 $390 reversed $151 $-1 #
coedge $-1 $246 $246 $245 $390 forward $153 $-1 #
coedge $-1 $247 $247 $154 $248 forward $242 $-1 #
edge $-1 $391 1.2114724657602437e-015 $391 6.2831853071796013 $247 $392 forward 7 unknown #
loop $-1 $-1 $254 $155 #
plane-surface $-1 35.306934139151508 -36.959610384019555 5.0550618307544113 0 -0.68199836817093118 0.7313536940579346 1 0 0 forward_v I I I I #
loop $-1 $-1 $393 $99 #
coedge $-1 $252 $252 $253 $394 reversed $156 $-1 #
coedge $-1 $253 $253 $252 $394 forward $158 $-1 #
coedge $-1 $254 $254 $159 $255 forward $249 $-1 #
edge $-1 $395 1.2114724657602437e-015 $395 6.2831853071796013 $254 $396 forward 7 unknown #
face $-1 $397 $398 $54 $-1 $399 reversed single #
loop $-1 $-1 $400 $160 #
plane-surface $-1 -1.7763568394002505e-015 58.002214414088954 136.00670501070562 -1 0 0 0 0.68199836817093118 0.7313536940579346 forward_v I I I I #
coedge $-1 $401 $402 $403 $404 reversed $161 $-1 #
coedge $-1 $261 $163 $405 $406 reversed $103 $-1 #
coedge $-1 $163 $260 $401 $407 reversed $103 $-1 #
coedge $-1 $403 $408 $163 $263 forward $409 $-1 #
edge $-1 $410 -7.9585031769750927 $411 -4.1530749436055956 $262 $412 forward 7 unknown #
loop $-1 $-1 $269 $164 #
plane-surface $-1 -11.687229112842054 -17.101484786569884 55.467849771023893 0 0.68199836817093118 0.7313536940579346 1 0 0 forward_v I I I I #
loop $-1 $-1 $413 $105 #
coedge $-1 $267 $267 $268 $414 reversed $165 $-1 #
coedge $-1 $268 $268 $267 $414 forward $167 $-1 #
coedge $-1 $269 $269 $168 $270 forward $264 $-1 #
edge $-1 $415 1.3071175984817761e-015 $415 6.2831853071796013 $269 $416 forward 7 unknown #
loop $-1 $-1 $276 $169 #
plane-surface $-1 -11.687229112842054 -17.101484786569884 55.467849771023893 0 0.68199836817093118 0.7313536940579346 1 0 0 forward_v I I I I #
loop $-1 $-1 $417 $108 #
coedge $-1 $274 $274 $275 $418 reversed $170 $-1 #
coedge $-1 $275 $275 $274 $418 forward $172 $-1 #
coedge $-1 $276 $276 $173 $277 forward $271 $-1 #
edge $-1 $419 1.3071175984817761e-015 $419 6.2831853071796013 $276 $420 forward 7 unknown #
face $-1 $421 $422 $57 $-1 $423 forward single #
loop $-1 $-1 $424 $174 #
plane-surface $-1 46.994163251993562 58.002214414088954 136.00670501070562 -1 0 0 0 0.68199836817093118 0.7313536940579346 forward_v I I I I #
coedge $-1 $425 $426 $427 $428 reversed $175 $-1 #
coedge $-1 $283 $177 $429 $430 reversed $112 $-1 #
coedge $-1 $177 $282 $425 $431 reversed $112 $-1 #
coedge $-1 $427 $432 $177 $285 forward $422 $-1 #
edge $-1 $433 -7.9585031769750927 $434 -4.1530749436055956 $284 $435 forward 7 unknown #
loop $-1 $-1 $291 $178 #
plane-surface $-1 35.306934139151508 -17.101484786569884 55.467849771023893 0 0.68199836817093118 0.7313536940579346 1 0 0 forward_v I I I I #
loop $-1 $-1 $436 $114 #
coedge $-1 $289 $289 $290 $437 reversed $179 $-1 #
coedge $-1 $290 $290 $289 $437 forward $181 $-1 #
coedge $-1 $291 $291 $182 $292 forward $286 $-1 #
edge $-1 $438 1.3071175984817761e-015 $438 6.2831853071796013 $291 $439 forward 7 unknown #
loop $-1 $-1 $298 $183 #
plane-surface $-1 35.306934139151508 -17.101484786569884 55.467849771023893 0 0.68199836817093118 0.7313536940579346 1 0 0 forward_v I I I I #
loop $-1 $-1 $440 $117 #
coedge $-1 $296 $296 $297 $441 reversed $184 $-1 #
coedge $-1 $297 $297 $296 $441 forward $186 $-1 #
coedge $-1 $298 $298 $187 $299 forward $293 $-1 #
edge $-1 $442 1.3071175984817761e-015 $442 6.2831853071796013 $298 $443 forward 7 unknown #
face $-1 $444 $445 $45 $-1 $446 reversed single #
loop $-1 $-1 $447 $188 #
plane-surface $-1 -55.061494796594133 0 0 1 0 0 0 0 -1 forward_v I I I I #
coedge $-1 $448 $311 $449 $450 forward $189 $-1 #
coedge $-1 $451 $191 $448 $452 forward $121 $-1 #
coedge $-1 $191 $451 $453 $454 forward $121 $-1 #
coedge $-1 $314 $313 $191 $307 reversed $315 $-1 #
edge $-1 $455 -36.95961038401957 $456 36.95961038401957 $306 $457 forward 7 unknown #
coedge $-1 $193 $192 $458 $459 forward $76 $-1 #
coedge $-1 $460 $461 $192 $310 reversed $445 $-1 #
edge $-1 $317 -55.061494796594133 $462 55.061494796594133 $309 $463 forward 7 unknown #
coedge $-1 $303 $464 $193 $312 reversed $189 $-1 #
edge $-1 $465 -55.061494796594133 $316 55.061494796594133 $311 $466 forward 7 unknown #
coedge $-1 $306 $194 $464 $467 forward $315 $-1 #
coedge $-1 $194 $306 $460 $468 reversed $315 $-1 #
loop $-1 $-1 $313 $444 #
vertex $-1 $195 $469 #
vertex $-1 $195 $470 #
straight-curve $-1 55.061494796594133 0 8.6036811464640053 0 1 0 I I #
face $-1 $471 $472 $46 $-1 $473 reversed single #
loop $-1 $-1 $474 $196 #
plane-surface $-1 -55.061494796594133 0 0 1 0 0 0 0 -1 forward_v I I I I #
coedge $-1 $330 $475 $324 $476 forward $197 $-1 #
coedge $-1 $202 $199 $477 $478 reversed $125 $-1 #
coedge $-1 $199 $202 $322 $476 reversed $125 $-1 #
coedge $-1 $479 $480 $199 $326 forward $481 $-1 #
edge $-1 $482 -8.6036811464640053 $483 8.6036811464640053 $325 $484 forward 7 unknown #
coedge $-1 $201 $200 $474 $485 reversed $79 $-1 #
coedge $-1 $477 $486 $200 $329 forward $472 $-1 #
edge $-1 $487 -29.547580284447211 $333 -21.480248739846633 $328 $488 forward 7 unknown #
coedge $-1 $489 $322 $201 $331 forward $197 $-1 #
edge $-1 $332 21.480248739846633 $490 29.547580284447211 $330 $491 forward 7 unknown #
vertex $-1 $331 $492 #
vertex $-1 $329 $493 #
straight-curve $-1 -46.994163251993555 -32.675860988832284 0 0 0 -1 I I #
face $-1 $494 $495 $47 $-1 $496 reversed single #
loop $-1 $-1 $346 $204 #
plane-surface $-1 0 -36.95961038401957 0 0 1 0 0 0 1 forward_v I I I I #
coedge $-1 $210 $497 $340 $498 forward $205 $-1 #
coedge $-1 $344 $207 $499 $500 reversed $129 $-1 #
coedge $-1 $207 $344 $338 $498 reversed $129 $-1 #
coedge $-1 $501 $502 $207 $342 forward $503 $-1 #
edge $-1 $504 -8.6036811464640053 $505 8.6036811464640053 $341 $506 forward 7 unknown #
coedge $-1 $209 $208 $507 $508 reversed $82 $-1 #
coedge $-1 $340 $339 $208 $345 reversed $129 $-1 #
edge $-1 $349 -8.6036811464640053 $509 8.6036811464640053 $344 $510 forward 7 unknown #
coedge $-1 $511 $512 $209 $347 forward $336 $-1 #
edge $-1 $350 -8.6036811464640053 $513 8.6036811464640053 $346 $514 forward 7 unknown #
coedge $-1 $497 $210 $512 $515 forward $205 $-1 #
vertex $-1 $211 $516 #
vertex $-1 $515 $517 #
straight-curve $-1 46.994163251993562 -17.408867843212963 8.6036811464640053 0 -1 0 I I #
face $-1 $-1 $518 $48 $-1 $519 reversed single #
loop $-1 $-1 $218 $212 #
plane-surface $-1 0 0 8.6036811464640053 0 0 1 1 0 0 forward_v I I I I #
coedge $-1 $520 $521 $522 $523 reversed $213 $-1 #
coedge $-1 $524 $215 $217 $362 forward $133 $-1 #
coedge $-1 $215 $524 $520 $525 forward $133 $-1 #
coedge $-1 $522 $218 $215 $359 forward $353 $-1 #
edge $-1 $365 -5.8436145564210253 $526 17.530843669263081 $358 $527 forward 7 unknown #
coedge $-1 $528 $529 $216 $361 forward $518 $-1 #
edge $-1 $530 -37.74189670446367 $364 -34.193277388754062 $360 $531 forward 7 unknown #
edge $-1 $365 -5.2032665785208945 $530 1.9479204584885432e-014 $217 $532 forward 7 unknown #
coedge $-1 $218 $522 $528 $533 forward $353 $-1 #
vertex $-1 $361 $534 #
vertex $-1 $219 $535 #
straight-curve $-1 -1.7763568394002505e-015 -56.031654792339197 8.6036811464640053 0 1 0 I I #
coedge $-1 $367 $367 $-1 $536 reversed $222 $-1 #
edge $-1 $537 0 $537 6.2831853071796004 $223 $538 forward 7 unknown #
vertex $-1 $226 $539 #
ellipse-curve $-1 -16.69604158977436 -35.056896267334842 6.8293714886092021 0 -0.68199836817093118 0.7313536940579346 1 0 0 1 I I #
coedge $-1 $371 $371 $-1 $540 reversed $229 $-1 #
edge $-1 $541 0 $541 6.2831853071796004 $230 $542 forward 7 unknown #
vertex $-1 $233 $543 #
ellipse-curve $-1 -6.6784166359097412 -35.056896267334842 6.8293714886092021 0 -0.68199836817093118 0.7313536940579346 1 0 0 1 I I #
face $-1 $-1 $544 $51 $-1 $545 forward single #
loop $-1 $-1 $382 $234 #
plane-surface $-1 0 0 8.6036811464640053 0 0 1 1 0 0 forward_v I I I I #
coedge $-1 $546 $237 $239 $384 forward $147 $-1 #
coedge $-1 $237 $546 $547 $548 reversed $147 $-1 #
coedge $-1 $549 $240 $237 $381 forward $235 $-1 #
edge $-1 $387 5.9662379567336998 $550 29.340696182417808 $380 $551 forward 7 unknown #
coedge $-1 $552 $553 $238 $383 forward $376 $-1 #
edge $-1 $554 -22.877472641689089 $386 -19.072044408319627 $382 $555 forward 7 unknown #
edge $-1 $387 -1.9479204584885432e-014 $554 5.2032665785208945 $239 $556 forward 7 unknown #
coedge $-1 $240 $549 $552 $557 reversed $235 $-1 #
vertex $-1 $557 $558 #
vertex $-1 $241 $559 #
straight-curve $-1 23.619705026309454 -36.95961038401957 42.796958535218067 0 0 -1 I I #
coedge $-1 $389 $389 $-1 $560 reversed $244 $-1 #
edge $-1 $561 0 $561 6.2831853071796004 $245 $562 forward 7 unknown #
vertex $-1 $248 $563 #
ellipse-curve $-1 30.298121662219188 -35.056896267334842 6.8293714886092021 0 -0.68199836817093118 0.7313536940579346 1 0 0 1 I I #
coedge $-1 $393 $393 $-1 $564 reversed $251 $-1 #
edge $-1 $565 0 $565 6.2831853071796004 $252 $566 forward 7 unknown #
vertex $-1 $255 $567 #
ellipse-curve $-1 40.315746616083814 -35.056896267334842 6.8293714886092021 0 -0.68199836817093118 0.7313536940579346 1 0 0 1 I I #
face $-1 $-1 $409 $54 $-1 $568 forward single #
loop $-1 $-1 $569 $256 #
plane-surface $-1 0 36.95961038401957 0 0 -1 0 0 0 -1 forward_v I I I I #
coedge $-1 $570 $571 $572 $573 reversed $257 $-1 #
coedge $-1 $574 $259 $261 $407 forward $161 $-1 #
coedge $-1 $259 $574 $570 $575 forward $161 $-1 #
coedge $-1 $572 $262 $259 $404 forward $409 $-1 #
edge $-1 $411 -17.530843669263081 $576 5.8436145564210253 $403 $577 forward 7 unknown #
coedge $-1 $578 $579 $260 $406 forward $398 $-1 #
edge $-1 $580 -62.948290674598447 $410 -59.399671358888803 $405 $581 forward 7 unknown #
edge $-1 $411 68.715954189518214 $580 73.919220768039182 $261 $582 forward 7 unknown #
coedge $-1 $262 $572 $578 $583 forward $409 $-1 #
loop $-1 $-1 $572 $397 #
vertex $-1 $406 $584 #
vertex $-1 $263 $585 #
straight-curve $-1 -23.374458225684108 29.001107207044477 8.6036811464640053 0 -1 0 I I #
coedge $-1 $413 $413 $-1 $586 reversed $266 $-1 #
edge $-1 $587 0 $587 6.2831853071796004 $267 $588 forward 7 unknown #
vertex $-1 $270 $589 #
ellipse-curve $-1 -16.69604158977436 35.056896267334821 6.829371488609187 0 0.68199836817093118 0.7313536940579346 1 0 0 1 I I #
coedge $-1 $417 $417 $-1 $590 reversed $273 $-1 #
edge $-1 $591 0 $591 6.2831853071796004 $274 $592 forward 7 unknown #
vertex $-1 $277 $593 #
ellipse-curve $-1 -6.6784166359097412 35.056896267334821 6.829371488609187 0 0.68199836817093118 0.7313536940579346 1 0 0 1 I I #
face $-1 $-1 $594 $57 $-1 $595 reversed single #
loop $-1 $-1 $284 $278 #
plane-surface $-1 0 0 8.6036811464640053 0 0 1 1 0 0 forward_v I I I I #
coedge $-1 $596 $597 $598 $599 reversed $279 $-1 #
coedge $-1 $600 $281 $283 $431 forward $175 $-1 #
coedge $-1 $281 $600 $596 $601 forward $175 $-1 #
coedge $-1 $598 $284 $281 $428 forward $422 $-1 #
edge $-1 $434 5.9662379567336998 $602 29.340696182417808 $427 $603 forward 7 unknown #
coedge $-1 $604 $605 $282 $430 forward $594 $-1 #
edge $-1 $606 -62.948290674598447 $433 -59.399671358888803 $429 $607 forward 7 unknown #
edge $-1 $434 68.715954189518214 $606 73.919220768039182 $283 $608 forward 7 unknown #
coedge $-1 $284 $598 $604 $609 forward $422 $-1 #
vertex $-1 $285 $610 #
vertex $-1 $285 $611 #
straight-curve $-1 23.619705026309454 29.001107207044477 8.6036811464640053 0 -1 0 I I #
coedge $-1 $436 $436 $-1 $612 reversed $288 $-1 #
edge $-1 $613 0 $613 6.2831853071796004 $289 $614 forward 7 unknown #
vertex $-1 $292 $615 #
ellipse-curve $-1 30.298121662219188 35.056896267334821 6.829371488609187 0 0.68199836817093118 0.7313536940579346 1 0 0 1 I I #
coedge $-1 $440 $440 $-1 $616 reversed $295 $-1 #
edge $-1 $617 0 $617 6.2831853071796004 $296 $618 forward 7 unknown #
vertex $-1 $299 $619 #
ellipse-curve $-1 40.315746616083814 35.056896267334821 6.829371488609187 0 0.68199836817093118 0.7313536940579346 1 0 0 1 I I #
face $-1 $-1 $315 $45 $-1 $620 reversed single #
loop $-1 $-1 $460 $300 #
plane-surface $-1 0 36.95961038401957 0 0 -1 0 0 0 -1 forward_v I I I I #
coedge $-1 $621 $458 $461 $622 forward $301 $-1 #
coedge $-1 $464 $303 $304 $452 reversed $189 $-1 #
coedge $-1 $458 $621 $303 $450 reversed $301 $-1 #
edge $-1 $465 -8.6036811464640053 $623 8.6036811464640053 $449 $624 forward 7 unknown #
coedge $-1 $305 $304 $621 $625 forward $121 $-1 #
edge $-1 $456 -55.061494796594133 $623 55.061494796594133 $448 $626 forward 7 unknown #
coedge $-1 $461 $460 $305 $454 reversed $445 $-1 #
edge $-1 $627 -55.061494796594133 $455 55.061494796594133 $453 $628 forward 7 unknown #
vertex $-1 $307 $629 #
vertex $-1 $467 $630 #
straight-curve $-1 55.061494796594133 0 -8.6036811464640053 0 -1 0 I I #
coedge $-1 $447 $449 $308 $459 reversed $301 $-1 #
edge $-1 $462 -36.95961038401957 $465 36.95961038401957 $458 $631 forward 7 unknown #
coedge $-1 $453 $309 $314 $468 forward $445 $-1 #
coedge $-1 $309 $453 $447 $622 reversed $445 $-1 #
vertex $-1 $310 $632 #
straight-curve $-1 0 36.95961038401957 8.6036811464640053 -1 0 0 I I #
coedge $-1 $311 $448 $313 $467 reversed $189 $-1 #
vertex $-1 $459 $633 #
straight-curve $-1 0 -36.95961038401957 8.6036811464640053 1 0 0 I I #
edge $-1 $316 -8.6036811464640053 $456 8.6036811464640053 $313 $634 forward 7 unknown #
edge $-1 $317 -8.6036811464640053 $455 8.6036811464640053 $314 $635 forward 7 unknown #
point $-1 55.061494796594133 -36.95961038401957 8.6036811464640053 #
point $-1 55.061494796594133 36.95961038401957 8.6036811464640053 #
face $-1 $-1 $481 $46 $-1 $636 reversed single #
loop $-1 $-1 $477 $319 #
plane-surface $-1 0 0 -8.6036811464640053 0 0 1 1 0 0 forward_v I I I I #
coedge $-1 $637 $638 $327 $485 forward $320 $-1 #
coedge $-1 $322 $489 $479 $639 forward $197 $-1 #
edge $-1 $483 -19.550742540806606 $332 -15.26699314561932 $322 $640 forward 7 unknown #
coedge $-1 $641 $328 $323 $478 forward $472 $-1 #
edge $-1 $333 15.26699314561932 $482 19.550742540806606 $477 $642 forward 7 unknown #
coedge $-1 $643 $325 $475 $639 reversed $481 $-1 #
coedge $-1 $325 $643 $641 $644 reversed $481 $-1 #
loop $-1 $-1 $325 $471 #
vertex $-1 $644 $645 #
vertex $-1 $326 $646 #
straight-curve $-1 -46.994163251993555 -36.95961038401957 0 0 0 1 I I #
edge $-1 $490 -8.6036811464640053 $487 8.6036811464640053 $474 $647 forward 7 unknown #
coedge $-1 $328 $641 $637 $648 forward $472 $-1 #
vertex $-1 $329 $649 #
straight-curve $-1 -25.513914512146922 -32.675860988832284 -8.6036811464640053 1 0 0 I I #
coedge $-1 $475 $330 $638 $650 forward $197 $-1 #
vertex $-1 $650 $651 #
straight-curve $-1 -25.513914512146922 -32.675860988832284 8.6036811464640053 -1 0 0 I I #
point $-1 -46.994163251993555 -32.675860988832284 8.6036811464640053 #
point $-1 -46.994163251993555 -32.675860988832284 -8.6036811464640053 #
face $-1 $-1 $503 $47 $-1 $652 reversed single #
loop $-1 $-1 $499 $335 #
plane-surface $-1 0 0 -8.6036811464640053 0 0 1 1 0 0 forward_v I I I I #
coedge $-1 $338 $348 $501 $653 forward $205 $-1 #
edge $-1 $505 -29.547580284447214 $349 -21.480248739846637 $338 $654 forward 7 unknown #
coedge $-1 $655 $507 $339 $500 forward $495 $-1 #
edge $-1 $509 21.480248739846637 $504 29.547580284447214 $499 $656 forward 7 unknown #
coedge $-1 $657 $341 $497 $653 reversed $503 $-1 #
coedge $-1 $341 $657 $655 $658 reversed $503 $-1 #
loop $-1 $-1 $341 $494 #
vertex $-1 $658 $659 #
vertex $-1 $342 $660 #
straight-curve $-1 55.061494796594133 -32.675860988832284 0 0 0 1 I I #
coedge $-1 $499 $661 $343 $508 forward $495 $-1 #
edge $-1 $513 -19.550742540806606 $509 -15.26699314561932 $507 $662 forward 7 unknown #
vertex $-1 $508 $663 #
straight-curve $-1 46.994163251993562 -32.675860988832284 0 0 0 -1 I I #
coedge $-1 $664 $346 $661 $665 reversed $336 $-1 #
coedge $-1 $346 $664 $348 $515 reversed $336 $-1 #
vertex $-1 $508 $666 #
straight-curve $-1 46.994163251993562 -36.95961038401957 0 0 0 -1 I I #
edge $-1 $350 46.994163251993562 $667 55.061494796594133 $512 $668 forward 7 unknown #
point $-1 46.994163251993562 -32.675860988832284 8.6036811464640053 #
point $-1 46.994163251993562 -36.95961038401957 8.6036811464640053 #
loop $-1 $-1 $360 $352 #
plane-surface $-1 0 -36.95961038401957 0 0 1 0 0 0 1 forward_v I I I I #
coedge $-1 $521 $355 $357 $525 reversed $213 $-1 #
coedge $-1 $355 $520 $669 $670 reversed $213 $-1 #
coedge $-1 $363 $358 $355 $523 forward $353 $-1 #
edge $-1 $526 -22.877472641689089 $671 -19.072044408319627 $522 $672 forward 7 unknown #
coedge $-1 $357 $356 $529 $673 reversed $133 $-1 #
edge $-1 $674 -1.9479204584885432e-014 $526 5.2032665785208945 $520 $675 forward 7 unknown #
vertex $-1 $359 $676 #
straight-curve $-1 -5.8436145564210271 -33.154182150650108 8.6036811464640053 -1 0 0 I I #
coedge $-1 $669 $360 $363 $533 reversed $518 $-1 #
coedge $-1 $360 $669 $524 $673 forward $518 $-1 #
vertex $-1 $361 $677 #
straight-curve $-1 -1.7763568394002505e-015 -36.95961038401957 42.796958535218067 0 0 1 I I #
straight-curve $-1 -1.7763568394002505e-015 -36.959610384019555 5.0550618307544113 0 -0.7313536940579346 -0.68199836817093118 I I #
edge $-1 $671 -23.374458225684108 $364 -1.7763568394002505e-015 $528 $678 forward 7 unknown #
point $-1 -1.7763568394002505e-015 -36.95961038401957 8.6036811464640053 #
point $-1 -1.7763568394002505e-015 -33.154182150650108 8.6036811464640053 #
edge $-1 $679 1 $679 0 $367 $-1 forward 7 unknown #
vertex $-1 $368 $680 #
ellipse-curve $-1 -16.69604158977436 -33.188399319008511 4.8256538709858949 0 -0.68199836817093118 0.7313536940579346 1 0 0 1 I I #
point $-1 -15.69604158977436 -35.056896267334842 6.8293714886092038 #
edge $-1 $681 1 $681 0 $371 $-1 forward 7 unknown #
vertex $-1 $372 $682 #
ellipse-curve $-1 -6.6784166359097412 -33.188399319008511 4.8256538709858949 0 -0.68199836817093118 0.7313536940579346 1 0 0 1 I I #
point $-1 -5.6784166359097412 -35.056896267334842 6.8293714886092038 #
loop $-1 $-1 $547 $375 #
plane-surface $-1 46.994163251993562 -34.817735686425927 0 1 0 0 0 0 -1 forward_v I I I I #
coedge $-1 $379 $378 $553 $683 reversed $147 $-1 #
coedge $-1 $684 $685 $379 $548 forward $544 $-1 #
edge $-1 $550 0.94053797364164893 $686 6.1438045521625639 $547 $687 forward 7 unknown #
coedge $-1 $385 $380 $685 $688 forward $235 $-1 #
vertex $-1 $688 $689 #
straight-curve $-1 17.653467069575754 -36.95961038401957 5.0550618307543953 1 0 0 I I #
coedge $-1 $690 $382 $385 $557 forward $376 $-1 #
coedge $-1 $382 $690 $546 $683 forward $376 $-1 #
vertex $-1 $383 $691 #
straight-curve $-1 23.619705026309454 -56.031654792339197 8.6036811464640053 0 -1 0 I I #
straight-curve $-1 23.619705026309454 -36.959610384019555 5.0550618307544113 0 0.7313536940579346 0.68199836817093118 I I #
edge $-1 $386 23.619705026309454 $692 46.994163251993562 $385 $693 forward 7 unknown #
point $-1 23.619705026309454 -36.95961038401957 8.6036811464640053 #
point $-1 23.619705026309454 -36.95961038401957 5.055061830754398 #
edge $-1 $694 1 $694 0 $389 $-1 forward 7 unknown #
vertex $-1 $390 $695 #
ellipse-curve $-1 30.298121662219188 -33.188399319008511 4.8256538709858949 0 -0.68199836817093118 0.7313536940579346 1 0 0 1 I I #
point $-1 31.298121662219188 -35.056896267334842 6.8293714886092038 #
edge $-1 $696 1 $696 0 $393 $-1 forward 7 unknown #
vertex $-1 $394 $697 #
ellipse-curve $-1 40.315746616083814 -33.188399319008511 4.8256538709858949 0 -0.68199836817093118 0.7313536940579346 1 0 0 1 I I #
point $-1 41.315746616083814 -35.056896267334842 6.8293714886092038 #
plane-surface $-1 0 0 8.6036811464640053 0 0 1 1 0 0 forward_v I I I I #
coedge $-1 $579 $578 $571 $698 forward $398 $-1 #
coedge $-1 $571 $400 $402 $575 reversed $257 $-1 #
coedge $-1 $400 $570 $569 $698 reversed $257 $-1 #
coedge $-1 $408 $403 $400 $573 forward $409 $-1 #
edge $-1 $576 4.1530749436055956 $699 7.9585031769750927 $572 $700 forward 7 unknown #
coedge $-1 $402 $401 $579 $701 reversed $161 $-1 #
edge $-1 $702 -73.919220768039182 $576 -68.715954189518214 $570 $703 forward 7 unknown #
vertex $-1 $404 $704 #
straight-curve $-1 -5.8436145564210271 33.154182150650072 8.6036811464640088 1 0 0 I I #
coedge $-1 $569 $405 $408 $583 reversed $398 $-1 #
coedge $-1 $405 $569 $574 $701 forward $398 $-1 #
vertex $-1 $406 $705 #
straight-curve $-1 -23.374458225684108 36.95961038401957 68.003352505352808 0 0 1 I I #
straight-curve $-1 -23.374458225684108 -17.101484786569884 55.467849771023893 0 0.7313536940579346 -0.68199836817093118 I I #
edge $-1 $699 1.7763568394002505e-015 $410 23.374458225684108 $578 $706 forward 7 unknown #
point $-1 -23.374458225684108 36.95961038401957 8.6036811464640053 #
point $-1 -23.374458225684108 33.154182150650072 8.6036811464640124 #
edge $-1 $707 1 $707 0 $413 $-1 forward 7 unknown #
vertex $-1 $414 $708 #
ellipse-curve $-1 -16.69604158977436 33.188399319008504 4.8256538709858914 0 0.68199836817093118 0.7313536940579346 1 0 0 1 I I #
point $-1 -15.69604158977436 35.056896267334835 6.8293714886092003 #
edge $-1 $709 1 $709 0 $417 $-1 forward 7 unknown #
vertex $-1 $418 $710 #
ellipse-curve $-1 -6.6784166359097412 33.188399319008504 4.8256538709858914 0 0.68199836817093118 0.7313536940579346 1 0 0 1 I I #
point $-1 -5.6784166359097412 35.056896267334835 6.8293714886092003 #
loop $-1 $-1 $429 $421 #
plane-surface $-1 0 36.95961038401957 0 0 -1 0 0 0 -1 forward_v I I I I #
coedge $-1 $597 $424 $426 $601 reversed $279 $-1 #
coedge $-1 $424 $596 $711 $712 reversed $279 $-1 #
coedge $-1 $432 $427 $424 $599 forward $422 $-1 #
edge $-1 $602 4.1530749436055956 $713 7.9585031769750927 $598 $714 forward 7 unknown #
coedge $-1 $426 $425 $605 $715 reversed $175 $-1 #
edge $-1 $716 -73.919220768039182 $602 -68.715954189518214 $596 $717 forward 7 unknown #
vertex $-1 $428 $718 #
straight-curve $-1 17.653467069575754 33.154182150650072 8.6036811464640088 1 0 0 I I #
coedge $-1 $711 $429 $432 $609 reversed $594 $-1 #
coedge $-1 $429 $711 $600 $715 forward $594 $-1 #
vertex $-1 $430 $719 #
straight-curve $-1 23.619705026309454 36.95961038401957 68.003352505352808 0 0 1 I I #
straight-curve $-1 23.619705026309454 -17.101484786569884 55.467849771023893 0 0.7313536940579346 -0.68199836817093118 I I #
edge $-1 $713 -46.994163251993562 $433 -23.619705026309454 $604 $720 forward 7 unknown #
point $-1 23.619705026309454 36.95961038401957 8.6036811464640053 #
point $-1 23.619705026309454 33.154182150650072 8.6036811464640124 #
edge $-1 $721 1 $721 0 $436 $-1 forward 7 unknown #
vertex $-1 $437 $722 #
ellipse-curve $-1 30.298121662219188 33.188399319008504 4.8256538709858914 0 0.68199836817093118 0.7313536940579346 1 0 0 1 I I #
point $-1 31.298121662219188 35.056896267334835 6.8293714886092003 #
edge $-1 $723 1 $723 0 $440 $-1 forward 7 unknown #
vertex $-1 $441 $724 #
ellipse-curve $-1 40.315746616083814 33.188399319008504 4.8256538709858914 0 0.68199836817093118 0.7313536940579346 1 0 0 1 I I #
point $-1 41.315746616083814 35.056896267334835 6.8293714886092003 #
plane-surface $-1 55.061494796594133 0 0 -1 0 0 0 0 1 forward_v I I I I #
coedge $-1 $449 $447 $451 $625 reversed $301 $-1 #
edge $-1 $462 -8.6036811464640053 $627 8.6036811464640053 $461 $725 forward 7 unknown #
vertex $-1 $625 $726 #
straight-curve $-1 -55.061494796594133 -36.95961038401957 0 0 0 -1 I I #
edge $-1 $623 -36.95961038401957 $627 36.95961038401957 $621 $727 forward 7 unknown #
straight-curve $-1 0 -36.95961038401957 -8.6036811464640053 -1 0 0 I I #
vertex $-1 $454 $728 #
straight-curve $-1 0 36.95961038401957 -8.6036811464640053 1 0 0 I I #
point $-1 55.061494796594133 36.95961038401957 -8.6036811464640053 #
point $-1 55.061494796594133 -36.95961038401957 -8.6036811464640053 #
straight-curve $-1 -55.061494796594133 0 8.6036811464640053 0 -1 0 I I #
point $-1 -55.061494796594133 36.95961038401957 8.6036811464640053 #
point $-1 -55.061494796594133 -36.95961038401957 8.6036811464640053 #
straight-curve $-1 55.061494796594133 -36.95961038401957 0 0 0 -1 I I #
straight-curve $-1 55.061494796594133 36.95961038401957 0 0 0 -1 I I #
plane-surface $-1 0 -36.95961038401957 0 0 1 0 0 0 1 forward_v I I I I #
coedge $-1 $729 $474 $486 $648 reversed $320 $-1 #
coedge $-1 $474 $729 $489 $650 reversed $320 $-1 #
edge $-1 $730 -55.061494796594133 $483 -46.994163251993555 $479 $731 forward 7 unknown #
straight-curve $-1 -46.994163251993555 -17.408867843212963 8.6036811464640053 0 1 0 I I #
coedge $-1 $486 $477 $480 $644 forward $472 $-1 #
straight-curve $-1 -46.994163251993555 -17.408867843212963 -8.6036811464640053 0 -1 0 I I #
coedge $-1 $480 $479 $729 $732 forward $481 $-1 #
edge $-1 $482 46.994163251993555 $733 55.061494796594133 $480 $734 forward 7 unknown #
point $-1 -46.994163251993555 -36.95961038401957 -8.6036811464640053 #
point $-1 -46.994163251993555 -36.95961038401957 8.6036811464640053 #
straight-curve $-1 -55.061494796594133 -32.675860988832284 0 0 0 -1 I I #
edge $-1 $733 -36.95961038401957 $487 -32.675860988832284 $637 $735 forward 7 unknown #
point $-1 -55.061494796594133 -32.675860988832284 -8.6036811464640053 #
edge $-1 $490 32.675860988832284 $730 36.95961038401957 $638 $736 forward 7 unknown #
point $-1 -55.061494796594133 -32.675860988832284 8.6036811464640053 #
plane-surface $-1 55.061494796594133 0 0 -1 0 0 0 0 1 forward_v I I I I #
edge $-1 $667 -36.95961038401957 $505 -32.675860988832284 $501 $737 forward 7 unknown #
straight-curve $-1 25.513914512146926 -32.675860988832284 8.6036811464640053 -1 0 0 I I #
coedge $-1 $661 $499 $502 $658 forward $495 $-1 #
straight-curve $-1 25.513914512146926 -32.675860988832284 -8.6036811464640053 1 0 0 I I #
coedge $-1 $502 $501 $664 $738 forward $503 $-1 #
edge $-1 $504 32.675860988832284 $739 36.95961038401957 $502 $740 forward 7 unknown #
point $-1 55.06149479659414 -32.675860988832284 -8.6036811464640053 #
point $-1 55.06149479659414 -32.675860988832284 8.6036811464640053 #
coedge $-1 $507 $655 $511 $665 forward $495 $-1 #
straight-curve $-1 46.994163251993562 -17.408867843212963 -8.6036811464640053 0 1 0 I I #
point $-1 46.994163251993562 -32.675860988832284 -8.6036811464640053 #
coedge $-1 $512 $511 $657 $738 reversed $336 $-1 #
edge $-1 $739 -55.061494796594133 $513 -46.994163251993562 $511 $741 forward 7 unknown #
point $-1 46.994163251993562 -36.95961038401957 -8.6036811464640053 #
vertex $-1 $653 $742 #
straight-curve $-1 0 -36.95961038401957 8.6036811464640053 1 0 0 I I #
coedge $-1 $529 $528 $521 $670 forward $518 $-1 #
edge $-1 $671 34.193277388754062 $674 37.74189670446367 $669 $743 forward 7 unknown #
vertex $-1 $533 $744 #
straight-curve $-1 -23.374458225684108 -56.031654792339197 8.6036811464640053 0 -1 0 I I #
edge $-1 $674 -17.530843669263081 $530 5.8436145564210253 $529 $745 forward 7 unknown #
vertex $-1 $673 $746 #
straight-curve $-1 -23.374458225684108 -36.959610384019555 5.0550618307544113 0 0.7313536940579346 0.68199836817093118 I I #
point $-1 -23.374458225684108 -33.154182150650108 8.6036811464640053 #
point $-1 -1.7763568394002505e-015 -36.95961038401957 5.055061830754398 #
straight-curve $-1 0 -36.95961038401957 8.6036811464640053 1 0 0 I I #
vertex $-1 $536 $747 #
point $-1 -15.69604158977436 -33.188399319008511 4.8256538709858949 #
vertex $-1 $540 $748 #
point $-1 -5.6784166359097412 -33.188399319008511 4.8256538709858949 #
edge $-1 $686 -29.340696182417808 $554 -5.9662379567336998 $553 $749 forward 7 unknown #
coedge $-1 $685 $547 $690 $750 reversed $544 $-1 #
coedge $-1 $547 $684 $549 $688 reversed $544 $-1 #
vertex $-1 $548 $751 #
straight-curve $-1 46.994163251993562 -37.647476305444151 4.4136164675279961 0 0.7313536940579346 0.68199836817093118 I I #
edge $-1 $550 5.055061830754398 $692 8.6036811464640053 $549 $752 forward 7 unknown #
point $-1 46.994163251993562 -36.95961038401957 5.055061830754398 #
coedge $-1 $553 $552 $684 $750 forward $376 $-1 #
point $-1 23.619705026309454 -33.154182150650108 8.6036811464640053 #
vertex $-1 $688 $753 #
straight-curve $-1 0 -36.95961038401957 8.6036811464640053 1 0 0 I I #
vertex $-1 $560 $754 #
point $-1 31.298121662219188 -33.188399319008511 4.8256538709858949 #
vertex $-1 $564 $755 #
point $-1 41.315746616083814 -33.188399319008511 4.8256538709858949 #
edge $-1 $699 59.399671358888803 $702 62.948290674598447 $569 $756 forward 7 unknown #
vertex $-1 $583 $757 #
straight-curve $-1 -1.7763568394002505e-015 29.001107207044477 8.6036811464640053 0 1 0 I I #
edge $-1 $702 -5.8436145564210253 $580 17.530843669263081 $579 $758 forward 7 unknown #
vertex $-1 $701 $759 #
straight-curve $-1 -1.7763568394002505e-015 -17.101484786569884 55.467849771023893 0 -0.7313536940579346 0.68199836817093118 I I #
point $-1 -1.7763568394002505e-015 33.154182150650072 8.6036811464640124 #
point $-1 -23.374458225684108 36.95961038401957 5.0550618307543616 #
straight-curve $-1 0 36.95961038401957 8.6036811464640053 -1 0 0 I I #
vertex $-1 $586 $760 #
point $-1 -15.69604158977436 33.188399319008504 4.8256538709858914 #
vertex $-1 $590 $761 #
point $-1 -5.6784166359097412 33.188399319008504 4.8256538709858914 #
coedge $-1 $605 $604 $597 $712 forward $594 $-1 #
edge $-1 $713 59.399671358888803 $716 62.948290674598447 $711 $762 forward 7 unknown #
vertex $-1 $609 $763 #
straight-curve $-1 46.994163251993562 29.001107207044477 8.6036811464640053 0 1 0 I I #
edge $-1 $716 -29.340696182417808 $606 -5.9662379567336998 $605 $764 forward 7 unknown #
vertex $-1 $715 $765 #
straight-curve $-1 46.994163251993562 -17.101484786569884 55.467849771023893 0 -0.7313536940579346 0.68199836817093118 I I #
point $-1 46.994163251993562 33.154182150650072 8.6036811464640124 #
point $-1 23.619705026309454 36.95961038401957 5.0550618307543616 #
straight-curve $-1 0 36.95961038401957 8.6036811464640053 -1 0 0 I I #
vertex $-1 $612 $766 #
point $-1 31.298121662219188 33.188399319008504 4.8256538709858914 #
vertex $-1 $616 $767 #
point $-1 41.315746616083814 33.188399319008504 4.8256538709858914 #
straight-curve $-1 -55.061494796594133 36.95961038401957 0 0 0 -1 I I #
point $-1 -55.061494796594133 -36.95961038401957 -8.6036811464640053 #
straight-curve $-1 -55.061494796594133 0 -8.6036811464640053 0 1 0 I I #
point $-1 -55.061494796594133 36.95961038401957 -8.6036811464640053 #
coedge $-1 $638 $637 $643 $732 reversed $320 $-1 #
vertex $-1 $650 $768 #
straight-curve $-1 0 -36.95961038401957 8.6036811464640053 1 0 0 I I #
edge $-1 $730 -8.6036811464640053 $733 8.6036811464640053 $729 $769 forward 7 unknown #
vertex $-1 $648 $770 #
straight-curve $-1 0 -36.95961038401957 -8.6036811464640053 -1 0 0 I I #
straight-curve $-1 -55.061494796594133 0 -8.6036811464640053 0 1 0 I I #
straight-curve $-1 -55.061494796594133 0 8.6036811464640053 0 -1 0 I I #
straight-curve $-1 55.061494796594133 0 8.6036811464640053 0 1 0 I I #
edge $-1 $667 -8.6036811464640053 $739 8.6036811464640053 $657 $771 forward 7 unknown #
vertex $-1 $738 $772 #
straight-curve $-1 55.061494796594133 0 -8.6036811464640053 0 -1 0 I I #
straight-curve $-1 0 -36.95961038401957 -8.6036811464640053 -1 0 0 I I #
point $-1 55.061494796594133 -36.95961038401957 8.6036811464640053 #
straight-curve $-1 -23.374458225684108 -36.95961038401957 42.796958535218067 0 0 -1 I I #
point $-1 -23.374458225684108 -36.95961038401957 8.6036811464640053 #
straight-curve $-1 -5.8436145564210271 -36.95961038401957 5.0550618307543953 1 0 0 I I #
point $-1 -23.374458225684108 -36.95961038401957 5.055061830754398 #
point $-1 -16.69604158977436 -32.506400950837573 4.0943001769279599 #
point $-1 -6.6784166359097412 -32.506400950837573 4.0943001769279599 #
straight-curve $-1 17.653467069575754 -33.154182150650108 8.6036811464640053 -1 0 0 I I #
edge $-1 $692 -19.550742540806606 $686 -15.745314307437145 $690 $773 forward 7 unknown #
point $-1 46.994163251993562 -33.154182150650108 8.6036811464640053 #
straight-curve $-1 46.994163251993562 -36.95961038401957 0 0 0 1 I I #
point $-1 46.994163251993562 -36.95961038401957 8.6036811464640053 #
point $-1 30.298121662219188 -32.506400950837573 4.0943001769279599 #
point $-1 40.315746616083814 -32.506400950837573 4.0943001769279599 #
straight-curve $-1 -1.7763568394002505e-015 36.95961038401957 68.003352505352808 0 0 -1 I I #
point $-1 -1.7763568394002505e-015 36.95961038401957 8.6036811464640053 #
straight-curve $-1 -5.8436145564210271 36.95961038401957 5.0550618307543651 -1 0 0 I I #
point $-1 -1.7763568394002505e-015 36.95961038401957 5.0550618307543616 #
point $-1 -16.69604158977436 32.506400950837566 4.0943001769279563 #
point $-1 -6.6784166359097412 32.506400950837566 4.0943001769279563 #
straight-curve $-1 46.994163251993562 36.95961038401957 68.003352505352808 0 0 -1 I I #
point $-1 46.994163251993562 36.95961038401957 8.6036811464640053 #
straight-curve $-1 17.653467069575754 36.95961038401957 5.0550618307543651 -1 0 0 I I #
point $-1 46.994163251993562 36.95961038401957 5.0550618307543616 #
point $-1 30.298121662219188 32.506400950837566 4.0943001769279563 #
point $-1 40.315746616083814 32.506400950837566 4.0943001769279563 #
point $-1 -55.061494796594133 -36.95961038401957 8.6036811464640053 #
straight-curve $-1 -55.061494796594133 -36.95961038401957 0 0 0 -1 I I #
point $-1 -55.061494796594133 -36.95961038401957 -8.6036811464640053 #
straight-curve $-1 55.061494796594133 -36.95961038401957 0 0 0 -1 I I #
point $-1 55.061494796594133 -36.95961038401957 -8.6036811464640053 #
straight-curve $-1 46.994163251993562 -17.408867843212963 8.6036811464640053 0 1 0 I I #
End-of-ACIS-data 