500 0 5 0           
7 Unknown 11 ACIS 5.0 NT 24 Fri Mar 26 00:57:00 1999 
-1 9.9999999999999995e-007 1e-010 
body $-1 $5 $-1 $6 #
body $-1 $7 $-1 $8 #
body $-1 $9 $-1 $10 #
body $-1 $11 $-1 $12 #
body $-1 $13 $-1 $14 #
lump $-1 $-1 $15 $0 #
transform $-1 1 0 0 0 1 0 0 0 1 47.564928128910182 22.507659539084781 9.5156287604889513 1 rotate no_reflect no_shear #
lump $-1 $-1 $16 $1 #
transform $-1 1 0 0 0 1 0 0 0 1 47.564928128910182 22.507659539084781 9.5156287604889513 1 rotate no_reflect no_shear #
lump $-1 $-1 $17 $2 #
transform $-1 1 0 0 0 1 0 0 0 1 47.564928128910182 22.507659539084781 9.5156287604889513 1 rotate no_reflect no_shear #
lump $-1 $-1 $18 $3 #
transform $-1 1 0 0 0 1 0 0 0 1 47.564928128910182 22.507659539084781 9.5156287604889513 1 rotate no_reflect no_shear #
lump $-1 $-1 $19 $4 #
transform $-1 1 0 0 0 1 0 0 0 1 47.564928128910182 22.507659539084781 9.5156287604889513 1 rotate no_reflect no_shear #
shell $-1 $-1 $-1 $20 $-1 $5 #
shell $-1 $-1 $-1 $21 $-1 $7 #
shell $-1 $-1 $-1 $22 $-1 $9 #
shell $-1 $-1 $-1 $23 $-1 $11 #
shell $-1 $-1 $-1 $24 $-1 $13 #
face $-1 $25 $26 $15 $-1 $27 forward single #
face $-1 $28 $29 $16 $-1 $30 forward single #
face $-1 $31 $32 $17 $-1 $33 forward single #
face $-1 $34 $35 $18 $-1 $36 reversed single #
face $-1 $37 $38 $19 $-1 $39 forward single #
face $-1 $40 $41 $15 $-1 $42 reversed single #
loop $-1 $-1 $43 $20 #
plane-surface $-1 0 0 9.5156287604889513 0 0 1 1 0 0 forward_v I I I I #
face $-1 $44 $45 $16 $-1 $46 reversed single #
loop $-1 $-1 $47 $21 #
plane-surface $-1 -43.28982129362511 0 3.8512471710483869 0 0 1 1 0 0 forward_v I I I I #
face $-1 $48 $49 $17 $-1 $50 reversed single #
loop $-1 $-1 $51 $22 #
plane-surface $-1 43.28982129362511 0 3.8512471710483869 0 0 1 1 0 0 forward_v I I I I #
face $-1 $52 $53 $18 $-1 $54 reversed single #
loop $-1 $-1 $55 $23 #
plane-surface $-1 -5.4170991939439865 -88.590411245467763 71.557763351969029 1 0 0 0 0.69465837861970381 -0.71933979245794832 forward_v I I I I #
face $-1 $56 $57 $19 $-1 $58 forward single #
loop $-1 $59 $60 $24 #
cone-surface $-1 -1.3022595169342708 -18.120492814370831 5.2036044559526022 0 0.69465837861970381 -0.71933979245794832 1 0 0 1 I I 0 1 1 forward I I I I #
face $-1 $61 $62 $15 $-1 $63 reversed single #
loop $-1 $-1 $64 $25 #
plane-surface $-1 0 0 -9.5156287604889513 0 0 1 1 0 0 forward_v I I I I #
coedge $-1 $65 $66 $67 $68 forward $26 $-1 #
face $-1 $69 $70 $16 $-1 $71 reversed single #
loop $-1 $-1 $72 $28 #
plane-surface $-1 -43.28982129362511 0 0.2024520685355089 0 0 1 1 0 0 forward_v I I I I #
coedge $-1 $73 $74 $75 $76 forward $29 $-1 #
face $-1 $77 $78 $17 $-1 $79 reversed single #
loop $-1 $-1 $80 $31 #
plane-surface $-1 43.28982129362511 0 0.2024520685355089 0 0 1 1 0 0 forward_v I I I I #
coedge $-1 $81 $82 $83 $84 reversed $32 $-1 #
face $-1 $85 $86 $18 $-1 $87 reversed single #
loop $-1 $-1 $88 $34 #
plane-surface $-1 -1.3022595169342708 -22.507659539084784 3.1270722949140719 0 -0.69465837861970381 0.71933979245794832 1 0 0 forward_v I I I I #
coedge $-1 $89 $90 $91 $92 reversed $35 $-1 #
face $-1 $-1 $93 $19 $-1 $94 forward single #
loop $-1 $95 $96 $37 #
cone-surface $-1 -1.3022595169342708 -16.693768765982568 3.7261884879747207 0 0.69465837861970381 -0.71933979245794832 0.5 0 0 1 I I -0.70710678118654746 0.70710678118654746 0.5 forward I I I I #
loop $-1 $-1 $97 $24 #
coedge $-1 $60 $60 $98 $99 reversed $38 $-1 #
face $-1 $100 $101 $15 $-1 $102 reversed single #
loop $-1 $-1 $103 $40 #
plane-surface $-1 0 -22.507659539084781 0 0 1 0 0 0 1 forward_v I I I I #
coedge $-1 $104 $105 $106 $107 forward $41 $-1 #
coedge $-1 $108 $43 $109 $110 forward $26 $-1 #
coedge $-1 $43 $108 $111 $112 forward $26 $-1 #
coedge $-1 $113 $114 $43 $68 reversed $115 $-1 #
edge $-1 $116 -22.507659539084781 $117 22.507659539084781 $67 $118 forward 7 unknown #
face $-1 $119 $120 $16 $-1 $121 reversed single #
loop $-1 $-1 $122 $44 #
plane-surface $-1 -39.014714458340038 0 2.0268496197919479 -1 0 0 0 0 1 forward_v I I I I #
coedge $-1 $123 $124 $125 $126 forward $45 $-1 #
coedge $-1 $127 $47 $128 $129 reversed $29 $-1 #
coedge $-1 $47 $127 $130 $131 reversed $29 $-1 #
coedge $-1 $122 $132 $47 $76 reversed $70 $-1 #
edge $-1 $133 -22.507659539084781 $134 22.507659539084781 $75 $135 forward 7 unknown #
face $-1 $136 $137 $17 $-1 $138 reversed single #
loop $-1 $-1 $139 $48 #
plane-surface $-1 39.014714458340038 0 2.0268496197919479 1 0 0 0 0 -1 forward_v I I I I #
coedge $-1 $140 $141 $142 $143 reversed $49 $-1 #
coedge $-1 $144 $51 $145 $146 reversed $32 $-1 #
coedge $-1 $51 $144 $147 $148 reversed $32 $-1 #
coedge $-1 $149 $150 $51 $84 forward $151 $-1 #
edge $-1 $152 -22.507659539084781 $153 22.507659539084781 $83 $154 forward 7 unknown #
face $-1 $155 $156 $18 $-1 $157 forward single #
loop $-1 $-1 $158 $52 #
plane-surface $-1 2.812580160075445 -88.590411245467763 71.557763351969029 -1 0 0 0 -0.69465837861970381 0.71933979245794832 forward_v I I I I #
coedge $-1 $159 $160 $161 $162 reversed $53 $-1 #
coedge $-1 $90 $55 $163 $164 reversed $35 $-1 #
coedge $-1 $55 $89 $159 $165 reversed $35 $-1 #
coedge $-1 $161 $166 $55 $92 forward $167 $-1 #
edge $-1 $168 26.263252915495563 $169 32.651809381070436 $91 $170 forward 7 unknown #
loop $-1 $-1 $98 $56 #
plane-surface $-1 -1.3022595169342708 -22.507659539084784 3.1270722949140719 0 -0.69465837861970381 0.71933979245794832 1 0 0 forward_v I I I I #
loop $-1 $-1 $171 $37 #
coedge $-1 $96 $96 $97 $172 reversed $57 $-1 #
coedge $-1 $97 $97 $96 $172 forward $59 $-1 #
coedge $-1 $98 $98 $60 $99 forward $93 $-1 #
edge $-1 $173 -1.2339611619077996e-015 $173 6.2831853071795996 $98 $174 forward 7 unknown #
face $-1 $175 $176 $15 $-1 $177 reversed single #
loop $-1 $-1 $178 $61 #
plane-surface $-1 -47.564928128910182 0 0 1 0 0 0 0 -1 forward_v I I I I #
coedge $-1 $179 $111 $180 $181 forward $62 $-1 #
coedge $-1 $182 $64 $179 $183 forward $41 $-1 #
coedge $-1 $64 $182 $184 $185 forward $41 $-1 #
coedge $-1 $114 $113 $64 $107 reversed $115 $-1 #
edge $-1 $186 -22.507659539084781 $187 22.507659539084781 $106 $188 forward 7 unknown #
coedge $-1 $66 $65 $189 $190 forward $26 $-1 #
coedge $-1 $191 $192 $65 $110 reversed $176 $-1 #
edge $-1 $117 -47.564928128910182 $193 47.564928128910182 $109 $194 forward 7 unknown #
coedge $-1 $103 $195 $66 $112 reversed $62 $-1 #
edge $-1 $196 -47.564928128910182 $116 47.564928128910182 $111 $197 forward 7 unknown #
coedge $-1 $106 $67 $195 $198 forward $115 $-1 #
coedge $-1 $67 $106 $191 $199 reversed $115 $-1 #
loop $-1 $-1 $113 $175 #
vertex $-1 $68 $200 #
vertex $-1 $68 $201 #
straight-curve $-1 47.564928128910182 0 9.5156287604889513 0 1 0 I I #
face $-1 $202 $203 $16 $-1 $204 reversed single #
loop $-1 $-1 $205 $69 #
plane-surface $-1 0 -22.507659539084781 0 0 1 0 0 0 1 forward_v I I I I #
coedge $-1 $125 $75 $206 $207 reversed $70 $-1 #
coedge $-1 $208 $72 $205 $209 reversed $45 $-1 #
coedge $-1 $72 $208 $210 $211 reversed $45 $-1 #
coedge $-1 $132 $122 $72 $126 reversed $70 $-1 #
edge $-1 $212 -22.507659539084781 $213 22.507659539084781 $125 $214 forward 7 unknown #
coedge $-1 $74 $73 $215 $216 reversed $29 $-1 #
coedge $-1 $217 $218 $73 $129 forward $219 $-1 #
edge $-1 $220 -25.920017482097627 $134 -17.369803811527483 $128 $221 forward 7 unknown #
coedge $-1 $222 $206 $74 $131 forward $120 $-1 #
edge $-1 $133 17.369803811527483 $223 25.920017482097627 $130 $224 forward 7 unknown #
coedge $-1 $75 $125 $217 $225 reversed $70 $-1 #
vertex $-1 $131 $226 #
vertex $-1 $129 $227 #
straight-curve $-1 -39.014714458340038 0 3.8512471710483869 0 1 0 I I #
face $-1 $228 $229 $17 $-1 $230 reversed single #
loop $-1 $-1 $147 $77 #
plane-surface $-1 0 -22.507659539084781 0 0 1 0 0 0 1 forward_v I I I I #
coedge $-1 $231 $232 $233 $234 reversed $78 $-1 #
coedge $-1 $235 $80 $236 $237 reversed $49 $-1 #
coedge $-1 $80 $235 $238 $239 reversed $49 $-1 #
coedge $-1 $150 $149 $80 $143 forward $151 $-1 #
edge $-1 $240 -22.507659539084781 $241 22.507659539084781 $142 $242 forward 7 unknown #
coedge $-1 $82 $81 $232 $243 forward $32 $-1 #
coedge $-1 $244 $233 $81 $146 forward $229 $-1 #
edge $-1 $245 17.369803811527483 $152 25.920017482097627 $145 $246 forward 7 unknown #
coedge $-1 $247 $248 $82 $148 forward $137 $-1 #
edge $-1 $153 -25.920017482097627 $249 -17.369803811527483 $147 $250 forward 7 unknown #
coedge $-1 $142 $83 $248 $251 forward $151 $-1 #
coedge $-1 $83 $142 $244 $252 reversed $151 $-1 #
loop $-1 $-1 $83 $228 #
vertex $-1 $252 $253 #
vertex $-1 $251 $254 #
straight-curve $-1 47.564928128910182 0 3.8512471710483869 0 -1 0 I I #
face $-1 $-1 $167 $18 $-1 $255 reversed single #
loop $-1 $-1 $256 $85 #
plane-surface $-1 0 0 9.5156287604889513 0 0 1 1 0 0 forward_v I I I I #
coedge $-1 $257 $258 $259 $260 reversed $86 $-1 #
coedge $-1 $261 $88 $90 $165 forward $53 $-1 #
coedge $-1 $88 $261 $257 $262 forward $53 $-1 #
coedge $-1 $259 $91 $88 $162 forward $167 $-1 #
edge $-1 $169 -4.7659694354768511 $263 3.4637099185425804 $161 $264 forward 7 unknown #
coedge $-1 $265 $266 $89 $164 forward $156 $-1 #
edge $-1 $267 -28.403089814920182 $168 -21.787546083649101 $163 $268 forward 7 unknown #
edge $-1 $169 5.0235306441864656e-015 $267 9.1966881307456951 $90 $269 forward 7 unknown #
coedge $-1 $91 $259 $265 $270 reversed $167 $-1 #
loop $-1 $-1 $259 $155 #
vertex $-1 $270 $271 #
vertex $-1 $92 $272 #
straight-curve $-1 -5.4170991939439865 -22.507659539084777 35.778881675984515 0 0 -1 I I #
coedge $-1 $171 $171 $-1 $273 reversed $95 $-1 #
edge $-1 $274 0 $274 6.2831853071796004 $96 $275 forward 7 unknown #
vertex $-1 $99 $276 #
ellipse-curve $-1 -1.3022595169342708 -19.19988767344924 6.3213505277015116 0 -0.69465837861970381 0.71933979245794832 1 0 0 1 I I #
face $-1 $-1 $115 $15 $-1 $277 reversed single #
loop $-1 $-1 $191 $100 #
plane-surface $-1 0 22.507659539084781 0 0 -1 0 0 0 -1 forward_v I I I I #
coedge $-1 $278 $189 $192 $279 forward $101 $-1 #
coedge $-1 $195 $103 $104 $183 reversed $62 $-1 #
coedge $-1 $189 $278 $103 $181 reversed $101 $-1 #
edge $-1 $196 -9.5156287604889513 $280 9.5156287604889513 $180 $281 forward 7 unknown #
coedge $-1 $105 $104 $278 $282 forward $41 $-1 #
edge $-1 $187 -47.564928128910182 $280 47.564928128910182 $179 $283 forward 7 unknown #
coedge $-1 $192 $191 $105 $185 reversed $176 $-1 #
edge $-1 $284 -47.564928128910182 $186 47.564928128910182 $184 $285 forward 7 unknown #
vertex $-1 $107 $286 #
vertex $-1 $198 $287 #
straight-curve $-1 47.564928128910182 0 -9.5156287604889513 0 -1 0 I I #
coedge $-1 $178 $180 $108 $190 reversed $101 $-1 #
edge $-1 $193 -22.507659539084781 $196 22.507659539084781 $189 $288 forward 7 unknown #
coedge $-1 $184 $109 $114 $199 forward $176 $-1 #
coedge $-1 $109 $184 $178 $279 reversed $176 $-1 #
vertex $-1 $110 $289 #
straight-curve $-1 0 22.507659539084781 9.5156287604889513 -1 0 0 I I #
coedge $-1 $111 $179 $113 $198 reversed $62 $-1 #
vertex $-1 $190 $290 #
straight-curve $-1 0 -22.507659539084781 9.5156287604889513 1 0 0 I I #
edge $-1 $116 -9.5156287604889513 $187 9.5156287604889513 $113 $291 forward 7 unknown #
edge $-1 $117 -9.5156287604889513 $186 9.5156287604889513 $114 $292 forward 7 unknown #
point $-1 47.564928128910182 -22.507659539084781 9.5156287604889513 #
point $-1 47.564928128910182 22.507659539084781 9.5156287604889513 #
face $-1 $-1 $219 $16 $-1 $293 reversed single #
loop $-1 $-1 $294 $119 #
plane-surface $-1 -47.564928128910182 0 0 1 0 0 0 0 -1 forward_v I I I I #
coedge $-1 $206 $222 $123 $209 forward $120 $-1 #
coedge $-1 $130 $205 $122 $207 forward $120 $-1 #
edge $-1 $213 -0.81097274136046504 $133 2.8378223611524129 $206 $295 forward 7 unknown #
coedge $-1 $124 $123 $294 $296 reversed $45 $-1 #
edge $-1 $297 -25.920017482097627 $213 -17.369803811527483 $205 $298 forward 7 unknown #
coedge $-1 $218 $217 $124 $211 forward $219 $-1 #
edge $-1 $212 17.369803811527483 $299 25.920017482097627 $210 $300 forward 7 unknown #
vertex $-1 $211 $301 #
vertex $-1 $209 $302 #
straight-curve $-1 -39.014714458340038 0 0.2024520685355089 0 -1 0 I I #
coedge $-1 $303 $304 $127 $216 forward $203 $-1 #
edge $-1 $223 -22.507659539084781 $220 22.507659539084781 $215 $305 forward 7 unknown #
coedge $-1 $210 $128 $132 $225 forward $219 $-1 #
coedge $-1 $128 $210 $303 $306 reversed $219 $-1 #
loop $-1 $-1 $210 $202 #
vertex $-1 $306 $307 #
straight-curve $-1 -21.644910646812555 22.507659539084781 3.8512471710483869 1 0 0 I I #
coedge $-1 $205 $130 $304 $308 forward $120 $-1 #
vertex $-1 $308 $309 #
straight-curve $-1 -21.644910646812555 -22.507659539084781 3.8512471710483869 -1 0 0 I I #
edge $-1 $134 -2.8378223611524129 $212 0.81097274136046504 $217 $310 forward 7 unknown #
point $-1 -39.014714458340038 -22.507659539084781 3.8512471710483869 #
point $-1 -39.014714458340038 22.507659539084781 3.8512471710483869 #
face $-1 $-1 $151 $17 $-1 $311 reversed single #
loop $-1 $-1 $145 $136 #
plane-surface $-1 0 22.507659539084781 0 0 -1 0 0 0 -1 forward_v I I I I #
coedge $-1 $312 $139 $235 $313 reversed $78 $-1 #
coedge $-1 $139 $312 $144 $243 reversed $78 $-1 #
coedge $-1 $145 $238 $139 $234 forward $229 $-1 #
edge $-1 $314 -0.81097274136046504 $245 2.8378223611524129 $233 $315 forward 7 unknown #
coedge $-1 $141 $140 $231 $313 forward $49 $-1 #
coedge $-1 $248 $247 $140 $237 forward $137 $-1 #
edge $-1 $316 17.369803811527483 $240 25.920017482097627 $236 $317 forward 7 unknown #
coedge $-1 $233 $244 $141 $239 forward $229 $-1 #
edge $-1 $241 -25.920017482097627 $314 -17.369803811527483 $238 $318 forward 7 unknown #
vertex $-1 $143 $319 #
vertex $-1 $143 $320 #
straight-curve $-1 47.564928128910182 0 0.2024520685355089 0 1 0 I I #
edge $-1 $245 -22.507659539084781 $249 22.507659539084781 $232 $321 forward 7 unknown #
coedge $-1 $238 $145 $150 $252 forward $229 $-1 #
vertex $-1 $146 $322 #
straight-curve $-1 21.644910646812555 22.507659539084781 3.8512471710483869 1 0 0 I I #
coedge $-1 $236 $147 $312 $323 forward $137 $-1 #
coedge $-1 $147 $236 $149 $251 reversed $137 $-1 #
vertex $-1 $148 $324 #
straight-curve $-1 21.644910646812555 -22.507659539084781 3.8512471710483869 -1 0 0 I I #
edge $-1 $153 -3.8512471710483869 $240 -0.2024520685355089 $149 $325 forward 7 unknown #
edge $-1 $152 -3.8512471710483869 $241 -0.2024520685355089 $150 $326 forward 7 unknown #
point $-1 47.564928128910182 22.507659539084781 3.8512471710483869 #
point $-1 47.564928128910182 -22.507659539084781 3.8512471710483869 #
plane-surface $-1 0 -22.507659539084781 0 0 1 0 0 0 1 forward_v I I I I #
coedge $-1 $266 $265 $258 $327 forward $156 $-1 #
coedge $-1 $258 $158 $160 $262 reversed $86 $-1 #
coedge $-1 $158 $257 $256 $327 reversed $86 $-1 #
coedge $-1 $166 $161 $158 $260 forward $167 $-1 #
edge $-1 $263 -32.651809381070436 $328 -26.263252915495563 $259 $329 forward 7 unknown #
coedge $-1 $160 $159 $266 $330 reversed $53 $-1 #
edge $-1 $331 -9.1966881307456951 $263 -5.0235306441864656e-015 $257 $332 forward 7 unknown #
vertex $-1 $162 $333 #
straight-curve $-1 -0.65112975846713539 -22.507659539084781 3.1270722949140781 1 0 0 I I #
coedge $-1 $256 $163 $166 $270 forward $156 $-1 #
coedge $-1 $163 $256 $261 $330 forward $156 $-1 #
vertex $-1 $164 $334 #
straight-curve $-1 -5.4170991939439865 -44.295205622733882 9.5156287604889513 0 -1 0 I I #
straight-curve $-1 -5.4170991939439865 -22.507659539084784 3.1270722949140719 0 0.71933979245794832 0.69465837861970381 I I #
edge $-1 $168 -5.4170991939439865 $328 2.812580160075445 $166 $335 forward 7 unknown #
point $-1 -5.4170991939439865 -22.507659539084781 9.5156287604889513 #
point $-1 -5.4170991939439865 -22.507659539084781 3.1270722949140755 #
edge $-1 $336 1 $336 0 $171 $-1 forward 7 unknown #
vertex $-1 $172 $337 #
ellipse-curve $-1 -1.3022595169342708 -17.041097955292422 4.0858583842036946 0 -0.69465837861970381 0.71933979245794832 1 0 0 1 I I #
point $-1 -0.30225951693427078 -19.19988767344924 6.3213505277015098 #
plane-surface $-1 47.564928128910182 0 0 -1 0 0 0 0 1 forward_v I I I I #
coedge $-1 $180 $178 $182 $282 reversed $101 $-1 #
edge $-1 $193 -9.5156287604889513 $284 9.5156287604889513 $192 $338 forward 7 unknown #
vertex $-1 $282 $339 #
straight-curve $-1 -47.564928128910182 -22.507659539084781 0 0 0 -1 I I #
edge $-1 $280 -22.507659539084781 $284 22.507659539084781 $278 $340 forward 7 unknown #
straight-curve $-1 0 -22.507659539084781 -9.5156287604889513 -1 0 0 I I #
vertex $-1 $185 $341 #
straight-curve $-1 0 22.507659539084781 -9.5156287604889513 1 0 0 I I #
point $-1 47.564928128910182 22.507659539084781 -9.5156287604889513 #
point $-1 47.564928128910182 -22.507659539084781 -9.5156287604889513 #
straight-curve $-1 -47.564928128910182 0 9.5156287604889513 0 -1 0 I I #
point $-1 -47.564928128910182 22.507659539084781 9.5156287604889513 #
point $-1 -47.564928128910182 -22.507659539084781 9.5156287604889513 #
straight-curve $-1 47.564928128910182 -22.507659539084781 0 0 0 -1 I I #
straight-curve $-1 47.564928128910182 22.507659539084781 0 0 0 -1 I I #
plane-surface $-1 0 22.507659539084781 0 0 -1 0 0 0 -1 forward_v I I I I #
coedge $-1 $304 $303 $208 $296 forward $203 $-1 #
straight-curve $-1 -39.014714458340038 -22.507659539084781 1.0134248098959739 0 0 1 I I #
edge $-1 $299 -22.507659539084781 $297 22.507659539084781 $294 $342 forward 7 unknown #
vertex $-1 $209 $343 #
straight-curve $-1 -21.644910646812555 -22.507659539084781 0.2024520685355089 1 0 0 I I #
vertex $-1 $211 $344 #
straight-curve $-1 -21.644910646812555 22.507659539084781 0.2024520685355089 -1 0 0 I I #
point $-1 -39.014714458340038 22.507659539084781 0.2024520685355089 #
point $-1 -39.014714458340038 -22.507659539084781 0.2024520685355089 #
coedge $-1 $294 $215 $218 $306 forward $203 $-1 #
coedge $-1 $215 $294 $222 $308 reversed $203 $-1 #
straight-curve $-1 -47.564928128910182 0 3.8512471710483869 0 1 0 I I #
edge $-1 $220 -3.8512471710483869 $299 -0.2024520685355089 $218 $345 forward 7 unknown #
point $-1 -47.564928128910182 22.507659539084781 3.8512471710483869 #
edge $-1 $223 -3.8512471710483869 $297 -0.2024520685355089 $304 $346 forward 7 unknown #
point $-1 -47.564928128910182 -22.507659539084781 3.8512471710483869 #
straight-curve $-1 -39.014714458340038 22.507659539084781 1.0134248098959739 0 0 -1 I I #
plane-surface $-1 47.564928128910182 0 0 -1 0 0 0 0 1 forward_v I I I I #
coedge $-1 $232 $231 $247 $323 reversed $78 $-1 #
edge $-1 $316 -22.507659539084781 $314 22.507659539084781 $231 $347 forward 7 unknown #
vertex $-1 $239 $348 #
straight-curve $-1 39.014714458340038 22.507659539084781 1.0134248098959739 0 0 1 I I #
vertex $-1 $237 $349 #
straight-curve $-1 21.644910646812555 -22.507659539084781 0.2024520685355089 1 0 0 I I #
straight-curve $-1 21.644910646812555 22.507659539084781 0.2024520685355089 -1 0 0 I I #
point $-1 47.564928128910182 -22.507659539084781 0.2024520685355089 #
point $-1 47.564928128910182 22.507659539084781 0.2024520685355089 #
straight-curve $-1 39.014714458340038 0 3.8512471710483869 0 -1 0 I I #
point $-1 39.014714458340038 22.507659539084781 3.8512471710483869 #
edge $-1 $249 -2.8378223611524129 $316 0.81097274136046504 $247 $350 forward 7 unknown #
point $-1 39.014714458340038 -22.507659539084781 3.8512471710483869 #
straight-curve $-1 47.564928128910182 -22.507659539084781 0 0 0 -1 I I #
straight-curve $-1 47.564928128910182 22.507659539084781 0 0 0 -1 I I #
edge $-1 $328 21.787546083649101 $331 28.403089814920182 $256 $351 forward 7 unknown #
vertex $-1 $327 $352 #
straight-curve $-1 2.812580160075445 -22.507659539084777 35.778881675984515 0 0 1 I I #
edge $-1 $331 -3.4637099185425804 $267 4.7659694354768511 $266 $353 forward 7 unknown #
vertex $-1 $330 $354 #
straight-curve $-1 2.812580160075445 -22.507659539084784 3.1270722949140719 0 -0.71933979245794832 -0.69465837861970381 I I #
point $-1 2.812580160075445 -22.507659539084781 3.1270722949140755 #
point $-1 -5.4170991939439865 -15.892115807813699 9.5156287604889513 #
straight-curve $-1 0 -22.507659539084781 9.5156287604889513 1 0 0 I I #
vertex $-1 $273 $355 #
point $-1 -0.30225951693427078 -17.041097955292422 4.0858583842036946 #
straight-curve $-1 -47.564928128910182 22.507659539084781 0 0 0 -1 I I #
point $-1 -47.564928128910182 -22.507659539084781 -9.5156287604889513 #
straight-curve $-1 -47.564928128910182 0 -9.5156287604889513 0 1 0 I I #
point $-1 -47.564928128910182 22.507659539084781 -9.5156287604889513 #
straight-curve $-1 -47.564928128910182 0 0.2024520685355089 0 -1 0 I I #
point $-1 -47.564928128910182 -22.507659539084781 0.2024520685355089 #
point $-1 -47.564928128910182 22.507659539084781 0.2024520685355089 #
straight-curve $-1 -47.564928128910182 22.507659539084781 0 0 0 -1 I I #
straight-curve $-1 -47.564928128910182 -22.507659539084781 0 0 0 -1 I I #
straight-curve $-1 39.014714458340038 0 0.2024520685355089 0 1 0 I I #
point $-1 39.014714458340038 22.507659539084781 0.2024520685355089 #
point $-1 39.014714458340038 -22.507659539084781 0.2024520685355089 #
straight-curve $-1 39.014714458340038 -22.507659539084781 1.0134248098959739 0 0 -1 I I #
straight-curve $-1 2.812580160075445 -44.295205622733882 9.5156287604889513 0 1 0 I I #
point $-1 2.812580160075445 -22.507659539084781 9.5156287604889513 #
straight-curve $-1 -0.65112975846713539 -15.892115807813699 9.5156287604889513 -1 0 0 I I #
point $-1 2.812580160075445 -15.892115807813699 9.5156287604889513 #
point $-1 -1.3022595169342708 -16.346439576672715 3.3665185917457467 #
End-of-ACIS-data 