500 0 14 0           
7 Unknown 11 ACIS 5.0 NT 24 Fri Mar 26 15:56:08 1999 
-1 9.9999999999999995e-007 1e-010 
body $-1 $14 $-1 $15 #
body $-1 $16 $-1 $17 #
body $-1 $18 $-1 $19 #
body $-1 $20 $-1 $21 #
body $-1 $22 $-1 $23 #
body $-1 $24 $-1 $25 #
body $-1 $26 $-1 $27 #
body $-1 $28 $-1 $29 #
body $-1 $30 $-1 $31 #
body $-1 $32 $-1 $33 #
body $-1 $34 $-1 $35 #
body $-1 $36 $-1 $37 #
body $-1 $38 $-1 $39 #
body $-1 $40 $-1 $41 #
lump $-1 $-1 $42 $0 #
transform $-1 1 0 0 0 1 0 0 0 1 62.322458571123391 34.560653407518807 9.4466700088229452 1 rotate no_reflect no_shear #
lump $-1 $-1 $43 $1 #
transform $-1 1 0 0 0 1 0 0 0 1 62.322458571123391 34.560653407518807 9.4466700088229452 1 rotate no_reflect no_shear #
lump $-1 $-1 $44 $2 #
transform $-1 1 0 0 0 1 0 0 0 1 62.322458571123391 34.560653407518807 9.4466700088229452 1 rotate no_reflect no_shear #
lump $-1 $-1 $45 $3 #
transform $-1 1 0 0 0 1 0 0 0 1 62.322458571123391 34.560653407518807 9.4466700088229452 1 rotate no_reflect no_shear #
lump $-1 $-1 $46 $4 #
transform $-1 1 0 0 0 1 0 0 0 1 62.322458571123391 34.560653407518807 9.4466700088229452 1 rotate no_reflect no_shear #
lump $-1 $-1 $47 $5 #
transform $-1 1 0 0 0 1 0 0 0 1 62.322458571123391 34.560653407518807 9.4466700088229452 1 rotate no_reflect no_shear #
lump $-1 $-1 $48 $6 #
transform $-1 1 0 0 0 1 0 0 0 1 62.322458571123391 34.560653407518807 9.4466700088229452 1 rotate no_reflect no_shear #
lump $-1 $-1 $49 $7 #
transform $-1 1 0 0 0 1 0 0 0 1 62.322458571123391 34.560653407518807 9.4466700088229452 1 rotate no_reflect no_shear #
lump $-1 $-1 $50 $8 #
transform $-1 1 0 0 0 1 0 0 0 1 62.322458571123391 34.560653407518807 9.4466700088229452 1 rotate no_reflect no_shear #
lump $-1 $-1 $51 $9 #
transform $-1 1 0 0 0 1 0 0 0 1 62.322458571123391 34.560653407518807 9.4466700088229452 1 rotate no_reflect no_shear #
lump $-1 $-1 $52 $10 #
transform $-1 1 0 0 0 1 0 0 0 1 62.322458571123391 34.560653407518807 9.4466700088229452 1 rotate no_reflect no_shear #
lump $-1 $-1 $53 $11 #
transform $-1 1 0 0 0 1 0 0 0 1 62.322458571123391 34.560653407518807 9.4466700088229452 1 rotate no_reflect no_shear #
lump $-1 $-1 $54 $12 #
transform $-1 1 0 0 0 1 0 0 0 1 62.322458571123391 34.560653407518807 9.4466700088229452 1 rotate no_reflect no_shear #
lump $-1 $-1 $55 $13 #
transform $-1 1 0 0 0 1 0 0 0 1 62.322458571123391 34.560653407518807 9.4466700088229452 1 rotate no_reflect no_shear #
shell $-1 $-1 $-1 $56 $-1 $14 #
shell $-1 $-1 $-1 $57 $-1 $16 #
shell $-1 $-1 $-1 $58 $-1 $18 #
shell $-1 $-1 $-1 $59 $-1 $20 #
shell $-1 $-1 $-1 $60 $-1 $22 #
shell $-1 $-1 $-1 $61 $-1 $24 #
shell $-1 $-1 $-1 $62 $-1 $26 #
shell $-1 $-1 $-1 $63 $-1 $28 #
shell $-1 $-1 $-1 $64 $-1 $30 #
shell $-1 $-1 $-1 $65 $-1 $32 #
shell $-1 $-1 $-1 $66 $-1 $34 #
shell $-1 $-1 $-1 $67 $-1 $36 #
shell $-1 $-1 $-1 $68 $-1 $38 #
shell $-1 $-1 $-1 $69 $-1 $40 #
face $-1 $70 $71 $42 $-1 $72 forward single #
face $-1 $73 $74 $43 $-1 $75 reversed single #
face $-1 $76 $77 $44 $-1 $78 reversed single #
face $-1 $79 $80 $45 $-1 $81 forward single #
face $-1 $82 $83 $46 $-1 $84 forward single #
face $-1 $85 $86 $47 $-1 $87 reversed single #
face $-1 $88 $89 $48 $-1 $90 forward single #
face $-1 $91 $92 $49 $-1 $93 forward single #
face $-1 $94 $95 $50 $-1 $96 reversed single #
face $-1 $97 $98 $51 $-1 $99 forward single #
face $-1 $100 $101 $52 $-1 $102 forward single #
face $-1 $103 $104 $53 $-1 $105 reversed single #
face $-1 $106 $107 $54 $-1 $108 forward single #
face $-1 $109 $110 $55 $-1 $111 forward single #
face $-1 $112 $113 $42 $-1 $114 reversed single #
loop $-1 $-1 $115 $56 #
plane-surface $-1 0 0 9.4466700088229452 0 0 1 1 0 0 forward_v I I I I #
face $-1 $116 $117 $43 $-1 $118 reversed single #
loop $-1 $-1 $119 $57 #
plane-surface $-1 -48.931291383409622 -28.956714164841713 0 1 0 0 0 0 -1 forward_v I I I I #
face $-1 $120 $121 $44 $-1 $122 reversed single #
loop $-1 $-1 $123 $58 #
plane-surface $-1 31.712708834112249 0.47606593860681379 179.6262984481601 0 -1 0 -0.57357644374324357 0 -0.81915203911291934 forward_v I I I I #
face $-1 $124 $125 $45 $-1 $126 forward single #
loop $-1 $127 $128 $59 #
cone-surface $-1 59.081298102101513 -9.4774974602526783 6.5939281294728778 -0.57357644374324357 0 -0.81915203911291934 0.81915203911291934 0 -0.57357644374324357 1 I I 0 1 1 forward I I I I #
face $-1 $129 $130 $46 $-1 $131 forward single #
loop $-1 $132 $133 $60 #
cone-surface $-1 59.081298102101513 -3.5053594209369834 6.5939281294728778 -0.57357644374324357 0 -0.81915203911291934 0.81915203911291934 0 -0.57357644374324357 1 I I 0 1 1 forward I I I I #
face $-1 $134 $135 $47 $-1 $136 reversed single #
loop $-1 $-1 $137 $61 #
plane-surface $-1 31.712708834112249 29.432780103448529 179.6262984481601 0 -1 0 -0.57357644374324357 0 -0.81915203911291934 forward_v I I I I #
face $-1 $138 $139 $48 $-1 $140 forward single #
loop $-1 $141 $142 $62 #
cone-surface $-1 59.081298102101513 19.479216704589035 6.5939281294728778 -0.57357644374324357 0 -0.81915203911291934 0.81915203911291934 0 -0.57357644374324357 1 I I 0 1 1 forward I I I I #
face $-1 $143 $144 $49 $-1 $145 forward single #
loop $-1 $146 $147 $63 #
cone-surface $-1 59.081298102101513 25.45135474390473 6.5939281294728778 -0.57357644374324357 0 -0.81915203911291934 0.81915203911291934 0 -0.57357644374324357 1 I I 0 1 1 forward I I I I #
face $-1 $148 $149 $50 $-1 $150 reversed single #
loop $-1 $-1 $151 $64 #
plane-surface $-1 -133.81584687624456 -13.458922819796475 108.13291014303891 0 1 0 -0.57357644374324357 0 0.81915203911291934 forward_v I I I I #
face $-1 $152 $153 $51 $-1 $154 forward single #
loop $-1 $155 $156 $65 #
cone-surface $-1 -59.081298102101499 -9.4774974602526783 6.5939281294728813 0.57357644374324357 0 -0.81915203911291934 0.81915203911291934 0 0.57357644374324357 1 I I 0 1 1 forward I I I I #
face $-1 $157 $158 $52 $-1 $159 forward single #
loop $-1 $160 $161 $66 #
cone-surface $-1 -59.081298102101499 -3.5053594209369834 6.5939281294728813 0.57357644374324357 0 -0.81915203911291934 0.81915203911291934 0 0.57357644374324357 1 I I 0 1 1 forward I I I I #
face $-1 $162 $163 $53 $-1 $164 reversed single #
loop $-1 $-1 $165 $67 #
plane-surface $-1 -133.81584687624456 15.497791345045238 108.13291014303891 0 1 0 -0.57357644374324357 0 0.81915203911291934 forward_v I I I I #
face $-1 $166 $167 $54 $-1 $168 forward single #
loop $-1 $169 $170 $68 #
cone-surface $-1 -59.081298102101499 19.479216704589035 6.5939281294728813 0.57357644374324357 0 -0.81915203911291934 0.81915203911291934 0 0.57357644374324357 1 I I 0 1 1 forward I I I I #
face $-1 $171 $172 $55 $-1 $173 forward single #
loop $-1 $174 $175 $69 #
cone-surface $-1 -59.081298102101499 25.45135474390473 6.5939281294728813 0.57357644374324357 0 -0.81915203911291934 0.81915203911291934 0 0.57357644374324357 1 I I 0 1 1 forward I I I I #
face $-1 $176 $177 $42 $-1 $178 reversed single #
loop $-1 $-1 $179 $70 #
plane-surface $-1 0 0 -9.4466700088229452 0 0 1 1 0 0 forward_v I I I I #
coedge $-1 $180 $181 $182 $183 forward $71 $-1 #
face $-1 $184 $185 $43 $-1 $186 reversed single #
loop $-1 $-1 $187 $73 #
plane-surface $-1 -46.180204968443562 -23.35277492216462 0 0 -1 0 0 0 -1 forward_v I I I I #
coedge $-1 $188 $189 $190 $191 forward $74 $-1 #
face $-1 $192 $193 $44 $-1 $194 reversed single #
loop $-1 $-1 $195 $76 #
plane-surface $-1 -39.780679471008924 -6.4914284405948308 77.523160406027756 0.57357644374324357 0 0.81915203911291934 0.81915203911291934 0 -0.57357644374324357 forward_v I I I I #
coedge $-1 $196 $197 $198 $199 reversed $77 $-1 #
face $-1 $-1 $200 $45 $-1 $201 forward single #
loop $-1 $202 $203 $79 #
cone-surface $-1 57.993267332561217 -9.4774974602526783 5.0400591845245408 -0.57357644374324357 0 -0.81915203911291934 0.40957601955645967 0 -0.28678822187162178 1 I I -0.70710678118654746 0.70710678118654746 0.5 forward I I I I #
loop $-1 $-1 $204 $59 #
coedge $-1 $128 $128 $205 $206 reversed $80 $-1 #
face $-1 $-1 $207 $46 $-1 $208 forward single #
loop $-1 $209 $210 $82 #
cone-surface $-1 57.993267332561217 -3.5053594209369834 5.0400591845245408 -0.57357644374324357 0 -0.81915203911291934 0.40957601955645967 0 -0.28678822187162178 1 I I -0.70710678118654746 0.70710678118654746 0.5 forward I I I I #
loop $-1 $-1 $211 $60 #
coedge $-1 $133 $133 $212 $213 reversed $83 $-1 #
face $-1 $214 $215 $47 $-1 $216 reversed single #
loop $-1 $-1 $217 $85 #
plane-surface $-1 -39.780679471008924 22.465285724246883 77.523160406027756 0.57357644374324357 0 0.81915203911291934 0.81915203911291934 0 -0.57357644374324357 forward_v I I I I #
coedge $-1 $218 $219 $220 $221 reversed $86 $-1 #
face $-1 $-1 $222 $48 $-1 $223 forward single #
loop $-1 $224 $225 $88 #
cone-surface $-1 57.993267332561217 19.479216704589035 5.0400591845245408 -0.57357644374324357 0 -0.81915203911291934 0.40957601955645967 0 -0.28678822187162178 1 I I -0.70710678118654746 0.70710678118654746 0.5 forward I I I I #
loop $-1 $-1 $226 $62 #
coedge $-1 $142 $142 $227 $228 reversed $89 $-1 #
face $-1 $-1 $229 $49 $-1 $230 forward single #
loop $-1 $231 $232 $91 #
cone-surface $-1 57.993267332561217 25.45135474390473 5.0400591845245408 -0.57357644374324357 0 -0.81915203911291934 0.40957601955645967 0 -0.28678822187162178 1 I I -0.70710678118654746 0.70710678118654746 0.5 forward I I I I #
loop $-1 $-1 $233 $63 #
coedge $-1 $147 $147 $234 $235 reversed $92 $-1 #
face $-1 $236 $237 $50 $-1 $238 reversed single #
loop $-1 $-1 $239 $94 #
plane-surface $-1 -62.322458571123391 -6.4914284405948308 6.0297721009065697 -0.57357644374324357 0 0.81915203911291934 0.81915203911291934 0 0.57357644374324357 forward_v I I I I #
coedge $-1 $240 $241 $242 $243 reversed $95 $-1 #
face $-1 $-1 $244 $51 $-1 $245 forward single #
loop $-1 $246 $247 $97 #
cone-surface $-1 -57.993267332561203 -9.4774974602526783 5.0400591845245444 0.57357644374324357 0 -0.81915203911291934 0.40957601955645967 0 0.28678822187162178 1 I I -0.70710678118654746 0.70710678118654746 0.5 forward I I I I #
loop $-1 $-1 $248 $65 #
coedge $-1 $156 $156 $249 $250 reversed $98 $-1 #
face $-1 $-1 $251 $52 $-1 $252 forward single #
loop $-1 $253 $254 $100 #
cone-surface $-1 -57.993267332561203 -3.5053594209369834 5.0400591845245444 0.57357644374324357 0 -0.81915203911291934 0.40957601955645967 0 0.28678822187162178 1 I I -0.70710678118654746 0.70710678118654746 0.5 forward I I I I #
loop $-1 $-1 $255 $66 #
coedge $-1 $161 $161 $256 $257 reversed $101 $-1 #
face $-1 $258 $259 $53 $-1 $260 reversed single #
loop $-1 $-1 $261 $103 #
plane-surface $-1 -62.322458571123391 22.465285724246883 6.0297721009065697 -0.57357644374324357 0 0.81915203911291934 0.81915203911291934 0 0.57357644374324357 forward_v I I I I #
coedge $-1 $262 $263 $264 $265 reversed $104 $-1 #
face $-1 $-1 $266 $54 $-1 $267 forward single #
loop $-1 $268 $269 $106 #
cone-surface $-1 -57.993267332561203 19.479216704589035 5.0400591845245444 0.57357644374324357 0 -0.81915203911291934 0.40957601955645967 0 0.28678822187162178 1 I I -0.70710678118654746 0.70710678118654746 0.5 forward I I I I #
loop $-1 $-1 $270 $68 #
coedge $-1 $170 $170 $271 $272 reversed $107 $-1 #
face $-1 $-1 $273 $55 $-1 $274 forward single #
loop $-1 $275 $276 $109 #
cone-surface $-1 -57.993267332561203 25.45135474390473 5.0400591845245444 0.57357644374324357 0 -0.81915203911291934 0.40957601955645967 0 0.28678822187162178 1 I I -0.70710678118654746 0.70710678118654746 0.5 forward I I I I #
loop $-1 $-1 $277 $69 #
coedge $-1 $175 $175 $278 $279 reversed $110 $-1 #
face $-1 $280 $281 $42 $-1 $282 reversed single #
loop $-1 $-1 $283 $112 #
plane-surface $-1 0 -34.560653407518807 0 0 1 0 0 0 1 forward_v I I I I #
coedge $-1 $284 $285 $286 $287 forward $113 $-1 #
coedge $-1 $288 $115 $289 $290 forward $71 $-1 #
coedge $-1 $115 $288 $291 $292 forward $71 $-1 #
coedge $-1 $293 $294 $115 $183 reversed $295 $-1 #
edge $-1 $296 -34.560653407518807 $297 34.560653407518807 $182 $298 forward 7 unknown #
face $-1 $299 $300 $43 $-1 $301 forward single #
loop $-1 $-1 $302 $116 #
plane-surface $-1 -43.429118553477501 -28.956714164841713 0 -1 0 0 0 0 1 forward_v I I I I #
coedge $-1 $303 $304 $305 $306 forward $117 $-1 #
coedge $-1 $307 $119 $308 $309 reversed $74 $-1 #
coedge $-1 $119 $307 $310 $311 reversed $74 $-1 #
coedge $-1 $304 $303 $119 $191 reversed $117 $-1 #
edge $-1 $312 -9.4466700088229452 $313 9.4466700088229452 $190 $314 forward 7 unknown #
face $-1 $315 $316 $44 $-1 $317 reversed single #
loop $-1 $-1 $318 $120 #
plane-surface $-1 31.712708834112249 -13.458922819796475 179.6262984481601 0 1 0 0.57357644374324357 0 0.81915203911291934 forward_v I I I I #
coedge $-1 $319 $320 $321 $322 reversed $121 $-1 #
coedge $-1 $197 $123 $323 $324 reversed $77 $-1 #
coedge $-1 $123 $196 $319 $325 reversed $77 $-1 #
coedge $-1 $321 $326 $123 $199 forward $327 $-1 #
edge $-1 $328 -46.466104154067267 $329 -41.586268311360868 $198 $330 forward 7 unknown #
loop $-1 $-1 $205 $124 #
plane-surface $-1 -39.780679471008924 -6.4914284405948308 77.523160406027756 0.57357644374324357 0 0.81915203911291934 0.81915203911291934 0 -0.57357644374324357 forward_v I I I I #
loop $-1 $-1 $331 $79 #
coedge $-1 $203 $203 $204 $332 reversed $125 $-1 #
coedge $-1 $204 $204 $203 $332 forward $127 $-1 #
coedge $-1 $205 $205 $128 $206 forward $200 $-1 #
edge $-1 $333 0 $333 6.2831853071796004 $205 $334 forward 7 unknown #
loop $-1 $-1 $212 $129 #
plane-surface $-1 -39.780679471008924 -6.4914284405948308 77.523160406027756 0.57357644374324357 0 0.81915203911291934 0.81915203911291934 0 -0.57357644374324357 forward_v I I I I #
loop $-1 $-1 $335 $82 #
coedge $-1 $210 $210 $211 $336 reversed $130 $-1 #
coedge $-1 $211 $211 $210 $336 forward $132 $-1 #
coedge $-1 $212 $212 $133 $213 forward $207 $-1 #
edge $-1 $337 0 $337 6.2831853071796004 $212 $338 forward 7 unknown #
face $-1 $339 $340 $47 $-1 $341 reversed single #
loop $-1 $-1 $342 $134 #
plane-surface $-1 31.712708834112249 15.497791345045238 179.6262984481601 0 1 0 0.57357644374324357 0 0.81915203911291934 forward_v I I I I #
coedge $-1 $343 $344 $345 $346 reversed $135 $-1 #
coedge $-1 $219 $137 $347 $348 reversed $86 $-1 #
coedge $-1 $137 $218 $343 $349 reversed $86 $-1 #
coedge $-1 $345 $350 $137 $221 forward $351 $-1 #
edge $-1 $352 -46.466104154067267 $353 -41.586268311360868 $220 $354 forward 7 unknown #
loop $-1 $-1 $227 $138 #
plane-surface $-1 -39.780679471008924 22.465285724246883 77.523160406027756 0.57357644374324357 0 0.81915203911291934 0.81915203911291934 0 -0.57357644374324357 forward_v I I I I #
loop $-1 $-1 $355 $88 #
coedge $-1 $225 $225 $226 $356 reversed $139 $-1 #
coedge $-1 $226 $226 $225 $356 forward $141 $-1 #
coedge $-1 $227 $227 $142 $228 forward $222 $-1 #
edge $-1 $357 0 $357 6.2831853071796004 $227 $358 forward 7 unknown #
loop $-1 $-1 $234 $143 #
plane-surface $-1 -39.780679471008924 22.465285724246883 77.523160406027756 0.57357644374324357 0 0.81915203911291934 0.81915203911291934 0 -0.57357644374324357 forward_v I I I I #
loop $-1 $-1 $359 $91 #
coedge $-1 $232 $232 $233 $360 reversed $144 $-1 #
coedge $-1 $233 $233 $232 $360 forward $146 $-1 #
coedge $-1 $234 $234 $147 $235 forward $229 $-1 #
edge $-1 $361 0 $361 6.2831853071796004 $234 $362 forward 7 unknown #
face $-1 $363 $364 $50 $-1 $365 reversed single #
loop $-1 $-1 $366 $148 #
plane-surface $-1 -133.81584687624456 0.47606593860681379 108.13291014303891 0 -1 0 0.57357644374324357 0 -0.81915203911291934 forward_v I I I I #
coedge $-1 $367 $368 $369 $370 reversed $149 $-1 #
coedge $-1 $241 $151 $371 $372 reversed $95 $-1 #
coedge $-1 $151 $240 $367 $373 reversed $95 $-1 #
coedge $-1 $369 $374 $151 $243 forward $375 $-1 #
edge $-1 $376 4.5854648669988904 $377 9.4653007097053177 $242 $378 forward 7 unknown #
loop $-1 $-1 $249 $152 #
plane-surface $-1 -62.322458571123391 -6.4914284405948308 6.0297721009065697 -0.57357644374324357 0 0.81915203911291934 0.81915203911291934 0 0.57357644374324357 forward_v I I I I #
loop $-1 $-1 $379 $97 #
coedge $-1 $247 $247 $248 $380 reversed $153 $-1 #
coedge $-1 $248 $248 $247 $380 forward $155 $-1 #
coedge $-1 $249 $249 $156 $250 forward $244 $-1 #
edge $-1 $381 0 $381 6.2831853071796004 $249 $382 forward 7 unknown #
loop $-1 $-1 $256 $157 #
plane-surface $-1 -62.322458571123391 -6.4914284405948308 6.0297721009065697 -0.57357644374324357 0 0.81915203911291934 0.81915203911291934 0 0.57357644374324357 forward_v I I I I #
loop $-1 $-1 $383 $100 #
coedge $-1 $254 $254 $255 $384 reversed $158 $-1 #
coedge $-1 $255 $255 $254 $384 forward $160 $-1 #
coedge $-1 $256 $256 $161 $257 forward $251 $-1 #
edge $-1 $385 0 $385 6.2831853071796004 $256 $386 forward 7 unknown #
face $-1 $387 $388 $53 $-1 $389 forward single #
loop $-1 $-1 $390 $162 #
plane-surface $-1 -133.81584687624456 29.432780103448529 108.13291014303891 0 -1 0 0.57357644374324357 0 -0.81915203911291934 forward_v I I I I #
coedge $-1 $391 $392 $393 $394 reversed $163 $-1 #
coedge $-1 $263 $165 $395 $396 reversed $104 $-1 #
coedge $-1 $165 $262 $391 $397 reversed $104 $-1 #
coedge $-1 $393 $398 $165 $265 forward $388 $-1 #
edge $-1 $399 4.5854648669988904 $400 9.4653007097053177 $264 $401 forward 7 unknown #
loop $-1 $-1 $271 $166 #
plane-surface $-1 -62.322458571123391 22.465285724246883 6.0297721009065697 -0.57357644374324357 0 0.81915203911291934 0.81915203911291934 0 0.57357644374324357 forward_v I I I I #
loop $-1 $-1 $402 $106 #
coedge $-1 $269 $269 $270 $403 reversed $167 $-1 #
coedge $-1 $270 $270 $269 $403 forward $169 $-1 #
coedge $-1 $271 $271 $170 $272 forward $266 $-1 #
edge $-1 $404 0 $404 6.2831853071796004 $271 $405 forward 7 unknown #
loop $-1 $-1 $278 $171 #
plane-surface $-1 -62.322458571123391 22.465285724246883 6.0297721009065697 -0.57357644374324357 0 0.81915203911291934 0.81915203911291934 0 0.57357644374324357 forward_v I I I I #
loop $-1 $-1 $406 $109 #
coedge $-1 $276 $276 $277 $407 reversed $172 $-1 #
coedge $-1 $277 $277 $276 $407 forward $174 $-1 #
coedge $-1 $278 $278 $175 $279 forward $273 $-1 #
edge $-1 $408 0 $408 6.2831853071796004 $278 $409 forward 7 unknown #
face $-1 $410 $411 $42 $-1 $412 reversed single #
loop $-1 $-1 $413 $176 #
plane-surface $-1 -62.322458571123391 0 0 1 0 0 0 0 -1 forward_v I I I I #
coedge $-1 $414 $291 $415 $416 forward $177 $-1 #
coedge $-1 $417 $179 $414 $418 forward $113 $-1 #
coedge $-1 $179 $417 $419 $420 forward $113 $-1 #
coedge $-1 $294 $293 $179 $287 reversed $295 $-1 #
edge $-1 $421 -34.560653407518807 $422 34.560653407518807 $286 $423 forward 7 unknown #
coedge $-1 $181 $180 $424 $425 forward $71 $-1 #
coedge $-1 $426 $427 $180 $290 reversed $411 $-1 #
edge $-1 $297 -62.322458571123391 $428 62.322458571123391 $289 $429 forward 7 unknown #
coedge $-1 $283 $430 $181 $292 reversed $177 $-1 #
edge $-1 $431 -62.322458571123391 $296 62.322458571123391 $291 $432 forward 7 unknown #
coedge $-1 $286 $182 $430 $433 forward $295 $-1 #
coedge $-1 $182 $286 $426 $434 reversed $295 $-1 #
loop $-1 $-1 $293 $410 #
vertex $-1 $183 $435 #
vertex $-1 $183 $436 #
straight-curve $-1 62.322458571123391 0 9.4466700088229452 0 1 0 I I #
face $-1 $437 $438 $43 $-1 $439 reversed single #
loop $-1 $-1 $440 $184 #
plane-surface $-1 0 0 9.4466700088229452 0 0 1 1 0 0 forward_v I I I I #
coedge $-1 $441 $442 $443 $444 reversed $185 $-1 #
coedge $-1 $190 $187 $445 $446 reversed $117 $-1 #
coedge $-1 $187 $190 $447 $448 reversed $117 $-1 #
coedge $-1 $442 $441 $187 $306 reversed $185 $-1 #
edge $-1 $449 -9.4466700088229452 $450 9.4466700088229452 $305 $451 forward 7 unknown #
coedge $-1 $189 $188 $452 $453 reversed $74 $-1 #
coedge $-1 $445 $454 $188 $309 forward $438 $-1 #
edge $-1 $455 -20.08229632509795 $313 -8.8744178397437636 $308 $456 forward 7 unknown #
coedge $-1 $457 $447 $189 $311 forward $300 $-1 #
edge $-1 $312 8.8744178397437636 $458 20.08229632509795 $310 $459 forward 7 unknown #
vertex $-1 $311 $460 #
vertex $-1 $309 $461 #
straight-curve $-1 -48.931291383409622 -23.35277492216462 0 0 0 -1 I I #
face $-1 $-1 $327 $44 $-1 $462 forward single #
loop $-1 $-1 $463 $192 #
plane-surface $-1 62.322458571123391 0 0 -1 0 0 0 0 1 forward_v I I I I #
coedge $-1 $464 $465 $466 $467 reversed $193 $-1 #
coedge $-1 $468 $195 $197 $325 forward $121 $-1 #
coedge $-1 $195 $468 $464 $469 forward $121 $-1 #
coedge $-1 $466 $198 $195 $322 forward $327 $-1 #
edge $-1 $329 -3.7217801589042292 $470 10.21320859949906 $321 $471 forward 7 unknown #
coedge $-1 $472 $473 $196 $324 forward $316 $-1 #
edge $-1 $474 -83.783377123173452 $328 -80.366479215257101 $323 $475 forward 7 unknown #
edge $-1 $329 118.68773751050111 $474 124.64491714224675 $197 $476 forward 7 unknown #
coedge $-1 $198 $466 $472 $477 forward $327 $-1 #
loop $-1 $-1 $466 $315 #
vertex $-1 $324 $478 #
vertex $-1 $199 $479 #
straight-curve $-1 15.856354417056124 0.47606593860681379 9.4466700088229487 -1 0 0 I I #
coedge $-1 $331 $331 $-1 $480 reversed $202 $-1 #
edge $-1 $481 0 $481 6.2831853071796004 $203 $482 forward 7 unknown #
vertex $-1 $206 $483 #
ellipse-curve $-1 59.882540649770206 -9.4774974602526783 7.7382210548647752 0.57357644374324357 0 0.81915203911291934 0.81915203911291934 0 -0.57357644374324357 1 I I #
coedge $-1 $335 $335 $-1 $484 reversed $209 $-1 #
edge $-1 $485 0 $485 6.2831853071796004 $210 $486 forward 7 unknown #
vertex $-1 $213 $487 #
ellipse-curve $-1 59.882540649770206 -3.5053594209369834 7.7382210548647752 0.57357644374324357 0 0.81915203911291934 0.81915203911291934 0 -0.57357644374324357 1 I I #
face $-1 $-1 $351 $47 $-1 $488 forward single #
loop $-1 $-1 $489 $214 #
plane-surface $-1 62.322458571123391 0 0 -1 0 0 0 0 1 forward_v I I I I #
coedge $-1 $490 $491 $492 $493 reversed $215 $-1 #
coedge $-1 $494 $217 $219 $349 forward $135 $-1 #
coedge $-1 $217 $494 $490 $495 forward $135 $-1 #
coedge $-1 $492 $220 $217 $346 forward $351 $-1 #
edge $-1 $353 -18.200137241325088 $496 -4.2651484829217967 $345 $497 forward 7 unknown #
coedge $-1 $498 $499 $218 $348 forward $340 $-1 #
edge $-1 $500 -83.783377123173452 $352 -80.366479215257101 $347 $501 forward 7 unknown #
edge $-1 $353 118.68773751050111 $500 124.64491714224675 $219 $502 forward 7 unknown #
coedge $-1 $220 $492 $498 $503 forward $351 $-1 #
loop $-1 $-1 $492 $339 #
vertex $-1 $348 $504 #
vertex $-1 $221 $505 #
straight-curve $-1 15.856354417056124 29.432780103448529 9.4466700088229487 -1 0 0 I I #
coedge $-1 $355 $355 $-1 $506 reversed $224 $-1 #
edge $-1 $507 0 $507 6.2831853071796004 $225 $508 forward 7 unknown #
vertex $-1 $228 $509 #
ellipse-curve $-1 59.882540649770206 19.479216704589035 7.7382210548647752 0.57357644374324357 0 0.81915203911291934 0.81915203911291934 0 -0.57357644374324357 1 I I #
coedge $-1 $359 $359 $-1 $510 reversed $231 $-1 #
edge $-1 $511 0 $511 6.2831853071796004 $232 $512 forward 7 unknown #
vertex $-1 $235 $513 #
ellipse-curve $-1 59.882540649770206 25.45135474390473 7.7382210548647752 0.57357644374324357 0 0.81915203911291934 0.81915203911291934 0 -0.57357644374324357 1 I I #
face $-1 $-1 $375 $50 $-1 $514 forward single #
loop $-1 $-1 $515 $236 #
plane-surface $-1 -62.322458571123391 0 0 1 0 0 0 0 -1 forward_v I I I I #
coedge $-1 $516 $517 $518 $519 reversed $237 $-1 #
coedge $-1 $520 $239 $241 $373 forward $149 $-1 #
coedge $-1 $239 $520 $516 $521 forward $149 $-1 #
coedge $-1 $518 $242 $239 $370 forward $375 $-1 #
edge $-1 $377 -10.21320859949906 $522 3.7217801589042292 $369 $523 forward 7 unknown #
coedge $-1 $524 $525 $240 $372 forward $364 $-1 #
edge $-1 $526 -48.036682970612887 $376 -44.619785062696508 $371 $527 forward 7 unknown #
edge $-1 $377 -5.9571796317456851 $526 0 $241 $528 forward 7 unknown #
coedge $-1 $242 $518 $524 $529 forward $375 $-1 #
loop $-1 $-1 $518 $363 #
vertex $-1 $372 $530 #
vertex $-1 $243 $531 #
straight-curve $-1 -66.907923438122282 -13.458922819796475 9.4466700088229416 1 0 0 I I #
coedge $-1 $379 $379 $-1 $532 reversed $246 $-1 #
edge $-1 $533 0 $533 6.2831853071796004 $247 $534 forward 7 unknown #
vertex $-1 $250 $535 #
ellipse-curve $-1 -59.882540649770178 -9.4774974602526783 7.7382210548647592 -0.57357644374324357 0 0.81915203911291934 0.81915203911291934 0 0.57357644374324357 1 I I #
coedge $-1 $383 $383 $-1 $536 reversed $253 $-1 #
edge $-1 $537 0 $537 6.2831853071796004 $254 $538 forward 7 unknown #
vertex $-1 $257 $539 #
ellipse-curve $-1 -59.882540649770178 -3.5053594209369834 7.7382210548647592 -0.57357644374324357 0 0.81915203911291934 0.81915203911291934 0 0.57357644374324357 1 I I #
face $-1 $-1 $540 $53 $-1 $541 reversed single #
loop $-1 $-1 $264 $258 #
plane-surface $-1 0 0 9.4466700088229452 0 0 1 1 0 0 forward_v I I I I #
coedge $-1 $542 $543 $544 $545 reversed $259 $-1 #
coedge $-1 $546 $261 $263 $397 forward $163 $-1 #
coedge $-1 $261 $546 $542 $547 forward $163 $-1 #
coedge $-1 $544 $264 $261 $394 forward $388 $-1 #
edge $-1 $400 4.2651484829217967 $548 18.200137241325088 $393 $549 forward 7 unknown #
coedge $-1 $550 $551 $262 $396 forward $540 $-1 #
edge $-1 $552 -48.036682970612887 $399 -44.619785062696508 $395 $553 forward 7 unknown #
edge $-1 $400 -5.9571796317456851 $552 0 $263 $554 forward 7 unknown #
coedge $-1 $264 $544 $550 $555 forward $388 $-1 #
vertex $-1 $396 $556 #
vertex $-1 $265 $557 #
straight-curve $-1 -66.907923438122282 15.497791345045238 9.4466700088229416 1 0 0 I I #
coedge $-1 $402 $402 $-1 $558 reversed $268 $-1 #
edge $-1 $559 0 $559 6.2831853071796004 $269 $560 forward 7 unknown #
vertex $-1 $272 $561 #
ellipse-curve $-1 -59.882540649770178 19.479216704589035 7.7382210548647592 -0.57357644374324357 0 0.81915203911291934 0.81915203911291934 0 0.57357644374324357 1 I I #
coedge $-1 $406 $406 $-1 $562 reversed $275 $-1 #
edge $-1 $563 0 $563 6.2831853071796004 $276 $564 forward 7 unknown #
vertex $-1 $279 $565 #
ellipse-curve $-1 -59.882540649770178 25.45135474390473 7.7382210548647592 -0.57357644374324357 0 0.81915203911291934 0.81915203911291934 0 0.57357644374324357 1 I I #
face $-1 $-1 $295 $42 $-1 $566 reversed single #
loop $-1 $-1 $426 $280 #
plane-surface $-1 0 34.560653407518807 0 0 -1 0 0 0 -1 forward_v I I I I #
coedge $-1 $567 $424 $427 $568 forward $281 $-1 #
coedge $-1 $430 $283 $284 $418 reversed $177 $-1 #
coedge $-1 $424 $567 $283 $416 reversed $281 $-1 #
edge $-1 $431 -9.4466700088229452 $569 9.4466700088229452 $415 $570 forward 7 unknown #
coedge $-1 $285 $284 $567 $571 forward $113 $-1 #
edge $-1 $422 -62.322458571123391 $569 62.322458571123391 $414 $572 forward 7 unknown #
coedge $-1 $427 $426 $285 $420 reversed $411 $-1 #
edge $-1 $573 -62.322458571123391 $421 62.322458571123391 $419 $574 forward 7 unknown #
vertex $-1 $287 $575 #
vertex $-1 $433 $576 #
straight-curve $-1 62.322458571123391 0 -9.4466700088229452 0 -1 0 I I #
coedge $-1 $413 $415 $288 $425 reversed $281 $-1 #
edge $-1 $428 -34.560653407518807 $431 34.560653407518807 $424 $577 forward 7 unknown #
coedge $-1 $419 $289 $294 $434 forward $411 $-1 #
coedge $-1 $289 $419 $413 $568 reversed $411 $-1 #
vertex $-1 $290 $578 #
straight-curve $-1 0 34.560653407518807 9.4466700088229452 -1 0 0 I I #
coedge $-1 $291 $414 $293 $433 reversed $177 $-1 #
vertex $-1 $425 $579 #
straight-curve $-1 0 -34.560653407518807 9.4466700088229452 1 0 0 I I #
edge $-1 $296 -9.4466700088229452 $422 9.4466700088229452 $293 $580 forward 7 unknown #
edge $-1 $297 -9.4466700088229452 $421 9.4466700088229452 $294 $581 forward 7 unknown #
point $-1 62.322458571123391 -34.560653407518807 9.4466700088229452 #
point $-1 62.322458571123391 34.560653407518807 9.4466700088229452 #
face $-1 $-1 $582 $43 $-1 $583 reversed single #
loop $-1 $-1 $584 $299 #
plane-surface $-1 0 0 -9.4466700088229452 0 0 1 1 0 0 forward_v I I I I #
coedge $-1 $447 $457 $442 $585 forward $300 $-1 #
coedge $-1 $305 $302 $584 $586 reversed $185 $-1 #
coedge $-1 $302 $305 $440 $585 reversed $185 $-1 #
coedge $-1 $587 $588 $302 $444 forward $582 $-1 #
edge $-1 $589 -9.4466700088229452 $590 9.4466700088229452 $443 $591 forward 7 unknown #
coedge $-1 $584 $308 $303 $446 forward $438 $-1 #
edge $-1 $313 -25.841188899187841 $450 -20.33901606925572 $445 $592 forward 7 unknown #
coedge $-1 $310 $440 $304 $448 forward $300 $-1 #
edge $-1 $449 20.33901606925572 $312 25.841188899187841 $447 $593 forward 7 unknown #
vertex $-1 $448 $594 #
vertex $-1 $446 $595 #
straight-curve $-1 -43.429118553477501 -23.35277492216462 0 0 0 -1 I I #
coedge $-1 $588 $587 $307 $453 forward $582 $-1 #
edge $-1 $458 -9.4466700088229452 $455 9.4466700088229452 $452 $596 forward 7 unknown #
coedge $-1 $308 $584 $588 $597 forward $438 $-1 #
vertex $-1 $309 $598 #
straight-curve $-1 -48.931291383409622 -14.478357082420857 -9.4466700088229452 0 1 0 I I #
coedge $-1 $440 $310 $587 $599 forward $300 $-1 #
vertex $-1 $599 $600 #
straight-curve $-1 -48.931291383409622 -14.478357082420857 9.4466700088229452 0 -1 0 I I #
point $-1 -48.931291383409622 -23.35277492216462 9.4466700088229452 #
point $-1 -48.931291383409622 -23.35277492216462 -9.4466700088229452 #
plane-surface $-1 0 0 9.4466700088229452 0 0 1 1 0 0 forward_v I I I I #
coedge $-1 $473 $472 $465 $601 forward $316 $-1 #
coedge $-1 $465 $318 $320 $469 reversed $193 $-1 #
coedge $-1 $318 $464 $463 $601 reversed $193 $-1 #
coedge $-1 $326 $321 $318 $467 forward $327 $-1 #
edge $-1 $470 41.586268311360868 $602 46.466104154067267 $466 $603 forward 7 unknown #
coedge $-1 $320 $319 $473 $604 reversed $121 $-1 #
edge $-1 $605 -124.64491714224675 $470 -118.68773751050111 $464 $606 forward 7 unknown #
vertex $-1 $322 $607 #
straight-curve $-1 57.442622728417007 -3.2457142202974154 9.4466700088229487 0 -1 0 I I #
coedge $-1 $463 $323 $326 $477 reversed $316 $-1 #
coedge $-1 $323 $463 $468 $604 forward $316 $-1 #
vertex $-1 $324 $608 #
straight-curve $-1 62.322458571123391 0.47606593860681379 89.81314922408005 0 0 1 I I #
straight-curve $-1 -39.780679471008924 0.47606593860681379 77.523160406027756 0.81915203911291934 0 -0.57357644374324357 I I #
edge $-1 $602 -13.458922819796475 $328 0.47606593860681379 $472 $609 forward 7 unknown #
point $-1 62.322458571123391 0.47606593860681379 9.4466700088229452 #
point $-1 57.442622728416993 0.47606593860681379 9.4466700088229487 #
edge $-1 $610 1 $610 0 $331 $-1 forward 7 unknown #
vertex $-1 $332 $611 #
ellipse-curve $-1 58.280055554432842 -9.4774974602526783 5.4496352040810008 0.57357644374324357 0 0.81915203911291934 0.81915203911291934 0 -0.57357644374324357 1 I I #
point $-1 60.701692688883107 -9.4774974602526783 7.1646446111215116 #
edge $-1 $612 1 $612 0 $335 $-1 forward 7 unknown #
vertex $-1 $336 $613 #
ellipse-curve $-1 58.280055554432842 -3.5053594209369834 5.4496352040810008 0.57357644374324357 0 0.81915203911291934 0.81915203911291934 0 -0.57357644374324357 1 I I #
point $-1 60.701692688883107 -3.5053594209369834 7.1646446111215116 #
plane-surface $-1 0 0 9.4466700088229452 0 0 1 1 0 0 forward_v I I I I #
coedge $-1 $499 $498 $491 $614 forward $340 $-1 #
coedge $-1 $491 $342 $344 $495 reversed $215 $-1 #
coedge $-1 $342 $490 $489 $614 reversed $215 $-1 #
coedge $-1 $350 $345 $342 $493 forward $351 $-1 #
edge $-1 $496 41.586268311360868 $615 46.466104154067267 $492 $616 forward 7 unknown #
coedge $-1 $344 $343 $499 $617 reversed $135 $-1 #
edge $-1 $618 -124.64491714224675 $496 -118.68773751050111 $490 $619 forward 7 unknown #
vertex $-1 $346 $620 #
straight-curve $-1 57.442622728417007 11.232642862123441 9.4466700088229487 0 -1 0 I I #
coedge $-1 $489 $347 $350 $503 reversed $340 $-1 #
coedge $-1 $347 $489 $494 $617 forward $340 $-1 #
vertex $-1 $348 $621 #
straight-curve $-1 62.322458571123391 29.432780103448529 89.81314922408005 0 0 1 I I #
straight-curve $-1 -39.780679471008924 29.432780103448529 77.523160406027756 0.81915203911291934 0 -0.57357644374324357 I I #
edge $-1 $615 15.497791345045238 $352 29.432780103448529 $498 $622 forward 7 unknown #
point $-1 62.322458571123391 29.432780103448529 9.4466700088229452 #
point $-1 57.442622728416993 29.432780103448529 9.4466700088229487 #
edge $-1 $623 1 $623 0 $355 $-1 forward 7 unknown #
vertex $-1 $356 $624 #
ellipse-curve $-1 58.280055554432842 19.479216704589035 5.4496352040810008 0.57357644374324357 0 0.81915203911291934 0.81915203911291934 0 -0.57357644374324357 1 I I #
point $-1 60.701692688883107 19.479216704589035 7.1646446111215116 #
edge $-1 $625 1 $625 0 $359 $-1 forward 7 unknown #
vertex $-1 $360 $626 #
ellipse-curve $-1 58.280055554432842 25.45135474390473 5.4496352040810008 0.57357644374324357 0 0.81915203911291934 0.81915203911291934 0 -0.57357644374324357 1 I I #
point $-1 60.701692688883107 25.45135474390473 7.1646446111215116 #
plane-surface $-1 0 0 9.4466700088229452 0 0 1 1 0 0 forward_v I I I I #
coedge $-1 $525 $524 $517 $627 forward $364 $-1 #
coedge $-1 $517 $366 $368 $521 reversed $237 $-1 #
coedge $-1 $366 $516 $515 $627 reversed $237 $-1 #
coedge $-1 $374 $369 $366 $519 forward $375 $-1 #
edge $-1 $522 -9.4653007097053177 $628 -4.5854648669988904 $518 $629 forward 7 unknown #
coedge $-1 $368 $367 $525 $630 reversed $149 $-1 #
edge $-1 $631 0 $522 5.9571796317456851 $516 $632 forward 7 unknown #
vertex $-1 $370 $633 #
straight-curve $-1 -57.442622728416964 -3.2457142202974154 9.4466700088229469 0 1 0 I I #
coedge $-1 $515 $371 $374 $529 reversed $364 $-1 #
coedge $-1 $371 $515 $520 $630 forward $364 $-1 #
vertex $-1 $372 $634 #
straight-curve $-1 -62.322458571123391 -13.458922819796475 54.066455071519457 0 0 1 I I #
straight-curve $-1 -62.322458571123391 -13.458922819796475 6.0297721009065697 -0.81915203911291934 0 -0.57357644374324357 I I #
edge $-1 $628 -0.47606593860681379 $376 13.458922819796475 $524 $635 forward 7 unknown #
point $-1 -62.322458571123391 -13.458922819796475 9.4466700088229452 #
point $-1 -57.442622728416964 -13.458922819796475 9.4466700088229452 #
edge $-1 $636 1 $636 0 $379 $-1 forward 7 unknown #
vertex $-1 $380 $637 #
ellipse-curve $-1 -58.280055554432828 -9.4774974602526783 5.4496352040810043 -0.57357644374324357 0 0.81915203911291934 0.81915203911291934 0 0.57357644374324357 1 I I #
point $-1 -59.063388610657256 -9.4774974602526783 8.3117974986080032 #
edge $-1 $638 1 $638 0 $383 $-1 forward 7 unknown #
vertex $-1 $384 $639 #
ellipse-curve $-1 -58.280055554432828 -3.5053594209369834 5.4496352040810043 -0.57357644374324357 0 0.81915203911291934 0.81915203911291934 0 0.57357644374324357 1 I I #
point $-1 -59.063388610657256 -3.5053594209369834 8.3117974986080032 #
loop $-1 $-1 $395 $387 #
plane-surface $-1 -62.322458571123391 0 0 1 0 0 0 0 -1 forward_v I I I I #
coedge $-1 $543 $390 $392 $547 reversed $259 $-1 #
coedge $-1 $390 $542 $640 $641 reversed $259 $-1 #
coedge $-1 $398 $393 $390 $545 forward $388 $-1 #
edge $-1 $548 -9.4653007097053177 $642 -4.5854648669988904 $544 $643 forward 7 unknown #
coedge $-1 $392 $391 $551 $644 reversed $163 $-1 #
edge $-1 $645 0 $548 5.9571796317456851 $542 $646 forward 7 unknown #
vertex $-1 $394 $647 #
straight-curve $-1 -57.442622728416964 11.232642862123441 9.4466700088229469 0 1 0 I I #
coedge $-1 $640 $395 $398 $555 reversed $540 $-1 #
coedge $-1 $395 $640 $546 $644 forward $540 $-1 #
vertex $-1 $396 $648 #
straight-curve $-1 -62.322458571123391 15.497791345045238 54.066455071519457 0 0 1 I I #
straight-curve $-1 -62.322458571123391 15.497791345045238 6.0297721009065697 -0.81915203911291934 0 -0.57357644374324357 I I #
edge $-1 $642 -29.432780103448529 $399 -15.497791345045238 $550 $649 forward 7 unknown #
point $-1 -62.322458571123391 15.497791345045238 9.4466700088229452 #
point $-1 -57.442622728416964 15.497791345045238 9.4466700088229452 #
edge $-1 $650 1 $650 0 $402 $-1 forward 7 unknown #
vertex $-1 $403 $651 #
ellipse-curve $-1 -58.280055554432828 19.479216704589035 5.4496352040810043 -0.57357644374324357 0 0.81915203911291934 0.81915203911291934 0 0.57357644374324357 1 I I #
point $-1 -59.063388610657256 19.479216704589035 8.3117974986080032 #
edge $-1 $652 1 $652 0 $406 $-1 forward 7 unknown #
vertex $-1 $407 $653 #
ellipse-curve $-1 -58.280055554432828 25.45135474390473 5.4496352040810043 -0.57357644374324357 0 0.81915203911291934 0.81915203911291934 0 0.57357644374324357 1 I I #
point $-1 -59.063388610657256 25.45135474390473 8.3117974986080032 #
plane-surface $-1 62.322458571123391 0 0 -1 0 0 0 0 1 forward_v I I I I #
coedge $-1 $415 $413 $417 $571 reversed $281 $-1 #
edge $-1 $428 -9.4466700088229452 $573 9.4466700088229452 $427 $654 forward 7 unknown #
vertex $-1 $571 $655 #
straight-curve $-1 -62.322458571123391 -34.560653407518807 0 0 0 -1 I I #
edge $-1 $569 -34.560653407518807 $573 34.560653407518807 $567 $656 forward 7 unknown #
straight-curve $-1 0 -34.560653407518807 -9.4466700088229452 -1 0 0 I I #
vertex $-1 $420 $657 #
straight-curve $-1 0 34.560653407518807 -9.4466700088229452 1 0 0 I I #
point $-1 62.322458571123391 34.560653407518807 -9.4466700088229452 #
point $-1 62.322458571123391 -34.560653407518807 -9.4466700088229452 #
straight-curve $-1 -62.322458571123391 0 9.4466700088229452 0 -1 0 I I #
point $-1 -62.322458571123391 34.560653407518807 9.4466700088229452 #
point $-1 -62.322458571123391 -34.560653407518807 9.4466700088229452 #
straight-curve $-1 62.322458571123391 -34.560653407518807 0 0 0 -1 I I #
straight-curve $-1 62.322458571123391 34.560653407518807 0 0 0 -1 I I #
loop $-1 $-1 $443 $437 #
plane-surface $-1 0 -34.560653407518807 0 0 1 0 0 0 1 forward_v I I I I #
coedge $-1 $454 $445 $441 $586 forward $438 $-1 #
edge $-1 $590 -20.08229632509795 $449 -8.8744178397437636 $440 $658 forward 7 unknown #
edge $-1 $450 8.8744178397437636 $589 20.08229632509795 $584 $659 forward 7 unknown #
coedge $-1 $452 $443 $457 $599 reversed $582 $-1 #
coedge $-1 $443 $452 $454 $597 reversed $582 $-1 #
vertex $-1 $597 $660 #
vertex $-1 $444 $661 #
straight-curve $-1 -43.429118553477501 -34.560653407518807 0 0 0 1 I I #
straight-curve $-1 -23.090102484221781 -23.35277492216462 -9.4466700088229452 1 0 0 I I #
straight-curve $-1 -23.090102484221781 -23.35277492216462 9.4466700088229452 -1 0 0 I I #
point $-1 -43.429118553477501 -23.35277492216462 9.4466700088229452 #
point $-1 -43.429118553477501 -23.35277492216462 -9.4466700088229452 #
straight-curve $-1 -48.931291383409622 -34.560653407518807 0 0 0 -1 I I #
edge $-1 $589 43.429118553477501 $455 48.931291383409622 $588 $662 forward 7 unknown #
point $-1 -48.931291383409622 -34.560653407518807 -9.4466700088229452 #
edge $-1 $458 -48.931291383409622 $590 -43.429118553477501 $587 $663 forward 7 unknown #
point $-1 -48.931291383409622 -34.560653407518807 9.4466700088229452 #
edge $-1 $602 80.366479215257101 $605 83.783377123173452 $463 $664 forward 7 unknown #
vertex $-1 $477 $665 #
straight-curve $-1 15.856354417056124 -13.458922819796475 9.4466700088229487 1 0 0 I I #
edge $-1 $605 -10.21320859949906 $474 3.7217801589042292 $473 $666 forward 7 unknown #
vertex $-1 $604 $667 #
straight-curve $-1 -39.780679471008924 -13.458922819796475 77.523160406027756 -0.81915203911291934 0 0.57357644374324357 I I #
point $-1 57.442622728416993 -13.458922819796475 9.4466700088229487 #
point $-1 62.322458571123391 0.47606593860681379 6.0297721009065981 #
straight-curve $-1 62.322458571123391 0 9.4466700088229452 0 1 0 I I #
vertex $-1 $480 $668 #
point $-1 59.099207593545756 -9.4774974602526783 4.8760587603377568 #
vertex $-1 $484 $669 #
point $-1 59.099207593545756 -3.5053594209369834 4.8760587603377568 #
edge $-1 $615 80.366479215257101 $618 83.783377123173452 $489 $670 forward 7 unknown #
vertex $-1 $503 $671 #
straight-curve $-1 15.856354417056124 15.497791345045238 9.4466700088229487 1 0 0 I I #
edge $-1 $618 4.2651484829217967 $500 18.200137241325088 $499 $672 forward 7 unknown #
vertex $-1 $617 $673 #
straight-curve $-1 -39.780679471008924 15.497791345045238 77.523160406027756 -0.81915203911291934 0 0.57357644374324357 I I #
point $-1 57.442622728416993 15.497791345045238 9.4466700088229487 #
point $-1 62.322458571123391 29.432780103448529 6.0297721009065981 #
straight-curve $-1 62.322458571123391 0 9.4466700088229452 0 1 0 I I #
vertex $-1 $506 $674 #
point $-1 59.099207593545756 19.479216704589035 4.8760587603377568 #
vertex $-1 $510 $675 #
point $-1 59.099207593545756 25.45135474390473 4.8760587603377568 #
edge $-1 $628 44.619785062696508 $631 48.036682970612887 $515 $676 forward 7 unknown #
vertex $-1 $529 $677 #
straight-curve $-1 -66.907923438122282 0.47606593860681379 9.4466700088229416 -1 0 0 I I #
edge $-1 $631 -3.7217801589042292 $526 10.21320859949906 $525 $678 forward 7 unknown #
vertex $-1 $630 $679 #
straight-curve $-1 -62.322458571123391 0.47606593860681379 6.0297721009065697 0.81915203911291934 0 0.57357644374324357 I I #
point $-1 -57.442622728416964 0.47606593860681379 9.4466700088229452 #
point $-1 -62.322458571123391 -13.458922819796475 6.0297721009065697 #
straight-curve $-1 -62.322458571123391 0 9.4466700088229452 0 -1 0 I I #
vertex $-1 $532 $680 #
point $-1 -57.460903515319906 -9.4774974602526783 6.0232116478242474 #
vertex $-1 $536 $681 #
point $-1 -57.460903515319906 -3.5053594209369834 6.0232116478242474 #
coedge $-1 $551 $550 $543 $641 forward $540 $-1 #
edge $-1 $642 44.619785062696508 $645 48.036682970612887 $640 $682 forward 7 unknown #
vertex $-1 $555 $683 #
straight-curve $-1 -66.907923438122282 29.432780103448529 9.4466700088229416 -1 0 0 I I #
edge $-1 $645 -18.200137241325088 $552 -4.2651484829217967 $551 $684 forward 7 unknown #
vertex $-1 $644 $685 #
straight-curve $-1 -62.322458571123391 29.432780103448529 6.0297721009065697 0.81915203911291934 0 0.57357644374324357 I I #
point $-1 -57.442622728416964 29.432780103448529 9.4466700088229452 #
point $-1 -62.322458571123391 15.497791345045238 6.0297721009065697 #
straight-curve $-1 -62.322458571123391 0 9.4466700088229452 0 -1 0 I I #
vertex $-1 $558 $686 #
point $-1 -57.460903515319906 19.479216704589035 6.0232116478242474 #
vertex $-1 $562 $687 #
point $-1 -57.460903515319906 25.45135474390473 6.0232116478242474 #
straight-curve $-1 -62.322458571123391 34.560653407518807 0 0 0 -1 I I #
point $-1 -62.322458571123391 -34.560653407518807 -9.4466700088229452 #
straight-curve $-1 -62.322458571123391 0 -9.4466700088229452 0 1 0 I I #
point $-1 -62.322458571123391 34.560653407518807 -9.4466700088229452 #
straight-curve $-1 -43.429118553477501 -14.478357082420857 9.4466700088229452 0 1 0 I I #
straight-curve $-1 -43.429118553477501 -14.478357082420857 -9.4466700088229452 0 -1 0 I I #
point $-1 -43.429118553477501 -34.560653407518807 -9.4466700088229452 #
point $-1 -43.429118553477501 -34.560653407518807 9.4466700088229452 #
straight-curve $-1 0 -34.560653407518807 -9.4466700088229452 -1 0 0 I I #
straight-curve $-1 0 -34.560653407518807 9.4466700088229452 1 0 0 I I #
straight-curve $-1 62.322458571123391 -13.458922819796475 89.81314922408005 0 0 -1 I I #
point $-1 62.322458571123391 -13.458922819796475 9.4466700088229452 #
straight-curve $-1 62.322458571123391 -3.2457142202974154 6.029772100906591 0 1 0 I I #
point $-1 62.322458571123391 -13.458922819796475 6.0297721009065981 #
point $-1 57.706479110689592 -9.4774974602526783 4.6304831649680809 #
point $-1 57.706479110689592 -3.5053594209369834 4.6304831649680809 #
straight-curve $-1 62.322458571123391 15.497791345045238 89.81314922408005 0 0 -1 I I #
point $-1 62.322458571123391 15.497791345045238 9.4466700088229452 #
straight-curve $-1 62.322458571123391 11.232642862123441 6.029772100906591 0 1 0 I I #
point $-1 62.322458571123391 15.497791345045238 6.0297721009065981 #
point $-1 57.706479110689592 19.479216704589035 4.6304831649680809 #
point $-1 57.706479110689592 25.45135474390473 4.6304831649680809 #
straight-curve $-1 -62.322458571123391 0.47606593860681379 54.066455071519457 0 0 -1 I I #
point $-1 -62.322458571123391 0.47606593860681379 9.4466700088229452 #
straight-curve $-1 -62.322458571123391 -3.2457142202974154 6.0297721009065697 0 -1 0 I I #
point $-1 -62.322458571123391 0.47606593860681379 6.0297721009065697 #
point $-1 -57.706479110689578 -9.4774974602526783 4.6304831649680844 #
point $-1 -57.706479110689578 -3.5053594209369834 4.6304831649680844 #
straight-curve $-1 -62.322458571123391 29.432780103448529 54.066455071519457 0 0 -1 I I #
point $-1 -62.322458571123391 29.432780103448529 9.4466700088229452 #
straight-curve $-1 -62.322458571123391 11.232642862123441 6.0297721009065697 0 -1 0 I I #
point $-1 -62.322458571123391 29.432780103448529 6.0297721009065697 #
point $-1 -57.706479110689578 19.479216704589035 4.6304831649680844 #
point $-1 -57.706479110689578 25.45135474390473 4.6304831649680844 #
End-of-ACIS-data 