500 0 6 0           
7 Unknown 11 ACIS 5.0 NT 24 Fri Mar 26 03:35:42 1999 
-1 9.9999999999999995e-007 1e-010 
body $-1 $6 $-1 $7 #
body $-1 $8 $-1 $9 #
body $-1 $10 $-1 $11 #
body $-1 $12 $-1 $13 #
body $-1 $14 $-1 $15 #
body $-1 $16 $-1 $17 #
lump $-1 $-1 $18 $0 #
transform $-1 1 0 0 0 1 0 0 0 1 79.339579454939425 36.622309192114422 14.521622397601963 1 rotate no_reflect no_shear #
lump $-1 $-1 $19 $1 #
transform $-1 1 0 0 0 1 0 0 0 1 79.339579454939425 36.622309192114422 14.521622397601963 1 rotate no_reflect no_shear #
lump $-1 $-1 $20 $2 #
transform $-1 1 0 0 0 1 0 0 0 1 79.339579454939425 36.622309192114422 14.521622397601963 1 rotate no_reflect no_shear #
lump $-1 $-1 $21 $3 #
transform $-1 1 0 0 0 1 0 0 0 1 79.339579454939425 36.622309192114422 14.521622397601963 1 rotate no_reflect no_shear #
lump $-1 $-1 $22 $4 #
transform $-1 1 0 0 0 1 0 0 0 1 79.339579454939425 36.622309192114422 14.521622397601963 1 rotate no_reflect no_shear #
lump $-1 $-1 $23 $5 #
transform $-1 1 0 0 0 1 0 0 0 1 79.339579454939425 36.622309192114422 14.521622397601963 1 rotate no_reflect no_shear #
shell $-1 $-1 $-1 $24 $-1 $6 #
shell $-1 $-1 $-1 $25 $-1 $8 #
shell $-1 $-1 $-1 $26 $-1 $10 #
shell $-1 $-1 $-1 $27 $-1 $12 #
shell $-1 $-1 $-1 $28 $-1 $14 #
shell $-1 $-1 $-1 $29 $-1 $16 #
face $-1 $30 $31 $18 $-1 $32 forward single #
face $-1 $33 $34 $19 $-1 $35 forward single #
face $-1 $36 $37 $20 $-1 $38 reversed single #
face $-1 $39 $40 $21 $-1 $41 forward single #
face $-1 $42 $43 $22 $-1 $44 forward single #
face $-1 $45 $46 $23 $-1 $47 forward single #
face $-1 $48 $49 $18 $-1 $50 reversed single #
loop $-1 $-1 $51 $24 #
plane-surface $-1 0 0 14.521622397601963 0 0 1 1 0 0 forward_v I I I I #
face $-1 $52 $53 $19 $-1 $54 reversed single #
loop $-1 $-1 $55 $25 #
plane-surface $-1 -79.339579454939425 0 0 1 0 0 0 0 -1 forward_v I I I I #
face $-1 $56 $57 $20 $-1 $58 reversed single #
loop $-1 $-1 $59 $26 #
plane-surface $-1 106.68782095757923 33.94092589071154 231.6074314534082 0 -1 0 -0.78801076186113728 0 -0.61566146476048833 forward_v I I I I #
face $-1 $60 $61 $21 $-1 $62 forward single #
loop $-1 $63 $64 $27 #
cone-surface $-1 75.948677056433027 20.971619092246755 10.772203777899065 -0.78801076186113728 0 -0.61566146476048833 0.61566146476048833 0 -0.78801076186113728 1 I I 0 1 1 forward I I I I #
face $-1 $65 $66 $22 $-1 $67 forward single #
loop $-1 $68 $69 $28 #
cone-surface $-1 75.948677056433027 25.835109141671047 10.772203777899065 -0.78801076186113728 0 -0.61566146476048833 0.61566146476048833 0 -0.78801076186113728 1 I I 0 1 1 forward I I I I #
face $-1 $70 $71 $23 $-1 $72 forward single #
loop $-1 $73 $74 $29 #
cone-surface $-1 75.948677056433027 30.698599191095347 10.772203777899065 -0.78801076186113728 0 -0.61566146476048833 0.61566146476048833 0 -0.78801076186113728 1 I I 0 1 1 forward I I I I #
face $-1 $75 $76 $18 $-1 $77 reversed single #
loop $-1 $-1 $78 $30 #
plane-surface $-1 0 0 -14.521622397601963 0 0 1 1 0 0 forward_v I I I I #
coedge $-1 $79 $80 $81 $82 forward $31 $-1 #
face $-1 $83 $84 $19 $-1 $85 forward single #
loop $-1 $-1 $86 $33 #
plane-surface $-1 0 36.622309192114422 0 0 -1 0 0 0 -1 forward_v I I I I #
coedge $-1 $87 $88 $89 $90 forward $34 $-1 #
face $-1 $91 $92 $20 $-1 $93 reversed single #
loop $-1 $-1 $94 $36 #
plane-surface $-1 -18.353063946478869 25.835109141671047 133.91478805198989 0.78801076186113728 0 0.61566146476048833 0.61566146476048833 0 -0.78801076186113728 forward_v I I I I #
coedge $-1 $95 $96 $97 $98 reversed $37 $-1 #
face $-1 $-1 $99 $21 $-1 $100 forward single #
loop $-1 $101 $102 $39 #
cone-surface $-1 74.370010152181422 20.971619092246755 9.5388140506509949 -0.78801076186113728 0 -0.61566146476048833 0.30783073238024417 0 -0.39400538093056864 1 I I -0.70710678118654746 0.70710678118654746 0.5 forward I I I I #
loop $-1 $-1 $103 $27 #
coedge $-1 $64 $64 $104 $105 reversed $40 $-1 #
face $-1 $-1 $106 $22 $-1 $107 forward single #
loop $-1 $108 $109 $42 #
cone-surface $-1 74.370010152181422 25.835109141671047 9.5388140506509949 -0.78801076186113728 0 -0.61566146476048833 0.30783073238024417 0 -0.39400538093056864 1 I I -0.70710678118654746 0.70710678118654746 0.5 forward I I I I #
loop $-1 $-1 $110 $28 #
coedge $-1 $69 $69 $111 $112 reversed $43 $-1 #
face $-1 $-1 $113 $23 $-1 $114 forward single #
loop $-1 $115 $116 $45 #
cone-surface $-1 74.370010152181422 30.698599191095347 9.5388140506509949 -0.78801076186113728 0 -0.61566146476048833 0.30783073238024417 0 -0.39400538093056864 1 I I -0.70710678118654746 0.70710678118654746 0.5 forward I I I I #
loop $-1 $-1 $117 $29 #
coedge $-1 $74 $74 $118 $119 reversed $46 $-1 #
face $-1 $120 $121 $18 $-1 $122 reversed single #
loop $-1 $-1 $123 $48 #
plane-surface $-1 0 -36.622309192114422 0 0 1 0 0 0 1 forward_v I I I I #
coedge $-1 $124 $125 $126 $127 forward $49 $-1 #
coedge $-1 $128 $51 $129 $130 forward $31 $-1 #
coedge $-1 $51 $128 $131 $132 forward $31 $-1 #
coedge $-1 $133 $134 $51 $82 reversed $135 $-1 #
edge $-1 $136 -36.622309192114422 $137 36.622309192114422 $81 $138 forward 7 unknown #
face $-1 $139 $140 $19 $-1 $141 reversed single #
loop $-1 $-1 $89 $52 #
plane-surface $-1 -86.998630647834617 0 7.563490595251583 0 0 1 1 0 0 forward_v I I I I #
coedge $-1 $142 $143 $88 $144 forward $53 $-1 #
coedge $-1 $145 $55 $146 $147 reversed $34 $-1 #
coedge $-1 $55 $145 $86 $144 reversed $34 $-1 #
coedge $-1 $148 $149 $55 $90 reversed $84 $-1 #
edge $-1 $150 -36.622309192114422 $151 36.622309192114422 $89 $152 forward 7 unknown #
face $-1 $153 $154 $20 $-1 $155 forward single #
loop $-1 $-1 $156 $56 #
plane-surface $-1 106.68782095757923 17.729292392630551 231.6074314534082 0 1 0 0.78801076186113728 0 0.61566146476048833 forward_v I I I I #
coedge $-1 $157 $158 $159 $160 reversed $57 $-1 #
coedge $-1 $96 $59 $161 $162 reversed $37 $-1 #
coedge $-1 $59 $95 $157 $163 reversed $37 $-1 #
coedge $-1 $159 $164 $59 $98 forward $154 $-1 #
edge $-1 $165 -25.995668976149808 $166 -21.583187225779163 $97 $167 forward 7 unknown #
loop $-1 $-1 $104 $60 #
plane-surface $-1 -18.353063946478869 25.835109141671047 133.91478805198989 0.78801076186113728 0 0.61566146476048833 0.61566146476048833 0 -0.78801076186113728 forward_v I I I I #
loop $-1 $-1 $168 $39 #
coedge $-1 $102 $102 $103 $169 reversed $61 $-1 #
coedge $-1 $103 $103 $102 $169 forward $63 $-1 #
coedge $-1 $104 $104 $64 $105 forward $99 $-1 #
edge $-1 $170 0 $170 6.2831853071796004 $104 $171 forward 7 unknown #
loop $-1 $-1 $111 $65 #
plane-surface $-1 -18.353063946478869 25.835109141671047 133.91478805198989 0.78801076186113728 0 0.61566146476048833 0.61566146476048833 0 -0.78801076186113728 forward_v I I I I #
loop $-1 $-1 $172 $42 #
coedge $-1 $109 $109 $110 $173 reversed $66 $-1 #
coedge $-1 $110 $110 $109 $173 forward $68 $-1 #
coedge $-1 $111 $111 $69 $112 forward $106 $-1 #
edge $-1 $174 0 $174 6.2831853071796004 $111 $175 forward 7 unknown #
loop $-1 $-1 $118 $70 #
plane-surface $-1 -18.353063946478869 25.835109141671047 133.91478805198989 0.78801076186113728 0 0.61566146476048833 0.61566146476048833 0 -0.78801076186113728 forward_v I I I I #
loop $-1 $-1 $176 $45 #
coedge $-1 $116 $116 $117 $177 reversed $71 $-1 #
coedge $-1 $117 $117 $116 $177 forward $73 $-1 #
coedge $-1 $118 $118 $74 $119 forward $113 $-1 #
edge $-1 $178 0 $178 6.2831853071796004 $118 $179 forward 7 unknown #
face $-1 $180 $181 $18 $-1 $182 reversed single #
loop $-1 $-1 $183 $75 #
plane-surface $-1 -79.339579454939425 0 0 1 0 0 0 0 -1 forward_v I I I I #
coedge $-1 $184 $131 $183 $185 forward $76 $-1 #
coedge $-1 $186 $78 $184 $187 forward $49 $-1 #
coedge $-1 $78 $186 $188 $189 forward $49 $-1 #
coedge $-1 $134 $133 $78 $127 reversed $135 $-1 #
edge $-1 $190 -36.622309192114422 $191 36.622309192114422 $126 $192 forward 7 unknown #
coedge $-1 $80 $79 $193 $194 forward $31 $-1 #
coedge $-1 $195 $196 $79 $130 reversed $181 $-1 #
edge $-1 $137 -79.339579454939425 $197 79.339579454939425 $129 $198 forward 7 unknown #
coedge $-1 $123 $199 $80 $132 reversed $76 $-1 #
edge $-1 $200 -79.339579454939425 $136 79.339579454939425 $131 $201 forward 7 unknown #
coedge $-1 $126 $81 $199 $202 forward $135 $-1 #
coedge $-1 $81 $126 $195 $203 reversed $135 $-1 #
loop $-1 $-1 $133 $180 #
vertex $-1 $82 $204 #
vertex $-1 $82 $205 #
straight-curve $-1 79.339579454939425 0 14.521622397601963 0 1 0 I I #
face $-1 $206 $207 $19 $-1 $208 reversed single #
loop $-1 $-1 $209 $83 #
plane-surface $-1 -86.998630647834617 0 1.8949746054213357 0 0 1 1 0 0 forward_v I I I I #
coedge $-1 $210 $86 $211 $212 reversed $53 $-1 #
coedge $-1 $86 $210 $148 $213 reversed $53 $-1 #
edge $-1 $150 -7.563490595251583 $214 -1.8949746054213357 $86 $215 forward 7 unknown #
coedge $-1 $88 $87 $209 $216 forward $34 $-1 #
coedge $-1 $217 $218 $87 $147 forward $219 $-1 #
edge $-1 $220 1.8949746054213357 $151 7.563490595251583 $146 $221 forward 7 unknown #
coedge $-1 $222 $89 $143 $213 forward $84 $-1 #
coedge $-1 $89 $222 $217 $223 forward $84 $-1 #
vertex $-1 $144 $224 #
vertex $-1 $223 $225 #
straight-curve $-1 -79.339579454939425 0 7.563490595251583 0 -1 0 I I #
face $-1 $-1 $226 $20 $-1 $227 reversed single #
loop $-1 $-1 $97 $91 #
plane-surface $-1 0 0 14.521622397601963 0 0 1 1 0 0 forward_v I I I I #
coedge $-1 $228 $229 $230 $231 reversed $92 $-1 #
coedge $-1 $232 $94 $96 $163 forward $57 $-1 #
coedge $-1 $94 $232 $228 $233 forward $57 $-1 #
coedge $-1 $230 $97 $94 $160 forward $154 $-1 #
edge $-1 $166 -21.023371319876016 $234 -4.8117378217950275 $159 $235 forward 7 unknown #
coedge $-1 $236 $237 $95 $162 forward $226 $-1 #
edge $-1 $238 -106.92981257877229 $165 -101.28209332910214 $161 $239 forward 7 unknown #
edge $-1 $166 151.51210038350632 $238 158.67915890987882 $96 $240 forward 7 unknown #
coedge $-1 $97 $230 $236 $241 forward $154 $-1 #
vertex $-1 $162 $242 #
vertex $-1 $98 $243 #
straight-curve $-1 53.343910478789617 33.94092589071154 14.521622397601959 -1 0 0 I I #
coedge $-1 $168 $168 $-1 $244 reversed $101 $-1 #
edge $-1 $245 0 $245 6.2831853071796004 $102 $246 forward 7 unknown #
vertex $-1 $105 $247 #
ellipse-curve $-1 77.133338579754096 20.971619092246755 11.697762772766907 0.78801076186113728 0 0.61566146476048833 0.61566146476048833 0 -0.78801076186113728 1 I I #
coedge $-1 $172 $172 $-1 $248 reversed $108 $-1 #
edge $-1 $249 0 $249 6.2831853071796004 $109 $250 forward 7 unknown #
vertex $-1 $112 $251 #
ellipse-curve $-1 77.133338579754096 25.835109141671047 11.697762772766907 0.78801076186113728 0 0.61566146476048833 0.61566146476048833 0 -0.78801076186113728 1 I I #
coedge $-1 $176 $176 $-1 $252 reversed $115 $-1 #
edge $-1 $253 0 $253 6.2831853071796004 $116 $254 forward 7 unknown #
vertex $-1 $119 $255 #
ellipse-curve $-1 77.133338579754096 30.698599191095347 11.697762772766907 0.78801076186113728 0 0.61566146476048833 0.61566146476048833 0 -0.78801076186113728 1 I I #
face $-1 $-1 $135 $18 $-1 $256 reversed single #
loop $-1 $-1 $195 $120 #
plane-surface $-1 0 36.622309192114422 0 0 -1 0 0 0 -1 forward_v I I I I #
coedge $-1 $193 $257 $123 $185 reversed $121 $-1 #
coedge $-1 $199 $123 $124 $187 reversed $76 $-1 #
edge $-1 $200 -14.521622397601963 $258 14.521622397601963 $183 $259 forward 7 unknown #
coedge $-1 $125 $124 $257 $260 forward $49 $-1 #
edge $-1 $191 -79.339579454939425 $258 79.339579454939425 $184 $261 forward 7 unknown #
coedge $-1 $196 $195 $125 $189 reversed $181 $-1 #
edge $-1 $262 -79.339579454939425 $190 79.339579454939425 $188 $263 forward 7 unknown #
vertex $-1 $127 $264 #
vertex $-1 $202 $265 #
straight-curve $-1 79.339579454939425 0 -14.521622397601963 0 -1 0 I I #
coedge $-1 $266 $183 $128 $194 reversed $121 $-1 #
edge $-1 $197 -36.622309192114422 $200 36.622309192114422 $193 $267 forward 7 unknown #
coedge $-1 $188 $129 $134 $203 forward $181 $-1 #
coedge $-1 $129 $188 $266 $268 reversed $181 $-1 #
vertex $-1 $130 $269 #
straight-curve $-1 0 36.622309192114422 14.521622397601963 -1 0 0 I I #
coedge $-1 $131 $184 $133 $202 reversed $76 $-1 #
vertex $-1 $194 $270 #
straight-curve $-1 0 -36.622309192114422 14.521622397601963 1 0 0 I I #
edge $-1 $136 -14.521622397601963 $191 14.521622397601963 $133 $271 forward 7 unknown #
edge $-1 $137 -14.521622397601963 $190 14.521622397601963 $134 $272 forward 7 unknown #
point $-1 79.339579454939425 -36.622309192114422 14.521622397601963 #
point $-1 79.339579454939425 36.622309192114422 14.521622397601963 #
face $-1 $-1 $219 $19 $-1 $273 reversed single #
loop $-1 $-1 $274 $139 #
plane-surface $-1 -94.657681840729808 0 4.7292326003364593 1 0 0 0 0 -1 forward_v I I I I #
coedge $-1 $275 $211 $145 $216 reversed $140 $-1 #
coedge $-1 $143 $142 $274 $276 reversed $53 $-1 #
coedge $-1 $209 $277 $142 $212 forward $140 $-1 #
edge $-1 $278 -7.6590511928951912 $214 7.6590511928951912 $142 $279 forward 7 unknown #
edge $-1 $150 -7.6590511928951912 $280 7.6590511928951912 $143 $281 forward 7 unknown #
vertex $-1 $144 $282 #
straight-curve $-1 -79.339579454939425 36.622309192114422 0 0 0 -1 I I #
edge $-1 $220 -36.622309192114422 $214 36.622309192114422 $209 $283 forward 7 unknown #
coedge $-1 $284 $146 $149 $223 reversed $219 $-1 #
coedge $-1 $146 $284 $275 $285 reversed $219 $-1 #
loop $-1 $-1 $146 $206 #
vertex $-1 $147 $286 #
straight-curve $-1 -79.339579454939425 -36.622309192114422 0 0 0 1 I I #
coedge $-1 $149 $148 $287 $288 forward $84 $-1 #
edge $-1 $289 -7.6590511928951912 $151 7.6590511928951912 $217 $290 forward 7 unknown #
point $-1 -79.339579454939425 36.622309192114422 7.563490595251583 #
point $-1 -79.339579454939425 -36.622309192114422 7.563490595251583 #
loop $-1 $-1 $161 $153 #
plane-surface $-1 79.339579454939425 0 0 -1 0 0 0 0 1 forward_v I I I I #
coedge $-1 $229 $156 $158 $233 reversed $92 $-1 #
coedge $-1 $156 $228 $291 $292 reversed $92 $-1 #
coedge $-1 $164 $159 $156 $231 forward $154 $-1 #
edge $-1 $234 21.583187225779163 $293 25.995668976149808 $230 $294 forward 7 unknown #
coedge $-1 $158 $157 $237 $295 reversed $57 $-1 #
edge $-1 $296 -158.67915890987882 $234 -151.51210038350632 $228 $297 forward 7 unknown #
vertex $-1 $160 $298 #
straight-curve $-1 74.92709770456878 12.917554570835524 14.521622397601959 0 -1 0 I I #
coedge $-1 $291 $161 $164 $241 reversed $226 $-1 #
coedge $-1 $161 $291 $232 $295 forward $226 $-1 #
vertex $-1 $162 $299 #
straight-curve $-1 79.339579454939425 33.94092589071154 115.8037157267041 0 0 1 I I #
straight-curve $-1 -18.353063946478869 33.94092589071154 133.91478805198989 0.61566146476048833 0 -0.78801076186113728 I I #
edge $-1 $293 17.729292392630551 $165 33.94092589071154 $236 $300 forward 7 unknown #
point $-1 79.339579454939425 33.94092589071154 14.521622397601963 #
point $-1 74.92709770456878 33.94092589071154 14.521622397601959 #
edge $-1 $301 1 $301 0 $168 $-1 forward 7 unknown #
vertex $-1 $169 $302 #
ellipse-curve $-1 74.764015533111987 20.971619092246755 9.8466447830312394 0.78801076186113728 0 0.61566146476048833 0.61566146476048833 0 -0.78801076186113728 1 I I #
point $-1 77.74900004451456 20.971619092246755 10.909752010905752 #
edge $-1 $303 1 $303 0 $172 $-1 forward 7 unknown #
vertex $-1 $173 $304 #
ellipse-curve $-1 74.764015533111987 25.835109141671047 9.8466447830312394 0.78801076186113728 0 0.61566146476048833 0.61566146476048833 0 -0.78801076186113728 1 I I #
point $-1 77.74900004451456 25.835109141671047 10.909752010905752 #
edge $-1 $305 1 $305 0 $176 $-1 forward 7 unknown #
vertex $-1 $177 $306 #
ellipse-curve $-1 74.764015533111987 30.698599191095347 9.8466447830312394 0.78801076186113728 0 0.61566146476048833 0.61566146476048833 0 -0.78801076186113728 1 I I #
point $-1 77.74900004451456 30.698599191095347 10.909752010905752 #
plane-surface $-1 79.339579454939425 0 0 -1 0 0 0 0 1 forward_v I I I I #
coedge $-1 $183 $266 $186 $260 reversed $121 $-1 #
vertex $-1 $260 $307 #
straight-curve $-1 -79.339579454939425 -36.622309192114422 0 0 0 -1 I I #
edge $-1 $258 -36.622309192114422 $262 36.622309192114422 $257 $308 forward 7 unknown #
straight-curve $-1 0 -36.622309192114422 -14.521622397601963 -1 0 0 I I #
vertex $-1 $189 $309 #
straight-curve $-1 0 36.622309192114422 -14.521622397601963 1 0 0 I I #
point $-1 79.339579454939425 36.622309192114422 -14.521622397601963 #
point $-1 79.339579454939425 -36.622309192114422 -14.521622397601963 #
coedge $-1 $257 $193 $196 $268 forward $121 $-1 #
straight-curve $-1 -79.339579454939425 0 14.521622397601963 0 -1 0 I I #
edge $-1 $197 -14.521622397601963 $262 14.521622397601963 $196 $310 forward 7 unknown #
point $-1 -79.339579454939425 36.622309192114422 14.521622397601963 #
point $-1 -79.339579454939425 -36.622309192114422 14.521622397601963 #
straight-curve $-1 79.339579454939425 -36.622309192114422 0 0 0 -1 I I #
straight-curve $-1 79.339579454939425 36.622309192114422 0 0 0 -1 I I #
plane-surface $-1 0 -36.622309192114422 0 0 1 0 0 0 1 forward_v I I I I #
coedge $-1 $311 $287 $210 $276 forward $207 $-1 #
coedge $-1 $277 $209 $218 $285 forward $140 $-1 #
edge $-1 $280 -2.8342579949151236 $278 2.8342579949151236 $210 $312 forward 7 unknown #
coedge $-1 $211 $275 $311 $313 forward $140 $-1 #
vertex $-1 $212 $314 #
straight-curve $-1 -86.998630647834617 36.622309192114422 1.8949746054213357 1 0 0 I I #
vertex $-1 $213 $315 #
straight-curve $-1 -86.998630647834617 36.622309192114422 7.563490595251583 -1 0 0 I I #
point $-1 -79.339579454939425 36.622309192114422 1.8949746054213357 #
straight-curve $-1 -79.339579454939425 0 1.8949746054213357 0 1 0 I I #
coedge $-1 $218 $217 $316 $317 forward $219 $-1 #
edge $-1 $220 -7.6590511928951912 $318 7.6590511928951912 $218 $319 forward 7 unknown #
point $-1 -79.339579454939425 -36.622309192114422 1.8949746054213357 #
coedge $-1 $274 $316 $222 $288 reversed $207 $-1 #
edge $-1 $280 -36.622309192114422 $289 36.622309192114422 $287 $320 forward 7 unknown #
vertex $-1 $288 $321 #
straight-curve $-1 -86.998630647834617 -36.622309192114422 7.563490595251583 1 0 0 I I #
coedge $-1 $237 $236 $229 $292 forward $226 $-1 #
edge $-1 $293 101.28209332910214 $296 106.92981257877229 $291 $322 forward 7 unknown #
vertex $-1 $241 $323 #
straight-curve $-1 53.343910478789617 17.729292392630551 14.521622397601959 1 0 0 I I #
edge $-1 $296 4.8117378217950275 $238 21.023371319876016 $237 $324 forward 7 unknown #
vertex $-1 $295 $325 #
straight-curve $-1 -18.353063946478869 17.729292392630551 133.91478805198989 -0.61566146476048833 0 0.78801076186113728 I I #
point $-1 74.92709770456878 17.729292392630551 14.521622397601959 #
point $-1 79.339579454939425 33.94092589071154 8.8739031479318129 #
straight-curve $-1 79.339579454939425 0 14.521622397601963 0 1 0 I I #
vertex $-1 $244 $326 #
point $-1 75.37967699787248 20.971619092246755 9.0586340211701017 #
vertex $-1 $248 $327 #
point $-1 75.37967699787248 25.835109141671047 9.0586340211701017 #
vertex $-1 $252 $328 #
point $-1 75.37967699787248 30.698599191095347 9.0586340211701017 #
point $-1 -79.339579454939425 -36.622309192114422 -14.521622397601963 #
straight-curve $-1 -79.339579454939425 0 -14.521622397601963 0 1 0 I I #
point $-1 -79.339579454939425 36.622309192114422 -14.521622397601963 #
straight-curve $-1 -79.339579454939425 36.622309192114422 0 0 0 -1 I I #
coedge $-1 $316 $274 $277 $313 reversed $207 $-1 #
straight-curve $-1 -94.657681840729808 36.622309192114422 4.7292326003364593 0 0 -1 I I #
edge $-1 $318 -36.622309192114422 $278 36.622309192114422 $311 $329 forward 7 unknown #
point $-1 -94.657681840729808 36.622309192114422 1.8949746054213357 #
point $-1 -94.657681840729808 36.622309192114422 7.563490595251583 #
coedge $-1 $287 $311 $284 $317 reversed $207 $-1 #
edge $-1 $289 -2.8342579949151236 $318 2.8342579949151236 $316 $330 forward 7 unknown #
vertex $-1 $313 $331 #
straight-curve $-1 -86.998630647834617 -36.622309192114422 1.8949746054213357 -1 0 0 I I #
straight-curve $-1 -94.657681840729808 0 7.563490595251583 0 -1 0 I I #
point $-1 -94.657681840729808 -36.622309192114422 7.563490595251583 #
straight-curve $-1 79.339579454939425 17.729292392630551 115.8037157267041 0 0 -1 I I #
point $-1 79.339579454939425 17.729292392630551 14.521622397601963 #
straight-curve $-1 79.33957945493944 12.917554570835524 8.8739031479317987 0 1 0 I I #
point $-1 79.339579454939425 17.729292392630551 8.8739031479318129 #
point $-1 73.976004771250857 20.971619092246755 9.2309833182707504 #
point $-1 73.976004771250857 25.835109141671047 9.2309833182707504 #
point $-1 73.976004771250857 30.698599191095347 9.2309833182707504 #
straight-curve $-1 -94.657681840729808 0 1.8949746054213357 0 1 0 I I #
straight-curve $-1 -94.657681840729808 -36.622309192114422 4.7292326003364593 0 0 -1 I I #
point $-1 -94.657681840729808 -36.622309192114422 1.8949746054213357 #
End-of-ACIS-data 