500 0 5 0           
7 Unknown 11 ACIS 5.0 NT 24 Fri Mar 26 19:35:23 1999 
-1 9.9999999999999995e-007 1e-010 
body $-1 $5 $-1 $6 #
body $-1 $7 $-1 $8 #
body $-1 $9 $-1 $10 #
body $-1 $11 $-1 $12 #
body $-1 $13 $-1 $14 #
lump $-1 $-1 $15 $0 #
transform $-1 1 0 0 0 1 0 0 0 1 75.848261970885346 48.859132345056373 14.180286956030507 1 rotate no_reflect no_shear #
lump $-1 $-1 $16 $1 #
transform $-1 1 0 0 0 1 0 0 0 1 75.848261970885346 48.859132345056373 14.180286956030507 1 rotate no_reflect no_shear #
lump $-1 $-1 $17 $2 #
transform $-1 1 0 0 0 1 0 0 0 1 75.848261970885346 48.859132345056373 14.180286956030507 1 rotate no_reflect no_shear #
lump $-1 $-1 $18 $3 #
transform $-1 1 0 0 0 1 0 0 0 1 75.848261970885346 48.859132345056373 14.180286956030507 1 rotate no_reflect no_shear #
lump $-1 $-1 $19 $4 #
transform $-1 1 0 0 0 1 0 0 0 1 75.848261970885346 48.859132345056373 14.180286956030507 1 rotate no_reflect no_shear #
shell $-1 $-1 $-1 $20 $-1 $5 #
shell $-1 $-1 $-1 $21 $-1 $7 #
shell $-1 $-1 $-1 $22 $-1 $9 #
shell $-1 $-1 $-1 $23 $-1 $11 #
shell $-1 $-1 $-1 $24 $-1 $13 #
face $-1 $25 $26 $15 $-1 $27 forward single #
face $-1 $28 $29 $16 $-1 $30 reversed single #
face $-1 $31 $32 $17 $-1 $33 reversed single #
face $-1 $34 $35 $18 $-1 $36 forward single #
face $-1 $37 $38 $19 $-1 $39 forward single #
face $-1 $40 $41 $15 $-1 $42 reversed single #
loop $-1 $-1 $43 $20 #
plane-surface $-1 0 0 14.180286956030507 0 0 1 1 0 0 forward_v I I I I #
face $-1 $44 $45 $16 $-1 $46 reversed single #
loop $-1 $-1 $47 $21 #
plane-surface $-1 -68.086901510184077 0 9.9337741906035522 0 0 1 1 0 0 forward_v I I I I #
face $-1 $48 $49 $17 $-1 $50 reversed single #
loop $-1 $-1 $51 $22 #
plane-surface $-1 -39.979054578111587 -142.25283924802446 122.76015539302634 -1 0 0 0 -0.61566148304635926 0.78801074757464917 forward_v I I I I #
face $-1 $52 $53 $18 $-1 $54 forward single #
loop $-1 $55 $56 $23 #
cone-surface $-1 -54.512259200519594 -41.176328805500127 7.8439203784746994 0 0.61566148304635926 -0.78801074757464917 2 0 0 1 I I 0 1 2 forward I I I I #
face $-1 $57 $58 $19 $-1 $59 forward single #
loop $-1 $60 $61 $24 #
cone-surface $-1 -45.792336427074787 -41.176328805500127 7.8439203784746994 0 0.61566148304635926 -0.78801074757464917 2 0 0 1 I I 0 1 2 forward I I I I #
face $-1 $62 $63 $15 $-1 $64 reversed single #
loop $-1 $-1 $65 $25 #
plane-surface $-1 0 0 -14.180286956030507 0 0 1 1 0 0 forward_v I I I I #
coedge $-1 $66 $67 $68 $69 forward $26 $-1 #
face $-1 $70 $71 $16 $-1 $72 reversed single #
loop $-1 $-1 $73 $28 #
plane-surface $-1 -60.325541049482801 0 12.057030573317029 -1 0 0 0 0 1 forward_v I I I I #
coedge $-1 $74 $75 $76 $77 forward $29 $-1 #
face $-1 $78 $79 $17 $-1 $80 forward single #
loop $-1 $-1 $81 $31 #
plane-surface $-1 -50.15229781379719 -48.859132345056366 3.2216641571959457 0 -0.61566148304635926 0.78801074757464917 1 0 0 forward_v I I I I #
coedge $-1 $82 $83 $84 $85 reversed $32 $-1 #
face $-1 $-1 $86 $18 $-1 $87 forward single #
loop $-1 $88 $89 $34 #
cone-surface $-1 -54.512259200519594 -39.891062417128097 6.1988544527615161 0 0.61566148304635926 -0.78801074757464917 1 0 0 1 I I -0.70710678118654746 0.70710678118654746 1 forward I I I I #
loop $-1 $-1 $90 $23 #
coedge $-1 $56 $56 $91 $92 reversed $35 $-1 #
face $-1 $-1 $93 $19 $-1 $94 forward single #
loop $-1 $95 $96 $37 #
cone-surface $-1 -45.792336427074787 -39.891062417128097 6.1988544527615161 0 0.61566148304635926 -0.78801074757464917 1 0 0 1 I I -0.70710678118654746 0.70710678118654746 1 forward I I I I #
loop $-1 $-1 $97 $24 #
coedge $-1 $61 $61 $98 $99 reversed $38 $-1 #
face $-1 $100 $101 $15 $-1 $102 reversed single #
loop $-1 $-1 $103 $40 #
plane-surface $-1 0 -48.859132345056373 0 0 1 0 0 0 1 forward_v I I I I #
coedge $-1 $104 $105 $106 $107 forward $41 $-1 #
coedge $-1 $108 $43 $109 $110 forward $26 $-1 #
coedge $-1 $43 $108 $111 $112 forward $26 $-1 #
coedge $-1 $113 $114 $43 $69 reversed $115 $-1 #
edge $-1 $116 -48.859132345056373 $117 48.859132345056373 $68 $118 forward 7 unknown #
face $-1 $119 $120 $16 $-1 $121 reversed single #
loop $-1 $-1 $122 $44 #
plane-surface $-1 0 48.859132345056373 0 0 -1 0 0 0 -1 forward_v I I I I #
coedge $-1 $76 $123 $124 $125 reversed $45 $-1 #
coedge $-1 $126 $47 $127 $128 reversed $29 $-1 #
coedge $-1 $47 $126 $129 $130 reversed $29 $-1 #
coedge $-1 $131 $73 $47 $77 reversed $45 $-1 #
edge $-1 $132 -48.859132345056373 $133 48.859132345056373 $76 $134 forward 7 unknown #
face $-1 $135 $136 $17 $-1 $137 forward single #
loop $-1 $-1 $138 $48 #
plane-surface $-1 -60.325541049482801 0 12.057030573317029 -1 0 0 0 0 1 forward_v I I I I #
coedge $-1 $139 $140 $141 $142 reversed $49 $-1 #
coedge $-1 $83 $51 $143 $144 reversed $32 $-1 #
coedge $-1 $51 $82 $139 $145 reversed $32 $-1 #
coedge $-1 $141 $146 $51 $85 forward $136 $-1 #
edge $-1 $147 22.267287278955855 $148 36.293684547417044 $84 $149 forward 7 unknown #
loop $-1 $-1 $91 $52 #
plane-surface $-1 -50.15229781379719 -48.859132345056366 3.2216641571959457 0 -0.61566148304635926 0.78801074757464917 1 0 0 forward_v I I I I #
loop $-1 $-1 $150 $34 #
coedge $-1 $89 $89 $90 $151 reversed $53 $-1 #
coedge $-1 $90 $90 $89 $151 forward $55 $-1 #
coedge $-1 $91 $91 $56 $92 forward $86 $-1 #
edge $-1 $152 1.5749613827085417e-015 $152 6.2831853071796022 $91 $153 forward 7 unknown #
loop $-1 $-1 $98 $57 #
plane-surface $-1 -50.15229781379719 -48.859132345056366 3.2216641571959457 0 -0.61566148304635926 0.78801074757464917 1 0 0 forward_v I I I I #
loop $-1 $-1 $154 $37 #
coedge $-1 $96 $96 $97 $155 reversed $58 $-1 #
coedge $-1 $97 $97 $96 $155 forward $60 $-1 #
coedge $-1 $98 $98 $61 $99 forward $93 $-1 #
edge $-1 $156 1.5749613827085417e-015 $156 6.2831853071796022 $98 $157 forward 7 unknown #
face $-1 $158 $159 $15 $-1 $160 reversed single #
loop $-1 $-1 $161 $62 #
plane-surface $-1 -75.848261970885346 0 0 1 0 0 0 0 -1 forward_v I I I I #
coedge $-1 $162 $111 $163 $164 forward $63 $-1 #
coedge $-1 $165 $65 $162 $166 forward $41 $-1 #
coedge $-1 $65 $165 $167 $168 forward $41 $-1 #
coedge $-1 $114 $113 $65 $107 reversed $115 $-1 #
edge $-1 $169 -48.859132345056373 $170 48.859132345056373 $106 $171 forward 7 unknown #
coedge $-1 $67 $66 $172 $173 forward $26 $-1 #
coedge $-1 $174 $175 $66 $110 reversed $159 $-1 #
edge $-1 $117 -75.848261970885346 $176 75.848261970885346 $109 $177 forward 7 unknown #
coedge $-1 $103 $178 $67 $112 reversed $63 $-1 #
edge $-1 $179 -75.848261970885346 $116 75.848261970885346 $111 $180 forward 7 unknown #
coedge $-1 $106 $68 $178 $181 forward $115 $-1 #
coedge $-1 $68 $106 $174 $182 reversed $115 $-1 #
loop $-1 $-1 $113 $158 #
vertex $-1 $69 $183 #
vertex $-1 $69 $184 #
straight-curve $-1 75.848261970885346 0 14.180286956030507 0 1 0 I I #
face $-1 $185 $186 $16 $-1 $187 forward single #
loop $-1 $-1 $188 $70 #
plane-surface $-1 -75.848261970885346 0 0 1 0 0 0 0 -1 forward_v I I I I #
coedge $-1 $129 $189 $131 $190 forward $71 $-1 #
coedge $-1 $73 $131 $191 $192 reversed $45 $-1 #
coedge $-1 $193 $127 $73 $125 forward $194 $-1 #
edge $-1 $133 3.9052589039450378 $195 8.1517716693719908 $124 $196 forward 7 unknown #
coedge $-1 $75 $74 $188 $197 reversed $29 $-1 #
coedge $-1 $124 $198 $74 $128 forward $194 $-1 #
edge $-1 $199 -41.804811215793308 $133 -26.282090294390763 $127 $200 forward 7 unknown #
coedge $-1 $201 $122 $75 $130 forward $71 $-1 #
edge $-1 $132 26.282090294390763 $202 41.804811215793308 $129 $203 forward 7 unknown #
coedge $-1 $123 $76 $122 $190 reversed $45 $-1 #
vertex $-1 $130 $204 #
vertex $-1 $128 $205 #
straight-curve $-1 -60.325541049482801 0 9.9337741906035522 0 -1 0 I I #
face $-1 $-1 $206 $17 $-1 $207 reversed single #
loop $-1 $-1 $141 $78 #
plane-surface $-1 0 0 14.180286956030507 0 0 1 1 0 0 forward_v I I I I #
coedge $-1 $208 $209 $140 $210 reversed $79 $-1 #
coedge $-1 $211 $81 $83 $145 forward $49 $-1 #
coedge $-1 $81 $211 $138 $210 forward $49 $-1 #
coedge $-1 $212 $84 $81 $142 forward $136 $-1 #
edge $-1 $148 14.902905671212991 $213 35.249392142584206 $141 $214 forward 7 unknown #
coedge $-1 $215 $216 $82 $144 forward $206 $-1 #
edge $-1 $217 -58.15841353931723 $147 -47.199790740482662 $143 $218 forward 7 unknown #
edge $-1 $148 -17.799753761775243 $217 9.1534652039358102e-015 $83 $219 forward 7 unknown #
coedge $-1 $84 $212 $215 $220 forward $136 $-1 #
vertex $-1 $144 $221 #
vertex $-1 $85 $222 #
straight-curve $-1 -39.979054578111587 -71.126419624012229 14.180286956030507 0 1 0 I I #
coedge $-1 $150 $150 $-1 $223 reversed $88 $-1 #
edge $-1 $224 0 $224 6.2831853071796004 $89 $225 forward 7 unknown #
vertex $-1 $92 $226 #
ellipse-curve $-1 -54.512259200519594 -41.845933710825783 8.7009755566132192 0 -0.61566148304635926 0.78801074757464917 2 0 0 1 I I #
coedge $-1 $154 $154 $-1 $227 reversed $95 $-1 #
edge $-1 $228 0 $228 6.2831853071796004 $96 $229 forward 7 unknown #
vertex $-1 $99 $230 #
ellipse-curve $-1 -45.792336427074787 -41.845933710825783 8.7009755566132192 0 -0.61566148304635926 0.78801074757464917 2 0 0 1 I I #
face $-1 $-1 $115 $15 $-1 $231 reversed single #
loop $-1 $-1 $174 $100 #
plane-surface $-1 0 48.859132345056373 0 0 -1 0 0 0 -1 forward_v I I I I #
coedge $-1 $232 $172 $175 $233 forward $101 $-1 #
coedge $-1 $178 $103 $104 $166 reversed $63 $-1 #
coedge $-1 $172 $232 $103 $164 reversed $101 $-1 #
edge $-1 $179 -14.180286956030507 $234 14.180286956030507 $163 $235 forward 7 unknown #
coedge $-1 $105 $104 $232 $236 forward $41 $-1 #
edge $-1 $170 -75.848261970885346 $234 75.848261970885346 $162 $237 forward 7 unknown #
coedge $-1 $175 $174 $105 $168 reversed $159 $-1 #
edge $-1 $238 -75.848261970885346 $169 75.848261970885346 $167 $239 forward 7 unknown #
vertex $-1 $107 $240 #
vertex $-1 $181 $241 #
straight-curve $-1 75.848261970885346 0 -14.180286956030507 0 -1 0 I I #
coedge $-1 $161 $163 $108 $173 reversed $101 $-1 #
edge $-1 $176 -48.859132345056373 $179 48.859132345056373 $172 $242 forward 7 unknown #
coedge $-1 $167 $109 $114 $182 forward $159 $-1 #
coedge $-1 $109 $167 $161 $233 reversed $159 $-1 #
vertex $-1 $110 $243 #
straight-curve $-1 0 48.859132345056373 14.180286956030507 -1 0 0 I I #
coedge $-1 $111 $162 $113 $181 reversed $63 $-1 #
vertex $-1 $173 $244 #
straight-curve $-1 0 -48.859132345056373 14.180286956030507 1 0 0 I I #
edge $-1 $116 -14.180286956030507 $170 14.180286956030507 $113 $245 forward 7 unknown #
edge $-1 $117 -14.180286956030507 $169 14.180286956030507 $114 $246 forward 7 unknown #
point $-1 75.848261970885346 -48.859132345056373 14.180286956030507 #
point $-1 75.848261970885346 48.859132345056373 14.180286956030507 #
face $-1 $-1 $194 $16 $-1 $247 reversed single #
loop $-1 $-1 $191 $119 #
plane-surface $-1 0 0 14.180286956030507 0 0 1 1 0 0 forward_v I I I I #
coedge $-1 $248 $249 $126 $197 forward $120 $-1 #
coedge $-1 $122 $201 $250 $251 reversed $71 $-1 #
edge $-1 $252 -8.1517716693719908 $132 -3.9052589039450378 $122 $253 forward 7 unknown #
coedge $-1 $250 $254 $123 $192 forward $186 $-1 #
edge $-1 $195 -48.859132345056373 $252 48.859132345056373 $191 $255 forward 7 unknown #
coedge $-1 $198 $124 $254 $256 reversed $194 $-1 #
loop $-1 $-1 $124 $185 #
vertex $-1 $125 $257 #
straight-curve $-1 -60.325541049482801 -48.859132345056373 6.0285152866585143 0 0 1 I I #
edge $-1 $202 -48.859132345056373 $199 48.859132345056373 $188 $258 forward 7 unknown #
coedge $-1 $127 $193 $248 $259 forward $194 $-1 #
vertex $-1 $197 $260 #
straight-curve $-1 -34.043450755092039 -48.859132345056373 9.9337741906035522 1 0 0 I I #
coedge $-1 $189 $129 $249 $261 reversed $71 $-1 #
vertex $-1 $197 $262 #
straight-curve $-1 -34.043450755092039 48.859132345056373 9.9337741906035522 -1 0 0 I I #
point $-1 -60.325541049482801 48.859132345056373 9.9337741906035522 #
point $-1 -60.325541049482801 -48.859132345056373 9.9337741906035522 #
loop $-1 $-1 $143 $135 #
plane-surface $-1 0 -48.859132345056373 0 0 1 0 0 0 1 forward_v I I I I #
coedge $-1 $209 $138 $263 $264 reversed $79 $-1 #
coedge $-1 $138 $208 $212 $265 reversed $79 $-1 #
edge $-1 $266 -9.1534652039358102e-015 $213 17.799753761775243 $138 $267 forward 7 unknown #
coedge $-1 $140 $139 $216 $268 reversed $49 $-1 #
coedge $-1 $146 $141 $209 $265 forward $136 $-1 #
vertex $-1 $265 $269 #
straight-curve $-1 -25.076148906898595 -34.832735076595178 14.180286956030507 -1 0 0 I I #
coedge $-1 $263 $143 $146 $220 reversed $206 $-1 #
coedge $-1 $143 $263 $211 $268 forward $206 $-1 #
vertex $-1 $144 $270 #
straight-curve $-1 -39.979054578111587 -48.859132345056373 61.380077696513169 0 0 1 I I #
straight-curve $-1 -39.979054578111587 -48.859132345056366 3.2216641571959457 0 -0.78801074757464917 -0.61566148304635926 I I #
edge $-1 $271 -60.325541049482801 $147 -39.979054578111587 $215 $272 forward 7 unknown #
point $-1 -39.979054578111587 -48.859132345056373 14.180286956030507 #
point $-1 -39.979054578111587 -34.832735076595185 14.180286956030505 #
edge $-1 $273 1 $273 0 $150 $-1 forward 7 unknown #
vertex $-1 $151 $274 #
ellipse-curve $-1 -54.512259200519594 -40.506723900174457 6.9868652003361653 0 -0.61566148304635926 0.78801074757464917 2 0 0 1 I I #
point $-1 -52.512259200519594 -41.84593371082579 8.7009755566132334 #
edge $-1 $275 1 $275 0 $154 $-1 forward 7 unknown #
vertex $-1 $155 $276 #
ellipse-curve $-1 -45.792336427074787 -40.506723900174457 6.9868652003361653 0 -0.61566148304635926 0.78801074757464917 2 0 0 1 I I #
point $-1 -43.792336427074787 -41.84593371082579 8.7009755566132334 #
plane-surface $-1 75.848261970885346 0 0 -1 0 0 0 0 1 forward_v I I I I #
coedge $-1 $163 $161 $165 $236 reversed $101 $-1 #
edge $-1 $176 -14.180286956030507 $238 14.180286956030507 $175 $277 forward 7 unknown #
vertex $-1 $236 $278 #
straight-curve $-1 -75.848261970885346 -48.859132345056373 0 0 0 -1 I I #
edge $-1 $234 -48.859132345056373 $238 48.859132345056373 $232 $279 forward 7 unknown #
straight-curve $-1 0 -48.859132345056373 -14.180286956030507 -1 0 0 I I #
vertex $-1 $168 $280 #
straight-curve $-1 0 48.859132345056373 -14.180286956030507 1 0 0 I I #
point $-1 75.848261970885346 48.859132345056373 -14.180286956030507 #
point $-1 75.848261970885346 -48.859132345056373 -14.180286956030507 #
straight-curve $-1 -75.848261970885346 0 14.180286956030507 0 -1 0 I I #
point $-1 -75.848261970885346 48.859132345056373 14.180286956030507 #
point $-1 -75.848261970885346 -48.859132345056373 14.180286956030507 #
straight-curve $-1 75.848261970885346 -48.859132345056373 0 0 0 -1 I I #
straight-curve $-1 75.848261970885346 48.859132345056373 0 0 0 -1 I I #
plane-surface $-1 0 -48.859132345056373 0 0 1 0 0 0 1 forward_v I I I I #
coedge $-1 $281 $188 $198 $259 reversed $120 $-1 #
coedge $-1 $188 $281 $201 $261 forward $120 $-1 #
coedge $-1 $282 $191 $189 $251 forward $186 $-1 #
edge $-1 $252 60.325541049482801 $283 75.848261970885346 $189 $284 forward 7 unknown #
vertex $-1 $251 $285 #
straight-curve $-1 -60.325541049482801 48.859132345056373 6.0285152866585143 0 0 -1 I I #
coedge $-1 $191 $282 $193 $256 forward $186 $-1 #
straight-curve $-1 -60.325541049482801 0 14.180286956030507 0 1 0 I I #
edge $-1 $286 -75.848261970885346 $195 -60.325541049482801 $193 $287 forward 7 unknown #
point $-1 -60.325541049482801 -48.859132345056373 14.180286956030505 #
straight-curve $-1 -75.848261970885346 0 9.9337741906035522 0 -1 0 I I #
edge $-1 $286 -14.180286956030507 $199 -9.9337741906035522 $248 $288 forward 7 unknown #
point $-1 -75.848261970885346 -48.859132345056373 9.9337741906035522 #
edge $-1 $283 -14.180286956030507 $202 -9.9337741906035522 $201 $289 forward 7 unknown #
point $-1 -75.848261970885346 48.859132345056373 9.9337741906035522 #
coedge $-1 $216 $215 $208 $264 forward $206 $-1 #
edge $-1 $271 47.199790740482662 $266 58.15841353931723 $263 $290 forward 7 unknown #
edge $-1 $213 34.832735076595185 $271 48.859132345056373 $212 $291 forward 7 unknown #
vertex $-1 $264 $292 #
straight-curve $-1 -60.325541049482794 -48.859132345056366 3.2216641571959457 0 0.78801074757464917 0.61566148304635926 I I #
edge $-1 $266 -35.249392142584199 $217 -14.902905671212991 $216 $293 forward 7 unknown #
point $-1 -60.325541049482801 -34.832735076595185 14.180286956030507 #
point $-1 -39.979054578111587 -48.859132345056373 3.2216641571959399 #
vertex $-1 $220 $294 #
straight-curve $-1 0 -48.859132345056373 14.180286956030507 1 0 0 I I #
vertex $-1 $223 $295 #
point $-1 -52.512259200519594 -40.506723900174457 6.9868652003361653 #
vertex $-1 $227 $296 #
point $-1 -43.792336427074787 -40.506723900174457 6.9868652003361653 #
straight-curve $-1 -75.848261970885346 48.859132345056373 0 0 0 -1 I I #
point $-1 -75.848261970885346 -48.859132345056373 -14.180286956030507 #
straight-curve $-1 -75.848261970885346 0 -14.180286956030507 0 1 0 I I #
point $-1 -75.848261970885346 48.859132345056373 -14.180286956030507 #
coedge $-1 $249 $248 $282 $297 reversed $120 $-1 #
coedge $-1 $254 $250 $281 $297 forward $186 $-1 #
vertex $-1 $251 $298 #
straight-curve $-1 0 48.859132345056373 14.180286956030507 -1 0 0 I I #
point $-1 -60.325541049482801 48.859132345056373 14.180286956030505 #
vertex $-1 $297 $299 #
straight-curve $-1 0 -48.859132345056373 14.180286956030507 1 0 0 I I #
straight-curve $-1 -75.848261970885346 -48.859132345056373 0 0 0 -1 I I #
straight-curve $-1 -75.848261970885346 48.859132345056373 0 0 0 -1 I I #
straight-curve $-1 -60.325541049482794 -48.859132345056373 61.380077696513169 0 0 -1 I I #
straight-curve $-1 -60.325541049482801 0 14.180286956030507 0 -1 0 I I #
point $-1 -60.325541049482794 -48.859132345056373 3.2216641571959399 #
straight-curve $-1 -25.076148906898595 -48.859132345056373 3.2216641571959381 1 0 0 I I #
point $-1 -60.325541049482801 -48.859132345056373 14.180286956030505 #
point $-1 -54.512259200519594 -39.275400934081738 5.410843705186867 #
point $-1 -45.792336427074787 -39.275400934081738 5.410843705186867 #
edge $-1 $283 -48.859132345056373 $286 48.859132345056373 $281 $300 forward 7 unknown #
point $-1 -75.848261970885346 48.859132345056373 14.180286956030507 #
point $-1 -75.848261970885346 -48.859132345056373 14.180286956030507 #
straight-curve $-1 -75.848261970885346 0 14.180286956030507 0 -1 0 I I #
End-of-ACIS-data 