500 0 4 0           
7 Unknown 11 ACIS 5.0 NT 24 Fri Mar 26 19:48:02 1999 
-1 9.9999999999999995e-007 1e-010 
body $-1 $4 $-1 $5 #
body $-1 $6 $-1 $7 #
body $-1 $8 $-1 $9 #
body $-1 $10 $-1 $11 #
lump $-1 $-1 $12 $0 #
transform $-1 1 0 0 0 1 0 0 0 1 64.420911282692956 37.35870230063356 11.764679141500519 1 rotate no_reflect no_shear #
lump $-1 $-1 $13 $1 #
transform $-1 1 0 0 0 1 0 0 0 1 64.420911282692956 37.35870230063356 11.764679141500519 1 rotate no_reflect no_shear #
lump $-1 $-1 $14 $2 #
transform $-1 1 0 0 0 1 0 0 0 1 64.420911282692956 37.35870230063356 11.764679141500519 1 rotate no_reflect no_shear #
lump $-1 $-1 $15 $3 #
transform $-1 1 0 0 0 1 0 0 0 1 64.420911282692956 37.35870230063356 11.764679141500519 1 rotate no_reflect no_shear #
shell $-1 $-1 $-1 $16 $-1 $4 #
shell $-1 $-1 $-1 $17 $-1 $6 #
shell $-1 $-1 $-1 $18 $-1 $8 #
shell $-1 $-1 $-1 $19 $-1 $10 #
face $-1 $20 $21 $12 $-1 $22 forward single #
face $-1 $23 $24 $13 $-1 $25 reversed single #
face $-1 $26 $27 $14 $-1 $28 forward single #
face $-1 $29 $30 $15 $-1 $31 reversed single #
face $-1 $32 $33 $12 $-1 $34 reversed single #
loop $-1 $-1 $35 $16 #
plane-surface $-1 0 0 11.764679141500519 0 0 1 1 0 0 forward_v I I I I #
face $-1 $36 $37 $13 $-1 $38 reversed single #
loop $-1 $-1 $39 $17 #
plane-surface $-1 -78.959529928989454 -34.988424817542523 0 1 0 0 0 0 -1 forward_v I I I I #
face $-1 $40 $41 $14 $-1 $42 forward single #
loop $-1 $-1 $43 $18 #
plane-surface $-1 47.911797925805374 -111.2593366930856 113.22534913243157 -1 0 0 0 -0.57357644374324357 0.81915203911291934 forward_v I I I I #
face $-1 $44 $45 $15 $-1 $46 reversed single #
loop $-1 $47 $48 $19 #
cone-surface $-1 31.908756355352835 -33.988151142216168 9.0720240869917763 0 0.57357644374324357 -0.81915203911291934 0.5 0 0 1 I I 0 1 0.5 forward I I I I #
face $-1 $49 $50 $12 $-1 $51 reversed single #
loop $-1 $-1 $52 $20 #
plane-surface $-1 0 0 -11.764679141500519 0 0 1 1 0 0 forward_v I I I I #
coedge $-1 $53 $54 $55 $56 forward $21 $-1 #
face $-1 $57 $58 $13 $-1 $59 forward single #
loop $-1 $-1 $60 $23 #
plane-surface $-1 -71.690220605841205 -32.618147334451486 0 0 -1 0 0 0 -1 forward_v I I I I #
coedge $-1 $61 $62 $63 $64 forward $24 $-1 #
face $-1 $65 $66 $14 $-1 $67 forward single #
loop $-1 $-1 $68 $26 #
plane-surface $-1 31.908756355352835 -37.358702300633553 7.6843074549707637 0 -0.57357644374324357 0.81915203911291934 1 0 0 forward_v I I I I #
coedge $-1 $69 $70 $71 $72 reversed $27 $-1 #
face $-1 $73 $74 $15 $-1 $75 forward single #
loop $-1 $76 $77 $29 #
cone-surface $-1 31.908756355352835 -33.387893162342806 8.2147668659696826 0 0.57357644374324357 -0.81915203911291934 0.25 0 0 1 I I -0.70710678118654746 0.70710678118654746 0.25 forward I I I I #
loop $-1 $-1 $78 $19 #
coedge $-1 $48 $48 $79 $80 reversed $30 $-1 #
face $-1 $81 $82 $12 $-1 $83 reversed single #
loop $-1 $-1 $84 $32 #
plane-surface $-1 0 -37.35870230063356 0 0 1 0 0 0 1 forward_v I I I I #
coedge $-1 $85 $86 $87 $88 forward $33 $-1 #
coedge $-1 $89 $35 $90 $91 forward $21 $-1 #
coedge $-1 $35 $89 $92 $93 forward $21 $-1 #
coedge $-1 $94 $95 $35 $56 reversed $96 $-1 #
edge $-1 $97 -37.35870230063356 $98 37.35870230063356 $55 $99 forward 7 unknown #
face $-1 $100 $101 $13 $-1 $102 reversed single #
loop $-1 $-1 $103 $36 #
plane-surface $-1 0 0 11.764679141500519 0 0 1 1 0 0 forward_v I I I I #
coedge $-1 $104 $105 $106 $107 reversed $37 $-1 #
coedge $-1 $108 $39 $109 $110 reversed $24 $-1 #
coedge $-1 $39 $108 $111 $112 reversed $24 $-1 #
coedge $-1 $105 $104 $39 $64 reversed $37 $-1 #
edge $-1 $113 -11.764679141500519 $114 11.764679141500519 $63 $115 forward 7 unknown #
face $-1 $116 $117 $14 $-1 $118 forward single #
loop $-1 $-1 $119 $40 #
plane-surface $-1 15.905714784900297 -111.2593366930856 113.22534913243157 1 0 0 0 0.57357644374324357 -0.81915203911291934 forward_v I I I I #
coedge $-1 $120 $121 $122 $123 reversed $41 $-1 #
coedge $-1 $70 $43 $121 $124 forward $27 $-1 #
coedge $-1 $43 $69 $125 $126 reversed $27 $-1 #
coedge $-1 $127 $122 $43 $72 forward $117 $-1 #
edge $-1 $128 -24.098340624868921 $129 -18.27096604590924 $71 $130 forward 7 unknown #
face $-1 $131 $132 $15 $-1 $133 forward single #
loop $-1 $-1 $134 $44 #
plane-surface $-1 47.911797925805374 -111.2593366930856 113.22534913243157 -1 0 0 0 -0.57357644374324357 0.81915203911291934 forward_v I I I I #
loop $-1 $-1 $135 $29 #
coedge $-1 $77 $77 $78 $136 forward $45 $-1 #
coedge $-1 $78 $78 $77 $136 reversed $47 $-1 #
coedge $-1 $79 $79 $48 $80 forward $132 $-1 #
edge $-1 $137 -2.0377528775243674e-015 $137 6.2831853071795987 $79 $138 forward 7 unknown #
face $-1 $139 $140 $12 $-1 $141 reversed single #
loop $-1 $-1 $142 $49 #
plane-surface $-1 -64.420911282692956 0 0 1 0 0 0 0 -1 forward_v I I I I #
coedge $-1 $143 $92 $144 $145 forward $50 $-1 #
coedge $-1 $146 $52 $143 $147 forward $33 $-1 #
coedge $-1 $52 $146 $148 $149 forward $33 $-1 #
coedge $-1 $95 $94 $52 $88 reversed $96 $-1 #
edge $-1 $150 -37.35870230063356 $151 37.35870230063356 $87 $152 forward 7 unknown #
coedge $-1 $54 $53 $153 $154 forward $21 $-1 #
coedge $-1 $155 $156 $53 $91 reversed $140 $-1 #
edge $-1 $98 -64.420911282692956 $157 64.420911282692956 $90 $158 forward 7 unknown #
coedge $-1 $84 $159 $54 $93 reversed $50 $-1 #
edge $-1 $160 -64.420911282692956 $97 64.420911282692956 $92 $161 forward 7 unknown #
coedge $-1 $87 $55 $159 $162 forward $96 $-1 #
coedge $-1 $55 $87 $155 $163 reversed $96 $-1 #
loop $-1 $-1 $94 $139 #
vertex $-1 $56 $164 #
vertex $-1 $56 $165 #
straight-curve $-1 64.420911282692956 0 11.764679141500519 0 1 0 I I #
face $-1 $166 $167 $13 $-1 $168 reversed single #
loop $-1 $-1 $169 $57 #
plane-surface $-1 0 0 -11.764679141500519 0 0 1 1 0 0 forward_v I I I I #
coedge $-1 $170 $171 $172 $173 forward $58 $-1 #
coedge $-1 $63 $60 $174 $175 reversed $37 $-1 #
coedge $-1 $60 $63 $176 $177 reversed $37 $-1 #
coedge $-1 $178 $179 $60 $107 forward $180 $-1 #
edge $-1 $181 -11.764679141500519 $182 11.764679141500519 $106 $183 forward 7 unknown #
coedge $-1 $62 $61 $184 $185 reversed $24 $-1 #
coedge $-1 $174 $186 $61 $110 forward $101 $-1 #
edge $-1 $187 -2.3702774830910371 $114 2.3702774830910371 $61 $188 forward 7 unknown #
coedge $-1 $171 $176 $62 $112 forward $58 $-1 #
edge $-1 $113 -2.3702774830910371 $189 2.3702774830910371 $62 $190 forward 7 unknown #
vertex $-1 $177 $191 #
vertex $-1 $175 $192 #
straight-curve $-1 -78.959529928989454 -32.618147334451486 0 0 0 -1 I I #
face $-1 $193 $194 $14 $-1 $195 reversed single #
loop $-1 $-1 $196 $65 #
plane-surface $-1 0 0 11.764679141500519 0 0 1 1 0 0 forward_v I I I I #
coedge $-1 $197 $198 $196 $199 reversed $66 $-1 #
coedge $-1 $200 $68 $198 $201 reversed $41 $-1 #
coedge $-1 $68 $200 $69 $124 reversed $41 $-1 #
coedge $-1 $71 $196 $68 $123 forward $117 $-1 #
edge $-1 $202 -0.048663392776120418 $128 31.957419748128956 $122 $203 forward 7 unknown #
edge $-1 $128 -7.1139108501399644 $204 8.8770546250341341e-015 $69 $205 forward 7 unknown #
coedge $-1 $206 $207 $70 $126 forward $208 $-1 #
edge $-1 $129 44.847995424715265 $204 48.928367111245031 $125 $209 forward 7 unknown #
coedge $-1 $210 $71 $207 $211 forward $117 $-1 #
vertex $-1 $123 $212 #
vertex $-1 $211 $213 #
straight-curve $-1 47.911797925805374 -55.6296683465428 11.764679141500523 0 -1 0 I I #
face $-1 $214 $215 $15 $-1 $216 forward single #
loop $-1 $217 $79 $73 #
plane-surface $-1 31.908756355352835 -37.358702300633553 7.6843074549707637 0 -0.57357644374324357 0.81915203911291934 1 0 0 forward_v I I I I #
coedge $-1 $218 $219 $220 $221 reversed $74 $-1 #
coedge $-1 $135 $135 $-1 $222 forward $76 $-1 #
edge $-1 $223 0 $223 6.2831853071796004 $77 $224 forward 7 unknown #
vertex $-1 $80 $225 #
ellipse-curve $-1 31.908756355352835 -34.445015011153721 9.7244932982356378 0 0.57357644374324357 -0.81915203911291934 0.5 0 0 1 I I #
face $-1 $-1 $96 $12 $-1 $226 reversed single #
loop $-1 $-1 $155 $81 #
plane-surface $-1 0 37.35870230063356 0 0 -1 0 0 0 -1 forward_v I I I I #
coedge $-1 $227 $153 $156 $228 forward $82 $-1 #
coedge $-1 $159 $84 $85 $147 reversed $50 $-1 #
coedge $-1 $153 $227 $84 $145 reversed $82 $-1 #
edge $-1 $160 -11.764679141500519 $229 11.764679141500519 $144 $230 forward 7 unknown #
coedge $-1 $86 $85 $227 $231 forward $33 $-1 #
edge $-1 $151 -64.420911282692956 $229 64.420911282692956 $143 $232 forward 7 unknown #
coedge $-1 $156 $155 $86 $149 reversed $140 $-1 #
edge $-1 $233 -64.420911282692956 $150 64.420911282692956 $148 $234 forward 7 unknown #
vertex $-1 $88 $235 #
vertex $-1 $162 $236 #
straight-curve $-1 64.420911282692956 0 -11.764679141500519 0 -1 0 I I #
coedge $-1 $142 $144 $89 $154 reversed $82 $-1 #
edge $-1 $157 -37.35870230063356 $160 37.35870230063356 $153 $237 forward 7 unknown #
coedge $-1 $148 $90 $95 $163 forward $140 $-1 #
coedge $-1 $90 $148 $142 $228 reversed $140 $-1 #
vertex $-1 $91 $238 #
straight-curve $-1 0 37.35870230063356 11.764679141500519 -1 0 0 I I #
coedge $-1 $92 $143 $94 $162 reversed $50 $-1 #
vertex $-1 $154 $239 #
straight-curve $-1 0 -37.35870230063356 11.764679141500519 1 0 0 I I #
edge $-1 $97 -11.764679141500519 $151 11.764679141500519 $94 $240 forward 7 unknown #
edge $-1 $98 -11.764679141500519 $150 11.764679141500519 $95 $241 forward 7 unknown #
point $-1 64.420911282692956 -37.35870230063356 11.764679141500519 #
point $-1 64.420911282692956 37.35870230063356 11.764679141500519 #
face $-1 $242 $180 $13 $-1 $243 reversed single #
loop $-1 $-1 $244 $100 #
plane-surface $-1 0 -37.35870230063356 0 0 1 0 0 0 1 forward_v I I I I #
coedge $-1 $186 $245 $246 $247 forward $101 $-1 #
coedge $-1 $248 $103 $249 $250 forward $58 $-1 #
coedge $-1 $103 $111 $251 $252 forward $58 $-1 #
coedge $-1 $253 $254 $103 $173 reversed $255 $-1 #
edge $-1 $256 -37.35870230063356 $257 37.35870230063356 $172 $258 forward 7 unknown #
coedge $-1 $259 $109 $104 $175 forward $101 $-1 #
edge $-1 $114 -7.2693093231482493 $181 7.2693093231482493 $104 $260 forward 7 unknown #
coedge $-1 $111 $248 $105 $177 forward $58 $-1 #
edge $-1 $182 -7.2693093231482493 $113 7.2693093231482493 $105 $261 forward 7 unknown #
coedge $-1 $262 $106 $248 $263 reversed $180 $-1 #
coedge $-1 $106 $262 $259 $264 reversed $180 $-1 #
loop $-1 $-1 $106 $166 #
vertex $-1 $264 $265 #
vertex $-1 $177 $266 #
straight-curve $-1 -64.420911282692956 -32.618147334451486 0 0 0 1 I I #
coedge $-1 $244 $251 $108 $185 forward $167 $-1 #
edge $-1 $189 -11.764679141500519 $187 11.764679141500519 $108 $267 forward 7 unknown #
coedge $-1 $109 $169 $244 $268 forward $101 $-1 #
vertex $-1 $110 $269 #
straight-curve $-1 -78.959529928989454 -34.988424817542523 -11.764679141500519 0 1 0 I I #
vertex $-1 $112 $270 #
straight-curve $-1 -78.959529928989454 -34.988424817542523 11.764679141500519 0 -1 0 I I #
point $-1 -78.959529928989454 -32.618147334451486 11.764679141500519 #
point $-1 -78.959529928989454 -32.618147334451486 -11.764679141500519 #
face $-1 $271 $272 $14 $-1 $273 reversed single #
loop $-1 $-1 $274 $116 #
plane-surface $-1 -78.959529928989454 -34.988424817542523 0 1 0 0 0 0 -1 forward_v I I I I #
coedge $-1 $122 $275 $119 $199 forward $117 $-1 #
coedge $-1 $198 $119 $276 $277 reversed $66 $-1 #
coedge $-1 $119 $197 $120 $201 forward $66 $-1 #
edge $-1 $278 18.27096604590924 $202 24.098340624868921 $196 $279 forward 7 unknown #
coedge $-1 $121 $120 $206 $280 reversed $41 $-1 #
edge $-1 $281 -8.8770546250341341e-015 $202 7.1139108501399644 $198 $282 forward 7 unknown #
vertex $-1 $123 $283 #
straight-curve $-1 15.954378177676418 -31.531327721673875 11.764679141500519 1 0 0 I I #
vertex $-1 $280 $284 #
straight-curve $-1 47.911797925805374 -37.358702300633553 7.6843074549707637 0 -0.81915203911291934 -0.57357644374324357 I I #
coedge $-1 $276 $125 $200 $280 forward $208 $-1 #
coedge $-1 $125 $285 $127 $211 reversed $208 $-1 #
loop $-1 $-1 $276 $286 #
straight-curve $-1 47.911797925805374 -37.35870230063356 56.612674566215787 0 0 -1 I I #
coedge $-1 $287 $127 $288 $289 forward $117 $-1 #
edge $-1 $129 47.911797925805374 $290 64.420911282692956 $207 $291 forward 7 unknown #
point $-1 47.911797925805374 -31.531327721673879 11.764679141500519 #
point $-1 47.911797925805374 -37.35870230063356 11.764679141500519 #
face $-1 $292 $293 $15 $-1 $294 forward single #
loop $-1 $-1 $295 $131 #
plane-surface $-1 15.905714784900297 -111.2593366930856 113.22534913243157 1 0 0 0 0.57357644374324357 -0.81915203911291934 forward_v I I I I #
loop $-1 $-1 $296 $73 #
coedge $-1 $219 $134 $297 $298 forward $74 $-1 #
coedge $-1 $134 $218 $299 $300 reversed $74 $-1 #
coedge $-1 $301 $302 $134 $221 forward $293 $-1 #
edge $-1 $303 -24.098340624868921 $304 -18.27096604590924 $220 $305 forward 7 unknown #
edge $-1 $306 1 $306 0 $135 $-1 forward 7 unknown #
vertex $-1 $136 $307 #
ellipse-curve $-1 31.908756355352835 -33.531287273278615 8.4195548757479131 0 -0.57357644374324357 0.81915203911291934 0.5 0 0 1 I I #
point $-1 32.408756355352835 -34.445015011153721 9.7244932982356396 #
plane-surface $-1 64.420911282692956 0 0 -1 0 0 0 0 1 forward_v I I I I #
coedge $-1 $144 $142 $146 $231 reversed $82 $-1 #
edge $-1 $157 -11.764679141500519 $233 11.764679141500519 $156 $308 forward 7 unknown #
vertex $-1 $231 $309 #
straight-curve $-1 -64.420911282692956 -37.35870230063356 0 0 0 -1 I I #
edge $-1 $229 -37.35870230063356 $233 37.35870230063356 $227 $310 forward 7 unknown #
straight-curve $-1 0 -37.35870230063356 -11.764679141500519 -1 0 0 I I #
vertex $-1 $149 $311 #
straight-curve $-1 0 37.35870230063356 -11.764679141500519 1 0 0 I I #
point $-1 64.420911282692956 37.35870230063356 -11.764679141500519 #
point $-1 64.420911282692956 -37.35870230063356 -11.764679141500519 #
straight-curve $-1 -64.420911282692956 0 11.764679141500519 0 -1 0 I I #
point $-1 -64.420911282692956 37.35870230063356 11.764679141500519 #
point $-1 -64.420911282692956 -37.35870230063356 11.764679141500519 #
straight-curve $-1 64.420911282692956 -37.35870230063356 0 0 0 -1 I I #
straight-curve $-1 64.420911282692956 37.35870230063356 0 0 0 -1 I I #
face $-1 $312 $313 $13 $-1 $314 reversed single #
plane-surface $-1 -64.420911282692956 0 0 1 0 0 0 0 -1 forward_v I I I I #
coedge $-1 $315 $184 $186 $268 reversed $167 $-1 #
coedge $-1 $169 $259 $316 $317 forward $101 $-1 #
coedge $-1 $254 $253 $169 $247 reversed $255 $-1 #
edge $-1 $318 -37.35870230063356 $319 37.35870230063356 $246 $320 forward 7 unknown #
coedge $-1 $176 $170 $178 $263 forward $58 $-1 #
coedge $-1 $321 $322 $170 $250 reversed $313 $-1 #
edge $-1 $257 -64.420911282692956 $323 64.420911282692956 $249 $324 forward 7 unknown #
coedge $-1 $184 $315 $171 $252 reversed $167 $-1 #
edge $-1 $189 -78.959529928989454 $256 64.420911282692956 $251 $325 forward 7 unknown #
coedge $-1 $246 $172 $315 $326 forward $255 $-1 #
coedge $-1 $172 $246 $321 $327 reversed $255 $-1 #
loop $-1 $-1 $253 $312 #
vertex $-1 $173 $328 #
vertex $-1 $173 $329 #
straight-curve $-1 64.420911282692956 0 11.764679141500519 0 1 0 I I #
coedge $-1 $245 $174 $179 $264 forward $101 $-1 #
straight-curve $-1 -71.690220605841205 -32.618147334451486 -11.764679141500519 1 0 0 I I #
straight-curve $-1 -71.690220605841205 -32.618147334451486 11.764679141500519 -1 0 0 I I #
coedge $-1 $179 $178 $322 $330 forward $180 $-1 #
edge $-1 $323 -37.35870230063356 $182 32.618147334451486 $178 $331 forward 7 unknown #
edge $-1 $181 -32.618147334451486 $332 37.35870230063356 $179 $333 forward 7 unknown #
point $-1 -64.420911282692956 -32.618147334451486 -11.764679141500519 #
point $-1 -64.420911282692956 -32.618147334451486 11.764679141500519 #
straight-curve $-1 -78.959529928989454 -37.35870230063356 0 0 0 -1 I I #
edge $-1 $319 -136.11113188853415 $187 7.2693093231482493 $244 $334 forward 7 unknown #
point $-1 -78.959529928989454 -37.35870230063356 -11.764679141500519 #
point $-1 -78.959529928989454 -37.35870230063356 11.764679141500519 #
face $-1 $286 $335 $14 $-1 $336 reversed single #
loop $-1 $-1 $337 $193 #
plane-surface $-1 -71.690220605841205 -32.618147334451486 0 0 -1 0 0 0 -1 forward_v I I I I #
coedge $-1 $338 $339 $340 $341 forward $194 $-1 #
coedge $-1 $196 $342 $343 $344 forward $117 $-1 #
coedge $-1 $343 $206 $197 $277 forward $208 $-1 #
edge $-1 $281 -48.928367111245031 $278 -44.847995424715265 $276 $345 forward 7 unknown #
vertex $-1 $277 $346 #
straight-curve $-1 15.905714784900297 -55.6296683465428 11.764679141500523 0 1 0 I I #
edge $-1 $204 -31.957419748128956 $281 0.048663392776120418 $206 $347 forward 7 unknown #
vertex $-1 $280 $348 #
straight-curve $-1 15.905714784900297 -37.358702300633553 7.6843074549707637 0 0.81915203911291934 0.57357644374324357 I I #
point $-1 15.905714784900297 -31.531327721673879 11.764679141500519 #
point $-1 47.911797925805374 -37.35870230063356 7.6843074549707584 #
coedge $-1 $207 $349 $350 $351 reversed $208 $-1 #
face $-1 $352 $208 $14 $-1 $353 reversed single #
coedge $-1 $354 $210 $355 $356 forward $117 $-1 #
coedge $-1 $350 $357 $210 $289 reversed $358 $-1 #
edge $-1 $290 -37.35870230063356 $359 37.35870230063356 $288 $360 forward 7 unknown #
vertex $-1 $289 $361 #
straight-curve $-1 0 -37.35870230063356 11.764679141500519 1 0 0 I I #
face $-1 $362 $363 $15 $-1 $364 reversed single #
loop $-1 $-1 $365 $214 #
plane-surface $-1 0 0 11.764679141500519 0 0 1 1 0 0 forward_v I I I I #
coedge $-1 $366 $367 $365 $368 reversed $215 $-1 #
coedge $-1 $369 $297 $302 $370 reversed $217 $-1 #
coedge $-1 $296 $371 $218 $298 reversed $217 $-1 #
edge $-1 $303 -7.1139108501399644 $372 8.8770546250341341e-015 $218 $373 forward 7 unknown #
coedge $-1 $374 $375 $219 $300 forward $376 $-1 #
edge $-1 $304 44.847995424715265 $372 48.928367111245031 $299 $377 forward 7 unknown #
coedge $-1 $378 $220 $375 $379 forward $293 $-1 #
coedge $-1 $220 $365 $296 $370 forward $293 $-1 #
vertex $-1 $370 $380 #
vertex $-1 $379 $381 #
straight-curve $-1 47.911797925805374 -55.6296683465428 11.764679141500523 0 -1 0 I I #
vertex $-1 $222 $382 #
point $-1 32.408756355352835 -33.531287273278615 8.4195548757479131 #
straight-curve $-1 -64.420911282692956 37.35870230063356 0 0 0 -1 I I #
point $-1 -64.420911282692956 -37.35870230063356 -11.764679141500519 #
straight-curve $-1 -64.420911282692956 0 -11.764679141500519 0 1 0 I I #
point $-1 -64.420911282692956 37.35870230063356 -11.764679141500519 #
face $-1 $-1 $255 $13 $-1 $383 reversed single #
loop $-1 $-1 $321 $242 #
plane-surface $-1 0 37.35870230063356 0 0 -1 0 0 0 -1 forward_v I I I I #
coedge $-1 $251 $244 $253 $326 reversed $167 $-1 #
coedge $-1 $322 $321 $245 $317 reversed $313 $-1 #
edge $-1 $332 -64.420911282692956 $318 64.420911282692956 $316 $384 forward 7 unknown #
vertex $-1 $247 $385 #
vertex $-1 $326 $386 #
straight-curve $-1 64.420911282692956 0 -11.764679141500519 0 -1 0 I I #
coedge $-1 $316 $249 $254 $327 forward $313 $-1 #
coedge $-1 $249 $316 $262 $330 reversed $313 $-1 #
vertex $-1 $250 $387 #
straight-curve $-1 0 37.35870230063356 11.764679141500519 -1 0 0 I I #
straight-curve $-1 0 -37.35870230063356 11.764679141500519 1 0 0 I I #
edge $-1 $256 -11.764679141500519 $319 11.764679141500519 $253 $388 forward 7 unknown #
edge $-1 $257 -11.764679141500519 $318 11.764679141500519 $254 $389 forward 7 unknown #
point $-1 64.420911282692956 -37.35870230063356 11.764679141500519 #
point $-1 64.420911282692956 37.35870230063356 11.764679141500519 #
edge $-1 $323 -11.764679141500519 $332 11.764679141500519 $322 $390 forward 7 unknown #
straight-curve $-1 -64.420911282692956 0 11.764679141500519 0 -1 0 I I #
vertex $-1 $317 $391 #
straight-curve $-1 -64.420911282692956 0 -11.764679141500519 0 1 0 I I #
straight-curve $-1 -71.690220605841205 -37.35870230063356 -11.764679141500519 -1 0 0 I I #
loop $-1 $-1 $392 $271 #
plane-surface $-1 0 0 -11.764679141500519 0 0 1 1 0 0 forward_v I I I I #
coedge $-1 $393 $394 $395 $396 reversed $272 $-1 #
coedge $-1 $397 $274 $398 $399 reversed $194 $-1 #
coedge $-1 $274 $397 $342 $400 reversed $194 $-1 #
coedge $-1 $394 $393 $274 $341 reversed $272 $-1 #
edge $-1 $401 -11.764679141500519 $402 11.764679141500519 $340 $403 forward 7 unknown #
coedge $-1 $275 $404 $339 $400 forward $117 $-1 #
coedge $-1 $405 $276 $275 $344 reversed $208 $-1 #
edge $-1 $406 -78.959529928989454 $278 15.905714784900297 $343 $291 forward 7 unknown #
straight-curve $-1 15.905714784900297 -37.35870230063356 56.612674566215787 0 0 1 I I #
point $-1 15.905714784900297 -37.35870230063356 11.764679141500519 #
straight-curve $-1 15.954378177676418 -37.35870230063356 7.6843074549707566 -1 0 0 I I #
point $-1 15.905714784900297 -37.35870230063356 7.6843074549707584 #
coedge $-1 $285 $405 $407 $408 reversed $208 $-1 #
coedge $-1 $409 $288 $285 $351 forward $358 $-1 #
edge $-1 $290 -11.764679141500519 $410 11.764679141500519 $350 $411 forward 7 unknown #
face $-1 $412 $413 $14 $-1 $414 reversed single #
plane-surface $-1 0 -37.35870230063356 0 0 1 0 0 0 1 forward_v I I I I #
coedge $-1 $404 $287 $415 $416 forward $117 $-1 #
coedge $-1 $417 $418 $287 $356 reversed $419 $-1 #
edge $-1 $359 -64.420911282692956 $420 64.420911282692956 $355 $421 forward 7 unknown #
coedge $-1 $288 $409 $417 $422 reversed $358 $-1 #
loop $-1 $-1 $350 $423 #
vertex $-1 $289 $424 #
straight-curve $-1 64.420911282692956 0 11.764679141500519 0 1 0 I I #
point $-1 64.420911282692956 -37.35870230063356 11.764679141500519 #
face $-1 $425 $426 $15 $-1 $427 reversed single #
loop $-1 $-1 $428 $292 #
plane-surface $-1 -78.959529928989454 -34.988424817542523 0 1 0 0 0 0 -1 forward_v I I I I #
coedge $-1 $302 $429 $295 $368 forward $293 $-1 #
coedge $-1 $367 $295 $430 $431 reversed $215 $-1 #
coedge $-1 $295 $366 $369 $432 forward $215 $-1 #
edge $-1 $433 18.27096604590924 $434 24.098340624868921 $365 $435 forward 7 unknown #
coedge $-1 $371 $296 $367 $432 reversed $217 $-1 #
edge $-1 $434 -0.048663392776120418 $303 31.957419748128956 $302 $436 forward 7 unknown #
coedge $-1 $297 $369 $374 $437 reversed $217 $-1 #
vertex $-1 $437 $438 #
straight-curve $-1 47.911797925805374 -37.358702300633553 7.6843074549707637 0 -0.81915203911291934 -0.57357644374324357 I I #
coedge $-1 $430 $299 $371 $437 forward $376 $-1 #
coedge $-1 $299 $439 $301 $379 reversed $376 $-1 #
loop $-1 $-1 $430 $440 #
straight-curve $-1 47.911797925805374 -37.35870230063356 56.612674566215787 0 0 -1 I I #
coedge $-1 $441 $301 $442 $443 forward $293 $-1 #
edge $-1 $304 47.911797925805374 $444 64.420911282692956 $375 $445 forward 7 unknown #
point $-1 47.911797925805374 -31.531327721673879 11.764679141500519 #
point $-1 47.911797925805374 -37.35870230063356 11.764679141500519 #
point $-1 31.908756355352835 -33.244499051406997 8.0099788561914522 #
plane-surface $-1 64.420911282692956 0 0 -1 0 0 0 0 1 forward_v I I I I #
straight-curve $-1 0 37.35870230063356 -11.764679141500519 1 0 0 I I #
point $-1 64.420911282692956 37.35870230063356 -11.764679141500519 #
point $-1 64.420911282692956 -37.35870230063356 -11.764679141500519 #
point $-1 -64.420911282692956 37.35870230063356 11.764679141500519 #
straight-curve $-1 64.420911282692956 -37.35870230063356 0 0 0 -1 I I #
straight-curve $-1 64.420911282692956 37.35870230063356 0 0 0 -1 I I #
straight-curve $-1 -64.420911282692956 37.35870230063356 0 0 0 -1 I I #
point $-1 -64.420911282692956 37.35870230063356 -11.764679141500519 #
coedge $-1 $407 $446 $409 $447 forward $335 $-1 #
coedge $-1 $340 $337 $448 $449 reversed $272 $-1 #
coedge $-1 $337 $340 $404 $450 reversed $272 $-1 #
coedge $-1 $415 $451 $337 $396 forward $413 $-1 #
edge $-1 $452 -11.764679141500519 $453 11.764679141500519 $395 $454 forward 7 unknown #
coedge $-1 $339 $338 $405 $455 reversed $194 $-1 #
coedge $-1 $448 $407 $338 $399 forward $335 $-1 #
edge $-1 $456 -2.3702774830910371 $402 2.3702774830910371 $338 $457 forward 7 unknown #
edge $-1 $401 -2.3702774830910371 $406 2.3702774830910371 $339 $458 forward 7 unknown #
vertex $-1 $450 $459 #
vertex $-1 $449 $460 #
straight-curve $-1 -78.959529928989454 -32.618147334451486 0 0 0 -1 I I #
coedge $-1 $342 $354 $394 $450 forward $117 $-1 #
coedge $-1 $349 $343 $397 $455 forward $208 $-1 #
vertex $-1 $400 $461 #
coedge $-1 $398 $392 $349 $408 forward $335 $-1 #
edge $-1 $410 -136.11113188853415 $456 7.2693093231482493 $349 $462 forward 7 unknown #
coedge $-1 $357 $350 $392 $447 reversed $358 $-1 #
vertex $-1 $351 $463 #
straight-curve $-1 64.420911282692956 -37.35870230063356 0 0 0 -1 I I #
face $-1 $423 $419 $14 $-1 $464 reversed single #
loop $-1 $-1 $395 $352 #
plane-surface $-1 -64.420911282692956 0 0 1 0 0 0 0 -1 forward_v I I I I #
coedge $-1 $465 $395 $354 $416 reversed $413 $-1 #
edge $-1 $420 -37.35870230063356 $453 32.618147334451486 $415 $466 forward 7 unknown #
coedge $-1 $467 $355 $357 $422 forward $419 $-1 #
coedge $-1 $355 $467 $465 $468 reversed $419 $-1 #
loop $-1 $-1 $417 $412 #
vertex $-1 $356 $469 #
straight-curve $-1 0 37.35870230063356 11.764679141500519 -1 0 0 I I #
edge $-1 $359 -11.764679141500519 $470 11.764679141500519 $357 $471 forward 7 unknown #
face $-1 $-1 $358 $14 $-1 $472 reversed single #
point $-1 64.420911282692956 37.35870230063356 11.764679141500519 #
face $-1 $440 $473 $15 $-1 $474 reversed single #
loop $-1 $-1 $475 $362 #
plane-surface $-1 -71.690220605841205 -32.618147334451486 0 0 -1 0 0 0 -1 forward_v I I I I #
coedge $-1 $476 $477 $478 $479 forward $363 $-1 #
coedge $-1 $365 $480 $481 $482 forward $293 $-1 #
coedge $-1 $481 $374 $366 $431 forward $376 $-1 #
edge $-1 $483 -48.928367111245031 $433 -44.847995424715265 $430 $484 forward 7 unknown #
edge $-1 $483 -8.8770546250341341e-015 $434 7.1139108501399644 $367 $485 forward 7 unknown #
vertex $-1 $431 $486 #
vertex $-1 $370 $487 #
straight-curve $-1 15.905714784900297 -55.6296683465428 11.764679141500523 0 1 0 I I #
straight-curve $-1 15.954378177676418 -31.531327721673875 11.764679141500519 1 0 0 I I #
edge $-1 $372 -31.957419748128956 $483 0.048663392776120418 $374 $488 forward 7 unknown #
point $-1 47.911797925805374 -37.35870230063356 7.6843074549707584 #
coedge $-1 $375 $489 $490 $491 reversed $376 $-1 #
face $-1 $492 $376 $15 $-1 $493 reversed single #
coedge $-1 $494 $378 $495 $496 forward $293 $-1 #
coedge $-1 $490 $497 $378 $443 reversed $498 $-1 #
edge $-1 $444 -37.35870230063356 $499 37.35870230063356 $442 $500 forward 7 unknown #
vertex $-1 $443 $501 #
straight-curve $-1 0 -37.35870230063356 11.764679141500519 1 0 0 I I #
coedge $-1 $392 $502 $467 $503 forward $335 $-1 #
edge $-1 $470 -37.35870230063356 $410 37.35870230063356 $409 $504 forward 7 unknown #
coedge $-1 $502 $398 $393 $449 forward $335 $-1 #
edge $-1 $402 -7.2693093231482493 $452 7.2693093231482493 $393 $505 forward 7 unknown #
edge $-1 $453 -7.2693093231482493 $401 7.2693093231482493 $394 $506 forward 7 unknown #
coedge $-1 $395 $465 $502 $507 reversed $413 $-1 #
vertex $-1 $507 $508 #
vertex $-1 $450 $509 #
straight-curve $-1 -64.420911282692956 -32.618147334451486 0 0 0 1 I I #
edge $-1 $406 -11.764679141500519 $456 11.764679141500519 $397 $510 forward 7 unknown #
vertex $-1 $399 $511 #
straight-curve $-1 -78.959529928989454 -34.988424817542523 -11.764679141500519 0 1 0 I I #
straight-curve $-1 -78.959529928989454 -34.988424817542523 11.764679141500519 0 -1 0 I I #
point $-1 -78.959529928989454 -32.618147334451486 11.764679141500519 #
point $-1 -78.959529928989454 -32.618147334451486 -11.764679141500519 #
point $-1 -78.959529928989454 -37.35870230063356 11.764679141500519 #
straight-curve $-1 -71.690220605841205 -37.35870230063356 -11.764679141500519 -1 0 0 I I #
point $-1 64.420911282692956 -37.35870230063356 -11.764679141500519 #
plane-surface $-1 0 37.35870230063356 0 0 -1 0 0 0 -1 forward_v I I I I #
coedge $-1 $451 $415 $418 $468 forward $413 $-1 #
straight-curve $-1 -64.420911282692956 0 11.764679141500519 0 -1 0 I I #
coedge $-1 $418 $417 $446 $503 reversed $419 $-1 #
edge $-1 $420 -11.764679141500519 $512 11.764679141500519 $418 $513 forward 7 unknown #
point $-1 -64.420911282692956 37.35870230063356 11.764679141500519 #
vertex $-1 $447 $514 #
straight-curve $-1 64.420911282692956 37.35870230063356 0 0 0 -1 I I #
plane-surface $-1 64.420911282692956 0 0 -1 0 0 0 0 1 forward_v I I I I #
loop $-1 $-1 $515 $425 #
plane-surface $-1 0 0 -11.764679141500519 0 0 1 1 0 0 forward_v I I I I #
coedge $-1 $516 $517 $518 $519 reversed $426 $-1 #
coedge $-1 $520 $428 $521 $522 reversed $363 $-1 #
coedge $-1 $428 $520 $480 $523 reversed $363 $-1 #
coedge $-1 $517 $516 $428 $479 reversed $426 $-1 #
edge $-1 $524 -11.764679141500519 $525 11.764679141500519 $478 $526 forward 7 unknown #
coedge $-1 $429 $527 $477 $523 forward $293 $-1 #
coedge $-1 $528 $430 $429 $482 reversed $376 $-1 #
edge $-1 $529 -78.959529928989454 $433 15.905714784900297 $481 $445 forward 7 unknown #
vertex $-1 $437 $530 #
straight-curve $-1 15.905714784900297 -37.35870230063356 56.612674566215787 0 0 1 I I #
straight-curve $-1 15.905714784900297 -37.358702300633553 7.6843074549707637 0 0.81915203911291934 0.57357644374324357 I I #
point $-1 15.905714784900297 -37.35870230063356 11.764679141500519 #
point $-1 15.905714784900297 -31.531327721673879 11.764679141500519 #
straight-curve $-1 15.954378177676418 -37.35870230063356 7.6843074549707566 -1 0 0 I I #
coedge $-1 $439 $528 $531 $532 reversed $376 $-1 #
coedge $-1 $533 $442 $439 $491 forward $498 $-1 #
edge $-1 $444 -11.764679141500519 $534 11.764679141500519 $490 $535 forward 7 unknown #
face $-1 $536 $537 $15 $-1 $538 reversed single #
plane-surface $-1 0 -37.35870230063356 0 0 1 0 0 0 1 forward_v I I I I #
coedge $-1 $527 $441 $539 $540 forward $293 $-1 #
coedge $-1 $541 $542 $441 $496 reversed $543 $-1 #
edge $-1 $499 -64.420911282692956 $544 64.420911282692956 $495 $545 forward 7 unknown #
coedge $-1 $442 $533 $541 $546 reversed $498 $-1 #
loop $-1 $-1 $490 $547 #
vertex $-1 $443 $548 #
straight-curve $-1 64.420911282692956 0 11.764679141500519 0 1 0 I I #
point $-1 64.420911282692956 -37.35870230063356 11.764679141500519 #
coedge $-1 $446 $448 $451 $507 forward $335 $-1 #
edge $-1 $512 -64.420911282692956 $470 64.420911282692956 $467 $549 forward 7 unknown #
straight-curve $-1 64.420911282692956 0 -11.764679141500519 0 -1 0 I I #
straight-curve $-1 -71.690220605841205 -32.618147334451486 -11.764679141500519 1 0 0 I I #
straight-curve $-1 -71.690220605841205 -32.618147334451486 11.764679141500519 -1 0 0 I I #
edge $-1 $452 -32.618147334451486 $512 37.35870230063356 $451 $550 forward 7 unknown #
point $-1 -64.420911282692956 -32.618147334451486 -11.764679141500519 #
point $-1 -64.420911282692956 -32.618147334451486 11.764679141500519 #
straight-curve $-1 -78.959529928989454 -37.35870230063356 0 0 0 -1 I I #
point $-1 -78.959529928989454 -37.35870230063356 -11.764679141500519 #
vertex $-1 $503 $551 #
straight-curve $-1 -64.420911282692956 37.35870230063356 0 0 0 -1 I I #
point $-1 64.420911282692956 37.35870230063356 -11.764679141500519 #
coedge $-1 $531 $552 $533 $553 forward $473 $-1 #
coedge $-1 $478 $475 $554 $555 reversed $426 $-1 #
coedge $-1 $475 $478 $527 $556 reversed $426 $-1 #
coedge $-1 $539 $557 $475 $519 forward $537 $-1 #
edge $-1 $558 -11.764679141500519 $559 11.764679141500519 $518 $560 forward 7 unknown #
coedge $-1 $477 $476 $528 $561 reversed $363 $-1 #
coedge $-1 $554 $531 $476 $522 forward $473 $-1 #
edge $-1 $562 -2.3702774830910371 $525 2.3702774830910371 $476 $563 forward 7 unknown #
edge $-1 $524 -2.3702774830910371 $529 2.3702774830910371 $477 $564 forward 7 unknown #
vertex $-1 $556 $565 #
vertex $-1 $555 $566 #
straight-curve $-1 -78.959529928989454 -32.618147334451486 0 0 0 -1 I I #
coedge $-1 $480 $494 $517 $556 forward $293 $-1 #
coedge $-1 $489 $481 $520 $561 forward $376 $-1 #
vertex $-1 $523 $567 #
point $-1 15.905714784900297 -37.35870230063356 7.6843074549707584 #
coedge $-1 $521 $515 $489 $532 forward $473 $-1 #
edge $-1 $534 -136.11113188853415 $562 7.2693093231482493 $489 $568 forward 7 unknown #
coedge $-1 $497 $490 $515 $553 reversed $498 $-1 #
vertex $-1 $491 $569 #
straight-curve $-1 64.420911282692956 -37.35870230063356 0 0 0 -1 I I #
face $-1 $547 $543 $15 $-1 $570 reversed single #
loop $-1 $-1 $518 $492 #
plane-surface $-1 -64.420911282692956 0 0 1 0 0 0 0 -1 forward_v I I I I #
coedge $-1 $571 $518 $494 $540 reversed $537 $-1 #
edge $-1 $544 -37.35870230063356 $559 32.618147334451486 $539 $572 forward 7 unknown #
coedge $-1 $573 $495 $497 $546 forward $543 $-1 #
coedge $-1 $495 $573 $571 $574 reversed $543 $-1 #
loop $-1 $-1 $541 $536 #
vertex $-1 $496 $575 #
straight-curve $-1 0 37.35870230063356 11.764679141500519 -1 0 0 I I #
edge $-1 $499 -11.764679141500519 $576 11.764679141500519 $497 $577 forward 7 unknown #
face $-1 $-1 $498 $15 $-1 $578 reversed single #
point $-1 64.420911282692956 37.35870230063356 11.764679141500519 #
straight-curve $-1 0 37.35870230063356 -11.764679141500519 1 0 0 I I #
straight-curve $-1 -64.420911282692956 0 -11.764679141500519 0 1 0 I I #
point $-1 -64.420911282692956 37.35870230063356 -11.764679141500519 #
coedge $-1 $515 $579 $573 $580 forward $473 $-1 #
edge $-1 $576 -37.35870230063356 $534 37.35870230063356 $533 $581 forward 7 unknown #
coedge $-1 $579 $521 $516 $555 forward $473 $-1 #
edge $-1 $525 -7.2693093231482493 $558 7.2693093231482493 $516 $582 forward 7 unknown #
edge $-1 $559 -7.2693093231482493 $524 7.2693093231482493 $517 $583 forward 7 unknown #
coedge $-1 $518 $571 $579 $584 reversed $537 $-1 #
vertex $-1 $584 $585 #
vertex $-1 $556 $586 #
straight-curve $-1 -64.420911282692956 -32.618147334451486 0 0 0 1 I I #
edge $-1 $529 -11.764679141500519 $562 11.764679141500519 $520 $587 forward 7 unknown #
vertex $-1 $522 $588 #
straight-curve $-1 -78.959529928989454 -34.988424817542523 -11.764679141500519 0 1 0 I I #
straight-curve $-1 -78.959529928989454 -34.988424817542523 11.764679141500519 0 -1 0 I I #
point $-1 -78.959529928989454 -32.618147334451486 11.764679141500519 #
point $-1 -78.959529928989454 -32.618147334451486 -11.764679141500519 #
point $-1 -78.959529928989454 -37.35870230063356 11.764679141500519 #
straight-curve $-1 -71.690220605841205 -37.35870230063356 -11.764679141500519 -1 0 0 I I #
point $-1 64.420911282692956 -37.35870230063356 -11.764679141500519 #
plane-surface $-1 0 37.35870230063356 0 0 -1 0 0 0 -1 forward_v I I I I #
coedge $-1 $557 $539 $542 $574 forward $537 $-1 #
straight-curve $-1 -64.420911282692956 0 11.764679141500519 0 -1 0 I I #
coedge $-1 $542 $541 $552 $580 reversed $543 $-1 #
edge $-1 $544 -11.764679141500519 $589 11.764679141500519 $542 $590 forward 7 unknown #
point $-1 -64.420911282692956 37.35870230063356 11.764679141500519 #
vertex $-1 $553 $591 #
straight-curve $-1 64.420911282692956 37.35870230063356 0 0 0 -1 I I #
plane-surface $-1 64.420911282692956 0 0 -1 0 0 0 0 1 forward_v I I I I #
coedge $-1 $552 $554 $557 $584 forward $473 $-1 #
edge $-1 $589 -64.420911282692956 $576 64.420911282692956 $573 $592 forward 7 unknown #
straight-curve $-1 64.420911282692956 0 -11.764679141500519 0 -1 0 I I #
straight-curve $-1 -71.690220605841205 -32.618147334451486 -11.764679141500519 1 0 0 I I #
straight-curve $-1 -71.690220605841205 -32.618147334451486 11.764679141500519 -1 0 0 I I #
edge $-1 $558 -32.618147334451486 $589 37.35870230063356 $557 $593 forward 7 unknown #
point $-1 -64.420911282692956 -32.618147334451486 -11.764679141500519 #
point $-1 -64.420911282692956 -32.618147334451486 11.764679141500519 #
straight-curve $-1 -78.959529928989454 -37.35870230063356 0 0 0 -1 I I #
point $-1 -78.959529928989454 -37.35870230063356 -11.764679141500519 #
vertex $-1 $580 $594 #
straight-curve $-1 -64.420911282692956 37.35870230063356 0 0 0 -1 I I #
point $-1 64.420911282692956 37.35870230063356 -11.764679141500519 #
straight-curve $-1 0 37.35870230063356 -11.764679141500519 1 0 0 I I #
straight-curve $-1 -64.420911282692956 0 -11.764679141500519 0 1 0 I I #
point $-1 -64.420911282692956 37.35870230063356 -11.764679141500519 #
End-of-ACIS-data 