500 0 10 0           
7 Unknown 11 ACIS 5.0 NT 24 Fri Mar 26 16:04:41 1999 
-1 9.9999999999999995e-007 1e-010 
body $-1 $10 $-1 $11 #
body $-1 $12 $-1 $13 #
body $-1 $14 $-1 $15 #
body $-1 $16 $-1 $17 #
body $-1 $18 $-1 $19 #
body $-1 $20 $-1 $21 #
body $-1 $22 $-1 $23 #
body $-1 $24 $-1 $25 #
body $-1 $26 $-1 $27 #
body $-1 $28 $-1 $29 #
lump $-1 $-1 $30 $0 #
transform $-1 1 0 0 0 1 0 0 0 1 61.378826258125557 40.604396657212575 12.905003425027541 1 rotate no_reflect no_shear #
lump $-1 $-1 $31 $1 #
transform $-1 1 0 0 0 1 0 0 0 1 61.378826258125557 40.604396657212575 12.905003425027541 1 rotate no_reflect no_shear #
lump $-1 $-1 $32 $2 #
transform $-1 1 0 0 0 1 0 0 0 1 61.378826258125557 40.604396657212575 12.905003425027541 1 rotate no_reflect no_shear #
lump $-1 $-1 $33 $3 #
transform $-1 1 0 0 0 1 0 0 0 1 61.378826258125557 40.604396657212575 12.905003425027541 1 rotate no_reflect no_shear #
lump $-1 $-1 $34 $4 #
transform $-1 1 0 0 0 1 0 0 0 1 61.378826258125557 40.604396657212575 12.905003425027541 1 rotate no_reflect no_shear #
lump $-1 $-1 $35 $5 #
transform $-1 1 0 0 0 1 0 0 0 1 61.378826258125557 40.604396657212575 12.905003425027541 1 rotate no_reflect no_shear #
lump $-1 $-1 $36 $6 #
transform $-1 1 0 0 0 1 0 0 0 1 61.378826258125557 40.604396657212575 12.905003425027541 1 rotate no_reflect no_shear #
lump $-1 $-1 $37 $7 #
transform $-1 1 0 0 0 1 0 0 0 1 61.378826258125557 40.604396657212575 12.905003425027541 1 rotate no_reflect no_shear #
lump $-1 $-1 $38 $8 #
transform $-1 1 0 0 0 1 0 0 0 1 61.378826258125557 40.604396657212575 12.905003425027541 1 rotate no_reflect no_shear #
lump $-1 $-1 $39 $9 #
transform $-1 1 0 0 0 1 0 0 0 1 61.378826258125557 40.604396657212575 12.905003425027541 1 rotate no_reflect no_shear #
shell $-1 $-1 $-1 $40 $-1 $10 #
shell $-1 $-1 $-1 $41 $-1 $12 #
shell $-1 $-1 $-1 $42 $-1 $14 #
shell $-1 $-1 $-1 $43 $-1 $16 #
shell $-1 $-1 $-1 $44 $-1 $18 #
shell $-1 $-1 $-1 $45 $-1 $20 #
shell $-1 $-1 $-1 $46 $-1 $22 #
shell $-1 $-1 $-1 $47 $-1 $24 #
shell $-1 $-1 $-1 $48 $-1 $26 #
shell $-1 $-1 $-1 $49 $-1 $28 #
face $-1 $50 $51 $30 $-1 $52 forward single #
face $-1 $53 $54 $31 $-1 $55 reversed single #
face $-1 $56 $57 $32 $-1 $58 reversed single #
face $-1 $59 $60 $33 $-1 $61 forward single #
face $-1 $62 $63 $34 $-1 $64 reversed single #
face $-1 $65 $66 $35 $-1 $67 forward single #
face $-1 $68 $69 $36 $-1 $70 forward single #
face $-1 $71 $72 $37 $-1 $73 reversed single #
face $-1 $74 $75 $38 $-1 $76 forward single #
face $-1 $77 $78 $39 $-1 $79 forward single #
face $-1 $80 $81 $30 $-1 $82 reversed single #
loop $-1 $-1 $83 $40 #
plane-surface $-1 0 0 12.905003425027541 0 0 1 1 0 0 forward_v I I I I #
face $-1 $84 $85 $31 $-1 $86 reversed single #
loop $-1 $-1 $87 $41 #
plane-surface $-1 -57.935194602880543 -29.025835547177426 0 0 -1 0 0 0 -1 forward_v I I I I #
face $-1 $88 $89 $32 $-1 $90 reversed single #
loop $-1 $-1 $91 $42 #
plane-surface $-1 25.2842069546857 -3.1125277373506179 172.8096095454961 0 -1 0 -0.54463904215088732 0 -0.83867056331134215 forward_v I I I I #
face $-1 $92 $93 $33 $-1 $94 forward single #
loop $-1 $95 $96 $43 #
cone-surface $-1 52.789583484417108 -13.429561913928382 6.4710499504592924 -0.54463904215088732 0 -0.83867056331134215 1.2580058449670133 0 -0.81695856322633098 1 I I 0 1 1.5 forward I I I I #
face $-1 $97 $98 $34 $-1 $99 reversed single #
loop $-1 $-1 $100 $44 #
plane-surface $-1 -156.77944116492284 -22.065786440780514 79.874107167015325 0 1 0 -0.77714596973225614 0 0.62932038083071107 forward_v I I I I #
face $-1 $101 $102 $35 $-1 $103 forward single #
loop $-1 $104 $105 $45 #
cone-surface $-1 -55.835695221368908 -19.678822409896231 6.6459959970974252 0.77714596973225614 0 -0.62932038083071107 0.62932038083071107 0 0.77714596973225614 1 I I 0 1 1 forward I I I I #
face $-1 $106 $107 $36 $-1 $108 forward single #
loop $-1 $109 $110 $46 #
cone-surface $-1 -55.835695221368908 -16.098376363569798 6.6459959970974252 0.77714596973225614 0 -0.62932038083071107 0.62932038083071107 0 0.77714596973225614 1 I I 0 1 1 forward I I I I #
face $-1 $111 $112 $37 $-1 $113 reversed single #
loop $-1 $-1 $114 $47 #
plane-surface $-1 -156.77944116492284 25.289973442720658 79.874107167015325 0 1 0 -0.77714596973225614 0 0.62932038083071107 forward_v I I I I #
face $-1 $115 $116 $38 $-1 $117 forward single #
loop $-1 $118 $119 $48 #
cone-surface $-1 -55.835695221368908 27.676937473604937 6.6459959970974252 0.77714596973225614 0 -0.62932038083071107 0.62932038083071107 0 0.77714596973225614 1 I I 0 1 1 forward I I I I #
face $-1 $120 $121 $39 $-1 $122 forward single #
loop $-1 $123 $124 $49 #
cone-surface $-1 -55.835695221368908 31.257383519931366 6.6459959970974252 0.77714596973225614 0 -0.62932038083071107 0.62932038083071107 0 0.77714596973225614 1 I I 0 1 1 forward I I I I #
face $-1 $125 $126 $30 $-1 $127 reversed single #
loop $-1 $-1 $128 $50 #
plane-surface $-1 0 0 -12.905003425027541 0 0 1 1 0 0 forward_v I I I I #
coedge $-1 $129 $130 $131 $132 forward $51 $-1 #
face $-1 $133 $134 $31 $-1 $135 forward single #
loop $-1 $-1 $136 $53 #
plane-surface $-1 -54.491562947635529 -34.815116102194999 0 -1 0 0 0 0 1 forward_v I I I I #
coedge $-1 $137 $138 $139 $140 forward $54 $-1 #
face $-1 $141 $142 $32 $-1 $143 reversed single #
loop $-1 $-1 $144 $56 #
plane-surface $-1 -41.574403328456768 -13.429561913928382 69.856379958913791 0.54463904215088732 0 0.83867056331134215 0.83867056331134215 0 -0.54463904215088732 forward_v I I I I #
coedge $-1 $145 $146 $147 $148 reversed $57 $-1 #
face $-1 $-1 $149 $33 $-1 $150 forward single #
loop $-1 $151 $152 $59 #
cone-surface $-1 51.419762356407233 -13.429561913928382 4.3617104280356607 -0.54463904215088732 0 -0.83867056331134215 0.62900292248350664 0 -0.40847928161316549 1 I I -0.70710678118654757 0.70710678118654757 0.75 forward I I I I #
loop $-1 $-1 $153 $43 #
coedge $-1 $96 $96 $154 $155 reversed $60 $-1 #
face $-1 $156 $157 $34 $-1 $158 reversed single #
loop $-1 $-1 $159 $62 #
plane-surface $-1 -61.378826258125542 -17.888599386733013 2.6202145356040774 -0.77714596973225614 0 0.62932038083071107 0.62932038083071107 0 0.77714596973225614 forward_v I I I I #
coedge $-1 $160 $161 $162 $163 reversed $63 $-1 #
face $-1 $-1 $164 $35 $-1 $165 forward single #
loop $-1 $166 $167 $65 #
cone-surface $-1 -54.068220001502212 -19.678822409896231 5.2147228234636884 0.77714596973225614 0 -0.62932038083071107 0.31466019041535553 0 0.38857298486612807 1 I I -0.70710678118654746 0.70710678118654746 0.5 forward I I I I #
loop $-1 $-1 $168 $45 #
coedge $-1 $105 $105 $169 $170 reversed $66 $-1 #
face $-1 $-1 $171 $36 $-1 $172 forward single #
loop $-1 $173 $174 $68 #
cone-surface $-1 -54.068220001502212 -16.098376363569798 5.2147228234636884 0.77714596973225614 0 -0.62932038083071107 0.31466019041535553 0 0.38857298486612807 1 I I -0.70710678118654746 0.70710678118654746 0.5 forward I I I I #
loop $-1 $-1 $175 $46 #
coedge $-1 $110 $110 $176 $177 reversed $69 $-1 #
face $-1 $178 $179 $37 $-1 $180 reversed single #
loop $-1 $-1 $181 $71 #
plane-surface $-1 -61.378826258125542 29.467160496768159 2.6202145356040774 -0.77714596973225614 0 0.62932038083071107 0.62932038083071107 0 0.77714596973225614 forward_v I I I I #
coedge $-1 $182 $183 $184 $185 reversed $72 $-1 #
face $-1 $-1 $186 $38 $-1 $187 forward single #
loop $-1 $188 $189 $74 #
cone-surface $-1 -54.068220001502212 27.676937473604937 5.2147228234636884 0.77714596973225614 0 -0.62932038083071107 0.31466019041535553 0 0.38857298486612807 1 I I -0.70710678118654746 0.70710678118654746 0.5 forward I I I I #
loop $-1 $-1 $190 $48 #
coedge $-1 $119 $119 $191 $192 reversed $75 $-1 #
face $-1 $-1 $193 $39 $-1 $194 forward single #
loop $-1 $195 $196 $77 #
cone-surface $-1 -54.068220001502212 31.257383519931366 5.2147228234636884 0.77714596973225614 0 -0.62932038083071107 0.31466019041535553 0 0.38857298486612807 1 I I -0.70710678118654746 0.70710678118654746 0.5 forward I I I I #
loop $-1 $-1 $197 $49 #
coedge $-1 $124 $124 $198 $199 reversed $78 $-1 #
face $-1 $200 $201 $30 $-1 $202 reversed single #
loop $-1 $-1 $203 $80 #
plane-surface $-1 0 -40.604396657212575 0 0 1 0 0 0 1 forward_v I I I I #
coedge $-1 $204 $205 $206 $207 forward $81 $-1 #
coedge $-1 $208 $83 $209 $210 forward $51 $-1 #
coedge $-1 $83 $208 $211 $212 forward $51 $-1 #
coedge $-1 $213 $214 $83 $132 reversed $215 $-1 #
edge $-1 $216 -40.604396657212575 $217 40.604396657212575 $131 $218 forward 7 unknown #
face $-1 $219 $220 $31 $-1 $221 reversed single #
loop $-1 $-1 $222 $84 #
plane-surface $-1 0 0 12.905003425027541 0 0 1 1 0 0 forward_v I I I I #
coedge $-1 $223 $224 $225 $226 reversed $85 $-1 #
coedge $-1 $227 $87 $228 $229 reversed $54 $-1 #
coedge $-1 $87 $227 $230 $231 reversed $54 $-1 #
coedge $-1 $224 $223 $87 $140 reversed $85 $-1 #
edge $-1 $232 -12.905003425027541 $233 12.905003425027541 $139 $234 forward 7 unknown #
face $-1 $235 $236 $32 $-1 $237 reversed single #
loop $-1 $-1 $238 $88 #
plane-surface $-1 25.2842069546857 -23.746596090506145 172.8096095454961 0 1 0 0.54463904215088732 0 0.83867056331134215 forward_v I I I I #
coedge $-1 $239 $240 $241 $242 reversed $89 $-1 #
coedge $-1 $146 $91 $243 $244 reversed $57 $-1 #
coedge $-1 $91 $145 $239 $245 reversed $57 $-1 #
coedge $-1 $241 $246 $91 $148 forward $247 $-1 #
edge $-1 $248 -48.736722780782706 $249 -33.480920926159236 $147 $250 forward 7 unknown #
loop $-1 $-1 $154 $92 #
plane-surface $-1 -41.574403328456768 -13.429561913928382 69.856379958913791 0.54463904215088732 0 0.83867056331134215 0.83867056331134215 0 -0.54463904215088732 forward_v I I I I #
loop $-1 $-1 $251 $59 #
coedge $-1 $152 $152 $153 $252 reversed $93 $-1 #
coedge $-1 $153 $153 $152 $252 forward $95 $-1 #
coedge $-1 $154 $154 $96 $155 forward $149 $-1 #
edge $-1 $253 0 $253 6.2831853071796004 $154 $254 forward 7 unknown #
face $-1 $255 $256 $34 $-1 $257 reversed single #
loop $-1 $-1 $258 $97 #
plane-surface $-1 -156.77944116492284 -13.71141233268551 79.874107167015325 0 -1 0 0.77714596973225614 0 -0.62932038083071107 forward_v I I I I #
coedge $-1 $259 $260 $261 $262 reversed $98 $-1 #
coedge $-1 $161 $100 $263 $264 reversed $63 $-1 #
coedge $-1 $100 $160 $259 $265 reversed $63 $-1 #
coedge $-1 $261 $266 $100 $163 forward $267 $-1 #
edge $-1 $268 17.010894324335865 $269 25.339351927848043 $162 $270 forward 7 unknown #
loop $-1 $-1 $169 $101 #
plane-surface $-1 -61.378826258125542 -17.888599386733013 2.6202145356040774 -0.77714596973225614 0 0.62932038083071107 0.62932038083071107 0 0.77714596973225614 forward_v I I I I #
loop $-1 $-1 $271 $65 #
coedge $-1 $167 $167 $168 $272 reversed $102 $-1 #
coedge $-1 $168 $168 $167 $272 forward $104 $-1 #
coedge $-1 $169 $169 $105 $170 forward $164 $-1 #
edge $-1 $273 0 $273 6.2831853071796004 $169 $274 forward 7 unknown #
loop $-1 $-1 $176 $106 #
plane-surface $-1 -61.378826258125542 -17.888599386733013 2.6202145356040774 -0.77714596973225614 0 0.62932038083071107 0.62932038083071107 0 0.77714596973225614 forward_v I I I I #
loop $-1 $-1 $275 $68 #
coedge $-1 $174 $174 $175 $276 reversed $107 $-1 #
coedge $-1 $175 $175 $174 $276 forward $109 $-1 #
coedge $-1 $176 $176 $110 $177 forward $171 $-1 #
edge $-1 $277 0 $277 6.2831853071796004 $176 $278 forward 7 unknown #
face $-1 $279 $280 $37 $-1 $281 forward single #
loop $-1 $-1 $282 $111 #
plane-surface $-1 -156.77944116492284 33.64434755081566 79.874107167015325 0 -1 0 0.77714596973225614 0 -0.62932038083071107 forward_v I I I I #
coedge $-1 $283 $284 $285 $286 reversed $112 $-1 #
coedge $-1 $183 $114 $287 $288 reversed $72 $-1 #
coedge $-1 $114 $182 $283 $289 reversed $72 $-1 #
coedge $-1 $285 $290 $114 $185 forward $280 $-1 #
edge $-1 $291 17.010894324335865 $292 25.339351927848043 $184 $293 forward 7 unknown #
loop $-1 $-1 $191 $115 #
plane-surface $-1 -61.378826258125542 29.467160496768159 2.6202145356040774 -0.77714596973225614 0 0.62932038083071107 0.62932038083071107 0 0.77714596973225614 forward_v I I I I #
loop $-1 $-1 $294 $74 #
coedge $-1 $189 $189 $190 $295 reversed $116 $-1 #
coedge $-1 $190 $190 $189 $295 forward $118 $-1 #
coedge $-1 $191 $191 $119 $192 forward $186 $-1 #
edge $-1 $296 0 $296 6.2831853071796004 $191 $297 forward 7 unknown #
loop $-1 $-1 $198 $120 #
plane-surface $-1 -61.378826258125542 29.467160496768159 2.6202145356040774 -0.77714596973225614 0 0.62932038083071107 0.62932038083071107 0 0.77714596973225614 forward_v I I I I #
loop $-1 $-1 $298 $77 #
coedge $-1 $196 $196 $197 $299 reversed $121 $-1 #
coedge $-1 $197 $197 $196 $299 forward $123 $-1 #
coedge $-1 $198 $198 $124 $199 forward $193 $-1 #
edge $-1 $300 0 $300 6.2831853071796004 $198 $301 forward 7 unknown #
face $-1 $302 $303 $30 $-1 $304 reversed single #
loop $-1 $-1 $305 $125 #
plane-surface $-1 -61.378826258125557 0 0 1 0 0 0 0 -1 forward_v I I I I #
coedge $-1 $306 $211 $307 $308 forward $126 $-1 #
coedge $-1 $309 $128 $306 $310 forward $81 $-1 #
coedge $-1 $128 $309 $311 $312 forward $81 $-1 #
coedge $-1 $214 $213 $128 $207 reversed $215 $-1 #
edge $-1 $313 -40.604396657212575 $314 40.604396657212575 $206 $315 forward 7 unknown #
coedge $-1 $130 $129 $316 $317 forward $51 $-1 #
coedge $-1 $318 $319 $129 $210 reversed $303 $-1 #
edge $-1 $217 -61.378826258125557 $320 61.378826258125557 $209 $321 forward 7 unknown #
coedge $-1 $203 $322 $130 $212 reversed $126 $-1 #
edge $-1 $323 -61.378826258125557 $216 61.378826258125557 $211 $324 forward 7 unknown #
coedge $-1 $206 $131 $322 $325 forward $215 $-1 #
coedge $-1 $131 $206 $318 $326 reversed $215 $-1 #
loop $-1 $-1 $213 $302 #
vertex $-1 $132 $327 #
vertex $-1 $132 $328 #
straight-curve $-1 61.378826258125557 0 12.905003425027541 0 1 0 I I #
face $-1 $329 $330 $31 $-1 $331 reversed single #
loop $-1 $-1 $332 $133 #
plane-surface $-1 -61.378826258125557 0 0 1 0 0 0 0 -1 forward_v I I I I #
coedge $-1 $230 $333 $224 $334 forward $134 $-1 #
coedge $-1 $139 $136 $335 $336 reversed $85 $-1 #
coedge $-1 $136 $139 $222 $334 reversed $85 $-1 #
coedge $-1 $337 $338 $136 $226 forward $339 $-1 #
edge $-1 $340 -12.905003425027541 $341 12.905003425027541 $225 $342 forward 7 unknown #
coedge $-1 $138 $137 $332 $343 reversed $54 $-1 #
coedge $-1 $335 $344 $137 $229 forward $330 $-1 #
edge $-1 $345 -32.411228956685285 $233 -25.523965646195258 $228 $346 forward 7 unknown #
coedge $-1 $347 $222 $138 $231 forward $134 $-1 #
edge $-1 $232 25.523965646195258 $348 32.411228956685285 $230 $349 forward 7 unknown #
vertex $-1 $231 $350 #
vertex $-1 $229 $351 #
straight-curve $-1 -54.491562947635529 -29.025835547177426 0 0 0 -1 I I #
face $-1 $-1 $247 $32 $-1 $352 forward single #
loop $-1 $-1 $353 $141 #
plane-surface $-1 61.378826258125557 0 0 -1 0 0 0 0 1 forward_v I I I I #
coedge $-1 $354 $355 $356 $357 reversed $142 $-1 #
coedge $-1 $358 $144 $146 $245 forward $89 $-1 #
coedge $-1 $144 $358 $354 $359 forward $89 $-1 #
coedge $-1 $356 $147 $144 $242 forward $247 $-1 #
edge $-1 $249 -3.6022532196135728 $360 17.031815133541954 $241 $361 forward 7 unknown #
coedge $-1 $362 $363 $145 $244 forward $236 $-1 #
edge $-1 $364 -83.407035096976728 $248 -73.499801347720506 $243 $365 forward 7 unknown #
edge $-1 $249 104.56719428150797 $364 122.75765251625111 $146 $366 forward 7 unknown #
coedge $-1 $147 $356 $362 $367 forward $247 $-1 #
loop $-1 $-1 $356 $235 #
vertex $-1 $244 $368 #
vertex $-1 $148 $369 #
straight-curve $-1 12.64210347734285 -3.1125277373506179 12.905003425027544 -1 0 0 I I #
coedge $-1 $251 $251 $-1 $370 reversed $151 $-1 #
edge $-1 $371 0 $371 6.2831853071796004 $152 $372 forward 7 unknown #
vertex $-1 $155 $373 #
ellipse-curve $-1 53.750925330813828 -13.429561913928382 7.9513865503994356 0.54463904215088732 0 0.83867056331134215 1.2580058449670133 0 -0.81695856322633098 1 I I #
face $-1 $-1 $267 $34 $-1 $374 forward single #
loop $-1 $-1 $375 $156 #
plane-surface $-1 -61.378826258125557 0 0 1 0 0 0 0 -1 forward_v I I I I #
coedge $-1 $376 $377 $378 $379 reversed $157 $-1 #
coedge $-1 $380 $159 $161 $265 forward $98 $-1 #
coedge $-1 $159 $380 $376 $381 forward $98 $-1 #
coedge $-1 $378 $162 $159 $262 forward $267 $-1 #
edge $-1 $269 -13.121486747414007 $382 -4.767112639319004 $261 $383 forward 7 unknown #
coedge $-1 $384 $385 $160 $264 forward $256 $-1 #
edge $-1 $386 -37.316839047903599 $268 -27.032050158480121 $263 $387 forward 7 unknown #
edge $-1 $269 -13.234050345737238 $386 2.2748066086763162e-014 $161 $388 forward 7 unknown #
coedge $-1 $162 $378 $384 $389 forward $267 $-1 #
loop $-1 $-1 $378 $255 #
vertex $-1 $264 $390 #
vertex $-1 $163 $391 #
straight-curve $-1 -78.389720582461422 -22.065786440780514 12.905003425027537 1 0 0 I I #
coedge $-1 $271 $271 $-1 $392 reversed $166 $-1 #
edge $-1 $393 0 $393 6.2831853071796004 $167 $394 forward 7 unknown #
vertex $-1 $170 $395 #
ellipse-curve $-1 -57.214597456369468 -19.678822409896231 7.7626089803158003 -0.77714596973225614 0 0.62932038083071107 0.62932038083071107 0 0.77714596973225614 1 I I #
coedge $-1 $275 $275 $-1 $396 reversed $173 $-1 #
edge $-1 $397 0 $397 6.2831853071796004 $174 $398 forward 7 unknown #
vertex $-1 $177 $399 #
ellipse-curve $-1 -57.214597456369468 -16.098376363569798 7.7626089803158003 -0.77714596973225614 0 0.62932038083071107 0.62932038083071107 0 0.77714596973225614 1 I I #
face $-1 $-1 $400 $37 $-1 $401 reversed single #
loop $-1 $-1 $184 $178 #
plane-surface $-1 0 0 12.905003425027541 0 0 1 1 0 0 forward_v I I I I #
coedge $-1 $402 $403 $404 $405 reversed $179 $-1 #
coedge $-1 $406 $181 $183 $289 forward $112 $-1 #
coedge $-1 $181 $406 $402 $407 forward $112 $-1 #
coedge $-1 $404 $184 $181 $286 forward $280 $-1 #
edge $-1 $292 10.556393194336579 $408 18.91076730243158 $285 $409 forward 7 unknown #
coedge $-1 $410 $411 $182 $288 forward $400 $-1 #
edge $-1 $412 -37.316839047903599 $291 -27.032050158480121 $287 $413 forward 7 unknown #
edge $-1 $292 -13.234050345737238 $412 2.2748066086763162e-014 $183 $414 forward 7 unknown #
coedge $-1 $184 $404 $410 $415 forward $280 $-1 #
vertex $-1 $288 $416 #
vertex $-1 $185 $417 #
straight-curve $-1 -78.389720582461422 25.289973442720658 12.905003425027537 1 0 0 I I #
coedge $-1 $294 $294 $-1 $418 reversed $188 $-1 #
edge $-1 $419 0 $419 6.2831853071796004 $189 $420 forward 7 unknown #
vertex $-1 $192 $421 #
ellipse-curve $-1 -57.214597456369468 27.676937473604937 7.7626089803158003 -0.77714596973225614 0 0.62932038083071107 0.62932038083071107 0 0.77714596973225614 1 I I #
coedge $-1 $298 $298 $-1 $422 reversed $195 $-1 #
edge $-1 $423 0 $423 6.2831853071796004 $196 $424 forward 7 unknown #
vertex $-1 $199 $425 #
ellipse-curve $-1 -57.214597456369468 31.257383519931366 7.7626089803158003 -0.77714596973225614 0 0.62932038083071107 0.62932038083071107 0 0.77714596973225614 1 I I #
face $-1 $-1 $215 $30 $-1 $426 reversed single #
loop $-1 $-1 $318 $200 #
plane-surface $-1 0 40.604396657212575 0 0 -1 0 0 0 -1 forward_v I I I I #
coedge $-1 $427 $316 $319 $428 forward $201 $-1 #
coedge $-1 $322 $203 $204 $310 reversed $126 $-1 #
coedge $-1 $316 $427 $203 $308 reversed $201 $-1 #
edge $-1 $323 -12.905003425027541 $429 12.905003425027541 $307 $430 forward 7 unknown #
coedge $-1 $205 $204 $427 $431 forward $81 $-1 #
edge $-1 $314 -61.378826258125557 $429 61.378826258125557 $306 $432 forward 7 unknown #
coedge $-1 $319 $318 $205 $312 reversed $303 $-1 #
edge $-1 $433 -61.378826258125557 $313 61.378826258125557 $311 $434 forward 7 unknown #
vertex $-1 $207 $435 #
vertex $-1 $325 $436 #
straight-curve $-1 61.378826258125557 0 -12.905003425027541 0 -1 0 I I #
coedge $-1 $305 $307 $208 $317 reversed $201 $-1 #
edge $-1 $320 -40.604396657212575 $323 40.604396657212575 $316 $437 forward 7 unknown #
coedge $-1 $311 $209 $214 $326 forward $303 $-1 #
coedge $-1 $209 $311 $305 $428 reversed $303 $-1 #
vertex $-1 $210 $438 #
straight-curve $-1 0 40.604396657212575 12.905003425027541 -1 0 0 I I #
coedge $-1 $211 $306 $213 $325 reversed $126 $-1 #
vertex $-1 $317 $439 #
straight-curve $-1 0 -40.604396657212575 12.905003425027541 1 0 0 I I #
edge $-1 $216 -12.905003425027541 $314 12.905003425027541 $213 $440 forward 7 unknown #
edge $-1 $217 -12.905003425027541 $313 12.905003425027541 $214 $441 forward 7 unknown #
point $-1 61.378826258125557 -40.604396657212575 12.905003425027541 #
point $-1 61.378826258125557 40.604396657212575 12.905003425027541 #
face $-1 $-1 $339 $31 $-1 $442 reversed single #
loop $-1 $-1 $335 $219 #
plane-surface $-1 0 0 -12.905003425027541 0 0 1 1 0 0 forward_v I I I I #
coedge $-1 $443 $444 $227 $343 forward $220 $-1 #
coedge $-1 $222 $347 $337 $445 forward $134 $-1 #
edge $-1 $341 -23.196838606115076 $232 -11.618277496079926 $222 $446 forward 7 unknown #
coedge $-1 $447 $228 $223 $336 forward $330 $-1 #
edge $-1 $233 11.618277496079926 $340 23.196838606115076 $335 $448 forward 7 unknown #
coedge $-1 $449 $225 $333 $445 reversed $339 $-1 #
coedge $-1 $225 $449 $447 $450 reversed $339 $-1 #
loop $-1 $-1 $225 $329 #
vertex $-1 $450 $451 #
vertex $-1 $226 $452 #
straight-curve $-1 -54.491562947635529 -40.604396657212575 0 0 0 1 I I #
edge $-1 $348 -12.905003425027541 $345 12.905003425027541 $332 $453 forward 7 unknown #
coedge $-1 $228 $447 $443 $454 forward $330 $-1 #
vertex $-1 $229 $455 #
straight-curve $-1 -28.967597301440271 -29.025835547177426 -12.905003425027541 1 0 0 I I #
coedge $-1 $333 $230 $444 $456 forward $134 $-1 #
vertex $-1 $456 $457 #
straight-curve $-1 -28.967597301440271 -29.025835547177426 12.905003425027541 -1 0 0 I I #
point $-1 -54.491562947635529 -29.025835547177426 12.905003425027541 #
point $-1 -54.491562947635529 -29.025835547177426 -12.905003425027541 #
plane-surface $-1 0 0 12.905003425027541 0 0 1 1 0 0 forward_v I I I I #
coedge $-1 $363 $362 $355 $458 forward $236 $-1 #
coedge $-1 $355 $238 $240 $359 reversed $142 $-1 #
coedge $-1 $238 $354 $353 $458 reversed $142 $-1 #
coedge $-1 $246 $241 $238 $357 forward $247 $-1 #
edge $-1 $360 33.480920926159236 $459 48.736722780782706 $356 $460 forward 7 unknown #
coedge $-1 $240 $239 $363 $461 reversed $89 $-1 #
edge $-1 $462 -122.75765251625111 $360 -104.56719428150797 $354 $463 forward 7 unknown #
vertex $-1 $242 $464 #
straight-curve $-1 46.1230244035021 -6.7147809569641908 12.905003425027537 0 -1 0 I I #
coedge $-1 $353 $243 $246 $367 reversed $236 $-1 #
coedge $-1 $243 $353 $358 $461 forward $236 $-1 #
vertex $-1 $244 $465 #
straight-curve $-1 61.378826258125557 -3.1125277373506179 86.404804772748051 0 0 1 I I #
straight-curve $-1 -41.574403328456768 -3.1125277373506179 69.856379958913791 0.83867056331134215 0 -0.54463904215088732 I I #
edge $-1 $459 -23.746596090506145 $248 -3.1125277373506179 $362 $466 forward 7 unknown #
point $-1 61.378826258125557 -3.1125277373506179 12.905003425027541 #
point $-1 46.123024403502086 -3.1125277373506179 12.905003425027544 #
edge $-1 $467 1 $467 0 $251 $-1 forward 7 unknown #
vertex $-1 $252 $468 #
ellipse-curve $-1 51.828241638020401 -13.429561913928382 4.990713350519167 0.54463904215088732 0 0.83867056331134215 1.2580058449670133 0 -0.81695856322633098 1 I I #
point $-1 55.008931175780823 -13.429561913928382 7.1344279871730869 #
plane-surface $-1 0 0 12.905003425027541 0 0 1 1 0 0 forward_v I I I I #
coedge $-1 $385 $384 $377 $469 forward $256 $-1 #
coedge $-1 $377 $258 $260 $381 reversed $157 $-1 #
coedge $-1 $258 $376 $375 $469 reversed $157 $-1 #
coedge $-1 $266 $261 $258 $379 forward $267 $-1 #
edge $-1 $382 -25.339351927848043 $470 -17.010894324335865 $378 $471 forward 7 unknown #
coedge $-1 $260 $259 $385 $472 reversed $98 $-1 #
edge $-1 $473 -2.2748066086763162e-014 $382 13.234050345737238 $376 $474 forward 7 unknown #
vertex $-1 $262 $475 #
straight-curve $-1 -53.050368654613379 -8.9442996933665064 12.905003425027541 0 1 0 I I #
coedge $-1 $375 $263 $266 $389 reversed $256 $-1 #
coedge $-1 $263 $375 $380 $472 forward $256 $-1 #
vertex $-1 $264 $476 #
straight-curve $-1 -61.378826258125557 -22.065786440780514 39.937053583507662 0 0 1 I I #
straight-curve $-1 -61.378826258125542 -22.065786440780514 2.6202145356040774 -0.62932038083071107 0 -0.77714596973225614 I I #
edge $-1 $470 13.71141233268551 $268 22.065786440780514 $384 $477 forward 7 unknown #
point $-1 -61.378826258125557 -22.065786440780514 12.905003425027541 #
point $-1 -53.050368654613379 -22.065786440780514 12.905003425027541 #
edge $-1 $478 1 $478 0 $271 $-1 forward 7 unknown #
vertex $-1 $272 $479 #
ellipse-curve $-1 -54.456792986368342 -19.678822409896231 5.5293830138790439 -0.77714596973225614 0 0.62932038083071107 0.62932038083071107 0 0.77714596973225614 1 I I #
point $-1 -56.58527707553877 -19.678822409896231 8.5397549500480636 #
edge $-1 $480 1 $480 0 $275 $-1 forward 7 unknown #
vertex $-1 $276 $481 #
ellipse-curve $-1 -54.456792986368342 -16.098376363569798 5.5293830138790439 -0.77714596973225614 0 0.62932038083071107 0.62932038083071107 0 0.77714596973225614 1 I I #
point $-1 -56.58527707553877 -16.098376363569798 8.5397549500480636 #
loop $-1 $-1 $287 $279 #
plane-surface $-1 -61.378826258125557 0 0 1 0 0 0 0 -1 forward_v I I I I #
coedge $-1 $403 $282 $284 $407 reversed $179 $-1 #
coedge $-1 $282 $402 $482 $483 reversed $179 $-1 #
coedge $-1 $290 $285 $282 $405 forward $280 $-1 #
edge $-1 $408 -25.339351927848043 $484 -17.010894324335865 $404 $485 forward 7 unknown #
coedge $-1 $284 $283 $411 $486 reversed $112 $-1 #
edge $-1 $487 -2.2748066086763162e-014 $408 13.234050345737238 $402 $488 forward 7 unknown #
vertex $-1 $286 $489 #
straight-curve $-1 -53.050368654613379 14.733580248384079 12.905003425027541 0 1 0 I I #
coedge $-1 $482 $287 $290 $415 reversed $400 $-1 #
coedge $-1 $287 $482 $406 $486 forward $400 $-1 #
vertex $-1 $288 $490 #
straight-curve $-1 -61.378826258125557 25.289973442720658 39.937053583507662 0 0 1 I I #
straight-curve $-1 -61.378826258125542 25.289973442720658 2.6202145356040774 -0.62932038083071107 0 -0.77714596973225614 I I #
edge $-1 $484 -33.64434755081566 $291 -25.289973442720658 $410 $491 forward 7 unknown #
point $-1 -61.378826258125557 25.289973442720658 12.905003425027541 #
point $-1 -53.050368654613379 25.289973442720658 12.905003425027541 #
edge $-1 $492 1 $492 0 $294 $-1 forward 7 unknown #
vertex $-1 $295 $493 #
ellipse-curve $-1 -54.456792986368342 27.676937473604937 5.5293830138790439 -0.77714596973225614 0 0.62932038083071107 0.62932038083071107 0 0.77714596973225614 1 I I #
point $-1 -56.58527707553877 27.676937473604937 8.5397549500480636 #
edge $-1 $494 1 $494 0 $298 $-1 forward 7 unknown #
vertex $-1 $299 $495 #
ellipse-curve $-1 -54.456792986368342 31.257383519931366 5.5293830138790439 -0.77714596973225614 0 0.62932038083071107 0.62932038083071107 0 0.77714596973225614 1 I I #
point $-1 -56.58527707553877 31.257383519931366 8.5397549500480636 #
plane-surface $-1 61.378826258125557 0 0 -1 0 0 0 0 1 forward_v I I I I #
coedge $-1 $307 $305 $309 $431 reversed $201 $-1 #
edge $-1 $320 -12.905003425027541 $433 12.905003425027541 $319 $496 forward 7 unknown #
vertex $-1 $431 $497 #
straight-curve $-1 -61.378826258125557 -40.604396657212575 0 0 0 -1 I I #
edge $-1 $429 -40.604396657212575 $433 40.604396657212575 $427 $498 forward 7 unknown #
straight-curve $-1 0 -40.604396657212575 -12.905003425027541 -1 0 0 I I #
vertex $-1 $312 $499 #
straight-curve $-1 0 40.604396657212575 -12.905003425027541 1 0 0 I I #
point $-1 61.378826258125557 40.604396657212575 -12.905003425027541 #
point $-1 61.378826258125557 -40.604396657212575 -12.905003425027541 #
straight-curve $-1 -61.378826258125557 0 12.905003425027541 0 -1 0 I I #
point $-1 -61.378826258125557 40.604396657212575 12.905003425027541 #
point $-1 -61.378826258125557 -40.604396657212575 12.905003425027541 #
straight-curve $-1 61.378826258125557 -40.604396657212575 0 0 0 -1 I I #
straight-curve $-1 61.378826258125557 40.604396657212575 0 0 0 -1 I I #
plane-surface $-1 0 -40.604396657212575 0 0 1 0 0 0 1 forward_v I I I I #
coedge $-1 $500 $332 $344 $454 reversed $220 $-1 #
coedge $-1 $332 $500 $347 $456 reversed $220 $-1 #
edge $-1 $501 -61.378826258125557 $341 -54.491562947635529 $337 $502 forward 7 unknown #
straight-curve $-1 -54.491562947635529 -17.407558051097499 12.905003425027541 0 1 0 I I #
coedge $-1 $344 $335 $338 $450 forward $330 $-1 #
straight-curve $-1 -54.491562947635529 -17.407558051097499 -12.905003425027541 0 -1 0 I I #
coedge $-1 $338 $337 $500 $503 forward $339 $-1 #
edge $-1 $340 54.491562947635529 $504 61.378826258125557 $338 $505 forward 7 unknown #
point $-1 -54.491562947635529 -40.604396657212575 -12.905003425027541 #
point $-1 -54.491562947635529 -40.604396657212575 12.905003425027541 #
straight-curve $-1 -61.378826258125557 -29.025835547177426 0 0 0 -1 I I #
edge $-1 $504 -40.604396657212575 $345 -29.025835547177426 $443 $506 forward 7 unknown #
point $-1 -61.378826258125557 -29.025835547177426 -12.905003425027541 #
edge $-1 $348 29.025835547177426 $501 40.604396657212575 $444 $507 forward 7 unknown #
point $-1 -61.378826258125557 -29.025835547177426 12.905003425027541 #
edge $-1 $459 73.499801347720506 $462 83.407035096976728 $353 $508 forward 7 unknown #
vertex $-1 $367 $509 #
straight-curve $-1 12.64210347734285 -23.746596090506145 12.905003425027544 1 0 0 I I #
edge $-1 $462 -17.031815133541954 $364 3.6022532196135728 $363 $510 forward 7 unknown #
vertex $-1 $461 $511 #
straight-curve $-1 -41.574403328456768 -23.746596090506145 69.856379958913791 -0.83867056331134215 0 0.54463904215088732 I I #
point $-1 46.123024403502086 -23.746596090506145 12.905003425027544 #
point $-1 61.378826258125557 -3.1125277373506179 2.9977696757713233 #
straight-curve $-1 61.378826258125557 0 12.905003425027541 0 1 0 I I #
vertex $-1 $370 $512 #
point $-1 53.08624748298741 -13.429561913928382 4.173754787292836 #
edge $-1 $470 27.032050158480121 $473 37.316839047903599 $375 $513 forward 7 unknown #
vertex $-1 $389 $514 #
straight-curve $-1 -78.389720582461422 -13.71141233268551 12.905003425027537 -1 0 0 I I #
edge $-1 $473 4.767112639319004 $386 13.121486747414007 $385 $515 forward 7 unknown #
vertex $-1 $472 $516 #
straight-curve $-1 -61.378826258125542 -13.71141233268551 2.6202145356040774 0.62932038083071107 0 0.77714596973225614 I I #
point $-1 -53.050368654613379 -13.71141233268551 12.905003425027541 #
point $-1 -61.378826258125557 -22.065786440780514 2.6202145356040596 #
straight-curve $-1 -61.378826258125557 0 12.905003425027541 0 -1 0 I I #
vertex $-1 $392 $517 #
point $-1 -53.827472605537629 -19.678822409896231 6.3065289836113001 #
vertex $-1 $396 $518 #
point $-1 -53.827472605537629 -16.098376363569798 6.3065289836113001 #
coedge $-1 $411 $410 $403 $483 forward $400 $-1 #
edge $-1 $484 27.032050158480121 $487 37.316839047903599 $482 $519 forward 7 unknown #
vertex $-1 $415 $520 #
straight-curve $-1 -78.389720582461422 33.64434755081566 12.905003425027537 -1 0 0 I I #
edge $-1 $487 -18.91076730243158 $412 -10.556393194336579 $411 $521 forward 7 unknown #
vertex $-1 $486 $522 #
straight-curve $-1 -61.378826258125542 33.64434755081566 2.6202145356040774 0.62932038083071107 0 0.77714596973225614 I I #
point $-1 -53.050368654613379 33.64434755081566 12.905003425027541 #
point $-1 -61.378826258125557 25.289973442720658 2.6202145356040596 #
straight-curve $-1 -61.378826258125557 0 12.905003425027541 0 -1 0 I I #
vertex $-1 $418 $523 #
point $-1 -53.827472605537629 27.676937473604937 6.3065289836113001 #
vertex $-1 $422 $524 #
point $-1 -53.827472605537629 31.257383519931366 6.3065289836113001 #
straight-curve $-1 -61.378826258125557 40.604396657212575 0 0 0 -1 I I #
point $-1 -61.378826258125557 -40.604396657212575 -12.905003425027541 #
straight-curve $-1 -61.378826258125557 0 -12.905003425027541 0 1 0 I I #
point $-1 -61.378826258125557 40.604396657212575 -12.905003425027541 #
coedge $-1 $444 $443 $449 $503 reversed $220 $-1 #
vertex $-1 $456 $525 #
straight-curve $-1 0 -40.604396657212575 12.905003425027541 1 0 0 I I #
edge $-1 $501 -12.905003425027541 $504 12.905003425027541 $500 $526 forward 7 unknown #
vertex $-1 $454 $527 #
straight-curve $-1 0 -40.604396657212575 -12.905003425027541 -1 0 0 I I #
straight-curve $-1 -61.378826258125557 0 -12.905003425027541 0 1 0 I I #
straight-curve $-1 -61.378826258125557 0 12.905003425027541 0 -1 0 I I #
straight-curve $-1 61.378826258125557 -23.746596090506145 86.404804772748051 0 0 -1 I I #
point $-1 61.378826258125557 -23.746596090506145 12.905003425027541 #
straight-curve $-1 61.378826258125549 -6.7147809569641908 2.9977696757713161 0 1 0 I I #
point $-1 61.378826258125557 -23.746596090506145 2.9977696757713233 #
point $-1 51.011283074794065 -13.429561913928382 3.7327075055521539 #
straight-curve $-1 -61.378826258125557 -13.71141233268551 39.937053583507662 0 0 -1 I I #
point $-1 -61.378826258125557 -13.71141233268551 12.905003425027541 #
straight-curve $-1 -61.378826258125557 -8.9442996933665064 2.6202145356040636 0 -1 0 I I #
point $-1 -61.378826258125557 -13.71141233268551 2.6202145356040596 #
point $-1 -53.679647016636082 -19.678822409896231 4.900062633048333 #
point $-1 -53.679647016636082 -16.098376363569798 4.900062633048333 #
straight-curve $-1 -61.378826258125557 33.64434755081566 39.937053583507662 0 0 -1 I I #
point $-1 -61.378826258125557 33.64434755081566 12.905003425027541 #
straight-curve $-1 -61.378826258125557 14.733580248384079 2.6202145356040636 0 -1 0 I I #
point $-1 -61.378826258125557 33.64434755081566 2.6202145356040596 #
point $-1 -53.679647016636082 27.676937473604937 4.900062633048333 #
point $-1 -53.679647016636082 31.257383519931366 4.900062633048333 #
point $-1 -61.378826258125557 -40.604396657212575 12.905003425027541 #
straight-curve $-1 -61.378826258125557 -40.604396657212575 0 0 0 -1 I I #
point $-1 -61.378826258125557 -40.604396657212575 -12.905003425027541 #
End-of-ACIS-data 