500 0 5 0           
7 Unknown 11 ACIS 5.0 NT 24 Fri Mar 26 00:15:42 1999 
-1 9.9999999999999995e-007 1e-010 
body $-1 $5 $-1 $6 #
body $-1 $7 $-1 $8 #
body $-1 $9 $-1 $10 #
body $-1 $11 $-1 $12 #
body $-1 $13 $-1 $14 #
lump $-1 $-1 $15 $0 #
transform $-1 1 0 0 0 1 0 0 0 1 72.717062898648038 36.474818387276507 11.73178520911846 1 rotate no_reflect no_shear #
lump $-1 $-1 $16 $1 #
transform $-1 1 0 0 0 1 0 0 0 1 72.717062898648038 36.474818387276507 11.73178520911846 1 rotate no_reflect no_shear #
lump $-1 $-1 $17 $2 #
transform $-1 1 0 0 0 1 0 0 0 1 72.717062898648038 36.474818387276507 11.73178520911846 1 rotate no_reflect no_shear #
lump $-1 $-1 $18 $3 #
transform $-1 1 0 0 0 1 0 0 0 1 72.717062898648038 36.474818387276507 11.73178520911846 1 rotate no_reflect no_shear #
lump $-1 $-1 $19 $4 #
transform $-1 1 0 0 0 1 0 0 0 1 72.717062898648038 36.474818387276507 11.73178520911846 1 rotate no_reflect no_shear #
shell $-1 $-1 $-1 $20 $-1 $5 #
shell $-1 $-1 $-1 $21 $-1 $7 #
shell $-1 $-1 $-1 $22 $-1 $9 #
shell $-1 $-1 $-1 $23 $-1 $11 #
shell $-1 $-1 $-1 $24 $-1 $13 #
face $-1 $25 $26 $15 $-1 $27 forward single #
face $-1 $28 $29 $16 $-1 $30 reversed single #
face $-1 $31 $32 $17 $-1 $33 reversed single #
face $-1 $34 $35 $18 $-1 $36 forward single #
face $-1 $37 $38 $19 $-1 $39 forward single #
face $-1 $40 $41 $15 $-1 $42 reversed single #
loop $-1 $-1 $43 $20 #
plane-surface $-1 0 0 11.73178520911846 0 0 1 1 0 0 forward_v I I I I #
face $-1 $44 $45 $16 $-1 $46 reversed single #
loop $-1 $-1 $47 $21 #
plane-surface $-1 -66.072426371812099 0 6.2908462428142649 0 0 1 1 0 0 forward_v I I I I #
face $-1 $48 $49 $17 $-1 $50 reversed single #
loop $-1 $-1 $51 $22 #
plane-surface $-1 -43.601439723288451 118.71492155399983 142.73564688507437 1 0 0 0 -0.83867057594974714 -0.54463902268945019 forward_v I I I I #
face $-1 $52 $53 $18 $-1 $54 forward single #
loop $-1 $55 $56 $23 #
cone-surface $-1 -35.26965804656777 32.103526340688582 6.1792286346903245 0 -0.83867057594974714 -0.54463902268945019 1.5 0 0 1 I I 0 1 1.5 forward I I I I #
face $-1 $57 $58 $19 $-1 $59 forward single #
loop $-1 $60 $61 $24 #
cone-surface $-1 -22.771985531486763 32.103526340688582 6.1792286346903245 0 -0.83867057594974714 -0.54463902268945019 1.5 0 0 1 I I 0 1 1.5 forward I I I I #
face $-1 $62 $63 $15 $-1 $64 reversed single #
loop $-1 $-1 $65 $25 #
plane-surface $-1 0 0 -11.73178520911846 0 0 1 1 0 0 forward_v I I I I #
coedge $-1 $66 $67 $68 $69 forward $26 $-1 #
face $-1 $70 $71 $16 $-1 $72 reversed single #
loop $-1 $-1 $73 $28 #
plane-surface $-1 -59.427789844976161 0 9.0113157259663623 -1 0 0 0 0 1 forward_v I I I I #
coedge $-1 $74 $75 $76 $77 forward $29 $-1 #
face $-1 $78 $79 $17 $-1 $80 reversed single #
loop $-1 $-1 $81 $31 #
plane-surface $-1 -29.020821789027266 -3.2564004911664455 63.526546745140479 0 0.83867057594974714 0.54463902268945019 1 0 0 forward_v I I I I #
coedge $-1 $82 $83 $84 $85 reversed $32 $-1 #
face $-1 $-1 $86 $18 $-1 $87 forward single #
loop $-1 $88 $89 $34 #
cone-surface $-1 -35.26965804656777 30.150885627800427 4.9111689697537066 0 -0.83867057594974714 -0.54463902268945019 0.75 0 0 1 I I -0.70710678118654757 0.70710678118654757 0.75 forward I I I I #
loop $-1 $-1 $90 $23 #
coedge $-1 $56 $56 $91 $92 reversed $35 $-1 #
face $-1 $-1 $93 $19 $-1 $94 forward single #
loop $-1 $95 $96 $37 #
cone-surface $-1 -22.771985531486763 30.150885627800427 4.9111689697537066 0 -0.83867057594974714 -0.54463902268945019 0.75 0 0 1 I I -0.70710678118654757 0.70710678118654757 0.75 forward I I I I #
loop $-1 $-1 $97 $24 #
coedge $-1 $61 $61 $98 $99 reversed $38 $-1 #
face $-1 $100 $101 $15 $-1 $102 reversed single #
loop $-1 $-1 $103 $40 #
plane-surface $-1 0 -36.474818387276507 0 0 1 0 0 0 1 forward_v I I I I #
coedge $-1 $104 $105 $106 $107 forward $41 $-1 #
coedge $-1 $108 $43 $109 $110 forward $26 $-1 #
coedge $-1 $43 $108 $111 $112 forward $26 $-1 #
coedge $-1 $113 $114 $43 $69 reversed $115 $-1 #
edge $-1 $116 -36.474818387276507 $117 36.474818387276507 $68 $118 forward 7 unknown #
face $-1 $119 $120 $16 $-1 $121 reversed single #
loop $-1 $-1 $122 $44 #
plane-surface $-1 0 36.474818387276507 0 0 -1 0 0 0 -1 forward_v I I I I #
coedge $-1 $76 $123 $124 $125 reversed $45 $-1 #
coedge $-1 $126 $47 $127 $128 reversed $29 $-1 #
coedge $-1 $47 $126 $129 $130 reversed $29 $-1 #
coedge $-1 $131 $73 $47 $77 reversed $45 $-1 #
edge $-1 $132 -36.474818387276507 $133 36.474818387276507 $76 $134 forward 7 unknown #
face $-1 $135 $136 $17 $-1 $137 forward single #
loop $-1 $-1 $138 $48 #
plane-surface $-1 -14.440203854766086 118.71492155399983 142.73564688507437 -1 0 0 0 0.83867057594974714 0.54463902268945019 forward_v I I I I #
coedge $-1 $139 $140 $141 $142 reversed $49 $-1 #
coedge $-1 $83 $51 $143 $144 reversed $32 $-1 #
coedge $-1 $51 $82 $139 $145 reversed $32 $-1 #
coedge $-1 $141 $146 $51 $85 forward $136 $-1 #
edge $-1 $147 22.882642389723408 $148 28.977950921047587 $84 $149 forward 7 unknown #
loop $-1 $-1 $91 $52 #
plane-surface $-1 -29.020821789027266 -3.2564004911664455 63.526546745140479 0 0.83867057594974714 0.54463902268945019 1 0 0 forward_v I I I I #
loop $-1 $-1 $150 $34 #
coedge $-1 $89 $89 $90 $151 reversed $53 $-1 #
coedge $-1 $90 $90 $89 $151 forward $55 $-1 #
coedge $-1 $91 $91 $56 $92 forward $86 $-1 #
edge $-1 $152 -7.9925550525539955e-016 $152 6.2831853071795996 $91 $153 forward 7 unknown #
loop $-1 $-1 $98 $57 #
plane-surface $-1 -29.020821789027266 -3.2564004911664455 63.526546745140479 0 0.83867057594974714 0.54463902268945019 1 0 0 forward_v I I I I #
loop $-1 $-1 $154 $37 #
coedge $-1 $96 $96 $97 $155 reversed $58 $-1 #
coedge $-1 $97 $97 $96 $155 forward $60 $-1 #
coedge $-1 $98 $98 $61 $99 forward $93 $-1 #
edge $-1 $156 -7.9925550525539955e-016 $156 6.2831853071795996 $98 $157 forward 7 unknown #
face $-1 $158 $159 $15 $-1 $160 reversed single #
loop $-1 $-1 $161 $62 #
plane-surface $-1 -72.717062898648038 0 0 1 0 0 0 0 -1 forward_v I I I I #
coedge $-1 $162 $111 $163 $164 forward $63 $-1 #
coedge $-1 $165 $65 $162 $166 forward $41 $-1 #
coedge $-1 $65 $165 $167 $168 forward $41 $-1 #
coedge $-1 $114 $113 $65 $107 reversed $115 $-1 #
edge $-1 $169 -36.474818387276507 $170 36.474818387276507 $106 $171 forward 7 unknown #
coedge $-1 $67 $66 $172 $173 forward $26 $-1 #
coedge $-1 $174 $175 $66 $110 reversed $159 $-1 #
edge $-1 $117 -72.717062898648038 $176 72.717062898648038 $109 $177 forward 7 unknown #
coedge $-1 $103 $178 $67 $112 reversed $63 $-1 #
edge $-1 $179 -72.717062898648038 $116 72.717062898648038 $111 $180 forward 7 unknown #
coedge $-1 $106 $68 $178 $181 forward $115 $-1 #
coedge $-1 $68 $106 $174 $182 reversed $115 $-1 #
loop $-1 $-1 $113 $158 #
vertex $-1 $69 $183 #
vertex $-1 $69 $184 #
straight-curve $-1 72.717062898648038 0 11.73178520911846 0 1 0 I I #
face $-1 $185 $186 $16 $-1 $187 forward single #
loop $-1 $-1 $188 $70 #
plane-surface $-1 -72.717062898648038 0 0 1 0 0 0 0 -1 forward_v I I I I #
coedge $-1 $129 $189 $131 $190 forward $71 $-1 #
coedge $-1 $73 $131 $191 $192 reversed $45 $-1 #
coedge $-1 $193 $127 $73 $125 forward $194 $-1 #
edge $-1 $133 1.7851883798310837 $195 7.2261273461352786 $124 $196 forward 7 unknown #
coedge $-1 $75 $74 $188 $197 reversed $29 $-1 #
coedge $-1 $124 $198 $74 $128 forward $194 $-1 #
edge $-1 $199 -39.680849712741988 $133 -26.391576659070111 $127 $200 forward 7 unknown #
coedge $-1 $201 $122 $75 $130 forward $71 $-1 #
edge $-1 $132 26.391576659070111 $202 39.680849712741988 $129 $203 forward 7 unknown #
coedge $-1 $123 $76 $122 $190 reversed $45 $-1 #
vertex $-1 $130 $204 #
vertex $-1 $128 $205 #
straight-curve $-1 -59.427789844976161 0 6.2908462428142649 0 -1 0 I I #
face $-1 $-1 $206 $17 $-1 $207 reversed single #
loop $-1 $-1 $84 $78 #
plane-surface $-1 0 0 11.73178520911846 0 0 1 1 0 0 forward_v I I I I #
coedge $-1 $208 $209 $210 $211 reversed $79 $-1 #
coedge $-1 $212 $81 $83 $145 forward $49 $-1 #
coedge $-1 $81 $212 $208 $213 forward $49 $-1 #
coedge $-1 $210 $84 $81 $142 forward $136 $-1 #
edge $-1 $148 -29.091028828774817 $214 0.070207039747547384 $141 $215 forward 7 unknown #
coedge $-1 $216 $217 $82 $144 forward $206 $-1 #
edge $-1 $218 -69.021990586435976 $147 -59.636038233418731 $143 $219 forward 7 unknown #
edge $-1 $148 61.75817182732014 $218 72.949636774553056 $83 $220 forward 7 unknown #
coedge $-1 $84 $210 $216 $221 forward $136 $-1 #
vertex $-1 $144 $222 #
vertex $-1 $85 $223 #
straight-curve $-1 -43.601439723288451 59.357460776999915 11.731785209118456 0 -1 0 I I #
coedge $-1 $150 $150 $-1 $224 reversed $88 $-1 #
edge $-1 $225 0 $225 6.2831853071796004 $89 $226 forward 7 unknown #
vertex $-1 $92 $227 #
ellipse-curve $-1 -35.26965804656777 33.42716412161441 7.0388090326098434 0 0.83867057594974714 0.54463902268945019 1.5 0 0 1 I I #
coedge $-1 $154 $154 $-1 $228 reversed $95 $-1 #
edge $-1 $229 0 $229 6.2831853071796004 $96 $230 forward 7 unknown #
vertex $-1 $99 $231 #
ellipse-curve $-1 -22.771985531486763 33.42716412161441 7.0388090326098434 0 0.83867057594974714 0.54463902268945019 1.5 0 0 1 I I #
face $-1 $-1 $115 $15 $-1 $232 reversed single #
loop $-1 $-1 $174 $100 #
plane-surface $-1 0 36.474818387276507 0 0 -1 0 0 0 -1 forward_v I I I I #
coedge $-1 $233 $172 $175 $234 forward $101 $-1 #
coedge $-1 $178 $103 $104 $166 reversed $63 $-1 #
coedge $-1 $172 $233 $103 $164 reversed $101 $-1 #
edge $-1 $179 -11.73178520911846 $235 11.73178520911846 $163 $236 forward 7 unknown #
coedge $-1 $105 $104 $233 $237 forward $41 $-1 #
edge $-1 $170 -72.717062898648038 $235 72.717062898648038 $162 $238 forward 7 unknown #
coedge $-1 $175 $174 $105 $168 reversed $159 $-1 #
edge $-1 $239 -72.717062898648038 $169 72.717062898648038 $167 $240 forward 7 unknown #
vertex $-1 $107 $241 #
vertex $-1 $181 $242 #
straight-curve $-1 72.717062898648038 0 -11.73178520911846 0 -1 0 I I #
coedge $-1 $161 $163 $108 $173 reversed $101 $-1 #
edge $-1 $176 -36.474818387276507 $179 36.474818387276507 $172 $243 forward 7 unknown #
coedge $-1 $167 $109 $114 $182 forward $159 $-1 #
coedge $-1 $109 $167 $161 $234 reversed $159 $-1 #
vertex $-1 $110 $244 #
straight-curve $-1 0 36.474818387276507 11.73178520911846 -1 0 0 I I #
coedge $-1 $111 $162 $113 $181 reversed $63 $-1 #
vertex $-1 $173 $245 #
straight-curve $-1 0 -36.474818387276507 11.73178520911846 1 0 0 I I #
edge $-1 $116 -11.73178520911846 $170 11.73178520911846 $113 $246 forward 7 unknown #
edge $-1 $117 -11.73178520911846 $169 11.73178520911846 $114 $247 forward 7 unknown #
point $-1 72.717062898648038 -36.474818387276507 11.73178520911846 #
point $-1 72.717062898648038 36.474818387276507 11.73178520911846 #
face $-1 $-1 $194 $16 $-1 $248 reversed single #
loop $-1 $-1 $191 $119 #
plane-surface $-1 0 0 11.73178520911846 0 0 1 1 0 0 forward_v I I I I #
coedge $-1 $249 $250 $126 $197 forward $120 $-1 #
coedge $-1 $122 $201 $251 $252 reversed $71 $-1 #
edge $-1 $253 -7.2261273461352786 $132 -1.7851883798310837 $122 $254 forward 7 unknown #
coedge $-1 $251 $255 $123 $192 forward $186 $-1 #
edge $-1 $195 -36.474818387276507 $253 36.474818387276507 $191 $256 forward 7 unknown #
coedge $-1 $198 $124 $255 $257 reversed $194 $-1 #
loop $-1 $-1 $124 $185 #
vertex $-1 $125 $258 #
straight-curve $-1 -59.427789844976161 -36.474818387276507 4.5056578629831812 0 0 1 I I #
edge $-1 $202 -36.474818387276507 $199 36.474818387276507 $188 $259 forward 7 unknown #
coedge $-1 $127 $193 $249 $260 forward $194 $-1 #
vertex $-1 $197 $261 #
straight-curve $-1 -33.03621318590605 -36.474818387276507 6.2908462428142649 1 0 0 I I #
coedge $-1 $189 $129 $250 $262 reversed $71 $-1 #
vertex $-1 $197 $263 #
straight-curve $-1 -33.03621318590605 36.474818387276507 6.2908462428142649 -1 0 0 I I #
point $-1 -59.427789844976161 36.474818387276507 6.2908462428142649 #
point $-1 -59.427789844976161 -36.474818387276507 6.2908462428142649 #
loop $-1 $-1 $143 $135 #
plane-surface $-1 0 36.474818387276507 0 0 -1 0 0 0 -1 forward_v I I I I #
coedge $-1 $209 $138 $140 $213 reversed $79 $-1 #
coedge $-1 $138 $208 $264 $265 reversed $79 $-1 #
coedge $-1 $146 $141 $138 $211 forward $136 $-1 #
edge $-1 $214 -28.977950921047587 $266 -22.882642389723408 $210 $267 forward 7 unknown #
coedge $-1 $140 $139 $217 $268 reversed $49 $-1 #
edge $-1 $269 -72.949636774553056 $214 -61.75817182732014 $208 $270 forward 7 unknown #
vertex $-1 $142 $271 #
straight-curve $-1 -14.510410894513633 30.379509855952328 11.731785209118456 1 0 0 I I #
coedge $-1 $264 $143 $146 $221 reversed $206 $-1 #
coedge $-1 $143 $264 $212 $268 forward $206 $-1 #
vertex $-1 $144 $272 #
straight-curve $-1 -43.601439723288451 36.474818387276507 71.367823442537187 0 0 1 I I #
straight-curve $-1 -43.601439723288451 -3.2564004911664455 63.526546745140479 0 0.54463902268945019 -0.83867057594974714 I I #
edge $-1 $266 14.440203854766086 $147 43.601439723288451 $216 $273 forward 7 unknown #
point $-1 -43.601439723288451 36.474818387276507 11.73178520911846 #
point $-1 -43.601439723288451 30.379509855952328 11.731785209118456 #
edge $-1 $274 1 $274 0 $150 $-1 forward 7 unknown #
vertex $-1 $151 $275 #
ellipse-curve $-1 -35.26965804656777 30.779888559762739 5.319648236770794 0 0.83867057594974714 0.54463902268945019 1.5 0 0 1 I I #
point $-1 -33.76965804656777 33.427164121614425 7.038809032609854 #
edge $-1 $276 1 $276 0 $154 $-1 forward 7 unknown #
vertex $-1 $155 $277 #
ellipse-curve $-1 -22.771985531486763 30.779888559762739 5.319648236770794 0 0.83867057594974714 0.54463902268945019 1.5 0 0 1 I I #
point $-1 -21.271985531486763 33.427164121614425 7.038809032609854 #
plane-surface $-1 72.717062898648038 0 0 -1 0 0 0 0 1 forward_v I I I I #
coedge $-1 $163 $161 $165 $237 reversed $101 $-1 #
edge $-1 $176 -11.73178520911846 $239 11.73178520911846 $175 $278 forward 7 unknown #
vertex $-1 $237 $279 #
straight-curve $-1 -72.717062898648038 -36.474818387276507 0 0 0 -1 I I #
edge $-1 $235 -36.474818387276507 $239 36.474818387276507 $233 $280 forward 7 unknown #
straight-curve $-1 0 -36.474818387276507 -11.73178520911846 -1 0 0 I I #
vertex $-1 $168 $281 #
straight-curve $-1 0 36.474818387276507 -11.73178520911846 1 0 0 I I #
point $-1 72.717062898648038 36.474818387276507 -11.73178520911846 #
point $-1 72.717062898648038 -36.474818387276507 -11.73178520911846 #
straight-curve $-1 -72.717062898648038 0 11.73178520911846 0 -1 0 I I #
point $-1 -72.717062898648038 36.474818387276507 11.73178520911846 #
point $-1 -72.717062898648038 -36.474818387276507 11.73178520911846 #
straight-curve $-1 72.717062898648038 -36.474818387276507 0 0 0 -1 I I #
straight-curve $-1 72.717062898648038 36.474818387276507 0 0 0 -1 I I #
plane-surface $-1 0 -36.474818387276507 0 0 1 0 0 0 1 forward_v I I I I #
coedge $-1 $282 $188 $198 $260 reversed $120 $-1 #
coedge $-1 $188 $282 $201 $262 forward $120 $-1 #
coedge $-1 $283 $191 $189 $252 forward $186 $-1 #
edge $-1 $253 59.427789844976161 $284 72.717062898648038 $189 $285 forward 7 unknown #
vertex $-1 $252 $286 #
straight-curve $-1 -59.427789844976161 36.474818387276507 4.5056578629831812 0 0 -1 I I #
coedge $-1 $191 $283 $193 $257 forward $186 $-1 #
straight-curve $-1 -59.427789844976161 0 11.73178520911846 0 1 0 I I #
edge $-1 $287 -72.717062898648038 $195 -59.427789844976161 $193 $288 forward 7 unknown #
point $-1 -59.427789844976161 -36.474818387276507 11.73178520911846 #
straight-curve $-1 -72.717062898648038 0 6.2908462428142649 0 -1 0 I I #
edge $-1 $287 -11.73178520911846 $199 -6.2908462428142649 $249 $289 forward 7 unknown #
point $-1 -72.717062898648038 -36.474818387276507 6.2908462428142649 #
edge $-1 $284 -11.73178520911846 $202 -6.2908462428142649 $201 $290 forward 7 unknown #
point $-1 -72.717062898648038 36.474818387276507 6.2908462428142649 #
coedge $-1 $217 $216 $209 $265 forward $206 $-1 #
edge $-1 $266 59.636038233418731 $269 69.021990586435976 $264 $291 forward 7 unknown #
vertex $-1 $221 $292 #
straight-curve $-1 -14.440203854766086 59.357460776999915 11.731785209118456 0 1 0 I I #
edge $-1 $269 -0.070207039747547384 $218 29.091028828774817 $217 $293 forward 7 unknown #
vertex $-1 $268 $294 #
straight-curve $-1 -14.440203854766086 -3.2564004911664455 63.526546745140479 0 -0.54463902268945019 0.83867057594974714 I I #
point $-1 -14.440203854766086 30.379509855952328 11.731785209118456 #
point $-1 -43.601439723288451 36.474818387276507 2.345832856101211 #
straight-curve $-1 0 36.474818387276507 11.73178520911846 -1 0 0 I I #
vertex $-1 $224 $295 #
point $-1 -33.76965804656777 30.779888559762739 5.319648236770794 #
vertex $-1 $228 $296 #
point $-1 -21.271985531486763 30.779888559762739 5.319648236770794 #
straight-curve $-1 -72.717062898648038 36.474818387276507 0 0 0 -1 I I #
point $-1 -72.717062898648038 -36.474818387276507 -11.73178520911846 #
straight-curve $-1 -72.717062898648038 0 -11.73178520911846 0 1 0 I I #
point $-1 -72.717062898648038 36.474818387276507 -11.73178520911846 #
coedge $-1 $250 $249 $283 $297 reversed $120 $-1 #
coedge $-1 $255 $251 $282 $297 forward $186 $-1 #
vertex $-1 $252 $298 #
straight-curve $-1 0 36.474818387276507 11.73178520911846 -1 0 0 I I #
point $-1 -59.427789844976161 36.474818387276507 11.73178520911846 #
vertex $-1 $297 $299 #
straight-curve $-1 0 -36.474818387276507 11.73178520911846 1 0 0 I I #
straight-curve $-1 -72.717062898648038 -36.474818387276507 0 0 0 -1 I I #
straight-curve $-1 -72.717062898648038 36.474818387276507 0 0 0 -1 I I #
straight-curve $-1 -14.440203854766086 36.474818387276507 71.367823442537187 0 0 -1 I I #
point $-1 -14.440203854766086 36.474818387276507 11.73178520911846 #
straight-curve $-1 -14.510410894513633 36.474818387276507 2.345832856101211 -1 0 0 I I #
point $-1 -14.440203854766086 36.474818387276507 2.345832856101211 #
point $-1 -35.26965804656777 29.521882695838116 4.5026897027366193 #
point $-1 -22.771985531486763 29.521882695838116 4.5026897027366193 #
edge $-1 $284 -36.474818387276507 $287 36.474818387276507 $282 $300 forward 7 unknown #
point $-1 -72.717062898648038 36.474818387276507 11.73178520911846 #
point $-1 -72.717062898648038 -36.474818387276507 11.73178520911846 #
straight-curve $-1 -72.717062898648038 0 11.73178520911846 0 -1 0 I I #
End-of-ACIS-data 