500 0 12 0           
7 Unknown 11 ACIS 5.0 NT 24 Fri Mar 26 15:09:23 1999 
-1 9.9999999999999995e-007 1e-010 
body $-1 $12 $-1 $13 #
body $-1 $14 $-1 $15 #
body $-1 $16 $-1 $17 #
body $-1 $18 $-1 $19 #
body $-1 $20 $-1 $21 #
body $-1 $22 $-1 $23 #
body $-1 $24 $-1 $25 #
body $-1 $26 $-1 $27 #
body $-1 $28 $-1 $29 #
body $-1 $30 $-1 $31 #
body $-1 $32 $-1 $33 #
body $-1 $34 $-1 $35 #
lump $-1 $-1 $36 $0 #
transform $-1 1 0 0 0 1 0 0 0 1 62.754600665303506 39.538060514997554 11.82184027477601 1 rotate no_reflect no_shear #
lump $-1 $-1 $37 $1 #
transform $-1 1 0 0 0 1 0 0 0 1 62.754600665303506 39.538060514997554 11.82184027477601 1 rotate no_reflect no_shear #
lump $-1 $-1 $38 $2 #
transform $-1 1 0 0 0 1 0 0 0 1 62.754600665303506 39.538060514997554 11.82184027477601 1 rotate no_reflect no_shear #
lump $-1 $-1 $39 $3 #
transform $-1 1 0 0 0 1 0 0 0 1 62.754600665303506 39.538060514997554 11.82184027477601 1 rotate no_reflect no_shear #
lump $-1 $-1 $40 $4 #
transform $-1 1 0 0 0 1 0 0 0 1 62.754600665303506 39.538060514997554 11.82184027477601 1 rotate no_reflect no_shear #
lump $-1 $-1 $41 $5 #
transform $-1 1 0 0 0 1 0 0 0 1 62.754600665303506 39.538060514997554 11.82184027477601 1 rotate no_reflect no_shear #
lump $-1 $-1 $42 $6 #
transform $-1 1 0 0 0 1 0 0 0 1 62.754600665303506 39.538060514997554 11.82184027477601 1 rotate no_reflect no_shear #
lump $-1 $-1 $43 $7 #
transform $-1 1 0 0 0 1 0 0 0 1 62.754600665303506 39.538060514997554 11.82184027477601 1 rotate no_reflect no_shear #
lump $-1 $-1 $44 $8 #
transform $-1 1 0 0 0 1 0 0 0 1 62.754600665303506 39.538060514997554 11.82184027477601 1 rotate no_reflect no_shear #
lump $-1 $-1 $45 $9 #
transform $-1 1 0 0 0 1 0 0 0 1 62.754600665303506 39.538060514997554 11.82184027477601 1 rotate no_reflect no_shear #
lump $-1 $-1 $46 $10 #
transform $-1 1 0 0 0 1 0 0 0 1 62.754600665303506 39.538060514997554 11.82184027477601 1 rotate no_reflect no_shear #
lump $-1 $-1 $47 $11 #
transform $-1 1 0 0 0 1 0 0 0 1 62.754600665303506 39.538060514997554 11.82184027477601 1 rotate no_reflect no_shear #
shell $-1 $-1 $-1 $48 $-1 $12 #
shell $-1 $-1 $-1 $49 $-1 $14 #
shell $-1 $-1 $-1 $50 $-1 $16 #
shell $-1 $-1 $-1 $51 $-1 $18 #
shell $-1 $-1 $-1 $52 $-1 $20 #
shell $-1 $-1 $-1 $53 $-1 $22 #
shell $-1 $-1 $-1 $54 $-1 $24 #
shell $-1 $-1 $-1 $55 $-1 $26 #
shell $-1 $-1 $-1 $56 $-1 $28 #
shell $-1 $-1 $-1 $57 $-1 $30 #
shell $-1 $-1 $-1 $58 $-1 $32 #
shell $-1 $-1 $-1 $59 $-1 $34 #
face $-1 $60 $61 $36 $-1 $62 forward single #
face $-1 $63 $64 $37 $-1 $65 forward single #
face $-1 $66 $67 $38 $-1 $68 forward single #
face $-1 $69 $70 $39 $-1 $71 reversed single #
face $-1 $72 $73 $40 $-1 $74 forward single #
face $-1 $75 $76 $41 $-1 $77 forward single #
face $-1 $78 $79 $42 $-1 $80 reversed single #
face $-1 $81 $82 $43 $-1 $83 forward single #
face $-1 $84 $85 $44 $-1 $86 forward single #
face $-1 $87 $88 $45 $-1 $89 reversed single #
face $-1 $90 $91 $46 $-1 $92 forward single #
face $-1 $93 $94 $47 $-1 $95 forward single #
face $-1 $96 $97 $36 $-1 $98 reversed single #
loop $-1 $-1 $99 $48 #
plane-surface $-1 0 0 11.82184027477601 0 0 1 1 0 0 forward_v I I I I #
face $-1 $100 $101 $37 $-1 $102 reversed single #
loop $-1 $-1 $103 $49 #
plane-surface $-1 -62.754600665303506 0 0 1 0 0 0 0 -1 forward_v I I I I #
face $-1 $104 $105 $38 $-1 $106 reversed single #
loop $-1 $-1 $107 $50 #
plane-surface $-1 62.754600665303506 0 0 -1 0 0 0 0 1 forward_v I I I I #
face $-1 $108 $109 $39 $-1 $110 reversed single #
loop $-1 $-1 $111 $51 #
plane-surface $-1 -16.965931324158312 84.854537755432503 148.28304668942462 1 0 0 0 -0.7660444514056185 -0.64278759981090561 forward_v I I I I #
face $-1 $112 $113 $40 $-1 $114 forward single #
loop $-1 $115 $116 $52 #
cone-surface $-1 -12.118522374398793 37.145237135392868 9.1052586665991146 0 -0.7660444514056185 -0.64278759981090561 0.5 0 0 1 I I 0 1 0.5 forward I I I I #
face $-1 $117 $118 $41 $-1 $119 forward single #
loop $-1 $120 $121 $53 #
cone-surface $-1 -4.8474089497595187 37.145237135392868 9.1052586665991146 0 -0.7660444514056185 -0.64278759981090561 0.5 0 0 1 I I 0 1 0.5 forward I I I I #
face $-1 $122 $123 $42 $-1 $124 reversed single #
loop $-1 $-1 $125 $54 #
plane-surface $-1 -8.4829656620791525 -11.291089524229662 67.607288411940033 0 0.7660444514056185 0.64278759981090561 1 0 0 forward_v I I I I #
face $-1 $126 $127 $43 $-1 $128 forward single #
loop $-1 $129 $130 $55 #
cone-surface $-1 4.8474089497595187 37.145237135392868 9.1052586665991146 0 -0.7660444514056185 -0.64278759981090561 0.5 0 0 1 I I 0 1 0.5 forward I I I I #
face $-1 $131 $132 $44 $-1 $133 forward single #
loop $-1 $134 $135 $56 #
cone-surface $-1 12.1185223743988 37.145237135392868 9.1052586665991146 0 -0.7660444514056185 -0.64278759981090561 0.5 0 0 1 I I 0 1 0.5 forward I I I I #
face $-1 $136 $137 $45 $-1 $138 reversed single #
loop $-1 $-1 $139 $57 #
plane-surface $-1 -13.183271284495437 -118.52356115753541 102.02298406936673 -1 0 0 0 -0.62932039886446345 0.77714595512881146 forward_v I I I I #
face $-1 $140 $141 $46 $-1 $142 forward single #
loop $-1 $143 $144 $58 #
cone-surface $-1 -33.685726325956551 -33.362094622483134 6.121229928763408 0 0.62932039886446345 -0.77714595512881146 2 0 0 1 I I 0 1 2 forward I I I I #
face $-1 $145 $146 $47 $-1 $147 forward single #
loop $-1 $148 $149 $59 #
cone-surface $-1 -21.384253301079887 -33.362094622483134 6.121229928763408 0 0.62932039886446345 -0.77714595512881146 2 0 0 1 I I 0 1 2 forward I I I I #
face $-1 $150 $151 $36 $-1 $152 reversed single #
loop $-1 $-1 $153 $60 #
plane-surface $-1 0 0 -11.82184027477601 0 0 1 1 0 0 forward_v I I I I #
coedge $-1 $154 $155 $156 $157 forward $61 $-1 #
face $-1 $158 $159 $37 $-1 $160 forward single #
loop $-1 $-1 $161 $63 #
plane-surface $-1 0 39.538060514997554 0 0 -1 0 0 0 -1 forward_v I I I I #
coedge $-1 $162 $163 $164 $165 forward $64 $-1 #
face $-1 $166 $167 $38 $-1 $168 forward single #
loop $-1 $-1 $169 $66 #
plane-surface $-1 0 39.538060514997554 0 0 -1 0 0 0 -1 forward_v I I I I #
coedge $-1 $170 $171 $172 $173 forward $67 $-1 #
face $-1 $174 $175 $39 $-1 $176 reversed single #
loop $-1 $-1 $177 $69 #
plane-surface $-1 -8.4829656620791525 -11.291089524229662 67.607288411940033 0 0.7660444514056185 0.64278759981090561 1 0 0 forward_v I I I I #
coedge $-1 $178 $179 $180 $181 reversed $70 $-1 #
face $-1 $-1 $182 $40 $-1 $183 forward single #
loop $-1 $184 $185 $72 #
cone-surface $-1 -12.118522374398793 36.570703796838657 8.6231679667409349 0 -0.7660444514056185 -0.64278759981090561 0.25 0 0 1 I I -0.70710678118654746 0.70710678118654746 0.25 forward I I I I #
loop $-1 $-1 $186 $52 #
coedge $-1 $116 $116 $187 $188 reversed $73 $-1 #
face $-1 $-1 $189 $41 $-1 $190 forward single #
loop $-1 $191 $192 $75 #
cone-surface $-1 -4.8474089497595187 36.570703796838657 8.6231679667409349 0 -0.7660444514056185 -0.64278759981090561 0.25 0 0 1 I I -0.70710678118654746 0.70710678118654746 0.25 forward I I I I #
loop $-1 $-1 $193 $53 #
coedge $-1 $121 $121 $194 $195 reversed $76 $-1 #
face $-1 $196 $197 $42 $-1 $198 forward single #
loop $-1 $-1 $199 $78 #
plane-surface $-1 16.965931324158319 84.854537755432503 148.28304668942462 -1 0 0 0 0.7660444514056185 0.64278759981090561 forward_v I I I I #
coedge $-1 $200 $201 $202 $203 reversed $79 $-1 #
face $-1 $-1 $204 $43 $-1 $205 forward single #
loop $-1 $206 $207 $81 #
cone-surface $-1 4.8474089497595187 36.570703796838657 8.6231679667409349 0 -0.7660444514056185 -0.64278759981090561 0.25 0 0 1 I I -0.70710678118654746 0.70710678118654746 0.25 forward I I I I #
loop $-1 $-1 $208 $55 #
coedge $-1 $130 $130 $209 $210 reversed $82 $-1 #
face $-1 $-1 $211 $44 $-1 $212 forward single #
loop $-1 $213 $214 $84 #
cone-surface $-1 12.1185223743988 36.570703796838657 8.6231679667409349 0 -0.7660444514056185 -0.64278759981090561 0.25 0 0 1 I I -0.70710678118654746 0.70710678118654746 0.25 forward I I I I #
loop $-1 $-1 $215 $56 #
coedge $-1 $135 $135 $216 $217 reversed $85 $-1 #
face $-1 $218 $219 $45 $-1 $220 reversed single #
loop $-1 $-1 $221 $87 #
plane-surface $-1 -27.534989813518216 -39.538060514997554 4.4840159238378448 0 -0.62932039886446345 0.77714595512881146 1 0 0 forward_v I I I I #
coedge $-1 $222 $223 $224 $225 reversed $88 $-1 #
face $-1 $-1 $226 $46 $-1 $227 forward single #
loop $-1 $228 $229 $90 #
cone-surface $-1 -33.685726325956551 -31.087537451014327 3.3123858030910807 0 0.62932039886446345 -0.77714595512881146 1 0 0 1 I I -0.70710678118654746 0.70710678118654746 1 forward I I I I #
loop $-1 $-1 $230 $58 #
coedge $-1 $144 $144 $231 $232 reversed $91 $-1 #
face $-1 $-1 $233 $47 $-1 $234 forward single #
loop $-1 $235 $236 $93 #
cone-surface $-1 -21.384253301079887 -31.087537451014327 3.3123858030910807 0 0.62932039886446345 -0.77714595512881146 1 0 0 1 I I -0.70710678118654746 0.70710678118654746 1 forward I I I I #
loop $-1 $-1 $237 $59 #
coedge $-1 $149 $149 $238 $239 reversed $94 $-1 #
face $-1 $240 $241 $36 $-1 $242 reversed single #
loop $-1 $-1 $243 $96 #
plane-surface $-1 0 -39.538060514997554 0 0 1 0 0 0 1 forward_v I I I I #
coedge $-1 $244 $245 $246 $247 forward $97 $-1 #
coedge $-1 $248 $99 $249 $250 forward $61 $-1 #
coedge $-1 $99 $248 $251 $252 forward $61 $-1 #
coedge $-1 $253 $254 $99 $157 reversed $255 $-1 #
edge $-1 $256 -39.538060514997554 $257 39.538060514997554 $156 $258 forward 7 unknown #
face $-1 $259 $260 $37 $-1 $261 reversed single #
loop $-1 $-1 $164 $100 #
plane-surface $-1 -69.853257310464187 0 -6.0731651269069342 0 0 1 1 0 0 forward_v I I I I #
coedge $-1 $262 $263 $163 $264 forward $101 $-1 #
coedge $-1 $265 $103 $266 $267 reversed $64 $-1 #
coedge $-1 $103 $265 $161 $264 reversed $64 $-1 #
coedge $-1 $268 $269 $103 $165 reversed $159 $-1 #
edge $-1 $270 -39.538060514997554 $271 39.538060514997554 $164 $272 forward 7 unknown #
face $-1 $273 $274 $38 $-1 $275 reversed single #
loop $-1 $-1 $276 $104 #
plane-surface $-1 69.853257310464187 0 -6.0731651269069342 0 0 1 1 0 0 forward_v I I I I #
coedge $-1 $277 $278 $170 $279 forward $105 $-1 #
coedge $-1 $280 $107 $169 $279 reversed $67 $-1 #
coedge $-1 $107 $280 $281 $282 reversed $67 $-1 #
coedge $-1 $283 $284 $107 $173 reversed $167 $-1 #
edge $-1 $285 -39.538060514997554 $286 39.538060514997554 $172 $287 forward 7 unknown #
face $-1 $288 $289 $39 $-1 $290 reversed single #
loop $-1 $-1 $291 $108 #
plane-surface $-1 7.1054273576010019e-015 84.854537755432503 148.28304668942462 -1 0 0 0 0.7660444514056185 0.64278759981090561 forward_v I I I I #
coedge $-1 $292 $293 $294 $295 reversed $109 $-1 #
coedge $-1 $179 $111 $296 $297 reversed $70 $-1 #
coedge $-1 $111 $178 $292 $298 reversed $70 $-1 #
coedge $-1 $294 $299 $111 $181 forward $300 $-1 #
edge $-1 $301 2.8892083627186977 $302 6.9088106705224206 $180 $303 forward 7 unknown #
loop $-1 $-1 $187 $112 #
plane-surface $-1 -8.4829656620791525 -11.291089524229662 67.607288411940033 0 0.7660444514056185 0.64278759981090561 1 0 0 forward_v I I I I #
loop $-1 $-1 $304 $72 #
coedge $-1 $185 $185 $186 $305 reversed $113 $-1 #
coedge $-1 $186 $186 $185 $305 forward $115 $-1 #
coedge $-1 $187 $187 $116 $188 forward $182 $-1 #
edge $-1 $306 3.5031704213313594e-015 $306 6.283185307179604 $187 $307 forward 7 unknown #
loop $-1 $-1 $194 $117 #
plane-surface $-1 -8.4829656620791525 -11.291089524229662 67.607288411940033 0 0.7660444514056185 0.64278759981090561 1 0 0 forward_v I I I I #
loop $-1 $-1 $308 $75 #
coedge $-1 $192 $192 $193 $309 reversed $118 $-1 #
coedge $-1 $193 $193 $192 $309 forward $120 $-1 #
coedge $-1 $194 $194 $121 $195 forward $189 $-1 #
edge $-1 $310 3.5031704213313594e-015 $310 6.283185307179604 $194 $311 forward 7 unknown #
face $-1 $312 $313 $42 $-1 $314 forward single #
loop $-1 $-1 $315 $122 #
plane-surface $-1 0 0 11.82184027477601 0 0 1 1 0 0 forward_v I I I I #
coedge $-1 $316 $317 $318 $319 reversed $123 $-1 #
coedge $-1 $320 $125 $321 $322 reversed $79 $-1 #
coedge $-1 $125 $320 $315 $323 reversed $79 $-1 #
coedge $-1 $324 $325 $125 $203 forward $313 $-1 #
edge $-1 $326 -79.076121029995107 $327 -72.822729849166151 $202 $328 forward 7 unknown #
loop $-1 $-1 $209 $126 #
plane-surface $-1 -8.4829656620791525 -11.291089524229662 67.607288411940033 0 0.7660444514056185 0.64278759981090561 1 0 0 forward_v I I I I #
loop $-1 $-1 $329 $81 #
coedge $-1 $207 $207 $208 $330 reversed $127 $-1 #
coedge $-1 $208 $208 $207 $330 forward $129 $-1 #
coedge $-1 $209 $209 $130 $210 forward $204 $-1 #
edge $-1 $331 3.5031704213313594e-015 $331 6.283185307179604 $209 $332 forward 7 unknown #
loop $-1 $-1 $216 $131 #
plane-surface $-1 -8.4829656620791525 -11.291089524229662 67.607288411940033 0 0.7660444514056185 0.64278759981090561 1 0 0 forward_v I I I I #
loop $-1 $-1 $333 $84 #
coedge $-1 $214 $214 $215 $334 reversed $132 $-1 #
coedge $-1 $215 $215 $214 $334 forward $134 $-1 #
coedge $-1 $216 $216 $135 $217 forward $211 $-1 #
edge $-1 $335 3.5031704213313594e-015 $335 6.283185307179604 $216 $336 forward 7 unknown #
face $-1 $337 $338 $45 $-1 $339 forward single #
loop $-1 $-1 $340 $136 #
plane-surface $-1 -41.886708342540999 -118.52356115753541 102.02298406936673 1 0 0 0 0.62932039886446345 -0.77714595512881146 forward_v I I I I #
coedge $-1 $341 $342 $343 $344 reversed $137 $-1 #
coedge $-1 $223 $139 $345 $346 reversed $88 $-1 #
coedge $-1 $139 $222 $341 $347 reversed $88 $-1 #
coedge $-1 $343 $348 $139 $225 forward $338 $-1 #
edge $-1 $349 19.723720063770152 $350 28.785178303590296 $224 $351 forward 7 unknown #
loop $-1 $-1 $231 $140 #
plane-surface $-1 -27.534989813518216 -39.538060514997554 4.4840159238378448 0 -0.62932039886446345 0.77714595512881146 1 0 0 forward_v I I I I #
loop $-1 $-1 $352 $90 #
coedge $-1 $229 $229 $230 $353 reversed $141 $-1 #
coedge $-1 $230 $230 $229 $353 forward $143 $-1 #
coedge $-1 $231 $231 $144 $232 forward $226 $-1 #
edge $-1 $354 1.084130673165134e-015 $354 6.2831853071796013 $231 $355 forward 7 unknown #
loop $-1 $-1 $238 $145 #
plane-surface $-1 -27.534989813518216 -39.538060514997554 4.4840159238378448 0 -0.62932039886446345 0.77714595512881146 1 0 0 forward_v I I I I #
loop $-1 $-1 $356 $93 #
coedge $-1 $236 $236 $237 $357 reversed $146 $-1 #
coedge $-1 $237 $237 $236 $357 forward $148 $-1 #
coedge $-1 $238 $238 $149 $239 forward $233 $-1 #
edge $-1 $358 1.084130673165134e-015 $358 6.2831853071796013 $238 $359 forward 7 unknown #
face $-1 $360 $361 $36 $-1 $362 reversed single #
loop $-1 $-1 $363 $150 #
plane-surface $-1 -62.754600665303506 0 0 1 0 0 0 0 -1 forward_v I I I I #
coedge $-1 $364 $251 $363 $365 forward $151 $-1 #
coedge $-1 $366 $153 $364 $367 forward $97 $-1 #
coedge $-1 $153 $366 $368 $369 forward $97 $-1 #
coedge $-1 $254 $253 $153 $247 reversed $255 $-1 #
edge $-1 $370 -39.538060514997554 $371 39.538060514997554 $246 $372 forward 7 unknown #
coedge $-1 $155 $154 $373 $374 forward $61 $-1 #
coedge $-1 $375 $376 $154 $250 reversed $361 $-1 #
edge $-1 $257 -62.754600665303506 $377 62.754600665303506 $249 $378 forward 7 unknown #
coedge $-1 $243 $379 $155 $252 reversed $151 $-1 #
edge $-1 $380 -62.754600665303506 $256 62.754600665303506 $251 $381 forward 7 unknown #
coedge $-1 $246 $156 $379 $382 forward $255 $-1 #
coedge $-1 $156 $246 $375 $383 reversed $255 $-1 #
loop $-1 $-1 $254 $360 #
vertex $-1 $157 $384 #
vertex $-1 $157 $385 #
straight-curve $-1 62.754600665303506 0 11.82184027477601 0 1 0 I I #
face $-1 $386 $387 $37 $-1 $388 reversed single #
loop $-1 $-1 $389 $158 #
plane-surface $-1 -76.951913955624875 0 -8.947502700841472 1 0 0 0 0 -1 forward_v I I I I #
coedge $-1 $390 $161 $391 $392 reversed $101 $-1 #
coedge $-1 $161 $390 $268 $393 reversed $101 $-1 #
edge $-1 $270 6.0731651269069342 $394 11.82184027477601 $161 $395 forward 7 unknown #
coedge $-1 $163 $162 $396 $397 reversed $64 $-1 #
coedge $-1 $398 $399 $162 $267 forward $400 $-1 #
edge $-1 $401 -11.82184027477601 $271 -6.0731651269069342 $266 $402 forward 7 unknown #
coedge $-1 $403 $164 $263 $393 forward $159 $-1 #
coedge $-1 $164 $403 $398 $404 forward $159 $-1 #
vertex $-1 $264 $405 #
vertex $-1 $404 $406 #
straight-curve $-1 -62.754600665303506 0 -6.0731651269069342 0 -1 0 I I #
face $-1 $407 $408 $38 $-1 $409 reversed single #
loop $-1 $-1 $410 $166 #
plane-surface $-1 76.95191395562486 0 -8.947502700841472 -1 0 0 0 0 1 forward_v I I I I #
coedge $-1 $284 $283 $411 $412 forward $167 $-1 #
coedge $-1 $413 $169 $284 $414 reversed $105 $-1 #
coedge $-1 $169 $413 $415 $416 reversed $105 $-1 #
edge $-1 $417 -11.82184027477601 $286 -6.0731651269069342 $169 $418 forward 7 unknown #
coedge $-1 $171 $170 $419 $420 reversed $67 $-1 #
coedge $-1 $421 $422 $171 $282 forward $423 $-1 #
edge $-1 $285 6.0731651269069342 $424 11.82184027477601 $281 $425 forward 7 unknown #
coedge $-1 $276 $172 $422 $426 forward $167 $-1 #
coedge $-1 $172 $276 $277 $414 forward $167 $-1 #
vertex $-1 $282 $427 #
vertex $-1 $414 $428 #
straight-curve $-1 62.754600665303506 0 -6.0731651269069342 0 1 0 I I #
face $-1 $-1 $300 $39 $-1 $429 forward single #
loop $-1 $-1 $430 $174 #
plane-surface $-1 0 39.538060514997554 0 0 -1 0 0 0 -1 forward_v I I I I #
coedge $-1 $431 $432 $433 $434 reversed $175 $-1 #
coedge $-1 $435 $177 $179 $298 forward $109 $-1 #
coedge $-1 $177 $435 $431 $436 forward $109 $-1 #
coedge $-1 $433 $180 $177 $295 forward $300 $-1 #
edge $-1 $302 -12.724448493118736 $437 4.2414828310395833 $294 $438 forward 7 unknown #
coedge $-1 $439 $440 $178 $297 forward $289 $-1 #
edge $-1 $441 -67.11005868647915 $301 -62.319683069936303 $296 $442 forward 7 unknown #
edge $-1 $302 72.822729849166151 $441 79.076121029995107 $179 $443 forward 7 unknown #
coedge $-1 $180 $433 $439 $444 forward $300 $-1 #
loop $-1 $-1 $433 $288 #
vertex $-1 $297 $445 #
vertex $-1 $181 $446 #
straight-curve $-1 -16.965931324158312 42.427268877716251 11.821840274776008 0 -1 0 I I #
coedge $-1 $304 $304 $-1 $447 reversed $184 $-1 #
edge $-1 $448 0 $448 6.2831853071796004 $185 $449 forward 7 unknown #
vertex $-1 $188 $450 #
ellipse-curve $-1 -12.118522374398793 37.528259361095692 9.4266524665045814 0 0.7660444514056185 0.64278759981090561 0.5 0 0 1 I I #
coedge $-1 $308 $308 $-1 $451 reversed $191 $-1 #
edge $-1 $452 0 $452 6.2831853071796004 $192 $453 forward 7 unknown #
vertex $-1 $195 $454 #
ellipse-curve $-1 -4.8474089497595187 37.528259361095692 9.4266524665045814 0 0.7660444514056185 0.64278759981090561 0.5 0 0 1 I I #
face $-1 $-1 $455 $42 $-1 $456 reversed single #
loop $-1 $-1 $324 $196 #
plane-surface $-1 7.1054273576010019e-015 84.854537755432503 148.28304668942462 -1 0 0 0 0.7660444514056185 0.64278759981090561 forward_v I I I I #
coedge $-1 $318 $457 $201 $323 forward $197 $-1 #
coedge $-1 $317 $199 $320 $458 reversed $123 $-1 #
coedge $-1 $199 $316 $459 $460 reversed $123 $-1 #
coedge $-1 $461 $315 $199 $319 forward $197 $-1 #
edge $-1 $462 -6.9088106705224206 $463 -2.8892083627186977 $318 $464 forward 7 unknown #
coedge $-1 $201 $200 $316 $458 forward $79 $-1 #
coedge $-1 $465 $459 $200 $322 forward $455 $-1 #
edge $-1 $466 -21.207414155197895 $326 -4.2414828310395833 $321 $467 forward 7 unknown #
edge $-1 $327 4.2414828310395833 $462 21.207414155197895 $315 $468 forward 7 unknown #
coedge $-1 $325 $202 $457 $469 reversed $313 $-1 #
coedge $-1 $202 $324 $465 $470 reversed $313 $-1 #
vertex $-1 $322 $471 #
vertex $-1 $323 $472 #
straight-curve $-1 7.1054273576010019e-015 -11.291089524229662 67.607288411940033 0 -0.64278759981090561 0.7660444514056185 I I #
coedge $-1 $329 $329 $-1 $473 reversed $206 $-1 #
edge $-1 $474 0 $474 6.2831853071796004 $207 $475 forward 7 unknown #
vertex $-1 $210 $476 #
ellipse-curve $-1 4.8474089497595187 37.528259361095692 9.4266524665045814 0 0.7660444514056185 0.64278759981090561 0.5 0 0 1 I I #
coedge $-1 $333 $333 $-1 $477 reversed $213 $-1 #
edge $-1 $478 0 $478 6.2831853071796004 $214 $479 forward 7 unknown #
vertex $-1 $217 $480 #
ellipse-curve $-1 12.1185223743988 37.528259361095692 9.4266524665045814 0 0.7660444514056185 0.64278759981090561 0.5 0 0 1 I I #
face $-1 $-1 $481 $45 $-1 $482 reversed single #
loop $-1 $-1 $224 $218 #
plane-surface $-1 0 0 11.82184027477601 0 0 1 1 0 0 forward_v I I I I #
coedge $-1 $483 $484 $485 $486 reversed $219 $-1 #
coedge $-1 $487 $221 $223 $347 forward $137 $-1 #
coedge $-1 $221 $487 $483 $488 forward $137 $-1 #
coedge $-1 $485 $224 $221 $344 forward $338 $-1 #
edge $-1 $350 -0.58422362226367142 $489 28.119213435781891 $343 $490 forward 7 unknown #
coedge $-1 $491 $492 $222 $346 forward $481 $-1 #
edge $-1 $493 -46.527476110845519 $349 -39.189651759907356 $345 $494 forward 7 unknown #
edge $-1 $350 -11.659918165974645 $493 0 $223 $495 forward 7 unknown #
coedge $-1 $224 $485 $491 $496 forward $338 $-1 #
vertex $-1 $346 $497 #
vertex $-1 $225 $498 #
straight-curve $-1 -13.183271284495437 -59.261780578767706 11.821840274776008 0 1 0 I I #
coedge $-1 $352 $352 $-1 $499 reversed $228 $-1 #
edge $-1 $500 0 $500 6.2831853071796004 $229 $501 forward 7 unknown #
vertex $-1 $232 $502 #
ellipse-curve $-1 -33.685726325956551 -35.007331395087483 8.1529280993069282 0 -0.62932039886446345 0.77714595512881146 2 0 0 1 I I #
coedge $-1 $356 $356 $-1 $503 reversed $235 $-1 #
edge $-1 $504 0 $504 6.2831853071796004 $236 $505 forward 7 unknown #
vertex $-1 $239 $506 #
ellipse-curve $-1 -21.384253301079887 -35.007331395087483 8.1529280993069282 0 -0.62932039886446345 0.77714595512881146 2 0 0 1 I I #
face $-1 $-1 $255 $36 $-1 $507 reversed single #
loop $-1 $-1 $375 $240 #
plane-surface $-1 0 39.538060514997554 0 0 -1 0 0 0 -1 forward_v I I I I #
coedge $-1 $373 $508 $243 $365 reversed $241 $-1 #
coedge $-1 $379 $243 $244 $367 reversed $151 $-1 #
edge $-1 $380 -11.82184027477601 $509 11.82184027477601 $363 $510 forward 7 unknown #
coedge $-1 $245 $244 $508 $511 forward $97 $-1 #
edge $-1 $371 -62.754600665303506 $509 62.754600665303506 $364 $512 forward 7 unknown #
coedge $-1 $376 $375 $245 $369 reversed $361 $-1 #
edge $-1 $513 -62.754600665303506 $370 62.754600665303506 $368 $514 forward 7 unknown #
vertex $-1 $247 $515 #
vertex $-1 $382 $516 #
straight-curve $-1 62.754600665303506 0 -11.82184027477601 0 -1 0 I I #
coedge $-1 $517 $363 $248 $374 reversed $241 $-1 #
edge $-1 $377 -39.538060514997554 $380 39.538060514997554 $373 $518 forward 7 unknown #
coedge $-1 $368 $249 $254 $383 forward $361 $-1 #
coedge $-1 $249 $368 $517 $519 reversed $361 $-1 #
vertex $-1 $250 $520 #
straight-curve $-1 0 39.538060514997554 11.82184027477601 -1 0 0 I I #
coedge $-1 $251 $364 $253 $382 reversed $151 $-1 #
vertex $-1 $374 $521 #
straight-curve $-1 0 -39.538060514997554 11.82184027477601 1 0 0 I I #
edge $-1 $256 -11.82184027477601 $371 11.82184027477601 $253 $522 forward 7 unknown #
edge $-1 $257 -11.82184027477601 $370 11.82184027477601 $254 $523 forward 7 unknown #
point $-1 62.754600665303506 -39.538060514997554 11.82184027477601 #
point $-1 62.754600665303506 39.538060514997554 11.82184027477601 #
face $-1 $-1 $400 $37 $-1 $524 reversed single #
loop $-1 $-1 $396 $259 #
plane-surface $-1 0 0 -11.82184027477601 0 0 1 1 0 0 forward_v I I I I #
coedge $-1 $525 $526 $390 $527 forward $260 $-1 #
coedge $-1 $263 $262 $389 $527 reversed $101 $-1 #
coedge $-1 $396 $528 $262 $392 forward $387 $-1 #
edge $-1 $529 -76.951913955624875 $394 -62.754600665303506 $262 $530 forward 7 unknown #
edge $-1 $270 -7.0986566451606876 $531 7.0986566451606876 $263 $532 forward 7 unknown #
vertex $-1 $264 $533 #
straight-curve $-1 -62.754600665303506 39.538060514997554 0 0 0 -1 I I #
coedge $-1 $534 $391 $265 $397 forward $387 $-1 #
edge $-1 $394 -39.538060514997554 $401 39.538060514997554 $396 $535 forward 7 unknown #
coedge $-1 $536 $266 $269 $404 reversed $400 $-1 #
coedge $-1 $266 $536 $534 $537 reversed $400 $-1 #
loop $-1 $-1 $266 $386 #
vertex $-1 $537 $538 #
straight-curve $-1 -62.754600665303506 -39.538060514997554 0 0 0 1 I I #
coedge $-1 $269 $268 $526 $539 forward $159 $-1 #
edge $-1 $540 -7.0986566451606876 $271 7.0986566451606876 $398 $541 forward 7 unknown #
point $-1 -62.754600665303499 39.538060514997554 -6.0731651269069342 #
point $-1 -62.754600665303499 -39.538060514997554 -6.0731651269069342 #
face $-1 $-1 $423 $38 $-1 $542 reversed single #
loop $-1 $-1 $419 $273 #
plane-surface $-1 0 0 -11.82184027477601 0 0 1 1 0 0 forward_v I I I I #
coedge $-1 $543 $411 $544 $545 forward $274 $-1 #
coedge $-1 $410 $546 $276 $412 reversed $274 $-1 #
edge $-1 $547 -39.538060514997554 $548 39.538060514997554 $411 $549 forward 7 unknown #
coedge $-1 $278 $277 $546 $550 forward $105 $-1 #
edge $-1 $548 -7.0986566451606734 $286 7.0986566451606805 $277 $551 forward 7 unknown #
coedge $-1 $552 $419 $278 $416 forward $408 $-1 #
edge $-1 $417 -7.0986566451606805 $553 7.0986566451606734 $278 $554 forward 7 unknown #
vertex $-1 $416 $555 #
straight-curve $-1 62.754600665303506 39.538060514997554 0 0 0 1 I I #
coedge $-1 $415 $556 $280 $420 forward $408 $-1 #
edge $-1 $424 -39.538060514997554 $417 39.538060514997554 $419 $557 forward 7 unknown #
coedge $-1 $544 $281 $556 $558 reversed $423 $-1 #
coedge $-1 $281 $544 $283 $426 reversed $423 $-1 #
loop $-1 $-1 $281 $407 #
vertex $-1 $282 $559 #
straight-curve $-1 62.754600665303506 -39.538060514997554 0 0 0 -1 I I #
edge $-1 $285 -7.0986566451606805 $547 7.0986566451606734 $422 $560 forward 7 unknown #
point $-1 62.754600665303506 -39.538060514997554 -6.0731651269069342 #
point $-1 62.754600665303506 39.538060514997554 -6.0731651269069342 #
plane-surface $-1 0 0 11.82184027477601 0 0 1 1 0 0 forward_v I I I I #
coedge $-1 $440 $439 $432 $561 forward $289 $-1 #
coedge $-1 $432 $291 $293 $436 reversed $175 $-1 #
coedge $-1 $291 $431 $430 $561 reversed $175 $-1 #
coedge $-1 $299 $294 $291 $434 forward $300 $-1 #
edge $-1 $437 -6.9088106705224206 $562 -2.8892083627186977 $433 $563 forward 7 unknown #
coedge $-1 $293 $292 $440 $564 reversed $109 $-1 #
edge $-1 $565 -79.076121029995107 $437 -72.822729849166151 $431 $566 forward 7 unknown #
vertex $-1 $295 $567 #
straight-curve $-1 -4.2414828310395762 35.518458207193824 11.821840274776008 1 0 0 I I #
coedge $-1 $430 $296 $299 $444 reversed $289 $-1 #
coedge $-1 $296 $430 $435 $564 forward $289 $-1 #
vertex $-1 $297 $568 #
straight-curve $-1 -16.965931324158312 39.538060514997554 74.141523344712311 0 0 1 I I #
straight-curve $-1 -16.965931324158312 -11.291089524229662 67.607288411940033 0 0.64278759981090561 -0.7660444514056185 I I #
edge $-1 $562 -7.1054273576010019e-015 $301 16.965931324158312 $439 $569 forward 7 unknown #
point $-1 -16.965931324158312 39.538060514997554 11.82184027477601 #
point $-1 -16.965931324158312 35.518458207193831 11.821840274776001 #
edge $-1 $570 1 $570 0 $304 $-1 forward 7 unknown #
vertex $-1 $305 $571 #
ellipse-curve $-1 -12.118522374398793 36.762214909690059 8.7838648666936621 0 0.7660444514056185 0.64278759981090561 0.5 0 0 1 I I #
point $-1 -11.618522374398793 37.528259361095678 9.4266524665045672 #
edge $-1 $572 1 $572 0 $308 $-1 forward 7 unknown #
vertex $-1 $309 $573 #
ellipse-curve $-1 -4.8474089497595187 36.762214909690059 8.7838648666936621 0 0.7660444514056185 0.64278759981090561 0.5 0 0 1 I I #
point $-1 -4.3474089497595187 37.528259361095678 9.4266524665045672 #
loop $-1 $-1 $321 $312 #
plane-surface $-1 0 39.538060514997554 0 0 -1 0 0 0 -1 forward_v I I I I #
coedge $-1 $315 $461 $324 $469 forward $197 $-1 #
edge $-1 $466 -79.076121029995107 $462 -72.822729849166151 $316 $574 forward 7 unknown #
coedge $-1 $321 $575 $317 $460 forward $455 $-1 #
edge $-1 $463 62.319683069936303 $466 67.11005868647915 $459 $576 forward 7 unknown #
coedge $-1 $457 $318 $575 $577 forward $197 $-1 #
vertex $-1 $319 $578 #
vertex $-1 $577 $579 #
straight-curve $-1 16.965931324158319 42.427268877716251 11.821840274776008 0 1 0 I I #
coedge $-1 $575 $321 $325 $470 forward $455 $-1 #
vertex $-1 $460 $580 #
straight-curve $-1 -4.2414828310395762 39.538060514997554 7.0314646582331584 -1 0 0 I I #
straight-curve $-1 -4.2414828310395762 35.518458207193824 11.821840274776008 1 0 0 I I #
edge $-1 $581 2.8892083627186977 $327 6.9088106705224206 $457 $582 forward 7 unknown #
edge $-1 $326 -67.11005868647915 $581 -62.319683069936303 $465 $583 forward 7 unknown #
point $-1 7.1054273576010019e-015 39.538060514997554 7.0314646582331619 #
point $-1 7.1054273576010019e-015 35.518458207193831 11.821840274776001 #
edge $-1 $584 1 $584 0 $329 $-1 forward 7 unknown #
vertex $-1 $330 $585 #
ellipse-curve $-1 4.8474089497595187 36.762214909690059 8.7838648666936621 0 0.7660444514056185 0.64278759981090561 0.5 0 0 1 I I #
point $-1 5.3474089497595187 37.528259361095678 9.4266524665045672 #
edge $-1 $586 1 $586 0 $333 $-1 forward 7 unknown #
vertex $-1 $334 $587 #
ellipse-curve $-1 12.1185223743988 36.762214909690059 8.7838648666936621 0 0.7660444514056185 0.64278759981090561 0.5 0 0 1 I I #
point $-1 12.6185223743988 37.528259361095678 9.4266524665045672 #
loop $-1 $-1 $345 $337 #
plane-surface $-1 0 -39.538060514997554 0 0 1 0 0 0 1 forward_v I I I I #
coedge $-1 $484 $340 $342 $488 reversed $219 $-1 #
coedge $-1 $340 $483 $588 $589 reversed $219 $-1 #
coedge $-1 $348 $343 $340 $486 forward $338 $-1 #
edge $-1 $489 -28.785178303590296 $590 -19.723720063770152 $485 $591 forward 7 unknown #
coedge $-1 $342 $341 $492 $592 reversed $137 $-1 #
edge $-1 $593 0 $489 11.659918165974645 $483 $594 forward 7 unknown #
vertex $-1 $344 $595 #
straight-curve $-1 -13.767494906759108 -30.476602275177406 11.82184027477601 -1 0 0 I I #
coedge $-1 $588 $345 $348 $496 reversed $481 $-1 #
coedge $-1 $345 $588 $487 $592 forward $481 $-1 #
vertex $-1 $346 $596 #
straight-curve $-1 -13.183271284495437 -39.538060514997554 51.011492034683364 0 0 1 I I #
straight-curve $-1 -13.183271284495437 -39.538060514997554 4.4840159238378448 0 -0.77714595512881146 -0.62932039886446345 I I #
edge $-1 $590 -41.886708342540999 $349 -13.183271284495437 $491 $597 forward 7 unknown #
point $-1 -13.183271284495437 -39.538060514997554 11.82184027477601 #
point $-1 -13.183271284495437 -30.476602275177409 11.821840274776012 #
edge $-1 $598 1 $598 0 $352 $-1 forward 7 unknown #
vertex $-1 $353 $599 #
ellipse-curve $-1 -33.685726325956551 -31.716857849878792 4.0895317582198922 0 -0.62932039886446345 0.77714595512881146 2 0 0 1 I I #
point $-1 -31.685726325956551 -35.007331395087476 8.1529280993069229 #
edge $-1 $600 1 $600 0 $356 $-1 forward 7 unknown #
vertex $-1 $357 $601 #
ellipse-curve $-1 -21.384253301079887 -31.716857849878792 4.0895317582198922 0 -0.62932039886446345 0.77714595512881146 2 0 0 1 I I #
point $-1 -19.384253301079887 -35.007331395087476 8.1529280993069229 #
plane-surface $-1 62.754600665303506 0 0 -1 0 0 0 0 1 forward_v I I I I #
coedge $-1 $363 $517 $366 $511 reversed $241 $-1 #
vertex $-1 $511 $602 #
straight-curve $-1 -62.754600665303506 -39.538060514997554 0 0 0 -1 I I #
edge $-1 $509 -39.538060514997554 $513 39.538060514997554 $508 $603 forward 7 unknown #
straight-curve $-1 0 -39.538060514997554 -11.82184027477601 -1 0 0 I I #
vertex $-1 $369 $604 #
straight-curve $-1 0 39.538060514997554 -11.82184027477601 1 0 0 I I #
point $-1 62.754600665303506 39.538060514997554 -11.82184027477601 #
point $-1 62.754600665303506 -39.538060514997554 -11.82184027477601 #
coedge $-1 $508 $373 $376 $519 forward $241 $-1 #
straight-curve $-1 -62.754600665303506 0 11.82184027477601 0 -1 0 I I #
edge $-1 $377 -11.82184027477601 $513 11.82184027477601 $376 $605 forward 7 unknown #
point $-1 -62.754600665303506 39.538060514997554 11.82184027477601 #
point $-1 -62.754600665303506 -39.538060514997554 11.82184027477601 #
straight-curve $-1 62.754600665303506 -39.538060514997554 0 0 0 -1 I I #
straight-curve $-1 62.754600665303506 39.538060514997554 0 0 0 -1 I I #
plane-surface $-1 0 -39.538060514997554 0 0 1 0 0 0 1 forward_v I I I I #
coedge $-1 $606 $389 $528 $607 reversed $260 $-1 #
coedge $-1 $389 $606 $403 $539 reversed $260 $-1 #
edge $-1 $531 -2.8743375739345378 $529 2.8743375739345378 $390 $608 forward 7 unknown #
coedge $-1 $391 $534 $525 $607 forward $387 $-1 #
vertex $-1 $392 $609 #
straight-curve $-1 0 39.538060514997554 -11.82184027477601 1 0 0 I I #
vertex $-1 $393 $610 #
straight-curve $-1 -69.853257310464187 39.538060514997554 -6.0731651269069342 -1 0 0 I I #
point $-1 -62.754600665303506 39.538060514997554 -11.82184027477601 #
coedge $-1 $528 $396 $399 $537 forward $387 $-1 #
straight-curve $-1 -62.754600665303506 0 -11.82184027477601 0 -1 0 I I #
coedge $-1 $399 $398 $606 $611 forward $400 $-1 #
edge $-1 $401 -7.0986566451606805 $612 7.0986566451606876 $399 $613 forward 7 unknown #
point $-1 -62.754600665303506 -39.538060514997554 -11.82184027477601 #
edge $-1 $531 -39.538060514997554 $540 39.538060514997554 $526 $614 forward 7 unknown #
vertex $-1 $539 $615 #
straight-curve $-1 -69.853257310464187 -39.538060514997554 -6.0731651269069342 1 0 0 I I #
plane-surface $-1 0 -39.538060514997554 0 0 1 0 0 0 1 forward_v I I I I #
coedge $-1 $546 $410 $552 $616 reversed $274 $-1 #
coedge $-1 $422 $421 $410 $545 reversed $423 $-1 #
edge $-1 $547 -2.8743375739345378 $617 2.8743375739345378 $410 $618 forward 7 unknown #
coedge $-1 $411 $543 $413 $550 reversed $274 $-1 #
vertex $-1 $412 $619 #
vertex $-1 $412 $620 #
straight-curve $-1 76.95191395562486 0 -6.0731651269069342 0 1 0 I I #
edge $-1 $548 -2.8743375739345378 $553 2.8743375739345378 $546 $621 forward 7 unknown #
straight-curve $-1 69.853257310464187 39.538060514997554 -6.0731651269069342 -1 0 0 I I #
coedge $-1 $556 $415 $543 $616 forward $408 $-1 #
vertex $-1 $616 $622 #
straight-curve $-1 69.853257310464187 39.538060514997554 -11.82184027477601 1 0 0 I I #
point $-1 62.754600665303506 39.538060514997554 -11.82184027477601 #
coedge $-1 $419 $552 $421 $558 forward $408 $-1 #
straight-curve $-1 62.754600665303506 0 -11.82184027477601 0 1 0 I I #
edge $-1 $617 -7.0986566451606734 $424 7.0986566451606805 $421 $623 forward 7 unknown #
point $-1 62.754600665303506 -39.538060514997554 -11.82184027477601 #
straight-curve $-1 69.853257310464187 -39.538060514997554 -6.0731651269069342 1 0 0 I I #
edge $-1 $562 62.319683069936303 $565 67.11005868647915 $430 $624 forward 7 unknown #
vertex $-1 $444 $625 #
straight-curve $-1 7.1054273576010019e-015 42.427268877716251 11.821840274776008 0 1 0 I I #
edge $-1 $565 -4.2414828310395833 $441 12.724448493118736 $440 $626 forward 7 unknown #
vertex $-1 $564 $627 #
straight-curve $-1 7.1054273576010019e-015 -11.291089524229662 67.607288411940033 0 -0.64278759981090561 0.7660444514056185 I I #
point $-1 7.1054273576010019e-015 35.518458207193831 11.821840274776001 #
point $-1 -16.965931324158312 39.538060514997554 7.0314646582331619 #
straight-curve $-1 0 39.538060514997554 11.82184027477601 -1 0 0 I I #
vertex $-1 $447 $628 #
point $-1 -11.618522374398793 36.762214909690059 8.7838648666936621 #
vertex $-1 $451 $629 #
point $-1 -4.3474089497595187 36.762214909690059 8.7838648666936621 #
straight-curve $-1 16.965931324158319 -11.291089524229662 67.607288411940033 0 -0.64278759981090561 0.7660444514056185 I I #
coedge $-1 $459 $465 $461 $577 reversed $455 $-1 #
straight-curve $-1 16.965931324158319 39.538060514997554 74.141523344712311 0 0 -1 I I #
edge $-1 $463 -16.965931324158319 $581 -7.1054273576010019e-015 $575 $630 forward 7 unknown #
point $-1 16.965931324158319 35.518458207193831 11.821840274776001 #
point $-1 16.965931324158319 39.538060514997554 11.82184027477601 #
point $-1 16.965931324158319 39.538060514997554 7.0314646582331619 #
vertex $-1 $470 $631 #
straight-curve $-1 7.1054273576010019e-015 42.427268877716251 11.821840274776008 0 -1 0 I I #
straight-curve $-1 7.1054273576010019e-015 39.538060514997554 74.141523344712311 0 0 1 I I #
vertex $-1 $473 $632 #
point $-1 5.3474089497595187 36.762214909690059 8.7838648666936621 #
vertex $-1 $477 $633 #
point $-1 12.6185223743988 36.762214909690059 8.7838648666936621 #
coedge $-1 $492 $491 $484 $589 forward $481 $-1 #
edge $-1 $590 39.189651759907356 $593 46.527476110845519 $588 $634 forward 7 unknown #
vertex $-1 $496 $635 #
straight-curve $-1 -41.886708342540999 -59.261780578767706 11.821840274776008 0 -1 0 I I #
edge $-1 $593 -28.119213435781891 $493 0.58422362226367142 $492 $636 forward 7 unknown #
vertex $-1 $592 $637 #
straight-curve $-1 -41.886708342540999 -39.538060514997554 4.4840159238378448 0 0.77714595512881146 0.62932039886446345 I I #
point $-1 -41.886708342540999 -30.476602275177409 11.821840274776012 #
point $-1 -13.183271284495437 -39.538060514997554 4.4840159238378448 #
straight-curve $-1 0 -39.538060514997554 11.82184027477601 1 0 0 I I #
vertex $-1 $499 $638 #
point $-1 -31.685726325956551 -31.716857849878792 4.0895317582198922 #
vertex $-1 $503 $639 #
point $-1 -19.384253301079887 -31.716857849878792 4.0895317582198922 #
point $-1 -62.754600665303506 -39.538060514997554 -11.82184027477601 #
straight-curve $-1 -62.754600665303506 0 -11.82184027477601 0 1 0 I I #
point $-1 -62.754600665303506 39.538060514997554 -11.82184027477601 #
straight-curve $-1 -62.754600665303506 39.538060514997554 0 0 0 -1 I I #
coedge $-1 $526 $525 $536 $611 reversed $260 $-1 #
edge $-1 $612 -39.538060514997554 $529 39.538060514997554 $525 $640 forward 7 unknown #
straight-curve $-1 -76.951913955624875 39.538060514997554 -8.947502700841472 0 0 -1 I I #
point $-1 -76.951913955624875 39.538060514997554 -11.82184027477601 #
point $-1 -76.951913955624875 39.538060514997554 -6.0731651269069342 #
edge $-1 $540 -2.8743375739345378 $612 2.8743375739345378 $606 $641 forward 7 unknown #
vertex $-1 $607 $642 #
straight-curve $-1 -69.853257310464187 -39.538060514997554 -11.82184027477601 -1 0 0 I I #
straight-curve $-1 -76.951913955624875 0 -6.0731651269069342 0 -1 0 I I #
point $-1 -76.951913955624875 -39.538060514997554 -6.0731651269069342 #
edge $-1 $553 -39.538060514997554 $617 39.538060514997554 $543 $643 forward 7 unknown #
vertex $-1 $545 $644 #
straight-curve $-1 76.95191395562486 -39.538060514997554 -8.947502700841472 0 0 -1 I I #
point $-1 76.95191395562486 -39.538060514997554 -6.0731651269069342 #
point $-1 76.95191395562486 39.538060514997554 -6.0731651269069342 #
straight-curve $-1 76.95191395562486 39.538060514997554 -8.947502700841472 0 0 -1 I I #
point $-1 76.95191395562486 39.538060514997554 -11.82184027477601 #
straight-curve $-1 69.853257310464187 -39.538060514997554 -11.82184027477601 -1 0 0 I I #
straight-curve $-1 7.1054273576010019e-015 39.538060514997554 74.141523344712311 0 0 -1 I I #
point $-1 7.1054273576010019e-015 39.538060514997554 11.82184027477601 #
straight-curve $-1 -4.2414828310395762 39.538060514997554 7.0314646582331584 -1 0 0 I I #
point $-1 7.1054273576010019e-015 39.538060514997554 7.0314646582331619 #
point $-1 -12.118522374398793 36.379192683987256 8.4624710667882077 #
point $-1 -4.8474089497595187 36.379192683987256 8.4624710667882077 #
straight-curve $-1 0 39.538060514997554 11.82184027477601 -1 0 0 I I #
point $-1 7.1054273576010019e-015 39.538060514997554 11.82184027477601 #
point $-1 4.8474089497595187 36.379192683987256 8.4624710667882077 #
point $-1 12.1185223743988 36.379192683987256 8.4624710667882077 #
straight-curve $-1 -41.886708342540999 -39.538060514997554 51.011492034683364 0 0 -1 I I #
point $-1 -41.886708342540999 -39.538060514997554 11.82184027477601 #
straight-curve $-1 -13.767494906759108 -39.538060514997554 4.4840159238378448 1 0 0 I I #
point $-1 -41.886708342540999 -39.538060514997554 4.4840159238378448 #
point $-1 -33.685726325956551 -30.458217052149863 2.5352398479622691 #
point $-1 -21.384253301079887 -30.458217052149863 2.5352398479622691 #
straight-curve $-1 -76.951913955624875 0 -11.82184027477601 0 1 0 I I #
straight-curve $-1 -76.951913955624875 -39.538060514997554 -8.947502700841472 0 0 -1 I I #
point $-1 -76.951913955624875 -39.538060514997554 -11.82184027477601 #
straight-curve $-1 76.95191395562486 0 -11.82184027477601 0 -1 0 I I #
point $-1 76.95191395562486 -39.538060514997554 -11.82184027477601 #
End-of-ACIS-data 