500 0 6 0           
7 Unknown 11 ACIS 5.0 NT 24 Thu Mar 25 17:16:21 1999 
-1 9.9999999999999995e-007 1e-010 
body $-1 $6 $-1 $7 #
body $-1 $8 $-1 $9 #
body $-1 $10 $-1 $11 #
body $-1 $12 $-1 $13 #
body $-1 $14 $-1 $15 #
body $-1 $16 $-1 $17 #
lump $-1 $-1 $18 $0 #
transform $-1 1 0 0 0 1 0 0 0 1 49.145786919766834 22.845809087249012 9.4780789609354468 1 rotate no_reflect no_shear #
lump $-1 $-1 $19 $1 #
transform $-1 1 0 0 0 1 0 0 0 1 49.145786919766834 22.845809087249012 9.4780789609354468 1 rotate no_reflect no_shear #
lump $-1 $-1 $20 $2 #
transform $-1 1 0 0 0 1 0 0 0 1 49.145786919766834 22.845809087249012 9.4780789609354468 1 rotate no_reflect no_shear #
lump $-1 $-1 $21 $3 #
transform $-1 1 0 0 0 1 0 0 0 1 49.145786919766834 22.845809087249012 9.4780789609354468 1 rotate no_reflect no_shear #
lump $-1 $-1 $22 $4 #
transform $-1 1 0 0 0 1 0 0 0 1 49.145786919766834 22.845809087249012 9.4780789609354468 1 rotate no_reflect no_shear #
lump $-1 $-1 $23 $5 #
transform $-1 1 0 0 0 1 0 0 0 1 49.145786919766834 22.845809087249012 9.4780789609354468 1 rotate no_reflect no_shear #
shell $-1 $-1 $-1 $24 $-1 $6 #
shell $-1 $-1 $-1 $25 $-1 $8 #
shell $-1 $-1 $-1 $26 $-1 $10 #
shell $-1 $-1 $-1 $27 $-1 $12 #
shell $-1 $-1 $-1 $28 $-1 $14 #
shell $-1 $-1 $-1 $29 $-1 $16 #
face $-1 $30 $31 $18 $-1 $32 forward single #
face $-1 $33 $34 $19 $-1 $35 forward single #
face $-1 $36 $37 $20 $-1 $38 forward single #
face $-1 $39 $40 $21 $-1 $41 reversed single #
face $-1 $42 $43 $22 $-1 $44 forward single #
face $-1 $45 $46 $23 $-1 $47 forward single #
face $-1 $48 $49 $18 $-1 $50 reversed single #
loop $-1 $-1 $51 $24 #
plane-surface $-1 0 0 9.4780789609354468 0 0 1 1 0 0 forward_v I I I I #
face $-1 $52 $53 $19 $-1 $54 reversed single #
loop $-1 $-1 $55 $25 #
plane-surface $-1 0 -16.696231754469974 -6.34548520712403 0 0 1 1 0 0 forward_v I I I I #
face $-1 $56 $57 $20 $-1 $58 reversed single #
loop $-1 $-1 $59 $26 #
plane-surface $-1 0 16.696231754469974 -6.34548520712403 0 0 1 1 0 0 forward_v I I I I #
face $-1 $60 $61 $21 $-1 $62 reversed single #
loop $-1 $-1 $63 $27 #
plane-surface $-1 85.12300200013749 -4.454703968167828 135.30474117236216 0 -1 0 -0.86602541151947299 0 -0.49999998660252726 forward_v I I I I #
face $-1 $64 $65 $22 $-1 $66 forward single #
loop $-1 $67 $68 $28 #
cone-surface $-1 46.127200887504344 -8.8060971492557627 4.9212561061107571 -0.86602541151947299 0 -0.49999998660252726 0.24999999330126363 0 -0.43301270575973649 1 I I 0 1 0.5 forward I I I I #
face $-1 $69 $70 $23 $-1 $71 forward single #
loop $-1 $72 $73 $29 #
cone-surface $-1 46.127200887504344 -6.1952612406029992 4.9212561061107571 -0.86602541151947299 0 -0.49999998660252726 0.24999999330126363 0 -0.43301270575973649 1 I I 0 1 0.5 forward I I I I #
face $-1 $74 $75 $18 $-1 $76 reversed single #
loop $-1 $-1 $77 $30 #
plane-surface $-1 0 0 -9.4780789609354468 0 0 1 1 0 0 forward_v I I I I #
coedge $-1 $78 $79 $80 $81 forward $31 $-1 #
face $-1 $82 $83 $19 $-1 $84 reversed single #
loop $-1 $-1 $85 $33 #
plane-surface $-1 0 -10.546654421690935 -7.9117820840297384 0 -1 0 0 0 -1 forward_v I I I I #
coedge $-1 $86 $87 $88 $89 reversed $34 $-1 #
face $-1 $90 $91 $20 $-1 $92 reversed single #
loop $-1 $-1 $93 $36 #
plane-surface $-1 0 10.546654421690935 -7.9117820840297384 0 1 0 0 0 1 forward_v I I I I #
coedge $-1 $94 $95 $96 $97 reversed $37 $-1 #
face $-1 $98 $99 $21 $-1 $100 reversed single #
loop $-1 $-1 $101 $39 #
plane-surface $-1 1.3168586718848019e-006 -7.5006791949293827 86.158955569454008 0.86602541151947299 0 0.49999998660252726 0.49999998660252726 0 -0.86602541151947299 forward_v I I I I #
coedge $-1 $102 $103 $104 $105 reversed $40 $-1 #
face $-1 $-1 $106 $22 $-1 $107 forward single #
loop $-1 $108 $109 $42 #
cone-surface $-1 45.329139718842697 -8.8060971492557627 4.4604952920155814 -0.86602541151947299 0 -0.49999998660252726 0.12499999665063181 0 -0.21650635287986825 1 I I -0.70710678118654746 0.70710678118654746 0.25 forward I I I I #
loop $-1 $-1 $110 $28 #
coedge $-1 $68 $68 $111 $112 reversed $43 $-1 #
face $-1 $-1 $113 $23 $-1 $114 forward single #
loop $-1 $115 $116 $45 #
cone-surface $-1 45.329139718842697 -6.1952612406029992 4.4604952920155814 -0.86602541151947299 0 -0.49999998660252726 0.12499999665063181 0 -0.21650635287986825 1 I I -0.70710678118654746 0.70710678118654746 0.25 forward I I I I #
loop $-1 $-1 $117 $29 #
coedge $-1 $73 $73 $118 $119 reversed $46 $-1 #
face $-1 $120 $121 $18 $-1 $122 reversed single #
loop $-1 $-1 $123 $48 #
plane-surface $-1 0 -22.845809087249012 0 0 1 0 0 0 1 forward_v I I I I #
coedge $-1 $124 $125 $126 $127 forward $49 $-1 #
coedge $-1 $128 $51 $129 $130 forward $31 $-1 #
coedge $-1 $51 $128 $131 $132 forward $31 $-1 #
coedge $-1 $133 $134 $51 $81 reversed $135 $-1 #
edge $-1 $136 -22.845809087249012 $137 22.845809087249012 $80 $138 forward 7 unknown #
face $-1 $139 $140 $19 $-1 $141 reversed single #
loop $-1 $-1 $142 $52 #
plane-surface $-1 0 0 -9.4780789609354468 0 0 1 1 0 0 forward_v I I I I #
coedge $-1 $143 $144 $145 $146 reversed $53 $-1 #
coedge $-1 $147 $55 $144 $148 forward $34 $-1 #
coedge $-1 $55 $147 $149 $150 reversed $34 $-1 #
coedge $-1 $151 $145 $55 $89 forward $140 $-1 #
edge $-1 $152 2.198538544455948 $153 14.497693210014026 $88 $154 forward 7 unknown #
face $-1 $155 $156 $20 $-1 $157 reversed single #
loop $-1 $-1 $96 $56 #
plane-surface $-1 49.145786919766834 0 0 -1 0 0 0 0 1 forward_v I I I I #
coedge $-1 $158 $159 $160 $161 reversed $57 $-1 #
coedge $-1 $162 $59 $163 $164 reversed $37 $-1 #
coedge $-1 $59 $162 $159 $165 forward $37 $-1 #
coedge $-1 $166 $167 $59 $97 forward $91 $-1 #
edge $-1 $168 -14.497693210014026 $169 -2.198538544455948 $96 $170 forward 7 unknown #
face $-1 $171 $172 $21 $-1 $173 forward single #
loop $-1 $-1 $174 $60 #
plane-surface $-1 85.12300200013749 -10.546654421690938 135.30474117236216 0 1 0 0.86602541151947299 0 0.49999998660252726 forward_v I I I I #
coedge $-1 $175 $176 $177 $178 reversed $61 $-1 #
coedge $-1 $103 $63 $179 $180 reversed $40 $-1 #
coedge $-1 $63 $102 $175 $181 reversed $40 $-1 #
coedge $-1 $177 $182 $63 $105 forward $172 $-1 #
edge $-1 $183 -6.5842859196980896 $184 -1.7102234867366874 $104 $185 forward 7 unknown #
loop $-1 $-1 $111 $64 #
plane-surface $-1 1.3168586718848019e-006 -7.5006791949293827 86.158955569454008 0.86602541151947299 0 0.49999998660252726 0.49999998660252726 0 -0.86602541151947299 forward_v I I I I #
loop $-1 $-1 $186 $42 #
coedge $-1 $109 $109 $110 $187 reversed $65 $-1 #
coedge $-1 $110 $110 $109 $187 forward $67 $-1 #
coedge $-1 $111 $111 $68 $112 forward $106 $-1 #
edge $-1 $188 0 $188 6.2831853071796004 $111 $189 forward 7 unknown #
loop $-1 $-1 $118 $69 #
plane-surface $-1 1.3168586718848019e-006 -7.5006791949293827 86.158955569454008 0.86602541151947299 0 0.49999998660252726 0.49999998660252726 0 -0.86602541151947299 forward_v I I I I #
loop $-1 $-1 $190 $45 #
coedge $-1 $116 $116 $117 $191 reversed $70 $-1 #
coedge $-1 $117 $117 $116 $191 forward $72 $-1 #
coedge $-1 $118 $118 $73 $119 forward $113 $-1 #
edge $-1 $192 0 $192 6.2831853071796004 $118 $193 forward 7 unknown #
face $-1 $194 $195 $18 $-1 $196 reversed single #
loop $-1 $-1 $197 $74 #
plane-surface $-1 -49.145786919766834 0 0 1 0 0 0 0 -1 forward_v I I I I #
coedge $-1 $198 $131 $199 $200 forward $75 $-1 #
coedge $-1 $201 $77 $198 $202 forward $49 $-1 #
coedge $-1 $77 $201 $203 $204 forward $49 $-1 #
coedge $-1 $134 $133 $77 $127 reversed $135 $-1 #
edge $-1 $205 -22.845809087249012 $206 22.845809087249012 $126 $207 forward 7 unknown #
coedge $-1 $79 $78 $208 $209 forward $31 $-1 #
coedge $-1 $210 $211 $78 $130 reversed $195 $-1 #
edge $-1 $137 -49.145786919766834 $212 49.145786919766834 $129 $213 forward 7 unknown #
coedge $-1 $123 $214 $79 $132 reversed $75 $-1 #
edge $-1 $215 -49.145786919766834 $136 49.145786919766834 $131 $216 forward 7 unknown #
coedge $-1 $126 $80 $214 $217 forward $135 $-1 #
coedge $-1 $80 $126 $210 $218 reversed $135 $-1 #
loop $-1 $-1 $133 $194 #
vertex $-1 $81 $219 #
vertex $-1 $81 $220 #
straight-curve $-1 49.145786919766834 0 9.4780789609354468 0 1 0 I I #
face $-1 $221 $222 $19 $-1 $223 reversed single #
loop $-1 $-1 $145 $82 #
plane-surface $-1 49.145786919766834 0 0 -1 0 0 0 0 1 forward_v I I I I #
coedge $-1 $224 $225 $143 $226 forward $83 $-1 #
coedge $-1 $227 $85 $142 $226 reversed $53 $-1 #
coedge $-1 $85 $227 $86 $148 reversed $53 $-1 #
coedge $-1 $88 $228 $85 $146 forward $140 $-1 #
edge $-1 $229 -5.5221879189205776 $152 -2.3895941651091608 $145 $230 forward 7 unknown #
coedge $-1 $87 $86 $231 $232 reversed $34 $-1 #
edge $-1 $152 -49.145786919766834 $233 49.145786919766834 $144 $234 forward 7 unknown #
coedge $-1 $235 $236 $87 $150 forward $222 $-1 #
edge $-1 $153 -49.145786919766834 $237 49.145786919766834 $149 $238 forward 7 unknown #
coedge $-1 $228 $88 $236 $239 forward $140 $-1 #
vertex $-1 $89 $240 #
vertex $-1 $239 $241 #
straight-curve $-1 49.145786919766834 -8.3481158772349868 -6.34548520712403 0 -1 0 I I #
face $-1 $242 $243 $20 $-1 $244 reversed single #
loop $-1 $-1 $245 $90 #
plane-surface $-1 0 0 -9.4780789609354468 0 0 1 1 0 0 forward_v I I I I #
coedge $-1 $246 $93 $245 $247 reversed $57 $-1 #
coedge $-1 $93 $246 $95 $165 reversed $57 $-1 #
coedge $-1 $248 $249 $93 $161 forward $243 $-1 #
edge $-1 $250 -5.5221879189205776 $251 -2.3895941651091608 $160 $252 forward 7 unknown #
coedge $-1 $95 $94 $248 $253 reversed $37 $-1 #
coedge $-1 $254 $255 $94 $164 forward $256 $-1 #
edge $-1 $257 -49.145786919766834 $168 49.145786919766834 $163 $258 forward 7 unknown #
edge $-1 $251 -49.145786919766834 $169 49.145786919766834 $159 $259 forward 7 unknown #
coedge $-1 $260 $96 $246 $261 forward $91 $-1 #
coedge $-1 $96 $260 $254 $262 reversed $91 $-1 #
vertex $-1 $262 $263 #
vertex $-1 $97 $264 #
straight-curve $-1 49.145786919766834 8.3481158772349868 -6.34548520712403 0 -1 0 I I #
face $-1 $-1 $265 $21 $-1 $266 reversed single #
loop $-1 $-1 $104 $98 #
plane-surface $-1 0 0 9.4780789609354468 0 0 1 1 0 0 forward_v I I I I #
coedge $-1 $267 $268 $269 $270 reversed $99 $-1 #
coedge $-1 $271 $101 $103 $181 forward $61 $-1 #
coedge $-1 $101 $271 $267 $272 forward $61 $-1 #
coedge $-1 $269 $104 $101 $178 forward $172 $-1 #
edge $-1 $184 0.70436437070313662 $273 6.796314824226247 $177 $274 forward 7 unknown #
coedge $-1 $275 $276 $102 $180 forward $265 $-1 #
edge $-1 $277 -66.616415700005888 $183 -58.17429162524563 $179 $278 forward 7 unknown #
edge $-1 $184 88.543448712410395 $277 98.291573839533683 $103 $279 forward 7 unknown #
coedge $-1 $104 $269 $275 $280 forward $172 $-1 #
vertex $-1 $180 $281 #
vertex $-1 $105 $282 #
straight-curve $-1 42.561501000068745 -4.454703968167828 9.4780789609354485 -1 0 0 I I #
coedge $-1 $186 $186 $-1 $283 reversed $108 $-1 #
edge $-1 $284 0 $284 6.2831853071796004 $109 $285 forward 7 unknown #
vertex $-1 $112 $286 #
ellipse-curve $-1 46.708755703286137 -8.8060971492557627 5.2570169235553088 0.86602541151947299 0 0.49999998660252726 0.24999999330126363 0 -0.43301270575973649 1 I I #
coedge $-1 $190 $190 $-1 $287 reversed $115 $-1 #
edge $-1 $288 0 $288 6.2831853071796004 $116 $289 forward 7 unknown #
vertex $-1 $119 $290 #
ellipse-curve $-1 46.708755703286137 -6.1952612406029992 5.2570169235553088 0.86602541151947299 0 0.49999998660252726 0.24999999330126363 0 -0.43301270575973649 1 I I #
face $-1 $-1 $135 $18 $-1 $291 reversed single #
loop $-1 $-1 $210 $120 #
plane-surface $-1 0 22.845809087249012 0 0 -1 0 0 0 -1 forward_v I I I I #
coedge $-1 $292 $208 $211 $293 forward $121 $-1 #
coedge $-1 $214 $123 $124 $202 reversed $75 $-1 #
coedge $-1 $208 $292 $123 $200 reversed $121 $-1 #
edge $-1 $215 -9.4780789609354468 $294 9.4780789609354468 $199 $295 forward 7 unknown #
coedge $-1 $125 $124 $292 $296 forward $49 $-1 #
edge $-1 $206 -49.145786919766834 $294 49.145786919766834 $198 $297 forward 7 unknown #
coedge $-1 $211 $210 $125 $204 reversed $195 $-1 #
edge $-1 $298 -49.145786919766834 $205 49.145786919766834 $203 $299 forward 7 unknown #
vertex $-1 $127 $300 #
vertex $-1 $217 $301 #
straight-curve $-1 49.145786919766834 0 -9.4780789609354468 0 -1 0 I I #
coedge $-1 $197 $199 $128 $209 reversed $121 $-1 #
edge $-1 $212 -22.845809087249012 $215 22.845809087249012 $208 $302 forward 7 unknown #
coedge $-1 $203 $129 $134 $218 forward $195 $-1 #
coedge $-1 $129 $203 $197 $293 reversed $195 $-1 #
vertex $-1 $130 $303 #
straight-curve $-1 0 22.845809087249012 9.4780789609354468 -1 0 0 I I #
coedge $-1 $131 $198 $133 $217 reversed $75 $-1 #
vertex $-1 $209 $304 #
straight-curve $-1 0 -22.845809087249012 9.4780789609354468 1 0 0 I I #
edge $-1 $136 -9.4780789609354468 $206 9.4780789609354468 $133 $305 forward 7 unknown #
edge $-1 $137 -9.4780789609354468 $205 9.4780789609354468 $134 $306 forward 7 unknown #
point $-1 49.145786919766834 -22.845809087249012 9.4780789609354468 #
point $-1 49.145786919766834 22.845809087249012 9.4780789609354468 #
face $-1 $-1 $307 $19 $-1 $308 reversed single #
loop $-1 $-1 $149 $139 #
plane-surface $-1 0 -22.845809087249012 0 0 1 0 0 0 1 forward_v I I I I #
coedge $-1 $309 $142 $228 $310 forward $83 $-1 #
coedge $-1 $142 $309 $311 $312 forward $83 $-1 #
edge $-1 $313 -49.145786919766834 $229 49.145786919766834 $142 $314 forward 7 unknown #
coedge $-1 $144 $143 $315 $316 reversed $53 $-1 #
coedge $-1 $145 $151 $224 $310 reversed $140 $-1 #
vertex $-1 $310 $317 #
straight-curve $-1 49.145786919766834 -10.546654421690935 -3.9558910420148692 0 0 1 I I #
coedge $-1 $315 $318 $147 $232 forward $307 $-1 #
edge $-1 $237 -14.497693210014026 $233 -2.198538544455948 $231 $319 forward 7 unknown #
vertex $-1 $232 $320 #
straight-curve $-1 0 -10.546654421690935 -6.34548520712403 -1 0 0 I I #
coedge $-1 $321 $149 $318 $322 forward $222 $-1 #
coedge $-1 $149 $321 $151 $239 reversed $222 $-1 #
vertex $-1 $322 $323 #
straight-curve $-1 0 -22.845809087249012 -6.34548520712403 -1 0 0 I I #
edge $-1 $153 6.34548520712403 $324 9.4780789609354468 $151 $325 forward 7 unknown #
point $-1 49.145786919766834 -10.546654421690935 -6.34548520712403 #
point $-1 49.145786919766834 -22.845809087249012 -6.34548520712403 #
face $-1 $-1 $256 $20 $-1 $326 reversed single #
loop $-1 $-1 $248 $155 #
plane-surface $-1 -49.145786919766834 0 0 1 0 0 0 0 -1 forward_v I I I I #
coedge $-1 $327 $328 $158 $247 forward $156 $-1 #
coedge $-1 $159 $158 $166 $261 reversed $57 $-1 #
edge $-1 $329 -49.145786919766834 $250 49.145786919766834 $245 $330 forward 7 unknown #
coedge $-1 $331 $160 $162 $253 forward $243 $-1 #
coedge $-1 $160 $331 $327 $332 reversed $243 $-1 #
vertex $-1 $332 $333 #
vertex $-1 $253 $334 #
straight-curve $-1 -49.145786919766834 10.546654421690935 -3.9558910420148692 0 0 1 I I #
edge $-1 $251 2.198538544455948 $257 14.497693210014026 $248 $335 forward 7 unknown #
coedge $-1 $336 $163 $167 $262 forward $256 $-1 #
coedge $-1 $163 $336 $331 $337 reversed $256 $-1 #
loop $-1 $-1 $163 $242 #
vertex $-1 $337 $338 #
straight-curve $-1 0 22.845809087249012 -6.34548520712403 1 0 0 I I #
straight-curve $-1 0 10.546654421690935 -6.34548520712403 1 0 0 I I #
coedge $-1 $167 $166 $328 $339 reversed $91 $-1 #
edge $-1 $169 2.3895941651091608 $329 5.5221879189205776 $166 $340 forward 7 unknown #
edge $-1 $168 6.34548520712403 $341 9.4780789609354468 $167 $342 forward 7 unknown #
point $-1 49.145786919766834 22.845809087249012 -6.34548520712403 #
point $-1 49.145786919766834 10.546654421690935 -6.34548520712403 #
loop $-1 $-1 $179 $171 #
plane-surface $-1 49.145786919766834 0 0 -1 0 0 0 0 1 forward_v I I I I #
coedge $-1 $268 $174 $176 $272 reversed $99 $-1 #
coedge $-1 $174 $267 $343 $344 reversed $99 $-1 #
coedge $-1 $182 $177 $174 $270 forward $172 $-1 #
edge $-1 $273 1.7102234867366874 $345 6.5842859196980896 $269 $346 forward 7 unknown #
coedge $-1 $176 $175 $276 $347 reversed $61 $-1 #
edge $-1 $348 -98.291573839533683 $273 -88.543448712410395 $267 $349 forward 7 unknown #
vertex $-1 $178 $350 #
straight-curve $-1 44.271724486805425 -3.7503395974646914 9.4780789609354485 0 -1 0 I I #
coedge $-1 $343 $179 $182 $280 reversed $265 $-1 #
coedge $-1 $179 $343 $271 $347 forward $265 $-1 #
vertex $-1 $180 $351 #
straight-curve $-1 49.145786919766834 -4.454703968167828 67.652370586181078 0 0 1 I I #
straight-curve $-1 1.3168586718848019e-006 -4.454703968167828 86.158955569454008 0.49999998660252726 0 -0.86602541151947299 I I #
edge $-1 $345 -10.546654421690938 $183 -4.454703968167828 $275 $352 forward 7 unknown #
point $-1 49.145786919766834 -4.454703968167828 9.4780789609354468 #
point $-1 44.271724486805432 -4.454703968167828 9.4780789609354485 #
edge $-1 $353 1 $353 0 $186 $-1 forward 7 unknown #
vertex $-1 $187 $354 #
ellipse-curve $-1 45.545646071722565 -8.8060971492557627 4.5854952886662135 0.86602541151947299 0 0.49999998660252726 0.24999999330126363 0 -0.43301270575973649 1 I I #
point $-1 46.958755696587389 -8.8060971492557627 4.8240042177955642 #
edge $-1 $355 1 $355 0 $190 $-1 forward 7 unknown #
vertex $-1 $191 $356 #
ellipse-curve $-1 45.545646071722565 -6.1952612406029992 4.5854952886662135 0.86602541151947299 0 0.49999998660252726 0.24999999330126363 0 -0.43301270575973649 1 I I #
point $-1 46.958755696587389 -6.1952612406029992 4.8240042177955642 #
plane-surface $-1 49.145786919766834 0 0 -1 0 0 0 0 1 forward_v I I I I #
coedge $-1 $199 $197 $201 $296 reversed $121 $-1 #
edge $-1 $212 -9.4780789609354468 $298 9.4780789609354468 $211 $357 forward 7 unknown #
vertex $-1 $296 $358 #
straight-curve $-1 -49.145786919766834 -22.845809087249012 0 0 0 -1 I I #
edge $-1 $294 -22.845809087249012 $298 22.845809087249012 $292 $359 forward 7 unknown #
straight-curve $-1 0 -22.845809087249012 -9.4780789609354468 -1 0 0 I I #
vertex $-1 $204 $360 #
straight-curve $-1 0 22.845809087249012 -9.4780789609354468 1 0 0 I I #
point $-1 49.145786919766834 22.845809087249012 -9.4780789609354468 #
point $-1 49.145786919766834 -22.845809087249012 -9.4780789609354468 #
straight-curve $-1 -49.145786919766834 0 9.4780789609354468 0 -1 0 I I #
point $-1 -49.145786919766834 22.845809087249012 9.4780789609354468 #
point $-1 -49.145786919766834 -22.845809087249012 9.4780789609354468 #
straight-curve $-1 49.145786919766834 -22.845809087249012 0 0 0 -1 I I #
straight-curve $-1 49.145786919766834 22.845809087249012 0 0 0 -1 I I #
loop $-1 $-1 $315 $221 #
plane-surface $-1 -49.145786919766834 0 0 1 0 0 0 0 -1 forward_v I I I I #
coedge $-1 $225 $224 $321 $361 forward $83 $-1 #
edge $-1 $229 10.546654421690935 $324 22.845809087249012 $228 $362 forward 7 unknown #
coedge $-1 $318 $315 $225 $312 reversed $307 $-1 #
edge $-1 $363 -22.845809087249012 $313 -10.546654421690935 $311 $364 forward 7 unknown #
vertex $-1 $316 $365 #
straight-curve $-1 0 -10.546654421690935 -9.4780789609354468 1 0 0 I I #
coedge $-1 $311 $231 $227 $316 forward $307 $-1 #
edge $-1 $233 2.3895941651091608 $313 5.5221879189205776 $315 $366 forward 7 unknown #
point $-1 49.145786919766834 -10.546654421690935 -9.4780789609354468 #
coedge $-1 $231 $311 $235 $322 reversed $307 $-1 #
straight-curve $-1 -49.145786919766834 -8.3481158772349868 -6.34548520712403 0 1 0 I I #
point $-1 -49.145786919766834 -10.546654421690935 -6.34548520712403 #
coedge $-1 $236 $235 $309 $361 reversed $222 $-1 #
edge $-1 $237 6.34548520712403 $363 9.4780789609354468 $318 $367 forward 7 unknown #
point $-1 -49.145786919766834 -22.845809087249012 -6.34548520712403 #
vertex $-1 $239 $368 #
straight-curve $-1 49.145786919766834 -22.845809087249012 0 0 0 -1 I I #
plane-surface $-1 0 22.845809087249012 0 0 -1 0 0 0 -1 forward_v I I I I #
coedge $-1 $369 $245 $249 $332 forward $156 $-1 #
coedge $-1 $245 $369 $260 $339 forward $156 $-1 #
vertex $-1 $247 $370 #
straight-curve $-1 0 10.546654421690935 -9.4780789609354468 -1 0 0 I I #
coedge $-1 $249 $248 $255 $337 forward $243 $-1 #
edge $-1 $250 10.546654421690935 $371 22.845809087249012 $249 $372 forward 7 unknown #
point $-1 -49.145786919766834 10.546654421690935 -9.4780789609354468 #
point $-1 -49.145786919766834 10.546654421690935 -6.34548520712403 #
straight-curve $-1 -49.145786919766834 8.3481158772349868 -6.34548520712403 0 1 0 I I #
coedge $-1 $255 $254 $369 $373 reversed $256 $-1 #
edge $-1 $257 6.34548520712403 $371 9.4780789609354468 $255 $374 forward 7 unknown #
point $-1 -49.145786919766834 22.845809087249012 -6.34548520712403 #
edge $-1 $341 -22.845809087249012 $329 -10.546654421690935 $260 $375 forward 7 unknown #
straight-curve $-1 49.145786919766834 10.546654421690935 -3.9558910420148692 0 0 -1 I I #
vertex $-1 $339 $376 #
straight-curve $-1 49.145786919766834 22.845809087249012 0 0 0 -1 I I #
coedge $-1 $276 $275 $268 $344 forward $265 $-1 #
edge $-1 $345 58.17429162524563 $348 66.616415700005888 $343 $377 forward 7 unknown #
vertex $-1 $280 $378 #
straight-curve $-1 42.561501000068745 -10.546654421690938 9.4780789609354485 1 0 0 I I #
edge $-1 $348 -6.796314824226247 $277 -0.70436437070313662 $276 $379 forward 7 unknown #
vertex $-1 $347 $380 #
straight-curve $-1 1.3168586718848019e-006 -10.546654421690938 86.158955569454008 -0.49999998660252726 0 0.86602541151947299 I I #
point $-1 44.271724486805432 -10.546654421690938 9.4780789609354485 #
point $-1 49.145786919766834 -4.454703968167828 1.0359548861751904 #
straight-curve $-1 49.145786919766834 0 9.4780789609354468 0 1 0 I I #
vertex $-1 $283 $381 #
point $-1 45.795646065023831 -8.8060971492557627 4.1524825829064769 #
vertex $-1 $287 $382 #
point $-1 45.795646065023831 -6.1952612406029992 4.1524825829064769 #
straight-curve $-1 -49.145786919766834 22.845809087249012 0 0 0 -1 I I #
point $-1 -49.145786919766834 -22.845809087249012 -9.4780789609354468 #
straight-curve $-1 -49.145786919766834 0 -9.4780789609354468 0 1 0 I I #
point $-1 -49.145786919766834 22.845809087249012 -9.4780789609354468 #
edge $-1 $324 -49.145786919766834 $363 49.145786919766834 $321 $383 forward 7 unknown #
straight-curve $-1 49.145786919766834 0 -9.4780789609354468 0 -1 0 I I #
vertex $-1 $312 $384 #
straight-curve $-1 -49.145786919766834 0 -9.4780789609354468 0 1 0 I I #
point $-1 -49.145786919766834 -10.546654421690935 -9.4780789609354468 #
straight-curve $-1 -49.145786919766834 -10.546654421690935 -3.9558910420148692 0 0 -1 I I #
straight-curve $-1 -49.145786919766834 -22.845809087249012 0 0 0 -1 I I #
point $-1 49.145786919766834 -22.845809087249012 -9.4780789609354468 #
coedge $-1 $328 $327 $336 $373 forward $156 $-1 #
point $-1 49.145786919766834 10.546654421690935 -9.4780789609354468 #
vertex $-1 $373 $385 #
straight-curve $-1 -49.145786919766834 0 -9.4780789609354468 0 1 0 I I #
edge $-1 $371 -49.145786919766834 $341 49.145786919766834 $336 $386 forward 7 unknown #
straight-curve $-1 -49.145786919766834 22.845809087249012 0 0 0 -1 I I #
straight-curve $-1 49.145786919766834 0 -9.4780789609354468 0 -1 0 I I #
point $-1 49.145786919766834 22.845809087249012 -9.4780789609354468 #
straight-curve $-1 49.145786919766834 -10.546654421690938 67.652370586181078 0 0 -1 I I #
point $-1 49.145786919766834 -10.546654421690938 9.4780789609354468 #
straight-curve $-1 49.145786919766834 -3.7503395974646914 1.0359548861751762 0 1 0 I I #
point $-1 49.145786919766834 -10.546654421690938 1.0359548861751904 #
point $-1 45.112633365962829 -8.8060971492557627 4.3354952953649493 #
point $-1 45.112633365962829 -6.1952612406029992 4.3354952953649493 #
straight-curve $-1 0 -22.845809087249012 -9.4780789609354468 -1 0 0 I I #
point $-1 -49.145786919766834 -22.845809087249012 -9.4780789609354468 #
point $-1 -49.145786919766834 22.845809087249012 -9.4780789609354468 #
straight-curve $-1 0 22.845809087249012 -9.4780789609354468 1 0 0 I I #
End-of-ACIS-data 