500 0 8 0           
7 Unknown 11 ACIS 5.0 NT 24 Thu Mar 25 16:19:43 1999 
-1 9.9999999999999995e-007 1e-010 
body $-1 $8 $-1 $9 #
body $-1 $10 $-1 $11 #
body $-1 $12 $-1 $13 #
body $-1 $14 $-1 $15 #
body $-1 $16 $-1 $17 #
body $-1 $18 $-1 $19 #
body $-1 $20 $-1 $21 #
body $-1 $22 $-1 $23 #
lump $-1 $-1 $24 $0 #
transform $-1 1 0 0 0 1 0 0 0 1 54.535355693227942 34.98271557713425 15.212201893487741 1 rotate no_reflect no_shear #
lump $-1 $-1 $25 $1 #
transform $-1 1 0 0 0 1 0 0 0 1 54.535355693227942 34.98271557713425 15.212201893487741 1 rotate no_reflect no_shear #
lump $-1 $-1 $26 $2 #
transform $-1 1 0 0 0 1 0 0 0 1 54.535355693227942 34.98271557713425 15.212201893487741 1 rotate no_reflect no_shear #
lump $-1 $-1 $27 $3 #
transform $-1 1 0 0 0 1 0 0 0 1 54.535355693227942 34.98271557713425 15.212201893487741 1 rotate no_reflect no_shear #
lump $-1 $-1 $28 $4 #
transform $-1 1 0 0 0 1 0 0 0 1 54.535355693227942 34.98271557713425 15.212201893487741 1 rotate no_reflect no_shear #
lump $-1 $-1 $29 $5 #
transform $-1 1 0 0 0 1 0 0 0 1 54.535355693227942 34.98271557713425 15.212201893487741 1 rotate no_reflect no_shear #
lump $-1 $-1 $30 $6 #
transform $-1 1 0 0 0 1 0 0 0 1 54.535355693227942 34.98271557713425 15.212201893487741 1 rotate no_reflect no_shear #
lump $-1 $-1 $31 $7 #
transform $-1 1 0 0 0 1 0 0 0 1 54.535355693227942 34.98271557713425 15.212201893487741 1 rotate no_reflect no_shear #
shell $-1 $-1 $-1 $32 $-1 $8 #
shell $-1 $-1 $-1 $33 $-1 $10 #
shell $-1 $-1 $-1 $34 $-1 $12 #
shell $-1 $-1 $-1 $35 $-1 $14 #
shell $-1 $-1 $-1 $36 $-1 $16 #
shell $-1 $-1 $-1 $37 $-1 $18 #
shell $-1 $-1 $-1 $38 $-1 $20 #
shell $-1 $-1 $-1 $39 $-1 $22 #
face $-1 $40 $41 $24 $-1 $42 forward single #
face $-1 $43 $44 $25 $-1 $45 forward single #
face $-1 $46 $47 $26 $-1 $48 reversed single #
face $-1 $49 $50 $27 $-1 $51 forward single #
face $-1 $52 $53 $28 $-1 $54 reversed single #
face $-1 $55 $56 $29 $-1 $57 forward single #
face $-1 $58 $59 $30 $-1 $60 forward single #
face $-1 $61 $62 $31 $-1 $63 forward single #
face $-1 $64 $65 $24 $-1 $66 reversed single #
loop $-1 $-1 $67 $32 #
plane-surface $-1 0 0 15.212201893487741 0 0 1 1 0 0 forward_v I I I I #
face $-1 $68 $69 $25 $-1 $70 reversed single #
loop $-1 $-1 $71 $33 #
plane-surface $-1 0 -34.98271557713425 0 0 1 0 0 0 1 forward_v I I I I #
face $-1 $72 $73 $26 $-1 $74 reversed single #
loop $-1 $-1 $75 $34 #
plane-surface $-1 -146.00975203095555 -18.075210524032364 59.735121654460173 0 1 0 -0.83867057594974714 0 0.54463902268945019 forward_v I I I I #
face $-1 $76 $77 $27 $-1 $78 forward single #
loop $-1 $79 $80 $35 #
cone-surface $-1 -48.706824820576422 -12.49561937734881 7.1244222288890331 0.83867057594974714 0 -0.54463902268945019 0.81695853403417529 0 1.2580058639246208 1 I I 0 1 1.5 forward I I I I #
face $-1 $81 $82 $28 $-1 $83 reversed single #
loop $-1 $-1 $84 $36 #
plane-surface $-1 94.458009174449032 -13.797923964356691 156.84350411507651 0 -1 0 -0.86602541151947299 0 -0.49999998660252726 forward_v I I I I #
face $-1 $85 $86 $29 $-1 $87 forward single #
loop $-1 $88 $89 $37 #
cone-surface $-1 51.161647501634064 -22.520065139945189 10.81037063497052 -0.86602541151947299 0 -0.49999998660252726 0.49999998660252726 0 -0.86602541151947299 1 I I 0 1 1 forward I I I I #
face $-1 $90 $91 $30 $-1 $92 forward single #
loop $-1 $93 $94 $38 #
cone-surface $-1 51.161647501634064 -19.249262199099501 10.81037063497052 -0.86602541151947299 0 -0.49999998660252726 0.49999998660252726 0 -0.86602541151947299 1 I I 0 1 1 forward I I I I #
face $-1 $95 $96 $31 $-1 $97 forward single #
loop $-1 $98 $99 $39 #
cone-surface $-1 51.161647501634064 -15.978459258253814 10.81037063497052 -0.86602541151947299 0 -0.49999998660252726 0.49999998660252726 0 -0.86602541151947299 1 I I 0 1 1 forward I I I I #
face $-1 $100 $101 $24 $-1 $102 reversed single #
loop $-1 $-1 $103 $40 #
plane-surface $-1 0 0 -15.212201893487741 0 0 1 1 0 0 forward_v I I I I #
coedge $-1 $104 $105 $106 $107 forward $41 $-1 #
face $-1 $108 $109 $25 $-1 $110 reversed single #
loop $-1 $-1 $111 $43 #
plane-surface $-1 0 0 -15.212201893487741 0 0 1 1 0 0 forward_v I I I I #
coedge $-1 $112 $113 $114 $115 forward $44 $-1 #
face $-1 $116 $117 $26 $-1 $118 reversed single #
loop $-1 $-1 $119 $46 #
plane-surface $-1 -54.535355693227956 -12.49561937734881 0.3309560008977499 -0.83867057594974714 0 0.54463902268945019 0.54463902268945019 0 0.83867057594974714 forward_v I I I I #
coedge $-1 $120 $121 $122 $123 reversed $47 $-1 #
face $-1 $-1 $124 $27 $-1 $125 forward single #
loop $-1 $126 $127 $49 #
cone-surface $-1 -47.08128789993772 -12.49561937734881 6.0687862435682227 0.83867057594974714 0 -0.54463902268945019 0.40847926701708764 0 0.62900293196231039 1 I I -0.70710678118654757 0.70710678118654757 0.75 forward I I I I #
loop $-1 $-1 $128 $35 #
coedge $-1 $80 $80 $129 $130 reversed $50 $-1 #
face $-1 $131 $132 $28 $-1 $133 reversed single #
loop $-1 $-1 $134 $52 #
plane-surface $-1 1.4612719070328239e-006 -19.249262199099501 102.30814988312045 0.86602541151947299 0 0.49999998660252726 0.49999998660252726 0 -0.86602541151947299 forward_v I I I I #
coedge $-1 $135 $136 $137 $138 reversed $53 $-1 #
face $-1 $-1 $139 $29 $-1 $140 forward single #
loop $-1 $141 $142 $55 #
cone-surface $-1 49.48017010994198 -22.520065139945189 9.8395692449242524 -0.86602541151947299 0 -0.49999998660252726 0.24999999330126363 0 -0.43301270575973649 1 I I -0.70710678118654746 0.70710678118654746 0.5 forward I I I I #
loop $-1 $-1 $143 $37 #
coedge $-1 $89 $89 $144 $145 reversed $56 $-1 #
face $-1 $-1 $146 $30 $-1 $147 forward single #
loop $-1 $148 $149 $58 #
cone-surface $-1 49.48017010994198 -19.249262199099501 9.8395692449242524 -0.86602541151947299 0 -0.49999998660252726 0.24999999330126363 0 -0.43301270575973649 1 I I -0.70710678118654746 0.70710678118654746 0.5 forward I I I I #
loop $-1 $-1 $150 $38 #
coedge $-1 $94 $94 $151 $152 reversed $59 $-1 #
face $-1 $-1 $153 $31 $-1 $154 forward single #
loop $-1 $155 $156 $61 #
cone-surface $-1 49.48017010994198 -15.978459258253814 9.8395692449242524 -0.86602541151947299 0 -0.49999998660252726 0.24999999330126363 0 -0.43301270575973649 1 I I -0.70710678118654746 0.70710678118654746 0.5 forward I I I I #
loop $-1 $-1 $157 $39 #
coedge $-1 $99 $99 $158 $159 reversed $62 $-1 #
face $-1 $160 $161 $24 $-1 $162 reversed single #
loop $-1 $-1 $163 $64 #
plane-surface $-1 0 -34.98271557713425 0 0 1 0 0 0 1 forward_v I I I I #
coedge $-1 $164 $165 $166 $167 forward $65 $-1 #
coedge $-1 $168 $67 $169 $170 forward $41 $-1 #
coedge $-1 $67 $168 $171 $172 forward $41 $-1 #
coedge $-1 $173 $174 $67 $107 reversed $175 $-1 #
edge $-1 $176 -34.98271557713425 $177 34.98271557713425 $106 $178 forward 7 unknown #
face $-1 $179 $180 $25 $-1 $181 reversed single #
loop $-1 $-1 $182 $68 #
plane-surface $-1 -39.146668008001484 -45.26483072042619 0 0 1 0 0 0 1 forward_v I I I I #
coedge $-1 $183 $184 $113 $185 forward $69 $-1 #
coedge $-1 $186 $71 $187 $188 reversed $44 $-1 #
coedge $-1 $71 $186 $111 $185 reversed $44 $-1 #
coedge $-1 $189 $190 $71 $115 reversed $180 $-1 #
edge $-1 $191 -15.212201893487741 $192 15.212201893487741 $114 $193 forward 7 unknown #
face $-1 $194 $195 $26 $-1 $196 reversed single #
loop $-1 $-1 $197 $72 #
plane-surface $-1 -146.00975203095555 -6.9160282306652547 59.735121654460173 0 -1 0 0.83867057594974714 0 -0.54463902268945019 forward_v I I I I #
coedge $-1 $198 $199 $200 $201 reversed $73 $-1 #
coedge $-1 $121 $75 $202 $203 reversed $47 $-1 #
coedge $-1 $75 $120 $198 $204 reversed $47 $-1 #
coedge $-1 $200 $205 $75 $123 forward $206 $-1 #
edge $-1 $207 18.469520322249835 $208 28.13351409020008 $122 $209 forward 7 unknown #
loop $-1 $-1 $129 $76 #
plane-surface $-1 -54.535355693227956 -12.49561937734881 0.3309560008977499 -0.83867057594974714 0 0.54463902268945019 0.54463902268945019 0 0.83867057594974714 forward_v I I I I #
loop $-1 $-1 $210 $49 #
coedge $-1 $127 $127 $128 $211 reversed $77 $-1 #
coedge $-1 $128 $128 $127 $211 forward $79 $-1 #
coedge $-1 $129 $129 $80 $130 forward $124 $-1 #
edge $-1 $212 0 $212 6.2831853071796004 $129 $213 forward 7 unknown #
face $-1 $214 $215 $28 $-1 $216 forward single #
loop $-1 $-1 $217 $81 #
plane-surface $-1 94.458009174449032 -24.700600433842311 156.84350411507651 0 1 0 0.86602541151947299 0 0.49999998660252726 forward_v I I I I #
coedge $-1 $218 $219 $220 $221 reversed $82 $-1 #
coedge $-1 $136 $84 $222 $223 reversed $53 $-1 #
coedge $-1 $84 $135 $218 $224 reversed $53 $-1 #
coedge $-1 $220 $225 $84 $138 forward $215 $-1 #
edge $-1 $226 -7.3063511060034259 $227 -3.0558640946804019 $137 $228 forward 7 unknown #
loop $-1 $-1 $144 $85 #
plane-surface $-1 1.4612719070328239e-006 -19.249262199099501 102.30814988312045 0.86602541151947299 0 0.49999998660252726 0.49999998660252726 0 -0.86602541151947299 forward_v I I I I #
loop $-1 $-1 $229 $55 #
coedge $-1 $142 $142 $143 $230 reversed $86 $-1 #
coedge $-1 $143 $143 $142 $230 forward $88 $-1 #
coedge $-1 $144 $144 $89 $145 forward $139 $-1 #
edge $-1 $231 0 $231 6.2831853071796004 $144 $232 forward 7 unknown #
loop $-1 $-1 $151 $90 #
plane-surface $-1 1.4612719070328239e-006 -19.249262199099501 102.30814988312045 0.86602541151947299 0 0.49999998660252726 0.49999998660252726 0 -0.86602541151947299 forward_v I I I I #
loop $-1 $-1 $233 $58 #
coedge $-1 $149 $149 $150 $234 reversed $91 $-1 #
coedge $-1 $150 $150 $149 $234 forward $93 $-1 #
coedge $-1 $151 $151 $94 $152 forward $146 $-1 #
edge $-1 $235 0 $235 6.2831853071796004 $151 $236 forward 7 unknown #
loop $-1 $-1 $158 $95 #
plane-surface $-1 1.4612719070328239e-006 -19.249262199099501 102.30814988312045 0.86602541151947299 0 0.49999998660252726 0.49999998660252726 0 -0.86602541151947299 forward_v I I I I #
loop $-1 $-1 $237 $61 #
coedge $-1 $156 $156 $157 $238 reversed $96 $-1 #
coedge $-1 $157 $157 $156 $238 forward $98 $-1 #
coedge $-1 $158 $158 $99 $159 forward $153 $-1 #
edge $-1 $239 0 $239 6.2831853071796004 $158 $240 forward 7 unknown #
face $-1 $241 $242 $24 $-1 $243 reversed single #
loop $-1 $-1 $244 $100 #
plane-surface $-1 -54.535355693227942 0 0 1 0 0 0 0 -1 forward_v I I I I #
coedge $-1 $245 $171 $246 $247 forward $101 $-1 #
coedge $-1 $248 $103 $245 $249 forward $65 $-1 #
coedge $-1 $103 $248 $250 $251 forward $65 $-1 #
coedge $-1 $174 $173 $103 $167 reversed $175 $-1 #
edge $-1 $252 -34.98271557713425 $253 34.98271557713425 $166 $254 forward 7 unknown #
coedge $-1 $105 $104 $255 $256 forward $41 $-1 #
coedge $-1 $257 $258 $104 $170 reversed $242 $-1 #
edge $-1 $177 -54.535355693227942 $259 54.535355693227942 $169 $260 forward 7 unknown #
coedge $-1 $163 $261 $105 $172 reversed $101 $-1 #
edge $-1 $262 -54.535355693227942 $176 54.535355693227942 $171 $263 forward 7 unknown #
coedge $-1 $166 $106 $261 $264 forward $175 $-1 #
coedge $-1 $106 $166 $257 $265 reversed $175 $-1 #
loop $-1 $-1 $173 $241 #
vertex $-1 $107 $266 #
vertex $-1 $107 $267 #
straight-curve $-1 54.535355693227942 0 15.212201893487741 0 1 0 I I #
face $-1 $268 $269 $25 $-1 $270 reversed single #
loop $-1 $-1 $114 $108 #
plane-surface $-1 -43.129918565755794 -40.123773148780217 0 1 0 0 0 0 -1 forward_v I I I I #
coedge $-1 $271 $272 $273 $274 forward $109 $-1 #
coedge $-1 $275 $111 $276 $277 forward $69 $-1 #
coedge $-1 $111 $275 $189 $278 forward $69 $-1 #
edge $-1 $191 -43.129918565755794 $279 -35.163417450247174 $111 $280 forward 7 unknown #
coedge $-1 $113 $112 $281 $282 forward $44 $-1 #
coedge $-1 $283 $284 $112 $188 forward $285 $-1 #
edge $-1 $286 35.163417450247174 $192 43.129918565755794 $187 $287 forward 7 unknown #
coedge $-1 $273 $114 $184 $278 reversed $180 $-1 #
coedge $-1 $114 $273 $283 $288 reversed $180 $-1 #
vertex $-1 $185 $289 #
vertex $-1 $288 $290 #
straight-curve $-1 -43.129918565755794 -34.98271557713425 0 0 0 1 I I #
face $-1 $-1 $206 $26 $-1 $291 forward single #
loop $-1 $-1 $292 $116 #
plane-surface $-1 -54.535355693227942 0 0 1 0 0 0 0 -1 forward_v I I I I #
coedge $-1 $293 $294 $295 $296 reversed $117 $-1 #
coedge $-1 $297 $119 $121 $204 forward $73 $-1 #
coedge $-1 $119 $297 $293 $298 forward $73 $-1 #
coedge $-1 $295 $122 $119 $201 forward $206 $-1 #
edge $-1 $208 -11.82740083535796 $299 -0.66821854199084996 $200 $300 forward 7 unknown #
coedge $-1 $301 $302 $120 $203 forward $195 $-1 #
edge $-1 $303 -29.536604826332315 $207 -14.655358933742345 $202 $304 forward 7 unknown #
edge $-1 $208 -17.743851184641624 $303 -2.6082680278521875e-014 $121 $305 forward 7 unknown #
coedge $-1 $122 $295 $301 $306 forward $206 $-1 #
loop $-1 $-1 $295 $194 #
vertex $-1 $203 $307 #
vertex $-1 $123 $308 #
straight-curve $-1 -73.004876015477777 -18.075210524032364 15.212201893487741 1 0 0 I I #
coedge $-1 $210 $210 $-1 $309 reversed $126 $-1 #
edge $-1 $310 0 $310 6.2831853071796004 $127 $311 forward 7 unknown #
vertex $-1 $130 $312 #
ellipse-curve $-1 -49.703358809252819 -12.49561937734881 7.7715789471927579 -0.83867057594974714 0 0.54463902268945019 0.81695853403417529 0 1.2580058639246208 1 I I #
face $-1 $-1 $313 $28 $-1 $314 reversed single #
loop $-1 $-1 $137 $131 #
plane-surface $-1 0 0 15.212201893487741 0 0 1 1 0 0 forward_v I I I I #
coedge $-1 $315 $316 $317 $318 reversed $132 $-1 #
coedge $-1 $319 $134 $136 $224 forward $82 $-1 #
coedge $-1 $134 $319 $315 $320 forward $82 $-1 #
coedge $-1 $317 $137 $134 $221 forward $215 $-1 #
edge $-1 $227 4.1732928648069407 $321 15.07596933429256 $220 $322 forward 7 unknown #
coedge $-1 $323 $324 $135 $223 forward $313 $-1 #
edge $-1 $325 -70.571609887594889 $226 -63.209550164050512 $222 $326 forward 7 unknown #
edge $-1 $227 100.56973713602665 $325 109.07071138645584 $136 $327 forward 7 unknown #
coedge $-1 $137 $317 $323 $328 forward $215 $-1 #
vertex $-1 $138 $329 #
vertex $-1 $138 $330 #
straight-curve $-1 47.229004587224516 -13.797923964356691 15.212201893487745 -1 0 0 I I #
coedge $-1 $229 $229 $-1 $331 reversed $141 $-1 #
edge $-1 $332 0 $332 6.2831853071796004 $142 $333 forward 7 unknown #
vertex $-1 $145 $334 #
ellipse-curve $-1 52.41011218756644 -22.520065139945189 11.53117203171554 0.86602541151947299 0 0.49999998660252726 0.49999998660252726 0 -0.86602541151947299 1 I I #
coedge $-1 $233 $233 $-1 $335 reversed $148 $-1 #
edge $-1 $336 0 $336 6.2831853071796004 $149 $337 forward 7 unknown #
vertex $-1 $152 $338 #
ellipse-curve $-1 52.41011218756644 -19.249262199099501 11.53117203171554 0.86602541151947299 0 0.49999998660252726 0.49999998660252726 0 -0.86602541151947299 1 I I #
coedge $-1 $237 $237 $-1 $339 reversed $155 $-1 #
edge $-1 $340 0 $340 6.2831853071796004 $156 $341 forward 7 unknown #
vertex $-1 $159 $342 #
ellipse-curve $-1 52.41011218756644 -15.978459258253814 11.53117203171554 0.86602541151947299 0 0.49999998660252726 0.49999998660252726 0 -0.86602541151947299 1 I I #
face $-1 $-1 $175 $24 $-1 $343 reversed single #
loop $-1 $-1 $257 $160 #
plane-surface $-1 0 34.98271557713425 0 0 -1 0 0 0 -1 forward_v I I I I #
coedge $-1 $344 $255 $258 $345 forward $161 $-1 #
coedge $-1 $261 $163 $164 $249 reversed $101 $-1 #
coedge $-1 $255 $344 $163 $247 reversed $161 $-1 #
edge $-1 $262 -15.212201893487741 $346 15.212201893487741 $246 $347 forward 7 unknown #
coedge $-1 $165 $164 $344 $348 forward $65 $-1 #
edge $-1 $253 -54.535355693227942 $346 54.535355693227942 $245 $349 forward 7 unknown #
coedge $-1 $258 $257 $165 $251 reversed $242 $-1 #
edge $-1 $350 -54.535355693227942 $252 54.535355693227942 $250 $351 forward 7 unknown #
vertex $-1 $167 $352 #
vertex $-1 $264 $353 #
straight-curve $-1 54.535355693227942 0 -15.212201893487741 0 -1 0 I I #
coedge $-1 $244 $246 $168 $256 reversed $161 $-1 #
edge $-1 $259 -34.98271557713425 $262 34.98271557713425 $255 $354 forward 7 unknown #
coedge $-1 $250 $169 $174 $265 forward $242 $-1 #
coedge $-1 $169 $250 $244 $345 reversed $242 $-1 #
vertex $-1 $170 $355 #
straight-curve $-1 0 34.98271557713425 15.212201893487741 -1 0 0 I I #
coedge $-1 $171 $245 $173 $264 reversed $101 $-1 #
vertex $-1 $256 $356 #
straight-curve $-1 0 -34.98271557713425 15.212201893487741 1 0 0 I I #
edge $-1 $176 -15.212201893487741 $253 15.212201893487741 $173 $357 forward 7 unknown #
edge $-1 $177 -15.212201893487741 $252 15.212201893487741 $174 $358 forward 7 unknown #
point $-1 54.535355693227942 -34.98271557713425 15.212201893487741 #
point $-1 54.535355693227942 34.98271557713425 15.212201893487741 #
face $-1 $-1 $285 $25 $-1 $359 forward single #
loop $-1 $-1 $360 $179 #
plane-surface $-1 -35.163417450247174 -40.123773148780217 0 -1 0 0 0 0 1 forward_v I I I I #
coedge $-1 $361 $182 $275 $362 reversed $109 $-1 #
coedge $-1 $182 $361 $363 $364 reversed $109 $-1 #
coedge $-1 $190 $189 $182 $274 reversed $180 $-1 #
edge $-1 $365 -15.212201893487741 $366 15.212201893487741 $273 $367 forward 7 unknown #
coedge $-1 $184 $183 $271 $362 forward $69 $-1 #
coedge $-1 $281 $360 $183 $277 reversed $269 $-1 #
edge $-1 $279 -5.1410575716459732 $368 5.1410575716459732 $276 $369 forward 7 unknown #
edge $-1 $366 -5.1410575716459732 $191 5.1410575716459732 $189 $370 forward 7 unknown #
vertex $-1 $277 $371 #
straight-curve $-1 0 -34.98271557713425 -15.212201893487741 1 0 0 I I #
coedge $-1 $372 $276 $186 $282 reversed $269 $-1 #
edge $-1 $286 -15.212201893487741 $279 15.212201893487741 $281 $373 forward 7 unknown #
coedge $-1 $363 $187 $190 $288 forward $285 $-1 #
coedge $-1 $187 $363 $372 $374 forward $285 $-1 #
loop $-1 $-1 $187 $268 #
vertex $-1 $188 $375 #
straight-curve $-1 0 -34.98271557713425 15.212201893487741 -1 0 0 I I #
edge $-1 $192 -5.1410575716459732 $365 5.1410575716459732 $190 $376 forward 7 unknown #
point $-1 -43.129918565755794 -34.982715577134243 -15.212201893487741 #
point $-1 -43.129918565755794 -34.982715577134243 15.212201893487741 #
plane-surface $-1 0 0 15.212201893487741 0 0 1 1 0 0 forward_v I I I I #
coedge $-1 $302 $301 $294 $377 forward $195 $-1 #
coedge $-1 $294 $197 $199 $298 reversed $117 $-1 #
coedge $-1 $197 $293 $292 $377 reversed $117 $-1 #
coedge $-1 $205 $200 $197 $296 forward $206 $-1 #
edge $-1 $299 -28.13351409020008 $378 -18.469520322249835 $295 $379 forward 7 unknown #
coedge $-1 $199 $198 $302 $380 reversed $73 $-1 #
edge $-1 $381 2.6082680278521875e-014 $299 17.743851184641624 $293 $382 forward 7 unknown #
vertex $-1 $201 $383 #
straight-curve $-1 -44.871361925277704 -6.2478096886744048 15.212201893487741 0 1 0 I I #
coedge $-1 $292 $202 $205 $306 reversed $195 $-1 #
coedge $-1 $202 $292 $297 $380 forward $195 $-1 #
vertex $-1 $203 $384 #
straight-curve $-1 -54.535355693227942 -18.075210524032364 29.867560827230086 0 0 1 I I #
straight-curve $-1 -54.535355693227956 -18.075210524032364 0.3309560008977499 -0.54463902268945019 0 -0.83867057594974714 I I #
edge $-1 $378 6.9160282306652547 $207 18.075210524032364 $301 $385 forward 7 unknown #
point $-1 -54.535355693227942 -18.075210524032364 15.212201893487741 #
point $-1 -44.871361925277697 -18.075210524032364 15.212201893487741 #
edge $-1 $386 1 $386 0 $210 $-1 forward 7 unknown #
vertex $-1 $211 $387 #
ellipse-curve $-1 -47.710290831900032 -12.49561937734881 6.4772655105853101 -0.83867057594974714 0 0.54463902268945019 0.81695853403417529 0 1.2580058639246208 1 I I #
point $-1 -48.886400275218648 -12.49561937734881 9.0295848111173758 #
loop $-1 $-1 $222 $214 #
plane-surface $-1 54.535355693227942 0 0 -1 0 0 0 0 1 forward_v I I I I #
coedge $-1 $316 $217 $219 $320 reversed $132 $-1 #
coedge $-1 $217 $315 $388 $389 reversed $132 $-1 #
coedge $-1 $225 $220 $217 $318 forward $215 $-1 #
edge $-1 $321 3.0558640946804019 $390 7.3063511060034259 $317 $391 forward 7 unknown #
coedge $-1 $219 $218 $324 $392 reversed $82 $-1 #
edge $-1 $393 -109.07071138645584 $321 -100.56973713602665 $315 $394 forward 7 unknown #
vertex $-1 $221 $395 #
straight-curve $-1 50.284868681904918 -9.6246310995497506 15.212201893487745 0 -1 0 I I #
coedge $-1 $388 $222 $225 $328 reversed $313 $-1 #
coedge $-1 $222 $388 $319 $392 forward $313 $-1 #
vertex $-1 $223 $396 #
straight-curve $-1 54.535355693227942 -13.797923964356691 78.421752057538257 0 0 1 I I #
straight-curve $-1 1.4612719070328239e-006 -13.797923964356691 102.30814988312045 0.49999998660252726 0 -0.86602541151947299 I I #
edge $-1 $390 -24.700600433842311 $226 -13.797923964356691 $323 $397 forward 7 unknown #
point $-1 54.535355693227942 -13.797923964356691 15.212201893487741 #
point $-1 50.284868681904918 -13.797923964356691 15.212201893487745 #
edge $-1 $398 1 $398 0 $229 $-1 forward 7 unknown #
vertex $-1 $230 $399 #
ellipse-curve $-1 49.913182815701717 -22.520065139945189 10.089569238225517 0.86602541151947299 0 0.49999998660252726 0.49999998660252726 0 -0.86602541151947299 1 I I #
point $-1 52.910112174168944 -22.520065139945189 10.665146620196053 #
edge $-1 $400 1 $400 0 $233 $-1 forward 7 unknown #
vertex $-1 $234 $401 #
ellipse-curve $-1 49.913182815701717 -19.249262199099501 10.089569238225517 0.86602541151947299 0 0.49999998660252726 0.49999998660252726 0 -0.86602541151947299 1 I I #
point $-1 52.910112174168944 -19.249262199099501 10.665146620196053 #
edge $-1 $402 1 $402 0 $237 $-1 forward 7 unknown #
vertex $-1 $238 $403 #
ellipse-curve $-1 49.913182815701717 -15.978459258253814 10.089569238225517 0.86602541151947299 0 0.49999998660252726 0.49999998660252726 0 -0.86602541151947299 1 I I #
point $-1 52.910112174168944 -15.978459258253814 10.665146620196053 #
plane-surface $-1 54.535355693227942 0 0 -1 0 0 0 0 1 forward_v I I I I #
coedge $-1 $246 $244 $248 $348 reversed $161 $-1 #
edge $-1 $259 -15.212201893487741 $350 15.212201893487741 $258 $404 forward 7 unknown #
vertex $-1 $348 $405 #
straight-curve $-1 -54.535355693227942 -34.98271557713425 0 0 0 -1 I I #
edge $-1 $346 -34.98271557713425 $350 34.98271557713425 $344 $406 forward 7 unknown #
straight-curve $-1 0 -34.98271557713425 -15.212201893487741 -1 0 0 I I #
vertex $-1 $251 $407 #
straight-curve $-1 0 34.98271557713425 -15.212201893487741 1 0 0 I I #
point $-1 54.535355693227942 34.98271557713425 -15.212201893487741 #
point $-1 54.535355693227942 -34.98271557713425 -15.212201893487741 #
straight-curve $-1 -54.535355693227942 0 15.212201893487741 0 -1 0 I I #
point $-1 -54.535355693227942 34.98271557713425 15.212201893487741 #
point $-1 -54.535355693227942 -34.98271557713425 15.212201893487741 #
straight-curve $-1 54.535355693227942 -34.98271557713425 0 0 0 -1 I I #
straight-curve $-1 54.535355693227942 34.98271557713425 0 0 0 -1 I I #
plane-surface $-1 0 0 15.212201893487741 0 0 1 1 0 0 forward_v I I I I #
coedge $-1 $276 $372 $361 $408 forward $269 $-1 #
coedge $-1 $272 $271 $360 $408 reversed $109 $-1 #
edge $-1 $368 -3.9832505577543103 $366 3.9832505577543103 $271 $409 forward 7 unknown #
coedge $-1 $284 $283 $272 $364 forward $285 $-1 #
edge $-1 $365 -3.9832505577543103 $410 3.9832505577543103 $272 $411 forward 7 unknown #
vertex $-1 $288 $412 #
vertex $-1 $278 $413 #
straight-curve $-1 -43.129918565755794 -45.26483072042619 0 0 0 -1 I I #
vertex $-1 $408 $414 #
straight-curve $-1 -35.163417450247174 -40.123773148780217 -15.212201893487741 0 -1 0 I I #
straight-curve $-1 -43.129918565755794 -40.123773148780217 -15.212201893487741 0 1 0 I I #
point $-1 -35.163417450247174 -34.982715577134243 -15.212201893487741 #
coedge $-1 $360 $281 $284 $374 reversed $269 $-1 #
straight-curve $-1 -35.163417450247174 -34.98271557713425 0 0 0 -1 I I #
edge $-1 $410 -5.1410575716459732 $286 5.1410575716459732 $372 $415 forward 7 unknown #
point $-1 -35.163417450247174 -34.982715577134243 15.212201893487741 #
straight-curve $-1 -43.129918565755794 -40.123773148780217 15.212201893487741 0 -1 0 I I #
edge $-1 $378 14.655358933742345 $381 29.536604826332315 $292 $416 forward 7 unknown #
vertex $-1 $306 $417 #
straight-curve $-1 -73.004876015477777 -6.9160282306652547 15.212201893487741 -1 0 0 I I #
edge $-1 $381 0.66821854199084996 $303 11.82740083535796 $302 $418 forward 7 unknown #
vertex $-1 $380 $419 #
straight-curve $-1 -54.535355693227956 -6.9160282306652547 0.3309560008977499 0.54463902268945019 0 0.83867057594974714 I I #
point $-1 -44.871361925277697 -6.9160282306652547 15.212201893487741 #
point $-1 -54.535355693227942 -18.075210524032364 0.33095600089777177 #
straight-curve $-1 -54.535355693227942 0 15.212201893487741 0 -1 0 I I #
vertex $-1 $309 $420 #
point $-1 -46.893332297865854 -12.49561937734881 7.7352713745099315 #
coedge $-1 $324 $323 $316 $389 forward $313 $-1 #
edge $-1 $390 63.209550164050512 $393 70.571609887594889 $388 $421 forward 7 unknown #
vertex $-1 $328 $422 #
straight-curve $-1 47.229004587224516 -24.700600433842311 15.212201893487745 1 0 0 I I #
edge $-1 $393 -15.07596933429256 $325 -4.1732928648069407 $324 $423 forward 7 unknown #
vertex $-1 $392 $424 #
straight-curve $-1 1.4612719070328239e-006 -24.700600433842311 102.30814988312045 -0.49999998660252726 0 0.86602541151947299 I I #
point $-1 50.284868681904918 -24.700600433842311 15.212201893487745 #
point $-1 54.535355693227942 -13.797923964356691 7.8501421699433678 #
straight-curve $-1 54.535355693227942 0 15.212201893487741 0 1 0 I I #
vertex $-1 $331 $425 #
point $-1 50.413182802304242 -22.520065139945189 9.2235438267060434 #
vertex $-1 $335 $426 #
point $-1 50.413182802304242 -19.249262199099501 9.2235438267060434 #
vertex $-1 $339 $427 #
point $-1 50.413182802304242 -15.978459258253814 9.2235438267060434 #
straight-curve $-1 -54.535355693227942 34.98271557713425 0 0 0 -1 I I #
point $-1 -54.535355693227942 -34.98271557713425 -15.212201893487741 #
straight-curve $-1 -54.535355693227942 0 -15.212201893487741 0 1 0 I I #
point $-1 -54.535355693227942 34.98271557713425 -15.212201893487741 #
edge $-1 $410 -15.212201893487741 $368 15.212201893487741 $360 $428 forward 7 unknown #
straight-curve $-1 -39.146668008001484 -45.26483072042619 -15.212201893487741 -1 0 0 I I #
vertex $-1 $374 $429 #
straight-curve $-1 -39.146668008001484 -45.26483072042619 15.212201893487741 1 0 0 I I #
point $-1 -43.129918565755794 -45.26483072042619 15.212201893487741 #
point $-1 -43.129918565755794 -45.26483072042619 -15.212201893487741 #
point $-1 -35.163417450247174 -45.26483072042619 -15.212201893487741 #
straight-curve $-1 -35.163417450247174 -40.123773148780217 15.212201893487741 0 1 0 I I #
straight-curve $-1 -54.535355693227942 -6.9160282306652547 29.867560827230086 0 0 -1 I I #
point $-1 -54.535355693227942 -6.9160282306652547 15.212201893487741 #
straight-curve $-1 -54.535355693227942 -6.2478096886744048 0.33095600089777205 0 -1 0 I I #
point $-1 -54.535355693227942 -6.9160282306652547 0.33095600089777177 #
point $-1 -46.452284967975409 -12.49561937734881 5.6603069765511353 #
straight-curve $-1 54.535355693227942 -24.700600433842311 78.421752057538257 0 0 -1 I I #
point $-1 54.535355693227942 -24.700600433842311 15.212201893487741 #
straight-curve $-1 54.535355693227942 -9.6246310995497506 7.8501421699433607 0 1 0 I I #
point $-1 54.535355693227942 -24.700600433842311 7.8501421699433678 #
point $-1 49.047157404182244 -22.520065139945189 9.5895692516229882 #
point $-1 49.047157404182244 -19.249262199099501 9.5895692516229882 #
point $-1 49.047157404182244 -15.978459258253814 9.5895692516229882 #
straight-curve $-1 -35.163417450247174 -45.26483072042619 0 0 0 -1 I I #
point $-1 -35.163417450247174 -45.26483072042619 15.212201893487741 #
End-of-ACIS-data 