500 0 4 0           
7 Unknown 11 ACIS 5.0 NT 24 Thu Mar 25 23:52:20 1999 
-1 9.9999999999999995e-007 1e-010 
body $-1 $4 $-1 $5 #
body $-1 $6 $-1 $7 #
body $-1 $8 $-1 $9 #
body $-1 $10 $-1 $11 #
lump $-1 $-1 $12 $0 #
transform $-1 1 0 0 0 1 0 0 0 1 62.246772667622913 32.119387887497624 15.905894939886744 1 rotate no_reflect no_shear #
lump $-1 $-1 $13 $1 #
transform $-1 1 0 0 0 1 0 0 0 1 62.246772667622913 32.119387887497624 15.905894939886744 1 rotate no_reflect no_shear #
lump $-1 $-1 $14 $2 #
transform $-1 1 0 0 0 1 0 0 0 1 62.246772667622913 32.119387887497624 15.905894939886744 1 rotate no_reflect no_shear #
lump $-1 $-1 $15 $3 #
transform $-1 1 0 0 0 1 0 0 0 1 62.246772667622913 32.119387887497624 15.905894939886744 1 rotate no_reflect no_shear #
shell $-1 $-1 $-1 $16 $-1 $4 #
shell $-1 $-1 $-1 $17 $-1 $6 #
shell $-1 $-1 $-1 $18 $-1 $8 #
shell $-1 $-1 $-1 $19 $-1 $10 #
face $-1 $20 $21 $12 $-1 $22 forward single #
face $-1 $23 $24 $13 $-1 $25 forward single #
face $-1 $26 $27 $14 $-1 $28 reversed single #
face $-1 $29 $30 $15 $-1 $31 reversed single #
face $-1 $32 $33 $12 $-1 $34 reversed single #
loop $-1 $-1 $35 $16 #
plane-surface $-1 0 0 15.905894939886744 0 0 1 1 0 0 forward_v I I I I #
face $-1 $36 $37 $13 $-1 $38 forward single #
loop $-1 $-1 $39 $17 #
plane-surface $-1 -22.657619986031406 -25.369189797661054 92.003160041933654 0.73135370988377701 0 0.68199835119979291 0.68199835119979291 0 -0.73135370988377701 forward_v I I I I #
face $-1 $40 $41 $14 $-1 $42 reversed single #
loop $-1 $43 $44 $18 #
cone-surface $-1 54.594856272303545 -28.262131836162443 7.7954094591348007 -0.73135370988377701 0 -0.68199835119979291 1.0229975267996894 0 -1.0970305648256655 1 I I 0 1 1.5 forward I I I I #
face $-1 $45 $46 $15 $-1 $47 reversed single #
loop $-1 $48 $49 $19 #
cone-surface $-1 54.594856272303545 -22.476247759159669 7.7954094591348007 -0.73135370988377701 0 -0.68199835119979291 1.0229975267996894 0 -1.0970305648256655 1 I I 0 1 1.5 forward I I I I #
face $-1 $50 $51 $12 $-1 $52 reversed single #
loop $-1 $-1 $53 $20 #
plane-surface $-1 0 0 -15.905894939886744 0 0 1 1 0 0 forward_v I I I I #
coedge $-1 $54 $55 $56 $57 forward $21 $-1 #
face $-1 $58 $59 $13 $-1 $60 reversed single #
loop $-1 $-1 $61 $23 #
plane-surface $-1 68.391196251484814 -18.618991707824485 176.90755269558798 0 -1 0 -0.73135370988377701 0 -0.68199835119979291 forward_v I I I I #
coedge $-1 $62 $63 $64 $65 reversed $24 $-1 #
face $-1 $66 $67 $14 $-1 $68 forward single #
loop $-1 $69 $70 $26 #
cone-surface $-1 53.36569792269183 -28.262131836162443 6.6492007827176618 -0.73135370988377701 0 -0.68199835119979291 0.51149876339984468 0 -0.54851528241283276 1 I I -0.70710678118654757 0.70710678118654757 0.75 forward I I I I #
loop $-1 $-1 $71 $18 #
coedge $-1 $44 $44 $72 $73 reversed $27 $-1 #
face $-1 $74 $75 $15 $-1 $76 reversed single #
loop $-1 $77 $78 $29 #
cone-surface $-1 53.36569792269183 -22.476247759159669 6.6492007827176618 -0.73135370988377701 0 -0.68199835119979291 0.51149876339984468 0 -0.54851528241283276 1 I I -0.70710678118654757 0.70710678118654757 0.75 forward I I I I #
loop $-1 $-1 $79 $19 #
coedge $-1 $49 $49 $80 $81 reversed $30 $-1 #
face $-1 $82 $83 $12 $-1 $84 reversed single #
loop $-1 $-1 $85 $32 #
plane-surface $-1 0 -32.119387887497624 0 0 1 0 0 0 1 forward_v I I I I #
coedge $-1 $86 $87 $88 $89 forward $33 $-1 #
coedge $-1 $90 $35 $91 $92 forward $21 $-1 #
coedge $-1 $35 $90 $93 $94 forward $21 $-1 #
coedge $-1 $95 $96 $35 $57 reversed $97 $-1 #
edge $-1 $98 -32.119387887497624 $99 32.119387887497624 $56 $100 forward 7 unknown #
face $-1 $101 $102 $13 $-1 $103 reversed single #
loop $-1 $-1 $104 $36 #
plane-surface $-1 62.246772667622913 0 0 -1 0 0 0 0 1 forward_v I I I I #
coedge $-1 $105 $106 $104 $107 reversed $37 $-1 #
coedge $-1 $108 $39 $106 $109 reversed $24 $-1 #
coedge $-1 $39 $108 $110 $111 reversed $24 $-1 #
coedge $-1 $112 $104 $39 $65 forward $59 $-1 #
edge $-1 $113 5.9343968089939576 $114 19.434792988667098 $64 $115 forward 7 unknown #
face $-1 $116 $117 $14 $-1 $118 forward single #
loop $-1 $119 $72 $40 #
plane-surface $-1 -22.657619986031406 -25.369189797661054 92.003160041933654 0.73135370988377701 0 0.68199835119979291 0.68199835119979291 0 -0.73135370988377701 forward_v I I I I #
loop $-1 $-1 $120 $26 #
coedge $-1 $70 $70 $71 $121 forward $41 $-1 #
coedge $-1 $71 $71 $70 $121 reversed $43 $-1 #
coedge $-1 $72 $72 $44 $73 forward $67 $-1 #
edge $-1 $122 0 $122 6.2831853071796004 $72 $123 forward 7 unknown #
face $-1 $124 $125 $15 $-1 $126 reversed single #
loop $-1 $127 $128 $45 #
cone-surface $-1 54.594856272303545 -28.262131836162443 7.7954094591348007 -0.73135370988377701 0 -0.68199835119979291 1.0229975267996894 0 -1.0970305648256655 1 I I 0 1 1.5 forward I I I I #
loop $-1 $-1 $129 $29 #
coedge $-1 $78 $78 $79 $130 forward $46 $-1 #
coedge $-1 $79 $79 $78 $130 reversed $48 $-1 #
coedge $-1 $80 $80 $49 $81 forward $131 $-1 #
edge $-1 $132 0 $132 6.2831853071796004 $80 $133 forward 7 unknown #
face $-1 $134 $135 $12 $-1 $136 reversed single #
loop $-1 $-1 $137 $50 #
plane-surface $-1 -62.246772667622913 0 0 1 0 0 0 0 -1 forward_v I I I I #
coedge $-1 $138 $93 $139 $140 forward $51 $-1 #
coedge $-1 $141 $53 $138 $142 forward $33 $-1 #
coedge $-1 $53 $141 $143 $144 forward $33 $-1 #
coedge $-1 $96 $95 $53 $89 reversed $97 $-1 #
edge $-1 $145 -32.119387887497624 $146 32.119387887497624 $88 $147 forward 7 unknown #
coedge $-1 $55 $54 $148 $149 forward $21 $-1 #
coedge $-1 $150 $151 $54 $92 reversed $135 $-1 #
edge $-1 $99 -62.246772667622913 $152 62.246772667622913 $91 $153 forward 7 unknown #
coedge $-1 $85 $154 $55 $94 reversed $51 $-1 #
edge $-1 $155 -62.246772667622913 $98 62.246772667622913 $93 $156 forward 7 unknown #
coedge $-1 $88 $56 $154 $157 forward $97 $-1 #
coedge $-1 $56 $88 $150 $158 reversed $97 $-1 #
loop $-1 $-1 $95 $134 #
vertex $-1 $57 $159 #
vertex $-1 $57 $160 #
straight-curve $-1 62.246772667622913 0 15.905894939886744 0 1 0 I I #
face $-1 $161 $162 $13 $-1 $163 forward single #
loop $-1 $-1 $110 $58 #
plane-surface $-1 0 -32.119387887497624 0 0 1 0 0 0 1 forward_v I I I I #
coedge $-1 $64 $164 $61 $107 forward $59 $-1 #
coedge $-1 $106 $61 $165 $166 reversed $37 $-1 #
coedge $-1 $61 $105 $62 $109 forward $37 $-1 #
edge $-1 $167 72.547881407907241 $113 87.499432543376557 $104 $168 forward 7 unknown #
coedge $-1 $63 $62 $169 $170 reversed $24 $-1 #
edge $-1 $171 104.04987911272083 $113 124.49354533524581 $106 $172 forward 7 unknown #
coedge $-1 $173 $174 $63 $111 forward $102 $-1 #
edge $-1 $114 -83.123889390103841 $175 -62.680223167578859 $110 $176 forward 7 unknown #
coedge $-1 $177 $64 $174 $178 forward $59 $-1 #
vertex $-1 $65 $179 #
vertex $-1 $178 $180 #
straight-curve $-1 62.246772667622906 -12.684594898830527 0.95434380441744793 0 -1 0 I I #
face $-1 $181 $182 $14 $-1 $183 reversed single #
loop $-1 $-1 $184 $66 #
plane-surface $-1 68.391196251484814 -18.618991707824485 176.90755269558798 0 -1 0 -0.73135370988377701 0 -0.68199835119979291 forward_v I I I I #
loop $-1 $-1 $185 $40 #
coedge $-1 $120 $120 $-1 $186 forward $69 $-1 #
edge $-1 $187 0 $187 6.2831853071796004 $70 $188 forward 7 unknown #
vertex $-1 $73 $189 #
ellipse-curve $-1 55.275499339502439 -28.262131836162443 8.4301193721521059 -0.73135370988377701 0 -0.68199835119979291 1.0229975267996894 0 -1.0970305648256655 1 I I #
face $-1 $190 $131 $15 $-1 $191 forward single #
loop $-1 $192 $193 $74 #
cone-surface $-1 53.36569792269183 -28.262131836162443 6.6492007827176618 -0.73135370988377701 0 -0.68199835119979291 0.51149876339984468 0 -0.54851528241283276 1 I I -0.70710678118654757 0.70710678118654757 0.75 forward I I I I #
loop $-1 $-1 $194 $45 #
coedge $-1 $128 $128 $195 $196 reversed $75 $-1 #
coedge $-1 $129 $129 $-1 $197 forward $77 $-1 #
edge $-1 $198 0 $198 6.2831853071796004 $78 $199 forward 7 unknown #
loop $-1 $200 $80 $124 #
vertex $-1 $81 $201 #
ellipse-curve $-1 55.275499339502439 -22.476247759159669 8.4301193721521059 -0.73135370988377701 0 -0.68199835119979291 1.0229975267996894 0 -1.0970305648256655 1 I I #
face $-1 $-1 $97 $12 $-1 $202 reversed single #
loop $-1 $-1 $150 $82 #
plane-surface $-1 0 32.119387887497624 0 0 -1 0 0 0 -1 forward_v I I I I #
coedge $-1 $203 $148 $151 $204 forward $83 $-1 #
coedge $-1 $154 $85 $86 $142 reversed $51 $-1 #
coedge $-1 $148 $203 $85 $140 reversed $83 $-1 #
edge $-1 $155 -15.905894939886744 $205 15.905894939886744 $139 $206 forward 7 unknown #
coedge $-1 $87 $86 $203 $207 forward $33 $-1 #
edge $-1 $146 -62.246772667622913 $205 62.246772667622913 $138 $208 forward 7 unknown #
coedge $-1 $151 $150 $87 $144 reversed $135 $-1 #
edge $-1 $209 -62.246772667622913 $145 62.246772667622913 $143 $210 forward 7 unknown #
vertex $-1 $89 $211 #
vertex $-1 $157 $212 #
straight-curve $-1 62.246772667622913 0 -15.905894939886744 0 -1 0 I I #
coedge $-1 $137 $139 $90 $149 reversed $83 $-1 #
edge $-1 $152 -32.119387887497624 $155 32.119387887497624 $148 $213 forward 7 unknown #
coedge $-1 $143 $91 $96 $158 forward $135 $-1 #
coedge $-1 $91 $143 $137 $204 reversed $135 $-1 #
vertex $-1 $92 $214 #
straight-curve $-1 0 32.119387887497624 15.905894939886744 -1 0 0 I I #
coedge $-1 $93 $138 $95 $157 reversed $51 $-1 #
vertex $-1 $149 $215 #
straight-curve $-1 0 -32.119387887497624 15.905894939886744 1 0 0 I I #
edge $-1 $98 -15.905894939886744 $146 15.905894939886744 $95 $216 forward 7 unknown #
edge $-1 $99 -15.905894939886744 $145 15.905894939886744 $96 $217 forward 7 unknown #
point $-1 62.246772667622913 -32.119387887497624 15.905894939886744 #
point $-1 62.246772667622913 32.119387887497624 15.905894939886744 #
face $-1 $218 $219 $13 $-1 $220 reversed single #
loop $-1 $-1 $165 $101 #
plane-surface $-1 0 0 15.905894939886744 0 0 1 1 0 0 forward_v I I I I #
coedge $-1 $104 $221 $222 $223 reversed $59 $-1 #
coedge $-1 $222 $169 $105 $166 forward $162 $-1 #
edge $-1 $171 14.108627885639564 $167 28.051174541880506 $165 $224 forward 7 unknown #
vertex $-1 $223 $225 #
straight-curve $-1 62.246772667622913 -18.618991707824485 88.45377634779399 0 0 -1 I I #
coedge $-1 $165 $226 $108 $170 forward $162 $-1 #
edge $-1 $175 -19.434792988667098 $171 -5.9343968089939576 $169 $227 forward 7 unknown #
vertex $-1 $170 $228 #
straight-curve $-1 -22.657619986031406 -18.618991707824485 92.003160041933654 0.68199835119979291 0 -0.73135370988377701 I I #
coedge $-1 $229 $110 $226 $230 reversed $102 $-1 #
coedge $-1 $110 $231 $112 $178 reversed $102 $-1 #
vertex $-1 $170 $232 #
straight-curve $-1 5.5564171582581316 -32.119387887497624 61.747308689838619 -0.68199835119979291 0 0.73135370988377701 I I #
coedge $-1 $221 $112 $233 $234 reversed $59 $-1 #
edge $-1 $114 -0.95434380441743039 $235 15.905894939886744 $112 $236 forward 7 unknown #
point $-1 62.24677266762292 -18.618991707824485 0.95434380441743372 #
point $-1 62.246772667622913 -32.119387887497624 0.95434380441743039 #
face $-1 $237 $238 $14 $-1 $239 reversed single #
loop $-1 $-1 $240 $116 #
plane-surface $-1 62.246772667622913 0 0 -1 0 0 0 0 1 forward_v I I I I #
coedge $-1 $241 $242 $240 $243 reversed $117 $-1 #
coedge $-1 $244 $245 $246 $247 reversed $119 $-1 #
edge $-1 $248 1 $248 0 $120 $-1 forward 7 unknown #
vertex $-1 $121 $249 #
ellipse-curve $-1 53.914213205104659 -28.262131836162443 7.160699546117506 0.73135370988377701 0 0.68199835119979291 1.0229975267996894 0 -1.0970305648256655 1 I I #
point $-1 56.298496866302116 -28.262131836162443 7.3330888073264298 #
face $-1 $250 $251 $15 $-1 $252 forward single #
plane-surface $-1 -22.657619986031406 -25.369189797661054 92.003160041933654 0.73135370988377701 0 0.68199835119979291 0.68199835119979291 0 -0.73135370988377701 forward_v I I I I #
loop $-1 $-1 $253 $74 #
coedge $-1 $193 $193 $194 $254 forward $125 $-1 #
coedge $-1 $194 $194 $193 $254 reversed $127 $-1 #
coedge $-1 $195 $195 $128 $196 forward $200 $-1 #
edge $-1 $255 0 $255 6.2831853071796004 $195 $256 forward 7 unknown #
edge $-1 $257 1 $257 0 $129 $-1 forward 7 unknown #
vertex $-1 $130 $258 #
ellipse-curve $-1 53.914213205104659 -22.476247759159669 7.160699546117506 0.73135370988377701 0 0.68199835119979291 1.0229975267996894 0 -1.0970305648256655 1 I I #
loop $-1 $259 $195 $124 #
point $-1 56.298496866302116 -22.476247759159669 7.3330888073264298 #
plane-surface $-1 62.246772667622913 0 0 -1 0 0 0 0 1 forward_v I I I I #
coedge $-1 $139 $137 $141 $207 reversed $83 $-1 #
edge $-1 $152 -15.905894939886744 $209 15.905894939886744 $151 $260 forward 7 unknown #
vertex $-1 $207 $261 #
straight-curve $-1 -62.246772667622913 -32.119387887497624 0 0 0 -1 I I #
edge $-1 $205 -32.119387887497624 $209 32.119387887497624 $203 $262 forward 7 unknown #
straight-curve $-1 0 -32.119387887497624 -15.905894939886744 -1 0 0 I I #
vertex $-1 $144 $263 #
straight-curve $-1 0 32.119387887497624 -15.905894939886744 1 0 0 I I #
point $-1 62.246772667622913 32.119387887497624 -15.905894939886744 #
point $-1 62.246772667622913 -32.119387887497624 -15.905894939886744 #
straight-curve $-1 -62.246772667622913 0 15.905894939886744 0 -1 0 I I #
point $-1 -62.246772667622913 32.119387887497624 15.905894939886744 #
point $-1 -62.246772667622913 -32.119387887497624 15.905894939886744 #
straight-curve $-1 62.246772667622913 -32.119387887497624 0 0 0 -1 I I #
straight-curve $-1 62.246772667622913 32.119387887497624 0 0 0 -1 I I #
face $-1 $264 $265 $13 $-1 $266 reversed single #
loop $-1 $-1 $233 $161 #
plane-surface $-1 0 0 -15.905894939886744 0 0 1 1 0 0 forward_v I I I I #
coedge $-1 $164 $177 $267 $268 reversed $59 $-1 #
coedge $-1 $269 $165 $164 $223 forward $162 $-1 #
edge $-1 $167 -18.618991707824485 $270 32.119387887497624 $164 $271 forward 7 unknown #
straight-curve $-1 34.195598125742407 -18.618991707824485 15.90589493988675 1 0 0 I I #
point $-1 62.246772667622913 -18.618991707824485 15.905894939886744 #
coedge $-1 $169 $272 $173 $230 forward $162 $-1 #
straight-curve $-1 48.304226011381985 -12.684594898830527 15.90589493988675 0 1 0 I I #
point $-1 48.304226011381971 -18.618991707824485 15.90589493988675 #
coedge $-1 $231 $173 $273 $274 forward $102 $-1 #
edge $-1 $275 -62.246772667622913 $175 48.304226011381971 $173 $276 forward 7 unknown #
coedge $-1 $174 $229 $277 $278 reversed $102 $-1 #
point $-1 48.304226011381971 -32.119387887497624 15.90589493988675 #
coedge $-1 $277 $279 $177 $234 forward $219 $-1 #
edge $-1 $280 -32.119387887497624 $235 32.119387887497624 $177 $281 forward 7 unknown #
vertex $-1 $178 $282 #
straight-curve $-1 62.246772667622913 -32.119387887497624 0 0 0 -1 I I #
face $-1 $283 $284 $14 $-1 $285 forward single #
loop $-1 $-1 $286 $181 #
plane-surface $-1 0 -32.119387887497624 0 0 1 0 0 0 1 forward_v I I I I #
coedge $-1 $246 $287 $184 $243 forward $182 $-1 #
coedge $-1 $242 $184 $288 $289 reversed $117 $-1 #
coedge $-1 $184 $241 $244 $290 forward $117 $-1 #
edge $-1 $291 72.547881407907241 $292 87.499432543376557 $240 $293 forward 7 unknown #
coedge $-1 $294 $185 $242 $290 reversed $119 $-1 #
coedge $-1 $185 $294 $286 $295 reversed $119 $-1 #
coedge $-1 $296 $240 $185 $247 forward $182 $-1 #
edge $-1 $292 5.9343968089939576 $297 19.434792988667098 $246 $298 forward 7 unknown #
vertex $-1 $186 $299 #
point $-1 54.937210731904351 -28.262131836162443 6.0636689812918405 #
face $-1 $300 $301 $15 $-1 $302 reversed single #
loop $-1 $-1 $303 $190 #
plane-surface $-1 68.391196251484814 -18.618991707824485 176.90755269558798 0 -1 0 -0.73135370988377701 0 -0.68199835119979291 forward_v I I I I #
coedge $-1 $253 $253 $-1 $304 forward $192 $-1 #
edge $-1 $305 0 $305 6.2831853071796004 $193 $306 forward 7 unknown #
vertex $-1 $196 $307 #
ellipse-curve $-1 55.275499339502439 -28.262131836162443 8.4301193721521059 -0.73135370988377701 0 -0.68199835119979291 1.0229975267996894 0 -1.0970305648256655 1 I I #
vertex $-1 $197 $308 #
point $-1 54.937210731904351 -22.476247759159669 6.0636689812918405 #
loop $-1 $-1 $309 $124 #
straight-curve $-1 -62.246772667622913 32.119387887497624 0 0 0 -1 I I #
point $-1 -62.246772667622913 -32.119387887497624 -15.905894939886744 #
straight-curve $-1 -62.246772667622913 0 -15.905894939886744 0 1 0 I I #
point $-1 -62.246772667622913 32.119387887497624 -15.905894939886744 #
face $-1 $-1 $310 $13 $-1 $311 reversed single #
loop $-1 $-1 $312 $218 #
plane-surface $-1 -62.246772667622913 0 0 1 0 0 0 0 -1 forward_v I I I I #
coedge $-1 $313 $314 $221 $268 forward $310 $-1 #
edge $-1 $270 -15.905894939886744 $280 15.905894939886744 $221 $315 forward 7 unknown #
coedge $-1 $272 $222 $314 $316 forward $162 $-1 #
vertex $-1 $223 $317 #
straight-curve $-1 62.246772667622913 0 15.905894939886744 0 1 0 I I #
coedge $-1 $226 $269 $318 $319 forward $162 $-1 #
coedge $-1 $318 $320 $229 $274 reversed $265 $-1 #
edge $-1 $275 -15.905894939886744 $321 15.905894939886744 $273 $322 forward 7 unknown #
vertex $-1 $319 $323 #
straight-curve $-1 0 -32.119387887497624 15.905894939886744 1 0 0 I I #
coedge $-1 $324 $233 $231 $278 forward $219 $-1 #
edge $-1 $235 -62.246772667622913 $321 62.246772667622913 $231 $325 forward 7 unknown #
coedge $-1 $233 $324 $313 $326 forward $219 $-1 #
vertex $-1 $234 $327 #
straight-curve $-1 62.246772667622913 0 -15.905894939886744 0 -1 0 I I #
point $-1 62.246772667622913 -32.119387887497624 -15.905894939886744 #
face $-1 $328 $329 $14 $-1 $330 reversed single #
loop $-1 $-1 $288 $237 #
plane-surface $-1 0 0 15.905894939886744 0 0 1 1 0 0 forward_v I I I I #
coedge $-1 $331 $332 $245 $295 forward $238 $-1 #
coedge $-1 $240 $333 $334 $335 reversed $182 $-1 #
coedge $-1 $334 $336 $241 $289 forward $284 $-1 #
edge $-1 $337 14.108627885639564 $291 28.051174541880506 $288 $338 forward 7 unknown #
edge $-1 $337 104.04987911272083 $292 124.49354533524581 $242 $339 forward 7 unknown #
vertex $-1 $335 $340 #
vertex $-1 $247 $341 #
straight-curve $-1 62.246772667622913 -18.618991707824485 88.45377634779399 0 0 -1 I I #
coedge $-1 $245 $244 $336 $342 reversed $119 $-1 #
edge $-1 $297 -83.123889390103841 $343 -62.680223167578859 $286 $344 forward 7 unknown #
coedge $-1 $345 $246 $332 $346 forward $182 $-1 #
vertex $-1 $346 $347 #
straight-curve $-1 62.246772667622906 -12.684594898830527 0.95434380441744793 0 -1 0 I I #
point $-1 52.817182640279 -28.262131836162443 6.1377020193178176 #
face $-1 $348 $349 $15 $-1 $350 reversed single #
loop $-1 $-1 $351 $250 #
plane-surface $-1 62.246772667622913 0 0 -1 0 0 0 0 1 forward_v I I I I #
coedge $-1 $352 $353 $351 $354 reversed $251 $-1 #
edge $-1 $355 1 $355 0 $253 $-1 forward 7 unknown #
vertex $-1 $254 $356 #
ellipse-curve $-1 53.914213205104659 -28.262131836162443 7.160699546117506 0.73135370988377701 0 0.68199835119979291 1.0229975267996894 0 -1.0970305648256655 1 I I #
point $-1 56.298496866302116 -28.262131836162443 7.3330888073264298 #
point $-1 52.817182640279 -22.476247759159669 6.1377020193178176 #
coedge $-1 $357 $358 $359 $360 reversed $259 $-1 #
loop $-1 $-1 $267 $264 #
plane-surface $-1 0 32.119387887497624 0 0 -1 0 0 0 -1 forward_v I I I I #
coedge $-1 $320 $318 $361 $362 forward $265 $-1 #
coedge $-1 $361 $267 $279 $326 reversed $310 $-1 #
coedge $-1 $267 $361 $269 $316 reversed $310 $-1 #
straight-curve $-1 62.246772667622913 32.119387887497624 0 0 0 -1 I I #
edge $-1 $270 -62.246772667622913 $363 62.246772667622913 $314 $364 forward 7 unknown #
point $-1 62.246772667622913 32.119387887497624 15.905894939886744 #
coedge $-1 $312 $273 $272 $319 reversed $265 $-1 #
edge $-1 $363 -32.119387887497624 $275 32.119387887497624 $318 $365 forward 7 unknown #
coedge $-1 $273 $312 $324 $366 reversed $265 $-1 #
vertex $-1 $366 $367 #
straight-curve $-1 -62.246772667622913 -32.119387887497624 0 0 0 -1 I I #
point $-1 -62.246772667622913 -32.119387887497624 15.905894939886744 #
coedge $-1 $279 $277 $320 $366 forward $219 $-1 #
straight-curve $-1 0 -32.119387887497624 -15.905894939886744 -1 0 0 I I #
edge $-1 $368 -62.246772667622913 $280 62.246772667622913 $313 $369 forward 7 unknown #
point $-1 62.246772667622913 32.119387887497624 -15.905894939886744 #
face $-1 $370 $371 $14 $-1 $372 reversed single #
loop $-1 $-1 $373 $283 #
plane-surface $-1 0 0 -15.905894939886744 0 0 1 1 0 0 forward_v I I I I #
coedge $-1 $374 $286 $375 $376 reversed $238 $-1 #
coedge $-1 $286 $377 $296 $346 reversed $238 $-1 #
coedge $-1 $287 $345 $378 $379 reversed $182 $-1 #
coedge $-1 $380 $288 $287 $335 forward $284 $-1 #
edge $-1 $291 -18.618991707824485 $381 32.119387887497624 $287 $382 forward 7 unknown #
coedge $-1 $288 $375 $294 $342 forward $284 $-1 #
vertex $-1 $342 $383 #
straight-curve $-1 34.195598125742407 -18.618991707824485 15.90589493988675 1 0 0 I I #
straight-curve $-1 -22.657619986031406 -18.618991707824485 92.003160041933654 0.68199835119979291 0 -0.73135370988377701 I I #
point $-1 62.246772667622913 -18.618991707824485 15.905894939886744 #
point $-1 62.24677266762292 -18.618991707824485 0.95434380441743372 #
edge $-1 $343 -19.434792988667098 $337 -5.9343968089939576 $336 $384 forward 7 unknown #
vertex $-1 $342 $385 #
straight-curve $-1 5.5564171582581316 -32.119387887497624 61.747308689838619 -0.68199835119979291 0 0.73135370988377701 I I #
coedge $-1 $333 $296 $373 $386 reversed $182 $-1 #
edge $-1 $297 -0.95434380441743039 $387 15.905894939886744 $296 $388 forward 7 unknown #
point $-1 62.246772667622913 -32.119387887497624 0.95434380441743039 #
face $-1 $389 $390 $15 $-1 $391 forward single #
loop $-1 $-1 $392 $300 #
plane-surface $-1 0 -32.119387887497624 0 0 1 0 0 0 1 forward_v I I I I #
coedge $-1 $359 $393 $303 $354 forward $301 $-1 #
coedge $-1 $353 $303 $394 $395 reversed $251 $-1 #
coedge $-1 $303 $352 $357 $396 forward $251 $-1 #
edge $-1 $397 72.547881407907241 $398 87.499432543376557 $351 $399 forward 7 unknown #
vertex $-1 $304 $400 #
point $-1 54.937210731904351 -28.262131836162443 6.0636689812918405 #
coedge $-1 $401 $309 $353 $396 reversed $259 $-1 #
coedge $-1 $309 $401 $392 $402 reversed $259 $-1 #
coedge $-1 $403 $351 $309 $360 forward $301 $-1 #
edge $-1 $398 5.9343968089939576 $404 19.434792988667098 $359 $405 forward 7 unknown #
coedge $-1 $314 $313 $312 $362 reversed $310 $-1 #
edge $-1 $363 -15.905894939886744 $368 15.905894939886744 $361 $406 forward 7 unknown #
vertex $-1 $316 $407 #
straight-curve $-1 0 32.119387887497624 15.905894939886744 -1 0 0 I I #
straight-curve $-1 -62.246772667622913 0 15.905894939886744 0 -1 0 I I #
edge $-1 $321 -32.119387887497624 $368 32.119387887497624 $320 $408 forward 7 unknown #
point $-1 -62.246772667622913 -32.119387887497624 -15.905894939886744 #
vertex $-1 $326 $409 #
straight-curve $-1 0 32.119387887497624 -15.905894939886744 1 0 0 I I #
face $-1 $-1 $410 $14 $-1 $411 reversed single #
loop $-1 $-1 $412 $328 #
plane-surface $-1 -62.246772667622913 0 0 1 0 0 0 0 -1 forward_v I I I I #
coedge $-1 $413 $414 $345 $386 forward $329 $-1 #
coedge $-1 $377 $331 $415 $416 forward $238 $-1 #
coedge $-1 $336 $417 $331 $376 forward $284 $-1 #
edge $-1 $418 -62.246772667622913 $343 48.304226011381971 $331 $419 forward 7 unknown #
coedge $-1 $332 $374 $413 $420 reversed $238 $-1 #
coedge $-1 $421 $422 $333 $379 forward $410 $-1 #
edge $-1 $381 -15.905894939886744 $423 15.905894939886744 $333 $424 forward 7 unknown #
coedge $-1 $417 $334 $422 $425 forward $284 $-1 #
vertex $-1 $335 $426 #
straight-curve $-1 62.246772667622913 0 15.905894939886744 0 1 0 I I #
point $-1 48.304226011381971 -18.618991707824485 15.90589493988675 #
straight-curve $-1 48.304226011381985 -12.684594898830527 15.90589493988675 0 1 0 I I #
point $-1 48.304226011381971 -32.119387887497624 15.90589493988675 #
edge $-1 $423 -32.119387887497624 $387 32.119387887497624 $345 $427 forward 7 unknown #
vertex $-1 $346 $428 #
straight-curve $-1 62.246772667622913 -32.119387887497624 0 0 0 -1 I I #
face $-1 $429 $430 $15 $-1 $431 reversed single #
loop $-1 $-1 $394 $348 #
plane-surface $-1 0 0 15.905894939886744 0 0 1 1 0 0 forward_v I I I I #
coedge $-1 $432 $433 $358 $402 forward $349 $-1 #
coedge $-1 $351 $434 $435 $436 reversed $301 $-1 #
coedge $-1 $435 $437 $352 $395 forward $390 $-1 #
edge $-1 $438 14.108627885639564 $397 28.051174541880506 $394 $439 forward 7 unknown #
edge $-1 $438 104.04987911272083 $398 124.49354533524581 $353 $440 forward 7 unknown #
vertex $-1 $436 $441 #
vertex $-1 $360 $442 #
straight-curve $-1 62.246772667622913 -18.618991707824485 88.45377634779399 0 0 -1 I I #
point $-1 52.817182640279 -28.262131836162443 6.1377020193178176 #
coedge $-1 $358 $357 $437 $443 reversed $259 $-1 #
edge $-1 $404 -83.123889390103841 $444 -62.680223167578859 $392 $445 forward 7 unknown #
coedge $-1 $446 $359 $433 $447 forward $301 $-1 #
vertex $-1 $447 $448 #
straight-curve $-1 62.246772667622906 -12.684594898830527 0.95434380441744793 0 -1 0 I I #
straight-curve $-1 -62.246772667622913 32.119387887497624 0 0 0 -1 I I #
point $-1 -62.246772667622913 32.119387887497624 15.905894939886744 #
straight-curve $-1 -62.246772667622913 0 -15.905894939886744 0 1 0 I I #
point $-1 -62.246772667622913 32.119387887497624 -15.905894939886744 #
loop $-1 $-1 $378 $370 #
plane-surface $-1 0 32.119387887497624 0 0 -1 0 0 0 -1 forward_v I I I I #
coedge $-1 $449 $450 $451 $452 forward $371 $-1 #
coedge $-1 $453 $373 $377 $420 forward $329 $-1 #
coedge $-1 $373 $453 $421 $454 forward $329 $-1 #
coedge $-1 $450 $449 $374 $416 reversed $371 $-1 #
edge $-1 $418 -15.905894939886744 $455 15.905894939886744 $415 $456 forward 7 unknown #
coedge $-1 $375 $380 $450 $457 forward $284 $-1 #
vertex $-1 $457 $458 #
straight-curve $-1 0 -32.119387887497624 15.905894939886744 1 0 0 I I #
edge $-1 $387 -62.246772667622913 $455 62.246772667622913 $377 $459 forward 7 unknown #
coedge $-1 $451 $378 $414 $454 reversed $410 $-1 #
coedge $-1 $378 $451 $380 $425 reversed $410 $-1 #
vertex $-1 $386 $460 #
straight-curve $-1 62.246772667622913 32.119387887497624 0 0 0 -1 I I #
edge $-1 $381 -62.246772667622913 $461 62.246772667622913 $422 $462 forward 7 unknown #
point $-1 62.246772667622913 32.119387887497624 15.905894939886744 #
straight-curve $-1 62.246772667622913 0 -15.905894939886744 0 -1 0 I I #
point $-1 62.246772667622913 -32.119387887497624 -15.905894939886744 #
face $-1 $463 $464 $15 $-1 $465 reversed single #
loop $-1 $-1 $466 $389 #
plane-surface $-1 0 0 -15.905894939886744 0 0 1 1 0 0 forward_v I I I I #
coedge $-1 $467 $392 $468 $469 reversed $349 $-1 #
coedge $-1 $392 $470 $403 $447 reversed $349 $-1 #
coedge $-1 $393 $446 $471 $472 reversed $301 $-1 #
coedge $-1 $473 $394 $393 $436 forward $390 $-1 #
edge $-1 $397 -18.618991707824485 $474 32.119387887497624 $393 $475 forward 7 unknown #
coedge $-1 $394 $468 $401 $443 forward $390 $-1 #
vertex $-1 $443 $476 #
straight-curve $-1 34.195598125742407 -18.618991707824485 15.90589493988675 1 0 0 I I #
straight-curve $-1 -22.657619986031406 -18.618991707824485 92.003160041933654 0.68199835119979291 0 -0.73135370988377701 I I #
point $-1 62.246772667622913 -18.618991707824485 15.905894939886744 #
point $-1 62.24677266762292 -18.618991707824485 0.95434380441743372 #
edge $-1 $444 -19.434792988667098 $438 -5.9343968089939576 $437 $477 forward 7 unknown #
vertex $-1 $443 $478 #
straight-curve $-1 5.5564171582581316 -32.119387887497624 61.747308689838619 -0.68199835119979291 0 0.73135370988377701 I I #
coedge $-1 $434 $403 $466 $479 reversed $301 $-1 #
edge $-1 $404 -0.95434380441743039 $480 15.905894939886744 $403 $481 forward 7 unknown #
point $-1 62.246772667622913 -32.119387887497624 0.95434380441743039 #
coedge $-1 $415 $412 $453 $482 reversed $371 $-1 #
coedge $-1 $412 $415 $417 $457 reversed $371 $-1 #
coedge $-1 $422 $421 $412 $452 reversed $410 $-1 #
edge $-1 $461 -15.905894939886744 $483 15.905894939886744 $451 $484 forward 7 unknown #
coedge $-1 $414 $413 $449 $482 forward $329 $-1 #
edge $-1 $483 -62.246772667622913 $423 62.246772667622913 $421 $485 forward 7 unknown #
vertex $-1 $482 $486 #
straight-curve $-1 -62.246772667622913 -32.119387887497624 0 0 0 -1 I I #
edge $-1 $461 -32.119387887497624 $418 32.119387887497624 $450 $487 forward 7 unknown #
point $-1 -62.246772667622913 -32.119387887497624 15.905894939886744 #
straight-curve $-1 0 -32.119387887497624 -15.905894939886744 -1 0 0 I I #
point $-1 62.246772667622913 32.119387887497624 -15.905894939886744 #
vertex $-1 $425 $488 #
straight-curve $-1 0 32.119387887497624 15.905894939886744 -1 0 0 I I #
face $-1 $-1 $489 $15 $-1 $490 reversed single #
loop $-1 $-1 $491 $429 #
plane-surface $-1 -62.246772667622913 0 0 1 0 0 0 0 -1 forward_v I I I I #
coedge $-1 $492 $493 $446 $479 forward $430 $-1 #
coedge $-1 $470 $432 $494 $495 forward $349 $-1 #
coedge $-1 $437 $496 $432 $469 forward $390 $-1 #
edge $-1 $497 -62.246772667622913 $444 48.304226011381971 $432 $498 forward 7 unknown #
coedge $-1 $433 $467 $492 $499 reversed $349 $-1 #
coedge $-1 $500 $501 $434 $472 forward $489 $-1 #
edge $-1 $474 -15.905894939886744 $502 15.905894939886744 $434 $503 forward 7 unknown #
coedge $-1 $496 $435 $501 $504 forward $390 $-1 #
vertex $-1 $436 $505 #
straight-curve $-1 62.246772667622913 0 15.905894939886744 0 1 0 I I #
point $-1 48.304226011381971 -18.618991707824485 15.90589493988675 #
straight-curve $-1 48.304226011381985 -12.684594898830527 15.90589493988675 0 1 0 I I #
point $-1 48.304226011381971 -32.119387887497624 15.90589493988675 #
edge $-1 $502 -32.119387887497624 $480 32.119387887497624 $446 $506 forward 7 unknown #
vertex $-1 $447 $507 #
straight-curve $-1 62.246772667622913 -32.119387887497624 0 0 0 -1 I I #
edge $-1 $455 -32.119387887497624 $483 32.119387887497624 $449 $508 forward 7 unknown #
vertex $-1 $454 $509 #
straight-curve $-1 -62.246772667622913 32.119387887497624 0 0 0 -1 I I #
straight-curve $-1 0 32.119387887497624 -15.905894939886744 1 0 0 I I #
point $-1 -62.246772667622913 -32.119387887497624 -15.905894939886744 #
straight-curve $-1 -62.246772667622913 0 15.905894939886744 0 -1 0 I I #
point $-1 -62.246772667622913 32.119387887497624 15.905894939886744 #
loop $-1 $-1 $471 $463 #
plane-surface $-1 0 32.119387887497624 0 0 -1 0 0 0 -1 forward_v I I I I #
coedge $-1 $510 $511 $512 $513 forward $464 $-1 #
coedge $-1 $514 $466 $470 $499 forward $430 $-1 #
coedge $-1 $466 $514 $500 $515 forward $430 $-1 #
coedge $-1 $511 $510 $467 $495 reversed $464 $-1 #
edge $-1 $497 -15.905894939886744 $516 15.905894939886744 $494 $517 forward 7 unknown #
coedge $-1 $468 $473 $511 $518 forward $390 $-1 #
vertex $-1 $518 $519 #
straight-curve $-1 0 -32.119387887497624 15.905894939886744 1 0 0 I I #
edge $-1 $480 -62.246772667622913 $516 62.246772667622913 $470 $520 forward 7 unknown #
coedge $-1 $512 $471 $493 $515 reversed $489 $-1 #
coedge $-1 $471 $512 $473 $504 reversed $489 $-1 #
vertex $-1 $479 $521 #
straight-curve $-1 62.246772667622913 32.119387887497624 0 0 0 -1 I I #
edge $-1 $474 -62.246772667622913 $522 62.246772667622913 $501 $523 forward 7 unknown #
point $-1 62.246772667622913 32.119387887497624 15.905894939886744 #
straight-curve $-1 62.246772667622913 0 -15.905894939886744 0 -1 0 I I #
point $-1 62.246772667622913 -32.119387887497624 -15.905894939886744 #
straight-curve $-1 -62.246772667622913 0 -15.905894939886744 0 1 0 I I #
point $-1 -62.246772667622913 32.119387887497624 -15.905894939886744 #
coedge $-1 $494 $491 $514 $524 reversed $464 $-1 #
coedge $-1 $491 $494 $496 $518 reversed $464 $-1 #
coedge $-1 $501 $500 $491 $513 reversed $489 $-1 #
edge $-1 $522 -15.905894939886744 $525 15.905894939886744 $512 $526 forward 7 unknown #
coedge $-1 $493 $492 $510 $524 forward $430 $-1 #
edge $-1 $525 -62.246772667622913 $502 62.246772667622913 $500 $527 forward 7 unknown #
vertex $-1 $524 $528 #
straight-curve $-1 -62.246772667622913 -32.119387887497624 0 0 0 -1 I I #
edge $-1 $522 -32.119387887497624 $497 32.119387887497624 $511 $529 forward 7 unknown #
point $-1 -62.246772667622913 -32.119387887497624 15.905894939886744 #
straight-curve $-1 0 -32.119387887497624 -15.905894939886744 -1 0 0 I I #
point $-1 62.246772667622913 32.119387887497624 -15.905894939886744 #
vertex $-1 $504 $530 #
straight-curve $-1 0 32.119387887497624 15.905894939886744 -1 0 0 I I #
edge $-1 $516 -32.119387887497624 $525 32.119387887497624 $510 $531 forward 7 unknown #
vertex $-1 $515 $532 #
straight-curve $-1 -62.246772667622913 32.119387887497624 0 0 0 -1 I I #
straight-curve $-1 0 32.119387887497624 -15.905894939886744 1 0 0 I I #
point $-1 -62.246772667622913 -32.119387887497624 -15.905894939886744 #
straight-curve $-1 -62.246772667622913 0 15.905894939886744 0 -1 0 I I #
point $-1 -62.246772667622913 32.119387887497624 15.905894939886744 #
straight-curve $-1 -62.246772667622913 0 -15.905894939886744 0 1 0 I I #
point $-1 -62.246772667622913 32.119387887497624 -15.905894939886744 #
End-of-ACIS-data 