500 0 4 0           
7 Unknown 11 ACIS 5.0 NT 24 Fri Mar 26 20:38:58 1999 
-1 9.9999999999999995e-007 1e-010 
body $-1 $4 $-1 $5 #
body $-1 $6 $-1 $7 #
body $-1 $8 $-1 $9 #
body $-1 $10 $-1 $11 #
lump $-1 $-1 $12 $0 #
transform $-1 1 0 0 0 1 0 0 0 1 49.513229773857844 26.296848509430014 6.7778568097900687 1 rotate no_reflect no_shear #
lump $-1 $-1 $13 $1 #
transform $-1 1 0 0 0 1 0 0 0 1 49.513229773857844 26.296848509430014 6.7778568097900687 1 rotate no_reflect no_shear #
lump $-1 $-1 $14 $2 #
transform $-1 1 0 0 0 1 0 0 0 1 49.513229773857844 26.296848509430014 6.7778568097900687 1 rotate no_reflect no_shear #
lump $-1 $-1 $15 $3 #
transform $-1 1 0 0 0 1 0 0 0 1 49.513229773857844 26.296848509430014 6.7778568097900687 1 rotate no_reflect no_shear #
shell $-1 $-1 $-1 $16 $-1 $4 #
shell $-1 $-1 $-1 $17 $-1 $6 #
shell $-1 $-1 $-1 $18 $-1 $8 #
shell $-1 $-1 $-1 $19 $-1 $10 #
face $-1 $20 $21 $12 $-1 $22 forward single #
face $-1 $23 $24 $13 $-1 $25 forward single #
face $-1 $26 $27 $14 $-1 $28 reversed single #
face $-1 $29 $30 $15 $-1 $31 forward single #
face $-1 $32 $33 $12 $-1 $34 reversed single #
loop $-1 $-1 $35 $16 #
plane-surface $-1 0 0 6.7778568097900687 0 0 1 1 0 0 forward_v I I I I #
face $-1 $36 $37 $13 $-1 $38 reversed single #
loop $-1 $-1 $39 $17 #
plane-surface $-1 -46.751340518030268 0 -0.81638107796230952 0 0 1 1 0 0 forward_v I I I I #
face $-1 $40 $41 $14 $-1 $42 reversed single #
loop $-1 $-1 $43 $18 #
plane-surface $-1 -34.018399482146322 49.660721524465352 111.90334358501232 1 0 0 0 -0.64278761758704617 -0.76604443648966558 forward_v I I I I #
face $-1 $44 $45 $15 $-1 $46 forward single #
loop $-1 $47 $48 $19 #
cone-surface $-1 -21.385535805865555 23.167740933002804 4.0027088184876547 0 -0.64278761758704617 -0.76604443648966558 1 0 0 1 I I 0 1 1 forward I I I I #
face $-1 $49 $50 $12 $-1 $51 reversed single #
loop $-1 $-1 $52 $20 #
plane-surface $-1 0 0 -6.7778568097900687 0 0 1 1 0 0 forward_v I I I I #
coedge $-1 $53 $54 $55 $56 forward $21 $-1 #
face $-1 $57 $58 $13 $-1 $59 reversed single #
loop $-1 $-1 $60 $23 #
plane-surface $-1 -46.751340518030268 0 -3.8163810779623093 0 0 1 1 0 0 forward_v I I I I #
coedge $-1 $61 $62 $63 $64 forward $24 $-1 #
face $-1 $65 $66 $14 $-1 $67 reversed single #
loop $-1 $-1 $68 $26 #
plane-surface $-1 -21.385535805865555 -13.992260486290817 36.044675183215787 0 0.64278761758704617 0.76604443648966558 1 0 0 forward_v I I I I #
coedge $-1 $69 $70 $71 $72 reversed $27 $-1 #
face $-1 $-1 $73 $15 $-1 $74 forward single #
loop $-1 $75 $76 $29 #
cone-surface $-1 -21.385535805865555 22.422376440744209 3.1144180256515286 0 -0.64278761758704617 -0.76604443648966558 0.5 0 0 1 I I -0.70710678118654746 0.70710678118654746 0.5 forward I I I I #
loop $-1 $-1 $77 $19 #
coedge $-1 $48 $48 $78 $79 reversed $30 $-1 #
face $-1 $80 $81 $12 $-1 $82 reversed single #
loop $-1 $-1 $83 $32 #
plane-surface $-1 0 -26.296848509430014 0 0 1 0 0 0 1 forward_v I I I I #
coedge $-1 $84 $85 $86 $87 forward $33 $-1 #
coedge $-1 $88 $35 $89 $90 forward $21 $-1 #
coedge $-1 $35 $88 $91 $92 forward $21 $-1 #
coedge $-1 $93 $94 $35 $56 reversed $95 $-1 #
edge $-1 $96 -26.296848509430014 $97 26.296848509430014 $55 $98 forward 7 unknown #
face $-1 $99 $100 $13 $-1 $101 reversed single #
loop $-1 $-1 $102 $36 #
plane-surface $-1 -43.989451262202692 0 -2.3163810779623093 -1 0 0 0 0 1 forward_v I I I I #
coedge $-1 $103 $104 $105 $106 forward $37 $-1 #
coedge $-1 $107 $39 $108 $109 reversed $24 $-1 #
coedge $-1 $39 $107 $110 $111 reversed $24 $-1 #
coedge $-1 $102 $112 $39 $64 reversed $58 $-1 #
edge $-1 $113 -26.296848509430014 $114 26.296848509430014 $63 $115 forward 7 unknown #
face $-1 $116 $117 $14 $-1 $118 forward single #
loop $-1 $-1 $119 $40 #
plane-surface $-1 -8.7526721295847878 49.660721524465352 111.90334358501232 -1 0 0 0 0.64278761758704617 0.76604443648966558 forward_v I I I I #
coedge $-1 $120 $121 $122 $123 reversed $41 $-1 #
coedge $-1 $70 $43 $124 $125 reversed $27 $-1 #
coedge $-1 $43 $69 $120 $126 reversed $27 $-1 #
coedge $-1 $122 $127 $43 $72 forward $117 $-1 #
edge $-1 $128 -1.4664877471973377 $129 3.9437860387269588 $71 $130 forward 7 unknown #
loop $-1 $-1 $78 $44 #
plane-surface $-1 -21.385535805865555 -13.992260486290817 36.044675183215787 0 0.64278761758704617 0.76604443648966558 1 0 0 forward_v I I I I #
loop $-1 $-1 $131 $29 #
coedge $-1 $76 $76 $77 $132 reversed $45 $-1 #
coedge $-1 $77 $77 $76 $132 forward $47 $-1 #
coedge $-1 $78 $78 $48 $79 forward $73 $-1 #
edge $-1 $133 -1.2748340846530415e-015 $133 6.2831853071795996 $78 $134 forward 7 unknown #
face $-1 $135 $136 $12 $-1 $137 reversed single #
loop $-1 $-1 $138 $49 #
plane-surface $-1 -49.513229773857844 0 0 1 0 0 0 0 -1 forward_v I I I I #
coedge $-1 $139 $91 $140 $141 forward $50 $-1 #
coedge $-1 $142 $52 $139 $143 forward $33 $-1 #
coedge $-1 $52 $142 $144 $145 forward $33 $-1 #
coedge $-1 $94 $93 $52 $87 reversed $95 $-1 #
edge $-1 $146 -26.296848509430014 $147 26.296848509430014 $86 $148 forward 7 unknown #
coedge $-1 $54 $53 $149 $150 forward $21 $-1 #
coedge $-1 $151 $152 $53 $90 reversed $136 $-1 #
edge $-1 $97 -49.513229773857844 $153 49.513229773857844 $89 $154 forward 7 unknown #
coedge $-1 $83 $155 $54 $92 reversed $50 $-1 #
edge $-1 $156 -49.513229773857844 $96 49.513229773857844 $91 $157 forward 7 unknown #
coedge $-1 $86 $55 $155 $158 forward $95 $-1 #
coedge $-1 $55 $86 $151 $159 reversed $95 $-1 #
loop $-1 $-1 $93 $135 #
vertex $-1 $56 $160 #
vertex $-1 $56 $161 #
straight-curve $-1 49.513229773857844 0 6.7778568097900687 0 1 0 I I #
face $-1 $162 $163 $13 $-1 $164 reversed single #
loop $-1 $-1 $165 $57 #
plane-surface $-1 0 -26.296848509430014 0 0 1 0 0 0 1 forward_v I I I I #
coedge $-1 $105 $63 $166 $167 reversed $58 $-1 #
coedge $-1 $168 $60 $165 $169 reversed $37 $-1 #
coedge $-1 $60 $168 $170 $171 reversed $37 $-1 #
coedge $-1 $112 $102 $60 $106 reversed $58 $-1 #
edge $-1 $172 -26.296848509430014 $173 26.296848509430014 $105 $174 forward 7 unknown #
coedge $-1 $62 $61 $175 $176 reversed $24 $-1 #
coedge $-1 $177 $178 $61 $109 forward $179 $-1 #
edge $-1 $180 -26.13755951484271 $114 -20.613781003187558 $108 $181 forward 7 unknown #
coedge $-1 $182 $166 $62 $111 forward $100 $-1 #
edge $-1 $113 20.613781003187558 $183 26.13755951484271 $110 $184 forward 7 unknown #
coedge $-1 $63 $105 $177 $185 reversed $58 $-1 #
vertex $-1 $111 $186 #
vertex $-1 $109 $187 #
straight-curve $-1 -43.989451262202692 0 -0.81638107796230952 0 1 0 I I #
face $-1 $-1 $188 $14 $-1 $189 reversed single #
loop $-1 $-1 $71 $65 #
plane-surface $-1 0 0 6.7778568097900687 0 0 1 1 0 0 forward_v I I I I #
coedge $-1 $190 $191 $192 $193 reversed $66 $-1 #
coedge $-1 $194 $68 $70 $126 forward $41 $-1 #
coedge $-1 $68 $194 $190 $195 forward $41 $-1 #
coedge $-1 $192 $71 $68 $123 forward $117 $-1 #
edge $-1 $129 -23.325631579213542 $196 1.9400957733479895 $122 $197 forward 7 unknown #
coedge $-1 $198 $199 $69 $125 forward $188 $-1 #
edge $-1 $200 -53.713573816138336 $128 -49.173814982716095 $124 $201 forward 7 unknown #
edge $-1 $129 45.531086120311599 $200 52.59369701886002 $70 $202 forward 7 unknown #
coedge $-1 $71 $192 $198 $203 forward $117 $-1 #
vertex $-1 $125 $204 #
vertex $-1 $72 $205 #
straight-curve $-1 -34.018399482146322 24.830360762232676 6.777856809790066 0 -1 0 I I #
coedge $-1 $131 $131 $-1 $206 reversed $75 $-1 #
edge $-1 $207 0 $207 6.2831853071796004 $76 $208 forward 7 unknown #
vertex $-1 $79 $209 #
ellipse-curve $-1 -21.385535805865555 23.591711616467872 4.5079773930789413 0 0.64278761758704617 0.76604443648966558 1 0 0 1 I I #
face $-1 $-1 $95 $12 $-1 $210 reversed single #
loop $-1 $-1 $151 $80 #
plane-surface $-1 0 26.296848509430014 0 0 -1 0 0 0 -1 forward_v I I I I #
coedge $-1 $211 $149 $152 $212 forward $81 $-1 #
coedge $-1 $155 $83 $84 $143 reversed $50 $-1 #
coedge $-1 $149 $211 $83 $141 reversed $81 $-1 #
edge $-1 $156 -6.7778568097900687 $213 6.7778568097900687 $140 $214 forward 7 unknown #
coedge $-1 $85 $84 $211 $215 forward $33 $-1 #
edge $-1 $147 -49.513229773857844 $213 49.513229773857844 $139 $216 forward 7 unknown #
coedge $-1 $152 $151 $85 $145 reversed $136 $-1 #
edge $-1 $217 -49.513229773857844 $146 49.513229773857844 $144 $218 forward 7 unknown #
vertex $-1 $87 $219 #
vertex $-1 $158 $220 #
straight-curve $-1 49.513229773857844 0 -6.7778568097900687 0 -1 0 I I #
coedge $-1 $138 $140 $88 $150 reversed $81 $-1 #
edge $-1 $153 -26.296848509430014 $156 26.296848509430014 $149 $221 forward 7 unknown #
coedge $-1 $144 $89 $94 $159 forward $136 $-1 #
coedge $-1 $89 $144 $138 $212 reversed $136 $-1 #
vertex $-1 $90 $222 #
straight-curve $-1 0 26.296848509430014 6.7778568097900687 -1 0 0 I I #
coedge $-1 $91 $139 $93 $158 reversed $50 $-1 #
vertex $-1 $150 $223 #
straight-curve $-1 0 -26.296848509430014 6.7778568097900687 1 0 0 I I #
edge $-1 $96 -6.7778568097900687 $147 6.7778568097900687 $93 $224 forward 7 unknown #
edge $-1 $97 -6.7778568097900687 $146 6.7778568097900687 $94 $225 forward 7 unknown #
point $-1 49.513229773857844 -26.296848509430014 6.7778568097900687 #
point $-1 49.513229773857844 26.296848509430014 6.7778568097900687 #
face $-1 $-1 $179 $13 $-1 $226 reversed single #
loop $-1 $-1 $227 $99 #
plane-surface $-1 -49.513229773857844 0 0 1 0 0 0 0 -1 forward_v I I I I #
coedge $-1 $166 $182 $103 $169 forward $100 $-1 #
coedge $-1 $110 $165 $102 $167 forward $100 $-1 #
edge $-1 $173 -2.6581905389811546 $113 0.34180946101884513 $166 $228 forward 7 unknown #
coedge $-1 $104 $103 $227 $229 reversed $37 $-1 #
edge $-1 $230 -26.13755951484271 $173 -20.613781003187558 $165 $231 forward 7 unknown #
coedge $-1 $178 $177 $104 $171 forward $179 $-1 #
edge $-1 $172 20.613781003187558 $232 26.13755951484271 $170 $233 forward 7 unknown #
vertex $-1 $171 $234 #
vertex $-1 $169 $235 #
straight-curve $-1 -43.989451262202692 0 -3.8163810779623093 0 -1 0 I I #
coedge $-1 $236 $237 $107 $176 forward $163 $-1 #
edge $-1 $183 -26.296848509430014 $180 26.296848509430014 $175 $238 forward 7 unknown #
coedge $-1 $170 $108 $112 $185 forward $179 $-1 #
coedge $-1 $108 $170 $236 $239 reversed $179 $-1 #
loop $-1 $-1 $170 $162 #
vertex $-1 $239 $240 #
straight-curve $-1 -23.375670259015134 26.296848509430014 -0.81638107796230952 1 0 0 I I #
coedge $-1 $165 $110 $237 $241 forward $100 $-1 #
vertex $-1 $241 $242 #
straight-curve $-1 -23.375670259015134 -26.296848509430014 -0.81638107796230952 -1 0 0 I I #
edge $-1 $114 -0.34180946101884513 $172 2.6581905389811546 $177 $243 forward 7 unknown #
point $-1 -43.989451262202692 -26.296848509430014 -0.81638107796230952 #
point $-1 -43.989451262202692 26.296848509430014 -0.81638107796230952 #
loop $-1 $-1 $124 $116 #
plane-surface $-1 0 26.296848509430014 0 0 -1 0 0 0 -1 forward_v I I I I #
coedge $-1 $191 $119 $121 $195 reversed $66 $-1 #
coedge $-1 $119 $190 $244 $245 reversed $66 $-1 #
coedge $-1 $127 $122 $119 $193 forward $117 $-1 #
edge $-1 $196 -3.9437860387269588 $246 1.4664877471973377 $192 $247 forward 7 unknown #
coedge $-1 $121 $120 $199 $248 reversed $41 $-1 #
edge $-1 $249 -52.59369701886002 $196 -45.531086120311599 $190 $250 forward 7 unknown #
vertex $-1 $123 $251 #
straight-curve $-1 -10.692767902932777 20.886574723505714 6.7778568097900731 1 0 0 I I #
coedge $-1 $244 $124 $127 $203 reversed $188 $-1 #
coedge $-1 $124 $244 $194 $248 forward $188 $-1 #
vertex $-1 $125 $252 #
straight-curve $-1 -34.018399482146322 26.296848509430014 55.951671792506161 0 0 1 I I #
straight-curve $-1 -34.018399482146322 -13.992260486290817 36.044675183215787 0 0.76604443648966558 -0.64278761758704617 I I #
edge $-1 $246 8.7526721295847878 $128 34.018399482146322 $198 $253 forward 7 unknown #
point $-1 -34.018399482146322 26.296848509430014 6.7778568097900687 #
point $-1 -34.018399482146322 20.886574723505717 6.7778568097900695 #
edge $-1 $254 1 $254 0 $131 $-1 forward 7 unknown #
vertex $-1 $132 $255 #
ellipse-curve $-1 -21.385535805865555 22.743770249537732 3.4974402438963614 0 0.64278761758704617 0.76604443648966558 1 0 0 1 I I #
point $-1 -20.385535805865555 23.591711616467876 4.5079773930789475 #
plane-surface $-1 49.513229773857844 0 0 -1 0 0 0 0 1 forward_v I I I I #
coedge $-1 $140 $138 $142 $215 reversed $81 $-1 #
edge $-1 $153 -6.7778568097900687 $217 6.7778568097900687 $152 $256 forward 7 unknown #
vertex $-1 $215 $257 #
straight-curve $-1 -49.513229773857844 -26.296848509430014 0 0 0 -1 I I #
edge $-1 $213 -26.296848509430014 $217 26.296848509430014 $211 $258 forward 7 unknown #
straight-curve $-1 0 -26.296848509430014 -6.7778568097900687 -1 0 0 I I #
vertex $-1 $145 $259 #
straight-curve $-1 0 26.296848509430014 -6.7778568097900687 1 0 0 I I #
point $-1 49.513229773857844 26.296848509430014 -6.7778568097900687 #
point $-1 49.513229773857844 -26.296848509430014 -6.7778568097900687 #
straight-curve $-1 -49.513229773857844 0 6.7778568097900687 0 -1 0 I I #
point $-1 -49.513229773857844 26.296848509430014 6.7778568097900687 #
point $-1 -49.513229773857844 -26.296848509430014 6.7778568097900687 #
straight-curve $-1 49.513229773857844 -26.296848509430014 0 0 0 -1 I I #
straight-curve $-1 49.513229773857844 26.296848509430014 0 0 0 -1 I I #
plane-surface $-1 0 26.296848509430014 0 0 -1 0 0 0 -1 forward_v I I I I #
coedge $-1 $237 $236 $168 $229 forward $163 $-1 #
straight-curve $-1 -43.989451262202692 -26.296848509430014 -1.1581905389811546 0 0 1 I I #
edge $-1 $232 -26.296848509430014 $230 26.296848509430014 $227 $260 forward 7 unknown #
vertex $-1 $169 $261 #
straight-curve $-1 -23.375670259015134 -26.296848509430014 -3.8163810779623093 1 0 0 I I #
vertex $-1 $171 $262 #
straight-curve $-1 -23.375670259015134 26.296848509430014 -3.8163810779623093 -1 0 0 I I #
point $-1 -43.989451262202692 26.296848509430014 -3.8163810779623093 #
point $-1 -43.989451262202692 -26.296848509430014 -3.8163810779623093 #
coedge $-1 $227 $175 $178 $239 forward $163 $-1 #
coedge $-1 $175 $227 $182 $241 reversed $163 $-1 #
straight-curve $-1 -49.513229773857844 0 -0.81638107796230952 0 1 0 I I #
edge $-1 $180 0.81638107796230952 $232 3.8163810779623093 $178 $263 forward 7 unknown #
point $-1 -49.513229773857844 26.296848509430014 -0.81638107796230952 #
edge $-1 $183 0.81638107796230952 $230 3.8163810779623093 $237 $264 forward 7 unknown #
point $-1 -49.513229773857844 -26.296848509430014 -0.81638107796230952 #
straight-curve $-1 -43.989451262202692 26.296848509430014 -1.1581905389811546 0 0 -1 I I #
coedge $-1 $199 $198 $191 $245 forward $188 $-1 #
edge $-1 $246 49.173814982716095 $249 53.713573816138336 $244 $265 forward 7 unknown #
vertex $-1 $203 $266 #
straight-curve $-1 -8.7526721295847878 24.830360762232676 6.777856809790066 0 1 0 I I #
edge $-1 $249 -1.9400957733479895 $200 23.325631579213542 $199 $267 forward 7 unknown #
vertex $-1 $248 $268 #
straight-curve $-1 -8.7526721295847878 -13.992260486290817 36.044675183215787 0 -0.76604443648966558 0.64278761758704617 I I #
point $-1 -8.7526721295847878 20.886574723505717 6.7778568097900695 #
point $-1 -34.018399482146322 26.296848509430014 2.2380979763678255 #
straight-curve $-1 0 26.296848509430014 6.7778568097900687 -1 0 0 I I #
vertex $-1 $206 $269 #
point $-1 -20.385535805865555 22.743770249537732 3.4974402438963614 #
straight-curve $-1 -49.513229773857844 26.296848509430014 0 0 0 -1 I I #
point $-1 -49.513229773857844 -26.296848509430014 -6.7778568097900687 #
straight-curve $-1 -49.513229773857844 0 -6.7778568097900687 0 1 0 I I #
point $-1 -49.513229773857844 26.296848509430014 -6.7778568097900687 #
straight-curve $-1 -49.513229773857844 0 -3.8163810779623093 0 -1 0 I I #
point $-1 -49.513229773857844 -26.296848509430014 -3.8163810779623093 #
point $-1 -49.513229773857844 26.296848509430014 -3.8163810779623093 #
straight-curve $-1 -49.513229773857844 26.296848509430014 0 0 0 -1 I I #
straight-curve $-1 -49.513229773857844 -26.296848509430014 0 0 0 -1 I I #
straight-curve $-1 -8.7526721295847878 26.296848509430014 55.951671792506161 0 0 -1 I I #
point $-1 -8.7526721295847878 26.296848509430014 6.7778568097900687 #
straight-curve $-1 -10.692767902932777 26.29684850943001 2.2380979763678219 -1 0 0 I I #
point $-1 -8.7526721295847878 26.296848509430014 2.2380979763678255 #
point $-1 -21.385535805865555 22.100982631950686 2.7313958074066957 #
End-of-ACIS-data 