500 0 8 0           
7 Unknown 11 ACIS 5.0 NT 24 Fri Mar 26 19:30:07 1999 
-1 9.9999999999999995e-007 1e-010 
body $-1 $8 $-1 $9 #
body $-1 $10 $-1 $11 #
body $-1 $12 $-1 $13 #
body $-1 $14 $-1 $15 #
body $-1 $16 $-1 $17 #
body $-1 $18 $-1 $19 #
body $-1 $20 $-1 $21 #
body $-1 $22 $-1 $23 #
lump $-1 $-1 $24 $0 #
transform $-1 1 0 0 0 1 0 0 0 1 45.243079927976318 27.517546223841403 10.938071361481587 1 rotate no_reflect no_shear #
lump $-1 $-1 $25 $1 #
transform $-1 1 0 0 0 1 0 0 0 1 45.243079927976318 27.517546223841403 10.938071361481587 1 rotate no_reflect no_shear #
lump $-1 $-1 $26 $2 #
transform $-1 1 0 0 0 1 0 0 0 1 45.243079927976318 27.517546223841403 10.938071361481587 1 rotate no_reflect no_shear #
lump $-1 $-1 $27 $3 #
transform $-1 1 0 0 0 1 0 0 0 1 45.243079927976318 27.517546223841403 10.938071361481587 1 rotate no_reflect no_shear #
lump $-1 $-1 $28 $4 #
transform $-1 1 0 0 0 1 0 0 0 1 45.243079927976318 27.517546223841403 10.938071361481587 1 rotate no_reflect no_shear #
lump $-1 $-1 $29 $5 #
transform $-1 1 0 0 0 1 0 0 0 1 45.243079927976318 27.517546223841403 10.938071361481587 1 rotate no_reflect no_shear #
lump $-1 $-1 $30 $6 #
transform $-1 1 0 0 0 1 0 0 0 1 45.243079927976318 27.517546223841403 10.938071361481587 1 rotate no_reflect no_shear #
lump $-1 $-1 $31 $7 #
transform $-1 1 0 0 0 1 0 0 0 1 45.243079927976318 27.517546223841403 10.938071361481587 1 rotate no_reflect no_shear #
shell $-1 $-1 $-1 $32 $-1 $8 #
shell $-1 $-1 $-1 $33 $-1 $10 #
shell $-1 $-1 $-1 $34 $-1 $12 #
shell $-1 $-1 $-1 $35 $-1 $14 #
shell $-1 $-1 $-1 $36 $-1 $16 #
shell $-1 $-1 $-1 $37 $-1 $18 #
shell $-1 $-1 $-1 $38 $-1 $20 #
shell $-1 $-1 $-1 $39 $-1 $22 #
face $-1 $40 $41 $24 $-1 $42 forward single #
face $-1 $43 $44 $25 $-1 $45 forward single #
face $-1 $46 $47 $26 $-1 $48 reversed single #
face $-1 $49 $50 $27 $-1 $51 forward single #
face $-1 $52 $53 $28 $-1 $54 reversed single #
face $-1 $55 $56 $29 $-1 $57 forward single #
face $-1 $58 $59 $30 $-1 $60 reversed single #
face $-1 $61 $62 $31 $-1 $63 forward single #
face $-1 $64 $65 $24 $-1 $66 reversed single #
loop $-1 $-1 $67 $32 #
plane-surface $-1 0 0 10.938071361481587 0 0 1 1 0 0 forward_v I I I I #
face $-1 $68 $69 $25 $-1 $70 reversed single #
loop $-1 $-1 $71 $33 #
plane-surface $-1 0 -27.517546223841403 0 0 1 0 0 0 1 forward_v I I I I #
face $-1 $72 $73 $26 $-1 $74 reversed single #
loop $-1 $-1 $75 $34 #
plane-surface $-1 -106.95449329179004 16.172015672309684 67.582726545059614 0 1 0 -0.68199836817093118 0 0.7313536940579346 forward_v I I I I #
face $-1 $76 $77 $27 $-1 $78 forward single #
loop $-1 $79 $80 $35 #
cone-surface $-1 -38.648415654087067 21.844780948075542 4.5809937349466221 0.68199836817093118 0 -0.7313536940579346 1.4627073881158692 0 1.3639967363418624 1 I I 0 1 2 forward I I I I #
face $-1 $81 $82 $28 $-1 $83 reversed single #
loop $-1 $-1 $84 $36 #
plane-surface $-1 60.838305976486716 -9.9085605095392992 130.1203542099606 0 -1 0 -0.78801076186113728 0 -0.61566146476048833 forward_v I I I I #
face $-1 $85 $86 $29 $-1 $87 forward single #
loop $-1 $88 $89 $37 #
cone-surface $-1 40.630337740388313 -14.643467923977234 5.8088243989903683 -0.78801076186113728 0 -0.61566146476048833 0.61566146476048833 0 -0.78801076186113728 1 I I 0 1 1 forward I I I I #
face $-1 $90 $91 $30 $-1 $92 reversed single #
loop $-1 $-1 $93 $38 #
plane-surface $-1 60.838305976486716 13.539400271588985 130.1203542099606 0 -1 0 -0.78801076186113728 0 -0.61566146476048833 forward_v I I I I #
face $-1 $94 $95 $31 $-1 $96 forward single #
loop $-1 $97 $98 $39 #
cone-surface $-1 40.630337740388313 8.8044928571510503 5.8088243989903683 -0.78801076186113728 0 -0.61566146476048833 0.61566146476048833 0 -0.78801076186113728 1 I I 0 1 1 forward I I I I #
face $-1 $99 $100 $24 $-1 $101 reversed single #
loop $-1 $-1 $102 $40 #
plane-surface $-1 0 0 -10.938071361481587 0 0 1 1 0 0 forward_v I I I I #
coedge $-1 $103 $104 $105 $106 forward $41 $-1 #
face $-1 $107 $108 $25 $-1 $109 forward single #
loop $-1 $-1 $110 $43 #
plane-surface $-1 -45.243079927976318 0 0 1 0 0 0 0 -1 forward_v I I I I #
coedge $-1 $111 $112 $113 $114 forward $44 $-1 #
face $-1 $115 $116 $26 $-1 $117 forward single #
loop $-1 $-1 $118 $46 #
plane-surface $-1 -45.243079927976325 21.844780948075542 1.4053392732918724 -0.68199836817093118 0 0.7313536940579346 0.7313536940579346 0 0.68199836817093118 forward_v I I I I #
coedge $-1 $119 $120 $121 $122 reversed $47 $-1 #
face $-1 $-1 $123 $27 $-1 $124 forward single #
loop $-1 $125 $126 $49 #
cone-surface $-1 -36.48305470462477 21.844780948075542 2.2589284584485814 0.68199836817093118 0 -0.7313536940579346 0.7313536940579346 0 0.68199836817093118 1 I I -0.70710678118654746 0.70710678118654746 1 forward I I I I #
loop $-1 $-1 $127 $35 #
coedge $-1 $80 $80 $128 $129 reversed $50 $-1 #
face $-1 $130 $131 $28 $-1 $132 reversed single #
loop $-1 $-1 $133 $52 #
plane-surface $-1 -10.465761789491175 -14.643467923977234 74.411512492493102 0.78801076186113728 0 0.61566146476048833 0.61566146476048833 0 -0.78801076186113728 forward_v I I I I #
coedge $-1 $134 $135 $136 $137 reversed $53 $-1 #
face $-1 $-1 $138 $29 $-1 $139 forward single #
loop $-1 $140 $141 $55 #
cone-surface $-1 38.68256810555274 -14.643467923977234 4.2870600216020982 -0.78801076186113728 0 -0.61566146476048833 0.30783073238024417 0 -0.39400538093056864 1 I I -0.70710678118654746 0.70710678118654746 0.5 forward I I I I #
loop $-1 $-1 $142 $37 #
coedge $-1 $89 $89 $143 $144 reversed $56 $-1 #
face $-1 $145 $146 $30 $-1 $147 reversed single #
loop $-1 $-1 $148 $58 #
plane-surface $-1 -10.465761789491175 8.8044928571510503 74.411512492493102 0.78801076186113728 0 0.61566146476048833 0.61566146476048833 0 -0.78801076186113728 forward_v I I I I #
coedge $-1 $149 $150 $151 $152 reversed $59 $-1 #
face $-1 $-1 $153 $31 $-1 $154 forward single #
loop $-1 $155 $156 $61 #
cone-surface $-1 38.68256810555274 8.8044928571510503 4.2870600216020982 -0.78801076186113728 0 -0.61566146476048833 0.30783073238024417 0 -0.39400538093056864 1 I I -0.70710678118654746 0.70710678118654746 0.5 forward I I I I #
loop $-1 $-1 $157 $39 #
coedge $-1 $98 $98 $158 $159 reversed $62 $-1 #
face $-1 $160 $161 $24 $-1 $162 reversed single #
loop $-1 $-1 $163 $64 #
plane-surface $-1 0 -27.517546223841403 0 0 1 0 0 0 1 forward_v I I I I #
coedge $-1 $164 $165 $166 $167 forward $65 $-1 #
coedge $-1 $168 $67 $169 $170 forward $41 $-1 #
coedge $-1 $67 $168 $171 $172 forward $41 $-1 #
coedge $-1 $173 $174 $67 $106 reversed $175 $-1 #
edge $-1 $176 -27.517546223841403 $177 27.517546223841403 $105 $178 forward 7 unknown #
face $-1 $179 $180 $25 $-1 $181 reversed single #
loop $-1 $-1 $182 $68 #
plane-surface $-1 0 -31.587131666554519 -0.014204570064659805 0 0 1 1 0 0 forward_v I I I I #
coedge $-1 $183 $184 $112 $185 forward $69 $-1 #
coedge $-1 $186 $71 $187 $188 reversed $44 $-1 #
coedge $-1 $71 $186 $110 $185 reversed $44 $-1 #
coedge $-1 $189 $182 $71 $114 reversed $108 $-1 #
edge $-1 $190 -45.243079927976318 $191 45.243079927976318 $113 $192 forward 7 unknown #
face $-1 $193 $194 $26 $-1 $195 reversed single #
loop $-1 $-1 $121 $72 #
plane-surface $-1 0 0 10.938071361481587 0 0 1 1 0 0 forward_v I I I I #
coedge $-1 $196 $197 $198 $199 reversed $73 $-1 #
coedge $-1 $120 $75 $200 $201 reversed $47 $-1 #
coedge $-1 $75 $119 $196 $202 reversed $47 $-1 #
coedge $-1 $198 $203 $75 $122 forward $116 $-1 #
edge $-1 $204 8.2341667179187041 $205 18.456770103114472 $121 $206 forward 7 unknown #
loop $-1 $-1 $128 $76 #
plane-surface $-1 -45.243079927976325 21.844780948075542 1.4053392732918724 -0.68199836817093118 0 0.7313536940579346 0.7313536940579346 0 0.68199836817093118 forward_v I I I I #
loop $-1 $-1 $207 $49 #
coedge $-1 $126 $126 $127 $208 reversed $77 $-1 #
coedge $-1 $127 $127 $126 $208 forward $79 $-1 #
coedge $-1 $128 $128 $80 $129 forward $123 $-1 #
edge $-1 $209 0 $209 6.2831853071796004 $128 $210 forward 7 unknown #
face $-1 $211 $212 $28 $-1 $213 reversed single #
loop $-1 $-1 $214 $81 #
plane-surface $-1 60.838305976486716 -19.378375338415168 130.1203542099606 0 1 0 0.78801076186113728 0 0.61566146476048833 forward_v I I I I #
coedge $-1 $215 $216 $217 $218 reversed $82 $-1 #
coedge $-1 $135 $84 $219 $220 reversed $53 $-1 #
coedge $-1 $84 $134 $215 $221 reversed $53 $-1 #
coedge $-1 $217 $222 $84 $137 forward $223 $-1 #
edge $-1 $224 -14.82392693973296 $225 -8.7059710723669603 $136 $226 forward 7 unknown #
loop $-1 $-1 $143 $85 #
plane-surface $-1 -10.465761789491175 -14.643467923977234 74.411512492493102 0.78801076186113728 0 0.61566146476048833 0.61566146476048833 0 -0.78801076186113728 forward_v I I I I #
loop $-1 $-1 $227 $55 #
coedge $-1 $141 $141 $142 $228 reversed $86 $-1 #
coedge $-1 $142 $142 $141 $228 forward $88 $-1 #
coedge $-1 $143 $143 $89 $144 forward $138 $-1 #
edge $-1 $229 0 $229 6.2831853071796004 $143 $230 forward 7 unknown #
face $-1 $231 $232 $30 $-1 $233 reversed single #
loop $-1 $-1 $234 $90 #
plane-surface $-1 60.838305976486716 4.069585442713116 130.1203542099606 0 1 0 0.78801076186113728 0 0.61566146476048833 forward_v I I I I #
coedge $-1 $235 $236 $237 $238 reversed $91 $-1 #
coedge $-1 $150 $93 $239 $240 reversed $59 $-1 #
coedge $-1 $93 $149 $235 $241 reversed $59 $-1 #
coedge $-1 $237 $242 $93 $152 forward $243 $-1 #
edge $-1 $244 -14.82392693973296 $245 -8.7059710723669603 $151 $246 forward 7 unknown #
loop $-1 $-1 $158 $94 #
plane-surface $-1 -10.465761789491175 8.8044928571510503 74.411512492493102 0.78801076186113728 0 0.61566146476048833 0.61566146476048833 0 -0.78801076186113728 forward_v I I I I #
loop $-1 $-1 $247 $61 #
coedge $-1 $156 $156 $157 $248 reversed $95 $-1 #
coedge $-1 $157 $157 $156 $248 forward $97 $-1 #
coedge $-1 $158 $158 $98 $159 forward $153 $-1 #
edge $-1 $249 0 $249 6.2831853071796004 $158 $250 forward 7 unknown #
face $-1 $251 $252 $24 $-1 $253 reversed single #
loop $-1 $-1 $254 $99 #
plane-surface $-1 -45.243079927976318 0 0 1 0 0 0 0 -1 forward_v I I I I #
coedge $-1 $255 $171 $256 $257 forward $100 $-1 #
coedge $-1 $258 $102 $255 $259 forward $65 $-1 #
coedge $-1 $102 $258 $260 $261 forward $65 $-1 #
coedge $-1 $174 $173 $102 $167 reversed $175 $-1 #
edge $-1 $262 -27.517546223841403 $263 27.517546223841403 $166 $264 forward 7 unknown #
coedge $-1 $104 $103 $265 $266 forward $41 $-1 #
coedge $-1 $267 $268 $103 $170 reversed $252 $-1 #
edge $-1 $177 -45.243079927976318 $269 45.243079927976318 $169 $270 forward 7 unknown #
coedge $-1 $163 $271 $104 $172 reversed $100 $-1 #
edge $-1 $272 -45.243079927976318 $176 45.243079927976318 $171 $273 forward 7 unknown #
coedge $-1 $166 $105 $271 $274 forward $175 $-1 #
coedge $-1 $105 $166 $267 $275 reversed $175 $-1 #
loop $-1 $-1 $173 $251 #
vertex $-1 $106 $276 #
vertex $-1 $106 $277 #
straight-curve $-1 45.243079927976318 0 10.938071361481587 0 1 0 I I #
face $-1 $278 $279 $25 $-1 $280 reversed single #
loop $-1 $-1 $281 $107 #
plane-surface $-1 0 -31.587131666554519 -3.0142045700646598 0 0 1 1 0 0 forward_v I I I I #
coedge $-1 $113 $282 $283 $284 forward $108 $-1 #
coedge $-1 $285 $110 $286 $287 reversed $69 $-1 #
coedge $-1 $110 $285 $189 $288 reversed $69 $-1 #
edge $-1 $190 0.014204570064659805 $289 3.0142045700646598 $110 $290 forward 7 unknown #
coedge $-1 $112 $111 $291 $292 forward $44 $-1 #
coedge $-1 $283 $293 $111 $188 forward $294 $-1 #
edge $-1 $295 -3.0142045700646598 $191 -0.014204570064659805 $187 $296 forward 7 unknown #
coedge $-1 $282 $113 $184 $288 forward $108 $-1 #
vertex $-1 $185 $297 #
vertex $-1 $284 $298 #
straight-curve $-1 0 -27.517546223841403 -0.014204570064659805 1 0 0 I I #
face $-1 $-1 $299 $26 $-1 $300 reversed single #
loop $-1 $-1 $301 $115 #
plane-surface $-1 0 27.517546223841403 0 0 -1 0 0 0 -1 forward_v I I I I #
coedge $-1 $302 $118 $120 $202 forward $73 $-1 #
coedge $-1 $118 $302 $301 $303 reversed $73 $-1 #
coedge $-1 $304 $121 $118 $199 forward $116 $-1 #
edge $-1 $205 5.2496251982719127 $305 16.595155749803631 $198 $306 forward 7 unknown #
coedge $-1 $307 $308 $119 $201 forward $299 $-1 #
edge $-1 $309 -32.386023999237928 $204 -22.85329191104822 $200 $310 forward 7 unknown #
edge $-1 $205 -13.977646477008136 $309 -9.739602292442716e-015 $120 $311 forward 7 unknown #
coedge $-1 $121 $304 $307 $312 forward $116 $-1 #
vertex $-1 $201 $313 #
vertex $-1 $122 $314 #
straight-curve $-1 -53.477246645895022 16.172015672309684 10.938071361481587 1 0 0 I I #
coedge $-1 $207 $207 $-1 $315 reversed $125 $-1 #
edge $-1 $316 0 $316 6.2831853071796004 $126 $317 forward 7 unknown #
vertex $-1 $129 $318 #
ellipse-curve $-1 -40.131778235378434 21.844780948075542 6.1717053173867313 -0.68199836817093118 0 0.7313536940579346 1.4627073881158692 0 1.3639967363418624 1 I I #
face $-1 $-1 $223 $28 $-1 $319 forward single #
loop $-1 $-1 $320 $130 #
plane-surface $-1 45.243079927976318 0 0 -1 0 0 0 0 1 forward_v I I I I #
coedge $-1 $321 $322 $323 $324 reversed $131 $-1 #
coedge $-1 $325 $133 $135 $221 forward $82 $-1 #
coedge $-1 $133 $325 $321 $326 forward $82 $-1 #
coedge $-1 $323 $136 $133 $218 forward $223 $-1 #
edge $-1 $225 2.5868265475506824 $327 12.056641376426551 $217 $328 forward 7 unknown #
coedge $-1 $329 $330 $134 $220 forward $212 $-1 #
edge $-1 $331 -61.952732378465072 $224 -54.122105743498707 $219 $332 forward 7 unknown #
edge $-1 $225 80.548952124840085 $331 90.486159855952621 $135 $333 forward 7 unknown #
coedge $-1 $136 $323 $329 $334 forward $223 $-1 #
loop $-1 $-1 $323 $211 #
vertex $-1 $220 $335 #
vertex $-1 $137 $336 #
straight-curve $-1 30.419152988243358 -9.9085605095392992 10.93807136148159 -1 0 0 I I #
coedge $-1 $227 $227 $-1 $337 reversed $140 $-1 #
edge $-1 $338 0 $338 6.2831853071796004 $141 $339 forward 7 unknown #
vertex $-1 $144 $340 #
ellipse-curve $-1 42.184101994293322 -14.643467923977234 7.0227580439984001 0.78801076186113728 0 0.61566146476048833 0.61566146476048833 0 -0.78801076186113728 1 I I #
face $-1 $-1 $243 $30 $-1 $341 forward single #
loop $-1 $-1 $342 $145 #
plane-surface $-1 45.243079927976318 0 0 -1 0 0 0 0 1 forward_v I I I I #
coedge $-1 $343 $344 $345 $346 reversed $146 $-1 #
coedge $-1 $347 $148 $150 $241 forward $91 $-1 #
coedge $-1 $148 $347 $343 $348 forward $91 $-1 #
coedge $-1 $345 $151 $148 $238 forward $243 $-1 #
edge $-1 $245 -9.1371538430134596 $349 0.33266098586240922 $237 $350 forward 7 unknown #
coedge $-1 $351 $352 $149 $240 forward $232 $-1 #
edge $-1 $353 -61.952732378465072 $244 -54.122105743498707 $239 $354 forward 7 unknown #
edge $-1 $245 80.548952124840085 $353 90.486159855952621 $150 $355 forward 7 unknown #
coedge $-1 $151 $345 $351 $356 forward $243 $-1 #
loop $-1 $-1 $345 $231 #
vertex $-1 $240 $357 #
vertex $-1 $152 $358 #
straight-curve $-1 30.419152988243358 13.539400271588985 10.93807136148159 -1 0 0 I I #
coedge $-1 $247 $247 $-1 $359 reversed $155 $-1 #
edge $-1 $360 0 $360 6.2831853071796004 $156 $361 forward 7 unknown #
vertex $-1 $159 $362 #
ellipse-curve $-1 42.184101994293322 8.8044928571510503 7.0227580439984001 0.78801076186113728 0 0.61566146476048833 0.61566146476048833 0 -0.78801076186113728 1 I I #
face $-1 $-1 $175 $24 $-1 $363 reversed single #
loop $-1 $-1 $267 $160 #
plane-surface $-1 0 27.517546223841403 0 0 -1 0 0 0 -1 forward_v I I I I #
coedge $-1 $364 $265 $268 $365 forward $161 $-1 #
coedge $-1 $271 $163 $164 $259 reversed $100 $-1 #
coedge $-1 $265 $364 $163 $257 reversed $161 $-1 #
edge $-1 $272 -10.938071361481587 $366 10.938071361481587 $256 $367 forward 7 unknown #
coedge $-1 $165 $164 $364 $368 forward $65 $-1 #
edge $-1 $263 -45.243079927976318 $366 45.243079927976318 $255 $369 forward 7 unknown #
coedge $-1 $268 $267 $165 $261 reversed $252 $-1 #
edge $-1 $370 -45.243079927976318 $262 45.243079927976318 $260 $371 forward 7 unknown #
vertex $-1 $167 $372 #
vertex $-1 $274 $373 #
straight-curve $-1 45.243079927976318 0 -10.938071361481587 0 -1 0 I I #
coedge $-1 $254 $256 $168 $266 reversed $161 $-1 #
edge $-1 $269 -27.517546223841403 $272 27.517546223841403 $265 $374 forward 7 unknown #
coedge $-1 $260 $169 $174 $275 forward $252 $-1 #
coedge $-1 $169 $260 $254 $365 reversed $252 $-1 #
vertex $-1 $170 $375 #
straight-curve $-1 0 27.517546223841403 10.938071361481587 -1 0 0 I I #
coedge $-1 $171 $255 $173 $274 reversed $100 $-1 #
vertex $-1 $266 $376 #
straight-curve $-1 0 -27.517546223841403 10.938071361481587 1 0 0 I I #
edge $-1 $176 -10.938071361481587 $263 10.938071361481587 $173 $377 forward 7 unknown #
edge $-1 $177 -10.938071361481587 $262 10.938071361481587 $174 $378 forward 7 unknown #
point $-1 45.243079927976318 -27.517546223841403 10.938071361481587 #
point $-1 45.243079927976318 27.517546223841403 10.938071361481587 #
face $-1 $-1 $294 $25 $-1 $379 reversed single #
loop $-1 $-1 $380 $179 #
plane-surface $-1 0 -35.656717109267639 -1.5142045700646598 0 1 0 0 0 1 forward_v I I I I #
coedge $-1 $381 $291 $293 $382 forward $180 $-1 #
coedge $-1 $182 $189 $383 $384 forward $108 $-1 #
coedge $-1 $385 $187 $182 $284 reversed $294 $-1 #
edge $-1 $386 -4.0695854427131195 $191 4.0695854427131195 $283 $387 forward 7 unknown #
coedge $-1 $184 $183 $380 $388 reversed $69 $-1 #
coedge $-1 $291 $381 $183 $287 forward $180 $-1 #
edge $-1 $389 -4.0695854427131195 $289 4.0695854427131195 $183 $390 forward 7 unknown #
edge $-1 $190 -4.0695854427131195 $391 4.0695854427131195 $184 $392 forward 7 unknown #
vertex $-1 $185 $393 #
straight-curve $-1 -45.243079927976318 -27.517546223841403 0 0 0 -1 I I #
coedge $-1 $281 $286 $186 $292 reversed $180 $-1 #
edge $-1 $295 -45.243079927976318 $289 45.243079927976318 $291 $394 forward 7 unknown #
coedge $-1 $187 $385 $281 $382 reversed $294 $-1 #
loop $-1 $-1 $187 $278 #
vertex $-1 $188 $395 #
straight-curve $-1 45.243079927976318 -27.517546223841403 0 0 0 1 I I #
point $-1 -45.243079927976318 -27.5175462238414 -0.014204570064659805 #
point $-1 45.243079927976318 -27.5175462238414 -0.014204570064659805 #
loop $-1 $-1 $200 $193 #
plane-surface $-1 -45.243079927976318 0 0 1 0 0 0 0 -1 forward_v I I I I #
coedge $-1 $396 $397 $197 $303 forward $194 $-1 #
coedge $-1 $197 $196 $308 $398 reversed $73 $-1 #
edge $-1 $305 2.0874807953780148 $399 16.065127272386142 $301 $400 forward 7 unknown #
coedge $-1 $203 $198 $397 $401 forward $116 $-1 #
vertex $-1 $401 $402 #
straight-curve $-1 -35.02047654278055 10.922390474037771 10.938071361481587 0 1 0 I I #
coedge $-1 $403 $200 $203 $312 reversed $299 $-1 #
coedge $-1 $200 $403 $302 $398 forward $299 $-1 #
vertex $-1 $201 $404 #
straight-curve $-1 -45.243079927976318 16.172015672309684 33.791363272529807 0 0 1 I I #
straight-curve $-1 -45.243079927976325 16.172015672309684 1.4053392732918724 -0.7313536940579346 0 -0.68199836817093118 I I #
edge $-1 $405 -27.517546223841403 $204 -16.172015672309684 $307 $406 forward 7 unknown #
point $-1 -45.243079927976318 16.172015672309684 10.938071361481587 #
point $-1 -35.02047654278055 16.172015672309684 10.938071361481587 #
edge $-1 $407 1 $407 0 $207 $-1 forward 7 unknown #
vertex $-1 $208 $408 #
ellipse-curve $-1 -37.1650530727957 21.844780948075542 2.990282152506516 -0.68199836817093118 0 0.7313536940579346 1.4627073881158692 0 1.3639967363418624 1 I I #
point $-1 -38.66907084726256 21.844780948075542 7.5357020537285901 #
plane-surface $-1 0 0 10.938071361481587 0 0 1 1 0 0 forward_v I I I I #
coedge $-1 $330 $329 $322 $409 forward $212 $-1 #
coedge $-1 $322 $214 $216 $326 reversed $131 $-1 #
coedge $-1 $214 $321 $320 $409 reversed $131 $-1 #
coedge $-1 $222 $217 $214 $324 forward $223 $-1 #
edge $-1 $327 8.7059710723669603 $410 14.82392693973296 $323 $411 forward 7 unknown #
coedge $-1 $216 $215 $330 $412 reversed $82 $-1 #
edge $-1 $413 -90.486159855952621 $327 -80.548952124840085 $321 $414 forward 7 unknown #
vertex $-1 $218 $415 #
straight-curve $-1 39.125124060610325 -7.3217339619886168 10.938071361481583 0 -1 0 I I #
coedge $-1 $320 $219 $222 $334 reversed $212 $-1 #
coedge $-1 $219 $320 $325 $412 forward $212 $-1 #
vertex $-1 $220 $416 #
straight-curve $-1 45.243079927976318 -9.9085605095392992 65.060177104980298 0 0 1 I I #
straight-curve $-1 -10.465761789491175 -9.9085605095392992 74.411512492493102 0.61566146476048833 0 -0.78801076186113728 I I #
edge $-1 $410 -19.378375338415168 $224 -9.9085605095392992 $329 $417 forward 7 unknown #
point $-1 45.243079927976318 -9.9085605095392992 10.938071361481587 #
point $-1 39.125124060610318 -9.9085605095392992 10.938071361481597 #
edge $-1 $418 1 $418 0 $227 $-1 forward 7 unknown #
vertex $-1 $228 $419 #
ellipse-curve $-1 39.076573486483305 -14.643467923977234 4.5948907539823427 0.78801076186113728 0 0.61566146476048833 0.61566146476048833 0 -0.78801076186113728 1 I I #
point $-1 42.799763459053807 -14.643467923977234 6.234747282137258 #
plane-surface $-1 0 0 10.938071361481587 0 0 1 1 0 0 forward_v I I I I #
coedge $-1 $352 $351 $344 $420 forward $232 $-1 #
coedge $-1 $344 $234 $236 $348 reversed $146 $-1 #
coedge $-1 $234 $343 $342 $420 reversed $146 $-1 #
coedge $-1 $242 $237 $234 $346 forward $243 $-1 #
edge $-1 $349 8.7059710723669603 $421 14.82392693973296 $345 $422 forward 7 unknown #
coedge $-1 $236 $235 $352 $423 reversed $91 $-1 #
edge $-1 $424 -90.486159855952621 $349 -80.548952124840085 $343 $425 forward 7 unknown #
vertex $-1 $238 $426 #
straight-curve $-1 39.125124060610325 4.4022464285755252 10.938071361481583 0 -1 0 I I #
coedge $-1 $342 $239 $242 $356 reversed $232 $-1 #
coedge $-1 $239 $342 $347 $423 forward $232 $-1 #
vertex $-1 $240 $427 #
straight-curve $-1 45.243079927976318 13.539400271588985 65.060177104980298 0 0 1 I I #
straight-curve $-1 -10.465761789491175 13.539400271588985 74.411512492493102 0.61566146476048833 0 -0.78801076186113728 I I #
edge $-1 $421 4.069585442713116 $244 13.539400271588985 $351 $428 forward 7 unknown #
point $-1 45.243079927976318 13.539400271588985 10.938071361481587 #
point $-1 39.125124060610318 13.539400271588985 10.938071361481597 #
edge $-1 $429 1 $429 0 $247 $-1 forward 7 unknown #
vertex $-1 $248 $430 #
ellipse-curve $-1 39.076573486483305 8.8044928571510503 4.5948907539823427 0.78801076186113728 0 0.61566146476048833 0.61566146476048833 0 -0.78801076186113728 1 I I #
point $-1 42.799763459053807 8.8044928571510503 6.234747282137258 #
plane-surface $-1 45.243079927976318 0 0 -1 0 0 0 0 1 forward_v I I I I #
coedge $-1 $256 $254 $258 $368 reversed $161 $-1 #
edge $-1 $269 -10.938071361481587 $370 10.938071361481587 $268 $431 forward 7 unknown #
vertex $-1 $368 $432 #
straight-curve $-1 -45.243079927976318 -27.517546223841403 0 0 0 -1 I I #
edge $-1 $366 -27.517546223841403 $370 27.517546223841403 $364 $433 forward 7 unknown #
straight-curve $-1 0 -27.517546223841403 -10.938071361481587 -1 0 0 I I #
vertex $-1 $261 $434 #
straight-curve $-1 0 27.517546223841403 -10.938071361481587 1 0 0 I I #
point $-1 45.243079927976318 27.517546223841403 -10.938071361481587 #
point $-1 45.243079927976318 -27.517546223841403 -10.938071361481587 #
straight-curve $-1 -45.243079927976318 0 10.938071361481587 0 -1 0 I I #
point $-1 -45.243079927976318 27.517546223841403 10.938071361481587 #
point $-1 -45.243079927976318 -27.517546223841403 10.938071361481587 #
straight-curve $-1 45.243079927976318 -27.517546223841403 0 0 0 -1 I I #
straight-curve $-1 45.243079927976318 27.517546223841403 0 0 0 -1 I I #
plane-surface $-1 45.243079927976318 0 0 -1 0 0 0 0 1 forward_v I I I I #
coedge $-1 $435 $383 $285 $388 forward $279 $-1 #
coedge $-1 $286 $281 $435 $436 forward $180 $-1 #
edge $-1 $295 -4.0695854427131195 $437 4.0695854427131195 $293 $438 forward 7 unknown #
coedge $-1 $380 $439 $282 $384 reversed $279 $-1 #
edge $-1 $391 -45.243079927976318 $386 45.243079927976318 $383 $440 forward 7 unknown #
coedge $-1 $293 $283 $439 $441 forward $294 $-1 #
vertex $-1 $284 $442 #
straight-curve $-1 45.243079927976318 -31.587131666554519 -0.014204570064659805 0 1 0 I I #
edge $-1 $391 -1.5 $389 1.5 $285 $443 forward 7 unknown #
vertex $-1 $287 $444 #
straight-curve $-1 -45.243079927976318 -31.587131666554519 -3.0142045700646598 0 1 0 I I #
vertex $-1 $288 $445 #
straight-curve $-1 -45.243079927976318 -31.587131666554519 -0.014204570064659805 0 -1 0 I I #
point $-1 -45.243079927976318 -27.5175462238414 -3.0142045700646598 #
straight-curve $-1 0 -27.517546223841403 -3.0142045700646598 -1 0 0 I I #
point $-1 45.243079927976318 -27.5175462238414 -3.0142045700646598 #
coedge $-1 $397 $301 $403 $446 reversed $194 $-1 #
coedge $-1 $301 $396 $304 $401 reversed $194 $-1 #
edge $-1 $399 -16.595155749803631 $309 -5.2496251982719127 $308 $447 forward 7 unknown #
vertex $-1 $303 $448 #
straight-curve $-1 -33.493789751805842 27.517546223841403 12.361729857517549 -0.7313536940579346 0 -0.68199836817093118 I I #
edge $-1 $305 35.02047654278055 $405 45.243079927976318 $397 $449 forward 7 unknown #
point $-1 -35.02047654278055 27.5175462238414 10.938071361481587 #
coedge $-1 $308 $307 $396 $446 forward $299 $-1 #
point $-1 -45.243079927976318 16.172015672309684 1.405339273291879 #
vertex $-1 $401 $450 #
straight-curve $-1 -45.243079927976318 0 10.938071361481587 0 -1 0 I I #
vertex $-1 $315 $451 #
point $-1 -35.702345684679834 21.844780948075542 4.3542788888483788 #
edge $-1 $410 54.122105743498707 $413 61.952732378465072 $320 $452 forward 7 unknown #
vertex $-1 $334 $453 #
straight-curve $-1 30.419152988243358 -19.378375338415168 10.93807136148159 1 0 0 I I #
edge $-1 $413 -12.056641376426551 $331 -2.5868265475506824 $330 $454 forward 7 unknown #
vertex $-1 $412 $455 #
straight-curve $-1 -10.465761789491175 -19.378375338415168 74.411512492493102 -0.61566146476048833 0 0.78801076186113728 I I #
point $-1 39.125124060610318 -19.378375338415168 10.938071361481597 #
point $-1 45.243079927976311 -9.9085605095392992 3.1074447265152259 #
straight-curve $-1 45.243079927976318 0 10.938071361481587 0 1 0 I I #
vertex $-1 $337 $456 #
point $-1 39.692234951243798 -14.643467923977234 3.8068799921212051 #
edge $-1 $421 54.122105743498707 $424 61.952732378465072 $342 $457 forward 7 unknown #
vertex $-1 $356 $458 #
straight-curve $-1 30.419152988243358 4.069585442713116 10.93807136148159 1 0 0 I I #
edge $-1 $424 -0.33266098586240922 $353 9.1371538430134596 $352 $459 forward 7 unknown #
vertex $-1 $423 $460 #
straight-curve $-1 -10.465761789491175 4.069585442713116 74.411512492493102 -0.61566146476048833 0 0.78801076186113728 I I #
point $-1 39.125124060610318 4.069585442713116 10.938071361481597 #
point $-1 45.243079927976311 13.539400271588985 3.1074447265152259 #
straight-curve $-1 45.243079927976318 0 10.938071361481587 0 1 0 I I #
vertex $-1 $359 $461 #
point $-1 39.692234951243798 8.8044928571510503 3.8068799921212051 #
straight-curve $-1 -45.243079927976318 27.517546223841403 0 0 0 -1 I I #
point $-1 -45.243079927976318 -27.517546223841403 -10.938071361481587 #
straight-curve $-1 -45.243079927976318 0 -10.938071361481587 0 1 0 I I #
point $-1 -45.243079927976318 27.517546223841403 -10.938071361481587 #
coedge $-1 $439 $380 $381 $436 reversed $279 $-1 #
edge $-1 $437 -45.243079927976318 $389 45.243079927976318 $435 $462 forward 7 unknown #
vertex $-1 $441 $463 #
straight-curve $-1 45.243079927976318 -31.587131666554519 -3.0142045700646598 0 -1 0 I I #
coedge $-1 $383 $435 $385 $441 reversed $279 $-1 #
straight-curve $-1 0 -35.656717109267639 -0.014204570064659805 1 0 0 I I #
edge $-1 $386 -1.5 $437 1.5 $385 $464 forward 7 unknown #
point $-1 45.243079927976318 -35.656717109267639 -0.014204570064659805 #
straight-curve $-1 -45.243079927976318 -35.656717109267639 -1.5142045700646598 0 0 -1 I I #
point $-1 -45.243079927976318 -35.656717109267639 -3.0142045700646598 #
point $-1 -45.243079927976318 -35.656717109267639 -0.014204570064659805 #
edge $-1 $405 -10.938071361481587 $399 -1.405339273291879 $396 $465 forward 7 unknown #
straight-curve $-1 -45.243079927976318 10.922390474037771 1.4053392732918815 0 -1 0 I I #
point $-1 -45.243079927976318 27.5175462238414 1.405339273291879 #
straight-curve $-1 0 27.517546223841403 10.938071361481587 -1 0 0 I I #
point $-1 -45.243079927976318 27.517546223841403 10.938071361481587 #
point $-1 -35.80105633645384 21.844780948075542 1.5275747643906468 #
straight-curve $-1 45.243079927976318 -19.378375338415168 65.060177104980298 0 0 -1 I I #
point $-1 45.243079927976318 -19.378375338415168 10.938071361481587 #
straight-curve $-1 45.243079927976325 -7.3217339619886168 3.1074447265152116 0 1 0 I I #
point $-1 45.243079927976311 -19.378375338415168 3.1074447265152259 #
point $-1 38.288562724622174 -14.643467923977234 3.9792292892218541 #
straight-curve $-1 45.243079927976318 4.069585442713116 65.060177104980298 0 0 -1 I I #
point $-1 45.243079927976318 4.069585442713116 10.938071361481587 #
straight-curve $-1 45.243079927976325 4.4022464285755252 3.1074447265152116 0 1 0 I I #
point $-1 45.243079927976311 4.069585442713116 3.1074447265152259 #
point $-1 38.288562724622174 8.8044928571510503 3.9792292892218541 #
straight-curve $-1 0 -35.656717109267639 -3.0142045700646598 -1 0 0 I I #
point $-1 45.243079927976318 -35.656717109267639 -3.0142045700646598 #
straight-curve $-1 45.243079927976318 -35.656717109267639 -1.5142045700646598 0 0 -1 I I #
straight-curve $-1 -45.243079927976318 27.517546223841403 0 0 0 -1 I I #
End-of-ACIS-data 