500 0 7 0           
7 Unknown 11 ACIS 5.0 NT 24 Fri Mar 26 02:36:18 1999 
-1 9.9999999999999995e-007 1e-010 
body $-1 $7 $-1 $8 #
body $-1 $9 $-1 $10 #
body $-1 $11 $-1 $12 #
body $-1 $13 $-1 $14 #
body $-1 $15 $-1 $16 #
body $-1 $17 $-1 $18 #
body $-1 $19 $-1 $20 #
lump $-1 $-1 $21 $0 #
transform $-1 1 0 0 0 1 0 0 0 1 40.360118411816764 26.259265859600255 8.1813476740035114 1 rotate no_reflect no_shear #
lump $-1 $-1 $22 $1 #
transform $-1 1 0 0 0 1 0 0 0 1 40.360118411816764 26.259265859600255 8.1813476740035114 1 rotate no_reflect no_shear #
lump $-1 $-1 $23 $2 #
transform $-1 1 0 0 0 1 0 0 0 1 40.360118411816764 26.259265859600255 8.1813476740035114 1 rotate no_reflect no_shear #
lump $-1 $-1 $24 $3 #
transform $-1 1 0 0 0 1 0 0 0 1 40.360118411816764 26.259265859600255 8.1813476740035114 1 rotate no_reflect no_shear #
lump $-1 $-1 $25 $4 #
transform $-1 1 0 0 0 1 0 0 0 1 40.360118411816764 26.259265859600255 8.1813476740035114 1 rotate no_reflect no_shear #
lump $-1 $-1 $26 $5 #
transform $-1 1 0 0 0 1 0 0 0 1 40.360118411816764 26.259265859600255 8.1813476740035114 1 rotate no_reflect no_shear #
lump $-1 $-1 $27 $6 #
transform $-1 1 0 0 0 1 0 0 0 1 40.360118411816764 26.259265859600255 8.1813476740035114 1 rotate no_reflect no_shear #
shell $-1 $-1 $-1 $28 $-1 $7 #
shell $-1 $-1 $-1 $29 $-1 $9 #
shell $-1 $-1 $-1 $30 $-1 $11 #
shell $-1 $-1 $-1 $31 $-1 $13 #
shell $-1 $-1 $-1 $32 $-1 $15 #
shell $-1 $-1 $-1 $33 $-1 $17 #
shell $-1 $-1 $-1 $34 $-1 $19 #
face $-1 $35 $36 $21 $-1 $37 forward single #
face $-1 $38 $39 $22 $-1 $40 reversed single #
face $-1 $41 $42 $23 $-1 $43 reversed single #
face $-1 $44 $45 $24 $-1 $46 reversed single #
face $-1 $47 $48 $25 $-1 $49 forward single #
face $-1 $50 $51 $26 $-1 $52 forward single #
face $-1 $53 $54 $27 $-1 $55 forward single #
face $-1 $56 $57 $21 $-1 $58 reversed single #
loop $-1 $-1 $59 $28 #
plane-surface $-1 0 0 8.1813476740035114 0 0 1 1 0 0 forward_v I I I I #
face $-1 $60 $61 $22 $-1 $62 reversed single #
loop $-1 $-1 $63 $29 #
plane-surface $-1 -36.986445430799755 -22.382944480197061 0 0 -1 0 0 0 -1 forward_v I I I I #
face $-1 $64 $65 $23 $-1 $66 reversed single #
loop $-1 $-1 $67 $30 #
plane-surface $-1 33.612772449782746 -24.321105169898658 0 1 0 0 0 0 -1 forward_v I I I I #
face $-1 $68 $69 $24 $-1 $70 reversed single #
loop $-1 $-1 $71 $31 #
plane-surface $-1 29.464601302617371 -72.558492235012395 68.886997328167325 -1 0 0 0 -0.57357644374324357 0.81915203911291934 forward_v I I I I #
face $-1 $72 $73 $25 $-1 $74 forward single #
loop $-1 $75 $76 $32 #
cone-surface $-1 17.826972563694206 -22.079193714360997 5.0270992066169677 0 0.57357644374324357 -0.81915203911291934 0.5 0 0 1 I I 0 1 0.5 forward I I I I #
face $-1 $77 $78 $26 $-1 $79 forward single #
loop $-1 $80 $81 $33 #
cone-surface $-1 22.191083340790392 -22.079193714360997 5.0270992066169677 0 0.57357644374324357 -0.81915203911291934 0.5 0 0 1 I I 0 1 0.5 forward I I I I #
face $-1 $82 $83 $27 $-1 $84 forward single #
loop $-1 $85 $86 $34 #
cone-surface $-1 26.555194117886579 -22.079193714360997 5.0270992066169677 0 0.57357644374324357 -0.81915203911291934 0.5 0 0 1 I I 0 1 0.5 forward I I I I #
face $-1 $87 $88 $21 $-1 $89 reversed single #
loop $-1 $-1 $90 $35 #
plane-surface $-1 0 0 -8.1813476740035114 0 0 1 1 0 0 forward_v I I I I #
coedge $-1 $91 $92 $93 $94 forward $36 $-1 #
face $-1 $95 $96 $22 $-1 $97 forward single #
loop $-1 $-1 $98 $38 #
plane-surface $-1 -33.612772449782746 -24.321105169898658 0 -1 0 0 0 0 1 forward_v I I I I #
coedge $-1 $99 $100 $101 $102 forward $39 $-1 #
face $-1 $103 $104 $23 $-1 $105 forward single #
loop $-1 $-1 $106 $41 #
plane-surface $-1 36.986445430799755 -22.382944480197061 0 0 -1 0 0 0 -1 forward_v I I I I #
coedge $-1 $107 $108 $109 $110 forward $42 $-1 #
face $-1 $111 $112 $24 $-1 $113 reversed single #
loop $-1 $-1 $114 $44 #
plane-surface $-1 22.191083340790392 -26.259265859600262 2.7648507364101675 0 -0.57357644374324357 0.81915203911291934 1 0 0 forward_v I I I I #
coedge $-1 $115 $116 $117 $118 reversed $45 $-1 #
face $-1 $-1 $119 $25 $-1 $120 forward single #
loop $-1 $121 $122 $47 #
cone-surface $-1 17.826972563694206 -21.623507036372928 4.3763111982488745 0 0.57357644374324357 -0.81915203911291934 0.25 0 0 1 I I -0.70710678118654746 0.70710678118654746 0.25 forward I I I I #
loop $-1 $-1 $123 $32 #
coedge $-1 $76 $76 $124 $125 reversed $48 $-1 #
face $-1 $-1 $126 $26 $-1 $127 forward single #
loop $-1 $128 $129 $50 #
cone-surface $-1 22.191083340790392 -21.623507036372928 4.3763111982488745 0 0.57357644374324357 -0.81915203911291934 0.25 0 0 1 I I -0.70710678118654746 0.70710678118654746 0.25 forward I I I I #
loop $-1 $-1 $130 $33 #
coedge $-1 $81 $81 $131 $132 reversed $51 $-1 #
face $-1 $-1 $133 $27 $-1 $134 forward single #
loop $-1 $135 $136 $53 #
cone-surface $-1 26.555194117886579 -21.623507036372928 4.3763111982488745 0 0.57357644374324357 -0.81915203911291934 0.25 0 0 1 I I -0.70710678118654746 0.70710678118654746 0.25 forward I I I I #
loop $-1 $-1 $137 $34 #
coedge $-1 $86 $86 $138 $139 reversed $54 $-1 #
face $-1 $140 $141 $21 $-1 $142 reversed single #
loop $-1 $-1 $143 $56 #
plane-surface $-1 0 -26.259265859600255 0 0 1 0 0 0 1 forward_v I I I I #
coedge $-1 $144 $145 $146 $147 forward $57 $-1 #
coedge $-1 $148 $59 $149 $150 forward $36 $-1 #
coedge $-1 $59 $148 $151 $152 forward $36 $-1 #
coedge $-1 $153 $154 $59 $94 reversed $155 $-1 #
edge $-1 $156 -26.259265859600255 $157 26.259265859600255 $93 $158 forward 7 unknown #
face $-1 $159 $160 $22 $-1 $161 reversed single #
loop $-1 $-1 $162 $60 #
plane-surface $-1 0 0 8.1813476740035114 0 0 1 1 0 0 forward_v I I I I #
coedge $-1 $163 $164 $165 $166 reversed $61 $-1 #
coedge $-1 $167 $63 $168 $169 reversed $39 $-1 #
coedge $-1 $63 $167 $170 $171 reversed $39 $-1 #
coedge $-1 $164 $163 $63 $102 reversed $61 $-1 #
edge $-1 $172 -8.1813476740035114 $173 8.1813476740035114 $101 $174 forward 7 unknown #
face $-1 $175 $176 $23 $-1 $177 reversed single #
loop $-1 $-1 $178 $64 #
plane-surface $-1 0 0 8.1813476740035114 0 0 1 1 0 0 forward_v I I I I #
coedge $-1 $179 $180 $181 $182 reversed $65 $-1 #
coedge $-1 $183 $67 $184 $185 reversed $42 $-1 #
coedge $-1 $67 $183 $186 $187 reversed $42 $-1 #
coedge $-1 $180 $179 $67 $110 reversed $65 $-1 #
edge $-1 $188 -8.1813476740035114 $189 8.1813476740035114 $109 $190 forward 7 unknown #
face $-1 $191 $192 $24 $-1 $193 forward single #
loop $-1 $-1 $194 $68 #
plane-surface $-1 14.917565378963413 -72.558492235012395 68.886997328167325 1 0 0 0 0.57357644374324357 -0.81915203911291934 forward_v I I I I #
coedge $-1 $195 $196 $197 $198 reversed $69 $-1 #
coedge $-1 $116 $71 $199 $200 reversed $45 $-1 #
coedge $-1 $71 $115 $195 $201 reversed $45 $-1 #
coedge $-1 $197 $202 $71 $118 forward $192 $-1 #
edge $-1 $203 10.019980257905942 $204 17.755539414279909 $117 $205 forward 7 unknown #
loop $-1 $-1 $124 $72 #
plane-surface $-1 22.191083340790392 -26.259265859600262 2.7648507364101675 0 -0.57357644374324357 0.81915203911291934 1 0 0 forward_v I I I I #
loop $-1 $-1 $206 $47 #
coedge $-1 $122 $122 $123 $207 reversed $73 $-1 #
coedge $-1 $123 $123 $122 $207 forward $75 $-1 #
coedge $-1 $124 $124 $76 $125 forward $119 $-1 #
edge $-1 $208 1.4037646728562544e-016 $208 6.2831853071796004 $124 $209 forward 7 unknown #
loop $-1 $-1 $131 $77 #
plane-surface $-1 22.191083340790392 -26.259265859600262 2.7648507364101675 0 -0.57357644374324357 0.81915203911291934 1 0 0 forward_v I I I I #
loop $-1 $-1 $210 $50 #
coedge $-1 $129 $129 $130 $211 reversed $78 $-1 #
coedge $-1 $130 $130 $129 $211 forward $80 $-1 #
coedge $-1 $131 $131 $81 $132 forward $126 $-1 #
edge $-1 $212 1.4037646728562544e-016 $212 6.2831853071796004 $131 $213 forward 7 unknown #
loop $-1 $-1 $138 $82 #
plane-surface $-1 22.191083340790392 -26.259265859600262 2.7648507364101675 0 -0.57357644374324357 0.81915203911291934 1 0 0 forward_v I I I I #
loop $-1 $-1 $214 $53 #
coedge $-1 $136 $136 $137 $215 reversed $83 $-1 #
coedge $-1 $137 $137 $136 $215 forward $85 $-1 #
coedge $-1 $138 $138 $86 $139 forward $133 $-1 #
edge $-1 $216 1.4037646728562544e-016 $216 6.2831853071796004 $138 $217 forward 7 unknown #
face $-1 $218 $219 $21 $-1 $220 reversed single #
loop $-1 $-1 $221 $87 #
plane-surface $-1 -40.360118411816764 0 0 1 0 0 0 0 -1 forward_v I I I I #
coedge $-1 $222 $151 $223 $224 forward $88 $-1 #
coedge $-1 $225 $90 $222 $226 forward $57 $-1 #
coedge $-1 $90 $225 $227 $228 forward $57 $-1 #
coedge $-1 $154 $153 $90 $147 reversed $155 $-1 #
edge $-1 $229 -26.259265859600255 $230 26.259265859600255 $146 $231 forward 7 unknown #
coedge $-1 $92 $91 $232 $233 forward $36 $-1 #
coedge $-1 $234 $235 $91 $150 reversed $219 $-1 #
edge $-1 $157 -40.360118411816764 $236 40.360118411816764 $149 $237 forward 7 unknown #
coedge $-1 $143 $238 $92 $152 reversed $88 $-1 #
edge $-1 $239 -40.360118411816764 $156 40.360118411816764 $151 $240 forward 7 unknown #
coedge $-1 $146 $93 $238 $241 forward $155 $-1 #
coedge $-1 $93 $146 $234 $242 reversed $155 $-1 #
loop $-1 $-1 $153 $218 #
vertex $-1 $94 $243 #
vertex $-1 $94 $244 #
straight-curve $-1 40.360118411816764 0 8.1813476740035114 0 1 0 I I #
face $-1 $245 $246 $22 $-1 $247 reversed single #
loop $-1 $-1 $248 $95 #
plane-surface $-1 -40.360118411816764 0 0 1 0 0 0 0 -1 forward_v I I I I #
coedge $-1 $170 $249 $164 $250 forward $96 $-1 #
coedge $-1 $101 $98 $251 $252 reversed $61 $-1 #
coedge $-1 $98 $101 $162 $250 reversed $61 $-1 #
coedge $-1 $253 $254 $98 $166 forward $255 $-1 #
edge $-1 $256 -8.1813476740035114 $257 8.1813476740035114 $165 $258 forward 7 unknown #
coedge $-1 $100 $99 $248 $259 reversed $39 $-1 #
coedge $-1 $251 $260 $99 $169 forward $246 $-1 #
edge $-1 $261 -21.866895696416886 $173 -15.119549734382868 $168 $262 forward 7 unknown #
coedge $-1 $263 $162 $100 $171 forward $96 $-1 #
edge $-1 $172 15.119549734382868 $264 21.866895696416886 $170 $265 forward 7 unknown #
vertex $-1 $171 $266 #
vertex $-1 $169 $267 #
straight-curve $-1 -33.612772449782746 -22.382944480197061 0 0 0 -1 I I #
face $-1 $268 $269 $23 $-1 $270 reversed single #
loop $-1 $-1 $271 $103 #
plane-surface $-1 0 -26.259265859600255 0 0 1 0 0 0 1 forward_v I I I I #
coedge $-1 $186 $272 $180 $273 forward $104 $-1 #
coedge $-1 $109 $106 $274 $275 reversed $65 $-1 #
coedge $-1 $106 $109 $178 $273 reversed $65 $-1 #
coedge $-1 $276 $277 $106 $182 forward $278 $-1 #
edge $-1 $279 -8.1813476740035114 $280 8.1813476740035114 $181 $281 forward 7 unknown #
coedge $-1 $108 $107 $271 $282 reversed $42 $-1 #
coedge $-1 $274 $283 $107 $185 forward $269 $-1 #
edge $-1 $284 -14.098713274650926 $189 -10.222391895247732 $184 $285 forward 7 unknown #
coedge $-1 $286 $178 $108 $187 forward $104 $-1 #
edge $-1 $188 10.222391895247732 $287 14.098713274650926 $186 $288 forward 7 unknown #
vertex $-1 $187 $289 #
vertex $-1 $185 $290 #
straight-curve $-1 33.612772449782746 -22.382944480197061 0 0 0 -1 I I #
face $-1 $-1 $291 $24 $-1 $292 reversed single #
loop $-1 $-1 $117 $111 #
plane-surface $-1 0 0 8.1813476740035114 0 0 1 1 0 0 forward_v I I I I #
coedge $-1 $293 $294 $295 $296 reversed $112 $-1 #
coedge $-1 $297 $114 $116 $201 forward $69 $-1 #
coedge $-1 $114 $297 $293 $298 forward $69 $-1 #
coedge $-1 $295 $117 $114 $198 forward $192 $-1 #
edge $-1 $204 -18.369059632222175 $299 -3.8220237085682172 $197 $300 forward 7 unknown #
coedge $-1 $301 $302 $115 $200 forward $291 $-1 #
edge $-1 $303 -31.678647927673492 $203 -26.262150990080151 $199 $304 forward 7 unknown #
edge $-1 $204 -9.4433741076333142 $303 -8.6223355153435888e-015 $116 $305 forward 7 unknown #
coedge $-1 $117 $295 $301 $306 forward $192 $-1 #
vertex $-1 $200 $307 #
vertex $-1 $118 $308 #
straight-curve $-1 29.464601302617371 -36.279246117506197 8.1813476740035114 0 1 0 I I #
coedge $-1 $206 $206 $-1 $309 reversed $121 $-1 #
edge $-1 $310 0 $310 6.2831853071796004 $122 $311 forward 7 unknown #
vertex $-1 $125 $312 #
ellipse-curve $-1 17.826972563694206 -22.391486281413265 5.4730992052068457 0 -0.57357644374324357 0.81915203911291934 0.5 0 0 1 I I #
coedge $-1 $210 $210 $-1 $313 reversed $128 $-1 #
edge $-1 $314 0 $314 6.2831853071796004 $129 $315 forward 7 unknown #
vertex $-1 $132 $316 #
ellipse-curve $-1 22.191083340790392 -22.391486281413265 5.4730992052068457 0 -0.57357644374324357 0.81915203911291934 0.5 0 0 1 I I #
coedge $-1 $214 $214 $-1 $317 reversed $135 $-1 #
edge $-1 $318 0 $318 6.2831853071796004 $136 $319 forward 7 unknown #
vertex $-1 $139 $320 #
ellipse-curve $-1 26.555194117886579 -22.391486281413265 5.4730992052068457 0 -0.57357644374324357 0.81915203911291934 0.5 0 0 1 I I #
face $-1 $-1 $155 $21 $-1 $321 reversed single #
loop $-1 $-1 $234 $140 #
plane-surface $-1 0 26.259265859600255 0 0 -1 0 0 0 -1 forward_v I I I I #
coedge $-1 $322 $232 $235 $323 forward $141 $-1 #
coedge $-1 $238 $143 $144 $226 reversed $88 $-1 #
coedge $-1 $232 $322 $143 $224 reversed $141 $-1 #
edge $-1 $239 -8.1813476740035114 $324 8.1813476740035114 $223 $325 forward 7 unknown #
coedge $-1 $145 $144 $322 $326 forward $57 $-1 #
edge $-1 $230 -40.360118411816764 $324 40.360118411816764 $222 $327 forward 7 unknown #
coedge $-1 $235 $234 $145 $228 reversed $219 $-1 #
edge $-1 $328 -40.360118411816764 $229 40.360118411816764 $227 $329 forward 7 unknown #
vertex $-1 $147 $330 #
vertex $-1 $241 $331 #
straight-curve $-1 40.360118411816764 0 -8.1813476740035114 0 -1 0 I I #
coedge $-1 $221 $223 $148 $233 reversed $141 $-1 #
edge $-1 $236 -26.259265859600255 $239 26.259265859600255 $232 $332 forward 7 unknown #
coedge $-1 $227 $149 $154 $242 forward $219 $-1 #
coedge $-1 $149 $227 $221 $323 reversed $219 $-1 #
vertex $-1 $150 $333 #
straight-curve $-1 0 26.259265859600255 8.1813476740035114 -1 0 0 I I #
coedge $-1 $151 $222 $153 $241 reversed $88 $-1 #
vertex $-1 $233 $334 #
straight-curve $-1 0 -26.259265859600255 8.1813476740035114 1 0 0 I I #
edge $-1 $156 -8.1813476740035114 $230 8.1813476740035114 $153 $335 forward 7 unknown #
edge $-1 $157 -8.1813476740035114 $229 8.1813476740035114 $154 $336 forward 7 unknown #
point $-1 40.360118411816764 -26.259265859600255 8.1813476740035114 #
point $-1 40.360118411816764 26.259265859600255 8.1813476740035114 #
face $-1 $-1 $255 $22 $-1 $337 reversed single #
loop $-1 $-1 $251 $159 #
plane-surface $-1 0 0 -8.1813476740035114 0 0 1 1 0 0 forward_v I I I I #
coedge $-1 $338 $339 $167 $259 forward $160 $-1 #
coedge $-1 $162 $263 $253 $340 forward $96 $-1 #
edge $-1 $257 -14.098713274650926 $172 -10.222391895247732 $162 $341 forward 7 unknown #
coedge $-1 $342 $168 $163 $252 forward $246 $-1 #
edge $-1 $173 10.222391895247732 $256 14.098713274650926 $251 $343 forward 7 unknown #
coedge $-1 $344 $165 $249 $340 reversed $255 $-1 #
coedge $-1 $165 $344 $342 $345 reversed $255 $-1 #
loop $-1 $-1 $165 $245 #
vertex $-1 $345 $346 #
vertex $-1 $166 $347 #
straight-curve $-1 -33.612772449782746 -26.259265859600255 0 0 0 1 I I #
edge $-1 $264 -8.1813476740035114 $261 8.1813476740035114 $248 $348 forward 7 unknown #
coedge $-1 $168 $342 $338 $349 forward $246 $-1 #
vertex $-1 $169 $350 #
straight-curve $-1 -18.493222715399877 -22.382944480197061 -8.1813476740035114 1 0 0 I I #
coedge $-1 $249 $170 $339 $351 forward $96 $-1 #
vertex $-1 $351 $352 #
straight-curve $-1 -18.493222715399877 -22.382944480197061 8.1813476740035114 -1 0 0 I I #
point $-1 -33.612772449782746 -22.382944480197061 8.1813476740035114 #
point $-1 -33.612772449782746 -22.382944480197061 -8.1813476740035114 #
face $-1 $-1 $278 $23 $-1 $353 reversed single #
loop $-1 $-1 $274 $175 #
plane-surface $-1 0 0 -8.1813476740035114 0 0 1 1 0 0 forward_v I I I I #
coedge $-1 $354 $355 $183 $282 forward $176 $-1 #
coedge $-1 $178 $286 $276 $356 forward $104 $-1 #
edge $-1 $280 -21.866895696416886 $188 -15.119549734382868 $178 $357 forward 7 unknown #
coedge $-1 $358 $184 $179 $275 forward $269 $-1 #
edge $-1 $189 15.119549734382868 $279 21.866895696416886 $274 $359 forward 7 unknown #
coedge $-1 $360 $181 $272 $356 reversed $278 $-1 #
coedge $-1 $181 $360 $358 $361 reversed $278 $-1 #
loop $-1 $-1 $181 $268 #
vertex $-1 $361 $362 #
vertex $-1 $182 $363 #
straight-curve $-1 40.360118411816764 -22.382944480197061 0 0 0 1 I I #
edge $-1 $287 -8.1813476740035114 $284 8.1813476740035114 $271 $364 forward 7 unknown #
coedge $-1 $184 $358 $354 $365 forward $269 $-1 #
vertex $-1 $185 $366 #
straight-curve $-1 33.612772449782746 -12.160552584949329 -8.1813476740035114 0 1 0 I I #
coedge $-1 $272 $186 $355 $367 forward $104 $-1 #
vertex $-1 $367 $368 #
straight-curve $-1 33.612772449782746 -12.160552584949329 8.1813476740035114 0 -1 0 I I #
point $-1 33.612772449782746 -22.382944480197061 8.1813476740035114 #
point $-1 33.612772449782746 -22.382944480197061 -8.1813476740035114 #
loop $-1 $-1 $199 $191 #
plane-surface $-1 0 -26.259265859600255 0 0 1 0 0 0 1 forward_v I I I I #
coedge $-1 $294 $194 $196 $298 reversed $112 $-1 #
coedge $-1 $194 $293 $369 $370 reversed $112 $-1 #
coedge $-1 $202 $197 $194 $296 forward $192 $-1 #
edge $-1 $299 -17.755539414279909 $371 -10.019980257905942 $295 $372 forward 7 unknown #
coedge $-1 $196 $195 $302 $373 reversed $69 $-1 #
edge $-1 $374 8.6223355153435888e-015 $299 9.4433741076333142 $293 $375 forward 7 unknown #
vertex $-1 $198 $376 #
straight-curve $-1 11.095541670395196 -18.523706703226285 8.1813476740035114 -1 0 0 I I #
coedge $-1 $369 $199 $202 $306 reversed $291 $-1 #
coedge $-1 $199 $369 $297 $373 forward $291 $-1 #
vertex $-1 $200 $377 #
straight-curve $-1 29.464601302617371 -26.259265859600255 34.443498664083663 0 0 1 I I #
straight-curve $-1 29.464601302617371 -26.259265859600262 2.7648507364101675 0 -0.81915203911291934 -0.57357644374324357 I I #
edge $-1 $371 14.917565378963413 $203 29.464601302617371 $301 $378 forward 7 unknown #
point $-1 29.464601302617371 -26.259265859600255 8.1813476740035114 #
point $-1 29.464601302617371 -18.523706703226289 8.1813476740035114 #
edge $-1 $379 1 $379 0 $206 $-1 forward 7 unknown #
vertex $-1 $207 $380 #
ellipse-curve $-1 17.826972563694206 -21.76690114730874 4.581099208027104 0 -0.57357644374324357 0.81915203911291934 0.5 0 0 1 I I #
point $-1 18.326972563694206 -22.391486281413254 5.4730992052068306 #
edge $-1 $381 1 $381 0 $210 $-1 forward 7 unknown #
vertex $-1 $211 $382 #
ellipse-curve $-1 22.191083340790392 -21.76690114730874 4.581099208027104 0 -0.57357644374324357 0.81915203911291934 0.5 0 0 1 I I #
point $-1 22.691083340790392 -22.391486281413254 5.4730992052068306 #
edge $-1 $383 1 $383 0 $214 $-1 forward 7 unknown #
vertex $-1 $215 $384 #
ellipse-curve $-1 26.555194117886579 -21.76690114730874 4.581099208027104 0 -0.57357644374324357 0.81915203911291934 0.5 0 0 1 I I #
point $-1 27.055194117886579 -22.391486281413254 5.4730992052068306 #
plane-surface $-1 40.360118411816764 0 0 -1 0 0 0 0 1 forward_v I I I I #
coedge $-1 $223 $221 $225 $326 reversed $141 $-1 #
edge $-1 $236 -8.1813476740035114 $328 8.1813476740035114 $235 $385 forward 7 unknown #
vertex $-1 $326 $386 #
straight-curve $-1 -40.360118411816764 -26.259265859600255 0 0 0 -1 I I #
edge $-1 $324 -26.259265859600255 $328 26.259265859600255 $322 $387 forward 7 unknown #
straight-curve $-1 0 -26.259265859600255 -8.1813476740035114 -1 0 0 I I #
vertex $-1 $228 $388 #
straight-curve $-1 0 26.259265859600255 -8.1813476740035114 1 0 0 I I #
point $-1 40.360118411816764 26.259265859600255 -8.1813476740035114 #
point $-1 40.360118411816764 -26.259265859600255 -8.1813476740035114 #
straight-curve $-1 -40.360118411816764 0 8.1813476740035114 0 -1 0 I I #
point $-1 -40.360118411816764 26.259265859600255 8.1813476740035114 #
point $-1 -40.360118411816764 -26.259265859600255 8.1813476740035114 #
straight-curve $-1 40.360118411816764 -26.259265859600255 0 0 0 -1 I I #
straight-curve $-1 40.360118411816764 26.259265859600255 0 0 0 -1 I I #
plane-surface $-1 0 -26.259265859600255 0 0 1 0 0 0 1 forward_v I I I I #
coedge $-1 $389 $248 $260 $349 reversed $160 $-1 #
coedge $-1 $248 $389 $263 $351 reversed $160 $-1 #
edge $-1 $390 -40.360118411816764 $257 -33.612772449782746 $253 $391 forward 7 unknown #
straight-curve $-1 -33.612772449782746 -12.160552584949329 8.1813476740035114 0 1 0 I I #
coedge $-1 $260 $251 $254 $345 forward $246 $-1 #
straight-curve $-1 -33.612772449782746 -12.160552584949329 -8.1813476740035114 0 -1 0 I I #
coedge $-1 $254 $253 $389 $392 forward $255 $-1 #
edge $-1 $256 33.612772449782746 $393 40.360118411816764 $254 $394 forward 7 unknown #
point $-1 -33.612772449782746 -26.259265859600255 -8.1813476740035114 #
point $-1 -33.612772449782746 -26.259265859600255 8.1813476740035114 #
straight-curve $-1 -40.360118411816764 -22.382944480197061 0 0 0 -1 I I #
edge $-1 $393 -26.259265859600255 $261 -22.382944480197061 $338 $395 forward 7 unknown #
point $-1 -40.360118411816764 -22.382944480197061 -8.1813476740035114 #
edge $-1 $264 22.382944480197061 $390 26.259265859600255 $339 $396 forward 7 unknown #
point $-1 -40.360118411816764 -22.382944480197061 8.1813476740035114 #
plane-surface $-1 40.360118411816764 0 0 -1 0 0 0 0 1 forward_v I I I I #
coedge $-1 $397 $271 $283 $365 reversed $176 $-1 #
coedge $-1 $271 $397 $286 $367 reversed $176 $-1 #
edge $-1 $398 -26.259265859600255 $280 -22.382944480197061 $276 $399 forward 7 unknown #
straight-curve $-1 18.493222715399877 -22.382944480197061 8.1813476740035114 -1 0 0 I I #
coedge $-1 $283 $274 $277 $361 forward $269 $-1 #
straight-curve $-1 18.493222715399877 -22.382944480197061 -8.1813476740035114 1 0 0 I I #
coedge $-1 $277 $276 $397 $400 forward $278 $-1 #
edge $-1 $279 22.382944480197061 $401 26.259265859600255 $277 $402 forward 7 unknown #
point $-1 40.360118411816764 -22.382944480197061 -8.1813476740035114 #
point $-1 40.360118411816764 -22.382944480197061 8.1813476740035114 #
straight-curve $-1 33.612772449782746 -26.259265859600255 0 0 0 -1 I I #
edge $-1 $401 -40.360118411816764 $284 -33.612772449782746 $354 $403 forward 7 unknown #
point $-1 33.612772449782746 -26.259265859600255 -8.1813476740035114 #
edge $-1 $287 33.612772449782746 $398 40.360118411816764 $355 $404 forward 7 unknown #
point $-1 33.612772449782746 -26.259265859600255 8.1813476740035114 #
coedge $-1 $302 $301 $294 $370 forward $291 $-1 #
edge $-1 $371 26.262150990080151 $374 31.678647927673492 $369 $405 forward 7 unknown #
vertex $-1 $306 $406 #
straight-curve $-1 14.917565378963413 -36.279246117506197 8.1813476740035114 0 -1 0 I I #
edge $-1 $374 3.8220237085682172 $303 18.369059632222175 $302 $407 forward 7 unknown #
vertex $-1 $373 $408 #
straight-curve $-1 14.917565378963413 -26.259265859600262 2.7648507364101675 0 0.81915203911291934 0.57357644374324357 I I #
point $-1 14.917565378963413 -18.523706703226289 8.1813476740035114 #
point $-1 29.464601302617371 -26.259265859600255 2.7648507364101724 #
straight-curve $-1 0 -26.259265859600255 8.1813476740035114 1 0 0 I I #
vertex $-1 $309 $409 #
point $-1 18.326972563694206 -21.76690114730874 4.581099208027104 #
vertex $-1 $313 $410 #
point $-1 22.691083340790392 -21.76690114730874 4.581099208027104 #
vertex $-1 $317 $411 #
point $-1 27.055194117886579 -21.76690114730874 4.581099208027104 #
straight-curve $-1 -40.360118411816764 26.259265859600255 0 0 0 -1 I I #
point $-1 -40.360118411816764 -26.259265859600255 -8.1813476740035114 #
straight-curve $-1 -40.360118411816764 0 -8.1813476740035114 0 1 0 I I #
point $-1 -40.360118411816764 26.259265859600255 -8.1813476740035114 #
coedge $-1 $339 $338 $344 $392 reversed $160 $-1 #
vertex $-1 $351 $412 #
straight-curve $-1 0 -26.259265859600255 8.1813476740035114 1 0 0 I I #
edge $-1 $390 -8.1813476740035114 $393 8.1813476740035114 $389 $413 forward 7 unknown #
vertex $-1 $349 $414 #
straight-curve $-1 0 -26.259265859600255 -8.1813476740035114 -1 0 0 I I #
straight-curve $-1 -40.360118411816764 0 -8.1813476740035114 0 1 0 I I #
straight-curve $-1 -40.360118411816764 0 8.1813476740035114 0 -1 0 I I #
coedge $-1 $355 $354 $360 $400 reversed $176 $-1 #
vertex $-1 $356 $415 #
straight-curve $-1 40.360118411816764 0 8.1813476740035114 0 1 0 I I #
edge $-1 $398 -8.1813476740035114 $401 8.1813476740035114 $360 $416 forward 7 unknown #
vertex $-1 $400 $417 #
straight-curve $-1 40.360118411816764 0 -8.1813476740035114 0 -1 0 I I #
straight-curve $-1 0 -26.259265859600255 -8.1813476740035114 -1 0 0 I I #
straight-curve $-1 0 -26.259265859600255 8.1813476740035114 1 0 0 I I #
straight-curve $-1 14.917565378963413 -26.259265859600255 34.443498664083663 0 0 -1 I I #
point $-1 14.917565378963413 -26.259265859600255 8.1813476740035114 #
straight-curve $-1 11.095541670395196 -26.259265859600255 2.7648507364101724 1 0 0 I I #
point $-1 14.917565378963413 -26.259265859600255 2.7648507364101724 #
point $-1 17.826972563694206 -21.480112925437115 4.171523188470645 #
point $-1 22.191083340790392 -21.480112925437115 4.171523188470645 #
point $-1 26.555194117886579 -21.480112925437115 4.171523188470645 #
point $-1 -40.360118411816764 -26.259265859600255 8.1813476740035114 #
straight-curve $-1 -40.360118411816764 -26.259265859600255 0 0 0 -1 I I #
point $-1 -40.360118411816764 -26.259265859600255 -8.1813476740035114 #
point $-1 40.360118411816764 -26.259265859600255 8.1813476740035114 #
straight-curve $-1 40.360118411816764 -26.259265859600255 0 0 0 -1 I I #
point $-1 40.360118411816764 -26.259265859600255 -8.1813476740035114 #
End-of-ACIS-data 