500 0 5 0           
7 Unknown 11 ACIS 5.0 NT 24 Thu Mar 25 22:11:55 1999 
-1 9.9999999999999995e-007 1e-010 
body $-1 $5 $-1 $6 #
body $-1 $7 $-1 $8 #
body $-1 $9 $-1 $10 #
body $-1 $11 $-1 $12 #
body $-1 $13 $-1 $14 #
lump $-1 $-1 $15 $0 #
transform $-1 1 0 0 0 1 0 0 0 1 63.963133640552996 39.807568562222386 10.381894548240115 1 rotate no_reflect no_shear #
lump $-1 $-1 $16 $1 #
transform $-1 1 0 0 0 1 0 0 0 1 63.963133640552996 39.807568562222386 10.381894548240115 1 rotate no_reflect no_shear #
lump $-1 $-1 $17 $2 #
transform $-1 1 0 0 0 1 0 0 0 1 63.963133640552996 39.807568562222386 10.381894548240115 1 rotate no_reflect no_shear #
lump $-1 $-1 $18 $3 #
transform $-1 1 0 0 0 1 0 0 0 1 63.963133640552996 39.807568562222386 10.381894548240115 1 rotate no_reflect no_shear #
lump $-1 $-1 $19 $4 #
transform $-1 1 0 0 0 1 0 0 0 1 63.963133640552996 39.807568562222386 10.381894548240115 1 rotate no_reflect no_shear #
shell $-1 $-1 $-1 $20 $-1 $5 #
shell $-1 $-1 $-1 $21 $-1 $7 #
shell $-1 $-1 $-1 $22 $-1 $9 #
shell $-1 $-1 $-1 $23 $-1 $11 #
shell $-1 $-1 $-1 $24 $-1 $13 #
face $-1 $25 $26 $15 $-1 $27 forward single #
face $-1 $28 $29 $16 $-1 $30 reversed single #
face $-1 $31 $32 $17 $-1 $33 forward single #
face $-1 $34 $35 $18 $-1 $36 reversed single #
face $-1 $37 $38 $19 $-1 $39 reversed single #
face $-1 $40 $41 $15 $-1 $42 reversed single #
loop $-1 $-1 $43 $20 #
plane-surface $-1 0 0 10.381894548240115 0 0 1 1 0 0 forward_v I I I I #
face $-1 $44 $45 $16 $-1 $46 forward single #
loop $-1 $-1 $47 $21 #
plane-surface $-1 -59.788269898144343 0 -6.0104537974216434 0 0 1 1 0 0 forward_v I I I I #
face $-1 $48 $49 $17 $-1 $50 forward single #
loop $-1 $-1 $51 $22 #
plane-surface $-1 95.378707025904248 18.033075588974093 178.81717682013223 0 -1 0 -0.81915205242281985 0 -0.57357642473473569 forward_v I I I I #
face $-1 $52 $53 $18 $-1 $54 reversed single #
loop $-1 $55 $56 $23 #
cone-surface $-1 59.758669427707638 8.9869974521346876 4.9578362419257811 -0.81915205242281985 0 -0.57357642473473569 0.86036463710210354 0 -1.2287280786342298 1 I I 0 1 1.5 forward I I I I #
face $-1 $57 $58 $19 $-1 $59 reversed single #
loop $-1 $60 $61 $24 #
cone-surface $-1 59.758669427707638 14.414644334238332 4.9578362419257811 -0.81915205242281985 0 -0.57357642473473569 0.86036463710210354 0 -1.2287280786342298 1 I I 0 1 1.5 forward I I I I #
face $-1 $62 $63 $15 $-1 $64 reversed single #
loop $-1 $-1 $65 $25 #
plane-surface $-1 0 0 -10.381894548240115 0 0 1 1 0 0 forward_v I I I I #
coedge $-1 $66 $67 $68 $69 forward $26 $-1 #
face $-1 $70 $71 $16 $-1 $72 reversed single #
loop $-1 $-1 $73 $28 #
plane-surface $-1 -55.613406155735689 0 -8.1961741728308795 -1 0 0 0 0 1 forward_v I I I I #
coedge $-1 $74 $75 $76 $77 reversed $29 $-1 #
face $-1 $78 $79 $17 $-1 $80 forward single #
loop $-1 $-1 $81 $31 #
plane-surface $-1 -9.412357376203957 11.70082089318651 105.44168580337526 0.81915205242281985 0 0.57357642473473569 0.57357642473473569 0 -0.81915205242281985 forward_v I I I I #
coedge $-1 $82 $83 $84 $85 reversed $32 $-1 #
face $-1 $86 $87 $18 $-1 $88 forward single #
loop $-1 $89 $90 $34 #
cone-surface $-1 58.346796479660597 8.9869974521346876 3.969232190546915 -0.81915205242281985 0 -0.57357642473473569 0.43018231855105177 0 -0.61436403931711492 1 I I -0.70710678118654757 0.70710678118654757 0.75 forward I I I I #
loop $-1 $-1 $91 $23 #
coedge $-1 $56 $56 $92 $93 reversed $35 $-1 #
face $-1 $94 $95 $19 $-1 $96 reversed single #
loop $-1 $97 $98 $37 #
cone-surface $-1 58.346796479660597 14.414644334238332 3.969232190546915 -0.81915205242281985 0 -0.57357642473473569 0.43018231855105177 0 -0.61436403931711492 1 I I -0.70710678118654757 0.70710678118654757 0.75 forward I I I I #
loop $-1 $-1 $99 $24 #
coedge $-1 $61 $61 $100 $101 reversed $38 $-1 #
face $-1 $102 $103 $15 $-1 $104 reversed single #
loop $-1 $-1 $105 $40 #
plane-surface $-1 0 -39.807568562222386 0 0 1 0 0 0 1 forward_v I I I I #
coedge $-1 $106 $107 $108 $109 forward $41 $-1 #
coedge $-1 $110 $43 $111 $112 forward $26 $-1 #
coedge $-1 $43 $110 $113 $114 forward $26 $-1 #
coedge $-1 $115 $116 $43 $69 reversed $117 $-1 #
edge $-1 $118 -39.807568562222386 $119 39.807568562222386 $68 $120 forward 7 unknown #
face $-1 $121 $122 $16 $-1 $123 reversed single #
loop $-1 $-1 $124 $44 #
plane-surface $-1 -63.963133640552996 0 0 1 0 0 0 0 -1 forward_v I I I I #
coedge $-1 $76 $125 $126 $127 reversed $45 $-1 #
coedge $-1 $128 $47 $129 $130 reversed $29 $-1 #
coedge $-1 $47 $128 $131 $132 reversed $29 $-1 #
coedge $-1 $133 $73 $47 $77 forward $45 $-1 #
edge $-1 $134 -39.807568562222386 $135 39.807568562222386 $76 $136 forward 7 unknown #
face $-1 $137 $138 $17 $-1 $139 forward single #
loop $-1 $-1 $140 $48 #
plane-surface $-1 95.378707025904248 5.3685661973989269 178.81717682013223 0 1 0 0.81915205242281985 0 0.57357642473473569 forward_v I I I I #
coedge $-1 $141 $142 $143 $144 reversed $49 $-1 #
coedge $-1 $83 $51 $142 $145 forward $32 $-1 #
coedge $-1 $51 $82 $146 $147 reversed $32 $-1 #
coedge $-1 $148 $143 $51 $85 forward $138 $-1 #
edge $-1 $149 9.4598695193700308 $150 16.273780127600872 $84 $151 forward 7 unknown #
face $-1 $152 $153 $18 $-1 $154 forward single #
loop $-1 $-1 $155 $52 #
plane-surface $-1 95.378707025904248 18.033075588974093 178.81717682013223 0 -1 0 -0.81915205242281985 0 -0.57357642473473569 forward_v I I I I #
loop $-1 $-1 $156 $34 #
coedge $-1 $90 $90 $91 $157 forward $53 $-1 #
coedge $-1 $91 $91 $90 $157 reversed $55 $-1 #
coedge $-1 $92 $92 $56 $93 forward $153 $-1 #
edge $-1 $158 0 $158 6.2831853071796004 $92 $159 forward 7 unknown #
face $-1 $160 $161 $19 $-1 $162 reversed single #
loop $-1 $163 $164 $57 #
cone-surface $-1 59.758669427707638 8.9869974521346876 4.9578362419257811 -0.81915205242281985 0 -0.57357642473473569 0.86036463710210354 0 -1.2287280786342298 1 I I 0 1 1.5 forward I I I I #
loop $-1 $-1 $165 $37 #
coedge $-1 $98 $98 $99 $166 forward $58 $-1 #
coedge $-1 $99 $99 $98 $166 reversed $60 $-1 #
coedge $-1 $100 $100 $61 $101 forward $167 $-1 #
edge $-1 $168 0 $168 6.2831853071796004 $100 $169 forward 7 unknown #
face $-1 $170 $171 $15 $-1 $172 reversed single #
loop $-1 $-1 $173 $62 #
plane-surface $-1 -63.963133640552996 0 0 1 0 0 0 0 -1 forward_v I I I I #
coedge $-1 $174 $113 $175 $176 forward $63 $-1 #
coedge $-1 $177 $65 $174 $178 forward $41 $-1 #
coedge $-1 $65 $177 $179 $180 forward $41 $-1 #
coedge $-1 $116 $115 $65 $109 reversed $117 $-1 #
edge $-1 $181 -39.807568562222386 $182 39.807568562222386 $108 $183 forward 7 unknown #
coedge $-1 $67 $66 $184 $185 forward $26 $-1 #
coedge $-1 $186 $187 $66 $112 reversed $171 $-1 #
edge $-1 $119 -63.963133640552996 $188 63.963133640552996 $111 $189 forward 7 unknown #
coedge $-1 $105 $190 $67 $114 reversed $63 $-1 #
edge $-1 $191 -63.963133640552996 $118 63.963133640552996 $113 $192 forward 7 unknown #
coedge $-1 $108 $68 $190 $193 forward $117 $-1 #
coedge $-1 $68 $108 $186 $194 reversed $117 $-1 #
loop $-1 $-1 $115 $170 #
vertex $-1 $69 $195 #
vertex $-1 $69 $196 #
straight-curve $-1 63.963133640552996 0 10.381894548240115 0 1 0 I I #
face $-1 $197 $198 $16 $-1 $199 forward single #
loop $-1 $-1 $129 $70 #
plane-surface $-1 0 -39.807568562222386 0 0 1 0 0 0 1 forward_v I I I I #
coedge $-1 $200 $201 $128 $202 forward $71 $-1 #
coedge $-1 $73 $133 $203 $204 reversed $45 $-1 #
coedge $-1 $205 $129 $73 $127 forward $122 $-1 #
edge $-1 $134 1.9123667110062037 $206 6.2838074618246758 $126 $207 forward 7 unknown #
coedge $-1 $75 $74 $124 $202 reversed $29 $-1 #
coedge $-1 $126 $208 $74 $130 forward $122 $-1 #
edge $-1 $209 -34.068998691480829 $134 -25.719271206663517 $129 $210 forward 7 unknown #
coedge $-1 $211 $212 $75 $132 forward $213 $-1 #
edge $-1 $135 25.719271206663517 $214 34.068998691480829 $131 $215 forward 7 unknown #
coedge $-1 $125 $76 $212 $216 reversed $45 $-1 #
vertex $-1 $130 $217 #
vertex $-1 $132 $218 #
straight-curve $-1 -55.613406155735689 0 -6.0104537974216434 0 1 0 I I #
face $-1 $219 $220 $17 $-1 $221 reversed single #
loop $-1 $-1 $222 $78 #
plane-surface $-1 0 0 10.381894548240115 0 0 1 1 0 0 forward_v I I I I #
coedge $-1 $223 $224 $222 $225 reversed $79 $-1 #
coedge $-1 $226 $81 $224 $227 reversed $49 $-1 #
coedge $-1 $81 $226 $82 $145 reversed $49 $-1 #
coedge $-1 $84 $222 $81 $144 forward $138 $-1 #
edge $-1 $228 -0.481844249194328 $149 12.182665142380838 $143 $229 forward 7 unknown #
edge $-1 $149 116.04657642494482 $230 127.92626728110598 $82 $231 forward 7 unknown #
coedge $-1 $232 $233 $83 $147 forward $234 $-1 #
edge $-1 $150 79.026693861826004 $230 88.757967008799028 $146 $235 forward 7 unknown #
coedge $-1 $236 $84 $233 $237 forward $138 $-1 #
vertex $-1 $144 $238 #
vertex $-1 $237 $239 #
straight-curve $-1 47.689353512952124 18.033075588974093 10.381894548240112 1 0 0 I I #
face $-1 $240 $241 $18 $-1 $242 forward single #
loop $-1 $243 $92 $86 #
plane-surface $-1 -9.412357376203957 11.70082089318651 105.44168580337526 0.81915205242281985 0 0.57357642473473569 0.57357642473473569 0 -0.81915205242281985 forward_v I I I I #
coedge $-1 $244 $245 $246 $247 reversed $87 $-1 #
coedge $-1 $156 $156 $-1 $248 forward $89 $-1 #
edge $-1 $249 0 $249 6.2831853071796004 $90 $250 forward 7 unknown #
vertex $-1 $93 $251 #
ellipse-curve $-1 60.556178336437576 8.9869974521346876 5.5162579747536036 -0.81915205242281985 0 -0.57357642473473569 0.86036463710210354 0 -1.2287280786342298 1 I I #
face $-1 $252 $253 $19 $-1 $254 forward single #
loop $-1 $255 $256 $94 #
cone-surface $-1 58.346796479660597 8.9869974521346876 3.969232190546915 -0.81915205242281985 0 -0.57357642473473569 0.43018231855105177 0 -0.61436403931711492 1 I I -0.70710678118654757 0.70710678118654757 0.75 forward I I I I #
loop $-1 $-1 $257 $57 #
coedge $-1 $164 $164 $258 $259 reversed $95 $-1 #
coedge $-1 $165 $165 $-1 $260 forward $97 $-1 #
edge $-1 $261 0 $261 6.2831853071796004 $98 $262 forward 7 unknown #
loop $-1 $263 $100 $252 #
vertex $-1 $101 $264 #
ellipse-curve $-1 60.556178336437576 14.414644334238332 5.5162579747536036 -0.81915205242281985 0 -0.57357642473473569 0.86036463710210354 0 -1.2287280786342298 1 I I #
face $-1 $-1 $117 $15 $-1 $265 reversed single #
loop $-1 $-1 $186 $102 #
plane-surface $-1 0 39.807568562222386 0 0 -1 0 0 0 -1 forward_v I I I I #
coedge $-1 $266 $184 $187 $267 forward $103 $-1 #
coedge $-1 $190 $105 $106 $178 reversed $63 $-1 #
coedge $-1 $184 $266 $105 $176 reversed $103 $-1 #
edge $-1 $191 -10.381894548240115 $268 10.381894548240115 $175 $269 forward 7 unknown #
coedge $-1 $107 $106 $266 $270 forward $41 $-1 #
edge $-1 $182 -63.963133640552996 $268 63.963133640552996 $174 $271 forward 7 unknown #
coedge $-1 $187 $186 $107 $180 reversed $171 $-1 #
edge $-1 $272 -63.963133640552996 $181 63.963133640552996 $179 $273 forward 7 unknown #
vertex $-1 $109 $274 #
vertex $-1 $193 $275 #
straight-curve $-1 63.963133640552996 0 -10.381894548240115 0 -1 0 I I #
coedge $-1 $173 $175 $110 $185 reversed $103 $-1 #
edge $-1 $188 -39.807568562222386 $191 39.807568562222386 $184 $276 forward 7 unknown #
coedge $-1 $179 $111 $116 $194 forward $171 $-1 #
coedge $-1 $111 $179 $173 $267 reversed $171 $-1 #
vertex $-1 $112 $277 #
straight-curve $-1 0 39.807568562222386 10.381894548240115 -1 0 0 I I #
coedge $-1 $113 $174 $115 $193 reversed $63 $-1 #
vertex $-1 $185 $278 #
straight-curve $-1 0 -39.807568562222386 10.381894548240115 1 0 0 I I #
edge $-1 $118 -10.381894548240115 $182 10.381894548240115 $115 $279 forward 7 unknown #
edge $-1 $119 -10.381894548240115 $181 10.381894548240115 $116 $280 forward 7 unknown #
point $-1 63.963133640552996 -39.807568562222386 10.381894548240115 #
point $-1 63.963133640552996 39.807568562222386 10.381894548240115 #
face $-1 $281 $282 $16 $-1 $283 reversed single #
loop $-1 $-1 $284 $121 #
plane-surface $-1 0 0 10.381894548240115 0 0 1 1 0 0 forward_v I I I I #
coedge $-1 $285 $124 $208 $286 reversed $71 $-1 #
coedge $-1 $124 $285 $211 $287 forward $71 $-1 #
edge $-1 $214 -39.807568562222386 $209 39.807568562222386 $124 $288 forward 7 unknown #
coedge $-1 $289 $290 $125 $204 forward $282 $-1 #
edge $-1 $206 -39.807568562222386 $291 39.807568562222386 $203 $292 forward 7 unknown #
coedge $-1 $293 $126 $290 $294 reversed $122 $-1 #
vertex $-1 $127 $295 #
straight-curve $-1 -55.613406155735689 -39.807568562222386 -4.0980870864154397 0 0 -1 I I #
coedge $-1 $129 $296 $200 $286 forward $122 $-1 #
vertex $-1 $130 $297 #
straight-curve $-1 -29.894134949072171 -39.807568562222386 -6.0104537974216434 1 0 0 I I #
coedge $-1 $298 $131 $201 $287 reversed $213 $-1 #
coedge $-1 $131 $299 $133 $216 forward $213 $-1 #
loop $-1 $-1 $131 $281 #
vertex $-1 $202 $300 #
straight-curve $-1 -29.894134949072171 39.807568562222386 -6.0104537974216434 -1 0 0 I I #
edge $-1 $291 -6.2838074618246758 $135 -1.9123667110062037 $212 $301 forward 7 unknown #
point $-1 -55.613406155735689 -39.807568562222386 -6.0104537974216434 #
point $-1 -55.613406155735689 39.807568562222386 -6.0104537974216434 #
face $-1 $302 $303 $17 $-1 $304 forward single #
loop $-1 $-1 $305 $137 #
plane-surface $-1 -59.788269898144343 0 -6.0104537974216434 0 0 1 1 0 0 forward_v I I I I #
coedge $-1 $143 $306 $140 $225 forward $138 $-1 #
coedge $-1 $224 $140 $307 $308 reversed $79 $-1 #
coedge $-1 $140 $223 $141 $227 forward $79 $-1 #
edge $-1 $309 -16.273780127600872 $228 -9.4598695193700308 $222 $310 forward 7 unknown #
coedge $-1 $142 $141 $232 $311 reversed $49 $-1 #
edge $-1 $312 -127.92626728110598 $228 -116.04657642494482 $224 $313 forward 7 unknown #
vertex $-1 $144 $314 #
straight-curve $-1 57.149223032322155 5.8504104465932549 10.381894548240105 0 1 0 I I #
vertex $-1 $311 $315 #
straight-curve $-1 -9.412357376203957 18.033075588974093 105.44168580337526 0.57357642473473569 0 -0.81915205242281985 I I #
coedge $-1 $307 $146 $226 $311 forward $234 $-1 #
coedge $-1 $146 $316 $148 $237 reversed $234 $-1 #
loop $-1 $-1 $307 $317 #
straight-curve $-1 63.963133640552996 18.033075588974093 89.408588410066116 0 0 -1 I I #
coedge $-1 $318 $148 $319 $320 forward $138 $-1 #
edge $-1 $150 18.033075588974093 $321 39.807568562222386 $233 $322 forward 7 unknown #
point $-1 57.149223032322155 18.033075588974093 10.381894548240112 #
point $-1 63.963133640552996 18.033075588974093 10.381894548240115 #
face $-1 $323 $324 $18 $-1 $325 forward single #
loop $-1 $-1 $326 $152 #
plane-surface $-1 95.378707025904248 5.3685661973989269 178.81717682013223 0 1 0 0.81915205242281985 0 0.57357642473473569 forward_v I I I I #
loop $-1 $-1 $327 $86 #
coedge $-1 $245 $155 $328 $329 forward $87 $-1 #
coedge $-1 $155 $244 $330 $331 reversed $87 $-1 #
coedge $-1 $332 $333 $155 $247 forward $324 $-1 #
edge $-1 $334 9.4598695193700308 $335 16.273780127600872 $246 $336 forward 7 unknown #
edge $-1 $337 1 $337 0 $156 $-1 forward 7 unknown #
vertex $-1 $157 $338 #
ellipse-curve $-1 58.961160518977714 8.9869974521346876 4.3994145090979666 0.81915205242281985 0 0.57357642473473569 0.86036463710210354 0 -1.2287280786342298 1 I I #
point $-1 61.41654297353967 8.9869974521346876 4.2875298961193655 #
face $-1 $339 $167 $19 $-1 $340 forward single #
loop $-1 $-1 $341 $160 #
plane-surface $-1 95.378707025904248 18.033075588974093 178.81717682013223 0 -1 0 -0.81915205242281985 0 -0.57357642473473569 forward_v I I I I #
loop $-1 $-1 $342 $94 #
coedge $-1 $256 $256 $257 $343 forward $161 $-1 #
coedge $-1 $257 $257 $256 $343 reversed $163 $-1 #
coedge $-1 $258 $258 $164 $259 forward $263 $-1 #
edge $-1 $344 0 $344 6.2831853071796004 $258 $345 forward 7 unknown #
edge $-1 $346 1 $346 0 $165 $-1 forward 7 unknown #
vertex $-1 $166 $347 #
ellipse-curve $-1 58.961160518977714 14.414644334238332 4.3994145090979666 0.81915205242281985 0 0.57357642473473569 0.86036463710210354 0 -1.2287280786342298 1 I I #
loop $-1 $348 $258 $252 #
point $-1 61.41654297353967 14.414644334238332 4.2875298961193655 #
plane-surface $-1 63.963133640552996 0 0 -1 0 0 0 0 1 forward_v I I I I #
coedge $-1 $175 $173 $177 $270 reversed $103 $-1 #
edge $-1 $188 -10.381894548240115 $272 10.381894548240115 $187 $349 forward 7 unknown #
vertex $-1 $270 $350 #
straight-curve $-1 -63.963133640552996 -39.807568562222386 0 0 0 -1 I I #
edge $-1 $268 -39.807568562222386 $272 39.807568562222386 $266 $351 forward 7 unknown #
straight-curve $-1 0 -39.807568562222386 -10.381894548240115 -1 0 0 I I #
vertex $-1 $180 $352 #
straight-curve $-1 0 39.807568562222386 -10.381894548240115 1 0 0 I I #
point $-1 63.963133640552996 39.807568562222386 -10.381894548240115 #
point $-1 63.963133640552996 -39.807568562222386 -10.381894548240115 #
straight-curve $-1 -63.963133640552996 0 10.381894548240115 0 -1 0 I I #
point $-1 -63.963133640552996 39.807568562222386 10.381894548240115 #
point $-1 -63.963133640552996 -39.807568562222386 10.381894548240115 #
straight-curve $-1 63.963133640552996 -39.807568562222386 0 0 0 -1 I I #
straight-curve $-1 63.963133640552996 39.807568562222386 0 0 0 -1 I I #
face $-1 $353 $213 $16 $-1 $354 reversed single #
loop $-1 $-1 $203 $197 #
plane-surface $-1 0 0 -10.381894548240115 0 0 1 1 0 0 forward_v I I I I #
coedge $-1 $355 $356 $357 $358 forward $198 $-1 #
coedge $-1 $201 $200 $359 $360 reversed $71 $-1 #
edge $-1 $361 -10.381894548240115 $209 6.0104537974216434 $200 $362 forward 7 unknown #
edge $-1 $363 -10.381894548240115 $214 6.0104537974216434 $211 $364 forward 7 unknown #
straight-curve $-1 -63.963133640552996 0 -6.0104537974216434 0 -1 0 I I #
coedge $-1 $365 $203 $299 $366 forward $282 $-1 #
coedge $-1 $203 $365 $205 $294 forward $282 $-1 #
vertex $-1 $366 $367 #
straight-curve $-1 -55.613406155735689 0 -10.381894548240115 0 1 0 I I #
coedge $-1 $296 $205 $368 $369 reversed $122 $-1 #
edge $-1 $370 -63.963133640552996 $206 55.613406155735689 $205 $371 forward 7 unknown #
point $-1 -55.613406155735689 -39.807568562222386 -10.381894548240115 #
coedge $-1 $208 $293 $356 $372 reversed $122 $-1 #
point $-1 -63.963133640552996 -39.807568562222386 -6.0104537974216434 #
coedge $-1 $373 $211 $355 $374 reversed $213 $-1 #
coedge $-1 $212 $373 $289 $366 reversed $213 $-1 #
point $-1 -63.963133640552996 39.807568562222386 -6.0104537974216434 #
straight-curve $-1 -55.613406155735689 39.807568562222386 -4.0980870864154397 0 0 1 I I #
face $-1 $375 $376 $17 $-1 $377 reversed single #
loop $-1 $-1 $378 $219 #
plane-surface $-1 -55.613406155735689 0 -8.1961741728308795 -1 0 0 0 0 1 forward_v I I I I #
coedge $-1 $379 $380 $381 $382 reversed $220 $-1 #
coedge $-1 $222 $383 $384 $385 forward $138 $-1 #
coedge $-1 $384 $232 $223 $308 forward $234 $-1 #
edge $-1 $312 -88.757967008799028 $309 -79.026693861826004 $307 $386 forward 7 unknown #
vertex $-1 $308 $387 #
straight-curve $-1 47.689353512952124 5.3685661973989269 10.381894548240112 -1 0 0 I I #
edge $-1 $230 -12.182665142380838 $312 0.481844249194328 $232 $388 forward 7 unknown #
vertex $-1 $311 $389 #
straight-curve $-1 -9.412357376203957 5.3685661973989269 105.44168580337526 -0.57357642473473569 0 0.81915205242281985 I I #
point $-1 57.149223032322155 5.3685661973989269 10.381894548240112 #
point $-1 63.963133640552996 18.033075588974093 0.65062140126708812 #
coedge $-1 $233 $390 $391 $392 reversed $234 $-1 #
face $-1 $-1 $234 $17 $-1 $393 reversed single #
coedge $-1 $383 $236 $394 $395 forward $138 $-1 #
coedge $-1 $391 $396 $236 $320 reversed $397 $-1 #
edge $-1 $321 -63.963133640552996 $398 63.963133640552996 $319 $399 forward 7 unknown #
vertex $-1 $237 $400 #
straight-curve $-1 63.963133640552996 0 10.381894548240115 0 1 0 I I #
face $-1 $401 $402 $18 $-1 $403 reversed single #
loop $-1 $-1 $404 $240 #
plane-surface $-1 0 0 10.381894548240115 0 0 1 1 0 0 forward_v I I I I #
coedge $-1 $405 $406 $404 $407 reversed $241 $-1 #
coedge $-1 $408 $328 $333 $409 reversed $243 $-1 #
coedge $-1 $327 $410 $244 $329 reversed $243 $-1 #
edge $-1 $334 116.04657642494482 $411 127.92626728110598 $244 $412 forward 7 unknown #
coedge $-1 $413 $414 $245 $331 forward $415 $-1 #
edge $-1 $335 79.026693861826004 $411 88.757967008799028 $330 $416 forward 7 unknown #
coedge $-1 $417 $246 $414 $418 forward $324 $-1 #
coedge $-1 $246 $404 $327 $409 forward $324 $-1 #
vertex $-1 $409 $419 #
vertex $-1 $418 $420 #
straight-curve $-1 47.689353512952124 18.033075588974093 10.381894548240112 1 0 0 I I #
vertex $-1 $248 $421 #
point $-1 59.821525156079815 8.9869974521346876 3.170686430463737 #
face $-1 $422 $423 $19 $-1 $424 forward single #
plane-surface $-1 -9.412357376203957 11.70082089318651 105.44168580337526 0.81915205242281985 0 0.57357642473473569 0.57357642473473569 0 -0.81915205242281985 forward_v I I I I #
coedge $-1 $425 $426 $427 $428 reversed $253 $-1 #
coedge $-1 $342 $342 $-1 $429 forward $255 $-1 #
edge $-1 $430 0 $430 6.2831853071796004 $256 $431 forward 7 unknown #
vertex $-1 $259 $432 #
ellipse-curve $-1 60.556178336437576 8.9869974521346876 5.5162579747536036 -0.81915205242281985 0 -0.57357642473473569 0.86036463710210354 0 -1.2287280786342298 1 I I #
vertex $-1 $260 $433 #
point $-1 59.821525156079815 14.414644334238332 3.170686430463737 #
loop $-1 $-1 $434 $252 #
straight-curve $-1 -63.963133640552996 39.807568562222386 0 0 0 -1 I I #
point $-1 -63.963133640552996 -39.807568562222386 -10.381894548240115 #
straight-curve $-1 -63.963133640552996 0 -10.381894548240115 0 1 0 I I #
point $-1 -63.963133640552996 39.807568562222386 -10.381894548240115 #
face $-1 $-1 $435 $16 $-1 $436 reversed single #
plane-surface $-1 0 39.807568562222386 0 0 -1 0 0 0 -1 forward_v I I I I #
coedge $-1 $359 $284 $298 $374 forward $198 $-1 #
coedge $-1 $284 $359 $296 $372 forward $198 $-1 #
coedge $-1 $368 $437 $284 $358 reversed $435 $-1 #
edge $-1 $438 -39.807568562222386 $439 39.807568562222386 $357 $440 forward 7 unknown #
coedge $-1 $356 $355 $285 $360 forward $198 $-1 #
edge $-1 $363 -39.807568562222386 $361 39.807568562222386 $285 $441 forward 7 unknown #
vertex $-1 $360 $442 #
straight-curve $-1 -63.963133640552996 -39.807568562222386 0 0 0 -1 I I #
vertex $-1 $374 $443 #
straight-curve $-1 -63.963133640552996 39.807568562222386 0 0 0 -1 I I #
coedge $-1 $290 $289 $444 $445 forward $282 $-1 #
edge $-1 $291 -55.613406155735689 $446 63.963133640552996 $299 $447 forward 7 unknown #
point $-1 -55.613406155735689 39.807568562222386 -10.381894548240115 #
coedge $-1 $444 $357 $293 $369 forward $435 $-1 #
edge $-1 $438 -10.381894548240115 $370 10.381894548240115 $368 $448 forward 7 unknown #
vertex $-1 $369 $449 #
straight-curve $-1 0 -39.807568562222386 -10.381894548240115 -1 0 0 I I #
edge $-1 $361 -63.963133640552996 $438 63.963133640552996 $296 $450 forward 7 unknown #
coedge $-1 $299 $298 $437 $451 forward $213 $-1 #
edge $-1 $439 -63.963133640552996 $363 63.963133640552996 $298 $452 forward 7 unknown #
face $-1 $453 $454 $17 $-1 $455 reversed single #
loop $-1 $-1 $456 $302 #
plane-surface $-1 -63.963133640552996 0 0 1 0 0 0 0 -1 forward_v I I I I #
coedge $-1 $381 $457 $458 $459 reversed $303 $-1 #
coedge $-1 $460 $305 $461 $462 reversed $220 $-1 #
coedge $-1 $305 $460 $463 $464 reversed $220 $-1 #
coedge $-1 $465 $378 $305 $382 forward $303 $-1 #
edge $-1 $466 -39.807568562222386 $467 39.807568562222386 $381 $468 forward 7 unknown #
coedge $-1 $306 $318 $469 $470 forward $138 $-1 #
coedge $-1 $471 $307 $306 $385 reversed $234 $-1 #
edge $-1 $472 -39.807568562222386 $309 5.3685661973989269 $384 $322 forward 7 unknown #
straight-curve $-1 63.963133640552996 5.3685661973989269 89.408588410066116 0 0 1 I I #
point $-1 63.963133640552996 5.3685661973989269 10.381894548240115 #
straight-curve $-1 63.963133640553004 5.8504104465932549 0.65062140126708101 0 -1 0 I I #
point $-1 63.963133640552996 5.3685661973989269 0.65062140126708812 #
coedge $-1 $316 $471 $473 $474 reversed $234 $-1 #
coedge $-1 $475 $319 $316 $392 forward $397 $-1 #
edge $-1 $321 -10.381894548240115 $476 10.381894548240115 $316 $477 forward 7 unknown #
plane-surface $-1 63.963133640552996 0 0 -1 0 0 0 0 1 forward_v I I I I #
coedge $-1 $478 $479 $318 $395 reversed $376 $-1 #
edge $-1 $398 -39.807568562222386 $480 39.807568562222386 $394 $481 forward 7 unknown #
coedge $-1 $319 $463 $478 $482 reversed $397 $-1 #
loop $-1 $-1 $463 $483 #
vertex $-1 $320 $484 #
straight-curve $-1 0 39.807568562222386 10.381894548240115 -1 0 0 I I #
point $-1 63.963133640552996 39.807568562222386 10.381894548240115 #
face $-1 $485 $486 $18 $-1 $487 forward single #
loop $-1 $-1 $488 $323 #
plane-surface $-1 -59.788269898144343 0 -6.0104537974216434 0 0 1 1 0 0 forward_v I I I I #
coedge $-1 $333 $489 $326 $407 forward $324 $-1 #
coedge $-1 $406 $326 $490 $491 reversed $241 $-1 #
coedge $-1 $326 $405 $408 $492 forward $241 $-1 #
edge $-1 $493 -16.273780127600872 $494 -9.4598695193700308 $404 $495 forward 7 unknown #
coedge $-1 $410 $327 $406 $492 reversed $243 $-1 #
edge $-1 $494 -0.481844249194328 $334 12.182665142380838 $333 $496 forward 7 unknown #
coedge $-1 $328 $408 $413 $497 reversed $243 $-1 #
vertex $-1 $497 $498 #
straight-curve $-1 -9.412357376203957 18.033075588974093 105.44168580337526 0.57357642473473569 0 -0.81915205242281985 I I #
coedge $-1 $490 $330 $410 $497 forward $415 $-1 #
coedge $-1 $330 $499 $332 $418 reversed $415 $-1 #
loop $-1 $-1 $490 $500 #
straight-curve $-1 63.963133640552996 18.033075588974093 89.408588410066116 0 0 -1 I I #
coedge $-1 $501 $332 $502 $503 forward $324 $-1 #
edge $-1 $335 18.033075588974093 $504 39.807568562222386 $414 $505 forward 7 unknown #
point $-1 57.149223032322155 18.033075588974093 10.381894548240112 #
point $-1 63.963133640552996 18.033075588974093 10.381894548240115 #
point $-1 57.73243244034348 8.9869974521346876 3.5390498719958634 #
face $-1 $506 $507 $19 $-1 $508 forward single #
loop $-1 $-1 $509 $339 #
plane-surface $-1 95.378707025904248 5.3685661973989269 178.81717682013223 0 1 0 0.81915205242281985 0 0.57357642473473569 forward_v I I I I #
coedge $-1 $426 $341 $510 $511 forward $253 $-1 #
coedge $-1 $341 $425 $512 $513 reversed $253 $-1 #
coedge $-1 $514 $515 $341 $428 forward $507 $-1 #
edge $-1 $516 9.4598695193700308 $517 16.273780127600872 $427 $518 forward 7 unknown #
edge $-1 $519 1 $519 0 $342 $-1 forward 7 unknown #
vertex $-1 $343 $520 #
ellipse-curve $-1 58.961160518977714 8.9869974521346876 4.3994145090979666 0.81915205242281985 0 0.57357642473473569 0.86036463710210354 0 -1.2287280786342298 1 I I #
point $-1 61.41654297353967 8.9869974521346876 4.2875298961193655 #
point $-1 57.73243244034348 14.414644334238332 3.5390498719958634 #
coedge $-1 $521 $510 $515 $522 reversed $348 $-1 #
loop $-1 $-1 $368 $353 #
plane-surface $-1 63.963133640552996 0 0 -1 0 0 0 0 1 forward_v I I I I #
coedge $-1 $357 $444 $373 $451 reversed $435 $-1 #
vertex $-1 $358 $523 #
vertex $-1 $358 $524 #
straight-curve $-1 63.963133640552996 0 10.381894548240115 0 1 0 I I #
straight-curve $-1 -63.963133640552996 0 10.381894548240115 0 -1 0 I I #
point $-1 -63.963133640552996 -39.807568562222386 10.381894548240115 #
point $-1 -63.963133640552996 39.807568562222386 10.381894548240115 #
coedge $-1 $437 $368 $365 $445 reversed $435 $-1 #
edge $-1 $446 -39.807568562222386 $370 39.807568562222386 $444 $525 forward 7 unknown #
vertex $-1 $445 $526 #
straight-curve $-1 0 39.807568562222386 -10.381894548240115 1 0 0 I I #
straight-curve $-1 63.963133640552996 -39.807568562222386 0 0 0 -1 I I #
point $-1 63.963133640552996 -39.807568562222386 -10.381894548240115 #
straight-curve $-1 0 -39.807568562222386 10.381894548240115 1 0 0 I I #
edge $-1 $439 -10.381894548240115 $446 10.381894548240115 $437 $527 forward 7 unknown #
straight-curve $-1 0 39.807568562222386 10.381894548240115 -1 0 0 I I #
face $-1 $483 $528 $17 $-1 $529 reversed single #
loop $-1 $-1 $461 $375 #
plane-surface $-1 0 -39.807568562222386 0 0 1 0 0 0 1 forward_v I I I I #
coedge $-1 $479 $478 $460 $530 forward $376 $-1 #
coedge $-1 $378 $465 $531 $532 reversed $303 $-1 #
coedge $-1 $533 $461 $378 $459 forward $454 $-1 #
edge $-1 $466 1.9123667110062037 $534 6.2838074618246758 $458 $535 forward 7 unknown #
coedge $-1 $380 $379 $456 $530 reversed $220 $-1 #
coedge $-1 $458 $536 $379 $462 forward $454 $-1 #
edge $-1 $537 -34.068998691480829 $466 -25.719271206663517 $461 $538 forward 7 unknown #
coedge $-1 $396 $539 $380 $464 forward $397 $-1 #
edge $-1 $467 25.719271206663517 $540 34.068998691480829 $463 $541 forward 7 unknown #
coedge $-1 $457 $381 $539 $542 reversed $303 $-1 #
vertex $-1 $462 $543 #
vertex $-1 $464 $544 #
straight-curve $-1 -55.613406155735689 0 -6.0104537974216434 0 1 0 I I #
coedge $-1 $536 $545 $383 $470 reversed $454 $-1 #
edge $-1 $480 -63.963133640552996 $472 63.963133640552996 $469 $546 forward 7 unknown #
coedge $-1 $390 $384 $545 $547 forward $234 $-1 #
vertex $-1 $385 $548 #
coedge $-1 $549 $550 $390 $474 forward $528 $-1 #
edge $-1 $476 -39.807568562222386 $551 39.807568562222386 $390 $552 forward 7 unknown #
coedge $-1 $539 $391 $550 $553 reversed $397 $-1 #
vertex $-1 $474 $554 #
straight-curve $-1 63.963133640552996 39.807568562222386 0 0 0 -1 I I #
coedge $-1 $456 $394 $396 $482 forward $376 $-1 #
coedge $-1 $394 $456 $536 $555 reversed $376 $-1 #
vertex $-1 $395 $556 #
straight-curve $-1 -63.963133640552996 0 10.381894548240115 0 -1 0 I I #
edge $-1 $398 -10.381894548240115 $540 6.0104537974216434 $396 $557 forward 7 unknown #
face $-1 $317 $397 $17 $-1 $558 reversed single #
point $-1 -63.963133640552996 39.807568562222386 10.381894548240115 #
face $-1 $559 $560 $18 $-1 $561 reversed single #
loop $-1 $-1 $562 $401 #
plane-surface $-1 -55.613406155735689 0 -8.1961741728308795 -1 0 0 0 0 1 forward_v I I I I #
coedge $-1 $563 $564 $565 $566 reversed $402 $-1 #
coedge $-1 $404 $567 $568 $569 forward $324 $-1 #
coedge $-1 $568 $413 $405 $491 forward $415 $-1 #
edge $-1 $570 -88.757967008799028 $493 -79.026693861826004 $490 $571 forward 7 unknown #
edge $-1 $570 -127.92626728110598 $494 -116.04657642494482 $406 $572 forward 7 unknown #
vertex $-1 $491 $573 #
vertex $-1 $409 $574 #
straight-curve $-1 47.689353512952124 5.3685661973989269 10.381894548240112 -1 0 0 I I #
straight-curve $-1 57.149223032322155 5.8504104465932549 10.381894548240105 0 1 0 I I #
edge $-1 $411 -12.182665142380838 $570 0.481844249194328 $413 $575 forward 7 unknown #
point $-1 63.963133640552996 18.033075588974093 0.65062140126708812 #
coedge $-1 $414 $576 $577 $578 reversed $415 $-1 #
face $-1 $-1 $415 $18 $-1 $579 reversed single #
coedge $-1 $567 $417 $580 $581 forward $324 $-1 #
coedge $-1 $577 $582 $417 $503 reversed $583 $-1 #
edge $-1 $504 -63.963133640552996 $584 63.963133640552996 $502 $585 forward 7 unknown #
vertex $-1 $418 $586 #
straight-curve $-1 63.963133640552996 0 10.381894548240115 0 1 0 I I #
face $-1 $587 $588 $19 $-1 $589 reversed single #
loop $-1 $-1 $590 $422 #
plane-surface $-1 0 0 10.381894548240115 0 0 1 1 0 0 forward_v I I I I #
coedge $-1 $591 $592 $590 $593 reversed $423 $-1 #
coedge $-1 $434 $594 $425 $511 reversed $348 $-1 #
edge $-1 $516 116.04657642494482 $595 127.92626728110598 $425 $596 forward 7 unknown #
coedge $-1 $597 $598 $426 $513 forward $599 $-1 #
edge $-1 $517 79.026693861826004 $595 88.757967008799028 $512 $600 forward 7 unknown #
coedge $-1 $601 $427 $598 $602 forward $507 $-1 #
coedge $-1 $427 $590 $434 $522 forward $507 $-1 #
vertex $-1 $522 $603 #
vertex $-1 $602 $604 #
straight-curve $-1 47.689353512952124 18.033075588974093 10.381894548240112 1 0 0 I I #
vertex $-1 $429 $605 #
point $-1 59.821525156079815 8.9869974521346876 3.170686430463737 #
coedge $-1 $594 $434 $592 $606 reversed $348 $-1 #
edge $-1 $607 -0.481844249194328 $516 12.182665142380838 $515 $608 forward 7 unknown #
point $-1 63.963133640552996 -39.807568562222386 10.381894548240115 #
point $-1 63.963133640552996 39.807568562222386 10.381894548240115 #
straight-curve $-1 63.963133640552996 0 -10.381894548240115 0 -1 0 I I #
point $-1 63.963133640552996 39.807568562222386 -10.381894548240115 #
straight-curve $-1 63.963133640552996 39.807568562222386 0 0 0 -1 I I #
loop $-1 $-1 $531 $453 #
plane-surface $-1 0 0 -10.381894548240115 0 0 1 1 0 0 forward_v I I I I #
edge $-1 $540 -39.807568562222386 $537 39.807568562222386 $456 $609 forward 7 unknown #
coedge $-1 $550 $549 $457 $532 forward $528 $-1 #
edge $-1 $534 -39.807568562222386 $610 39.807568562222386 $531 $611 forward 7 unknown #
coedge $-1 $545 $458 $549 $612 reversed $454 $-1 #
vertex $-1 $459 $613 #
straight-curve $-1 -55.613406155735689 -39.807568562222386 -4.0980870864154397 0 0 -1 I I #
coedge $-1 $461 $469 $479 $555 forward $454 $-1 #
vertex $-1 $462 $614 #
straight-curve $-1 -29.894134949072171 -39.807568562222386 -6.0104537974216434 1 0 0 I I #
coedge $-1 $463 $475 $465 $542 forward $397 $-1 #
vertex $-1 $530 $615 #
straight-curve $-1 -29.894134949072171 39.807568562222386 -6.0104537974216434 -1 0 0 I I #
edge $-1 $610 -6.2838074618246758 $467 -1.9123667110062037 $539 $616 forward 7 unknown #
point $-1 -55.613406155735689 -39.807568562222386 -6.0104537974216434 #
point $-1 -55.613406155735689 39.807568562222386 -6.0104537974216434 #
coedge $-1 $469 $533 $471 $547 reversed $454 $-1 #
straight-curve $-1 0 -39.807568562222386 10.381894548240115 1 0 0 I I #
edge $-1 $472 -10.381894548240115 $551 10.381894548240115 $471 $617 forward 7 unknown #
point $-1 63.963133640552996 -39.807568562222386 10.381894548240115 #
coedge $-1 $531 $473 $533 $612 forward $528 $-1 #
coedge $-1 $473 $531 $475 $553 forward $528 $-1 #
vertex $-1 $547 $618 #
straight-curve $-1 63.963133640552996 0 -10.381894548240115 0 -1 0 I I #
edge $-1 $610 -55.613406155735689 $476 63.963133640552996 $475 $619 forward 7 unknown #
point $-1 63.963133640552996 39.807568562222386 -10.381894548240115 #
edge $-1 $480 -10.381894548240115 $537 6.0104537974216434 $479 $620 forward 7 unknown #
point $-1 -63.963133640552996 -39.807568562222386 10.381894548240115 #
straight-curve $-1 -63.963133640552996 39.807568562222386 0 0 0 -1 I I #
plane-surface $-1 0 39.807568562222386 0 0 -1 0 0 0 -1 forward_v I I I I #
face $-1 $621 $622 $18 $-1 $623 reversed single #
loop $-1 $-1 $624 $485 #
plane-surface $-1 -63.963133640552996 0 0 1 0 0 0 0 -1 forward_v I I I I #
coedge $-1 $565 $625 $626 $627 reversed $486 $-1 #
coedge $-1 $628 $488 $629 $630 reversed $402 $-1 #
coedge $-1 $488 $628 $631 $632 reversed $402 $-1 #
coedge $-1 $633 $562 $488 $566 forward $486 $-1 #
edge $-1 $634 -39.807568562222386 $635 39.807568562222386 $565 $636 forward 7 unknown #
coedge $-1 $489 $501 $637 $638 forward $324 $-1 #
coedge $-1 $639 $490 $489 $569 reversed $415 $-1 #
edge $-1 $640 -39.807568562222386 $493 5.3685661973989269 $568 $505 forward 7 unknown #
vertex $-1 $497 $641 #
straight-curve $-1 63.963133640552996 5.3685661973989269 89.408588410066116 0 0 1 I I #
straight-curve $-1 -9.412357376203957 5.3685661973989269 105.44168580337526 -0.57357642473473569 0 0.81915205242281985 I I #
point $-1 63.963133640552996 5.3685661973989269 10.381894548240115 #
point $-1 57.149223032322155 5.3685661973989269 10.381894548240112 #
straight-curve $-1 63.963133640553004 5.8504104465932549 0.65062140126708101 0 -1 0 I I #
coedge $-1 $499 $639 $642 $643 reversed $415 $-1 #
coedge $-1 $644 $502 $499 $578 forward $583 $-1 #
edge $-1 $504 -10.381894548240115 $645 10.381894548240115 $499 $646 forward 7 unknown #
plane-surface $-1 63.963133640552996 0 0 -1 0 0 0 0 1 forward_v I I I I #
coedge $-1 $647 $648 $501 $581 reversed $560 $-1 #
edge $-1 $584 -39.807568562222386 $649 39.807568562222386 $580 $650 forward 7 unknown #
coedge $-1 $502 $631 $647 $651 reversed $583 $-1 #
loop $-1 $-1 $631 $652 #
vertex $-1 $503 $653 #
straight-curve $-1 0 39.807568562222386 10.381894548240115 -1 0 0 I I #
point $-1 63.963133640552996 39.807568562222386 10.381894548240115 #
face $-1 $654 $655 $19 $-1 $656 forward single #
loop $-1 $-1 $657 $506 #
plane-surface $-1 -59.788269898144343 0 -6.0104537974216434 0 0 1 1 0 0 forward_v I I I I #
coedge $-1 $515 $658 $509 $593 forward $507 $-1 #
coedge $-1 $592 $509 $659 $660 reversed $423 $-1 #
coedge $-1 $509 $591 $521 $606 forward $423 $-1 #
edge $-1 $661 -16.273780127600872 $607 -9.4598695193700308 $590 $662 forward 7 unknown #
coedge $-1 $510 $521 $597 $663 reversed $348 $-1 #
vertex $-1 $663 $664 #
straight-curve $-1 -9.412357376203957 18.033075588974093 105.44168580337526 0.57357642473473569 0 -0.81915205242281985 I I #
coedge $-1 $659 $512 $594 $663 forward $599 $-1 #
coedge $-1 $512 $665 $514 $602 reversed $599 $-1 #
loop $-1 $-1 $659 $666 #
straight-curve $-1 63.963133640552996 18.033075588974093 89.408588410066116 0 0 -1 I I #
coedge $-1 $667 $514 $668 $669 forward $507 $-1 #
edge $-1 $517 18.033075588974093 $670 39.807568562222386 $598 $671 forward 7 unknown #
point $-1 57.149223032322155 18.033075588974093 10.381894548240112 #
point $-1 63.963133640552996 18.033075588974093 10.381894548240115 #
point $-1 57.73243244034348 8.9869974521346876 3.5390498719958634 #
edge $-1 $672 -127.92626728110598 $607 -116.04657642494482 $592 $673 forward 7 unknown #
vertex $-1 $522 $674 #
straight-curve $-1 57.149223032322155 5.8504104465932549 10.381894548240105 0 1 0 I I #
straight-curve $-1 -63.963133640552996 0 -6.0104537974216434 0 -1 0 I I #
vertex $-1 $553 $675 #
straight-curve $-1 -55.613406155735689 0 -10.381894548240115 0 1 0 I I #
edge $-1 $551 -63.963133640552996 $534 55.613406155735689 $533 $676 forward 7 unknown #
point $-1 -55.613406155735689 -39.807568562222386 -10.381894548240115 #
point $-1 -63.963133640552996 -39.807568562222386 -6.0104537974216434 #
point $-1 -63.963133640552996 39.807568562222386 -6.0104537974216434 #
straight-curve $-1 -55.613406155735689 39.807568562222386 -4.0980870864154397 0 0 1 I I #
straight-curve $-1 63.963133640552996 -39.807568562222386 0 0 0 -1 I I #
point $-1 63.963133640552996 -39.807568562222386 -10.381894548240115 #
straight-curve $-1 0 39.807568562222386 -10.381894548240115 1 0 0 I I #
straight-curve $-1 -63.963133640552996 -39.807568562222386 0 0 0 -1 I I #
face $-1 $652 $677 $18 $-1 $678 reversed single #
loop $-1 $-1 $629 $559 #
plane-surface $-1 0 -39.807568562222386 0 0 1 0 0 0 1 forward_v I I I I #
coedge $-1 $648 $647 $628 $679 forward $560 $-1 #
coedge $-1 $562 $633 $680 $681 reversed $486 $-1 #
coedge $-1 $682 $629 $562 $627 forward $622 $-1 #
edge $-1 $634 1.9123667110062037 $683 6.2838074618246758 $626 $684 forward 7 unknown #
coedge $-1 $564 $563 $624 $679 reversed $402 $-1 #
coedge $-1 $626 $685 $563 $630 forward $622 $-1 #
edge $-1 $686 -34.068998691480829 $634 -25.719271206663517 $629 $687 forward 7 unknown #
coedge $-1 $582 $688 $564 $632 forward $583 $-1 #
edge $-1 $635 25.719271206663517 $689 34.068998691480829 $631 $690 forward 7 unknown #
coedge $-1 $625 $565 $688 $691 reversed $486 $-1 #
vertex $-1 $630 $692 #
vertex $-1 $632 $693 #
straight-curve $-1 -55.613406155735689 0 -6.0104537974216434 0 1 0 I I #
coedge $-1 $685 $694 $567 $638 reversed $622 $-1 #
edge $-1 $649 -63.963133640552996 $640 63.963133640552996 $637 $695 forward 7 unknown #
coedge $-1 $576 $568 $694 $696 forward $415 $-1 #
vertex $-1 $569 $697 #
point $-1 63.963133640552996 5.3685661973989269 0.65062140126708812 #
coedge $-1 $698 $699 $576 $643 forward $677 $-1 #
edge $-1 $645 -39.807568562222386 $700 39.807568562222386 $576 $701 forward 7 unknown #
coedge $-1 $688 $577 $699 $702 reversed $583 $-1 #
vertex $-1 $643 $703 #
straight-curve $-1 63.963133640552996 39.807568562222386 0 0 0 -1 I I #
coedge $-1 $624 $580 $582 $651 forward $560 $-1 #
coedge $-1 $580 $624 $685 $704 reversed $560 $-1 #
vertex $-1 $581 $705 #
straight-curve $-1 -63.963133640552996 0 10.381894548240115 0 -1 0 I I #
edge $-1 $584 -10.381894548240115 $689 6.0104537974216434 $582 $706 forward 7 unknown #
face $-1 $500 $583 $18 $-1 $707 reversed single #
point $-1 -63.963133640552996 39.807568562222386 10.381894548240115 #
face $-1 $708 $709 $19 $-1 $710 reversed single #
loop $-1 $-1 $711 $587 #
plane-surface $-1 -55.613406155735689 0 -8.1961741728308795 -1 0 0 0 0 1 forward_v I I I I #
coedge $-1 $712 $713 $714 $715 reversed $588 $-1 #
coedge $-1 $590 $716 $717 $718 forward $507 $-1 #
coedge $-1 $717 $597 $591 $660 forward $599 $-1 #
edge $-1 $672 -88.757967008799028 $661 -79.026693861826004 $659 $719 forward 7 unknown #
vertex $-1 $660 $720 #
straight-curve $-1 47.689353512952124 5.3685661973989269 10.381894548240112 -1 0 0 I I #
edge $-1 $595 -12.182665142380838 $672 0.481844249194328 $597 $721 forward 7 unknown #
point $-1 63.963133640552996 18.033075588974093 0.65062140126708812 #
coedge $-1 $598 $722 $723 $724 reversed $599 $-1 #
face $-1 $-1 $599 $19 $-1 $725 reversed single #
coedge $-1 $716 $601 $726 $727 forward $507 $-1 #
coedge $-1 $723 $728 $601 $669 reversed $729 $-1 #
edge $-1 $670 -63.963133640552996 $730 63.963133640552996 $668 $731 forward 7 unknown #
vertex $-1 $602 $732 #
straight-curve $-1 63.963133640552996 0 10.381894548240115 0 1 0 I I #
vertex $-1 $663 $733 #
straight-curve $-1 -9.412357376203957 5.3685661973989269 105.44168580337526 -0.57357642473473569 0 0.81915205242281985 I I #
point $-1 57.149223032322155 5.3685661973989269 10.381894548240112 #
point $-1 -55.613406155735689 39.807568562222386 -10.381894548240115 #
straight-curve $-1 0 -39.807568562222386 -10.381894548240115 -1 0 0 I I #
loop $-1 $-1 $680 $621 #
plane-surface $-1 0 0 -10.381894548240115 0 0 1 1 0 0 forward_v I I I I #
edge $-1 $689 -39.807568562222386 $686 39.807568562222386 $624 $734 forward 7 unknown #
coedge $-1 $699 $698 $625 $681 forward $677 $-1 #
edge $-1 $683 -39.807568562222386 $735 39.807568562222386 $680 $736 forward 7 unknown #
coedge $-1 $694 $626 $698 $737 reversed $622 $-1 #
vertex $-1 $627 $738 #
straight-curve $-1 -55.613406155735689 -39.807568562222386 -4.0980870864154397 0 0 -1 I I #
coedge $-1 $629 $637 $648 $704 forward $622 $-1 #
vertex $-1 $630 $739 #
straight-curve $-1 -29.894134949072171 -39.807568562222386 -6.0104537974216434 1 0 0 I I #
coedge $-1 $631 $644 $633 $691 forward $583 $-1 #
vertex $-1 $679 $740 #
straight-curve $-1 -29.894134949072171 39.807568562222386 -6.0104537974216434 -1 0 0 I I #
edge $-1 $735 -6.2838074618246758 $635 -1.9123667110062037 $688 $741 forward 7 unknown #
point $-1 -55.613406155735689 -39.807568562222386 -6.0104537974216434 #
point $-1 -55.613406155735689 39.807568562222386 -6.0104537974216434 #
coedge $-1 $637 $682 $639 $696 reversed $622 $-1 #
straight-curve $-1 0 -39.807568562222386 10.381894548240115 1 0 0 I I #
edge $-1 $640 -10.381894548240115 $700 10.381894548240115 $639 $742 forward 7 unknown #
point $-1 63.963133640552996 -39.807568562222386 10.381894548240115 #
coedge $-1 $680 $642 $682 $737 forward $677 $-1 #
coedge $-1 $642 $680 $644 $702 forward $677 $-1 #
vertex $-1 $696 $743 #
straight-curve $-1 63.963133640552996 0 -10.381894548240115 0 -1 0 I I #
edge $-1 $735 -55.613406155735689 $645 63.963133640552996 $644 $744 forward 7 unknown #
point $-1 63.963133640552996 39.807568562222386 -10.381894548240115 #
edge $-1 $649 -10.381894548240115 $686 6.0104537974216434 $648 $745 forward 7 unknown #
point $-1 -63.963133640552996 -39.807568562222386 10.381894548240115 #
straight-curve $-1 -63.963133640552996 39.807568562222386 0 0 0 -1 I I #
plane-surface $-1 0 39.807568562222386 0 0 -1 0 0 0 -1 forward_v I I I I #
face $-1 $746 $747 $19 $-1 $748 reversed single #
loop $-1 $-1 $749 $654 #
plane-surface $-1 -63.963133640552996 0 0 1 0 0 0 0 -1 forward_v I I I I #
coedge $-1 $714 $750 $751 $752 reversed $655 $-1 #
coedge $-1 $753 $657 $754 $755 reversed $588 $-1 #
coedge $-1 $657 $753 $756 $757 reversed $588 $-1 #
coedge $-1 $758 $711 $657 $715 forward $655 $-1 #
edge $-1 $759 -39.807568562222386 $760 39.807568562222386 $714 $761 forward 7 unknown #
coedge $-1 $658 $667 $762 $763 forward $507 $-1 #
coedge $-1 $764 $659 $658 $718 reversed $599 $-1 #
edge $-1 $765 -39.807568562222386 $661 5.3685661973989269 $717 $671 forward 7 unknown #
straight-curve $-1 63.963133640552996 5.3685661973989269 89.408588410066116 0 0 1 I I #
point $-1 63.963133640552996 5.3685661973989269 10.381894548240115 #
straight-curve $-1 63.963133640553004 5.8504104465932549 0.65062140126708101 0 -1 0 I I #
coedge $-1 $665 $764 $766 $767 reversed $599 $-1 #
coedge $-1 $768 $668 $665 $724 forward $729 $-1 #
edge $-1 $670 -10.381894548240115 $769 10.381894548240115 $665 $770 forward 7 unknown #
plane-surface $-1 63.963133640552996 0 0 -1 0 0 0 0 1 forward_v I I I I #
coedge $-1 $771 $772 $667 $727 reversed $709 $-1 #
edge $-1 $730 -39.807568562222386 $773 39.807568562222386 $726 $774 forward 7 unknown #
coedge $-1 $668 $756 $771 $775 reversed $729 $-1 #
loop $-1 $-1 $756 $776 #
vertex $-1 $669 $777 #
straight-curve $-1 0 39.807568562222386 10.381894548240115 -1 0 0 I I #
point $-1 63.963133640552996 39.807568562222386 10.381894548240115 #
point $-1 63.963133640552996 5.3685661973989269 0.65062140126708812 #
straight-curve $-1 -63.963133640552996 0 -6.0104537974216434 0 -1 0 I I #
vertex $-1 $702 $778 #
straight-curve $-1 -55.613406155735689 0 -10.381894548240115 0 1 0 I I #
edge $-1 $700 -63.963133640552996 $683 55.613406155735689 $682 $779 forward 7 unknown #
point $-1 -55.613406155735689 -39.807568562222386 -10.381894548240115 #
point $-1 -63.963133640552996 -39.807568562222386 -6.0104537974216434 #
point $-1 -63.963133640552996 39.807568562222386 -6.0104537974216434 #
straight-curve $-1 -55.613406155735689 39.807568562222386 -4.0980870864154397 0 0 1 I I #
straight-curve $-1 63.963133640552996 -39.807568562222386 0 0 0 -1 I I #
point $-1 63.963133640552996 -39.807568562222386 -10.381894548240115 #
straight-curve $-1 0 39.807568562222386 -10.381894548240115 1 0 0 I I #
straight-curve $-1 -63.963133640552996 -39.807568562222386 0 0 0 -1 I I #
face $-1 $776 $780 $19 $-1 $781 reversed single #
loop $-1 $-1 $754 $708 #
plane-surface $-1 0 -39.807568562222386 0 0 1 0 0 0 1 forward_v I I I I #
coedge $-1 $772 $771 $753 $782 forward $709 $-1 #
coedge $-1 $711 $758 $783 $784 reversed $655 $-1 #
coedge $-1 $785 $754 $711 $752 forward $747 $-1 #
edge $-1 $759 1.9123667110062037 $786 6.2838074618246758 $751 $787 forward 7 unknown #
coedge $-1 $713 $712 $749 $782 reversed $588 $-1 #
coedge $-1 $751 $788 $712 $755 forward $747 $-1 #
edge $-1 $789 -34.068998691480829 $759 -25.719271206663517 $754 $790 forward 7 unknown #
coedge $-1 $728 $791 $713 $757 forward $729 $-1 #
edge $-1 $760 25.719271206663517 $792 34.068998691480829 $756 $793 forward 7 unknown #
coedge $-1 $750 $714 $791 $794 reversed $655 $-1 #
vertex $-1 $755 $795 #
vertex $-1 $757 $796 #
straight-curve $-1 -55.613406155735689 0 -6.0104537974216434 0 1 0 I I #
coedge $-1 $788 $797 $716 $763 reversed $747 $-1 #
edge $-1 $773 -63.963133640552996 $765 63.963133640552996 $762 $798 forward 7 unknown #
coedge $-1 $722 $717 $797 $799 forward $599 $-1 #
vertex $-1 $718 $800 #
coedge $-1 $801 $802 $722 $767 forward $780 $-1 #
edge $-1 $769 -39.807568562222386 $803 39.807568562222386 $722 $804 forward 7 unknown #
coedge $-1 $791 $723 $802 $805 reversed $729 $-1 #
vertex $-1 $767 $806 #
straight-curve $-1 63.963133640552996 39.807568562222386 0 0 0 -1 I I #
coedge $-1 $749 $726 $728 $775 forward $709 $-1 #
coedge $-1 $726 $749 $788 $807 reversed $709 $-1 #
vertex $-1 $727 $808 #
straight-curve $-1 -63.963133640552996 0 10.381894548240115 0 -1 0 I I #
edge $-1 $730 -10.381894548240115 $792 6.0104537974216434 $728 $809 forward 7 unknown #
face $-1 $666 $729 $19 $-1 $810 reversed single #
point $-1 -63.963133640552996 39.807568562222386 10.381894548240115 #
point $-1 -55.613406155735689 39.807568562222386 -10.381894548240115 #
straight-curve $-1 0 -39.807568562222386 -10.381894548240115 -1 0 0 I I #
loop $-1 $-1 $783 $746 #
plane-surface $-1 0 0 -10.381894548240115 0 0 1 1 0 0 forward_v I I I I #
edge $-1 $792 -39.807568562222386 $789 39.807568562222386 $749 $811 forward 7 unknown #
coedge $-1 $802 $801 $750 $784 forward $780 $-1 #
edge $-1 $786 -39.807568562222386 $812 39.807568562222386 $783 $813 forward 7 unknown #
coedge $-1 $797 $751 $801 $814 reversed $747 $-1 #
vertex $-1 $752 $815 #
straight-curve $-1 -55.613406155735689 -39.807568562222386 -4.0980870864154397 0 0 -1 I I #
coedge $-1 $754 $762 $772 $807 forward $747 $-1 #
vertex $-1 $755 $816 #
straight-curve $-1 -29.894134949072171 -39.807568562222386 -6.0104537974216434 1 0 0 I I #
coedge $-1 $756 $768 $758 $794 forward $729 $-1 #
vertex $-1 $782 $817 #
straight-curve $-1 -29.894134949072171 39.807568562222386 -6.0104537974216434 -1 0 0 I I #
edge $-1 $812 -6.2838074618246758 $760 -1.9123667110062037 $791 $818 forward 7 unknown #
point $-1 -55.613406155735689 -39.807568562222386 -6.0104537974216434 #
point $-1 -55.613406155735689 39.807568562222386 -6.0104537974216434 #
coedge $-1 $762 $785 $764 $799 reversed $747 $-1 #
straight-curve $-1 0 -39.807568562222386 10.381894548240115 1 0 0 I I #
edge $-1 $765 -10.381894548240115 $803 10.381894548240115 $764 $819 forward 7 unknown #
point $-1 63.963133640552996 -39.807568562222386 10.381894548240115 #
coedge $-1 $783 $766 $785 $814 forward $780 $-1 #
coedge $-1 $766 $783 $768 $805 forward $780 $-1 #
vertex $-1 $799 $820 #
straight-curve $-1 63.963133640552996 0 -10.381894548240115 0 -1 0 I I #
edge $-1 $812 -55.613406155735689 $769 63.963133640552996 $768 $821 forward 7 unknown #
point $-1 63.963133640552996 39.807568562222386 -10.381894548240115 #
edge $-1 $773 -10.381894548240115 $789 6.0104537974216434 $772 $822 forward 7 unknown #
point $-1 -63.963133640552996 -39.807568562222386 10.381894548240115 #
straight-curve $-1 -63.963133640552996 39.807568562222386 0 0 0 -1 I I #
plane-surface $-1 0 39.807568562222386 0 0 -1 0 0 0 -1 forward_v I I I I #
straight-curve $-1 -63.963133640552996 0 -6.0104537974216434 0 -1 0 I I #
vertex $-1 $805 $823 #
straight-curve $-1 -55.613406155735689 0 -10.381894548240115 0 1 0 I I #
edge $-1 $803 -63.963133640552996 $786 55.613406155735689 $785 $824 forward 7 unknown #
point $-1 -55.613406155735689 -39.807568562222386 -10.381894548240115 #
point $-1 -63.963133640552996 -39.807568562222386 -6.0104537974216434 #
point $-1 -63.963133640552996 39.807568562222386 -6.0104537974216434 #
straight-curve $-1 -55.613406155735689 39.807568562222386 -4.0980870864154397 0 0 1 I I #
straight-curve $-1 63.963133640552996 -39.807568562222386 0 0 0 -1 I I #
point $-1 63.963133640552996 -39.807568562222386 -10.381894548240115 #
straight-curve $-1 0 39.807568562222386 -10.381894548240115 1 0 0 I I #
straight-curve $-1 -63.963133640552996 -39.807568562222386 0 0 0 -1 I I #
point $-1 -55.613406155735689 39.807568562222386 -10.381894548240115 #
straight-curve $-1 0 -39.807568562222386 -10.381894548240115 -1 0 0 I I #
End-of-ACIS-data 