500 0 7 0           
7 Unknown 11 ACIS 5.0 NT 24 Fri Mar 26 00:16:23 1999 
-1 9.9999999999999995e-007 1e-010 
body $-1 $7 $-1 $8 #
body $-1 $9 $-1 $10 #
body $-1 $11 $-1 $12 #
body $-1 $13 $-1 $14 #
body $-1 $15 $-1 $16 #
body $-1 $17 $-1 $18 #
body $-1 $19 $-1 $20 #
lump $-1 $-1 $21 $0 #
transform $-1 1 0 0 0 1 0 0 0 1 73.178502761925103 30.6221002371414 11.35934410786626 1 rotate no_reflect no_shear #
lump $-1 $-1 $22 $1 #
transform $-1 1 0 0 0 1 0 0 0 1 73.178502761925103 30.6221002371414 11.35934410786626 1 rotate no_reflect no_shear #
lump $-1 $-1 $23 $2 #
transform $-1 1 0 0 0 1 0 0 0 1 73.178502761925103 30.6221002371414 11.35934410786626 1 rotate no_reflect no_shear #
lump $-1 $-1 $24 $3 #
transform $-1 1 0 0 0 1 0 0 0 1 73.178502761925103 30.6221002371414 11.35934410786626 1 rotate no_reflect no_shear #
lump $-1 $-1 $25 $4 #
transform $-1 1 0 0 0 1 0 0 0 1 73.178502761925103 30.6221002371414 11.35934410786626 1 rotate no_reflect no_shear #
lump $-1 $-1 $26 $5 #
transform $-1 1 0 0 0 1 0 0 0 1 73.178502761925103 30.6221002371414 11.35934410786626 1 rotate no_reflect no_shear #
lump $-1 $-1 $27 $6 #
transform $-1 1 0 0 0 1 0 0 0 1 73.178502761925103 30.6221002371414 11.35934410786626 1 rotate no_reflect no_shear #
shell $-1 $-1 $-1 $28 $-1 $7 #
shell $-1 $-1 $-1 $29 $-1 $9 #
shell $-1 $-1 $-1 $30 $-1 $11 #
shell $-1 $-1 $-1 $31 $-1 $13 #
shell $-1 $-1 $-1 $32 $-1 $15 #
shell $-1 $-1 $-1 $33 $-1 $17 #
shell $-1 $-1 $-1 $34 $-1 $19 #
face $-1 $35 $36 $21 $-1 $37 forward single #
face $-1 $38 $39 $22 $-1 $40 reversed single #
face $-1 $41 $42 $23 $-1 $43 reversed single #
face $-1 $44 $45 $24 $-1 $46 reversed single #
face $-1 $47 $48 $25 $-1 $49 forward single #
face $-1 $50 $51 $26 $-1 $52 forward single #
face $-1 $53 $54 $27 $-1 $55 forward single #
face $-1 $56 $57 $21 $-1 $58 reversed single #
loop $-1 $-1 $59 $28 #
plane-surface $-1 0 0 11.35934410786626 0 0 1 1 0 0 forward_v I I I I #
face $-1 $60 $61 $22 $-1 $62 reversed single #
loop $-1 $-1 $63 $29 #
plane-surface $-1 -68.51562495368718 0 8.35934410786626 0 0 1 1 0 0 forward_v I I I I #
face $-1 $64 $65 $23 $-1 $66 reversed single #
loop $-1 $-1 $67 $30 #
plane-surface $-1 68.515624953687194 0 8.35934410786626 0 0 1 1 0 0 forward_v I I I I #
face $-1 $68 $69 $24 $-1 $70 reversed single #
loop $-1 $-1 $71 $31 #
plane-surface $-1 -34.918198356574493 -141.07913565179967 98.646004945389834 -1 0 0 0 -0.75470958851134928 0.65605901945558964 forward_v I I I I #
face $-1 $72 $73 $25 $-1 $74 forward single #
loop $-1 $75 $76 $32 #
cone-surface $-1 -58.065837387674307 -25.085384830594283 5.4795387723846947 0 0.75470958851134928 -0.65605901945558964 1.5 0 0 1 I I 0 1 1.5 forward I I I I #
face $-1 $77 $78 $26 $-1 $79 forward single #
loop $-1 $80 $81 $33 #
cone-surface $-1 -49.385472751011875 -25.085384830594283 5.4795387723846947 0 0.75470958851134928 -0.65605901945558964 1.5 0 0 1 I I 0 1 1.5 forward I I I I #
face $-1 $82 $83 $27 $-1 $84 forward single #
loop $-1 $85 $86 $34 #
cone-surface $-1 -40.705108114349443 -25.085384830594283 5.4795387723846947 0 0.75470958851134928 -0.65605901945558964 1.5 0 0 1 I I 0 1 1.5 forward I I I I #
face $-1 $87 $88 $21 $-1 $89 reversed single #
loop $-1 $-1 $90 $35 #
plane-surface $-1 0 0 -11.35934410786626 0 0 1 1 0 0 forward_v I I I I #
coedge $-1 $91 $92 $93 $94 forward $36 $-1 #
face $-1 $95 $96 $22 $-1 $97 reversed single #
loop $-1 $-1 $98 $38 #
plane-surface $-1 -63.852747145449257 0 9.85934410786626 -1 0 0 0 0 1 forward_v I I I I #
coedge $-1 $99 $100 $101 $102 forward $39 $-1 #
face $-1 $103 $104 $23 $-1 $105 forward single #
loop $-1 $-1 $106 $41 #
plane-surface $-1 63.852747145449271 0 9.85934410786626 1 0 0 0 0 -1 forward_v I I I I #
coedge $-1 $107 $108 $109 $110 reversed $42 $-1 #
face $-1 $111 $112 $24 $-1 $113 forward single #
loop $-1 $-1 $114 $44 #
plane-surface $-1 -49.385472751011875 -30.62210023714141 2.6271714109563504 0 -0.75470958851134928 0.65605901945558964 1 0 0 forward_v I I I I #
coedge $-1 $115 $116 $117 $118 reversed $45 $-1 #
face $-1 $-1 $119 $25 $-1 $120 forward single #
loop $-1 $121 $122 $47 #
cone-surface $-1 -58.065837387674307 -22.778018094692701 3.4737755207663916 0 0.75470958851134928 -0.65605901945558964 0.75 0 0 1 I I -0.70710678118654757 0.70710678118654757 0.75 forward I I I I #
loop $-1 $-1 $123 $32 #
coedge $-1 $76 $76 $124 $125 reversed $48 $-1 #
face $-1 $-1 $126 $26 $-1 $127 forward single #
loop $-1 $128 $129 $50 #
cone-surface $-1 -49.385472751011875 -22.778018094692701 3.4737755207663916 0 0.75470958851134928 -0.65605901945558964 0.75 0 0 1 I I -0.70710678118654757 0.70710678118654757 0.75 forward I I I I #
loop $-1 $-1 $130 $33 #
coedge $-1 $81 $81 $131 $132 reversed $51 $-1 #
face $-1 $-1 $133 $27 $-1 $134 forward single #
loop $-1 $135 $136 $53 #
cone-surface $-1 -40.705108114349443 -22.778018094692701 3.4737755207663916 0 0.75470958851134928 -0.65605901945558964 0.75 0 0 1 I I -0.70710678118654757 0.70710678118654757 0.75 forward I I I I #
loop $-1 $-1 $137 $34 #
coedge $-1 $86 $86 $138 $139 reversed $54 $-1 #
face $-1 $140 $141 $21 $-1 $142 reversed single #
loop $-1 $-1 $143 $56 #
plane-surface $-1 0 -30.6221002371414 0 0 1 0 0 0 1 forward_v I I I I #
coedge $-1 $144 $145 $146 $147 forward $57 $-1 #
coedge $-1 $148 $59 $149 $150 forward $36 $-1 #
coedge $-1 $59 $148 $151 $152 forward $36 $-1 #
coedge $-1 $153 $154 $59 $94 reversed $155 $-1 #
edge $-1 $156 -30.6221002371414 $157 30.6221002371414 $93 $158 forward 7 unknown #
face $-1 $159 $160 $22 $-1 $161 reversed single #
loop $-1 $-1 $162 $60 #
plane-surface $-1 0 30.6221002371414 0 0 -1 0 0 0 -1 forward_v I I I I #
coedge $-1 $101 $163 $164 $165 reversed $61 $-1 #
coedge $-1 $166 $63 $167 $168 reversed $39 $-1 #
coedge $-1 $63 $166 $169 $170 reversed $39 $-1 #
coedge $-1 $171 $98 $63 $102 reversed $61 $-1 #
edge $-1 $172 -30.6221002371414 $173 30.6221002371414 $101 $174 forward 7 unknown #
face $-1 $175 $176 $23 $-1 $177 reversed single #
loop $-1 $-1 $178 $64 #
plane-surface $-1 0 0 11.35934410786626 0 0 1 1 0 0 forward_v I I I I #
coedge $-1 $179 $180 $181 $182 reversed $65 $-1 #
coedge $-1 $183 $67 $184 $185 reversed $42 $-1 #
coedge $-1 $67 $183 $186 $187 reversed $42 $-1 #
coedge $-1 $188 $189 $67 $110 forward $190 $-1 #
edge $-1 $191 -30.6221002371414 $192 30.6221002371414 $109 $193 forward 7 unknown #
face $-1 $194 $195 $24 $-1 $196 forward single #
loop $-1 $-1 $117 $68 #
plane-surface $-1 0 0 11.35934410786626 0 0 1 1 0 0 forward_v I I I I #
coedge $-1 $197 $198 $199 $200 reversed $69 $-1 #
coedge $-1 $116 $71 $201 $202 reversed $45 $-1 #
coedge $-1 $71 $115 $197 $203 reversed $45 $-1 #
coedge $-1 $199 $204 $71 $118 forward $112 $-1 #
edge $-1 $205 39.917467588758441 $206 47.508229312816525 $117 $207 forward 7 unknown #
loop $-1 $-1 $124 $72 #
plane-surface $-1 -49.385472751011875 -30.62210023714141 2.6271714109563504 0 -0.75470958851134928 0.65605901945558964 1 0 0 forward_v I I I I #
loop $-1 $-1 $208 $47 #
coedge $-1 $122 $122 $123 $209 reversed $73 $-1 #
coedge $-1 $123 $123 $122 $209 forward $75 $-1 #
coedge $-1 $124 $124 $76 $125 forward $119 $-1 #
edge $-1 $210 4.264527247342554e-016 $210 6.2831853071796004 $124 $211 forward 7 unknown #
loop $-1 $-1 $131 $77 #
plane-surface $-1 -49.385472751011875 -30.62210023714141 2.6271714109563504 0 -0.75470958851134928 0.65605901945558964 1 0 0 forward_v I I I I #
loop $-1 $-1 $212 $50 #
coedge $-1 $129 $129 $130 $213 reversed $78 $-1 #
coedge $-1 $130 $130 $129 $213 forward $80 $-1 #
coedge $-1 $131 $131 $81 $132 forward $126 $-1 #
edge $-1 $214 4.264527247342554e-016 $214 6.2831853071796004 $131 $215 forward 7 unknown #
loop $-1 $-1 $138 $82 #
plane-surface $-1 -49.385472751011875 -30.62210023714141 2.6271714109563504 0 -0.75470958851134928 0.65605901945558964 1 0 0 forward_v I I I I #
loop $-1 $-1 $216 $53 #
coedge $-1 $136 $136 $137 $217 reversed $83 $-1 #
coedge $-1 $137 $137 $136 $217 forward $85 $-1 #
coedge $-1 $138 $138 $86 $139 forward $133 $-1 #
edge $-1 $218 4.264527247342554e-016 $218 6.2831853071796004 $138 $219 forward 7 unknown #
face $-1 $220 $221 $21 $-1 $222 reversed single #
loop $-1 $-1 $223 $87 #
plane-surface $-1 -73.178502761925103 0 0 1 0 0 0 0 -1 forward_v I I I I #
coedge $-1 $224 $151 $225 $226 forward $88 $-1 #
coedge $-1 $227 $90 $224 $228 forward $57 $-1 #
coedge $-1 $90 $227 $229 $230 forward $57 $-1 #
coedge $-1 $154 $153 $90 $147 reversed $155 $-1 #
edge $-1 $231 -30.6221002371414 $232 30.6221002371414 $146 $233 forward 7 unknown #
coedge $-1 $92 $91 $234 $235 forward $36 $-1 #
coedge $-1 $236 $237 $91 $150 reversed $221 $-1 #
edge $-1 $157 -73.178502761925103 $238 73.178502761925103 $149 $239 forward 7 unknown #
coedge $-1 $143 $240 $92 $152 reversed $88 $-1 #
edge $-1 $241 -73.178502761925103 $156 73.178502761925103 $151 $242 forward 7 unknown #
coedge $-1 $146 $93 $240 $243 forward $155 $-1 #
coedge $-1 $93 $146 $236 $244 reversed $155 $-1 #
loop $-1 $-1 $153 $220 #
vertex $-1 $94 $245 #
vertex $-1 $94 $246 #
straight-curve $-1 73.178502761925103 0 11.35934410786626 0 1 0 I I #
face $-1 $247 $248 $22 $-1 $249 forward single #
loop $-1 $-1 $250 $95 #
plane-surface $-1 -73.178502761925103 0 0 1 0 0 0 0 -1 forward_v I I I I #
coedge $-1 $169 $251 $171 $252 forward $96 $-1 #
coedge $-1 $98 $171 $253 $254 reversed $61 $-1 #
coedge $-1 $255 $167 $98 $165 forward $256 $-1 #
edge $-1 $173 3.42967205393313 $257 6.42967205393313 $164 $258 forward 7 unknown #
coedge $-1 $100 $99 $250 $259 reversed $39 $-1 #
coedge $-1 $164 $260 $99 $168 forward $256 $-1 #
edge $-1 $261 -38.920690285081513 $173 -29.594934668605667 $167 $262 forward 7 unknown #
coedge $-1 $263 $162 $100 $170 forward $96 $-1 #
edge $-1 $172 29.594934668605667 $264 38.920690285081513 $169 $265 forward 7 unknown #
coedge $-1 $163 $101 $162 $252 reversed $61 $-1 #
vertex $-1 $170 $266 #
vertex $-1 $168 $267 #
straight-curve $-1 -63.852747145449257 0 8.35934410786626 0 -1 0 I I #
face $-1 $268 $269 $23 $-1 $270 reversed single #
loop $-1 $-1 $271 $103 #
plane-surface $-1 0 -30.6221002371414 0 0 1 0 0 0 1 forward_v I I I I #
coedge $-1 $272 $273 $180 $274 forward $104 $-1 #
coedge $-1 $275 $106 $183 $276 reversed $65 $-1 #
coedge $-1 $106 $275 $178 $274 reversed $65 $-1 #
coedge $-1 $277 $186 $106 $182 forward $269 $-1 #
edge $-1 $278 3.42967205393313 $279 6.42967205393313 $181 $280 forward 7 unknown #
coedge $-1 $108 $107 $179 $276 forward $42 $-1 #
coedge $-1 $281 $271 $107 $185 forward $176 $-1 #
edge $-1 $282 29.594934668605674 $191 38.92069028508152 $184 $283 forward 7 unknown #
coedge $-1 $181 $284 $108 $187 forward $269 $-1 #
edge $-1 $192 -38.92069028508152 $278 -29.594934668605674 $186 $285 forward 7 unknown #
coedge $-1 $286 $109 $284 $287 reversed $190 $-1 #
coedge $-1 $109 $286 $281 $288 forward $190 $-1 #
loop $-1 $-1 $109 $268 #
vertex $-1 $185 $289 #
vertex $-1 $110 $290 #
straight-curve $-1 73.178502761925103 0 8.35934410786626 0 1 0 I I #
face $-1 $-1 $291 $24 $-1 $292 reversed single #
loop $-1 $-1 $293 $111 #
plane-surface $-1 -63.852747145449257 0 9.85934410786626 -1 0 0 0 0 1 forward_v I I I I #
coedge $-1 $294 $114 $116 $203 forward $69 $-1 #
coedge $-1 $114 $294 $293 $295 forward $69 $-1 #
coedge $-1 $296 $117 $114 $200 forward $112 $-1 #
edge $-1 $206 10.225461981068555 $297 39.16001076994332 $199 $298 forward 7 unknown #
coedge $-1 $299 $300 $115 $202 forward $291 $-1 #
edge $-1 $301 -46.695831061738552 $205 -37.96365836482866 $201 $302 forward 7 unknown #
edge $-1 $206 -11.570242156501498 $301 -1.6376804332752545e-014 $116 $303 forward 7 unknown #
coedge $-1 $117 $296 $299 $304 forward $112 $-1 #
vertex $-1 $202 $305 #
vertex $-1 $118 $306 #
straight-curve $-1 -34.918198356574493 -70.539567825899837 11.359344107866256 0 1 0 I I #
coedge $-1 $208 $208 $-1 $307 reversed $121 $-1 #
edge $-1 $308 0 $308 6.2831853071796004 $122 $309 forward 7 unknown #
vertex $-1 $125 $310 #
ellipse-curve $-1 -58.065837387674307 -26.826719375112358 6.9932577594113106 0 -0.75470958851134928 0.65605901945558964 1.5 0 0 1 I I #
coedge $-1 $212 $212 $-1 $311 reversed $128 $-1 #
edge $-1 $312 0 $312 6.2831853071796004 $129 $313 forward 7 unknown #
vertex $-1 $132 $314 #
ellipse-curve $-1 -49.385472751011875 -26.826719375112358 6.9932577594113106 0 -0.75470958851134928 0.65605901945558964 1.5 0 0 1 I I #
coedge $-1 $216 $216 $-1 $315 reversed $135 $-1 #
edge $-1 $316 0 $316 6.2831853071796004 $136 $317 forward 7 unknown #
vertex $-1 $139 $318 #
ellipse-curve $-1 -40.705108114349443 -26.826719375112358 6.9932577594113106 0 -0.75470958851134928 0.65605901945558964 1.5 0 0 1 I I #
face $-1 $-1 $155 $21 $-1 $319 reversed single #
loop $-1 $-1 $236 $140 #
plane-surface $-1 0 30.6221002371414 0 0 -1 0 0 0 -1 forward_v I I I I #
coedge $-1 $320 $234 $237 $321 forward $141 $-1 #
coedge $-1 $240 $143 $144 $228 reversed $88 $-1 #
coedge $-1 $234 $320 $143 $226 reversed $141 $-1 #
edge $-1 $241 -11.35934410786626 $322 11.35934410786626 $225 $323 forward 7 unknown #
coedge $-1 $145 $144 $320 $324 forward $57 $-1 #
edge $-1 $232 -73.178502761925103 $322 73.178502761925103 $224 $325 forward 7 unknown #
coedge $-1 $237 $236 $145 $230 reversed $221 $-1 #
edge $-1 $326 -73.178502761925103 $231 73.178502761925103 $229 $327 forward 7 unknown #
vertex $-1 $147 $328 #
vertex $-1 $243 $329 #
straight-curve $-1 73.178502761925103 0 -11.35934410786626 0 -1 0 I I #
coedge $-1 $223 $225 $148 $235 reversed $141 $-1 #
edge $-1 $238 -30.6221002371414 $241 30.6221002371414 $234 $330 forward 7 unknown #
coedge $-1 $229 $149 $154 $244 forward $221 $-1 #
coedge $-1 $149 $229 $223 $321 reversed $221 $-1 #
vertex $-1 $150 $331 #
straight-curve $-1 0 30.6221002371414 11.35934410786626 -1 0 0 I I #
coedge $-1 $151 $224 $153 $243 reversed $88 $-1 #
vertex $-1 $235 $332 #
straight-curve $-1 0 -30.6221002371414 11.35934410786626 1 0 0 I I #
edge $-1 $156 -11.35934410786626 $232 11.35934410786626 $153 $333 forward 7 unknown #
edge $-1 $157 -11.35934410786626 $231 11.35934410786626 $154 $334 forward 7 unknown #
point $-1 73.178502761925103 -30.6221002371414 11.35934410786626 #
point $-1 73.178502761925103 30.6221002371414 11.35934410786626 #
face $-1 $-1 $256 $22 $-1 $335 reversed single #
loop $-1 $-1 $253 $159 #
plane-surface $-1 0 0 11.35934410786626 0 0 1 1 0 0 forward_v I I I I #
coedge $-1 $336 $337 $166 $259 forward $160 $-1 #
coedge $-1 $162 $263 $338 $339 reversed $96 $-1 #
edge $-1 $340 -6.42967205393313 $172 -3.42967205393313 $162 $341 forward 7 unknown #
coedge $-1 $338 $342 $163 $254 forward $248 $-1 #
edge $-1 $257 -30.6221002371414 $340 30.6221002371414 $253 $343 forward 7 unknown #
coedge $-1 $260 $164 $342 $344 reversed $256 $-1 #
loop $-1 $-1 $164 $247 #
vertex $-1 $165 $345 #
straight-curve $-1 -63.852747145449257 -30.6221002371414 4.92967205393313 0 0 1 I I #
edge $-1 $264 -30.6221002371414 $261 30.6221002371414 $250 $346 forward 7 unknown #
coedge $-1 $167 $255 $336 $347 forward $256 $-1 #
vertex $-1 $259 $348 #
straight-curve $-1 -34.25781247684359 -30.6221002371414 8.35934410786626 1 0 0 I I #
coedge $-1 $251 $169 $337 $349 reversed $96 $-1 #
vertex $-1 $259 $350 #
straight-curve $-1 -34.25781247684359 30.6221002371414 8.35934410786626 -1 0 0 I I #
point $-1 -63.852747145449257 30.6221002371414 8.35934410786626 #
point $-1 -63.852747145449257 -30.6221002371414 8.35934410786626 #
face $-1 $-1 $190 $23 $-1 $351 reversed single #
loop $-1 $-1 $181 $175 #
plane-surface $-1 0 30.6221002371414 0 0 -1 0 0 0 -1 forward_v I I I I #
coedge $-1 $184 $352 $275 $353 forward $176 $-1 #
coedge $-1 $354 $178 $352 $355 forward $104 $-1 #
coedge $-1 $178 $354 $277 $356 forward $104 $-1 #
edge $-1 $279 -30.6221002371414 $357 30.6221002371414 $178 $358 forward 7 unknown #
coedge $-1 $180 $179 $271 $353 reversed $65 $-1 #
edge $-1 $282 -30.6221002371414 $278 30.6221002371414 $179 $359 forward 7 unknown #
coedge $-1 $284 $181 $273 $356 reversed $269 $-1 #
vertex $-1 $187 $360 #
vertex $-1 $182 $361 #
straight-curve $-1 63.852747145449271 30.6221002371414 4.92967205393313 0 0 1 I I #
coedge $-1 $352 $184 $189 $288 reversed $176 $-1 #
vertex $-1 $185 $362 #
straight-curve $-1 34.257812476843597 -30.6221002371414 8.35934410786626 1 0 0 I I #
coedge $-1 $186 $277 $188 $287 forward $269 $-1 #
straight-curve $-1 34.257812476843597 30.6221002371414 8.35934410786626 -1 0 0 I I #
coedge $-1 $189 $188 $354 $363 reversed $190 $-1 #
edge $-1 $364 -11.35934410786626 $192 -8.35934410786626 $188 $365 forward 7 unknown #
edge $-1 $366 -11.35934410786626 $191 -8.35934410786626 $189 $367 forward 7 unknown #
point $-1 73.178502761925117 -30.6221002371414 8.35934410786626 #
point $-1 73.178502761925117 30.6221002371414 8.35934410786626 #
loop $-1 $-1 $201 $194 #
plane-surface $-1 0 -30.6221002371414 0 0 1 0 0 0 1 forward_v I I I I #
coedge $-1 $368 $369 $198 $295 reversed $195 $-1 #
coedge $-1 $198 $197 $300 $370 reversed $69 $-1 #
edge $-1 $371 1.6376804332752545e-014 $297 11.570242156501498 $293 $372 forward 7 unknown #
coedge $-1 $204 $199 $369 $373 forward $112 $-1 #
vertex $-1 $373 $374 #
straight-curve $-1 -24.692736375505937 -23.031338513083309 11.35934410786626 -1 0 0 I I #
coedge $-1 $375 $201 $204 $304 reversed $291 $-1 #
coedge $-1 $201 $375 $294 $370 forward $291 $-1 #
vertex $-1 $202 $376 #
straight-curve $-1 -34.918198356574493 -30.622100237141396 49.323002472694917 0 0 1 I I #
straight-curve $-1 -34.918198356574493 -30.62210023714141 2.6271714109563504 0 -0.65605901945558964 -0.75470958851134928 I I #
edge $-1 $377 -63.852747145449257 $205 -34.918198356574493 $299 $378 forward 7 unknown #
point $-1 -34.918198356574493 -30.6221002371414 11.35934410786626 #
point $-1 -34.918198356574493 -23.031338513083313 11.35934410786626 #
edge $-1 $379 1 $379 0 $208 $-1 forward 7 unknown #
vertex $-1 $209 $380 #
ellipse-curve $-1 -58.065837387674307 -23.344050286076214 3.9658197853580841 0 -0.75470958851134928 0.65605901945558964 1.5 0 0 1 I I #
point $-1 -56.565837387674307 -26.826719375112351 6.9932577594113052 #
edge $-1 $381 1 $381 0 $212 $-1 forward 7 unknown #
vertex $-1 $213 $382 #
ellipse-curve $-1 -49.385472751011875 -23.344050286076214 3.9658197853580841 0 -0.75470958851134928 0.65605901945558964 1.5 0 0 1 I I #
point $-1 -47.885472751011875 -26.826719375112351 6.9932577594113052 #
edge $-1 $383 1 $383 0 $216 $-1 forward 7 unknown #
vertex $-1 $217 $384 #
ellipse-curve $-1 -40.705108114349443 -23.344050286076214 3.9658197853580841 0 -0.75470958851134928 0.65605901945558964 1.5 0 0 1 I I #
point $-1 -39.205108114349443 -26.826719375112351 6.9932577594113052 #
plane-surface $-1 73.178502761925103 0 0 -1 0 0 0 0 1 forward_v I I I I #
coedge $-1 $225 $223 $227 $324 reversed $141 $-1 #
edge $-1 $238 -11.35934410786626 $326 11.35934410786626 $237 $385 forward 7 unknown #
vertex $-1 $324 $386 #
straight-curve $-1 -73.178502761925103 -30.6221002371414 0 0 0 -1 I I #
edge $-1 $322 -30.6221002371414 $326 30.6221002371414 $320 $387 forward 7 unknown #
straight-curve $-1 0 -30.6221002371414 -11.35934410786626 -1 0 0 I I #
vertex $-1 $230 $388 #
straight-curve $-1 0 30.6221002371414 -11.35934410786626 1 0 0 I I #
point $-1 73.178502761925103 30.6221002371414 -11.35934410786626 #
point $-1 73.178502761925103 -30.6221002371414 -11.35934410786626 #
straight-curve $-1 -73.178502761925103 0 11.35934410786626 0 -1 0 I I #
point $-1 -73.178502761925103 30.6221002371414 11.35934410786626 #
point $-1 -73.178502761925103 -30.6221002371414 11.35934410786626 #
straight-curve $-1 73.178502761925103 -30.6221002371414 0 0 0 -1 I I #
straight-curve $-1 73.178502761925103 30.6221002371414 0 0 0 -1 I I #
plane-surface $-1 0 -30.6221002371414 0 0 1 0 0 0 1 forward_v I I I I #
coedge $-1 $389 $250 $260 $347 reversed $160 $-1 #
coedge $-1 $250 $389 $263 $349 forward $160 $-1 #
coedge $-1 $390 $253 $251 $339 forward $248 $-1 #
edge $-1 $340 63.852747145449257 $391 73.178502761925103 $251 $392 forward 7 unknown #
vertex $-1 $339 $393 #
straight-curve $-1 -63.852747145449257 30.6221002371414 4.92967205393313 0 0 -1 I I #
coedge $-1 $253 $390 $255 $344 forward $248 $-1 #
straight-curve $-1 -63.852747145449257 0 11.35934410786626 0 1 0 I I #
edge $-1 $394 -73.178502761925103 $257 -63.852747145449257 $255 $395 forward 7 unknown #
point $-1 -63.852747145449257 -30.6221002371414 11.35934410786626 #
straight-curve $-1 -73.178502761925103 0 8.35934410786626 0 -1 0 I I #
edge $-1 $394 -11.35934410786626 $261 -8.35934410786626 $336 $396 forward 7 unknown #
point $-1 -73.178502761925103 -30.6221002371414 8.35934410786626 #
edge $-1 $391 -11.35934410786626 $264 -8.35934410786626 $263 $397 forward 7 unknown #
point $-1 -73.178502761925103 30.6221002371414 8.35934410786626 #
plane-surface $-1 73.178502761925103 0 0 -1 0 0 0 0 1 forward_v I I I I #
coedge $-1 $271 $281 $272 $355 reversed $176 $-1 #
edge $-1 $357 -6.42967205393313 $282 -3.42967205393313 $271 $398 forward 7 unknown #
coedge $-1 $273 $272 $286 $363 forward $104 $-1 #
edge $-1 $357 63.852747145449271 $366 73.178502761925103 $352 $399 forward 7 unknown #
edge $-1 $364 -73.178502761925103 $279 -63.852747145449271 $277 $400 forward 7 unknown #
vertex $-1 $355 $401 #
straight-curve $-1 63.852747145449271 0 11.35934410786626 0 -1 0 I I #
straight-curve $-1 63.852747145449271 0 8.35934410786626 0 1 0 I I #
point $-1 63.852747145449271 30.6221002371414 8.35934410786626 #
point $-1 63.852747145449271 30.6221002371414 11.35934410786626 #
point $-1 63.852747145449271 -30.6221002371414 8.35934410786626 #
edge $-1 $366 -30.6221002371414 $364 30.6221002371414 $286 $402 forward 7 unknown #
vertex $-1 $363 $403 #
straight-curve $-1 73.178502761925103 30.6221002371414 0 0 0 -1 I I #
vertex $-1 $363 $404 #
straight-curve $-1 73.178502761925103 -30.6221002371414 0 0 0 -1 I I #
coedge $-1 $369 $293 $375 $405 reversed $195 $-1 #
coedge $-1 $293 $368 $296 $373 reversed $195 $-1 #
edge $-1 $371 -39.16001076994332 $301 -10.225461981068555 $300 $406 forward 7 unknown #
vertex $-1 $405 $407 #
straight-curve $-1 -63.852747145449257 -30.62210023714141 2.6271714109563504 0 0.65605901945558964 0.75470958851134928 I I #
edge $-1 $297 23.031338513083313 $377 30.6221002371414 $296 $408 forward 7 unknown #
point $-1 -63.852747145449257 -23.031338513083313 11.35934410786626 #
coedge $-1 $300 $299 $368 $405 forward $291 $-1 #
point $-1 -34.918198356574493 -30.6221002371414 2.6271714109563629 #
vertex $-1 $304 $409 #
straight-curve $-1 0 -30.6221002371414 11.35934410786626 1 0 0 I I #
vertex $-1 $307 $410 #
point $-1 -56.565837387674307 -23.344050286076214 3.9658197853580841 #
vertex $-1 $311 $411 #
point $-1 -47.885472751011875 -23.344050286076214 3.9658197853580841 #
vertex $-1 $315 $412 #
point $-1 -39.205108114349443 -23.344050286076214 3.9658197853580841 #
straight-curve $-1 -73.178502761925103 30.6221002371414 0 0 0 -1 I I #
point $-1 -73.178502761925103 -30.6221002371414 -11.35934410786626 #
straight-curve $-1 -73.178502761925103 0 -11.35934410786626 0 1 0 I I #
point $-1 -73.178502761925103 30.6221002371414 -11.35934410786626 #
coedge $-1 $337 $336 $390 $413 reversed $160 $-1 #
coedge $-1 $342 $338 $389 $413 forward $248 $-1 #
vertex $-1 $339 $414 #
straight-curve $-1 0 30.6221002371414 11.35934410786626 -1 0 0 I I #
point $-1 -63.852747145449257 30.6221002371414 11.35934410786626 #
vertex $-1 $413 $415 #
straight-curve $-1 0 -30.6221002371414 11.35934410786626 1 0 0 I I #
straight-curve $-1 -73.178502761925103 -30.6221002371414 0 0 0 -1 I I #
straight-curve $-1 -73.178502761925103 30.6221002371414 0 0 0 -1 I I #
straight-curve $-1 63.852747145449271 -30.6221002371414 4.92967205393313 0 0 -1 I I #
straight-curve $-1 0 -30.6221002371414 11.35934410786626 1 0 0 I I #
straight-curve $-1 0 30.6221002371414 11.35934410786626 -1 0 0 I I #
point $-1 63.852747145449271 -30.6221002371414 11.35934410786626 #
straight-curve $-1 73.178502761925103 0 11.35934410786626 0 1 0 I I #
point $-1 73.178502761925103 30.6221002371414 11.35934410786626 #
point $-1 73.178502761925103 -30.6221002371414 11.35934410786626 #
edge $-1 $377 37.96365836482866 $371 46.695831061738552 $375 $416 forward 7 unknown #
straight-curve $-1 -24.692736375505937 -30.6221002371414 2.6271714109563593 1 0 0 I I #
point $-1 -63.852747145449257 -30.6221002371414 2.6271714109563629 #
straight-curve $-1 -63.852747145449257 0 11.35934410786626 0 -1 0 I I #
point $-1 -63.852747145449257 -30.6221002371414 11.35934410786626 #
point $-1 -58.065837387674307 -22.211985903309188 2.9817312561746991 #
point $-1 -49.385472751011875 -22.211985903309188 2.9817312561746991 #
point $-1 -40.705108114349443 -22.211985903309188 2.9817312561746991 #
edge $-1 $391 -30.6221002371414 $394 30.6221002371414 $389 $417 forward 7 unknown #
point $-1 -73.178502761925103 30.6221002371414 11.35934410786626 #
point $-1 -73.178502761925103 -30.6221002371414 11.35934410786626 #
straight-curve $-1 -63.852747145449257 -30.622100237141396 49.323002472694917 0 0 -1 I I #
straight-curve $-1 -73.178502761925103 0 11.35934410786626 0 -1 0 I I #
End-of-ACIS-data 