500 0 5 0           
7 Unknown 11 ACIS 5.0 NT 24 Thu Mar 25 21:42:37 1999 
-1 9.9999999999999995e-007 1e-010 
body $-1 $5 $-1 $6 #
body $-1 $7 $-1 $8 #
body $-1 $9 $-1 $10 #
body $-1 $11 $-1 $12 #
body $-1 $13 $-1 $14 #
lump $-1 $-1 $15 $0 #
transform $-1 1 0 0 0 1 0 0 0 1 45.434736167485582 22.229284733696861 5.0401394085673834 1 rotate no_reflect no_shear #
lump $-1 $-1 $16 $1 #
transform $-1 1 0 0 0 1 0 0 0 1 45.434736167485582 22.229284733696861 5.0401394085673834 1 rotate no_reflect no_shear #
lump $-1 $-1 $17 $2 #
transform $-1 1 0 0 0 1 0 0 0 1 45.434736167485582 22.229284733696861 5.0401394085673834 1 rotate no_reflect no_shear #
lump $-1 $-1 $18 $3 #
transform $-1 1 0 0 0 1 0 0 0 1 45.434736167485582 22.229284733696861 5.0401394085673834 1 rotate no_reflect no_shear #
lump $-1 $-1 $19 $4 #
transform $-1 1 0 0 0 1 0 0 0 1 45.434736167485582 22.229284733696861 5.0401394085673834 1 rotate no_reflect no_shear #
shell $-1 $-1 $-1 $20 $-1 $5 #
shell $-1 $-1 $-1 $21 $-1 $7 #
shell $-1 $-1 $-1 $22 $-1 $9 #
shell $-1 $-1 $-1 $23 $-1 $11 #
shell $-1 $-1 $-1 $24 $-1 $13 #
face $-1 $25 $26 $15 $-1 $27 forward single #
face $-1 $28 $29 $16 $-1 $30 forward single #
face $-1 $31 $32 $17 $-1 $33 reversed single #
face $-1 $34 $35 $18 $-1 $36 forward single #
face $-1 $37 $38 $19 $-1 $39 forward single #
face $-1 $40 $41 $15 $-1 $42 reversed single #
loop $-1 $-1 $43 $20 #
plane-surface $-1 0 0 5.0401394085673834 0 0 1 1 0 0 forward_v I I I I #
face $-1 $44 $45 $16 $-1 $46 reversed single #
loop $-1 $-1 $47 $21 #
plane-surface $-1 0 -20.560759710817862 1.4670478676835514 0 0 1 1 0 0 forward_v I I I I #
face $-1 $48 $49 $17 $-1 $50 reversed single #
loop $-1 $-1 $51 $22 #
plane-surface $-1 -119.87065093325587 14.486164740411326 52.602744094855076 0 1 0 -0.81915205242281985 0 0.57357642473473569 forward_v I I I I #
face $-1 $52 $53 $18 $-1 $54 forward single #
loop $-1 $55 $56 $23 #
cone-surface $-1 -43.313746620796202 16.698484738492905 2.3933832787491141 0.81915205242281985 0 -0.57357642473473569 0.57357642473473569 0 0.81915205242281985 1 I I 0 1 1 forward I I I I #
face $-1 $57 $58 $19 $-1 $59 forward single #
loop $-1 $60 $61 $24 #
cone-surface $-1 -43.313746620796202 20.016964735615279 2.3933832787491141 0.81915205242281985 0 -0.57357642473473569 0.57357642473473569 0 0.81915205242281985 1 I I 0 1 1 forward I I I I #
face $-1 $62 $63 $15 $-1 $64 reversed single #
loop $-1 $-1 $65 $25 #
plane-surface $-1 0 0 -5.0401394085673834 0 0 1 1 0 0 forward_v I I I I #
coedge $-1 $66 $67 $68 $69 forward $26 $-1 #
face $-1 $70 $71 $16 $-1 $72 reversed single #
loop $-1 $-1 $73 $28 #
plane-surface $-1 0 -20.560759710817862 -1.5329521323164481 0 0 1 1 0 0 forward_v I I I I #
coedge $-1 $74 $75 $76 $77 reversed $29 $-1 #
face $-1 $78 $79 $17 $-1 $80 forward single #
loop $-1 $-1 $81 $31 #
plane-surface $-1 -45.434736167485596 18.357724737054095 0.48215703543034039 -0.81915205242281985 0 0.57357642473473569 0.57357642473473569 0 0.81915205242281985 forward_v I I I I #
coedge $-1 $82 $83 $84 $85 reversed $32 $-1 #
face $-1 $-1 $86 $18 $-1 $87 forward single #
loop $-1 $88 $89 $34 #
cone-surface $-1 -42.378947808080774 16.698484738492905 1.7388301231319998 0.81915205242281985 0 -0.57357642473473569 0.28678821236736785 0 0.40957602621140993 1 I I -0.70710678118654746 0.70710678118654746 0.5 forward I I I I #
loop $-1 $-1 $90 $23 #
coedge $-1 $56 $56 $91 $92 reversed $35 $-1 #
face $-1 $-1 $93 $19 $-1 $94 forward single #
loop $-1 $95 $96 $37 #
cone-surface $-1 -42.378947808080774 20.016964735615279 1.7388301231319998 0.81915205242281985 0 -0.57357642473473569 0.28678821236736785 0 0.40957602621140993 1 I I -0.70710678118654746 0.70710678118654746 0.5 forward I I I I #
loop $-1 $-1 $97 $24 #
coedge $-1 $61 $61 $98 $99 reversed $38 $-1 #
face $-1 $100 $101 $15 $-1 $102 reversed single #
loop $-1 $-1 $103 $40 #
plane-surface $-1 0 -22.229284733696861 0 0 1 0 0 0 1 forward_v I I I I #
coedge $-1 $104 $105 $106 $107 forward $41 $-1 #
coedge $-1 $108 $43 $109 $110 forward $26 $-1 #
coedge $-1 $43 $108 $111 $112 forward $26 $-1 #
coedge $-1 $113 $114 $43 $69 reversed $115 $-1 #
edge $-1 $116 -22.229284733696861 $117 22.229284733696861 $68 $118 forward 7 unknown #
face $-1 $119 $120 $16 $-1 $121 reversed single #
loop $-1 $-1 $122 $44 #
plane-surface $-1 0 -18.892234687938867 -0.032952132316448335 0 -1 0 0 0 -1 forward_v I I I I #
coedge $-1 $123 $124 $125 $126 reversed $45 $-1 #
coedge $-1 $127 $47 $128 $129 forward $29 $-1 #
coedge $-1 $47 $127 $130 $131 reversed $29 $-1 #
coedge $-1 $132 $133 $47 $77 forward $134 $-1 #
edge $-1 $135 8.6118548325299358 $136 11.948904878287927 $76 $137 forward 7 unknown #
face $-1 $138 $139 $17 $-1 $140 reversed single #
loop $-1 $-1 $84 $48 #
plane-surface $-1 0 0 5.0401394085673834 0 0 1 1 0 0 forward_v I I I I #
coedge $-1 $141 $142 $143 $144 reversed $49 $-1 #
coedge $-1 $83 $51 $145 $146 reversed $32 $-1 #
coedge $-1 $51 $82 $141 $147 reversed $32 $-1 #
coedge $-1 $143 $148 $51 $85 forward $79 $-1 #
edge $-1 $149 14.500589299142355 $150 17.692122819513045 $84 $151 forward 7 unknown #
loop $-1 $-1 $91 $52 #
plane-surface $-1 -45.434736167485596 18.357724737054095 0.48215703543034039 -0.81915205242281985 0 0.57357642473473569 0.57357642473473569 0 0.81915205242281985 forward_v I I I I #
loop $-1 $-1 $152 $34 #
coedge $-1 $89 $89 $90 $153 reversed $53 $-1 #
coedge $-1 $90 $90 $89 $153 forward $55 $-1 #
coedge $-1 $91 $91 $56 $92 forward $86 $-1 #
edge $-1 $154 0 $154 6.2831853071796004 $91 $155 forward 7 unknown #
loop $-1 $-1 $98 $57 #
plane-surface $-1 -45.434736167485596 18.357724737054095 0.48215703543034039 -0.81915205242281985 0 0.57357642473473569 0.57357642473473569 0 0.81915205242281985 forward_v I I I I #
loop $-1 $-1 $156 $37 #
coedge $-1 $96 $96 $97 $157 reversed $58 $-1 #
coedge $-1 $97 $97 $96 $157 forward $60 $-1 #
coedge $-1 $98 $98 $61 $99 forward $93 $-1 #
edge $-1 $158 0 $158 6.2831853071796004 $98 $159 forward 7 unknown #
face $-1 $160 $161 $15 $-1 $162 reversed single #
loop $-1 $-1 $163 $62 #
plane-surface $-1 -45.434736167485582 0 0 1 0 0 0 0 -1 forward_v I I I I #
coedge $-1 $164 $111 $165 $166 forward $63 $-1 #
coedge $-1 $167 $65 $164 $168 forward $41 $-1 #
coedge $-1 $65 $167 $169 $170 forward $41 $-1 #
coedge $-1 $114 $113 $65 $107 reversed $115 $-1 #
edge $-1 $171 -22.229284733696861 $172 22.229284733696861 $106 $173 forward 7 unknown #
coedge $-1 $67 $66 $174 $175 forward $26 $-1 #
coedge $-1 $176 $177 $66 $110 reversed $161 $-1 #
edge $-1 $117 -45.434736167485582 $178 45.434736167485582 $109 $179 forward 7 unknown #
coedge $-1 $103 $180 $67 $112 reversed $63 $-1 #
edge $-1 $181 -45.434736167485582 $116 45.434736167485582 $111 $182 forward 7 unknown #
coedge $-1 $106 $68 $180 $183 forward $115 $-1 #
coedge $-1 $68 $106 $176 $184 reversed $115 $-1 #
loop $-1 $-1 $113 $160 #
vertex $-1 $69 $185 #
vertex $-1 $69 $186 #
straight-curve $-1 45.434736167485582 0 5.0401394085673834 0 1 0 I I #
face $-1 $187 $188 $16 $-1 $189 reversed single #
loop $-1 $-1 $190 $70 #
plane-surface $-1 -45.434736167485582 0 0 1 0 0 0 0 -1 forward_v I I I I #
coedge $-1 $191 $128 $133 $192 reversed $71 $-1 #
coedge $-1 $193 $73 $194 $195 reversed $45 $-1 #
coedge $-1 $73 $193 $191 $196 forward $45 $-1 #
coedge $-1 $133 $132 $73 $126 forward $134 $-1 #
edge $-1 $197 -11.948904878287927 $198 -8.6118548325299358 $125 $199 forward 7 unknown #
coedge $-1 $75 $74 $190 $200 reversed $29 $-1 #
coedge $-1 $122 $201 $74 $129 reversed $71 $-1 #
edge $-1 $135 -45.434736167485582 $202 45.434736167485582 $128 $203 forward 7 unknown #
coedge $-1 $204 $205 $75 $131 forward $188 $-1 #
edge $-1 $136 -45.434736167485582 $206 45.434736167485582 $130 $207 forward 7 unknown #
coedge $-1 $125 $76 $205 $208 forward $134 $-1 #
coedge $-1 $76 $125 $122 $192 forward $134 $-1 #
loop $-1 $-1 $76 $187 #
vertex $-1 $77 $209 #
vertex $-1 $208 $210 #
straight-curve $-1 45.434736167485582 -10.280379855408931 1.4670478676835514 0 -1 0 I I #
face $-1 $-1 $211 $17 $-1 $212 reversed single #
loop $-1 $-1 $213 $78 #
plane-surface $-1 0 22.229284733696861 0 0 -1 0 0 0 -1 forward_v I I I I #
coedge $-1 $214 $81 $83 $147 forward $49 $-1 #
coedge $-1 $81 $214 $213 $215 reversed $49 $-1 #
coedge $-1 $216 $84 $81 $144 forward $79 $-1 #
edge $-1 $150 5.307302371884278 $217 13.050422365169817 $143 $218 forward 7 unknown #
coedge $-1 $219 $220 $82 $146 forward $211 $-1 #
edge $-1 $221 -25.819215011997176 $149 -21.261232638860154 $145 $222 forward 7 unknown #
edge $-1 $150 -5.5642690018975376 $221 -2.4793790127588779e-014 $83 $223 forward 7 unknown #
coedge $-1 $84 $216 $219 $224 forward $79 $-1 #
vertex $-1 $146 $225 #
vertex $-1 $85 $226 #
straight-curve $-1 -59.935325466627937 14.486164740411326 5.0401394085673843 1 0 0 I I #
coedge $-1 $152 $152 $-1 $227 reversed $88 $-1 #
edge $-1 $228 0 $228 6.2831853071796004 $89 $229 forward 7 unknown #
vertex $-1 $92 $230 #
ellipse-curve $-1 -43.83896940730024 16.698484738492905 2.7611482219988703 -0.81915205242281985 0 0.57357642473473569 0.57357642473473569 0 0.81915205242281985 1 I I #
coedge $-1 $156 $156 $-1 $231 reversed $95 $-1 #
edge $-1 $232 0 $232 6.2831853071796004 $96 $233 forward 7 unknown #
vertex $-1 $99 $234 #
ellipse-curve $-1 -43.83896940730024 20.016964735615279 2.7611482219988703 -0.81915205242281985 0 0.57357642473473569 0.57357642473473569 0 0.81915205242281985 1 I I #
face $-1 $-1 $115 $15 $-1 $235 reversed single #
loop $-1 $-1 $176 $100 #
plane-surface $-1 0 22.229284733696861 0 0 -1 0 0 0 -1 forward_v I I I I #
coedge $-1 $236 $174 $177 $237 forward $101 $-1 #
coedge $-1 $180 $103 $104 $168 reversed $63 $-1 #
coedge $-1 $174 $236 $103 $166 reversed $101 $-1 #
edge $-1 $181 -5.0401394085673834 $238 5.0401394085673834 $165 $239 forward 7 unknown #
coedge $-1 $105 $104 $236 $240 forward $41 $-1 #
edge $-1 $172 -45.434736167485582 $238 45.434736167485582 $164 $241 forward 7 unknown #
coedge $-1 $177 $176 $105 $170 reversed $161 $-1 #
edge $-1 $242 -45.434736167485582 $171 45.434736167485582 $169 $243 forward 7 unknown #
vertex $-1 $107 $244 #
vertex $-1 $183 $245 #
straight-curve $-1 45.434736167485582 0 -5.0401394085673834 0 -1 0 I I #
coedge $-1 $163 $165 $108 $175 reversed $101 $-1 #
edge $-1 $178 -22.229284733696861 $181 22.229284733696861 $174 $246 forward 7 unknown #
coedge $-1 $169 $109 $114 $184 forward $161 $-1 #
coedge $-1 $109 $169 $163 $237 reversed $161 $-1 #
vertex $-1 $110 $247 #
straight-curve $-1 0 22.229284733696861 5.0401394085673834 -1 0 0 I I #
coedge $-1 $111 $164 $113 $183 reversed $63 $-1 #
vertex $-1 $175 $248 #
straight-curve $-1 0 -22.229284733696861 5.0401394085673834 1 0 0 I I #
edge $-1 $116 -5.0401394085673834 $172 5.0401394085673834 $113 $249 forward 7 unknown #
edge $-1 $117 -5.0401394085673834 $171 5.0401394085673834 $114 $250 forward 7 unknown #
point $-1 45.434736167485582 -22.229284733696861 5.0401394085673834 #
point $-1 45.434736167485582 22.229284733696861 5.0401394085673834 #
face $-1 $-1 $134 $16 $-1 $251 reversed single #
loop $-1 $-1 $130 $119 #
plane-surface $-1 0 -22.229284733696861 0 0 1 0 0 0 1 forward_v I I I I #
coedge $-1 $252 $253 $127 $200 forward $120 $-1 #
coedge $-1 $201 $122 $124 $196 reversed $71 $-1 #
edge $-1 $198 -1.5164760661582239 $135 1.4835239338417756 $133 $254 forward 7 unknown #
coedge $-1 $124 $123 $255 $256 reversed $45 $-1 #
coedge $-1 $205 $204 $123 $195 forward $188 $-1 #
edge $-1 $257 -45.434736167485582 $197 45.434736167485582 $194 $258 forward 7 unknown #
edge $-1 $259 -45.434736167485582 $198 45.434736167485582 $191 $260 forward 7 unknown #
vertex $-1 $195 $261 #
vertex $-1 $126 $262 #
straight-curve $-1 45.434736167485582 -10.280379855408931 -1.5329521323164481 0 1 0 I I #
edge $-1 $206 -11.948904878287927 $202 -8.6118548325299358 $190 $263 forward 7 unknown #
coedge $-1 $128 $191 $252 $264 reversed $71 $-1 #
vertex $-1 $200 $265 #
straight-curve $-1 0 -18.892234687938867 1.4670478676835514 -1 0 0 I I #
coedge $-1 $194 $130 $253 $266 forward $188 $-1 #
coedge $-1 $130 $194 $132 $208 reversed $188 $-1 #
vertex $-1 $266 $267 #
straight-curve $-1 0 -22.229284733696861 1.4670478676835514 -1 0 0 I I #
edge $-1 $136 -1.4670478676835514 $197 1.5329521323164481 $132 $268 forward 7 unknown #
point $-1 45.434736167485582 -18.892234687938867 1.4670478676835514 #
point $-1 45.434736167485582 -22.229284733696858 1.4670478676835514 #
loop $-1 $-1 $145 $138 #
plane-surface $-1 -45.434736167485582 0 0 1 0 0 0 0 -1 forward_v I I I I #
coedge $-1 $269 $270 $142 $215 forward $139 $-1 #
coedge $-1 $142 $141 $220 $271 reversed $49 $-1 #
edge $-1 $217 7.2683978003772172 $272 12.83266680227473 $213 $273 forward 7 unknown #
coedge $-1 $148 $143 $270 $274 forward $79 $-1 #
vertex $-1 $274 $275 #
straight-curve $-1 -42.243202647114899 9.1788623685270476 5.0401394085673843 0 1 0 I I #
coedge $-1 $276 $145 $148 $224 reversed $211 $-1 #
coedge $-1 $145 $276 $214 $271 forward $211 $-1 #
vertex $-1 $146 $277 #
straight-curve $-1 -45.434736167485582 14.486164740411326 26.301372047427538 0 0 1 I I #
straight-curve $-1 -45.434736167485596 14.486164740411326 0.48215703543034039 -0.57357642473473569 0 -0.81915205242281985 I I #
edge $-1 $278 -22.229284733696861 $149 -14.486164740411326 $219 $279 forward 7 unknown #
point $-1 -45.434736167485582 14.486164740411326 5.0401394085673834 #
point $-1 -42.243202647114892 14.486164740411326 5.0401394085673834 #
edge $-1 $280 1 $280 0 $152 $-1 forward 7 unknown #
vertex $-1 $153 $281 #
ellipse-curve $-1 -42.788523834292185 16.698484738492905 2.0256183354993675 -0.81915205242281985 0 0.57357642473473569 0.57357642473473569 0 0.81915205242281985 1 I I #
point $-1 -43.265392982565487 16.698484738492905 3.5803002744216799 #
edge $-1 $282 1 $282 0 $156 $-1 forward 7 unknown #
vertex $-1 $157 $283 #
ellipse-curve $-1 -42.788523834292185 20.016964735615279 2.0256183354993675 -0.81915205242281985 0 0.57357642473473569 0.57357642473473569 0 0.81915205242281985 1 I I #
point $-1 -43.265392982565487 20.016964735615279 3.5803002744216799 #
plane-surface $-1 45.434736167485582 0 0 -1 0 0 0 0 1 forward_v I I I I #
coedge $-1 $165 $163 $167 $240 reversed $101 $-1 #
edge $-1 $178 -5.0401394085673834 $242 5.0401394085673834 $177 $284 forward 7 unknown #
vertex $-1 $240 $285 #
straight-curve $-1 -45.434736167485582 -22.229284733696861 0 0 0 -1 I I #
edge $-1 $238 -22.229284733696861 $242 22.229284733696861 $236 $286 forward 7 unknown #
straight-curve $-1 0 -22.229284733696861 -5.0401394085673834 -1 0 0 I I #
vertex $-1 $170 $287 #
straight-curve $-1 0 22.229284733696861 -5.0401394085673834 1 0 0 I I #
point $-1 45.434736167485582 22.229284733696861 -5.0401394085673834 #
point $-1 45.434736167485582 -22.229284733696861 -5.0401394085673834 #
straight-curve $-1 -45.434736167485582 0 5.0401394085673834 0 -1 0 I I #
point $-1 -45.434736167485582 22.229284733696861 5.0401394085673834 #
point $-1 -45.434736167485582 -22.229284733696861 5.0401394085673834 #
straight-curve $-1 45.434736167485582 -22.229284733696861 0 0 0 -1 I I #
straight-curve $-1 45.434736167485582 22.229284733696861 0 0 0 -1 I I #
plane-surface $-1 45.434736167485582 0 0 -1 0 0 0 0 1 forward_v I I I I #
coedge $-1 $255 $190 $201 $264 forward $120 $-1 #
coedge $-1 $190 $255 $204 $266 reversed $120 $-1 #
straight-curve $-1 45.434736167485582 -18.892234687938867 -0.016476066158224167 0 0 1 I I #
coedge $-1 $253 $252 $193 $256 forward $120 $-1 #
edge $-1 $259 8.6118548325299358 $257 11.948904878287927 $255 $288 forward 7 unknown #
vertex $-1 $195 $289 #
straight-curve $-1 0 -22.229284733696861 -1.5329521323164481 1 0 0 I I #
vertex $-1 $256 $290 #
straight-curve $-1 0 -18.892234687938867 -1.5329521323164481 1 0 0 I I #
point $-1 45.434736167485582 -22.229284733696858 -1.5329521323164481 #
point $-1 45.434736167485582 -18.892234687938867 -1.5329521323164481 #
straight-curve $-1 -45.434736167485582 -10.280379855408931 1.4670478676835514 0 1 0 I I #
edge $-1 $202 -1.4835239338417756 $259 1.5164760661582239 $252 $291 forward 7 unknown #
point $-1 -45.434736167485582 -18.892234687938867 1.4670478676835514 #
edge $-1 $206 -1.4670478676835514 $257 1.5329521323164481 $253 $292 forward 7 unknown #
point $-1 -45.434736167485582 -22.229284733696858 1.4670478676835514 #
straight-curve $-1 45.434736167485582 -22.229284733696861 0 0 0 -1 I I #
coedge $-1 $270 $213 $276 $293 reversed $139 $-1 #
coedge $-1 $213 $269 $216 $274 reversed $139 $-1 #
edge $-1 $272 -13.050422365169817 $221 -5.307302371884278 $220 $294 forward 7 unknown #
vertex $-1 $215 $295 #
straight-curve $-1 -38.074221023224716 22.229284733696861 10.994062384571892 -0.57357642473473569 0 -0.81915205242281985 I I #
edge $-1 $217 42.243202647114892 $278 45.434736167485582 $270 $296 forward 7 unknown #
point $-1 -42.243202647114892 22.229284733696865 5.0401394085673834 #
coedge $-1 $220 $219 $269 $293 forward $211 $-1 #
point $-1 -45.434736167485582 14.486164740411326 0.4821570354303607 #
vertex $-1 $274 $297 #
straight-curve $-1 -45.434736167485582 0 5.0401394085673834 0 -1 0 I I #
vertex $-1 $227 $298 #
point $-1 -42.214947409557446 16.698484738492905 2.8447703879221873 #
vertex $-1 $231 $299 #
point $-1 -42.214947409557446 20.016964735615279 2.8447703879221873 #
straight-curve $-1 -45.434736167485582 22.229284733696861 0 0 0 -1 I I #
point $-1 -45.434736167485582 -22.229284733696861 -5.0401394085673834 #
straight-curve $-1 -45.434736167485582 0 -5.0401394085673834 0 1 0 I I #
point $-1 -45.434736167485582 22.229284733696861 -5.0401394085673834 #
straight-curve $-1 -45.434736167485582 -10.280379855408931 -1.5329521323164481 0 -1 0 I I #
point $-1 -45.434736167485582 -22.229284733696858 -1.5329521323164481 #
point $-1 -45.434736167485582 -18.892234687938867 -1.5329521323164481 #
straight-curve $-1 -45.434736167485582 -18.892234687938867 -0.016476066158224167 0 0 -1 I I #
straight-curve $-1 -45.434736167485582 -22.229284733696861 0 0 0 -1 I I #
edge $-1 $278 -5.0401394085673834 $272 -0.4821570354303607 $269 $300 forward 7 unknown #
straight-curve $-1 -45.434736167485582 9.1788623685270476 0.48215703543036126 0 -1 0 I I #
point $-1 -45.434736167485582 22.229284733696865 0.4821570354303607 #
straight-curve $-1 0 22.229284733696861 5.0401394085673834 -1 0 0 I I #
point $-1 -45.434736167485582 22.229284733696861 5.0401394085673834 #
point $-1 -41.969371781869363 16.698484738492905 1.4520419107646321 #
point $-1 -41.969371781869363 20.016964735615279 1.4520419107646321 #
straight-curve $-1 -45.434736167485582 22.229284733696861 0 0 0 -1 I I #
End-of-ACIS-data 