500 0 7 0           
7 Unknown 11 ACIS 5.0 NT 24 Fri Mar 26 17:58:05 1999 
-1 9.9999999999999995e-007 1e-010 
body $-1 $7 $-1 $8 #
body $-1 $9 $-1 $10 #
body $-1 $11 $-1 $12 #
body $-1 $13 $-1 $14 #
body $-1 $15 $-1 $16 #
body $-1 $17 $-1 $18 #
body $-1 $19 $-1 $20 #
lump $-1 $-1 $21 $0 #
transform $-1 1 0 0 0 1 0 0 0 1 78.319040498062066 47.330829912739176 19.106245717392 1 rotate no_reflect no_shear #
lump $-1 $-1 $22 $1 #
transform $-1 1 0 0 0 1 0 0 0 1 78.319040498062066 47.330829912739176 19.106245717392 1 rotate no_reflect no_shear #
lump $-1 $-1 $23 $2 #
transform $-1 1 0 0 0 1 0 0 0 1 78.319040498062066 47.330829912739176 19.106245717392 1 rotate no_reflect no_shear #
lump $-1 $-1 $24 $3 #
transform $-1 1 0 0 0 1 0 0 0 1 78.319040498062066 47.330829912739176 19.106245717392 1 rotate no_reflect no_shear #
lump $-1 $-1 $25 $4 #
transform $-1 1 0 0 0 1 0 0 0 1 78.319040498062066 47.330829912739176 19.106245717392 1 rotate no_reflect no_shear #
lump $-1 $-1 $26 $5 #
transform $-1 1 0 0 0 1 0 0 0 1 78.319040498062066 47.330829912739176 19.106245717392 1 rotate no_reflect no_shear #
lump $-1 $-1 $27 $6 #
transform $-1 1 0 0 0 1 0 0 0 1 78.319040498062066 47.330829912739176 19.106245717392 1 rotate no_reflect no_shear #
shell $-1 $-1 $-1 $28 $-1 $7 #
shell $-1 $-1 $-1 $29 $-1 $9 #
shell $-1 $-1 $-1 $30 $-1 $11 #
shell $-1 $-1 $-1 $31 $-1 $13 #
shell $-1 $-1 $-1 $32 $-1 $15 #
shell $-1 $-1 $-1 $33 $-1 $17 #
shell $-1 $-1 $-1 $34 $-1 $19 #
face $-1 $35 $36 $21 $-1 $37 forward single #
face $-1 $38 $39 $22 $-1 $40 reversed single #
face $-1 $41 $42 $23 $-1 $43 reversed single #
face $-1 $44 $45 $24 $-1 $46 forward single #
face $-1 $47 $48 $25 $-1 $49 forward single #
face $-1 $50 $51 $26 $-1 $52 reversed single #
face $-1 $53 $54 $27 $-1 $55 forward single #
face $-1 $56 $57 $21 $-1 $58 reversed single #
loop $-1 $-1 $59 $28 #
plane-surface $-1 0 0 19.106245717392 0 0 1 1 0 0 forward_v I I I I #
face $-1 $60 $61 $22 $-1 $62 reversed single #
loop $-1 $-1 $63 $29 #
plane-surface $-1 -67.776097842233455 -13.984259084407896 0 0 1 0 0 0 1 forward_v I I I I #
face $-1 $64 $65 $23 $-1 $66 reversed single #
loop $-1 $-1 $67 $30 #
plane-surface $-1 68.834275440059741 -47.33082991273919 15.984835680092388 0 -0.78801076186113728 0.61566146476048833 1 0 0 forward_v I I I I #
face $-1 $68 $69 $24 $-1 $70 forward single #
loop $-1 $71 $72 $31 #
cone-surface $-1 64.769376129487341 -45.717468167218371 17.237709966361955 0 0.78801076186113728 -0.61566146476048833 0.5 0 0 1 I I 0 1 0.5 forward I I I I #
face $-1 $73 $74 $25 $-1 $75 forward single #
loop $-1 $76 $77 $32 #
cone-surface $-1 72.89917475063217 -45.717468167218371 17.237709966361955 0 0.78801076186113728 -0.61566146476048833 0.5 0 0 1 I I 0 1 0.5 forward I I I I #
face $-1 $78 $79 $26 $-1 $80 reversed single #
loop $-1 $-1 $81 $33 #
plane-surface $-1 -18.134189149048034 115.4587569437019 171.55427290510355 1 0 0 0 -0.79863551827123203 -0.60181501223851219 forward_v I I I I #
face $-1 $82 $83 $27 $-1 $84 forward single #
loop $-1 $85 $86 $34 #
cone-surface $-1 -9.2372706136679597 38.475767852891067 8.6695508825911922 0 -0.79863551827123203 -0.60181501223851219 1.5 0 0 1 I I 0 1 1.5 forward I I I I #
face $-1 $87 $88 $21 $-1 $89 reversed single #
loop $-1 $-1 $90 $35 #
plane-surface $-1 0 0 -19.106245717392 0 0 1 1 0 0 forward_v I I I I #
coedge $-1 $91 $92 $93 $94 forward $36 $-1 #
face $-1 $95 $96 $22 $-1 $97 reversed single #
loop $-1 $-1 $98 $38 #
plane-surface $-1 -67.776097842233455 -9.1183384779551773 0 0 -1 0 0 0 -1 forward_v I I I I #
coedge $-1 $99 $100 $101 $102 reversed $39 $-1 #
face $-1 $103 $104 $23 $-1 $105 reversed single #
loop $-1 $-1 $106 $41 #
plane-surface $-1 59.349510382057431 -170.76332345496149 112.42086606343818 1 0 0 0 0.78801076186113728 -0.61566146476048833 forward_v I I I I #
coedge $-1 $107 $108 $109 $110 reversed $42 $-1 #
face $-1 $-1 $111 $24 $-1 $112 forward single #
loop $-1 $113 $114 $44 #
cone-surface $-1 64.769376129487341 -45.126460095822516 16.775963867791589 0 0.78801076186113728 -0.61566146476048833 0.25 0 0 1 I I -0.70710678118654746 0.70710678118654746 0.25 forward I I I I #
loop $-1 $-1 $115 $31 #
coedge $-1 $72 $72 $116 $117 reversed $45 $-1 #
face $-1 $-1 $118 $25 $-1 $119 forward single #
loop $-1 $120 $121 $47 #
cone-surface $-1 72.89917475063217 -45.126460095822516 16.775963867791589 0 0.78801076186113728 -0.61566146476048833 0.25 0 0 1 I I -0.70710678118654746 0.70710678118654746 0.25 forward I I I I #
loop $-1 $-1 $122 $32 #
coedge $-1 $77 $77 $123 $124 reversed $48 $-1 #
face $-1 $125 $126 $26 $-1 $127 reversed single #
loop $-1 $-1 $128 $50 #
plane-surface $-1 -9.2372706136679597 -9.6379780536489221 77.287124273404032 0 0.79863551827123203 0.60181501223851219 1 0 0 forward_v I I I I #
coedge $-1 $129 $130 $131 $132 reversed $51 $-1 #
face $-1 $-1 $133 $27 $-1 $134 forward single #
loop $-1 $135 $136 $53 #
cone-surface $-1 -9.2372706136679597 35.584915423583709 6.4911373881734704 0 -0.79863551827123203 -0.60181501223851219 0.75 0 0 1 I I -0.70710678118654757 0.70710678118654757 0.75 forward I I I I #
loop $-1 $-1 $137 $34 #
coedge $-1 $86 $86 $138 $139 reversed $54 $-1 #
face $-1 $140 $141 $21 $-1 $142 reversed single #
loop $-1 $-1 $143 $56 #
plane-surface $-1 0 -47.330829912739176 0 0 1 0 0 0 1 forward_v I I I I #
coedge $-1 $144 $145 $146 $147 forward $57 $-1 #
coedge $-1 $148 $59 $149 $150 forward $36 $-1 #
coedge $-1 $59 $148 $151 $152 forward $36 $-1 #
coedge $-1 $153 $154 $59 $94 reversed $155 $-1 #
edge $-1 $156 -47.330829912739176 $157 47.330829912739176 $93 $158 forward 7 unknown #
face $-1 $159 $160 $22 $-1 $161 reversed single #
loop $-1 $-1 $162 $60 #
plane-surface $-1 -57.233155186404836 -11.551298781181536 0 -1 0 0 0 0 1 forward_v I I I I #
coedge $-1 $163 $164 $165 $166 forward $61 $-1 #
coedge $-1 $167 $63 $168 $169 reversed $39 $-1 #
coedge $-1 $63 $167 $170 $171 reversed $39 $-1 #
coedge $-1 $172 $173 $63 $102 forward $174 $-1 #
edge $-1 $175 -19.106245717392 $176 19.106245717392 $101 $177 forward 7 unknown #
face $-1 $178 $179 $23 $-1 $180 forward single #
loop $-1 $-1 $181 $64 #
plane-surface $-1 0 -47.330829912739176 0 0 1 0 0 0 1 forward_v I I I I #
coedge $-1 $182 $183 $184 $185 reversed $65 $-1 #
coedge $-1 $186 $67 $187 $188 reversed $42 $-1 #
coedge $-1 $67 $186 $182 $189 forward $42 $-1 #
coedge $-1 $184 $190 $67 $110 forward $179 $-1 #
edge $-1 $191 -43.901902778032181 $192 -24.932372662027561 $109 $193 forward 7 unknown #
loop $-1 $-1 $116 $68 #
plane-surface $-1 68.834275440059741 -47.33082991273919 15.984835680092388 0 -0.78801076186113728 0.61566146476048833 1 0 0 forward_v I I I I #
loop $-1 $-1 $194 $44 #
coedge $-1 $114 $114 $115 $195 reversed $69 $-1 #
coedge $-1 $115 $115 $114 $195 forward $71 $-1 #
coedge $-1 $116 $116 $72 $117 forward $111 $-1 #
edge $-1 $196 8.7490756294597578e-015 $196 6.2831853071796093 $116 $197 forward 7 unknown #
loop $-1 $-1 $123 $73 #
plane-surface $-1 68.834275440059741 -47.33082991273919 15.984835680092388 0 -0.78801076186113728 0.61566146476048833 1 0 0 forward_v I I I I #
loop $-1 $-1 $198 $47 #
coedge $-1 $121 $121 $122 $199 reversed $74 $-1 #
coedge $-1 $122 $122 $121 $199 forward $76 $-1 #
coedge $-1 $123 $123 $77 $124 forward $118 $-1 #
edge $-1 $200 8.7490756294597578e-015 $200 6.2831853071796093 $123 $201 forward 7 unknown #
face $-1 $202 $203 $26 $-1 $204 forward single #
loop $-1 $-1 $205 $78 #
plane-surface $-1 -0.34035207828788572 115.4587569437019 171.55427290510355 -1 0 0 0 0.79863551827123203 0.60181501223851219 forward_v I I I I #
coedge $-1 $206 $207 $208 $209 reversed $79 $-1 #
coedge $-1 $130 $81 $210 $211 reversed $51 $-1 #
coedge $-1 $81 $129 $206 $212 reversed $51 $-1 #
coedge $-1 $208 $213 $81 $132 forward $203 $-1 #
edge $-1 $214 10.398548559111774 $215 23.524921097600078 $131 $216 forward 7 unknown #
loop $-1 $-1 $138 $82 #
plane-surface $-1 -9.2372706136679597 -9.6379780536489221 77.287124273404032 0 0.79863551827123203 0.60181501223851219 1 0 0 forward_v I I I I #
loop $-1 $-1 $217 $53 #
coedge $-1 $136 $136 $137 $218 reversed $83 $-1 #
coedge $-1 $137 $137 $136 $218 forward $85 $-1 #
coedge $-1 $138 $138 $86 $139 forward $133 $-1 #
edge $-1 $219 2.8104328541817245e-015 $219 6.2831853071796031 $138 $220 forward 7 unknown #
face $-1 $221 $222 $21 $-1 $223 reversed single #
loop $-1 $-1 $224 $87 #
plane-surface $-1 -78.319040498062066 0 0 1 0 0 0 0 -1 forward_v I I I I #
coedge $-1 $225 $151 $226 $227 forward $88 $-1 #
coedge $-1 $228 $90 $225 $229 forward $57 $-1 #
coedge $-1 $90 $228 $230 $231 forward $57 $-1 #
coedge $-1 $154 $153 $90 $147 reversed $155 $-1 #
edge $-1 $232 -47.330829912739176 $233 47.330829912739176 $146 $234 forward 7 unknown #
coedge $-1 $92 $91 $235 $236 forward $36 $-1 #
coedge $-1 $237 $238 $91 $150 reversed $222 $-1 #
edge $-1 $157 -78.319040498062066 $239 78.319040498062066 $149 $240 forward 7 unknown #
coedge $-1 $143 $241 $92 $152 reversed $88 $-1 #
edge $-1 $242 -78.319040498062066 $156 78.319040498062066 $151 $243 forward 7 unknown #
coedge $-1 $146 $93 $241 $244 forward $155 $-1 #
coedge $-1 $93 $146 $237 $245 reversed $155 $-1 #
loop $-1 $-1 $153 $221 #
vertex $-1 $94 $246 #
vertex $-1 $94 $247 #
straight-curve $-1 78.319040498062066 0 19.106245717392 0 1 0 I I #
face $-1 $248 $249 $22 $-1 $250 forward single #
loop $-1 $-1 $251 $95 #
plane-surface $-1 0 0 -19.106245717392 0 0 1 1 0 0 forward_v I I I I #
coedge $-1 $252 $253 $167 $254 forward $96 $-1 #
coedge $-1 $255 $98 $251 $256 reversed $61 $-1 #
coedge $-1 $98 $255 $257 $258 reversed $61 $-1 #
coedge $-1 $253 $252 $98 $166 reversed $96 $-1 #
edge $-1 $259 -19.106245717392 $260 19.106245717392 $165 $261 forward 7 unknown #
coedge $-1 $100 $99 $162 $254 reversed $39 $-1 #
coedge $-1 $262 $263 $99 $169 forward $160 $-1 #
edge $-1 $264 23.345106265288109 $175 44.430991576945338 $168 $265 forward 7 unknown #
coedge $-1 $266 $267 $100 $171 forward $249 $-1 #
edge $-1 $176 -44.430991576945338 $268 -23.345106265288109 $170 $269 forward 7 unknown #
coedge $-1 $270 $101 $267 $271 reversed $174 $-1 #
coedge $-1 $101 $270 $262 $272 reversed $174 $-1 #
loop $-1 $-1 $270 $248 #
vertex $-1 $272 $273 #
vertex $-1 $102 $274 #
straight-curve $-1 -78.319040498062066 -13.984259084407896 0 0 0 1 I I #
face $-1 $-1 $275 $23 $-1 $276 reversed single #
loop $-1 $-1 $184 $103 #
plane-surface $-1 0 0 19.106245717392 0 0 1 1 0 0 forward_v I I I I #
coedge $-1 $277 $278 $183 $279 forward $104 $-1 #
coedge $-1 $183 $106 $108 $189 reversed $65 $-1 #
coedge $-1 $106 $182 $181 $279 reversed $65 $-1 #
coedge $-1 $280 $109 $106 $185 forward $179 $-1 #
edge $-1 $192 -40.489544543922044 $281 -38.050831814741571 $184 $282 forward 7 unknown #
coedge $-1 $108 $107 $277 $283 reversed $42 $-1 #
coedge $-1 $284 $285 $107 $188 forward $275 $-1 #
edge $-1 $286 -8.2717727649558981 $191 -4.3106466124051472 $187 $287 forward 7 unknown #
edge $-1 $288 2.274695869299009e-014 $192 3.9611261525507748 $182 $289 forward 7 unknown #
coedge $-1 $109 $280 $284 $290 forward $179 $-1 #
vertex $-1 $188 $291 #
vertex $-1 $110 $292 #
straight-curve $-1 34.417137720029871 -44.89211718355871 19.106245717392 -1 0 0 I I #
coedge $-1 $194 $194 $-1 $293 reversed $113 $-1 #
edge $-1 $294 0 $294 6.2831853071796004 $114 $295 forward 7 unknown #
vertex $-1 $117 $296 #
ellipse-curve $-1 64.769376129487341 -46.111473548148943 17.545540698742201 0 -0.78801076186113728 0.61566146476048833 0.5 0 0 1 I I #
coedge $-1 $198 $198 $-1 $297 reversed $120 $-1 #
edge $-1 $298 0 $298 6.2831853071796004 $121 $299 forward 7 unknown #
vertex $-1 $124 $300 #
ellipse-curve $-1 72.89917475063217 -46.111473548148943 17.545540698742201 0 -0.78801076186113728 0.61566146476048833 0.5 0 0 1 I I #
face $-1 $-1 $301 $26 $-1 $302 reversed single #
loop $-1 $-1 $131 $125 #
plane-surface $-1 0 0 19.106245717392 0 0 1 1 0 0 forward_v I I I I #
coedge $-1 $303 $304 $305 $306 reversed $126 $-1 #
coedge $-1 $307 $128 $130 $212 forward $79 $-1 #
coedge $-1 $128 $307 $303 $308 forward $79 $-1 #
coedge $-1 $305 $131 $128 $209 forward $203 $-1 #
edge $-1 $215 -13.515553842214054 $309 4.2782832285460941 $208 $310 forward 7 unknown #
coedge $-1 $311 $312 $129 $211 forward $301 $-1 #
edge $-1 $313 -84.090175934283664 $214 -66.670890735159773 $210 $314 forward 7 unknown #
edge $-1 $215 72.850351912663982 $313 94.661659825478296 $130 $315 forward 7 unknown #
coedge $-1 $131 $305 $311 $316 forward $203 $-1 #
vertex $-1 $211 $317 #
vertex $-1 $132 $318 #
straight-curve $-1 -18.134189149048034 57.72937847185095 19.106245717392 0 -1 0 I I #
coedge $-1 $217 $217 $-1 $319 reversed $135 $-1 #
edge $-1 $320 0 $320 6.2831853071796004 $136 $321 forward 7 unknown #
vertex $-1 $139 $322 #
ellipse-curve $-1 -9.2372706136679597 40.76764364349502 10.396603117830043 0 0.79863551827123203 0.60181501223851219 1.5 0 0 1 I I #
face $-1 $-1 $155 $21 $-1 $323 reversed single #
loop $-1 $-1 $237 $140 #
plane-surface $-1 0 47.330829912739176 0 0 -1 0 0 0 -1 forward_v I I I I #
coedge $-1 $324 $235 $238 $325 forward $141 $-1 #
coedge $-1 $241 $143 $144 $229 reversed $88 $-1 #
coedge $-1 $235 $324 $143 $227 reversed $141 $-1 #
edge $-1 $242 -19.106245717392 $326 19.106245717392 $226 $327 forward 7 unknown #
coedge $-1 $145 $144 $324 $328 forward $57 $-1 #
edge $-1 $233 -78.319040498062066 $326 78.319040498062066 $225 $329 forward 7 unknown #
coedge $-1 $238 $237 $145 $231 reversed $222 $-1 #
edge $-1 $330 -78.319040498062066 $232 78.319040498062066 $230 $331 forward 7 unknown #
vertex $-1 $147 $332 #
vertex $-1 $244 $333 #
straight-curve $-1 78.319040498062066 0 -19.106245717392 0 -1 0 I I #
coedge $-1 $224 $226 $148 $236 reversed $141 $-1 #
edge $-1 $239 -47.330829912739176 $242 47.330829912739176 $235 $334 forward 7 unknown #
coedge $-1 $230 $149 $154 $245 forward $222 $-1 #
coedge $-1 $149 $230 $224 $325 reversed $222 $-1 #
vertex $-1 $150 $335 #
straight-curve $-1 0 47.330829912739176 19.106245717392 -1 0 0 I I #
coedge $-1 $151 $225 $153 $244 reversed $88 $-1 #
vertex $-1 $236 $336 #
straight-curve $-1 0 -47.330829912739176 19.106245717392 1 0 0 I I #
edge $-1 $156 -19.106245717392 $233 19.106245717392 $153 $337 forward 7 unknown #
edge $-1 $157 -19.106245717392 $232 19.106245717392 $154 $338 forward 7 unknown #
point $-1 78.319040498062066 -47.330829912739176 19.106245717392 #
point $-1 78.319040498062066 47.330829912739176 19.106245717392 #
face $-1 $-1 $174 $22 $-1 $339 reversed single #
loop $-1 $-1 $257 $159 #
plane-surface $-1 0 0 19.106245717392 0 0 1 1 0 0 forward_v I I I I #
coedge $-1 $263 $262 $163 $256 forward $160 $-1 #
coedge $-1 $165 $162 $263 $340 reversed $96 $-1 #
coedge $-1 $162 $165 $266 $341 reversed $96 $-1 #
edge $-1 $268 -19.106245717392 $264 19.106245717392 $162 $342 forward 7 unknown #
coedge $-1 $164 $163 $270 $343 reversed $61 $-1 #
edge $-1 $344 -44.430991576945338 $260 -23.345106265288109 $251 $345 forward 7 unknown #
coedge $-1 $267 $266 $164 $258 forward $249 $-1 #
edge $-1 $259 23.345106265288109 $346 44.430991576945338 $257 $347 forward 7 unknown #
vertex $-1 $258 $348 #
vertex $-1 $256 $349 #
straight-curve $-1 -57.233155186404836 -9.1183384779551773 0 0 0 -1 I I #
coedge $-1 $251 $168 $173 $272 forward $160 $-1 #
coedge $-1 $168 $251 $252 $340 forward $160 $-1 #
vertex $-1 $169 $350 #
straight-curve $-1 -33.888048921116727 -13.984259084407896 -19.106245717392 -1 0 0 I I #
coedge $-1 $257 $170 $253 $341 forward $249 $-1 #
coedge $-1 $170 $257 $172 $271 forward $249 $-1 #
vertex $-1 $171 $351 #
straight-curve $-1 -33.888048921116727 -13.984259084407896 19.106245717392 1 0 0 I I #
coedge $-1 $173 $172 $255 $343 forward $174 $-1 #
edge $-1 $346 9.1183384779551773 $176 13.984259084407896 $172 $352 forward 7 unknown #
edge $-1 $175 -13.984259084407896 $344 -9.1183384779551773 $173 $353 forward 7 unknown #
point $-1 -78.319040498062066 -13.984259084407896 -19.106245717392 #
point $-1 -78.319040498062066 -13.984259084407896 19.106245717392 #
loop $-1 $-1 $187 $178 #
plane-surface $-1 78.319040498062066 0 0 -1 0 0 0 0 1 forward_v I I I I #
coedge $-1 $354 $181 $186 $283 forward $104 $-1 #
coedge $-1 $181 $354 $280 $355 reversed $104 $-1 #
edge $-1 $281 37.104187314327092 $288 40.225597351626689 $181 $356 forward 7 unknown #
coedge $-1 $190 $184 $278 $355 forward $179 $-1 #
vertex $-1 $355 $357 #
straight-curve $-1 59.349510382057431 -85.381661727480747 19.106245717392 0 -1 0 I I #
edge $-1 $288 24.932372662027561 $286 43.901902778032181 $277 $358 forward 7 unknown #
coedge $-1 $285 $187 $190 $290 reversed $275 $-1 #
coedge $-1 $187 $284 $354 $359 forward $275 $-1 #
vertex $-1 $283 $360 #
straight-curve $-1 78.319040498062066 -42.238218176100517 22.503081638547513 0 0.61566146476048833 0.78801076186113728 I I #
vertex $-1 $283 $361 #
straight-curve $-1 59.349510382057431 -47.33082991273919 15.984835680092388 0 0.61566146476048833 0.78801076186113728 I I #
edge $-1 $362 -47.330829912739176 $191 -44.892117183558703 $284 $363 forward 7 unknown #
point $-1 78.319040498062051 -44.892117183558703 19.106245717392 #
point $-1 59.349510382057431 -44.892117183558703 19.106245717392 #
edge $-1 $364 1 $364 0 $194 $-1 forward 7 unknown #
vertex $-1 $195 $365 #
ellipse-curve $-1 64.769376129487341 -45.323462786287799 16.929879233981712 0 -0.78801076186113728 0.61566146476048833 0.5 0 0 1 I I #
point $-1 65.269376129487341 -46.111473548148936 17.545540698742201 #
edge $-1 $366 1 $366 0 $198 $-1 forward 7 unknown #
vertex $-1 $199 $367 #
ellipse-curve $-1 72.89917475063217 -45.323462786287799 16.929879233981712 0 -0.78801076186113728 0.61566146476048833 0.5 0 0 1 I I #
point $-1 73.39917475063217 -46.111473548148936 17.545540698742201 #
loop $-1 $-1 $210 $202 #
plane-surface $-1 0 47.330829912739176 0 0 -1 0 0 0 -1 forward_v I I I I #
coedge $-1 $304 $205 $207 $308 reversed $126 $-1 #
coedge $-1 $205 $303 $368 $369 reversed $126 $-1 #
coedge $-1 $213 $208 $205 $306 forward $203 $-1 #
edge $-1 $309 -23.524921097600078 $370 -10.398548559111774 $305 $371 forward 7 unknown #
coedge $-1 $207 $206 $312 $372 reversed $79 $-1 #
edge $-1 $373 -94.661659825478296 $309 -72.850351912663982 $303 $374 forward 7 unknown #
vertex $-1 $209 $375 #
straight-curve $-1 -4.6186353068339798 34.204457374250872 19.106245717392 1 0 0 I I #
coedge $-1 $368 $210 $213 $316 reversed $301 $-1 #
coedge $-1 $210 $368 $307 $372 forward $301 $-1 #
vertex $-1 $211 $376 #
straight-curve $-1 -18.134189149048034 47.330829912739176 85.777136452551773 0 0 1 I I #
straight-curve $-1 -18.134189149048034 -9.6379780536489221 77.287124273404032 0 0.60181501223851219 -0.79863551827123203 I I #
edge $-1 $370 0.34035207828788572 $214 18.134189149048034 $311 $377 forward 7 unknown #
point $-1 -18.134189149048034 47.330829912739176 19.106245717392 #
point $-1 -18.134189149048034 34.204457374250872 19.106245717391992 #
edge $-1 $378 1 $378 0 $217 $-1 forward 7 unknown #
vertex $-1 $218 $379 #
ellipse-curve $-1 -9.2372706136679597 36.183892062287136 6.9424986473523544 0 0.79863551827123203 0.60181501223851219 1.5 0 0 1 I I #
point $-1 -7.7372706136679597 40.767643643495006 10.396603117830027 #
plane-surface $-1 78.319040498062066 0 0 -1 0 0 0 0 1 forward_v I I I I #
coedge $-1 $226 $224 $228 $328 reversed $141 $-1 #
edge $-1 $239 -19.106245717392 $330 19.106245717392 $238 $380 forward 7 unknown #
vertex $-1 $328 $381 #
straight-curve $-1 -78.319040498062066 -47.330829912739176 0 0 0 -1 I I #
edge $-1 $326 -47.330829912739176 $330 47.330829912739176 $324 $382 forward 7 unknown #
straight-curve $-1 0 -47.330829912739176 -19.106245717392 -1 0 0 I I #
vertex $-1 $231 $383 #
straight-curve $-1 0 47.330829912739176 -19.106245717392 1 0 0 I I #
point $-1 78.319040498062066 47.330829912739176 -19.106245717392 #
point $-1 78.319040498062066 -47.330829912739176 -19.106245717392 #
straight-curve $-1 -78.319040498062066 0 19.106245717392 0 -1 0 I I #
point $-1 -78.319040498062066 47.330829912739176 19.106245717392 #
point $-1 -78.319040498062066 -47.330829912739176 19.106245717392 #
straight-curve $-1 78.319040498062066 -47.330829912739176 0 0 0 -1 I I #
straight-curve $-1 78.319040498062066 47.330829912739176 0 0 0 -1 I I #
plane-surface $-1 -78.319040498062066 0 0 1 0 0 0 0 -1 forward_v I I I I #
edge $-1 $260 3.3426890873644091 $264 8.2086096938171274 $263 $384 forward 7 unknown #
edge $-1 $268 -8.2086096938171274 $259 -3.3426890873644091 $266 $385 forward 7 unknown #
straight-curve $-1 -57.233155186404836 -13.984259084407896 0 0 0 -1 I I #
edge $-1 $346 -19.106245717392 $344 19.106245717392 $270 $386 forward 7 unknown #
vertex $-1 $343 $387 #
straight-curve $-1 -33.888048921116727 -9.1183384779551773 -19.106245717392 1 0 0 I I #
vertex $-1 $271 $388 #
straight-curve $-1 -33.888048921116727 -9.1183384779551773 19.106245717392 -1 0 0 I I #
point $-1 -57.233155186404836 -9.1183384779551773 19.106245717392 #
point $-1 -57.233155186404836 -9.1183384779551773 -19.106245717392 #
point $-1 -57.233155186404836 -13.984259084407896 -19.106245717392 #
point $-1 -57.233155186404836 -13.984259084407896 19.106245717392 #
straight-curve $-1 -78.319040498062066 0 19.106245717392 0 -1 0 I I #
straight-curve $-1 -78.319040498062066 0 -19.106245717392 0 1 0 I I #
coedge $-1 $278 $277 $285 $359 reversed $104 $-1 #
edge $-1 $281 59.349510382057431 $362 78.319040498062066 $278 $389 forward 7 unknown #
straight-curve $-1 59.349510382057431 -47.330829912739176 56.210433031719091 0 0 -1 I I #
point $-1 59.349510382057431 -47.330829912739176 19.106245717392 #
straight-curve $-1 34.417137720029871 -47.330829912739176 15.984835680092409 1 0 0 I I #
edge $-1 $362 -19.106245717392 $286 -15.984835680092406 $285 $390 forward 7 unknown #
point $-1 78.319040498062051 -47.330829912739176 15.984835680092406 #
point $-1 59.349510382057431 -47.330829912739176 15.984835680092406 #
vertex $-1 $290 $391 #
straight-curve $-1 78.319040498062066 0 19.106245717392 0 1 0 I I #
vertex $-1 $293 $392 #
point $-1 65.269376129487341 -45.323462786287799 16.929879233981712 #
vertex $-1 $297 $393 #
point $-1 73.39917475063217 -45.323462786287799 16.929879233981712 #
coedge $-1 $312 $311 $304 $369 forward $301 $-1 #
edge $-1 $370 66.670890735159773 $373 84.090175934283664 $368 $394 forward 7 unknown #
vertex $-1 $316 $395 #
straight-curve $-1 -0.34035207828788572 57.72937847185095 19.106245717392 0 1 0 I I #
edge $-1 $373 -4.2782832285460941 $313 13.515553842214054 $312 $396 forward 7 unknown #
vertex $-1 $372 $397 #
straight-curve $-1 -0.34035207828788572 -9.6379780536489221 77.287124273404032 0 -0.60181501223851219 0.79863551827123203 I I #
point $-1 -0.34035207828788572 34.204457374250872 19.106245717391992 #
point $-1 -18.134189149048034 47.330829912739176 1.6869605182681084 #
straight-curve $-1 0 47.330829912739176 19.106245717392 -1 0 0 I I #
vertex $-1 $319 $398 #
point $-1 -7.7372706136679597 36.183892062287136 6.9424986473523544 #
straight-curve $-1 -78.319040498062066 47.330829912739176 0 0 0 -1 I I #
point $-1 -78.319040498062066 -47.330829912739176 -19.106245717392 #
straight-curve $-1 -78.319040498062066 0 -19.106245717392 0 1 0 I I #
point $-1 -78.319040498062066 47.330829912739176 -19.106245717392 #
straight-curve $-1 -57.233155186404836 -5.7756493905907682 -19.106245717392 0 -1 0 I I #
straight-curve $-1 -57.233155186404836 -5.7756493905907682 19.106245717392 0 1 0 I I #
straight-curve $-1 -78.319040498062066 -9.1183384779551773 0 0 0 -1 I I #
point $-1 -78.319040498062066 -9.1183384779551773 -19.106245717392 #
point $-1 -78.319040498062066 -9.1183384779551773 19.106245717392 #
straight-curve $-1 0 -47.330829912739176 19.106245717392 1 0 0 I I #
straight-curve $-1 78.319040498062066 -47.330829912739176 0 0 0 -1 I I #
point $-1 78.319040498062066 -47.330829912739176 19.106245717392 #
point $-1 64.769376129487341 -44.929457405357233 16.622048501601466 #
point $-1 72.89917475063217 -44.929457405357233 16.622048501601466 #
straight-curve $-1 -0.34035207828788572 47.330829912739176 85.777136452551773 0 0 -1 I I #
point $-1 -0.34035207828788572 47.330829912739176 19.106245717392 #
straight-curve $-1 -4.6186353068339798 47.330829912739176 1.6869605182681084 -1 0 0 I I #
point $-1 -0.34035207828788572 47.330829912739176 1.6869605182681084 #
point $-1 -9.2372706136679597 34.985938784880283 6.0397761289945864 #
End-of-ACIS-data 