500 0 9 0           
7 Unknown 11 ACIS 5.0 NT 24 Fri Mar 26 01:02:26 1999 
-1 9.9999999999999995e-007 1e-010 
body $-1 $9 $-1 $10 #
body $-1 $11 $-1 $12 #
body $-1 $13 $-1 $14 #
body $-1 $15 $-1 $16 #
body $-1 $17 $-1 $18 #
body $-1 $19 $-1 $20 #
body $-1 $21 $-1 $22 #
body $-1 $23 $-1 $24 #
body $-1 $25 $-1 $26 #
lump $-1 $-1 $27 $0 #
transform $-1 1 0 0 0 1 0 0 0 1 70.254829554124569 35.631486264478731 13.340575476584721 1 rotate no_reflect no_shear #
lump $-1 $-1 $28 $1 #
transform $-1 1 0 0 0 1 0 0 0 1 70.254829554124569 35.631486264478731 13.340575476584721 1 rotate no_reflect no_shear #
lump $-1 $-1 $29 $2 #
transform $-1 1 0 0 0 1 0 0 0 1 70.254829554124569 35.631486264478731 13.340575476584721 1 rotate no_reflect no_shear #
lump $-1 $-1 $30 $3 #
transform $-1 1 0 0 0 1 0 0 0 1 70.254829554124569 35.631486264478731 13.340575476584721 1 rotate no_reflect no_shear #
lump $-1 $-1 $31 $4 #
transform $-1 1 0 0 0 1 0 0 0 1 70.254829554124569 35.631486264478731 13.340575476584721 1 rotate no_reflect no_shear #
lump $-1 $-1 $32 $5 #
transform $-1 1 0 0 0 1 0 0 0 1 70.254829554124569 35.631486264478731 13.340575476584721 1 rotate no_reflect no_shear #
lump $-1 $-1 $33 $6 #
transform $-1 1 0 0 0 1 0 0 0 1 70.254829554124569 35.631486264478731 13.340575476584721 1 rotate no_reflect no_shear #
lump $-1 $-1 $34 $7 #
transform $-1 1 0 0 0 1 0 0 0 1 70.254829554124569 35.631486264478731 13.340575476584721 1 rotate no_reflect no_shear #
lump $-1 $-1 $35 $8 #
transform $-1 1 0 0 0 1 0 0 0 1 70.254829554124569 35.631486264478731 13.340575476584721 1 rotate no_reflect no_shear #
shell $-1 $-1 $-1 $36 $-1 $9 #
shell $-1 $-1 $-1 $37 $-1 $11 #
shell $-1 $-1 $-1 $38 $-1 $13 #
shell $-1 $-1 $-1 $39 $-1 $15 #
shell $-1 $-1 $-1 $40 $-1 $17 #
shell $-1 $-1 $-1 $41 $-1 $19 #
shell $-1 $-1 $-1 $42 $-1 $21 #
shell $-1 $-1 $-1 $43 $-1 $23 #
shell $-1 $-1 $-1 $44 $-1 $25 #
face $-1 $45 $46 $27 $-1 $47 forward single #
face $-1 $48 $49 $28 $-1 $50 reversed single #
face $-1 $51 $52 $29 $-1 $53 reversed single #
face $-1 $54 $55 $30 $-1 $56 reversed single #
face $-1 $57 $58 $31 $-1 $59 forward single #
face $-1 $60 $61 $32 $-1 $62 forward single #
face $-1 $63 $64 $33 $-1 $65 reversed single #
face $-1 $66 $67 $34 $-1 $68 forward single #
face $-1 $69 $70 $35 $-1 $71 forward single #
face $-1 $72 $73 $27 $-1 $74 reversed single #
loop $-1 $-1 $75 $36 #
plane-surface $-1 0 0 13.340575476584721 0 0 1 1 0 0 forward_v I I I I #
face $-1 $76 $77 $28 $-1 $78 reversed single #
loop $-1 $-1 $79 $37 #
plane-surface $-1 0 -29.842424820813541 7.4316699276524236 0 0 1 1 0 0 forward_v I I I I #
face $-1 $80 $81 $29 $-1 $82 reversed single #
loop $-1 $-1 $83 $38 #
plane-surface $-1 0 29.842424820813541 7.4316699276524236 0 0 1 1 0 0 forward_v I I I I #
face $-1 $84 $85 $30 $-1 $86 reversed single #
loop $-1 $-1 $87 $39 #
plane-surface $-1 121.68493723415662 8.5400085562217321 198.14088940398656 0 -1 0 -0.86602541151947299 0 -0.49999998660252726 forward_v I I I I #
face $-1 $88 $89 $31 $-1 $90 forward single #
loop $-1 $91 $92 $40 #
cone-surface $-1 67.502517189336629 4.088498538309274 9.3717107983187802 -0.86602541151947299 0 -0.49999998660252726 0.24999999330126363 0 -0.43301270575973649 1 I I 0 1 0.5 forward I I I I #
face $-1 $93 $94 $32 $-1 $95 forward single #
loop $-1 $96 $97 $41 #
cone-surface $-1 67.502517189336629 6.7594045490567538 9.3717107983187802 -0.86602541151947299 0 -0.49999998660252726 0.24999999330126363 0 -0.43301270575973649 1 I I 0 1 0.5 forward I I I I #
face $-1 $98 $99 $33 $-1 $100 reversed single #
loop $-1 $-1 $101 $42 #
plane-surface $-1 -156.76121466304761 -2.5651281583588386 112.50361795502734 0 1 0 -0.61566148304635926 0 0.78801074757464917 forward_v I I I I #
face $-1 $102 $103 $34 $-1 $104 forward single #
loop $-1 $105 $106 $43 #
cone-surface $-1 -61.776058383561022 0.93210500861236056 6.1773566878453448 0.61566148304635926 0 -0.78801074757464917 1.1820161213619738 0 0.92349222456953894 1 I I 0 1 1.5 forward I I I I #
face $-1 $107 $108 $35 $-1 $109 forward single #
loop $-1 $110 $111 $44 #
cone-surface $-1 -61.776058383561022 6.1779547590691593 6.1773566878453448 0.61566148304635926 0 -0.78801074757464917 1.1820161213619738 0 0.92349222456953894 1 I I 0 1 1.5 forward I I I I #
face $-1 $112 $113 $27 $-1 $114 reversed single #
loop $-1 $-1 $115 $45 #
plane-surface $-1 0 0 -13.340575476584721 0 0 1 1 0 0 forward_v I I I I #
coedge $-1 $116 $117 $118 $119 forward $46 $-1 #
face $-1 $120 $121 $28 $-1 $122 reversed single #
loop $-1 $-1 $123 $48 #
plane-surface $-1 0 -24.053363377148351 10.386122702118573 0 -1 0 0 0 -1 forward_v I I I I #
coedge $-1 $124 $125 $126 $127 reversed $49 $-1 #
face $-1 $128 $129 $29 $-1 $130 forward single #
loop $-1 $-1 $131 $51 #
plane-surface $-1 0 24.053363377148351 10.386122702118573 0 1 0 0 0 1 forward_v I I I I #
coedge $-1 $132 $133 $134 $135 reversed $52 $-1 #
face $-1 $136 $137 $30 $-1 $138 reversed single #
loop $-1 $-1 $139 $54 #
plane-surface $-1 1.8824742937795236e-006 5.4239515436830104 127.88606173233632 0.86602541151947299 0 0.49999998660252726 0.49999998660252726 0 -0.86602541151947299 forward_v I I I I #
coedge $-1 $140 $141 $142 $143 reversed $55 $-1 #
face $-1 $-1 $144 $31 $-1 $145 forward single #
loop $-1 $146 $147 $57 #
cone-surface $-1 66.594679826737604 4.088498538309274 8.8475706713675741 -0.86602541151947299 0 -0.49999998660252726 0.12499999665063181 0 -0.21650635287986825 1 I I -0.70710678118654746 0.70710678118654746 0.25 forward I I I I #
loop $-1 $-1 $148 $40 #
coedge $-1 $92 $92 $149 $150 reversed $58 $-1 #
face $-1 $-1 $151 $32 $-1 $152 forward single #
loop $-1 $153 $154 $60 #
cone-surface $-1 66.594679826737604 6.7594045490567538 8.8475706713675741 -0.86602541151947299 0 -0.49999998660252726 0.12499999665063181 0 -0.21650635287986825 1 I I -0.70710678118654746 0.70710678118654746 0.25 forward I I I I #
loop $-1 $-1 $155 $41 #
coedge $-1 $97 $97 $156 $157 reversed $61 $-1 #
face $-1 $158 $159 $33 $-1 $160 reversed single #
loop $-1 $-1 $161 $63 #
plane-surface $-1 -70.254829554124569 3.5550298838407599 1.7804964396768241 -0.61566148304635926 0 0.78801074757464917 0.78801074757464917 0 0.61566148304635926 forward_v I I I I #
coedge $-1 $162 $163 $164 $165 reversed $64 $-1 #
face $-1 $-1 $166 $34 $-1 $167 forward single #
loop $-1 $168 $169 $66 #
cone-surface $-1 -60.23365416669597 0.93210500861236056 4.2031693568789237 0.61566148304635926 0 -0.78801074757464917 0.59100806068098688 0 0.46174611228476947 1 I I -0.70710678118654757 0.70710678118654757 0.75 forward I I I I #
loop $-1 $-1 $170 $43 #
coedge $-1 $106 $106 $171 $172 reversed $67 $-1 #
face $-1 $-1 $173 $35 $-1 $174 forward single #
loop $-1 $175 $176 $69 #
cone-surface $-1 -60.23365416669597 6.1779547590691593 4.2031693568789237 0.61566148304635926 0 -0.78801074757464917 0.59100806068098688 0 0.46174611228476947 1 I I -0.70710678118654757 0.70710678118654757 0.75 forward I I I I #
loop $-1 $-1 $177 $44 #
coedge $-1 $111 $111 $178 $179 reversed $70 $-1 #
face $-1 $180 $181 $27 $-1 $182 reversed single #
loop $-1 $-1 $183 $72 #
plane-surface $-1 0 -35.631486264478731 0 0 1 0 0 0 1 forward_v I I I I #
coedge $-1 $184 $185 $186 $187 forward $73 $-1 #
coedge $-1 $188 $75 $189 $190 forward $46 $-1 #
coedge $-1 $75 $188 $191 $192 forward $46 $-1 #
coedge $-1 $193 $194 $75 $119 reversed $195 $-1 #
edge $-1 $196 -35.631486264478731 $197 35.631486264478731 $118 $198 forward 7 unknown #
face $-1 $199 $200 $28 $-1 $201 reversed single #
loop $-1 $-1 $202 $76 #
plane-surface $-1 -70.254829554124569 0 0 1 0 0 0 0 -1 forward_v I I I I #
coedge $-1 $203 $204 $205 $206 reversed $77 $-1 #
coedge $-1 $207 $79 $208 $209 reversed $49 $-1 #
coedge $-1 $79 $207 $203 $210 forward $49 $-1 #
coedge $-1 $205 $211 $79 $127 forward $212 $-1 #
edge $-1 $213 -20.710273854071961 $214 -9.1321509667415803 $126 $215 forward 7 unknown #
face $-1 $216 $217 $29 $-1 $218 reversed single #
loop $-1 $-1 $219 $80 #
plane-surface $-1 0 0 13.340575476584721 0 0 1 1 0 0 forward_v I I I I #
coedge $-1 $220 $221 $222 $223 reversed $81 $-1 #
coedge $-1 $224 $83 $220 $225 forward $52 $-1 #
coedge $-1 $83 $224 $226 $227 reversed $52 $-1 #
coedge $-1 $228 $229 $83 $135 forward $217 $-1 #
edge $-1 $230 9.1321509667415803 $231 20.710273854071961 $134 $232 forward 7 unknown #
face $-1 $233 $234 $30 $-1 $235 forward single #
loop $-1 $-1 $236 $84 #
plane-surface $-1 121.68493723415662 2.3078945311442887 198.14088940398656 0 1 0 0.86602541151947299 0 0.49999998660252726 forward_v I I I I #
coedge $-1 $237 $238 $239 $240 reversed $85 $-1 #
coedge $-1 $141 $87 $241 $242 reversed $55 $-1 #
coedge $-1 $87 $140 $237 $243 reversed $55 $-1 #
coedge $-1 $239 $244 $87 $143 forward $234 $-1 #
edge $-1 $245 -9.4123609370462589 $246 -5.2903982269086782 $142 $247 forward 7 unknown #
loop $-1 $-1 $149 $88 #
plane-surface $-1 1.8824742937795236e-006 5.4239515436830104 127.88606173233632 0.86602541151947299 0 0.49999998660252726 0.49999998660252726 0 -0.86602541151947299 forward_v I I I I #
loop $-1 $-1 $248 $57 #
coedge $-1 $147 $147 $148 $249 reversed $89 $-1 #
coedge $-1 $148 $148 $147 $249 forward $91 $-1 #
coedge $-1 $149 $149 $92 $150 forward $144 $-1 #
edge $-1 $250 0 $250 6.2831853071796004 $149 $251 forward 7 unknown #
loop $-1 $-1 $156 $93 #
plane-surface $-1 1.8824742937795236e-006 5.4239515436830104 127.88606173233632 0.86602541151947299 0 0.49999998660252726 0.49999998660252726 0 -0.86602541151947299 forward_v I I I I #
loop $-1 $-1 $252 $60 #
coedge $-1 $154 $154 $155 $253 reversed $94 $-1 #
coedge $-1 $155 $155 $154 $253 forward $96 $-1 #
coedge $-1 $156 $156 $97 $157 forward $151 $-1 #
edge $-1 $254 0 $254 6.2831853071796004 $156 $255 forward 7 unknown #
face $-1 $256 $257 $33 $-1 $258 reversed single #
loop $-1 $-1 $259 $98 #
plane-surface $-1 -156.76121466304761 9.6751879260403584 112.50361795502734 0 -1 0 0.61566148304635926 0 -0.78801074757464917 forward_v I I I I #
coedge $-1 $260 $261 $262 $263 reversed $99 $-1 #
coedge $-1 $163 $101 $264 $265 reversed $64 $-1 #
coedge $-1 $101 $162 $260 $266 reversed $64 $-1 #
coedge $-1 $262 $267 $101 $165 forward $268 $-1 #
edge $-1 $269 8.1257777773992359 $270 22.922003909365785 $164 $271 forward 7 unknown #
loop $-1 $-1 $171 $102 #
plane-surface $-1 -70.254829554124569 3.5550298838407599 1.7804964396768241 -0.61566148304635926 0 0.78801074757464917 0.78801074757464917 0 0.61566148304635926 forward_v I I I I #
loop $-1 $-1 $272 $66 #
coedge $-1 $169 $169 $170 $273 reversed $103 $-1 #
coedge $-1 $170 $170 $169 $273 forward $105 $-1 #
coedge $-1 $171 $171 $106 $172 forward $166 $-1 #
edge $-1 $274 0 $274 6.2831853071796004 $171 $275 forward 7 unknown #
loop $-1 $-1 $178 $107 #
plane-surface $-1 -70.254829554124569 3.5550298838407599 1.7804964396768241 -0.61566148304635926 0 0.78801074757464917 0.78801074757464917 0 0.61566148304635926 forward_v I I I I #
loop $-1 $-1 $276 $69 #
coedge $-1 $176 $176 $177 $277 reversed $108 $-1 #
coedge $-1 $177 $177 $176 $277 forward $110 $-1 #
coedge $-1 $178 $178 $111 $179 forward $173 $-1 #
edge $-1 $278 0 $278 6.2831853071796004 $178 $279 forward 7 unknown #
face $-1 $280 $281 $27 $-1 $282 reversed single #
loop $-1 $-1 $283 $112 #
plane-surface $-1 -70.254829554124569 0 0 1 0 0 0 0 -1 forward_v I I I I #
coedge $-1 $284 $191 $285 $286 forward $113 $-1 #
coedge $-1 $287 $115 $284 $288 forward $73 $-1 #
coedge $-1 $115 $287 $289 $290 forward $73 $-1 #
coedge $-1 $194 $193 $115 $187 reversed $195 $-1 #
edge $-1 $291 -35.631486264478731 $292 35.631486264478731 $186 $293 forward 7 unknown #
coedge $-1 $117 $116 $294 $295 forward $46 $-1 #
coedge $-1 $296 $297 $116 $190 reversed $281 $-1 #
edge $-1 $197 -70.254829554124569 $298 70.254829554124569 $189 $299 forward 7 unknown #
coedge $-1 $183 $300 $117 $192 reversed $113 $-1 #
edge $-1 $301 -70.254829554124569 $196 70.254829554124569 $191 $302 forward 7 unknown #
coedge $-1 $186 $118 $300 $303 forward $195 $-1 #
coedge $-1 $118 $186 $296 $304 reversed $195 $-1 #
loop $-1 $-1 $193 $280 #
vertex $-1 $119 $305 #
vertex $-1 $119 $306 #
straight-curve $-1 70.254829554124569 0 13.340575476584721 0 1 0 I I #
face $-1 $307 $308 $28 $-1 $309 forward single #
loop $-1 $-1 $208 $120 #
plane-surface $-1 0 -35.631486264478731 0 0 1 0 0 0 1 forward_v I I I I #
coedge $-1 $310 $311 $312 $313 forward $121 $-1 #
coedge $-1 $312 $123 $125 $210 reversed $77 $-1 #
coedge $-1 $123 $312 $314 $315 reversed $77 $-1 #
coedge $-1 $316 $126 $123 $206 forward $212 $-1 #
edge $-1 $214 2.2386085765931369 $317 8.1475141255254364 $205 $318 forward 7 unknown #
coedge $-1 $125 $124 $310 $319 reversed $49 $-1 #
coedge $-1 $320 $321 $124 $209 forward $200 $-1 #
edge $-1 $322 -70.254829554124569 $213 70.254829554124569 $208 $323 forward 7 unknown #
edge $-1 $324 -70.254829554124569 $214 70.254829554124569 $203 $325 forward 7 unknown #
coedge $-1 $126 $316 $320 $326 forward $212 $-1 #
loop $-1 $-1 $205 $307 #
vertex $-1 $209 $327 #
vertex $-1 $127 $328 #
straight-curve $-1 70.254829554124569 -14.92121241040677 7.4316699276524236 0 1 0 I I #
face $-1 $329 $330 $29 $-1 $331 reversed single #
loop $-1 $-1 $229 $128 #
plane-surface $-1 70.254829554124569 0 0 -1 0 0 0 0 1 forward_v I I I I #
coedge $-1 $332 $333 $221 $334 forward $129 $-1 #
coedge $-1 $335 $131 $132 $225 reversed $81 $-1 #
coedge $-1 $131 $335 $219 $334 reversed $81 $-1 #
coedge $-1 $336 $337 $131 $223 forward $330 $-1 #
edge $-1 $338 2.2386085765931369 $339 8.1475141255254364 $222 $340 forward 7 unknown #
coedge $-1 $133 $132 $337 $341 reversed $52 $-1 #
edge $-1 $230 -70.254829554124569 $338 70.254829554124569 $220 $342 forward 7 unknown #
coedge $-1 $343 $344 $133 $227 forward $345 $-1 #
edge $-1 $231 -70.254829554124569 $346 70.254829554124569 $226 $347 forward 7 unknown #
coedge $-1 $348 $134 $344 $349 reversed $217 $-1 #
coedge $-1 $134 $348 $335 $350 forward $217 $-1 #
vertex $-1 $135 $351 #
vertex $-1 $227 $352 #
straight-curve $-1 70.254829554124569 14.92121241040677 7.4316699276524236 0 1 0 I I #
face $-1 $-1 $353 $30 $-1 $354 reversed single #
loop $-1 $-1 $142 $136 #
plane-surface $-1 0 0 13.340575476584721 0 0 1 1 0 0 forward_v I I I I #
coedge $-1 $355 $356 $357 $358 reversed $137 $-1 #
coedge $-1 $359 $139 $141 $243 forward $85 $-1 #
coedge $-1 $139 $359 $355 $360 forward $85 $-1 #
coedge $-1 $357 $142 $139 $240 forward $234 $-1 #
edge $-1 $246 -5.8280327843802269 $361 0.40408124069721651 $239 $362 forward 7 unknown #
coedge $-1 $363 $364 $140 $242 forward $353 $-1 #
edge $-1 $365 -92.869318321339335 $245 -85.729869225408564 $241 $366 forward 7 unknown #
edge $-1 $246 132.26573346707852 $365 140.5096591082492 $141 $367 forward 7 unknown #
coedge $-1 $142 $357 $363 $368 forward $234 $-1 #
vertex $-1 $242 $369 #
vertex $-1 $143 $370 #
straight-curve $-1 60.84246861707831 8.5400085562217321 13.340575476584718 -1 0 0 I I #
coedge $-1 $248 $248 $-1 $371 reversed $146 $-1 #
edge $-1 $372 0 $372 6.2831853071796004 $147 $373 forward 7 unknown #
vertex $-1 $150 $374 #
ellipse-curve $-1 68.193848199055765 4.088498538309274 9.7708509286193408 0.86602541151947299 0 0.49999998660252726 0.24999999330126363 0 -0.43301270575973649 1 I I #
coedge $-1 $252 $252 $-1 $375 reversed $153 $-1 #
edge $-1 $376 0 $376 6.2831853071796004 $154 $377 forward 7 unknown #
vertex $-1 $157 $378 #
ellipse-curve $-1 68.193848199055765 6.7594045490567538 9.7708509286193408 0.86602541151947299 0 0.49999998660252726 0.24999999330126363 0 -0.43301270575973649 1 I I #
face $-1 $-1 $268 $33 $-1 $379 forward single #
loop $-1 $-1 $380 $158 #
plane-surface $-1 -70.254829554124569 0 0 1 0 0 0 0 -1 forward_v I I I I #
coedge $-1 $381 $382 $383 $384 reversed $159 $-1 #
coedge $-1 $385 $161 $163 $266 forward $99 $-1 #
coedge $-1 $161 $385 $381 $386 forward $99 $-1 #
coedge $-1 $383 $164 $161 $263 forward $268 $-1 #
edge $-1 $270 -4.3426431002792185 $387 7.8976729841199784 $262 $388 forward 7 unknown #
coedge $-1 $389 $390 $162 $265 forward $257 $-1 #
edge $-1 $391 -54.471312537836845 $269 -42.911233500928944 $264 $392 forward 7 unknown #
edge $-1 $270 -18.776680619530364 $391 0 $163 $393 forward 7 unknown #
coedge $-1 $164 $383 $389 $394 forward $268 $-1 #
loop $-1 $-1 $383 $256 #
vertex $-1 $265 $395 #
vertex $-1 $165 $396 #
straight-curve $-1 -78.380607331523805 -2.5651281583588386 13.340575476584725 1 0 0 I I #
coedge $-1 $272 $272 $-1 $397 reversed $168 $-1 #
edge $-1 $398 0 $398 6.2831853071796004 $169 $399 forward 7 unknown #
vertex $-1 $172 $400 #
ellipse-curve $-1 -62.856716488141295 0.93210500861236056 7.5605359581307701 -0.61566148304635926 0 0.78801074757464917 1.1820161213619738 0 0.92349222456953894 1 I I #
coedge $-1 $276 $276 $-1 $401 reversed $175 $-1 #
edge $-1 $402 0 $402 6.2831853071796004 $176 $403 forward 7 unknown #
vertex $-1 $179 $404 #
ellipse-curve $-1 -62.856716488141295 6.1779547590691593 7.5605359581307701 -0.61566148304635926 0 0.78801074757464917 1.1820161213619738 0 0.92349222456953894 1 I I #
face $-1 $-1 $195 $27 $-1 $405 reversed single #
loop $-1 $-1 $296 $180 #
plane-surface $-1 0 35.631486264478731 0 0 -1 0 0 0 -1 forward_v I I I I #
coedge $-1 $406 $294 $297 $407 forward $181 $-1 #
coedge $-1 $300 $183 $184 $288 reversed $113 $-1 #
coedge $-1 $294 $406 $183 $286 reversed $181 $-1 #
edge $-1 $301 -13.340575476584721 $408 13.340575476584721 $285 $409 forward 7 unknown #
coedge $-1 $185 $184 $406 $410 forward $73 $-1 #
edge $-1 $292 -70.254829554124569 $408 70.254829554124569 $284 $411 forward 7 unknown #
coedge $-1 $297 $296 $185 $290 reversed $281 $-1 #
edge $-1 $412 -70.254829554124569 $291 70.254829554124569 $289 $413 forward 7 unknown #
vertex $-1 $187 $414 #
vertex $-1 $303 $415 #
straight-curve $-1 70.254829554124569 0 -13.340575476584721 0 -1 0 I I #
coedge $-1 $283 $285 $188 $295 reversed $181 $-1 #
edge $-1 $298 -35.631486264478731 $301 35.631486264478731 $294 $416 forward 7 unknown #
coedge $-1 $289 $189 $194 $304 forward $281 $-1 #
coedge $-1 $189 $289 $283 $407 reversed $281 $-1 #
vertex $-1 $190 $417 #
straight-curve $-1 0 35.631486264478731 13.340575476584721 -1 0 0 I I #
coedge $-1 $191 $284 $193 $303 reversed $113 $-1 #
vertex $-1 $295 $418 #
straight-curve $-1 0 -35.631486264478731 13.340575476584721 1 0 0 I I #
edge $-1 $196 -13.340575476584721 $292 13.340575476584721 $193 $419 forward 7 unknown #
edge $-1 $197 -13.340575476584721 $291 13.340575476584721 $194 $420 forward 7 unknown #
point $-1 70.254829554124569 -35.631486264478731 13.340575476584721 #
point $-1 70.254829554124569 35.631486264478731 13.340575476584721 #
face $-1 $-1 $212 $28 $-1 $421 reversed single #
loop $-1 $-1 $314 $199 #
plane-surface $-1 0 0 13.340575476584721 0 0 1 1 0 0 forward_v I I I I #
coedge $-1 $422 $202 $207 $319 forward $121 $-1 #
coedge $-1 $202 $422 $423 $424 reversed $121 $-1 #
coedge $-1 $204 $203 $202 $313 reversed $77 $-1 #
edge $-1 $425 -8.1475141255254364 $324 -2.2386085765931369 $202 $426 forward 7 unknown #
coedge $-1 $423 $427 $204 $315 forward $308 $-1 #
edge $-1 $317 -70.254829554124569 $425 70.254829554124569 $314 $428 forward 7 unknown #
coedge $-1 $211 $205 $427 $429 reversed $212 $-1 #
vertex $-1 $206 $430 #
straight-curve $-1 70.254829554124569 -24.053363377148351 5.1930613510592867 0 0 1 I I #
edge $-1 $324 9.1321509667415803 $322 20.710273854071961 $310 $431 forward 7 unknown #
coedge $-1 $432 $208 $211 $326 reversed $200 $-1 #
coedge $-1 $208 $432 $422 $433 forward $200 $-1 #
vertex $-1 $209 $434 #
straight-curve $-1 0 -35.631486264478731 7.4316699276524236 1 0 0 I I #
vertex $-1 $319 $435 #
straight-curve $-1 0 -24.053363377148351 7.4316699276524236 1 0 0 I I #
edge $-1 $436 -13.340575476584721 $213 -7.4316699276524236 $211 $437 forward 7 unknown #
point $-1 70.254829554124569 -35.631486264478731 7.4316699276524236 #
point $-1 70.254829554124569 -24.053363377148351 7.4316699276524236 #
face $-1 $-1 $345 $29 $-1 $438 reversed single #
loop $-1 $-1 $222 $216 #
plane-surface $-1 -70.254829554124569 0 0 1 0 0 0 0 -1 forward_v I I I I #
coedge $-1 $439 $219 $348 $440 forward $129 $-1 #
coedge $-1 $219 $439 $336 $441 forward $129 $-1 #
edge $-1 $339 -70.254829554124569 $442 70.254829554124569 $219 $443 forward 7 unknown #
coedge $-1 $221 $220 $229 $350 reversed $81 $-1 #
coedge $-1 $444 $222 $333 $441 reversed $330 $-1 #
coedge $-1 $222 $444 $224 $341 forward $330 $-1 #
vertex $-1 $341 $445 #
vertex $-1 $223 $446 #
straight-curve $-1 -70.254829554124569 24.053363377148351 5.1930613510592867 0 0 1 I I #
edge $-1 $346 -20.710273854071961 $338 -9.1321509667415803 $337 $447 forward 7 unknown #
straight-curve $-1 0 24.053363377148351 7.4316699276524236 -1 0 0 I I #
coedge $-1 $448 $226 $444 $449 reversed $345 $-1 #
coedge $-1 $226 $448 $228 $349 forward $345 $-1 #
loop $-1 $-1 $226 $329 #
vertex $-1 $227 $450 #
straight-curve $-1 0 35.631486264478731 7.4316699276524236 -1 0 0 I I #
coedge $-1 $229 $228 $332 $440 reversed $217 $-1 #
edge $-1 $451 -13.340575476584721 $231 -7.4316699276524236 $228 $452 forward 7 unknown #
edge $-1 $442 -8.1475141255254364 $230 -2.2386085765931369 $229 $453 forward 7 unknown #
point $-1 70.254829554124569 24.053363377148351 7.4316699276524236 #
point $-1 70.254829554124569 35.631486264478731 7.4316699276524236 #
loop $-1 $-1 $241 $233 #
plane-surface $-1 70.254829554124569 0 0 -1 0 0 0 0 1 forward_v I I I I #
coedge $-1 $356 $236 $238 $360 reversed $137 $-1 #
coedge $-1 $236 $355 $454 $455 reversed $137 $-1 #
coedge $-1 $244 $239 $236 $358 forward $234 $-1 #
edge $-1 $361 5.2903982269086782 $456 9.4123609370462589 $357 $457 forward 7 unknown #
coedge $-1 $238 $237 $364 $458 reversed $85 $-1 #
edge $-1 $459 -140.5096591082492 $361 -132.26573346707852 $355 $460 forward 7 unknown #
vertex $-1 $240 $461 #
straight-curve $-1 66.132866843986989 2.7119757718415052 13.340575476584718 0 -1 0 I I #
coedge $-1 $454 $241 $244 $368 reversed $353 $-1 #
coedge $-1 $241 $454 $359 $458 forward $353 $-1 #
vertex $-1 $242 $462 #
straight-curve $-1 70.254829554124569 8.5400085562217321 99.070444701993281 0 0 1 I I #
straight-curve $-1 1.8824742937795236e-006 8.5400085562217321 127.88606173233632 0.49999998660252726 0 -0.86602541151947299 I I #
edge $-1 $456 2.3078945311442887 $245 8.5400085562217321 $363 $463 forward 7 unknown #
point $-1 70.254829554124569 8.5400085562217321 13.340575476584721 #
point $-1 66.132866843986989 8.5400085562217321 13.340575476584718 #
edge $-1 $464 1 $464 0 $248 $-1 forward 7 unknown #
vertex $-1 $249 $465 #
ellipse-curve $-1 66.811186179617465 4.088498538309274 8.9725706680182054 0.86602541151947299 0 0.49999998660252726 0.24999999330126363 0 -0.43301270575973649 1 I I #
point $-1 68.443848192357052 4.088498538309274 9.3378382228596202 #
edge $-1 $466 1 $466 0 $252 $-1 forward 7 unknown #
vertex $-1 $253 $467 #
ellipse-curve $-1 66.811186179617465 6.7594045490567538 8.9725706680182054 0.86602541151947299 0 0.49999998660252726 0.24999999330126363 0 -0.43301270575973649 1 I I #
point $-1 68.443848192357052 6.7594045490567538 9.3378382228596202 #
plane-surface $-1 0 0 13.340575476584721 0 0 1 1 0 0 forward_v I I I I #
coedge $-1 $390 $389 $382 $468 forward $257 $-1 #
coedge $-1 $382 $259 $261 $386 reversed $159 $-1 #
coedge $-1 $259 $381 $380 $468 reversed $159 $-1 #
coedge $-1 $267 $262 $259 $384 forward $268 $-1 #
edge $-1 $387 -22.922003909365785 $469 -8.1257777773992359 $383 $470 forward 7 unknown #
coedge $-1 $261 $260 $390 $471 reversed $99 $-1 #
edge $-1 $472 0 $387 18.776680619530364 $381 $473 forward 7 unknown #
vertex $-1 $263 $474 #
straight-curve $-1 -55.458603422158021 1.77751494192038 13.340575476584721 0 1 0 I I #
coedge $-1 $380 $264 $267 $394 reversed $257 $-1 #
coedge $-1 $264 $380 $385 $471 forward $257 $-1 #
vertex $-1 $265 $475 #
straight-curve $-1 -70.254829554124569 -2.5651281583588386 56.251808977513669 0 0 1 I I #
straight-curve $-1 -70.254829554124569 -2.5651281583588386 1.7804964396768241 -0.78801074757464917 0 -0.61566148304635926 I I #
edge $-1 $469 -9.6751879260403584 $269 2.5651281583588386 $389 $476 forward 7 unknown #
point $-1 -70.254829554124569 -2.5651281583588386 13.340575476584721 #
point $-1 -55.458603422158021 -2.5651281583588386 13.340575476584721 #
edge $-1 $477 1 $477 0 $272 $-1 forward 7 unknown #
vertex $-1 $273 $478 #
ellipse-curve $-1 -60.695400278980742 0.93210500861236056 4.7941774175599106 -0.61566148304635926 0 0.78801074757464917 1.1820161213619738 0 0.92349222456953894 1 I I #
point $-1 -61.674700366779334 0.93210500861236056 8.4840281827003192 #
edge $-1 $479 1 $479 0 $276 $-1 forward 7 unknown #
vertex $-1 $277 $480 #
ellipse-curve $-1 -60.695400278980742 6.1779547590691593 4.7941774175599106 -0.61566148304635926 0 0.78801074757464917 1.1820161213619738 0 0.92349222456953894 1 I I #
point $-1 -61.674700366779334 6.1779547590691593 8.4840281827003192 #
plane-surface $-1 70.254829554124569 0 0 -1 0 0 0 0 1 forward_v I I I I #
coedge $-1 $285 $283 $287 $410 reversed $181 $-1 #
edge $-1 $298 -13.340575476584721 $412 13.340575476584721 $297 $481 forward 7 unknown #
vertex $-1 $410 $482 #
straight-curve $-1 -70.254829554124569 -35.631486264478731 0 0 0 -1 I I #
edge $-1 $408 -35.631486264478731 $412 35.631486264478731 $406 $483 forward 7 unknown #
straight-curve $-1 0 -35.631486264478731 -13.340575476584721 -1 0 0 I I #
vertex $-1 $290 $484 #
straight-curve $-1 0 35.631486264478731 -13.340575476584721 1 0 0 I I #
point $-1 70.254829554124569 35.631486264478731 -13.340575476584721 #
point $-1 70.254829554124569 -35.631486264478731 -13.340575476584721 #
straight-curve $-1 -70.254829554124569 0 13.340575476584721 0 -1 0 I I #
point $-1 -70.254829554124569 35.631486264478731 13.340575476584721 #
point $-1 -70.254829554124569 -35.631486264478731 13.340575476584721 #
straight-curve $-1 70.254829554124569 -35.631486264478731 0 0 0 -1 I I #
straight-curve $-1 70.254829554124569 35.631486264478731 0 0 0 -1 I I #
plane-surface $-1 70.254829554124569 0 0 -1 0 0 0 0 1 forward_v I I I I #
coedge $-1 $311 $310 $321 $433 reversed $121 $-1 #
coedge $-1 $485 $314 $311 $424 forward $308 $-1 #
edge $-1 $425 24.053363377148351 $486 35.631486264478731 $311 $487 forward 7 unknown #
vertex $-1 $424 $488 #
straight-curve $-1 -70.254829554124569 -24.053363377148351 5.1930613510592867 0 0 -1 I I #
coedge $-1 $314 $485 $316 $429 forward $308 $-1 #
straight-curve $-1 0 -24.053363377148351 13.340575476584721 -1 0 0 I I #
edge $-1 $436 -35.631486264478731 $317 -24.053363377148351 $316 $489 forward 7 unknown #
point $-1 70.254829554124569 -24.053363377148351 13.340575476584723 #
straight-curve $-1 -70.254829554124569 -14.92121241040677 7.4316699276524236 0 -1 0 I I #
coedge $-1 $321 $320 $485 $490 reversed $200 $-1 #
edge $-1 $486 -13.340575476584721 $322 -7.4316699276524236 $422 $491 forward 7 unknown #
point $-1 -70.254829554124569 -35.631486264478731 7.4316699276524236 #
point $-1 -70.254829554124569 -24.053363377148351 7.4316699276524236 #
vertex $-1 $429 $492 #
straight-curve $-1 70.254829554124569 -35.631486264478731 0 0 0 -1 I I #
plane-surface $-1 0 35.631486264478731 0 0 -1 0 0 0 -1 forward_v I I I I #
coedge $-1 $333 $332 $448 $493 forward $129 $-1 #
edge $-1 $442 24.053363377148351 $451 35.631486264478731 $348 $494 forward 7 unknown #
edge $-1 $495 -35.631486264478731 $339 -24.053363377148351 $336 $496 forward 7 unknown #
vertex $-1 $440 $497 #
straight-curve $-1 0 24.053363377148351 13.340575476584721 1 0 0 I I #
coedge $-1 $337 $336 $343 $449 forward $330 $-1 #
point $-1 -70.254829554124569 24.053363377148351 7.4316699276524236 #
point $-1 -70.254829554124569 24.053363377148351 13.340575476584723 #
straight-curve $-1 -70.254829554124569 14.92121241040677 7.4316699276524236 0 -1 0 I I #
coedge $-1 $344 $343 $439 $493 reversed $345 $-1 #
edge $-1 $495 -13.340575476584721 $346 -7.4316699276524236 $343 $498 forward 7 unknown #
point $-1 -70.254829554124569 35.631486264478731 7.4316699276524236 #
vertex $-1 $440 $499 #
straight-curve $-1 70.254829554124569 35.631486264478731 0 0 0 -1 I I #
straight-curve $-1 70.254829554124569 24.053363377148351 5.1930613510592867 0 0 -1 I I #
coedge $-1 $364 $363 $356 $455 forward $353 $-1 #
edge $-1 $456 85.729869225408564 $459 92.869318321339335 $454 $500 forward 7 unknown #
vertex $-1 $368 $501 #
straight-curve $-1 60.84246861707831 2.3078945311442887 13.340575476584718 1 0 0 I I #
edge $-1 $459 -0.40408124069721651 $365 5.8280327843802269 $364 $502 forward 7 unknown #
vertex $-1 $458 $503 #
straight-curve $-1 1.8824742937795236e-006 2.3078945311442887 127.88606173233632 -0.49999998660252726 0 0.86602541151947299 I I #
point $-1 66.132866843986989 2.3078945311442887 13.340575476584718 #
point $-1 70.254829554124569 8.5400085562217321 6.2011263806539461 #
straight-curve $-1 70.254829554124569 0 13.340575476584721 0 1 0 I I #
vertex $-1 $371 $504 #
point $-1 67.061186172918738 4.088498538309274 8.5395579622584687 #
vertex $-1 $375 $505 #
point $-1 67.061186172918738 6.7594045490567538 8.5395579622584687 #
edge $-1 $469 42.911233500928944 $472 54.471312537836845 $380 $506 forward 7 unknown #
vertex $-1 $394 $507 #
straight-curve $-1 -78.380607331523805 9.6751879260403584 13.340575476584725 -1 0 0 I I #
edge $-1 $472 -7.8976729841199784 $391 4.3426431002792185 $390 $508 forward 7 unknown #
vertex $-1 $471 $509 #
straight-curve $-1 -70.254829554124569 9.6751879260403584 1.7804964396768241 0.78801074757464917 0 0.61566148304635926 I I #
point $-1 -55.458603422158021 9.6751879260403584 13.340575476584721 #
point $-1 -70.254829554124569 -2.5651281583588386 1.7804964396768241 #
straight-curve $-1 -70.254829554124569 0 13.340575476584721 0 -1 0 I I #
vertex $-1 $397 $510 #
point $-1 -59.513384157618766 0.93210500861236056 5.7176696421294491 #
vertex $-1 $401 $511 #
point $-1 -59.513384157618766 6.1779547590691593 5.7176696421294491 #
straight-curve $-1 -70.254829554124569 35.631486264478731 0 0 0 -1 I I #
point $-1 -70.254829554124569 -35.631486264478731 -13.340575476584721 #
straight-curve $-1 -70.254829554124569 0 -13.340575476584721 0 1 0 I I #
point $-1 -70.254829554124569 35.631486264478731 -13.340575476584721 #
coedge $-1 $427 $423 $432 $490 forward $308 $-1 #
vertex $-1 $424 $512 #
straight-curve $-1 -70.254829554124569 0 13.340575476584721 0 -1 0 I I #
point $-1 -70.254829554124569 -24.053363377148351 13.340575476584723 #
straight-curve $-1 70.254829554124569 0 13.340575476584721 0 1 0 I I #
edge $-1 $486 -70.254829554124569 $436 70.254829554124569 $432 $513 forward 7 unknown #
straight-curve $-1 -70.254829554124569 -35.631486264478731 0 0 0 -1 I I #
point $-1 70.254829554124569 -35.631486264478731 13.340575476584721 #
edge $-1 $451 -70.254829554124569 $495 70.254829554124569 $448 $514 forward 7 unknown #
straight-curve $-1 70.254829554124569 0 13.340575476584721 0 1 0 I I #
vertex $-1 $493 $515 #
straight-curve $-1 -70.254829554124569 0 13.340575476584721 0 -1 0 I I #
point $-1 70.254829554124569 24.053363377148351 13.340575476584723 #
straight-curve $-1 -70.254829554124569 35.631486264478731 0 0 0 -1 I I #
point $-1 70.254829554124569 35.631486264478731 13.340575476584721 #
straight-curve $-1 70.254829554124569 2.3078945311442887 99.070444701993281 0 0 -1 I I #
point $-1 70.254829554124569 2.3078945311442887 13.340575476584721 #
straight-curve $-1 70.254829554124569 2.7119757718415052 6.2011263806539318 0 1 0 I I #
point $-1 70.254829554124569 2.3078945311442887 6.2011263806539461 #
point $-1 66.378173473857743 4.088498538309274 8.7225706747169429 #
point $-1 66.378173473857743 6.7594045490567538 8.7225706747169429 #
straight-curve $-1 -70.254829554124569 9.6751879260403584 56.251808977513669 0 0 -1 I I #
point $-1 -70.254829554124569 9.6751879260403584 13.340575476584721 #
straight-curve $-1 -70.254829554124569 1.77751494192038 1.7804964396768201 0 -1 0 I I #
point $-1 -70.254829554124569 9.6751879260403584 1.7804964396768241 #
point $-1 -59.771908054411199 0.93210500861236056 3.6121612961979368 #
point $-1 -59.771908054411199 6.1779547590691593 3.6121612961979368 #
point $-1 -70.254829554124569 -35.631486264478731 13.340575476584721 #
straight-curve $-1 0 -35.631486264478731 13.340575476584721 1 0 0 I I #
straight-curve $-1 0 35.631486264478731 13.340575476584721 -1 0 0 I I #
point $-1 -70.254829554124569 35.631486264478731 13.340575476584721 #
End-of-ACIS-data 