500 0 8 0           
7 Unknown 11 ACIS 5.0 NT 24 Thu Mar 25 17:48:28 1999 
-1 9.9999999999999995e-007 1e-010 
body $-1 $8 $-1 $9 #
body $-1 $10 $-1 $11 #
body $-1 $12 $-1 $13 #
body $-1 $14 $-1 $15 #
body $-1 $16 $-1 $17 #
body $-1 $18 $-1 $19 #
body $-1 $20 $-1 $21 #
body $-1 $22 $-1 $23 #
lump $-1 $-1 $24 $0 #
transform $-1 1 0 0 0 1 0 0 0 1 74.355296487319563 43.552774741400668 9.3270220317806576 1 rotate no_reflect no_shear #
lump $-1 $-1 $25 $1 #
transform $-1 1 0 0 0 1 0 0 0 1 74.355296487319563 43.552774741400668 9.3270220317806576 1 rotate no_reflect no_shear #
lump $-1 $-1 $26 $2 #
transform $-1 1 0 0 0 1 0 0 0 1 74.355296487319563 43.552774741400668 9.3270220317806576 1 rotate no_reflect no_shear #
lump $-1 $-1 $27 $3 #
transform $-1 1 0 0 0 1 0 0 0 1 74.355296487319563 43.552774741400668 9.3270220317806576 1 rotate no_reflect no_shear #
lump $-1 $-1 $28 $4 #
transform $-1 1 0 0 0 1 0 0 0 1 74.355296487319563 43.552774741400668 9.3270220317806576 1 rotate no_reflect no_shear #
lump $-1 $-1 $29 $5 #
transform $-1 1 0 0 0 1 0 0 0 1 74.355296487319563 43.552774741400668 9.3270220317806576 1 rotate no_reflect no_shear #
lump $-1 $-1 $30 $6 #
transform $-1 1 0 0 0 1 0 0 0 1 74.355296487319563 43.552774741400668 9.3270220317806576 1 rotate no_reflect no_shear #
lump $-1 $-1 $31 $7 #
transform $-1 1 0 0 0 1 0 0 0 1 74.355296487319563 43.552774741400668 9.3270220317806576 1 rotate no_reflect no_shear #
shell $-1 $-1 $-1 $32 $-1 $8 #
shell $-1 $-1 $-1 $33 $-1 $10 #
shell $-1 $-1 $-1 $34 $-1 $12 #
shell $-1 $-1 $-1 $35 $-1 $14 #
shell $-1 $-1 $-1 $36 $-1 $16 #
shell $-1 $-1 $-1 $37 $-1 $18 #
shell $-1 $-1 $-1 $38 $-1 $20 #
shell $-1 $-1 $-1 $39 $-1 $22 #
face $-1 $40 $41 $24 $-1 $42 forward single #
face $-1 $43 $44 $25 $-1 $45 forward single #
face $-1 $46 $47 $26 $-1 $48 forward single #
face $-1 $49 $50 $27 $-1 $51 reversed single #
face $-1 $52 $53 $28 $-1 $54 forward single #
face $-1 $55 $56 $29 $-1 $57 reversed single #
face $-1 $58 $59 $30 $-1 $60 forward single #
face $-1 $61 $62 $31 $-1 $63 forward single #
face $-1 $64 $65 $24 $-1 $66 reversed single #
loop $-1 $-1 $67 $32 #
plane-surface $-1 0 0 9.3270220317806576 0 0 1 1 0 0 forward_v I I I I #
face $-1 $68 $69 $25 $-1 $70 reversed single #
loop $-1 $-1 $71 $33 #
plane-surface $-1 0 -43.552774741400668 0 0 1 0 0 0 1 forward_v I I I I #
face $-1 $72 $73 $26 $-1 $74 reversed single #
loop $-1 $-1 $75 $34 #
plane-surface $-1 0 43.552774741400668 0 0 -1 0 0 0 -1 forward_v I I I I #
face $-1 $76 $77 $27 $-1 $78 reversed single #
loop $-1 $-1 $79 $35 #
plane-surface $-1 -183.11534035833822 -21.448266921327225 102.20490909272975 0 1 0 -0.73135370988377701 0 0.68199835119979291 forward_v I I I I #
face $-1 $80 $81 $28 $-1 $82 forward single #
loop $-1 $83 $84 $36 #
cone-surface $-1 -69.47078628409372 -14.852182135621327 4.2151053288706795 0.73135370988377701 0 -0.68199835119979291 1.0229975267996894 0 1.0970305648256655 1 I I 0 1 1.5 forward I I I I #
face $-1 $85 $86 $29 $-1 $87 reversed single #
loop $-1 $-1 $88 $37 #
plane-surface $-1 37.835604079795061 19.638140732348162 213.31363959782675 0 -1 0 -0.57357644374324357 0 -0.81915203911291934 forward_v I I I I #
face $-1 $89 $90 $30 $-1 $91 forward single #
loop $-1 $92 $93 $38 #
cone-surface $-1 71.467416831922904 12.842789769848849 6.8280552688440439 -0.57357644374324357 0 -0.81915203911291934 0.81915203911291934 0 -0.57357644374324357 1 I I 0 1 1 forward I I I I #
face $-1 $94 $95 $31 $-1 $96 forward single #
loop $-1 $97 $98 $39 #
cone-surface $-1 71.467416831922904 16.920000347348441 6.8280552688440439 -0.57357644374324357 0 -0.81915203911291934 0.81915203911291934 0 -0.57357644374324357 1 I I 0 1 1 forward I I I I #
face $-1 $99 $100 $24 $-1 $101 reversed single #
loop $-1 $-1 $102 $40 #
plane-surface $-1 0 0 -9.3270220317806576 0 0 1 1 0 0 forward_v I I I I #
coedge $-1 $103 $104 $105 $106 forward $41 $-1 #
face $-1 $107 $108 $25 $-1 $109 reversed single #
loop $-1 $-1 $110 $43 #
plane-surface $-1 0 0 -9.3270220317806576 0 0 1 1 0 0 forward_v I I I I #
coedge $-1 $111 $112 $113 $114 forward $44 $-1 #
face $-1 $115 $116 $26 $-1 $117 forward single #
loop $-1 $-1 $118 $46 #
plane-surface $-1 -74.355296487319563 0 0 1 0 0 0 0 -1 forward_v I I I I #
coedge $-1 $119 $120 $121 $122 forward $47 $-1 #
face $-1 $123 $124 $27 $-1 $125 reversed single #
loop $-1 $-1 $126 $49 #
plane-surface $-1 -74.355296487319549 -14.852182135621327 0.78452987808235264 -0.73135370988377701 0 0.68199835119979291 0.68199835119979291 0 0.73135370988377701 forward_v I I I I #
coedge $-1 $127 $128 $129 $130 reversed $50 $-1 #
face $-1 $-1 $131 $28 $-1 $132 forward single #
loop $-1 $133 $134 $52 #
cone-surface $-1 -68.020762104953675 -14.852182135621327 2.8629359394100042 0.73135370988377701 0 -0.68199835119979291 0.51149876339984468 0 0.54851528241283276 1 I I -0.70710678118654757 0.70710678118654757 0.75 forward I I I I #
loop $-1 $-1 $135 $36 #
coedge $-1 $84 $84 $136 $137 reversed $53 $-1 #
face $-1 $138 $139 $29 $-1 $140 reversed single #
loop $-1 $-1 $141 $55 #
plane-surface $-1 -47.461288985547426 14.881395058598642 91.497054124959732 0.57357644374324357 0 0.81915203911291934 0.81915203911291934 0 -0.57357644374324357 forward_v I I I I #
coedge $-1 $142 $143 $144 $145 reversed $56 $-1 #
face $-1 $-1 $146 $30 $-1 $147 forward single #
loop $-1 $148 $149 $58 #
cone-surface $-1 70.52555904414713 12.842789769848849 5.4829429724327241 -0.57357644374324357 0 -0.81915203911291934 0.40957601955645967 0 -0.28678822187162178 1 I I -0.70710678118654746 0.70710678118654746 0.5 forward I I I I #
loop $-1 $-1 $150 $38 #
coedge $-1 $93 $93 $151 $152 reversed $59 $-1 #
face $-1 $-1 $153 $31 $-1 $154 forward single #
loop $-1 $155 $156 $61 #
cone-surface $-1 70.52555904414713 16.920000347348441 5.4829429724327241 -0.57357644374324357 0 -0.81915203911291934 0.40957601955645967 0 -0.28678822187162178 1 I I -0.70710678118654746 0.70710678118654746 0.5 forward I I I I #
loop $-1 $-1 $157 $39 #
coedge $-1 $98 $98 $158 $159 reversed $62 $-1 #
face $-1 $160 $161 $24 $-1 $162 reversed single #
loop $-1 $-1 $163 $64 #
plane-surface $-1 0 -43.552774741400668 0 0 1 0 0 0 1 forward_v I I I I #
coedge $-1 $164 $165 $166 $167 forward $65 $-1 #
coedge $-1 $168 $67 $169 $170 forward $41 $-1 #
coedge $-1 $67 $168 $171 $172 forward $41 $-1 #
coedge $-1 $173 $174 $67 $106 reversed $175 $-1 #
edge $-1 $176 -43.552774741400668 $177 43.552774741400668 $105 $178 forward 7 unknown #
face $-1 $179 $180 $25 $-1 $181 forward single #
loop $-1 $-1 $182 $68 #
plane-surface $-1 74.355296487319563 0 0 -1 0 0 0 0 1 forward_v I I I I #
coedge $-1 $183 $184 $185 $186 forward $69 $-1 #
coedge $-1 $185 $71 $182 $187 reversed $44 $-1 #
coedge $-1 $71 $185 $188 $189 reversed $44 $-1 #
coedge $-1 $190 $191 $71 $114 reversed $180 $-1 #
edge $-1 $192 -74.355296487319563 $193 74.355296487319563 $113 $194 forward 7 unknown #
face $-1 $195 $196 $26 $-1 $197 reversed single #
loop $-1 $-1 $198 $72 #
plane-surface $-1 0 49.250401926028402 -5.5215788254182936 0 0 1 1 0 0 forward_v I I I I #
coedge $-1 $199 $200 $119 $201 forward $73 $-1 #
coedge $-1 $202 $75 $118 $201 reversed $47 $-1 #
coedge $-1 $75 $202 $203 $204 reversed $47 $-1 #
coedge $-1 $198 $205 $75 $122 reversed $116 $-1 #
edge $-1 $206 -74.355296487319563 $207 74.355296487319563 $121 $208 forward 7 unknown #
face $-1 $209 $210 $27 $-1 $211 reversed single #
loop $-1 $-1 $212 $76 #
plane-surface $-1 -183.11534035833822 -8.2560973499154287 102.20490909272975 0 -1 0 0.73135370988377701 0 -0.68199835119979291 forward_v I I I I #
coedge $-1 $213 $214 $215 $216 reversed $77 $-1 #
coedge $-1 $128 $79 $217 $218 reversed $50 $-1 #
coedge $-1 $79 $127 $213 $219 reversed $50 $-1 #
coedge $-1 $215 $220 $79 $130 forward $221 $-1 #
edge $-1 $222 17.202373691849544 $223 25.168376304846831 $129 $224 forward 7 unknown #
loop $-1 $-1 $136 $80 #
plane-surface $-1 -74.355296487319549 -14.852182135621327 0.78452987808235264 -0.73135370988377701 0 0.68199835119979291 0.68199835119979291 0 0.73135370988377701 forward_v I I I I #
loop $-1 $-1 $225 $52 #
coedge $-1 $134 $134 $135 $226 reversed $81 $-1 #
coedge $-1 $135 $135 $134 $226 forward $83 $-1 #
coedge $-1 $136 $136 $84 $137 forward $131 $-1 #
edge $-1 $227 0 $227 6.2831853071796004 $136 $228 forward 7 unknown #
face $-1 $229 $230 $29 $-1 $231 forward single #
loop $-1 $-1 $232 $85 #
plane-surface $-1 37.835604079795061 10.124649384849121 213.31363959782675 0 1 0 0.57357644374324357 0 0.81915203911291934 forward_v I I I I #
coedge $-1 $233 $234 $235 $236 reversed $86 $-1 #
coedge $-1 $143 $88 $237 $238 reversed $56 $-1 #
coedge $-1 $88 $142 $233 $239 reversed $56 $-1 #
coedge $-1 $235 $240 $88 $145 forward $230 $-1 #
edge $-1 $241 -55.437494447422033 $242 -50.971874268437098 $144 $243 forward 7 unknown #
loop $-1 $-1 $151 $89 #
plane-surface $-1 -47.461288985547426 14.881395058598642 91.497054124959732 0.57357644374324357 0 0.81915203911291934 0.81915203911291934 0 -0.57357644374324357 forward_v I I I I #
loop $-1 $-1 $244 $58 #
coedge $-1 $149 $149 $150 $245 reversed $90 $-1 #
coedge $-1 $150 $150 $149 $245 forward $92 $-1 #
coedge $-1 $151 $151 $93 $152 forward $146 $-1 #
edge $-1 $246 0 $246 6.2831853071796004 $151 $247 forward 7 unknown #
loop $-1 $-1 $158 $94 #
plane-surface $-1 -47.461288985547426 14.881395058598642 91.497054124959732 0.57357644374324357 0 0.81915203911291934 0.81915203911291934 0 -0.57357644374324357 forward_v I I I I #
loop $-1 $-1 $248 $61 #
coedge $-1 $156 $156 $157 $249 reversed $95 $-1 #
coedge $-1 $157 $157 $156 $249 forward $97 $-1 #
coedge $-1 $158 $158 $98 $159 forward $153 $-1 #
edge $-1 $250 0 $250 6.2831853071796004 $158 $251 forward 7 unknown #
face $-1 $252 $253 $24 $-1 $254 reversed single #
loop $-1 $-1 $255 $99 #
plane-surface $-1 -74.355296487319563 0 0 1 0 0 0 0 -1 forward_v I I I I #
coedge $-1 $171 $256 $173 $257 reversed $100 $-1 #
coedge $-1 $258 $102 $256 $259 forward $65 $-1 #
coedge $-1 $102 $258 $260 $261 forward $65 $-1 #
coedge $-1 $174 $173 $102 $167 reversed $175 $-1 #
edge $-1 $262 -43.552774741400668 $263 43.552774741400668 $166 $264 forward 7 unknown #
coedge $-1 $104 $103 $265 $266 forward $41 $-1 #
coedge $-1 $267 $268 $103 $170 reversed $253 $-1 #
edge $-1 $177 -74.355296487319563 $269 74.355296487319563 $169 $270 forward 7 unknown #
coedge $-1 $271 $163 $104 $172 reversed $100 $-1 #
edge $-1 $272 -74.355296487319563 $176 74.355296487319563 $171 $273 forward 7 unknown #
coedge $-1 $166 $105 $163 $257 forward $175 $-1 #
coedge $-1 $105 $166 $267 $274 reversed $175 $-1 #
loop $-1 $-1 $173 $252 #
vertex $-1 $106 $275 #
vertex $-1 $106 $276 #
straight-curve $-1 74.355296487319563 0 9.3270220317806576 0 1 0 I I #
face $-1 $277 $278 $25 $-1 $279 reversed single #
loop $-1 $-1 $191 $107 #
plane-surface $-1 0 -49.250401926028402 -5.5215788254182936 0 0 1 1 0 0 forward_v I I I I #
coedge $-1 $280 $281 $111 $187 forward $108 $-1 #
coedge $-1 $282 $110 $281 $283 forward $69 $-1 #
coedge $-1 $110 $282 $284 $285 forward $69 $-1 #
coedge $-1 $112 $111 $110 $186 reversed $44 $-1 #
edge $-1 $286 -74.355296487319563 $287 74.355296487319563 $110 $288 forward 7 unknown #
edge $-1 $287 -9.3270220317806576 $193 -5.5215788254182936 $182 $289 forward 7 unknown #
coedge $-1 $284 $290 $112 $189 forward $291 $-1 #
edge $-1 $192 5.5215788254182936 $286 9.3270220317806576 $188 $292 forward 7 unknown #
coedge $-1 $293 $113 $290 $294 forward $180 $-1 #
coedge $-1 $113 $293 $280 $295 forward $180 $-1 #
vertex $-1 $189 $296 #
vertex $-1 $295 $297 #
straight-curve $-1 0 -43.552774741400668 -5.5215788254182936 1 0 0 I I #
face $-1 $298 $299 $26 $-1 $300 reversed single #
loop $-1 $-1 $301 $115 #
plane-surface $-1 0 54.948029110656137 -7.4243004285994756 0 -1 0 0 0 -1 forward_v I I I I #
coedge $-1 $302 $121 $303 $304 forward $116 $-1 #
coedge $-1 $305 $118 $205 $306 reversed $73 $-1 #
coedge $-1 $118 $305 $307 $308 reversed $73 $-1 #
edge $-1 $309 -9.3270220317806576 $207 -5.5215788254182936 $118 $310 forward 7 unknown #
coedge $-1 $120 $119 $311 $312 reversed $47 $-1 #
coedge $-1 $313 $303 $120 $204 forward $314 $-1 #
edge $-1 $206 5.5215788254182936 $315 9.3270220317806576 $203 $316 forward 7 unknown #
coedge $-1 $121 $302 $199 $306 forward $116 $-1 #
vertex $-1 $204 $317 #
vertex $-1 $306 $318 #
straight-curve $-1 0 43.552774741400668 -5.5215788254182936 -1 0 0 I I #
face $-1 $-1 $221 $27 $-1 $319 forward single #
loop $-1 $-1 $320 $123 #
plane-surface $-1 -74.355296487319563 0 0 1 0 0 0 0 -1 forward_v I I I I #
coedge $-1 $321 $322 $323 $324 reversed $124 $-1 #
coedge $-1 $325 $126 $128 $219 forward $77 $-1 #
coedge $-1 $126 $325 $321 $326 forward $77 $-1 #
coedge $-1 $323 $129 $126 $216 forward $221 $-1 #
edge $-1 $223 -14.022175853516561 $327 -0.83000628210476535 $215 $328 forward 7 unknown #
coedge $-1 $329 $330 $127 $218 forward $210 $-1 #
edge $-1 $331 -50.317924668282537 $222 -41.775432514584217 $217 $332 forward 7 unknown #
edge $-1 $223 -11.680383975977694 $331 2.0815709956562115e-014 $128 $333 forward 7 unknown #
coedge $-1 $129 $323 $329 $334 forward $221 $-1 #
loop $-1 $-1 $323 $209 #
vertex $-1 $218 $335 #
vertex $-1 $130 $336 #
straight-curve $-1 -91.557670179169108 -21.448266921327225 9.3270220317806576 1 0 0 I I #
coedge $-1 $225 $225 $-1 $337 reversed $133 $-1 #
edge $-1 $338 0 $338 6.2831853071796004 $134 $339 forward 7 unknown #
vertex $-1 $137 $340 #
ellipse-curve $-1 -70.372295180820927 -14.852182135621327 5.055775954931498 -0.73135370988377701 0 0.68199835119979291 1.0229975267996894 0 1.0970305648256655 1 I I #
face $-1 $-1 $341 $29 $-1 $342 reversed single #
loop $-1 $-1 $144 $138 #
plane-surface $-1 0 0 9.3270220317806576 0 0 1 1 0 0 forward_v I I I I #
coedge $-1 $343 $344 $345 $346 reversed $139 $-1 #
coedge $-1 $347 $141 $143 $239 forward $86 $-1 #
coedge $-1 $141 $347 $343 $348 forward $86 $-1 #
coedge $-1 $345 $144 $141 $236 forward $230 $-1 #
edge $-1 $242 -12.197443203048842 $349 -2.6839518555498003 $235 $350 forward 7 unknown #
coedge $-1 $351 $352 $142 $238 forward $341 $-1 #
edge $-1 $353 -100.45665873929612 $241 -97.329797767132717 $237 $354 forward 7 unknown #
edge $-1 $242 143.25907730262676 $353 148.7105929746391 $143 $355 forward 7 unknown #
coedge $-1 $144 $345 $351 $356 forward $230 $-1 #
vertex $-1 $238 $357 #
vertex $-1 $145 $358 #
straight-curve $-1 18.917802039897531 19.638140732348162 9.3270220317806576 -1 0 0 I I #
coedge $-1 $244 $244 $-1 $359 reversed $148 $-1 #
edge $-1 $360 0 $360 6.2831853071796004 $149 $361 forward 7 unknown #
vertex $-1 $152 $362 #
ellipse-curve $-1 72.122486397827103 12.842789769848849 7.7635915456989597 0.57357644374324357 0 0.81915203911291934 0.81915203911291934 0 -0.57357644374324357 1 I I #
coedge $-1 $248 $248 $-1 $363 reversed $155 $-1 #
edge $-1 $364 0 $364 6.2831853071796004 $156 $365 forward 7 unknown #
vertex $-1 $159 $366 #
ellipse-curve $-1 72.122486397827103 16.920000347348441 7.7635915456989597 0.57357644374324357 0 0.81915203911291934 0.81915203911291934 0 -0.57357644374324357 1 I I #
face $-1 $-1 $175 $24 $-1 $367 reversed single #
loop $-1 $-1 $268 $160 #
plane-surface $-1 0 43.552774741400668 0 0 -1 0 0 0 -1 forward_v I I I I #
coedge $-1 $368 $265 $268 $369 forward $161 $-1 #
coedge $-1 $163 $271 $164 $259 reversed $100 $-1 #
edge $-1 $176 -9.3270220317806576 $263 9.3270220317806576 $173 $370 forward 7 unknown #
coedge $-1 $165 $164 $368 $371 forward $65 $-1 #
edge $-1 $263 -74.355296487319563 $372 74.355296487319563 $256 $373 forward 7 unknown #
coedge $-1 $268 $267 $165 $261 reversed $253 $-1 #
edge $-1 $374 -74.355296487319563 $262 74.355296487319563 $260 $375 forward 7 unknown #
vertex $-1 $167 $376 #
vertex $-1 $257 $377 #
straight-curve $-1 74.355296487319563 0 -9.3270220317806576 0 -1 0 I I #
coedge $-1 $255 $378 $168 $266 reversed $161 $-1 #
edge $-1 $269 -43.552774741400668 $272 43.552774741400668 $265 $379 forward 7 unknown #
coedge $-1 $260 $169 $174 $274 forward $253 $-1 #
coedge $-1 $169 $260 $255 $369 reversed $253 $-1 #
vertex $-1 $170 $380 #
straight-curve $-1 0 43.552774741400668 9.3270220317806576 -1 0 0 I I #
coedge $-1 $256 $171 $378 $381 forward $100 $-1 #
vertex $-1 $266 $382 #
straight-curve $-1 0 -43.552774741400668 9.3270220317806576 1 0 0 I I #
edge $-1 $177 -9.3270220317806576 $262 9.3270220317806576 $174 $383 forward 7 unknown #
point $-1 74.355296487319563 -43.552774741400668 9.3270220317806576 #
point $-1 74.355296487319563 43.552774741400668 9.3270220317806576 #
face $-1 $-1 $291 $25 $-1 $384 reversed single #
loop $-1 $-1 $385 $179 #
plane-surface $-1 0 -54.948029110656137 -7.4243004285994756 0 1 0 0 0 1 forward_v I I I I #
coedge $-1 $386 $182 $191 $295 reversed $108 $-1 #
coedge $-1 $182 $386 $183 $283 reversed $108 $-1 #
coedge $-1 $184 $183 $387 $388 forward $69 $-1 #
edge $-1 $287 43.552774741400668 $389 54.948029110656137 $281 $390 forward 7 unknown #
coedge $-1 $391 $188 $184 $285 reversed $291 $-1 #
edge $-1 $392 -54.948029110656137 $286 -43.552774741400668 $284 $393 forward 7 unknown #
vertex $-1 $189 $394 #
vertex $-1 $283 $395 #
straight-curve $-1 0 -43.552774741400668 -9.3270220317806576 1 0 0 I I #
straight-curve $-1 74.355296487319563 -43.552774741400668 0 0 0 1 I I #
coedge $-1 $188 $391 $190 $294 reversed $291 $-1 #
loop $-1 $-1 $188 $277 #
straight-curve $-1 -74.355296487319563 -43.552774741400668 0 0 0 -1 I I #
coedge $-1 $191 $190 $396 $397 forward $180 $-1 #
edge $-1 $192 -5.6976271846277342 $398 5.6976271846277342 $290 $399 forward 7 unknown #
edge $-1 $400 -5.6976271846277342 $193 5.6976271846277342 $280 $401 forward 7 unknown #
point $-1 -74.355296487319563 -43.552774741400668 -5.5215788254182936 #
point $-1 74.355296487319563 -43.552774741400668 -5.5215788254182936 #
face $-1 $-1 $314 $26 $-1 $402 reversed single #
loop $-1 $-1 $311 $195 #
plane-surface $-1 0 0 -9.3270220317806576 0 0 1 1 0 0 forward_v I I I I #
coedge $-1 $403 $404 $405 $406 forward $196 $-1 #
coedge $-1 $205 $198 $404 $407 forward $116 $-1 #
coedge $-1 $203 $405 $198 $304 reversed $314 $-1 #
edge $-1 $206 -5.6976271846277342 $408 5.6976271846277342 $303 $409 forward 7 unknown #
coedge $-1 $200 $199 $410 $411 forward $73 $-1 #
edge $-1 $412 -5.6976271846277342 $207 5.6976271846277342 $199 $413 forward 7 unknown #
coedge $-1 $414 $311 $200 $308 forward $299 $-1 #
edge $-1 $309 -5.6976271846277342 $415 5.6976271846277342 $200 $416 forward 7 unknown #
vertex $-1 $308 $417 #
straight-curve $-1 -74.355296487319563 43.552774741400668 0 0 0 1 I I #
coedge $-1 $307 $418 $202 $312 forward $299 $-1 #
edge $-1 $315 -74.355296487319563 $309 74.355296487319563 $311 $419 forward 7 unknown #
coedge $-1 $405 $203 $418 $420 reversed $314 $-1 #
loop $-1 $-1 $203 $298 #
vertex $-1 $204 $421 #
straight-curve $-1 74.355296487319563 43.552774741400668 0 0 0 -1 I I #
point $-1 74.355296487319563 43.552774741400668 -5.5215788254182936 #
point $-1 -74.355296487319563 43.552774741400668 -5.5215788254182936 #
plane-surface $-1 0 0 9.3270220317806576 0 0 1 1 0 0 forward_v I I I I #
coedge $-1 $330 $329 $322 $422 forward $210 $-1 #
coedge $-1 $322 $212 $214 $326 reversed $124 $-1 #
coedge $-1 $212 $321 $320 $422 reversed $124 $-1 #
coedge $-1 $220 $215 $212 $324 forward $221 $-1 #
edge $-1 $327 -25.168376304846831 $423 -17.202373691849544 $323 $424 forward 7 unknown #
coedge $-1 $214 $213 $330 $425 reversed $77 $-1 #
edge $-1 $426 -2.0815709956562115e-014 $327 11.680383975977694 $321 $427 forward 7 unknown #
vertex $-1 $216 $428 #
straight-curve $-1 -66.389293874322277 -7.4260910678106633 9.3270220317806576 0 1 0 I I #
coedge $-1 $320 $217 $220 $334 reversed $210 $-1 #
coedge $-1 $217 $320 $325 $425 forward $210 $-1 #
vertex $-1 $218 $429 #
straight-curve $-1 -74.355296487319563 -21.448266921327225 51.102454546364875 0 0 1 I I #
straight-curve $-1 -74.355296487319549 -21.448266921327225 0.78452987808235264 -0.68199835119979291 0 -0.73135370988377701 I I #
edge $-1 $423 8.2560973499154287 $222 21.448266921327225 $329 $430 forward 7 unknown #
point $-1 -74.355296487319563 -21.448266921327225 9.3270220317806576 #
point $-1 -66.389293874322277 -21.448266921327225 9.3270220317806576 #
edge $-1 $431 1 $431 0 $225 $-1 forward 7 unknown #
vertex $-1 $226 $432 #
ellipse-curve $-1 -68.569277387366512 -14.852182135621327 3.3744347028098489 -0.73135370988377701 0 0.68199835119979291 1.0229975267996894 0 1.0970305648256655 1 I I #
point $-1 -69.349297654021257 -14.852182135621327 6.152806519757176 #
loop $-1 $-1 $237 $229 #
plane-surface $-1 74.355296487319563 0 0 -1 0 0 0 0 1 forward_v I I I I #
coedge $-1 $344 $232 $234 $348 reversed $139 $-1 #
coedge $-1 $232 $343 $433 $434 reversed $139 $-1 #
coedge $-1 $240 $235 $232 $346 forward $230 $-1 #
edge $-1 $349 50.971874268437098 $435 55.437494447422033 $345 $436 forward 7 unknown #
coedge $-1 $234 $233 $352 $437 reversed $86 $-1 #
edge $-1 $438 -148.7105929746391 $349 -143.25907730262676 $343 $439 forward 7 unknown #
vertex $-1 $236 $440 #
straight-curve $-1 69.889676308334586 7.4406975292993209 9.3270220317806647 0 -1 0 I I #
coedge $-1 $433 $237 $240 $356 reversed $341 $-1 #
coedge $-1 $237 $433 $347 $437 forward $341 $-1 #
vertex $-1 $238 $441 #
straight-curve $-1 74.355296487319563 19.638140732348162 106.65681979891338 0 0 1 I I #
straight-curve $-1 -47.461288985547426 19.638140732348162 91.497054124959732 0.81915203911291934 0 -0.57357644374324357 I I #
edge $-1 $435 10.124649384849121 $241 19.638140732348162 $351 $442 forward 7 unknown #
point $-1 74.355296487319563 19.638140732348162 9.3270220317806576 #
point $-1 69.889676308334629 19.638140732348162 9.3270220317806434 #
edge $-1 $443 1 $443 0 $244 $-1 forward 7 unknown #
vertex $-1 $245 $444 #
ellipse-curve $-1 70.812347266018747 12.842789769848849 5.8925189919891841 0.57357644374324357 0 0.81915203911291934 0.81915203911291934 0 -0.57357644374324357 1 I I #
point $-1 72.941638436939982 12.842789769848849 7.1900151019556624 #
edge $-1 $445 1 $445 0 $248 $-1 forward 7 unknown #
vertex $-1 $249 $446 #
ellipse-curve $-1 70.812347266018747 16.920000347348441 5.8925189919891841 0.57357644374324357 0 0.81915203911291934 0.81915203911291934 0 -0.57357644374324357 1 I I #
point $-1 72.941638436939982 16.920000347348441 7.1900151019556624 #
plane-surface $-1 74.355296487319563 0 0 -1 0 0 0 0 1 forward_v I I I I #
coedge $-1 $378 $255 $258 $371 reversed $161 $-1 #
edge $-1 $269 -9.3270220317806576 $374 9.3270220317806576 $268 $447 forward 7 unknown #
straight-curve $-1 74.355296487319563 -43.552774741400668 0 0 0 -1 I I #
edge $-1 $372 -43.552774741400668 $374 43.552774741400668 $368 $448 forward 7 unknown #
vertex $-1 $371 $449 #
straight-curve $-1 0 -43.552774741400668 -9.3270220317806576 -1 0 0 I I #
vertex $-1 $261 $450 #
straight-curve $-1 0 43.552774741400668 -9.3270220317806576 1 0 0 I I #
point $-1 74.355296487319563 43.552774741400668 -9.3270220317806576 #
point $-1 74.355296487319563 -43.552774741400668 -9.3270220317806576 #
coedge $-1 $265 $368 $271 $381 reversed $161 $-1 #
straight-curve $-1 -74.355296487319563 0 9.3270220317806576 0 -1 0 I I #
point $-1 -74.355296487319563 43.552774741400668 9.3270220317806576 #
edge $-1 $272 -9.3270220317806576 $372 9.3270220317806576 $378 $451 forward 7 unknown #
point $-1 -74.355296487319563 -43.552774741400668 9.3270220317806576 #
straight-curve $-1 74.355296487319563 43.552774741400668 0 0 0 -1 I I #
plane-surface $-1 -74.355296487319563 0 0 1 0 0 0 0 -1 forward_v I I I I #
coedge $-1 $387 $396 $391 $452 forward $278 $-1 #
coedge $-1 $281 $280 $453 $454 forward $108 $-1 #
coedge $-1 $453 $385 $282 $388 reversed $278 $-1 #
edge $-1 $389 -74.355296487319563 $392 74.355296487319563 $387 $455 forward 7 unknown #
vertex $-1 $454 $456 #
straight-curve $-1 74.355296487319563 0 -9.3270220317806576 0 -1 0 I I #
coedge $-1 $290 $284 $385 $452 reversed $291 $-1 #
vertex $-1 $285 $457 #
straight-curve $-1 -74.355296487319563 0 -9.3270220317806576 0 1 0 I I #
point $-1 -74.355296487319563 -43.552774741400668 -9.3270220317806576 #
point $-1 74.355296487319563 -43.552774741400668 -9.3270220317806576 #
coedge $-1 $385 $453 $293 $397 reversed $278 $-1 #
edge $-1 $398 -74.355296487319563 $400 74.355296487319563 $396 $458 forward 7 unknown #
vertex $-1 $294 $459 #
straight-curve $-1 -74.355296487319563 -49.250401926028402 -5.5215788254182936 0 -1 0 I I #
vertex $-1 $295 $460 #
straight-curve $-1 74.355296487319563 -49.250401926028402 -5.5215788254182936 0 1 0 I I #
plane-surface $-1 74.355296487319563 0 0 -1 0 0 0 0 1 forward_v I I I I #
coedge $-1 $410 $301 $414 $461 reversed $196 $-1 #
coedge $-1 $301 $410 $302 $407 reversed $196 $-1 #
coedge $-1 $303 $313 $301 $406 reversed $314 $-1 #
edge $-1 $408 -1.902721603181182 $462 1.902721603181182 $405 $463 forward 7 unknown #
edge $-1 $408 -74.355296487319563 $412 74.355296487319563 $404 $464 forward 7 unknown #
vertex $-1 $304 $465 #
straight-curve $-1 74.355296487319563 49.250401926028402 -5.5215788254182936 0 1 0 I I #
coedge $-1 $404 $403 $305 $411 reversed $196 $-1 #
edge $-1 $412 -1.902721603181182 $415 1.902721603181182 $410 $466 forward 7 unknown #
vertex $-1 $407 $467 #
straight-curve $-1 -74.355296487319563 49.250401926028402 -5.5215788254182936 0 -1 0 I I #
coedge $-1 $418 $307 $403 $461 forward $299 $-1 #
vertex $-1 $461 $468 #
straight-curve $-1 -74.355296487319563 49.250401926028402 -9.3270220317806576 0 1 0 I I #
point $-1 -74.355296487319563 43.552774741400668 -9.3270220317806576 #
coedge $-1 $311 $414 $313 $420 forward $299 $-1 #
straight-curve $-1 0 43.552774741400668 -9.3270220317806576 -1 0 0 I I #
edge $-1 $462 -54.948029110656137 $315 -43.552774741400668 $313 $469 forward 7 unknown #
point $-1 74.355296487319563 43.552774741400668 -9.3270220317806576 #
edge $-1 $423 41.775432514584217 $426 50.317924668282537 $320 $470 forward 7 unknown #
vertex $-1 $334 $471 #
straight-curve $-1 -91.557670179169108 -8.2560973499154287 9.3270220317806576 -1 0 0 I I #
edge $-1 $426 0.83000628210476535 $331 14.022175853516561 $330 $472 forward 7 unknown #
vertex $-1 $425 $473 #
straight-curve $-1 -74.355296487319549 -8.2560973499154287 0.78452987808235264 0.68199835119979291 0 0.73135370988377701 I I #
point $-1 -66.389293874322277 -8.2560973499154287 9.3270220317806576 #
point $-1 -74.355296487319563 -21.448266921327225 0.78452987808233743 #
straight-curve $-1 -74.355296487319563 0 9.3270220317806576 0 -1 0 I I #
vertex $-1 $337 $474 #
point $-1 -67.546279860566813 -14.852182135621327 4.471465267635514 #
coedge $-1 $352 $351 $344 $434 forward $341 $-1 #
edge $-1 $435 97.329797767132717 $438 100.45665873929612 $433 $475 forward 7 unknown #
vertex $-1 $356 $476 #
straight-curve $-1 18.917802039897531 10.124649384849121 9.3270220317806576 1 0 0 I I #
edge $-1 $438 2.6839518555498003 $353 12.197443203048842 $352 $477 forward 7 unknown #
vertex $-1 $437 $478 #
straight-curve $-1 -47.461288985547426 10.124649384849121 91.497054124959732 -0.81915203911291934 0 0.57357644374324357 I I #
point $-1 69.889676308334629 10.124649384849121 9.3270220317806434 #
point $-1 74.355296487319563 19.638140732348162 6.2001610596172583 #
straight-curve $-1 74.355296487319563 0 9.3270220317806576 0 1 0 I I #
vertex $-1 $359 $479 #
point $-1 71.631499305131669 12.842789769848849 5.31894254824594 #
vertex $-1 $363 $480 #
point $-1 71.631499305131669 16.920000347348441 5.31894254824594 #
straight-curve $-1 -74.355296487319563 43.552774741400668 0 0 0 -1 I I #
straight-curve $-1 -74.355296487319563 0 -9.3270220317806576 0 1 0 I I #
point $-1 -74.355296487319563 -43.552774741400668 -9.3270220317806576 #
point $-1 -74.355296487319563 43.552774741400668 -9.3270220317806576 #
straight-curve $-1 -74.355296487319563 -43.552774741400668 0 0 0 -1 I I #
edge $-1 $398 -1.902721603181182 $392 1.902721603181182 $391 $481 forward 7 unknown #
coedge $-1 $396 $387 $386 $454 reversed $278 $-1 #
edge $-1 $400 -1.902721603181182 $389 1.902721603181182 $386 $482 forward 7 unknown #
straight-curve $-1 0 -54.948029110656137 -9.3270220317806576 -1 0 0 I I #
point $-1 74.355296487319563 -54.948029110656137 -9.3270220317806576 #
point $-1 -74.355296487319563 -54.948029110656137 -9.3270220317806576 #
straight-curve $-1 0 -54.948029110656137 -5.5215788254182936 1 0 0 I I #
point $-1 -74.355296487319563 -54.948029110656137 -5.5215788254182936 #
point $-1 74.355296487319563 -54.948029110656137 -5.5215788254182936 #
edge $-1 $415 -74.355296487319563 $462 74.355296487319563 $403 $483 forward 7 unknown #
vertex $-1 $420 $484 #
straight-curve $-1 74.355296487319563 54.948029110656137 -7.4243004285994756 0 0 -1 I I #
straight-curve $-1 0 54.948029110656137 -5.5215788254182936 -1 0 0 I I #
point $-1 74.355296487319563 54.948029110656137 -5.5215788254182936 #
straight-curve $-1 -74.355296487319563 54.948029110656137 -7.4243004285994756 0 0 -1 I I #
point $-1 -74.355296487319563 54.948029110656137 -5.5215788254182936 #
point $-1 -74.355296487319563 54.948029110656137 -9.3270220317806576 #
straight-curve $-1 74.355296487319563 0 -9.3270220317806576 0 -1 0 I I #
straight-curve $-1 -74.355296487319563 -8.2560973499154287 51.102454546364875 0 0 -1 I I #
point $-1 -74.355296487319563 -8.2560973499154287 9.3270220317806576 #
straight-curve $-1 -74.355296487319563 -7.4260910678106633 0.78452987808233465 0 -1 0 I I #
point $-1 -74.355296487319563 -8.2560973499154287 0.78452987808233743 #
point $-1 -67.472246822540839 -14.852182135621327 2.3514371760101596 #
straight-curve $-1 74.355296487319563 10.124649384849121 106.65681979891338 0 0 -1 I I #
point $-1 74.355296487319563 10.124649384849121 9.3270220317806576 #
straight-curve $-1 74.355296487319578 7.4406975292993209 6.2001610596172512 0 1 0 I I #
point $-1 74.355296487319563 10.124649384849121 6.2001610596172583 #
point $-1 70.238770822275512 12.842789769848849 5.0733669528762642 #
point $-1 70.238770822275512 16.920000347348441 5.0733669528762642 #
straight-curve $-1 -74.355296487319563 -54.948029110656137 -7.4243004285994756 0 0 -1 I I #
straight-curve $-1 74.355296487319563 -54.948029110656137 -7.4243004285994756 0 0 -1 I I #
straight-curve $-1 0 54.948029110656137 -9.3270220317806576 1 0 0 I I #
point $-1 74.355296487319563 54.948029110656137 -9.3270220317806576 #
End-of-ACIS-data 