500 0 13 0           
7 Unknown 11 ACIS 5.0 NT 24 Thu Mar 25 17:16:40 1999 
-1 9.9999999999999995e-007 1e-010 
body $-1 $13 $-1 $14 #
body $-1 $15 $-1 $16 #
body $-1 $17 $-1 $18 #
body $-1 $19 $-1 $20 #
body $-1 $21 $-1 $22 #
body $-1 $23 $-1 $24 #
body $-1 $25 $-1 $26 #
body $-1 $27 $-1 $28 #
body $-1 $29 $-1 $30 #
body $-1 $31 $-1 $32 #
body $-1 $33 $-1 $34 #
body $-1 $35 $-1 $36 #
body $-1 $37 $-1 $38 #
lump $-1 $-1 $39 $0 #
transform $-1 1 0 0 0 1 0 0 0 1 42.850428785058135 21.041395280360891 4.9482308301607389 1 rotate no_reflect no_shear #
lump $-1 $-1 $40 $1 #
transform $-1 1 0 0 0 1 0 0 0 1 42.850428785058135 21.041395280360891 4.9482308301607389 1 rotate no_reflect no_shear #
lump $-1 $-1 $41 $2 #
transform $-1 1 0 0 0 1 0 0 0 1 42.850428785058135 21.041395280360891 4.9482308301607389 1 rotate no_reflect no_shear #
lump $-1 $-1 $42 $3 #
transform $-1 1 0 0 0 1 0 0 0 1 42.850428785058135 21.041395280360891 4.9482308301607389 1 rotate no_reflect no_shear #
lump $-1 $-1 $43 $4 #
transform $-1 1 0 0 0 1 0 0 0 1 42.850428785058135 21.041395280360891 4.9482308301607389 1 rotate no_reflect no_shear #
lump $-1 $-1 $44 $5 #
transform $-1 1 0 0 0 1 0 0 0 1 42.850428785058135 21.041395280360891 4.9482308301607389 1 rotate no_reflect no_shear #
lump $-1 $-1 $45 $6 #
transform $-1 1 0 0 0 1 0 0 0 1 42.850428785058135 21.041395280360891 4.9482308301607389 1 rotate no_reflect no_shear #
lump $-1 $-1 $46 $7 #
transform $-1 1 0 0 0 1 0 0 0 1 42.850428785058135 21.041395280360891 4.9482308301607389 1 rotate no_reflect no_shear #
lump $-1 $-1 $47 $8 #
transform $-1 1 0 0 0 1 0 0 0 1 42.850428785058135 21.041395280360891 4.9482308301607389 1 rotate no_reflect no_shear #
lump $-1 $-1 $48 $9 #
transform $-1 1 0 0 0 1 0 0 0 1 42.850428785058135 21.041395280360891 4.9482308301607389 1 rotate no_reflect no_shear #
lump $-1 $-1 $49 $10 #
transform $-1 1 0 0 0 1 0 0 0 1 42.850428785058135 21.041395280360891 4.9482308301607389 1 rotate no_reflect no_shear #
lump $-1 $-1 $50 $11 #
transform $-1 1 0 0 0 1 0 0 0 1 42.850428785058135 21.041395280360891 4.9482308301607389 1 rotate no_reflect no_shear #
lump $-1 $-1 $51 $12 #
transform $-1 1 0 0 0 1 0 0 0 1 42.850428785058135 21.041395280360891 4.9482308301607389 1 rotate no_reflect no_shear #
shell $-1 $-1 $-1 $52 $-1 $13 #
shell $-1 $-1 $-1 $53 $-1 $15 #
shell $-1 $-1 $-1 $54 $-1 $17 #
shell $-1 $-1 $-1 $55 $-1 $19 #
shell $-1 $-1 $-1 $56 $-1 $21 #
shell $-1 $-1 $-1 $57 $-1 $23 #
shell $-1 $-1 $-1 $58 $-1 $25 #
shell $-1 $-1 $-1 $59 $-1 $27 #
shell $-1 $-1 $-1 $60 $-1 $29 #
shell $-1 $-1 $-1 $61 $-1 $31 #
shell $-1 $-1 $-1 $62 $-1 $33 #
shell $-1 $-1 $-1 $63 $-1 $35 #
shell $-1 $-1 $-1 $64 $-1 $37 #
face $-1 $65 $66 $39 $-1 $67 forward single #
face $-1 $68 $69 $40 $-1 $70 forward single #
face $-1 $71 $72 $41 $-1 $73 reversed single #
face $-1 $74 $75 $42 $-1 $76 forward single #
face $-1 $77 $78 $43 $-1 $79 forward single #
face $-1 $80 $81 $44 $-1 $82 reversed single #
face $-1 $83 $84 $45 $-1 $85 forward single #
face $-1 $86 $87 $46 $-1 $88 forward single #
face $-1 $89 $90 $47 $-1 $91 reversed single #
face $-1 $92 $93 $48 $-1 $94 forward single #
face $-1 $95 $96 $49 $-1 $97 forward single #
face $-1 $98 $99 $50 $-1 $100 reversed single #
face $-1 $101 $102 $51 $-1 $103 forward single #
face $-1 $104 $105 $39 $-1 $106 reversed single #
loop $-1 $-1 $107 $52 #
plane-surface $-1 0 0 4.9482308301607389 0 0 1 1 0 0 forward_v I I I I #
face $-1 $108 $109 $40 $-1 $110 reversed single #
loop $-1 $-1 $111 $53 #
plane-surface $-1 0 -21.041395280360891 0 0 1 0 0 0 1 forward_v I I I I #
face $-1 $112 $113 $41 $-1 $114 reversed single #
loop $-1 $-1 $115 $54 #
plane-surface $-1 -93.22412961714619 -10.484766864477159 70.976606183824671 0 1 0 -0.5877852598018023 0 0.80901698891910034 forward_v I I I I #
face $-1 $116 $117 $42 $-1 $118 forward single #
loop $-1 $119 $120 $55 #
cone-surface $-1 -39.456572659463419 -8.3241133894410897 1.7550627865088837 0.5877852598018023 0 -0.80901698891910034 0.80901698891910034 0 0.5877852598018023 1 I I 0 1 1 forward I I I I #
face $-1 $121 $122 $43 $-1 $123 forward single #
loop $-1 $124 $125 $56 #
cone-surface $-1 -39.456572659463419 -5.0831331768869816 1.7550627865088837 0.5877852598018023 0 -0.80901698891910034 0.80901698891910034 0 0.5877852598018023 1 I I 0 1 1 forward I I I I #
face $-1 $126 $127 $44 $-1 $128 reversed single #
loop $-1 $-1 $129 $57 #
plane-surface $-1 -93.22412961714619 1.4971706266287397 70.976606183824671 0 1 0 -0.5877852598018023 0 0.80901698891910034 forward_v I I I I #
face $-1 $130 $131 $45 $-1 $132 forward single #
loop $-1 $133 $134 $58 #
cone-surface $-1 -39.456572659463419 3.6578241016648114 1.7550627865088837 0.5877852598018023 0 -0.80901698891910034 0.80901698891910034 0 0.5877852598018023 1 I I 0 1 1 forward I I I I #
face $-1 $135 $136 $46 $-1 $137 forward single #
loop $-1 $138 $139 $59 #
cone-surface $-1 -39.456572659463419 6.8988043142189177 1.7550627865088837 0.5877852598018023 0 -0.80901698891910034 0.80901698891910034 0 0.5877852598018023 1 I I 0 1 1 forward I I I I #
face $-1 $140 $141 $47 $-1 $142 reversed single #
loop $-1 $-1 $143 $60 #
plane-surface $-1 -93.22412961714619 13.479108117734643 70.976606183824671 0 1 0 -0.5877852598018023 0 0.80901698891910034 forward_v I I I I #
face $-1 $144 $145 $48 $-1 $146 forward single #
loop $-1 $147 $148 $61 #
cone-surface $-1 -39.456572659463419 15.639761592770714 1.7550627865088837 0.5877852598018023 0 -0.80901698891910034 0.80901698891910034 0 0.5877852598018023 1 I I 0 1 1 forward I I I I #
face $-1 $149 $150 $49 $-1 $151 forward single #
loop $-1 $152 $153 $62 #
cone-surface $-1 -39.456572659463419 18.880741805324821 1.7550627865088837 0.5877852598018023 0 -0.80901698891910034 0.80901698891910034 0 0.5877852598018023 1 I I 0 1 1 forward I I I I #
face $-1 $154 $155 $50 $-1 $156 reversed single #
loop $-1 $-1 $157 $63 #
plane-surface $-1 44.965649929052908 12.387511448130832 122.88043704840943 0 -1 0 -0.71933980857756763 0 -0.69465836192734942 forward_v I I I I #
face $-1 $158 $159 $51 $-1 $160 forward single #
loop $-1 $161 $162 $64 #
cone-surface $-1 40.646665276736506 7.6173496123908144 2.7105282314635657 -0.71933980857756763 0 -0.69465836192734942 0.34732918096367471 0 -0.35966990428878381 1 I I 0 1 0.5 forward I I I I #
face $-1 $163 $164 $39 $-1 $165 reversed single #
loop $-1 $-1 $166 $65 #
plane-surface $-1 0 0 -4.9482308301607389 0 0 1 1 0 0 forward_v I I I I #
coedge $-1 $167 $168 $169 $170 forward $66 $-1 #
face $-1 $171 $172 $40 $-1 $173 reversed single #
loop $-1 $-1 $174 $68 #
plane-surface $-1 0 0 -4.9482308301607389 0 0 1 1 0 0 forward_v I I I I #
coedge $-1 $175 $176 $177 $178 forward $69 $-1 #
face $-1 $179 $180 $41 $-1 $181 reversed single #
loop $-1 $-1 $182 $71 #
plane-surface $-1 -42.850428785058142 -6.7036232831640348 1.6431564446645268 -0.5877852598018023 0 0.80901698891910034 0.80901698891910034 0 0.5877852598018023 forward_v I I I I #
coedge $-1 $183 $184 $185 $186 reversed $72 $-1 #
face $-1 $-1 $187 $42 $-1 $188 forward single #
loop $-1 $189 $190 $74 #
cone-surface $-1 -38.043346174575099 -8.3241133894410897 -0.19007655885440933 0.5877852598018023 0 -0.80901698891910034 0.40450849445955017 0 0.29389262990090115 1 I I -0.70710678118654746 0.70710678118654746 0.5 forward I I I I #
loop $-1 $-1 $191 $55 #
coedge $-1 $120 $120 $192 $193 reversed $75 $-1 #
face $-1 $-1 $194 $43 $-1 $195 forward single #
loop $-1 $196 $197 $77 #
cone-surface $-1 -38.043346174575099 -5.0831331768869816 -0.19007655885440933 0.5877852598018023 0 -0.80901698891910034 0.40450849445955017 0 0.29389262990090115 1 I I -0.70710678118654746 0.70710678118654746 0.5 forward I I I I #
loop $-1 $-1 $198 $56 #
coedge $-1 $125 $125 $199 $200 reversed $78 $-1 #
face $-1 $201 $202 $44 $-1 $203 reversed single #
loop $-1 $-1 $204 $80 #
plane-surface $-1 -42.850428785058142 5.2783142079418646 1.6431564446645268 -0.5877852598018023 0 0.80901698891910034 0.80901698891910034 0 0.5877852598018023 forward_v I I I I #
coedge $-1 $205 $206 $207 $208 reversed $81 $-1 #
face $-1 $-1 $209 $45 $-1 $210 forward single #
loop $-1 $211 $212 $83 #
cone-surface $-1 -38.043346174575099 3.6578241016648114 -0.19007655885440933 0.5877852598018023 0 -0.80901698891910034 0.40450849445955017 0 0.29389262990090115 1 I I -0.70710678118654746 0.70710678118654746 0.5 forward I I I I #
loop $-1 $-1 $213 $58 #
coedge $-1 $134 $134 $214 $215 reversed $84 $-1 #
face $-1 $-1 $216 $46 $-1 $217 forward single #
loop $-1 $218 $219 $86 #
cone-surface $-1 -38.043346174575099 6.8988043142189177 -0.19007655885440933 0.5877852598018023 0 -0.80901698891910034 0.40450849445955017 0 0.29389262990090115 1 I I -0.70710678118654746 0.70710678118654746 0.5 forward I I I I #
loop $-1 $-1 $220 $59 #
coedge $-1 $139 $139 $221 $222 reversed $87 $-1 #
face $-1 $223 $224 $47 $-1 $225 forward single #
loop $-1 $-1 $226 $89 #
plane-surface $-1 -42.850428785058142 17.260251699047767 1.6431564446645268 -0.5877852598018023 0 0.80901698891910034 0.80901698891910034 0 0.5877852598018023 forward_v I I I I #
coedge $-1 $227 $228 $229 $230 reversed $90 $-1 #
face $-1 $-1 $231 $48 $-1 $232 forward single #
loop $-1 $233 $234 $92 #
cone-surface $-1 -38.043346174575099 15.639761592770714 -0.19007655885440933 0.5877852598018023 0 -0.80901698891910034 0.40450849445955017 0 0.29389262990090115 1 I I -0.70710678118654746 0.70710678118654746 0.5 forward I I I I #
loop $-1 $-1 $235 $61 #
coedge $-1 $148 $148 $236 $237 reversed $93 $-1 #
face $-1 $-1 $238 $49 $-1 $239 forward single #
loop $-1 $240 $241 $95 #
cone-surface $-1 -38.043346174575099 18.880741805324821 -0.19007655885440933 0.5877852598018023 0 -0.80901698891910034 0.40450849445955017 0 0.29389262990090115 1 I I -0.70710678118654746 0.70710678118654746 0.5 forward I I I I #
loop $-1 $-1 $242 $62 #
coedge $-1 $153 $153 $243 $244 reversed $96 $-1 #
face $-1 $245 $246 $50 $-1 $247 reversed single #
loop $-1 $-1 $248 $98 #
plane-surface $-1 -16.682388550367918 7.6173496123908144 63.347619712983381 0.71933980857756763 0 0.69465836192734942 0.69465836192734942 0 -0.71933980857756763 forward_v I I I I #
coedge $-1 $249 $250 $251 $252 reversed $99 $-1 #
face $-1 $-1 $253 $51 $-1 $254 forward single #
loop $-1 $255 $256 $101 #
cone-surface $-1 39.831659003397782 7.6173496123908144 1.9234858405836448 -0.71933980857756763 0 -0.69465836192734942 0.17366459048183736 0 -0.17983495214439191 1 I I -0.70710678118654746 0.70710678118654746 0.25 forward I I I I #
loop $-1 $-1 $257 $64 #
coedge $-1 $162 $162 $258 $259 reversed $102 $-1 #
face $-1 $260 $261 $39 $-1 $262 reversed single #
loop $-1 $-1 $263 $104 #
plane-surface $-1 0 -21.041395280360891 0 0 1 0 0 0 1 forward_v I I I I #
coedge $-1 $264 $265 $266 $267 forward $105 $-1 #
coedge $-1 $268 $107 $269 $270 forward $66 $-1 #
coedge $-1 $107 $268 $271 $272 forward $66 $-1 #
coedge $-1 $273 $274 $107 $170 reversed $275 $-1 #
edge $-1 $276 -21.041395280360891 $277 21.041395280360891 $169 $278 forward 7 unknown #
face $-1 $279 $280 $40 $-1 $281 forward single #
loop $-1 $-1 $282 $108 #
plane-surface $-1 42.850428785058135 0 0 -1 0 0 0 0 1 forward_v I I I I #
coedge $-1 $283 $284 $285 $286 forward $109 $-1 #
coedge $-1 $285 $111 $282 $287 reversed $69 $-1 #
coedge $-1 $111 $285 $288 $289 reversed $69 $-1 #
coedge $-1 $290 $291 $111 $178 reversed $280 $-1 #
edge $-1 $292 -42.850428785058135 $293 42.850428785058135 $177 $294 forward 7 unknown #
face $-1 $295 $296 $41 $-1 $297 forward single #
loop $-1 $-1 $298 $112 #
plane-surface $-1 -93.22412961714619 -2.9224797018509099 70.976606183824671 0 -1 0 0.5877852598018023 0 -0.80901698891910034 forward_v I I I I #
coedge $-1 $299 $300 $301 $302 reversed $113 $-1 #
coedge $-1 $184 $115 $303 $304 reversed $72 $-1 #
coedge $-1 $115 $183 $299 $305 reversed $72 $-1 #
coedge $-1 $301 $306 $115 $186 forward $296 $-1 #
edge $-1 $307 3.76163602351496 $308 8.3106805647295516 $185 $309 forward 7 unknown #
loop $-1 $-1 $192 $116 #
plane-surface $-1 -42.850428785058142 -6.7036232831640348 1.6431564446645268 -0.5877852598018023 0 0.80901698891910034 0.80901698891910034 0 0.5877852598018023 forward_v I I I I #
loop $-1 $-1 $310 $74 #
coedge $-1 $190 $190 $191 $311 reversed $117 $-1 #
coedge $-1 $191 $191 $190 $311 forward $119 $-1 #
coedge $-1 $192 $192 $120 $193 forward $187 $-1 #
edge $-1 $312 0 $312 6.2831853071796004 $192 $313 forward 7 unknown #
loop $-1 $-1 $199 $121 #
plane-surface $-1 -42.850428785058142 -6.7036232831640348 1.6431564446645268 -0.5877852598018023 0 0.80901698891910034 0.80901698891910034 0 0.5877852598018023 forward_v I I I I #
loop $-1 $-1 $314 $77 #
coedge $-1 $197 $197 $198 $315 reversed $122 $-1 #
coedge $-1 $198 $198 $197 $315 forward $124 $-1 #
coedge $-1 $199 $199 $125 $200 forward $194 $-1 #
edge $-1 $316 0 $316 6.2831853071796004 $199 $317 forward 7 unknown #
face $-1 $318 $319 $44 $-1 $320 forward single #
loop $-1 $-1 $321 $126 #
plane-surface $-1 -93.22412961714619 9.0594577892549886 70.976606183824671 0 -1 0 0.5877852598018023 0 -0.80901698891910034 forward_v I I I I #
coedge $-1 $322 $323 $324 $325 reversed $127 $-1 #
coedge $-1 $206 $129 $326 $327 reversed $81 $-1 #
coedge $-1 $129 $205 $322 $328 reversed $81 $-1 #
coedge $-1 $324 $329 $129 $208 forward $319 $-1 #
edge $-1 $330 3.76163602351496 $331 8.3106805647295516 $207 $332 forward 7 unknown #
loop $-1 $-1 $214 $130 #
plane-surface $-1 -42.850428785058142 5.2783142079418646 1.6431564446645268 -0.5877852598018023 0 0.80901698891910034 0.80901698891910034 0 0.5877852598018023 forward_v I I I I #
loop $-1 $-1 $333 $83 #
coedge $-1 $212 $212 $213 $334 reversed $131 $-1 #
coedge $-1 $213 $213 $212 $334 forward $133 $-1 #
coedge $-1 $214 $214 $134 $215 forward $209 $-1 #
edge $-1 $335 0 $335 6.2831853071796004 $214 $336 forward 7 unknown #
loop $-1 $-1 $221 $135 #
plane-surface $-1 -42.850428785058142 5.2783142079418646 1.6431564446645268 -0.5877852598018023 0 0.80901698891910034 0.80901698891910034 0 0.5877852598018023 forward_v I I I I #
loop $-1 $-1 $337 $86 #
coedge $-1 $219 $219 $220 $338 reversed $136 $-1 #
coedge $-1 $220 $220 $219 $338 forward $138 $-1 #
coedge $-1 $221 $221 $139 $222 forward $216 $-1 #
edge $-1 $339 0 $339 6.2831853071796004 $221 $340 forward 7 unknown #
face $-1 $341 $342 $47 $-1 $343 reversed single #
loop $-1 $-1 $229 $140 #
plane-surface $-1 0 0 4.9482308301607389 0 0 1 1 0 0 forward_v I I I I #
coedge $-1 $344 $345 $346 $347 reversed $141 $-1 #
coedge $-1 $228 $143 $348 $349 reversed $90 $-1 #
coedge $-1 $143 $227 $344 $350 reversed $90 $-1 #
coedge $-1 $346 $351 $143 $230 forward $224 $-1 #
edge $-1 $352 3.76163602351496 $353 8.3106805647295516 $229 $354 forward 7 unknown #
loop $-1 $-1 $236 $144 #
plane-surface $-1 -42.850428785058142 17.260251699047767 1.6431564446645268 -0.5877852598018023 0 0.80901698891910034 0.80901698891910034 0 0.5877852598018023 forward_v I I I I #
loop $-1 $-1 $355 $92 #
coedge $-1 $234 $234 $235 $356 reversed $145 $-1 #
coedge $-1 $235 $235 $234 $356 forward $147 $-1 #
coedge $-1 $236 $236 $148 $237 forward $231 $-1 #
edge $-1 $357 0 $357 6.2831853071796004 $236 $358 forward 7 unknown #
loop $-1 $-1 $243 $149 #
plane-surface $-1 -42.850428785058142 17.260251699047767 1.6431564446645268 -0.5877852598018023 0 0.80901698891910034 0.80901698891910034 0 0.5877852598018023 forward_v I I I I #
loop $-1 $-1 $359 $95 #
coedge $-1 $241 $241 $242 $360 reversed $150 $-1 #
coedge $-1 $242 $242 $241 $360 forward $152 $-1 #
coedge $-1 $243 $243 $153 $244 forward $238 $-1 #
edge $-1 $361 0 $361 6.2831853071796004 $243 $362 forward 7 unknown #
face $-1 $363 $364 $50 $-1 $365 forward single #
loop $-1 $-1 $366 $154 #
plane-surface $-1 44.965649929052908 2.8471877766507969 122.88043704840943 0 1 0 0.71933980857756763 0 0.69465836192734942 forward_v I I I I #
coedge $-1 $367 $368 $369 $370 reversed $155 $-1 #
coedge $-1 $250 $157 $371 $372 reversed $99 $-1 #
coedge $-1 $157 $249 $367 $373 reversed $99 $-1 #
coedge $-1 $369 $374 $157 $252 forward $364 $-1 #
edge $-1 $375 -20.367603820531681 $376 -17.230419446277079 $251 $377 forward 7 unknown #
loop $-1 $-1 $258 $158 #
plane-surface $-1 -16.682388550367918 7.6173496123908144 63.347619712983381 0.71933980857756763 0 0.69465836192734942 0.69465836192734942 0 -0.71933980857756763 forward_v I I I I #
loop $-1 $-1 $378 $101 #
coedge $-1 $256 $256 $257 $379 reversed $159 $-1 #
coedge $-1 $257 $257 $256 $379 forward $161 $-1 #
coedge $-1 $258 $258 $162 $259 forward $253 $-1 #
edge $-1 $380 0 $380 6.2831853071796004 $258 $381 forward 7 unknown #
face $-1 $382 $383 $39 $-1 $384 reversed single #
loop $-1 $-1 $385 $163 #
plane-surface $-1 -42.850428785058135 0 0 1 0 0 0 0 -1 forward_v I I I I #
coedge $-1 $271 $386 $273 $387 reversed $164 $-1 #
coedge $-1 $388 $166 $386 $389 forward $105 $-1 #
coedge $-1 $166 $388 $390 $391 forward $105 $-1 #
coedge $-1 $274 $273 $166 $267 reversed $275 $-1 #
edge $-1 $392 -21.041395280360891 $393 21.041395280360891 $266 $394 forward 7 unknown #
coedge $-1 $168 $167 $395 $396 forward $66 $-1 #
coedge $-1 $397 $398 $167 $270 reversed $383 $-1 #
edge $-1 $277 -42.850428785058135 $399 42.850428785058135 $269 $400 forward 7 unknown #
coedge $-1 $401 $263 $168 $272 reversed $164 $-1 #
edge $-1 $402 -42.850428785058135 $276 42.850428785058135 $271 $403 forward 7 unknown #
coedge $-1 $266 $169 $263 $387 forward $275 $-1 #
coedge $-1 $169 $266 $397 $404 reversed $275 $-1 #
loop $-1 $-1 $273 $382 #
vertex $-1 $170 $405 #
vertex $-1 $170 $406 #
straight-curve $-1 42.850428785058135 0 4.9482308301607389 0 1 0 I I #
face $-1 $407 $408 $40 $-1 $409 reversed single #
loop $-1 $-1 $291 $171 #
plane-surface $-1 0 -24.109884324062932 -1.9482308301607389 0 0 1 1 0 0 forward_v I I I I #
coedge $-1 $410 $411 $175 $287 forward $172 $-1 #
coedge $-1 $412 $174 $411 $413 forward $109 $-1 #
coedge $-1 $174 $412 $414 $415 forward $109 $-1 #
coedge $-1 $176 $175 $174 $286 reversed $69 $-1 #
edge $-1 $416 -42.850428785058135 $417 42.850428785058135 $174 $418 forward 7 unknown #
edge $-1 $417 -4.9482308301607389 $293 -1.9482308301607389 $282 $419 forward 7 unknown #
coedge $-1 $414 $420 $176 $289 forward $421 $-1 #
edge $-1 $292 1.9482308301607389 $416 4.9482308301607389 $288 $422 forward 7 unknown #
coedge $-1 $423 $177 $420 $424 forward $280 $-1 #
coedge $-1 $177 $423 $410 $425 forward $280 $-1 #
vertex $-1 $289 $426 #
vertex $-1 $425 $427 #
straight-curve $-1 0 -21.041395280360891 -1.9482308301607389 1 0 0 I I #
face $-1 $-1 $428 $41 $-1 $429 reversed single #
loop $-1 $-1 $185 $179 #
plane-surface $-1 0 0 4.9482308301607389 0 0 1 1 0 0 forward_v I I I I #
coedge $-1 $430 $431 $432 $433 reversed $180 $-1 #
coedge $-1 $434 $182 $184 $305 forward $113 $-1 #
coedge $-1 $182 $434 $430 $435 forward $113 $-1 #
coedge $-1 $432 $185 $182 $302 forward $296 $-1 #
edge $-1 $308 -7.1329552228951414 $436 0.4293319397311075 $301 $437 forward 7 unknown #
coedge $-1 $438 $439 $183 $304 forward $428 $-1 #
edge $-1 $440 -33.845146647247802 $307 -30.540072261751597 $303 $441 forward 7 unknown #
edge $-1 $308 -5.6229283235354783 $440 -8.7502459990790685e-015 $184 $442 forward 7 unknown #
coedge $-1 $185 $432 $438 $443 forward $296 $-1 #
vertex $-1 $304 $444 #
vertex $-1 $186 $445 #
straight-curve $-1 -46.612064808573095 -10.484766864477159 4.9482308301607389 1 0 0 I I #
coedge $-1 $310 $310 $-1 $446 reversed $189 $-1 #
edge $-1 $447 0 $447 6.2831853071796004 $190 $448 forward 7 unknown #
vertex $-1 $193 $449 #
ellipse-curve $-1 -40.575906514450843 -8.3241133894410897 3.2956936374126355 -0.5877852598018023 0 0.80901698891910034 0.80901698891910034 0 0.5877852598018023 1 I I #
coedge $-1 $314 $314 $-1 $450 reversed $196 $-1 #
edge $-1 $451 0 $451 6.2831853071796004 $197 $452 forward 7 unknown #
vertex $-1 $200 $453 #
ellipse-curve $-1 -40.575906514450843 -5.0831331768869816 3.2956936374126355 -0.5877852598018023 0 0.80901698891910034 0.80901698891910034 0 0.5877852598018023 1 I I #
face $-1 $-1 $454 $44 $-1 $455 reversed single #
loop $-1 $-1 $207 $201 #
plane-surface $-1 0 0 4.9482308301607389 0 0 1 1 0 0 forward_v I I I I #
coedge $-1 $456 $457 $458 $459 reversed $202 $-1 #
coedge $-1 $460 $204 $206 $328 forward $127 $-1 #
coedge $-1 $204 $460 $456 $461 forward $127 $-1 #
coedge $-1 $458 $207 $204 $325 forward $319 $-1 #
edge $-1 $331 -1.1419864773421926 $462 6.4203006852840563 $324 $463 forward 7 unknown #
coedge $-1 $464 $465 $205 $327 forward $454 $-1 #
edge $-1 $466 -33.845146647247802 $330 -30.540072261751597 $326 $467 forward 7 unknown #
edge $-1 $331 -5.6229283235354783 $466 -8.7502459990790685e-015 $206 $468 forward 7 unknown #
coedge $-1 $207 $458 $464 $469 forward $319 $-1 #
vertex $-1 $208 $470 #
vertex $-1 $208 $471 #
straight-curve $-1 -46.612064808573095 1.4971706266287397 4.9482308301607389 1 0 0 I I #
coedge $-1 $333 $333 $-1 $472 reversed $211 $-1 #
edge $-1 $473 0 $473 6.2831853071796004 $212 $474 forward 7 unknown #
vertex $-1 $215 $475 #
ellipse-curve $-1 -40.575906514450843 3.6578241016648114 3.2956936374126355 -0.5877852598018023 0 0.80901698891910034 0.80901698891910034 0 0.5877852598018023 1 I I #
coedge $-1 $337 $337 $-1 $476 reversed $218 $-1 #
edge $-1 $477 0 $477 6.2831853071796004 $219 $478 forward 7 unknown #
vertex $-1 $222 $479 #
ellipse-curve $-1 -40.575906514450843 6.8988043142189177 3.2956936374126355 -0.5877852598018023 0 0.80901698891910034 0.80901698891910034 0 0.5877852598018023 1 I I #
face $-1 $-1 $480 $47 $-1 $481 reversed single #
loop $-1 $-1 $482 $223 #
plane-surface $-1 0 21.041395280360891 0 0 -1 0 0 0 -1 forward_v I I I I #
coedge $-1 $483 $226 $228 $350 forward $141 $-1 #
coedge $-1 $226 $483 $482 $484 reversed $141 $-1 #
coedge $-1 $485 $229 $226 $347 forward $224 $-1 #
edge $-1 $353 4.8489822682107597 $486 12.411269430837008 $346 $487 forward 7 unknown #
coedge $-1 $488 $489 $227 $349 forward $480 $-1 #
edge $-1 $490 -33.845146647247802 $352 -30.540072261751597 $348 $491 forward 7 unknown #
edge $-1 $353 -5.6229283235354783 $490 -8.7502459990790685e-015 $228 $492 forward 7 unknown #
coedge $-1 $229 $485 $488 $493 forward $224 $-1 #
vertex $-1 $349 $494 #
vertex $-1 $230 $495 #
straight-curve $-1 -46.612064808573095 13.479108117734643 4.9482308301607389 1 0 0 I I #
coedge $-1 $355 $355 $-1 $496 reversed $233 $-1 #
edge $-1 $497 0 $497 6.2831853071796004 $234 $498 forward 7 unknown #
vertex $-1 $237 $499 #
ellipse-curve $-1 -40.575906514450843 15.639761592770714 3.2956936374126355 -0.5877852598018023 0 0.80901698891910034 0.80901698891910034 0 0.5877852598018023 1 I I #
coedge $-1 $359 $359 $-1 $500 reversed $240 $-1 #
edge $-1 $501 0 $501 6.2831853071796004 $241 $502 forward 7 unknown #
vertex $-1 $244 $503 #
ellipse-curve $-1 -40.575906514450843 18.880741805324821 3.2956936374126355 -0.5877852598018023 0 0.80901698891910034 0.80901698891910034 0 0.5877852598018023 1 I I #
face $-1 $-1 $504 $50 $-1 $505 reversed single #
loop $-1 $-1 $251 $245 #
plane-surface $-1 0 0 4.9482308301607389 0 0 1 1 0 0 forward_v I I I I #
coedge $-1 $506 $507 $508 $509 reversed $246 $-1 #
coedge $-1 $510 $248 $250 $373 forward $155 $-1 #
coedge $-1 $248 $510 $506 $511 forward $155 $-1 #
coedge $-1 $508 $251 $248 $370 forward $364 $-1 #
edge $-1 $376 -8.5788366419354247 $512 0.96148702954461029 $369 $513 forward 7 unknown #
coedge $-1 $514 $515 $249 $372 forward $504 $-1 #
edge $-1 $516 -59.740637290642162 $375 -56.491987694043978 $371 $517 forward 7 unknown #
edge $-1 $376 81.184703232679965 $516 85.70085757011627 $250 $518 forward 7 unknown #
coedge $-1 $251 $508 $514 $519 forward $364 $-1 #
vertex $-1 $372 $520 #
vertex $-1 $252 $521 #
straight-curve $-1 22.482824964526454 12.387511448130832 4.9482308301607389 -1 0 0 I I #
coedge $-1 $378 $378 $-1 $522 reversed $255 $-1 #
edge $-1 $523 0 $523 6.2831853071796004 $256 $524 forward 7 unknown #
vertex $-1 $259 $525 #
ellipse-curve $-1 41.281836597930841 7.6173496123908144 3.3239060318616467 0.71933980857756763 0 0.69465836192734942 0.34732918096367471 0 -0.35966990428878381 1 I I #
face $-1 $-1 $275 $39 $-1 $526 reversed single #
loop $-1 $-1 $397 $260 #
plane-surface $-1 0 21.041395280360891 0 0 -1 0 0 0 -1 forward_v I I I I #
coedge $-1 $527 $395 $398 $528 forward $261 $-1 #
coedge $-1 $263 $401 $264 $389 reversed $164 $-1 #
edge $-1 $276 -4.9482308301607389 $393 4.9482308301607389 $273 $529 forward 7 unknown #
coedge $-1 $265 $264 $527 $530 forward $105 $-1 #
edge $-1 $393 -42.850428785058135 $531 42.850428785058135 $386 $532 forward 7 unknown #
coedge $-1 $398 $397 $265 $391 reversed $383 $-1 #
edge $-1 $533 -42.850428785058135 $392 42.850428785058135 $390 $534 forward 7 unknown #
vertex $-1 $267 $535 #
vertex $-1 $387 $536 #
straight-curve $-1 42.850428785058135 0 -4.9482308301607389 0 -1 0 I I #
coedge $-1 $385 $537 $268 $396 reversed $261 $-1 #
edge $-1 $399 -21.041395280360891 $402 21.041395280360891 $395 $538 forward 7 unknown #
coedge $-1 $390 $269 $274 $404 forward $383 $-1 #
coedge $-1 $269 $390 $385 $528 reversed $383 $-1 #
vertex $-1 $270 $539 #
straight-curve $-1 0 21.041395280360891 4.9482308301607389 -1 0 0 I I #
coedge $-1 $386 $271 $537 $540 forward $164 $-1 #
vertex $-1 $396 $541 #
straight-curve $-1 0 -21.041395280360891 4.9482308301607389 1 0 0 I I #
edge $-1 $277 -4.9482308301607389 $392 4.9482308301607389 $274 $542 forward 7 unknown #
point $-1 42.850428785058135 -21.041395280360891 4.9482308301607389 #
point $-1 42.850428785058135 21.041395280360891 4.9482308301607389 #
face $-1 $-1 $421 $40 $-1 $543 reversed single #
loop $-1 $-1 $544 $279 #
plane-surface $-1 0 -27.178373367764973 -3.4482308301607389 0 1 0 0 0 1 forward_v I I I I #
coedge $-1 $545 $282 $291 $425 reversed $172 $-1 #
coedge $-1 $282 $545 $283 $413 reversed $172 $-1 #
coedge $-1 $284 $283 $546 $547 forward $109 $-1 #
edge $-1 $417 21.041395280360891 $548 27.178373367764973 $411 $549 forward 7 unknown #
coedge $-1 $550 $288 $284 $415 reversed $421 $-1 #
edge $-1 $551 -27.178373367764973 $416 -21.041395280360891 $414 $552 forward 7 unknown #
vertex $-1 $289 $553 #
vertex $-1 $413 $554 #
straight-curve $-1 0 -21.041395280360891 -4.9482308301607389 1 0 0 I I #
straight-curve $-1 42.850428785058135 -21.041395280360891 0 0 0 1 I I #
coedge $-1 $288 $550 $290 $424 reversed $421 $-1 #
loop $-1 $-1 $288 $407 #
straight-curve $-1 -42.850428785058135 -21.041395280360891 0 0 0 -1 I I #
coedge $-1 $291 $290 $555 $556 forward $280 $-1 #
edge $-1 $292 -3.0684890437020407 $557 3.0684890437020407 $420 $558 forward 7 unknown #
edge $-1 $559 -3.0684890437020407 $293 3.0684890437020407 $410 $560 forward 7 unknown #
point $-1 -42.850428785058135 -21.041395280360891 -1.9482308301607389 #
point $-1 42.850428785058135 -21.041395280360891 -1.9482308301607389 #
loop $-1 $-1 $303 $295 #
plane-surface $-1 -42.850428785058135 0 0 1 0 0 0 0 -1 forward_v I I I I #
coedge $-1 $431 $298 $300 $435 reversed $180 $-1 #
coedge $-1 $298 $430 $561 $562 reversed $180 $-1 #
coedge $-1 $306 $301 $298 $433 forward $296 $-1 #
edge $-1 $436 -8.3106805647295516 $563 -3.76163602351496 $432 $564 forward 7 unknown #
coedge $-1 $300 $299 $439 $565 reversed $113 $-1 #
edge $-1 $566 8.7502459990790685e-015 $436 5.6229283235354783 $430 $567 forward 7 unknown #
vertex $-1 $302 $568 #
straight-curve $-1 -38.301384243843543 -3.3518116415820174 4.9482308301607389 0 1 0 I I #
coedge $-1 $561 $303 $306 $443 reversed $428 $-1 #
coedge $-1 $303 $561 $434 $565 forward $428 $-1 #
vertex $-1 $304 $569 #
straight-curve $-1 -42.850428785058135 -10.484766864477159 35.488303091912336 0 0 1 I I #
straight-curve $-1 -42.850428785058142 -10.484766864477159 1.6431564446645268 -0.80901698891910034 0 -0.5877852598018023 I I #
edge $-1 $563 2.9224797018509099 $307 10.484766864477159 $438 $570 forward 7 unknown #
point $-1 -42.850428785058135 -10.484766864477159 4.9482308301607389 #
point $-1 -38.301384243843543 -10.484766864477159 4.9482308301607389 #
edge $-1 $571 1 $571 0 $310 $-1 forward 7 unknown #
vertex $-1 $311 $572 #
ellipse-curve $-1 -38.337238804476002 -8.3241133894410897 0.21443193560514084 -0.5877852598018023 0 0.80901698891910034 0.80901698891910034 0 0.5877852598018023 1 I I #
point $-1 -39.766889525531731 -8.3241133894410897 3.8834788972144292 #
edge $-1 $573 1 $573 0 $314 $-1 forward 7 unknown #
vertex $-1 $315 $574 #
ellipse-curve $-1 -38.337238804476002 -5.0831331768869816 0.21443193560514084 -0.5877852598018023 0 0.80901698891910034 0.80901698891910034 0 0.5877852598018023 1 I I #
point $-1 -39.766889525531731 -5.0831331768869816 3.8834788972144292 #
loop $-1 $-1 $326 $318 #
plane-surface $-1 -42.850428785058135 0 0 1 0 0 0 0 -1 forward_v I I I I #
coedge $-1 $457 $321 $323 $461 reversed $202 $-1 #
coedge $-1 $321 $456 $575 $576 reversed $202 $-1 #
coedge $-1 $329 $324 $321 $459 forward $319 $-1 #
edge $-1 $462 -8.3106805647295516 $577 -3.76163602351496 $458 $578 forward 7 unknown #
coedge $-1 $323 $322 $465 $579 reversed $127 $-1 #
edge $-1 $580 8.7502459990790685e-015 $462 5.6229283235354783 $456 $581 forward 7 unknown #
vertex $-1 $325 $582 #
straight-curve $-1 -38.301384243843543 2.6391571039709323 4.9482308301607389 0 1 0 I I #
coedge $-1 $575 $326 $329 $469 reversed $454 $-1 #
coedge $-1 $326 $575 $460 $579 forward $454 $-1 #
vertex $-1 $327 $583 #
straight-curve $-1 -42.850428785058135 1.4971706266287397 35.488303091912336 0 0 1 I I #
straight-curve $-1 -42.850428785058142 1.4971706266287397 1.6431564446645268 -0.80901698891910034 0 -0.5877852598018023 I I #
edge $-1 $577 -9.0594577892549886 $330 -1.4971706266287397 $464 $584 forward 7 unknown #
point $-1 -42.850428785058135 1.4971706266287397 4.9482308301607389 #
point $-1 -38.301384243843543 1.4971706266287397 4.9482308301607389 #
edge $-1 $585 1 $585 0 $333 $-1 forward 7 unknown #
vertex $-1 $334 $586 #
ellipse-curve $-1 -38.337238804476002 3.6578241016648114 0.21443193560514084 -0.5877852598018023 0 0.80901698891910034 0.80901698891910034 0 0.5877852598018023 1 I I #
point $-1 -39.766889525531731 3.6578241016648114 3.8834788972144292 #
edge $-1 $587 1 $587 0 $337 $-1 forward 7 unknown #
vertex $-1 $338 $588 #
ellipse-curve $-1 -38.337238804476002 6.8988043142189177 0.21443193560514084 -0.5877852598018023 0 0.80901698891910034 0.80901698891910034 0 0.5877852598018023 1 I I #
point $-1 -39.766889525531731 6.8988043142189177 3.8834788972144292 #
loop $-1 $-1 $348 $341 #
plane-surface $-1 -42.850428785058135 0 0 1 0 0 0 0 -1 forward_v I I I I #
coedge $-1 $589 $590 $345 $484 forward $342 $-1 #
coedge $-1 $345 $344 $489 $591 reversed $141 $-1 #
edge $-1 $486 11.227522542393489 $592 16.850450865928959 $482 $593 forward 7 unknown #
coedge $-1 $351 $346 $590 $594 forward $224 $-1 #
vertex $-1 $594 $595 #
straight-curve $-1 -38.301384243843543 8.6301258495238837 4.9482308301607389 0 1 0 I I #
coedge $-1 $596 $348 $351 $493 reversed $480 $-1 #
coedge $-1 $348 $596 $483 $591 forward $480 $-1 #
vertex $-1 $349 $597 #
straight-curve $-1 -42.850428785058135 13.479108117734643 35.488303091912336 0 0 1 I I #
straight-curve $-1 -42.850428785058142 13.479108117734643 1.6431564446645268 -0.80901698891910034 0 -0.5877852598018023 I I #
edge $-1 $598 -21.041395280360891 $352 -13.479108117734643 $488 $599 forward 7 unknown #
point $-1 -42.850428785058135 13.479108117734643 4.9482308301607389 #
point $-1 -38.301384243843543 13.479108117734643 4.9482308301607389 #
edge $-1 $600 1 $600 0 $355 $-1 forward 7 unknown #
vertex $-1 $356 $601 #
ellipse-curve $-1 -38.337238804476002 15.639761592770714 0.21443193560514084 -0.5877852598018023 0 0.80901698891910034 0.80901698891910034 0 0.5877852598018023 1 I I #
point $-1 -39.766889525531731 15.639761592770714 3.8834788972144292 #
edge $-1 $602 1 $602 0 $359 $-1 forward 7 unknown #
vertex $-1 $360 $603 #
ellipse-curve $-1 -38.337238804476002 18.880741805324821 0.21443193560514084 -0.5877852598018023 0 0.80901698891910034 0.80901698891910034 0 0.5877852598018023 1 I I #
point $-1 -39.766889525531731 18.880741805324821 3.8834788972144292 #
loop $-1 $-1 $371 $363 #
plane-surface $-1 42.850428785058135 0 0 -1 0 0 0 0 1 forward_v I I I I #
coedge $-1 $507 $366 $368 $511 reversed $246 $-1 #
coedge $-1 $366 $506 $604 $605 reversed $246 $-1 #
coedge $-1 $374 $369 $366 $509 forward $364 $-1 #
edge $-1 $512 17.230419446277079 $606 20.367603820531681 $508 $607 forward 7 unknown #
coedge $-1 $368 $367 $515 $608 reversed $155 $-1 #
edge $-1 $609 -85.70085757011627 $512 -81.184703232679965 $506 $610 forward 7 unknown #
vertex $-1 $370 $611 #
straight-curve $-1 39.71324441080354 3.8086748061954072 4.9482308301607461 0 -1 0 I I #
coedge $-1 $604 $371 $374 $519 reversed $504 $-1 #
coedge $-1 $371 $604 $510 $608 forward $504 $-1 #
vertex $-1 $372 $612 #
straight-curve $-1 42.850428785058135 12.387511448130832 61.440218524204717 0 0 1 I I #
straight-curve $-1 -16.682388550367918 12.387511448130832 63.347619712983381 0.69465836192734942 0 -0.71933980857756763 I I #
edge $-1 $606 2.8471877766507969 $375 12.387511448130832 $514 $613 forward 7 unknown #
point $-1 42.850428785058135 12.387511448130832 4.9482308301607389 #
point $-1 39.713244410803533 12.387511448130832 4.9482308301607389 #
edge $-1 $614 1 $614 0 $378 $-1 forward 7 unknown #
vertex $-1 $379 $615 #
ellipse-curve $-1 40.011493955542171 7.6173496123908144 2.097150431065482 0.71933980857756763 0 0.69465836192734942 0.34732918096367471 0 -0.35966990428878381 1 I I #
point $-1 41.629165778894517 7.6173496123908144 2.9642361275728648 #
plane-surface $-1 42.850428785058135 0 0 -1 0 0 0 0 1 forward_v I I I I #
coedge $-1 $537 $385 $388 $530 reversed $261 $-1 #
edge $-1 $399 -4.9482308301607389 $533 4.9482308301607389 $398 $616 forward 7 unknown #
straight-curve $-1 42.850428785058135 -21.041395280360891 0 0 0 -1 I I #
edge $-1 $531 -21.041395280360891 $533 21.041395280360891 $527 $617 forward 7 unknown #
vertex $-1 $530 $618 #
straight-curve $-1 0 -21.041395280360891 -4.9482308301607389 -1 0 0 I I #
vertex $-1 $391 $619 #
straight-curve $-1 0 21.041395280360891 -4.9482308301607389 1 0 0 I I #
point $-1 42.850428785058135 21.041395280360891 -4.9482308301607389 #
point $-1 42.850428785058135 -21.041395280360891 -4.9482308301607389 #
coedge $-1 $395 $527 $401 $540 reversed $261 $-1 #
straight-curve $-1 -42.850428785058135 0 4.9482308301607389 0 -1 0 I I #
point $-1 -42.850428785058135 21.041395280360891 4.9482308301607389 #
edge $-1 $402 -4.9482308301607389 $531 4.9482308301607389 $537 $620 forward 7 unknown #
point $-1 -42.850428785058135 -21.041395280360891 4.9482308301607389 #
straight-curve $-1 42.850428785058135 21.041395280360891 0 0 0 -1 I I #
plane-surface $-1 -42.850428785058135 0 0 1 0 0 0 0 -1 forward_v I I I I #
coedge $-1 $546 $555 $550 $621 forward $408 $-1 #
coedge $-1 $411 $410 $622 $623 forward $172 $-1 #
coedge $-1 $622 $544 $412 $547 reversed $408 $-1 #
edge $-1 $548 -42.850428785058135 $551 42.850428785058135 $546 $624 forward 7 unknown #
vertex $-1 $623 $625 #
straight-curve $-1 42.850428785058135 0 -4.9482308301607389 0 -1 0 I I #
coedge $-1 $420 $414 $544 $621 reversed $421 $-1 #
vertex $-1 $415 $626 #
straight-curve $-1 -42.850428785058135 0 -4.9482308301607389 0 1 0 I I #
point $-1 -42.850428785058135 -21.041395280360891 -4.9482308301607389 #
point $-1 42.850428785058135 -21.041395280360891 -4.9482308301607389 #
coedge $-1 $544 $622 $423 $556 reversed $408 $-1 #
edge $-1 $557 -42.850428785058135 $559 42.850428785058135 $555 $627 forward 7 unknown #
vertex $-1 $424 $628 #
straight-curve $-1 -42.850428785058135 -24.109884324062932 -1.9482308301607389 0 -1 0 I I #
vertex $-1 $425 $629 #
straight-curve $-1 42.850428785058135 -24.109884324062932 -1.9482308301607389 0 1 0 I I #
coedge $-1 $439 $438 $431 $562 forward $428 $-1 #
edge $-1 $563 30.540072261751597 $566 33.845146647247802 $561 $630 forward 7 unknown #
vertex $-1 $443 $631 #
straight-curve $-1 -46.612064808573095 -2.9224797018509099 4.9482308301607389 -1 0 0 I I #
edge $-1 $566 -0.4293319397311075 $440 7.1329552228951414 $439 $632 forward 7 unknown #
vertex $-1 $565 $633 #
straight-curve $-1 -42.850428785058142 -2.9224797018509099 1.6431564446645268 0.80901698891910034 0 0.5877852598018023 I I #
point $-1 -38.301384243843543 -2.9224797018509099 4.9482308301607389 #
point $-1 -42.850428785058135 -10.484766864477159 1.6431564446645319 #
straight-curve $-1 -42.850428785058135 0 4.9482308301607389 0 -1 0 I I #
vertex $-1 $446 $634 #
point $-1 -37.528221815556897 -8.3241133894410897 0.80221719540694314 #
vertex $-1 $450 $635 #
point $-1 -37.528221815556897 -5.0831331768869816 0.80221719540694314 #
coedge $-1 $465 $464 $457 $576 forward $454 $-1 #
edge $-1 $577 30.540072261751597 $580 33.845146647247802 $575 $636 forward 7 unknown #
vertex $-1 $469 $637 #
straight-curve $-1 -46.612064808573095 9.0594577892549886 4.9482308301607389 -1 0 0 I I #
edge $-1 $580 -6.4203006852840563 $466 1.1419864773421926 $465 $638 forward 7 unknown #
vertex $-1 $579 $639 #
straight-curve $-1 -42.850428785058142 9.0594577892549886 1.6431564446645268 0.80901698891910034 0 0.5877852598018023 I I #
point $-1 -38.301384243843543 9.0594577892549886 4.9482308301607389 #
point $-1 -42.850428785058135 1.4971706266287397 1.6431564446645319 #
straight-curve $-1 -42.850428785058135 0 4.9482308301607389 0 -1 0 I I #
vertex $-1 $472 $640 #
point $-1 -37.528221815556897 3.6578241016648114 0.80221719540694314 #
vertex $-1 $476 $641 #
point $-1 -37.528221815556897 6.8988043142189177 0.80221719540694314 #
coedge $-1 $590 $482 $596 $642 reversed $342 $-1 #
coedge $-1 $482 $589 $485 $594 reversed $342 $-1 #
edge $-1 $592 -12.411269430837008 $490 -4.8489822682107597 $489 $643 forward 7 unknown #
vertex $-1 $484 $644 #
straight-curve $-1 -29.21812776357504 21.041395280360891 11.547603084672089 -0.80901698891910034 0 -0.5877852598018023 I I #
edge $-1 $486 38.301384243843543 $598 42.850428785058135 $590 $645 forward 7 unknown #
point $-1 -38.301384243843543 21.041395280360891 4.9482308301607389 #
coedge $-1 $489 $488 $589 $642 forward $480 $-1 #
point $-1 -42.850428785058135 13.479108117734643 1.6431564446645319 #
vertex $-1 $594 $646 #
straight-curve $-1 -42.850428785058135 0 4.9482308301607389 0 -1 0 I I #
vertex $-1 $496 $647 #
point $-1 -37.528221815556897 15.639761592770714 0.80221719540694314 #
vertex $-1 $500 $648 #
point $-1 -37.528221815556897 18.880741805324821 0.80221719540694314 #
coedge $-1 $515 $514 $507 $605 forward $504 $-1 #
edge $-1 $606 56.491987694043978 $609 59.740637290642162 $604 $649 forward 7 unknown #
vertex $-1 $519 $650 #
straight-curve $-1 22.482824964526454 2.8471877766507969 4.9482308301607389 1 0 0 I I #
edge $-1 $609 -0.96148702954461029 $516 8.5788366419354247 $515 $651 forward 7 unknown #
vertex $-1 $608 $652 #
straight-curve $-1 -16.682388550367918 2.8471877766507969 63.347619712983381 -0.69465836192734942 0 0.71933980857756763 I I #
point $-1 39.713244410803533 2.8471877766507969 4.9482308301607389 #
point $-1 42.850428785058135 12.387511448130832 1.6995812335625544 #
straight-curve $-1 42.850428785058135 0 4.9482308301607389 0 1 0 I I #
vertex $-1 $522 $653 #
point $-1 40.358823136505848 7.6173496123908144 1.7374805267766984 #
straight-curve $-1 -42.850428785058135 21.041395280360891 0 0 0 -1 I I #
straight-curve $-1 -42.850428785058135 0 -4.9482308301607389 0 1 0 I I #
point $-1 -42.850428785058135 -21.041395280360891 -4.9482308301607389 #
point $-1 -42.850428785058135 21.041395280360891 -4.9482308301607389 #
straight-curve $-1 -42.850428785058135 -21.041395280360891 0 0 0 -1 I I #
edge $-1 $557 -1.5 $551 1.5 $550 $654 forward 7 unknown #
coedge $-1 $555 $546 $545 $623 reversed $408 $-1 #
edge $-1 $559 -1.5 $548 1.5 $545 $655 forward 7 unknown #
straight-curve $-1 0 -27.178373367764973 -4.9482308301607389 -1 0 0 I I #
point $-1 42.850428785058135 -27.178373367764973 -4.9482308301607389 #
point $-1 -42.850428785058135 -27.178373367764973 -4.9482308301607389 #
straight-curve $-1 0 -27.178373367764973 -1.9482308301607389 1 0 0 I I #
point $-1 -42.850428785058135 -27.178373367764973 -1.9482308301607389 #
point $-1 42.850428785058135 -27.178373367764973 -1.9482308301607389 #
straight-curve $-1 -42.850428785058135 -2.9224797018509099 35.488303091912336 0 0 -1 I I #
point $-1 -42.850428785058135 -2.9224797018509099 4.9482308301607389 #
straight-curve $-1 -42.850428785058135 -3.3518116415820174 1.6431564446645321 0 -1 0 I I #
point $-1 -42.850428785058135 -2.9224797018509099 1.6431564446645319 #
point $-1 -37.749453544674196 -8.3241133894410897 -0.5945850533139595 #
point $-1 -37.749453544674196 -5.0831331768869816 -0.5945850533139595 #
straight-curve $-1 -42.850428785058135 9.0594577892549886 35.488303091912336 0 0 -1 I I #
point $-1 -42.850428785058135 9.0594577892549886 4.9482308301607389 #
straight-curve $-1 -42.850428785058135 2.6391571039709323 1.6431564446645321 0 -1 0 I I #
point $-1 -42.850428785058135 9.0594577892549886 1.6431564446645319 #
point $-1 -37.749453544674196 3.6578241016648114 -0.5945850533139595 #
point $-1 -37.749453544674196 6.8988043142189177 -0.5945850533139595 #
edge $-1 $598 -4.9482308301607389 $592 -1.6431564446645319 $589 $656 forward 7 unknown #
straight-curve $-1 -42.850428785058135 8.6301258495238837 1.6431564446645321 0 -1 0 I I #
point $-1 -42.850428785058135 21.041395280360891 1.6431564446645319 #
straight-curve $-1 0 21.041395280360891 4.9482308301607389 -1 0 0 I I #
point $-1 -42.850428785058135 21.041395280360891 4.9482308301607389 #
point $-1 -37.749453544674196 15.639761592770714 -0.5945850533139595 #
point $-1 -37.749453544674196 18.880741805324821 -0.5945850533139595 #
straight-curve $-1 42.850428785058135 2.8471877766507969 61.440218524204717 0 0 -1 I I #
point $-1 42.850428785058135 2.8471877766507969 4.9482308301607389 #
straight-curve $-1 42.850428785058128 3.8086748061954072 1.699581233562558 0 1 0 I I #
point $-1 42.850428785058135 2.8471877766507969 1.6995812335625544 #
point $-1 39.651824051253392 7.6173496123908144 1.7498212501018076 #
straight-curve $-1 -42.850428785058135 -27.178373367764973 -3.4482308301607389 0 0 -1 I I #
straight-curve $-1 42.850428785058135 -27.178373367764973 -3.4482308301607389 0 0 -1 I I #
straight-curve $-1 -42.850428785058135 21.041395280360891 0 0 0 -1 I I #
End-of-ACIS-data 