500 0 11 0           
7 Unknown 11 ACIS 5.0 NT 24 Fri Mar 26 00:22:13 1999 
-1 9.9999999999999995e-007 1e-010 
body $-1 $11 $-1 $12 #
body $-1 $13 $-1 $14 #
body $-1 $15 $-1 $16 #
body $-1 $17 $-1 $18 #
body $-1 $19 $-1 $20 #
body $-1 $21 $-1 $22 #
body $-1 $23 $-1 $24 #
body $-1 $25 $-1 $26 #
body $-1 $27 $-1 $28 #
body $-1 $29 $-1 $30 #
body $-1 $31 $-1 $32 #
lump $-1 $-1 $33 $0 #
transform $-1 1 0 0 0 1 0 0 0 1 40.214850306711021 27.609157109736636 5.7147003468540545 1 rotate no_reflect no_shear #
lump $-1 $-1 $34 $1 #
transform $-1 1 0 0 0 1 0 0 0 1 40.214850306711021 27.609157109736636 5.7147003468540545 1 rotate no_reflect no_shear #
lump $-1 $-1 $35 $2 #
transform $-1 1 0 0 0 1 0 0 0 1 40.214850306711021 27.609157109736636 5.7147003468540545 1 rotate no_reflect no_shear #
lump $-1 $-1 $36 $3 #
transform $-1 1 0 0 0 1 0 0 0 1 40.214850306711021 27.609157109736636 5.7147003468540545 1 rotate no_reflect no_shear #
lump $-1 $-1 $37 $4 #
transform $-1 1 0 0 0 1 0 0 0 1 40.214850306711021 27.609157109736636 5.7147003468540545 1 rotate no_reflect no_shear #
lump $-1 $-1 $38 $5 #
transform $-1 1 0 0 0 1 0 0 0 1 40.214850306711021 27.609157109736636 5.7147003468540545 1 rotate no_reflect no_shear #
lump $-1 $-1 $39 $6 #
transform $-1 1 0 0 0 1 0 0 0 1 40.214850306711021 27.609157109736636 5.7147003468540545 1 rotate no_reflect no_shear #
lump $-1 $-1 $40 $7 #
transform $-1 1 0 0 0 1 0 0 0 1 40.214850306711021 27.609157109736636 5.7147003468540545 1 rotate no_reflect no_shear #
lump $-1 $-1 $41 $8 #
transform $-1 1 0 0 0 1 0 0 0 1 40.214850306711021 27.609157109736636 5.7147003468540545 1 rotate no_reflect no_shear #
lump $-1 $-1 $42 $9 #
transform $-1 1 0 0 0 1 0 0 0 1 40.214850306711021 27.609157109736636 5.7147003468540545 1 rotate no_reflect no_shear #
lump $-1 $-1 $43 $10 #
transform $-1 1 0 0 0 1 0 0 0 1 40.214850306711021 27.609157109736636 5.7147003468540545 1 rotate no_reflect no_shear #
shell $-1 $-1 $-1 $44 $-1 $11 #
shell $-1 $-1 $-1 $45 $-1 $13 #
shell $-1 $-1 $-1 $46 $-1 $15 #
shell $-1 $-1 $-1 $47 $-1 $17 #
shell $-1 $-1 $-1 $48 $-1 $19 #
shell $-1 $-1 $-1 $49 $-1 $21 #
shell $-1 $-1 $-1 $50 $-1 $23 #
shell $-1 $-1 $-1 $51 $-1 $25 #
shell $-1 $-1 $-1 $52 $-1 $27 #
shell $-1 $-1 $-1 $53 $-1 $29 #
shell $-1 $-1 $-1 $54 $-1 $31 #
face $-1 $55 $56 $33 $-1 $57 forward single #
face $-1 $58 $59 $34 $-1 $60 reversed single #
face $-1 $61 $62 $35 $-1 $63 reversed single #
face $-1 $64 $65 $36 $-1 $66 forward single #
face $-1 $67 $68 $37 $-1 $69 forward single #
face $-1 $70 $71 $38 $-1 $72 reversed single #
face $-1 $73 $74 $39 $-1 $75 forward single #
face $-1 $76 $77 $40 $-1 $78 forward single #
face $-1 $79 $80 $41 $-1 $81 reversed single #
face $-1 $82 $83 $42 $-1 $84 forward single #
face $-1 $85 $86 $43 $-1 $87 forward single #
face $-1 $88 $89 $33 $-1 $90 reversed single #
loop $-1 $-1 $91 $44 #
plane-surface $-1 0 0 5.7147003468540545 0 0 1 1 0 0 forward_v I I I I #
face $-1 $92 $93 $34 $-1 $94 reversed single #
loop $-1 $-1 $95 $45 #
plane-surface $-1 -37.036695932136077 0 2.7147003468540545 0 0 1 1 0 0 forward_v I I I I #
face $-1 $96 $97 $35 $-1 $98 reversed single #
loop $-1 $-1 $99 $46 #
plane-surface $-1 -23.38620562516769 64.989131755608128 90.389440668667731 1 0 0 0 -0.83867057594974714 -0.54463902268945019 forward_v I I I I #
face $-1 $100 $101 $36 $-1 $102 forward single #
loop $-1 $103 $104 $47 #
cone-surface $-1 -20.028683789801573 24.656302400238101 2.2240879096570634 0 -0.83867057594974714 -0.54463902268945019 1 0 0 1 I I 0 1 1 forward I I I I #
face $-1 $105 $106 $37 $-1 $107 forward single #
loop $-1 $108 $109 $48 #
cone-surface $-1 -14.992401036752391 24.656302400238101 2.2240879096570634 0 -0.83867057594974714 -0.54463902268945019 1 0 0 1 I I 0 1 1 forward I I I I #
face $-1 $110 $111 $38 $-1 $112 reversed single #
loop $-1 $-1 $113 $49 #
plane-surface $-1 3.1781543745749445 -88.310223363783393 54.876038934455096 -1 0 0 0 -0.75470958851134928 0.65605901945558964 forward_v I I I I #
face $-1 $114 $115 $39 $-1 $116 forward single #
loop $-1 $117 $118 $50 #
cone-surface $-1 -3.0360997005104267 -25.664786124266307 3.5840248711526321 0 0.75470958851134928 -0.65605901945558964 0.25 0 0 1 I I 0 1 0.25 forward I I I I #
face $-1 $119 $120 $40 $-1 $121 forward single #
loop $-1 $122 $123 $51 #
cone-surface $-1 0.69245274454079464 -25.664786124266307 3.5840248711526321 0 0.75470958851134928 -0.65605901945558964 0.25 0 0 1 I I 0 1 0.25 forward I I I I #
face $-1 $124 $125 $41 $-1 $126 reversed single #
loop $-1 $-1 $127 $52 #
plane-surface $-1 35.864872454151275 -27.609157109736628 2.1094084149067953 0 -0.75470958851134928 0.65605901945558964 1 0 0 forward_v I I I I #
face $-1 $128 $129 $42 $-1 $130 forward single #
loop $-1 $131 $132 $53 #
cone-surface $-1 34.000596231625657 -25.664786124266307 3.5840248711526321 0 0.75470958851134928 -0.65605901945558964 0.25 0 0 1 I I 0 1 0.25 forward I I I I #
face $-1 $133 $134 $43 $-1 $135 forward single #
loop $-1 $136 $137 $54 #
cone-surface $-1 37.729148676676878 -25.664786124266307 3.5840248711526321 0 0.75470958851134928 -0.65605901945558964 0.25 0 0 1 I I 0 1 0.25 forward I I I I #
face $-1 $138 $139 $33 $-1 $140 reversed single #
loop $-1 $-1 $141 $55 #
plane-surface $-1 0 0 -5.7147003468540545 0 0 1 1 0 0 forward_v I I I I #
coedge $-1 $142 $143 $144 $145 forward $56 $-1 #
face $-1 $146 $147 $34 $-1 $148 reversed single #
loop $-1 $-1 $149 $58 #
plane-surface $-1 -33.858541557561132 0 4.2147003468540545 -1 0 0 0 0 1 forward_v I I I I #
coedge $-1 $150 $151 $152 $153 forward $59 $-1 #
face $-1 $154 $155 $35 $-1 $156 reversed single #
loop $-1 $-1 $157 $61 #
plane-surface $-1 -17.51054241327698 -2.464891581316266 46.584287131368477 0 0.83867057594974714 0.54463902268945019 1 0 0 forward_v I I I I #
coedge $-1 $158 $159 $160 $161 reversed $62 $-1 #
face $-1 $-1 $162 $36 $-1 $163 forward single #
loop $-1 $164 $165 $64 #
cone-surface $-1 -20.028683789801573 23.050627180912819 1.1813502635680111 0 -0.83867057594974714 -0.54463902268945019 0.5 0 0 1 I I -0.70710678118654746 0.70710678118654746 0.5 forward I I I I #
loop $-1 $-1 $166 $47 #
coedge $-1 $104 $104 $167 $168 reversed $65 $-1 #
face $-1 $-1 $169 $37 $-1 $170 forward single #
loop $-1 $171 $172 $67 #
cone-surface $-1 -14.992401036752391 23.050627180912819 1.1813502635680111 0 -0.83867057594974714 -0.54463902268945019 0.5 0 0 1 I I -0.70710678118654746 0.70710678118654746 0.5 forward I I I I #
loop $-1 $-1 $173 $48 #
coedge $-1 $109 $109 $174 $175 reversed $68 $-1 #
face $-1 $176 $177 $38 $-1 $178 reversed single #
loop $-1 $-1 $179 $70 #
plane-surface $-1 -1.171823477984816 -27.609157109736628 2.1094084149067953 0 -0.75470958851134928 0.65605901945558964 1 0 0 forward_v I I I I #
coedge $-1 $180 $181 $182 $183 reversed $71 $-1 #
face $-1 $-1 $184 $39 $-1 $185 forward single #
loop $-1 $186 $187 $73 #
cone-surface $-1 -3.0360997005104267 -25.193092631446714 3.1739879839928884 0 0.75470958851134928 -0.65605901945558964 0.125 0 0 1 I I -0.70710678118654746 0.70710678118654746 0.125 forward I I I I #
loop $-1 $-1 $188 $50 #
coedge $-1 $118 $118 $189 $190 reversed $74 $-1 #
face $-1 $-1 $191 $40 $-1 $192 forward single #
loop $-1 $193 $194 $76 #
cone-surface $-1 0.69245274454079464 -25.193092631446714 3.1739879839928884 0 0.75470958851134928 -0.65605901945558964 0.125 0 0 1 I I -0.70710678118654746 0.70710678118654746 0.125 forward I I I I #
loop $-1 $-1 $195 $51 #
coedge $-1 $123 $123 $196 $197 reversed $77 $-1 #
face $-1 $198 $199 $41 $-1 $200 reversed single #
loop $-1 $-1 $201 $79 #
plane-surface $-1 31.514894601591514 -88.310223363783393 54.876038934455096 1 0 0 0 0.75470958851134928 -0.65605901945558964 forward_v I I I I #
coedge $-1 $202 $203 $204 $205 reversed $80 $-1 #
face $-1 $-1 $206 $42 $-1 $207 forward single #
loop $-1 $208 $209 $82 #
cone-surface $-1 34.000596231625657 -25.193092631446714 3.1739879839928884 0 0.75470958851134928 -0.65605901945558964 0.125 0 0 1 I I -0.70710678118654746 0.70710678118654746 0.125 forward I I I I #
loop $-1 $-1 $210 $53 #
coedge $-1 $132 $132 $211 $212 reversed $83 $-1 #
face $-1 $-1 $213 $43 $-1 $214 forward single #
loop $-1 $215 $216 $85 #
cone-surface $-1 37.729148676676878 -25.193092631446714 3.1739879839928884 0 0.75470958851134928 -0.65605901945558964 0.125 0 0 1 I I -0.70710678118654746 0.70710678118654746 0.125 forward I I I I #
loop $-1 $-1 $217 $54 #
coedge $-1 $137 $137 $218 $219 reversed $86 $-1 #
face $-1 $220 $221 $33 $-1 $222 reversed single #
loop $-1 $-1 $223 $88 #
plane-surface $-1 0 -27.609157109736636 0 0 1 0 0 0 1 forward_v I I I I #
coedge $-1 $224 $225 $226 $227 forward $89 $-1 #
coedge $-1 $228 $91 $229 $230 forward $56 $-1 #
coedge $-1 $91 $228 $231 $232 forward $56 $-1 #
coedge $-1 $233 $234 $91 $145 reversed $235 $-1 #
edge $-1 $236 -27.609157109736636 $237 27.609157109736636 $144 $238 forward 7 unknown #
face $-1 $239 $240 $34 $-1 $241 reversed single #
loop $-1 $-1 $242 $92 #
plane-surface $-1 0 27.609157109736636 0 0 -1 0 0 0 -1 forward_v I I I I #
coedge $-1 $152 $243 $244 $245 reversed $93 $-1 #
coedge $-1 $246 $95 $247 $248 reversed $59 $-1 #
coedge $-1 $95 $246 $249 $250 reversed $59 $-1 #
coedge $-1 $251 $149 $95 $153 reversed $93 $-1 #
edge $-1 $252 -27.609157109736636 $253 27.609157109736636 $152 $254 forward 7 unknown #
face $-1 $255 $256 $35 $-1 $257 forward single #
loop $-1 $-1 $258 $96 #
plane-surface $-1 -11.634879201386267 64.989131755608128 90.389440668667731 -1 0 0 0 0.83867057594974714 0.54463902268945019 forward_v I I I I #
coedge $-1 $259 $260 $261 $262 reversed $97 $-1 #
coedge $-1 $159 $99 $263 $264 reversed $62 $-1 #
coedge $-1 $99 $158 $259 $265 reversed $62 $-1 #
coedge $-1 $261 $266 $99 $161 forward $256 $-1 #
edge $-1 $267 4.8854087680674283 $268 8.4184383243636951 $160 $269 forward 7 unknown #
loop $-1 $-1 $167 $100 #
plane-surface $-1 -17.51054241327698 -2.464891581316266 46.584287131368477 0 0.83867057594974714 0.54463902268945019 1 0 0 forward_v I I I I #
loop $-1 $-1 $270 $64 #
coedge $-1 $165 $165 $166 $271 reversed $101 $-1 #
coedge $-1 $166 $166 $165 $271 forward $103 $-1 #
coedge $-1 $167 $167 $104 $168 forward $162 $-1 #
edge $-1 $272 -1.7167752891356101e-015 $272 6.2831853071795987 $167 $273 forward 7 unknown #
loop $-1 $-1 $174 $105 #
plane-surface $-1 -17.51054241327698 -2.464891581316266 46.584287131368477 0 0.83867057594974714 0.54463902268945019 1 0 0 forward_v I I I I #
loop $-1 $-1 $274 $67 #
coedge $-1 $172 $172 $173 $275 reversed $106 $-1 #
coedge $-1 $173 $173 $172 $275 forward $108 $-1 #
coedge $-1 $174 $174 $109 $175 forward $169 $-1 #
edge $-1 $276 -1.7167752891356101e-015 $276 6.2831853071795987 $174 $277 forward 7 unknown #
face $-1 $278 $279 $38 $-1 $280 reversed single #
loop $-1 $-1 $281 $110 #
plane-surface $-1 -5.5218013305445766 -88.310223363783393 54.876038934455096 1 0 0 0 0.75470958851134928 -0.65605901945558964 forward_v I I I I #
coedge $-1 $282 $283 $284 $285 reversed $111 $-1 #
coedge $-1 $181 $113 $286 $287 reversed $71 $-1 #
coedge $-1 $113 $180 $282 $288 reversed $71 $-1 #
coedge $-1 $284 $289 $113 $183 forward $290 $-1 #
edge $-1 $291 16.545954572155061 $292 19.679986954584376 $182 $293 forward 7 unknown #
loop $-1 $-1 $189 $114 #
plane-surface $-1 -1.171823477984816 -27.609157109736628 2.1094084149067953 0 -0.75470958851134928 0.65605901945558964 1 0 0 forward_v I I I I #
loop $-1 $-1 $294 $73 #
coedge $-1 $187 $187 $188 $295 reversed $115 $-1 #
coedge $-1 $188 $188 $187 $295 forward $117 $-1 #
coedge $-1 $189 $189 $118 $190 forward $184 $-1 #
edge $-1 $296 4.0831759830495707e-015 $296 6.2831853071796049 $189 $297 forward 7 unknown #
loop $-1 $-1 $196 $119 #
plane-surface $-1 -1.171823477984816 -27.609157109736628 2.1094084149067953 0 -0.75470958851134928 0.65605901945558964 1 0 0 forward_v I I I I #
loop $-1 $-1 $298 $76 #
coedge $-1 $194 $194 $195 $299 reversed $120 $-1 #
coedge $-1 $195 $195 $194 $299 forward $122 $-1 #
coedge $-1 $196 $196 $123 $197 forward $191 $-1 #
edge $-1 $300 4.0831759830495707e-015 $300 6.2831853071796049 $196 $301 forward 7 unknown #
face $-1 $302 $303 $41 $-1 $304 forward single #
loop $-1 $-1 $305 $124 #
plane-surface $-1 0 -27.609157109736636 0 0 1 0 0 0 1 forward_v I I I I #
coedge $-1 $306 $307 $308 $309 reversed $125 $-1 #
coedge $-1 $310 $127 $311 $312 reversed $80 $-1 #
coedge $-1 $127 $310 $306 $313 forward $80 $-1 #
coedge $-1 $308 $314 $127 $205 forward $303 $-1 #
edge $-1 $315 -22.282414079635398 $316 -13.582458374515877 $204 $317 forward 7 unknown #
loop $-1 $-1 $211 $128 #
plane-surface $-1 35.864872454151275 -27.609157109736628 2.1094084149067953 0 -0.75470958851134928 0.65605901945558964 1 0 0 forward_v I I I I #
loop $-1 $-1 $318 $82 #
coedge $-1 $209 $209 $210 $319 reversed $129 $-1 #
coedge $-1 $210 $210 $209 $319 forward $131 $-1 #
coedge $-1 $211 $211 $132 $212 forward $206 $-1 #
edge $-1 $320 4.0831759830495707e-015 $320 6.2831853071796049 $211 $321 forward 7 unknown #
loop $-1 $-1 $218 $133 #
plane-surface $-1 35.864872454151275 -27.609157109736628 2.1094084149067953 0 -0.75470958851134928 0.65605901945558964 1 0 0 forward_v I I I I #
loop $-1 $-1 $322 $85 #
coedge $-1 $216 $216 $217 $323 reversed $134 $-1 #
coedge $-1 $217 $217 $216 $323 forward $136 $-1 #
coedge $-1 $218 $218 $137 $219 forward $213 $-1 #
edge $-1 $324 4.0831759830495707e-015 $324 6.2831853071796049 $218 $325 forward 7 unknown #
face $-1 $326 $327 $33 $-1 $328 reversed single #
loop $-1 $-1 $329 $138 #
plane-surface $-1 -40.214850306711021 0 0 1 0 0 0 0 -1 forward_v I I I I #
coedge $-1 $330 $231 $331 $332 forward $139 $-1 #
coedge $-1 $333 $141 $330 $334 forward $89 $-1 #
coedge $-1 $141 $333 $335 $336 forward $89 $-1 #
coedge $-1 $234 $233 $141 $227 reversed $235 $-1 #
edge $-1 $337 -27.609157109736636 $338 27.609157109736636 $226 $339 forward 7 unknown #
coedge $-1 $143 $142 $340 $341 forward $56 $-1 #
coedge $-1 $342 $343 $142 $230 reversed $327 $-1 #
edge $-1 $237 -40.214850306711021 $344 40.214850306711021 $229 $345 forward 7 unknown #
coedge $-1 $223 $346 $143 $232 reversed $139 $-1 #
edge $-1 $347 -40.214850306711021 $236 40.214850306711021 $231 $348 forward 7 unknown #
coedge $-1 $226 $144 $346 $349 forward $235 $-1 #
coedge $-1 $144 $226 $342 $350 reversed $235 $-1 #
loop $-1 $-1 $233 $326 #
vertex $-1 $145 $351 #
vertex $-1 $145 $352 #
straight-curve $-1 40.214850306711021 0 5.7147003468540545 0 1 0 I I #
face $-1 $353 $354 $34 $-1 $355 forward single #
loop $-1 $-1 $356 $146 #
plane-surface $-1 -40.214850306711021 0 0 1 0 0 0 0 -1 forward_v I I I I #
coedge $-1 $249 $357 $251 $358 forward $147 $-1 #
coedge $-1 $149 $251 $359 $360 reversed $93 $-1 #
coedge $-1 $361 $247 $149 $245 forward $362 $-1 #
edge $-1 $253 0.60735017342702724 $363 3.6073501734270272 $244 $364 forward 7 unknown #
coedge $-1 $151 $150 $356 $365 reversed $59 $-1 #
coedge $-1 $244 $366 $150 $248 forward $362 $-1 #
edge $-1 $367 -21.696502340642983 $253 -15.340193591493094 $247 $368 forward 7 unknown #
coedge $-1 $369 $242 $151 $250 forward $147 $-1 #
edge $-1 $252 15.340193591493094 $370 21.696502340642983 $249 $371 forward 7 unknown #
coedge $-1 $243 $152 $242 $358 reversed $93 $-1 #
vertex $-1 $250 $372 #
vertex $-1 $248 $373 #
straight-curve $-1 -33.858541557561132 0 2.7147003468540545 0 -1 0 I I #
face $-1 $-1 $374 $35 $-1 $375 reversed single #
loop $-1 $-1 $160 $154 #
plane-surface $-1 0 0 5.7147003468540545 0 0 1 1 0 0 forward_v I I I I #
coedge $-1 $376 $377 $378 $379 reversed $155 $-1 #
coedge $-1 $380 $157 $159 $265 forward $97 $-1 #
coedge $-1 $157 $380 $376 $381 forward $97 $-1 #
coedge $-1 $378 $160 $157 $262 forward $256 $-1 #
edge $-1 $268 -14.630934418529201 $382 -2.8796079947477775 $261 $383 forward 7 unknown #
coedge $-1 $384 $385 $158 $264 forward $374 $-1 #
edge $-1 $386 -44.920408592385158 $267 -39.480019987479814 $263 $387 forward 7 unknown #
edge $-1 $268 48.731394610132739 $386 55.218314219473285 $159 $388 forward 7 unknown #
coedge $-1 $160 $378 $384 $389 forward $256 $-1 #
vertex $-1 $264 $390 #
vertex $-1 $161 $391 #
straight-curve $-1 -23.38620562516769 32.494565877804064 5.7147003468540518 0 -1 0 I I #
coedge $-1 $270 $270 $-1 $392 reversed $164 $-1 #
edge $-1 $393 0 $393 6.2831853071796004 $165 $394 forward 7 unknown #
vertex $-1 $168 $395 #
ellipse-curve $-1 -20.028683789801573 25.842642331588497 2.9945060444013838 0 0.83867057594974714 0.54463902268945019 1 0 0 1 I I #
coedge $-1 $274 $274 $-1 $396 reversed $171 $-1 #
edge $-1 $397 0 $397 6.2831853071796004 $172 $398 forward 7 unknown #
vertex $-1 $175 $399 #
ellipse-curve $-1 -14.992401036752391 25.842642331588497 2.9945060444013838 0 0.83867057594974714 0.54463902268945019 1 0 0 1 I I #
face $-1 $-1 $290 $38 $-1 $400 forward single #
loop $-1 $-1 $401 $176 #
plane-surface $-1 0 -27.609157109736636 0 0 1 0 0 0 1 forward_v I I I I #
coedge $-1 $402 $403 $404 $405 reversed $177 $-1 #
coedge $-1 $406 $179 $181 $288 forward $111 $-1 #
coedge $-1 $179 $406 $402 $407 forward $111 $-1 #
coedge $-1 $404 $182 $179 $285 forward $290 $-1 #
edge $-1 $292 -3.7640661135673525 $408 4.9358895915521686 $284 $409 forward 7 unknown #
coedge $-1 $410 $411 $180 $287 forward $279 $-1 #
edge $-1 $412 -25.32861105232076 $291 -21.723319120373493 $286 $413 forward 7 unknown #
edge $-1 $292 -4.7770586021818415 $412 1.0694430631949516e-014 $181 $414 forward 7 unknown #
coedge $-1 $182 $404 $410 $415 forward $290 $-1 #
loop $-1 $-1 $404 $278 #
vertex $-1 $287 $416 #
vertex $-1 $183 $417 #
straight-curve $-1 3.1781543745749445 -44.155111681891697 5.7147003468540554 0 1 0 I I #
coedge $-1 $294 $294 $-1 $418 reversed $186 $-1 #
edge $-1 $419 0 $419 6.2831853071796004 $187 $420 forward 7 unknown #
vertex $-1 $190 $421 #
ellipse-curve $-1 -3.0360997005104267 -26.042140918521977 3.9120543808804222 0 -0.75470958851134928 0.65605901945558964 0.25 0 0 1 I I #
coedge $-1 $298 $298 $-1 $422 reversed $193 $-1 #
edge $-1 $423 0 $423 6.2831853071796004 $194 $424 forward 7 unknown #
vertex $-1 $197 $425 #
ellipse-curve $-1 0.69245274454079464 -26.042140918521977 3.9120543808804222 0 -0.75470958851134928 0.65605901945558964 0.25 0 0 1 I I #
face $-1 $-1 $426 $41 $-1 $427 reversed single #
loop $-1 $-1 $308 $198 #
plane-surface $-1 0 0 5.7147003468540545 0 0 1 1 0 0 forward_v I I I I #
coedge $-1 $428 $429 $307 $430 forward $199 $-1 #
coedge $-1 $307 $201 $203 $313 reversed $125 $-1 #
coedge $-1 $201 $306 $305 $430 reversed $125 $-1 #
coedge $-1 $431 $204 $201 $309 forward $303 $-1 #
edge $-1 $316 -19.679986954584376 $432 -16.545954572155061 $308 $433 forward 7 unknown #
coedge $-1 $203 $202 $428 $434 reversed $80 $-1 #
coedge $-1 $435 $436 $202 $312 forward $426 $-1 #
edge $-1 $437 -8.2606228922962366 $315 -3.4835642901143853 $311 $438 forward 7 unknown #
edge $-1 $439 -1.0694430631949516e-014 $316 4.7770586021818415 $306 $440 forward 7 unknown #
coedge $-1 $204 $431 $435 $441 forward $303 $-1 #
vertex $-1 $312 $442 #
vertex $-1 $205 $443 #
straight-curve $-1 17.932436227075637 -24.475124727307318 5.7147003468540545 -1 0 0 I I #
coedge $-1 $318 $318 $-1 $444 reversed $208 $-1 #
edge $-1 $445 0 $445 6.2831853071796004 $209 $446 forward 7 unknown #
vertex $-1 $212 $447 #
ellipse-curve $-1 34.000596231625657 -26.042140918521977 3.9120543808804222 0 -0.75470958851134928 0.65605901945558964 0.25 0 0 1 I I #
coedge $-1 $322 $322 $-1 $448 reversed $215 $-1 #
edge $-1 $449 0 $449 6.2831853071796004 $216 $450 forward 7 unknown #
vertex $-1 $219 $451 #
ellipse-curve $-1 37.729148676676878 -26.042140918521977 3.9120543808804222 0 -0.75470958851134928 0.65605901945558964 0.25 0 0 1 I I #
face $-1 $-1 $235 $33 $-1 $452 reversed single #
loop $-1 $-1 $342 $220 #
plane-surface $-1 0 27.609157109736636 0 0 -1 0 0 0 -1 forward_v I I I I #
coedge $-1 $453 $340 $343 $454 forward $221 $-1 #
coedge $-1 $346 $223 $224 $334 reversed $139 $-1 #
coedge $-1 $340 $453 $223 $332 reversed $221 $-1 #
edge $-1 $347 -5.7147003468540545 $455 5.7147003468540545 $331 $456 forward 7 unknown #
coedge $-1 $225 $224 $453 $457 forward $89 $-1 #
edge $-1 $338 -40.214850306711021 $455 40.214850306711021 $330 $458 forward 7 unknown #
coedge $-1 $343 $342 $225 $336 reversed $327 $-1 #
edge $-1 $459 -40.214850306711021 $337 40.214850306711021 $335 $460 forward 7 unknown #
vertex $-1 $227 $461 #
vertex $-1 $349 $462 #
straight-curve $-1 40.214850306711021 0 -5.7147003468540545 0 -1 0 I I #
coedge $-1 $329 $331 $228 $341 reversed $221 $-1 #
edge $-1 $344 -27.609157109736636 $347 27.609157109736636 $340 $463 forward 7 unknown #
coedge $-1 $335 $229 $234 $350 forward $327 $-1 #
coedge $-1 $229 $335 $329 $454 reversed $327 $-1 #
vertex $-1 $230 $464 #
straight-curve $-1 0 27.609157109736636 5.7147003468540545 -1 0 0 I I #
coedge $-1 $231 $330 $233 $349 reversed $139 $-1 #
vertex $-1 $341 $465 #
straight-curve $-1 0 -27.609157109736636 5.7147003468540545 1 0 0 I I #
edge $-1 $236 -5.7147003468540545 $338 5.7147003468540545 $233 $466 forward 7 unknown #
edge $-1 $237 -5.7147003468540545 $337 5.7147003468540545 $234 $467 forward 7 unknown #
point $-1 40.214850306711021 -27.609157109736636 5.7147003468540545 #
point $-1 40.214850306711021 27.609157109736636 5.7147003468540545 #
face $-1 $-1 $362 $34 $-1 $468 reversed single #
loop $-1 $-1 $359 $239 #
plane-surface $-1 0 0 5.7147003468540545 0 0 1 1 0 0 forward_v I I I I #
coedge $-1 $469 $470 $246 $365 forward $240 $-1 #
coedge $-1 $242 $369 $471 $472 reversed $147 $-1 #
edge $-1 $473 -3.6073501734270272 $252 -0.60735017342702724 $242 $474 forward 7 unknown #
coedge $-1 $471 $475 $243 $360 forward $354 $-1 #
edge $-1 $363 -27.609157109736636 $473 27.609157109736636 $359 $476 forward 7 unknown #
coedge $-1 $366 $244 $475 $477 reversed $362 $-1 #
loop $-1 $-1 $244 $353 #
vertex $-1 $245 $478 #
straight-curve $-1 -33.858541557561132 -27.609157109736636 2.1073501734270272 0 0 1 I I #
edge $-1 $370 -27.609157109736636 $367 27.609157109736636 $356 $479 forward 7 unknown #
coedge $-1 $247 $361 $469 $480 forward $362 $-1 #
vertex $-1 $365 $481 #
straight-curve $-1 -18.518347966068038 -27.609157109736636 2.7147003468540545 1 0 0 I I #
coedge $-1 $357 $249 $470 $482 reversed $147 $-1 #
vertex $-1 $365 $483 #
straight-curve $-1 -18.518347966068038 27.609157109736636 2.7147003468540545 -1 0 0 I I #
point $-1 -33.858541557561132 27.609157109736636 2.7147003468540545 #
point $-1 -33.858541557561132 -27.609157109736636 2.7147003468540545 #
loop $-1 $-1 $263 $255 #
plane-surface $-1 0 27.609157109736636 0 0 -1 0 0 0 -1 forward_v I I I I #
coedge $-1 $377 $258 $260 $381 reversed $155 $-1 #
coedge $-1 $258 $376 $484 $485 reversed $155 $-1 #
coedge $-1 $266 $261 $258 $379 forward $256 $-1 #
edge $-1 $382 -8.4184383243636951 $486 -4.8854087680674283 $378 $487 forward 7 unknown #
coedge $-1 $260 $259 $385 $488 reversed $97 $-1 #
edge $-1 $489 -55.218314219473285 $382 -48.731394610132739 $376 $490 forward 7 unknown #
vertex $-1 $262 $491 #
straight-curve $-1 -8.7552712066384899 24.076127553440365 5.7147003468540589 1 0 0 I I #
coedge $-1 $484 $263 $266 $389 reversed $374 $-1 #
coedge $-1 $263 $484 $380 $488 forward $374 $-1 #
vertex $-1 $264 $492 #
straight-curve $-1 -23.38620562516769 27.609157109736636 45.194720334333866 0 0 1 I I #
straight-curve $-1 -23.38620562516769 -2.464891581316266 46.584287131368477 0 0.54463902268945019 -0.83867057594974714 I I #
edge $-1 $486 11.634879201386267 $267 23.38620562516769 $384 $493 forward 7 unknown #
point $-1 -23.38620562516769 27.609157109736636 5.7147003468540545 #
point $-1 -23.38620562516769 24.076127553440369 5.7147003468540518 #
edge $-1 $494 1 $494 0 $270 $-1 forward 7 unknown #
vertex $-1 $271 $495 #
ellipse-curve $-1 -20.028683789801573 23.469962468887694 1.4536697749127363 0 0.83867057594974714 0.54463902268945019 1 0 0 1 I I #
point $-1 -19.028683789801573 25.842642331588504 2.9945060444013905 #
edge $-1 $496 1 $496 0 $274 $-1 forward 7 unknown #
vertex $-1 $275 $497 #
ellipse-curve $-1 -14.992401036752391 23.469962468887694 1.4536697749127363 0 0.83867057594974714 0.54463902268945019 1 0 0 1 I I #
point $-1 -13.992401036752391 25.842642331588504 2.9945060444013905 #
plane-surface $-1 0 0 5.7147003468540545 0 0 1 1 0 0 forward_v I I I I #
coedge $-1 $411 $410 $403 $498 forward $279 $-1 #
coedge $-1 $403 $281 $283 $407 reversed $177 $-1 #
coedge $-1 $281 $402 $401 $498 reversed $177 $-1 #
coedge $-1 $289 $284 $281 $405 forward $290 $-1 #
edge $-1 $408 -19.679986954584376 $499 -16.545954572155061 $404 $500 forward 7 unknown #
coedge $-1 $283 $282 $411 $501 reversed $111 $-1 #
edge $-1 $502 -1.0694430631949516e-014 $408 4.7770586021818415 $402 $503 forward 7 unknown #
vertex $-1 $285 $504 #
straight-curve $-1 -0.585911738992408 -24.475124727307318 5.7147003468540545 -1 0 0 I I #
coedge $-1 $401 $286 $289 $415 reversed $279 $-1 #
coedge $-1 $286 $401 $406 $501 forward $279 $-1 #
vertex $-1 $287 $505 #
straight-curve $-1 3.1781543745749445 -27.609157109736636 27.438019467227548 0 0 1 I I #
straight-curve $-1 3.1781543745749445 -27.609157109736628 2.1094084149067953 0 -0.65605901945558964 -0.75470958851134928 I I #
edge $-1 $499 -5.5218013305445766 $291 3.1781543745749445 $410 $506 forward 7 unknown #
point $-1 3.1781543745749445 -27.609157109736636 5.7147003468540545 #
point $-1 3.1781543745749445 -24.475124727307321 5.7147003468540536 #
edge $-1 $507 1 $507 0 $294 $-1 forward 7 unknown #
vertex $-1 $295 $508 #
ellipse-curve $-1 -3.0360997005104267 -25.287431330010634 3.2559953614248371 0 -0.75470958851134928 0.65605901945558964 0.25 0 0 1 I I #
point $-1 -2.7860997005104267 -26.04214091852198 3.9120543808804267 #
edge $-1 $509 1 $509 0 $298 $-1 forward 7 unknown #
vertex $-1 $299 $510 #
ellipse-curve $-1 0.69245274454079464 -25.287431330010634 3.2559953614248371 0 -0.75470958851134928 0.65605901945558964 0.25 0 0 1 I I #
point $-1 0.94245274454079464 -26.04214091852198 3.9120543808804267 #
loop $-1 $-1 $311 $302 #
plane-surface $-1 40.214850306711021 0 0 -1 0 0 0 0 1 forward_v I I I I #
coedge $-1 $511 $305 $310 $434 forward $199 $-1 #
coedge $-1 $305 $511 $431 $512 reversed $199 $-1 #
edge $-1 $432 21.723319120373493 $439 25.32861105232076 $305 $513 forward 7 unknown #
coedge $-1 $314 $308 $429 $512 forward $303 $-1 #
vertex $-1 $512 $514 #
straight-curve $-1 31.514894601591514 -44.155111681891697 5.7147003468540554 0 -1 0 I I #
edge $-1 $439 13.582458374515877 $437 22.282414079635398 $428 $515 forward 7 unknown #
coedge $-1 $436 $311 $314 $441 reversed $426 $-1 #
coedge $-1 $311 $435 $511 $516 forward $426 $-1 #
vertex $-1 $434 $517 #
straight-curve $-1 40.214850306711021 -22.189700954924369 8.3437797187991105 0 0.65605901945558975 0.75470958851134939 I I #
vertex $-1 $434 $518 #
straight-curve $-1 31.514894601591514 -27.609157109736628 2.1094084149067953 0 0.65605901945558964 0.75470958851134928 I I #
edge $-1 $519 -27.609157109736636 $315 -24.475124727307321 $435 $520 forward 7 unknown #
point $-1 40.214850306711035 -24.475124727307321 5.7147003468540536 #
point $-1 31.514894601591514 -24.475124727307321 5.7147003468540536 #
edge $-1 $521 1 $521 0 $318 $-1 forward 7 unknown #
vertex $-1 $319 $522 #
ellipse-curve $-1 34.000596231625657 -25.287431330010634 3.2559953614248371 0 -0.75470958851134928 0.65605901945558964 0.25 0 0 1 I I #
point $-1 34.250596231625657 -26.04214091852198 3.9120543808804267 #
edge $-1 $523 1 $523 0 $322 $-1 forward 7 unknown #
vertex $-1 $323 $524 #
ellipse-curve $-1 37.729148676676878 -25.287431330010634 3.2559953614248371 0 -0.75470958851134928 0.65605901945558964 0.25 0 0 1 I I #
point $-1 37.979148676676878 -26.04214091852198 3.9120543808804267 #
plane-surface $-1 40.214850306711021 0 0 -1 0 0 0 0 1 forward_v I I I I #
coedge $-1 $331 $329 $333 $457 reversed $221 $-1 #
edge $-1 $344 -5.7147003468540545 $459 5.7147003468540545 $343 $525 forward 7 unknown #
vertex $-1 $457 $526 #
straight-curve $-1 -40.214850306711021 -27.609157109736636 0 0 0 -1 I I #
edge $-1 $455 -27.609157109736636 $459 27.609157109736636 $453 $527 forward 7 unknown #
straight-curve $-1 0 -27.609157109736636 -5.7147003468540545 -1 0 0 I I #
vertex $-1 $336 $528 #
straight-curve $-1 0 27.609157109736636 -5.7147003468540545 1 0 0 I I #
point $-1 40.214850306711021 27.609157109736636 -5.7147003468540545 #
point $-1 40.214850306711021 -27.609157109736636 -5.7147003468540545 #
straight-curve $-1 -40.214850306711021 0 5.7147003468540545 0 -1 0 I I #
point $-1 -40.214850306711021 27.609157109736636 5.7147003468540545 #
point $-1 -40.214850306711021 -27.609157109736636 5.7147003468540545 #
straight-curve $-1 40.214850306711021 -27.609157109736636 0 0 0 -1 I I #
straight-curve $-1 40.214850306711021 27.609157109736636 0 0 0 -1 I I #
plane-surface $-1 0 -27.609157109736636 0 0 1 0 0 0 1 forward_v I I I I #
coedge $-1 $529 $356 $366 $480 reversed $240 $-1 #
coedge $-1 $356 $529 $369 $482 forward $240 $-1 #
coedge $-1 $530 $359 $357 $472 forward $354 $-1 #
edge $-1 $473 33.858541557561132 $531 40.214850306711021 $357 $532 forward 7 unknown #
vertex $-1 $472 $533 #
straight-curve $-1 -33.858541557561132 27.609157109736636 2.1073501734270272 0 0 -1 I I #
coedge $-1 $359 $530 $361 $477 forward $354 $-1 #
straight-curve $-1 -33.858541557561132 0 5.7147003468540545 0 1 0 I I #
edge $-1 $534 -40.214850306711021 $363 -33.858541557561132 $361 $535 forward 7 unknown #
point $-1 -33.858541557561132 -27.609157109736636 5.7147003468540545 #
straight-curve $-1 -40.214850306711021 0 2.7147003468540545 0 -1 0 I I #
edge $-1 $534 -5.7147003468540545 $367 -2.7147003468540545 $469 $536 forward 7 unknown #
point $-1 -40.214850306711021 -27.609157109736636 2.7147003468540545 #
edge $-1 $531 -5.7147003468540545 $370 -2.7147003468540545 $369 $537 forward 7 unknown #
point $-1 -40.214850306711021 27.609157109736636 2.7147003468540545 #
coedge $-1 $385 $384 $377 $485 forward $374 $-1 #
edge $-1 $486 39.480019987479814 $489 44.920408592385158 $484 $538 forward 7 unknown #
vertex $-1 $389 $539 #
straight-curve $-1 -11.634879201386267 32.494565877804064 5.7147003468540518 0 1 0 I I #
edge $-1 $489 2.8796079947477775 $386 14.630934418529201 $385 $540 forward 7 unknown #
vertex $-1 $488 $541 #
straight-curve $-1 -11.634879201386267 -2.464891581316266 46.584287131368477 0 -0.54463902268945019 0.83867057594974714 I I #
point $-1 -11.634879201386267 24.076127553440369 5.7147003468540518 #
point $-1 -23.38620562516769 27.609157109736636 0.27431174194870778 #
straight-curve $-1 0 27.609157109736636 5.7147003468540545 -1 0 0 I I #
vertex $-1 $392 $542 #
point $-1 -19.028683789801573 23.469962468887694 1.4536697749127363 #
vertex $-1 $396 $543 #
point $-1 -13.992401036752391 23.469962468887694 1.4536697749127363 #
edge $-1 $499 21.723319120373493 $502 25.32861105232076 $401 $544 forward 7 unknown #
vertex $-1 $415 $545 #
straight-curve $-1 -5.5218013305445766 -44.155111681891697 5.7147003468540554 0 -1 0 I I #
edge $-1 $502 -4.9358895915521686 $412 3.7640661135673525 $411 $546 forward 7 unknown #
vertex $-1 $501 $547 #
straight-curve $-1 -5.5218013305445766 -27.609157109736628 2.1094084149067953 0 0.65605901945558964 0.75470958851134928 I I #
point $-1 -5.5218013305445766 -24.475124727307321 5.7147003468540536 #
point $-1 3.1781543745749445 -27.609157109736636 2.1094084149067873 #
straight-curve $-1 0 -27.609157109736636 5.7147003468540545 1 0 0 I I #
vertex $-1 $418 $548 #
point $-1 -2.7860997005104267 -25.287431330010634 3.2559953614248371 #
vertex $-1 $422 $549 #
point $-1 0.94245274454079464 -25.287431330010634 3.2559953614248371 #
coedge $-1 $429 $428 $436 $516 reversed $199 $-1 #
edge $-1 $432 31.514894601591514 $519 40.214850306711021 $429 $550 forward 7 unknown #
straight-curve $-1 31.514894601591514 -27.609157109736636 27.438019467227548 0 0 -1 I I #
point $-1 31.514894601591514 -27.609157109736636 5.7147003468540545 #
straight-curve $-1 17.932436227075637 -27.609157109736636 2.1094084149067864 1 0 0 I I #
edge $-1 $519 -5.7147003468540545 $437 -2.1094084149067873 $436 $551 forward 7 unknown #
point $-1 40.214850306711035 -27.609157109736636 2.1094084149067873 #
point $-1 31.514894601591514 -27.609157109736636 2.1094084149067873 #
vertex $-1 $441 $552 #
straight-curve $-1 40.214850306711021 0 5.7147003468540545 0 1 0 I I #
vertex $-1 $444 $553 #
point $-1 34.250596231625657 -25.287431330010634 3.2559953614248371 #
vertex $-1 $448 $554 #
point $-1 37.979148676676878 -25.287431330010634 3.2559953614248371 #
straight-curve $-1 -40.214850306711021 27.609157109736636 0 0 0 -1 I I #
point $-1 -40.214850306711021 -27.609157109736636 -5.7147003468540545 #
straight-curve $-1 -40.214850306711021 0 -5.7147003468540545 0 1 0 I I #
point $-1 -40.214850306711021 27.609157109736636 -5.7147003468540545 #
coedge $-1 $470 $469 $530 $555 reversed $240 $-1 #
coedge $-1 $475 $471 $529 $555 forward $354 $-1 #
vertex $-1 $472 $556 #
straight-curve $-1 0 27.609157109736636 5.7147003468540545 -1 0 0 I I #
point $-1 -33.858541557561132 27.609157109736636 5.7147003468540545 #
vertex $-1 $555 $557 #
straight-curve $-1 0 -27.609157109736636 5.7147003468540545 1 0 0 I I #
straight-curve $-1 -40.214850306711021 -27.609157109736636 0 0 0 -1 I I #
straight-curve $-1 -40.214850306711021 27.609157109736636 0 0 0 -1 I I #
straight-curve $-1 -11.634879201386267 27.609157109736636 45.194720334333866 0 0 -1 I I #
point $-1 -11.634879201386267 27.609157109736636 5.7147003468540545 #
straight-curve $-1 -8.7552712066384899 27.609157109736636 0.27431174194870422 -1 0 0 I I #
point $-1 -11.634879201386267 27.609157109736636 0.27431174194870778 #
point $-1 -20.028683789801573 22.631291892937945 0.909030752223286 #
point $-1 -14.992401036752391 22.631291892937945 0.909030752223286 #
straight-curve $-1 -5.5218013305445766 -27.609157109736636 27.438019467227548 0 0 -1 I I #
point $-1 -5.5218013305445766 -27.609157109736636 5.7147003468540545 #
straight-curve $-1 -0.585911738992408 -27.609157109736636 2.1094084149067864 1 0 0 I I #
point $-1 -5.5218013305445766 -27.609157109736636 2.1094084149067873 #
point $-1 -3.0360997005104267 -25.098753932882794 3.0919806065609396 #
point $-1 0.69245274454079464 -25.098753932882794 3.0919806065609396 #
straight-curve $-1 0 -27.609157109736636 5.7147003468540545 1 0 0 I I #
straight-curve $-1 40.214850306711021 -27.609157109736636 0 0 0 -1 I I #
point $-1 40.214850306711021 -27.609157109736636 5.7147003468540545 #
point $-1 34.000596231625657 -25.098753932882794 3.0919806065609396 #
point $-1 37.729148676676878 -25.098753932882794 3.0919806065609396 #
edge $-1 $531 -27.609157109736636 $534 27.609157109736636 $529 $558 forward 7 unknown #
point $-1 -40.214850306711021 27.609157109736636 5.7147003468540545 #
point $-1 -40.214850306711021 -27.609157109736636 5.7147003468540545 #
straight-curve $-1 -40.214850306711021 0 5.7147003468540545 0 -1 0 I I #
End-of-ACIS-data 