500 0 3 0           
7 Unknown 11 ACIS 5.0 NT 24 Thu Mar 25 18:56:19 1999 
-1 9.9999999999999995e-007 1e-010 
body $-1 $3 $-1 $4 #
body $-1 $5 $-1 $6 #
body $-1 $7 $-1 $8 #
lump $-1 $-1 $9 $0 #
transform $-1 1 0 0 0 1 0 0 0 1 64.26831873531296 26.795889672478367 10.803076904486471 1 rotate no_reflect no_shear #
lump $-1 $-1 $10 $1 #
transform $-1 1 0 0 0 1 0 0 0 1 64.26831873531296 26.795889672478367 10.803076904486471 1 rotate no_reflect no_shear #
lump $-1 $-1 $11 $2 #
transform $-1 1 0 0 0 1 0 0 0 1 64.26831873531296 26.795889672478367 10.803076904486471 1 rotate no_reflect no_shear #
shell $-1 $-1 $-1 $12 $-1 $3 #
shell $-1 $-1 $-1 $13 $-1 $5 #
shell $-1 $-1 $-1 $14 $-1 $7 #
face $-1 $15 $16 $9 $-1 $17 forward single #
face $-1 $18 $19 $10 $-1 $20 forward single #
face $-1 $21 $22 $11 $-1 $23 forward single #
face $-1 $24 $25 $9 $-1 $26 reversed single #
loop $-1 $-1 $27 $12 #
plane-surface $-1 0 0 10.803076904486471 0 0 1 1 0 0 forward_v I I I I #
face $-1 $28 $29 $10 $-1 $30 forward single #
loop $-1 $-1 $31 $13 #
plane-surface $-1 0 -26.795889672478367 0 0 1 0 0 0 1 forward_v I I I I #
face $-1 $32 $33 $11 $-1 $34 reversed single #
loop $-1 $-1 $35 $14 #
plane-surface $-1 0 21.510545207888811 -5.9371260382699775 0 0 1 1 0 0 forward_v I I I I #
face $-1 $36 $37 $9 $-1 $38 reversed single #
loop $-1 $-1 $39 $15 #
plane-surface $-1 0 0 -10.803076904486471 0 0 1 1 0 0 forward_v I I I I #
coedge $-1 $40 $41 $42 $43 forward $16 $-1 #
face $-1 $44 $45 $10 $-1 $46 reversed single #
loop $-1 $-1 $47 $18 #
plane-surface $-1 0 0 10.803076904486471 0 0 1 1 0 0 forward_v I I I I #
coedge $-1 $48 $49 $50 $51 forward $19 $-1 #
face $-1 $52 $53 $11 $-1 $54 reversed single #
loop $-1 $-1 $55 $21 #
plane-surface $-1 0 16.225200743299254 -8.3701014713782236 0 1 0 0 0 1 forward_v I I I I #
coedge $-1 $56 $57 $58 $59 reversed $22 $-1 #
face $-1 $60 $61 $9 $-1 $62 reversed single #
loop $-1 $-1 $63 $24 #
plane-surface $-1 0 -26.795889672478367 0 0 1 0 0 0 1 forward_v I I I I #
coedge $-1 $64 $65 $66 $67 forward $25 $-1 #
coedge $-1 $68 $27 $69 $70 forward $16 $-1 #
coedge $-1 $27 $68 $71 $72 forward $16 $-1 #
coedge $-1 $73 $74 $27 $43 reversed $75 $-1 #
edge $-1 $76 -26.795889672478367 $77 26.795889672478367 $42 $78 forward 7 unknown #
face $-1 $79 $80 $10 $-1 $81 reversed single #
loop $-1 $-1 $82 $28 #
plane-surface $-1 -64.26831873531296 0 0 1 0 0 0 0 -1 forward_v I I I I #
coedge $-1 $83 $84 $85 $86 forward $29 $-1 #
coedge $-1 $85 $31 $82 $87 reversed $19 $-1 #
coedge $-1 $31 $85 $88 $89 reversed $19 $-1 #
coedge $-1 $90 $91 $31 $51 reversed $80 $-1 #
edge $-1 $92 -64.26831873531296 $93 64.26831873531296 $50 $94 forward 7 unknown #
face $-1 $95 $96 $11 $-1 $97 reversed single #
loop $-1 $-1 $58 $32 #
plane-surface $-1 64.26831873531296 0 0 -1 0 0 0 0 1 forward_v I I I I #
coedge $-1 $98 $99 $100 $101 reversed $33 $-1 #
coedge $-1 $102 $35 $103 $104 reversed $22 $-1 #
coedge $-1 $35 $102 $99 $105 forward $22 $-1 #
coedge $-1 $106 $107 $35 $59 forward $53 $-1 #
edge $-1 $108 -16.040617068533962 $109 -5.4699281393548489 $58 $110 forward 7 unknown #
face $-1 $111 $112 $9 $-1 $113 reversed single #
loop $-1 $-1 $114 $36 #
plane-surface $-1 -64.26831873531296 0 0 1 0 0 0 0 -1 forward_v I I I I #
coedge $-1 $115 $71 $116 $117 forward $37 $-1 #
coedge $-1 $118 $39 $115 $119 forward $25 $-1 #
coedge $-1 $39 $118 $120 $121 forward $25 $-1 #
coedge $-1 $74 $73 $39 $67 reversed $75 $-1 #
edge $-1 $122 -26.795889672478367 $123 26.795889672478367 $66 $124 forward 7 unknown #
coedge $-1 $41 $40 $125 $126 forward $16 $-1 #
coedge $-1 $127 $128 $40 $70 reversed $112 $-1 #
edge $-1 $77 -64.26831873531296 $129 64.26831873531296 $69 $130 forward 7 unknown #
coedge $-1 $63 $131 $41 $72 reversed $37 $-1 #
edge $-1 $132 -64.26831873531296 $76 64.26831873531296 $71 $133 forward 7 unknown #
coedge $-1 $66 $42 $131 $134 forward $75 $-1 #
coedge $-1 $42 $66 $127 $135 reversed $75 $-1 #
loop $-1 $-1 $73 $111 #
vertex $-1 $43 $136 #
vertex $-1 $43 $137 #
straight-curve $-1 64.26831873531296 0 10.803076904486471 0 1 0 I I #
face $-1 $138 $139 $10 $-1 $140 reversed single #
loop $-1 $-1 $90 $44 #
plane-surface $-1 0 -33.083381317193783 4.85810415366036 0 0 1 1 0 0 forward_v I I I I #
coedge $-1 $141 $142 $48 $87 forward $45 $-1 #
coedge $-1 $143 $47 $142 $144 forward $29 $-1 #
coedge $-1 $47 $143 $145 $146 forward $29 $-1 #
coedge $-1 $49 $48 $47 $86 reversed $19 $-1 #
edge $-1 $147 -64.26831873531296 $148 64.26831873531296 $47 $149 forward 7 unknown #
edge $-1 $148 -10.803076904486471 $93 -4.85810415366036 $82 $150 forward 7 unknown #
coedge $-1 $145 $151 $49 $89 forward $152 $-1 #
edge $-1 $92 4.85810415366036 $147 10.803076904486471 $88 $153 forward 7 unknown #
coedge $-1 $154 $50 $151 $155 forward $80 $-1 #
coedge $-1 $50 $154 $141 $156 forward $80 $-1 #
vertex $-1 $89 $157 #
vertex $-1 $87 $158 #
straight-curve $-1 0 -26.795889672478367 4.85810415366036 -1 0 0 I I #
face $-1 $159 $160 $11 $-1 $161 reversed single #
loop $-1 $-1 $162 $52 #
plane-surface $-1 0 0 -10.803076904486471 0 0 1 1 0 0 forward_v I I I I #
coedge $-1 $163 $55 $162 $164 reversed $33 $-1 #
coedge $-1 $55 $163 $57 $105 reversed $33 $-1 #
coedge $-1 $165 $166 $55 $101 forward $160 $-1 #
edge $-1 $167 -6.6180261687973587 $168 -1.7520753025808657 $100 $169 forward 7 unknown #
coedge $-1 $57 $56 $165 $170 reversed $22 $-1 #
coedge $-1 $171 $172 $56 $104 forward $173 $-1 #
edge $-1 $174 -64.26831873531296 $108 64.26831873531296 $103 $175 forward 7 unknown #
edge $-1 $168 -64.26831873531296 $109 64.26831873531296 $99 $176 forward 7 unknown #
coedge $-1 $177 $58 $163 $178 forward $53 $-1 #
coedge $-1 $58 $177 $171 $179 reversed $53 $-1 #
vertex $-1 $179 $180 #
vertex $-1 $59 $181 #
straight-curve $-1 64.26831873531296 10.755272603944405 -5.9371260382699775 0 -1 0 I I #
face $-1 $-1 $75 $9 $-1 $182 reversed single #
loop $-1 $-1 $127 $60 #
plane-surface $-1 0 26.795889672478367 0 0 -1 0 0 0 -1 forward_v I I I I #
coedge $-1 $183 $125 $128 $184 forward $61 $-1 #
coedge $-1 $131 $63 $64 $119 reversed $37 $-1 #
coedge $-1 $125 $183 $63 $117 reversed $61 $-1 #
edge $-1 $132 -10.803076904486471 $185 10.803076904486471 $116 $186 forward 7 unknown #
coedge $-1 $65 $64 $183 $187 forward $25 $-1 #
edge $-1 $123 -64.26831873531296 $185 64.26831873531296 $115 $188 forward 7 unknown #
coedge $-1 $128 $127 $65 $121 reversed $112 $-1 #
edge $-1 $189 -64.26831873531296 $122 64.26831873531296 $120 $190 forward 7 unknown #
vertex $-1 $67 $191 #
vertex $-1 $134 $192 #
straight-curve $-1 64.26831873531296 0 -10.803076904486471 0 -1 0 I I #
coedge $-1 $114 $116 $68 $126 reversed $61 $-1 #
edge $-1 $129 -26.795889672478367 $132 26.795889672478367 $125 $193 forward 7 unknown #
coedge $-1 $120 $69 $74 $135 forward $112 $-1 #
coedge $-1 $69 $120 $114 $184 reversed $112 $-1 #
vertex $-1 $70 $194 #
straight-curve $-1 0 26.795889672478367 10.803076904486471 -1 0 0 I I #
coedge $-1 $71 $115 $73 $134 reversed $37 $-1 #
vertex $-1 $126 $195 #
straight-curve $-1 0 -26.795889672478367 10.803076904486471 1 0 0 I I #
edge $-1 $76 -10.803076904486471 $123 10.803076904486471 $73 $196 forward 7 unknown #
edge $-1 $77 -10.803076904486471 $122 10.803076904486471 $74 $197 forward 7 unknown #
point $-1 64.26831873531296 -26.795889672478367 10.803076904486471 #
point $-1 64.26831873531296 26.795889672478367 10.803076904486471 #
face $-1 $-1 $152 $10 $-1 $198 reversed single #
loop $-1 $-1 $199 $79 #
plane-surface $-1 0 -39.3708729619092 7.8305905290734152 0 1 0 0 0 1 forward_v I I I I #
coedge $-1 $200 $82 $91 $156 reversed $45 $-1 #
coedge $-1 $82 $200 $83 $144 reversed $45 $-1 #
coedge $-1 $84 $83 $201 $202 forward $29 $-1 #
edge $-1 $148 26.795889672478367 $203 39.3708729619092 $142 $204 forward 7 unknown #
coedge $-1 $205 $88 $84 $146 reversed $152 $-1 #
edge $-1 $206 -39.3708729619092 $147 -26.795889672478367 $145 $207 forward 7 unknown #
vertex $-1 $89 $208 #
vertex $-1 $144 $209 #
straight-curve $-1 0 -26.795889672478367 10.803076904486471 -1 0 0 I I #
straight-curve $-1 -64.26831873531296 -26.795889672478367 0 0 0 -1 I I #
coedge $-1 $88 $205 $90 $155 reversed $152 $-1 #
loop $-1 $-1 $88 $138 #
straight-curve $-1 64.26831873531296 -26.795889672478367 0 0 0 1 I I #
coedge $-1 $91 $90 $210 $211 forward $80 $-1 #
edge $-1 $92 -6.2874916447154163 $212 6.2874916447154163 $151 $213 forward 7 unknown #
edge $-1 $214 -6.2874916447154163 $93 6.2874916447154163 $141 $215 forward 7 unknown #
point $-1 64.26831873531296 -26.795889672478367 4.85810415366036 #
point $-1 -64.26831873531296 -26.795889672478367 4.85810415366036 #
face $-1 $-1 $173 $11 $-1 $216 reversed single #
loop $-1 $-1 $165 $95 #
plane-surface $-1 -64.26831873531296 0 0 1 0 0 0 0 -1 forward_v I I I I #
coedge $-1 $217 $218 $98 $164 forward $96 $-1 #
coedge $-1 $99 $98 $106 $178 reversed $33 $-1 #
edge $-1 $219 -64.26831873531296 $167 64.26831873531296 $162 $220 forward 7 unknown #
coedge $-1 $221 $100 $102 $170 forward $160 $-1 #
coedge $-1 $100 $221 $217 $222 reversed $160 $-1 #
vertex $-1 $222 $223 #
vertex $-1 $170 $224 #
straight-curve $-1 -64.26831873531296 16.225200743299254 -4.1850507356891118 0 0 1 I I #
edge $-1 $168 5.4699281393548489 $174 16.040617068533962 $165 $225 forward 7 unknown #
coedge $-1 $226 $103 $107 $179 forward $173 $-1 #
coedge $-1 $103 $226 $221 $227 reversed $173 $-1 #
loop $-1 $-1 $103 $159 #
vertex $-1 $227 $228 #
straight-curve $-1 0 26.795889672478367 -5.9371260382699775 1 0 0 I I #
straight-curve $-1 0 16.225200743299254 -5.9371260382699775 1 0 0 I I #
coedge $-1 $107 $106 $218 $229 reversed $53 $-1 #
edge $-1 $109 1.7520753025808657 $219 6.6180261687973587 $106 $230 forward 7 unknown #
edge $-1 $108 5.9371260382699775 $231 10.803076904486471 $107 $232 forward 7 unknown #
point $-1 64.26831873531296 26.795889672478367 -5.9371260382699775 #
point $-1 64.26831873531296 16.225200743299254 -5.9371260382699775 #
plane-surface $-1 64.26831873531296 0 0 -1 0 0 0 0 1 forward_v I I I I #
coedge $-1 $116 $114 $118 $187 reversed $61 $-1 #
edge $-1 $129 -10.803076904486471 $189 10.803076904486471 $128 $233 forward 7 unknown #
vertex $-1 $187 $234 #
straight-curve $-1 -64.26831873531296 -26.795889672478367 0 0 0 -1 I I #
edge $-1 $185 -26.795889672478367 $189 26.795889672478367 $183 $235 forward 7 unknown #
straight-curve $-1 0 -26.795889672478367 -10.803076904486471 -1 0 0 I I #
vertex $-1 $121 $236 #
straight-curve $-1 0 26.795889672478367 -10.803076904486471 1 0 0 I I #
point $-1 64.26831873531296 26.795889672478367 -10.803076904486471 #
point $-1 64.26831873531296 -26.795889672478367 -10.803076904486471 #
straight-curve $-1 -64.26831873531296 0 10.803076904486471 0 -1 0 I I #
point $-1 -64.26831873531296 26.795889672478367 10.803076904486471 #
point $-1 -64.26831873531296 -26.795889672478367 10.803076904486471 #
straight-curve $-1 64.26831873531296 -26.795889672478367 0 0 0 -1 I I #
straight-curve $-1 64.26831873531296 26.795889672478367 0 0 0 -1 I I #
plane-surface $-1 64.26831873531296 0 0 -1 0 0 0 0 1 forward_v I I I I #
coedge $-1 $210 $201 $200 $237 forward $139 $-1 #
coedge $-1 $142 $141 $199 $237 reversed $45 $-1 #
coedge $-1 $199 $238 $143 $202 reversed $139 $-1 #
edge $-1 $203 -64.26831873531296 $206 64.26831873531296 $201 $239 forward 7 unknown #
vertex $-1 $144 $240 #
straight-curve $-1 -64.26831873531296 0 10.803076904486471 0 -1 0 I I #
coedge $-1 $151 $145 $238 $241 forward $152 $-1 #
vertex $-1 $146 $242 #
straight-curve $-1 64.26831873531296 0 10.803076904486471 0 1 0 I I #
point $-1 64.26831873531296 -26.795889672478367 10.803076904486471 #
point $-1 -64.26831873531296 -26.795889672478367 10.803076904486471 #
coedge $-1 $238 $199 $154 $211 reversed $139 $-1 #
edge $-1 $212 -64.26831873531296 $214 64.26831873531296 $210 $243 forward 7 unknown #
vertex $-1 $241 $244 #
straight-curve $-1 64.26831873531296 -33.083381317193783 4.85810415366036 0 -1 0 I I #
vertex $-1 $156 $245 #
straight-curve $-1 -64.26831873531296 -33.083381317193783 4.85810415366036 0 1 0 I I #
plane-surface $-1 0 26.795889672478367 0 0 -1 0 0 0 -1 forward_v I I I I #
coedge $-1 $246 $162 $166 $222 forward $96 $-1 #
coedge $-1 $162 $246 $177 $229 forward $96 $-1 #
vertex $-1 $164 $247 #
straight-curve $-1 0 16.225200743299254 -10.803076904486471 -1 0 0 I I #
coedge $-1 $166 $165 $172 $227 forward $160 $-1 #
edge $-1 $167 16.225200743299254 $248 26.795889672478367 $166 $249 forward 7 unknown #
point $-1 -64.26831873531296 16.225200743299254 -10.803076904486471 #
point $-1 -64.26831873531296 16.225200743299254 -5.9371260382699775 #
straight-curve $-1 -64.26831873531296 10.755272603944405 -5.9371260382699775 0 1 0 I I #
coedge $-1 $172 $171 $246 $250 reversed $173 $-1 #
edge $-1 $174 5.9371260382699775 $248 10.803076904486471 $172 $251 forward 7 unknown #
point $-1 -64.26831873531296 26.795889672478367 -5.9371260382699775 #
edge $-1 $231 -26.795889672478367 $219 -16.225200743299254 $177 $252 forward 7 unknown #
straight-curve $-1 64.26831873531296 16.225200743299254 -4.1850507356891118 0 0 -1 I I #
vertex $-1 $229 $253 #
straight-curve $-1 64.26831873531296 26.795889672478367 0 0 0 -1 I I #
straight-curve $-1 -64.26831873531296 26.795889672478367 0 0 0 -1 I I #
point $-1 -64.26831873531296 -26.795889672478367 -10.803076904486471 #
straight-curve $-1 -64.26831873531296 0 -10.803076904486471 0 1 0 I I #
point $-1 -64.26831873531296 26.795889672478367 -10.803076904486471 #
edge $-1 $203 -2.9724863754130553 $214 2.9724863754130553 $200 $254 forward 7 unknown #
coedge $-1 $201 $210 $205 $241 reversed $139 $-1 #
straight-curve $-1 0 -39.3708729619092 10.803076904486471 1 0 0 I I #
point $-1 -64.26831873531296 -39.3708729619092 10.803076904486471 #
edge $-1 $206 -2.9724863754130553 $212 2.9724863754130553 $205 $255 forward 7 unknown #
point $-1 64.26831873531296 -39.3708729619092 10.803076904486471 #
straight-curve $-1 0 -39.3708729619092 4.85810415366036 -1 0 0 I I #
point $-1 64.26831873531296 -39.3708729619092 4.85810415366036 #
point $-1 -64.26831873531296 -39.3708729619092 4.85810415366036 #
coedge $-1 $218 $217 $226 $250 forward $96 $-1 #
point $-1 64.26831873531296 16.225200743299254 -10.803076904486471 #
vertex $-1 $250 $256 #
straight-curve $-1 -64.26831873531296 0 -10.803076904486471 0 1 0 I I #
edge $-1 $248 -64.26831873531296 $231 64.26831873531296 $226 $257 forward 7 unknown #
straight-curve $-1 -64.26831873531296 26.795889672478367 0 0 0 -1 I I #
straight-curve $-1 64.26831873531296 0 -10.803076904486471 0 -1 0 I I #
point $-1 64.26831873531296 26.795889672478367 -10.803076904486471 #
straight-curve $-1 -64.26831873531296 -39.3708729619092 7.8305905290734152 0 0 -1 I I #
straight-curve $-1 64.26831873531296 -39.3708729619092 7.8305905290734152 0 0 -1 I I #
point $-1 -64.26831873531296 26.795889672478367 -10.803076904486471 #
straight-curve $-1 0 26.795889672478367 -10.803076904486471 1 0 0 I I #
End-of-ACIS-data 