500 0 8 0           
7 Unknown 11 ACIS 5.0 NT 24 Thu Mar 25 16:33:52 1999 
-1 9.9999999999999995e-007 1e-010 
body $-1 $8 $-1 $9 #
body $-1 $10 $-1 $11 #
body $-1 $12 $-1 $13 #
body $-1 $14 $-1 $15 #
body $-1 $16 $-1 $17 #
body $-1 $18 $-1 $19 #
body $-1 $20 $-1 $21 #
body $-1 $22 $-1 $23 #
lump $-1 $-1 $24 $0 #
transform $-1 1 0 0 0 1 0 0 0 1 47.375713370159005 30.24862741660117 10.334032250508139 1 rotate no_reflect no_shear #
lump $-1 $-1 $25 $1 #
transform $-1 1 0 0 0 1 0 0 0 1 47.375713370159005 30.24862741660117 10.334032250508139 1 rotate no_reflect no_shear #
lump $-1 $-1 $26 $2 #
transform $-1 1 0 0 0 1 0 0 0 1 47.375713370159005 30.24862741660117 10.334032250508139 1 rotate no_reflect no_shear #
lump $-1 $-1 $27 $3 #
transform $-1 1 0 0 0 1 0 0 0 1 47.375713370159005 30.24862741660117 10.334032250508139 1 rotate no_reflect no_shear #
lump $-1 $-1 $28 $4 #
transform $-1 1 0 0 0 1 0 0 0 1 47.375713370159005 30.24862741660117 10.334032250508139 1 rotate no_reflect no_shear #
lump $-1 $-1 $29 $5 #
transform $-1 1 0 0 0 1 0 0 0 1 47.375713370159005 30.24862741660117 10.334032250508139 1 rotate no_reflect no_shear #
lump $-1 $-1 $30 $6 #
transform $-1 1 0 0 0 1 0 0 0 1 47.375713370159005 30.24862741660117 10.334032250508139 1 rotate no_reflect no_shear #
lump $-1 $-1 $31 $7 #
transform $-1 1 0 0 0 1 0 0 0 1 47.375713370159005 30.24862741660117 10.334032250508139 1 rotate no_reflect no_shear #
shell $-1 $-1 $-1 $32 $-1 $8 #
shell $-1 $-1 $-1 $33 $-1 $10 #
shell $-1 $-1 $-1 $34 $-1 $12 #
shell $-1 $-1 $-1 $35 $-1 $14 #
shell $-1 $-1 $-1 $36 $-1 $16 #
shell $-1 $-1 $-1 $37 $-1 $18 #
shell $-1 $-1 $-1 $38 $-1 $20 #
shell $-1 $-1 $-1 $39 $-1 $22 #
face $-1 $40 $41 $24 $-1 $42 forward single #
face $-1 $43 $44 $25 $-1 $45 forward single #
face $-1 $46 $47 $26 $-1 $48 reversed single #
face $-1 $49 $50 $27 $-1 $51 forward single #
face $-1 $52 $53 $28 $-1 $54 forward single #
face $-1 $55 $56 $29 $-1 $57 reversed single #
face $-1 $58 $59 $30 $-1 $60 forward single #
face $-1 $61 $62 $31 $-1 $63 forward single #
face $-1 $64 $65 $24 $-1 $66 reversed single #
loop $-1 $-1 $67 $32 #
plane-surface $-1 0 0 10.334032250508139 0 0 1 1 0 0 forward_v I I I I #
face $-1 $68 $69 $25 $-1 $70 reversed single #
loop $-1 $-1 $71 $33 #
plane-surface $-1 0 -30.24862741660117 0 0 1 0 0 0 1 forward_v I I I I #
face $-1 $72 $73 $26 $-1 $74 reversed single #
loop $-1 $-1 $75 $34 #
plane-surface $-1 82.057144604270761 8.9949388552763203 136.30491550171479 0 -1 0 -0.86602541151947299 0 -0.49999998660252726 forward_v I I I I #
face $-1 $76 $77 $27 $-1 $78 forward single #
loop $-1 $79 $80 $35 #
cone-surface $-1 45.543465505541796 2.6468287079296395 8.1221927210931817 -0.86602541151947299 0 -0.49999998660252726 0.24999999330126363 0 -0.43301270575973649 1 I I 0 1 0.5 forward I I I I #
face $-1 $81 $82 $28 $-1 $83 forward single #
loop $-1 $84 $85 $36 #
cone-surface $-1 45.543465505541796 6.4556947963376494 8.1221927210931817 -0.86602541151947299 0 -0.49999998660252726 0.24999999330126363 0 -0.43301270575973649 1 I I 0 1 0.5 forward I I I I #
face $-1 $86 $87 $29 $-1 $88 reversed single #
loop $-1 $-1 $89 $37 #
plane-surface $-1 -129.43285670500012 0.10758464899096865 54.247772166873681 0 1 0 -0.86602541151947299 0 0.49999998660252726 forward_v I I I I #
face $-1 $90 $91 $30 $-1 $92 forward single #
loop $-1 $93 $94 $38 #
cone-surface $-1 -45.543465505541789 2.6468287079296395 8.1221927210931817 0.86602541151947299 0 -0.49999998660252726 0.24999999330126363 0 0.43301270575973649 1 I I 0 1 0.5 forward I I I I #
face $-1 $95 $96 $31 $-1 $97 forward single #
loop $-1 $98 $99 $39 #
cone-surface $-1 -45.543465505541789 6.4556947963376494 8.1221927210931817 0.86602541151947299 0 -0.49999998660252726 0.24999999330126363 0 0.43301270575973649 1 I I 0 1 0.5 forward I I I I #
face $-1 $100 $101 $24 $-1 $102 reversed single #
loop $-1 $-1 $103 $40 #
plane-surface $-1 0 0 -10.334032250508139 0 0 1 1 0 0 forward_v I I I I #
coedge $-1 $104 $105 $106 $107 forward $41 $-1 #
face $-1 $108 $109 $25 $-1 $110 forward single #
loop $-1 $-1 $111 $43 #
plane-surface $-1 -47.375713370159005 0 0 1 0 0 0 0 -1 forward_v I I I I #
coedge $-1 $112 $113 $114 $115 forward $44 $-1 #
face $-1 $116 $117 $26 $-1 $118 reversed single #
loop $-1 $-1 $119 $46 #
plane-surface $-1 1.2694296600557209e-006 4.5512617521336445 88.929203400985443 0.86602541151947299 0 0.49999998660252726 0.49999998660252726 0 -0.86602541151947299 forward_v I I I I #
coedge $-1 $120 $121 $122 $123 reversed $47 $-1 #
face $-1 $-1 $124 $27 $-1 $125 forward single #
loop $-1 $126 $127 $49 #
cone-surface $-1 44.494096538624802 2.6468287079296395 7.5163392872094956 -0.86602541151947299 0 -0.49999998660252726 0.12499999665063181 0 -0.21650635287986825 1 I I -0.70710678118654746 0.70710678118654746 0.25 forward I I I I #
loop $-1 $-1 $128 $35 #
coedge $-1 $80 $80 $129 $130 reversed $50 $-1 #
face $-1 $-1 $131 $28 $-1 $132 forward single #
loop $-1 $133 $134 $52 #
cone-surface $-1 44.494096538624802 6.4556947963376494 7.5163392872094956 -0.86602541151947299 0 -0.49999998660252726 0.12499999665063181 0 -0.21650635287986825 1 I I -0.70710678118654746 0.70710678118654746 0.25 forward I I I I #
loop $-1 $-1 $135 $36 #
coedge $-1 $85 $85 $136 $137 reversed $53 $-1 #
face $-1 $138 $139 $29 $-1 $140 reversed single #
loop $-1 $-1 $141 $55 #
plane-surface $-1 -47.375713370159019 4.5512617521336445 6.8720600661443356 -0.86602541151947299 0 0.49999998660252726 0.49999998660252726 0 0.86602541151947299 forward_v I I I I #
coedge $-1 $142 $143 $144 $145 reversed $56 $-1 #
face $-1 $-1 $146 $30 $-1 $147 forward single #
loop $-1 $148 $149 $58 #
cone-surface $-1 -44.494096538624795 2.6468287079296395 7.5163392872094956 0.86602541151947299 0 -0.49999998660252726 0.12499999665063181 0 0.21650635287986825 1 I I -0.70710678118654746 0.70710678118654746 0.25 forward I I I I #
loop $-1 $-1 $150 $38 #
coedge $-1 $94 $94 $151 $152 reversed $59 $-1 #
face $-1 $-1 $153 $31 $-1 $154 forward single #
loop $-1 $155 $156 $61 #
cone-surface $-1 -44.494096538624795 6.4556947963376494 7.5163392872094956 0.86602541151947299 0 -0.49999998660252726 0.12499999665063181 0 0.21650635287986825 1 I I -0.70710678118654746 0.70710678118654746 0.25 forward I I I I #
loop $-1 $-1 $157 $39 #
coedge $-1 $99 $99 $158 $159 reversed $62 $-1 #
face $-1 $160 $161 $24 $-1 $162 reversed single #
loop $-1 $-1 $163 $64 #
plane-surface $-1 0 -30.24862741660117 0 0 1 0 0 0 1 forward_v I I I I #
coedge $-1 $164 $165 $166 $167 forward $65 $-1 #
coedge $-1 $168 $67 $169 $170 forward $41 $-1 #
coedge $-1 $67 $168 $171 $172 forward $41 $-1 #
coedge $-1 $173 $174 $67 $107 reversed $175 $-1 #
edge $-1 $176 -30.24862741660117 $177 30.24862741660117 $106 $178 forward 7 unknown #
face $-1 $179 $180 $25 $-1 $181 reversed single #
loop $-1 $-1 $182 $68 #
plane-surface $-1 0 -35.922596781418115 4.0454345623904286 0 0 1 1 0 0 forward_v I I I I #
coedge $-1 $183 $184 $113 $185 forward $69 $-1 #
coedge $-1 $186 $71 $187 $188 reversed $44 $-1 #
coedge $-1 $71 $186 $111 $185 reversed $44 $-1 #
coedge $-1 $189 $182 $71 $115 reversed $109 $-1 #
edge $-1 $190 -47.375713370159005 $191 47.375713370159005 $114 $192 forward 7 unknown #
face $-1 $193 $194 $26 $-1 $195 reversed single #
loop $-1 $-1 $196 $72 #
plane-surface $-1 82.057144604270761 0.10758464899096865 136.30491550171479 0 1 0 0.86602541151947299 0 0.49999998660252726 forward_v I I I I #
coedge $-1 $197 $198 $199 $200 reversed $73 $-1 #
coedge $-1 $121 $75 $201 $202 reversed $47 $-1 #
coedge $-1 $75 $120 $197 $203 reversed $47 $-1 #
coedge $-1 $199 $204 $75 $123 forward $205 $-1 #
edge $-1 $206 -6.3471410680236247 $207 -4.3483705668634514 $122 $208 forward 7 unknown #
loop $-1 $-1 $129 $76 #
plane-surface $-1 1.2694296600557209e-006 4.5512617521336445 88.929203400985443 0.86602541151947299 0 0.49999998660252726 0.49999998660252726 0 -0.86602541151947299 forward_v I I I I #
loop $-1 $-1 $209 $49 #
coedge $-1 $127 $127 $128 $210 reversed $77 $-1 #
coedge $-1 $128 $128 $127 $210 forward $79 $-1 #
coedge $-1 $129 $129 $80 $130 forward $124 $-1 #
edge $-1 $211 0 $211 6.2831853071796004 $129 $212 forward 7 unknown #
loop $-1 $-1 $136 $81 #
plane-surface $-1 1.2694296600557209e-006 4.5512617521336445 88.929203400985443 0.86602541151947299 0 0.49999998660252726 0.49999998660252726 0 -0.86602541151947299 forward_v I I I I #
loop $-1 $-1 $213 $52 #
coedge $-1 $134 $134 $135 $214 reversed $82 $-1 #
coedge $-1 $135 $135 $134 $214 forward $84 $-1 #
coedge $-1 $136 $136 $85 $137 forward $131 $-1 #
edge $-1 $215 0 $215 6.2831853071796004 $136 $216 forward 7 unknown #
face $-1 $217 $218 $29 $-1 $219 forward single #
loop $-1 $-1 $220 $86 #
plane-surface $-1 -129.43285670500012 8.9949388552763203 54.247772166873681 0 -1 0 0.86602541151947299 0 -0.49999998660252726 forward_v I I I I #
coedge $-1 $221 $222 $223 $224 reversed $87 $-1 #
coedge $-1 $143 $89 $225 $226 reversed $56 $-1 #
coedge $-1 $89 $142 $221 $227 reversed $56 $-1 #
coedge $-1 $223 $228 $89 $145 forward $218 $-1 #
edge $-1 $229 17.340714982341055 $230 19.339485483501214 $144 $231 forward 7 unknown #
loop $-1 $-1 $151 $90 #
plane-surface $-1 -47.375713370159019 4.5512617521336445 6.8720600661443356 -0.86602541151947299 0 0.49999998660252726 0.49999998660252726 0 0.86602541151947299 forward_v I I I I #
loop $-1 $-1 $232 $58 #
coedge $-1 $149 $149 $150 $233 reversed $91 $-1 #
coedge $-1 $150 $150 $149 $233 forward $93 $-1 #
coedge $-1 $151 $151 $94 $152 forward $146 $-1 #
edge $-1 $234 0 $234 6.2831853071796004 $151 $235 forward 7 unknown #
loop $-1 $-1 $158 $95 #
plane-surface $-1 -47.375713370159019 4.5512617521336445 6.8720600661443356 -0.86602541151947299 0 0.49999998660252726 0.49999998660252726 0 0.86602541151947299 forward_v I I I I #
loop $-1 $-1 $236 $61 #
coedge $-1 $156 $156 $157 $237 reversed $96 $-1 #
coedge $-1 $157 $157 $156 $237 forward $98 $-1 #
coedge $-1 $158 $158 $99 $159 forward $153 $-1 #
edge $-1 $238 0 $238 6.2831853071796004 $158 $239 forward 7 unknown #
face $-1 $240 $241 $24 $-1 $242 reversed single #
loop $-1 $-1 $243 $100 #
plane-surface $-1 -47.375713370159005 0 0 1 0 0 0 0 -1 forward_v I I I I #
coedge $-1 $244 $171 $245 $246 forward $101 $-1 #
coedge $-1 $247 $103 $244 $248 forward $65 $-1 #
coedge $-1 $103 $247 $249 $250 forward $65 $-1 #
coedge $-1 $174 $173 $103 $167 reversed $175 $-1 #
edge $-1 $251 -30.24862741660117 $252 30.24862741660117 $166 $253 forward 7 unknown #
coedge $-1 $105 $104 $254 $255 forward $41 $-1 #
coedge $-1 $256 $257 $104 $170 reversed $241 $-1 #
edge $-1 $177 -47.375713370159005 $258 47.375713370159005 $169 $259 forward 7 unknown #
coedge $-1 $163 $260 $105 $172 reversed $101 $-1 #
edge $-1 $261 -47.375713370159005 $176 47.375713370159005 $171 $262 forward 7 unknown #
coedge $-1 $166 $106 $260 $263 forward $175 $-1 #
coedge $-1 $106 $166 $256 $264 reversed $175 $-1 #
loop $-1 $-1 $173 $240 #
vertex $-1 $107 $265 #
vertex $-1 $107 $266 #
straight-curve $-1 47.375713370159005 0 10.334032250508139 0 1 0 I I #
face $-1 $267 $268 $25 $-1 $269 reversed single #
loop $-1 $-1 $270 $108 #
plane-surface $-1 0 -35.922596781418115 -1.2634706924605998 0 0 1 1 0 0 forward_v I I I I #
coedge $-1 $114 $271 $272 $273 forward $109 $-1 #
coedge $-1 $274 $111 $275 $276 reversed $69 $-1 #
coedge $-1 $111 $274 $189 $277 reversed $69 $-1 #
edge $-1 $190 -4.0454345623904286 $278 1.2634706924605998 $111 $279 forward 7 unknown #
coedge $-1 $113 $112 $280 $281 forward $44 $-1 #
coedge $-1 $272 $282 $112 $188 forward $283 $-1 #
edge $-1 $284 -1.2634706924605998 $191 4.0454345623904286 $187 $285 forward 7 unknown #
coedge $-1 $271 $114 $184 $277 forward $109 $-1 #
vertex $-1 $185 $286 #
vertex $-1 $273 $287 #
straight-curve $-1 0 -30.24862741660117 4.0454345623904286 1 0 0 I I #
face $-1 $-1 $205 $26 $-1 $288 forward single #
loop $-1 $-1 $289 $116 #
plane-surface $-1 47.375713370159005 0 0 -1 0 0 0 0 1 forward_v I I I I #
coedge $-1 $290 $291 $292 $293 reversed $117 $-1 #
coedge $-1 $294 $119 $121 $203 forward $73 $-1 #
coedge $-1 $119 $294 $290 $295 forward $73 $-1 #
coedge $-1 $292 $122 $119 $200 forward $205 $-1 #
edge $-1 $207 -6.7193079792094981 $296 2.1680462270758536 $199 $297 forward 7 unknown #
coedge $-1 $298 $299 $120 $202 forward $194 $-1 #
edge $-1 $300 -61.280397684713051 $206 -57.818425500349257 $201 $301 forward 7 unknown #
edge $-1 $207 90.753885630883758 $300 94.75142674031801 $121 $302 forward 7 unknown #
coedge $-1 $122 $292 $298 $303 forward $205 $-1 #
loop $-1 $-1 $292 $193 #
vertex $-1 $202 $304 #
vertex $-1 $123 $305 #
straight-curve $-1 41.02857230213538 8.9949388552763203 10.334032250508137 -1 0 0 I I #
coedge $-1 $209 $209 $-1 $306 reversed $126 $-1 #
edge $-1 $307 0 $307 6.2831853071796004 $127 $308 forward 7 unknown #
vertex $-1 $130 $309 #
ellipse-curve $-1 46.376328119578922 2.6468287079296395 8.6030461583262365 0.86602541151947299 0 0.49999998660252726 0.24999999330126363 0 -0.43301270575973649 1 I I #
coedge $-1 $213 $213 $-1 $310 reversed $133 $-1 #
edge $-1 $311 0 $311 6.2831853071796004 $134 $312 forward 7 unknown #
vertex $-1 $137 $313 #
ellipse-curve $-1 46.376328119578922 6.4556947963376494 8.6030461583262365 0.86602541151947299 0 0.49999998660252726 0.24999999330126363 0 -0.43301270575973649 1 I I #
face $-1 $-1 $314 $29 $-1 $315 reversed single #
loop $-1 $-1 $144 $138 #
plane-surface $-1 0 0 10.334032250508139 0 0 1 1 0 0 forward_v I I I I #
coedge $-1 $316 $317 $318 $319 reversed $139 $-1 #
coedge $-1 $320 $141 $143 $227 forward $87 $-1 #
coedge $-1 $141 $320 $316 $321 forward $87 $-1 #
coedge $-1 $318 $144 $141 $224 forward $218 $-1 #
edge $-1 $230 -2.1680462270758536 $322 6.7193079792094981 $223 $323 forward 7 unknown #
coedge $-1 $324 $325 $142 $226 forward $314 $-1 #
edge $-1 $326 -20.25182601729248 $229 -16.789853832928699 $225 $327 forward 7 unknown #
edge $-1 $230 -3.9975411094342452 $326 -2.8642609447069912e-014 $143 $328 forward 7 unknown #
coedge $-1 $144 $318 $324 $329 forward $218 $-1 #
vertex $-1 $145 $330 #
vertex $-1 $145 $331 #
straight-curve $-1 -64.71642835250006 0.10758464899096865 10.334032250508137 1 0 0 I I #
coedge $-1 $232 $232 $-1 $332 reversed $148 $-1 #
edge $-1 $333 0 $333 6.2831853071796004 $149 $334 forward 7 unknown #
vertex $-1 $152 $335 #
ellipse-curve $-1 -46.376328119578929 2.6468287079296395 8.6030461583262436 -0.86602541151947299 0 0.49999998660252726 0.24999999330126363 0 0.43301270575973649 1 I I #
coedge $-1 $236 $236 $-1 $336 reversed $155 $-1 #
edge $-1 $337 0 $337 6.2831853071796004 $156 $338 forward 7 unknown #
vertex $-1 $159 $339 #
ellipse-curve $-1 -46.376328119578929 6.4556947963376494 8.6030461583262436 -0.86602541151947299 0 0.49999998660252726 0.24999999330126363 0 0.43301270575973649 1 I I #
face $-1 $-1 $175 $24 $-1 $340 reversed single #
loop $-1 $-1 $256 $160 #
plane-surface $-1 0 30.24862741660117 0 0 -1 0 0 0 -1 forward_v I I I I #
coedge $-1 $341 $254 $257 $342 forward $161 $-1 #
coedge $-1 $260 $163 $164 $248 reversed $101 $-1 #
coedge $-1 $254 $341 $163 $246 reversed $161 $-1 #
edge $-1 $261 -10.334032250508139 $343 10.334032250508139 $245 $344 forward 7 unknown #
coedge $-1 $165 $164 $341 $345 forward $65 $-1 #
edge $-1 $252 -47.375713370159005 $343 47.375713370159005 $244 $346 forward 7 unknown #
coedge $-1 $257 $256 $165 $250 reversed $241 $-1 #
edge $-1 $347 -47.375713370159005 $251 47.375713370159005 $249 $348 forward 7 unknown #
vertex $-1 $167 $349 #
vertex $-1 $263 $350 #
straight-curve $-1 47.375713370159005 0 -10.334032250508139 0 -1 0 I I #
coedge $-1 $243 $245 $168 $255 reversed $161 $-1 #
edge $-1 $258 -30.24862741660117 $261 30.24862741660117 $254 $351 forward 7 unknown #
coedge $-1 $249 $169 $174 $264 forward $241 $-1 #
coedge $-1 $169 $249 $243 $342 reversed $241 $-1 #
vertex $-1 $170 $352 #
straight-curve $-1 0 30.24862741660117 10.334032250508139 -1 0 0 I I #
coedge $-1 $171 $244 $173 $263 reversed $101 $-1 #
vertex $-1 $255 $353 #
straight-curve $-1 0 -30.24862741660117 10.334032250508139 1 0 0 I I #
edge $-1 $176 -10.334032250508139 $252 10.334032250508139 $173 $354 forward 7 unknown #
edge $-1 $177 -10.334032250508139 $251 10.334032250508139 $174 $355 forward 7 unknown #
point $-1 47.375713370159005 -30.24862741660117 10.334032250508139 #
point $-1 47.375713370159005 30.24862741660117 10.334032250508139 #
face $-1 $-1 $283 $25 $-1 $356 reversed single #
loop $-1 $-1 $357 $179 #
plane-surface $-1 0 -41.596566146235062 1.3909819349649144 0 1 0 0 0 1 forward_v I I I I #
coedge $-1 $358 $280 $282 $359 forward $180 $-1 #
coedge $-1 $182 $189 $360 $361 forward $109 $-1 #
coedge $-1 $362 $187 $182 $273 reversed $283 $-1 #
edge $-1 $363 -5.6739693648169478 $191 5.6739693648169478 $272 $364 forward 7 unknown #
coedge $-1 $184 $183 $357 $365 reversed $69 $-1 #
coedge $-1 $280 $358 $183 $276 forward $180 $-1 #
edge $-1 $366 -5.6739693648169478 $278 5.6739693648169478 $183 $367 forward 7 unknown #
edge $-1 $190 -5.6739693648169478 $368 5.6739693648169478 $184 $369 forward 7 unknown #
vertex $-1 $185 $370 #
straight-curve $-1 -47.375713370159005 -30.24862741660117 0 0 0 -1 I I #
coedge $-1 $270 $275 $186 $281 reversed $180 $-1 #
edge $-1 $284 -47.375713370159005 $278 47.375713370159005 $280 $371 forward 7 unknown #
coedge $-1 $187 $362 $270 $359 reversed $283 $-1 #
loop $-1 $-1 $187 $267 #
vertex $-1 $188 $372 #
straight-curve $-1 47.375713370159005 -30.24862741660117 0 0 0 1 I I #
point $-1 -47.375713370159005 -30.248627416601167 4.0454345623904286 #
point $-1 47.375713370159005 -30.248627416601167 4.0454345623904286 #
plane-surface $-1 0 0 10.334032250508139 0 0 1 1 0 0 forward_v I I I I #
coedge $-1 $299 $298 $291 $373 forward $194 $-1 #
coedge $-1 $291 $196 $198 $295 reversed $117 $-1 #
coedge $-1 $196 $290 $289 $373 reversed $117 $-1 #
coedge $-1 $204 $199 $196 $293 forward $205 $-1 #
edge $-1 $296 4.3483705668634514 $374 6.3471410680236247 $292 $375 forward 7 unknown #
coedge $-1 $198 $197 $299 $376 reversed $73 $-1 #
edge $-1 $377 -94.75142674031801 $296 -90.753885630883758 $290 $378 forward 7 unknown #
vertex $-1 $200 $379 #
straight-curve $-1 45.376942868998839 2.2756308760668222 10.334032250508137 0 -1 0 I I #
coedge $-1 $289 $201 $204 $303 reversed $194 $-1 #
coedge $-1 $201 $289 $294 $376 forward $194 $-1 #
vertex $-1 $202 $380 #
straight-curve $-1 47.375713370159005 8.9949388552763203 68.152457750857394 0 0 1 I I #
straight-curve $-1 1.2694296600557209e-006 8.9949388552763203 88.929203400985443 0.49999998660252726 0 -0.86602541151947299 I I #
edge $-1 $374 0.10758464899096865 $206 8.9949388552763203 $298 $381 forward 7 unknown #
point $-1 47.375713370159005 8.9949388552763203 10.334032250508139 #
point $-1 45.376942868998832 8.9949388552763203 10.334032250508145 #
edge $-1 $382 1 $382 0 $209 $-1 forward 7 unknown #
vertex $-1 $210 $383 #
ellipse-curve $-1 44.710602891504671 2.6468287079296395 7.6413392838601277 0.86602541151947299 0 0.49999998660252726 0.24999999330126363 0 -0.43301270575973649 1 I I #
point $-1 46.626328112880188 2.6468287079296395 8.1700334525664999 #
edge $-1 $384 1 $384 0 $213 $-1 forward 7 unknown #
vertex $-1 $214 $385 #
ellipse-curve $-1 44.710602891504671 6.4556947963376494 7.6413392838601277 0.86602541151947299 0 0.49999998660252726 0.24999999330126363 0 -0.43301270575973649 1 I I #
point $-1 46.626328112880188 6.4556947963376494 8.1700334525664999 #
loop $-1 $-1 $225 $217 #
plane-surface $-1 -47.375713370159005 0 0 1 0 0 0 0 -1 forward_v I I I I #
coedge $-1 $317 $220 $222 $321 reversed $139 $-1 #
coedge $-1 $220 $316 $386 $387 reversed $139 $-1 #
coedge $-1 $228 $223 $220 $319 forward $218 $-1 #
edge $-1 $322 -19.339485483501214 $388 -17.340714982341055 $318 $389 forward 7 unknown #
coedge $-1 $222 $221 $325 $390 reversed $87 $-1 #
edge $-1 $391 2.8642609447069912e-014 $322 3.9975411094342452 $316 $392 forward 7 unknown #
vertex $-1 $224 $393 #
straight-curve $-1 -45.376942868998846 2.2756308760668222 10.334032250508139 0 1 0 I I #
coedge $-1 $386 $225 $228 $329 reversed $314 $-1 #
coedge $-1 $225 $386 $320 $390 forward $314 $-1 #
vertex $-1 $226 $394 #
straight-curve $-1 -47.375713370159005 0.10758464899096865 27.12388608343684 0 0 1 I I #
straight-curve $-1 -47.375713370159019 0.10758464899096865 6.8720600661443356 -0.49999998660252726 0 -0.86602541151947299 I I #
edge $-1 $388 -8.9949388552763203 $229 -0.10758464899096865 $324 $395 forward 7 unknown #
point $-1 -47.375713370159005 0.10758464899096865 10.334032250508139 #
point $-1 -45.376942868998846 0.10758464899096865 10.334032250508139 #
edge $-1 $396 1 $396 0 $232 $-1 forward 7 unknown #
vertex $-1 $233 $397 #
ellipse-curve $-1 -44.710602891504664 2.6468287079296395 7.6413392838601277 -0.86602541151947299 0 0.49999998660252726 0.24999999330126363 0 0.43301270575973649 1 I I #
point $-1 -46.126328126277649 2.6468287079296395 9.0360588640859731 #
edge $-1 $398 1 $398 0 $236 $-1 forward 7 unknown #
vertex $-1 $237 $399 #
ellipse-curve $-1 -44.710602891504664 6.4556947963376494 7.6413392838601277 -0.86602541151947299 0 0.49999998660252726 0.24999999330126363 0 0.43301270575973649 1 I I #
point $-1 -46.126328126277649 6.4556947963376494 9.0360588640859731 #
plane-surface $-1 47.375713370159005 0 0 -1 0 0 0 0 1 forward_v I I I I #
coedge $-1 $245 $243 $247 $345 reversed $161 $-1 #
edge $-1 $258 -10.334032250508139 $347 10.334032250508139 $257 $400 forward 7 unknown #
vertex $-1 $345 $401 #
straight-curve $-1 -47.375713370159005 -30.24862741660117 0 0 0 -1 I I #
edge $-1 $343 -30.24862741660117 $347 30.24862741660117 $341 $402 forward 7 unknown #
straight-curve $-1 0 -30.24862741660117 -10.334032250508139 -1 0 0 I I #
vertex $-1 $250 $403 #
straight-curve $-1 0 30.24862741660117 -10.334032250508139 1 0 0 I I #
point $-1 47.375713370159005 30.24862741660117 -10.334032250508139 #
point $-1 47.375713370159005 -30.24862741660117 -10.334032250508139 #
straight-curve $-1 -47.375713370159005 0 10.334032250508139 0 -1 0 I I #
point $-1 -47.375713370159005 30.24862741660117 10.334032250508139 #
point $-1 -47.375713370159005 -30.24862741660117 10.334032250508139 #
straight-curve $-1 47.375713370159005 -30.24862741660117 0 0 0 -1 I I #
straight-curve $-1 47.375713370159005 30.24862741660117 0 0 0 -1 I I #
plane-surface $-1 47.375713370159005 0 0 -1 0 0 0 0 1 forward_v I I I I #
coedge $-1 $404 $360 $274 $365 forward $268 $-1 #
coedge $-1 $275 $270 $404 $405 forward $180 $-1 #
edge $-1 $284 -5.6739693648169478 $406 5.6739693648169478 $282 $407 forward 7 unknown #
coedge $-1 $357 $408 $271 $361 reversed $268 $-1 #
edge $-1 $368 -47.375713370159005 $363 47.375713370159005 $360 $409 forward 7 unknown #
coedge $-1 $282 $272 $408 $410 forward $283 $-1 #
vertex $-1 $273 $411 #
straight-curve $-1 47.375713370159005 -35.922596781418115 4.0454345623904286 0 1 0 I I #
edge $-1 $368 -2.6544526274255142 $366 2.6544526274255142 $274 $412 forward 7 unknown #
vertex $-1 $276 $413 #
straight-curve $-1 -47.375713370159005 -35.922596781418115 -1.2634706924605998 0 1 0 I I #
vertex $-1 $277 $414 #
straight-curve $-1 -47.375713370159005 -35.922596781418115 4.0454345623904286 0 -1 0 I I #
point $-1 -47.375713370159005 -30.248627416601167 -1.2634706924605998 #
straight-curve $-1 0 -30.24862741660117 -1.2634706924605998 -1 0 0 I I #
point $-1 47.375713370159005 -30.248627416601167 -1.2634706924605998 #
edge $-1 $374 57.818425500349257 $377 61.280397684713051 $289 $415 forward 7 unknown #
vertex $-1 $303 $416 #
straight-curve $-1 41.02857230213538 0.10758464899096865 10.334032250508137 1 0 0 I I #
edge $-1 $377 -2.1680462270758536 $300 6.7193079792094981 $299 $417 forward 7 unknown #
vertex $-1 $376 $418 #
straight-curve $-1 1.2694296600557209e-006 0.10758464899096865 88.929203400985443 -0.49999998660252726 0 0.86602541151947299 I I #
point $-1 45.376942868998832 0.10758464899096865 10.334032250508145 #
point $-1 47.375713370159005 8.9949388552763203 6.8720600661443427 #
straight-curve $-1 47.375713370159005 0 10.334032250508139 0 1 0 I I #
vertex $-1 $306 $419 #
point $-1 44.960602884805937 2.6468287079296395 7.2083265781003911 #
vertex $-1 $310 $420 #
point $-1 44.960602884805937 6.4556947963376494 7.2083265781003911 #
coedge $-1 $325 $324 $317 $387 forward $314 $-1 #
edge $-1 $388 16.789853832928699 $391 20.25182601729248 $386 $421 forward 7 unknown #
vertex $-1 $329 $422 #
straight-curve $-1 -64.71642835250006 8.9949388552763203 10.334032250508137 -1 0 0 I I #
edge $-1 $391 -6.7193079792094981 $326 2.1680462270758536 $325 $423 forward 7 unknown #
vertex $-1 $390 $424 #
straight-curve $-1 -47.375713370159019 8.9949388552763203 6.8720600661443356 0.49999998660252726 0 0.86602541151947299 I I #
point $-1 -45.376942868998846 8.9949388552763203 10.334032250508139 #
point $-1 -47.375713370159005 0.10758464899096865 6.8720600661443605 #
straight-curve $-1 -47.375713370159005 0 10.334032250508139 0 -1 0 I I #
vertex $-1 $332 $425 #
point $-1 -44.460602898203398 2.6468287079296395 8.0743519896198634 #
vertex $-1 $336 $426 #
point $-1 -44.460602898203398 6.4556947963376494 8.0743519896198634 #
straight-curve $-1 -47.375713370159005 30.24862741660117 0 0 0 -1 I I #
point $-1 -47.375713370159005 -30.24862741660117 -10.334032250508139 #
straight-curve $-1 -47.375713370159005 0 -10.334032250508139 0 1 0 I I #
point $-1 -47.375713370159005 30.24862741660117 -10.334032250508139 #
coedge $-1 $408 $357 $358 $405 reversed $268 $-1 #
edge $-1 $406 -47.375713370159005 $366 47.375713370159005 $404 $427 forward 7 unknown #
vertex $-1 $410 $428 #
straight-curve $-1 47.375713370159005 -35.922596781418115 -1.2634706924605998 0 -1 0 I I #
coedge $-1 $360 $404 $362 $410 reversed $268 $-1 #
straight-curve $-1 0 -41.596566146235062 4.0454345623904286 1 0 0 I I #
edge $-1 $363 -2.6544526274255142 $406 2.6544526274255142 $362 $429 forward 7 unknown #
point $-1 47.375713370159005 -41.596566146235062 4.0454345623904286 #
straight-curve $-1 -47.375713370159005 -41.596566146235062 1.3909819349649144 0 0 -1 I I #
point $-1 -47.375713370159005 -41.596566146235062 -1.2634706924605998 #
point $-1 -47.375713370159005 -41.596566146235062 4.0454345623904286 #
straight-curve $-1 47.375713370159005 0.10758464899096865 68.152457750857394 0 0 -1 I I #
point $-1 47.375713370159005 0.10758464899096865 10.334032250508139 #
straight-curve $-1 47.375713370159005 2.2756308760668222 6.8720600661443498 0 1 0 I I #
point $-1 47.375713370159005 0.10758464899096865 6.8720600661443427 #
point $-1 44.277590185744934 2.6468287079296395 7.3913392905588635 #
point $-1 44.277590185744934 6.4556947963376494 7.3913392905588635 #
straight-curve $-1 -47.375713370159005 8.9949388552763203 27.12388608343684 0 0 -1 I I #
point $-1 -47.375713370159005 8.9949388552763203 10.334032250508139 #
straight-curve $-1 -47.375713370159005 2.2756308760668222 6.872060066144364 0 -1 0 I I #
point $-1 -47.375713370159005 8.9949388552763203 6.8720600661443605 #
point $-1 -44.277590185744927 2.6468287079296395 7.3913392905588635 #
point $-1 -44.277590185744927 6.4556947963376494 7.3913392905588635 #
straight-curve $-1 0 -41.596566146235062 -1.2634706924605998 -1 0 0 I I #
point $-1 47.375713370159005 -41.596566146235062 -1.2634706924605998 #
straight-curve $-1 47.375713370159005 -41.596566146235062 1.3909819349649144 0 0 -1 I I #
End-of-ACIS-data 