500 0 7 0           
7 Unknown 11 ACIS 5.0 NT 24 Fri Mar 26 20:22:43 1999 
-1 9.9999999999999995e-007 1e-010 
body $-1 $7 $-1 $8 #
body $-1 $9 $-1 $10 #
body $-1 $11 $-1 $12 #
body $-1 $13 $-1 $14 #
body $-1 $15 $-1 $16 #
body $-1 $17 $-1 $18 #
body $-1 $19 $-1 $20 #
lump $-1 $-1 $21 $0 #
transform $-1 1 0 0 0 1 0 0 0 1 79.620349742118606 46.205170947944822 10.779608426513388 1 rotate no_reflect no_shear #
lump $-1 $-1 $22 $1 #
transform $-1 1 0 0 0 1 0 0 0 1 79.620349742118606 46.205170947944822 10.779608426513388 1 rotate no_reflect no_shear #
lump $-1 $-1 $23 $2 #
transform $-1 1 0 0 0 1 0 0 0 1 79.620349742118606 46.205170947944822 10.779608426513388 1 rotate no_reflect no_shear #
lump $-1 $-1 $24 $3 #
transform $-1 1 0 0 0 1 0 0 0 1 79.620349742118606 46.205170947944822 10.779608426513388 1 rotate no_reflect no_shear #
lump $-1 $-1 $25 $4 #
transform $-1 1 0 0 0 1 0 0 0 1 79.620349742118606 46.205170947944822 10.779608426513388 1 rotate no_reflect no_shear #
lump $-1 $-1 $26 $5 #
transform $-1 1 0 0 0 1 0 0 0 1 79.620349742118606 46.205170947944822 10.779608426513388 1 rotate no_reflect no_shear #
lump $-1 $-1 $27 $6 #
transform $-1 1 0 0 0 1 0 0 0 1 79.620349742118606 46.205170947944822 10.779608426513388 1 rotate no_reflect no_shear #
shell $-1 $-1 $-1 $28 $-1 $7 #
shell $-1 $-1 $-1 $29 $-1 $9 #
shell $-1 $-1 $-1 $30 $-1 $11 #
shell $-1 $-1 $-1 $31 $-1 $13 #
shell $-1 $-1 $-1 $32 $-1 $15 #
shell $-1 $-1 $-1 $33 $-1 $17 #
shell $-1 $-1 $-1 $34 $-1 $19 #
face $-1 $35 $36 $21 $-1 $37 forward single #
face $-1 $38 $39 $22 $-1 $40 forward single #
face $-1 $41 $42 $23 $-1 $43 reversed single #
face $-1 $44 $45 $24 $-1 $46 forward single #
face $-1 $47 $48 $25 $-1 $49 forward single #
face $-1 $50 $51 $26 $-1 $52 reversed single #
face $-1 $53 $54 $27 $-1 $55 forward single #
face $-1 $56 $57 $21 $-1 $58 reversed single #
loop $-1 $-1 $59 $28 #
plane-surface $-1 0 0 10.779608426513388 0 0 1 1 0 0 forward_v I I I I #
face $-1 $60 $61 $22 $-1 $62 reversed single #
loop $-1 $-1 $63 $29 #
plane-surface $-1 -74.988960576874575 0 -5.7203937853201516 0 0 1 1 0 0 forward_v I I I I #
face $-1 $64 $65 $23 $-1 $66 reversed single #
loop $-1 $-1 $67 $30 #
plane-surface $-1 -65.02304331453351 135.10624934753568 165.63863414116895 1 0 0 0 -0.85716730853699208 -0.51503806187062418 forward_v I I I I #
face $-1 $68 $69 $24 $-1 $70 forward single #
loop $-1 $71 $72 $31 #
cone-surface $-1 -56.314909441423367 42.354643852096906 6.4317902291285147 0 -0.85716730853699208 -0.51503806187062418 1.5 0 0 1 I I 0 1 1.5 forward I I I I #
face $-1 $73 $74 $25 $-1 $75 forward single #
loop $-1 $76 $77 $32 #
cone-surface $-1 -43.252708631758154 42.354643852096906 6.4317902291285147 0 -0.85716730853699208 -0.51503806187062418 1.5 0 0 1 I I 0 1 1.5 forward I I I I #
face $-1 $78 $79 $26 $-1 $80 reversed single #
loop $-1 $-1 $81 $33 #
plane-surface $-1 61.431172833370738 -46.205170947944836 1.1750017426928139 0 -0.5877852598018023 0.80901698891910034 1 0 0 forward_v I I I I #
face $-1 $82 $83 $27 $-1 $84 forward single #
loop $-1 $85 $86 $34 #
cone-surface $-1 61.431172833370738 -35.533376253899981 0.38645377063419151 0 0.5877852598018023 -0.80901698891910034 4 0 0 1 I I 0 1 4 forward I I I I #
face $-1 $87 $88 $21 $-1 $89 reversed single #
loop $-1 $-1 $90 $35 #
plane-surface $-1 0 0 -10.779608426513388 0 0 1 1 0 0 forward_v I I I I #
coedge $-1 $91 $92 $93 $94 forward $36 $-1 #
face $-1 $95 $96 $22 $-1 $97 reversed single #
loop $-1 $-1 $98 $38 #
plane-surface $-1 -70.357571411630545 0 -8.2500011059167697 -1 0 0 0 0 1 forward_v I I I I #
coedge $-1 $99 $100 $101 $102 forward $39 $-1 #
face $-1 $103 $104 $23 $-1 $105 reversed single #
loop $-1 $-1 $106 $41 #
plane-surface $-1 -49.78380903659076 -1.389672438915909 83.623612907884919 0 0.85716730853699208 0.51503806187062418 1 0 0 forward_v I I I I #
coedge $-1 $107 $108 $109 $110 reversed $42 $-1 #
face $-1 $-1 $111 $24 $-1 $112 forward single #
loop $-1 $113 $114 $44 #
cone-surface $-1 -56.314909441423367 39.774116909809237 4.8812532665964063 0 -0.85716730853699208 -0.51503806187062418 0.75 0 0 1 I I -0.70710678118654757 0.70710678118654757 0.75 forward I I I I #
loop $-1 $-1 $115 $31 #
coedge $-1 $72 $72 $116 $117 reversed $45 $-1 #
face $-1 $-1 $118 $25 $-1 $119 forward single #
loop $-1 $120 $121 $47 #
cone-surface $-1 -43.252708631758154 39.774116909809237 4.8812532665964063 0 -0.85716730853699208 -0.51503806187062418 0.75 0 0 1 I I -0.70710678118654757 0.70710678118654757 0.75 forward I I I I #
loop $-1 $-1 $122 $32 #
coedge $-1 $77 $77 $123 $124 reversed $48 $-1 #
face $-1 $125 $126 $26 $-1 $127 reversed single #
loop $-1 $-1 $128 $50 #
plane-surface $-1 43.241995924622863 -139.80450686530793 130.00343295280175 1 0 0 0 0.5877852598018023 -0.80901698891910034 forward_v I I I I #
coedge $-1 $129 $130 $131 $132 reversed $51 $-1 #
face $-1 $-1 $133 $27 $-1 $134 forward single #
loop $-1 $135 $136 $53 #
cone-surface $-1 61.431172833370738 -30.295814407655556 -6.8224315211729092 0 0.5877852598018023 -0.80901698891910034 2 0 0 1 I I -0.70710678118654746 0.70710678118654746 2 forward I I I I #
loop $-1 $-1 $137 $34 #
coedge $-1 $86 $86 $138 $139 reversed $54 $-1 #
face $-1 $140 $141 $21 $-1 $142 reversed single #
loop $-1 $-1 $143 $56 #
plane-surface $-1 0 -46.205170947944822 0 0 1 0 0 0 1 forward_v I I I I #
coedge $-1 $144 $145 $146 $147 forward $57 $-1 #
coedge $-1 $148 $59 $149 $150 forward $36 $-1 #
coedge $-1 $59 $148 $151 $152 forward $36 $-1 #
coedge $-1 $153 $154 $59 $94 reversed $155 $-1 #
edge $-1 $156 -46.205170947944822 $157 46.205170947944822 $93 $158 forward 7 unknown #
face $-1 $159 $160 $22 $-1 $161 reversed single #
loop $-1 $-1 $162 $60 #
plane-surface $-1 0 0 -10.779608426513388 0 0 1 1 0 0 forward_v I I I I #
coedge $-1 $163 $101 $164 $165 reversed $61 $-1 #
coedge $-1 $166 $63 $167 $168 reversed $39 $-1 #
coedge $-1 $63 $166 $169 $170 reversed $39 $-1 #
coedge $-1 $98 $171 $63 $102 reversed $61 $-1 #
edge $-1 $172 -46.205170947944822 $173 46.205170947944822 $101 $174 forward 7 unknown #
face $-1 $175 $176 $23 $-1 $177 reversed single #
loop $-1 $-1 $178 $64 #
plane-surface $-1 -34.544574758648011 135.10624934753568 165.63863414116895 -1 0 0 0 0.85716730853699208 0.51503806187062418 forward_v I I I I #
coedge $-1 $179 $180 $181 $182 reversed $65 $-1 #
coedge $-1 $108 $67 $183 $184 reversed $42 $-1 #
coedge $-1 $67 $107 $179 $185 reversed $42 $-1 #
coedge $-1 $181 $186 $67 $110 forward $187 $-1 #
edge $-1 $188 21.347953725823018 $189 25.173704995748977 $109 $190 forward 7 unknown #
loop $-1 $-1 $116 $68 #
plane-surface $-1 -49.78380903659076 -1.389672438915909 83.623612907884919 0 0.85716730853699208 0.51503806187062418 1 0 0 forward_v I I I I #
loop $-1 $-1 $191 $44 #
coedge $-1 $114 $114 $115 $192 reversed $69 $-1 #
coedge $-1 $115 $115 $114 $192 forward $71 $-1 #
coedge $-1 $116 $116 $72 $117 forward $111 $-1 #
edge $-1 $193 1.2111193307581884e-015 $193 6.2831853071796013 $116 $194 forward 7 unknown #
loop $-1 $-1 $123 $73 #
plane-surface $-1 -49.78380903659076 -1.389672438915909 83.623612907884919 0 0.85716730853699208 0.51503806187062418 1 0 0 forward_v I I I I #
loop $-1 $-1 $195 $47 #
coedge $-1 $121 $121 $122 $196 reversed $74 $-1 #
coedge $-1 $122 $122 $121 $196 forward $76 $-1 #
coedge $-1 $123 $123 $77 $124 forward $118 $-1 #
edge $-1 $197 1.2111193307581884e-015 $197 6.2831853071796013 $123 $198 forward 7 unknown #
face $-1 $199 $200 $26 $-1 $201 forward single #
loop $-1 $-1 $202 $78 #
plane-surface $-1 79.620349742118606 0 0 -1 0 0 0 0 1 forward_v I I I I #
coedge $-1 $203 $204 $205 $206 reversed $79 $-1 #
coedge $-1 $207 $81 $202 $208 reversed $51 $-1 #
coedge $-1 $81 $207 $203 $209 forward $51 $-1 #
coedge $-1 $205 $210 $81 $132 forward $200 $-1 #
edge $-1 $211 -48.904763325433237 $212 -12.526409507937494 $131 $213 forward 7 unknown #
loop $-1 $-1 $138 $82 #
plane-surface $-1 61.431172833370738 -46.205170947944836 1.1750017426928139 0 -0.5877852598018023 0.80901698891910034 1 0 0 forward_v I I I I #
loop $-1 $-1 $214 $53 #
coedge $-1 $136 $136 $137 $215 reversed $83 $-1 #
coedge $-1 $137 $137 $136 $215 forward $85 $-1 #
coedge $-1 $138 $138 $86 $139 forward $133 $-1 #
edge $-1 $216 1.7010176685033603e-015 $216 6.2831853071796022 $138 $217 forward 7 unknown #
face $-1 $218 $219 $21 $-1 $220 reversed single #
loop $-1 $-1 $221 $87 #
plane-surface $-1 -79.620349742118606 0 0 1 0 0 0 0 -1 forward_v I I I I #
coedge $-1 $222 $151 $223 $224 forward $88 $-1 #
coedge $-1 $225 $90 $222 $226 forward $57 $-1 #
coedge $-1 $90 $225 $227 $228 forward $57 $-1 #
coedge $-1 $154 $153 $90 $147 reversed $155 $-1 #
edge $-1 $229 -46.205170947944822 $230 46.205170947944822 $146 $231 forward 7 unknown #
coedge $-1 $92 $91 $232 $233 forward $36 $-1 #
coedge $-1 $234 $235 $91 $150 reversed $219 $-1 #
edge $-1 $157 -79.620349742118606 $236 79.620349742118606 $149 $237 forward 7 unknown #
coedge $-1 $143 $238 $92 $152 reversed $88 $-1 #
edge $-1 $239 -79.620349742118606 $156 79.620349742118606 $151 $240 forward 7 unknown #
coedge $-1 $146 $93 $238 $241 forward $155 $-1 #
coedge $-1 $93 $146 $234 $242 reversed $155 $-1 #
loop $-1 $-1 $153 $218 #
vertex $-1 $94 $243 #
vertex $-1 $94 $244 #
straight-curve $-1 79.620349742118606 0 10.779608426513388 0 1 0 I I #
face $-1 $245 $246 $22 $-1 $247 reversed single #
loop $-1 $-1 $164 $95 #
plane-surface $-1 0 -46.205170947944822 0 0 1 0 0 0 1 forward_v I I I I #
coedge $-1 $248 $249 $163 $250 forward $96 $-1 #
coedge $-1 $171 $98 $162 $250 reversed $61 $-1 #
coedge $-1 $169 $251 $98 $165 forward $160 $-1 #
edge $-1 $252 -6.6546078735550029 $172 -1.5953932323617668 $164 $253 forward 7 unknown #
coedge $-1 $100 $99 $254 $255 reversed $39 $-1 #
coedge $-1 $256 $257 $99 $168 forward $258 $-1 #
edge $-1 $259 -42.125869453681318 $173 -32.863091123193257 $167 $260 forward 7 unknown #
coedge $-1 $261 $164 $100 $170 forward $160 $-1 #
edge $-1 $172 32.863091123193257 $262 42.125869453681318 $169 $263 forward 7 unknown #
coedge $-1 $101 $163 $256 $264 reversed $61 $-1 #
vertex $-1 $170 $265 #
vertex $-1 $168 $266 #
straight-curve $-1 -70.357571411630545 0 -5.7203937853201516 0 1 0 I I #
face $-1 $-1 $187 $23 $-1 $267 forward single #
loop $-1 $-1 $268 $103 #
plane-surface $-1 0 46.205170947944822 0 0 -1 0 0 0 -1 forward_v I I I I #
coedge $-1 $269 $270 $271 $272 reversed $104 $-1 #
coedge $-1 $273 $106 $108 $185 forward $65 $-1 #
coedge $-1 $106 $273 $269 $274 forward $65 $-1 #
coedge $-1 $271 $109 $106 $182 forward $187 $-1 #
edge $-1 $189 -40.131138796238133 $275 -9.6526702403526308 $181 $276 forward 7 unknown #
coedge $-1 $277 $278 $107 $184 forward $176 $-1 #
edge $-1 $279 -78.406828206582489 $188 -72.039708644071084 $183 $280 forward 7 unknown #
edge $-1 $189 84.982247638096752 $279 92.41034189588963 $108 $281 forward 7 unknown #
coedge $-1 $109 $271 $277 $282 forward $187 $-1 #
loop $-1 $-1 $271 $175 #
vertex $-1 $184 $283 #
vertex $-1 $110 $284 #
straight-curve $-1 -65.02304331453351 67.55312467376784 10.779608426513391 0 -1 0 I I #
coedge $-1 $191 $191 $-1 $285 reversed $113 $-1 #
edge $-1 $286 0 $286 6.2831853071796004 $114 $287 forward 7 unknown #
vertex $-1 $117 $288 #
ellipse-curve $-1 -56.314909441423367 44.29229531298185 7.5960486452576657 0 0.85716730853699208 0.51503806187062418 1.5 0 0 1 I I #
coedge $-1 $195 $195 $-1 $289 reversed $120 $-1 #
edge $-1 $290 0 $290 6.2831853071796004 $121 $291 forward 7 unknown #
vertex $-1 $124 $292 #
ellipse-curve $-1 -43.252708631758154 44.29229531298185 7.5960486452576657 0 0.85716730853699208 0.51503806187062418 1.5 0 0 1 I I #
face $-1 $-1 $293 $26 $-1 $294 reversed single #
loop $-1 $-1 $131 $125 #
plane-surface $-1 0 0 10.779608426513388 0 0 1 1 0 0 forward_v I I I I #
coedge $-1 $295 $296 $129 $208 forward $126 $-1 #
coedge $-1 $204 $128 $130 $209 reversed $79 $-1 #
coedge $-1 $128 $203 $297 $298 reversed $79 $-1 #
coedge $-1 $299 $131 $128 $206 forward $200 $-1 #
edge $-1 $212 -36.916689219517146 $300 -23.697082484709142 $205 $301 forward 7 unknown #
coedge $-1 $130 $129 $302 $303 reversed $51 $-1 #
edge $-1 $304 -18.34505978410116 $211 -2.0047271138685323 $202 $305 forward 7 unknown #
edge $-1 $306 1.7500491998158137e-014 $212 16.340332670232648 $203 $307 forward 7 unknown #
coedge $-1 $131 $299 $295 $308 forward $200 $-1 #
vertex $-1 $132 $309 #
vertex $-1 $132 $310 #
straight-curve $-1 30.715586416685369 -32.985564213136819 10.779608426513388 -1 0 0 I I #
coedge $-1 $214 $214 $-1 $311 reversed $135 $-1 #
edge $-1 $312 0 $312 6.2831853071796004 $136 $313 forward 7 unknown #
vertex $-1 $139 $314 #
ellipse-curve $-1 61.431172833370738 -39.595367580540817 5.9773050846031097 0 -0.5877852598018023 0.80901698891910034 4 0 0 1 I I #
face $-1 $-1 $155 $21 $-1 $315 reversed single #
loop $-1 $-1 $234 $140 #
plane-surface $-1 0 46.205170947944822 0 0 -1 0 0 0 -1 forward_v I I I I #
coedge $-1 $316 $232 $235 $317 forward $141 $-1 #
coedge $-1 $238 $143 $144 $226 reversed $88 $-1 #
coedge $-1 $232 $316 $143 $224 reversed $141 $-1 #
edge $-1 $239 -10.779608426513388 $318 10.779608426513388 $223 $319 forward 7 unknown #
coedge $-1 $145 $144 $316 $320 forward $57 $-1 #
edge $-1 $230 -79.620349742118606 $318 79.620349742118606 $222 $321 forward 7 unknown #
coedge $-1 $235 $234 $145 $228 reversed $219 $-1 #
edge $-1 $322 -79.620349742118606 $229 79.620349742118606 $227 $323 forward 7 unknown #
vertex $-1 $147 $324 #
vertex $-1 $241 $325 #
straight-curve $-1 79.620349742118606 0 -10.779608426513388 0 -1 0 I I #
coedge $-1 $221 $223 $148 $233 reversed $141 $-1 #
edge $-1 $236 -46.205170947944822 $239 46.205170947944822 $232 $326 forward 7 unknown #
coedge $-1 $227 $149 $154 $242 forward $219 $-1 #
coedge $-1 $149 $227 $221 $317 reversed $219 $-1 #
vertex $-1 $150 $327 #
straight-curve $-1 0 46.205170947944822 10.779608426513388 -1 0 0 I I #
coedge $-1 $151 $222 $153 $241 reversed $88 $-1 #
vertex $-1 $233 $328 #
straight-curve $-1 0 -46.205170947944822 10.779608426513388 1 0 0 I I #
edge $-1 $156 -10.779608426513388 $230 10.779608426513388 $153 $329 forward 7 unknown #
edge $-1 $157 -10.779608426513388 $229 10.779608426513388 $154 $330 forward 7 unknown #
point $-1 79.620349742118606 -46.205170947944822 10.779608426513388 #
point $-1 79.620349742118606 46.205170947944822 10.779608426513388 #
face $-1 $-1 $258 $22 $-1 $331 reversed single #
loop $-1 $-1 $254 $159 #
plane-surface $-1 -79.620349742118606 0 0 1 0 0 0 0 -1 forward_v I I I I #
coedge $-1 $332 $162 $251 $333 forward $96 $-1 #
coedge $-1 $162 $332 $334 $335 forward $96 $-1 #
edge $-1 $336 -46.205170947944822 $252 46.205170947944822 $162 $337 forward 7 unknown #
coedge $-1 $164 $261 $248 $333 reversed $160 $-1 #
vertex $-1 $333 $338 #
straight-curve $-1 -70.357571411630545 -46.205170947944822 -4.1250005529583849 0 0 1 I I #
coedge $-1 $339 $340 $166 $255 forward $246 $-1 #
edge $-1 $262 -46.205170947944822 $259 46.205170947944822 $254 $341 forward 7 unknown #
coedge $-1 $334 $167 $171 $264 forward $258 $-1 #
coedge $-1 $167 $334 $339 $342 reversed $258 $-1 #
loop $-1 $-1 $256 $245 #
vertex $-1 $342 $343 #
straight-curve $-1 -37.494480288437288 46.205170947944822 -5.7203937853201516 1 0 0 I I #
coedge $-1 $251 $169 $340 $344 forward $160 $-1 #
vertex $-1 $344 $345 #
straight-curve $-1 -37.494480288437288 -46.205170947944822 -5.7203937853201516 -1 0 0 I I #
edge $-1 $173 1.5953932323617668 $336 6.6546078735550029 $256 $346 forward 7 unknown #
point $-1 -70.357571411630545 -46.205170947944822 -5.7203937853201516 #
point $-1 -70.357571411630545 46.205170947944822 -5.7203937853201516 #
plane-surface $-1 0 0 10.779608426513388 0 0 1 1 0 0 forward_v I I I I #
coedge $-1 $278 $277 $270 $347 forward $176 $-1 #
coedge $-1 $270 $178 $180 $274 reversed $104 $-1 #
coedge $-1 $178 $269 $268 $347 reversed $104 $-1 #
coedge $-1 $186 $181 $178 $272 forward $187 $-1 #
edge $-1 $275 -25.173704995748977 $348 -21.347953725823018 $271 $349 forward 7 unknown #
coedge $-1 $180 $179 $278 $350 reversed $65 $-1 #
edge $-1 $351 -92.41034189588963 $275 -84.982247638096752 $269 $352 forward 7 unknown #
vertex $-1 $182 $353 #
straight-curve $-1 -24.89190451829538 42.379419678018856 10.779608426513391 1 0 0 I I #
coedge $-1 $268 $183 $186 $282 reversed $176 $-1 #
coedge $-1 $183 $268 $273 $350 forward $176 $-1 #
vertex $-1 $184 $354 #
straight-curve $-1 -65.02304331453351 46.205170947944822 82.819317070584475 0 0 1 I I #
straight-curve $-1 -65.02304331453351 -1.389672438915909 83.623612907884919 0 0.51503806187062418 -0.85716730853699208 I I #
edge $-1 $348 34.544574758648011 $188 65.02304331453351 $277 $355 forward 7 unknown #
point $-1 -65.02304331453351 46.205170947944822 10.779608426513388 #
point $-1 -65.02304331453351 42.379419678018863 10.779608426513391 #
edge $-1 $356 1 $356 0 $191 $-1 forward 7 unknown #
vertex $-1 $192 $357 #
ellipse-curve $-1 -56.314909441423367 40.416992391211984 5.2675318129993745 0 0.85716730853699208 0.51503806187062418 1.5 0 0 1 I I #
point $-1 -54.814909441423367 44.292295312981835 7.596048645257655 #
edge $-1 $358 1 $358 0 $195 $-1 forward 7 unknown #
vertex $-1 $196 $359 #
ellipse-curve $-1 -43.252708631758154 40.416992391211984 5.2675318129993745 0 0.85716730853699208 0.51503806187062418 1.5 0 0 1 I I #
point $-1 -41.752708631758154 44.292295312981835 7.596048645257655 #
loop $-1 $-1 $302 $199 #
plane-surface $-1 0 -46.205170947944822 0 0 1 0 0 0 1 forward_v I I I I #
coedge $-1 $296 $202 $210 $308 reversed $126 $-1 #
coedge $-1 $202 $295 $360 $361 forward $126 $-1 #
coedge $-1 $302 $362 $204 $298 forward $293 $-1 #
edge $-1 $300 54.222108049887481 $306 63.826714733708052 $297 $363 forward 7 unknown #
coedge $-1 $210 $205 $362 $364 forward $200 $-1 #
vertex $-1 $364 $365 #
straight-curve $-1 43.241995924622863 -69.902253432653964 10.779608426513391 0 -1 0 I I #
coedge $-1 $360 $297 $207 $303 forward $293 $-1 #
edge $-1 $306 12.526409507937494 $304 48.904763325433237 $302 $366 forward 7 unknown #
vertex $-1 $303 $367 #
straight-curve $-1 79.620349742118606 -31.363705919870419 11.957957473970321 0 0.80901698891910034 0.5877852598018023 I I #
vertex $-1 $303 $368 #
straight-curve $-1 43.241995924622863 -46.205170947944836 1.1750017426928139 0 0.80901698891910034 0.5877852598018023 I I #
edge $-1 $369 -46.205170947944822 $211 -32.985564213136819 $295 $370 forward 7 unknown #
point $-1 79.620349742118606 -32.985564213136819 10.77960842651339 #
point $-1 43.241995924622863 -32.985564213136819 10.77960842651339 #
edge $-1 $371 1 $371 0 $214 $-1 forward 7 unknown #
vertex $-1 $215 $372 #
ellipse-curve $-1 61.431172833370738 -31.471384927259159 -5.2043975433347089 0 -0.5877852598018023 0.80901698891910034 4 0 0 1 I I #
point $-1 65.431172833370738 -39.595367580540795 5.977305084603092 #
plane-surface $-1 79.620349742118606 0 0 -1 0 0 0 0 1 forward_v I I I I #
coedge $-1 $223 $221 $225 $320 reversed $141 $-1 #
edge $-1 $236 -10.779608426513388 $322 10.779608426513388 $235 $373 forward 7 unknown #
vertex $-1 $320 $374 #
straight-curve $-1 -79.620349742118606 -46.205170947944822 0 0 0 -1 I I #
edge $-1 $318 -46.205170947944822 $322 46.205170947944822 $316 $375 forward 7 unknown #
straight-curve $-1 0 -46.205170947944822 -10.779608426513388 -1 0 0 I I #
vertex $-1 $228 $376 #
straight-curve $-1 0 46.205170947944822 -10.779608426513388 1 0 0 I I #
point $-1 79.620349742118606 46.205170947944822 -10.779608426513388 #
point $-1 79.620349742118606 -46.205170947944822 -10.779608426513388 #
straight-curve $-1 -79.620349742118606 0 10.779608426513388 0 -1 0 I I #
point $-1 -79.620349742118606 46.205170947944822 10.779608426513388 #
point $-1 -79.620349742118606 -46.205170947944822 10.779608426513388 #
straight-curve $-1 79.620349742118606 -46.205170947944822 0 0 0 -1 I I #
straight-curve $-1 79.620349742118606 46.205170947944822 0 0 0 -1 I I #
plane-surface $-1 0 46.205170947944822 0 0 -1 0 0 0 -1 forward_v I I I I #
coedge $-1 $249 $248 $377 $378 forward $96 $-1 #
edge $-1 $252 70.357571411630545 $379 79.620349742118606 $251 $380 forward 7 unknown #
coedge $-1 $257 $256 $249 $335 reversed $258 $-1 #
edge $-1 $381 -79.620349742118606 $336 -70.357571411630545 $334 $382 forward 7 unknown #
vertex $-1 $264 $383 #
straight-curve $-1 -70.357571411630545 0 -10.779608426513388 0 -1 0 I I #
point $-1 -70.357571411630545 -46.205170947944822 -10.779608426513388 #
coedge $-1 $377 $254 $257 $342 forward $246 $-1 #
coedge $-1 $254 $377 $261 $344 reversed $246 $-1 #
straight-curve $-1 -79.620349742118606 0 -5.7203937853201516 0 1 0 I I #
edge $-1 $259 5.7203937853201516 $381 10.779608426513388 $257 $384 forward 7 unknown #
point $-1 -79.620349742118606 46.205170947944822 -5.7203937853201516 #
edge $-1 $262 5.7203937853201516 $379 10.779608426513388 $340 $385 forward 7 unknown #
point $-1 -79.620349742118606 -46.205170947944822 -5.7203937853201516 #
straight-curve $-1 -70.357571411630545 46.205170947944822 -4.1250005529583849 0 0 -1 I I #
edge $-1 $348 72.039708644071084 $351 78.406828206582489 $268 $386 forward 7 unknown #
vertex $-1 $282 $387 #
straight-curve $-1 -34.544574758648011 67.55312467376784 10.779608426513391 0 1 0 I I #
edge $-1 $351 9.6526702403526308 $279 40.131138796238133 $278 $388 forward 7 unknown #
vertex $-1 $350 $389 #
straight-curve $-1 -34.544574758648011 -1.389672438915909 83.623612907884919 0 -0.51503806187062418 0.85716730853699208 I I #
point $-1 -34.544574758648011 42.379419678018863 10.779608426513391 #
point $-1 -65.02304331453351 46.205170947944822 4.4124888640019861 #
straight-curve $-1 0 46.205170947944822 10.779608426513388 -1 0 0 I I #
vertex $-1 $285 $390 #
point $-1 -54.814909441423367 40.416992391211984 5.2675318129993745 #
vertex $-1 $289 $391 #
point $-1 -41.752708631758154 40.416992391211984 5.2675318129993745 #
coedge $-1 $362 $302 $296 $361 reversed $293 $-1 #
edge $-1 $369 -10.779608426513388 $304 -1.1750017426928241 $296 $392 forward 7 unknown #
coedge $-1 $297 $360 $299 $364 reversed $293 $-1 #
straight-curve $-1 43.241995924622863 -46.205170947944822 65.001716476400873 0 0 -1 I I #
edge $-1 $300 43.241995924622863 $369 79.620349742118606 $362 $393 forward 7 unknown #
point $-1 43.241995924622863 -46.205170947944822 10.779608426513388 #
straight-curve $-1 30.715586416685369 -46.205170947944822 1.1750017426928245 1 0 0 I I #
point $-1 79.620349742118606 -46.205170947944822 1.1750017426928241 #
point $-1 43.241995924622863 -46.205170947944822 1.1750017426928241 #
vertex $-1 $308 $394 #
straight-curve $-1 79.620349742118606 0 10.779608426513388 0 1 0 I I #
vertex $-1 $311 $395 #
point $-1 65.431172833370738 -31.471384927259159 -5.2043975433347089 #
straight-curve $-1 -79.620349742118606 46.205170947944822 0 0 0 -1 I I #
point $-1 -79.620349742118606 -46.205170947944822 -10.779608426513388 #
straight-curve $-1 -79.620349742118606 0 -10.779608426513388 0 1 0 I I #
point $-1 -79.620349742118606 46.205170947944822 -10.779608426513388 #
coedge $-1 $340 $339 $332 $378 reversed $246 $-1 #
edge $-1 $379 -46.205170947944822 $381 46.205170947944822 $377 $396 forward 7 unknown #
vertex $-1 $378 $397 #
straight-curve $-1 0 -46.205170947944822 -10.779608426513388 -1 0 0 I I #
vertex $-1 $335 $398 #
straight-curve $-1 0 46.205170947944822 -10.779608426513388 1 0 0 I I #
point $-1 -70.357571411630545 46.205170947944822 -10.779608426513388 #
straight-curve $-1 -79.620349742118606 46.205170947944822 0 0 0 -1 I I #
straight-curve $-1 -79.620349742118606 -46.205170947944822 0 0 0 -1 I I #
straight-curve $-1 -34.544574758648011 46.205170947944822 82.819317070584475 0 0 -1 I I #
point $-1 -34.544574758648011 46.205170947944822 10.779608426513388 #
straight-curve $-1 -24.89190451829538 46.205170947944822 4.4124888640019719 -1 0 0 I I #
point $-1 -34.544574758648011 46.205170947944822 4.4124888640019861 #
point $-1 -56.314909441423367 39.13124142840649 4.4949747201934382 #
point $-1 -43.252708631758154 39.13124142840649 4.4949747201934382 #
straight-curve $-1 79.620349742118606 -46.205170947944822 0 0 0 -1 I I #
straight-curve $-1 0 -46.205170947944822 10.779608426513388 1 0 0 I I #
point $-1 79.620349742118606 -46.205170947944822 10.779608426513388 #
point $-1 61.431172833370738 -29.120243888051952 -8.4404654990111094 #
straight-curve $-1 -79.620349742118606 0 -10.779608426513388 0 1 0 I I #
point $-1 -79.620349742118606 -46.205170947944822 -10.779608426513388 #
point $-1 -79.620349742118606 46.205170947944822 -10.779608426513388 #
End-of-ACIS-data 