500 0 8 0           
7 Unknown 11 ACIS 5.0 NT 24 Fri Mar 26 03:34:06 1999 
-1 9.9999999999999995e-007 1e-010 
body $-1 $8 $-1 $9 #
body $-1 $10 $-1 $11 #
body $-1 $12 $-1 $13 #
body $-1 $14 $-1 $15 #
body $-1 $16 $-1 $17 #
body $-1 $18 $-1 $19 #
body $-1 $20 $-1 $21 #
body $-1 $22 $-1 $23 #
lump $-1 $-1 $24 $0 #
transform $-1 1 0 0 0 1 0 0 0 1 42.220526749473557 22.831451754263338 4.6116508510267007 1 rotate no_reflect no_shear #
lump $-1 $-1 $25 $1 #
transform $-1 1 0 0 0 1 0 0 0 1 42.220526749473557 22.831451754263338 4.6116508510267007 1 rotate no_reflect no_shear #
lump $-1 $-1 $26 $2 #
transform $-1 1 0 0 0 1 0 0 0 1 42.220526749473557 22.831451754263338 4.6116508510267007 1 rotate no_reflect no_shear #
lump $-1 $-1 $27 $3 #
transform $-1 1 0 0 0 1 0 0 0 1 42.220526749473557 22.831451754263338 4.6116508510267007 1 rotate no_reflect no_shear #
lump $-1 $-1 $28 $4 #
transform $-1 1 0 0 0 1 0 0 0 1 42.220526749473557 22.831451754263338 4.6116508510267007 1 rotate no_reflect no_shear #
lump $-1 $-1 $29 $5 #
transform $-1 1 0 0 0 1 0 0 0 1 42.220526749473557 22.831451754263338 4.6116508510267007 1 rotate no_reflect no_shear #
lump $-1 $-1 $30 $6 #
transform $-1 1 0 0 0 1 0 0 0 1 42.220526749473557 22.831451754263338 4.6116508510267007 1 rotate no_reflect no_shear #
lump $-1 $-1 $31 $7 #
transform $-1 1 0 0 0 1 0 0 0 1 42.220526749473557 22.831451754263338 4.6116508510267007 1 rotate no_reflect no_shear #
shell $-1 $-1 $-1 $32 $-1 $8 #
shell $-1 $-1 $-1 $33 $-1 $10 #
shell $-1 $-1 $-1 $34 $-1 $12 #
shell $-1 $-1 $-1 $35 $-1 $14 #
shell $-1 $-1 $-1 $36 $-1 $16 #
shell $-1 $-1 $-1 $37 $-1 $18 #
shell $-1 $-1 $-1 $38 $-1 $20 #
shell $-1 $-1 $-1 $39 $-1 $22 #
face $-1 $40 $41 $24 $-1 $42 forward single #
face $-1 $43 $44 $25 $-1 $45 reversed single #
face $-1 $46 $47 $26 $-1 $48 reversed single #
face $-1 $49 $50 $27 $-1 $51 forward single #
face $-1 $52 $53 $28 $-1 $54 forward single #
face $-1 $55 $56 $29 $-1 $57 reversed single #
face $-1 $58 $59 $30 $-1 $60 forward single #
face $-1 $61 $62 $31 $-1 $63 forward single #
face $-1 $64 $65 $24 $-1 $66 reversed single #
loop $-1 $-1 $67 $32 #
plane-surface $-1 0 0 4.6116508510267007 0 0 1 1 0 0 forward_v I I I I #
face $-1 $68 $69 $25 $-1 $70 reversed single #
loop $-1 $-1 $71 $33 #
plane-surface $-1 0 -20.193640104501679 1.6116508510267007 0 0 1 1 0 0 forward_v I I I I #
face $-1 $72 $73 $26 $-1 $74 reversed single #
loop $-1 $-1 $75 $34 #
plane-surface $-1 62.957191465120594 2.6378116497616606 118.01784500557258 0 -1 0 -0.81915205242281985 0 -0.57357642473473569 forward_v I I I I #
face $-1 $76 $77 $27 $-1 $78 forward single #
loop $-1 $79 $80 $35 #
cone-surface $-1 40.01516261917039 -1.7188118503950136 1.9977453503569969 -0.81915205242281985 0 -0.57357642473473569 0.28678821236736785 0 -0.40957602621140993 1 I I 0 1 0.5 forward I I I I #
face $-1 $81 $82 $28 $-1 $83 forward single #
loop $-1 $84 $85 $36 #
cone-surface $-1 40.01516261917039 0.89516224969899127 1.9977453503569969 -0.81915205242281985 0 -0.57357642473473569 0.28678821236736785 0 -0.40957602621140993 1 I I 0 1 0.5 forward I I I I #
face $-1 $86 $87 $29 $-1 $88 reversed single #
loop $-1 $-1 $89 $37 #
plane-surface $-1 -6.2128708172870617 -0.41182480034801117 69.584447438811964 0.81915205242281985 0 0.57357642473473569 0.57357642473473569 0 -0.81915205242281985 forward_v I I I I #
face $-1 $90 $91 $30 $-1 $92 forward single #
loop $-1 $93 $94 $38 #
cone-surface $-1 40.01516261917039 4.3804610498243299 1.9977453503569969 -0.81915205242281985 0 -0.57357642473473569 0.28678821236736785 0 -0.40957602621140993 1 I I 0 1 0.5 forward I I I I #
face $-1 $95 $96 $31 $-1 $97 forward single #
loop $-1 $98 $99 $39 #
cone-surface $-1 40.01516261917039 6.9944351499183348 1.9977453503569969 -0.81915205242281985 0 -0.57357642473473569 0.28678821236736785 0 -0.40957602621140993 1 I I 0 1 0.5 forward I I I I #
face $-1 $100 $101 $24 $-1 $102 reversed single #
loop $-1 $-1 $103 $40 #
plane-surface $-1 0 0 -4.6116508510267007 0 0 1 1 0 0 forward_v I I I I #
coedge $-1 $104 $105 $106 $107 forward $41 $-1 #
face $-1 $108 $109 $25 $-1 $110 reversed single #
loop $-1 $-1 $111 $43 #
plane-surface $-1 0 -17.55582845474002 3.1116508510267007 0 -1 0 0 0 -1 forward_v I I I I #
coedge $-1 $112 $113 $114 $115 reversed $44 $-1 #
face $-1 $116 $117 $26 $-1 $118 reversed single #
loop $-1 $-1 $119 $46 #
plane-surface $-1 -6.2128708172870617 -0.41182480034801117 69.584447438811964 0.81915205242281985 0 0.57357642473473569 0.57357642473473569 0 -0.81915205242281985 forward_v I I I I #
coedge $-1 $120 $121 $122 $123 reversed $47 $-1 #
face $-1 $-1 $124 $27 $-1 $125 forward single #
loop $-1 $126 $127 $49 #
cone-surface $-1 39.074488971031535 -1.7188118503950136 1.3390785908148164 -0.81915205242281985 0 -0.57357642473473569 0.14339410618368392 0 -0.20478801310570496 1 I I -0.70710678118654746 0.70710678118654746 0.25 forward I I I I #
loop $-1 $-1 $128 $35 #
coedge $-1 $80 $80 $129 $130 reversed $50 $-1 #
face $-1 $-1 $131 $28 $-1 $132 forward single #
loop $-1 $133 $134 $52 #
cone-surface $-1 39.074488971031535 0.89516224969899127 1.3390785908148164 -0.81915205242281985 0 -0.57357642473473569 0.14339410618368392 0 -0.20478801310570496 1 I I -0.70710678118654746 0.70710678118654746 0.25 forward I I I I #
loop $-1 $-1 $135 $36 #
coedge $-1 $85 $85 $136 $137 reversed $53 $-1 #
face $-1 $138 $139 $29 $-1 $140 reversed single #
loop $-1 $-1 $141 $55 #
plane-surface $-1 62.957191465120594 8.7370845499810041 118.01784500557258 0 -1 0 -0.81915205242281985 0 -0.57357642473473569 forward_v I I I I #
coedge $-1 $142 $143 $144 $145 reversed $56 $-1 #
face $-1 $-1 $146 $30 $-1 $147 forward single #
loop $-1 $148 $149 $58 #
cone-surface $-1 39.074488971031535 4.3804610498243299 1.3390785908148164 -0.81915205242281985 0 -0.57357642473473569 0.14339410618368392 0 -0.20478801310570496 1 I I -0.70710678118654746 0.70710678118654746 0.25 forward I I I I #
loop $-1 $-1 $150 $38 #
coedge $-1 $94 $94 $151 $152 reversed $59 $-1 #
face $-1 $-1 $153 $31 $-1 $154 forward single #
loop $-1 $155 $156 $61 #
cone-surface $-1 39.074488971031535 6.9944351499183348 1.3390785908148164 -0.81915205242281985 0 -0.57357642473473569 0.14339410618368392 0 -0.20478801310570496 1 I I -0.70710678118654746 0.70710678118654746 0.25 forward I I I I #
loop $-1 $-1 $157 $39 #
coedge $-1 $99 $99 $158 $159 reversed $62 $-1 #
face $-1 $160 $161 $24 $-1 $162 reversed single #
loop $-1 $-1 $163 $64 #
plane-surface $-1 0 -22.831451754263338 0 0 1 0 0 0 1 forward_v I I I I #
coedge $-1 $164 $165 $166 $167 forward $65 $-1 #
coedge $-1 $168 $67 $169 $170 forward $41 $-1 #
coedge $-1 $67 $168 $171 $172 forward $41 $-1 #
coedge $-1 $173 $174 $67 $107 reversed $175 $-1 #
edge $-1 $176 -22.831451754263338 $177 22.831451754263338 $106 $178 forward 7 unknown #
face $-1 $179 $180 $25 $-1 $181 reversed single #
loop $-1 $-1 $182 $68 #
plane-surface $-1 -42.220526749473557 0 0 1 0 0 0 0 -1 forward_v I I I I #
coedge $-1 $183 $184 $185 $186 reversed $69 $-1 #
coedge $-1 $187 $71 $188 $189 reversed $44 $-1 #
coedge $-1 $71 $187 $183 $190 forward $44 $-1 #
coedge $-1 $185 $191 $71 $115 forward $192 $-1 #
edge $-1 $193 -12.734631702012498 $194 -7.4590084024891805 $114 $195 forward 7 unknown #
face $-1 $196 $197 $26 $-1 $198 reversed single #
loop $-1 $-1 $199 $72 #
plane-surface $-1 62.957191465120594 -3.4614612504576829 118.01784500557258 0 1 0 0.81915205242281985 0 0.57357642473473569 forward_v I I I I #
coedge $-1 $200 $201 $202 $203 reversed $73 $-1 #
coedge $-1 $121 $75 $204 $205 reversed $47 $-1 #
coedge $-1 $75 $120 $200 $206 reversed $47 $-1 #
coedge $-1 $202 $207 $75 $123 forward $208 $-1 #
edge $-1 $209 -10.741931016913259 $210 -7.8029740263732315 $122 $211 forward 7 unknown #
loop $-1 $-1 $129 $76 #
plane-surface $-1 -6.2128708172870617 -0.41182480034801117 69.584447438811964 0.81915205242281985 0 0.57357642473473569 0.57357642473473569 0 -0.81915205242281985 forward_v I I I I #
loop $-1 $-1 $212 $49 #
coedge $-1 $127 $127 $128 $213 reversed $77 $-1 #
coedge $-1 $128 $128 $127 $213 forward $79 $-1 #
coedge $-1 $129 $129 $80 $130 forward $124 $-1 #
edge $-1 $214 0 $214 6.2831853071796004 $129 $215 forward 7 unknown #
loop $-1 $-1 $136 $81 #
plane-surface $-1 -6.2128708172870617 -0.41182480034801117 69.584447438811964 0.81915205242281985 0 0.57357642473473569 0.57357642473473569 0 -0.81915205242281985 forward_v I I I I #
loop $-1 $-1 $216 $52 #
coedge $-1 $134 $134 $135 $217 reversed $82 $-1 #
coedge $-1 $135 $135 $134 $217 forward $84 $-1 #
coedge $-1 $136 $136 $85 $137 forward $131 $-1 #
edge $-1 $218 0 $218 6.2831853071796004 $136 $219 forward 7 unknown #
face $-1 $220 $221 $29 $-1 $222 forward single #
loop $-1 $-1 $223 $86 #
plane-surface $-1 42.220526749473557 0 0 -1 0 0 0 0 1 forward_v I I I I #
coedge $-1 $224 $225 $226 $227 reversed $87 $-1 #
coedge $-1 $228 $89 $229 $230 reversed $56 $-1 #
coedge $-1 $89 $228 $223 $231 reversed $56 $-1 #
coedge $-1 $232 $233 $89 $145 forward $221 $-1 #
edge $-1 $234 79.31713824755019 $235 84.441053498947113 $144 $236 forward 7 unknown #
loop $-1 $-1 $151 $90 #
plane-surface $-1 -6.2128708172870617 -0.41182480034801117 69.584447438811964 0.81915205242281985 0 0.57357642473473569 0.57357642473473569 0 -0.81915205242281985 forward_v I I I I #
loop $-1 $-1 $237 $58 #
coedge $-1 $149 $149 $150 $238 reversed $91 $-1 #
coedge $-1 $150 $150 $149 $238 forward $93 $-1 #
coedge $-1 $151 $151 $94 $152 forward $146 $-1 #
edge $-1 $239 0 $239 6.2831853071796004 $151 $240 forward 7 unknown #
loop $-1 $-1 $158 $95 #
plane-surface $-1 -6.2128708172870617 -0.41182480034801117 69.584447438811964 0.81915205242281985 0 0.57357642473473569 0.57357642473473569 0 -0.81915205242281985 forward_v I I I I #
loop $-1 $-1 $241 $61 #
coedge $-1 $156 $156 $157 $242 reversed $96 $-1 #
coedge $-1 $157 $157 $156 $242 forward $98 $-1 #
coedge $-1 $158 $158 $99 $159 forward $153 $-1 #
edge $-1 $243 0 $243 6.2831853071796004 $158 $244 forward 7 unknown #
face $-1 $245 $246 $24 $-1 $247 reversed single #
loop $-1 $-1 $248 $100 #
plane-surface $-1 -42.220526749473557 0 0 1 0 0 0 0 -1 forward_v I I I I #
coedge $-1 $249 $171 $250 $251 forward $101 $-1 #
coedge $-1 $252 $103 $249 $253 forward $65 $-1 #
coedge $-1 $103 $252 $254 $255 forward $65 $-1 #
coedge $-1 $174 $173 $103 $167 reversed $175 $-1 #
edge $-1 $256 -22.831451754263338 $257 22.831451754263338 $166 $258 forward 7 unknown #
coedge $-1 $105 $104 $259 $260 forward $41 $-1 #
coedge $-1 $261 $262 $104 $170 reversed $246 $-1 #
edge $-1 $177 -42.220526749473557 $263 42.220526749473557 $169 $264 forward 7 unknown #
coedge $-1 $163 $265 $105 $172 reversed $101 $-1 #
edge $-1 $266 -42.220526749473557 $176 42.220526749473557 $171 $267 forward 7 unknown #
coedge $-1 $166 $106 $265 $268 forward $175 $-1 #
coedge $-1 $106 $166 $261 $269 reversed $175 $-1 #
loop $-1 $-1 $173 $245 #
vertex $-1 $107 $270 #
vertex $-1 $107 $271 #
straight-curve $-1 42.220526749473557 0 4.6116508510267007 0 1 0 I I #
face $-1 $272 $273 $25 $-1 $274 forward single #
loop $-1 $-1 $188 $108 #
plane-surface $-1 0 -22.831451754263338 0 0 1 0 0 0 1 forward_v I I I I #
coedge $-1 $275 $276 $277 $278 forward $109 $-1 #
coedge $-1 $277 $111 $113 $190 reversed $69 $-1 #
coedge $-1 $111 $277 $279 $280 reversed $69 $-1 #
coedge $-1 $281 $114 $111 $186 forward $192 $-1 #
edge $-1 $194 0.055825425513350346 $282 3.0558254255133503 $185 $283 forward 7 unknown #
coedge $-1 $113 $112 $275 $284 reversed $44 $-1 #
coedge $-1 $285 $286 $112 $189 forward $180 $-1 #
edge $-1 $287 -42.220526749473557 $193 42.220526749473557 $188 $288 forward 7 unknown #
edge $-1 $289 -42.220526749473557 $194 42.220526749473557 $183 $290 forward 7 unknown #
coedge $-1 $114 $281 $285 $291 forward $192 $-1 #
loop $-1 $-1 $185 $272 #
vertex $-1 $189 $292 #
vertex $-1 $115 $293 #
straight-curve $-1 42.220526749473557 -10.096820052250839 1.6116508510267007 0 1 0 I I #
face $-1 $-1 $208 $26 $-1 $294 forward single #
loop $-1 $-1 $295 $116 #
plane-surface $-1 42.220526749473557 0 0 -1 0 0 0 0 1 forward_v I I I I #
coedge $-1 $296 $297 $298 $299 reversed $117 $-1 #
coedge $-1 $300 $119 $121 $206 forward $73 $-1 #
coedge $-1 $119 $300 $296 $301 forward $73 $-1 #
coedge $-1 $298 $122 $119 $203 forward $208 $-1 #
edge $-1 $210 -2.8437240499356662 $302 3.2555488502836774 $202 $303 forward 7 unknown #
coedge $-1 $304 $305 $120 $205 forward $197 $-1 #
edge $-1 $306 -58.594537346381983 $209 -54.397271651759588 $204 $307 forward 7 unknown #
edge $-1 $210 79.31713824755019 $306 84.441053498947113 $121 $308 forward 7 unknown #
coedge $-1 $122 $298 $304 $309 forward $208 $-1 #
loop $-1 $-1 $298 $196 #
vertex $-1 $205 $310 #
vertex $-1 $123 $311 #
straight-curve $-1 31.478595732560297 2.6378116497616606 4.6116508510267025 -1 0 0 I I #
coedge $-1 $212 $212 $-1 $312 reversed $126 $-1 #
edge $-1 $313 0 $313 6.2831853071796004 $127 $314 forward 7 unknown #
vertex $-1 $130 $315 #
ellipse-curve $-1 40.751048254203546 -1.7188118503950136 2.5130180037154992 0.81915205242281985 0 0.57357642473473569 0.28678821236736785 0 -0.40957602621140993 1 I I #
coedge $-1 $216 $216 $-1 $316 reversed $133 $-1 #
edge $-1 $317 0 $317 6.2831853071796004 $134 $318 forward 7 unknown #
vertex $-1 $137 $319 #
ellipse-curve $-1 40.751048254203546 0.89516224969899127 2.5130180037154992 0.81915205242281985 0 0.57357642473473569 0.28678821236736785 0 -0.40957602621140993 1 I I #
face $-1 $-1 $320 $29 $-1 $321 forward single #
loop $-1 $-1 $233 $138 #
plane-surface $-1 62.957191465120594 2.6378116497616606 118.01784500557258 0 -1 0 -0.81915205242281985 0 -0.57357642473473569 forward_v I I I I #
coedge $-1 $226 $322 $143 $231 forward $139 $-1 #
coedge $-1 $225 $141 $228 $323 reversed $87 $-1 #
coedge $-1 $141 $224 $324 $325 reversed $87 $-1 #
coedge $-1 $326 $223 $141 $227 forward $139 $-1 #
edge $-1 $327 -58.594537346381983 $328 -54.397271651759588 $226 $329 forward 7 unknown #
coedge $-1 $143 $142 $224 $323 forward $56 $-1 #
coedge $-1 $330 $324 $142 $230 forward $320 $-1 #
edge $-1 $331 -8.9429969501550097 $234 -2.8437240499356662 $229 $332 forward 7 unknown #
edge $-1 $235 2.8437240499356662 $327 8.9429969501550097 $223 $333 forward 7 unknown #
coedge $-1 $233 $144 $322 $334 reversed $221 $-1 #
coedge $-1 $144 $232 $330 $335 reversed $221 $-1 #
vertex $-1 $230 $336 #
vertex $-1 $231 $337 #
straight-curve $-1 -6.2128708172870617 2.6378116497616606 69.584447438811964 0.57357642473473569 0 -0.81915205242281985 I I #
coedge $-1 $237 $237 $-1 $338 reversed $148 $-1 #
edge $-1 $339 0 $339 6.2831853071796004 $149 $340 forward 7 unknown #
vertex $-1 $152 $341 #
ellipse-curve $-1 40.751048254203546 4.3804610498243299 2.5130180037154992 0.81915205242281985 0 0.57357642473473569 0.28678821236736785 0 -0.40957602621140993 1 I I #
coedge $-1 $241 $241 $-1 $342 reversed $155 $-1 #
edge $-1 $343 0 $343 6.2831853071796004 $156 $344 forward 7 unknown #
vertex $-1 $159 $345 #
ellipse-curve $-1 40.751048254203546 6.9944351499183348 2.5130180037154992 0.81915205242281985 0 0.57357642473473569 0.28678821236736785 0 -0.40957602621140993 1 I I #
face $-1 $-1 $175 $24 $-1 $346 reversed single #
loop $-1 $-1 $261 $160 #
plane-surface $-1 0 22.831451754263338 0 0 -1 0 0 0 -1 forward_v I I I I #
coedge $-1 $347 $259 $262 $348 forward $161 $-1 #
coedge $-1 $265 $163 $164 $253 reversed $101 $-1 #
coedge $-1 $259 $347 $163 $251 reversed $161 $-1 #
edge $-1 $266 -4.6116508510267007 $349 4.6116508510267007 $250 $350 forward 7 unknown #
coedge $-1 $165 $164 $347 $351 forward $65 $-1 #
edge $-1 $257 -42.220526749473557 $349 42.220526749473557 $249 $352 forward 7 unknown #
coedge $-1 $262 $261 $165 $255 reversed $246 $-1 #
edge $-1 $353 -42.220526749473557 $256 42.220526749473557 $254 $354 forward 7 unknown #
vertex $-1 $167 $355 #
vertex $-1 $268 $356 #
straight-curve $-1 42.220526749473557 0 -4.6116508510267007 0 -1 0 I I #
coedge $-1 $248 $250 $168 $260 reversed $161 $-1 #
edge $-1 $263 -22.831451754263338 $266 22.831451754263338 $259 $357 forward 7 unknown #
coedge $-1 $254 $169 $174 $269 forward $246 $-1 #
coedge $-1 $169 $254 $248 $348 reversed $246 $-1 #
vertex $-1 $170 $358 #
straight-curve $-1 0 22.831451754263338 4.6116508510267007 -1 0 0 I I #
coedge $-1 $171 $249 $173 $268 reversed $101 $-1 #
vertex $-1 $260 $359 #
straight-curve $-1 0 -22.831451754263338 4.6116508510267007 1 0 0 I I #
edge $-1 $176 -4.6116508510267007 $257 4.6116508510267007 $173 $360 forward 7 unknown #
edge $-1 $177 -4.6116508510267007 $256 4.6116508510267007 $174 $361 forward 7 unknown #
point $-1 42.220526749473557 -22.831451754263338 4.6116508510267007 #
point $-1 42.220526749473557 22.831451754263338 4.6116508510267007 #
face $-1 $-1 $192 $25 $-1 $362 reversed single #
loop $-1 $-1 $279 $179 #
plane-surface $-1 0 0 4.6116508510267007 0 0 1 1 0 0 forward_v I I I I #
coedge $-1 $363 $182 $187 $284 forward $109 $-1 #
coedge $-1 $182 $363 $364 $365 reversed $109 $-1 #
coedge $-1 $184 $183 $182 $278 reversed $69 $-1 #
edge $-1 $366 -3.0558254255133503 $289 -0.055825425513350346 $182 $367 forward 7 unknown #
coedge $-1 $364 $368 $184 $280 forward $273 $-1 #
edge $-1 $282 -42.220526749473557 $366 42.220526749473557 $279 $369 forward 7 unknown #
coedge $-1 $191 $185 $368 $370 reversed $192 $-1 #
vertex $-1 $186 $371 #
straight-curve $-1 42.220526749473557 -17.55582845474002 1.5558254255133503 0 0 1 I I #
edge $-1 $289 7.4590084024891805 $287 12.734631702012498 $275 $372 forward 7 unknown #
coedge $-1 $373 $188 $191 $291 reversed $180 $-1 #
coedge $-1 $188 $373 $363 $374 forward $180 $-1 #
vertex $-1 $189 $375 #
straight-curve $-1 0 -22.831451754263338 1.6116508510267007 1 0 0 I I #
vertex $-1 $284 $376 #
straight-curve $-1 0 -17.55582845474002 1.6116508510267007 1 0 0 I I #
edge $-1 $377 -4.6116508510267007 $193 -1.6116508510267007 $191 $378 forward 7 unknown #
point $-1 42.220526749473557 -22.831451754263338 1.6116508510267007 #
point $-1 42.220526749473557 -17.55582845474002 1.6116508510267007 #
plane-surface $-1 0 0 4.6116508510267007 0 0 1 1 0 0 forward_v I I I I #
coedge $-1 $305 $304 $297 $379 forward $197 $-1 #
coedge $-1 $297 $199 $201 $301 reversed $117 $-1 #
coedge $-1 $199 $296 $295 $379 reversed $117 $-1 #
coedge $-1 $207 $202 $199 $299 forward $208 $-1 #
edge $-1 $302 7.8029740263732315 $380 10.741931016913259 $298 $381 forward 7 unknown #
coedge $-1 $201 $200 $305 $382 reversed $73 $-1 #
edge $-1 $383 -84.441053498947113 $302 -79.31713824755019 $296 $384 forward 7 unknown #
vertex $-1 $203 $385 #
straight-curve $-1 39.281569758933514 -0.20591240017400558 4.6116508510267025 0 -1 0 I I #
coedge $-1 $295 $204 $207 $309 reversed $197 $-1 #
coedge $-1 $204 $295 $300 $382 forward $197 $-1 #
vertex $-1 $205 $386 #
straight-curve $-1 42.220526749473557 2.6378116497616606 59.008922502786291 0 0 1 I I #
straight-curve $-1 -6.2128708172870617 2.6378116497616606 69.584447438811964 0.57357642473473569 0 -0.81915205242281985 I I #
edge $-1 $380 -3.4614612504576829 $209 2.6378116497616606 $304 $387 forward 7 unknown #
point $-1 42.220526749473557 2.6378116497616606 4.6116508510267007 #
point $-1 39.281569758933529 2.6378116497616606 4.6116508510266954 #
edge $-1 $388 1 $388 0 $212 $-1 forward 7 unknown #
vertex $-1 $213 $389 #
ellipse-curve $-1 39.27927698413724 -1.7188118503950136 1.4824726969985003 0.81915205242281985 0 0.57357642473473569 0.28678821236736785 0 -0.40957602621140993 1 I I #
point $-1 41.037836466570909 -1.7188118503950136 2.103441977504084 #
edge $-1 $390 1 $390 0 $216 $-1 forward 7 unknown #
vertex $-1 $217 $391 #
ellipse-curve $-1 39.27927698413724 0.89516224969899127 1.4824726969985003 0.81915205242281985 0 0.57357642473473569 0.28678821236736785 0 -0.40957602621140993 1 I I #
point $-1 41.037836466570909 0.89516224969899127 2.103441977504084 #
loop $-1 $-1 $229 $220 #
plane-surface $-1 0 0 4.6116508510267007 0 0 1 1 0 0 forward_v I I I I #
coedge $-1 $223 $326 $232 $334 forward $139 $-1 #
edge $-1 $331 79.31713824755019 $327 84.441053498947113 $224 $392 forward 7 unknown #
coedge $-1 $229 $393 $225 $325 forward $320 $-1 #
edge $-1 $328 -10.741931016913259 $331 -7.8029740263732315 $324 $394 forward 7 unknown #
coedge $-1 $322 $226 $393 $395 reversed $139 $-1 #
vertex $-1 $227 $396 #
vertex $-1 $227 $397 #
straight-curve $-1 42.220526749473557 8.7370845499810041 59.008922502786291 0 0 1 I I #
coedge $-1 $393 $229 $233 $335 forward $320 $-1 #
vertex $-1 $325 $398 #
straight-curve $-1 39.281569758933514 -0.20591240017400558 4.6116508510267025 0 -1 0 I I #
straight-curve $-1 42.220526749473557 -0.20591240017400558 0.41438515640431461 0 1 0 I I #
edge $-1 $399 54.397271651759588 $235 58.594537346381983 $322 $400 forward 7 unknown #
edge $-1 $234 7.8029740263732315 $399 10.741931016913259 $330 $401 forward 7 unknown #
point $-1 39.281569758933529 2.6378116497616606 4.6116508510266954 #
point $-1 42.220526749473557 2.6378116497616606 0.41438515640430751 #
edge $-1 $402 1 $402 0 $237 $-1 forward 7 unknown #
vertex $-1 $238 $403 #
ellipse-curve $-1 39.27927698413724 4.3804610498243299 1.4824726969985003 0.81915205242281985 0 0.57357642473473569 0.28678821236736785 0 -0.40957602621140993 1 I I #
point $-1 41.037836466570909 4.3804610498243299 2.103441977504084 #
edge $-1 $404 1 $404 0 $241 $-1 forward 7 unknown #
vertex $-1 $242 $405 #
ellipse-curve $-1 39.27927698413724 6.9944351499183348 1.4824726969985003 0.81915205242281985 0 0.57357642473473569 0.28678821236736785 0 -0.40957602621140993 1 I I #
point $-1 41.037836466570909 6.9944351499183348 2.103441977504084 #
plane-surface $-1 42.220526749473557 0 0 -1 0 0 0 0 1 forward_v I I I I #
coedge $-1 $250 $248 $252 $351 reversed $161 $-1 #
edge $-1 $263 -4.6116508510267007 $353 4.6116508510267007 $262 $406 forward 7 unknown #
vertex $-1 $351 $407 #
straight-curve $-1 -42.220526749473557 -22.831451754263338 0 0 0 -1 I I #
edge $-1 $349 -22.831451754263338 $353 22.831451754263338 $347 $408 forward 7 unknown #
straight-curve $-1 0 -22.831451754263338 -4.6116508510267007 -1 0 0 I I #
vertex $-1 $255 $409 #
straight-curve $-1 0 22.831451754263338 -4.6116508510267007 1 0 0 I I #
point $-1 42.220526749473557 22.831451754263338 -4.6116508510267007 #
point $-1 42.220526749473557 -22.831451754263338 -4.6116508510267007 #
straight-curve $-1 -42.220526749473557 0 4.6116508510267007 0 -1 0 I I #
point $-1 -42.220526749473557 22.831451754263338 4.6116508510267007 #
point $-1 -42.220526749473557 -22.831451754263338 4.6116508510267007 #
straight-curve $-1 42.220526749473557 -22.831451754263338 0 0 0 -1 I I #
straight-curve $-1 42.220526749473557 22.831451754263338 0 0 0 -1 I I #
plane-surface $-1 42.220526749473557 0 0 -1 0 0 0 0 1 forward_v I I I I #
coedge $-1 $276 $275 $286 $374 reversed $109 $-1 #
coedge $-1 $410 $279 $276 $365 forward $273 $-1 #
edge $-1 $366 17.55582845474002 $411 22.831451754263338 $276 $412 forward 7 unknown #
vertex $-1 $365 $413 #
straight-curve $-1 -42.220526749473557 -17.55582845474002 1.5558254255133503 0 0 -1 I I #
coedge $-1 $279 $410 $281 $370 forward $273 $-1 #
straight-curve $-1 0 -17.55582845474002 4.6116508510267007 -1 0 0 I I #
edge $-1 $377 -22.831451754263338 $282 -17.55582845474002 $281 $414 forward 7 unknown #
point $-1 42.220526749473557 -17.55582845474002 4.6116508510267007 #
straight-curve $-1 -42.220526749473557 -10.096820052250839 1.6116508510267007 0 -1 0 I I #
coedge $-1 $286 $285 $410 $415 reversed $180 $-1 #
edge $-1 $411 -4.6116508510267007 $287 -1.6116508510267007 $363 $416 forward 7 unknown #
point $-1 -42.220526749473557 -22.831451754263338 1.6116508510267007 #
point $-1 -42.220526749473557 -17.55582845474002 1.6116508510267007 #
vertex $-1 $370 $417 #
straight-curve $-1 42.220526749473557 -22.831451754263338 0 0 0 -1 I I #
edge $-1 $380 54.397271651759588 $383 58.594537346381983 $295 $418 forward 7 unknown #
vertex $-1 $309 $419 #
straight-curve $-1 31.478595732560297 -3.4614612504576829 4.6116508510267025 1 0 0 I I #
edge $-1 $383 -3.2555488502836774 $306 2.8437240499356662 $305 $420 forward 7 unknown #
vertex $-1 $382 $421 #
straight-curve $-1 -6.2128708172870617 -3.4614612504576829 69.584447438811964 -0.57357642473473569 0 0.81915205242281985 I I #
point $-1 39.281569758933529 -3.4614612504576829 4.6116508510266954 #
point $-1 42.220526749473557 2.6378116497616606 0.41438515640430751 #
straight-curve $-1 42.220526749473557 0 4.6116508510267007 0 1 0 I I #
vertex $-1 $312 $422 #
point $-1 39.56606519650461 -1.7188118503950136 1.0728966707870904 #
vertex $-1 $316 $423 #
point $-1 39.56606519650461 0.89516224969899127 1.0728966707870904 #
straight-curve $-1 -6.2128708172870617 8.7370845499810041 69.584447438811964 0.57357642473473569 0 -0.81915205242281985 I I #
coedge $-1 $324 $330 $326 $395 forward $320 $-1 #
straight-curve $-1 31.478595732560297 8.7370845499810041 4.6116508510267025 -1 0 0 I I #
edge $-1 $399 2.6378116497616606 $328 8.7370845499810041 $326 $424 forward 7 unknown #
point $-1 42.220526749473557 8.7370845499810041 0.41438515640430751 #
point $-1 42.220526749473557 8.7370845499810041 4.6116508510267007 #
point $-1 39.281569758933529 8.7370845499810041 4.6116508510266954 #
vertex $-1 $395 $425 #
straight-curve $-1 42.220526749473557 2.6378116497616606 59.008922502786291 0 0 -1 I I #
straight-curve $-1 31.478595732560297 2.6378116497616606 4.6116508510267025 1 0 0 I I #
vertex $-1 $338 $426 #
point $-1 39.56606519650461 4.3804610498243299 1.0728966707870904 #
vertex $-1 $342 $427 #
point $-1 39.56606519650461 6.9944351499183348 1.0728966707870904 #
straight-curve $-1 -42.220526749473557 22.831451754263338 0 0 0 -1 I I #
point $-1 -42.220526749473557 -22.831451754263338 -4.6116508510267007 #
straight-curve $-1 -42.220526749473557 0 -4.6116508510267007 0 1 0 I I #
point $-1 -42.220526749473557 22.831451754263338 -4.6116508510267007 #
coedge $-1 $368 $364 $373 $415 forward $273 $-1 #
vertex $-1 $365 $428 #
straight-curve $-1 -42.220526749473557 0 4.6116508510267007 0 -1 0 I I #
point $-1 -42.220526749473557 -17.55582845474002 4.6116508510267007 #
straight-curve $-1 42.220526749473557 0 4.6116508510267007 0 1 0 I I #
edge $-1 $411 -42.220526749473557 $377 42.220526749473557 $373 $429 forward 7 unknown #
straight-curve $-1 -42.220526749473557 -22.831451754263338 0 0 0 -1 I I #
point $-1 42.220526749473557 -22.831451754263338 4.6116508510267007 #
straight-curve $-1 42.220526749473557 -3.4614612504576829 59.008922502786291 0 0 -1 I I #
point $-1 42.220526749473557 -3.4614612504576829 4.6116508510267007 #
straight-curve $-1 42.220526749473557 -0.20591240017400558 0.41438515640431461 0 1 0 I I #
point $-1 42.220526749473557 -3.4614612504576829 0.41438515640430751 #
point $-1 38.869700957925829 -1.7188118503950136 1.1956844846311325 #
point $-1 38.869700957925829 0.89516224969899127 1.1956844846311325 #
straight-curve $-1 42.220526749473557 0 4.6116508510267007 0 1 0 I I #
point $-1 42.220526749473557 2.6378116497616606 4.6116508510267007 #
point $-1 38.869700957925829 4.3804610498243299 1.1956844846311325 #
point $-1 38.869700957925829 6.9944351499183348 1.1956844846311325 #
point $-1 -42.220526749473557 -22.831451754263338 4.6116508510267007 #
straight-curve $-1 0 -22.831451754263338 4.6116508510267007 1 0 0 I I #
End-of-ACIS-data 