500 0 4 0           
7 Unknown 11 ACIS 5.0 NT 24 Fri Mar 26 20:10:17 1999 
-1 9.9999999999999995e-007 1e-010 
body $-1 $4 $-1 $5 #
body $-1 $6 $-1 $7 #
body $-1 $8 $-1 $9 #
body $-1 $10 $-1 $11 #
lump $-1 $-1 $12 $0 #
transform $-1 1 0 0 0 1 0 0 0 1 64.563737907040618 30.435023299653029 14.118518163448467 1 rotate no_reflect no_shear #
lump $-1 $-1 $13 $1 #
transform $-1 1 0 0 0 1 0 0 0 1 64.563737907040618 30.435023299653029 14.118518163448467 1 rotate no_reflect no_shear #
lump $-1 $-1 $14 $2 #
transform $-1 1 0 0 0 1 0 0 0 1 64.563737907040618 30.435023299653029 14.118518163448467 1 rotate no_reflect no_shear #
lump $-1 $-1 $15 $3 #
transform $-1 1 0 0 0 1 0 0 0 1 64.563737907040618 30.435023299653029 14.118518163448467 1 rotate no_reflect no_shear #
shell $-1 $-1 $-1 $16 $-1 $4 #
shell $-1 $-1 $-1 $17 $-1 $6 #
shell $-1 $-1 $-1 $18 $-1 $8 #
shell $-1 $-1 $-1 $19 $-1 $10 #
face $-1 $20 $21 $12 $-1 $22 forward single #
face $-1 $23 $24 $13 $-1 $25 reversed single #
face $-1 $26 $27 $14 $-1 $28 forward single #
face $-1 $29 $30 $15 $-1 $31 reversed single #
face $-1 $32 $33 $12 $-1 $34 reversed single #
loop $-1 $-1 $35 $16 #
plane-surface $-1 0 0 14.118518163448467 0 0 1 1 0 0 forward_v I I I I #
face $-1 $36 $37 $13 $-1 $38 reversed single #
loop $-1 $-1 $39 $17 #
plane-surface $-1 -40.25306031803315 -48.478823010665067 0 0 1 0 0 0 1 forward_v I I I I #
face $-1 $40 $41 $14 $-1 $42 forward single #
loop $-1 $-1 $43 $18 #
plane-surface $-1 -144.06255116877077 -7.3418201518014818 102.59874704748792 0 1 0 -0.61566148304635926 0 0.78801074757464917 forward_v I I I I #
face $-1 $44 $45 $15 $-1 $46 reversed single #
loop $-1 $47 $48 $19 #
cone-surface $-1 -54.642840116102754 -2.5240520122002224 5.6562924788681102 0.61566148304635926 0 -0.78801074757464917 1.1820161213619738 0 0.92349222456953894 1 I I 0 1 1.5 forward I I I I #
face $-1 $49 $50 $12 $-1 $51 reversed single #
loop $-1 $-1 $52 $20 #
plane-surface $-1 0 0 -14.118518163448467 0 0 1 1 0 0 forward_v I I I I #
coedge $-1 $53 $54 $55 $56 forward $21 $-1 #
face $-1 $57 $58 $13 $-1 $59 reversed single #
loop $-1 $-1 $60 $23 #
plane-surface $-1 -44.179419055922615 -39.456923155159046 0 1 0 0 0 0 -1 forward_v I I I I #
coedge $-1 $61 $62 $63 $64 forward $24 $-1 #
face $-1 $65 $66 $14 $-1 $67 forward single #
loop $-1 $-1 $68 $26 #
plane-surface $-1 -64.563737907040633 -2.5240520122002224 0.844908298806331 -0.61566148304635926 0 0.78801074757464917 0.78801074757464917 0 0.61566148304635926 forward_v I I I I #
coedge $-1 $69 $70 $71 $72 reversed $27 $-1 #
face $-1 $73 $74 $15 $-1 $75 forward single #
loop $-1 $76 $77 $29 #
cone-surface $-1 -52.75491897894868 -2.5240520122002224 3.2398636659278388 0.61566148304635926 0 -0.78801074757464917 0.59100806068098688 0 0.46174611228476947 1 I I -0.70710678118654757 0.70710678118654757 0.75 forward I I I I #
loop $-1 $-1 $78 $19 #
coedge $-1 $48 $48 $79 $80 reversed $30 $-1 #
face $-1 $81 $82 $12 $-1 $83 reversed single #
loop $-1 $-1 $84 $32 #
plane-surface $-1 0 -30.435023299653029 0 0 1 0 0 0 1 forward_v I I I I #
coedge $-1 $85 $86 $87 $88 forward $33 $-1 #
coedge $-1 $89 $35 $90 $91 forward $21 $-1 #
coedge $-1 $35 $89 $92 $93 forward $21 $-1 #
coedge $-1 $94 $95 $35 $56 reversed $96 $-1 #
edge $-1 $97 -30.435023299653029 $98 30.435023299653029 $55 $99 forward 7 unknown #
face $-1 $100 $101 $13 $-1 $102 reversed single #
loop $-1 $-1 $103 $36 #
plane-surface $-1 -36.326701580143684 -39.456923155159046 0 -1 0 0 0 0 1 forward_v I I I I #
coedge $-1 $104 $105 $106 $107 reversed $37 $-1 #
coedge $-1 $108 $39 $109 $110 reversed $24 $-1 #
coedge $-1 $39 $108 $111 $112 reversed $24 $-1 #
coedge $-1 $105 $104 $39 $64 reversed $37 $-1 #
edge $-1 $113 -14.118518163448467 $114 14.118518163448467 $63 $115 forward 7 unknown #
face $-1 $116 $117 $14 $-1 $118 forward single #
loop $-1 $-1 $119 $40 #
plane-surface $-1 -144.06255116877077 2.2937161274010371 102.59874704748792 0 -1 0 0.61566148304635926 0 -0.78801074757464917 forward_v I I I I #
coedge $-1 $120 $121 $122 $123 reversed $41 $-1 #
coedge $-1 $70 $43 $121 $124 forward $27 $-1 #
coedge $-1 $43 $69 $125 $126 reversed $27 $-1 #
coedge $-1 $127 $122 $43 $72 forward $117 $-1 #
edge $-1 $128 -24.456983209481876 $129 -7.4675376773447653 $71 $130 forward 7 unknown #
face $-1 $131 $132 $15 $-1 $133 forward single #
loop $-1 $-1 $134 $44 #
plane-surface $-1 -144.06255116877077 -7.3418201518014818 102.59874704748792 0 1 0 -0.61566148304635926 0 0.78801074757464917 forward_v I I I I #
loop $-1 $-1 $135 $29 #
coedge $-1 $77 $77 $78 $136 forward $45 $-1 #
coedge $-1 $78 $78 $77 $136 reversed $47 $-1 #
coedge $-1 $79 $79 $48 $80 forward $132 $-1 #
edge $-1 $137 0 $137 6.2831853071796004 $79 $138 forward 7 unknown #
face $-1 $139 $140 $12 $-1 $141 reversed single #
loop $-1 $-1 $142 $49 #
plane-surface $-1 -64.563737907040618 0 0 1 0 0 0 0 -1 forward_v I I I I #
coedge $-1 $143 $92 $144 $145 forward $50 $-1 #
coedge $-1 $146 $52 $143 $147 forward $33 $-1 #
coedge $-1 $52 $146 $148 $149 forward $33 $-1 #
coedge $-1 $95 $94 $52 $88 reversed $96 $-1 #
edge $-1 $150 -30.435023299653029 $151 30.435023299653029 $87 $152 forward 7 unknown #
coedge $-1 $54 $53 $153 $154 forward $21 $-1 #
coedge $-1 $155 $156 $53 $91 reversed $140 $-1 #
edge $-1 $98 -64.563737907040618 $157 64.563737907040618 $90 $158 forward 7 unknown #
coedge $-1 $84 $159 $54 $93 reversed $50 $-1 #
edge $-1 $160 -64.563737907040618 $97 64.563737907040618 $92 $161 forward 7 unknown #
coedge $-1 $87 $55 $159 $162 forward $96 $-1 #
coedge $-1 $55 $87 $155 $163 reversed $96 $-1 #
loop $-1 $-1 $94 $139 #
vertex $-1 $56 $164 #
vertex $-1 $56 $165 #
straight-curve $-1 64.563737907040618 0 14.118518163448467 0 1 0 I I #
face $-1 $166 $167 $13 $-1 $102 reversed single #
loop $-1 $-1 $106 $57 #
plane-surface $-1 0 -30.435023299653029 0 0 1 0 0 0 1 forward_v I I I I #
coedge $-1 $168 $169 $108 $170 forward $58 $-1 #
coedge $-1 $63 $60 $171 $172 reversed $37 $-1 #
coedge $-1 $60 $63 $173 $174 reversed $37 $-1 #
coedge $-1 $175 $176 $60 $107 forward $101 $-1 #
edge $-1 $177 -14.118518163448467 $178 14.118518163448467 $106 $179 forward 7 unknown #
coedge $-1 $62 $61 $103 $170 reversed $24 $-1 #
coedge $-1 $171 $180 $61 $110 forward $181 $-1 #
edge $-1 $182 -3.9263587378894655 $114 3.9263587378894655 $61 $183 forward 7 unknown #
coedge $-1 $184 $173 $62 $112 forward $185 $-1 #
edge $-1 $113 -3.9263587378894655 $186 3.9263587378894655 $62 $187 forward 7 unknown #
vertex $-1 $174 $188 #
vertex $-1 $172 $189 #
straight-curve $-1 -44.179419055922615 -48.478823010665067 0 0 0 -1 I I #
face $-1 $190 $191 $14 $-1 $192 reversed single #
loop $-1 $-1 $193 $65 #
plane-surface $-1 0 0 14.118518163448467 0 0 1 1 0 0 forward_v I I I I #
coedge $-1 $194 $195 $193 $196 reversed $66 $-1 #
coedge $-1 $197 $68 $195 $198 reversed $41 $-1 #
coedge $-1 $68 $197 $69 $124 reversed $41 $-1 #
coedge $-1 $71 $193 $68 $123 forward $117 $-1 #
edge $-1 $199 -3.5557421335011483 $128 6.0797941457013707 $122 $200 forward 7 unknown #
edge $-1 $128 -21.559916009302519 $201 -1.8033521786330445e-014 $69 $202 forward 7 unknown #
coedge $-1 $203 $204 $70 $126 forward $205 $-1 #
edge $-1 $129 37.180855360295496 $201 50.454465224937614 $125 $206 forward 7 unknown #
coedge $-1 $207 $71 $204 $208 forward $117 $-1 #
vertex $-1 $123 $209 #
vertex $-1 $208 $210 #
straight-curve $-1 -72.031275584385384 -7.3418201518014818 14.118518163448464 -1 0 0 I I #
face $-1 $211 $212 $15 $-1 $213 forward single #
loop $-1 $214 $79 $73 #
plane-surface $-1 -64.563737907040633 -2.5240520122002224 0.844908298806331 -0.61566148304635926 0 0.78801074757464917 0.78801074757464917 0 0.61566148304635926 forward_v I I I I #
coedge $-1 $215 $216 $217 $218 reversed $74 $-1 #
coedge $-1 $135 $135 $-1 $219 forward $76 $-1 #
edge $-1 $220 0 $220 6.2831853071796004 $77 $221 forward 7 unknown #
vertex $-1 $80 $222 #
ellipse-curve $-1 -56.069015140972063 -2.5240520122002224 7.4817132311274035 0.61566148304635926 0 -0.78801074757464917 1.1820161213619738 0 0.92349222456953894 1 I I #
face $-1 $-1 $96 $12 $-1 $223 reversed single #
loop $-1 $-1 $155 $81 #
plane-surface $-1 0 30.435023299653029 0 0 -1 0 0 0 -1 forward_v I I I I #
coedge $-1 $224 $153 $156 $225 forward $82 $-1 #
coedge $-1 $159 $84 $85 $147 reversed $50 $-1 #
coedge $-1 $153 $224 $84 $145 reversed $82 $-1 #
edge $-1 $160 -14.118518163448467 $226 14.118518163448467 $144 $227 forward 7 unknown #
coedge $-1 $86 $85 $224 $228 forward $33 $-1 #
edge $-1 $151 -64.563737907040618 $226 64.563737907040618 $143 $229 forward 7 unknown #
coedge $-1 $156 $155 $86 $149 reversed $140 $-1 #
edge $-1 $230 -64.563737907040618 $150 64.563737907040618 $148 $231 forward 7 unknown #
vertex $-1 $88 $232 #
vertex $-1 $162 $233 #
straight-curve $-1 64.563737907040618 0 -14.118518163448467 0 -1 0 I I #
coedge $-1 $142 $144 $89 $154 reversed $82 $-1 #
edge $-1 $157 -30.435023299653029 $160 30.435023299653029 $153 $234 forward 7 unknown #
coedge $-1 $148 $90 $95 $163 forward $140 $-1 #
coedge $-1 $90 $148 $142 $225 reversed $140 $-1 #
vertex $-1 $91 $235 #
straight-curve $-1 0 30.435023299653029 14.118518163448467 -1 0 0 I I #
coedge $-1 $92 $143 $94 $162 reversed $50 $-1 #
vertex $-1 $154 $236 #
straight-curve $-1 0 -30.435023299653029 14.118518163448467 1 0 0 I I #
edge $-1 $97 -14.118518163448467 $151 14.118518163448467 $94 $237 forward 7 unknown #
edge $-1 $98 -14.118518163448467 $150 14.118518163448467 $95 $238 forward 7 unknown #
point $-1 64.563737907040618 -30.435023299653029 14.118518163448467 #
point $-1 64.563737907040618 30.435023299653029 14.118518163448467 #
face $-1 $239 $185 $13 $-1 $240 forward single #
loop $-1 $-1 $241 $100 #
coedge $-1 $242 $103 $180 $243 reversed $58 $-1 #
coedge $-1 $103 $242 $184 $244 reversed $58 $-1 #
edge $-1 $186 -14.118518163448467 $182 14.118518163448467 $103 $245 forward 7 unknown #
coedge $-1 $246 $109 $104 $172 forward $181 $-1 #
edge $-1 $114 -9.021899855506021 $177 9.021899855506021 $104 $247 forward 7 unknown #
coedge $-1 $111 $248 $105 $174 forward $185 $-1 #
edge $-1 $178 -9.021899855506021 $113 9.021899855506021 $105 $249 forward 7 unknown #
coedge $-1 $250 $106 $248 $251 reversed $101 $-1 #
coedge $-1 $106 $250 $246 $252 reversed $101 $-1 #
vertex $-1 $252 $253 #
vertex $-1 $174 $254 #
straight-curve $-1 -44.179419055922615 -30.435023299653029 0 0 0 1 I I #
coedge $-1 $109 $255 $168 $243 forward $181 $-1 #
loop $-1 $-1 $256 $239 #
vertex $-1 $170 $257 #
straight-curve $-1 -40.25306031803315 -48.478823010665067 -14.118518163448467 -1 0 0 I I #
coedge $-1 $258 $111 $169 $244 forward $185 $-1 #
loop $-1 $-1 $259 $166 #
vertex $-1 $244 $260 #
straight-curve $-1 -40.25306031803315 -48.478823010665067 14.118518163448467 1 0 0 I I #
point $-1 -44.179419055922615 -48.478823010665067 14.118518163448467 #
point $-1 -44.179419055922615 -48.478823010665067 -14.118518163448467 #
face $-1 $261 $262 $14 $-1 $263 reversed single #
loop $-1 $-1 $264 $116 #
plane-surface $-1 -40.25306031803315 -48.478823010665067 0 0 1 0 0 0 1 forward_v I I I I #
coedge $-1 $122 $265 $119 $196 forward $117 $-1 #
coedge $-1 $195 $119 $266 $267 reversed $66 $-1 #
coedge $-1 $119 $194 $120 $198 forward $66 $-1 #
edge $-1 $268 7.4675376773447653 $199 24.456983209481876 $193 $269 forward 7 unknown #
coedge $-1 $121 $120 $203 $270 reversed $41 $-1 #
edge $-1 $271 1.8033521786330445e-014 $199 21.559916009302519 $195 $272 forward 7 unknown #
vertex $-1 $123 $273 #
straight-curve $-1 -47.574292374903507 -1.2620260061001112 14.118518163448467 0 -1 0 I I #
vertex $-1 $270 $274 #
straight-curve $-1 -64.563737907040633 -7.3418201518014818 0.844908298806331 -0.78801074757464917 0 -0.61566148304635926 I I #
coedge $-1 $266 $125 $197 $270 forward $205 $-1 #
coedge $-1 $125 $275 $127 $208 reversed $205 $-1 #
loop $-1 $-1 $266 $276 #
straight-curve $-1 -64.563737907040618 -7.3418201518014818 51.299373523743959 0 0 -1 I I #
coedge $-1 $277 $127 $278 $279 forward $117 $-1 #
edge $-1 $129 7.3418201518014818 $280 30.435023299653029 $204 $281 forward 7 unknown #
point $-1 -47.574292374903507 -7.3418201518014818 14.118518163448467 #
point $-1 -64.563737907040618 -7.3418201518014818 14.118518163448467 #
face $-1 $282 $283 $15 $-1 $284 forward single #
loop $-1 $-1 $285 $131 #
plane-surface $-1 -144.06255116877077 2.2937161274010371 102.59874704748792 0 -1 0 0.61566148304635926 0 -0.78801074757464917 forward_v I I I I #
loop $-1 $-1 $286 $73 #
coedge $-1 $216 $134 $287 $288 forward $74 $-1 #
coedge $-1 $134 $215 $289 $290 reversed $74 $-1 #
coedge $-1 $291 $292 $134 $218 forward $283 $-1 #
edge $-1 $293 -24.456983209481876 $294 -7.4675376773447653 $217 $295 forward 7 unknown #
edge $-1 $296 1 $296 0 $135 $-1 forward 7 unknown #
vertex $-1 $136 $297 #
ellipse-curve $-1 -53.216665091233452 -2.5240520122002224 3.8308717266088257 -0.61566148304635926 0 0.78801074757464917 1.1820161213619738 0 0.92349222456953894 1 I I #
point $-1 -54.88699901961008 -2.5240520122002224 8.4052054556969331 #
plane-surface $-1 64.563737907040618 0 0 -1 0 0 0 0 1 forward_v I I I I #
coedge $-1 $144 $142 $146 $228 reversed $82 $-1 #
edge $-1 $157 -14.118518163448467 $230 14.118518163448467 $156 $298 forward 7 unknown #
vertex $-1 $228 $299 #
straight-curve $-1 -64.563737907040618 -30.435023299653029 0 0 0 -1 I I #
edge $-1 $226 -30.435023299653029 $230 30.435023299653029 $224 $300 forward 7 unknown #
straight-curve $-1 0 -30.435023299653029 -14.118518163448467 -1 0 0 I I #
vertex $-1 $149 $301 #
straight-curve $-1 0 30.435023299653029 -14.118518163448467 1 0 0 I I #
point $-1 64.563737907040618 30.435023299653029 -14.118518163448467 #
point $-1 64.563737907040618 -30.435023299653029 -14.118518163448467 #
straight-curve $-1 -64.563737907040618 0 14.118518163448467 0 -1 0 I I #
point $-1 -64.563737907040618 30.435023299653029 14.118518163448467 #
point $-1 -64.563737907040618 -30.435023299653029 14.118518163448467 #
straight-curve $-1 64.563737907040618 -30.435023299653029 0 0 0 -1 I I #
straight-curve $-1 64.563737907040618 30.435023299653029 0 0 0 -1 I I #
face $-1 $302 $181 $13 $-1 $303 reversed single #
plane-surface $-1 0 0 14.118518163448467 0 0 1 1 0 0 forward_v I I I I #
coedge $-1 $304 $305 $242 $306 forward $167 $-1 #
coedge $-1 $169 $168 $241 $306 reversed $58 $-1 #
edge $-1 $307 -9.021899855506021 $182 9.021899855506021 $168 $308 forward 7 unknown #
edge $-1 $186 -9.021899855506021 $309 9.021899855506021 $169 $310 forward 7 unknown #
straight-curve $-1 -36.326701580143684 -48.478823010665067 0 0 0 -1 I I #
coedge $-1 $311 $171 $176 $252 forward $181 $-1 #
straight-curve $-1 -44.179419055922615 -39.456923155159046 -14.118518163448467 0 1 0 I I #
coedge $-1 $173 $312 $175 $251 forward $185 $-1 #
straight-curve $-1 -44.179419055922615 -39.456923155159046 14.118518163448467 0 -1 0 I I #
coedge $-1 $176 $175 $313 $314 forward $101 $-1 #
edge $-1 $315 -64.563737907040618 $178 -44.179419055922615 $175 $316 forward 7 unknown #
edge $-1 $177 44.179419055922615 $317 64.563737907040618 $176 $318 forward 7 unknown #
point $-1 -44.179419055922615 -30.435023299653025 -14.118518163448467 #
point $-1 -44.179419055922615 -30.435023299653025 14.118518163448467 #
coedge $-1 $180 $256 $304 $319 forward $181 $-1 #
coedge $-1 $255 $320 $321 $322 forward $181 $-1 #
point $-1 -36.326701580143684 -48.478823010665067 -14.118518163448467 #
coedge $-1 $259 $184 $305 $323 forward $185 $-1 #
coedge $-1 $324 $258 $325 $326 forward $185 $-1 #
point $-1 -36.326701580143684 -48.478823010665067 14.118518163448467 #
face $-1 $327 $328 $14 $-1 $329 reversed single #
loop $-1 $-1 $330 $190 #
plane-surface $-1 -44.179419055922615 -39.456923155159046 0 1 0 0 0 0 -1 forward_v I I I I #
coedge $-1 $331 $332 $333 $334 forward $191 $-1 #
coedge $-1 $193 $335 $336 $337 forward $117 $-1 #
coedge $-1 $336 $203 $194 $267 forward $205 $-1 #
edge $-1 $271 -50.454465224937614 $268 -37.180855360295496 $266 $338 forward 7 unknown #
vertex $-1 $267 $339 #
straight-curve $-1 -72.031275584385384 2.2937161274010371 14.118518163448464 1 0 0 I I #
edge $-1 $201 -6.0797941457013707 $271 3.5557421335011483 $203 $340 forward 7 unknown #
vertex $-1 $270 $341 #
straight-curve $-1 -64.563737907040633 2.2937161274010371 0.844908298806331 0.78801074757464917 0 0.61566148304635926 I I #
point $-1 -47.574292374903507 2.2937161274010371 14.118518163448467 #
point $-1 -64.563737907040618 -7.3418201518014818 0.84490829880634211 #
coedge $-1 $204 $342 $343 $344 reversed $205 $-1 #
face $-1 $345 $205 $14 $-1 $346 reversed single #
coedge $-1 $347 $207 $348 $349 forward $117 $-1 #
coedge $-1 $343 $350 $207 $279 reversed $351 $-1 #
edge $-1 $280 -64.563737907040618 $352 -44.179419055922615 $278 $353 forward 7 unknown #
vertex $-1 $208 $354 #
straight-curve $-1 -64.563737907040618 0 14.118518163448467 0 -1 0 I I #
face $-1 $355 $356 $15 $-1 $357 reversed single #
loop $-1 $-1 $358 $211 #
plane-surface $-1 0 0 14.118518163448467 0 0 1 1 0 0 forward_v I I I I #
coedge $-1 $359 $360 $358 $361 reversed $212 $-1 #
coedge $-1 $362 $287 $292 $363 reversed $214 $-1 #
coedge $-1 $286 $364 $215 $288 reversed $214 $-1 #
edge $-1 $293 -21.559916009302519 $365 -1.8033521786330445e-014 $215 $366 forward 7 unknown #
coedge $-1 $367 $368 $216 $290 forward $369 $-1 #
edge $-1 $294 37.180855360295496 $365 50.454465224937614 $289 $370 forward 7 unknown #
coedge $-1 $371 $217 $368 $372 forward $283 $-1 #
coedge $-1 $217 $358 $286 $363 forward $283 $-1 #
vertex $-1 $363 $373 #
vertex $-1 $372 $374 #
straight-curve $-1 -72.031275584385384 -7.3418201518014818 14.118518163448464 -1 0 0 I I #
vertex $-1 $219 $375 #
point $-1 -52.034648969871476 -2.5240520122002224 4.7543639511783642 #
straight-curve $-1 -64.563737907040618 30.435023299653029 0 0 0 -1 I I #
point $-1 -64.563737907040618 -30.435023299653029 -14.118518163448467 #
straight-curve $-1 -64.563737907040618 0 -14.118518163448467 0 1 0 I I #
point $-1 -64.563737907040618 30.435023299653029 -14.118518163448467 #
face $-1 $376 $377 $13 $-1 $378 reversed single #
plane-surface $-1 0 0 -14.118518163448467 0 0 1 1 0 0 forward_v I I I I #
coedge $-1 $379 $241 $255 $319 reversed $167 $-1 #
coedge $-1 $241 $379 $258 $323 reversed $167 $-1 #
edge $-1 $309 -14.118518163448467 $307 14.118518163448467 $241 $380 forward 7 unknown #
vertex $-1 $243 $381 #
straight-curve $-1 -36.326701580143684 -39.456923155159046 -14.118518163448467 0 -1 0 I I #
vertex $-1 $323 $382 #
straight-curve $-1 -36.326701580143684 -39.456923155159046 14.118518163448467 0 1 0 I I #
coedge $-1 $320 $246 $383 $384 forward $181 $-1 #
coedge $-1 $248 $324 $385 $386 forward $185 $-1 #
coedge $-1 $385 $383 $250 $314 reversed $377 $-1 #
edge $-1 $315 -14.118518163448467 $317 14.118518163448467 $313 $387 forward 7 unknown #
vertex $-1 $386 $388 #
straight-curve $-1 0 -30.435023299653029 14.118518163448467 1 0 0 I I #
vertex $-1 $384 $389 #
straight-curve $-1 0 -30.435023299653029 -14.118518163448467 -1 0 0 I I #
edge $-1 $390 -64.563737907040618 $307 36.326701580143684 $304 $318 forward 7 unknown #
coedge $-1 $256 $311 $391 $392 forward $181 $-1 #
coedge $-1 $393 $394 $256 $322 reversed $395 $-1 #
edge $-1 $396 -30.435023299653029 $390 30.435023299653029 $321 $397 forward 7 unknown #
edge $-1 $309 -36.326701580143684 $398 64.563737907040618 $305 $316 forward 7 unknown #
coedge $-1 $312 $259 $399 $400 forward $185 $-1 #
coedge $-1 $394 $393 $259 $326 reversed $395 $-1 #
edge $-1 $398 -30.435023299653029 $401 30.435023299653029 $325 $402 forward 7 unknown #
face $-1 $403 $351 $14 $-1 $404 reversed single #
loop $-1 $-1 $405 $261 #
plane-surface $-1 -36.326701580143684 -39.456923155159046 0 -1 0 0 0 0 1 forward_v I I I I #
coedge $-1 $406 $348 $350 $407 reversed $262 $-1 #
coedge $-1 $408 $264 $409 $410 reversed $191 $-1 #
coedge $-1 $264 $408 $347 $411 reversed $191 $-1 #
coedge $-1 $348 $406 $264 $334 reversed $262 $-1 #
edge $-1 $412 -14.118518163448467 $413 14.118518163448467 $333 $414 forward 7 unknown #
coedge $-1 $265 $415 $416 $417 forward $117 $-1 #
coedge $-1 $418 $266 $265 $337 reversed $205 $-1 #
edge $-1 $419 -30.435023299653029 $268 -2.2937161274010371 $336 $281 forward 7 unknown #
straight-curve $-1 -64.563737907040618 2.2937161274010371 51.299373523743959 0 0 1 I I #
point $-1 -64.563737907040618 2.2937161274010371 14.118518163448467 #
straight-curve $-1 -64.563737907040618 -1.2620260061001112 0.8449082988063451 0 1 0 I I #
point $-1 -64.563737907040618 2.2937161274010371 0.84490829880634211 #
coedge $-1 $275 $418 $420 $421 reversed $205 $-1 #
coedge $-1 $422 $278 $275 $344 forward $351 $-1 #
edge $-1 $280 -14.118518163448467 $423 14.118518163448467 $275 $424 forward 7 unknown #
face $-1 $425 $426 $14 $-1 $427 reversed single #
plane-surface $-1 -64.563737907040618 0 0 1 0 0 0 0 -1 forward_v I I I I #
coedge $-1 $428 $277 $332 $411 forward $117 $-1 #
coedge $-1 $330 $333 $277 $349 reversed $262 $-1 #
edge $-1 $352 -9.021899855506021 $412 9.021899855506021 $348 $429 forward 7 unknown #
coedge $-1 $278 $422 $330 $407 forward $351 $-1 #
loop $-1 $-1 $350 $327 #
vertex $-1 $349 $430 #
straight-curve $-1 0 -30.435023299653029 14.118518163448467 1 0 0 I I #
point $-1 -64.563737907040618 -30.435023299653029 14.118518163448467 #
face $-1 $431 $432 $15 $-1 $433 reversed single #
loop $-1 $-1 $434 $282 #
plane-surface $-1 -40.25306031803315 -48.478823010665067 0 0 1 0 0 0 1 forward_v I I I I #
coedge $-1 $292 $435 $285 $361 forward $283 $-1 #
coedge $-1 $360 $285 $436 $437 reversed $212 $-1 #
coedge $-1 $285 $359 $362 $438 forward $212 $-1 #
edge $-1 $439 7.4675376773447653 $440 24.456983209481876 $358 $441 forward 7 unknown #
coedge $-1 $364 $286 $360 $438 reversed $214 $-1 #
edge $-1 $440 -3.5557421335011483 $293 6.0797941457013707 $292 $442 forward 7 unknown #
coedge $-1 $287 $362 $367 $443 reversed $214 $-1 #
vertex $-1 $443 $444 #
straight-curve $-1 -64.563737907040633 -7.3418201518014818 0.844908298806331 -0.78801074757464917 0 -0.61566148304635926 I I #
coedge $-1 $436 $289 $364 $443 forward $369 $-1 #
coedge $-1 $289 $445 $291 $372 reversed $369 $-1 #
loop $-1 $-1 $436 $446 #
straight-curve $-1 -64.563737907040618 -7.3418201518014818 51.299373523743959 0 0 -1 I I #
coedge $-1 $447 $291 $448 $449 forward $283 $-1 #
edge $-1 $294 7.3418201518014818 $450 30.435023299653029 $368 $451 forward 7 unknown #
point $-1 -47.574292374903507 -7.3418201518014818 14.118518163448467 #
point $-1 -64.563737907040618 -7.3418201518014818 14.118518163448467 #
point $-1 -52.293172866663909 -2.5240520122002224 2.6488556052468519 #
face $-1 $452 $453 $13 $-1 $454 reversed single #
loop $-1 $-1 $455 $302 #
plane-surface $-1 -64.563737907040618 0 0 1 0 0 0 0 -1 forward_v I I I I #
coedge $-1 $305 $304 $394 $456 reversed $167 $-1 #
straight-curve $-1 -36.326701580143684 -30.435023299653029 0 0 0 -1 I I #
point $-1 -36.326701580143684 -30.435023299653025 -14.118518163448467 #
point $-1 -36.326701580143684 -30.435023299653025 14.118518163448467 #
coedge $-1 $313 $455 $311 $384 reversed $377 $-1 #
edge $-1 $317 -30.435023299653029 $457 30.435023299653029 $383 $458 forward 7 unknown #
coedge $-1 $455 $313 $312 $386 reversed $377 $-1 #
edge $-1 $459 -30.435023299653029 $315 30.435023299653029 $385 $460 forward 7 unknown #
straight-curve $-1 -64.563737907040618 -30.435023299653029 0 0 0 -1 I I #
point $-1 -64.563737907040618 -30.435023299653029 14.118518163448467 #
point $-1 -64.563737907040618 -30.435023299653029 -14.118518163448467 #
vertex $-1 $456 $461 #
coedge $-1 $462 $463 $320 $392 reversed $453 $-1 #
edge $-1 $457 -64.563737907040618 $396 64.563737907040618 $391 $464 forward 7 unknown #
coedge $-1 $325 $321 $463 $465 reversed $395 $-1 #
coedge $-1 $321 $325 $379 $456 forward $395 $-1 #
loop $-1 $-1 $394 $452 #
vertex $-1 $322 $466 #
straight-curve $-1 64.563737907040618 0 -14.118518163448467 0 -1 0 I I #
vertex $-1 $326 $467 #
coedge $-1 $463 $462 $324 $400 reversed $453 $-1 #
edge $-1 $401 -64.563737907040618 $459 64.563737907040618 $399 $468 forward 7 unknown #
vertex $-1 $326 $469 #
straight-curve $-1 64.563737907040618 0 14.118518163448467 0 1 0 I I #
face $-1 $470 $471 $14 $-1 $404 reversed single #
plane-surface $-1 0 -30.435023299653029 0 0 1 0 0 0 1 forward_v I I I I #
coedge $-1 $472 $473 $408 $474 forward $328 $-1 #
coedge $-1 $333 $330 $475 $476 reversed $262 $-1 #
edge $-1 $477 -14.118518163448467 $352 14.118518163448467 $350 $478 forward 7 unknown #
coedge $-1 $332 $331 $405 $474 reversed $191 $-1 #
coedge $-1 $475 $479 $331 $410 forward $480 $-1 #
edge $-1 $481 -3.9263587378894655 $413 3.9263587378894655 $331 $482 forward 7 unknown #
edge $-1 $412 -3.9263587378894655 $483 3.9263587378894655 $332 $484 forward 7 unknown #
vertex $-1 $349 $485 #
vertex $-1 $476 $486 #
straight-curve $-1 -44.179419055922615 -48.478823010665067 0 0 0 -1 I I #
coedge $-1 $335 $487 $488 $489 forward $117 $-1 #
coedge $-1 $490 $491 $335 $417 reversed $426 $-1 #
edge $-1 $492 -64.563737907040618 $419 64.563737907040618 $416 $493 forward 7 unknown #
coedge $-1 $342 $336 $491 $494 forward $205 $-1 #
vertex $-1 $417 $495 #
coedge $-1 $496 $497 $342 $421 forward $480 $-1 #
edge $-1 $423 -30.435023299653029 $498 30.435023299653029 $342 $499 forward 7 unknown #
coedge $-1 $350 $343 $497 $500 reversed $351 $-1 #
vertex $-1 $421 $501 #
straight-curve $-1 -64.563737907040618 -30.435023299653029 0 0 0 -1 I I #
face $-1 $-1 $502 $14 $-1 $503 reversed single #
loop $-1 $-1 $490 $345 #
plane-surface $-1 0 30.435023299653029 0 0 -1 0 0 0 -1 forward_v I I I I #
coedge $-1 $487 $347 $473 $504 forward $117 $-1 #
straight-curve $-1 -44.179419055922615 -39.456923155159046 14.118518163448467 0 -1 0 I I #
point $-1 -44.179419055922615 -30.435023299653025 14.118518163448467 #
face $-1 $505 $506 $15 $-1 $507 reversed single #
loop $-1 $-1 $508 $355 #
plane-surface $-1 -44.179419055922615 -39.456923155159046 0 1 0 0 0 0 -1 forward_v I I I I #
coedge $-1 $509 $510 $511 $512 forward $356 $-1 #
coedge $-1 $358 $513 $514 $515 forward $283 $-1 #
coedge $-1 $514 $367 $359 $437 forward $369 $-1 #
edge $-1 $516 -50.454465224937614 $439 -37.180855360295496 $436 $517 forward 7 unknown #
edge $-1 $516 1.8033521786330445e-014 $440 21.559916009302519 $360 $518 forward 7 unknown #
vertex $-1 $437 $519 #
vertex $-1 $363 $520 #
straight-curve $-1 -72.031275584385384 2.2937161274010371 14.118518163448464 1 0 0 I I #
straight-curve $-1 -47.574292374903507 -1.2620260061001112 14.118518163448467 0 -1 0 I I #
edge $-1 $365 -6.0797941457013707 $516 3.5557421335011483 $367 $521 forward 7 unknown #
point $-1 -64.563737907040618 -7.3418201518014818 0.84490829880634211 #
coedge $-1 $368 $522 $523 $524 reversed $369 $-1 #
face $-1 $525 $369 $15 $-1 $526 reversed single #
coedge $-1 $527 $371 $528 $529 forward $283 $-1 #
coedge $-1 $523 $530 $371 $449 reversed $531 $-1 #
edge $-1 $450 -64.563737907040618 $532 -44.179419055922615 $448 $533 forward 7 unknown #
vertex $-1 $372 $534 #
straight-curve $-1 -64.563737907040618 0 14.118518163448467 0 -1 0 I I #
face $-1 $-1 $395 $13 $-1 $535 reversed single #
loop $-1 $-1 $463 $376 #
plane-surface $-1 0 30.435023299653029 0 0 -1 0 0 0 -1 forward_v I I I I #
coedge $-1 $383 $385 $462 $536 forward $377 $-1 #
edge $-1 $398 -14.118518163448467 $390 14.118518163448467 $394 $537 forward 7 unknown #
vertex $-1 $392 $538 #
straight-curve $-1 -64.563737907040618 0 -14.118518163448467 0 1 0 I I #
vertex $-1 $400 $539 #
straight-curve $-1 -64.563737907040618 0 14.118518163448467 0 -1 0 I I #
point $-1 64.563737907040618 -30.435023299653029 -14.118518163448467 #
coedge $-1 $399 $391 $455 $536 reversed $453 $-1 #
coedge $-1 $391 $399 $393 $465 forward $453 $-1 #
straight-curve $-1 0 30.435023299653029 -14.118518163448467 1 0 0 I I #
edge $-1 $401 -14.118518163448467 $396 14.118518163448467 $393 $540 forward 7 unknown #
point $-1 64.563737907040618 30.435023299653029 -14.118518163448467 #
point $-1 64.563737907040618 -30.435023299653029 14.118518163448467 #
straight-curve $-1 0 30.435023299653029 14.118518163448467 -1 0 0 I I #
point $-1 64.563737907040618 30.435023299653029 14.118518163448467 #
face $-1 $276 $480 $14 $-1 $541 reversed single #
loop $-1 $-1 $542 $403 #
coedge $-1 $543 $405 $479 $544 reversed $328 $-1 #
coedge $-1 $405 $543 $428 $504 reversed $328 $-1 #
edge $-1 $483 -14.118518163448467 $481 14.118518163448467 $405 $545 forward 7 unknown #
coedge $-1 $497 $409 $406 $476 forward $480 $-1 #
edge $-1 $413 -9.021899855506021 $477 9.021899855506021 $406 $546 forward 7 unknown #
vertex $-1 $500 $547 #
straight-curve $-1 -44.179419055922615 -30.435023299653029 0 0 0 1 I I #
coedge $-1 $409 $548 $472 $544 forward $480 $-1 #
loop $-1 $-1 $549 $470 #
vertex $-1 $474 $550 #
straight-curve $-1 -40.25306031803315 -48.478823010665067 -14.118518163448467 -1 0 0 I I #
vertex $-1 $504 $551 #
straight-curve $-1 -40.25306031803315 -48.478823010665067 14.118518163448467 1 0 0 I I #
point $-1 -44.179419055922615 -48.478823010665067 14.118518163448467 #
point $-1 -44.179419055922615 -48.478823010665067 -14.118518163448467 #
coedge $-1 $415 $428 $552 $553 forward $117 $-1 #
coedge $-1 $554 $555 $415 $489 reversed $502 $-1 #
edge $-1 $556 -30.435023299653029 $492 30.435023299653029 $488 $557 forward 7 unknown #
coedge $-1 $558 $416 $555 $559 forward $426 $-1 #
coedge $-1 $416 $558 $418 $494 reversed $426 $-1 #
vertex $-1 $489 $560 #
straight-curve $-1 0 30.435023299653029 14.118518163448467 -1 0 0 I I #
edge $-1 $419 -14.118518163448467 $498 14.118518163448467 $491 $561 forward 7 unknown #
point $-1 -64.563737907040618 30.435023299653029 14.118518163448467 #
coedge $-1 $549 $420 $558 $562 forward $480 $-1 #
coedge $-1 $420 $475 $422 $500 forward $480 $-1 #
vertex $-1 $562 $563 #
straight-curve $-1 -64.563737907040618 0 -14.118518163448467 0 1 0 I I #
edge $-1 $477 44.179419055922615 $423 64.563737907040618 $422 $564 forward 7 unknown #
point $-1 -64.563737907040618 -30.435023299653029 -14.118518163448467 #
loop $-1 $-1 $554 $425 #
plane-surface $-1 64.563737907040618 0 0 -1 0 0 0 0 1 forward_v I I I I #
edge $-1 $483 -9.021899855506021 $565 9.021899855506021 $473 $566 forward 7 unknown #
face $-1 $567 $531 $15 $-1 $568 reversed single #
loop $-1 $-1 $569 $431 #
plane-surface $-1 -36.326701580143684 -39.456923155159046 0 -1 0 0 0 0 1 forward_v I I I I #
coedge $-1 $570 $528 $530 $571 reversed $432 $-1 #
coedge $-1 $572 $434 $573 $574 reversed $356 $-1 #
coedge $-1 $434 $572 $527 $575 reversed $356 $-1 #
coedge $-1 $528 $570 $434 $512 reversed $432 $-1 #
edge $-1 $576 -14.118518163448467 $577 14.118518163448467 $511 $578 forward 7 unknown #
coedge $-1 $435 $579 $580 $581 forward $283 $-1 #
coedge $-1 $582 $436 $435 $515 reversed $369 $-1 #
edge $-1 $583 -30.435023299653029 $439 -2.2937161274010371 $514 $451 forward 7 unknown #
vertex $-1 $443 $584 #
straight-curve $-1 -64.563737907040618 2.2937161274010371 51.299373523743959 0 0 1 I I #
straight-curve $-1 -64.563737907040633 2.2937161274010371 0.844908298806331 0.78801074757464917 0 0.61566148304635926 I I #
point $-1 -64.563737907040618 2.2937161274010371 14.118518163448467 #
point $-1 -47.574292374903507 2.2937161274010371 14.118518163448467 #
straight-curve $-1 -64.563737907040618 -1.2620260061001112 0.8449082988063451 0 1 0 I I #
coedge $-1 $445 $582 $585 $586 reversed $369 $-1 #
coedge $-1 $587 $448 $445 $524 forward $531 $-1 #
edge $-1 $450 -14.118518163448467 $588 14.118518163448467 $445 $589 forward 7 unknown #
face $-1 $590 $591 $15 $-1 $592 reversed single #
plane-surface $-1 -64.563737907040618 0 0 1 0 0 0 0 -1 forward_v I I I I #
coedge $-1 $593 $447 $510 $575 forward $283 $-1 #
coedge $-1 $508 $511 $447 $529 reversed $432 $-1 #
edge $-1 $532 -9.021899855506021 $576 9.021899855506021 $528 $594 forward 7 unknown #
coedge $-1 $448 $587 $508 $571 forward $531 $-1 #
loop $-1 $-1 $530 $505 #
vertex $-1 $529 $595 #
straight-curve $-1 0 -30.435023299653029 14.118518163448467 1 0 0 I I #
point $-1 -64.563737907040618 -30.435023299653029 14.118518163448467 #
plane-surface $-1 64.563737907040618 0 0 -1 0 0 0 0 1 forward_v I I I I #
edge $-1 $459 -14.118518163448467 $457 14.118518163448467 $462 $596 forward 7 unknown #
straight-curve $-1 64.563737907040618 -30.435023299653029 0 0 0 -1 I I #
point $-1 -64.563737907040618 30.435023299653029 -14.118518163448467 #
point $-1 -64.563737907040618 30.435023299653029 14.118518163448467 #
straight-curve $-1 64.563737907040618 30.435023299653029 0 0 0 -1 I I #
plane-surface $-1 0 0 -14.118518163448467 0 0 1 1 0 0 forward_v I I I I #
coedge $-1 $597 $552 $543 $598 forward $471 $-1 #
coedge $-1 $473 $472 $542 $598 reversed $328 $-1 #
edge $-1 $599 -9.021899855506021 $481 9.021899855506021 $472 $600 forward 7 unknown #
straight-curve $-1 -36.326701580143684 -48.478823010665067 0 0 0 -1 I I #
straight-curve $-1 -44.179419055922615 -39.456923155159046 -14.118518163448467 0 1 0 I I #
point $-1 -44.179419055922615 -30.435023299653025 -14.118518163448467 #
coedge $-1 $479 $549 $597 $601 forward $480 $-1 #
coedge $-1 $548 $496 $602 $603 forward $480 $-1 #
point $-1 -36.326701580143684 -48.478823010665067 -14.118518163448467 #
point $-1 -36.326701580143684 -48.478823010665067 14.118518163448467 #
coedge $-1 $542 $604 $487 $553 reversed $471 $-1 #
edge $-1 $565 -36.326701580143684 $556 64.563737907040618 $552 $353 forward 7 unknown #
coedge $-1 $602 $488 $604 $605 forward $502 $-1 #
coedge $-1 $488 $602 $490 $559 reversed $502 $-1 #
vertex $-1 $489 $606 #
straight-curve $-1 64.563737907040618 0 14.118518163448467 0 1 0 I I #
coedge $-1 $491 $490 $496 $562 reversed $426 $-1 #
edge $-1 $492 -14.118518163448467 $607 14.118518163448467 $555 $608 forward 7 unknown #
point $-1 64.563737907040618 30.435023299653029 14.118518163448467 #
straight-curve $-1 -64.563737907040618 30.435023299653029 0 0 0 -1 I I #
edge $-1 $498 -64.563737907040618 $607 64.563737907040618 $558 $609 forward 7 unknown #
point $-1 -64.563737907040618 30.435023299653029 -14.118518163448467 #
straight-curve $-1 0 -30.435023299653029 -14.118518163448467 -1 0 0 I I #
vertex $-1 $553 $610 #
straight-curve $-1 -36.326701580143684 -39.456923155159046 14.118518163448467 0 1 0 I I #
face $-1 $611 $612 $15 $-1 $568 reversed single #
plane-surface $-1 0 -30.435023299653029 0 0 1 0 0 0 1 forward_v I I I I #
coedge $-1 $613 $614 $572 $615 forward $506 $-1 #
coedge $-1 $511 $508 $616 $617 reversed $432 $-1 #
edge $-1 $618 -14.118518163448467 $532 14.118518163448467 $530 $619 forward 7 unknown #
coedge $-1 $510 $509 $569 $615 reversed $356 $-1 #
coedge $-1 $616 $620 $509 $574 forward $621 $-1 #
edge $-1 $622 -3.9263587378894655 $577 3.9263587378894655 $509 $623 forward 7 unknown #
edge $-1 $576 -3.9263587378894655 $624 3.9263587378894655 $510 $625 forward 7 unknown #
vertex $-1 $529 $626 #
vertex $-1 $617 $627 #
straight-curve $-1 -44.179419055922615 -48.478823010665067 0 0 0 -1 I I #
coedge $-1 $513 $628 $629 $630 forward $283 $-1 #
coedge $-1 $631 $632 $513 $581 reversed $591 $-1 #
edge $-1 $633 -64.563737907040618 $583 64.563737907040618 $580 $634 forward 7 unknown #
coedge $-1 $522 $514 $632 $635 forward $369 $-1 #
vertex $-1 $581 $636 #
point $-1 -64.563737907040618 2.2937161274010371 0.84490829880634211 #
coedge $-1 $637 $638 $522 $586 forward $621 $-1 #
edge $-1 $588 -30.435023299653029 $639 30.435023299653029 $522 $640 forward 7 unknown #
coedge $-1 $530 $523 $638 $641 reversed $531 $-1 #
vertex $-1 $586 $642 #
straight-curve $-1 -64.563737907040618 -30.435023299653029 0 0 0 -1 I I #
face $-1 $-1 $643 $15 $-1 $644 reversed single #
loop $-1 $-1 $631 $525 #
plane-surface $-1 0 30.435023299653029 0 0 -1 0 0 0 -1 forward_v I I I I #
coedge $-1 $628 $527 $614 $645 forward $283 $-1 #
straight-curve $-1 -44.179419055922615 -39.456923155159046 14.118518163448467 0 -1 0 I I #
point $-1 -44.179419055922615 -30.435023299653025 14.118518163448467 #
straight-curve $-1 -64.563737907040618 30.435023299653029 0 0 0 -1 I I #
coedge $-1 $604 $542 $548 $601 reversed $471 $-1 #
edge $-1 $565 -14.118518163448467 $599 14.118518163448467 $542 $646 forward 7 unknown #
vertex $-1 $544 $647 #
straight-curve $-1 -36.326701580143684 -39.456923155159046 -14.118518163448467 0 -1 0 I I #
edge $-1 $648 -64.563737907040618 $599 36.326701580143684 $597 $564 forward 7 unknown #
coedge $-1 $555 $554 $549 $603 reversed $502 $-1 #
edge $-1 $607 -30.435023299653029 $648 30.435023299653029 $602 $649 forward 7 unknown #
coedge $-1 $552 $597 $554 $605 reversed $471 $-1 #
edge $-1 $556 -14.118518163448467 $648 14.118518163448467 $554 $650 forward 7 unknown #
point $-1 64.563737907040618 -30.435023299653029 14.118518163448467 #
vertex $-1 $603 $651 #
straight-curve $-1 64.563737907040618 30.435023299653029 0 0 0 -1 I I #
straight-curve $-1 0 30.435023299653029 -14.118518163448467 1 0 0 I I #
point $-1 -36.326701580143684 -30.435023299653025 14.118518163448467 #
face $-1 $446 $621 $15 $-1 $652 reversed single #
loop $-1 $-1 $653 $567 #
coedge $-1 $654 $569 $620 $655 reversed $506 $-1 #
coedge $-1 $569 $654 $593 $645 reversed $506 $-1 #
edge $-1 $624 -14.118518163448467 $622 14.118518163448467 $569 $656 forward 7 unknown #
coedge $-1 $638 $573 $570 $617 forward $621 $-1 #
edge $-1 $577 -9.021899855506021 $618 9.021899855506021 $570 $657 forward 7 unknown #
vertex $-1 $641 $658 #
straight-curve $-1 -44.179419055922615 -30.435023299653029 0 0 0 1 I I #
coedge $-1 $573 $659 $613 $655 forward $621 $-1 #
loop $-1 $-1 $660 $611 #
vertex $-1 $615 $661 #
straight-curve $-1 -40.25306031803315 -48.478823010665067 -14.118518163448467 -1 0 0 I I #
vertex $-1 $645 $662 #
straight-curve $-1 -40.25306031803315 -48.478823010665067 14.118518163448467 1 0 0 I I #
point $-1 -44.179419055922615 -48.478823010665067 14.118518163448467 #
point $-1 -44.179419055922615 -48.478823010665067 -14.118518163448467 #
coedge $-1 $579 $593 $663 $664 forward $283 $-1 #
coedge $-1 $665 $666 $579 $630 reversed $643 $-1 #
edge $-1 $667 -30.435023299653029 $633 30.435023299653029 $629 $668 forward 7 unknown #
coedge $-1 $669 $580 $666 $670 forward $591 $-1 #
coedge $-1 $580 $669 $582 $635 reversed $591 $-1 #
vertex $-1 $630 $671 #
straight-curve $-1 0 30.435023299653029 14.118518163448467 -1 0 0 I I #
edge $-1 $583 -14.118518163448467 $639 14.118518163448467 $632 $672 forward 7 unknown #
point $-1 -64.563737907040618 30.435023299653029 14.118518163448467 #
coedge $-1 $660 $585 $669 $673 forward $621 $-1 #
coedge $-1 $585 $616 $587 $641 forward $621 $-1 #
vertex $-1 $673 $674 #
straight-curve $-1 -64.563737907040618 0 -14.118518163448467 0 1 0 I I #
edge $-1 $618 44.179419055922615 $588 64.563737907040618 $587 $675 forward 7 unknown #
point $-1 -64.563737907040618 -30.435023299653029 -14.118518163448467 #
loop $-1 $-1 $665 $590 #
plane-surface $-1 64.563737907040618 0 0 -1 0 0 0 0 1 forward_v I I I I #
edge $-1 $624 -9.021899855506021 $676 9.021899855506021 $614 $677 forward 7 unknown #
straight-curve $-1 -36.326701580143684 -30.435023299653029 0 0 0 -1 I I #
point $-1 -36.326701580143684 -30.435023299653025 -14.118518163448467 #
vertex $-1 $605 $678 #
straight-curve $-1 64.563737907040618 0 -14.118518163448467 0 -1 0 I I #
straight-curve $-1 64.563737907040618 -30.435023299653029 0 0 0 -1 I I #
point $-1 64.563737907040618 30.435023299653029 -14.118518163448467 #
plane-surface $-1 0 0 -14.118518163448467 0 0 1 1 0 0 forward_v I I I I #
coedge $-1 $679 $663 $654 $680 forward $612 $-1 #
coedge $-1 $614 $613 $653 $680 reversed $506 $-1 #
edge $-1 $681 -9.021899855506021 $622 9.021899855506021 $613 $682 forward 7 unknown #
straight-curve $-1 -36.326701580143684 -48.478823010665067 0 0 0 -1 I I #
straight-curve $-1 -44.179419055922615 -39.456923155159046 -14.118518163448467 0 1 0 I I #
point $-1 -44.179419055922615 -30.435023299653025 -14.118518163448467 #
coedge $-1 $620 $660 $679 $683 forward $621 $-1 #
coedge $-1 $659 $637 $684 $685 forward $621 $-1 #
point $-1 -36.326701580143684 -48.478823010665067 -14.118518163448467 #
point $-1 -36.326701580143684 -48.478823010665067 14.118518163448467 #
coedge $-1 $653 $686 $628 $664 reversed $612 $-1 #
edge $-1 $676 -36.326701580143684 $667 64.563737907040618 $663 $533 forward 7 unknown #
coedge $-1 $684 $629 $686 $687 forward $643 $-1 #
coedge $-1 $629 $684 $631 $670 reversed $643 $-1 #
vertex $-1 $630 $688 #
straight-curve $-1 64.563737907040618 0 14.118518163448467 0 1 0 I I #
coedge $-1 $632 $631 $637 $673 reversed $591 $-1 #
edge $-1 $633 -14.118518163448467 $689 14.118518163448467 $666 $690 forward 7 unknown #
point $-1 64.563737907040618 30.435023299653029 14.118518163448467 #
straight-curve $-1 -64.563737907040618 30.435023299653029 0 0 0 -1 I I #
edge $-1 $639 -64.563737907040618 $689 64.563737907040618 $669 $691 forward 7 unknown #
point $-1 -64.563737907040618 30.435023299653029 -14.118518163448467 #
straight-curve $-1 0 -30.435023299653029 -14.118518163448467 -1 0 0 I I #
vertex $-1 $664 $692 #
straight-curve $-1 -36.326701580143684 -39.456923155159046 14.118518163448467 0 1 0 I I #
point $-1 64.563737907040618 -30.435023299653029 -14.118518163448467 #
coedge $-1 $686 $653 $659 $683 reversed $612 $-1 #
edge $-1 $676 -14.118518163448467 $681 14.118518163448467 $653 $693 forward 7 unknown #
vertex $-1 $655 $694 #
straight-curve $-1 -36.326701580143684 -39.456923155159046 -14.118518163448467 0 -1 0 I I #
edge $-1 $695 -64.563737907040618 $681 36.326701580143684 $679 $675 forward 7 unknown #
coedge $-1 $666 $665 $660 $685 reversed $643 $-1 #
edge $-1 $689 -30.435023299653029 $695 30.435023299653029 $684 $696 forward 7 unknown #
coedge $-1 $663 $679 $665 $687 reversed $612 $-1 #
edge $-1 $667 -14.118518163448467 $695 14.118518163448467 $665 $697 forward 7 unknown #
point $-1 64.563737907040618 -30.435023299653029 14.118518163448467 #
vertex $-1 $685 $698 #
straight-curve $-1 64.563737907040618 30.435023299653029 0 0 0 -1 I I #
straight-curve $-1 0 30.435023299653029 -14.118518163448467 1 0 0 I I #
point $-1 -36.326701580143684 -30.435023299653025 14.118518163448467 #
straight-curve $-1 -36.326701580143684 -30.435023299653029 0 0 0 -1 I I #
point $-1 -36.326701580143684 -30.435023299653025 -14.118518163448467 #
vertex $-1 $687 $699 #
straight-curve $-1 64.563737907040618 0 -14.118518163448467 0 -1 0 I I #
straight-curve $-1 64.563737907040618 -30.435023299653029 0 0 0 -1 I I #
point $-1 64.563737907040618 30.435023299653029 -14.118518163448467 #
point $-1 64.563737907040618 -30.435023299653029 -14.118518163448467 #
End-of-ACIS-data 