500 0 4 0           
7 Unknown 11 ACIS 5.0 NT 24 Fri Mar 26 19:52:12 1999 
-1 9.9999999999999995e-007 1e-010 
body $-1 $4 $-1 $5 #
body $-1 $6 $-1 $7 #
body $-1 $8 $-1 $9 #
body $-1 $10 $-1 $11 #
lump $-1 $-1 $12 $0 #
transform $-1 1 0 0 0 1 0 0 0 1 57.592089602343819 34.334496095032975 16.35119209003452 1 rotate no_reflect no_shear #
lump $-1 $-1 $13 $1 #
transform $-1 1 0 0 0 1 0 0 0 1 57.592089602343819 34.334496095032975 16.35119209003452 1 rotate no_reflect no_shear #
lump $-1 $-1 $14 $2 #
transform $-1 1 0 0 0 1 0 0 0 1 57.592089602343819 34.334496095032975 16.35119209003452 1 rotate no_reflect no_shear #
lump $-1 $-1 $15 $3 #
transform $-1 1 0 0 0 1 0 0 0 1 57.592089602343819 34.334496095032975 16.35119209003452 1 rotate no_reflect no_shear #
shell $-1 $-1 $-1 $16 $-1 $4 #
shell $-1 $-1 $-1 $17 $-1 $6 #
shell $-1 $-1 $-1 $18 $-1 $8 #
shell $-1 $-1 $-1 $19 $-1 $10 #
face $-1 $20 $21 $12 $-1 $22 forward single #
face $-1 $23 $24 $13 $-1 $25 reversed single #
face $-1 $26 $27 $14 $-1 $28 forward single #
face $-1 $29 $30 $15 $-1 $31 forward single #
face $-1 $32 $33 $12 $-1 $34 reversed single #
loop $-1 $-1 $35 $16 #
plane-surface $-1 0 0 16.35119209003452 0 0 1 1 0 0 forward_v I I I I #
face $-1 $36 $37 $13 $-1 $38 reversed single #
loop $-1 $-1 $39 $17 #
plane-surface $-1 -25.484804897156348 69.489571885344077 132.64562075155911 1 0 0 0 -0.71933980857756763 -0.69465836192734942 forward_v I I I I #
face $-1 $40 $41 $14 $-1 $42 forward single #
loop $-1 $43 $44 $18 #
cone-surface $-1 -19.355917237875751 25.247847040405297 7.1340261514728285 0 -0.71933980857756763 -0.69465836192734942 2 0 0 1 I I 0 1 2 forward I I I I #
face $-1 $45 $46 $15 $-1 $47 forward single #
loop $-1 $48 $49 $19 #
cone-surface $-1 -10.162585748954861 25.247847040405297 7.1340261514728285 0 -0.71933980857756763 -0.69465836192734942 2 0 0 1 I I 0 1 2 forward I I I I #
face $-1 $50 $51 $12 $-1 $52 reversed single #
loop $-1 $-1 $53 $20 #
plane-surface $-1 0 0 -16.35119209003452 0 0 1 1 0 0 forward_v I I I I #
coedge $-1 $54 $55 $56 $57 forward $21 $-1 #
face $-1 $58 $59 $13 $-1 $60 reversed single #
loop $-1 $-1 $61 $23 #
plane-surface $-1 -14.759251493415306 -13.366993534920169 52.631967505284521 0 0.71933980857756763 0.69465836192734942 1 0 0 forward_v I I I I #
coedge $-1 $62 $63 $64 $65 reversed $24 $-1 #
face $-1 $-1 $66 $14 $-1 $67 forward single #
loop $-1 $68 $69 $26 #
cone-surface $-1 -19.355917237875751 21.774634628067979 3.7799839919670468 0 -0.71933980857756763 -0.69465836192734942 1 0 0 1 I I -0.70710678118654746 0.70710678118654746 1 forward I I I I #
loop $-1 $-1 $70 $18 #
coedge $-1 $44 $44 $71 $72 reversed $27 $-1 #
face $-1 $-1 $73 $15 $-1 $74 forward single #
loop $-1 $75 $76 $29 #
cone-surface $-1 -10.162585748954861 21.774634628067979 3.7799839919670468 0 -0.71933980857756763 -0.69465836192734942 1 0 0 1 I I -0.70710678118654746 0.70710678118654746 1 forward I I I I #
loop $-1 $-1 $77 $19 #
coedge $-1 $49 $49 $78 $79 reversed $30 $-1 #
face $-1 $80 $81 $12 $-1 $82 reversed single #
loop $-1 $-1 $83 $32 #
plane-surface $-1 0 -34.334496095032975 0 0 1 0 0 0 1 forward_v I I I I #
coedge $-1 $84 $85 $86 $87 forward $33 $-1 #
coedge $-1 $88 $35 $89 $90 forward $21 $-1 #
coedge $-1 $35 $88 $91 $92 forward $21 $-1 #
coedge $-1 $93 $94 $35 $57 reversed $95 $-1 #
edge $-1 $96 -34.334496095032975 $97 34.334496095032975 $56 $98 forward 7 unknown #
face $-1 $99 $100 $13 $-1 $101 reversed single #
loop $-1 $-1 $102 $36 #
plane-surface $-1 -4.0336980896742638 69.489571885344077 132.64562075155911 -1 0 0 0 0.71933980857756763 0.69465836192734942 forward_v I I I I #
coedge $-1 $103 $104 $105 $106 reversed $37 $-1 #
coedge $-1 $63 $39 $107 $108 reversed $24 $-1 #
coedge $-1 $39 $62 $103 $109 reversed $24 $-1 #
coedge $-1 $105 $110 $39 $65 forward $111 $-1 #
edge $-1 $112 0.41028984763906351 $113 13.075842749374885 $64 $114 forward 7 unknown #
loop $-1 $-1 $71 $40 #
plane-surface $-1 -14.759251493415306 -13.366993534920169 52.631967505284521 0 0.71933980857756763 0.69465836192734942 1 0 0 forward_v I I I I #
loop $-1 $-1 $115 $26 #
coedge $-1 $69 $69 $70 $116 reversed $41 $-1 #
coedge $-1 $70 $70 $69 $116 forward $43 $-1 #
coedge $-1 $71 $71 $44 $72 forward $66 $-1 #
edge $-1 $117 1.3654903019464444e-015 $117 6.2831853071796022 $71 $118 forward 7 unknown #
loop $-1 $-1 $78 $45 #
plane-surface $-1 -14.759251493415306 -13.366993534920169 52.631967505284521 0 0.71933980857756763 0.69465836192734942 1 0 0 forward_v I I I I #
loop $-1 $-1 $119 $29 #
coedge $-1 $76 $76 $77 $120 reversed $46 $-1 #
coedge $-1 $77 $77 $76 $120 forward $48 $-1 #
coedge $-1 $78 $78 $49 $79 forward $73 $-1 #
edge $-1 $121 1.3654903019464444e-015 $121 6.2831853071796022 $78 $122 forward 7 unknown #
face $-1 $123 $124 $12 $-1 $125 reversed single #
loop $-1 $-1 $126 $50 #
plane-surface $-1 -57.592089602343819 0 0 1 0 0 0 0 -1 forward_v I I I I #
coedge $-1 $127 $91 $128 $129 forward $51 $-1 #
coedge $-1 $130 $53 $127 $131 forward $33 $-1 #
coedge $-1 $53 $130 $132 $133 forward $33 $-1 #
coedge $-1 $94 $93 $53 $87 reversed $95 $-1 #
edge $-1 $134 -34.334496095032975 $135 34.334496095032975 $86 $136 forward 7 unknown #
coedge $-1 $55 $54 $137 $138 forward $21 $-1 #
coedge $-1 $139 $140 $54 $90 reversed $124 $-1 #
edge $-1 $97 -57.592089602343819 $141 57.592089602343819 $89 $142 forward 7 unknown #
coedge $-1 $83 $143 $55 $92 reversed $51 $-1 #
edge $-1 $144 -57.592089602343819 $96 57.592089602343819 $91 $145 forward 7 unknown #
coedge $-1 $86 $56 $143 $146 forward $95 $-1 #
coedge $-1 $56 $86 $139 $147 reversed $95 $-1 #
loop $-1 $-1 $93 $123 #
vertex $-1 $57 $148 #
vertex $-1 $57 $149 #
straight-curve $-1 57.592089602343819 0 16.35119209003452 0 1 0 I I #
face $-1 $-1 $111 $13 $-1 $150 forward single #
loop $-1 $-1 $151 $58 #
plane-surface $-1 0 34.334496095032975 0 0 -1 0 0 0 -1 forward_v I I I I #
coedge $-1 $152 $153 $154 $155 reversed $59 $-1 #
coedge $-1 $156 $61 $63 $109 forward $37 $-1 #
coedge $-1 $61 $156 $152 $157 forward $37 $-1 #
coedge $-1 $154 $64 $61 $106 forward $111 $-1 #
edge $-1 $113 -18.105179150448695 $158 3.3459276570333891 $105 $159 forward 7 unknown #
coedge $-1 $160 $161 $62 $108 forward $100 $-1 #
edge $-1 $162 -63.087182567711537 $112 -49.971618285745038 $107 $163 forward 7 unknown #
edge $-1 $113 50.436212458465363 $162 68.668992190065921 $63 $164 forward 7 unknown #
coedge $-1 $64 $154 $160 $165 forward $111 $-1 #
loop $-1 $-1 $154 $99 #
vertex $-1 $108 $166 #
vertex $-1 $65 $167 #
straight-curve $-1 -25.484804897156348 34.744785942672038 16.351192090034516 0 -1 0 I I #
coedge $-1 $115 $115 $-1 $168 reversed $68 $-1 #
edge $-1 $169 0 $169 6.2831853071796004 $69 $170 forward 7 unknown #
vertex $-1 $72 $171 #
ellipse-curve $-1 -19.355917237875751 28.001719644165057 9.79340994905127 0 0.71933980857756763 0.69465836192734942 2 0 0 1 I I #
coedge $-1 $119 $119 $-1 $172 reversed $75 $-1 #
edge $-1 $173 0 $173 6.2831853071796004 $76 $174 forward 7 unknown #
vertex $-1 $79 $175 #
ellipse-curve $-1 -10.162585748954861 28.001719644165057 9.79340994905127 0 0.71933980857756763 0.69465836192734942 2 0 0 1 I I #
face $-1 $-1 $95 $12 $-1 $176 reversed single #
loop $-1 $-1 $139 $80 #
plane-surface $-1 0 34.334496095032975 0 0 -1 0 0 0 -1 forward_v I I I I #
coedge $-1 $177 $137 $140 $178 forward $81 $-1 #
coedge $-1 $143 $83 $84 $131 reversed $51 $-1 #
coedge $-1 $137 $177 $83 $129 reversed $81 $-1 #
edge $-1 $144 -16.35119209003452 $179 16.35119209003452 $128 $180 forward 7 unknown #
coedge $-1 $85 $84 $177 $181 forward $33 $-1 #
edge $-1 $135 -57.592089602343819 $179 57.592089602343819 $127 $182 forward 7 unknown #
coedge $-1 $140 $139 $85 $133 reversed $124 $-1 #
edge $-1 $183 -57.592089602343819 $134 57.592089602343819 $132 $184 forward 7 unknown #
vertex $-1 $87 $185 #
vertex $-1 $146 $186 #
straight-curve $-1 57.592089602343819 0 -16.35119209003452 0 -1 0 I I #
coedge $-1 $126 $128 $88 $138 reversed $81 $-1 #
edge $-1 $141 -34.334496095032975 $144 34.334496095032975 $137 $187 forward 7 unknown #
coedge $-1 $132 $89 $94 $147 forward $124 $-1 #
coedge $-1 $89 $132 $126 $178 reversed $124 $-1 #
vertex $-1 $90 $188 #
straight-curve $-1 0 34.334496095032975 16.35119209003452 -1 0 0 I I #
coedge $-1 $91 $127 $93 $146 reversed $51 $-1 #
vertex $-1 $138 $189 #
straight-curve $-1 0 -34.334496095032975 16.35119209003452 1 0 0 I I #
edge $-1 $96 -16.35119209003452 $135 16.35119209003452 $93 $190 forward 7 unknown #
edge $-1 $97 -16.35119209003452 $134 16.35119209003452 $94 $191 forward 7 unknown #
point $-1 57.592089602343819 -34.334496095032975 16.35119209003452 #
point $-1 57.592089602343819 34.334496095032975 16.35119209003452 #
plane-surface $-1 0 0 16.35119209003452 0 0 1 1 0 0 forward_v I I I I #
coedge $-1 $161 $160 $153 $192 forward $100 $-1 #
coedge $-1 $153 $102 $104 $157 reversed $59 $-1 #
coedge $-1 $102 $152 $151 $192 reversed $59 $-1 #
coedge $-1 $110 $105 $102 $155 forward $111 $-1 #
edge $-1 $158 -13.075842749374885 $193 -0.41028984763906351 $154 $194 forward 7 unknown #
coedge $-1 $104 $103 $161 $195 reversed $37 $-1 #
edge $-1 $196 -68.668992190065921 $158 -50.436212458465363 $152 $197 forward 7 unknown #
vertex $-1 $106 $198 #
straight-curve $-1 -7.3796257467076529 21.668943193297142 16.351192090034527 1 0 0 I I #
coedge $-1 $151 $107 $110 $165 reversed $100 $-1 #
coedge $-1 $107 $151 $156 $195 forward $100 $-1 #
vertex $-1 $108 $199 #
straight-curve $-1 -25.484804897156348 34.334496095032975 66.322810375779554 0 0 1 I I #
straight-curve $-1 -25.484804897156348 -13.366993534920169 52.631967505284521 0 0.69465836192734942 -0.71933980857756763 I I #
edge $-1 $193 4.0336980896742638 $112 25.484804897156348 $160 $200 forward 7 unknown #
point $-1 -25.484804897156348 34.334496095032975 16.35119209003452 #
point $-1 -25.484804897156348 21.668943193297153 16.351192090034516 #
edge $-1 $201 1 $201 0 $115 $-1 forward 7 unknown #
vertex $-1 $116 $202 #
ellipse-curve $-1 -19.355917237875751 22.493974436645548 4.4746423538943958 0 0.71933980857756763 0.69465836192734942 2 0 0 1 I I #
point $-1 -17.355917237875751 28.00171964416505 9.7934099490512594 #
edge $-1 $203 1 $203 0 $119 $-1 forward 7 unknown #
vertex $-1 $120 $204 #
ellipse-curve $-1 -10.162585748954861 22.493974436645548 4.4746423538943958 0 0.71933980857756763 0.69465836192734942 2 0 0 1 I I #
point $-1 -8.1625857489548608 28.00171964416505 9.7934099490512594 #
plane-surface $-1 57.592089602343819 0 0 -1 0 0 0 0 1 forward_v I I I I #
coedge $-1 $128 $126 $130 $181 reversed $81 $-1 #
edge $-1 $141 -16.35119209003452 $183 16.35119209003452 $140 $205 forward 7 unknown #
vertex $-1 $181 $206 #
straight-curve $-1 -57.592089602343819 -34.334496095032975 0 0 0 -1 I I #
edge $-1 $179 -34.334496095032975 $183 34.334496095032975 $177 $207 forward 7 unknown #
straight-curve $-1 0 -34.334496095032975 -16.35119209003452 -1 0 0 I I #
vertex $-1 $133 $208 #
straight-curve $-1 0 34.334496095032975 -16.35119209003452 1 0 0 I I #
point $-1 57.592089602343819 34.334496095032975 -16.35119209003452 #
point $-1 57.592089602343819 -34.334496095032975 -16.35119209003452 #
straight-curve $-1 -57.592089602343819 0 16.35119209003452 0 -1 0 I I #
point $-1 -57.592089602343819 34.334496095032975 16.35119209003452 #
point $-1 -57.592089602343819 -34.334496095032975 16.35119209003452 #
straight-curve $-1 57.592089602343819 -34.334496095032975 0 0 0 -1 I I #
straight-curve $-1 57.592089602343819 34.334496095032975 0 0 0 -1 I I #
edge $-1 $193 49.971618285745038 $196 63.087182567711537 $151 $209 forward 7 unknown #
vertex $-1 $165 $210 #
straight-curve $-1 -4.0336980896742638 34.744785942672038 16.351192090034516 0 1 0 I I #
edge $-1 $196 -3.3459276570333891 $162 18.105179150448695 $161 $211 forward 7 unknown #
vertex $-1 $195 $212 #
straight-curve $-1 -4.0336980896742638 -13.366993534920169 52.631967505284521 0 -0.69465836192734942 0.71933980857756763 I I #
point $-1 -4.0336980896742638 21.668943193297153 16.351192090034516 #
point $-1 -25.484804897156348 34.334496095032975 3.235627808068017 #
straight-curve $-1 0 34.334496095032975 16.35119209003452 -1 0 0 I I #
vertex $-1 $168 $213 #
point $-1 -17.355917237875751 22.493974436645548 4.4746423538943958 #
vertex $-1 $172 $214 #
point $-1 -8.1625857489548608 22.493974436645548 4.4746423538943958 #
straight-curve $-1 -57.592089602343819 34.334496095032975 0 0 0 -1 I I #
point $-1 -57.592089602343819 -34.334496095032975 -16.35119209003452 #
straight-curve $-1 -57.592089602343819 0 -16.35119209003452 0 1 0 I I #
point $-1 -57.592089602343819 34.334496095032975 -16.35119209003452 #
straight-curve $-1 -4.0336980896742638 34.334496095032975 66.322810375779554 0 0 -1 I I #
point $-1 -4.0336980896742638 34.334496095032975 16.35119209003452 #
straight-curve $-1 -7.3796257467076529 34.334496095032975 3.2356278080680099 -1 0 0 I I #
point $-1 -4.0336980896742638 34.334496095032975 3.235627808068017 #
point $-1 -19.355917237875751 21.05529481949041 3.0853256300396974 #
point $-1 -10.162585748954861 21.05529481949041 3.0853256300396974 #
End-of-ACIS-data 