500 0 3 0           
7 Unknown 11 ACIS 5.0 NT 24 Fri Mar 26 14:25:28 1999 
-1 9.9999999999999995e-007 1e-010 
body $-1 $3 $-1 $4 #
body $-1 $5 $-1 $6 #
body $-1 $7 $-1 $8 #
lump $-1 $-1 $9 $0 #
transform $-1 1 0 0 0 1 0 0 0 1 45.424970244453263 20.776791102257455 5.5803187796758076 1 rotate no_reflect no_shear #
lump $-1 $-1 $10 $1 #
transform $-1 1 0 0 0 1 0 0 0 1 45.424970244453263 20.776791102257455 5.5803187796758076 1 rotate no_reflect no_shear #
lump $-1 $-1 $11 $2 #
transform $-1 1 0 0 0 1 0 0 0 1 45.424970244453263 20.776791102257455 5.5803187796758076 1 rotate no_reflect no_shear #
shell $-1 $-1 $-1 $12 $-1 $3 #
shell $-1 $-1 $-1 $13 $-1 $5 #
shell $-1 $-1 $-1 $14 $-1 $7 #
face $-1 $15 $16 $9 $-1 $17 forward single #
face $-1 $18 $19 $10 $-1 $20 reversed single #
face $-1 $21 $22 $11 $-1 $23 forward single #
face $-1 $24 $25 $9 $-1 $26 reversed single #
loop $-1 $-1 $27 $12 #
plane-surface $-1 0 0 5.5803187796758076 0 0 1 1 0 0 forward_v I I I I #
face $-1 $28 $29 $10 $-1 $30 reversed single #
loop $-1 $-1 $31 $13 #
plane-surface $-1 -19.811370121446359 -79.174007907046615 69.603911185054471 -1 0 0 0 -0.64278761758704617 0.76604443648966558 forward_v I I I I #
face $-1 $32 $33 $11 $-1 $34 forward single #
loop $-1 $35 $36 $14 #
cone-surface $-1 -32.618170182949811 -16.561498889389036 1.7275144928129176 0 0.64278761758704617 -0.76604443648966558 1 0 0 1 I I 0 1 1 forward I I I I #
face $-1 $37 $38 $9 $-1 $39 reversed single #
loop $-1 $-1 $40 $15 #
plane-surface $-1 0 0 -5.5803187796758076 0 0 1 1 0 0 forward_v I I I I #
coedge $-1 $41 $42 $43 $44 forward $16 $-1 #
face $-1 $45 $46 $10 $-1 $47 forward single #
loop $-1 $-1 $48 $18 #
plane-surface $-1 -32.618170182949811 -20.776791102257462 0.0088197181104163747 0 -0.64278761758704617 0.76604443648966558 1 0 0 forward_v I I I I #
coedge $-1 $49 $50 $51 $52 reversed $19 $-1 #
face $-1 $-1 $53 $11 $-1 $54 forward single #
loop $-1 $55 $56 $21 #
cone-surface $-1 -32.618170182949811 -15.344739809569273 0.27743751848789522 0 0.64278761758704617 -0.76604443648966558 0.5 0 0 1 I I -0.70710678118654746 0.70710678118654746 0.5 forward I I I I #
loop $-1 $-1 $57 $14 #
coedge $-1 $36 $36 $58 $59 reversed $22 $-1 #
face $-1 $60 $61 $9 $-1 $62 reversed single #
loop $-1 $-1 $63 $24 #
plane-surface $-1 0 -20.776791102257455 0 0 1 0 0 0 1 forward_v I I I I #
coedge $-1 $64 $65 $66 $67 forward $25 $-1 #
coedge $-1 $68 $27 $69 $70 forward $16 $-1 #
coedge $-1 $27 $68 $71 $72 forward $16 $-1 #
coedge $-1 $73 $74 $27 $44 reversed $75 $-1 #
edge $-1 $76 -20.776791102257455 $77 20.776791102257455 $43 $78 forward 7 unknown #
face $-1 $79 $80 $10 $-1 $81 reversed single #
loop $-1 $-1 $51 $28 #
plane-surface $-1 0 0 5.5803187796758076 0 0 1 1 0 0 forward_v I I I I #
coedge $-1 $82 $83 $84 $85 reversed $29 $-1 #
coedge $-1 $50 $31 $86 $87 reversed $19 $-1 #
coedge $-1 $31 $49 $82 $88 reversed $19 $-1 #
coedge $-1 $84 $89 $31 $52 forward $46 $-1 #
edge $-1 $90 18.810212851265852 $91 25.450066734950198 $51 $92 forward 7 unknown #
loop $-1 $-1 $58 $32 #
plane-surface $-1 -32.618170182949811 -20.776791102257462 0.0088197181104163747 0 -0.64278761758704617 0.76604443648966558 1 0 0 forward_v I I I I #
loop $-1 $-1 $93 $21 #
coedge $-1 $56 $56 $57 $94 reversed $33 $-1 #
coedge $-1 $57 $57 $56 $94 forward $35 $-1 #
coedge $-1 $58 $58 $36 $59 forward $53 $-1 #
edge $-1 $95 2.170053695149224e-015 $95 6.2831853071796022 $58 $96 forward 7 unknown #
face $-1 $97 $98 $9 $-1 $99 reversed single #
loop $-1 $-1 $100 $37 #
plane-surface $-1 -45.424970244453263 0 0 1 0 0 0 0 -1 forward_v I I I I #
coedge $-1 $101 $71 $102 $103 forward $38 $-1 #
coedge $-1 $104 $40 $101 $105 forward $25 $-1 #
coedge $-1 $40 $104 $106 $107 forward $25 $-1 #
coedge $-1 $74 $73 $40 $67 reversed $75 $-1 #
edge $-1 $108 -20.776791102257455 $109 20.776791102257455 $66 $110 forward 7 unknown #
coedge $-1 $42 $41 $111 $112 forward $16 $-1 #
coedge $-1 $113 $114 $41 $70 reversed $98 $-1 #
edge $-1 $77 -45.424970244453263 $115 45.424970244453263 $69 $116 forward 7 unknown #
coedge $-1 $63 $117 $42 $72 reversed $38 $-1 #
edge $-1 $118 -45.424970244453263 $76 45.424970244453263 $71 $119 forward 7 unknown #
coedge $-1 $66 $43 $117 $120 forward $75 $-1 #
coedge $-1 $43 $66 $113 $121 reversed $75 $-1 #
loop $-1 $-1 $73 $97 #
vertex $-1 $44 $122 #
vertex $-1 $44 $123 #
straight-curve $-1 45.424970244453263 0 5.5803187796758076 0 1 0 I I #
face $-1 $-1 $124 $10 $-1 $125 reversed single #
loop $-1 $-1 $126 $45 #
plane-surface $-1 -45.424970244453263 0 0 1 0 0 0 0 -1 forward_v I I I I #
coedge $-1 $127 $48 $50 $88 forward $29 $-1 #
coedge $-1 $48 $127 $126 $128 reversed $29 $-1 #
coedge $-1 $129 $51 $48 $85 forward $46 $-1 #
edge $-1 $91 3.5022850299714534 $130 29.115885152978358 $84 $131 forward 7 unknown #
coedge $-1 $132 $133 $49 $87 forward $124 $-1 #
edge $-1 $134 -34.793135874416812 $90 -29.221636812851429 $86 $135 forward 7 unknown #
edge $-1 $91 -8.6677137348727786 $134 -9.2755300896771802e-015 $50 $136 forward 7 unknown #
coedge $-1 $51 $129 $132 $137 forward $46 $-1 #
vertex $-1 $87 $138 #
vertex $-1 $52 $139 #
straight-curve $-1 -19.811370121446359 -39.587003953523308 5.5803187796758067 0 1 0 I I #
coedge $-1 $93 $93 $-1 $140 reversed $55 $-1 #
edge $-1 $141 0 $141 6.2831853071796004 $56 $142 forward 7 unknown #
vertex $-1 $59 $143 #
ellipse-curve $-1 -32.618170182949811 -17.456864160415282 2.794569248893116 0 -0.64278761758704617 0.76604443648966558 1 0 0 1 I I #
face $-1 $-1 $75 $9 $-1 $144 reversed single #
loop $-1 $-1 $113 $60 #
plane-surface $-1 0 20.776791102257455 0 0 -1 0 0 0 -1 forward_v I I I I #
coedge $-1 $145 $111 $114 $146 forward $61 $-1 #
coedge $-1 $117 $63 $64 $105 reversed $38 $-1 #
coedge $-1 $111 $145 $63 $103 reversed $61 $-1 #
edge $-1 $118 -5.5803187796758076 $147 5.5803187796758076 $102 $148 forward 7 unknown #
coedge $-1 $65 $64 $145 $149 forward $25 $-1 #
edge $-1 $109 -45.424970244453263 $147 45.424970244453263 $101 $150 forward 7 unknown #
coedge $-1 $114 $113 $65 $107 reversed $98 $-1 #
edge $-1 $151 -45.424970244453263 $108 45.424970244453263 $106 $152 forward 7 unknown #
vertex $-1 $67 $153 #
vertex $-1 $120 $154 #
straight-curve $-1 45.424970244453263 0 -5.5803187796758076 0 -1 0 I I #
coedge $-1 $100 $102 $68 $112 reversed $61 $-1 #
edge $-1 $115 -20.776791102257455 $118 20.776791102257455 $111 $155 forward 7 unknown #
coedge $-1 $106 $69 $74 $121 forward $98 $-1 #
coedge $-1 $69 $106 $100 $146 reversed $98 $-1 #
vertex $-1 $70 $156 #
straight-curve $-1 0 20.776791102257455 5.5803187796758076 -1 0 0 I I #
coedge $-1 $71 $101 $73 $120 reversed $38 $-1 #
vertex $-1 $112 $157 #
straight-curve $-1 0 -20.776791102257455 5.5803187796758076 1 0 0 I I #
edge $-1 $76 -5.5803187796758076 $109 5.5803187796758076 $73 $158 forward 7 unknown #
edge $-1 $77 -5.5803187796758076 $108 5.5803187796758076 $74 $159 forward 7 unknown #
point $-1 45.424970244453263 -20.776791102257455 5.5803187796758076 #
point $-1 45.424970244453263 20.776791102257455 5.5803187796758076 #
loop $-1 $-1 $86 $79 #
plane-surface $-1 0 -20.776791102257455 0 0 1 0 0 0 1 forward_v I I I I #
coedge $-1 $160 $161 $83 $128 forward $80 $-1 #
coedge $-1 $83 $82 $133 $162 reversed $29 $-1 #
edge $-1 $130 -0.71257572167261241 $163 7.9551380132001572 $126 $164 forward 7 unknown #
coedge $-1 $89 $84 $161 $165 forward $46 $-1 #
vertex $-1 $165 $166 #
straight-curve $-1 -16.309085091474905 -14.136937218573109 5.5803187796758076 -1 0 0 I I #
coedge $-1 $167 $86 $89 $137 reversed $124 $-1 #
coedge $-1 $86 $167 $127 $162 forward $124 $-1 #
vertex $-1 $87 $168 #
straight-curve $-1 -19.811370121446359 -20.776791102257455 34.801955592527236 0 0 1 I I #
straight-curve $-1 -19.811370121446359 -20.776791102257462 0.0088197181104163747 0 -0.76604443648966558 -0.64278761758704617 I I #
edge $-1 $169 -45.424970244453263 $90 -19.811370121446359 $132 $170 forward 7 unknown #
point $-1 -19.811370121446359 -20.776791102257455 5.5803187796758076 #
point $-1 -19.811370121446359 -14.136937218573109 5.5803187796758076 #
edge $-1 $171 1 $171 0 $93 $-1 forward 7 unknown #
vertex $-1 $94 $172 #
ellipse-curve $-1 -32.618170182949811 -15.666133618362796 0.66045973673272806 0 -0.64278761758704617 0.76604443648966558 1 0 0 1 I I #
point $-1 -31.618170182949811 -17.456864160415272 2.7945692488931066 #
plane-surface $-1 45.424970244453263 0 0 -1 0 0 0 0 1 forward_v I I I I #
coedge $-1 $102 $100 $104 $149 reversed $61 $-1 #
edge $-1 $115 -5.5803187796758076 $151 5.5803187796758076 $114 $173 forward 7 unknown #
vertex $-1 $149 $174 #
straight-curve $-1 -45.424970244453263 -20.776791102257455 0 0 0 -1 I I #
edge $-1 $147 -20.776791102257455 $151 20.776791102257455 $145 $175 forward 7 unknown #
straight-curve $-1 0 -20.776791102257455 -5.5803187796758076 -1 0 0 I I #
vertex $-1 $107 $176 #
straight-curve $-1 0 20.776791102257455 -5.5803187796758076 1 0 0 I I #
point $-1 45.424970244453263 20.776791102257455 -5.5803187796758076 #
point $-1 45.424970244453263 -20.776791102257455 -5.5803187796758076 #
straight-curve $-1 -45.424970244453263 0 5.5803187796758076 0 -1 0 I I #
point $-1 -45.424970244453263 20.776791102257455 5.5803187796758076 #
point $-1 -45.424970244453263 -20.776791102257455 5.5803187796758076 #
straight-curve $-1 45.424970244453263 -20.776791102257455 0 0 0 -1 I I #
straight-curve $-1 45.424970244453263 20.776791102257455 0 0 0 -1 I I #
coedge $-1 $161 $126 $167 $177 reversed $80 $-1 #
coedge $-1 $126 $160 $129 $165 reversed $80 $-1 #
edge $-1 $163 -29.115885152978358 $134 -3.5022850299714534 $133 $178 forward 7 unknown #
vertex $-1 $128 $179 #
straight-curve $-1 -45.424970244453263 -14.682801885738023 5.1222839291914992 0 -0.76604443648966558 -0.64278761758704617 I I #
edge $-1 $130 14.136937218573109 $169 20.776791102257455 $161 $180 forward 7 unknown #
point $-1 -45.424970244453263 -14.136937218573109 5.5803187796758076 #
coedge $-1 $133 $132 $160 $177 forward $124 $-1 #
point $-1 -19.811370121446359 -20.776791102257455 0.0088197181104223369 #
vertex $-1 $165 $181 #
straight-curve $-1 0 -20.776791102257455 5.5803187796758076 1 0 0 I I #
vertex $-1 $140 $182 #
point $-1 -31.618170182949811 -15.666133618362796 0.66045973673272806 #
straight-curve $-1 -45.424970244453263 20.776791102257455 0 0 0 -1 I I #
point $-1 -45.424970244453263 -20.776791102257455 -5.5803187796758076 #
straight-curve $-1 -45.424970244453263 0 -5.5803187796758076 0 1 0 I I #
point $-1 -45.424970244453263 20.776791102257455 -5.5803187796758076 #
edge $-1 $169 -5.5803187796758076 $163 -0.0088197181104223369 $160 $183 forward 7 unknown #
straight-curve $-1 -16.309085091474905 -20.776791102257455 0.0088197181104232476 1 0 0 I I #
point $-1 -45.424970244453263 -20.776791102257455 0.0088197181104223369 #
straight-curve $-1 -45.424970244453263 0 5.5803187796758076 0 -1 0 I I #
point $-1 -45.424970244453263 -20.776791102257455 5.5803187796758076 #
point $-1 -32.618170182949811 -15.023346000775749 -0.10558469975693757 #
straight-curve $-1 -45.424970244453263 -20.776791102257455 0 0 0 -1 I I #
End-of-ACIS-data 