500 0 17 0           
7 Unknown 11 ACIS 5.0 NT 24 Fri Mar 26 16:46:32 1999 
-1 9.9999999999999995e-007 1e-010 
body $-1 $17 $-1 $18 #
body $-1 $19 $-1 $20 #
body $-1 $21 $-1 $22 #
body $-1 $23 $-1 $24 #
body $-1 $25 $-1 $26 #
body $-1 $27 $-1 $28 #
body $-1 $29 $-1 $30 #
body $-1 $31 $-1 $32 #
body $-1 $33 $-1 $34 #
body $-1 $35 $-1 $36 #
body $-1 $37 $-1 $38 #
body $-1 $39 $-1 $40 #
body $-1 $41 $-1 $42 #
body $-1 $43 $-1 $44 #
body $-1 $45 $-1 $46 #
body $-1 $47 $-1 $48 #
body $-1 $49 $-1 $50 #
lump $-1 $-1 $51 $0 #
transform $-1 1 0 0 0 1 0 0 0 1 61.340983306375321 36.41052653627149 8.2601791454825815 1 rotate no_reflect no_shear #
lump $-1 $-1 $52 $1 #
transform $-1 1 0 0 0 1 0 0 0 1 61.340983306375321 36.41052653627149 8.2601791454825815 1 rotate no_reflect no_shear #
lump $-1 $-1 $53 $2 #
transform $-1 1 0 0 0 1 0 0 0 1 61.340983306375321 36.41052653627149 8.2601791454825815 1 rotate no_reflect no_shear #
lump $-1 $-1 $54 $3 #
transform $-1 1 0 0 0 1 0 0 0 1 61.340983306375321 36.41052653627149 8.2601791454825815 1 rotate no_reflect no_shear #
lump $-1 $-1 $55 $4 #
transform $-1 1 0 0 0 1 0 0 0 1 61.340983306375321 36.41052653627149 8.2601791454825815 1 rotate no_reflect no_shear #
lump $-1 $-1 $56 $5 #
transform $-1 1 0 0 0 1 0 0 0 1 61.340983306375321 36.41052653627149 8.2601791454825815 1 rotate no_reflect no_shear #
lump $-1 $-1 $57 $6 #
transform $-1 1 0 0 0 1 0 0 0 1 61.340983306375321 36.41052653627149 8.2601791454825815 1 rotate no_reflect no_shear #
lump $-1 $-1 $58 $7 #
transform $-1 1 0 0 0 1 0 0 0 1 61.340983306375321 36.41052653627149 8.2601791454825815 1 rotate no_reflect no_shear #
lump $-1 $-1 $59 $8 #
transform $-1 1 0 0 0 1 0 0 0 1 61.340983306375321 36.41052653627149 8.2601791454825815 1 rotate no_reflect no_shear #
lump $-1 $-1 $60 $9 #
transform $-1 1 0 0 0 1 0 0 0 1 61.340983306375321 36.41052653627149 8.2601791454825815 1 rotate no_reflect no_shear #
lump $-1 $-1 $61 $10 #
transform $-1 1 0 0 0 1 0 0 0 1 61.340983306375321 36.41052653627149 8.2601791454825815 1 rotate no_reflect no_shear #
lump $-1 $-1 $62 $11 #
transform $-1 1 0 0 0 1 0 0 0 1 61.340983306375321 36.41052653627149 8.2601791454825815 1 rotate no_reflect no_shear #
lump $-1 $-1 $63 $12 #
transform $-1 1 0 0 0 1 0 0 0 1 61.340983306375321 36.41052653627149 8.2601791454825815 1 rotate no_reflect no_shear #
lump $-1 $-1 $64 $13 #
transform $-1 1 0 0 0 1 0 0 0 1 61.340983306375321 36.41052653627149 8.2601791454825815 1 rotate no_reflect no_shear #
lump $-1 $-1 $65 $14 #
transform $-1 1 0 0 0 1 0 0 0 1 61.340983306375321 36.41052653627149 8.2601791454825815 1 rotate no_reflect no_shear #
lump $-1 $-1 $66 $15 #
transform $-1 1 0 0 0 1 0 0 0 1 61.340983306375321 36.41052653627149 8.2601791454825815 1 rotate no_reflect no_shear #
lump $-1 $-1 $67 $16 #
transform $-1 1 0 0 0 1 0 0 0 1 61.340983306375321 36.41052653627149 8.2601791454825815 1 rotate no_reflect no_shear #
shell $-1 $-1 $-1 $68 $-1 $17 #
shell $-1 $-1 $-1 $69 $-1 $19 #
shell $-1 $-1 $-1 $70 $-1 $21 #
shell $-1 $-1 $-1 $71 $-1 $23 #
shell $-1 $-1 $-1 $72 $-1 $25 #
shell $-1 $-1 $-1 $73 $-1 $27 #
shell $-1 $-1 $-1 $74 $-1 $29 #
shell $-1 $-1 $-1 $75 $-1 $31 #
shell $-1 $-1 $-1 $76 $-1 $33 #
shell $-1 $-1 $-1 $77 $-1 $35 #
shell $-1 $-1 $-1 $78 $-1 $37 #
shell $-1 $-1 $-1 $79 $-1 $39 #
shell $-1 $-1 $-1 $80 $-1 $41 #
shell $-1 $-1 $-1 $81 $-1 $43 #
shell $-1 $-1 $-1 $82 $-1 $45 #
shell $-1 $-1 $-1 $83 $-1 $47 #
shell $-1 $-1 $-1 $84 $-1 $49 #
face $-1 $85 $86 $51 $-1 $87 forward single #
face $-1 $88 $89 $52 $-1 $90 forward single #
face $-1 $91 $92 $53 $-1 $93 reversed single #
face $-1 $94 $95 $54 $-1 $96 forward single #
face $-1 $97 $98 $55 $-1 $99 forward single #
face $-1 $100 $101 $56 $-1 $102 reversed single #
face $-1 $103 $104 $57 $-1 $105 forward single #
face $-1 $106 $107 $58 $-1 $108 forward single #
face $-1 $109 $110 $59 $-1 $111 reversed single #
face $-1 $112 $113 $60 $-1 $114 forward single #
face $-1 $115 $116 $61 $-1 $117 forward single #
face $-1 $118 $119 $62 $-1 $120 reversed single #
face $-1 $121 $122 $63 $-1 $123 forward single #
face $-1 $124 $125 $64 $-1 $126 forward single #
face $-1 $127 $128 $65 $-1 $129 reversed single #
face $-1 $130 $131 $66 $-1 $132 forward single #
face $-1 $133 $134 $67 $-1 $135 forward single #
face $-1 $136 $137 $51 $-1 $138 reversed single #
loop $-1 $-1 $139 $68 #
plane-surface $-1 0 0 8.2601791454825815 0 0 1 1 0 0 forward_v I I I I #
face $-1 $140 $141 $52 $-1 $142 reversed single #
loop $-1 $-1 $143 $69 #
plane-surface $-1 -61.340983306375321 0 0 1 0 0 0 0 -1 forward_v I I I I #
face $-1 $144 $145 $53 $-1 $146 reversed single #
loop $-1 $-1 $147 $70 #
plane-surface $-1 52.341857705899528 -36.410526536271476 3.2594585213744978 0 -0.77714596973225614 0.62932038083071107 1 0 0 forward_v I I I I #
face $-1 $148 $149 $54 $-1 $150 forward single #
loop $-1 $151 $152 $71 #
cone-surface $-1 48.485089591409917 -32.491227952516716 4.2256451418836205 0 0.77714596973225614 -0.62932038083071107 1.5 0 0 1 I I 0 1 1.5 forward I I I I #
face $-1 $153 $154 $55 $-1 $155 forward single #
loop $-1 $156 $157 $72 #
cone-surface $-1 56.198625820389168 -32.491227952516716 4.2256451418836205 0 0.77714596973225614 -0.62932038083071107 1.5 0 0 1 I I 0 1 1.5 forward I I I I #
face $-1 $158 $159 $56 $-1 $160 reversed single #
loop $-1 $-1 $161 $73 #
plane-surface $-1 -38.601329831947105 54.557315573253675 141.96759177288658 1 0 0 0 -0.61566148304635926 -0.78801074757464917 forward_v I I I I #
face $-1 $162 $163 $57 $-1 $164 forward single #
loop $-1 $165 $166 $74 #
cone-surface $-1 -35.210991580077845 30.005589334891479 2.5515423862491686 0 -0.61566148304635926 -0.78801074757464917 1.5 0 0 1 I I 0 1 1.5 forward I I I I #
face $-1 $167 $168 $58 $-1 $169 forward single #
loop $-1 $170 $171 $75 #
cone-surface $-1 -30.125484202273963 30.005589334891479 2.5515423862491686 0 -0.61566148304635926 -0.78801074757464917 1.5 0 0 1 I I 0 1 1.5 forward I I I I #
face $-1 $172 $173 $59 $-1 $174 reversed single #
loop $-1 $-1 $175 $76 #
plane-surface $-1 -14.006052460828947 54.557315573253675 141.96759177288658 1 0 0 0 -0.61566148304635926 -0.78801074757464917 forward_v I I I I #
face $-1 $176 $177 $60 $-1 $178 forward single #
loop $-1 $179 $180 $77 #
cone-surface $-1 -10.615714208959695 30.005589334891479 2.5515423862491686 0 -0.61566148304635926 -0.78801074757464917 1.5 0 0 1 I I 0 1 1.5 forward I I I I #
face $-1 $181 $182 $61 $-1 $183 forward single #
loop $-1 $184 $185 $78 #
cone-surface $-1 -5.5302068311558088 30.005589334891479 2.5515423862491686 0 -0.61566148304635926 -0.78801074757464917 1.5 0 0 1 I I 0 1 1.5 forward I I I I #
face $-1 $186 $187 $62 $-1 $188 reversed single #
loop $-1 $-1 $189 $79 #
plane-surface $-1 10.589224910289211 54.557315573253675 141.96759177288658 1 0 0 0 -0.61566148304635926 -0.78801074757464917 forward_v I I I I #
face $-1 $190 $191 $63 $-1 $192 forward single #
loop $-1 $193 $194 $80 #
cone-surface $-1 13.979563162158456 30.005589334891479 2.5515423862491686 0 -0.61566148304635926 -0.78801074757464917 1.5 0 0 1 I I 0 1 1.5 forward I I I I #
face $-1 $195 $196 $64 $-1 $197 forward single #
loop $-1 $198 $199 $81 #
cone-surface $-1 19.065070539962349 30.005589334891479 2.5515423862491686 0 -0.61566148304635926 -0.78801074757464917 1.5 0 0 1 I I 0 1 1.5 forward I I I I #
face $-1 $200 $201 $65 $-1 $202 reversed single #
loop $-1 $-1 $203 $82 #
plane-surface $-1 35.184502281407369 54.557315573253675 141.96759177288658 1 0 0 0 -0.61566148304635926 -0.78801074757464917 forward_v I I I I #
face $-1 $204 $205 $66 $-1 $206 forward single #
loop $-1 $207 $208 $83 #
cone-surface $-1 38.574840533276614 30.005589334891479 2.5515423862491686 0 -0.61566148304635926 -0.78801074757464917 1.5 0 0 1 I I 0 1 1.5 forward I I I I #
face $-1 $209 $210 $67 $-1 $211 forward single #
loop $-1 $212 $213 $84 #
cone-surface $-1 43.660347911080507 30.005589334891479 2.5515423862491686 0 -0.61566148304635926 -0.78801074757464917 1.5 0 0 1 I I 0 1 1.5 forward I I I I #
face $-1 $214 $215 $51 $-1 $216 reversed single #
loop $-1 $-1 $217 $85 #
plane-surface $-1 0 0 -8.2601791454825815 0 0 1 1 0 0 forward_v I I I I #
coedge $-1 $218 $219 $220 $221 forward $86 $-1 #
face $-1 $222 $223 $52 $-1 $224 forward single #
loop $-1 $-1 $225 $88 #
plane-surface $-1 0 36.41052653627149 0 0 -1 0 0 0 -1 forward_v I I I I #
coedge $-1 $226 $227 $228 $229 forward $89 $-1 #
face $-1 $230 $231 $53 $-1 $232 reversed single #
loop $-1 $-1 $233 $91 #
plane-surface $-1 43.342732105423742 -131.75232244819784 80.465720471171309 1 0 0 0 0.77714596973225614 -0.62932038083071107 forward_v I I I I #
coedge $-1 $234 $235 $236 $237 reversed $92 $-1 #
face $-1 $-1 $238 $54 $-1 $239 forward single #
loop $-1 $240 $241 $94 #
cone-surface $-1 48.485089591409917 -30.013821694959795 2.2194811647156669 0 0.77714596973225614 -0.62932038083071107 0.75 0 0 1 I I -0.70710678118654757 0.70710678118654757 0.75 forward I I I I #
loop $-1 $-1 $242 $71 #
coedge $-1 $152 $152 $243 $244 reversed $95 $-1 #
face $-1 $-1 $245 $55 $-1 $246 forward single #
loop $-1 $247 $248 $97 #
cone-surface $-1 56.198625820389168 -30.013821694959795 2.2194811647156669 0 0.77714596973225614 -0.62932038083071107 0.75 0 0 1 I I -0.70710678118654757 0.70710678118654757 0.75 forward I I I I #
loop $-1 $-1 $249 $72 #
coedge $-1 $157 $157 $250 $251 reversed $98 $-1 #
face $-1 $252 $253 $56 $-1 $254 reversed single #
loop $-1 $-1 $255 $100 #
plane-surface $-1 -32.668237891175906 -20.973245934596321 45.292883548444792 0 0.61566148304635926 0.78801074757464917 1 0 0 forward_v I I I I #
coedge $-1 $256 $257 $258 $259 reversed $101 $-1 #
face $-1 $-1 $260 $57 $-1 $261 forward single #
loop $-1 $262 $263 $103 #
cone-surface $-1 -35.210991580077845 28.130942676260688 0.15210413067336503 0 -0.61566148304635926 -0.78801074757464917 0.75 0 0 1 I I -0.70710678118654757 0.70710678118654757 0.75 forward I I I I #
loop $-1 $-1 $264 $74 #
coedge $-1 $166 $166 $265 $266 reversed $104 $-1 #
face $-1 $-1 $267 $58 $-1 $268 forward single #
loop $-1 $269 $270 $106 #
cone-surface $-1 -30.125484202273963 28.130942676260688 0.15210413067336503 0 -0.61566148304635926 -0.78801074757464917 0.75 0 0 1 I I -0.70710678118654757 0.70710678118654757 0.75 forward I I I I #
loop $-1 $-1 $271 $75 #
coedge $-1 $171 $171 $272 $273 reversed $107 $-1 #
face $-1 $274 $275 $59 $-1 $276 reversed single #
loop $-1 $-1 $277 $109 #
plane-surface $-1 -8.0729605200577481 -20.973245934596321 45.292883548444792 0 0.61566148304635926 0.78801074757464917 1 0 0 forward_v I I I I #
coedge $-1 $278 $279 $280 $281 reversed $110 $-1 #
face $-1 $-1 $282 $60 $-1 $283 forward single #
loop $-1 $284 $285 $112 #
cone-surface $-1 -10.615714208959695 28.130942676260688 0.15210413067336503 0 -0.61566148304635926 -0.78801074757464917 0.75 0 0 1 I I -0.70710678118654757 0.70710678118654757 0.75 forward I I I I #
loop $-1 $-1 $286 $77 #
coedge $-1 $180 $180 $287 $288 reversed $113 $-1 #
face $-1 $-1 $289 $61 $-1 $290 forward single #
loop $-1 $291 $292 $115 #
cone-surface $-1 -5.5302068311558088 28.130942676260688 0.15210413067336503 0 -0.61566148304635926 -0.78801074757464917 0.75 0 0 1 I I -0.70710678118654757 0.70710678118654757 0.75 forward I I I I #
loop $-1 $-1 $293 $78 #
coedge $-1 $185 $185 $294 $295 reversed $116 $-1 #
face $-1 $296 $297 $62 $-1 $298 reversed single #
loop $-1 $-1 $299 $118 #
plane-surface $-1 16.52231685106041 -20.973245934596321 45.292883548444792 0 0.61566148304635926 0.78801074757464917 1 0 0 forward_v I I I I #
coedge $-1 $300 $301 $302 $303 reversed $119 $-1 #
face $-1 $-1 $304 $63 $-1 $305 forward single #
loop $-1 $306 $307 $121 #
cone-surface $-1 13.979563162158456 28.130942676260688 0.15210413067336503 0 -0.61566148304635926 -0.78801074757464917 0.75 0 0 1 I I -0.70710678118654757 0.70710678118654757 0.75 forward I I I I #
loop $-1 $-1 $308 $80 #
coedge $-1 $194 $194 $309 $310 reversed $122 $-1 #
face $-1 $-1 $311 $64 $-1 $312 forward single #
loop $-1 $313 $314 $124 #
cone-surface $-1 19.065070539962349 28.130942676260688 0.15210413067336503 0 -0.61566148304635926 -0.78801074757464917 0.75 0 0 1 I I -0.70710678118654757 0.70710678118654757 0.75 forward I I I I #
loop $-1 $-1 $315 $81 #
coedge $-1 $199 $199 $316 $317 reversed $125 $-1 #
face $-1 $318 $319 $65 $-1 $320 reversed single #
loop $-1 $-1 $321 $127 #
plane-surface $-1 41.117594222178568 -20.973245934596321 45.292883548444792 0 0.61566148304635926 0.78801074757464917 1 0 0 forward_v I I I I #
coedge $-1 $322 $323 $324 $325 reversed $128 $-1 #
face $-1 $-1 $326 $66 $-1 $327 forward single #
loop $-1 $328 $329 $130 #
cone-surface $-1 38.574840533276614 28.130942676260688 0.15210413067336503 0 -0.61566148304635926 -0.78801074757464917 0.75 0 0 1 I I -0.70710678118654757 0.70710678118654757 0.75 forward I I I I #
loop $-1 $-1 $330 $83 #
coedge $-1 $208 $208 $331 $332 reversed $131 $-1 #
face $-1 $-1 $333 $67 $-1 $334 forward single #
loop $-1 $335 $336 $133 #
cone-surface $-1 43.660347911080507 28.130942676260688 0.15210413067336503 0 -0.61566148304635926 -0.78801074757464917 0.75 0 0 1 I I -0.70710678118654757 0.70710678118654757 0.75 forward I I I I #
loop $-1 $-1 $337 $84 #
coedge $-1 $213 $213 $338 $339 reversed $134 $-1 #
face $-1 $340 $341 $51 $-1 $342 reversed single #
loop $-1 $-1 $343 $136 #
plane-surface $-1 0 -36.41052653627149 0 0 1 0 0 0 1 forward_v I I I I #
coedge $-1 $344 $345 $346 $347 forward $137 $-1 #
coedge $-1 $348 $139 $349 $350 forward $86 $-1 #
coedge $-1 $139 $348 $351 $352 forward $86 $-1 #
coedge $-1 $353 $354 $139 $221 reversed $355 $-1 #
edge $-1 $356 -36.41052653627149 $357 36.41052653627149 $220 $358 forward 7 unknown #
face $-1 $359 $360 $52 $-1 $361 reversed single #
loop $-1 $-1 $228 $140 #
plane-surface $-1 -65.565661471876638 0 -5.2601791454825815 0 0 1 1 0 0 forward_v I I I I #
coedge $-1 $362 $363 $227 $364 forward $141 $-1 #
coedge $-1 $365 $143 $366 $367 reversed $89 $-1 #
coedge $-1 $143 $365 $225 $364 reversed $89 $-1 #
coedge $-1 $368 $369 $143 $229 reversed $223 $-1 #
edge $-1 $370 -36.41052653627149 $371 36.41052653627149 $228 $372 forward 7 unknown #
face $-1 $373 $374 $53 $-1 $375 forward single #
loop $-1 $-1 $376 $144 #
plane-surface $-1 0 -36.41052653627149 0 0 1 0 0 0 1 forward_v I I I I #
coedge $-1 $377 $378 $379 $380 reversed $145 $-1 #
coedge $-1 $381 $147 $382 $383 reversed $92 $-1 #
coedge $-1 $147 $381 $377 $384 forward $92 $-1 #
coedge $-1 $379 $385 $147 $237 forward $374 $-1 #
edge $-1 $386 -35.17005445342555 $387 -17.171803252473978 $236 $388 forward 7 unknown #
loop $-1 $-1 $243 $148 #
plane-surface $-1 52.341857705899528 -36.410526536271476 3.2594585213744978 0 -0.77714596973225614 0.62932038083071107 1 0 0 forward_v I I I I #
loop $-1 $-1 $389 $94 #
coedge $-1 $241 $241 $242 $390 reversed $149 $-1 #
coedge $-1 $242 $242 $241 $390 forward $151 $-1 #
coedge $-1 $243 $243 $152 $244 forward $238 $-1 #
edge $-1 $391 -1.3604918057131098e-015 $391 6.2831853071795987 $243 $392 forward 7 unknown #
loop $-1 $-1 $250 $153 #
plane-surface $-1 52.341857705899528 -36.410526536271476 3.2594585213744978 0 -0.77714596973225614 0.62932038083071107 1 0 0 forward_v I I I I #
loop $-1 $-1 $393 $97 #
coedge $-1 $248 $248 $249 $394 reversed $154 $-1 #
coedge $-1 $249 $249 $248 $394 forward $156 $-1 #
coedge $-1 $250 $250 $157 $251 forward $245 $-1 #
edge $-1 $395 -1.3604918057131098e-015 $395 6.2831853071795987 $250 $396 forward 7 unknown #
face $-1 $397 $398 $56 $-1 $399 forward single #
loop $-1 $-1 $400 $158 #
plane-surface $-1 -26.735145950404707 54.557315573253675 141.96759177288658 -1 0 0 0 0.61566148304635926 0.78801074757464917 forward_v I I I I #
coedge $-1 $401 $402 $403 $404 reversed $159 $-1 #
coedge $-1 $257 $161 $405 $406 reversed $101 $-1 #
coedge $-1 $161 $256 $401 $407 reversed $101 $-1 #
coedge $-1 $403 $408 $161 $259 forward $398 $-1 #
edge $-1 $409 -9.1318687496446529 $410 0.85220456042339521 $258 $411 forward 7 unknown #
loop $-1 $-1 $265 $162 #
plane-surface $-1 -32.668237891175906 -20.973245934596321 45.292883548444792 0 0.61566148304635926 0.78801074757464917 1 0 0 forward_v I I I I #
loop $-1 $-1 $412 $103 #
coedge $-1 $263 $263 $264 $413 reversed $163 $-1 #
coedge $-1 $264 $264 $263 $413 forward $165 $-1 #
coedge $-1 $265 $265 $166 $266 forward $260 $-1 #
edge $-1 $414 -5.8923211541852015e-017 $414 6.2831853071796004 $265 $415 forward 7 unknown #
loop $-1 $-1 $272 $167 #
plane-surface $-1 -32.668237891175906 -20.973245934596321 45.292883548444792 0 0.61566148304635926 0.78801074757464917 1 0 0 forward_v I I I I #
loop $-1 $-1 $416 $106 #
coedge $-1 $270 $270 $271 $417 reversed $168 $-1 #
coedge $-1 $271 $271 $270 $417 forward $170 $-1 #
coedge $-1 $272 $272 $171 $273 forward $267 $-1 #
edge $-1 $418 -5.8923211541852015e-017 $418 6.2831853071796004 $272 $419 forward 7 unknown #
face $-1 $420 $421 $59 $-1 $422 forward single #
loop $-1 $-1 $423 $172 #
plane-surface $-1 -2.1398685792865493 54.557315573253675 141.96759177288658 -1 0 0 0 0.61566148304635926 0.78801074757464917 forward_v I I I I #
coedge $-1 $424 $425 $426 $427 reversed $173 $-1 #
coedge $-1 $279 $175 $428 $429 reversed $110 $-1 #
coedge $-1 $175 $278 $424 $430 reversed $110 $-1 #
coedge $-1 $426 $431 $175 $281 forward $421 $-1 #
edge $-1 $432 -9.1318687496446529 $433 0.85220456042339521 $280 $434 forward 7 unknown #
loop $-1 $-1 $287 $176 #
plane-surface $-1 -8.0729605200577481 -20.973245934596321 45.292883548444792 0 0.61566148304635926 0.78801074757464917 1 0 0 forward_v I I I I #
loop $-1 $-1 $435 $112 #
coedge $-1 $285 $285 $286 $436 reversed $177 $-1 #
coedge $-1 $286 $286 $285 $436 forward $179 $-1 #
coedge $-1 $287 $287 $180 $288 forward $282 $-1 #
edge $-1 $437 -5.8923211541852015e-017 $437 6.2831853071796004 $287 $438 forward 7 unknown #
loop $-1 $-1 $294 $181 #
plane-surface $-1 -8.0729605200577481 -20.973245934596321 45.292883548444792 0 0.61566148304635926 0.78801074757464917 1 0 0 forward_v I I I I #
loop $-1 $-1 $439 $115 #
coedge $-1 $292 $292 $293 $440 reversed $182 $-1 #
coedge $-1 $293 $293 $292 $440 forward $184 $-1 #
coedge $-1 $294 $294 $185 $295 forward $289 $-1 #
edge $-1 $441 -5.8923211541852015e-017 $441 6.2831853071796004 $294 $442 forward 7 unknown #
face $-1 $443 $444 $62 $-1 $445 forward single #
loop $-1 $-1 $446 $186 #
plane-surface $-1 22.455408791831609 54.557315573253675 141.96759177288658 -1 0 0 0 0.61566148304635926 0.78801074757464917 forward_v I I I I #
coedge $-1 $447 $448 $449 $450 reversed $187 $-1 #
coedge $-1 $301 $189 $451 $452 reversed $119 $-1 #
coedge $-1 $189 $300 $447 $453 reversed $119 $-1 #
coedge $-1 $449 $454 $189 $303 forward $444 $-1 #
edge $-1 $455 -9.1318687496446529 $456 0.85220456042339521 $302 $457 forward 7 unknown #
loop $-1 $-1 $309 $190 #
plane-surface $-1 16.52231685106041 -20.973245934596321 45.292883548444792 0 0.61566148304635926 0.78801074757464917 1 0 0 forward_v I I I I #
loop $-1 $-1 $458 $121 #
coedge $-1 $307 $307 $308 $459 reversed $191 $-1 #
coedge $-1 $308 $308 $307 $459 forward $193 $-1 #
coedge $-1 $309 $309 $194 $310 forward $304 $-1 #
edge $-1 $460 -5.8923211541852015e-017 $460 6.2831853071796004 $309 $461 forward 7 unknown #
loop $-1 $-1 $316 $195 #
plane-surface $-1 16.52231685106041 -20.973245934596321 45.292883548444792 0 0.61566148304635926 0.78801074757464917 1 0 0 forward_v I I I I #
loop $-1 $-1 $462 $124 #
coedge $-1 $314 $314 $315 $463 reversed $196 $-1 #
coedge $-1 $315 $315 $314 $463 forward $198 $-1 #
coedge $-1 $316 $316 $199 $317 forward $311 $-1 #
edge $-1 $464 -5.8923211541852015e-017 $464 6.2831853071796004 $316 $465 forward 7 unknown #
face $-1 $466 $467 $65 $-1 $468 forward single #
loop $-1 $-1 $469 $200 #
plane-surface $-1 47.050686162949766 54.557315573253675 141.96759177288658 -1 0 0 0 0.61566148304635926 0.78801074757464917 forward_v I I I I #
coedge $-1 $470 $471 $472 $473 reversed $201 $-1 #
coedge $-1 $323 $203 $474 $475 reversed $128 $-1 #
coedge $-1 $203 $322 $470 $476 reversed $128 $-1 #
coedge $-1 $472 $477 $203 $325 forward $467 $-1 #
edge $-1 $478 -9.1318687496446529 $479 0.85220456042339521 $324 $480 forward 7 unknown #
loop $-1 $-1 $331 $204 #
plane-surface $-1 41.117594222178568 -20.973245934596321 45.292883548444792 0 0.61566148304635926 0.78801074757464917 1 0 0 forward_v I I I I #
loop $-1 $-1 $481 $130 #
coedge $-1 $329 $329 $330 $482 reversed $205 $-1 #
coedge $-1 $330 $330 $329 $482 forward $207 $-1 #
coedge $-1 $331 $331 $208 $332 forward $326 $-1 #
edge $-1 $483 -5.8923211541852015e-017 $483 6.2831853071796004 $331 $484 forward 7 unknown #
loop $-1 $-1 $338 $209 #
plane-surface $-1 41.117594222178568 -20.973245934596321 45.292883548444792 0 0.61566148304635926 0.78801074757464917 1 0 0 forward_v I I I I #
loop $-1 $-1 $485 $133 #
coedge $-1 $336 $336 $337 $486 reversed $210 $-1 #
coedge $-1 $337 $337 $336 $486 forward $212 $-1 #
coedge $-1 $338 $338 $213 $339 forward $333 $-1 #
edge $-1 $487 -5.8923211541852015e-017 $487 6.2831853071796004 $338 $488 forward 7 unknown #
face $-1 $489 $490 $51 $-1 $491 reversed single #
loop $-1 $-1 $492 $214 #
plane-surface $-1 -61.340983306375321 0 0 1 0 0 0 0 -1 forward_v I I I I #
coedge $-1 $493 $351 $492 $494 forward $215 $-1 #
coedge $-1 $495 $217 $493 $496 forward $137 $-1 #
coedge $-1 $217 $495 $497 $498 forward $137 $-1 #
coedge $-1 $354 $353 $217 $347 reversed $355 $-1 #
edge $-1 $499 -36.41052653627149 $500 36.41052653627149 $346 $501 forward 7 unknown #
coedge $-1 $219 $218 $502 $503 forward $86 $-1 #
coedge $-1 $504 $505 $218 $350 reversed $490 $-1 #
edge $-1 $357 -61.340983306375321 $506 61.340983306375321 $349 $507 forward 7 unknown #
coedge $-1 $343 $508 $219 $352 reversed $215 $-1 #
edge $-1 $509 -61.340983306375321 $356 61.340983306375321 $351 $510 forward 7 unknown #
coedge $-1 $346 $220 $508 $511 forward $355 $-1 #
coedge $-1 $220 $346 $504 $512 reversed $355 $-1 #
loop $-1 $-1 $353 $489 #
vertex $-1 $221 $513 #
vertex $-1 $221 $514 #
straight-curve $-1 61.340983306375321 0 8.2601791454825815 0 1 0 I I #
face $-1 $515 $516 $52 $-1 $517 reversed single #
loop $-1 $-1 $518 $222 #
plane-surface $-1 -69.790339637377954 0 -6.7601791454825815 1 0 0 0 0 -1 forward_v I I I I #
coedge $-1 $519 $225 $520 $521 reversed $141 $-1 #
coedge $-1 $225 $519 $368 $522 reversed $141 $-1 #
edge $-1 $370 5.2601791454825815 $523 8.2601791454825815 $225 $524 forward 7 unknown #
coedge $-1 $227 $226 $525 $526 reversed $89 $-1 #
coedge $-1 $527 $528 $226 $367 forward $529 $-1 #
edge $-1 $530 -8.2601791454825815 $371 -5.2601791454825815 $366 $531 forward 7 unknown #
coedge $-1 $532 $228 $363 $522 forward $223 $-1 #
coedge $-1 $228 $532 $527 $533 forward $223 $-1 #
vertex $-1 $364 $534 #
vertex $-1 $533 $535 #
straight-curve $-1 -61.340983306375321 0 -5.2601791454825815 0 -1 0 I I #
face $-1 $-1 $536 $53 $-1 $537 reversed single #
loop $-1 $-1 $379 $230 #
plane-surface $-1 0 0 8.2601791454825815 0 0 1 1 0 0 forward_v I I I I #
coedge $-1 $538 $539 $378 $540 forward $231 $-1 #
coedge $-1 $378 $233 $235 $384 reversed $145 $-1 #
coedge $-1 $233 $377 $376 $540 reversed $145 $-1 #
coedge $-1 $541 $236 $233 $380 forward $374 $-1 #
edge $-1 $387 -33.515138294821533 $542 -29.465634687827432 $379 $543 forward 7 unknown #
coedge $-1 $235 $234 $538 $544 reversed $92 $-1 #
coedge $-1 $545 $546 $234 $383 forward $536 $-1 #
edge $-1 $547 -10.190405686328734 $386 -3.7556806554172857 $382 $548 forward 7 unknown #
edge $-1 $549 -2.2748066086763162e-014 $387 6.4347250309114266 $377 $550 forward 7 unknown #
coedge $-1 $236 $541 $545 $551 forward $374 $-1 #
vertex $-1 $383 $552 #
vertex $-1 $237 $553 #
straight-curve $-1 26.170928852949764 -32.361022929277382 8.2601791454825815 -1 0 0 I I #
coedge $-1 $389 $389 $-1 $554 reversed $240 $-1 #
edge $-1 $555 0 $555 6.2831853071796004 $241 $556 forward 7 unknown #
vertex $-1 $244 $557 #
ellipse-curve $-1 48.485089591409917 -34.385774732774436 5.7598188334285325 0 -0.77714596973225614 0.62932038083071107 1.5 0 0 1 I I #
coedge $-1 $393 $393 $-1 $558 reversed $247 $-1 #
edge $-1 $559 0 $559 6.2831853071796004 $248 $560 forward 7 unknown #
vertex $-1 $251 $561 #
ellipse-curve $-1 56.198625820389168 -34.385774732774436 5.7598188334285325 0 -0.77714596973225614 0.62932038083071107 1.5 0 0 1 I I #
face $-1 $-1 $562 $56 $-1 $563 reversed single #
loop $-1 $-1 $258 $252 #
plane-surface $-1 0 0 8.2601791454825815 0 0 1 1 0 0 forward_v I I I I #
coedge $-1 $564 $565 $566 $567 reversed $253 $-1 #
coedge $-1 $568 $255 $257 $407 forward $159 $-1 #
coedge $-1 $255 $568 $564 $569 forward $159 $-1 #
coedge $-1 $566 $258 $255 $404 forward $398 $-1 #
edge $-1 $410 -22.267210886359152 $570 -10.401027004816754 $403 $571 forward 7 unknown #
coedge $-1 $572 $573 $256 $406 forward $562 $-1 #
edge $-1 $574 -70.524029869637957 $409 -62.723616740960708 $405 $575 forward 7 unknown #
edge $-1 $410 60.151082084460441 $574 72.821053072542995 $257 $576 forward 7 unknown #
coedge $-1 $258 $566 $572 $577 forward $398 $-1 #
vertex $-1 $406 $578 #
vertex $-1 $259 $579 #
straight-curve $-1 -38.601329831947105 27.278657786626837 8.2601791454825815 0 -1 0 I I #
coedge $-1 $412 $412 $-1 $580 reversed $262 $-1 #
edge $-1 $581 0 $581 6.2831853071796004 $263 $582 forward 7 unknown #
vertex $-1 $266 $583 #
ellipse-curve $-1 -35.210991580077845 31.418489881237477 4.3599725811439534 0 0.61566148304635926 0.78801074757464917 1.5 0 0 1 I I #
coedge $-1 $416 $416 $-1 $584 reversed $269 $-1 #
edge $-1 $585 0 $585 6.2831853071796004 $270 $586 forward 7 unknown #
vertex $-1 $273 $587 #
ellipse-curve $-1 -30.125484202273963 31.418489881237477 4.3599725811439534 0 0.61566148304635926 0.78801074757464917 1.5 0 0 1 I I #
face $-1 $-1 $588 $59 $-1 $589 reversed single #
loop $-1 $-1 $280 $274 #
plane-surface $-1 0 0 8.2601791454825815 0 0 1 1 0 0 forward_v I I I I #
coedge $-1 $590 $591 $592 $593 reversed $275 $-1 #
coedge $-1 $594 $277 $279 $430 forward $173 $-1 #
coedge $-1 $277 $594 $590 $595 forward $173 $-1 #
coedge $-1 $592 $280 $277 $427 forward $421 $-1 #
edge $-1 $433 -9.9695722008000729 $596 1.8966116807423248 $426 $597 forward 7 unknown #
coedge $-1 $598 $599 $278 $429 forward $588 $-1 #
edge $-1 $600 -70.524029869637957 $432 -62.723616740960708 $428 $601 forward 7 unknown #
edge $-1 $433 60.151082084460441 $600 72.821053072542995 $279 $602 forward 7 unknown #
coedge $-1 $280 $592 $598 $603 forward $421 $-1 #
vertex $-1 $281 $604 #
vertex $-1 $281 $605 #
straight-curve $-1 -14.006052460828947 27.278657786626837 8.2601791454825815 0 -1 0 I I #
coedge $-1 $435 $435 $-1 $606 reversed $284 $-1 #
edge $-1 $607 0 $607 6.2831853071796004 $285 $608 forward 7 unknown #
vertex $-1 $288 $609 #
ellipse-curve $-1 -10.615714208959695 31.418489881237477 4.3599725811439534 0 0.61566148304635926 0.78801074757464917 1.5 0 0 1 I I #
coedge $-1 $439 $439 $-1 $610 reversed $291 $-1 #
edge $-1 $611 0 $611 6.2831853071796004 $292 $612 forward 7 unknown #
vertex $-1 $295 $613 #
ellipse-curve $-1 -5.5302068311558088 31.418489881237477 4.3599725811439534 0 0.61566148304635926 0.78801074757464917 1.5 0 0 1 I I #
face $-1 $-1 $614 $62 $-1 $615 reversed single #
loop $-1 $-1 $302 $296 #
plane-surface $-1 0 0 8.2601791454825815 0 0 1 1 0 0 forward_v I I I I #
coedge $-1 $616 $617 $618 $619 reversed $297 $-1 #
coedge $-1 $620 $299 $301 $453 forward $187 $-1 #
coedge $-1 $299 $620 $616 $621 forward $187 $-1 #
coedge $-1 $618 $302 $299 $450 forward $444 $-1 #
edge $-1 $456 2.328066484759006 $622 14.194250366301404 $449 $623 forward 7 unknown #
coedge $-1 $624 $625 $300 $452 forward $614 $-1 #
edge $-1 $626 -70.524029869637957 $455 -62.723616740960708 $451 $627 forward 7 unknown #
edge $-1 $456 60.151082084460441 $626 72.821053072542995 $301 $628 forward 7 unknown #
coedge $-1 $302 $618 $624 $629 forward $444 $-1 #
vertex $-1 $303 $630 #
vertex $-1 $303 $631 #
straight-curve $-1 10.589224910289211 27.278657786626837 8.2601791454825815 0 -1 0 I I #
coedge $-1 $458 $458 $-1 $632 reversed $306 $-1 #
edge $-1 $633 0 $633 6.2831853071796004 $307 $634 forward 7 unknown #
vertex $-1 $310 $635 #
ellipse-curve $-1 13.979563162158456 31.418489881237477 4.3599725811439534 0 0.61566148304635926 0.78801074757464917 1.5 0 0 1 I I #
coedge $-1 $462 $462 $-1 $636 reversed $313 $-1 #
edge $-1 $637 0 $637 6.2831853071796004 $314 $638 forward 7 unknown #
vertex $-1 $317 $639 #
ellipse-curve $-1 19.065070539962349 31.418489881237477 4.3599725811439534 0 0.61566148304635926 0.78801074757464917 1.5 0 0 1 I I #
face $-1 $-1 $640 $65 $-1 $641 reversed single #
loop $-1 $-1 $324 $318 #
plane-surface $-1 0 0 8.2601791454825815 0 0 1 1 0 0 forward_v I I I I #
coedge $-1 $642 $643 $644 $645 reversed $319 $-1 #
coedge $-1 $646 $321 $323 $476 forward $201 $-1 #
coedge $-1 $321 $646 $642 $647 forward $201 $-1 #
coedge $-1 $644 $324 $321 $473 forward $467 $-1 #
edge $-1 $479 14.625705170318085 $648 26.491889051860483 $472 $649 forward 7 unknown #
coedge $-1 $650 $651 $322 $475 forward $640 $-1 #
edge $-1 $652 -70.524029869637957 $478 -62.723616740960708 $474 $653 forward 7 unknown #
edge $-1 $479 60.151082084460441 $652 72.821053072542995 $323 $654 forward 7 unknown #
coedge $-1 $324 $644 $650 $655 forward $467 $-1 #
vertex $-1 $325 $656 #
vertex $-1 $325 $657 #
straight-curve $-1 35.184502281407369 27.278657786626837 8.2601791454825815 0 -1 0 I I #
coedge $-1 $481 $481 $-1 $658 reversed $328 $-1 #
edge $-1 $659 0 $659 6.2831853071796004 $329 $660 forward 7 unknown #
vertex $-1 $332 $661 #
ellipse-curve $-1 38.574840533276614 31.418489881237477 4.3599725811439534 0 0.61566148304635926 0.78801074757464917 1.5 0 0 1 I I #
coedge $-1 $485 $485 $-1 $662 reversed $335 $-1 #
edge $-1 $663 0 $663 6.2831853071796004 $336 $664 forward 7 unknown #
vertex $-1 $339 $665 #
ellipse-curve $-1 43.660347911080507 31.418489881237477 4.3599725811439534 0 0.61566148304635926 0.78801074757464917 1.5 0 0 1 I I #
face $-1 $-1 $355 $51 $-1 $666 reversed single #
loop $-1 $-1 $504 $340 #
plane-surface $-1 0 36.41052653627149 0 0 -1 0 0 0 -1 forward_v I I I I #
coedge $-1 $502 $667 $343 $494 reversed $341 $-1 #
coedge $-1 $508 $343 $344 $496 reversed $215 $-1 #
edge $-1 $509 -8.2601791454825815 $668 8.2601791454825815 $492 $669 forward 7 unknown #
coedge $-1 $345 $344 $667 $670 forward $137 $-1 #
edge $-1 $500 -61.340983306375321 $668 61.340983306375321 $493 $671 forward 7 unknown #
coedge $-1 $505 $504 $345 $498 reversed $490 $-1 #
edge $-1 $672 -61.340983306375321 $499 61.340983306375321 $497 $673 forward 7 unknown #
vertex $-1 $347 $674 #
vertex $-1 $511 $675 #
straight-curve $-1 61.340983306375321 0 -8.2601791454825815 0 -1 0 I I #
coedge $-1 $676 $492 $348 $503 reversed $341 $-1 #
edge $-1 $506 -36.41052653627149 $509 36.41052653627149 $502 $677 forward 7 unknown #
coedge $-1 $497 $349 $354 $512 forward $490 $-1 #
coedge $-1 $349 $497 $676 $678 reversed $490 $-1 #
vertex $-1 $350 $679 #
straight-curve $-1 0 36.41052653627149 8.2601791454825815 -1 0 0 I I #
coedge $-1 $351 $493 $353 $511 reversed $215 $-1 #
vertex $-1 $503 $680 #
straight-curve $-1 0 -36.41052653627149 8.2601791454825815 1 0 0 I I #
edge $-1 $356 -8.2601791454825815 $500 8.2601791454825815 $353 $681 forward 7 unknown #
edge $-1 $357 -8.2601791454825815 $499 8.2601791454825815 $354 $682 forward 7 unknown #
point $-1 61.340983306375321 -36.41052653627149 8.2601791454825815 #
point $-1 61.340983306375321 36.41052653627149 8.2601791454825815 #
face $-1 $-1 $529 $52 $-1 $683 reversed single #
loop $-1 $-1 $525 $359 #
plane-surface $-1 0 0 -8.2601791454825815 0 0 1 1 0 0 forward_v I I I I #
coedge $-1 $684 $685 $519 $686 forward $360 $-1 #
coedge $-1 $363 $362 $518 $686 reversed $141 $-1 #
coedge $-1 $525 $687 $362 $521 forward $516 $-1 #
edge $-1 $688 -69.790339637377954 $523 -61.340983306375321 $362 $689 forward 7 unknown #
edge $-1 $370 -4.2246781655013237 $690 4.2246781655013166 $363 $691 forward 7 unknown #
vertex $-1 $364 $692 #
straight-curve $-1 -61.340983306375321 36.41052653627149 0 0 0 -1 I I #
coedge $-1 $693 $520 $365 $526 forward $516 $-1 #
edge $-1 $523 -36.41052653627149 $530 36.41052653627149 $525 $694 forward 7 unknown #
coedge $-1 $695 $366 $369 $533 reversed $529 $-1 #
coedge $-1 $366 $695 $693 $696 reversed $529 $-1 #
loop $-1 $-1 $366 $515 #
vertex $-1 $696 $697 #
straight-curve $-1 -61.340983306375321 -36.41052653627149 0 0 0 1 I I #
coedge $-1 $369 $368 $685 $698 forward $223 $-1 #
edge $-1 $699 -4.2246781655013166 $371 4.2246781655013237 $527 $700 forward 7 unknown #
point $-1 -61.340983306375314 36.41052653627149 -5.2601791454825815 #
point $-1 -61.340983306375314 -36.41052653627149 -5.2601791454825815 #
loop $-1 $-1 $382 $373 #
plane-surface $-1 61.340983306375321 0 0 -1 0 0 0 0 1 forward_v I I I I #
coedge $-1 $701 $376 $381 $544 forward $231 $-1 #
coedge $-1 $376 $701 $541 $702 reversed $231 $-1 #
edge $-1 $542 31.972681090103073 $549 36.973401714211178 $376 $703 forward 7 unknown #
coedge $-1 $385 $379 $539 $702 forward $374 $-1 #
vertex $-1 $702 $704 #
straight-curve $-1 43.342732105423742 -65.876161224098922 8.2601791454825815 0 -1 0 I I #
edge $-1 $549 17.171803252473978 $547 35.17005445342555 $538 $705 forward 7 unknown #
coedge $-1 $546 $382 $385 $551 reversed $536 $-1 #
coedge $-1 $382 $545 $701 $706 forward $536 $-1 #
vertex $-1 $544 $707 #
straight-curve $-1 61.340983306375321 -29.997496548931647 11.178891230441522 0 0.62932038083071107 0.77714596973225614 I I #
vertex $-1 $544 $708 #
straight-curve $-1 43.342732105423742 -36.410526536271476 3.2594585213744978 0 0.62932038083071107 0.77714596973225614 I I #
edge $-1 $709 -36.41052653627149 $386 -32.361022929277389 $545 $710 forward 7 unknown #
point $-1 61.340983306375314 -32.361022929277389 8.2601791454825815 #
point $-1 43.342732105423742 -32.361022929277389 8.2601791454825815 #
edge $-1 $711 1 $711 0 $389 $-1 forward 7 unknown #
vertex $-1 $390 $712 #
ellipse-curve $-1 48.485089591409917 -30.596681172258986 2.6914714503387001 0 -0.77714596973225614 0.62932038083071107 1.5 0 0 1 I I #
point $-1 49.985089591409917 -34.385774732774451 5.7598188334285414 #
edge $-1 $713 1 $713 0 $393 $-1 forward 7 unknown #
vertex $-1 $394 $714 #
ellipse-curve $-1 56.198625820389168 -30.596681172258986 2.6914714503387001 0 -0.77714596973225614 0.62932038083071107 1.5 0 0 1 I I #
point $-1 57.698625820389168 -34.385774732774451 5.7598188334285414 #
loop $-1 $-1 $405 $397 #
plane-surface $-1 0 36.41052653627149 0 0 -1 0 0 0 -1 forward_v I I I I #
coedge $-1 $565 $400 $402 $569 reversed $253 $-1 #
coedge $-1 $400 $564 $715 $716 reversed $253 $-1 #
coedge $-1 $408 $403 $400 $567 forward $398 $-1 #
edge $-1 $570 -0.85220456042339521 $717 9.1318687496446529 $566 $718 forward 7 unknown #
coedge $-1 $402 $401 $573 $719 reversed $159 $-1 #
edge $-1 $720 -72.821053072542995 $570 -60.151082084460441 $564 $721 forward 7 unknown #
vertex $-1 $404 $722 #
straight-curve $-1 -16.334118945587953 26.426453226203449 8.2601791454825779 1 0 0 I I #
coedge $-1 $715 $405 $408 $577 reversed $562 $-1 #
coedge $-1 $405 $715 $568 $719 forward $562 $-1 #
vertex $-1 $406 $723 #
straight-curve $-1 -38.601329831947105 36.41052653627149 70.983795886443289 0 0 1 I I #
straight-curve $-1 -38.601329831947105 -20.973245934596321 45.292883548444792 0 0.78801074757464917 -0.61566148304635926 I I #
edge $-1 $717 26.735145950404707 $409 38.601329831947105 $572 $724 forward 7 unknown #
point $-1 -38.601329831947105 36.41052653627149 8.2601791454825815 #
point $-1 -38.601329831947105 26.426453226203442 8.2601791454825815 #
edge $-1 $725 1 $725 0 $412 $-1 forward 7 unknown #
vertex $-1 $413 $726 #
ellipse-curve $-1 -35.210991580077845 28.592688788545455 0.74311219135435191 0 0.61566148304635926 0.78801074757464917 1.5 0 0 1 I I #
point $-1 -33.710991580077845 31.418489881237502 4.3599725811439853 #
edge $-1 $727 1 $727 0 $416 $-1 forward 7 unknown #
vertex $-1 $417 $728 #
ellipse-curve $-1 -30.125484202273963 28.592688788545455 0.74311219135435191 0 0.61566148304635926 0.78801074757464917 1.5 0 0 1 I I #
point $-1 -28.625484202273963 31.418489881237502 4.3599725811439853 #
loop $-1 $-1 $428 $420 #
plane-surface $-1 0 36.41052653627149 0 0 -1 0 0 0 -1 forward_v I I I I #
coedge $-1 $591 $423 $425 $595 reversed $275 $-1 #
coedge $-1 $423 $590 $729 $730 reversed $275 $-1 #
coedge $-1 $431 $426 $423 $593 forward $421 $-1 #
edge $-1 $596 -0.85220456042339521 $731 9.1318687496446529 $592 $732 forward 7 unknown #
coedge $-1 $425 $424 $599 $733 reversed $173 $-1 #
edge $-1 $734 -72.821053072542995 $596 -60.151082084460441 $590 $735 forward 7 unknown #
vertex $-1 $427 $736 #
straight-curve $-1 -4.0364802600288741 26.426453226203449 8.2601791454825779 1 0 0 I I #
coedge $-1 $729 $428 $431 $603 reversed $588 $-1 #
coedge $-1 $428 $729 $594 $733 forward $588 $-1 #
vertex $-1 $429 $737 #
straight-curve $-1 -14.006052460828947 36.41052653627149 70.983795886443289 0 0 1 I I #
straight-curve $-1 -14.006052460828947 -20.973245934596321 45.292883548444792 0 0.78801074757464917 -0.61566148304635926 I I #
edge $-1 $731 2.1398685792865493 $432 14.006052460828947 $598 $738 forward 7 unknown #
point $-1 -14.006052460828947 36.41052653627149 8.2601791454825815 #
point $-1 -14.006052460828947 26.426453226203442 8.2601791454825815 #
edge $-1 $739 1 $739 0 $435 $-1 forward 7 unknown #
vertex $-1 $436 $740 #
ellipse-curve $-1 -10.615714208959695 28.592688788545455 0.74311219135435191 0 0.61566148304635926 0.78801074757464917 1.5 0 0 1 I I #
point $-1 -9.1157142089596945 31.418489881237502 4.3599725811439853 #
edge $-1 $741 1 $741 0 $439 $-1 forward 7 unknown #
vertex $-1 $440 $742 #
ellipse-curve $-1 -5.5302068311558088 28.592688788545455 0.74311219135435191 0 0.61566148304635926 0.78801074757464917 1.5 0 0 1 I I #
point $-1 -4.0302068311558088 31.418489881237502 4.3599725811439853 #
loop $-1 $-1 $451 $443 #
plane-surface $-1 0 36.41052653627149 0 0 -1 0 0 0 -1 forward_v I I I I #
coedge $-1 $617 $446 $448 $621 reversed $297 $-1 #
coedge $-1 $446 $616 $743 $744 reversed $297 $-1 #
coedge $-1 $454 $449 $446 $619 forward $444 $-1 #
edge $-1 $622 -0.85220456042339521 $745 9.1318687496446529 $618 $746 forward 7 unknown #
coedge $-1 $448 $447 $625 $747 reversed $187 $-1 #
edge $-1 $748 -72.821053072542995 $622 -60.151082084460441 $616 $749 forward 7 unknown #
vertex $-1 $450 $750 #
straight-curve $-1 8.2611584255302049 26.426453226203449 8.2601791454825779 1 0 0 I I #
coedge $-1 $743 $451 $454 $629 reversed $614 $-1 #
coedge $-1 $451 $743 $620 $747 forward $614 $-1 #
vertex $-1 $452 $751 #
straight-curve $-1 10.589224910289211 36.41052653627149 70.983795886443289 0 0 1 I I #
straight-curve $-1 10.589224910289211 -20.973245934596321 45.292883548444792 0 0.78801074757464917 -0.61566148304635926 I I #
edge $-1 $745 -22.455408791831609 $455 -10.589224910289211 $624 $752 forward 7 unknown #
point $-1 10.589224910289211 36.41052653627149 8.2601791454825815 #
point $-1 10.589224910289211 26.426453226203442 8.2601791454825815 #
edge $-1 $753 1 $753 0 $458 $-1 forward 7 unknown #
vertex $-1 $459 $754 #
ellipse-curve $-1 13.979563162158456 28.592688788545455 0.74311219135435191 0 0.61566148304635926 0.78801074757464917 1.5 0 0 1 I I #
point $-1 15.479563162158456 31.418489881237502 4.3599725811439853 #
edge $-1 $755 1 $755 0 $462 $-1 forward 7 unknown #
vertex $-1 $463 $756 #
ellipse-curve $-1 19.065070539962349 28.592688788545455 0.74311219135435191 0 0.61566148304635926 0.78801074757464917 1.5 0 0 1 I I #
point $-1 20.565070539962349 31.418489881237502 4.3599725811439853 #
loop $-1 $-1 $474 $466 #
plane-surface $-1 0 36.41052653627149 0 0 -1 0 0 0 -1 forward_v I I I I #
coedge $-1 $643 $469 $471 $647 reversed $319 $-1 #
coedge $-1 $469 $642 $757 $758 reversed $319 $-1 #
coedge $-1 $477 $472 $469 $645 forward $467 $-1 #
edge $-1 $648 -0.85220456042339521 $759 9.1318687496446529 $644 $760 forward 7 unknown #
coedge $-1 $471 $470 $651 $761 reversed $201 $-1 #
edge $-1 $762 -72.821053072542995 $648 -60.151082084460441 $642 $763 forward 7 unknown #
vertex $-1 $473 $764 #
straight-curve $-1 20.558797111089284 26.426453226203449 8.2601791454825779 1 0 0 I I #
coedge $-1 $757 $474 $477 $655 reversed $640 $-1 #
coedge $-1 $474 $757 $646 $761 forward $640 $-1 #
vertex $-1 $475 $765 #
straight-curve $-1 35.184502281407369 36.41052653627149 70.983795886443289 0 0 1 I I #
straight-curve $-1 35.184502281407369 -20.973245934596321 45.292883548444792 0 0.78801074757464917 -0.61566148304635926 I I #
edge $-1 $759 -47.050686162949766 $478 -35.184502281407369 $650 $766 forward 7 unknown #
point $-1 35.184502281407369 36.41052653627149 8.2601791454825815 #
point $-1 35.184502281407369 26.426453226203442 8.2601791454825815 #
edge $-1 $767 1 $767 0 $481 $-1 forward 7 unknown #
vertex $-1 $482 $768 #
ellipse-curve $-1 38.574840533276614 28.592688788545455 0.74311219135435191 0 0.61566148304635926 0.78801074757464917 1.5 0 0 1 I I #
point $-1 40.074840533276614 31.418489881237502 4.3599725811439853 #
edge $-1 $769 1 $769 0 $485 $-1 forward 7 unknown #
vertex $-1 $486 $770 #
ellipse-curve $-1 43.660347911080507 28.592688788545455 0.74311219135435191 0 0.61566148304635926 0.78801074757464917 1.5 0 0 1 I I #
point $-1 45.160347911080507 31.418489881237502 4.3599725811439853 #
plane-surface $-1 61.340983306375321 0 0 -1 0 0 0 0 1 forward_v I I I I #
coedge $-1 $492 $676 $495 $670 reversed $341 $-1 #
vertex $-1 $670 $771 #
straight-curve $-1 -61.340983306375321 -36.41052653627149 0 0 0 -1 I I #
edge $-1 $668 -36.41052653627149 $672 36.41052653627149 $667 $772 forward 7 unknown #
straight-curve $-1 0 -36.41052653627149 -8.2601791454825815 -1 0 0 I I #
vertex $-1 $498 $773 #
straight-curve $-1 0 36.41052653627149 -8.2601791454825815 1 0 0 I I #
point $-1 61.340983306375321 36.41052653627149 -8.2601791454825815 #
point $-1 61.340983306375321 -36.41052653627149 -8.2601791454825815 #
coedge $-1 $667 $502 $505 $678 forward $341 $-1 #
straight-curve $-1 -61.340983306375321 0 8.2601791454825815 0 -1 0 I I #
edge $-1 $506 -8.2601791454825815 $672 8.2601791454825815 $505 $774 forward 7 unknown #
point $-1 -61.340983306375321 36.41052653627149 8.2601791454825815 #
point $-1 -61.340983306375321 -36.41052653627149 8.2601791454825815 #
straight-curve $-1 61.340983306375321 -36.41052653627149 0 0 0 -1 I I #
straight-curve $-1 61.340983306375321 36.41052653627149 0 0 0 -1 I I #
plane-surface $-1 0 -36.41052653627149 0 0 1 0 0 0 1 forward_v I I I I #
coedge $-1 $775 $518 $687 $776 reversed $360 $-1 #
coedge $-1 $518 $775 $532 $698 reversed $360 $-1 #
edge $-1 $690 -1.5 $688 1.5 $519 $777 forward 7 unknown #
coedge $-1 $520 $693 $684 $776 forward $516 $-1 #
vertex $-1 $521 $778 #
straight-curve $-1 0 36.41052653627149 -8.2601791454825815 1 0 0 I I #
vertex $-1 $522 $779 #
straight-curve $-1 -65.565661471876638 36.41052653627149 -5.2601791454825815 -1 0 0 I I #
point $-1 -61.340983306375321 36.41052653627149 -8.2601791454825815 #
coedge $-1 $687 $525 $528 $696 forward $516 $-1 #
straight-curve $-1 -61.340983306375321 0 -8.2601791454825815 0 -1 0 I I #
coedge $-1 $528 $527 $775 $780 forward $529 $-1 #
edge $-1 $530 -4.2246781655013166 $781 4.2246781655013166 $528 $782 forward 7 unknown #
point $-1 -61.340983306375321 -36.41052653627149 -8.2601791454825815 #
edge $-1 $690 -36.41052653627149 $699 36.41052653627149 $685 $783 forward 7 unknown #
vertex $-1 $698 $784 #
straight-curve $-1 -65.565661471876638 -36.41052653627149 -5.2601791454825815 1 0 0 I I #
coedge $-1 $539 $538 $546 $706 reversed $231 $-1 #
edge $-1 $542 43.342732105423742 $709 61.340983306375321 $539 $785 forward 7 unknown #
straight-curve $-1 43.342732105423742 -36.41052653627149 40.232860235585655 0 0 -1 I I #
point $-1 43.342732105423742 -36.41052653627149 8.2601791454825815 #
straight-curve $-1 26.170928852949764 -36.41052653627149 3.2594585213744809 1 0 0 I I #
edge $-1 $709 -8.2601791454825815 $547 -3.25945852137448 $546 $786 forward 7 unknown #
point $-1 61.340983306375314 -36.41052653627149 3.25945852137448 #
point $-1 43.342732105423742 -36.41052653627149 3.25945852137448 #
vertex $-1 $551 $787 #
straight-curve $-1 61.340983306375321 0 8.2601791454825815 0 1 0 I I #
vertex $-1 $554 $788 #
point $-1 49.985089591409917 -30.596681172258986 2.6914714503387001 #
vertex $-1 $558 $789 #
point $-1 57.698625820389168 -30.596681172258986 2.6914714503387001 #
coedge $-1 $573 $572 $565 $716 forward $562 $-1 #
edge $-1 $717 62.723616740960708 $720 70.524029869637957 $715 $790 forward 7 unknown #
vertex $-1 $577 $791 #
straight-curve $-1 -26.735145950404707 27.278657786626837 8.2601791454825815 0 1 0 I I #
edge $-1 $720 10.401027004816754 $574 22.267210886359152 $573 $792 forward 7 unknown #
vertex $-1 $719 $793 #
straight-curve $-1 -26.735145950404707 -20.973245934596321 45.292883548444792 0 -0.78801074757464917 0.61566148304635926 I I #
point $-1 -26.735145950404707 26.426453226203442 8.2601791454825815 #
point $-1 -38.601329831947105 36.41052653627149 0.45976601680533236 #
straight-curve $-1 0 36.41052653627149 8.2601791454825815 -1 0 0 I I #
vertex $-1 $580 $794 #
point $-1 -33.710991580077845 28.592688788545455 0.74311219135435191 #
vertex $-1 $584 $795 #
point $-1 -28.625484202273963 28.592688788545455 0.74311219135435191 #
coedge $-1 $599 $598 $591 $730 forward $588 $-1 #
edge $-1 $731 62.723616740960708 $734 70.524029869637957 $729 $796 forward 7 unknown #
vertex $-1 $603 $797 #
straight-curve $-1 -2.1398685792865493 27.278657786626837 8.2601791454825815 0 1 0 I I #
edge $-1 $734 -1.8966116807423248 $600 9.9695722008000729 $599 $798 forward 7 unknown #
vertex $-1 $733 $799 #
straight-curve $-1 -2.1398685792865493 -20.973245934596321 45.292883548444792 0 -0.78801074757464917 0.61566148304635926 I I #
point $-1 -2.1398685792865493 26.426453226203442 8.2601791454825815 #
point $-1 -14.006052460828947 36.41052653627149 0.45976601680533236 #
straight-curve $-1 0 36.41052653627149 8.2601791454825815 -1 0 0 I I #
vertex $-1 $606 $800 #
point $-1 -9.1157142089596945 28.592688788545455 0.74311219135435191 #
vertex $-1 $610 $801 #
point $-1 -4.0302068311558088 28.592688788545455 0.74311219135435191 #
coedge $-1 $625 $624 $617 $744 forward $614 $-1 #
edge $-1 $745 62.723616740960708 $748 70.524029869637957 $743 $802 forward 7 unknown #
vertex $-1 $629 $803 #
straight-curve $-1 22.455408791831609 27.278657786626837 8.2601791454825815 0 1 0 I I #
edge $-1 $748 -14.194250366301404 $626 -2.328066484759006 $625 $804 forward 7 unknown #
vertex $-1 $747 $805 #
straight-curve $-1 22.455408791831609 -20.973245934596321 45.292883548444792 0 -0.78801074757464917 0.61566148304635926 I I #
point $-1 22.455408791831609 26.426453226203442 8.2601791454825815 #
point $-1 10.589224910289211 36.41052653627149 0.45976601680533236 #
straight-curve $-1 0 36.41052653627149 8.2601791454825815 -1 0 0 I I #
vertex $-1 $632 $806 #
point $-1 15.479563162158456 28.592688788545455 0.74311219135435191 #
vertex $-1 $636 $807 #
point $-1 20.565070539962349 28.592688788545455 0.74311219135435191 #
coedge $-1 $651 $650 $643 $758 forward $640 $-1 #
edge $-1 $759 62.723616740960708 $762 70.524029869637957 $757 $808 forward 7 unknown #
vertex $-1 $655 $809 #
straight-curve $-1 47.050686162949766 27.278657786626837 8.2601791454825815 0 1 0 I I #
edge $-1 $762 -26.491889051860483 $652 -14.625705170318085 $651 $810 forward 7 unknown #
vertex $-1 $761 $811 #
straight-curve $-1 47.050686162949766 -20.973245934596321 45.292883548444792 0 -0.78801074757464917 0.61566148304635926 I I #
point $-1 47.050686162949766 26.426453226203442 8.2601791454825815 #
point $-1 35.184502281407369 36.41052653627149 0.45976601680533236 #
straight-curve $-1 0 36.41052653627149 8.2601791454825815 -1 0 0 I I #
vertex $-1 $658 $812 #
point $-1 40.074840533276614 28.592688788545455 0.74311219135435191 #
vertex $-1 $662 $813 #
point $-1 45.160347911080507 28.592688788545455 0.74311219135435191 #
point $-1 -61.340983306375321 -36.41052653627149 -8.2601791454825815 #
straight-curve $-1 -61.340983306375321 0 -8.2601791454825815 0 1 0 I I #
point $-1 -61.340983306375321 36.41052653627149 -8.2601791454825815 #
straight-curve $-1 -61.340983306375321 36.41052653627149 0 0 0 -1 I I #
coedge $-1 $685 $684 $695 $780 reversed $360 $-1 #
edge $-1 $781 -36.41052653627149 $688 36.41052653627149 $684 $814 forward 7 unknown #
straight-curve $-1 -69.790339637377954 36.41052653627149 -6.7601791454825815 0 0 -1 I I #
point $-1 -69.790339637377954 36.41052653627149 -8.2601791454825815 #
point $-1 -69.790339637377954 36.41052653627149 -5.2601791454825815 #
edge $-1 $699 -1.5 $781 1.5 $775 $815 forward 7 unknown #
vertex $-1 $776 $816 #
straight-curve $-1 -65.565661471876638 -36.41052653627149 -8.2601791454825815 -1 0 0 I I #
straight-curve $-1 -69.790339637377954 0 -5.2601791454825815 0 -1 0 I I #
point $-1 -69.790339637377954 -36.41052653627149 -5.2601791454825815 #
straight-curve $-1 0 -36.41052653627149 8.2601791454825815 1 0 0 I I #
straight-curve $-1 61.340983306375321 -36.41052653627149 0 0 0 -1 I I #
point $-1 61.340983306375321 -36.41052653627149 8.2601791454825815 #
point $-1 48.485089591409917 -29.430962217660603 1.7474908790926336 #
point $-1 56.198625820389168 -29.430962217660603 1.7474908790926336 #
straight-curve $-1 -26.735145950404707 36.41052653627149 70.983795886443289 0 0 -1 I I #
point $-1 -26.735145950404707 36.41052653627149 8.2601791454825815 #
straight-curve $-1 -16.334118945587953 36.41052653627149 0.45976601680533236 -1 0 0 I I #
point $-1 -26.735145950404707 36.41052653627149 0.45976601680533236 #
point $-1 -35.210991580077845 27.66919656397592 -0.43890393000762185 #
point $-1 -30.125484202273963 27.66919656397592 -0.43890393000762185 #
straight-curve $-1 -2.1398685792865493 36.41052653627149 70.983795886443289 0 0 -1 I I #
point $-1 -2.1398685792865493 36.41052653627149 8.2601791454825815 #
straight-curve $-1 -4.0364802600288741 36.41052653627149 0.45976601680533236 -1 0 0 I I #
point $-1 -2.1398685792865493 36.41052653627149 0.45976601680533236 #
point $-1 -10.615714208959695 27.66919656397592 -0.43890393000762185 #
point $-1 -5.5302068311558088 27.66919656397592 -0.43890393000762185 #
straight-curve $-1 22.455408791831609 36.41052653627149 70.983795886443289 0 0 -1 I I #
point $-1 22.455408791831609 36.41052653627149 8.2601791454825815 #
straight-curve $-1 8.2611584255302049 36.41052653627149 0.45976601680533236 -1 0 0 I I #
point $-1 22.455408791831609 36.41052653627149 0.45976601680533236 #
point $-1 13.979563162158456 27.66919656397592 -0.43890393000762185 #
point $-1 19.065070539962349 27.66919656397592 -0.43890393000762185 #
straight-curve $-1 47.050686162949766 36.41052653627149 70.983795886443289 0 0 -1 I I #
point $-1 47.050686162949766 36.41052653627149 8.2601791454825815 #
straight-curve $-1 20.558797111089284 36.41052653627149 0.45976601680533236 -1 0 0 I I #
point $-1 47.050686162949766 36.41052653627149 0.45976601680533236 #
point $-1 38.574840533276614 27.66919656397592 -0.43890393000762185 #
point $-1 43.660347911080507 27.66919656397592 -0.43890393000762185 #
straight-curve $-1 -69.790339637377954 0 -8.2601791454825815 0 1 0 I I #
straight-curve $-1 -69.790339637377954 -36.41052653627149 -6.7601791454825815 0 0 -1 I I #
point $-1 -69.790339637377954 -36.41052653627149 -8.2601791454825815 #
End-of-ACIS-data 