500 0 4 0           
7 Unknown 11 ACIS 5.0 NT 24 Fri Mar 26 16:35:09 1999 
-1 9.9999999999999995e-007 1e-010 
body $-1 $4 $-1 $5 #
body $-1 $6 $-1 $7 #
body $-1 $8 $-1 $9 #
body $-1 $10 $-1 $11 #
lump $-1 $-1 $12 $0 #
transform $-1 1 0 0 0 1 0 0 0 1 78.620563371684923 44.563249592261407 18.697334372826617 1 rotate no_reflect no_shear #
lump $-1 $-1 $13 $1 #
transform $-1 1 0 0 0 1 0 0 0 1 32.306097355640233 12.14289927185315 18.697334372826617 1 rotate no_reflect no_shear #
lump $-1 $-1 $14 $2 #
transform $-1 1 0 0 0 0.54463902268945019 -0.83867057594974714 0 0.83867057594974714 0.54463902268945019 26.362453428861585 172.45823610178138 192.77866897089805 1 rotate no_reflect no_shear #
lump $-1 $-1 $15 $3 #
transform $-1 1 0 0 0 -0.54463902268945019 0.83867057594974714 0 -0.83867057594974714 -0.54463902268945019 26.362453428861588 85.791349252438067 33.782132101478552 1 rotate no_reflect no_shear #
shell $-1 $-1 $-1 $16 $-1 $4 #
shell $-1 $-1 $-1 $17 $-1 $6 #
shell $-1 $-1 $-1 $18 $-1 $8 #
shell $-1 $-1 $-1 $19 $-1 $10 #
face $-1 $20 $21 $12 $-1 $22 forward single #
face $-1 $23 $24 $13 $-1 $25 forward single #
face $-1 $26 $27 $14 $-1 $28 forward single #
face $-1 $29 $30 $15 $-1 $31 forward single #
face $-1 $32 $33 $12 $-1 $34 reversed single #
loop $-1 $-1 $35 $16 #
plane-surface $-1 0 0 18.697334372826617 0 0 1 1 0 0 forward_v I I I I #
face $-1 $36 $37 $13 $-1 $38 reversed single #
loop $-1 $-1 $39 $17 #
plane-surface $-1 0 0 18.697334372826617 0 0 1 1 0 0 forward_v I I I I #
face $-1 $40 $41 $14 $-1 $42 reversed single #
loop $-1 $-1 $43 $18 #
plane-surface $-1 0 0 157.24112674336985 0 0 1 1 0 0 forward_v I I I I #
face $-1 $44 $45 $15 $-1 $46 forward single #
loop $-1 $47 $48 $19 #
cone-surface $-1 0 0 -1.1447798089541301 0 0 1 0.5 0 0 1 I I 0 1 0.5 forward I I I I #
face $-1 $49 $50 $12 $-1 $51 reversed single #
loop $-1 $-1 $52 $20 #
plane-surface $-1 0 0 -18.697334372826617 0 0 1 1 0 0 forward_v I I I I #
coedge $-1 $53 $54 $55 $56 forward $21 $-1 #
face $-1 $57 $58 $13 $-1 $59 reversed single #
loop $-1 $-1 $60 $23 #
plane-surface $-1 0 0 -18.697334372826617 0 0 1 1 0 0 forward_v I I I I #
coedge $-1 $61 $62 $63 $64 forward $24 $-1 #
face $-1 $65 $66 $14 $-1 $67 reversed single #
loop $-1 $-1 $68 $26 #
plane-surface $-1 0 0 -157.24112674336985 0 0 1 1 0 0 forward_v I I I I #
coedge $-1 $69 $70 $71 $72 forward $27 $-1 #
face $-1 $-1 $73 $15 $-1 $74 forward single #
loop $-1 $-1 $75 $29 #
plane-surface $-1 0 0 -2.0395596179082602 0 0 -1 -1 0 0 forward_v I I I I #
loop $-1 $-1 $76 $19 #
coedge $-1 $48 $48 $75 $77 reversed $30 $-1 #
face $-1 $78 $79 $12 $-1 $80 reversed single #
loop $-1 $-1 $81 $32 #
plane-surface $-1 0 -44.563249592261407 0 0 1 0 0 0 1 forward_v I I I I #
coedge $-1 $82 $83 $84 $85 forward $33 $-1 #
coedge $-1 $86 $35 $87 $88 forward $21 $-1 #
coedge $-1 $35 $86 $89 $90 forward $21 $-1 #
coedge $-1 $91 $92 $35 $56 reversed $93 $-1 #
edge $-1 $94 -44.563249592261407 $95 44.563249592261407 $55 $96 forward 7 unknown #
face $-1 $97 $98 $13 $-1 $99 reversed single #
loop $-1 $-1 $100 $36 #
plane-surface $-1 0 -12.14289927185315 0 0 1 0 0 0 1 forward_v I I I I #
coedge $-1 $101 $102 $103 $104 forward $37 $-1 #
coedge $-1 $105 $39 $106 $107 forward $24 $-1 #
coedge $-1 $39 $105 $108 $109 forward $24 $-1 #
coedge $-1 $110 $111 $39 $64 reversed $112 $-1 #
edge $-1 $113 -12.14289927185315 $114 12.14289927185315 $63 $115 forward 7 unknown #
face $-1 $116 $117 $14 $-1 $118 reversed single #
loop $-1 $-1 $119 $40 #
plane-surface $-1 0 -314.48225348673969 0 0 1 0 0 0 1 forward_v I I I I #
coedge $-1 $120 $121 $122 $123 forward $41 $-1 #
coedge $-1 $124 $43 $125 $126 forward $27 $-1 #
coedge $-1 $43 $124 $127 $128 forward $27 $-1 #
coedge $-1 $129 $130 $43 $72 reversed $131 $-1 #
edge $-1 $132 -314.48225348673969 $133 314.48225348673969 $71 $134 forward 7 unknown #
loop $-1 $135 $136 $44 #
cone-surface $-1 0 0 0 0 0 1 0.25 0 0 1 I I -0.70710678118654746 0.70710678118654746 0.25 forward I I I I #
coedge $-1 $75 $75 $48 $77 forward $45 $-1 #
coedge $-1 $76 $76 $136 $137 forward $47 $-1 #
edge $-1 $138 0 $138 6.2831853071796004 $75 $139 forward 7 unknown #
face $-1 $140 $141 $12 $-1 $142 reversed single #
loop $-1 $-1 $143 $49 #
plane-surface $-1 -78.620563371684923 0 0 1 0 0 0 0 -1 forward_v I I I I #
coedge $-1 $144 $89 $145 $146 forward $50 $-1 #
coedge $-1 $147 $52 $144 $148 forward $33 $-1 #
coedge $-1 $52 $147 $149 $150 forward $33 $-1 #
coedge $-1 $92 $91 $52 $85 reversed $93 $-1 #
edge $-1 $151 -44.563249592261407 $152 44.563249592261407 $84 $153 forward 7 unknown #
coedge $-1 $54 $53 $154 $155 forward $21 $-1 #
coedge $-1 $156 $157 $53 $88 reversed $141 $-1 #
edge $-1 $95 -78.620563371684923 $158 78.620563371684923 $87 $159 forward 7 unknown #
coedge $-1 $81 $160 $54 $90 reversed $50 $-1 #
edge $-1 $161 -78.620563371684923 $94 78.620563371684923 $89 $162 forward 7 unknown #
coedge $-1 $84 $55 $160 $163 forward $93 $-1 #
coedge $-1 $55 $84 $156 $164 reversed $93 $-1 #
loop $-1 $-1 $91 $140 #
vertex $-1 $56 $165 #
vertex $-1 $56 $166 #
straight-curve $-1 78.620563371684923 0 18.697334372826617 0 1 0 I I #
face $-1 $167 $168 $13 $-1 $169 reversed single #
loop $-1 $-1 $170 $57 #
plane-surface $-1 -5.0885713900129979 0 0 1 0 0 0 0 -1 forward_v I I I I #
coedge $-1 $171 $108 $172 $173 forward $58 $-1 #
coedge $-1 $174 $60 $171 $175 forward $37 $-1 #
coedge $-1 $60 $174 $176 $177 forward $37 $-1 #
coedge $-1 $111 $110 $60 $104 reversed $112 $-1 #
edge $-1 $178 -12.14289927185315 $179 12.14289927185315 $103 $180 forward 7 unknown #
coedge $-1 $62 $61 $181 $182 forward $24 $-1 #
coedge $-1 $183 $184 $61 $107 reversed $168 $-1 #
edge $-1 $114 -5.0885713900129979 $185 5.0885713900129979 $106 $186 forward 7 unknown #
coedge $-1 $100 $187 $62 $109 reversed $58 $-1 #
edge $-1 $188 -5.0885713900129979 $113 5.0885713900129979 $108 $189 forward 7 unknown #
coedge $-1 $103 $63 $187 $190 forward $112 $-1 #
coedge $-1 $63 $103 $183 $191 reversed $112 $-1 #
loop $-1 $-1 $110 $167 #
vertex $-1 $64 $192 #
vertex $-1 $64 $193 #
straight-curve $-1 5.0885713900129979 0 18.697334372826617 0 1 0 I I #
face $-1 $194 $195 $14 $-1 $196 reversed single #
loop $-1 $-1 $197 $65 #
plane-surface $-1 -23.400936689587262 0 0 1 0 0 0 0 -1 forward_v I I I I #
coedge $-1 $198 $127 $199 $200 forward $66 $-1 #
coedge $-1 $201 $68 $198 $202 forward $41 $-1 #
coedge $-1 $68 $201 $203 $204 forward $41 $-1 #
coedge $-1 $130 $129 $68 $123 reversed $131 $-1 #
edge $-1 $205 -314.48225348673969 $206 314.48225348673969 $122 $207 forward 7 unknown #
coedge $-1 $70 $69 $208 $209 forward $27 $-1 #
coedge $-1 $210 $211 $69 $126 reversed $195 $-1 #
edge $-1 $133 -23.400936689587262 $212 23.400936689587262 $125 $213 forward 7 unknown #
coedge $-1 $119 $214 $70 $128 reversed $66 $-1 #
edge $-1 $215 -23.400936689587262 $132 23.400936689587262 $127 $216 forward 7 unknown #
coedge $-1 $122 $71 $214 $217 forward $131 $-1 #
coedge $-1 $71 $122 $210 $218 reversed $131 $-1 #
loop $-1 $-1 $129 $194 #
vertex $-1 $72 $219 #
vertex $-1 $72 $220 #
straight-curve $-1 23.400936689587262 0 157.24112674336985 0 1 0 I I #
loop $-1 $-1 $221 $44 #
coedge $-1 $136 $136 $76 $137 reversed $73 $-1 #
edge $-1 $222 0 $222 6.2831853071796004 $136 $223 forward 7 unknown #
vertex $-1 $77 $224 #
ellipse-curve $-1 0 0 -2.0395596179082602 0 0 -1 0.5 0 0 1 I I #
face $-1 $-1 $93 $12 $-1 $225 reversed single #
loop $-1 $-1 $156 $78 #
plane-surface $-1 0 44.563249592261407 0 0 -1 0 0 0 -1 forward_v I I I I #
coedge $-1 $226 $154 $157 $227 forward $79 $-1 #
coedge $-1 $160 $81 $82 $148 reversed $50 $-1 #
coedge $-1 $154 $226 $81 $146 reversed $79 $-1 #
edge $-1 $161 -18.697334372826617 $228 18.697334372826617 $145 $229 forward 7 unknown #
coedge $-1 $83 $82 $226 $230 forward $33 $-1 #
edge $-1 $152 -78.620563371684923 $228 78.620563371684923 $144 $231 forward 7 unknown #
coedge $-1 $157 $156 $83 $150 reversed $141 $-1 #
edge $-1 $232 -78.620563371684923 $151 78.620563371684923 $149 $233 forward 7 unknown #
vertex $-1 $85 $234 #
vertex $-1 $163 $235 #
straight-curve $-1 78.620563371684923 0 -18.697334372826617 0 -1 0 I I #
coedge $-1 $143 $145 $86 $155 reversed $79 $-1 #
edge $-1 $158 -44.563249592261407 $161 44.563249592261407 $154 $236 forward 7 unknown #
coedge $-1 $149 $87 $92 $164 forward $141 $-1 #
coedge $-1 $87 $149 $143 $227 reversed $141 $-1 #
vertex $-1 $88 $237 #
straight-curve $-1 0 44.563249592261407 18.697334372826617 -1 0 0 I I #
coedge $-1 $89 $144 $91 $163 reversed $50 $-1 #
vertex $-1 $155 $238 #
straight-curve $-1 0 -44.563249592261407 18.697334372826617 1 0 0 I I #
edge $-1 $94 -18.697334372826617 $152 18.697334372826617 $91 $239 forward 7 unknown #
edge $-1 $95 -18.697334372826617 $151 18.697334372826617 $92 $240 forward 7 unknown #
point $-1 78.620563371684923 -44.563249592261407 18.697334372826617 #
point $-1 78.620563371684923 44.563249592261407 18.697334372826617 #
face $-1 $-1 $112 $13 $-1 $241 reversed single #
loop $-1 $-1 $183 $97 #
plane-surface $-1 0 12.14289927185315 0 0 -1 0 0 0 -1 forward_v I I I I #
coedge $-1 $242 $181 $184 $243 forward $98 $-1 #
coedge $-1 $187 $100 $101 $175 reversed $58 $-1 #
coedge $-1 $181 $242 $100 $173 reversed $98 $-1 #
edge $-1 $188 -18.697334372826617 $244 18.697334372826617 $172 $245 forward 7 unknown #
coedge $-1 $102 $101 $242 $246 forward $37 $-1 #
edge $-1 $179 -5.0885713900129979 $244 5.0885713900129979 $171 $247 forward 7 unknown #
coedge $-1 $184 $183 $102 $177 reversed $168 $-1 #
edge $-1 $248 -5.0885713900129979 $178 5.0885713900129979 $176 $249 forward 7 unknown #
vertex $-1 $104 $250 #
vertex $-1 $190 $251 #
straight-curve $-1 5.0885713900129979 0 -18.697334372826617 0 -1 0 I I #
coedge $-1 $170 $172 $105 $182 reversed $98 $-1 #
edge $-1 $185 -12.14289927185315 $188 12.14289927185315 $181 $252 forward 7 unknown #
coedge $-1 $176 $106 $111 $191 forward $168 $-1 #
coedge $-1 $106 $176 $170 $243 reversed $168 $-1 #
vertex $-1 $107 $253 #
straight-curve $-1 0 12.14289927185315 18.697334372826617 -1 0 0 I I #
coedge $-1 $108 $171 $110 $190 reversed $58 $-1 #
vertex $-1 $182 $254 #
straight-curve $-1 0 -12.14289927185315 18.697334372826617 1 0 0 I I #
edge $-1 $113 -18.697334372826617 $179 18.697334372826617 $110 $255 forward 7 unknown #
edge $-1 $114 -18.697334372826617 $178 18.697334372826617 $111 $256 forward 7 unknown #
point $-1 5.0885713900129979 -12.14289927185315 18.697334372826617 #
point $-1 5.0885713900129979 12.14289927185315 18.697334372826617 #
face $-1 $-1 $131 $14 $-1 $257 reversed single #
loop $-1 $-1 $210 $116 #
plane-surface $-1 0 314.48225348673969 0 0 -1 0 0 0 -1 forward_v I I I I #
coedge $-1 $258 $208 $211 $259 forward $117 $-1 #
coedge $-1 $214 $119 $120 $202 reversed $66 $-1 #
coedge $-1 $208 $258 $119 $200 reversed $117 $-1 #
edge $-1 $215 -157.24112674336985 $260 157.24112674336985 $199 $261 forward 7 unknown #
coedge $-1 $121 $120 $258 $262 forward $41 $-1 #
edge $-1 $206 -23.400936689587262 $260 23.400936689587262 $198 $263 forward 7 unknown #
coedge $-1 $211 $210 $121 $204 reversed $195 $-1 #
edge $-1 $264 -23.400936689587262 $205 23.400936689587262 $203 $265 forward 7 unknown #
vertex $-1 $123 $266 #
vertex $-1 $217 $267 #
straight-curve $-1 23.400936689587262 0 -157.24112674336985 0 -1 0 I I #
coedge $-1 $197 $199 $124 $209 reversed $117 $-1 #
edge $-1 $212 -314.48225348673969 $215 314.48225348673969 $208 $268 forward 7 unknown #
coedge $-1 $203 $125 $130 $218 forward $195 $-1 #
coedge $-1 $125 $203 $197 $259 reversed $195 $-1 #
vertex $-1 $126 $269 #
straight-curve $-1 0 314.48225348673969 157.24112674336985 -1 0 0 I I #
coedge $-1 $127 $198 $129 $217 reversed $66 $-1 #
vertex $-1 $209 $270 #
straight-curve $-1 0 -314.48225348673969 157.24112674336985 1 0 0 I I #
edge $-1 $132 -157.24112674336985 $206 157.24112674336985 $129 $271 forward 7 unknown #
edge $-1 $133 -157.24112674336985 $205 157.24112674336985 $130 $272 forward 7 unknown #
point $-1 23.400936689587262 -314.48225348673969 157.24112674336985 #
point $-1 23.400936689587262 314.48225348673969 157.24112674336985 #
coedge $-1 $221 $221 $-1 $273 reversed $135 $-1 #
vertex $-1 $137 $274 #
ellipse-curve $-1 0 0 -0.25 0 0 -1 0.5 0 0 1 I I #
point $-1 0.5 0 -2.0395596179082602 #
plane-surface $-1 78.620563371684923 0 0 -1 0 0 0 0 1 forward_v I I I I #
coedge $-1 $145 $143 $147 $230 reversed $79 $-1 #
edge $-1 $158 -18.697334372826617 $232 18.697334372826617 $157 $275 forward 7 unknown #
vertex $-1 $230 $276 #
straight-curve $-1 -78.620563371684923 -44.563249592261407 0 0 0 -1 I I #
edge $-1 $228 -44.563249592261407 $232 44.563249592261407 $226 $277 forward 7 unknown #
straight-curve $-1 0 -44.563249592261407 -18.697334372826617 -1 0 0 I I #
vertex $-1 $150 $278 #
straight-curve $-1 0 44.563249592261407 -18.697334372826617 1 0 0 I I #
point $-1 78.620563371684923 44.563249592261407 -18.697334372826617 #
point $-1 78.620563371684923 -44.563249592261407 -18.697334372826617 #
straight-curve $-1 -78.620563371684923 0 18.697334372826617 0 -1 0 I I #
point $-1 -78.620563371684923 44.563249592261407 18.697334372826617 #
point $-1 -78.620563371684923 -44.563249592261407 18.697334372826617 #
straight-curve $-1 78.620563371684923 -44.563249592261407 0 0 0 -1 I I #
straight-curve $-1 78.620563371684923 44.563249592261407 0 0 0 -1 I I #
plane-surface $-1 5.0885713900129979 0 0 -1 0 0 0 0 1 forward_v I I I I #
coedge $-1 $172 $170 $174 $246 reversed $98 $-1 #
edge $-1 $185 -18.697334372826617 $248 18.697334372826617 $184 $279 forward 7 unknown #
vertex $-1 $246 $280 #
straight-curve $-1 -5.0885713900129979 -12.14289927185315 0 0 0 -1 I I #
edge $-1 $244 -12.14289927185315 $248 12.14289927185315 $242 $281 forward 7 unknown #
straight-curve $-1 0 -12.14289927185315 -18.697334372826617 -1 0 0 I I #
vertex $-1 $177 $282 #
straight-curve $-1 0 12.14289927185315 -18.697334372826617 1 0 0 I I #
point $-1 5.0885713900129979 12.14289927185315 -18.697334372826617 #
point $-1 5.0885713900129979 -12.14289927185315 -18.697334372826617 #
straight-curve $-1 -5.0885713900129979 0 18.697334372826617 0 -1 0 I I #
point $-1 -5.0885713900129979 12.14289927185315 18.697334372826617 #
point $-1 -5.0885713900129979 -12.14289927185315 18.697334372826617 #
straight-curve $-1 5.0885713900129979 -12.14289927185315 0 0 0 -1 I I #
straight-curve $-1 5.0885713900129979 12.14289927185315 0 0 0 -1 I I #
plane-surface $-1 23.400936689587262 0 0 -1 0 0 0 0 1 forward_v I I I I #
coedge $-1 $199 $197 $201 $262 reversed $117 $-1 #
edge $-1 $212 -157.24112674336985 $264 157.24112674336985 $211 $283 forward 7 unknown #
vertex $-1 $262 $284 #
straight-curve $-1 -23.400936689587262 -314.48225348673969 0 0 0 -1 I I #
edge $-1 $260 -314.48225348673969 $264 314.48225348673969 $258 $285 forward 7 unknown #
straight-curve $-1 0 -314.48225348673969 -157.24112674336985 -1 0 0 I I #
vertex $-1 $204 $286 #
straight-curve $-1 0 314.48225348673969 -157.24112674336985 1 0 0 I I #
point $-1 23.400936689587262 314.48225348673969 -157.24112674336985 #
point $-1 23.400936689587262 -314.48225348673969 -157.24112674336985 #
straight-curve $-1 -23.400936689587262 0 157.24112674336985 0 -1 0 I I #
point $-1 -23.400936689587262 314.48225348673969 157.24112674336985 #
point $-1 -23.400936689587262 -314.48225348673969 157.24112674336985 #
straight-curve $-1 23.400936689587262 -314.48225348673969 0 0 0 -1 I I #
straight-curve $-1 23.400936689587262 314.48225348673969 0 0 0 -1 I I #
edge $-1 $287 1 $287 0 $221 $-1 forward 7 unknown #
point $-1 0.5 0 -0.25 #
straight-curve $-1 -78.620563371684923 44.563249592261407 0 0 0 -1 I I #
point $-1 -78.620563371684923 -44.563249592261407 -18.697334372826617 #
straight-curve $-1 -78.620563371684923 0 -18.697334372826617 0 1 0 I I #
point $-1 -78.620563371684923 44.563249592261407 -18.697334372826617 #
straight-curve $-1 -5.0885713900129979 12.14289927185315 0 0 0 -1 I I #
point $-1 -5.0885713900129979 -12.14289927185315 -18.697334372826617 #
straight-curve $-1 -5.0885713900129979 0 -18.697334372826617 0 1 0 I I #
point $-1 -5.0885713900129979 12.14289927185315 -18.697334372826617 #
straight-curve $-1 -23.400936689587262 314.48225348673969 0 0 0 -1 I I #
point $-1 -23.400936689587262 -314.48225348673969 -157.24112674336985 #
straight-curve $-1 -23.400936689587262 0 -157.24112674336985 0 1 0 I I #
point $-1 -23.400936689587262 314.48225348673969 -157.24112674336985 #
vertex $-1 $273 $288 #
point $-1 0 0 0.25 #
End-of-ACIS-data 