500 0 9 0           
7 Unknown 11 ACIS 5.0 NT 24 Fri Mar 26 19:32:26 1999 
-1 9.9999999999999995e-007 1e-010 
body $-1 $9 $-1 $10 #
body $-1 $11 $-1 $12 #
body $-1 $13 $-1 $14 #
body $-1 $15 $-1 $16 #
body $-1 $17 $-1 $18 #
body $-1 $19 $-1 $20 #
body $-1 $21 $-1 $22 #
body $-1 $23 $-1 $24 #
body $-1 $25 $-1 $26 #
lump $-1 $-1 $27 $0 #
transform $-1 1 0 0 0 1 0 0 0 1 42.254707480086672 23.133507749466563 8.4299950951416207 1 rotate no_reflect no_shear #
lump $-1 $-1 $28 $1 #
transform $-1 1 0 0 0 1 0 0 0 1 42.254707480086672 23.133507749466563 8.4299950951416207 1 rotate no_reflect no_shear #
lump $-1 $-1 $29 $2 #
transform $-1 1 0 0 0 1 0 0 0 1 42.254707480086672 23.133507749466563 8.4299950951416207 1 rotate no_reflect no_shear #
lump $-1 $-1 $30 $3 #
transform $-1 1 0 0 0 1 0 0 0 1 42.254707480086672 23.133507749466563 8.4299950951416207 1 rotate no_reflect no_shear #
lump $-1 $-1 $31 $4 #
transform $-1 1 0 0 0 1 0 0 0 1 42.254707480086672 23.133507749466563 8.4299950951416207 1 rotate no_reflect no_shear #
lump $-1 $-1 $32 $5 #
transform $-1 1 0 0 0 1 0 0 0 1 42.254707480086672 23.133507749466563 8.4299950951416207 1 rotate no_reflect no_shear #
lump $-1 $-1 $33 $6 #
transform $-1 1 0 0 0 1 0 0 0 1 42.254707480086672 23.133507749466563 8.4299950951416207 1 rotate no_reflect no_shear #
lump $-1 $-1 $34 $7 #
transform $-1 1 0 0 0 1 0 0 0 1 42.254707480086672 23.133507749466563 8.4299950951416207 1 rotate no_reflect no_shear #
lump $-1 $-1 $35 $8 #
transform $-1 1 0 0 0 1 0 0 0 1 42.254707480086672 23.133507749466563 8.4299950951416207 1 rotate no_reflect no_shear #
shell $-1 $-1 $-1 $36 $-1 $9 #
shell $-1 $-1 $-1 $37 $-1 $11 #
shell $-1 $-1 $-1 $38 $-1 $13 #
shell $-1 $-1 $-1 $39 $-1 $15 #
shell $-1 $-1 $-1 $40 $-1 $17 #
shell $-1 $-1 $-1 $41 $-1 $19 #
shell $-1 $-1 $-1 $42 $-1 $21 #
shell $-1 $-1 $-1 $43 $-1 $23 #
shell $-1 $-1 $-1 $44 $-1 $25 #
face $-1 $45 $46 $27 $-1 $47 forward single #
face $-1 $48 $49 $28 $-1 $50 reversed single #
face $-1 $51 $52 $29 $-1 $53 reversed single #
face $-1 $54 $55 $30 $-1 $56 forward single #
face $-1 $57 $58 $31 $-1 $59 forward single #
face $-1 $60 $61 $32 $-1 $62 forward single #
face $-1 $63 $64 $33 $-1 $65 reversed single #
face $-1 $66 $67 $34 $-1 $68 forward single #
face $-1 $69 $70 $35 $-1 $71 forward single #
face $-1 $72 $73 $27 $-1 $74 reversed single #
loop $-1 $-1 $75 $36 #
plane-surface $-1 0 0 8.4299950951416207 0 0 1 1 0 0 forward_v I I I I #
face $-1 $76 $77 $28 $-1 $78 reversed single #
loop $-1 $-1 $79 $37 #
plane-surface $-1 -38.879277269250764 -19.086948023140913 0 1 0 0 0 0 -1 forward_v I I I I #
face $-1 $80 $81 $29 $-1 $82 reversed single #
loop $-1 $-1 $83 $38 #
plane-surface $-1 -106.03477327001397 -1.440052029576977 57.28442724256054 0 1 0 -0.75470958851134928 0 0.65605901945558964 forward_v I I I I #
face $-1 $84 $85 $30 $-1 $86 forward single #
loop $-1 $87 $88 $39 #
cone-surface $-1 -39.013604187245278 0.58079330849655264 4.8075997023548505 0.75470958851134928 0 -0.65605901945558964 0.16401475486389741 0 0.18867739712783732 1 I I 0 1 0.25 forward I I I I #
face $-1 $89 $90 $31 $-1 $91 forward single #
loop $-1 $92 $93 $40 #
cone-surface $-1 -39.013604187245278 3.6120613156068444 4.8075997023548505 0.75470958851134928 0 -0.65605901945558964 0.16401475486389741 0 0.18867739712783732 1 I I 0 1 0.25 forward I I I I #
face $-1 $94 $95 $32 $-1 $96 forward single #
loop $-1 $97 $98 $41 #
cone-surface $-1 -39.013604187245278 6.6433293227171362 4.8075997023548505 0.75470958851134928 0 -0.65605901945558964 0.16401475486389741 0 0.18867739712783732 1 I I 0 1 0.25 forward I I I I #
face $-1 $99 $100 $33 $-1 $101 reversed single #
loop $-1 $-1 $102 $42 #
plane-surface $-1 58.887893297077092 -1.1302649805571541 123.23223513221974 0 -1 0 -0.79863551827123203 0 -0.60181501223851219 forward_v I I I I #
face $-1 $103 $104 $34 $-1 $105 forward single #
loop $-1 $106 $107 $43 #
cone-surface $-1 40.251834220182921 -9.1750137313809468 6.1538572447704274 -0.79863551827123203 0 -0.60181501223851219 0.3009075061192561 0 -0.39931775913561601 1 I I 0 1 0.5 forward I I I I #
face $-1 $108 $109 $35 $-1 $110 forward single #
loop $-1 $111 $112 $44 #
cone-surface $-1 40.251834220182921 -4.3481644808866697 6.1538572447704274 -0.79863551827123203 0 -0.60181501223851219 0.3009075061192561 0 -0.39931775913561601 1 I I 0 1 0.5 forward I I I I #
face $-1 $113 $114 $27 $-1 $115 reversed single #
loop $-1 $-1 $116 $45 #
plane-surface $-1 0 0 -8.4299950951416207 0 0 1 1 0 0 forward_v I I I I #
coedge $-1 $117 $118 $119 $120 forward $46 $-1 #
face $-1 $121 $122 $28 $-1 $123 reversed single #
loop $-1 $-1 $124 $48 #
plane-surface $-1 -37.379277269250764 -15.040388296815262 0 0 -1 0 0 0 -1 forward_v I I I I #
coedge $-1 $125 $126 $127 $128 forward $49 $-1 #
face $-1 $129 $130 $29 $-1 $131 reversed single #
loop $-1 $-1 $132 $51 #
plane-surface $-1 -42.25470748008668 3.6120613156068409 1.8412633290236755 -0.75470958851134928 0 0.65605901945558964 0.65605901945558964 0 0.75470958851134928 forward_v I I I I #
coedge $-1 $133 $134 $135 $136 reversed $52 $-1 #
face $-1 $-1 $137 $30 $-1 $138 forward single #
loop $-1 $139 $140 $54 #
cone-surface $-1 -38.541910694425688 0.58079330849655264 4.3975628151951067 0.75470958851134928 0 -0.65605901945558964 0.082007377431948705 0 0.09433869856391866 1 I I -0.70710678118654746 0.70710678118654746 0.125 forward I I I I #
loop $-1 $-1 $141 $39 #
coedge $-1 $88 $88 $142 $143 reversed $55 $-1 #
face $-1 $-1 $144 $31 $-1 $145 forward single #
loop $-1 $146 $147 $57 #
cone-surface $-1 -38.541910694425688 3.6120613156068444 4.3975628151951067 0.75470958851134928 0 -0.65605901945558964 0.082007377431948705 0 0.09433869856391866 1 I I -0.70710678118654746 0.70710678118654746 0.125 forward I I I I #
loop $-1 $-1 $148 $40 #
coedge $-1 $93 $93 $149 $150 reversed $58 $-1 #
face $-1 $-1 $151 $32 $-1 $152 forward single #
loop $-1 $153 $154 $60 #
cone-surface $-1 -38.541910694425688 6.6433293227171362 4.3975628151951067 0.75470958851134928 0 -0.65605901945558964 0.082007377431948705 0 0.09433869856391866 1 I I -0.70710678118654746 0.70710678118654746 0.125 forward I I I I #
loop $-1 $-1 $155 $41 #
coedge $-1 $98 $98 $156 $157 reversed $61 $-1 #
face $-1 $158 $159 $33 $-1 $160 reversed single #
loop $-1 $-1 $161 $63 #
plane-surface $-1 -8.6043271184395493 -6.7615891061338083 72.37320053369352 0.79863551827123203 0 0.60181501223851219 0.60181501223851219 0 -0.79863551827123203 forward_v I I I I #
coedge $-1 $162 $163 $164 $165 reversed $64 $-1 #
face $-1 $-1 $166 $34 $-1 $167 forward single #
loop $-1 $168 $169 $66 #
cone-surface $-1 39.38648934757628 -9.1750137313809468 5.5017731298219701 -0.79863551827123203 0 -0.60181501223851219 0.15045375305962805 0 -0.19965887956780801 1 I I -0.70710678118654879 0.70710678118654635 0.25 forward I I I I #
loop $-1 $-1 $170 $43 #
coedge $-1 $107 $107 $171 $172 reversed $67 $-1 #
face $-1 $-1 $173 $35 $-1 $174 forward single #
loop $-1 $175 $176 $69 #
cone-surface $-1 39.38648934757628 -4.3481644808866697 5.5017731298219701 -0.79863551827123203 0 -0.60181501223851219 0.15045375305962805 0 -0.19965887956780801 1 I I -0.70710678118654879 0.70710678118654635 0.25 forward I I I I #
loop $-1 $-1 $177 $44 #
coedge $-1 $112 $112 $178 $179 reversed $70 $-1 #
face $-1 $180 $181 $27 $-1 $182 reversed single #
loop $-1 $-1 $183 $72 #
plane-surface $-1 0 -23.133507749466563 0 0 1 0 0 0 1 forward_v I I I I #
coedge $-1 $184 $185 $186 $187 forward $73 $-1 #
coedge $-1 $188 $75 $189 $190 forward $46 $-1 #
coedge $-1 $75 $188 $191 $192 forward $46 $-1 #
coedge $-1 $193 $194 $75 $120 reversed $195 $-1 #
edge $-1 $196 -23.133507749466563 $197 23.133507749466563 $119 $198 forward 7 unknown #
face $-1 $199 $200 $28 $-1 $201 forward single #
loop $-1 $-1 $202 $76 #
plane-surface $-1 -35.879277269250764 -19.086948023140913 0 -1 0 0 0 0 1 forward_v I I I I #
coedge $-1 $203 $204 $205 $206 forward $77 $-1 #
coedge $-1 $207 $79 $208 $209 reversed $49 $-1 #
coedge $-1 $79 $207 $210 $211 reversed $49 $-1 #
coedge $-1 $204 $203 $79 $128 reversed $77 $-1 #
edge $-1 $212 -8.4299950951416207 $213 8.4299950951416207 $127 $214 forward 7 unknown #
face $-1 $215 $216 $29 $-1 $217 reversed single #
loop $-1 $-1 $218 $80 #
plane-surface $-1 -106.03477327001397 8.6641746607906587 57.28442724256054 0 -1 0 0.75470958851134928 0 -0.65605901945558964 forward_v I I I I #
coedge $-1 $219 $220 $221 $222 reversed $81 $-1 #
coedge $-1 $134 $83 $223 $224 reversed $52 $-1 #
coedge $-1 $83 $133 $219 $225 reversed $52 $-1 #
coedge $-1 $221 $226 $83 $136 forward $227 $-1 #
edge $-1 $228 10.762679154920313 $229 16.490176152091728 $135 $230 forward 7 unknown #
loop $-1 $-1 $142 $84 #
plane-surface $-1 -42.25470748008668 3.6120613156068409 1.8412633290236755 -0.75470958851134928 0 0.65605901945558964 0.65605901945558964 0 0.75470958851134928 forward_v I I I I #
loop $-1 $-1 $231 $54 #
coedge $-1 $140 $140 $141 $232 reversed $85 $-1 #
coedge $-1 $141 $141 $140 $232 forward $87 $-1 #
coedge $-1 $142 $142 $88 $143 forward $137 $-1 #
edge $-1 $233 0 $233 6.2831853071796004 $142 $234 forward 7 unknown #
loop $-1 $-1 $149 $89 #
plane-surface $-1 -42.25470748008668 3.6120613156068409 1.8412633290236755 -0.75470958851134928 0 0.65605901945558964 0.65605901945558964 0 0.75470958851134928 forward_v I I I I #
loop $-1 $-1 $235 $57 #
coedge $-1 $147 $147 $148 $236 reversed $90 $-1 #
coedge $-1 $148 $148 $147 $236 forward $92 $-1 #
coedge $-1 $149 $149 $93 $150 forward $144 $-1 #
edge $-1 $237 0 $237 6.2831853071796004 $149 $238 forward 7 unknown #
loop $-1 $-1 $156 $94 #
plane-surface $-1 -42.25470748008668 3.6120613156068409 1.8412633290236755 -0.75470958851134928 0 0.65605901945558964 0.65605901945558964 0 0.75470958851134928 forward_v I I I I #
loop $-1 $-1 $239 $60 #
coedge $-1 $154 $154 $155 $240 reversed $95 $-1 #
coedge $-1 $155 $155 $154 $240 forward $97 $-1 #
coedge $-1 $156 $156 $98 $157 forward $151 $-1 #
edge $-1 $241 0 $241 6.2831853071796004 $156 $242 forward 7 unknown #
face $-1 $243 $244 $33 $-1 $245 forward single #
loop $-1 $-1 $246 $99 #
plane-surface $-1 58.887893297077092 -12.392913231710462 123.23223513221974 0 1 0 0.79863551827123203 0 0.60181501223851219 forward_v I I I I #
coedge $-1 $247 $248 $249 $250 reversed $100 $-1 #
coedge $-1 $163 $102 $251 $252 reversed $64 $-1 #
coedge $-1 $102 $162 $247 $253 reversed $64 $-1 #
coedge $-1 $249 $254 $102 $165 forward $244 $-1 #
edge $-1 $255 -12.810760831548127 $256 -10.136386297818309 $164 $257 forward 7 unknown #
loop $-1 $-1 $171 $103 #
plane-surface $-1 -8.6043271184395493 -6.7615891061338083 72.37320053369352 0.79863551827123203 0 0.60181501223851219 0.60181501223851219 0 -0.79863551827123203 forward_v I I I I #
loop $-1 $-1 $258 $66 #
coedge $-1 $169 $169 $170 $259 reversed $104 $-1 #
coedge $-1 $170 $170 $169 $259 forward $106 $-1 #
coedge $-1 $171 $171 $107 $172 forward $166 $-1 #
edge $-1 $260 0 $260 6.2831853071796004 $171 $261 forward 7 unknown #
loop $-1 $-1 $178 $108 #
plane-surface $-1 -8.6043271184395493 -6.7615891061338083 72.37320053369352 0.79863551827123203 0 0.60181501223851219 0.60181501223851219 0 -0.79863551827123203 forward_v I I I I #
loop $-1 $-1 $262 $69 #
coedge $-1 $176 $176 $177 $263 reversed $109 $-1 #
coedge $-1 $177 $177 $176 $263 forward $111 $-1 #
coedge $-1 $178 $178 $112 $179 forward $173 $-1 #
edge $-1 $264 0 $264 6.2831853071796004 $178 $265 forward 7 unknown #
face $-1 $266 $267 $27 $-1 $268 reversed single #
loop $-1 $-1 $269 $113 #
plane-surface $-1 -42.254707480086672 0 0 1 0 0 0 0 -1 forward_v I I I I #
coedge $-1 $270 $191 $271 $272 forward $114 $-1 #
coedge $-1 $273 $116 $270 $274 forward $73 $-1 #
coedge $-1 $116 $273 $275 $276 forward $73 $-1 #
coedge $-1 $194 $193 $116 $187 reversed $195 $-1 #
edge $-1 $277 -23.133507749466563 $278 23.133507749466563 $186 $279 forward 7 unknown #
coedge $-1 $118 $117 $280 $281 forward $46 $-1 #
coedge $-1 $282 $283 $117 $190 reversed $267 $-1 #
edge $-1 $197 -42.254707480086672 $284 42.254707480086672 $189 $285 forward 7 unknown #
coedge $-1 $183 $286 $118 $192 reversed $114 $-1 #
edge $-1 $287 -42.254707480086672 $196 42.254707480086672 $191 $288 forward 7 unknown #
coedge $-1 $186 $119 $286 $289 forward $195 $-1 #
coedge $-1 $119 $186 $282 $290 reversed $195 $-1 #
loop $-1 $-1 $193 $266 #
vertex $-1 $120 $291 #
vertex $-1 $120 $292 #
straight-curve $-1 42.254707480086672 0 8.4299950951416207 0 1 0 I I #
face $-1 $293 $294 $28 $-1 $295 reversed single #
loop $-1 $-1 $296 $121 #
plane-surface $-1 0 0 8.4299950951416207 0 0 1 1 0 0 forward_v I I I I #
coedge $-1 $297 $298 $299 $300 reversed $122 $-1 #
coedge $-1 $127 $124 $301 $302 reversed $77 $-1 #
coedge $-1 $124 $127 $303 $304 reversed $77 $-1 #
coedge $-1 $298 $297 $124 $206 reversed $122 $-1 #
edge $-1 $305 -8.4299950951416207 $306 8.4299950951416207 $205 $307 forward 7 unknown #
coedge $-1 $126 $125 $308 $309 reversed $49 $-1 #
coedge $-1 $301 $310 $125 $209 forward $294 $-1 #
edge $-1 $311 -13.590033737896107 $213 -5.4969142852448059 $208 $312 forward 7 unknown #
coedge $-1 $313 $303 $126 $211 forward $200 $-1 #
edge $-1 $212 5.4969142852448059 $314 13.590033737896107 $210 $315 forward 7 unknown #
vertex $-1 $211 $316 #
vertex $-1 $209 $317 #
straight-curve $-1 -38.879277269250764 -15.040388296815262 0 0 0 -1 I I #
face $-1 $-1 $227 $29 $-1 $318 forward single #
loop $-1 $-1 $319 $129 #
plane-surface $-1 -42.254707480086672 0 0 1 0 0 0 0 -1 forward_v I I I I #
coedge $-1 $320 $321 $322 $323 reversed $130 $-1 #
coedge $-1 $324 $132 $134 $225 forward $81 $-1 #
coedge $-1 $132 $324 $320 $325 forward $81 $-1 #
coedge $-1 $322 $135 $132 $222 forward $227 $-1 #
edge $-1 $229 -3.2460826873803974 $326 6.8581440029872383 $221 $327 forward 7 unknown #
coedge $-1 $328 $329 $133 $224 forward $216 $-1 #
edge $-1 $330 -26.800950292256587 $228 -20.212218526138649 $223 $331 forward 7 unknown #
edge $-1 $229 -8.7301551039176495 $330 -1.086200982436365e-014 $134 $332 forward 7 unknown #
coedge $-1 $135 $322 $328 $333 forward $227 $-1 #
loop $-1 $-1 $322 $215 #
vertex $-1 $224 $334 #
vertex $-1 $136 $335 #
straight-curve $-1 -53.017386635006986 -1.440052029576977 8.4299950951416207 1 0 0 I I #
coedge $-1 $231 $231 $-1 $336 reversed $139 $-1 #
edge $-1 $337 0 $337 6.2831853071796004 $140 $338 forward 7 unknown #
vertex $-1 $143 $339 #
ellipse-curve $-1 -39.390958981500965 0.58079330849655264 5.1356292120826534 -0.75470958851134928 0 0.65605901945558964 0.16401475486389741 0 0.18867739712783732 1 I I #
coedge $-1 $235 $235 $-1 $340 reversed $146 $-1 #
edge $-1 $341 0 $341 6.2831853071796004 $147 $342 forward 7 unknown #
vertex $-1 $150 $343 #
ellipse-curve $-1 -39.390958981500965 3.6120613156068444 5.1356292120826534 -0.75470958851134928 0 0.65605901945558964 0.16401475486389741 0 0.18867739712783732 1 I I #
coedge $-1 $239 $239 $-1 $344 reversed $153 $-1 #
edge $-1 $345 0 $345 6.2831853071796004 $154 $346 forward 7 unknown #
vertex $-1 $157 $347 #
ellipse-curve $-1 -39.390958981500965 6.6433293227171362 5.1356292120826534 -0.75470958851134928 0 0.65605901945558964 0.16401475486389741 0 0.18867739712783732 1 I I #
face $-1 $-1 $348 $33 $-1 $349 reversed single #
loop $-1 $-1 $164 $158 #
plane-surface $-1 0 0 8.4299950951416207 0 0 1 1 0 0 forward_v I I I I #
coedge $-1 $350 $351 $352 $353 reversed $159 $-1 #
coedge $-1 $354 $161 $163 $253 forward $100 $-1 #
coedge $-1 $161 $354 $350 $355 forward $100 $-1 #
coedge $-1 $352 $164 $161 $250 forward $244 $-1 #
edge $-1 $256 -2.2505295725097501 $356 9.0121186786435583 $249 $357 forward 7 unknown #
coedge $-1 $358 $359 $162 $252 forward $348 $-1 #
edge $-1 $360 -56.735137447932992 $255 -53.18612247096825 $251 $361 forward 7 unknown #
edge $-1 $256 80.065566801945764 $360 84.509414960173331 $163 $362 forward 7 unknown #
coedge $-1 $164 $352 $358 $363 forward $244 $-1 #
vertex $-1 $252 $364 #
vertex $-1 $165 $365 #
straight-curve $-1 29.443946648538546 -1.1302649805571541 8.4299950951416207 -1 0 0 I I #
coedge $-1 $258 $258 $-1 $366 reversed $168 $-1 #
edge $-1 $367 0 $367 6.2831853071796004 $169 $368 forward 7 unknown #
vertex $-1 $172 $369 #
ellipse-curve $-1 40.917520213221756 -9.1750137313809468 6.6554876066592605 0.79863551827123203 0 0.60181501223851219 0.3009075061192561 0 -0.39931775913561601 1 I I #
coedge $-1 $262 $262 $-1 $370 reversed $175 $-1 #
edge $-1 $371 0 $371 6.2831853071796004 $176 $372 forward 7 unknown #
vertex $-1 $179 $373 #
ellipse-curve $-1 40.917520213221756 -4.3481644808866697 6.6554876066592605 0.79863551827123203 0 0.60181501223851219 0.3009075061192561 0 -0.39931775913561601 1 I I #
face $-1 $-1 $195 $27 $-1 $374 reversed single #
loop $-1 $-1 $282 $180 #
plane-surface $-1 0 23.133507749466563 0 0 -1 0 0 0 -1 forward_v I I I I #
coedge $-1 $375 $280 $283 $376 forward $181 $-1 #
coedge $-1 $286 $183 $184 $274 reversed $114 $-1 #
coedge $-1 $280 $375 $183 $272 reversed $181 $-1 #
edge $-1 $287 -8.4299950951416207 $377 8.4299950951416207 $271 $378 forward 7 unknown #
coedge $-1 $185 $184 $375 $379 forward $73 $-1 #
edge $-1 $278 -42.254707480086672 $377 42.254707480086672 $270 $380 forward 7 unknown #
coedge $-1 $283 $282 $185 $276 reversed $267 $-1 #
edge $-1 $381 -42.254707480086672 $277 42.254707480086672 $275 $382 forward 7 unknown #
vertex $-1 $187 $383 #
vertex $-1 $289 $384 #
straight-curve $-1 42.254707480086672 0 -8.4299950951416207 0 -1 0 I I #
coedge $-1 $269 $271 $188 $281 reversed $181 $-1 #
edge $-1 $284 -23.133507749466563 $287 23.133507749466563 $280 $385 forward 7 unknown #
coedge $-1 $275 $189 $194 $290 forward $267 $-1 #
coedge $-1 $189 $275 $269 $376 reversed $267 $-1 #
vertex $-1 $190 $386 #
straight-curve $-1 0 23.133507749466563 8.4299950951416207 -1 0 0 I I #
coedge $-1 $191 $270 $193 $289 reversed $114 $-1 #
vertex $-1 $281 $387 #
straight-curve $-1 0 -23.133507749466563 8.4299950951416207 1 0 0 I I #
edge $-1 $196 -8.4299950951416207 $278 8.4299950951416207 $193 $388 forward 7 unknown #
edge $-1 $197 -8.4299950951416207 $277 8.4299950951416207 $194 $389 forward 7 unknown #
point $-1 42.254707480086672 -23.133507749466563 8.4299950951416207 #
point $-1 42.254707480086672 23.133507749466563 8.4299950951416207 #
face $-1 $-1 $390 $28 $-1 $391 reversed single #
loop $-1 $-1 $392 $199 #
plane-surface $-1 0 0 -8.4299950951416207 0 0 1 1 0 0 forward_v I I I I #
coedge $-1 $303 $313 $298 $393 forward $200 $-1 #
coedge $-1 $205 $202 $392 $394 reversed $122 $-1 #
coedge $-1 $202 $205 $296 $393 reversed $122 $-1 #
coedge $-1 $395 $396 $202 $300 forward $390 $-1 #
edge $-1 $397 -8.4299950951416207 $398 8.4299950951416207 $299 $399 forward 7 unknown #
coedge $-1 $392 $208 $203 $302 forward $294 $-1 #
edge $-1 $213 -20.189638634625382 $306 -17.189638634625382 $301 $400 forward 7 unknown #
coedge $-1 $210 $296 $204 $304 forward $200 $-1 #
edge $-1 $305 17.189638634625382 $212 20.189638634625382 $303 $401 forward 7 unknown #
vertex $-1 $304 $402 #
vertex $-1 $302 $403 #
straight-curve $-1 -35.879277269250764 -15.040388296815262 0 0 0 -1 I I #
coedge $-1 $396 $395 $207 $309 forward $390 $-1 #
edge $-1 $314 -8.4299950951416207 $311 8.4299950951416207 $308 $404 forward 7 unknown #
coedge $-1 $208 $392 $396 $405 forward $294 $-1 #
vertex $-1 $209 $406 #
straight-curve $-1 -38.879277269250764 -9.5434740115704564 -8.4299950951416207 0 1 0 I I #
coedge $-1 $296 $210 $395 $407 forward $200 $-1 #
vertex $-1 $407 $408 #
straight-curve $-1 -38.879277269250764 -9.5434740115704564 8.4299950951416207 0 -1 0 I I #
point $-1 -38.879277269250764 -15.040388296815262 8.4299950951416207 #
point $-1 -38.879277269250764 -15.040388296815262 -8.4299950951416207 #
plane-surface $-1 0 0 8.4299950951416207 0 0 1 1 0 0 forward_v I I I I #
coedge $-1 $329 $328 $321 $409 forward $216 $-1 #
coedge $-1 $321 $218 $220 $325 reversed $130 $-1 #
coedge $-1 $218 $320 $319 $409 reversed $130 $-1 #
coedge $-1 $226 $221 $218 $323 forward $227 $-1 #
edge $-1 $326 -16.490176152091728 $410 -10.762679154920313 $322 $411 forward 7 unknown #
coedge $-1 $220 $219 $329 $412 reversed $81 $-1 #
edge $-1 $413 1.086200982436365e-014 $326 8.7301551039176495 $320 $414 forward 7 unknown #
vertex $-1 $222 $415 #
straight-curve $-1 -36.527210482915251 1.8060306578034204 8.4299950951416207 0 1 0 I I #
coedge $-1 $319 $223 $226 $333 reversed $216 $-1 #
coedge $-1 $223 $319 $324 $412 forward $216 $-1 #
vertex $-1 $224 $416 #
straight-curve $-1 -42.254707480086672 -1.440052029576977 28.64221362128027 0 0 1 I I #
straight-curve $-1 -42.25470748008668 -1.440052029576977 1.8412633290236755 -0.65605901945558964 0 -0.75470958851134928 I I #
edge $-1 $410 -8.6641746607906587 $228 1.440052029576977 $328 $417 forward 7 unknown #
point $-1 -42.254707480086672 -1.440052029576977 8.4299950951416207 #
point $-1 -36.527210482915258 -1.440052029576977 8.4299950951416207 #
edge $-1 $418 1 $418 0 $231 $-1 forward 7 unknown #
vertex $-1 $232 $419 #
ellipse-curve $-1 -38.636249392989605 0.58079330849655264 4.4795701926270555 -0.75470958851134928 0 0.65605901945558964 0.16401475486389741 0 0.18867739712783732 1 I I #
point $-1 -39.226944226637059 0.58079330849655264 5.3243066092104829 #
edge $-1 $420 1 $420 0 $235 $-1 forward 7 unknown #
vertex $-1 $236 $421 #
ellipse-curve $-1 -38.636249392989605 3.6120613156068444 4.4795701926270555 -0.75470958851134928 0 0.65605901945558964 0.16401475486389741 0 0.18867739712783732 1 I I #
point $-1 -39.226944226637059 3.6120613156068444 5.3243066092104829 #
edge $-1 $422 1 $422 0 $239 $-1 forward 7 unknown #
vertex $-1 $240 $423 #
ellipse-curve $-1 -38.636249392989605 6.6433293227171362 4.4795701926270555 -0.75470958851134928 0 0.65605901945558964 0.16401475486389741 0 0.18867739712783732 1 I I #
point $-1 -39.226944226637059 6.6433293227171362 5.3243066092104829 #
loop $-1 $-1 $251 $243 #
plane-surface $-1 42.254707480086672 0 0 -1 0 0 0 0 1 forward_v I I I I #
coedge $-1 $351 $246 $248 $355 reversed $159 $-1 #
coedge $-1 $246 $350 $424 $425 reversed $159 $-1 #
coedge $-1 $254 $249 $246 $353 forward $244 $-1 #
edge $-1 $356 10.136386297818309 $426 12.810760831548127 $352 $427 forward 7 unknown #
coedge $-1 $248 $247 $359 $428 reversed $100 $-1 #
edge $-1 $429 -84.509414960173331 $356 -80.065566801945764 $350 $430 forward 7 unknown #
vertex $-1 $250 $431 #
straight-curve $-1 39.580332946356847 -3.3807945530669041 8.4299950951416207 0 -1 0 I I #
coedge $-1 $424 $251 $254 $363 reversed $348 $-1 #
coedge $-1 $251 $424 $354 $428 forward $348 $-1 #
vertex $-1 $252 $432 #
straight-curve $-1 42.254707480086672 -1.1302649805571541 61.616117566109871 0 0 1 I I #
straight-curve $-1 -8.6043271184395493 -1.1302649805571541 72.37320053369352 0.60181501223851219 0 -0.79863551827123203 I I #
edge $-1 $426 -12.392913231710462 $255 -1.1302649805571541 $358 $433 forward 7 unknown #
point $-1 42.254707480086672 -1.1302649805571541 8.4299950951416207 #
point $-1 39.580332946356855 -1.1302649805571541 8.4299950951416136 #
edge $-1 $434 1 $434 0 $258 $-1 forward 7 unknown #
vertex $-1 $259 $435 #
ellipse-curve $-1 39.586148227144086 -9.1750137313809468 5.6522268828815978 0.79863551827123203 0 0.60181501223851219 0.3009075061192561 0 -0.39931775913561601 1 I I #
point $-1 41.218427719341008 -9.1750137313809468 6.2561698475236414 #
edge $-1 $436 1 $436 0 $262 $-1 forward 7 unknown #
vertex $-1 $263 $437 #
ellipse-curve $-1 39.586148227144086 -4.3481644808866697 5.6522268828815978 0.79863551827123203 0 0.60181501223851219 0.3009075061192561 0 -0.39931775913561601 1 I I #
point $-1 41.218427719341008 -4.3481644808866697 6.2561698475236414 #
plane-surface $-1 42.254707480086672 0 0 -1 0 0 0 0 1 forward_v I I I I #
coedge $-1 $271 $269 $273 $379 reversed $181 $-1 #
edge $-1 $284 -8.4299950951416207 $381 8.4299950951416207 $283 $438 forward 7 unknown #
vertex $-1 $379 $439 #
straight-curve $-1 -42.254707480086672 -23.133507749466563 0 0 0 -1 I I #
edge $-1 $377 -23.133507749466563 $381 23.133507749466563 $375 $440 forward 7 unknown #
straight-curve $-1 0 -23.133507749466563 -8.4299950951416207 -1 0 0 I I #
vertex $-1 $276 $441 #
straight-curve $-1 0 23.133507749466563 -8.4299950951416207 1 0 0 I I #
point $-1 42.254707480086672 23.133507749466563 -8.4299950951416207 #
point $-1 42.254707480086672 -23.133507749466563 -8.4299950951416207 #
straight-curve $-1 -42.254707480086672 0 8.4299950951416207 0 -1 0 I I #
point $-1 -42.254707480086672 23.133507749466563 8.4299950951416207 #
point $-1 -42.254707480086672 -23.133507749466563 8.4299950951416207 #
straight-curve $-1 42.254707480086672 -23.133507749466563 0 0 0 -1 I I #
straight-curve $-1 42.254707480086672 23.133507749466563 0 0 0 -1 I I #
loop $-1 $-1 $299 $293 #
plane-surface $-1 0 -23.133507749466563 0 0 1 0 0 0 1 forward_v I I I I #
coedge $-1 $310 $301 $297 $394 forward $294 $-1 #
edge $-1 $398 -13.590033737896107 $305 -5.4969142852448059 $296 $442 forward 7 unknown #
edge $-1 $306 5.4969142852448059 $397 13.590033737896107 $392 $443 forward 7 unknown #
coedge $-1 $308 $299 $313 $407 reversed $390 $-1 #
coedge $-1 $299 $308 $310 $405 reversed $390 $-1 #
vertex $-1 $405 $444 #
vertex $-1 $300 $445 #
straight-curve $-1 -35.879277269250764 -23.133507749466563 0 0 0 1 I I #
straight-curve $-1 -18.689638634625382 -15.040388296815262 -8.4299950951416207 1 0 0 I I #
straight-curve $-1 -18.689638634625382 -15.040388296815262 8.4299950951416207 -1 0 0 I I #
point $-1 -35.879277269250764 -15.040388296815262 8.4299950951416207 #
point $-1 -35.879277269250764 -15.040388296815262 -8.4299950951416207 #
straight-curve $-1 -38.879277269250764 -23.133507749466563 0 0 0 -1 I I #
edge $-1 $397 35.879277269250764 $311 38.879277269250764 $396 $446 forward 7 unknown #
point $-1 -38.879277269250764 -23.133507749466563 -8.4299950951416207 #
edge $-1 $314 -38.879277269250764 $398 -35.879277269250764 $395 $447 forward 7 unknown #
point $-1 -38.879277269250764 -23.133507749466563 8.4299950951416207 #
edge $-1 $410 20.212218526138649 $413 26.800950292256587 $319 $448 forward 7 unknown #
vertex $-1 $333 $449 #
straight-curve $-1 -53.017386635006986 8.6641746607906587 8.4299950951416207 -1 0 0 I I #
edge $-1 $413 -6.8581440029872383 $330 3.2460826873803974 $329 $450 forward 7 unknown #
vertex $-1 $412 $451 #
straight-curve $-1 -42.25470748008668 8.6641746607906587 1.8412633290236755 0.65605901945558964 0 0.75470958851134928 I I #
point $-1 -36.527210482915258 8.6641746607906587 8.4299950951416207 #
point $-1 -42.254707480086672 -1.440052029576977 1.8412633290236837 #
straight-curve $-1 -42.254707480086672 0 8.4299950951416207 0 -1 0 I I #
vertex $-1 $336 $452 #
point $-1 -38.472234638125713 0.58079330849655264 4.668247589754893 #
vertex $-1 $340 $453 #
point $-1 -38.472234638125713 3.6120613156068444 4.668247589754893 #
vertex $-1 $344 $454 #
point $-1 -38.472234638125713 6.6433293227171362 4.668247589754893 #
coedge $-1 $359 $358 $351 $425 forward $348 $-1 #
edge $-1 $426 53.18612247096825 $429 56.735137447932992 $424 $455 forward 7 unknown #
vertex $-1 $363 $456 #
straight-curve $-1 29.443946648538546 -12.392913231710462 8.4299950951416207 1 0 0 I I #
edge $-1 $429 -9.0121186786435583 $360 2.2505295725097501 $359 $457 forward 7 unknown #
vertex $-1 $428 $458 #
straight-curve $-1 -8.6043271184395493 -12.392913231710462 72.37320053369352 -0.60181501223851219 0 0.79863551827123203 I I #
point $-1 39.580332946356855 -12.392913231710462 8.4299950951416136 #
point $-1 42.254707480086672 -1.1302649805571541 4.880980118176879 #
straight-curve $-1 42.254707480086672 0 8.4299950951416207 0 1 0 I I #
vertex $-1 $366 $459 #
point $-1 39.887055733263345 -9.1750137313809468 5.2529091237459813 #
vertex $-1 $370 $460 #
point $-1 39.887055733263345 -4.3481644808866697 5.2529091237459813 #
straight-curve $-1 -42.254707480086672 23.133507749466563 0 0 0 -1 I I #
point $-1 -42.254707480086672 -23.133507749466563 -8.4299950951416207 #
straight-curve $-1 -42.254707480086672 0 -8.4299950951416207 0 1 0 I I #
point $-1 -42.254707480086672 23.133507749466563 -8.4299950951416207 #
straight-curve $-1 -35.879277269250764 -9.5434740115704564 8.4299950951416207 0 1 0 I I #
straight-curve $-1 -35.879277269250764 -9.5434740115704564 -8.4299950951416207 0 -1 0 I I #
point $-1 -35.879277269250764 -23.133507749466563 -8.4299950951416207 #
point $-1 -35.879277269250764 -23.133507749466563 8.4299950951416207 #
straight-curve $-1 0 -23.133507749466563 -8.4299950951416207 -1 0 0 I I #
straight-curve $-1 0 -23.133507749466563 8.4299950951416207 1 0 0 I I #
straight-curve $-1 -42.254707480086672 8.6641746607906587 28.64221362128027 0 0 -1 I I #
point $-1 -42.254707480086672 8.6641746607906587 8.4299950951416207 #
straight-curve $-1 -42.254707480086672 1.8060306578034204 1.8412633290236906 0 -1 0 I I #
point $-1 -42.254707480086672 8.6641746607906587 1.8412633290236837 #
point $-1 -38.447571995861772 0.58079330849655264 4.315555437763158 #
point $-1 -38.447571995861772 3.6120613156068444 4.315555437763158 #
point $-1 -38.447571995861772 6.6433293227171362 4.315555437763158 #
straight-curve $-1 42.254707480086672 -12.392913231710462 61.616117566109871 0 0 -1 I I #
point $-1 42.254707480086672 -12.392913231710462 8.4299950951416207 #
straight-curve $-1 42.254707480086672 -3.3807945530669041 4.880980118176879 0 1 0 I I #
point $-1 42.254707480086672 -12.392913231710462 4.880980118176879 #
point $-1 39.186830468008473 -9.1750137313809468 5.3513193767623424 #
point $-1 39.186830468008473 -4.3481644808866697 5.3513193767623424 #
End-of-ACIS-data 