500 0 7 0           
7 Unknown 11 ACIS 5.0 NT 24 Fri Mar 26 19:15:51 1999 
-1 9.9999999999999995e-007 1e-010 
body $-1 $7 $-1 $8 #
body $-1 $9 $-1 $10 #
body $-1 $11 $-1 $12 #
body $-1 $13 $-1 $14 #
body $-1 $15 $-1 $16 #
body $-1 $17 $-1 $18 #
body $-1 $19 $-1 $20 #
lump $-1 $-1 $21 $0 #
transform $-1 1 0 0 0 1 0 0 0 1 64.311044648579369 31.319225558496061 11.333493610562799 1 rotate no_reflect no_shear #
lump $-1 $-1 $22 $1 #
transform $-1 1 0 0 0 1 0 0 0 1 64.311044648579369 31.319225558496061 11.333493610562799 1 rotate no_reflect no_shear #
lump $-1 $-1 $23 $2 #
transform $-1 1 0 0 0 1 0 0 0 1 64.311044648579369 31.319225558496061 11.333493610562799 1 rotate no_reflect no_shear #
lump $-1 $-1 $24 $3 #
transform $-1 1 0 0 0 1 0 0 0 1 64.311044648579369 31.319225558496061 11.333493610562799 1 rotate no_reflect no_shear #
lump $-1 $-1 $25 $4 #
transform $-1 1 0 0 0 1 0 0 0 1 64.311044648579369 31.319225558496061 11.333493610562799 1 rotate no_reflect no_shear #
lump $-1 $-1 $26 $5 #
transform $-1 1 0 0 0 1 0 0 0 1 64.311044648579369 31.319225558496061 11.333493610562799 1 rotate no_reflect no_shear #
lump $-1 $-1 $27 $6 #
transform $-1 1 0 0 0 1 0 0 0 1 64.311044648579369 31.319225558496061 11.333493610562799 1 rotate no_reflect no_shear #
shell $-1 $-1 $-1 $28 $-1 $7 #
shell $-1 $-1 $-1 $29 $-1 $9 #
shell $-1 $-1 $-1 $30 $-1 $11 #
shell $-1 $-1 $-1 $31 $-1 $13 #
shell $-1 $-1 $-1 $32 $-1 $15 #
shell $-1 $-1 $-1 $33 $-1 $17 #
shell $-1 $-1 $-1 $34 $-1 $19 #
face $-1 $35 $36 $21 $-1 $37 reversed single #
face $-1 $38 $39 $22 $-1 $40 forward single #
face $-1 $41 $42 $23 $-1 $43 reversed single #
face $-1 $44 $45 $24 $-1 $46 reversed single #
face $-1 $47 $48 $25 $-1 $49 forward single #
face $-1 $50 $51 $26 $-1 $52 reversed single #
face $-1 $53 $54 $27 $-1 $55 forward single #
face $-1 $56 $57 $21 $-1 $58 forward single #
loop $-1 $-1 $59 $28 #
plane-surface $-1 0 -31.319225558496061 0 0 1 0 0 0 1 forward_v I I I I #
face $-1 $60 $61 $22 $-1 $62 forward single #
loop $-1 $-1 $63 $29 #
plane-surface $-1 0 -31.319225558496061 0 0 1 0 0 0 1 forward_v I I I I #
face $-1 $64 $65 $23 $-1 $66 reversed single #
loop $-1 $-1 $67 $30 #
plane-surface $-1 0 26.265525743944163 5.1291434507204787 0 0 1 1 0 0 forward_v I I I I #
face $-1 $68 $69 $24 $-1 $70 reversed single #
loop $-1 $-1 $71 $31 #
plane-surface $-1 42.143122156122047 11.373340410510981 187.9705857627782 0 -1 0 -0.61566148304635926 0 -0.78801074757464917 forward_v I I I I #
face $-1 $72 $73 $25 $-1 $74 forward single #
loop $-1 $75 $76 $32 #
cone-surface $-1 60.73994621295396 7.210024930438852 8.0092513654515471 -0.61566148304635926 0 -0.78801074757464917 0.78801074757464917 0 -0.61566148304635926 1 I I 0 1 1 forward I I I I #
face $-1 $77 $78 $26 $-1 $79 reversed single #
loop $-1 $-1 $80 $33 #
plane-surface $-1 -143.49871089778938 3.0467094503667234 108.78291951356823 0 1 0 -0.61566148304635926 0 0.78801074757464917 forward_v I I I I #
face $-1 $81 $82 $27 $-1 $83 forward single #
loop $-1 $84 $85 $34 #
cone-surface $-1 -60.739946212953953 7.210024930438852 8.0092513654515578 0.61566148304635926 0 -0.78801074757464917 0.78801074757464917 0 0.61566148304635926 1 I I 0 1 1 forward I I I I #
face $-1 $86 $87 $21 $-1 $88 reversed single #
loop $-1 $-1 $89 $35 #
plane-surface $-1 0 0 11.333493610562799 0 0 1 1 0 0 forward_v I I I I #
coedge $-1 $90 $91 $92 $93 reversed $36 $-1 #
face $-1 $94 $95 $22 $-1 $96 reversed single #
loop $-1 $-1 $97 $38 #
plane-surface $-1 0 0 11.333493610562799 0 0 1 1 0 0 forward_v I I I I #
coedge $-1 $98 $99 $100 $101 forward $39 $-1 #
face $-1 $102 $103 $23 $-1 $104 reversed single #
loop $-1 $-1 $105 $41 #
plane-surface $-1 0 21.211825929392269 8.231318530641639 0 1 0 0 0 1 forward_v I I I I #
coedge $-1 $106 $107 $108 $109 reversed $42 $-1 #
face $-1 $110 $111 $24 $-1 $112 reversed single #
loop $-1 $-1 $113 $44 #
plane-surface $-1 -37.04454409308795 7.210024930438852 86.614997021110867 0.61566148304635926 0 0.78801074757464917 0.78801074757464917 0 -0.61566148304635926 forward_v I I I I #
coedge $-1 $114 $115 $116 $117 reversed $45 $-1 #
face $-1 $-1 $118 $25 $-1 $119 forward single #
loop $-1 $120 $121 $47 #
cone-surface $-1 59.360847204984978 7.210024930438852 6.2440851658839431 -0.61566148304635926 0 -0.78801074757464917 0.39400537378732459 0 -0.30783074152317963 1 I I -0.70710678118654746 0.70710678118654746 0.5 forward I I I I #
loop $-1 $-1 $122 $32 #
coedge $-1 $76 $76 $123 $124 reversed $48 $-1 #
face $-1 $125 $126 $26 $-1 $127 reversed single #
loop $-1 $-1 $128 $50 #
plane-surface $-1 -64.311044648579383 7.210024930438852 7.4273307719008983 -0.61566148304635926 0 0.78801074757464917 0.78801074757464917 0 0.61566148304635926 forward_v I I I I #
coedge $-1 $129 $130 $131 $132 reversed $51 $-1 #
face $-1 $-1 $133 $27 $-1 $134 forward single #
loop $-1 $135 $136 $53 #
cone-surface $-1 -59.360847204984971 7.210024930438852 6.2440851658839538 0.61566148304635926 0 -0.78801074757464917 0.39400537378732459 0 0.30783074152317963 1 I I -0.70710678118654746 0.70710678118654746 0.5 forward I I I I #
loop $-1 $-1 $137 $34 #
coedge $-1 $85 $85 $138 $139 reversed $54 $-1 #
face $-1 $140 $141 $21 $-1 $142 reversed single #
loop $-1 $-1 $143 $56 #
plane-surface $-1 0 0 -11.333493610562799 0 0 1 1 0 0 forward_v I I I I #
coedge $-1 $144 $145 $146 $147 forward $57 $-1 #
coedge $-1 $148 $59 $149 $150 reversed $36 $-1 #
coedge $-1 $59 $148 $151 $152 forward $36 $-1 #
coedge $-1 $153 $143 $59 $93 forward $87 $-1 #
edge $-1 $154 -64.311044648579369 $155 64.311044648579369 $59 $156 forward 7 unknown #
face $-1 $157 $158 $22 $-1 $159 reversed single #
loop $-1 $-1 $160 $60 #
plane-surface $-1 -64.311044648579369 0 0 1 0 0 0 0 -1 forward_v I I I I #
coedge $-1 $161 $162 $99 $163 forward $61 $-1 #
coedge $-1 $164 $63 $165 $166 reversed $39 $-1 #
coedge $-1 $63 $164 $97 $163 reversed $39 $-1 #
coedge $-1 $167 $168 $63 $101 reversed $169 $-1 #
edge $-1 $170 -11.333493610562799 $171 11.333493610562799 $100 $172 forward 7 unknown #
face $-1 $173 $174 $23 $-1 $175 reversed single #
loop $-1 $-1 $176 $64 #
plane-surface $-1 0 31.319225558496061 0 0 -1 0 0 0 -1 forward_v I I I I #
coedge $-1 $177 $178 $179 $180 reversed $65 $-1 #
coedge $-1 $181 $67 $177 $182 forward $42 $-1 #
coedge $-1 $67 $181 $176 $183 reversed $42 $-1 #
coedge $-1 $184 $185 $67 $109 forward $186 $-1 #
edge $-1 $187 8.0790630574201874 $188 18.186462686523974 $108 $189 forward 7 unknown #
face $-1 $190 $191 $24 $-1 $192 reversed single #
loop $-1 $-1 $193 $68 #
plane-surface $-1 42.143122156122047 3.0467094503667234 187.9705857627782 0 1 0 0.61566148304635926 0 0.78801074757464917 forward_v I I I I #
coedge $-1 $194 $195 $196 $197 reversed $69 $-1 #
coedge $-1 $115 $71 $198 $199 reversed $45 $-1 #
coedge $-1 $71 $114 $194 $200 reversed $45 $-1 #
coedge $-1 $196 $201 $71 $117 forward $202 $-1 #
edge $-1 $203 -43.239483570518345 $204 -38.239823232159139 $116 $205 forward 7 unknown #
loop $-1 $-1 $123 $72 #
plane-surface $-1 -37.04454409308795 7.210024930438852 86.614997021110867 0.61566148304635926 0 0.78801074757464917 0.78801074757464917 0 -0.61566148304635926 forward_v I I I I #
loop $-1 $-1 $206 $47 #
coedge $-1 $121 $121 $122 $207 reversed $73 $-1 #
coedge $-1 $122 $122 $121 $207 forward $75 $-1 #
coedge $-1 $123 $123 $76 $124 forward $118 $-1 #
edge $-1 $208 0 $208 6.2831853071796004 $123 $209 forward 7 unknown #
face $-1 $210 $211 $26 $-1 $212 forward single #
loop $-1 $-1 $213 $77 #
plane-surface $-1 -143.49871089778938 11.373340410510981 108.78291951356823 0 -1 0 0.61566148304635926 0 -0.78801074757464917 forward_v I I I I #
coedge $-1 $214 $215 $216 $217 reversed $78 $-1 #
coedge $-1 $130 $80 $218 $219 reversed $51 $-1 #
coedge $-1 $80 $129 $214 $220 reversed $51 $-1 #
coedge $-1 $216 $221 $80 $132 forward $211 $-1 #
edge $-1 $222 7.4383108003153211 $223 12.437971138674492 $131 $224 forward 7 unknown #
loop $-1 $-1 $138 $81 #
plane-surface $-1 -64.311044648579383 7.210024930438852 7.4273307719008983 -0.61566148304635926 0 0.78801074757464917 0.78801074757464917 0 0.61566148304635926 forward_v I I I I #
loop $-1 $-1 $225 $53 #
coedge $-1 $136 $136 $137 $226 reversed $82 $-1 #
coedge $-1 $137 $137 $136 $226 forward $84 $-1 #
coedge $-1 $138 $138 $85 $139 forward $133 $-1 #
edge $-1 $227 0 $227 6.2831853071796004 $138 $228 forward 7 unknown #
face $-1 $229 $230 $21 $-1 $231 reversed single #
loop $-1 $-1 $232 $86 #
plane-surface $-1 -64.311044648579369 0 0 1 0 0 0 0 -1 forward_v I I I I #
coedge $-1 $92 $233 $234 $235 forward $87 $-1 #
coedge $-1 $236 $89 $237 $238 forward $57 $-1 #
coedge $-1 $89 $236 $148 $239 forward $57 $-1 #
coedge $-1 $149 $240 $89 $147 reversed $241 $-1 #
edge $-1 $242 -31.319225558496061 $243 31.319225558496061 $146 $244 forward 7 unknown #
coedge $-1 $91 $90 $145 $239 reversed $36 $-1 #
coedge $-1 $234 $146 $90 $150 forward $241 $-1 #
edge $-1 $242 -11.333493610562799 $154 11.333493610562799 $149 $245 forward 7 unknown #
coedge $-1 $246 $247 $91 $152 reversed $141 $-1 #
edge $-1 $248 -11.333493610562799 $155 11.333493610562799 $151 $249 forward 7 unknown #
coedge $-1 $233 $92 $247 $250 forward $87 $-1 #
vertex $-1 $150 $251 #
vertex $-1 $250 $252 #
straight-curve $-1 0 -31.319225558496061 -11.333493610562799 -1 0 0 I I #
face $-1 $253 $169 $22 $-1 $254 reversed single #
loop $-1 $-1 $255 $94 #
plane-surface $-1 -62.811044648579369 -45.759411459177905 0 0 1 0 0 0 1 forward_v I I I I #
coedge $-1 $256 $257 $164 $258 forward $95 $-1 #
coedge $-1 $259 $97 $257 $260 forward $61 $-1 #
coedge $-1 $97 $259 $167 $261 forward $61 $-1 #
edge $-1 $170 61.311044648579369 $262 64.311044648579369 $97 $263 forward 7 unknown #
coedge $-1 $99 $98 $160 $258 reversed $39 $-1 #
coedge $-1 $264 $265 $98 $166 forward $266 $-1 #
edge $-1 $267 -64.311044648579369 $171 -61.311044648579369 $165 $268 forward 7 unknown #
coedge $-1 $269 $100 $162 $261 reversed $169 $-1 #
coedge $-1 $100 $269 $264 $270 reversed $169 $-1 #
loop $-1 $-1 $269 $157 #
vertex $-1 $163 $271 #
vertex $-1 $270 $272 #
straight-curve $-1 -61.311044648579369 -31.319225558496061 0 0 0 -1 I I #
face $-1 $273 $274 $23 $-1 $275 forward single #
loop $-1 $-1 $276 $102 #
plane-surface $-1 -64.311044648579369 0 0 1 0 0 0 0 -1 forward_v I I I I #
coedge $-1 $277 $278 $107 $183 forward $103 $-1 #
coedge $-1 $279 $105 $106 $182 reversed $65 $-1 #
coedge $-1 $105 $279 $280 $281 reversed $65 $-1 #
coedge $-1 $282 $276 $105 $180 forward $174 $-1 #
edge $-1 $283 1.0134841853996592 $284 7.2178343452419798 $179 $285 forward 7 unknown #
coedge $-1 $107 $106 $276 $286 reversed $42 $-1 #
edge $-1 $187 -64.311044648579369 $283 64.311044648579369 $177 $287 forward 7 unknown #
edge $-1 $188 -64.311044648579369 $288 64.311044648579369 $176 $289 forward 7 unknown #
coedge $-1 $290 $108 $278 $291 reversed $186 $-1 #
coedge $-1 $108 $290 $279 $292 forward $186 $-1 #
loop $-1 $-1 $108 $273 #
vertex $-1 $109 $293 #
vertex $-1 $183 $294 #
straight-curve $-1 64.311044648579369 13.132762871972082 5.1291434507204787 0 1 0 I I #
face $-1 $-1 $202 $24 $-1 $295 forward single #
loop $-1 $-1 $296 $110 #
plane-surface $-1 64.311044648579369 0 0 -1 0 0 0 0 1 forward_v I I I I #
coedge $-1 $297 $298 $299 $300 reversed $111 $-1 #
coedge $-1 $301 $113 $115 $200 forward $69 $-1 #
coedge $-1 $113 $301 $297 $302 forward $69 $-1 #
coedge $-1 $299 $116 $113 $197 forward $202 $-1 #
edge $-1 $204 -7.7683279452915546 $303 0.55830301485270262 $196 $304 forward 7 unknown #
coedge $-1 $305 $306 $114 $199 forward $191 $-1 #
edge $-1 $307 -86.557962109488216 $203 -82.651799270826302 $198 $308 forward 7 unknown #
edge $-1 $204 122.27742921003778 $307 128.62208929715871 $115 $309 forward 7 unknown #
coedge $-1 $116 $299 $305 $310 forward $202 $-1 #
loop $-1 $-1 $299 $190 #
vertex $-1 $199 $311 #
vertex $-1 $117 $312 #
straight-curve $-1 21.071561078061023 11.373340410510981 11.333493610562797 -1 0 0 I I #
coedge $-1 $206 $206 $-1 $313 reversed $120 $-1 #
edge $-1 $314 0 $314 6.2831853071796004 $121 $315 forward 7 unknown #
vertex $-1 $124 $316 #
ellipse-curve $-1 61.811214479399773 7.210024930438852 9.3804121912318372 0.61566148304635926 0 0.78801074757464917 0.78801074757464917 0 -0.61566148304635926 1 I I #
face $-1 $-1 $317 $26 $-1 $318 reversed single #
loop $-1 $-1 $131 $125 #
plane-surface $-1 0 0 11.333493610562799 0 0 1 1 0 0 forward_v I I I I #
coedge $-1 $319 $320 $321 $322 reversed $126 $-1 #
coedge $-1 $323 $128 $130 $220 forward $78 $-1 #
coedge $-1 $128 $323 $319 $324 forward $78 $-1 #
coedge $-1 $321 $131 $128 $217 forward $211 $-1 #
edge $-1 $223 -0.55830301485270262 $325 7.7683279452915546 $216 $326 forward 7 unknown #
coedge $-1 $327 $328 $129 $219 forward $317 $-1 #
edge $-1 $329 -46.964128984883203 $222 -43.057966146221318 $218 $330 forward 7 unknown #
edge $-1 $223 -6.3446600871209071 $329 -1.830693040787162e-014 $130 $331 forward 7 unknown #
coedge $-1 $131 $321 $327 $332 forward $211 $-1 #
vertex $-1 $132 $333 #
vertex $-1 $132 $334 #
straight-curve $-1 -71.74935544889469 3.0467094503667234 11.333493610562797 1 0 0 I I #
coedge $-1 $225 $225 $-1 $335 reversed $135 $-1 #
edge $-1 $336 0 $336 6.2831853071796004 $136 $337 forward 7 unknown #
vertex $-1 $139 $338 #
ellipse-curve $-1 -61.811214479399773 7.210024930438852 9.3804121912318603 -0.61566148304635926 0 0.78801074757464917 0.78801074757464917 0 0.61566148304635926 1 I I #
face $-1 $-1 $241 $21 $-1 $339 reversed single #
loop $-1 $-1 $340 $140 #
plane-surface $-1 0 31.319225558496061 0 0 -1 0 0 0 -1 forward_v I I I I #
coedge $-1 $247 $246 $341 $342 forward $141 $-1 #
coedge $-1 $143 $153 $343 $344 forward $87 $-1 #
coedge $-1 $240 $149 $143 $235 reversed $241 $-1 #
edge $-1 $345 -31.319225558496061 $154 31.319225558496061 $234 $346 forward 7 unknown #
coedge $-1 $145 $144 $246 $347 forward $57 $-1 #
coedge $-1 $340 $341 $144 $238 reversed $230 $-1 #
edge $-1 $243 -64.311044648579369 $348 64.311044648579369 $237 $349 forward 7 unknown #
edge $-1 $248 -64.311044648579369 $242 64.311044648579369 $148 $350 forward 7 unknown #
coedge $-1 $146 $234 $340 $351 reversed $241 $-1 #
loop $-1 $-1 $149 $229 #
vertex $-1 $147 $352 #
vertex $-1 $147 $353 #
straight-curve $-1 64.311044648579369 0 11.333493610562799 0 1 0 I I #
straight-curve $-1 64.311044648579369 -31.319225558496061 0 0 0 -1 I I #
coedge $-1 $232 $151 $236 $347 reversed $141 $-1 #
coedge $-1 $151 $232 $153 $250 reversed $141 $-1 #
vertex $-1 $347 $354 #
straight-curve $-1 -64.311044648579369 -31.319225558496061 0 0 0 -1 I I #
edge $-1 $155 -31.319225558496061 $355 31.319225558496061 $247 $356 forward 7 unknown #
point $-1 64.311044648579369 -31.319225558496061 -11.333493610562799 #
point $-1 -64.311044648579369 -31.319225558496061 -11.333493610562799 #
face $-1 $-1 $266 $22 $-1 $357 reversed single #
plane-surface $-1 -61.311044648579369 -38.539318508836985 0 -1 0 0 0 0 1 forward_v I I I I #
coedge $-1 $358 $359 $360 $361 forward $158 $-1 #
coedge $-1 $360 $160 $265 $362 reversed $95 $-1 #
coedge $-1 $160 $360 $161 $260 reversed $95 $-1 #
edge $-1 $262 -11.333493610562799 $267 11.333493610562799 $160 $363 forward 7 unknown #
coedge $-1 $162 $161 $359 $364 forward $61 $-1 #
edge $-1 $262 31.319225558496061 $365 45.759411459177905 $257 $366 forward 7 unknown #
edge $-1 $367 -7.2200929503409199 $170 7.2200929503409199 $167 $368 forward 7 unknown #
vertex $-1 $260 $369 #
straight-curve $-1 0 -31.319225558496061 11.333493610562799 -1 0 0 I I #
coedge $-1 $370 $165 $168 $270 forward $266 $-1 #
coedge $-1 $165 $370 $256 $362 forward $266 $-1 #
loop $-1 $-1 $165 $253 #
vertex $-1 $258 $371 #
straight-curve $-1 0 -31.319225558496061 -11.333493610562799 1 0 0 I I #
coedge $-1 $168 $167 $372 $373 forward $169 $-1 #
edge $-1 $171 -7.2200929503409199 $374 7.2200929503409199 $168 $375 forward 7 unknown #
point $-1 -61.311044648579369 -31.319225558496065 11.333493610562799 #
point $-1 -61.311044648579369 -31.319225558496065 -11.333493610562799 #
face $-1 $-1 $186 $23 $-1 $376 reversed single #
loop $-1 $-1 $280 $173 #
plane-surface $-1 0 0 11.333493610562799 0 0 1 1 0 0 forward_v I I I I #
coedge $-1 $179 $377 $181 $286 forward $174 $-1 #
coedge $-1 $378 $176 $377 $379 reversed $103 $-1 #
coedge $-1 $176 $378 $184 $291 forward $103 $-1 #
coedge $-1 $178 $177 $185 $292 reversed $65 $-1 #
coedge $-1 $380 $381 $178 $281 forward $274 $-1 #
edge $-1 $284 -64.311044648579369 $382 64.311044648579369 $280 $383 forward 7 unknown #
coedge $-1 $377 $179 $381 $384 reversed $174 $-1 #
vertex $-1 $286 $385 #
vertex $-1 $180 $386 #
straight-curve $-1 -64.311044648579369 21.211825929392269 4.1156592653208195 0 0 1 I I #
edge $-1 $288 -18.186462686523974 $283 -8.0790630574201874 $276 $387 forward 7 unknown #
straight-curve $-1 0 21.211825929392269 5.1291434507204787 -1 0 0 I I #
vertex $-1 $286 $388 #
straight-curve $-1 0 31.319225558496061 5.1291434507204787 -1 0 0 I I #
coedge $-1 $185 $184 $380 $389 reversed $186 $-1 #
edge $-1 $390 -11.333493610562799 $188 -5.1291434507204787 $184 $391 forward 7 unknown #
edge $-1 $382 -7.2178343452419798 $187 -1.0134841853996592 $185 $392 forward 7 unknown #
point $-1 64.311044648579369 21.211825929392269 5.1291434507204787 #
point $-1 64.311044648579369 31.319225558496058 5.1291434507204787 #
plane-surface $-1 0 0 11.333493610562799 0 0 1 1 0 0 forward_v I I I I #
coedge $-1 $306 $305 $298 $393 forward $191 $-1 #
coedge $-1 $298 $193 $195 $302 reversed $111 $-1 #
coedge $-1 $193 $297 $296 $393 reversed $111 $-1 #
coedge $-1 $201 $196 $193 $300 forward $202 $-1 #
edge $-1 $303 38.239823232159139 $394 43.239483570518345 $299 $395 forward 7 unknown #
coedge $-1 $195 $194 $306 $396 reversed $69 $-1 #
edge $-1 $397 -128.62208929715871 $303 -122.27742921003778 $297 $398 forward 7 unknown #
vertex $-1 $197 $399 #
straight-curve $-1 59.311384310220177 3.605012465219426 11.33349361056279 0 -1 0 I I #
coedge $-1 $296 $198 $201 $310 reversed $191 $-1 #
coedge $-1 $198 $296 $301 $396 forward $191 $-1 #
vertex $-1 $199 $400 #
straight-curve $-1 64.311044648579369 11.373340410510981 93.9852928813891 0 0 1 I I #
straight-curve $-1 -37.04454409308795 11.373340410510981 86.614997021110867 0.78801074757464917 0 -0.61566148304635926 I I #
edge $-1 $394 3.0467094503667234 $203 11.373340410510981 $305 $401 forward 7 unknown #
point $-1 64.311044648579369 11.373340410510981 11.333493610562799 #
point $-1 59.311384310220163 11.373340410510981 11.333493610562797 #
edge $-1 $402 1 $402 0 $206 $-1 forward 7 unknown #
vertex $-1 $207 $403 #
ellipse-curve $-1 59.668677946508154 7.210024930438852 6.6380905396712677 0.61566148304635926 0 0.78801074757464917 0.78801074757464917 0 -0.61566148304635926 1 I I #
point $-1 62.599225226974418 7.210024930438852 8.764750708185467 #
loop $-1 $-1 $218 $210 #
plane-surface $-1 -64.311044648579369 0 0 1 0 0 0 0 -1 forward_v I I I I #
coedge $-1 $320 $213 $215 $324 reversed $126 $-1 #
coedge $-1 $213 $319 $404 $405 reversed $126 $-1 #
coedge $-1 $221 $216 $213 $322 forward $211 $-1 #
edge $-1 $325 -12.437971138674492 $406 -7.4383108003153211 $321 $407 forward 7 unknown #
coedge $-1 $215 $214 $328 $408 reversed $78 $-1 #
edge $-1 $409 1.830693040787162e-014 $325 6.3446600871209071 $319 $410 forward 7 unknown #
vertex $-1 $217 $411 #
straight-curve $-1 -59.311384310220191 3.605012465219426 11.333493610562797 0 1 0 I I #
coedge $-1 $404 $218 $221 $332 reversed $317 $-1 #
coedge $-1 $218 $404 $323 $408 forward $317 $-1 #
vertex $-1 $219 $412 #
straight-curve $-1 -64.311044648579369 3.0467094503667234 54.391459756784116 0 0 1 I I #
straight-curve $-1 -64.311044648579383 3.0467094503667234 7.4273307719008983 -0.78801074757464917 0 -0.61566148304635926 I I #
edge $-1 $406 -11.373340410510981 $222 -3.0467094503667234 $327 $413 forward 7 unknown #
point $-1 -64.311044648579369 3.0467094503667234 11.333493610562799 #
point $-1 -59.311384310220198 3.0467094503667234 11.333493610562799 #
edge $-1 $414 1 $414 0 $225 $-1 forward 7 unknown #
vertex $-1 $226 $415 #
ellipse-curve $-1 -59.668677946508147 7.210024930438852 6.6380905396712784 -0.61566148304635926 0 0.78801074757464917 0.78801074757464917 0 0.61566148304635926 1 I I #
point $-1 -61.023203731825113 7.210024930438852 9.9960736742781968 #
plane-surface $-1 64.311044648579369 0 0 -1 0 0 0 0 1 forward_v I I I I #
coedge $-1 $343 $237 $240 $351 forward $230 $-1 #
coedge $-1 $237 $343 $232 $342 reversed $230 $-1 #
edge $-1 $348 -11.333493610562799 $355 11.333493610562799 $341 $416 forward 7 unknown #
coedge $-1 $341 $340 $233 $344 reversed $230 $-1 #
edge $-1 $355 -64.311044648579369 $345 64.311044648579369 $343 $417 forward 7 unknown #
vertex $-1 $235 $418 #
straight-curve $-1 64.311044648579369 0 -11.333493610562799 0 -1 0 I I #
edge $-1 $348 -31.319225558496061 $248 31.319225558496061 $246 $419 forward 7 unknown #
vertex $-1 $238 $420 #
straight-curve $-1 0 31.319225558496061 11.333493610562799 -1 0 0 I I #
straight-curve $-1 0 -31.319225558496061 11.333493610562799 1 0 0 I I #
edge $-1 $243 -11.333493610562799 $345 11.333493610562799 $240 $421 forward 7 unknown #
point $-1 64.311044648579369 -31.319225558496061 11.333493610562799 #
point $-1 64.311044648579369 31.319225558496061 11.333493610562799 #
point $-1 -64.311044648579369 -31.319225558496061 11.333493610562799 #
vertex $-1 $344 $422 #
straight-curve $-1 -64.311044648579369 0 -11.333493610562799 0 1 0 I I #
plane-surface $-1 0 0 -11.333493610562799 0 0 1 1 0 0 forward_v I I I I #
coedge $-1 $372 $255 $370 $423 reversed $158 $-1 #
coedge $-1 $255 $372 $259 $364 reversed $158 $-1 #
coedge $-1 $257 $256 $255 $361 reversed $95 $-1 #
edge $-1 $365 -11.333493610562799 $424 11.333493610562799 $360 $425 forward 7 unknown #
edge $-1 $424 -45.759411459177905 $267 -31.319225558496061 $256 $426 forward 7 unknown #
straight-curve $-1 -64.311044648579369 -31.319225558496061 0 0 0 -1 I I #
edge $-1 $365 -1.5 $367 1.5 $359 $427 forward 7 unknown #
vertex $-1 $260 $428 #
straight-curve $-1 -64.311044648579369 0 11.333493610562799 0 -1 0 I I #
vertex $-1 $261 $429 #
straight-curve $-1 -61.311044648579369 -38.539318508836985 11.333493610562799 0 1 0 I I #
point $-1 -64.311044648579369 -31.319225558496061 11.333493610562799 #
coedge $-1 $265 $264 $358 $423 forward $266 $-1 #
point $-1 -64.311044648579369 -31.319225558496061 -11.333493610562799 #
coedge $-1 $359 $358 $269 $373 reversed $158 $-1 #
edge $-1 $367 -11.333493610562799 $374 11.333493610562799 $269 $430 forward 7 unknown #
vertex $-1 $373 $431 #
straight-curve $-1 -61.311044648579369 -38.539318508836985 -11.333493610562799 0 -1 0 I I #
plane-surface $-1 64.311044648579369 0 0 -1 0 0 0 0 1 forward_v I I I I #
coedge $-1 $276 $282 $277 $379 forward $174 $-1 #
coedge $-1 $278 $277 $432 $433 reversed $103 $-1 #
edge $-1 $434 -11.333493610562799 $288 -5.1291434507204787 $277 $435 forward 7 unknown #
coedge $-1 $432 $280 $290 $389 forward $274 $-1 #
coedge $-1 $280 $432 $282 $384 forward $274 $-1 #
vertex $-1 $389 $436 #
straight-curve $-1 0 21.211825929392269 11.333493610562799 1 0 0 I I #
edge $-1 $434 -31.319225558496061 $284 -21.211825929392269 $282 $437 forward 7 unknown #
point $-1 -64.311044648579369 21.211825929392269 5.1291434507204787 #
point $-1 -64.311044648579369 21.211825929392269 11.333493610562799 #
straight-curve $-1 -64.311044648579369 13.132762871972082 5.1291434507204787 0 -1 0 I I #
point $-1 -64.311044648579369 31.319225558496058 5.1291434507204787 #
edge $-1 $382 21.211825929392269 $390 31.319225558496061 $290 $438 forward 7 unknown #
vertex $-1 $389 $439 #
straight-curve $-1 64.311044648579369 31.319225558496061 0 0 0 -1 I I #
straight-curve $-1 64.311044648579369 21.211825929392269 4.1156592653208195 0 0 -1 I I #
edge $-1 $394 82.651799270826302 $397 86.557962109488216 $296 $440 forward 7 unknown #
vertex $-1 $310 $441 #
straight-curve $-1 21.071561078061023 3.0467094503667234 11.333493610562797 1 0 0 I I #
edge $-1 $397 -0.55830301485270262 $307 7.7683279452915546 $306 $442 forward 7 unknown #
vertex $-1 $396 $443 #
straight-curve $-1 -37.04454409308795 3.0467094503667234 86.614997021110867 -0.78801074757464917 0 0.61566148304635926 I I #
point $-1 59.311384310220163 3.0467094503667234 11.333493610562797 #
point $-1 64.311044648579369 11.373340410510981 7.4273307719008841 #
straight-curve $-1 64.311044648579369 0 11.333493610562799 0 1 0 I I #
vertex $-1 $313 $444 #
point $-1 60.456688694082807 7.210024930438852 6.0224290566249081 #
coedge $-1 $328 $327 $320 $405 forward $317 $-1 #
edge $-1 $406 43.057966146221318 $409 46.964128984883203 $404 $445 forward 7 unknown #
vertex $-1 $332 $446 #
straight-curve $-1 -71.74935544889469 11.373340410510981 11.333493610562797 -1 0 0 I I #
edge $-1 $409 -7.7683279452915546 $329 0.55830301485270262 $328 $447 forward 7 unknown #
vertex $-1 $408 $448 #
straight-curve $-1 -64.311044648579383 11.373340410510981 7.4273307719008983 0.78801074757464917 0 0.61566148304635926 I I #
point $-1 -59.311384310220198 11.373340410510981 11.333493610562799 #
point $-1 -64.311044648579369 3.0467094503667234 7.4273307719009098 #
straight-curve $-1 -64.311044648579369 0 11.333493610562799 0 -1 0 I I #
vertex $-1 $335 $449 #
point $-1 -58.880667198933502 7.210024930438852 7.253752022717638 #
straight-curve $-1 -64.311044648579369 31.319225558496061 0 0 0 -1 I I #
straight-curve $-1 0 31.319225558496061 -11.333493610562799 1 0 0 I I #
point $-1 64.311044648579369 31.319225558496061 -11.333493610562799 #
straight-curve $-1 -64.311044648579369 0 11.333493610562799 0 -1 0 I I #
point $-1 -64.311044648579369 31.319225558496061 11.333493610562799 #
straight-curve $-1 64.311044648579369 31.319225558496061 0 0 0 -1 I I #
point $-1 -64.311044648579369 31.319225558496061 -11.333493610562799 #
edge $-1 $374 -1.5 $424 1.5 $358 $450 forward 7 unknown #
vertex $-1 $362 $451 #
straight-curve $-1 -64.311044648579369 -45.759411459177905 0 0 0 -1 I I #
straight-curve $-1 -64.311044648579369 0 -11.333493610562799 0 1 0 I I #
straight-curve $-1 -62.811044648579369 -45.759411459177905 11.333493610562799 1 0 0 I I #
point $-1 -64.311044648579369 -45.759411459177905 11.333493610562799 #
point $-1 -61.311044648579369 -45.759411459177905 11.333493610562799 #
straight-curve $-1 -61.311044648579369 -45.759411459177905 0 0 0 -1 I I #
point $-1 -61.311044648579369 -45.759411459177905 -11.333493610562799 #
coedge $-1 $381 $380 $378 $433 forward $274 $-1 #
edge $-1 $390 -64.311044648579369 $434 64.311044648579369 $378 $452 forward 7 unknown #
vertex $-1 $433 $453 #
straight-curve $-1 -64.311044648579369 31.319225558496061 0 0 0 -1 I I #
point $-1 64.311044648579369 21.211825929392269 11.333493610562799 #
straight-curve $-1 -64.311044648579369 0 11.333493610562799 0 -1 0 I I #
straight-curve $-1 64.311044648579369 0 11.333493610562799 0 1 0 I I #
point $-1 64.311044648579369 31.319225558496061 11.333493610562799 #
straight-curve $-1 64.311044648579369 3.0467094503667234 93.9852928813891 0 0 -1 I I #
point $-1 64.311044648579369 3.0467094503667234 11.333493610562799 #
straight-curve $-1 64.311044648579383 3.605012465219426 7.427330771900877 0 1 0 I I #
point $-1 64.311044648579369 3.0467094503667234 7.4273307719008841 #
point $-1 59.053016463461802 7.210024930438852 5.8500797920966185 #
straight-curve $-1 -64.311044648579369 11.373340410510981 54.391459756784116 0 0 -1 I I #
point $-1 -64.311044648579369 11.373340410510981 11.333493610562799 #
straight-curve $-1 -64.311044648579369 3.605012465219426 7.4273307719009134 0 -1 0 I I #
point $-1 -64.311044648579369 11.373340410510981 7.4273307719009098 #
point $-1 -59.053016463461795 7.210024930438852 5.8500797920966292 #
straight-curve $-1 -62.811044648579369 -45.759411459177905 -11.333493610562799 -1 0 0 I I #
point $-1 -64.311044648579369 -45.759411459177905 -11.333493610562799 #
straight-curve $-1 0 31.319225558496061 11.333493610562799 -1 0 0 I I #
point $-1 -64.311044648579369 31.319225558496061 11.333493610562799 #
End-of-ACIS-data 