500 0 13 0           
7 Unknown 11 ACIS 5.0 NT 24 Thu Mar 25 16:58:38 1999 
-1 9.9999999999999995e-007 1e-010 
body $-1 $13 $-1 $14 #
body $-1 $15 $-1 $16 #
body $-1 $17 $-1 $18 #
body $-1 $19 $-1 $20 #
body $-1 $21 $-1 $22 #
body $-1 $23 $-1 $24 #
body $-1 $25 $-1 $26 #
body $-1 $27 $-1 $28 #
body $-1 $29 $-1 $30 #
body $-1 $31 $-1 $32 #
body $-1 $33 $-1 $34 #
body $-1 $35 $-1 $36 #
body $-1 $37 $-1 $38 #
lump $-1 $-1 $39 $0 #
transform $-1 1 0 0 0 1 0 0 0 1 78.969695120090336 51.288487679362362 17.145415703060991 1 rotate no_reflect no_shear #
lump $-1 $-1 $40 $1 #
transform $-1 1 0 0 0 1 0 0 0 1 78.969695120090336 51.288487679362362 17.145415703060991 1 rotate no_reflect no_shear #
lump $-1 $-1 $41 $2 #
transform $-1 1 0 0 0 1 0 0 0 1 78.969695120090336 51.288487679362362 17.145415703060991 1 rotate no_reflect no_shear #
lump $-1 $-1 $42 $3 #
transform $-1 1 0 0 0 1 0 0 0 1 78.969695120090336 51.288487679362362 17.145415703060991 1 rotate no_reflect no_shear #
lump $-1 $-1 $43 $4 #
transform $-1 1 0 0 0 1 0 0 0 1 78.969695120090336 51.288487679362362 17.145415703060991 1 rotate no_reflect no_shear #
lump $-1 $-1 $44 $5 #
transform $-1 1 0 0 0 1 0 0 0 1 78.969695120090336 51.288487679362362 17.145415703060991 1 rotate no_reflect no_shear #
lump $-1 $-1 $45 $6 #
transform $-1 1 0 0 0 1 0 0 0 1 78.969695120090336 51.288487679362362 17.145415703060991 1 rotate no_reflect no_shear #
lump $-1 $-1 $46 $7 #
transform $-1 1 0 0 0 1 0 0 0 1 78.969695120090336 51.288487679362362 17.145415703060991 1 rotate no_reflect no_shear #
lump $-1 $-1 $47 $8 #
transform $-1 1 0 0 0 1 0 0 0 1 78.969695120090336 51.288487679362362 17.145415703060991 1 rotate no_reflect no_shear #
lump $-1 $-1 $48 $9 #
transform $-1 1 0 0 0 1 0 0 0 1 78.969695120090336 51.288487679362362 17.145415703060991 1 rotate no_reflect no_shear #
lump $-1 $-1 $49 $10 #
transform $-1 1 0 0 0 1 0 0 0 1 78.969695120090336 51.288487679362362 17.145415703060991 1 rotate no_reflect no_shear #
lump $-1 $-1 $50 $11 #
transform $-1 1 0 0 0 1 0 0 0 1 78.969695120090336 51.288487679362362 17.145415703060991 1 rotate no_reflect no_shear #
lump $-1 $-1 $51 $12 #
transform $-1 1 0 0 0 1 0 0 0 1 78.969695120090336 51.288487679362362 17.145415703060991 1 rotate no_reflect no_shear #
shell $-1 $-1 $-1 $52 $-1 $13 #
shell $-1 $-1 $-1 $53 $-1 $15 #
shell $-1 $-1 $-1 $54 $-1 $17 #
shell $-1 $-1 $-1 $55 $-1 $19 #
shell $-1 $-1 $-1 $56 $-1 $21 #
shell $-1 $-1 $-1 $57 $-1 $23 #
shell $-1 $-1 $-1 $58 $-1 $25 #
shell $-1 $-1 $-1 $59 $-1 $27 #
shell $-1 $-1 $-1 $60 $-1 $29 #
shell $-1 $-1 $-1 $61 $-1 $31 #
shell $-1 $-1 $-1 $62 $-1 $33 #
shell $-1 $-1 $-1 $63 $-1 $35 #
shell $-1 $-1 $-1 $64 $-1 $37 #
face $-1 $65 $66 $39 $-1 $67 forward single #
face $-1 $68 $69 $40 $-1 $70 reversed single #
face $-1 $71 $72 $41 $-1 $73 reversed single #
face $-1 $74 $75 $42 $-1 $76 forward single #
face $-1 $77 $78 $43 $-1 $79 forward single #
face $-1 $80 $81 $44 $-1 $82 reversed single #
face $-1 $83 $84 $45 $-1 $85 forward single #
face $-1 $86 $87 $46 $-1 $88 reversed single #
face $-1 $89 $90 $47 $-1 $91 forward single #
face $-1 $92 $93 $48 $-1 $94 reversed single #
face $-1 $95 $96 $49 $-1 $97 forward single #
face $-1 $98 $99 $50 $-1 $100 reversed single #
face $-1 $101 $102 $51 $-1 $103 forward single #
face $-1 $104 $105 $39 $-1 $106 reversed single #
loop $-1 $-1 $107 $52 #
plane-surface $-1 0 0 17.145415703060991 0 0 1 1 0 0 forward_v I I I I #
face $-1 $108 $109 $40 $-1 $110 reversed single #
loop $-1 $-1 $111 $53 #
plane-surface $-1 -67.985253560094236 -24.350086895817704 0 0 1 0 0 0 1 forward_v I I I I #
face $-1 $112 $113 $41 $-1 $114 reversed single #
loop $-1 $-1 $115 $54 #
plane-surface $-1 40.494859310657809 124.86586219789305 176.61245210281348 1 0 0 0 -0.82903758062907751 -0.55919289150049634 forward_v I I I I #
face $-1 $116 $117 $42 $-1 $118 forward single #
loop $-1 $119 $120 $55 #
cone-surface $-1 51.487669541924248 45.288871399772852 9.3128651566499343 0 -0.82903758062907751 -0.55919289150049634 2.5 0 0 1 I I 0 1 2.5 forward I I I I #
face $-1 $121 $122 $43 $-1 $123 forward single #
loop $-1 $124 $125 $56 #
cone-surface $-1 67.976884888823889 45.288871399772852 9.3128651566499343 0 -0.82903758062907751 -0.55919289150049634 2.5 0 0 1 I I 0 1 2.5 forward I I I I #
face $-1 $126 $127 $44 $-1 $128 reversed single #
loop $-1 $-1 $129 $57 #
plane-surface $-1 -29.75396696957144 -154.90605193975955 130.41299456194452 -1 0 0 0 -0.6560590369687036 0.75470957328743171 forward_v I I I I #
face $-1 $130 $131 $45 $-1 $132 forward single #
loop $-1 $133 $134 $58 #
cone-surface $-1 -41.246020611385703 -46.655931987861671 12.775123069121944 0 0.6560590369687036 -0.75470957328743171 1.5 0 0 1 I I 0 1 1.5 forward I I I I #
face $-1 $135 $136 $46 $-1 $137 reversed single #
loop $-1 $-1 $138 $59 #
plane-surface $-1 4.2386598104756779 -154.90605193975955 130.41299456194452 -1 0 0 0 -0.6560590369687036 0.75470957328743171 forward_v I I I I #
face $-1 $139 $140 $47 $-1 $141 forward single #
loop $-1 $142 $143 $60 #
cone-surface $-1 -7.2533938313385846 -46.655931987861671 12.775123069121944 0 0.6560590369687036 -0.75470957328743171 1.5 0 0 1 I I 0 1 1.5 forward I I I I #
face $-1 $144 $145 $48 $-1 $146 reversed single #
loop $-1 $-1 $147 $61 #
plane-surface $-1 38.231286590522799 -154.90605193975955 130.41299456194452 -1 0 0 0 -0.6560590369687036 0.75470957328743171 forward_v I I I I #
face $-1 $148 $149 $49 $-1 $150 forward single #
loop $-1 $151 $152 $62 #
cone-surface $-1 26.739232948708533 -46.655931987861671 12.775123069121944 0 0.6560590369687036 -0.75470957328743171 1.5 0 0 1 I I 0 1 1.5 forward I I I I #
face $-1 $153 $154 $50 $-1 $155 reversed single #
loop $-1 $-1 $156 $63 #
plane-surface $-1 72.223913370569932 -154.90605193975955 130.41299456194452 -1 0 0 0 -0.6560590369687036 0.75470957328743171 forward_v I I I I #
face $-1 $157 $158 $51 $-1 $159 forward single #
loop $-1 $160 $161 $64 #
cone-surface $-1 60.731859728755666 -46.655931987861671 12.775123069121944 0 0.6560590369687036 -0.75470957328743171 1.5 0 0 1 I I 0 1 1.5 forward I I I I #
face $-1 $162 $163 $39 $-1 $164 reversed single #
loop $-1 $-1 $165 $65 #
plane-surface $-1 0 0 -17.145415703060991 0 0 1 1 0 0 forward_v I I I I #
coedge $-1 $166 $167 $168 $169 forward $66 $-1 #
face $-1 $170 $171 $40 $-1 $172 reversed single #
loop $-1 $-1 $173 $68 #
plane-surface $-1 -67.985253560094236 -16.997656273240381 0 0 -1 0 0 0 -1 forward_v I I I I #
coedge $-1 $174 $175 $176 $177 reversed $69 $-1 #
face $-1 $178 $179 $41 $-1 $180 forward single #
loop $-1 $-1 $181 $71 #
plane-surface $-1 59.732277215374069 -6.0718277728580574 88.29386779258158 0 0.82903758062907751 0.55919289150049634 1 0 0 forward_v I I I I #
coedge $-1 $182 $183 $184 $185 reversed $72 $-1 #
face $-1 $-1 $186 $42 $-1 $187 forward single #
loop $-1 $188 $189 $74 #
cone-surface $-1 51.487669541924248 42.937998170574986 7.7271811909257906 0 -0.82903758062907751 -0.55919289150049634 1.25 0 0 1 I I -0.70710678118654746 0.70710678118654746 1.25 forward I I I I #
loop $-1 $-1 $190 $55 #
coedge $-1 $120 $120 $191 $192 reversed $75 $-1 #
face $-1 $-1 $193 $43 $-1 $194 forward single #
loop $-1 $195 $196 $77 #
cone-surface $-1 67.976884888823889 42.937998170574986 7.7271811909257906 0 -0.82903758062907751 -0.55919289150049634 1.25 0 0 1 I I -0.70710678118654746 0.70710678118654746 1.25 forward I I I I #
loop $-1 $-1 $197 $56 #
coedge $-1 $125 $125 $198 $199 reversed $78 $-1 #
face $-1 $200 $201 $44 $-1 $202 reversed single #
loop $-1 $-1 $203 $80 #
plane-surface $-1 -41.246020611385703 -51.288487679362348 11.214624748500597 0 -0.6560590369687036 0.75470957328743171 1 0 0 forward_v I I I I #
coedge $-1 $204 $205 $206 $207 reversed $81 $-1 #
face $-1 $-1 $208 $45 $-1 $209 forward single #
loop $-1 $210 $211 $83 #
cone-surface $-1 -41.246020611385703 -44.942629217781764 10.804193732497531 0 0.6560590369687036 -0.75470957328743171 0.75 0 0 1 I I -0.70710678118654757 0.70710678118654757 0.75 forward I I I I #
loop $-1 $-1 $212 $58 #
coedge $-1 $134 $134 $213 $214 reversed $84 $-1 #
face $-1 $215 $216 $46 $-1 $217 reversed single #
loop $-1 $-1 $218 $86 #
plane-surface $-1 -7.2533938313385846 -51.288487679362348 11.214624748500597 0 -0.6560590369687036 0.75470957328743171 1 0 0 forward_v I I I I #
coedge $-1 $219 $220 $221 $222 reversed $87 $-1 #
face $-1 $-1 $223 $47 $-1 $224 forward single #
loop $-1 $225 $226 $89 #
cone-surface $-1 -7.2533938313385846 -44.942629217781764 10.804193732497531 0 0.6560590369687036 -0.75470957328743171 0.75 0 0 1 I I -0.70710678118654757 0.70710678118654757 0.75 forward I I I I #
loop $-1 $-1 $227 $60 #
coedge $-1 $143 $143 $228 $229 reversed $90 $-1 #
face $-1 $230 $231 $48 $-1 $232 reversed single #
loop $-1 $-1 $233 $92 #
plane-surface $-1 26.739232948708533 -51.288487679362348 11.214624748500597 0 -0.6560590369687036 0.75470957328743171 1 0 0 forward_v I I I I #
coedge $-1 $234 $235 $236 $237 reversed $93 $-1 #
face $-1 $-1 $238 $49 $-1 $239 forward single #
loop $-1 $240 $241 $95 #
cone-surface $-1 26.739232948708533 -44.942629217781764 10.804193732497531 0 0.6560590369687036 -0.75470957328743171 0.75 0 0 1 I I -0.70710678118654757 0.70710678118654757 0.75 forward I I I I #
loop $-1 $-1 $242 $62 #
coedge $-1 $152 $152 $243 $244 reversed $96 $-1 #
face $-1 $245 $246 $50 $-1 $247 reversed single #
loop $-1 $-1 $248 $98 #
plane-surface $-1 60.731859728755666 -51.288487679362348 11.214624748500597 0 -0.6560590369687036 0.75470957328743171 1 0 0 forward_v I I I I #
coedge $-1 $249 $250 $251 $252 reversed $99 $-1 #
face $-1 $-1 $253 $51 $-1 $254 forward single #
loop $-1 $255 $256 $101 #
cone-surface $-1 60.731859728755666 -44.942629217781764 10.804193732497531 0 0.6560590369687036 -0.75470957328743171 0.75 0 0 1 I I -0.70710678118654757 0.70710678118654757 0.75 forward I I I I #
loop $-1 $-1 $257 $64 #
coedge $-1 $161 $161 $258 $259 reversed $102 $-1 #
face $-1 $260 $261 $39 $-1 $262 reversed single #
loop $-1 $-1 $263 $104 #
plane-surface $-1 0 -51.288487679362362 0 0 1 0 0 0 1 forward_v I I I I #
coedge $-1 $264 $265 $266 $267 forward $105 $-1 #
coedge $-1 $268 $107 $269 $270 forward $66 $-1 #
coedge $-1 $107 $268 $271 $272 forward $66 $-1 #
coedge $-1 $273 $274 $107 $169 reversed $275 $-1 #
edge $-1 $276 -51.288487679362362 $277 51.288487679362362 $168 $278 forward 7 unknown #
face $-1 $279 $280 $40 $-1 $281 reversed single #
loop $-1 $-1 $282 $108 #
plane-surface $-1 -57.000812000098136 -20.673871584529042 0 -1 0 0 0 0 1 forward_v I I I I #
coedge $-1 $283 $284 $285 $286 forward $109 $-1 #
coedge $-1 $287 $111 $288 $289 reversed $69 $-1 #
coedge $-1 $111 $287 $290 $291 reversed $69 $-1 #
coedge $-1 $292 $293 $111 $177 forward $294 $-1 #
edge $-1 $295 -17.145415703060991 $296 17.145415703060991 $176 $297 forward 7 unknown #
face $-1 $298 $299 $41 $-1 $300 reversed single #
loop $-1 $-1 $184 $112 #
plane-surface $-1 0 0 17.145415703060991 0 0 1 1 0 0 forward_v I I I I #
coedge $-1 $301 $302 $303 $304 reversed $113 $-1 #
coedge $-1 $183 $115 $305 $306 reversed $72 $-1 #
coedge $-1 $115 $182 $301 $307 reversed $72 $-1 #
coedge $-1 $303 $308 $115 $185 forward $179 $-1 #
edge $-1 $309 11.144443419584164 $310 20.514523471940109 $184 $311 forward 7 unknown #
loop $-1 $-1 $191 $116 #
plane-surface $-1 59.732277215374069 -6.0718277728580574 88.29386779258158 0 0.82903758062907751 0.55919289150049634 1 0 0 forward_v I I I I #
loop $-1 $-1 $312 $74 #
coedge $-1 $189 $189 $190 $313 reversed $117 $-1 #
coedge $-1 $190 $190 $189 $313 forward $119 $-1 #
coedge $-1 $191 $191 $120 $192 forward $186 $-1 #
edge $-1 $314 -5.5432318627407654e-017 $314 6.2831853071796004 $191 $315 forward 7 unknown #
loop $-1 $-1 $198 $121 #
plane-surface $-1 59.732277215374069 -6.0718277728580574 88.29386779258158 0 0.82903758062907751 0.55919289150049634 1 0 0 forward_v I I I I #
loop $-1 $-1 $316 $77 #
coedge $-1 $196 $196 $197 $317 reversed $122 $-1 #
coedge $-1 $197 $197 $196 $317 forward $124 $-1 #
coedge $-1 $198 $198 $125 $199 forward $193 $-1 #
edge $-1 $318 -5.5432318627407654e-017 $318 6.2831853071796004 $198 $319 forward 7 unknown #
face $-1 $320 $321 $44 $-1 $322 reversed single #
loop $-1 $-1 $323 $126 #
plane-surface $-1 -52.738074253199969 -154.90605193975955 130.41299456194452 1 0 0 0 0.6560590369687036 -0.75470957328743171 forward_v I I I I #
coedge $-1 $324 $325 $326 $327 reversed $127 $-1 #
coedge $-1 $205 $129 $328 $329 reversed $81 $-1 #
coedge $-1 $129 $204 $324 $330 reversed $81 $-1 #
coedge $-1 $326 $331 $129 $207 forward $332 $-1 #
edge $-1 $333 26.164538290517413 $334 32.987132688812039 $206 $335 forward 7 unknown #
loop $-1 $-1 $213 $130 #
plane-surface $-1 -41.246020611385703 -51.288487679362348 11.214624748500597 0 -0.6560590369687036 0.75470957328743171 1 0 0 forward_v I I I I #
loop $-1 $-1 $336 $83 #
coedge $-1 $211 $211 $212 $337 reversed $131 $-1 #
coedge $-1 $212 $212 $211 $337 forward $133 $-1 #
coedge $-1 $213 $213 $134 $214 forward $208 $-1 #
edge $-1 $338 2.0211627562269992e-015 $338 6.2831853071796022 $213 $339 forward 7 unknown #
face $-1 $340 $341 $46 $-1 $342 reversed single #
loop $-1 $-1 $343 $135 #
plane-surface $-1 -18.745447473152847 -154.90605193975955 130.41299456194452 1 0 0 0 0.6560590369687036 -0.75470957328743171 forward_v I I I I #
coedge $-1 $344 $345 $346 $347 reversed $136 $-1 #
coedge $-1 $220 $138 $348 $349 reversed $87 $-1 #
coedge $-1 $138 $219 $344 $350 reversed $87 $-1 #
coedge $-1 $346 $351 $138 $222 forward $352 $-1 #
edge $-1 $353 26.164538290517413 $354 32.987132688812039 $221 $355 forward 7 unknown #
loop $-1 $-1 $228 $139 #
plane-surface $-1 -7.2533938313385846 -51.288487679362348 11.214624748500597 0 -0.6560590369687036 0.75470957328743171 1 0 0 forward_v I I I I #
loop $-1 $-1 $356 $89 #
coedge $-1 $226 $226 $227 $357 reversed $140 $-1 #
coedge $-1 $227 $227 $226 $357 forward $142 $-1 #
coedge $-1 $228 $228 $143 $229 forward $223 $-1 #
edge $-1 $358 2.0211627562269992e-015 $358 6.2831853071796022 $228 $359 forward 7 unknown #
face $-1 $360 $361 $48 $-1 $362 reversed single #
loop $-1 $-1 $363 $144 #
plane-surface $-1 15.247179306894271 -154.90605193975955 130.41299456194452 1 0 0 0 0.6560590369687036 -0.75470957328743171 forward_v I I I I #
coedge $-1 $364 $365 $366 $367 reversed $145 $-1 #
coedge $-1 $235 $147 $368 $369 reversed $93 $-1 #
coedge $-1 $147 $234 $364 $370 reversed $93 $-1 #
coedge $-1 $366 $371 $147 $237 forward $372 $-1 #
edge $-1 $373 26.164538290517413 $374 32.987132688812039 $236 $375 forward 7 unknown #
loop $-1 $-1 $243 $148 #
plane-surface $-1 26.739232948708533 -51.288487679362348 11.214624748500597 0 -0.6560590369687036 0.75470957328743171 1 0 0 forward_v I I I I #
loop $-1 $-1 $376 $95 #
coedge $-1 $241 $241 $242 $377 reversed $149 $-1 #
coedge $-1 $242 $242 $241 $377 forward $151 $-1 #
coedge $-1 $243 $243 $152 $244 forward $238 $-1 #
edge $-1 $378 2.0211627562269992e-015 $378 6.2831853071796022 $243 $379 forward 7 unknown #
face $-1 $380 $381 $50 $-1 $382 reversed single #
loop $-1 $-1 $383 $153 #
plane-surface $-1 49.2398060869414 -154.90605193975955 130.41299456194452 1 0 0 0 0.6560590369687036 -0.75470957328743171 forward_v I I I I #
coedge $-1 $384 $385 $386 $387 reversed $154 $-1 #
coedge $-1 $250 $156 $388 $389 reversed $99 $-1 #
coedge $-1 $156 $249 $384 $390 reversed $99 $-1 #
coedge $-1 $386 $391 $156 $252 forward $392 $-1 #
edge $-1 $393 26.164538290517413 $394 32.987132688812039 $251 $395 forward 7 unknown #
loop $-1 $-1 $258 $157 #
plane-surface $-1 60.731859728755666 -51.288487679362348 11.214624748500597 0 -0.6560590369687036 0.75470957328743171 1 0 0 forward_v I I I I #
loop $-1 $-1 $396 $101 #
coedge $-1 $256 $256 $257 $397 reversed $158 $-1 #
coedge $-1 $257 $257 $256 $397 forward $160 $-1 #
coedge $-1 $258 $258 $161 $259 forward $253 $-1 #
edge $-1 $398 2.0211627562269992e-015 $398 6.2831853071796022 $258 $399 forward 7 unknown #
face $-1 $400 $401 $39 $-1 $402 reversed single #
loop $-1 $-1 $403 $162 #
plane-surface $-1 -78.969695120090336 0 0 1 0 0 0 0 -1 forward_v I I I I #
coedge $-1 $404 $271 $405 $406 forward $163 $-1 #
coedge $-1 $407 $165 $404 $408 forward $105 $-1 #
coedge $-1 $165 $407 $409 $410 forward $105 $-1 #
coedge $-1 $274 $273 $165 $267 reversed $275 $-1 #
edge $-1 $411 -51.288487679362362 $412 51.288487679362362 $266 $413 forward 7 unknown #
coedge $-1 $167 $166 $414 $415 forward $66 $-1 #
coedge $-1 $416 $417 $166 $270 reversed $401 $-1 #
edge $-1 $277 -78.969695120090336 $418 78.969695120090336 $269 $419 forward 7 unknown #
coedge $-1 $263 $420 $167 $272 reversed $163 $-1 #
edge $-1 $421 -78.969695120090336 $276 78.969695120090336 $271 $422 forward 7 unknown #
coedge $-1 $266 $168 $420 $423 forward $275 $-1 #
coedge $-1 $168 $266 $416 $424 reversed $275 $-1 #
loop $-1 $-1 $273 $400 #
vertex $-1 $169 $425 #
vertex $-1 $169 $426 #
straight-curve $-1 78.969695120090336 0 17.145415703060991 0 1 0 I I #
face $-1 $427 $428 $40 $-1 $429 forward single #
loop $-1 $-1 $430 $170 #
plane-surface $-1 0 0 -17.145415703060991 0 0 1 1 0 0 forward_v I I I I #
coedge $-1 $431 $432 $287 $433 forward $171 $-1 #
coedge $-1 $434 $173 $430 $435 reversed $109 $-1 #
coedge $-1 $173 $434 $436 $437 reversed $109 $-1 #
coedge $-1 $432 $431 $173 $286 reversed $171 $-1 #
edge $-1 $438 -17.145415703060991 $439 17.145415703060991 $285 $440 forward 7 unknown #
coedge $-1 $175 $174 $282 $433 reversed $69 $-1 #
coedge $-1 $441 $442 $174 $289 forward $280 $-1 #
edge $-1 $443 23.008185220051018 $295 44.977068340043218 $288 $444 forward 7 unknown #
coedge $-1 $445 $446 $175 $291 forward $428 $-1 #
edge $-1 $296 -44.977068340043218 $447 -23.008185220051018 $290 $448 forward 7 unknown #
coedge $-1 $449 $176 $446 $450 reversed $294 $-1 #
coedge $-1 $176 $449 $441 $451 reversed $294 $-1 #
loop $-1 $-1 $449 $427 #
vertex $-1 $451 $452 #
vertex $-1 $177 $453 #
straight-curve $-1 -78.969695120090336 -24.350086895817704 0 0 0 1 I I #
face $-1 $-1 $454 $41 $-1 $455 reversed single #
loop $-1 $-1 $456 $178 #
plane-surface $-1 78.969695120090336 0 0 -1 0 0 0 0 1 forward_v I I I I #
coedge $-1 $457 $181 $183 $307 forward $113 $-1 #
coedge $-1 $181 $457 $456 $458 reversed $113 $-1 #
coedge $-1 $459 $184 $181 $304 forward $179 $-1 #
edge $-1 $310 10.628720702970774 $460 49.103556512403301 $303 $461 forward 7 unknown #
coedge $-1 $462 $463 $182 $306 forward $454 $-1 #
edge $-1 $464 -85.052525738470763 $309 -71.160810348345748 $305 $465 forward 7 unknown #
edge $-1 $310 85.820539082839673 $464 102.57697535872468 $183 $466 forward 7 unknown #
coedge $-1 $184 $459 $462 $467 forward $179 $-1 #
vertex $-1 $306 $468 #
vertex $-1 $185 $469 #
straight-curve $-1 40.494859310657809 62.432931098946526 17.145415703060991 0 -1 0 I I #
coedge $-1 $312 $312 $-1 $470 reversed $188 $-1 #
edge $-1 $471 0 $471 6.2831853071796004 $189 $472 forward 7 unknown #
vertex $-1 $192 $473 #
ellipse-curve $-1 51.487669541924248 46.603447653184396 10.199558007998471 0 0.82903758062907751 0.55919289150049634 2.5 0 0 1 I I #
coedge $-1 $316 $316 $-1 $474 reversed $195 $-1 #
edge $-1 $475 0 $475 6.2831853071796004 $196 $476 forward 7 unknown #
vertex $-1 $199 $477 #
ellipse-curve $-1 67.976884888823889 46.603447653184396 10.199558007998471 0 0.82903758062907751 0.55919289150049634 2.5 0 0 1 I I #
face $-1 $-1 $332 $44 $-1 $478 forward single #
loop $-1 $-1 $479 $200 #
plane-surface $-1 0 -51.288487679362362 0 0 1 0 0 0 1 forward_v I I I I #
coedge $-1 $480 $481 $482 $483 reversed $201 $-1 #
coedge $-1 $484 $203 $205 $330 forward $127 $-1 #
coedge $-1 $203 $484 $480 $485 forward $127 $-1 #
coedge $-1 $482 $206 $203 $327 forward $332 $-1 #
edge $-1 $334 9.1309566638785888 $486 32.115063947507117 $326 $487 forward 7 unknown #
coedge $-1 $488 $489 $204 $329 forward $321 $-1 #
edge $-1 $490 -53.991872532471675 $333 -48.061081577911267 $328 $491 forward 7 unknown #
edge $-1 $334 -9.040026309161739 $490 1.888283279974768e-014 $205 $492 forward 7 unknown #
coedge $-1 $206 $482 $488 $493 forward $332 $-1 #
loop $-1 $-1 $482 $320 #
vertex $-1 $329 $494 #
vertex $-1 $207 $495 #
straight-curve $-1 -29.75396696957144 -77.453025969879775 17.145415703060991 0 1 0 I I #
coedge $-1 $336 $336 $-1 $496 reversed $210 $-1 #
edge $-1 $497 0 $497 6.2831853071796004 $211 $498 forward 7 unknown #
vertex $-1 $214 $499 #
ellipse-curve $-1 -41.246020611385703 -47.877190480215049 14.180020225780787 0 -0.6560590369687036 0.75470957328743171 1.5 0 0 1 I I #
face $-1 $-1 $352 $46 $-1 $500 forward single #
loop $-1 $-1 $501 $215 #
plane-surface $-1 0 -51.288487679362362 0 0 1 0 0 0 1 forward_v I I I I #
coedge $-1 $502 $503 $504 $505 reversed $216 $-1 #
coedge $-1 $506 $218 $220 $350 forward $136 $-1 #
coedge $-1 $218 $506 $502 $507 forward $136 $-1 #
coedge $-1 $504 $221 $218 $347 forward $352 $-1 #
edge $-1 $354 -7.8653567261449702 $508 15.118750557483555 $346 $509 forward 7 unknown #
coedge $-1 $510 $511 $219 $349 forward $341 $-1 #
edge $-1 $512 -53.991872532471675 $353 -48.061081577911267 $348 $513 forward 7 unknown #
edge $-1 $354 -9.040026309161739 $512 1.888283279974768e-014 $220 $514 forward 7 unknown #
coedge $-1 $221 $504 $510 $515 forward $352 $-1 #
loop $-1 $-1 $504 $340 #
vertex $-1 $349 $516 #
vertex $-1 $222 $517 #
straight-curve $-1 4.2386598104756779 -77.453025969879775 17.145415703060991 0 1 0 I I #
coedge $-1 $356 $356 $-1 $518 reversed $225 $-1 #
edge $-1 $519 0 $519 6.2831853071796004 $226 $520 forward 7 unknown #
vertex $-1 $229 $521 #
ellipse-curve $-1 -7.2533938313385846 -47.877190480215049 14.180020225780787 0 -0.6560590369687036 0.75470957328743171 1.5 0 0 1 I I #
face $-1 $-1 $372 $48 $-1 $522 forward single #
loop $-1 $-1 $523 $230 #
plane-surface $-1 0 -51.288487679362362 0 0 1 0 0 0 1 forward_v I I I I #
coedge $-1 $524 $525 $526 $527 reversed $231 $-1 #
coedge $-1 $528 $233 $235 $370 forward $145 $-1 #
coedge $-1 $233 $528 $524 $529 forward $145 $-1 #
coedge $-1 $526 $236 $233 $367 forward $372 $-1 #
edge $-1 $374 -24.861670116168533 $530 -1.8775628325400042 $366 $531 forward 7 unknown #
coedge $-1 $532 $533 $234 $369 forward $361 $-1 #
edge $-1 $534 -53.991872532471675 $373 -48.061081577911267 $368 $535 forward 7 unknown #
edge $-1 $374 -9.040026309161739 $534 1.888283279974768e-014 $235 $536 forward 7 unknown #
coedge $-1 $236 $526 $532 $537 forward $372 $-1 #
loop $-1 $-1 $526 $360 #
vertex $-1 $369 $538 #
vertex $-1 $237 $539 #
straight-curve $-1 38.231286590522799 -77.453025969879775 17.145415703060991 0 1 0 I I #
coedge $-1 $376 $376 $-1 $540 reversed $240 $-1 #
edge $-1 $541 0 $541 6.2831853071796004 $241 $542 forward 7 unknown #
vertex $-1 $244 $543 #
ellipse-curve $-1 26.739232948708533 -47.877190480215049 14.180020225780787 0 -0.6560590369687036 0.75470957328743171 1.5 0 0 1 I I #
face $-1 $-1 $392 $50 $-1 $544 forward single #
loop $-1 $-1 $545 $245 #
plane-surface $-1 0 -51.288487679362362 0 0 1 0 0 0 1 forward_v I I I I #
coedge $-1 $546 $547 $548 $549 reversed $246 $-1 #
coedge $-1 $550 $248 $250 $390 forward $154 $-1 #
coedge $-1 $248 $550 $546 $551 forward $154 $-1 #
coedge $-1 $548 $251 $248 $387 forward $392 $-1 #
edge $-1 $394 -41.857983506192099 $552 -18.873876222563567 $386 $553 forward 7 unknown #
coedge $-1 $554 $555 $249 $389 forward $381 $-1 #
edge $-1 $556 -53.991872532471675 $393 -48.061081577911267 $388 $557 forward 7 unknown #
edge $-1 $394 -9.040026309161739 $556 1.888283279974768e-014 $250 $558 forward 7 unknown #
coedge $-1 $251 $548 $554 $559 forward $392 $-1 #
loop $-1 $-1 $548 $380 #
vertex $-1 $389 $560 #
vertex $-1 $252 $561 #
straight-curve $-1 72.223913370569932 -77.453025969879775 17.145415703060991 0 1 0 I I #
coedge $-1 $396 $396 $-1 $562 reversed $255 $-1 #
edge $-1 $563 0 $563 6.2831853071796004 $256 $564 forward 7 unknown #
vertex $-1 $259 $565 #
ellipse-curve $-1 60.731859728755666 -47.877190480215049 14.180020225780787 0 -0.6560590369687036 0.75470957328743171 1.5 0 0 1 I I #
face $-1 $-1 $275 $39 $-1 $566 reversed single #
loop $-1 $-1 $416 $260 #
plane-surface $-1 0 51.288487679362362 0 0 -1 0 0 0 -1 forward_v I I I I #
coedge $-1 $567 $414 $417 $568 forward $261 $-1 #
coedge $-1 $420 $263 $264 $408 reversed $163 $-1 #
coedge $-1 $414 $567 $263 $406 reversed $261 $-1 #
edge $-1 $421 -17.145415703060991 $569 17.145415703060991 $405 $570 forward 7 unknown #
coedge $-1 $265 $264 $567 $571 forward $105 $-1 #
edge $-1 $412 -78.969695120090336 $569 78.969695120090336 $404 $572 forward 7 unknown #
coedge $-1 $417 $416 $265 $410 reversed $401 $-1 #
edge $-1 $573 -78.969695120090336 $411 78.969695120090336 $409 $574 forward 7 unknown #
vertex $-1 $267 $575 #
vertex $-1 $423 $576 #
straight-curve $-1 78.969695120090336 0 -17.145415703060991 0 -1 0 I I #
coedge $-1 $403 $405 $268 $415 reversed $261 $-1 #
edge $-1 $418 -51.288487679362362 $421 51.288487679362362 $414 $577 forward 7 unknown #
coedge $-1 $409 $269 $274 $424 forward $401 $-1 #
coedge $-1 $269 $409 $403 $568 reversed $401 $-1 #
vertex $-1 $270 $578 #
straight-curve $-1 0 51.288487679362362 17.145415703060991 -1 0 0 I I #
coedge $-1 $271 $404 $273 $423 reversed $163 $-1 #
vertex $-1 $415 $579 #
straight-curve $-1 0 -51.288487679362362 17.145415703060991 1 0 0 I I #
edge $-1 $276 -17.145415703060991 $412 17.145415703060991 $273 $580 forward 7 unknown #
edge $-1 $277 -17.145415703060991 $411 17.145415703060991 $274 $581 forward 7 unknown #
point $-1 78.969695120090336 -51.288487679362362 17.145415703060991 #
point $-1 78.969695120090336 51.288487679362362 17.145415703060991 #
face $-1 $-1 $294 $40 $-1 $582 reversed single #
loop $-1 $-1 $436 $279 #
plane-surface $-1 0 0 17.145415703060991 0 0 1 1 0 0 forward_v I I I I #
coedge $-1 $442 $441 $283 $435 forward $280 $-1 #
coedge $-1 $285 $282 $442 $583 reversed $171 $-1 #
coedge $-1 $282 $285 $445 $584 reversed $171 $-1 #
edge $-1 $447 -17.145415703060991 $443 17.145415703060991 $282 $585 forward 7 unknown #
coedge $-1 $284 $283 $449 $586 reversed $109 $-1 #
edge $-1 $587 -44.977068340043218 $439 -23.008185220051018 $430 $588 forward 7 unknown #
coedge $-1 $446 $445 $284 $437 forward $428 $-1 #
edge $-1 $438 23.008185220051018 $589 44.977068340043218 $436 $590 forward 7 unknown #
vertex $-1 $437 $591 #
vertex $-1 $435 $592 #
straight-curve $-1 -57.000812000098136 -16.997656273240381 0 0 0 -1 I I #
coedge $-1 $430 $288 $293 $451 forward $280 $-1 #
coedge $-1 $288 $430 $431 $583 forward $280 $-1 #
vertex $-1 $289 $593 #
straight-curve $-1 -33.992626780047118 -24.350086895817704 -17.145415703060991 -1 0 0 I I #
coedge $-1 $436 $290 $432 $584 forward $428 $-1 #
coedge $-1 $290 $436 $292 $450 forward $428 $-1 #
vertex $-1 $291 $594 #
straight-curve $-1 -33.992626780047118 -24.350086895817704 17.145415703060991 1 0 0 I I #
coedge $-1 $293 $292 $434 $586 forward $294 $-1 #
edge $-1 $589 16.997656273240381 $296 24.350086895817704 $292 $595 forward 7 unknown #
edge $-1 $295 -24.350086895817704 $587 -16.997656273240381 $293 $596 forward 7 unknown #
point $-1 -78.969695120090336 -24.350086895817704 -17.145415703060991 #
point $-1 -78.969695120090336 -24.350086895817704 17.145415703060991 #
loop $-1 $-1 $305 $298 #
plane-surface $-1 0 51.288487679362362 0 0 -1 0 0 0 -1 forward_v I I I I #
coedge $-1 $597 $598 $302 $458 forward $299 $-1 #
coedge $-1 $302 $301 $463 $599 reversed $113 $-1 #
edge $-1 $460 47.523410348768188 $600 64.279846624653203 $456 $601 forward 7 unknown #
coedge $-1 $308 $303 $598 $602 forward $179 $-1 #
vertex $-1 $602 $603 #
straight-curve $-1 29.866138607687034 41.91840762700641 17.145415703060998 1 0 0 I I #
coedge $-1 $604 $305 $308 $467 reversed $454 $-1 #
coedge $-1 $305 $604 $457 $599 forward $454 $-1 #
vertex $-1 $306 $605 #
straight-curve $-1 40.494859310657809 51.288487679362362 88.306226051406739 0 0 1 I I #
straight-curve $-1 40.494859310657809 -6.0718277728580574 88.29386779258158 0 0.55919289150049634 -0.82903758062907751 I I #
edge $-1 $606 -78.969695120090336 $309 -40.494859310657809 $462 $607 forward 7 unknown #
point $-1 40.494859310657809 51.288487679362362 17.145415703060991 #
point $-1 40.494859310657809 41.918407627006417 17.145415703060991 #
edge $-1 $608 1 $608 0 $312 $-1 forward 7 unknown #
vertex $-1 $313 $609 #
ellipse-curve $-1 51.487669541924248 43.974295146361335 8.4261723053014101 0 0.82903758062907751 0.55919289150049634 2.5 0 0 1 I I #
point $-1 53.987669541924248 46.603447653184375 10.199558007998457 #
edge $-1 $610 1 $610 0 $316 $-1 forward 7 unknown #
vertex $-1 $317 $611 #
ellipse-curve $-1 67.976884888823889 43.974295146361335 8.4261723053014101 0 0.82903758062907751 0.55919289150049634 2.5 0 0 1 I I #
point $-1 70.476884888823889 46.603447653184375 10.199558007998457 #
plane-surface $-1 0 0 17.145415703060991 0 0 1 1 0 0 forward_v I I I I #
coedge $-1 $489 $488 $481 $612 forward $321 $-1 #
coedge $-1 $481 $323 $325 $485 reversed $201 $-1 #
coedge $-1 $323 $480 $479 $612 reversed $201 $-1 #
coedge $-1 $331 $326 $323 $483 forward $332 $-1 #
edge $-1 $486 -32.987132688812039 $613 -26.164538290517413 $482 $614 forward 7 unknown #
coedge $-1 $325 $324 $489 $615 reversed $127 $-1 #
edge $-1 $616 -1.888283279974768e-014 $486 9.040026309161739 $480 $617 forward 7 unknown #
vertex $-1 $327 $618 #
straight-curve $-1 -20.623010305692851 -44.465893281067736 17.145415703060991 -1 0 0 I I #
coedge $-1 $479 $328 $331 $493 reversed $321 $-1 #
coedge $-1 $328 $479 $484 $615 forward $321 $-1 #
vertex $-1 $329 $619 #
straight-curve $-1 -29.75396696957144 -51.288487679362362 65.206497280972258 0 0 1 I I #
straight-curve $-1 -29.75396696957144 -51.288487679362348 11.214624748500597 0 -0.75470957328743171 -0.6560590369687036 I I #
edge $-1 $613 -52.738074253199969 $333 -29.75396696957144 $488 $620 forward 7 unknown #
point $-1 -29.75396696957144 -51.288487679362362 17.145415703060991 #
point $-1 -29.75396696957144 -44.465893281067736 17.145415703060991 #
edge $-1 $621 1 $621 0 $336 $-1 forward 7 unknown #
vertex $-1 $337 $622 #
ellipse-curve $-1 -41.246020611385703 -45.434673495508292 11.370225912463104 0 -0.6560590369687036 0.75470957328743171 1.5 0 0 1 I I #
point $-1 -39.746020611385703 -47.877190480215042 14.180020225780783 #
plane-surface $-1 0 0 17.145415703060991 0 0 1 1 0 0 forward_v I I I I #
coedge $-1 $511 $510 $503 $623 forward $341 $-1 #
coedge $-1 $503 $343 $345 $507 reversed $216 $-1 #
coedge $-1 $343 $502 $501 $623 reversed $216 $-1 #
coedge $-1 $351 $346 $343 $505 forward $352 $-1 #
edge $-1 $508 -32.987132688812039 $624 -26.164538290517413 $504 $625 forward 7 unknown #
coedge $-1 $345 $344 $511 $626 reversed $136 $-1 #
edge $-1 $627 -1.888283279974768e-014 $508 9.040026309161739 $502 $628 forward 7 unknown #
vertex $-1 $347 $629 #
straight-curve $-1 -3.6266969156692923 -44.465893281067736 17.145415703060991 -1 0 0 I I #
coedge $-1 $501 $348 $351 $515 reversed $341 $-1 #
coedge $-1 $348 $501 $506 $626 forward $341 $-1 #
vertex $-1 $349 $630 #
straight-curve $-1 4.2386598104756779 -51.288487679362362 65.206497280972258 0 0 1 I I #
straight-curve $-1 4.2386598104756779 -51.288487679362348 11.214624748500597 0 -0.75470957328743171 -0.6560590369687036 I I #
edge $-1 $624 -18.745447473152847 $353 4.2386598104756779 $510 $631 forward 7 unknown #
point $-1 4.2386598104756779 -51.288487679362362 17.145415703060991 #
point $-1 4.2386598104756779 -44.465893281067736 17.145415703060991 #
edge $-1 $632 1 $632 0 $356 $-1 forward 7 unknown #
vertex $-1 $357 $633 #
ellipse-curve $-1 -7.2533938313385846 -45.434673495508292 11.370225912463104 0 -0.6560590369687036 0.75470957328743171 1.5 0 0 1 I I #
point $-1 -5.7533938313385846 -47.877190480215042 14.180020225780783 #
plane-surface $-1 0 0 17.145415703060991 0 0 1 1 0 0 forward_v I I I I #
coedge $-1 $533 $532 $525 $634 forward $361 $-1 #
coedge $-1 $525 $363 $365 $529 reversed $231 $-1 #
coedge $-1 $363 $524 $523 $634 reversed $231 $-1 #
coedge $-1 $371 $366 $363 $527 forward $372 $-1 #
edge $-1 $530 -32.987132688812039 $635 -26.164538290517413 $526 $636 forward 7 unknown #
coedge $-1 $365 $364 $533 $637 reversed $145 $-1 #
edge $-1 $638 -1.888283279974768e-014 $530 9.040026309161739 $524 $639 forward 7 unknown #
vertex $-1 $367 $640 #
straight-curve $-1 13.369616474354267 -44.465893281067736 17.145415703060991 -1 0 0 I I #
coedge $-1 $523 $368 $371 $537 reversed $361 $-1 #
coedge $-1 $368 $523 $528 $637 forward $361 $-1 #
vertex $-1 $369 $641 #
straight-curve $-1 38.231286590522799 -51.288487679362362 65.206497280972258 0 0 1 I I #
straight-curve $-1 38.231286590522799 -51.288487679362348 11.214624748500597 0 -0.75470957328743171 -0.6560590369687036 I I #
edge $-1 $635 15.247179306894271 $373 38.231286590522799 $532 $642 forward 7 unknown #
point $-1 38.231286590522799 -51.288487679362362 17.145415703060991 #
point $-1 38.231286590522799 -44.465893281067736 17.145415703060991 #
edge $-1 $643 1 $643 0 $376 $-1 forward 7 unknown #
vertex $-1 $377 $644 #
ellipse-curve $-1 26.739232948708533 -45.434673495508292 11.370225912463104 0 -0.6560590369687036 0.75470957328743171 1.5 0 0 1 I I #
point $-1 28.239232948708533 -47.877190480215042 14.180020225780783 #
plane-surface $-1 0 0 17.145415703060991 0 0 1 1 0 0 forward_v I I I I #
coedge $-1 $555 $554 $547 $645 forward $381 $-1 #
coedge $-1 $547 $383 $385 $551 reversed $246 $-1 #
coedge $-1 $383 $546 $545 $645 reversed $246 $-1 #
coedge $-1 $391 $386 $383 $549 forward $392 $-1 #
edge $-1 $552 -32.987132688812039 $646 -26.164538290517413 $548 $647 forward 7 unknown #
coedge $-1 $385 $384 $555 $648 reversed $154 $-1 #
edge $-1 $649 -1.888283279974768e-014 $552 9.040026309161739 $546 $650 forward 7 unknown #
vertex $-1 $387 $651 #
straight-curve $-1 30.365929864377833 -44.465893281067736 17.145415703060991 -1 0 0 I I #
coedge $-1 $545 $388 $391 $559 reversed $381 $-1 #
coedge $-1 $388 $545 $550 $648 forward $381 $-1 #
vertex $-1 $389 $652 #
straight-curve $-1 72.223913370569932 -51.288487679362362 65.206497280972258 0 0 1 I I #
straight-curve $-1 72.223913370569932 -51.288487679362348 11.214624748500597 0 -0.75470957328743171 -0.6560590369687036 I I #
edge $-1 $646 49.2398060869414 $393 72.223913370569932 $554 $653 forward 7 unknown #
point $-1 72.223913370569932 -51.288487679362362 17.145415703060991 #
point $-1 72.223913370569932 -44.465893281067736 17.145415703060991 #
edge $-1 $654 1 $654 0 $396 $-1 forward 7 unknown #
vertex $-1 $397 $655 #
ellipse-curve $-1 60.731859728755666 -45.434673495508292 11.370225912463104 0 -0.6560590369687036 0.75470957328743171 1.5 0 0 1 I I #
point $-1 62.231859728755666 -47.877190480215042 14.180020225780783 #
plane-surface $-1 78.969695120090336 0 0 -1 0 0 0 0 1 forward_v I I I I #
coedge $-1 $405 $403 $407 $571 reversed $261 $-1 #
edge $-1 $418 -17.145415703060991 $573 17.145415703060991 $417 $656 forward 7 unknown #
vertex $-1 $571 $657 #
straight-curve $-1 -78.969695120090336 -51.288487679362362 0 0 0 -1 I I #
edge $-1 $569 -51.288487679362362 $573 51.288487679362362 $567 $658 forward 7 unknown #
straight-curve $-1 0 -51.288487679362362 -17.145415703060991 -1 0 0 I I #
vertex $-1 $410 $659 #
straight-curve $-1 0 51.288487679362362 -17.145415703060991 1 0 0 I I #
point $-1 78.969695120090336 51.288487679362362 -17.145415703060991 #
point $-1 78.969695120090336 -51.288487679362362 -17.145415703060991 #
straight-curve $-1 -78.969695120090336 0 17.145415703060991 0 -1 0 I I #
point $-1 -78.969695120090336 51.288487679362362 17.145415703060991 #
point $-1 -78.969695120090336 -51.288487679362362 17.145415703060991 #
straight-curve $-1 78.969695120090336 -51.288487679362362 0 0 0 -1 I I #
straight-curve $-1 78.969695120090336 51.288487679362362 0 0 0 -1 I I #
plane-surface $-1 -78.969695120090336 0 0 1 0 0 0 0 -1 forward_v I I I I #
edge $-1 $439 6.6607204809758596 $443 14.013151103553183 $442 $660 forward 7 unknown #
edge $-1 $447 -14.013151103553183 $438 -6.6607204809758596 $445 $661 forward 7 unknown #
straight-curve $-1 -57.000812000098136 -24.350086895817704 0 0 0 -1 I I #
edge $-1 $589 -17.145415703060991 $587 17.145415703060991 $449 $662 forward 7 unknown #
vertex $-1 $586 $663 #
straight-curve $-1 -33.992626780047118 -16.997656273240381 -17.145415703060991 1 0 0 I I #
vertex $-1 $450 $664 #
straight-curve $-1 -33.992626780047118 -16.997656273240381 17.145415703060991 -1 0 0 I I #
point $-1 -57.000812000098136 -16.997656273240381 17.145415703060991 #
point $-1 -57.000812000098136 -16.997656273240381 -17.145415703060991 #
point $-1 -57.000812000098136 -24.350086895817704 -17.145415703060991 #
point $-1 -57.000812000098136 -24.350086895817704 17.145415703060991 #
straight-curve $-1 -78.969695120090336 0 17.145415703060991 0 -1 0 I I #
straight-curve $-1 -78.969695120090336 0 -17.145415703060991 0 1 0 I I #
coedge $-1 $598 $456 $604 $665 reversed $299 $-1 #
coedge $-1 $456 $597 $459 $602 reversed $299 $-1 #
edge $-1 $600 -49.103556512403301 $464 -10.628720702970774 $463 $666 forward 7 unknown #
vertex $-1 $458 $667 #
straight-curve $-1 78.969695120090336 15.343654380114121 56.544108841846629 0 0.55919289150049634 -0.82903758062907751 I I #
edge $-1 $460 41.918407627006417 $606 51.288487679362362 $598 $668 forward 7 unknown #
point $-1 78.969695120090336 41.918407627006417 17.145415703060991 #
coedge $-1 $463 $462 $597 $665 forward $454 $-1 #
point $-1 40.494859310657809 51.288487679362362 3.2537003129359761 #
vertex $-1 $602 $669 #
straight-curve $-1 0 51.288487679362362 17.145415703060991 -1 0 0 I I #
vertex $-1 $470 $670 #
point $-1 53.987669541924248 43.974295146361335 8.4261723053014101 #
vertex $-1 $474 $671 #
point $-1 70.476884888823889 43.974295146361335 8.4261723053014101 #
edge $-1 $613 48.061081577911267 $616 53.991872532471675 $479 $672 forward 7 unknown #
vertex $-1 $493 $673 #
straight-curve $-1 -52.738074253199969 -77.453025969879775 17.145415703060991 0 -1 0 I I #
edge $-1 $616 -32.115063947507117 $490 -9.1309566638785888 $489 $674 forward 7 unknown #
vertex $-1 $615 $675 #
straight-curve $-1 -52.738074253199969 -51.288487679362348 11.214624748500597 0 0.75470957328743171 0.6560590369687036 I I #
point $-1 -52.738074253199969 -44.465893281067736 17.145415703060991 #
point $-1 -29.75396696957144 -51.288487679362362 11.214624748500585 #
straight-curve $-1 0 -51.288487679362362 17.145415703060991 1 0 0 I I #
vertex $-1 $496 $676 #
point $-1 -39.746020611385703 -45.434673495508292 11.370225912463104 #
edge $-1 $624 48.061081577911267 $627 53.991872532471675 $501 $677 forward 7 unknown #
vertex $-1 $515 $678 #
straight-curve $-1 -18.745447473152847 -77.453025969879775 17.145415703060991 0 -1 0 I I #
edge $-1 $627 -15.118750557483555 $512 7.8653567261449702 $511 $679 forward 7 unknown #
vertex $-1 $626 $680 #
straight-curve $-1 -18.745447473152847 -51.288487679362348 11.214624748500597 0 0.75470957328743171 0.6560590369687036 I I #
point $-1 -18.745447473152847 -44.465893281067736 17.145415703060991 #
point $-1 4.2386598104756779 -51.288487679362362 11.214624748500585 #
straight-curve $-1 0 -51.288487679362362 17.145415703060991 1 0 0 I I #
vertex $-1 $518 $681 #
point $-1 -5.7533938313385846 -45.434673495508292 11.370225912463104 #
edge $-1 $635 48.061081577911267 $638 53.991872532471675 $523 $682 forward 7 unknown #
vertex $-1 $537 $683 #
straight-curve $-1 15.247179306894271 -77.453025969879775 17.145415703060991 0 -1 0 I I #
edge $-1 $638 1.8775628325400042 $534 24.861670116168533 $533 $684 forward 7 unknown #
vertex $-1 $637 $685 #
straight-curve $-1 15.247179306894271 -51.288487679362348 11.214624748500597 0 0.75470957328743171 0.6560590369687036 I I #
point $-1 15.247179306894271 -44.465893281067736 17.145415703060991 #
point $-1 38.231286590522799 -51.288487679362362 11.214624748500585 #
straight-curve $-1 0 -51.288487679362362 17.145415703060991 1 0 0 I I #
vertex $-1 $540 $686 #
point $-1 28.239232948708533 -45.434673495508292 11.370225912463104 #
edge $-1 $646 48.061081577911267 $649 53.991872532471675 $545 $687 forward 7 unknown #
vertex $-1 $559 $688 #
straight-curve $-1 49.2398060869414 -77.453025969879775 17.145415703060991 0 -1 0 I I #
edge $-1 $649 18.873876222563567 $556 41.857983506192099 $555 $689 forward 7 unknown #
vertex $-1 $648 $690 #
straight-curve $-1 49.2398060869414 -51.288487679362348 11.214624748500597 0 0.75470957328743171 0.6560590369687036 I I #
point $-1 49.2398060869414 -44.465893281067736 17.145415703060991 #
point $-1 72.223913370569932 -51.288487679362362 11.214624748500585 #
straight-curve $-1 0 -51.288487679362362 17.145415703060991 1 0 0 I I #
vertex $-1 $562 $691 #
point $-1 62.231859728755666 -45.434673495508292 11.370225912463104 #
straight-curve $-1 -78.969695120090336 51.288487679362362 0 0 0 -1 I I #
point $-1 -78.969695120090336 -51.288487679362362 -17.145415703060991 #
straight-curve $-1 -78.969695120090336 0 -17.145415703060991 0 1 0 I I #
point $-1 -78.969695120090336 51.288487679362362 -17.145415703060991 #
straight-curve $-1 -57.000812000098136 -10.336935792264521 -17.145415703060991 0 -1 0 I I #
straight-curve $-1 -57.000812000098136 -10.336935792264521 17.145415703060991 0 1 0 I I #
straight-curve $-1 -78.969695120090336 -16.997656273240381 0 0 0 -1 I I #
point $-1 -78.969695120090336 -16.997656273240381 -17.145415703060991 #
point $-1 -78.969695120090336 -16.997656273240381 17.145415703060991 #
edge $-1 $606 -17.145415703060991 $600 -3.2537003129359761 $597 $692 forward 7 unknown #
straight-curve $-1 29.866138607687034 51.288487679362369 3.2537003129359618 -1 0 0 I I #
point $-1 78.969695120090336 51.288487679362362 3.2537003129359761 #
straight-curve $-1 78.969695120090336 0 17.145415703060991 0 1 0 I I #
point $-1 78.969695120090336 51.288487679362362 17.145415703060991 #
point $-1 51.487669541924248 41.901701194788636 7.0281900765501701 #
point $-1 67.976884888823889 41.901701194788636 7.0281900765501701 #
straight-curve $-1 -52.738074253199969 -51.288487679362362 65.206497280972258 0 0 -1 I I #
point $-1 -52.738074253199969 -51.288487679362362 17.145415703060991 #
straight-curve $-1 -20.623010305692851 -51.288487679362362 11.214624748500588 1 0 0 I I #
point $-1 -52.738074253199969 -51.288487679362362 11.214624748500585 #
point $-1 -41.246020611385703 -44.450584940055236 10.238161552531958 #
straight-curve $-1 -18.745447473152847 -51.288487679362362 65.206497280972258 0 0 -1 I I #
point $-1 -18.745447473152847 -51.288487679362362 17.145415703060991 #
straight-curve $-1 -3.6266969156692923 -51.288487679362362 11.214624748500588 1 0 0 I I #
point $-1 -18.745447473152847 -51.288487679362362 11.214624748500585 #
point $-1 -7.2533938313385846 -44.450584940055236 10.238161552531958 #
straight-curve $-1 15.247179306894271 -51.288487679362362 65.206497280972258 0 0 -1 I I #
point $-1 15.247179306894271 -51.288487679362362 17.145415703060991 #
straight-curve $-1 13.369616474354267 -51.288487679362362 11.214624748500588 1 0 0 I I #
point $-1 15.247179306894271 -51.288487679362362 11.214624748500585 #
point $-1 26.739232948708533 -44.450584940055236 10.238161552531958 #
straight-curve $-1 49.2398060869414 -51.288487679362362 65.206497280972258 0 0 -1 I I #
point $-1 49.2398060869414 -51.288487679362362 17.145415703060991 #
straight-curve $-1 30.365929864377833 -51.288487679362362 11.214624748500588 1 0 0 I I #
point $-1 49.2398060869414 -51.288487679362362 11.214624748500585 #
point $-1 60.731859728755666 -44.450584940055236 10.238161552531958 #
straight-curve $-1 78.969695120090336 51.288487679362362 0 0 0 -1 I I #
End-of-ACIS-data 