500 0 8 0           
7 Unknown 11 ACIS 5.0 NT 24 Thu Mar 25 22:29:43 1999 
-1 9.9999999999999995e-007 1e-010 
body $-1 $8 $-1 $9 #
body $-1 $10 $-1 $11 #
body $-1 $12 $-1 $13 #
body $-1 $14 $-1 $15 #
body $-1 $16 $-1 $17 #
body $-1 $18 $-1 $19 #
body $-1 $20 $-1 $21 #
body $-1 $22 $-1 $23 #
lump $-1 $-1 $24 $0 #
transform $-1 1 0 0 0 1 0 0 0 1 46.949674977874082 25.095659423657068 9.8065078399728343 1 rotate no_reflect no_shear #
lump $-1 $-1 $25 $1 #
transform $-1 1 0 0 0 1 0 0 0 1 46.949674977874082 25.095659423657068 9.8065078399728343 1 rotate no_reflect no_shear #
lump $-1 $-1 $26 $2 #
transform $-1 1 0 0 0 1 0 0 0 1 46.949674977874082 25.095659423657068 9.8065078399728343 1 rotate no_reflect no_shear #
lump $-1 $-1 $27 $3 #
transform $-1 1 0 0 0 1 0 0 0 1 46.949674977874082 25.095659423657068 9.8065078399728343 1 rotate no_reflect no_shear #
lump $-1 $-1 $28 $4 #
transform $-1 1 0 0 0 1 0 0 0 1 46.949674977874082 25.095659423657068 9.8065078399728343 1 rotate no_reflect no_shear #
lump $-1 $-1 $29 $5 #
transform $-1 1 0 0 0 1 0 0 0 1 46.949674977874082 25.095659423657068 9.8065078399728343 1 rotate no_reflect no_shear #
lump $-1 $-1 $30 $6 #
transform $-1 1 0 0 0 1 0 0 0 1 46.949674977874082 25.095659423657068 9.8065078399728343 1 rotate no_reflect no_shear #
lump $-1 $-1 $31 $7 #
transform $-1 1 0 0 0 1 0 0 0 1 46.949674977874082 25.095659423657068 9.8065078399728343 1 rotate no_reflect no_shear #
shell $-1 $-1 $-1 $32 $-1 $8 #
shell $-1 $-1 $-1 $33 $-1 $10 #
shell $-1 $-1 $-1 $34 $-1 $12 #
shell $-1 $-1 $-1 $35 $-1 $14 #
shell $-1 $-1 $-1 $36 $-1 $16 #
shell $-1 $-1 $-1 $37 $-1 $18 #
shell $-1 $-1 $-1 $38 $-1 $20 #
shell $-1 $-1 $-1 $39 $-1 $22 #
face $-1 $40 $41 $24 $-1 $42 forward single #
face $-1 $43 $44 $25 $-1 $45 reversed single #
face $-1 $46 $47 $26 $-1 $48 reversed single #
face $-1 $49 $50 $27 $-1 $51 forward single #
face $-1 $52 $53 $28 $-1 $54 forward single #
face $-1 $55 $56 $29 $-1 $57 reversed single #
face $-1 $58 $59 $30 $-1 $60 forward single #
face $-1 $61 $62 $31 $-1 $63 forward single #
face $-1 $64 $65 $24 $-1 $66 reversed single #
loop $-1 $-1 $67 $32 #
plane-surface $-1 0 0 9.8065078399728343 0 0 1 1 0 0 forward_v I I I I #
face $-1 $68 $69 $25 $-1 $70 reversed single #
loop $-1 $-1 $71 $33 #
plane-surface $-1 0 -20.442765196912354 6.4300907084378913 0 0 1 1 0 0 forward_v I I I I #
face $-1 $72 $73 $26 $-1 $74 reversed single #
loop $-1 $-1 $75 $34 #
plane-surface $-1 -2.8093982718159083 21.074456612277743 79.98803635076905 0.84804810408105047 0 0.52991925155115449 0.52991925155115449 0 -0.84804810408105047 forward_v I I I I #
face $-1 $76 $77 $27 $-1 $78 forward single #
loop $-1 $79 $80 $35 #
cone-surface $-1 43.402195135479396 19.351083978829465 4.7098384984837178 -0.84804810408105047 0 -0.52991925155115449 0.26495962577557725 0 -0.42402405204052523 1 I I 0 1 0.5 forward I I I I #
face $-1 $81 $82 $28 $-1 $83 forward single #
loop $-1 $84 $85 $36 #
cone-surface $-1 43.402195135479396 22.797829245726028 4.7098384984837178 -0.84804810408105047 0 -0.52991925155115449 0.26495962577557725 0 -0.42402405204052523 1 I I 0 1 0.5 forward I I I I #
face $-1 $86 $87 $29 $-1 $88 reversed single #
loop $-1 $-1 $89 $37 #
plane-surface $-1 -46.949674977874096 21.074456612277743 0.3568706463537481 -0.84804810408105047 0 0.52991925155115449 0.52991925155115449 0 0.84804810408105047 forward_v I I I I #
face $-1 $90 $91 $30 $-1 $92 forward single #
loop $-1 $93 $94 $38 #
cone-surface $-1 -43.402195135479403 19.351083978829465 4.7098384984837143 0.84804810408105047 0 -0.52991925155115449 0.26495962577557725 0 0.42402405204052523 1 I I 0 1 0.5 forward I I I I #
face $-1 $95 $96 $31 $-1 $97 forward single #
loop $-1 $98 $99 $39 #
cone-surface $-1 -43.402195135479403 22.797829245726028 4.7098384984837143 0.84804810408105047 0 -0.52991925155115449 0.26495962577557725 0 0.42402405204052523 1 I I 0 1 0.5 forward I I I I #
face $-1 $100 $101 $24 $-1 $102 reversed single #
loop $-1 $-1 $103 $40 #
plane-surface $-1 0 0 -9.8065078399728343 0 0 1 1 0 0 forward_v I I I I #
coedge $-1 $104 $105 $106 $107 forward $41 $-1 #
face $-1 $108 $109 $25 $-1 $110 reversed single #
loop $-1 $-1 $111 $43 #
plane-surface $-1 0 -15.789870970167641 8.1182992742053628 0 -1 0 0 0 -1 forward_v I I I I #
coedge $-1 $112 $113 $114 $115 reversed $44 $-1 #
face $-1 $116 $117 $26 $-1 $118 reversed single #
loop $-1 $-1 $119 $46 #
plane-surface $-1 76.821767432599387 17.053253800898421 129.74710960045905 0 1 0 0.84804810408105047 0 0.52991925155115449 forward_v I I I I #
coedge $-1 $120 $121 $122 $123 reversed $47 $-1 #
face $-1 $-1 $124 $27 $-1 $125 forward single #
loop $-1 $126 $127 $49 #
cone-surface $-1 42.595097503296358 19.351083978829465 4.2055079409163518 -0.84804810408105047 0 -0.52991925155115449 0.13247981288778862 0 -0.21201202602026262 1 I I -0.70710678118654746 0.70710678118654746 0.25 forward I I I I #
loop $-1 $-1 $128 $35 #
coedge $-1 $80 $80 $129 $130 reversed $50 $-1 #
face $-1 $-1 $131 $28 $-1 $132 forward single #
loop $-1 $133 $134 $52 #
cone-surface $-1 42.595097503296358 22.797829245726028 4.2055079409163518 -0.84804810408105047 0 -0.52991925155115449 0.13247981288778862 0 -0.21201202602026262 1 I I -0.70710678118654746 0.70710678118654746 0.25 forward I I I I #
loop $-1 $-1 $135 $36 #
coedge $-1 $85 $85 $136 $137 reversed $53 $-1 #
face $-1 $138 $139 $29 $-1 $140 forward single #
loop $-1 $-1 $141 $55 #
plane-surface $-1 -126.58084068228939 17.053253800898421 50.115943896043746 0 1 0 -0.84804810408105047 0 0.52991925155115449 forward_v I I I I #
coedge $-1 $142 $143 $144 $145 reversed $56 $-1 #
face $-1 $-1 $146 $30 $-1 $147 forward single #
loop $-1 $148 $149 $58 #
cone-surface $-1 -42.595097503296365 19.351083978829465 4.2055079409163483 0.84804810408105047 0 -0.52991925155115449 0.13247981288778862 0 0.21201202602026262 1 I I -0.70710678118654746 0.70710678118654746 0.25 forward I I I I #
loop $-1 $-1 $150 $38 #
coedge $-1 $94 $94 $151 $152 reversed $59 $-1 #
face $-1 $-1 $153 $31 $-1 $154 forward single #
loop $-1 $155 $156 $61 #
cone-surface $-1 -42.595097503296365 22.797829245726028 4.2055079409163483 0.84804810408105047 0 -0.52991925155115449 0.13247981288778862 0 0.21201202602026262 1 I I -0.70710678118654746 0.70710678118654746 0.25 forward I I I I #
loop $-1 $-1 $157 $39 #
coedge $-1 $99 $99 $158 $159 reversed $62 $-1 #
face $-1 $160 $161 $24 $-1 $162 reversed single #
loop $-1 $-1 $163 $64 #
plane-surface $-1 0 -25.095659423657068 0 0 1 0 0 0 1 forward_v I I I I #
coedge $-1 $164 $165 $166 $167 forward $65 $-1 #
coedge $-1 $168 $67 $169 $170 forward $41 $-1 #
coedge $-1 $67 $168 $171 $172 forward $41 $-1 #
coedge $-1 $173 $174 $67 $107 reversed $175 $-1 #
edge $-1 $176 -25.095659423657068 $177 25.095659423657068 $106 $178 forward 7 unknown #
face $-1 $179 $180 $25 $-1 $181 reversed single #
loop $-1 $-1 $182 $68 #
plane-surface $-1 -46.949674977874082 0 0 1 0 0 0 0 -1 forward_v I I I I #
coedge $-1 $183 $184 $185 $186 reversed $69 $-1 #
coedge $-1 $187 $71 $188 $189 reversed $44 $-1 #
coedge $-1 $71 $187 $183 $190 forward $44 $-1 #
coedge $-1 $185 $191 $71 $115 forward $192 $-1 #
edge $-1 $193 -14.874276825200891 $194 -5.5684883717114637 $114 $195 forward 7 unknown #
face $-1 $196 $197 $26 $-1 $198 forward single #
loop $-1 $-1 $199 $72 #
plane-surface $-1 0 25.095659423657068 0 0 -1 0 0 0 -1 forward_v I I I I #
coedge $-1 $200 $201 $202 $203 reversed $73 $-1 #
coedge $-1 $204 $75 $199 $205 reversed $47 $-1 #
coedge $-1 $75 $204 $200 $206 forward $47 $-1 #
coedge $-1 $202 $207 $75 $123 forward $197 $-1 #
edge $-1 $208 -14.558431117518193 $209 -6.5160254947595497 $122 $210 forward 7 unknown #
loop $-1 $-1 $129 $76 #
plane-surface $-1 -2.8093982718159083 21.074456612277743 79.98803635076905 0.84804810408105047 0 0.52991925155115449 0.52991925155115449 0 -0.84804810408105047 forward_v I I I I #
loop $-1 $-1 $211 $49 #
coedge $-1 $127 $127 $128 $212 reversed $77 $-1 #
coedge $-1 $128 $128 $127 $212 forward $79 $-1 #
coedge $-1 $129 $129 $80 $130 forward $124 $-1 #
edge $-1 $213 0 $213 6.2831853071796004 $129 $214 forward 7 unknown #
loop $-1 $-1 $136 $81 #
plane-surface $-1 -2.8093982718159083 21.074456612277743 79.98803635076905 0.84804810408105047 0 0.52991925155115449 0.52991925155115449 0 -0.84804810408105047 forward_v I I I I #
loop $-1 $-1 $215 $52 #
coedge $-1 $134 $134 $135 $216 reversed $82 $-1 #
coedge $-1 $135 $135 $134 $216 forward $84 $-1 #
coedge $-1 $136 $136 $85 $137 forward $131 $-1 #
edge $-1 $217 0 $217 6.2831853071796004 $136 $218 forward 7 unknown #
face $-1 $219 $220 $29 $-1 $221 reversed single #
loop $-1 $-1 $222 $86 #
plane-surface $-1 0 0 9.8065078399728343 0 0 1 1 0 0 forward_v I I I I #
coedge $-1 $223 $224 $225 $226 reversed $87 $-1 #
coedge $-1 $227 $89 $228 $229 reversed $56 $-1 #
coedge $-1 $89 $227 $223 $230 forward $56 $-1 #
coedge $-1 $225 $231 $89 $145 forward $232 $-1 #
edge $-1 $233 -14.558431117518197 $234 -6.5160254947595497 $144 $235 forward 7 unknown #
loop $-1 $-1 $151 $90 #
plane-surface $-1 -46.949674977874096 21.074456612277743 0.3568706463537481 -0.84804810408105047 0 0.52991925155115449 0.52991925155115449 0 0.84804810408105047 forward_v I I I I #
loop $-1 $-1 $236 $58 #
coedge $-1 $149 $149 $150 $237 reversed $91 $-1 #
coedge $-1 $150 $150 $149 $237 forward $93 $-1 #
coedge $-1 $151 $151 $94 $152 forward $146 $-1 #
edge $-1 $238 0 $238 6.2831853071796004 $151 $239 forward 7 unknown #
loop $-1 $-1 $158 $95 #
plane-surface $-1 -46.949674977874096 21.074456612277743 0.3568706463537481 -0.84804810408105047 0 0.52991925155115449 0.52991925155115449 0 0.84804810408105047 forward_v I I I I #
loop $-1 $-1 $240 $61 #
coedge $-1 $156 $156 $157 $241 reversed $96 $-1 #
coedge $-1 $157 $157 $156 $241 forward $98 $-1 #
coedge $-1 $158 $158 $99 $159 forward $153 $-1 #
edge $-1 $242 0 $242 6.2831853071796004 $158 $243 forward 7 unknown #
face $-1 $244 $245 $24 $-1 $246 reversed single #
loop $-1 $-1 $247 $100 #
plane-surface $-1 -46.949674977874082 0 0 1 0 0 0 0 -1 forward_v I I I I #
coedge $-1 $248 $171 $249 $250 forward $101 $-1 #
coedge $-1 $251 $103 $248 $252 forward $65 $-1 #
coedge $-1 $103 $251 $253 $254 forward $65 $-1 #
coedge $-1 $174 $173 $103 $167 reversed $175 $-1 #
edge $-1 $255 -25.095659423657068 $256 25.095659423657068 $166 $257 forward 7 unknown #
coedge $-1 $105 $104 $258 $259 forward $41 $-1 #
coedge $-1 $260 $261 $104 $170 reversed $245 $-1 #
edge $-1 $177 -46.949674977874082 $262 46.949674977874082 $169 $263 forward 7 unknown #
coedge $-1 $163 $264 $105 $172 reversed $101 $-1 #
edge $-1 $265 -46.949674977874082 $176 46.949674977874082 $171 $266 forward 7 unknown #
coedge $-1 $166 $106 $264 $267 forward $175 $-1 #
coedge $-1 $106 $166 $260 $268 reversed $175 $-1 #
loop $-1 $-1 $173 $244 #
vertex $-1 $107 $269 #
vertex $-1 $107 $270 #
straight-curve $-1 46.949674977874082 0 9.8065078399728343 0 1 0 I I #
face $-1 $271 $272 $25 $-1 $273 forward single #
loop $-1 $-1 $188 $108 #
plane-surface $-1 0 -25.095659423657068 0 0 1 0 0 0 1 forward_v I I I I #
coedge $-1 $274 $275 $276 $277 forward $109 $-1 #
coedge $-1 $276 $111 $113 $190 reversed $69 $-1 #
coedge $-1 $111 $276 $278 $279 reversed $69 $-1 #
coedge $-1 $280 $114 $111 $186 forward $192 $-1 #
edge $-1 $194 2.3709410713352099 $281 5.7473582028701529 $185 $282 forward 7 unknown #
coedge $-1 $113 $112 $274 $283 reversed $44 $-1 #
coedge $-1 $284 $285 $112 $189 forward $180 $-1 #
edge $-1 $286 -46.949674977874082 $193 46.949674977874082 $188 $287 forward 7 unknown #
edge $-1 $288 -46.949674977874082 $194 46.949674977874082 $183 $289 forward 7 unknown #
coedge $-1 $114 $280 $284 $290 forward $192 $-1 #
loop $-1 $-1 $185 $271 #
vertex $-1 $189 $291 #
vertex $-1 $115 $292 #
straight-curve $-1 46.949674977874082 -10.221382598456177 6.4300907084378913 0 1 0 I I #
face $-1 $-1 $293 $26 $-1 $294 reversed single #
loop $-1 $-1 $122 $116 #
plane-surface $-1 0 0 9.8065078399728343 0 0 1 1 0 0 forward_v I I I I #
coedge $-1 $295 $296 $120 $205 forward $117 $-1 #
coedge $-1 $201 $119 $121 $206 reversed $73 $-1 #
coedge $-1 $119 $200 $297 $298 reversed $73 $-1 #
coedge $-1 $299 $122 $119 $203 forward $197 $-1 #
edge $-1 $209 2.634002789110589 $300 8.5387912615743886 $202 $301 forward 7 unknown #
coedge $-1 $121 $120 $302 $303 reversed $47 $-1 #
edge $-1 $304 -59.238121552775333 $208 -48.09531355857699 $199 $305 forward 7 unknown #
edge $-1 $306 -93.89934995574815 $209 -82.7565419615498 $200 $307 forward 7 unknown #
coedge $-1 $122 $299 $295 $308 forward $197 $-1 #
vertex $-1 $123 $309 #
vertex $-1 $123 $310 #
straight-curve $-1 41.044886505410275 10.537228306138871 9.8065078399728378 0 -1 0 I I #
coedge $-1 $211 $211 $-1 $311 reversed $126 $-1 #
edge $-1 $312 0 $312 6.2831853071796004 $127 $313 forward 7 unknown #
vertex $-1 $130 $314 #
ellipse-curve $-1 43.997280741642179 19.351083978829465 5.0816892431633027 0.84804810408105047 0 0.52991925155115449 0.26495962577557725 0 -0.42402405204052523 1 I I #
coedge $-1 $215 $215 $-1 $315 reversed $133 $-1 #
edge $-1 $316 0 $316 6.2831853071796004 $134 $317 forward 7 unknown #
vertex $-1 $137 $318 #
ellipse-curve $-1 43.997280741642179 22.797829245726028 5.0816892431633027 0.84804810408105047 0 0.52991925155115449 0.26495962577557725 0 -0.42402405204052523 1 I I #
face $-1 $-1 $232 $29 $-1 $319 reversed single #
loop $-1 $-1 $228 $138 #
plane-surface $-1 0 25.095659423657068 0 0 -1 0 0 0 -1 forward_v I I I I #
coedge $-1 $320 $321 $224 $322 forward $139 $-1 #
coedge $-1 $224 $141 $143 $230 reversed $87 $-1 #
coedge $-1 $141 $223 $222 $322 reversed $87 $-1 #
coedge $-1 $323 $144 $141 $226 forward $232 $-1 #
edge $-1 $234 -24.701101301668103 $324 -15.251464108049039 $225 $325 forward 7 unknown #
coedge $-1 $143 $142 $320 $326 reversed $56 $-1 #
coedge $-1 $327 $328 $142 $229 forward $220 $-1 #
edge $-1 $329 1.1456385807029117 $233 12.288446574901238 $228 $330 forward 7 unknown #
edge $-1 $331 -11.142807994198353 $234 -2.6831817382962156e-014 $223 $332 forward 7 unknown #
coedge $-1 $144 $323 $327 $333 forward $232 $-1 #
loop $-1 $-1 $225 $219 #
vertex $-1 $229 $334 #
vertex $-1 $145 $335 #
straight-curve $-1 -46.949674977874082 10.537228306138871 0.3568706463537703 0 -1 0 I I #
coedge $-1 $236 $236 $-1 $336 reversed $148 $-1 #
edge $-1 $337 0 $337 6.2831853071796004 $149 $338 forward 7 unknown #
vertex $-1 $152 $339 #
ellipse-curve $-1 -43.997280741642186 19.351083978829465 5.0816892431632974 -0.84804810408105047 0 0.52991925155115449 0.26495962577557725 0 0.42402405204052523 1 I I #
coedge $-1 $240 $240 $-1 $340 reversed $155 $-1 #
edge $-1 $341 0 $341 6.2831853071796004 $156 $342 forward 7 unknown #
vertex $-1 $159 $343 #
ellipse-curve $-1 -43.997280741642186 22.797829245726028 5.0816892431632974 -0.84804810408105047 0 0.52991925155115449 0.26495962577557725 0 0.42402405204052523 1 I I #
face $-1 $-1 $175 $24 $-1 $344 reversed single #
loop $-1 $-1 $260 $160 #
plane-surface $-1 0 25.095659423657068 0 0 -1 0 0 0 -1 forward_v I I I I #
coedge $-1 $345 $258 $261 $346 forward $161 $-1 #
coedge $-1 $264 $163 $164 $252 reversed $101 $-1 #
coedge $-1 $258 $345 $163 $250 reversed $161 $-1 #
edge $-1 $265 -9.8065078399728343 $347 9.8065078399728343 $249 $348 forward 7 unknown #
coedge $-1 $165 $164 $345 $349 forward $65 $-1 #
edge $-1 $256 -46.949674977874082 $347 46.949674977874082 $248 $350 forward 7 unknown #
coedge $-1 $261 $260 $165 $254 reversed $245 $-1 #
edge $-1 $351 -46.949674977874082 $255 46.949674977874082 $253 $352 forward 7 unknown #
vertex $-1 $167 $353 #
vertex $-1 $267 $354 #
straight-curve $-1 46.949674977874082 0 -9.8065078399728343 0 -1 0 I I #
coedge $-1 $247 $249 $168 $259 reversed $161 $-1 #
edge $-1 $262 -25.095659423657068 $265 25.095659423657068 $258 $355 forward 7 unknown #
coedge $-1 $253 $169 $174 $268 forward $245 $-1 #
coedge $-1 $169 $253 $247 $346 reversed $245 $-1 #
vertex $-1 $170 $356 #
straight-curve $-1 0 25.095659423657068 9.8065078399728343 -1 0 0 I I #
coedge $-1 $171 $248 $173 $267 reversed $101 $-1 #
vertex $-1 $259 $357 #
straight-curve $-1 0 -25.095659423657068 9.8065078399728343 1 0 0 I I #
edge $-1 $176 -9.8065078399728343 $256 9.8065078399728343 $173 $358 forward 7 unknown #
edge $-1 $177 -9.8065078399728343 $255 9.8065078399728343 $174 $359 forward 7 unknown #
point $-1 46.949674977874082 -25.095659423657068 9.8065078399728343 #
point $-1 46.949674977874082 25.095659423657068 9.8065078399728343 #
face $-1 $-1 $192 $25 $-1 $360 reversed single #
loop $-1 $-1 $278 $179 #
plane-surface $-1 0 0 9.8065078399728343 0 0 1 1 0 0 forward_v I I I I #
coedge $-1 $361 $182 $187 $283 forward $109 $-1 #
coedge $-1 $182 $361 $362 $363 reversed $109 $-1 #
coedge $-1 $184 $183 $182 $277 reversed $69 $-1 #
edge $-1 $364 -5.7473582028701529 $288 -2.3709410713352099 $182 $365 forward 7 unknown #
coedge $-1 $362 $366 $184 $279 forward $272 $-1 #
edge $-1 $281 -46.949674977874082 $364 46.949674977874082 $278 $367 forward 7 unknown #
coedge $-1 $191 $185 $366 $368 reversed $192 $-1 #
vertex $-1 $186 $369 #
straight-curve $-1 46.949674977874082 -15.789870970167641 4.0591496371026814 0 0 1 I I #
edge $-1 $288 5.5684883717114637 $286 14.874276825200891 $274 $370 forward 7 unknown #
coedge $-1 $371 $188 $191 $290 reversed $180 $-1 #
coedge $-1 $188 $371 $361 $372 forward $180 $-1 #
vertex $-1 $189 $373 #
straight-curve $-1 0 -25.095659423657068 6.4300907084378913 1 0 0 I I #
vertex $-1 $283 $374 #
straight-curve $-1 0 -15.789870970167641 6.4300907084378913 1 0 0 I I #
edge $-1 $375 -9.8065078399728343 $193 -6.4300907084378913 $191 $376 forward 7 unknown #
point $-1 46.949674977874082 -25.095659423657068 6.4300907084378913 #
point $-1 46.949674977874082 -15.789870970167641 6.4300907084378913 #
loop $-1 $-1 $302 $196 #
plane-surface $-1 46.949674977874082 0 0 -1 0 0 0 0 1 forward_v I I I I #
coedge $-1 $296 $199 $207 $308 reversed $117 $-1 #
coedge $-1 $199 $295 $377 $378 forward $117 $-1 #
coedge $-1 $302 $379 $201 $298 forward $293 $-1 #
edge $-1 $300 55.06704696025669 $306 64.516684153875772 $297 $380 forward 7 unknown #
coedge $-1 $207 $202 $379 $381 forward $197 $-1 #
vertex $-1 $381 $382 #
straight-curve $-1 38.410883716299693 17.053253800898421 9.8065078399728378 1 0 0 I I #
coedge $-1 $377 $297 $204 $303 forward $293 $-1 #
edge $-1 $306 6.5160254947595497 $304 14.558431117518193 $302 $383 forward 7 unknown #
vertex $-1 $303 $384 #
straight-curve $-1 15.558253941331063 25.095659423657068 50.593647318507692 -0.52991925155115449 0 0.84804810408105047 I I #
vertex $-1 $303 $385 #
straight-curve $-1 -2.8093982718159083 17.053253800898421 79.98803635076905 -0.52991925155115449 0 0.84804810408105047 I I #
edge $-1 $386 -46.949674977874082 $208 -41.044886505410282 $295 $387 forward 7 unknown #
point $-1 41.044886505410282 25.095659423657064 9.8065078399728378 #
point $-1 41.044886505410282 17.053253800898421 9.8065078399728378 #
edge $-1 $388 1 $388 0 $211 $-1 forward 7 unknown #
vertex $-1 $212 $389 #
ellipse-curve $-1 42.80710952931662 19.351083978829465 4.33798775380414 0.84804810408105047 0 0.52991925155115449 0.26495962577557725 0 -0.42402405204052523 1 I I #
point $-1 44.262240367417746 19.351083978829465 4.6576651911227698 #
edge $-1 $390 1 $390 0 $215 $-1 forward 7 unknown #
vertex $-1 $216 $391 #
ellipse-curve $-1 42.80710952931662 22.797829245726028 4.33798775380414 0.84804810408105047 0 0.52991925155115449 0.26495962577557725 0 -0.42402405204052523 1 I I #
point $-1 44.262240367417746 22.797829245726028 4.6576651911227698 #
plane-surface $-1 -46.949674977874082 0 0 1 0 0 0 0 -1 forward_v I I I I #
coedge $-1 $392 $222 $227 $326 forward $139 $-1 #
coedge $-1 $222 $392 $323 $393 forward $139 $-1 #
edge $-1 $324 16.340745363270614 $331 22.245533835734413 $222 $394 forward 7 unknown #
coedge $-1 $231 $225 $321 $393 reversed $232 $-1 #
vertex $-1 $322 $395 #
straight-curve $-1 -46.949674977874082 17.053253800898421 25.057971948021873 0 0 1 I I #
edge $-1 $331 6.5160254947595497 $329 14.558431117518193 $320 $396 forward 7 unknown #
coedge $-1 $328 $228 $231 $333 reversed $220 $-1 #
coedge $-1 $228 $327 $392 $397 reversed $220 $-1 #
vertex $-1 $397 $398 #
straight-curve $-1 -40.437790566176069 25.095659423657068 10.778064466300044 -0.52991925155115449 0 -0.84804810408105047 I I #
vertex $-1 $326 $399 #
straight-curve $-1 -46.949674977874096 17.053253800898421 0.3568706463537481 -0.52991925155115449 0 -0.84804810408105047 I I #
edge $-1 $400 -9.8065078399728343 $233 -0.35687064635377086 $327 $401 forward 7 unknown #
point $-1 -46.949674977874082 25.095659423657068 0.35687064635377086 #
point $-1 -46.949674977874082 17.053253800898421 0.35687064635377086 #
edge $-1 $402 1 $402 0 $236 $-1 forward 7 unknown #
vertex $-1 $237 $403 #
ellipse-curve $-1 -42.807109529316627 19.351083978829465 4.3379877538041365 -0.84804810408105047 0 0.52991925155115449 0.26495962577557725 0 0.42402405204052523 1 I I #
point $-1 -43.732321115866597 19.351083978829465 5.505713295203817 #
edge $-1 $404 1 $404 0 $240 $-1 forward 7 unknown #
vertex $-1 $241 $405 #
ellipse-curve $-1 -42.807109529316627 22.797829245726028 4.3379877538041365 -0.84804810408105047 0 0.52991925155115449 0.26495962577557725 0 0.42402405204052523 1 I I #
point $-1 -43.732321115866597 22.797829245726028 5.505713295203817 #
plane-surface $-1 46.949674977874082 0 0 -1 0 0 0 0 1 forward_v I I I I #
coedge $-1 $249 $247 $251 $349 reversed $161 $-1 #
edge $-1 $262 -9.8065078399728343 $351 9.8065078399728343 $261 $406 forward 7 unknown #
vertex $-1 $349 $407 #
straight-curve $-1 -46.949674977874082 -25.095659423657068 0 0 0 -1 I I #
edge $-1 $347 -25.095659423657068 $351 25.095659423657068 $345 $408 forward 7 unknown #
straight-curve $-1 0 -25.095659423657068 -9.8065078399728343 -1 0 0 I I #
vertex $-1 $254 $409 #
straight-curve $-1 0 25.095659423657068 -9.8065078399728343 1 0 0 I I #
point $-1 46.949674977874082 25.095659423657068 -9.8065078399728343 #
point $-1 46.949674977874082 -25.095659423657068 -9.8065078399728343 #
straight-curve $-1 -46.949674977874082 0 9.8065078399728343 0 -1 0 I I #
point $-1 -46.949674977874082 25.095659423657068 9.8065078399728343 #
point $-1 -46.949674977874082 -25.095659423657068 9.8065078399728343 #
straight-curve $-1 46.949674977874082 -25.095659423657068 0 0 0 -1 I I #
straight-curve $-1 46.949674977874082 25.095659423657068 0 0 0 -1 I I #
plane-surface $-1 46.949674977874082 0 0 -1 0 0 0 0 1 forward_v I I I I #
coedge $-1 $275 $274 $285 $372 reversed $109 $-1 #
coedge $-1 $410 $278 $275 $363 forward $272 $-1 #
edge $-1 $364 15.789870970167641 $411 25.095659423657068 $275 $412 forward 7 unknown #
vertex $-1 $363 $413 #
straight-curve $-1 -46.949674977874082 -15.789870970167641 4.0591496371026814 0 0 -1 I I #
coedge $-1 $278 $410 $280 $368 forward $272 $-1 #
straight-curve $-1 0 -15.789870970167641 9.8065078399728343 -1 0 0 I I #
edge $-1 $375 -25.095659423657068 $281 -15.789870970167641 $280 $414 forward 7 unknown #
point $-1 46.949674977874082 -15.789870970167641 9.8065078399728343 #
straight-curve $-1 -46.949674977874082 -10.221382598456177 6.4300907084378913 0 -1 0 I I #
coedge $-1 $285 $284 $410 $415 reversed $180 $-1 #
edge $-1 $411 -9.8065078399728343 $286 -6.4300907084378913 $361 $416 forward 7 unknown #
point $-1 -46.949674977874082 -25.095659423657068 6.4300907084378913 #
point $-1 -46.949674977874082 -15.789870970167641 6.4300907084378913 #
vertex $-1 $368 $417 #
straight-curve $-1 46.949674977874082 -25.095659423657068 0 0 0 -1 I I #
coedge $-1 $379 $302 $296 $378 reversed $293 $-1 #
edge $-1 $386 -9.8065078399728343 $304 -0.35687064635375521 $377 $418 forward 7 unknown #
coedge $-1 $297 $377 $299 $381 reversed $293 $-1 #
straight-curve $-1 46.949674977874082 17.053253800898421 64.873554800229527 0 0 -1 I I #
edge $-1 $300 17.053253800898421 $386 25.095659423657068 $379 $419 forward 7 unknown #
point $-1 46.949674977874082 17.053253800898421 9.8065078399728343 #
straight-curve $-1 46.949674977874082 10.537228306138871 0.35687064635376942 0 1 0 I I #
point $-1 46.949674977874082 25.095659423657064 0.35687064635375521 #
point $-1 46.949674977874082 17.053253800898421 0.35687064635375521 #
vertex $-1 $381 $420 #
straight-curve $-1 0 25.095659423657068 9.8065078399728343 -1 0 0 I I #
vertex $-1 $311 $421 #
point $-1 43.072069155092201 19.351083978829465 3.9139637017636151 #
vertex $-1 $315 $422 #
point $-1 43.072069155092201 22.797829245726028 3.9139637017636151 #
coedge $-1 $321 $320 $328 $397 forward $139 $-1 #
edge $-1 $400 -25.095659423657068 $324 -17.053253800898421 $323 $423 forward 7 unknown #
straight-curve $-1 -63.290420341144696 17.053253800898421 9.8065078399728343 1 0 0 I I #
point $-1 -46.949674977874082 17.053253800898421 9.8065078399728343 #
straight-curve $-1 -41.044886505410282 10.537228306138871 9.8065078399728343 0 1 0 I I #
edge $-1 $329 41.044886505410282 $400 46.949674977874082 $328 $424 forward 7 unknown #
point $-1 -41.044886505410282 25.095659423657064 9.8065078399728343 #
point $-1 -41.044886505410282 17.053253800898421 9.8065078399728343 #
vertex $-1 $397 $425 #
straight-curve $-1 -46.949674977874082 25.095659423657068 0 0 0 -1 I I #
vertex $-1 $336 $426 #
point $-1 -42.542149903541052 19.351083978829465 4.7620118058446623 #
vertex $-1 $340 $427 #
point $-1 -42.542149903541052 22.797829245726028 4.7620118058446623 #
straight-curve $-1 -46.949674977874082 25.095659423657068 0 0 0 -1 I I #
point $-1 -46.949674977874082 -25.095659423657068 -9.8065078399728343 #
straight-curve $-1 -46.949674977874082 0 -9.8065078399728343 0 1 0 I I #
point $-1 -46.949674977874082 25.095659423657068 -9.8065078399728343 #
coedge $-1 $366 $362 $371 $415 forward $272 $-1 #
vertex $-1 $363 $428 #
straight-curve $-1 -46.949674977874082 0 9.8065078399728343 0 -1 0 I I #
point $-1 -46.949674977874082 -15.789870970167641 9.8065078399728343 #
straight-curve $-1 46.949674977874082 0 9.8065078399728343 0 1 0 I I #
edge $-1 $411 -46.949674977874082 $375 46.949674977874082 $371 $429 forward 7 unknown #
straight-curve $-1 -46.949674977874082 -25.095659423657068 0 0 0 -1 I I #
point $-1 46.949674977874082 -25.095659423657068 9.8065078399728343 #
straight-curve $-1 46.949674977874082 25.095659423657068 0 0 0 -1 I I #
straight-curve $-1 46.949674977874082 0 9.8065078399728343 0 1 0 I I #
point $-1 46.949674977874082 25.095659423657068 9.8065078399728343 #
point $-1 42.383085477276097 19.351083978829465 4.0730281280285636 #
point $-1 42.383085477276097 22.797829245726028 4.0730281280285636 #
straight-curve $-1 -46.949674977874082 0 9.8065078399728343 0 -1 0 I I #
straight-curve $-1 0 25.095659423657068 9.8065078399728343 -1 0 0 I I #
point $-1 -46.949674977874082 25.095659423657068 9.8065078399728343 #
point $-1 -42.383085477276104 19.351083978829465 4.0730281280285601 #
point $-1 -42.383085477276104 22.797829245726028 4.0730281280285601 #
point $-1 -46.949674977874082 -25.095659423657068 9.8065078399728343 #
straight-curve $-1 0 -25.095659423657068 9.8065078399728343 1 0 0 I I #
End-of-ACIS-data 