500 0 8 0           
7 Unknown 11 ACIS 5.0 NT 24 Thu Mar 25 19:26:56 1999 
-1 9.9999999999999995e-007 1e-010 
body $-1 $8 $-1 $9 #
body $-1 $10 $-1 $11 #
body $-1 $12 $-1 $13 #
body $-1 $14 $-1 $15 #
body $-1 $16 $-1 $17 #
body $-1 $18 $-1 $19 #
body $-1 $20 $-1 $21 #
body $-1 $22 $-1 $23 #
lump $-1 $-1 $24 $0 #
transform $-1 1 0 0 0 1 0 0 0 1 65.174108096560559 43.023225433266504 21.10904547160504 1 rotate no_reflect no_shear #
lump $-1 $-1 $25 $1 #
transform $-1 1 0 0 0 1 0 0 0 1 65.174108096560559 43.023225433266504 21.10904547160504 1 rotate no_reflect no_shear #
lump $-1 $-1 $26 $2 #
transform $-1 1 0 0 0 1 0 0 0 1 65.174108096560559 43.023225433266504 21.10904547160504 1 rotate no_reflect no_shear #
lump $-1 $-1 $27 $3 #
transform $-1 1 0 0 0 1 0 0 0 1 65.174108096560559 43.023225433266504 21.10904547160504 1 rotate no_reflect no_shear #
lump $-1 $-1 $28 $4 #
transform $-1 1 0 0 0 1 0 0 0 1 65.174108096560559 43.023225433266504 21.10904547160504 1 rotate no_reflect no_shear #
lump $-1 $-1 $29 $5 #
transform $-1 1 0 0 0 1 0 0 0 1 65.174108096560559 43.023225433266504 21.10904547160504 1 rotate no_reflect no_shear #
lump $-1 $-1 $30 $6 #
transform $-1 1 0 0 0 1 0 0 0 1 65.174108096560559 43.023225433266504 21.10904547160504 1 rotate no_reflect no_shear #
lump $-1 $-1 $31 $7 #
transform $-1 1 0 0 0 1 0 0 0 1 65.174108096560559 43.023225433266504 21.10904547160504 1 rotate no_reflect no_shear #
shell $-1 $-1 $-1 $32 $-1 $8 #
shell $-1 $-1 $-1 $33 $-1 $10 #
shell $-1 $-1 $-1 $34 $-1 $12 #
shell $-1 $-1 $-1 $35 $-1 $14 #
shell $-1 $-1 $-1 $36 $-1 $16 #
shell $-1 $-1 $-1 $37 $-1 $18 #
shell $-1 $-1 $-1 $38 $-1 $20 #
shell $-1 $-1 $-1 $39 $-1 $22 #
face $-1 $40 $41 $24 $-1 $42 forward single #
face $-1 $43 $44 $25 $-1 $45 forward single #
face $-1 $46 $47 $26 $-1 $48 reversed single #
face $-1 $49 $50 $27 $-1 $51 forward single #
face $-1 $52 $53 $28 $-1 $54 forward single #
face $-1 $55 $56 $29 $-1 $57 reversed single #
face $-1 $58 $59 $30 $-1 $60 forward single #
face $-1 $61 $62 $31 $-1 $63 forward single #
face $-1 $64 $65 $24 $-1 $66 reversed single #
loop $-1 $-1 $67 $32 #
plane-surface $-1 0 0 21.10904547160504 0 0 1 1 0 0 forward_v I I I I #
face $-1 $68 $69 $25 $-1 $70 reversed single #
loop $-1 $-1 $71 $33 #
plane-surface $-1 -55.710598390893139 0 7.2365314554605416 0 0 1 1 0 0 forward_v I I I I #
face $-1 $72 $73 $26 $-1 $74 reversed single #
loop $-1 $-1 $75 $34 #
plane-surface $-1 31.27549736023775 41.851327627587807 166.28334964247364 1 0 0 0 -0.54463904215088732 -0.83867056331134215 forward_v I I I I #
face $-1 $76 $77 $27 $-1 $78 forward single #
loop $-1 $79 $80 $35 #
cone-surface $-1 39.749996295738953 33.66810911317517 14.25122496598277 0 -0.54463904215088732 -0.83867056331134215 1.5 0 0 1 I I 0 1 1.5 forward I I I I #
face $-1 $81 $82 $28 $-1 $83 forward single #
loop $-1 $84 $85 $36 #
cone-surface $-1 52.461744698990756 33.66810911317517 14.25122496598277 0 -0.54463904215088732 -0.83867056331134215 1.5 0 0 1 I I 0 1 1.5 forward I I I I #
face $-1 $86 $87 $29 $-1 $88 reversed single #
loop $-1 $-1 $89 $37 #
plane-surface $-1 56.337295598111908 -43.023225433266504 3.4165507707590592 0 -0.6560590369687036 0.75470957328743171 1 0 0 forward_v I I I I #
face $-1 $90 $91 $30 $-1 $92 forward single #
loop $-1 $93 $94 $38 #
cone-surface $-1 52.55009024163391 -31.322927039594177 10.509803352337597 0 0.6560590369687036 -0.75470957328743171 1.5 0 0 1 I I 0 1 1.5 forward I I I I #
face $-1 $95 $96 $31 $-1 $97 forward single #
loop $-1 $98 $99 $39 #
cone-surface $-1 60.124500954589905 -31.322927039594177 10.509803352337597 0 0.6560590369687036 -0.75470957328743171 1.5 0 0 1 I I 0 1 1.5 forward I I I I #
face $-1 $100 $101 $24 $-1 $102 reversed single #
loop $-1 $-1 $103 $40 #
plane-surface $-1 0 0 -21.10904547160504 0 0 1 1 0 0 forward_v I I I I #
coedge $-1 $104 $105 $106 $107 forward $41 $-1 #
face $-1 $108 $109 $25 $-1 $110 reversed single #
loop $-1 $-1 $111 $43 #
plane-surface $-1 -55.710598390893139 0 -2.9589693667909795 0 0 1 1 0 0 forward_v I I I I #
coedge $-1 $112 $113 $114 $115 forward $44 $-1 #
face $-1 $116 $117 $26 $-1 $118 reversed single #
loop $-1 $-1 $119 $46 #
plane-surface $-1 46.105870497364847 -29.141399985910454 56.964137741160144 0 0.54463904215088732 0.83867056331134215 1 0 0 forward_v I I I I #
coedge $-1 $120 $121 $122 $123 reversed $47 $-1 #
face $-1 $-1 $124 $27 $-1 $125 forward single #
loop $-1 $126 $127 $49 #
cone-surface $-1 39.749996295738953 32.380826555176611 12.268983693315395 0 -0.54463904215088732 -0.83867056331134215 0.75 0 0 1 I I -0.70710678118654757 0.70710678118654757 0.75 forward I I I I #
loop $-1 $-1 $128 $35 #
coedge $-1 $80 $80 $129 $130 reversed $50 $-1 #
face $-1 $-1 $131 $28 $-1 $132 forward single #
loop $-1 $133 $134 $52 #
cone-surface $-1 52.461744698990756 32.380826555176611 12.268983693315395 0 -0.54463904215088732 -0.83867056331134215 0.75 0 0 1 I I -0.70710678118654757 0.70710678118654757 0.75 forward I I I I #
loop $-1 $-1 $135 $36 #
coedge $-1 $85 $85 $136 $137 reversed $53 $-1 #
face $-1 $138 $139 $29 $-1 $140 reversed single #
loop $-1 $-1 $141 $55 #
plane-surface $-1 47.500483099663256 -128.53935061951393 101.79159739264739 1 0 0 0 0.6560590369687036 -0.75470957328743171 forward_v I I I I #
coedge $-1 $142 $143 $144 $145 reversed $56 $-1 #
face $-1 $-1 $146 $30 $-1 $147 forward single #
loop $-1 $148 $149 $58 #
cone-surface $-1 52.55009024163391 -29.307027625315314 8.1907764035275612 0 0.6560590369687036 -0.75470957328743171 0.75 0 0 1 I I -0.70710678118654757 0.70710678118654757 0.75 forward I I I I #
loop $-1 $-1 $150 $38 #
coedge $-1 $94 $94 $151 $152 reversed $59 $-1 #
face $-1 $-1 $153 $31 $-1 $154 forward single #
loop $-1 $155 $156 $61 #
cone-surface $-1 60.124500954589905 -29.307027625315314 8.1907764035275612 0 0.6560590369687036 -0.75470957328743171 0.75 0 0 1 I I -0.70710678118654757 0.70710678118654757 0.75 forward I I I I #
loop $-1 $-1 $157 $39 #
coedge $-1 $99 $99 $158 $159 reversed $62 $-1 #
face $-1 $160 $161 $24 $-1 $162 reversed single #
loop $-1 $-1 $163 $64 #
plane-surface $-1 0 -43.023225433266504 0 0 1 0 0 0 1 forward_v I I I I #
coedge $-1 $164 $165 $166 $167 forward $65 $-1 #
coedge $-1 $168 $67 $169 $170 forward $41 $-1 #
coedge $-1 $67 $168 $171 $172 forward $41 $-1 #
coedge $-1 $173 $174 $67 $107 reversed $175 $-1 #
edge $-1 $176 -43.023225433266504 $177 43.023225433266504 $106 $178 forward 7 unknown #
face $-1 $179 $180 $25 $-1 $181 reversed single #
loop $-1 $-1 $182 $68 #
plane-surface $-1 -46.247088685225719 0 2.138781044334781 -1 0 0 0 0 1 forward_v I I I I #
coedge $-1 $183 $184 $185 $186 forward $69 $-1 #
coedge $-1 $187 $71 $188 $189 reversed $44 $-1 #
coedge $-1 $71 $187 $190 $191 reversed $44 $-1 #
coedge $-1 $182 $192 $71 $115 reversed $109 $-1 #
edge $-1 $193 -43.023225433266504 $194 43.023225433266504 $114 $195 forward 7 unknown #
face $-1 $196 $197 $26 $-1 $198 forward single #
loop $-1 $-1 $199 $72 #
plane-surface $-1 60.936243634491944 41.851327627587807 166.28334964247364 -1 0 0 0 0.54463904215088732 0.83867056331134215 forward_v I I I I #
coedge $-1 $200 $201 $202 $203 reversed $73 $-1 #
coedge $-1 $121 $75 $204 $205 reversed $47 $-1 #
coedge $-1 $75 $120 $200 $206 reversed $47 $-1 #
coedge $-1 $202 $207 $75 $123 forward $197 $-1 #
edge $-1 $208 -22.0975616194726 $209 -5.14493553206065 $122 $210 forward 7 unknown #
loop $-1 $-1 $129 $76 #
plane-surface $-1 46.105870497364847 -29.141399985910454 56.964137741160144 0 0.54463904215088732 0.83867056331134215 1 0 0 forward_v I I I I #
loop $-1 $-1 $211 $49 #
coedge $-1 $127 $127 $128 $212 reversed $77 $-1 #
coedge $-1 $128 $128 $127 $212 forward $79 $-1 #
coedge $-1 $129 $129 $80 $130 forward $124 $-1 #
edge $-1 $213 8.5067957754245139e-016 $213 6.2831853071796013 $129 $214 forward 7 unknown #
loop $-1 $-1 $136 $81 #
plane-surface $-1 46.105870497364847 -29.141399985910454 56.964137741160144 0 0.54463904215088732 0.83867056331134215 1 0 0 forward_v I I I I #
loop $-1 $-1 $215 $52 #
coedge $-1 $134 $134 $135 $216 reversed $82 $-1 #
coedge $-1 $135 $135 $134 $216 forward $84 $-1 #
coedge $-1 $136 $136 $85 $137 forward $131 $-1 #
edge $-1 $217 8.5067957754245139e-016 $217 6.2831853071796013 $136 $218 forward 7 unknown #
face $-1 $219 $220 $29 $-1 $221 forward single #
loop $-1 $-1 $222 $86 #
plane-surface $-1 0 -43.023225433266504 0 0 1 0 0 0 1 forward_v I I I I #
coedge $-1 $223 $224 $225 $226 reversed $87 $-1 #
coedge $-1 $227 $89 $228 $229 reversed $56 $-1 #
coedge $-1 $89 $227 $223 $230 forward $56 $-1 #
coedge $-1 $225 $231 $89 $145 forward $220 $-1 #
edge $-1 $232 -37.005460297504605 $233 -19.331835300607302 $144 $234 forward 7 unknown #
loop $-1 $-1 $151 $90 #
plane-surface $-1 56.337295598111908 -43.023225433266504 3.4165507707590592 0 -0.6560590369687036 0.75470957328743171 1 0 0 forward_v I I I I #
loop $-1 $-1 $235 $58 #
coedge $-1 $149 $149 $150 $236 reversed $91 $-1 #
coedge $-1 $150 $150 $149 $236 forward $93 $-1 #
coedge $-1 $151 $151 $94 $152 forward $146 $-1 #
edge $-1 $237 -2.488465569294401e-015 $237 6.2831853071795978 $151 $238 forward 7 unknown #
loop $-1 $-1 $158 $95 #
plane-surface $-1 56.337295598111908 -43.023225433266504 3.4165507707590592 0 -0.6560590369687036 0.75470957328743171 1 0 0 forward_v I I I I #
loop $-1 $-1 $239 $61 #
coedge $-1 $156 $156 $157 $240 reversed $96 $-1 #
coedge $-1 $157 $157 $156 $240 forward $98 $-1 #
coedge $-1 $158 $158 $99 $159 forward $153 $-1 #
edge $-1 $241 -2.488465569294401e-015 $241 6.2831853071795978 $158 $242 forward 7 unknown #
face $-1 $243 $244 $24 $-1 $245 reversed single #
loop $-1 $-1 $246 $100 #
plane-surface $-1 -65.174108096560559 0 0 1 0 0 0 0 -1 forward_v I I I I #
coedge $-1 $247 $171 $248 $249 forward $101 $-1 #
coedge $-1 $250 $103 $247 $251 forward $65 $-1 #
coedge $-1 $103 $250 $252 $253 forward $65 $-1 #
coedge $-1 $174 $173 $103 $167 reversed $175 $-1 #
edge $-1 $254 -43.023225433266504 $255 43.023225433266504 $166 $256 forward 7 unknown #
coedge $-1 $105 $104 $257 $258 forward $41 $-1 #
coedge $-1 $259 $260 $104 $170 reversed $244 $-1 #
edge $-1 $177 -65.174108096560559 $261 65.174108096560559 $169 $262 forward 7 unknown #
coedge $-1 $163 $263 $105 $172 reversed $101 $-1 #
edge $-1 $264 -65.174108096560559 $176 65.174108096560559 $171 $265 forward 7 unknown #
coedge $-1 $166 $106 $263 $266 forward $175 $-1 #
coedge $-1 $106 $166 $259 $267 reversed $175 $-1 #
loop $-1 $-1 $173 $243 #
vertex $-1 $107 $268 #
vertex $-1 $107 $269 #
straight-curve $-1 65.174108096560559 0 21.10904547160504 0 1 0 I I #
face $-1 $270 $271 $25 $-1 $272 reversed single #
loop $-1 $-1 $273 $108 #
plane-surface $-1 0 -43.023225433266504 0 0 1 0 0 0 1 forward_v I I I I #
coedge $-1 $185 $114 $274 $275 reversed $109 $-1 #
coedge $-1 $276 $111 $273 $277 reversed $69 $-1 #
coedge $-1 $111 $276 $278 $279 reversed $69 $-1 #
coedge $-1 $192 $182 $111 $186 reversed $109 $-1 #
edge $-1 $280 -43.023225433266504 $281 43.023225433266504 $185 $282 forward 7 unknown #
coedge $-1 $113 $112 $283 $284 reversed $44 $-1 #
coedge $-1 $285 $286 $112 $189 forward $287 $-1 #
edge $-1 $288 -37.318808901113989 $194 -18.39178948977915 $188 $289 forward 7 unknown #
coedge $-1 $290 $274 $113 $191 forward $180 $-1 #
edge $-1 $193 18.39178948977915 $291 37.318808901113989 $190 $292 forward 7 unknown #
coedge $-1 $114 $185 $285 $293 reversed $109 $-1 #
vertex $-1 $191 $294 #
vertex $-1 $189 $295 #
straight-curve $-1 -46.247088685225719 0 7.2365314554605416 0 1 0 I I #
face $-1 $-1 $296 $26 $-1 $297 reversed single #
loop $-1 $-1 $122 $116 #
plane-surface $-1 0 0 21.10904547160504 0 0 1 1 0 0 forward_v I I I I #
coedge $-1 $298 $299 $300 $301 reversed $117 $-1 #
coedge $-1 $302 $119 $121 $206 forward $73 $-1 #
coedge $-1 $119 $302 $298 $303 forward $73 $-1 #
coedge $-1 $300 $122 $119 $203 forward $197 $-1 #
edge $-1 $209 8.2225621115553267 $304 37.883308385809521 $202 $305 forward 7 unknown #
coedge $-1 $306 $307 $120 $205 forward $296 $-1 #
edge $-1 $308 -73.041793660508603 $208 -62.032629349631776 $204 $309 forward 7 unknown #
edge $-1 $209 65.832761691038982 $308 86.046450866533007 $121 $310 forward 7 unknown #
coedge $-1 $122 $300 $306 $311 forward $197 $-1 #
vertex $-1 $205 $312 #
vertex $-1 $123 $313 #
straight-curve $-1 31.27549736023775 20.925663813793904 21.109045471605043 0 -1 0 I I #
coedge $-1 $211 $211 $-1 $314 reversed $126 $-1 #
edge $-1 $315 0 $315 6.2831853071796004 $127 $316 forward 7 unknown #
vertex $-1 $130 $317 #
ellipse-curve $-1 39.749996295738953 34.546912389560546 15.604463316166617 0 0.54463904215088732 0.83867056331134215 1.5 0 0 1 I I #
coedge $-1 $215 $215 $-1 $318 reversed $133 $-1 #
edge $-1 $319 0 $319 6.2831853071796004 $134 $320 forward 7 unknown #
vertex $-1 $137 $321 #
ellipse-curve $-1 52.461744698990756 34.546912389560546 15.604463316166617 0 0.54463904215088732 0.83867056331134215 1.5 0 0 1 I I #
face $-1 $-1 $322 $29 $-1 $323 reversed single #
loop $-1 $-1 $225 $138 #
plane-surface $-1 0 0 21.10904547160504 0 0 1 1 0 0 forward_v I I I I #
coedge $-1 $324 $325 $224 $326 forward $139 $-1 #
coedge $-1 $224 $141 $143 $230 reversed $87 $-1 #
coedge $-1 $141 $223 $222 $326 reversed $87 $-1 #
coedge $-1 $327 $144 $141 $226 forward $220 $-1 #
edge $-1 $233 -41.599336390730471 $328 -21.246449876490459 $225 $329 forward 7 unknown #
coedge $-1 $143 $142 $324 $330 reversed $56 $-1 #
coedge $-1 $331 $332 $142 $229 forward $322 $-1 #
edge $-1 $333 -15.114290549885336 $232 11.853548781455171 $228 $334 forward 7 unknown #
edge $-1 $335 0 $233 26.967839331340507 $223 $336 forward 7 unknown #
coedge $-1 $144 $327 $331 $337 forward $220 $-1 #
vertex $-1 $229 $338 #
vertex $-1 $145 $339 #
straight-curve $-1 28.168647799055954 -22.670338919026495 21.10904547160504 -1 0 0 I I #
coedge $-1 $235 $235 $-1 $340 reversed $148 $-1 #
edge $-1 $341 0 $341 6.2831853071796004 $149 $342 forward 7 unknown #
vertex $-1 $152 $343 #
ellipse-curve $-1 52.55009024163391 -32.846782176146498 12.262798121182048 0 -0.6560590369687036 0.75470957328743171 1.5 0 0 1 I I #
coedge $-1 $239 $239 $-1 $344 reversed $155 $-1 #
edge $-1 $345 0 $345 6.2831853071796004 $156 $346 forward 7 unknown #
vertex $-1 $159 $347 #
ellipse-curve $-1 60.124500954589905 -32.846782176146498 12.262798121182048 0 -0.6560590369687036 0.75470957328743171 1.5 0 0 1 I I #
face $-1 $-1 $175 $24 $-1 $348 reversed single #
loop $-1 $-1 $259 $160 #
plane-surface $-1 0 43.023225433266504 0 0 -1 0 0 0 -1 forward_v I I I I #
coedge $-1 $349 $257 $260 $350 forward $161 $-1 #
coedge $-1 $263 $163 $164 $251 reversed $101 $-1 #
coedge $-1 $257 $349 $163 $249 reversed $161 $-1 #
edge $-1 $264 -21.10904547160504 $351 21.10904547160504 $248 $352 forward 7 unknown #
coedge $-1 $165 $164 $349 $353 forward $65 $-1 #
edge $-1 $255 -65.174108096560559 $351 65.174108096560559 $247 $354 forward 7 unknown #
coedge $-1 $260 $259 $165 $253 reversed $244 $-1 #
edge $-1 $355 -65.174108096560559 $254 65.174108096560559 $252 $356 forward 7 unknown #
vertex $-1 $167 $357 #
vertex $-1 $266 $358 #
straight-curve $-1 65.174108096560559 0 -21.10904547160504 0 -1 0 I I #
coedge $-1 $246 $248 $168 $258 reversed $161 $-1 #
edge $-1 $261 -43.023225433266504 $264 43.023225433266504 $257 $359 forward 7 unknown #
coedge $-1 $252 $169 $174 $267 forward $244 $-1 #
coedge $-1 $169 $252 $246 $350 reversed $244 $-1 #
vertex $-1 $170 $360 #
straight-curve $-1 0 43.023225433266504 21.10904547160504 -1 0 0 I I #
coedge $-1 $171 $247 $173 $266 reversed $101 $-1 #
vertex $-1 $258 $361 #
straight-curve $-1 0 -43.023225433266504 21.10904547160504 1 0 0 I I #
edge $-1 $176 -21.10904547160504 $255 21.10904547160504 $173 $362 forward 7 unknown #
edge $-1 $177 -21.10904547160504 $254 21.10904547160504 $174 $363 forward 7 unknown #
point $-1 65.174108096560559 -43.023225433266504 21.10904547160504 #
point $-1 65.174108096560559 43.023225433266504 21.10904547160504 #
face $-1 $-1 $287 $25 $-1 $364 reversed single #
loop $-1 $-1 $365 $179 #
plane-surface $-1 -65.174108096560559 0 0 1 0 0 0 0 -1 forward_v I I I I #
coedge $-1 $274 $290 $183 $277 forward $180 $-1 #
coedge $-1 $190 $273 $182 $275 forward $180 $-1 #
edge $-1 $281 -4.02835988895837 $193 6.1671409332931511 $274 $366 forward 7 unknown #
coedge $-1 $184 $183 $365 $367 reversed $69 $-1 #
edge $-1 $368 -37.318808901113989 $281 -18.39178948977915 $273 $369 forward 7 unknown #
coedge $-1 $286 $285 $184 $279 forward $287 $-1 #
edge $-1 $280 18.39178948977915 $370 37.318808901113989 $278 $371 forward 7 unknown #
vertex $-1 $279 $372 #
vertex $-1 $277 $373 #
straight-curve $-1 -46.247088685225719 0 -2.9589693667909795 0 -1 0 I I #
coedge $-1 $374 $375 $187 $284 forward $271 $-1 #
edge $-1 $291 -43.023225433266504 $288 43.023225433266504 $283 $376 forward 7 unknown #
coedge $-1 $278 $188 $192 $293 forward $287 $-1 #
coedge $-1 $188 $278 $374 $377 reversed $287 $-1 #
loop $-1 $-1 $278 $270 #
vertex $-1 $377 $378 #
straight-curve $-1 -27.85529919544657 43.023225433266504 7.2365314554605416 1 0 0 I I #
coedge $-1 $273 $190 $375 $379 forward $180 $-1 #
vertex $-1 $379 $380 #
straight-curve $-1 -27.85529919544657 -43.023225433266504 7.2365314554605416 -1 0 0 I I #
edge $-1 $194 -6.1671409332931511 $280 4.02835988895837 $285 $381 forward 7 unknown #
point $-1 -46.247088685225719 -43.023225433266504 7.2365314554605416 #
point $-1 -46.247088685225719 43.023225433266504 7.2365314554605416 #
loop $-1 $-1 $204 $196 #
plane-surface $-1 0 43.023225433266504 0 0 -1 0 0 0 -1 forward_v I I I I #
coedge $-1 $299 $199 $201 $303 reversed $117 $-1 #
coedge $-1 $199 $298 $382 $383 reversed $117 $-1 #
coedge $-1 $207 $202 $199 $301 forward $197 $-1 #
edge $-1 $304 5.14493553206065 $384 22.0975616194726 $300 $385 forward 7 unknown #
coedge $-1 $201 $200 $307 $386 reversed $73 $-1 #
edge $-1 $387 -86.046450866533007 $304 -65.832761691038982 $298 $388 forward 7 unknown #
vertex $-1 $203 $389 #
straight-curve $-1 23.052935248682424 26.070599345854564 21.109045471605036 1 0 0 I I #
coedge $-1 $382 $204 $207 $311 reversed $296 $-1 #
coedge $-1 $204 $382 $302 $386 forward $296 $-1 #
vertex $-1 $205 $390 #
straight-curve $-1 31.27549736023775 43.023225433266504 83.141674821236819 0 0 1 I I #
straight-curve $-1 31.27549736023775 -29.141399985910454 56.964137741160144 0 0.83867056331134215 -0.54463904215088732 I I #
edge $-1 $384 -60.936243634491944 $208 -31.27549736023775 $306 $391 forward 7 unknown #
point $-1 31.27549736023775 43.023225433266504 21.10904547160504 #
point $-1 31.27549736023775 26.070599345854554 21.109045471605043 #
edge $-1 $392 1 $392 0 $211 $-1 forward 7 unknown #
vertex $-1 $212 $393 #
ellipse-curve $-1 39.749996295738953 32.789305836789779 12.897986615798901 0 0.54463904215088732 0.83867056331134215 1.5 0 0 1 I I #
point $-1 41.249996295738953 34.546912389560561 15.604463316166637 #
edge $-1 $394 1 $394 0 $215 $-1 forward 7 unknown #
vertex $-1 $216 $395 #
ellipse-curve $-1 52.461744698990756 32.789305836789779 12.897986615798901 0 0.54463904215088732 0.83867056331134215 1.5 0 0 1 I I #
point $-1 53.961744698990756 34.546912389560561 15.604463316166637 #
loop $-1 $-1 $228 $219 #
plane-surface $-1 65.174108096560559 0 0 -1 0 0 0 0 1 forward_v I I I I #
coedge $-1 $396 $222 $227 $330 forward $139 $-1 #
coedge $-1 $222 $396 $327 $397 reversed $139 $-1 #
edge $-1 $328 29.786753224718655 $335 47.479247925564636 $222 $398 forward 7 unknown #
coedge $-1 $231 $225 $325 $397 forward $220 $-1 #
vertex $-1 $397 $399 #
straight-curve $-1 47.500483099663256 -64.269675309756963 21.109045471605043 0 -1 0 I I #
edge $-1 $335 19.331835300607302 $333 37.005460297504605 $324 $400 forward 7 unknown #
coedge $-1 $332 $228 $231 $337 reversed $322 $-1 #
coedge $-1 $228 $331 $396 $401 forward $322 $-1 #
vertex $-1 $330 $402 #
straight-curve $-1 65.174108096560559 -31.61632566182028 13.332417673382009 0 0.75470957328743171 0.6560590369687036 I I #
vertex $-1 $330 $403 #
straight-curve $-1 47.500483099663256 -43.023225433266504 3.4165507707590592 0 0.75470957328743171 0.6560590369687036 I I #
edge $-1 $404 -43.023225433266504 $232 -22.670338919026491 $331 $405 forward 7 unknown #
point $-1 65.174108096560559 -22.670338919026491 21.10904547160504 #
point $-1 47.500483099663256 -22.670338919026491 21.10904547160504 #
edge $-1 $406 1 $406 0 $235 $-1 forward 7 unknown #
vertex $-1 $236 $407 #
ellipse-curve $-1 52.55009024163391 -29.799071903041842 8.7568085834931342 0 -0.6560590369687036 0.75470957328743171 1.5 0 0 1 I I #
point $-1 54.05009024163391 -32.846782176146512 12.262798121182058 #
edge $-1 $408 1 $408 0 $239 $-1 forward 7 unknown #
vertex $-1 $240 $409 #
ellipse-curve $-1 60.124500954589905 -29.799071903041842 8.7568085834931342 0 -0.6560590369687036 0.75470957328743171 1.5 0 0 1 I I #
point $-1 61.624500954589905 -32.846782176146512 12.262798121182058 #
plane-surface $-1 65.174108096560559 0 0 -1 0 0 0 0 1 forward_v I I I I #
coedge $-1 $248 $246 $250 $353 reversed $161 $-1 #
edge $-1 $261 -21.10904547160504 $355 21.10904547160504 $260 $410 forward 7 unknown #
vertex $-1 $353 $411 #
straight-curve $-1 -65.174108096560559 -43.023225433266504 0 0 0 -1 I I #
edge $-1 $351 -43.023225433266504 $355 43.023225433266504 $349 $412 forward 7 unknown #
straight-curve $-1 0 -43.023225433266504 -21.10904547160504 -1 0 0 I I #
vertex $-1 $253 $413 #
straight-curve $-1 0 43.023225433266504 -21.10904547160504 1 0 0 I I #
point $-1 65.174108096560559 43.023225433266504 -21.10904547160504 #
point $-1 65.174108096560559 -43.023225433266504 -21.10904547160504 #
straight-curve $-1 -65.174108096560559 0 21.10904547160504 0 -1 0 I I #
point $-1 -65.174108096560559 43.023225433266504 21.10904547160504 #
point $-1 -65.174108096560559 -43.023225433266504 21.10904547160504 #
straight-curve $-1 65.174108096560559 -43.023225433266504 0 0 0 -1 I I #
straight-curve $-1 65.174108096560559 43.023225433266504 0 0 0 -1 I I #
plane-surface $-1 0 43.023225433266504 0 0 -1 0 0 0 -1 forward_v I I I I #
coedge $-1 $375 $374 $276 $367 forward $271 $-1 #
straight-curve $-1 -46.247088685225719 -43.023225433266504 1.0693905221673905 0 0 1 I I #
edge $-1 $370 -43.023225433266504 $368 43.023225433266504 $365 $414 forward 7 unknown #
vertex $-1 $277 $415 #
straight-curve $-1 -27.85529919544657 -43.023225433266504 -2.9589693667909795 1 0 0 I I #
vertex $-1 $279 $416 #
straight-curve $-1 -27.85529919544657 43.023225433266504 -2.9589693667909795 -1 0 0 I I #
point $-1 -46.247088685225719 43.023225433266504 -2.9589693667909795 #
point $-1 -46.247088685225719 -43.023225433266504 -2.9589693667909795 #
coedge $-1 $365 $283 $286 $377 forward $271 $-1 #
coedge $-1 $283 $365 $290 $379 reversed $271 $-1 #
straight-curve $-1 -65.174108096560559 0 7.2365314554605416 0 1 0 I I #
edge $-1 $288 -7.2365314554605416 $370 2.9589693667909795 $286 $417 forward 7 unknown #
point $-1 -65.174108096560559 43.023225433266504 7.2365314554605416 #
edge $-1 $291 -7.2365314554605416 $368 2.9589693667909795 $375 $418 forward 7 unknown #
point $-1 -65.174108096560559 -43.023225433266504 7.2365314554605416 #
straight-curve $-1 -46.247088685225719 43.023225433266504 1.0693905221673905 0 0 -1 I I #
coedge $-1 $307 $306 $299 $383 forward $296 $-1 #
edge $-1 $384 62.032629349631776 $387 73.041793660508603 $382 $419 forward 7 unknown #
vertex $-1 $311 $420 #
straight-curve $-1 60.936243634491944 20.925663813793904 21.109045471605043 0 1 0 I I #
edge $-1 $387 -37.883308385809521 $308 -8.2225621115553267 $307 $421 forward 7 unknown #
vertex $-1 $386 $422 #
straight-curve $-1 60.936243634491944 -29.141399985910454 56.964137741160144 0 -0.83867056331134215 0.54463904215088732 I I #
point $-1 60.936243634491944 26.070599345854554 21.109045471605043 #
point $-1 31.27549736023775 43.023225433266504 10.099881160728216 #
straight-curve $-1 0 43.023225433266504 21.10904547160504 -1 0 0 I I #
vertex $-1 $314 $423 #
point $-1 41.249996295738953 32.789305836789779 12.897986615798901 #
vertex $-1 $318 $424 #
point $-1 53.961744698990756 32.789305836789779 12.897986615798901 #
coedge $-1 $325 $324 $332 $401 reversed $139 $-1 #
edge $-1 $328 47.500483099663256 $404 65.174108096560559 $325 $425 forward 7 unknown #
straight-curve $-1 47.500483099663256 -43.023225433266504 50.895798696323695 0 0 -1 I I #
point $-1 47.500483099663256 -43.023225433266504 21.10904547160504 #
straight-curve $-1 28.168647799055954 -43.023225433266504 3.4165507707590592 1 0 0 I I #
edge $-1 $404 -21.10904547160504 $333 -3.4165507707590592 $332 $426 forward 7 unknown #
point $-1 65.174108096560559 -43.023225433266504 3.4165507707590592 #
point $-1 47.500483099663256 -43.023225433266504 3.4165507707590592 #
vertex $-1 $337 $427 #
straight-curve $-1 65.174108096560559 0 21.10904547160504 0 1 0 I I #
vertex $-1 $340 $428 #
point $-1 54.05009024163391 -29.799071903041842 8.7568085834931342 #
vertex $-1 $344 $429 #
point $-1 61.624500954589905 -29.799071903041842 8.7568085834931342 #
straight-curve $-1 -65.174108096560559 43.023225433266504 0 0 0 -1 I I #
point $-1 -65.174108096560559 -43.023225433266504 -21.10904547160504 #
straight-curve $-1 -65.174108096560559 0 -21.10904547160504 0 1 0 I I #
point $-1 -65.174108096560559 43.023225433266504 -21.10904547160504 #
straight-curve $-1 -65.174108096560559 0 -2.9589693667909795 0 -1 0 I I #
point $-1 -65.174108096560559 -43.023225433266504 -2.9589693667909795 #
point $-1 -65.174108096560559 43.023225433266504 -2.9589693667909795 #
straight-curve $-1 -65.174108096560559 43.023225433266504 0 0 0 -1 I I #
straight-curve $-1 -65.174108096560559 -43.023225433266504 0 0 0 -1 I I #
straight-curve $-1 60.936243634491944 43.023225433266504 83.141674821236819 0 0 -1 I I #
point $-1 60.936243634491944 43.023225433266504 21.10904547160504 #
straight-curve $-1 23.052935248682424 43.023225433266497 10.09988116072822 -1 0 0 I I #
point $-1 60.936243634491944 43.023225433266504 10.099881160728216 #
point $-1 39.749996295738953 31.972347273563447 11.639980770831889 #
point $-1 52.461744698990756 31.972347273563447 11.639980770831889 #
straight-curve $-1 0 -43.023225433266504 21.10904547160504 1 0 0 I I #
straight-curve $-1 65.174108096560559 -43.023225433266504 0 0 0 -1 I I #
point $-1 65.174108096560559 -43.023225433266504 21.10904547160504 #
point $-1 52.55009024163391 -28.814983347588786 7.6247442235619873 #
point $-1 60.124500954589905 -28.814983347588786 7.6247442235619873 #
End-of-ACIS-data 