500 0 13 0           
7 Unknown 11 ACIS 5.0 NT 24 Thu Mar 25 16:13:29 1999 
-1 9.9999999999999995e-007 1e-010 
body $-1 $13 $-1 $14 #
body $-1 $15 $-1 $16 #
body $-1 $17 $-1 $18 #
body $-1 $19 $-1 $20 #
body $-1 $21 $-1 $22 #
body $-1 $23 $-1 $24 #
body $-1 $25 $-1 $26 #
body $-1 $27 $-1 $28 #
body $-1 $29 $-1 $30 #
body $-1 $31 $-1 $32 #
body $-1 $33 $-1 $34 #
body $-1 $35 $-1 $36 #
body $-1 $37 $-1 $38 #
lump $-1 $-1 $39 $0 #
transform $-1 1 0 0 0 1 0 0 0 1 68.102664265877252 39.842978736023845 12.461646399613647 1 rotate no_reflect no_shear #
lump $-1 $-1 $40 $1 #
transform $-1 1 0 0 0 1 0 0 0 1 68.102664265877252 39.842978736023845 12.461646399613647 1 rotate no_reflect no_shear #
lump $-1 $-1 $41 $2 #
transform $-1 1 0 0 0 1 0 0 0 1 68.102664265877252 39.842978736023845 12.461646399613647 1 rotate no_reflect no_shear #
lump $-1 $-1 $42 $3 #
transform $-1 1 0 0 0 1 0 0 0 1 68.102664265877252 39.842978736023845 12.461646399613647 1 rotate no_reflect no_shear #
lump $-1 $-1 $43 $4 #
transform $-1 1 0 0 0 1 0 0 0 1 68.102664265877252 39.842978736023845 12.461646399613647 1 rotate no_reflect no_shear #
lump $-1 $-1 $44 $5 #
transform $-1 1 0 0 0 1 0 0 0 1 68.102664265877252 39.842978736023845 12.461646399613647 1 rotate no_reflect no_shear #
lump $-1 $-1 $45 $6 #
transform $-1 1 0 0 0 1 0 0 0 1 68.102664265877252 39.842978736023845 12.461646399613647 1 rotate no_reflect no_shear #
lump $-1 $-1 $46 $7 #
transform $-1 1 0 0 0 1 0 0 0 1 68.102664265877252 39.842978736023845 12.461646399613647 1 rotate no_reflect no_shear #
lump $-1 $-1 $47 $8 #
transform $-1 1 0 0 0 1 0 0 0 1 68.102664265877252 39.842978736023845 12.461646399613647 1 rotate no_reflect no_shear #
lump $-1 $-1 $48 $9 #
transform $-1 1 0 0 0 1 0 0 0 1 68.102664265877252 39.842978736023845 12.461646399613647 1 rotate no_reflect no_shear #
lump $-1 $-1 $49 $10 #
transform $-1 1 0 0 0 1 0 0 0 1 68.102664265877252 39.842978736023845 12.461646399613647 1 rotate no_reflect no_shear #
lump $-1 $-1 $50 $11 #
transform $-1 1 0 0 0 1 0 0 0 1 68.102664265877252 39.842978736023845 12.461646399613647 1 rotate no_reflect no_shear #
lump $-1 $-1 $51 $12 #
transform $-1 1 0 0 0 1 0 0 0 1 68.102664265877252 39.842978736023845 12.461646399613647 1 rotate no_reflect no_shear #
shell $-1 $-1 $-1 $52 $-1 $13 #
shell $-1 $-1 $-1 $53 $-1 $15 #
shell $-1 $-1 $-1 $54 $-1 $17 #
shell $-1 $-1 $-1 $55 $-1 $19 #
shell $-1 $-1 $-1 $56 $-1 $21 #
shell $-1 $-1 $-1 $57 $-1 $23 #
shell $-1 $-1 $-1 $58 $-1 $25 #
shell $-1 $-1 $-1 $59 $-1 $27 #
shell $-1 $-1 $-1 $60 $-1 $29 #
shell $-1 $-1 $-1 $61 $-1 $31 #
shell $-1 $-1 $-1 $62 $-1 $33 #
shell $-1 $-1 $-1 $63 $-1 $35 #
shell $-1 $-1 $-1 $64 $-1 $37 #
face $-1 $65 $66 $39 $-1 $67 reversed single #
face $-1 $68 $69 $40 $-1 $70 forward single #
face $-1 $71 $72 $41 $-1 $73 reversed single #
face $-1 $74 $75 $42 $-1 $76 forward single #
face $-1 $77 $78 $43 $-1 $79 forward single #
face $-1 $80 $81 $44 $-1 $82 forward single #
face $-1 $83 $84 $45 $-1 $85 reversed single #
face $-1 $86 $87 $46 $-1 $88 forward single #
face $-1 $89 $90 $47 $-1 $91 forward single #
face $-1 $92 $93 $48 $-1 $94 forward single #
face $-1 $95 $96 $49 $-1 $97 reversed single #
face $-1 $98 $99 $50 $-1 $100 forward single #
face $-1 $101 $102 $51 $-1 $103 forward single #
face $-1 $104 $105 $39 $-1 $106 forward single #
loop $-1 $-1 $107 $52 #
plane-surface $-1 0 -39.842978736023845 0 0 1 0 0 0 1 forward_v I I I I #
face $-1 $108 $109 $40 $-1 $110 reversed single #
loop $-1 $-1 $111 $53 #
plane-surface $-1 0 -39.842978736023845 0 0 1 0 0 0 1 forward_v I I I I #
face $-1 $112 $113 $41 $-1 $114 reversed single #
loop $-1 $-1 $115 $54 #
plane-surface $-1 -181.02200030063165 -26.468920913019556 82.183867916987253 0 1 0 -0.82903758062907751 0 0.55919289150049634 forward_v I I I I #
face $-1 $116 $117 $42 $-1 $118 forward single #
loop $-1 $119 $120 $55 #
cone-surface $-1 -65.325212649151467 -23.924795984744208 8.8324371723378245 0.82903758062907751 0 -0.55919289150049634 0.55919289150049634 0 0.82903758062907751 1 I I 0 1 1 forward I I I I #
face $-1 $121 $122 $43 $-1 $123 forward single #
loop $-1 $124 $125 $56 #
cone-surface $-1 -65.325212649151467 -20.10860859233118 8.8324371723378245 0.82903758062907751 0 -0.55919289150049634 0.55919289150049634 0 0.82903758062907751 1 I I 0 1 1 forward I I I I #
face $-1 $126 $127 $44 $-1 $128 forward single #
loop $-1 $129 $130 $57 #
cone-surface $-1 -65.325212649151467 -16.292421199918152 8.8324371723378245 0.82903758062907751 0 -0.55919289150049634 0.55919289150049634 0 0.82903758062907751 1 I I 0 1 1 forward I I I I #
face $-1 $131 $132 $45 $-1 $133 reversed single #
loop $-1 $-1 $134 $58 #
plane-surface $-1 -181.02200030063165 6.687028911502142 82.183867916987253 0 1 0 -0.82903758062907751 0 0.55919289150049634 forward_v I I I I #
face $-1 $135 $136 $46 $-1 $137 forward single #
loop $-1 $138 $139 $59 #
cone-surface $-1 -65.325212649151467 9.231153839777491 8.8324371723378245 0.82903758062907751 0 -0.55919289150049634 0.55919289150049634 0 0.82903758062907751 1 I I 0 1 1 forward I I I I #
face $-1 $140 $141 $47 $-1 $142 forward single #
loop $-1 $143 $144 $60 #
cone-surface $-1 -65.325212649151467 13.047341232190519 8.8324371723378245 0.82903758062907751 0 -0.55919289150049634 0.55919289150049634 0 0.82903758062907751 1 I I 0 1 1 forward I I I I #
face $-1 $145 $146 $48 $-1 $147 forward single #
loop $-1 $148 $149 $61 #
cone-surface $-1 -65.325212649151467 16.863528624603546 8.8324371723378245 0.82903758062907751 0 -0.55919289150049634 0.55919289150049634 0 0.82903758062907751 1 I I 0 1 1 forward I I I I #
face $-1 $150 $151 $49 $-1 $152 reversed single #
loop $-1 $-1 $153 $62 #
plane-surface $-1 51.314428753467013 25.836281324526976 194.47046178188651 0 -1 0 -0.64278761758704617 0 -0.76604443648966558 forward_v I I I I #
face $-1 $154 $155 $50 $-1 $156 forward single #
loop $-1 $157 $158 $63 #
cone-surface $-1 61.264272739987078 12.259730162561304 6.3884750130475849 -0.64278761758704617 0 -0.76604443648966558 1.5320888729793312 0 -1.2855752351740923 1 I I 0 1 2 forward I I I I #
face $-1 $159 $160 $51 $-1 $161 forward single #
loop $-1 $162 $163 $64 #
cone-surface $-1 61.264272739987078 20.405660859740699 6.3884750130475849 -0.64278761758704617 0 -0.76604443648966558 1.5320888729793312 0 -1.2855752351740923 1 I I 0 1 2 forward I I I I #
face $-1 $164 $165 $39 $-1 $166 reversed single #
loop $-1 $-1 $167 $65 #
plane-surface $-1 0 0 12.461646399613647 0 0 1 1 0 0 forward_v I I I I #
coedge $-1 $168 $169 $170 $171 reversed $66 $-1 #
face $-1 $172 $173 $40 $-1 $174 reversed single #
loop $-1 $-1 $175 $68 #
plane-surface $-1 0 0 -12.461646399613647 0 0 1 1 0 0 forward_v I I I I #
coedge $-1 $176 $177 $178 $179 forward $69 $-1 #
face $-1 $180 $181 $41 $-1 $182 reversed single #
loop $-1 $-1 $183 $71 #
plane-surface $-1 -68.102664265877237 -20.10860859233118 6.0188164175403926 -0.82903758062907751 0 0.55919289150049634 0.55919289150049634 0 0.82903758062907751 forward_v I I I I #
coedge $-1 $184 $185 $186 $187 reversed $72 $-1 #
face $-1 $-1 $188 $42 $-1 $189 forward single #
loop $-1 $190 $191 $74 #
cone-surface $-1 -64.30611402217437 -23.924795984744208 8.1450464903483688 0.82903758062907751 0 -0.55919289150049634 0.27959644575024817 0 0.41451879031453875 1 I I -0.70710678118654746 0.70710678118654746 0.5 forward I I I I #
loop $-1 $-1 $192 $55 #
coedge $-1 $120 $120 $193 $194 reversed $75 $-1 #
face $-1 $-1 $195 $43 $-1 $196 forward single #
loop $-1 $197 $198 $77 #
cone-surface $-1 -64.30611402217437 -20.10860859233118 8.1450464903483688 0.82903758062907751 0 -0.55919289150049634 0.27959644575024817 0 0.41451879031453875 1 I I -0.70710678118654746 0.70710678118654746 0.5 forward I I I I #
loop $-1 $-1 $199 $56 #
coedge $-1 $125 $125 $200 $201 reversed $78 $-1 #
face $-1 $-1 $202 $44 $-1 $203 forward single #
loop $-1 $204 $205 $80 #
cone-surface $-1 -64.30611402217437 -16.292421199918152 8.1450464903483688 0.82903758062907751 0 -0.55919289150049634 0.27959644575024817 0 0.41451879031453875 1 I I -0.70710678118654746 0.70710678118654746 0.5 forward I I I I #
loop $-1 $-1 $206 $57 #
coedge $-1 $130 $130 $207 $208 reversed $81 $-1 #
face $-1 $209 $210 $45 $-1 $211 reversed single #
loop $-1 $-1 $212 $83 #
plane-surface $-1 -68.102664265877237 13.047341232190519 6.0188164175403926 -0.82903758062907751 0 0.55919289150049634 0.55919289150049634 0 0.82903758062907751 forward_v I I I I #
coedge $-1 $213 $214 $215 $216 reversed $84 $-1 #
face $-1 $-1 $217 $46 $-1 $218 forward single #
loop $-1 $219 $220 $86 #
cone-surface $-1 -64.30611402217437 9.231153839777491 8.1450464903483688 0.82903758062907751 0 -0.55919289150049634 0.27959644575024817 0 0.41451879031453875 1 I I -0.70710678118654746 0.70710678118654746 0.5 forward I I I I #
loop $-1 $-1 $221 $59 #
coedge $-1 $139 $139 $222 $223 reversed $87 $-1 #
face $-1 $-1 $224 $47 $-1 $225 forward single #
loop $-1 $226 $227 $89 #
cone-surface $-1 -64.30611402217437 13.047341232190519 8.1450464903483688 0.82903758062907751 0 -0.55919289150049634 0.27959644575024817 0 0.41451879031453875 1 I I -0.70710678118654746 0.70710678118654746 0.5 forward I I I I #
loop $-1 $-1 $228 $60 #
coedge $-1 $144 $144 $229 $230 reversed $90 $-1 #
face $-1 $-1 $231 $48 $-1 $232 forward single #
loop $-1 $233 $234 $92 #
cone-surface $-1 -64.30611402217437 16.863528624603546 8.1450464903483688 0.82903758062907751 0 -0.55919289150049634 0.27959644575024817 0 0.41451879031453875 1 I I -0.70710678118654746 0.70710678118654746 0.5 forward I I I I #
loop $-1 $-1 $235 $61 #
coedge $-1 $149 $149 $236 $237 reversed $93 $-1 #
face $-1 $238 $239 $49 $-1 $240 reversed single #
loop $-1 $-1 $241 $95 #
plane-surface $-1 -36.236669876120388 16.332695511151009 90.131127639888859 0.64278761758704617 0 0.76604443648966558 0.76604443648966558 0 -0.64278761758704617 forward_v I I I I #
coedge $-1 $242 $243 $244 $245 reversed $96 $-1 #
face $-1 $-1 $246 $50 $-1 $247 forward single #
loop $-1 $248 $249 $98 #
cone-surface $-1 59.671319985358309 12.259730162561304 4.4900678846479654 -0.64278761758704617 0 -0.76604443648966558 0.76604443648966558 0 -0.64278761758704617 1 I I -0.70710678118654746 0.70710678118654746 1 forward I I I I #
loop $-1 $-1 $250 $63 #
coedge $-1 $158 $158 $251 $252 reversed $99 $-1 #
face $-1 $-1 $253 $51 $-1 $254 forward single #
loop $-1 $255 $256 $101 #
cone-surface $-1 59.671319985358309 20.405660859740699 4.4900678846479654 -0.64278761758704617 0 -0.76604443648966558 0.76604443648966558 0 -0.64278761758704617 1 I I -0.70710678118654746 0.70710678118654746 1 forward I I I I #
loop $-1 $-1 $257 $64 #
coedge $-1 $163 $163 $258 $259 reversed $102 $-1 #
face $-1 $260 $261 $39 $-1 $262 reversed single #
loop $-1 $-1 $263 $104 #
plane-surface $-1 0 0 -12.461646399613647 0 0 1 1 0 0 forward_v I I I I #
coedge $-1 $264 $265 $266 $267 forward $105 $-1 #
coedge $-1 $268 $107 $269 $270 reversed $66 $-1 #
coedge $-1 $107 $268 $271 $272 forward $66 $-1 #
coedge $-1 $273 $263 $107 $171 forward $165 $-1 #
edge $-1 $274 -68.102664265877252 $275 68.102664265877252 $107 $276 forward 7 unknown #
face $-1 $277 $278 $40 $-1 $279 reversed single #
loop $-1 $-1 $280 $108 #
plane-surface $-1 -45.041259411185266 -53.217036559028138 0 0 1 0 0 0 1 forward_v I I I I #
coedge $-1 $281 $282 $177 $283 forward $109 $-1 #
coedge $-1 $284 $111 $285 $286 reversed $69 $-1 #
coedge $-1 $111 $284 $175 $283 reversed $69 $-1 #
coedge $-1 $287 $288 $111 $179 reversed $278 $-1 #
edge $-1 $289 -12.461646399613647 $290 12.461646399613647 $178 $291 forward 7 unknown #
face $-1 $292 $293 $41 $-1 $294 reversed single #
loop $-1 $-1 $295 $112 #
plane-surface $-1 -181.02200030063165 -13.748296271642804 82.183867916987253 0 -1 0 0.82903758062907751 0 -0.55919289150049634 forward_v I I I I #
coedge $-1 $296 $297 $298 $299 reversed $113 $-1 #
coedge $-1 $185 $115 $300 $301 reversed $72 $-1 #
coedge $-1 $115 $184 $296 $302 reversed $72 $-1 #
coedge $-1 $298 $303 $115 $187 forward $304 $-1 #
edge $-1 $305 22.408335884438571 $306 26.754079444565043 $186 $307 forward 7 unknown #
loop $-1 $-1 $193 $116 #
plane-surface $-1 -68.102664265877237 -20.10860859233118 6.0188164175403926 -0.82903758062907751 0 0.55919289150049634 0.55919289150049634 0 0.82903758062907751 forward_v I I I I #
loop $-1 $-1 $308 $74 #
coedge $-1 $191 $191 $192 $309 reversed $117 $-1 #
coedge $-1 $192 $192 $191 $309 forward $119 $-1 #
coedge $-1 $193 $193 $120 $194 forward $188 $-1 #
edge $-1 $310 0 $310 6.2831853071796004 $193 $311 forward 7 unknown #
loop $-1 $-1 $200 $121 #
plane-surface $-1 -68.102664265877237 -20.10860859233118 6.0188164175403926 -0.82903758062907751 0 0.55919289150049634 0.55919289150049634 0 0.82903758062907751 forward_v I I I I #
loop $-1 $-1 $312 $77 #
coedge $-1 $198 $198 $199 $313 reversed $122 $-1 #
coedge $-1 $199 $199 $198 $313 forward $124 $-1 #
coedge $-1 $200 $200 $125 $201 forward $195 $-1 #
edge $-1 $314 0 $314 6.2831853071796004 $200 $315 forward 7 unknown #
loop $-1 $-1 $207 $126 #
plane-surface $-1 -68.102664265877237 -20.10860859233118 6.0188164175403926 -0.82903758062907751 0 0.55919289150049634 0.55919289150049634 0 0.82903758062907751 forward_v I I I I #
loop $-1 $-1 $316 $80 #
coedge $-1 $205 $205 $206 $317 reversed $127 $-1 #
coedge $-1 $206 $206 $205 $317 forward $129 $-1 #
coedge $-1 $207 $207 $130 $208 forward $202 $-1 #
edge $-1 $318 0 $318 6.2831853071796004 $207 $319 forward 7 unknown #
face $-1 $320 $321 $45 $-1 $322 forward single #
loop $-1 $-1 $323 $131 #
plane-surface $-1 -181.02200030063165 19.407653552878894 82.183867916987253 0 -1 0 0.82903758062907751 0 -0.55919289150049634 forward_v I I I I #
coedge $-1 $324 $325 $326 $327 reversed $132 $-1 #
coedge $-1 $214 $134 $328 $329 reversed $84 $-1 #
coedge $-1 $134 $213 $324 $330 reversed $84 $-1 #
coedge $-1 $326 $331 $134 $216 forward $321 $-1 #
edge $-1 $332 22.408335884438571 $333 26.754079444565043 $215 $334 forward 7 unknown #
loop $-1 $-1 $222 $135 #
plane-surface $-1 -68.102664265877237 13.047341232190519 6.0188164175403926 -0.82903758062907751 0 0.55919289150049634 0.55919289150049634 0 0.82903758062907751 forward_v I I I I #
loop $-1 $-1 $335 $86 #
coedge $-1 $220 $220 $221 $336 reversed $136 $-1 #
coedge $-1 $221 $221 $220 $336 forward $138 $-1 #
coedge $-1 $222 $222 $139 $223 forward $217 $-1 #
edge $-1 $337 0 $337 6.2831853071796004 $222 $338 forward 7 unknown #
loop $-1 $-1 $229 $140 #
plane-surface $-1 -68.102664265877237 13.047341232190519 6.0188164175403926 -0.82903758062907751 0 0.55919289150049634 0.55919289150049634 0 0.82903758062907751 forward_v I I I I #
loop $-1 $-1 $339 $89 #
coedge $-1 $227 $227 $228 $340 reversed $141 $-1 #
coedge $-1 $228 $228 $227 $340 forward $143 $-1 #
coedge $-1 $229 $229 $144 $230 forward $224 $-1 #
edge $-1 $341 0 $341 6.2831853071796004 $229 $342 forward 7 unknown #
loop $-1 $-1 $236 $145 #
plane-surface $-1 -68.102664265877237 13.047341232190519 6.0188164175403926 -0.82903758062907751 0 0.55919289150049634 0.55919289150049634 0 0.82903758062907751 forward_v I I I I #
loop $-1 $-1 $343 $92 #
coedge $-1 $234 $234 $235 $344 reversed $146 $-1 #
coedge $-1 $235 $235 $234 $344 forward $148 $-1 #
coedge $-1 $236 $236 $149 $237 forward $231 $-1 #
edge $-1 $345 0 $345 6.2831853071796004 $236 $346 forward 7 unknown #
face $-1 $347 $348 $49 $-1 $349 forward single #
loop $-1 $-1 $350 $150 #
plane-surface $-1 51.314428753467013 6.8291096977750421 194.47046178188651 0 1 0 0.64278761758704617 0 0.76604443648966558 forward_v I I I I #
coedge $-1 $351 $352 $353 $354 reversed $151 $-1 #
coedge $-1 $243 $153 $355 $356 reversed $96 $-1 #
coedge $-1 $153 $242 $351 $357 reversed $96 $-1 #
coedge $-1 $353 $358 $153 $245 forward $348 $-1 #
edge $-1 $359 -42.445449889143745 $360 -30.66899711144687 $244 $361 forward 7 unknown #
loop $-1 $-1 $251 $154 #
plane-surface $-1 -36.236669876120388 16.332695511151009 90.131127639888859 0.64278761758704617 0 0.76604443648966558 0.76604443648966558 0 -0.64278761758704617 forward_v I I I I #
loop $-1 $-1 $362 $98 #
coedge $-1 $249 $249 $250 $363 reversed $155 $-1 #
coedge $-1 $250 $250 $249 $363 forward $157 $-1 #
coedge $-1 $251 $251 $158 $252 forward $246 $-1 #
edge $-1 $364 0 $364 6.2831853071796004 $251 $365 forward 7 unknown #
loop $-1 $-1 $258 $159 #
plane-surface $-1 -36.236669876120388 16.332695511151009 90.131127639888859 0.64278761758704617 0 0.76604443648966558 0.76604443648966558 0 -0.64278761758704617 forward_v I I I I #
loop $-1 $-1 $366 $101 #
coedge $-1 $256 $256 $257 $367 reversed $160 $-1 #
coedge $-1 $257 $257 $256 $367 forward $162 $-1 #
coedge $-1 $258 $258 $163 $259 forward $253 $-1 #
edge $-1 $368 0 $368 6.2831853071796004 $258 $369 forward 7 unknown #
face $-1 $370 $371 $39 $-1 $372 reversed single #
loop $-1 $-1 $373 $164 #
plane-surface $-1 -68.102664265877252 0 0 1 0 0 0 0 -1 forward_v I I I I #
coedge $-1 $170 $374 $375 $376 forward $165 $-1 #
coedge $-1 $377 $167 $378 $379 forward $105 $-1 #
coedge $-1 $167 $377 $268 $380 forward $105 $-1 #
coedge $-1 $269 $381 $167 $267 reversed $382 $-1 #
edge $-1 $383 -39.842978736023845 $384 39.842978736023845 $266 $385 forward 7 unknown #
coedge $-1 $169 $168 $265 $380 reversed $66 $-1 #
coedge $-1 $375 $266 $168 $270 forward $382 $-1 #
edge $-1 $383 -12.461646399613647 $274 12.461646399613647 $269 $386 forward 7 unknown #
coedge $-1 $387 $388 $169 $272 reversed $261 $-1 #
edge $-1 $389 -12.461646399613647 $275 12.461646399613647 $271 $390 forward 7 unknown #
coedge $-1 $374 $170 $388 $391 forward $165 $-1 #
vertex $-1 $270 $392 #
vertex $-1 $391 $393 #
straight-curve $-1 0 -39.842978736023845 -12.461646399613647 -1 0 0 I I #
face $-1 $394 $395 $40 $-1 $396 reversed single #
loop $-1 $-1 $178 $172 #
plane-surface $-1 -46.903147355720577 -46.530007647525991 0 1 0 0 0 0 -1 forward_v I I I I #
coedge $-1 $397 $398 $399 $400 forward $173 $-1 #
coedge $-1 $401 $175 $402 $403 forward $109 $-1 #
coedge $-1 $175 $401 $287 $404 forward $109 $-1 #
edge $-1 $289 -46.903147355720577 $405 -43.179371466649954 $175 $406 forward 7 unknown #
coedge $-1 $177 $176 $407 $408 forward $69 $-1 #
coedge $-1 $409 $410 $176 $286 forward $411 $-1 #
edge $-1 $412 43.179371466649954 $290 46.903147355720577 $285 $413 forward 7 unknown #
coedge $-1 $399 $178 $282 $404 reversed $278 $-1 #
coedge $-1 $178 $399 $409 $414 reversed $278 $-1 #
vertex $-1 $283 $415 #
vertex $-1 $414 $416 #
straight-curve $-1 -46.903147355720577 -39.842978736023845 0 0 0 1 I I #
face $-1 $-1 $304 $41 $-1 $417 forward single #
loop $-1 $-1 $418 $180 #
plane-surface $-1 -68.102664265877252 0 0 1 0 0 0 0 -1 forward_v I I I I #
coedge $-1 $419 $420 $421 $422 reversed $181 $-1 #
coedge $-1 $423 $183 $185 $302 forward $113 $-1 #
coedge $-1 $183 $423 $419 $424 forward $113 $-1 #
coedge $-1 $421 $186 $183 $299 forward $304 $-1 #
edge $-1 $306 -16.414616616853966 $425 -3.6939919754772141 $298 $426 forward 7 unknown #
coedge $-1 $427 $428 $184 $301 forward $293 $-1 #
edge $-1 $429 -35.073117540953255 $305 -28.630287558879978 $300 $430 forward 7 unknown #
edge $-1 $306 -7.771457087849269 $429 2.5618607856530852e-014 $185 $431 forward 7 unknown #
coedge $-1 $186 $421 $427 $432 forward $304 $-1 #
loop $-1 $-1 $421 $292 #
vertex $-1 $301 $433 #
vertex $-1 $187 $434 #
straight-curve $-1 -90.511000150315823 -26.468920913019556 12.461646399613649 1 0 0 I I #
coedge $-1 $308 $308 $-1 $435 reversed $190 $-1 #
edge $-1 $436 0 $436 6.2831853071796004 $191 $437 forward 7 unknown #
vertex $-1 $194 $438 #
ellipse-curve $-1 -65.929792485814005 -23.924795984744208 9.240231408577019 -0.82903758062907751 0 0.55919289150049634 0.55919289150049634 0 0.82903758062907751 1 I I #
coedge $-1 $312 $312 $-1 $439 reversed $197 $-1 #
edge $-1 $440 0 $440 6.2831853071796004 $198 $441 forward 7 unknown #
vertex $-1 $201 $442 #
ellipse-curve $-1 -65.929792485814005 -20.10860859233118 9.240231408577019 -0.82903758062907751 0 0.55919289150049634 0.55919289150049634 0 0.82903758062907751 1 I I #
coedge $-1 $316 $316 $-1 $443 reversed $204 $-1 #
edge $-1 $444 0 $444 6.2831853071796004 $205 $445 forward 7 unknown #
vertex $-1 $208 $446 #
ellipse-curve $-1 -65.929792485814005 -16.292421199918152 9.240231408577019 -0.82903758062907751 0 0.55919289150049634 0.55919289150049634 0 0.82903758062907751 1 I I #
face $-1 $-1 $447 $45 $-1 $448 reversed single #
loop $-1 $-1 $215 $209 #
plane-surface $-1 0 0 12.461646399613647 0 0 1 1 0 0 forward_v I I I I #
coedge $-1 $449 $450 $451 $452 reversed $210 $-1 #
coedge $-1 $453 $212 $214 $330 forward $132 $-1 #
coedge $-1 $212 $453 $449 $454 forward $132 $-1 #
coedge $-1 $451 $215 $212 $327 forward $321 $-1 #
edge $-1 $333 0.16335829540688263 $455 12.883982936783635 $326 $456 forward 7 unknown #
coedge $-1 $457 $458 $213 $329 forward $447 $-1 #
edge $-1 $459 -35.073117540953255 $332 -28.630287558879978 $328 $460 forward 7 unknown #
edge $-1 $333 -7.771457087849269 $459 2.5618607856530852e-014 $214 $461 forward 7 unknown #
coedge $-1 $215 $451 $457 $462 forward $321 $-1 #
vertex $-1 $216 $463 #
vertex $-1 $216 $464 #
straight-curve $-1 -90.511000150315823 6.687028911502142 12.461646399613649 1 0 0 I I #
coedge $-1 $335 $335 $-1 $465 reversed $219 $-1 #
edge $-1 $466 0 $466 6.2831853071796004 $220 $467 forward 7 unknown #
vertex $-1 $223 $468 #
ellipse-curve $-1 -65.929792485814005 9.231153839777491 9.240231408577019 -0.82903758062907751 0 0.55919289150049634 0.55919289150049634 0 0.82903758062907751 1 I I #
coedge $-1 $339 $339 $-1 $469 reversed $226 $-1 #
edge $-1 $470 0 $470 6.2831853071796004 $227 $471 forward 7 unknown #
vertex $-1 $230 $472 #
ellipse-curve $-1 -65.929792485814005 13.047341232190519 9.240231408577019 -0.82903758062907751 0 0.55919289150049634 0.55919289150049634 0 0.82903758062907751 1 I I #
coedge $-1 $343 $343 $-1 $473 reversed $233 $-1 #
edge $-1 $474 0 $474 6.2831853071796004 $234 $475 forward 7 unknown #
vertex $-1 $237 $476 #
ellipse-curve $-1 -65.929792485814005 16.863528624603546 9.240231408577019 -0.82903758062907751 0 0.55919289150049634 0.55919289150049634 0 0.82903758062907751 1 I I #
face $-1 $-1 $477 $49 $-1 $478 reversed single #
loop $-1 $-1 $244 $238 #
plane-surface $-1 0 0 12.461646399613647 0 0 1 1 0 0 forward_v I I I I #
coedge $-1 $479 $480 $481 $482 reversed $239 $-1 #
coedge $-1 $483 $241 $243 $357 forward $151 $-1 #
coedge $-1 $241 $483 $479 $484 forward $151 $-1 #
coedge $-1 $481 $244 $241 $354 forward $348 $-1 #
edge $-1 $360 -17.669933568951471 $485 1.3372380578004623 $353 $486 forward 7 unknown #
coedge $-1 $487 $488 $242 $356 forward $477 $-1 #
edge $-1 $489 -94.655201880641798 $359 -84.773584491329615 $355 $490 forward 7 unknown #
edge $-1 $360 120.83226110023384 $489 136.2053285317545 $243 $491 forward 7 unknown #
coedge $-1 $244 $481 $487 $492 forward $348 $-1 #
vertex $-1 $245 $493 #
vertex $-1 $245 $494 #
straight-curve $-1 25.657214376733506 25.836281324526976 12.461646399613642 -1 0 0 I I #
coedge $-1 $362 $362 $-1 $495 reversed $248 $-1 #
edge $-1 $496 0 $496 6.2831853071796004 $249 $497 forward 7 unknown #
vertex $-1 $252 $498 #
ellipse-curve $-1 62.214437877028814 12.259730162561304 7.5208377049575548 0.64278761758704617 0 0.76604443648966558 1.5320888729793312 0 -1.2855752351740923 1 I I #
coedge $-1 $366 $366 $-1 $499 reversed $255 $-1 #
edge $-1 $500 0 $500 6.2831853071796004 $256 $501 forward 7 unknown #
vertex $-1 $259 $502 #
ellipse-curve $-1 62.214437877028814 20.405660859740699 7.5208377049575548 0.64278761758704617 0 0.76604443648966558 1.5320888729793312 0 -1.2855752351740923 1 I I #
face $-1 $-1 $382 $39 $-1 $503 reversed single #
loop $-1 $-1 $504 $260 #
plane-surface $-1 0 39.842978736023845 0 0 -1 0 0 0 -1 forward_v I I I I #
coedge $-1 $388 $387 $505 $506 forward $261 $-1 #
coedge $-1 $263 $273 $507 $508 forward $165 $-1 #
coedge $-1 $381 $269 $263 $376 reversed $382 $-1 #
edge $-1 $509 -39.842978736023845 $274 39.842978736023845 $375 $510 forward 7 unknown #
coedge $-1 $265 $264 $387 $511 forward $105 $-1 #
coedge $-1 $504 $505 $264 $379 reversed $371 $-1 #
edge $-1 $384 -68.102664265877252 $512 68.102664265877252 $378 $513 forward 7 unknown #
edge $-1 $389 -68.102664265877252 $383 68.102664265877252 $268 $514 forward 7 unknown #
coedge $-1 $266 $375 $504 $515 reversed $382 $-1 #
loop $-1 $-1 $269 $370 #
vertex $-1 $267 $516 #
vertex $-1 $267 $517 #
straight-curve $-1 68.102664265877252 0 12.461646399613647 0 1 0 I I #
straight-curve $-1 68.102664265877252 -39.842978736023845 0 0 0 -1 I I #
coedge $-1 $373 $271 $377 $511 reversed $261 $-1 #
coedge $-1 $271 $373 $273 $391 reversed $261 $-1 #
vertex $-1 $511 $518 #
straight-curve $-1 -68.102664265877252 -39.842978736023845 0 0 0 -1 I I #
edge $-1 $275 -39.842978736023845 $519 39.842978736023845 $388 $520 forward 7 unknown #
point $-1 68.102664265877252 -39.842978736023845 -12.461646399613647 #
point $-1 -68.102664265877252 -39.842978736023845 -12.461646399613647 #
face $-1 $-1 $411 $40 $-1 $521 forward single #
loop $-1 $-1 $522 $277 #
plane-surface $-1 -43.179371466649954 -46.530007647525991 0 -1 0 0 0 0 1 forward_v I I I I #
coedge $-1 $523 $280 $401 $524 reversed $173 $-1 #
coedge $-1 $280 $523 $525 $526 reversed $173 $-1 #
coedge $-1 $288 $287 $280 $400 reversed $278 $-1 #
edge $-1 $527 -12.461646399613647 $528 12.461646399613647 $399 $529 forward 7 unknown #
coedge $-1 $282 $281 $397 $524 forward $109 $-1 #
coedge $-1 $407 $522 $281 $403 reversed $395 $-1 #
edge $-1 $405 -6.6870289115021464 $530 6.6870289115021464 $402 $531 forward 7 unknown #
edge $-1 $528 -6.6870289115021464 $289 6.6870289115021464 $287 $532 forward 7 unknown #
vertex $-1 $403 $533 #
straight-curve $-1 0 -39.842978736023845 -12.461646399613647 1 0 0 I I #
coedge $-1 $534 $402 $284 $408 reversed $395 $-1 #
edge $-1 $412 -12.461646399613647 $405 12.461646399613647 $407 $535 forward 7 unknown #
coedge $-1 $525 $285 $288 $414 forward $411 $-1 #
coedge $-1 $285 $525 $534 $536 forward $411 $-1 #
loop $-1 $-1 $285 $394 #
vertex $-1 $286 $537 #
straight-curve $-1 0 -39.842978736023845 12.461646399613647 -1 0 0 I I #
edge $-1 $290 -6.6870289115021464 $527 6.6870289115021464 $288 $538 forward 7 unknown #
point $-1 -46.903147355720577 -39.842978736023845 -12.461646399613647 #
point $-1 -46.903147355720577 -39.842978736023845 12.461646399613647 #
plane-surface $-1 0 0 12.461646399613647 0 0 1 1 0 0 forward_v I I I I #
coedge $-1 $428 $427 $420 $539 forward $293 $-1 #
coedge $-1 $420 $295 $297 $424 reversed $181 $-1 #
coedge $-1 $295 $419 $418 $539 reversed $181 $-1 #
coedge $-1 $303 $298 $295 $422 forward $304 $-1 #
edge $-1 $425 -26.754079444565043 $540 -22.408335884438571 $421 $541 forward 7 unknown #
coedge $-1 $297 $296 $428 $542 reversed $113 $-1 #
edge $-1 $543 -2.5618607856530852e-014 $425 7.771457087849269 $419 $544 forward 7 unknown #
vertex $-1 $299 $545 #
straight-curve $-1 -63.756920705750773 -10.05430429616559 12.461646399613645 0 1 0 I I #
coedge $-1 $418 $300 $303 $432 reversed $293 $-1 #
coedge $-1 $300 $418 $423 $542 forward $293 $-1 #
vertex $-1 $301 $546 #
straight-curve $-1 -68.102664265877252 -26.468920913019556 41.091933958493627 0 0 1 I I #
straight-curve $-1 -68.102664265877237 -26.468920913019556 6.0188164175403926 -0.55919289150049634 0 -0.82903758062907751 I I #
edge $-1 $540 13.748296271642804 $305 26.468920913019556 $427 $547 forward 7 unknown #
point $-1 -68.102664265877252 -26.468920913019556 12.461646399613647 #
point $-1 -63.75692070575078 -26.468920913019556 12.461646399613647 #
edge $-1 $548 1 $548 0 $308 $-1 forward 7 unknown #
vertex $-1 $309 $549 #
ellipse-curve $-1 -64.720632812488915 -23.924795984744208 8.4246429360986177 -0.82903758062907751 0 0.55919289150049634 0.55919289150049634 0 0.82903758062907751 1 I I #
point $-1 -65.370599594313532 -23.924795984744208 10.06926898920611 #
edge $-1 $550 1 $550 0 $312 $-1 forward 7 unknown #
vertex $-1 $313 $551 #
ellipse-curve $-1 -64.720632812488915 -20.10860859233118 8.4246429360986177 -0.82903758062907751 0 0.55919289150049634 0.55919289150049634 0 0.82903758062907751 1 I I #
point $-1 -65.370599594313532 -20.10860859233118 10.06926898920611 #
edge $-1 $552 1 $552 0 $316 $-1 forward 7 unknown #
vertex $-1 $317 $553 #
ellipse-curve $-1 -64.720632812488915 -16.292421199918152 8.4246429360986177 -0.82903758062907751 0 0.55919289150049634 0.55919289150049634 0 0.82903758062907751 1 I I #
point $-1 -65.370599594313532 -16.292421199918152 10.06926898920611 #
loop $-1 $-1 $328 $320 #
plane-surface $-1 -68.102664265877252 0 0 1 0 0 0 0 -1 forward_v I I I I #
coedge $-1 $450 $323 $325 $454 reversed $210 $-1 #
coedge $-1 $323 $449 $554 $555 reversed $210 $-1 #
coedge $-1 $331 $326 $323 $452 forward $321 $-1 #
edge $-1 $455 -26.754079444565043 $556 -22.408335884438571 $451 $557 forward 7 unknown #
coedge $-1 $325 $324 $458 $558 reversed $132 $-1 #
edge $-1 $559 -2.5618607856530852e-014 $455 7.771457087849269 $449 $560 forward 7 unknown #
vertex $-1 $327 $561 #
straight-curve $-1 -63.756920705750773 6.5236706160952593 12.461646399613645 0 1 0 I I #
coedge $-1 $554 $328 $331 $462 reversed $447 $-1 #
coedge $-1 $328 $554 $453 $558 forward $447 $-1 #
vertex $-1 $329 $562 #
straight-curve $-1 -68.102664265877252 6.687028911502142 41.091933958493627 0 0 1 I I #
straight-curve $-1 -68.102664265877237 6.687028911502142 6.0188164175403926 -0.55919289150049634 0 -0.82903758062907751 I I #
edge $-1 $556 -19.407653552878894 $332 -6.687028911502142 $457 $563 forward 7 unknown #
point $-1 -68.102664265877252 6.687028911502142 12.461646399613647 #
point $-1 -63.75692070575078 6.687028911502142 12.461646399613647 #
edge $-1 $564 1 $564 0 $335 $-1 forward 7 unknown #
vertex $-1 $336 $565 #
ellipse-curve $-1 -64.720632812488915 9.231153839777491 8.4246429360986177 -0.82903758062907751 0 0.55919289150049634 0.55919289150049634 0 0.82903758062907751 1 I I #
point $-1 -65.370599594313532 9.231153839777491 10.06926898920611 #
edge $-1 $566 1 $566 0 $339 $-1 forward 7 unknown #
vertex $-1 $340 $567 #
ellipse-curve $-1 -64.720632812488915 13.047341232190519 8.4246429360986177 -0.82903758062907751 0 0.55919289150049634 0.55919289150049634 0 0.82903758062907751 1 I I #
point $-1 -65.370599594313532 13.047341232190519 10.06926898920611 #
edge $-1 $568 1 $568 0 $343 $-1 forward 7 unknown #
vertex $-1 $344 $569 #
ellipse-curve $-1 -64.720632812488915 16.863528624603546 8.4246429360986177 -0.82903758062907751 0 0.55919289150049634 0.55919289150049634 0 0.82903758062907751 1 I I #
point $-1 -65.370599594313532 16.863528624603546 10.06926898920611 #
loop $-1 $-1 $355 $347 #
plane-surface $-1 68.102664265877252 0 0 -1 0 0 0 0 1 forward_v I I I I #
coedge $-1 $480 $350 $352 $484 reversed $239 $-1 #
coedge $-1 $350 $479 $570 $571 reversed $239 $-1 #
coedge $-1 $358 $353 $350 $482 forward $348 $-1 #
edge $-1 $485 30.66899711144687 $572 42.445449889143745 $481 $573 forward 7 unknown #
coedge $-1 $352 $351 $488 $574 reversed $151 $-1 #
edge $-1 $575 -136.2053285317545 $485 -120.83226110023384 $479 $576 forward 7 unknown #
vertex $-1 $354 $577 #
straight-curve $-1 56.326211488180348 8.1663477555755044 12.461646399613663 0 -1 0 I I #
coedge $-1 $570 $355 $358 $492 reversed $477 $-1 #
coedge $-1 $355 $570 $483 $574 forward $477 $-1 #
vertex $-1 $356 $578 #
straight-curve $-1 68.102664265877252 25.836281324526976 97.235230890943257 0 0 1 I I #
straight-curve $-1 -36.236669876120388 25.836281324526976 90.131127639888859 0.76604443648966558 0 -0.64278761758704617 I I #
edge $-1 $572 6.8291096977750421 $359 25.836281324526976 $487 $579 forward 7 unknown #
point $-1 68.102664265877252 25.836281324526976 12.461646399613647 #
point $-1 56.326211488180377 25.836281324526976 12.461646399613642 #
edge $-1 $580 1 $580 0 $362 $-1 forward 7 unknown #
vertex $-1 $363 $581 #
ellipse-curve $-1 60.314107602945356 12.259730162561304 5.256112321137631 0.64278761758704617 0 0.76604443648966558 1.5320888729793312 0 -1.2855752351740923 1 I I #
point $-1 63.746526750008137 12.259730162561304 6.2352624697834456 #
edge $-1 $582 1 $582 0 $366 $-1 forward 7 unknown #
vertex $-1 $367 $583 #
ellipse-curve $-1 60.314107602945356 20.405660859740699 5.256112321137631 0.64278761758704617 0 0.76604443648966558 1.5320888729793312 0 -1.2855752351740923 1 I I #
point $-1 63.746526750008137 20.405660859740699 6.2352624697834456 #
plane-surface $-1 68.102664265877252 0 0 -1 0 0 0 0 1 forward_v I I I I #
coedge $-1 $507 $378 $381 $515 forward $371 $-1 #
coedge $-1 $378 $507 $373 $506 reversed $371 $-1 #
edge $-1 $512 -12.461646399613647 $519 12.461646399613647 $505 $584 forward 7 unknown #
coedge $-1 $505 $504 $374 $508 reversed $371 $-1 #
edge $-1 $519 -68.102664265877252 $509 68.102664265877252 $507 $585 forward 7 unknown #
vertex $-1 $376 $586 #
straight-curve $-1 68.102664265877252 0 -12.461646399613647 0 -1 0 I I #
edge $-1 $512 -39.842978736023845 $389 39.842978736023845 $387 $587 forward 7 unknown #
vertex $-1 $379 $588 #
straight-curve $-1 0 39.842978736023845 12.461646399613647 -1 0 0 I I #
straight-curve $-1 0 -39.842978736023845 12.461646399613647 1 0 0 I I #
edge $-1 $384 -12.461646399613647 $509 12.461646399613647 $381 $589 forward 7 unknown #
point $-1 68.102664265877252 -39.842978736023845 12.461646399613647 #
point $-1 68.102664265877252 39.842978736023845 12.461646399613647 #
point $-1 -68.102664265877252 -39.842978736023845 12.461646399613647 #
vertex $-1 $508 $590 #
straight-curve $-1 -68.102664265877252 0 -12.461646399613647 0 1 0 I I #
plane-surface $-1 0 0 12.461646399613647 0 0 1 1 0 0 forward_v I I I I #
coedge $-1 $402 $534 $523 $591 forward $395 $-1 #
coedge $-1 $398 $397 $522 $591 reversed $173 $-1 #
edge $-1 $530 -1.8618879445353116 $528 1.8618879445353116 $397 $592 forward 7 unknown #
coedge $-1 $410 $409 $398 $526 forward $411 $-1 #
edge $-1 $527 -1.8618879445353116 $593 1.8618879445353116 $398 $594 forward 7 unknown #
vertex $-1 $414 $595 #
vertex $-1 $404 $596 #
straight-curve $-1 -46.903147355720577 -53.217036559028138 0 0 0 -1 I I #
vertex $-1 $591 $597 #
straight-curve $-1 -43.179371466649954 -46.530007647525991 -12.461646399613647 0 -1 0 I I #
straight-curve $-1 -46.903147355720577 -46.530007647525991 -12.461646399613647 0 1 0 I I #
point $-1 -43.179371466649954 -39.842978736023845 -12.461646399613647 #
coedge $-1 $522 $407 $410 $536 reversed $395 $-1 #
straight-curve $-1 -43.179371466649954 -39.842978736023845 0 0 0 -1 I I #
edge $-1 $593 -6.6870289115021464 $412 6.6870289115021464 $534 $598 forward 7 unknown #
point $-1 -43.179371466649954 -39.842978736023845 12.461646399613647 #
straight-curve $-1 -46.903147355720577 -46.530007647525991 12.461646399613647 0 -1 0 I I #
edge $-1 $540 28.630287558879978 $543 35.073117540953255 $418 $599 forward 7 unknown #
vertex $-1 $432 $600 #
straight-curve $-1 -90.511000150315823 -13.748296271642804 12.461646399613649 -1 0 0 I I #
edge $-1 $543 3.6939919754772141 $429 16.414616616853966 $428 $601 forward 7 unknown #
vertex $-1 $542 $602 #
straight-curve $-1 -68.102664265877237 -13.748296271642804 6.0188164175403926 0.55919289150049634 0 0.82903758062907751 I I #
point $-1 -63.75692070575078 -13.748296271642804 12.461646399613647 #
point $-1 -68.102664265877252 -26.468920913019556 6.0188164175403713 #
straight-curve $-1 -68.102664265877252 0 12.461646399613647 0 -1 0 I I #
vertex $-1 $435 $603 #
point $-1 -64.161439920988414 -23.924795984744208 9.2536805167276945 #
vertex $-1 $439 $604 #
point $-1 -64.161439920988414 -20.10860859233118 9.2536805167276945 #
vertex $-1 $443 $605 #
point $-1 -64.161439920988414 -16.292421199918152 9.2536805167276945 #
coedge $-1 $458 $457 $450 $555 forward $447 $-1 #
edge $-1 $556 28.630287558879978 $559 35.073117540953255 $554 $606 forward 7 unknown #
vertex $-1 $462 $607 #
straight-curve $-1 -90.511000150315823 19.407653552878894 12.461646399613649 -1 0 0 I I #
edge $-1 $559 -12.883982936783635 $459 -0.16335829540688263 $458 $608 forward 7 unknown #
vertex $-1 $558 $609 #
straight-curve $-1 -68.102664265877237 19.407653552878894 6.0188164175403926 0.55919289150049634 0 0.82903758062907751 I I #
point $-1 -63.75692070575078 19.407653552878894 12.461646399613647 #
point $-1 -68.102664265877252 6.687028911502142 6.0188164175403713 #
straight-curve $-1 -68.102664265877252 0 12.461646399613647 0 -1 0 I I #
vertex $-1 $465 $610 #
point $-1 -64.161439920988414 9.231153839777491 9.2536805167276945 #
vertex $-1 $469 $611 #
point $-1 -64.161439920988414 13.047341232190519 9.2536805167276945 #
vertex $-1 $473 $612 #
point $-1 -64.161439920988414 16.863528624603546 9.2536805167276945 #
coedge $-1 $488 $487 $480 $571 forward $477 $-1 #
edge $-1 $572 84.773584491329615 $575 94.655201880641798 $570 $613 forward 7 unknown #
vertex $-1 $492 $614 #
straight-curve $-1 25.657214376733506 6.8291096977750421 12.461646399613642 1 0 0 I I #
edge $-1 $575 -1.3372380578004623 $489 17.669933568951471 $488 $615 forward 7 unknown #
vertex $-1 $574 $616 #
straight-curve $-1 -36.236669876120388 6.8291096977750421 90.131127639888859 -0.76604443648966558 0 0.64278761758704617 I I #
point $-1 56.326211488180377 6.8291096977750421 12.461646399613642 #
point $-1 68.102664265877266 25.836281324526976 2.5800290103014589 #
straight-curve $-1 68.102664265877252 0 12.461646399613647 0 1 0 I I #
vertex $-1 $495 $617 #
point $-1 61.846196475924685 12.259730162561304 3.9705370859635387 #
vertex $-1 $499 $618 #
point $-1 61.846196475924685 20.405660859740699 3.9705370859635387 #
straight-curve $-1 -68.102664265877252 39.842978736023845 0 0 0 -1 I I #
straight-curve $-1 0 39.842978736023845 -12.461646399613647 1 0 0 I I #
point $-1 68.102664265877252 39.842978736023845 -12.461646399613647 #
straight-curve $-1 -68.102664265877252 0 12.461646399613647 0 -1 0 I I #
point $-1 -68.102664265877252 39.842978736023845 12.461646399613647 #
straight-curve $-1 68.102664265877252 39.842978736023845 0 0 0 -1 I I #
point $-1 -68.102664265877252 39.842978736023845 -12.461646399613647 #
edge $-1 $593 -12.461646399613647 $530 12.461646399613647 $522 $619 forward 7 unknown #
straight-curve $-1 -45.041259411185266 -53.217036559028138 -12.461646399613647 -1 0 0 I I #
vertex $-1 $536 $620 #
straight-curve $-1 -45.041259411185266 -53.217036559028138 12.461646399613647 1 0 0 I I #
point $-1 -46.903147355720577 -53.217036559028138 12.461646399613647 #
point $-1 -46.903147355720577 -53.217036559028138 -12.461646399613647 #
point $-1 -43.179371466649954 -53.217036559028138 -12.461646399613647 #
straight-curve $-1 -43.179371466649954 -46.530007647525991 12.461646399613647 0 1 0 I I #
straight-curve $-1 -68.102664265877252 -13.748296271642804 41.091933958493627 0 0 -1 I I #
point $-1 -68.102664265877252 -13.748296271642804 12.461646399613647 #
straight-curve $-1 -68.102664265877252 -10.05430429616559 6.0188164175403802 0 -1 0 I I #
point $-1 -68.102664265877252 -13.748296271642804 6.0188164175403713 #
point $-1 -63.891595231859831 -23.924795984744208 7.8654500445981208 #
point $-1 -63.891595231859831 -20.10860859233118 7.8654500445981208 #
point $-1 -63.891595231859831 -16.292421199918152 7.8654500445981208 #
straight-curve $-1 -68.102664265877252 19.407653552878894 41.091933958493627 0 0 -1 I I #
point $-1 -68.102664265877252 19.407653552878894 12.461646399613647 #
straight-curve $-1 -68.102664265877252 6.5236706160952593 6.0188164175403802 0 -1 0 I I #
point $-1 -68.102664265877252 19.407653552878894 6.0188164175403713 #
point $-1 -63.891595231859831 9.231153839777491 7.8654500445981208 #
point $-1 -63.891595231859831 13.047341232190519 7.8654500445981208 #
point $-1 -63.891595231859831 16.863528624603546 7.8654500445981208 #
straight-curve $-1 68.102664265877252 6.8291096977750421 97.235230890943257 0 0 -1 I I #
point $-1 68.102664265877252 6.8291096977750421 12.461646399613647 #
straight-curve $-1 68.102664265877252 8.1663477555755044 2.580029010301466 0 1 0 I I #
point $-1 68.102664265877266 6.8291096977750421 2.5800290103014589 #
point $-1 59.028532367771263 12.259730162561304 3.7240234481582997 #
point $-1 59.028532367771263 20.405660859740699 3.7240234481582997 #
straight-curve $-1 -43.179371466649954 -53.217036559028138 0 0 0 -1 I I #
point $-1 -43.179371466649954 -53.217036559028138 12.461646399613647 #
End-of-ACIS-data 