500 0 11 0           
7 Unknown 11 ACIS 5.0 NT 24 Fri Mar 26 15:30:39 1999 
-1 9.9999999999999995e-007 1e-010 
body $-1 $11 $-1 $12 #
body $-1 $13 $-1 $14 #
body $-1 $15 $-1 $16 #
body $-1 $17 $-1 $18 #
body $-1 $19 $-1 $20 #
body $-1 $21 $-1 $22 #
body $-1 $23 $-1 $24 #
body $-1 $25 $-1 $26 #
body $-1 $27 $-1 $28 #
body $-1 $29 $-1 $30 #
body $-1 $31 $-1 $32 #
lump $-1 $-1 $33 $0 #
transform $-1 1 0 0 0 1 0 0 0 1 52.794579912717062 25.078029662998357 9.7486468286815349 1 rotate no_reflect no_shear #
lump $-1 $-1 $34 $1 #
transform $-1 1 0 0 0 1 0 0 0 1 52.794579912717062 25.078029662998357 9.7486468286815349 1 rotate no_reflect no_shear #
lump $-1 $-1 $35 $2 #
transform $-1 1 0 0 0 1 0 0 0 1 52.794579912717062 25.078029662998357 9.7486468286815349 1 rotate no_reflect no_shear #
lump $-1 $-1 $36 $3 #
transform $-1 1 0 0 0 1 0 0 0 1 52.794579912717062 25.078029662998357 9.7486468286815349 1 rotate no_reflect no_shear #
lump $-1 $-1 $37 $4 #
transform $-1 1 0 0 0 1 0 0 0 1 52.794579912717062 25.078029662998357 9.7486468286815349 1 rotate no_reflect no_shear #
lump $-1 $-1 $38 $5 #
transform $-1 1 0 0 0 1 0 0 0 1 52.794579912717062 25.078029662998357 9.7486468286815349 1 rotate no_reflect no_shear #
lump $-1 $-1 $39 $6 #
transform $-1 1 0 0 0 1 0 0 0 1 52.794579912717062 25.078029662998357 9.7486468286815349 1 rotate no_reflect no_shear #
lump $-1 $-1 $40 $7 #
transform $-1 1 0 0 0 1 0 0 0 1 52.794579912717062 25.078029662998357 9.7486468286815349 1 rotate no_reflect no_shear #
lump $-1 $-1 $41 $8 #
transform $-1 1 0 0 0 1 0 0 0 1 52.794579912717062 25.078029662998357 9.7486468286815349 1 rotate no_reflect no_shear #
lump $-1 $-1 $42 $9 #
transform $-1 1 0 0 0 1 0 0 0 1 52.794579912717062 25.078029662998357 9.7486468286815349 1 rotate no_reflect no_shear #
lump $-1 $-1 $43 $10 #
transform $-1 1 0 0 0 1 0 0 0 1 52.794579912717062 25.078029662998357 9.7486468286815349 1 rotate no_reflect no_shear #
shell $-1 $-1 $-1 $44 $-1 $11 #
shell $-1 $-1 $-1 $45 $-1 $13 #
shell $-1 $-1 $-1 $46 $-1 $15 #
shell $-1 $-1 $-1 $47 $-1 $17 #
shell $-1 $-1 $-1 $48 $-1 $19 #
shell $-1 $-1 $-1 $49 $-1 $21 #
shell $-1 $-1 $-1 $50 $-1 $23 #
shell $-1 $-1 $-1 $51 $-1 $25 #
shell $-1 $-1 $-1 $52 $-1 $27 #
shell $-1 $-1 $-1 $53 $-1 $29 #
shell $-1 $-1 $-1 $54 $-1 $31 #
face $-1 $55 $56 $33 $-1 $57 forward single #
face $-1 $58 $59 $34 $-1 $60 forward single #
face $-1 $61 $62 $35 $-1 $63 reversed single #
face $-1 $64 $65 $36 $-1 $66 forward single #
face $-1 $67 $68 $37 $-1 $69 forward single #
face $-1 $70 $71 $38 $-1 $72 reversed single #
face $-1 $73 $74 $39 $-1 $75 forward single #
face $-1 $76 $77 $40 $-1 $78 forward single #
face $-1 $79 $80 $41 $-1 $81 reversed single #
face $-1 $82 $83 $42 $-1 $84 forward single #
face $-1 $85 $86 $43 $-1 $87 forward single #
face $-1 $88 $89 $33 $-1 $90 reversed single #
loop $-1 $-1 $91 $44 #
plane-surface $-1 0 0 9.7486468286815349 0 0 1 1 0 0 forward_v I I I I #
face $-1 $92 $93 $34 $-1 $94 forward single #
loop $-1 $-1 $95 $45 #
plane-surface $-1 -52.794579912717062 0 0 1 0 0 0 0 -1 forward_v I I I I #
face $-1 $96 $97 $35 $-1 $98 reversed single #
loop $-1 $-1 $99 $46 #
plane-surface $-1 -18.440014757576485 -79.460467994275163 95.842109467695821 -1 0 0 0 -0.51503808176128008 0.85716729658548041 forward_v I I I I #
face $-1 $100 $101 $36 $-1 $102 forward single #
loop $-1 $103 $104 $47 #
cone-surface $-1 -35.079172599581653 -20.576404940517115 6.1627906365478964 0 0.51503808176128008 -0.85716729658548041 1 0 0 1 I I 0 1 1 forward I I I I #
face $-1 $105 $106 $37 $-1 $107 forward single #
loop $-1 $108 $109 $48 #
cone-surface $-1 -25.095677894378554 -20.576404940517115 6.1627906365478964 0 0.51503808176128008 -0.85716729658548041 1 0 0 1 I I 0 1 1 forward I I I I #
face $-1 $110 $111 $38 $-1 $112 reversed single #
loop $-1 $-1 $113 $49 #
plane-surface $-1 28.824693066973904 -79.460467994275163 95.842109467695821 -1 0 0 0 -0.51503808176128008 0.85716729658548041 forward_v I I I I #
face $-1 $114 $115 $39 $-1 $116 forward single #
loop $-1 $117 $118 $50 #
cone-surface $-1 12.185535224968739 -20.576404940517115 6.1627906365478964 0 0.51503808176128008 -0.85716729658548041 1 0 0 1 I I 0 1 1 forward I I I I #
face $-1 $119 $120 $40 $-1 $121 forward single #
loop $-1 $122 $123 $51 #
cone-surface $-1 22.169029930171838 -20.576404940517115 6.1627906365478964 0 0.51503808176128008 -0.85716729658548041 1 0 0 1 I I 0 1 1 forward I I I I #
face $-1 $124 $125 $41 $-1 $126 reversed single #
loop $-1 $-1 $127 $52 #
plane-surface $-1 16.906338589183122 38.497009884673744 117.28619040268109 1 0 0 0 -0.52991927123019833 -0.84804809178421925 forward_v I I I I #
face $-1 $128 $129 $42 $-1 $130 forward single #
loop $-1 $131 $132 $53 #
cone-surface $-1 19.804341130770474 17.91589381894682 4.988356725533027 0 -0.52991927123019833 -0.84804809178421925 1 0 0 1 I I 0 1 1 forward I I I I #
face $-1 $133 $134 $43 $-1 $135 forward single #
loop $-1 $136 $137 $54 #
cone-surface $-1 24.151344943151493 17.91589381894682 4.988356725533027 0 -0.52991927123019833 -0.84804809178421925 1 0 0 1 I I 0 1 1 forward I I I I #
face $-1 $138 $139 $33 $-1 $140 reversed single #
loop $-1 $-1 $141 $55 #
plane-surface $-1 0 0 -9.7486468286815349 0 0 1 1 0 0 forward_v I I I I #
coedge $-1 $142 $143 $144 $145 forward $56 $-1 #
face $-1 $146 $147 $34 $-1 $148 reversed single #
loop $-1 $-1 $149 $58 #
plane-surface $-1 0 0 9.7486468286815349 0 0 1 1 0 0 forward_v I I I I #
coedge $-1 $150 $151 $152 $153 forward $59 $-1 #
face $-1 $154 $155 $35 $-1 $156 reversed single #
loop $-1 $-1 $157 $61 #
plane-surface $-1 -30.0874252469801 -25.078029662998354 5.3345347913962371 0 -0.51503808176128008 0.85716729658548041 1 0 0 forward_v I I I I #
coedge $-1 $158 $159 $160 $161 reversed $62 $-1 #
face $-1 $-1 $162 $36 $-1 $163 forward single #
loop $-1 $164 $165 $64 #
cone-surface $-1 -35.079172599581653 -19.490419158878009 4.3554068147641676 0 0.51503808176128008 -0.85716729658548041 0.5 0 0 1 I I -0.70710678118654746 0.70710678118654746 0.5 forward I I I I #
loop $-1 $-1 $166 $47 #
coedge $-1 $104 $104 $167 $168 reversed $65 $-1 #
face $-1 $-1 $169 $37 $-1 $170 forward single #
loop $-1 $171 $172 $67 #
cone-surface $-1 -25.095677894378554 -19.490419158878009 4.3554068147641676 0 0.51503808176128008 -0.85716729658548041 0.5 0 0 1 I I -0.70710678118654746 0.70710678118654746 0.5 forward I I I I #
loop $-1 $-1 $173 $48 #
coedge $-1 $109 $109 $174 $175 reversed $68 $-1 #
face $-1 $176 $177 $38 $-1 $178 reversed single #
loop $-1 $-1 $179 $70 #
plane-surface $-1 17.177282577570288 -25.078029662998354 5.3345347913962371 0 -0.51503808176128008 0.85716729658548041 1 0 0 forward_v I I I I #
coedge $-1 $180 $181 $182 $183 reversed $71 $-1 #
face $-1 $-1 $184 $39 $-1 $185 forward single #
loop $-1 $186 $187 $73 #
cone-surface $-1 12.185535224968739 -19.490419158878009 4.3554068147641676 0 0.51503808176128008 -0.85716729658548041 0.5 0 0 1 I I -0.70710678118654746 0.70710678118654746 0.5 forward I I I I #
loop $-1 $-1 $188 $50 #
coedge $-1 $118 $118 $189 $190 reversed $74 $-1 #
face $-1 $-1 $191 $40 $-1 $192 forward single #
loop $-1 $193 $194 $76 #
cone-surface $-1 22.169029930171838 -19.490419158878009 4.3554068147641676 0 0.51503808176128008 -0.85716729658548041 0.5 0 0 1 I I -0.70710678118654746 0.70710678118654746 0.5 forward I I I I #
loop $-1 $-1 $195 $51 #
coedge $-1 $123 $123 $196 $197 reversed $77 $-1 #
face $-1 $198 $199 $41 $-1 $200 reversed single #
loop $-1 $-1 $201 $79 #
plane-surface $-1 21.977843036960969 -17.456720739829244 27.74150489962274 0 0.52991927123019833 0.84804809178421925 1 0 0 forward_v I I I I #
coedge $-1 $202 $203 $204 $205 reversed $80 $-1 #
face $-1 $-1 $206 $42 $-1 $207 forward single #
loop $-1 $208 $209 $82 #
cone-surface $-1 19.804341130770474 17.358877781490047 4.0969447439272066 0 -0.52991927123019833 -0.84804809178421925 0.5 0 0 1 I I -0.70710678118654813 0.70710678118654691 0.5 forward I I I I #
loop $-1 $-1 $210 $53 #
coedge $-1 $132 $132 $211 $212 reversed $83 $-1 #
face $-1 $-1 $213 $43 $-1 $214 forward single #
loop $-1 $215 $216 $85 #
cone-surface $-1 24.151344943151493 17.358877781490047 4.0969447439272066 0 -0.52991927123019833 -0.84804809178421925 0.5 0 0 1 I I -0.70710678118654813 0.70710678118654691 0.5 forward I I I I #
loop $-1 $-1 $217 $54 #
coedge $-1 $137 $137 $218 $219 reversed $86 $-1 #
face $-1 $220 $221 $33 $-1 $222 reversed single #
loop $-1 $-1 $223 $88 #
plane-surface $-1 0 -25.078029662998357 0 0 1 0 0 0 1 forward_v I I I I #
coedge $-1 $224 $225 $226 $227 forward $89 $-1 #
coedge $-1 $228 $91 $229 $230 forward $56 $-1 #
coedge $-1 $91 $228 $231 $232 forward $56 $-1 #
coedge $-1 $233 $234 $91 $145 reversed $235 $-1 #
edge $-1 $236 -25.078029662998357 $237 25.078029662998357 $144 $238 forward 7 unknown #
face $-1 $239 $240 $34 $-1 $241 reversed single #
loop $-1 $-1 $242 $92 #
plane-surface $-1 -63.854324089050415 -23.002600560175409 0 1 0 0 0 0 -1 forward_v I I I I #
coedge $-1 $243 $244 $150 $245 forward $93 $-1 #
coedge $-1 $246 $95 $149 $245 reversed $59 $-1 #
coedge $-1 $95 $246 $247 $248 reversed $59 $-1 #
coedge $-1 $249 $250 $95 $153 reversed $240 $-1 #
edge $-1 $251 -9.7486468286815349 $252 9.7486468286815349 $152 $253 forward 7 unknown #
face $-1 $254 $255 $35 $-1 $256 forward single #
loop $-1 $-1 $257 $96 #
plane-surface $-1 -41.734835736383715 -79.460467994275163 95.842109467695821 1 0 0 0 0.51503808176128008 -0.85716729658548041 forward_v I I I I #
coedge $-1 $258 $259 $260 $261 reversed $97 $-1 #
coedge $-1 $159 $99 $262 $263 reversed $62 $-1 #
coedge $-1 $99 $158 $258 $264 reversed $62 $-1 #
coedge $-1 $260 $265 $99 $161 forward $255 $-1 #
edge $-1 $266 14.652204334139224 $267 21.998520297584776 $160 $268 forward 7 unknown #
loop $-1 $-1 $167 $100 #
plane-surface $-1 -30.0874252469801 -25.078029662998354 5.3345347913962371 0 -0.51503808176128008 0.85716729658548041 1 0 0 forward_v I I I I #
loop $-1 $-1 $269 $64 #
coedge $-1 $165 $165 $166 $270 reversed $101 $-1 #
coedge $-1 $166 $166 $165 $270 forward $103 $-1 #
coedge $-1 $167 $167 $104 $168 forward $162 $-1 #
edge $-1 $271 -3.0452699795996826e-015 $271 6.2831853071795978 $167 $272 forward 7 unknown #
loop $-1 $-1 $174 $105 #
plane-surface $-1 -30.0874252469801 -25.078029662998354 5.3345347913962371 0 -0.51503808176128008 0.85716729658548041 1 0 0 forward_v I I I I #
loop $-1 $-1 $273 $67 #
coedge $-1 $172 $172 $173 $274 reversed $106 $-1 #
coedge $-1 $173 $173 $172 $274 forward $108 $-1 #
coedge $-1 $174 $174 $109 $175 forward $169 $-1 #
edge $-1 $275 -3.0452699795996826e-015 $275 6.2831853071795978 $174 $276 forward 7 unknown #
face $-1 $277 $278 $38 $-1 $279 reversed single #
loop $-1 $-1 $280 $110 #
plane-surface $-1 5.5298720881666732 -79.460467994275163 95.842109467695821 1 0 0 0 0.51503808176128008 -0.85716729658548041 forward_v I I I I #
coedge $-1 $281 $282 $283 $284 reversed $111 $-1 #
coedge $-1 $181 $113 $285 $286 reversed $71 $-1 #
coedge $-1 $113 $180 $281 $287 reversed $71 $-1 #
coedge $-1 $283 $288 $113 $183 forward $289 $-1 #
edge $-1 $290 14.652204334139224 $291 21.998520297584776 $182 $292 forward 7 unknown #
loop $-1 $-1 $189 $114 #
plane-surface $-1 17.177282577570288 -25.078029662998354 5.3345347913962371 0 -0.51503808176128008 0.85716729658548041 1 0 0 forward_v I I I I #
loop $-1 $-1 $293 $73 #
coedge $-1 $187 $187 $188 $294 reversed $115 $-1 #
coedge $-1 $188 $188 $187 $294 forward $117 $-1 #
coedge $-1 $189 $189 $118 $190 forward $184 $-1 #
edge $-1 $295 -3.0452699795996826e-015 $295 6.2831853071795978 $189 $296 forward 7 unknown #
loop $-1 $-1 $196 $119 #
plane-surface $-1 17.177282577570288 -25.078029662998354 5.3345347913962371 0 -0.51503808176128008 0.85716729658548041 1 0 0 forward_v I I I I #
loop $-1 $-1 $297 $76 #
coedge $-1 $194 $194 $195 $298 reversed $120 $-1 #
coedge $-1 $195 $195 $194 $298 forward $122 $-1 #
coedge $-1 $196 $196 $123 $197 forward $191 $-1 #
edge $-1 $299 -3.0452699795996826e-015 $299 6.2831853071795978 $196 $300 forward 7 unknown #
face $-1 $301 $302 $41 $-1 $303 reversed single #
loop $-1 $-1 $304 $124 #
plane-surface $-1 27.049347484738817 38.497009884673744 117.28619040268109 -1 0 0 0 0.52991927123019833 0.84804809178421925 forward_v I I I I #
coedge $-1 $305 $306 $307 $308 reversed $125 $-1 #
coedge $-1 $203 $127 $309 $310 reversed $80 $-1 #
coedge $-1 $127 $202 $305 $311 reversed $80 $-1 #
coedge $-1 $307 $312 $127 $205 forward $313 $-1 #
edge $-1 $314 -5.8295247206614853 $315 7.9106341637581963 $204 $316 forward 7 unknown #
loop $-1 $-1 $211 $128 #
plane-surface $-1 21.977843036960969 -17.456720739829244 27.74150489962274 0 0.52991927123019833 0.84804809178421925 1 0 0 forward_v I I I I #
loop $-1 $-1 $317 $82 #
coedge $-1 $209 $209 $210 $318 reversed $129 $-1 #
coedge $-1 $210 $210 $209 $318 forward $131 $-1 #
coedge $-1 $211 $211 $132 $212 forward $206 $-1 #
edge $-1 $319 -1.6969052842724828e-015 $319 6.2831853071795987 $211 $320 forward 7 unknown #
loop $-1 $-1 $218 $133 #
plane-surface $-1 21.977843036960969 -17.456720739829244 27.74150489962274 0 0.52991927123019833 0.84804809178421925 1 0 0 forward_v I I I I #
loop $-1 $-1 $321 $85 #
coedge $-1 $216 $216 $217 $322 reversed $134 $-1 #
coedge $-1 $217 $217 $216 $322 forward $136 $-1 #
coedge $-1 $218 $218 $137 $219 forward $213 $-1 #
edge $-1 $323 -1.6969052842724828e-015 $323 6.2831853071795987 $218 $324 forward 7 unknown #
face $-1 $325 $326 $33 $-1 $327 reversed single #
loop $-1 $-1 $328 $138 #
plane-surface $-1 -52.794579912717062 0 0 1 0 0 0 0 -1 forward_v I I I I #
coedge $-1 $329 $231 $330 $331 forward $139 $-1 #
coedge $-1 $332 $141 $329 $333 forward $89 $-1 #
coedge $-1 $141 $332 $334 $335 forward $89 $-1 #
coedge $-1 $234 $233 $141 $227 reversed $235 $-1 #
edge $-1 $336 -25.078029662998357 $337 25.078029662998357 $226 $338 forward 7 unknown #
coedge $-1 $143 $142 $328 $339 forward $56 $-1 #
coedge $-1 $340 $341 $142 $230 reversed $326 $-1 #
edge $-1 $237 -52.794579912717062 $342 52.794579912717062 $229 $343 forward 7 unknown #
coedge $-1 $223 $344 $143 $232 reversed $139 $-1 #
edge $-1 $345 -52.794579912717062 $236 52.794579912717062 $231 $346 forward 7 unknown #
coedge $-1 $226 $144 $344 $347 forward $235 $-1 #
coedge $-1 $144 $226 $340 $348 reversed $235 $-1 #
loop $-1 $-1 $233 $325 #
vertex $-1 $145 $349 #
vertex $-1 $145 $350 #
straight-curve $-1 52.794579912717062 0 9.7486468286815349 0 1 0 I I #
face $-1 $351 $352 $34 $-1 $353 reversed single #
loop $-1 $-1 $152 $146 #
plane-surface $-1 -58.324452000883738 -20.927171457352461 0 0 -1 0 0 0 -1 forward_v I I I I #
coedge $-1 $354 $355 $356 $357 forward $147 $-1 #
coedge $-1 $358 $149 $250 $359 forward $93 $-1 #
coedge $-1 $149 $358 $360 $361 forward $93 $-1 #
edge $-1 $362 -25.078029662998357 $252 -20.927171457352461 $149 $363 forward 7 unknown #
coedge $-1 $151 $150 $364 $365 reversed $59 $-1 #
coedge $-1 $366 $367 $151 $248 forward $352 $-1 #
edge $-1 $251 20.927171457352461 $368 25.078029662998357 $247 $369 forward 7 unknown #
coedge $-1 $356 $152 $367 $370 reversed $240 $-1 #
coedge $-1 $152 $356 $243 $359 reversed $240 $-1 #
vertex $-1 $248 $371 #
vertex $-1 $359 $372 #
straight-curve $-1 -52.794579912717062 -20.927171457352461 0 0 0 1 I I #
face $-1 $-1 $373 $35 $-1 $374 reversed single #
loop $-1 $-1 $160 $154 #
plane-surface $-1 0 0 9.7486468286815349 0 0 1 1 0 0 forward_v I I I I #
coedge $-1 $375 $376 $377 $378 reversed $155 $-1 #
coedge $-1 $379 $157 $159 $264 forward $97 $-1 #
coedge $-1 $157 $379 $375 $380 forward $97 $-1 #
coedge $-1 $377 $160 $157 $261 forward $255 $-1 #
edge $-1 $267 3.3963021340864348 $381 26.691123112893663 $260 $382 forward 7 unknown #
coedge $-1 $383 $384 $158 $263 forward $373 $-1 #
edge $-1 $385 -42.586519942451673 $266 -38.172407905166374 $262 $386 forward 7 unknown #
edge $-1 $267 -8.5704575906121754 $385 3.9601613986879174e-015 $159 $387 forward 7 unknown #
coedge $-1 $160 $377 $383 $388 forward $255 $-1 #
vertex $-1 $161 $389 #
vertex $-1 $161 $390 #
straight-curve $-1 -18.440014757576485 -39.730233997137582 9.7486468286815366 0 1 0 I I #
coedge $-1 $269 $269 $-1 $391 reversed $164 $-1 #
edge $-1 $392 0 $392 6.2831853071796004 $165 $393 forward 7 unknown #
vertex $-1 $168 $394 #
ellipse-curve $-1 -35.079172599581653 -21.40487168127558 7.5415908100388851 0 -0.51503808176128008 0.85716729658548041 1 0 0 1 I I #
coedge $-1 $273 $273 $-1 $395 reversed $171 $-1 #
edge $-1 $396 0 $396 6.2831853071796004 $172 $397 forward 7 unknown #
vertex $-1 $175 $398 #
ellipse-curve $-1 -25.095677894378554 -21.40487168127558 7.5415908100388851 0 -0.51503808176128008 0.85716729658548041 1 0 0 1 I I #
face $-1 $-1 $289 $38 $-1 $399 forward single #
loop $-1 $-1 $400 $176 #
plane-surface $-1 0 -25.078029662998357 0 0 1 0 0 0 1 forward_v I I I I #
coedge $-1 $401 $402 $403 $404 reversed $177 $-1 #
coedge $-1 $405 $179 $181 $287 forward $111 $-1 #
coedge $-1 $179 $405 $401 $406 forward $111 $-1 #
coedge $-1 $403 $182 $179 $284 forward $289 $-1 #
edge $-1 $291 -20.236051778188759 $407 3.058769200618471 $283 $408 forward 7 unknown #
coedge $-1 $409 $410 $180 $286 forward $278 $-1 #
edge $-1 $411 -42.586519942451673 $290 -38.172407905166374 $285 $412 forward 7 unknown #
edge $-1 $291 -8.5704575906121754 $411 3.9601613986879174e-015 $181 $413 forward 7 unknown #
coedge $-1 $182 $403 $409 $414 forward $289 $-1 #
loop $-1 $-1 $403 $277 #
vertex $-1 $286 $415 #
vertex $-1 $183 $416 #
straight-curve $-1 28.824693066973904 -39.730233997137582 9.7486468286815366 0 1 0 I I #
coedge $-1 $293 $293 $-1 $417 reversed $186 $-1 #
edge $-1 $418 0 $418 6.2831853071796004 $187 $419 forward 7 unknown #
vertex $-1 $190 $420 #
ellipse-curve $-1 12.185535224968739 -21.40487168127558 7.5415908100388851 0 -0.51503808176128008 0.85716729658548041 1 0 0 1 I I #
coedge $-1 $297 $297 $-1 $421 reversed $193 $-1 #
edge $-1 $422 0 $422 6.2831853071796004 $194 $423 forward 7 unknown #
vertex $-1 $197 $424 #
ellipse-curve $-1 22.169029930171838 -21.40487168127558 7.5415908100388851 0 -0.51503808176128008 0.85716729658548041 1 0 0 1 I I #
face $-1 $-1 $313 $41 $-1 $425 forward single #
loop $-1 $-1 $426 $198 #
plane-surface $-1 0 25.078029662998357 0 0 -1 0 0 0 -1 forward_v I I I I #
coedge $-1 $427 $428 $429 $430 reversed $199 $-1 #
coedge $-1 $431 $201 $203 $311 forward $125 $-1 #
coedge $-1 $201 $431 $427 $432 forward $125 $-1 #
coedge $-1 $429 $204 $201 $308 forward $313 $-1 #
edge $-1 $315 5.917417070702637 $433 16.060425966258332 $307 $434 forward 7 unknown #
coedge $-1 $435 $436 $202 $310 forward $302 $-1 #
edge $-1 $437 -57.480252707528564 $314 -48.894448372659006 $309 $438 forward 7 unknown #
edge $-1 $315 33.953960627193453 $437 50.156059325996708 $203 $439 forward 7 unknown #
coedge $-1 $204 $429 $435 $440 forward $313 $-1 #
loop $-1 $-1 $429 $301 #
vertex $-1 $310 $441 #
vertex $-1 $205 $442 #
straight-curve $-1 16.906338589183122 19.248504942336872 9.7486468286815366 0 -1 0 I I #
coedge $-1 $317 $317 $-1 $443 reversed $208 $-1 #
edge $-1 $444 0 $444 6.2831853071796004 $209 $445 forward 7 unknown #
vertex $-1 $212 $446 #
ellipse-curve $-1 19.804341130770474 18.207950220788508 5.4557446612467597 0 0.52991927123019833 0.84804809178421925 1 0 0 1 I I #
coedge $-1 $321 $321 $-1 $447 reversed $215 $-1 #
edge $-1 $448 0 $448 6.2831853071796004 $216 $449 forward 7 unknown #
vertex $-1 $219 $450 #
ellipse-curve $-1 24.151344943151493 18.207950220788508 5.4557446612467597 0 0.52991927123019833 0.84804809178421925 1 0 0 1 I I #
face $-1 $-1 $235 $33 $-1 $451 reversed single #
loop $-1 $-1 $340 $220 #
plane-surface $-1 0 25.078029662998357 0 0 -1 0 0 0 -1 forward_v I I I I #
coedge $-1 $452 $330 $228 $339 reversed $221 $-1 #
coedge $-1 $344 $223 $224 $333 reversed $139 $-1 #
coedge $-1 $328 $453 $223 $331 reversed $221 $-1 #
edge $-1 $345 -9.7486468286815349 $454 9.7486468286815349 $330 $455 forward 7 unknown #
coedge $-1 $225 $224 $453 $456 forward $89 $-1 #
edge $-1 $337 -52.794579912717062 $454 52.794579912717062 $329 $457 forward 7 unknown #
coedge $-1 $341 $340 $225 $335 reversed $326 $-1 #
edge $-1 $458 -52.794579912717062 $336 52.794579912717062 $334 $459 forward 7 unknown #
vertex $-1 $227 $460 #
vertex $-1 $347 $461 #
straight-curve $-1 52.794579912717062 0 -9.7486468286815349 0 -1 0 I I #
edge $-1 $342 -25.078029662998357 $345 25.078029662998357 $328 $462 forward 7 unknown #
coedge $-1 $334 $229 $234 $348 forward $326 $-1 #
coedge $-1 $229 $334 $452 $463 reversed $326 $-1 #
vertex $-1 $230 $464 #
straight-curve $-1 0 25.078029662998357 9.7486468286815349 -1 0 0 I I #
coedge $-1 $231 $329 $233 $347 reversed $139 $-1 #
vertex $-1 $339 $465 #
straight-curve $-1 0 -25.078029662998357 9.7486468286815349 1 0 0 I I #
edge $-1 $236 -9.7486468286815349 $337 9.7486468286815349 $233 $466 forward 7 unknown #
edge $-1 $237 -9.7486468286815349 $336 9.7486468286815349 $234 $467 forward 7 unknown #
point $-1 52.794579912717062 -25.078029662998357 9.7486468286815349 #
point $-1 52.794579912717062 25.078029662998357 9.7486468286815349 #
face $-1 $-1 $468 $34 $-1 $469 reversed single #
loop $-1 $-1 $247 $239 #
plane-surface $-1 0 0 -9.7486468286815349 0 0 1 1 0 0 forward_v I I I I #
coedge $-1 $470 $242 $471 $472 reversed $147 $-1 #
coedge $-1 $242 $470 $358 $473 reversed $147 $-1 #
coedge $-1 $250 $249 $242 $357 reversed $240 $-1 #
edge $-1 $474 -9.7486468286815349 $475 9.7486468286815349 $356 $476 forward 7 unknown #
coedge $-1 $244 $243 $355 $473 forward $93 $-1 #
edge $-1 $252 -5.5298720881666767 $474 5.5298720881666767 $250 $477 forward 7 unknown #
coedge $-1 $478 $364 $244 $361 reversed $468 $-1 #
edge $-1 $479 -63.854324089050415 $362 -52.794579912717062 $360 $480 forward 7 unknown #
vertex $-1 $365 $481 #
straight-curve $-1 -52.794579912717062 0 9.7486468286815349 0 1 0 I I #
coedge $-1 $360 $482 $246 $365 forward $468 $-1 #
edge $-1 $368 -9.7486468286815349 $362 9.7486468286815349 $364 $483 forward 7 unknown #
coedge $-1 $471 $247 $482 $484 forward $352 $-1 #
coedge $-1 $247 $471 $249 $370 forward $352 $-1 #
vertex $-1 $484 $485 #
straight-curve $-1 -52.794579912717062 0 -9.7486468286815349 0 -1 0 I I #
edge $-1 $475 -5.5298720881666767 $251 5.5298720881666767 $249 $486 forward 7 unknown #
point $-1 -52.794579912717062 -20.927171457352461 -9.7486468286815349 #
point $-1 -52.794579912717062 -20.927171457352461 9.7486468286815349 #
loop $-1 $-1 $262 $254 #
plane-surface $-1 0 -25.078029662998357 0 0 1 0 0 0 1 forward_v I I I I #
coedge $-1 $376 $257 $259 $380 reversed $155 $-1 #
coedge $-1 $257 $375 $487 $488 reversed $155 $-1 #
coedge $-1 $265 $260 $257 $378 forward $255 $-1 #
edge $-1 $381 -21.998520297584776 $489 -14.652204334139224 $377 $490 forward 7 unknown #
coedge $-1 $259 $258 $384 $491 reversed $97 $-1 #
edge $-1 $492 -3.9601613986879174e-015 $381 8.5704575906121754 $375 $493 forward 7 unknown #
vertex $-1 $261 $494 #
straight-curve $-1 -15.04371262349005 -17.731713699552802 9.7486468286815349 -1 0 0 I I #
coedge $-1 $487 $262 $265 $388 reversed $373 $-1 #
coedge $-1 $262 $487 $379 $491 forward $373 $-1 #
vertex $-1 $263 $495 #
straight-curve $-1 -18.440014757576485 -25.078029662998357 47.92105473384791 0 0 1 I I #
straight-curve $-1 -18.440014757576485 -25.078029662998354 5.3345347913962371 0 -0.85716729658548041 -0.51503808176128008 I I #
edge $-1 $489 -41.734835736383715 $266 -18.440014757576485 $383 $496 forward 7 unknown #
point $-1 -18.440014757576485 -25.078029662998357 9.7486468286815349 #
point $-1 -18.440014757576485 -17.731713699552806 9.7486468286815349 #
edge $-1 $497 1 $497 0 $269 $-1 forward 7 unknown #
vertex $-1 $270 $498 #
ellipse-curve $-1 -35.079172599581653 -19.74793819975865 4.7839904630569077 0 -0.51503808176128008 0.85716729658548041 1 0 0 1 I I #
point $-1 -34.079172599581653 -21.404871681275583 7.5415908100388851 #
edge $-1 $499 1 $499 0 $273 $-1 forward 7 unknown #
vertex $-1 $274 $500 #
ellipse-curve $-1 -25.095677894378554 -19.74793819975865 4.7839904630569077 0 -0.51503808176128008 0.85716729658548041 1 0 0 1 I I #
point $-1 -24.095677894378554 -21.404871681275583 7.5415908100388851 #
plane-surface $-1 0 0 9.7486468286815349 0 0 1 1 0 0 forward_v I I I I #
coedge $-1 $410 $409 $402 $501 forward $278 $-1 #
coedge $-1 $402 $280 $282 $406 reversed $177 $-1 #
coedge $-1 $280 $401 $400 $501 reversed $177 $-1 #
coedge $-1 $288 $283 $280 $404 forward $289 $-1 #
edge $-1 $407 -21.998520297584776 $502 -14.652204334139224 $403 $503 forward 7 unknown #
coedge $-1 $282 $281 $410 $504 reversed $111 $-1 #
edge $-1 $505 -3.9601613986879174e-015 $407 8.5704575906121754 $401 $506 forward 7 unknown #
vertex $-1 $284 $507 #
straight-curve $-1 8.5886412887851442 -17.731713699552802 9.7486468286815349 -1 0 0 I I #
coedge $-1 $400 $285 $288 $414 reversed $278 $-1 #
coedge $-1 $285 $400 $405 $504 forward $278 $-1 #
vertex $-1 $286 $508 #
straight-curve $-1 28.824693066973904 -25.078029662998357 47.92105473384791 0 0 1 I I #
straight-curve $-1 28.824693066973904 -25.078029662998354 5.3345347913962371 0 -0.85716729658548041 -0.51503808176128008 I I #
edge $-1 $502 5.5298720881666732 $290 28.824693066973904 $409 $509 forward 7 unknown #
point $-1 28.824693066973904 -25.078029662998357 9.7486468286815349 #
point $-1 28.824693066973904 -17.731713699552806 9.7486468286815349 #
edge $-1 $510 1 $510 0 $293 $-1 forward 7 unknown #
vertex $-1 $294 $511 #
ellipse-curve $-1 12.185535224968739 -19.74793819975865 4.7839904630569077 0 -0.51503808176128008 0.85716729658548041 1 0 0 1 I I #
point $-1 13.185535224968739 -21.404871681275583 7.5415908100388851 #
edge $-1 $512 1 $512 0 $297 $-1 forward 7 unknown #
vertex $-1 $298 $513 #
ellipse-curve $-1 22.169029930171838 -19.74793819975865 4.7839904630569077 0 -0.51503808176128008 0.85716729658548041 1 0 0 1 I I #
point $-1 23.169029930171838 -21.404871681275583 7.5415908100388851 #
plane-surface $-1 0 0 9.7486468286815349 0 0 1 1 0 0 forward_v I I I I #
coedge $-1 $436 $435 $428 $514 forward $302 $-1 #
coedge $-1 $428 $304 $306 $432 reversed $199 $-1 #
coedge $-1 $304 $427 $426 $514 reversed $199 $-1 #
coedge $-1 $312 $307 $304 $430 forward $313 $-1 #
edge $-1 $433 -7.9106341637581963 $515 5.8295247206614853 $429 $516 forward 7 unknown #
coedge $-1 $306 $305 $436 $517 reversed $125 $-1 #
edge $-1 $518 -50.156059325996708 $433 -33.953960627193453 $427 $519 forward 7 unknown #
vertex $-1 $308 $520 #
straight-curve $-1 10.988921518480485 11.337870778578683 9.7486468286815331 1 0 0 I I #
coedge $-1 $426 $309 $312 $440 reversed $302 $-1 #
coedge $-1 $309 $426 $431 $517 forward $302 $-1 #
vertex $-1 $310 $521 #
straight-curve $-1 16.906338589183122 25.078029662998357 58.643095201340543 0 0 1 I I #
straight-curve $-1 16.906338589183122 -17.456720739829244 27.74150489962274 0 0.84804809178421925 -0.52991927123019833 I I #
edge $-1 $515 -27.049347484738817 $314 -16.906338589183122 $435 $522 forward 7 unknown #
point $-1 16.906338589183122 25.078029662998357 9.7486468286815349 #
point $-1 16.906338589183122 11.337870778578676 9.7486468286815366 #
edge $-1 $523 1 $523 0 $317 $-1 forward 7 unknown #
vertex $-1 $318 $524 #
ellipse-curve $-1 19.804341130770474 17.623837417105147 4.5209687898193156 0 0.52991927123019833 0.84804809178421925 1 0 0 1 I I #
point $-1 20.804341130770474 18.207950220788494 5.4557446612467402 #
edge $-1 $525 1 $525 0 $321 $-1 forward 7 unknown #
vertex $-1 $322 $526 #
ellipse-curve $-1 24.151344943151493 17.623837417105147 4.5209687898193156 0 0.52991927123019833 0.84804809178421925 1 0 0 1 I I #
point $-1 25.151344943151493 18.207950220788494 5.4557446612467402 #
plane-surface $-1 52.794579912717062 0 0 -1 0 0 0 0 1 forward_v I I I I #
coedge $-1 $453 $328 $341 $463 forward $221 $-1 #
coedge $-1 $330 $452 $332 $456 reversed $221 $-1 #
vertex $-1 $456 $527 #
straight-curve $-1 -52.794579912717062 -25.078029662998357 0 0 0 -1 I I #
edge $-1 $454 -25.078029662998357 $458 25.078029662998357 $453 $528 forward 7 unknown #
straight-curve $-1 0 -25.078029662998357 -9.7486468286815349 -1 0 0 I I #
vertex $-1 $335 $529 #
straight-curve $-1 0 25.078029662998357 -9.7486468286815349 1 0 0 I I #
point $-1 52.794579912717062 25.078029662998357 -9.7486468286815349 #
point $-1 52.794579912717062 -25.078029662998357 -9.7486468286815349 #
straight-curve $-1 -52.794579912717062 0 9.7486468286815349 0 -1 0 I I #
edge $-1 $342 -9.7486468286815349 $458 9.7486468286815349 $341 $530 forward 7 unknown #
point $-1 -52.794579912717062 25.078029662998357 9.7486468286815349 #
point $-1 -52.794579912717062 -25.078029662998357 9.7486468286815349 #
straight-curve $-1 52.794579912717062 -25.078029662998357 0 0 0 -1 I I #
straight-curve $-1 52.794579912717062 25.078029662998357 0 0 0 -1 I I #
loop $-1 $-1 $364 $351 #
plane-surface $-1 0 -25.078029662998357 0 0 1 0 0 0 1 forward_v I I I I #
coedge $-1 $355 $354 $478 $531 reversed $147 $-1 #
coedge $-1 $367 $366 $354 $472 forward $352 $-1 #
edge $-1 $532 -2.0754291028229481 $475 2.0754291028229481 $354 $533 forward 7 unknown #
edge $-1 $474 -2.0754291028229481 $479 2.0754291028229481 $355 $534 forward 7 unknown #
vertex $-1 $359 $535 #
vertex $-1 $370 $536 #
straight-curve $-1 -63.854324089050415 -20.927171457352461 0 0 0 -1 I I #
straight-curve $-1 -58.324452000883738 -20.927171457352461 9.7486468286815349 -1 0 0 I I #
coedge $-1 $482 $360 $470 $531 forward $468 $-1 #
vertex $-1 $473 $537 #
straight-curve $-1 0 -25.078029662998357 9.7486468286815349 1 0 0 I I #
point $-1 -52.794579912717062 -25.078029662998357 9.7486468286815349 #
coedge $-1 $364 $478 $366 $484 reversed $468 $-1 #
straight-curve $-1 -52.794579912717062 -25.078029662998357 0 0 0 1 I I #
edge $-1 $368 -5.5298720881666767 $532 5.5298720881666767 $482 $538 forward 7 unknown #
point $-1 -52.794579912717062 -25.078029662998357 -9.7486468286815349 #
straight-curve $-1 -58.324452000883738 -20.927171457352461 -9.7486468286815349 1 0 0 I I #
coedge $-1 $384 $383 $376 $488 forward $373 $-1 #
edge $-1 $489 38.172407905166374 $492 42.586519942451673 $487 $539 forward 7 unknown #
vertex $-1 $388 $540 #
straight-curve $-1 -41.734835736383715 -39.730233997137582 9.7486468286815366 0 -1 0 I I #
edge $-1 $492 -26.691123112893663 $385 -3.3963021340864348 $384 $541 forward 7 unknown #
vertex $-1 $491 $542 #
straight-curve $-1 -41.734835736383715 -25.078029662998354 5.3345347913962371 0 0.85716729658548041 0.51503808176128008 I I #
point $-1 -41.734835736383715 -17.731713699552806 9.7486468286815349 #
point $-1 -18.440014757576485 -25.078029662998357 5.3345347913962353 #
straight-curve $-1 0 -25.078029662998357 9.7486468286815349 1 0 0 I I #
vertex $-1 $391 $543 #
point $-1 -34.079172599581653 -19.74793819975865 4.7839904630569077 #
vertex $-1 $395 $544 #
point $-1 -24.095677894378554 -19.74793819975865 4.7839904630569077 #
edge $-1 $502 38.172407905166374 $505 42.586519942451673 $400 $545 forward 7 unknown #
vertex $-1 $414 $546 #
straight-curve $-1 5.5298720881666732 -39.730233997137582 9.7486468286815366 0 -1 0 I I #
edge $-1 $505 -3.058769200618471 $411 20.236051778188759 $410 $547 forward 7 unknown #
vertex $-1 $504 $548 #
straight-curve $-1 5.5298720881666732 -25.078029662998354 5.3345347913962371 0 0.85716729658548041 0.51503808176128008 I I #
point $-1 5.5298720881666732 -17.731713699552806 9.7486468286815349 #
point $-1 28.824693066973904 -25.078029662998357 5.3345347913962353 #
straight-curve $-1 0 -25.078029662998357 9.7486468286815349 1 0 0 I I #
vertex $-1 $417 $549 #
point $-1 13.185535224968739 -19.74793819975865 4.7839904630569077 #
vertex $-1 $421 $550 #
point $-1 23.169029930171838 -19.74793819975865 4.7839904630569077 #
edge $-1 $515 48.894448372659006 $518 57.480252707528564 $426 $551 forward 7 unknown #
vertex $-1 $440 $552 #
straight-curve $-1 27.049347484738817 19.248504942336872 9.7486468286815366 0 1 0 I I #
edge $-1 $518 -16.060425966258332 $437 -5.917417070702637 $436 $553 forward 7 unknown #
vertex $-1 $517 $554 #
straight-curve $-1 27.049347484738817 -17.456720739829244 27.74150489962274 0 -0.84804809178421925 0.52991927123019833 I I #
point $-1 27.049347484738817 11.337870778578676 9.7486468286815366 #
point $-1 16.906338589183122 25.078029662998354 1.1628424938119757 #
straight-curve $-1 0 25.078029662998357 9.7486468286815349 -1 0 0 I I #
vertex $-1 $443 $555 #
point $-1 20.804341130770474 17.623837417105147 4.5209687898193156 #
vertex $-1 $447 $556 #
point $-1 25.151344943151493 17.623837417105147 4.5209687898193156 #
point $-1 -52.794579912717062 -25.078029662998357 -9.7486468286815349 #
straight-curve $-1 -52.794579912717062 0 -9.7486468286815349 0 1 0 I I #
point $-1 -52.794579912717062 25.078029662998357 -9.7486468286815349 #
straight-curve $-1 -52.794579912717062 25.078029662998357 0 0 0 -1 I I #
edge $-1 $479 -9.7486468286815349 $532 9.7486468286815349 $470 $557 forward 7 unknown #
vertex $-1 $472 $558 #
straight-curve $-1 -63.854324089050415 -23.002600560175409 -9.7486468286815349 0 1 0 I I #
straight-curve $-1 -63.854324089050415 -23.002600560175409 9.7486468286815349 0 -1 0 I I #
point $-1 -63.854324089050415 -20.927171457352461 9.7486468286815349 #
point $-1 -63.854324089050415 -20.927171457352461 -9.7486468286815349 #
point $-1 -63.854324089050415 -25.078029662998357 9.7486468286815349 #
straight-curve $-1 -58.324452000883738 -25.078029662998357 -9.7486468286815349 -1 0 0 I I #
straight-curve $-1 -41.734835736383715 -25.078029662998357 47.92105473384791 0 0 -1 I I #
point $-1 -41.734835736383715 -25.078029662998357 9.7486468286815349 #
straight-curve $-1 -15.04371262349005 -25.078029662998357 5.3345347913962344 1 0 0 I I #
point $-1 -41.734835736383715 -25.078029662998357 5.3345347913962353 #
point $-1 -35.079172599581653 -19.232900117997367 3.9268231664714275 #
point $-1 -25.095677894378554 -19.232900117997367 3.9268231664714275 #
straight-curve $-1 5.5298720881666732 -25.078029662998357 47.92105473384791 0 0 -1 I I #
point $-1 5.5298720881666732 -25.078029662998357 9.7486468286815349 #
straight-curve $-1 8.5886412887851442 -25.078029662998357 5.3345347913962344 1 0 0 I I #
point $-1 5.5298720881666732 -25.078029662998357 5.3345347913962353 #
point $-1 12.185535224968739 -19.232900117997367 3.9268231664714275 #
point $-1 22.169029930171838 -19.232900117997367 3.9268231664714275 #
straight-curve $-1 27.049347484738817 25.078029662998357 58.643095201340543 0 0 -1 I I #
point $-1 27.049347484738817 25.078029662998357 9.7486468286815349 #
straight-curve $-1 10.988921518480485 25.078029662998361 1.1628424938119721 -1 0 0 I I #
point $-1 27.049347484738817 25.078029662998354 1.1628424938119757 #
point $-1 19.804341130770474 17.093918145874948 3.6729206980350977 #
point $-1 24.151344943151493 17.093918145874948 3.6729206980350977 #
straight-curve $-1 -63.854324089050415 -25.078029662998357 0 0 0 -1 I I #
point $-1 -63.854324089050415 -25.078029662998357 -9.7486468286815349 #
End-of-ACIS-data 