500 0 9 0           
7 Unknown 11 ACIS 5.0 NT 24 Fri Mar 26 19:48:16 1999 
-1 9.9999999999999995e-007 1e-010 
body $-1 $9 $-1 $10 #
body $-1 $11 $-1 $12 #
body $-1 $13 $-1 $14 #
body $-1 $15 $-1 $16 #
body $-1 $17 $-1 $18 #
body $-1 $19 $-1 $20 #
body $-1 $21 $-1 $22 #
body $-1 $23 $-1 $24 #
body $-1 $25 $-1 $26 #
lump $-1 $-1 $27 $0 #
transform $-1 1 0 0 0 1 0 0 0 1 48.722190008239998 22.208171058902838 6.5121240878095685 1 rotate no_reflect no_shear #
lump $-1 $-1 $28 $1 #
transform $-1 1 0 0 0 1 0 0 0 1 48.722190008239998 22.208171058902838 6.5121240878095685 1 rotate no_reflect no_shear #
lump $-1 $-1 $29 $2 #
transform $-1 1 0 0 0 1 0 0 0 1 48.722190008239998 22.208171058902838 6.5121240878095685 1 rotate no_reflect no_shear #
lump $-1 $-1 $30 $3 #
transform $-1 1 0 0 0 1 0 0 0 1 48.722190008239998 22.208171058902838 6.5121240878095685 1 rotate no_reflect no_shear #
lump $-1 $-1 $31 $4 #
transform $-1 1 0 0 0 1 0 0 0 1 48.722190008239998 22.208171058902838 6.5121240878095685 1 rotate no_reflect no_shear #
lump $-1 $-1 $32 $5 #
transform $-1 1 0 0 0 1 0 0 0 1 48.722190008239998 22.208171058902838 6.5121240878095685 1 rotate no_reflect no_shear #
lump $-1 $-1 $33 $6 #
transform $-1 1 0 0 0 1 0 0 0 1 48.722190008239998 22.208171058902838 6.5121240878095685 1 rotate no_reflect no_shear #
lump $-1 $-1 $34 $7 #
transform $-1 1 0 0 0 1 0 0 0 1 48.722190008239998 22.208171058902838 6.5121240878095685 1 rotate no_reflect no_shear #
lump $-1 $-1 $35 $8 #
transform $-1 1 0 0 0 1 0 0 0 1 48.722190008239998 22.208171058902838 6.5121240878095685 1 rotate no_reflect no_shear #
shell $-1 $-1 $-1 $36 $-1 $9 #
shell $-1 $-1 $-1 $37 $-1 $11 #
shell $-1 $-1 $-1 $38 $-1 $13 #
shell $-1 $-1 $-1 $39 $-1 $15 #
shell $-1 $-1 $-1 $40 $-1 $17 #
shell $-1 $-1 $-1 $41 $-1 $19 #
shell $-1 $-1 $-1 $42 $-1 $21 #
shell $-1 $-1 $-1 $43 $-1 $23 #
shell $-1 $-1 $-1 $44 $-1 $25 #
face $-1 $45 $46 $27 $-1 $47 forward single #
face $-1 $48 $49 $28 $-1 $50 reversed single #
face $-1 $51 $52 $29 $-1 $53 reversed single #
face $-1 $54 $55 $30 $-1 $56 forward single #
face $-1 $57 $58 $31 $-1 $59 forward single #
face $-1 $60 $61 $32 $-1 $62 reversed single #
face $-1 $63 $64 $33 $-1 $65 forward single #
face $-1 $66 $67 $34 $-1 $68 forward single #
face $-1 $69 $70 $35 $-1 $71 forward single #
face $-1 $72 $73 $27 $-1 $74 reversed single #
loop $-1 $-1 $75 $36 #
plane-surface $-1 0 0 6.5121240878095685 0 0 1 1 0 0 forward_v I I I I #
face $-1 $76 $77 $28 $-1 $78 reversed single #
loop $-1 $-1 $79 $37 #
plane-surface $-1 0 -18.801131955585038 3.5121240878095685 0 0 1 1 0 0 forward_v I I I I #
face $-1 $80 $81 $29 $-1 $82 reversed single #
loop $-1 $-1 $83 $38 #
plane-surface $-1 -48.722190008239984 -10.903860596766981 1.1163296113326311 -0.50000000669873634 0 0.8660253999169214 0.8660253999169214 0 0.50000000669873634 forward_v I I I I #
face $-1 $84 $85 $30 $-1 $86 forward single #
loop $-1 $87 $88 $39 #
cone-surface $-1 -43.109515637717372 -12.828245849124233 2.1864812726985372 0.50000000669873634 0 -0.8660253999169214 0.8660253999169214 0 0.50000000669873634 1 I I 0 1 1 forward I I I I #
face $-1 $89 $90 $31 $-1 $91 forward single #
loop $-1 $92 $93 $40 #
cone-surface $-1 -43.109515637717372 -8.9794753444097282 2.1864812726985372 0.50000000669873634 0 -0.8660253999169214 0.8660253999169214 0 0.50000000669873634 1 I I 0 1 1 forward I I I I #
face $-1 $94 $95 $32 $-1 $96 reversed single #
loop $-1 $-1 $97 $41 #
plane-surface $-1 70.279981850507824 13.452234327446238 137.77928866259603 0 -1 0 -0.80901700255871778 0 -0.5877852410284794 forward_v I I I I #
face $-1 $98 $99 $33 $-1 $100 forward single #
loop $-1 $101 $102 $42 #
cone-surface $-1 46.558226575393157 6.8101286960771326 3.7965494386972218 -0.80901700255871778 0 -0.5877852410284794 0.2938926205142397 0 -0.40450850127935889 1 I I 0 1 0.5 forward I I I I #
face $-1 $103 $104 $34 $-1 $105 forward single #
loop $-1 $106 $107 $43 #
cone-surface $-1 46.558226575393157 9.3009183078405471 3.7965494386972218 -0.80901700255871778 0 -0.5877852410284794 0.2938926205142397 0 -0.40450850127935889 1 I I 0 1 0.5 forward I I I I #
face $-1 $108 $109 $35 $-1 $110 forward single #
loop $-1 $111 $112 $44 #
cone-surface $-1 46.558226575393157 11.791707919603962 3.7965494386972218 -0.80901700255871778 0 -0.5877852410284794 0.2938926205142397 0 -0.40450850127935889 1 I I 0 1 0.5 forward I I I I #
face $-1 $113 $114 $27 $-1 $115 reversed single #
loop $-1 $-1 $116 $45 #
plane-surface $-1 0 0 -6.5121240878095685 0 0 1 1 0 0 forward_v I I I I #
coedge $-1 $117 $118 $119 $120 forward $46 $-1 #
face $-1 $121 $122 $28 $-1 $123 reversed single #
loop $-1 $-1 $124 $48 #
plane-surface $-1 0 -15.394092852267239 5.0121240878095685 0 -1 0 0 0 -1 forward_v I I I I #
coedge $-1 $125 $126 $127 $128 reversed $49 $-1 #
face $-1 $129 $130 $29 $-1 $131 forward single #
loop $-1 $-1 $132 $51 #
plane-surface $-1 -97.444380669234192 -6.4136283412667243 85.505637784761191 0 -1 0 0.50000000669873634 0 -0.8660253999169214 forward_v I I I I #
coedge $-1 $133 $134 $135 $136 reversed $52 $-1 #
face $-1 $-1 $137 $30 $-1 $138 forward single #
loop $-1 $139 $140 $54 #
cone-surface $-1 -41.919736270600851 -12.828245849124233 0.1257229958675099 0.50000000669873634 0 -0.8660253999169214 0.4330126999584607 0 0.25000000334936817 1 I I -0.70710678118654746 0.70710678118654746 0.5 forward I I I I #
loop $-1 $-1 $141 $39 #
coedge $-1 $88 $88 $142 $143 reversed $55 $-1 #
face $-1 $-1 $144 $31 $-1 $145 forward single #
loop $-1 $146 $147 $57 #
cone-surface $-1 -41.919736270600851 -8.9794753444097282 0.1257229958675099 0.50000000669873634 0 -0.8660253999169214 0.4330126999584607 0 0.25000000334936817 1 I I -0.70710678118654746 0.70710678118654746 0.5 forward I I I I #
loop $-1 $-1 $148 $40 #
coedge $-1 $93 $93 $149 $150 reversed $58 $-1 #
face $-1 $151 $152 $32 $-1 $153 reversed single #
loop $-1 $-1 $154 $60 #
plane-surface $-1 -8.554178386617437 9.3009183078405471 80.502920267738602 0.80901700255871778 0 0.5877852410284794 0.5877852410284794 0 -0.80901700255871778 forward_v I I I I #
coedge $-1 $155 $156 $157 $158 reversed $61 $-1 #
face $-1 $-1 $159 $33 $-1 $160 forward single #
loop $-1 $161 $162 $63 #
cone-surface $-1 45.951463823474121 6.8101286960771326 3.3557105079258625 -0.80901700255871778 0 -0.5877852410284794 0.14694631025711985 0 -0.20225425063967944 1 I I -0.70710678118654746 0.70710678118654746 0.25 forward I I I I #
loop $-1 $-1 $163 $42 #
coedge $-1 $102 $102 $164 $165 reversed $64 $-1 #
face $-1 $-1 $166 $34 $-1 $167 forward single #
loop $-1 $168 $169 $66 #
cone-surface $-1 45.951463823474121 9.3009183078405471 3.3557105079258625 -0.80901700255871778 0 -0.5877852410284794 0.14694631025711985 0 -0.20225425063967944 1 I I -0.70710678118654746 0.70710678118654746 0.25 forward I I I I #
loop $-1 $-1 $170 $43 #
coedge $-1 $107 $107 $171 $172 reversed $67 $-1 #
face $-1 $-1 $173 $35 $-1 $174 forward single #
loop $-1 $175 $176 $69 #
cone-surface $-1 45.951463823474121 11.791707919603962 3.3557105079258625 -0.80901700255871778 0 -0.5877852410284794 0.14694631025711985 0 -0.20225425063967944 1 I I -0.70710678118654746 0.70710678118654746 0.25 forward I I I I #
loop $-1 $-1 $177 $44 #
coedge $-1 $112 $112 $178 $179 reversed $70 $-1 #
face $-1 $180 $181 $27 $-1 $182 reversed single #
loop $-1 $-1 $183 $72 #
plane-surface $-1 0 -22.208171058902838 0 0 1 0 0 0 1 forward_v I I I I #
coedge $-1 $184 $185 $186 $187 forward $73 $-1 #
coedge $-1 $188 $75 $189 $190 forward $46 $-1 #
coedge $-1 $75 $188 $191 $192 forward $46 $-1 #
coedge $-1 $193 $194 $75 $120 reversed $195 $-1 #
edge $-1 $196 -22.208171058902838 $197 22.208171058902838 $119 $198 forward 7 unknown #
face $-1 $199 $200 $28 $-1 $201 reversed single #
loop $-1 $-1 $202 $76 #
plane-surface $-1 -48.722190008239998 0 0 1 0 0 0 0 -1 forward_v I I I I #
coedge $-1 $203 $204 $205 $206 reversed $77 $-1 #
coedge $-1 $207 $79 $208 $209 reversed $49 $-1 #
coedge $-1 $79 $207 $210 $211 forward $49 $-1 #
coedge $-1 $212 $213 $79 $128 forward $214 $-1 #
edge $-1 $215 -12.807605081110319 $216 -5.9935268744747194 $127 $217 forward 7 unknown #
face $-1 $218 $219 $29 $-1 $220 reversed single #
loop $-1 $-1 $135 $80 #
plane-surface $-1 0 0 6.5121240878095685 0 0 1 1 0 0 forward_v I I I I #
coedge $-1 $221 $222 $223 $224 reversed $81 $-1 #
coedge $-1 $225 $83 $226 $227 reversed $52 $-1 #
coedge $-1 $83 $225 $221 $228 forward $52 $-1 #
coedge $-1 $223 $229 $83 $136 forward $130 $-1 #
edge $-1 $230 -9.9421625538837475 $231 -0.96169804288323402 $135 $232 forward 7 unknown #
loop $-1 $-1 $142 $84 #
plane-surface $-1 -48.722190008239984 -10.903860596766981 1.1163296113326311 -0.50000000669873634 0 0.8660253999169214 0.8660253999169214 0 0.50000000669873634 forward_v I I I I #
loop $-1 $-1 $233 $54 #
coedge $-1 $140 $140 $141 $234 reversed $85 $-1 #
coedge $-1 $141 $141 $140 $234 forward $87 $-1 #
coedge $-1 $142 $142 $88 $143 forward $137 $-1 #
edge $-1 $235 0 $235 6.2831853071796004 $142 $236 forward 7 unknown #
loop $-1 $-1 $149 $89 #
plane-surface $-1 -48.722190008239984 -10.903860596766981 1.1163296113326311 -0.50000000669873634 0 0.8660253999169214 0.8660253999169214 0 0.50000000669873634 forward_v I I I I #
loop $-1 $-1 $237 $57 #
coedge $-1 $147 $147 $148 $238 reversed $90 $-1 #
coedge $-1 $148 $148 $147 $238 forward $92 $-1 #
coedge $-1 $149 $149 $93 $150 forward $144 $-1 #
edge $-1 $239 0 $239 6.2831853071796004 $149 $240 forward 7 unknown #
face $-1 $241 $242 $32 $-1 $243 reversed single #
loop $-1 $-1 $244 $94 #
plane-surface $-1 70.279981850507824 5.1496022882348562 137.77928866259603 0 1 0 0.80901700255871778 0 0.5877852410284794 forward_v I I I I #
coedge $-1 $245 $246 $247 $248 reversed $95 $-1 #
coedge $-1 $156 $97 $249 $250 reversed $61 $-1 #
coedge $-1 $97 $155 $245 $251 reversed $61 $-1 #
coedge $-1 $247 $252 $97 $158 forward $253 $-1 #
edge $-1 $254 -13.582199082986087 $255 -10.063289219851121 $157 $256 forward 7 unknown #
loop $-1 $-1 $164 $98 #
plane-surface $-1 -8.554178386617437 9.3009183078405471 80.502920267738602 0.80901700255871778 0 0.5877852410284794 0.5877852410284794 0 -0.80901700255871778 forward_v I I I I #
loop $-1 $-1 $257 $63 #
coedge $-1 $162 $162 $163 $258 reversed $99 $-1 #
coedge $-1 $163 $163 $162 $258 forward $101 $-1 #
coedge $-1 $164 $164 $102 $165 forward $159 $-1 #
edge $-1 $259 0 $259 6.2831853071796004 $164 $260 forward 7 unknown #
loop $-1 $-1 $171 $103 #
plane-surface $-1 -8.554178386617437 9.3009183078405471 80.502920267738602 0.80901700255871778 0 0.5877852410284794 0.5877852410284794 0 -0.80901700255871778 forward_v I I I I #
loop $-1 $-1 $261 $66 #
coedge $-1 $169 $169 $170 $262 reversed $104 $-1 #
coedge $-1 $170 $170 $169 $262 forward $106 $-1 #
coedge $-1 $171 $171 $107 $172 forward $166 $-1 #
edge $-1 $263 0 $263 6.2831853071796004 $171 $264 forward 7 unknown #
loop $-1 $-1 $178 $108 #
plane-surface $-1 -8.554178386617437 9.3009183078405471 80.502920267738602 0.80901700255871778 0 0.5877852410284794 0.5877852410284794 0 -0.80901700255871778 forward_v I I I I #
loop $-1 $-1 $265 $69 #
coedge $-1 $176 $176 $177 $266 reversed $109 $-1 #
coedge $-1 $177 $177 $176 $266 forward $111 $-1 #
coedge $-1 $178 $178 $112 $179 forward $173 $-1 #
edge $-1 $267 0 $267 6.2831853071796004 $178 $268 forward 7 unknown #
face $-1 $269 $270 $27 $-1 $271 reversed single #
loop $-1 $-1 $272 $113 #
plane-surface $-1 -48.722190008239998 0 0 1 0 0 0 0 -1 forward_v I I I I #
coedge $-1 $273 $191 $274 $275 forward $114 $-1 #
coedge $-1 $276 $116 $273 $277 forward $73 $-1 #
coedge $-1 $116 $276 $278 $279 forward $73 $-1 #
coedge $-1 $194 $193 $116 $187 reversed $195 $-1 #
edge $-1 $280 -22.208171058902838 $281 22.208171058902838 $186 $282 forward 7 unknown #
coedge $-1 $118 $117 $283 $284 forward $46 $-1 #
coedge $-1 $285 $286 $117 $190 reversed $270 $-1 #
edge $-1 $197 -48.722190008239998 $287 48.722190008239998 $189 $288 forward 7 unknown #
coedge $-1 $183 $289 $118 $192 reversed $114 $-1 #
edge $-1 $290 -48.722190008239998 $196 48.722190008239998 $191 $291 forward 7 unknown #
coedge $-1 $186 $119 $289 $292 forward $195 $-1 #
coedge $-1 $119 $186 $285 $293 reversed $195 $-1 #
loop $-1 $-1 $193 $269 #
vertex $-1 $120 $294 #
vertex $-1 $120 $295 #
straight-curve $-1 48.722190008239998 0 6.5121240878095685 0 1 0 I I #
face $-1 $296 $297 $28 $-1 $298 forward single #
loop $-1 $-1 $208 $121 #
plane-surface $-1 0 -22.208171058902838 0 0 1 0 0 0 1 forward_v I I I I #
coedge $-1 $299 $300 $204 $301 forward $122 $-1 #
coedge $-1 $210 $124 $212 $302 reversed $77 $-1 #
coedge $-1 $124 $210 $202 $301 reversed $77 $-1 #
coedge $-1 $303 $304 $124 $206 forward $297 $-1 #
edge $-1 $305 -48.722190008239998 $306 48.722190008239998 $205 $307 forward 7 unknown #
coedge $-1 $126 $125 $299 $308 reversed $49 $-1 #
coedge $-1 $309 $310 $125 $209 forward $200 $-1 #
edge $-1 $311 -48.722190008239998 $215 48.722190008239998 $208 $312 forward 7 unknown #
coedge $-1 $204 $203 $126 $211 reversed $77 $-1 #
edge $-1 $313 -48.722190008239998 $216 48.722190008239998 $210 $314 forward 7 unknown #
coedge $-1 $315 $127 $203 $302 forward $214 $-1 #
coedge $-1 $127 $315 $309 $316 forward $214 $-1 #
loop $-1 $-1 $212 $296 #
vertex $-1 $209 $317 #
vertex $-1 $128 $318 #
straight-curve $-1 48.722190008239998 -9.4005659777925192 3.5121240878095685 0 1 0 I I #
face $-1 $-1 $319 $29 $-1 $320 forward single #
loop $-1 $-1 $321 $129 #
plane-surface $-1 -48.722190008239998 0 0 1 0 0 0 0 -1 forward_v I I I I #
coedge $-1 $222 $132 $134 $228 reversed $81 $-1 #
coedge $-1 $132 $221 $321 $322 reversed $81 $-1 #
coedge $-1 $323 $135 $132 $224 forward $130 $-1 #
edge $-1 $231 -9.3457903398880546 $324 -3.2637709779237412e-007 $223 $325 forward 7 unknown #
coedge $-1 $134 $133 $326 $327 reversed $52 $-1 #
coedge $-1 $328 $329 $133 $227 forward $319 $-1 #
edge $-1 $330 -22.071275675524834 $230 -11.279686867150959 $226 $331 forward 7 unknown #
edge $-1 $332 -1.641478638404164e-014 $231 10.791588808373858 $221 $333 forward 7 unknown #
coedge $-1 $135 $323 $328 $334 forward $130 $-1 #
vertex $-1 $227 $335 #
vertex $-1 $136 $336 #
straight-curve $-1 -39.376399994729042 -5.4519302983834903 6.5121240878095694 0 1 0 I I #
coedge $-1 $233 $233 $-1 $337 reversed $139 $-1 #
edge $-1 $338 0 $338 6.2831853071796004 $140 $339 forward 7 unknown #
vertex $-1 $143 $340 #
ellipse-curve $-1 -44.049295001484523 -12.828245849124233 3.8142268495710936 -0.50000000669873634 0 0.8660253999169214 0.8660253999169214 0 0.50000000669873634 1 I I #
coedge $-1 $237 $237 $-1 $341 reversed $146 $-1 #
edge $-1 $342 0 $342 6.2831853071796004 $147 $343 forward 7 unknown #
vertex $-1 $150 $344 #
ellipse-curve $-1 -44.049295001484523 -8.9794753444097282 3.8142268495710936 -0.50000000669873634 0 0.8660253999169214 0.8660253999169214 0 0.50000000669873634 1 I I #
face $-1 $-1 $253 $32 $-1 $345 forward single #
loop $-1 $-1 $346 $151 #
plane-surface $-1 48.722190008239998 0 0 -1 0 0 0 0 1 forward_v I I I I #
coedge $-1 $347 $348 $349 $350 reversed $152 $-1 #
coedge $-1 $351 $154 $156 $251 forward $95 $-1 #
coedge $-1 $154 $351 $347 $352 forward $95 $-1 #
coedge $-1 $349 $157 $154 $248 forward $253 $-1 #
edge $-1 $255 -8.8017751735259644 $353 -0.49914313431458268 $247 $354 forward 7 unknown #
coedge $-1 $355 $356 $155 $250 forward $242 $-1 #
edge $-1 $357 -67.220884300684673 $254 -62.377520243488448 $249 $358 forward 7 unknown #
edge $-1 $255 91.457652862566192 $357 97.444380016479997 $156 $359 forward 7 unknown #
coedge $-1 $157 $349 $355 $360 forward $253 $-1 #
loop $-1 $-1 $349 $241 #
vertex $-1 $250 $361 #
vertex $-1 $158 $362 #
straight-curve $-1 35.139990925253912 13.452234327446238 6.5121240878095676 -1 0 0 I I #
coedge $-1 $257 $257 $-1 $363 reversed $161 $-1 #
edge $-1 $364 0 $364 6.2831853071796004 $162 $365 forward 7 unknown #
vertex $-1 $165 $366 #
ellipse-curve $-1 46.962735076672509 6.8101286960771326 4.0904420592114574 0.80901700255871778 0 0.5877852410284794 0.2938926205142397 0 -0.40450850127935889 1 I I #
coedge $-1 $261 $261 $-1 $367 reversed $168 $-1 #
edge $-1 $368 0 $368 6.2831853071796004 $169 $369 forward 7 unknown #
vertex $-1 $172 $370 #
ellipse-curve $-1 46.962735076672509 9.3009183078405471 4.0904420592114574 0.80901700255871778 0 0.5877852410284794 0.2938926205142397 0 -0.40450850127935889 1 I I #
coedge $-1 $265 $265 $-1 $371 reversed $175 $-1 #
edge $-1 $372 0 $372 6.2831853071796004 $176 $373 forward 7 unknown #
vertex $-1 $179 $374 #
ellipse-curve $-1 46.962735076672509 11.791707919603962 4.0904420592114574 0.80901700255871778 0 0.5877852410284794 0.2938926205142397 0 -0.40450850127935889 1 I I #
face $-1 $-1 $195 $27 $-1 $375 reversed single #
loop $-1 $-1 $285 $180 #
plane-surface $-1 0 22.208171058902838 0 0 -1 0 0 0 -1 forward_v I I I I #
coedge $-1 $376 $283 $286 $377 forward $181 $-1 #
coedge $-1 $289 $183 $184 $277 reversed $114 $-1 #
coedge $-1 $283 $376 $183 $275 reversed $181 $-1 #
edge $-1 $290 -6.5121240878095685 $378 6.5121240878095685 $274 $379 forward 7 unknown #
coedge $-1 $185 $184 $376 $380 forward $73 $-1 #
edge $-1 $281 -48.722190008239998 $378 48.722190008239998 $273 $381 forward 7 unknown #
coedge $-1 $286 $285 $185 $279 reversed $270 $-1 #
edge $-1 $382 -48.722190008239998 $280 48.722190008239998 $278 $383 forward 7 unknown #
vertex $-1 $187 $384 #
vertex $-1 $292 $385 #
straight-curve $-1 48.722190008239998 0 -6.5121240878095685 0 -1 0 I I #
coedge $-1 $272 $274 $188 $284 reversed $181 $-1 #
edge $-1 $287 -22.208171058902838 $290 22.208171058902838 $283 $386 forward 7 unknown #
coedge $-1 $278 $189 $194 $293 forward $270 $-1 #
coedge $-1 $189 $278 $272 $377 reversed $270 $-1 #
vertex $-1 $190 $387 #
straight-curve $-1 0 22.208171058902838 6.5121240878095685 -1 0 0 I I #
coedge $-1 $191 $273 $193 $292 reversed $114 $-1 #
vertex $-1 $284 $388 #
straight-curve $-1 0 -22.208171058902838 6.5121240878095685 1 0 0 I I #
edge $-1 $196 -6.5121240878095685 $281 6.5121240878095685 $193 $389 forward 7 unknown #
edge $-1 $197 -6.5121240878095685 $280 6.5121240878095685 $194 $390 forward 7 unknown #
point $-1 48.722190008239998 -22.208171058902838 6.5121240878095685 #
point $-1 48.722190008239998 22.208171058902838 6.5121240878095685 #
face $-1 $-1 $214 $28 $-1 $391 reversed single #
loop $-1 $-1 $205 $199 #
plane-surface $-1 0 0 6.5121240878095685 0 0 1 1 0 0 forward_v I I I I #
coedge $-1 $392 $202 $207 $308 forward $122 $-1 #
coedge $-1 $202 $392 $303 $393 reversed $122 $-1 #
edge $-1 $306 -4.0060620439047838 $313 -1.0060620439047843 $202 $394 forward 7 unknown #
edge $-1 $216 1.0060620439047843 $305 4.0060620439047838 $212 $395 forward 7 unknown #
coedge $-1 $396 $205 $300 $393 forward $297 $-1 #
coedge $-1 $205 $396 $315 $397 forward $297 $-1 #
vertex $-1 $302 $398 #
vertex $-1 $393 $399 #
straight-curve $-1 0 -15.394092852267239 6.5121240878095685 -1 0 0 I I #
edge $-1 $313 5.9935268744747194 $311 12.807605081110319 $299 $400 forward 7 unknown #
coedge $-1 $401 $208 $213 $316 reversed $200 $-1 #
coedge $-1 $208 $401 $392 $402 forward $200 $-1 #
vertex $-1 $209 $403 #
straight-curve $-1 0 -22.208171058902838 3.5121240878095685 1 0 0 I I #
vertex $-1 $308 $404 #
straight-curve $-1 0 -15.394092852267239 3.5121240878095685 1 0 0 I I #
coedge $-1 $213 $212 $304 $397 reversed $214 $-1 #
edge $-1 $405 -6.5121240878095685 $215 -3.5121240878095685 $213 $406 forward 7 unknown #
point $-1 48.722190008239998 -22.208171058902838 3.5121240878095685 #
point $-1 48.722190008239998 -15.394092852267239 3.5121240878095685 #
loop $-1 $-1 $226 $218 #
plane-surface $-1 0 -15.394092852267239 5.0121240878095685 0 -1 0 0 0 -1 forward_v I I I I #
coedge $-1 $326 $407 $222 $322 forward $219 $-1 #
edge $-1 $324 36.240694804571028 $332 41.636489281047972 $321 $408 forward 7 unknown #
coedge $-1 $229 $223 $407 $409 forward $130 $-1 #
vertex $-1 $409 $410 #
straight-curve $-1 -48.722190334617096 -6.4136283412667243 6.5121240878095676 -1 0 0 I I #
coedge $-1 $411 $321 $225 $327 forward $219 $-1 #
edge $-1 $332 0.96169804288323402 $330 9.9421625538837475 $326 $412 forward 7 unknown #
coedge $-1 $329 $226 $229 $334 reversed $319 $-1 #
coedge $-1 $226 $328 $411 $413 reversed $319 $-1 #
vertex $-1 $413 $414 #
straight-curve $-1 -29.607904664666986 -15.394092852267239 12.151967596944695 0.8660253999169214 0 0.50000000669873634 I I #
vertex $-1 $327 $415 #
straight-curve $-1 -48.722190008239984 -6.4136283412667243 1.1163296113326311 0.8660253999169214 0 0.50000000669873634 I I #
edge $-1 $416 -48.722190008239998 $230 -39.376399994729042 $229 $417 forward 7 unknown #
point $-1 -39.376399994729042 -15.394092852267239 6.5121240878095685 #
point $-1 -39.376399994729042 -6.4136283412667243 6.5121240878095685 #
edge $-1 $418 1 $418 0 $233 $-1 forward 7 unknown #
vertex $-1 $234 $419 #
ellipse-curve $-1 -42.169736273950221 -12.828245849124233 0.5587356958259706 -0.50000000669873634 0 0.8660253999169214 0.8660253999169214 0 0.50000000669873634 1 I I #
point $-1 -43.183269601567609 -12.828245849124233 4.3142268562698405 #
edge $-1 $420 1 $420 0 $237 $-1 forward 7 unknown #
vertex $-1 $238 $421 #
ellipse-curve $-1 -42.169736273950221 -8.9794753444097282 0.5587356958259706 -0.50000000669873634 0 0.8660253999169214 0.8660253999169214 0 0.50000000669873634 1 I I #
point $-1 -43.183269601567609 -8.9794753444097282 4.3142268562698405 #
plane-surface $-1 0 0 6.5121240878095685 0 0 1 1 0 0 forward_v I I I I #
coedge $-1 $356 $355 $348 $422 forward $242 $-1 #
coedge $-1 $348 $244 $246 $352 reversed $152 $-1 #
coedge $-1 $244 $347 $346 $422 reversed $152 $-1 #
coedge $-1 $252 $247 $244 $350 forward $253 $-1 #
edge $-1 $353 10.063289219851121 $423 13.582199082986087 $349 $424 forward 7 unknown #
coedge $-1 $246 $245 $356 $425 reversed $95 $-1 #
edge $-1 $426 -97.444380016479997 $353 -91.457652862566192 $347 $427 forward 7 unknown #
vertex $-1 $248 $428 #
straight-curve $-1 45.203280145105033 4.6504591539202735 6.5121240878095676 0 -1 0 I I #
coedge $-1 $346 $249 $252 $360 reversed $242 $-1 #
coedge $-1 $249 $346 $351 $425 forward $242 $-1 #
vertex $-1 $250 $429 #
straight-curve $-1 48.722190008239998 13.452234327446238 68.889644331298015 0 0 1 I I #
straight-curve $-1 -8.554178386617437 13.452234327446238 80.502920267738602 0.5877852410284794 0 -0.80901700255871778 I I #
edge $-1 $423 5.1496022882348562 $254 13.452234327446238 $355 $430 forward 7 unknown #
point $-1 48.722190008239998 13.452234327446238 6.5121240878095685 #
point $-1 45.203280145105033 13.452234327446238 6.5121240878095676 #
edge $-1 $431 1 $431 0 $257 $-1 forward 7 unknown #
vertex $-1 $258 $432 #
ellipse-curve $-1 46.153718074113797 6.8101286960771326 3.5026568181829822 0.80901700255871778 0 0.5877852410284794 0.2938926205142397 0 -0.40450850127935889 1 I I #
point $-1 47.256627697186758 6.8101286960771326 3.6859335579321026 #
edge $-1 $433 1 $433 0 $261 $-1 forward 7 unknown #
vertex $-1 $262 $434 #
ellipse-curve $-1 46.153718074113797 9.3009183078405471 3.5026568181829822 0.80901700255871778 0 0.5877852410284794 0.2938926205142397 0 -0.40450850127935889 1 I I #
point $-1 47.256627697186758 9.3009183078405471 3.6859335579321026 #
edge $-1 $435 1 $435 0 $265 $-1 forward 7 unknown #
vertex $-1 $266 $436 #
ellipse-curve $-1 46.153718074113797 11.791707919603962 3.5026568181829822 0.80901700255871778 0 0.5877852410284794 0.2938926205142397 0 -0.40450850127935889 1 I I #
point $-1 47.256627697186758 11.791707919603962 3.6859335579321026 #
plane-surface $-1 48.722190008239998 0 0 -1 0 0 0 0 1 forward_v I I I I #
coedge $-1 $274 $272 $276 $380 reversed $181 $-1 #
edge $-1 $287 -6.5121240878095685 $382 6.5121240878095685 $286 $437 forward 7 unknown #
vertex $-1 $380 $438 #
straight-curve $-1 -48.722190008239998 -22.208171058902838 0 0 0 -1 I I #
edge $-1 $378 -22.208171058902838 $382 22.208171058902838 $376 $439 forward 7 unknown #
straight-curve $-1 0 -22.208171058902838 -6.5121240878095685 -1 0 0 I I #
vertex $-1 $279 $440 #
straight-curve $-1 0 22.208171058902838 -6.5121240878095685 1 0 0 I I #
point $-1 48.722190008239998 22.208171058902838 -6.5121240878095685 #
point $-1 48.722190008239998 -22.208171058902838 -6.5121240878095685 #
straight-curve $-1 -48.722190008239998 0 6.5121240878095685 0 -1 0 I I #
point $-1 -48.722190008239998 22.208171058902838 6.5121240878095685 #
point $-1 -48.722190008239998 -22.208171058902838 6.5121240878095685 #
straight-curve $-1 48.722190008239998 -22.208171058902838 0 0 0 -1 I I #
straight-curve $-1 48.722190008239998 22.208171058902838 0 0 0 -1 I I #
plane-surface $-1 48.722190008239998 0 0 -1 0 0 0 0 1 forward_v I I I I #
coedge $-1 $300 $299 $310 $402 reversed $122 $-1 #
edge $-1 $306 15.394092852267239 $441 22.208171058902838 $300 $442 forward 7 unknown #
straight-curve $-1 -48.722190008239998 -15.394092852267239 2.5060620439047843 0 0 -1 I I #
straight-curve $-1 48.722190008239998 -15.394092852267239 2.5060620439047843 0 0 1 I I #
coedge $-1 $304 $303 $401 $443 forward $297 $-1 #
edge $-1 $405 -22.208171058902838 $305 -15.394092852267239 $315 $444 forward 7 unknown #
point $-1 48.722190008239998 -15.394092852267239 6.5121240878095685 #
point $-1 -48.722190008239998 -15.394092852267239 6.5121240878095685 #
straight-curve $-1 -48.722190008239998 -9.4005659777925192 3.5121240878095685 0 -1 0 I I #
coedge $-1 $310 $309 $396 $443 reversed $200 $-1 #
edge $-1 $441 -6.5121240878095685 $311 -3.5121240878095685 $392 $445 forward 7 unknown #
point $-1 -48.722190008239998 -22.208171058902838 3.5121240878095685 #
point $-1 -48.722190008239998 -15.394092852267239 3.5121240878095685 #
vertex $-1 $397 $446 #
straight-curve $-1 48.722190008239998 -22.208171058902838 0 0 0 -1 I I #
coedge $-1 $321 $411 $323 $409 reversed $219 $-1 #
straight-curve $-1 -48.722190008239998 -6.4136283412667243 42.752818892380596 0 0 -1 I I #
edge $-1 $324 6.4136283412667243 $416 15.394092852267239 $407 $447 forward 7 unknown #
point $-1 -48.722190008239998 -6.4136283412667243 6.5121240878095685 #
coedge $-1 $407 $326 $329 $413 forward $219 $-1 #
straight-curve $-1 -48.722190008239998 -5.4519302983834903 1.1163296113326229 0 -1 0 I I #
edge $-1 $330 -41.636489281047972 $416 -36.240694804571028 $411 $448 forward 7 unknown #
point $-1 -48.722190008239998 -15.394092852267237 1.1163296113326229 #
point $-1 -48.722190008239998 -6.4136283412667243 1.1163296113326229 #
vertex $-1 $413 $449 #
straight-curve $-1 0 -15.394092852267239 6.5121240878095685 1 0 0 I I #
vertex $-1 $337 $450 #
point $-1 -41.3037108740333 -12.828245849124233 1.0587357025247068 #
vertex $-1 $341 $451 #
point $-1 -41.3037108740333 -8.9794753444097282 1.0587357025247068 #
edge $-1 $423 62.377520243488448 $426 67.220884300684673 $346 $452 forward 7 unknown #
vertex $-1 $360 $453 #
straight-curve $-1 35.139990925253912 5.1496022882348562 6.5121240878095676 1 0 0 I I #
edge $-1 $426 0.49914313431458268 $357 8.8017751735259644 $356 $454 forward 7 unknown #
vertex $-1 $425 $455 #
straight-curve $-1 -8.554178386617437 5.1496022882348562 80.502920267738602 -0.5877852410284794 0 0.80901700255871778 I I #
point $-1 45.203280145105033 5.1496022882348562 6.5121240878095676 #
point $-1 48.722190008239998 13.452234327446238 1.6687600306133419 #
straight-curve $-1 48.722190008239998 0 6.5121240878095685 0 1 0 I I #
vertex $-1 $363 $456 #
point $-1 46.44761069462804 6.8101286960771326 3.0981483169036235 #
vertex $-1 $367 $457 #
point $-1 46.44761069462804 9.3009183078405471 3.0981483169036235 #
vertex $-1 $371 $458 #
point $-1 46.44761069462804 11.791707919603962 3.0981483169036235 #
straight-curve $-1 -48.722190008239998 22.208171058902838 0 0 0 -1 I I #
point $-1 -48.722190008239998 -22.208171058902838 -6.5121240878095685 #
straight-curve $-1 -48.722190008239998 0 -6.5121240878095685 0 1 0 I I #
point $-1 -48.722190008239998 22.208171058902838 -6.5121240878095685 #
vertex $-1 $393 $459 #
straight-curve $-1 -48.722190008239998 0 6.5121240878095685 0 -1 0 I I #
edge $-1 $441 -48.722190008239998 $405 48.722190008239998 $401 $460 forward 7 unknown #
straight-curve $-1 48.722190008239998 0 6.5121240878095685 0 1 0 I I #
straight-curve $-1 -48.722190008239998 -22.208171058902838 0 0 0 -1 I I #
point $-1 48.722190008239998 -22.208171058902838 6.5121240878095685 #
straight-curve $-1 -48.722190008239998 0 6.5121240878095685 0 -1 0 I I #
straight-curve $-1 -48.722190008239998 -15.394092852267237 42.752818892380596 0 0 1 I I #
point $-1 -48.722190008239998 -15.394092852267239 6.5121240878095685 #
point $-1 -41.66973626725148 -12.828245849124233 -0.3072897040909508 #
point $-1 -41.66973626725148 -8.9794753444097282 -0.3072897040909508 #
straight-curve $-1 48.722190008239998 5.1496022882348562 68.889644331298015 0 0 -1 I I #
point $-1 48.722190008239998 5.1496022882348562 6.5121240878095685 #
straight-curve $-1 48.722190008239991 4.6504591539202735 1.6687600306133348 0 1 0 I I #
point $-1 48.722190008239998 5.1496022882348562 1.6687600306133419 #
point $-1 45.749209572834445 6.8101286960771326 3.2087641976687427 #
point $-1 45.749209572834445 9.3009183078405471 3.2087641976687427 #
point $-1 45.749209572834445 11.791707919603962 3.2087641976687427 #
point $-1 -48.722190008239998 -22.208171058902838 6.5121240878095685 #
straight-curve $-1 0 -22.208171058902838 6.5121240878095685 1 0 0 I I #
End-of-ACIS-data 