500 0 14 0           
7 Unknown 11 ACIS 5.0 NT 24 Fri Mar 26 19:34:25 1999 
-1 9.9999999999999995e-007 1e-010 
body $-1 $14 $-1 $15 #
body $-1 $16 $-1 $17 #
body $-1 $18 $-1 $19 #
body $-1 $20 $-1 $21 #
body $-1 $22 $-1 $23 #
body $-1 $24 $-1 $25 #
body $-1 $26 $-1 $27 #
body $-1 $28 $-1 $29 #
body $-1 $30 $-1 $31 #
body $-1 $32 $-1 $33 #
body $-1 $34 $-1 $35 #
body $-1 $36 $-1 $37 #
body $-1 $38 $-1 $39 #
body $-1 $40 $-1 $41 #
lump $-1 $-1 $42 $0 #
transform $-1 1 0 0 0 1 0 0 0 1 66.573076570940273 31.705257561108347 13.539103867421753 1 rotate no_reflect no_shear #
lump $-1 $-1 $43 $1 #
transform $-1 1 0 0 0 1 0 0 0 1 66.573076570940273 31.705257561108347 13.539103867421753 1 rotate no_reflect no_shear #
lump $-1 $-1 $44 $2 #
transform $-1 1 0 0 0 1 0 0 0 1 66.573076570940273 31.705257561108347 13.539103867421753 1 rotate no_reflect no_shear #
lump $-1 $-1 $45 $3 #
transform $-1 1 0 0 0 1 0 0 0 1 66.573076570940273 31.705257561108347 13.539103867421753 1 rotate no_reflect no_shear #
lump $-1 $-1 $46 $4 #
transform $-1 1 0 0 0 1 0 0 0 1 66.573076570940273 31.705257561108347 13.539103867421753 1 rotate no_reflect no_shear #
lump $-1 $-1 $47 $5 #
transform $-1 1 0 0 0 1 0 0 0 1 66.573076570940273 31.705257561108347 13.539103867421753 1 rotate no_reflect no_shear #
lump $-1 $-1 $48 $6 #
transform $-1 1 0 0 0 1 0 0 0 1 66.573076570940273 31.705257561108347 13.539103867421753 1 rotate no_reflect no_shear #
lump $-1 $-1 $49 $7 #
transform $-1 1 0 0 0 1 0 0 0 1 66.573076570940273 31.705257561108347 13.539103867421753 1 rotate no_reflect no_shear #
lump $-1 $-1 $50 $8 #
transform $-1 1 0 0 0 1 0 0 0 1 66.573076570940273 31.705257561108347 13.539103867421753 1 rotate no_reflect no_shear #
lump $-1 $-1 $51 $9 #
transform $-1 1 0 0 0 1 0 0 0 1 66.573076570940273 31.705257561108347 13.539103867421753 1 rotate no_reflect no_shear #
lump $-1 $-1 $52 $10 #
transform $-1 1 0 0 0 1 0 0 0 1 66.573076570940273 31.705257561108347 13.539103867421753 1 rotate no_reflect no_shear #
lump $-1 $-1 $53 $11 #
transform $-1 1 0 0 0 1 0 0 0 1 66.573076570940273 31.705257561108347 13.539103867421753 1 rotate no_reflect no_shear #
lump $-1 $-1 $54 $12 #
transform $-1 1 0 0 0 1 0 0 0 1 66.573076570940273 31.705257561108347 13.539103867421753 1 rotate no_reflect no_shear #
lump $-1 $-1 $55 $13 #
transform $-1 1 0 0 0 1 0 0 0 1 66.573076570940273 31.705257561108347 13.539103867421753 1 rotate no_reflect no_shear #
shell $-1 $-1 $-1 $56 $-1 $14 #
shell $-1 $-1 $-1 $57 $-1 $16 #
shell $-1 $-1 $-1 $58 $-1 $18 #
shell $-1 $-1 $-1 $59 $-1 $20 #
shell $-1 $-1 $-1 $60 $-1 $22 #
shell $-1 $-1 $-1 $61 $-1 $24 #
shell $-1 $-1 $-1 $62 $-1 $26 #
shell $-1 $-1 $-1 $63 $-1 $28 #
shell $-1 $-1 $-1 $64 $-1 $30 #
shell $-1 $-1 $-1 $65 $-1 $32 #
shell $-1 $-1 $-1 $66 $-1 $34 #
shell $-1 $-1 $-1 $67 $-1 $36 #
shell $-1 $-1 $-1 $68 $-1 $38 #
shell $-1 $-1 $-1 $69 $-1 $40 #
face $-1 $70 $71 $42 $-1 $72 forward single #
face $-1 $73 $74 $43 $-1 $75 reversed single #
face $-1 $76 $77 $44 $-1 $78 reversed single #
face $-1 $79 $80 $45 $-1 $81 forward single #
face $-1 $82 $83 $46 $-1 $84 forward single #
face $-1 $85 $86 $47 $-1 $87 reversed single #
face $-1 $88 $89 $48 $-1 $90 forward single #
face $-1 $91 $92 $49 $-1 $93 forward single #
face $-1 $94 $95 $50 $-1 $96 reversed single #
face $-1 $97 $98 $51 $-1 $99 forward single #
face $-1 $100 $101 $52 $-1 $102 forward single #
face $-1 $103 $104 $53 $-1 $105 reversed single #
face $-1 $106 $107 $54 $-1 $108 forward single #
face $-1 $109 $110 $55 $-1 $111 forward single #
face $-1 $112 $113 $42 $-1 $114 reversed single #
loop $-1 $-1 $115 $56 #
plane-surface $-1 0 0 13.539103867421753 0 0 1 1 0 0 forward_v I I I I #
face $-1 $116 $117 $43 $-1 $118 reversed single #
loop $-1 $-1 $119 $57 #
plane-surface $-1 -52.988584968205522 -23.184373558084346 0 1 0 0 0 0 -1 forward_v I I I I #
face $-1 $120 $121 $44 $-1 $122 reversed single #
loop $-1 $-1 $123 $58 #
plane-surface $-1 115.30795385075383 1.0042263734060608 188.20410320921377 0 -1 0 -0.86602541151947299 0 -0.49999998660252726 forward_v I I I I #
face $-1 $124 $125 $45 $-1 $126 forward single #
loop $-1 $127 $128 $59 #
cone-surface $-1 63.195893188225803 -4.199301005171872 9.1839436119484077 -0.86602541151947299 0 -0.49999998660252726 0.49999998660252726 0 -0.86602541151947299 1 I I 0 1 1 forward I I I I #
face $-1 $129 $130 $46 $-1 $131 forward single #
loop $-1 $132 $133 $60 #
cone-surface $-1 63.195893188225803 -1.0771845780251113 9.1839436119484077 -0.86602541151947299 0 -0.49999998660252726 0.49999998660252726 0 -0.86602541151947299 1 I I 0 1 1 forward I I I I #
face $-1 $134 $135 $47 $-1 $136 reversed single #
loop $-1 $-1 $137 $61 #
plane-surface $-1 115.30795385075383 24.188599931490408 188.20410320921377 0 -1 0 -0.86602541151947299 0 -0.49999998660252726 forward_v I I I I #
face $-1 $138 $139 $48 $-1 $140 forward single #
loop $-1 $141 $142 $62 #
cone-surface $-1 63.195893188225803 18.985072552912477 9.1839436119484077 -0.86602541151947299 0 -0.49999998660252726 0.49999998660252726 0 -0.86602541151947299 1 I I 0 1 1 forward I I I I #
face $-1 $143 $144 $49 $-1 $145 forward single #
loop $-1 $146 $147 $63 #
cone-surface $-1 63.195893188225803 22.107188980059234 9.1839436119484077 -0.86602541151947299 0 -0.49999998660252726 0.49999998660252726 0 -0.86602541151947299 1 I I 0 1 1 forward I I I I #
face $-1 $148 $149 $50 $-1 $150 reversed single #
loop $-1 $-1 $151 $64 #
plane-surface $-1 -181.88102863787213 -6.2807119566030476 72.89615114228188 0 1 0 -0.86602541151947299 0 0.49999998660252726 forward_v I I I I #
face $-1 $152 $153 $51 $-1 $154 forward single #
loop $-1 $155 $156 $65 #
cone-surface $-1 -63.195893188225803 -4.199301005171872 9.1839436119484112 0.86602541151947299 0 -0.49999998660252726 0.49999998660252726 0 0.86602541151947299 1 I I 0 1 1 forward I I I I #
face $-1 $157 $158 $52 $-1 $159 forward single #
loop $-1 $160 $161 $66 #
cone-surface $-1 -63.195893188225803 -1.0771845780251113 9.1839436119484112 0.86602541151947299 0 -0.49999998660252726 0.49999998660252726 0 0.86602541151947299 1 I I 0 1 1 forward I I I I #
face $-1 $162 $163 $53 $-1 $164 reversed single #
loop $-1 $-1 $165 $67 #
plane-surface $-1 -181.88102863787213 16.903661601481296 72.89615114228188 0 1 0 -0.86602541151947299 0 0.49999998660252726 forward_v I I I I #
face $-1 $166 $167 $54 $-1 $168 forward single #
loop $-1 $169 $170 $68 #
cone-surface $-1 -63.195893188225803 18.985072552912477 9.1839436119484112 0.86602541151947299 0 -0.49999998660252726 0.49999998660252726 0 0.86602541151947299 1 I I 0 1 1 forward I I I I #
face $-1 $171 $172 $55 $-1 $173 forward single #
loop $-1 $174 $175 $69 #
cone-surface $-1 -63.195893188225803 22.107188980059234 9.1839436119484112 0.86602541151947299 0 -0.49999998660252726 0.49999998660252726 0 0.86602541151947299 1 I I 0 1 1 forward I I I I #
face $-1 $176 $177 $42 $-1 $178 reversed single #
loop $-1 $-1 $179 $70 #
plane-surface $-1 0 0 -13.539103867421753 0 0 1 1 0 0 forward_v I I I I #
coedge $-1 $180 $181 $182 $183 forward $71 $-1 #
face $-1 $184 $185 $43 $-1 $186 reversed single #
loop $-1 $-1 $187 $73 #
plane-surface $-1 -49.574658216174555 -14.663489555060345 0 0 -1 0 0 0 -1 forward_v I I I I #
coedge $-1 $188 $189 $190 $191 forward $74 $-1 #
face $-1 $192 $193 $44 $-1 $194 reversed single #
loop $-1 $-1 $195 $76 #
plane-surface $-1 1.7838219577015479e-006 -2.6382427915984934 121.63102842209545 0.86602541151947299 0 0.49999998660252726 0.49999998660252726 0 -0.86602541151947299 forward_v I I I I #
coedge $-1 $196 $197 $198 $199 reversed $77 $-1 #
face $-1 $-1 $200 $45 $-1 $201 forward single #
loop $-1 $202 $203 $79 #
cone-surface $-1 61.468784738670976 -4.199301005171872 8.1867971193029003 -0.86602541151947299 0 -0.49999998660252726 0.24999999330126363 0 -0.43301270575973649 1 I I -0.70710678118654746 0.70710678118654746 0.5 forward I I I I #
loop $-1 $-1 $204 $59 #
coedge $-1 $128 $128 $205 $206 reversed $80 $-1 #
face $-1 $-1 $207 $46 $-1 $208 forward single #
loop $-1 $209 $210 $82 #
cone-surface $-1 61.468784738670976 -1.0771845780251113 8.1867971193029003 -0.86602541151947299 0 -0.49999998660252726 0.24999999330126363 0 -0.43301270575973649 1 I I -0.70710678118654746 0.70710678118654746 0.5 forward I I I I #
loop $-1 $-1 $211 $60 #
coedge $-1 $133 $133 $212 $213 reversed $83 $-1 #
face $-1 $214 $215 $47 $-1 $216 reversed single #
loop $-1 $-1 $217 $85 #
plane-surface $-1 1.7838219577015479e-006 20.546130766485852 121.63102842209545 0.86602541151947299 0 0.49999998660252726 0.49999998660252726 0 -0.86602541151947299 forward_v I I I I #
coedge $-1 $218 $219 $220 $221 reversed $86 $-1 #
face $-1 $-1 $222 $48 $-1 $223 forward single #
loop $-1 $224 $225 $88 #
cone-surface $-1 61.468784738670976 18.985072552912477 8.1867971193029003 -0.86602541151947299 0 -0.49999998660252726 0.24999999330126363 0 -0.43301270575973649 1 I I -0.70710678118654746 0.70710678118654746 0.5 forward I I I I #
loop $-1 $-1 $226 $62 #
coedge $-1 $142 $142 $227 $228 reversed $89 $-1 #
face $-1 $-1 $229 $49 $-1 $230 forward single #
loop $-1 $231 $232 $91 #
cone-surface $-1 61.468784738670976 22.107188980059234 8.1867971193029003 -0.86602541151947299 0 -0.49999998660252726 0.24999999330126363 0 -0.43301270575973649 1 I I -0.70710678118654746 0.70710678118654746 0.5 forward I I I I #
loop $-1 $-1 $233 $63 #
coedge $-1 $147 $147 $234 $235 reversed $92 $-1 #
face $-1 $236 $237 $50 $-1 $238 reversed single #
loop $-1 $-1 $239 $94 #
plane-surface $-1 -66.573076570940259 -2.6382427915984934 6.3230763551635647 -0.86602541151947299 0 0.49999998660252726 0.49999998660252726 0 0.86602541151947299 forward_v I I I I #
coedge $-1 $240 $241 $242 $243 reversed $95 $-1 #
face $-1 $-1 $244 $51 $-1 $245 forward single #
loop $-1 $246 $247 $97 #
cone-surface $-1 -61.468784738670976 -4.199301005171872 8.1867971193029039 0.86602541151947299 0 -0.49999998660252726 0.24999999330126363 0 0.43301270575973649 1 I I -0.70710678118654746 0.70710678118654746 0.5 forward I I I I #
loop $-1 $-1 $248 $65 #
coedge $-1 $156 $156 $249 $250 reversed $98 $-1 #
face $-1 $-1 $251 $52 $-1 $252 forward single #
loop $-1 $253 $254 $100 #
cone-surface $-1 -61.468784738670976 -1.0771845780251113 8.1867971193029039 0.86602541151947299 0 -0.49999998660252726 0.24999999330126363 0 0.43301270575973649 1 I I -0.70710678118654746 0.70710678118654746 0.5 forward I I I I #
loop $-1 $-1 $255 $66 #
coedge $-1 $161 $161 $256 $257 reversed $101 $-1 #
face $-1 $258 $259 $53 $-1 $260 reversed single #
loop $-1 $-1 $261 $103 #
plane-surface $-1 -66.573076570940259 20.546130766485852 6.3230763551635647 -0.86602541151947299 0 0.49999998660252726 0.49999998660252726 0 0.86602541151947299 forward_v I I I I #
coedge $-1 $262 $263 $264 $265 reversed $104 $-1 #
face $-1 $-1 $266 $54 $-1 $267 forward single #
loop $-1 $268 $269 $106 #
cone-surface $-1 -61.468784738670976 18.985072552912477 8.1867971193029039 0.86602541151947299 0 -0.49999998660252726 0.24999999330126363 0 0.43301270575973649 1 I I -0.70710678118654746 0.70710678118654746 0.5 forward I I I I #
loop $-1 $-1 $270 $68 #
coedge $-1 $170 $170 $271 $272 reversed $107 $-1 #
face $-1 $-1 $273 $55 $-1 $274 forward single #
loop $-1 $275 $276 $109 #
cone-surface $-1 -61.468784738670976 22.107188980059234 8.1867971193029039 0.86602541151947299 0 -0.49999998660252726 0.24999999330126363 0 0.43301270575973649 1 I I -0.70710678118654746 0.70710678118654746 0.5 forward I I I I #
loop $-1 $-1 $277 $69 #
coedge $-1 $175 $175 $278 $279 reversed $110 $-1 #
face $-1 $280 $281 $42 $-1 $282 reversed single #
loop $-1 $-1 $283 $112 #
plane-surface $-1 0 -31.705257561108347 0 0 1 0 0 0 1 forward_v I I I I #
coedge $-1 $284 $285 $286 $287 forward $113 $-1 #
coedge $-1 $288 $115 $289 $290 forward $71 $-1 #
coedge $-1 $115 $288 $291 $292 forward $71 $-1 #
coedge $-1 $293 $294 $115 $183 reversed $295 $-1 #
edge $-1 $296 -31.705257561108347 $297 31.705257561108347 $182 $298 forward 7 unknown #
face $-1 $299 $300 $43 $-1 $301 forward single #
loop $-1 $-1 $302 $116 #
plane-surface $-1 -46.160731464143588 -23.184373558084346 0 -1 0 0 0 0 1 forward_v I I I I #
coedge $-1 $303 $304 $305 $306 forward $117 $-1 #
coedge $-1 $307 $119 $308 $309 reversed $74 $-1 #
coedge $-1 $119 $307 $310 $311 reversed $74 $-1 #
coedge $-1 $304 $303 $119 $191 reversed $117 $-1 #
edge $-1 $312 -13.539103867421753 $313 13.539103867421753 $190 $314 forward 7 unknown #
face $-1 $315 $316 $44 $-1 $317 reversed single #
loop $-1 $-1 $318 $120 #
plane-surface $-1 115.30795385075383 -6.2807119566030476 188.20410320921377 0 1 0 0.86602541151947299 0 0.49999998660252726 forward_v I I I I #
coedge $-1 $319 $320 $321 $322 reversed $121 $-1 #
coedge $-1 $197 $123 $323 $324 reversed $77 $-1 #
coedge $-1 $123 $196 $319 $325 reversed $77 $-1 #
coedge $-1 $321 $326 $123 $199 forward $327 $-1 #
edge $-1 $328 -8.9190996455633567 $329 -4.75292436772461 $198 $330 forward 7 unknown #
loop $-1 $-1 $205 $124 #
plane-surface $-1 1.7838219577015479e-006 -2.6382427915984934 121.63102842209545 0.86602541151947299 0 0.49999998660252726 0.49999998660252726 0 -0.86602541151947299 forward_v I I I I #
loop $-1 $-1 $331 $79 #
coedge $-1 $203 $203 $204 $332 reversed $125 $-1 #
coedge $-1 $204 $204 $203 $332 forward $127 $-1 #
coedge $-1 $205 $205 $128 $206 forward $200 $-1 #
edge $-1 $333 0 $333 6.2831853071796004 $205 $334 forward 7 unknown #
loop $-1 $-1 $212 $129 #
plane-surface $-1 1.7838219577015479e-006 -2.6382427915984934 121.63102842209545 0.86602541151947299 0 0.49999998660252726 0.49999998660252726 0 -0.86602541151947299 forward_v I I I I #
loop $-1 $-1 $335 $82 #
coedge $-1 $210 $210 $211 $336 reversed $130 $-1 #
coedge $-1 $211 $211 $210 $336 forward $132 $-1 #
coedge $-1 $212 $212 $133 $213 forward $207 $-1 #
edge $-1 $337 0 $337 6.2831853071796004 $212 $338 forward 7 unknown #
face $-1 $339 $340 $47 $-1 $341 reversed single #
loop $-1 $-1 $342 $134 #
plane-surface $-1 115.30795385075383 16.903661601481296 188.20410320921377 0 1 0 0.86602541151947299 0 0.49999998660252726 forward_v I I I I #
coedge $-1 $343 $344 $345 $346 reversed $135 $-1 #
coedge $-1 $219 $137 $347 $348 reversed $86 $-1 #
coedge $-1 $137 $218 $343 $349 reversed $86 $-1 #
coedge $-1 $345 $350 $137 $221 forward $351 $-1 #
edge $-1 $352 -8.9190996455633567 $353 -4.75292436772461 $220 $354 forward 7 unknown #
loop $-1 $-1 $227 $138 #
plane-surface $-1 1.7838219577015479e-006 20.546130766485852 121.63102842209545 0.86602541151947299 0 0.49999998660252726 0.49999998660252726 0 -0.86602541151947299 forward_v I I I I #
loop $-1 $-1 $355 $88 #
coedge $-1 $225 $225 $226 $356 reversed $139 $-1 #
coedge $-1 $226 $226 $225 $356 forward $141 $-1 #
coedge $-1 $227 $227 $142 $228 forward $222 $-1 #
edge $-1 $357 0 $357 6.2831853071796004 $227 $358 forward 7 unknown #
loop $-1 $-1 $234 $143 #
plane-surface $-1 1.7838219577015479e-006 20.546130766485852 121.63102842209545 0.86602541151947299 0 0.49999998660252726 0.49999998660252726 0 -0.86602541151947299 forward_v I I I I #
loop $-1 $-1 $359 $91 #
coedge $-1 $232 $232 $233 $360 reversed $144 $-1 #
coedge $-1 $233 $233 $232 $360 forward $146 $-1 #
coedge $-1 $234 $234 $147 $235 forward $229 $-1 #
edge $-1 $361 0 $361 6.2831853071796004 $234 $362 forward 7 unknown #
face $-1 $363 $364 $50 $-1 $365 reversed single #
loop $-1 $-1 $366 $148 #
plane-surface $-1 -181.88102863787213 1.0042263734060608 72.89615114228188 0 -1 0 0.86602541151947299 0 -0.49999998660252726 forward_v I I I I #
coedge $-1 $367 $368 $369 $370 reversed $149 $-1 #
coedge $-1 $241 $151 $371 $372 reversed $95 $-1 #
coedge $-1 $151 $240 $367 $373 reversed $95 $-1 #
coedge $-1 $369 $374 $151 $243 forward $375 $-1 #
edge $-1 $376 24.367437747995794 $377 28.533613025834562 $242 $378 forward 7 unknown #
loop $-1 $-1 $249 $152 #
plane-surface $-1 -66.573076570940259 -2.6382427915984934 6.3230763551635647 -0.86602541151947299 0 0.49999998660252726 0.49999998660252726 0 0.86602541151947299 forward_v I I I I #
loop $-1 $-1 $379 $97 #
coedge $-1 $247 $247 $248 $380 reversed $153 $-1 #
coedge $-1 $248 $248 $247 $380 forward $155 $-1 #
coedge $-1 $249 $249 $156 $250 forward $244 $-1 #
edge $-1 $381 0 $381 6.2831853071796004 $249 $382 forward 7 unknown #
loop $-1 $-1 $256 $157 #
plane-surface $-1 -66.573076570940259 -2.6382427915984934 6.3230763551635647 -0.86602541151947299 0 0.49999998660252726 0.49999998660252726 0 0.86602541151947299 forward_v I I I I #
loop $-1 $-1 $383 $100 #
coedge $-1 $254 $254 $255 $384 reversed $158 $-1 #
coedge $-1 $255 $255 $254 $384 forward $160 $-1 #
coedge $-1 $256 $256 $161 $257 forward $251 $-1 #
edge $-1 $385 0 $385 6.2831853071796004 $256 $386 forward 7 unknown #
face $-1 $387 $388 $53 $-1 $389 forward single #
loop $-1 $-1 $390 $162 #
plane-surface $-1 -181.88102863787213 24.188599931490408 72.89615114228188 0 -1 0 0.86602541151947299 0 -0.49999998660252726 forward_v I I I I #
coedge $-1 $391 $392 $393 $394 reversed $163 $-1 #
coedge $-1 $263 $165 $395 $396 reversed $104 $-1 #
coedge $-1 $165 $262 $391 $397 reversed $104 $-1 #
coedge $-1 $393 $398 $165 $265 forward $388 $-1 #
edge $-1 $399 24.367437747995794 $400 28.533613025834562 $264 $401 forward 7 unknown #
loop $-1 $-1 $271 $166 #
plane-surface $-1 -66.573076570940259 20.546130766485852 6.3230763551635647 -0.86602541151947299 0 0.49999998660252726 0.49999998660252726 0 0.86602541151947299 forward_v I I I I #
loop $-1 $-1 $402 $106 #
coedge $-1 $269 $269 $270 $403 reversed $167 $-1 #
coedge $-1 $270 $270 $269 $403 forward $169 $-1 #
coedge $-1 $271 $271 $170 $272 forward $266 $-1 #
edge $-1 $404 0 $404 6.2831853071796004 $271 $405 forward 7 unknown #
loop $-1 $-1 $278 $171 #
plane-surface $-1 -66.573076570940259 20.546130766485852 6.3230763551635647 -0.86602541151947299 0 0.49999998660252726 0.49999998660252726 0 0.86602541151947299 forward_v I I I I #
loop $-1 $-1 $406 $109 #
coedge $-1 $276 $276 $277 $407 reversed $172 $-1 #
coedge $-1 $277 $277 $276 $407 forward $174 $-1 #
coedge $-1 $278 $278 $175 $279 forward $273 $-1 #
edge $-1 $408 0 $408 6.2831853071796004 $278 $409 forward 7 unknown #
face $-1 $410 $411 $42 $-1 $412 reversed single #
loop $-1 $-1 $413 $176 #
plane-surface $-1 -66.573076570940273 0 0 1 0 0 0 0 -1 forward_v I I I I #
coedge $-1 $414 $291 $415 $416 forward $177 $-1 #
coedge $-1 $417 $179 $414 $418 forward $113 $-1 #
coedge $-1 $179 $417 $419 $420 forward $113 $-1 #
coedge $-1 $294 $293 $179 $287 reversed $295 $-1 #
edge $-1 $421 -31.705257561108347 $422 31.705257561108347 $286 $423 forward 7 unknown #
coedge $-1 $181 $180 $424 $425 forward $71 $-1 #
coedge $-1 $426 $427 $180 $290 reversed $411 $-1 #
edge $-1 $297 -66.573076570940273 $428 66.573076570940273 $289 $429 forward 7 unknown #
coedge $-1 $283 $430 $181 $292 reversed $177 $-1 #
edge $-1 $431 -66.573076570940273 $296 66.573076570940273 $291 $432 forward 7 unknown #
coedge $-1 $286 $182 $430 $433 forward $295 $-1 #
coedge $-1 $182 $286 $426 $434 reversed $295 $-1 #
loop $-1 $-1 $293 $410 #
vertex $-1 $183 $435 #
vertex $-1 $183 $436 #
straight-curve $-1 66.573076570940273 0 13.539103867421753 0 1 0 I I #
face $-1 $437 $438 $43 $-1 $439 reversed single #
loop $-1 $-1 $440 $184 #
plane-surface $-1 0 0 13.539103867421753 0 0 1 1 0 0 forward_v I I I I #
coedge $-1 $441 $442 $443 $444 reversed $185 $-1 #
coedge $-1 $190 $187 $445 $446 reversed $117 $-1 #
coedge $-1 $187 $190 $447 $448 reversed $117 $-1 #
coedge $-1 $442 $441 $187 $306 reversed $185 $-1 #
edge $-1 $449 -13.539103867421753 $450 13.539103867421753 $305 $451 forward 7 unknown #
coedge $-1 $189 $188 $452 $453 reversed $74 $-1 #
coedge $-1 $445 $454 $188 $309 forward $438 $-1 #
edge $-1 $455 -20.113070782066174 $313 -3.0713027760181717 $308 $456 forward 7 unknown #
coedge $-1 $457 $447 $189 $311 forward $300 $-1 #
edge $-1 $312 3.0713027760181717 $458 20.113070782066174 $310 $459 forward 7 unknown #
vertex $-1 $311 $460 #
vertex $-1 $309 $461 #
straight-curve $-1 -52.988584968205522 -14.663489555060345 0 0 0 -1 I I #
face $-1 $-1 $327 $44 $-1 $462 forward single #
loop $-1 $-1 $463 $192 #
plane-surface $-1 66.573076570940273 0 0 -1 0 0 0 0 1 forward_v I I I I #
coedge $-1 $464 $465 $466 $467 reversed $193 $-1 #
coedge $-1 $468 $195 $197 $325 forward $121 $-1 #
coedge $-1 $195 $468 $464 $469 forward $121 $-1 #
coedge $-1 $466 $198 $195 $322 forward $327 $-1 #
edge $-1 $329 -2.3233477692053075 $470 4.9615905608038009 $321 $471 forward 7 unknown #
coedge $-1 $472 $473 $196 $324 forward $316 $-1 #
edge $-1 $474 -87.778975249443306 $328 -80.562947737185127 $323 $475 forward 7 unknown #
edge $-1 $329 124.81380236293816 $474 133.14615314188055 $197 $476 forward 7 unknown #
coedge $-1 $198 $466 $472 $477 forward $327 $-1 #
loop $-1 $-1 $466 $315 #
vertex $-1 $324 $478 #
vertex $-1 $199 $479 #
straight-curve $-1 57.653976925376917 1.0042263734060608 13.539103867421758 -1 0 0 I I #
coedge $-1 $331 $331 $-1 $480 reversed $202 $-1 #
edge $-1 $481 0 $481 6.2831853071796004 $203 $482 forward 7 unknown #
vertex $-1 $206 $483 #
ellipse-curve $-1 64.489988932020907 -4.199301005171872 9.931090111292658 0.86602541151947299 0 0.49999998660252726 0.49999998660252726 0 -0.86602541151947299 1 I I #
coedge $-1 $335 $335 $-1 $484 reversed $209 $-1 #
edge $-1 $485 0 $485 6.2831853071796004 $210 $486 forward 7 unknown #
vertex $-1 $213 $487 #
ellipse-curve $-1 64.489988932020907 -1.0771845780251113 9.931090111292658 0.86602541151947299 0 0.49999998660252726 0.49999998660252726 0 -0.86602541151947299 1 I I #
face $-1 $-1 $351 $47 $-1 $488 forward single #
loop $-1 $-1 $489 $214 #
plane-surface $-1 66.573076570940273 0 0 -1 0 0 0 0 1 forward_v I I I I #
coedge $-1 $490 $491 $492 $493 reversed $215 $-1 #
coedge $-1 $494 $217 $219 $349 forward $135 $-1 #
coedge $-1 $217 $494 $490 $495 forward $135 $-1 #
coedge $-1 $492 $220 $217 $346 forward $351 $-1 #
edge $-1 $353 -13.915534548247482 $496 -6.6305962182383702 $345 $497 forward 7 unknown #
coedge $-1 $498 $499 $218 $348 forward $340 $-1 #
edge $-1 $500 -87.778975249443306 $352 -80.562947737185127 $347 $501 forward 7 unknown #
edge $-1 $353 124.81380236293816 $500 133.14615314188055 $219 $502 forward 7 unknown #
coedge $-1 $220 $492 $498 $503 forward $351 $-1 #
loop $-1 $-1 $492 $339 #
vertex $-1 $348 $504 #
vertex $-1 $221 $505 #
straight-curve $-1 57.653976925376917 24.188599931490408 13.539103867421758 -1 0 0 I I #
coedge $-1 $355 $355 $-1 $506 reversed $224 $-1 #
edge $-1 $507 0 $507 6.2831853071796004 $225 $508 forward 7 unknown #
vertex $-1 $228 $509 #
ellipse-curve $-1 64.489988932020907 18.985072552912477 9.931090111292658 0.86602541151947299 0 0.49999998660252726 0.49999998660252726 0 -0.86602541151947299 1 I I #
coedge $-1 $359 $359 $-1 $510 reversed $231 $-1 #
edge $-1 $511 0 $511 6.2831853071796004 $232 $512 forward 7 unknown #
vertex $-1 $235 $513 #
ellipse-curve $-1 64.489988932020907 22.107188980059234 9.931090111292658 0.86602541151947299 0 0.49999998660252726 0.49999998660252726 0 -0.86602541151947299 1 I I #
face $-1 $-1 $375 $50 $-1 $514 forward single #
loop $-1 $-1 $515 $236 #
plane-surface $-1 -66.573076570940273 0 0 1 0 0 0 0 -1 forward_v I I I I #
coedge $-1 $516 $517 $518 $519 reversed $237 $-1 #
coedge $-1 $520 $239 $241 $373 forward $149 $-1 #
coedge $-1 $239 $520 $516 $521 forward $149 $-1 #
coedge $-1 $518 $242 $239 $370 forward $375 $-1 #
edge $-1 $377 -4.9615905608038009 $522 2.3233477692053075 $369 $523 forward 7 unknown #
coedge $-1 $524 $525 $240 $372 forward $364 $-1 #
edge $-1 $526 -30.1249992159774 $376 -22.908971703719189 $371 $527 forward 7 unknown #
edge $-1 $377 -8.332350778942395 $526 2.8642609447069912e-014 $241 $528 forward 7 unknown #
coedge $-1 $242 $518 $524 $529 forward $375 $-1 #
loop $-1 $-1 $518 $363 #
vertex $-1 $372 $530 #
vertex $-1 $243 $531 #
straight-curve $-1 -90.940514318936067 -6.2807119566030476 13.539103867421751 1 0 0 I I #
coedge $-1 $379 $379 $-1 $532 reversed $246 $-1 #
edge $-1 $533 0 $533 6.2831853071796004 $247 $534 forward 7 unknown #
vertex $-1 $250 $535 #
ellipse-curve $-1 -64.489988932020893 -4.199301005171872 9.9310901112926508 -0.86602541151947299 0 0.49999998660252726 0.49999998660252726 0 0.86602541151947299 1 I I #
coedge $-1 $383 $383 $-1 $536 reversed $253 $-1 #
edge $-1 $537 0 $537 6.2831853071796004 $254 $538 forward 7 unknown #
vertex $-1 $257 $539 #
ellipse-curve $-1 -64.489988932020893 -1.0771845780251113 9.9310901112926508 -0.86602541151947299 0 0.49999998660252726 0.49999998660252726 0 0.86602541151947299 1 I I #
face $-1 $-1 $540 $53 $-1 $541 reversed single #
loop $-1 $-1 $264 $258 #
plane-surface $-1 0 0 13.539103867421753 0 0 1 1 0 0 forward_v I I I I #
coedge $-1 $542 $543 $544 $545 reversed $259 $-1 #
coedge $-1 $546 $261 $263 $397 forward $163 $-1 #
coedge $-1 $261 $546 $542 $547 forward $163 $-1 #
coedge $-1 $544 $264 $261 $394 forward $388 $-1 #
edge $-1 $400 6.6305962182383702 $548 13.915534548247482 $393 $549 forward 7 unknown #
coedge $-1 $550 $551 $262 $396 forward $540 $-1 #
edge $-1 $552 -30.1249992159774 $399 -22.908971703719189 $395 $553 forward 7 unknown #
edge $-1 $400 -8.332350778942395 $552 2.8642609447069912e-014 $263 $554 forward 7 unknown #
coedge $-1 $264 $544 $550 $555 forward $388 $-1 #
vertex $-1 $396 $556 #
vertex $-1 $265 $557 #
straight-curve $-1 -90.940514318936067 16.903661601481296 13.539103867421751 1 0 0 I I #
coedge $-1 $402 $402 $-1 $558 reversed $268 $-1 #
edge $-1 $559 0 $559 6.2831853071796004 $269 $560 forward 7 unknown #
vertex $-1 $272 $561 #
ellipse-curve $-1 -64.489988932020893 18.985072552912477 9.9310901112926508 -0.86602541151947299 0 0.49999998660252726 0.49999998660252726 0 0.86602541151947299 1 I I #
coedge $-1 $406 $406 $-1 $562 reversed $275 $-1 #
edge $-1 $563 0 $563 6.2831853071796004 $276 $564 forward 7 unknown #
vertex $-1 $279 $565 #
ellipse-curve $-1 -64.489988932020893 22.107188980059234 9.9310901112926508 -0.86602541151947299 0 0.49999998660252726 0.49999998660252726 0 0.86602541151947299 1 I I #
face $-1 $-1 $295 $42 $-1 $566 reversed single #
loop $-1 $-1 $426 $280 #
plane-surface $-1 0 31.705257561108347 0 0 -1 0 0 0 -1 forward_v I I I I #
coedge $-1 $567 $424 $427 $568 forward $281 $-1 #
coedge $-1 $430 $283 $284 $418 reversed $177 $-1 #
coedge $-1 $424 $567 $283 $416 reversed $281 $-1 #
edge $-1 $431 -13.539103867421753 $569 13.539103867421753 $415 $570 forward 7 unknown #
coedge $-1 $285 $284 $567 $571 forward $113 $-1 #
edge $-1 $422 -66.573076570940273 $569 66.573076570940273 $414 $572 forward 7 unknown #
coedge $-1 $427 $426 $285 $420 reversed $411 $-1 #
edge $-1 $573 -66.573076570940273 $421 66.573076570940273 $419 $574 forward 7 unknown #
vertex $-1 $287 $575 #
vertex $-1 $433 $576 #
straight-curve $-1 66.573076570940273 0 -13.539103867421753 0 -1 0 I I #
coedge $-1 $413 $415 $288 $425 reversed $281 $-1 #
edge $-1 $428 -31.705257561108347 $431 31.705257561108347 $424 $577 forward 7 unknown #
coedge $-1 $419 $289 $294 $434 forward $411 $-1 #
coedge $-1 $289 $419 $413 $568 reversed $411 $-1 #
vertex $-1 $290 $578 #
straight-curve $-1 0 31.705257561108347 13.539103867421753 -1 0 0 I I #
coedge $-1 $291 $414 $293 $433 reversed $177 $-1 #
vertex $-1 $425 $579 #
straight-curve $-1 0 -31.705257561108347 13.539103867421753 1 0 0 I I #
edge $-1 $296 -13.539103867421753 $422 13.539103867421753 $293 $580 forward 7 unknown #
edge $-1 $297 -13.539103867421753 $421 13.539103867421753 $294 $581 forward 7 unknown #
point $-1 66.573076570940273 -31.705257561108347 13.539103867421753 #
point $-1 66.573076570940273 31.705257561108347 13.539103867421753 #
face $-1 $-1 $582 $43 $-1 $583 reversed single #
loop $-1 $-1 $584 $299 #
plane-surface $-1 0 0 -13.539103867421753 0 0 1 1 0 0 forward_v I I I I #
coedge $-1 $447 $457 $442 $585 forward $300 $-1 #
coedge $-1 $305 $302 $584 $586 reversed $185 $-1 #
coedge $-1 $302 $305 $440 $585 reversed $185 $-1 #
coedge $-1 $587 $588 $302 $444 forward $582 $-1 #
edge $-1 $589 -13.539103867421753 $590 13.539103867421753 $443 $591 forward 7 unknown #
coedge $-1 $584 $308 $303 $446 forward $438 $-1 #
edge $-1 $313 -28.201255860118245 $450 -21.37340235605631 $445 $592 forward 7 unknown #
coedge $-1 $310 $440 $304 $448 forward $300 $-1 #
edge $-1 $449 21.37340235605631 $312 28.201255860118245 $447 $593 forward 7 unknown #
vertex $-1 $448 $594 #
vertex $-1 $446 $595 #
straight-curve $-1 -46.160731464143588 -14.663489555060345 0 0 0 -1 I I #
coedge $-1 $588 $587 $307 $453 forward $582 $-1 #
edge $-1 $458 -13.539103867421753 $455 13.539103867421753 $452 $596 forward 7 unknown #
coedge $-1 $308 $584 $588 $597 forward $438 $-1 #
vertex $-1 $309 $598 #
straight-curve $-1 -52.988584968205522 -11.592186779042173 -13.539103867421753 0 1 0 I I #
coedge $-1 $440 $310 $587 $599 forward $300 $-1 #
vertex $-1 $599 $600 #
straight-curve $-1 -52.988584968205522 -11.592186779042173 13.539103867421753 0 -1 0 I I #
point $-1 -52.988584968205522 -14.663489555060345 13.539103867421753 #
point $-1 -52.988584968205522 -14.663489555060345 -13.539103867421753 #
plane-surface $-1 0 0 13.539103867421753 0 0 1 1 0 0 forward_v I I I I #
coedge $-1 $473 $472 $465 $601 forward $316 $-1 #
coedge $-1 $465 $318 $320 $469 reversed $193 $-1 #
coedge $-1 $318 $464 $463 $601 reversed $193 $-1 #
coedge $-1 $326 $321 $318 $467 forward $327 $-1 #
edge $-1 $470 4.75292436772461 $602 8.9190996455633567 $466 $603 forward 7 unknown #
coedge $-1 $320 $319 $473 $604 reversed $121 $-1 #
edge $-1 $605 -133.14615314188055 $470 -124.81380236293816 $464 $606 forward 7 unknown #
vertex $-1 $322 $607 #
straight-curve $-1 62.406901293101512 -1.3191213957992467 13.539103867421758 0 -1 0 I I #
coedge $-1 $463 $323 $326 $477 reversed $316 $-1 #
coedge $-1 $323 $463 $468 $604 forward $316 $-1 #
vertex $-1 $324 $608 #
straight-curve $-1 66.573076570940273 1.0042263734060608 94.102051604606885 0 0 1 I I #
straight-curve $-1 1.7838219577015479e-006 1.0042263734060608 121.63102842209545 0.49999998660252726 0 -0.86602541151947299 I I #
edge $-1 $602 -6.2807119566030476 $328 1.0042263734060608 $472 $609 forward 7 unknown #
point $-1 66.573076570940273 1.0042263734060608 13.539103867421753 #
point $-1 62.406901293101527 1.0042263734060608 13.539103867421758 #
edge $-1 $610 1 $610 0 $331 $-1 forward 7 unknown #
vertex $-1 $332 $611 #
ellipse-curve $-1 61.901797444430713 -4.199301005171872 8.4367971126041645 0.86602541151947299 0 0.49999998660252726 0.49999998660252726 0 -0.86602541151947299 1 I I #
point $-1 64.989988918623425 -4.199301005171872 9.0650646997731794 #
edge $-1 $612 1 $612 0 $335 $-1 forward 7 unknown #
vertex $-1 $336 $613 #
ellipse-curve $-1 61.901797444430713 -1.0771845780251113 8.4367971126041645 0.86602541151947299 0 0.49999998660252726 0.49999998660252726 0 -0.86602541151947299 1 I I #
point $-1 64.989988918623425 -1.0771845780251113 9.0650646997731794 #
plane-surface $-1 0 0 13.539103867421753 0 0 1 1 0 0 forward_v I I I I #
coedge $-1 $499 $498 $491 $614 forward $340 $-1 #
coedge $-1 $491 $342 $344 $495 reversed $215 $-1 #
coedge $-1 $342 $490 $489 $614 reversed $215 $-1 #
coedge $-1 $350 $345 $342 $493 forward $351 $-1 #
edge $-1 $496 4.75292436772461 $615 8.9190996455633567 $492 $616 forward 7 unknown #
coedge $-1 $344 $343 $499 $617 reversed $135 $-1 #
edge $-1 $618 -133.14615314188055 $496 -124.81380236293816 $490 $619 forward 7 unknown #
vertex $-1 $346 $620 #
straight-curve $-1 62.406901293101512 10.273065383242926 13.539103867421758 0 -1 0 I I #
coedge $-1 $489 $347 $350 $503 reversed $340 $-1 #
coedge $-1 $347 $489 $494 $617 forward $340 $-1 #
vertex $-1 $348 $621 #
straight-curve $-1 66.573076570940273 24.188599931490408 94.102051604606885 0 0 1 I I #
straight-curve $-1 1.7838219577015479e-006 24.188599931490408 121.63102842209545 0.49999998660252726 0 -0.86602541151947299 I I #
edge $-1 $615 16.903661601481296 $352 24.188599931490408 $498 $622 forward 7 unknown #
point $-1 66.573076570940273 24.188599931490408 13.539103867421753 #
point $-1 62.406901293101527 24.188599931490408 13.539103867421758 #
edge $-1 $623 1 $623 0 $355 $-1 forward 7 unknown #
vertex $-1 $356 $624 #
ellipse-curve $-1 61.901797444430713 18.985072552912477 8.4367971126041645 0.86602541151947299 0 0.49999998660252726 0.49999998660252726 0 -0.86602541151947299 1 I I #
point $-1 64.989988918623425 18.985072552912477 9.0650646997731794 #
edge $-1 $625 1 $625 0 $359 $-1 forward 7 unknown #
vertex $-1 $360 $626 #
ellipse-curve $-1 61.901797444430713 22.107188980059234 8.4367971126041645 0.86602541151947299 0 0.49999998660252726 0.49999998660252726 0 -0.86602541151947299 1 I I #
point $-1 64.989988918623425 22.107188980059234 9.0650646997731794 #
plane-surface $-1 0 0 13.539103867421753 0 0 1 1 0 0 forward_v I I I I #
coedge $-1 $525 $524 $517 $627 forward $364 $-1 #
coedge $-1 $517 $366 $368 $521 reversed $237 $-1 #
coedge $-1 $366 $516 $515 $627 reversed $237 $-1 #
coedge $-1 $374 $369 $366 $519 forward $375 $-1 #
edge $-1 $522 -28.533613025834562 $628 -24.367437747995794 $518 $629 forward 7 unknown #
coedge $-1 $368 $367 $525 $630 reversed $149 $-1 #
edge $-1 $631 -2.8642609447069912e-014 $522 8.332350778942395 $516 $632 forward 7 unknown #
vertex $-1 $370 $633 #
straight-curve $-1 -62.406901293101505 -1.3191213957992467 13.539103867421753 0 1 0 I I #
coedge $-1 $515 $371 $374 $529 reversed $364 $-1 #
coedge $-1 $371 $515 $520 $630 forward $364 $-1 #
vertex $-1 $372 $634 #
straight-curve $-1 -66.573076570940273 -6.2807119566030476 36.44807557114094 0 0 1 I I #
straight-curve $-1 -66.573076570940259 -6.2807119566030476 6.3230763551635647 -0.49999998660252726 0 -0.86602541151947299 I I #
edge $-1 $628 -1.0042263734060608 $376 6.2807119566030476 $524 $635 forward 7 unknown #
point $-1 -66.573076570940273 -6.2807119566030476 13.539103867421753 #
point $-1 -62.406901293101505 -6.2807119566030476 13.539103867421755 #
edge $-1 $636 1 $636 0 $379 $-1 forward 7 unknown #
vertex $-1 $380 $637 #
ellipse-curve $-1 -61.901797444430713 -4.199301005171872 8.4367971126041681 -0.86602541151947299 0 0.49999998660252726 0.49999998660252726 0 0.86602541151947299 1 I I #
point $-1 -63.989988945418368 -4.199301005171872 10.797115522812128 #
edge $-1 $638 1 $638 0 $383 $-1 forward 7 unknown #
vertex $-1 $384 $639 #
ellipse-curve $-1 -61.901797444430713 -1.0771845780251113 8.4367971126041681 -0.86602541151947299 0 0.49999998660252726 0.49999998660252726 0 0.86602541151947299 1 I I #
point $-1 -63.989988945418368 -1.0771845780251113 10.797115522812128 #
loop $-1 $-1 $395 $387 #
plane-surface $-1 -66.573076570940273 0 0 1 0 0 0 0 -1 forward_v I I I I #
coedge $-1 $543 $390 $392 $547 reversed $259 $-1 #
coedge $-1 $390 $542 $640 $641 reversed $259 $-1 #
coedge $-1 $398 $393 $390 $545 forward $388 $-1 #
edge $-1 $548 -28.533613025834562 $642 -24.367437747995794 $544 $643 forward 7 unknown #
coedge $-1 $392 $391 $551 $644 reversed $163 $-1 #
edge $-1 $645 -2.8642609447069912e-014 $548 8.332350778942395 $542 $646 forward 7 unknown #
vertex $-1 $394 $647 #
straight-curve $-1 -62.406901293101505 10.273065383242926 13.539103867421753 0 1 0 I I #
coedge $-1 $640 $395 $398 $555 reversed $540 $-1 #
coedge $-1 $395 $640 $546 $644 forward $540 $-1 #
vertex $-1 $396 $648 #
straight-curve $-1 -66.573076570940273 16.903661601481296 36.44807557114094 0 0 1 I I #
straight-curve $-1 -66.573076570940259 16.903661601481296 6.3230763551635647 -0.49999998660252726 0 -0.86602541151947299 I I #
edge $-1 $642 -24.188599931490408 $399 -16.903661601481296 $550 $649 forward 7 unknown #
point $-1 -66.573076570940273 16.903661601481296 13.539103867421753 #
point $-1 -62.406901293101505 16.903661601481296 13.539103867421755 #
edge $-1 $650 1 $650 0 $402 $-1 forward 7 unknown #
vertex $-1 $403 $651 #
ellipse-curve $-1 -61.901797444430713 18.985072552912477 8.4367971126041681 -0.86602541151947299 0 0.49999998660252726 0.49999998660252726 0 0.86602541151947299 1 I I #
point $-1 -63.989988945418368 18.985072552912477 10.797115522812128 #
edge $-1 $652 1 $652 0 $406 $-1 forward 7 unknown #
vertex $-1 $407 $653 #
ellipse-curve $-1 -61.901797444430713 22.107188980059234 8.4367971126041681 -0.86602541151947299 0 0.49999998660252726 0.49999998660252726 0 0.86602541151947299 1 I I #
point $-1 -63.989988945418368 22.107188980059234 10.797115522812128 #
plane-surface $-1 66.573076570940273 0 0 -1 0 0 0 0 1 forward_v I I I I #
coedge $-1 $415 $413 $417 $571 reversed $281 $-1 #
edge $-1 $428 -13.539103867421753 $573 13.539103867421753 $427 $654 forward 7 unknown #
vertex $-1 $571 $655 #
straight-curve $-1 -66.573076570940273 -31.705257561108347 0 0 0 -1 I I #
edge $-1 $569 -31.705257561108347 $573 31.705257561108347 $567 $656 forward 7 unknown #
straight-curve $-1 0 -31.705257561108347 -13.539103867421753 -1 0 0 I I #
vertex $-1 $420 $657 #
straight-curve $-1 0 31.705257561108347 -13.539103867421753 1 0 0 I I #
point $-1 66.573076570940273 31.705257561108347 -13.539103867421753 #
point $-1 66.573076570940273 -31.705257561108347 -13.539103867421753 #
straight-curve $-1 -66.573076570940273 0 13.539103867421753 0 -1 0 I I #
point $-1 -66.573076570940273 31.705257561108347 13.539103867421753 #
point $-1 -66.573076570940273 -31.705257561108347 13.539103867421753 #
straight-curve $-1 66.573076570940273 -31.705257561108347 0 0 0 -1 I I #
straight-curve $-1 66.573076570940273 31.705257561108347 0 0 0 -1 I I #
loop $-1 $-1 $443 $437 #
plane-surface $-1 0 -31.705257561108347 0 0 1 0 0 0 1 forward_v I I I I #
coedge $-1 $454 $445 $441 $586 forward $438 $-1 #
edge $-1 $590 -20.113070782066174 $449 -3.0713027760181717 $440 $658 forward 7 unknown #
edge $-1 $450 3.0713027760181717 $589 20.113070782066174 $584 $659 forward 7 unknown #
coedge $-1 $452 $443 $457 $599 reversed $582 $-1 #
coedge $-1 $443 $452 $454 $597 reversed $582 $-1 #
vertex $-1 $597 $660 #
vertex $-1 $444 $661 #
straight-curve $-1 -46.160731464143588 -31.705257561108347 0 0 0 1 I I #
straight-curve $-1 -24.787329108087278 -14.663489555060345 -13.539103867421753 1 0 0 I I #
straight-curve $-1 -24.787329108087278 -14.663489555060345 13.539103867421753 -1 0 0 I I #
point $-1 -46.160731464143588 -14.663489555060345 13.539103867421753 #
point $-1 -46.160731464143588 -14.663489555060345 -13.539103867421753 #
straight-curve $-1 -52.988584968205522 -31.705257561108347 0 0 0 -1 I I #
edge $-1 $589 46.160731464143588 $455 52.988584968205522 $588 $662 forward 7 unknown #
point $-1 -52.988584968205522 -31.705257561108347 -13.539103867421753 #
edge $-1 $458 -52.988584968205522 $590 -46.160731464143588 $587 $663 forward 7 unknown #
point $-1 -52.988584968205522 -31.705257561108347 13.539103867421753 #
edge $-1 $602 80.562947737185127 $605 87.778975249443306 $463 $664 forward 7 unknown #
vertex $-1 $477 $665 #
straight-curve $-1 57.653976925376917 -6.2807119566030476 13.539103867421758 1 0 0 I I #
edge $-1 $605 -4.9615905608038009 $474 2.3233477692053075 $473 $666 forward 7 unknown #
vertex $-1 $604 $667 #
straight-curve $-1 1.7838219577015479e-006 -6.2807119566030476 121.63102842209545 -0.49999998660252726 0 0.86602541151947299 I I #
point $-1 62.406901293101527 -6.2807119566030476 13.539103867421758 #
point $-1 66.573076570940273 1.0042263734060608 6.3230763551635789 #
straight-curve $-1 66.573076570940273 0 13.539103867421753 0 1 0 I I #
vertex $-1 $480 $668 #
point $-1 62.401797431033238 -4.199301005171872 7.5707717010846913 #
vertex $-1 $484 $669 #
point $-1 62.401797431033238 -1.0771845780251113 7.5707717010846913 #
edge $-1 $615 80.562947737185127 $618 87.778975249443306 $489 $670 forward 7 unknown #
vertex $-1 $503 $671 #
straight-curve $-1 57.653976925376917 16.903661601481296 13.539103867421758 1 0 0 I I #
edge $-1 $618 6.6305962182383702 $500 13.915534548247482 $499 $672 forward 7 unknown #
vertex $-1 $617 $673 #
straight-curve $-1 1.7838219577015479e-006 16.903661601481296 121.63102842209545 -0.49999998660252726 0 0.86602541151947299 I I #
point $-1 62.406901293101527 16.903661601481296 13.539103867421758 #
point $-1 66.573076570940273 24.188599931490408 6.3230763551635789 #
straight-curve $-1 66.573076570940273 0 13.539103867421753 0 1 0 I I #
vertex $-1 $506 $674 #
point $-1 62.401797431033238 18.985072552912477 7.5707717010846913 #
vertex $-1 $510 $675 #
point $-1 62.401797431033238 22.107188980059234 7.5707717010846913 #
edge $-1 $628 22.908971703719189 $631 30.1249992159774 $515 $676 forward 7 unknown #
vertex $-1 $529 $677 #
straight-curve $-1 -90.940514318936067 1.0042263734060608 13.539103867421751 -1 0 0 I I #
edge $-1 $631 -2.3233477692053075 $526 4.9615905608038009 $525 $678 forward 7 unknown #
vertex $-1 $630 $679 #
straight-curve $-1 -66.573076570940259 1.0042263734060608 6.3230763551635647 0.49999998660252726 0 0.86602541151947299 I I #
point $-1 -62.406901293101505 1.0042263734060608 13.539103867421755 #
point $-1 -66.573076570940273 -6.2807119566030476 6.3230763551635398 #
straight-curve $-1 -66.573076570940273 0 13.539103867421753 0 -1 0 I I #
vertex $-1 $532 $680 #
point $-1 -61.401797457828188 -4.199301005171872 9.3028225241236413 #
vertex $-1 $536 $681 #
point $-1 -61.401797457828188 -1.0771845780251113 9.3028225241236413 #
coedge $-1 $551 $550 $543 $641 forward $540 $-1 #
edge $-1 $642 22.908971703719189 $645 30.1249992159774 $640 $682 forward 7 unknown #
vertex $-1 $555 $683 #
straight-curve $-1 -90.940514318936067 24.188599931490408 13.539103867421751 -1 0 0 I I #
edge $-1 $645 -13.915534548247482 $552 -6.6305962182383702 $551 $684 forward 7 unknown #
vertex $-1 $644 $685 #
straight-curve $-1 -66.573076570940259 24.188599931490408 6.3230763551635647 0.49999998660252726 0 0.86602541151947299 I I #
point $-1 -62.406901293101505 24.188599931490408 13.539103867421755 #
point $-1 -66.573076570940273 16.903661601481296 6.3230763551635398 #
straight-curve $-1 -66.573076570940273 0 13.539103867421753 0 -1 0 I I #
vertex $-1 $558 $686 #
point $-1 -61.401797457828188 18.985072552912477 9.3028225241236413 #
vertex $-1 $562 $687 #
point $-1 -61.401797457828188 22.107188980059234 9.3028225241236413 #
straight-curve $-1 -66.573076570940273 31.705257561108347 0 0 0 -1 I I #
point $-1 -66.573076570940273 -31.705257561108347 -13.539103867421753 #
straight-curve $-1 -66.573076570940273 0 -13.539103867421753 0 1 0 I I #
point $-1 -66.573076570940273 31.705257561108347 -13.539103867421753 #
straight-curve $-1 -46.160731464143588 -11.592186779042173 13.539103867421753 0 1 0 I I #
straight-curve $-1 -46.160731464143588 -11.592186779042173 -13.539103867421753 0 -1 0 I I #
point $-1 -46.160731464143588 -31.705257561108347 -13.539103867421753 #
point $-1 -46.160731464143588 -31.705257561108347 13.539103867421753 #
straight-curve $-1 0 -31.705257561108347 -13.539103867421753 -1 0 0 I I #
straight-curve $-1 0 -31.705257561108347 13.539103867421753 1 0 0 I I #
straight-curve $-1 66.573076570940273 -6.2807119566030476 94.102051604606885 0 0 -1 I I #
point $-1 66.573076570940273 -6.2807119566030476 13.539103867421753 #
straight-curve $-1 66.573076570940273 -1.3191213957992467 6.3230763551635931 0 1 0 I I #
point $-1 66.573076570940273 -6.2807119566030476 6.3230763551635789 #
point $-1 61.03577203291124 -4.199301005171872 7.936797126001637 #
point $-1 61.03577203291124 -1.0771845780251113 7.936797126001637 #
straight-curve $-1 66.573076570940273 16.903661601481296 94.102051604606885 0 0 -1 I I #
point $-1 66.573076570940273 16.903661601481296 13.539103867421753 #
straight-curve $-1 66.573076570940273 10.273065383242926 6.3230763551635931 0 1 0 I I #
point $-1 66.573076570940273 16.903661601481296 6.3230763551635789 #
point $-1 61.03577203291124 18.985072552912477 7.936797126001637 #
point $-1 61.03577203291124 22.107188980059234 7.936797126001637 #
straight-curve $-1 -66.573076570940273 1.0042263734060608 36.44807557114094 0 0 -1 I I #
point $-1 -66.573076570940273 1.0042263734060608 13.539103867421753 #
straight-curve $-1 -66.573076570940273 -1.3191213957992467 6.3230763551635372 0 -1 0 I I #
point $-1 -66.573076570940273 1.0042263734060608 6.3230763551635398 #
point $-1 -61.03577203291124 -4.199301005171872 7.9367971260016406 #
point $-1 -61.03577203291124 -1.0771845780251113 7.9367971260016406 #
straight-curve $-1 -66.573076570940273 24.188599931490408 36.44807557114094 0 0 -1 I I #
point $-1 -66.573076570940273 24.188599931490408 13.539103867421753 #
straight-curve $-1 -66.573076570940273 10.273065383242926 6.3230763551635372 0 -1 0 I I #
point $-1 -66.573076570940273 24.188599931490408 6.3230763551635398 #
point $-1 -61.03577203291124 18.985072552912477 7.9367971260016406 #
point $-1 -61.03577203291124 22.107188980059234 7.9367971260016406 #
End-of-ACIS-data 