500 0 5 0           
7 Unknown 11 ACIS 5.0 NT 24 Fri Mar 26 16:59:44 1999 
-1 9.9999999999999995e-007 1e-010 
body $-1 $5 $-1 $6 #
body $-1 $7 $-1 $8 #
body $-1 $9 $-1 $10 #
body $-1 $11 $-1 $12 #
body $-1 $13 $-1 $14 #
lump $-1 $-1 $15 $0 #
transform $-1 1 0 0 0 1 0 0 0 1 45.802179021576585 18.579607023434974 8.5005090088145216 1 rotate no_reflect no_shear #
lump $-1 $-1 $16 $1 #
transform $-1 1 0 0 0 1 0 0 0 1 45.802179021576585 18.579607023434974 8.5005090088145216 1 rotate no_reflect no_shear #
lump $-1 $-1 $17 $2 #
transform $-1 1 0 0 0 1 0 0 0 1 45.802179021576585 18.579607023434974 8.5005090088145216 1 rotate no_reflect no_shear #
lump $-1 $-1 $18 $3 #
transform $-1 1 0 0 0 1 0 0 0 1 45.802179021576585 18.579607023434974 8.5005090088145216 1 rotate no_reflect no_shear #
lump $-1 $-1 $19 $4 #
transform $-1 1 0 0 0 1 0 0 0 1 45.802179021576585 18.579607023434974 8.5005090088145216 1 rotate no_reflect no_shear #
shell $-1 $-1 $-1 $20 $-1 $5 #
shell $-1 $-1 $-1 $21 $-1 $7 #
shell $-1 $-1 $-1 $22 $-1 $9 #
shell $-1 $-1 $-1 $23 $-1 $11 #
shell $-1 $-1 $-1 $24 $-1 $13 #
face $-1 $25 $26 $15 $-1 $27 forward single #
face $-1 $28 $29 $16 $-1 $30 forward single #
face $-1 $31 $32 $17 $-1 $33 reversed single #
face $-1 $34 $35 $18 $-1 $36 forward single #
face $-1 $37 $38 $19 $-1 $39 forward single #
face $-1 $40 $41 $15 $-1 $42 reversed single #
loop $-1 $-1 $43 $20 #
plane-surface $-1 0 0 8.5005090088145216 0 0 1 1 0 0 forward_v I I I I #
face $-1 $44 $45 $16 $-1 $46 reversed single #
loop $-1 $-1 $47 $21 #
plane-surface $-1 -45.802179021576585 0 0 1 0 0 0 0 -1 forward_v I I I I #
face $-1 $48 $49 $17 $-1 $50 reversed single #
loop $-1 $-1 $51 $22 #
plane-surface $-1 50.323344969812517 8.6011536722926536 132.45892550417889 0 1 0 0.73135370988377701 0 0.68199835119979291 forward_v I I I I #
face $-1 $52 $53 $18 $-1 $54 forward single #
loop $-1 $55 $56 $23 #
cone-surface $-1 41.79663983436847 11.452140344047603 4.4059366178070816 -0.73135370988377701 0 -0.68199835119979291 0.68199835119979291 0 -0.73135370988377701 1 I I 0 1 1 forward I I I I #
face $-1 $57 $58 $19 $-1 $59 forward single #
loop $-1 $60 $61 $24 #
cone-surface $-1 41.79663983436847 15.728620351680021 4.4059366178070816 -0.73135370988377701 0 -0.68199835119979291 0.68199835119979291 0 -0.73135370988377701 1 I I 0 1 1 forward I I I I #
face $-1 $62 $63 $15 $-1 $64 reversed single #
loop $-1 $-1 $65 $25 #
plane-surface $-1 0 0 -8.5005090088145216 0 0 1 1 0 0 forward_v I I I I #
coedge $-1 $66 $67 $68 $69 forward $26 $-1 #
face $-1 $70 $71 $16 $-1 $72 forward single #
loop $-1 $-1 $73 $28 #
plane-surface $-1 0 18.579607023434974 0 0 -1 0 0 0 -1 forward_v I I I I #
coedge $-1 $74 $75 $76 $77 forward $29 $-1 #
face $-1 $78 $79 $17 $-1 $80 forward single #
loop $-1 $-1 $81 $31 #
plane-surface $-1 -16.671842126569366 13.590380347863814 69.984904356032942 0.73135370988377701 0 0.68199835119979291 0.68199835119979291 0 -0.73135370988377701 forward_v I I I I #
coedge $-1 $82 $83 $84 $85 reversed $32 $-1 #
face $-1 $-1 $86 $18 $-1 $87 forward single #
loop $-1 $88 $89 $34 #
cone-surface $-1 39.994871951121063 11.452140344047603 2.7257609257814686 -0.73135370988377701 0 -0.68199835119979291 0.34099917559989645 0 -0.36567685494188851 1 I I -0.70710678118654746 0.70710678118654746 0.5 forward I I I I #
loop $-1 $-1 $90 $23 #
coedge $-1 $56 $56 $91 $92 reversed $35 $-1 #
face $-1 $-1 $93 $19 $-1 $94 forward single #
loop $-1 $95 $96 $37 #
cone-surface $-1 39.994871951121063 15.728620351680021 2.7257609257814686 -0.73135370988377701 0 -0.68199835119979291 0.34099917559989645 0 -0.36567685494188851 1 I I -0.70710678118654746 0.70710678118654746 0.5 forward I I I I #
loop $-1 $-1 $97 $24 #
coedge $-1 $61 $61 $98 $99 reversed $38 $-1 #
face $-1 $100 $101 $15 $-1 $102 reversed single #
loop $-1 $-1 $103 $40 #
plane-surface $-1 0 -18.579607023434974 0 0 1 0 0 0 1 forward_v I I I I #
coedge $-1 $104 $105 $106 $107 forward $41 $-1 #
coedge $-1 $108 $43 $109 $110 forward $26 $-1 #
coedge $-1 $43 $108 $111 $112 forward $26 $-1 #
coedge $-1 $113 $114 $43 $69 reversed $115 $-1 #
edge $-1 $116 -18.579607023434974 $117 18.579607023434974 $68 $118 forward 7 unknown #
face $-1 $119 $120 $16 $-1 $121 reversed single #
loop $-1 $-1 $76 $44 #
plane-surface $-1 -49.403686985451827 0 -5.5005090088145216 0 0 1 1 0 0 forward_v I I I I #
coedge $-1 $122 $123 $75 $124 forward $45 $-1 #
coedge $-1 $125 $47 $126 $127 reversed $29 $-1 #
coedge $-1 $47 $125 $73 $124 reversed $29 $-1 #
coedge $-1 $128 $129 $47 $77 reversed $71 $-1 #
edge $-1 $130 -18.579607023434974 $131 18.579607023434974 $76 $132 forward 7 unknown #
face $-1 $133 $134 $17 $-1 $135 reversed single #
loop $-1 $-1 $136 $48 #
plane-surface $-1 0 0 8.5005090088145216 0 0 1 1 0 0 forward_v I I I I #
coedge $-1 $137 $138 $139 $140 reversed $49 $-1 #
coedge $-1 $83 $51 $141 $142 reversed $32 $-1 #
coedge $-1 $51 $82 $137 $143 reversed $32 $-1 #
coedge $-1 $139 $144 $51 $85 forward $134 $-1 #
edge $-1 $145 57.728953743274928 $146 63.239745492438388 $84 $147 forward 7 unknown #
loop $-1 $-1 $91 $52 #
plane-surface $-1 -16.671842126569366 13.590380347863814 69.984904356032942 0.73135370988377701 0 0.68199835119979291 0.68199835119979291 0 -0.73135370988377701 forward_v I I I I #
loop $-1 $-1 $148 $34 #
coedge $-1 $89 $89 $90 $149 reversed $53 $-1 #
coedge $-1 $90 $90 $89 $149 forward $55 $-1 #
coedge $-1 $91 $91 $56 $92 forward $86 $-1 #
edge $-1 $150 0 $150 6.2831853071796004 $91 $151 forward 7 unknown #
loop $-1 $-1 $98 $57 #
plane-surface $-1 -16.671842126569366 13.590380347863814 69.984904356032942 0.73135370988377701 0 0.68199835119979291 0.68199835119979291 0 -0.73135370988377701 forward_v I I I I #
loop $-1 $-1 $152 $37 #
coedge $-1 $96 $96 $97 $153 reversed $58 $-1 #
coedge $-1 $97 $97 $96 $153 forward $60 $-1 #
coedge $-1 $98 $98 $61 $99 forward $93 $-1 #
edge $-1 $154 0 $154 6.2831853071796004 $98 $155 forward 7 unknown #
face $-1 $156 $157 $15 $-1 $158 reversed single #
loop $-1 $-1 $159 $62 #
plane-surface $-1 -45.802179021576585 0 0 1 0 0 0 0 -1 forward_v I I I I #
coedge $-1 $160 $111 $161 $162 forward $63 $-1 #
coedge $-1 $163 $65 $160 $164 forward $41 $-1 #
coedge $-1 $65 $163 $165 $166 forward $41 $-1 #
coedge $-1 $114 $113 $65 $107 reversed $115 $-1 #
edge $-1 $167 -18.579607023434974 $168 18.579607023434974 $106 $169 forward 7 unknown #
coedge $-1 $67 $66 $170 $171 forward $26 $-1 #
coedge $-1 $172 $173 $66 $110 reversed $157 $-1 #
edge $-1 $117 -45.802179021576585 $174 45.802179021576585 $109 $175 forward 7 unknown #
coedge $-1 $103 $176 $67 $112 reversed $63 $-1 #
edge $-1 $177 -45.802179021576585 $116 45.802179021576585 $111 $178 forward 7 unknown #
coedge $-1 $106 $68 $176 $179 forward $115 $-1 #
coedge $-1 $68 $106 $172 $180 reversed $115 $-1 #
loop $-1 $-1 $113 $156 #
vertex $-1 $69 $181 #
vertex $-1 $69 $182 #
straight-curve $-1 45.802179021576585 0 8.5005090088145216 0 1 0 I I #
face $-1 $183 $184 $16 $-1 $185 reversed single #
loop $-1 $-1 $186 $70 #
plane-surface $-1 -53.00519494932707 0 -7.0005090088145216 1 0 0 0 0 -1 forward_v I I I I #
coedge $-1 $187 $73 $188 $189 reversed $45 $-1 #
coedge $-1 $73 $187 $128 $190 reversed $45 $-1 #
edge $-1 $130 5.5005090088145216 $191 8.5005090088145216 $73 $192 forward 7 unknown #
coedge $-1 $75 $74 $193 $194 reversed $29 $-1 #
coedge $-1 $195 $196 $74 $127 forward $197 $-1 #
edge $-1 $198 -8.5005090088145216 $131 -5.5005090088145216 $126 $199 forward 7 unknown #
coedge $-1 $200 $76 $123 $190 forward $71 $-1 #
coedge $-1 $76 $200 $195 $201 forward $71 $-1 #
vertex $-1 $124 $202 #
vertex $-1 $201 $203 #
straight-curve $-1 -45.802179021576585 0 -5.5005090088145216 0 -1 0 I I #
face $-1 $-1 $204 $17 $-1 $205 reversed single #
loop $-1 $-1 $84 $78 #
plane-surface $-1 45.802179021576585 0 0 -1 0 0 0 0 1 forward_v I I I I #
coedge $-1 $141 $206 $207 $208 forward $79 $-1 #
coedge $-1 $207 $81 $83 $143 forward $49 $-1 #
coedge $-1 $81 $207 $209 $210 reversed $49 $-1 #
coedge $-1 $211 $84 $81 $140 forward $134 $-1 #
edge $-1 $146 1.8059634983607467 $212 11.784416849503067 $139 $213 forward 7 unknown #
coedge $-1 $214 $136 $82 $142 forward $79 $-1 #
edge $-1 $215 15.501610218865149 $145 20.640506536670326 $141 $216 forward 7 unknown #
edge $-1 $146 -91.604358043153155 $215 -84.069301237275738 $83 $217 forward 7 unknown #
coedge $-1 $84 $211 $214 $218 reversed $134 $-1 #
vertex $-1 $218 $219 #
vertex $-1 $85 $220 #
straight-curve $-1 45.802179021576585 8.6011536722926536 66.229462752089447 0 0 -1 I I #
coedge $-1 $148 $148 $-1 $221 reversed $88 $-1 #
edge $-1 $222 0 $222 6.2831853071796004 $89 $223 forward 7 unknown #
vertex $-1 $92 $224 #
ellipse-curve $-1 43.232730862673982 11.452140344047603 5.7451131342327901 0.73135370988377701 0 0.68199835119979291 0.68199835119979291 0 -0.73135370988377701 1 I I #
coedge $-1 $152 $152 $-1 $225 reversed $95 $-1 #
edge $-1 $226 0 $226 6.2831853071796004 $96 $227 forward 7 unknown #
vertex $-1 $99 $228 #
ellipse-curve $-1 43.232730862673982 15.728620351680021 5.7451131342327901 0.73135370988377701 0 0.68199835119979291 0.68199835119979291 0 -0.73135370988377701 1 I I #
face $-1 $-1 $115 $15 $-1 $229 reversed single #
loop $-1 $-1 $172 $100 #
plane-surface $-1 0 18.579607023434974 0 0 -1 0 0 0 -1 forward_v I I I I #
coedge $-1 $230 $170 $173 $231 forward $101 $-1 #
coedge $-1 $176 $103 $104 $164 reversed $63 $-1 #
coedge $-1 $170 $230 $103 $162 reversed $101 $-1 #
edge $-1 $177 -8.5005090088145216 $232 8.5005090088145216 $161 $233 forward 7 unknown #
coedge $-1 $105 $104 $230 $234 forward $41 $-1 #
edge $-1 $168 -45.802179021576585 $232 45.802179021576585 $160 $235 forward 7 unknown #
coedge $-1 $173 $172 $105 $166 reversed $157 $-1 #
edge $-1 $236 -45.802179021576585 $167 45.802179021576585 $165 $237 forward 7 unknown #
vertex $-1 $107 $238 #
vertex $-1 $179 $239 #
straight-curve $-1 45.802179021576585 0 -8.5005090088145216 0 -1 0 I I #
coedge $-1 $159 $161 $108 $171 reversed $101 $-1 #
edge $-1 $174 -18.579607023434974 $177 18.579607023434974 $170 $240 forward 7 unknown #
coedge $-1 $165 $109 $114 $180 forward $157 $-1 #
coedge $-1 $109 $165 $159 $231 reversed $157 $-1 #
vertex $-1 $110 $241 #
straight-curve $-1 0 18.579607023434974 8.5005090088145216 -1 0 0 I I #
coedge $-1 $111 $160 $113 $179 reversed $63 $-1 #
vertex $-1 $171 $242 #
straight-curve $-1 0 -18.579607023434974 8.5005090088145216 1 0 0 I I #
edge $-1 $116 -8.5005090088145216 $168 8.5005090088145216 $113 $243 forward 7 unknown #
edge $-1 $117 -8.5005090088145216 $167 8.5005090088145216 $114 $244 forward 7 unknown #
point $-1 45.802179021576585 -18.579607023434974 8.5005090088145216 #
point $-1 45.802179021576585 18.579607023434974 8.5005090088145216 #
face $-1 $-1 $197 $16 $-1 $245 reversed single #
loop $-1 $-1 $193 $119 #
plane-surface $-1 0 0 -8.5005090088145216 0 0 1 1 0 0 forward_v I I I I #
coedge $-1 $246 $247 $187 $248 forward $120 $-1 #
coedge $-1 $123 $122 $186 $248 reversed $45 $-1 #
coedge $-1 $193 $249 $122 $189 forward $184 $-1 #
edge $-1 $250 -53.00519494932707 $191 -45.802179021576585 $122 $251 forward 7 unknown #
edge $-1 $130 -3.6015079638752425 $252 3.6015079638752425 $123 $253 forward 7 unknown #
vertex $-1 $124 $254 #
straight-curve $-1 -45.802179021576585 18.579607023434974 0 0 0 -1 I I #
coedge $-1 $255 $188 $125 $194 forward $184 $-1 #
edge $-1 $191 -18.579607023434974 $198 18.579607023434974 $193 $256 forward 7 unknown #
coedge $-1 $257 $126 $129 $201 reversed $197 $-1 #
coedge $-1 $126 $257 $255 $258 reversed $197 $-1 #
loop $-1 $-1 $126 $183 #
vertex $-1 $258 $259 #
straight-curve $-1 -45.802179021576585 -18.579607023434974 0 0 0 1 I I #
coedge $-1 $129 $128 $247 $260 forward $71 $-1 #
edge $-1 $261 -3.6015079638752425 $131 3.6015079638752425 $195 $262 forward 7 unknown #
point $-1 -45.802179021576585 18.579607023434974 -5.5005090088145216 #
point $-1 -45.802179021576585 -18.579607023434974 -5.5005090088145216 #
loop $-1 $-1 $209 $133 #
plane-surface $-1 0 18.579607023434974 0 0 -1 0 0 0 -1 forward_v I I I I #
coedge $-1 $136 $214 $263 $264 forward $79 $-1 #
coedge $-1 $138 $137 $136 $208 reversed $49 $-1 #
edge $-1 $265 -11.784416849503067 $215 -1.8059634983607467 $136 $266 forward 7 unknown #
coedge $-1 $263 $267 $138 $210 forward $204 $-1 #
edge $-1 $212 -60.327413903938385 $265 -52.792357098060968 $209 $268 forward 7 unknown #
coedge $-1 $144 $139 $267 $269 reversed $134 $-1 #
vertex $-1 $140 $270 #
straight-curve $-1 45.802179021576585 6.7951901739319069 2.9897172596510586 0 1 0 I I #
coedge $-1 $206 $141 $144 $218 forward $79 $-1 #
vertex $-1 $142 $271 #
straight-curve $-1 25.161672484906259 8.6011536722926536 8.5005090088145181 1 0 0 I I #
straight-curve $-1 -16.671842126569366 8.6011536722926536 69.984904356032942 -0.68199835119979291 0 0.73135370988377701 I I #
edge $-1 $145 8.6011536722926536 $272 18.579607023434974 $144 $273 forward 7 unknown #
point $-1 45.802179021576585 8.6011536722926536 8.5005090088145216 #
point $-1 45.802179021576585 8.6011536722926536 2.9897172596510586 #
edge $-1 $274 1 $274 0 $148 $-1 forward 7 unknown #
vertex $-1 $149 $275 #
ellipse-curve $-1 40.360548806062951 11.452140344047603 3.066760101381365 0.73135370988377701 0 0.68199835119979291 0.68199835119979291 0 -0.73135370988377701 1 I I #
point $-1 43.914729213873784 11.452140344047603 5.013759424349022 #
edge $-1 $276 1 $276 0 $152 $-1 forward 7 unknown #
vertex $-1 $153 $277 #
ellipse-curve $-1 40.360548806062951 15.728620351680021 3.066760101381365 0.73135370988377701 0 0.68199835119979291 0.68199835119979291 0 -0.73135370988377701 1 I I #
point $-1 43.914729213873784 15.728620351680021 5.013759424349022 #
plane-surface $-1 45.802179021576585 0 0 -1 0 0 0 0 1 forward_v I I I I #
coedge $-1 $161 $159 $163 $234 reversed $101 $-1 #
edge $-1 $174 -8.5005090088145216 $236 8.5005090088145216 $173 $278 forward 7 unknown #
vertex $-1 $234 $279 #
straight-curve $-1 -45.802179021576585 -18.579607023434974 0 0 0 -1 I I #
edge $-1 $232 -18.579607023434974 $236 18.579607023434974 $230 $280 forward 7 unknown #
straight-curve $-1 0 -18.579607023434974 -8.5005090088145216 -1 0 0 I I #
vertex $-1 $166 $281 #
straight-curve $-1 0 18.579607023434974 -8.5005090088145216 1 0 0 I I #
point $-1 45.802179021576585 18.579607023434974 -8.5005090088145216 #
point $-1 45.802179021576585 -18.579607023434974 -8.5005090088145216 #
straight-curve $-1 -45.802179021576585 0 8.5005090088145216 0 -1 0 I I #
point $-1 -45.802179021576585 18.579607023434974 8.5005090088145216 #
point $-1 -45.802179021576585 -18.579607023434974 8.5005090088145216 #
straight-curve $-1 45.802179021576585 -18.579607023434974 0 0 0 -1 I I #
straight-curve $-1 45.802179021576585 18.579607023434974 0 0 0 -1 I I #
plane-surface $-1 0 -18.579607023434974 0 0 1 0 0 0 1 forward_v I I I I #
coedge $-1 $282 $186 $249 $283 reversed $120 $-1 #
coedge $-1 $186 $282 $200 $260 reversed $120 $-1 #
edge $-1 $252 -1.5 $250 1.5 $187 $284 forward 7 unknown #
coedge $-1 $188 $255 $246 $283 forward $184 $-1 #
vertex $-1 $189 $285 #
straight-curve $-1 0 18.579607023434974 -8.5005090088145216 1 0 0 I I #
vertex $-1 $190 $286 #
straight-curve $-1 -49.403686985451827 18.579607023434974 -5.5005090088145216 -1 0 0 I I #
point $-1 -45.802179021576585 18.579607023434974 -8.5005090088145216 #
coedge $-1 $249 $193 $196 $258 forward $184 $-1 #
straight-curve $-1 -45.802179021576585 0 -8.5005090088145216 0 -1 0 I I #
coedge $-1 $196 $195 $282 $287 forward $197 $-1 #
edge $-1 $198 -3.6015079638752425 $288 3.6015079638752425 $196 $289 forward 7 unknown #
point $-1 -45.802179021576585 -18.579607023434974 -8.5005090088145216 #
edge $-1 $252 -18.579607023434974 $261 18.579607023434974 $247 $290 forward 7 unknown #
vertex $-1 $260 $291 #
straight-curve $-1 -49.403686985451827 -18.579607023434974 -5.5005090088145216 1 0 0 I I #
coedge $-1 $267 $209 $206 $264 reversed $204 $-1 #
edge $-1 $272 -45.802179021576585 $265 -40.663282703771408 $263 $292 forward 7 unknown #
vertex $-1 $210 $293 #
straight-curve $-1 40.663282703771408 6.7951901739319069 8.5005090088145181 0 -1 0 I I #
coedge $-1 $209 $263 $211 $269 forward $204 $-1 #
straight-curve $-1 4.6589822069431399 18.579607023434974 47.110395225990558 -0.68199835119979291 0 0.73135370988377701 I I #
edge $-1 $272 -8.5005090088145216 $212 -2.9897172596510613 $211 $294 forward 7 unknown #
point $-1 45.802179021576585 18.579607023434974 2.9897172596510613 #
point $-1 40.663282703771408 8.6011536722926536 8.5005090088145181 #
vertex $-1 $218 $295 #
straight-curve $-1 45.802179021576585 0 8.5005090088145216 0 1 0 I I #
vertex $-1 $221 $296 #
point $-1 41.042547157262746 11.452140344047603 2.335406391497588 #
vertex $-1 $225 $297 #
point $-1 41.042547157262746 15.728620351680021 2.335406391497588 #
straight-curve $-1 -45.802179021576585 18.579607023434974 0 0 0 -1 I I #
point $-1 -45.802179021576585 -18.579607023434974 -8.5005090088145216 #
straight-curve $-1 -45.802179021576585 0 -8.5005090088145216 0 1 0 I I #
point $-1 -45.802179021576585 18.579607023434974 -8.5005090088145216 #
coedge $-1 $247 $246 $257 $287 reversed $120 $-1 #
edge $-1 $288 -18.579607023434974 $250 18.579607023434974 $246 $298 forward 7 unknown #
straight-curve $-1 -53.00519494932707 18.579607023434974 -7.0005090088145216 0 0 -1 I I #
point $-1 -53.00519494932707 18.579607023434974 -8.5005090088145216 #
point $-1 -53.00519494932707 18.579607023434974 -5.5005090088145216 #
edge $-1 $261 -1.5 $288 1.5 $282 $299 forward 7 unknown #
vertex $-1 $283 $300 #
straight-curve $-1 -49.403686985451827 -18.579607023434974 -8.5005090088145216 -1 0 0 I I #
straight-curve $-1 -53.00519494932707 0 -5.5005090088145216 0 -1 0 I I #
point $-1 -53.00519494932707 -18.579607023434974 -5.5005090088145216 #
straight-curve $-1 0 18.579607023434974 8.5005090088145216 -1 0 0 I I #
point $-1 40.663282703771408 18.579607023434974 8.5005090088145181 #
straight-curve $-1 45.802179021576585 18.579607023434974 0 0 0 -1 I I #
point $-1 45.802179021576585 18.579607023434974 8.5005090088145216 #
point $-1 39.629195096179174 11.452140344047603 2.3847617501815721 #
point $-1 39.629195096179174 15.728620351680021 2.3847617501815721 #
straight-curve $-1 -53.00519494932707 0 -8.5005090088145216 0 1 0 I I #
straight-curve $-1 -53.00519494932707 -18.579607023434974 -7.0005090088145216 0 0 -1 I I #
point $-1 -53.00519494932707 -18.579607023434974 -8.5005090088145216 #
End-of-ACIS-data 