500 0 11 0           
7 Unknown 11 ACIS 5.0 NT 24 Fri Mar 26 01:23:30 1999 
-1 9.9999999999999995e-007 1e-010 
body $-1 $11 $-1 $12 #
body $-1 $13 $-1 $14 #
body $-1 $15 $-1 $16 #
body $-1 $17 $-1 $18 #
body $-1 $19 $-1 $20 #
body $-1 $21 $-1 $22 #
body $-1 $23 $-1 $24 #
body $-1 $25 $-1 $26 #
body $-1 $27 $-1 $28 #
body $-1 $29 $-1 $30 #
body $-1 $31 $-1 $32 #
lump $-1 $-1 $33 $0 #
transform $-1 1 0 0 0 1 0 0 0 1 51.888790551469469 24.510949027766042 7.5762747258833594 1 rotate no_reflect no_shear #
lump $-1 $-1 $34 $1 #
transform $-1 1 0 0 0 1 0 0 0 1 51.888790551469469 24.510949027766042 7.5762747258833594 1 rotate no_reflect no_shear #
lump $-1 $-1 $35 $2 #
transform $-1 1 0 0 0 1 0 0 0 1 51.888790551469469 24.510949027766042 7.5762747258833594 1 rotate no_reflect no_shear #
lump $-1 $-1 $36 $3 #
transform $-1 1 0 0 0 1 0 0 0 1 51.888790551469469 24.510949027766042 7.5762747258833594 1 rotate no_reflect no_shear #
lump $-1 $-1 $37 $4 #
transform $-1 1 0 0 0 1 0 0 0 1 51.888790551469469 24.510949027766042 7.5762747258833594 1 rotate no_reflect no_shear #
lump $-1 $-1 $38 $5 #
transform $-1 1 0 0 0 1 0 0 0 1 51.888790551469469 24.510949027766042 7.5762747258833594 1 rotate no_reflect no_shear #
lump $-1 $-1 $39 $6 #
transform $-1 1 0 0 0 1 0 0 0 1 51.888790551469469 24.510949027766042 7.5762747258833594 1 rotate no_reflect no_shear #
lump $-1 $-1 $40 $7 #
transform $-1 1 0 0 0 1 0 0 0 1 51.888790551469469 24.510949027766042 7.5762747258833594 1 rotate no_reflect no_shear #
lump $-1 $-1 $41 $8 #
transform $-1 1 0 0 0 1 0 0 0 1 51.888790551469469 24.510949027766042 7.5762747258833594 1 rotate no_reflect no_shear #
lump $-1 $-1 $42 $9 #
transform $-1 1 0 0 0 1 0 0 0 1 51.888790551469469 24.510949027766042 7.5762747258833594 1 rotate no_reflect no_shear #
lump $-1 $-1 $43 $10 #
transform $-1 1 0 0 0 1 0 0 0 1 51.888790551469469 24.510949027766042 7.5762747258833594 1 rotate no_reflect no_shear #
shell $-1 $-1 $-1 $44 $-1 $11 #
shell $-1 $-1 $-1 $45 $-1 $13 #
shell $-1 $-1 $-1 $46 $-1 $15 #
shell $-1 $-1 $-1 $47 $-1 $17 #
shell $-1 $-1 $-1 $48 $-1 $19 #
shell $-1 $-1 $-1 $49 $-1 $21 #
shell $-1 $-1 $-1 $50 $-1 $23 #
shell $-1 $-1 $-1 $51 $-1 $25 #
shell $-1 $-1 $-1 $52 $-1 $27 #
shell $-1 $-1 $-1 $53 $-1 $29 #
shell $-1 $-1 $-1 $54 $-1 $31 #
face $-1 $55 $56 $33 $-1 $57 forward single #
face $-1 $58 $59 $34 $-1 $60 reversed single #
face $-1 $61 $62 $35 $-1 $63 reversed single #
face $-1 $64 $65 $36 $-1 $66 forward single #
face $-1 $67 $68 $37 $-1 $69 reversed single #
face $-1 $70 $71 $38 $-1 $72 forward single #
face $-1 $73 $74 $39 $-1 $75 reversed single #
face $-1 $76 $77 $40 $-1 $78 forward single #
face $-1 $79 $80 $41 $-1 $81 reversed single #
face $-1 $82 $83 $42 $-1 $84 forward single #
face $-1 $85 $86 $43 $-1 $87 forward single #
face $-1 $88 $89 $33 $-1 $90 reversed single #
loop $-1 $-1 $91 $44 #
plane-surface $-1 0 0 7.5762747258833594 0 0 1 1 0 0 forward_v I I I I #
face $-1 $92 $93 $34 $-1 $94 reversed single #
loop $-1 $-1 $95 $45 #
plane-surface $-1 -44.310880333047692 -19.989628412458213 0 1 0 0 0 0 -1 forward_v I I I I #
face $-1 $96 $97 $35 $-1 $98 reversed single #
loop $-1 $-1 $99 $46 #
plane-surface $-1 54.450171382950344 -8.8471231447901495 150.95809691571264 0 -1 0 -0.71933980857756763 0 -0.69465836192734942 forward_v I I I I #
face $-1 $100 $101 $36 $-1 $102 forward single #
loop $-1 $103 $104 $47 #
cone-surface $-1 49.689844606760687 -12.157715470970267 5.3394866456311396 -0.71933980857756763 0 -0.69465836192734942 0.34732918096367471 0 -0.35966990428878381 1 I I 0 1 0.5 forward I I I I #
face $-1 $105 $106 $37 $-1 $107 reversed single #
loop $-1 $-1 $108 $48 #
plane-surface $-1 54.450171382950344 4.4792957968486604 150.95809691571264 0 -1 0 -0.71933980857756763 0 -0.69465836192734942 forward_v I I I I #
face $-1 $109 $110 $38 $-1 $111 forward single #
loop $-1 $112 $113 $49 #
cone-surface $-1 49.689844606760687 1.1687034706685431 5.3394866456311396 -0.71933980857756763 0 -0.69465836192734942 0.34732918096367471 0 -0.35966990428878381 1 I I 0 1 0.5 forward I I I I #
face $-1 $114 $115 $39 $-1 $116 reversed single #
loop $-1 $-1 $117 $50 #
plane-surface $-1 54.450171382950344 17.805714738487467 150.95809691571264 0 -1 0 -0.71933980857756763 0 -0.69465836192734942 forward_v I I I I #
face $-1 $118 $119 $40 $-1 $120 forward single #
loop $-1 $121 $122 $51 #
cone-surface $-1 49.689844606760687 14.495122412307349 5.3394866456311396 -0.71933980857756763 0 -0.69465836192734942 0.34732918096367471 0 -0.35966990428878381 1 I I 0 1 0.5 forward I I I I #
face $-1 $123 $124 $41 $-1 $125 reversed single #
loop $-1 $-1 $126 $52 #
plane-surface $-1 -115.7806500402687 -15.468307797150384 83.793019041487298 0 1 0 -0.61566148304635926 0 0.78801074757464917 forward_v I I I I #
face $-1 $127 $128 $42 $-1 $129 forward single #
loop $-1 $130 $131 $53 #
cone-surface $-1 -47.631192940784743 -12.791177456558319 3.9014874521188938 0.61566148304635926 0 -0.78801074757464917 0.78801074757464917 0 0.61566148304635926 1 I I 0 1 1 forward I I I I #
face $-1 $132 $133 $43 $-1 $134 forward single #
loop $-1 $135 $136 $54 #
cone-surface $-1 -47.631192940784743 -8.7754819456702222 3.9014874521188938 0.61566148304635926 0 -0.78801074757464917 0.78801074757464917 0 0.61566148304635926 1 I I 0 1 1 forward I I I I #
face $-1 $137 $138 $33 $-1 $139 reversed single #
loop $-1 $-1 $140 $55 #
plane-surface $-1 0 0 -7.5762747258833594 0 0 1 1 0 0 forward_v I I I I #
coedge $-1 $141 $142 $143 $144 forward $56 $-1 #
face $-1 $145 $146 $34 $-1 $147 reversed single #
loop $-1 $-1 $148 $58 #
plane-surface $-1 -42.054599268025335 -15.468307797150384 0 0 -1 0 0 0 -1 forward_v I I I I #
coedge $-1 $149 $150 $151 $152 forward $59 $-1 #
face $-1 $153 $154 $35 $-1 $155 reversed single #
loop $-1 $-1 $156 $61 #
plane-surface $-1 -20.201173942280747 -12.157715470970267 78.868132421962429 0.71933980857756763 0 0.69465836192734942 0.69465836192734942 0 -0.71933980857756763 forward_v I I I I #
coedge $-1 $157 $158 $159 $160 reversed $62 $-1 #
face $-1 $-1 $161 $36 $-1 $162 forward single #
loop $-1 $163 $164 $64 #
cone-surface $-1 48.933173417694022 -12.157715470970267 4.6087777894730868 -0.71933980857756763 0 -0.69465836192734942 0.17366459048183736 0 -0.17983495214439191 1 I I -0.70710678118654746 0.70710678118654746 0.25 forward I I I I #
loop $-1 $-1 $165 $47 #
coedge $-1 $104 $104 $166 $167 reversed $65 $-1 #
face $-1 $168 $169 $37 $-1 $170 reversed single #
loop $-1 $-1 $171 $67 #
plane-surface $-1 -20.201173942280747 1.1687034706685431 78.868132421962429 0.71933980857756763 0 0.69465836192734942 0.69465836192734942 0 -0.71933980857756763 forward_v I I I I #
coedge $-1 $172 $173 $174 $175 reversed $68 $-1 #
face $-1 $-1 $176 $38 $-1 $177 forward single #
loop $-1 $178 $179 $70 #
cone-surface $-1 48.933173417694022 1.1687034706685431 4.6087777894730868 -0.71933980857756763 0 -0.69465836192734942 0.17366459048183736 0 -0.17983495214439191 1 I I -0.70710678118654746 0.70710678118654746 0.25 forward I I I I #
loop $-1 $-1 $180 $49 #
coedge $-1 $113 $113 $181 $182 reversed $71 $-1 #
face $-1 $183 $184 $39 $-1 $185 reversed single #
loop $-1 $-1 $186 $73 #
plane-surface $-1 -20.201173942280747 14.495122412307349 78.868132421962429 0.71933980857756763 0 0.69465836192734942 0.69465836192734942 0 -0.71933980857756763 forward_v I I I I #
coedge $-1 $187 $188 $189 $190 reversed $74 $-1 #
face $-1 $-1 $191 $40 $-1 $192 forward single #
loop $-1 $193 $194 $76 #
cone-surface $-1 48.933173417694022 14.495122412307349 4.6087777894730868 -0.71933980857756763 0 -0.69465836192734942 0.17366459048183736 0 -0.17983495214439191 1 I I -0.70710678118654746 0.70710678118654746 0.25 forward I I I I #
loop $-1 $-1 $195 $51 #
coedge $-1 $122 $122 $196 $197 reversed $77 $-1 #
face $-1 $198 $199 $41 $-1 $200 reversed single #
loop $-1 $-1 $201 $79 #
plane-surface $-1 -51.888790551469484 -10.783329701114273 2.0151697750715982 -0.61566148304635926 0 0.78801074757464917 0.78801074757464917 0 0.61566148304635926 forward_v I I I I #
coedge $-1 $202 $203 $204 $205 reversed $80 $-1 #
face $-1 $-1 $206 $42 $-1 $207 forward single #
loop $-1 $208 $209 $82 #
cone-surface $-1 -46.624709390472361 -12.791177456558319 2.6132472799729838 0.61566148304635926 0 -0.78801074757464917 0.39400537378732459 0 0.30783074152317963 1 I I -0.70710678118654746 0.70710678118654746 0.5 forward I I I I #
loop $-1 $-1 $210 $53 #
coedge $-1 $131 $131 $211 $212 reversed $83 $-1 #
face $-1 $-1 $213 $43 $-1 $214 forward single #
loop $-1 $215 $216 $85 #
cone-surface $-1 -46.624709390472361 -8.7754819456702222 2.6132472799729838 0.61566148304635926 0 -0.78801074757464917 0.39400537378732459 0 0.30783074152317963 1 I I -0.70710678118654746 0.70710678118654746 0.5 forward I I I I #
loop $-1 $-1 $217 $54 #
coedge $-1 $136 $136 $218 $219 reversed $86 $-1 #
face $-1 $220 $221 $33 $-1 $222 reversed single #
loop $-1 $-1 $223 $88 #
plane-surface $-1 0 -24.510949027766042 0 0 1 0 0 0 1 forward_v I I I I #
coedge $-1 $224 $225 $226 $227 forward $89 $-1 #
coedge $-1 $228 $91 $229 $230 forward $56 $-1 #
coedge $-1 $91 $228 $231 $232 forward $56 $-1 #
coedge $-1 $233 $234 $91 $144 reversed $235 $-1 #
edge $-1 $236 -24.510949027766042 $237 24.510949027766042 $143 $238 forward 7 unknown #
face $-1 $239 $240 $34 $-1 $241 forward single #
loop $-1 $-1 $242 $92 #
plane-surface $-1 -39.798318203002978 -19.989628412458213 0 -1 0 0 0 0 1 forward_v I I I I #
coedge $-1 $243 $244 $245 $246 forward $93 $-1 #
coedge $-1 $247 $95 $248 $249 reversed $59 $-1 #
coedge $-1 $95 $247 $250 $251 reversed $59 $-1 #
coedge $-1 $244 $243 $95 $152 reversed $93 $-1 #
edge $-1 $252 -7.5762747258833594 $253 7.5762747258833594 $151 $254 forward 7 unknown #
face $-1 $255 $256 $35 $-1 $257 reversed single #
loop $-1 $-1 $258 $96 #
plane-surface $-1 54.450171382950344 -15.468307797150384 150.95809691571264 0 1 0 0.71933980857756763 0 0.69465836192734942 forward_v I I I I #
coedge $-1 $259 $260 $261 $262 reversed $97 $-1 #
coedge $-1 $158 $99 $263 $264 reversed $62 $-1 #
coedge $-1 $99 $157 $259 $265 reversed $62 $-1 #
coedge $-1 $261 $266 $99 $160 forward $267 $-1 #
edge $-1 $268 -24.663704859994297 $269 -21.419485444421241 $159 $270 forward 7 unknown #
loop $-1 $-1 $166 $100 #
plane-surface $-1 -20.201173942280747 -12.157715470970267 78.868132421962429 0.71933980857756763 0 0.69465836192734942 0.69465836192734942 0 -0.71933980857756763 forward_v I I I I #
loop $-1 $-1 $271 $64 #
coedge $-1 $164 $164 $165 $272 reversed $101 $-1 #
coedge $-1 $165 $165 $164 $272 forward $103 $-1 #
coedge $-1 $166 $166 $104 $167 forward $161 $-1 #
edge $-1 $273 0 $273 6.2831853071796004 $166 $274 forward 7 unknown #
face $-1 $275 $276 $37 $-1 $277 reversed single #
loop $-1 $-1 $278 $105 #
plane-surface $-1 54.450171382950344 -2.1418888555115743 150.95809691571264 0 1 0 0.71933980857756763 0 0.69465836192734942 forward_v I I I I #
coedge $-1 $279 $280 $281 $282 reversed $106 $-1 #
coedge $-1 $173 $108 $283 $284 reversed $68 $-1 #
coedge $-1 $108 $172 $279 $285 reversed $68 $-1 #
coedge $-1 $281 $286 $108 $175 forward $287 $-1 #
edge $-1 $288 -24.663704859994297 $289 -21.419485444421241 $174 $290 forward 7 unknown #
loop $-1 $-1 $181 $109 #
plane-surface $-1 -20.201173942280747 1.1687034706685431 78.868132421962429 0.71933980857756763 0 0.69465836192734942 0.69465836192734942 0 -0.71933980857756763 forward_v I I I I #
loop $-1 $-1 $291 $70 #
coedge $-1 $179 $179 $180 $292 reversed $110 $-1 #
coedge $-1 $180 $180 $179 $292 forward $112 $-1 #
coedge $-1 $181 $181 $113 $182 forward $176 $-1 #
edge $-1 $293 0 $293 6.2831853071796004 $181 $294 forward 7 unknown #
face $-1 $295 $296 $39 $-1 $297 reversed single #
loop $-1 $-1 $298 $114 #
plane-surface $-1 54.450171382950344 11.184530086127232 150.95809691571264 0 1 0 0.71933980857756763 0 0.69465836192734942 forward_v I I I I #
coedge $-1 $299 $300 $301 $302 reversed $115 $-1 #
coedge $-1 $188 $117 $303 $304 reversed $74 $-1 #
coedge $-1 $117 $187 $299 $305 reversed $74 $-1 #
coedge $-1 $301 $306 $117 $190 forward $307 $-1 #
edge $-1 $308 -24.663704859994297 $309 -21.419485444421241 $189 $310 forward 7 unknown #
loop $-1 $-1 $196 $118 #
plane-surface $-1 -20.201173942280747 14.495122412307349 78.868132421962429 0.71933980857756763 0 0.69465836192734942 0.69465836192734942 0 -0.71933980857756763 forward_v I I I I #
loop $-1 $-1 $311 $76 #
coedge $-1 $194 $194 $195 $312 reversed $119 $-1 #
coedge $-1 $195 $195 $194 $312 forward $121 $-1 #
coedge $-1 $196 $196 $122 $197 forward $191 $-1 #
edge $-1 $313 0 $313 6.2831853071796004 $196 $314 forward 7 unknown #
face $-1 $315 $316 $41 $-1 $317 reversed single #
loop $-1 $-1 $318 $123 #
plane-surface $-1 -115.7806500402687 -6.098351605078161 83.793019041487298 0 -1 0 0.61566148304635926 0 -0.78801074757464917 forward_v I I I I #
coedge $-1 $319 $320 $321 $322 reversed $124 $-1 #
coedge $-1 $203 $126 $323 $324 reversed $80 $-1 #
coedge $-1 $126 $202 $319 $325 reversed $80 $-1 #
coedge $-1 $321 $326 $126 $205 forward $327 $-1 #
edge $-1 $328 6.0015344686648788 $329 13.119424072455914 $204 $330 forward 7 unknown #
loop $-1 $-1 $211 $127 #
plane-surface $-1 -51.888790551469484 -10.783329701114273 2.0151697750715982 -0.61566148304635926 0 0.78801074757464917 0.78801074757464917 0 0.61566148304635926 forward_v I I I I #
loop $-1 $-1 $331 $82 #
coedge $-1 $209 $209 $210 $332 reversed $128 $-1 #
coedge $-1 $210 $210 $209 $332 forward $130 $-1 #
coedge $-1 $211 $211 $131 $212 forward $206 $-1 #
edge $-1 $333 0 $333 6.2831853071796004 $211 $334 forward 7 unknown #
loop $-1 $-1 $218 $132 #
plane-surface $-1 -51.888790551469484 -10.783329701114273 2.0151697750715982 -0.61566148304635926 0 0.78801074757464917 0.78801074757464917 0 0.61566148304635926 forward_v I I I I #
loop $-1 $-1 $335 $85 #
coedge $-1 $216 $216 $217 $336 reversed $133 $-1 #
coedge $-1 $217 $217 $216 $336 forward $135 $-1 #
coedge $-1 $218 $218 $136 $219 forward $213 $-1 #
edge $-1 $337 0 $337 6.2831853071796004 $218 $338 forward 7 unknown #
face $-1 $339 $340 $33 $-1 $341 reversed single #
loop $-1 $-1 $342 $137 #
plane-surface $-1 -51.888790551469469 0 0 1 0 0 0 0 -1 forward_v I I I I #
coedge $-1 $343 $231 $344 $345 forward $138 $-1 #
coedge $-1 $346 $140 $343 $347 forward $89 $-1 #
coedge $-1 $140 $346 $348 $349 forward $89 $-1 #
coedge $-1 $234 $233 $140 $227 reversed $235 $-1 #
edge $-1 $350 -24.510949027766042 $351 24.510949027766042 $226 $352 forward 7 unknown #
coedge $-1 $142 $141 $353 $354 forward $56 $-1 #
coedge $-1 $355 $356 $141 $230 reversed $340 $-1 #
edge $-1 $237 -51.888790551469469 $357 51.888790551469469 $229 $358 forward 7 unknown #
coedge $-1 $223 $359 $142 $232 reversed $138 $-1 #
edge $-1 $360 -51.888790551469469 $236 51.888790551469469 $231 $361 forward 7 unknown #
coedge $-1 $226 $143 $359 $362 forward $235 $-1 #
coedge $-1 $143 $226 $355 $363 reversed $235 $-1 #
loop $-1 $-1 $233 $339 #
vertex $-1 $144 $364 #
vertex $-1 $144 $365 #
straight-curve $-1 51.888790551469469 0 7.5762747258833594 0 1 0 I I #
face $-1 $366 $367 $34 $-1 $368 reversed single #
loop $-1 $-1 $369 $145 #
plane-surface $-1 0 0 7.5762747258833594 0 0 1 1 0 0 forward_v I I I I #
coedge $-1 $370 $371 $372 $373 reversed $146 $-1 #
coedge $-1 $151 $148 $374 $375 reversed $93 $-1 #
coedge $-1 $148 $151 $376 $377 reversed $93 $-1 #
coedge $-1 $371 $370 $148 $246 reversed $146 $-1 #
edge $-1 $378 -7.5762747258833594 $379 7.5762747258833594 $245 $380 forward 7 unknown #
coedge $-1 $150 $149 $381 $382 reversed $59 $-1 #
coedge $-1 $374 $383 $149 $249 forward $367 $-1 #
edge $-1 $384 -14.516134821536935 $253 -5.4734935909212776 $248 $385 forward 7 unknown #
coedge $-1 $386 $376 $150 $251 forward $240 $-1 #
edge $-1 $252 5.4734935909212776 $387 14.516134821536935 $250 $388 forward 7 unknown #
vertex $-1 $251 $389 #
vertex $-1 $249 $390 #
straight-curve $-1 -44.310880333047692 -15.468307797150384 0 0 0 -1 I I #
face $-1 $-1 $267 $35 $-1 $391 forward single #
loop $-1 $-1 $392 $153 #
plane-surface $-1 51.888790551469469 0 0 -1 0 0 0 0 1 forward_v I I I I #
coedge $-1 $393 $394 $395 $396 reversed $154 $-1 #
coedge $-1 $397 $156 $158 $265 forward $97 $-1 #
coedge $-1 $156 $397 $393 $398 forward $97 $-1 #
coedge $-1 $395 $159 $156 $262 forward $267 $-1 #
edge $-1 $269 2.7682654093050161 $399 9.3894500616652508 $261 $400 forward 7 unknown #
coedge $-1 $401 $402 $157 $264 forward $256 $-1 #
edge $-1 $403 -71.262261361124985 $268 -67.902773731972957 $263 $404 forward 7 unknown #
edge $-1 $269 99.107343769911125 $403 103.77758110293894 $158 $405 forward 7 unknown #
coedge $-1 $159 $395 $401 $406 forward $267 $-1 #
loop $-1 $-1 $395 $255 #
vertex $-1 $264 $407 #
vertex $-1 $160 $408 #
straight-curve $-1 27.225085691475172 -8.8471231447901495 7.5762747258833656 -1 0 0 I I #
coedge $-1 $271 $271 $-1 $409 reversed $163 $-1 #
edge $-1 $410 0 $410 6.2831853071796004 $164 $411 forward 7 unknown #
vertex $-1 $167 $412 #
ellipse-curve $-1 50.266680843682948 -12.157715470970267 5.8965309113073445 0.71933980857756763 0 0.69465836192734942 0.34732918096367471 0 -0.35966990428878381 1 I I #
face $-1 $-1 $287 $37 $-1 $413 forward single #
loop $-1 $-1 $414 $168 #
plane-surface $-1 51.888790551469469 0 0 -1 0 0 0 0 1 forward_v I I I I #
coedge $-1 $415 $416 $417 $418 reversed $169 $-1 #
coedge $-1 $419 $171 $173 $285 forward $106 $-1 #
coedge $-1 $171 $419 $415 $420 forward $106 $-1 #
coedge $-1 $417 $174 $171 $282 forward $287 $-1 #
edge $-1 $289 -3.8949440615143889 $421 2.7262405908458458 $281 $422 forward 7 unknown #
coedge $-1 $423 $424 $172 $284 forward $276 $-1 #
edge $-1 $425 -71.262261361124985 $288 -67.902773731972957 $283 $426 forward 7 unknown #
edge $-1 $289 99.107343769911125 $425 103.77758110293894 $173 $427 forward 7 unknown #
coedge $-1 $174 $417 $423 $428 forward $287 $-1 #
loop $-1 $-1 $417 $275 #
vertex $-1 $284 $429 #
vertex $-1 $175 $430 #
straight-curve $-1 27.225085691475172 4.4792957968486604 7.5762747258833656 -1 0 0 I I #
coedge $-1 $291 $291 $-1 $431 reversed $178 $-1 #
edge $-1 $432 0 $432 6.2831853071796004 $179 $433 forward 7 unknown #
vertex $-1 $182 $434 #
ellipse-curve $-1 50.266680843682948 1.1687034706685431 5.8965309113073445 0.71933980857756763 0 0.69465836192734942 0.34732918096367471 0 -0.35966990428878381 1 I I #
face $-1 $-1 $307 $39 $-1 $435 forward single #
loop $-1 $-1 $436 $183 #
plane-surface $-1 51.888790551469469 0 0 -1 0 0 0 0 1 forward_v I I I I #
coedge $-1 $437 $438 $439 $440 reversed $184 $-1 #
coedge $-1 $441 $186 $188 $305 forward $115 $-1 #
coedge $-1 $186 $441 $437 $442 forward $115 $-1 #
coedge $-1 $439 $189 $186 $302 forward $307 $-1 #
edge $-1 $309 -10.558153532333792 $443 -3.9369688799735574 $301 $444 forward 7 unknown #
coedge $-1 $445 $446 $187 $304 forward $296 $-1 #
edge $-1 $447 -71.262261361124985 $308 -67.902773731972957 $303 $448 forward 7 unknown #
edge $-1 $309 99.107343769911125 $447 103.77758110293894 $188 $449 forward 7 unknown #
coedge $-1 $189 $439 $445 $450 forward $307 $-1 #
loop $-1 $-1 $439 $295 #
vertex $-1 $304 $451 #
vertex $-1 $190 $452 #
straight-curve $-1 27.225085691475172 17.805714738487467 7.5762747258833656 -1 0 0 I I #
coedge $-1 $311 $311 $-1 $453 reversed $193 $-1 #
edge $-1 $454 0 $454 6.2831853071796004 $194 $455 forward 7 unknown #
vertex $-1 $197 $456 #
ellipse-curve $-1 50.266680843682948 14.495122412307349 5.8965309113073445 0.71933980857756763 0 0.69465836192734942 0.34732918096367471 0 -0.35966990428878381 1 I I #
face $-1 $-1 $327 $41 $-1 $457 forward single #
loop $-1 $-1 $458 $198 #
plane-surface $-1 -51.888790551469469 0 0 1 0 0 0 0 -1 forward_v I I I I #
coedge $-1 $459 $460 $461 $462 reversed $199 $-1 #
coedge $-1 $463 $201 $203 $325 forward $124 $-1 #
coedge $-1 $201 $463 $459 $464 forward $124 $-1 #
coedge $-1 $461 $204 $201 $322 forward $327 $-1 #
edge $-1 $329 -10.076642946593248 $465 -0.7066867545210247 $321 $466 forward 7 unknown #
coedge $-1 $467 $468 $202 $324 forward $316 $-1 #
edge $-1 $469 -39.881339745672037 $328 -34.320234794860291 $323 $470 forward 7 unknown #
edge $-1 $329 -9.0327316292304278 $469 -1.8033521786330445e-014 $203 $471 forward 7 unknown #
coedge $-1 $204 $461 $467 $472 forward $327 $-1 #
loop $-1 $-1 $461 $315 #
vertex $-1 $324 $473 #
vertex $-1 $205 $474 #
straight-curve $-1 -57.890325020134348 -15.468307797150384 7.5762747258833585 1 0 0 I I #
coedge $-1 $331 $331 $-1 $475 reversed $208 $-1 #
edge $-1 $476 0 $476 6.2831853071796004 $209 $477 forward 7 unknown #
vertex $-1 $212 $478 #
ellipse-curve $-1 -48.329845749573948 -12.791177456558319 4.7957222504774855 -0.61566148304635926 0 0.78801074757464917 0.78801074757464917 0 0.61566148304635926 1 I I #
coedge $-1 $335 $335 $-1 $479 reversed $215 $-1 #
edge $-1 $480 0 $480 6.2831853071796004 $216 $481 forward 7 unknown #
vertex $-1 $219 $482 #
ellipse-curve $-1 -48.329845749573948 -8.7754819456702222 4.7957222504774855 -0.61566148304635926 0 0.78801074757464917 0.78801074757464917 0 0.61566148304635926 1 I I #
face $-1 $-1 $235 $33 $-1 $483 reversed single #
loop $-1 $-1 $355 $220 #
plane-surface $-1 0 24.510949027766042 0 0 -1 0 0 0 -1 forward_v I I I I #
coedge $-1 $484 $353 $356 $485 forward $221 $-1 #
coedge $-1 $359 $223 $224 $347 reversed $138 $-1 #
coedge $-1 $353 $484 $223 $345 reversed $221 $-1 #
edge $-1 $360 -7.5762747258833594 $486 7.5762747258833594 $344 $487 forward 7 unknown #
coedge $-1 $225 $224 $484 $488 forward $89 $-1 #
edge $-1 $351 -51.888790551469469 $486 51.888790551469469 $343 $489 forward 7 unknown #
coedge $-1 $356 $355 $225 $349 reversed $340 $-1 #
edge $-1 $490 -51.888790551469469 $350 51.888790551469469 $348 $491 forward 7 unknown #
vertex $-1 $227 $492 #
vertex $-1 $362 $493 #
straight-curve $-1 51.888790551469469 0 -7.5762747258833594 0 -1 0 I I #
coedge $-1 $342 $344 $228 $354 reversed $221 $-1 #
edge $-1 $357 -24.510949027766042 $360 24.510949027766042 $353 $494 forward 7 unknown #
coedge $-1 $348 $229 $234 $363 forward $340 $-1 #
coedge $-1 $229 $348 $342 $485 reversed $340 $-1 #
vertex $-1 $230 $495 #
straight-curve $-1 0 24.510949027766042 7.5762747258833594 -1 0 0 I I #
coedge $-1 $231 $343 $233 $362 reversed $138 $-1 #
vertex $-1 $354 $496 #
straight-curve $-1 0 -24.510949027766042 7.5762747258833594 1 0 0 I I #
edge $-1 $236 -7.5762747258833594 $351 7.5762747258833594 $233 $497 forward 7 unknown #
edge $-1 $237 -7.5762747258833594 $350 7.5762747258833594 $234 $498 forward 7 unknown #
point $-1 51.888790551469469 -24.510949027766042 7.5762747258833594 #
point $-1 51.888790551469469 24.510949027766042 7.5762747258833594 #
face $-1 $-1 $499 $34 $-1 $500 reversed single #
loop $-1 $-1 $501 $239 #
plane-surface $-1 0 0 -7.5762747258833594 0 0 1 1 0 0 forward_v I I I I #
coedge $-1 $376 $386 $371 $502 forward $240 $-1 #
coedge $-1 $245 $242 $501 $503 reversed $146 $-1 #
coedge $-1 $242 $245 $369 $502 reversed $146 $-1 #
coedge $-1 $504 $505 $242 $373 forward $499 $-1 #
edge $-1 $506 -7.5762747258833594 $507 7.5762747258833594 $372 $508 forward 7 unknown #
coedge $-1 $501 $248 $243 $375 forward $367 $-1 #
edge $-1 $253 -23.283580699035024 $379 -18.771018568990311 $374 $509 forward 7 unknown #
coedge $-1 $250 $369 $244 $377 forward $240 $-1 #
edge $-1 $378 18.771018568990311 $252 23.283580699035024 $376 $510 forward 7 unknown #
vertex $-1 $377 $511 #
vertex $-1 $375 $512 #
straight-curve $-1 -39.798318203002978 -15.468307797150384 0 0 0 -1 I I #
coedge $-1 $505 $504 $247 $382 forward $499 $-1 #
edge $-1 $387 -7.5762747258833594 $384 7.5762747258833594 $381 $513 forward 7 unknown #
coedge $-1 $248 $501 $505 $514 forward $367 $-1 #
vertex $-1 $249 $515 #
straight-curve $-1 -44.310880333047692 -9.9948142062291065 -7.5762747258833594 0 1 0 I I #
coedge $-1 $369 $250 $504 $516 forward $240 $-1 #
vertex $-1 $516 $517 #
straight-curve $-1 -44.310880333047692 -9.9948142062291065 7.5762747258833594 0 -1 0 I I #
point $-1 -44.310880333047692 -15.468307797150384 7.5762747258833594 #
point $-1 -44.310880333047692 -15.468307797150384 -7.5762747258833594 #
plane-surface $-1 0 0 7.5762747258833594 0 0 1 1 0 0 forward_v I I I I #
coedge $-1 $402 $401 $394 $518 forward $256 $-1 #
coedge $-1 $394 $258 $260 $398 reversed $154 $-1 #
coedge $-1 $258 $393 $392 $518 reversed $154 $-1 #
coedge $-1 $266 $261 $258 $396 forward $267 $-1 #
edge $-1 $399 21.419485444421241 $519 24.663704859994297 $395 $520 forward 7 unknown #
coedge $-1 $260 $259 $402 $521 reversed $97 $-1 #
edge $-1 $522 -103.77758110293894 $399 -99.107343769911125 $393 $523 forward 7 unknown #
vertex $-1 $262 $524 #
straight-curve $-1 48.64457113589642 -6.0788577354851334 7.5762747258833656 0 -1 0 I I #
coedge $-1 $392 $263 $266 $406 reversed $256 $-1 #
coedge $-1 $263 $392 $397 $521 forward $256 $-1 #
vertex $-1 $264 $525 #
straight-curve $-1 51.888790551469469 -8.8471231447901495 75.479048457856322 0 0 1 I I #
straight-curve $-1 -20.201173942280747 -8.8471231447901495 78.868132421962429 0.69465836192734942 0 -0.71933980857756763 I I #
edge $-1 $519 -15.468307797150384 $268 -8.8471231447901495 $401 $526 forward 7 unknown #
point $-1 51.888790551469469 -8.8471231447901495 7.5762747258833594 #
point $-1 48.644571135896413 -8.8471231447901495 7.5762747258833656 #
edge $-1 $527 1 $527 0 $271 $-1 forward 7 unknown #
vertex $-1 $272 $528 #
ellipse-curve $-1 49.113008369838411 -12.157715470970267 4.782442379954924 0.71933980857756763 0 0.69465836192734942 0.34732918096367471 0 -0.35966990428878381 1 I I #
point $-1 50.614010024646632 -12.157715470970267 5.5368610070185715 #
plane-surface $-1 0 0 7.5762747258833594 0 0 1 1 0 0 forward_v I I I I #
coedge $-1 $424 $423 $416 $529 forward $276 $-1 #
coedge $-1 $416 $278 $280 $420 reversed $169 $-1 #
coedge $-1 $278 $415 $414 $529 reversed $169 $-1 #
coedge $-1 $286 $281 $278 $418 forward $287 $-1 #
edge $-1 $421 21.419485444421241 $530 24.663704859994297 $417 $531 forward 7 unknown #
coedge $-1 $280 $279 $424 $532 reversed $106 $-1 #
edge $-1 $533 -103.77758110293894 $421 -99.107343769911125 $415 $534 forward 7 unknown #
vertex $-1 $282 $535 #
straight-curve $-1 48.64457113589642 0.58435173533427154 7.5762747258833656 0 -1 0 I I #
coedge $-1 $414 $283 $286 $428 reversed $276 $-1 #
coedge $-1 $283 $414 $419 $532 forward $276 $-1 #
vertex $-1 $284 $536 #
straight-curve $-1 51.888790551469469 4.4792957968486604 75.479048457856322 0 0 1 I I #
straight-curve $-1 -20.201173942280747 4.4792957968486604 78.868132421962429 0.69465836192734942 0 -0.71933980857756763 I I #
edge $-1 $530 -2.1418888555115743 $288 4.4792957968486604 $423 $537 forward 7 unknown #
point $-1 51.888790551469469 4.4792957968486604 7.5762747258833594 #
point $-1 48.644571135896413 4.4792957968486604 7.5762747258833656 #
edge $-1 $538 1 $538 0 $291 $-1 forward 7 unknown #
vertex $-1 $292 $539 #
ellipse-curve $-1 49.113008369838411 1.1687034706685431 4.782442379954924 0.71933980857756763 0 0.69465836192734942 0.34732918096367471 0 -0.35966990428878381 1 I I #
point $-1 50.614010024646632 1.1687034706685431 5.5368610070185715 #
plane-surface $-1 0 0 7.5762747258833594 0 0 1 1 0 0 forward_v I I I I #
coedge $-1 $446 $445 $438 $540 forward $296 $-1 #
coedge $-1 $438 $298 $300 $442 reversed $184 $-1 #
coedge $-1 $298 $437 $436 $540 reversed $184 $-1 #
coedge $-1 $306 $301 $298 $440 forward $307 $-1 #
edge $-1 $443 21.419485444421241 $541 24.663704859994297 $439 $542 forward 7 unknown #
coedge $-1 $300 $299 $446 $543 reversed $115 $-1 #
edge $-1 $544 -103.77758110293894 $443 -99.107343769911125 $437 $545 forward 7 unknown #
vertex $-1 $302 $546 #
straight-curve $-1 48.64457113589642 7.2475612061536747 7.5762747258833656 0 -1 0 I I #
coedge $-1 $436 $303 $306 $450 reversed $296 $-1 #
coedge $-1 $303 $436 $441 $543 forward $296 $-1 #
vertex $-1 $304 $547 #
straight-curve $-1 51.888790551469469 17.805714738487467 75.479048457856322 0 0 1 I I #
straight-curve $-1 -20.201173942280747 17.805714738487467 78.868132421962429 0.69465836192734942 0 -0.71933980857756763 I I #
edge $-1 $541 11.184530086127232 $308 17.805714738487467 $445 $548 forward 7 unknown #
point $-1 51.888790551469469 17.805714738487467 7.5762747258833594 #
point $-1 48.644571135896413 17.805714738487467 7.5762747258833656 #
edge $-1 $549 1 $549 0 $311 $-1 forward 7 unknown #
vertex $-1 $312 $550 #
ellipse-curve $-1 49.113008369838411 14.495122412307349 4.782442379954924 0.71933980857756763 0 0.69465836192734942 0.34732918096367471 0 -0.35966990428878381 1 I I #
point $-1 50.614010024646632 14.495122412307349 5.5368610070185715 #
plane-surface $-1 0 0 7.5762747258833594 0 0 1 1 0 0 forward_v I I I I #
coedge $-1 $468 $467 $460 $551 forward $316 $-1 #
coedge $-1 $460 $318 $320 $464 reversed $199 $-1 #
coedge $-1 $318 $459 $458 $551 reversed $199 $-1 #
coedge $-1 $326 $321 $318 $462 forward $327 $-1 #
edge $-1 $465 -13.119424072455914 $552 -6.0015344686648788 $461 $553 forward 7 unknown #
coedge $-1 $320 $319 $468 $554 reversed $124 $-1 #
edge $-1 $555 1.8033521786330445e-014 $465 9.0327316292304278 $459 $556 forward 7 unknown #
vertex $-1 $322 $557 #
straight-curve $-1 -44.770900947678435 -5.3916648505571363 7.5762747258833585 0 1 0 I I #
coedge $-1 $458 $323 $326 $472 reversed $316 $-1 #
coedge $-1 $323 $458 $463 $554 forward $316 $-1 #
vertex $-1 $324 $558 #
straight-curve $-1 -51.888790551469469 -15.468307797150384 41.896509520743649 0 0 1 I I #
straight-curve $-1 -51.888790551469484 -15.468307797150384 2.0151697750715982 -0.78801074757464917 0 -0.61566148304635926 I I #
edge $-1 $552 6.098351605078161 $328 15.468307797150384 $467 $559 forward 7 unknown #
point $-1 -51.888790551469469 -15.468307797150384 7.5762747258833594 #
point $-1 -44.770900947678435 -15.468307797150384 7.5762747258833594 #
edge $-1 $560 1 $560 0 $331 $-1 forward 7 unknown #
vertex $-1 $332 $561 #
ellipse-curve $-1 -46.932540131995538 -12.791177456558319 3.0072526537603084 -0.61566148304635926 0 0.78801074757464917 0.78801074757464917 0 0.61566148304635926 1 I I #
point $-1 -47.541835001999296 -12.791177456558319 5.4113837335238379 #
edge $-1 $562 1 $562 0 $335 $-1 forward 7 unknown #
vertex $-1 $336 $563 #
ellipse-curve $-1 -46.932540131995538 -8.7754819456702222 3.0072526537603084 -0.61566148304635926 0 0.78801074757464917 0.78801074757464917 0 0.61566148304635926 1 I I #
point $-1 -47.541835001999296 -8.7754819456702222 5.4113837335238379 #
plane-surface $-1 51.888790551469469 0 0 -1 0 0 0 0 1 forward_v I I I I #
coedge $-1 $344 $342 $346 $488 reversed $221 $-1 #
edge $-1 $357 -7.5762747258833594 $490 7.5762747258833594 $356 $564 forward 7 unknown #
vertex $-1 $488 $565 #
straight-curve $-1 -51.888790551469469 -24.510949027766042 0 0 0 -1 I I #
edge $-1 $486 -24.510949027766042 $490 24.510949027766042 $484 $566 forward 7 unknown #
straight-curve $-1 0 -24.510949027766042 -7.5762747258833594 -1 0 0 I I #
vertex $-1 $349 $567 #
straight-curve $-1 0 24.510949027766042 -7.5762747258833594 1 0 0 I I #
point $-1 51.888790551469469 24.510949027766042 -7.5762747258833594 #
point $-1 51.888790551469469 -24.510949027766042 -7.5762747258833594 #
straight-curve $-1 -51.888790551469469 0 7.5762747258833594 0 -1 0 I I #
point $-1 -51.888790551469469 24.510949027766042 7.5762747258833594 #
point $-1 -51.888790551469469 -24.510949027766042 7.5762747258833594 #
straight-curve $-1 51.888790551469469 -24.510949027766042 0 0 0 -1 I I #
straight-curve $-1 51.888790551469469 24.510949027766042 0 0 0 -1 I I #
loop $-1 $-1 $372 $366 #
plane-surface $-1 0 -24.510949027766042 0 0 1 0 0 0 1 forward_v I I I I #
coedge $-1 $383 $374 $370 $503 forward $367 $-1 #
edge $-1 $507 -14.516134821536935 $378 -5.4734935909212776 $369 $568 forward 7 unknown #
edge $-1 $379 5.4734935909212776 $506 14.516134821536935 $501 $569 forward 7 unknown #
coedge $-1 $381 $372 $386 $516 reversed $499 $-1 #
coedge $-1 $372 $381 $383 $514 reversed $499 $-1 #
vertex $-1 $514 $570 #
vertex $-1 $373 $571 #
straight-curve $-1 -39.798318203002978 -24.510949027766042 0 0 0 1 I I #
straight-curve $-1 -21.027299634012667 -15.468307797150384 -7.5762747258833594 1 0 0 I I #
straight-curve $-1 -21.027299634012667 -15.468307797150384 7.5762747258833594 -1 0 0 I I #
point $-1 -39.798318203002978 -15.468307797150384 7.5762747258833594 #
point $-1 -39.798318203002978 -15.468307797150384 -7.5762747258833594 #
straight-curve $-1 -44.310880333047692 -24.510949027766042 0 0 0 -1 I I #
edge $-1 $506 39.798318203002978 $384 44.310880333047692 $505 $572 forward 7 unknown #
point $-1 -44.310880333047692 -24.510949027766042 -7.5762747258833594 #
edge $-1 $387 -44.310880333047692 $507 -39.798318203002978 $504 $573 forward 7 unknown #
point $-1 -44.310880333047692 -24.510949027766042 7.5762747258833594 #
edge $-1 $519 67.902773731972957 $522 71.262261361124985 $392 $574 forward 7 unknown #
vertex $-1 $406 $575 #
straight-curve $-1 27.225085691475172 -15.468307797150384 7.5762747258833656 1 0 0 I I #
edge $-1 $522 -9.3894500616652508 $403 -2.7682654093050161 $402 $576 forward 7 unknown #
vertex $-1 $521 $577 #
straight-curve $-1 -20.201173942280747 -15.468307797150384 78.868132421962429 -0.69465836192734942 0 0.71933980857756763 I I #
point $-1 48.644571135896413 -15.468307797150384 7.5762747258833656 #
point $-1 51.888790551469469 -8.8471231447901495 4.2167870967313377 #
straight-curve $-1 51.888790551469469 0 7.5762747258833594 0 1 0 I I #
vertex $-1 $409 $578 #
point $-1 49.460337550802087 -12.157715470970267 4.4227724756661404 #
edge $-1 $530 67.902773731972957 $533 71.262261361124985 $414 $579 forward 7 unknown #
vertex $-1 $428 $580 #
straight-curve $-1 27.225085691475172 -2.1418888555115743 7.5762747258833656 1 0 0 I I #
edge $-1 $533 -2.7262405908458458 $425 3.8949440615143889 $424 $581 forward 7 unknown #
vertex $-1 $532 $582 #
straight-curve $-1 -20.201173942280747 -2.1418888555115743 78.868132421962429 -0.69465836192734942 0 0.71933980857756763 I I #
point $-1 48.644571135896413 -2.1418888555115743 7.5762747258833656 #
point $-1 51.888790551469469 4.4792957968486604 4.2167870967313377 #
straight-curve $-1 51.888790551469469 0 7.5762747258833594 0 1 0 I I #
vertex $-1 $431 $583 #
point $-1 49.460337550802087 1.1687034706685431 4.4227724756661404 #
edge $-1 $541 67.902773731972957 $544 71.262261361124985 $436 $584 forward 7 unknown #
vertex $-1 $450 $585 #
straight-curve $-1 27.225085691475172 11.184530086127232 7.5762747258833656 1 0 0 I I #
edge $-1 $544 3.9369688799735574 $447 10.558153532333792 $446 $586 forward 7 unknown #
vertex $-1 $543 $587 #
straight-curve $-1 -20.201173942280747 11.184530086127232 78.868132421962429 -0.69465836192734942 0 0.71933980857756763 I I #
point $-1 48.644571135896413 11.184530086127232 7.5762747258833656 #
point $-1 51.888790551469469 17.805714738487467 4.2167870967313377 #
straight-curve $-1 51.888790551469469 0 7.5762747258833594 0 1 0 I I #
vertex $-1 $453 $588 #
point $-1 49.460337550802087 14.495122412307349 4.4227724756661404 #
edge $-1 $552 34.320234794860291 $555 39.881339745672037 $458 $589 forward 7 unknown #
vertex $-1 $472 $590 #
straight-curve $-1 -57.890325020134348 -6.098351605078161 7.5762747258833585 -1 0 0 I I #
edge $-1 $555 0.7066867545210247 $469 10.076642946593248 $468 $591 forward 7 unknown #
vertex $-1 $554 $592 #
straight-curve $-1 -51.888790551469484 -6.098351605078161 2.0151697750715982 0.78801074757464917 0 0.61566148304635926 I I #
point $-1 -44.770900947678435 -6.098351605078161 7.5762747258833594 #
point $-1 -51.888790551469469 -15.468307797150384 2.0151697750716093 #
straight-curve $-1 -51.888790551469469 0 7.5762747258833594 0 -1 0 I I #
vertex $-1 $475 $593 #
point $-1 -46.144529384420892 -12.791177456558319 3.6229141368066675 #
vertex $-1 $479 $594 #
point $-1 -46.144529384420892 -8.7754819456702222 3.6229141368066675 #
straight-curve $-1 -51.888790551469469 24.510949027766042 0 0 0 -1 I I #
point $-1 -51.888790551469469 -24.510949027766042 -7.5762747258833594 #
straight-curve $-1 -51.888790551469469 0 -7.5762747258833594 0 1 0 I I #
point $-1 -51.888790551469469 24.510949027766042 -7.5762747258833594 #
straight-curve $-1 -39.798318203002978 -9.9948142062291065 7.5762747258833594 0 1 0 I I #
straight-curve $-1 -39.798318203002978 -9.9948142062291065 -7.5762747258833594 0 -1 0 I I #
point $-1 -39.798318203002978 -24.510949027766042 -7.5762747258833594 #
point $-1 -39.798318203002978 -24.510949027766042 7.5762747258833594 #
straight-curve $-1 0 -24.510949027766042 -7.5762747258833594 -1 0 0 I I #
straight-curve $-1 0 -24.510949027766042 7.5762747258833594 1 0 0 I I #
straight-curve $-1 51.888790551469469 -15.468307797150384 75.479048457856322 0 0 -1 I I #
point $-1 51.888790551469469 -15.468307797150384 7.5762747258833594 #
straight-curve $-1 51.888790551469469 -6.0788577354851334 4.2167870967313306 0 1 0 I I #
point $-1 51.888790551469469 -15.468307797150384 4.2167870967313377 #
point $-1 48.753338465549632 -12.157715470970267 4.4351131989912496 #
straight-curve $-1 51.888790551469469 -2.1418888555115743 75.479048457856322 0 0 -1 I I #
point $-1 51.888790551469469 -2.1418888555115743 7.5762747258833594 #
straight-curve $-1 51.888790551469469 0.58435173533427154 4.2167870967313306 0 1 0 I I #
point $-1 51.888790551469469 -2.1418888555115743 4.2167870967313377 #
point $-1 48.753338465549632 1.1687034706685431 4.4351131989912496 #
straight-curve $-1 51.888790551469469 11.184530086127232 75.479048457856322 0 0 -1 I I #
point $-1 51.888790551469469 11.184530086127232 7.5762747258833594 #
straight-curve $-1 51.888790551469469 7.2475612061536747 4.2167870967313306 0 1 0 I I #
point $-1 51.888790551469469 11.184530086127232 4.2167870967313377 #
point $-1 48.753338465549632 14.495122412307349 4.4351131989912496 #
straight-curve $-1 -51.888790551469469 -6.098351605078161 41.896509520743649 0 0 -1 I I #
point $-1 -51.888790551469469 -6.098351605078161 7.5762747258833594 #
straight-curve $-1 -51.888790551469469 -5.3916648505571363 2.0151697750716062 0 -1 0 I I #
point $-1 -51.888790551469469 -6.098351605078161 2.0151697750716093 #
point $-1 -46.316878648949185 -12.791177456558319 2.2192419061856592 #
point $-1 -46.316878648949185 -8.7754819456702222 2.2192419061856592 #
End-of-ACIS-data 