500 0 8 0           
7 Unknown 11 ACIS 5.0 NT 24 Fri Mar 26 14:43:41 1999 
-1 9.9999999999999995e-007 1e-010 
body $-1 $8 $-1 $9 #
body $-1 $10 $-1 $11 #
body $-1 $12 $-1 $13 #
body $-1 $14 $-1 $15 #
body $-1 $16 $-1 $17 #
body $-1 $18 $-1 $19 #
body $-1 $20 $-1 $21 #
body $-1 $22 $-1 $23 #
lump $-1 $-1 $24 $0 #
transform $-1 1 0 0 0 1 0 0 0 1 61.903744621112708 39.009919795295019 15.081922877978938 1 rotate no_reflect no_shear #
lump $-1 $-1 $25 $1 #
transform $-1 1 0 0 0 1 0 0 0 1 61.903744621112708 39.009919795295019 15.081922877978938 1 rotate no_reflect no_shear #
lump $-1 $-1 $26 $2 #
transform $-1 1 0 0 0 1 0 0 0 1 61.903744621112708 39.009919795295019 15.081922877978938 1 rotate no_reflect no_shear #
lump $-1 $-1 $27 $3 #
transform $-1 1 0 0 0 1 0 0 0 1 61.903744621112708 39.009919795295019 15.081922877978938 1 rotate no_reflect no_shear #
lump $-1 $-1 $28 $4 #
transform $-1 1 0 0 0 1 0 0 0 1 61.903744621112708 39.009919795295019 15.081922877978938 1 rotate no_reflect no_shear #
lump $-1 $-1 $29 $5 #
transform $-1 1 0 0 0 1 0 0 0 1 61.903744621112708 39.009919795295019 15.081922877978938 1 rotate no_reflect no_shear #
lump $-1 $-1 $30 $6 #
transform $-1 1 0 0 0 1 0 0 0 1 61.903744621112708 39.009919795295019 15.081922877978938 1 rotate no_reflect no_shear #
lump $-1 $-1 $31 $7 #
transform $-1 1 0 0 0 1 0 0 0 1 61.903744621112708 39.009919795295019 15.081922877978938 1 rotate no_reflect no_shear #
shell $-1 $-1 $-1 $32 $-1 $8 #
shell $-1 $-1 $-1 $33 $-1 $10 #
shell $-1 $-1 $-1 $34 $-1 $12 #
shell $-1 $-1 $-1 $35 $-1 $14 #
shell $-1 $-1 $-1 $36 $-1 $16 #
shell $-1 $-1 $-1 $37 $-1 $18 #
shell $-1 $-1 $-1 $38 $-1 $20 #
shell $-1 $-1 $-1 $39 $-1 $22 #
face $-1 $40 $41 $24 $-1 $42 forward single #
face $-1 $43 $44 $25 $-1 $45 forward single #
face $-1 $46 $47 $26 $-1 $48 reversed single #
face $-1 $49 $50 $27 $-1 $51 forward single #
face $-1 $52 $53 $28 $-1 $54 forward single #
face $-1 $55 $56 $29 $-1 $57 reversed single #
face $-1 $58 $59 $30 $-1 $60 forward single #
face $-1 $61 $62 $31 $-1 $63 forward single #
face $-1 $64 $65 $24 $-1 $66 reversed single #
loop $-1 $-1 $67 $32 #
plane-surface $-1 0 0 15.081922877978938 0 0 1 1 0 0 forward_v I I I I #
face $-1 $68 $69 $25 $-1 $70 reversed single #
loop $-1 $-1 $71 $33 #
plane-surface $-1 0 -31.849746185430948 1.6036295122152113 0 0 1 1 0 0 forward_v I I I I #
face $-1 $72 $73 $26 $-1 $74 reversed single #
loop $-1 $-1 $75 $34 #
plane-surface $-1 37.535895961263577 -6.7089051415267065 174.03374087569935 0 1 0 0.6018150307709319 0 0.79863550430605224 forward_v I I I I #
face $-1 $76 $77 $27 $-1 $78 forward single #
loop $-1 $79 $80 $35 #
cone-surface $-1 51.623633719638804 -2.746311212557913 6.932407749928239 -0.6018150307709319 0 -0.79863550430605224 1.1979532564590785 0 -0.90272254615639791 1 I I 0 1 1.5 forward I I I I #
face $-1 $81 $82 $28 $-1 $83 forward single #
loop $-1 $84 $85 $36 #
cone-surface $-1 51.623633719638804 3.1975796808952737 6.932407749928239 -0.6018150307709319 0 -0.79863550430605224 1.1979532564590785 0 -0.90272254615639791 1 I I 0 1 1.5 forward I I I I #
face $-1 $86 $87 $29 $-1 $88 reversed single #
loop $-1 $-1 $89 $37 #
plane-surface $-1 37.535895961263577 21.029252361254841 174.03374087569935 0 -1 0 -0.6018150307709319 0 -0.79863550430605224 forward_v I I I I #
face $-1 $90 $91 $30 $-1 $92 forward single #
loop $-1 $93 $94 $38 #
cone-surface $-1 51.623633719638804 11.122767538832861 6.932407749928239 -0.6018150307709319 0 -0.79863550430605224 1.1979532564590785 0 -0.90272254615639791 1 I I 0 1 1.5 forward I I I I #
face $-1 $95 $96 $31 $-1 $97 forward single #
loop $-1 $98 $99 $39 #
cone-surface $-1 51.623633719638804 17.066658432286047 6.932407749928239 -0.6018150307709319 0 -0.79863550430605224 1.1979532564590785 0 -0.90272254615639791 1 I I 0 1 1.5 forward I I I I #
face $-1 $100 $101 $24 $-1 $102 reversed single #
loop $-1 $-1 $103 $40 #
plane-surface $-1 0 0 -15.081922877978938 0 0 1 1 0 0 forward_v I I I I #
coedge $-1 $104 $105 $106 $107 forward $41 $-1 #
face $-1 $108 $109 $25 $-1 $110 reversed single #
loop $-1 $-1 $111 $43 #
plane-surface $-1 0 -31.849746185430948 -6.4027188166916895 0 0 1 1 0 0 forward_v I I I I #
coedge $-1 $112 $113 $114 $115 reversed $44 $-1 #
face $-1 $116 $117 $26 $-1 $118 reversed single #
loop $-1 $-1 $119 $46 #
plane-surface $-1 -36.97331198671813 0.22563423416868034 75.156684267868513 0.6018150307709319 0 0.79863550430605224 0.79863550430605224 0 -0.6018150307709319 forward_v I I I I #
coedge $-1 $120 $121 $122 $123 reversed $47 $-1 #
face $-1 $-1 $124 $27 $-1 $125 forward single #
loop $-1 $126 $127 $49 #
cone-surface $-1 50.469740133921022 -2.746311212557913 5.4011392726940688 -0.6018150307709319 0 -0.79863550430605224 0.59897662822953923 0 -0.45136127307819895 1 I I -0.70710678118654757 0.70710678118654757 0.75 forward I I I I #
loop $-1 $-1 $128 $35 #
coedge $-1 $80 $80 $129 $130 reversed $50 $-1 #
face $-1 $-1 $131 $28 $-1 $132 forward single #
loop $-1 $133 $134 $52 #
cone-surface $-1 50.469740133921022 3.1975796808952737 5.4011392726940688 -0.6018150307709319 0 -0.79863550430605224 0.59897662822953923 0 -0.45136127307819895 1 I I -0.70710678118654757 0.70710678118654757 0.75 forward I I I I #
loop $-1 $-1 $135 $36 #
coedge $-1 $85 $85 $136 $137 reversed $53 $-1 #
face $-1 $138 $139 $29 $-1 $140 reversed single #
loop $-1 $-1 $141 $55 #
plane-surface $-1 -36.97331198671813 0.22563423416868034 75.156684267868513 0.6018150307709319 0 0.79863550430605224 0.79863550430605224 0 -0.6018150307709319 forward_v I I I I #
coedge $-1 $142 $143 $144 $145 reversed $56 $-1 #
face $-1 $-1 $146 $30 $-1 $147 forward single #
loop $-1 $148 $149 $58 #
cone-surface $-1 50.469740133921022 11.122767538832861 5.4011392726940688 -0.6018150307709319 0 -0.79863550430605224 0.59897662822953923 0 -0.45136127307819895 1 I I -0.70710678118654757 0.70710678118654757 0.75 forward I I I I #
loop $-1 $-1 $150 $38 #
coedge $-1 $94 $94 $151 $152 reversed $59 $-1 #
face $-1 $-1 $153 $31 $-1 $154 forward single #
loop $-1 $155 $156 $61 #
cone-surface $-1 50.469740133921022 17.066658432286047 5.4011392726940688 -0.6018150307709319 0 -0.79863550430605224 0.59897662822953923 0 -0.45136127307819895 1 I I -0.70710678118654757 0.70710678118654757 0.75 forward I I I I #
loop $-1 $-1 $157 $39 #
coedge $-1 $99 $99 $158 $159 reversed $62 $-1 #
face $-1 $160 $161 $24 $-1 $162 reversed single #
loop $-1 $-1 $163 $64 #
plane-surface $-1 0 -39.009919795295019 0 0 1 0 0 0 1 forward_v I I I I #
coedge $-1 $164 $165 $166 $167 forward $65 $-1 #
coedge $-1 $168 $67 $169 $170 forward $41 $-1 #
coedge $-1 $67 $168 $171 $172 forward $41 $-1 #
coedge $-1 $173 $174 $67 $107 reversed $175 $-1 #
edge $-1 $176 -39.009919795295019 $177 39.009919795295019 $106 $178 forward 7 unknown #
face $-1 $179 $180 $25 $-1 $181 reversed single #
loop $-1 $-1 $182 $68 #
plane-surface $-1 0 -24.689572575566878 -2.3995446522382391 0 -1 0 0 0 -1 forward_v I I I I #
coedge $-1 $183 $184 $185 $186 reversed $69 $-1 #
coedge $-1 $187 $71 $188 $189 forward $44 $-1 #
coedge $-1 $71 $187 $190 $191 reversed $44 $-1 #
coedge $-1 $192 $193 $71 $115 forward $194 $-1 #
edge $-1 $195 8.7646994828514035 $196 23.085046702579547 $114 $197 forward 7 unknown #
face $-1 $198 $199 $26 $-1 $200 forward single #
loop $-1 $-1 $201 $72 #
plane-surface $-1 37.535895961263577 7.1601736098640671 174.03374087569935 0 -1 0 -0.6018150307709319 0 -0.79863550430605224 forward_v I I I I #
coedge $-1 $202 $203 $204 $205 reversed $73 $-1 #
coedge $-1 $121 $75 $206 $207 reversed $47 $-1 #
coedge $-1 $75 $120 $202 $208 reversed $47 $-1 #
coedge $-1 $204 $209 $75 $123 forward $210 $-1 #
edge $-1 $211 71.934947559870736 $212 86.369394117962884 $122 $213 forward 7 unknown #
loop $-1 $-1 $129 $76 #
plane-surface $-1 -36.97331198671813 0.22563423416868034 75.156684267868513 0.6018150307709319 0 0.79863550430605224 0.79863550430605224 0 -0.6018150307709319 forward_v I I I I #
loop $-1 $-1 $214 $49 #
coedge $-1 $127 $127 $128 $215 reversed $77 $-1 #
coedge $-1 $128 $128 $127 $215 forward $79 $-1 #
coedge $-1 $129 $129 $80 $130 forward $124 $-1 #
edge $-1 $216 0 $216 6.2831853071796004 $129 $217 forward 7 unknown #
loop $-1 $-1 $136 $81 #
plane-surface $-1 -36.97331198671813 0.22563423416868034 75.156684267868513 0.6018150307709319 0 0.79863550430605224 0.79863550430605224 0 -0.6018150307709319 forward_v I I I I #
loop $-1 $-1 $218 $52 #
coedge $-1 $134 $134 $135 $219 reversed $82 $-1 #
coedge $-1 $135 $135 $134 $219 forward $84 $-1 #
coedge $-1 $136 $136 $85 $137 forward $131 $-1 #
edge $-1 $220 0 $220 6.2831853071796004 $136 $221 forward 7 unknown #
face $-1 $222 $223 $29 $-1 $224 forward single #
loop $-1 $-1 $225 $86 #
plane-surface $-1 61.903744621112708 0 0 -1 0 0 0 0 1 forward_v I I I I #
coedge $-1 $226 $227 $228 $229 reversed $87 $-1 #
coedge $-1 $143 $89 $230 $231 reversed $56 $-1 #
coedge $-1 $89 $142 $232 $233 reversed $56 $-1 #
coedge $-1 $234 $225 $89 $145 forward $139 $-1 #
edge $-1 $235 -86.369394117962884 $236 -71.934947559870736 $144 $237 forward 7 unknown #
loop $-1 $-1 $151 $90 #
plane-surface $-1 -36.97331198671813 0.22563423416868034 75.156684267868513 0.6018150307709319 0 0.79863550430605224 0.79863550430605224 0 -0.6018150307709319 forward_v I I I I #
loop $-1 $-1 $238 $58 #
coedge $-1 $149 $149 $150 $239 reversed $91 $-1 #
coedge $-1 $150 $150 $149 $239 forward $93 $-1 #
coedge $-1 $151 $151 $94 $152 forward $146 $-1 #
edge $-1 $240 0 $240 6.2831853071796004 $151 $241 forward 7 unknown #
loop $-1 $-1 $158 $95 #
plane-surface $-1 -36.97331198671813 0.22563423416868034 75.156684267868513 0.6018150307709319 0 0.79863550430605224 0.79863550430605224 0 -0.6018150307709319 forward_v I I I I #
loop $-1 $-1 $242 $61 #
coedge $-1 $156 $156 $157 $243 reversed $96 $-1 #
coedge $-1 $157 $157 $156 $243 forward $98 $-1 #
coedge $-1 $158 $158 $99 $159 forward $153 $-1 #
edge $-1 $244 0 $244 6.2831853071796004 $158 $245 forward 7 unknown #
face $-1 $246 $247 $24 $-1 $248 reversed single #
loop $-1 $-1 $249 $100 #
plane-surface $-1 -61.903744621112708 0 0 1 0 0 0 0 -1 forward_v I I I I #
coedge $-1 $250 $171 $251 $252 forward $101 $-1 #
coedge $-1 $253 $103 $250 $254 forward $65 $-1 #
coedge $-1 $103 $253 $255 $256 forward $65 $-1 #
coedge $-1 $174 $173 $103 $167 reversed $175 $-1 #
edge $-1 $257 -39.009919795295019 $258 39.009919795295019 $166 $259 forward 7 unknown #
coedge $-1 $105 $104 $260 $261 forward $41 $-1 #
coedge $-1 $262 $263 $104 $170 reversed $247 $-1 #
edge $-1 $177 -61.903744621112708 $264 61.903744621112708 $169 $265 forward 7 unknown #
coedge $-1 $163 $266 $105 $172 reversed $101 $-1 #
edge $-1 $267 -61.903744621112708 $176 61.903744621112708 $171 $268 forward 7 unknown #
coedge $-1 $166 $106 $266 $269 forward $175 $-1 #
coedge $-1 $106 $166 $262 $270 reversed $175 $-1 #
loop $-1 $-1 $173 $246 #
vertex $-1 $107 $271 #
vertex $-1 $107 $272 #
straight-curve $-1 61.903744621112708 0 15.081922877978938 0 1 0 I I #
face $-1 $273 $274 $25 $-1 $275 reversed single #
loop $-1 $-1 $276 $108 #
plane-surface $-1 -61.903744621112708 0 0 1 0 0 0 0 -1 forward_v I I I I #
coedge $-1 $277 $188 $193 $278 reversed $109 $-1 #
coedge $-1 $279 $111 $280 $281 reversed $69 $-1 #
coedge $-1 $111 $279 $277 $282 forward $69 $-1 #
coedge $-1 $193 $192 $111 $186 forward $194 $-1 #
edge $-1 $283 -23.085046702579547 $284 -8.7646994828514035 $185 $285 forward 7 unknown #
coedge $-1 $113 $112 $276 $286 reversed $44 $-1 #
coedge $-1 $182 $287 $112 $189 reversed $109 $-1 #
edge $-1 $195 -61.903744621112708 $288 61.903744621112708 $188 $289 forward 7 unknown #
coedge $-1 $290 $291 $113 $191 forward $274 $-1 #
edge $-1 $196 -61.903744621112708 $292 61.903744621112708 $190 $293 forward 7 unknown #
coedge $-1 $185 $114 $291 $294 forward $194 $-1 #
coedge $-1 $114 $185 $182 $278 forward $194 $-1 #
loop $-1 $-1 $114 $273 #
vertex $-1 $115 $295 #
vertex $-1 $294 $296 #
straight-curve $-1 61.903744621112708 -15.924873092715474 1.6036295122152113 0 -1 0 I I #
face $-1 $-1 $210 $26 $-1 $297 reversed single #
loop $-1 $-1 $298 $116 #
plane-surface $-1 0 0 15.081922877978938 0 0 1 1 0 0 forward_v I I I I #
coedge $-1 $299 $300 $301 $302 reversed $117 $-1 #
coedge $-1 $303 $119 $121 $208 forward $73 $-1 #
coedge $-1 $119 $303 $299 $304 forward $73 $-1 #
coedge $-1 $301 $122 $119 $205 forward $210 $-1 #
edge $-1 $212 -6.8217222586110466 $305 7.047356492779727 $204 $306 forward 7 unknown #
coedge $-1 $307 $308 $120 $207 forward $199 $-1 #
edge $-1 $309 23.980639462812306 $211 43.135796640480919 $206 $310 forward 7 unknown #
edge $-1 $212 -123.80748924222544 $309 -99.822633730056765 $121 $311 forward 7 unknown #
coedge $-1 $122 $301 $307 $312 reversed $210 $-1 #
loop $-1 $-1 $301 $198 #
vertex $-1 $312 $313 #
vertex $-1 $123 $314 #
straight-curve $-1 61.903744621112708 -6.7089051415267065 87.016870437849676 0 0 -1 I I #
coedge $-1 $214 $214 $-1 $315 reversed $126 $-1 #
edge $-1 $316 0 $316 6.2831853071796004 $127 $317 forward 7 unknown #
vertex $-1 $130 $318 #
ellipse-curve $-1 52.326166032278387 -2.746311212557913 7.8646995989328712 0.6018150307709319 0 0.79863550430605224 1.1979532564590785 0 -0.90272254615639791 1 I I #
coedge $-1 $218 $218 $-1 $319 reversed $133 $-1 #
edge $-1 $320 0 $320 6.2831853071796004 $134 $321 forward 7 unknown #
vertex $-1 $137 $322 #
ellipse-curve $-1 52.326166032278387 3.1975796808952737 7.8646995989328712 0.6018150307709319 0 0.79863550430605224 1.1979532564590785 0 -0.90272254615639791 1 I I #
face $-1 $-1 $323 $29 $-1 $324 forward single #
loop $-1 $-1 $325 $138 #
plane-surface $-1 37.535895961263577 7.1601736098640671 174.03374087569935 0 -1 0 -0.6018150307709319 0 -0.79863550430605224 forward_v I I I I #
coedge $-1 $144 $326 $227 $327 forward $139 $-1 #
coedge $-1 $230 $141 $328 $329 reversed $87 $-1 #
coedge $-1 $141 $230 $225 $327 reversed $87 $-1 #
coedge $-1 $325 $330 $141 $229 forward $223 $-1 #
edge $-1 $331 99.822633730056765 $332 123.80748924222544 $228 $333 forward 7 unknown #
coedge $-1 $227 $226 $142 $231 forward $87 $-1 #
edge $-1 $334 99.822633730056765 $235 123.80748924222544 $142 $335 forward 7 unknown #
coedge $-1 $328 $336 $143 $233 forward $323 $-1 #
edge $-1 $236 -43.135796640480919 $334 -23.980639462812306 $232 $337 forward 7 unknown #
coedge $-1 $326 $144 $336 $338 reversed $139 $-1 #
vertex $-1 $145 $339 #
vertex $-1 $233 $340 #
straight-curve $-1 61.903744621112708 21.029252361254841 87.016870437849676 0 0 1 I I #
coedge $-1 $238 $238 $-1 $341 reversed $148 $-1 #
edge $-1 $342 0 $342 6.2831853071796004 $149 $343 forward 7 unknown #
vertex $-1 $152 $344 #
ellipse-curve $-1 52.326166032278387 11.122767538832861 7.8646995989328712 0.6018150307709319 0 0.79863550430605224 1.1979532564590785 0 -0.90272254615639791 1 I I #
coedge $-1 $242 $242 $-1 $345 reversed $155 $-1 #
edge $-1 $346 0 $346 6.2831853071796004 $156 $347 forward 7 unknown #
vertex $-1 $159 $348 #
ellipse-curve $-1 52.326166032278387 17.066658432286047 7.8646995989328712 0.6018150307709319 0 0.79863550430605224 1.1979532564590785 0 -0.90272254615639791 1 I I #
face $-1 $-1 $175 $24 $-1 $349 reversed single #
loop $-1 $-1 $262 $160 #
plane-surface $-1 0 39.009919795295019 0 0 -1 0 0 0 -1 forward_v I I I I #
coedge $-1 $350 $260 $263 $351 forward $161 $-1 #
coedge $-1 $266 $163 $164 $254 reversed $101 $-1 #
coedge $-1 $260 $350 $163 $252 reversed $161 $-1 #
edge $-1 $267 -15.081922877978938 $352 15.081922877978938 $251 $353 forward 7 unknown #
coedge $-1 $165 $164 $350 $354 forward $65 $-1 #
edge $-1 $258 -61.903744621112708 $352 61.903744621112708 $250 $355 forward 7 unknown #
coedge $-1 $263 $262 $165 $256 reversed $247 $-1 #
edge $-1 $356 -61.903744621112708 $257 61.903744621112708 $255 $357 forward 7 unknown #
vertex $-1 $167 $358 #
vertex $-1 $269 $359 #
straight-curve $-1 61.903744621112708 0 -15.081922877978938 0 -1 0 I I #
coedge $-1 $249 $251 $168 $261 reversed $161 $-1 #
edge $-1 $264 -39.009919795295019 $267 39.009919795295019 $260 $360 forward 7 unknown #
coedge $-1 $255 $169 $174 $270 forward $247 $-1 #
coedge $-1 $169 $255 $249 $351 reversed $247 $-1 #
vertex $-1 $170 $361 #
straight-curve $-1 0 39.009919795295019 15.081922877978938 -1 0 0 I I #
coedge $-1 $171 $250 $173 $269 reversed $101 $-1 #
vertex $-1 $261 $362 #
straight-curve $-1 0 -39.009919795295019 15.081922877978938 1 0 0 I I #
edge $-1 $176 -15.081922877978938 $258 15.081922877978938 $173 $363 forward 7 unknown #
edge $-1 $177 -15.081922877978938 $257 15.081922877978938 $174 $364 forward 7 unknown #
point $-1 61.903744621112708 -39.009919795295019 15.081922877978938 #
point $-1 61.903744621112708 39.009919795295019 15.081922877978938 #
face $-1 $-1 $194 $25 $-1 $365 reversed single #
loop $-1 $-1 $190 $179 #
plane-surface $-1 0 -39.009919795295019 0 0 1 0 0 0 1 forward_v I I I I #
coedge $-1 $366 $367 $187 $286 forward $180 $-1 #
coedge $-1 $287 $182 $184 $282 reversed $109 $-1 #
edge $-1 $284 -5.20294649057257 $195 2.8034018383343309 $193 $368 forward 7 unknown #
coedge $-1 $184 $183 $369 $370 reversed $69 $-1 #
coedge $-1 $291 $290 $183 $281 forward $274 $-1 #
edge $-1 $371 -61.903744621112708 $283 61.903744621112708 $280 $372 forward 7 unknown #
edge $-1 $373 -61.903744621112708 $284 61.903744621112708 $277 $374 forward 7 unknown #
vertex $-1 $281 $375 #
vertex $-1 $186 $376 #
straight-curve $-1 61.903744621112708 -15.924873092715474 -6.4027188166916895 0 1 0 I I #
edge $-1 $292 -23.085046702579547 $288 -8.7646994828514035 $276 $377 forward 7 unknown #
coedge $-1 $188 $277 $366 $378 reversed $109 $-1 #
vertex $-1 $286 $379 #
straight-curve $-1 0 -24.689572575566878 1.6036295122152113 -1 0 0 I I #
coedge $-1 $280 $190 $367 $380 forward $274 $-1 #
coedge $-1 $190 $280 $192 $294 reversed $274 $-1 #
vertex $-1 $380 $381 #
straight-curve $-1 0 -39.009919795295019 1.6036295122152113 -1 0 0 I I #
edge $-1 $196 -1.6036295122152113 $283 6.4027188166916895 $192 $382 forward 7 unknown #
point $-1 61.903744621112708 -24.689572575566878 1.6036295122152113 #
point $-1 61.903744621112708 -39.009919795295019 1.6036295122152113 #
plane-surface $-1 61.903744621112708 0 0 -1 0 0 0 0 1 forward_v I I I I #
coedge $-1 $308 $307 $300 $383 forward $199 $-1 #
coedge $-1 $300 $201 $203 $304 reversed $117 $-1 #
coedge $-1 $201 $299 $298 $383 reversed $117 $-1 #
coedge $-1 $209 $204 $201 $302 forward $210 $-1 #
edge $-1 $305 -86.369394117962884 $384 -71.934947559870736 $301 $385 forward 7 unknown #
coedge $-1 $203 $202 $308 $386 reversed $73 $-1 #
edge $-1 $387 99.822633730056765 $305 123.80748924222544 $299 $388 forward 7 unknown #
vertex $-1 $205 $389 #
straight-curve $-1 61.903744621112708 0.11281711708434017 0.6474763198868061 0 1 0 I I #
coedge $-1 $298 $206 $209 $312 forward $199 $-1 #
coedge $-1 $206 $298 $303 $386 forward $199 $-1 #
vertex $-1 $207 $390 #
straight-curve $-1 18.767947980631789 -6.7089051415267065 15.08192287797894 1 0 0 I I #
straight-curve $-1 -36.97331198671813 -6.7089051415267065 75.156684267868513 -0.79863550430605224 0 0.6018150307709319 I I #
edge $-1 $211 -6.7089051415267065 $384 7.1601736098640671 $209 $391 forward 7 unknown #
point $-1 61.903744621112708 -6.7089051415267065 15.081922877978938 #
point $-1 61.903744621112708 -6.7089051415267065 0.64747631988679188 #
edge $-1 $392 1 $392 0 $214 $-1 forward 7 unknown #
vertex $-1 $215 $393 #
ellipse-curve $-1 50.92110140699922 -2.746311212557913 6.0001159009236078 0.6018150307709319 0 0.79863550430605224 1.1979532564590785 0 -0.90272254615639791 1 I I #
point $-1 53.524119288737467 -2.746311212557913 6.9619770527764713 #
edge $-1 $394 1 $394 0 $218 $-1 forward 7 unknown #
vertex $-1 $219 $395 #
ellipse-curve $-1 50.92110140699922 3.1975796808952737 6.0001159009236078 0.6018150307709319 0 0.79863550430605224 1.1979532564590785 0 -0.90272254615639791 1 I I #
point $-1 53.524119288737467 3.1975796808952737 6.9619770527764713 #
loop $-1 $-1 $328 $222 #
plane-surface $-1 0 0 15.081922877978938 0 0 1 1 0 0 forward_v I I I I #
coedge $-1 $330 $228 $326 $396 reversed $223 $-1 #
coedge $-1 $225 $234 $325 $396 forward $139 $-1 #
edge $-1 $332 7.047356492779727 $235 20.916435244170501 $225 $397 forward 7 unknown #
coedge $-1 $398 $232 $226 $329 forward $323 $-1 #
edge $-1 $334 -20.916435244170501 $331 -7.047356492779727 $328 $399 forward 7 unknown #
coedge $-1 $228 $325 $398 $400 reversed $223 $-1 #
vertex $-1 $329 $401 #
vertex $-1 $327 $402 #
straight-curve $-1 -36.97331198671813 7.1601736098640671 75.156684267868513 0.79863550430605224 0 -0.6018150307709319 I I #
vertex $-1 $233 $403 #
straight-curve $-1 -36.97331198671813 21.029252361254841 75.156684267868513 0.79863550430605224 0 -0.6018150307709319 I I #
coedge $-1 $232 $398 $234 $338 forward $323 $-1 #
straight-curve $-1 18.767947980631789 21.029252361254841 15.08192287797894 -1 0 0 I I #
edge $-1 $404 7.1601736098640671 $236 21.029252361254841 $234 $405 forward 7 unknown #
point $-1 61.903744621112708 21.029252361254841 0.64747631988679188 #
point $-1 61.903744621112708 21.029252361254841 15.081922877978938 #
edge $-1 $406 1 $406 0 $238 $-1 forward 7 unknown #
vertex $-1 $239 $407 #
ellipse-curve $-1 50.92110140699922 11.122767538832861 6.0001159009236078 0.6018150307709319 0 0.79863550430605224 1.1979532564590785 0 -0.90272254615639791 1 I I #
point $-1 53.524119288737467 11.122767538832861 6.9619770527764713 #
edge $-1 $408 1 $408 0 $242 $-1 forward 7 unknown #
vertex $-1 $243 $409 #
ellipse-curve $-1 50.92110140699922 17.066658432286047 6.0001159009236078 0.6018150307709319 0 0.79863550430605224 1.1979532564590785 0 -0.90272254615639791 1 I I #
point $-1 53.524119288737467 17.066658432286047 6.9619770527764713 #
plane-surface $-1 61.903744621112708 0 0 -1 0 0 0 0 1 forward_v I I I I #
coedge $-1 $251 $249 $253 $354 reversed $161 $-1 #
edge $-1 $264 -15.081922877978938 $356 15.081922877978938 $263 $410 forward 7 unknown #
vertex $-1 $354 $411 #
straight-curve $-1 -61.903744621112708 -39.009919795295019 0 0 0 -1 I I #
edge $-1 $352 -39.009919795295019 $356 39.009919795295019 $350 $412 forward 7 unknown #
straight-curve $-1 0 -39.009919795295019 -15.081922877978938 -1 0 0 I I #
vertex $-1 $256 $413 #
straight-curve $-1 0 39.009919795295019 -15.081922877978938 1 0 0 I I #
point $-1 61.903744621112708 39.009919795295019 -15.081922877978938 #
point $-1 61.903744621112708 -39.009919795295019 -15.081922877978938 #
straight-curve $-1 -61.903744621112708 0 15.081922877978938 0 -1 0 I I #
point $-1 -61.903744621112708 39.009919795295019 15.081922877978938 #
point $-1 -61.903744621112708 -39.009919795295019 15.081922877978938 #
straight-curve $-1 61.903744621112708 -39.009919795295019 0 0 0 -1 I I #
straight-curve $-1 61.903744621112708 39.009919795295019 0 0 0 -1 I I #
plane-surface $-1 61.903744621112708 0 0 -1 0 0 0 0 1 forward_v I I I I #
coedge $-1 $369 $276 $287 $378 forward $180 $-1 #
coedge $-1 $276 $369 $290 $380 reversed $180 $-1 #
straight-curve $-1 61.903744621112708 -24.689572575566878 -1.1997723261191195 0 0 1 I I #
coedge $-1 $367 $366 $279 $370 forward $180 $-1 #
edge $-1 $373 8.7646994828514035 $371 23.085046702579547 $369 $414 forward 7 unknown #
vertex $-1 $281 $415 #
straight-curve $-1 0 -39.009919795295019 -6.4027188166916895 1 0 0 I I #
vertex $-1 $370 $416 #
straight-curve $-1 0 -24.689572575566878 -6.4027188166916895 1 0 0 I I #
point $-1 61.903744621112708 -39.009919795295019 -6.4027188166916895 #
point $-1 61.903744621112708 -24.689572575566878 -6.4027188166916895 #
straight-curve $-1 -61.903744621112708 -15.924873092715474 1.6036295122152113 0 1 0 I I #
edge $-1 $288 -2.8034018383343309 $373 5.20294649057257 $366 $417 forward 7 unknown #
point $-1 -61.903744621112708 -24.689572575566878 1.6036295122152113 #
edge $-1 $292 -1.6036295122152113 $371 6.4027188166916895 $367 $418 forward 7 unknown #
point $-1 -61.903744621112708 -39.009919795295019 1.6036295122152113 #
straight-curve $-1 61.903744621112708 -39.009919795295019 0 0 0 -1 I I #
edge $-1 $384 -43.135796640480919 $387 -23.980639462812306 $298 $419 forward 7 unknown #
vertex $-1 $383 $420 #
straight-curve $-1 61.903744621112708 7.1601736098640671 87.016870437849676 0 0 1 I I #
edge $-1 $387 -7.047356492779727 $309 6.8217222586110466 $308 $421 forward 7 unknown #
vertex $-1 $386 $422 #
straight-curve $-1 -36.97331198671813 7.1601736098640671 75.156684267868513 0.79863550430605224 0 -0.6018150307709319 I I #
point $-1 61.903744621112708 7.1601736098640671 0.64747631988679188 #
point $-1 42.748587443444094 -6.7089051415267065 15.08192287797894 #
straight-curve $-1 61.903744621112708 0 15.081922877978938 0 1 0 I I #
vertex $-1 $315 $423 #
point $-1 52.1190546634583 -2.746311212557913 5.0973933547672097 #
vertex $-1 $319 $424 #
point $-1 52.1190546634583 3.1975796808952737 5.0973933547672097 #
edge $-1 $404 71.934947559870736 $332 86.369394117962884 $326 $425 forward 7 unknown #
straight-curve $-1 61.903744621112708 0.11281711708434017 0.6474763198868061 0 1 0 I I #
coedge $-1 $336 $328 $330 $400 forward $323 $-1 #
straight-curve $-1 42.748587443444094 0.11281711708434017 15.08192287797894 0 -1 0 I I #
edge $-1 $331 23.980639462812306 $404 43.135796640480919 $398 $426 forward 7 unknown #
point $-1 42.748587443444094 7.1601736098640671 15.08192287797894 #
point $-1 61.903744621112708 7.1601736098640671 0.64747631988679188 #
point $-1 42.748587443444094 21.029252361254841 15.08192287797894 #
vertex $-1 $338 $427 #
straight-curve $-1 61.903744621112708 0 15.081922877978938 0 1 0 I I #
vertex $-1 $341 $428 #
point $-1 52.1190546634583 11.122767538832861 5.0973933547672097 #
vertex $-1 $345 $429 #
point $-1 52.1190546634583 17.066658432286047 5.0973933547672097 #
straight-curve $-1 -61.903744621112708 39.009919795295019 0 0 0 -1 I I #
point $-1 -61.903744621112708 -39.009919795295019 -15.081922877978938 #
straight-curve $-1 -61.903744621112708 0 -15.081922877978938 0 1 0 I I #
point $-1 -61.903744621112708 39.009919795295019 -15.081922877978938 #
straight-curve $-1 -61.903744621112708 -15.924873092715474 -6.4027188166916895 0 -1 0 I I #
point $-1 -61.903744621112708 -39.009919795295019 -6.4027188166916895 #
point $-1 -61.903744621112708 -24.689572575566878 -6.4027188166916895 #
straight-curve $-1 -61.903744621112708 -24.689572575566878 -1.1997723261191195 0 0 -1 I I #
straight-curve $-1 -61.903744621112708 -39.009919795295019 0 0 0 -1 I I #
straight-curve $-1 18.767947980631789 7.1601736098640671 15.08192287797894 -1 0 0 I I #
point $-1 61.903744621112708 7.1601736098640671 15.081922877978938 #
straight-curve $-1 42.748587443444094 0.11281711708434017 15.08192287797894 0 -1 0 I I #
point $-1 42.748587443444094 7.1601736098640671 15.08192287797894 #
point $-1 50.018378860842823 -2.746311212557913 4.8021626444645298 #
point $-1 50.018378860842823 3.1975796808952737 4.8021626444645298 #
straight-curve $-1 61.903744621112708 7.1601736098640671 87.016870437849676 0 0 -1 I I #
straight-curve $-1 18.767947980631789 7.1601736098640671 15.08192287797894 1 0 0 I I #
point $-1 61.903744621112708 7.1601736098640671 15.081922877978938 #
point $-1 50.018378860842823 11.122767538832861 4.8021626444645298 #
point $-1 50.018378860842823 17.066658432286047 4.8021626444645298 #
End-of-ACIS-data 