500 0 6 0           
7 Unknown 11 ACIS 5.0 NT 24 Thu Mar 25 20:06:55 1999 
-1 9.9999999999999995e-007 1e-010 
body $-1 $6 $-1 $7 #
body $-1 $8 $-1 $9 #
body $-1 $10 $-1 $11 #
body $-1 $12 $-1 $13 #
body $-1 $14 $-1 $15 #
body $-1 $16 $-1 $17 #
lump $-1 $-1 $18 $0 #
transform $-1 1 0 0 0 1 0 0 0 1 77.914975432599874 41.250685210950024 13.428409190332976 1 rotate no_reflect no_shear #
lump $-1 $-1 $19 $1 #
transform $-1 1 0 0 0 1 0 0 0 1 77.914975432599874 41.250685210950024 13.428409190332976 1 rotate no_reflect no_shear #
lump $-1 $-1 $20 $2 #
transform $-1 1 0 0 0 1 0 0 0 1 77.914975432599874 41.250685210950024 13.428409190332976 1 rotate no_reflect no_shear #
lump $-1 $-1 $21 $3 #
transform $-1 1 0 0 0 1 0 0 0 1 77.914975432599874 41.250685210950024 13.428409190332976 1 rotate no_reflect no_shear #
lump $-1 $-1 $22 $4 #
transform $-1 1 0 0 0 1 0 0 0 1 77.914975432599874 41.250685210950024 13.428409190332976 1 rotate no_reflect no_shear #
lump $-1 $-1 $23 $5 #
transform $-1 1 0 0 0 1 0 0 0 1 77.914975432599874 41.250685210950024 13.428409190332976 1 rotate no_reflect no_shear #
shell $-1 $-1 $-1 $24 $-1 $6 #
shell $-1 $-1 $-1 $25 $-1 $8 #
shell $-1 $-1 $-1 $26 $-1 $10 #
shell $-1 $-1 $-1 $27 $-1 $12 #
shell $-1 $-1 $-1 $28 $-1 $14 #
shell $-1 $-1 $-1 $29 $-1 $16 #
face $-1 $30 $31 $18 $-1 $32 forward single #
face $-1 $33 $34 $19 $-1 $35 forward single #
face $-1 $36 $37 $20 $-1 $38 reversed single #
face $-1 $39 $40 $21 $-1 $41 forward single #
face $-1 $42 $43 $22 $-1 $44 forward single #
face $-1 $45 $46 $23 $-1 $47 forward single #
face $-1 $48 $49 $18 $-1 $50 reversed single #
loop $-1 $-1 $51 $24 #
plane-surface $-1 0 0 13.428409190332976 0 0 1 1 0 0 forward_v I I I I #
face $-1 $52 $53 $19 $-1 $54 reversed single #
loop $-1 $-1 $55 $25 #
plane-surface $-1 0 -41.250685210950024 0 0 1 0 0 0 1 forward_v I I I I #
face $-1 $56 $57 $20 $-1 $58 reversed single #
loop $-1 $-1 $59 $26 #
plane-surface $-1 -65.396208522680581 121.57826820881607 166.20126293294362 1 0 0 0 -0.81915205242281985 -0.57357642473473569 forward_v I I I I #
face $-1 $60 $61 $21 $-1 $62 forward single #
loop $-1 $63 $64 $27 #
cone-surface $-1 -59.509510632121135 38.438993544661464 10.392131789962994 0 -0.81915205242281985 -0.57357642473473569 1 0 0 1 I I 0 1 1 forward I I I I #
face $-1 $65 $66 $22 $-1 $67 forward single #
loop $-1 $68 $69 $28 #
cone-surface $-1 -50.679463796281951 38.438993544661464 10.392131789962994 0 -0.81915205242281985 -0.57357642473473569 1 0 0 1 I I 0 1 1 forward I I I I #
face $-1 $70 $71 $23 $-1 $72 forward single #
loop $-1 $73 $74 $29 #
cone-surface $-1 -41.849416960442781 38.438993544661464 10.392131789962994 0 -0.81915205242281985 -0.57357642473473569 1 0 0 1 I I 0 1 1 forward I I I I #
face $-1 $75 $76 $18 $-1 $77 reversed single #
loop $-1 $-1 $78 $30 #
plane-surface $-1 0 0 -13.428409190332976 0 0 1 1 0 0 forward_v I I I I #
coedge $-1 $79 $80 $81 $82 forward $31 $-1 #
face $-1 $83 $84 $19 $-1 $85 reversed single #
loop $-1 $-1 $86 $33 #
plane-surface $-1 0 0 -13.428409190332976 0 0 1 1 0 0 forward_v I I I I #
coedge $-1 $87 $88 $89 $90 forward $34 $-1 #
face $-1 $91 $92 $20 $-1 $93 reversed single #
loop $-1 $-1 $94 $36 #
plane-surface $-1 -50.679463796281951 -6.070155871359475 76.820876849092812 0 0.81915205242281985 0.57357642473473569 1 0 0 forward_v I I I I #
coedge $-1 $95 $96 $97 $98 reversed $37 $-1 #
face $-1 $-1 $99 $21 $-1 $100 forward single #
loop $-1 $101 $102 $39 #
cone-surface $-1 -59.509510632121135 36.684205202984131 9.1634158022431027 0 -0.81915205242281985 -0.57357642473473569 0.5 0 0 1 I I -0.70710678118654746 0.70710678118654746 0.5 forward I I I I #
loop $-1 $-1 $103 $27 #
coedge $-1 $64 $64 $104 $105 reversed $40 $-1 #
face $-1 $-1 $106 $22 $-1 $107 forward single #
loop $-1 $108 $109 $42 #
cone-surface $-1 -50.679463796281951 36.684205202984131 9.1634158022431027 0 -0.81915205242281985 -0.57357642473473569 0.5 0 0 1 I I -0.70710678118654746 0.70710678118654746 0.5 forward I I I I #
loop $-1 $-1 $110 $28 #
coedge $-1 $69 $69 $111 $112 reversed $43 $-1 #
face $-1 $-1 $113 $23 $-1 $114 forward single #
loop $-1 $115 $116 $45 #
cone-surface $-1 -41.849416960442781 36.684205202984131 9.1634158022431027 0 -0.81915205242281985 -0.57357642473473569 0.5 0 0 1 I I -0.70710678118654746 0.70710678118654746 0.5 forward I I I I #
loop $-1 $-1 $117 $29 #
coedge $-1 $74 $74 $118 $119 reversed $46 $-1 #
face $-1 $120 $121 $18 $-1 $122 reversed single #
loop $-1 $-1 $123 $48 #
plane-surface $-1 0 -41.250685210950024 0 0 1 0 0 0 1 forward_v I I I I #
coedge $-1 $124 $125 $126 $127 forward $49 $-1 #
coedge $-1 $128 $51 $129 $130 forward $31 $-1 #
coedge $-1 $51 $128 $131 $132 forward $31 $-1 #
coedge $-1 $133 $134 $51 $82 reversed $135 $-1 #
edge $-1 $136 -41.250685210950024 $137 41.250685210950024 $81 $138 forward 7 unknown #
face $-1 $139 $140 $19 $-1 $141 reversed single #
loop $-1 $-1 $142 $52 #
plane-surface $-1 -68.29052275559701 -58.934261264301099 0 0 1 0 0 0 1 forward_v I I I I #
coedge $-1 $143 $144 $88 $145 forward $53 $-1 #
coedge $-1 $146 $55 $147 $148 reversed $34 $-1 #
coedge $-1 $55 $146 $86 $145 reversed $34 $-1 #
coedge $-1 $149 $150 $55 $90 reversed $140 $-1 #
edge $-1 $151 -13.428409190332976 $152 13.428409190332976 $89 $153 forward 7 unknown #
face $-1 $154 $155 $20 $-1 $156 forward single #
loop $-1 $-1 $157 $56 #
plane-surface $-1 -35.96271906988332 121.57826820881607 166.20126293294362 -1 0 0 0 0.81915205242281985 0.57357642473473569 forward_v I I I I #
coedge $-1 $158 $159 $160 $161 reversed $57 $-1 #
coedge $-1 $96 $59 $162 $163 reversed $37 $-1 #
coedge $-1 $59 $95 $158 $164 reversed $37 $-1 #
coedge $-1 $160 $165 $59 $98 forward $155 $-1 #
edge $-1 $166 19.538448893458011 $167 22.47140759510328 $97 $168 forward 7 unknown #
loop $-1 $-1 $104 $60 #
plane-surface $-1 -50.679463796281951 -6.070155871359475 76.820876849092812 0 0.81915205242281985 0.57357642473473569 1 0 0 forward_v I I I I #
loop $-1 $-1 $169 $39 #
coedge $-1 $102 $102 $103 $170 reversed $61 $-1 #
coedge $-1 $103 $103 $102 $170 forward $63 $-1 #
coedge $-1 $104 $104 $64 $105 forward $99 $-1 #
edge $-1 $171 -2.6203992691551346e-015 $171 6.2831853071795978 $104 $172 forward 7 unknown #
loop $-1 $-1 $111 $65 #
plane-surface $-1 -50.679463796281951 -6.070155871359475 76.820876849092812 0 0.81915205242281985 0.57357642473473569 1 0 0 forward_v I I I I #
loop $-1 $-1 $173 $42 #
coedge $-1 $109 $109 $110 $174 reversed $66 $-1 #
coedge $-1 $110 $110 $109 $174 forward $68 $-1 #
coedge $-1 $111 $111 $69 $112 forward $106 $-1 #
edge $-1 $175 -2.6203992691551346e-015 $175 6.2831853071795978 $111 $176 forward 7 unknown #
loop $-1 $-1 $118 $70 #
plane-surface $-1 -50.679463796281951 -6.070155871359475 76.820876849092812 0 0.81915205242281985 0.57357642473473569 1 0 0 forward_v I I I I #
loop $-1 $-1 $177 $45 #
coedge $-1 $116 $116 $117 $178 reversed $71 $-1 #
coedge $-1 $117 $117 $116 $178 forward $73 $-1 #
coedge $-1 $118 $118 $74 $119 forward $113 $-1 #
edge $-1 $179 -2.6203992691551346e-015 $179 6.2831853071795978 $118 $180 forward 7 unknown #
face $-1 $181 $182 $18 $-1 $183 reversed single #
loop $-1 $-1 $184 $75 #
plane-surface $-1 -77.914975432599874 0 0 1 0 0 0 0 -1 forward_v I I I I #
coedge $-1 $185 $131 $186 $187 forward $76 $-1 #
coedge $-1 $188 $78 $185 $189 forward $49 $-1 #
coedge $-1 $78 $188 $190 $191 forward $49 $-1 #
coedge $-1 $134 $133 $78 $127 reversed $135 $-1 #
edge $-1 $192 -41.250685210950024 $193 41.250685210950024 $126 $194 forward 7 unknown #
coedge $-1 $80 $79 $195 $196 forward $31 $-1 #
coedge $-1 $197 $198 $79 $130 reversed $182 $-1 #
edge $-1 $137 -77.914975432599874 $199 77.914975432599874 $129 $200 forward 7 unknown #
coedge $-1 $123 $201 $80 $132 reversed $76 $-1 #
edge $-1 $202 -77.914975432599874 $136 77.914975432599874 $131 $203 forward 7 unknown #
coedge $-1 $126 $81 $201 $204 forward $135 $-1 #
coedge $-1 $81 $126 $197 $205 reversed $135 $-1 #
loop $-1 $-1 $133 $181 #
vertex $-1 $82 $206 #
vertex $-1 $82 $207 #
straight-curve $-1 77.914975432599874 0 13.428409190332976 0 1 0 I I #
face $-1 $208 $209 $19 $-1 $210 reversed single #
loop $-1 $-1 $89 $83 #
plane-surface $-1 -71.569575780122022 -50.092473237625562 0 1 0 0 0 0 -1 forward_v I I I I #
coedge $-1 $211 $212 $213 $214 forward $84 $-1 #
coedge $-1 $215 $86 $216 $217 forward $53 $-1 #
coedge $-1 $86 $215 $149 $218 forward $53 $-1 #
edge $-1 $151 -71.569575780122022 $219 -65.011469731071998 $86 $220 forward 7 unknown #
coedge $-1 $88 $87 $221 $222 forward $34 $-1 #
coedge $-1 $223 $224 $87 $148 forward $225 $-1 #
edge $-1 $226 65.011469731071998 $152 71.569575780122022 $147 $227 forward 7 unknown #
coedge $-1 $213 $89 $144 $218 reversed $140 $-1 #
coedge $-1 $89 $213 $223 $228 reversed $140 $-1 #
vertex $-1 $145 $229 #
vertex $-1 $228 $230 #
straight-curve $-1 -71.569575780122022 -41.250685210950024 0 0 0 1 I I #
face $-1 $-1 $231 $20 $-1 $232 reversed single #
loop $-1 $-1 $97 $91 #
plane-surface $-1 0 0 13.428409190332976 0 0 1 1 0 0 forward_v I I I I #
coedge $-1 $233 $234 $235 $236 reversed $92 $-1 #
coedge $-1 $237 $94 $96 $164 forward $57 $-1 #
coedge $-1 $94 $237 $233 $238 forward $57 $-1 #
coedge $-1 $235 $97 $94 $161 forward $155 $-1 #
edge $-1 $167 -40.056476624539606 $239 -10.622987171742345 $160 $240 forward 7 unknown #
coedge $-1 $241 $242 $95 $163 forward $231 $-1 #
edge $-1 $243 -73.86092152617374 $166 -69.672222276138839 $162 $244 forward 7 unknown #
edge $-1 $167 77.387912868267705 $243 82.501370421900049 $96 $245 forward 7 unknown #
coedge $-1 $97 $235 $241 $246 forward $155 $-1 #
vertex $-1 $163 $247 #
vertex $-1 $98 $248 #
straight-curve $-1 -65.396208522680581 60.789134104408035 13.428409190332971 0 -1 0 I I #
coedge $-1 $169 $169 $-1 $249 reversed $101 $-1 #
edge $-1 $250 0 $250 6.2831853071796004 $102 $251 forward 7 unknown #
vertex $-1 $105 $252 #
ellipse-curve $-1 -59.509510632121135 39.784205860127393 11.334059565315519 0 0.81915205242281985 0.57357642473473569 1 0 0 1 I I #
coedge $-1 $173 $173 $-1 $253 reversed $108 $-1 #
edge $-1 $254 0 $254 6.2831853071796004 $109 $255 forward 7 unknown #
vertex $-1 $112 $256 #
ellipse-curve $-1 -50.679463796281951 39.784205860127393 11.334059565315519 0 0.81915205242281985 0.57357642473473569 1 0 0 1 I I #
coedge $-1 $177 $177 $-1 $257 reversed $115 $-1 #
edge $-1 $258 0 $258 6.2831853071796004 $116 $259 forward 7 unknown #
vertex $-1 $119 $260 #
ellipse-curve $-1 -41.849416960442781 39.784205860127393 11.334059565315519 0 0.81915205242281985 0.57357642473473569 1 0 0 1 I I #
face $-1 $-1 $135 $18 $-1 $261 reversed single #
loop $-1 $-1 $197 $120 #
plane-surface $-1 0 41.250685210950024 0 0 -1 0 0 0 -1 forward_v I I I I #
coedge $-1 $262 $195 $198 $263 forward $121 $-1 #
coedge $-1 $201 $123 $124 $189 reversed $76 $-1 #
coedge $-1 $195 $262 $123 $187 reversed $121 $-1 #
edge $-1 $202 -13.428409190332976 $264 13.428409190332976 $186 $265 forward 7 unknown #
coedge $-1 $125 $124 $262 $266 forward $49 $-1 #
edge $-1 $193 -77.914975432599874 $264 77.914975432599874 $185 $267 forward 7 unknown #
coedge $-1 $198 $197 $125 $191 reversed $182 $-1 #
edge $-1 $268 -77.914975432599874 $192 77.914975432599874 $190 $269 forward 7 unknown #
vertex $-1 $127 $270 #
vertex $-1 $204 $271 #
straight-curve $-1 77.914975432599874 0 -13.428409190332976 0 -1 0 I I #
coedge $-1 $184 $186 $128 $196 reversed $121 $-1 #
edge $-1 $199 -41.250685210950024 $202 41.250685210950024 $195 $272 forward 7 unknown #
coedge $-1 $190 $129 $134 $205 forward $182 $-1 #
coedge $-1 $129 $190 $184 $263 reversed $182 $-1 #
vertex $-1 $130 $273 #
straight-curve $-1 0 41.250685210950024 13.428409190332976 -1 0 0 I I #
coedge $-1 $131 $185 $133 $204 reversed $76 $-1 #
vertex $-1 $196 $274 #
straight-curve $-1 0 -41.250685210950024 13.428409190332976 1 0 0 I I #
edge $-1 $136 -13.428409190332976 $193 13.428409190332976 $133 $275 forward 7 unknown #
edge $-1 $137 -13.428409190332976 $192 13.428409190332976 $134 $276 forward 7 unknown #
point $-1 77.914975432599874 -41.250685210950024 13.428409190332976 #
point $-1 77.914975432599874 41.250685210950024 13.428409190332976 #
face $-1 $-1 $225 $19 $-1 $277 forward single #
loop $-1 $-1 $278 $139 #
plane-surface $-1 -65.011469731071998 -50.092473237625562 0 -1 0 0 0 0 1 forward_v I I I I #
coedge $-1 $279 $142 $215 $280 reversed $84 $-1 #
coedge $-1 $142 $279 $281 $282 reversed $84 $-1 #
coedge $-1 $150 $149 $142 $214 reversed $140 $-1 #
edge $-1 $283 -13.428409190332976 $284 13.428409190332976 $213 $285 forward 7 unknown #
coedge $-1 $144 $143 $211 $280 forward $53 $-1 #
coedge $-1 $221 $278 $143 $217 reversed $209 $-1 #
edge $-1 $219 -8.8417880266755375 $286 8.8417880266755375 $216 $287 forward 7 unknown #
edge $-1 $284 -8.8417880266755375 $151 8.8417880266755375 $149 $288 forward 7 unknown #
vertex $-1 $217 $289 #
straight-curve $-1 0 -41.250685210950024 -13.428409190332976 1 0 0 I I #
coedge $-1 $290 $216 $146 $222 reversed $209 $-1 #
edge $-1 $226 -13.428409190332976 $219 13.428409190332976 $221 $291 forward 7 unknown #
coedge $-1 $281 $147 $150 $228 forward $225 $-1 #
coedge $-1 $147 $281 $290 $292 forward $225 $-1 #
loop $-1 $-1 $147 $208 #
vertex $-1 $148 $293 #
straight-curve $-1 0 -41.250685210950024 13.428409190332976 -1 0 0 I I #
edge $-1 $152 -8.8417880266755375 $283 8.8417880266755375 $150 $294 forward 7 unknown #
point $-1 -71.569575780122022 -41.250685210950024 -13.428409190332976 #
point $-1 -71.569575780122022 -41.250685210950024 13.428409190332976 #
loop $-1 $-1 $162 $154 #
plane-surface $-1 0 41.250685210950024 0 0 -1 0 0 0 -1 forward_v I I I I #
coedge $-1 $234 $157 $159 $238 reversed $92 $-1 #
coedge $-1 $157 $233 $295 $296 reversed $92 $-1 #
coedge $-1 $165 $160 $157 $236 forward $155 $-1 #
edge $-1 $239 -22.47140759510328 $297 -19.538448893458011 $235 $298 forward 7 unknown #
coedge $-1 $159 $158 $242 $299 reversed $57 $-1 #
edge $-1 $300 -82.501370421900049 $239 -77.387912868267705 $233 $301 forward 7 unknown #
vertex $-1 $161 $302 #
straight-curve $-1 -25.339731898140975 38.317726509304755 13.428409190332978 1 0 0 I I #
coedge $-1 $295 $162 $165 $246 reversed $231 $-1 #
coedge $-1 $162 $295 $237 $299 forward $231 $-1 #
vertex $-1 $163 $303 #
straight-curve $-1 -65.396208522680581 41.250685210950024 83.10063146647181 0 0 1 I I #
straight-curve $-1 -65.396208522680581 -6.070155871359475 76.820876849092812 0 0.57357642473473569 -0.81915205242281985 I I #
edge $-1 $297 35.96271906988332 $166 65.396208522680581 $241 $304 forward 7 unknown #
point $-1 -65.396208522680581 41.250685210950024 13.428409190332976 #
point $-1 -65.396208522680581 38.317726509304755 13.428409190332985 #
edge $-1 $305 1 $305 0 $169 $-1 forward 7 unknown #
vertex $-1 $170 $306 #
ellipse-curve $-1 -59.509510632121135 37.093781229195542 9.4502040146104704 0 0.81915205242281985 0.57357642473473569 1 0 0 1 I I #
point $-1 -58.509510632121135 39.784205860127386 11.334059565315517 #
edge $-1 $307 1 $307 0 $173 $-1 forward 7 unknown #
vertex $-1 $174 $308 #
ellipse-curve $-1 -50.679463796281951 37.093781229195542 9.4502040146104704 0 0.81915205242281985 0.57357642473473569 1 0 0 1 I I #
point $-1 -49.679463796281951 39.784205860127386 11.334059565315517 #
edge $-1 $309 1 $309 0 $177 $-1 forward 7 unknown #
vertex $-1 $178 $310 #
ellipse-curve $-1 -41.849416960442781 37.093781229195542 9.4502040146104704 0 0.81915205242281985 0.57357642473473569 1 0 0 1 I I #
point $-1 -40.849416960442781 39.784205860127386 11.334059565315517 #
plane-surface $-1 77.914975432599874 0 0 -1 0 0 0 0 1 forward_v I I I I #
coedge $-1 $186 $184 $188 $266 reversed $121 $-1 #
edge $-1 $199 -13.428409190332976 $268 13.428409190332976 $198 $311 forward 7 unknown #
vertex $-1 $266 $312 #
straight-curve $-1 -77.914975432599874 -41.250685210950024 0 0 0 -1 I I #
edge $-1 $264 -41.250685210950024 $268 41.250685210950024 $262 $313 forward 7 unknown #
straight-curve $-1 0 -41.250685210950024 -13.428409190332976 -1 0 0 I I #
vertex $-1 $191 $314 #
straight-curve $-1 0 41.250685210950024 -13.428409190332976 1 0 0 I I #
point $-1 77.914975432599874 41.250685210950024 -13.428409190332976 #
point $-1 77.914975432599874 -41.250685210950024 -13.428409190332976 #
straight-curve $-1 -77.914975432599874 0 13.428409190332976 0 -1 0 I I #
point $-1 -77.914975432599874 41.250685210950024 13.428409190332976 #
point $-1 -77.914975432599874 -41.250685210950024 13.428409190332976 #
straight-curve $-1 77.914975432599874 -41.250685210950024 0 0 0 -1 I I #
straight-curve $-1 77.914975432599874 41.250685210950024 0 0 0 -1 I I #
plane-surface $-1 0 0 13.428409190332976 0 0 1 1 0 0 forward_v I I I I #
coedge $-1 $216 $290 $279 $315 forward $209 $-1 #
coedge $-1 $212 $211 $278 $315 reversed $84 $-1 #
edge $-1 $286 -3.2790530245250125 $284 3.2790530245250125 $211 $316 forward 7 unknown #
coedge $-1 $224 $223 $212 $282 forward $225 $-1 #
edge $-1 $283 -3.2790530245250125 $317 3.2790530245250125 $212 $318 forward 7 unknown #
vertex $-1 $228 $319 #
vertex $-1 $218 $320 #
straight-curve $-1 -71.569575780122022 -58.934261264301099 0 0 0 -1 I I #
vertex $-1 $315 $321 #
straight-curve $-1 -65.011469731071998 -50.092473237625562 -13.428409190332976 0 -1 0 I I #
straight-curve $-1 -71.569575780122022 -50.092473237625562 -13.428409190332976 0 1 0 I I #
point $-1 -65.011469731071998 -41.250685210950024 -13.428409190332976 #
coedge $-1 $278 $221 $224 $292 reversed $209 $-1 #
straight-curve $-1 -65.011469731071998 -41.250685210950024 0 0 0 -1 I I #
edge $-1 $317 -8.8417880266755375 $226 8.8417880266755375 $290 $322 forward 7 unknown #
point $-1 -65.011469731071998 -41.250685210950024 13.428409190332976 #
straight-curve $-1 -71.569575780122022 -50.092473237625562 13.428409190332976 0 -1 0 I I #
coedge $-1 $242 $241 $234 $296 forward $231 $-1 #
edge $-1 $297 69.672222276138839 $300 73.86092152617374 $295 $323 forward 7 unknown #
vertex $-1 $246 $324 #
straight-curve $-1 -35.96271906988332 60.789134104408035 13.428409190332971 0 1 0 I I #
edge $-1 $300 10.622987171742345 $243 40.056476624539606 $242 $325 forward 7 unknown #
vertex $-1 $299 $326 #
straight-curve $-1 -35.96271906988332 -6.070155871359475 76.820876849092812 0 -0.57357642473473569 0.81915205242281985 I I #
point $-1 -35.96271906988332 38.317726509304755 13.428409190332985 #
point $-1 -65.396208522680581 41.250685210950024 9.23970994029807 #
straight-curve $-1 0 41.250685210950024 13.428409190332976 -1 0 0 I I #
vertex $-1 $249 $327 #
point $-1 -58.509510632121135 37.093781229195542 9.4502040146104704 #
vertex $-1 $253 $328 #
point $-1 -49.679463796281951 37.093781229195542 9.4502040146104704 #
vertex $-1 $257 $329 #
point $-1 -40.849416960442781 37.093781229195542 9.4502040146104704 #
straight-curve $-1 -77.914975432599874 41.250685210950024 0 0 0 -1 I I #
point $-1 -77.914975432599874 -41.250685210950024 -13.428409190332976 #
straight-curve $-1 -77.914975432599874 0 -13.428409190332976 0 1 0 I I #
point $-1 -77.914975432599874 41.250685210950024 -13.428409190332976 #
edge $-1 $317 -13.428409190332976 $286 13.428409190332976 $278 $330 forward 7 unknown #
straight-curve $-1 -68.29052275559701 -58.934261264301099 -13.428409190332976 -1 0 0 I I #
vertex $-1 $292 $331 #
straight-curve $-1 -68.29052275559701 -58.934261264301099 13.428409190332976 1 0 0 I I #
point $-1 -71.569575780122022 -58.934261264301099 13.428409190332976 #
point $-1 -71.569575780122022 -58.934261264301099 -13.428409190332976 #
point $-1 -65.011469731071998 -58.934261264301099 -13.428409190332976 #
straight-curve $-1 -65.011469731071998 -50.092473237625562 13.428409190332976 0 1 0 I I #
straight-curve $-1 -35.96271906988332 41.250685210950024 83.10063146647181 0 0 -1 I I #
point $-1 -35.96271906988332 41.250685210950024 13.428409190332976 #
straight-curve $-1 -25.339731898140975 41.250685210950024 9.2397099402980665 -1 0 0 I I #
point $-1 -35.96271906988332 41.250685210950024 9.23970994029807 #
point $-1 -59.509510632121135 36.27462917677272 8.876627589875735 #
point $-1 -50.679463796281951 36.27462917677272 8.876627589875735 #
point $-1 -41.849416960442781 36.27462917677272 8.876627589875735 #
straight-curve $-1 -65.011469731071998 -58.934261264301099 0 0 0 -1 I I #
point $-1 -65.011469731071998 -58.934261264301099 13.428409190332976 #
End-of-ACIS-data 