500 0 10 0           
7 Unknown 11 ACIS 5.0 NT 24 Fri Mar 26 20:44:02 1999 
-1 9.9999999999999995e-007 1e-010 
body $-1 $10 $-1 $11 #
body $-1 $12 $-1 $13 #
body $-1 $14 $-1 $15 #
body $-1 $16 $-1 $17 #
body $-1 $18 $-1 $19 #
body $-1 $20 $-1 $21 #
body $-1 $22 $-1 $23 #
body $-1 $24 $-1 $25 #
body $-1 $26 $-1 $27 #
body $-1 $28 $-1 $29 #
lump $-1 $-1 $30 $0 #
transform $-1 1 0 0 0 1 0 0 0 1 47.097384563737904 31.683185467086343 14.120565425188211 1 rotate no_reflect no_shear #
lump $-1 $-1 $31 $1 #
transform $-1 1 0 0 0 1 0 0 0 1 47.097384563737904 31.683185467086343 14.120565425188211 1 rotate no_reflect no_shear #
lump $-1 $-1 $32 $2 #
transform $-1 1 0 0 0 1 0 0 0 1 47.097384563737904 31.683185467086343 14.120565425188211 1 rotate no_reflect no_shear #
lump $-1 $-1 $33 $3 #
transform $-1 1 0 0 0 1 0 0 0 1 47.097384563737904 31.683185467086343 14.120565425188211 1 rotate no_reflect no_shear #
lump $-1 $-1 $34 $4 #
transform $-1 1 0 0 0 1 0 0 0 1 47.097384563737904 31.683185467086343 14.120565425188211 1 rotate no_reflect no_shear #
lump $-1 $-1 $35 $5 #
transform $-1 1 0 0 0 1 0 0 0 1 47.097384563737904 31.683185467086343 14.120565425188211 1 rotate no_reflect no_shear #
lump $-1 $-1 $36 $6 #
transform $-1 1 0 0 0 1 0 0 0 1 47.097384563737904 31.683185467086343 14.120565425188211 1 rotate no_reflect no_shear #
lump $-1 $-1 $37 $7 #
transform $-1 1 0 0 0 1 0 0 0 1 47.097384563737904 31.683185467086343 14.120565425188211 1 rotate no_reflect no_shear #
lump $-1 $-1 $38 $8 #
transform $-1 1 0 0 0 1 0 0 0 1 47.097384563737904 31.683185467086343 14.120565425188211 1 rotate no_reflect no_shear #
lump $-1 $-1 $39 $9 #
transform $-1 1 0 0 0 1 0 0 0 1 47.097384563737904 31.683185467086343 14.120565425188211 1 rotate no_reflect no_shear #
shell $-1 $-1 $-1 $40 $-1 $10 #
shell $-1 $-1 $-1 $41 $-1 $12 #
shell $-1 $-1 $-1 $42 $-1 $14 #
shell $-1 $-1 $-1 $43 $-1 $16 #
shell $-1 $-1 $-1 $44 $-1 $18 #
shell $-1 $-1 $-1 $45 $-1 $20 #
shell $-1 $-1 $-1 $46 $-1 $22 #
shell $-1 $-1 $-1 $47 $-1 $24 #
shell $-1 $-1 $-1 $48 $-1 $26 #
shell $-1 $-1 $-1 $49 $-1 $28 #
face $-1 $50 $51 $30 $-1 $52 forward single #
face $-1 $53 $54 $31 $-1 $55 forward single #
face $-1 $56 $57 $32 $-1 $58 reversed single #
face $-1 $59 $60 $33 $-1 $61 forward single #
face $-1 $62 $63 $34 $-1 $64 forward single #
face $-1 $65 $66 $35 $-1 $67 forward single #
face $-1 $68 $69 $36 $-1 $70 reversed single #
face $-1 $71 $72 $37 $-1 $73 forward single #
face $-1 $74 $75 $38 $-1 $76 forward single #
face $-1 $77 $78 $39 $-1 $79 forward single #
face $-1 $80 $81 $30 $-1 $82 reversed single #
loop $-1 $-1 $83 $40 #
plane-surface $-1 0 0 14.120565425188211 0 0 1 1 0 0 forward_v I I I I #
face $-1 $84 $85 $31 $-1 $86 reversed single #
loop $-1 $-1 $87 $41 #
plane-surface $-1 -47.097384563737904 0 0 1 0 0 0 0 -1 forward_v I I I I #
face $-1 $88 $89 $32 $-1 $90 reversed single #
loop $-1 $-1 $91 $42 #
plane-surface $-1 34.647625987839994 -113.25824916369034 49.07666543194879 -1 0 0 0 -0.86602541151947299 0.49999998660252726 forward_v I I I I #
face $-1 $92 $93 $33 $-1 $94 forward single #
loop $-1 $95 $96 $43 #
cone-surface $-1 21.883981510163181 -26.61172518732705 7.1454619958350856 0 0.86602541151947299 -0.49999998660252726 1 0 0 1 I I 0 1 1 forward I I I I #
face $-1 $97 $98 $34 $-1 $99 forward single #
loop $-1 $100 $101 $44 #
cone-surface $-1 26.670348189291985 -26.61172518732705 7.1454619958350856 0 0.86602541151947299 -0.49999998660252726 1 0 0 1 I I 0 1 1 forward I I I I #
face $-1 $102 $103 $35 $-1 $104 forward single #
loop $-1 $105 $106 $45 #
cone-surface $-1 31.456714868420789 -26.61172518732705 7.1454619958350856 0 0.86602541151947299 -0.49999998660252726 1 0 0 1 I I 0 1 1 forward I I I I #
face $-1 $107 $108 $36 $-1 $109 reversed single #
loop $-1 $-1 $110 $46 #
plane-surface $-1 18.693070390743976 81.575064545553218 103.95355289671127 1 0 0 0 -0.86602541151947299 -0.49999998660252726 forward_v I I I I #
face $-1 $111 $112 $37 $-1 $113 forward single #
loop $-1 $114 $115 $47 #
cone-surface $-1 21.883981510163181 26.611725187327053 7.145461995835082 0 -0.86602541151947299 -0.49999998660252726 1 0 0 1 I I 0 1 1 forward I I I I #
face $-1 $116 $117 $38 $-1 $118 forward single #
loop $-1 $119 $120 $48 #
cone-surface $-1 26.670348189291985 26.611725187327053 7.145461995835082 0 -0.86602541151947299 -0.49999998660252726 1 0 0 1 I I 0 1 1 forward I I I I #
face $-1 $121 $122 $39 $-1 $123 forward single #
loop $-1 $124 $125 $49 #
cone-surface $-1 31.456714868420789 26.611725187327053 7.145461995835082 0 -0.86602541151947299 -0.49999998660252726 1 0 0 1 I I 0 1 1 forward I I I I #
face $-1 $126 $127 $30 $-1 $128 reversed single #
loop $-1 $-1 $129 $50 #
plane-surface $-1 0 0 -14.120565425188211 0 0 1 1 0 0 forward_v I I I I #
coedge $-1 $130 $131 $132 $133 forward $51 $-1 #
face $-1 $134 $135 $31 $-1 $136 forward single #
loop $-1 $-1 $137 $53 #
plane-surface $-1 0 31.683185467086343 0 0 -1 0 0 0 -1 forward_v I I I I #
coedge $-1 $138 $139 $140 $141 forward $54 $-1 #
face $-1 $142 $143 $32 $-1 $144 reversed single #
loop $-1 $-1 $145 $56 #
plane-surface $-1 26.670348189291985 -31.683185467086346 1.9792821301827388 0 -0.86602541151947299 0.49999998660252726 1 0 0 forward_v I I I I #
coedge $-1 $146 $147 $148 $149 reversed $57 $-1 #
face $-1 $-1 $150 $33 $-1 $151 forward single #
loop $-1 $152 $153 $59 #
cone-surface $-1 21.883981510163181 -24.61213866592982 5.9910002206834356 0 0.86602541151947299 -0.49999998660252726 0.5 0 0 1 I I -0.70710678118654746 0.70710678118654746 0.5 forward I I I I #
loop $-1 $-1 $154 $43 #
coedge $-1 $96 $96 $155 $156 reversed $60 $-1 #
face $-1 $-1 $157 $34 $-1 $158 forward single #
loop $-1 $159 $160 $62 #
cone-surface $-1 26.670348189291985 -24.61213866592982 5.9910002206834356 0 0.86602541151947299 -0.49999998660252726 0.5 0 0 1 I I -0.70710678118654746 0.70710678118654746 0.5 forward I I I I #
loop $-1 $-1 $161 $44 #
coedge $-1 $101 $101 $162 $163 reversed $63 $-1 #
face $-1 $-1 $164 $35 $-1 $165 forward single #
loop $-1 $166 $167 $65 #
cone-surface $-1 31.456714868420789 -24.61213866592982 5.9910002206834356 0 0.86602541151947299 -0.49999998660252726 0.5 0 0 1 I I -0.70710678118654746 0.70710678118654746 0.5 forward I I I I #
loop $-1 $-1 $168 $45 #
coedge $-1 $106 $106 $169 $170 reversed $66 $-1 #
face $-1 $171 $172 $36 $-1 $173 reversed single #
loop $-1 $-1 $174 $68 #
plane-surface $-1 26.670348189291985 8.4894922736111766e-007 56.856169594945221 0 0.86602541151947299 0.49999998660252726 1 0 0 forward_v I I I I #
coedge $-1 $175 $176 $177 $178 reversed $69 $-1 #
face $-1 $-1 $179 $37 $-1 $180 forward single #
loop $-1 $181 $182 $71 #
cone-surface $-1 21.883981510163181 24.612138665929823 5.9910002206834321 0 -0.86602541151947299 -0.49999998660252726 0.5 0 0 1 I I -0.70710678118654746 0.70710678118654746 0.5 forward I I I I #
loop $-1 $-1 $183 $47 #
coedge $-1 $115 $115 $184 $185 reversed $72 $-1 #
face $-1 $-1 $186 $38 $-1 $187 forward single #
loop $-1 $188 $189 $74 #
cone-surface $-1 26.670348189291985 24.612138665929823 5.9910002206834321 0 -0.86602541151947299 -0.49999998660252726 0.5 0 0 1 I I -0.70710678118654746 0.70710678118654746 0.5 forward I I I I #
loop $-1 $-1 $190 $48 #
coedge $-1 $120 $120 $191 $192 reversed $75 $-1 #
face $-1 $-1 $193 $39 $-1 $194 forward single #
loop $-1 $195 $196 $77 #
cone-surface $-1 31.456714868420789 24.612138665929823 5.9910002206834321 0 -0.86602541151947299 -0.49999998660252726 0.5 0 0 1 I I -0.70710678118654746 0.70710678118654746 0.5 forward I I I I #
loop $-1 $-1 $197 $49 #
coedge $-1 $125 $125 $198 $199 reversed $78 $-1 #
face $-1 $200 $201 $30 $-1 $202 reversed single #
loop $-1 $-1 $203 $80 #
plane-surface $-1 0 -31.683185467086343 0 0 1 0 0 0 1 forward_v I I I I #
coedge $-1 $204 $205 $206 $207 forward $81 $-1 #
coedge $-1 $208 $83 $209 $210 forward $51 $-1 #
coedge $-1 $83 $208 $211 $212 forward $51 $-1 #
coedge $-1 $213 $214 $83 $133 reversed $215 $-1 #
edge $-1 $216 -31.683185467086343 $217 31.683185467086343 $132 $218 forward 7 unknown #
face $-1 $219 $220 $31 $-1 $221 reversed single #
loop $-1 $-1 $140 $84 #
plane-surface $-1 -52.204847419387171 0 -10.606950564574497 0 0 1 1 0 0 forward_v I I I I #
coedge $-1 $222 $223 $139 $224 forward $85 $-1 #
coedge $-1 $225 $87 $226 $227 reversed $54 $-1 #
coedge $-1 $87 $225 $137 $224 reversed $54 $-1 #
coedge $-1 $228 $229 $87 $141 reversed $135 $-1 #
edge $-1 $230 -31.683185467086343 $231 31.683185467086343 $140 $232 forward 7 unknown #
face $-1 $233 $234 $32 $-1 $235 reversed single #
loop $-1 $-1 $236 $88 #
plane-surface $-1 18.693070390743976 -113.25824916369034 49.07666543194879 1 0 0 0 0.86602541151947299 -0.49999998660252726 forward_v I I I I #
coedge $-1 $237 $238 $239 $240 reversed $89 $-1 #
coedge $-1 $147 $91 $241 $242 reversed $57 $-1 #
coedge $-1 $91 $146 $237 $243 reversed $57 $-1 #
coedge $-1 $239 $244 $91 $149 forward $245 $-1 #
edge $-1 $246 24.945939114758826 $247 31.955712043002421 $148 $248 forward 7 unknown #
loop $-1 $-1 $155 $92 #
plane-surface $-1 26.670348189291985 -31.683185467086346 1.9792821301827388 0 -0.86602541151947299 0.49999998660252726 1 0 0 forward_v I I I I #
loop $-1 $-1 $249 $59 #
coedge $-1 $153 $153 $154 $250 reversed $93 $-1 #
coedge $-1 $154 $154 $153 $250 forward $95 $-1 #
coedge $-1 $155 $155 $96 $156 forward $150 $-1 #
edge $-1 $251 -1.300383533891199e-015 $251 6.2831853071795996 $155 $252 forward 7 unknown #
loop $-1 $-1 $162 $97 #
plane-surface $-1 26.670348189291985 -31.683185467086346 1.9792821301827388 0 -0.86602541151947299 0.49999998660252726 1 0 0 forward_v I I I I #
loop $-1 $-1 $253 $62 #
coedge $-1 $160 $160 $161 $254 reversed $98 $-1 #
coedge $-1 $161 $161 $160 $254 forward $100 $-1 #
coedge $-1 $162 $162 $101 $163 forward $157 $-1 #
edge $-1 $255 -1.300383533891199e-015 $255 6.2831853071795996 $162 $256 forward 7 unknown #
loop $-1 $-1 $169 $102 #
plane-surface $-1 26.670348189291985 -31.683185467086346 1.9792821301827388 0 -0.86602541151947299 0.49999998660252726 1 0 0 forward_v I I I I #
loop $-1 $-1 $257 $65 #
coedge $-1 $167 $167 $168 $258 reversed $103 $-1 #
coedge $-1 $168 $168 $167 $258 forward $105 $-1 #
coedge $-1 $169 $169 $106 $170 forward $164 $-1 #
edge $-1 $259 -1.300383533891199e-015 $259 6.2831853071795996 $169 $260 forward 7 unknown #
face $-1 $261 $262 $36 $-1 $263 forward single #
loop $-1 $-1 $264 $107 #
plane-surface $-1 34.647625987839994 81.575064545553218 103.95355289671127 -1 0 0 0 0.86602541151947299 0.49999998660252726 forward_v I I I I #
coedge $-1 $265 $266 $267 $268 reversed $108 $-1 #
coedge $-1 $176 $110 $269 $270 reversed $69 $-1 #
coedge $-1 $110 $175 $265 $271 reversed $69 $-1 #
coedge $-1 $267 $272 $110 $178 forward $262 $-1 #
edge $-1 $273 9.1043468056902661 $274 16.114119733933862 $177 $275 forward 7 unknown #
loop $-1 $-1 $184 $111 #
plane-surface $-1 26.670348189291985 8.4894922736111766e-007 56.856169594945221 0 0.86602541151947299 0.49999998660252726 1 0 0 forward_v I I I I #
loop $-1 $-1 $276 $71 #
coedge $-1 $182 $182 $183 $277 reversed $112 $-1 #
coedge $-1 $183 $183 $182 $277 forward $114 $-1 #
coedge $-1 $184 $184 $115 $185 forward $179 $-1 #
edge $-1 $278 -4.7597325791166719e-016 $278 6.2831853071795996 $184 $279 forward 7 unknown #
loop $-1 $-1 $191 $116 #
plane-surface $-1 26.670348189291985 8.4894922736111766e-007 56.856169594945221 0 0.86602541151947299 0.49999998660252726 1 0 0 forward_v I I I I #
loop $-1 $-1 $280 $74 #
coedge $-1 $189 $189 $190 $281 reversed $117 $-1 #
coedge $-1 $190 $190 $189 $281 forward $119 $-1 #
coedge $-1 $191 $191 $120 $192 forward $186 $-1 #
edge $-1 $282 -4.7597325791166719e-016 $282 6.2831853071795996 $191 $283 forward 7 unknown #
loop $-1 $-1 $198 $121 #
plane-surface $-1 26.670348189291985 8.4894922736111766e-007 56.856169594945221 0 0.86602541151947299 0.49999998660252726 1 0 0 forward_v I I I I #
loop $-1 $-1 $284 $77 #
coedge $-1 $196 $196 $197 $285 reversed $122 $-1 #
coedge $-1 $197 $197 $196 $285 forward $124 $-1 #
coedge $-1 $198 $198 $125 $199 forward $193 $-1 #
edge $-1 $286 -4.7597325791166719e-016 $286 6.2831853071795996 $198 $287 forward 7 unknown #
face $-1 $288 $289 $30 $-1 $290 reversed single #
loop $-1 $-1 $291 $126 #
plane-surface $-1 -47.097384563737904 0 0 1 0 0 0 0 -1 forward_v I I I I #
coedge $-1 $292 $211 $293 $294 forward $127 $-1 #
coedge $-1 $295 $129 $292 $296 forward $81 $-1 #
coedge $-1 $129 $295 $297 $298 forward $81 $-1 #
coedge $-1 $214 $213 $129 $207 reversed $215 $-1 #
edge $-1 $299 -31.683185467086343 $300 31.683185467086343 $206 $301 forward 7 unknown #
coedge $-1 $131 $130 $302 $303 forward $51 $-1 #
coedge $-1 $304 $305 $130 $210 reversed $289 $-1 #
edge $-1 $217 -47.097384563737904 $306 47.097384563737904 $209 $307 forward 7 unknown #
coedge $-1 $203 $308 $131 $212 reversed $127 $-1 #
edge $-1 $309 -47.097384563737904 $216 47.097384563737904 $211 $310 forward 7 unknown #
coedge $-1 $206 $132 $308 $311 forward $215 $-1 #
coedge $-1 $132 $206 $304 $312 reversed $215 $-1 #
loop $-1 $-1 $213 $288 #
vertex $-1 $133 $313 #
vertex $-1 $133 $314 #
straight-curve $-1 47.097384563737904 0 14.120565425188211 0 1 0 I I #
face $-1 $315 $316 $31 $-1 $317 reversed single #
loop $-1 $-1 $318 $134 #
plane-surface $-1 -57.312310275036438 0 -12.363757994881354 1 0 0 0 0 -1 forward_v I I I I #
coedge $-1 $319 $137 $320 $321 reversed $85 $-1 #
coedge $-1 $137 $319 $228 $322 reversed $85 $-1 #
edge $-1 $230 10.606950564574497 $323 14.120565425188211 $137 $324 forward 7 unknown #
coedge $-1 $139 $138 $325 $326 reversed $54 $-1 #
coedge $-1 $327 $328 $138 $227 forward $329 $-1 #
edge $-1 $330 -14.120565425188211 $231 -10.606950564574497 $226 $331 forward 7 unknown #
coedge $-1 $332 $140 $223 $322 forward $135 $-1 #
coedge $-1 $140 $332 $327 $333 forward $135 $-1 #
vertex $-1 $224 $334 #
vertex $-1 $333 $335 #
straight-curve $-1 -47.097384563737904 0 -10.606950564574497 0 -1 0 I I #
face $-1 $-1 $245 $32 $-1 $336 forward single #
loop $-1 $-1 $337 $142 #
plane-surface $-1 0 -31.683185467086343 0 0 1 0 0 0 1 forward_v I I I I #
coedge $-1 $338 $339 $340 $341 reversed $143 $-1 #
coedge $-1 $342 $145 $147 $243 forward $89 $-1 #
coedge $-1 $145 $342 $338 $343 forward $89 $-1 #
coedge $-1 $340 $148 $145 $240 forward $245 $-1 #
edge $-1 $247 -21.312451893194002 $344 -5.3578962960979837 $239 $345 forward 7 unknown #
coedge $-1 $346 $347 $146 $242 forward $234 $-1 #
edge $-1 $348 -22.559050585791649 $246 -10.417767290786184 $241 $349 forward 7 unknown #
edge $-1 $247 -14.019546232140176 $348 -7.160652361767478e-015 $147 $350 forward 7 unknown #
coedge $-1 $148 $340 $346 $351 forward $245 $-1 #
loop $-1 $-1 $340 $233 #
vertex $-1 $242 $352 #
vertex $-1 $149 $353 #
straight-curve $-1 34.647625987839994 -56.629124581845169 14.120565425188211 0 1 0 I I #
coedge $-1 $249 $249 $-1 $354 reversed $152 $-1 #
edge $-1 $355 0 $355 6.2831853071796004 $153 $356 forward 7 unknown #
vertex $-1 $156 $357 #
ellipse-curve $-1 21.883981510163181 -28.178299002964547 8.0499237776854748 0 -0.86602541151947299 0.49999998660252726 1 0 0 1 I I #
coedge $-1 $253 $253 $-1 $358 reversed $159 $-1 #
edge $-1 $359 0 $359 6.2831853071796004 $160 $360 forward 7 unknown #
vertex $-1 $163 $361 #
ellipse-curve $-1 26.670348189291985 -28.178299002964547 8.0499237776854748 0 -0.86602541151947299 0.49999998660252726 1 0 0 1 I I #
coedge $-1 $257 $257 $-1 $362 reversed $166 $-1 #
edge $-1 $363 0 $363 6.2831853071796004 $167 $364 forward 7 unknown #
vertex $-1 $170 $365 #
ellipse-curve $-1 31.456714868420789 -28.178299002964547 8.0499237776854748 0 -0.86602541151947299 0.49999998660252726 1 0 0 1 I I #
face $-1 $-1 $366 $36 $-1 $367 reversed single #
loop $-1 $-1 $177 $171 #
plane-surface $-1 0 0 14.120565425188211 0 0 1 1 0 0 forward_v I I I I #
coedge $-1 $368 $369 $370 $371 reversed $172 $-1 #
coedge $-1 $372 $174 $176 $271 forward $108 $-1 #
coedge $-1 $174 $372 $368 $373 forward $108 $-1 #
coedge $-1 $370 $177 $174 $268 forward $262 $-1 #
edge $-1 $274 5.3578962960979837 $374 21.312451893194002 $267 $375 forward 7 unknown #
coedge $-1 $376 $377 $175 $270 forward $366 $-1 #
edge $-1 $378 -49.99749431817289 $273 -37.856211023167425 $269 $379 forward 7 unknown #
edge $-1 $274 49.346824702032521 $378 63.366370934172686 $176 $380 forward 7 unknown #
coedge $-1 $177 $370 $376 $381 forward $262 $-1 #
vertex $-1 $270 $382 #
vertex $-1 $178 $383 #
straight-curve $-1 18.693070390743976 40.787532272776609 14.120565425188211 0 -1 0 I I #
coedge $-1 $276 $276 $-1 $384 reversed $181 $-1 #
edge $-1 $385 0 $385 6.2831853071796004 $182 $386 forward 7 unknown #
vertex $-1 $185 $387 #
ellipse-curve $-1 21.883981510163181 28.17829900296455 8.0499237776854713 0 0.86602541151947299 0.49999998660252726 1 0 0 1 I I #
coedge $-1 $280 $280 $-1 $388 reversed $188 $-1 #
edge $-1 $389 0 $389 6.2831853071796004 $189 $390 forward 7 unknown #
vertex $-1 $192 $391 #
ellipse-curve $-1 26.670348189291985 28.17829900296455 8.0499237776854713 0 0.86602541151947299 0.49999998660252726 1 0 0 1 I I #
coedge $-1 $284 $284 $-1 $392 reversed $195 $-1 #
edge $-1 $393 0 $393 6.2831853071796004 $196 $394 forward 7 unknown #
vertex $-1 $199 $395 #
ellipse-curve $-1 31.456714868420789 28.17829900296455 8.0499237776854713 0 0.86602541151947299 0.49999998660252726 1 0 0 1 I I #
face $-1 $-1 $215 $30 $-1 $396 reversed single #
loop $-1 $-1 $304 $200 #
plane-surface $-1 0 31.683185467086343 0 0 -1 0 0 0 -1 forward_v I I I I #
coedge $-1 $397 $302 $305 $398 forward $201 $-1 #
coedge $-1 $308 $203 $204 $296 reversed $127 $-1 #
coedge $-1 $302 $397 $203 $294 reversed $201 $-1 #
edge $-1 $309 -14.120565425188211 $399 14.120565425188211 $293 $400 forward 7 unknown #
coedge $-1 $205 $204 $397 $401 forward $81 $-1 #
edge $-1 $300 -47.097384563737904 $399 47.097384563737904 $292 $402 forward 7 unknown #
coedge $-1 $305 $304 $205 $298 reversed $289 $-1 #
edge $-1 $403 -47.097384563737904 $299 47.097384563737904 $297 $404 forward 7 unknown #
vertex $-1 $207 $405 #
vertex $-1 $311 $406 #
straight-curve $-1 47.097384563737904 0 -14.120565425188211 0 -1 0 I I #
coedge $-1 $291 $293 $208 $303 reversed $201 $-1 #
edge $-1 $306 -31.683185467086343 $309 31.683185467086343 $302 $407 forward 7 unknown #
coedge $-1 $297 $209 $214 $312 forward $289 $-1 #
coedge $-1 $209 $297 $291 $398 reversed $289 $-1 #
vertex $-1 $210 $408 #
straight-curve $-1 0 31.683185467086343 14.120565425188211 -1 0 0 I I #
coedge $-1 $211 $292 $213 $311 reversed $127 $-1 #
vertex $-1 $303 $409 #
straight-curve $-1 0 -31.683185467086343 14.120565425188211 1 0 0 I I #
edge $-1 $216 -14.120565425188211 $300 14.120565425188211 $213 $410 forward 7 unknown #
edge $-1 $217 -14.120565425188211 $299 14.120565425188211 $214 $411 forward 7 unknown #
point $-1 47.097384563737904 -31.683185467086343 14.120565425188211 #
point $-1 47.097384563737904 31.683185467086343 14.120565425188211 #
face $-1 $-1 $329 $31 $-1 $412 reversed single #
loop $-1 $-1 $325 $219 #
plane-surface $-1 0 0 -14.120565425188211 0 0 1 1 0 0 forward_v I I I I #
coedge $-1 $413 $414 $319 $415 forward $220 $-1 #
coedge $-1 $223 $222 $318 $415 reversed $85 $-1 #
coedge $-1 $325 $416 $222 $321 forward $316 $-1 #
edge $-1 $417 -57.312310275036438 $323 -47.097384563737904 $222 $418 forward 7 unknown #
edge $-1 $230 -5.1074628556492669 $419 5.1074628556492669 $223 $420 forward 7 unknown #
vertex $-1 $224 $421 #
straight-curve $-1 -47.097384563737904 31.683185467086343 0 0 0 -1 I I #
coedge $-1 $422 $320 $225 $326 forward $316 $-1 #
edge $-1 $323 -31.683185467086343 $330 31.683185467086343 $325 $423 forward 7 unknown #
coedge $-1 $424 $226 $229 $333 reversed $329 $-1 #
coedge $-1 $226 $424 $422 $425 reversed $329 $-1 #
loop $-1 $-1 $226 $315 #
vertex $-1 $425 $426 #
straight-curve $-1 -47.097384563737904 -31.683185467086343 0 0 0 1 I I #
coedge $-1 $229 $228 $414 $427 forward $135 $-1 #
edge $-1 $428 -5.1074628556492669 $231 5.1074628556492669 $327 $429 forward 7 unknown #
point $-1 -47.097384563737904 31.683185467086343 -10.606950564574497 #
point $-1 -47.097384563737904 -31.683185467086343 -10.606950564574497 #
plane-surface $-1 0 0 14.120565425188211 0 0 1 1 0 0 forward_v I I I I #
coedge $-1 $347 $346 $339 $430 forward $234 $-1 #
coedge $-1 $339 $236 $238 $343 reversed $143 $-1 #
coedge $-1 $236 $338 $337 $430 reversed $143 $-1 #
coedge $-1 $244 $239 $236 $341 forward $245 $-1 #
edge $-1 $344 -31.955712043002421 $431 -24.945939114758826 $340 $432 forward 7 unknown #
coedge $-1 $238 $237 $347 $433 reversed $89 $-1 #
edge $-1 $434 7.160652361767478e-015 $344 14.019546232140176 $338 $435 forward 7 unknown #
vertex $-1 $240 $436 #
straight-curve $-1 13.335174094645993 -24.673412538842747 14.120565425188211 -1 0 0 I I #
coedge $-1 $337 $241 $244 $351 reversed $234 $-1 #
coedge $-1 $241 $337 $342 $433 forward $234 $-1 #
vertex $-1 $242 $437 #
straight-curve $-1 34.647625987839994 -31.683185467086346 24.538332715974395 0 0 1 I I #
straight-curve $-1 34.647625987839994 -31.683185467086346 1.9792821301827388 0 -0.49999998660252726 -0.86602541151947299 I I #
edge $-1 $431 18.693070390743976 $246 34.647625987839994 $346 $438 forward 7 unknown #
point $-1 34.647625987839994 -31.683185467086343 14.120565425188211 #
point $-1 34.647625987839994 -24.673412538842747 14.120565425188211 #
edge $-1 $439 1 $439 0 $249 $-1 forward 7 unknown #
vertex $-1 $250 $440 #
ellipse-curve $-1 21.883981510163181 -25.045151371689556 6.241000213984699 0 -0.86602541151947299 0.49999998660252726 1 0 0 1 I I #
point $-1 22.883981510163181 -28.178299002964543 8.0499237776854713 #
edge $-1 $441 1 $441 0 $253 $-1 forward 7 unknown #
vertex $-1 $254 $442 #
ellipse-curve $-1 26.670348189291985 -25.045151371689556 6.241000213984699 0 -0.86602541151947299 0.49999998660252726 1 0 0 1 I I #
point $-1 27.670348189291985 -28.178299002964543 8.0499237776854713 #
edge $-1 $443 1 $443 0 $257 $-1 forward 7 unknown #
vertex $-1 $258 $444 #
ellipse-curve $-1 31.456714868420789 -25.045151371689556 6.241000213984699 0 -0.86602541151947299 0.49999998660252726 1 0 0 1 I I #
point $-1 32.456714868420789 -28.178299002964543 8.0499237776854713 #
loop $-1 $-1 $269 $261 #
plane-surface $-1 0 31.683185467086343 0 0 -1 0 0 0 -1 forward_v I I I I #
coedge $-1 $369 $264 $266 $373 reversed $172 $-1 #
coedge $-1 $264 $368 $445 $446 reversed $172 $-1 #
coedge $-1 $272 $267 $264 $371 forward $262 $-1 #
edge $-1 $374 -16.114119733933862 $447 -9.1043468056902661 $370 $448 forward 7 unknown #
coedge $-1 $266 $265 $377 $449 reversed $108 $-1 #
edge $-1 $450 -63.366370934172686 $374 -49.346824702032521 $368 $451 forward 7 unknown #
vertex $-1 $268 $452 #
straight-curve $-1 13.335174094645993 24.673412538842747 14.120565425188211 1 0 0 I I #
coedge $-1 $445 $269 $272 $381 reversed $366 $-1 #
coedge $-1 $269 $445 $372 $449 forward $366 $-1 #
vertex $-1 $270 $453 #
straight-curve $-1 18.693070390743976 31.683185467086343 51.976776448355636 0 0 1 I I #
straight-curve $-1 18.693070390743976 8.4894922736111766e-007 56.856169594945221 0 0.49999998660252726 -0.86602541151947299 I I #
edge $-1 $447 -34.647625987839994 $273 -18.693070390743976 $376 $454 forward 7 unknown #
point $-1 18.693070390743976 31.683185467086343 14.120565425188211 #
point $-1 18.693070390743976 24.673412538842747 14.120565425188211 #
edge $-1 $455 1 $455 0 $276 $-1 forward 7 unknown #
vertex $-1 $277 $456 #
ellipse-curve $-1 21.883981510163181 25.04515137168956 6.2410002139846954 0 0.86602541151947299 0.49999998660252726 1 0 0 1 I I #
point $-1 22.883981510163181 28.178299002964543 8.0499237776854677 #
edge $-1 $457 1 $457 0 $280 $-1 forward 7 unknown #
vertex $-1 $281 $458 #
ellipse-curve $-1 26.670348189291985 25.04515137168956 6.2410002139846954 0 0.86602541151947299 0.49999998660252726 1 0 0 1 I I #
point $-1 27.670348189291985 28.178299002964543 8.0499237776854677 #
edge $-1 $459 1 $459 0 $284 $-1 forward 7 unknown #
vertex $-1 $285 $460 #
ellipse-curve $-1 31.456714868420789 25.04515137168956 6.2410002139846954 0 0.86602541151947299 0.49999998660252726 1 0 0 1 I I #
point $-1 32.456714868420789 28.178299002964543 8.0499237776854677 #
plane-surface $-1 47.097384563737904 0 0 -1 0 0 0 0 1 forward_v I I I I #
coedge $-1 $293 $291 $295 $401 reversed $201 $-1 #
edge $-1 $306 -14.120565425188211 $403 14.120565425188211 $305 $461 forward 7 unknown #
vertex $-1 $401 $462 #
straight-curve $-1 -47.097384563737904 -31.683185467086343 0 0 0 -1 I I #
edge $-1 $399 -31.683185467086343 $403 31.683185467086343 $397 $463 forward 7 unknown #
straight-curve $-1 0 -31.683185467086343 -14.120565425188211 -1 0 0 I I #
vertex $-1 $298 $464 #
straight-curve $-1 0 31.683185467086343 -14.120565425188211 1 0 0 I I #
point $-1 47.097384563737904 31.683185467086343 -14.120565425188211 #
point $-1 47.097384563737904 -31.683185467086343 -14.120565425188211 #
straight-curve $-1 -47.097384563737904 0 14.120565425188211 0 -1 0 I I #
point $-1 -47.097384563737904 31.683185467086343 14.120565425188211 #
point $-1 -47.097384563737904 -31.683185467086343 14.120565425188211 #
straight-curve $-1 47.097384563737904 -31.683185467086343 0 0 0 -1 I I #
straight-curve $-1 47.097384563737904 31.683185467086343 0 0 0 -1 I I #
plane-surface $-1 0 -31.683185467086343 0 0 1 0 0 0 1 forward_v I I I I #
coedge $-1 $465 $318 $416 $466 reversed $220 $-1 #
coedge $-1 $318 $465 $332 $427 reversed $220 $-1 #
edge $-1 $419 -1.756807430306857 $417 1.756807430306857 $319 $467 forward 7 unknown #
coedge $-1 $320 $422 $413 $466 forward $316 $-1 #
vertex $-1 $321 $468 #
straight-curve $-1 0 31.683185467086343 -14.120565425188211 1 0 0 I I #
vertex $-1 $322 $469 #
straight-curve $-1 -52.204847419387171 31.683185467086343 -10.606950564574497 -1 0 0 I I #
point $-1 -47.097384563737904 31.683185467086343 -14.120565425188211 #
coedge $-1 $416 $325 $328 $425 forward $316 $-1 #
straight-curve $-1 -47.097384563737904 0 -14.120565425188211 0 -1 0 I I #
coedge $-1 $328 $327 $465 $470 forward $329 $-1 #
edge $-1 $330 -5.1074628556492669 $471 5.1074628556492669 $328 $472 forward 7 unknown #
point $-1 -47.097384563737904 -31.683185467086343 -14.120565425188211 #
edge $-1 $419 -31.683185467086343 $428 31.683185467086343 $414 $473 forward 7 unknown #
vertex $-1 $427 $474 #
straight-curve $-1 -52.204847419387171 -31.683185467086343 -10.606950564574497 1 0 0 I I #
edge $-1 $431 10.417767290786184 $434 22.559050585791649 $337 $475 forward 7 unknown #
vertex $-1 $351 $476 #
straight-curve $-1 18.693070390743976 -56.629124581845169 14.120565425188211 0 -1 0 I I #
edge $-1 $434 5.3578962960979837 $348 21.312451893194002 $347 $477 forward 7 unknown #
vertex $-1 $433 $478 #
straight-curve $-1 18.693070390743976 -31.683185467086346 1.9792821301827388 0 0.49999998660252726 0.86602541151947299 I I #
point $-1 18.693070390743976 -24.673412538842747 14.120565425188211 #
point $-1 34.647625987839994 -31.683185467086343 1.979282130182745 #
straight-curve $-1 0 -31.683185467086343 14.120565425188211 1 0 0 I I #
vertex $-1 $354 $479 #
point $-1 22.883981510163181 -25.045151371689556 6.241000213984699 #
vertex $-1 $358 $480 #
point $-1 27.670348189291985 -25.045151371689556 6.241000213984699 #
vertex $-1 $362 $481 #
point $-1 32.456714868420789 -25.045151371689556 6.241000213984699 #
coedge $-1 $377 $376 $369 $446 forward $366 $-1 #
edge $-1 $447 37.856211023167425 $450 49.99749431817289 $445 $482 forward 7 unknown #
vertex $-1 $381 $483 #
straight-curve $-1 34.647625987839994 40.787532272776609 14.120565425188211 0 1 0 I I #
edge $-1 $450 -21.312451893194002 $378 -5.3578962960979837 $377 $484 forward 7 unknown #
vertex $-1 $449 $485 #
straight-curve $-1 34.647625987839994 8.4894922736111766e-007 56.856169594945221 0 -0.49999998660252726 0.86602541151947299 I I #
point $-1 34.647625987839994 24.673412538842747 14.120565425188211 #
point $-1 18.693070390743976 31.683185467086343 1.9792821301827459 #
straight-curve $-1 0 31.683185467086343 14.120565425188211 -1 0 0 I I #
vertex $-1 $384 $486 #
point $-1 22.883981510163181 25.04515137168956 6.2410002139846954 #
vertex $-1 $388 $487 #
point $-1 27.670348189291985 25.04515137168956 6.2410002139846954 #
vertex $-1 $392 $488 #
point $-1 32.456714868420789 25.04515137168956 6.2410002139846954 #
straight-curve $-1 -47.097384563737904 31.683185467086343 0 0 0 -1 I I #
point $-1 -47.097384563737904 -31.683185467086343 -14.120565425188211 #
straight-curve $-1 -47.097384563737904 0 -14.120565425188211 0 1 0 I I #
point $-1 -47.097384563737904 31.683185467086343 -14.120565425188211 #
coedge $-1 $414 $413 $424 $470 reversed $220 $-1 #
edge $-1 $471 -31.683185467086343 $417 31.683185467086343 $413 $489 forward 7 unknown #
straight-curve $-1 -57.312310275036438 31.683185467086343 -12.363757994881354 0 0 -1 I I #
point $-1 -57.312310275036438 31.683185467086343 -14.120565425188211 #
point $-1 -57.312310275036438 31.683185467086343 -10.606950564574497 #
edge $-1 $428 -1.756807430306857 $471 1.756807430306857 $465 $490 forward 7 unknown #
vertex $-1 $466 $491 #
straight-curve $-1 -52.204847419387171 -31.683185467086343 -14.120565425188211 -1 0 0 I I #
straight-curve $-1 -57.312310275036438 0 -10.606950564574497 0 -1 0 I I #
point $-1 -57.312310275036438 -31.683185467086343 -10.606950564574497 #
straight-curve $-1 18.693070390743976 -31.683185467086346 24.538332715974395 0 0 -1 I I #
point $-1 18.693070390743976 -31.683185467086343 14.120565425188211 #
straight-curve $-1 13.335174094645993 -31.683185467086343 1.9792821301827495 1 0 0 I I #
point $-1 18.693070390743976 -31.683185467086343 1.979282130182745 #
point $-1 21.883981510163181 -24.179125960170083 5.7410002273821723 #
point $-1 26.670348189291985 -24.179125960170083 5.7410002273821723 #
point $-1 31.456714868420789 -24.179125960170083 5.7410002273821723 #
straight-curve $-1 34.647625987839994 31.683185467086343 51.976776448355636 0 0 -1 I I #
point $-1 34.647625987839994 31.683185467086343 14.120565425188211 #
straight-curve $-1 13.335174094645993 31.683185467086343 1.979282130182753 -1 0 0 I I #
point $-1 34.647625987839994 31.683185467086343 1.9792821301827459 #
point $-1 21.883981510163181 24.179125960170087 5.7410002273821688 #
point $-1 26.670348189291985 24.179125960170087 5.7410002273821688 #
point $-1 31.456714868420789 24.179125960170087 5.7410002273821688 #
straight-curve $-1 -57.312310275036438 0 -14.120565425188211 0 1 0 I I #
straight-curve $-1 -57.312310275036438 -31.683185467086343 -12.363757994881354 0 0 -1 I I #
point $-1 -57.312310275036438 -31.683185467086343 -14.120565425188211 #
End-of-ACIS-data 