500 0 11 0           
7 Unknown 11 ACIS 5.0 NT 24 Fri Mar 26 20:00:48 1999 
-1 9.9999999999999995e-007 1e-010 
body $-1 $11 $-1 $12 #
body $-1 $13 $-1 $14 #
body $-1 $15 $-1 $16 #
body $-1 $17 $-1 $18 #
body $-1 $19 $-1 $20 #
body $-1 $21 $-1 $22 #
body $-1 $23 $-1 $24 #
body $-1 $25 $-1 $26 #
body $-1 $27 $-1 $28 #
body $-1 $29 $-1 $30 #
body $-1 $31 $-1 $32 #
lump $-1 $-1 $33 $0 #
transform $-1 1 0 0 0 1 0 0 0 1 74.363841669972842 43.100934948559718 9.4027043456156942 1 rotate no_reflect no_shear #
lump $-1 $-1 $34 $1 #
transform $-1 1 0 0 0 1 0 0 0 1 74.363841669972842 43.100934948559718 9.4027043456156942 1 rotate no_reflect no_shear #
lump $-1 $-1 $35 $2 #
transform $-1 1 0 0 0 1 0 0 0 1 74.363841669972842 43.100934948559718 9.4027043456156942 1 rotate no_reflect no_shear #
lump $-1 $-1 $36 $3 #
transform $-1 1 0 0 0 1 0 0 0 1 74.363841669972842 43.100934948559718 9.4027043456156942 1 rotate no_reflect no_shear #
lump $-1 $-1 $37 $4 #
transform $-1 1 0 0 0 1 0 0 0 1 74.363841669972842 43.100934948559718 9.4027043456156942 1 rotate no_reflect no_shear #
lump $-1 $-1 $38 $5 #
transform $-1 1 0 0 0 1 0 0 0 1 74.363841669972842 43.100934948559718 9.4027043456156942 1 rotate no_reflect no_shear #
lump $-1 $-1 $39 $6 #
transform $-1 1 0 0 0 1 0 0 0 1 74.363841669972842 43.100934948559718 9.4027043456156942 1 rotate no_reflect no_shear #
lump $-1 $-1 $40 $7 #
transform $-1 1 0 0 0 1 0 0 0 1 74.363841669972842 43.100934948559718 9.4027043456156942 1 rotate no_reflect no_shear #
lump $-1 $-1 $41 $8 #
transform $-1 1 0 0 0 1 0 0 0 1 74.363841669972842 43.100934948559718 9.4027043456156942 1 rotate no_reflect no_shear #
lump $-1 $-1 $42 $9 #
transform $-1 1 0 0 0 1 0 0 0 1 74.363841669972842 43.100934948559718 9.4027043456156942 1 rotate no_reflect no_shear #
lump $-1 $-1 $43 $10 #
transform $-1 1 0 0 0 1 0 0 0 1 74.363841669972842 43.100934948559718 9.4027043456156942 1 rotate no_reflect no_shear #
shell $-1 $-1 $-1 $44 $-1 $11 #
shell $-1 $-1 $-1 $45 $-1 $13 #
shell $-1 $-1 $-1 $46 $-1 $15 #
shell $-1 $-1 $-1 $47 $-1 $17 #
shell $-1 $-1 $-1 $48 $-1 $19 #
shell $-1 $-1 $-1 $49 $-1 $21 #
shell $-1 $-1 $-1 $50 $-1 $23 #
shell $-1 $-1 $-1 $51 $-1 $25 #
shell $-1 $-1 $-1 $52 $-1 $27 #
shell $-1 $-1 $-1 $53 $-1 $29 #
shell $-1 $-1 $-1 $54 $-1 $31 #
face $-1 $55 $56 $33 $-1 $57 reversed single #
face $-1 $58 $59 $34 $-1 $60 forward single #
face $-1 $61 $62 $35 $-1 $63 reversed single #
face $-1 $64 $65 $36 $-1 $66 forward single #
face $-1 $67 $68 $37 $-1 $69 forward single #
face $-1 $70 $71 $38 $-1 $72 reversed single #
face $-1 $73 $74 $39 $-1 $75 forward single #
face $-1 $76 $77 $40 $-1 $78 forward single #
face $-1 $79 $80 $41 $-1 $81 reversed single #
face $-1 $82 $83 $42 $-1 $84 forward single #
face $-1 $85 $86 $43 $-1 $87 forward single #
face $-1 $88 $89 $33 $-1 $90 forward single #
loop $-1 $-1 $91 $44 #
plane-surface $-1 0 -43.100934948559718 0 0 1 0 0 0 1 forward_v I I I I #
face $-1 $92 $93 $34 $-1 $94 reversed single #
loop $-1 $-1 $95 $45 #
plane-surface $-1 0 -43.100934948559718 0 0 1 0 0 0 1 forward_v I I I I #
face $-1 $96 $97 $35 $-1 $98 reversed single #
loop $-1 $-1 $99 $46 #
plane-surface $-1 -169.96415491329714 -12.888411713084952 116.94158047250129 0 1 0 -0.64278761758704617 0 0.76604443648966558 forward_v I I I I #
face $-1 $100 $101 $36 $-1 $102 forward single #
loop $-1 $103 $104 $47 #
cone-surface $-1 -68.89153492686016 -7.8294853109122187 4.2245063555686135 0.64278761758704617 0 -0.76604443648966558 1.1490666547344983 0 0.96418142638056925 1 I I 0 1 1.5 forward I I I I #
face $-1 $105 $106 $37 $-1 $107 forward single #
loop $-1 $108 $109 $48 #
cone-surface $-1 -68.89153492686016 -0.24109570765312327 4.2245063555686135 0.64278761758704617 0 -0.76604443648966558 1.1490666547344983 0 0.96418142638056925 1 I I 0 1 1.5 forward I I I I #
face $-1 $110 $111 $38 $-1 $112 reversed single #
loop $-1 $-1 $113 $49 #
plane-surface $-1 -74.363841669972828 -4.0352905092826816 3.009566097939171 -0.64278761758704617 0 0.76604443648966558 0.76604443648966558 0 0.64278761758704617 forward_v I I I I #
face $-1 $114 $115 $39 $-1 $116 forward single #
loop $-1 $117 $118 $50 #
cone-surface $-1 -68.89153492686016 9.876757096692323 4.2245063555686135 0.64278761758704617 0 -0.76604443648966558 1.1490666547344983 0 0.96418142638056925 1 I I 0 1 1.5 forward I I I I #
face $-1 $119 $120 $40 $-1 $121 forward single #
loop $-1 $122 $123 $51 #
cone-surface $-1 -68.89153492686016 17.465146699951418 4.2245063555686135 0.64278761758704617 0 -0.76604443648966558 1.1490666547344983 0 0.96418142638056925 1 I I 0 1 1.5 forward I I I I #
face $-1 $124 $125 $41 $-1 $126 reversed single #
loop $-1 $-1 $127 $52 #
plane-surface $-1 128.8019551613894 28.378863959844555 206.54036799953047 0 -1 0 -0.86602541151947299 0 -0.49999998660252726 forward_v I I I I #
face $-1 $128 $129 $42 $-1 $130 forward single #
loop $-1 $131 $132 $53 #
cone-surface $-1 71.60669148497891 17.826888173907179 5.8014865317636941 -0.86602541151947299 0 -0.49999998660252726 0.49999998660252726 0 -0.86602541151947299 1 I I 0 1 1 forward I I I I #
face $-1 $133 $134 $43 $-1 $135 forward single #
loop $-1 $136 $137 $54 #
cone-surface $-1 71.60669148497891 24.158073645469607 5.8014865317636941 -0.86602541151947299 0 -0.49999998660252726 0.49999998660252726 0 -0.86602541151947299 1 I I 0 1 1 forward I I I I #
face $-1 $138 $139 $33 $-1 $140 reversed single #
loop $-1 $-1 $141 $55 #
plane-surface $-1 0 0 9.4027043456156942 0 0 1 1 0 0 forward_v I I I I #
coedge $-1 $142 $143 $144 $145 reversed $56 $-1 #
face $-1 $146 $147 $34 $-1 $148 reversed single #
loop $-1 $-1 $149 $58 #
plane-surface $-1 0 0 -9.4027043456156942 0 0 1 1 0 0 forward_v I I I I #
coedge $-1 $150 $151 $152 $153 forward $59 $-1 #
face $-1 $154 $155 $35 $-1 $156 reversed single #
loop $-1 $-1 $157 $61 #
plane-surface $-1 -74.363841669972828 -4.0352905092826816 3.009566097939171 -0.64278761758704617 0 0.76604443648966558 0.76604443648966558 0 0.64278761758704617 forward_v I I I I #
coedge $-1 $158 $159 $160 $161 reversed $62 $-1 #
face $-1 $-1 $162 $36 $-1 $163 forward single #
loop $-1 $164 $165 $64 #
cone-surface $-1 -66.746660128076854 -7.8294853109122187 1.668344161992545 0.64278761758704617 0 -0.76604443648966558 0.57453332736724916 0 0.48209071319028463 1 I I -0.70710678118654757 0.70710678118654757 0.75 forward I I I I #
loop $-1 $-1 $166 $47 #
coedge $-1 $104 $104 $167 $168 reversed $65 $-1 #
face $-1 $-1 $169 $37 $-1 $170 forward single #
loop $-1 $171 $172 $67 #
cone-surface $-1 -66.746660128076854 -0.24109570765312327 1.668344161992545 0.64278761758704617 0 -0.76604443648966558 0.57453332736724916 0 0.48209071319028463 1 I I -0.70710678118654757 0.70710678118654757 0.75 forward I I I I #
loop $-1 $-1 $173 $48 #
coedge $-1 $109 $109 $174 $175 reversed $68 $-1 #
face $-1 $176 $177 $38 $-1 $178 forward single #
loop $-1 $-1 $179 $70 #
plane-surface $-1 -169.96415491329714 22.524073102124131 116.94158047250129 0 -1 0 0.64278761758704617 0 -0.76604443648966558 forward_v I I I I #
coedge $-1 $180 $181 $182 $183 reversed $71 $-1 #
face $-1 $-1 $184 $39 $-1 $185 forward single #
loop $-1 $186 $187 $73 #
cone-surface $-1 -66.746660128076854 9.876757096692323 1.668344161992545 0.64278761758704617 0 -0.76604443648966558 0.57453332736724916 0 0.48209071319028463 1 I I -0.70710678118654757 0.70710678118654757 0.75 forward I I I I #
loop $-1 $-1 $188 $50 #
coedge $-1 $118 $118 $189 $190 reversed $74 $-1 #
face $-1 $-1 $191 $40 $-1 $192 forward single #
loop $-1 $193 $194 $76 #
cone-surface $-1 -66.746660128076854 17.465146699951418 1.668344161992545 0.64278761758704617 0 -0.76604443648966558 0.57453332736724916 0 0.48209071319028463 1 I I -0.70710678118654757 0.70710678118654757 0.75 forward I I I I #
loop $-1 $-1 $195 $51 #
coedge $-1 $123 $123 $196 $197 reversed $77 $-1 #
face $-1 $198 $199 $41 $-1 $200 reversed single #
loop $-1 $-1 $201 $79 #
plane-surface $-1 1.9925750507354678e-006 20.992480909688389 132.1765283221327 0.86602541151947299 0 0.49999998660252726 0.49999998660252726 0 -0.86602541151947299 forward_v I I I I #
coedge $-1 $202 $203 $204 $205 reversed $80 $-1 #
face $-1 $-1 $206 $42 $-1 $207 forward single #
loop $-1 $208 $209 $82 #
cone-surface $-1 70.156699537996232 17.826888173907179 4.9643333207590903 -0.86602541151947299 0 -0.49999998660252726 0.24999999330126363 0 -0.43301270575973649 1 I I -0.70710678118654746 0.70710678118654746 0.5 forward I I I I #
loop $-1 $-1 $210 $53 #
coedge $-1 $132 $132 $211 $212 reversed $83 $-1 #
face $-1 $-1 $213 $43 $-1 $214 forward single #
loop $-1 $215 $216 $85 #
cone-surface $-1 70.156699537996232 24.158073645469607 4.9643333207590903 -0.86602541151947299 0 -0.49999998660252726 0.24999999330126363 0 -0.43301270575973649 1 I I -0.70710678118654746 0.70710678118654746 0.5 forward I I I I #
loop $-1 $-1 $217 $54 #
coedge $-1 $137 $137 $218 $219 reversed $86 $-1 #
face $-1 $220 $221 $33 $-1 $222 reversed single #
loop $-1 $-1 $223 $88 #
plane-surface $-1 0 0 -9.4027043456156942 0 0 1 1 0 0 forward_v I I I I #
coedge $-1 $224 $225 $226 $227 forward $89 $-1 #
coedge $-1 $228 $91 $229 $230 reversed $56 $-1 #
coedge $-1 $91 $228 $231 $232 forward $56 $-1 #
coedge $-1 $233 $223 $91 $145 forward $139 $-1 #
edge $-1 $234 -74.363841669972842 $235 74.363841669972842 $91 $236 forward 7 unknown #
face $-1 $237 $238 $34 $-1 $239 reversed single #
loop $-1 $-1 $240 $92 #
plane-surface $-1 -64.080004172227831 -52.736596337598904 0 0 1 0 0 0 1 forward_v I I I I #
coedge $-1 $241 $242 $151 $243 forward $93 $-1 #
coedge $-1 $244 $95 $245 $246 reversed $59 $-1 #
coedge $-1 $95 $244 $149 $243 reversed $59 $-1 #
coedge $-1 $247 $248 $95 $153 reversed $238 $-1 #
edge $-1 $249 -9.4027043456156942 $250 9.4027043456156942 $152 $251 forward 7 unknown #
face $-1 $252 $253 $35 $-1 $254 reversed single #
loop $-1 $-1 $255 $96 #
plane-surface $-1 -169.96415491329714 4.8178306945195892 116.94158047250129 0 -1 0 0.64278761758704617 0 -0.76604443648966558 forward_v I I I I #
coedge $-1 $256 $257 $258 $259 reversed $97 $-1 #
coedge $-1 $159 $99 $260 $261 reversed $62 $-1 #
coedge $-1 $99 $158 $256 $262 reversed $62 $-1 #
coedge $-1 $258 $263 $99 $161 forward $264 $-1 #
edge $-1 $265 10.618235786675726 $266 18.237281101715098 $160 $267 forward 7 unknown #
loop $-1 $-1 $167 $100 #
plane-surface $-1 -74.363841669972828 -4.0352905092826816 3.009566097939171 -0.64278761758704617 0 0.76604443648966558 0.76604443648966558 0 0.64278761758704617 forward_v I I I I #
loop $-1 $-1 $268 $64 #
coedge $-1 $165 $165 $166 $269 reversed $101 $-1 #
coedge $-1 $166 $166 $165 $269 forward $103 $-1 #
coedge $-1 $167 $167 $104 $168 forward $162 $-1 #
edge $-1 $270 0 $270 6.2831853071796004 $167 $271 forward 7 unknown #
loop $-1 $-1 $174 $105 #
plane-surface $-1 -74.363841669972828 -4.0352905092826816 3.009566097939171 -0.64278761758704617 0 0.76604443648966558 0.76604443648966558 0 0.64278761758704617 forward_v I I I I #
loop $-1 $-1 $272 $67 #
coedge $-1 $172 $172 $173 $273 reversed $106 $-1 #
coedge $-1 $173 $173 $172 $273 forward $108 $-1 #
coedge $-1 $174 $174 $109 $175 forward $169 $-1 #
edge $-1 $274 0 $274 6.2831853071796004 $174 $275 forward 7 unknown #
face $-1 $276 $277 $38 $-1 $278 forward single #
loop $-1 $-1 $279 $110 #
plane-surface $-1 0 0 9.4027043456156942 0 0 1 1 0 0 forward_v I I I I #
coedge $-1 $280 $281 $282 $283 reversed $111 $-1 #
coedge $-1 $284 $113 $285 $286 reversed $71 $-1 #
coedge $-1 $113 $284 $279 $287 reversed $71 $-1 #
coedge $-1 $288 $289 $113 $183 forward $277 $-1 #
edge $-1 $290 -1.8593432412625586e-014 $291 9.9459573780771677 $182 $292 forward 7 unknown #
loop $-1 $-1 $189 $114 #
plane-surface $-1 -74.363841669972828 -4.0352905092826816 3.009566097939171 -0.64278761758704617 0 0.76604443648966558 0.76604443648966558 0 0.64278761758704617 forward_v I I I I #
loop $-1 $-1 $293 $73 #
coedge $-1 $187 $187 $188 $294 reversed $115 $-1 #
coedge $-1 $188 $188 $187 $294 forward $117 $-1 #
coedge $-1 $189 $189 $118 $190 forward $184 $-1 #
edge $-1 $295 0 $295 6.2831853071796004 $189 $296 forward 7 unknown #
loop $-1 $-1 $196 $119 #
plane-surface $-1 -74.363841669972828 -4.0352905092826816 3.009566097939171 -0.64278761758704617 0 0.76604443648966558 0.76604443648966558 0 0.64278761758704617 forward_v I I I I #
loop $-1 $-1 $297 $76 #
coedge $-1 $194 $194 $195 $298 reversed $120 $-1 #
coedge $-1 $195 $195 $194 $298 forward $122 $-1 #
coedge $-1 $196 $196 $123 $197 forward $191 $-1 #
edge $-1 $299 0 $299 6.2831853071796004 $196 $300 forward 7 unknown #
face $-1 $301 $302 $41 $-1 $303 forward single #
loop $-1 $-1 $304 $124 #
plane-surface $-1 128.8019551613894 13.606097859532223 206.54036799953047 0 1 0 0.86602541151947299 0 0.49999998660252726 forward_v I I I I #
coedge $-1 $305 $306 $307 $308 reversed $125 $-1 #
coedge $-1 $203 $127 $309 $310 reversed $80 $-1 #
coedge $-1 $127 $202 $305 $311 reversed $80 $-1 #
coedge $-1 $307 $312 $127 $205 forward $302 $-1 #
edge $-1 $313 -9.9628640892781419 $314 -6.4825222017361739 $204 $315 forward 7 unknown #
loop $-1 $-1 $211 $128 #
plane-surface $-1 1.9925750507354678e-006 20.992480909688389 132.1765283221327 0.86602541151947299 0 0.49999998660252726 0.49999998660252726 0 -0.86602541151947299 forward_v I I I I #
loop $-1 $-1 $316 $82 #
coedge $-1 $209 $209 $210 $317 reversed $129 $-1 #
coedge $-1 $210 $210 $209 $317 forward $131 $-1 #
coedge $-1 $211 $211 $132 $212 forward $206 $-1 #
edge $-1 $318 0 $318 6.2831853071796004 $211 $319 forward 7 unknown #
loop $-1 $-1 $218 $133 #
plane-surface $-1 1.9925750507354678e-006 20.992480909688389 132.1765283221327 0.86602541151947299 0 0.49999998660252726 0.49999998660252726 0 -0.86602541151947299 forward_v I I I I #
loop $-1 $-1 $320 $85 #
coedge $-1 $216 $216 $217 $321 reversed $134 $-1 #
coedge $-1 $217 $217 $216 $321 forward $136 $-1 #
coedge $-1 $218 $218 $137 $219 forward $213 $-1 #
edge $-1 $322 0 $322 6.2831853071796004 $218 $323 forward 7 unknown #
face $-1 $324 $325 $33 $-1 $326 reversed single #
loop $-1 $-1 $327 $138 #
plane-surface $-1 -74.363841669972842 0 0 1 0 0 0 0 -1 forward_v I I I I #
coedge $-1 $144 $328 $329 $330 forward $139 $-1 #
coedge $-1 $331 $141 $332 $333 forward $89 $-1 #
coedge $-1 $141 $331 $228 $334 forward $89 $-1 #
coedge $-1 $229 $335 $141 $227 reversed $336 $-1 #
edge $-1 $337 -43.100934948559718 $338 43.100934948559718 $226 $339 forward 7 unknown #
coedge $-1 $143 $142 $225 $334 reversed $56 $-1 #
coedge $-1 $329 $226 $142 $230 forward $336 $-1 #
edge $-1 $337 -9.4027043456156942 $234 9.4027043456156942 $229 $340 forward 7 unknown #
coedge $-1 $341 $342 $143 $232 reversed $221 $-1 #
edge $-1 $343 -9.4027043456156942 $235 9.4027043456156942 $231 $344 forward 7 unknown #
coedge $-1 $328 $144 $342 $345 forward $139 $-1 #
vertex $-1 $230 $346 #
vertex $-1 $345 $347 #
straight-curve $-1 0 -43.100934948559718 -9.4027043456156942 -1 0 0 I I #
face $-1 $348 $349 $34 $-1 $350 reversed single #
loop $-1 $-1 $152 $146 #
plane-surface $-1 -65.997074606559778 -47.918765643079311 0 1 0 0 0 0 -1 forward_v I I I I #
coedge $-1 $351 $352 $353 $354 forward $147 $-1 #
coedge $-1 $355 $149 $356 $357 forward $93 $-1 #
coedge $-1 $149 $355 $247 $358 forward $93 $-1 #
edge $-1 $249 -65.997074606559778 $359 -62.162933737895891 $149 $360 forward 7 unknown #
coedge $-1 $151 $150 $361 $362 forward $59 $-1 #
coedge $-1 $363 $364 $150 $246 forward $365 $-1 #
edge $-1 $366 62.162933737895891 $250 65.997074606559778 $245 $367 forward 7 unknown #
coedge $-1 $353 $152 $242 $358 reversed $238 $-1 #
coedge $-1 $152 $353 $363 $368 reversed $238 $-1 #
vertex $-1 $243 $369 #
vertex $-1 $368 $370 #
straight-curve $-1 -65.997074606559778 -43.100934948559718 0 0 0 1 I I #
face $-1 $-1 $264 $35 $-1 $371 forward single #
loop $-1 $-1 $372 $154 #
plane-surface $-1 -74.363841669972842 0 0 1 0 0 0 0 -1 forward_v I I I I #
coedge $-1 $373 $374 $375 $376 reversed $155 $-1 #
coedge $-1 $377 $157 $159 $262 forward $97 $-1 #
coedge $-1 $157 $377 $373 $378 forward $97 $-1 #
coedge $-1 $375 $160 $157 $259 forward $264 $-1 #
edge $-1 $266 -10.870766458443612 $379 6.83547594916093 $258 $380 forward 7 unknown #
coedge $-1 $381 $382 $158 $261 forward $253 $-1 #
edge $-1 $383 -55.461224138311486 $265 -49.068085890634947 $260 $384 forward 7 unknown #
edge $-1 $266 -9.9459573780771677 $383 1.8593432412625586e-014 $159 $385 forward 7 unknown #
coedge $-1 $160 $375 $381 $386 forward $264 $-1 #
loop $-1 $-1 $375 $252 #
vertex $-1 $261 $387 #
vertex $-1 $161 $388 #
straight-curve $-1 -84.982077456648568 -12.888411713084952 9.402704345615696 1 0 0 I I #
coedge $-1 $268 $268 $-1 $389 reversed $164 $-1 #
edge $-1 $390 0 $390 6.2831853071796004 $165 $391 forward 7 unknown #
vertex $-1 $168 $392 #
ellipse-curve $-1 -70.554319012453163 -7.8294853109122187 6.2061352217774202 -0.64278761758704617 0 0.76604443648966558 1.1490666547344983 0 0.96418142638056925 1 I I #
coedge $-1 $272 $272 $-1 $393 reversed $171 $-1 #
edge $-1 $394 0 $394 6.2831853071796004 $172 $395 forward 7 unknown #
vertex $-1 $175 $396 #
ellipse-curve $-1 -70.554319012453163 -0.24109570765312327 6.2061352217774202 -0.64278761758704617 0 0.76604443648966558 1.1490666547344983 0 0.96418142638056925 1 I I #
face $-1 $-1 $397 $38 $-1 $398 reversed single #
loop $-1 $-1 $288 $176 #
plane-surface $-1 -169.96415491329714 4.8178306945195892 116.94158047250129 0 -1 0 0.64278761758704617 0 -0.76604443648966558 forward_v I I I I #
coedge $-1 $282 $399 $181 $287 forward $177 $-1 #
coedge $-1 $281 $179 $284 $400 reversed $111 $-1 #
coedge $-1 $179 $280 $401 $402 reversed $111 $-1 #
coedge $-1 $403 $279 $179 $283 forward $177 $-1 #
edge $-1 $404 -18.237281101715098 $405 -10.618235786675726 $282 $406 forward 7 unknown #
coedge $-1 $181 $180 $280 $400 forward $71 $-1 #
coedge $-1 $407 $401 $180 $286 forward $397 $-1 #
edge $-1 $408 -24.541718356765472 $290 -6.83547594916093 $285 $409 forward 7 unknown #
edge $-1 $291 6.83547594916093 $404 24.541718356765472 $279 $410 forward 7 unknown #
coedge $-1 $289 $182 $399 $411 reversed $277 $-1 #
coedge $-1 $182 $288 $407 $412 reversed $277 $-1 #
vertex $-1 $286 $413 #
vertex $-1 $287 $414 #
straight-curve $-1 -74.363841669972828 4.8178306945195892 3.009566097939171 0.76604443648966558 0 0.64278761758704617 I I #
coedge $-1 $293 $293 $-1 $415 reversed $186 $-1 #
edge $-1 $416 0 $416 6.2831853071796004 $187 $417 forward 7 unknown #
vertex $-1 $190 $418 #
ellipse-curve $-1 -70.554319012453163 9.876757096692323 6.2061352217774202 -0.64278761758704617 0 0.76604443648966558 1.1490666547344983 0 0.96418142638056925 1 I I #
coedge $-1 $297 $297 $-1 $419 reversed $193 $-1 #
edge $-1 $420 0 $420 6.2831853071796004 $194 $421 forward 7 unknown #
vertex $-1 $197 $422 #
ellipse-curve $-1 -70.554319012453163 17.465146699951418 6.2061352217774202 -0.64278761758704617 0 0.76604443648966558 1.1490666547344983 0 0.96418142638056925 1 I I #
face $-1 $-1 $423 $41 $-1 $424 reversed single #
loop $-1 $-1 $204 $198 #
plane-surface $-1 0 0 9.4027043456156942 0 0 1 1 0 0 forward_v I I I I #
coedge $-1 $425 $426 $427 $428 reversed $199 $-1 #
coedge $-1 $429 $201 $203 $311 forward $125 $-1 #
coedge $-1 $201 $429 $425 $430 forward $125 $-1 #
coedge $-1 $427 $204 $201 $308 forward $302 $-1 #
edge $-1 $314 -17.88262350500036 $431 -3.1098574046880287 $307 $432 forward 7 unknown #
coedge $-1 $433 $434 $202 $310 forward $423 $-1 #
edge $-1 $435 -99.895608846446919 $313 -93.867479654149548 $309 $436 forward 7 unknown #
edge $-1 $314 141.76699937835068 $435 148.72768333994574 $203 $437 forward 7 unknown #
coedge $-1 $204 $427 $433 $438 forward $302 $-1 #
vertex $-1 $205 $439 #
vertex $-1 $205 $440 #
straight-curve $-1 64.4009775806947 28.378863959844555 9.4027043456156889 -1 0 0 I I #
coedge $-1 $316 $316 $-1 $441 reversed $208 $-1 #
edge $-1 $442 0 $442 6.2831853071796004 $209 $443 forward 7 unknown #
vertex $-1 $212 $444 #
ellipse-curve $-1 72.623670726201837 17.826888173907179 6.3886397494670284 0.86602541151947299 0 0.49999998660252726 0.49999998660252726 0 -0.86602541151947299 1 I I #
coedge $-1 $320 $320 $-1 $445 reversed $215 $-1 #
edge $-1 $446 0 $446 6.2831853071796004 $216 $447 forward 7 unknown #
vertex $-1 $219 $448 #
ellipse-curve $-1 72.623670726201837 24.158073645469607 6.3886397494670284 0.86602541151947299 0 0.49999998660252726 0.49999998660252726 0 -0.86602541151947299 1 I I #
face $-1 $-1 $336 $33 $-1 $449 reversed single #
loop $-1 $-1 $450 $220 #
plane-surface $-1 0 43.100934948559718 0 0 -1 0 0 0 -1 forward_v I I I I #
coedge $-1 $342 $341 $451 $452 forward $221 $-1 #
coedge $-1 $223 $233 $453 $454 forward $139 $-1 #
coedge $-1 $335 $229 $223 $330 reversed $336 $-1 #
edge $-1 $455 -43.100934948559718 $234 43.100934948559718 $329 $456 forward 7 unknown #
coedge $-1 $225 $224 $341 $457 forward $89 $-1 #
coedge $-1 $450 $451 $224 $333 reversed $325 $-1 #
edge $-1 $338 -74.363841669972842 $458 74.363841669972842 $332 $459 forward 7 unknown #
edge $-1 $343 -74.363841669972842 $337 74.363841669972842 $228 $460 forward 7 unknown #
coedge $-1 $226 $329 $450 $461 reversed $336 $-1 #
loop $-1 $-1 $229 $324 #
vertex $-1 $227 $462 #
vertex $-1 $227 $463 #
straight-curve $-1 74.363841669972842 0 9.4027043456156942 0 1 0 I I #
straight-curve $-1 74.363841669972842 -43.100934948559718 0 0 0 -1 I I #
coedge $-1 $327 $231 $331 $457 reversed $221 $-1 #
coedge $-1 $231 $327 $233 $345 reversed $221 $-1 #
vertex $-1 $457 $464 #
straight-curve $-1 -74.363841669972842 -43.100934948559718 0 0 0 -1 I I #
edge $-1 $235 -43.100934948559718 $465 43.100934948559718 $342 $466 forward 7 unknown #
point $-1 74.363841669972842 -43.100934948559718 -9.4027043456156942 #
point $-1 -74.363841669972842 -43.100934948559718 -9.4027043456156942 #
face $-1 $-1 $365 $34 $-1 $467 forward single #
loop $-1 $-1 $468 $237 #
plane-surface $-1 -62.162933737895891 -47.918765643079311 0 -1 0 0 0 0 1 forward_v I I I I #
coedge $-1 $469 $240 $355 $470 reversed $147 $-1 #
coedge $-1 $240 $469 $471 $472 reversed $147 $-1 #
coedge $-1 $248 $247 $240 $354 reversed $238 $-1 #
edge $-1 $473 -9.4027043456156942 $474 9.4027043456156942 $353 $475 forward 7 unknown #
coedge $-1 $242 $241 $351 $470 forward $93 $-1 #
coedge $-1 $361 $468 $241 $357 reversed $349 $-1 #
edge $-1 $359 -4.8178306945195928 $476 4.8178306945195928 $356 $477 forward 7 unknown #
edge $-1 $474 -4.8178306945195928 $249 4.8178306945195928 $247 $478 forward 7 unknown #
vertex $-1 $357 $479 #
straight-curve $-1 0 -43.100934948559718 -9.4027043456156942 1 0 0 I I #
coedge $-1 $480 $356 $244 $362 reversed $349 $-1 #
edge $-1 $366 -9.4027043456156942 $359 9.4027043456156942 $361 $481 forward 7 unknown #
coedge $-1 $471 $245 $248 $368 forward $365 $-1 #
coedge $-1 $245 $471 $480 $482 forward $365 $-1 #
loop $-1 $-1 $245 $348 #
vertex $-1 $246 $483 #
straight-curve $-1 0 -43.100934948559718 9.4027043456156942 -1 0 0 I I #
edge $-1 $250 -4.8178306945195928 $473 4.8178306945195928 $248 $484 forward 7 unknown #
point $-1 -65.997074606559778 -43.100934948559718 -9.4027043456156942 #
point $-1 -65.997074606559778 -43.100934948559718 9.4027043456156942 #
plane-surface $-1 0 0 9.4027043456156942 0 0 1 1 0 0 forward_v I I I I #
coedge $-1 $382 $381 $374 $485 forward $253 $-1 #
coedge $-1 $374 $255 $257 $378 reversed $155 $-1 #
coedge $-1 $255 $373 $372 $485 reversed $155 $-1 #
coedge $-1 $263 $258 $255 $376 forward $264 $-1 #
edge $-1 $379 -18.237281101715098 $486 -10.618235786675726 $375 $487 forward 7 unknown #
coedge $-1 $257 $256 $382 $488 reversed $97 $-1 #
edge $-1 $489 -1.8593432412625586e-014 $379 9.9459573780771677 $373 $490 forward 7 unknown #
vertex $-1 $259 $491 #
straight-curve $-1 -66.74479635493347 -2.0176452546413408 9.402704345615696 0 1 0 I I #
coedge $-1 $372 $260 $263 $386 reversed $253 $-1 #
coedge $-1 $260 $372 $377 $488 forward $253 $-1 #
vertex $-1 $261 $492 #
straight-curve $-1 -74.363841669972842 -12.888411713084952 58.470790236250643 0 0 1 I I #
straight-curve $-1 -74.363841669972828 -12.888411713084952 3.009566097939171 -0.76604443648966558 0 -0.64278761758704617 I I #
edge $-1 $486 -4.8178306945195892 $265 12.888411713084952 $381 $493 forward 7 unknown #
point $-1 -74.363841669972842 -12.888411713084952 9.4027043456156942 #
point $-1 -66.74479635493347 -12.888411713084952 9.4027043456156942 #
edge $-1 $494 1 $494 0 $268 $-1 forward 7 unknown #
vertex $-1 $269 $495 #
ellipse-curve $-1 -67.228750841267143 -7.8294853109122187 2.242877489359794 -0.64278761758704617 0 0.76604443648966558 1.1490666547344983 0 0.96418142638056925 1 I I #
point $-1 -69.40525235771868 -7.8294853109122187 7.1703166481580025 #
edge $-1 $496 1 $496 0 $272 $-1 forward 7 unknown #
vertex $-1 $273 $497 #
ellipse-curve $-1 -67.228750841267143 -0.24109570765312327 2.242877489359794 -0.64278761758704617 0 0.76604443648966558 1.1490666547344983 0 0.96418142638056925 1 I I #
point $-1 -69.40525235771868 -0.24109570765312327 7.1703166481580025 #
loop $-1 $-1 $285 $276 #
plane-surface $-1 -74.363841669972842 0 0 1 0 0 0 0 -1 forward_v I I I I #
coedge $-1 $279 $403 $288 $411 forward $177 $-1 #
edge $-1 $408 -1.8593432412625586e-014 $404 9.9459573780771677 $280 $498 forward 7 unknown #
coedge $-1 $285 $499 $281 $402 forward $397 $-1 #
edge $-1 $405 49.068085890634947 $408 55.461224138311486 $401 $500 forward 7 unknown #
coedge $-1 $399 $282 $499 $501 forward $177 $-1 #
vertex $-1 $283 $502 #
vertex $-1 $501 $503 #
straight-curve $-1 -84.982077456648568 22.524073102124131 9.402704345615696 -1 0 0 I I #
coedge $-1 $499 $285 $289 $412 forward $397 $-1 #
vertex $-1 $402 $504 #
straight-curve $-1 -74.363841669972842 -2.0176452546413408 3.0095660979391505 0 -1 0 I I #
straight-curve $-1 -66.74479635493347 -2.0176452546413408 9.402704345615696 0 1 0 I I #
edge $-1 $505 10.618235786675726 $291 18.237281101715098 $399 $506 forward 7 unknown #
edge $-1 $290 -55.461224138311486 $505 -49.068085890634947 $407 $507 forward 7 unknown #
point $-1 -74.363841669972842 4.8178306945195892 3.009566097939159 #
point $-1 -66.74479635493347 4.8178306945195892 9.4027043456156942 #
edge $-1 $508 1 $508 0 $293 $-1 forward 7 unknown #
vertex $-1 $294 $509 #
ellipse-curve $-1 -67.228750841267143 9.876757096692323 2.242877489359794 -0.64278761758704617 0 0.76604443648966558 1.1490666547344983 0 0.96418142638056925 1 I I #
point $-1 -69.40525235771868 9.876757096692323 7.1703166481580025 #
edge $-1 $510 1 $510 0 $297 $-1 forward 7 unknown #
vertex $-1 $298 $511 #
ellipse-curve $-1 -67.228750841267143 17.465146699951418 2.242877489359794 -0.64278761758704617 0 0.76604443648966558 1.1490666547344983 0 0.96418142638056925 1 I I #
point $-1 -69.40525235771868 17.465146699951418 7.1703166481580025 #
loop $-1 $-1 $309 $301 #
plane-surface $-1 74.363841669972842 0 0 -1 0 0 0 0 1 forward_v I I I I #
coedge $-1 $426 $304 $306 $430 reversed $199 $-1 #
coedge $-1 $304 $425 $512 $513 reversed $199 $-1 #
coedge $-1 $312 $307 $304 $428 forward $302 $-1 #
edge $-1 $431 6.4825222017361739 $514 9.9628640892781419 $427 $515 forward 7 unknown #
coedge $-1 $306 $305 $434 $516 reversed $125 $-1 #
edge $-1 $517 -148.72768333994574 $431 -141.76699937835068 $425 $518 forward 7 unknown #
vertex $-1 $308 $519 #
straight-curve $-1 70.883499782430874 10.496240454844195 9.4027043456156889 0 -1 0 I I #
coedge $-1 $512 $309 $312 $438 reversed $423 $-1 #
coedge $-1 $309 $512 $429 $516 forward $423 $-1 #
vertex $-1 $310 $520 #
straight-curve $-1 74.363841669972842 28.378863959844555 103.27018399976524 0 0 1 I I #
straight-curve $-1 1.9925750507354678e-006 28.378863959844555 132.1765283221327 0.49999998660252726 0 -0.86602541151947299 I I #
edge $-1 $514 13.606097859532223 $313 28.378863959844555 $433 $521 forward 7 unknown #
point $-1 74.363841669972842 28.378863959844555 9.4027043456156942 #
point $-1 70.883499782430874 28.378863959844555 9.4027043456156889 #
edge $-1 $522 1 $522 0 $316 $-1 forward 7 unknown #
vertex $-1 $317 $523 #
ellipse-curve $-1 70.589712243755969 17.826888173907179 5.2143333140603536 0.86602541151947299 0 0.49999998660252726 0.49999998660252726 0 -0.86602541151947299 1 I I #
point $-1 73.123670712804369 17.826888173907179 5.5226143379475614 #
edge $-1 $524 1 $524 0 $320 $-1 forward 7 unknown #
vertex $-1 $321 $525 #
ellipse-curve $-1 70.589712243755969 24.158073645469607 5.2143333140603536 0.86602541151947299 0 0.49999998660252726 0.49999998660252726 0 -0.86602541151947299 1 I I #
point $-1 73.123670712804369 24.158073645469607 5.5226143379475614 #
plane-surface $-1 74.363841669972842 0 0 -1 0 0 0 0 1 forward_v I I I I #
coedge $-1 $453 $332 $335 $461 forward $325 $-1 #
coedge $-1 $332 $453 $327 $452 reversed $325 $-1 #
edge $-1 $458 -9.4027043456156942 $465 9.4027043456156942 $451 $526 forward 7 unknown #
coedge $-1 $451 $450 $328 $454 reversed $325 $-1 #
edge $-1 $465 -74.363841669972842 $455 74.363841669972842 $453 $527 forward 7 unknown #
vertex $-1 $330 $528 #
straight-curve $-1 74.363841669972842 0 -9.4027043456156942 0 -1 0 I I #
edge $-1 $458 -43.100934948559718 $343 43.100934948559718 $341 $529 forward 7 unknown #
vertex $-1 $333 $530 #
straight-curve $-1 0 43.100934948559718 9.4027043456156942 -1 0 0 I I #
straight-curve $-1 0 -43.100934948559718 9.4027043456156942 1 0 0 I I #
edge $-1 $338 -9.4027043456156942 $455 9.4027043456156942 $335 $531 forward 7 unknown #
point $-1 74.363841669972842 -43.100934948559718 9.4027043456156942 #
point $-1 74.363841669972842 43.100934948559718 9.4027043456156942 #
point $-1 -74.363841669972842 -43.100934948559718 9.4027043456156942 #
vertex $-1 $454 $532 #
straight-curve $-1 -74.363841669972842 0 -9.4027043456156942 0 1 0 I I #
plane-surface $-1 0 0 9.4027043456156942 0 0 1 1 0 0 forward_v I I I I #
coedge $-1 $356 $480 $469 $533 forward $349 $-1 #
coedge $-1 $352 $351 $468 $533 reversed $147 $-1 #
edge $-1 $476 -1.91707043433194 $474 1.9170704343319471 $351 $534 forward 7 unknown #
coedge $-1 $364 $363 $352 $472 forward $365 $-1 #
edge $-1 $473 -1.9170704343319471 $535 1.91707043433194 $352 $536 forward 7 unknown #
vertex $-1 $368 $537 #
vertex $-1 $358 $538 #
straight-curve $-1 -65.997074606559778 -52.736596337598904 0 0 0 -1 I I #
vertex $-1 $533 $539 #
straight-curve $-1 -62.162933737895891 -47.918765643079311 -9.4027043456156942 0 -1 0 I I #
straight-curve $-1 -65.997074606559778 -47.918765643079311 -9.4027043456156942 0 1 0 I I #
point $-1 -62.162933737895891 -43.100934948559718 -9.4027043456156942 #
coedge $-1 $468 $361 $364 $482 reversed $349 $-1 #
straight-curve $-1 -62.162933737895891 -43.100934948559718 0 0 0 -1 I I #
edge $-1 $535 -4.8178306945195928 $366 4.8178306945195928 $480 $540 forward 7 unknown #
point $-1 -62.162933737895891 -43.100934948559718 9.4027043456156942 #
straight-curve $-1 -65.997074606559778 -47.918765643079311 9.4027043456156942 0 -1 0 I I #
edge $-1 $486 49.068085890634947 $489 55.461224138311486 $372 $541 forward 7 unknown #
vertex $-1 $386 $542 #
straight-curve $-1 -84.982077456648568 4.8178306945195892 9.402704345615696 -1 0 0 I I #
edge $-1 $489 -6.83547594916093 $383 10.870766458443612 $382 $543 forward 7 unknown #
vertex $-1 $488 $544 #
straight-curve $-1 -74.363841669972828 4.8178306945195892 3.009566097939171 0.76604443648966558 0 0.64278761758704617 I I #
point $-1 -66.74479635493347 4.8178306945195892 9.4027043456156942 #
point $-1 -74.363841669972842 -12.888411713084952 3.009566097939159 #
straight-curve $-1 -74.363841669972842 0 9.4027043456156942 0 -1 0 I I #
vertex $-1 $389 $545 #
point $-1 -66.079684186532646 -7.8294853109122187 3.2070589157403635 #
vertex $-1 $393 $546 #
point $-1 -66.079684186532646 -0.24109570765312327 3.2070589157403635 #
straight-curve $-1 -74.363841669972828 22.524073102124131 3.009566097939171 0.76604443648966558 0 0.64278761758704617 I I #
coedge $-1 $401 $407 $403 $501 reversed $397 $-1 #
straight-curve $-1 -74.363841669972842 22.524073102124131 58.470790236250643 0 0 -1 I I #
edge $-1 $405 -22.524073102124131 $505 -4.8178306945195892 $499 $547 forward 7 unknown #
point $-1 -66.74479635493347 22.524073102124131 9.4027043456156942 #
point $-1 -74.363841669972842 22.524073102124131 9.4027043456156942 #
point $-1 -74.363841669972842 22.524073102124131 3.009566097939159 #
vertex $-1 $412 $548 #
straight-curve $-1 -84.982077456648568 4.8178306945195892 9.402704345615696 1 0 0 I I #
straight-curve $-1 -74.363841669972842 4.8178306945195892 58.470790236250643 0 0 1 I I #
vertex $-1 $415 $549 #
point $-1 -66.079684186532646 9.876757096692323 3.2070589157403635 #
vertex $-1 $419 $550 #
point $-1 -66.079684186532646 17.465146699951418 3.2070589157403635 #
coedge $-1 $434 $433 $426 $513 forward $423 $-1 #
edge $-1 $514 93.867479654149548 $517 99.895608846446919 $512 $551 forward 7 unknown #
vertex $-1 $438 $552 #
straight-curve $-1 64.4009775806947 13.606097859532223 9.4027043456156889 1 0 0 I I #
edge $-1 $517 3.1098574046880287 $435 17.88262350500036 $434 $553 forward 7 unknown #
vertex $-1 $516 $554 #
straight-curve $-1 1.9925750507354678e-006 13.606097859532223 132.1765283221327 -0.49999998660252726 0 0.86602541151947299 I I #
point $-1 70.883499782430874 13.606097859532223 9.4027043456156889 #
point $-1 74.363841669972842 28.378863959844555 3.3745751533183181 #
straight-curve $-1 74.363841669972842 0 9.4027043456156942 0 1 0 I I #
vertex $-1 $441 $555 #
point $-1 71.089712230358501 17.826888173907179 4.3483079025408813 #
vertex $-1 $445 $556 #
point $-1 71.089712230358501 24.158073645469607 4.3483079025408813 #
straight-curve $-1 -74.363841669972842 43.100934948559718 0 0 0 -1 I I #
straight-curve $-1 0 43.100934948559718 -9.4027043456156942 1 0 0 I I #
point $-1 74.363841669972842 43.100934948559718 -9.4027043456156942 #
straight-curve $-1 -74.363841669972842 0 9.4027043456156942 0 -1 0 I I #
point $-1 -74.363841669972842 43.100934948559718 9.4027043456156942 #
straight-curve $-1 74.363841669972842 43.100934948559718 0 0 0 -1 I I #
point $-1 -74.363841669972842 43.100934948559718 -9.4027043456156942 #
edge $-1 $535 -9.4027043456156942 $476 9.4027043456156942 $468 $557 forward 7 unknown #
straight-curve $-1 -64.080004172227831 -52.736596337598904 -9.4027043456156942 -1 0 0 I I #
vertex $-1 $482 $558 #
straight-curve $-1 -64.080004172227831 -52.736596337598904 9.4027043456156942 1 0 0 I I #
point $-1 -65.997074606559778 -52.736596337598904 9.4027043456156942 #
point $-1 -65.997074606559778 -52.736596337598904 -9.4027043456156942 #
point $-1 -62.162933737895891 -52.736596337598904 -9.4027043456156942 #
straight-curve $-1 -62.162933737895891 -47.918765643079311 9.4027043456156942 0 1 0 I I #
straight-curve $-1 -74.363841669972842 4.8178306945195892 58.470790236250643 0 0 -1 I I #
point $-1 -74.363841669972842 4.8178306945195892 9.4027043456156942 #
straight-curve $-1 -74.363841669972842 -2.0176452546413408 3.0095660979391505 0 -1 0 I I #
point $-1 -74.363841669972842 4.8178306945195892 3.009566097939159 #
point $-1 -66.264569414886566 -7.8294853109122187 1.0938108346252959 #
point $-1 -66.264569414886566 -0.24109570765312327 1.0938108346252959 #
straight-curve $-1 -74.363841669972842 0 9.4027043456156942 0 -1 0 I I #
point $-1 -74.363841669972842 4.8178306945195892 9.4027043456156942 #
point $-1 -66.264569414886566 9.876757096692323 1.0938108346252959 #
point $-1 -66.264569414886566 17.465146699951418 1.0938108346252959 #
straight-curve $-1 74.363841669972842 13.606097859532223 103.27018399976524 0 0 -1 I I #
point $-1 74.363841669972842 13.606097859532223 9.4027043456156942 #
straight-curve $-1 74.363841669972857 10.496240454844195 3.3745751533183039 0 1 0 I I #
point $-1 74.363841669972842 13.606097859532223 3.3745751533183181 #
point $-1 69.723686832236496 17.826888173907179 4.714333327457827 #
point $-1 69.723686832236496 24.158073645469607 4.714333327457827 #
straight-curve $-1 -62.162933737895891 -52.736596337598904 0 0 0 -1 I I #
point $-1 -62.162933737895891 -52.736596337598904 9.4027043456156942 #
End-of-ACIS-data 