500 0 6 0           
7 Unknown 11 ACIS 5.0 NT 24 Fri Mar 26 18:46:07 1999 
-1 9.9999999999999995e-007 1e-010 
body $-1 $6 $-1 $7 #
body $-1 $8 $-1 $9 #
body $-1 $10 $-1 $11 #
body $-1 $12 $-1 $13 #
body $-1 $14 $-1 $15 #
body $-1 $16 $-1 $17 #
lump $-1 $-1 $18 $0 #
transform $-1 1 0 0 0 1 0 0 0 1 47.697988830225533 23.589884883822744 9.2174557674809332 1 rotate no_reflect no_shear #
lump $-1 $-1 $19 $1 #
transform $-1 1 0 0 0 1 0 0 0 1 47.697988830225533 23.589884883822744 9.2174557674809332 1 rotate no_reflect no_shear #
lump $-1 $-1 $20 $2 #
transform $-1 1 0 0 0 1 0 0 0 1 47.697988830225533 23.589884883822744 9.2174557674809332 1 rotate no_reflect no_shear #
lump $-1 $-1 $21 $3 #
transform $-1 1 0 0 0 1 0 0 0 1 47.697988830225533 23.589884883822744 9.2174557674809332 1 rotate no_reflect no_shear #
lump $-1 $-1 $22 $4 #
transform $-1 1 0 0 0 1 0 0 0 1 47.697988830225533 23.589884883822744 9.2174557674809332 1 rotate no_reflect no_shear #
lump $-1 $-1 $23 $5 #
transform $-1 1 0 0 0 1 0 0 0 1 47.697988830225533 23.589884883822744 9.2174557674809332 1 rotate no_reflect no_shear #
shell $-1 $-1 $-1 $24 $-1 $6 #
shell $-1 $-1 $-1 $25 $-1 $8 #
shell $-1 $-1 $-1 $26 $-1 $10 #
shell $-1 $-1 $-1 $27 $-1 $12 #
shell $-1 $-1 $-1 $28 $-1 $14 #
shell $-1 $-1 $-1 $29 $-1 $16 #
face $-1 $30 $31 $18 $-1 $32 forward single #
face $-1 $33 $34 $19 $-1 $35 forward single #
face $-1 $36 $37 $20 $-1 $38 reversed single #
face $-1 $39 $40 $21 $-1 $41 forward single #
face $-1 $42 $43 $22 $-1 $44 reversed single #
face $-1 $45 $46 $23 $-1 $47 forward single #
face $-1 $48 $49 $18 $-1 $50 reversed single #
loop $-1 $-1 $51 $24 #
plane-surface $-1 0 0 9.2174557674809332 0 0 1 1 0 0 forward_v I I I I #
face $-1 $52 $53 $19 $-1 $54 forward single #
loop $-1 $-1 $55 $25 #
plane-surface $-1 0 -23.589884883822744 0 0 1 0 0 0 1 forward_v I I I I #
face $-1 $56 $57 $20 $-1 $58 reversed single #
loop $-1 $-1 $59 $26 #
plane-surface $-1 47.697990395529082 0.89592403185391944 135.1607520804892 0 -1 0 -0.70710678939079041 0 -0.70710677298230451 forward_v I I I I #
face $-1 $60 $61 $21 $-1 $62 forward single #
loop $-1 $63 $64 $27 #
cone-surface $-1 41.368942863454429 -3.719813149862869 2.8884097394960806 -0.70710678939079041 0 -0.70710677298230451 1.414213545964609 0 -1.4142135787815808 1 I I 0 1 2 forward I I I I #
face $-1 $65 $66 $22 $-1 $67 reversed single #
loop $-1 $-1 $68 $28 #
plane-surface $-1 -123.88460489007076 -14.177666163518143 59.579924686101059 0 1 0 -0.79863551827123203 0 0.60181501223851219 forward_v I I I I #
face $-1 $69 $70 $23 $-1 $71 forward single #
loop $-1 $72 $73 $29 #
cone-surface $-1 -42.530467062333372 -10.095410994128585 3.8004732985059304 0.79863551827123203 0 -0.60181501223851219 1.2036300244770244 0 1.5972710365424641 1 I I 0 1 2 forward I I I I #
face $-1 $74 $75 $18 $-1 $76 reversed single #
loop $-1 $-1 $77 $30 #
plane-surface $-1 0 0 -9.2174557674809332 0 0 1 1 0 0 forward_v I I I I #
coedge $-1 $78 $79 $80 $81 forward $31 $-1 #
face $-1 $82 $83 $19 $-1 $84 reversed single #
loop $-1 $-1 $85 $33 #
plane-surface $-1 0 0 9.2174557674809332 0 0 1 1 0 0 forward_v I I I I #
coedge $-1 $86 $87 $88 $89 forward $34 $-1 #
face $-1 $90 $91 $20 $-1 $92 reversed single #
loop $-1 $-1 $93 $36 #
plane-surface $-1 -19.757153088748034 -3.719813149862869 67.705610161515636 0.70710678939079041 0 0.70710677298230451 0.70710677298230451 0 -0.70710678939079041 forward_v I I I I #
coedge $-1 $94 $95 $96 $97 reversed $37 $-1 #
face $-1 $-1 $98 $21 $-1 $99 forward single #
loop $-1 $100 $101 $39 #
cone-surface $-1 38.816284548373794 -3.719813149862869 0.33575148365014407 -0.70710678939079041 0 -0.70710677298230451 0.70710677298230451 0 -0.70710678939079041 1 I I -0.70710678118654746 0.70710678118654746 1 forward I I I I #
loop $-1 $-1 $102 $27 #
coedge $-1 $64 $64 $103 $104 reversed $40 $-1 #
face $-1 $105 $106 $22 $-1 $107 reversed single #
loop $-1 $-1 $108 $42 #
plane-surface $-1 -47.697988830225555 -10.095410994128585 2.1691932228718613 -0.79863551827123203 0 0.60181501223851219 0.60181501223851219 0 0.79863551827123203 forward_v I I I I #
coedge $-1 $109 $110 $111 $112 reversed $43 $-1 #
face $-1 $-1 $113 $23 $-1 $114 forward single #
loop $-1 $115 $116 $45 #
cone-surface $-1 -39.219933094004666 -10.095410994128585 1.3058070895969554 0.79863551827123203 0 -0.60181501223851219 0.60181501223851219 0 0.79863551827123203 1 I I -0.70710678118654768 0.70710678118654735 1 forward I I I I #
loop $-1 $-1 $117 $29 #
coedge $-1 $73 $73 $118 $119 reversed $46 $-1 #
face $-1 $120 $121 $18 $-1 $122 reversed single #
loop $-1 $-1 $123 $48 #
plane-surface $-1 0 -23.589884883822744 0 0 1 0 0 0 1 forward_v I I I I #
coedge $-1 $124 $125 $126 $127 forward $49 $-1 #
coedge $-1 $128 $51 $129 $130 forward $31 $-1 #
coedge $-1 $51 $128 $131 $132 forward $31 $-1 #
coedge $-1 $133 $134 $51 $81 reversed $135 $-1 #
edge $-1 $136 -23.589884883822744 $137 23.589884883822744 $80 $138 forward 7 unknown #
face $-1 $139 $140 $19 $-1 $141 reversed single #
loop $-1 $-1 $142 $52 #
plane-surface $-1 -47.697988830225533 0 0 1 0 0 0 0 -1 forward_v I I I I #
coedge $-1 $143 $144 $145 $146 forward $53 $-1 #
coedge $-1 $145 $55 $142 $147 reversed $34 $-1 #
coedge $-1 $55 $145 $148 $149 reversed $34 $-1 #
coedge $-1 $150 $151 $55 $89 reversed $140 $-1 #
edge $-1 $152 -47.697988830225533 $153 47.697988830225533 $88 $154 forward 7 unknown #
face $-1 $155 $156 $20 $-1 $157 reversed single #
loop $-1 $-1 $158 $56 #
plane-surface $-1 47.697990395529082 -8.3355503315796575 135.1607520804892 0 1 0 0.70710678939079041 0 0.70710677298230451 forward_v I I I I #
coedge $-1 $159 $160 $161 $162 reversed $57 $-1 #
coedge $-1 $95 $59 $163 $164 reversed $37 $-1 #
coedge $-1 $59 $94 $159 $165 reversed $37 $-1 #
coedge $-1 $161 $166 $59 $97 forward $167 $-1 #
edge $-1 $168 -23.848993632460992 $169 -14.882004750298481 $96 $170 forward 7 unknown #
loop $-1 $-1 $103 $60 #
plane-surface $-1 -19.757153088748034 -3.719813149862869 67.705610161515636 0.70710678939079041 0 0.70710677298230451 0.70710677298230451 0 -0.70710678939079041 forward_v I I I I #
loop $-1 $-1 $171 $39 #
coedge $-1 $101 $101 $102 $172 reversed $61 $-1 #
coedge $-1 $102 $102 $101 $172 forward $63 $-1 #
coedge $-1 $103 $103 $64 $104 forward $98 $-1 #
edge $-1 $173 0 $173 6.2831853071796004 $103 $174 forward 7 unknown #
face $-1 $175 $176 $22 $-1 $177 forward single #
loop $-1 $-1 $178 $65 #
plane-surface $-1 -123.88460489007076 -6.0131558247390258 59.579924686101059 0 -1 0 0.79863551827123203 0 -0.60181501223851219 forward_v I I I I #
coedge $-1 $179 $180 $181 $182 reversed $66 $-1 #
coedge $-1 $110 $68 $183 $184 reversed $43 $-1 #
coedge $-1 $68 $109 $179 $185 reversed $43 $-1 #
coedge $-1 $181 $186 $68 $112 forward $176 $-1 #
edge $-1 $187 14.244313614809847 $188 19.555560250479211 $111 $189 forward 7 unknown #
loop $-1 $-1 $118 $69 #
plane-surface $-1 -47.697988830225555 -10.095410994128585 2.1691932228718613 -0.79863551827123203 0 0.60181501223851219 0.60181501223851219 0 0.79863551827123203 forward_v I I I I #
loop $-1 $-1 $190 $45 #
coedge $-1 $116 $116 $117 $191 reversed $70 $-1 #
coedge $-1 $117 $117 $116 $191 forward $72 $-1 #
coedge $-1 $118 $118 $73 $119 forward $113 $-1 #
edge $-1 $192 0 $192 6.2831853071796004 $118 $193 forward 7 unknown #
face $-1 $194 $195 $18 $-1 $196 reversed single #
loop $-1 $-1 $197 $74 #
plane-surface $-1 -47.697988830225533 0 0 1 0 0 0 0 -1 forward_v I I I I #
coedge $-1 $198 $131 $199 $200 forward $75 $-1 #
coedge $-1 $201 $77 $198 $202 forward $49 $-1 #
coedge $-1 $77 $201 $203 $204 forward $49 $-1 #
coedge $-1 $134 $133 $77 $127 reversed $135 $-1 #
edge $-1 $205 -23.589884883822744 $206 23.589884883822744 $126 $207 forward 7 unknown #
coedge $-1 $79 $78 $208 $209 forward $31 $-1 #
coedge $-1 $210 $211 $78 $130 reversed $195 $-1 #
edge $-1 $137 -47.697988830225533 $212 47.697988830225533 $129 $213 forward 7 unknown #
coedge $-1 $123 $214 $79 $132 reversed $75 $-1 #
edge $-1 $215 -47.697988830225533 $136 47.697988830225533 $131 $216 forward 7 unknown #
coedge $-1 $126 $80 $214 $217 forward $135 $-1 #
coedge $-1 $80 $126 $210 $218 reversed $135 $-1 #
loop $-1 $-1 $133 $194 #
vertex $-1 $81 $219 #
vertex $-1 $81 $220 #
straight-curve $-1 47.697988830225533 0 9.2174557674809332 0 1 0 I I #
face $-1 $221 $222 $19 $-1 $223 reversed single #
loop $-1 $-1 $150 $82 #
plane-surface $-1 0 -28.295994243975045 6.2174557674809332 0 0 1 1 0 0 forward_v I I I I #
coedge $-1 $224 $225 $86 $147 forward $83 $-1 #
coedge $-1 $226 $85 $225 $227 forward $53 $-1 #
coedge $-1 $85 $226 $228 $229 forward $53 $-1 #
coedge $-1 $87 $86 $85 $146 reversed $34 $-1 #
edge $-1 $230 -47.697988830225533 $231 47.697988830225533 $85 $232 forward 7 unknown #
edge $-1 $231 -9.2174557674809332 $153 -6.2174557674809332 $142 $233 forward 7 unknown #
coedge $-1 $228 $234 $87 $149 forward $235 $-1 #
edge $-1 $152 6.2174557674809332 $230 9.2174557674809332 $148 $236 forward 7 unknown #
coedge $-1 $237 $88 $234 $238 forward $140 $-1 #
coedge $-1 $88 $237 $224 $239 forward $140 $-1 #
vertex $-1 $149 $240 #
vertex $-1 $147 $241 #
straight-curve $-1 0 -23.589884883822744 6.2174557674809332 -1 0 0 I I #
face $-1 $-1 $167 $20 $-1 $242 forward single #
loop $-1 $-1 $243 $90 #
plane-surface $-1 47.697988830225533 0 0 -1 0 0 0 0 1 forward_v I I I I #
coedge $-1 $244 $245 $246 $247 reversed $91 $-1 #
coedge $-1 $248 $93 $95 $165 forward $57 $-1 #
coedge $-1 $93 $248 $244 $249 forward $57 $-1 #
coedge $-1 $246 $96 $93 $162 forward $167 $-1 #
edge $-1 $169 -2.755830606785354 $250 6.475643756648223 $161 $251 forward 7 unknown #
coedge $-1 $252 $253 $94 $164 forward $156 $-1 #
edge $-1 $254 -67.329909363006081 $168 -58.362920272763667 $163 $255 forward 7 unknown #
edge $-1 $169 82.714740222513385 $254 95.395977660451095 $95 $256 forward 7 unknown #
coedge $-1 $96 $246 $252 $257 forward $167 $-1 #
loop $-1 $-1 $246 $155 #
vertex $-1 $164 $258 #
vertex $-1 $97 $259 #
straight-curve $-1 23.848995197764541 0.89592403185391944 9.217455767480935 -1 0 0 I I #
coedge $-1 $171 $171 $-1 $260 reversed $100 $-1 #
edge $-1 $261 0 $261 6.2831853071796004 $101 $262 forward 7 unknown #
vertex $-1 $104 $263 #
ellipse-curve $-1 43.214494389144285 -3.719813149862869 4.7339612223597207 0.70710678939079041 0 0.70710677298230451 1.414213545964609 0 -1.4142135787815808 1 I I #
face $-1 $-1 $264 $22 $-1 $265 reversed single #
loop $-1 $-1 $111 $105 #
plane-surface $-1 0 0 9.2174557674809332 0 0 1 1 0 0 forward_v I I I I #
coedge $-1 $266 $267 $268 $269 reversed $106 $-1 #
coedge $-1 $270 $108 $110 $185 forward $66 $-1 #
coedge $-1 $108 $270 $266 $271 forward $66 $-1 #
coedge $-1 $268 $111 $108 $182 forward $176 $-1 #
edge $-1 $188 -9.1299606664538508 $272 -0.96545032767473327 $181 $273 forward 7 unknown #
coedge $-1 $274 $275 $109 $184 forward $264 $-1 #
edge $-1 $276 -27.62076912017864 $187 -20.572506575569598 $183 $277 forward 7 unknown #
edge $-1 $188 -8.8253807692727051 $276 -3.5527045197628586e-014 $110 $278 forward 7 unknown #
coedge $-1 $111 $268 $274 $279 forward $176 $-1 #
vertex $-1 $184 $280 #
vertex $-1 $112 $281 #
straight-curve $-1 -61.942302445035381 -14.177666163518143 9.217455767480935 1 0 0 I I #
coedge $-1 $190 $190 $-1 $282 reversed $115 $-1 #
edge $-1 $283 0 $283 6.2831853071796004 $116 $284 forward 7 unknown #
vertex $-1 $119 $285 #
ellipse-curve $-1 -45.042365512390859 -10.095410994128585 5.6933244951764044 -0.79863551827123203 0 0.60181501223851219 1.2036300244770244 0 1.5972710365424641 1 I I #
face $-1 $-1 $135 $18 $-1 $286 reversed single #
loop $-1 $-1 $210 $120 #
plane-surface $-1 0 23.589884883822744 0 0 -1 0 0 0 -1 forward_v I I I I #
coedge $-1 $287 $208 $211 $288 forward $121 $-1 #
coedge $-1 $214 $123 $124 $202 reversed $75 $-1 #
coedge $-1 $208 $287 $123 $200 reversed $121 $-1 #
edge $-1 $215 -9.2174557674809332 $289 9.2174557674809332 $199 $290 forward 7 unknown #
coedge $-1 $125 $124 $287 $291 forward $49 $-1 #
edge $-1 $206 -47.697988830225533 $289 47.697988830225533 $198 $292 forward 7 unknown #
coedge $-1 $211 $210 $125 $204 reversed $195 $-1 #
edge $-1 $293 -47.697988830225533 $205 47.697988830225533 $203 $294 forward 7 unknown #
vertex $-1 $127 $295 #
vertex $-1 $217 $296 #
straight-curve $-1 47.697988830225533 0 -9.2174557674809332 0 -1 0 I I #
coedge $-1 $197 $199 $128 $209 reversed $121 $-1 #
edge $-1 $212 -23.589884883822744 $215 23.589884883822744 $208 $297 forward 7 unknown #
coedge $-1 $203 $129 $134 $218 forward $195 $-1 #
coedge $-1 $129 $203 $197 $288 reversed $195 $-1 #
vertex $-1 $130 $298 #
straight-curve $-1 0 23.589884883822744 9.2174557674809332 -1 0 0 I I #
coedge $-1 $131 $198 $133 $217 reversed $75 $-1 #
vertex $-1 $209 $299 #
straight-curve $-1 0 -23.589884883822744 9.2174557674809332 1 0 0 I I #
edge $-1 $136 -9.2174557674809332 $206 9.2174557674809332 $133 $300 forward 7 unknown #
edge $-1 $137 -9.2174557674809332 $205 9.2174557674809332 $134 $301 forward 7 unknown #
point $-1 47.697988830225533 -23.589884883822744 9.2174557674809332 #
point $-1 47.697988830225533 23.589884883822744 9.2174557674809332 #
face $-1 $-1 $235 $19 $-1 $302 reversed single #
loop $-1 $-1 $303 $139 #
plane-surface $-1 0 -33.002103604127342 7.7174557674809332 0 1 0 0 0 1 forward_v I I I I #
coedge $-1 $304 $142 $151 $239 reversed $83 $-1 #
coedge $-1 $142 $304 $143 $227 reversed $83 $-1 #
coedge $-1 $144 $143 $305 $306 forward $53 $-1 #
edge $-1 $231 23.589884883822744 $307 33.002103604127342 $225 $308 forward 7 unknown #
coedge $-1 $309 $148 $144 $229 reversed $235 $-1 #
edge $-1 $310 -33.002103604127342 $230 -23.589884883822744 $228 $311 forward 7 unknown #
vertex $-1 $149 $312 #
vertex $-1 $227 $313 #
straight-curve $-1 0 -23.589884883822744 9.2174557674809332 -1 0 0 I I #
straight-curve $-1 -47.697988830225533 -23.589884883822744 0 0 0 -1 I I #
coedge $-1 $148 $309 $150 $238 reversed $235 $-1 #
loop $-1 $-1 $148 $221 #
straight-curve $-1 47.697988830225533 -23.589884883822744 0 0 0 1 I I #
coedge $-1 $151 $150 $314 $315 forward $140 $-1 #
edge $-1 $152 -4.7061093601523005 $316 4.706109360152297 $234 $317 forward 7 unknown #
edge $-1 $318 -4.706109360152297 $153 4.7061093601523005 $224 $319 forward 7 unknown #
point $-1 47.697988830225533 -23.589884883822744 6.2174557674809332 #
point $-1 -47.697988830225533 -23.589884883822744 6.2174557674809332 #
plane-surface $-1 0 0 9.2174557674809332 0 0 1 1 0 0 forward_v I I I I #
coedge $-1 $253 $252 $245 $320 forward $156 $-1 #
coedge $-1 $245 $158 $160 $249 reversed $91 $-1 #
coedge $-1 $158 $244 $243 $320 reversed $91 $-1 #
coedge $-1 $166 $161 $158 $247 forward $167 $-1 #
edge $-1 $250 14.882004750298481 $321 23.848993632460992 $246 $322 forward 7 unknown #
coedge $-1 $160 $159 $253 $323 reversed $57 $-1 #
edge $-1 $324 -95.395977660451095 $250 -82.714740222513385 $244 $325 forward 7 unknown #
vertex $-1 $162 $326 #
straight-curve $-1 38.730999948063008 -1.8599065749314345 9.217455767480935 0 -1 0 I I #
coedge $-1 $243 $163 $166 $257 reversed $156 $-1 #
coedge $-1 $163 $243 $248 $323 forward $156 $-1 #
vertex $-1 $164 $327 #
straight-curve $-1 47.697988830225533 0.89592403185391944 67.580376040244602 0 0 1 I I #
straight-curve $-1 -19.757153088748034 0.89592403185391944 67.705610161515636 0.70710677298230451 0 -0.70710678939079041 I I #
edge $-1 $321 -8.3355503315796575 $168 0.89592403185391944 $252 $328 forward 7 unknown #
point $-1 47.697988830225533 0.89592403185391944 9.2174557674809332 #
point $-1 38.730999948063022 0.89592403185391944 9.217455767480935 #
edge $-1 $329 1 $329 0 $171 $-1 forward 7 unknown #
vertex $-1 $172 $330 #
ellipse-curve $-1 39.523391337764586 -3.719813149862869 1.0428582566324485 0.70710678939079041 0 0.70710677298230451 1.414213545964609 0 -1.4142135787815808 1 I I #
point $-1 44.628707935108885 -3.719813149862869 3.3197476435781317 #
loop $-1 $-1 $183 $175 #
plane-surface $-1 -47.697988830225533 0 0 1 0 0 0 0 -1 forward_v I I I I #
coedge $-1 $267 $178 $180 $271 reversed $106 $-1 #
coedge $-1 $178 $266 $331 $332 reversed $106 $-1 #
coedge $-1 $186 $181 $178 $269 forward $176 $-1 #
edge $-1 $272 -19.555560250479211 $333 -14.244313614809847 $268 $334 forward 7 unknown #
coedge $-1 $180 $179 $275 $335 reversed $66 $-1 #
edge $-1 $336 3.5527045197628586e-014 $272 8.8253807692727051 $266 $337 forward 7 unknown #
vertex $-1 $182 $338 #
straight-curve $-1 -42.38674219455617 -5.0477054970642925 9.217455767480935 0 1 0 I I #
coedge $-1 $331 $183 $186 $279 reversed $264 $-1 #
coedge $-1 $183 $331 $270 $335 forward $264 $-1 #
vertex $-1 $184 $339 #
straight-curve $-1 -47.697988830225533 -14.177666163518143 29.789962343050529 0 0 1 I I #
straight-curve $-1 -47.697988830225555 -14.177666163518143 2.1691932228718613 -0.60181501223851219 0 -0.79863551827123203 I I #
edge $-1 $333 6.0131558247390258 $187 14.177666163518143 $274 $340 forward 7 unknown #
point $-1 -47.697988830225533 -14.177666163518143 9.2174557674809332 #
point $-1 -42.38674219455617 -14.177666163518143 9.2174557674809314 #
edge $-1 $341 1 $341 0 $190 $-1 forward 7 unknown #
vertex $-1 $191 $342 #
ellipse-curve $-1 -40.018568612275899 -10.095410994128585 1.9076221018354673 -0.79863551827123203 0 0.60181501223851219 1.2036300244770244 0 1.5972710365424641 1 I I #
point $-1 -43.838735487913816 -10.095410994128585 7.2905955317188571 #
plane-surface $-1 47.697988830225533 0 0 -1 0 0 0 0 1 forward_v I I I I #
coedge $-1 $199 $197 $201 $291 reversed $121 $-1 #
edge $-1 $212 -9.2174557674809332 $293 9.2174557674809332 $211 $343 forward 7 unknown #
vertex $-1 $291 $344 #
straight-curve $-1 -47.697988830225533 -23.589884883822744 0 0 0 -1 I I #
edge $-1 $289 -23.589884883822744 $293 23.589884883822744 $287 $345 forward 7 unknown #
straight-curve $-1 0 -23.589884883822744 -9.2174557674809332 -1 0 0 I I #
vertex $-1 $204 $346 #
straight-curve $-1 0 23.589884883822744 -9.2174557674809332 1 0 0 I I #
point $-1 47.697988830225533 23.589884883822744 -9.2174557674809332 #
point $-1 47.697988830225533 -23.589884883822744 -9.2174557674809332 #
straight-curve $-1 -47.697988830225533 0 9.2174557674809332 0 -1 0 I I #
point $-1 -47.697988830225533 23.589884883822744 9.2174557674809332 #
point $-1 -47.697988830225533 -23.589884883822744 9.2174557674809332 #
straight-curve $-1 47.697988830225533 -23.589884883822744 0 0 0 -1 I I #
straight-curve $-1 47.697988830225533 23.589884883822744 0 0 0 -1 I I #
plane-surface $-1 47.697988830225533 0 0 -1 0 0 0 0 1 forward_v I I I I #
coedge $-1 $314 $305 $304 $347 forward $222 $-1 #
coedge $-1 $225 $224 $303 $347 reversed $83 $-1 #
coedge $-1 $303 $348 $226 $306 reversed $222 $-1 #
edge $-1 $307 -47.697988830225533 $310 47.697988830225533 $305 $349 forward 7 unknown #
vertex $-1 $227 $350 #
straight-curve $-1 -47.697988830225533 0 9.2174557674809332 0 -1 0 I I #
coedge $-1 $234 $228 $348 $351 forward $235 $-1 #
vertex $-1 $229 $352 #
straight-curve $-1 47.697988830225533 0 9.2174557674809332 0 1 0 I I #
point $-1 47.697988830225533 -23.589884883822744 9.2174557674809332 #
point $-1 -47.697988830225533 -23.589884883822744 9.2174557674809332 #
coedge $-1 $348 $303 $237 $315 reversed $222 $-1 #
edge $-1 $316 -47.697988830225533 $318 47.697988830225533 $314 $353 forward 7 unknown #
vertex $-1 $351 $354 #
straight-curve $-1 47.697988830225533 -28.295994243975045 6.2174557674809332 0 -1 0 I I #
vertex $-1 $239 $355 #
straight-curve $-1 -47.697988830225533 -28.295994243975045 6.2174557674809332 0 1 0 I I #
edge $-1 $321 58.362920272763667 $324 67.329909363006081 $243 $356 forward 7 unknown #
vertex $-1 $257 $357 #
straight-curve $-1 23.848995197764541 -8.3355503315796575 9.217455767480935 1 0 0 I I #
edge $-1 $324 -6.475643756648223 $254 2.755830606785354 $253 $358 forward 7 unknown #
vertex $-1 $323 $359 #
straight-curve $-1 -19.757153088748034 -8.3355503315796575 67.705610161515636 -0.70710677298230451 0 0.70710678939079041 I I #
point $-1 38.730999948063022 -8.3355503315796575 9.217455767480935 #
point $-1 47.697988830225533 0.89592403185391944 0.25046667723852067 #
straight-curve $-1 47.697988830225533 0 9.2174557674809332 0 1 0 I I #
vertex $-1 $260 $360 #
point $-1 40.937604883729193 -3.719813149862869 -0.37135532214913225 #
coedge $-1 $275 $274 $267 $332 forward $264 $-1 #
edge $-1 $333 20.572506575569598 $336 27.62076912017864 $331 $361 forward 7 unknown #
vertex $-1 $279 $362 #
straight-curve $-1 -61.942302445035381 -6.0131558247390258 9.217455767480935 -1 0 0 I I #
edge $-1 $336 0.96545032767473327 $276 9.1299606664538508 $275 $363 forward 7 unknown #
vertex $-1 $335 $364 #
straight-curve $-1 -47.697988830225555 -6.0131558247390258 2.1691932228718613 0.60181501223851219 0 0.79863551827123203 I I #
point $-1 -42.38674219455617 -6.0131558247390258 9.2174557674809314 #
point $-1 -47.697988830225533 -14.177666163518143 2.1691932228718898 #
straight-curve $-1 -47.697988830225533 0 9.2174557674809332 0 -1 0 I I #
vertex $-1 $282 $365 #
point $-1 -38.814938587798871 -10.095410994128585 3.5048931383779314 #
straight-curve $-1 -47.697988830225533 23.589884883822744 0 0 0 -1 I I #
point $-1 -47.697988830225533 -23.589884883822744 -9.2174557674809332 #
straight-curve $-1 -47.697988830225533 0 -9.2174557674809332 0 1 0 I I #
point $-1 -47.697988830225533 23.589884883822744 -9.2174557674809332 #
edge $-1 $307 -1.5 $318 1.5 $304 $366 forward 7 unknown #
coedge $-1 $305 $314 $309 $351 reversed $222 $-1 #
straight-curve $-1 0 -33.002103604127342 9.2174557674809332 1 0 0 I I #
point $-1 -47.697988830225533 -33.002103604127342 9.2174557674809332 #
edge $-1 $310 -1.5 $316 1.5 $309 $367 forward 7 unknown #
point $-1 47.697988830225533 -33.002103604127342 9.2174557674809332 #
straight-curve $-1 0 -33.002103604127342 6.2174557674809332 -1 0 0 I I #
point $-1 47.697988830225533 -33.002103604127342 6.2174557674809332 #
point $-1 -47.697988830225533 -33.002103604127342 6.2174557674809332 #
straight-curve $-1 47.697988830225533 -8.3355503315796575 67.580376040244602 0 0 -1 I I #
point $-1 47.697988830225533 -8.3355503315796575 9.2174557674809332 #
straight-curve $-1 47.697988830225533 -1.8599065749314345 0.25046667723852067 0 1 0 I I #
point $-1 47.697988830225533 -8.3355503315796575 0.25046667723852067 #
point $-1 38.109177758983002 -3.719813149862869 -0.37135528933216044 #
straight-curve $-1 -47.697988830225533 -6.0131558247390258 29.789962343050529 0 0 -1 I I #
point $-1 -47.697988830225533 -6.0131558247390258 9.2174557674809332 #
straight-curve $-1 -47.697988830225533 -5.0477054970642925 2.1691932228718844 0 -1 0 I I #
point $-1 -47.697988830225533 -6.0131558247390258 2.1691932228718898 #
point $-1 -38.421297575733433 -10.095410994128585 0.70399207735844338 #
straight-curve $-1 -47.697988830225533 -33.002103604127342 7.7174557674809332 0 0 -1 I I #
straight-curve $-1 47.697988830225533 -33.002103604127342 7.7174557674809332 0 0 -1 I I #
End-of-ACIS-data 