500 0 4 0           
7 Unknown 11 ACIS 5.0 NT 24 Fri Mar 26 17:34:37 1999 
-1 9.9999999999999995e-007 1e-010 
body $-1 $4 $-1 $5 #
body $-1 $6 $-1 $7 #
body $-1 $8 $-1 $9 #
body $-1 $10 $-1 $11 #
lump $-1 $-1 $12 $0 #
transform $-1 1 0 0 0 1 0 0 0 1 72.955107272560809 39.722872535187371 8.6384852171769833 1 rotate no_reflect no_shear #
lump $-1 $-1 $13 $1 #
transform $-1 1 0 0 0 1 0 0 0 1 72.955107272560809 39.722872535187371 8.6384852171769833 1 rotate no_reflect no_shear #
lump $-1 $-1 $14 $2 #
transform $-1 1 0 0 0 1 0 0 0 1 72.955107272560809 39.722872535187371 8.6384852171769833 1 rotate no_reflect no_shear #
lump $-1 $-1 $15 $3 #
transform $-1 1 0 0 0 1 0 0 0 1 72.955107272560809 39.722872535187371 8.6384852171769833 1 rotate no_reflect no_shear #
shell $-1 $-1 $-1 $16 $-1 $4 #
shell $-1 $-1 $-1 $17 $-1 $6 #
shell $-1 $-1 $-1 $18 $-1 $8 #
shell $-1 $-1 $-1 $19 $-1 $10 #
face $-1 $20 $21 $12 $-1 $22 reversed single #
face $-1 $23 $24 $13 $-1 $25 forward single #
face $-1 $26 $27 $14 $-1 $28 reversed single #
face $-1 $29 $30 $15 $-1 $31 forward single #
face $-1 $32 $33 $12 $-1 $34 forward single #
loop $-1 $-1 $35 $16 #
plane-surface $-1 0 -39.722872535187371 0 0 1 0 0 0 1 forward_v I I I I #
face $-1 $36 $37 $13 $-1 $38 reversed single #
loop $-1 $-1 $39 $17 #
plane-surface $-1 0 -39.722872535187371 0 0 1 0 0 0 1 forward_v I I I I #
face $-1 $40 $41 $14 $-1 $42 reversed single #
loop $-1 $-1 $43 $18 #
plane-surface $-1 58.560986353303889 30.265870591000052 207.24781555875632 0 -1 0 -0.6560590369687036 0 -0.75470957328743171 forward_v I I I I #
face $-1 $44 $45 $15 $-1 $46 forward single #
loop $-1 $47 $48 $19 #
cone-surface $-1 67.473346501753355 25.778987711167993 3.502347504933998 -0.6560590369687036 0 -0.75470957328743171 1.1320643599311475 0 -0.9840885554530554 1 I I 0 1 1.5 forward I I I I #
face $-1 $49 $50 $12 $-1 $51 reversed single #
loop $-1 $-1 $52 $20 #
plane-surface $-1 0 0 8.6384852171769833 0 0 1 1 0 0 forward_v I I I I #
coedge $-1 $53 $54 $55 $56 reversed $21 $-1 #
face $-1 $57 $58 $13 $-1 $59 reversed single #
loop $-1 $-1 $60 $23 #
plane-surface $-1 0 0 -8.6384852171769833 0 0 1 1 0 0 forward_v I I I I #
coedge $-1 $61 $62 $63 $64 forward $24 $-1 #
face $-1 $65 $66 $14 $-1 $67 reversed single #
loop $-1 $-1 $68 $26 #
plane-surface $-1 -37.164728485065524 25.778987711167993 97.127979801129968 0.6560590369687036 0 0.75470957328743171 0.75470957328743171 0 -0.6560590369687036 forward_v I I I I #
coedge $-1 $69 $70 $71 $72 reversed $27 $-1 #
face $-1 $-1 $73 $15 $-1 $74 forward single #
loop $-1 $75 $76 $29 #
cone-surface $-1 65.661700948543142 25.778987711167993 1.4182877399336409 -0.6560590369687036 0 -0.75470957328743171 0.56603217996557376 0 -0.4920442777265277 1 I I -0.70710678118654757 0.70710678118654757 0.75 forward I I I I #
loop $-1 $-1 $77 $19 #
coedge $-1 $48 $48 $78 $79 reversed $30 $-1 #
face $-1 $80 $81 $12 $-1 $82 reversed single #
loop $-1 $-1 $83 $32 #
plane-surface $-1 0 0 -8.6384852171769833 0 0 1 1 0 0 forward_v I I I I #
coedge $-1 $84 $85 $86 $87 forward $33 $-1 #
coedge $-1 $88 $35 $89 $90 reversed $21 $-1 #
coedge $-1 $35 $88 $91 $92 forward $21 $-1 #
coedge $-1 $93 $83 $35 $56 forward $50 $-1 #
edge $-1 $94 -72.955107272560809 $95 72.955107272560809 $35 $96 forward 7 unknown #
face $-1 $97 $98 $13 $-1 $99 reversed single #
loop $-1 $-1 $100 $36 #
plane-surface $-1 -59.616816104574809 -49.71228533984479 0 0 1 0 0 0 1 forward_v I I I I #
coedge $-1 $101 $102 $62 $103 forward $37 $-1 #
coedge $-1 $104 $39 $105 $106 reversed $24 $-1 #
coedge $-1 $39 $104 $60 $103 reversed $24 $-1 #
coedge $-1 $107 $108 $39 $64 reversed $98 $-1 #
edge $-1 $109 -8.6384852171769833 $110 8.6384852171769833 $63 $111 forward 7 unknown #
face $-1 $112 $113 $14 $-1 $114 forward single #
loop $-1 $-1 $115 $40 #
plane-surface $-1 58.560986353303889 21.292104831335934 207.24781555875632 0 1 0 0.6560590369687036 0 0.75470957328743171 forward_v I I I I #
coedge $-1 $116 $117 $118 $119 reversed $41 $-1 #
coedge $-1 $70 $43 $120 $121 reversed $27 $-1 #
coedge $-1 $43 $69 $116 $122 reversed $27 $-1 #
coedge $-1 $118 $123 $43 $72 forward $113 $-1 #
edge $-1 $124 -43.674614095908865 $125 -35.350295105261381 $71 $126 forward 7 unknown #
loop $-1 $-1 $78 $44 #
plane-surface $-1 -37.164728485065524 25.778987711167993 97.127979801129968 0.6560590369687036 0 0.75470957328743171 0.75470957328743171 0 -0.6560590369687036 forward_v I I I I #
loop $-1 $-1 $127 $29 #
coedge $-1 $76 $76 $77 $128 reversed $45 $-1 #
coedge $-1 $77 $77 $76 $128 forward $47 $-1 #
coedge $-1 $78 $78 $48 $79 forward $73 $-1 #
edge $-1 $129 0 $129 6.2831853071796004 $78 $130 forward 7 unknown #
face $-1 $131 $132 $12 $-1 $133 reversed single #
loop $-1 $-1 $134 $49 #
plane-surface $-1 -72.955107272560809 0 0 1 0 0 0 0 -1 forward_v I I I I #
coedge $-1 $55 $135 $136 $137 forward $50 $-1 #
coedge $-1 $138 $52 $139 $140 forward $33 $-1 #
coedge $-1 $52 $138 $88 $141 forward $33 $-1 #
coedge $-1 $89 $142 $52 $87 reversed $143 $-1 #
edge $-1 $144 -39.722872535187371 $145 39.722872535187371 $86 $146 forward 7 unknown #
coedge $-1 $54 $53 $85 $141 reversed $21 $-1 #
coedge $-1 $136 $86 $53 $90 forward $143 $-1 #
edge $-1 $144 -8.6384852171769833 $94 8.6384852171769833 $89 $147 forward 7 unknown #
coedge $-1 $148 $149 $54 $92 reversed $81 $-1 #
edge $-1 $150 -8.6384852171769833 $95 8.6384852171769833 $91 $151 forward 7 unknown #
coedge $-1 $135 $55 $149 $152 forward $50 $-1 #
vertex $-1 $90 $153 #
vertex $-1 $152 $154 #
straight-curve $-1 0 -39.722872535187371 -8.6384852171769833 -1 0 0 I I #
face $-1 $155 $156 $13 $-1 $157 reversed single #
loop $-1 $-1 $63 $57 #
plane-surface $-1 -61.116816104574809 -44.71757893751608 0 1 0 0 0 0 -1 forward_v I I I I #
coedge $-1 $158 $159 $160 $161 forward $58 $-1 #
coedge $-1 $162 $60 $163 $164 forward $37 $-1 #
coedge $-1 $60 $162 $107 $165 forward $37 $-1 #
edge $-1 $109 -61.116816104574809 $166 -58.116816104574809 $60 $167 forward 7 unknown #
coedge $-1 $62 $61 $168 $169 forward $24 $-1 #
coedge $-1 $170 $171 $61 $106 forward $172 $-1 #
edge $-1 $173 58.116816104574809 $110 61.116816104574809 $105 $174 forward 7 unknown #
coedge $-1 $160 $63 $102 $165 reversed $98 $-1 #
coedge $-1 $63 $160 $170 $175 reversed $98 $-1 #
vertex $-1 $103 $176 #
vertex $-1 $175 $177 #
straight-curve $-1 -61.116816104574809 -39.722872535187371 0 0 0 1 I I #
face $-1 $-1 $178 $14 $-1 $179 reversed single #
loop $-1 $-1 $71 $65 #
plane-surface $-1 0 0 8.6384852171769833 0 0 1 1 0 0 forward_v I I I I #
coedge $-1 $180 $181 $182 $183 reversed $66 $-1 #
coedge $-1 $184 $68 $70 $122 forward $41 $-1 #
coedge $-1 $68 $184 $180 $185 forward $41 $-1 #
coedge $-1 $182 $71 $68 $119 forward $113 $-1 #
edge $-1 $125 -17.376376735416056 $186 -8.4026109757519372 $118 $187 forward 7 unknown #
coedge $-1 $188 $189 $69 $121 forward $178 $-1 #
edge $-1 $190 -102.22164281661759 $124 -94.98542256220118 $120 $191 forward 7 unknown #
edge $-1 $125 134.88038362037571 $190 145.91021454512162 $70 $192 forward 7 unknown #
coedge $-1 $71 $182 $188 $193 forward $113 $-1 #
vertex $-1 $72 $194 #
vertex $-1 $72 $195 #
straight-curve $-1 29.280493176651945 30.265870591000052 8.6384852171769779 -1 0 0 I I #
coedge $-1 $127 $127 $-1 $196 reversed $75 $-1 #
edge $-1 $197 0 $197 6.2831853071796004 $76 $198 forward 7 unknown #
vertex $-1 $79 $199 #
ellipse-curve $-1 68.792947777237046 25.778987711167993 5.0203750899687858 0.6560590369687036 0 0.75470957328743171 1.1320643599311475 0 -0.9840885554530554 1 I I #
face $-1 $-1 $143 $12 $-1 $200 reversed single #
loop $-1 $-1 $201 $80 #
plane-surface $-1 0 39.722872535187371 0 0 -1 0 0 0 -1 forward_v I I I I #
coedge $-1 $149 $148 $202 $203 forward $81 $-1 #
coedge $-1 $83 $93 $204 $205 forward $50 $-1 #
coedge $-1 $142 $89 $83 $137 reversed $143 $-1 #
edge $-1 $206 -39.722872535187371 $94 39.722872535187371 $136 $207 forward 7 unknown #
coedge $-1 $85 $84 $148 $208 forward $33 $-1 #
coedge $-1 $201 $202 $84 $140 reversed $132 $-1 #
edge $-1 $145 -72.955107272560809 $209 72.955107272560809 $139 $210 forward 7 unknown #
edge $-1 $150 -72.955107272560809 $144 72.955107272560809 $88 $211 forward 7 unknown #
coedge $-1 $86 $136 $201 $212 reversed $143 $-1 #
loop $-1 $-1 $89 $131 #
vertex $-1 $87 $213 #
vertex $-1 $87 $214 #
straight-curve $-1 72.955107272560809 0 8.6384852171769833 0 1 0 I I #
straight-curve $-1 72.955107272560809 -39.722872535187371 0 0 0 -1 I I #
coedge $-1 $134 $91 $138 $208 reversed $81 $-1 #
coedge $-1 $91 $134 $93 $152 reversed $81 $-1 #
vertex $-1 $208 $215 #
straight-curve $-1 -72.955107272560809 -39.722872535187371 0 0 0 -1 I I #
edge $-1 $95 -39.722872535187371 $216 39.722872535187371 $149 $217 forward 7 unknown #
point $-1 72.955107272560809 -39.722872535187371 -8.6384852171769833 #
point $-1 -72.955107272560809 -39.722872535187371 -8.6384852171769833 #
face $-1 $-1 $172 $13 $-1 $218 forward single #
loop $-1 $-1 $219 $97 #
plane-surface $-1 -58.116816104574809 -44.71757893751608 0 -1 0 0 0 0 1 forward_v I I I I #
coedge $-1 $220 $100 $162 $221 reversed $58 $-1 #
coedge $-1 $100 $220 $222 $223 reversed $58 $-1 #
coedge $-1 $108 $107 $100 $161 reversed $98 $-1 #
edge $-1 $224 -8.6384852171769833 $225 8.6384852171769833 $160 $226 forward 7 unknown #
coedge $-1 $102 $101 $158 $221 forward $37 $-1 #
coedge $-1 $168 $219 $101 $164 reversed $156 $-1 #
edge $-1 $166 -4.9947064023287098 $227 4.9947064023287098 $163 $228 forward 7 unknown #
edge $-1 $225 -4.9947064023287098 $109 4.9947064023287098 $107 $229 forward 7 unknown #
vertex $-1 $164 $230 #
straight-curve $-1 0 -39.722872535187371 -8.6384852171769833 1 0 0 I I #
coedge $-1 $231 $163 $104 $169 reversed $156 $-1 #
edge $-1 $173 -8.6384852171769833 $166 8.6384852171769833 $168 $232 forward 7 unknown #
coedge $-1 $222 $105 $108 $175 forward $172 $-1 #
coedge $-1 $105 $222 $231 $233 forward $172 $-1 #
loop $-1 $-1 $105 $155 #
vertex $-1 $106 $234 #
straight-curve $-1 0 -39.722872535187371 8.6384852171769833 -1 0 0 I I #
edge $-1 $110 -4.9947064023287098 $224 4.9947064023287098 $108 $235 forward 7 unknown #
point $-1 -61.116816104574809 -39.722872535187371 -8.6384852171769833 #
point $-1 -61.116816104574809 -39.722872535187371 8.6384852171769833 #
loop $-1 $-1 $120 $112 #
plane-surface $-1 72.955107272560809 0 0 -1 0 0 0 0 1 forward_v I I I I #
coedge $-1 $181 $115 $117 $185 reversed $66 $-1 #
coedge $-1 $115 $180 $236 $237 reversed $66 $-1 #
coedge $-1 $123 $118 $115 $183 forward $113 $-1 #
edge $-1 $186 35.350295105261381 $238 43.674614095908865 $182 $239 forward 7 unknown #
coedge $-1 $117 $116 $189 $240 reversed $41 $-1 #
edge $-1 $241 -145.91021454512162 $186 -134.88038362037571 $180 $242 forward 7 unknown #
vertex $-1 $119 $243 #
straight-curve $-1 64.630788281913311 12.889493855583996 8.638485217176985 0 -1 0 I I #
coedge $-1 $236 $120 $123 $193 reversed $178 $-1 #
coedge $-1 $120 $236 $184 $240 forward $178 $-1 #
vertex $-1 $121 $244 #
straight-curve $-1 72.955107272560809 30.265870591000052 103.62390777937816 0 0 1 I I #
straight-curve $-1 -37.164728485065524 30.265870591000052 97.127979801129968 0.75470957328743171 0 -0.6560590369687036 I I #
edge $-1 $238 21.292104831335934 $124 30.265870591000052 $188 $245 forward 7 unknown #
point $-1 72.955107272560809 30.265870591000052 8.6384852171769833 #
point $-1 64.630788281913325 30.265870591000052 8.6384852171769779 #
edge $-1 $246 1 $246 0 $127 $-1 forward 7 unknown #
vertex $-1 $128 $247 #
ellipse-curve $-1 66.153745226269663 25.778987711167993 1.9843199198992147 0.6560590369687036 0 0.75470957328743171 1.1320643599311475 0 -0.9840885554530554 1 I I #
point $-1 69.925012137168196 25.778987711167993 4.0362865345157255 #
plane-surface $-1 72.955107272560809 0 0 -1 0 0 0 0 1 forward_v I I I I #
coedge $-1 $204 $139 $142 $212 forward $132 $-1 #
coedge $-1 $139 $204 $134 $203 reversed $132 $-1 #
edge $-1 $209 -8.6384852171769833 $216 8.6384852171769833 $202 $248 forward 7 unknown #
coedge $-1 $202 $201 $135 $205 reversed $132 $-1 #
edge $-1 $216 -72.955107272560809 $206 72.955107272560809 $204 $249 forward 7 unknown #
vertex $-1 $137 $250 #
straight-curve $-1 72.955107272560809 0 -8.6384852171769833 0 -1 0 I I #
edge $-1 $209 -39.722872535187371 $150 39.722872535187371 $148 $251 forward 7 unknown #
vertex $-1 $140 $252 #
straight-curve $-1 0 39.722872535187371 8.6384852171769833 -1 0 0 I I #
straight-curve $-1 0 -39.722872535187371 8.6384852171769833 1 0 0 I I #
edge $-1 $145 -8.6384852171769833 $206 8.6384852171769833 $142 $253 forward 7 unknown #
point $-1 72.955107272560809 -39.722872535187371 8.6384852171769833 #
point $-1 72.955107272560809 39.722872535187371 8.6384852171769833 #
point $-1 -72.955107272560809 -39.722872535187371 8.6384852171769833 #
vertex $-1 $205 $254 #
straight-curve $-1 -72.955107272560809 0 -8.6384852171769833 0 1 0 I I #
plane-surface $-1 0 0 8.6384852171769833 0 0 1 1 0 0 forward_v I I I I #
coedge $-1 $163 $231 $220 $255 forward $156 $-1 #
coedge $-1 $159 $158 $219 $255 reversed $58 $-1 #
edge $-1 $227 -1.5 $225 1.5 $158 $256 forward 7 unknown #
coedge $-1 $171 $170 $159 $223 forward $172 $-1 #
edge $-1 $224 -1.5 $257 1.5 $159 $258 forward 7 unknown #
vertex $-1 $175 $259 #
vertex $-1 $165 $260 #
straight-curve $-1 -61.116816104574809 -49.71228533984479 0 0 0 -1 I I #
vertex $-1 $255 $261 #
straight-curve $-1 -58.116816104574809 -44.71757893751608 -8.6384852171769833 0 -1 0 I I #
straight-curve $-1 -61.116816104574809 -44.71757893751608 -8.6384852171769833 0 1 0 I I #
point $-1 -58.116816104574809 -39.722872535187371 -8.6384852171769833 #
coedge $-1 $219 $168 $171 $233 reversed $156 $-1 #
straight-curve $-1 -58.116816104574809 -39.722872535187371 0 0 0 -1 I I #
edge $-1 $257 -4.9947064023287098 $173 4.9947064023287098 $231 $262 forward 7 unknown #
point $-1 -58.116816104574809 -39.722872535187371 8.6384852171769833 #
straight-curve $-1 -61.116816104574809 -44.71757893751608 8.6384852171769833 0 -1 0 I I #
coedge $-1 $189 $188 $181 $237 forward $178 $-1 #
edge $-1 $238 94.98542256220118 $241 102.22164281661759 $236 $263 forward 7 unknown #
vertex $-1 $193 $264 #
straight-curve $-1 29.280493176651945 21.292104831335934 8.6384852171769779 1 0 0 I I #
edge $-1 $241 8.4026109757519372 $190 17.376376735416056 $189 $265 forward 7 unknown #
vertex $-1 $240 $266 #
straight-curve $-1 -37.164728485065524 21.292104831335934 97.127979801129968 -0.75470957328743171 0 0.6560590369687036 I I #
point $-1 64.630788281913325 21.292104831335934 8.6384852171769779 #
point $-1 72.955107272560809 30.265870591000052 1.4022649627605688 #
straight-curve $-1 72.955107272560809 0 8.6384852171769833 0 1 0 I I #
vertex $-1 $196 $267 #
point $-1 67.285809586200813 25.778987711167993 1.0002313644461593 #
straight-curve $-1 -72.955107272560809 39.722872535187371 0 0 0 -1 I I #
straight-curve $-1 0 39.722872535187371 -8.6384852171769833 1 0 0 I I #
point $-1 72.955107272560809 39.722872535187371 -8.6384852171769833 #
straight-curve $-1 -72.955107272560809 0 8.6384852171769833 0 -1 0 I I #
point $-1 -72.955107272560809 39.722872535187371 8.6384852171769833 #
straight-curve $-1 72.955107272560809 39.722872535187371 0 0 0 -1 I I #
point $-1 -72.955107272560809 39.722872535187371 -8.6384852171769833 #
edge $-1 $257 -8.6384852171769833 $227 8.6384852171769833 $219 $268 forward 7 unknown #
straight-curve $-1 -59.616816104574809 -49.71228533984479 -8.6384852171769833 -1 0 0 I I #
vertex $-1 $233 $269 #
straight-curve $-1 -59.616816104574809 -49.71228533984479 8.6384852171769833 1 0 0 I I #
point $-1 -61.116816104574809 -49.71228533984479 8.6384852171769833 #
point $-1 -61.116816104574809 -49.71228533984479 -8.6384852171769833 #
point $-1 -58.116816104574809 -49.71228533984479 -8.6384852171769833 #
straight-curve $-1 -58.116816104574809 -44.71757893751608 8.6384852171769833 0 1 0 I I #
straight-curve $-1 72.955107272560809 21.292104831335934 103.62390777937816 0 0 -1 I I #
point $-1 72.955107272560809 21.292104831335934 8.6384852171769833 #
straight-curve $-1 72.955107272560795 12.889493855583996 1.4022649627605617 0 1 0 I I #
point $-1 72.955107272560809 21.292104831335934 1.4022649627605688 #
point $-1 65.169656670816622 25.778987711167993 0.85225555996806712 #
straight-curve $-1 -58.116816104574809 -49.71228533984479 0 0 0 -1 I I #
point $-1 -58.116816104574809 -49.71228533984479 8.6384852171769833 #
End-of-ACIS-data 