500 0 10 0           
7 Unknown 11 ACIS 5.0 NT 24 Fri Mar 26 03:17:16 1999 
-1 9.9999999999999995e-007 1e-010 
body $-1 $10 $-1 $11 #
body $-1 $12 $-1 $13 #
body $-1 $14 $-1 $15 #
body $-1 $16 $-1 $17 #
body $-1 $18 $-1 $19 #
body $-1 $20 $-1 $21 #
body $-1 $22 $-1 $23 #
body $-1 $24 $-1 $25 #
body $-1 $26 $-1 $27 #
body $-1 $28 $-1 $29 #
lump $-1 $-1 $30 $0 #
transform $-1 1 0 0 0 1 0 0 0 1 41.943418683431503 23.056015767150839 5.2890149759496667 1 rotate no_reflect no_shear #
lump $-1 $-1 $31 $1 #
transform $-1 1 0 0 0 1 0 0 0 1 41.943418683431503 23.056015767150839 5.2890149759496667 1 rotate no_reflect no_shear #
lump $-1 $-1 $32 $2 #
transform $-1 1 0 0 0 1 0 0 0 1 41.943418683431503 23.056015767150839 5.2890149759496667 1 rotate no_reflect no_shear #
lump $-1 $-1 $33 $3 #
transform $-1 1 0 0 0 1 0 0 0 1 41.943418683431503 23.056015767150839 5.2890149759496667 1 rotate no_reflect no_shear #
lump $-1 $-1 $34 $4 #
transform $-1 1 0 0 0 1 0 0 0 1 41.943418683431503 23.056015767150839 5.2890149759496667 1 rotate no_reflect no_shear #
lump $-1 $-1 $35 $5 #
transform $-1 1 0 0 0 1 0 0 0 1 41.943418683431503 23.056015767150839 5.2890149759496667 1 rotate no_reflect no_shear #
lump $-1 $-1 $36 $6 #
transform $-1 1 0 0 0 1 0 0 0 1 41.943418683431503 23.056015767150839 5.2890149759496667 1 rotate no_reflect no_shear #
lump $-1 $-1 $37 $7 #
transform $-1 1 0 0 0 1 0 0 0 1 41.943418683431503 23.056015767150839 5.2890149759496667 1 rotate no_reflect no_shear #
lump $-1 $-1 $38 $8 #
transform $-1 1 0 0 0 1 0 0 0 1 41.943418683431503 23.056015767150839 5.2890149759496667 1 rotate no_reflect no_shear #
lump $-1 $-1 $39 $9 #
transform $-1 1 0 0 0 1 0 0 0 1 41.943418683431503 23.056015767150839 5.2890149759496667 1 rotate no_reflect no_shear #
shell $-1 $-1 $-1 $40 $-1 $10 #
shell $-1 $-1 $-1 $41 $-1 $12 #
shell $-1 $-1 $-1 $42 $-1 $14 #
shell $-1 $-1 $-1 $43 $-1 $16 #
shell $-1 $-1 $-1 $44 $-1 $18 #
shell $-1 $-1 $-1 $45 $-1 $20 #
shell $-1 $-1 $-1 $46 $-1 $22 #
shell $-1 $-1 $-1 $47 $-1 $24 #
shell $-1 $-1 $-1 $48 $-1 $26 #
shell $-1 $-1 $-1 $49 $-1 $28 #
face $-1 $50 $51 $30 $-1 $52 forward single #
face $-1 $53 $54 $31 $-1 $55 reversed single #
face $-1 $56 $57 $32 $-1 $58 reversed single #
face $-1 $59 $60 $33 $-1 $61 forward single #
face $-1 $62 $63 $34 $-1 $64 forward single #
face $-1 $65 $66 $35 $-1 $67 forward single #
face $-1 $68 $69 $36 $-1 $70 reversed single #
face $-1 $71 $72 $37 $-1 $73 forward single #
face $-1 $74 $75 $38 $-1 $76 forward single #
face $-1 $77 $78 $39 $-1 $79 forward single #
face $-1 $80 $81 $30 $-1 $82 reversed single #
loop $-1 $-1 $83 $40 #
plane-surface $-1 0 0 5.2890149759496667 0 0 1 1 0 0 forward_v I I I I #
face $-1 $84 $85 $31 $-1 $86 reversed single #
loop $-1 $-1 $87 $41 #
plane-surface $-1 -39.977947630628471 0 2.2186519561578217 0 0 1 1 0 0 forward_v I I I I #
face $-1 $88 $89 $32 $-1 $90 reversed single #
loop $-1 $-1 $91 $42 #
plane-surface $-1 1.9654710528030304 -90.921893487820995 50.211328852003994 -1 0 0 0 -0.80901700255871778 0.5877852410284794 forward_v I I I I #
face $-1 $92 $93 $33 $-1 $94 forward single #
loop $-1 $95 $96 $43 #
cone-surface $-1 -8.9359773383643315 -20.446326837177629 2.3577759543957795 0 0.80901700255871778 -0.5877852410284794 1 0 0 1 I I 0 1 1 forward I I I I #
face $-1 $97 $98 $34 $-1 $99 forward single #
loop $-1 $100 $101 $44 #
cone-surface $-1 -4.8479341916765719 -20.446326837177629 2.3577759543957795 0 0.80901700255871778 -0.5877852410284794 1 0 0 1 I I 0 1 1 forward I I I I #
face $-1 $102 $103 $35 $-1 $104 forward single #
loop $-1 $105 $106 $45 #
cone-surface $-1 -0.75989104498881233 -20.446326837177629 2.3577759543957795 0 0.80901700255871778 -0.5877852410284794 1 0 0 1 I I 0 1 1 forward I I I I #
face $-1 $107 $108 $36 $-1 $109 reversed single #
loop $-1 $-1 $110 $46 #
plane-surface $-1 35.130013438951892 -23.056015767150839 0.90388393120556998 0 -0.80901700255871778 0.5877852410284794 1 0 0 forward_v I I I I #
face $-1 $111 $112 $37 $-1 $113 forward single #
loop $-1 $114 $115 $47 #
cone-surface $-1 31.041970292264139 -20.446326837177629 2.3577759543957795 0 0.80901700255871778 -0.5877852410284794 1 0 0 1 I I 0 1 1 forward I I I I #
face $-1 $116 $117 $38 $-1 $118 forward single #
loop $-1 $119 $120 $48 #
cone-surface $-1 35.130013438951892 -20.446326837177629 2.3577759543957795 0 0.80901700255871778 -0.5877852410284794 1 0 0 1 I I 0 1 1 forward I I I I #
face $-1 $121 $122 $39 $-1 $123 forward single #
loop $-1 $124 $125 $49 #
cone-surface $-1 39.218056585639658 -20.446326837177629 2.3577759543957795 0 0.80901700255871778 -0.5877852410284794 1 0 0 1 I I 0 1 1 forward I I I I #
face $-1 $126 $127 $30 $-1 $128 reversed single #
loop $-1 $-1 $129 $50 #
plane-surface $-1 0 0 -5.2890149759496667 0 0 1 1 0 0 forward_v I I I I #
coedge $-1 $130 $131 $132 $133 forward $51 $-1 #
face $-1 $134 $135 $31 $-1 $136 reversed single #
loop $-1 $-1 $137 $53 #
plane-surface $-1 -38.012476577825439 0 3.7538334660537442 -1 0 0 0 0 1 forward_v I I I I #
coedge $-1 $138 $139 $140 $141 forward $54 $-1 #
face $-1 $142 $143 $32 $-1 $144 reversed single #
loop $-1 $-1 $145 $56 #
plane-surface $-1 -4.8479341916765719 -23.056015767150839 0.90388393120556998 0 -0.80901700255871778 0.5877852410284794 1 0 0 forward_v I I I I #
coedge $-1 $146 $147 $148 $149 reversed $57 $-1 #
face $-1 $-1 $150 $33 $-1 $151 forward single #
loop $-1 $152 $153 $59 #
cone-surface $-1 -8.9359773383643315 -19.025121456725195 1.3252098346997032 0 0.80901700255871778 -0.5877852410284794 0.5 0 0 1 I I -0.70710678118654746 0.70710678118654746 0.5 forward I I I I #
loop $-1 $-1 $154 $43 #
coedge $-1 $96 $96 $155 $156 reversed $60 $-1 #
face $-1 $-1 $157 $34 $-1 $158 forward single #
loop $-1 $159 $160 $62 #
cone-surface $-1 -4.8479341916765719 -19.025121456725195 1.3252098346997032 0 0.80901700255871778 -0.5877852410284794 0.5 0 0 1 I I -0.70710678118654746 0.70710678118654746 0.5 forward I I I I #
loop $-1 $-1 $161 $44 #
coedge $-1 $101 $101 $162 $163 reversed $63 $-1 #
face $-1 $-1 $164 $35 $-1 $165 forward single #
loop $-1 $166 $167 $65 #
cone-surface $-1 -0.75989104498881233 -19.025121456725195 1.3252098346997032 0 0.80901700255871778 -0.5877852410284794 0.5 0 0 1 I I -0.70710678118654746 0.70710678118654746 0.5 forward I I I I #
loop $-1 $-1 $168 $45 #
coedge $-1 $106 $106 $169 $170 reversed $66 $-1 #
face $-1 $171 $172 $36 $-1 $173 reversed single #
loop $-1 $-1 $174 $68 #
plane-surface $-1 28.316608194472288 -90.921893487820995 50.211328852003994 1 0 0 0 0.80901700255871778 -0.5877852410284794 forward_v I I I I #
coedge $-1 $175 $176 $177 $178 reversed $69 $-1 #
face $-1 $-1 $179 $37 $-1 $180 forward single #
loop $-1 $181 $182 $71 #
cone-surface $-1 31.041970292264139 -19.025121456725195 1.3252098346997032 0 0.80901700255871778 -0.5877852410284794 0.5 0 0 1 I I -0.70710678118654746 0.70710678118654746 0.5 forward I I I I #
loop $-1 $-1 $183 $47 #
coedge $-1 $115 $115 $184 $185 reversed $72 $-1 #
face $-1 $-1 $186 $38 $-1 $187 forward single #
loop $-1 $188 $189 $74 #
cone-surface $-1 35.130013438951892 -19.025121456725195 1.3252098346997032 0 0.80901700255871778 -0.5877852410284794 0.5 0 0 1 I I -0.70710678118654746 0.70710678118654746 0.5 forward I I I I #
loop $-1 $-1 $190 $48 #
coedge $-1 $120 $120 $191 $192 reversed $75 $-1 #
face $-1 $-1 $193 $39 $-1 $194 forward single #
loop $-1 $195 $196 $77 #
cone-surface $-1 39.218056585639658 -19.025121456725195 1.3252098346997032 0 0.80901700255871778 -0.5877852410284794 0.5 0 0 1 I I -0.70710678118654746 0.70710678118654746 0.5 forward I I I I #
loop $-1 $-1 $197 $49 #
coedge $-1 $125 $125 $198 $199 reversed $78 $-1 #
face $-1 $200 $201 $30 $-1 $202 reversed single #
loop $-1 $-1 $203 $80 #
plane-surface $-1 0 -23.056015767150839 0 0 1 0 0 0 1 forward_v I I I I #
coedge $-1 $204 $205 $206 $207 forward $81 $-1 #
coedge $-1 $208 $83 $209 $210 forward $51 $-1 #
coedge $-1 $83 $208 $211 $212 forward $51 $-1 #
coedge $-1 $213 $214 $83 $133 reversed $215 $-1 #
edge $-1 $216 -23.056015767150839 $217 23.056015767150839 $132 $218 forward 7 unknown #
face $-1 $219 $220 $31 $-1 $221 reversed single #
loop $-1 $-1 $222 $84 #
plane-surface $-1 0 23.056015767150839 0 0 -1 0 0 0 -1 forward_v I I I I #
coedge $-1 $140 $223 $224 $225 reversed $85 $-1 #
coedge $-1 $226 $87 $227 $228 reversed $54 $-1 #
coedge $-1 $87 $226 $229 $230 reversed $54 $-1 #
coedge $-1 $231 $137 $87 $141 reversed $85 $-1 #
edge $-1 $232 -23.056015767150839 $233 23.056015767150839 $140 $234 forward 7 unknown #
face $-1 $235 $236 $32 $-1 $237 reversed single #
loop $-1 $-1 $238 $88 #
plane-surface $-1 -11.661339436156174 -90.921893487820995 50.211328852003994 1 0 0 0 0.80901700255871778 -0.5877852410284794 forward_v I I I I #
coedge $-1 $239 $240 $241 $242 reversed $89 $-1 #
coedge $-1 $147 $91 $243 $244 reversed $57 $-1 #
coedge $-1 $91 $146 $239 $245 reversed $57 $-1 #
coedge $-1 $241 $246 $91 $149 forward $247 $-1 #
edge $-1 $248 22.404930976759658 $249 25.590915078359924 $148 $250 forward 7 unknown #
loop $-1 $-1 $155 $92 #
plane-surface $-1 -4.8479341916765719 -23.056015767150839 0.90388393120556998 0 -0.80901700255871778 0.5877852410284794 1 0 0 forward_v I I I I #
loop $-1 $-1 $251 $59 #
coedge $-1 $153 $153 $154 $252 reversed $93 $-1 #
coedge $-1 $154 $154 $153 $252 forward $95 $-1 #
coedge $-1 $155 $155 $96 $156 forward $150 $-1 #
edge $-1 $253 1.0104055017342269e-015 $253 6.2831853071796013 $155 $254 forward 7 unknown #
loop $-1 $-1 $162 $97 #
plane-surface $-1 -4.8479341916765719 -23.056015767150839 0.90388393120556998 0 -0.80901700255871778 0.5877852410284794 1 0 0 forward_v I I I I #
loop $-1 $-1 $255 $62 #
coedge $-1 $160 $160 $161 $256 reversed $98 $-1 #
coedge $-1 $161 $161 $160 $256 forward $100 $-1 #
coedge $-1 $162 $162 $101 $163 forward $157 $-1 #
edge $-1 $257 1.0104055017342269e-015 $257 6.2831853071796013 $162 $258 forward 7 unknown #
loop $-1 $-1 $169 $102 #
plane-surface $-1 -4.8479341916765719 -23.056015767150839 0.90388393120556998 0 -0.80901700255871778 0.5877852410284794 1 0 0 forward_v I I I I #
loop $-1 $-1 $259 $65 #
coedge $-1 $167 $167 $168 $260 reversed $103 $-1 #
coedge $-1 $168 $168 $167 $260 forward $105 $-1 #
coedge $-1 $169 $169 $106 $170 forward $164 $-1 #
edge $-1 $261 1.0104055017342269e-015 $261 6.2831853071796013 $169 $262 forward 7 unknown #
face $-1 $263 $264 $36 $-1 $265 reversed single #
loop $-1 $-1 $266 $107 #
plane-surface $-1 0 -23.056015767150839 0 0 1 0 0 0 1 forward_v I I I I #
coedge $-1 $267 $268 $269 $270 reversed $108 $-1 #
coedge $-1 $271 $110 $272 $273 reversed $69 $-1 #
coedge $-1 $110 $271 $267 $274 forward $69 $-1 #
coedge $-1 $269 $275 $110 $178 forward $276 $-1 #
edge $-1 $277 -24.37841196395555 $278 -10.751601474996342 $177 $279 forward 7 unknown #
loop $-1 $-1 $184 $111 #
plane-surface $-1 35.130013438951892 -23.056015767150839 0.90388393120556998 0 -0.80901700255871778 0.5877852410284794 1 0 0 forward_v I I I I #
loop $-1 $-1 $280 $71 #
coedge $-1 $182 $182 $183 $281 reversed $112 $-1 #
coedge $-1 $183 $183 $182 $281 forward $114 $-1 #
coedge $-1 $184 $184 $115 $185 forward $179 $-1 #
edge $-1 $282 1.0104055017342269e-015 $282 6.2831853071796013 $184 $283 forward 7 unknown #
loop $-1 $-1 $191 $116 #
plane-surface $-1 35.130013438951892 -23.056015767150839 0.90388393120556998 0 -0.80901700255871778 0.5877852410284794 1 0 0 forward_v I I I I #
loop $-1 $-1 $284 $74 #
coedge $-1 $189 $189 $190 $285 reversed $117 $-1 #
coedge $-1 $190 $190 $189 $285 forward $119 $-1 #
coedge $-1 $191 $191 $120 $192 forward $186 $-1 #
edge $-1 $286 1.0104055017342269e-015 $286 6.2831853071796013 $191 $287 forward 7 unknown #
loop $-1 $-1 $198 $121 #
plane-surface $-1 35.130013438951892 -23.056015767150839 0.90388393120556998 0 -0.80901700255871778 0.5877852410284794 1 0 0 forward_v I I I I #
loop $-1 $-1 $288 $77 #
coedge $-1 $196 $196 $197 $289 reversed $122 $-1 #
coedge $-1 $197 $197 $196 $289 forward $124 $-1 #
coedge $-1 $198 $198 $125 $199 forward $193 $-1 #
edge $-1 $290 1.0104055017342269e-015 $290 6.2831853071796013 $198 $291 forward 7 unknown #
face $-1 $292 $293 $30 $-1 $294 reversed single #
loop $-1 $-1 $295 $126 #
plane-surface $-1 -41.943418683431503 0 0 1 0 0 0 0 -1 forward_v I I I I #
coedge $-1 $296 $211 $297 $298 forward $127 $-1 #
coedge $-1 $299 $129 $296 $300 forward $81 $-1 #
coedge $-1 $129 $299 $301 $302 forward $81 $-1 #
coedge $-1 $214 $213 $129 $207 reversed $215 $-1 #
edge $-1 $303 -23.056015767150839 $304 23.056015767150839 $206 $305 forward 7 unknown #
coedge $-1 $131 $130 $306 $307 forward $51 $-1 #
coedge $-1 $308 $309 $130 $210 reversed $293 $-1 #
edge $-1 $217 -41.943418683431503 $310 41.943418683431503 $209 $311 forward 7 unknown #
coedge $-1 $203 $312 $131 $212 reversed $127 $-1 #
edge $-1 $313 -41.943418683431503 $216 41.943418683431503 $211 $314 forward 7 unknown #
coedge $-1 $206 $132 $312 $315 forward $215 $-1 #
coedge $-1 $132 $206 $308 $316 reversed $215 $-1 #
loop $-1 $-1 $213 $292 #
vertex $-1 $133 $317 #
vertex $-1 $133 $318 #
straight-curve $-1 41.943418683431503 0 5.2890149759496667 0 1 0 I I #
face $-1 $319 $320 $31 $-1 $321 forward single #
loop $-1 $-1 $322 $134 #
plane-surface $-1 -41.943418683431503 0 0 1 0 0 0 0 -1 forward_v I I I I #
coedge $-1 $229 $323 $231 $324 forward $135 $-1 #
coedge $-1 $137 $231 $325 $326 reversed $85 $-1 #
coedge $-1 $327 $227 $137 $225 forward $328 $-1 #
edge $-1 $233 0.34173522313094962 $329 3.4120982429227946 $224 $330 forward 7 unknown #
coedge $-1 $139 $138 $322 $331 reversed $54 $-1 #
coedge $-1 $224 $332 $138 $228 forward $328 $-1 #
edge $-1 $333 -21.954444868117267 $233 -18.023502762511203 $227 $334 forward 7 unknown #
coedge $-1 $335 $222 $139 $230 forward $135 $-1 #
edge $-1 $232 18.023502762511203 $336 21.954444868117267 $229 $337 forward 7 unknown #
coedge $-1 $223 $140 $222 $324 reversed $85 $-1 #
vertex $-1 $230 $338 #
vertex $-1 $228 $339 #
straight-curve $-1 -38.012476577825439 0 2.2186519561578217 0 -1 0 I I #
face $-1 $-1 $247 $32 $-1 $340 forward single #
loop $-1 $-1 $341 $142 #
plane-surface $-1 0 -23.056015767150839 0 0 1 0 0 0 1 forward_v I I I I #
coedge $-1 $342 $343 $344 $345 reversed $143 $-1 #
coedge $-1 $346 $145 $147 $245 forward $89 $-1 #
coedge $-1 $145 $346 $342 $347 forward $89 $-1 #
coedge $-1 $344 $148 $145 $242 forward $247 $-1 #
edge $-1 $249 -4.3894381486413163 $348 9.2373723403178882 $241 $349 forward 7 unknown #
coedge $-1 $350 $351 $146 $244 forward $236 $-1 #
edge $-1 $352 -24.201780494796427 $248 -19.816649450052331 $243 $353 forward 7 unknown #
edge $-1 $249 -5.4203200067180628 $352 0 $147 $354 forward 7 unknown #
coedge $-1 $148 $344 $350 $355 forward $247 $-1 #
loop $-1 $-1 $344 $235 #
vertex $-1 $244 $356 #
vertex $-1 $149 $357 #
straight-curve $-1 1.9654710528030304 -45.460946743910498 5.2890149759496659 0 1 0 I I #
coedge $-1 $251 $251 $-1 $358 reversed $152 $-1 #
edge $-1 $359 0 $359 6.2831853071796004 $153 $360 forward 7 unknown #
vertex $-1 $156 $361 #
ellipse-curve $-1 -8.9359773383643315 -21.463023716350708 3.0964494535776175 0 -0.80901700255871778 0.5877852410284794 1 0 0 1 I I #
coedge $-1 $255 $255 $-1 $362 reversed $159 $-1 #
edge $-1 $363 0 $363 6.2831853071796004 $160 $364 forward 7 unknown #
vertex $-1 $163 $365 #
ellipse-curve $-1 -4.8479341916765719 -21.463023716350708 3.0964494535776175 0 -0.80901700255871778 0.5877852410284794 1 0 0 1 I I #
coedge $-1 $259 $259 $-1 $366 reversed $166 $-1 #
edge $-1 $367 0 $367 6.2831853071796004 $167 $368 forward 7 unknown #
vertex $-1 $170 $369 #
ellipse-curve $-1 -0.75989104498881233 -21.463023716350708 3.0964494535776175 0 -0.80901700255871778 0.5877852410284794 1 0 0 1 I I #
face $-1 $-1 $276 $36 $-1 $370 forward single #
loop $-1 $-1 $272 $171 #
plane-surface $-1 41.943418683431503 0 0 -1 0 0 0 0 1 forward_v I I I I #
coedge $-1 $371 $372 $268 $373 forward $172 $-1 #
coedge $-1 $268 $174 $176 $274 reversed $108 $-1 #
coedge $-1 $174 $267 $266 $373 reversed $108 $-1 #
coedge $-1 $374 $177 $174 $270 forward $276 $-1 #
edge $-1 $278 -25.590915078359924 $375 -22.404930976759658 $269 $376 forward 7 unknown #
coedge $-1 $176 $175 $371 $377 reversed $69 $-1 #
coedge $-1 $378 $379 $175 $273 forward $264 $-1 #
edge $-1 $380 -6.4103641580831283 $277 -0.99004415136506574 $272 $381 forward 7 unknown #
edge $-1 $382 0 $278 5.4203200067180628 $267 $383 forward 7 unknown #
coedge $-1 $177 $374 $378 $384 forward $276 $-1 #
loop $-1 $-1 $269 $263 #
vertex $-1 $273 $385 #
vertex $-1 $178 $386 #
straight-curve $-1 17.565006719475946 -19.87003166555057 5.2890149759496676 -1 0 0 I I #
coedge $-1 $280 $280 $-1 $387 reversed $181 $-1 #
edge $-1 $388 0 $388 6.2831853071796004 $182 $389 forward 7 unknown #
vertex $-1 $185 $390 #
ellipse-curve $-1 31.041970292264139 -21.463023716350708 3.0964494535776175 0 -0.80901700255871778 0.5877852410284794 1 0 0 1 I I #
coedge $-1 $284 $284 $-1 $391 reversed $188 $-1 #
edge $-1 $392 0 $392 6.2831853071796004 $189 $393 forward 7 unknown #
vertex $-1 $192 $394 #
ellipse-curve $-1 35.130013438951892 -21.463023716350708 3.0964494535776175 0 -0.80901700255871778 0.5877852410284794 1 0 0 1 I I #
coedge $-1 $288 $288 $-1 $395 reversed $195 $-1 #
edge $-1 $396 0 $396 6.2831853071796004 $196 $397 forward 7 unknown #
vertex $-1 $199 $398 #
ellipse-curve $-1 39.218056585639658 -21.463023716350708 3.0964494535776175 0 -0.80901700255871778 0.5877852410284794 1 0 0 1 I I #
face $-1 $-1 $215 $30 $-1 $399 reversed single #
loop $-1 $-1 $308 $200 #
plane-surface $-1 0 23.056015767150839 0 0 -1 0 0 0 -1 forward_v I I I I #
coedge $-1 $400 $306 $309 $401 forward $201 $-1 #
coedge $-1 $312 $203 $204 $300 reversed $127 $-1 #
coedge $-1 $306 $400 $203 $298 reversed $201 $-1 #
edge $-1 $313 -5.2890149759496667 $402 5.2890149759496667 $297 $403 forward 7 unknown #
coedge $-1 $205 $204 $400 $404 forward $81 $-1 #
edge $-1 $304 -41.943418683431503 $402 41.943418683431503 $296 $405 forward 7 unknown #
coedge $-1 $309 $308 $205 $302 reversed $293 $-1 #
edge $-1 $406 -41.943418683431503 $303 41.943418683431503 $301 $407 forward 7 unknown #
vertex $-1 $207 $408 #
vertex $-1 $315 $409 #
straight-curve $-1 41.943418683431503 0 -5.2890149759496667 0 -1 0 I I #
coedge $-1 $295 $297 $208 $307 reversed $201 $-1 #
edge $-1 $310 -23.056015767150839 $313 23.056015767150839 $306 $410 forward 7 unknown #
coedge $-1 $301 $209 $214 $316 forward $293 $-1 #
coedge $-1 $209 $301 $295 $401 reversed $293 $-1 #
vertex $-1 $210 $411 #
straight-curve $-1 0 23.056015767150839 5.2890149759496667 -1 0 0 I I #
coedge $-1 $211 $296 $213 $315 reversed $127 $-1 #
vertex $-1 $307 $412 #
straight-curve $-1 0 -23.056015767150839 5.2890149759496667 1 0 0 I I #
edge $-1 $216 -5.2890149759496667 $304 5.2890149759496667 $213 $413 forward 7 unknown #
edge $-1 $217 -5.2890149759496667 $303 5.2890149759496667 $214 $414 forward 7 unknown #
point $-1 41.943418683431503 -23.056015767150839 5.2890149759496667 #
point $-1 41.943418683431503 23.056015767150839 5.2890149759496667 #
face $-1 $-1 $328 $31 $-1 $415 reversed single #
loop $-1 $-1 $325 $219 #
plane-surface $-1 0 0 5.2890149759496667 0 0 1 1 0 0 forward_v I I I I #
coedge $-1 $416 $417 $226 $331 forward $220 $-1 #
coedge $-1 $222 $335 $418 $419 reversed $135 $-1 #
edge $-1 $420 -3.4120982429227946 $232 -0.34173522313094962 $222 $421 forward 7 unknown #
coedge $-1 $418 $422 $223 $326 forward $320 $-1 #
edge $-1 $329 -23.056015767150839 $420 23.056015767150839 $325 $423 forward 7 unknown #
coedge $-1 $332 $224 $422 $424 reversed $328 $-1 #
loop $-1 $-1 $224 $319 #
vertex $-1 $225 $425 #
straight-curve $-1 -38.012476577825439 -23.056015767150839 1.8769167330268721 0 0 1 I I #
edge $-1 $336 -23.056015767150839 $333 23.056015767150839 $322 $426 forward 7 unknown #
coedge $-1 $227 $327 $416 $427 forward $328 $-1 #
vertex $-1 $331 $428 #
straight-curve $-1 -19.988973815314235 -23.056015767150839 2.2186519561578217 1 0 0 I I #
coedge $-1 $323 $229 $417 $429 reversed $135 $-1 #
vertex $-1 $331 $430 #
straight-curve $-1 -19.988973815314235 23.056015767150839 2.2186519561578217 -1 0 0 I I #
point $-1 -38.012476577825439 23.056015767150839 2.2186519561578217 #
point $-1 -38.012476577825439 -23.056015767150839 2.2186519561578217 #
plane-surface $-1 0 0 5.2890149759496667 0 0 1 1 0 0 forward_v I I I I #
coedge $-1 $351 $350 $343 $431 forward $236 $-1 #
coedge $-1 $343 $238 $240 $347 reversed $143 $-1 #
coedge $-1 $238 $342 $341 $431 reversed $143 $-1 #
coedge $-1 $246 $241 $238 $345 forward $247 $-1 #
edge $-1 $348 -25.590915078359924 $432 -22.404930976759658 $344 $433 forward 7 unknown #
coedge $-1 $240 $239 $351 $434 reversed $89 $-1 #
edge $-1 $435 0 $348 5.4203200067180628 $342 $436 forward 7 unknown #
vertex $-1 $242 $437 #
straight-curve $-1 -2.423967095838286 -19.87003166555057 5.2890149759496676 -1 0 0 I I #
coedge $-1 $341 $243 $246 $355 reversed $236 $-1 #
coedge $-1 $243 $341 $346 $434 forward $236 $-1 #
vertex $-1 $244 $438 #
straight-curve $-1 1.9654710528030304 -23.056015767150839 25.105664426001997 0 0 1 I I #
straight-curve $-1 1.9654710528030304 -23.056015767150839 0.90388393120556998 0 -0.5877852410284794 -0.80901700255871778 I I #
edge $-1 $432 -11.661339436156174 $248 1.9654710528030304 $350 $439 forward 7 unknown #
point $-1 1.9654710528030304 -23.056015767150839 5.2890149759496667 #
point $-1 1.9654710528030304 -19.870031665550574 5.2890149759496667 #
edge $-1 $440 1 $440 0 $251 $-1 forward 7 unknown #
vertex $-1 $252 $441 #
ellipse-curve $-1 -8.9359773383643315 -19.429629958004554 1.6191024552139428 0 -0.80901700255871778 0.5877852410284794 1 0 0 1 I I #
point $-1 -7.9359773383643315 -21.463023716350705 3.0964494535776161 #
edge $-1 $442 1 $442 0 $255 $-1 forward 7 unknown #
vertex $-1 $256 $443 #
ellipse-curve $-1 -4.8479341916765719 -19.429629958004554 1.6191024552139428 0 -0.80901700255871778 0.5877852410284794 1 0 0 1 I I #
point $-1 -3.8479341916765719 -21.463023716350705 3.0964494535776161 #
edge $-1 $444 1 $444 0 $259 $-1 forward 7 unknown #
vertex $-1 $260 $445 #
ellipse-curve $-1 -0.75989104498881233 -19.429629958004554 1.6191024552139428 0 -0.80901700255871778 0.5877852410284794 1 0 0 1 I I #
point $-1 0.24010895501118767 -21.463023716350705 3.0964494535776161 #
plane-surface $-1 0 0 5.2890149759496667 0 0 1 1 0 0 forward_v I I I I #
coedge $-1 $446 $266 $271 $377 forward $172 $-1 #
coedge $-1 $266 $446 $374 $447 reversed $172 $-1 #
edge $-1 $375 19.816649450052331 $382 24.201780494796427 $266 $448 forward 7 unknown #
coedge $-1 $275 $269 $372 $447 forward $276 $-1 #
vertex $-1 $447 $449 #
straight-curve $-1 28.316608194472288 -45.460946743910498 5.2890149759496659 0 -1 0 I I #
edge $-1 $382 10.751601474996342 $380 24.37841196395555 $371 $450 forward 7 unknown #
coedge $-1 $379 $272 $275 $384 reversed $264 $-1 #
coedge $-1 $272 $378 $446 $451 forward $264 $-1 #
vertex $-1 $273 $452 #
straight-curve $-1 41.943418683431503 -19.288098325411621 6.0899775276878207 0 0.5877852410284794 0.80901700255871778 I I #
vertex $-1 $377 $453 #
straight-curve $-1 28.316608194472288 -23.056015767150839 0.90388393120556998 0 0.5877852410284794 0.80901700255871778 I I #
edge $-1 $454 -23.056015767150839 $277 -19.870031665550574 $378 $455 forward 7 unknown #
point $-1 41.943418683431496 -19.870031665550574 5.2890149759496667 #
point $-1 28.316608194472288 -19.870031665550574 5.2890149759496667 #
edge $-1 $456 1 $456 0 $280 $-1 forward 7 unknown #
vertex $-1 $281 $457 #
ellipse-curve $-1 31.041970292264139 -19.429629958004554 1.6191024552139428 0 -0.80901700255871778 0.5877852410284794 1 0 0 1 I I #
point $-1 32.041970292264139 -21.463023716350705 3.0964494535776161 #
edge $-1 $458 1 $458 0 $284 $-1 forward 7 unknown #
vertex $-1 $285 $459 #
ellipse-curve $-1 35.130013438951892 -19.429629958004554 1.6191024552139428 0 -0.80901700255871778 0.5877852410284794 1 0 0 1 I I #
point $-1 36.130013438951892 -21.463023716350705 3.0964494535776161 #
edge $-1 $460 1 $460 0 $288 $-1 forward 7 unknown #
vertex $-1 $289 $461 #
ellipse-curve $-1 39.218056585639658 -19.429629958004554 1.6191024552139428 0 -0.80901700255871778 0.5877852410284794 1 0 0 1 I I #
point $-1 40.218056585639658 -21.463023716350705 3.0964494535776161 #
plane-surface $-1 41.943418683431503 0 0 -1 0 0 0 0 1 forward_v I I I I #
coedge $-1 $297 $295 $299 $404 reversed $201 $-1 #
edge $-1 $310 -5.2890149759496667 $406 5.2890149759496667 $309 $462 forward 7 unknown #
vertex $-1 $404 $463 #
straight-curve $-1 -41.943418683431503 -23.056015767150839 0 0 0 -1 I I #
edge $-1 $402 -23.056015767150839 $406 23.056015767150839 $400 $464 forward 7 unknown #
straight-curve $-1 0 -23.056015767150839 -5.2890149759496667 -1 0 0 I I #
vertex $-1 $302 $465 #
straight-curve $-1 0 23.056015767150839 -5.2890149759496667 1 0 0 I I #
point $-1 41.943418683431503 23.056015767150839 -5.2890149759496667 #
point $-1 41.943418683431503 -23.056015767150839 -5.2890149759496667 #
straight-curve $-1 -41.943418683431503 0 5.2890149759496667 0 -1 0 I I #
point $-1 -41.943418683431503 23.056015767150839 5.2890149759496667 #
point $-1 -41.943418683431503 -23.056015767150839 5.2890149759496667 #
straight-curve $-1 41.943418683431503 -23.056015767150839 0 0 0 -1 I I #
straight-curve $-1 41.943418683431503 23.056015767150839 0 0 0 -1 I I #
plane-surface $-1 0 -23.056015767150839 0 0 1 0 0 0 1 forward_v I I I I #
coedge $-1 $466 $322 $332 $427 reversed $220 $-1 #
coedge $-1 $322 $466 $335 $429 forward $220 $-1 #
coedge $-1 $467 $325 $323 $419 forward $320 $-1 #
edge $-1 $420 38.012476577825439 $468 41.943418683431503 $323 $469 forward 7 unknown #
vertex $-1 $419 $470 #
straight-curve $-1 -38.012476577825439 23.056015767150839 1.8769167330268721 0 0 -1 I I #
coedge $-1 $325 $467 $327 $424 forward $320 $-1 #
straight-curve $-1 -38.012476577825439 0 5.2890149759496667 0 1 0 I I #
edge $-1 $471 -41.943418683431503 $329 -38.012476577825439 $327 $472 forward 7 unknown #
point $-1 -38.012476577825439 -23.056015767150839 5.2890149759496667 #
straight-curve $-1 -41.943418683431503 0 2.2186519561578217 0 -1 0 I I #
edge $-1 $471 -5.2890149759496667 $333 -2.2186519561578217 $416 $473 forward 7 unknown #
point $-1 -41.943418683431503 -23.056015767150839 2.2186519561578217 #
edge $-1 $468 -5.2890149759496667 $336 -2.2186519561578217 $335 $474 forward 7 unknown #
point $-1 -41.943418683431503 23.056015767150839 2.2186519561578217 #
edge $-1 $432 19.816649450052331 $435 24.201780494796427 $341 $475 forward 7 unknown #
vertex $-1 $355 $476 #
straight-curve $-1 -11.661339436156174 -45.460946743910498 5.2890149759496659 0 -1 0 I I #
edge $-1 $435 -9.2373723403178882 $352 4.3894381486413163 $351 $477 forward 7 unknown #
vertex $-1 $434 $478 #
straight-curve $-1 -11.661339436156174 -23.056015767150839 0.90388393120556998 0 0.5877852410284794 0.80901700255871778 I I #
point $-1 -11.661339436156174 -19.870031665550574 5.2890149759496667 #
point $-1 1.9654710528030304 -23.056015767150839 0.90388393120556998 #
straight-curve $-1 0 -23.056015767150839 5.2890149759496667 1 0 0 I I #
vertex $-1 $358 $479 #
point $-1 -7.9359773383643315 -19.429629958004554 1.6191024552139428 #
vertex $-1 $362 $480 #
point $-1 -3.8479341916765719 -19.429629958004554 1.6191024552139428 #
vertex $-1 $366 $481 #
point $-1 0.24010895501118767 -19.429629958004554 1.6191024552139428 #
coedge $-1 $372 $371 $379 $451 reversed $172 $-1 #
edge $-1 $375 28.316608194472288 $454 41.943418683431503 $372 $482 forward 7 unknown #
straight-curve $-1 28.316608194472288 -23.056015767150839 25.105664426001997 0 0 -1 I I #
point $-1 28.316608194472288 -23.056015767150839 5.2890149759496667 #
straight-curve $-1 17.565006719475946 -23.056015767150839 0.90388393120557176 1 0 0 I I #
edge $-1 $454 -5.2890149759496667 $380 -0.90388393120556998 $379 $483 forward 7 unknown #
point $-1 41.943418683431496 -23.056015767150839 0.90388393120556998 #
point $-1 28.316608194472288 -23.056015767150839 0.90388393120556998 #
vertex $-1 $384 $484 #
straight-curve $-1 41.943418683431503 0 5.2890149759496667 0 1 0 I I #
vertex $-1 $387 $485 #
point $-1 32.041970292264139 -19.429629958004554 1.6191024552139428 #
vertex $-1 $391 $486 #
point $-1 36.130013438951892 -19.429629958004554 1.6191024552139428 #
vertex $-1 $395 $487 #
point $-1 40.218056585639658 -19.429629958004554 1.6191024552139428 #
straight-curve $-1 -41.943418683431503 23.056015767150839 0 0 0 -1 I I #
point $-1 -41.943418683431503 -23.056015767150839 -5.2890149759496667 #
straight-curve $-1 -41.943418683431503 0 -5.2890149759496667 0 1 0 I I #
point $-1 -41.943418683431503 23.056015767150839 -5.2890149759496667 #
coedge $-1 $417 $416 $467 $488 reversed $220 $-1 #
coedge $-1 $422 $418 $466 $488 forward $320 $-1 #
vertex $-1 $419 $489 #
straight-curve $-1 0 23.056015767150839 5.2890149759496667 -1 0 0 I I #
point $-1 -38.012476577825439 23.056015767150839 5.2890149759496667 #
vertex $-1 $488 $490 #
straight-curve $-1 0 -23.056015767150839 5.2890149759496667 1 0 0 I I #
straight-curve $-1 -41.943418683431503 -23.056015767150839 0 0 0 -1 I I #
straight-curve $-1 -41.943418683431503 23.056015767150839 0 0 0 -1 I I #
straight-curve $-1 -11.661339436156174 -23.056015767150839 25.105664426001997 0 0 -1 I I #
point $-1 -11.661339436156174 -23.056015767150839 5.2890149759496667 #
straight-curve $-1 -2.423967095838286 -23.056015767150839 0.90388393120557176 1 0 0 I I #
point $-1 -11.661339436156174 -23.056015767150839 0.90388393120556998 #
point $-1 -8.9359773383643315 -18.620612955445836 1.0313172141854636 #
point $-1 -4.8479341916765719 -18.620612955445836 1.0313172141854636 #
point $-1 -0.75989104498881233 -18.620612955445836 1.0313172141854636 #
straight-curve $-1 0 -23.056015767150839 5.2890149759496667 1 0 0 I I #
straight-curve $-1 41.943418683431503 -23.056015767150839 0 0 0 -1 I I #
point $-1 41.943418683431503 -23.056015767150839 5.2890149759496667 #
point $-1 31.041970292264139 -18.620612955445836 1.0313172141854636 #
point $-1 35.130013438951892 -18.620612955445836 1.0313172141854636 #
point $-1 39.218056585639658 -18.620612955445836 1.0313172141854636 #
edge $-1 $468 -23.056015767150839 $471 23.056015767150839 $466 $491 forward 7 unknown #
point $-1 -41.943418683431503 23.056015767150839 5.2890149759496667 #
point $-1 -41.943418683431503 -23.056015767150839 5.2890149759496667 #
straight-curve $-1 -41.943418683431503 0 5.2890149759496667 0 -1 0 I I #
End-of-ACIS-data 