500 0 18 0           
7 Unknown 11 ACIS 5.0 NT 24 Thu Mar 25 16:15:10 1999 
-1 9.9999999999999995e-007 1e-010 
body $-1 $18 $-1 $19 #
body $-1 $20 $-1 $21 #
body $-1 $22 $-1 $23 #
body $-1 $24 $-1 $25 #
body $-1 $26 $-1 $27 #
body $-1 $28 $-1 $29 #
body $-1 $30 $-1 $31 #
body $-1 $32 $-1 $33 #
body $-1 $34 $-1 $35 #
body $-1 $36 $-1 $37 #
body $-1 $38 $-1 $39 #
body $-1 $40 $-1 $41 #
body $-1 $42 $-1 $43 #
body $-1 $44 $-1 $45 #
body $-1 $46 $-1 $47 #
body $-1 $48 $-1 $49 #
body $-1 $50 $-1 $51 #
body $-1 $52 $-1 $53 #
lump $-1 $-1 $54 $0 #
transform $-1 1 0 0 0 1 0 0 0 1 69.059724723044525 43.625631091868136 21.238054812807462 1 rotate no_reflect no_shear #
lump $-1 $-1 $55 $1 #
transform $-1 1 0 0 0 1 0 0 0 1 69.059724723044525 43.625631091868136 21.238054812807462 1 rotate no_reflect no_shear #
lump $-1 $-1 $56 $2 #
transform $-1 1 0 0 0 1 0 0 0 1 69.059724723044525 43.625631091868136 21.238054812807462 1 rotate no_reflect no_shear #
lump $-1 $-1 $57 $3 #
transform $-1 1 0 0 0 1 0 0 0 1 69.059724723044525 43.625631091868136 21.238054812807462 1 rotate no_reflect no_shear #
lump $-1 $-1 $58 $4 #
transform $-1 1 0 0 0 1 0 0 0 1 69.059724723044525 43.625631091868136 21.238054812807462 1 rotate no_reflect no_shear #
lump $-1 $-1 $59 $5 #
transform $-1 1 0 0 0 1 0 0 0 1 69.059724723044525 43.625631091868136 21.238054812807462 1 rotate no_reflect no_shear #
lump $-1 $-1 $60 $6 #
transform $-1 1 0 0 0 1 0 0 0 1 69.059724723044525 43.625631091868136 21.238054812807462 1 rotate no_reflect no_shear #
lump $-1 $-1 $61 $7 #
transform $-1 1 0 0 0 1 0 0 0 1 69.059724723044525 43.625631091868136 21.238054812807462 1 rotate no_reflect no_shear #
lump $-1 $-1 $62 $8 #
transform $-1 1 0 0 0 1 0 0 0 1 69.059724723044525 43.625631091868136 21.238054812807462 1 rotate no_reflect no_shear #
lump $-1 $-1 $63 $9 #
transform $-1 1 0 0 0 1 0 0 0 1 69.059724723044525 43.625631091868136 21.238054812807462 1 rotate no_reflect no_shear #
lump $-1 $-1 $64 $10 #
transform $-1 1 0 0 0 1 0 0 0 1 69.059724723044525 43.625631091868136 21.238054812807462 1 rotate no_reflect no_shear #
lump $-1 $-1 $65 $11 #
transform $-1 1 0 0 0 1 0 0 0 1 69.059724723044525 43.625631091868136 21.238054812807462 1 rotate no_reflect no_shear #
lump $-1 $-1 $66 $12 #
transform $-1 1 0 0 0 1 0 0 0 1 69.059724723044525 43.625631091868136 21.238054812807462 1 rotate no_reflect no_shear #
lump $-1 $-1 $67 $13 #
transform $-1 1 0 0 0 1 0 0 0 1 69.059724723044525 43.625631091868136 21.238054812807462 1 rotate no_reflect no_shear #
lump $-1 $-1 $68 $14 #
transform $-1 1 0 0 0 1 0 0 0 1 69.059724723044525 43.625631091868136 21.238054812807462 1 rotate no_reflect no_shear #
lump $-1 $-1 $69 $15 #
transform $-1 1 0 0 0 1 0 0 0 1 69.059724723044525 43.625631091868136 21.238054812807462 1 rotate no_reflect no_shear #
lump $-1 $-1 $70 $16 #
transform $-1 1 0 0 0 1 0 0 0 1 69.059724723044525 43.625631091868136 21.238054812807462 1 rotate no_reflect no_shear #
lump $-1 $-1 $71 $17 #
transform $-1 1 0 0 0 1 0 0 0 1 69.059724723044525 43.625631091868136 21.238054812807462 1 rotate no_reflect no_shear #
shell $-1 $-1 $-1 $72 $-1 $18 #
shell $-1 $-1 $-1 $73 $-1 $20 #
shell $-1 $-1 $-1 $74 $-1 $22 #
shell $-1 $-1 $-1 $75 $-1 $24 #
shell $-1 $-1 $-1 $76 $-1 $26 #
shell $-1 $-1 $-1 $77 $-1 $28 #
shell $-1 $-1 $-1 $78 $-1 $30 #
shell $-1 $-1 $-1 $79 $-1 $32 #
shell $-1 $-1 $-1 $80 $-1 $34 #
shell $-1 $-1 $-1 $81 $-1 $36 #
shell $-1 $-1 $-1 $82 $-1 $38 #
shell $-1 $-1 $-1 $83 $-1 $40 #
shell $-1 $-1 $-1 $84 $-1 $42 #
shell $-1 $-1 $-1 $85 $-1 $44 #
shell $-1 $-1 $-1 $86 $-1 $46 #
shell $-1 $-1 $-1 $87 $-1 $48 #
shell $-1 $-1 $-1 $88 $-1 $50 #
shell $-1 $-1 $-1 $89 $-1 $52 #
face $-1 $90 $91 $54 $-1 $92 forward single #
face $-1 $93 $94 $55 $-1 $95 forward single #
face $-1 $96 $97 $56 $-1 $98 reversed single #
face $-1 $99 $100 $57 $-1 $101 forward single #
face $-1 $102 $103 $58 $-1 $104 forward single #
face $-1 $105 $106 $59 $-1 $107 forward single #
face $-1 $108 $109 $60 $-1 $110 reversed single #
face $-1 $111 $112 $61 $-1 $113 forward single #
face $-1 $114 $115 $62 $-1 $116 forward single #
face $-1 $117 $118 $63 $-1 $119 reversed single #
face $-1 $120 $121 $64 $-1 $122 forward single #
face $-1 $123 $124 $65 $-1 $125 forward single #
face $-1 $126 $127 $66 $-1 $128 reversed single #
face $-1 $129 $130 $67 $-1 $131 forward single #
face $-1 $132 $133 $68 $-1 $134 forward single #
face $-1 $135 $136 $69 $-1 $137 reversed single #
face $-1 $138 $139 $70 $-1 $140 forward single #
face $-1 $141 $142 $71 $-1 $143 forward single #
face $-1 $144 $145 $54 $-1 $146 reversed single #
loop $-1 $-1 $147 $72 #
plane-surface $-1 0 0 21.238054812807462 0 0 1 1 0 0 forward_v I I I I #
face $-1 $148 $149 $55 $-1 $150 reversed single #
loop $-1 $-1 $151 $73 #
plane-surface $-1 0 -34.078403734280428 -11.277616459270753 0 0 1 1 0 0 forward_v I I I I #
face $-1 $152 $153 $56 $-1 $154 reversed single #
loop $-1 $-1 $155 $74 #
plane-surface $-1 96.244464655984444 34.056803875534001 211.23169463462062 0 1 0 0.79863551827123203 0 0.60181501223851219 forward_v I I I I #
face $-1 $156 $157 $57 $-1 $158 forward single #
loop $-1 $159 $160 $75 #
cone-surface $-1 67.077054388645209 35.97056931880082 19.001600692701956 -0.79863551827123203 0 -0.60181501223851219 0.3009075061192561 0 -0.39931775913561601 1 I I 0 1 0.5 forward I I I I #
face $-1 $161 $162 $58 $-1 $163 forward single #
loop $-1 $164 $165 $76 #
cone-surface $-1 67.077054388645209 38.841217483701065 19.001600692701956 -0.79863551827123203 0 -0.60181501223851219 0.3009075061192561 0 -0.39931775913561601 1 I I 0 1 0.5 forward I I I I #
face $-1 $166 $167 $59 $-1 $168 forward single #
loop $-1 $169 $170 $77 #
cone-surface $-1 67.077054388645209 41.711865648601311 19.001600692701956 -0.79863551827123203 0 -0.60181501223851219 0.3009075061192561 0 -0.39931775913561601 1 I I 0 1 0.5 forward I I I I #
face $-1 $171 $172 $60 $-1 $173 reversed single #
loop $-1 $-1 $174 $78 #
plane-surface $-1 -163.2569638579447 -21.746826625014286 101.02864112810971 0 1 0 -0.68199836817093118 0 0.7313536940579346 forward_v I I I I #
face $-1 $175 $176 $61 $-1 $177 forward single #
loop $-1 $178 $179 $79 #
cone-surface $-1 -56.551969644187878 -18.563185298689511 9.4166291272280276 0.68199836817093118 0 -0.7313536940579346 0.7313536940579346 0 0.68199836817093118 1 I I 0 1 1 forward I I I I #
face $-1 $180 $181 $62 $-1 $182 forward single #
loop $-1 $183 $184 $80 #
cone-surface $-1 -56.551969644187878 -13.787723309202349 9.4166291272280276 0.68199836817093118 0 -0.7313536940579346 0.7313536940579346 0 0.68199836817093118 1 I I 0 1 1 forward I I I I #
face $-1 $185 $186 $63 $-1 $187 reversed single #
loop $-1 $-1 $188 $81 #
plane-surface $-1 -163.2569638579447 -4.707624757874072 101.02864112810971 0 1 0 -0.68199836817093118 0 0.7313536940579346 forward_v I I I I #
face $-1 $189 $190 $64 $-1 $191 forward single #
loop $-1 $192 $193 $82 #
cone-surface $-1 -56.551969644187878 -1.5239834315492971 9.4166291272280276 0.68199836817093118 0 -0.7313536940579346 0.7313536940579346 0 0.68199836817093118 1 I I 0 1 1 forward I I I I #
face $-1 $194 $195 $65 $-1 $196 forward single #
loop $-1 $197 $198 $83 #
cone-surface $-1 -56.551969644187878 3.2514785579378653 9.4166291272280276 0.68199836817093118 0 -0.7313536940579346 0.7313536940579346 0 0.68199836817093118 1 I I 0 1 1 forward I I I I #
face $-1 $199 $200 $66 $-1 $201 reversed single #
loop $-1 $-1 $202 $84 #
plane-surface $-1 -163.2569638579447 12.331577109266142 101.02864112810971 0 1 0 -0.68199836817093118 0 0.7313536940579346 forward_v I I I I #
face $-1 $203 $204 $67 $-1 $205 forward single #
loop $-1 $206 $207 $85 #
cone-surface $-1 -56.551969644187878 15.515218435590917 9.4166291272280276 0.68199836817093118 0 -0.7313536940579346 0.7313536940579346 0 0.68199836817093118 1 I I 0 1 1 forward I I I I #
face $-1 $208 $209 $68 $-1 $210 forward single #
loop $-1 $211 $212 $86 #
cone-surface $-1 -56.551969644187878 20.290680425078079 9.4166291272280276 0.68199836817093118 0 -0.7313536940579346 0.7313536940579346 0 0.68199836817093118 1 I I 0 1 1 forward I I I I #
face $-1 $213 $214 $69 $-1 $215 reversed single #
loop $-1 $-1 $216 $87 #
plane-surface $-1 -163.2569638579447 29.370778976406356 101.02864112810971 0 1 0 -0.68199836817093118 0 0.7313536940579346 forward_v I I I I #
face $-1 $217 $218 $70 $-1 $219 forward single #
loop $-1 $220 $221 $88 #
cone-surface $-1 -56.551969644187878 32.554420302731138 9.4166291272280276 0.68199836817093118 0 -0.7313536940579346 0.7313536940579346 0 0.68199836817093118 1 I I 0 1 1 forward I I I I #
face $-1 $222 $223 $71 $-1 $224 forward single #
loop $-1 $225 $226 $89 #
cone-surface $-1 -56.551969644187878 37.329882292218294 9.4166291272280276 0.68199836817093118 0 -0.7313536940579346 0.7313536940579346 0 0.68199836817093118 1 I I 0 1 1 forward I I I I #
face $-1 $227 $228 $54 $-1 $229 reversed single #
loop $-1 $-1 $230 $90 #
plane-surface $-1 0 0 -21.238054812807462 0 0 1 1 0 0 forward_v I I I I #
coedge $-1 $231 $232 $233 $234 forward $91 $-1 #
face $-1 $235 $236 $55 $-1 $237 reversed single #
loop $-1 $-1 $238 $93 #
plane-surface $-1 0 -24.53117637669272 -16.257835636039108 0 -1 0 0 0 -1 forward_v I I I I #
coedge $-1 $239 $240 $241 $242 reversed $94 $-1 #
face $-1 $243 $244 $56 $-1 $245 forward single #
loop $-1 $-1 $246 $96 #
plane-surface $-1 -14.06263343573012 38.841217483701065 128.10933647584596 0.79863551827123203 0 0.60181501223851219 0.60181501223851219 0 -0.79863551827123203 forward_v I I I I #
coedge $-1 $247 $248 $249 $250 reversed $97 $-1 #
face $-1 $-1 $251 $57 $-1 $252 forward single #
loop $-1 $253 $254 $99 #
cone-surface $-1 66.18926183049129 35.97056931880082 18.332601033874852 -0.79863551827123203 0 -0.60181501223851219 0.15045375305962805 0 -0.19965887956780801 1 I I -0.70710678118654746 0.70710678118654746 0.25 forward I I I I #
loop $-1 $-1 $255 $75 #
coedge $-1 $160 $160 $256 $257 reversed $100 $-1 #
face $-1 $-1 $258 $58 $-1 $259 forward single #
loop $-1 $260 $261 $102 #
cone-surface $-1 66.18926183049129 38.841217483701065 18.332601033874852 -0.79863551827123203 0 -0.60181501223851219 0.15045375305962805 0 -0.19965887956780801 1 I I -0.70710678118654746 0.70710678118654746 0.25 forward I I I I #
loop $-1 $-1 $262 $76 #
coedge $-1 $165 $165 $263 $264 reversed $103 $-1 #
face $-1 $-1 $265 $59 $-1 $266 forward single #
loop $-1 $267 $268 $105 #
cone-surface $-1 66.18926183049129 41.711865648601311 18.332601033874852 -0.79863551827123203 0 -0.60181501223851219 0.15045375305962805 0 -0.19965887956780801 1 I I -0.70710678118654746 0.70710678118654746 0.25 forward I I I I #
loop $-1 $-1 $269 $77 #
coedge $-1 $170 $170 $270 $271 reversed $106 $-1 #
face $-1 $272 $273 $60 $-1 $274 reversed single #
loop $-1 $-1 $275 $108 #
plane-surface $-1 -69.059724723044539 -16.175454303945926 0.014471554464336123 -0.68199836817093118 0 0.7313536940579346 0.7313536940579346 0 0.68199836817093118 forward_v I I I I #
coedge $-1 $276 $277 $278 $279 reversed $109 $-1 #
face $-1 $-1 $280 $61 $-1 $281 forward single #
loop $-1 $282 $283 $111 #
cone-surface $-1 -55.082968428723042 -18.563185298689511 7.841318223791184 0.68199836817093118 0 -0.7313536940579346 0.3656768470289673 0 0.34099918408546559 1 I I -0.70710678118654746 0.70710678118654746 0.5 forward I I I I #
loop $-1 $-1 $284 $79 #
coedge $-1 $179 $179 $285 $286 reversed $112 $-1 #
face $-1 $-1 $287 $62 $-1 $288 forward single #
loop $-1 $289 $290 $114 #
cone-surface $-1 -55.082968428723042 -13.787723309202349 7.841318223791184 0.68199836817093118 0 -0.7313536940579346 0.3656768470289673 0 0.34099918408546559 1 I I -0.70710678118654746 0.70710678118654746 0.5 forward I I I I #
loop $-1 $-1 $291 $80 #
coedge $-1 $184 $184 $292 $293 reversed $115 $-1 #
face $-1 $294 $295 $63 $-1 $296 reversed single #
loop $-1 $-1 $297 $117 #
plane-surface $-1 -69.059724723044539 0.86374756319428769 0.014471554464336123 -0.68199836817093118 0 0.7313536940579346 0.7313536940579346 0 0.68199836817093118 forward_v I I I I #
coedge $-1 $298 $299 $300 $301 reversed $118 $-1 #
face $-1 $-1 $302 $64 $-1 $303 forward single #
loop $-1 $304 $305 $120 #
cone-surface $-1 -55.082968428723042 -1.5239834315492971 7.841318223791184 0.68199836817093118 0 -0.7313536940579346 0.3656768470289673 0 0.34099918408546559 1 I I -0.70710678118654746 0.70710678118654746 0.5 forward I I I I #
loop $-1 $-1 $306 $82 #
coedge $-1 $193 $193 $307 $308 reversed $121 $-1 #
face $-1 $-1 $309 $65 $-1 $310 forward single #
loop $-1 $311 $312 $123 #
cone-surface $-1 -55.082968428723042 3.2514785579378653 7.841318223791184 0.68199836817093118 0 -0.7313536940579346 0.3656768470289673 0 0.34099918408546559 1 I I -0.70710678118654746 0.70710678118654746 0.5 forward I I I I #
loop $-1 $-1 $313 $83 #
coedge $-1 $198 $198 $314 $315 reversed $124 $-1 #
face $-1 $316 $317 $66 $-1 $318 reversed single #
loop $-1 $-1 $319 $126 #
plane-surface $-1 -69.059724723044539 17.902949430334502 0.014471554464336123 -0.68199836817093118 0 0.7313536940579346 0.7313536940579346 0 0.68199836817093118 forward_v I I I I #
coedge $-1 $320 $321 $322 $323 reversed $127 $-1 #
face $-1 $-1 $324 $67 $-1 $325 forward single #
loop $-1 $326 $327 $129 #
cone-surface $-1 -55.082968428723042 15.515218435590917 7.841318223791184 0.68199836817093118 0 -0.7313536940579346 0.3656768470289673 0 0.34099918408546559 1 I I -0.70710678118654746 0.70710678118654746 0.5 forward I I I I #
loop $-1 $-1 $328 $85 #
coedge $-1 $207 $207 $329 $330 reversed $130 $-1 #
face $-1 $-1 $331 $68 $-1 $332 forward single #
loop $-1 $333 $334 $132 #
cone-surface $-1 -55.082968428723042 20.290680425078079 7.841318223791184 0.68199836817093118 0 -0.7313536940579346 0.3656768470289673 0 0.34099918408546559 1 I I -0.70710678118654746 0.70710678118654746 0.5 forward I I I I #
loop $-1 $-1 $335 $86 #
coedge $-1 $212 $212 $336 $337 reversed $133 $-1 #
face $-1 $338 $339 $69 $-1 $340 reversed single #
loop $-1 $-1 $341 $135 #
plane-surface $-1 -69.059724723044539 34.942151297474716 0.014471554464336123 -0.68199836817093118 0 0.7313536940579346 0.7313536940579346 0 0.68199836817093118 forward_v I I I I #
coedge $-1 $342 $343 $344 $345 reversed $136 $-1 #
face $-1 $-1 $346 $70 $-1 $347 forward single #
loop $-1 $348 $349 $138 #
cone-surface $-1 -55.082968428723042 32.554420302731138 7.841318223791184 0.68199836817093118 0 -0.7313536940579346 0.3656768470289673 0 0.34099918408546559 1 I I -0.70710678118654746 0.70710678118654746 0.5 forward I I I I #
loop $-1 $-1 $350 $88 #
coedge $-1 $221 $221 $351 $352 reversed $139 $-1 #
face $-1 $-1 $353 $71 $-1 $354 forward single #
loop $-1 $355 $356 $141 #
cone-surface $-1 -55.082968428723042 37.329882292218294 7.841318223791184 0.68199836817093118 0 -0.7313536940579346 0.3656768470289673 0 0.34099918408546559 1 I I -0.70710678118654746 0.70710678118654746 0.5 forward I I I I #
loop $-1 $-1 $357 $89 #
coedge $-1 $226 $226 $358 $359 reversed $142 $-1 #
face $-1 $360 $361 $54 $-1 $362 reversed single #
loop $-1 $-1 $363 $144 #
plane-surface $-1 0 -43.625631091868136 0 0 1 0 0 0 1 forward_v I I I I #
coedge $-1 $364 $365 $366 $367 forward $145 $-1 #
coedge $-1 $368 $147 $369 $370 forward $91 $-1 #
coedge $-1 $147 $368 $371 $372 forward $91 $-1 #
coedge $-1 $373 $374 $147 $234 reversed $375 $-1 #
edge $-1 $376 -43.625631091868136 $377 43.625631091868136 $233 $378 forward 7 unknown #
face $-1 $379 $380 $55 $-1 $381 reversed single #
loop $-1 $-1 $382 $148 #
plane-surface $-1 0 0 -21.238054812807462 0 0 1 1 0 0 forward_v I I I I #
coedge $-1 $383 $384 $385 $386 reversed $149 $-1 #
coedge $-1 $387 $151 $384 $388 forward $94 $-1 #
coedge $-1 $151 $387 $389 $390 reversed $94 $-1 #
coedge $-1 $391 $385 $151 $242 forward $380 $-1 #
edge $-1 $392 7.4919745095525059 $393 26.586429224727922 $241 $394 forward 7 unknown #
face $-1 $395 $396 $56 $-1 $397 reversed single #
loop $-1 $-1 $398 $152 #
plane-surface $-1 0 0 21.238054812807462 0 0 1 1 0 0 forward_v I I I I #
coedge $-1 $399 $400 $401 $402 reversed $153 $-1 #
coedge $-1 $248 $155 $403 $404 reversed $97 $-1 #
coedge $-1 $155 $247 $399 $405 reversed $97 $-1 #
coedge $-1 $401 $406 $155 $250 forward $407 $-1 #
edge $-1 $408 84.37779250450285 $409 87.813608933178912 $249 $410 forward 7 unknown #
loop $-1 $-1 $256 $156 #
plane-surface $-1 -14.06263343573012 38.841217483701065 128.10933647584596 0.79863551827123203 0 0.60181501223851219 0.60181501223851219 0 -0.79863551827123203 forward_v I I I I #
loop $-1 $-1 $411 $99 #
coedge $-1 $254 $254 $255 $412 reversed $157 $-1 #
coedge $-1 $255 $255 $254 $412 forward $159 $-1 #
coedge $-1 $256 $256 $160 $257 forward $251 $-1 #
edge $-1 $413 0 $413 6.2831853071796004 $256 $414 forward 7 unknown #
loop $-1 $-1 $263 $161 #
plane-surface $-1 -14.06263343573012 38.841217483701065 128.10933647584596 0.79863551827123203 0 0.60181501223851219 0.60181501223851219 0 -0.79863551827123203 forward_v I I I I #
loop $-1 $-1 $415 $102 #
coedge $-1 $261 $261 $262 $416 reversed $162 $-1 #
coedge $-1 $262 $262 $261 $416 forward $164 $-1 #
coedge $-1 $263 $263 $165 $264 forward $258 $-1 #
edge $-1 $417 0 $417 6.2831853071796004 $263 $418 forward 7 unknown #
loop $-1 $-1 $270 $166 #
plane-surface $-1 -14.06263343573012 38.841217483701065 128.10933647584596 0.79863551827123203 0 0.60181501223851219 0.60181501223851219 0 -0.79863551827123203 forward_v I I I I #
loop $-1 $-1 $419 $105 #
coedge $-1 $268 $268 $269 $420 reversed $167 $-1 #
coedge $-1 $269 $269 $268 $420 forward $169 $-1 #
coedge $-1 $270 $270 $170 $271 forward $265 $-1 #
edge $-1 $421 0 $421 6.2831853071796004 $270 $422 forward 7 unknown #
face $-1 $423 $424 $60 $-1 $425 reversed single #
loop $-1 $-1 $426 $171 #
plane-surface $-1 -163.2569638579447 -10.604081982877567 101.02864112810971 0 -1 0 0.68199836817093118 0 -0.7313536940579346 forward_v I I I I #
coedge $-1 $427 $428 $429 $430 reversed $172 $-1 #
coedge $-1 $277 $174 $431 $432 reversed $109 $-1 #
coedge $-1 $174 $276 $427 $433 reversed $109 $-1 #
coedge $-1 $429 $434 $174 $279 forward $435 $-1 #
edge $-1 $436 12.568757205927824 $437 35.328263300882384 $278 $438 forward 7 unknown #
loop $-1 $-1 $285 $175 #
plane-surface $-1 -69.059724723044539 -16.175454303945926 0.014471554464336123 -0.68199836817093118 0 0.7313536940579346 0.7313536940579346 0 0.68199836817093118 forward_v I I I I #
loop $-1 $-1 $439 $111 #
coedge $-1 $283 $283 $284 $440 reversed $176 $-1 #
coedge $-1 $284 $284 $283 $440 forward $178 $-1 #
coedge $-1 $285 $285 $179 $286 forward $280 $-1 #
edge $-1 $441 0 $441 6.2831853071796004 $285 $442 forward 7 unknown #
loop $-1 $-1 $292 $180 #
plane-surface $-1 -69.059724723044539 -16.175454303945926 0.014471554464336123 -0.68199836817093118 0 0.7313536940579346 0.7313536940579346 0 0.68199836817093118 forward_v I I I I #
loop $-1 $-1 $443 $114 #
coedge $-1 $290 $290 $291 $444 reversed $181 $-1 #
coedge $-1 $291 $291 $290 $444 forward $183 $-1 #
coedge $-1 $292 $292 $184 $293 forward $287 $-1 #
edge $-1 $445 0 $445 6.2831853071796004 $292 $446 forward 7 unknown #
face $-1 $447 $448 $63 $-1 $449 forward single #
loop $-1 $-1 $450 $185 #
plane-surface $-1 -163.2569638579447 6.4351198842626474 101.02864112810971 0 -1 0 0.68199836817093118 0 -0.7313536940579346 forward_v I I I I #
coedge $-1 $451 $452 $453 $454 reversed $186 $-1 #
coedge $-1 $299 $188 $455 $456 reversed $118 $-1 #
coedge $-1 $188 $298 $451 $457 reversed $118 $-1 #
coedge $-1 $453 $458 $188 $301 forward $448 $-1 #
edge $-1 $459 12.568757205927824 $460 35.328263300882384 $300 $461 forward 7 unknown #
loop $-1 $-1 $307 $189 #
plane-surface $-1 -69.059724723044539 0.86374756319428769 0.014471554464336123 -0.68199836817093118 0 0.7313536940579346 0.7313536940579346 0 0.68199836817093118 forward_v I I I I #
loop $-1 $-1 $462 $120 #
coedge $-1 $305 $305 $306 $463 reversed $190 $-1 #
coedge $-1 $306 $306 $305 $463 forward $192 $-1 #
coedge $-1 $307 $307 $193 $308 forward $302 $-1 #
edge $-1 $464 0 $464 6.2831853071796004 $307 $465 forward 7 unknown #
loop $-1 $-1 $314 $194 #
plane-surface $-1 -69.059724723044539 0.86374756319428769 0.014471554464336123 -0.68199836817093118 0 0.7313536940579346 0.7313536940579346 0 0.68199836817093118 forward_v I I I I #
loop $-1 $-1 $466 $123 #
coedge $-1 $312 $312 $313 $467 reversed $195 $-1 #
coedge $-1 $313 $313 $312 $467 forward $197 $-1 #
coedge $-1 $314 $314 $198 $315 forward $309 $-1 #
edge $-1 $468 0 $468 6.2831853071796004 $314 $469 forward 7 unknown #
face $-1 $470 $471 $66 $-1 $472 forward single #
loop $-1 $-1 $473 $199 #
plane-surface $-1 -163.2569638579447 23.474321751402861 101.02864112810971 0 -1 0 0.68199836817093118 0 -0.7313536940579346 forward_v I I I I #
coedge $-1 $474 $475 $476 $477 reversed $200 $-1 #
coedge $-1 $321 $202 $478 $479 reversed $127 $-1 #
coedge $-1 $202 $320 $474 $480 reversed $127 $-1 #
coedge $-1 $476 $481 $202 $323 forward $471 $-1 #
edge $-1 $482 12.568757205927824 $483 35.328263300882384 $322 $484 forward 7 unknown #
loop $-1 $-1 $329 $203 #
plane-surface $-1 -69.059724723044539 17.902949430334502 0.014471554464336123 -0.68199836817093118 0 0.7313536940579346 0.7313536940579346 0 0.68199836817093118 forward_v I I I I #
loop $-1 $-1 $485 $129 #
coedge $-1 $327 $327 $328 $486 reversed $204 $-1 #
coedge $-1 $328 $328 $327 $486 forward $206 $-1 #
coedge $-1 $329 $329 $207 $330 forward $324 $-1 #
edge $-1 $487 0 $487 6.2831853071796004 $329 $488 forward 7 unknown #
loop $-1 $-1 $336 $208 #
plane-surface $-1 -69.059724723044539 17.902949430334502 0.014471554464336123 -0.68199836817093118 0 0.7313536940579346 0.7313536940579346 0 0.68199836817093118 forward_v I I I I #
loop $-1 $-1 $489 $132 #
coedge $-1 $334 $334 $335 $490 reversed $209 $-1 #
coedge $-1 $335 $335 $334 $490 forward $211 $-1 #
coedge $-1 $336 $336 $212 $337 forward $331 $-1 #
edge $-1 $491 0 $491 6.2831853071796004 $336 $492 forward 7 unknown #
face $-1 $493 $494 $69 $-1 $495 forward single #
loop $-1 $-1 $496 $213 #
plane-surface $-1 -163.2569638579447 40.513523618543076 101.02864112810971 0 -1 0 0.68199836817093118 0 -0.7313536940579346 forward_v I I I I #
coedge $-1 $497 $498 $499 $500 reversed $214 $-1 #
coedge $-1 $343 $216 $501 $502 reversed $136 $-1 #
coedge $-1 $216 $342 $497 $503 reversed $136 $-1 #
coedge $-1 $499 $504 $216 $345 forward $494 $-1 #
edge $-1 $505 12.568757205927824 $506 35.328263300882384 $344 $507 forward 7 unknown #
loop $-1 $-1 $351 $217 #
plane-surface $-1 -69.059724723044539 34.942151297474716 0.014471554464336123 -0.68199836817093118 0 0.7313536940579346 0.7313536940579346 0 0.68199836817093118 forward_v I I I I #
loop $-1 $-1 $508 $138 #
coedge $-1 $349 $349 $350 $509 reversed $218 $-1 #
coedge $-1 $350 $350 $349 $509 forward $220 $-1 #
coedge $-1 $351 $351 $221 $352 forward $346 $-1 #
edge $-1 $510 0 $510 6.2831853071796004 $351 $511 forward 7 unknown #
loop $-1 $-1 $358 $222 #
plane-surface $-1 -69.059724723044539 34.942151297474716 0.014471554464336123 -0.68199836817093118 0 0.7313536940579346 0.7313536940579346 0 0.68199836817093118 forward_v I I I I #
loop $-1 $-1 $512 $141 #
coedge $-1 $356 $356 $357 $513 reversed $223 $-1 #
coedge $-1 $357 $357 $356 $513 forward $225 $-1 #
coedge $-1 $358 $358 $226 $359 forward $353 $-1 #
edge $-1 $514 0 $514 6.2831853071796004 $358 $515 forward 7 unknown #
face $-1 $516 $517 $54 $-1 $518 reversed single #
loop $-1 $-1 $519 $227 #
plane-surface $-1 -69.059724723044525 0 0 1 0 0 0 0 -1 forward_v I I I I #
coedge $-1 $520 $371 $521 $522 forward $228 $-1 #
coedge $-1 $523 $230 $520 $524 forward $145 $-1 #
coedge $-1 $230 $523 $525 $526 forward $145 $-1 #
coedge $-1 $374 $373 $230 $367 reversed $375 $-1 #
edge $-1 $527 -43.625631091868136 $528 43.625631091868136 $366 $529 forward 7 unknown #
coedge $-1 $232 $231 $530 $531 forward $91 $-1 #
coedge $-1 $532 $533 $231 $370 reversed $517 $-1 #
edge $-1 $377 -69.059724723044525 $534 69.059724723044525 $369 $535 forward 7 unknown #
coedge $-1 $363 $536 $232 $372 reversed $228 $-1 #
edge $-1 $537 -69.059724723044525 $376 69.059724723044525 $371 $538 forward 7 unknown #
coedge $-1 $366 $233 $536 $539 forward $375 $-1 #
coedge $-1 $233 $366 $532 $540 reversed $375 $-1 #
loop $-1 $-1 $373 $516 #
vertex $-1 $234 $541 #
vertex $-1 $234 $542 #
straight-curve $-1 69.059724723044525 0 21.238054812807462 0 1 0 I I #
face $-1 $543 $544 $55 $-1 $545 reversed single #
loop $-1 $-1 $385 $235 #
plane-surface $-1 69.059724723044525 0 0 -1 0 0 0 0 1 forward_v I I I I #
coedge $-1 $546 $547 $383 $548 forward $236 $-1 #
coedge $-1 $549 $238 $382 $548 reversed $149 $-1 #
coedge $-1 $238 $549 $239 $388 reversed $149 $-1 #
coedge $-1 $241 $550 $238 $386 forward $380 $-1 #
edge $-1 $551 -13.109136994787908 $392 -3.1486986412511992 $385 $552 forward 7 unknown #
coedge $-1 $240 $239 $553 $554 reversed $94 $-1 #
edge $-1 $392 -69.059724723044525 $555 69.059724723044525 $384 $556 forward 7 unknown #
coedge $-1 $557 $558 $240 $390 forward $544 $-1 #
edge $-1 $393 -69.059724723044525 $559 69.059724723044525 $389 $560 forward 7 unknown #
coedge $-1 $550 $241 $558 $561 forward $380 $-1 #
vertex $-1 $242 $562 #
vertex $-1 $561 $563 #
straight-curve $-1 69.059724723044525 -17.039201867140214 -11.277616459270753 0 -1 0 I I #
face $-1 $-1 $407 $56 $-1 $564 reversed single #
loop $-1 $-1 $565 $243 #
plane-surface $-1 0 43.625631091868136 0 0 -1 0 0 0 -1 forward_v I I I I #
coedge $-1 $403 $566 $567 $568 forward $244 $-1 #
coedge $-1 $567 $246 $248 $405 forward $153 $-1 #
coedge $-1 $246 $567 $565 $569 reversed $153 $-1 #
coedge $-1 $570 $249 $246 $402 forward $407 $-1 #
edge $-1 $409 14.636195133683469 $571 24.205022350017604 $401 $572 forward 7 unknown #
coedge $-1 $573 $398 $247 $404 forward $244 $-1 #
edge $-1 $574 18.348419083425895 $408 20.937492395052303 $403 $575 forward 7 unknown #
edge $-1 $409 -138.11944944608905 $574 -133.81734122516565 $248 $576 forward 7 unknown #
coedge $-1 $249 $570 $573 $577 reversed $407 $-1 #
loop $-1 $-1 $401 $395 #
vertex $-1 $577 $578 #
vertex $-1 $250 $579 #
straight-curve $-1 69.059724723044525 34.056803875534001 105.61584731731031 0 0 -1 I I #
coedge $-1 $411 $411 $-1 $580 reversed $253 $-1 #
edge $-1 $581 0 $581 6.2831853071796004 $254 $582 forward 7 unknown #
vertex $-1 $257 $583 #
ellipse-curve $-1 67.765188067231335 35.97056931880082 19.520146598469442 0.79863551827123203 0 0.60181501223851219 0.3009075061192561 0 -0.39931775913561601 1 I I #
coedge $-1 $415 $415 $-1 $584 reversed $260 $-1 #
edge $-1 $585 0 $585 6.2831853071796004 $261 $586 forward 7 unknown #
vertex $-1 $264 $587 #
ellipse-curve $-1 67.765188067231335 38.841217483701065 19.520146598469442 0.79863551827123203 0 0.60181501223851219 0.3009075061192561 0 -0.39931775913561601 1 I I #
coedge $-1 $419 $419 $-1 $588 reversed $267 $-1 #
edge $-1 $589 0 $589 6.2831853071796004 $268 $590 forward 7 unknown #
vertex $-1 $271 $591 #
ellipse-curve $-1 67.765188067231335 41.711865648601311 19.520146598469442 0.79863551827123203 0 0.60181501223851219 0.3009075061192561 0 -0.39931775913561601 1 I I #
face $-1 $-1 $435 $60 $-1 $592 forward single #
loop $-1 $-1 $593 $272 #
plane-surface $-1 -69.059724723044525 0 0 1 0 0 0 0 -1 forward_v I I I I #
coedge $-1 $594 $595 $596 $597 reversed $273 $-1 #
coedge $-1 $598 $275 $277 $433 forward $172 $-1 #
coedge $-1 $275 $598 $594 $599 forward $172 $-1 #
coedge $-1 $596 $278 $275 $430 forward $435 $-1 #
edge $-1 $437 -13.659099473041323 $600 -2.5163548309046035 $429 $601 forward 7 unknown #
coedge $-1 $602 $603 $276 $432 forward $424 $-1 #
edge $-1 $604 -50.499849009590505 $436 -29.276265751247394 $431 $605 forward 7 unknown #
edge $-1 $437 -31.119698006409013 $604 -1.9430698363111829e-014 $277 $606 forward 7 unknown #
coedge $-1 $278 $596 $602 $607 forward $435 $-1 #
loop $-1 $-1 $596 $423 #
vertex $-1 $432 $608 #
vertex $-1 $279 $609 #
straight-curve $-1 -81.628481928972349 -21.746826625014286 21.238054812807462 1 0 0 I I #
coedge $-1 $439 $439 $-1 $610 reversed $282 $-1 #
edge $-1 $611 0 $611 6.2831853071796004 $283 $612 forward 7 unknown #
vertex $-1 $286 $613 #
ellipse-curve $-1 -57.679971675567245 -18.563185298689511 10.626263183635904 -0.68199836817093118 0 0.7313536940579346 0.7313536940579346 0 0.68199836817093118 1 I I #
coedge $-1 $443 $443 $-1 $614 reversed $289 $-1 #
edge $-1 $615 0 $615 6.2831853071796004 $290 $616 forward 7 unknown #
vertex $-1 $293 $617 #
ellipse-curve $-1 -57.679971675567245 -13.787723309202349 10.626263183635904 -0.68199836817093118 0 0.7313536940579346 0.7313536940579346 0 0.68199836817093118 1 I I #
face $-1 $-1 $618 $63 $-1 $619 reversed single #
loop $-1 $-1 $300 $294 #
plane-surface $-1 0 0 21.238054812807462 0 0 1 1 0 0 forward_v I I I I #
coedge $-1 $620 $621 $622 $623 reversed $295 $-1 #
coedge $-1 $624 $297 $299 $457 forward $186 $-1 #
coedge $-1 $297 $624 $620 $625 forward $186 $-1 #
coedge $-1 $622 $300 $297 $454 forward $448 $-1 #
edge $-1 $460 -5.1394985394712158 $626 6.0032461026655035 $453 $627 forward 7 unknown #
coedge $-1 $628 $629 $298 $456 forward $618 $-1 #
edge $-1 $630 -50.499849009590505 $459 -29.276265751247394 $455 $631 forward 7 unknown #
edge $-1 $460 -31.119698006409013 $630 -1.9430698363111829e-014 $299 $632 forward 7 unknown #
coedge $-1 $300 $622 $628 $633 forward $448 $-1 #
vertex $-1 $456 $634 #
vertex $-1 $301 $635 #
straight-curve $-1 -81.628481928972349 -4.707624757874072 21.238054812807462 1 0 0 I I #
coedge $-1 $462 $462 $-1 $636 reversed $304 $-1 #
edge $-1 $637 0 $637 6.2831853071796004 $305 $638 forward 7 unknown #
vertex $-1 $308 $639 #
ellipse-curve $-1 -57.679971675567245 -1.5239834315492971 10.626263183635904 -0.68199836817093118 0 0.7313536940579346 0.7313536940579346 0 0.68199836817093118 1 I I #
coedge $-1 $466 $466 $-1 $640 reversed $311 $-1 #
edge $-1 $641 0 $641 6.2831853071796004 $312 $642 forward 7 unknown #
vertex $-1 $315 $643 #
ellipse-curve $-1 -57.679971675567245 3.2514785579378653 10.626263183635904 -0.68199836817093118 0 0.7313536940579346 0.7313536940579346 0 0.68199836817093118 1 I I #
face $-1 $-1 $644 $66 $-1 $645 reversed single #
loop $-1 $-1 $322 $316 #
plane-surface $-1 0 0 21.238054812807462 0 0 1 1 0 0 forward_v I I I I #
coedge $-1 $646 $647 $648 $649 reversed $317 $-1 #
coedge $-1 $650 $319 $321 $480 forward $200 $-1 #
coedge $-1 $319 $650 $646 $651 forward $200 $-1 #
coedge $-1 $648 $322 $319 $477 forward $471 $-1 #
edge $-1 $483 3.3801023940988912 $652 14.522847036235611 $476 $653 forward 7 unknown #
coedge $-1 $654 $655 $320 $479 forward $644 $-1 #
edge $-1 $656 -50.499849009590505 $482 -29.276265751247394 $478 $657 forward 7 unknown #
edge $-1 $483 -31.119698006409013 $656 -1.9430698363111829e-014 $321 $658 forward 7 unknown #
coedge $-1 $322 $648 $654 $659 forward $471 $-1 #
vertex $-1 $323 $660 #
vertex $-1 $323 $661 #
straight-curve $-1 -81.628481928972349 12.331577109266142 21.238054812807462 1 0 0 I I #
coedge $-1 $485 $485 $-1 $662 reversed $326 $-1 #
edge $-1 $663 0 $663 6.2831853071796004 $327 $664 forward 7 unknown #
vertex $-1 $330 $665 #
ellipse-curve $-1 -57.679971675567245 15.515218435590917 10.626263183635904 -0.68199836817093118 0 0.7313536940579346 0.7313536940579346 0 0.68199836817093118 1 I I #
coedge $-1 $489 $489 $-1 $666 reversed $333 $-1 #
edge $-1 $667 0 $667 6.2831853071796004 $334 $668 forward 7 unknown #
vertex $-1 $337 $669 #
ellipse-curve $-1 -57.679971675567245 20.290680425078079 10.626263183635904 -0.68199836817093118 0 0.7313536940579346 0.7313536940579346 0 0.68199836817093118 1 I I #
face $-1 $-1 $670 $69 $-1 $671 reversed single #
loop $-1 $-1 $344 $338 #
plane-surface $-1 0 0 21.238054812807462 0 0 1 1 0 0 forward_v I I I I #
coedge $-1 $672 $673 $674 $675 reversed $339 $-1 #
coedge $-1 $676 $341 $343 $503 forward $214 $-1 #
coedge $-1 $341 $676 $672 $677 forward $214 $-1 #
coedge $-1 $674 $344 $341 $500 forward $494 $-1 #
edge $-1 $506 11.899703327668998 $678 23.042447969805718 $499 $679 forward 7 unknown #
coedge $-1 $680 $681 $342 $502 forward $670 $-1 #
edge $-1 $682 -50.499849009590505 $505 -29.276265751247394 $501 $683 forward 7 unknown #
edge $-1 $506 -31.119698006409013 $682 -1.9430698363111829e-014 $343 $684 forward 7 unknown #
coedge $-1 $344 $674 $680 $685 forward $494 $-1 #
vertex $-1 $345 $686 #
vertex $-1 $345 $687 #
straight-curve $-1 -81.628481928972349 29.370778976406356 21.238054812807462 1 0 0 I I #
coedge $-1 $508 $508 $-1 $688 reversed $348 $-1 #
edge $-1 $689 0 $689 6.2831853071796004 $349 $690 forward 7 unknown #
vertex $-1 $352 $691 #
ellipse-curve $-1 -57.679971675567245 32.554420302731138 10.626263183635904 -0.68199836817093118 0 0.7313536940579346 0.7313536940579346 0 0.68199836817093118 1 I I #
coedge $-1 $512 $512 $-1 $692 reversed $355 $-1 #
edge $-1 $693 0 $693 6.2831853071796004 $356 $694 forward 7 unknown #
vertex $-1 $359 $695 #
ellipse-curve $-1 -57.679971675567245 37.329882292218294 10.626263183635904 -0.68199836817093118 0 0.7313536940579346 0.7313536940579346 0 0.68199836817093118 1 I I #
face $-1 $-1 $375 $54 $-1 $696 reversed single #
loop $-1 $-1 $532 $360 #
plane-surface $-1 0 43.625631091868136 0 0 -1 0 0 0 -1 forward_v I I I I #
coedge $-1 $697 $530 $533 $698 forward $361 $-1 #
coedge $-1 $536 $363 $364 $524 reversed $228 $-1 #
coedge $-1 $530 $697 $363 $522 reversed $361 $-1 #
edge $-1 $537 -21.238054812807462 $699 21.238054812807462 $521 $700 forward 7 unknown #
coedge $-1 $365 $364 $697 $701 forward $145 $-1 #
edge $-1 $528 -69.059724723044525 $699 69.059724723044525 $520 $702 forward 7 unknown #
coedge $-1 $533 $532 $365 $526 reversed $517 $-1 #
edge $-1 $703 -69.059724723044525 $527 69.059724723044525 $525 $704 forward 7 unknown #
vertex $-1 $367 $705 #
vertex $-1 $539 $706 #
straight-curve $-1 69.059724723044525 0 -21.238054812807462 0 -1 0 I I #
coedge $-1 $519 $521 $368 $531 reversed $361 $-1 #
edge $-1 $534 -43.625631091868136 $537 43.625631091868136 $530 $707 forward 7 unknown #
coedge $-1 $525 $369 $374 $540 forward $517 $-1 #
coedge $-1 $369 $525 $519 $698 reversed $517 $-1 #
vertex $-1 $370 $708 #
straight-curve $-1 0 43.625631091868136 21.238054812807462 -1 0 0 I I #
coedge $-1 $371 $520 $373 $539 reversed $228 $-1 #
vertex $-1 $531 $709 #
straight-curve $-1 0 -43.625631091868136 21.238054812807462 1 0 0 I I #
edge $-1 $376 -21.238054812807462 $528 21.238054812807462 $373 $710 forward 7 unknown #
edge $-1 $377 -21.238054812807462 $527 21.238054812807462 $374 $711 forward 7 unknown #
point $-1 69.059724723044525 -43.625631091868136 21.238054812807462 #
point $-1 69.059724723044525 43.625631091868136 21.238054812807462 #
face $-1 $-1 $712 $55 $-1 $713 reversed single #
loop $-1 $-1 $389 $379 #
plane-surface $-1 0 -43.625631091868136 0 0 1 0 0 0 1 forward_v I I I I #
coedge $-1 $714 $382 $550 $715 forward $236 $-1 #
coedge $-1 $382 $714 $716 $717 forward $236 $-1 #
edge $-1 $718 -69.059724723044525 $551 69.059724723044525 $382 $719 forward 7 unknown #
coedge $-1 $384 $383 $720 $721 reversed $149 $-1 #
coedge $-1 $385 $391 $546 $715 reversed $380 $-1 #
vertex $-1 $715 $722 #
straight-curve $-1 69.059724723044525 -24.53117637669272 -8.1289178180195538 0 0 1 I I #
coedge $-1 $720 $723 $387 $554 forward $712 $-1 #
edge $-1 $559 -26.586429224727922 $555 -7.4919745095525059 $553 $724 forward 7 unknown #
vertex $-1 $554 $725 #
straight-curve $-1 0 -24.53117637669272 -11.277616459270753 -1 0 0 I I #
coedge $-1 $726 $389 $723 $727 forward $544 $-1 #
coedge $-1 $389 $726 $391 $561 reversed $544 $-1 #
vertex $-1 $727 $728 #
straight-curve $-1 0 -43.625631091868136 -11.277616459270753 -1 0 0 I I #
edge $-1 $393 11.277616459270753 $729 21.238054812807462 $391 $730 forward 7 unknown #
point $-1 69.059724723044525 -24.53117637669272 -11.277616459270753 #
point $-1 69.059724723044525 -43.625631091868136 -11.277616459270753 #
plane-surface $-1 69.059724723044525 0 0 -1 0 0 0 0 1 forward_v I I I I #
coedge $-1 $731 $732 $400 $569 forward $396 $-1 #
coedge $-1 $398 $573 $731 $733 forward $244 $-1 #
coedge $-1 $400 $399 $398 $568 reversed $153 $-1 #
edge $-1 $734 -24.205022350017597 $574 -14.636195133683469 $398 $735 forward 7 unknown #
edge $-1 $571 -82.731564323588771 $734 -78.429456102665398 $565 $736 forward 7 unknown #
coedge $-1 $406 $401 $732 $737 reversed $407 $-1 #
vertex $-1 $402 $738 #
straight-curve $-1 69.059724723044525 19.420608741850533 17.802238384131407 0 1 0 I I #
coedge $-1 $566 $403 $406 $577 forward $244 $-1 #
vertex $-1 $404 $739 #
straight-curve $-1 48.122232327992222 34.056803875534001 21.238054812807462 1 0 0 I I #
straight-curve $-1 -14.06263343573012 34.056803875534001 128.10933647584596 -0.60181501223851219 0 0.79863551827123203 I I #
edge $-1 $408 34.056803875534001 $740 43.625631091868136 $406 $741 forward 7 unknown #
point $-1 69.059724723044525 34.056803875534001 21.238054812807462 #
point $-1 69.059724723044525 34.056803875534001 17.8022383841314 #
edge $-1 $742 1 $742 0 $411 $-1 forward 7 unknown #
vertex $-1 $412 $743 #
ellipse-curve $-1 66.388920710059097 35.97056931880082 18.483054786934481 0.79863551827123203 0 0.60181501223851219 0.3009075061192561 0 -0.39931775913561601 1 I I #
point $-1 68.06609557335058 35.97056931880082 19.120828839333818 #
edge $-1 $744 1 $744 0 $415 $-1 forward 7 unknown #
vertex $-1 $416 $745 #
ellipse-curve $-1 66.388920710059097 38.841217483701065 18.483054786934481 0.79863551827123203 0 0.60181501223851219 0.3009075061192561 0 -0.39931775913561601 1 I I #
point $-1 68.06609557335058 38.841217483701065 19.120828839333818 #
edge $-1 $746 1 $746 0 $419 $-1 forward 7 unknown #
vertex $-1 $420 $747 #
ellipse-curve $-1 66.388920710059097 41.711865648601311 18.483054786934481 0.79863551827123203 0 0.60181501223851219 0.3009075061192561 0 -0.39931775913561601 1 I I #
point $-1 68.06609557335058 41.711865648601311 19.120828839333818 #
plane-surface $-1 0 0 21.238054812807462 0 0 1 1 0 0 forward_v I I I I #
coedge $-1 $603 $602 $595 $748 forward $424 $-1 #
coedge $-1 $595 $426 $428 $599 reversed $273 $-1 #
coedge $-1 $426 $594 $593 $748 reversed $273 $-1 #
coedge $-1 $434 $429 $426 $597 forward $435 $-1 #
edge $-1 $600 -35.328263300882384 $749 -12.568757205927824 $596 $750 forward 7 unknown #
coedge $-1 $428 $427 $603 $751 reversed $172 $-1 #
edge $-1 $752 1.9430698363111829e-014 $600 31.119698006409013 $594 $753 forward 7 unknown #
vertex $-1 $430 $754 #
straight-curve $-1 -46.300218628089965 -8.0877271519729632 21.238054812807462 0 1 0 I I #
coedge $-1 $593 $431 $434 $607 reversed $424 $-1 #
coedge $-1 $431 $593 $598 $751 forward $424 $-1 #
vertex $-1 $432 $755 #
straight-curve $-1 -69.059724723044525 -21.746826625014286 50.514320564054856 0 0 1 I I #
straight-curve $-1 -69.059724723044539 -21.746826625014286 0.014471554464336123 -0.7313536940579346 0 -0.68199836817093118 I I #
edge $-1 $749 10.604081982877567 $436 21.746826625014286 $602 $756 forward 7 unknown #
point $-1 -69.059724723044525 -21.746826625014286 21.238054812807462 #
point $-1 -46.300218628089965 -21.746826625014286 21.238054812807462 #
edge $-1 $757 1 $757 0 $439 $-1 forward 7 unknown #
vertex $-1 $440 $758 #
ellipse-curve $-1 -55.423967612808511 -18.563185298689511 8.2069950708201507 -0.68199836817093118 0 0.7313536940579346 0.7313536940579346 0 0.68199836817093118 1 I I #
point $-1 -56.948617981509308 -18.563185298689511 11.308261551806833 #
edge $-1 $759 1 $759 0 $443 $-1 forward 7 unknown #
vertex $-1 $444 $760 #
ellipse-curve $-1 -55.423967612808511 -13.787723309202349 8.2069950708201507 -0.68199836817093118 0 0.7313536940579346 0.7313536940579346 0 0.68199836817093118 1 I I #
point $-1 -56.948617981509308 -13.787723309202349 11.308261551806833 #
loop $-1 $-1 $455 $447 #
plane-surface $-1 -69.059724723044525 0 0 1 0 0 0 0 -1 forward_v I I I I #
coedge $-1 $621 $450 $452 $625 reversed $295 $-1 #
coedge $-1 $450 $620 $761 $762 reversed $295 $-1 #
coedge $-1 $458 $453 $450 $623 forward $448 $-1 #
edge $-1 $626 -35.328263300882384 $763 -12.568757205927824 $622 $764 forward 7 unknown #
coedge $-1 $452 $451 $629 $765 reversed $186 $-1 #
edge $-1 $766 1.9430698363111829e-014 $626 31.119698006409013 $620 $767 forward 7 unknown #
vertex $-1 $454 $768 #
straight-curve $-1 -46.300218628089965 0.43187378159714385 21.238054812807462 0 1 0 I I #
coedge $-1 $761 $455 $458 $633 reversed $618 $-1 #
coedge $-1 $455 $761 $624 $765 forward $618 $-1 #
vertex $-1 $456 $769 #
straight-curve $-1 -69.059724723044525 -4.707624757874072 50.514320564054856 0 0 1 I I #
straight-curve $-1 -69.059724723044539 -4.707624757874072 0.014471554464336123 -0.7313536940579346 0 -0.68199836817093118 I I #
edge $-1 $763 -6.4351198842626474 $459 4.707624757874072 $628 $770 forward 7 unknown #
point $-1 -69.059724723044525 -4.707624757874072 21.238054812807462 #
point $-1 -46.300218628089965 -4.707624757874072 21.238054812807462 #
edge $-1 $771 1 $771 0 $462 $-1 forward 7 unknown #
vertex $-1 $463 $772 #
ellipse-curve $-1 -55.423967612808511 -1.5239834315492971 8.2069950708201507 -0.68199836817093118 0 0.7313536940579346 0.7313536940579346 0 0.68199836817093118 1 I I #
point $-1 -56.948617981509308 -1.5239834315492971 11.308261551806833 #
edge $-1 $773 1 $773 0 $466 $-1 forward 7 unknown #
vertex $-1 $467 $774 #
ellipse-curve $-1 -55.423967612808511 3.2514785579378653 8.2069950708201507 -0.68199836817093118 0 0.7313536940579346 0.7313536940579346 0 0.68199836817093118 1 I I #
point $-1 -56.948617981509308 3.2514785579378653 11.308261551806833 #
loop $-1 $-1 $478 $470 #
plane-surface $-1 -69.059724723044525 0 0 1 0 0 0 0 -1 forward_v I I I I #
coedge $-1 $647 $473 $475 $651 reversed $317 $-1 #
coedge $-1 $473 $646 $775 $776 reversed $317 $-1 #
coedge $-1 $481 $476 $473 $649 forward $471 $-1 #
edge $-1 $652 -35.328263300882384 $777 -12.568757205927824 $648 $778 forward 7 unknown #
coedge $-1 $475 $474 $655 $779 reversed $200 $-1 #
edge $-1 $780 1.9430698363111829e-014 $652 31.119698006409013 $646 $781 forward 7 unknown #
vertex $-1 $477 $782 #
straight-curve $-1 -46.300218628089965 8.9514747151672509 21.238054812807462 0 1 0 I I #
coedge $-1 $775 $478 $481 $659 reversed $644 $-1 #
coedge $-1 $478 $775 $650 $779 forward $644 $-1 #
vertex $-1 $479 $783 #
straight-curve $-1 -69.059724723044525 12.331577109266142 50.514320564054856 0 0 1 I I #
straight-curve $-1 -69.059724723044539 12.331577109266142 0.014471554464336123 -0.7313536940579346 0 -0.68199836817093118 I I #
edge $-1 $777 -23.474321751402861 $482 -12.331577109266142 $654 $784 forward 7 unknown #
point $-1 -69.059724723044525 12.331577109266142 21.238054812807462 #
point $-1 -46.300218628089965 12.331577109266142 21.238054812807462 #
edge $-1 $785 1 $785 0 $485 $-1 forward 7 unknown #
vertex $-1 $486 $786 #
ellipse-curve $-1 -55.423967612808511 15.515218435590917 8.2069950708201507 -0.68199836817093118 0 0.7313536940579346 0.7313536940579346 0 0.68199836817093118 1 I I #
point $-1 -56.948617981509308 15.515218435590917 11.308261551806833 #
edge $-1 $787 1 $787 0 $489 $-1 forward 7 unknown #
vertex $-1 $490 $788 #
ellipse-curve $-1 -55.423967612808511 20.290680425078079 8.2069950708201507 -0.68199836817093118 0 0.7313536940579346 0.7313536940579346 0 0.68199836817093118 1 I I #
point $-1 -56.948617981509308 20.290680425078079 11.308261551806833 #
loop $-1 $-1 $501 $493 #
plane-surface $-1 -69.059724723044525 0 0 1 0 0 0 0 -1 forward_v I I I I #
coedge $-1 $673 $496 $498 $677 reversed $339 $-1 #
coedge $-1 $496 $672 $789 $790 reversed $339 $-1 #
coedge $-1 $504 $499 $496 $675 forward $494 $-1 #
edge $-1 $678 -35.328263300882384 $791 -12.568757205927824 $674 $792 forward 7 unknown #
coedge $-1 $498 $497 $681 $793 reversed $214 $-1 #
edge $-1 $794 1.9430698363111829e-014 $678 31.119698006409013 $672 $795 forward 7 unknown #
vertex $-1 $500 $796 #
straight-curve $-1 -46.300218628089965 17.471075648737358 21.238054812807462 0 1 0 I I #
coedge $-1 $789 $501 $504 $685 reversed $670 $-1 #
coedge $-1 $501 $789 $676 $793 forward $670 $-1 #
vertex $-1 $502 $797 #
straight-curve $-1 -69.059724723044525 29.370778976406356 50.514320564054856 0 0 1 I I #
straight-curve $-1 -69.059724723044539 29.370778976406356 0.014471554464336123 -0.7313536940579346 0 -0.68199836817093118 I I #
edge $-1 $791 -40.513523618543076 $505 -29.370778976406356 $680 $798 forward 7 unknown #
point $-1 -69.059724723044525 29.370778976406356 21.238054812807462 #
point $-1 -46.300218628089965 29.370778976406356 21.238054812807462 #
edge $-1 $799 1 $799 0 $508 $-1 forward 7 unknown #
vertex $-1 $509 $800 #
ellipse-curve $-1 -55.423967612808511 32.554420302731138 8.2069950708201507 -0.68199836817093118 0 0.7313536940579346 0.7313536940579346 0 0.68199836817093118 1 I I #
point $-1 -56.948617981509308 32.554420302731138 11.308261551806833 #
edge $-1 $801 1 $801 0 $512 $-1 forward 7 unknown #
vertex $-1 $513 $802 #
ellipse-curve $-1 -55.423967612808511 37.329882292218294 8.2069950708201507 -0.68199836817093118 0 0.7313536940579346 0.7313536940579346 0 0.68199836817093118 1 I I #
point $-1 -56.948617981509308 37.329882292218294 11.308261551806833 #
plane-surface $-1 69.059724723044525 0 0 -1 0 0 0 0 1 forward_v I I I I #
coedge $-1 $521 $519 $523 $701 reversed $361 $-1 #
edge $-1 $534 -21.238054812807462 $703 21.238054812807462 $533 $803 forward 7 unknown #
vertex $-1 $701 $804 #
straight-curve $-1 -69.059724723044525 -43.625631091868136 0 0 0 -1 I I #
edge $-1 $699 -43.625631091868136 $703 43.625631091868136 $697 $805 forward 7 unknown #
straight-curve $-1 0 -43.625631091868136 -21.238054812807462 -1 0 0 I I #
vertex $-1 $526 $806 #
straight-curve $-1 0 43.625631091868136 -21.238054812807462 1 0 0 I I #
point $-1 69.059724723044525 43.625631091868136 -21.238054812807462 #
point $-1 69.059724723044525 -43.625631091868136 -21.238054812807462 #
straight-curve $-1 -69.059724723044525 0 21.238054812807462 0 -1 0 I I #
point $-1 -69.059724723044525 43.625631091868136 21.238054812807462 #
point $-1 -69.059724723044525 -43.625631091868136 21.238054812807462 #
straight-curve $-1 69.059724723044525 -43.625631091868136 0 0 0 -1 I I #
straight-curve $-1 69.059724723044525 43.625631091868136 0 0 0 -1 I I #
loop $-1 $-1 $720 $543 #
plane-surface $-1 -69.059724723044525 0 0 1 0 0 0 0 -1 forward_v I I I I #
coedge $-1 $547 $546 $726 $807 forward $236 $-1 #
edge $-1 $551 24.53117637669272 $729 43.625631091868136 $550 $808 forward 7 unknown #
coedge $-1 $723 $720 $547 $717 reversed $712 $-1 #
edge $-1 $809 -43.625631091868136 $718 -24.53117637669272 $716 $810 forward 7 unknown #
vertex $-1 $721 $811 #
straight-curve $-1 0 -24.53117637669272 -21.238054812807462 1 0 0 I I #
coedge $-1 $716 $553 $549 $721 forward $712 $-1 #
edge $-1 $555 3.1486986412511992 $718 13.109136994787908 $720 $812 forward 7 unknown #
point $-1 69.059724723044525 -24.53117637669272 -21.238054812807462 #
coedge $-1 $553 $716 $557 $727 reversed $712 $-1 #
straight-curve $-1 -69.059724723044525 -17.039201867140214 -11.277616459270753 0 1 0 I I #
point $-1 -69.059724723044525 -24.53117637669272 -11.277616459270753 #
coedge $-1 $558 $557 $714 $807 reversed $544 $-1 #
edge $-1 $559 11.277616459270753 $809 21.238054812807462 $723 $813 forward 7 unknown #
point $-1 -69.059724723044525 -43.625631091868136 -11.277616459270753 #
vertex $-1 $561 $814 #
straight-curve $-1 69.059724723044525 -43.625631091868136 0 0 0 -1 I I #
coedge $-1 $732 $565 $566 $733 reversed $396 $-1 #
coedge $-1 $565 $731 $570 $737 forward $396 $-1 #
edge $-1 $740 -69.059724723044525 $734 -66.470651411418118 $731 $815 forward 7 unknown #
vertex $-1 $568 $816 #
straight-curve $-1 66.470651411418146 19.420608741850533 21.238054812807462 0 -1 0 I I #
straight-curve $-1 19.270627327132683 43.625631091868136 83.874604135090507 -0.60181501223851219 0 0.79863551827123203 I I #
edge $-1 $740 -21.238054812807462 $571 -17.80223838413141 $570 $817 forward 7 unknown #
point $-1 69.059724723044525 43.625631091868136 17.80223838413141 #
point $-1 66.470651411418118 34.056803875534001 21.238054812807476 #
vertex $-1 $577 $818 #
straight-curve $-1 69.059724723044525 0 21.238054812807462 0 1 0 I I #
vertex $-1 $580 $819 #
point $-1 66.689828216178356 35.97056931880082 18.083737027798865 #
vertex $-1 $584 $820 #
point $-1 66.689828216178356 38.841217483701065 18.083737027798865 #
vertex $-1 $588 $821 #
point $-1 66.689828216178356 41.711865648601311 18.083737027798865 #
edge $-1 $749 29.276265751247394 $752 50.499849009590505 $593 $822 forward 7 unknown #
vertex $-1 $607 $823 #
straight-curve $-1 -81.628481928972349 -10.604081982877567 21.238054812807462 -1 0 0 I I #
edge $-1 $752 2.5163548309046035 $604 13.659099473041323 $603 $824 forward 7 unknown #
vertex $-1 $751 $825 #
straight-curve $-1 -69.059724723044539 -10.604081982877567 0.014471554464336123 0.7313536940579346 0 0.68199836817093118 I I #
point $-1 -46.300218628089965 -10.604081982877567 21.238054812807462 #
point $-1 -69.059724723044525 -21.746826625014286 0.014471554464349374 #
straight-curve $-1 -69.059724723044525 0 21.238054812807462 0 -1 0 I I #
vertex $-1 $610 $826 #
point $-1 -54.692613918750574 -18.563185298689511 8.8889934389910827 #
vertex $-1 $614 $827 #
point $-1 -54.692613918750574 -13.787723309202349 8.8889934389910827 #
coedge $-1 $629 $628 $621 $762 forward $618 $-1 #
edge $-1 $763 29.276265751247394 $766 50.499849009590505 $761 $828 forward 7 unknown #
vertex $-1 $633 $829 #
straight-curve $-1 -81.628481928972349 6.4351198842626474 21.238054812807462 -1 0 0 I I #
edge $-1 $766 -6.0032461026655035 $630 5.1394985394712158 $629 $830 forward 7 unknown #
vertex $-1 $765 $831 #
straight-curve $-1 -69.059724723044539 6.4351198842626474 0.014471554464336123 0.7313536940579346 0 0.68199836817093118 I I #
point $-1 -46.300218628089965 6.4351198842626474 21.238054812807462 #
point $-1 -69.059724723044525 -4.707624757874072 0.014471554464349374 #
straight-curve $-1 -69.059724723044525 0 21.238054812807462 0 -1 0 I I #
vertex $-1 $636 $832 #
point $-1 -54.692613918750574 -1.5239834315492971 8.8889934389910827 #
vertex $-1 $640 $833 #
point $-1 -54.692613918750574 3.2514785579378653 8.8889934389910827 #
coedge $-1 $655 $654 $647 $776 forward $644 $-1 #
edge $-1 $777 29.276265751247394 $780 50.499849009590505 $775 $834 forward 7 unknown #
vertex $-1 $659 $835 #
straight-curve $-1 -81.628481928972349 23.474321751402861 21.238054812807462 -1 0 0 I I #
edge $-1 $780 -14.522847036235611 $656 -3.3801023940988912 $655 $836 forward 7 unknown #
vertex $-1 $779 $837 #
straight-curve $-1 -69.059724723044539 23.474321751402861 0.014471554464336123 0.7313536940579346 0 0.68199836817093118 I I #
point $-1 -46.300218628089965 23.474321751402861 21.238054812807462 #
point $-1 -69.059724723044525 12.331577109266142 0.014471554464349374 #
straight-curve $-1 -69.059724723044525 0 21.238054812807462 0 -1 0 I I #
vertex $-1 $662 $838 #
point $-1 -54.692613918750574 15.515218435590917 8.8889934389910827 #
vertex $-1 $666 $839 #
point $-1 -54.692613918750574 20.290680425078079 8.8889934389910827 #
coedge $-1 $681 $680 $673 $790 forward $670 $-1 #
edge $-1 $791 29.276265751247394 $794 50.499849009590505 $789 $840 forward 7 unknown #
vertex $-1 $685 $841 #
straight-curve $-1 -81.628481928972349 40.513523618543076 21.238054812807462 -1 0 0 I I #
edge $-1 $794 -23.042447969805718 $682 -11.899703327668998 $681 $842 forward 7 unknown #
vertex $-1 $793 $843 #
straight-curve $-1 -69.059724723044539 40.513523618543076 0.014471554464336123 0.7313536940579346 0 0.68199836817093118 I I #
point $-1 -46.300218628089965 40.513523618543076 21.238054812807462 #
point $-1 -69.059724723044525 29.370778976406356 0.014471554464349374 #
straight-curve $-1 -69.059724723044525 0 21.238054812807462 0 -1 0 I I #
vertex $-1 $688 $844 #
point $-1 -54.692613918750574 32.554420302731138 8.8889934389910827 #
vertex $-1 $692 $845 #
point $-1 -54.692613918750574 37.329882292218294 8.8889934389910827 #
straight-curve $-1 -69.059724723044525 43.625631091868136 0 0 0 -1 I I #
point $-1 -69.059724723044525 -43.625631091868136 -21.238054812807462 #
straight-curve $-1 -69.059724723044525 0 -21.238054812807462 0 1 0 I I #
point $-1 -69.059724723044525 43.625631091868136 -21.238054812807462 #
edge $-1 $729 -69.059724723044525 $809 69.059724723044525 $726 $846 forward 7 unknown #
straight-curve $-1 69.059724723044525 0 -21.238054812807462 0 -1 0 I I #
vertex $-1 $717 $847 #
straight-curve $-1 -69.059724723044525 0 -21.238054812807462 0 1 0 I I #
point $-1 -69.059724723044525 -24.53117637669272 -21.238054812807462 #
straight-curve $-1 -69.059724723044525 -24.53117637669272 -8.1289178180195538 0 0 -1 I I #
straight-curve $-1 -69.059724723044525 -43.625631091868136 0 0 0 -1 I I #
point $-1 69.059724723044525 -43.625631091868136 -21.238054812807462 #
straight-curve $-1 0 43.625631091868136 21.238054812807462 -1 0 0 I I #
point $-1 66.470651411418118 43.625631091868129 21.238054812807476 #
straight-curve $-1 69.059724723044525 43.625631091868136 0 0 0 -1 I I #
point $-1 69.059724723044525 43.625631091868136 21.238054812807462 #
point $-1 65.989602950923484 35.97056931880082 18.182147280815222 #
point $-1 65.989602950923484 38.841217483701065 18.182147280815222 #
point $-1 65.989602950923484 41.711865648601311 18.182147280815222 #
straight-curve $-1 -69.059724723044525 -10.604081982877567 50.514320564054856 0 0 -1 I I #
point $-1 -69.059724723044525 -10.604081982877567 21.238054812807462 #
straight-curve $-1 -69.059724723044525 -8.0877271519729632 0.0144715544643483 0 -1 0 I I #
point $-1 -69.059724723044525 -10.604081982877567 0.014471554464349374 #
point $-1 -54.741969244637573 -18.563185298689511 7.4756413767622165 #
point $-1 -54.741969244637573 -13.787723309202349 7.4756413767622165 #
straight-curve $-1 -69.059724723044525 6.4351198842626474 50.514320564054856 0 0 -1 I I #
point $-1 -69.059724723044525 6.4351198842626474 21.238054812807462 #
straight-curve $-1 -69.059724723044525 0.43187378159714385 0.0144715544643483 0 -1 0 I I #
point $-1 -69.059724723044525 6.4351198842626474 0.014471554464349374 #
point $-1 -54.741969244637573 -1.5239834315492971 7.4756413767622165 #
point $-1 -54.741969244637573 3.2514785579378653 7.4756413767622165 #
straight-curve $-1 -69.059724723044525 23.474321751402861 50.514320564054856 0 0 -1 I I #
point $-1 -69.059724723044525 23.474321751402861 21.238054812807462 #
straight-curve $-1 -69.059724723044525 8.9514747151672509 0.0144715544643483 0 -1 0 I I #
point $-1 -69.059724723044525 23.474321751402861 0.014471554464349374 #
point $-1 -54.741969244637573 15.515218435590917 7.4756413767622165 #
point $-1 -54.741969244637573 20.290680425078079 7.4756413767622165 #
straight-curve $-1 -69.059724723044525 40.513523618543076 50.514320564054856 0 0 -1 I I #
point $-1 -69.059724723044525 40.513523618543076 21.238054812807462 #
straight-curve $-1 -69.059724723044525 17.471075648737358 0.0144715544643483 0 -1 0 I I #
point $-1 -69.059724723044525 40.513523618543076 0.014471554464349374 #
point $-1 -54.741969244637573 32.554420302731138 7.4756413767622165 #
point $-1 -54.741969244637573 37.329882292218294 7.4756413767622165 #
straight-curve $-1 0 -43.625631091868136 -21.238054812807462 -1 0 0 I I #
point $-1 -69.059724723044525 -43.625631091868136 -21.238054812807462 #
End-of-ACIS-data 