500 0 6 0           
7 Unknown 11 ACIS 5.0 NT 24 Thu Mar 25 20:31:30 1999 
-1 9.9999999999999995e-007 1e-010 
body $-1 $6 $-1 $7 #
body $-1 $8 $-1 $9 #
body $-1 $10 $-1 $11 #
body $-1 $12 $-1 $13 #
body $-1 $14 $-1 $15 #
body $-1 $16 $-1 $17 #
lump $-1 $-1 $18 $0 #
transform $-1 1 0 0 0 1 0 0 0 1 44.38001647999512 23.967944811343415 5.4694635008496126 1 rotate no_reflect no_shear #
lump $-1 $-1 $19 $1 #
transform $-1 1 0 0 0 1 0 0 0 1 44.38001647999512 23.967944811343415 5.4694635008496126 1 rotate no_reflect no_shear #
lump $-1 $-1 $20 $2 #
transform $-1 1 0 0 0 1 0 0 0 1 44.38001647999512 23.967944811343415 5.4694635008496126 1 rotate no_reflect no_shear #
lump $-1 $-1 $21 $3 #
transform $-1 1 0 0 0 1 0 0 0 1 44.38001647999512 23.967944811343415 5.4694635008496126 1 rotate no_reflect no_shear #
lump $-1 $-1 $22 $4 #
transform $-1 1 0 0 0 1 0 0 0 1 44.38001647999512 23.967944811343415 5.4694635008496126 1 rotate no_reflect no_shear #
lump $-1 $-1 $23 $5 #
transform $-1 1 0 0 0 1 0 0 0 1 44.38001647999512 23.967944811343415 5.4694635008496126 1 rotate no_reflect no_shear #
shell $-1 $-1 $-1 $24 $-1 $6 #
shell $-1 $-1 $-1 $25 $-1 $8 #
shell $-1 $-1 $-1 $26 $-1 $10 #
shell $-1 $-1 $-1 $27 $-1 $12 #
shell $-1 $-1 $-1 $28 $-1 $14 #
shell $-1 $-1 $-1 $29 $-1 $16 #
face $-1 $30 $31 $18 $-1 $32 reversed single #
face $-1 $33 $34 $19 $-1 $35 forward single #
face $-1 $36 $37 $20 $-1 $38 forward single #
face $-1 $39 $40 $21 $-1 $41 reversed single #
face $-1 $42 $43 $22 $-1 $44 forward single #
face $-1 $45 $46 $23 $-1 $47 forward single #
face $-1 $48 $49 $18 $-1 $50 forward single #
loop $-1 $-1 $51 $24 #
plane-surface $-1 44.38001647999512 0 0 -1 0 0 0 0 1 forward_v I I I I #
face $-1 $52 $53 $19 $-1 $54 reversed single #
loop $-1 $-1 $55 $25 #
plane-surface $-1 -44.38001647999512 0 0 1 0 0 0 0 -1 forward_v I I I I #
face $-1 $56 $57 $20 $-1 $58 reversed single #
loop $-1 $-1 $59 $26 #
plane-surface $-1 44.38001647999512 0 0 -1 0 0 0 0 1 forward_v I I I I #
face $-1 $60 $61 $21 $-1 $62 reversed single #
loop $-1 $-1 $63 $27 #
plane-surface $-1 -20.102295459055245 -100.83638888200093 46.011050450763804 -1 0 0 0 -0.86602541151947299 0.49999998660252726 forward_v I I I I #
face $-1 $64 $65 $22 $-1 $66 forward single #
loop $-1 $67 $68 $28 #
cone-surface $-1 -29.86742924423093 -22.221064437806742 3.1814255236270319 0 0.86602541151947299 -0.49999998660252726 0.5 0 0 1 I I 0 1 0.5 forward I I I I #
face $-1 $69 $70 $23 $-1 $71 forward single #
loop $-1 $72 $73 $29 #
cone-surface $-1 -24.008348973125521 -22.221064437806742 3.1814255236270319 0 0.86602541151947299 -0.49999998660252726 0.5 0 0 1 I I 0 1 0.5 forward I I I I #
face $-1 $74 $75 $18 $-1 $76 reversed single #
loop $-1 $-1 $77 $30 #
plane-surface $-1 0 0 5.4694635008496126 0 0 1 1 0 0 forward_v I I I I #
coedge $-1 $78 $79 $80 $81 reversed $31 $-1 #
face $-1 $82 $83 $19 $-1 $84 forward single #
loop $-1 $-1 $85 $33 #
plane-surface $-1 0 23.967944811343415 0 0 -1 0 0 0 -1 forward_v I I I I #
coedge $-1 $86 $87 $88 $89 forward $34 $-1 #
face $-1 $90 $91 $20 $-1 $92 forward single #
loop $-1 $-1 $93 $36 #
plane-surface $-1 0 -23.967944811343415 0 0 1 0 0 0 1 forward_v I I I I #
coedge $-1 $94 $95 $96 $97 forward $37 $-1 #
face $-1 $98 $99 $21 $-1 $100 reversed single #
loop $-1 $-1 $101 $39 #
plane-surface $-1 -26.937889108678224 -23.967944811343401 1.6310351599288069 0 -0.86602541151947299 0.49999998660252726 1 0 0 forward_v I I I I #
coedge $-1 $102 $103 $104 $105 reversed $40 $-1 #
face $-1 $-1 $106 $22 $-1 $107 forward single #
loop $-1 $108 $109 $42 #
cone-surface $-1 -29.86742924423093 -21.365736489750891 2.6876017202142188 0 0.86602541151947299 -0.49999998660252726 0.25 0 0 1 I I -0.70710678118654746 0.70710678118654746 0.25 forward I I I I #
loop $-1 $-1 $110 $28 #
coedge $-1 $68 $68 $111 $112 reversed $43 $-1 #
face $-1 $-1 $113 $23 $-1 $114 forward single #
loop $-1 $115 $116 $45 #
cone-surface $-1 -24.008348973125521 -21.365736489750891 2.6876017202142188 0 0.86602541151947299 -0.49999998660252726 0.25 0 0 1 I I -0.70710678118654746 0.70710678118654746 0.25 forward I I I I #
loop $-1 $-1 $117 $29 #
coedge $-1 $73 $73 $118 $119 reversed $46 $-1 #
face $-1 $120 $121 $18 $-1 $122 reversed single #
loop $-1 $-1 $123 $48 #
plane-surface $-1 0 0 -5.4694635008496126 0 0 1 1 0 0 forward_v I I I I #
coedge $-1 $124 $125 $78 $126 forward $49 $-1 #
coedge $-1 $127 $51 $77 $126 reversed $31 $-1 #
coedge $-1 $51 $127 $123 $128 reversed $31 $-1 #
coedge $-1 $129 $130 $51 $81 forward $131 $-1 #
edge $-1 $132 -5.4694635008496126 $133 5.4694635008496126 $51 $134 forward 7 unknown #
face $-1 $135 $136 $19 $-1 $137 reversed single #
loop $-1 $-1 $88 $52 #
plane-surface $-1 -47.05294614719017 0 4.9694635008496126 0 0 1 1 0 0 forward_v I I I I #
coedge $-1 $138 $139 $87 $140 forward $53 $-1 #
coedge $-1 $141 $55 $142 $143 reversed $34 $-1 #
coedge $-1 $55 $141 $85 $140 reversed $34 $-1 #
coedge $-1 $144 $145 $55 $89 reversed $83 $-1 #
edge $-1 $146 -23.967944811343415 $147 23.967944811343415 $88 $148 forward 7 unknown #
face $-1 $149 $150 $20 $-1 $151 reversed single #
loop $-1 $-1 $152 $56 #
plane-surface $-1 47.05294614719017 0 4.9694635008496126 0 0 1 1 0 0 forward_v I I I I #
coedge $-1 $153 $154 $95 $155 forward $57 $-1 #
coedge $-1 $156 $59 $157 $158 reversed $37 $-1 #
coedge $-1 $59 $156 $93 $155 reversed $37 $-1 #
coedge $-1 $159 $160 $59 $97 reversed $91 $-1 #
edge $-1 $161 -23.967944811343415 $162 23.967944811343415 $96 $163 forward 7 unknown #
face $-1 $164 $165 $21 $-1 $166 forward single #
loop $-1 $-1 $167 $60 #
plane-surface $-1 -33.773482758301199 -100.83638888200093 46.011050450763804 1 0 0 0 0.86602541151947299 -0.49999998660252726 forward_v I I I I #
coedge $-1 $168 $169 $170 $171 reversed $61 $-1 #
coedge $-1 $103 $63 $172 $173 reversed $40 $-1 #
coedge $-1 $63 $102 $168 $174 reversed $40 $-1 #
coedge $-1 $170 $175 $63 $105 forward $165 $-1 #
edge $-1 $176 26.450249629657051 $177 28.666367186378448 $104 $178 forward 7 unknown #
loop $-1 $-1 $111 $64 #
plane-surface $-1 -26.937889108678224 -23.967944811343401 1.6310351599288069 0 -0.86602541151947299 0.49999998660252726 1 0 0 forward_v I I I I #
loop $-1 $-1 $179 $42 #
coedge $-1 $109 $109 $110 $180 reversed $65 $-1 #
coedge $-1 $110 $110 $109 $180 forward $67 $-1 #
coedge $-1 $111 $111 $68 $112 forward $106 $-1 #
edge $-1 $181 -1.9038930316466688e-015 $181 6.2831853071795987 $111 $182 forward 7 unknown #
loop $-1 $-1 $118 $69 #
plane-surface $-1 -26.937889108678224 -23.967944811343401 1.6310351599288069 0 -0.86602541151947299 0.49999998660252726 1 0 0 forward_v I I I I #
loop $-1 $-1 $183 $45 #
coedge $-1 $116 $116 $117 $184 reversed $70 $-1 #
coedge $-1 $117 $117 $116 $184 forward $72 $-1 #
coedge $-1 $118 $118 $73 $119 forward $113 $-1 #
edge $-1 $185 -1.9038930316466688e-015 $185 6.2831853071795987 $118 $186 forward 7 unknown #
face $-1 $187 $188 $18 $-1 $189 reversed single #
loop $-1 $-1 $190 $74 #
plane-surface $-1 0 -23.967944811343415 0 0 1 0 0 0 1 forward_v I I I I #
coedge $-1 $191 $192 $79 $128 forward $75 $-1 #
coedge $-1 $193 $77 $130 $194 forward $49 $-1 #
coedge $-1 $77 $193 $195 $196 forward $49 $-1 #
edge $-1 $197 -23.967944811343415 $132 23.967944811343415 $78 $198 forward 7 unknown #
coedge $-1 $79 $78 $199 $200 forward $31 $-1 #
edge $-1 $133 -23.967944811343415 $201 23.967944811343415 $79 $202 forward 7 unknown #
coedge $-1 $203 $80 $192 $204 reversed $131 $-1 #
coedge $-1 $80 $203 $124 $194 reversed $131 $-1 #
loop $-1 $-1 $80 $187 #
vertex $-1 $126 $205 #
vertex $-1 $128 $206 #
straight-curve $-1 44.38001647999512 23.967944811343415 0 0 0 -1 I I #
face $-1 $207 $208 $19 $-1 $209 reversed single #
loop $-1 $-1 $210 $82 #
plane-surface $-1 -47.05294614719017 0 1.9694635008496126 0 0 1 1 0 0 forward_v I I I I #
coedge $-1 $211 $85 $212 $213 reversed $53 $-1 #
coedge $-1 $85 $211 $144 $214 reversed $53 $-1 #
edge $-1 $146 -4.9694635008496126 $215 -1.9694635008496126 $85 $216 forward 7 unknown #
coedge $-1 $87 $86 $210 $217 forward $34 $-1 #
coedge $-1 $218 $219 $86 $143 forward $220 $-1 #
edge $-1 $221 1.9694635008496126 $147 4.9694635008496126 $142 $222 forward 7 unknown #
coedge $-1 $223 $88 $139 $214 forward $83 $-1 #
coedge $-1 $88 $223 $218 $224 forward $83 $-1 #
vertex $-1 $140 $225 #
vertex $-1 $224 $226 #
straight-curve $-1 -44.38001647999512 0 4.9694635008496126 0 -1 0 I I #
face $-1 $227 $228 $20 $-1 $229 reversed single #
loop $-1 $-1 $230 $90 #
plane-surface $-1 47.05294614719017 0 1.9694635008496126 0 0 1 1 0 0 forward_v I I I I #
coedge $-1 $160 $159 $231 $232 forward $91 $-1 #
coedge $-1 $233 $93 $234 $235 reversed $57 $-1 #
coedge $-1 $93 $233 $159 $236 reversed $57 $-1 #
edge $-1 $161 -4.9694635008496126 $237 -1.9694635008496126 $93 $238 forward 7 unknown #
coedge $-1 $95 $94 $239 $240 forward $37 $-1 #
coedge $-1 $241 $242 $94 $158 forward $243 $-1 #
edge $-1 $244 1.9694635008496126 $162 4.9694635008496126 $157 $245 forward 7 unknown #
coedge $-1 $152 $96 $154 $236 forward $91 $-1 #
coedge $-1 $96 $152 $241 $246 forward $91 $-1 #
vertex $-1 $155 $247 #
vertex $-1 $246 $248 #
straight-curve $-1 44.38001647999512 0 4.9694635008496126 0 1 0 I I #
face $-1 $-1 $249 $21 $-1 $250 reversed single #
loop $-1 $-1 $104 $98 #
plane-surface $-1 0 0 5.4694635008496126 0 0 1 1 0 0 forward_v I I I I #
coedge $-1 $251 $252 $253 $254 reversed $99 $-1 #
coedge $-1 $255 $101 $103 $174 forward $61 $-1 #
coedge $-1 $101 $255 $251 $256 forward $61 $-1 #
coedge $-1 $253 $104 $101 $171 forward $165 $-1 #
edge $-1 $177 6.6333509047161332 $257 20.304538203962089 $170 $258 forward 7 unknown #
coedge $-1 $259 $260 $102 $173 forward $249 $-1 #
edge $-1 $261 -21.37449006545312 $176 -17.536061724532289 $172 $262 forward 7 unknown #
edge $-1 $177 -4.4322352322042651 $261 2.8450313176714033e-014 $103 $263 forward 7 unknown #
coedge $-1 $104 $253 $259 $264 forward $165 $-1 #
vertex $-1 $173 $265 #
vertex $-1 $105 $266 #
straight-curve $-1 -20.102295459055245 -50.418194441000466 5.4694635008496135 0 1 0 I I #
coedge $-1 $179 $179 $-1 $267 reversed $108 $-1 #
edge $-1 $268 0 $268 6.2831853071796004 $109 $269 forward 7 unknown #
vertex $-1 $112 $270 #
ellipse-curve $-1 -29.86742924423093 -22.859886032982711 3.5502493303892058 0 -0.86602541151947299 0.49999998660252726 0.5 0 0 1 I I #
coedge $-1 $183 $183 $-1 $271 reversed $115 $-1 #
edge $-1 $272 0 $272 6.2831853071796004 $116 $273 forward 7 unknown #
vertex $-1 $119 $274 #
ellipse-curve $-1 -24.008348973125521 -22.859886032982711 3.5502493303892058 0 -0.86602541151947299 0.49999998660252726 0.5 0 0 1 I I #
face $-1 $-1 $131 $18 $-1 $275 reversed single #
loop $-1 $-1 $276 $120 #
plane-surface $-1 -44.38001647999512 0 0 1 0 0 0 0 -1 forward_v I I I I #
coedge $-1 $277 $195 $276 $278 forward $121 $-1 #
coedge $-1 $279 $123 $277 $280 forward $75 $-1 #
coedge $-1 $123 $279 $129 $204 forward $75 $-1 #
coedge $-1 $125 $124 $281 $282 forward $49 $-1 #
edge $-1 $132 -44.38001647999512 $283 44.38001647999512 $130 $284 forward 7 unknown #
coedge $-1 $190 $199 $125 $196 reversed $121 $-1 #
edge $-1 $285 -44.38001647999512 $197 44.38001647999512 $195 $286 forward 7 unknown #
vertex $-1 $126 $287 #
straight-curve $-1 44.38001647999512 0 5.4694635008496126 0 1 0 I I #
coedge $-1 $195 $277 $127 $200 reversed $121 $-1 #
edge $-1 $197 -5.4694635008496126 $201 5.4694635008496126 $127 $288 forward 7 unknown #
vertex $-1 $200 $289 #
straight-curve $-1 44.38001647999512 0 -5.4694635008496126 0 -1 0 I I #
coedge $-1 $130 $129 $290 $291 reversed $131 $-1 #
edge $-1 $292 -44.38001647999512 $133 44.38001647999512 $129 $293 forward 7 unknown #
point $-1 44.38001647999512 23.967944811343415 5.4694635008496126 #
point $-1 44.38001647999512 23.967944811343415 -5.4694635008496126 #
face $-1 $-1 $220 $19 $-1 $294 reversed single #
loop $-1 $-1 $295 $135 #
plane-surface $-1 -49.725875814385219 0 3.4694635008496126 1 0 0 0 0 -1 forward_v I I I I #
coedge $-1 $296 $212 $141 $217 reversed $136 $-1 #
coedge $-1 $139 $138 $295 $297 reversed $53 $-1 #
coedge $-1 $210 $298 $138 $213 forward $136 $-1 #
edge $-1 $299 -2.6729296671950493 $215 2.6729296671950493 $138 $300 forward 7 unknown #
edge $-1 $146 -2.6729296671950493 $301 2.6729296671950493 $139 $302 forward 7 unknown #
vertex $-1 $140 $303 #
straight-curve $-1 -44.38001647999512 23.967944811343415 0 0 0 -1 I I #
edge $-1 $221 -23.967944811343415 $215 23.967944811343415 $210 $304 forward 7 unknown #
coedge $-1 $305 $142 $145 $224 reversed $220 $-1 #
coedge $-1 $142 $305 $296 $306 reversed $220 $-1 #
loop $-1 $-1 $142 $207 #
vertex $-1 $143 $307 #
straight-curve $-1 -44.38001647999512 -23.967944811343415 0 0 0 1 I I #
coedge $-1 $145 $144 $308 $309 forward $83 $-1 #
edge $-1 $310 -2.6729296671950493 $147 2.6729296671950493 $218 $311 forward 7 unknown #
point $-1 -44.38001647999512 23.967944811343415 4.9694635008496126 #
point $-1 -44.38001647999512 -23.967944811343415 4.9694635008496126 #
face $-1 $-1 $243 $20 $-1 $312 reversed single #
loop $-1 $-1 $313 $149 #
plane-surface $-1 49.725875814385219 0 3.4694635008496126 -1 0 0 0 0 1 forward_v I I I I #
coedge $-1 $234 $314 $315 $316 forward $150 $-1 #
coedge $-1 $313 $317 $152 $232 reversed $228 $-1 #
edge $-1 $318 -23.967944811343415 $319 23.967944811343415 $231 $320 forward 7 unknown #
coedge $-1 $154 $153 $313 $321 reversed $57 $-1 #
coedge $-1 $239 $230 $153 $235 forward $150 $-1 #
edge $-1 $322 -2.6729296671950493 $237 2.6729296671950493 $153 $323 forward 7 unknown #
edge $-1 $161 -2.6729296671950493 $318 2.6729296671950493 $154 $324 forward 7 unknown #
vertex $-1 $155 $325 #
straight-curve $-1 44.38001647999512 -23.967944811343415 0 0 0 -1 I I #
coedge $-1 $314 $234 $156 $240 reversed $150 $-1 #
edge $-1 $244 -23.967944811343415 $237 23.967944811343415 $239 $326 forward 7 unknown #
coedge $-1 $327 $157 $160 $246 reversed $243 $-1 #
coedge $-1 $157 $327 $314 $328 reversed $243 $-1 #
loop $-1 $-1 $157 $227 #
vertex $-1 $158 $329 #
straight-curve $-1 44.38001647999512 23.967944811343415 0 0 0 1 I I #
edge $-1 $319 -2.6729296671950493 $162 2.6729296671950493 $241 $330 forward 7 unknown #
point $-1 44.38001647999512 -23.967944811343415 4.9694635008496126 #
point $-1 44.38001647999512 23.967944811343415 4.9694635008496126 #
loop $-1 $-1 $172 $164 #
plane-surface $-1 0 -23.967944811343415 0 0 1 0 0 0 1 forward_v I I I I #
coedge $-1 $252 $167 $169 $256 reversed $99 $-1 #
coedge $-1 $167 $251 $331 $332 reversed $99 $-1 #
coedge $-1 $175 $170 $167 $254 forward $165 $-1 #
edge $-1 $257 -28.666367186378448 $333 -26.450249629657051 $253 $334 forward 7 unknown #
coedge $-1 $169 $168 $260 $335 reversed $61 $-1 #
edge $-1 $336 -2.8450313176714033e-014 $257 4.4322352322042651 $251 $337 forward 7 unknown #
vertex $-1 $171 $338 #
straight-curve $-1 -13.468944554339112 -21.751827254622018 5.4694635008496126 -1 0 0 I I #
coedge $-1 $331 $172 $175 $264 reversed $249 $-1 #
coedge $-1 $172 $331 $255 $335 forward $249 $-1 #
vertex $-1 $173 $339 #
straight-curve $-1 -20.102295459055245 -23.967944811343415 23.005525225381902 0 0 1 I I #
straight-curve $-1 -20.102295459055245 -23.967944811343401 1.6310351599288069 0 -0.49999998660252726 -0.86602541151947299 I I #
edge $-1 $333 -33.773482758301199 $176 -20.102295459055245 $259 $340 forward 7 unknown #
point $-1 -20.102295459055245 -23.967944811343415 5.4694635008496126 #
point $-1 -20.102295459055245 -21.751827254622018 5.4694635008496126 #
edge $-1 $341 1 $341 0 $179 $-1 forward 7 unknown #
vertex $-1 $180 $342 #
ellipse-curve $-1 -29.86742924423093 -21.582242842630759 2.8126017168648505 0 -0.86602541151947299 0.49999998660252726 0.5 0 0 1 I I #
point $-1 -29.36742924423093 -22.859886032982725 3.5502493303892129 #
edge $-1 $343 1 $343 0 $183 $-1 forward 7 unknown #
vertex $-1 $184 $344 #
ellipse-curve $-1 -24.008348973125521 -21.582242842630759 2.8126017168648505 0 -0.86602541151947299 0.49999998660252726 0.5 0 0 1 I I #
point $-1 -23.508348973125521 -22.859886032982725 3.5502493303892129 #
plane-surface $-1 0 23.967944811343415 0 0 -1 0 0 0 -1 forward_v I I I I #
coedge $-1 $281 $345 $190 $278 reversed $188 $-1 #
coedge $-1 $199 $190 $191 $280 reversed $121 $-1 #
edge $-1 $285 -5.4694635008496126 $346 5.4694635008496126 $276 $347 forward 7 unknown #
coedge $-1 $192 $191 $345 $348 forward $75 $-1 #
edge $-1 $201 -44.38001647999512 $346 44.38001647999512 $277 $349 forward 7 unknown #
coedge $-1 $290 $276 $193 $282 reversed $188 $-1 #
edge $-1 $283 -23.967944811343415 $285 23.967944811343415 $281 $350 forward 7 unknown #
vertex $-1 $194 $351 #
straight-curve $-1 0 23.967944811343415 5.4694635008496126 -1 0 0 I I #
vertex $-1 $282 $352 #
straight-curve $-1 0 -23.967944811343415 5.4694635008496126 1 0 0 I I #
point $-1 44.38001647999512 -23.967944811343415 5.4694635008496126 #
straight-curve $-1 44.38001647999512 -23.967944811343415 0 0 0 -1 I I #
point $-1 44.38001647999512 -23.967944811343415 -5.4694635008496126 #
coedge $-1 $345 $281 $203 $291 forward $188 $-1 #
edge $-1 $283 -5.4694635008496126 $292 5.4694635008496126 $203 $353 forward 7 unknown #
vertex $-1 $204 $354 #
straight-curve $-1 0 23.967944811343415 -5.4694635008496126 1 0 0 I I #
plane-surface $-1 0 -23.967944811343415 0 0 1 0 0 0 1 forward_v I I I I #
coedge $-1 $355 $308 $211 $297 forward $208 $-1 #
coedge $-1 $298 $210 $219 $306 forward $136 $-1 #
edge $-1 $301 -1.5 $299 1.5 $211 $356 forward 7 unknown #
coedge $-1 $212 $296 $355 $357 forward $136 $-1 #
vertex $-1 $213 $358 #
straight-curve $-1 -47.05294614719017 23.967944811343415 1.9694635008496126 1 0 0 I I #
vertex $-1 $214 $359 #
straight-curve $-1 -47.05294614719017 23.967944811343415 4.9694635008496126 -1 0 0 I I #
point $-1 -44.38001647999512 23.967944811343415 1.9694635008496126 #
straight-curve $-1 -44.38001647999512 0 1.9694635008496126 0 1 0 I I #
coedge $-1 $219 $218 $360 $361 forward $220 $-1 #
edge $-1 $221 -2.6729296671950493 $362 2.6729296671950493 $219 $363 forward 7 unknown #
point $-1 -44.38001647999512 -23.967944811343415 1.9694635008496126 #
coedge $-1 $295 $360 $223 $309 reversed $208 $-1 #
edge $-1 $301 -23.967944811343415 $310 23.967944811343415 $308 $364 forward 7 unknown #
vertex $-1 $309 $365 #
straight-curve $-1 -47.05294614719017 -23.967944811343415 4.9694635008496126 1 0 0 I I #
plane-surface $-1 0 23.967944811343415 0 0 -1 0 0 0 -1 forward_v I I I I #
coedge $-1 $315 $231 $233 $321 forward $228 $-1 #
coedge $-1 $230 $239 $242 $328 forward $150 $-1 #
coedge $-1 $317 $313 $230 $316 reversed $228 $-1 #
edge $-1 $366 -23.967944811343415 $322 23.967944811343415 $315 $367 forward 7 unknown #
coedge $-1 $231 $315 $327 $368 reversed $228 $-1 #
vertex $-1 $232 $369 #
vertex $-1 $232 $370 #
straight-curve $-1 49.725875814385219 0 4.9694635008496126 0 1 0 I I #
edge $-1 $318 -1.5 $322 1.5 $313 $371 forward 7 unknown #
vertex $-1 $321 $372 #
straight-curve $-1 47.05294614719017 -23.967944811343415 1.9694635008496126 -1 0 0 I I #
straight-curve $-1 47.05294614719017 -23.967944811343415 4.9694635008496126 1 0 0 I I #
point $-1 44.38001647999512 -23.967944811343415 1.9694635008496126 #
straight-curve $-1 44.38001647999512 0 1.9694635008496126 0 -1 0 I I #
coedge $-1 $242 $241 $317 $368 forward $243 $-1 #
edge $-1 $244 -2.6729296671950493 $366 2.6729296671950493 $242 $373 forward 7 unknown #
point $-1 44.38001647999512 23.967944811343415 1.9694635008496126 #
straight-curve $-1 47.05294614719017 23.967944811343415 4.9694635008496126 -1 0 0 I I #
coedge $-1 $260 $259 $252 $332 forward $249 $-1 #
edge $-1 $333 17.536061724532289 $336 21.37449006545312 $331 $374 forward 7 unknown #
vertex $-1 $264 $375 #
straight-curve $-1 -33.773482758301199 -50.418194441000466 5.4694635008496135 0 -1 0 I I #
edge $-1 $336 -20.304538203962089 $261 -6.6333509047161332 $260 $376 forward 7 unknown #
vertex $-1 $335 $377 #
straight-curve $-1 -33.773482758301199 -23.967944811343401 1.6310351599288069 0 0.49999998660252726 0.86602541151947299 I I #
point $-1 -33.773482758301199 -21.751827254622018 5.4694635008496126 #
point $-1 -20.102295459055245 -23.967944811343415 1.6310351599287822 #
straight-curve $-1 0 -23.967944811343415 5.4694635008496126 1 0 0 I I #
vertex $-1 $267 $378 #
point $-1 -29.36742924423093 -21.582242842630759 2.8126017168648505 #
vertex $-1 $271 $379 #
point $-1 -23.508348973125521 -21.582242842630759 2.8126017168648505 #
coedge $-1 $276 $290 $279 $348 reversed $188 $-1 #
vertex $-1 $348 $380 #
straight-curve $-1 -44.38001647999512 -23.967944811343415 0 0 0 -1 I I #
edge $-1 $346 -23.967944811343415 $292 23.967944811343415 $345 $381 forward 7 unknown #
straight-curve $-1 0 -23.967944811343415 -5.4694635008496126 -1 0 0 I I #
straight-curve $-1 -44.38001647999512 0 5.4694635008496126 0 -1 0 I I #
point $-1 -44.38001647999512 23.967944811343415 5.4694635008496126 #
point $-1 -44.38001647999512 -23.967944811343415 5.4694635008496126 #
straight-curve $-1 -44.38001647999512 23.967944811343415 0 0 0 -1 I I #
point $-1 -44.38001647999512 23.967944811343415 -5.4694635008496126 #
coedge $-1 $360 $295 $298 $357 reversed $208 $-1 #
straight-curve $-1 -49.725875814385219 23.967944811343415 3.4694635008496126 0 0 -1 I I #
edge $-1 $362 -23.967944811343415 $299 23.967944811343415 $355 $382 forward 7 unknown #
point $-1 -49.725875814385219 23.967944811343415 1.9694635008496126 #
point $-1 -49.725875814385219 23.967944811343415 4.9694635008496126 #
coedge $-1 $308 $355 $305 $361 reversed $208 $-1 #
edge $-1 $310 -1.5 $362 1.5 $360 $383 forward 7 unknown #
vertex $-1 $357 $384 #
straight-curve $-1 -47.05294614719017 -23.967944811343415 1.9694635008496126 -1 0 0 I I #
straight-curve $-1 -49.725875814385219 0 4.9694635008496126 0 -1 0 I I #
point $-1 -49.725875814385219 -23.967944811343415 4.9694635008496126 #
vertex $-1 $316 $385 #
straight-curve $-1 49.725875814385219 0 1.9694635008496126 0 -1 0 I I #
edge $-1 $319 -1.5 $366 1.5 $317 $386 forward 7 unknown #
point $-1 49.725875814385219 -23.967944811343415 4.9694635008496126 #
point $-1 49.725875814385219 23.967944811343415 4.9694635008496126 #
straight-curve $-1 49.725875814385219 -23.967944811343415 3.4694635008496126 0 0 -1 I I #
point $-1 49.725875814385219 -23.967944811343415 1.9694635008496126 #
straight-curve $-1 47.05294614719017 23.967944811343415 1.9694635008496126 1 0 0 I I #
straight-curve $-1 -33.773482758301199 -23.967944811343415 23.005525225381902 0 0 -1 I I #
point $-1 -33.773482758301199 -23.967944811343415 5.4694635008496126 #
straight-curve $-1 -13.468944554339112 -23.967944811343415 1.6310351599287829 1 0 0 I I #
point $-1 -33.773482758301199 -23.967944811343415 1.6310351599287822 #
point $-1 -29.86742924423093 -21.149230136871022 2.5626017235635872 #
point $-1 -24.008348973125521 -21.149230136871022 2.5626017235635872 #
point $-1 -44.38001647999512 -23.967944811343415 -5.4694635008496126 #
straight-curve $-1 -44.38001647999512 0 -5.4694635008496126 0 1 0 I I #
straight-curve $-1 -49.725875814385219 0 1.9694635008496126 0 1 0 I I #
straight-curve $-1 -49.725875814385219 -23.967944811343415 3.4694635008496126 0 0 -1 I I #
point $-1 -49.725875814385219 -23.967944811343415 1.9694635008496126 #
point $-1 49.725875814385219 23.967944811343415 1.9694635008496126 #
straight-curve $-1 49.725875814385219 23.967944811343415 3.4694635008496126 0 0 -1 I I #
End-of-ACIS-data 