500 0 4 0           
7 Unknown 11 ACIS 5.0 NT 24 Thu Mar 25 15:59:41 1999 
-1 9.9999999999999995e-007 1e-010 
body $-1 $4 $-1 $5 #
body $-1 $6 $-1 $7 #
body $-1 $8 $-1 $9 #
body $-1 $10 $-1 $11 #
lump $-1 $-1 $12 $0 #
transform $-1 1 0 0 0 1 0 0 0 1 59.650257881405075 28.419205476186129 10.413899413224113 1 rotate no_reflect no_shear #
lump $-1 $-1 $13 $1 #
transform $-1 1 0 0 0 1 0 0 0 1 59.650257881405075 28.419205476186129 10.413899413224113 1 rotate no_reflect no_shear #
lump $-1 $-1 $14 $2 #
transform $-1 1 0 0 0 1 0 0 0 1 59.650257881405075 28.419205476186129 10.413899413224113 1 rotate no_reflect no_shear #
lump $-1 $-1 $15 $3 #
transform $-1 1 0 0 0 1 0 0 0 1 59.650257881405075 28.419205476186129 10.413899413224113 1 rotate no_reflect no_shear #
shell $-1 $-1 $-1 $16 $-1 $4 #
shell $-1 $-1 $-1 $17 $-1 $6 #
shell $-1 $-1 $-1 $18 $-1 $8 #
shell $-1 $-1 $-1 $19 $-1 $10 #
face $-1 $20 $21 $12 $-1 $22 forward single #
face $-1 $23 $24 $13 $-1 $25 reversed single #
face $-1 $26 $27 $14 $-1 $28 reversed single #
face $-1 $29 $30 $15 $-1 $31 forward single #
face $-1 $32 $33 $12 $-1 $34 reversed single #
loop $-1 $-1 $35 $16 #
plane-surface $-1 0 0 10.413899413224113 0 0 1 1 0 0 forward_v I I I I #
face $-1 $36 $37 $13 $-1 $38 reversed single #
loop $-1 $-1 $39 $17 #
plane-surface $-1 0 -24.2954481398592 4.6229615425506747 0 0 1 1 0 0 forward_v I I I I #
face $-1 $40 $41 $14 $-1 $42 reversed single #
loop $-1 $-1 $43 $18 #
plane-surface $-1 -40.428264016548475 68.212980733972699 129.36912437579088 -1 0 0 0 0.68199836817093118 0.7313536940579346 forward_v I I I I #
face $-1 $44 $45 $15 $-1 $46 forward single #
loop $-1 $47 $48 $19 #
cone-surface $-1 -50.039260948976775 23.945433037837667 6.1457276440166231 0 -0.68199836817093118 -0.7313536940579346 1.5 0 0 1 I I 0 1 1.5 forward I I I I #
face $-1 $49 $50 $12 $-1 $51 reversed single #
loop $-1 $-1 $52 $20 #
plane-surface $-1 0 0 -10.413899413224113 0 0 1 1 0 0 forward_v I I I I #
coedge $-1 $53 $54 $55 $56 forward $21 $-1 #
face $-1 $57 $58 $13 $-1 $59 reversed single #
loop $-1 $-1 $60 $23 #
plane-surface $-1 0 -20.171690803532272 7.518430477887394 0 -1 0 0 0 -1 forward_v I I I I #
coedge $-1 $61 $62 $63 $64 reversed $24 $-1 #
face $-1 $65 $66 $14 $-1 $67 reversed single #
loop $-1 $-1 $68 $26 #
plane-surface $-1 -50.039260948976775 -13.149776338214281 42.118251469642814 0 0.68199836817093118 0.7313536940579346 1 0 0 forward_v I I I I #
coedge $-1 $69 $70 $71 $72 reversed $27 $-1 #
face $-1 $-1 $73 $15 $-1 $74 forward single #
loop $-1 $75 $76 $29 #
cone-surface $-1 -50.039260948976775 22.745275549966813 4.8587163355296656 0 -0.68199836817093118 -0.7313536940579346 0.75 0 0 1 I I -0.70710678118654757 0.70710678118654757 0.75 forward I I I I #
loop $-1 $-1 $77 $19 #
coedge $-1 $48 $48 $78 $79 reversed $30 $-1 #
face $-1 $80 $81 $12 $-1 $82 reversed single #
loop $-1 $-1 $83 $32 #
plane-surface $-1 0 -28.419205476186129 0 0 1 0 0 0 1 forward_v I I I I #
coedge $-1 $84 $85 $86 $87 forward $33 $-1 #
coedge $-1 $88 $35 $89 $90 forward $21 $-1 #
coedge $-1 $35 $88 $91 $92 forward $21 $-1 #
coedge $-1 $93 $94 $35 $56 reversed $95 $-1 #
edge $-1 $96 -28.419205476186129 $97 28.419205476186129 $55 $98 forward 7 unknown #
face $-1 $99 $100 $13 $-1 $101 reversed single #
loop $-1 $-1 $102 $36 #
plane-surface $-1 -59.650257881405075 0 0 1 0 0 0 0 -1 forward_v I I I I #
coedge $-1 $103 $104 $105 $106 reversed $37 $-1 #
coedge $-1 $107 $39 $108 $109 reversed $24 $-1 #
coedge $-1 $39 $107 $103 $110 forward $24 $-1 #
coedge $-1 $105 $111 $39 $64 forward $112 $-1 #
edge $-1 $113 -16.271481406256527 $114 -8.0239667336026717 $63 $115 forward 7 unknown #
face $-1 $116 $117 $14 $-1 $118 forward single #
loop $-1 $-1 $119 $40 #
plane-surface $-1 -59.650257881405075 0 0 1 0 0 0 0 -1 forward_v I I I I #
coedge $-1 $120 $121 $122 $123 reversed $41 $-1 #
coedge $-1 $70 $43 $124 $125 reversed $27 $-1 #
coedge $-1 $43 $69 $120 $126 reversed $27 $-1 #
coedge $-1 $122 $127 $43 $72 forward $128 $-1 #
edge $-1 $129 54.270662774671322 $130 61.330014237199272 $71 $131 forward 7 unknown #
loop $-1 $-1 $78 $44 #
plane-surface $-1 -50.039260948976775 -13.149776338214281 42.118251469642814 0 0.68199836817093118 0.7313536940579346 1 0 0 forward_v I I I I #
loop $-1 $-1 $132 $29 #
coedge $-1 $76 $76 $77 $133 reversed $45 $-1 #
coedge $-1 $77 $77 $76 $133 forward $47 $-1 #
coedge $-1 $78 $78 $48 $79 forward $73 $-1 #
edge $-1 $134 -1.0414420990407142e-015 $134 6.2831853071795996 $78 $135 forward 7 unknown #
face $-1 $136 $137 $12 $-1 $138 reversed single #
loop $-1 $-1 $139 $49 #
plane-surface $-1 -59.650257881405075 0 0 1 0 0 0 0 -1 forward_v I I I I #
coedge $-1 $140 $91 $141 $142 forward $50 $-1 #
coedge $-1 $143 $52 $140 $144 forward $33 $-1 #
coedge $-1 $52 $143 $145 $146 forward $33 $-1 #
coedge $-1 $94 $93 $52 $87 reversed $95 $-1 #
edge $-1 $147 -28.419205476186129 $148 28.419205476186129 $86 $149 forward 7 unknown #
coedge $-1 $54 $53 $150 $151 forward $21 $-1 #
coedge $-1 $152 $153 $53 $90 reversed $137 $-1 #
edge $-1 $97 -59.650257881405075 $154 59.650257881405075 $89 $155 forward 7 unknown #
coedge $-1 $83 $156 $54 $92 reversed $50 $-1 #
edge $-1 $157 -59.650257881405075 $96 59.650257881405075 $91 $158 forward 7 unknown #
coedge $-1 $86 $55 $156 $159 forward $95 $-1 #
coedge $-1 $55 $86 $152 $160 reversed $95 $-1 #
loop $-1 $-1 $93 $136 #
vertex $-1 $56 $161 #
vertex $-1 $56 $162 #
straight-curve $-1 59.650257881405075 0 10.413899413224113 0 1 0 I I #
face $-1 $163 $164 $13 $-1 $165 forward single #
loop $-1 $-1 $108 $57 #
plane-surface $-1 0 -28.419205476186129 0 0 1 0 0 0 1 forward_v I I I I #
coedge $-1 $166 $167 $168 $169 forward $58 $-1 #
coedge $-1 $168 $60 $62 $110 reversed $37 $-1 #
coedge $-1 $60 $168 $170 $171 reversed $37 $-1 #
coedge $-1 $172 $63 $60 $106 forward $112 $-1 #
edge $-1 $114 0.86374630360697768 $173 6.6546841742804164 $105 $174 forward 7 unknown #
coedge $-1 $62 $61 $166 $175 reversed $24 $-1 #
coedge $-1 $176 $177 $61 $109 forward $100 $-1 #
edge $-1 $178 -59.650257881405075 $113 59.650257881405075 $108 $179 forward 7 unknown #
edge $-1 $180 -59.650257881405075 $114 59.650257881405075 $103 $181 forward 7 unknown #
coedge $-1 $63 $172 $176 $182 forward $112 $-1 #
loop $-1 $-1 $105 $163 #
vertex $-1 $109 $183 #
vertex $-1 $64 $184 #
straight-curve $-1 59.650257881405075 -12.1477240699296 4.6229615425506747 0 1 0 I I #
face $-1 $-1 $128 $14 $-1 $185 reversed single #
loop $-1 $-1 $124 $65 #
plane-surface $-1 0 0 10.413899413224113 0 0 1 1 0 0 forward_v I I I I #
coedge $-1 $186 $187 $121 $188 forward $66 $-1 #
coedge $-1 $189 $68 $70 $126 forward $41 $-1 #
coedge $-1 $68 $189 $119 $188 reversed $41 $-1 #
coedge $-1 $190 $71 $68 $123 forward $128 $-1 #
edge $-1 $130 15.408633542060088 $191 34.630627406916688 $122 $192 forward 7 unknown #
coedge $-1 $193 $194 $69 $125 forward $117 $-1 #
edge $-1 $195 -13.257512344011836 $129 -5.6872848908002211 $124 $196 forward 7 unknown #
edge $-1 $130 -56.838410952372243 $195 -46.487430961817992 $70 $197 forward 7 unknown #
coedge $-1 $71 $190 $193 $198 reversed $128 $-1 #
loop $-1 $-1 $122 $116 #
vertex $-1 $198 $199 #
vertex $-1 $72 $200 #
straight-curve $-1 -40.428264016548475 28.419205476186129 64.684562187895438 0 0 -1 I I #
coedge $-1 $132 $132 $-1 $201 reversed $75 $-1 #
edge $-1 $202 0 $202 6.2831853071796004 $76 $203 forward 7 unknown #
vertex $-1 $79 $204 #
ellipse-curve $-1 -50.039260948976775 24.634091749580328 6.884223681960135 0 0.68199836817093118 0.7313536940579346 1.5 0 0 1 I I #
face $-1 $-1 $95 $12 $-1 $205 reversed single #
loop $-1 $-1 $152 $80 #
plane-surface $-1 0 28.419205476186129 0 0 -1 0 0 0 -1 forward_v I I I I #
coedge $-1 $206 $150 $153 $207 forward $81 $-1 #
coedge $-1 $156 $83 $84 $144 reversed $50 $-1 #
coedge $-1 $150 $206 $83 $142 reversed $81 $-1 #
edge $-1 $157 -10.413899413224113 $208 10.413899413224113 $141 $209 forward 7 unknown #
coedge $-1 $85 $84 $206 $210 forward $33 $-1 #
edge $-1 $148 -59.650257881405075 $208 59.650257881405075 $140 $211 forward 7 unknown #
coedge $-1 $153 $152 $85 $146 reversed $137 $-1 #
edge $-1 $212 -59.650257881405075 $147 59.650257881405075 $145 $213 forward 7 unknown #
vertex $-1 $87 $214 #
vertex $-1 $159 $215 #
straight-curve $-1 59.650257881405075 0 -10.413899413224113 0 -1 0 I I #
coedge $-1 $139 $141 $88 $151 reversed $81 $-1 #
edge $-1 $154 -28.419205476186129 $157 28.419205476186129 $150 $216 forward 7 unknown #
coedge $-1 $145 $89 $94 $160 forward $137 $-1 #
coedge $-1 $89 $145 $139 $207 reversed $137 $-1 #
vertex $-1 $90 $217 #
straight-curve $-1 0 28.419205476186129 10.413899413224113 -1 0 0 I I #
coedge $-1 $91 $140 $93 $159 reversed $50 $-1 #
vertex $-1 $151 $218 #
straight-curve $-1 0 -28.419205476186129 10.413899413224113 1 0 0 I I #
edge $-1 $96 -10.413899413224113 $148 10.413899413224113 $93 $219 forward 7 unknown #
edge $-1 $97 -10.413899413224113 $147 10.413899413224113 $94 $220 forward 7 unknown #
point $-1 59.650257881405075 -28.419205476186129 10.413899413224113 #
point $-1 59.650257881405075 28.419205476186129 10.413899413224113 #
face $-1 $-1 $112 $13 $-1 $221 reversed single #
loop $-1 $-1 $170 $99 #
plane-surface $-1 0 0 10.413899413224113 0 0 1 1 0 0 forward_v I I I I #
coedge $-1 $222 $102 $107 $175 forward $58 $-1 #
coedge $-1 $102 $222 $223 $224 reversed $58 $-1 #
coedge $-1 $104 $103 $102 $169 reversed $37 $-1 #
edge $-1 $225 -6.6546841742804164 $180 -0.86374630360697768 $102 $226 forward 7 unknown #
coedge $-1 $223 $227 $104 $171 forward $164 $-1 #
edge $-1 $173 -59.650257881405075 $225 59.650257881405075 $170 $228 forward 7 unknown #
coedge $-1 $111 $105 $227 $229 reversed $112 $-1 #
vertex $-1 $106 $230 #
straight-curve $-1 59.650257881405075 -20.171690803532272 3.759215238943697 0 0 1 I I #
edge $-1 $180 8.0239667336026717 $178 16.271481406256527 $166 $231 forward 7 unknown #
coedge $-1 $232 $108 $111 $182 reversed $100 $-1 #
coedge $-1 $108 $232 $222 $233 forward $100 $-1 #
vertex $-1 $109 $234 #
straight-curve $-1 0 -28.419205476186129 4.6229615425506747 1 0 0 I I #
vertex $-1 $175 $235 #
straight-curve $-1 0 -20.171690803532272 4.6229615425506747 1 0 0 I I #
edge $-1 $236 -10.413899413224113 $113 -4.6229615425506747 $111 $237 forward 7 unknown #
point $-1 59.650257881405075 -28.419205476186129 4.6229615425506747 #
point $-1 59.650257881405075 -20.171690803532272 4.6229615425506747 #
plane-surface $-1 0 28.419205476186129 0 0 -1 0 0 0 -1 forward_v I I I I #
coedge $-1 $187 $119 $238 $239 reversed $66 $-1 #
coedge $-1 $119 $186 $190 $240 forward $66 $-1 #
edge $-1 $191 -37.667552815623267 $241 -27.316572825069017 $119 $242 forward 7 unknown #
coedge $-1 $121 $120 $194 $243 reversed $41 $-1 #
coedge $-1 $127 $122 $187 $240 reversed $128 $-1 #
vertex $-1 $188 $244 #
straight-curve $-1 -25.019630474488388 28.419205476186129 3.3545479506961655 -1 0 0 I I #
coedge $-1 $238 $124 $127 $198 forward $117 $-1 #
coedge $-1 $124 $238 $189 $243 forward $117 $-1 #
vertex $-1 $125 $245 #
straight-curve $-1 -40.428264016548475 34.10649036698635 10.413899413224115 0 1 0 I I #
straight-curve $-1 -40.428264016548475 -13.149776338214281 42.118251469642814 0 -0.7313536940579346 0.68199836817093118 I I #
edge $-1 $129 40.428264016548475 $246 59.650257881405075 $127 $247 forward 7 unknown #
point $-1 -40.428264016548475 28.419205476186129 10.413899413224113 #
point $-1 -40.428264016548475 28.419205476186129 3.3545479506961655 #
edge $-1 $248 1 $248 0 $132 $-1 forward 7 unknown #
vertex $-1 $133 $249 #
ellipse-curve $-1 -50.039260948976775 23.256774326095012 5.4072316060731165 0 0.68199836817093118 0.7313536940579346 1.5 0 0 1 I I #
point $-1 -48.539260948976775 24.634091749580321 6.8842236819601297 #
plane-surface $-1 59.650257881405075 0 0 -1 0 0 0 0 1 forward_v I I I I #
coedge $-1 $141 $139 $143 $210 reversed $81 $-1 #
edge $-1 $154 -10.413899413224113 $212 10.413899413224113 $153 $250 forward 7 unknown #
vertex $-1 $210 $251 #
straight-curve $-1 -59.650257881405075 -28.419205476186129 0 0 0 -1 I I #
edge $-1 $208 -28.419205476186129 $212 28.419205476186129 $206 $252 forward 7 unknown #
straight-curve $-1 0 -28.419205476186129 -10.413899413224113 -1 0 0 I I #
vertex $-1 $146 $253 #
straight-curve $-1 0 28.419205476186129 -10.413899413224113 1 0 0 I I #
point $-1 59.650257881405075 28.419205476186129 -10.413899413224113 #
point $-1 59.650257881405075 -28.419205476186129 -10.413899413224113 #
straight-curve $-1 -59.650257881405075 0 10.413899413224113 0 -1 0 I I #
point $-1 -59.650257881405075 28.419205476186129 10.413899413224113 #
point $-1 -59.650257881405075 -28.419205476186129 10.413899413224113 #
straight-curve $-1 59.650257881405075 -28.419205476186129 0 0 0 -1 I I #
straight-curve $-1 59.650257881405075 28.419205476186129 0 0 0 -1 I I #
plane-surface $-1 59.650257881405075 0 0 -1 0 0 0 0 1 forward_v I I I I #
coedge $-1 $167 $166 $177 $233 reversed $58 $-1 #
coedge $-1 $254 $170 $167 $224 forward $164 $-1 #
edge $-1 $225 20.171690803532272 $255 28.419205476186129 $167 $256 forward 7 unknown #
vertex $-1 $224 $257 #
straight-curve $-1 -59.650257881405075 -20.171690803532272 3.759215238943697 0 0 -1 I I #
coedge $-1 $170 $254 $172 $229 forward $164 $-1 #
straight-curve $-1 0 -20.171690803532272 10.413899413224113 -1 0 0 I I #
edge $-1 $236 -28.419205476186129 $173 -20.171690803532272 $172 $258 forward 7 unknown #
point $-1 59.650257881405075 -20.171690803532272 10.413899413224113 #
straight-curve $-1 -59.650257881405075 -12.1477240699296 4.6229615425506747 0 -1 0 I I #
coedge $-1 $177 $176 $254 $259 reversed $100 $-1 #
edge $-1 $255 -10.413899413224113 $178 -4.6229615425506747 $222 $260 forward 7 unknown #
point $-1 -59.650257881405075 -28.419205476186129 4.6229615425506747 #
point $-1 -59.650257881405075 -20.171690803532272 4.6229615425506747 #
vertex $-1 $229 $261 #
straight-curve $-1 59.650257881405075 -28.419205476186129 0 0 0 -1 I I #
coedge $-1 $194 $193 $186 $239 forward $117 $-1 #
edge $-1 $246 -28.419205476186129 $241 -20.848978022974514 $186 $262 forward 7 unknown #
edge $-1 $246 -10.413899413224113 $191 -3.3545479506961637 $190 $263 forward 7 unknown #
vertex $-1 $188 $264 #
straight-curve $-1 -59.650257881405075 0.87090157835769766 29.043757503943592 0 -0.7313536940579346 0.68199836817093118 I I #
edge $-1 $241 -34.630627406916688 $195 -15.408633542060088 $194 $265 forward 7 unknown #
point $-1 -59.650257881405075 28.419205476186129 3.3545479506961637 #
point $-1 -40.428264016548475 20.848978022974514 10.413899413224119 #
vertex $-1 $198 $266 #
straight-curve $-1 0 28.419205476186129 10.413899413224113 -1 0 0 I I #
vertex $-1 $201 $267 #
point $-1 -48.539260948976775 23.256774326095012 5.4072316060731165 #
straight-curve $-1 -59.650257881405075 28.419205476186129 0 0 0 -1 I I #
point $-1 -59.650257881405075 -28.419205476186129 -10.413899413224113 #
straight-curve $-1 -59.650257881405075 0 -10.413899413224113 0 1 0 I I #
point $-1 -59.650257881405075 28.419205476186129 -10.413899413224113 #
coedge $-1 $227 $223 $232 $259 forward $164 $-1 #
vertex $-1 $224 $268 #
straight-curve $-1 -59.650257881405075 0 10.413899413224113 0 -1 0 I I #
point $-1 -59.650257881405075 -20.171690803532272 10.413899413224113 #
straight-curve $-1 59.650257881405075 0 10.413899413224113 0 1 0 I I #
edge $-1 $255 -59.650257881405075 $236 59.650257881405075 $232 $269 forward 7 unknown #
straight-curve $-1 -59.650257881405075 -28.419205476186129 0 0 0 -1 I I #
point $-1 59.650257881405075 -28.419205476186129 10.413899413224113 #
straight-curve $-1 -59.650257881405075 0 10.413899413224113 0 -1 0 I I #
straight-curve $-1 -59.650257881405075 28.419205476186129 0 0 0 -1 I I #
point $-1 -59.650257881405075 20.848978022974514 10.413899413224119 #
straight-curve $-1 -25.019630474488388 20.848978022974521 10.413899413224115 1 0 0 I I #
point $-1 -59.650257881405075 28.419205476186129 10.413899413224113 #
point $-1 -50.039260948976775 22.233776773838613 4.3102010649862148 #
point $-1 -59.650257881405075 -28.419205476186129 10.413899413224113 #
straight-curve $-1 0 -28.419205476186129 10.413899413224113 1 0 0 I I #
End-of-ACIS-data 