500 0 4 0           
7 Unknown 11 ACIS 5.0 NT 24 Thu Mar 25 16:08:00 1999 
-1 9.9999999999999995e-007 1e-010 
body $-1 $4 $-1 $5 #
body $-1 $6 $-1 $7 #
body $-1 $8 $-1 $9 #
body $-1 $10 $-1 $11 #
lump $-1 $-1 $12 $0 #
transform $-1 1 0 0 0 1 0 0 0 1 77.062898648030028 45.013133600084551 15.202149734751906 1 rotate no_reflect no_shear #
lump $-1 $-1 $13 $1 #
transform $-1 1 0 0 0 1 0 0 0 1 77.062898648030028 45.013133600084551 15.202149734751906 1 rotate no_reflect no_shear #
lump $-1 $-1 $14 $2 #
transform $-1 1 0 0 0 1 0 0 0 1 77.062898648030028 45.013133600084551 15.202149734751906 1 rotate no_reflect no_shear #
lump $-1 $-1 $15 $3 #
transform $-1 1 0 0 0 1 0 0 0 1 77.062898648030028 45.013133600084551 15.202149734751906 1 rotate no_reflect no_shear #
shell $-1 $-1 $-1 $16 $-1 $4 #
shell $-1 $-1 $-1 $17 $-1 $6 #
shell $-1 $-1 $-1 $18 $-1 $8 #
shell $-1 $-1 $-1 $19 $-1 $10 #
face $-1 $20 $21 $12 $-1 $22 forward single #
face $-1 $23 $24 $13 $-1 $25 forward single #
face $-1 $26 $27 $14 $-1 $28 forward single #
face $-1 $29 $30 $15 $-1 $31 reversed single #
face $-1 $32 $33 $12 $-1 $34 reversed single #
loop $-1 $-1 $35 $16 #
plane-surface $-1 0 0 15.202149734751906 0 0 1 1 0 0 forward_v I I I I #
face $-1 $36 $37 $13 $-1 $38 forward single #
loop $-1 $-1 $39 $17 #
plane-surface $-1 -69.666210970331122 -43.046120273448395 0 0 1 0 0 0 1 forward_v I I I I #
face $-1 $40 $41 $14 $-1 $42 forward single #
loop $-1 $-1 $43 $18 #
plane-surface $-1 58.534497245913741 -45.013133600084529 10.97400282398155 0 -0.51503808176128008 0.85716729658548041 1 0 0 forward_v I I I I #
face $-1 $44 $45 $15 $-1 $46 reversed single #
loop $-1 $47 $48 $19 #
cone-surface $-1 58.534497245913741 -41.161357398985523 12.533260116969156 0 0.51503808176128008 -0.85716729658548041 1 0 0 1 I I 0 1 1 forward I I I I #
face $-1 $49 $50 $12 $-1 $51 reversed single #
loop $-1 $-1 $52 $20 #
plane-surface $-1 0 0 -15.202149734751906 0 0 1 1 0 0 forward_v I I I I #
coedge $-1 $53 $54 $55 $56 forward $21 $-1 #
face $-1 $57 $58 $13 $-1 $59 forward single #
loop $-1 $-1 $60 $23 #
plane-surface $-1 -69.666210970331122 -37.20474979551733 0 0 -1 0 0 0 -1 forward_v I I I I #
coedge $-1 $61 $62 $63 $64 reversed $24 $-1 #
face $-1 $65 $66 $14 $-1 $67 forward single #
loop $-1 $-1 $68 $26 #
plane-surface $-1 40.006095843797453 -124.39378858937519 143.08559582632711 1 0 0 0 0.51503808176128008 -0.85716729658548041 forward_v I I I I #
coedge $-1 $69 $70 $71 $72 reversed $27 $-1 #
face $-1 $73 $74 $15 $-1 $75 forward single #
loop $-1 $76 $77 $29 #
cone-surface $-1 58.534497245913741 -40.570471169284573 11.549860306278838 0 0.51503808176128008 -0.85716729658548041 0.5 0 0 1 I I -0.70710678118654746 0.70710678118654746 0.5 forward I I I I #
loop $-1 $-1 $78 $19 #
coedge $-1 $48 $48 $79 $80 reversed $30 $-1 #
face $-1 $81 $82 $12 $-1 $83 reversed single #
loop $-1 $-1 $84 $32 #
plane-surface $-1 0 -45.013133600084551 0 0 1 0 0 0 1 forward_v I I I I #
coedge $-1 $85 $86 $87 $88 forward $33 $-1 #
coedge $-1 $89 $35 $90 $91 forward $21 $-1 #
coedge $-1 $35 $89 $92 $93 forward $21 $-1 #
coedge $-1 $94 $95 $35 $56 reversed $96 $-1 #
edge $-1 $97 -45.013133600084551 $98 45.013133600084551 $55 $99 forward 7 unknown #
face $-1 $100 $101 $13 $-1 $102 forward single #
loop $-1 $-1 $103 $36 #
plane-surface $-1 -62.269523292632208 -40.125435034482862 0 -1 0 0 0 0 1 forward_v I I I I #
coedge $-1 $104 $105 $106 $107 reversed $37 $-1 #
coedge $-1 $108 $39 $109 $110 reversed $24 $-1 #
coedge $-1 $39 $108 $111 $112 reversed $24 $-1 #
coedge $-1 $113 $114 $39 $64 forward $115 $-1 #
edge $-1 $116 -15.202149734751906 $117 15.202149734751906 $63 $118 forward 7 unknown #
face $-1 $119 $120 $14 $-1 $121 reversed single #
loop $-1 $-1 $122 $40 #
plane-surface $-1 0 0 15.202149734751906 0 0 1 1 0 0 forward_v I I I I #
coedge $-1 $123 $124 $122 $125 reversed $41 $-1 #
coedge $-1 $126 $43 $124 $127 reversed $27 $-1 #
coedge $-1 $43 $126 $128 $129 reversed $27 $-1 #
coedge $-1 $130 $122 $43 $72 forward $66 $-1 #
edge $-1 $131 10.738847220840583 $132 47.795650025073158 $71 $133 forward 7 unknown #
face $-1 $134 $135 $15 $-1 $136 forward single #
loop $-1 $137 $79 $44 #
plane-surface $-1 58.534497245913741 -45.013133600084529 10.97400282398155 0 -0.51503808176128008 0.85716729658548041 1 0 0 forward_v I I I I #
loop $-1 $-1 $138 $29 #
coedge $-1 $77 $77 $78 $139 forward $45 $-1 #
coedge $-1 $78 $78 $77 $139 reversed $47 $-1 #
coedge $-1 $79 $79 $48 $80 forward $74 $-1 #
edge $-1 $140 -3.0583742316829887e-015 $140 6.2831853071795978 $79 $141 forward 7 unknown #
face $-1 $142 $143 $12 $-1 $144 reversed single #
loop $-1 $-1 $145 $49 #
plane-surface $-1 -77.062898648030028 0 0 1 0 0 0 0 -1 forward_v I I I I #
coedge $-1 $146 $92 $147 $148 forward $50 $-1 #
coedge $-1 $149 $52 $146 $150 forward $33 $-1 #
coedge $-1 $52 $149 $151 $152 forward $33 $-1 #
coedge $-1 $95 $94 $52 $88 reversed $96 $-1 #
edge $-1 $153 -45.013133600084551 $154 45.013133600084551 $87 $155 forward 7 unknown #
coedge $-1 $54 $53 $156 $157 forward $21 $-1 #
coedge $-1 $158 $159 $53 $91 reversed $143 $-1 #
edge $-1 $98 -77.062898648030028 $160 77.062898648030028 $90 $161 forward 7 unknown #
coedge $-1 $84 $162 $54 $93 reversed $50 $-1 #
edge $-1 $163 -77.062898648030028 $97 77.062898648030028 $92 $164 forward 7 unknown #
coedge $-1 $87 $55 $162 $165 forward $96 $-1 #
coedge $-1 $55 $87 $158 $166 reversed $96 $-1 #
loop $-1 $-1 $94 $142 #
vertex $-1 $56 $167 #
vertex $-1 $56 $168 #
straight-curve $-1 77.062898648030028 0 15.202149734751906 0 1 0 I I #
face $-1 $169 $115 $13 $-1 $170 reversed single #
loop $-1 $-1 $171 $57 #
plane-surface $-1 0 0 15.202149734751906 0 0 1 1 0 0 forward_v I I I I #
coedge $-1 $172 $173 $108 $174 reversed $58 $-1 #
coedge $-1 $175 $60 $171 $176 reversed $37 $-1 #
coedge $-1 $60 $175 $177 $178 reversed $37 $-1 #
coedge $-1 $173 $172 $60 $107 forward $58 $-1 #
edge $-1 $179 -15.202149734751906 $180 15.202149734751906 $106 $181 forward 7 unknown #
coedge $-1 $62 $61 $103 $174 forward $24 $-1 #
coedge $-1 $182 $183 $61 $110 forward $101 $-1 #
edge $-1 $184 27.436417807466647 $116 42.229793162864468 $109 $185 forward 7 unknown #
coedge $-1 $186 $187 $62 $112 forward $188 $-1 #
edge $-1 $117 -42.229793162864468 $189 -27.436417807466647 $111 $190 forward 7 unknown #
coedge $-1 $191 $63 $187 $192 reversed $115 $-1 #
coedge $-1 $63 $191 $182 $193 reversed $115 $-1 #
loop $-1 $-1 $63 $100 #
vertex $-1 $193 $194 #
vertex $-1 $64 $195 #
straight-curve $-1 -77.062898648030028 -43.046120273448395 0 0 0 -1 I I #
face $-1 $196 $197 $14 $-1 $198 forward single #
loop $-1 $-1 $128 $65 #
plane-surface $-1 77.062898648030028 0 0 -1 0 0 0 0 1 forward_v I I I I #
coedge $-1 $71 $199 $68 $125 forward $66 $-1 #
coedge $-1 $124 $68 $200 $201 reversed $41 $-1 #
coedge $-1 $68 $123 $69 $127 forward $41 $-1 #
edge $-1 $202 17.183760694603045 $131 24.220578719160528 $122 $203 forward 7 unknown #
coedge $-1 $70 $69 $204 $205 reversed $27 $-1 #
edge $-1 $206 -2.4675859811215743e-014 $131 8.2093869570019464 $124 $207 forward 7 unknown #
coedge $-1 $208 $209 $70 $129 forward $120 $-1 #
edge $-1 $132 8.2564913805576428 $210 16.465878337559616 $128 $211 forward 7 unknown #
coedge $-1 $212 $71 $209 $213 forward $66 $-1 #
vertex $-1 $72 $214 #
vertex $-1 $213 $215 #
straight-curve $-1 29.26724862295687 -37.976315575527067 15.202149734751906 1 0 0 I I #
face $-1 $216 $217 $15 $-1 $218 forward single #
loop $-1 $-1 $219 $73 #
plane-surface $-1 40.006095843797453 -124.39378858937519 143.08559582632711 1 0 0 0 0.51503808176128008 -0.85716729658548041 forward_v I I I I #
loop $-1 $-1 $220 $44 #
coedge $-1 $138 $138 $-1 $221 forward $76 $-1 #
edge $-1 $222 0 $222 6.2831853071796004 $77 $223 forward 7 unknown #
vertex $-1 $80 $224 #
ellipse-curve $-1 58.534497245913741 -41.49472458780582 13.088076279366716 0 0.51503808176128008 -0.85716729658548041 1 0 0 1 I I #
face $-1 $-1 $96 $12 $-1 $225 reversed single #
loop $-1 $-1 $158 $81 #
plane-surface $-1 0 45.013133600084551 0 0 -1 0 0 0 -1 forward_v I I I I #
coedge $-1 $226 $156 $159 $227 forward $82 $-1 #
coedge $-1 $162 $84 $85 $150 reversed $50 $-1 #
coedge $-1 $156 $226 $84 $148 reversed $82 $-1 #
edge $-1 $163 -15.202149734751906 $228 15.202149734751906 $147 $229 forward 7 unknown #
coedge $-1 $86 $85 $226 $230 forward $33 $-1 #
edge $-1 $154 -77.062898648030028 $228 77.062898648030028 $146 $231 forward 7 unknown #
coedge $-1 $159 $158 $86 $152 reversed $143 $-1 #
edge $-1 $232 -77.062898648030028 $153 77.062898648030028 $151 $233 forward 7 unknown #
vertex $-1 $88 $234 #
vertex $-1 $165 $235 #
straight-curve $-1 77.062898648030028 0 -15.202149734751906 0 -1 0 I I #
coedge $-1 $145 $147 $89 $157 reversed $82 $-1 #
edge $-1 $160 -45.013133600084551 $163 45.013133600084551 $156 $236 forward 7 unknown #
coedge $-1 $151 $90 $95 $166 forward $143 $-1 #
coedge $-1 $90 $151 $145 $227 reversed $143 $-1 #
vertex $-1 $91 $237 #
straight-curve $-1 0 45.013133600084551 15.202149734751906 -1 0 0 I I #
coedge $-1 $92 $146 $94 $165 reversed $50 $-1 #
vertex $-1 $157 $238 #
straight-curve $-1 0 -45.013133600084551 15.202149734751906 1 0 0 I I #
edge $-1 $97 -15.202149734751906 $154 15.202149734751906 $94 $239 forward 7 unknown #
edge $-1 $98 -15.202149734751906 $153 15.202149734751906 $95 $240 forward 7 unknown #
point $-1 77.062898648030028 -45.013133600084551 15.202149734751906 #
point $-1 77.062898648030028 45.013133600084551 15.202149734751906 #
face $-1 $241 $188 $13 $-1 $242 reversed single #
plane-surface $-1 -77.062898648030028 0 0 1 0 0 0 0 -1 forward_v I I I I #
coedge $-1 $183 $243 $104 $176 forward $101 $-1 #
coedge $-1 $106 $103 $183 $244 reversed $58 $-1 #
coedge $-1 $103 $106 $186 $245 reversed $58 $-1 #
edge $-1 $184 -15.202149734751906 $189 15.202149734751906 $103 $246 forward 7 unknown #
coedge $-1 $105 $104 $247 $248 reversed $37 $-1 #
edge $-1 $249 -42.229793162864468 $179 -27.436417807466647 $171 $250 forward 7 unknown #
coedge $-1 $251 $186 $105 $178 forward $188 $-1 #
edge $-1 $180 27.436417807466647 $252 42.229793162864468 $177 $253 forward 7 unknown #
vertex $-1 $176 $254 #
vertex $-1 $178 $255 #
straight-curve $-1 -62.269523292632208 -37.20474979551733 0 0 0 -1 I I #
coedge $-1 $256 $109 $114 $193 forward $101 $-1 #
coedge $-1 $109 $171 $172 $244 forward $101 $-1 #
vertex $-1 $110 $257 #
straight-curve $-1 -34.833105485165561 -43.046120273448395 15.202149734751906 -1 0 0 I I #
coedge $-1 $177 $111 $173 $245 forward $188 $-1 #
coedge $-1 $111 $258 $113 $192 forward $188 $-1 #
loop $-1 $-1 $177 $169 #
vertex $-1 $112 $259 #
straight-curve $-1 -34.833105485165561 -43.046120273448395 -15.202149734751906 1 0 0 I I #
coedge $-1 $114 $113 $260 $261 reversed $115 $-1 #
edge $-1 $262 -45.013133600084551 $117 -43.046120273448395 $113 $263 forward 7 unknown #
edge $-1 $116 43.046120273448395 $264 45.013133600084551 $114 $265 forward 7 unknown #
point $-1 -77.062898648030028 -43.046120273448395 15.202149734751906 #
point $-1 -77.062898648030028 -43.046120273448395 -15.202149734751906 #
face $-1 $266 $267 $14 $-1 $268 forward single #
loop $-1 $-1 $269 $119 #
plane-surface $-1 -69.666210970331122 -43.046120273448395 0 0 1 0 0 0 1 forward_v I I I I #
coedge $-1 $122 $270 $271 $272 forward $66 $-1 #
coedge $-1 $271 $204 $123 $201 forward $273 $-1 #
edge $-1 $206 -60.568795089182018 $202 -56.340648178411648 $200 $274 forward 7 unknown #
vertex $-1 $201 $275 #
straight-curve $-1 40.006095843797453 -62.196894294687596 15.202149734751906 0 1 0 I I #
coedge $-1 $200 $276 $126 $205 forward $273 $-1 #
edge $-1 $210 -47.795650025073158 $206 -10.738847220840583 $204 $277 forward 7 unknown #
vertex $-1 $205 $278 #
straight-curve $-1 40.006095843797453 -45.013133600084529 10.97400282398155 0 0.85716729658548041 0.51503808176128008 I I #
coedge $-1 $279 $128 $276 $280 forward $120 $-1 #
coedge $-1 $128 $281 $130 $213 reversed $120 $-1 #
vertex $-1 $280 $282 #
straight-curve $-1 77.062898648030028 -30.89912117957315 19.454557217472857 0 -0.85716729658548041 -0.51503808176128008 I I #
coedge $-1 $283 $130 $284 $285 forward $66 $-1 #
edge $-1 $132 -37.976315575527067 $286 45.013133600084551 $209 $287 forward 7 unknown #
point $-1 40.006095843797453 -37.976315575527067 15.202149734751906 #
point $-1 77.062898648030028 -37.976315575527067 15.202149734751906 #
face $-1 $288 $289 $15 $-1 $290 reversed single #
loop $-1 $-1 $291 $134 #
plane-surface $-1 0 0 15.202149734751906 0 0 1 1 0 0 forward_v I I I I #
coedge $-1 $292 $293 $291 $294 reversed $135 $-1 #
coedge $-1 $295 $296 $297 $298 reversed $137 $-1 #
edge $-1 $299 1 $299 0 $138 $-1 forward 7 unknown #
vertex $-1 $139 $300 #
ellipse-curve $-1 58.534497245913741 -40.827990210165211 11.978443954571578 0 -0.51503808176128008 0.85716729658548041 1 0 0 1 I I #
point $-1 59.534497245913741 -41.494724587805827 13.088076279366733 #
plane-surface $-1 77.062898648030028 0 0 -1 0 0 0 0 1 forward_v I I I I #
coedge $-1 $147 $145 $149 $230 reversed $82 $-1 #
edge $-1 $160 -15.202149734751906 $232 15.202149734751906 $159 $301 forward 7 unknown #
vertex $-1 $230 $302 #
straight-curve $-1 -77.062898648030028 -45.013133600084551 0 0 0 -1 I I #
edge $-1 $228 -45.013133600084551 $232 45.013133600084551 $226 $303 forward 7 unknown #
straight-curve $-1 0 -45.013133600084551 -15.202149734751906 -1 0 0 I I #
vertex $-1 $152 $304 #
straight-curve $-1 0 45.013133600084551 -15.202149734751906 1 0 0 I I #
point $-1 77.062898648030028 45.013133600084551 -15.202149734751906 #
point $-1 77.062898648030028 -45.013133600084551 -15.202149734751906 #
straight-curve $-1 -77.062898648030028 0 15.202149734751906 0 -1 0 I I #
point $-1 -77.062898648030028 45.013133600084551 15.202149734751906 #
point $-1 -77.062898648030028 -45.013133600084551 15.202149734751906 #
straight-curve $-1 77.062898648030028 -45.013133600084551 0 0 0 -1 I I #
straight-curve $-1 77.062898648030028 45.013133600084551 0 0 0 -1 I I #
face $-1 $305 $306 $13 $-1 $307 reversed single #
plane-surface $-1 0 0 -15.202149734751906 0 0 1 1 0 0 forward_v I I I I #
coedge $-1 $171 $308 $309 $310 forward $101 $-1 #
edge $-1 $179 17.142032278275899 $184 22.983402756206964 $183 $311 forward 7 unknown #
edge $-1 $189 -22.983402756206964 $180 -17.142032278275899 $186 $312 forward 7 unknown #
straight-curve $-1 -62.269523292632208 -43.046120273448395 0 0 0 -1 I I #
coedge $-1 $309 $313 $175 $248 forward $314 $-1 #
edge $-1 $252 -15.202149734751906 $249 15.202149734751906 $247 $315 forward 7 unknown #
vertex $-1 $248 $316 #
straight-curve $-1 -34.833105485165561 -37.20474979551733 15.202149734751906 1 0 0 I I #
coedge $-1 $317 $177 $313 $318 forward $188 $-1 #
vertex $-1 $318 $319 #
straight-curve $-1 -34.833105485165561 -37.20474979551733 -15.202149734751906 -1 0 0 I I #
point $-1 -62.269523292632208 -37.20474979551733 15.202149734751906 #
point $-1 -62.269523292632208 -37.20474979551733 -15.202149734751906 #
coedge $-1 $320 $182 $321 $322 forward $101 $-1 #
point $-1 -62.269523292632208 -43.046120273448395 15.202149734751906 #
coedge $-1 $187 $323 $324 $325 forward $188 $-1 #
point $-1 -62.269523292632208 -43.046120273448395 -15.202149734751906 #
coedge $-1 $324 $321 $191 $261 forward $306 $-1 #
edge $-1 $264 -15.202149734751906 $262 15.202149734751906 $191 $326 forward 7 unknown #
vertex $-1 $192 $327 #
straight-curve $-1 -77.062898648030028 0 -15.202149734751906 0 1 0 I I #
vertex $-1 $193 $328 #
straight-curve $-1 -77.062898648030028 0 15.202149734751906 0 -1 0 I I #
face $-1 $329 $330 $14 $-1 $331 forward single #
loop $-1 $-1 $332 $196 #
plane-surface $-1 -69.666210970331122 -37.20474979551733 0 0 -1 0 0 0 -1 forward_v I I I I #
coedge $-1 $333 $334 $335 $336 reversed $197 $-1 #
coedge $-1 $199 $337 $338 $339 forward $66 $-1 #
coedge $-1 $340 $200 $199 $272 reversed $273 $-1 #
edge $-1 $341 -77.062898648030028 $202 40.006095843797453 $271 $342 forward 7 unknown #
loop $-1 $-1 $200 $343 #
straight-curve $-1 40.006095843797453 -45.013133600084551 71.542797913163554 0 0 1 I I #
point $-1 40.006095843797453 -45.013133600084551 15.202149734751906 #
coedge $-1 $204 $344 $208 $280 reversed $273 $-1 #
straight-curve $-1 29.26724862295687 -45.013133600084551 10.974002823981539 -1 0 0 I I #
point $-1 40.006095843797453 -45.013133600084551 10.974002823981538 #
coedge $-1 $281 $208 $345 $346 reversed $120 $-1 #
edge $-1 $210 -10.974002823981538 $347 15.202149734751906 $208 $348 forward 7 unknown #
coedge $-1 $209 $279 $349 $350 reversed $120 $-1 #
point $-1 77.062898648030028 -45.013133600084551 10.974002823981538 #
coedge $-1 $351 $212 $352 $353 forward $66 $-1 #
coedge $-1 $349 $354 $212 $285 reversed $355 $-1 #
edge $-1 $286 -77.062898648030028 $356 77.062898648030028 $284 $357 forward 7 unknown #
vertex $-1 $213 $358 #
straight-curve $-1 77.062898648030028 0 15.202149734751906 0 1 0 I I #
face $-1 $359 $360 $15 $-1 $361 forward single #
loop $-1 $-1 $362 $216 #
plane-surface $-1 77.062898648030028 0 0 -1 0 0 0 0 1 forward_v I I I I #
coedge $-1 $297 $363 $219 $294 forward $217 $-1 #
coedge $-1 $293 $219 $364 $365 reversed $135 $-1 #
coedge $-1 $219 $292 $295 $366 forward $135 $-1 #
edge $-1 $367 17.183760694603045 $368 24.220578719160528 $291 $369 forward 7 unknown #
coedge $-1 $370 $220 $293 $366 reversed $137 $-1 #
coedge $-1 $220 $370 $362 $371 reversed $137 $-1 #
coedge $-1 $372 $291 $220 $298 forward $217 $-1 #
edge $-1 $368 10.738847220840583 $373 47.795650025073158 $297 $374 forward 7 unknown #
vertex $-1 $221 $375 #
point $-1 59.534497245913741 -40.827990210165211 11.978443954571578 #
straight-curve $-1 -77.062898648030028 45.013133600084551 0 0 0 -1 I I #
point $-1 -77.062898648030028 -45.013133600084551 -15.202149734751906 #
straight-curve $-1 -77.062898648030028 0 -15.202149734751906 0 1 0 I I #
point $-1 -77.062898648030028 45.013133600084551 -15.202149734751906 #
face $-1 $376 $314 $13 $-1 $170 reversed single #
loop $-1 $-1 $260 $241 #
plane-surface $-1 0 -45.013133600084551 0 0 1 0 0 0 1 forward_v I I I I #
coedge $-1 $243 $320 $377 $378 forward $101 $-1 #
coedge $-1 $379 $247 $243 $310 reversed $314 $-1 #
edge $-1 $380 -45.013133600084551 $249 37.20474979551733 $309 $265 forward 7 unknown #
straight-curve $-1 -62.269523292632208 -20.062717517241431 15.202149734751906 0 -1 0 I I #
straight-curve $-1 -62.269523292632208 -20.062717517241431 -15.202149734751906 0 1 0 I I #
coedge $-1 $247 $379 $251 $318 reversed $314 $-1 #
loop $-1 $-1 $247 $305 #
straight-curve $-1 -77.062898648030028 -37.20474979551733 0 0 0 1 I I #
point $-1 -77.062898648030028 -37.20474979551733 15.202149734751906 #
coedge $-1 $323 $251 $381 $382 forward $188 $-1 #
edge $-1 $252 -37.20474979551733 $383 45.013133600084551 $313 $263 forward 7 unknown #
point $-1 -77.062898648030028 -37.20474979551733 -15.202149734751906 #
coedge $-1 $308 $256 $384 $385 forward $101 $-1 #
coedge $-1 $260 $386 $256 $322 reversed $306 $-1 #
edge $-1 $264 -77.062898648030028 $387 77.062898648030028 $321 $388 forward 7 unknown #
coedge $-1 $258 $317 $389 $390 forward $188 $-1 #
coedge $-1 $386 $260 $258 $325 reversed $306 $-1 #
edge $-1 $391 -77.062898648030028 $262 77.062898648030028 $324 $392 forward 7 unknown #
straight-curve $-1 -77.062898648030028 -45.013133600084551 0 0 0 -1 I I #
point $-1 -77.062898648030028 -45.013133600084551 -15.202149734751906 #
point $-1 -77.062898648030028 -45.013133600084551 15.202149734751906 #
face $-1 $393 $394 $14 $-1 $395 reversed single #
loop $-1 $-1 $396 $266 #
plane-surface $-1 -62.269523292632208 -40.125435034482862 0 -1 0 0 0 0 1 forward_v I I I I #
coedge $-1 $397 $398 $399 $400 reversed $267 $-1 #
coedge $-1 $401 $269 $337 $402 reversed $197 $-1 #
coedge $-1 $269 $401 $403 $404 reversed $197 $-1 #
coedge $-1 $405 $338 $269 $336 forward $394 $-1 #
edge $-1 $406 -15.202149734751906 $407 15.202149734751906 $335 $408 forward 7 unknown #
coedge $-1 $270 $409 $333 $402 forward $66 $-1 #
coedge $-1 $335 $410 $270 $339 reversed $394 $-1 #
edge $-1 $406 43.046120273448395 $341 45.013133600084551 $338 $411 forward 7 unknown #
coedge $-1 $344 $271 $410 $412 forward $273 $-1 #
vertex $-1 $339 $413 #
straight-curve $-1 0 -45.013133600084551 15.202149734751906 1 0 0 I I #
face $-1 $414 $273 $14 $-1 $415 reversed single #
coedge $-1 $276 $340 $416 $417 reversed $273 $-1 #
coedge $-1 $416 $418 $279 $346 forward $419 $-1 #
edge $-1 $420 -45.013133600084551 $347 45.013133600084551 $279 $421 forward 7 unknown #
vertex $-1 $280 $422 #
straight-curve $-1 77.062898648030028 -45.013133600084551 0 0 0 -1 I I #
coedge $-1 $423 $284 $281 $350 forward $355 $-1 #
edge $-1 $286 -15.202149734751906 $420 15.202149734751906 $281 $424 forward 7 unknown #
coedge $-1 $409 $283 $397 $425 forward $66 $-1 #
coedge $-1 $426 $427 $283 $353 reversed $428 $-1 #
edge $-1 $356 -45.013133600084551 $429 37.20474979551733 $352 $411 forward 7 unknown #
coedge $-1 $284 $423 $426 $430 reversed $355 $-1 #
loop $-1 $-1 $349 $431 #
vertex $-1 $285 $432 #
straight-curve $-1 0 45.013133600084551 15.202149734751906 -1 0 0 I I #
point $-1 77.062898648030028 45.013133600084551 15.202149734751906 #
face $-1 $433 $434 $15 $-1 $435 forward single #
loop $-1 $-1 $436 $288 #
plane-surface $-1 -69.666210970331122 -43.046120273448395 0 0 1 0 0 0 1 forward_v I I I I #
coedge $-1 $437 $438 $296 $371 forward $289 $-1 #
coedge $-1 $291 $439 $440 $441 forward $217 $-1 #
coedge $-1 $440 $442 $292 $365 forward $443 $-1 #
edge $-1 $444 -60.568795089182018 $367 -56.340648178411648 $364 $445 forward 7 unknown #
edge $-1 $444 -2.4675859811215743e-014 $368 8.2093869570019464 $293 $446 forward 7 unknown #
vertex $-1 $365 $447 #
vertex $-1 $298 $448 #
straight-curve $-1 40.006095843797453 -62.196894294687596 15.202149734751906 0 1 0 I I #
coedge $-1 $296 $295 $442 $449 reversed $137 $-1 #
edge $-1 $373 8.2564913805576428 $450 16.465878337559616 $362 $451 forward 7 unknown #
coedge $-1 $452 $297 $438 $453 forward $217 $-1 #
vertex $-1 $453 $454 #
straight-curve $-1 29.26724862295687 -37.976315575527067 15.202149734751906 1 0 0 I I #
point $-1 58.534497245913741 -40.312952128403936 11.121276657986098 #
face $-1 $455 $456 $13 $-1 $457 reversed single #
coedge $-1 $458 $459 $308 $378 reversed $456 $-1 #
edge $-1 $460 -77.062898648030028 $380 77.062898648030028 $377 $461 forward 7 unknown #
coedge $-1 $313 $309 $459 $462 forward $314 $-1 #
vertex $-1 $378 $463 #
coedge $-1 $459 $458 $317 $382 reversed $456 $-1 #
edge $-1 $383 -77.062898648030028 $464 77.062898648030028 $381 $465 forward 7 unknown #
vertex $-1 $382 $466 #
coedge $-1 $467 $468 $320 $385 reversed $469 $-1 #
edge $-1 $387 -45.013133600084551 $460 45.013133600084551 $384 $470 forward 7 unknown #
coedge $-1 $321 $324 $467 $471 reversed $306 $-1 #
vertex $-1 $385 $472 #
straight-curve $-1 0 -45.013133600084551 15.202149734751906 1 0 0 I I #
coedge $-1 $468 $467 $323 $390 reversed $469 $-1 #
edge $-1 $464 -45.013133600084551 $391 45.013133600084551 $389 $473 forward 7 unknown #
vertex $-1 $471 $474 #
straight-curve $-1 0 -45.013133600084551 -15.202149734751906 -1 0 0 I I #
face $-1 $343 $419 $14 $-1 $475 reversed single #
loop $-1 $-1 $335 $329 #
plane-surface $-1 -77.062898648030028 0 0 1 0 0 0 0 -1 forward_v I I I I #
coedge $-1 $476 $477 $401 $478 reversed $330 $-1 #
coedge $-1 $479 $332 $351 $425 reversed $267 $-1 #
coedge $-1 $332 $479 $480 $481 reversed $267 $-1 #
coedge $-1 $477 $476 $332 $400 forward $330 $-1 #
edge $-1 $482 -15.202149734751906 $483 15.202149734751906 $399 $484 forward 7 unknown #
coedge $-1 $334 $333 $396 $478 forward $197 $-1 #
edge $-1 $485 27.436417807466647 $406 42.229793162864468 $337 $486 forward 7 unknown #
coedge $-1 $487 $488 $334 $404 forward $419 $-1 #
edge $-1 $407 -42.229793162864468 $489 -27.436417807466647 $403 $490 forward 7 unknown #
coedge $-1 $410 $335 $488 $491 reversed $394 $-1 #
vertex $-1 $339 $492 #
vertex $-1 $336 $493 #
straight-curve $-1 -77.062898648030028 -43.046120273448395 0 0 0 -1 I I #
coedge $-1 $337 $351 $476 $494 forward $66 $-1 #
coedge $-1 $338 $405 $340 $412 reversed $394 $-1 #
straight-curve $-1 -77.062898648030028 0 15.202149734751906 0 -1 0 I I #
edge $-1 $341 -15.202149734751906 $495 15.202149734751906 $410 $496 forward 7 unknown #
point $-1 -77.062898648030028 -45.013133600084551 15.202149734751906 #
face $-1 $431 $428 $14 $-1 $395 reversed single #
plane-surface $-1 0 -45.013133600084551 0 0 1 0 0 0 1 forward_v I I I I #
coedge $-1 $488 $345 $344 $417 forward $419 $-1 #
edge $-1 $347 -77.062898648030028 $495 77.062898648030028 $344 $497 forward 7 unknown #
coedge $-1 $345 $498 $423 $499 forward $419 $-1 #
loop $-1 $-1 $480 $393 #
vertex $-1 $346 $500 #
straight-curve $-1 77.062898648030028 0 -15.202149734751906 0 -1 0 I I #
point $-1 77.062898648030028 -45.013133600084551 -15.202149734751906 #
coedge $-1 $354 $349 $418 $499 reversed $355 $-1 #
straight-curve $-1 77.062898648030028 45.013133600084551 0 0 0 -1 I I #
edge $-1 $429 -42.229793162864468 $482 -27.436417807466647 $351 $501 forward 7 unknown #
coedge $-1 $502 $352 $354 $430 forward $428 $-1 #
coedge $-1 $352 $502 $479 $503 forward $428 $-1 #
loop $-1 $-1 $427 $414 #
vertex $-1 $503 $504 #
edge $-1 $356 -15.202149734751906 $505 15.202149734751906 $354 $506 forward 7 unknown #
face $-1 $-1 $355 $14 $-1 $507 reversed single #
point $-1 -77.062898648030028 45.013133600084551 15.202149734751906 #
face $-1 $508 $509 $15 $-1 $510 forward single #
loop $-1 $-1 $511 $359 #
plane-surface $-1 -69.666210970331122 -37.20474979551733 0 0 -1 0 0 0 -1 forward_v I I I I #
coedge $-1 $512 $513 $514 $515 reversed $360 $-1 #
coedge $-1 $516 $362 $517 $518 forward $289 $-1 #
coedge $-1 $362 $519 $372 $453 reversed $289 $-1 #
coedge $-1 $363 $520 $521 $522 forward $217 $-1 #
coedge $-1 $523 $364 $363 $441 reversed $443 $-1 #
edge $-1 $524 -77.062898648030028 $367 40.006095843797453 $440 $525 forward 7 unknown #
coedge $-1 $364 $517 $370 $449 forward $443 $-1 #
loop $-1 $-1 $364 $526 #
vertex $-1 $449 $527 #
straight-curve $-1 40.006095843797453 -45.013133600084551 71.542797913163554 0 0 1 I I #
straight-curve $-1 40.006095843797453 -45.013133600084529 10.97400282398155 0 0.85716729658548041 0.51503808176128008 I I #
point $-1 40.006095843797453 -45.013133600084551 15.202149734751906 #
point $-1 40.006095843797453 -37.976315575527067 15.202149734751906 #
edge $-1 $450 -47.795650025073158 $444 -10.738847220840583 $442 $528 forward 7 unknown #
vertex $-1 $518 $529 #
straight-curve $-1 77.062898648030028 -30.89912117957315 19.454557217472857 0 -0.85716729658548041 -0.51503808176128008 I I #
coedge $-1 $530 $372 $531 $532 forward $217 $-1 #
edge $-1 $373 -37.976315575527067 $533 45.013133600084551 $438 $534 forward 7 unknown #
point $-1 77.062898648030028 -37.976315575527067 15.202149734751906 #
face $-1 $-1 $469 $13 $-1 $535 reversed single #
loop $-1 $-1 $458 $376 #
plane-surface $-1 0 45.013133600084551 0 0 -1 0 0 0 -1 forward_v I I I I #
coedge $-1 $381 $377 $468 $536 forward $456 $-1 #
coedge $-1 $377 $381 $379 $462 reversed $456 $-1 #
vertex $-1 $385 $537 #
straight-curve $-1 0 45.013133600084551 15.202149734751906 -1 0 0 I I #
edge $-1 $380 -15.202149734751906 $383 15.202149734751906 $459 $538 forward 7 unknown #
point $-1 -77.062898648030028 45.013133600084551 15.202149734751906 #
vertex $-1 $390 $539 #
straight-curve $-1 0 45.013133600084551 -15.202149734751906 1 0 0 I I #
point $-1 -77.062898648030028 45.013133600084551 -15.202149734751906 #
coedge $-1 $389 $384 $386 $471 forward $469 $-1 #
coedge $-1 $384 $389 $458 $536 reversed $469 $-1 #
loop $-1 $-1 $467 $455 #
straight-curve $-1 77.062898648030028 0 15.202149734751906 0 1 0 I I #
edge $-1 $387 -15.202149734751906 $391 15.202149734751906 $467 $540 forward 7 unknown #
point $-1 77.062898648030028 -45.013133600084551 15.202149734751906 #
straight-curve $-1 77.062898648030028 0 -15.202149734751906 0 -1 0 I I #
point $-1 77.062898648030028 -45.013133600084551 -15.202149734751906 #
plane-surface $-1 0 0 -15.202149734751906 0 0 1 1 0 0 forward_v I I I I #
coedge $-1 $399 $396 $409 $494 reversed $330 $-1 #
coedge $-1 $396 $399 $487 $541 reversed $330 $-1 #
edge $-1 $485 -15.202149734751906 $489 15.202149734751906 $396 $542 forward 7 unknown #
coedge $-1 $398 $397 $427 $503 reversed $267 $-1 #
coedge $-1 $498 $487 $398 $481 forward $419 $-1 #
edge $-1 $483 27.436417807466647 $543 42.229793162864468 $480 $544 forward 7 unknown #
vertex $-1 $425 $545 #
vertex $-1 $481 $546 #
straight-curve $-1 -62.269523292632208 -37.20474979551733 0 0 0 -1 I I #
vertex $-1 $402 $547 #
straight-curve $-1 -34.833105485165561 -43.046120273448395 15.202149734751906 -1 0 0 I I #
coedge $-1 $480 $403 $477 $541 forward $419 $-1 #
coedge $-1 $403 $416 $405 $491 forward $419 $-1 #
vertex $-1 $404 $548 #
straight-curve $-1 -34.833105485165561 -43.046120273448395 -15.202149734751906 1 0 0 I I #
edge $-1 $495 -45.013133600084551 $407 -43.046120273448395 $405 $549 forward 7 unknown #
point $-1 -77.062898648030028 -43.046120273448395 15.202149734751906 #
point $-1 -77.062898648030028 -43.046120273448395 -15.202149734751906 #
edge $-1 $482 17.142032278275899 $485 22.983402756206964 $409 $550 forward 7 unknown #
vertex $-1 $491 $551 #
straight-curve $-1 -77.062898648030028 -45.013133600084551 0 0 0 -1 I I #
straight-curve $-1 0 -45.013133600084551 -15.202149734751906 -1 0 0 I I #
coedge $-1 $418 $480 $502 $552 forward $419 $-1 #
edge $-1 $505 -77.062898648030028 $420 77.062898648030028 $423 $553 forward 7 unknown #
point $-1 77.062898648030028 45.013133600084551 -15.202149734751906 #
straight-curve $-1 -34.833105485165561 -37.20474979551733 15.202149734751906 1 0 0 I I #
coedge $-1 $427 $426 $498 $552 reversed $428 $-1 #
edge $-1 $543 -15.202149734751906 $429 15.202149734751906 $427 $554 forward 7 unknown #
point $-1 -77.062898648030028 -37.20474979551733 15.202149734751906 #
vertex $-1 $499 $555 #
straight-curve $-1 -77.062898648030028 45.013133600084551 0 0 0 -1 I I #
plane-surface $-1 0 45.013133600084551 0 0 -1 0 0 0 -1 forward_v I I I I #
face $-1 $556 $557 $15 $-1 $558 reversed single #
loop $-1 $-1 $559 $433 #
plane-surface $-1 -62.269523292632208 -40.125435034482862 0 -1 0 0 0 0 1 forward_v I I I I #
coedge $-1 $560 $561 $562 $563 reversed $434 $-1 #
coedge $-1 $564 $436 $520 $565 reversed $360 $-1 #
coedge $-1 $436 $564 $566 $567 reversed $360 $-1 #
coedge $-1 $568 $521 $436 $515 forward $557 $-1 #
edge $-1 $569 -15.202149734751906 $570 15.202149734751906 $514 $571 forward 7 unknown #
coedge $-1 $519 $437 $572 $573 reversed $289 $-1 #
coedge $-1 $442 $574 $437 $518 reversed $443 $-1 #
edge $-1 $450 -10.974002823981538 $575 15.202149734751906 $437 $576 forward 7 unknown #
coedge $-1 $438 $516 $577 $578 reversed $289 $-1 #
coedge $-1 $439 $579 $512 $565 forward $217 $-1 #
coedge $-1 $514 $580 $439 $522 reversed $557 $-1 #
edge $-1 $569 43.046120273448395 $524 45.013133600084551 $521 $581 forward 7 unknown #
coedge $-1 $574 $440 $580 $582 forward $443 $-1 #
vertex $-1 $522 $583 #
straight-curve $-1 0 -45.013133600084551 15.202149734751906 1 0 0 I I #
face $-1 $584 $443 $15 $-1 $585 reversed single #
point $-1 40.006095843797453 -45.013133600084551 10.974002823981538 #
straight-curve $-1 29.26724862295687 -45.013133600084551 10.974002823981539 -1 0 0 I I #
point $-1 77.062898648030028 -45.013133600084551 10.974002823981538 #
coedge $-1 $586 $452 $587 $588 forward $217 $-1 #
coedge $-1 $577 $589 $452 $532 reversed $590 $-1 #
edge $-1 $533 -77.062898648030028 $591 77.062898648030028 $531 $592 forward 7 unknown #
vertex $-1 $453 $593 #
straight-curve $-1 77.062898648030028 0 15.202149734751906 0 1 0 I I #
plane-surface $-1 77.062898648030028 0 0 -1 0 0 0 0 1 forward_v I I I I #
edge $-1 $460 -15.202149734751906 $464 15.202149734751906 $468 $594 forward 7 unknown #
point $-1 77.062898648030028 45.013133600084551 15.202149734751906 #
straight-curve $-1 -77.062898648030028 45.013133600084551 0 0 0 -1 I I #
point $-1 77.062898648030028 45.013133600084551 -15.202149734751906 #
straight-curve $-1 77.062898648030028 -45.013133600084551 0 0 0 -1 I I #
edge $-1 $489 -22.983402756206964 $483 -17.142032278275899 $487 $595 forward 7 unknown #
straight-curve $-1 -62.269523292632208 -43.046120273448395 0 0 0 -1 I I #
vertex $-1 $552 $596 #
straight-curve $-1 -34.833105485165561 -37.20474979551733 -15.202149734751906 -1 0 0 I I #
point $-1 -62.269523292632208 -37.20474979551733 15.202149734751906 #
point $-1 -62.269523292632208 -37.20474979551733 -15.202149734751906 #
point $-1 -62.269523292632208 -43.046120273448395 15.202149734751906 #
point $-1 -62.269523292632208 -43.046120273448395 -15.202149734751906 #
straight-curve $-1 -77.062898648030028 0 -15.202149734751906 0 1 0 I I #
straight-curve $-1 -62.269523292632208 -20.062717517241431 15.202149734751906 0 -1 0 I I #
point $-1 -77.062898648030028 -45.013133600084551 -15.202149734751906 #
edge $-1 $543 -37.20474979551733 $505 45.013133600084551 $502 $549 forward 7 unknown #
straight-curve $-1 0 45.013133600084551 -15.202149734751906 1 0 0 I I #
straight-curve $-1 -77.062898648030028 -37.20474979551733 0 0 0 1 I I #
point $-1 -77.062898648030028 45.013133600084551 -15.202149734751906 #
face $-1 $526 $597 $15 $-1 $598 reversed single #
loop $-1 $-1 $514 $508 #
plane-surface $-1 -77.062898648030028 0 0 1 0 0 0 0 -1 forward_v I I I I #
coedge $-1 $599 $600 $564 $601 reversed $509 $-1 #
coedge $-1 $602 $511 $586 $603 reversed $434 $-1 #
coedge $-1 $511 $602 $604 $605 reversed $434 $-1 #
coedge $-1 $600 $599 $511 $563 forward $509 $-1 #
edge $-1 $606 -15.202149734751906 $607 15.202149734751906 $562 $608 forward 7 unknown #
coedge $-1 $513 $512 $559 $601 forward $360 $-1 #
edge $-1 $609 27.436417807466647 $569 42.229793162864468 $520 $610 forward 7 unknown #
coedge $-1 $611 $612 $513 $567 forward $597 $-1 #
edge $-1 $570 -42.229793162864468 $613 -27.436417807466647 $566 $614 forward 7 unknown #
coedge $-1 $580 $514 $612 $615 reversed $557 $-1 #
vertex $-1 $522 $616 #
vertex $-1 $515 $617 #
straight-curve $-1 -77.062898648030028 -43.046120273448395 0 0 0 -1 I I #
coedge $-1 $618 $619 $516 $573 forward $597 $-1 #
edge $-1 $620 -45.013133600084551 $575 45.013133600084551 $516 $621 forward 7 unknown #
coedge $-1 $517 $523 $618 $622 reversed $443 $-1 #
vertex $-1 $518 $623 #
straight-curve $-1 77.062898648030028 -45.013133600084551 0 0 0 -1 I I #
coedge $-1 $624 $531 $519 $578 forward $590 $-1 #
edge $-1 $533 -15.202149734751906 $620 15.202149734751906 $519 $625 forward 7 unknown #
coedge $-1 $520 $586 $599 $626 forward $217 $-1 #
coedge $-1 $521 $568 $523 $582 reversed $557 $-1 #
straight-curve $-1 -77.062898648030028 0 15.202149734751906 0 -1 0 I I #
edge $-1 $524 -15.202149734751906 $627 15.202149734751906 $580 $628 forward 7 unknown #
point $-1 -77.062898648030028 -45.013133600084551 15.202149734751906 #
face $-1 $629 $630 $15 $-1 $558 reversed single #
plane-surface $-1 0 -45.013133600084551 0 0 1 0 0 0 1 forward_v I I I I #
coedge $-1 $579 $530 $560 $603 forward $217 $-1 #
coedge $-1 $631 $632 $530 $588 reversed $630 $-1 #
edge $-1 $591 -45.013133600084551 $633 37.20474979551733 $587 $581 forward 7 unknown #
coedge $-1 $531 $624 $631 $634 reversed $590 $-1 #
loop $-1 $-1 $577 $629 #
vertex $-1 $532 $635 #
straight-curve $-1 0 45.013133600084551 15.202149734751906 -1 0 0 I I #
point $-1 77.062898648030028 45.013133600084551 15.202149734751906 #
straight-curve $-1 77.062898648030028 45.013133600084551 0 0 0 -1 I I #
straight-curve $-1 -62.269523292632208 -20.062717517241431 -15.202149734751906 0 1 0 I I #
point $-1 -77.062898648030028 -37.20474979551733 -15.202149734751906 #
loop $-1 $-1 $604 $556 #
plane-surface $-1 0 0 -15.202149734751906 0 0 1 1 0 0 forward_v I I I I #
coedge $-1 $562 $559 $579 $626 reversed $509 $-1 #
coedge $-1 $559 $562 $611 $636 reversed $509 $-1 #
edge $-1 $609 -15.202149734751906 $613 15.202149734751906 $559 $637 forward 7 unknown #
coedge $-1 $561 $560 $632 $638 reversed $434 $-1 #
edge $-1 $633 -42.229793162864468 $606 -27.436417807466647 $586 $639 forward 7 unknown #
coedge $-1 $640 $611 $561 $605 forward $597 $-1 #
edge $-1 $607 27.436417807466647 $641 42.229793162864468 $604 $642 forward 7 unknown #
vertex $-1 $603 $643 #
vertex $-1 $605 $644 #
straight-curve $-1 -62.269523292632208 -37.20474979551733 0 0 0 -1 I I #
vertex $-1 $565 $645 #
straight-curve $-1 -34.833105485165561 -43.046120273448395 15.202149734751906 -1 0 0 I I #
coedge $-1 $604 $566 $600 $636 forward $597 $-1 #
coedge $-1 $566 $618 $568 $615 forward $597 $-1 #
vertex $-1 $567 $646 #
straight-curve $-1 -34.833105485165561 -43.046120273448395 -15.202149734751906 1 0 0 I I #
edge $-1 $627 -45.013133600084551 $570 -43.046120273448395 $568 $647 forward 7 unknown #
point $-1 -77.062898648030028 -43.046120273448395 15.202149734751906 #
point $-1 -77.062898648030028 -43.046120273448395 -15.202149734751906 #
coedge $-1 $612 $572 $574 $622 forward $597 $-1 #
coedge $-1 $572 $640 $624 $648 forward $597 $-1 #
vertex $-1 $573 $649 #
straight-curve $-1 77.062898648030028 0 -15.202149734751906 0 -1 0 I I #
edge $-1 $575 -77.062898648030028 $627 77.062898648030028 $574 $650 forward 7 unknown #
point $-1 77.062898648030028 -45.013133600084551 -15.202149734751906 #
coedge $-1 $589 $577 $619 $648 reversed $590 $-1 #
straight-curve $-1 77.062898648030028 45.013133600084551 0 0 0 -1 I I #
edge $-1 $606 17.142032278275899 $609 22.983402756206964 $579 $651 forward 7 unknown #
vertex $-1 $615 $652 #
straight-curve $-1 -77.062898648030028 -45.013133600084551 0 0 0 -1 I I #
face $-1 $-1 $590 $15 $-1 $653 reversed single #
loop $-1 $-1 $632 $584 #
coedge $-1 $654 $587 $589 $634 forward $630 $-1 #
coedge $-1 $587 $654 $602 $638 forward $630 $-1 #
vertex $-1 $638 $655 #
edge $-1 $591 -15.202149734751906 $656 15.202149734751906 $589 $657 forward 7 unknown #
point $-1 -77.062898648030028 45.013133600084551 15.202149734751906 #
edge $-1 $613 -22.983402756206964 $607 -17.142032278275899 $611 $658 forward 7 unknown #
straight-curve $-1 -62.269523292632208 -43.046120273448395 0 0 0 -1 I I #
edge $-1 $641 -15.202149734751906 $633 15.202149734751906 $632 $659 forward 7 unknown #
straight-curve $-1 -34.833105485165561 -37.20474979551733 15.202149734751906 1 0 0 I I #
coedge $-1 $619 $604 $654 $660 forward $597 $-1 #
vertex $-1 $660 $661 #
straight-curve $-1 -34.833105485165561 -37.20474979551733 -15.202149734751906 -1 0 0 I I #
point $-1 -62.269523292632208 -37.20474979551733 15.202149734751906 #
point $-1 -62.269523292632208 -37.20474979551733 -15.202149734751906 #
point $-1 -62.269523292632208 -43.046120273448395 15.202149734751906 #
point $-1 -62.269523292632208 -43.046120273448395 -15.202149734751906 #
straight-curve $-1 -77.062898648030028 0 -15.202149734751906 0 1 0 I I #
edge $-1 $656 -77.062898648030028 $620 77.062898648030028 $624 $662 forward 7 unknown #
point $-1 77.062898648030028 45.013133600084551 -15.202149734751906 #
straight-curve $-1 0 -45.013133600084551 -15.202149734751906 -1 0 0 I I #
straight-curve $-1 -62.269523292632208 -20.062717517241431 15.202149734751906 0 -1 0 I I #
point $-1 -77.062898648030028 -45.013133600084551 -15.202149734751906 #
plane-surface $-1 0 45.013133600084551 0 0 -1 0 0 0 -1 forward_v I I I I #
coedge $-1 $632 $631 $640 $660 reversed $630 $-1 #
point $-1 -77.062898648030028 -37.20474979551733 15.202149734751906 #
vertex $-1 $648 $663 #
straight-curve $-1 -77.062898648030028 45.013133600084551 0 0 0 -1 I I #
straight-curve $-1 -62.269523292632208 -20.062717517241431 -15.202149734751906 0 1 0 I I #
straight-curve $-1 -77.062898648030028 -37.20474979551733 0 0 0 1 I I #
edge $-1 $641 -37.20474979551733 $656 45.013133600084551 $654 $647 forward 7 unknown #
point $-1 -77.062898648030028 -37.20474979551733 -15.202149734751906 #
straight-curve $-1 0 45.013133600084551 -15.202149734751906 1 0 0 I I #
point $-1 -77.062898648030028 45.013133600084551 -15.202149734751906 #
End-of-ACIS-data 