500 0 6 0           
7 Unknown 11 ACIS 5.0 NT 24 Thu Mar 25 20:54:48 1999 
-1 9.9999999999999995e-007 1e-010 
body $-1 $6 $-1 $7 #
body $-1 $8 $-1 $9 #
body $-1 $10 $-1 $11 #
body $-1 $12 $-1 $13 #
body $-1 $14 $-1 $15 #
body $-1 $16 $-1 $17 #
lump $-1 $-1 $18 $0 #
transform $-1 1 0 0 0 1 0 0 0 1 64.462416455580311 39.196422786980257 18.859308523055919 1 rotate no_reflect no_shear #
lump $-1 $-1 $19 $1 #
transform $-1 1 0 0 0 1 0 0 0 1 64.462416455580311 39.196422786980257 18.859308523055919 1 rotate no_reflect no_shear #
lump $-1 $-1 $20 $2 #
transform $-1 1 0 0 0 1 0 0 0 1 64.462416455580311 39.196422786980257 18.859308523055919 1 rotate no_reflect no_shear #
lump $-1 $-1 $21 $3 #
transform $-1 1 0 0 0 1 0 0 0 1 64.462416455580311 39.196422786980257 18.859308523055919 1 rotate no_reflect no_shear #
lump $-1 $-1 $22 $4 #
transform $-1 1 0 0 0 1 0 0 0 1 64.462416455580311 39.196422786980257 18.859308523055919 1 rotate no_reflect no_shear #
lump $-1 $-1 $23 $5 #
transform $-1 1 0 0 0 1 0 0 0 1 64.462416455580311 39.196422786980257 18.859308523055919 1 rotate no_reflect no_shear #
shell $-1 $-1 $-1 $24 $-1 $6 #
shell $-1 $-1 $-1 $25 $-1 $8 #
shell $-1 $-1 $-1 $26 $-1 $10 #
shell $-1 $-1 $-1 $27 $-1 $12 #
shell $-1 $-1 $-1 $28 $-1 $14 #
shell $-1 $-1 $-1 $29 $-1 $16 #
face $-1 $30 $31 $18 $-1 $32 forward single #
face $-1 $33 $34 $19 $-1 $35 forward single #
face $-1 $36 $37 $20 $-1 $38 forward single #
face $-1 $39 $40 $21 $-1 $41 reversed single #
face $-1 $42 $43 $22 $-1 $44 forward single #
face $-1 $45 $46 $23 $-1 $47 forward single #
face $-1 $48 $49 $18 $-1 $50 reversed single #
loop $-1 $-1 $51 $24 #
plane-surface $-1 0 0 18.859308523055919 0 0 1 1 0 0 forward_v I I I I #
face $-1 $52 $53 $19 $-1 $54 forward single #
loop $-1 $-1 $55 $25 #
plane-surface $-1 0 -39.196422786980257 0 0 1 0 0 0 1 forward_v I I I I #
face $-1 $56 $57 $20 $-1 $58 reversed single #
loop $-1 $-1 $59 $26 #
plane-surface $-1 0 39.196422786980257 0 0 -1 0 0 0 -1 forward_v I I I I #
face $-1 $60 $61 $21 $-1 $62 reversed single #
loop $-1 $-1 $63 $27 #
plane-surface $-1 108.57137241606306 -6.0622334175997494 184.33788180661452 0 -1 0 -0.85716730853699208 0 -0.51503806187062418 forward_v I I I I #
face $-1 $64 $65 $22 $-1 $66 forward single #
loop $-1 $67 $68 $28 #
cone-surface $-1 60.273166563311165 -12.010827387416434 12.689573034955417 -0.85716730853699208 0 -0.51503806187062418 0.25751903093531209 0 -0.42858365426849604 1 I I 0 1 0.5 forward I I I I #
face $-1 $69 $70 $23 $-1 $71 forward single #
loop $-1 $72 $73 $29 #
cone-surface $-1 60.273166563311165 -8.4416710055264232 12.689573034955417 -0.85716730853699208 0 -0.51503806187062418 0.25751903093531209 0 -0.42858365426849604 1 I I 0 1 0.5 forward I I I I #
face $-1 $74 $75 $18 $-1 $76 reversed single #
loop $-1 $-1 $77 $30 #
plane-surface $-1 0 0 -18.859308523055919 0 0 1 1 0 0 forward_v I I I I #
coedge $-1 $78 $79 $80 $81 forward $31 $-1 #
face $-1 $82 $83 $19 $-1 $84 reversed single #
loop $-1 $-1 $85 $33 #
plane-surface $-1 0 0 18.859308523055919 0 0 1 1 0 0 forward_v I I I I #
coedge $-1 $86 $87 $88 $89 forward $34 $-1 #
face $-1 $90 $91 $20 $-1 $92 reversed single #
loop $-1 $-1 $93 $36 #
plane-surface $-1 64.462416455580311 0 0 -1 0 0 0 0 1 forward_v I I I I #
coedge $-1 $94 $95 $96 $97 forward $37 $-1 #
face $-1 $98 $99 $21 $-1 $100 reversed single #
loop $-1 $-1 $101 $39 #
plane-surface $-1 -1.9387796139778857 -10.226249196471429 117.93668573705631 0.85716730853699208 0 0.51503806187062418 0.51503806187062418 0 -0.85716730853699208 forward_v I I I I #
coedge $-1 $102 $103 $104 $105 reversed $40 $-1 #
face $-1 $-1 $106 $22 $-1 $107 forward single #
loop $-1 $108 $109 $42 #
cone-surface $-1 59.304376802138066 -12.010827387416434 12.107465439407559 -0.85716730853699208 0 -0.51503806187062418 0.12875951546765604 0 -0.21429182713424802 1 I I -0.70710678118654746 0.70710678118654746 0.25 forward I I I I #
loop $-1 $-1 $110 $28 #
coedge $-1 $68 $68 $111 $112 reversed $43 $-1 #
face $-1 $-1 $113 $23 $-1 $114 forward single #
loop $-1 $115 $116 $45 #
cone-surface $-1 59.304376802138066 -8.4416710055264232 12.107465439407559 -0.85716730853699208 0 -0.51503806187062418 0.12875951546765604 0 -0.21429182713424802 1 I I -0.70710678118654746 0.70710678118654746 0.25 forward I I I I #
loop $-1 $-1 $117 $29 #
coedge $-1 $73 $73 $118 $119 reversed $46 $-1 #
face $-1 $120 $121 $18 $-1 $122 reversed single #
loop $-1 $-1 $123 $48 #
plane-surface $-1 0 -39.196422786980257 0 0 1 0 0 0 1 forward_v I I I I #
coedge $-1 $124 $125 $126 $127 forward $49 $-1 #
coedge $-1 $128 $51 $129 $130 forward $31 $-1 #
coedge $-1 $51 $128 $131 $132 forward $31 $-1 #
coedge $-1 $133 $134 $51 $81 reversed $135 $-1 #
edge $-1 $136 -39.196422786980257 $137 39.196422786980257 $80 $138 forward 7 unknown #
face $-1 $139 $140 $19 $-1 $141 reversed single #
loop $-1 $-1 $142 $52 #
plane-surface $-1 -64.462416455580311 0 0 1 0 0 0 0 -1 forward_v I I I I #
coedge $-1 $143 $144 $145 $146 forward $53 $-1 #
coedge $-1 $145 $55 $142 $147 reversed $34 $-1 #
coedge $-1 $55 $145 $148 $149 reversed $34 $-1 #
coedge $-1 $150 $151 $55 $89 reversed $140 $-1 #
edge $-1 $152 -64.462416455580311 $153 64.462416455580311 $88 $154 forward 7 unknown #
face $-1 $155 $156 $20 $-1 $157 reversed single #
loop $-1 $-1 $158 $56 #
plane-surface $-1 0 51.599501692798832 13.60457922364505 0 0 1 1 0 0 forward_v I I I I #
coedge $-1 $159 $160 $94 $161 forward $57 $-1 #
coedge $-1 $162 $59 $93 $161 reversed $37 $-1 #
coedge $-1 $59 $162 $163 $164 reversed $37 $-1 #
coedge $-1 $165 $158 $59 $97 reversed $91 $-1 #
edge $-1 $166 -64.462416455580311 $167 64.462416455580311 $96 $168 forward 7 unknown #
face $-1 $169 $170 $21 $-1 $171 forward single #
loop $-1 $-1 $172 $60 #
plane-surface $-1 108.57137241606306 -14.390264975343108 184.33788180661452 0 1 0 0.85716730853699208 0 0.51503806187062418 forward_v I I I I #
coedge $-1 $173 $174 $175 $176 reversed $61 $-1 #
coedge $-1 $103 $63 $177 $178 reversed $40 $-1 #
coedge $-1 $63 $102 $173 $179 reversed $40 $-1 #
coedge $-1 $175 $180 $63 $105 forward $170 $-1 #
edge $-1 $181 -10.176730247548782 $182 -3.3072263310882661 $104 $183 forward 7 unknown #
loop $-1 $-1 $111 $64 #
plane-surface $-1 -1.9387796139778857 -10.226249196471429 117.93668573705631 0.85716730853699208 0 0.51503806187062418 0.51503806187062418 0 -0.85716730853699208 forward_v I I I I #
loop $-1 $-1 $184 $42 #
coedge $-1 $109 $109 $110 $185 reversed $65 $-1 #
coedge $-1 $110 $110 $109 $185 forward $67 $-1 #
coedge $-1 $111 $111 $68 $112 forward $106 $-1 #
edge $-1 $186 0 $186 6.2831853071796004 $111 $187 forward 7 unknown #
loop $-1 $-1 $118 $69 #
plane-surface $-1 -1.9387796139778857 -10.226249196471429 117.93668573705631 0.85716730853699208 0 0.51503806187062418 0.51503806187062418 0 -0.85716730853699208 forward_v I I I I #
loop $-1 $-1 $188 $45 #
coedge $-1 $116 $116 $117 $189 reversed $70 $-1 #
coedge $-1 $117 $117 $116 $189 forward $72 $-1 #
coedge $-1 $118 $118 $73 $119 forward $113 $-1 #
edge $-1 $190 0 $190 6.2831853071796004 $118 $191 forward 7 unknown #
face $-1 $192 $193 $18 $-1 $194 reversed single #
loop $-1 $-1 $195 $74 #
plane-surface $-1 -64.462416455580311 0 0 1 0 0 0 0 -1 forward_v I I I I #
coedge $-1 $196 $131 $197 $198 forward $75 $-1 #
coedge $-1 $199 $77 $196 $200 forward $49 $-1 #
coedge $-1 $77 $199 $201 $202 forward $49 $-1 #
coedge $-1 $134 $133 $77 $127 reversed $135 $-1 #
edge $-1 $203 -39.196422786980257 $204 39.196422786980257 $126 $205 forward 7 unknown #
coedge $-1 $79 $78 $206 $207 forward $31 $-1 #
coedge $-1 $208 $209 $78 $130 reversed $193 $-1 #
edge $-1 $137 -64.462416455580311 $210 64.462416455580311 $129 $211 forward 7 unknown #
coedge $-1 $123 $212 $79 $132 reversed $75 $-1 #
edge $-1 $213 -64.462416455580311 $136 64.462416455580311 $131 $214 forward 7 unknown #
coedge $-1 $126 $80 $212 $215 forward $135 $-1 #
coedge $-1 $80 $126 $208 $216 reversed $135 $-1 #
loop $-1 $-1 $133 $192 #
vertex $-1 $81 $217 #
vertex $-1 $81 $218 #
straight-curve $-1 64.462416455580311 0 18.859308523055919 0 1 0 I I #
face $-1 $219 $220 $19 $-1 $221 reversed single #
loop $-1 $-1 $150 $82 #
plane-surface $-1 0 -51.599501692798832 13.60457922364505 0 0 1 1 0 0 forward_v I I I I #
coedge $-1 $222 $223 $86 $147 forward $83 $-1 #
coedge $-1 $224 $85 $223 $225 forward $53 $-1 #
coedge $-1 $85 $224 $226 $227 forward $53 $-1 #
coedge $-1 $87 $86 $85 $146 reversed $34 $-1 #
edge $-1 $228 -64.462416455580311 $229 64.462416455580311 $85 $230 forward 7 unknown #
edge $-1 $229 -18.859308523055919 $153 -13.60457922364505 $142 $231 forward 7 unknown #
coedge $-1 $226 $232 $87 $149 forward $233 $-1 #
edge $-1 $152 13.60457922364505 $228 18.859308523055919 $148 $234 forward 7 unknown #
coedge $-1 $235 $88 $232 $236 forward $140 $-1 #
coedge $-1 $88 $235 $222 $237 forward $140 $-1 #
vertex $-1 $149 $238 #
vertex $-1 $147 $239 #
straight-curve $-1 0 -39.196422786980257 13.60457922364505 -1 0 0 I I #
face $-1 $240 $241 $20 $-1 $242 forward single #
loop $-1 $-1 $243 $90 #
plane-surface $-1 0 64.002580598617413 16.231943873350485 0 -1 0 0 0 -1 forward_v I I I I #
coedge $-1 $96 $244 $159 $245 forward $91 $-1 #
coedge $-1 $246 $93 $158 $245 reversed $57 $-1 #
coedge $-1 $93 $246 $247 $248 reversed $57 $-1 #
edge $-1 $249 -18.859308523055919 $167 -13.60457922364505 $93 $250 forward 7 unknown #
coedge $-1 $95 $94 $251 $252 reversed $37 $-1 #
coedge $-1 $253 $254 $95 $164 forward $255 $-1 #
edge $-1 $166 13.60457922364505 $256 18.859308523055919 $163 $257 forward 7 unknown #
coedge $-1 $244 $96 $254 $258 forward $91 $-1 #
vertex $-1 $164 $259 #
vertex $-1 $161 $260 #
straight-curve $-1 0 39.196422786980257 13.60457922364505 1 0 0 I I #
face $-1 $-1 $261 $21 $-1 $262 reversed single #
loop $-1 $-1 $104 $98 #
plane-surface $-1 0 0 18.859308523055919 0 0 1 1 0 0 forward_v I I I I #
coedge $-1 $263 $264 $265 $266 reversed $99 $-1 #
coedge $-1 $267 $101 $103 $179 forward $61 $-1 #
coedge $-1 $101 $267 $263 $268 forward $61 $-1 #
coedge $-1 $265 $104 $101 $176 forward $170 $-1 #
edge $-1 $182 0.94910881936403513 $269 9.2771403771073935 $175 $270 forward 7 unknown #
coedge $-1 $271 $272 $102 $178 forward $261 $-1 #
edge $-1 $273 -84.742407196291865 $181 -73.309632380251344 $177 $274 forward 7 unknown #
edge $-1 $182 115.58697610983913 $273 128.92483291116059 $103 $275 forward 7 unknown #
coedge $-1 $104 $265 $271 $276 forward $170 $-1 #
vertex $-1 $178 $277 #
vertex $-1 $105 $278 #
straight-curve $-1 54.285686208031528 -6.0622334175997494 18.859308523055915 -1 0 0 I I #
coedge $-1 $184 $184 $-1 $279 reversed $108 $-1 #
edge $-1 $280 0 $280 6.2831853071796004 $109 $281 forward 7 unknown #
vertex $-1 $112 $282 #
ellipse-curve $-1 61.027664497350059 -12.010827387416434 13.142921115035644 0.85716730853699208 0 0.51503806187062418 0.25751903093531209 0 -0.42858365426849604 1 I I #
coedge $-1 $188 $188 $-1 $283 reversed $115 $-1 #
edge $-1 $284 0 $284 6.2831853071796004 $116 $285 forward 7 unknown #
vertex $-1 $119 $286 #
ellipse-curve $-1 61.027664497350059 -8.4416710055264232 13.142921115035644 0.85716730853699208 0 0.51503806187062418 0.25751903093531209 0 -0.42858365426849604 1 I I #
face $-1 $-1 $135 $18 $-1 $287 reversed single #
loop $-1 $-1 $208 $120 #
plane-surface $-1 0 39.196422786980257 0 0 -1 0 0 0 -1 forward_v I I I I #
coedge $-1 $288 $206 $209 $289 forward $121 $-1 #
coedge $-1 $212 $123 $124 $200 reversed $75 $-1 #
coedge $-1 $206 $288 $123 $198 reversed $121 $-1 #
edge $-1 $213 -18.859308523055919 $290 18.859308523055919 $197 $291 forward 7 unknown #
coedge $-1 $125 $124 $288 $292 forward $49 $-1 #
edge $-1 $204 -64.462416455580311 $290 64.462416455580311 $196 $293 forward 7 unknown #
coedge $-1 $209 $208 $125 $202 reversed $193 $-1 #
edge $-1 $294 -64.462416455580311 $203 64.462416455580311 $201 $295 forward 7 unknown #
vertex $-1 $127 $296 #
vertex $-1 $215 $297 #
straight-curve $-1 64.462416455580311 0 -18.859308523055919 0 -1 0 I I #
coedge $-1 $195 $197 $128 $207 reversed $121 $-1 #
edge $-1 $210 -39.196422786980257 $213 39.196422786980257 $206 $298 forward 7 unknown #
coedge $-1 $201 $129 $134 $216 forward $193 $-1 #
coedge $-1 $129 $201 $195 $289 reversed $193 $-1 #
vertex $-1 $130 $299 #
straight-curve $-1 0 39.196422786980257 18.859308523055919 -1 0 0 I I #
coedge $-1 $131 $196 $133 $215 reversed $75 $-1 #
vertex $-1 $207 $300 #
straight-curve $-1 0 -39.196422786980257 18.859308523055919 1 0 0 I I #
edge $-1 $136 -18.859308523055919 $204 18.859308523055919 $133 $301 forward 7 unknown #
edge $-1 $137 -18.859308523055919 $203 18.859308523055919 $134 $302 forward 7 unknown #
point $-1 64.462416455580311 -39.196422786980257 18.859308523055919 #
point $-1 64.462416455580311 39.196422786980257 18.859308523055919 #
face $-1 $-1 $233 $19 $-1 $303 reversed single #
loop $-1 $-1 $304 $139 #
plane-surface $-1 0 -64.002580598617413 16.231943873350485 0 1 0 0 0 1 forward_v I I I I #
coedge $-1 $305 $142 $151 $237 reversed $83 $-1 #
coedge $-1 $142 $305 $143 $225 reversed $83 $-1 #
coedge $-1 $144 $143 $306 $307 forward $53 $-1 #
edge $-1 $229 39.196422786980257 $308 64.002580598617413 $223 $309 forward 7 unknown #
coedge $-1 $310 $148 $144 $227 reversed $233 $-1 #
edge $-1 $311 -64.002580598617413 $228 -39.196422786980257 $226 $312 forward 7 unknown #
vertex $-1 $149 $313 #
vertex $-1 $225 $314 #
straight-curve $-1 0 -39.196422786980257 18.859308523055919 -1 0 0 I I #
straight-curve $-1 -64.462416455580311 -39.196422786980257 0 0 0 -1 I I #
coedge $-1 $148 $310 $150 $236 reversed $233 $-1 #
loop $-1 $-1 $148 $219 #
straight-curve $-1 64.462416455580311 -39.196422786980257 0 0 0 1 I I #
coedge $-1 $151 $150 $315 $316 forward $140 $-1 #
edge $-1 $152 -12.403078905818575 $317 12.403078905818582 $232 $318 forward 7 unknown #
edge $-1 $319 -12.403078905818582 $153 12.403078905818575 $222 $320 forward 7 unknown #
point $-1 64.462416455580311 -39.196422786980257 13.60457922364505 #
point $-1 -64.462416455580311 -39.196422786980257 13.60457922364505 #
face $-1 $-1 $255 $20 $-1 $321 reversed single #
loop $-1 $-1 $251 $155 #
plane-surface $-1 0 0 18.859308523055919 0 0 1 1 0 0 forward_v I I I I #
coedge $-1 $322 $323 $246 $324 forward $156 $-1 #
coedge $-1 $158 $165 $322 $325 forward $91 $-1 #
edge $-1 $326 -12.403078905818582 $167 12.403078905818575 $159 $327 forward 7 unknown #
coedge $-1 $160 $159 $243 $324 reversed $57 $-1 #
coedge $-1 $328 $251 $160 $248 forward $241 $-1 #
edge $-1 $249 39.196422786980257 $329 64.002580598617413 $160 $330 forward 7 unknown #
vertex $-1 $248 $331 #
straight-curve $-1 64.462416455580311 39.196422786980257 0 0 0 -1 I I #
coedge $-1 $247 $332 $162 $252 forward $241 $-1 #
edge $-1 $256 -64.462416455580311 $249 64.462416455580311 $251 $333 forward 7 unknown #
coedge $-1 $334 $163 $332 $335 reversed $255 $-1 #
coedge $-1 $163 $334 $165 $258 reversed $255 $-1 #
loop $-1 $-1 $163 $240 #
vertex $-1 $164 $336 #
straight-curve $-1 -64.462416455580311 39.196422786980257 0 0 0 1 I I #
edge $-1 $166 -12.403078905818575 $337 12.403078905818582 $254 $338 forward 7 unknown #
point $-1 -64.462416455580311 39.196422786980257 13.60457922364505 #
point $-1 64.462416455580311 39.196422786980257 13.60457922364505 #
loop $-1 $-1 $177 $169 #
plane-surface $-1 64.462416455580311 0 0 -1 0 0 0 0 1 forward_v I I I I #
coedge $-1 $264 $172 $174 $268 reversed $99 $-1 #
coedge $-1 $172 $263 $339 $340 reversed $99 $-1 #
coedge $-1 $180 $175 $172 $266 forward $170 $-1 #
edge $-1 $269 3.3072263310882661 $341 10.176730247548782 $265 $342 forward 7 unknown #
coedge $-1 $174 $173 $272 $343 reversed $61 $-1 #
edge $-1 $344 -128.92483291116059 $269 -115.58697610983913 $263 $345 forward 7 unknown #
vertex $-1 $176 $346 #
straight-curve $-1 57.59291253911978 -5.1131245982357143 18.859308523055915 0 -1 0 I I #
coedge $-1 $339 $177 $180 $276 reversed $261 $-1 #
coedge $-1 $177 $339 $267 $343 forward $261 $-1 #
vertex $-1 $178 $347 #
straight-curve $-1 64.462416455580311 -6.0622334175997494 92.168940903307259 0 0 1 I I #
straight-curve $-1 -1.9387796139778857 -6.0622334175997494 117.93668573705631 0.51503806187062418 0 -0.85716730853699208 I I #
edge $-1 $341 -14.390264975343108 $181 -6.0622334175997494 $271 $348 forward 7 unknown #
point $-1 64.462416455580311 -6.0622334175997494 18.859308523055919 #
point $-1 57.592912539119794 -6.0622334175997494 18.859308523055915 #
edge $-1 $349 1 $349 0 $184 $-1 forward 7 unknown #
vertex $-1 $185 $350 #
ellipse-curve $-1 59.518668629272312 -12.010827387416434 12.236224954875215 0.85716730853699208 0 0.51503806187062418 0.25751903093531209 0 -0.42858365426849604 1 I I #
point $-1 61.28518352828533 -12.010827387416434 12.714337460767124 #
edge $-1 $351 1 $351 0 $188 $-1 forward 7 unknown #
vertex $-1 $189 $352 #
ellipse-curve $-1 59.518668629272312 -8.4416710055264232 12.236224954875215 0.85716730853699208 0 0.51503806187062418 0.25751903093531209 0 -0.42858365426849604 1 I I #
point $-1 61.28518352828533 -8.4416710055264232 12.714337460767124 #
plane-surface $-1 64.462416455580311 0 0 -1 0 0 0 0 1 forward_v I I I I #
coedge $-1 $197 $195 $199 $292 reversed $121 $-1 #
edge $-1 $210 -18.859308523055919 $294 18.859308523055919 $209 $353 forward 7 unknown #
vertex $-1 $292 $354 #
straight-curve $-1 -64.462416455580311 -39.196422786980257 0 0 0 -1 I I #
edge $-1 $290 -39.196422786980257 $294 39.196422786980257 $288 $355 forward 7 unknown #
straight-curve $-1 0 -39.196422786980257 -18.859308523055919 -1 0 0 I I #
vertex $-1 $202 $356 #
straight-curve $-1 0 39.196422786980257 -18.859308523055919 1 0 0 I I #
point $-1 64.462416455580311 39.196422786980257 -18.859308523055919 #
point $-1 64.462416455580311 -39.196422786980257 -18.859308523055919 #
straight-curve $-1 -64.462416455580311 0 18.859308523055919 0 -1 0 I I #
point $-1 -64.462416455580311 39.196422786980257 18.859308523055919 #
point $-1 -64.462416455580311 -39.196422786980257 18.859308523055919 #
straight-curve $-1 64.462416455580311 -39.196422786980257 0 0 0 -1 I I #
straight-curve $-1 64.462416455580311 39.196422786980257 0 0 0 -1 I I #
plane-surface $-1 64.462416455580311 0 0 -1 0 0 0 0 1 forward_v I I I I #
coedge $-1 $315 $306 $305 $357 forward $220 $-1 #
coedge $-1 $223 $222 $304 $357 reversed $83 $-1 #
coedge $-1 $304 $358 $224 $307 reversed $220 $-1 #
edge $-1 $308 -64.462416455580311 $311 64.462416455580311 $306 $359 forward 7 unknown #
vertex $-1 $225 $360 #
straight-curve $-1 -64.462416455580311 0 18.859308523055919 0 -1 0 I I #
coedge $-1 $232 $226 $358 $361 forward $233 $-1 #
vertex $-1 $227 $362 #
straight-curve $-1 64.462416455580311 0 18.859308523055919 0 1 0 I I #
point $-1 64.462416455580311 -39.196422786980257 18.859308523055919 #
point $-1 -64.462416455580311 -39.196422786980257 18.859308523055919 #
coedge $-1 $358 $304 $235 $316 reversed $220 $-1 #
edge $-1 $317 -64.462416455580311 $319 64.462416455580311 $315 $363 forward 7 unknown #
vertex $-1 $361 $364 #
straight-curve $-1 64.462416455580311 -51.599501692798832 13.60457922364505 0 -1 0 I I #
vertex $-1 $237 $365 #
straight-curve $-1 -64.462416455580311 -51.599501692798832 13.60457922364505 0 1 0 I I #
plane-surface $-1 -64.462416455580311 0 0 1 0 0 0 0 -1 forward_v I I I I #
coedge $-1 $366 $243 $244 $325 reversed $156 $-1 #
coedge $-1 $243 $366 $328 $367 reversed $156 $-1 #
edge $-1 $329 -2.6273646497054344 $326 2.6273646497054344 $246 $368 forward 7 unknown #
edge $-1 $337 -64.462416455580311 $326 64.462416455580311 $322 $369 forward 7 unknown #
vertex $-1 $245 $370 #
straight-curve $-1 64.462416455580311 51.599501692798832 13.60457922364505 0 -1 0 I I #
coedge $-1 $332 $247 $323 $367 forward $241 $-1 #
vertex $-1 $248 $371 #
straight-curve $-1 64.462416455580311 0 18.859308523055919 0 1 0 I I #
point $-1 64.462416455580311 39.196422786980257 18.859308523055919 #
coedge $-1 $251 $328 $253 $335 forward $241 $-1 #
straight-curve $-1 0 39.196422786980257 18.859308523055919 1 0 0 I I #
coedge $-1 $254 $253 $366 $372 forward $255 $-1 #
edge $-1 $373 -64.002580598617413 $256 -39.196422786980257 $253 $374 forward 7 unknown #
point $-1 -64.462416455580311 39.196422786980257 18.859308523055919 #
vertex $-1 $325 $375 #
straight-curve $-1 -64.462416455580311 51.599501692798832 13.60457922364505 0 1 0 I I #
coedge $-1 $272 $271 $264 $340 forward $261 $-1 #
edge $-1 $341 73.309632380251344 $344 84.742407196291865 $339 $376 forward 7 unknown #
vertex $-1 $276 $377 #
straight-curve $-1 54.285686208031528 -14.390264975343108 18.859308523055915 1 0 0 I I #
edge $-1 $344 -9.2771403771073935 $273 -0.94910881936403513 $272 $378 forward 7 unknown #
vertex $-1 $343 $379 #
straight-curve $-1 -1.9387796139778857 -14.390264975343108 117.93668573705631 -0.51503806187062418 0 0.85716730853699208 I I #
point $-1 57.592912539119794 -14.390264975343108 18.859308523055915 #
point $-1 64.462416455580311 -6.0622334175997494 7.4265337070153947 #
straight-curve $-1 64.462416455580311 0 18.859308523055919 0 1 0 I I #
vertex $-1 $279 $380 #
point $-1 59.776187660207626 -12.010827387416434 11.807641300606718 #
vertex $-1 $283 $381 #
point $-1 59.776187660207626 -8.4416710055264232 11.807641300606718 #
straight-curve $-1 -64.462416455580311 39.196422786980257 0 0 0 -1 I I #
point $-1 -64.462416455580311 -39.196422786980257 -18.859308523055919 #
straight-curve $-1 -64.462416455580311 0 -18.859308523055919 0 1 0 I I #
point $-1 -64.462416455580311 39.196422786980257 -18.859308523055919 #
edge $-1 $308 -2.6273646497054344 $319 2.6273646497054344 $305 $382 forward 7 unknown #
coedge $-1 $306 $315 $310 $361 reversed $220 $-1 #
straight-curve $-1 0 -64.002580598617413 18.859308523055919 1 0 0 I I #
point $-1 -64.462416455580311 -64.002580598617413 18.859308523055919 #
edge $-1 $311 -2.6273646497054344 $317 2.6273646497054344 $310 $383 forward 7 unknown #
point $-1 64.462416455580311 -64.002580598617413 18.859308523055919 #
straight-curve $-1 0 -64.002580598617413 13.60457922364505 -1 0 0 I I #
point $-1 64.462416455580311 -64.002580598617413 13.60457922364505 #
point $-1 -64.462416455580311 -64.002580598617413 13.60457922364505 #
coedge $-1 $323 $322 $334 $372 reversed $156 $-1 #
edge $-1 $329 -64.462416455580311 $373 64.462416455580311 $323 $384 forward 7 unknown #
straight-curve $-1 64.462416455580311 64.002580598617413 16.231943873350485 0 0 -1 I I #
straight-curve $-1 0 64.002580598617413 13.60457922364505 1 0 0 I I #
point $-1 64.462416455580311 64.002580598617413 13.60457922364505 #
point $-1 64.462416455580311 64.002580598617413 18.859308523055919 #
edge $-1 $373 -2.6273646497054344 $337 2.6273646497054344 $366 $385 forward 7 unknown #
vertex $-1 $367 $386 #
straight-curve $-1 -64.462416455580311 0 18.859308523055919 0 -1 0 I I #
point $-1 -64.462416455580311 64.002580598617413 13.60457922364505 #
straight-curve $-1 64.462416455580311 -14.390264975343108 92.168940903307259 0 0 -1 I I #
point $-1 64.462416455580311 -14.390264975343108 18.859308523055919 #
straight-curve $-1 64.462416455580311 -5.1131245982357143 7.4265337070153947 0 1 0 I I #
point $-1 64.462416455580311 -14.390264975343108 7.4265337070153947 #
point $-1 59.090084975003819 -12.010827387416434 11.978705923939902 #
point $-1 59.090084975003819 -8.4416710055264232 11.978705923939902 #
straight-curve $-1 -64.462416455580311 -64.002580598617413 16.231943873350485 0 0 -1 I I #
straight-curve $-1 64.462416455580311 -64.002580598617413 16.231943873350485 0 0 -1 I I #
straight-curve $-1 0 64.002580598617413 18.859308523055919 -1 0 0 I I #
straight-curve $-1 -64.462416455580311 64.002580598617413 16.231943873350485 0 0 -1 I I #
point $-1 -64.462416455580311 64.002580598617413 18.859308523055919 #
End-of-ACIS-data 