500 0 3 0           
7 Unknown 11 ACIS 5.0 NT 24 Thu Mar 25 16:14:28 1999 
-1 9.9999999999999995e-007 1e-010 
body $-1 $3 $-1 $4 #
body $-1 $5 $-1 $6 #
body $-1 $7 $-1 $8 #
lump $-1 $-1 $9 $0 #
transform $-1 1 0 0 0 1 0 0 0 1 47.473372600482193 29.470377882211007 11.209482335799699 1 rotate no_reflect no_shear #
lump $-1 $-1 $10 $1 #
transform $-1 1 0 0 0 1 0 0 0 1 47.473372600482193 29.470377882211007 11.209482335799699 1 rotate no_reflect no_shear #
lump $-1 $-1 $11 $2 #
transform $-1 1 0 0 0 1 0 0 0 1 47.473372600482193 29.470377882211007 11.209482335799699 1 rotate no_reflect no_shear #
shell $-1 $-1 $-1 $12 $-1 $3 #
shell $-1 $-1 $-1 $13 $-1 $5 #
shell $-1 $-1 $-1 $14 $-1 $7 #
face $-1 $15 $16 $9 $-1 $17 forward single #
face $-1 $18 $19 $10 $-1 $20 reversed single #
face $-1 $21 $22 $11 $-1 $23 forward single #
face $-1 $24 $25 $9 $-1 $26 reversed single #
loop $-1 $-1 $27 $12 #
plane-surface $-1 0 0 11.209482335799699 0 0 1 1 0 0 forward_v I I I I #
face $-1 $28 $29 $10 $-1 $30 reversed single #
loop $-1 $-1 $31 $13 #
plane-surface $-1 -10.551370757627065 83.937628479293551 102.90358604735832 1 0 0 0 -0.87461971476443456 -0.48480960649040278 forward_v I I I I #
face $-1 $32 $33 $11 $-1 $34 forward single #
loop $-1 $35 $36 $14 #
cone-surface $-1 -1.622748872041214 26.484702013362604 7.5151552031108162 0 -0.87461971476443456 -0.48480960649040278 1 0 0 1 I I 0 1 1 forward I I I I #
face $-1 $37 $38 $9 $-1 $39 reversed single #
loop $-1 $-1 $40 $15 #
plane-surface $-1 0 0 -11.209482335799699 0 0 1 1 0 0 forward_v I I I I #
coedge $-1 $41 $42 $43 $44 forward $16 $-1 #
face $-1 $45 $46 $10 $-1 $47 reversed single #
loop $-1 $-1 $48 $18 #
plane-surface $-1 -1.622748872041214 0.89533327381462868 56.872491868934233 0 0.87461971476443456 0.48480960649040278 1 0 0 forward_v I I I I #
coedge $-1 $49 $50 $51 $52 reversed $19 $-1 #
face $-1 $-1 $53 $11 $-1 $54 forward single #
loop $-1 $55 $56 $21 #
cone-surface $-1 -1.622748872041214 24.693529310360578 6.5222919979489618 0 -0.87461971476443456 -0.48480960649040278 0.5 0 0 1 I I -0.70710678118654746 0.70710678118654746 0.5 forward I I I I #
loop $-1 $-1 $57 $14 #
coedge $-1 $36 $36 $58 $59 reversed $22 $-1 #
face $-1 $60 $61 $9 $-1 $62 reversed single #
loop $-1 $-1 $63 $24 #
plane-surface $-1 0 -29.470377882211007 0 0 1 0 0 0 1 forward_v I I I I #
coedge $-1 $64 $65 $66 $67 forward $25 $-1 #
coedge $-1 $68 $27 $69 $70 forward $16 $-1 #
coedge $-1 $27 $68 $71 $72 forward $16 $-1 #
coedge $-1 $73 $74 $27 $44 reversed $75 $-1 #
edge $-1 $76 -29.470377882211007 $77 29.470377882211007 $43 $78 forward 7 unknown #
face $-1 $79 $80 $10 $-1 $81 reversed single #
loop $-1 $-1 $82 $28 #
plane-surface $-1 7.3058730135446375 83.937628479293551 102.90358604735832 -1 0 0 0 0.87461971476443456 0.48480960649040278 forward_v I I I I #
coedge $-1 $83 $84 $85 $86 reversed $29 $-1 #
coedge $-1 $50 $31 $87 $88 reversed $19 $-1 #
coedge $-1 $31 $49 $83 $89 reversed $19 $-1 #
coedge $-1 $85 $90 $31 $52 forward $91 $-1 #
edge $-1 $92 12.498436357435768 $93 15.762062403892962 $51 $94 forward 7 unknown #
loop $-1 $-1 $58 $32 #
plane-surface $-1 -1.622748872041214 0.89533327381462868 56.872491868934233 0 0.87461971476443456 0.48480960649040278 1 0 0 forward_v I I I I #
loop $-1 $-1 $95 $21 #
coedge $-1 $56 $56 $57 $96 reversed $33 $-1 #
coedge $-1 $57 $57 $56 $96 forward $35 $-1 #
coedge $-1 $58 $58 $36 $59 forward $53 $-1 #
edge $-1 $97 -1.5536367121960996e-015 $97 6.2831853071795987 $58 $98 forward 7 unknown #
face $-1 $99 $100 $9 $-1 $101 reversed single #
loop $-1 $-1 $102 $37 #
plane-surface $-1 -47.473372600482193 0 0 1 0 0 0 0 -1 forward_v I I I I #
coedge $-1 $103 $71 $104 $105 forward $38 $-1 #
coedge $-1 $106 $40 $103 $107 forward $25 $-1 #
coedge $-1 $40 $106 $108 $109 forward $25 $-1 #
coedge $-1 $74 $73 $40 $67 reversed $75 $-1 #
edge $-1 $110 -29.470377882211007 $111 29.470377882211007 $66 $112 forward 7 unknown #
coedge $-1 $42 $41 $113 $114 forward $16 $-1 #
coedge $-1 $115 $116 $41 $70 reversed $100 $-1 #
edge $-1 $77 -47.473372600482193 $117 47.473372600482193 $69 $118 forward 7 unknown #
coedge $-1 $63 $119 $42 $72 reversed $38 $-1 #
edge $-1 $120 -47.473372600482193 $76 47.473372600482193 $71 $121 forward 7 unknown #
coedge $-1 $66 $43 $119 $122 forward $75 $-1 #
coedge $-1 $43 $66 $115 $123 reversed $75 $-1 #
loop $-1 $-1 $73 $99 #
vertex $-1 $44 $124 #
vertex $-1 $44 $125 #
straight-curve $-1 47.473372600482193 0 11.209482335799699 0 1 0 I I #
face $-1 $-1 $91 $10 $-1 $126 forward single #
loop $-1 $-1 $127 $45 #
plane-surface $-1 0 29.470377882211007 0 0 -1 0 0 0 -1 forward_v I I I I #
coedge $-1 $128 $129 $130 $131 reversed $46 $-1 #
coedge $-1 $132 $48 $50 $89 forward $29 $-1 #
coedge $-1 $48 $132 $128 $133 forward $29 $-1 #
coedge $-1 $130 $51 $48 $86 forward $91 $-1 #
edge $-1 $93 -9.7399963216064585 $134 8.1172474495652445 $85 $135 forward 7 unknown #
coedge $-1 $136 $137 $49 $88 forward $80 $-1 #
edge $-1 $138 -46.130048149423914 $92 -40.24231068787946 $87 $139 forward 7 unknown #
edge $-1 $93 52.208987245883392 $138 58.940755764422022 $50 $140 forward 7 unknown #
coedge $-1 $51 $130 $136 $141 forward $91 $-1 #
loop $-1 $-1 $130 $79 #
vertex $-1 $88 $142 #
vertex $-1 $52 $143 #
straight-curve $-1 -10.551370757627065 41.968814239646775 11.209482335799699 0 -1 0 I I #
coedge $-1 $95 $95 $-1 $144 reversed $55 $-1 #
edge $-1 $145 0 $145 6.2831853071796004 $56 $146 forward 7 unknown #
vertex $-1 $59 $147 #
ellipse-curve $-1 -1.622748872041214 27.838564858982412 8.2656136050274682 0 0.87461971476443456 0.48480960649040278 1 0 0 1 I I #
face $-1 $-1 $75 $9 $-1 $148 reversed single #
loop $-1 $-1 $115 $60 #
plane-surface $-1 0 29.470377882211007 0 0 -1 0 0 0 -1 forward_v I I I I #
coedge $-1 $149 $113 $116 $150 forward $61 $-1 #
coedge $-1 $119 $63 $64 $107 reversed $38 $-1 #
coedge $-1 $113 $149 $63 $105 reversed $61 $-1 #
edge $-1 $120 -11.209482335799699 $151 11.209482335799699 $104 $152 forward 7 unknown #
coedge $-1 $65 $64 $149 $153 forward $25 $-1 #
edge $-1 $111 -47.473372600482193 $151 47.473372600482193 $103 $154 forward 7 unknown #
coedge $-1 $116 $115 $65 $109 reversed $100 $-1 #
edge $-1 $155 -47.473372600482193 $110 47.473372600482193 $108 $156 forward 7 unknown #
vertex $-1 $67 $157 #
vertex $-1 $122 $158 #
straight-curve $-1 47.473372600482193 0 -11.209482335799699 0 -1 0 I I #
coedge $-1 $102 $104 $68 $114 reversed $61 $-1 #
edge $-1 $117 -29.470377882211007 $120 29.470377882211007 $113 $159 forward 7 unknown #
coedge $-1 $108 $69 $74 $123 forward $100 $-1 #
coedge $-1 $69 $108 $102 $150 reversed $100 $-1 #
vertex $-1 $70 $160 #
straight-curve $-1 0 29.470377882211007 11.209482335799699 -1 0 0 I I #
coedge $-1 $71 $103 $73 $122 reversed $38 $-1 #
vertex $-1 $114 $161 #
straight-curve $-1 0 -29.470377882211007 11.209482335799699 1 0 0 I I #
edge $-1 $76 -11.209482335799699 $111 11.209482335799699 $73 $162 forward 7 unknown #
edge $-1 $77 -11.209482335799699 $110 11.209482335799699 $74 $163 forward 7 unknown #
point $-1 47.473372600482193 -29.470377882211007 11.209482335799699 #
point $-1 47.473372600482193 29.470377882211007 11.209482335799699 #
plane-surface $-1 0 0 11.209482335799699 0 0 1 1 0 0 forward_v I I I I #
coedge $-1 $137 $136 $129 $164 forward $80 $-1 #
coedge $-1 $129 $82 $84 $133 reversed $46 $-1 #
coedge $-1 $82 $128 $127 $164 reversed $46 $-1 #
coedge $-1 $90 $85 $82 $131 forward $91 $-1 #
edge $-1 $134 -15.762062403892962 $165 -12.498436357435768 $130 $166 forward 7 unknown #
coedge $-1 $84 $83 $137 $167 reversed $29 $-1 #
edge $-1 $168 -58.940755764422022 $134 -52.208987245883392 $128 $169 forward 7 unknown #
vertex $-1 $86 $170 #
straight-curve $-1 -0.81137443602060699 26.206751835753813 11.209482335799702 1 0 0 I I #
coedge $-1 $127 $87 $90 $141 reversed $80 $-1 #
coedge $-1 $87 $127 $132 $167 forward $80 $-1 #
vertex $-1 $88 $171 #
straight-curve $-1 -10.551370757627065 29.470377882211007 51.451793023679159 0 0 1 I I #
straight-curve $-1 -10.551370757627065 0.89533327381462868 56.872491868934233 0 0.48480960649040278 -0.87461971476443456 I I #
edge $-1 $165 -7.3058730135446375 $92 10.551370757627065 $136 $172 forward 7 unknown #
point $-1 -10.551370757627065 29.470377882211007 11.209482335799699 #
point $-1 -10.551370757627065 26.206751835753813 11.209482335799699 #
edge $-1 $173 1 $173 0 $95 $-1 forward 7 unknown #
vertex $-1 $96 $174 #
ellipse-curve $-1 -1.622748872041214 25.130839167742796 6.7646968011941633 0 0.87461971476443456 0.48480960649040278 1 0 0 1 I I #
point $-1 -0.62274887204121399 27.838564858982412 8.26561360502747 #
plane-surface $-1 47.473372600482193 0 0 -1 0 0 0 0 1 forward_v I I I I #
coedge $-1 $104 $102 $106 $153 reversed $61 $-1 #
edge $-1 $117 -11.209482335799699 $155 11.209482335799699 $116 $175 forward 7 unknown #
vertex $-1 $153 $176 #
straight-curve $-1 -47.473372600482193 -29.470377882211007 0 0 0 -1 I I #
edge $-1 $151 -29.470377882211007 $155 29.470377882211007 $149 $177 forward 7 unknown #
straight-curve $-1 0 -29.470377882211007 -11.209482335799699 -1 0 0 I I #
vertex $-1 $109 $178 #
straight-curve $-1 0 29.470377882211007 -11.209482335799699 1 0 0 I I #
point $-1 47.473372600482193 29.470377882211007 -11.209482335799699 #
point $-1 47.473372600482193 -29.470377882211007 -11.209482335799699 #
straight-curve $-1 -47.473372600482193 0 11.209482335799699 0 -1 0 I I #
point $-1 -47.473372600482193 29.470377882211007 11.209482335799699 #
point $-1 -47.473372600482193 -29.470377882211007 11.209482335799699 #
straight-curve $-1 47.473372600482193 -29.470377882211007 0 0 0 -1 I I #
straight-curve $-1 47.473372600482193 29.470377882211007 0 0 0 -1 I I #
edge $-1 $165 40.24231068787946 $168 46.130048149423914 $127 $179 forward 7 unknown #
vertex $-1 $141 $180 #
straight-curve $-1 7.3058730135446375 41.968814239646775 11.209482335799699 0 1 0 I I #
edge $-1 $168 -8.1172474495652445 $138 9.7399963216064585 $137 $181 forward 7 unknown #
vertex $-1 $167 $182 #
straight-curve $-1 7.3058730135446375 0.89533327381462868 56.872491868934233 0 -0.48480960649040278 0.87461971476443456 I I #
point $-1 7.3058730135446375 26.206751835753813 11.209482335799699 #
point $-1 -10.551370757627065 29.470377882211007 5.3217448742552449 #
straight-curve $-1 0 29.470377882211007 11.209482335799699 -1 0 0 I I #
vertex $-1 $144 $183 #
point $-1 -0.62274887204121399 25.130839167742796 6.7646968011941633 #
straight-curve $-1 -47.473372600482193 29.470377882211007 0 0 0 -1 I I #
point $-1 -47.473372600482193 -29.470377882211007 -11.209482335799699 #
straight-curve $-1 -47.473372600482193 0 -11.209482335799699 0 1 0 I I #
point $-1 -47.473372600482193 29.470377882211007 -11.209482335799699 #
straight-curve $-1 7.3058730135446375 29.470377882211007 51.451793023679159 0 0 -1 I I #
point $-1 7.3058730135446375 29.470377882211007 11.209482335799699 #
straight-curve $-1 -0.81137443602060699 29.470377882211007 5.3217448742552413 -1 0 0 I I #
point $-1 7.3058730135446375 29.470377882211007 5.3217448742552449 #
point $-1 -1.622748872041214 24.25621945297836 6.2798871947037602 #
End-of-ACIS-data 