500 0 18 0           
7 Unknown 11 ACIS 5.0 NT 24 Fri Mar 26 14:47:55 1999 
-1 9.9999999999999995e-007 1e-010 
body $-1 $18 $-1 $19 #
body $-1 $20 $-1 $21 #
body $-1 $22 $-1 $23 #
body $-1 $24 $-1 $25 #
body $-1 $26 $-1 $27 #
body $-1 $28 $-1 $29 #
body $-1 $30 $-1 $31 #
body $-1 $32 $-1 $33 #
body $-1 $34 $-1 $35 #
body $-1 $36 $-1 $37 #
body $-1 $38 $-1 $39 #
body $-1 $40 $-1 $41 #
body $-1 $42 $-1 $43 #
body $-1 $44 $-1 $45 #
body $-1 $46 $-1 $47 #
body $-1 $48 $-1 $49 #
body $-1 $50 $-1 $51 #
body $-1 $52 $-1 $53 #
lump $-1 $-1 $54 $0 #
transform $-1 1 0 0 0 1 0 0 0 1 69.573656422620317 32.163510467539069 9.8792342128236861 1 rotate no_reflect no_shear #
lump $-1 $-1 $55 $1 #
transform $-1 1 0 0 0 1 0 0 0 1 69.573656422620317 32.163510467539069 9.8792342128236861 1 rotate no_reflect no_shear #
lump $-1 $-1 $56 $2 #
transform $-1 1 0 0 0 1 0 0 0 1 69.573656422620317 32.163510467539069 9.8792342128236861 1 rotate no_reflect no_shear #
lump $-1 $-1 $57 $3 #
transform $-1 1 0 0 0 1 0 0 0 1 69.573656422620317 32.163510467539069 9.8792342128236861 1 rotate no_reflect no_shear #
lump $-1 $-1 $58 $4 #
transform $-1 1 0 0 0 1 0 0 0 1 69.573656422620317 32.163510467539069 9.8792342128236861 1 rotate no_reflect no_shear #
lump $-1 $-1 $59 $5 #
transform $-1 1 0 0 0 1 0 0 0 1 69.573656422620317 32.163510467539069 9.8792342128236861 1 rotate no_reflect no_shear #
lump $-1 $-1 $60 $6 #
transform $-1 1 0 0 0 1 0 0 0 1 69.573656422620317 32.163510467539069 9.8792342128236861 1 rotate no_reflect no_shear #
lump $-1 $-1 $61 $7 #
transform $-1 1 0 0 0 1 0 0 0 1 69.573656422620317 32.163510467539069 9.8792342128236861 1 rotate no_reflect no_shear #
lump $-1 $-1 $62 $8 #
transform $-1 1 0 0 0 1 0 0 0 1 69.573656422620317 32.163510467539069 9.8792342128236861 1 rotate no_reflect no_shear #
lump $-1 $-1 $63 $9 #
transform $-1 1 0 0 0 1 0 0 0 1 69.573656422620317 32.163510467539069 9.8792342128236861 1 rotate no_reflect no_shear #
lump $-1 $-1 $64 $10 #
transform $-1 1 0 0 0 1 0 0 0 1 69.573656422620317 32.163510467539069 9.8792342128236861 1 rotate no_reflect no_shear #
lump $-1 $-1 $65 $11 #
transform $-1 1 0 0 0 1 0 0 0 1 69.573656422620317 32.163510467539069 9.8792342128236861 1 rotate no_reflect no_shear #
lump $-1 $-1 $66 $12 #
transform $-1 1 0 0 0 1 0 0 0 1 69.573656422620317 32.163510467539069 9.8792342128236861 1 rotate no_reflect no_shear #
lump $-1 $-1 $67 $13 #
transform $-1 1 0 0 0 1 0 0 0 1 69.573656422620317 32.163510467539069 9.8792342128236861 1 rotate no_reflect no_shear #
lump $-1 $-1 $68 $14 #
transform $-1 1 0 0 0 1 0 0 0 1 69.573656422620317 32.163510467539069 9.8792342128236861 1 rotate no_reflect no_shear #
lump $-1 $-1 $69 $15 #
transform $-1 1 0 0 0 1 0 0 0 1 69.573656422620317 32.163510467539069 9.8792342128236861 1 rotate no_reflect no_shear #
lump $-1 $-1 $70 $16 #
transform $-1 1 0 0 0 1 0 0 0 1 69.573656422620317 32.163510467539069 9.8792342128236861 1 rotate no_reflect no_shear #
lump $-1 $-1 $71 $17 #
transform $-1 1 0 0 0 1 0 0 0 1 69.573656422620317 32.163510467539069 9.8792342128236861 1 rotate no_reflect no_shear #
shell $-1 $-1 $-1 $72 $-1 $18 #
shell $-1 $-1 $-1 $73 $-1 $20 #
shell $-1 $-1 $-1 $74 $-1 $22 #
shell $-1 $-1 $-1 $75 $-1 $24 #
shell $-1 $-1 $-1 $76 $-1 $26 #
shell $-1 $-1 $-1 $77 $-1 $28 #
shell $-1 $-1 $-1 $78 $-1 $30 #
shell $-1 $-1 $-1 $79 $-1 $32 #
shell $-1 $-1 $-1 $80 $-1 $34 #
shell $-1 $-1 $-1 $81 $-1 $36 #
shell $-1 $-1 $-1 $82 $-1 $38 #
shell $-1 $-1 $-1 $83 $-1 $40 #
shell $-1 $-1 $-1 $84 $-1 $42 #
shell $-1 $-1 $-1 $85 $-1 $44 #
shell $-1 $-1 $-1 $86 $-1 $46 #
shell $-1 $-1 $-1 $87 $-1 $48 #
shell $-1 $-1 $-1 $88 $-1 $50 #
shell $-1 $-1 $-1 $89 $-1 $52 #
face $-1 $90 $91 $54 $-1 $92 forward single #
face $-1 $93 $94 $55 $-1 $95 reversed single #
face $-1 $96 $97 $56 $-1 $98 reversed single #
face $-1 $99 $100 $57 $-1 $101 forward single #
face $-1 $102 $103 $58 $-1 $104 forward single #
face $-1 $105 $106 $59 $-1 $107 forward single #
face $-1 $108 $109 $60 $-1 $110 reversed single #
face $-1 $111 $112 $61 $-1 $113 forward single #
face $-1 $114 $115 $62 $-1 $116 forward single #
face $-1 $117 $118 $63 $-1 $119 forward single #
face $-1 $120 $121 $64 $-1 $122 reversed single #
face $-1 $123 $124 $65 $-1 $125 forward single #
face $-1 $126 $127 $66 $-1 $128 forward single #
face $-1 $129 $130 $67 $-1 $131 forward single #
face $-1 $132 $133 $68 $-1 $134 reversed single #
face $-1 $135 $136 $69 $-1 $137 forward single #
face $-1 $138 $139 $70 $-1 $140 forward single #
face $-1 $141 $142 $71 $-1 $143 forward single #
face $-1 $144 $145 $54 $-1 $146 reversed single #
loop $-1 $-1 $147 $72 #
plane-surface $-1 0 0 9.8792342128236861 0 0 1 1 0 0 forward_v I I I I #
face $-1 $148 $149 $55 $-1 $150 reversed single #
loop $-1 $-1 $151 $73 #
plane-surface $-1 -63.31135195182712 0 6.7397198887130525 0 0 1 1 0 0 forward_v I I I I #
face $-1 $152 $153 $56 $-1 $154 reversed single #
loop $-1 $-1 $155 $74 #
plane-surface $-1 -49.303855065905992 -6.5494564237719715 58.05741013190935 0 0.79863551827123203 0.60181501223851219 1 0 0 forward_v I I I I #
face $-1 $156 $157 $57 $-1 $158 forward single #
loop $-1 $159 $160 $75 #
cone-surface $-1 -53.95097051498275 30.560138541836576 7.980492814581992 0 -0.79863551827123203 -0.60181501223851219 0.5 0 0 1 I I 0 1 0.5 forward I I I I #
face $-1 $161 $162 $58 $-1 $163 forward single #
loop $-1 $164 $165 $76 #
cone-surface $-1 -49.303855065905992 30.560138541836576 7.980492814581992 0 -0.79863551827123203 -0.60181501223851219 0.5 0 0 1 I I 0 1 0.5 forward I I I I #
face $-1 $166 $167 $59 $-1 $168 forward single #
loop $-1 $169 $170 $77 #
cone-surface $-1 -44.656739616829242 30.560138541836576 7.980492814581992 0 -0.79863551827123203 -0.60181501223851219 0.5 0 0 1 I I 0 1 0.5 forward I I I I #
face $-1 $171 $172 $60 $-1 $173 reversed single #
loop $-1 $-1 $174 $78 #
plane-surface $-1 6.2623044707932065 104.57852988643602 141.79835191482391 1 0 0 0 -0.79863551827123203 -0.60181501223851219 forward_v I I I I #
face $-1 $175 $176 $61 $-1 $177 forward single #
loop $-1 $178 $179 $79 #
cone-surface $-1 9.3603814368443778 30.560138541836576 7.980492814581992 0 -0.79863551827123203 -0.60181501223851219 0.5 0 0 1 I I 0 1 0.5 forward I I I I #
face $-1 $180 $181 $62 $-1 $182 forward single #
loop $-1 $183 $184 $80 #
cone-surface $-1 14.007496885921128 30.560138541836576 7.980492814581992 0 -0.79863551827123203 -0.60181501223851219 0.5 0 0 1 I I 0 1 0.5 forward I I I I #
face $-1 $185 $186 $63 $-1 $187 forward single #
loop $-1 $188 $189 $81 #
cone-surface $-1 18.654612334997879 30.560138541836576 7.980492814581992 0 -0.79863551827123203 -0.60181501223851219 0.5 0 0 1 I I 0 1 0.5 forward I I I I #
face $-1 $190 $191 $64 $-1 $192 reversed single #
loop $-1 $-1 $193 $82 #
plane-surface $-1 -41.558662650778068 -143.29149677774708 90.424508211493389 -1 0 0 0 -0.79863551827123203 0.60181501223851219 forward_v I I I I #
face $-1 $194 $195 $65 $-1 $196 forward single #
loop $-1 $197 $198 $83 #
cone-surface $-1 -53.95097051498275 -30.560138541836576 7.9804928145819956 0 0.79863551827123203 -0.60181501223851219 0.5 0 0 1 I I 0 1 0.5 forward I I I I #
face $-1 $199 $200 $66 $-1 $201 forward single #
loop $-1 $202 $203 $84 #
cone-surface $-1 -49.303855065905992 -30.560138541836576 7.9804928145819956 0 0.79863551827123203 -0.60181501223851219 0.5 0 0 1 I I 0 1 0.5 forward I I I I #
face $-1 $204 $205 $67 $-1 $206 forward single #
loop $-1 $207 $208 $85 #
cone-surface $-1 -44.656739616829242 -30.560138541836576 7.9804928145819956 0 0.79863551827123203 -0.60181501223851219 0.5 0 0 1 I I 0 1 0.5 forward I I I I #
face $-1 $209 $210 $68 $-1 $211 reversed single #
loop $-1 $-1 $212 $86 #
plane-surface $-1 21.752689301049049 -143.29149677774708 90.424508211493389 -1 0 0 0 -0.79863551827123203 0.60181501223851219 forward_v I I I I #
face $-1 $213 $214 $69 $-1 $215 forward single #
loop $-1 $216 $217 $87 #
cone-surface $-1 9.3603814368443778 -30.560138541836576 7.9804928145819956 0 0.79863551827123203 -0.60181501223851219 0.5 0 0 1 I I 0 1 0.5 forward I I I I #
face $-1 $218 $219 $70 $-1 $220 forward single #
loop $-1 $221 $222 $88 #
cone-surface $-1 14.007496885921128 -30.560138541836576 7.9804928145819956 0 0.79863551827123203 -0.60181501223851219 0.5 0 0 1 I I 0 1 0.5 forward I I I I #
face $-1 $223 $224 $71 $-1 $225 forward single #
loop $-1 $226 $227 $89 #
cone-surface $-1 18.654612334997879 -30.560138541836576 7.9804928145819956 0 0.79863551827123203 -0.60181501223851219 0.5 0 0 1 I I 0 1 0.5 forward I I I I #
face $-1 $228 $229 $54 $-1 $230 reversed single #
loop $-1 $-1 $231 $90 #
plane-surface $-1 0 0 -9.8792342128236861 0 0 1 1 0 0 forward_v I I I I #
coedge $-1 $232 $233 $234 $235 forward $91 $-1 #
face $-1 $236 $237 $55 $-1 $238 reversed single #
loop $-1 $-1 $239 $93 #
plane-surface $-1 -57.049047481033924 0 8.3094770507683684 -1 0 0 0 0 1 forward_v I I I I #
coedge $-1 $240 $241 $239 $242 forward $94 $-1 #
face $-1 $243 $244 $56 $-1 $245 forward single #
loop $-1 $-1 $246 $96 #
plane-surface $-1 -41.558662650778068 104.57852988643602 141.79835191482391 -1 0 0 0 0.79863551827123203 0.60181501223851219 forward_v I I I I #
coedge $-1 $247 $248 $249 $250 reversed $97 $-1 #
face $-1 $-1 $251 $57 $-1 $252 forward single #
loop $-1 $253 $254 $99 #
cone-surface $-1 -53.95097051498275 29.961161903133153 7.529131555403108 0 -0.79863551827123203 -0.60181501223851219 0.25 0 0 1 I I -0.70710678118654746 0.70710678118654746 0.25 forward I I I I #
loop $-1 $-1 $255 $75 #
coedge $-1 $160 $160 $256 $257 reversed $100 $-1 #
face $-1 $-1 $258 $58 $-1 $259 forward single #
loop $-1 $260 $261 $102 #
cone-surface $-1 -49.303855065905992 29.961161903133153 7.529131555403108 0 -0.79863551827123203 -0.60181501223851219 0.25 0 0 1 I I -0.70710678118654746 0.70710678118654746 0.25 forward I I I I #
loop $-1 $-1 $262 $76 #
coedge $-1 $165 $165 $263 $264 reversed $103 $-1 #
face $-1 $-1 $265 $59 $-1 $266 forward single #
loop $-1 $267 $268 $105 #
cone-surface $-1 -44.656739616829242 29.961161903133153 7.529131555403108 0 -0.79863551827123203 -0.60181501223851219 0.25 0 0 1 I I -0.70710678118654746 0.70710678118654746 0.25 forward I I I I #
loop $-1 $-1 $269 $77 #
coedge $-1 $170 $170 $270 $271 reversed $106 $-1 #
face $-1 $272 $273 $60 $-1 $274 reversed single #
loop $-1 $-1 $275 $108 #
plane-surface $-1 14.007496885921128 -6.5494564237719715 58.05741013190935 0 0.79863551827123203 0.60181501223851219 1 0 0 forward_v I I I I #
coedge $-1 $276 $277 $278 $279 reversed $109 $-1 #
face $-1 $-1 $280 $61 $-1 $281 forward single #
loop $-1 $282 $283 $111 #
cone-surface $-1 9.3603814368443778 29.961161903133153 7.529131555403108 0 -0.79863551827123203 -0.60181501223851219 0.25 0 0 1 I I -0.70710678118654746 0.70710678118654746 0.25 forward I I I I #
loop $-1 $-1 $284 $79 #
coedge $-1 $179 $179 $285 $286 reversed $112 $-1 #
face $-1 $-1 $287 $62 $-1 $288 forward single #
loop $-1 $289 $290 $114 #
cone-surface $-1 14.007496885921128 29.961161903133153 7.529131555403108 0 -0.79863551827123203 -0.60181501223851219 0.25 0 0 1 I I -0.70710678118654746 0.70710678118654746 0.25 forward I I I I #
loop $-1 $-1 $291 $80 #
coedge $-1 $184 $184 $292 $293 reversed $115 $-1 #
face $-1 $-1 $294 $63 $-1 $295 forward single #
loop $-1 $296 $297 $117 #
cone-surface $-1 18.654612334997879 29.961161903133153 7.529131555403108 0 -0.79863551827123203 -0.60181501223851219 0.25 0 0 1 I I -0.70710678118654746 0.70710678118654746 0.25 forward I I I I #
loop $-1 $-1 $298 $81 #
coedge $-1 $189 $189 $299 $300 reversed $118 $-1 #
face $-1 $301 $302 $64 $-1 $303 forward single #
loop $-1 $-1 $304 $120 #
plane-surface $-1 -49.303855065905992 -32.163510467539098 6.6835664285788283 0 -0.79863551827123203 0.60181501223851219 1 0 0 forward_v I I I I #
coedge $-1 $305 $306 $307 $308 reversed $121 $-1 #
face $-1 $-1 $309 $65 $-1 $310 forward single #
loop $-1 $311 $312 $123 #
cone-surface $-1 -53.95097051498275 -29.961161903133153 7.5291315554031115 0 0.79863551827123203 -0.60181501223851219 0.25 0 0 1 I I -0.70710678118654746 0.70710678118654746 0.25 forward I I I I #
loop $-1 $-1 $313 $83 #
coedge $-1 $198 $198 $314 $315 reversed $124 $-1 #
face $-1 $-1 $316 $66 $-1 $317 forward single #
loop $-1 $318 $319 $126 #
cone-surface $-1 -49.303855065905992 -29.961161903133153 7.5291315554031115 0 0.79863551827123203 -0.60181501223851219 0.25 0 0 1 I I -0.70710678118654746 0.70710678118654746 0.25 forward I I I I #
loop $-1 $-1 $320 $84 #
coedge $-1 $203 $203 $321 $322 reversed $127 $-1 #
face $-1 $-1 $323 $67 $-1 $324 forward single #
loop $-1 $325 $326 $129 #
cone-surface $-1 -44.656739616829242 -29.961161903133153 7.5291315554031115 0 0.79863551827123203 -0.60181501223851219 0.25 0 0 1 I I -0.70710678118654746 0.70710678118654746 0.25 forward I I I I #
loop $-1 $-1 $327 $85 #
coedge $-1 $208 $208 $328 $329 reversed $130 $-1 #
face $-1 $330 $331 $68 $-1 $332 reversed single #
loop $-1 $-1 $333 $132 #
plane-surface $-1 14.007496885921128 -32.163510467539098 6.6835664285788283 0 -0.79863551827123203 0.60181501223851219 1 0 0 forward_v I I I I #
coedge $-1 $334 $335 $336 $337 reversed $133 $-1 #
face $-1 $-1 $338 $69 $-1 $339 forward single #
loop $-1 $340 $341 $135 #
cone-surface $-1 9.3603814368443778 -29.961161903133153 7.5291315554031115 0 0.79863551827123203 -0.60181501223851219 0.25 0 0 1 I I -0.70710678118654746 0.70710678118654746 0.25 forward I I I I #
loop $-1 $-1 $342 $87 #
coedge $-1 $217 $217 $343 $344 reversed $136 $-1 #
face $-1 $-1 $345 $70 $-1 $346 forward single #
loop $-1 $347 $348 $138 #
cone-surface $-1 14.007496885921128 -29.961161903133153 7.5291315554031115 0 0.79863551827123203 -0.60181501223851219 0.25 0 0 1 I I -0.70710678118654746 0.70710678118654746 0.25 forward I I I I #
loop $-1 $-1 $349 $88 #
coedge $-1 $222 $222 $350 $351 reversed $139 $-1 #
face $-1 $-1 $352 $71 $-1 $353 forward single #
loop $-1 $354 $355 $141 #
cone-surface $-1 18.654612334997879 -29.961161903133153 7.5291315554031115 0 0.79863551827123203 -0.60181501223851219 0.25 0 0 1 I I -0.70710678118654746 0.70710678118654746 0.25 forward I I I I #
loop $-1 $-1 $356 $89 #
coedge $-1 $227 $227 $357 $358 reversed $142 $-1 #
face $-1 $359 $360 $54 $-1 $361 reversed single #
loop $-1 $-1 $362 $144 #
plane-surface $-1 0 -32.163510467539069 0 0 1 0 0 0 1 forward_v I I I I #
coedge $-1 $363 $364 $365 $366 forward $145 $-1 #
coedge $-1 $367 $147 $368 $369 forward $91 $-1 #
coedge $-1 $147 $367 $370 $371 forward $91 $-1 #
coedge $-1 $372 $373 $147 $235 reversed $374 $-1 #
edge $-1 $375 -32.163510467539069 $376 32.163510467539069 $234 $377 forward 7 unknown #
face $-1 $378 $379 $55 $-1 $380 reversed single #
loop $-1 $-1 $381 $148 #
plane-surface $-1 0 32.163510467539069 0 0 -1 0 0 0 -1 forward_v I I I I #
coedge $-1 $382 $383 $151 $242 reversed $149 $-1 #
coedge $-1 $384 $151 $385 $386 reversed $94 $-1 #
coedge $-1 $151 $384 $387 $388 reversed $94 $-1 #
edge $-1 $389 -32.163510467539069 $390 32.163510467539069 $239 $391 forward 7 unknown #
face $-1 $392 $393 $56 $-1 $394 reversed single #
loop $-1 $-1 $249 $152 #
plane-surface $-1 0 0 9.8792342128236861 0 0 1 1 0 0 forward_v I I I I #
coedge $-1 $395 $396 $397 $398 reversed $153 $-1 #
coedge $-1 $399 $155 $400 $401 reversed $97 $-1 #
coedge $-1 $155 $399 $395 $402 forward $97 $-1 #
coedge $-1 $397 $403 $155 $250 forward $244 $-1 #
edge $-1 $404 -32.397119948080928 $405 -16.906735117825072 $249 $406 forward 7 unknown #
loop $-1 $-1 $256 $156 #
plane-surface $-1 -49.303855065905992 -6.5494564237719715 58.05741013190935 0 0.79863551827123203 0.60181501223851219 1 0 0 forward_v I I I I #
loop $-1 $-1 $407 $99 #
coedge $-1 $254 $254 $255 $408 reversed $157 $-1 #
coedge $-1 $255 $255 $254 $408 forward $159 $-1 #
coedge $-1 $256 $256 $160 $257 forward $251 $-1 #
edge $-1 $409 -1.6001723777748209e-015 $409 6.2831853071795987 $256 $410 forward 7 unknown #
loop $-1 $-1 $263 $161 #
plane-surface $-1 -49.303855065905992 -6.5494564237719715 58.05741013190935 0 0.79863551827123203 0.60181501223851219 1 0 0 forward_v I I I I #
loop $-1 $-1 $411 $102 #
coedge $-1 $261 $261 $262 $412 reversed $162 $-1 #
coedge $-1 $262 $262 $261 $412 forward $164 $-1 #
coedge $-1 $263 $263 $165 $264 forward $258 $-1 #
edge $-1 $413 -1.6001723777748209e-015 $413 6.2831853071795987 $263 $414 forward 7 unknown #
loop $-1 $-1 $270 $166 #
plane-surface $-1 -49.303855065905992 -6.5494564237719715 58.05741013190935 0 0.79863551827123203 0.60181501223851219 1 0 0 forward_v I I I I #
loop $-1 $-1 $415 $105 #
coedge $-1 $268 $268 $269 $416 reversed $167 $-1 #
coedge $-1 $269 $269 $268 $416 forward $169 $-1 #
coedge $-1 $270 $270 $170 $271 forward $265 $-1 #
edge $-1 $417 -1.6001723777748209e-015 $417 6.2831853071795987 $270 $418 forward 7 unknown #
face $-1 $419 $420 $60 $-1 $421 forward single #
loop $-1 $-1 $422 $171 #
plane-surface $-1 21.752689301049049 104.57852988643602 141.79835191482391 -1 0 0 0 0.79863551827123203 0.60181501223851219 forward_v I I I I #
coedge $-1 $423 $424 $425 $426 reversed $172 $-1 #
coedge $-1 $277 $174 $427 $428 reversed $109 $-1 #
coedge $-1 $174 $276 $423 $429 reversed $109 $-1 #
coedge $-1 $425 $430 $174 $279 forward $420 $-1 #
edge $-1 $431 20.125754475678939 $432 22.533862808812643 $278 $433 forward 7 unknown #
loop $-1 $-1 $285 $175 #
plane-surface $-1 14.007496885921128 -6.5494564237719715 58.05741013190935 0 0.79863551827123203 0.60181501223851219 1 0 0 forward_v I I I I #
loop $-1 $-1 $434 $111 #
coedge $-1 $283 $283 $284 $435 reversed $176 $-1 #
coedge $-1 $284 $284 $283 $435 forward $178 $-1 #
coedge $-1 $285 $285 $179 $286 forward $280 $-1 #
edge $-1 $436 -1.6001723777748209e-015 $436 6.2831853071795987 $285 $437 forward 7 unknown #
loop $-1 $-1 $292 $180 #
plane-surface $-1 14.007496885921128 -6.5494564237719715 58.05741013190935 0 0.79863551827123203 0.60181501223851219 1 0 0 forward_v I I I I #
loop $-1 $-1 $438 $114 #
coedge $-1 $290 $290 $291 $439 reversed $181 $-1 #
coedge $-1 $291 $291 $290 $439 forward $183 $-1 #
coedge $-1 $292 $292 $184 $293 forward $287 $-1 #
edge $-1 $440 -1.6001723777748209e-015 $440 6.2831853071795987 $292 $441 forward 7 unknown #
loop $-1 $-1 $299 $185 #
plane-surface $-1 14.007496885921128 -6.5494564237719715 58.05741013190935 0 0.79863551827123203 0.60181501223851219 1 0 0 forward_v I I I I #
loop $-1 $-1 $442 $117 #
coedge $-1 $297 $297 $298 $443 reversed $186 $-1 #
coedge $-1 $298 $298 $297 $443 forward $188 $-1 #
coedge $-1 $299 $299 $189 $300 forward $294 $-1 #
edge $-1 $444 -1.6001723777748209e-015 $444 6.2831853071795987 $299 $445 forward 7 unknown #
face $-1 $446 $447 $64 $-1 $448 forward single #
loop $-1 $-1 $449 $190 #
plane-surface $-1 -57.049047481033924 0 8.3094770507683684 -1 0 0 0 0 1 forward_v I I I I #
coedge $-1 $450 $451 $452 $453 reversed $191 $-1 #
coedge $-1 $306 $193 $454 $455 reversed $121 $-1 #
coedge $-1 $193 $305 $450 $456 reversed $121 $-1 #
coedge $-1 $452 $457 $193 $308 forward $447 $-1 #
edge $-1 $458 39.482237921334473 $459 41.890346254468184 $307 $460 forward 7 unknown #
loop $-1 $-1 $314 $194 #
plane-surface $-1 -49.303855065905992 -32.163510467539098 6.6835664285788283 0 -0.79863551827123203 0.60181501223851219 1 0 0 forward_v I I I I #
loop $-1 $-1 $461 $123 #
coedge $-1 $312 $312 $313 $462 reversed $195 $-1 #
coedge $-1 $313 $313 $312 $462 forward $197 $-1 #
coedge $-1 $314 $314 $198 $315 forward $309 $-1 #
edge $-1 $463 -1.2774866662979251e-015 $463 6.2831853071795996 $314 $464 forward 7 unknown #
loop $-1 $-1 $321 $199 #
plane-surface $-1 -49.303855065905992 -32.163510467539098 6.6835664285788283 0 -0.79863551827123203 0.60181501223851219 1 0 0 forward_v I I I I #
loop $-1 $-1 $465 $126 #
coedge $-1 $319 $319 $320 $466 reversed $200 $-1 #
coedge $-1 $320 $320 $319 $466 forward $202 $-1 #
coedge $-1 $321 $321 $203 $322 forward $316 $-1 #
edge $-1 $467 -1.2774866662979251e-015 $467 6.2831853071795996 $321 $468 forward 7 unknown #
loop $-1 $-1 $328 $204 #
plane-surface $-1 -49.303855065905992 -32.163510467539098 6.6835664285788283 0 -0.79863551827123203 0.60181501223851219 1 0 0 forward_v I I I I #
loop $-1 $-1 $469 $129 #
coedge $-1 $326 $326 $327 $470 reversed $205 $-1 #
coedge $-1 $327 $327 $326 $470 forward $207 $-1 #
coedge $-1 $328 $328 $208 $329 forward $323 $-1 #
edge $-1 $471 -1.2774866662979251e-015 $471 6.2831853071795996 $328 $472 forward 7 unknown #
face $-1 $473 $474 $68 $-1 $475 reversed single #
loop $-1 $-1 $476 $209 #
plane-surface $-1 6.2623044707932065 -143.29149677774708 90.424508211493389 1 0 0 0 0.79863551827123203 -0.60181501223851219 forward_v I I I I #
coedge $-1 $477 $478 $479 $480 reversed $210 $-1 #
coedge $-1 $335 $212 $481 $482 reversed $133 $-1 #
coedge $-1 $212 $334 $477 $483 reversed $133 $-1 #
coedge $-1 $479 $484 $212 $337 forward $485 $-1 #
edge $-1 $486 39.482237921334473 $487 41.890346254468184 $336 $488 forward 7 unknown #
loop $-1 $-1 $343 $213 #
plane-surface $-1 14.007496885921128 -32.163510467539098 6.6835664285788283 0 -0.79863551827123203 0.60181501223851219 1 0 0 forward_v I I I I #
loop $-1 $-1 $489 $135 #
coedge $-1 $341 $341 $342 $490 reversed $214 $-1 #
coedge $-1 $342 $342 $341 $490 forward $216 $-1 #
coedge $-1 $343 $343 $217 $344 forward $338 $-1 #
edge $-1 $491 -1.2774866662979251e-015 $491 6.2831853071795996 $343 $492 forward 7 unknown #
loop $-1 $-1 $350 $218 #
plane-surface $-1 14.007496885921128 -32.163510467539098 6.6835664285788283 0 -0.79863551827123203 0.60181501223851219 1 0 0 forward_v I I I I #
loop $-1 $-1 $493 $138 #
coedge $-1 $348 $348 $349 $494 reversed $219 $-1 #
coedge $-1 $349 $349 $348 $494 forward $221 $-1 #
coedge $-1 $350 $350 $222 $351 forward $345 $-1 #
edge $-1 $495 -1.2774866662979251e-015 $495 6.2831853071795996 $350 $496 forward 7 unknown #
loop $-1 $-1 $357 $223 #
plane-surface $-1 14.007496885921128 -32.163510467539098 6.6835664285788283 0 -0.79863551827123203 0.60181501223851219 1 0 0 forward_v I I I I #
loop $-1 $-1 $497 $141 #
coedge $-1 $355 $355 $356 $498 reversed $224 $-1 #
coedge $-1 $356 $356 $355 $498 forward $226 $-1 #
coedge $-1 $357 $357 $227 $358 forward $352 $-1 #
edge $-1 $499 -1.2774866662979251e-015 $499 6.2831853071795996 $357 $500 forward 7 unknown #
face $-1 $501 $502 $54 $-1 $503 reversed single #
loop $-1 $-1 $504 $228 #
plane-surface $-1 -69.573656422620317 0 0 1 0 0 0 0 -1 forward_v I I I I #
coedge $-1 $505 $370 $506 $507 forward $229 $-1 #
coedge $-1 $508 $231 $505 $509 forward $145 $-1 #
coedge $-1 $231 $508 $510 $511 forward $145 $-1 #
coedge $-1 $373 $372 $231 $366 reversed $374 $-1 #
edge $-1 $512 -32.163510467539069 $513 32.163510467539069 $365 $514 forward 7 unknown #
coedge $-1 $233 $232 $515 $516 forward $91 $-1 #
coedge $-1 $517 $518 $232 $369 reversed $502 $-1 #
edge $-1 $376 -69.573656422620317 $519 69.573656422620317 $368 $520 forward 7 unknown #
coedge $-1 $362 $521 $233 $371 reversed $229 $-1 #
edge $-1 $522 -69.573656422620317 $375 69.573656422620317 $370 $523 forward 7 unknown #
coedge $-1 $365 $234 $521 $524 forward $374 $-1 #
coedge $-1 $234 $365 $517 $525 reversed $374 $-1 #
loop $-1 $-1 $372 $501 #
vertex $-1 $235 $526 #
vertex $-1 $235 $527 #
straight-curve $-1 69.573656422620317 0 9.8792342128236861 0 1 0 I I #
face $-1 $528 $529 $55 $-1 $530 forward single #
loop $-1 $-1 $531 $236 #
plane-surface $-1 -69.573656422620317 0 0 1 0 0 0 0 -1 forward_v I I I I #
coedge $-1 $387 $532 $382 $533 forward $237 $-1 #
coedge $-1 $534 $239 $381 $533 reversed $149 $-1 #
coedge $-1 $239 $534 $535 $536 reversed $149 $-1 #
coedge $-1 $241 $240 $531 $537 reversed $94 $-1 #
coedge $-1 $535 $538 $240 $386 forward $539 $-1 #
edge $-1 $540 -37.917980446706757 $390 -25.393371505120363 $385 $541 forward 7 unknown #
coedge $-1 $542 $381 $241 $388 forward $237 $-1 #
edge $-1 $389 25.393371505120363 $543 37.917980446706757 $387 $544 forward 7 unknown #
vertex $-1 $388 $545 #
vertex $-1 $386 $546 #
straight-curve $-1 -57.049047481033924 0 6.7397198887130525 0 -1 0 I I #
face $-1 $-1 $547 $56 $-1 $548 forward single #
loop $-1 $-1 $549 $243 #
plane-surface $-1 0 32.163510467539069 0 0 -1 0 0 0 -1 forward_v I I I I #
coedge $-1 $396 $246 $248 $402 reversed $153 $-1 #
coedge $-1 $246 $395 $549 $550 reversed $153 $-1 #
coedge $-1 $551 $249 $246 $398 forward $244 $-1 #
edge $-1 $405 -22.533862808812643 $552 -20.125754475678939 $397 $553 forward 7 unknown #
coedge $-1 $248 $247 $554 $555 reversed $97 $-1 #
coedge $-1 $556 $557 $247 $401 forward $547 $-1 #
edge $-1 $558 -42.4910071765743 $404 -38.489597633504751 $400 $559 forward 7 unknown #
edge $-1 $560 -64.327020935078068 $405 -60.325611392008518 $395 $561 forward 7 unknown #
coedge $-1 $249 $551 $556 $562 forward $244 $-1 #
vertex $-1 $401 $563 #
vertex $-1 $250 $564 #
straight-curve $-1 -24.651927532952996 29.755402134405362 9.8792342128236896 1 0 0 I I #
coedge $-1 $407 $407 $-1 $565 reversed $253 $-1 #
edge $-1 $566 0 $566 6.2831853071796004 $254 $567 forward 7 unknown #
vertex $-1 $257 $568 #
ellipse-curve $-1 -53.95097051498275 30.959456300972224 8.2814003207012714 0 0.79863551827123203 0.60181501223851219 0.5 0 0 1 I I #
coedge $-1 $411 $411 $-1 $569 reversed $260 $-1 #
edge $-1 $570 0 $570 6.2831853071796004 $261 $571 forward 7 unknown #
vertex $-1 $264 $572 #
ellipse-curve $-1 -49.303855065905992 30.959456300972224 8.2814003207012714 0 0.79863551827123203 0.60181501223851219 0.5 0 0 1 I I #
coedge $-1 $415 $415 $-1 $573 reversed $267 $-1 #
edge $-1 $574 0 $574 6.2831853071796004 $268 $575 forward 7 unknown #
vertex $-1 $271 $576 #
ellipse-curve $-1 -44.656739616829242 30.959456300972224 8.2814003207012714 0 0.79863551827123203 0.60181501223851219 0.5 0 0 1 I I #
face $-1 $-1 $577 $60 $-1 $578 reversed single #
loop $-1 $-1 $278 $272 #
plane-surface $-1 0 0 9.8792342128236861 0 0 1 1 0 0 forward_v I I I I #
coedge $-1 $579 $580 $581 $582 reversed $273 $-1 #
coedge $-1 $583 $275 $277 $429 forward $172 $-1 #
coedge $-1 $275 $583 $579 $584 forward $172 $-1 #
coedge $-1 $581 $278 $275 $426 forward $420 $-1 #
edge $-1 $432 -0.74144397216735758 $585 14.748940858088485 $425 $586 forward 7 unknown #
coedge $-1 $587 $588 $276 $428 forward $577 $-1 #
edge $-1 $589 -64.21560952883307 $431 -61.019941744588266 $427 $590 forward 7 unknown #
edge $-1 $432 60.325611392008518 $589 64.327020935078068 $277 $591 forward 7 unknown #
coedge $-1 $278 $581 $587 $592 forward $420 $-1 #
vertex $-1 $279 $593 #
vertex $-1 $279 $594 #
straight-curve $-1 6.2623044707932065 52.289264943218008 9.8792342128236896 0 -1 0 I I #
coedge $-1 $434 $434 $-1 $595 reversed $282 $-1 #
edge $-1 $596 0 $596 6.2831853071796004 $283 $597 forward 7 unknown #
vertex $-1 $286 $598 #
ellipse-curve $-1 9.3603814368443778 30.959456300972224 8.2814003207012714 0 0.79863551827123203 0.60181501223851219 0.5 0 0 1 I I #
coedge $-1 $438 $438 $-1 $599 reversed $289 $-1 #
edge $-1 $600 0 $600 6.2831853071796004 $290 $601 forward 7 unknown #
vertex $-1 $293 $602 #
ellipse-curve $-1 14.007496885921128 30.959456300972224 8.2814003207012714 0 0.79863551827123203 0.60181501223851219 0.5 0 0 1 I I #
coedge $-1 $442 $442 $-1 $603 reversed $296 $-1 #
edge $-1 $604 0 $604 6.2831853071796004 $297 $605 forward 7 unknown #
vertex $-1 $300 $606 #
ellipse-curve $-1 18.654612334997879 30.959456300972224 8.2814003207012714 0 0.79863551827123203 0.60181501223851219 0.5 0 0 1 I I #
face $-1 $-1 $607 $64 $-1 $608 reversed single #
loop $-1 $-1 $452 $301 #
plane-surface $-1 0 0 9.8792342128236861 0 0 1 1 0 0 forward_v I I I I #
coedge $-1 $609 $610 $451 $611 reversed $302 $-1 #
coedge $-1 $612 $304 $306 $456 forward $191 $-1 #
coedge $-1 $304 $612 $449 $611 forward $191 $-1 #
coedge $-1 $613 $307 $304 $453 forward $447 $-1 #
edge $-1 $459 16.906735117825072 $614 32.39711994808092 $452 $615 forward 7 unknown #
coedge $-1 $616 $617 $305 $455 forward $607 $-1 #
edge $-1 $618 -38.528687677167831 $458 -35.333019892923005 $454 $619 forward 7 unknown #
edge $-1 $459 -4.0014095430696166 $618 -4.6896506375148425e-014 $306 $620 forward 7 unknown #
coedge $-1 $307 $613 $616 $621 forward $447 $-1 #
vertex $-1 $455 $622 #
vertex $-1 $308 $623 #
straight-curve $-1 -41.558662650778068 -71.645748388873542 9.8792342128236896 0 1 0 I I #
coedge $-1 $461 $461 $-1 $624 reversed $311 $-1 #
edge $-1 $625 0 $625 6.2831853071796004 $312 $626 forward 7 unknown #
vertex $-1 $315 $627 #
ellipse-curve $-1 -53.95097051498275 -30.959456300972217 8.2814003207012714 0 -0.79863551827123203 0.60181501223851219 0.5 0 0 1 I I #
coedge $-1 $465 $465 $-1 $628 reversed $318 $-1 #
edge $-1 $629 0 $629 6.2831853071796004 $319 $630 forward 7 unknown #
vertex $-1 $322 $631 #
ellipse-curve $-1 -49.303855065905992 -30.959456300972217 8.2814003207012714 0 -0.79863551827123203 0.60181501223851219 0.5 0 0 1 I I #
coedge $-1 $469 $469 $-1 $632 reversed $325 $-1 #
edge $-1 $633 0 $633 6.2831853071796004 $326 $634 forward 7 unknown #
vertex $-1 $329 $635 #
ellipse-curve $-1 -44.656739616829242 -30.959456300972217 8.2814003207012714 0 -0.79863551827123203 0.60181501223851219 0.5 0 0 1 I I #
face $-1 $-1 $485 $68 $-1 $636 forward single #
loop $-1 $-1 $637 $330 #
plane-surface $-1 0 -32.163510467539069 0 0 1 0 0 0 1 forward_v I I I I #
coedge $-1 $638 $639 $640 $641 reversed $331 $-1 #
coedge $-1 $642 $333 $335 $483 forward $210 $-1 #
coedge $-1 $333 $642 $638 $643 forward $210 $-1 #
coedge $-1 $640 $336 $333 $480 forward $485 $-1 #
edge $-1 $487 -14.748940858088485 $644 0.74144397216735758 $479 $645 forward 7 unknown #
coedge $-1 $646 $647 $334 $482 forward $474 $-1 #
edge $-1 $648 -38.528687677167831 $486 -35.333019892923005 $481 $649 forward 7 unknown #
edge $-1 $487 -4.0014095430696166 $648 -4.6896506375148425e-014 $335 $650 forward 7 unknown #
coedge $-1 $336 $640 $646 $651 forward $485 $-1 #
loop $-1 $-1 $640 $473 #
vertex $-1 $482 $652 #
vertex $-1 $337 $653 #
straight-curve $-1 21.752689301049049 -71.645748388873542 9.8792342128236896 0 1 0 I I #
coedge $-1 $489 $489 $-1 $654 reversed $340 $-1 #
edge $-1 $655 0 $655 6.2831853071796004 $341 $656 forward 7 unknown #
vertex $-1 $344 $657 #
ellipse-curve $-1 9.3603814368443778 -30.959456300972217 8.2814003207012714 0 -0.79863551827123203 0.60181501223851219 0.5 0 0 1 I I #
coedge $-1 $493 $493 $-1 $658 reversed $347 $-1 #
edge $-1 $659 0 $659 6.2831853071796004 $348 $660 forward 7 unknown #
vertex $-1 $351 $661 #
ellipse-curve $-1 14.007496885921128 -30.959456300972217 8.2814003207012714 0 -0.79863551827123203 0.60181501223851219 0.5 0 0 1 I I #
coedge $-1 $497 $497 $-1 $662 reversed $354 $-1 #
edge $-1 $663 0 $663 6.2831853071796004 $355 $664 forward 7 unknown #
vertex $-1 $358 $665 #
ellipse-curve $-1 18.654612334997879 -30.959456300972217 8.2814003207012714 0 -0.79863551827123203 0.60181501223851219 0.5 0 0 1 I I #
face $-1 $-1 $374 $54 $-1 $666 reversed single #
loop $-1 $-1 $517 $359 #
plane-surface $-1 0 32.163510467539069 0 0 -1 0 0 0 -1 forward_v I I I I #
coedge $-1 $667 $515 $518 $668 forward $360 $-1 #
coedge $-1 $521 $362 $363 $509 reversed $229 $-1 #
coedge $-1 $515 $667 $362 $507 reversed $360 $-1 #
edge $-1 $522 -9.8792342128236861 $669 9.8792342128236861 $506 $670 forward 7 unknown #
coedge $-1 $364 $363 $667 $671 forward $145 $-1 #
edge $-1 $513 -69.573656422620317 $669 69.573656422620317 $505 $672 forward 7 unknown #
coedge $-1 $518 $517 $364 $511 reversed $502 $-1 #
edge $-1 $673 -69.573656422620317 $512 69.573656422620317 $510 $674 forward 7 unknown #
vertex $-1 $366 $675 #
vertex $-1 $524 $676 #
straight-curve $-1 69.573656422620317 0 -9.8792342128236861 0 -1 0 I I #
coedge $-1 $504 $506 $367 $516 reversed $360 $-1 #
edge $-1 $519 -32.163510467539069 $522 32.163510467539069 $515 $677 forward 7 unknown #
coedge $-1 $510 $368 $373 $525 forward $502 $-1 #
coedge $-1 $368 $510 $504 $668 reversed $502 $-1 #
vertex $-1 $369 $678 #
straight-curve $-1 0 32.163510467539069 9.8792342128236861 -1 0 0 I I #
coedge $-1 $370 $505 $372 $524 reversed $229 $-1 #
vertex $-1 $516 $679 #
straight-curve $-1 0 -32.163510467539069 9.8792342128236861 1 0 0 I I #
edge $-1 $375 -9.8792342128236861 $513 9.8792342128236861 $372 $680 forward 7 unknown #
edge $-1 $376 -9.8792342128236861 $512 9.8792342128236861 $373 $681 forward 7 unknown #
point $-1 69.573656422620317 -32.163510467539069 9.8792342128236861 #
point $-1 69.573656422620317 32.163510467539069 9.8792342128236861 #
face $-1 $-1 $539 $55 $-1 $682 reversed single #
loop $-1 $-1 $683 $378 #
plane-surface $-1 0 0 9.8792342128236861 0 0 1 1 0 0 forward_v I I I I #
coedge $-1 $684 $685 $384 $537 forward $379 $-1 #
coedge $-1 $381 $542 $686 $687 reversed $237 $-1 #
edge $-1 $688 -5.7244956874395001 $389 -2.5849813633288683 $381 $689 forward 7 unknown #
coedge $-1 $383 $382 $683 $690 reversed $149 $-1 #
coedge $-1 $691 $385 $383 $536 forward $539 $-1 #
edge $-1 $390 2.5849813633288683 $692 5.7244956874395001 $535 $693 forward 7 unknown #
edge $-1 $543 -32.163510467539069 $540 32.163510467539069 $531 $694 forward 7 unknown #
coedge $-1 $385 $691 $684 $695 forward $539 $-1 #
loop $-1 $-1 $535 $528 #
vertex $-1 $537 $696 #
straight-curve $-1 -31.65567597591356 -32.163510467539069 6.7397198887130525 1 0 0 I I #
coedge $-1 $532 $387 $685 $697 reversed $237 $-1 #
vertex $-1 $537 $698 #
straight-curve $-1 -31.65567597591356 32.163510467539069 6.7397198887130525 -1 0 0 I I #
point $-1 -57.049047481033924 32.163510467539069 6.7397198887130525 #
point $-1 -57.049047481033924 -32.163510467539069 6.7397198887130525 #
loop $-1 $-1 $400 $392 #
plane-surface $-1 -57.049047481033924 0 8.3094770507683684 -1 0 0 0 0 1 forward_v I I I I #
coedge $-1 $554 $699 $396 $550 forward $393 $-1 #
edge $-1 $552 61.019941744588266 $560 64.21560952883307 $549 $700 forward 7 unknown #
coedge $-1 $403 $397 $699 $701 forward $244 $-1 #
vertex $-1 $701 $702 #
straight-curve $-1 -41.558662650778068 52.289264943218008 9.8792342128236896 0 1 0 I I #
coedge $-1 $703 $549 $399 $555 forward $393 $-1 #
edge $-1 $560 16.906735117825072 $558 32.39711994808092 $554 $704 forward 7 unknown #
coedge $-1 $557 $400 $403 $562 reversed $547 $-1 #
coedge $-1 $400 $556 $703 $705 reversed $547 $-1 #
vertex $-1 $705 $706 #
straight-curve $-1 -57.049047481033924 6.5917844635422931 40.61839396690894 0 -0.60181501223851219 0.79863551827123203 I I #
vertex $-1 $555 $707 #
straight-curve $-1 -41.558662650778068 -6.5494564237719715 58.05741013190935 0 -0.60181501223851219 0.79863551827123203 I I #
edge $-1 $708 -32.163510467539069 $404 -29.755402134405362 $403 $709 forward 7 unknown #
point $-1 -57.049047481033924 29.755402134405362 9.8792342128236861 #
point $-1 -41.558662650778068 29.755402134405365 9.8792342128236896 #
edge $-1 $710 1 $710 0 $407 $-1 forward 7 unknown #
vertex $-1 $408 $711 #
ellipse-curve $-1 -53.95097051498275 30.160820782700959 7.6795853084627357 0 0.79863551827123203 0.60181501223851219 0.5 0 0 1 I I #
point $-1 -53.45097051498275 30.959456300972192 8.2814003207012483 #
edge $-1 $712 1 $712 0 $411 $-1 forward 7 unknown #
vertex $-1 $412 $713 #
ellipse-curve $-1 -49.303855065905992 30.160820782700959 7.6795853084627357 0 0.79863551827123203 0.60181501223851219 0.5 0 0 1 I I #
point $-1 -48.803855065905992 30.959456300972192 8.2814003207012483 #
edge $-1 $714 1 $714 0 $415 $-1 forward 7 unknown #
vertex $-1 $416 $715 #
ellipse-curve $-1 -44.656739616829242 30.160820782700959 7.6795853084627357 0 0.79863551827123203 0.60181501223851219 0.5 0 0 1 I I #
point $-1 -44.156739616829242 30.959456300972192 8.2814003207012483 #
loop $-1 $-1 $427 $419 #
plane-surface $-1 0 32.163510467539069 0 0 -1 0 0 0 -1 forward_v I I I I #
coedge $-1 $580 $422 $424 $584 reversed $273 $-1 #
coedge $-1 $422 $579 $716 $717 reversed $273 $-1 #
coedge $-1 $430 $425 $422 $582 forward $420 $-1 #
edge $-1 $585 -22.533862808812643 $718 -20.125754475678939 $581 $719 forward 7 unknown #
coedge $-1 $424 $423 $588 $720 reversed $172 $-1 #
edge $-1 $721 -64.327020935078068 $585 -60.325611392008518 $579 $722 forward 7 unknown #
vertex $-1 $426 $723 #
straight-curve $-1 7.0037484429605641 29.755402134405362 9.8792342128236896 1 0 0 I I #
coedge $-1 $716 $427 $430 $592 reversed $577 $-1 #
coedge $-1 $427 $716 $583 $720 forward $577 $-1 #
vertex $-1 $428 $724 #
straight-curve $-1 6.2623044707932065 32.163510467539069 70.899175957411956 0 0 1 I I #
straight-curve $-1 6.2623044707932065 -6.5494564237719715 58.05741013190935 0 0.60181501223851219 -0.79863551827123203 I I #
edge $-1 $718 -21.752689301049049 $431 -6.2623044707932065 $587 $725 forward 7 unknown #
point $-1 6.2623044707932065 32.163510467539069 9.8792342128236861 #
point $-1 6.2623044707932065 29.755402134405365 9.8792342128236896 #
edge $-1 $726 1 $726 0 $434 $-1 forward 7 unknown #
vertex $-1 $435 $727 #
ellipse-curve $-1 9.3603814368443778 30.160820782700959 7.6795853084627357 0 0.79863551827123203 0.60181501223851219 0.5 0 0 1 I I #
point $-1 9.8603814368443778 30.959456300972192 8.2814003207012483 #
edge $-1 $728 1 $728 0 $438 $-1 forward 7 unknown #
vertex $-1 $439 $729 #
ellipse-curve $-1 14.007496885921128 30.160820782700959 7.6795853084627357 0 0.79863551827123203 0.60181501223851219 0.5 0 0 1 I I #
point $-1 14.507496885921128 30.959456300972192 8.2814003207012483 #
edge $-1 $730 1 $730 0 $442 $-1 forward 7 unknown #
vertex $-1 $443 $731 #
ellipse-curve $-1 18.654612334997879 30.160820782700959 7.6795853084627357 0 0.79863551827123203 0.60181501223851219 0.5 0 0 1 I I #
point $-1 19.154612334997879 30.959456300972192 8.2814003207012483 #
loop $-1 $-1 $454 $446 #
plane-surface $-1 0 -32.163510467539069 0 0 1 0 0 0 1 forward_v I I I I #
coedge $-1 $610 $449 $732 $733 reversed $302 $-1 #
coedge $-1 $449 $609 $613 $734 reversed $302 $-1 #
edge $-1 $735 4.6896506375148425e-014 $614 4.0014095430696166 $449 $736 forward 7 unknown #
coedge $-1 $451 $450 $617 $737 reversed $191 $-1 #
coedge $-1 $457 $452 $610 $734 forward $447 $-1 #
vertex $-1 $734 $738 #
straight-curve $-1 -24.651927532952996 -29.755402134405358 9.8792342128236861 -1 0 0 I I #
coedge $-1 $732 $454 $457 $621 reversed $607 $-1 #
coedge $-1 $454 $732 $612 $737 forward $607 $-1 #
vertex $-1 $455 $739 #
straight-curve $-1 -41.558662650778068 -32.163510467539069 45.212254105746695 0 0 1 I I #
straight-curve $-1 -41.558662650778068 -32.163510467539098 6.6835664285788283 0 -0.60181501223851219 -0.79863551827123203 I I #
edge $-1 $740 -57.049047481033924 $458 -41.558662650778068 $616 $741 forward 7 unknown #
point $-1 -41.558662650778068 -32.163510467539069 9.8792342128236861 #
point $-1 -41.558662650778068 -29.755402134405358 9.8792342128236861 #
edge $-1 $742 1 $742 0 $461 $-1 forward 7 unknown #
vertex $-1 $462 $743 #
ellipse-curve $-1 -53.95097051498275 -30.160820782700959 7.6795853084627392 0 -0.79863551827123203 0.60181501223851219 0.5 0 0 1 I I #
point $-1 -53.45097051498275 -30.959456300972192 8.2814003207012519 #
edge $-1 $744 1 $744 0 $465 $-1 forward 7 unknown #
vertex $-1 $466 $745 #
ellipse-curve $-1 -49.303855065905992 -30.160820782700959 7.6795853084627392 0 -0.79863551827123203 0.60181501223851219 0.5 0 0 1 I I #
point $-1 -48.803855065905992 -30.959456300972192 8.2814003207012519 #
edge $-1 $746 1 $746 0 $469 $-1 forward 7 unknown #
vertex $-1 $470 $747 #
ellipse-curve $-1 -44.656739616829242 -30.160820782700959 7.6795853084627392 0 -0.79863551827123203 0.60181501223851219 0.5 0 0 1 I I #
point $-1 -44.156739616829242 -30.959456300972192 8.2814003207012519 #
plane-surface $-1 0 0 9.8792342128236861 0 0 1 1 0 0 forward_v I I I I #
coedge $-1 $647 $646 $639 $748 forward $474 $-1 #
coedge $-1 $639 $476 $478 $643 reversed $331 $-1 #
coedge $-1 $476 $638 $637 $748 reversed $331 $-1 #
coedge $-1 $484 $479 $476 $641 forward $485 $-1 #
edge $-1 $644 -41.890346254468184 $749 -39.482237921334473 $640 $750 forward 7 unknown #
coedge $-1 $478 $477 $647 $751 reversed $210 $-1 #
edge $-1 $752 4.6896506375148425e-014 $644 4.0014095430696166 $638 $753 forward 7 unknown #
vertex $-1 $480 $754 #
straight-curve $-1 7.0037484429605641 -29.755402134405358 9.8792342128236861 -1 0 0 I I #
coedge $-1 $637 $481 $484 $651 reversed $474 $-1 #
coedge $-1 $481 $637 $642 $751 forward $474 $-1 #
vertex $-1 $482 $755 #
straight-curve $-1 21.752689301049049 -32.163510467539069 45.212254105746695 0 0 1 I I #
straight-curve $-1 21.752689301049049 -32.163510467539098 6.6835664285788283 0 -0.60181501223851219 -0.79863551827123203 I I #
edge $-1 $749 6.2623044707932065 $486 21.752689301049049 $646 $756 forward 7 unknown #
point $-1 21.752689301049049 -32.163510467539069 9.8792342128236861 #
point $-1 21.752689301049049 -29.755402134405358 9.8792342128236861 #
edge $-1 $757 1 $757 0 $489 $-1 forward 7 unknown #
vertex $-1 $490 $758 #
ellipse-curve $-1 9.3603814368443778 -30.160820782700959 7.6795853084627392 0 -0.79863551827123203 0.60181501223851219 0.5 0 0 1 I I #
point $-1 9.8603814368443778 -30.959456300972192 8.2814003207012519 #
edge $-1 $759 1 $759 0 $493 $-1 forward 7 unknown #
vertex $-1 $494 $760 #
ellipse-curve $-1 14.007496885921128 -30.160820782700959 7.6795853084627392 0 -0.79863551827123203 0.60181501223851219 0.5 0 0 1 I I #
point $-1 14.507496885921128 -30.959456300972192 8.2814003207012519 #
edge $-1 $761 1 $761 0 $497 $-1 forward 7 unknown #
vertex $-1 $498 $762 #
ellipse-curve $-1 18.654612334997879 -30.160820782700959 7.6795853084627392 0 -0.79863551827123203 0.60181501223851219 0.5 0 0 1 I I #
point $-1 19.154612334997879 -30.959456300972192 8.2814003207012519 #
plane-surface $-1 69.573656422620317 0 0 -1 0 0 0 0 1 forward_v I I I I #
coedge $-1 $506 $504 $508 $671 reversed $360 $-1 #
edge $-1 $519 -9.8792342128236861 $673 9.8792342128236861 $518 $763 forward 7 unknown #
vertex $-1 $671 $764 #
straight-curve $-1 -69.573656422620317 -32.163510467539069 0 0 0 -1 I I #
edge $-1 $669 -32.163510467539069 $673 32.163510467539069 $667 $765 forward 7 unknown #
straight-curve $-1 0 -32.163510467539069 -9.8792342128236861 -1 0 0 I I #
vertex $-1 $511 $766 #
straight-curve $-1 0 32.163510467539069 -9.8792342128236861 1 0 0 I I #
point $-1 69.573656422620317 32.163510467539069 -9.8792342128236861 #
point $-1 69.573656422620317 -32.163510467539069 -9.8792342128236861 #
straight-curve $-1 -69.573656422620317 0 9.8792342128236861 0 -1 0 I I #
point $-1 -69.573656422620317 32.163510467539069 9.8792342128236861 #
point $-1 -69.573656422620317 -32.163510467539069 9.8792342128236861 #
straight-curve $-1 69.573656422620317 -32.163510467539069 0 0 0 -1 I I #
straight-curve $-1 69.573656422620317 32.163510467539069 0 0 0 -1 I I #
plane-surface $-1 0 -32.163510467539069 0 0 1 0 0 0 1 forward_v I I I I #
coedge $-1 $686 $767 $534 $690 forward $529 $-1 #
coedge $-1 $768 $531 $538 $695 reversed $379 $-1 #
coedge $-1 $531 $768 $542 $697 forward $379 $-1 #
coedge $-1 $769 $683 $532 $687 forward $529 $-1 #
edge $-1 $688 57.049047481033924 $770 69.573656422620317 $532 $771 forward 7 unknown #
vertex $-1 $687 $772 #
straight-curve $-1 -57.049047481033924 32.163510467539069 4.1547385253841842 0 0 -1 I I #
edge $-1 $692 -32.163510467539069 $688 32.163510467539069 $683 $773 forward 7 unknown #
coedge $-1 $538 $535 $767 $774 reversed $539 $-1 #
vertex $-1 $536 $775 #
straight-curve $-1 -57.049047481033924 -32.163510467539069 4.1547385253841842 0 0 1 I I #
straight-curve $-1 -69.573656422620317 0 6.7397198887130525 0 -1 0 I I #
edge $-1 $776 -9.8792342128236861 $540 -6.7397198887130525 $684 $777 forward 7 unknown #
point $-1 -69.573656422620317 -32.163510467539069 6.7397198887130525 #
edge $-1 $770 -9.8792342128236861 $543 -6.7397198887130525 $542 $778 forward 7 unknown #
point $-1 -69.573656422620317 32.163510467539069 6.7397198887130525 #
coedge $-1 $549 $703 $551 $701 reversed $393 $-1 #
straight-curve $-1 -41.558662650778068 32.163510467539069 70.899175957411956 0 0 -1 I I #
edge $-1 $552 41.558662650778068 $708 57.049047481033924 $699 $779 forward 7 unknown #
point $-1 -41.558662650778068 32.163510467539069 9.8792342128236861 #
coedge $-1 $699 $554 $557 $705 forward $393 $-1 #
straight-curve $-1 -24.651927532952996 32.163510467539069 6.6835664285788816 -1 0 0 I I #
edge $-1 $558 -64.21560952883307 $708 -61.019941744588273 $703 $780 forward 7 unknown #
point $-1 -57.049047481033917 32.163510467539069 6.6835664285788852 #
point $-1 -41.558662650778068 32.163510467539069 6.6835664285788852 #
vertex $-1 $562 $781 #
straight-curve $-1 -57.049047481033924 0 9.8792342128236861 0 -1 0 I I #
vertex $-1 $565 $782 #
point $-1 -53.45097051498275 30.160820782700959 7.6795853084627357 #
vertex $-1 $569 $783 #
point $-1 -48.803855065905992 30.160820782700959 7.6795853084627357 #
vertex $-1 $573 $784 #
point $-1 -44.156739616829242 30.160820782700959 7.6795853084627357 #
coedge $-1 $588 $587 $580 $717 forward $577 $-1 #
edge $-1 $718 61.019941744588266 $721 64.21560952883307 $716 $785 forward 7 unknown #
vertex $-1 $592 $786 #
straight-curve $-1 21.752689301049049 52.289264943218008 9.8792342128236896 0 1 0 I I #
edge $-1 $721 -14.748940858088485 $589 0.74144397216735758 $588 $787 forward 7 unknown #
vertex $-1 $720 $788 #
straight-curve $-1 21.752689301049049 -6.5494564237719715 58.05741013190935 0 -0.60181501223851219 0.79863551827123203 I I #
point $-1 21.752689301049049 29.755402134405365 9.8792342128236896 #
point $-1 6.2623044707932065 32.163510467539069 6.6835664285788852 #
straight-curve $-1 0 32.163510467539069 9.8792342128236861 -1 0 0 I I #
vertex $-1 $595 $789 #
point $-1 9.8603814368443778 30.160820782700959 7.6795853084627357 #
vertex $-1 $599 $790 #
point $-1 14.507496885921128 30.160820782700959 7.6795853084627357 #
vertex $-1 $603 $791 #
point $-1 19.154612334997879 30.160820782700959 7.6795853084627357 #
coedge $-1 $617 $616 $609 $733 forward $607 $-1 #
edge $-1 $740 35.333019892923012 $735 38.528687677167831 $732 $792 forward 7 unknown #
edge $-1 $614 29.755402134405358 $740 32.163510467539069 $613 $793 forward 7 unknown #
vertex $-1 $733 $794 #
straight-curve $-1 -57.049047481033917 -32.163510467539098 6.6835664285788283 0 0.60181501223851219 0.79863551827123203 I I #
edge $-1 $735 -32.39711994808092 $618 -16.906735117825072 $617 $795 forward 7 unknown #
point $-1 -57.049047481033917 -29.755402134405358 9.8792342128236861 #
point $-1 -41.558662650778068 -32.163510467539069 6.6835664285788656 #
vertex $-1 $621 $796 #
straight-curve $-1 0 -32.163510467539069 9.8792342128236861 1 0 0 I I #
vertex $-1 $624 $797 #
point $-1 -53.45097051498275 -30.160820782700959 7.6795853084627392 #
vertex $-1 $628 $798 #
point $-1 -48.803855065905992 -30.160820782700959 7.6795853084627392 #
vertex $-1 $632 $799 #
point $-1 -44.156739616829242 -30.160820782700959 7.6795853084627392 #
edge $-1 $749 35.333019892923005 $752 38.528687677167831 $637 $800 forward 7 unknown #
vertex $-1 $651 $801 #
straight-curve $-1 6.2623044707932065 -71.645748388873542 9.8792342128236896 0 -1 0 I I #
edge $-1 $752 -0.74144397216735758 $648 14.748940858088485 $647 $802 forward 7 unknown #
vertex $-1 $751 $803 #
straight-curve $-1 6.2623044707932065 -32.163510467539098 6.6835664285788283 0 0.60181501223851219 0.79863551827123203 I I #
point $-1 6.2623044707932065 -29.755402134405358 9.8792342128236861 #
point $-1 21.752689301049049 -32.163510467539069 6.6835664285788656 #
straight-curve $-1 0 -32.163510467539069 9.8792342128236861 1 0 0 I I #
vertex $-1 $654 $804 #
point $-1 9.8603814368443778 -30.160820782700959 7.6795853084627392 #
vertex $-1 $658 $805 #
point $-1 14.507496885921128 -30.160820782700959 7.6795853084627392 #
vertex $-1 $662 $806 #
point $-1 19.154612334997879 -30.160820782700959 7.6795853084627392 #
straight-curve $-1 -69.573656422620317 32.163510467539069 0 0 0 -1 I I #
point $-1 -69.573656422620317 -32.163510467539069 -9.8792342128236861 #
straight-curve $-1 -69.573656422620317 0 -9.8792342128236861 0 1 0 I I #
point $-1 -69.573656422620317 32.163510467539069 -9.8792342128236861 #
coedge $-1 $683 $769 $691 $774 forward $529 $-1 #
coedge $-1 $685 $684 $769 $807 reversed $379 $-1 #
coedge $-1 $767 $686 $768 $807 forward $529 $-1 #
vertex $-1 $687 $808 #
straight-curve $-1 0 32.163510467539069 9.8792342128236861 -1 0 0 I I #
point $-1 -57.049047481033924 32.163510467539069 9.8792342128236843 #
straight-curve $-1 -57.049047481033924 0 9.8792342128236861 0 1 0 I I #
edge $-1 $776 -69.573656422620317 $692 -57.049047481033924 $691 $809 forward 7 unknown #
point $-1 -57.049047481033924 -32.163510467539069 9.8792342128236843 #
vertex $-1 $807 $810 #
straight-curve $-1 -69.573656422620317 -32.163510467539069 0 0 0 -1 I I #
straight-curve $-1 -69.573656422620317 32.163510467539069 0 0 0 -1 I I #
straight-curve $-1 0 32.163510467539069 9.8792342128236861 -1 0 0 I I #
straight-curve $-1 -57.049047481033917 32.163510467539069 70.899175957411956 0 0 1 I I #
point $-1 -57.049047481033924 32.163510467539069 9.8792342128236843 #
point $-1 -53.95097051498275 29.761503023565346 7.3786778023434803 #
point $-1 -49.303855065905992 29.761503023565346 7.3786778023434803 #
point $-1 -44.656739616829242 29.761503023565346 7.3786778023434803 #
straight-curve $-1 21.752689301049049 32.163510467539069 70.899175957411956 0 0 -1 I I #
point $-1 21.752689301049049 32.163510467539069 9.8792342128236861 #
straight-curve $-1 7.0037484429605641 32.163510467539069 6.6835664285788816 -1 0 0 I I #
point $-1 21.752689301049049 32.163510467539069 6.6835664285788852 #
point $-1 9.3603814368443778 29.761503023565346 7.3786778023434803 #
point $-1 14.007496885921128 29.761503023565346 7.3786778023434803 #
point $-1 18.654612334997879 29.761503023565346 7.3786778023434803 #
straight-curve $-1 -57.049047481033917 -32.163510467539069 45.212254105746695 0 0 -1 I I #
straight-curve $-1 -57.049047481033924 0 9.8792342128236861 0 -1 0 I I #
point $-1 -57.049047481033917 -32.163510467539069 6.6835664285788656 #
straight-curve $-1 -24.651927532952996 -32.163510467539069 6.6835664285788612 1 0 0 I I #
point $-1 -57.049047481033924 -32.163510467539069 9.8792342128236843 #
point $-1 -53.95097051498275 -29.761503023565346 7.3786778023434838 #
point $-1 -49.303855065905992 -29.761503023565346 7.3786778023434838 #
point $-1 -44.656739616829242 -29.761503023565346 7.3786778023434838 #
straight-curve $-1 6.2623044707932065 -32.163510467539069 45.212254105746695 0 0 -1 I I #
point $-1 6.2623044707932065 -32.163510467539069 9.8792342128236861 #
straight-curve $-1 7.0037484429605641 -32.163510467539069 6.6835664285788612 1 0 0 I I #
point $-1 6.2623044707932065 -32.163510467539069 6.6835664285788656 #
point $-1 9.3603814368443778 -29.761503023565346 7.3786778023434838 #
point $-1 14.007496885921128 -29.761503023565346 7.3786778023434838 #
point $-1 18.654612334997879 -29.761503023565346 7.3786778023434838 #
edge $-1 $770 -32.163510467539069 $776 32.163510467539069 $768 $811 forward 7 unknown #
point $-1 -69.573656422620317 32.163510467539069 9.8792342128236861 #
straight-curve $-1 0 -32.163510467539069 9.8792342128236861 1 0 0 I I #
point $-1 -69.573656422620317 -32.163510467539069 9.8792342128236861 #
straight-curve $-1 -69.573656422620317 0 9.8792342128236861 0 -1 0 I I #
End-of-ACIS-data 