500 0 8 0           
7 Unknown 11 ACIS 5.0 NT 24 Fri Mar 26 19:33:16 1999 
-1 9.9999999999999995e-007 1e-010 
body $-1 $8 $-1 $9 #
body $-1 $10 $-1 $11 #
body $-1 $12 $-1 $13 #
body $-1 $14 $-1 $15 #
body $-1 $16 $-1 $17 #
body $-1 $18 $-1 $19 #
body $-1 $20 $-1 $21 #
body $-1 $22 $-1 $23 #
lump $-1 $-1 $24 $0 #
transform $-1 1 0 0 0 1 0 0 0 1 49.540086062196721 24.133537515421466 5.6040302819098136 1 rotate no_reflect no_shear #
lump $-1 $-1 $25 $1 #
transform $-1 1 0 0 0 1 0 0 0 1 49.540086062196721 24.133537515421466 5.6040302819098136 1 rotate no_reflect no_shear #
lump $-1 $-1 $26 $2 #
transform $-1 1 0 0 0 1 0 0 0 1 49.540086062196721 24.133537515421466 5.6040302819098136 1 rotate no_reflect no_shear #
lump $-1 $-1 $27 $3 #
transform $-1 1 0 0 0 1 0 0 0 1 49.540086062196721 24.133537515421466 5.6040302819098136 1 rotate no_reflect no_shear #
lump $-1 $-1 $28 $4 #
transform $-1 1 0 0 0 1 0 0 0 1 49.540086062196721 24.133537515421466 5.6040302819098136 1 rotate no_reflect no_shear #
lump $-1 $-1 $29 $5 #
transform $-1 1 0 0 0 1 0 0 0 1 49.540086062196721 24.133537515421466 5.6040302819098136 1 rotate no_reflect no_shear #
lump $-1 $-1 $30 $6 #
transform $-1 1 0 0 0 1 0 0 0 1 49.540086062196721 24.133537515421466 5.6040302819098136 1 rotate no_reflect no_shear #
lump $-1 $-1 $31 $7 #
transform $-1 1 0 0 0 1 0 0 0 1 49.540086062196721 24.133537515421466 5.6040302819098136 1 rotate no_reflect no_shear #
shell $-1 $-1 $-1 $32 $-1 $8 #
shell $-1 $-1 $-1 $33 $-1 $10 #
shell $-1 $-1 $-1 $34 $-1 $12 #
shell $-1 $-1 $-1 $35 $-1 $14 #
shell $-1 $-1 $-1 $36 $-1 $16 #
shell $-1 $-1 $-1 $37 $-1 $18 #
shell $-1 $-1 $-1 $38 $-1 $20 #
shell $-1 $-1 $-1 $39 $-1 $22 #
face $-1 $40 $41 $24 $-1 $42 forward single #
face $-1 $43 $44 $25 $-1 $45 reversed single #
face $-1 $46 $47 $26 $-1 $48 reversed single #
face $-1 $49 $50 $27 $-1 $51 forward single #
face $-1 $52 $53 $28 $-1 $54 forward single #
face $-1 $55 $56 $29 $-1 $57 reversed single #
face $-1 $58 $59 $30 $-1 $60 forward single #
face $-1 $61 $62 $31 $-1 $63 forward single #
face $-1 $64 $65 $24 $-1 $66 reversed single #
loop $-1 $-1 $67 $32 #
plane-surface $-1 0 0 5.6040302819098136 0 0 1 1 0 0 forward_v I I I I #
face $-1 $68 $69 $25 $-1 $70 reversed single #
loop $-1 $-1 $71 $33 #
plane-surface $-1 -47.278752866275745 -21.133537515421466 0 0 -1 0 0 0 -1 forward_v I I I I #
face $-1 $72 $73 $26 $-1 $74 reversed single #
loop $-1 $-1 $75 $34 #
plane-surface $-1 -26.203745589011671 -109.93948435286951 49.971533460639954 -1 0 0 0 -0.86602541151947299 0.49999998660252726 forward_v I I I I #
face $-1 $76 $77 $27 $-1 $78 forward single #
loop $-1 $79 $80 $35 #
cone-surface $-1 -39.642084218542458 -20.948213288877557 2.040788634347567 0 0.86602541151947299 -0.49999998660252726 1 0 0 1 I I 0 1 1 forward I I I I #
face $-1 $81 $82 $28 $-1 $83 forward single #
loop $-1 $84 $85 $36 #
cone-surface $-1 -31.579081040823986 -20.948213288877557 2.040788634347567 0 0.86602541151947299 -0.49999998660252726 1 0 0 1 I I 0 1 1 forward I I I I #
face $-1 $86 $87 $29 $-1 $88 reversed single #
loop $-1 $-1 $89 $37 #
plane-surface $-1 16.321163510272193 50.846321012368321 108.38295212432658 1 0 0 0 -0.64278761758704617 -0.76604443648966558 forward_v I I I I #
face $-1 $90 $91 $30 $-1 $92 forward single #
loop $-1 $93 $94 $38 #
cone-surface $-1 24.02241679467329 20.46030394364114 2.0977523393800506 0 -0.64278761758704617 -0.76604443648966558 1 0 0 1 I I 0 1 1 forward I I I I #
face $-1 $95 $96 $31 $-1 $97 forward single #
loop $-1 $98 $99 $39 #
cone-surface $-1 35.574296721274933 20.46030394364114 2.0977523393800506 0 -0.64278761758704617 -0.76604443648966558 1 0 0 1 I I 0 1 1 forward I I I I #
face $-1 $100 $101 $24 $-1 $102 reversed single #
loop $-1 $-1 $103 $40 #
plane-surface $-1 0 0 -5.6040302819098136 0 0 1 1 0 0 forward_v I I I I #
coedge $-1 $104 $105 $106 $107 forward $41 $-1 #
face $-1 $108 $109 $25 $-1 $110 forward single #
loop $-1 $-1 $111 $43 #
plane-surface $-1 -45.017419670354769 -22.633537515421466 0 -1 0 0 0 0 1 forward_v I I I I #
coedge $-1 $112 $113 $114 $115 forward $44 $-1 #
face $-1 $116 $117 $26 $-1 $118 forward single #
loop $-1 $-1 $119 $46 #
plane-surface $-1 -35.610582629683222 -24.133537515421466 0.4314487258671349 0 -0.86602541151947299 0.49999998660252726 1 0 0 forward_v I I I I #
coedge $-1 $120 $121 $122 $123 reversed $47 $-1 #
face $-1 $-1 $124 $27 $-1 $125 forward single #
loop $-1 $126 $127 $49 #
cone-surface $-1 -39.642084218542458 -18.823071980120385 0.81383777150539593 0 0.86602541151947299 -0.49999998660252726 0.5 0 0 1 I I -0.70710678118654746 0.70710678118654746 0.5 forward I I I I #
loop $-1 $-1 $128 $35 #
coedge $-1 $80 $80 $129 $130 reversed $50 $-1 #
face $-1 $-1 $131 $28 $-1 $132 forward single #
loop $-1 $133 $134 $52 #
cone-surface $-1 -31.579081040823986 -18.823071980120385 0.81383777150539593 0 0.86602541151947299 -0.49999998660252726 0.5 0 0 1 I I -0.70710678118654746 0.70710678118654746 0.5 forward I I I I #
loop $-1 $-1 $135 $36 #
coedge $-1 $85 $85 $136 $137 reversed $53 $-1 #
face $-1 $138 $139 $29 $-1 $140 reversed single #
loop $-1 $-1 $141 $55 #
plane-surface $-1 29.798356757974105 -12.841186777585001 32.483137501996538 0 0.64278761758704617 0.76604443648966558 1 0 0 forward_v I I I I #
coedge $-1 $142 $143 $144 $145 reversed $56 $-1 #
face $-1 $-1 $146 $30 $-1 $147 forward single #
loop $-1 $148 $149 $58 #
cone-surface $-1 24.02241679467329 18.936402747406682 0.28163765204746927 0 -0.64278761758704617 -0.76604443648966558 0.5 0 0 1 I I -0.70710678118654746 0.70710678118654746 0.5 forward I I I I #
loop $-1 $-1 $150 $38 #
coedge $-1 $94 $94 $151 $152 reversed $59 $-1 #
face $-1 $-1 $153 $31 $-1 $154 forward single #
loop $-1 $155 $156 $61 #
cone-surface $-1 35.574296721274933 18.936402747406682 0.28163765204746927 0 -0.64278761758704617 -0.76604443648966558 0.5 0 0 1 I I -0.70710678118654746 0.70710678118654746 0.5 forward I I I I #
loop $-1 $-1 $157 $39 #
coedge $-1 $99 $99 $158 $159 reversed $62 $-1 #
face $-1 $160 $161 $24 $-1 $162 reversed single #
loop $-1 $-1 $163 $64 #
plane-surface $-1 0 -24.133537515421466 0 0 1 0 0 0 1 forward_v I I I I #
coedge $-1 $164 $165 $166 $167 forward $65 $-1 #
coedge $-1 $168 $67 $169 $170 forward $41 $-1 #
coedge $-1 $67 $168 $171 $172 forward $41 $-1 #
coedge $-1 $173 $174 $67 $107 reversed $175 $-1 #
edge $-1 $176 -24.133537515421466 $177 24.133537515421466 $106 $178 forward 7 unknown #
face $-1 $179 $180 $25 $-1 $181 reversed single #
loop $-1 $-1 $182 $68 #
plane-surface $-1 0 0 5.6040302819098136 0 0 1 1 0 0 forward_v I I I I #
coedge $-1 $183 $184 $185 $186 reversed $69 $-1 #
coedge $-1 $187 $71 $188 $189 reversed $44 $-1 #
coedge $-1 $71 $187 $190 $191 reversed $44 $-1 #
coedge $-1 $184 $183 $71 $115 reversed $69 $-1 #
edge $-1 $192 -5.6040302819098136 $193 5.6040302819098136 $114 $194 forward 7 unknown #
face $-1 $195 $196 $26 $-1 $197 forward single #
loop $-1 $-1 $122 $72 #
plane-surface $-1 0 0 5.6040302819098136 0 0 1 1 0 0 forward_v I I I I #
coedge $-1 $198 $199 $200 $201 reversed $73 $-1 #
coedge $-1 $121 $75 $202 $203 reversed $47 $-1 #
coedge $-1 $75 $120 $198 $204 reversed $47 $-1 #
coedge $-1 $200 $205 $75 $123 forward $117 $-1 #
edge $-1 $206 30.836204661013291 $207 33.822595908106237 $122 $208 forward 7 unknown #
loop $-1 $-1 $129 $76 #
plane-surface $-1 -35.610582629683222 -24.133537515421466 0.4314487258671349 0 -0.86602541151947299 0.49999998660252726 1 0 0 forward_v I I I I #
loop $-1 $-1 $209 $49 #
coedge $-1 $127 $127 $128 $210 reversed $77 $-1 #
coedge $-1 $128 $128 $127 $210 forward $79 $-1 #
coedge $-1 $129 $129 $80 $130 forward $124 $-1 #
edge $-1 $211 -3.8459254071175807e-016 $211 6.2831853071796004 $129 $212 forward 7 unknown #
loop $-1 $-1 $136 $81 #
plane-surface $-1 -35.610582629683222 -24.133537515421466 0.4314487258671349 0 -0.86602541151947299 0.49999998660252726 1 0 0 forward_v I I I I #
loop $-1 $-1 $213 $52 #
coedge $-1 $134 $134 $135 $214 reversed $82 $-1 #
coedge $-1 $135 $135 $134 $214 forward $84 $-1 #
coedge $-1 $136 $136 $85 $137 forward $131 $-1 #
edge $-1 $215 -3.8459254071175807e-016 $215 6.2831853071796004 $136 $216 forward 7 unknown #
face $-1 $217 $218 $29 $-1 $219 reversed single #
loop $-1 $-1 $220 $86 #
plane-surface $-1 43.275550005676017 50.846321012368321 108.38295212432658 -1 0 0 0 0.64278761758704617 0.76604443648966558 forward_v I I I I #
coedge $-1 $221 $222 $223 $224 reversed $87 $-1 #
coedge $-1 $143 $89 $225 $226 reversed $56 $-1 #
coedge $-1 $89 $142 $221 $227 reversed $56 $-1 #
coedge $-1 $223 $228 $89 $145 forward $229 $-1 #
edge $-1 $230 1.2896229907626946 $231 6.2310753594414265 $144 $232 forward 7 unknown #
loop $-1 $-1 $151 $90 #
plane-surface $-1 29.798356757974105 -12.841186777585001 32.483137501996538 0 0.64278761758704617 0.76604443648966558 1 0 0 forward_v I I I I #
loop $-1 $-1 $233 $58 #
coedge $-1 $149 $149 $150 $234 reversed $91 $-1 #
coedge $-1 $150 $150 $149 $234 forward $93 $-1 #
coedge $-1 $151 $151 $94 $152 forward $146 $-1 #
edge $-1 $235 -1.6185708422125896e-015 $235 6.2831853071795987 $151 $236 forward 7 unknown #
loop $-1 $-1 $158 $95 #
plane-surface $-1 29.798356757974105 -12.841186777585001 32.483137501996538 0 0.64278761758704617 0.76604443648966558 1 0 0 forward_v I I I I #
loop $-1 $-1 $237 $61 #
coedge $-1 $156 $156 $157 $238 reversed $96 $-1 #
coedge $-1 $157 $157 $156 $238 forward $98 $-1 #
coedge $-1 $158 $158 $99 $159 forward $153 $-1 #
edge $-1 $239 -1.6185708422125896e-015 $239 6.2831853071795987 $158 $240 forward 7 unknown #
face $-1 $241 $242 $24 $-1 $243 reversed single #
loop $-1 $-1 $244 $100 #
plane-surface $-1 -49.540086062196721 0 0 1 0 0 0 0 -1 forward_v I I I I #
coedge $-1 $245 $171 $246 $247 forward $101 $-1 #
coedge $-1 $248 $103 $245 $249 forward $65 $-1 #
coedge $-1 $103 $248 $250 $251 forward $65 $-1 #
coedge $-1 $174 $173 $103 $167 reversed $175 $-1 #
edge $-1 $252 -24.133537515421466 $253 24.133537515421466 $166 $254 forward 7 unknown #
coedge $-1 $105 $104 $255 $256 forward $41 $-1 #
coedge $-1 $257 $258 $104 $170 reversed $242 $-1 #
edge $-1 $177 -49.540086062196721 $259 49.540086062196721 $169 $260 forward 7 unknown #
coedge $-1 $163 $261 $105 $172 reversed $101 $-1 #
edge $-1 $262 -49.540086062196721 $176 49.540086062196721 $171 $263 forward 7 unknown #
coedge $-1 $166 $106 $261 $264 forward $175 $-1 #
coedge $-1 $106 $166 $257 $265 reversed $175 $-1 #
loop $-1 $-1 $173 $241 #
vertex $-1 $107 $266 #
vertex $-1 $107 $267 #
straight-curve $-1 49.540086062196721 0 5.6040302819098136 0 1 0 I I #
face $-1 $268 $269 $25 $-1 $270 reversed single #
loop $-1 $-1 $271 $108 #
plane-surface $-1 -49.540086062196721 0 0 1 0 0 0 0 -1 forward_v I I I I #
coedge $-1 $190 $272 $184 $273 forward $109 $-1 #
coedge $-1 $114 $111 $274 $275 reversed $69 $-1 #
coedge $-1 $111 $114 $182 $273 reversed $69 $-1 #
coedge $-1 $276 $277 $111 $186 forward $278 $-1 #
edge $-1 $279 -5.6040302819098136 $280 5.6040302819098136 $185 $281 forward 7 unknown #
coedge $-1 $113 $112 $271 $282 reversed $44 $-1 #
coedge $-1 $274 $283 $112 $189 forward $269 $-1 #
edge $-1 $284 -25.900709629058849 $193 -21.378043237216897 $188 $285 forward 7 unknown #
coedge $-1 $286 $182 $113 $191 forward $109 $-1 #
edge $-1 $192 21.378043237216897 $287 25.900709629058849 $190 $288 forward 7 unknown #
vertex $-1 $191 $289 #
vertex $-1 $189 $290 #
straight-curve $-1 -45.017419670354769 -21.133537515421466 0 0 0 -1 I I #
face $-1 $-1 $291 $26 $-1 $292 reversed single #
loop $-1 $-1 $293 $116 #
plane-surface $-1 -45.017419670354769 -22.633537515421466 0 -1 0 0 0 0 1 forward_v I I I I #
coedge $-1 $294 $119 $121 $204 forward $73 $-1 #
coedge $-1 $119 $294 $293 $295 reversed $73 $-1 #
coedge $-1 $296 $122 $119 $201 forward $117 $-1 #
edge $-1 $207 8.3984542741700601 $297 27.212128355513158 $200 $298 forward 7 unknown #
coedge $-1 $299 $300 $120 $203 forward $291 $-1 #
edge $-1 $301 -24.554318004452842 $206 -19.381736448410162 $202 $302 forward 7 unknown #
edge $-1 $207 -5.9727826542262736 $301 0 $121 $303 forward 7 unknown #
coedge $-1 $122 $296 $299 $304 forward $117 $-1 #
vertex $-1 $123 $305 #
vertex $-1 $123 $306 #
straight-curve $-1 -26.203745589011671 -54.969742176434757 5.6040302819098144 0 1 0 I I #
coedge $-1 $209 $209 $-1 $307 reversed $126 $-1 #
edge $-1 $308 0 $308 6.2831853071796004 $127 $309 forward 7 unknown #
vertex $-1 $130 $310 #
ellipse-curve $-1 -39.642084218542458 -22.640341891874993 3.0177395038884747 0 -0.86602541151947299 0.49999998660252726 1 0 0 1 I I #
coedge $-1 $213 $213 $-1 $311 reversed $133 $-1 #
edge $-1 $312 0 $312 6.2831853071796004 $134 $313 forward 7 unknown #
vertex $-1 $137 $314 #
ellipse-curve $-1 -31.579081040823986 -22.640341891874993 3.0177395038884747 0 -0.86602541151947299 0.49999998660252726 1 0 0 1 I I #
face $-1 $-1 $229 $29 $-1 $315 forward single #
loop $-1 $-1 $316 $138 #
plane-surface $-1 0 24.133537515421466 0 0 -1 0 0 0 -1 forward_v I I I I #
coedge $-1 $317 $318 $319 $320 reversed $139 $-1 #
coedge $-1 $321 $141 $143 $227 forward $87 $-1 #
coedge $-1 $141 $321 $317 $322 forward $87 $-1 #
coedge $-1 $319 $144 $141 $224 forward $229 $-1 #
edge $-1 $231 1.4219851312851404 $323 28.376371626688965 $223 $324 forward 7 unknown #
coedge $-1 $325 $326 $142 $226 forward $218 $-1 #
edge $-1 $327 -52.733816727137466 $230 -48.587445780253475 $225 $328 forward 7 unknown #
edge $-1 $231 41.816467033058188 $327 48.267075030842918 $143 $329 forward 7 unknown #
coedge $-1 $144 $319 $325 $330 forward $229 $-1 #
loop $-1 $-1 $319 $217 #
vertex $-1 $226 $331 #
vertex $-1 $145 $332 #
straight-curve $-1 16.321163510272193 25.423160506184161 5.6040302819098144 0 -1 0 I I #
coedge $-1 $233 $233 $-1 $333 reversed $148 $-1 #
edge $-1 $334 0 $334 6.2831853071796004 $149 $335 forward 7 unknown #
vertex $-1 $152 $336 #
ellipse-curve $-1 24.02241679467329 21.662811331082093 3.5308448084678181 0 0.64278761758704617 0.76604443648966558 1 0 0 1 I I #
coedge $-1 $237 $237 $-1 $337 reversed $155 $-1 #
edge $-1 $338 0 $338 6.2831853071796004 $156 $339 forward 7 unknown #
vertex $-1 $159 $340 #
ellipse-curve $-1 35.574296721274933 21.662811331082093 3.5308448084678181 0 0.64278761758704617 0.76604443648966558 1 0 0 1 I I #
face $-1 $-1 $175 $24 $-1 $341 reversed single #
loop $-1 $-1 $257 $160 #
plane-surface $-1 0 24.133537515421466 0 0 -1 0 0 0 -1 forward_v I I I I #
coedge $-1 $342 $255 $258 $343 forward $161 $-1 #
coedge $-1 $261 $163 $164 $249 reversed $101 $-1 #
coedge $-1 $255 $342 $163 $247 reversed $161 $-1 #
edge $-1 $262 -5.6040302819098136 $344 5.6040302819098136 $246 $345 forward 7 unknown #
coedge $-1 $165 $164 $342 $346 forward $65 $-1 #
edge $-1 $253 -49.540086062196721 $344 49.540086062196721 $245 $347 forward 7 unknown #
coedge $-1 $258 $257 $165 $251 reversed $242 $-1 #
edge $-1 $348 -49.540086062196721 $252 49.540086062196721 $250 $349 forward 7 unknown #
vertex $-1 $167 $350 #
vertex $-1 $264 $351 #
straight-curve $-1 49.540086062196721 0 -5.6040302819098136 0 -1 0 I I #
coedge $-1 $244 $246 $168 $256 reversed $161 $-1 #
edge $-1 $259 -24.133537515421466 $262 24.133537515421466 $255 $352 forward 7 unknown #
coedge $-1 $250 $169 $174 $265 forward $242 $-1 #
coedge $-1 $169 $250 $244 $343 reversed $242 $-1 #
vertex $-1 $170 $353 #
straight-curve $-1 0 24.133537515421466 5.6040302819098136 -1 0 0 I I #
coedge $-1 $171 $245 $173 $264 reversed $101 $-1 #
vertex $-1 $256 $354 #
straight-curve $-1 0 -24.133537515421466 5.6040302819098136 1 0 0 I I #
edge $-1 $176 -5.6040302819098136 $253 5.6040302819098136 $173 $355 forward 7 unknown #
edge $-1 $177 -5.6040302819098136 $252 5.6040302819098136 $174 $356 forward 7 unknown #
point $-1 49.540086062196721 -24.133537515421466 5.6040302819098136 #
point $-1 49.540086062196721 24.133537515421466 5.6040302819098136 #
face $-1 $-1 $278 $25 $-1 $357 reversed single #
loop $-1 $-1 $274 $179 #
plane-surface $-1 0 0 -5.6040302819098136 0 0 1 1 0 0 forward_v I I I I #
coedge $-1 $358 $359 $187 $282 forward $180 $-1 #
coedge $-1 $182 $286 $276 $360 forward $109 $-1 #
edge $-1 $280 -12.816768757710733 $192 -9.816768757710733 $182 $361 forward 7 unknown #
coedge $-1 $362 $188 $183 $275 forward $269 $-1 #
edge $-1 $193 9.816768757710733 $279 12.816768757710733 $274 $363 forward 7 unknown #
coedge $-1 $364 $185 $272 $360 reversed $278 $-1 #
coedge $-1 $185 $364 $362 $365 reversed $278 $-1 #
loop $-1 $-1 $185 $268 #
vertex $-1 $365 $366 #
vertex $-1 $186 $367 #
straight-curve $-1 -45.017419670354769 -24.133537515421466 0 0 0 1 I I #
edge $-1 $287 -5.6040302819098136 $284 5.6040302819098136 $271 $368 forward 7 unknown #
coedge $-1 $188 $362 $358 $369 forward $269 $-1 #
vertex $-1 $189 $370 #
straight-curve $-1 -23.639376433137873 -21.133537515421466 -5.6040302819098136 1 0 0 I I #
coedge $-1 $272 $190 $359 $371 forward $109 $-1 #
vertex $-1 $371 $372 #
straight-curve $-1 -23.639376433137873 -21.133537515421466 5.6040302819098136 -1 0 0 I I #
point $-1 -45.017419670354769 -21.133537515421466 5.6040302819098136 #
point $-1 -45.017419670354769 -21.133537515421466 -5.6040302819098136 #
loop $-1 $-1 $202 $195 #
plane-surface $-1 0 -24.133537515421466 0 0 1 0 0 0 1 forward_v I I I I #
coedge $-1 $373 $374 $199 $295 forward $196 $-1 #
coedge $-1 $199 $198 $300 $375 reversed $73 $-1 #
edge $-1 $297 -5.7846054444586965 $376 0.18817720976757635 $293 $377 forward 7 unknown #
coedge $-1 $205 $200 $374 $378 forward $117 $-1 #
vertex $-1 $378 $379 #
straight-curve $-1 -17.805291314841611 -21.147146268328523 5.6040302819098136 -1 0 0 I I #
coedge $-1 $380 $202 $205 $304 reversed $291 $-1 #
coedge $-1 $202 $380 $294 $375 forward $291 $-1 #
vertex $-1 $203 $381 #
straight-curve $-1 -26.203745589011671 -24.133537515421466 24.985766730319977 0 0 1 I I #
straight-curve $-1 -26.203745589011671 -24.133537515421466 0.4314487258671349 0 -0.49999998660252726 -0.86602541151947299 I I #
edge $-1 $382 -45.017419670354769 $206 -26.203745589011671 $299 $383 forward 7 unknown #
point $-1 -26.203745589011671 -24.133537515421466 5.6040302819098136 #
point $-1 -26.203745589011671 -21.147146268328523 5.6040302819098136 #
edge $-1 $384 1 $384 0 $209 $-1 forward 7 unknown #
vertex $-1 $210 $385 #
ellipse-curve $-1 -39.642084218542458 -19.256084685880122 1.0638377648066595 0 -0.86602541151947299 0.49999998660252726 1 0 0 1 I I #
point $-1 -38.642084218542458 -22.640341891874993 3.0177395038884742 #
edge $-1 $386 1 $386 0 $213 $-1 forward 7 unknown #
vertex $-1 $214 $387 #
ellipse-curve $-1 -31.579081040823986 -19.256084685880122 1.0638377648066595 0 -0.86602541151947299 0.49999998660252726 1 0 0 1 I I #
point $-1 -30.579081040823986 -22.640341891874993 3.0177395038884742 #
plane-surface $-1 0 0 5.6040302819098136 0 0 1 1 0 0 forward_v I I I I #
coedge $-1 $326 $325 $318 $388 forward $218 $-1 #
coedge $-1 $318 $220 $222 $322 reversed $139 $-1 #
coedge $-1 $220 $317 $316 $388 reversed $139 $-1 #
coedge $-1 $228 $223 $220 $320 forward $229 $-1 #
edge $-1 $323 -6.2310753594414265 $389 -1.2896229907626946 $319 $390 forward 7 unknown #
coedge $-1 $222 $221 $326 $391 reversed $87 $-1 #
edge $-1 $392 -48.267075030842918 $323 -41.816467033058188 $317 $393 forward 7 unknown #
vertex $-1 $224 $394 #
straight-curve $-1 14.899178378987052 19.192085146742727 5.604030281909818 1 0 0 I I #
coedge $-1 $316 $225 $228 $330 reversed $218 $-1 #
coedge $-1 $225 $316 $321 $391 forward $218 $-1 #
vertex $-1 $226 $395 #
straight-curve $-1 16.321163510272193 24.133537515421466 54.191476062163289 0 0 1 I I #
straight-curve $-1 16.321163510272193 -12.841186777585001 32.483137501996538 0 0.76604443648966558 -0.64278761758704617 I I #
edge $-1 $389 -43.275550005676017 $230 -16.321163510272193 $325 $396 forward 7 unknown #
point $-1 16.321163510272193 24.133537515421466 5.6040302819098136 #
point $-1 16.321163510272193 19.192085146742734 5.6040302819098109 #
edge $-1 $397 1 $397 0 $233 $-1 forward 7 unknown #
vertex $-1 $234 $398 #
ellipse-curve $-1 24.02241679467329 19.257796556200205 0.66465987029230211 0 0.64278761758704617 0.76604443648966558 1 0 0 1 I I #
point $-1 25.02241679467329 21.662811331082075 3.5308448084677995 #
edge $-1 $399 1 $399 0 $237 $-1 forward 7 unknown #
vertex $-1 $238 $400 #
ellipse-curve $-1 35.574296721274933 19.257796556200205 0.66465987029230211 0 0.64278761758704617 0.76604443648966558 1 0 0 1 I I #
point $-1 36.574296721274933 21.662811331082075 3.5308448084677995 #
plane-surface $-1 49.540086062196721 0 0 -1 0 0 0 0 1 forward_v I I I I #
coedge $-1 $246 $244 $248 $346 reversed $161 $-1 #
edge $-1 $259 -5.6040302819098136 $348 5.6040302819098136 $258 $401 forward 7 unknown #
vertex $-1 $346 $402 #
straight-curve $-1 -49.540086062196721 -24.133537515421466 0 0 0 -1 I I #
edge $-1 $344 -24.133537515421466 $348 24.133537515421466 $342 $403 forward 7 unknown #
straight-curve $-1 0 -24.133537515421466 -5.6040302819098136 -1 0 0 I I #
vertex $-1 $251 $404 #
straight-curve $-1 0 24.133537515421466 -5.6040302819098136 1 0 0 I I #
point $-1 49.540086062196721 24.133537515421466 -5.6040302819098136 #
point $-1 49.540086062196721 -24.133537515421466 -5.6040302819098136 #
straight-curve $-1 -49.540086062196721 0 5.6040302819098136 0 -1 0 I I #
point $-1 -49.540086062196721 24.133537515421466 5.6040302819098136 #
point $-1 -49.540086062196721 -24.133537515421466 5.6040302819098136 #
straight-curve $-1 49.540086062196721 -24.133537515421466 0 0 0 -1 I I #
straight-curve $-1 49.540086062196721 24.133537515421466 0 0 0 -1 I I #
plane-surface $-1 0 -24.133537515421466 0 0 1 0 0 0 1 forward_v I I I I #
coedge $-1 $405 $271 $283 $369 reversed $180 $-1 #
coedge $-1 $271 $405 $286 $371 reversed $180 $-1 #
edge $-1 $406 -49.540086062196721 $280 -45.017419670354769 $276 $407 forward 7 unknown #
straight-curve $-1 -45.017419670354769 -11.316768757710733 5.6040302819098136 0 1 0 I I #
coedge $-1 $283 $274 $277 $365 forward $269 $-1 #
straight-curve $-1 -45.017419670354769 -11.316768757710733 -5.6040302819098136 0 -1 0 I I #
coedge $-1 $277 $276 $405 $408 forward $278 $-1 #
edge $-1 $279 45.017419670354769 $409 49.540086062196721 $277 $410 forward 7 unknown #
point $-1 -45.017419670354769 -24.133537515421466 -5.6040302819098136 #
point $-1 -45.017419670354769 -24.133537515421466 5.6040302819098136 #
straight-curve $-1 -49.540086062196721 -21.133537515421466 0 0 0 -1 I I #
edge $-1 $409 -24.133537515421466 $284 -21.133537515421466 $358 $411 forward 7 unknown #
point $-1 -49.540086062196721 -21.133537515421466 -5.6040302819098136 #
edge $-1 $287 21.133537515421466 $406 24.133537515421466 $359 $412 forward 7 unknown #
point $-1 -49.540086062196721 -21.133537515421466 5.6040302819098136 #
coedge $-1 $374 $293 $380 $413 reversed $196 $-1 #
coedge $-1 $293 $373 $296 $378 reversed $196 $-1 #
edge $-1 $376 -27.212128355513158 $301 -8.3984542741700601 $300 $414 forward 7 unknown #
vertex $-1 $295 $415 #
straight-curve $-1 -45.017419670354769 -24.039448913058777 0.59441497139468658 0 -0.49999998660252726 -0.86602541151947299 I I #
edge $-1 $297 9.8303775106177902 $382 12.816768757710733 $296 $416 forward 7 unknown #
point $-1 -45.017419670354769 -21.147146268328523 5.6040302819098136 #
coedge $-1 $300 $299 $373 $413 forward $291 $-1 #
point $-1 -26.203745589011671 -24.133537515421466 0.4314487258671349 #
vertex $-1 $304 $417 #
straight-curve $-1 0 -24.133537515421466 5.6040302819098136 1 0 0 I I #
vertex $-1 $307 $418 #
point $-1 -38.642084218542458 -19.256084685880122 1.0638377648066595 #
vertex $-1 $311 $419 #
point $-1 -30.579081040823986 -19.256084685880122 1.0638377648066595 #
edge $-1 $389 48.587445780253475 $392 52.733816727137466 $316 $420 forward 7 unknown #
vertex $-1 $330 $421 #
straight-curve $-1 43.275550005676017 25.423160506184161 5.6040302819098144 0 1 0 I I #
edge $-1 $392 -28.376371626688965 $327 -1.4219851312851404 $326 $422 forward 7 unknown #
vertex $-1 $391 $423 #
straight-curve $-1 43.275550005676017 -12.841186777585001 32.483137501996538 0 -0.76604443648966558 0.64278761758704617 I I #
point $-1 43.275550005676017 19.192085146742734 5.6040302819098109 #
point $-1 16.321163510272193 24.133537515421466 1.45765933502582 #
straight-curve $-1 0 24.133537515421466 5.6040302819098136 -1 0 0 I I #
vertex $-1 $333 $424 #
point $-1 25.02241679467329 19.257796556200205 0.66465987029230211 #
vertex $-1 $337 $425 #
point $-1 36.574296721274933 19.257796556200205 0.66465987029230211 #
straight-curve $-1 -49.540086062196721 24.133537515421466 0 0 0 -1 I I #
point $-1 -49.540086062196721 -24.133537515421466 -5.6040302819098136 #
straight-curve $-1 -49.540086062196721 0 -5.6040302819098136 0 1 0 I I #
point $-1 -49.540086062196721 24.133537515421466 -5.6040302819098136 #
coedge $-1 $359 $358 $364 $408 reversed $180 $-1 #
vertex $-1 $371 $426 #
straight-curve $-1 0 -24.133537515421466 5.6040302819098136 1 0 0 I I #
edge $-1 $406 -5.6040302819098136 $409 5.6040302819098136 $405 $427 forward 7 unknown #
vertex $-1 $369 $428 #
straight-curve $-1 0 -24.133537515421466 -5.6040302819098136 -1 0 0 I I #
straight-curve $-1 -49.540086062196721 0 -5.6040302819098136 0 1 0 I I #
straight-curve $-1 -49.540086062196721 0 5.6040302819098136 0 -1 0 I I #
edge $-1 $382 -5.6040302819098136 $376 -0.4314487258671349 $380 $429 forward 7 unknown #
straight-curve $-1 -17.805291314841611 -24.133537515421466 0.43144872586713545 1 0 0 I I #
point $-1 -45.017419670354769 -24.133537515421466 0.4314487258671349 #
straight-curve $-1 -45.017419670354769 -11.316768757710733 5.6040302819098136 0 -1 0 I I #
point $-1 -45.017419670354769 -24.133537515421466 5.6040302819098136 #
point $-1 -39.642084218542458 -18.390059274360649 0.56383777820413228 #
point $-1 -31.579081040823986 -18.390059274360649 0.56383777820413228 #
straight-curve $-1 43.275550005676017 24.133537515421466 54.191476062163289 0 0 -1 I I #
point $-1 43.275550005676017 24.133537515421466 5.6040302819098136 #
straight-curve $-1 14.899178378987052 24.133537515421466 1.4576593350258182 -1 0 0 I I #
point $-1 43.275550005676017 24.133537515421466 1.45765933502582 #
point $-1 24.02241679467329 18.615008938613158 -0.10138456619736352 #
point $-1 35.574296721274933 18.615008938613158 -0.10138456619736352 #
point $-1 -49.540086062196721 -24.133537515421466 5.6040302819098136 #
straight-curve $-1 -49.540086062196721 -24.133537515421466 0 0 0 -1 I I #
point $-1 -49.540086062196721 -24.133537515421466 -5.6040302819098136 #
straight-curve $-1 -45.017419670354769 -24.133537515421466 0 0 0 -1 I I #
End-of-ACIS-data 