500 0 8 0           
7 Unknown 11 ACIS 5.0 NT 24 Thu Mar 25 21:19:21 1999 
-1 9.9999999999999995e-007 1e-010 
body $-1 $8 $-1 $9 #
body $-1 $10 $-1 $11 #
body $-1 $12 $-1 $13 #
body $-1 $14 $-1 $15 #
body $-1 $16 $-1 $17 #
body $-1 $18 $-1 $19 #
body $-1 $20 $-1 $21 #
body $-1 $22 $-1 $23 #
lump $-1 $-1 $24 $0 #
transform $-1 1 0 0 0 1 0 0 0 1 70.793176061281173 46.733823401030698 9.6621078106107507 1 rotate no_reflect no_shear #
lump $-1 $-1 $25 $1 #
transform $-1 1 0 0 0 1 0 0 0 1 70.793176061281173 46.733823401030698 9.6621078106107507 1 rotate no_reflect no_shear #
lump $-1 $-1 $26 $2 #
transform $-1 1 0 0 0 1 0 0 0 1 70.793176061281173 46.733823401030698 9.6621078106107507 1 rotate no_reflect no_shear #
lump $-1 $-1 $27 $3 #
transform $-1 1 0 0 0 1 0 0 0 1 70.793176061281173 46.733823401030698 9.6621078106107507 1 rotate no_reflect no_shear #
lump $-1 $-1 $28 $4 #
transform $-1 1 0 0 0 1 0 0 0 1 70.793176061281173 46.733823401030698 9.6621078106107507 1 rotate no_reflect no_shear #
lump $-1 $-1 $29 $5 #
transform $-1 1 0 0 0 1 0 0 0 1 70.793176061281173 46.733823401030698 9.6621078106107507 1 rotate no_reflect no_shear #
lump $-1 $-1 $30 $6 #
transform $-1 1 0 0 0 1 0 0 0 1 70.793176061281173 46.733823401030698 9.6621078106107507 1 rotate no_reflect no_shear #
lump $-1 $-1 $31 $7 #
transform $-1 1 0 0 0 1 0 0 0 1 70.793176061281173 46.733823401030698 9.6621078106107507 1 rotate no_reflect no_shear #
shell $-1 $-1 $-1 $32 $-1 $8 #
shell $-1 $-1 $-1 $33 $-1 $10 #
shell $-1 $-1 $-1 $34 $-1 $12 #
shell $-1 $-1 $-1 $35 $-1 $14 #
shell $-1 $-1 $-1 $36 $-1 $16 #
shell $-1 $-1 $-1 $37 $-1 $18 #
shell $-1 $-1 $-1 $38 $-1 $20 #
shell $-1 $-1 $-1 $39 $-1 $22 #
face $-1 $40 $41 $24 $-1 $42 forward single #
face $-1 $43 $44 $25 $-1 $45 forward single #
face $-1 $46 $47 $26 $-1 $48 reversed single #
face $-1 $49 $50 $27 $-1 $51 forward single #
face $-1 $52 $53 $28 $-1 $54 forward single #
face $-1 $55 $56 $29 $-1 $57 reversed single #
face $-1 $58 $59 $30 $-1 $60 forward single #
face $-1 $61 $62 $31 $-1 $63 forward single #
face $-1 $64 $65 $24 $-1 $66 reversed single #
loop $-1 $-1 $67 $32 #
plane-surface $-1 0 0 9.6621078106107507 0 0 1 1 0 0 forward_v I I I I #
face $-1 $68 $69 $25 $-1 $70 reversed single #
loop $-1 $-1 $71 $33 #
plane-surface $-1 -70.793176061281173 0 0 1 0 0 0 0 -1 forward_v I I I I #
face $-1 $72 $73 $26 $-1 $74 reversed single #
loop $-1 $-1 $75 $34 #
plane-surface $-1 105.56333335584554 -5.6411167521339944 198.21931836531039 0 -1 0 -0.81915205242281985 0 -0.57357642473473569 forward_v I I I I #
face $-1 $76 $77 $27 $-1 $78 forward single #
loop $-1 $79 $80 $35 #
cone-surface $-1 66.363428950783472 -15.344280090803498 4.3599158062456285 -0.81915205242281985 0 -0.57357642473473569 0.86036463710210354 0 -1.2287280786342298 1 I I 0 1 1.5 forward I I I I #
face $-1 $81 $82 $28 $-1 $83 forward single #
loop $-1 $84 $85 $36 #
cone-surface $-1 66.363428950783472 -9.5223820876017982 4.3599158062456285 -0.81915205242281985 0 -0.57357642473473569 0.86036463710210354 0 -1.2287280786342298 1 I I 0 1 1.5 forward I I I I #
face $-1 $86 $87 $29 $-1 $88 reversed single #
loop $-1 $-1 $89 $37 #
plane-surface $-1 105.56333335584554 41.092706648896709 198.21931836531039 0 -1 0 -0.81915205242281985 0 -0.57357642473473569 forward_v I I I I #
face $-1 $90 $91 $30 $-1 $92 forward single #
loop $-1 $93 $94 $38 #
cone-surface $-1 66.363428950783472 31.389543310227204 4.3599158062456285 -0.81915205242281985 0 -0.57357642473473569 0.86036463710210354 0 -1.2287280786342298 1 I I 0 1 1.5 forward I I I I #
face $-1 $95 $96 $31 $-1 $97 forward single #
loop $-1 $98 $99 $39 #
cone-surface $-1 66.363428950783472 37.211441313428899 4.3599158062456285 -0.81915205242281985 0 -0.57357642473473569 0.86036463710210354 0 -1.2287280786342298 1 I I 0 1 1.5 forward I I I I #
face $-1 $100 $101 $24 $-1 $102 reversed single #
loop $-1 $-1 $103 $40 #
plane-surface $-1 0 0 -9.6621078106107507 0 0 1 1 0 0 forward_v I I I I #
coedge $-1 $104 $105 $106 $107 forward $41 $-1 #
face $-1 $108 $109 $25 $-1 $110 reversed single #
loop $-1 $-1 $111 $43 #
plane-surface $-1 0 0 -9.6621078106107507 0 0 1 1 0 0 forward_v I I I I #
coedge $-1 $112 $113 $114 $115 forward $44 $-1 #
face $-1 $116 $117 $26 $-1 $118 reversed single #
loop $-1 $-1 $119 $46 #
plane-surface $-1 -10.417417580411481 -12.433331089202646 117.00872472361772 0.81915205242281985 0 0.57357642473473569 0.57357642473473569 0 -0.81915205242281985 forward_v I I I I #
coedge $-1 $120 $121 $122 $123 reversed $47 $-1 #
face $-1 $-1 $124 $27 $-1 $125 forward single #
loop $-1 $126 $127 $49 #
cone-surface $-1 64.342160574229553 -15.344280090803498 2.9446084949544638 -0.81915205242281985 0 -0.57357642473473569 0.43018231855105177 0 -0.61436403931711492 1 I I -0.70710678118654757 0.70710678118654757 0.75 forward I I I I #
loop $-1 $-1 $128 $35 #
coedge $-1 $80 $80 $129 $130 reversed $50 $-1 #
face $-1 $-1 $131 $28 $-1 $132 forward single #
loop $-1 $133 $134 $52 #
cone-surface $-1 64.342160574229553 -9.5223820876017982 2.9446084949544638 -0.81915205242281985 0 -0.57357642473473569 0.43018231855105177 0 -0.61436403931711492 1 I I -0.70710678118654757 0.70710678118654757 0.75 forward I I I I #
loop $-1 $-1 $135 $36 #
coedge $-1 $85 $85 $136 $137 reversed $53 $-1 #
face $-1 $138 $139 $29 $-1 $140 reversed single #
loop $-1 $-1 $141 $55 #
plane-surface $-1 -10.417417580411481 34.300492311828059 117.00872472361772 0.81915205242281985 0 0.57357642473473569 0.57357642473473569 0 -0.81915205242281985 forward_v I I I I #
coedge $-1 $142 $143 $144 $145 reversed $56 $-1 #
face $-1 $-1 $146 $30 $-1 $147 forward single #
loop $-1 $148 $149 $58 #
cone-surface $-1 64.342160574229553 31.389543310227204 2.9446084949544638 -0.81915205242281985 0 -0.57357642473473569 0.43018231855105177 0 -0.61436403931711492 1 I I -0.70710678118654757 0.70710678118654757 0.75 forward I I I I #
loop $-1 $-1 $150 $38 #
coedge $-1 $94 $94 $151 $152 reversed $59 $-1 #
face $-1 $-1 $153 $31 $-1 $154 forward single #
loop $-1 $155 $156 $61 #
cone-surface $-1 64.342160574229553 37.211441313428899 2.9446084949544638 -0.81915205242281985 0 -0.57357642473473569 0.43018231855105177 0 -0.61436403931711492 1 I I -0.70710678118654757 0.70710678118654757 0.75 forward I I I I #
loop $-1 $-1 $157 $39 #
coedge $-1 $99 $99 $158 $159 reversed $62 $-1 #
face $-1 $160 $161 $24 $-1 $162 reversed single #
loop $-1 $-1 $163 $64 #
plane-surface $-1 0 -46.733823401030698 0 0 1 0 0 0 1 forward_v I I I I #
coedge $-1 $164 $165 $166 $167 forward $65 $-1 #
coedge $-1 $168 $67 $169 $170 forward $41 $-1 #
coedge $-1 $67 $168 $171 $172 forward $41 $-1 #
coedge $-1 $173 $174 $67 $107 reversed $175 $-1 #
edge $-1 $176 -46.733823401030698 $177 46.733823401030698 $106 $178 forward 7 unknown #
face $-1 $179 $180 $25 $-1 $181 reversed single #
loop $-1 $-1 $182 $68 #
plane-surface $-1 -75.223518025698667 -36.272651269796022 0 0 1 0 0 0 1 forward_v I I I I #
coedge $-1 $183 $184 $113 $185 forward $69 $-1 #
coedge $-1 $186 $71 $187 $188 reversed $44 $-1 #
coedge $-1 $71 $186 $111 $185 reversed $44 $-1 #
coedge $-1 $189 $190 $71 $115 reversed $191 $-1 #
edge $-1 $192 -9.6621078106107507 $193 9.6621078106107507 $114 $194 forward 7 unknown #
face $-1 $195 $196 $26 $-1 $197 forward single #
loop $-1 $-1 $198 $72 #
plane-surface $-1 105.56333335584554 -19.225545426271296 198.21931836531039 0 1 0 0.81915205242281985 0 0.57357642473473569 forward_v I I I I #
coedge $-1 $199 $200 $201 $202 reversed $73 $-1 #
coedge $-1 $121 $75 $203 $204 reversed $47 $-1 #
coedge $-1 $75 $120 $199 $205 reversed $47 $-1 #
coedge $-1 $201 $206 $75 $123 forward $196 $-1 #
edge $-1 $207 -18.011509383358401 $208 -11.96582383683662 $122 $209 forward 7 unknown #
loop $-1 $-1 $129 $76 #
plane-surface $-1 -10.417417580411481 -12.433331089202646 117.00872472361772 0.81915205242281985 0 0.57357642473473569 0.57357642473473569 0 -0.81915205242281985 forward_v I I I I #
loop $-1 $-1 $210 $49 #
coedge $-1 $127 $127 $128 $211 reversed $77 $-1 #
coedge $-1 $128 $128 $127 $211 forward $79 $-1 #
coedge $-1 $129 $129 $80 $130 forward $124 $-1 #
edge $-1 $212 0 $212 6.2831853071796004 $129 $213 forward 7 unknown #
loop $-1 $-1 $136 $81 #
plane-surface $-1 -10.417417580411481 -12.433331089202646 117.00872472361772 0.81915205242281985 0 0.57357642473473569 0.57357642473473569 0 -0.81915205242281985 forward_v I I I I #
loop $-1 $-1 $214 $52 #
coedge $-1 $134 $134 $135 $215 reversed $82 $-1 #
coedge $-1 $135 $135 $134 $215 forward $84 $-1 #
coedge $-1 $136 $136 $85 $137 forward $131 $-1 #
edge $-1 $216 0 $216 6.2831853071796004 $136 $217 forward 7 unknown #
face $-1 $218 $219 $29 $-1 $220 reversed single #
loop $-1 $-1 $221 $86 #
plane-surface $-1 105.56333335584554 27.508277974759409 198.21931836531039 0 1 0 0.81915205242281985 0 0.57357642473473569 forward_v I I I I #
coedge $-1 $222 $223 $224 $225 reversed $87 $-1 #
coedge $-1 $143 $89 $226 $227 reversed $56 $-1 #
coedge $-1 $89 $142 $222 $228 reversed $56 $-1 #
coedge $-1 $224 $229 $89 $145 forward $230 $-1 #
edge $-1 $231 -18.011509383358401 $232 -11.96582383683662 $144 $233 forward 7 unknown #
loop $-1 $-1 $151 $90 #
plane-surface $-1 -10.417417580411481 34.300492311828059 117.00872472361772 0.81915205242281985 0 0.57357642473473569 0.57357642473473569 0 -0.81915205242281985 forward_v I I I I #
loop $-1 $-1 $234 $58 #
coedge $-1 $149 $149 $150 $235 reversed $91 $-1 #
coedge $-1 $150 $150 $149 $235 forward $93 $-1 #
coedge $-1 $151 $151 $94 $152 forward $146 $-1 #
edge $-1 $236 0 $236 6.2831853071796004 $151 $237 forward 7 unknown #
loop $-1 $-1 $158 $95 #
plane-surface $-1 -10.417417580411481 34.300492311828059 117.00872472361772 0.81915205242281985 0 0.57357642473473569 0.57357642473473569 0 -0.81915205242281985 forward_v I I I I #
loop $-1 $-1 $238 $61 #
coedge $-1 $156 $156 $157 $239 reversed $96 $-1 #
coedge $-1 $157 $157 $156 $239 forward $98 $-1 #
coedge $-1 $158 $158 $99 $159 forward $153 $-1 #
edge $-1 $240 0 $240 6.2831853071796004 $158 $241 forward 7 unknown #
face $-1 $242 $243 $24 $-1 $244 reversed single #
loop $-1 $-1 $245 $100 #
plane-surface $-1 -70.793176061281173 0 0 1 0 0 0 0 -1 forward_v I I I I #
coedge $-1 $246 $171 $247 $248 forward $101 $-1 #
coedge $-1 $249 $103 $246 $250 forward $65 $-1 #
coedge $-1 $103 $249 $251 $252 forward $65 $-1 #
coedge $-1 $174 $173 $103 $167 reversed $175 $-1 #
edge $-1 $253 -46.733823401030698 $254 46.733823401030698 $166 $255 forward 7 unknown #
coedge $-1 $105 $104 $256 $257 forward $41 $-1 #
coedge $-1 $258 $259 $104 $170 reversed $243 $-1 #
edge $-1 $177 -70.793176061281173 $260 70.793176061281173 $169 $261 forward 7 unknown #
coedge $-1 $163 $262 $105 $172 reversed $101 $-1 #
edge $-1 $263 -70.793176061281173 $176 70.793176061281173 $171 $264 forward 7 unknown #
coedge $-1 $166 $106 $262 $265 forward $175 $-1 #
coedge $-1 $106 $166 $258 $266 reversed $175 $-1 #
loop $-1 $-1 $173 $242 #
vertex $-1 $107 $267 #
vertex $-1 $107 $268 #
straight-curve $-1 70.793176061281173 0 9.6621078106107507 0 1 0 I I #
face $-1 $269 $191 $25 $-1 $270 reversed single #
loop $-1 $-1 $271 $108 #
plane-surface $-1 -79.65385999011616 -34.500729151666775 0 1 0 0 0 0 -1 forward_v I I I I #
coedge $-1 $272 $273 $274 $275 forward $109 $-1 #
coedge $-1 $276 $111 $272 $277 forward $69 $-1 #
coedge $-1 $111 $276 $189 $278 forward $69 $-1 #
edge $-1 $192 32.728807033537528 $279 36.272651269796022 $111 $280 forward 7 unknown #
coedge $-1 $113 $112 $281 $282 forward $44 $-1 #
coedge $-1 $283 $284 $112 $188 forward $285 $-1 #
edge $-1 $286 -36.272651269796022 $193 -32.728807033537528 $187 $287 forward 7 unknown #
coedge $-1 $288 $114 $184 $278 reversed $191 $-1 #
coedge $-1 $114 $288 $283 $289 reversed $191 $-1 #
loop $-1 $-1 $114 $179 #
vertex $-1 $185 $290 #
vertex $-1 $289 $291 #
straight-curve $-1 -70.793176061281173 -32.728807033537528 0 0 0 1 I I #
face $-1 $-1 $292 $26 $-1 $293 reversed single #
loop $-1 $-1 $122 $116 #
plane-surface $-1 0 0 9.6621078106107507 0 0 1 1 0 0 forward_v I I I I #
coedge $-1 $294 $295 $296 $297 reversed $117 $-1 #
coedge $-1 $298 $119 $121 $205 forward $73 $-1 #
coedge $-1 $119 $298 $294 $299 forward $73 $-1 #
coedge $-1 $296 $122 $119 $202 forward $196 $-1 #
edge $-1 $208 -0.5755487924673286 $300 13.008879881669973 $201 $301 forward 7 unknown #
coedge $-1 $302 $303 $120 $204 forward $292 $-1 #
edge $-1 $304 -98.081685395294471 $207 -89.447551372044444 $203 $305 forward 7 unknown #
edge $-1 $208 131.04602081567896 $304 141.58635212256235 $121 $306 forward 7 unknown #
coedge $-1 $122 $296 $302 $307 forward $196 $-1 #
vertex $-1 $123 $308 #
vertex $-1 $123 $309 #
straight-curve $-1 52.781666677922772 -5.6411167521339944 9.662107810610749 -1 0 0 I I #
coedge $-1 $210 $210 $-1 $310 reversed $126 $-1 #
edge $-1 $311 0 $311 6.2831853071796004 $127 $312 forward 7 unknown #
vertex $-1 $130 $313 #
ellipse-curve $-1 67.770333288020282 -15.344280090803498 5.3450407989857416 0.81915205242281985 0 0.57357642473473569 0.86036463710210354 0 -1.2287280786342298 1 I I #
coedge $-1 $214 $214 $-1 $314 reversed $133 $-1 #
edge $-1 $315 0 $315 6.2831853071796004 $134 $316 forward 7 unknown #
vertex $-1 $137 $317 #
ellipse-curve $-1 67.770333288020282 -9.5223820876017982 5.3450407989857416 0.81915205242281985 0 0.57357642473473569 0.86036463710210354 0 -1.2287280786342298 1 I I #
face $-1 $-1 $230 $29 $-1 $318 forward single #
loop $-1 $-1 $319 $138 #
plane-surface $-1 70.793176061281173 0 0 -1 0 0 0 0 1 forward_v I I I I #
coedge $-1 $320 $321 $322 $323 reversed $139 $-1 #
coedge $-1 $324 $141 $143 $228 forward $87 $-1 #
coedge $-1 $141 $324 $320 $325 forward $87 $-1 #
coedge $-1 $322 $144 $141 $225 forward $230 $-1 #
edge $-1 $232 -23.942460492982679 $326 -10.358031818845379 $224 $327 forward 7 unknown #
coedge $-1 $328 $329 $142 $227 forward $219 $-1 #
edge $-1 $330 -98.081685395294471 $231 -89.447551372044444 $226 $331 forward 7 unknown #
edge $-1 $232 131.04602081567896 $330 141.58635212256235 $143 $332 forward 7 unknown #
coedge $-1 $144 $322 $328 $333 forward $230 $-1 #
loop $-1 $-1 $322 $218 #
vertex $-1 $227 $334 #
vertex $-1 $145 $335 #
straight-curve $-1 52.781666677922772 41.092706648896709 9.662107810610749 -1 0 0 I I #
coedge $-1 $234 $234 $-1 $336 reversed $148 $-1 #
edge $-1 $337 0 $337 6.2831853071796004 $149 $338 forward 7 unknown #
vertex $-1 $152 $339 #
ellipse-curve $-1 67.770333288020282 31.389543310227204 5.3450407989857416 0.81915205242281985 0 0.57357642473473569 0.86036463710210354 0 -1.2287280786342298 1 I I #
coedge $-1 $238 $238 $-1 $340 reversed $155 $-1 #
edge $-1 $341 0 $341 6.2831853071796004 $156 $342 forward 7 unknown #
vertex $-1 $159 $343 #
ellipse-curve $-1 67.770333288020282 37.211441313428899 5.3450407989857416 0.81915205242281985 0 0.57357642473473569 0.86036463710210354 0 -1.2287280786342298 1 I I #
face $-1 $-1 $175 $24 $-1 $344 reversed single #
loop $-1 $-1 $258 $160 #
plane-surface $-1 0 46.733823401030698 0 0 -1 0 0 0 -1 forward_v I I I I #
coedge $-1 $345 $256 $259 $346 forward $161 $-1 #
coedge $-1 $262 $163 $164 $250 reversed $101 $-1 #
coedge $-1 $256 $345 $163 $248 reversed $161 $-1 #
edge $-1 $263 -9.6621078106107507 $347 9.6621078106107507 $247 $348 forward 7 unknown #
coedge $-1 $165 $164 $345 $349 forward $65 $-1 #
edge $-1 $254 -70.793176061281173 $347 70.793176061281173 $246 $350 forward 7 unknown #
coedge $-1 $259 $258 $165 $252 reversed $243 $-1 #
edge $-1 $351 -70.793176061281173 $253 70.793176061281173 $251 $352 forward 7 unknown #
vertex $-1 $167 $353 #
vertex $-1 $265 $354 #
straight-curve $-1 70.793176061281173 0 -9.6621078106107507 0 -1 0 I I #
coedge $-1 $245 $247 $168 $257 reversed $161 $-1 #
edge $-1 $260 -46.733823401030698 $263 46.733823401030698 $256 $355 forward 7 unknown #
coedge $-1 $251 $169 $174 $266 forward $243 $-1 #
coedge $-1 $169 $251 $245 $346 reversed $243 $-1 #
vertex $-1 $170 $356 #
straight-curve $-1 0 46.733823401030698 9.6621078106107507 -1 0 0 I I #
coedge $-1 $171 $246 $173 $265 reversed $101 $-1 #
vertex $-1 $257 $357 #
straight-curve $-1 0 -46.733823401030698 9.6621078106107507 1 0 0 I I #
edge $-1 $176 -9.6621078106107507 $254 9.6621078106107507 $173 $358 forward 7 unknown #
edge $-1 $177 -9.6621078106107507 $253 9.6621078106107507 $174 $359 forward 7 unknown #
point $-1 70.793176061281173 -46.733823401030698 9.6621078106107507 #
point $-1 70.793176061281173 46.733823401030698 9.6621078106107507 #
face $-1 $-1 $285 $25 $-1 $360 forward single #
plane-surface $-1 -75.223518025698667 -32.728807033537528 0 0 -1 0 0 0 -1 forward_v I I I I #
coedge $-1 $361 $362 $288 $363 forward $180 $-1 #
coedge $-1 $281 $182 $183 $277 reversed $109 $-1 #
coedge $-1 $182 $281 $284 $364 reversed $109 $-1 #
coedge $-1 $362 $361 $182 $275 reversed $180 $-1 #
edge $-1 $365 -9.6621078106107507 $366 9.6621078106107507 $274 $367 forward 7 unknown #
coedge $-1 $184 $183 $361 $368 forward $69 $-1 #
edge $-1 $279 -4.4303419644174937 $366 4.4303419644174937 $272 $369 forward 7 unknown #
edge $-1 $370 -4.4303419644174937 $192 4.4303419644174937 $189 $371 forward 7 unknown #
vertex $-1 $277 $372 #
straight-curve $-1 -70.793176061281173 0 -9.6621078106107507 0 -1 0 I I #
coedge $-1 $273 $272 $186 $282 reversed $109 $-1 #
edge $-1 $286 -9.6621078106107507 $279 9.6621078106107507 $281 $373 forward 7 unknown #
coedge $-1 $374 $187 $190 $289 forward $285 $-1 #
coedge $-1 $187 $374 $273 $364 forward $285 $-1 #
loop $-1 $-1 $187 $269 #
vertex $-1 $188 $375 #
straight-curve $-1 -70.793176061281173 0 9.6621078106107507 0 1 0 I I #
coedge $-1 $190 $189 $271 $363 reversed $191 $-1 #
edge $-1 $193 -4.4303419644174937 $376 4.4303419644174937 $190 $377 forward 7 unknown #
point $-1 -70.793176061281173 -32.728807033537528 -9.6621078106107507 #
point $-1 -70.793176061281173 -32.728807033537528 9.6621078106107507 #
loop $-1 $-1 $203 $195 #
plane-surface $-1 70.793176061281173 0 0 -1 0 0 0 0 1 forward_v I I I I #
coedge $-1 $295 $198 $200 $299 reversed $117 $-1 #
coedge $-1 $198 $294 $378 $379 reversed $117 $-1 #
coedge $-1 $206 $201 $198 $297 forward $196 $-1 #
edge $-1 $300 11.96582383683662 $380 18.011509383358401 $296 $381 forward 7 unknown #
coedge $-1 $200 $199 $303 $382 reversed $73 $-1 #
edge $-1 $383 -141.58635212256235 $300 -131.04602081567896 $294 $384 forward 7 unknown #
vertex $-1 $202 $385 #
straight-curve $-1 64.747490514759392 -6.216665544601323 9.6621078106107348 0 -1 0 I I #
coedge $-1 $378 $203 $206 $307 reversed $292 $-1 #
coedge $-1 $203 $378 $298 $382 forward $292 $-1 #
vertex $-1 $204 $386 #
straight-curve $-1 70.793176061281173 -5.6411167521339944 99.109659182655193 0 0 1 I I #
straight-curve $-1 -10.417417580411481 -5.6411167521339944 117.00872472361772 0.57357642473473569 0 -0.81915205242281985 I I #
edge $-1 $380 -19.225545426271296 $207 -5.6411167521339944 $302 $387 forward 7 unknown #
point $-1 70.793176061281173 -5.6411167521339944 9.6621078106107507 #
point $-1 64.747490514759392 -5.6411167521339944 9.662107810610749 #
edge $-1 $388 1 $388 0 $210 $-1 forward 7 unknown #
vertex $-1 $211 $389 #
ellipse-curve $-1 64.956524613546662 -15.344280090803498 3.3747908135055154 0.81915205242281985 0 0.57357642473473569 0.86036463710210354 0 -1.2287280786342298 1 I I #
point $-1 68.630697925122377 -15.344280090803498 4.1163127203515115 #
edge $-1 $390 1 $390 0 $214 $-1 forward 7 unknown #
vertex $-1 $215 $391 #
ellipse-curve $-1 64.956524613546662 -9.5223820876017982 3.3747908135055154 0.81915205242281985 0 0.57357642473473569 0.86036463710210354 0 -1.2287280786342298 1 I I #
point $-1 68.630697925122377 -9.5223820876017982 4.1163127203515115 #
plane-surface $-1 0 0 9.6621078106107507 0 0 1 1 0 0 forward_v I I I I #
coedge $-1 $329 $328 $321 $392 forward $219 $-1 #
coedge $-1 $321 $221 $223 $325 reversed $139 $-1 #
coedge $-1 $221 $320 $319 $392 reversed $139 $-1 #
coedge $-1 $229 $224 $221 $323 forward $230 $-1 #
edge $-1 $326 11.96582383683662 $393 18.011509383358401 $322 $394 forward 7 unknown #
coedge $-1 $223 $222 $329 $395 reversed $87 $-1 #
edge $-1 $396 -141.58635212256235 $326 -131.04602081567896 $320 $397 forward 7 unknown #
vertex $-1 $225 $398 #
straight-curve $-1 64.747490514759392 17.150246155914029 9.6621078106107348 0 -1 0 I I #
coedge $-1 $319 $226 $229 $333 reversed $219 $-1 #
coedge $-1 $226 $319 $324 $395 forward $219 $-1 #
vertex $-1 $227 $399 #
straight-curve $-1 70.793176061281173 41.092706648896709 99.109659182655193 0 0 1 I I #
straight-curve $-1 -10.417417580411481 41.092706648896709 117.00872472361772 0.57357642473473569 0 -0.81915205242281985 I I #
edge $-1 $393 27.508277974759409 $231 41.092706648896709 $328 $400 forward 7 unknown #
point $-1 70.793176061281173 41.092706648896709 9.6621078106107507 #
point $-1 64.747490514759392 41.092706648896709 9.662107810610749 #
edge $-1 $401 1 $401 0 $234 $-1 forward 7 unknown #
vertex $-1 $235 $402 #
ellipse-curve $-1 64.956524613546662 31.389543310227204 3.3747908135055154 0.81915205242281985 0 0.57357642473473569 0.86036463710210354 0 -1.2287280786342298 1 I I #
point $-1 68.630697925122377 31.389543310227204 4.1163127203515115 #
edge $-1 $403 1 $403 0 $238 $-1 forward 7 unknown #
vertex $-1 $239 $404 #
ellipse-curve $-1 64.956524613546662 37.211441313428899 3.3747908135055154 0.81915205242281985 0 0.57357642473473569 0.86036463710210354 0 -1.2287280786342298 1 I I #
point $-1 68.630697925122377 37.211441313428899 4.1163127203515115 #
plane-surface $-1 70.793176061281173 0 0 -1 0 0 0 0 1 forward_v I I I I #
coedge $-1 $247 $245 $249 $349 reversed $161 $-1 #
edge $-1 $260 -9.6621078106107507 $351 9.6621078106107507 $259 $405 forward 7 unknown #
vertex $-1 $349 $406 #
straight-curve $-1 -70.793176061281173 -46.733823401030698 0 0 0 -1 I I #
edge $-1 $347 -46.733823401030698 $351 46.733823401030698 $345 $407 forward 7 unknown #
straight-curve $-1 0 -46.733823401030698 -9.6621078106107507 -1 0 0 I I #
vertex $-1 $252 $408 #
straight-curve $-1 0 46.733823401030698 -9.6621078106107507 1 0 0 I I #
point $-1 70.793176061281173 46.733823401030698 -9.6621078106107507 #
point $-1 70.793176061281173 -46.733823401030698 -9.6621078106107507 #
straight-curve $-1 -70.793176061281173 0 9.6621078106107507 0 -1 0 I I #
point $-1 -70.793176061281173 46.733823401030698 9.6621078106107507 #
point $-1 -70.793176061281173 -46.733823401030698 9.6621078106107507 #
straight-curve $-1 70.793176061281173 -46.733823401030698 0 0 0 -1 I I #
straight-curve $-1 70.793176061281173 46.733823401030698 0 0 0 -1 I I #
plane-surface $-1 0 0 9.6621078106107507 0 0 1 1 0 0 forward_v I I I I #
coedge $-1 $274 $271 $276 $368 reversed $180 $-1 #
coedge $-1 $271 $274 $374 $409 reversed $180 $-1 #
edge $-1 $376 -9.6621078106107507 $370 9.6621078106107507 $288 $410 forward 7 unknown #
edge $-1 $365 -4.4303419644174937 $286 4.4303419644174937 $273 $411 forward 7 unknown #
vertex $-1 $409 $412 #
vertex $-1 $368 $413 #
straight-curve $-1 -79.65385999011616 -36.272651269796022 0 0 0 -1 I I #
edge $-1 $366 -1.7719221181292468 $370 1.7719221181292468 $361 $414 forward 7 unknown #
straight-curve $-1 -75.223518025698667 -36.272651269796022 -9.6621078106107507 -1 0 0 I I #
vertex $-1 $278 $415 #
straight-curve $-1 -75.223518025698667 -32.728807033537528 -9.6621078106107507 1 0 0 I I #
point $-1 -70.793176061281173 -36.272651269796022 -9.6621078106107507 #
straight-curve $-1 -70.793176061281173 -36.272651269796022 0 0 0 -1 I I #
coedge $-1 $284 $283 $362 $409 forward $285 $-1 #
point $-1 -70.793176061281173 -36.272651269796022 9.6621078106107507 #
vertex $-1 $289 $416 #
straight-curve $-1 -75.223518025698667 -32.728807033537528 9.6621078106107507 -1 0 0 I I #
coedge $-1 $303 $302 $295 $379 forward $292 $-1 #
edge $-1 $380 89.447551372044444 $383 98.081685395294471 $378 $417 forward 7 unknown #
vertex $-1 $307 $418 #
straight-curve $-1 52.781666677922772 -19.225545426271296 9.662107810610749 1 0 0 I I #
edge $-1 $383 -13.008879881669973 $304 0.5755487924673286 $303 $419 forward 7 unknown #
vertex $-1 $382 $420 #
straight-curve $-1 -10.417417580411481 -19.225545426271296 117.00872472361772 -0.57357642473473569 0 0.81915205242281985 I I #
point $-1 64.747490514759392 -19.225545426271296 9.662107810610749 #
point $-1 70.793176061281173 -5.6411167521339944 1.0279737873607218 #
straight-curve $-1 70.793176061281173 0 9.6621078106107507 0 1 0 I I #
vertex $-1 $310 $421 #
point $-1 65.816889250648771 -15.344280090803498 2.1460627348712857 #
vertex $-1 $314 $422 #
point $-1 65.816889250648771 -9.5223820876017982 2.1460627348712857 #
edge $-1 $393 89.447551372044444 $396 98.081685395294471 $319 $423 forward 7 unknown #
vertex $-1 $333 $424 #
straight-curve $-1 52.781666677922772 27.508277974759409 9.662107810610749 1 0 0 I I #
edge $-1 $396 10.358031818845379 $330 23.942460492982679 $329 $425 forward 7 unknown #
vertex $-1 $395 $426 #
straight-curve $-1 -10.417417580411481 27.508277974759409 117.00872472361772 -0.57357642473473569 0 0.81915205242281985 I I #
point $-1 64.747490514759392 27.508277974759409 9.662107810610749 #
point $-1 70.793176061281173 41.092706648896709 1.0279737873607218 #
straight-curve $-1 70.793176061281173 0 9.6621078106107507 0 1 0 I I #
vertex $-1 $336 $427 #
point $-1 65.816889250648771 31.389543310227204 2.1460627348712857 #
vertex $-1 $340 $428 #
point $-1 65.816889250648771 37.211441313428899 2.1460627348712857 #
straight-curve $-1 -70.793176061281173 46.733823401030698 0 0 0 -1 I I #
point $-1 -70.793176061281173 -46.733823401030698 -9.6621078106107507 #
straight-curve $-1 -70.793176061281173 0 -9.6621078106107507 0 1 0 I I #
point $-1 -70.793176061281173 46.733823401030698 -9.6621078106107507 #
edge $-1 $376 -1.7719221181292468 $365 1.7719221181292468 $362 $429 forward 7 unknown #
straight-curve $-1 -79.65385999011616 -32.728807033537528 0 0 0 -1 I I #
straight-curve $-1 -75.223518025698667 -36.272651269796022 9.6621078106107507 1 0 0 I I #
point $-1 -79.65385999011616 -36.272651269796022 9.6621078106107507 #
point $-1 -79.65385999011616 -36.272651269796022 -9.6621078106107507 #
straight-curve $-1 -79.65385999011616 -34.500729151666775 -9.6621078106107507 0 1 0 I I #
point $-1 -79.65385999011616 -32.728807033537528 -9.6621078106107507 #
point $-1 -79.65385999011616 -32.728807033537528 9.6621078106107507 #
straight-curve $-1 70.793176061281173 -19.225545426271296 99.109659182655193 0 0 -1 I I #
point $-1 70.793176061281173 -19.225545426271296 9.6621078106107507 #
straight-curve $-1 70.793176061281173 -6.216665544601323 1.0279737873607075 0 1 0 I I #
point $-1 70.793176061281173 -19.225545426271296 1.0279737873607218 #
point $-1 63.727796534912436 -15.344280090803498 2.5144261764034121 #
point $-1 63.727796534912436 -9.5223820876017982 2.5144261764034121 #
straight-curve $-1 70.793176061281173 27.508277974759409 99.109659182655193 0 0 -1 I I #
point $-1 70.793176061281173 27.508277974759409 9.6621078106107507 #
straight-curve $-1 70.793176061281173 17.150246155914029 1.0279737873607075 0 1 0 I I #
point $-1 70.793176061281173 27.508277974759409 1.0279737873607218 #
point $-1 63.727796534912436 31.389543310227204 2.5144261764034121 #
point $-1 63.727796534912436 37.211441313428899 2.5144261764034121 #
straight-curve $-1 -79.65385999011616 -34.500729151666775 9.6621078106107507 0 -1 0 I I #
End-of-ACIS-data 