500 0 9 0           
7 Unknown 11 ACIS 5.0 NT 24 Fri Mar 26 17:41:43 1999 
-1 9.9999999999999995e-007 1e-010 
body $-1 $9 $-1 $10 #
body $-1 $11 $-1 $12 #
body $-1 $13 $-1 $14 #
body $-1 $15 $-1 $16 #
body $-1 $17 $-1 $18 #
body $-1 $19 $-1 $20 #
body $-1 $21 $-1 $22 #
body $-1 $23 $-1 $24 #
body $-1 $25 $-1 $26 #
lump $-1 $-1 $27 $0 #
transform $-1 1 0 0 0 1 0 0 0 1 69.388103885006259 39.544252239699034 14.704157344697927 1 rotate no_reflect no_shear #
lump $-1 $-1 $28 $1 #
transform $-1 1 0 0 0 1 0 0 0 1 69.388103885006259 39.544252239699034 14.704157344697927 1 rotate no_reflect no_shear #
lump $-1 $-1 $29 $2 #
transform $-1 1 0 0 0 1 0 0 0 1 69.388103885006259 39.544252239699034 14.704157344697927 1 rotate no_reflect no_shear #
lump $-1 $-1 $30 $3 #
transform $-1 1 0 0 0 1 0 0 0 1 69.388103885006259 39.544252239699034 14.704157344697927 1 rotate no_reflect no_shear #
lump $-1 $-1 $31 $4 #
transform $-1 1 0 0 0 1 0 0 0 1 69.388103885006259 39.544252239699034 14.704157344697927 1 rotate no_reflect no_shear #
lump $-1 $-1 $32 $5 #
transform $-1 1 0 0 0 1 0 0 0 1 69.388103885006259 39.544252239699034 14.704157344697927 1 rotate no_reflect no_shear #
lump $-1 $-1 $33 $6 #
transform $-1 1 0 0 0 1 0 0 0 1 69.388103885006259 39.544252239699034 14.704157344697927 1 rotate no_reflect no_shear #
lump $-1 $-1 $34 $7 #
transform $-1 1 0 0 0 1 0 0 0 1 69.388103885006259 39.544252239699034 14.704157344697927 1 rotate no_reflect no_shear #
lump $-1 $-1 $35 $8 #
transform $-1 1 0 0 0 1 0 0 0 1 69.388103885006259 39.544252239699034 14.704157344697927 1 rotate no_reflect no_shear #
shell $-1 $-1 $-1 $36 $-1 $9 #
shell $-1 $-1 $-1 $37 $-1 $11 #
shell $-1 $-1 $-1 $38 $-1 $13 #
shell $-1 $-1 $-1 $39 $-1 $15 #
shell $-1 $-1 $-1 $40 $-1 $17 #
shell $-1 $-1 $-1 $41 $-1 $19 #
shell $-1 $-1 $-1 $42 $-1 $21 #
shell $-1 $-1 $-1 $43 $-1 $23 #
shell $-1 $-1 $-1 $44 $-1 $25 #
face $-1 $45 $46 $27 $-1 $47 forward single #
face $-1 $48 $49 $28 $-1 $50 reversed single #
face $-1 $51 $52 $29 $-1 $53 reversed single #
face $-1 $54 $55 $30 $-1 $56 forward single #
face $-1 $57 $58 $31 $-1 $59 forward single #
face $-1 $60 $61 $32 $-1 $62 forward single #
face $-1 $63 $64 $33 $-1 $65 reversed single #
face $-1 $66 $67 $34 $-1 $68 forward single #
face $-1 $69 $70 $35 $-1 $71 forward single #
face $-1 $72 $73 $27 $-1 $74 reversed single #
loop $-1 $-1 $75 $36 #
plane-surface $-1 0 0 14.704157344697927 0 0 1 1 0 0 forward_v I I I I #
face $-1 $76 $77 $28 $-1 $78 reversed single #
loop $-1 $-1 $79 $37 #
plane-surface $-1 -61.696160696327439 -35.627045475765897 0 0 1 0 0 0 1 forward_v I I I I #
face $-1 $80 $81 $29 $-1 $82 reversed single #
loop $-1 $-1 $83 $38 #
plane-surface $-1 53.590218906509719 -39.544252239699034 3.7941086860371911 0 -0.62932039886446345 0.77714595512881146 1 0 0 forward_v I I I I #
face $-1 $84 $85 $30 $-1 $86 forward single #
loop $-1 $87 $88 $39 #
cone-surface $-1 44.1114879194118 -31.964084637287485 8.2071592842761021 0 0.62932039886446345 -0.77714595512881146 2 0 0 1 I I 0 1 2 forward I I I I #
face $-1 $89 $90 $31 $-1 $91 forward single #
loop $-1 $92 $93 $40 #
cone-surface $-1 53.590218906509719 -31.964084637287485 8.2071592842761021 0 0.62932039886446345 -0.77714595512881146 2 0 0 1 I I 0 1 2 forward I I I I #
face $-1 $94 $95 $32 $-1 $96 forward single #
loop $-1 $97 $98 $41 #
cone-surface $-1 63.068949893607638 -31.964084637287485 8.2071592842761021 0 0.62932039886446345 -0.77714595512881146 2 0 0 1 I I 0 1 2 forward I I I I #
face $-1 $99 $100 $33 $-1 $101 reversed single #
loop $-1 $-1 $102 $42 #
plane-surface $-1 -30.148339853246856 70.900785995874514 158.74919035550505 1 0 0 0 -0.6560590369687036 -0.75470957328743171 forward_v I I I I #
face $-1 $103 $104 $34 $-1 $105 forward single #
loop $-1 $106 $107 $43 #
cone-surface $-1 -25.651927083151122 31.767420133081568 7.7913749316019523 0 -0.6560590369687036 -0.75470957328743171 1 0 0 1 I I 0 1 1 forward I I I I #
face $-1 $108 $109 $35 $-1 $110 forward single #
loop $-1 $111 $112 $44 #
cone-surface $-1 -18.907307928007526 31.767420133081568 7.7913749316019523 0 -0.6560590369687036 -0.75470957328743171 1 0 0 1 I I 0 1 1 forward I I I I #
face $-1 $113 $114 $27 $-1 $115 reversed single #
loop $-1 $-1 $116 $45 #
plane-surface $-1 0 0 -14.704157344697927 0 0 1 1 0 0 forward_v I I I I #
coedge $-1 $117 $118 $119 $120 forward $46 $-1 #
face $-1 $121 $122 $28 $-1 $123 reversed single #
loop $-1 $-1 $124 $48 #
plane-surface $-1 -61.696160696327439 -27.178089707630164 0 0 -1 0 0 0 -1 forward_v I I I I #
coedge $-1 $125 $126 $127 $128 reversed $49 $-1 #
face $-1 $129 $130 $29 $-1 $131 reversed single #
loop $-1 $-1 $132 $51 #
plane-surface $-1 37.792333928013178 -126.87895066642096 111.64347722261796 1 0 0 0 0.62932039886446345 -0.77714595512881146 forward_v I I I I #
coedge $-1 $133 $134 $135 $136 reversed $52 $-1 #
face $-1 $-1 $137 $30 $-1 $138 forward single #
loop $-1 $139 $140 $54 #
cone-surface $-1 44.1114879194118 -30.490990530628213 6.3880395980558244 0 0.62932039886446345 -0.77714595512881146 1 0 0 1 I I -0.70710678118654746 0.70710678118654746 1 forward I I I I #
loop $-1 $-1 $141 $39 #
coedge $-1 $88 $88 $142 $143 reversed $55 $-1 #
face $-1 $-1 $144 $31 $-1 $145 forward single #
loop $-1 $146 $147 $57 #
cone-surface $-1 53.590218906509719 -30.490990530628213 6.3880395980558244 0 0.62932039886446345 -0.77714595512881146 1 0 0 1 I I -0.70710678118654746 0.70710678118654746 1 forward I I I I #
loop $-1 $-1 $148 $40 #
coedge $-1 $93 $93 $149 $150 reversed $58 $-1 #
face $-1 $-1 $151 $32 $-1 $152 forward single #
loop $-1 $153 $154 $60 #
cone-surface $-1 63.068949893607638 -30.490990530628213 6.3880395980558244 0 0.62932039886446345 -0.77714595512881146 1 0 0 1 I I -0.70710678118654746 0.70710678118654746 1 forward I I I I #
loop $-1 $-1 $155 $41 #
coedge $-1 $98 $98 $156 $157 reversed $61 $-1 #
face $-1 $158 $159 $33 $-1 $160 reversed single #
loop $-1 $-1 $161 $63 #
plane-surface $-1 -22.279617505579324 -20.144599227888619 54.013457806950939 0 0.6560590369687036 0.75470957328743171 1 0 0 forward_v I I I I #
coedge $-1 $162 $163 $164 $165 reversed $64 $-1 #
face $-1 $-1 $166 $34 $-1 $167 forward single #
loop $-1 $168 $169 $66 #
cone-surface $-1 -25.651927083151122 30.896896043636588 6.7899515427602051 0 -0.6560590369687036 -0.75470957328743171 0.5 0 0 1 I I -0.70710678118654746 0.70710678118654746 0.5 forward I I I I #
loop $-1 $-1 $170 $43 #
coedge $-1 $107 $107 $171 $172 reversed $67 $-1 #
face $-1 $-1 $173 $35 $-1 $174 forward single #
loop $-1 $175 $176 $69 #
cone-surface $-1 -18.907307928007526 30.896896043636588 6.7899515427602051 0 -0.6560590369687036 -0.75470957328743171 0.5 0 0 1 I I -0.70710678118654746 0.70710678118654746 0.5 forward I I I I #
loop $-1 $-1 $177 $44 #
coedge $-1 $112 $112 $178 $179 reversed $70 $-1 #
face $-1 $180 $181 $27 $-1 $182 reversed single #
loop $-1 $-1 $183 $72 #
plane-surface $-1 0 -39.544252239699034 0 0 1 0 0 0 1 forward_v I I I I #
coedge $-1 $184 $185 $186 $187 forward $73 $-1 #
coedge $-1 $188 $75 $189 $190 forward $46 $-1 #
coedge $-1 $75 $188 $191 $192 forward $46 $-1 #
coedge $-1 $193 $194 $75 $120 reversed $195 $-1 #
edge $-1 $196 -39.544252239699034 $197 39.544252239699034 $119 $198 forward 7 unknown #
face $-1 $199 $200 $28 $-1 $201 reversed single #
loop $-1 $-1 $202 $76 #
plane-surface $-1 -54.004217507648619 -31.40256759169803 0 -1 0 0 0 0 1 forward_v I I I I #
coedge $-1 $203 $204 $205 $206 forward $77 $-1 #
coedge $-1 $207 $79 $208 $209 reversed $49 $-1 #
coedge $-1 $79 $207 $210 $211 reversed $49 $-1 #
coedge $-1 $212 $213 $79 $128 forward $214 $-1 #
edge $-1 $215 -14.704157344697927 $216 14.704157344697927 $127 $217 forward 7 unknown #
face $-1 $218 $219 $29 $-1 $220 forward single #
loop $-1 $-1 $221 $80 #
plane-surface $-1 0 -39.544252239699034 0 0 1 0 0 0 1 forward_v I I I I #
coedge $-1 $222 $223 $224 $225 reversed $81 $-1 #
coedge $-1 $226 $83 $227 $228 reversed $52 $-1 #
coedge $-1 $83 $226 $222 $229 forward $52 $-1 #
coedge $-1 $224 $230 $83 $136 forward $219 $-1 #
edge $-1 $231 -42.5929944317514 $232 -10.997224474758319 $135 $233 forward 7 unknown #
loop $-1 $-1 $142 $84 #
plane-surface $-1 53.590218906509719 -39.544252239699034 3.7941086860371911 0 -0.62932039886446345 0.77714595512881146 1 0 0 forward_v I I I I #
loop $-1 $-1 $234 $54 #
coedge $-1 $140 $140 $141 $235 reversed $85 $-1 #
coedge $-1 $141 $141 $140 $235 forward $87 $-1 #
coedge $-1 $142 $142 $88 $143 forward $137 $-1 #
edge $-1 $236 -2.168261346330268e-015 $236 6.2831853071795987 $142 $237 forward 7 unknown #
loop $-1 $-1 $149 $89 #
plane-surface $-1 53.590218906509719 -39.544252239699034 3.7941086860371911 0 -0.62932039886446345 0.77714595512881146 1 0 0 forward_v I I I I #
loop $-1 $-1 $238 $57 #
coedge $-1 $147 $147 $148 $239 reversed $90 $-1 #
coedge $-1 $148 $148 $147 $239 forward $92 $-1 #
coedge $-1 $149 $149 $93 $150 forward $144 $-1 #
edge $-1 $240 -2.168261346330268e-015 $240 6.2831853071795987 $149 $241 forward 7 unknown #
loop $-1 $-1 $156 $94 #
plane-surface $-1 53.590218906509719 -39.544252239699034 3.7941086860371911 0 -0.62932039886446345 0.77714595512881146 1 0 0 forward_v I I I I #
loop $-1 $-1 $242 $60 #
coedge $-1 $154 $154 $155 $243 reversed $95 $-1 #
coedge $-1 $155 $155 $154 $243 forward $97 $-1 #
coedge $-1 $156 $156 $98 $157 forward $151 $-1 #
edge $-1 $244 -2.168261346330268e-015 $244 6.2831853071795987 $156 $245 forward 7 unknown #
face $-1 $246 $247 $33 $-1 $248 forward single #
loop $-1 $-1 $249 $99 #
plane-surface $-1 -14.410895157911792 70.900785995874514 158.74919035550505 -1 0 0 0 0.6560590369687036 0.75470957328743171 forward_v I I I I #
coedge $-1 $250 $251 $252 $253 reversed $100 $-1 #
coedge $-1 $163 $102 $254 $255 reversed $64 $-1 #
coedge $-1 $102 $162 $250 $256 reversed $64 $-1 #
coedge $-1 $252 $257 $102 $165 forward $247 $-1 #
edge $-1 $258 -4.093859241761777 $259 10.374815829551892 $164 $260 forward 7 unknown #
loop $-1 $-1 $171 $103 #
plane-surface $-1 -22.279617505579324 -20.144599227888619 54.013457806950939 0 0.6560590369687036 0.75470957328743171 1 0 0 forward_v I I I I #
loop $-1 $-1 $261 $66 #
coedge $-1 $169 $169 $170 $262 reversed $104 $-1 #
coedge $-1 $170 $170 $169 $262 forward $106 $-1 #
coedge $-1 $171 $171 $107 $172 forward $166 $-1 #
edge $-1 $263 7.0095421960110184e-016 $263 6.2831853071796013 $171 $264 forward 7 unknown #
loop $-1 $-1 $178 $108 #
plane-surface $-1 -22.279617505579324 -20.144599227888619 54.013457806950939 0 0.6560590369687036 0.75470957328743171 1 0 0 forward_v I I I I #
loop $-1 $-1 $265 $69 #
coedge $-1 $176 $176 $177 $266 reversed $109 $-1 #
coedge $-1 $177 $177 $176 $266 forward $111 $-1 #
coedge $-1 $178 $178 $112 $179 forward $173 $-1 #
edge $-1 $267 7.0095421960110184e-016 $267 6.2831853071796013 $178 $268 forward 7 unknown #
face $-1 $269 $270 $27 $-1 $271 reversed single #
loop $-1 $-1 $272 $113 #
plane-surface $-1 -69.388103885006259 0 0 1 0 0 0 0 -1 forward_v I I I I #
coedge $-1 $273 $191 $274 $275 forward $114 $-1 #
coedge $-1 $276 $116 $273 $277 forward $73 $-1 #
coedge $-1 $116 $276 $278 $279 forward $73 $-1 #
coedge $-1 $194 $193 $116 $187 reversed $195 $-1 #
edge $-1 $280 -39.544252239699034 $281 39.544252239699034 $186 $282 forward 7 unknown #
coedge $-1 $118 $117 $283 $284 forward $46 $-1 #
coedge $-1 $285 $286 $117 $190 reversed $270 $-1 #
edge $-1 $197 -69.388103885006259 $287 69.388103885006259 $189 $288 forward 7 unknown #
coedge $-1 $183 $289 $118 $192 reversed $114 $-1 #
edge $-1 $290 -69.388103885006259 $196 69.388103885006259 $191 $291 forward 7 unknown #
coedge $-1 $186 $119 $289 $292 forward $195 $-1 #
coedge $-1 $119 $186 $285 $293 reversed $195 $-1 #
loop $-1 $-1 $193 $269 #
vertex $-1 $120 $294 #
vertex $-1 $120 $295 #
straight-curve $-1 69.388103885006259 0 14.704157344697927 0 1 0 I I #
face $-1 $296 $297 $28 $-1 $298 forward single #
loop $-1 $-1 $299 $121 #
plane-surface $-1 0 0 -14.704157344697927 0 0 1 1 0 0 forward_v I I I I #
coedge $-1 $300 $301 $207 $302 forward $122 $-1 #
coedge $-1 $303 $124 $299 $304 reversed $77 $-1 #
coedge $-1 $124 $303 $305 $306 reversed $77 $-1 #
coedge $-1 $301 $300 $124 $206 reversed $122 $-1 #
edge $-1 $307 -14.704157344697927 $308 14.704157344697927 $205 $309 forward 7 unknown #
coedge $-1 $126 $125 $202 $302 reversed $49 $-1 #
coedge $-1 $310 $311 $125 $209 forward $200 $-1 #
edge $-1 $312 23.156137159484899 $215 38.54002353684254 $208 $313 forward 7 unknown #
coedge $-1 $314 $315 $126 $211 forward $297 $-1 #
edge $-1 $216 -38.54002353684254 $316 -23.156137159484899 $210 $317 forward 7 unknown #
coedge $-1 $318 $127 $315 $319 reversed $214 $-1 #
coedge $-1 $127 $318 $310 $320 reversed $214 $-1 #
loop $-1 $-1 $318 $296 #
vertex $-1 $320 $321 #
vertex $-1 $128 $322 #
straight-curve $-1 -69.388103885006259 -35.627045475765897 0 0 0 1 I I #
face $-1 $-1 $323 $29 $-1 $324 reversed single #
loop $-1 $-1 $224 $129 #
plane-surface $-1 0 0 14.704157344697927 0 0 1 1 0 0 forward_v I I I I #
coedge $-1 $325 $326 $223 $327 forward $130 $-1 #
coedge $-1 $223 $132 $134 $229 reversed $81 $-1 #
coedge $-1 $132 $222 $221 $327 reversed $81 $-1 #
coedge $-1 $328 $135 $132 $225 forward $219 $-1 #
edge $-1 $232 -37.368010882744954 $329 -23.895223093511447 $224 $330 forward 7 unknown #
coedge $-1 $134 $133 $325 $331 reversed $52 $-1 #
coedge $-1 $332 $333 $133 $228 forward $323 $-1 #
edge $-1 $334 -14.171972842521749 $231 3.1642658656889946 $227 $335 forward 7 unknown #
edge $-1 $336 0 $232 17.336238708210743 $222 $337 forward 7 unknown #
coedge $-1 $135 $328 $332 $338 forward $219 $-1 #
vertex $-1 $228 $339 #
vertex $-1 $136 $340 #
straight-curve $-1 26.795109453254859 -26.07146445046552 14.704157344697927 -1 0 0 I I #
coedge $-1 $234 $234 $-1 $341 reversed $139 $-1 #
edge $-1 $342 0 $342 6.2831853071796004 $140 $343 forward 7 unknown #
vertex $-1 $143 $344 #
ellipse-curve $-1 44.1114879194118 -32.80785834508228 9.2491330153675566 0 -0.62932039886446345 0.77714595512881146 2 0 0 1 I I #
coedge $-1 $238 $238 $-1 $345 reversed $146 $-1 #
edge $-1 $346 0 $346 6.2831853071796004 $147 $347 forward 7 unknown #
vertex $-1 $150 $348 #
ellipse-curve $-1 53.590218906509719 -32.80785834508228 9.2491330153675566 0 -0.62932039886446345 0.77714595512881146 2 0 0 1 I I #
coedge $-1 $242 $242 $-1 $349 reversed $153 $-1 #
edge $-1 $350 0 $350 6.2831853071796004 $154 $351 forward 7 unknown #
vertex $-1 $157 $352 #
ellipse-curve $-1 63.068949893607638 -32.80785834508228 9.2491330153675566 0 -0.62932039886446345 0.77714595512881146 2 0 0 1 I I #
face $-1 $-1 $353 $33 $-1 $354 reversed single #
loop $-1 $-1 $164 $158 #
plane-surface $-1 0 0 14.704157344697927 0 0 1 1 0 0 forward_v I I I I #
coedge $-1 $355 $356 $357 $358 reversed $159 $-1 #
coedge $-1 $359 $161 $163 $256 forward $100 $-1 #
coedge $-1 $161 $359 $355 $360 forward $100 $-1 #
coedge $-1 $357 $164 $161 $253 forward $247 $-1 #
edge $-1 $259 -19.008531100457194 $361 -3.27108640512213 $252 $362 forward 7 unknown #
coedge $-1 $363 $364 $162 $255 forward $353 $-1 #
edge $-1 $365 -77.247865454850484 $258 -64.670437833054592 $254 $366 forward 7 unknown #
edge $-1 $259 59.917321837193455 $365 79.088504479398082 $163 $367 forward 7 unknown #
coedge $-1 $164 $357 $363 $368 forward $247 $-1 #
vertex $-1 $255 $369 #
vertex $-1 $165 $370 #
straight-curve $-1 -30.148339853246856 35.450392997937257 14.704157344697933 0 -1 0 I I #
coedge $-1 $261 $261 $-1 $371 reversed $168 $-1 #
edge $-1 $372 0 $372 6.2831853071796004 $169 $373 forward 7 unknown #
vertex $-1 $172 $374 #
ellipse-curve $-1 -25.651927083151122 32.309914704042193 8.4154435337999782 0 0.6560590369687036 0.75470957328743171 1 0 0 1 I I #
coedge $-1 $265 $265 $-1 $375 reversed $175 $-1 #
edge $-1 $376 0 $376 6.2831853071796004 $176 $377 forward 7 unknown #
vertex $-1 $179 $378 #
ellipse-curve $-1 -18.907307928007526 32.309914704042193 8.4154435337999782 0 0.6560590369687036 0.75470957328743171 1 0 0 1 I I #
face $-1 $-1 $195 $27 $-1 $379 reversed single #
loop $-1 $-1 $285 $180 #
plane-surface $-1 0 39.544252239699034 0 0 -1 0 0 0 -1 forward_v I I I I #
coedge $-1 $380 $283 $286 $381 forward $181 $-1 #
coedge $-1 $289 $183 $184 $277 reversed $114 $-1 #
coedge $-1 $283 $380 $183 $275 reversed $181 $-1 #
edge $-1 $290 -14.704157344697927 $382 14.704157344697927 $274 $383 forward 7 unknown #
coedge $-1 $185 $184 $380 $384 forward $73 $-1 #
edge $-1 $281 -69.388103885006259 $382 69.388103885006259 $273 $385 forward 7 unknown #
coedge $-1 $286 $285 $185 $279 reversed $270 $-1 #
edge $-1 $386 -69.388103885006259 $280 69.388103885006259 $278 $387 forward 7 unknown #
vertex $-1 $187 $388 #
vertex $-1 $292 $389 #
straight-curve $-1 69.388103885006259 0 -14.704157344697927 0 -1 0 I I #
coedge $-1 $272 $274 $188 $284 reversed $181 $-1 #
edge $-1 $287 -39.544252239699034 $290 39.544252239699034 $283 $390 forward 7 unknown #
coedge $-1 $278 $189 $194 $293 forward $270 $-1 #
coedge $-1 $189 $278 $272 $381 reversed $270 $-1 #
vertex $-1 $190 $391 #
straight-curve $-1 0 39.544252239699034 14.704157344697927 -1 0 0 I I #
coedge $-1 $191 $273 $193 $292 reversed $114 $-1 #
vertex $-1 $284 $392 #
straight-curve $-1 0 -39.544252239699034 14.704157344697927 1 0 0 I I #
edge $-1 $196 -14.704157344697927 $281 14.704157344697927 $193 $393 forward 7 unknown #
edge $-1 $197 -14.704157344697927 $280 14.704157344697927 $194 $394 forward 7 unknown #
point $-1 69.388103885006259 -39.544252239699034 14.704157344697927 #
point $-1 69.388103885006259 39.544252239699034 14.704157344697927 #
face $-1 $-1 $214 $28 $-1 $395 reversed single #
loop $-1 $-1 $305 $199 #
plane-surface $-1 0 0 14.704157344697927 0 0 1 1 0 0 forward_v I I I I #
coedge $-1 $311 $310 $203 $304 forward $200 $-1 #
coedge $-1 $205 $202 $311 $396 reversed $122 $-1 #
coedge $-1 $202 $205 $314 $397 reversed $122 $-1 #
edge $-1 $316 -14.704157344697927 $312 14.704157344697927 $202 $398 forward 7 unknown #
coedge $-1 $204 $203 $318 $399 reversed $77 $-1 #
edge $-1 $400 -38.54002353684254 $308 -23.156137159484899 $299 $401 forward 7 unknown #
coedge $-1 $315 $314 $204 $306 forward $297 $-1 #
edge $-1 $307 23.156137159484899 $402 38.54002353684254 $305 $403 forward 7 unknown #
vertex $-1 $306 $404 #
vertex $-1 $304 $405 #
straight-curve $-1 -54.004217507648619 -27.178089707630164 0 0 0 -1 I I #
coedge $-1 $299 $208 $213 $320 forward $200 $-1 #
coedge $-1 $208 $299 $300 $396 forward $200 $-1 #
vertex $-1 $209 $406 #
straight-curve $-1 -30.84808034816372 -35.627045475765897 -14.704157344697927 -1 0 0 I I #
coedge $-1 $305 $210 $301 $397 forward $297 $-1 #
coedge $-1 $210 $305 $212 $319 forward $297 $-1 #
vertex $-1 $211 $407 #
straight-curve $-1 -30.84808034816372 -35.627045475765897 14.704157344697927 1 0 0 I I #
coedge $-1 $213 $212 $303 $399 forward $214 $-1 #
edge $-1 $402 27.178089707630164 $216 35.627045475765897 $212 $408 forward 7 unknown #
edge $-1 $215 -35.627045475765897 $400 -27.178089707630164 $213 $409 forward 7 unknown #
point $-1 -69.388103885006259 -35.627045475765897 -14.704157344697927 #
point $-1 -69.388103885006259 -35.627045475765897 14.704157344697927 #
loop $-1 $-1 $227 $218 #
plane-surface $-1 69.388103885006259 0 0 -1 0 0 0 0 1 forward_v I I I I #
coedge $-1 $410 $221 $226 $331 forward $130 $-1 #
coedge $-1 $221 $410 $328 $411 reversed $130 $-1 #
edge $-1 $329 41.117581266611055 $336 52.027629925271789 $221 $412 forward 7 unknown #
coedge $-1 $230 $224 $326 $411 forward $219 $-1 #
vertex $-1 $411 $413 #
straight-curve $-1 37.792333928013178 -63.439475333210481 14.704157344697926 0 -1 0 I I #
edge $-1 $336 10.997224474758319 $334 42.5929944317514 $325 $414 forward 7 unknown #
coedge $-1 $333 $227 $230 $338 reversed $323 $-1 #
coedge $-1 $227 $332 $410 $415 forward $323 $-1 #
vertex $-1 $331 $416 #
straight-curve $-1 69.388103885006259 -28.530560868937894 12.712820287989322 0 0.77714595512881146 0.62932039886446345 I I #
vertex $-1 $331 $417 #
straight-curve $-1 37.792333928013178 -39.544252239699034 3.7941086860371911 0 0.77714595512881146 0.62932039886446345 I I #
edge $-1 $418 -39.544252239699034 $231 -26.071464450465523 $332 $419 forward 7 unknown #
point $-1 69.388103885006259 -26.071464450465523 14.704157344697926 #
point $-1 37.792333928013178 -26.071464450465523 14.704157344697926 #
edge $-1 $420 1 $420 0 $234 $-1 forward 7 unknown #
vertex $-1 $235 $421 #
ellipse-curve $-1 44.1114879194118 -31.120310929492678 7.165185553184636 0 -0.62932039886446345 0.77714595512881146 2 0 0 1 I I #
point $-1 46.1114879194118 -32.807858345082295 9.2491330153675673 #
edge $-1 $422 1 $422 0 $238 $-1 forward 7 unknown #
vertex $-1 $239 $423 #
ellipse-curve $-1 53.590218906509719 -31.120310929492678 7.165185553184636 0 -0.62932039886446345 0.77714595512881146 2 0 0 1 I I #
point $-1 55.590218906509719 -32.807858345082295 9.2491330153675673 #
edge $-1 $424 1 $424 0 $242 $-1 forward 7 unknown #
vertex $-1 $243 $425 #
ellipse-curve $-1 63.068949893607638 -31.120310929492678 7.165185553184636 0 -0.62932039886446345 0.77714595512881146 2 0 0 1 I I #
point $-1 65.068949893607638 -32.807858345082295 9.2491330153675673 #
loop $-1 $-1 $254 $246 #
plane-surface $-1 0 39.544252239699034 0 0 -1 0 0 0 -1 forward_v I I I I #
coedge $-1 $356 $249 $251 $360 reversed $159 $-1 #
coedge $-1 $249 $355 $426 $427 reversed $159 $-1 #
coedge $-1 $257 $252 $249 $358 forward $247 $-1 #
edge $-1 $361 -10.374815829551892 $428 4.093859241761777 $357 $429 forward 7 unknown #
coedge $-1 $251 $250 $364 $430 reversed $100 $-1 #
edge $-1 $431 -79.088504479398082 $361 -59.917321837193455 $355 $432 forward 7 unknown #
vertex $-1 $253 $433 #
straight-curve $-1 -11.139808752789662 25.075577168385362 14.704157344697929 1 0 0 I I #
coedge $-1 $426 $254 $257 $368 reversed $353 $-1 #
coedge $-1 $254 $426 $359 $430 forward $353 $-1 #
vertex $-1 $255 $434 #
straight-curve $-1 -30.148339853246856 39.544252239699034 79.374595177752525 0 0 1 I I #
straight-curve $-1 -30.148339853246856 -20.144599227888619 54.013457806950939 0 0.75470957328743171 -0.6560590369687036 I I #
edge $-1 $428 14.410895157911792 $258 30.148339853246856 $363 $435 forward 7 unknown #
point $-1 -30.148339853246856 39.544252239699034 14.704157344697927 #
point $-1 -30.148339853246856 25.075577168385365 14.704157344697926 #
edge $-1 $436 1 $436 0 $261 $-1 forward 7 unknown #
vertex $-1 $262 $437 #
ellipse-curve $-1 -25.651927083151122 31.224925562120941 7.167306329403921 0 0.6560590369687036 0.75470957328743171 1 0 0 1 I I #
point $-1 -24.651927083151122 32.3099147040422 8.4154435337999853 #
edge $-1 $438 1 $438 0 $265 $-1 forward 7 unknown #
vertex $-1 $266 $439 #
ellipse-curve $-1 -18.907307928007526 31.224925562120941 7.167306329403921 0 0.6560590369687036 0.75470957328743171 1 0 0 1 I I #
point $-1 -17.907307928007526 32.3099147040422 8.4154435337999853 #
plane-surface $-1 69.388103885006259 0 0 -1 0 0 0 0 1 forward_v I I I I #
coedge $-1 $274 $272 $276 $384 reversed $181 $-1 #
edge $-1 $287 -14.704157344697927 $386 14.704157344697927 $286 $440 forward 7 unknown #
vertex $-1 $384 $441 #
straight-curve $-1 -69.388103885006259 -39.544252239699034 0 0 0 -1 I I #
edge $-1 $382 -39.544252239699034 $386 39.544252239699034 $380 $442 forward 7 unknown #
straight-curve $-1 0 -39.544252239699034 -14.704157344697927 -1 0 0 I I #
vertex $-1 $279 $443 #
straight-curve $-1 0 39.544252239699034 -14.704157344697927 1 0 0 I I #
point $-1 69.388103885006259 39.544252239699034 -14.704157344697927 #
point $-1 69.388103885006259 -39.544252239699034 -14.704157344697927 #
straight-curve $-1 -69.388103885006259 0 14.704157344697927 0 -1 0 I I #
point $-1 -69.388103885006259 39.544252239699034 14.704157344697927 #
point $-1 -69.388103885006259 -39.544252239699034 14.704157344697927 #
straight-curve $-1 69.388103885006259 -39.544252239699034 0 0 0 -1 I I #
straight-curve $-1 69.388103885006259 39.544252239699034 0 0 0 -1 I I #
plane-surface $-1 -69.388103885006259 0 0 1 0 0 0 0 -1 forward_v I I I I #
edge $-1 $308 11.476805911781149 $312 19.925761679916882 $311 $444 forward 7 unknown #
edge $-1 $316 -19.925761679916882 $307 -11.476805911781149 $314 $445 forward 7 unknown #
straight-curve $-1 -54.004217507648619 -35.627045475765897 0 0 0 -1 I I #
edge $-1 $402 -14.704157344697927 $400 14.704157344697927 $318 $446 forward 7 unknown #
vertex $-1 $399 $447 #
straight-curve $-1 -30.84808034816372 -27.178089707630164 -14.704157344697927 1 0 0 I I #
vertex $-1 $319 $448 #
straight-curve $-1 -30.84808034816372 -27.178089707630164 14.704157344697927 -1 0 0 I I #
point $-1 -54.004217507648619 -27.178089707630164 14.704157344697927 #
point $-1 -54.004217507648619 -27.178089707630164 -14.704157344697927 #
point $-1 -54.004217507648619 -35.627045475765897 -14.704157344697927 #
point $-1 -54.004217507648619 -35.627045475765897 14.704157344697927 #
straight-curve $-1 -69.388103885006259 0 14.704157344697927 0 -1 0 I I #
straight-curve $-1 -69.388103885006259 0 -14.704157344697927 0 1 0 I I #
coedge $-1 $326 $325 $333 $415 reversed $130 $-1 #
edge $-1 $329 37.792333928013178 $418 69.388103885006259 $326 $449 forward 7 unknown #
straight-curve $-1 37.792333928013178 -39.544252239699034 55.82173861130898 0 0 -1 I I #
point $-1 37.792333928013178 -39.544252239699034 14.704157344697927 #
straight-curve $-1 26.795109453254859 -39.544252239699034 3.794108686037192 1 0 0 I I #
edge $-1 $418 -14.704157344697927 $334 -3.7941086860371911 $333 $450 forward 7 unknown #
point $-1 69.388103885006259 -39.544252239699034 3.7941086860371911 #
point $-1 37.792333928013178 -39.544252239699034 3.7941086860371911 #
vertex $-1 $338 $451 #
straight-curve $-1 69.388103885006259 0 14.704157344697927 0 1 0 I I #
vertex $-1 $341 $452 #
point $-1 46.1114879194118 -31.120310929492678 7.165185553184636 #
vertex $-1 $345 $453 #
point $-1 55.590218906509719 -31.120310929492678 7.165185553184636 #
vertex $-1 $349 $454 #
point $-1 65.068949893607638 -31.120310929492678 7.165185553184636 #
coedge $-1 $364 $363 $356 $427 forward $353 $-1 #
edge $-1 $428 64.670437833054592 $431 77.247865454850484 $426 $455 forward 7 unknown #
vertex $-1 $368 $456 #
straight-curve $-1 -14.410895157911792 35.450392997937257 14.704157344697933 0 1 0 I I #
edge $-1 $431 3.27108640512213 $365 19.008531100457194 $364 $457 forward 7 unknown #
vertex $-1 $430 $458 #
straight-curve $-1 -14.410895157911792 -20.144599227888619 54.013457806950939 0 -0.75470957328743171 0.6560590369687036 I I #
point $-1 -14.410895157911792 25.075577168385365 14.704157344697926 #
point $-1 -30.148339853246856 39.544252239699041 2.1267297229020343 #
straight-curve $-1 0 39.544252239699034 14.704157344697927 -1 0 0 I I #
vertex $-1 $371 $459 #
point $-1 -24.651927083151122 31.224925562120941 7.167306329403921 #
vertex $-1 $375 $460 #
point $-1 -17.907307928007526 31.224925562120941 7.167306329403921 #
straight-curve $-1 -69.388103885006259 39.544252239699034 0 0 0 -1 I I #
point $-1 -69.388103885006259 -39.544252239699034 -14.704157344697927 #
straight-curve $-1 -69.388103885006259 0 -14.704157344697927 0 1 0 I I #
point $-1 -69.388103885006259 39.544252239699034 -14.704157344697927 #
straight-curve $-1 -54.004217507648619 -15.701283795849015 -14.704157344697927 0 -1 0 I I #
straight-curve $-1 -54.004217507648619 -15.701283795849015 14.704157344697927 0 1 0 I I #
straight-curve $-1 -69.388103885006259 -27.178089707630164 0 0 0 -1 I I #
point $-1 -69.388103885006259 -27.178089707630164 -14.704157344697927 #
point $-1 -69.388103885006259 -27.178089707630164 14.704157344697927 #
straight-curve $-1 0 -39.544252239699034 14.704157344697927 1 0 0 I I #
straight-curve $-1 69.388103885006259 -39.544252239699034 0 0 0 -1 I I #
point $-1 69.388103885006259 -39.544252239699034 14.704157344697927 #
point $-1 44.1114879194118 -29.861670131763749 5.6108936429270129 #
point $-1 53.590218906509719 -29.861670131763749 5.6108936429270129 #
point $-1 63.068949893607638 -29.861670131763749 5.6108936429270129 #
straight-curve $-1 -14.410895157911792 39.544252239699034 79.374595177752525 0 0 -1 I I #
point $-1 -14.410895157911792 39.544252239699034 14.704157344697927 #
straight-curve $-1 -11.139808752789662 39.544252239699041 2.1267297229020343 -1 0 0 I I #
point $-1 -14.410895157911792 39.544252239699041 2.1267297229020343 #
point $-1 -25.651927083151122 30.568866525152234 6.4125967561164892 #
point $-1 -18.907307928007526 30.568866525152234 6.4125967561164892 #
End-of-ACIS-data 