500 0 9 0           
7 Unknown 11 ACIS 5.0 NT 24 Fri Mar 26 20:42:29 1999 
-1 9.9999999999999995e-007 1e-010 
body $-1 $9 $-1 $10 #
body $-1 $11 $-1 $12 #
body $-1 $13 $-1 $14 #
body $-1 $15 $-1 $16 #
body $-1 $17 $-1 $18 #
body $-1 $19 $-1 $20 #
body $-1 $21 $-1 $22 #
body $-1 $23 $-1 $24 #
body $-1 $25 $-1 $26 #
lump $-1 $-1 $27 $0 #
transform $-1 1 0 0 0 1 0 0 0 1 46.367381817072058 20.672943950986333 4.5243003133310378 1 rotate no_reflect no_shear #
lump $-1 $-1 $28 $1 #
transform $-1 1 0 0 0 1 0 0 0 1 46.367381817072058 20.672943950986333 4.5243003133310378 1 rotate no_reflect no_shear #
lump $-1 $-1 $29 $2 #
transform $-1 1 0 0 0 1 0 0 0 1 46.367381817072058 20.672943950986333 4.5243003133310378 1 rotate no_reflect no_shear #
lump $-1 $-1 $30 $3 #
transform $-1 1 0 0 0 1 0 0 0 1 46.367381817072058 20.672943950986333 4.5243003133310378 1 rotate no_reflect no_shear #
lump $-1 $-1 $31 $4 #
transform $-1 1 0 0 0 1 0 0 0 1 46.367381817072058 20.672943950986333 4.5243003133310378 1 rotate no_reflect no_shear #
lump $-1 $-1 $32 $5 #
transform $-1 1 0 0 0 1 0 0 0 1 46.367381817072058 20.672943950986333 4.5243003133310378 1 rotate no_reflect no_shear #
lump $-1 $-1 $33 $6 #
transform $-1 1 0 0 0 1 0 0 0 1 46.367381817072058 20.672943950986333 4.5243003133310378 1 rotate no_reflect no_shear #
lump $-1 $-1 $34 $7 #
transform $-1 1 0 0 0 1 0 0 0 1 46.367381817072058 20.672943950986333 4.5243003133310378 1 rotate no_reflect no_shear #
lump $-1 $-1 $35 $8 #
transform $-1 1 0 0 0 1 0 0 0 1 46.367381817072058 20.672943950986333 4.5243003133310378 1 rotate no_reflect no_shear #
shell $-1 $-1 $-1 $36 $-1 $9 #
shell $-1 $-1 $-1 $37 $-1 $11 #
shell $-1 $-1 $-1 $38 $-1 $13 #
shell $-1 $-1 $-1 $39 $-1 $15 #
shell $-1 $-1 $-1 $40 $-1 $17 #
shell $-1 $-1 $-1 $41 $-1 $19 #
shell $-1 $-1 $-1 $42 $-1 $21 #
shell $-1 $-1 $-1 $43 $-1 $23 #
shell $-1 $-1 $-1 $44 $-1 $25 #
face $-1 $45 $46 $27 $-1 $47 forward single #
face $-1 $48 $49 $28 $-1 $50 forward single #
face $-1 $51 $52 $29 $-1 $53 forward single #
face $-1 $54 $55 $30 $-1 $56 reversed single #
face $-1 $57 $58 $31 $-1 $59 forward single #
face $-1 $60 $61 $32 $-1 $62 forward single #
face $-1 $63 $64 $33 $-1 $65 reversed single #
face $-1 $66 $67 $34 $-1 $68 forward single #
face $-1 $69 $70 $35 $-1 $71 forward single #
face $-1 $72 $73 $27 $-1 $74 reversed single #
loop $-1 $-1 $75 $36 #
plane-surface $-1 0 0 4.5243003133310378 0 0 1 1 0 0 forward_v I I I I #
face $-1 $76 $77 $28 $-1 $78 reversed single #
loop $-1 $-1 $79 $37 #
plane-surface $-1 0 -17.783366251463345 -1.0243003133310378 0 0 1 1 0 0 forward_v I I I I #
face $-1 $80 $81 $29 $-1 $82 reversed single #
loop $-1 $-1 $83 $38 #
plane-surface $-1 0 17.783366251463345 -1.0243003133310378 0 0 1 1 0 0 forward_v I I I I #
face $-1 $84 $85 $30 $-1 $86 reversed single #
loop $-1 $-1 $87 $39 #
plane-surface $-1 -122.33125377892627 14.893788551940357 54.593172844747095 0 -1 0 0.81915205242281985 0 -0.57357642473473569 forward_v I I I I #
face $-1 $88 $89 $31 $-1 $90 forward single #
loop $-1 $91 $92 $40 #
cone-surface $-1 -44.542530354573117 9.4721308898593612 2.4509707000754957 0.81915205242281985 0 -0.57357642473473569 0.28678821236736785 0 0.40957602621140993 1 I I 0 1 0.5 forward I I I I #
face $-1 $93 $94 $32 $-1 $95 forward single #
loop $-1 $96 $97 $41 #
cone-surface $-1 -44.542530354573117 12.725125487107963 2.4509707000754957 0.81915205242281985 0 -0.57357642473473569 0.28678821236736785 0 0.40957602621140993 1 I I 0 1 0.5 forward I I I I #
face $-1 $98 $99 $33 $-1 $100 reversed single #
loop $-1 $-1 $101 $42 #
plane-surface $-1 69.140779605033103 7.30346782502696 130.55704480660134 0 1 0 0.81915205242281985 0 0.57357642473473569 forward_v I I I I #
face $-1 $102 $103 $34 $-1 $104 forward single #
loop $-1 $105 $106 $43 #
cone-surface $-1 44.542530354573124 9.4721308898593612 2.4509707000754912 -0.81915205242281985 0 -0.57357642473473569 0.28678821236736785 0 -0.40957602621140993 1 I I 0 1 0.5 forward I I I I #
face $-1 $107 $108 $35 $-1 $109 forward single #
loop $-1 $110 $111 $44 #
cone-surface $-1 44.542530354573124 12.725125487107963 2.4509707000754912 -0.81915205242281985 0 -0.57357642473473569 0.28678821236736785 0 -0.40957602621140993 1 I I 0 1 0.5 forward I I I I #
face $-1 $112 $113 $27 $-1 $114 reversed single #
loop $-1 $-1 $115 $45 #
plane-surface $-1 0 0 -4.5243003133310378 0 0 1 1 0 0 forward_v I I I I #
coedge $-1 $116 $117 $118 $119 forward $46 $-1 #
face $-1 $120 $121 $28 $-1 $122 reversed single #
loop $-1 $-1 $123 $48 #
plane-surface $-1 0 -17.783366251463345 -4.0243003133310378 0 0 1 1 0 0 forward_v I I I I #
coedge $-1 $124 $125 $126 $127 reversed $49 $-1 #
face $-1 $128 $129 $29 $-1 $130 reversed single #
loop $-1 $-1 $131 $51 #
plane-surface $-1 0 17.783366251463345 -4.0243003133310378 0 0 1 1 0 0 forward_v I I I I #
coedge $-1 $132 $133 $134 $135 reversed $52 $-1 #
face $-1 $136 $137 $30 $-1 $138 reversed single #
loop $-1 $-1 $139 $54 #
plane-surface $-1 -46.367381817072044 11.098628188483659 1.4026986708539297 -0.81915205242281985 0 0.57357642473473569 0.57357642473473569 0 0.81915205242281985 forward_v I I I I #
coedge $-1 $140 $141 $142 $143 reversed $55 $-1 #
face $-1 $-1 $144 $31 $-1 $145 forward single #
loop $-1 $146 $147 $57 #
cone-surface $-1 -43.605775346658184 9.4721308898593612 1.7950478018748219 0.81915205242281985 0 -0.57357642473473569 0.14339410618368392 0 0.20478801310570496 1 I I -0.70710678118654746 0.70710678118654746 0.25 forward I I I I #
loop $-1 $-1 $148 $40 #
coedge $-1 $92 $92 $149 $150 reversed $58 $-1 #
face $-1 $-1 $151 $32 $-1 $152 forward single #
loop $-1 $153 $154 $60 #
cone-surface $-1 -43.605775346658184 12.725125487107963 1.7950478018748219 0.81915205242281985 0 -0.57357642473473569 0.14339410618368392 0 0.20478801310570496 1 I I -0.70710678118654746 0.70710678118654746 0.25 forward I I I I #
loop $-1 $-1 $155 $41 #
coedge $-1 $97 $97 $156 $157 reversed $61 $-1 #
face $-1 $158 $159 $33 $-1 $160 reversed single #
loop $-1 $-1 $161 $63 #
plane-surface $-1 -6.823092356821121 11.098628188483659 77.366570632708175 0.81915205242281985 0 0.57357642473473569 0.57357642473473569 0 -0.81915205242281985 forward_v I I I I #
coedge $-1 $162 $163 $164 $165 reversed $64 $-1 #
face $-1 $-1 $166 $34 $-1 $167 forward single #
loop $-1 $168 $169 $66 #
cone-surface $-1 43.605775346658191 9.4721308898593612 1.7950478018748175 -0.81915205242281985 0 -0.57357642473473569 0.14339410618368392 0 -0.20478801310570496 1 I I -0.70710678118654746 0.70710678118654746 0.25 forward I I I I #
loop $-1 $-1 $170 $43 #
coedge $-1 $106 $106 $171 $172 reversed $67 $-1 #
face $-1 $-1 $173 $35 $-1 $174 forward single #
loop $-1 $175 $176 $69 #
cone-surface $-1 43.605775346658191 12.725125487107963 1.7950478018748175 -0.81915205242281985 0 -0.57357642473473569 0.14339410618368392 0 -0.20478801310570496 1 I I -0.70710678118654746 0.70710678118654746 0.25 forward I I I I #
loop $-1 $-1 $177 $44 #
coedge $-1 $111 $111 $178 $179 reversed $70 $-1 #
face $-1 $180 $181 $27 $-1 $182 reversed single #
loop $-1 $-1 $183 $72 #
plane-surface $-1 0 -20.672943950986333 0 0 1 0 0 0 1 forward_v I I I I #
coedge $-1 $184 $185 $186 $187 forward $73 $-1 #
coedge $-1 $188 $75 $189 $190 forward $46 $-1 #
coedge $-1 $75 $188 $191 $192 forward $46 $-1 #
coedge $-1 $193 $194 $75 $119 reversed $195 $-1 #
edge $-1 $196 -20.672943950986333 $197 20.672943950986333 $118 $198 forward 7 unknown #
face $-1 $199 $200 $28 $-1 $201 reversed single #
loop $-1 $-1 $202 $76 #
plane-surface $-1 0 -14.893788551940357 -2.5243003133310378 0 -1 0 0 0 -1 forward_v I I I I #
coedge $-1 $203 $204 $205 $206 reversed $77 $-1 #
coedge $-1 $207 $79 $208 $209 forward $49 $-1 #
coedge $-1 $79 $207 $210 $211 reversed $49 $-1 #
coedge $-1 $212 $213 $79 $127 forward $214 $-1 #
edge $-1 $215 6.0021054262086846 $216 11.781260825254661 $126 $217 forward 7 unknown #
face $-1 $218 $219 $29 $-1 $220 reversed single #
loop $-1 $-1 $221 $80 #
plane-surface $-1 0 14.893788551940357 -2.5243003133310378 0 1 0 0 0 1 forward_v I I I I #
coedge $-1 $222 $223 $224 $225 reversed $81 $-1 #
coedge $-1 $226 $83 $227 $228 reversed $52 $-1 #
coedge $-1 $83 $226 $229 $230 forward $52 $-1 #
coedge $-1 $231 $232 $83 $135 forward $219 $-1 #
edge $-1 $233 -11.781260825254661 $234 -6.0021054262086846 $134 $235 forward 7 unknown #
face $-1 $236 $237 $30 $-1 $238 reversed single #
loop $-1 $-1 $239 $84 #
plane-surface $-1 -122.33125377892627 7.30346782502696 54.593172844747095 0 1 0 -0.81915205242281985 0 0.57357642473473569 forward_v I I I I #
coedge $-1 $240 $241 $242 $243 reversed $85 $-1 #
coedge $-1 $141 $87 $244 $245 reversed $55 $-1 #
coedge $-1 $87 $140 $240 $246 reversed $55 $-1 #
coedge $-1 $242 $247 $87 $143 forward $237 $-1 #
edge $-1 $248 22.772286109042511 $249 25.893887751519639 $142 $250 forward 7 unknown #
loop $-1 $-1 $149 $88 #
plane-surface $-1 -46.367381817072044 11.098628188483659 1.4026986708539297 -0.81915205242281985 0 0.57357642473473569 0.57357642473473569 0 0.81915205242281985 forward_v I I I I #
loop $-1 $-1 $251 $57 #
coedge $-1 $147 $147 $148 $252 reversed $89 $-1 #
coedge $-1 $148 $148 $147 $252 forward $91 $-1 #
coedge $-1 $149 $149 $92 $150 forward $144 $-1 #
edge $-1 $253 0 $253 6.2831853071796004 $149 $254 forward 7 unknown #
loop $-1 $-1 $156 $93 #
plane-surface $-1 -46.367381817072044 11.098628188483659 1.4026986708539297 -0.81915205242281985 0 0.57357642473473569 0.57357642473473569 0 0.81915205242281985 forward_v I I I I #
loop $-1 $-1 $255 $60 #
coedge $-1 $154 $154 $155 $256 reversed $94 $-1 #
coedge $-1 $155 $155 $154 $256 forward $96 $-1 #
coedge $-1 $156 $156 $97 $157 forward $151 $-1 #
edge $-1 $257 0 $257 6.2831853071796004 $156 $258 forward 7 unknown #
face $-1 $259 $260 $33 $-1 $261 forward single #
loop $-1 $-1 $262 $98 #
plane-surface $-1 69.140779605033103 14.893788551940357 130.55704480660134 0 -1 0 -0.81915205242281985 0 -0.57357642473473569 forward_v I I I I #
coedge $-1 $263 $264 $265 $266 reversed $99 $-1 #
coedge $-1 $163 $101 $267 $268 reversed $64 $-1 #
coedge $-1 $101 $162 $263 $269 reversed $64 $-1 #
coedge $-1 $265 $270 $101 $165 forward $271 $-1 #
edge $-1 $272 60.75422208996963 $273 63.875823732446733 $164 $274 forward 7 unknown #
loop $-1 $-1 $171 $102 #
plane-surface $-1 -6.823092356821121 11.098628188483659 77.366570632708175 0.81915205242281985 0 0.57357642473473569 0.57357642473473569 0 -0.81915205242281985 forward_v I I I I #
loop $-1 $-1 $275 $66 #
coedge $-1 $169 $169 $170 $276 reversed $103 $-1 #
coedge $-1 $170 $170 $169 $276 forward $105 $-1 #
coedge $-1 $171 $171 $106 $172 forward $166 $-1 #
edge $-1 $277 0 $277 6.2831853071796004 $171 $278 forward 7 unknown #
loop $-1 $-1 $178 $107 #
plane-surface $-1 -6.823092356821121 11.098628188483659 77.366570632708175 0.81915205242281985 0 0.57357642473473569 0.57357642473473569 0 -0.81915205242281985 forward_v I I I I #
loop $-1 $-1 $279 $69 #
coedge $-1 $176 $176 $177 $280 reversed $108 $-1 #
coedge $-1 $177 $177 $176 $280 forward $110 $-1 #
coedge $-1 $178 $178 $111 $179 forward $173 $-1 #
edge $-1 $281 0 $281 6.2831853071796004 $178 $282 forward 7 unknown #
face $-1 $283 $284 $27 $-1 $285 reversed single #
loop $-1 $-1 $286 $112 #
plane-surface $-1 -46.367381817072058 0 0 1 0 0 0 0 -1 forward_v I I I I #
coedge $-1 $287 $191 $288 $289 forward $113 $-1 #
coedge $-1 $290 $115 $287 $291 forward $73 $-1 #
coedge $-1 $115 $290 $292 $293 forward $73 $-1 #
coedge $-1 $194 $193 $115 $187 reversed $195 $-1 #
edge $-1 $294 -20.672943950986333 $295 20.672943950986333 $186 $296 forward 7 unknown #
coedge $-1 $117 $116 $297 $298 forward $46 $-1 #
coedge $-1 $299 $300 $116 $190 reversed $284 $-1 #
edge $-1 $197 -46.367381817072058 $301 46.367381817072058 $189 $302 forward 7 unknown #
coedge $-1 $183 $303 $117 $192 reversed $113 $-1 #
edge $-1 $304 -46.367381817072058 $196 46.367381817072058 $191 $305 forward 7 unknown #
coedge $-1 $186 $118 $303 $306 forward $195 $-1 #
coedge $-1 $118 $186 $299 $307 reversed $195 $-1 #
loop $-1 $-1 $193 $283 #
vertex $-1 $119 $308 #
vertex $-1 $119 $309 #
straight-curve $-1 46.367381817072058 0 4.5243003133310378 0 1 0 I I #
face $-1 $310 $311 $28 $-1 $312 reversed single #
loop $-1 $-1 $313 $120 #
plane-surface $-1 -46.367381817072058 0 0 1 0 0 0 0 -1 forward_v I I I I #
coedge $-1 $314 $208 $213 $315 reversed $121 $-1 #
coedge $-1 $316 $123 $317 $318 reversed $77 $-1 #
coedge $-1 $123 $316 $314 $319 forward $77 $-1 #
coedge $-1 $213 $212 $123 $206 forward $214 $-1 #
edge $-1 $320 -11.781260825254661 $321 -6.0021054262086846 $205 $322 forward 7 unknown #
coedge $-1 $125 $124 $313 $323 reversed $49 $-1 #
coedge $-1 $202 $324 $124 $209 reversed $121 $-1 #
edge $-1 $215 -46.367381817072058 $325 46.367381817072058 $208 $326 forward 7 unknown #
coedge $-1 $327 $328 $125 $211 forward $311 $-1 #
edge $-1 $216 -46.367381817072058 $329 46.367381817072058 $210 $330 forward 7 unknown #
coedge $-1 $205 $126 $328 $331 forward $214 $-1 #
coedge $-1 $126 $205 $202 $315 forward $214 $-1 #
loop $-1 $-1 $126 $310 #
vertex $-1 $127 $332 #
vertex $-1 $331 $333 #
straight-curve $-1 46.367381817072058 -8.8916831257316726 -1.0243003133310378 0 -1 0 I I #
face $-1 $334 $335 $29 $-1 $336 reversed single #
loop $-1 $-1 $134 $128 #
plane-surface $-1 46.367381817072058 0 0 -1 0 0 0 0 1 forward_v I I I I #
coedge $-1 $337 $229 $338 $339 reversed $129 $-1 #
coedge $-1 $340 $131 $337 $341 forward $81 $-1 #
coedge $-1 $131 $340 $342 $343 reversed $81 $-1 #
coedge $-1 $232 $231 $131 $225 forward $219 $-1 #
edge $-1 $344 6.0021054262086846 $345 11.781260825254661 $224 $346 forward 7 unknown #
coedge $-1 $133 $132 $347 $348 reversed $52 $-1 #
coedge $-1 $349 $350 $132 $228 forward $351 $-1 #
edge $-1 $352 -46.367381817072058 $233 46.367381817072058 $227 $353 forward 7 unknown #
coedge $-1 $221 $354 $133 $230 reversed $129 $-1 #
edge $-1 $355 -46.367381817072058 $234 46.367381817072058 $229 $356 forward 7 unknown #
coedge $-1 $224 $134 $354 $357 forward $219 $-1 #
coedge $-1 $134 $224 $349 $358 reversed $219 $-1 #
vertex $-1 $358 $359 #
vertex $-1 $135 $360 #
straight-curve $-1 46.367381817072058 8.8916831257316726 -1.0243003133310378 0 -1 0 I I #
face $-1 $-1 $361 $30 $-1 $362 forward single #
loop $-1 $-1 $142 $136 #
plane-surface $-1 -46.367381817072058 0 0 1 0 0 0 0 -1 forward_v I I I I #
coedge $-1 $363 $364 $365 $366 reversed $137 $-1 #
coedge $-1 $367 $139 $141 $246 forward $85 $-1 #
coedge $-1 $139 $367 $363 $368 forward $85 $-1 #
coedge $-1 $365 $142 $139 $243 forward $237 $-1 #
edge $-1 $249 -9.3444744576985279 $369 -1.7541537307851307 $242 $370 forward 7 unknown #
coedge $-1 $371 $372 $140 $245 forward $361 $-1 #
edge $-1 $373 -16.984014007770519 $248 -14.798245072391076 $244 $374 forward 7 unknown #
edge $-1 $249 -2.4702845980661902e-014 $373 3.8107719235327506 $141 $375 forward 7 unknown #
coedge $-1 $142 $365 $371 $376 reversed $237 $-1 #
vertex $-1 $376 $377 #
vertex $-1 $143 $378 #
straight-curve $-1 -46.367381817072058 14.893788551940357 27.296586422373547 0 0 -1 I I #
coedge $-1 $251 $251 $-1 $379 reversed $146 $-1 #
edge $-1 $380 0 $380 6.2831853071796004 $147 $381 forward 7 unknown #
vertex $-1 $150 $382 #
ellipse-curve $-1 -45.274497349382337 9.4721308898593612 2.9634994920924784 -0.81915205242281985 0 0.57357642473473569 0.28678821236736785 0 0.40957602621140993 1 I I #
coedge $-1 $255 $255 $-1 $383 reversed $153 $-1 #
edge $-1 $384 0 $384 6.2831853071796004 $154 $385 forward 7 unknown #
vertex $-1 $157 $386 #
ellipse-curve $-1 -45.274497349382337 12.725125487107963 2.9634994920924784 -0.81915205242281985 0 0.57357642473473569 0.28678821236736785 0 0.40957602621140993 1 I I #
face $-1 $-1 $271 $33 $-1 $387 reversed single #
loop $-1 $-1 $388 $158 #
plane-surface $-1 0 0 4.5243003133310378 0 0 1 1 0 0 forward_v I I I I #
coedge $-1 $389 $390 $391 $392 reversed $159 $-1 #
coedge $-1 $393 $161 $163 $269 forward $99 $-1 #
coedge $-1 $161 $393 $389 $394 forward $99 $-1 #
coedge $-1 $391 $164 $161 $266 forward $271 $-1 #
edge $-1 $273 1.7541537307851307 $395 9.3444744576985279 $265 $396 forward 7 unknown #
coedge $-1 $397 $398 $162 $268 forward $260 $-1 #
edge $-1 $399 9.611223079176078 $272 11.796992014555507 $267 $400 forward 7 unknown #
edge $-1 $273 -92.73476363414413 $399 -88.923991710611389 $163 $401 forward 7 unknown #
coedge $-1 $164 $391 $397 $402 reversed $271 $-1 #
loop $-1 $-1 $391 $259 #
vertex $-1 $402 $403 #
vertex $-1 $165 $404 #
straight-curve $-1 46.367381817072058 7.30346782502696 65.27852240330067 0 0 -1 I I #
coedge $-1 $275 $275 $-1 $405 reversed $168 $-1 #
edge $-1 $406 0 $406 6.2831853071796004 $169 $407 forward 7 unknown #
vertex $-1 $172 $408 #
ellipse-curve $-1 45.274497349382351 9.4721308898593612 2.9634994920924784 0.81915205242281985 0 0.57357642473473569 0.28678821236736785 0 -0.40957602621140993 1 I I #
coedge $-1 $279 $279 $-1 $409 reversed $175 $-1 #
edge $-1 $410 0 $410 6.2831853071796004 $176 $411 forward 7 unknown #
vertex $-1 $179 $412 #
ellipse-curve $-1 45.274497349382351 12.725125487107963 2.9634994920924784 0.81915205242281985 0 0.57357642473473569 0.28678821236736785 0 -0.40957602621140993 1 I I #
face $-1 $-1 $195 $27 $-1 $413 reversed single #
loop $-1 $-1 $299 $180 #
plane-surface $-1 0 20.672943950986333 0 0 -1 0 0 0 -1 forward_v I I I I #
coedge $-1 $414 $297 $300 $415 forward $181 $-1 #
coedge $-1 $303 $183 $184 $291 reversed $113 $-1 #
coedge $-1 $297 $414 $183 $289 reversed $181 $-1 #
edge $-1 $304 -4.5243003133310378 $416 4.5243003133310378 $288 $417 forward 7 unknown #
coedge $-1 $185 $184 $414 $418 forward $73 $-1 #
edge $-1 $295 -46.367381817072058 $416 46.367381817072058 $287 $419 forward 7 unknown #
coedge $-1 $300 $299 $185 $293 reversed $284 $-1 #
edge $-1 $420 -46.367381817072058 $294 46.367381817072058 $292 $421 forward 7 unknown #
vertex $-1 $187 $422 #
vertex $-1 $306 $423 #
straight-curve $-1 46.367381817072058 0 -4.5243003133310378 0 -1 0 I I #
coedge $-1 $286 $288 $188 $298 reversed $181 $-1 #
edge $-1 $301 -20.672943950986333 $304 20.672943950986333 $297 $424 forward 7 unknown #
coedge $-1 $292 $189 $194 $307 forward $284 $-1 #
coedge $-1 $189 $292 $286 $415 reversed $284 $-1 #
vertex $-1 $190 $425 #
straight-curve $-1 0 20.672943950986333 4.5243003133310378 -1 0 0 I I #
coedge $-1 $191 $287 $193 $306 reversed $113 $-1 #
vertex $-1 $298 $426 #
straight-curve $-1 0 -20.672943950986333 4.5243003133310378 1 0 0 I I #
edge $-1 $196 -4.5243003133310378 $295 4.5243003133310378 $193 $427 forward 7 unknown #
edge $-1 $197 -4.5243003133310378 $294 4.5243003133310378 $194 $428 forward 7 unknown #
point $-1 46.367381817072058 -20.672943950986333 4.5243003133310378 #
point $-1 46.367381817072058 20.672943950986333 4.5243003133310378 #
face $-1 $-1 $214 $28 $-1 $429 reversed single #
loop $-1 $-1 $210 $199 #
plane-surface $-1 0 -20.672943950986333 0 0 1 0 0 0 1 forward_v I I I I #
coedge $-1 $430 $431 $207 $323 forward $200 $-1 #
coedge $-1 $324 $202 $204 $319 reversed $121 $-1 #
edge $-1 $321 -2.7621501566655189 $215 0.23784984333448111 $213 $432 forward 7 unknown #
coedge $-1 $204 $203 $433 $434 reversed $77 $-1 #
coedge $-1 $328 $327 $203 $318 forward $311 $-1 #
edge $-1 $435 -46.367381817072058 $320 46.367381817072058 $317 $436 forward 7 unknown #
edge $-1 $437 -46.367381817072058 $321 46.367381817072058 $314 $438 forward 7 unknown #
vertex $-1 $318 $439 #
vertex $-1 $206 $440 #
straight-curve $-1 46.367381817072058 -8.8916831257316726 -4.0243003133310378 0 1 0 I I #
edge $-1 $329 -11.781260825254661 $325 -6.0021054262086846 $313 $441 forward 7 unknown #
coedge $-1 $208 $314 $430 $442 reversed $121 $-1 #
vertex $-1 $323 $443 #
straight-curve $-1 0 -14.893788551940357 -1.0243003133310378 -1 0 0 I I #
coedge $-1 $317 $210 $431 $444 forward $311 $-1 #
coedge $-1 $210 $317 $212 $331 reversed $311 $-1 #
vertex $-1 $444 $445 #
straight-curve $-1 0 -20.672943950986333 -1.0243003133310378 -1 0 0 I I #
edge $-1 $216 1.0243003133310378 $320 4.0243003133310378 $212 $446 forward 7 unknown #
point $-1 46.367381817072058 -14.893788551940357 -1.0243003133310378 #
point $-1 46.367381817072058 -20.672943950986333 -1.0243003133310378 #
face $-1 $-1 $351 $29 $-1 $447 reversed single #
loop $-1 $-1 $347 $218 #
plane-surface $-1 -46.367381817072058 0 0 1 0 0 0 0 -1 forward_v I I I I #
coedge $-1 $354 $221 $222 $341 reversed $129 $-1 #
coedge $-1 $347 $448 $221 $339 forward $335 $-1 #
edge $-1 $449 -2.7621501566655189 $355 0.23784984333448111 $338 $450 forward 7 unknown #
coedge $-1 $223 $222 $448 $451 reversed $81 $-1 #
edge $-1 $344 -46.367381817072058 $449 46.367381817072058 $337 $452 forward 7 unknown #
coedge $-1 $350 $349 $223 $343 forward $351 $-1 #
edge $-1 $345 -46.367381817072058 $453 46.367381817072058 $342 $454 forward 7 unknown #
vertex $-1 $225 $455 #
vertex $-1 $343 $456 #
straight-curve $-1 46.367381817072058 8.8916831257316726 -4.0243003133310378 0 1 0 I I #
coedge $-1 $457 $338 $226 $348 forward $335 $-1 #
edge $-1 $355 6.0021054262086846 $352 11.781260825254661 $347 $458 forward 7 unknown #
coedge $-1 $342 $227 $232 $358 forward $351 $-1 #
coedge $-1 $227 $342 $457 $459 reversed $351 $-1 #
loop $-1 $-1 $227 $334 #
vertex $-1 $459 $460 #
straight-curve $-1 0 20.672943950986333 -1.0243003133310378 1 0 0 I I #
coedge $-1 $229 $337 $231 $357 reversed $129 $-1 #
vertex $-1 $348 $461 #
straight-curve $-1 0 14.893788551940357 -1.0243003133310378 1 0 0 I I #
edge $-1 $234 -0.23784984333448111 $344 2.7621501566655189 $231 $462 forward 7 unknown #
edge $-1 $233 1.0243003133310378 $345 4.0243003133310378 $232 $463 forward 7 unknown #
point $-1 46.367381817072058 20.672943950986333 -1.0243003133310378 #
point $-1 46.367381817072058 14.893788551940357 -1.0243003133310378 #
loop $-1 $-1 $244 $236 #
plane-surface $-1 0 0 4.5243003133310378 0 0 1 1 0 0 forward_v I I I I #
coedge $-1 $364 $239 $241 $368 reversed $137 $-1 #
coedge $-1 $239 $363 $464 $465 reversed $137 $-1 #
coedge $-1 $247 $242 $239 $366 forward $237 $-1 #
edge $-1 $369 -25.893887751519639 $466 -22.772286109042511 $365 $467 forward 7 unknown #
coedge $-1 $241 $240 $372 $468 reversed $85 $-1 #
edge $-1 $469 -3.8107719235327506 $369 2.4702845980661902e-014 $363 $470 forward 7 unknown #
vertex $-1 $243 $471 #
straight-curve $-1 -46.367381817072058 5.5493140942418293 1.4026986708539106 0 -1 0 I I #
coedge $-1 $464 $244 $247 $376 forward $361 $-1 #
coedge $-1 $244 $464 $367 $468 forward $361 $-1 #
vertex $-1 $245 $472 #
straight-curve $-1 -61.165626889463134 14.893788551940357 4.524300313331036 -1 0 0 I I #
straight-curve $-1 -46.367381817072044 14.893788551940357 1.4026986708539297 0.57357642473473569 0 0.81915205242281985 I I #
edge $-1 $248 -14.893788551940357 $466 -7.30346782502696 $247 $473 forward 7 unknown #
point $-1 -46.367381817072058 14.893788551940357 4.5243003133310378 #
point $-1 -46.367381817072058 14.893788551940357 1.4026986708539095 #
edge $-1 $474 1 $474 0 $251 $-1 forward 7 unknown #
vertex $-1 $252 $475 #
ellipse-curve $-1 -43.81056335976389 9.4721308898593612 1.9384419080585058 -0.81915205242281985 0 0.57357642473473569 0.28678821236736785 0 0.40957602621140993 1 I I #
point $-1 -44.987709137014974 9.4721308898593612 3.373075518303895 #
edge $-1 $476 1 $476 0 $255 $-1 forward 7 unknown #
vertex $-1 $256 $477 #
ellipse-curve $-1 -43.81056335976389 12.725125487107963 1.9384419080585058 -0.81915205242281985 0 0.57357642473473569 0.28678821236736785 0 0.40957602621140993 1 I I #
point $-1 -44.987709137014974 12.725125487107963 3.373075518303895 #
plane-surface $-1 46.367381817072058 0 0 -1 0 0 0 0 1 forward_v I I I I #
coedge $-1 $398 $397 $390 $478 forward $260 $-1 #
coedge $-1 $390 $262 $264 $394 reversed $159 $-1 #
coedge $-1 $262 $389 $388 $478 reversed $159 $-1 #
coedge $-1 $270 $265 $262 $392 forward $271 $-1 #
edge $-1 $395 -63.875823732446733 $479 -60.75422208996963 $391 $480 forward 7 unknown #
coedge $-1 $264 $263 $398 $481 reversed $99 $-1 #
edge $-1 $482 88.923991710611389 $395 92.73476363414413 $389 $483 forward 7 unknown #
vertex $-1 $266 $484 #
straight-curve $-1 46.367381817072058 5.5493140942418293 1.4026986708539226 0 1 0 I I #
coedge $-1 $388 $267 $270 $402 forward $260 $-1 #
coedge $-1 $267 $388 $393 $481 forward $260 $-1 #
vertex $-1 $268 $485 #
straight-curve $-1 34.570389802516551 7.30346782502696 4.5243003133310395 1 0 0 I I #
straight-curve $-1 -6.823092356821121 7.30346782502696 77.366570632708175 -0.57357642473473569 0 0.81915205242281985 I I #
edge $-1 $272 7.30346782502696 $479 14.893788551940357 $270 $486 forward 7 unknown #
point $-1 46.367381817072058 7.30346782502696 4.5243003133310378 #
point $-1 46.367381817072051 7.30346782502696 1.4026986708539368 #
edge $-1 $487 1 $487 0 $275 $-1 forward 7 unknown #
vertex $-1 $276 $488 #
ellipse-curve $-1 43.810563359763897 9.4721308898593612 1.9384419080585014 0.81915205242281985 0 0.57357642473473569 0.28678821236736785 0 -0.40957602621140993 1 I I #
point $-1 45.56128556174972 9.4721308898593612 2.5539234658810708 #
edge $-1 $489 1 $489 0 $279 $-1 forward 7 unknown #
vertex $-1 $280 $490 #
ellipse-curve $-1 43.810563359763897 12.725125487107963 1.9384419080585014 0.81915205242281985 0 0.57357642473473569 0.28678821236736785 0 -0.40957602621140993 1 I I #
point $-1 45.56128556174972 12.725125487107963 2.5539234658810708 #
plane-surface $-1 46.367381817072058 0 0 -1 0 0 0 0 1 forward_v I I I I #
coedge $-1 $288 $286 $290 $418 reversed $181 $-1 #
edge $-1 $301 -4.5243003133310378 $420 4.5243003133310378 $300 $491 forward 7 unknown #
vertex $-1 $418 $492 #
straight-curve $-1 -46.367381817072058 -20.672943950986333 0 0 0 -1 I I #
edge $-1 $416 -20.672943950986333 $420 20.672943950986333 $414 $493 forward 7 unknown #
straight-curve $-1 0 -20.672943950986333 -4.5243003133310378 -1 0 0 I I #
vertex $-1 $293 $494 #
straight-curve $-1 0 20.672943950986333 -4.5243003133310378 1 0 0 I I #
point $-1 46.367381817072058 20.672943950986333 -4.5243003133310378 #
point $-1 46.367381817072058 -20.672943950986333 -4.5243003133310378 #
straight-curve $-1 -46.367381817072058 0 4.5243003133310378 0 -1 0 I I #
point $-1 -46.367381817072058 20.672943950986333 4.5243003133310378 #
point $-1 -46.367381817072058 -20.672943950986333 4.5243003133310378 #
straight-curve $-1 46.367381817072058 -20.672943950986333 0 0 0 -1 I I #
straight-curve $-1 46.367381817072058 20.672943950986333 0 0 0 -1 I I #
plane-surface $-1 46.367381817072058 0 0 -1 0 0 0 0 1 forward_v I I I I #
coedge $-1 $433 $313 $324 $442 forward $200 $-1 #
coedge $-1 $313 $433 $327 $444 reversed $200 $-1 #
straight-curve $-1 46.367381817072058 -14.893788551940357 -1.2621501566655189 0 0 1 I I #
coedge $-1 $431 $430 $316 $434 forward $200 $-1 #
edge $-1 $437 6.0021054262086846 $435 11.781260825254661 $433 $495 forward 7 unknown #
vertex $-1 $318 $496 #
straight-curve $-1 0 -20.672943950986333 -4.0243003133310378 1 0 0 I I #
vertex $-1 $434 $497 #
straight-curve $-1 0 -14.893788551940357 -4.0243003133310378 1 0 0 I I #
point $-1 46.367381817072058 -20.672943950986333 -4.0243003133310378 #
point $-1 46.367381817072058 -14.893788551940357 -4.0243003133310378 #
straight-curve $-1 -46.367381817072058 -8.8916831257316726 -1.0243003133310378 0 1 0 I I #
edge $-1 $325 -0.23784984333448111 $437 2.7621501566655189 $430 $498 forward 7 unknown #
point $-1 -46.367381817072058 -14.893788551940357 -1.0243003133310378 #
edge $-1 $329 1.0243003133310378 $435 4.0243003133310378 $431 $499 forward 7 unknown #
point $-1 -46.367381817072058 -20.672943950986333 -1.0243003133310378 #
straight-curve $-1 46.367381817072058 -20.672943950986333 0 0 0 -1 I I #
plane-surface $-1 0 20.672943950986333 0 0 -1 0 0 0 -1 forward_v I I I I #
coedge $-1 $338 $457 $340 $451 forward $335 $-1 #
vertex $-1 $451 $500 #
straight-curve $-1 -46.367381817072058 14.893788551940357 -1.2621501566655189 0 0 1 I I #
edge $-1 $453 -11.781260825254661 $449 -6.0021054262086846 $448 $501 forward 7 unknown #
straight-curve $-1 0 14.893788551940357 -4.0243003133310378 -1 0 0 I I #
vertex $-1 $343 $502 #
straight-curve $-1 0 20.672943950986333 -4.0243003133310378 -1 0 0 I I #
point $-1 46.367381817072058 14.893788551940357 -4.0243003133310378 #
point $-1 46.367381817072058 20.672943950986333 -4.0243003133310378 #
coedge $-1 $448 $347 $350 $459 forward $335 $-1 #
straight-curve $-1 -46.367381817072058 8.8916831257316726 -1.0243003133310378 0 1 0 I I #
edge $-1 $352 1.0243003133310378 $453 4.0243003133310378 $350 $503 forward 7 unknown #
point $-1 -46.367381817072058 20.672943950986333 -1.0243003133310378 #
point $-1 -46.367381817072058 14.893788551940357 -1.0243003133310378 #
straight-curve $-1 46.367381817072058 14.893788551940357 -1.2621501566655189 0 0 -1 I I #
straight-curve $-1 46.367381817072058 20.672943950986333 0 0 0 -1 I I #
coedge $-1 $372 $371 $364 $465 forward $361 $-1 #
edge $-1 $466 14.798245072391076 $469 16.984014007770519 $464 $504 forward 7 unknown #
vertex $-1 $465 $505 #
straight-curve $-1 -46.367381817072058 7.30346782502696 27.296586422373547 0 0 1 I I #
edge $-1 $469 1.7541537307851307 $373 9.3444744576985279 $372 $506 forward 7 unknown #
vertex $-1 $468 $507 #
straight-curve $-1 -46.367381817072044 7.30346782502696 1.4026986708539297 -0.57357642473473569 0 -0.81915205242281985 I I #
point $-1 -46.367381817072058 7.30346782502696 1.4026986708539095 #
point $-1 -44.181612881692615 14.893788551940357 4.5243003133310378 #
straight-curve $-1 -46.367381817072058 0 4.5243003133310378 0 -1 0 I I #
vertex $-1 $379 $508 #
point $-1 -43.52377514739652 9.4721308898593612 2.3480179342699157 #
vertex $-1 $383 $509 #
point $-1 -43.52377514739652 12.725125487107963 2.3480179342699157 #
edge $-1 $479 -11.796992014555507 $482 -9.611223079176078 $388 $510 forward 7 unknown #
vertex $-1 $392 $511 #
straight-curve $-1 46.367381817072058 14.893788551940357 65.27852240330067 0 0 1 I I #
edge $-1 $482 -9.3444744576985279 $399 -1.7541537307851307 $398 $512 forward 7 unknown #
vertex $-1 $481 $513 #
straight-curve $-1 -6.823092356821121 14.893788551940357 77.366570632708175 0.57357642473473569 0 -0.81915205242281985 I I #
point $-1 46.367381817072051 14.893788551940357 1.4026986708539368 #
point $-1 44.181612881692629 7.30346782502696 4.5243003133310395 #
straight-curve $-1 46.367381817072058 0 4.5243003133310378 0 1 0 I I #
vertex $-1 $405 $514 #
point $-1 44.097351572131267 9.4721308898593612 1.5288658818470915 #
vertex $-1 $409 $515 #
point $-1 44.097351572131267 12.725125487107963 1.5288658818470915 #
straight-curve $-1 -46.367381817072058 20.672943950986333 0 0 0 -1 I I #
point $-1 -46.367381817072058 -20.672943950986333 -4.5243003133310378 #
straight-curve $-1 -46.367381817072058 0 -4.5243003133310378 0 1 0 I I #
point $-1 -46.367381817072058 20.672943950986333 -4.5243003133310378 #
straight-curve $-1 -46.367381817072058 -8.8916831257316726 -4.0243003133310378 0 -1 0 I I #
point $-1 -46.367381817072058 -20.672943950986333 -4.0243003133310378 #
point $-1 -46.367381817072058 -14.893788551940357 -4.0243003133310378 #
straight-curve $-1 -46.367381817072058 -14.893788551940357 -1.2621501566655189 0 0 -1 I I #
straight-curve $-1 -46.367381817072058 -20.672943950986333 0 0 0 -1 I I #
point $-1 -46.367381817072058 14.893788551940357 -4.0243003133310378 #
straight-curve $-1 -46.367381817072058 8.8916831257316726 -4.0243003133310378 0 -1 0 I I #
point $-1 -46.367381817072058 20.672943950986333 -4.0243003133310378 #
straight-curve $-1 -46.367381817072058 20.672943950986333 0 0 0 -1 I I #
straight-curve $-1 -61.165626889463134 7.30346782502696 4.524300313331036 1 0 0 I I #
point $-1 -46.367381817072058 7.30346782502696 4.5243003133310378 #
straight-curve $-1 -44.181612881692622 5.5493140942418293 4.5243003133310378 0 1 0 I I #
point $-1 -44.181612881692615 7.30346782502696 4.5243003133310378 #
point $-1 -43.400987333552479 9.4721308898593612 1.6516536956911381 #
point $-1 -43.400987333552479 12.725125487107963 1.6516536956911381 #
straight-curve $-1 34.570389802516551 14.893788551940357 4.5243003133310395 -1 0 0 I I #
point $-1 46.367381817072058 14.893788551940357 4.5243003133310378 #
straight-curve $-1 44.181612881692629 5.5493140942418293 4.5243003133310395 0 -1 0 I I #
point $-1 44.181612881692629 14.893788551940357 4.5243003133310395 #
point $-1 43.400987333552486 9.4721308898593612 1.6516536956911336 #
point $-1 43.400987333552486 12.725125487107963 1.6516536956911336 #
End-of-ACIS-data 