500 0 10 0           
7 Unknown 11 ACIS 5.0 NT 24 Thu Mar 25 23:04:41 1999 
-1 9.9999999999999995e-007 1e-010 
body $-1 $10 $-1 $11 #
body $-1 $12 $-1 $13 #
body $-1 $14 $-1 $15 #
body $-1 $16 $-1 $17 #
body $-1 $18 $-1 $19 #
body $-1 $20 $-1 $21 #
body $-1 $22 $-1 $23 #
body $-1 $24 $-1 $25 #
body $-1 $26 $-1 $27 #
body $-1 $28 $-1 $29 #
lump $-1 $-1 $30 $0 #
transform $-1 1 0 0 0 1 0 0 0 1 72.059083834345529 35.112942102049161 16.633506573577915 1 rotate no_reflect no_shear #
lump $-1 $-1 $31 $1 #
transform $-1 1 0 0 0 1 0 0 0 1 72.059083834345529 35.112942102049161 16.633506573577915 1 rotate no_reflect no_shear #
lump $-1 $-1 $32 $2 #
transform $-1 1 0 0 0 1 0 0 0 1 72.059083834345529 35.112942102049161 16.633506573577915 1 rotate no_reflect no_shear #
lump $-1 $-1 $33 $3 #
transform $-1 1 0 0 0 1 0 0 0 1 72.059083834345529 35.112942102049161 16.633506573577915 1 rotate no_reflect no_shear #
lump $-1 $-1 $34 $4 #
transform $-1 1 0 0 0 1 0 0 0 1 72.059083834345529 35.112942102049161 16.633506573577915 1 rotate no_reflect no_shear #
lump $-1 $-1 $35 $5 #
transform $-1 1 0 0 0 1 0 0 0 1 72.059083834345529 35.112942102049161 16.633506573577915 1 rotate no_reflect no_shear #
lump $-1 $-1 $36 $6 #
transform $-1 1 0 0 0 1 0 0 0 1 72.059083834345529 35.112942102049161 16.633506573577915 1 rotate no_reflect no_shear #
lump $-1 $-1 $37 $7 #
transform $-1 1 0 0 0 1 0 0 0 1 72.059083834345529 35.112942102049161 16.633506573577915 1 rotate no_reflect no_shear #
lump $-1 $-1 $38 $8 #
transform $-1 1 0 0 0 1 0 0 0 1 72.059083834345529 35.112942102049161 16.633506573577915 1 rotate no_reflect no_shear #
lump $-1 $-1 $39 $9 #
transform $-1 1 0 0 0 1 0 0 0 1 72.059083834345529 35.112942102049161 16.633506573577915 1 rotate no_reflect no_shear #
shell $-1 $-1 $-1 $40 $-1 $10 #
shell $-1 $-1 $-1 $41 $-1 $12 #
shell $-1 $-1 $-1 $42 $-1 $14 #
shell $-1 $-1 $-1 $43 $-1 $16 #
shell $-1 $-1 $-1 $44 $-1 $18 #
shell $-1 $-1 $-1 $45 $-1 $20 #
shell $-1 $-1 $-1 $46 $-1 $22 #
shell $-1 $-1 $-1 $47 $-1 $24 #
shell $-1 $-1 $-1 $48 $-1 $26 #
shell $-1 $-1 $-1 $49 $-1 $28 #
face $-1 $50 $51 $30 $-1 $52 forward single #
face $-1 $53 $54 $31 $-1 $55 reversed single #
face $-1 $56 $57 $32 $-1 $58 reversed single #
face $-1 $59 $60 $33 $-1 $61 forward single #
face $-1 $62 $63 $34 $-1 $64 forward single #
face $-1 $65 $66 $35 $-1 $67 reversed single #
face $-1 $68 $69 $36 $-1 $70 forward single #
face $-1 $71 $72 $37 $-1 $73 forward single #
face $-1 $74 $75 $38 $-1 $76 reversed single #
face $-1 $77 $78 $39 $-1 $79 forward single #
face $-1 $80 $81 $30 $-1 $82 reversed single #
loop $-1 $-1 $83 $40 #
plane-surface $-1 0 0 16.633506573577915 0 0 1 1 0 0 forward_v I I I I #
face $-1 $84 $85 $31 $-1 $86 reversed single #
loop $-1 $-1 $87 $41 #
plane-surface $-1 -64.906239446054954 0 12.713284463982502 0 0 1 1 0 0 forward_v I I I I #
face $-1 $88 $89 $32 $-1 $90 reversed single #
loop $-1 $-1 $91 $42 #
plane-surface $-1 -44.364093781734724 -14.544256257339811 55.928687428909157 0 0.70710678939079041 0.70710677298230451 1 0 0 forward_v I I I I #
face $-1 $92 $93 $33 $-1 $94 forward single #
loop $-1 $95 $96 $43 #
cone-surface $-1 -50.10236575717601 29.170380155132939 10.690944524107735 0 -0.70710678939079041 -0.70710677298230451 2 0 0 1 I I 0 1 2 forward I I I I #
face $-1 $97 $98 $34 $-1 $99 forward single #
loop $-1 $100 $101 $44 #
cone-surface $-1 -38.625821806293445 29.170380155132939 10.690944524107735 0 -0.70710678939079041 -0.70710677298230451 2 0 0 1 I I 0 1 2 forward I I I I #
face $-1 $102 $103 $35 $-1 $104 reversed single #
loop $-1 $-1 $105 $45 #
plane-surface $-1 7.1528443882905712 87.362678575751943 157.83561989723998 1 0 0 0 -0.70710678939079041 -0.70710677298230451 forward_v I I I I #
face $-1 $106 $107 $36 $-1 $108 forward single #
loop $-1 $109 $110 $46 #
cone-surface $-1 14.803873688878951 29.170380155132939 10.690944524107735 0 -0.70710678939079041 -0.70710677298230451 2 0 0 1 I I 0 1 2 forward I I I I #
face $-1 $111 $112 $37 $-1 $113 forward single #
loop $-1 $114 $115 $47 #
cone-surface $-1 26.280417639761509 29.170380155132939 10.690944524107735 0 -0.70710678939079041 -0.70710677298230451 2 0 0 1 I I 0 1 2 forward I I I I #
face $-1 $116 $117 $38 $-1 $118 reversed single #
loop $-1 $-1 $119 $48 #
plane-surface $-1 -36.296521772826601 -125.80944486292545 115.57076855449652 -1 0 0 0 -0.62932039886446345 0.77714595512881146 forward_v I I I I #
face $-1 $120 $121 $39 $-1 $122 forward single #
loop $-1 $123 $124 $49 #
cone-surface $-1 -47.024958415295494 -24.553765625729625 7.023012054979163 0 0.62932039886446345 -0.77714595512881146 2 0 0 1 I I 0 1 2 forward I I I I #
face $-1 $125 $126 $30 $-1 $127 reversed single #
loop $-1 $-1 $128 $50 #
plane-surface $-1 0 0 -16.633506573577915 0 0 1 1 0 0 forward_v I I I I #
coedge $-1 $129 $130 $131 $132 forward $51 $-1 #
face $-1 $133 $134 $31 $-1 $135 reversed single #
loop $-1 $-1 $136 $53 #
plane-surface $-1 -57.753395057764386 0 14.673395518780207 -1 0 0 0 0 1 forward_v I I I I #
coedge $-1 $137 $138 $139 $140 forward $54 $-1 #
face $-1 $141 $142 $32 $-1 $143 forward single #
loop $-1 $-1 $144 $56 #
plane-surface $-1 -30.974792505705064 87.362678575751943 157.83561989723998 -1 0 0 0 0.70710678939079041 0.70710677298230451 forward_v I I I I #
coedge $-1 $145 $146 $147 $148 reversed $57 $-1 #
face $-1 $-1 $149 $33 $-1 $150 forward single #
loop $-1 $151 $152 $59 #
cone-surface $-1 -50.10236575717601 27.701720626779135 9.2222850298343282 0 -0.70710678939079041 -0.70710677298230451 1 0 0 1 I I -0.70710678118654746 0.70710678118654746 1 forward I I I I #
loop $-1 $-1 $153 $43 #
coedge $-1 $96 $96 $154 $155 reversed $60 $-1 #
face $-1 $-1 $156 $34 $-1 $157 forward single #
loop $-1 $158 $159 $62 #
cone-surface $-1 -38.625821806293445 27.701720626779135 9.2222850298343282 0 -0.70710678939079041 -0.70710677298230451 1 0 0 1 I I -0.70710678118654746 0.70710678118654746 1 forward I I I I #
loop $-1 $-1 $160 $44 #
coedge $-1 $101 $101 $161 $162 reversed $63 $-1 #
face $-1 $163 $164 $35 $-1 $165 reversed single #
loop $-1 $-1 $166 $65 #
plane-surface $-1 20.54214566432023 -14.544256257339811 55.928687428909157 0 0.70710678939079041 0.70710677298230451 1 0 0 forward_v I I I I #
coedge $-1 $167 $168 $169 $170 reversed $66 $-1 #
face $-1 $-1 $171 $36 $-1 $172 forward single #
loop $-1 $173 $174 $68 #
cone-surface $-1 14.803873688878951 27.701720626779135 9.2222850298343282 0 -0.70710678939079041 -0.70710677298230451 1 0 0 1 I I -0.70710678118654746 0.70710678118654746 1 forward I I I I #
loop $-1 $-1 $175 $46 #
coedge $-1 $110 $110 $176 $177 reversed $69 $-1 #
face $-1 $-1 $178 $37 $-1 $179 forward single #
loop $-1 $180 $181 $71 #
cone-surface $-1 26.280417639761509 27.701720626779135 9.2222850298343282 0 -0.70710678939079041 -0.70710677298230451 1 0 0 1 I I -0.70710678118654746 0.70710678118654746 1 forward I I I I #
loop $-1 $-1 $182 $47 #
coedge $-1 $115 $115 $183 $184 reversed $72 $-1 #
face $-1 $185 $186 $38 $-1 $187 forward single #
loop $-1 $-1 $188 $74 #
plane-surface $-1 -47.024958415295494 -35.112942102049175 3.5699174901974118 0 -0.62932039886446345 0.77714595512881146 1 0 0 forward_v I I I I #
coedge $-1 $189 $190 $191 $192 reversed $75 $-1 #
face $-1 $-1 $193 $39 $-1 $194 forward single #
loop $-1 $195 $196 $77 #
cone-surface $-1 -47.024958415295494 -21.4313630913081 3.167166122941854 0 0.62932039886446345 -0.77714595512881146 1 0 0 1 I I -0.70710678118654746 0.70710678118654746 1 forward I I I I #
loop $-1 $-1 $197 $49 #
coedge $-1 $124 $124 $198 $199 reversed $78 $-1 #
face $-1 $200 $201 $30 $-1 $202 reversed single #
loop $-1 $-1 $203 $80 #
plane-surface $-1 0 -35.112942102049161 0 0 1 0 0 0 1 forward_v I I I I #
coedge $-1 $204 $205 $206 $207 forward $81 $-1 #
coedge $-1 $208 $83 $209 $210 forward $51 $-1 #
coedge $-1 $83 $208 $211 $212 forward $51 $-1 #
coedge $-1 $213 $214 $83 $132 reversed $215 $-1 #
edge $-1 $216 -35.112942102049161 $217 35.112942102049161 $131 $218 forward 7 unknown #
face $-1 $219 $220 $31 $-1 $221 reversed single #
loop $-1 $-1 $222 $84 #
plane-surface $-1 0 35.112942102049161 0 0 -1 0 0 0 -1 forward_v I I I I #
coedge $-1 $139 $223 $224 $225 reversed $85 $-1 #
coedge $-1 $226 $87 $227 $228 reversed $54 $-1 #
coedge $-1 $87 $226 $229 $230 reversed $54 $-1 #
coedge $-1 $231 $136 $87 $140 reversed $85 $-1 #
edge $-1 $232 -35.112942102049161 $233 35.112942102049161 $139 $234 forward 7 unknown #
face $-1 $235 $236 $32 $-1 $237 reversed single #
loop $-1 $-1 $147 $88 #
plane-surface $-1 0 0 16.633506573577915 0 0 1 1 0 0 forward_v I I I I #
coedge $-1 $238 $239 $240 $241 reversed $89 $-1 #
coedge $-1 $242 $91 $243 $244 reversed $57 $-1 #
coedge $-1 $91 $242 $238 $245 forward $57 $-1 #
coedge $-1 $240 $246 $91 $148 forward $142 $-1 #
edge $-1 $247 -35.571348166897025 $248 -8.7927456148377026 $147 $249 forward 7 unknown #
loop $-1 $-1 $154 $92 #
plane-surface $-1 -44.364093781734724 -14.544256257339811 55.928687428909157 0 0.70710678939079041 0.70710677298230451 1 0 0 forward_v I I I I #
loop $-1 $-1 $250 $59 #
coedge $-1 $152 $152 $153 $251 reversed $93 $-1 #
coedge $-1 $153 $153 $152 $251 forward $95 $-1 #
coedge $-1 $154 $154 $96 $155 forward $149 $-1 #
edge $-1 $252 6.2803690331836313e-016 $252 6.2831853071796013 $154 $253 forward 7 unknown #
loop $-1 $-1 $161 $97 #
plane-surface $-1 -44.364093781734724 -14.544256257339811 55.928687428909157 0 0.70710678939079041 0.70710677298230451 1 0 0 forward_v I I I I #
loop $-1 $-1 $254 $62 #
coedge $-1 $159 $159 $160 $255 reversed $98 $-1 #
coedge $-1 $160 $160 $159 $255 forward $100 $-1 #
coedge $-1 $161 $161 $101 $162 forward $156 $-1 #
edge $-1 $256 6.2803690331836313e-016 $256 6.2831853071796013 $161 $257 forward 7 unknown #
face $-1 $258 $259 $35 $-1 $260 forward single #
loop $-1 $-1 $261 $102 #
plane-surface $-1 33.931446940349886 87.362678575751943 157.83561989723998 -1 0 0 0 0.70710678939079041 0.70710677298230451 forward_v I I I I #
coedge $-1 $262 $263 $264 $265 reversed $103 $-1 #
coedge $-1 $168 $105 $266 $267 reversed $66 $-1 #
coedge $-1 $105 $167 $262 $268 reversed $66 $-1 #
coedge $-1 $264 $269 $105 $170 forward $259 $-1 #
edge $-1 $270 8.5683971858268109 $271 18.930415601733266 $169 $272 forward 7 unknown #
loop $-1 $-1 $176 $106 #
plane-surface $-1 20.54214566432023 -14.544256257339811 55.928687428909157 0 0.70710678939079041 0.70710677298230451 1 0 0 forward_v I I I I #
loop $-1 $-1 $273 $68 #
coedge $-1 $174 $174 $175 $274 reversed $107 $-1 #
coedge $-1 $175 $175 $174 $274 forward $109 $-1 #
coedge $-1 $176 $176 $110 $177 forward $171 $-1 #
edge $-1 $275 6.2803690331836313e-016 $275 6.2831853071796013 $176 $276 forward 7 unknown #
loop $-1 $-1 $183 $111 #
plane-surface $-1 20.54214566432023 -14.544256257339811 55.928687428909157 0 0.70710678939079041 0.70710677298230451 1 0 0 forward_v I I I I #
loop $-1 $-1 $277 $71 #
coedge $-1 $181 $181 $182 $278 reversed $112 $-1 #
coedge $-1 $182 $182 $181 $278 forward $114 $-1 #
coedge $-1 $183 $183 $115 $184 forward $178 $-1 #
edge $-1 $279 6.2803690331836313e-016 $279 6.2831853071796013 $183 $280 forward 7 unknown #
face $-1 $281 $282 $38 $-1 $283 forward single #
loop $-1 $-1 $284 $116 #
plane-surface $-1 -57.753395057764386 0 14.673395518780207 -1 0 0 0 0 1 forward_v I I I I #
coedge $-1 $285 $286 $287 $288 reversed $117 $-1 #
coedge $-1 $190 $119 $289 $290 reversed $75 $-1 #
coedge $-1 $119 $189 $285 $291 reversed $75 $-1 #
coedge $-1 $287 $292 $119 $192 forward $282 $-1 #
edge $-1 $293 27.791780329413562 $294 43.923969010938485 $191 $295 forward 7 unknown #
loop $-1 $-1 $198 $120 #
plane-surface $-1 -47.024958415295494 -35.112942102049175 3.5699174901974118 0 -0.62932039886446345 0.77714595512881146 1 0 0 forward_v I I I I #
loop $-1 $-1 $296 $77 #
coedge $-1 $196 $196 $197 $297 reversed $121 $-1 #
coedge $-1 $197 $197 $196 $297 forward $123 $-1 #
coedge $-1 $198 $198 $124 $199 forward $193 $-1 #
edge $-1 $298 -5.9271571888034139e-016 $298 6.2831853071795996 $198 $299 forward 7 unknown #
face $-1 $300 $301 $30 $-1 $302 reversed single #
loop $-1 $-1 $303 $125 #
plane-surface $-1 -72.059083834345529 0 0 1 0 0 0 0 -1 forward_v I I I I #
coedge $-1 $304 $211 $305 $306 forward $126 $-1 #
coedge $-1 $307 $128 $304 $308 forward $81 $-1 #
coedge $-1 $128 $307 $309 $310 forward $81 $-1 #
coedge $-1 $214 $213 $128 $207 reversed $215 $-1 #
edge $-1 $311 -35.112942102049161 $312 35.112942102049161 $206 $313 forward 7 unknown #
coedge $-1 $130 $129 $314 $315 forward $51 $-1 #
coedge $-1 $316 $317 $129 $210 reversed $301 $-1 #
edge $-1 $217 -72.059083834345529 $318 72.059083834345529 $209 $319 forward 7 unknown #
coedge $-1 $203 $320 $130 $212 reversed $126 $-1 #
edge $-1 $321 -72.059083834345529 $216 72.059083834345529 $211 $322 forward 7 unknown #
coedge $-1 $206 $131 $320 $323 forward $215 $-1 #
coedge $-1 $131 $206 $316 $324 reversed $215 $-1 #
loop $-1 $-1 $213 $300 #
vertex $-1 $132 $325 #
vertex $-1 $132 $326 #
straight-curve $-1 72.059083834345529 0 16.633506573577915 0 1 0 I I #
face $-1 $327 $328 $31 $-1 $329 forward single #
loop $-1 $-1 $330 $133 #
plane-surface $-1 -72.059083834345529 0 0 1 0 0 0 0 -1 forward_v I I I I #
coedge $-1 $229 $331 $231 $332 forward $134 $-1 #
coedge $-1 $136 $231 $333 $334 reversed $85 $-1 #
coedge $-1 $335 $227 $136 $225 forward $336 $-1 #
edge $-1 $233 5.3765867045923983 $337 9.2968088141878074 $224 $338 forward 7 unknown #
coedge $-1 $138 $137 $330 $339 reversed $54 $-1 #
coedge $-1 $224 $340 $137 $228 forward $336 $-1 #
edge $-1 $341 -39.605964111318052 $233 -25.300275334736909 $227 $342 forward 7 unknown #
coedge $-1 $343 $222 $138 $230 forward $134 $-1 #
edge $-1 $232 25.300275334736909 $344 39.605964111318052 $229 $345 forward 7 unknown #
coedge $-1 $223 $139 $222 $332 reversed $85 $-1 #
vertex $-1 $230 $346 #
vertex $-1 $228 $347 #
straight-curve $-1 -57.753395057764386 0 12.713284463982502 0 -1 0 I I #
face $-1 $-1 $348 $32 $-1 $349 forward single #
loop $-1 $-1 $350 $141 #
plane-surface $-1 0 35.112942102049161 0 0 -1 0 0 0 -1 forward_v I I I I #
coedge $-1 $239 $144 $146 $245 reversed $89 $-1 #
coedge $-1 $144 $238 $350 $351 reversed $89 $-1 #
coedge $-1 $352 $147 $144 $241 forward $142 $-1 #
edge $-1 $248 -18.930415601733266 $353 -8.5683971858268109 $240 $354 forward 7 unknown #
coedge $-1 $146 $145 $355 $356 reversed $57 $-1 #
coedge $-1 $357 $358 $145 $244 forward $348 $-1 #
edge $-1 $359 -50.497764646345161 $247 -35.843657498985444 $243 $360 forward 7 unknown #
edge $-1 $361 -70.225884204098364 $248 -55.57177705673864 $238 $362 forward 7 unknown #
coedge $-1 $147 $352 $357 $363 forward $142 $-1 #
vertex $-1 $244 $364 #
vertex $-1 $148 $365 #
straight-curve $-1 -22.182046890867362 24.750923686142713 16.633506573577911 1 0 0 I I #
coedge $-1 $250 $250 $-1 $366 reversed $151 $-1 #
edge $-1 $367 0 $367 6.2831853071796004 $152 $368 forward 7 unknown #
vertex $-1 $155 $369 #
ellipse-curve $-1 -50.10236575717601 29.93193289409594 11.452497245398828 0 0.70710678939079041 0.70710677298230451 2 0 0 1 I I #
coedge $-1 $254 $254 $-1 $370 reversed $158 $-1 #
edge $-1 $371 0 $371 6.2831853071796004 $159 $372 forward 7 unknown #
vertex $-1 $162 $373 #
ellipse-curve $-1 -38.625821806293445 29.93193289409594 11.452497245398828 0 0.70710678939079041 0.70710677298230451 2 0 0 1 I I #
face $-1 $-1 $374 $35 $-1 $375 reversed single #
loop $-1 $-1 $169 $163 #
plane-surface $-1 0 0 16.633506573577915 0 0 1 1 0 0 forward_v I I I I #
coedge $-1 $376 $377 $378 $379 reversed $164 $-1 #
coedge $-1 $380 $166 $168 $268 forward $103 $-1 #
coedge $-1 $166 $380 $376 $381 forward $103 $-1 #
coedge $-1 $378 $169 $166 $265 forward $259 $-1 #
edge $-1 $271 -3.118228443869544 $382 23.660374108189771 $264 $383 forward 7 unknown #
coedge $-1 $384 $385 $167 $267 forward $374 $-1 #
edge $-1 $386 -72.646322031400246 $270 -62.284303375042072 $266 $387 forward 7 unknown #
edge $-1 $271 55.57177705673864 $386 70.225884204098364 $168 $388 forward 7 unknown #
coedge $-1 $169 $378 $384 $389 forward $259 $-1 #
vertex $-1 $170 $390 #
vertex $-1 $170 $391 #
straight-curve $-1 7.1528443882905712 43.681339287875971 16.633506573577918 0 -1 0 I I #
coedge $-1 $273 $273 $-1 $392 reversed $173 $-1 #
edge $-1 $393 0 $393 6.2831853071796004 $174 $394 forward 7 unknown #
vertex $-1 $177 $395 #
ellipse-curve $-1 14.803873688878951 29.93193289409594 11.452497245398828 0 0.70710678939079041 0.70710677298230451 2 0 0 1 I I #
coedge $-1 $277 $277 $-1 $396 reversed $180 $-1 #
edge $-1 $397 0 $397 6.2831853071796004 $181 $398 forward 7 unknown #
vertex $-1 $184 $399 #
ellipse-curve $-1 26.280417639761509 29.93193289409594 11.452497245398828 0 0.70710678939079041 0.70710677298230451 2 0 0 1 I I #
face $-1 $-1 $400 $38 $-1 $401 reversed single #
loop $-1 $-1 $287 $185 #
plane-surface $-1 0 0 16.633506573577915 0 0 1 1 0 0 forward_v I I I I #
coedge $-1 $402 $403 $286 $404 reversed $186 $-1 #
coedge $-1 $405 $188 $190 $291 forward $117 $-1 #
coedge $-1 $188 $405 $284 $404 forward $117 $-1 #
coedge $-1 $406 $191 $188 $288 forward $282 $-1 #
edge $-1 $294 12.784042565178854 $407 34.240915850116636 $287 $408 forward 7 unknown #
coedge $-1 $409 $410 $189 $290 forward $400 $-1 #
edge $-1 $411 -54.215466787050836 $293 -41.151877703670351 $289 $412 forward 7 unknown #
edge $-1 $294 -20.758248273776367 $411 -1.8310242626372826e-014 $190 $413 forward 7 unknown #
coedge $-1 $191 $406 $409 $414 forward $282 $-1 #
vertex $-1 $290 $415 #
vertex $-1 $192 $416 #
straight-curve $-1 -36.296521772826601 -62.904722431462723 16.633506573577918 0 1 0 I I #
coedge $-1 $296 $296 $-1 $417 reversed $195 $-1 #
edge $-1 $418 0 $418 6.2831853071796004 $196 $419 forward 7 unknown #
vertex $-1 $199 $420 #
ellipse-curve $-1 -47.024958415295494 -27.046847761286696 10.101712031887672 0 -0.62932039886446345 0.77714595512881146 2 0 0 1 I I #
face $-1 $-1 $215 $30 $-1 $421 reversed single #
loop $-1 $-1 $316 $200 #
plane-surface $-1 0 35.112942102049161 0 0 -1 0 0 0 -1 forward_v I I I I #
coedge $-1 $422 $314 $317 $423 forward $201 $-1 #
coedge $-1 $320 $203 $204 $308 reversed $126 $-1 #
coedge $-1 $314 $422 $203 $306 reversed $201 $-1 #
edge $-1 $321 -16.633506573577915 $424 16.633506573577915 $305 $425 forward 7 unknown #
coedge $-1 $205 $204 $422 $426 forward $81 $-1 #
edge $-1 $312 -72.059083834345529 $424 72.059083834345529 $304 $427 forward 7 unknown #
coedge $-1 $317 $316 $205 $310 reversed $301 $-1 #
edge $-1 $428 -72.059083834345529 $311 72.059083834345529 $309 $429 forward 7 unknown #
vertex $-1 $207 $430 #
vertex $-1 $323 $431 #
straight-curve $-1 72.059083834345529 0 -16.633506573577915 0 -1 0 I I #
coedge $-1 $303 $305 $208 $315 reversed $201 $-1 #
edge $-1 $318 -35.112942102049161 $321 35.112942102049161 $314 $432 forward 7 unknown #
coedge $-1 $309 $209 $214 $324 forward $301 $-1 #
coedge $-1 $209 $309 $303 $423 reversed $301 $-1 #
vertex $-1 $210 $433 #
straight-curve $-1 0 35.112942102049161 16.633506573577915 -1 0 0 I I #
coedge $-1 $211 $304 $213 $323 reversed $126 $-1 #
vertex $-1 $315 $434 #
straight-curve $-1 0 -35.112942102049161 16.633506573577915 1 0 0 I I #
edge $-1 $216 -16.633506573577915 $312 16.633506573577915 $213 $435 forward 7 unknown #
edge $-1 $217 -16.633506573577915 $311 16.633506573577915 $214 $436 forward 7 unknown #
point $-1 72.059083834345529 -35.112942102049161 16.633506573577915 #
point $-1 72.059083834345529 35.112942102049161 16.633506573577915 #
face $-1 $-1 $336 $31 $-1 $437 reversed single #
loop $-1 $-1 $333 $219 #
plane-surface $-1 0 0 16.633506573577915 0 0 1 1 0 0 forward_v I I I I #
coedge $-1 $438 $439 $226 $339 forward $220 $-1 #
coedge $-1 $222 $343 $440 $441 reversed $134 $-1 #
edge $-1 $442 -9.2968088141878074 $232 -5.3765867045923983 $222 $443 forward 7 unknown #
coedge $-1 $440 $444 $223 $334 forward $328 $-1 #
edge $-1 $337 -35.112942102049161 $442 35.112942102049161 $333 $445 forward 7 unknown #
coedge $-1 $340 $224 $444 $446 reversed $336 $-1 #
loop $-1 $-1 $224 $327 #
vertex $-1 $225 $447 #
straight-curve $-1 -57.753395057764386 -35.112942102049161 7.3366977593901037 0 0 1 I I #
edge $-1 $344 -35.112942102049161 $341 35.112942102049161 $330 $448 forward 7 unknown #
coedge $-1 $227 $335 $438 $449 forward $336 $-1 #
vertex $-1 $339 $450 #
straight-curve $-1 -32.453119723027477 -35.112942102049161 12.713284463982502 1 0 0 I I #
coedge $-1 $331 $229 $439 $451 reversed $134 $-1 #
vertex $-1 $339 $452 #
straight-curve $-1 -32.453119723027477 35.112942102049161 12.713284463982502 -1 0 0 I I #
point $-1 -57.753395057764386 35.112942102049161 12.713284463982502 #
point $-1 -57.753395057764386 -35.112942102049161 12.713284463982502 #
loop $-1 $-1 $243 $235 #
plane-surface $-1 -57.753395057764386 0 14.673395518780207 -1 0 0 0 0 1 forward_v I I I I #
coedge $-1 $355 $453 $239 $351 forward $236 $-1 #
edge $-1 $353 62.284303375042072 $361 72.646322031400246 $350 $454 forward 7 unknown #
coedge $-1 $246 $240 $453 $455 forward $142 $-1 #
vertex $-1 $455 $456 #
straight-curve $-1 -30.974792505705064 43.681339287875971 16.633506573577918 0 1 0 I I #
coedge $-1 $457 $350 $242 $356 forward $236 $-1 #
edge $-1 $361 8.7927456148377026 $359 35.571348166897018 $355 $458 forward 7 unknown #
coedge $-1 $358 $243 $246 $363 reversed $348 $-1 #
coedge $-1 $243 $357 $457 $459 reversed $348 $-1 #
vertex $-1 $459 $460 #
straight-curve $-1 -57.753395057764386 -0.59436929984786691 41.97880014770864 0 -0.70710677298230462 0.70710678939079052 I I #
vertex $-1 $356 $461 #
straight-curve $-1 -30.974792505705064 -14.544256257339811 55.928687428909157 0 -0.70710677298230451 0.70710678939079041 I I #
edge $-1 $462 -35.112942102049161 $247 -24.750923686142706 $246 $463 forward 7 unknown #
point $-1 -57.753395057764386 24.750923686142706 16.633506573577915 #
point $-1 -30.974792505705064 24.750923686142706 16.633506573577918 #
edge $-1 $464 1 $464 0 $250 $-1 forward 7 unknown #
vertex $-1 $251 $465 #
ellipse-curve $-1 -50.10236575717601 28.408827416169924 9.9293918028166335 0 0.70710678939079041 0.70710677298230451 2 0 0 1 I I #
point $-1 -48.10236575717601 29.931932894095951 11.452497245398837 #
edge $-1 $466 1 $466 0 $254 $-1 forward 7 unknown #
vertex $-1 $255 $467 #
ellipse-curve $-1 -38.625821806293445 28.408827416169924 9.9293918028166335 0 0.70710678939079041 0.70710677298230451 2 0 0 1 I I #
point $-1 -36.625821806293445 29.931932894095951 11.452497245398837 #
loop $-1 $-1 $266 $258 #
plane-surface $-1 0 35.112942102049161 0 0 -1 0 0 0 -1 forward_v I I I I #
coedge $-1 $377 $261 $263 $381 reversed $164 $-1 #
coedge $-1 $261 $376 $468 $469 reversed $164 $-1 #
coedge $-1 $269 $264 $261 $379 forward $259 $-1 #
edge $-1 $382 -18.930415601733266 $470 -8.5683971858268109 $378 $471 forward 7 unknown #
coedge $-1 $263 $262 $385 $472 reversed $103 $-1 #
edge $-1 $473 -70.225884204098364 $382 -55.57177705673864 $376 $474 forward 7 unknown #
vertex $-1 $265 $475 #
straight-curve $-1 10.271072832160115 24.750923686142713 16.633506573577911 1 0 0 I I #
coedge $-1 $468 $266 $269 $389 reversed $374 $-1 #
coedge $-1 $266 $468 $380 $472 forward $374 $-1 #
vertex $-1 $267 $476 #
straight-curve $-1 7.1528443882905712 35.112942102049161 78.91780994861999 0 0 1 I I #
straight-curve $-1 7.1528443882905712 -14.544256257339811 55.928687428909157 0 0.70710677298230451 -0.70710678939079041 I I #
edge $-1 $470 -33.931446940349886 $270 -7.1528443882905712 $384 $477 forward 7 unknown #
point $-1 7.1528443882905712 35.112942102049161 16.633506573577915 #
point $-1 7.1528443882905712 24.750923686142706 16.633506573577918 #
edge $-1 $478 1 $478 0 $273 $-1 forward 7 unknown #
vertex $-1 $274 $479 #
ellipse-curve $-1 14.803873688878951 28.408827416169924 9.9293918028166335 0 0.70710678939079041 0.70710677298230451 2 0 0 1 I I #
point $-1 16.803873688878951 29.931932894095951 11.452497245398837 #
edge $-1 $480 1 $480 0 $277 $-1 forward 7 unknown #
vertex $-1 $278 $481 #
ellipse-curve $-1 26.280417639761509 28.408827416169924 9.9293918028166335 0 0.70710678939079041 0.70710677298230451 2 0 0 1 I I #
point $-1 28.280417639761509 29.931932894095951 11.452497245398837 #
loop $-1 $-1 $289 $281 #
plane-surface $-1 0 -35.112942102049161 0 0 1 0 0 0 1 forward_v I I I I #
coedge $-1 $403 $284 $482 $483 reversed $186 $-1 #
coedge $-1 $284 $402 $406 $484 reversed $186 $-1 #
edge $-1 $485 1.8310242626372826e-014 $407 20.758248273776367 $284 $486 forward 7 unknown #
coedge $-1 $286 $285 $410 $487 reversed $117 $-1 #
coedge $-1 $292 $287 $403 $484 forward $282 $-1 #
vertex $-1 $484 $488 #
straight-curve $-1 -23.512479207647747 -18.980753420524238 16.633506573577915 -1 0 0 I I #
coedge $-1 $482 $289 $292 $414 reversed $400 $-1 #
coedge $-1 $289 $482 $405 $487 forward $400 $-1 #
vertex $-1 $290 $489 #
straight-curve $-1 -36.296521772826601 -35.112942102049161 57.785384277248262 0 0 1 I I #
straight-curve $-1 -36.296521772826601 -35.112942102049175 3.5699174901974118 0 -0.77714595512881146 -0.62932039886446345 I I #
edge $-1 $490 -57.753395057764386 $293 -36.296521772826601 $409 $491 forward 7 unknown #
point $-1 -36.296521772826601 -35.112942102049161 16.633506573577915 #
point $-1 -36.296521772826601 -18.980753420524238 16.633506573577915 #
edge $-1 $492 1 $492 0 $296 $-1 forward 7 unknown #
vertex $-1 $297 $493 #
ellipse-curve $-1 -47.024958415295494 -22.060683490172565 3.9443120780706655 0 -0.62932039886446345 0.77714595512881146 2 0 0 1 I I #
point $-1 -45.024958415295494 -27.046847761286688 10.101712031887661 #
plane-surface $-1 72.059083834345529 0 0 -1 0 0 0 0 1 forward_v I I I I #
coedge $-1 $305 $303 $307 $426 reversed $201 $-1 #
edge $-1 $318 -16.633506573577915 $428 16.633506573577915 $317 $494 forward 7 unknown #
vertex $-1 $426 $495 #
straight-curve $-1 -72.059083834345529 -35.112942102049161 0 0 0 -1 I I #
edge $-1 $424 -35.112942102049161 $428 35.112942102049161 $422 $496 forward 7 unknown #
straight-curve $-1 0 -35.112942102049161 -16.633506573577915 -1 0 0 I I #
vertex $-1 $310 $497 #
straight-curve $-1 0 35.112942102049161 -16.633506573577915 1 0 0 I I #
point $-1 72.059083834345529 35.112942102049161 -16.633506573577915 #
point $-1 72.059083834345529 -35.112942102049161 -16.633506573577915 #
straight-curve $-1 -72.059083834345529 0 16.633506573577915 0 -1 0 I I #
point $-1 -72.059083834345529 35.112942102049161 16.633506573577915 #
point $-1 -72.059083834345529 -35.112942102049161 16.633506573577915 #
straight-curve $-1 72.059083834345529 -35.112942102049161 0 0 0 -1 I I #
straight-curve $-1 72.059083834345529 35.112942102049161 0 0 0 -1 I I #
plane-surface $-1 0 -35.112942102049161 0 0 1 0 0 0 1 forward_v I I I I #
coedge $-1 $498 $330 $340 $449 reversed $220 $-1 #
coedge $-1 $330 $498 $343 $451 forward $220 $-1 #
coedge $-1 $499 $333 $331 $441 forward $328 $-1 #
edge $-1 $442 57.753395057764386 $500 72.059083834345529 $331 $501 forward 7 unknown #
vertex $-1 $441 $502 #
straight-curve $-1 -57.753395057764386 35.112942102049161 7.3366977593901037 0 0 -1 I I #
coedge $-1 $333 $499 $335 $446 forward $328 $-1 #
straight-curve $-1 -57.753395057764386 0 16.633506573577915 0 1 0 I I #
edge $-1 $503 -72.059083834345529 $337 -57.753395057764386 $335 $504 forward 7 unknown #
point $-1 -57.753395057764386 -35.112942102049161 16.633506573577911 #
straight-curve $-1 -72.059083834345529 0 12.713284463982502 0 -1 0 I I #
edge $-1 $503 -16.633506573577915 $341 -12.713284463982502 $438 $505 forward 7 unknown #
point $-1 -72.059083834345529 -35.112942102049161 12.713284463982502 #
edge $-1 $500 -16.633506573577915 $344 -12.713284463982502 $343 $506 forward 7 unknown #
point $-1 -72.059083834345529 35.112942102049161 12.713284463982502 #
coedge $-1 $350 $457 $352 $455 reversed $236 $-1 #
straight-curve $-1 -30.974792505705064 35.112942102049161 78.91780994861999 0 0 -1 I I #
edge $-1 $353 30.974792505705064 $462 57.753395057764386 $453 $507 forward 7 unknown #
point $-1 -30.974792505705064 35.112942102049161 16.633506573577915 #
coedge $-1 $453 $355 $358 $459 forward $236 $-1 #
straight-curve $-1 -22.182046890867362 35.112942102049153 6.2714879172197584 -1 0 0 I I #
edge $-1 $359 -72.646322031400246 $462 -62.284303375042079 $457 $508 forward 7 unknown #
point $-1 -57.753395057764379 35.112942102049161 6.2714879172197513 #
point $-1 -30.974792505705064 35.112942102049161 6.2714879172197513 #
vertex $-1 $363 $509 #
straight-curve $-1 -57.753395057764386 0 16.633506573577915 0 -1 0 I I #
vertex $-1 $366 $510 #
point $-1 -48.10236575717601 28.408827416169924 9.9293918028166335 #
vertex $-1 $370 $511 #
point $-1 -36.625821806293445 28.408827416169924 9.9293918028166335 #
coedge $-1 $385 $384 $377 $469 forward $374 $-1 #
edge $-1 $470 62.284303375042072 $473 72.646322031400246 $468 $512 forward 7 unknown #
vertex $-1 $389 $513 #
straight-curve $-1 33.931446940349886 43.681339287875971 16.633506573577918 0 1 0 I I #
edge $-1 $473 -23.660374108189771 $386 3.118228443869544 $385 $514 forward 7 unknown #
vertex $-1 $472 $515 #
straight-curve $-1 33.931446940349886 -14.544256257339811 55.928687428909157 0 -0.70710677298230451 0.70710678939079041 I I #
point $-1 33.931446940349886 24.750923686142706 16.633506573577918 #
point $-1 7.1528443882905712 35.112942102049161 6.2714879172197513 #
straight-curve $-1 0 35.112942102049161 16.633506573577915 -1 0 0 I I #
vertex $-1 $392 $516 #
point $-1 16.803873688878951 28.408827416169924 9.9293918028166335 #
vertex $-1 $396 $517 #
point $-1 28.280417639761509 28.408827416169924 9.9293918028166335 #
coedge $-1 $410 $409 $402 $483 forward $400 $-1 #
edge $-1 $490 41.151877703670351 $485 54.215466787050836 $482 $518 forward 7 unknown #
edge $-1 $407 18.980753420524238 $490 35.112942102049161 $406 $519 forward 7 unknown #
vertex $-1 $483 $520 #
straight-curve $-1 -57.753395057764386 -35.112942102049175 3.5699174901974118 0 0.77714595512881146 0.62932039886446345 I I #
edge $-1 $485 -34.240915850116636 $411 -12.784042565178854 $410 $521 forward 7 unknown #
point $-1 -57.753395057764386 -18.980753420524238 16.633506573577915 #
point $-1 -36.296521772826601 -35.112942102049161 3.5699174901974233 #
vertex $-1 $414 $522 #
straight-curve $-1 0 -35.112942102049161 16.633506573577915 1 0 0 I I #
vertex $-1 $417 $523 #
point $-1 -45.024958415295494 -22.060683490172565 3.9443120780706655 #
straight-curve $-1 -72.059083834345529 35.112942102049161 0 0 0 -1 I I #
point $-1 -72.059083834345529 -35.112942102049161 -16.633506573577915 #
straight-curve $-1 -72.059083834345529 0 -16.633506573577915 0 1 0 I I #
point $-1 -72.059083834345529 35.112942102049161 -16.633506573577915 #
coedge $-1 $439 $438 $499 $524 reversed $220 $-1 #
coedge $-1 $444 $440 $498 $524 forward $328 $-1 #
vertex $-1 $441 $525 #
straight-curve $-1 0 35.112942102049161 16.633506573577915 -1 0 0 I I #
point $-1 -57.753395057764386 35.112942102049161 16.633506573577911 #
vertex $-1 $524 $526 #
straight-curve $-1 0 -35.112942102049161 16.633506573577915 1 0 0 I I #
straight-curve $-1 -72.059083834345529 -35.112942102049161 0 0 0 -1 I I #
straight-curve $-1 -72.059083834345529 35.112942102049161 0 0 0 -1 I I #
straight-curve $-1 0 35.112942102049161 16.633506573577915 -1 0 0 I I #
straight-curve $-1 -57.753395057764379 35.112942102049161 78.91780994861999 0 0 1 I I #
point $-1 -57.753395057764386 35.112942102049161 16.633506573577911 #
point $-1 -50.10236575717601 26.994613837388346 8.5151782568520229 #
point $-1 -38.625821806293445 26.994613837388346 8.5151782568520229 #
straight-curve $-1 33.931446940349886 35.112942102049161 78.91780994861999 0 0 -1 I I #
point $-1 33.931446940349886 35.112942102049161 16.633506573577915 #
straight-curve $-1 10.271072832160115 35.112942102049153 6.2714879172197584 -1 0 0 I I #
point $-1 33.931446940349886 35.112942102049161 6.2714879172197513 #
point $-1 14.803873688878951 26.994613837388346 8.5151782568520229 #
point $-1 26.280417639761509 26.994613837388346 8.5151782568520229 #
straight-curve $-1 -57.753395057764386 -35.112942102049161 57.785384277248262 0 0 -1 I I #
straight-curve $-1 -57.753395057764386 0 16.633506573577915 0 -1 0 I I #
point $-1 -57.753395057764386 -35.112942102049161 3.5699174901974233 #
straight-curve $-1 -23.512479207647747 -35.112942102049161 3.5699174901974216 1 0 0 I I #
point $-1 -57.753395057764386 -35.112942102049161 16.633506573577911 #
point $-1 -47.024958415295494 -20.802042692443635 2.3900201678130424 #
edge $-1 $500 -35.112942102049161 $503 35.112942102049161 $498 $527 forward 7 unknown #
point $-1 -72.059083834345529 35.112942102049161 16.633506573577915 #
point $-1 -72.059083834345529 -35.112942102049161 16.633506573577915 #
straight-curve $-1 -72.059083834345529 0 16.633506573577915 0 -1 0 I I #
End-of-ACIS-data 