500 0 6 0           
7 Unknown 11 ACIS 5.0 NT 24 Fri Mar 26 20:20:20 1999 
-1 9.9999999999999995e-007 1e-010 
body $-1 $6 $-1 $7 #
body $-1 $8 $-1 $9 #
body $-1 $10 $-1 $11 #
body $-1 $12 $-1 $13 #
body $-1 $14 $-1 $15 #
body $-1 $16 $-1 $17 #
lump $-1 $-1 $18 $0 #
transform $-1 1 0 0 0 1 0 0 0 1 51.451765495773188 31.175056056397651 13.482519589074712 1 rotate no_reflect no_shear #
lump $-1 $-1 $19 $1 #
transform $-1 1 0 0 0 1 0 0 0 1 51.451765495773188 31.175056056397651 13.482519589074712 1 rotate no_reflect no_shear #
lump $-1 $-1 $20 $2 #
transform $-1 1 0 0 0 1 0 0 0 1 51.451765495773188 31.175056056397651 13.482519589074712 1 rotate no_reflect no_shear #
lump $-1 $-1 $21 $3 #
transform $-1 1 0 0 0 1 0 0 0 1 51.451765495773188 31.175056056397651 13.482519589074712 1 rotate no_reflect no_shear #
lump $-1 $-1 $22 $4 #
transform $-1 1 0 0 0 1 0 0 0 1 51.451765495773188 31.175056056397651 13.482519589074712 1 rotate no_reflect no_shear #
lump $-1 $-1 $23 $5 #
transform $-1 1 0 0 0 1 0 0 0 1 51.451765495773188 31.175056056397651 13.482519589074712 1 rotate no_reflect no_shear #
shell $-1 $-1 $-1 $24 $-1 $6 #
shell $-1 $-1 $-1 $25 $-1 $8 #
shell $-1 $-1 $-1 $26 $-1 $10 #
shell $-1 $-1 $-1 $27 $-1 $12 #
shell $-1 $-1 $-1 $28 $-1 $14 #
shell $-1 $-1 $-1 $29 $-1 $16 #
face $-1 $30 $31 $18 $-1 $32 forward single #
face $-1 $33 $34 $19 $-1 $35 reversed single #
face $-1 $36 $37 $20 $-1 $38 reversed single #
face $-1 $39 $40 $21 $-1 $41 forward single #
face $-1 $42 $43 $22 $-1 $44 forward single #
face $-1 $45 $46 $23 $-1 $47 forward single #
face $-1 $48 $49 $18 $-1 $50 reversed single #
loop $-1 $-1 $51 $24 #
plane-surface $-1 0 0 13.482519589074712 0 0 1 1 0 0 forward_v I I I I #
face $-1 $52 $53 $19 $-1 $54 reversed single #
loop $-1 $-1 $55 $25 #
plane-surface $-1 -45.410739223886281 0 5.7078619263174648 0 0 1 1 0 0 forward_v I I I I #
face $-1 $56 $57 $20 $-1 $58 reversed single #
loop $-1 $-1 $59 $26 #
plane-surface $-1 66.663540564646937 17.668032902800732 146.42268221407025 0 -1 0 -0.77714596973225614 0 -0.62932038083071107 forward_v I I I I #
face $-1 $60 $61 $21 $-1 $62 forward single #
loop $-1 $63 $64 $27 #
cone-surface $-1 45.363750752252251 7.4884880019071929 6.5231568064682417 -0.77714596973225614 0 -0.62932038083071107 0.62932038083071107 0 -0.77714596973225614 1 I I 0 1 1 forward I I I I #
face $-1 $65 $66 $22 $-1 $67 forward single #
loop $-1 $68 $69 $28 #
cone-surface $-1 45.363750752252251 11.305817339742269 6.5231568064682417 -0.77714596973225614 0 -0.62932038083071107 0.62932038083071107 0 -0.77714596973225614 1 I I 0 1 1 forward I I I I #
face $-1 $70 $71 $23 $-1 $72 forward single #
loop $-1 $73 $74 $29 #
cone-surface $-1 45.363750752252251 15.123146677577346 6.5231568064682417 -0.77714596973225614 0 -0.62932038083071107 0.62932038083071107 0 -0.77714596973225614 1 I I 0 1 1 forward I I I I #
face $-1 $75 $76 $18 $-1 $77 reversed single #
loop $-1 $-1 $78 $30 #
plane-surface $-1 0 0 -13.482519589074712 0 0 1 1 0 0 forward_v I I I I #
coedge $-1 $79 $80 $81 $82 forward $31 $-1 #
face $-1 $83 $84 $19 $-1 $85 reversed single #
loop $-1 $-1 $86 $33 #
plane-surface $-1 -39.369712951999375 0 9.5951907576960878 -1 0 0 0 0 1 forward_v I I I I #
coedge $-1 $87 $88 $89 $90 forward $34 $-1 #
face $-1 $91 $92 $20 $-1 $93 reversed single #
loop $-1 $-1 $94 $36 #
plane-surface $-1 -13.307523816651639 11.305817339742269 81.663392901645409 0.77714596973225614 0 0.62932038083071107 0.62932038083071107 0 -0.77714596973225614 forward_v I I I I #
coedge $-1 $95 $96 $97 $98 reversed $37 $-1 #
face $-1 $-1 $99 $21 $-1 $100 forward single #
loop $-1 $101 $102 $39 #
cone-surface $-1 43.660917133401981 7.4884880019071929 5.1442293678103681 -0.77714596973225614 0 -0.62932038083071107 0.31466019041535553 0 -0.38857298486612807 1 I I -0.70710678118654746 0.70710678118654746 0.5 forward I I I I #
loop $-1 $-1 $103 $27 #
coedge $-1 $64 $64 $104 $105 reversed $40 $-1 #
face $-1 $-1 $106 $22 $-1 $107 forward single #
loop $-1 $108 $109 $42 #
cone-surface $-1 43.660917133401981 11.305817339742269 5.1442293678103681 -0.77714596973225614 0 -0.62932038083071107 0.31466019041535553 0 -0.38857298486612807 1 I I -0.70710678118654746 0.70710678118654746 0.5 forward I I I I #
loop $-1 $-1 $110 $28 #
coedge $-1 $69 $69 $111 $112 reversed $43 $-1 #
face $-1 $-1 $113 $23 $-1 $114 forward single #
loop $-1 $115 $116 $45 #
cone-surface $-1 43.660917133401981 15.123146677577346 5.1442293678103681 -0.77714596973225614 0 -0.62932038083071107 0.31466019041535553 0 -0.38857298486612807 1 I I -0.70710678118654746 0.70710678118654746 0.5 forward I I I I #
loop $-1 $-1 $117 $29 #
coedge $-1 $74 $74 $118 $119 reversed $46 $-1 #
face $-1 $120 $121 $18 $-1 $122 reversed single #
loop $-1 $-1 $123 $48 #
plane-surface $-1 0 -31.175056056397651 0 0 1 0 0 0 1 forward_v I I I I #
coedge $-1 $124 $125 $126 $127 forward $49 $-1 #
coedge $-1 $128 $51 $129 $130 forward $31 $-1 #
coedge $-1 $51 $128 $131 $132 forward $31 $-1 #
coedge $-1 $133 $134 $51 $82 reversed $135 $-1 #
edge $-1 $136 -31.175056056397651 $137 31.175056056397651 $81 $138 forward 7 unknown #
face $-1 $139 $140 $19 $-1 $141 reversed single #
loop $-1 $-1 $142 $52 #
plane-surface $-1 0 31.175056056397651 0 0 -1 0 0 0 -1 forward_v I I I I #
coedge $-1 $89 $143 $144 $145 reversed $53 $-1 #
coedge $-1 $146 $55 $147 $148 reversed $34 $-1 #
coedge $-1 $55 $146 $149 $150 reversed $34 $-1 #
coedge $-1 $151 $86 $55 $90 reversed $53 $-1 #
edge $-1 $152 -31.175056056397651 $153 31.175056056397651 $89 $154 forward 7 unknown #
face $-1 $155 $156 $20 $-1 $157 forward single #
loop $-1 $-1 $158 $56 #
plane-surface $-1 66.663540564646937 4.9436017766838063 146.42268221407025 0 1 0 0.77714596973225614 0 0.62932038083071107 forward_v I I I I #
coedge $-1 $159 $160 $161 $162 reversed $57 $-1 #
coedge $-1 $96 $59 $163 $164 reversed $37 $-1 #
coedge $-1 $59 $95 $159 $165 reversed $37 $-1 #
coedge $-1 $161 $166 $59 $98 forward $156 $-1 #
edge $-1 $167 -18.11999521344972 $168 -8.572486994376078 $97 $169 forward 7 unknown #
loop $-1 $-1 $104 $60 #
plane-surface $-1 -13.307523816651639 11.305817339742269 81.663392901645409 0.77714596973225614 0 0.62932038083071107 0.62932038083071107 0 -0.77714596973225614 forward_v I I I I #
loop $-1 $-1 $170 $39 #
coedge $-1 $102 $102 $103 $171 reversed $61 $-1 #
coedge $-1 $103 $103 $102 $171 forward $63 $-1 #
coedge $-1 $104 $104 $64 $105 forward $99 $-1 #
edge $-1 $172 0 $172 6.2831853071796004 $104 $173 forward 7 unknown #
loop $-1 $-1 $111 $65 #
plane-surface $-1 -13.307523816651639 11.305817339742269 81.663392901645409 0.77714596973225614 0 0.62932038083071107 0.62932038083071107 0 -0.77714596973225614 forward_v I I I I #
loop $-1 $-1 $174 $42 #
coedge $-1 $109 $109 $110 $175 reversed $66 $-1 #
coedge $-1 $110 $110 $109 $175 forward $68 $-1 #
coedge $-1 $111 $111 $69 $112 forward $106 $-1 #
edge $-1 $176 0 $176 6.2831853071796004 $111 $177 forward 7 unknown #
loop $-1 $-1 $118 $70 #
plane-surface $-1 -13.307523816651639 11.305817339742269 81.663392901645409 0.77714596973225614 0 0.62932038083071107 0.62932038083071107 0 -0.77714596973225614 forward_v I I I I #
loop $-1 $-1 $178 $45 #
coedge $-1 $116 $116 $117 $179 reversed $71 $-1 #
coedge $-1 $117 $117 $116 $179 forward $73 $-1 #
coedge $-1 $118 $118 $74 $119 forward $113 $-1 #
edge $-1 $180 0 $180 6.2831853071796004 $118 $181 forward 7 unknown #
face $-1 $182 $183 $18 $-1 $184 reversed single #
loop $-1 $-1 $185 $75 #
plane-surface $-1 -51.451765495773188 0 0 1 0 0 0 0 -1 forward_v I I I I #
coedge $-1 $186 $131 $187 $188 forward $76 $-1 #
coedge $-1 $189 $78 $186 $190 forward $49 $-1 #
coedge $-1 $78 $189 $191 $192 forward $49 $-1 #
coedge $-1 $134 $133 $78 $127 reversed $135 $-1 #
edge $-1 $193 -31.175056056397651 $194 31.175056056397651 $126 $195 forward 7 unknown #
coedge $-1 $80 $79 $196 $197 forward $31 $-1 #
coedge $-1 $198 $199 $79 $130 reversed $183 $-1 #
edge $-1 $137 -51.451765495773188 $200 51.451765495773188 $129 $201 forward 7 unknown #
coedge $-1 $123 $202 $80 $132 reversed $76 $-1 #
edge $-1 $203 -51.451765495773188 $136 51.451765495773188 $131 $204 forward 7 unknown #
coedge $-1 $126 $81 $202 $205 forward $135 $-1 #
coedge $-1 $81 $126 $198 $206 reversed $135 $-1 #
loop $-1 $-1 $133 $182 #
vertex $-1 $82 $207 #
vertex $-1 $82 $208 #
straight-curve $-1 51.451765495773188 0 13.482519589074712 0 1 0 I I #
face $-1 $209 $210 $19 $-1 $211 forward single #
loop $-1 $-1 $212 $83 #
plane-surface $-1 -51.451765495773188 0 0 1 0 0 0 0 -1 forward_v I I I I #
coedge $-1 $149 $213 $151 $214 forward $84 $-1 #
coedge $-1 $86 $151 $215 $216 reversed $53 $-1 #
coedge $-1 $217 $147 $86 $145 forward $218 $-1 #
edge $-1 $153 0.91026654746942093 $219 8.6849242102266668 $144 $220 forward 7 unknown #
coedge $-1 $88 $87 $212 $221 reversed $34 $-1 #
coedge $-1 $144 $222 $87 $148 forward $218 $-1 #
edge $-1 $223 -28.746395883830047 $153 -16.664343340056234 $147 $224 forward 7 unknown #
coedge $-1 $225 $142 $88 $150 forward $84 $-1 #
edge $-1 $152 16.664343340056234 $226 28.746395883830047 $149 $227 forward 7 unknown #
coedge $-1 $143 $89 $142 $214 reversed $53 $-1 #
vertex $-1 $150 $228 #
vertex $-1 $148 $229 #
straight-curve $-1 -39.369712951999375 0 5.7078619263174648 0 -1 0 I I #
face $-1 $-1 $230 $20 $-1 $231 reversed single #
loop $-1 $-1 $97 $91 #
plane-surface $-1 0 0 13.482519589074712 0 0 1 1 0 0 forward_v I I I I #
coedge $-1 $232 $233 $234 $235 reversed $92 $-1 #
coedge $-1 $236 $94 $96 $165 forward $57 $-1 #
coedge $-1 $94 $236 $232 $237 forward $57 $-1 #
coedge $-1 $234 $97 $94 $162 forward $156 $-1 #
edge $-1 $168 -12.015124232929598 $238 0.70930689318732831 $161 $239 forward 7 unknown #
coedge $-1 $240 $241 $95 $164 forward $230 $-1 #
edge $-1 $242 -71.519012586688277 $167 -59.728821517960412 $163 $243 forward 7 unknown #
edge $-1 $168 87.732390011699479 $242 102.90353099154635 $96 $244 forward 7 unknown #
coedge $-1 $97 $234 $240 $245 forward $156 $-1 #
vertex $-1 $164 $246 #
vertex $-1 $98 $247 #
straight-curve $-1 33.331770282323468 17.668032902800732 13.482519589074712 -1 0 0 I I #
coedge $-1 $170 $170 $-1 $248 reversed $101 $-1 #
edge $-1 $249 0 $249 6.2831853071796004 $102 $250 forward 7 unknown #
vertex $-1 $105 $251 #
ellipse-curve $-1 46.678011386236392 7.4884880019071929 7.5874240547107616 0.77714596973225614 0 0.62932038083071107 0.62932038083071107 0 -0.77714596973225614 1 I I #
coedge $-1 $174 $174 $-1 $252 reversed $108 $-1 #
edge $-1 $253 0 $253 6.2831853071796004 $109 $254 forward 7 unknown #
vertex $-1 $112 $255 #
ellipse-curve $-1 46.678011386236392 11.305817339742269 7.5874240547107616 0.77714596973225614 0 0.62932038083071107 0.62932038083071107 0 -0.77714596973225614 1 I I #
coedge $-1 $178 $178 $-1 $256 reversed $115 $-1 #
edge $-1 $257 0 $257 6.2831853071796004 $116 $258 forward 7 unknown #
vertex $-1 $119 $259 #
ellipse-curve $-1 46.678011386236392 15.123146677577346 7.5874240547107616 0.77714596973225614 0 0.62932038083071107 0.62932038083071107 0 -0.77714596973225614 1 I I #
face $-1 $-1 $135 $18 $-1 $260 reversed single #
loop $-1 $-1 $198 $120 #
plane-surface $-1 0 31.175056056397651 0 0 -1 0 0 0 -1 forward_v I I I I #
coedge $-1 $261 $196 $199 $262 forward $121 $-1 #
coedge $-1 $202 $123 $124 $190 reversed $76 $-1 #
coedge $-1 $196 $261 $123 $188 reversed $121 $-1 #
edge $-1 $203 -13.482519589074712 $263 13.482519589074712 $187 $264 forward 7 unknown #
coedge $-1 $125 $124 $261 $265 forward $49 $-1 #
edge $-1 $194 -51.451765495773188 $263 51.451765495773188 $186 $266 forward 7 unknown #
coedge $-1 $199 $198 $125 $192 reversed $183 $-1 #
edge $-1 $267 -51.451765495773188 $193 51.451765495773188 $191 $268 forward 7 unknown #
vertex $-1 $127 $269 #
vertex $-1 $205 $270 #
straight-curve $-1 51.451765495773188 0 -13.482519589074712 0 -1 0 I I #
coedge $-1 $185 $187 $128 $197 reversed $121 $-1 #
edge $-1 $200 -31.175056056397651 $203 31.175056056397651 $196 $271 forward 7 unknown #
coedge $-1 $191 $129 $134 $206 forward $183 $-1 #
coedge $-1 $129 $191 $185 $262 reversed $183 $-1 #
vertex $-1 $130 $272 #
straight-curve $-1 0 31.175056056397651 13.482519589074712 -1 0 0 I I #
coedge $-1 $131 $186 $133 $205 reversed $76 $-1 #
vertex $-1 $197 $273 #
straight-curve $-1 0 -31.175056056397651 13.482519589074712 1 0 0 I I #
edge $-1 $136 -13.482519589074712 $194 13.482519589074712 $133 $274 forward 7 unknown #
edge $-1 $137 -13.482519589074712 $193 13.482519589074712 $134 $275 forward 7 unknown #
point $-1 51.451765495773188 -31.175056056397651 13.482519589074712 #
point $-1 51.451765495773188 31.175056056397651 13.482519589074712 #
face $-1 $-1 $218 $19 $-1 $276 reversed single #
loop $-1 $-1 $215 $139 #
plane-surface $-1 0 0 13.482519589074712 0 0 1 1 0 0 forward_v I I I I #
coedge $-1 $277 $278 $146 $221 forward $140 $-1 #
coedge $-1 $142 $225 $279 $280 reversed $84 $-1 #
edge $-1 $281 -8.6849242102266668 $152 -0.91026654746942093 $142 $282 forward 7 unknown #
coedge $-1 $279 $283 $143 $216 forward $210 $-1 #
edge $-1 $219 -31.175056056397651 $281 31.175056056397651 $215 $284 forward 7 unknown #
coedge $-1 $222 $144 $283 $285 reversed $218 $-1 #
loop $-1 $-1 $144 $209 #
vertex $-1 $145 $286 #
straight-curve $-1 -39.369712951999375 -31.175056056397651 4.7975953788480439 0 0 1 I I #
edge $-1 $226 -31.175056056397651 $223 31.175056056397651 $212 $287 forward 7 unknown #
coedge $-1 $147 $217 $277 $288 forward $218 $-1 #
vertex $-1 $221 $289 #
straight-curve $-1 -22.705369611943141 -31.175056056397651 5.7078619263174648 1 0 0 I I #
coedge $-1 $213 $149 $278 $290 reversed $84 $-1 #
vertex $-1 $221 $291 #
straight-curve $-1 -22.705369611943141 31.175056056397651 5.7078619263174648 -1 0 0 I I #
point $-1 -39.369712951999375 31.175056056397651 5.7078619263174648 #
point $-1 -39.369712951999375 -31.175056056397651 5.7078619263174648 #
loop $-1 $-1 $163 $155 #
plane-surface $-1 51.451765495773188 0 0 -1 0 0 0 0 1 forward_v I I I I #
coedge $-1 $233 $158 $160 $237 reversed $92 $-1 #
coedge $-1 $158 $232 $292 $293 reversed $92 $-1 #
coedge $-1 $166 $161 $158 $235 forward $156 $-1 #
edge $-1 $238 8.572486994376078 $294 18.11999521344972 $234 $295 forward 7 unknown #
coedge $-1 $160 $159 $241 $296 reversed $57 $-1 #
edge $-1 $297 -102.90353099154635 $238 -87.732390011699479 $232 $298 forward 7 unknown #
vertex $-1 $162 $299 #
straight-curve $-1 41.904257276699546 5.6529086698711346 13.482519589074712 0 -1 0 I I #
coedge $-1 $292 $163 $166 $245 reversed $230 $-1 #
coedge $-1 $163 $292 $236 $296 forward $230 $-1 #
vertex $-1 $164 $300 #
straight-curve $-1 51.451765495773188 17.668032902800732 73.211341107035125 0 0 1 I I #
straight-curve $-1 -13.307523816651639 17.668032902800732 81.663392901645409 0.62932038083071107 0 -0.77714596973225614 I I #
edge $-1 $294 4.9436017766838063 $167 17.668032902800732 $240 $301 forward 7 unknown #
point $-1 51.451765495773188 17.668032902800732 13.482519589074712 #
point $-1 41.904257276699546 17.668032902800732 13.482519589074712 #
edge $-1 $302 1 $302 0 $170 $-1 forward 7 unknown #
vertex $-1 $171 $303 #
ellipse-curve $-1 44.04949011826811 7.4884880019071929 5.4588895582257235 0.77714596973225614 0 0.62932038083071107 0.62932038083071107 0 -0.77714596973225614 1 I I #
point $-1 47.307331767067105 7.4884880019071929 6.8102780849785045 #
edge $-1 $304 1 $304 0 $174 $-1 forward 7 unknown #
vertex $-1 $175 $305 #
ellipse-curve $-1 44.04949011826811 11.305817339742269 5.4588895582257235 0.77714596973225614 0 0.62932038083071107 0.62932038083071107 0 -0.77714596973225614 1 I I #
point $-1 47.307331767067105 11.305817339742269 6.8102780849785045 #
edge $-1 $306 1 $306 0 $178 $-1 forward 7 unknown #
vertex $-1 $179 $307 #
ellipse-curve $-1 44.04949011826811 15.123146677577346 5.4588895582257235 0.77714596973225614 0 0.62932038083071107 0.62932038083071107 0 -0.77714596973225614 1 I I #
point $-1 47.307331767067105 15.123146677577346 6.8102780849785045 #
plane-surface $-1 51.451765495773188 0 0 -1 0 0 0 0 1 forward_v I I I I #
coedge $-1 $187 $185 $189 $265 reversed $121 $-1 #
edge $-1 $200 -13.482519589074712 $267 13.482519589074712 $199 $308 forward 7 unknown #
vertex $-1 $265 $309 #
straight-curve $-1 -51.451765495773188 -31.175056056397651 0 0 0 -1 I I #
edge $-1 $263 -31.175056056397651 $267 31.175056056397651 $261 $310 forward 7 unknown #
straight-curve $-1 0 -31.175056056397651 -13.482519589074712 -1 0 0 I I #
vertex $-1 $192 $311 #
straight-curve $-1 0 31.175056056397651 -13.482519589074712 1 0 0 I I #
point $-1 51.451765495773188 31.175056056397651 -13.482519589074712 #
point $-1 51.451765495773188 -31.175056056397651 -13.482519589074712 #
straight-curve $-1 -51.451765495773188 0 13.482519589074712 0 -1 0 I I #
point $-1 -51.451765495773188 31.175056056397651 13.482519589074712 #
point $-1 -51.451765495773188 -31.175056056397651 13.482519589074712 #
straight-curve $-1 51.451765495773188 -31.175056056397651 0 0 0 -1 I I #
straight-curve $-1 51.451765495773188 31.175056056397651 0 0 0 -1 I I #
plane-surface $-1 0 -31.175056056397651 0 0 1 0 0 0 1 forward_v I I I I #
coedge $-1 $312 $212 $222 $288 reversed $140 $-1 #
coedge $-1 $212 $312 $225 $290 forward $140 $-1 #
coedge $-1 $313 $215 $213 $280 forward $210 $-1 #
edge $-1 $281 39.369712951999375 $314 51.451765495773188 $213 $315 forward 7 unknown #
vertex $-1 $280 $316 #
straight-curve $-1 -39.369712951999375 31.175056056397651 4.7975953788480439 0 0 -1 I I #
coedge $-1 $215 $313 $217 $285 forward $210 $-1 #
straight-curve $-1 -39.369712951999375 0 13.482519589074712 0 1 0 I I #
edge $-1 $317 -51.451765495773188 $219 -39.369712951999375 $217 $318 forward 7 unknown #
point $-1 -39.369712951999375 -31.175056056397651 13.482519589074711 #
straight-curve $-1 -51.451765495773188 0 5.7078619263174648 0 -1 0 I I #
edge $-1 $317 -13.482519589074712 $223 -5.7078619263174648 $277 $319 forward 7 unknown #
point $-1 -51.451765495773188 -31.175056056397651 5.7078619263174648 #
edge $-1 $314 -13.482519589074712 $226 -5.7078619263174648 $225 $320 forward 7 unknown #
point $-1 -51.451765495773188 31.175056056397651 5.7078619263174648 #
coedge $-1 $241 $240 $233 $293 forward $230 $-1 #
edge $-1 $294 59.728821517960412 $297 71.519012586688277 $292 $321 forward 7 unknown #
vertex $-1 $245 $322 #
straight-curve $-1 33.331770282323468 4.9436017766838063 13.482519589074712 1 0 0 I I #
edge $-1 $297 -0.70930689318732831 $242 12.015124232929598 $241 $323 forward 7 unknown #
vertex $-1 $296 $324 #
straight-curve $-1 -13.307523816651639 4.9436017766838063 81.663392901645409 -0.62932038083071107 0 0.77714596973225614 I I #
point $-1 41.904257276699546 4.9436017766838063 13.482519589074712 #
point $-1 51.451765495773188 17.668032902800732 1.6923285203468481 #
straight-curve $-1 51.451765495773188 0 13.482519589074712 0 1 0 I I #
vertex $-1 $248 $325 #
point $-1 44.678810499098823 7.4884880019071929 4.6817435884934673 #
vertex $-1 $252 $326 #
point $-1 44.678810499098823 11.305817339742269 4.6817435884934673 #
vertex $-1 $256 $327 #
point $-1 44.678810499098823 15.123146677577346 4.6817435884934673 #
straight-curve $-1 -51.451765495773188 31.175056056397651 0 0 0 -1 I I #
point $-1 -51.451765495773188 -31.175056056397651 -13.482519589074712 #
straight-curve $-1 -51.451765495773188 0 -13.482519589074712 0 1 0 I I #
point $-1 -51.451765495773188 31.175056056397651 -13.482519589074712 #
coedge $-1 $278 $277 $313 $328 reversed $140 $-1 #
coedge $-1 $283 $279 $312 $328 forward $210 $-1 #
vertex $-1 $280 $329 #
straight-curve $-1 0 31.175056056397651 13.482519589074712 -1 0 0 I I #
point $-1 -39.369712951999375 31.175056056397651 13.482519589074711 #
vertex $-1 $328 $330 #
straight-curve $-1 0 -31.175056056397651 13.482519589074712 1 0 0 I I #
straight-curve $-1 -51.451765495773188 -31.175056056397651 0 0 0 -1 I I #
straight-curve $-1 -51.451765495773188 31.175056056397651 0 0 0 -1 I I #
straight-curve $-1 51.451765495773188 4.9436017766838063 73.211341107035125 0 0 -1 I I #
point $-1 51.451765495773188 4.9436017766838063 13.482519589074712 #
straight-curve $-1 51.451765495773188 5.6529086698711346 1.6923285203468481 0 1 0 I I #
point $-1 51.451765495773188 4.9436017766838063 1.6923285203468481 #
point $-1 43.272344148535851 7.4884880019071929 4.8295691773950127 #
point $-1 43.272344148535851 11.305817339742269 4.8295691773950127 #
point $-1 43.272344148535851 15.123146677577346 4.8295691773950127 #
edge $-1 $314 -31.175056056397651 $317 31.175056056397651 $312 $331 forward 7 unknown #
point $-1 -51.451765495773188 31.175056056397651 13.482519589074712 #
point $-1 -51.451765495773188 -31.175056056397651 13.482519589074712 #
straight-curve $-1 -51.451765495773188 0 13.482519589074712 0 -1 0 I I #
End-of-ACIS-data 