500 0 4 0           
7 Unknown 11 ACIS 5.0 NT 24 Thu Mar 25 21:20:32 1999 
-1 9.9999999999999995e-007 1e-010 
body $-1 $4 $-1 $5 #
body $-1 $6 $-1 $7 #
body $-1 $8 $-1 $9 #
body $-1 $10 $-1 $11 #
lump $-1 $-1 $12 $0 #
transform $-1 1 0 0 0 1 0 0 0 1 40.13916440321055 22.232542575968164 10.214335839324319 1 rotate no_reflect no_shear #
lump $-1 $-1 $13 $1 #
transform $-1 1 0 0 0 1 0 0 0 1 40.13916440321055 22.232542575968164 10.214335839324319 1 rotate no_reflect no_shear #
lump $-1 $-1 $14 $2 #
transform $-1 1 0 0 0 1 0 0 0 1 40.13916440321055 22.232542575968164 10.214335839324319 1 rotate no_reflect no_shear #
lump $-1 $-1 $15 $3 #
transform $-1 1 0 0 0 1 0 0 0 1 40.13916440321055 22.232542575968164 10.214335839324319 1 rotate no_reflect no_shear #
shell $-1 $-1 $-1 $16 $-1 $4 #
shell $-1 $-1 $-1 $17 $-1 $6 #
shell $-1 $-1 $-1 $18 $-1 $8 #
shell $-1 $-1 $-1 $19 $-1 $10 #
face $-1 $20 $21 $12 $-1 $22 forward single #
face $-1 $23 $24 $13 $-1 $25 forward single #
face $-1 $26 $27 $14 $-1 $28 reversed single #
face $-1 $29 $30 $15 $-1 $31 forward single #
face $-1 $32 $33 $12 $-1 $34 reversed single #
loop $-1 $-1 $35 $16 #
plane-surface $-1 0 0 10.214335839324319 0 0 1 1 0 0 forward_v I I I I #
face $-1 $36 $37 $13 $-1 $38 reversed single #
loop $-1 $-1 $39 $17 #
plane-surface $-1 0 -17.697944181730843 -1.3412771642009691 0 0 1 1 0 0 forward_v I I I I #
face $-1 $40 $41 $14 $-1 $42 reversed single #
loop $-1 $-1 $43 $18 #
plane-surface $-1 -26.067150877261248 53.647646911052377 90.382372062046429 1 0 0 0 -0.75470958851134928 -0.65605901945558964 forward_v I I I I #
face $-1 $44 $45 $15 $-1 $46 forward single #
loop $-1 $47 $48 $19 #
cone-surface $-1 -21.410606010598926 18.417617221859953 6.1580238831690854 0 -0.75470958851134928 -0.65605901945558964 1 0 0 1 I I 0 1 1 forward I I I I #
face $-1 $49 $50 $12 $-1 $51 reversed single #
loop $-1 $-1 $52 $20 #
plane-surface $-1 0 0 -10.214335839324319 0 0 1 1 0 0 forward_v I I I I #
coedge $-1 $53 $54 $55 $56 forward $21 $-1 #
face $-1 $57 $58 $13 $-1 $59 reversed single #
loop $-1 $-1 $60 $23 #
plane-surface $-1 0 -17.697944181730843 -7.4642675943036974 0 0 1 1 0 0 forward_v I I I I #
coedge $-1 $61 $62 $63 $64 reversed $24 $-1 #
face $-1 $65 $66 $14 $-1 $67 reversed single #
loop $-1 $-1 $68 $26 #
plane-surface $-1 -21.410606010598926 -6.9391775888204918 37.715050381772386 0 0.75470958851134928 0.65605901945558964 1 0 0 forward_v I I I I #
coedge $-1 $69 $70 $71 $72 reversed $27 $-1 #
face $-1 $-1 $73 $15 $-1 $74 forward single #
loop $-1 $75 $76 $29 #
cone-surface $-1 -21.410606010598926 16.858194244774442 4.8024382051320149 0 -0.75470958851134928 -0.65605901945558964 0.5 0 0 1 I I -0.70710678118654746 0.70710678118654746 0.5 forward I I I I #
loop $-1 $-1 $77 $19 #
coedge $-1 $48 $48 $78 $79 reversed $30 $-1 #
face $-1 $80 $81 $12 $-1 $82 reversed single #
loop $-1 $-1 $83 $32 #
plane-surface $-1 0 -22.232542575968164 0 0 1 0 0 0 1 forward_v I I I I #
coedge $-1 $84 $85 $86 $87 forward $33 $-1 #
coedge $-1 $88 $35 $89 $90 forward $21 $-1 #
coedge $-1 $35 $88 $91 $92 forward $21 $-1 #
coedge $-1 $93 $94 $35 $56 reversed $95 $-1 #
edge $-1 $96 -22.232542575968164 $97 22.232542575968164 $55 $98 forward 7 unknown #
face $-1 $99 $100 $13 $-1 $101 reversed single #
loop $-1 $-1 $102 $36 #
plane-surface $-1 0 -13.163345787493522 -4.4027723792523332 0 -1 0 0 0 -1 forward_v I I I I #
coedge $-1 $103 $104 $105 $106 reversed $37 $-1 #
coedge $-1 $107 $39 $108 $109 forward $24 $-1 #
coedge $-1 $39 $107 $110 $111 reversed $24 $-1 #
coedge $-1 $112 $113 $39 $64 forward $114 $-1 #
edge $-1 $115 4.3143736966281008 $116 13.383570485102743 $63 $117 forward 7 unknown #
face $-1 $118 $119 $14 $-1 $120 reversed single #
loop $-1 $-1 $121 $40 #
plane-surface $-1 -16.754061143936603 53.647646911052377 90.382372062046429 -1 0 0 0 0.75470958851134928 0.65605901945558964 forward_v I I I I #
coedge $-1 $122 $123 $124 $125 reversed $41 $-1 #
coedge $-1 $70 $43 $126 $127 reversed $27 $-1 #
coedge $-1 $43 $69 $122 $128 reversed $27 $-1 #
coedge $-1 $124 $129 $43 $72 forward $130 $-1 #
edge $-1 $131 4.591280879558024 $132 9.8569952221147901 $71 $133 forward 7 unknown #
loop $-1 $-1 $78 $44 #
plane-surface $-1 -21.410606010598926 -6.9391775888204918 37.715050381772386 0 0.75470958851134928 0.65605901945558964 1 0 0 forward_v I I I I #
loop $-1 $-1 $134 $29 #
coedge $-1 $76 $76 $77 $135 reversed $45 $-1 #
coedge $-1 $77 $77 $76 $135 forward $47 $-1 #
coedge $-1 $78 $78 $48 $79 forward $73 $-1 #
edge $-1 $136 -3.5047722610585074e-016 $136 6.2831853071796004 $78 $137 forward 7 unknown #
face $-1 $138 $139 $12 $-1 $140 reversed single #
loop $-1 $-1 $141 $49 #
plane-surface $-1 -40.13916440321055 0 0 1 0 0 0 0 -1 forward_v I I I I #
coedge $-1 $142 $91 $143 $144 forward $50 $-1 #
coedge $-1 $145 $52 $142 $146 forward $33 $-1 #
coedge $-1 $52 $145 $147 $148 forward $33 $-1 #
coedge $-1 $94 $93 $52 $87 reversed $95 $-1 #
edge $-1 $149 -22.232542575968164 $150 22.232542575968164 $86 $151 forward 7 unknown #
coedge $-1 $54 $53 $152 $153 forward $21 $-1 #
coedge $-1 $154 $155 $53 $90 reversed $139 $-1 #
edge $-1 $97 -40.13916440321055 $156 40.13916440321055 $89 $157 forward 7 unknown #
coedge $-1 $83 $158 $54 $92 reversed $50 $-1 #
edge $-1 $159 -40.13916440321055 $96 40.13916440321055 $91 $160 forward 7 unknown #
coedge $-1 $86 $55 $158 $161 forward $95 $-1 #
coedge $-1 $55 $86 $154 $162 reversed $95 $-1 #
loop $-1 $-1 $93 $138 #
vertex $-1 $56 $163 #
vertex $-1 $56 $164 #
straight-curve $-1 40.13916440321055 0 10.214335839324319 0 1 0 I I #
face $-1 $165 $166 $13 $-1 $167 reversed single #
loop $-1 $-1 $168 $57 #
plane-surface $-1 -40.13916440321055 0 0 1 0 0 0 0 -1 forward_v I I I I #
coedge $-1 $169 $108 $113 $170 reversed $58 $-1 #
coedge $-1 $171 $60 $172 $173 reversed $37 $-1 #
coedge $-1 $60 $171 $169 $174 forward $37 $-1 #
coedge $-1 $113 $112 $60 $106 forward $114 $-1 #
edge $-1 $175 -13.383570485102743 $176 -4.3143736966281008 $105 $177 forward 7 unknown #
coedge $-1 $62 $61 $168 $178 reversed $24 $-1 #
coedge $-1 $102 $179 $61 $109 reversed $58 $-1 #
edge $-1 $115 -40.13916440321055 $180 40.13916440321055 $108 $181 forward 7 unknown #
coedge $-1 $182 $183 $62 $111 forward $166 $-1 #
edge $-1 $116 -40.13916440321055 $184 40.13916440321055 $110 $185 forward 7 unknown #
coedge $-1 $105 $63 $183 $186 forward $114 $-1 #
coedge $-1 $63 $105 $102 $170 forward $114 $-1 #
loop $-1 $-1 $63 $165 #
vertex $-1 $64 $187 #
vertex $-1 $186 $188 #
straight-curve $-1 40.13916440321055 -8.8489720908654217 -1.3412771642009691 0 -1 0 I I #
face $-1 $-1 $130 $14 $-1 $189 forward single #
loop $-1 $-1 $190 $65 #
plane-surface $-1 0 22.232542575968164 0 0 -1 0 0 0 -1 forward_v I I I I #
coedge $-1 $191 $192 $193 $194 reversed $66 $-1 #
coedge $-1 $195 $68 $70 $128 forward $41 $-1 #
coedge $-1 $68 $195 $191 $196 forward $41 $-1 #
coedge $-1 $193 $71 $68 $125 forward $130 $-1 #
edge $-1 $132 -15.361847871961785 $197 -6.0487581386371403 $124 $198 forward 7 unknown #
coedge $-1 $199 $200 $69 $127 forward $119 $-1 #
edge $-1 $201 -41.034361767390813 $131 -34.976850191698894 $126 $202 forward 7 unknown #
edge $-1 $132 36.43880369493214 $201 44.465085151936357 $70 $203 forward 7 unknown #
coedge $-1 $71 $193 $199 $204 forward $130 $-1 #
loop $-1 $-1 $193 $118 #
vertex $-1 $127 $205 #
vertex $-1 $72 $206 #
straight-curve $-1 -26.067150877261248 26.823823455526188 10.21433583932432 0 -1 0 I I #
coedge $-1 $134 $134 $-1 $207 reversed $75 $-1 #
edge $-1 $208 0 $208 6.2831853071796004 $76 $209 forward 7 unknown #
vertex $-1 $79 $210 #
ellipse-curve $-1 -21.410606010598926 19.599685404689783 7.1855800514783574 0 0.75470958851134928 0.65605901945558964 1 0 0 1 I I #
face $-1 $-1 $95 $12 $-1 $211 reversed single #
loop $-1 $-1 $154 $80 #
plane-surface $-1 0 22.232542575968164 0 0 -1 0 0 0 -1 forward_v I I I I #
coedge $-1 $212 $152 $155 $213 forward $81 $-1 #
coedge $-1 $158 $83 $84 $146 reversed $50 $-1 #
coedge $-1 $152 $212 $83 $144 reversed $81 $-1 #
edge $-1 $159 -10.214335839324319 $214 10.214335839324319 $143 $215 forward 7 unknown #
coedge $-1 $85 $84 $212 $216 forward $33 $-1 #
edge $-1 $150 -40.13916440321055 $214 40.13916440321055 $142 $217 forward 7 unknown #
coedge $-1 $155 $154 $85 $148 reversed $139 $-1 #
edge $-1 $218 -40.13916440321055 $149 40.13916440321055 $147 $219 forward 7 unknown #
vertex $-1 $87 $220 #
vertex $-1 $161 $221 #
straight-curve $-1 40.13916440321055 0 -10.214335839324319 0 -1 0 I I #
coedge $-1 $141 $143 $88 $153 reversed $81 $-1 #
edge $-1 $156 -22.232542575968164 $159 22.232542575968164 $152 $222 forward 7 unknown #
coedge $-1 $147 $89 $94 $162 forward $139 $-1 #
coedge $-1 $89 $147 $141 $213 reversed $139 $-1 #
vertex $-1 $90 $223 #
straight-curve $-1 0 22.232542575968164 10.214335839324319 -1 0 0 I I #
coedge $-1 $91 $142 $93 $161 reversed $50 $-1 #
vertex $-1 $153 $224 #
straight-curve $-1 0 -22.232542575968164 10.214335839324319 1 0 0 I I #
edge $-1 $96 -10.214335839324319 $150 10.214335839324319 $93 $225 forward 7 unknown #
edge $-1 $97 -10.214335839324319 $149 10.214335839324319 $94 $226 forward 7 unknown #
point $-1 40.13916440321055 -22.232542575968164 10.214335839324319 #
point $-1 40.13916440321055 22.232542575968164 10.214335839324319 #
face $-1 $-1 $114 $13 $-1 $227 reversed single #
loop $-1 $-1 $110 $99 #
plane-surface $-1 0 -22.232542575968164 0 0 1 0 0 0 1 forward_v I I I I #
coedge $-1 $228 $229 $107 $178 forward $100 $-1 #
coedge $-1 $179 $102 $104 $174 reversed $58 $-1 #
edge $-1 $176 -5.2628814046775307 $115 0.86010902542519752 $113 $230 forward 7 unknown #
coedge $-1 $104 $103 $231 $232 reversed $37 $-1 #
coedge $-1 $183 $182 $103 $173 forward $166 $-1 #
edge $-1 $233 -40.13916440321055 $175 40.13916440321055 $172 $234 forward 7 unknown #
edge $-1 $235 -40.13916440321055 $176 40.13916440321055 $169 $236 forward 7 unknown #
vertex $-1 $173 $237 #
vertex $-1 $106 $238 #
straight-curve $-1 40.13916440321055 -8.8489720908654217 -7.4642675943036974 0 1 0 I I #
edge $-1 $184 -13.383570485102743 $180 -4.3143736966281008 $168 $239 forward 7 unknown #
coedge $-1 $108 $169 $228 $240 reversed $58 $-1 #
vertex $-1 $178 $241 #
straight-curve $-1 0 -13.163345787493522 -1.3412771642009691 -1 0 0 I I #
coedge $-1 $172 $110 $229 $242 forward $166 $-1 #
coedge $-1 $110 $172 $112 $186 reversed $166 $-1 #
vertex $-1 $242 $243 #
straight-curve $-1 0 -22.232542575968164 -1.3412771642009691 -1 0 0 I I #
edge $-1 $116 1.3412771642009691 $175 7.4642675943036974 $112 $244 forward 7 unknown #
point $-1 40.13916440321055 -13.163345787493522 -1.3412771642009691 #
point $-1 40.13916440321055 -22.232542575968164 -1.3412771642009691 #
plane-surface $-1 0 0 10.214335839324319 0 0 1 1 0 0 forward_v I I I I #
coedge $-1 $200 $199 $192 $245 forward $119 $-1 #
coedge $-1 $192 $121 $123 $196 reversed $66 $-1 #
coedge $-1 $121 $191 $190 $245 reversed $66 $-1 #
coedge $-1 $129 $124 $121 $194 forward $130 $-1 #
edge $-1 $197 -9.8569952221147901 $246 -4.591280879558024 $193 $247 forward 7 unknown #
coedge $-1 $123 $122 $200 $248 reversed $41 $-1 #
edge $-1 $249 -44.465085151936357 $197 -36.43880369493214 $191 $250 forward 7 unknown #
vertex $-1 $125 $251 #
straight-curve $-1 -10.705303005299463 16.966828233411402 10.21433583932432 1 0 0 I I #
coedge $-1 $190 $126 $129 $204 reversed $119 $-1 #
coedge $-1 $126 $190 $195 $248 forward $119 $-1 #
vertex $-1 $127 $252 #
straight-curve $-1 -26.067150877261248 22.232542575968164 45.191186031023214 0 0 1 I I #
straight-curve $-1 -26.067150877261248 -6.9391775888204918 37.715050381772386 0 0.65605901945558964 -0.75470958851134928 I I #
edge $-1 $246 16.754061143936603 $131 26.067150877261248 $199 $253 forward 7 unknown #
point $-1 -26.067150877261248 22.232542575968164 10.214335839324319 #
point $-1 -26.067150877261248 16.966828233411398 10.214335839324324 #
edge $-1 $254 1 $254 0 $134 $-1 forward 7 unknown #
vertex $-1 $135 $255 #
ellipse-curve $-1 -21.410606010598926 17.235549039030115 5.1304677148598099 0 0.75470958851134928 0.65605901945558964 1 0 0 1 I I #
point $-1 -20.410606010598926 19.599685404689787 7.185580051478361 #
plane-surface $-1 40.13916440321055 0 0 -1 0 0 0 0 1 forward_v I I I I #
coedge $-1 $143 $141 $145 $216 reversed $81 $-1 #
edge $-1 $156 -10.214335839324319 $218 10.214335839324319 $155 $256 forward 7 unknown #
vertex $-1 $216 $257 #
straight-curve $-1 -40.13916440321055 -22.232542575968164 0 0 0 -1 I I #
edge $-1 $214 -22.232542575968164 $218 22.232542575968164 $212 $258 forward 7 unknown #
straight-curve $-1 0 -22.232542575968164 -10.214335839324319 -1 0 0 I I #
vertex $-1 $148 $259 #
straight-curve $-1 0 22.232542575968164 -10.214335839324319 1 0 0 I I #
point $-1 40.13916440321055 22.232542575968164 -10.214335839324319 #
point $-1 40.13916440321055 -22.232542575968164 -10.214335839324319 #
straight-curve $-1 -40.13916440321055 0 10.214335839324319 0 -1 0 I I #
point $-1 -40.13916440321055 22.232542575968164 10.214335839324319 #
point $-1 -40.13916440321055 -22.232542575968164 10.214335839324319 #
straight-curve $-1 40.13916440321055 -22.232542575968164 0 0 0 -1 I I #
straight-curve $-1 40.13916440321055 22.232542575968164 0 0 0 -1 I I #
plane-surface $-1 40.13916440321055 0 0 -1 0 0 0 0 1 forward_v I I I I #
coedge $-1 $231 $168 $179 $240 forward $100 $-1 #
coedge $-1 $168 $231 $182 $242 reversed $100 $-1 #
straight-curve $-1 40.13916440321055 -13.163345787493522 -2.2013861896261666 0 0 1 I I #
coedge $-1 $229 $228 $171 $232 forward $100 $-1 #
edge $-1 $235 4.3143736966281008 $233 13.383570485102743 $231 $260 forward 7 unknown #
vertex $-1 $173 $261 #
straight-curve $-1 0 -22.232542575968164 -7.4642675943036974 1 0 0 I I #
vertex $-1 $232 $262 #
straight-curve $-1 0 -13.163345787493522 -7.4642675943036974 1 0 0 I I #
point $-1 40.13916440321055 -22.232542575968164 -7.4642675943036974 #
point $-1 40.13916440321055 -13.163345787493522 -7.4642675943036974 #
straight-curve $-1 -40.13916440321055 -8.8489720908654217 -1.3412771642009691 0 1 0 I I #
edge $-1 $180 -0.86010902542519752 $235 5.2628814046775307 $228 $263 forward 7 unknown #
point $-1 -40.13916440321055 -13.163345787493522 -1.3412771642009691 #
edge $-1 $184 1.3412771642009691 $233 7.4642675943036974 $229 $264 forward 7 unknown #
point $-1 -40.13916440321055 -22.232542575968164 -1.3412771642009691 #
straight-curve $-1 40.13916440321055 -22.232542575968164 0 0 0 -1 I I #
edge $-1 $246 34.976850191698894 $249 41.034361767390813 $190 $265 forward 7 unknown #
vertex $-1 $204 $266 #
straight-curve $-1 -16.754061143936603 26.823823455526188 10.21433583932432 0 1 0 I I #
edge $-1 $249 6.0487581386371403 $201 15.361847871961785 $200 $267 forward 7 unknown #
vertex $-1 $248 $268 #
straight-curve $-1 -16.754061143936603 -6.9391775888204918 37.715050381772386 0 -0.65605901945558964 0.75470958851134928 I I #
point $-1 -16.754061143936603 16.966828233411398 10.214335839324324 #
point $-1 -26.067150877261248 22.232542575968164 4.1568242636324015 #
straight-curve $-1 0 22.232542575968164 10.214335839324319 -1 0 0 I I #
vertex $-1 $207 $269 #
point $-1 -20.410606010598926 17.235549039030115 5.1304677148598099 #
straight-curve $-1 -40.13916440321055 22.232542575968164 0 0 0 -1 I I #
point $-1 -40.13916440321055 -22.232542575968164 -10.214335839324319 #
straight-curve $-1 -40.13916440321055 0 -10.214335839324319 0 1 0 I I #
point $-1 -40.13916440321055 22.232542575968164 -10.214335839324319 #
straight-curve $-1 -40.13916440321055 -8.8489720908654217 -7.4642675943036974 0 -1 0 I I #
point $-1 -40.13916440321055 -22.232542575968164 -7.4642675943036974 #
point $-1 -40.13916440321055 -13.163345787493522 -7.4642675943036974 #
straight-curve $-1 -40.13916440321055 -13.163345787493522 -2.2013861896261666 0 0 -1 I I #
straight-curve $-1 -40.13916440321055 -22.232542575968164 0 0 0 -1 I I #
straight-curve $-1 -16.754061143936603 22.232542575968164 45.191186031023214 0 0 -1 I I #
point $-1 -16.754061143936603 22.232542575968164 10.214335839324319 #
straight-curve $-1 -10.705303005299463 22.232542575968164 4.1568242636324015 -1 0 0 I I #
point $-1 -16.754061143936603 22.232542575968164 4.1568242636324015 #
point $-1 -21.410606010598926 16.480839450518769 4.4744086954042199 #
End-of-ACIS-data 