500 0 10 0           
7 Unknown 11 ACIS 5.0 NT 24 Fri Mar 26 17:46:41 1999 
-1 9.9999999999999995e-007 1e-010 
body $-1 $10 $-1 $11 #
body $-1 $12 $-1 $13 #
body $-1 $14 $-1 $15 #
body $-1 $16 $-1 $17 #
body $-1 $18 $-1 $19 #
body $-1 $20 $-1 $21 #
body $-1 $22 $-1 $23 #
body $-1 $24 $-1 $25 #
body $-1 $26 $-1 $27 #
body $-1 $28 $-1 $29 #
lump $-1 $-1 $30 $0 #
transform $-1 1 0 0 0 1 0 0 0 1 65.384075441755414 29.039014041223737 14.46606750687287 1 rotate no_reflect no_shear #
lump $-1 $-1 $31 $1 #
transform $-1 1 0 0 0 1 0 0 0 1 65.384075441755414 29.039014041223737 14.46606750687287 1 rotate no_reflect no_shear #
lump $-1 $-1 $32 $2 #
transform $-1 1 0 0 0 1 0 0 0 1 65.384075441755414 29.039014041223737 14.46606750687287 1 rotate no_reflect no_shear #
lump $-1 $-1 $33 $3 #
transform $-1 1 0 0 0 1 0 0 0 1 65.384075441755414 29.039014041223737 14.46606750687287 1 rotate no_reflect no_shear #
lump $-1 $-1 $34 $4 #
transform $-1 1 0 0 0 1 0 0 0 1 65.384075441755414 29.039014041223737 14.46606750687287 1 rotate no_reflect no_shear #
lump $-1 $-1 $35 $5 #
transform $-1 1 0 0 0 1 0 0 0 1 65.384075441755414 29.039014041223737 14.46606750687287 1 rotate no_reflect no_shear #
lump $-1 $-1 $36 $6 #
transform $-1 1 0 0 0 1 0 0 0 1 65.384075441755414 29.039014041223737 14.46606750687287 1 rotate no_reflect no_shear #
lump $-1 $-1 $37 $7 #
transform $-1 1 0 0 0 1 0 0 0 1 65.384075441755414 29.039014041223737 14.46606750687287 1 rotate no_reflect no_shear #
lump $-1 $-1 $38 $8 #
transform $-1 1 0 0 0 1 0 0 0 1 65.384075441755414 29.039014041223737 14.46606750687287 1 rotate no_reflect no_shear #
lump $-1 $-1 $39 $9 #
transform $-1 1 0 0 0 1 0 0 0 1 65.384075441755414 29.039014041223737 14.46606750687287 1 rotate no_reflect no_shear #
shell $-1 $-1 $-1 $40 $-1 $10 #
shell $-1 $-1 $-1 $41 $-1 $12 #
shell $-1 $-1 $-1 $42 $-1 $14 #
shell $-1 $-1 $-1 $43 $-1 $16 #
shell $-1 $-1 $-1 $44 $-1 $18 #
shell $-1 $-1 $-1 $45 $-1 $20 #
shell $-1 $-1 $-1 $46 $-1 $22 #
shell $-1 $-1 $-1 $47 $-1 $24 #
shell $-1 $-1 $-1 $48 $-1 $26 #
shell $-1 $-1 $-1 $49 $-1 $28 #
face $-1 $50 $51 $30 $-1 $52 forward single #
face $-1 $53 $54 $31 $-1 $55 reversed single #
face $-1 $56 $57 $32 $-1 $58 reversed single #
face $-1 $59 $60 $33 $-1 $61 forward single #
face $-1 $62 $63 $34 $-1 $64 forward single #
face $-1 $65 $66 $35 $-1 $67 forward single #
face $-1 $68 $69 $36 $-1 $70 reversed single #
face $-1 $71 $72 $37 $-1 $73 forward single #
face $-1 $74 $75 $38 $-1 $76 forward single #
face $-1 $77 $78 $39 $-1 $79 forward single #
face $-1 $80 $81 $30 $-1 $82 reversed single #
loop $-1 $-1 $83 $40 #
plane-surface $-1 0 0 14.46606750687287 0 0 1 1 0 0 forward_v I I I I #
face $-1 $84 $85 $31 $-1 $86 reversed single #
loop $-1 $-1 $87 $41 #
plane-surface $-1 -55.878138035609425 -25.183544589106646 0 0 -1 0 0 0 -1 forward_v I I I I #
face $-1 $88 $89 $32 $-1 $90 reversed single #
loop $-1 $-1 $91 $42 #
plane-surface $-1 47.771328062467276 -118.22267955250823 97.739783443975554 -1 0 0 0 -0.68199836817093118 0.7313536940579346 forward_v I I I I #
face $-1 $92 $93 $33 $-1 $94 forward single #
loop $-1 $95 $96 $43 #
cone-surface $-1 30.816106647405519 -21.705187133898878 7.5286482233359031 0 0.68199836817093118 -0.7313536940579346 2 0 0 1 I I 0 1 2 forward I I I I #
face $-1 $97 $98 $34 $-1 $99 forward single #
loop $-1 $100 $101 $44 #
cone-surface $-1 37.174314678053676 -21.705187133898878 7.5286482233359031 0 0.68199836817093118 -0.7313536940579346 2 0 0 1 I I 0 1 2 forward I I I I #
face $-1 $102 $103 $35 $-1 $104 forward single #
loop $-1 $105 $106 $45 #
cone-surface $-1 43.532522708701833 -21.705187133898878 7.5286482233359031 0 0.68199836817093118 -0.7313536940579346 2 0 0 1 I I 0 1 2 forward I I I I #
face $-1 $107 $108 $36 $-1 $109 reversed single #
loop $-1 $-1 $110 $46 #
plane-surface $-1 -46.372200629463435 73.379601564131903 139.8591670654794 1 0 0 0 -0.66913061440640931 -0.74314481823134659 forward_v I I I I #
face $-1 $111 $112 $37 $-1 $113 forward single #
loop $-1 $114 $115 $47 #
cone-surface $-1 -40.351952418020488 21.879137065004382 7.7572024145190719 0 -0.66913061440640931 -0.74314481823134659 2 0 0 1 I I 0 1 2 forward I I I I #
face $-1 $116 $117 $38 $-1 $118 forward single #
loop $-1 $119 $120 $48 #
cone-surface $-1 -31.32158010085606 21.879137065004382 7.7572024145190719 0 -0.66913061440640931 -0.74314481823134659 2 0 0 1 I I 0 1 2 forward I I I I #
face $-1 $121 $122 $39 $-1 $123 forward single #
loop $-1 $124 $125 $49 #
cone-surface $-1 -22.291207783691632 21.879137065004382 7.7572024145190719 0 -0.66913061440640931 -0.74314481823134659 2 0 0 1 I I 0 1 2 forward I I I I #
face $-1 $126 $127 $30 $-1 $128 reversed single #
loop $-1 $-1 $129 $50 #
plane-surface $-1 0 0 -14.46606750687287 0 0 1 1 0 0 forward_v I I I I #
coedge $-1 $130 $131 $132 $133 forward $51 $-1 #
face $-1 $134 $135 $31 $-1 $136 forward single #
loop $-1 $-1 $137 $53 #
plane-surface $-1 -46.372200629463435 -27.111279315165191 0 -1 0 0 0 0 1 forward_v I I I I #
coedge $-1 $138 $139 $140 $141 forward $54 $-1 #
face $-1 $142 $143 $32 $-1 $144 reversed single #
loop $-1 $-1 $145 $56 #
plane-surface $-1 37.174314678053676 -29.039014041223723 2.1020132301945438 0 -0.68199836817093118 0.7313536940579346 1 0 0 forward_v I I I I #
coedge $-1 $146 $147 $148 $149 reversed $57 $-1 #
face $-1 $-1 $150 $33 $-1 $151 forward single #
loop $-1 $152 $153 $59 #
cone-surface $-1 30.816106647405519 -20.31877417872343 6.0419023840801547 0 0.68199836817093118 -0.7313536940579346 1 0 0 1 I I -0.70710678118654746 0.70710678118654746 1 forward I I I I #
loop $-1 $-1 $154 $43 #
coedge $-1 $96 $96 $155 $156 reversed $60 $-1 #
face $-1 $-1 $157 $34 $-1 $158 forward single #
loop $-1 $159 $160 $62 #
cone-surface $-1 37.174314678053676 -20.31877417872343 6.0419023840801547 0 0.68199836817093118 -0.7313536940579346 1 0 0 1 I I -0.70710678118654746 0.70710678118654746 1 forward I I I I #
loop $-1 $-1 $161 $44 #
coedge $-1 $101 $101 $162 $163 reversed $63 $-1 #
face $-1 $-1 $164 $35 $-1 $165 forward single #
loop $-1 $166 $167 $65 #
cone-surface $-1 43.532522708701833 -20.31877417872343 6.0419023840801547 0 0.68199836817093118 -0.7313536940579346 1 0 0 1 I I -0.70710678118654746 0.70710678118654746 1 forward I I I I #
loop $-1 $-1 $168 $45 #
coedge $-1 $106 $106 $169 $170 reversed $66 $-1 #
face $-1 $171 $172 $36 $-1 $173 reversed single #
loop $-1 $-1 $174 $68 #
plane-surface $-1 -31.321580100856053 -14.121371581341734 42.679493346703438 0 0.66913061440640931 0.74314481823134659 1 0 0 forward_v I I I I #
coedge $-1 $175 $176 $177 $178 reversed $69 $-1 #
face $-1 $-1 $179 $37 $-1 $180 forward single #
loop $-1 $181 $182 $71 #
cone-surface $-1 -40.351952418020488 19.963230714889214 5.6293728911790293 0 -0.66913061440640931 -0.74314481823134659 1 0 0 1 I I -0.70710678118654746 0.70710678118654746 1 forward I I I I #
loop $-1 $-1 $183 $47 #
coedge $-1 $115 $115 $184 $185 reversed $72 $-1 #
face $-1 $-1 $186 $38 $-1 $187 forward single #
loop $-1 $188 $189 $74 #
cone-surface $-1 -31.32158010085606 19.963230714889214 5.6293728911790293 0 -0.66913061440640931 -0.74314481823134659 1 0 0 1 I I -0.70710678118654746 0.70710678118654746 1 forward I I I I #
loop $-1 $-1 $190 $48 #
coedge $-1 $120 $120 $191 $192 reversed $75 $-1 #
face $-1 $-1 $193 $39 $-1 $194 forward single #
loop $-1 $195 $196 $77 #
cone-surface $-1 -22.291207783691632 19.963230714889214 5.6293728911790293 0 -0.66913061440640931 -0.74314481823134659 1 0 0 1 I I -0.70710678118654746 0.70710678118654746 1 forward I I I I #
loop $-1 $-1 $197 $49 #
coedge $-1 $125 $125 $198 $199 reversed $78 $-1 #
face $-1 $200 $201 $30 $-1 $202 reversed single #
loop $-1 $-1 $203 $80 #
plane-surface $-1 0 -29.039014041223737 0 0 1 0 0 0 1 forward_v I I I I #
coedge $-1 $204 $205 $206 $207 forward $81 $-1 #
coedge $-1 $208 $83 $209 $210 forward $51 $-1 #
coedge $-1 $83 $208 $211 $212 forward $51 $-1 #
coedge $-1 $213 $214 $83 $133 reversed $215 $-1 #
edge $-1 $216 -29.039014041223737 $217 29.039014041223737 $132 $218 forward 7 unknown #
face $-1 $219 $220 $31 $-1 $221 reversed single #
loop $-1 $-1 $222 $84 #
plane-surface $-1 0 0 14.46606750687287 0 0 1 1 0 0 forward_v I I I I #
coedge $-1 $223 $224 $225 $226 reversed $85 $-1 #
coedge $-1 $227 $87 $228 $229 reversed $54 $-1 #
coedge $-1 $87 $227 $230 $231 reversed $54 $-1 #
coedge $-1 $224 $223 $87 $141 reversed $85 $-1 #
edge $-1 $232 -14.46606750687287 $233 14.46606750687287 $140 $234 forward 7 unknown #
face $-1 $235 $236 $32 $-1 $237 forward single #
loop $-1 $-1 $238 $88 #
plane-surface $-1 26.577301293640076 -118.22267955250823 97.739783443975554 1 0 0 0 0.68199836817093118 -0.7313536940579346 forward_v I I I I #
coedge $-1 $239 $240 $241 $242 reversed $89 $-1 #
coedge $-1 $147 $91 $243 $244 reversed $57 $-1 #
coedge $-1 $91 $146 $239 $245 reversed $57 $-1 #
coedge $-1 $241 $246 $91 $149 forward $236 $-1 #
edge $-1 $247 30.072325735030375 $248 43.331150375671101 $148 $249 forward 7 unknown #
loop $-1 $-1 $155 $92 #
plane-surface $-1 37.174314678053676 -29.039014041223723 2.1020132301945438 0 -0.68199836817093118 0.7313536940579346 1 0 0 forward_v I I I I #
loop $-1 $-1 $250 $59 #
coedge $-1 $153 $153 $154 $251 reversed $93 $-1 #
coedge $-1 $154 $154 $153 $251 forward $95 $-1 #
coedge $-1 $155 $155 $96 $156 forward $150 $-1 #
edge $-1 $252 1.6737287937908834e-016 $252 6.2831853071796004 $155 $253 forward 7 unknown #
loop $-1 $-1 $162 $97 #
plane-surface $-1 37.174314678053676 -29.039014041223723 2.1020132301945438 0 -0.68199836817093118 0.7313536940579346 1 0 0 forward_v I I I I #
loop $-1 $-1 $254 $62 #
coedge $-1 $160 $160 $161 $255 reversed $98 $-1 #
coedge $-1 $161 $161 $160 $255 forward $100 $-1 #
coedge $-1 $162 $162 $101 $163 forward $157 $-1 #
edge $-1 $256 1.6737287937908834e-016 $256 6.2831853071796004 $162 $257 forward 7 unknown #
loop $-1 $-1 $169 $102 #
plane-surface $-1 37.174314678053676 -29.039014041223723 2.1020132301945438 0 -0.68199836817093118 0.7313536940579346 1 0 0 forward_v I I I I #
loop $-1 $-1 $258 $65 #
coedge $-1 $167 $167 $168 $259 reversed $103 $-1 #
coedge $-1 $168 $168 $167 $259 forward $105 $-1 #
coedge $-1 $169 $169 $106 $170 forward $164 $-1 #
edge $-1 $260 1.6737287937908834e-016 $260 6.2831853071796004 $169 $261 forward 7 unknown #
face $-1 $262 $263 $36 $-1 $264 reversed single #
loop $-1 $-1 $265 $107 #
plane-surface $-1 -16.270959572248671 73.379601564131903 139.8591670654794 -1 0 0 0 0.66913061440640931 0.74314481823134659 forward_v I I I I #
coedge $-1 $266 $267 $268 $269 reversed $108 $-1 #
coedge $-1 $176 $110 $270 $271 reversed $69 $-1 #
coedge $-1 $110 $175 $266 $272 reversed $69 $-1 #
coedge $-1 $268 $273 $110 $178 forward $274 $-1 #
edge $-1 $275 7.6507867408422143 $276 19.47698922186342 $177 $277 forward 7 unknown #
loop $-1 $-1 $184 $111 #
plane-surface $-1 -31.321580100856053 -14.121371581341734 42.679493346703438 0 0.66913061440640931 0.74314481823134659 1 0 0 forward_v I I I I #
loop $-1 $-1 $278 $71 #
coedge $-1 $182 $182 $183 $279 reversed $112 $-1 #
coedge $-1 $183 $183 $182 $279 forward $114 $-1 #
coedge $-1 $184 $184 $115 $185 forward $179 $-1 #
edge $-1 $280 -4.6283173449926694e-016 $280 6.2831853071795996 $184 $281 forward 7 unknown #
loop $-1 $-1 $191 $116 #
plane-surface $-1 -31.321580100856053 -14.121371581341734 42.679493346703438 0 0.66913061440640931 0.74314481823134659 1 0 0 forward_v I I I I #
loop $-1 $-1 $282 $74 #
coedge $-1 $189 $189 $190 $283 reversed $117 $-1 #
coedge $-1 $190 $190 $189 $283 forward $119 $-1 #
coedge $-1 $191 $191 $120 $192 forward $186 $-1 #
edge $-1 $284 -4.6283173449926694e-016 $284 6.2831853071795996 $191 $285 forward 7 unknown #
loop $-1 $-1 $198 $121 #
plane-surface $-1 -31.321580100856053 -14.121371581341734 42.679493346703438 0 0.66913061440640931 0.74314481823134659 1 0 0 forward_v I I I I #
loop $-1 $-1 $286 $77 #
coedge $-1 $196 $196 $197 $287 reversed $122 $-1 #
coedge $-1 $197 $197 $196 $287 forward $124 $-1 #
coedge $-1 $198 $198 $125 $199 forward $193 $-1 #
edge $-1 $288 -4.6283173449926694e-016 $288 6.2831853071795996 $198 $289 forward 7 unknown #
face $-1 $290 $291 $30 $-1 $292 reversed single #
loop $-1 $-1 $293 $126 #
plane-surface $-1 -65.384075441755414 0 0 1 0 0 0 0 -1 forward_v I I I I #
coedge $-1 $294 $211 $295 $296 forward $127 $-1 #
coedge $-1 $297 $129 $294 $298 forward $81 $-1 #
coedge $-1 $129 $297 $299 $300 forward $81 $-1 #
coedge $-1 $214 $213 $129 $207 reversed $215 $-1 #
edge $-1 $301 -29.039014041223737 $302 29.039014041223737 $206 $303 forward 7 unknown #
coedge $-1 $131 $130 $304 $305 forward $51 $-1 #
coedge $-1 $306 $307 $130 $210 reversed $291 $-1 #
edge $-1 $217 -65.384075441755414 $308 65.384075441755414 $209 $309 forward 7 unknown #
coedge $-1 $203 $310 $131 $212 reversed $127 $-1 #
edge $-1 $311 -65.384075441755414 $216 65.384075441755414 $211 $312 forward 7 unknown #
coedge $-1 $206 $132 $310 $313 forward $215 $-1 #
coedge $-1 $132 $206 $306 $314 reversed $215 $-1 #
loop $-1 $-1 $213 $290 #
vertex $-1 $133 $315 #
vertex $-1 $133 $316 #
straight-curve $-1 65.384075441755414 0 14.46606750687287 0 1 0 I I #
face $-1 $317 $318 $31 $-1 $319 reversed single #
loop $-1 $-1 $320 $134 #
plane-surface $-1 -65.384075441755414 0 0 1 0 0 0 0 -1 forward_v I I I I #
coedge $-1 $230 $321 $224 $322 forward $135 $-1 #
coedge $-1 $140 $137 $323 $324 reversed $85 $-1 #
coedge $-1 $137 $140 $222 $322 reversed $85 $-1 #
coedge $-1 $325 $326 $137 $226 forward $327 $-1 #
edge $-1 $328 -14.46606750687287 $329 14.46606750687287 $225 $330 forward 7 unknown #
coedge $-1 $139 $138 $320 $331 reversed $54 $-1 #
coedge $-1 $323 $332 $138 $229 forward $318 $-1 #
edge $-1 $333 -37.445006423950701 $233 -18.433131611658723 $228 $334 forward 7 unknown #
coedge $-1 $335 $222 $139 $231 forward $135 $-1 #
edge $-1 $232 18.433131611658723 $336 37.445006423950701 $230 $337 forward 7 unknown #
vertex $-1 $231 $338 #
vertex $-1 $229 $339 #
straight-curve $-1 -46.372200629463435 -25.183544589106646 0 0 0 -1 I I #
face $-1 $-1 $340 $32 $-1 $341 reversed single #
loop $-1 $-1 $148 $142 #
plane-surface $-1 0 0 14.46606750687287 0 0 1 1 0 0 forward_v I I I I #
coedge $-1 $342 $343 $344 $345 reversed $143 $-1 #
coedge $-1 $346 $145 $147 $245 forward $89 $-1 #
coedge $-1 $145 $346 $342 $347 forward $89 $-1 #
coedge $-1 $344 $148 $145 $242 forward $236 $-1 #
edge $-1 $248 -29.184170723440438 $348 -7.990143954613238 $241 $349 forward 7 unknown #
coedge $-1 $350 $351 $146 $244 forward $340 $-1 #
edge $-1 $352 -46.767878491793248 $247 -34.403824215114909 $243 $353 forward 7 unknown #
edge $-1 $248 -18.129155220470391 $352 1.9479204584885432e-014 $147 $354 forward 7 unknown #
coedge $-1 $148 $344 $350 $355 forward $236 $-1 #
vertex $-1 $244 $356 #
vertex $-1 $149 $357 #
straight-curve $-1 47.771328062467276 -59.111339776254113 14.466067506872868 0 1 0 I I #
coedge $-1 $250 $250 $-1 $358 reversed $152 $-1 #
edge $-1 $359 0 $359 6.2831853071796004 $153 $360 forward 7 unknown #
vertex $-1 $156 $361 #
ellipse-curve $-1 30.816106647405519 -22.409601720903378 8.284040368533697 0 -0.68199836817093118 0.7313536940579346 2 0 0 1 I I #
coedge $-1 $254 $254 $-1 $362 reversed $159 $-1 #
edge $-1 $363 0 $363 6.2831853071796004 $160 $364 forward 7 unknown #
vertex $-1 $163 $365 #
ellipse-curve $-1 37.174314678053676 -22.409601720903378 8.284040368533697 0 -0.68199836817093118 0.7313536940579346 2 0 0 1 I I #
coedge $-1 $258 $258 $-1 $366 reversed $166 $-1 #
edge $-1 $367 0 $367 6.2831853071796004 $167 $368 forward 7 unknown #
vertex $-1 $170 $369 #
ellipse-curve $-1 43.532522708701833 -22.409601720903378 8.284040368533697 0 -0.68199836817093118 0.7313536940579346 2 0 0 1 I I #
face $-1 $-1 $274 $36 $-1 $370 forward single #
loop $-1 $-1 $371 $171 #
plane-surface $-1 0 29.039014041223737 0 0 -1 0 0 0 -1 forward_v I I I I #
coedge $-1 $372 $373 $374 $375 reversed $172 $-1 #
coedge $-1 $376 $174 $176 $272 forward $108 $-1 #
coedge $-1 $174 $376 $372 $377 forward $108 $-1 #
coedge $-1 $374 $177 $174 $269 forward $274 $-1 #
edge $-1 $276 -30.711410579035409 $378 -0.61016952182064443 $268 $379 forward 7 unknown #
coedge $-1 $380 $381 $175 $271 forward $263 $-1 #
edge $-1 $382 -66.111876800357038 $275 -55.463516025866831 $270 $383 forward 7 unknown #
edge $-1 $276 42.164302801866135 $382 58.078028082447474 $176 $384 forward 7 unknown #
coedge $-1 $177 $374 $380 $385 forward $274 $-1 #
loop $-1 $-1 $374 $262 #
vertex $-1 $271 $386 #
vertex $-1 $178 $387 #
straight-curve $-1 -46.372200629463435 36.689800782065952 14.466067506872868 0 -1 0 I I #
coedge $-1 $278 $278 $-1 $388 reversed $181 $-1 #
edge $-1 $389 0 $389 6.2831853071796004 $182 $390 forward 7 unknown #
vertex $-1 $185 $391 #
ellipse-curve $-1 -40.351952418020488 23.125912800713138 9.1418871196277625 0 0.66913061440640931 0.74314481823134659 2 0 0 1 I I #
coedge $-1 $282 $282 $-1 $392 reversed $188 $-1 #
edge $-1 $393 0 $393 6.2831853071796004 $189 $394 forward 7 unknown #
vertex $-1 $192 $395 #
ellipse-curve $-1 -31.32158010085606 23.125912800713138 9.1418871196277625 0 0.66913061440640931 0.74314481823134659 2 0 0 1 I I #
coedge $-1 $286 $286 $-1 $396 reversed $195 $-1 #
edge $-1 $397 0 $397 6.2831853071796004 $196 $398 forward 7 unknown #
vertex $-1 $199 $399 #
ellipse-curve $-1 -22.291207783691632 23.125912800713138 9.1418871196277625 0 0.66913061440640931 0.74314481823134659 2 0 0 1 I I #
face $-1 $-1 $215 $30 $-1 $400 reversed single #
loop $-1 $-1 $306 $200 #
plane-surface $-1 0 29.039014041223737 0 0 -1 0 0 0 -1 forward_v I I I I #
coedge $-1 $401 $304 $307 $402 forward $201 $-1 #
coedge $-1 $310 $203 $204 $298 reversed $127 $-1 #
coedge $-1 $304 $401 $203 $296 reversed $201 $-1 #
edge $-1 $311 -14.46606750687287 $403 14.46606750687287 $295 $404 forward 7 unknown #
coedge $-1 $205 $204 $401 $405 forward $81 $-1 #
edge $-1 $302 -65.384075441755414 $403 65.384075441755414 $294 $406 forward 7 unknown #
coedge $-1 $307 $306 $205 $300 reversed $291 $-1 #
edge $-1 $407 -65.384075441755414 $301 65.384075441755414 $299 $408 forward 7 unknown #
vertex $-1 $207 $409 #
vertex $-1 $313 $410 #
straight-curve $-1 65.384075441755414 0 -14.46606750687287 0 -1 0 I I #
coedge $-1 $293 $295 $208 $305 reversed $201 $-1 #
edge $-1 $308 -29.039014041223737 $311 29.039014041223737 $304 $411 forward 7 unknown #
coedge $-1 $299 $209 $214 $314 forward $291 $-1 #
coedge $-1 $209 $299 $293 $402 reversed $291 $-1 #
vertex $-1 $210 $412 #
straight-curve $-1 0 29.039014041223737 14.46606750687287 -1 0 0 I I #
coedge $-1 $211 $294 $213 $313 reversed $127 $-1 #
vertex $-1 $305 $413 #
straight-curve $-1 0 -29.039014041223737 14.46606750687287 1 0 0 I I #
edge $-1 $216 -14.46606750687287 $302 14.46606750687287 $213 $414 forward 7 unknown #
edge $-1 $217 -14.46606750687287 $301 14.46606750687287 $214 $415 forward 7 unknown #
point $-1 65.384075441755414 -29.039014041223737 14.46606750687287 #
point $-1 65.384075441755414 29.039014041223737 14.46606750687287 #
face $-1 $-1 $327 $31 $-1 $416 reversed single #
loop $-1 $-1 $323 $219 #
plane-surface $-1 0 0 -14.46606750687287 0 0 1 1 0 0 forward_v I I I I #
coedge $-1 $417 $418 $227 $331 forward $220 $-1 #
coedge $-1 $222 $335 $325 $419 forward $135 $-1 #
edge $-1 $329 -15.483374383641141 $232 -11.62790493152405 $222 $420 forward 7 unknown #
coedge $-1 $421 $228 $223 $324 forward $318 $-1 #
edge $-1 $233 11.62790493152405 $328 15.483374383641141 $323 $422 forward 7 unknown #
coedge $-1 $423 $225 $321 $419 reversed $327 $-1 #
coedge $-1 $225 $423 $421 $424 reversed $327 $-1 #
loop $-1 $-1 $225 $317 #
vertex $-1 $424 $425 #
vertex $-1 $226 $426 #
straight-curve $-1 -46.372200629463435 -29.039014041223737 0 0 0 1 I I #
edge $-1 $336 -14.46606750687287 $333 14.46606750687287 $320 $427 forward 7 unknown #
coedge $-1 $228 $421 $417 $428 forward $318 $-1 #
vertex $-1 $229 $429 #
straight-curve $-1 -27.939069017804712 -25.183544589106646 -14.46606750687287 1 0 0 I I #
coedge $-1 $321 $230 $418 $430 forward $135 $-1 #
vertex $-1 $430 $431 #
straight-curve $-1 -27.939069017804712 -25.183544589106646 14.46606750687287 -1 0 0 I I #
point $-1 -46.372200629463435 -25.183544589106646 14.46606750687287 #
point $-1 -46.372200629463435 -25.183544589106646 -14.46606750687287 #
loop $-1 $-1 $243 $235 #
plane-surface $-1 0 -29.039014041223737 0 0 1 0 0 0 1 forward_v I I I I #
coedge $-1 $343 $238 $240 $347 reversed $143 $-1 #
coedge $-1 $238 $342 $432 $433 reversed $143 $-1 #
coedge $-1 $246 $241 $238 $345 forward $236 $-1 #
edge $-1 $348 -43.331150375671101 $434 -30.072325735030375 $344 $435 forward 7 unknown #
coedge $-1 $240 $239 $351 $436 reversed $89 $-1 #
edge $-1 $437 -1.9479204584885432e-014 $348 18.129155220470391 $342 $438 forward 7 unknown #
vertex $-1 $242 $439 #
straight-curve $-1 18.587157339026838 -15.780189400583009 14.46606750687287 -1 0 0 I I #
coedge $-1 $432 $243 $246 $355 reversed $340 $-1 #
coedge $-1 $243 $432 $346 $436 forward $340 $-1 #
vertex $-1 $244 $440 #
straight-curve $-1 47.771328062467276 -29.039014041223737 48.869891721987777 0 0 1 I I #
straight-curve $-1 47.771328062467276 -29.039014041223723 2.1020132301945438 0 -0.7313536940579346 -0.68199836817093118 I I #
edge $-1 $434 26.577301293640076 $247 47.771328062467276 $350 $441 forward 7 unknown #
point $-1 47.771328062467276 -29.039014041223737 14.46606750687287 #
point $-1 47.771328062467276 -15.780189400583012 14.466067506872868 #
edge $-1 $442 1 $442 0 $250 $-1 forward 7 unknown #
vertex $-1 $251 $443 #
ellipse-curve $-1 30.816106647405519 -21.00077254689436 6.7732560781380897 0 -0.68199836817093118 0.7313536940579346 2 0 0 1 I I #
point $-1 32.816106647405519 -22.409601720903396 8.2840403685337165 #
edge $-1 $444 1 $444 0 $254 $-1 forward 7 unknown #
vertex $-1 $255 $445 #
ellipse-curve $-1 37.174314678053676 -21.00077254689436 6.7732560781380897 0 -0.68199836817093118 0.7313536940579346 2 0 0 1 I I #
point $-1 39.174314678053676 -22.409601720903396 8.2840403685337165 #
edge $-1 $446 1 $446 0 $258 $-1 forward 7 unknown #
vertex $-1 $259 $447 #
ellipse-curve $-1 43.532522708701833 -21.00077254689436 6.7732560781380897 0 -0.68199836817093118 0.7313536940579346 2 0 0 1 I I #
point $-1 45.532522708701833 -22.409601720903396 8.2840403685337165 #
plane-surface $-1 0 0 14.46606750687287 0 0 1 1 0 0 forward_v I I I I #
coedge $-1 $381 $380 $373 $448 forward $263 $-1 #
coedge $-1 $373 $265 $267 $377 reversed $172 $-1 #
coedge $-1 $265 $372 $371 $448 reversed $172 $-1 #
coedge $-1 $273 $268 $265 $375 forward $274 $-1 #
edge $-1 $378 -19.47698922186342 $449 -7.6507867408422143 $374 $450 forward 7 unknown #
coedge $-1 $267 $266 $381 $451 reversed $108 $-1 #
edge $-1 $452 -58.078028082447474 $378 -42.164302801866135 $372 $453 forward 7 unknown #
vertex $-1 $269 $454 #
straight-curve $-1 -15.660790050428027 17.212811560202535 14.466067506872864 1 0 0 I I #
coedge $-1 $371 $270 $273 $385 reversed $263 $-1 #
coedge $-1 $270 $371 $376 $451 forward $263 $-1 #
vertex $-1 $271 $455 #
straight-curve $-1 -46.372200629463435 29.039014041223737 69.929583532739699 0 0 1 I I #
straight-curve $-1 -46.372200629463435 -14.121371581341734 42.679493346703438 0 0.74314481823134659 -0.66913061440640931 I I #
edge $-1 $449 16.270959572248671 $275 46.372200629463435 $380 $456 forward 7 unknown #
point $-1 -46.372200629463435 29.039014041223737 14.46606750687287 #
point $-1 -46.372200629463435 17.212811560202532 14.466067506872864 #
edge $-1 $457 1 $457 0 $278 $-1 forward 7 unknown #
vertex $-1 $279 $458 #
ellipse-curve $-1 -40.351952418020488 20.632361329295623 6.372517709410376 0 0.66913061440640931 0.74314481823134659 2 0 0 1 I I #
point $-1 -38.351952418020488 23.125912800713142 9.1418871196277678 #
edge $-1 $459 1 $459 0 $282 $-1 forward 7 unknown #
vertex $-1 $283 $460 #
ellipse-curve $-1 -31.32158010085606 20.632361329295623 6.372517709410376 0 0.66913061440640931 0.74314481823134659 2 0 0 1 I I #
point $-1 -29.32158010085606 23.125912800713142 9.1418871196277678 #
edge $-1 $461 1 $461 0 $286 $-1 forward 7 unknown #
vertex $-1 $287 $462 #
ellipse-curve $-1 -22.291207783691632 20.632361329295623 6.372517709410376 0 0.66913061440640931 0.74314481823134659 2 0 0 1 I I #
point $-1 -20.291207783691632 23.125912800713142 9.1418871196277678 #
plane-surface $-1 65.384075441755414 0 0 -1 0 0 0 0 1 forward_v I I I I #
coedge $-1 $295 $293 $297 $405 reversed $201 $-1 #
edge $-1 $308 -14.46606750687287 $407 14.46606750687287 $307 $463 forward 7 unknown #
vertex $-1 $405 $464 #
straight-curve $-1 -65.384075441755414 -29.039014041223737 0 0 0 -1 I I #
edge $-1 $403 -29.039014041223737 $407 29.039014041223737 $401 $465 forward 7 unknown #
straight-curve $-1 0 -29.039014041223737 -14.46606750687287 -1 0 0 I I #
vertex $-1 $300 $466 #
straight-curve $-1 0 29.039014041223737 -14.46606750687287 1 0 0 I I #
point $-1 65.384075441755414 29.039014041223737 -14.46606750687287 #
point $-1 65.384075441755414 -29.039014041223737 -14.46606750687287 #
straight-curve $-1 -65.384075441755414 0 14.46606750687287 0 -1 0 I I #
point $-1 -65.384075441755414 29.039014041223737 14.46606750687287 #
point $-1 -65.384075441755414 -29.039014041223737 14.46606750687287 #
straight-curve $-1 65.384075441755414 -29.039014041223737 0 0 0 -1 I I #
straight-curve $-1 65.384075441755414 29.039014041223737 0 0 0 -1 I I #
plane-surface $-1 0 -29.039014041223737 0 0 1 0 0 0 1 forward_v I I I I #
coedge $-1 $467 $320 $332 $428 reversed $220 $-1 #
coedge $-1 $320 $467 $335 $430 reversed $220 $-1 #
edge $-1 $468 -65.384075441755414 $329 -46.372200629463435 $325 $469 forward 7 unknown #
straight-curve $-1 -46.372200629463435 -13.555639657582596 14.46606750687287 0 1 0 I I #
coedge $-1 $332 $323 $326 $424 forward $318 $-1 #
straight-curve $-1 -46.372200629463435 -13.555639657582596 -14.46606750687287 0 -1 0 I I #
coedge $-1 $326 $325 $467 $470 forward $327 $-1 #
edge $-1 $328 46.372200629463435 $471 65.384075441755414 $326 $472 forward 7 unknown #
point $-1 -46.372200629463435 -29.039014041223737 -14.46606750687287 #
point $-1 -46.372200629463435 -29.039014041223737 14.46606750687287 #
straight-curve $-1 -65.384075441755414 -25.183544589106646 0 0 0 -1 I I #
edge $-1 $471 -29.039014041223737 $333 -25.183544589106646 $417 $473 forward 7 unknown #
point $-1 -65.384075441755414 -25.183544589106646 -14.46606750687287 #
edge $-1 $336 25.183544589106646 $468 29.039014041223737 $418 $474 forward 7 unknown #
point $-1 -65.384075441755414 -25.183544589106646 14.46606750687287 #
coedge $-1 $351 $350 $343 $433 forward $340 $-1 #
edge $-1 $434 34.403824215114909 $437 46.767878491793248 $432 $475 forward 7 unknown #
vertex $-1 $355 $476 #
straight-curve $-1 26.577301293640076 -59.111339776254113 14.466067506872868 0 -1 0 I I #
edge $-1 $437 7.990143954613238 $352 29.184170723440438 $351 $477 forward 7 unknown #
vertex $-1 $436 $478 #
straight-curve $-1 26.577301293640076 -29.039014041223723 2.1020132301945438 0 0.7313536940579346 0.68199836817093118 I I #
point $-1 26.577301293640076 -15.780189400583012 14.466067506872868 #
point $-1 47.771328062467276 -29.039014041223737 2.1020132301945305 #
straight-curve $-1 0 -29.039014041223737 14.46606750687287 1 0 0 I I #
vertex $-1 $358 $479 #
point $-1 32.816106647405519 -21.00077254689436 6.7732560781380897 #
vertex $-1 $362 $480 #
point $-1 39.174314678053676 -21.00077254689436 6.7732560781380897 #
vertex $-1 $366 $481 #
point $-1 45.532522708701833 -21.00077254689436 6.7732560781380897 #
edge $-1 $449 55.463516025866831 $452 66.111876800357038 $371 $482 forward 7 unknown #
vertex $-1 $385 $483 #
straight-curve $-1 -16.270959572248671 36.689800782065952 14.466067506872868 0 1 0 I I #
edge $-1 $452 0.61016952182064443 $382 30.711410579035409 $381 $484 forward 7 unknown #
vertex $-1 $451 $485 #
straight-curve $-1 -16.270959572248671 -14.121371581341734 42.679493346703438 0 -0.74314481823134659 0.66913061440640931 I I #
point $-1 -16.270959572248671 17.212811560202532 14.466067506872864 #
point $-1 -46.372200629463435 29.039014041223737 3.8177067323826677 #
straight-curve $-1 0 29.039014041223737 14.46606750687287 -1 0 0 I I #
vertex $-1 $388 $486 #
point $-1 -38.351952418020488 20.632361329295623 6.372517709410376 #
vertex $-1 $392 $487 #
point $-1 -29.32158010085606 20.632361329295623 6.372517709410376 #
vertex $-1 $396 $488 #
point $-1 -20.291207783691632 20.632361329295623 6.372517709410376 #
straight-curve $-1 -65.384075441755414 29.039014041223737 0 0 0 -1 I I #
point $-1 -65.384075441755414 -29.039014041223737 -14.46606750687287 #
straight-curve $-1 -65.384075441755414 0 -14.46606750687287 0 1 0 I I #
point $-1 -65.384075441755414 29.039014041223737 -14.46606750687287 #
coedge $-1 $418 $417 $423 $470 reversed $220 $-1 #
vertex $-1 $430 $489 #
straight-curve $-1 0 -29.039014041223737 14.46606750687287 1 0 0 I I #
edge $-1 $468 -14.46606750687287 $471 14.46606750687287 $467 $490 forward 7 unknown #
vertex $-1 $428 $491 #
straight-curve $-1 0 -29.039014041223737 -14.46606750687287 -1 0 0 I I #
straight-curve $-1 -65.384075441755414 0 -14.46606750687287 0 1 0 I I #
straight-curve $-1 -65.384075441755414 0 14.46606750687287 0 -1 0 I I #
straight-curve $-1 26.577301293640076 -29.039014041223737 48.869891721987777 0 0 -1 I I #
point $-1 26.577301293640076 -29.039014041223737 14.46606750687287 #
straight-curve $-1 18.587157339026838 -29.039014041223737 2.10201323019453 1 0 0 I I #
point $-1 26.577301293640076 -29.039014041223737 2.1020132301945305 #
point $-1 30.816106647405519 -19.6367758105525 5.3105486900222196 #
point $-1 37.174314678053676 -19.6367758105525 5.3105486900222196 #
point $-1 43.532522708701833 -19.6367758105525 5.3105486900222196 #
straight-curve $-1 -16.270959572248671 29.039014041223737 69.929583532739699 0 0 -1 I I #
point $-1 -16.270959572248671 29.039014041223737 14.46606750687287 #
straight-curve $-1 -15.660790050428027 29.039014041223737 3.8177067323826641 -1 0 0 I I #
point $-1 -16.270959572248671 29.039014041223737 3.8177067323826677 #
point $-1 -40.351952418020488 19.294100100482805 4.8862280729476826 #
point $-1 -31.32158010085606 19.294100100482805 4.8862280729476826 #
point $-1 -22.291207783691632 19.294100100482805 4.8862280729476826 #
point $-1 -65.384075441755414 -29.039014041223737 14.46606750687287 #
straight-curve $-1 -65.384075441755414 -29.039014041223737 0 0 0 -1 I I #
point $-1 -65.384075441755414 -29.039014041223737 -14.46606750687287 #
End-of-ACIS-data 