500 0 11 0           
7 Unknown 11 ACIS 5.0 NT 24 Thu Mar 25 20:43:25 1999 
-1 9.9999999999999995e-007 1e-010 
body $-1 $11 $-1 $12 #
body $-1 $13 $-1 $14 #
body $-1 $15 $-1 $16 #
body $-1 $17 $-1 $18 #
body $-1 $19 $-1 $20 #
body $-1 $21 $-1 $22 #
body $-1 $23 $-1 $24 #
body $-1 $25 $-1 $26 #
body $-1 $27 $-1 $28 #
body $-1 $29 $-1 $30 #
body $-1 $31 $-1 $32 #
lump $-1 $-1 $33 $0 #
transform $-1 1 0 0 0 1 0 0 0 1 45.775322733237708 21.314645423821965 8.3495100029466105 1 rotate no_reflect no_shear #
lump $-1 $-1 $34 $1 #
transform $-1 1 0 0 0 1 0 0 0 1 45.775322733237708 21.314645423821965 8.3495100029466105 1 rotate no_reflect no_shear #
lump $-1 $-1 $35 $2 #
transform $-1 1 0 0 0 1 0 0 0 1 45.775322733237708 21.314645423821965 8.3495100029466105 1 rotate no_reflect no_shear #
lump $-1 $-1 $36 $3 #
transform $-1 1 0 0 0 1 0 0 0 1 45.775322733237708 21.314645423821965 8.3495100029466105 1 rotate no_reflect no_shear #
lump $-1 $-1 $37 $4 #
transform $-1 1 0 0 0 1 0 0 0 1 45.775322733237708 21.314645423821965 8.3495100029466105 1 rotate no_reflect no_shear #
lump $-1 $-1 $38 $5 #
transform $-1 1 0 0 0 1 0 0 0 1 45.775322733237708 21.314645423821965 8.3495100029466105 1 rotate no_reflect no_shear #
lump $-1 $-1 $39 $6 #
transform $-1 1 0 0 0 1 0 0 0 1 45.775322733237708 21.314645423821965 8.3495100029466105 1 rotate no_reflect no_shear #
lump $-1 $-1 $40 $7 #
transform $-1 1 0 0 0 1 0 0 0 1 45.775322733237708 21.314645423821965 8.3495100029466105 1 rotate no_reflect no_shear #
lump $-1 $-1 $41 $8 #
transform $-1 1 0 0 0 1 0 0 0 1 45.775322733237708 21.314645423821965 8.3495100029466105 1 rotate no_reflect no_shear #
lump $-1 $-1 $42 $9 #
transform $-1 1 0 0 0 1 0 0 0 1 45.775322733237708 21.314645423821965 8.3495100029466105 1 rotate no_reflect no_shear #
lump $-1 $-1 $43 $10 #
transform $-1 1 0 0 0 1 0 0 0 1 45.775322733237708 21.314645423821965 8.3495100029466105 1 rotate no_reflect no_shear #
shell $-1 $-1 $-1 $44 $-1 $11 #
shell $-1 $-1 $-1 $45 $-1 $13 #
shell $-1 $-1 $-1 $46 $-1 $15 #
shell $-1 $-1 $-1 $47 $-1 $17 #
shell $-1 $-1 $-1 $48 $-1 $19 #
shell $-1 $-1 $-1 $49 $-1 $21 #
shell $-1 $-1 $-1 $50 $-1 $23 #
shell $-1 $-1 $-1 $51 $-1 $25 #
shell $-1 $-1 $-1 $52 $-1 $27 #
shell $-1 $-1 $-1 $53 $-1 $29 #
shell $-1 $-1 $-1 $54 $-1 $31 #
face $-1 $55 $56 $33 $-1 $57 forward single #
face $-1 $58 $59 $34 $-1 $60 forward single #
face $-1 $61 $62 $35 $-1 $63 reversed single #
face $-1 $64 $65 $36 $-1 $66 forward single #
face $-1 $67 $68 $37 $-1 $69 forward single #
face $-1 $70 $71 $38 $-1 $72 reversed single #
face $-1 $73 $74 $39 $-1 $75 forward single #
face $-1 $76 $77 $40 $-1 $78 forward single #
face $-1 $79 $80 $41 $-1 $81 reversed single #
face $-1 $82 $83 $42 $-1 $84 forward single #
face $-1 $85 $86 $43 $-1 $87 forward single #
face $-1 $88 $89 $33 $-1 $90 reversed single #
loop $-1 $-1 $91 $44 #
plane-surface $-1 0 0 8.3495100029466105 0 0 1 1 0 0 forward_v I I I I #
face $-1 $92 $93 $34 $-1 $94 reversed single #
loop $-1 $-1 $95 $45 #
plane-surface $-1 -41.107468354586082 0 -1.275800144325939 0 0 1 1 0 0 forward_v I I I I #
face $-1 $96 $97 $35 $-1 $98 reversed single #
loop $-1 $-1 $99 $46 #
plane-surface $-1 -14.380676158602267 79.285185986102505 86.273642098555484 1 0 0 0 -0.86602541151947299 -0.49999998660252726 forward_v I I I I #
face $-1 $100 $101 $36 $-1 $102 forward single #
loop $-1 $103 $104 $47 #
cone-surface $-1 -10.963993877188905 18.547412862994253 5.1621013525933606 0 -0.86602541151947299 -0.49999998660252726 1 0 0 1 I I 0 1 1 forward I I I I #
face $-1 $105 $106 $37 $-1 $107 forward single #
loop $-1 $108 $109 $48 #
cone-surface $-1 -5.8389704550688677 18.547412862994253 5.1621013525933606 0 -0.86602541151947299 -0.49999998660252726 1 0 0 1 I I 0 1 1 forward I I I I #
face $-1 $110 $111 $38 $-1 $112 reversed single #
loop $-1 $-1 $113 $49 #
plane-surface $-1 26.726792195983823 79.285185986102505 86.273642098555484 1 0 0 0 -0.86602541151947299 -0.49999998660252726 forward_v I I I I #
face $-1 $114 $115 $39 $-1 $116 forward single #
loop $-1 $117 $118 $50 #
cone-surface $-1 30.143474477397184 18.547412862994253 5.1621013525933606 0 -0.86602541151947299 -0.49999998660252726 1 0 0 1 I I 0 1 1 forward I I I I #
face $-1 $119 $120 $40 $-1 $121 forward single #
loop $-1 $122 $123 $51 #
cone-surface $-1 35.268497899517207 18.547412862994253 5.1621013525933606 0 -0.86602541151947299 -0.49999998660252726 1 0 0 1 I I 0 1 1 forward I I I I #
face $-1 $124 $125 $41 $-1 $126 reversed single #
loop $-1 $-1 $127 $52 #
plane-surface $-1 38.49736759039704 -21.31464542382195 4.1195161566317182 0 -0.6018150307709319 0.79863550430605224 1 0 0 forward_v I I I I #
face $-1 $128 $129 $42 $-1 $130 forward single #
loop $-1 $131 $132 $53 #
cone-surface $-1 35.378243957751046 -17.772968442426617 5.2591599411567795 0 0.6018150307709319 -0.79863550430605224 1 0 0 1 I I 0 1 1 forward I I I I #
face $-1 $133 $134 $43 $-1 $135 forward single #
loop $-1 $136 $137 $54 #
cone-surface $-1 41.616491223043049 -17.772968442426617 5.2591599411567795 0 0.6018150307709319 -0.79863550430605224 1 0 0 1 I I 0 1 1 forward I I I I #
face $-1 $138 $139 $33 $-1 $140 reversed single #
loop $-1 $-1 $141 $55 #
plane-surface $-1 0 0 -8.3495100029466105 0 0 1 1 0 0 forward_v I I I I #
coedge $-1 $142 $143 $144 $145 forward $56 $-1 #
face $-1 $146 $147 $34 $-1 $148 reversed single #
loop $-1 $-1 $149 $58 #
plane-surface $-1 -41.107468354586082 0 -4.275800144325939 0 0 1 1 0 0 forward_v I I I I #
coedge $-1 $150 $151 $152 $153 forward $59 $-1 #
face $-1 $154 $155 $35 $-1 $156 reversed single #
loop $-1 $-1 $157 $61 #
plane-surface $-1 -8.4014821661288934 5.7112475815301877e-007 40.498320591865053 0 0.86602541151947299 0.49999998660252726 1 0 0 forward_v I I I I #
coedge $-1 $158 $159 $160 $161 reversed $62 $-1 #
face $-1 $-1 $162 $36 $-1 $163 forward single #
loop $-1 $164 $165 $64 #
cone-surface $-1 -10.963993877188905 16.723928130499097 4.1093119890366889 0 -0.86602541151947299 -0.49999998660252726 0.5 0 0 1 I I -0.70710678118654724 0.70710678118654791 0.5 forward I I I I #
loop $-1 $-1 $166 $47 #
coedge $-1 $104 $104 $167 $168 reversed $65 $-1 #
face $-1 $-1 $169 $37 $-1 $170 forward single #
loop $-1 $171 $172 $67 #
cone-surface $-1 -5.8389704550688677 16.723928130499097 4.1093119890366889 0 -0.86602541151947299 -0.49999998660252726 0.5 0 0 1 I I -0.70710678118654724 0.70710678118654791 0.5 forward I I I I #
loop $-1 $-1 $173 $48 #
coedge $-1 $109 $109 $174 $175 reversed $68 $-1 #
face $-1 $176 $177 $38 $-1 $178 reversed single #
loop $-1 $-1 $179 $70 #
plane-surface $-1 32.705986188457196 5.7112475815301877e-007 40.498320591865053 0 0.86602541151947299 0.49999998660252726 1 0 0 forward_v I I I I #
coedge $-1 $180 $181 $182 $183 reversed $71 $-1 #
face $-1 $-1 $184 $39 $-1 $185 forward single #
loop $-1 $186 $187 $73 #
cone-surface $-1 30.143474477397184 16.723928130499097 4.1093119890366889 0 -0.86602541151947299 -0.49999998660252726 0.5 0 0 1 I I -0.70710678118654724 0.70710678118654791 0.5 forward I I I I #
loop $-1 $-1 $188 $50 #
coedge $-1 $118 $118 $189 $190 reversed $74 $-1 #
face $-1 $-1 $191 $40 $-1 $192 forward single #
loop $-1 $193 $194 $76 #
cone-surface $-1 35.268497899517207 16.723928130499097 4.1093119890366889 0 -0.86602541151947299 -0.49999998660252726 0.5 0 0 1 I I -0.70710678118654724 0.70710678118654791 0.5 forward I I I I #
loop $-1 $-1 $195 $51 #
coedge $-1 $123 $123 $196 $197 reversed $77 $-1 #
face $-1 $198 $199 $41 $-1 $200 reversed single #
loop $-1 $-1 $201 $79 #
plane-surface $-1 31.219412447556373 -76.411199942327528 77.23511206829491 1 0 0 0 0.6018150307709319 -0.79863550430605224 forward_v I I I I #
coedge $-1 $202 $203 $204 $205 reversed $80 $-1 #
face $-1 $-1 $206 $42 $-1 $207 forward single #
loop $-1 $208 $209 $82 #
cone-surface $-1 35.378243957751046 -16.737079604555852 3.884489050371366 0 0.6018150307709319 -0.79863550430605224 0.5 0 0 1 I I -0.70710678118654746 0.70710678118654746 0.5 forward I I I I #
loop $-1 $-1 $210 $53 #
coedge $-1 $132 $132 $211 $212 reversed $83 $-1 #
face $-1 $-1 $213 $43 $-1 $214 forward single #
loop $-1 $215 $216 $85 #
cone-surface $-1 41.616491223043049 -16.737079604555852 3.884489050371366 0 0.6018150307709319 -0.79863550430605224 0.5 0 0 1 I I -0.70710678118654746 0.70710678118654746 0.5 forward I I I I #
loop $-1 $-1 $217 $54 #
coedge $-1 $137 $137 $218 $219 reversed $86 $-1 #
face $-1 $220 $221 $33 $-1 $222 reversed single #
loop $-1 $-1 $223 $88 #
plane-surface $-1 0 -21.314645423821965 0 0 1 0 0 0 1 forward_v I I I I #
coedge $-1 $224 $225 $226 $227 forward $89 $-1 #
coedge $-1 $228 $91 $229 $230 forward $56 $-1 #
coedge $-1 $91 $228 $231 $232 forward $56 $-1 #
coedge $-1 $233 $234 $91 $145 reversed $235 $-1 #
edge $-1 $236 -21.314645423821965 $237 21.314645423821965 $144 $238 forward 7 unknown #
face $-1 $239 $240 $34 $-1 $241 reversed single #
loop $-1 $-1 $242 $92 #
plane-surface $-1 -36.439613975934456 0 -2.775800144325939 -1 0 0 0 0 1 forward_v I I I I #
coedge $-1 $243 $244 $245 $246 forward $93 $-1 #
coedge $-1 $247 $95 $248 $249 reversed $59 $-1 #
coedge $-1 $95 $247 $250 $251 reversed $59 $-1 #
coedge $-1 $242 $252 $95 $153 reversed $147 $-1 #
edge $-1 $253 -21.314645423821965 $254 21.314645423821965 $152 $255 forward 7 unknown #
face $-1 $256 $257 $35 $-1 $258 forward single #
loop $-1 $-1 $259 $96 #
plane-surface $-1 -2.4222881736555202 79.285185986102505 86.273642098555484 -1 0 0 0 0.86602541151947299 0.49999998660252726 forward_v I I I I #
coedge $-1 $260 $261 $262 $263 reversed $97 $-1 #
coedge $-1 $159 $99 $264 $265 reversed $62 $-1 #
coedge $-1 $99 $158 $260 $266 reversed $62 $-1 #
coedge $-1 $262 $267 $99 $161 forward $257 $-1 #
edge $-1 $268 18.327947569229288 $269 21.081468637413888 $160 $270 forward 7 unknown #
loop $-1 $-1 $167 $100 #
plane-surface $-1 -8.4014821661288934 5.7112475815301877e-007 40.498320591865053 0 0.86602541151947299 0.49999998660252726 1 0 0 forward_v I I I I #
loop $-1 $-1 $271 $64 #
coedge $-1 $165 $165 $166 $272 reversed $101 $-1 #
coedge $-1 $166 $166 $165 $272 forward $103 $-1 #
coedge $-1 $167 $167 $104 $168 forward $162 $-1 #
edge $-1 $273 -1.0623969049353655e-015 $273 6.2831853071795996 $167 $274 forward 7 unknown #
loop $-1 $-1 $174 $105 #
plane-surface $-1 -8.4014821661288934 5.7112475815301877e-007 40.498320591865053 0 0.86602541151947299 0.49999998660252726 1 0 0 forward_v I I I I #
loop $-1 $-1 $275 $67 #
coedge $-1 $172 $172 $173 $276 reversed $106 $-1 #
coedge $-1 $173 $173 $172 $276 forward $108 $-1 #
coedge $-1 $174 $174 $109 $175 forward $169 $-1 #
edge $-1 $277 -1.0623969049353655e-015 $277 6.2831853071795996 $174 $278 forward 7 unknown #
face $-1 $279 $280 $38 $-1 $281 forward single #
loop $-1 $-1 $282 $110 #
plane-surface $-1 38.685180180930573 79.285185986102505 86.273642098555484 -1 0 0 0 0.86602541151947299 0.49999998660252726 forward_v I I I I #
coedge $-1 $283 $284 $285 $286 reversed $111 $-1 #
coedge $-1 $181 $113 $287 $288 reversed $71 $-1 #
coedge $-1 $113 $180 $283 $289 reversed $71 $-1 #
coedge $-1 $285 $290 $113 $183 forward $280 $-1 #
edge $-1 $291 18.327947569229288 $292 21.081468637413888 $182 $293 forward 7 unknown #
loop $-1 $-1 $189 $114 #
plane-surface $-1 32.705986188457196 5.7112475815301877e-007 40.498320591865053 0 0.86602541151947299 0.49999998660252726 1 0 0 forward_v I I I I #
loop $-1 $-1 $294 $73 #
coedge $-1 $187 $187 $188 $295 reversed $115 $-1 #
coedge $-1 $188 $188 $187 $295 forward $117 $-1 #
coedge $-1 $189 $189 $118 $190 forward $184 $-1 #
edge $-1 $296 -1.0623969049353655e-015 $296 6.2831853071795996 $189 $297 forward 7 unknown #
loop $-1 $-1 $196 $119 #
plane-surface $-1 32.705986188457196 5.7112475815301877e-007 40.498320591865053 0 0.86602541151947299 0.49999998660252726 1 0 0 forward_v I I I I #
loop $-1 $-1 $298 $76 #
coedge $-1 $194 $194 $195 $299 reversed $120 $-1 #
coedge $-1 $195 $195 $194 $299 forward $122 $-1 #
coedge $-1 $196 $196 $123 $197 forward $191 $-1 #
edge $-1 $300 -1.0623969049353655e-015 $300 6.2831853071795996 $196 $301 forward 7 unknown #
face $-1 $302 $303 $41 $-1 $304 forward single #
loop $-1 $-1 $305 $124 #
plane-surface $-1 0 -21.314645423821965 0 0 1 0 0 0 1 forward_v I I I I #
coedge $-1 $306 $307 $308 $309 reversed $125 $-1 #
coedge $-1 $310 $127 $311 $312 reversed $80 $-1 #
coedge $-1 $127 $310 $306 $313 forward $80 $-1 #
coedge $-1 $308 $314 $127 $205 forward $303 $-1 #
edge $-1 $315 -26.526638938039188 $316 -11.970728652357852 $204 $317 forward 7 unknown #
loop $-1 $-1 $211 $128 #
plane-surface $-1 38.49736759039704 -21.31464542382195 4.1195161566317182 0 -0.6018150307709319 0.79863550430605224 1 0 0 forward_v I I I I #
loop $-1 $-1 $318 $82 #
coedge $-1 $209 $209 $210 $319 reversed $129 $-1 #
coedge $-1 $210 $210 $209 $319 forward $131 $-1 #
coedge $-1 $211 $211 $132 $212 forward $206 $-1 #
edge $-1 $320 7.3958291473520646e-016 $320 6.2831853071796013 $211 $321 forward 7 unknown #
loop $-1 $-1 $218 $133 #
plane-surface $-1 38.49736759039704 -21.31464542382195 4.1195161566317182 0 -0.6018150307709319 0.79863550430605224 1 0 0 forward_v I I I I #
loop $-1 $-1 $322 $85 #
coedge $-1 $216 $216 $217 $323 reversed $134 $-1 #
coedge $-1 $217 $217 $216 $323 forward $136 $-1 #
coedge $-1 $218 $218 $137 $219 forward $213 $-1 #
edge $-1 $324 7.3958291473520646e-016 $324 6.2831853071796013 $218 $325 forward 7 unknown #
face $-1 $326 $327 $33 $-1 $328 reversed single #
loop $-1 $-1 $329 $138 #
plane-surface $-1 -45.775322733237708 0 0 1 0 0 0 0 -1 forward_v I I I I #
coedge $-1 $330 $231 $331 $332 forward $139 $-1 #
coedge $-1 $333 $141 $330 $334 forward $89 $-1 #
coedge $-1 $141 $333 $335 $336 forward $89 $-1 #
coedge $-1 $234 $233 $141 $227 reversed $235 $-1 #
edge $-1 $337 -21.314645423821965 $338 21.314645423821965 $226 $339 forward 7 unknown #
coedge $-1 $143 $142 $340 $341 forward $56 $-1 #
coedge $-1 $342 $343 $142 $230 reversed $327 $-1 #
edge $-1 $237 -45.775322733237708 $344 45.775322733237708 $229 $345 forward 7 unknown #
coedge $-1 $223 $346 $143 $232 reversed $139 $-1 #
edge $-1 $347 -45.775322733237708 $236 45.775322733237708 $231 $348 forward 7 unknown #
coedge $-1 $226 $144 $346 $349 forward $235 $-1 #
coedge $-1 $144 $226 $342 $350 reversed $235 $-1 #
loop $-1 $-1 $233 $326 #
vertex $-1 $145 $351 #
vertex $-1 $145 $352 #
straight-curve $-1 45.775322733237708 0 8.3495100029466105 0 1 0 I I #
face $-1 $353 $354 $34 $-1 $355 reversed single #
loop $-1 $-1 $356 $146 #
plane-surface $-1 0 -21.314645423821965 0 0 1 0 0 0 1 forward_v I I I I #
coedge $-1 $245 $152 $357 $358 reversed $147 $-1 #
coedge $-1 $359 $149 $356 $360 reversed $93 $-1 #
coedge $-1 $149 $359 $361 $362 reversed $93 $-1 #
coedge $-1 $252 $242 $149 $246 reversed $147 $-1 #
edge $-1 $363 -21.314645423821965 $364 21.314645423821965 $245 $365 forward 7 unknown #
coedge $-1 $151 $150 $366 $367 reversed $59 $-1 #
coedge $-1 $368 $369 $150 $249 forward $370 $-1 #
edge $-1 $371 -25.221588555944667 $254 -15.885879798641415 $248 $372 forward 7 unknown #
coedge $-1 $373 $357 $151 $251 forward $240 $-1 #
edge $-1 $253 15.885879798641415 $374 25.221588555944667 $250 $375 forward 7 unknown #
coedge $-1 $152 $245 $368 $376 reversed $147 $-1 #
vertex $-1 $251 $377 #
vertex $-1 $249 $378 #
straight-curve $-1 -36.439613975934456 0 -1.275800144325939 0 1 0 I I #
face $-1 $-1 $379 $35 $-1 $380 reversed single #
loop $-1 $-1 $160 $154 #
plane-surface $-1 0 0 8.3495100029466105 0 0 1 1 0 0 forward_v I I I I #
coedge $-1 $381 $382 $383 $384 reversed $155 $-1 #
coedge $-1 $385 $157 $159 $266 forward $97 $-1 #
coedge $-1 $157 $385 $381 $386 forward $97 $-1 #
coedge $-1 $383 $160 $157 $263 forward $257 $-1 #
edge $-1 $269 -10.17993507553782 $387 1.7784529094089265 $262 $388 forward 7 unknown #
coedge $-1 $389 $390 $158 $265 forward $379 $-1 #
edge $-1 $391 -39.556549606526836 $268 -34.787311046331133 $264 $392 forward 7 unknown #
edge $-1 $269 37.122248563713839 $391 42.629290847643937 $159 $393 forward 7 unknown #
coedge $-1 $160 $383 $389 $394 forward $257 $-1 #
vertex $-1 $265 $395 #
vertex $-1 $161 $396 #
straight-curve $-1 -14.380676158602267 39.642592993051252 8.3495100029466087 0 -1 0 I I #
coedge $-1 $271 $271 $-1 $397 reversed $164 $-1 #
edge $-1 $398 0 $398 6.2831853071796004 $165 $399 forward 7 unknown #
vertex $-1 $168 $400 #
ellipse-curve $-1 -10.963993877188905 19.937884889729663 5.9648907228487635 0 0.86602541151947299 0.49999998660252726 1 0 0 1 I I #
coedge $-1 $275 $275 $-1 $401 reversed $171 $-1 #
edge $-1 $402 0 $402 6.2831853071796004 $172 $403 forward 7 unknown #
vertex $-1 $175 $404 #
ellipse-curve $-1 -5.8389704550688677 19.937884889729663 5.9648907228487635 0 0.86602541151947299 0.49999998660252726 1 0 0 1 I I #
face $-1 $-1 $405 $38 $-1 $406 reversed single #
loop $-1 $-1 $182 $176 #
plane-surface $-1 0 0 8.3495100029466105 0 0 1 1 0 0 forward_v I I I I #
coedge $-1 $407 $408 $409 $410 reversed $177 $-1 #
coedge $-1 $411 $179 $181 $289 forward $111 $-1 #
coedge $-1 $179 $411 $407 $412 forward $111 $-1 #
coedge $-1 $409 $182 $179 $286 forward $280 $-1 #
edge $-1 $292 10.373799101755225 $413 22.332187086701975 $285 $414 forward 7 unknown #
coedge $-1 $415 $416 $180 $288 forward $405 $-1 #
edge $-1 $417 -39.556549606526836 $291 -34.787311046331133 $287 $418 forward 7 unknown #
edge $-1 $292 37.122248563713839 $417 42.629290847643937 $181 $419 forward 7 unknown #
coedge $-1 $182 $409 $415 $420 forward $280 $-1 #
vertex $-1 $183 $421 #
vertex $-1 $183 $422 #
straight-curve $-1 26.726792195983823 39.642592993051252 8.3495100029466087 0 -1 0 I I #
coedge $-1 $294 $294 $-1 $423 reversed $186 $-1 #
edge $-1 $424 0 $424 6.2831853071796004 $187 $425 forward 7 unknown #
vertex $-1 $190 $426 #
ellipse-curve $-1 30.143474477397184 19.937884889729663 5.9648907228487635 0 0.86602541151947299 0.49999998660252726 1 0 0 1 I I #
coedge $-1 $298 $298 $-1 $427 reversed $193 $-1 #
edge $-1 $428 0 $428 6.2831853071796004 $194 $429 forward 7 unknown #
vertex $-1 $197 $430 #
ellipse-curve $-1 35.268497899517207 19.937884889729663 5.9648907228487635 0 0.86602541151947299 0.49999998660252726 1 0 0 1 I I #
face $-1 $-1 $431 $41 $-1 $432 reversed single #
loop $-1 $-1 $308 $198 #
plane-surface $-1 0 0 8.3495100029466105 0 0 1 1 0 0 forward_v I I I I #
coedge $-1 $433 $434 $307 $435 forward $199 $-1 #
coedge $-1 $307 $201 $203 $313 reversed $125 $-1 #
coedge $-1 $201 $306 $305 $435 reversed $125 $-1 #
coedge $-1 $436 $204 $201 $309 forward $303 $-1 #
edge $-1 $316 -22.504345865161923 $437 -16.890954547341799 $308 $438 forward 7 unknown #
coedge $-1 $203 $202 $433 $439 reversed $80 $-1 #
coedge $-1 $440 $441 $202 $312 forward $431 $-1 #
edge $-1 $442 -7.2717229272970485 $315 -0.24299544454170369 $311 $443 forward 7 unknown #
edge $-1 $444 -1.7763522597878294e-014 $316 7.0287274827553281 $306 $445 forward 7 unknown #
coedge $-1 $204 $436 $440 $446 forward $303 $-1 #
vertex $-1 $312 $447 #
vertex $-1 $205 $448 #
straight-curve $-1 19.24868379519852 -15.701254106001841 8.3495100029466105 -1 0 0 I I #
coedge $-1 $318 $318 $-1 $449 reversed $208 $-1 #
edge $-1 $450 0 $450 6.2831853071796004 $209 $451 forward 7 unknown #
vertex $-1 $212 $452 #
ellipse-curve $-1 35.378243957751046 -18.507949764911906 6.2345130797891564 0 -0.6018150307709319 0.79863550430605224 1 0 0 1 I I #
coedge $-1 $322 $322 $-1 $453 reversed $215 $-1 #
edge $-1 $454 0 $454 6.2831853071796004 $216 $455 forward 7 unknown #
vertex $-1 $219 $456 #
ellipse-curve $-1 41.616491223043049 -18.507949764911906 6.2345130797891564 0 -0.6018150307709319 0.79863550430605224 1 0 0 1 I I #
face $-1 $-1 $235 $33 $-1 $457 reversed single #
loop $-1 $-1 $342 $220 #
plane-surface $-1 0 21.314645423821965 0 0 -1 0 0 0 -1 forward_v I I I I #
coedge $-1 $458 $340 $343 $459 forward $221 $-1 #
coedge $-1 $346 $223 $224 $334 reversed $139 $-1 #
coedge $-1 $340 $458 $223 $332 reversed $221 $-1 #
edge $-1 $347 -8.3495100029466105 $460 8.3495100029466105 $331 $461 forward 7 unknown #
coedge $-1 $225 $224 $458 $462 forward $89 $-1 #
edge $-1 $338 -45.775322733237708 $460 45.775322733237708 $330 $463 forward 7 unknown #
coedge $-1 $343 $342 $225 $336 reversed $327 $-1 #
edge $-1 $464 -45.775322733237708 $337 45.775322733237708 $335 $465 forward 7 unknown #
vertex $-1 $227 $466 #
vertex $-1 $349 $467 #
straight-curve $-1 45.775322733237708 0 -8.3495100029466105 0 -1 0 I I #
coedge $-1 $329 $331 $228 $341 reversed $221 $-1 #
edge $-1 $344 -21.314645423821965 $347 21.314645423821965 $340 $468 forward 7 unknown #
coedge $-1 $335 $229 $234 $350 forward $327 $-1 #
coedge $-1 $229 $335 $329 $459 reversed $327 $-1 #
vertex $-1 $230 $469 #
straight-curve $-1 0 21.314645423821965 8.3495100029466105 -1 0 0 I I #
coedge $-1 $231 $330 $233 $349 reversed $139 $-1 #
vertex $-1 $341 $470 #
straight-curve $-1 0 -21.314645423821965 8.3495100029466105 1 0 0 I I #
edge $-1 $236 -8.3495100029466105 $338 8.3495100029466105 $233 $471 forward 7 unknown #
edge $-1 $237 -8.3495100029466105 $337 8.3495100029466105 $234 $472 forward 7 unknown #
point $-1 45.775322733237708 -21.314645423821965 8.3495100029466105 #
point $-1 45.775322733237708 21.314645423821965 8.3495100029466105 #
face $-1 $-1 $370 $34 $-1 $473 reversed single #
loop $-1 $-1 $474 $239 #
plane-surface $-1 -45.775322733237708 0 0 1 0 0 0 0 -1 forward_v I I I I #
coedge $-1 $357 $373 $243 $360 forward $240 $-1 #
coedge $-1 $250 $356 $242 $358 forward $240 $-1 #
edge $-1 $364 -2.8879000721629695 $253 0.11209992783703049 $357 $475 forward 7 unknown #
coedge $-1 $244 $243 $474 $476 reversed $93 $-1 #
edge $-1 $477 -25.221588555944667 $364 -15.885879798641415 $356 $478 forward 7 unknown #
coedge $-1 $369 $368 $244 $362 forward $370 $-1 #
edge $-1 $363 15.885879798641415 $479 25.221588555944667 $361 $480 forward 7 unknown #
vertex $-1 $362 $481 #
vertex $-1 $360 $482 #
straight-curve $-1 -36.439613975934456 0 -4.275800144325939 0 -1 0 I I #
coedge $-1 $483 $484 $247 $367 forward $354 $-1 #
edge $-1 $374 -21.314645423821965 $371 21.314645423821965 $366 $485 forward 7 unknown #
coedge $-1 $361 $248 $252 $376 forward $370 $-1 #
coedge $-1 $248 $361 $483 $486 reversed $370 $-1 #
loop $-1 $-1 $361 $353 #
vertex $-1 $486 $487 #
straight-curve $-1 -20.553734177293041 21.314645423821965 -1.275800144325939 1 0 0 I I #
coedge $-1 $356 $250 $484 $488 forward $240 $-1 #
vertex $-1 $488 $489 #
straight-curve $-1 -20.553734177293041 -21.314645423821965 -1.275800144325939 -1 0 0 I I #
edge $-1 $254 -0.11209992783703049 $363 2.8879000721629695 $368 $490 forward 7 unknown #
point $-1 -36.439613975934456 -21.314645423821965 -1.275800144325939 #
point $-1 -36.439613975934456 21.314645423821965 -1.275800144325939 #
loop $-1 $-1 $264 $256 #
plane-surface $-1 0 21.314645423821965 0 0 -1 0 0 0 -1 forward_v I I I I #
coedge $-1 $382 $259 $261 $386 reversed $155 $-1 #
coedge $-1 $259 $381 $491 $492 reversed $155 $-1 #
coedge $-1 $267 $262 $259 $384 forward $257 $-1 #
edge $-1 $387 -21.081468637413888 $493 -18.327947569229288 $383 $494 forward 7 unknown #
coedge $-1 $261 $260 $390 $495 reversed $97 $-1 #
edge $-1 $496 -42.629290847643937 $387 -37.122248563713839 $381 $497 forward 7 unknown #
vertex $-1 $263 $498 #
straight-curve $-1 -4.2007410830644467 18.561124355637364 8.3495100029466123 1 0 0 I I #
coedge $-1 $491 $264 $267 $394 reversed $379 $-1 #
coedge $-1 $264 $491 $385 $495 forward $379 $-1 #
vertex $-1 $265 $499 #
straight-curve $-1 -14.380676158602267 21.314645423821965 43.136821049277742 0 0 1 I I #
straight-curve $-1 -14.380676158602267 5.7112475815301877e-007 40.498320591865053 0 0.49999998660252726 -0.86602541151947299 I I #
edge $-1 $493 2.4222881736555202 $268 14.380676158602267 $389 $500 forward 7 unknown #
point $-1 -14.380676158602267 21.314645423821965 8.3495100029466105 #
point $-1 -14.380676158602267 18.561124355637364 8.3495100029466087 #
edge $-1 $501 1 $501 0 $271 $-1 forward 7 unknown #
vertex $-1 $272 $502 #
ellipse-curve $-1 -10.963993877188905 17.156940836258833 4.3593119823379531 0 0.86602541151947299 0.49999998660252726 1 0 0 1 I I #
point $-1 -9.9639938771889049 19.93788488972967 5.9648907228487689 #
edge $-1 $503 1 $503 0 $275 $-1 forward 7 unknown #
vertex $-1 $276 $504 #
ellipse-curve $-1 -5.8389704550688677 17.156940836258833 4.3593119823379531 0 0.86602541151947299 0.49999998660252726 1 0 0 1 I I #
point $-1 -4.8389704550688677 19.93788488972967 5.9648907228487689 #
loop $-1 $-1 $287 $279 #
plane-surface $-1 0 21.314645423821965 0 0 -1 0 0 0 -1 forward_v I I I I #
coedge $-1 $408 $282 $284 $412 reversed $177 $-1 #
coedge $-1 $282 $407 $505 $506 reversed $177 $-1 #
coedge $-1 $290 $285 $282 $410 forward $280 $-1 #
edge $-1 $413 -21.081468637413888 $507 -18.327947569229288 $409 $508 forward 7 unknown #
coedge $-1 $284 $283 $416 $509 reversed $111 $-1 #
edge $-1 $510 -42.629290847643937 $413 -37.122248563713839 $407 $511 forward 7 unknown #
vertex $-1 $286 $512 #
straight-curve $-1 16.352993094228598 18.561124355637364 8.3495100029466123 1 0 0 I I #
coedge $-1 $505 $287 $290 $420 reversed $405 $-1 #
coedge $-1 $287 $505 $411 $509 forward $405 $-1 #
vertex $-1 $288 $513 #
straight-curve $-1 26.726792195983823 21.314645423821965 43.136821049277742 0 0 1 I I #
straight-curve $-1 26.726792195983823 5.7112475815301877e-007 40.498320591865053 0 0.49999998660252726 -0.86602541151947299 I I #
edge $-1 $507 -38.685180180930573 $291 -26.726792195983823 $415 $514 forward 7 unknown #
point $-1 26.726792195983823 21.314645423821965 8.3495100029466105 #
point $-1 26.726792195983823 18.561124355637364 8.3495100029466087 #
edge $-1 $515 1 $515 0 $294 $-1 forward 7 unknown #
vertex $-1 $295 $516 #
ellipse-curve $-1 30.143474477397184 17.156940836258833 4.3593119823379531 0 0.86602541151947299 0.49999998660252726 1 0 0 1 I I #
point $-1 31.143474477397184 19.93788488972967 5.9648907228487689 #
edge $-1 $517 1 $517 0 $298 $-1 forward 7 unknown #
vertex $-1 $299 $518 #
ellipse-curve $-1 35.268497899517207 17.156940836258833 4.3593119823379531 0 0.86602541151947299 0.49999998660252726 1 0 0 1 I I #
point $-1 36.268497899517207 19.93788488972967 5.9648907228487689 #
loop $-1 $-1 $311 $302 #
plane-surface $-1 45.775322733237708 0 0 -1 0 0 0 0 1 forward_v I I I I #
coedge $-1 $519 $305 $310 $439 forward $199 $-1 #
coedge $-1 $305 $519 $436 $520 reversed $199 $-1 #
edge $-1 $437 30.268046031200846 $444 34.498039877515751 $305 $521 forward 7 unknown #
coedge $-1 $314 $308 $434 $520 forward $303 $-1 #
vertex $-1 $520 $522 #
straight-curve $-1 31.219412447556373 -38.205599971163764 8.3495100029466087 0 -1 0 I I #
edge $-1 $444 11.970728652357852 $442 26.526638938039188 $433 $523 forward 7 unknown #
coedge $-1 $441 $311 $314 $446 reversed $431 $-1 #
coedge $-1 $311 $440 $519 $524 forward $431 $-1 #
vertex $-1 $439 $525 #
straight-curve $-1 45.775322733237708 -15.507189316606205 8.4957483138806733 0 0.79863550430605224 0.6018150307709319 I I #
vertex $-1 $439 $526 #
straight-curve $-1 31.219412447556373 -21.31464542382195 4.1195161566317182 0 0.79863550430605224 0.6018150307709319 I I #
edge $-1 $527 -21.314645423821965 $315 -15.701254106001841 $440 $528 forward 7 unknown #
point $-1 45.775322733237708 -15.701254106001841 8.3495100029466105 #
point $-1 31.219412447556373 -15.701254106001841 8.3495100029466105 #
edge $-1 $529 1 $529 0 $318 $-1 forward 7 unknown #
vertex $-1 $319 $530 #
ellipse-curve $-1 35.378243957751046 -17.037987119941317 4.2838068025243921 0 -0.6018150307709319 0.79863550430605224 1 0 0 1 I I #
point $-1 36.378243957751046 -18.507949764911913 6.234513079789167 #
edge $-1 $531 1 $531 0 $322 $-1 forward 7 unknown #
vertex $-1 $323 $532 #
ellipse-curve $-1 41.616491223043049 -17.037987119941317 4.2838068025243921 0 -0.6018150307709319 0.79863550430605224 1 0 0 1 I I #
point $-1 42.616491223043049 -18.507949764911913 6.234513079789167 #
plane-surface $-1 45.775322733237708 0 0 -1 0 0 0 0 1 forward_v I I I I #
coedge $-1 $331 $329 $333 $462 reversed $221 $-1 #
edge $-1 $344 -8.3495100029466105 $464 8.3495100029466105 $343 $533 forward 7 unknown #
vertex $-1 $462 $534 #
straight-curve $-1 -45.775322733237708 -21.314645423821965 0 0 0 -1 I I #
edge $-1 $460 -21.314645423821965 $464 21.314645423821965 $458 $535 forward 7 unknown #
straight-curve $-1 0 -21.314645423821965 -8.3495100029466105 -1 0 0 I I #
vertex $-1 $336 $536 #
straight-curve $-1 0 21.314645423821965 -8.3495100029466105 1 0 0 I I #
point $-1 45.775322733237708 21.314645423821965 -8.3495100029466105 #
point $-1 45.775322733237708 -21.314645423821965 -8.3495100029466105 #
straight-curve $-1 -45.775322733237708 0 8.3495100029466105 0 -1 0 I I #
point $-1 -45.775322733237708 21.314645423821965 8.3495100029466105 #
point $-1 -45.775322733237708 -21.314645423821965 8.3495100029466105 #
straight-curve $-1 45.775322733237708 -21.314645423821965 0 0 0 -1 I I #
straight-curve $-1 45.775322733237708 21.314645423821965 0 0 0 -1 I I #
plane-surface $-1 0 21.314645423821965 0 0 -1 0 0 0 -1 forward_v I I I I #
coedge $-1 $484 $483 $359 $476 forward $354 $-1 #
straight-curve $-1 -36.439613975934456 -21.314645423821965 -1.3879000721629695 0 0 1 I I #
edge $-1 $479 -21.314645423821965 $477 21.314645423821965 $474 $537 forward 7 unknown #
vertex $-1 $360 $538 #
straight-curve $-1 -20.553734177293041 -21.314645423821965 -4.275800144325939 1 0 0 I I #
vertex $-1 $362 $539 #
straight-curve $-1 -20.553734177293041 21.314645423821965 -4.275800144325939 -1 0 0 I I #
point $-1 -36.439613975934456 21.314645423821965 -4.275800144325939 #
point $-1 -36.439613975934456 -21.314645423821965 -4.275800144325939 #
coedge $-1 $474 $366 $369 $486 forward $354 $-1 #
coedge $-1 $366 $474 $373 $488 reversed $354 $-1 #
straight-curve $-1 -45.775322733237708 0 -1.275800144325939 0 1 0 I I #
edge $-1 $371 1.275800144325939 $479 4.275800144325939 $369 $540 forward 7 unknown #
point $-1 -45.775322733237708 21.314645423821965 -1.275800144325939 #
edge $-1 $374 1.275800144325939 $477 4.275800144325939 $484 $541 forward 7 unknown #
point $-1 -45.775322733237708 -21.314645423821965 -1.275800144325939 #
straight-curve $-1 -36.439613975934456 21.314645423821965 -1.3879000721629695 0 0 -1 I I #
coedge $-1 $390 $389 $382 $492 forward $379 $-1 #
edge $-1 $493 34.787311046331133 $496 39.556549606526836 $491 $542 forward 7 unknown #
vertex $-1 $394 $543 #
straight-curve $-1 -2.4222881736555202 39.642592993051252 8.3495100029466087 0 1 0 I I #
edge $-1 $496 -1.7784529094089265 $391 10.17993507553782 $390 $544 forward 7 unknown #
vertex $-1 $495 $545 #
straight-curve $-1 -2.4222881736555202 5.7112475815301877e-007 40.498320591865053 0 -0.49999998660252726 0.86602541151947299 I I #
point $-1 -2.4222881736555202 18.561124355637364 8.3495100029466087 #
point $-1 -14.380676158602267 21.314645423821965 3.5802714427509059 #
straight-curve $-1 0 21.314645423821965 8.3495100029466105 -1 0 0 I I #
vertex $-1 $397 $546 #
point $-1 -9.9639938771889049 17.156940836258833 4.3593119823379531 #
vertex $-1 $401 $547 #
point $-1 -4.8389704550688677 17.156940836258833 4.3593119823379531 #
coedge $-1 $416 $415 $408 $506 forward $405 $-1 #
edge $-1 $507 34.787311046331133 $510 39.556549606526836 $505 $548 forward 7 unknown #
vertex $-1 $420 $549 #
straight-curve $-1 38.685180180930573 39.642592993051252 8.3495100029466087 0 1 0 I I #
edge $-1 $510 -22.332187086701975 $417 -10.373799101755225 $416 $550 forward 7 unknown #
vertex $-1 $509 $551 #
straight-curve $-1 38.685180180930573 5.7112475815301877e-007 40.498320591865053 0 -0.49999998660252726 0.86602541151947299 I I #
point $-1 38.685180180930573 18.561124355637364 8.3495100029466087 #
point $-1 26.726792195983823 21.314645423821965 3.5802714427509059 #
straight-curve $-1 0 21.314645423821965 8.3495100029466105 -1 0 0 I I #
vertex $-1 $423 $552 #
point $-1 31.143474477397184 17.156940836258833 4.3593119823379531 #
vertex $-1 $427 $553 #
point $-1 36.268497899517207 17.156940836258833 4.3593119823379531 #
coedge $-1 $434 $433 $441 $524 reversed $199 $-1 #
edge $-1 $437 31.219412447556373 $527 45.775322733237708 $434 $554 forward 7 unknown #
straight-curve $-1 31.219412447556373 -21.314645423821965 38.617556034147455 0 0 -1 I I #
point $-1 31.219412447556373 -21.314645423821965 8.3495100029466105 #
straight-curve $-1 19.24868379519852 -21.314645423821965 4.1195161566317093 1 0 0 I I #
edge $-1 $527 -8.3495100029466105 $442 -4.1195161566317076 $441 $555 forward 7 unknown #
point $-1 45.775322733237708 -21.314645423821965 4.1195161566317076 #
point $-1 31.219412447556373 -21.314645423821965 4.1195161566317076 #
vertex $-1 $446 $556 #
straight-curve $-1 45.775322733237708 0 8.3495100029466105 0 1 0 I I #
vertex $-1 $449 $557 #
point $-1 36.378243957751046 -17.037987119941317 4.2838068025243921 #
vertex $-1 $453 $558 #
point $-1 42.616491223043049 -17.037987119941317 4.2838068025243921 #
straight-curve $-1 -45.775322733237708 21.314645423821965 0 0 0 -1 I I #
point $-1 -45.775322733237708 -21.314645423821965 -8.3495100029466105 #
straight-curve $-1 -45.775322733237708 0 -8.3495100029466105 0 1 0 I I #
point $-1 -45.775322733237708 21.314645423821965 -8.3495100029466105 #
straight-curve $-1 -45.775322733237708 0 -4.275800144325939 0 -1 0 I I #
point $-1 -45.775322733237708 -21.314645423821965 -4.275800144325939 #
point $-1 -45.775322733237708 21.314645423821965 -4.275800144325939 #
straight-curve $-1 -45.775322733237708 21.314645423821965 0 0 0 -1 I I #
straight-curve $-1 -45.775322733237708 -21.314645423821965 0 0 0 -1 I I #
straight-curve $-1 -2.4222881736555202 21.314645423821965 43.136821049277742 0 0 -1 I I #
point $-1 -2.4222881736555202 21.314645423821965 8.3495100029466105 #
straight-curve $-1 -4.2007410830644467 21.314645423821965 3.5802714427509059 -1 0 0 I I #
point $-1 -2.4222881736555202 21.314645423821965 3.5802714427509059 #
point $-1 -10.963993877188905 16.29091542473936 3.8593119957354252 #
point $-1 -5.8389704550688677 16.29091542473936 3.8593119957354252 #
straight-curve $-1 38.685180180930573 21.314645423821965 43.136821049277742 0 0 -1 I I #
point $-1 38.685180180930573 21.314645423821965 8.3495100029466105 #
straight-curve $-1 16.352993094228598 21.314645423821965 3.5802714427509059 -1 0 0 I I #
point $-1 38.685180180930573 21.314645423821965 3.5802714427509059 #
point $-1 30.143474477397184 16.29091542473936 3.8593119957354252 #
point $-1 35.268497899517207 16.29091542473936 3.8593119957354252 #
straight-curve $-1 0 -21.314645423821965 8.3495100029466105 1 0 0 I I #
straight-curve $-1 45.775322733237708 -21.314645423821965 0 0 0 -1 I I #
point $-1 45.775322733237708 -21.314645423821965 8.3495100029466105 #
point $-1 35.378243957751046 -16.436172089170388 3.48517129821834 #
point $-1 41.616491223043049 -16.436172089170388 3.48517129821834 #
End-of-ACIS-data 