500 0 7 0           
7 Unknown 11 ACIS 5.0 NT 24 Thu Mar 25 17:57:50 1999 
-1 9.9999999999999995e-007 1e-010 
body $-1 $7 $-1 $8 #
body $-1 $9 $-1 $10 #
body $-1 $11 $-1 $12 #
body $-1 $13 $-1 $14 #
body $-1 $15 $-1 $16 #
body $-1 $17 $-1 $18 #
body $-1 $19 $-1 $20 #
lump $-1 $-1 $21 $0 #
transform $-1 1 0 0 0 1 0 0 0 1 41.699270607623525 19.59039801427523 8.5143826472028685 1 rotate no_reflect no_shear #
lump $-1 $-1 $22 $1 #
transform $-1 1 0 0 0 1 0 0 0 1 41.699270607623525 19.59039801427523 8.5143826472028685 1 rotate no_reflect no_shear #
lump $-1 $-1 $23 $2 #
transform $-1 1 0 0 0 1 0 0 0 1 41.699270607623525 19.59039801427523 8.5143826472028685 1 rotate no_reflect no_shear #
lump $-1 $-1 $24 $3 #
transform $-1 1 0 0 0 1 0 0 0 1 41.699270607623525 19.59039801427523 8.5143826472028685 1 rotate no_reflect no_shear #
lump $-1 $-1 $25 $4 #
transform $-1 1 0 0 0 1 0 0 0 1 41.699270607623525 19.59039801427523 8.5143826472028685 1 rotate no_reflect no_shear #
lump $-1 $-1 $26 $5 #
transform $-1 1 0 0 0 1 0 0 0 1 41.699270607623525 19.59039801427523 8.5143826472028685 1 rotate no_reflect no_shear #
lump $-1 $-1 $27 $6 #
transform $-1 1 0 0 0 1 0 0 0 1 41.699270607623525 19.59039801427523 8.5143826472028685 1 rotate no_reflect no_shear #
shell $-1 $-1 $-1 $28 $-1 $7 #
shell $-1 $-1 $-1 $29 $-1 $9 #
shell $-1 $-1 $-1 $30 $-1 $11 #
shell $-1 $-1 $-1 $31 $-1 $13 #
shell $-1 $-1 $-1 $32 $-1 $15 #
shell $-1 $-1 $-1 $33 $-1 $17 #
shell $-1 $-1 $-1 $34 $-1 $19 #
face $-1 $35 $36 $21 $-1 $37 forward single #
face $-1 $38 $39 $22 $-1 $40 forward single #
face $-1 $41 $42 $23 $-1 $43 reversed single #
face $-1 $44 $45 $24 $-1 $46 forward single #
face $-1 $47 $48 $25 $-1 $49 reversed single #
face $-1 $50 $51 $26 $-1 $52 forward single #
face $-1 $53 $54 $27 $-1 $55 forward single #
face $-1 $56 $57 $21 $-1 $58 reversed single #
loop $-1 $-1 $59 $28 #
plane-surface $-1 0 0 8.5143826472028685 0 0 1 1 0 0 forward_v I I I I #
face $-1 $60 $61 $22 $-1 $62 reversed single #
loop $-1 $-1 $63 $29 #
plane-surface $-1 -37.423897840685051 0 -1.3451645922635773 0 0 1 1 0 0 forward_v I I I I #
face $-1 $64 $65 $23 $-1 $66 reversed single #
loop $-1 $-1 $67 $30 #
plane-surface $-1 -19.742709190200252 72.225256500981686 80.824623283848709 1 0 0 0 -0.86602541151947299 -0.49999998660252726 forward_v I I I I #
face $-1 $68 $69 $24 $-1 $70 forward single #
loop $-1 $71 $72 $31 #
cone-surface $-1 -15.416695278302221 18.143871507310106 6.5723655499979516 0 -0.86602541151947299 -0.49999998660252726 0.5 0 0 1 I I 0 1 0.5 forward I I I I #
face $-1 $73 $74 $25 $-1 $75 reversed single #
loop $-1 $-1 $76 $32 #
plane-surface $-1 26.142029385780326 -89.534300608635192 50.267358649846869 -1 0 0 0 -0.83867057594974714 0.54463902268945019 forward_v I I I I #
face $-1 $77 $78 $26 $-1 $79 forward single #
loop $-1 $80 $81 $33 #
cone-surface $-1 13.993282129962985 -17.79346803130337 6.2865709054978307 0 0.83867057594974714 -0.54463902268945019 0.5 0 0 1 I I 0 1 0.5 forward I I I I #
face $-1 $82 $83 $27 $-1 $84 forward single #
loop $-1 $85 $86 $34 #
cone-surface $-1 21.282530483453392 -17.79346803130337 6.2865709054978307 0 0.83867057594974714 -0.54463902268945019 0.5 0 0 1 I I 0 1 0.5 forward I I I I #
face $-1 $87 $88 $21 $-1 $89 reversed single #
loop $-1 $-1 $90 $35 #
plane-surface $-1 0 0 -8.5143826472028685 0 0 1 1 0 0 forward_v I I I I #
coedge $-1 $91 $92 $93 $94 forward $36 $-1 #
face $-1 $95 $96 $22 $-1 $97 reversed single #
loop $-1 $-1 $98 $38 #
plane-surface $-1 -37.423897840685051 0 -5.5532709559340852 0 0 1 1 0 0 forward_v I I I I #
coedge $-1 $99 $100 $101 $102 forward $39 $-1 #
face $-1 $103 $104 $23 $-1 $105 reversed single #
loop $-1 $-1 $106 $41 #
plane-surface $-1 -15.416695278302221 5.2492363522560481e-007 39.125353793554865 0 0.86602541151947299 0.49999998660252726 1 0 0 forward_v I I I I #
coedge $-1 $107 $108 $109 $110 reversed $42 $-1 #
face $-1 $-1 $111 $24 $-1 $112 forward single #
loop $-1 $113 $114 $44 #
cone-surface $-1 -15.416695278302221 17.439411492092354 6.1656453851093822 0 -0.86602541151947299 -0.49999998660252726 0.25 0 0 1 I I -0.70710678118654746 0.70710678118654746 0.25 forward I I I I #
loop $-1 $-1 $115 $31 #
coedge $-1 $72 $72 $116 $117 reversed $45 $-1 #
face $-1 $118 $119 $25 $-1 $120 reversed single #
loop $-1 $-1 $121 $47 #
plane-surface $-1 17.637906306708189 -19.590398014275223 4.8452586686488814 0 -0.83867057594974714 0.54463902268945019 1 0 0 forward_v I I I I #
coedge $-1 $122 $123 $124 $125 reversed $48 $-1 #
face $-1 $-1 $126 $26 $-1 $127 forward single #
loop $-1 $128 $129 $50 #
cone-surface $-1 13.993282129962985 -16.978248852039741 5.7571613973974252 0 0.83867057594974714 -0.54463902268945019 0.25 0 0 1 I I -0.70710678118654746 0.70710678118654746 0.25 forward I I I I #
loop $-1 $-1 $130 $33 #
coedge $-1 $81 $81 $131 $132 reversed $51 $-1 #
face $-1 $-1 $133 $27 $-1 $134 forward single #
loop $-1 $135 $136 $53 #
cone-surface $-1 21.282530483453392 -16.978248852039741 5.7571613973974252 0 0.83867057594974714 -0.54463902268945019 0.25 0 0 1 I I -0.70710678118654746 0.70710678118654746 0.25 forward I I I I #
loop $-1 $-1 $137 $34 #
coedge $-1 $86 $86 $138 $139 reversed $54 $-1 #
face $-1 $140 $141 $21 $-1 $142 reversed single #
loop $-1 $-1 $143 $56 #
plane-surface $-1 0 -19.59039801427523 0 0 1 0 0 0 1 forward_v I I I I #
coedge $-1 $144 $145 $146 $147 forward $57 $-1 #
coedge $-1 $148 $59 $149 $150 forward $36 $-1 #
coedge $-1 $59 $148 $151 $152 forward $36 $-1 #
coedge $-1 $153 $154 $59 $94 reversed $155 $-1 #
edge $-1 $156 -19.59039801427523 $157 19.59039801427523 $93 $158 forward 7 unknown #
face $-1 $159 $160 $22 $-1 $161 reversed single #
loop $-1 $-1 $162 $60 #
plane-surface $-1 -33.148525073746576 0 -3.4492177740988312 -1 0 0 0 0 1 forward_v I I I I #
coedge $-1 $163 $164 $165 $166 forward $61 $-1 #
coedge $-1 $167 $63 $168 $169 reversed $39 $-1 #
coedge $-1 $63 $167 $170 $171 reversed $39 $-1 #
coedge $-1 $162 $172 $63 $102 reversed $96 $-1 #
edge $-1 $173 -19.59039801427523 $174 19.59039801427523 $101 $175 forward 7 unknown #
face $-1 $176 $177 $23 $-1 $178 forward single #
loop $-1 $-1 $179 $64 #
plane-surface $-1 -11.090681366404191 72.225256500981686 80.824623283848709 -1 0 0 0 0.86602541151947299 0.49999998660252726 forward_v I I I I #
coedge $-1 $180 $181 $182 $183 reversed $65 $-1 #
coedge $-1 $108 $67 $184 $185 reversed $42 $-1 #
coedge $-1 $67 $107 $180 $186 reversed $42 $-1 #
coedge $-1 $182 $187 $67 $110 forward $177 $-1 #
edge $-1 $188 16.522230236215613 $189 18.439375925470124 $109 $190 forward 7 unknown #
loop $-1 $-1 $116 $68 #
plane-surface $-1 -15.416695278302221 5.2492363522560481e-007 39.125353793554865 0 0.86602541151947299 0.49999998660252726 1 0 0 forward_v I I I I #
loop $-1 $-1 $191 $44 #
coedge $-1 $114 $114 $115 $192 reversed $69 $-1 #
coedge $-1 $115 $115 $114 $192 forward $71 $-1 #
coedge $-1 $116 $116 $72 $117 forward $111 $-1 #
edge $-1 $193 -3.1871907148060959e-015 $193 6.2831853071795969 $116 $194 forward 7 unknown #
face $-1 $195 $196 $25 $-1 $197 reversed single #
loop $-1 $-1 $198 $73 #
plane-surface $-1 9.1337832276360515 -89.534300608635192 50.267358649846869 1 0 0 0 0.83867057594974714 -0.54463902268945019 forward_v I I I I #
coedge $-1 $199 $200 $201 $202 reversed $74 $-1 #
coedge $-1 $123 $76 $203 $204 reversed $48 $-1 #
coedge $-1 $76 $122 $199 $205 reversed $48 $-1 #
coedge $-1 $201 $206 $76 $125 forward $207 $-1 #
edge $-1 $208 25.176752290042366 $209 27.559509185433694 $124 $210 forward 7 unknown #
loop $-1 $-1 $131 $77 #
plane-surface $-1 17.637906306708189 -19.590398014275223 4.8452586686488814 0 -0.83867057594974714 0.54463902268945019 1 0 0 forward_v I I I I #
loop $-1 $-1 $211 $50 #
coedge $-1 $129 $129 $130 $212 reversed $78 $-1 #
coedge $-1 $130 $130 $129 $212 forward $80 $-1 #
coedge $-1 $131 $131 $81 $132 forward $126 $-1 #
edge $-1 $213 0 $213 6.2831853071796004 $131 $214 forward 7 unknown #
loop $-1 $-1 $138 $82 #
plane-surface $-1 17.637906306708189 -19.590398014275223 4.8452586686488814 0 -0.83867057594974714 0.54463902268945019 1 0 0 forward_v I I I I #
loop $-1 $-1 $215 $53 #
coedge $-1 $136 $136 $137 $216 reversed $83 $-1 #
coedge $-1 $137 $137 $136 $216 forward $85 $-1 #
coedge $-1 $138 $138 $86 $139 forward $133 $-1 #
edge $-1 $217 0 $217 6.2831853071796004 $138 $218 forward 7 unknown #
face $-1 $219 $220 $21 $-1 $221 reversed single #
loop $-1 $-1 $222 $87 #
plane-surface $-1 -41.699270607623525 0 0 1 0 0 0 0 -1 forward_v I I I I #
coedge $-1 $223 $151 $224 $225 forward $88 $-1 #
coedge $-1 $226 $90 $223 $227 forward $57 $-1 #
coedge $-1 $90 $226 $228 $229 forward $57 $-1 #
coedge $-1 $154 $153 $90 $147 reversed $155 $-1 #
edge $-1 $230 -19.59039801427523 $231 19.59039801427523 $146 $232 forward 7 unknown #
coedge $-1 $92 $91 $233 $234 forward $36 $-1 #
coedge $-1 $235 $236 $91 $150 reversed $220 $-1 #
edge $-1 $157 -41.699270607623525 $237 41.699270607623525 $149 $238 forward 7 unknown #
coedge $-1 $143 $239 $92 $152 reversed $88 $-1 #
edge $-1 $240 -41.699270607623525 $156 41.699270607623525 $151 $241 forward 7 unknown #
coedge $-1 $146 $93 $239 $242 forward $155 $-1 #
coedge $-1 $93 $146 $235 $243 reversed $155 $-1 #
loop $-1 $-1 $153 $219 #
vertex $-1 $94 $244 #
vertex $-1 $94 $245 #
straight-curve $-1 41.699270607623525 0 8.5143826472028685 0 1 0 I I #
face $-1 $246 $247 $22 $-1 $248 reversed single #
loop $-1 $-1 $249 $95 #
plane-surface $-1 0 -19.59039801427523 0 0 1 0 0 0 1 forward_v I I I I #
coedge $-1 $165 $101 $250 $251 reversed $96 $-1 #
coedge $-1 $252 $98 $249 $253 reversed $61 $-1 #
coedge $-1 $98 $252 $254 $255 reversed $61 $-1 #
coedge $-1 $172 $162 $98 $166 reversed $96 $-1 #
edge $-1 $256 -19.59039801427523 $257 19.59039801427523 $165 $258 forward 7 unknown #
coedge $-1 $100 $99 $259 $260 reversed $39 $-1 #
coedge $-1 $261 $262 $99 $169 forward $263 $-1 #
edge $-1 $264 -22.987321687281 $174 -14.436576153404051 $168 $265 forward 7 unknown #
coedge $-1 $266 $250 $100 $171 forward $160 $-1 #
edge $-1 $173 14.436576153404051 $267 22.987321687281 $170 $268 forward 7 unknown #
coedge $-1 $101 $165 $261 $269 reversed $96 $-1 #
vertex $-1 $171 $270 #
vertex $-1 $169 $271 #
straight-curve $-1 -33.148525073746576 0 -1.3451645922635773 0 1 0 I I #
face $-1 $-1 $272 $23 $-1 $273 reversed single #
loop $-1 $-1 $109 $103 #
plane-surface $-1 0 0 8.5143826472028685 0 0 1 1 0 0 forward_v I I I I #
coedge $-1 $274 $275 $276 $277 reversed $104 $-1 #
coedge $-1 $278 $106 $108 $186 forward $65 $-1 #
coedge $-1 $106 $278 $274 $279 forward $65 $-1 #
coedge $-1 $276 $109 $106 $183 forward $177 $-1 #
edge $-1 $189 -12.034361551049141 $280 -3.38233372725308 $182 $281 forward 7 unknown #
coedge $-1 $282 $283 $107 $185 forward $272 $-1 #
edge $-1 $284 -35.218522852655454 $188 -31.897928994721486 $184 $285 forward 7 unknown #
edge $-1 $189 35.346504547301834 $284 39.180796028550482 $108 $286 forward 7 unknown #
coedge $-1 $109 $276 $282 $287 forward $177 $-1 #
vertex $-1 $185 $288 #
vertex $-1 $110 $289 #
straight-curve $-1 -19.742709190200252 36.112628250490843 8.5143826472028721 0 -1 0 I I #
coedge $-1 $191 $191 $-1 $290 reversed $113 $-1 #
edge $-1 $291 0 $291 6.2831853071796004 $114 $292 forward 7 unknown #
vertex $-1 $117 $293 #
ellipse-curve $-1 -15.416695278302221 18.631825169647975 6.8540857182358819 0 0.86602541151947299 0.49999998660252726 0.5 0 0 1 I I #
face $-1 $-1 $207 $25 $-1 $294 forward single #
loop $-1 $-1 $295 $118 #
plane-surface $-1 0 -19.59039801427523 0 0 1 0 0 0 1 forward_v I I I I #
coedge $-1 $296 $297 $298 $299 reversed $119 $-1 #
coedge $-1 $300 $121 $123 $205 forward $74 $-1 #
coedge $-1 $121 $300 $296 $301 forward $74 $-1 #
coedge $-1 $298 $124 $121 $202 forward $207 $-1 #
edge $-1 $209 -17.323076232426232 $302 -0.3148300742819572 $201 $303 forward 7 unknown #
coedge $-1 $304 $305 $122 $204 forward $196 $-1 #
edge $-1 $306 -20.288420656274564 $208 -16.619296677720566 $203 $307 forward 7 unknown #
edge $-1 $209 -4.3749287071373777 $306 1.2808562293387176e-014 $123 $308 forward 7 unknown #
coedge $-1 $124 $298 $304 $309 forward $207 $-1 #
loop $-1 $-1 $298 $195 #
vertex $-1 $204 $310 #
vertex $-1 $125 $311 #
straight-curve $-1 26.142029385780326 -44.767150304317596 8.5143826472028685 0 1 0 I I #
coedge $-1 $211 $211 $-1 $312 reversed $128 $-1 #
edge $-1 $313 0 $313 6.2831853071796004 $129 $314 forward 7 unknown #
vertex $-1 $132 $315 #
ellipse-curve $-1 13.993282129962985 -18.399019566579565 6.6798206579258741 0 -0.83867057594974714 0.54463902268945019 0.5 0 0 1 I I #
coedge $-1 $215 $215 $-1 $316 reversed $135 $-1 #
edge $-1 $317 0 $317 6.2831853071796004 $136 $318 forward 7 unknown #
vertex $-1 $139 $319 #
ellipse-curve $-1 21.282530483453392 -18.399019566579565 6.6798206579258741 0 -0.83867057594974714 0.54463902268945019 0.5 0 0 1 I I #
face $-1 $-1 $155 $21 $-1 $320 reversed single #
loop $-1 $-1 $235 $140 #
plane-surface $-1 0 19.59039801427523 0 0 -1 0 0 0 -1 forward_v I I I I #
coedge $-1 $321 $233 $236 $322 forward $141 $-1 #
coedge $-1 $239 $143 $144 $227 reversed $88 $-1 #
coedge $-1 $233 $321 $143 $225 reversed $141 $-1 #
edge $-1 $240 -8.5143826472028685 $323 8.5143826472028685 $224 $324 forward 7 unknown #
coedge $-1 $145 $144 $321 $325 forward $57 $-1 #
edge $-1 $231 -41.699270607623525 $323 41.699270607623525 $223 $326 forward 7 unknown #
coedge $-1 $236 $235 $145 $229 reversed $220 $-1 #
edge $-1 $327 -41.699270607623525 $230 41.699270607623525 $228 $328 forward 7 unknown #
vertex $-1 $147 $329 #
vertex $-1 $242 $330 #
straight-curve $-1 41.699270607623525 0 -8.5143826472028685 0 -1 0 I I #
coedge $-1 $222 $224 $148 $234 reversed $141 $-1 #
edge $-1 $237 -19.59039801427523 $240 19.59039801427523 $233 $331 forward 7 unknown #
coedge $-1 $228 $149 $154 $243 forward $220 $-1 #
coedge $-1 $149 $228 $222 $322 reversed $220 $-1 #
vertex $-1 $150 $332 #
straight-curve $-1 0 19.59039801427523 8.5143826472028685 -1 0 0 I I #
coedge $-1 $151 $223 $153 $242 reversed $88 $-1 #
vertex $-1 $234 $333 #
straight-curve $-1 0 -19.59039801427523 8.5143826472028685 1 0 0 I I #
edge $-1 $156 -8.5143826472028685 $231 8.5143826472028685 $153 $334 forward 7 unknown #
edge $-1 $157 -8.5143826472028685 $230 8.5143826472028685 $154 $335 forward 7 unknown #
point $-1 41.699270607623525 -19.59039801427523 8.5143826472028685 #
point $-1 41.699270607623525 19.59039801427523 8.5143826472028685 #
face $-1 $-1 $263 $22 $-1 $336 reversed single #
loop $-1 $-1 $337 $159 #
plane-surface $-1 -41.699270607623525 0 0 1 0 0 0 0 -1 forward_v I I I I #
coedge $-1 $250 $266 $163 $253 forward $160 $-1 #
coedge $-1 $170 $249 $162 $251 forward $160 $-1 #
edge $-1 $257 -3.8286620688846695 $173 0.3794442947858383 $250 $338 forward 7 unknown #
coedge $-1 $164 $163 $337 $339 reversed $61 $-1 #
edge $-1 $340 -22.987321687281 $257 -14.436576153404051 $249 $341 forward 7 unknown #
coedge $-1 $262 $261 $164 $255 forward $263 $-1 #
edge $-1 $256 14.436576153404051 $342 22.987321687281 $254 $343 forward 7 unknown #
vertex $-1 $255 $344 #
vertex $-1 $253 $345 #
straight-curve $-1 -33.148525073746576 0 -5.5532709559340852 0 -1 0 I I #
coedge $-1 $346 $347 $167 $260 forward $247 $-1 #
edge $-1 $267 -19.59039801427523 $264 19.59039801427523 $259 $348 forward 7 unknown #
coedge $-1 $254 $168 $172 $269 forward $263 $-1 #
coedge $-1 $168 $254 $346 $349 reversed $263 $-1 #
loop $-1 $-1 $254 $246 #
vertex $-1 $349 $350 #
straight-curve $-1 -18.711948920342525 19.59039801427523 -1.3451645922635773 1 0 0 I I #
coedge $-1 $249 $170 $347 $351 forward $160 $-1 #
vertex $-1 $351 $352 #
straight-curve $-1 -18.711948920342525 -19.59039801427523 -1.3451645922635773 -1 0 0 I I #
edge $-1 $174 -0.3794442947858383 $256 3.8286620688846695 $261 $353 forward 7 unknown #
point $-1 -33.148525073746576 -19.59039801427523 -1.3451645922635773 #
point $-1 -33.148525073746576 19.59039801427523 -1.3451645922635773 #
loop $-1 $-1 $184 $176 #
plane-surface $-1 0 19.59039801427523 0 0 -1 0 0 0 -1 forward_v I I I I #
coedge $-1 $275 $179 $181 $279 reversed $104 $-1 #
coedge $-1 $179 $274 $354 $355 reversed $104 $-1 #
coedge $-1 $187 $182 $179 $277 forward $177 $-1 #
edge $-1 $280 -18.439375925470124 $356 -16.522230236215613 $276 $357 forward 7 unknown #
coedge $-1 $181 $180 $283 $358 reversed $65 $-1 #
edge $-1 $359 -39.180796028550482 $280 -35.346504547301834 $274 $360 forward 7 unknown #
vertex $-1 $183 $361 #
straight-curve $-1 -7.7083476391511105 17.673252325020723 8.5143826472028721 1 0 0 I I #
coedge $-1 $354 $184 $187 $287 reversed $272 $-1 #
coedge $-1 $184 $354 $278 $358 forward $272 $-1 #
vertex $-1 $185 $362 #
straight-curve $-1 -19.742709190200252 19.59039801427523 40.412311641924354 0 0 1 I I #
straight-curve $-1 -19.742709190200252 5.2492363522560481e-007 39.125353793554865 0 0.49999998660252726 -0.86602541151947299 I I #
edge $-1 $356 11.090681366404191 $188 19.742709190200252 $282 $363 forward 7 unknown #
point $-1 -19.742709190200252 19.59039801427523 8.5143826472028685 #
point $-1 -19.742709190200252 17.673252325020719 8.5143826472028721 #
edge $-1 $364 1 $364 0 $191 $-1 forward 7 unknown #
vertex $-1 $192 $365 #
ellipse-curve $-1 -15.416695278302221 17.655917844972222 6.2906453817600143 0 0.86602541151947299 0.49999998660252726 0.5 0 0 1 I I #
point $-1 -14.916695278302221 18.631825169647986 6.8540857182358899 #
plane-surface $-1 0 0 8.5143826472028685 0 0 1 1 0 0 forward_v I I I I #
coedge $-1 $305 $304 $297 $366 forward $196 $-1 #
coedge $-1 $297 $198 $200 $301 reversed $119 $-1 #
coedge $-1 $198 $296 $295 $366 reversed $119 $-1 #
coedge $-1 $206 $201 $198 $299 forward $207 $-1 #
edge $-1 $302 -27.559509185433694 $367 -25.176752290042366 $298 $368 forward 7 unknown #
coedge $-1 $200 $199 $305 $369 reversed $74 $-1 #
edge $-1 $370 -1.2808562293387176e-014 $302 4.3749287071373777 $296 $371 forward 7 unknown #
vertex $-1 $202 $372 #
straight-curve $-1 8.8189531533540944 -17.207641118883902 8.5143826472028685 -1 0 0 I I #
coedge $-1 $295 $203 $206 $309 reversed $196 $-1 #
coedge $-1 $203 $295 $300 $369 forward $196 $-1 #
vertex $-1 $204 $373 #
straight-curve $-1 26.142029385780326 -19.59039801427523 25.133679324923435 0 0 1 I I #
straight-curve $-1 26.142029385780326 -19.590398014275223 4.8452586686488814 0 -0.54463902268945019 -0.83867057594974714 I I #
edge $-1 $367 9.1337832276360515 $208 26.142029385780326 $304 $374 forward 7 unknown #
point $-1 26.142029385780326 -19.59039801427523 8.5143826472028685 #
point $-1 26.142029385780326 -17.207641118883902 8.5143826472028685 #
edge $-1 $375 1 $375 0 $211 $-1 forward 7 unknown #
vertex $-1 $212 $376 #
ellipse-curve $-1 13.993282129962985 -17.187916496027178 5.8933211530697873 0 -0.83867057594974714 0.54463902268945019 0.5 0 0 1 I I #
point $-1 14.493282129962985 -18.399019566579565 6.6798206579258741 #
edge $-1 $377 1 $377 0 $215 $-1 forward 7 unknown #
vertex $-1 $216 $378 #
ellipse-curve $-1 21.282530483453392 -17.187916496027178 5.8933211530697873 0 -0.83867057594974714 0.54463902268945019 0.5 0 0 1 I I #
point $-1 21.782530483453392 -18.399019566579565 6.6798206579258741 #
plane-surface $-1 41.699270607623525 0 0 -1 0 0 0 0 1 forward_v I I I I #
coedge $-1 $224 $222 $226 $325 reversed $141 $-1 #
edge $-1 $237 -8.5143826472028685 $327 8.5143826472028685 $236 $379 forward 7 unknown #
vertex $-1 $325 $380 #
straight-curve $-1 -41.699270607623525 -19.59039801427523 0 0 0 -1 I I #
edge $-1 $323 -19.59039801427523 $327 19.59039801427523 $321 $381 forward 7 unknown #
straight-curve $-1 0 -19.59039801427523 -8.5143826472028685 -1 0 0 I I #
vertex $-1 $229 $382 #
straight-curve $-1 0 19.59039801427523 -8.5143826472028685 1 0 0 I I #
point $-1 41.699270607623525 19.59039801427523 -8.5143826472028685 #
point $-1 41.699270607623525 -19.59039801427523 -8.5143826472028685 #
straight-curve $-1 -41.699270607623525 0 8.5143826472028685 0 -1 0 I I #
point $-1 -41.699270607623525 19.59039801427523 8.5143826472028685 #
point $-1 -41.699270607623525 -19.59039801427523 8.5143826472028685 #
straight-curve $-1 41.699270607623525 -19.59039801427523 0 0 0 -1 I I #
straight-curve $-1 41.699270607623525 19.59039801427523 0 0 0 -1 I I #
plane-surface $-1 0 19.59039801427523 0 0 -1 0 0 0 -1 forward_v I I I I #
coedge $-1 $347 $346 $252 $339 forward $247 $-1 #
straight-curve $-1 -33.148525073746576 -19.59039801427523 -1.7246088870494156 0 0 1 I I #
edge $-1 $342 -19.59039801427523 $340 19.59039801427523 $337 $383 forward 7 unknown #
vertex $-1 $253 $384 #
straight-curve $-1 -18.711948920342525 -19.59039801427523 -5.5532709559340852 1 0 0 I I #
vertex $-1 $255 $385 #
straight-curve $-1 -18.711948920342525 19.59039801427523 -5.5532709559340852 -1 0 0 I I #
point $-1 -33.148525073746576 19.59039801427523 -5.5532709559340852 #
point $-1 -33.148525073746576 -19.59039801427523 -5.5532709559340852 #
coedge $-1 $337 $259 $262 $349 forward $247 $-1 #
coedge $-1 $259 $337 $266 $351 reversed $247 $-1 #
straight-curve $-1 -41.699270607623525 0 -1.3451645922635773 0 1 0 I I #
edge $-1 $264 1.3451645922635773 $342 5.5532709559340852 $262 $386 forward 7 unknown #
point $-1 -41.699270607623525 19.59039801427523 -1.3451645922635773 #
edge $-1 $267 1.3451645922635773 $340 5.5532709559340852 $347 $387 forward 7 unknown #
point $-1 -41.699270607623525 -19.59039801427523 -1.3451645922635773 #
straight-curve $-1 -33.148525073746576 19.59039801427523 -1.7246088870494156 0 0 -1 I I #
coedge $-1 $283 $282 $275 $355 forward $272 $-1 #
edge $-1 $356 31.897928994721486 $359 35.218522852655454 $354 $388 forward 7 unknown #
vertex $-1 $287 $389 #
straight-curve $-1 -11.090681366404191 36.112628250490843 8.5143826472028721 0 1 0 I I #
edge $-1 $359 3.38233372725308 $284 12.034361551049141 $283 $390 forward 7 unknown #
vertex $-1 $358 $391 #
straight-curve $-1 -11.090681366404191 5.2492363522560481e-007 39.125353793554865 0 -0.49999998660252726 0.86602541151947299 I I #
point $-1 -11.090681366404191 17.673252325020719 8.5143826472028721 #
point $-1 -19.742709190200252 19.59039801427523 5.1937887892689005 #
straight-curve $-1 0 19.59039801427523 8.5143826472028685 -1 0 0 I I #
vertex $-1 $290 $392 #
point $-1 -14.916695278302221 17.655917844972222 6.2906453817600143 #
edge $-1 $367 16.619296677720566 $370 20.288420656274564 $295 $393 forward 7 unknown #
vertex $-1 $309 $394 #
straight-curve $-1 9.1337832276360515 -44.767150304317596 8.5143826472028685 0 -1 0 I I #
edge $-1 $370 0.3148300742819572 $306 17.323076232426232 $305 $395 forward 7 unknown #
vertex $-1 $369 $396 #
straight-curve $-1 9.1337832276360515 -19.590398014275223 4.8452586686488814 0 0.54463902268945019 0.83867057594974714 I I #
point $-1 9.1337832276360515 -17.207641118883902 8.5143826472028685 #
point $-1 26.142029385780326 -19.59039801427523 4.8452586686488708 #
straight-curve $-1 0 -19.59039801427523 8.5143826472028685 1 0 0 I I #
vertex $-1 $312 $397 #
point $-1 14.493282129962985 -17.187916496027178 5.8933211530697873 #
vertex $-1 $316 $398 #
point $-1 21.782530483453392 -17.187916496027178 5.8933211530697873 #
straight-curve $-1 -41.699270607623525 19.59039801427523 0 0 0 -1 I I #
point $-1 -41.699270607623525 -19.59039801427523 -8.5143826472028685 #
straight-curve $-1 -41.699270607623525 0 -8.5143826472028685 0 1 0 I I #
point $-1 -41.699270607623525 19.59039801427523 -8.5143826472028685 #
straight-curve $-1 -41.699270607623525 0 -5.5532709559340852 0 -1 0 I I #
point $-1 -41.699270607623525 -19.59039801427523 -5.5532709559340852 #
point $-1 -41.699270607623525 19.59039801427523 -5.5532709559340852 #
straight-curve $-1 -41.699270607623525 19.59039801427523 0 0 0 -1 I I #
straight-curve $-1 -41.699270607623525 -19.59039801427523 0 0 0 -1 I I #
straight-curve $-1 -11.090681366404191 19.59039801427523 40.412311641924354 0 0 -1 I I #
point $-1 -11.090681366404191 19.59039801427523 8.5143826472028685 #
straight-curve $-1 -7.7083476391511105 19.59039801427523 5.1937887892688988 -1 0 0 I I #
point $-1 -11.090681366404191 19.59039801427523 5.1937887892689005 #
point $-1 -15.416695278302221 17.222905139212486 6.0406453884587501 #
straight-curve $-1 9.1337832276360515 -19.59039801427523 25.133679324923435 0 0 -1 I I #
point $-1 9.1337832276360515 -19.59039801427523 8.5143826472028685 #
straight-curve $-1 8.8189531533540944 -19.59039801427523 4.8452586686488726 1 0 0 I I #
point $-1 9.1337832276360515 -19.59039801427523 4.8452586686488708 #
point $-1 13.993282129962985 -16.768581208052304 5.621001641725063 #
point $-1 21.282530483453392 -16.768581208052304 5.621001641725063 #
End-of-ACIS-data 