500 0 20 0           
7 Unknown 11 ACIS 5.0 NT 24 Fri Mar 26 00:27:12 1999 
-1 9.9999999999999995e-007 1e-010 
body $-1 $20 $-1 $21 #
body $-1 $22 $-1 $23 #
body $-1 $24 $-1 $25 #
body $-1 $26 $-1 $27 #
body $-1 $28 $-1 $29 #
body $-1 $30 $-1 $31 #
body $-1 $32 $-1 $33 #
body $-1 $34 $-1 $35 #
body $-1 $36 $-1 $37 #
body $-1 $38 $-1 $39 #
body $-1 $40 $-1 $41 #
body $-1 $42 $-1 $43 #
body $-1 $44 $-1 $45 #
body $-1 $46 $-1 $47 #
body $-1 $48 $-1 $49 #
body $-1 $50 $-1 $51 #
body $-1 $52 $-1 $53 #
body $-1 $54 $-1 $55 #
body $-1 $56 $-1 $57 #
body $-1 $58 $-1 $59 #
lump $-1 $-1 $60 $0 #
transform $-1 1 0 0 0 1 0 0 0 1 54.194769127475816 25.684089778758263 12.09332079023457 1 rotate no_reflect no_shear #
lump $-1 $-1 $61 $1 #
transform $-1 1 0 0 0 1 0 0 0 1 54.194769127475816 25.684089778758263 12.09332079023457 1 rotate no_reflect no_shear #
lump $-1 $-1 $62 $2 #
transform $-1 1 0 0 0 1 0 0 0 1 54.194769127475816 25.684089778758263 12.09332079023457 1 rotate no_reflect no_shear #
lump $-1 $-1 $63 $3 #
transform $-1 1 0 0 0 1 0 0 0 1 54.194769127475816 25.684089778758263 12.09332079023457 1 rotate no_reflect no_shear #
lump $-1 $-1 $64 $4 #
transform $-1 1 0 0 0 1 0 0 0 1 54.194769127475816 25.684089778758263 12.09332079023457 1 rotate no_reflect no_shear #
lump $-1 $-1 $65 $5 #
transform $-1 1 0 0 0 1 0 0 0 1 54.194769127475816 25.684089778758263 12.09332079023457 1 rotate no_reflect no_shear #
lump $-1 $-1 $66 $6 #
transform $-1 1 0 0 0 1 0 0 0 1 54.194769127475816 25.684089778758263 12.09332079023457 1 rotate no_reflect no_shear #
lump $-1 $-1 $67 $7 #
transform $-1 1 0 0 0 1 0 0 0 1 54.194769127475816 25.684089778758263 12.09332079023457 1 rotate no_reflect no_shear #
lump $-1 $-1 $68 $8 #
transform $-1 1 0 0 0 1 0 0 0 1 54.194769127475816 25.684089778758263 12.09332079023457 1 rotate no_reflect no_shear #
lump $-1 $-1 $69 $9 #
transform $-1 1 0 0 0 1 0 0 0 1 54.194769127475816 25.684089778758263 12.09332079023457 1 rotate no_reflect no_shear #
lump $-1 $-1 $70 $10 #
transform $-1 1 0 0 0 1 0 0 0 1 54.194769127475816 25.684089778758263 12.09332079023457 1 rotate no_reflect no_shear #
lump $-1 $-1 $71 $11 #
transform $-1 1 0 0 0 1 0 0 0 1 54.194769127475816 25.684089778758263 12.09332079023457 1 rotate no_reflect no_shear #
lump $-1 $-1 $72 $12 #
transform $-1 1 0 0 0 1 0 0 0 1 54.194769127475816 25.684089778758263 12.09332079023457 1 rotate no_reflect no_shear #
lump $-1 $-1 $73 $13 #
transform $-1 1 0 0 0 1 0 0 0 1 54.194769127475816 25.684089778758263 12.09332079023457 1 rotate no_reflect no_shear #
lump $-1 $-1 $74 $14 #
transform $-1 1 0 0 0 1 0 0 0 1 54.194769127475816 25.684089778758263 12.09332079023457 1 rotate no_reflect no_shear #
lump $-1 $-1 $75 $15 #
transform $-1 1 0 0 0 1 0 0 0 1 54.194769127475816 25.684089778758263 12.09332079023457 1 rotate no_reflect no_shear #
lump $-1 $-1 $76 $16 #
transform $-1 1 0 0 0 1 0 0 0 1 54.194769127475816 25.684089778758263 12.09332079023457 1 rotate no_reflect no_shear #
lump $-1 $-1 $77 $17 #
transform $-1 1 0 0 0 1 0 0 0 1 54.194769127475816 25.684089778758263 12.09332079023457 1 rotate no_reflect no_shear #
lump $-1 $-1 $78 $18 #
transform $-1 1 0 0 0 1 0 0 0 1 54.194769127475816 25.684089778758263 12.09332079023457 1 rotate no_reflect no_shear #
lump $-1 $-1 $79 $19 #
transform $-1 1 0 0 0 1 0 0 0 1 54.194769127475816 25.684089778758263 12.09332079023457 1 rotate no_reflect no_shear #
shell $-1 $-1 $-1 $80 $-1 $20 #
shell $-1 $-1 $-1 $81 $-1 $22 #
shell $-1 $-1 $-1 $82 $-1 $24 #
shell $-1 $-1 $-1 $83 $-1 $26 #
shell $-1 $-1 $-1 $84 $-1 $28 #
shell $-1 $-1 $-1 $85 $-1 $30 #
shell $-1 $-1 $-1 $86 $-1 $32 #
shell $-1 $-1 $-1 $87 $-1 $34 #
shell $-1 $-1 $-1 $88 $-1 $36 #
shell $-1 $-1 $-1 $89 $-1 $38 #
shell $-1 $-1 $-1 $90 $-1 $40 #
shell $-1 $-1 $-1 $91 $-1 $42 #
shell $-1 $-1 $-1 $92 $-1 $44 #
shell $-1 $-1 $-1 $93 $-1 $46 #
shell $-1 $-1 $-1 $94 $-1 $48 #
shell $-1 $-1 $-1 $95 $-1 $50 #
shell $-1 $-1 $-1 $96 $-1 $52 #
shell $-1 $-1 $-1 $97 $-1 $54 #
shell $-1 $-1 $-1 $98 $-1 $56 #
shell $-1 $-1 $-1 $99 $-1 $58 #
face $-1 $100 $101 $60 $-1 $102 forward single #
face $-1 $103 $104 $61 $-1 $105 reversed single #
face $-1 $106 $107 $62 $-1 $108 forward single #
face $-1 $109 $110 $63 $-1 $111 forward single #
face $-1 $112 $113 $64 $-1 $114 reversed single #
face $-1 $115 $116 $65 $-1 $117 forward single #
face $-1 $118 $119 $66 $-1 $120 forward single #
face $-1 $121 $122 $67 $-1 $123 forward single #
face $-1 $124 $125 $68 $-1 $126 reversed single #
face $-1 $127 $128 $69 $-1 $129 forward single #
face $-1 $130 $131 $70 $-1 $132 forward single #
face $-1 $133 $134 $71 $-1 $135 forward single #
face $-1 $136 $137 $72 $-1 $138 reversed single #
face $-1 $139 $140 $73 $-1 $141 forward single #
face $-1 $142 $143 $74 $-1 $144 forward single #
face $-1 $145 $146 $75 $-1 $147 forward single #
face $-1 $148 $149 $76 $-1 $150 reversed single #
face $-1 $151 $152 $77 $-1 $153 forward single #
face $-1 $154 $155 $78 $-1 $156 forward single #
face $-1 $157 $158 $79 $-1 $159 forward single #
face $-1 $160 $161 $60 $-1 $162 reversed single #
loop $-1 $-1 $163 $80 #
plane-surface $-1 0 0 12.09332079023457 0 0 1 1 0 0 forward_v I I I I #
face $-1 $164 $165 $61 $-1 $166 reversed single #
loop $-1 $-1 $167 $81 #
plane-surface $-1 14.521445766969627 16.159369776535907 153.21242392406273 0 1 0 0.50000000669873634 0 0.8660253999169214 forward_v I I I I #
face $-1 $168 $169 $62 $-1 $170 forward single #
loop $-1 $171 $172 $82 #
cone-surface $-1 47.5711172774555 18.880718348599437 7.5645790209487194 -0.50000000669873634 0 -0.8660253999169214 0.8660253999169214 0 -0.50000000669873634 1 I I 0 1 1 forward I I I I #
face $-1 $173 $174 $63 $-1 $175 forward single #
loop $-1 $176 $177 $83 #
cone-surface $-1 47.5711172774555 22.962741206694737 7.5645790209487194 -0.50000000669873634 0 -0.8660253999169214 0.8660253999169214 0 -0.50000000669873634 1 I I 0 1 1 forward I I I I #
face $-1 $178 $179 $64 $-1 $180 reversed single #
loop $-1 $-1 $181 $84 #
plane-surface $-1 -141.88374847522024 -19.557695158926762 71.977208218592651 0 1 0 -0.80901700255871778 0 0.5877852410284794 forward_v I I I I #
face $-1 $182 $183 $65 $-1 $184 forward single #
loop $-1 $185 $186 $85 #
cone-surface $-1 -52.400427153788613 -18.214565105017236 9.8864864498232077 0.80901700255871778 0 -0.5877852410284794 0.2938926205142397 0 0.40450850127935889 1 I I 0 1 0.5 forward I I I I #
face $-1 $187 $188 $66 $-1 $189 forward single #
loop $-1 $190 $191 $86 #
cone-surface $-1 -52.400427153788613 -16.199870024152947 9.8864864498232077 0.80901700255871778 0 -0.5877852410284794 0.2938926205142397 0 0.40450850127935889 1 I I 0 1 0.5 forward I I I I #
face $-1 $192 $193 $67 $-1 $194 forward single #
loop $-1 $195 $196 $87 #
cone-surface $-1 -52.400427153788613 -14.185174943288658 9.8864864498232077 0.80901700255871778 0 -0.5877852410284794 0.2938926205142397 0 0.40450850127935889 1 I I 0 1 0.5 forward I I I I #
face $-1 $197 $198 $68 $-1 $199 reversed single #
loop $-1 $-1 $200 $88 #
plane-surface $-1 -141.88374847522024 -6.7156502695476306 71.977208218592651 0 1 0 -0.80901700255871778 0 0.5877852410284794 forward_v I I I I #
face $-1 $201 $202 $69 $-1 $203 forward single #
loop $-1 $204 $205 $89 #
cone-surface $-1 -52.400427153788613 -5.3725202156381044 9.8864864498232077 0.80901700255871778 0 -0.5877852410284794 0.2938926205142397 0 0.40450850127935889 1 I I 0 1 0.5 forward I I I I #
face $-1 $206 $207 $70 $-1 $208 forward single #
loop $-1 $209 $210 $90 #
cone-surface $-1 -52.400427153788613 -3.3578251347738153 9.8864864498232077 0.80901700255871778 0 -0.5877852410284794 0.2938926205142397 0 0.40450850127935889 1 I I 0 1 0.5 forward I I I I #
face $-1 $211 $212 $71 $-1 $213 forward single #
loop $-1 $214 $215 $91 #
cone-surface $-1 -52.400427153788613 -1.3431300539095261 9.8864864498232077 0.80901700255871778 0 -0.5877852410284794 0.2938926205142397 0 0.40450850127935889 1 I I 0 1 0.5 forward I I I I #
face $-1 $216 $217 $72 $-1 $218 reversed single #
loop $-1 $-1 $219 $92 #
plane-surface $-1 -141.88374847522024 6.1263946198315047 71.977208218592651 0 1 0 -0.80901700255871778 0 0.5877852410284794 forward_v I I I I #
face $-1 $220 $221 $73 $-1 $222 forward single #
loop $-1 $223 $224 $93 #
cone-surface $-1 -52.400427153788613 7.4695246737410272 9.8864864498232077 0.80901700255871778 0 -0.5877852410284794 0.2938926205142397 0 0.40450850127935889 1 I I 0 1 0.5 forward I I I I #
face $-1 $225 $226 $74 $-1 $227 forward single #
loop $-1 $228 $229 $94 #
cone-surface $-1 -52.400427153788613 9.48421975460532 9.8864864498232077 0.80901700255871778 0 -0.5877852410284794 0.2938926205142397 0 0.40450850127935889 1 I I 0 1 0.5 forward I I I I #
face $-1 $230 $231 $75 $-1 $232 forward single #
loop $-1 $233 $234 $95 #
cone-surface $-1 -52.400427153788613 11.498914835469606 9.8864864498232077 0.80901700255871778 0 -0.5877852410284794 0.2938926205142397 0 0.40450850127935889 1 I I 0 1 0.5 forward I I I I #
face $-1 $235 $236 $76 $-1 $237 reversed single #
loop $-1 $-1 $238 $96 #
plane-surface $-1 -141.88374847522024 18.968439509210636 71.977208218592651 0 1 0 -0.80901700255871778 0 0.5877852410284794 forward_v I I I I #
face $-1 $239 $240 $77 $-1 $241 forward single #
loop $-1 $242 $243 $97 #
cone-surface $-1 -52.400427153788613 20.311569563120159 9.8864864498232077 0.80901700255871778 0 -0.5877852410284794 0.2938926205142397 0 0.40450850127935889 1 I I 0 1 0.5 forward I I I I #
face $-1 $244 $245 $78 $-1 $246 forward single #
loop $-1 $247 $248 $98 #
cone-surface $-1 -52.400427153788613 22.326264643984452 9.8864864498232077 0.80901700255871778 0 -0.5877852410284794 0.2938926205142397 0 0.40450850127935889 1 I I 0 1 0.5 forward I I I I #
face $-1 $249 $250 $79 $-1 $251 forward single #
loop $-1 $252 $253 $99 #
cone-surface $-1 -52.400427153788613 24.340959724848737 9.8864864498232077 0.80901700255871778 0 -0.5877852410284794 0.2938926205142397 0 0.40450850127935889 1 I I 0 1 0.5 forward I I I I #
face $-1 $254 $255 $60 $-1 $256 reversed single #
loop $-1 $-1 $257 $100 #
plane-surface $-1 0 0 -12.09332079023457 0 0 1 1 0 0 forward_v I I I I #
coedge $-1 $258 $259 $260 $261 forward $101 $-1 #
face $-1 $262 $263 $61 $-1 $264 forward single #
loop $-1 $-1 $265 $103 #
plane-surface $-1 -39.673324086579122 20.921729777647087 59.34433071000781 0.50000000669873634 0 0.8660253999169214 0.8660253999169214 0 -0.50000000669873634 forward_v I I I I #
coedge $-1 $266 $267 $268 $269 reversed $104 $-1 #
face $-1 $-1 $270 $62 $-1 $271 forward single #
loop $-1 $272 $273 $106 #
cone-surface $-1 46.710937817095548 18.880718348599437 6.0747045185921795 -0.50000000669873634 0 -0.8660253999169214 0.4330126999584607 0 -0.25000000334936817 1 I I -0.70710678118654746 0.70710678118654746 0.5 forward I I I I #
loop $-1 $-1 $274 $82 #
coedge $-1 $172 $172 $275 $276 reversed $107 $-1 #
face $-1 $-1 $277 $63 $-1 $278 forward single #
loop $-1 $279 $280 $109 #
cone-surface $-1 46.710937817095548 22.962741206694737 6.0747045185921795 -0.50000000669873634 0 -0.8660253999169214 0.4330126999584607 0 -0.25000000334936817 1 I I -0.70710678118654746 0.70710678118654746 0.5 forward I I I I #
loop $-1 $-1 $281 $83 #
coedge $-1 $177 $177 $282 $283 reversed $110 $-1 #
face $-1 $284 $285 $64 $-1 $286 reversed single #
loop $-1 $-1 $287 $112 #
plane-surface $-1 -54.194769127475809 -16.199870024152947 8.2674373504403178 -0.80901700255871778 0 0.5877852410284794 0.5877852410284794 0 0.80901700255871778 forward_v I I I I #
coedge $-1 $288 $289 $290 $291 reversed $113 $-1 #
face $-1 $-1 $292 $65 $-1 $293 forward single #
loop $-1 $294 $295 $115 #
cone-surface $-1 -51.793664401869577 -18.214565105017236 9.4456475190518479 0.80901700255871778 0 -0.5877852410284794 0.14694631025711985 0 0.20225425063967944 1 I I -0.70710678118654746 0.70710678118654746 0.25 forward I I I I #
loop $-1 $-1 $296 $85 #
coedge $-1 $186 $186 $297 $298 reversed $116 $-1 #
face $-1 $-1 $299 $66 $-1 $300 forward single #
loop $-1 $301 $302 $118 #
cone-surface $-1 -51.793664401869577 -16.199870024152947 9.4456475190518479 0.80901700255871778 0 -0.5877852410284794 0.14694631025711985 0 0.20225425063967944 1 I I -0.70710678118654746 0.70710678118654746 0.25 forward I I I I #
loop $-1 $-1 $303 $86 #
coedge $-1 $191 $191 $304 $305 reversed $119 $-1 #
face $-1 $-1 $306 $67 $-1 $307 forward single #
loop $-1 $308 $309 $121 #
cone-surface $-1 -51.793664401869577 -14.185174943288658 9.4456475190518479 0.80901700255871778 0 -0.5877852410284794 0.14694631025711985 0 0.20225425063967944 1 I I -0.70710678118654746 0.70710678118654746 0.25 forward I I I I #
loop $-1 $-1 $310 $87 #
coedge $-1 $196 $196 $311 $312 reversed $122 $-1 #
face $-1 $313 $314 $68 $-1 $315 reversed single #
loop $-1 $-1 $316 $124 #
plane-surface $-1 -54.194769127475809 -3.3578251347738153 8.2674373504403178 -0.80901700255871778 0 0.5877852410284794 0.5877852410284794 0 0.80901700255871778 forward_v I I I I #
coedge $-1 $317 $318 $319 $320 reversed $125 $-1 #
face $-1 $-1 $321 $69 $-1 $322 forward single #
loop $-1 $323 $324 $127 #
cone-surface $-1 -51.793664401869577 -5.3725202156381044 9.4456475190518479 0.80901700255871778 0 -0.5877852410284794 0.14694631025711985 0 0.20225425063967944 1 I I -0.70710678118654746 0.70710678118654746 0.25 forward I I I I #
loop $-1 $-1 $325 $89 #
coedge $-1 $205 $205 $326 $327 reversed $128 $-1 #
face $-1 $-1 $328 $70 $-1 $329 forward single #
loop $-1 $330 $331 $130 #
cone-surface $-1 -51.793664401869577 -3.3578251347738153 9.4456475190518479 0.80901700255871778 0 -0.5877852410284794 0.14694631025711985 0 0.20225425063967944 1 I I -0.70710678118654746 0.70710678118654746 0.25 forward I I I I #
loop $-1 $-1 $332 $90 #
coedge $-1 $210 $210 $333 $334 reversed $131 $-1 #
face $-1 $-1 $335 $71 $-1 $336 forward single #
loop $-1 $337 $338 $133 #
cone-surface $-1 -51.793664401869577 -1.3431300539095261 9.4456475190518479 0.80901700255871778 0 -0.5877852410284794 0.14694631025711985 0 0.20225425063967944 1 I I -0.70710678118654746 0.70710678118654746 0.25 forward I I I I #
loop $-1 $-1 $339 $91 #
coedge $-1 $215 $215 $340 $341 reversed $134 $-1 #
face $-1 $342 $343 $72 $-1 $344 reversed single #
loop $-1 $-1 $345 $136 #
plane-surface $-1 -54.194769127475809 9.48421975460532 8.2674373504403178 -0.80901700255871778 0 0.5877852410284794 0.5877852410284794 0 0.80901700255871778 forward_v I I I I #
coedge $-1 $346 $347 $348 $349 reversed $137 $-1 #
face $-1 $-1 $350 $73 $-1 $351 forward single #
loop $-1 $352 $353 $139 #
cone-surface $-1 -51.793664401869577 7.4695246737410272 9.4456475190518479 0.80901700255871778 0 -0.5877852410284794 0.14694631025711985 0 0.20225425063967944 1 I I -0.70710678118654746 0.70710678118654746 0.25 forward I I I I #
loop $-1 $-1 $354 $93 #
coedge $-1 $224 $224 $355 $356 reversed $140 $-1 #
face $-1 $-1 $357 $74 $-1 $358 forward single #
loop $-1 $359 $360 $142 #
cone-surface $-1 -51.793664401869577 9.48421975460532 9.4456475190518479 0.80901700255871778 0 -0.5877852410284794 0.14694631025711985 0 0.20225425063967944 1 I I -0.70710678118654746 0.70710678118654746 0.25 forward I I I I #
loop $-1 $-1 $361 $94 #
coedge $-1 $229 $229 $362 $363 reversed $143 $-1 #
face $-1 $-1 $364 $75 $-1 $365 forward single #
loop $-1 $366 $367 $145 #
cone-surface $-1 -51.793664401869577 11.498914835469606 9.4456475190518479 0.80901700255871778 0 -0.5877852410284794 0.14694631025711985 0 0.20225425063967944 1 I I -0.70710678118654746 0.70710678118654746 0.25 forward I I I I #
loop $-1 $-1 $368 $95 #
coedge $-1 $234 $234 $369 $370 reversed $146 $-1 #
face $-1 $371 $372 $76 $-1 $373 forward single #
loop $-1 $-1 $374 $148 #
plane-surface $-1 -54.194769127475809 22.326264643984452 8.2674373504403178 -0.80901700255871778 0 0.5877852410284794 0.5877852410284794 0 0.80901700255871778 forward_v I I I I #
coedge $-1 $375 $376 $377 $378 reversed $149 $-1 #
face $-1 $-1 $379 $77 $-1 $380 forward single #
loop $-1 $381 $382 $151 #
cone-surface $-1 -51.793664401869577 20.311569563120159 9.4456475190518479 0.80901700255871778 0 -0.5877852410284794 0.14694631025711985 0 0.20225425063967944 1 I I -0.70710678118654746 0.70710678118654746 0.25 forward I I I I #
loop $-1 $-1 $383 $97 #
coedge $-1 $243 $243 $384 $385 reversed $152 $-1 #
face $-1 $-1 $386 $78 $-1 $387 forward single #
loop $-1 $388 $389 $154 #
cone-surface $-1 -51.793664401869577 22.326264643984452 9.4456475190518479 0.80901700255871778 0 -0.5877852410284794 0.14694631025711985 0 0.20225425063967944 1 I I -0.70710678118654746 0.70710678118654746 0.25 forward I I I I #
loop $-1 $-1 $390 $98 #
coedge $-1 $248 $248 $391 $392 reversed $155 $-1 #
face $-1 $-1 $393 $79 $-1 $394 forward single #
loop $-1 $395 $396 $157 #
cone-surface $-1 -51.793664401869577 24.340959724848737 9.4456475190518479 0.80901700255871778 0 -0.5877852410284794 0.14694631025711985 0 0.20225425063967944 1 I I -0.70710678118654746 0.70710678118654746 0.25 forward I I I I #
loop $-1 $-1 $397 $99 #
coedge $-1 $253 $253 $398 $399 reversed $158 $-1 #
face $-1 $400 $401 $60 $-1 $402 reversed single #
loop $-1 $-1 $403 $160 #
plane-surface $-1 0 -25.684089778758263 0 0 1 0 0 0 1 forward_v I I I I #
coedge $-1 $404 $405 $406 $407 forward $161 $-1 #
coedge $-1 $408 $163 $409 $410 forward $101 $-1 #
coedge $-1 $163 $408 $411 $412 forward $101 $-1 #
coedge $-1 $413 $414 $163 $261 reversed $415 $-1 #
edge $-1 $416 -25.684089778758263 $417 25.684089778758263 $260 $418 forward 7 unknown #
face $-1 $419 $420 $61 $-1 $421 reversed single #
loop $-1 $-1 $422 $164 #
plane-surface $-1 0 0 12.09332079023457 0 0 1 1 0 0 forward_v I I I I #
coedge $-1 $423 $424 $425 $426 reversed $165 $-1 #
coedge $-1 $267 $167 $427 $428 reversed $104 $-1 #
coedge $-1 $167 $266 $423 $429 reversed $104 $-1 #
coedge $-1 $425 $430 $167 $269 forward $420 $-1 #
edge $-1 $431 64.512891171796795 $432 71.45665110557232 $268 $433 forward 7 unknown #
loop $-1 $-1 $275 $168 #
plane-surface $-1 -39.673324086579122 20.921729777647087 59.34433071000781 0.50000000669873634 0 0.8660253999169214 0.8660253999169214 0 -0.50000000669873634 forward_v I I I I #
loop $-1 $-1 $434 $106 #
coedge $-1 $273 $273 $274 $435 reversed $169 $-1 #
coedge $-1 $274 $274 $273 $435 forward $171 $-1 #
coedge $-1 $275 $275 $172 $276 forward $270 $-1 #
edge $-1 $436 0 $436 6.2831853071796004 $275 $437 forward 7 unknown #
loop $-1 $-1 $282 $173 #
plane-surface $-1 -39.673324086579122 20.921729777647087 59.34433071000781 0.50000000669873634 0 0.8660253999169214 0.8660253999169214 0 -0.50000000669873634 forward_v I I I I #
loop $-1 $-1 $438 $109 #
coedge $-1 $280 $280 $281 $439 reversed $174 $-1 #
coedge $-1 $281 $281 $280 $439 forward $176 $-1 #
coedge $-1 $282 $282 $177 $283 forward $277 $-1 #
edge $-1 $440 0 $440 6.2831853071796004 $282 $441 forward 7 unknown #
face $-1 $442 $443 $64 $-1 $444 reversed single #
loop $-1 $-1 $445 $178 #
plane-surface $-1 -141.88374847522024 -12.842044889379132 71.977208218592651 0 -1 0 0.80901700255871778 0 -0.5877852410284794 forward_v I I I I #
coedge $-1 $446 $447 $448 $449 reversed $179 $-1 #
coedge $-1 $289 $181 $450 $451 reversed $113 $-1 #
coedge $-1 $181 $288 $446 $452 reversed $113 $-1 #
coedge $-1 $448 $453 $181 $291 forward $454 $-1 #
edge $-1 $455 16.747105110134306 $456 19.526772054949994 $290 $457 forward 7 unknown #
loop $-1 $-1 $297 $182 #
plane-surface $-1 -54.194769127475809 -16.199870024152947 8.2674373504403178 -0.80901700255871778 0 0.5877852410284794 0.5877852410284794 0 0.80901700255871778 forward_v I I I I #
loop $-1 $-1 $458 $115 #
coedge $-1 $295 $295 $296 $459 reversed $183 $-1 #
coedge $-1 $296 $296 $295 $459 forward $185 $-1 #
coedge $-1 $297 $297 $186 $298 forward $292 $-1 #
edge $-1 $460 0 $460 6.2831853071796004 $297 $461 forward 7 unknown #
loop $-1 $-1 $304 $187 #
plane-surface $-1 -54.194769127475809 -16.199870024152947 8.2674373504403178 -0.80901700255871778 0 0.5877852410284794 0.5877852410284794 0 0.80901700255871778 forward_v I I I I #
loop $-1 $-1 $462 $118 #
coedge $-1 $302 $302 $303 $463 reversed $188 $-1 #
coedge $-1 $303 $303 $302 $463 forward $190 $-1 #
coedge $-1 $304 $304 $191 $305 forward $299 $-1 #
edge $-1 $464 0 $464 6.2831853071796004 $304 $465 forward 7 unknown #
loop $-1 $-1 $311 $192 #
plane-surface $-1 -54.194769127475809 -16.199870024152947 8.2674373504403178 -0.80901700255871778 0 0.5877852410284794 0.5877852410284794 0 0.80901700255871778 forward_v I I I I #
loop $-1 $-1 $466 $121 #
coedge $-1 $309 $309 $310 $467 reversed $193 $-1 #
coedge $-1 $310 $310 $309 $467 forward $195 $-1 #
coedge $-1 $311 $311 $196 $312 forward $306 $-1 #
edge $-1 $468 0 $468 6.2831853071796004 $311 $469 forward 7 unknown #
face $-1 $470 $471 $68 $-1 $472 forward single #
loop $-1 $-1 $473 $197 #
plane-surface $-1 -141.88374847522024 0 71.977208218592651 0 -1 0 0.80901700255871778 0 -0.5877852410284794 forward_v I I I I #
coedge $-1 $474 $475 $476 $477 reversed $198 $-1 #
coedge $-1 $318 $200 $478 $479 reversed $125 $-1 #
coedge $-1 $200 $317 $474 $480 reversed $125 $-1 #
coedge $-1 $476 $481 $200 $320 forward $471 $-1 #
edge $-1 $482 16.747105110134306 $483 19.526772054949994 $319 $484 forward 7 unknown #
loop $-1 $-1 $326 $201 #
plane-surface $-1 -54.194769127475809 -3.3578251347738153 8.2674373504403178 -0.80901700255871778 0 0.5877852410284794 0.5877852410284794 0 0.80901700255871778 forward_v I I I I #
loop $-1 $-1 $485 $127 #
coedge $-1 $324 $324 $325 $486 reversed $202 $-1 #
coedge $-1 $325 $325 $324 $486 forward $204 $-1 #
coedge $-1 $326 $326 $205 $327 forward $321 $-1 #
edge $-1 $487 0 $487 6.2831853071796004 $326 $488 forward 7 unknown #
loop $-1 $-1 $333 $206 #
plane-surface $-1 -54.194769127475809 -3.3578251347738153 8.2674373504403178 -0.80901700255871778 0 0.5877852410284794 0.5877852410284794 0 0.80901700255871778 forward_v I I I I #
loop $-1 $-1 $489 $130 #
coedge $-1 $331 $331 $332 $490 reversed $207 $-1 #
coedge $-1 $332 $332 $331 $490 forward $209 $-1 #
coedge $-1 $333 $333 $210 $334 forward $328 $-1 #
edge $-1 $491 0 $491 6.2831853071796004 $333 $492 forward 7 unknown #
loop $-1 $-1 $340 $211 #
plane-surface $-1 -54.194769127475809 -3.3578251347738153 8.2674373504403178 -0.80901700255871778 0 0.5877852410284794 0.5877852410284794 0 0.80901700255871778 forward_v I I I I #
loop $-1 $-1 $493 $133 #
coedge $-1 $338 $338 $339 $494 reversed $212 $-1 #
coedge $-1 $339 $339 $338 $494 forward $214 $-1 #
coedge $-1 $340 $340 $215 $341 forward $335 $-1 #
edge $-1 $495 0 $495 6.2831853071796004 $340 $496 forward 7 unknown #
face $-1 $497 $498 $72 $-1 $499 forward single #
loop $-1 $-1 $500 $216 #
plane-surface $-1 -141.88374847522024 12.842044889379135 71.977208218592651 0 -1 0 0.80901700255871778 0 -0.5877852410284794 forward_v I I I I #
coedge $-1 $501 $502 $503 $504 reversed $217 $-1 #
coedge $-1 $347 $219 $505 $506 reversed $137 $-1 #
coedge $-1 $219 $346 $501 $507 reversed $137 $-1 #
coedge $-1 $503 $508 $219 $349 forward $498 $-1 #
edge $-1 $509 16.747105110134306 $510 19.526772054949994 $348 $511 forward 7 unknown #
loop $-1 $-1 $355 $220 #
plane-surface $-1 -54.194769127475809 9.48421975460532 8.2674373504403178 -0.80901700255871778 0 0.5877852410284794 0.5877852410284794 0 0.80901700255871778 forward_v I I I I #
loop $-1 $-1 $512 $139 #
coedge $-1 $353 $353 $354 $513 reversed $221 $-1 #
coedge $-1 $354 $354 $353 $513 forward $223 $-1 #
coedge $-1 $355 $355 $224 $356 forward $350 $-1 #
edge $-1 $514 0 $514 6.2831853071796004 $355 $515 forward 7 unknown #
loop $-1 $-1 $362 $225 #
plane-surface $-1 -54.194769127475809 9.48421975460532 8.2674373504403178 -0.80901700255871778 0 0.5877852410284794 0.5877852410284794 0 0.80901700255871778 forward_v I I I I #
loop $-1 $-1 $516 $142 #
coedge $-1 $360 $360 $361 $517 reversed $226 $-1 #
coedge $-1 $361 $361 $360 $517 forward $228 $-1 #
coedge $-1 $362 $362 $229 $363 forward $357 $-1 #
edge $-1 $518 0 $518 6.2831853071796004 $362 $519 forward 7 unknown #
loop $-1 $-1 $369 $230 #
plane-surface $-1 -54.194769127475809 9.48421975460532 8.2674373504403178 -0.80901700255871778 0 0.5877852410284794 0.5877852410284794 0 0.80901700255871778 forward_v I I I I #
loop $-1 $-1 $520 $145 #
coedge $-1 $367 $367 $368 $521 reversed $231 $-1 #
coedge $-1 $368 $368 $367 $521 forward $233 $-1 #
coedge $-1 $369 $369 $234 $370 forward $364 $-1 #
edge $-1 $522 0 $522 6.2831853071796004 $369 $523 forward 7 unknown #
face $-1 $524 $525 $76 $-1 $526 reversed single #
loop $-1 $-1 $377 $235 #
plane-surface $-1 0 0 12.09332079023457 0 0 1 1 0 0 forward_v I I I I #
coedge $-1 $527 $528 $529 $530 reversed $236 $-1 #
coedge $-1 $376 $238 $531 $532 reversed $149 $-1 #
coedge $-1 $238 $375 $527 $533 reversed $149 $-1 #
coedge $-1 $529 $534 $238 $378 forward $372 $-1 #
edge $-1 $535 16.747105110134306 $536 19.526772054949994 $377 $537 forward 7 unknown #
loop $-1 $-1 $384 $239 #
plane-surface $-1 -54.194769127475809 22.326264643984452 8.2674373504403178 -0.80901700255871778 0 0.5877852410284794 0.5877852410284794 0 0.80901700255871778 forward_v I I I I #
loop $-1 $-1 $538 $151 #
coedge $-1 $382 $382 $383 $539 reversed $240 $-1 #
coedge $-1 $383 $383 $382 $539 forward $242 $-1 #
coedge $-1 $384 $384 $243 $385 forward $379 $-1 #
edge $-1 $540 0 $540 6.2831853071796004 $384 $541 forward 7 unknown #
loop $-1 $-1 $391 $244 #
plane-surface $-1 -54.194769127475809 22.326264643984452 8.2674373504403178 -0.80901700255871778 0 0.5877852410284794 0.5877852410284794 0 0.80901700255871778 forward_v I I I I #
loop $-1 $-1 $542 $154 #
coedge $-1 $389 $389 $390 $543 reversed $245 $-1 #
coedge $-1 $390 $390 $389 $543 forward $247 $-1 #
coedge $-1 $391 $391 $248 $392 forward $386 $-1 #
edge $-1 $544 0 $544 6.2831853071796004 $391 $545 forward 7 unknown #
loop $-1 $-1 $398 $249 #
plane-surface $-1 -54.194769127475809 22.326264643984452 8.2674373504403178 -0.80901700255871778 0 0.5877852410284794 0.5877852410284794 0 0.80901700255871778 forward_v I I I I #
loop $-1 $-1 $546 $157 #
coedge $-1 $396 $396 $397 $547 reversed $250 $-1 #
coedge $-1 $397 $397 $396 $547 forward $252 $-1 #
coedge $-1 $398 $398 $253 $399 forward $393 $-1 #
edge $-1 $548 0 $548 6.2831853071796004 $398 $549 forward 7 unknown #
face $-1 $550 $551 $60 $-1 $552 reversed single #
loop $-1 $-1 $553 $254 #
plane-surface $-1 -54.194769127475816 0 0 1 0 0 0 0 -1 forward_v I I I I #
coedge $-1 $554 $411 $555 $556 forward $255 $-1 #
coedge $-1 $557 $257 $554 $558 forward $161 $-1 #
coedge $-1 $257 $557 $559 $560 forward $161 $-1 #
coedge $-1 $414 $413 $257 $407 reversed $415 $-1 #
edge $-1 $561 -25.684089778758263 $562 25.684089778758263 $406 $563 forward 7 unknown #
coedge $-1 $259 $258 $564 $565 forward $101 $-1 #
coedge $-1 $566 $567 $258 $410 reversed $551 $-1 #
edge $-1 $417 -54.194769127475816 $568 54.194769127475816 $409 $569 forward 7 unknown #
coedge $-1 $403 $570 $259 $412 reversed $255 $-1 #
edge $-1 $571 -54.194769127475816 $416 54.194769127475816 $411 $572 forward 7 unknown #
coedge $-1 $406 $260 $570 $573 forward $415 $-1 #
coedge $-1 $260 $406 $566 $574 reversed $415 $-1 #
loop $-1 $-1 $413 $550 #
vertex $-1 $261 $575 #
vertex $-1 $261 $576 #
straight-curve $-1 54.194769127475816 0 12.09332079023457 0 1 0 I I #
face $-1 $-1 $577 $61 $-1 $578 reversed single #
loop $-1 $-1 $268 $262 #
plane-surface $-1 54.194769127475816 0 0 -1 0 0 0 0 1 forward_v I I I I #
coedge $-1 $427 $579 $580 $581 forward $263 $-1 #
coedge $-1 $580 $265 $267 $429 forward $165 $-1 #
coedge $-1 $265 $580 $582 $583 reversed $165 $-1 #
coedge $-1 $584 $268 $265 $426 forward $420 $-1 #
edge $-1 $432 5.6985048877123639 $585 15.22322488993472 $425 $586 forward 7 unknown #
coedge $-1 $587 $422 $266 $428 forward $263 $-1 #
edge $-1 $588 34.907101457971592 $431 46.934046243991006 $427 $589 forward 7 unknown #
edge $-1 $432 -108.38953825495165 $588 -94.502018573458258 $267 $590 forward 7 unknown #
coedge $-1 $268 $584 $587 $591 reversed $420 $-1 #
vertex $-1 $591 $592 #
vertex $-1 $269 $593 #
straight-curve $-1 54.194769127475816 16.159369776535907 76.606211962031367 0 0 -1 I I #
coedge $-1 $434 $434 $-1 $594 reversed $272 $-1 #
edge $-1 $595 0 $595 6.2831853071796004 $273 $596 forward 7 unknown #
vertex $-1 $276 $597 #
ellipse-curve $-1 48.181296734466095 18.880718348599437 8.621440823346818 0.50000000669873634 0 0.8660253999169214 0.8660253999169214 0 -0.50000000669873634 1 I I #
coedge $-1 $438 $438 $-1 $598 reversed $279 $-1 #
edge $-1 $599 0 $599 6.2831853071796004 $280 $600 forward 7 unknown #
vertex $-1 $283 $601 #
ellipse-curve $-1 48.181296734466095 22.962741206694737 8.621440823346818 0.50000000669873634 0 0.8660253999169214 0.8660253999169214 0 -0.50000000669873634 1 I I #
face $-1 $-1 $454 $64 $-1 $602 forward single #
loop $-1 $-1 $603 $284 #
plane-surface $-1 -54.194769127475816 0 0 1 0 0 0 0 -1 forward_v I I I I #
coedge $-1 $604 $605 $606 $607 reversed $285 $-1 #
coedge $-1 $608 $287 $289 $452 forward $179 $-1 #
coedge $-1 $287 $608 $604 $609 forward $179 $-1 #
coedge $-1 $606 $290 $287 $449 forward $454 $-1 #
edge $-1 $456 -11.457760146850289 $610 -4.7421098773026582 $448 $611 forward 7 unknown #
coedge $-1 $612 $613 $288 $451 forward $443 $-1 #
edge $-1 $614 -27.721166758856018 $455 -23.895283319061754 $450 $615 forward 7 unknown #
edge $-1 $456 -4.729051957738764 $614 1.2799082646115467e-014 $289 $616 forward 7 unknown #
coedge $-1 $290 $606 $612 $617 forward $454 $-1 #
loop $-1 $-1 $606 $442 #
vertex $-1 $451 $618 #
vertex $-1 $291 $619 #
straight-curve $-1 -70.941874237610122 -19.557695158926762 12.093320790234571 1 0 0 I I #
coedge $-1 $458 $458 $-1 $620 reversed $294 $-1 #
edge $-1 $621 0 $621 6.2831853071796004 $295 $622 forward 7 unknown #
vertex $-1 $298 $623 #
ellipse-curve $-1 -52.804935655067965 -18.214565105017236 10.180379070337445 -0.80901700255871778 0 0.5877852410284794 0.2938926205142397 0 0.40450850127935889 1 I I #
coedge $-1 $462 $462 $-1 $624 reversed $301 $-1 #
edge $-1 $625 0 $625 6.2831853071796004 $302 $626 forward 7 unknown #
vertex $-1 $305 $627 #
ellipse-curve $-1 -52.804935655067965 -16.199870024152947 10.180379070337445 -0.80901700255871778 0 0.5877852410284794 0.2938926205142397 0 0.40450850127935889 1 I I #
coedge $-1 $466 $466 $-1 $628 reversed $308 $-1 #
edge $-1 $629 0 $629 6.2831853071796004 $309 $630 forward 7 unknown #
vertex $-1 $312 $631 #
ellipse-curve $-1 -52.804935655067965 -14.185174943288658 10.180379070337445 -0.80901700255871778 0 0.5877852410284794 0.2938926205142397 0 0.40450850127935889 1 I I #
face $-1 $-1 $632 $68 $-1 $633 reversed single #
loop $-1 $-1 $319 $313 #
plane-surface $-1 0 0 12.09332079023457 0 0 1 1 0 0 forward_v I I I I #
coedge $-1 $634 $635 $636 $637 reversed $314 $-1 #
coedge $-1 $638 $316 $318 $480 forward $198 $-1 #
coedge $-1 $316 $638 $634 $639 forward $198 $-1 #
coedge $-1 $636 $319 $316 $477 forward $471 $-1 #
edge $-1 $483 -5.0367377021607229 $640 1.6789125673869076 $476 $641 forward 7 unknown #
coedge $-1 $642 $643 $317 $479 forward $632 $-1 #
edge $-1 $644 -27.721166758856018 $482 -23.895283319061754 $478 $645 forward 7 unknown #
edge $-1 $483 -4.729051957738764 $644 1.2799082646115467e-014 $318 $646 forward 7 unknown #
coedge $-1 $319 $636 $642 $647 forward $471 $-1 #
vertex $-1 $320 $648 #
vertex $-1 $320 $649 #
straight-curve $-1 -70.941874237610122 -6.7156502695476306 12.093320790234571 1 0 0 I I #
coedge $-1 $485 $485 $-1 $650 reversed $323 $-1 #
edge $-1 $651 0 $651 6.2831853071796004 $324 $652 forward 7 unknown #
vertex $-1 $327 $653 #
ellipse-curve $-1 -52.804935655067965 -5.3725202156381044 10.180379070337445 -0.80901700255871778 0 0.5877852410284794 0.2938926205142397 0 0.40450850127935889 1 I I #
coedge $-1 $489 $489 $-1 $654 reversed $330 $-1 #
edge $-1 $655 0 $655 6.2831853071796004 $331 $656 forward 7 unknown #
vertex $-1 $334 $657 #
ellipse-curve $-1 -52.804935655067965 -3.3578251347738153 10.180379070337445 -0.80901700255871778 0 0.5877852410284794 0.2938926205142397 0 0.40450850127935889 1 I I #
coedge $-1 $493 $493 $-1 $658 reversed $337 $-1 #
edge $-1 $659 0 $659 6.2831853071796004 $338 $660 forward 7 unknown #
vertex $-1 $341 $661 #
ellipse-curve $-1 -52.804935655067965 -1.3431300539095261 10.180379070337445 -0.80901700255871778 0 0.5877852410284794 0.2938926205142397 0 0.40450850127935889 1 I I #
face $-1 $-1 $662 $72 $-1 $663 reversed single #
loop $-1 $-1 $348 $342 #
plane-surface $-1 0 0 12.09332079023457 0 0 1 1 0 0 forward_v I I I I #
coedge $-1 $664 $665 $666 $667 reversed $343 $-1 #
coedge $-1 $668 $345 $347 $507 forward $217 $-1 #
coedge $-1 $345 $668 $664 $669 forward $217 $-1 #
coedge $-1 $666 $348 $345 $504 forward $498 $-1 #
edge $-1 $510 1.3842847425288447 $670 8.0999350120764753 $503 $671 forward 7 unknown #
coedge $-1 $672 $673 $346 $506 forward $662 $-1 #
edge $-1 $674 -27.721166758856018 $509 -23.895283319061754 $505 $675 forward 7 unknown #
edge $-1 $510 -4.729051957738764 $674 1.2799082646115467e-014 $347 $676 forward 7 unknown #
coedge $-1 $348 $666 $672 $677 forward $498 $-1 #
vertex $-1 $349 $678 #
vertex $-1 $349 $679 #
straight-curve $-1 -70.941874237610122 6.1263946198315047 12.093320790234571 1 0 0 I I #
coedge $-1 $512 $512 $-1 $680 reversed $352 $-1 #
edge $-1 $681 0 $681 6.2831853071796004 $353 $682 forward 7 unknown #
vertex $-1 $356 $683 #
ellipse-curve $-1 -52.804935655067965 7.4695246737410272 10.180379070337445 -0.80901700255871778 0 0.5877852410284794 0.2938926205142397 0 0.40450850127935889 1 I I #
coedge $-1 $516 $516 $-1 $684 reversed $359 $-1 #
edge $-1 $685 0 $685 6.2831853071796004 $360 $686 forward 7 unknown #
vertex $-1 $363 $687 #
ellipse-curve $-1 -52.804935655067965 9.48421975460532 10.180379070337445 -0.80901700255871778 0 0.5877852410284794 0.2938926205142397 0 0.40450850127935889 1 I I #
coedge $-1 $520 $520 $-1 $688 reversed $366 $-1 #
edge $-1 $689 0 $689 6.2831853071796004 $367 $690 forward 7 unknown #
vertex $-1 $370 $691 #
ellipse-curve $-1 -52.804935655067965 11.498914835469606 10.180379070337445 -0.80901700255871778 0 0.5877852410284794 0.2938926205142397 0 0.40450850127935889 1 I I #
face $-1 $-1 $692 $76 $-1 $693 reversed single #
loop $-1 $-1 $694 $371 #
plane-surface $-1 0 25.684089778758263 0 0 -1 0 0 0 -1 forward_v I I I I #
coedge $-1 $695 $374 $376 $533 forward $236 $-1 #
coedge $-1 $374 $695 $694 $696 reversed $236 $-1 #
coedge $-1 $697 $377 $374 $530 forward $372 $-1 #
edge $-1 $536 7.8053071872184105 $698 14.520957456766041 $529 $699 forward 7 unknown #
coedge $-1 $700 $701 $375 $532 forward $692 $-1 #
edge $-1 $702 -27.721166758856018 $535 -23.895283319061754 $531 $703 forward 7 unknown #
edge $-1 $536 -4.729051957738764 $702 1.2799082646115467e-014 $376 $704 forward 7 unknown #
coedge $-1 $377 $697 $700 $705 forward $372 $-1 #
vertex $-1 $532 $706 #
vertex $-1 $378 $707 #
straight-curve $-1 -70.941874237610122 18.968439509210636 12.093320790234571 1 0 0 I I #
coedge $-1 $538 $538 $-1 $708 reversed $381 $-1 #
edge $-1 $709 0 $709 6.2831853071796004 $382 $710 forward 7 unknown #
vertex $-1 $385 $711 #
ellipse-curve $-1 -52.804935655067965 20.311569563120159 10.180379070337445 -0.80901700255871778 0 0.5877852410284794 0.2938926205142397 0 0.40450850127935889 1 I I #
coedge $-1 $542 $542 $-1 $712 reversed $388 $-1 #
edge $-1 $713 0 $713 6.2831853071796004 $389 $714 forward 7 unknown #
vertex $-1 $392 $715 #
ellipse-curve $-1 -52.804935655067965 22.326264643984452 10.180379070337445 -0.80901700255871778 0 0.5877852410284794 0.2938926205142397 0 0.40450850127935889 1 I I #
coedge $-1 $546 $546 $-1 $716 reversed $395 $-1 #
edge $-1 $717 0 $717 6.2831853071796004 $396 $718 forward 7 unknown #
vertex $-1 $399 $719 #
ellipse-curve $-1 -52.804935655067965 24.340959724848737 10.180379070337445 -0.80901700255871778 0 0.5877852410284794 0.2938926205142397 0 0.40450850127935889 1 I I #
face $-1 $-1 $415 $60 $-1 $720 reversed single #
loop $-1 $-1 $566 $400 #
plane-surface $-1 0 25.684089778758263 0 0 -1 0 0 0 -1 forward_v I I I I #
coedge $-1 $721 $564 $567 $722 forward $401 $-1 #
coedge $-1 $570 $403 $404 $558 reversed $255 $-1 #
coedge $-1 $564 $721 $403 $556 reversed $401 $-1 #
edge $-1 $571 -12.09332079023457 $723 12.09332079023457 $555 $724 forward 7 unknown #
coedge $-1 $405 $404 $721 $725 forward $161 $-1 #
edge $-1 $562 -54.194769127475816 $723 54.194769127475816 $554 $726 forward 7 unknown #
coedge $-1 $567 $566 $405 $560 reversed $551 $-1 #
edge $-1 $727 -54.194769127475816 $561 54.194769127475816 $559 $728 forward 7 unknown #
vertex $-1 $407 $729 #
vertex $-1 $573 $730 #
straight-curve $-1 54.194769127475816 0 -12.09332079023457 0 -1 0 I I #
coedge $-1 $553 $555 $408 $565 reversed $401 $-1 #
edge $-1 $568 -25.684089778758263 $571 25.684089778758263 $564 $731 forward 7 unknown #
coedge $-1 $559 $409 $414 $574 forward $551 $-1 #
coedge $-1 $409 $559 $553 $722 reversed $551 $-1 #
vertex $-1 $410 $732 #
straight-curve $-1 0 25.684089778758263 12.09332079023457 -1 0 0 I I #
coedge $-1 $411 $554 $413 $573 reversed $255 $-1 #
vertex $-1 $565 $733 #
straight-curve $-1 0 -25.684089778758263 12.09332079023457 1 0 0 I I #
edge $-1 $416 -12.09332079023457 $562 12.09332079023457 $413 $734 forward 7 unknown #
edge $-1 $417 -12.09332079023457 $561 12.09332079023457 $414 $735 forward 7 unknown #
point $-1 54.194769127475816 -25.684089778758263 12.09332079023457 #
point $-1 54.194769127475816 25.684089778758263 12.09332079023457 #
loop $-1 $-1 $582 $419 #
plane-surface $-1 0 25.684089778758263 0 0 -1 0 0 0 -1 forward_v I I I I #
coedge $-1 $422 $587 $736 $737 forward $263 $-1 #
coedge $-1 $424 $423 $422 $581 reversed $165 $-1 #
edge $-1 $738 -15.223224889934723 $588 -5.6985048877123639 $422 $739 forward 7 unknown #
coedge $-1 $736 $740 $424 $583 forward $577 $-1 #
edge $-1 $585 -76.374402199627013 $738 -62.48688251813364 $582 $741 forward 7 unknown #
coedge $-1 $430 $425 $740 $742 reversed $420 $-1 #
vertex $-1 $426 $743 #
straight-curve $-1 54.194769127475809 10.460864888823544 5.1495608564590611 0 1 0 I I #
coedge $-1 $579 $427 $430 $591 forward $263 $-1 #
vertex $-1 $428 $744 #
straight-curve $-1 7.2607228834848137 16.159369776535907 12.093320790234571 1 0 0 I I #
straight-curve $-1 -39.673324086579122 16.159369776535907 59.34433071000781 -0.8660253999169214 0 0.50000000669873634 I I #
edge $-1 $431 16.159369776535907 $745 25.684089778758263 $430 $746 forward 7 unknown #
point $-1 54.194769127475816 16.159369776535907 12.09332079023457 #
point $-1 54.194769127475816 16.159369776535907 5.149560856459054 #
edge $-1 $747 1 $747 0 $434 $-1 forward 7 unknown #
vertex $-1 $435 $748 #
ellipse-curve $-1 46.960937820444919 18.880718348599437 6.5077172185506402 0.50000000669873634 0 0.8660253999169214 0.8660253999169214 0 -0.50000000669873634 1 I I #
point $-1 49.047322134383002 18.880718348599437 8.1214408166480645 #
edge $-1 $749 1 $749 0 $438 $-1 forward 7 unknown #
vertex $-1 $439 $750 #
ellipse-curve $-1 46.960937820444919 22.962741206694737 6.5077172185506402 0.50000000669873634 0 0.8660253999169214 0.8660253999169214 0 -0.50000000669873634 1 I I #
point $-1 49.047322134383002 22.962741206694737 8.1214408166480645 #
plane-surface $-1 0 0 12.09332079023457 0 0 1 1 0 0 forward_v I I I I #
coedge $-1 $613 $612 $605 $751 forward $443 $-1 #
coedge $-1 $605 $445 $447 $609 reversed $285 $-1 #
coedge $-1 $445 $604 $603 $751 reversed $285 $-1 #
coedge $-1 $453 $448 $445 $607 forward $454 $-1 #
edge $-1 $610 -19.526772054949994 $752 -16.747105110134306 $606 $753 forward 7 unknown #
coedge $-1 $447 $446 $613 $754 reversed $179 $-1 #
edge $-1 $755 -1.2799082646115467e-014 $610 4.729051957738764 $604 $756 forward 7 unknown #
vertex $-1 $449 $757 #
straight-curve $-1 -51.415102182660128 -8.0999350120764735 12.093320790234568 0 1 0 I I #
coedge $-1 $603 $450 $453 $617 reversed $443 $-1 #
coedge $-1 $450 $603 $608 $754 forward $443 $-1 #
vertex $-1 $451 $758 #
straight-curve $-1 -54.194769127475816 -19.557695158926762 35.988604109296325 0 0 1 I I #
straight-curve $-1 -54.194769127475809 -19.557695158926762 8.2674373504403178 -0.5877852410284794 0 -0.80901700255871778 I I #
edge $-1 $752 12.842044889379132 $455 19.557695158926762 $612 $759 forward 7 unknown #
point $-1 -54.194769127475816 -19.557695158926762 12.09332079023457 #
point $-1 -51.415102182660128 -19.557695158926762 12.09332079023457 #
edge $-1 $760 1 $760 0 $458 $-1 forward 7 unknown #
vertex $-1 $459 $761 #
ellipse-curve $-1 -51.995918652509253 -18.214565105017236 9.5925938293089672 -0.80901700255871778 0 0.5877852410284794 0.2938926205142397 0 0.40450850127935889 1 I I #
point $-1 -52.511043034553737 -18.214565105017236 10.584887571616806 #
edge $-1 $762 1 $762 0 $462 $-1 forward 7 unknown #
vertex $-1 $463 $763 #
ellipse-curve $-1 -51.995918652509253 -16.199870024152947 9.5925938293089672 -0.80901700255871778 0 0.5877852410284794 0.2938926205142397 0 0.40450850127935889 1 I I #
point $-1 -52.511043034553737 -16.199870024152947 10.584887571616806 #
edge $-1 $764 1 $764 0 $466 $-1 forward 7 unknown #
vertex $-1 $467 $765 #
ellipse-curve $-1 -51.995918652509253 -14.185174943288658 9.5925938293089672 -0.80901700255871778 0 0.5877852410284794 0.2938926205142397 0 0.40450850127935889 1 I I #
point $-1 -52.511043034553737 -14.185174943288658 10.584887571616806 #
loop $-1 $-1 $478 $470 #
plane-surface $-1 -54.194769127475816 0 0 1 0 0 0 0 -1 forward_v I I I I #
coedge $-1 $635 $473 $475 $639 reversed $314 $-1 #
coedge $-1 $473 $634 $766 $767 reversed $314 $-1 #
coedge $-1 $481 $476 $473 $637 forward $471 $-1 #
edge $-1 $640 -19.526772054949994 $768 -16.747105110134306 $636 $769 forward 7 unknown #
coedge $-1 $475 $474 $643 $770 reversed $198 $-1 #
edge $-1 $771 -1.2799082646115467e-014 $640 4.729051957738764 $634 $772 forward 7 unknown #
vertex $-1 $477 $773 #
straight-curve $-1 -51.415102182660128 -1.6789125673869076 12.093320790234568 0 1 0 I I #
coedge $-1 $766 $478 $481 $647 reversed $632 $-1 #
coedge $-1 $478 $766 $638 $770 forward $632 $-1 #
vertex $-1 $479 $774 #
straight-curve $-1 -54.194769127475816 -6.7156502695476306 35.988604109296325 0 0 1 I I #
straight-curve $-1 -54.194769127475809 -6.7156502695476306 8.2674373504403178 -0.5877852410284794 0 -0.80901700255871778 I I #
edge $-1 $768 0 $482 6.7156502695476306 $642 $775 forward 7 unknown #
point $-1 -54.194769127475816 -6.7156502695476306 12.09332079023457 #
point $-1 -51.415102182660128 -6.7156502695476306 12.09332079023457 #
edge $-1 $776 1 $776 0 $485 $-1 forward 7 unknown #
vertex $-1 $486 $777 #
ellipse-curve $-1 -51.995918652509253 -5.3725202156381044 9.5925938293089672 -0.80901700255871778 0 0.5877852410284794 0.2938926205142397 0 0.40450850127935889 1 I I #
point $-1 -52.511043034553737 -5.3725202156381044 10.584887571616806 #
edge $-1 $778 1 $778 0 $489 $-1 forward 7 unknown #
vertex $-1 $490 $779 #
ellipse-curve $-1 -51.995918652509253 -3.3578251347738153 9.5925938293089672 -0.80901700255871778 0 0.5877852410284794 0.2938926205142397 0 0.40450850127935889 1 I I #
point $-1 -52.511043034553737 -3.3578251347738153 10.584887571616806 #
edge $-1 $780 1 $780 0 $493 $-1 forward 7 unknown #
vertex $-1 $494 $781 #
ellipse-curve $-1 -51.995918652509253 -1.3431300539095261 9.5925938293089672 -0.80901700255871778 0 0.5877852410284794 0.2938926205142397 0 0.40450850127935889 1 I I #
point $-1 -52.511043034553737 -1.3431300539095261 10.584887571616806 #
loop $-1 $-1 $505 $497 #
plane-surface $-1 -54.194769127475816 0 0 1 0 0 0 0 -1 forward_v I I I I #
coedge $-1 $665 $500 $502 $669 reversed $343 $-1 #
coedge $-1 $500 $664 $782 $783 reversed $343 $-1 #
coedge $-1 $508 $503 $500 $667 forward $498 $-1 #
edge $-1 $670 -19.526772054949994 $784 -16.747105110134306 $666 $785 forward 7 unknown #
coedge $-1 $502 $501 $673 $786 reversed $217 $-1 #
edge $-1 $787 -1.2799082646115467e-014 $670 4.729051957738764 $664 $788 forward 7 unknown #
vertex $-1 $504 $789 #
straight-curve $-1 -51.415102182660128 4.74210987730266 12.093320790234568 0 1 0 I I #
coedge $-1 $782 $505 $508 $677 reversed $662 $-1 #
coedge $-1 $505 $782 $668 $786 forward $662 $-1 #
vertex $-1 $506 $790 #
straight-curve $-1 -54.194769127475816 6.1263946198315047 35.988604109296325 0 0 1 I I #
straight-curve $-1 -54.194769127475809 6.1263946198315047 8.2674373504403178 -0.5877852410284794 0 -0.80901700255871778 I I #
edge $-1 $784 -12.842044889379135 $509 -6.1263946198315047 $672 $791 forward 7 unknown #
point $-1 -54.194769127475816 6.1263946198315047 12.09332079023457 #
point $-1 -51.415102182660128 6.1263946198315047 12.09332079023457 #
edge $-1 $792 1 $792 0 $512 $-1 forward 7 unknown #
vertex $-1 $513 $793 #
ellipse-curve $-1 -51.995918652509253 7.4695246737410272 9.5925938293089672 -0.80901700255871778 0 0.5877852410284794 0.2938926205142397 0 0.40450850127935889 1 I I #
point $-1 -52.511043034553737 7.4695246737410272 10.584887571616806 #
edge $-1 $794 1 $794 0 $516 $-1 forward 7 unknown #
vertex $-1 $517 $795 #
ellipse-curve $-1 -51.995918652509253 9.48421975460532 9.5925938293089672 -0.80901700255871778 0 0.5877852410284794 0.2938926205142397 0 0.40450850127935889 1 I I #
point $-1 -52.511043034553737 9.48421975460532 10.584887571616806 #
edge $-1 $796 1 $796 0 $520 $-1 forward 7 unknown #
vertex $-1 $521 $797 #
ellipse-curve $-1 -51.995918652509253 11.498914835469606 9.5925938293089672 -0.80901700255871778 0 0.5877852410284794 0.2938926205142397 0 0.40450850127935889 1 I I #
point $-1 -52.511043034553737 11.498914835469606 10.584887571616806 #
loop $-1 $-1 $531 $524 #
plane-surface $-1 -54.194769127475816 0 0 1 0 0 0 0 -1 forward_v I I I I #
coedge $-1 $798 $799 $528 $696 forward $525 $-1 #
coedge $-1 $528 $527 $701 $800 reversed $236 $-1 #
edge $-1 $698 7.8541420672517104 $801 12.583194024990487 $694 $802 forward 7 unknown #
coedge $-1 $534 $529 $799 $803 forward $372 $-1 #
vertex $-1 $803 $804 #
straight-curve $-1 -51.415102182660128 11.163132321992226 12.093320790234568 0 1 0 I I #
coedge $-1 $805 $531 $534 $705 reversed $692 $-1 #
coedge $-1 $531 $805 $695 $800 forward $692 $-1 #
vertex $-1 $532 $806 #
straight-curve $-1 -54.194769127475816 18.968439509210636 35.988604109296325 0 0 1 I I #
straight-curve $-1 -54.194769127475809 18.968439509210636 8.2674373504403178 -0.5877852410284794 0 -0.80901700255871778 I I #
edge $-1 $807 -25.684089778758263 $535 -18.968439509210636 $700 $808 forward 7 unknown #
point $-1 -54.194769127475816 18.968439509210636 12.09332079023457 #
point $-1 -51.415102182660128 18.968439509210636 12.09332079023457 #
edge $-1 $809 1 $809 0 $538 $-1 forward 7 unknown #
vertex $-1 $539 $810 #
ellipse-curve $-1 -51.995918652509253 20.311569563120159 9.5925938293089672 -0.80901700255871778 0 0.5877852410284794 0.2938926205142397 0 0.40450850127935889 1 I I #
point $-1 -52.511043034553737 20.311569563120159 10.584887571616806 #
edge $-1 $811 1 $811 0 $542 $-1 forward 7 unknown #
vertex $-1 $543 $812 #
ellipse-curve $-1 -51.995918652509253 22.326264643984452 9.5925938293089672 -0.80901700255871778 0 0.5877852410284794 0.2938926205142397 0 0.40450850127935889 1 I I #
point $-1 -52.511043034553737 22.326264643984452 10.584887571616806 #
edge $-1 $813 1 $813 0 $546 $-1 forward 7 unknown #
vertex $-1 $547 $814 #
ellipse-curve $-1 -51.995918652509253 24.340959724848737 9.5925938293089672 -0.80901700255871778 0 0.5877852410284794 0.2938926205142397 0 0.40450850127935889 1 I I #
point $-1 -52.511043034553737 24.340959724848737 10.584887571616806 #
plane-surface $-1 54.194769127475816 0 0 -1 0 0 0 0 1 forward_v I I I I #
coedge $-1 $555 $553 $557 $725 reversed $401 $-1 #
edge $-1 $568 -12.09332079023457 $727 12.09332079023457 $567 $815 forward 7 unknown #
vertex $-1 $725 $816 #
straight-curve $-1 -54.194769127475816 -25.684089778758263 0 0 0 -1 I I #
edge $-1 $723 -25.684089778758263 $727 25.684089778758263 $721 $817 forward 7 unknown #
straight-curve $-1 0 -25.684089778758263 -12.09332079023457 -1 0 0 I I #
vertex $-1 $560 $818 #
straight-curve $-1 0 25.684089778758263 -12.09332079023457 1 0 0 I I #
point $-1 54.194769127475816 25.684089778758263 -12.09332079023457 #
point $-1 54.194769127475816 -25.684089778758263 -12.09332079023457 #
straight-curve $-1 -54.194769127475816 0 12.09332079023457 0 -1 0 I I #
point $-1 -54.194769127475816 25.684089778758263 12.09332079023457 #
point $-1 -54.194769127475816 -25.684089778758263 12.09332079023457 #
straight-curve $-1 54.194769127475816 -25.684089778758263 0 0 0 -1 I I #
straight-curve $-1 54.194769127475816 25.684089778758263 0 0 0 -1 I I #
coedge $-1 $740 $582 $579 $737 reversed $577 $-1 #
edge $-1 $745 -54.194769127475816 $738 -42.167824341456402 $736 $819 forward 7 unknown #
vertex $-1 $583 $820 #
straight-curve $-1 42.167824341456409 10.460864888823544 12.093320790234571 0 -1 0 I I #
coedge $-1 $582 $736 $584 $742 forward $577 $-1 #
straight-curve $-1 -11.947403080871966 25.684089778758263 43.336762467884547 -0.8660253999169214 0 0.50000000669873634 I I #
edge $-1 $745 -12.09332079023457 $585 -5.1495608564590567 $584 $821 forward 7 unknown #
point $-1 54.194769127475816 25.684089778758263 5.1495608564590567 #
point $-1 42.167824341456402 16.159369776535907 12.093320790234571 #
vertex $-1 $591 $822 #
straight-curve $-1 54.194769127475816 0 12.09332079023457 0 1 0 I I #
vertex $-1 $594 $823 #
point $-1 47.82696322036184 18.880718348599437 6.0077172118519035 #
vertex $-1 $598 $824 #
point $-1 47.82696322036184 22.962741206694737 6.0077172118519035 #
edge $-1 $752 23.895283319061754 $755 27.721166758856018 $603 $825 forward 7 unknown #
vertex $-1 $617 $826 #
straight-curve $-1 -70.941874237610122 -12.842044889379132 12.093320790234571 -1 0 0 I I #
edge $-1 $755 4.7421098773026582 $614 11.457760146850289 $613 $827 forward 7 unknown #
vertex $-1 $754 $828 #
straight-curve $-1 -54.194769127475809 -12.842044889379132 8.2674373504403178 0.5877852410284794 0 0.80901700255871778 I I #
point $-1 -51.415102182660128 -12.842044889379132 12.09332079023457 #
point $-1 -54.194769127475816 -19.557695158926762 8.2674373504403071 #
straight-curve $-1 -54.194769127475816 0 12.09332079023457 0 -1 0 I I #
vertex $-1 $620 $829 #
point $-1 -51.702026031995018 -18.214565105017236 9.9971023305883264 #
vertex $-1 $624 $830 #
point $-1 -51.702026031995018 -16.199870024152947 9.9971023305883264 #
vertex $-1 $628 $831 #
point $-1 -51.702026031995018 -14.185174943288658 9.9971023305883264 #
coedge $-1 $643 $642 $635 $767 forward $632 $-1 #
edge $-1 $768 23.895283319061754 $771 27.721166758856018 $766 $832 forward 7 unknown #
vertex $-1 $647 $833 #
straight-curve $-1 -70.941874237610122 0 12.093320790234571 -1 0 0 I I #
edge $-1 $771 -1.6789125673869076 $644 5.0367377021607229 $643 $834 forward 7 unknown #
vertex $-1 $770 $835 #
straight-curve $-1 -54.194769127475809 0 8.2674373504403178 0.5877852410284794 0 0.80901700255871778 I I #
point $-1 -51.415102182660128 0 12.09332079023457 #
point $-1 -54.194769127475816 -6.7156502695476306 8.2674373504403071 #
straight-curve $-1 -54.194769127475816 0 12.09332079023457 0 -1 0 I I #
vertex $-1 $650 $836 #
point $-1 -51.702026031995018 -5.3725202156381044 9.9971023305883264 #
vertex $-1 $654 $837 #
point $-1 -51.702026031995018 -3.3578251347738153 9.9971023305883264 #
vertex $-1 $658 $838 #
point $-1 -51.702026031995018 -1.3431300539095261 9.9971023305883264 #
coedge $-1 $673 $672 $665 $783 forward $662 $-1 #
edge $-1 $784 23.895283319061754 $787 27.721166758856018 $782 $839 forward 7 unknown #
vertex $-1 $677 $840 #
straight-curve $-1 -70.941874237610122 12.842044889379135 12.093320790234571 -1 0 0 I I #
edge $-1 $787 -8.0999350120764753 $674 -1.3842847425288447 $673 $841 forward 7 unknown #
vertex $-1 $786 $842 #
straight-curve $-1 -54.194769127475809 12.842044889379135 8.2674373504403178 0.5877852410284794 0 0.80901700255871778 I I #
point $-1 -51.415102182660128 12.842044889379135 12.09332079023457 #
point $-1 -54.194769127475816 6.1263946198315047 8.2674373504403071 #
straight-curve $-1 -54.194769127475816 0 12.09332079023457 0 -1 0 I I #
vertex $-1 $680 $843 #
point $-1 -51.702026031995018 7.4695246737410272 9.9971023305883264 #
vertex $-1 $684 $844 #
point $-1 -51.702026031995018 9.48421975460532 9.9971023305883264 #
vertex $-1 $688 $845 #
point $-1 -51.702026031995018 11.498914835469606 9.9971023305883264 #
coedge $-1 $799 $694 $805 $846 reversed $525 $-1 #
coedge $-1 $694 $798 $697 $803 reversed $525 $-1 #
edge $-1 $801 -14.520957456766041 $702 -7.8053071872184105 $701 $847 forward 7 unknown #
vertex $-1 $696 $848 #
straight-curve $-1 -46.798553394588666 25.684089778758263 18.447455263152882 -0.5877852410284794 0 -0.80901700255871778 I I #
edge $-1 $698 51.415102182660128 $807 54.194769127475816 $799 $849 forward 7 unknown #
point $-1 -51.415102182660128 25.684089778758267 12.09332079023457 #
coedge $-1 $701 $700 $798 $846 forward $692 $-1 #
point $-1 -54.194769127475816 18.968439509210636 8.2674373504403071 #
vertex $-1 $803 $850 #
straight-curve $-1 -54.194769127475816 0 12.09332079023457 0 -1 0 I I #
vertex $-1 $708 $851 #
point $-1 -51.702026031995018 20.311569563120159 9.9971023305883264 #
vertex $-1 $712 $852 #
point $-1 -51.702026031995018 22.326264643984452 9.9971023305883264 #
vertex $-1 $716 $853 #
point $-1 -51.702026031995018 24.340959724848737 9.9971023305883264 #
straight-curve $-1 -54.194769127475816 25.684089778758263 0 0 0 -1 I I #
point $-1 -54.194769127475816 -25.684089778758263 -12.09332079023457 #
straight-curve $-1 -54.194769127475816 0 -12.09332079023457 0 1 0 I I #
point $-1 -54.194769127475816 25.684089778758263 -12.09332079023457 #
straight-curve $-1 0 25.684089778758263 12.09332079023457 -1 0 0 I I #
point $-1 42.167824341456402 25.684089778758267 12.093320790234571 #
straight-curve $-1 54.194769127475816 25.684089778758263 0 0 0 -1 I I #
point $-1 54.194769127475816 25.684089778758263 12.09332079023457 #
point $-1 46.460937813746177 18.880718348599437 5.6416918186337188 #
point $-1 46.460937813746177 22.962741206694737 5.6416918186337188 #
straight-curve $-1 -54.194769127475816 -12.842044889379132 35.988604109296325 0 0 -1 I I #
point $-1 -54.194769127475816 -12.842044889379132 12.09332079023457 #
straight-curve $-1 -54.194769127475816 -8.0999350120764735 8.2674373504403071 0 -1 0 I I #
point $-1 -54.194769127475816 -12.842044889379132 8.2674373504403071 #
point $-1 -51.591410151229901 -18.214565105017236 9.2987012087947285 #
point $-1 -51.591410151229901 -16.199870024152947 9.2987012087947285 #
point $-1 -51.591410151229901 -14.185174943288658 9.2987012087947285 #
straight-curve $-1 -54.194769127475816 0 35.988604109296325 0 0 -1 I I #
point $-1 -54.194769127475816 0 12.09332079023457 #
straight-curve $-1 -54.194769127475816 -1.6789125673869076 8.2674373504403071 0 -1 0 I I #
point $-1 -54.194769127475816 0 8.2674373504403071 #
point $-1 -51.591410151229901 -5.3725202156381044 9.2987012087947285 #
point $-1 -51.591410151229901 -3.3578251347738153 9.2987012087947285 #
point $-1 -51.591410151229901 -1.3431300539095261 9.2987012087947285 #
straight-curve $-1 -54.194769127475816 12.842044889379135 35.988604109296325 0 0 -1 I I #
point $-1 -54.194769127475816 12.842044889379135 12.09332079023457 #
straight-curve $-1 -54.194769127475816 4.74210987730266 8.2674373504403071 0 -1 0 I I #
point $-1 -54.194769127475816 12.842044889379135 8.2674373504403071 #
point $-1 -51.591410151229901 7.4695246737410272 9.2987012087947285 #
point $-1 -51.591410151229901 9.48421975460532 9.2987012087947285 #
point $-1 -51.591410151229901 11.498914835469606 9.2987012087947285 #
edge $-1 $807 -12.09332079023457 $801 -8.2674373504403071 $798 $854 forward 7 unknown #
straight-curve $-1 -54.194769127475816 11.163132321992226 8.2674373504403071 0 -1 0 I I #
point $-1 -54.194769127475816 25.684089778758267 8.2674373504403071 #
straight-curve $-1 0 25.684089778758263 12.09332079023457 -1 0 0 I I #
point $-1 -54.194769127475816 25.684089778758263 12.09332079023457 #
point $-1 -51.591410151229901 20.311569563120159 9.2987012087947285 #
point $-1 -51.591410151229901 22.326264643984452 9.2987012087947285 #
point $-1 -51.591410151229901 24.340959724848737 9.2987012087947285 #
straight-curve $-1 -54.194769127475816 25.684089778758263 0 0 0 -1 I I #
End-of-ACIS-data 