500 0 9 0           
7 Unknown 11 ACIS 5.0 NT 24 Thu Mar 25 17:49:46 1999 
-1 9.9999999999999995e-007 1e-010 
body $-1 $9 $-1 $10 #
body $-1 $11 $-1 $12 #
body $-1 $13 $-1 $14 #
body $-1 $15 $-1 $16 #
body $-1 $17 $-1 $18 #
body $-1 $19 $-1 $20 #
body $-1 $21 $-1 $22 #
body $-1 $23 $-1 $24 #
body $-1 $25 $-1 $26 #
lump $-1 $-1 $27 $0 #
transform $-1 1 0 0 0 1 0 0 0 1 42.410962248603781 29.044267423512043 10.141694087125931 1 rotate no_reflect no_shear #
lump $-1 $-1 $28 $1 #
transform $-1 1 0 0 0 1 0 0 0 1 42.410962248603781 29.044267423512043 10.141694087125931 1 rotate no_reflect no_shear #
lump $-1 $-1 $29 $2 #
transform $-1 1 0 0 0 1 0 0 0 1 42.410962248603781 29.044267423512043 10.141694087125931 1 rotate no_reflect no_shear #
lump $-1 $-1 $30 $3 #
transform $-1 1 0 0 0 1 0 0 0 1 42.410962248603781 29.044267423512043 10.141694087125931 1 rotate no_reflect no_shear #
lump $-1 $-1 $31 $4 #
transform $-1 1 0 0 0 1 0 0 0 1 42.410962248603781 29.044267423512043 10.141694087125931 1 rotate no_reflect no_shear #
lump $-1 $-1 $32 $5 #
transform $-1 1 0 0 0 1 0 0 0 1 42.410962248603781 29.044267423512043 10.141694087125931 1 rotate no_reflect no_shear #
lump $-1 $-1 $33 $6 #
transform $-1 1 0 0 0 1 0 0 0 1 42.410962248603781 29.044267423512043 10.141694087125931 1 rotate no_reflect no_shear #
lump $-1 $-1 $34 $7 #
transform $-1 1 0 0 0 1 0 0 0 1 42.410962248603781 29.044267423512043 10.141694087125931 1 rotate no_reflect no_shear #
lump $-1 $-1 $35 $8 #
transform $-1 1 0 0 0 1 0 0 0 1 42.410962248603781 29.044267423512043 10.141694087125931 1 rotate no_reflect no_shear #
shell $-1 $-1 $-1 $36 $-1 $9 #
shell $-1 $-1 $-1 $37 $-1 $11 #
shell $-1 $-1 $-1 $38 $-1 $13 #
shell $-1 $-1 $-1 $39 $-1 $15 #
shell $-1 $-1 $-1 $40 $-1 $17 #
shell $-1 $-1 $-1 $41 $-1 $19 #
shell $-1 $-1 $-1 $42 $-1 $21 #
shell $-1 $-1 $-1 $43 $-1 $23 #
shell $-1 $-1 $-1 $44 $-1 $25 #
face $-1 $45 $46 $27 $-1 $47 forward single #
face $-1 $48 $49 $28 $-1 $50 reversed single #
face $-1 $51 $52 $29 $-1 $53 forward single #
face $-1 $54 $55 $30 $-1 $56 reversed single #
face $-1 $57 $58 $31 $-1 $59 forward single #
face $-1 $60 $61 $32 $-1 $62 forward single #
face $-1 $63 $64 $33 $-1 $65 reversed single #
face $-1 $66 $67 $34 $-1 $68 forward single #
face $-1 $69 $70 $35 $-1 $71 forward single #
face $-1 $72 $73 $27 $-1 $74 reversed single #
loop $-1 $-1 $75 $36 #
plane-surface $-1 0 0 10.141694087125931 0 0 1 1 0 0 forward_v I I I I #
face $-1 $76 $77 $28 $-1 $78 reversed single #
loop $-1 $-1 $79 $37 #
plane-surface $-1 -37.214788664016034 -25.475314680854826 0 0 -1 0 0 0 -1 forward_v I I I I #
face $-1 $80 $81 $29 $-1 $82 reversed single #
loop $-1 $-1 $83 $38 #
plane-surface $-1 38.62460082716548 0 -4.1095418381671571 0 0 1 1 0 0 forward_v I I I I #
face $-1 $84 $85 $30 $-1 $86 reversed single #
loop $-1 $-1 $87 $39 #
plane-surface $-1 -21.43214730708938 71.833041745195899 93.736387991386167 -1 0 0 0 0.85716730853699208 0.51503806187062418 forward_v I I I I #
face $-1 $88 $89 $31 $-1 $90 forward single #
loop $-1 $91 $92 $40 #
cone-surface $-1 -28.99391000161717 25.129703488713481 4.6319999065622071 0 -0.85716730853699208 -0.51503806187062418 1 0 0 1 I I 0 1 1 forward I I I I #
face $-1 $93 $94 $32 $-1 $95 forward single #
loop $-1 $96 $97 $41 #
cone-surface $-1 -24.456852384900493 25.129703488713481 4.6319999065622071 0 -0.85716730853699208 -0.51503806187062418 1 0 0 1 I I 0 1 1 forward I I I I #
face $-1 $98 $99 $33 $-1 $100 reversed single #
loop $-1 $-1 $101 $42 #
plane-surface $-1 32.123456564049619 -82.424434780546108 66.463682222069195 -1 0 0 0 -0.62932039886446345 0.77714595512881146 forward_v I I I I #
face $-1 $102 $103 $34 $-1 $104 forward single #
loop $-1 $105 $106 $43 #
cone-surface $-1 23.515274747488291 -22.443306855423511 4.5092669906608771 0 0.62932039886446345 -0.77714595512881146 1 0 0 1 I I 0 1 1 forward I I I I #
face $-1 $107 $108 $35 $-1 $109 forward single #
loop $-1 $110 $111 $44 #
cone-surface $-1 28.680183837425076 -22.443306855423511 4.5092669906608771 0 0.62932039886446345 -0.77714595512881146 1 0 0 1 I I 0 1 1 forward I I I I #
face $-1 $112 $113 $27 $-1 $114 reversed single #
loop $-1 $-1 $115 $45 #
plane-surface $-1 0 0 -10.141694087125931 0 0 1 1 0 0 forward_v I I I I #
coedge $-1 $116 $117 $118 $119 forward $46 $-1 #
face $-1 $120 $121 $28 $-1 $122 forward single #
loop $-1 $-1 $123 $48 #
plane-surface $-1 -32.018615079428287 -27.259791052183434 0 -1 0 0 0 0 1 forward_v I I I I #
coedge $-1 $124 $125 $126 $127 forward $49 $-1 #
face $-1 $128 $129 $29 $-1 $130 reversed single #
loop $-1 $-1 $131 $51 #
plane-surface $-1 34.838239405727172 0 -7.1256179626465439 1 0 0 0 0 -1 forward_v I I I I #
coedge $-1 $132 $133 $134 $135 reversed $52 $-1 #
face $-1 $136 $137 $30 $-1 $138 reversed single #
loop $-1 $-1 $139 $54 #
plane-surface $-1 -26.725381193258833 -0.87353898100346328 50.049868394207969 0 0.85716730853699208 0.51503806187062418 1 0 0 forward_v I I I I #
coedge $-1 $140 $141 $142 $143 reversed $55 $-1 #
face $-1 $-1 $144 $31 $-1 $145 forward single #
loop $-1 $146 $147 $57 #
cone-surface $-1 -28.99391000161717 23.755834355834235 3.8064960773626062 0 -0.85716730853699208 -0.51503806187062418 0.5 0 0 1 I I -0.70710678118654746 0.70710678118654746 0.5 forward I I I I #
loop $-1 $-1 $148 $40 #
coedge $-1 $92 $92 $149 $150 reversed $58 $-1 #
face $-1 $-1 $151 $32 $-1 $152 forward single #
loop $-1 $153 $154 $60 #
cone-surface $-1 -24.456852384900493 23.755834355834235 3.8064960773626062 0 -0.85716730853699208 -0.51503806187062418 0.5 0 0 1 I I -0.70710678118654746 0.70710678118654746 0.5 forward I I I I #
loop $-1 $-1 $155 $41 #
coedge $-1 $97 $97 $156 $157 reversed $61 $-1 #
face $-1 $158 $159 $33 $-1 $160 reversed single #
loop $-1 $-1 $161 $63 #
plane-surface $-1 26.097729292456691 -29.044267423512039 0.5446666928229007 0 -0.62932039886446345 0.77714595512881146 1 0 0 forward_v I I I I #
coedge $-1 $162 $163 $164 $165 reversed $64 $-1 #
face $-1 $-1 $166 $34 $-1 $167 forward single #
loop $-1 $168 $169 $66 #
cone-surface $-1 23.515274747488291 -21.453356886275589 3.2867806137829358 0 0.62932039886446345 -0.77714595512881146 0.5 0 0 1 I I -0.70710678118654779 0.70710678118654713 0.5 forward I I I I #
loop $-1 $-1 $170 $43 #
coedge $-1 $106 $106 $171 $172 reversed $67 $-1 #
face $-1 $-1 $173 $35 $-1 $174 forward single #
loop $-1 $175 $176 $69 #
cone-surface $-1 28.680183837425076 -21.453356886275589 3.2867806137829358 0 0.62932039886446345 -0.77714595512881146 0.5 0 0 1 I I -0.70710678118654779 0.70710678118654713 0.5 forward I I I I #
loop $-1 $-1 $177 $44 #
coedge $-1 $111 $111 $178 $179 reversed $70 $-1 #
face $-1 $180 $181 $27 $-1 $182 reversed single #
loop $-1 $-1 $183 $72 #
plane-surface $-1 0 -29.044267423512043 0 0 1 0 0 0 1 forward_v I I I I #
coedge $-1 $184 $185 $186 $187 forward $73 $-1 #
coedge $-1 $188 $75 $189 $190 forward $46 $-1 #
coedge $-1 $75 $188 $191 $192 forward $46 $-1 #
coedge $-1 $193 $194 $75 $119 reversed $195 $-1 #
edge $-1 $196 -29.044267423512043 $197 29.044267423512043 $118 $198 forward 7 unknown #
face $-1 $199 $200 $28 $-1 $201 reversed single #
loop $-1 $-1 $202 $76 #
plane-surface $-1 0 0 10.141694087125931 0 0 1 1 0 0 forward_v I I I I #
coedge $-1 $203 $204 $205 $206 reversed $77 $-1 #
coedge $-1 $207 $79 $208 $209 reversed $49 $-1 #
coedge $-1 $79 $207 $210 $211 reversed $49 $-1 #
coedge $-1 $204 $203 $79 $127 reversed $77 $-1 #
edge $-1 $212 -10.141694087125931 $213 10.141694087125931 $126 $214 forward 7 unknown #
face $-1 $215 $216 $29 $-1 $217 reversed single #
loop $-1 $-1 $134 $80 #
plane-surface $-1 42.410962248603781 0 0 -1 0 0 0 0 1 forward_v I I I I #
coedge $-1 $218 $219 $220 $221 reversed $81 $-1 #
coedge $-1 $222 $83 $223 $224 reversed $52 $-1 #
coedge $-1 $83 $222 $225 $226 reversed $52 $-1 #
coedge $-1 $227 $228 $83 $135 forward $129 $-1 #
edge $-1 $229 -29.044267423512043 $230 29.044267423512043 $134 $231 forward 7 unknown #
face $-1 $232 $233 $30 $-1 $234 reversed single #
loop $-1 $-1 $235 $84 #
plane-surface $-1 -32.018615079428287 71.833041745195899 93.736387991386167 1 0 0 0 -0.85716730853699208 -0.51503806187062418 forward_v I I I I #
coedge $-1 $236 $237 $238 $239 reversed $85 $-1 #
coedge $-1 $141 $87 $240 $241 reversed $55 $-1 #
coedge $-1 $87 $140 $236 $242 reversed $55 $-1 #
coedge $-1 $238 $243 $87 $143 forward $233 $-1 #
edge $-1 $244 36.726499908567149 $245 46.609918673166028 $142 $246 forward 7 unknown #
loop $-1 $-1 $149 $88 #
plane-surface $-1 -26.725381193258833 -0.87353898100346328 50.049868394207969 0 0.85716730853699208 0.51503806187062418 1 0 0 forward_v I I I I #
loop $-1 $-1 $247 $57 #
coedge $-1 $147 $147 $148 $248 reversed $89 $-1 #
coedge $-1 $148 $148 $147 $248 forward $91 $-1 #
coedge $-1 $149 $149 $92 $150 forward $144 $-1 #
edge $-1 $249 6.1429551296134909e-016 $249 6.2831853071796013 $149 $250 forward 7 unknown #
loop $-1 $-1 $156 $93 #
plane-surface $-1 -26.725381193258833 -0.87353898100346328 50.049868394207969 0 0.85716730853699208 0.51503806187062418 1 0 0 forward_v I I I I #
loop $-1 $-1 $251 $60 #
coedge $-1 $154 $154 $155 $252 reversed $94 $-1 #
coedge $-1 $155 $155 $154 $252 forward $96 $-1 #
coedge $-1 $156 $156 $97 $157 forward $151 $-1 #
edge $-1 $253 6.1429551296134909e-016 $253 6.2831853071796013 $156 $254 forward 7 unknown #
face $-1 $255 $256 $33 $-1 $257 reversed single #
loop $-1 $-1 $258 $98 #
plane-surface $-1 20.072002020863767 -82.424434780546108 66.463682222069195 1 0 0 0 0.62932039886446345 -0.77714595512881146 forward_v I I I I #
coedge $-1 $259 $260 $261 $262 reversed $99 $-1 #
coedge $-1 $163 $101 $263 $264 reversed $64 $-1 #
coedge $-1 $101 $162 $259 $265 reversed $64 $-1 #
coedge $-1 $261 $266 $101 $165 forward $267 $-1 #
edge $-1 $268 12.167949966761011 $269 24.019291563506691 $164 $270 forward 7 unknown #
loop $-1 $-1 $171 $102 #
plane-surface $-1 26.097729292456691 -29.044267423512039 0.5446666928229007 0 -0.62932039886446345 0.77714595512881146 1 0 0 forward_v I I I I #
loop $-1 $-1 $271 $66 #
coedge $-1 $169 $169 $170 $272 reversed $103 $-1 #
coedge $-1 $170 $170 $169 $272 forward $105 $-1 #
coedge $-1 $171 $171 $106 $172 forward $166 $-1 #
edge $-1 $273 -1.1178975946969833e-015 $273 6.2831853071795996 $171 $274 forward 7 unknown #
loop $-1 $-1 $178 $107 #
plane-surface $-1 26.097729292456691 -29.044267423512039 0.5446666928229007 0 -0.62932039886446345 0.77714595512881146 1 0 0 forward_v I I I I #
loop $-1 $-1 $275 $69 #
coedge $-1 $176 $176 $177 $276 reversed $108 $-1 #
coedge $-1 $177 $177 $176 $276 forward $110 $-1 #
coedge $-1 $178 $178 $111 $179 forward $173 $-1 #
edge $-1 $277 -1.1178975946969833e-015 $277 6.2831853071795996 $178 $278 forward 7 unknown #
face $-1 $279 $280 $27 $-1 $281 reversed single #
loop $-1 $-1 $282 $112 #
plane-surface $-1 -42.410962248603781 0 0 1 0 0 0 0 -1 forward_v I I I I #
coedge $-1 $283 $191 $284 $285 forward $113 $-1 #
coedge $-1 $286 $115 $283 $287 forward $73 $-1 #
coedge $-1 $115 $286 $288 $289 forward $73 $-1 #
coedge $-1 $194 $193 $115 $187 reversed $195 $-1 #
edge $-1 $290 -29.044267423512043 $291 29.044267423512043 $186 $292 forward 7 unknown #
coedge $-1 $117 $116 $293 $294 forward $46 $-1 #
coedge $-1 $295 $296 $116 $190 reversed $280 $-1 #
edge $-1 $197 -42.410962248603781 $297 42.410962248603781 $189 $298 forward 7 unknown #
coedge $-1 $183 $299 $117 $192 reversed $113 $-1 #
edge $-1 $300 -42.410962248603781 $196 42.410962248603781 $191 $301 forward 7 unknown #
coedge $-1 $186 $118 $299 $302 forward $195 $-1 #
coedge $-1 $118 $186 $295 $303 reversed $195 $-1 #
loop $-1 $-1 $193 $279 #
vertex $-1 $119 $304 #
vertex $-1 $119 $305 #
straight-curve $-1 42.410962248603781 0 10.141694087125931 0 1 0 I I #
face $-1 $306 $307 $28 $-1 $308 reversed single #
loop $-1 $-1 $309 $120 #
plane-surface $-1 -42.410962248603781 0 0 1 0 0 0 0 -1 forward_v I I I I #
coedge $-1 $210 $310 $204 $311 forward $121 $-1 #
coedge $-1 $126 $123 $312 $313 reversed $77 $-1 #
coedge $-1 $123 $126 $202 $311 reversed $77 $-1 #
coedge $-1 $314 $315 $123 $206 forward $316 $-1 #
edge $-1 $317 -10.141694087125931 $318 10.141694087125931 $205 $319 forward 7 unknown #
coedge $-1 $125 $124 $309 $320 reversed $49 $-1 #
coedge $-1 $312 $321 $124 $209 forward $307 $-1 #
edge $-1 $322 -23.803567916595764 $213 -13.41122074742027 $208 $323 forward 7 unknown #
coedge $-1 $324 $202 $125 $211 forward $121 $-1 #
edge $-1 $212 13.41122074742027 $325 23.803567916595764 $210 $326 forward 7 unknown #
vertex $-1 $211 $327 #
vertex $-1 $209 $328 #
straight-curve $-1 -32.018615079428287 -25.475314680854826 0 0 0 -1 I I #
face $-1 $329 $330 $29 $-1 $331 reversed single #
loop $-1 $-1 $225 $128 #
plane-surface $-1 0 -29.044267423512043 0 0 1 0 0 0 1 forward_v I I I I #
coedge $-1 $332 $131 $333 $334 reversed $81 $-1 #
coedge $-1 $131 $332 $222 $335 reversed $81 $-1 #
coedge $-1 $223 $336 $131 $221 forward $337 $-1 #
edge $-1 $338 -6.5788851058026587 $339 -0.54673285684388517 $220 $340 forward 7 unknown #
coedge $-1 $133 $132 $219 $335 forward $52 $-1 #
coedge $-1 $341 $220 $132 $224 forward $337 $-1 #
edge $-1 $339 15.525938992144432 $229 23.098661835021048 $223 $342 forward 7 unknown #
coedge $-1 $343 $344 $133 $226 forward $216 $-1 #
edge $-1 $230 -23.098661835021048 $345 -15.525938992144432 $225 $346 forward 7 unknown #
coedge $-1 $347 $134 $344 $348 forward $129 $-1 #
coedge $-1 $134 $347 $341 $349 reversed $129 $-1 #
vertex $-1 $349 $350 #
vertex $-1 $348 $351 #
straight-curve $-1 42.410962248603781 0 -4.1095418381671571 0 -1 0 I I #
face $-1 $-1 $352 $30 $-1 $353 forward single #
loop $-1 $-1 $142 $136 #
plane-surface $-1 0 29.044267423512043 0 0 -1 0 0 0 -1 forward_v I I I I #
coedge $-1 $354 $355 $356 $357 reversed $137 $-1 #
coedge $-1 $358 $139 $141 $242 forward $85 $-1 #
coedge $-1 $139 $358 $354 $359 forward $85 $-1 #
coedge $-1 $356 $142 $139 $239 forward $233 $-1 #
edge $-1 $245 8.0694567104599635 $360 18.65592448279887 $238 $361 forward 7 unknown #
coedge $-1 $362 $363 $140 $241 forward $352 $-1 #
edge $-1 $364 -12.810810361461535 $244 -6.8722534490859069 $240 $365 forward 7 unknown #
edge $-1 $245 -58.0885348470241 $364 -46.558208542970533 $141 $366 forward 7 unknown #
coedge $-1 $142 $356 $362 $367 reversed $233 $-1 #
vertex $-1 $367 $368 #
vertex $-1 $143 $369 #
straight-curve $-1 -21.43214730708938 29.044267423512043 46.868193995693083 0 0 -1 I I #
coedge $-1 $247 $247 $-1 $370 reversed $146 $-1 #
edge $-1 $371 0 $371 6.2831853071796004 $147 $372 forward 7 unknown #
vertex $-1 $150 $373 #
ellipse-curve $-1 -28.99391000161717 26.074988967324227 5.199984704826492 0 0.85716730853699208 0.51503806187062418 1 0 0 1 I I #
coedge $-1 $251 $251 $-1 $374 reversed $153 $-1 #
edge $-1 $375 0 $375 6.2831853071796004 $154 $376 forward 7 unknown #
vertex $-1 $157 $377 #
ellipse-curve $-1 -24.456852384900493 26.074988967324227 5.199984704826492 0 0.85716730853699208 0.51503806187062418 1 0 0 1 I I #
face $-1 $-1 $267 $33 $-1 $378 forward single #
loop $-1 $-1 $379 $158 #
plane-surface $-1 0 -29.044267423512043 0 0 1 0 0 0 1 forward_v I I I I #
coedge $-1 $380 $381 $382 $383 reversed $159 $-1 #
coedge $-1 $384 $161 $163 $265 forward $99 $-1 #
coedge $-1 $161 $384 $380 $385 forward $99 $-1 #
coedge $-1 $382 $164 $161 $262 forward $267 $-1 #
edge $-1 $269 -19.074591917821273 $386 -7.0231373746354215 $261 $387 forward 7 unknown #
coedge $-1 $388 $389 $162 $264 forward $256 $-1 #
edge $-1 $390 -32.687174418211697 $268 -23.090147023908667 $263 $391 forward 7 unknown #
edge $-1 $269 -15.249827292456697 $390 4.5775606565932064e-015 $163 $392 forward 7 unknown #
coedge $-1 $164 $382 $388 $393 forward $267 $-1 #
loop $-1 $-1 $382 $255 #
vertex $-1 $264 $394 #
vertex $-1 $165 $395 #
straight-curve $-1 32.123456564049619 -41.212217390273054 10.141694087125931 0 1 0 I I #
coedge $-1 $271 $271 $-1 $396 reversed $168 $-1 #
edge $-1 $397 0 $397 6.2831853071796004 $169 $398 forward 7 unknown #
vertex $-1 $172 $399 #
ellipse-curve $-1 23.515274747488291 -23.118596625139201 5.3431803899744139 0 -0.62932039886446345 0.77714595512881146 1 0 0 1 I I #
coedge $-1 $275 $275 $-1 $400 reversed $175 $-1 #
edge $-1 $401 0 $401 6.2831853071796004 $176 $402 forward 7 unknown #
vertex $-1 $179 $403 #
ellipse-curve $-1 28.680183837425076 -23.118596625139201 5.3431803899744139 0 -0.62932039886446345 0.77714595512881146 1 0 0 1 I I #
face $-1 $-1 $195 $27 $-1 $404 reversed single #
loop $-1 $-1 $295 $180 #
plane-surface $-1 0 29.044267423512043 0 0 -1 0 0 0 -1 forward_v I I I I #
coedge $-1 $405 $293 $296 $406 forward $181 $-1 #
coedge $-1 $299 $183 $184 $287 reversed $113 $-1 #
coedge $-1 $293 $405 $183 $285 reversed $181 $-1 #
edge $-1 $300 -10.141694087125931 $407 10.141694087125931 $284 $408 forward 7 unknown #
coedge $-1 $185 $184 $405 $409 forward $73 $-1 #
edge $-1 $291 -42.410962248603781 $407 42.410962248603781 $283 $410 forward 7 unknown #
coedge $-1 $296 $295 $185 $289 reversed $280 $-1 #
edge $-1 $411 -42.410962248603781 $290 42.410962248603781 $288 $412 forward 7 unknown #
vertex $-1 $187 $413 #
vertex $-1 $302 $414 #
straight-curve $-1 42.410962248603781 0 -10.141694087125931 0 -1 0 I I #
coedge $-1 $282 $284 $188 $294 reversed $181 $-1 #
edge $-1 $297 -29.044267423512043 $300 29.044267423512043 $293 $415 forward 7 unknown #
coedge $-1 $288 $189 $194 $303 forward $280 $-1 #
coedge $-1 $189 $288 $282 $406 reversed $280 $-1 #
vertex $-1 $190 $416 #
straight-curve $-1 0 29.044267423512043 10.141694087125931 -1 0 0 I I #
coedge $-1 $191 $283 $193 $302 reversed $113 $-1 #
vertex $-1 $294 $417 #
straight-curve $-1 0 -29.044267423512043 10.141694087125931 1 0 0 I I #
edge $-1 $196 -10.141694087125931 $291 10.141694087125931 $193 $418 forward 7 unknown #
edge $-1 $197 -10.141694087125931 $290 10.141694087125931 $194 $419 forward 7 unknown #
point $-1 42.410962248603781 -29.044267423512043 10.141694087125931 #
point $-1 42.410962248603781 29.044267423512043 10.141694087125931 #
face $-1 $-1 $316 $28 $-1 $420 reversed single #
loop $-1 $-1 $312 $199 #
plane-surface $-1 0 0 -10.141694087125931 0 0 1 1 0 0 forward_v I I I I #
coedge $-1 $421 $422 $207 $320 forward $200 $-1 #
coedge $-1 $202 $324 $314 $423 forward $121 $-1 #
edge $-1 $318 -15.414371897420326 $212 -11.845419154763109 $202 $424 forward 7 unknown #
coedge $-1 $425 $208 $203 $313 forward $307 $-1 #
edge $-1 $213 11.845419154763109 $317 15.414371897420326 $312 $426 forward 7 unknown #
coedge $-1 $427 $205 $310 $423 reversed $316 $-1 #
coedge $-1 $205 $427 $425 $428 reversed $316 $-1 #
loop $-1 $-1 $205 $306 #
vertex $-1 $428 $429 #
vertex $-1 $206 $430 #
straight-curve $-1 -32.018615079428287 -29.044267423512043 0 0 0 1 I I #
edge $-1 $325 -10.141694087125931 $322 10.141694087125931 $309 $431 forward 7 unknown #
coedge $-1 $208 $425 $421 $432 forward $307 $-1 #
vertex $-1 $209 $433 #
straight-curve $-1 -18.607394332008017 -25.475314680854826 -10.141694087125931 1 0 0 I I #
coedge $-1 $310 $210 $422 $434 forward $121 $-1 #
vertex $-1 $434 $435 #
straight-curve $-1 -18.607394332008017 -25.475314680854826 10.141694087125931 -1 0 0 I I #
point $-1 -32.018615079428287 -25.475314680854826 10.141694087125931 #
point $-1 -32.018615079428287 -25.475314680854826 -10.141694087125931 #
face $-1 $-1 $337 $29 $-1 $436 reversed single #
loop $-1 $-1 $333 $215 #
plane-surface $-1 0 0 -10.141694087125931 0 0 1 1 0 0 forward_v I I I I #
coedge $-1 $219 $218 $343 $437 reversed $81 $-1 #
coedge $-1 $438 $439 $218 $334 forward $330 $-1 #
edge $-1 $440 -29.044267423512043 $338 29.044267423512043 $333 $441 forward 7 unknown #
edge $-1 $339 -29.044267423512043 $345 29.044267423512043 $219 $442 forward 7 unknown #
coedge $-1 $220 $341 $438 $443 reversed $337 $-1 #
loop $-1 $-1 $223 $329 #
vertex $-1 $443 $444 #
vertex $-1 $224 $445 #
straight-curve $-1 34.838239405727172 29.044267423512043 -3.562808981323272 0 0 1 I I #
coedge $-1 $336 $223 $228 $349 forward $337 $-1 #
straight-curve $-1 19.31230041358274 29.044267423512043 -4.1095418381671571 1 0 0 I I #
coedge $-1 $446 $225 $332 $437 forward $216 $-1 #
coedge $-1 $225 $446 $227 $348 reversed $216 $-1 #
vertex $-1 $226 $447 #
straight-curve $-1 19.31230041358274 -29.044267423512043 -4.1095418381671571 -1 0 0 I I #
coedge $-1 $228 $227 $448 $449 reversed $129 $-1 #
edge $-1 $230 4.1095418381671571 $450 10.141694087125931 $227 $451 forward 7 unknown #
edge $-1 $229 4.1095418381671571 $452 10.141694087125931 $228 $453 forward 7 unknown #
point $-1 42.410962248603788 29.044267423512043 -4.1095418381671571 #
point $-1 42.410962248603788 -29.044267423512043 -4.1095418381671571 #
loop $-1 $-1 $240 $232 #
plane-surface $-1 0 0 10.141694087125931 0 0 1 1 0 0 forward_v I I I I #
coedge $-1 $355 $235 $237 $359 reversed $137 $-1 #
coedge $-1 $235 $354 $454 $455 reversed $137 $-1 #
coedge $-1 $243 $238 $235 $357 forward $233 $-1 #
edge $-1 $360 -46.609918673166028 $456 -36.726499908567149 $356 $457 forward 7 unknown #
coedge $-1 $237 $236 $363 $458 reversed $85 $-1 #
edge $-1 $459 46.558208542970533 $360 58.0885348470241 $354 $460 forward 7 unknown #
vertex $-1 $239 $461 #
straight-curve $-1 -13.362690596629417 29.044267423512043 0.25827532252705154 -1 0 0 I I #
coedge $-1 $454 $240 $243 $367 forward $352 $-1 #
coedge $-1 $240 $454 $358 $458 forward $352 $-1 #
vertex $-1 $241 $462 #
straight-curve $-1 -21.43214730708938 35.91652087259795 10.141694087125934 0 1 0 I I #
straight-curve $-1 -21.43214730708938 -0.87353898100346328 50.049868394207969 0 -0.51503806187062418 0.85716730853699208 I I #
edge $-1 $244 21.43214730708938 $456 32.018615079428287 $243 $463 forward 7 unknown #
point $-1 -21.43214730708938 29.044267423512043 10.141694087125931 #
point $-1 -21.43214730708938 29.044267423512043 0.2582753225270551 #
edge $-1 $464 1 $464 0 $247 $-1 forward 7 unknown #
vertex $-1 $248 $465 #
ellipse-curve $-1 -28.99391000161717 24.184418010102732 4.0640151082979186 0 0.85716730853699208 0.51503806187062418 1 0 0 1 I I #
point $-1 -27.99391000161717 26.074988967324234 5.1999847048264956 #
edge $-1 $466 1 $466 0 $251 $-1 forward 7 unknown #
vertex $-1 $252 $467 #
ellipse-curve $-1 -24.456852384900493 24.184418010102732 4.0640151082979186 0 0.85716730853699208 0.51503806187062418 1 0 0 1 I I #
point $-1 -23.456852384900493 26.074988967324234 5.1999847048264956 #
plane-surface $-1 0 0 10.141694087125931 0 0 1 1 0 0 forward_v I I I I #
coedge $-1 $389 $388 $381 $468 forward $256 $-1 #
coedge $-1 $381 $258 $260 $385 reversed $159 $-1 #
coedge $-1 $258 $380 $379 $468 reversed $159 $-1 #
coedge $-1 $266 $261 $258 $383 forward $267 $-1 #
edge $-1 $386 -24.019291563506691 $469 -12.167949966761011 $382 $470 forward 7 unknown #
coedge $-1 $260 $259 $389 $471 reversed $99 $-1 #
edge $-1 $472 -4.5775606565932064e-015 $386 15.249827292456697 $380 $473 forward 7 unknown #
vertex $-1 $262 $474 #
straight-curve $-1 13.048864646228346 -17.192925826766359 10.141694087125931 -1 0 0 I I #
coedge $-1 $379 $263 $266 $393 reversed $256 $-1 #
coedge $-1 $263 $379 $384 $471 forward $256 $-1 #
vertex $-1 $264 $475 #
straight-curve $-1 32.123456564049619 -29.044267423512043 33.231841111034598 0 0 1 I I #
straight-curve $-1 32.123456564049619 -29.044267423512039 0.5446666928229007 0 -0.77714595512881146 -0.62932039886446345 I I #
edge $-1 $469 20.072002020863767 $268 32.123456564049619 $388 $476 forward 7 unknown #
point $-1 32.123456564049619 -29.044267423512043 10.141694087125931 #
point $-1 32.123456564049619 -17.192925826766363 10.141694087125931 #
edge $-1 $477 1 $477 0 $271 $-1 forward 7 unknown #
vertex $-1 $272 $478 #
ellipse-curve $-1 23.515274747488291 -21.768017085707822 3.6753535913473412 0 -0.62932039886446345 0.77714595512881146 1 0 0 1 I I #
point $-1 24.515274747488291 -23.118596625139201 5.3431803899744121 #
edge $-1 $479 1 $479 0 $275 $-1 forward 7 unknown #
vertex $-1 $276 $480 #
ellipse-curve $-1 28.680183837425076 -21.768017085707822 3.6753535913473412 0 -0.62932039886446345 0.77714595512881146 1 0 0 1 I I #
point $-1 29.680183837425076 -23.118596625139201 5.3431803899744121 #
plane-surface $-1 42.410962248603781 0 0 -1 0 0 0 0 1 forward_v I I I I #
coedge $-1 $284 $282 $286 $409 reversed $181 $-1 #
edge $-1 $297 -10.141694087125931 $411 10.141694087125931 $296 $481 forward 7 unknown #
vertex $-1 $409 $482 #
straight-curve $-1 -42.410962248603781 -29.044267423512043 0 0 0 -1 I I #
edge $-1 $407 -29.044267423512043 $411 29.044267423512043 $405 $483 forward 7 unknown #
straight-curve $-1 0 -29.044267423512043 -10.141694087125931 -1 0 0 I I #
vertex $-1 $289 $484 #
straight-curve $-1 0 29.044267423512043 -10.141694087125931 1 0 0 I I #
point $-1 42.410962248603781 29.044267423512043 -10.141694087125931 #
point $-1 42.410962248603781 -29.044267423512043 -10.141694087125931 #
straight-curve $-1 -42.410962248603781 0 10.141694087125931 0 -1 0 I I #
point $-1 -42.410962248603781 29.044267423512043 10.141694087125931 #
point $-1 -42.410962248603781 -29.044267423512043 10.141694087125931 #
straight-curve $-1 42.410962248603781 -29.044267423512043 0 0 0 -1 I I #
straight-curve $-1 42.410962248603781 29.044267423512043 0 0 0 -1 I I #
plane-surface $-1 0 -29.044267423512043 0 0 1 0 0 0 1 forward_v I I I I #
coedge $-1 $485 $309 $321 $432 reversed $200 $-1 #
coedge $-1 $309 $485 $324 $434 reversed $200 $-1 #
edge $-1 $486 -42.410962248603781 $318 -32.018615079428287 $314 $487 forward 7 unknown #
straight-curve $-1 -32.018615079428287 -13.629895526091717 10.141694087125931 0 1 0 I I #
coedge $-1 $321 $312 $315 $428 forward $307 $-1 #
straight-curve $-1 -32.018615079428287 -13.629895526091717 -10.141694087125931 0 -1 0 I I #
coedge $-1 $315 $314 $485 $488 forward $316 $-1 #
edge $-1 $317 32.018615079428287 $489 42.410962248603781 $315 $490 forward 7 unknown #
point $-1 -32.018615079428287 -29.044267423512043 -10.141694087125931 #
point $-1 -32.018615079428287 -29.044267423512043 10.141694087125931 #
straight-curve $-1 -42.410962248603781 -25.475314680854826 0 0 0 -1 I I #
edge $-1 $489 -29.044267423512043 $322 -25.475314680854826 $421 $491 forward 7 unknown #
point $-1 -42.410962248603781 -25.475314680854826 -10.141694087125931 #
edge $-1 $325 25.475314680854826 $486 29.044267423512043 $422 $492 forward 7 unknown #
point $-1 -42.410962248603781 -25.475314680854826 10.141694087125931 #
plane-surface $-1 0 29.044267423512043 0 0 -1 0 0 0 -1 forward_v I I I I #
edge $-1 $345 0.54673285684388517 $440 6.5788851058026587 $343 $493 forward 7 unknown #
coedge $-1 $448 $333 $336 $443 forward $330 $-1 #
coedge $-1 $333 $448 $446 $494 forward $330 $-1 #
vertex $-1 $334 $495 #
straight-curve $-1 34.838239405727172 0 -10.141694087125931 0 1 0 I I #
straight-curve $-1 34.838239405727172 0 -4.1095418381671571 0 -1 0 I I #
edge $-1 $338 34.838239405727172 $452 42.410962248603781 $336 $496 forward 7 unknown #
point $-1 34.838239405727172 29.044267423512043 -10.141694087125931 #
point $-1 34.838239405727172 29.044267423512043 -4.1095418381671571 #
coedge $-1 $344 $343 $439 $494 reversed $216 $-1 #
point $-1 34.838239405727172 -29.044267423512043 -4.1095418381671571 #
coedge $-1 $439 $438 $347 $449 forward $330 $-1 #
edge $-1 $452 -29.044267423512043 $450 29.044267423512043 $347 $497 forward 7 unknown #
vertex $-1 $348 $498 #
straight-curve $-1 42.410962248603781 -29.044267423512043 0 0 0 -1 I I #
vertex $-1 $449 $499 #
straight-curve $-1 42.410962248603781 29.044267423512043 0 0 0 -1 I I #
coedge $-1 $363 $362 $355 $455 forward $352 $-1 #
edge $-1 $456 6.8722534490859069 $459 12.810810361461535 $454 $500 forward 7 unknown #
vertex $-1 $455 $501 #
straight-curve $-1 -32.018615079428287 29.044267423512043 46.868193995693083 0 0 1 I I #
edge $-1 $459 -18.65592448279887 $364 -8.0694567104599635 $363 $502 forward 7 unknown #
vertex $-1 $458 $503 #
straight-curve $-1 -32.018615079428287 -0.87353898100346328 50.049868394207969 0 0.51503806187062418 -0.85716730853699208 I I #
point $-1 -32.018615079428287 29.044267423512043 0.2582753225270551 #
point $-1 -21.43214730708938 23.105710511136415 10.141694087125934 #
straight-curve $-1 0 29.044267423512043 10.141694087125931 -1 0 0 I I #
vertex $-1 $370 $504 #
point $-1 -27.99391000161717 24.184418010102732 4.0640151082979186 #
vertex $-1 $374 $505 #
point $-1 -23.456852384900493 24.184418010102732 4.0640151082979186 #
edge $-1 $469 23.090147023908667 $472 32.687174418211697 $379 $506 forward 7 unknown #
vertex $-1 $393 $507 #
straight-curve $-1 20.072002020863767 -41.212217390273054 10.141694087125931 0 -1 0 I I #
edge $-1 $472 7.0231373746354215 $390 19.074591917821273 $389 $508 forward 7 unknown #
vertex $-1 $471 $509 #
straight-curve $-1 20.072002020863767 -29.044267423512039 0.5446666928229007 0 0.77714595512881146 0.62932039886446345 I I #
point $-1 20.072002020863767 -17.192925826766363 10.141694087125931 #
point $-1 32.123456564049619 -29.044267423512043 0.54466669282289781 #
straight-curve $-1 0 -29.044267423512043 10.141694087125931 1 0 0 I I #
vertex $-1 $396 $510 #
point $-1 24.515274747488291 -21.768017085707822 3.6753535913473412 #
vertex $-1 $400 $511 #
point $-1 29.680183837425076 -21.768017085707822 3.6753535913473412 #
straight-curve $-1 -42.410962248603781 29.044267423512043 0 0 0 -1 I I #
point $-1 -42.410962248603781 -29.044267423512043 -10.141694087125931 #
straight-curve $-1 -42.410962248603781 0 -10.141694087125931 0 1 0 I I #
point $-1 -42.410962248603781 29.044267423512043 -10.141694087125931 #
coedge $-1 $422 $421 $427 $488 reversed $200 $-1 #
vertex $-1 $434 $512 #
straight-curve $-1 0 -29.044267423512043 10.141694087125931 1 0 0 I I #
edge $-1 $486 -10.141694087125931 $489 10.141694087125931 $485 $513 forward 7 unknown #
vertex $-1 $432 $514 #
straight-curve $-1 0 -29.044267423512043 -10.141694087125931 -1 0 0 I I #
straight-curve $-1 -42.410962248603781 0 -10.141694087125931 0 1 0 I I #
straight-curve $-1 -42.410962248603781 0 10.141694087125931 0 -1 0 I I #
straight-curve $-1 34.838239405727172 -29.044267423512043 -3.562808981323272 0 0 -1 I I #
edge $-1 $450 -42.410962248603781 $440 -34.838239405727172 $446 $515 forward 7 unknown #
point $-1 34.838239405727172 -29.044267423512043 -10.141694087125931 #
straight-curve $-1 0 29.044267423512043 -10.141694087125931 1 0 0 I I #
straight-curve $-1 42.410962248603781 0 -10.141694087125931 0 -1 0 I I #
point $-1 42.410962248603781 -29.044267423512043 -10.141694087125931 #
point $-1 42.410962248603781 29.044267423512043 -10.141694087125931 #
straight-curve $-1 -32.018615079428287 35.91652087259795 10.141694087125934 0 -1 0 I I #
point $-1 -32.018615079428287 29.044267423512043 10.141694087125931 #
straight-curve $-1 -13.362690596629417 23.105710511136415 10.141694087125934 1 0 0 I I #
point $-1 -32.018615079428287 23.105710511136415 10.141694087125934 #
point $-1 -28.99391000161717 23.327250701565738 3.5489770464272943 #
point $-1 -24.456852384900493 23.327250701565738 3.5489770464272943 #
straight-curve $-1 20.072002020863767 -29.044267423512043 33.231841111034598 0 0 -1 I I #
point $-1 20.072002020863767 -29.044267423512043 10.141694087125931 #
straight-curve $-1 13.048864646228346 -29.044267423512043 0.54466669282289737 1 0 0 I I #
point $-1 20.072002020863767 -29.044267423512043 0.54466669282289781 #
point $-1 23.515274747488291 -21.138696686843357 2.8982076362185305 #
point $-1 28.680183837425076 -21.138696686843357 2.8982076362185305 #
point $-1 -42.410962248603781 -29.044267423512043 10.141694087125931 #
straight-curve $-1 -42.410962248603781 -29.044267423512043 0 0 0 -1 I I #
point $-1 -42.410962248603781 -29.044267423512043 -10.141694087125931 #
straight-curve $-1 0 -29.044267423512043 -10.141694087125931 -1 0 0 I I #
End-of-ACIS-data 