500 0 5 0           
7 Unknown 11 ACIS 5.0 NT 24 Thu Mar 25 15:28:15 1999 
-1 9.9999999999999995e-007 1e-010 
body $-1 $5 $-1 $6 #
body $-1 $7 $-1 $8 #
body $-1 $9 $-1 $10 #
body $-1 $11 $-1 $12 #
body $-1 $13 $-1 $14 #
lump $-1 $-1 $15 $0 #
transform $-1 1 0 0 0 1 0 0 0 1 45.420087282937104 25.540152965043269 5.7587912275041715 1 rotate no_reflect no_shear #
lump $-1 $-1 $16 $1 #
transform $-1 1 0 0 0 1 0 0 0 1 45.420087282937104 25.540152965043269 5.7587912275041715 1 rotate no_reflect no_shear #
lump $-1 $-1 $17 $2 #
transform $-1 1 0 0 0 1 0 0 0 1 45.420087282937104 25.540152965043269 5.7587912275041715 1 rotate no_reflect no_shear #
lump $-1 $-1 $18 $3 #
transform $-1 1 0 0 0 1 0 0 0 1 45.420087282937104 25.540152965043269 5.7587912275041715 1 rotate no_reflect no_shear #
lump $-1 $-1 $19 $4 #
transform $-1 1 0 0 0 1 0 0 0 1 45.420087282937104 25.540152965043269 5.7587912275041715 1 rotate no_reflect no_shear #
shell $-1 $-1 $-1 $20 $-1 $5 #
shell $-1 $-1 $-1 $21 $-1 $7 #
shell $-1 $-1 $-1 $22 $-1 $9 #
shell $-1 $-1 $-1 $23 $-1 $11 #
shell $-1 $-1 $-1 $24 $-1 $13 #
face $-1 $25 $26 $15 $-1 $27 forward single #
face $-1 $28 $29 $16 $-1 $30 reversed single #
face $-1 $31 $32 $17 $-1 $33 reversed single #
face $-1 $34 $35 $18 $-1 $36 forward single #
face $-1 $37 $38 $19 $-1 $39 forward single #
face $-1 $40 $41 $15 $-1 $42 reversed single #
loop $-1 $-1 $43 $20 #
plane-surface $-1 0 0 5.7587912275041715 0 0 1 1 0 0 forward_v I I I I #
face $-1 $44 $45 $16 $-1 $46 reversed single #
loop $-1 $-1 $47 $21 #
plane-surface $-1 0 -22.625435171631654 2.7587912275041715 0 0 1 1 0 0 forward_v I I I I #
face $-1 $48 $49 $17 $-1 $50 reversed single #
loop $-1 $-1 $51 $22 #
plane-surface $-1 20.907351543150966 -11.240036040058584 126.27430866842774 0 -1 0 -0.55919291073839883 0 -0.82903756765294845 forward_v I I I I #
face $-1 $52 $53 $18 $-1 $54 forward single #
loop $-1 $55 $56 $23 #
cone-surface $-1 40.318170438548734 -17.29052271017391 1.5442094363913605 -0.55919291073839883 0 -0.82903756765294845 0.82903756765294845 0 -0.55919291073839883 1 I I 0 1 1 forward I I I I #
face $-1 $57 $58 $19 $-1 $59 forward single #
loop $-1 $60 $61 $24 #
cone-surface $-1 40.318170438548734 -13.660230708104713 1.5442094363913605 -0.55919291073839883 0 -0.82903756765294845 0.82903756765294845 0 -0.55919291073839883 1 I I 0 1 1 forward I I I I #
face $-1 $62 $63 $15 $-1 $64 reversed single #
loop $-1 $-1 $65 $25 #
plane-surface $-1 0 0 -5.7587912275041715 0 0 1 1 0 0 forward_v I I I I #
coedge $-1 $66 $67 $68 $69 forward $26 $-1 #
face $-1 $70 $71 $16 $-1 $72 reversed single #
loop $-1 $-1 $73 $28 #
plane-surface $-1 0 -19.710717378220039 4.2587912275041715 0 -1 0 0 0 -1 forward_v I I I I #
coedge $-1 $74 $75 $76 $77 reversed $29 $-1 #
face $-1 $78 $79 $17 $-1 $80 forward single #
loop $-1 $-1 $81 $31 #
plane-surface $-1 -29.889830084324494 -15.475376709139312 50.964391301166145 0.55919291073839883 0 0.82903756765294845 0.82903756765294845 0 -0.55919291073839883 forward_v I I I I #
coedge $-1 $82 $83 $84 $85 reversed $32 $-1 #
face $-1 $-1 $86 $18 $-1 $87 forward single #
loop $-1 $88 $89 $34 #
cone-surface $-1 39.081587342381724 -17.29052271017391 -0.28910036164119202 -0.55919291073839883 0 -0.82903756765294845 0.41451878382647422 0 -0.27959645536919941 1 I I -0.70710678118654735 0.70710678118654768 0.5 forward I I I I #
loop $-1 $-1 $90 $23 #
coedge $-1 $56 $56 $91 $92 reversed $35 $-1 #
face $-1 $-1 $93 $19 $-1 $94 forward single #
loop $-1 $95 $96 $37 #
cone-surface $-1 39.081587342381724 -13.660230708104713 -0.28910036164119202 -0.55919291073839883 0 -0.82903756765294845 0.41451878382647422 0 -0.27959645536919941 1 I I -0.70710678118654735 0.70710678118654768 0.5 forward I I I I #
loop $-1 $-1 $97 $24 #
coedge $-1 $61 $61 $98 $99 reversed $38 $-1 #
face $-1 $100 $101 $15 $-1 $102 reversed single #
loop $-1 $-1 $103 $40 #
plane-surface $-1 0 -25.540152965043269 0 0 1 0 0 0 1 forward_v I I I I #
coedge $-1 $104 $105 $106 $107 forward $41 $-1 #
coedge $-1 $108 $43 $109 $110 forward $26 $-1 #
coedge $-1 $43 $108 $111 $112 forward $26 $-1 #
coedge $-1 $113 $114 $43 $69 reversed $115 $-1 #
edge $-1 $116 -25.540152965043269 $117 25.540152965043269 $68 $118 forward 7 unknown #
face $-1 $119 $120 $16 $-1 $121 reversed single #
loop $-1 $-1 $122 $44 #
plane-surface $-1 -45.420087282937104 0 0 1 0 0 0 0 -1 forward_v I I I I #
coedge $-1 $123 $124 $75 $125 reversed $45 $-1 #
coedge $-1 $126 $47 $127 $128 reversed $29 $-1 #
coedge $-1 $47 $126 $73 $125 forward $29 $-1 #
coedge $-1 $129 $130 $47 $77 forward $131 $-1 #
edge $-1 $132 -14.227435379227442 $133 -8.397999792404212 $76 $134 forward 7 unknown #
face $-1 $135 $136 $17 $-1 $137 forward single #
loop $-1 $-1 $138 $48 #
plane-surface $-1 0 -19.710717378220039 4.2587912275041715 0 -1 0 0 0 -1 forward_v I I I I #
coedge $-1 $139 $140 $141 $142 reversed $49 $-1 #
coedge $-1 $83 $51 $143 $144 reversed $32 $-1 #
coedge $-1 $51 $82 $139 $145 reversed $32 $-1 #
coedge $-1 $141 $146 $51 $85 forward $136 $-1 #
edge $-1 $147 -34.966411511361621 $148 -26.676551104180476 $84 $149 forward 7 unknown #
loop $-1 $-1 $91 $52 #
plane-surface $-1 -29.889830084324494 -15.475376709139312 50.964391301166145 0.55919291073839883 0 0.82903756765294845 0.82903756765294845 0 -0.55919291073839883 forward_v I I I I #
loop $-1 $-1 $150 $34 #
coedge $-1 $89 $89 $90 $151 reversed $53 $-1 #
coedge $-1 $90 $90 $89 $151 forward $55 $-1 #
coedge $-1 $91 $91 $56 $92 forward $86 $-1 #
edge $-1 $152 0 $152 6.2831853071796004 $91 $153 forward 7 unknown #
loop $-1 $-1 $98 $57 #
plane-surface $-1 -29.889830084324494 -15.475376709139312 50.964391301166145 0.55919291073839883 0 0.82903756765294845 0.82903756765294845 0 -0.55919291073839883 forward_v I I I I #
loop $-1 $-1 $154 $37 #
coedge $-1 $96 $96 $97 $155 reversed $58 $-1 #
coedge $-1 $97 $97 $96 $155 forward $60 $-1 #
coedge $-1 $98 $98 $61 $99 forward $93 $-1 #
edge $-1 $156 0 $156 6.2831853071796004 $98 $157 forward 7 unknown #
face $-1 $158 $159 $15 $-1 $160 reversed single #
loop $-1 $-1 $161 $62 #
plane-surface $-1 -45.420087282937104 0 0 1 0 0 0 0 -1 forward_v I I I I #
coedge $-1 $162 $111 $163 $164 forward $63 $-1 #
coedge $-1 $165 $65 $162 $166 forward $41 $-1 #
coedge $-1 $65 $165 $167 $168 forward $41 $-1 #
coedge $-1 $114 $113 $65 $107 reversed $115 $-1 #
edge $-1 $169 -25.540152965043269 $170 25.540152965043269 $106 $171 forward 7 unknown #
coedge $-1 $67 $66 $172 $173 forward $26 $-1 #
coedge $-1 $174 $175 $66 $110 reversed $159 $-1 #
edge $-1 $117 -45.420087282937104 $176 45.420087282937104 $109 $177 forward 7 unknown #
coedge $-1 $103 $178 $67 $112 reversed $63 $-1 #
edge $-1 $179 -45.420087282937104 $116 45.420087282937104 $111 $180 forward 7 unknown #
coedge $-1 $106 $68 $178 $181 forward $115 $-1 #
coedge $-1 $68 $106 $174 $182 reversed $115 $-1 #
loop $-1 $-1 $113 $158 #
vertex $-1 $69 $183 #
vertex $-1 $69 $184 #
straight-curve $-1 45.420087282937104 0 5.7587912275041715 0 1 0 I I #
face $-1 $185 $186 $16 $-1 $187 forward single #
loop $-1 $-1 $127 $70 #
plane-surface $-1 0 -25.540152965043269 0 0 1 0 0 0 1 forward_v I I I I #
coedge $-1 $188 $189 $123 $190 forward $71 $-1 #
coedge $-1 $191 $73 $122 $190 reversed $45 $-1 #
coedge $-1 $73 $191 $129 $192 reversed $45 $-1 #
edge $-1 $193 -45.420087282937104 $133 45.420087282937104 $73 $194 forward 7 unknown #
coedge $-1 $75 $74 $188 $195 reversed $29 $-1 #
coedge $-1 $196 $197 $74 $128 forward $120 $-1 #
edge $-1 $198 -45.420087282937104 $132 45.420087282937104 $127 $199 forward 7 unknown #
coedge $-1 $200 $76 $124 $192 forward $131 $-1 #
coedge $-1 $76 $200 $196 $201 forward $131 $-1 #
loop $-1 $-1 $129 $185 #
vertex $-1 $128 $202 #
vertex $-1 $77 $203 #
straight-curve $-1 45.420087282937104 -11.312717585815827 2.7587912275041715 0 1 0 I I #
face $-1 $-1 $204 $17 $-1 $205 reversed single #
loop $-1 $-1 $141 $78 #
plane-surface $-1 0 0 5.7587912275041715 0 0 1 1 0 0 forward_v I I I I #
coedge $-1 $206 $207 $140 $208 reversed $79 $-1 #
coedge $-1 $209 $81 $83 $145 forward $49 $-1 #
coedge $-1 $81 $209 $138 $208 forward $49 $-1 #
coedge $-1 $210 $84 $81 $142 forward $136 $-1 #
edge $-1 $148 3.5023476854889282 $211 11.973029023650383 $141 $212 forward 7 unknown #
coedge $-1 $213 $214 $82 $144 forward $204 $-1 #
edge $-1 $215 -62.969944660523183 $147 -57.378363106709699 $143 $216 forward 7 unknown #
edge $-1 $148 80.840796093014177 $215 90.840174565874207 $83 $217 forward 7 unknown #
coedge $-1 $84 $210 $213 $218 forward $136 $-1 #
vertex $-1 $144 $219 #
vertex $-1 $85 $220 #
straight-curve $-1 10.453675771575483 -11.240036040058584 5.7587912275041688 -1 0 0 I I #
coedge $-1 $150 $150 $-1 $221 reversed $88 $-1 #
edge $-1 $222 0 $222 6.2831853071796004 $89 $223 forward 7 unknown #
vertex $-1 $92 $224 #
ellipse-curve $-1 41.275157079346535 -17.29052271017391 2.9630004505974217 0.55919291073839883 0 0.82903756765294845 0.82903756765294845 0 -0.55919291073839883 1 I I #
coedge $-1 $154 $154 $-1 $225 reversed $95 $-1 #
edge $-1 $226 0 $226 6.2831853071796004 $96 $227 forward 7 unknown #
vertex $-1 $99 $228 #
ellipse-curve $-1 41.275157079346535 -13.660230708104713 2.9630004505974217 0.55919291073839883 0 0.82903756765294845 0.82903756765294845 0 -0.55919291073839883 1 I I #
face $-1 $-1 $115 $15 $-1 $229 reversed single #
loop $-1 $-1 $174 $100 #
plane-surface $-1 0 25.540152965043269 0 0 -1 0 0 0 -1 forward_v I I I I #
coedge $-1 $230 $172 $175 $231 forward $101 $-1 #
coedge $-1 $178 $103 $104 $166 reversed $63 $-1 #
coedge $-1 $172 $230 $103 $164 reversed $101 $-1 #
edge $-1 $179 -5.7587912275041715 $232 5.7587912275041715 $163 $233 forward 7 unknown #
coedge $-1 $105 $104 $230 $234 forward $41 $-1 #
edge $-1 $170 -45.420087282937104 $232 45.420087282937104 $162 $235 forward 7 unknown #
coedge $-1 $175 $174 $105 $168 reversed $159 $-1 #
edge $-1 $236 -45.420087282937104 $169 45.420087282937104 $167 $237 forward 7 unknown #
vertex $-1 $107 $238 #
vertex $-1 $181 $239 #
straight-curve $-1 45.420087282937104 0 -5.7587912275041715 0 -1 0 I I #
coedge $-1 $161 $163 $108 $173 reversed $101 $-1 #
edge $-1 $176 -25.540152965043269 $179 25.540152965043269 $172 $240 forward 7 unknown #
coedge $-1 $167 $109 $114 $182 forward $159 $-1 #
coedge $-1 $109 $167 $161 $231 reversed $159 $-1 #
vertex $-1 $110 $241 #
straight-curve $-1 0 25.540152965043269 5.7587912275041715 -1 0 0 I I #
coedge $-1 $111 $162 $113 $181 reversed $63 $-1 #
vertex $-1 $173 $242 #
straight-curve $-1 0 -25.540152965043269 5.7587912275041715 1 0 0 I I #
edge $-1 $116 -5.7587912275041715 $170 5.7587912275041715 $113 $243 forward 7 unknown #
edge $-1 $117 -5.7587912275041715 $169 5.7587912275041715 $114 $244 forward 7 unknown #
point $-1 45.420087282937104 -25.540152965043269 5.7587912275041715 #
point $-1 45.420087282937104 25.540152965043269 5.7587912275041715 #
face $-1 $-1 $131 $16 $-1 $245 reversed single #
loop $-1 $-1 $246 $119 #
plane-surface $-1 0 0 5.7587912275041715 0 0 1 1 0 0 forward_v I I I I #
coedge $-1 $247 $122 $126 $195 forward $71 $-1 #
coedge $-1 $122 $247 $248 $249 reversed $71 $-1 #
edge $-1 $250 -3.6293956137520857 $193 -0.62939561375208575 $122 $251 forward 7 unknown #
coedge $-1 $124 $123 $246 $252 reversed $45 $-1 #
edge $-1 $133 0.62939561375208575 $253 3.6293956137520857 $129 $254 forward 7 unknown #
vertex $-1 $195 $255 #
straight-curve $-1 0 -19.710717378220039 2.7587912275041715 1 0 0 I I #
edge $-1 $193 8.397999792404212 $198 14.227435379227442 $188 $256 forward 7 unknown #
coedge $-1 $257 $127 $130 $201 reversed $120 $-1 #
coedge $-1 $127 $257 $247 $258 forward $120 $-1 #
vertex $-1 $128 $259 #
straight-curve $-1 0 -25.540152965043269 2.7587912275041715 1 0 0 I I #
coedge $-1 $130 $129 $260 $261 reversed $131 $-1 #
edge $-1 $262 -5.7587912275041715 $132 -2.7587912275041715 $130 $263 forward 7 unknown #
point $-1 45.420087282937104 -25.540152965043269 2.7587912275041715 #
point $-1 45.420087282937104 -19.710717378220039 2.7587912275041715 #
loop $-1 $-1 $143 $135 #
plane-surface $-1 45.420087282937104 0 0 -1 0 0 0 0 1 forward_v I I I I #
coedge $-1 $207 $138 $264 $265 reversed $79 $-1 #
coedge $-1 $138 $206 $210 $266 reversed $79 $-1 #
edge $-1 $267 -90.840174565874207 $211 -80.840796093014163 $138 $268 forward 7 unknown #
coedge $-1 $140 $139 $214 $269 reversed $49 $-1 #
coedge $-1 $146 $141 $207 $266 forward $136 $-1 #
vertex $-1 $266 $270 #
straight-curve $-1 37.130226875755959 -7.7376883545696558 5.7587912275041724 0 -1 0 I I #
coedge $-1 $264 $143 $146 $218 reversed $204 $-1 #
coedge $-1 $143 $264 $209 $269 forward $204 $-1 #
vertex $-1 $144 $271 #
straight-curve $-1 45.420087282937104 -11.240036040058584 63.137154334213868 0 0 1 I I #
straight-curve $-1 -29.889830084324494 -11.240036040058584 50.964391301166145 0.82903756765294845 0 -0.55919291073839883 I I #
edge $-1 $272 -19.710717378220039 $147 -11.240036040058584 $213 $273 forward 7 unknown #
point $-1 45.420087282937104 -11.240036040058584 5.7587912275041715 #
point $-1 37.130226875755959 -11.240036040058584 5.7587912275041688 #
edge $-1 $274 1 $274 0 $150 $-1 forward 7 unknown #
vertex $-1 $151 $275 #
ellipse-curve $-1 39.361183797750925 -17.29052271017391 0.12541842218528237 0.55919291073839883 0 0.82903756765294845 0.82903756765294845 0 -0.55919291073839883 1 I I #
point $-1 42.104194646999488 -17.29052271017391 2.4038075398590402 #
edge $-1 $276 1 $276 0 $154 $-1 forward 7 unknown #
vertex $-1 $155 $277 #
ellipse-curve $-1 39.361183797750925 -13.660230708104713 0.12541842218528237 0.55919291073839883 0 0.82903756765294845 0.82903756765294845 0 -0.55919291073839883 1 I I #
point $-1 42.104194646999488 -13.660230708104713 2.4038075398590402 #
plane-surface $-1 45.420087282937104 0 0 -1 0 0 0 0 1 forward_v I I I I #
coedge $-1 $163 $161 $165 $234 reversed $101 $-1 #
edge $-1 $176 -5.7587912275041715 $236 5.7587912275041715 $175 $278 forward 7 unknown #
vertex $-1 $234 $279 #
straight-curve $-1 -45.420087282937104 -25.540152965043269 0 0 0 -1 I I #
edge $-1 $232 -25.540152965043269 $236 25.540152965043269 $230 $280 forward 7 unknown #
straight-curve $-1 0 -25.540152965043269 -5.7587912275041715 -1 0 0 I I #
vertex $-1 $168 $281 #
straight-curve $-1 0 25.540152965043269 -5.7587912275041715 1 0 0 I I #
point $-1 45.420087282937104 25.540152965043269 -5.7587912275041715 #
point $-1 45.420087282937104 -25.540152965043269 -5.7587912275041715 #
straight-curve $-1 -45.420087282937104 0 5.7587912275041715 0 -1 0 I I #
point $-1 -45.420087282937104 25.540152965043269 5.7587912275041715 #
point $-1 -45.420087282937104 -25.540152965043269 5.7587912275041715 #
straight-curve $-1 45.420087282937104 -25.540152965043269 0 0 0 -1 I I #
straight-curve $-1 45.420087282937104 25.540152965043269 0 0 0 -1 I I #
plane-surface $-1 45.420087282937104 0 0 -1 0 0 0 0 1 forward_v I I I I #
coedge $-1 $248 $260 $191 $252 forward $186 $-1 #
coedge $-1 $189 $188 $197 $258 reversed $71 $-1 #
coedge $-1 $282 $246 $189 $249 forward $186 $-1 #
edge $-1 $250 19.710717378220039 $283 25.540152965043269 $189 $284 forward 7 unknown #
vertex $-1 $249 $285 #
straight-curve $-1 -45.420087282937104 -19.710717378220039 2.1293956137520857 0 0 -1 I I #
edge $-1 $253 -45.420087282937104 $250 45.420087282937104 $246 $286 forward 7 unknown #
vertex $-1 $192 $287 #
straight-curve $-1 45.420087282937104 -19.710717378220039 2.1293956137520857 0 0 1 I I #
point $-1 -45.420087282937104 -19.710717378220039 2.7587912275041715 #
straight-curve $-1 -45.420087282937104 -11.312717585815827 2.7587912275041715 0 -1 0 I I #
coedge $-1 $197 $196 $282 $288 reversed $120 $-1 #
edge $-1 $283 -5.7587912275041715 $198 -2.7587912275041715 $247 $289 forward 7 unknown #
point $-1 -45.420087282937104 -25.540152965043269 2.7587912275041715 #
coedge $-1 $246 $282 $200 $261 forward $186 $-1 #
edge $-1 $262 -25.540152965043269 $253 -19.710717378220039 $200 $290 forward 7 unknown #
vertex $-1 $261 $291 #
straight-curve $-1 45.420087282937104 -25.540152965043269 0 0 0 -1 I I #
coedge $-1 $214 $213 $206 $265 forward $204 $-1 #
edge $-1 $272 57.378363106709699 $267 62.969944660523183 $264 $292 forward 7 unknown #
edge $-1 $211 37.130226875755952 $272 45.420087282937104 $210 $293 forward 7 unknown #
vertex $-1 $265 $294 #
straight-curve $-1 -29.889830084324494 -19.710717378220039 50.964391301166145 -0.82903756765294845 0 0.55919291073839883 I I #
edge $-1 $267 -11.973029023650383 $215 -3.5023476854889282 $214 $295 forward 7 unknown #
point $-1 37.130226875755952 -19.710717378220039 5.7587912275041715 #
point $-1 45.420087282937097 -11.240036040058584 0.16720967369068518 #
vertex $-1 $218 $296 #
straight-curve $-1 45.420087282937104 0 5.7587912275041715 0 1 0 I I #
vertex $-1 $221 $297 #
point $-1 40.190221365403872 -17.29052271017391 -0.43377448855311646 #
vertex $-1 $225 $298 #
point $-1 40.190221365403872 -13.660230708104713 -0.43377448855311646 #
straight-curve $-1 -45.420087282937104 25.540152965043269 0 0 0 -1 I I #
point $-1 -45.420087282937104 -25.540152965043269 -5.7587912275041715 #
straight-curve $-1 -45.420087282937104 0 -5.7587912275041715 0 1 0 I I #
point $-1 -45.420087282937104 25.540152965043269 -5.7587912275041715 #
coedge $-1 $260 $248 $257 $288 forward $186 $-1 #
vertex $-1 $249 $299 #
straight-curve $-1 -45.420087282937104 0 5.7587912275041715 0 -1 0 I I #
point $-1 -45.420087282937104 -19.710717378220039 5.7587912275041715 #
straight-curve $-1 0 -19.710717378220039 5.7587912275041715 -1 0 0 I I #
point $-1 45.420087282937104 -19.710717378220039 5.7587912275041715 #
edge $-1 $283 -45.420087282937104 $262 45.420087282937104 $257 $300 forward 7 unknown #
straight-curve $-1 -45.420087282937104 -25.540152965043269 0 0 0 -1 I I #
straight-curve $-1 45.420087282937104 0 5.7587912275041715 0 1 0 I I #
point $-1 45.420087282937104 -25.540152965043269 5.7587912275041715 #
straight-curve $-1 45.420087282937104 -19.710717378220039 63.137154334213868 0 0 -1 I I #
straight-curve $-1 0 -19.710717378220039 5.7587912275041715 1 0 0 I I #
point $-1 45.420087282937097 -19.710717378220039 0.16720967369068518 #
straight-curve $-1 45.420087282937104 -7.7376883545696558 0.16720967369067452 0 1 0 I I #
point $-1 45.420087282937104 -19.710717378220039 5.7587912275041715 #
point $-1 38.801990887012522 -17.29052271017391 -0.70361914546766635 #
point $-1 38.801990887012522 -13.660230708104713 -0.70361914546766635 #
point $-1 -45.420087282937104 -25.540152965043269 5.7587912275041715 #
straight-curve $-1 0 -25.540152965043269 5.7587912275041715 1 0 0 I I #
End-of-ACIS-data 