500 0 5 0           
7 Unknown 11 ACIS 5.0 NT 24 Fri Mar 26 15:53:13 1999 
-1 9.9999999999999995e-007 1e-010 
body $-1 $5 $-1 $6 #
body $-1 $7 $-1 $8 #
body $-1 $9 $-1 $10 #
body $-1 $11 $-1 $12 #
body $-1 $13 $-1 $14 #
lump $-1 $-1 $15 $0 #
transform $-1 1 0 0 0 1 0 0 0 1 56.393322550126655 30.767723153100199 7.3310318840758839 1 rotate no_reflect no_shear #
lump $-1 $-1 $16 $1 #
transform $-1 1 0 0 0 1 0 0 0 1 56.393322550126655 30.767723153100199 7.3310318840758839 1 rotate no_reflect no_shear #
lump $-1 $-1 $17 $2 #
transform $-1 1 0 0 0 1 0 0 0 1 56.393322550126655 30.767723153100199 7.3310318840758839 1 rotate no_reflect no_shear #
lump $-1 $-1 $18 $3 #
transform $-1 1 0 0 0 1 0 0 0 1 56.393322550126655 30.767723153100199 7.3310318840758839 1 rotate no_reflect no_shear #
lump $-1 $-1 $19 $4 #
transform $-1 1 0 0 0 1 0 0 0 1 56.393322550126655 30.767723153100199 7.3310318840758839 1 rotate no_reflect no_shear #
shell $-1 $-1 $-1 $20 $-1 $5 #
shell $-1 $-1 $-1 $21 $-1 $7 #
shell $-1 $-1 $-1 $22 $-1 $9 #
shell $-1 $-1 $-1 $23 $-1 $11 #
shell $-1 $-1 $-1 $24 $-1 $13 #
face $-1 $25 $26 $15 $-1 $27 forward single #
face $-1 $28 $29 $16 $-1 $30 forward single #
face $-1 $31 $32 $17 $-1 $33 reversed single #
face $-1 $34 $35 $18 $-1 $36 forward single #
face $-1 $37 $38 $19 $-1 $39 forward single #
face $-1 $40 $41 $15 $-1 $42 reversed single #
loop $-1 $-1 $43 $20 #
plane-surface $-1 0 0 7.3310318840758839 0 0 1 1 0 0 forward_v I I I I #
face $-1 $44 $45 $16 $-1 $46 reversed single #
loop $-1 $-1 $47 $21 #
plane-surface $-1 0 -26.023155923619932 -3.3595622050014793 0 0 1 1 0 0 forward_v I I I I #
face $-1 $48 $49 $17 $-1 $50 reversed single #
loop $-1 $-1 $51 $22 #
plane-surface $-1 -15.53778218765969 33.869786962361395 129.06254183412696 1 0 0 0 -0.50000000669873634 -0.8660253999169214 forward_v I I I I #
face $-1 $52 $53 $18 $-1 $54 forward single #
loop $-1 $55 $56 $23 #
cone-surface $-1 -7.161430611706642 24.104215068904466 2.501810215554285 0 -0.50000000669873634 -0.8660253999169214 2 0 0 1 I I 0 1 2 forward I I I I #
face $-1 $57 $58 $19 $-1 $59 forward single #
loop $-1 $60 $61 $24 #
cone-surface $-1 5.4030967522229361 24.104215068904466 2.501810215554285 0 -0.50000000669873634 -0.8660253999169214 2 0 0 1 I I 0 1 2 forward I I I I #
face $-1 $62 $63 $15 $-1 $64 reversed single #
loop $-1 $-1 $65 $25 #
plane-surface $-1 0 0 -7.3310318840758839 0 0 1 1 0 0 forward_v I I I I #
coedge $-1 $66 $67 $68 $69 forward $26 $-1 #
face $-1 $70 $71 $16 $-1 $72 reversed single #
loop $-1 $-1 $73 $28 #
plane-surface $-1 0 -21.278588694139664 -5.3452970445386816 0 -1 0 0 0 -1 forward_v I I I I #
coedge $-1 $74 $75 $76 $77 reversed $29 $-1 #
face $-1 $78 $79 $17 $-1 $80 reversed single #
loop $-1 $-1 $81 $31 #
plane-surface $-1 -0.87916692974185651 -22.523536343293259 31.386442405892211 0 0.50000000669873634 0.8660253999169214 1 0 0 forward_v I I I I #
coedge $-1 $82 $83 $84 $85 reversed $32 $-1 #
face $-1 $-1 $86 $18 $-1 $87 forward single #
loop $-1 $88 $89 $34 #
cone-surface $-1 -7.161430611706642 22.75374048798917 0.16271966886257161 0 -0.50000000669873634 -0.8660253999169214 1 0 0 1 I I -0.70710678118654746 0.70710678118654746 1 forward I I I I #
loop $-1 $-1 $90 $23 #
coedge $-1 $56 $56 $91 $92 reversed $35 $-1 #
face $-1 $-1 $93 $19 $-1 $94 forward single #
loop $-1 $95 $96 $37 #
cone-surface $-1 5.4030967522229361 22.75374048798917 0.16271966886257161 0 -0.50000000669873634 -0.8660253999169214 1 0 0 1 I I -0.70710678118654746 0.70710678118654746 1 forward I I I I #
loop $-1 $-1 $97 $24 #
coedge $-1 $61 $61 $98 $99 reversed $38 $-1 #
face $-1 $100 $101 $15 $-1 $102 reversed single #
loop $-1 $-1 $103 $40 #
plane-surface $-1 0 -30.767723153100199 0 0 1 0 0 0 1 forward_v I I I I #
coedge $-1 $104 $105 $106 $107 forward $41 $-1 #
coedge $-1 $108 $43 $109 $110 forward $26 $-1 #
coedge $-1 $43 $108 $111 $112 forward $26 $-1 #
coedge $-1 $113 $114 $43 $69 reversed $115 $-1 #
edge $-1 $116 -30.767723153100199 $117 30.767723153100199 $68 $118 forward 7 unknown #
face $-1 $119 $120 $16 $-1 $121 reversed single #
loop $-1 $-1 $122 $44 #
plane-surface $-1 0 0 -7.3310318840758839 0 0 1 1 0 0 forward_v I I I I #
coedge $-1 $123 $124 $125 $126 reversed $45 $-1 #
coedge $-1 $127 $47 $124 $128 forward $29 $-1 #
coedge $-1 $47 $127 $129 $130 reversed $29 $-1 #
coedge $-1 $131 $125 $47 $77 forward $120 $-1 #
edge $-1 $132 8.2670107323296982 $133 17.756145191290233 $76 $134 forward 7 unknown #
face $-1 $135 $136 $17 $-1 $137 reversed single #
loop $-1 $-1 $138 $48 #
plane-surface $-1 13.779448328175977 33.869786962361395 129.06254183412696 -1 0 0 0 0.50000000669873634 0.8660253999169214 forward_v I I I I #
coedge $-1 $139 $140 $141 $142 reversed $49 $-1 #
coedge $-1 $83 $51 $143 $144 reversed $32 $-1 #
coedge $-1 $51 $82 $139 $145 reversed $32 $-1 #
coedge $-1 $141 $146 $51 $85 forward $147 $-1 #
edge $-1 $148 -13.832829671919502 $149 -2.2067626519611743 $84 $150 forward 7 unknown #
loop $-1 $-1 $91 $52 #
plane-surface $-1 -0.87916692974185651 -22.523536343293259 31.386442405892211 0 0.50000000669873634 0.8660253999169214 1 0 0 forward_v I I I I #
loop $-1 $-1 $151 $34 #
coedge $-1 $89 $89 $90 $152 reversed $53 $-1 #
coedge $-1 $90 $90 $89 $152 forward $55 $-1 #
coedge $-1 $91 $91 $56 $92 forward $86 $-1 #
edge $-1 $153 1.2212453434492733e-015 $153 6.2831853071796013 $91 $154 forward 7 unknown #
loop $-1 $-1 $98 $57 #
plane-surface $-1 -0.87916692974185651 -22.523536343293259 31.386442405892211 0 0.50000000669873634 0.8660253999169214 1 0 0 forward_v I I I I #
loop $-1 $-1 $155 $37 #
coedge $-1 $96 $96 $97 $156 reversed $58 $-1 #
coedge $-1 $97 $97 $96 $156 forward $60 $-1 #
coedge $-1 $98 $98 $61 $99 forward $93 $-1 #
edge $-1 $157 1.2212453434492733e-015 $157 6.2831853071796013 $98 $158 forward 7 unknown #
face $-1 $159 $160 $15 $-1 $161 reversed single #
loop $-1 $-1 $162 $62 #
plane-surface $-1 -56.393322550126655 0 0 1 0 0 0 0 -1 forward_v I I I I #
coedge $-1 $163 $111 $164 $165 forward $63 $-1 #
coedge $-1 $166 $65 $163 $167 forward $41 $-1 #
coedge $-1 $65 $166 $168 $169 forward $41 $-1 #
coedge $-1 $114 $113 $65 $107 reversed $115 $-1 #
edge $-1 $170 -30.767723153100199 $171 30.767723153100199 $106 $172 forward 7 unknown #
coedge $-1 $67 $66 $173 $174 forward $26 $-1 #
coedge $-1 $175 $176 $66 $110 reversed $160 $-1 #
edge $-1 $117 -56.393322550126655 $177 56.393322550126655 $109 $178 forward 7 unknown #
coedge $-1 $103 $179 $67 $112 reversed $63 $-1 #
edge $-1 $180 -56.393322550126655 $116 56.393322550126655 $111 $181 forward 7 unknown #
coedge $-1 $106 $68 $179 $182 forward $115 $-1 #
coedge $-1 $68 $106 $175 $183 reversed $115 $-1 #
loop $-1 $-1 $113 $159 #
vertex $-1 $69 $184 #
vertex $-1 $69 $185 #
straight-curve $-1 56.393322550126655 0 7.3310318840758839 0 1 0 I I #
face $-1 $186 $187 $16 $-1 $188 reversed single #
loop $-1 $-1 $125 $70 #
plane-surface $-1 56.393322550126655 0 0 -1 0 0 0 0 1 forward_v I I I I #
coedge $-1 $189 $190 $123 $191 forward $71 $-1 #
coedge $-1 $192 $73 $122 $191 reversed $45 $-1 #
coedge $-1 $73 $192 $74 $128 reversed $45 $-1 #
coedge $-1 $76 $193 $73 $126 forward $120 $-1 #
edge $-1 $194 -4.6583833618065427 $132 -0.68691368273213849 $125 $195 forward 7 unknown #
coedge $-1 $75 $74 $196 $197 reversed $29 $-1 #
edge $-1 $132 -56.393322550126655 $198 56.393322550126655 $124 $199 forward 7 unknown #
coedge $-1 $200 $201 $75 $130 forward $187 $-1 #
edge $-1 $133 -56.393322550126655 $202 56.393322550126655 $129 $203 forward 7 unknown #
coedge $-1 $193 $76 $201 $204 forward $120 $-1 #
vertex $-1 $77 $205 #
vertex $-1 $204 $206 #
straight-curve $-1 56.393322550126655 -13.011577961809966 -3.3595622050014793 0 -1 0 I I #
face $-1 $-1 $147 $17 $-1 $207 forward single #
loop $-1 $-1 $208 $78 #
plane-surface $-1 0 30.767723153100199 0 0 -1 0 0 0 -1 forward_v I I I I #
coedge $-1 $209 $210 $211 $212 reversed $79 $-1 #
coedge $-1 $213 $81 $83 $145 forward $49 $-1 #
coedge $-1 $81 $213 $209 $214 forward $49 $-1 #
coedge $-1 $211 $84 $81 $142 forward $147 $-1 #
edge $-1 $149 -15.098198722788762 $215 14.219031793046906 $141 $216 forward 7 unknown #
coedge $-1 $217 $218 $82 $144 forward $136 $-1 #
edge $-1 $219 -63.912552076481205 $148 -57.200239032987596 $143 $220 forward 7 unknown #
edge $-1 $149 48.110820399069254 $219 61.535446306200413 $83 $221 forward 7 unknown #
coedge $-1 $84 $211 $217 $222 forward $147 $-1 #
loop $-1 $-1 $211 $135 #
vertex $-1 $144 $223 #
vertex $-1 $85 $224 #
straight-curve $-1 -15.53778218765969 16.934893481180698 7.3310318840758839 0 -1 0 I I #
coedge $-1 $151 $151 $-1 $225 reversed $88 $-1 #
edge $-1 $226 0 $226 6.2831853071796004 $89 $227 forward 7 unknown #
vertex $-1 $92 $228 #
ellipse-curve $-1 -7.161430611706642 24.954689643121029 3.9748753623290813 0 0.50000000669873634 0.8660253999169214 2 0 0 1 I I #
coedge $-1 $155 $155 $-1 $229 reversed $95 $-1 #
edge $-1 $230 0 $230 6.2831853071796004 $96 $231 forward 7 unknown #
vertex $-1 $99 $232 #
ellipse-curve $-1 5.4030967522229361 24.954689643121029 3.9748753623290813 0 0.50000000669873634 0.8660253999169214 2 0 0 1 I I #
face $-1 $-1 $115 $15 $-1 $233 reversed single #
loop $-1 $-1 $175 $100 #
plane-surface $-1 0 30.767723153100199 0 0 -1 0 0 0 -1 forward_v I I I I #
coedge $-1 $234 $173 $176 $235 forward $101 $-1 #
coedge $-1 $179 $103 $104 $167 reversed $63 $-1 #
coedge $-1 $173 $234 $103 $165 reversed $101 $-1 #
edge $-1 $180 -7.3310318840758839 $236 7.3310318840758839 $164 $237 forward 7 unknown #
coedge $-1 $105 $104 $234 $238 forward $41 $-1 #
edge $-1 $171 -56.393322550126655 $236 56.393322550126655 $163 $239 forward 7 unknown #
coedge $-1 $176 $175 $105 $169 reversed $160 $-1 #
edge $-1 $240 -56.393322550126655 $170 56.393322550126655 $168 $241 forward 7 unknown #
vertex $-1 $107 $242 #
vertex $-1 $182 $243 #
straight-curve $-1 56.393322550126655 0 -7.3310318840758839 0 -1 0 I I #
coedge $-1 $162 $164 $108 $174 reversed $101 $-1 #
edge $-1 $177 -30.767723153100199 $180 30.767723153100199 $173 $244 forward 7 unknown #
coedge $-1 $168 $109 $114 $183 forward $160 $-1 #
coedge $-1 $109 $168 $162 $235 reversed $160 $-1 #
vertex $-1 $110 $245 #
straight-curve $-1 0 30.767723153100199 7.3310318840758839 -1 0 0 I I #
coedge $-1 $111 $163 $113 $182 reversed $63 $-1 #
vertex $-1 $174 $246 #
straight-curve $-1 0 -30.767723153100199 7.3310318840758839 1 0 0 I I #
edge $-1 $116 -7.3310318840758839 $171 7.3310318840758839 $113 $247 forward 7 unknown #
edge $-1 $117 -7.3310318840758839 $170 7.3310318840758839 $114 $248 forward 7 unknown #
point $-1 56.393322550126655 -30.767723153100199 7.3310318840758839 #
point $-1 56.393322550126655 30.767723153100199 7.3310318840758839 #
face $-1 $-1 $249 $16 $-1 $250 reversed single #
loop $-1 $-1 $129 $119 #
plane-surface $-1 0 -30.767723153100199 0 0 1 0 0 0 1 forward_v I I I I #
coedge $-1 $251 $122 $193 $252 forward $71 $-1 #
coedge $-1 $122 $251 $253 $254 forward $71 $-1 #
edge $-1 $255 -56.393322550126655 $194 56.393322550126655 $122 $256 forward 7 unknown #
coedge $-1 $124 $123 $257 $258 reversed $45 $-1 #
coedge $-1 $125 $131 $189 $252 reversed $120 $-1 #
vertex $-1 $252 $259 #
straight-curve $-1 56.393322550126655 -21.278588694139664 -2.6726485222693408 0 0 1 I I #
coedge $-1 $257 $260 $127 $197 forward $249 $-1 #
edge $-1 $202 -17.756145191290233 $198 -8.2670107323296982 $196 $261 forward 7 unknown #
vertex $-1 $197 $262 #
straight-curve $-1 0 -21.278588694139664 -3.3595622050014793 -1 0 0 I I #
coedge $-1 $263 $129 $260 $264 forward $187 $-1 #
coedge $-1 $129 $263 $131 $204 reversed $187 $-1 #
vertex $-1 $264 $265 #
straight-curve $-1 0 -30.767723153100199 -3.3595622050014793 -1 0 0 I I #
edge $-1 $133 3.3595622050014793 $266 7.3310318840758839 $131 $267 forward 7 unknown #
point $-1 56.393322550126655 -21.278588694139664 -3.3595622050014793 #
point $-1 56.393322550126655 -30.767723153100199 -3.3595622050014793 #
plane-surface $-1 0 0 7.3310318840758839 0 0 1 1 0 0 forward_v I I I I #
coedge $-1 $218 $217 $210 $268 forward $136 $-1 #
coedge $-1 $210 $138 $140 $214 reversed $79 $-1 #
coedge $-1 $138 $209 $208 $268 reversed $79 $-1 #
coedge $-1 $146 $141 $138 $212 forward $147 $-1 #
edge $-1 $215 2.2067626519611743 $269 13.832829671919502 $211 $270 forward 7 unknown #
coedge $-1 $140 $139 $218 $271 reversed $49 $-1 #
edge $-1 $272 -61.535446306200413 $215 -48.110820399069254 $209 $273 forward 7 unknown #
vertex $-1 $142 $274 #
straight-curve $-1 -0.43958346487092825 19.141656133141872 7.3310318840758839 1 0 0 I I #
coedge $-1 $208 $143 $146 $222 reversed $136 $-1 #
coedge $-1 $143 $208 $213 $271 forward $136 $-1 #
vertex $-1 $144 $275 #
straight-curve $-1 -15.53778218765969 30.767723153100199 64.53127091706348 0 0 1 I I #
straight-curve $-1 -15.53778218765969 -22.523536343293259 31.386442405892211 0 0.8660253999169214 -0.50000000669873634 I I #
edge $-1 $269 -13.779448328175977 $148 15.53778218765969 $217 $276 forward 7 unknown #
point $-1 -15.53778218765969 30.767723153100199 7.3310318840758839 #
point $-1 -15.53778218765969 19.141656133141872 7.3310318840758839 #
edge $-1 $277 1 $277 0 $151 $-1 forward 7 unknown #
vertex $-1 $152 $278 #
ellipse-curve $-1 -7.161430611706642 23.253740494687907 1.028745068779493 0 0.50000000669873634 0.8660253999169214 2 0 0 1 I I #
point $-1 -5.161430611706642 24.954689643121029 3.9748753623290765 #
edge $-1 $279 1 $279 0 $155 $-1 forward 7 unknown #
vertex $-1 $156 $280 #
ellipse-curve $-1 5.4030967522229361 23.253740494687907 1.028745068779493 0 0.50000000669873634 0.8660253999169214 2 0 0 1 I I #
point $-1 7.4030967522229361 24.954689643121029 3.9748753623290765 #
plane-surface $-1 56.393322550126655 0 0 -1 0 0 0 0 1 forward_v I I I I #
coedge $-1 $164 $162 $166 $238 reversed $101 $-1 #
edge $-1 $177 -7.3310318840758839 $240 7.3310318840758839 $176 $281 forward 7 unknown #
vertex $-1 $238 $282 #
straight-curve $-1 -56.393322550126655 -30.767723153100199 0 0 0 -1 I I #
edge $-1 $236 -30.767723153100199 $240 30.767723153100199 $234 $283 forward 7 unknown #
straight-curve $-1 0 -30.767723153100199 -7.3310318840758839 -1 0 0 I I #
vertex $-1 $169 $284 #
straight-curve $-1 0 30.767723153100199 -7.3310318840758839 1 0 0 I I #
point $-1 56.393322550126655 30.767723153100199 -7.3310318840758839 #
point $-1 56.393322550126655 -30.767723153100199 -7.3310318840758839 #
straight-curve $-1 -56.393322550126655 0 7.3310318840758839 0 -1 0 I I #
point $-1 -56.393322550126655 30.767723153100199 7.3310318840758839 #
point $-1 -56.393322550126655 -30.767723153100199 7.3310318840758839 #
straight-curve $-1 56.393322550126655 -30.767723153100199 0 0 0 -1 I I #
straight-curve $-1 56.393322550126655 30.767723153100199 0 0 0 -1 I I #
loop $-1 $-1 $257 $186 #
plane-surface $-1 -56.393322550126655 0 0 1 0 0 0 0 -1 forward_v I I I I #
coedge $-1 $190 $189 $263 $285 forward $71 $-1 #
edge $-1 $194 21.278588694139664 $266 30.767723153100199 $193 $286 forward 7 unknown #
coedge $-1 $260 $257 $190 $254 reversed $249 $-1 #
edge $-1 $287 -30.767723153100199 $255 -21.278588694139664 $253 $288 forward 7 unknown #
vertex $-1 $258 $289 #
straight-curve $-1 0 -21.278588694139664 -7.3310318840758839 1 0 0 I I #
coedge $-1 $253 $196 $192 $258 forward $249 $-1 #
edge $-1 $198 0.68691368273213849 $255 4.6583833618065427 $257 $290 forward 7 unknown #
point $-1 56.393322550126655 -21.278588694139664 -7.3310318840758839 #
coedge $-1 $196 $253 $200 $264 reversed $249 $-1 #
straight-curve $-1 -56.393322550126655 -13.011577961809966 -3.3595622050014793 0 1 0 I I #
point $-1 -56.393322550126655 -21.278588694139664 -3.3595622050014793 #
coedge $-1 $201 $200 $251 $285 reversed $187 $-1 #
edge $-1 $202 3.3595622050014793 $287 7.3310318840758839 $260 $291 forward 7 unknown #
point $-1 -56.393322550126655 -30.767723153100199 -3.3595622050014793 #
vertex $-1 $204 $292 #
straight-curve $-1 56.393322550126655 -30.767723153100199 0 0 0 -1 I I #
edge $-1 $269 57.200239032987596 $272 63.912552076481205 $208 $293 forward 7 unknown #
vertex $-1 $222 $294 #
straight-curve $-1 13.779448328175977 16.934893481180698 7.3310318840758839 0 1 0 I I #
edge $-1 $272 -14.219031793046906 $219 15.098198722788762 $218 $295 forward 7 unknown #
vertex $-1 $271 $296 #
straight-curve $-1 13.779448328175977 -22.523536343293259 31.386442405892211 0 -0.8660253999169214 0.50000000669873634 I I #
point $-1 13.779448328175977 19.141656133141872 7.3310318840758839 #
point $-1 -15.53778218765969 30.767723153100199 0.61871884058227522 #
straight-curve $-1 0 30.767723153100199 7.3310318840758839 -1 0 0 I I #
vertex $-1 $225 $297 #
point $-1 -5.161430611706642 23.253740494687907 1.028745068779493 #
vertex $-1 $229 $298 #
point $-1 7.4030967522229361 23.253740494687907 1.028745068779493 #
straight-curve $-1 -56.393322550126655 30.767723153100199 0 0 0 -1 I I #
point $-1 -56.393322550126655 -30.767723153100199 -7.3310318840758839 #
straight-curve $-1 -56.393322550126655 0 -7.3310318840758839 0 1 0 I I #
point $-1 -56.393322550126655 30.767723153100199 -7.3310318840758839 #
edge $-1 $266 -56.393322550126655 $287 56.393322550126655 $263 $299 forward 7 unknown #
straight-curve $-1 56.393322550126655 0 -7.3310318840758839 0 -1 0 I I #
vertex $-1 $254 $300 #
straight-curve $-1 -56.393322550126655 0 -7.3310318840758839 0 1 0 I I #
point $-1 -56.393322550126655 -21.278588694139664 -7.3310318840758839 #
straight-curve $-1 -56.393322550126655 -21.278588694139664 -2.6726485222693408 0 0 -1 I I #
straight-curve $-1 -56.393322550126655 -30.767723153100199 0 0 0 -1 I I #
point $-1 56.393322550126655 -30.767723153100199 -7.3310318840758839 #
straight-curve $-1 13.779448328175977 30.767723153100199 64.53127091706348 0 0 -1 I I #
point $-1 13.779448328175977 30.767723153100199 7.3310318840758839 #
straight-curve $-1 -0.43958346487092825 30.767723153100199 0.61871884058227344 -1 0 0 I I #
point $-1 13.779448328175977 30.767723153100199 0.61871884058227522 #
point $-1 -7.161430611706642 22.253740481290432 -0.70330573105434979 #
point $-1 5.4030967522229361 22.253740481290432 -0.70330573105434979 #
straight-curve $-1 0 -30.767723153100199 -7.3310318840758839 -1 0 0 I I #
point $-1 -56.393322550126655 -30.767723153100199 -7.3310318840758839 #
End-of-ACIS-data 