500 0 10 0           
7 Unknown 11 ACIS 5.0 NT 24 Fri Mar 26 20:23:19 1999 
-1 9.9999999999999995e-007 1e-010 
body $-1 $10 $-1 $11 #
body $-1 $12 $-1 $13 #
body $-1 $14 $-1 $15 #
body $-1 $16 $-1 $17 #
body $-1 $18 $-1 $19 #
body $-1 $20 $-1 $21 #
body $-1 $22 $-1 $23 #
body $-1 $24 $-1 $25 #
body $-1 $26 $-1 $27 #
body $-1 $28 $-1 $29 #
lump $-1 $-1 $30 $0 #
transform $-1 1 0 0 0 1 0 0 0 1 43.513290810876796 24.339661914616428 7.4863383477361438 1 rotate no_reflect no_shear #
lump $-1 $-1 $31 $1 #
transform $-1 1 0 0 0 1 0 0 0 1 43.513290810876796 24.339661914616428 7.4863383477361438 1 rotate no_reflect no_shear #
lump $-1 $-1 $32 $2 #
transform $-1 1 0 0 0 1 0 0 0 1 43.513290810876796 24.339661914616428 7.4863383477361438 1 rotate no_reflect no_shear #
lump $-1 $-1 $33 $3 #
transform $-1 1 0 0 0 1 0 0 0 1 43.513290810876796 24.339661914616428 7.4863383477361438 1 rotate no_reflect no_shear #
lump $-1 $-1 $34 $4 #
transform $-1 1 0 0 0 1 0 0 0 1 43.513290810876796 24.339661914616428 7.4863383477361438 1 rotate no_reflect no_shear #
lump $-1 $-1 $35 $5 #
transform $-1 1 0 0 0 1 0 0 0 1 43.513290810876796 24.339661914616428 7.4863383477361438 1 rotate no_reflect no_shear #
lump $-1 $-1 $36 $6 #
transform $-1 1 0 0 0 1 0 0 0 1 43.513290810876796 24.339661914616428 7.4863383477361438 1 rotate no_reflect no_shear #
lump $-1 $-1 $37 $7 #
transform $-1 1 0 0 0 1 0 0 0 1 43.513290810876796 24.339661914616428 7.4863383477361438 1 rotate no_reflect no_shear #
lump $-1 $-1 $38 $8 #
transform $-1 1 0 0 0 1 0 0 0 1 43.513290810876796 24.339661914616428 7.4863383477361438 1 rotate no_reflect no_shear #
lump $-1 $-1 $39 $9 #
transform $-1 1 0 0 0 1 0 0 0 1 43.513290810876796 24.339661914616428 7.4863383477361438 1 rotate no_reflect no_shear #
shell $-1 $-1 $-1 $40 $-1 $10 #
shell $-1 $-1 $-1 $41 $-1 $12 #
shell $-1 $-1 $-1 $42 $-1 $14 #
shell $-1 $-1 $-1 $43 $-1 $16 #
shell $-1 $-1 $-1 $44 $-1 $18 #
shell $-1 $-1 $-1 $45 $-1 $20 #
shell $-1 $-1 $-1 $46 $-1 $22 #
shell $-1 $-1 $-1 $47 $-1 $24 #
shell $-1 $-1 $-1 $48 $-1 $26 #
shell $-1 $-1 $-1 $49 $-1 $28 #
face $-1 $50 $51 $30 $-1 $52 forward single #
face $-1 $53 $54 $31 $-1 $55 forward single #
face $-1 $56 $57 $32 $-1 $58 reversed single #
face $-1 $59 $60 $33 $-1 $61 forward single #
face $-1 $62 $63 $34 $-1 $64 forward single #
face $-1 $65 $66 $35 $-1 $67 forward single #
face $-1 $68 $69 $36 $-1 $70 reversed single #
face $-1 $71 $72 $37 $-1 $73 forward single #
face $-1 $74 $75 $38 $-1 $76 reversed single #
face $-1 $77 $78 $39 $-1 $79 forward single #
face $-1 $80 $81 $30 $-1 $82 reversed single #
loop $-1 $-1 $83 $40 #
plane-surface $-1 0 0 7.4863383477361438 0 0 1 1 0 0 forward_v I I I I #
face $-1 $84 $85 $31 $-1 $86 forward single #
loop $-1 $-1 $87 $41 #
plane-surface $-1 0 -24.339661914616428 0 0 1 0 0 0 1 forward_v I I I I #
face $-1 $88 $89 $32 $-1 $90 reversed single #
loop $-1 $-1 $91 $42 #
plane-surface $-1 32.786671200210279 20.046304895043473 126.64979933603581 0 -1 0 -0.64278761758704617 0 -0.76604443648966558 forward_v I I I I #
face $-1 $92 $93 $33 $-1 $94 forward single #
loop $-1 $95 $96 $43 #
cone-surface $-1 40.679539481406046 11.977969718955634 4.8325802321826741 -0.64278761758704617 0 -0.76604443648966558 0.76604443648966558 0 -0.64278761758704617 1 I I 0 1 1 forward I I I I #
face $-1 $97 $98 $34 $-1 $99 forward single #
loop $-1 $100 $101 $44 #
cone-surface $-1 40.679539481406046 15.00359540998857 4.8325802321826741 -0.64278761758704617 0 -0.76604443648966558 0.76604443648966558 0 -0.64278761758704617 1 I I 0 1 1 forward I I I I #
face $-1 $102 $103 $35 $-1 $104 forward single #
loop $-1 $105 $106 $45 #
cone-surface $-1 40.679539481406046 18.029221101021506 4.8325802321826741 -0.64278761758704617 0 -0.76604443648966558 0.76604443648966558 0 -0.64278761758704617 1 I I 0 1 1 forward I I I I #
face $-1 $107 $108 $36 $-1 $109 reversed single #
loop $-1 $-1 $110 $46 #
plane-surface $-1 -97.092205116580644 -18.285988525431513 70.07122837435918 0 1 0 -0.61566148304635926 0 0.78801074757464917 forward_v I I I I #
face $-1 $111 $112 $37 $-1 $113 forward single #
loop $-1 $114 $115 $47 #
cone-surface $-1 -38.228989682493356 -13.841402130977436 2.6352564676690902 0.61566148304635926 0 -0.78801074757464917 1.1820161213619738 0 0.92349222456953894 1 I I 0 1 1.5 forward I I I I #
face $-1 $116 $117 $38 $-1 $118 reversed single #
loop $-1 $-1 $119 $48 #
plane-surface $-1 -97.092205116580644 15.450489125708264 70.07122837435918 0 1 0 -0.61566148304635926 0 0.78801074757464917 forward_v I I I I #
face $-1 $120 $121 $39 $-1 $122 forward single #
loop $-1 $123 $124 $49 #
cone-surface $-1 -38.228989682493356 19.895075520162344 2.6352564676690902 0.61566148304635926 0 -0.78801074757464917 1.1820161213619738 0 0.92349222456953894 1 I I 0 1 1.5 forward I I I I #
face $-1 $125 $126 $30 $-1 $127 reversed single #
loop $-1 $-1 $128 $50 #
plane-surface $-1 0 0 -7.4863383477361438 0 0 1 1 0 0 forward_v I I I I #
coedge $-1 $129 $130 $131 $132 forward $51 $-1 #
face $-1 $133 $134 $31 $-1 $135 reversed single #
loop $-1 $-1 $136 $53 #
plane-surface $-1 0 0 7.4863383477361438 0 0 1 1 0 0 forward_v I I I I #
coedge $-1 $137 $138 $139 $140 forward $54 $-1 #
face $-1 $141 $142 $32 $-1 $143 reversed single #
loop $-1 $-1 $144 $56 #
plane-surface $-1 -23.152937867181329 15.003595409988577 59.983570657977694 0.64278761758704617 0 0.76604443648966558 0.76604443648966558 0 -0.64278761758704617 forward_v I I I I #
coedge $-1 $145 $146 $147 $148 reversed $57 $-1 #
face $-1 $-1 $149 $33 $-1 $150 forward single #
loop $-1 $151 $152 $59 #
cone-surface $-1 39.575626733876987 11.977969718955634 3.5169882769593954 -0.64278761758704617 0 -0.76604443648966558 0.38302221824483279 0 -0.32139380879352308 1 I I -0.70710678118654746 0.70710678118654746 0.5 forward I I I I #
loop $-1 $-1 $153 $43 #
coedge $-1 $96 $96 $154 $155 reversed $60 $-1 #
face $-1 $-1 $156 $34 $-1 $157 forward single #
loop $-1 $158 $159 $62 #
cone-surface $-1 39.575626733876987 15.00359540998857 3.5169882769593954 -0.64278761758704617 0 -0.76604443648966558 0.38302221824483279 0 -0.32139380879352308 1 I I -0.70710678118654746 0.70710678118654746 0.5 forward I I I I #
loop $-1 $-1 $160 $44 #
coedge $-1 $101 $101 $161 $162 reversed $63 $-1 #
face $-1 $-1 $163 $35 $-1 $164 forward single #
loop $-1 $165 $166 $65 #
cone-surface $-1 39.575626733876987 18.029221101021506 3.5169882769593954 -0.64278761758704617 0 -0.76604443648966558 0.38302221824483279 0 -0.32139380879352308 1 I I -0.70710678118654746 0.70710678118654746 0.5 forward I I I I #
loop $-1 $-1 $167 $45 #
coedge $-1 $106 $106 $168 $169 reversed $66 $-1 #
face $-1 $170 $171 $36 $-1 $172 reversed single #
loop $-1 $-1 $173 $68 #
plane-surface $-1 -43.513290810876796 -13.841402130977436 1.4933467317349027 -0.61566148304635926 0 0.78801074757464917 0.78801074757464917 0 0.61566148304635926 forward_v I I I I #
coedge $-1 $174 $175 $176 $177 reversed $69 $-1 #
face $-1 $-1 $178 $37 $-1 $179 forward single #
loop $-1 $180 $181 $71 #
cone-surface $-1 -36.318282099721301 -13.841402130977436 0.18966233492166129 0.61566148304635926 0 -0.78801074757464917 0.59100806068098688 0 0.46174611228476947 1 I I -0.70710678118654757 0.70710678118654757 0.75 forward I I I I #
loop $-1 $-1 $182 $47 #
coedge $-1 $115 $115 $183 $184 reversed $72 $-1 #
face $-1 $185 $186 $38 $-1 $187 forward single #
loop $-1 $-1 $188 $74 #
plane-surface $-1 -43.513290810876796 19.895075520162344 1.4933467317349027 -0.61566148304635926 0 0.78801074757464917 0.78801074757464917 0 0.61566148304635926 forward_v I I I I #
coedge $-1 $189 $190 $191 $192 reversed $75 $-1 #
face $-1 $-1 $193 $39 $-1 $194 forward single #
loop $-1 $195 $196 $77 #
cone-surface $-1 -36.318282099721301 19.895075520162344 0.18966233492166129 0.61566148304635926 0 -0.78801074757464917 0.59100806068098688 0 0.46174611228476947 1 I I -0.70710678118654757 0.70710678118654757 0.75 forward I I I I #
loop $-1 $-1 $197 $49 #
coedge $-1 $124 $124 $198 $199 reversed $78 $-1 #
face $-1 $200 $201 $30 $-1 $202 reversed single #
loop $-1 $-1 $203 $80 #
plane-surface $-1 0 -24.339661914616428 0 0 1 0 0 0 1 forward_v I I I I #
coedge $-1 $204 $205 $206 $207 forward $81 $-1 #
coedge $-1 $208 $83 $209 $210 forward $51 $-1 #
coedge $-1 $83 $208 $211 $212 forward $51 $-1 #
coedge $-1 $213 $214 $83 $132 reversed $215 $-1 #
edge $-1 $216 -24.339661914616428 $217 24.339661914616428 $131 $218 forward 7 unknown #
face $-1 $219 $220 $31 $-1 $221 reversed single #
loop $-1 $-1 $222 $84 #
plane-surface $-1 -43.513290810876796 0 0 1 0 0 0 0 -1 forward_v I I I I #
coedge $-1 $223 $224 $225 $226 forward $85 $-1 #
coedge $-1 $225 $87 $222 $227 reversed $54 $-1 #
coedge $-1 $87 $225 $228 $229 reversed $54 $-1 #
coedge $-1 $230 $231 $87 $140 reversed $220 $-1 #
edge $-1 $232 -43.513290810876796 $233 43.513290810876796 $139 $234 forward 7 unknown #
face $-1 $235 $236 $32 $-1 $237 reversed single #
loop $-1 $-1 $238 $88 #
plane-surface $-1 32.786671200210279 9.960885924933681 126.64979933603581 0 1 0 0.64278761758704617 0 0.76604443648966558 forward_v I I I I #
coedge $-1 $239 $240 $241 $242 reversed $89 $-1 #
coedge $-1 $146 $91 $243 $244 reversed $57 $-1 #
coedge $-1 $91 $145 $239 $245 reversed $57 $-1 #
coedge $-1 $241 $246 $91 $148 forward $247 $-1 #
edge $-1 $248 -27.119955210771657 $249 -23.017490429301219 $147 $250 forward 7 unknown #
loop $-1 $-1 $154 $92 #
plane-surface $-1 -23.152937867181329 15.003595409988577 59.983570657977694 0.64278761758704617 0 0.76604443648966558 0.76604443648966558 0 -0.64278761758704617 forward_v I I I I #
loop $-1 $-1 $251 $59 #
coedge $-1 $152 $152 $153 $252 reversed $93 $-1 #
coedge $-1 $153 $153 $152 $252 forward $95 $-1 #
coedge $-1 $154 $154 $96 $155 forward $149 $-1 #
edge $-1 $253 0 $253 6.2831853071796004 $154 $254 forward 7 unknown #
loop $-1 $-1 $161 $97 #
plane-surface $-1 -23.152937867181329 15.003595409988577 59.983570657977694 0.64278761758704617 0 0.76604443648966558 0.76604443648966558 0 -0.64278761758704617 forward_v I I I I #
loop $-1 $-1 $255 $62 #
coedge $-1 $159 $159 $160 $256 reversed $98 $-1 #
coedge $-1 $160 $160 $159 $256 forward $100 $-1 #
coedge $-1 $161 $161 $101 $162 forward $156 $-1 #
edge $-1 $257 0 $257 6.2831853071796004 $161 $258 forward 7 unknown #
loop $-1 $-1 $168 $102 #
plane-surface $-1 -23.152937867181329 15.003595409988577 59.983570657977694 0.64278761758704617 0 0.76604443648966558 0.76604443648966558 0 -0.64278761758704617 forward_v I I I I #
loop $-1 $-1 $259 $65 #
coedge $-1 $166 $166 $167 $260 reversed $103 $-1 #
coedge $-1 $167 $167 $166 $260 forward $105 $-1 #
coedge $-1 $168 $168 $106 $169 forward $163 $-1 #
edge $-1 $261 0 $261 6.2831853071796004 $168 $262 forward 7 unknown #
face $-1 $263 $264 $36 $-1 $265 forward single #
loop $-1 $-1 $266 $107 #
plane-surface $-1 -97.092205116580644 -9.3968157365233562 70.07122837435918 0 -1 0 0.61566148304635926 0 -0.78801074757464917 forward_v I I I I #
coedge $-1 $267 $268 $269 $270 reversed $108 $-1 #
coedge $-1 $175 $110 $271 $272 reversed $69 $-1 #
coedge $-1 $110 $174 $267 $273 reversed $69 $-1 #
coedge $-1 $269 $274 $110 $177 forward $264 $-1 #
edge $-1 $275 5.0328117474135254 $276 12.70349106320586 $176 $277 forward 7 unknown #
loop $-1 $-1 $183 $111 #
plane-surface $-1 -43.513290810876796 -13.841402130977436 1.4933467317349027 -0.61566148304635926 0 0.78801074757464917 0.78801074757464917 0 0.61566148304635926 forward_v I I I I #
loop $-1 $-1 $278 $71 #
coedge $-1 $181 $181 $182 $279 reversed $112 $-1 #
coedge $-1 $182 $182 $181 $279 forward $114 $-1 #
coedge $-1 $183 $183 $115 $184 forward $178 $-1 #
edge $-1 $280 0 $280 6.2831853071796004 $183 $281 forward 7 unknown #
face $-1 $282 $283 $38 $-1 $284 reversed single #
loop $-1 $-1 $191 $116 #
plane-surface $-1 0 0 7.4863383477361438 0 0 1 1 0 0 forward_v I I I I #
coedge $-1 $285 $286 $287 $288 reversed $117 $-1 #
coedge $-1 $190 $119 $289 $290 reversed $75 $-1 #
coedge $-1 $119 $189 $285 $291 reversed $75 $-1 #
coedge $-1 $287 $292 $119 $192 forward $186 $-1 #
edge $-1 $293 5.0328117474135254 $294 12.70349106320586 $191 $295 forward 7 unknown #
loop $-1 $-1 $198 $120 #
plane-surface $-1 -43.513290810876796 19.895075520162344 1.4933467317349027 -0.61566148304635926 0 0.78801074757464917 0.78801074757464917 0 0.61566148304635926 forward_v I I I I #
loop $-1 $-1 $296 $77 #
coedge $-1 $196 $196 $197 $297 reversed $121 $-1 #
coedge $-1 $197 $197 $196 $297 forward $123 $-1 #
coedge $-1 $198 $198 $124 $199 forward $193 $-1 #
edge $-1 $298 0 $298 6.2831853071796004 $198 $299 forward 7 unknown #
face $-1 $300 $301 $30 $-1 $302 reversed single #
loop $-1 $-1 $303 $125 #
plane-surface $-1 -43.513290810876796 0 0 1 0 0 0 0 -1 forward_v I I I I #
coedge $-1 $304 $211 $305 $306 forward $126 $-1 #
coedge $-1 $307 $128 $304 $308 forward $81 $-1 #
coedge $-1 $128 $307 $309 $310 forward $81 $-1 #
coedge $-1 $214 $213 $128 $207 reversed $215 $-1 #
edge $-1 $311 -24.339661914616428 $312 24.339661914616428 $206 $313 forward 7 unknown #
coedge $-1 $130 $129 $314 $315 forward $51 $-1 #
coedge $-1 $316 $317 $129 $210 reversed $301 $-1 #
edge $-1 $217 -43.513290810876796 $318 43.513290810876796 $209 $319 forward 7 unknown #
coedge $-1 $203 $320 $130 $212 reversed $126 $-1 #
edge $-1 $321 -43.513290810876796 $216 43.513290810876796 $211 $322 forward 7 unknown #
coedge $-1 $206 $131 $320 $323 forward $215 $-1 #
coedge $-1 $131 $206 $316 $324 reversed $215 $-1 #
loop $-1 $-1 $213 $300 #
vertex $-1 $132 $325 #
vertex $-1 $132 $326 #
straight-curve $-1 43.513290810876796 0 7.4863383477361438 0 1 0 I I #
face $-1 $327 $328 $31 $-1 $329 reversed single #
loop $-1 $-1 $230 $133 #
plane-surface $-1 0 -27.366498609208886 3.0211294668350641 0 0 1 1 0 0 forward_v I I I I #
coedge $-1 $330 $331 $137 $227 forward $134 $-1 #
coedge $-1 $332 $136 $331 $333 forward $85 $-1 #
coedge $-1 $136 $332 $334 $335 forward $85 $-1 #
coedge $-1 $138 $137 $136 $226 reversed $54 $-1 #
edge $-1 $336 -43.513290810876796 $337 43.513290810876796 $136 $338 forward 7 unknown #
edge $-1 $337 -7.4863383477361438 $233 -3.0211294668350641 $222 $339 forward 7 unknown #
coedge $-1 $334 $340 $138 $229 forward $341 $-1 #
edge $-1 $232 3.0211294668350641 $336 7.4863383477361438 $228 $342 forward 7 unknown #
coedge $-1 $343 $139 $340 $344 forward $220 $-1 #
coedge $-1 $139 $343 $330 $345 forward $220 $-1 #
vertex $-1 $229 $346 #
vertex $-1 $227 $347 #
straight-curve $-1 0 -24.339661914616428 3.0211294668350641 -1 0 0 I I #
face $-1 $-1 $247 $32 $-1 $348 forward single #
loop $-1 $-1 $349 $141 #
plane-surface $-1 43.513290810876796 0 0 -1 0 0 0 0 1 forward_v I I I I #
coedge $-1 $350 $351 $352 $353 reversed $142 $-1 #
coedge $-1 $354 $144 $146 $245 forward $89 $-1 #
coedge $-1 $144 $354 $350 $355 forward $89 $-1 #
coedge $-1 $352 $147 $144 $242 forward $247 $-1 #
edge $-1 $249 -12.544507190049185 $356 -2.4590882199393924 $241 $357 forward 7 unknown #
coedge $-1 $358 $359 $145 $244 forward $236 $-1 #
edge $-1 $360 -59.280938077431827 $248 -55.838561320281762 $243 $361 forward 7 unknown #
edge $-1 $249 81.67119414544787 $360 87.026581621753607 $146 $362 forward 7 unknown #
coedge $-1 $147 $352 $358 $363 forward $247 $-1 #
loop $-1 $-1 $352 $235 #
vertex $-1 $244 $364 #
vertex $-1 $148 $365 #
straight-curve $-1 16.393335600105139 20.046304895043473 7.4863383477361438 -1 0 0 I I #
coedge $-1 $251 $251 $-1 $366 reversed $151 $-1 #
edge $-1 $367 0 $367 6.2831853071796004 $152 $368 forward 7 unknown #
vertex $-1 $155 $369 #
ellipse-curve $-1 41.462058420141574 11.977969718955634 5.7651499691611159 0.64278761758704617 0 0.76604443648966558 0.76604443648966558 0 -0.64278761758704617 1 I I #
coedge $-1 $255 $255 $-1 $370 reversed $158 $-1 #
edge $-1 $371 0 $371 6.2831853071796004 $159 $372 forward 7 unknown #
vertex $-1 $162 $373 #
ellipse-curve $-1 41.462058420141574 15.00359540998857 5.7651499691611159 0.64278761758704617 0 0.76604443648966558 0.76604443648966558 0 -0.64278761758704617 1 I I #
coedge $-1 $259 $259 $-1 $374 reversed $165 $-1 #
edge $-1 $375 0 $375 6.2831853071796004 $166 $376 forward 7 unknown #
vertex $-1 $169 $377 #
ellipse-curve $-1 41.462058420141574 18.029221101021506 5.7651499691611159 0.64278761758704617 0 0.76604443648966558 0.76604443648966558 0 -0.64278761758704617 1 I I #
face $-1 $-1 $378 $36 $-1 $379 reversed single #
loop $-1 $-1 $176 $170 #
plane-surface $-1 0 0 7.4863383477361438 0 0 1 1 0 0 forward_v I I I I #
coedge $-1 $380 $381 $382 $383 reversed $171 $-1 #
coedge $-1 $384 $173 $175 $273 forward $108 $-1 #
coedge $-1 $173 $384 $380 $385 forward $108 $-1 #
coedge $-1 $382 $176 $173 $270 forward $264 $-1 #
edge $-1 $276 -11.365287459942795 $386 -2.4761146710346384 $269 $387 forward 7 unknown #
coedge $-1 $388 $389 $174 $272 forward $378 $-1 #
edge $-1 $390 -33.542267455444687 $275 -27.549275839443446 $271 $391 forward 7 unknown #
edge $-1 $276 -9.7342318482346357 $390 0 $175 $392 forward 7 unknown #
coedge $-1 $176 $382 $388 $393 forward $264 $-1 #
vertex $-1 $272 $394 #
vertex $-1 $177 $395 #
straight-curve $-1 -48.546102558290322 -18.285988525431513 7.4863383477361438 1 0 0 I I #
coedge $-1 $278 $278 $-1 $396 reversed $180 $-1 #
edge $-1 $397 0 $397 6.2831853071796004 $181 $398 forward 7 unknown #
vertex $-1 $184 $399 #
ellipse-curve $-1 -39.677951152980633 -13.841402130977436 4.4898425397355206 -0.61566148304635926 0 0.78801074757464917 1.1820161213619738 0 0.92349222456953894 1 I I #
face $-1 $-1 $400 $38 $-1 $401 reversed single #
loop $-1 $-1 $402 $185 #
plane-surface $-1 0 24.339661914616428 0 0 -1 0 0 0 -1 forward_v I I I I #
coedge $-1 $403 $188 $190 $291 forward $117 $-1 #
coedge $-1 $188 $403 $402 $404 reversed $117 $-1 #
coedge $-1 $405 $191 $188 $288 forward $186 $-1 #
edge $-1 $294 5.5029513656270925 $406 14.392124154535249 $287 $407 forward 7 unknown #
coedge $-1 $408 $409 $189 $290 forward $400 $-1 #
edge $-1 $410 -33.542267455444687 $293 -27.549275839443446 $289 $411 forward 7 unknown #
edge $-1 $294 -9.7342318482346357 $410 0 $190 $412 forward 7 unknown #
coedge $-1 $191 $405 $408 $413 forward $186 $-1 #
vertex $-1 $290 $414 #
vertex $-1 $192 $415 #
straight-curve $-1 -48.546102558290322 15.450489125708264 7.4863383477361438 1 0 0 I I #
coedge $-1 $296 $296 $-1 $416 reversed $195 $-1 #
edge $-1 $417 0 $417 6.2831853071796004 $196 $418 forward 7 unknown #
vertex $-1 $199 $419 #
ellipse-curve $-1 -39.677951152980633 19.895075520162344 4.4898425397355206 -0.61566148304635926 0 0.78801074757464917 1.1820161213619738 0 0.92349222456953894 1 I I #
face $-1 $-1 $215 $30 $-1 $420 reversed single #
loop $-1 $-1 $316 $200 #
plane-surface $-1 0 24.339661914616428 0 0 -1 0 0 0 -1 forward_v I I I I #
coedge $-1 $421 $314 $317 $422 forward $201 $-1 #
coedge $-1 $320 $203 $204 $308 reversed $126 $-1 #
coedge $-1 $314 $421 $203 $306 reversed $201 $-1 #
edge $-1 $321 -7.4863383477361438 $423 7.4863383477361438 $305 $424 forward 7 unknown #
coedge $-1 $205 $204 $421 $425 forward $81 $-1 #
edge $-1 $312 -43.513290810876796 $423 43.513290810876796 $304 $426 forward 7 unknown #
coedge $-1 $317 $316 $205 $310 reversed $301 $-1 #
edge $-1 $427 -43.513290810876796 $311 43.513290810876796 $309 $428 forward 7 unknown #
vertex $-1 $207 $429 #
vertex $-1 $323 $430 #
straight-curve $-1 43.513290810876796 0 -7.4863383477361438 0 -1 0 I I #
coedge $-1 $303 $305 $208 $315 reversed $201 $-1 #
edge $-1 $318 -24.339661914616428 $321 24.339661914616428 $314 $431 forward 7 unknown #
coedge $-1 $309 $209 $214 $324 forward $301 $-1 #
coedge $-1 $209 $309 $303 $422 reversed $301 $-1 #
vertex $-1 $210 $432 #
straight-curve $-1 0 24.339661914616428 7.4863383477361438 -1 0 0 I I #
coedge $-1 $211 $304 $213 $323 reversed $126 $-1 #
vertex $-1 $315 $433 #
straight-curve $-1 0 -24.339661914616428 7.4863383477361438 1 0 0 I I #
edge $-1 $216 -7.4863383477361438 $312 7.4863383477361438 $213 $434 forward 7 unknown #
edge $-1 $217 -7.4863383477361438 $311 7.4863383477361438 $214 $435 forward 7 unknown #
point $-1 43.513290810876796 -24.339661914616428 7.4863383477361438 #
point $-1 43.513290810876796 24.339661914616428 7.4863383477361438 #
face $-1 $-1 $341 $31 $-1 $436 reversed single #
loop $-1 $-1 $437 $219 #
plane-surface $-1 0 -30.393335303801344 5.2537339072856035 0 1 0 0 0 1 forward_v I I I I #
coedge $-1 $438 $222 $231 $345 reversed $134 $-1 #
coedge $-1 $222 $438 $223 $333 reversed $134 $-1 #
coedge $-1 $224 $223 $439 $440 forward $85 $-1 #
edge $-1 $337 24.339661914616428 $441 30.393335303801344 $331 $442 forward 7 unknown #
coedge $-1 $443 $228 $224 $335 reversed $341 $-1 #
edge $-1 $444 -30.393335303801344 $336 -24.339661914616428 $334 $445 forward 7 unknown #
vertex $-1 $229 $446 #
vertex $-1 $333 $447 #
straight-curve $-1 0 -24.339661914616428 7.4863383477361438 -1 0 0 I I #
straight-curve $-1 -43.513290810876796 -24.339661914616428 0 0 0 -1 I I #
coedge $-1 $228 $443 $230 $344 reversed $341 $-1 #
loop $-1 $-1 $228 $327 #
straight-curve $-1 43.513290810876796 -24.339661914616428 0 0 0 1 I I #
coedge $-1 $231 $230 $448 $449 forward $220 $-1 #
edge $-1 $232 -3.0268366945924576 $450 3.0268366945924576 $340 $451 forward 7 unknown #
edge $-1 $452 -3.0268366945924576 $233 3.0268366945924576 $330 $453 forward 7 unknown #
point $-1 43.513290810876796 -24.339661914616428 3.0211294668350641 #
point $-1 -43.513290810876796 -24.339661914616428 3.0211294668350641 #
plane-surface $-1 0 0 7.4863383477361438 0 0 1 1 0 0 forward_v I I I I #
coedge $-1 $359 $358 $351 $454 forward $236 $-1 #
coedge $-1 $351 $238 $240 $355 reversed $142 $-1 #
coedge $-1 $238 $350 $349 $454 reversed $142 $-1 #
coedge $-1 $246 $241 $238 $353 forward $247 $-1 #
edge $-1 $356 23.017490429301219 $455 27.119955210771657 $352 $456 forward 7 unknown #
coedge $-1 $240 $239 $359 $457 reversed $89 $-1 #
edge $-1 $458 -87.026581621753607 $356 -81.67119414544787 $350 $459 forward 7 unknown #
vertex $-1 $242 $460 #
straight-curve $-1 39.410826029406365 7.5017977049942886 7.4863383477361509 0 -1 0 I I #
coedge $-1 $349 $243 $246 $363 reversed $236 $-1 #
coedge $-1 $243 $349 $354 $457 forward $236 $-1 #
vertex $-1 $244 $461 #
straight-curve $-1 43.513290810876796 20.046304895043473 63.324899668017906 0 0 1 I I #
straight-curve $-1 -23.152937867181329 20.046304895043473 59.983570657977694 0.76604443648966558 0 -0.64278761758704617 I I #
edge $-1 $455 9.960885924933681 $248 20.046304895043473 $358 $462 forward 7 unknown #
point $-1 43.513290810876796 20.046304895043473 7.4863383477361438 #
point $-1 39.410826029406358 20.046304895043473 7.4863383477361438 #
edge $-1 $463 1 $463 0 $251 $-1 forward 7 unknown #
vertex $-1 $252 $464 #
ellipse-curve $-1 39.897020542670511 11.977969718955634 3.9000104952042283 0.64278761758704617 0 0.76604443648966558 0.76604443648966558 0 -0.64278761758704617 1 I I #
point $-1 42.228102856631246 11.977969718955634 5.1223623515740746 #
edge $-1 $465 1 $465 0 $255 $-1 forward 7 unknown #
vertex $-1 $256 $466 #
ellipse-curve $-1 39.897020542670511 15.00359540998857 3.9000104952042283 0.64278761758704617 0 0.76604443648966558 0.76604443648966558 0 -0.64278761758704617 1 I I #
point $-1 42.228102856631246 15.00359540998857 5.1223623515740746 #
edge $-1 $467 1 $467 0 $259 $-1 forward 7 unknown #
vertex $-1 $260 $468 #
ellipse-curve $-1 39.897020542670511 18.029221101021506 3.9000104952042283 0.64278761758704617 0 0.76604443648966558 0.76604443648966558 0 -0.64278761758704617 1 I I #
point $-1 42.228102856631246 18.029221101021506 5.1223623515740746 #
loop $-1 $-1 $271 $263 #
plane-surface $-1 -43.513290810876796 0 0 1 0 0 0 0 -1 forward_v I I I I #
coedge $-1 $381 $266 $268 $385 reversed $171 $-1 #
coedge $-1 $266 $380 $469 $470 reversed $171 $-1 #
coedge $-1 $274 $269 $266 $383 forward $264 $-1 #
edge $-1 $386 -12.70349106320586 $471 -5.0328117474135254 $382 $472 forward 7 unknown #
coedge $-1 $268 $267 $389 $473 reversed $108 $-1 #
edge $-1 $474 0 $386 9.7342318482346357 $380 $475 forward 7 unknown #
vertex $-1 $270 $476 #
straight-curve $-1 -35.842611495084455 -6.9207010654887178 7.4863383477361438 0 1 0 I I #
coedge $-1 $469 $271 $274 $393 reversed $378 $-1 #
coedge $-1 $271 $469 $384 $473 forward $378 $-1 #
vertex $-1 $272 $477 #
straight-curve $-1 -43.513290810876796 -18.285988525431513 35.03561418717959 0 0 1 I I #
straight-curve $-1 -43.513290810876796 -18.285988525431513 1.4933467317349027 -0.78801074757464917 0 -0.61566148304635926 I I #
edge $-1 $471 9.3968157365233562 $275 18.285988525431513 $388 $478 forward 7 unknown #
point $-1 -43.513290810876796 -18.285988525431513 7.4863383477361438 #
point $-1 -35.842611495084462 -18.285988525431513 7.4863383477361438 #
edge $-1 $479 1 $479 0 $278 $-1 forward 7 unknown #
vertex $-1 $279 $480 #
ellipse-curve $-1 -36.780028212006073 -13.841402130977436 0.78067039560264817 -0.61566148304635926 0 0.78801074757464917 1.1820161213619738 0 0.92349222456953894 1 I I #
point $-1 -38.495935031618664 -13.841402130977436 5.4133347643050707 #
loop $-1 $-1 $289 $282 #
plane-surface $-1 -43.513290810876796 0 0 1 0 0 0 0 -1 forward_v I I I I #
coedge $-1 $481 $482 $286 $404 forward $283 $-1 #
coedge $-1 $286 $285 $409 $483 reversed $117 $-1 #
edge $-1 $406 6.9505405306402572 $484 16.684772378874893 $402 $485 forward 7 unknown #
coedge $-1 $292 $287 $482 $486 forward $186 $-1 #
vertex $-1 $486 $487 #
straight-curve $-1 -35.842611495084455 9.9475377600811719 7.4863383477361438 0 1 0 I I #
coedge $-1 $488 $289 $292 $413 reversed $400 $-1 #
coedge $-1 $289 $488 $403 $483 forward $400 $-1 #
vertex $-1 $290 $489 #
straight-curve $-1 -43.513290810876796 15.450489125708264 35.03561418717959 0 0 1 I I #
straight-curve $-1 -43.513290810876796 15.450489125708264 1.4933467317349027 -0.78801074757464917 0 -0.61566148304635926 I I #
edge $-1 $490 -24.339661914616428 $293 -15.450489125708264 $408 $491 forward 7 unknown #
point $-1 -43.513290810876796 15.450489125708264 7.4863383477361438 #
point $-1 -35.842611495084462 15.450489125708264 7.4863383477361438 #
edge $-1 $492 1 $492 0 $296 $-1 forward 7 unknown #
vertex $-1 $297 $493 #
ellipse-curve $-1 -36.780028212006073 19.895075520162344 0.78067039560264817 -0.61566148304635926 0 0.78801074757464917 1.1820161213619738 0 0.92349222456953894 1 I I #
point $-1 -38.495935031618664 19.895075520162344 5.4133347643050707 #
plane-surface $-1 43.513290810876796 0 0 -1 0 0 0 0 1 forward_v I I I I #
coedge $-1 $305 $303 $307 $425 reversed $201 $-1 #
edge $-1 $318 -7.4863383477361438 $427 7.4863383477361438 $317 $494 forward 7 unknown #
vertex $-1 $425 $495 #
straight-curve $-1 -43.513290810876796 -24.339661914616428 0 0 0 -1 I I #
edge $-1 $423 -24.339661914616428 $427 24.339661914616428 $421 $496 forward 7 unknown #
straight-curve $-1 0 -24.339661914616428 -7.4863383477361438 -1 0 0 I I #
vertex $-1 $310 $497 #
straight-curve $-1 0 24.339661914616428 -7.4863383477361438 1 0 0 I I #
point $-1 43.513290810876796 24.339661914616428 -7.4863383477361438 #
point $-1 43.513290810876796 -24.339661914616428 -7.4863383477361438 #
straight-curve $-1 -43.513290810876796 0 7.4863383477361438 0 -1 0 I I #
point $-1 -43.513290810876796 24.339661914616428 7.4863383477361438 #
point $-1 -43.513290810876796 -24.339661914616428 7.4863383477361438 #
straight-curve $-1 43.513290810876796 -24.339661914616428 0 0 0 -1 I I #
straight-curve $-1 43.513290810876796 24.339661914616428 0 0 0 -1 I I #
plane-surface $-1 43.513290810876796 0 0 -1 0 0 0 0 1 forward_v I I I I #
coedge $-1 $448 $439 $438 $498 forward $328 $-1 #
coedge $-1 $331 $330 $437 $498 reversed $134 $-1 #
coedge $-1 $437 $499 $332 $440 reversed $328 $-1 #
edge $-1 $441 -43.513290810876796 $444 43.513290810876796 $439 $500 forward 7 unknown #
vertex $-1 $333 $501 #
straight-curve $-1 -43.513290810876796 0 7.4863383477361438 0 -1 0 I I #
coedge $-1 $340 $334 $499 $502 forward $341 $-1 #
vertex $-1 $335 $503 #
straight-curve $-1 43.513290810876796 0 7.4863383477361438 0 1 0 I I #
point $-1 43.513290810876796 -24.339661914616428 7.4863383477361438 #
point $-1 -43.513290810876796 -24.339661914616428 7.4863383477361438 #
coedge $-1 $499 $437 $343 $449 reversed $328 $-1 #
edge $-1 $450 -43.513290810876796 $452 43.513290810876796 $448 $504 forward 7 unknown #
vertex $-1 $502 $505 #
straight-curve $-1 43.513290810876796 -27.366498609208886 3.0211294668350641 0 -1 0 I I #
vertex $-1 $345 $506 #
straight-curve $-1 -43.513290810876796 -27.366498609208886 3.0211294668350641 0 1 0 I I #
edge $-1 $455 55.838561320281762 $458 59.280938077431827 $349 $507 forward 7 unknown #
vertex $-1 $363 $508 #
straight-curve $-1 16.393335600105139 9.960885924933681 7.4863383477361438 1 0 0 I I #
edge $-1 $458 2.4590882199393924 $360 12.544507190049185 $359 $509 forward 7 unknown #
vertex $-1 $457 $510 #
straight-curve $-1 -23.152937867181329 9.960885924933681 59.983570657977694 -0.76604443648966558 0 0.64278761758704617 I I #
point $-1 39.410826029406358 9.960885924933681 7.4863383477361438 #
point $-1 43.513290810876804 20.046304895043473 4.0439615905860791 #
straight-curve $-1 43.513290810876796 0 7.4863383477361438 0 1 0 I I #
vertex $-1 $366 $511 #
point $-1 40.663064979160175 11.977969718955634 3.2572228776171821 #
vertex $-1 $370 $512 #
point $-1 40.663064979160175 15.00359540998857 3.2572228776171821 #
vertex $-1 $374 $513 #
point $-1 40.663064979160175 18.029221101021506 3.2572228776171821 #
coedge $-1 $389 $388 $381 $470 forward $378 $-1 #
edge $-1 $471 27.549275839443446 $474 33.542267455444687 $469 $514 forward 7 unknown #
vertex $-1 $393 $515 #
straight-curve $-1 -48.546102558290322 -9.3968157365233562 7.4863383477361438 -1 0 0 I I #
edge $-1 $474 2.4761146710346384 $390 11.365287459942795 $389 $516 forward 7 unknown #
vertex $-1 $473 $517 #
straight-curve $-1 -43.513290810876796 -9.3968157365233562 1.4933467317349027 0.78801074757464917 0 0.61566148304635926 I I #
point $-1 -35.842611495084462 -9.3968157365233562 7.4863383477361438 #
point $-1 -43.513290810876796 -18.285988525431513 1.4933467317349027 #
straight-curve $-1 -43.513290810876796 0 7.4863383477361438 0 -1 0 I I #
vertex $-1 $396 $518 #
point $-1 -35.598012090644097 -13.841402130977436 1.7041626201721871 #
coedge $-1 $482 $402 $488 $519 reversed $283 $-1 #
coedge $-1 $402 $481 $405 $486 reversed $283 $-1 #
edge $-1 $484 -14.392124154535249 $410 -5.5029513656270925 $409 $520 forward 7 unknown #
vertex $-1 $404 $521 #
straight-curve $-1 -30.365510855486733 24.339661914616428 11.765518438803952 -0.78801074757464917 0 -0.61566148304635926 I I #
edge $-1 $406 35.842611495084462 $490 43.513290810876796 $482 $522 forward 7 unknown #
point $-1 -35.842611495084462 24.339661914616421 7.4863383477361438 #
coedge $-1 $409 $408 $481 $519 forward $400 $-1 #
point $-1 -43.513290810876796 15.450489125708264 1.4933467317349027 #
vertex $-1 $486 $523 #
straight-curve $-1 -43.513290810876796 0 7.4863383477361438 0 -1 0 I I #
vertex $-1 $416 $524 #
point $-1 -35.598012090644097 19.895075520162344 1.7041626201721871 #
straight-curve $-1 -43.513290810876796 24.339661914616428 0 0 0 -1 I I #
point $-1 -43.513290810876796 -24.339661914616428 -7.4863383477361438 #
straight-curve $-1 -43.513290810876796 0 -7.4863383477361438 0 1 0 I I #
point $-1 -43.513290810876796 24.339661914616428 -7.4863383477361438 #
edge $-1 $441 -2.2326044404505394 $452 2.2326044404505394 $438 $525 forward 7 unknown #
coedge $-1 $439 $448 $443 $502 reversed $328 $-1 #
straight-curve $-1 0 -30.393335303801344 7.4863383477361429 1 0 0 I I #
point $-1 -43.513290810876796 -30.393335303801344 7.4863383477361429 #
edge $-1 $444 -2.2326044404505394 $450 2.2326044404505394 $443 $526 forward 7 unknown #
point $-1 43.513290810876796 -30.393335303801344 7.4863383477361429 #
straight-curve $-1 0 -30.393335303801344 3.0211294668350641 -1 0 0 I I #
point $-1 43.513290810876796 -30.393335303801344 3.0211294668350641 #
point $-1 -43.513290810876796 -30.393335303801344 3.0211294668350641 #
straight-curve $-1 43.513290810876796 9.960885924933681 63.324899668017906 0 0 -1 I I #
point $-1 43.513290810876796 9.960885924933681 7.4863383477361438 #
straight-curve $-1 43.513290810876789 7.5017977049942886 4.0439615905860791 0 1 0 I I #
point $-1 43.513290810876804 9.960885924933681 4.0439615905860791 #
point $-1 39.254232925083464 11.977969718955634 3.1339660587145626 #
point $-1 39.254232925083464 15.00359540998857 3.1339660587145626 #
point $-1 39.254232925083464 18.029221101021506 3.1339660587145626 #
straight-curve $-1 -43.513290810876796 -9.3968157365233562 35.03561418717959 0 0 -1 I I #
point $-1 -43.513290810876796 -9.3968157365233562 7.4863383477361438 #
straight-curve $-1 -43.513290810876796 -6.9207010654887178 1.4933467317349023 0 -1 0 I I #
point $-1 -43.513290810876796 -9.3968157365233562 1.4933467317349027 #
point $-1 -35.85653598743653 -13.841402130977436 -0.40134572575932559 #
edge $-1 $490 -7.4863383477361438 $484 -1.4933467317349027 $481 $527 forward 7 unknown #
straight-curve $-1 -43.513290810876796 9.9475377600811719 1.4933467317349023 0 -1 0 I I #
point $-1 -43.513290810876796 24.339661914616421 1.4933467317349027 #
straight-curve $-1 0 24.339661914616428 7.4863383477361438 -1 0 0 I I #
point $-1 -43.513290810876796 24.339661914616428 7.4863383477361438 #
point $-1 -35.85653598743653 19.895075520162344 -0.40134572575932559 #
straight-curve $-1 -43.513290810876796 -30.393335303801344 5.2537339072856035 0 0 -1 I I #
straight-curve $-1 43.513290810876796 -30.393335303801344 5.2537339072856035 0 0 -1 I I #
straight-curve $-1 -43.513290810876796 24.339661914616428 0 0 0 -1 I I #
End-of-ACIS-data 