500 0 5 0           
7 Unknown 11 ACIS 5.0 NT 24 Fri Mar 26 02:51:53 1999 
-1 9.9999999999999995e-007 1e-010 
body $-1 $5 $-1 $6 #
body $-1 $7 $-1 $8 #
body $-1 $9 $-1 $10 #
body $-1 $11 $-1 $12 #
body $-1 $13 $-1 $14 #
lump $-1 $-1 $15 $0 #
transform $-1 1 0 0 0 1 0 0 0 1 73.755912961210981 39.967795090238788 12.703042853718156 1 rotate no_reflect no_shear #
lump $-1 $-1 $16 $1 #
transform $-1 1 0 0 0 1 0 0 0 1 73.755912961210981 39.967795090238788 12.703042853718156 1 rotate no_reflect no_shear #
lump $-1 $-1 $17 $2 #
transform $-1 1 0 0 0 1 0 0 0 1 73.755912961210981 39.967795090238788 12.703042853718156 1 rotate no_reflect no_shear #
lump $-1 $-1 $18 $3 #
transform $-1 1 0 0 0 1 0 0 0 1 73.755912961210981 39.967795090238788 12.703042853718156 1 rotate no_reflect no_shear #
lump $-1 $-1 $19 $4 #
transform $-1 1 0 0 0 1 0 0 0 1 73.755912961210981 39.967795090238788 12.703042853718156 1 rotate no_reflect no_shear #
shell $-1 $-1 $-1 $20 $-1 $5 #
shell $-1 $-1 $-1 $21 $-1 $7 #
shell $-1 $-1 $-1 $22 $-1 $9 #
shell $-1 $-1 $-1 $23 $-1 $11 #
shell $-1 $-1 $-1 $24 $-1 $13 #
face $-1 $25 $26 $15 $-1 $27 reversed single #
face $-1 $28 $29 $16 $-1 $30 forward single #
face $-1 $31 $32 $17 $-1 $33 reversed single #
face $-1 $34 $35 $18 $-1 $36 forward single #
face $-1 $37 $38 $19 $-1 $39 forward single #
face $-1 $40 $41 $15 $-1 $42 forward single #
loop $-1 $-1 $43 $20 #
plane-surface $-1 0 -39.967795090238788 0 0 1 0 0 0 1 forward_v I I I I #
face $-1 $44 $45 $16 $-1 $46 forward single #
loop $-1 $-1 $47 $21 #
plane-surface $-1 0 -39.967795090238788 0 0 1 0 0 0 1 forward_v I I I I #
face $-1 $48 $49 $17 $-1 $50 reversed single #
loop $-1 $-1 $51 $22 #
plane-surface $-1 120.68368087650083 15.691364361913973 203.5048592270461 0 -1 0 -0.84804810408105047 0 -0.52991925155115449 forward_v I I I I #
face $-1 $52 $53 $18 $-1 $54 forward single #
loop $-1 $55 $56 $23 #
cone-surface $-1 69.13249910350784 10.579368670871965 6.0151680613062002 -0.84804810408105047 0 -0.52991925155115449 0.26495962577557725 0 -0.42402405204052523 1 I I 0 1 0.5 forward I I I I #
face $-1 $57 $58 $19 $-1 $59 forward single #
loop $-1 $60 $61 $24 #
cone-surface $-1 69.13249910350784 13.646566085497163 6.0151680613062002 -0.84804810408105047 0 -0.52991925155115449 0.26495962577557725 0 -0.42402405204052523 1 I I 0 1 0.5 forward I I I I #
face $-1 $62 $63 $15 $-1 $64 reversed single #
loop $-1 $-1 $65 $25 #
plane-surface $-1 0 0 12.703042853718156 0 0 1 1 0 0 forward_v I I I I #
coedge $-1 $66 $67 $68 $69 reversed $26 $-1 #
face $-1 $70 $71 $16 $-1 $72 reversed single #
loop $-1 $-1 $73 $28 #
plane-surface $-1 0 0 12.703042853718156 0 0 1 1 0 0 forward_v I I I I #
coedge $-1 $74 $75 $76 $77 forward $29 $-1 #
face $-1 $78 $79 $17 $-1 $80 reversed single #
loop $-1 $-1 $81 $31 #
plane-surface $-1 -4.4134434265430684 12.112967378184571 125.33550283929206 0.84804810408105047 0 0.52991925155115449 0.52991925155115449 0 -0.84804810408105047 forward_v I I I I #
coedge $-1 $82 $83 $84 $85 reversed $32 $-1 #
face $-1 $-1 $86 $18 $-1 $87 forward single #
loop $-1 $88 $89 $34 #
cone-surface $-1 68.191466447104716 10.579368670871965 5.4271456147414519 -0.84804810408105047 0 -0.52991925155115449 0.13247981288778862 0 -0.21201202602026262 1 I I -0.70710678118654746 0.70710678118654746 0.25 forward I I I I #
loop $-1 $-1 $90 $23 #
coedge $-1 $56 $56 $91 $92 reversed $35 $-1 #
face $-1 $-1 $93 $19 $-1 $94 forward single #
loop $-1 $95 $96 $37 #
cone-surface $-1 68.191466447104716 13.646566085497163 5.4271456147414519 -0.84804810408105047 0 -0.52991925155115449 0.13247981288778862 0 -0.21201202602026262 1 I I -0.70710678118654746 0.70710678118654746 0.25 forward I I I I #
loop $-1 $-1 $97 $24 #
coedge $-1 $61 $61 $98 $99 reversed $38 $-1 #
face $-1 $100 $101 $15 $-1 $102 reversed single #
loop $-1 $-1 $103 $40 #
plane-surface $-1 0 0 -12.703042853718156 0 0 1 1 0 0 forward_v I I I I #
coedge $-1 $104 $105 $106 $107 forward $41 $-1 #
coedge $-1 $108 $43 $109 $110 reversed $26 $-1 #
coedge $-1 $43 $108 $111 $112 forward $26 $-1 #
coedge $-1 $113 $103 $43 $69 forward $63 $-1 #
edge $-1 $114 -73.755912961210981 $115 73.755912961210981 $43 $116 forward 7 unknown #
face $-1 $117 $118 $16 $-1 $119 reversed single #
loop $-1 $-1 $120 $44 #
plane-surface $-1 -73.755912961210981 0 0 1 0 0 0 0 -1 forward_v I I I I #
coedge $-1 $121 $122 $75 $123 forward $45 $-1 #
coedge $-1 $124 $47 $125 $126 reversed $29 $-1 #
coedge $-1 $47 $124 $73 $123 reversed $29 $-1 #
coedge $-1 $127 $128 $47 $77 reversed $129 $-1 #
edge $-1 $130 -12.703042853718156 $131 12.703042853718156 $76 $132 forward 7 unknown #
face $-1 $133 $134 $17 $-1 $135 forward single #
loop $-1 $-1 $136 $48 #
plane-surface $-1 120.68368087650083 8.5345703944551694 203.5048592270461 0 1 0 0.84804810408105047 0 0.52991925155115449 forward_v I I I I #
coedge $-1 $137 $138 $139 $140 reversed $49 $-1 #
coedge $-1 $83 $51 $141 $142 reversed $32 $-1 #
coedge $-1 $51 $82 $137 $143 reversed $32 $-1 #
coedge $-1 $139 $144 $51 $85 forward $134 $-1 #
edge $-1 $145 -13.414072522960566 $146 -5.6252860683200083 $84 $147 forward 7 unknown #
loop $-1 $-1 $91 $52 #
plane-surface $-1 -4.4134434265430684 12.112967378184571 125.33550283929206 0.84804810408105047 0 0.52991925155115449 0.52991925155115449 0 -0.84804810408105047 forward_v I I I I #
loop $-1 $-1 $148 $34 #
coedge $-1 $89 $89 $90 $149 reversed $53 $-1 #
coedge $-1 $90 $90 $89 $149 forward $55 $-1 #
coedge $-1 $91 $91 $56 $92 forward $86 $-1 #
edge $-1 $150 0 $150 6.2831853071796004 $91 $151 forward 7 unknown #
loop $-1 $-1 $98 $57 #
plane-surface $-1 -4.4134434265430684 12.112967378184571 125.33550283929206 0.84804810408105047 0 0.52991925155115449 0.52991925155115449 0 -0.84804810408105047 forward_v I I I I #
loop $-1 $-1 $152 $37 #
coedge $-1 $96 $96 $97 $153 reversed $58 $-1 #
coedge $-1 $97 $97 $96 $153 forward $60 $-1 #
coedge $-1 $98 $98 $61 $99 forward $93 $-1 #
edge $-1 $154 0 $154 6.2831853071796004 $98 $155 forward 7 unknown #
face $-1 $156 $157 $15 $-1 $158 reversed single #
loop $-1 $-1 $159 $62 #
plane-surface $-1 -73.755912961210981 0 0 1 0 0 0 0 -1 forward_v I I I I #
coedge $-1 $68 $160 $161 $162 forward $63 $-1 #
coedge $-1 $163 $65 $164 $165 forward $41 $-1 #
coedge $-1 $65 $163 $108 $166 forward $41 $-1 #
coedge $-1 $109 $167 $65 $107 reversed $168 $-1 #
edge $-1 $169 -39.967795090238788 $170 39.967795090238788 $106 $171 forward 7 unknown #
coedge $-1 $67 $66 $105 $166 reversed $26 $-1 #
coedge $-1 $161 $106 $66 $110 forward $168 $-1 #
edge $-1 $169 -12.703042853718156 $114 12.703042853718156 $109 $172 forward 7 unknown #
coedge $-1 $173 $174 $67 $112 reversed $101 $-1 #
edge $-1 $175 -12.703042853718156 $115 12.703042853718156 $111 $176 forward 7 unknown #
coedge $-1 $160 $68 $174 $177 forward $63 $-1 #
vertex $-1 $110 $178 #
vertex $-1 $177 $179 #
straight-curve $-1 0 -39.967795090238788 -12.703042853718156 -1 0 0 I I #
face $-1 $180 $129 $16 $-1 $181 reversed single #
loop $-1 $-1 $182 $70 #
plane-surface $-1 -71.943092175412119 -51.167368642137475 0 0 1 0 0 0 1 forward_v I I I I #
coedge $-1 $183 $184 $124 $185 forward $71 $-1 #
coedge $-1 $186 $73 $184 $187 forward $45 $-1 #
coedge $-1 $73 $186 $127 $188 forward $45 $-1 #
edge $-1 $130 70.130271389613256 $189 73.755912961210981 $73 $190 forward 7 unknown #
coedge $-1 $75 $74 $120 $185 reversed $29 $-1 #
coedge $-1 $191 $192 $74 $126 forward $193 $-1 #
edge $-1 $194 -73.755912961210981 $131 -70.130271389613256 $125 $195 forward 7 unknown #
coedge $-1 $196 $76 $122 $188 reversed $129 $-1 #
coedge $-1 $76 $196 $191 $197 reversed $129 $-1 #
loop $-1 $-1 $196 $117 #
vertex $-1 $123 $198 #
vertex $-1 $197 $199 #
straight-curve $-1 -70.130271389613256 -39.967795090238788 0 0 0 -1 I I #
face $-1 $-1 $200 $17 $-1 $201 reversed single #
loop $-1 $-1 $84 $78 #
plane-surface $-1 0 0 12.703042853718156 0 0 1 1 0 0 forward_v I I I I #
coedge $-1 $202 $203 $204 $205 reversed $79 $-1 #
coedge $-1 $206 $81 $83 $143 forward $49 $-1 #
coedge $-1 $81 $206 $202 $207 forward $49 $-1 #
coedge $-1 $204 $84 $81 $140 forward $134 $-1 #
edge $-1 $146 -9.6348806728216871 $208 -2.4780867053628839 $139 $209 forward 7 unknown #
coedge $-1 $210 $211 $82 $142 forward $200 $-1 #
edge $-1 $212 -101.51405107727491 $145 -89.049386759804889 $141 $213 forward 7 unknown #
edge $-1 $146 132.81376309144991 $212 147.51182592242199 $83 $214 forward 7 unknown #
coedge $-1 $84 $204 $210 $215 forward $134 $-1 #
vertex $-1 $142 $216 #
vertex $-1 $85 $217 #
straight-curve $-1 60.341840438250415 15.691364361913973 12.703042853718159 -1 0 0 I I #
coedge $-1 $148 $148 $-1 $218 reversed $88 $-1 #
edge $-1 $219 0 $219 6.2831853071796004 $89 $220 forward 7 unknown #
vertex $-1 $92 $221 #
ellipse-curve $-1 69.861519733890688 10.579368670871965 6.4707106949831577 0.84804810408105047 0 0.52991925155115449 0.26495962577557725 0 -0.42402405204052523 1 I I #
coedge $-1 $152 $152 $-1 $222 reversed $95 $-1 #
edge $-1 $223 0 $223 6.2831853071796004 $96 $224 forward 7 unknown #
vertex $-1 $99 $225 #
ellipse-curve $-1 69.861519733890688 13.646566085497163 6.4707106949831577 0.84804810408105047 0 0.52991925155115449 0.26495962577557725 0 -0.42402405204052523 1 I I #
face $-1 $-1 $168 $15 $-1 $226 reversed single #
loop $-1 $-1 $227 $100 #
plane-surface $-1 0 39.967795090238788 0 0 -1 0 0 0 -1 forward_v I I I I #
coedge $-1 $174 $173 $228 $229 forward $101 $-1 #
coedge $-1 $103 $113 $230 $231 forward $63 $-1 #
coedge $-1 $167 $109 $103 $162 reversed $168 $-1 #
edge $-1 $232 -39.967795090238788 $114 39.967795090238788 $161 $233 forward 7 unknown #
coedge $-1 $105 $104 $173 $234 forward $41 $-1 #
coedge $-1 $227 $228 $104 $165 reversed $157 $-1 #
edge $-1 $170 -73.755912961210981 $235 73.755912961210981 $164 $236 forward 7 unknown #
edge $-1 $175 -73.755912961210981 $169 73.755912961210981 $108 $237 forward 7 unknown #
coedge $-1 $106 $161 $227 $238 reversed $168 $-1 #
loop $-1 $-1 $109 $156 #
vertex $-1 $107 $239 #
vertex $-1 $107 $240 #
straight-curve $-1 73.755912961210981 0 12.703042853718156 0 1 0 I I #
straight-curve $-1 73.755912961210981 -39.967795090238788 0 0 0 -1 I I #
coedge $-1 $159 $111 $163 $234 reversed $101 $-1 #
coedge $-1 $111 $159 $113 $177 reversed $101 $-1 #
vertex $-1 $234 $241 #
straight-curve $-1 -73.755912961210981 -39.967795090238788 0 0 0 -1 I I #
edge $-1 $115 -39.967795090238788 $242 39.967795090238788 $174 $243 forward 7 unknown #
point $-1 73.755912961210981 -39.967795090238788 -12.703042853718156 #
point $-1 -73.755912961210981 -39.967795090238788 -12.703042853718156 #
face $-1 $-1 $193 $16 $-1 $244 reversed single #
plane-surface $-1 -70.130271389613256 -45.567581866188135 0 -1 0 0 0 0 1 forward_v I I I I #
coedge $-1 $245 $246 $247 $248 forward $118 $-1 #
coedge $-1 $247 $120 $192 $249 reversed $71 $-1 #
coedge $-1 $120 $247 $121 $187 reversed $71 $-1 #
edge $-1 $189 -12.703042853718156 $194 12.703042853718156 $120 $250 forward 7 unknown #
coedge $-1 $122 $121 $246 $251 forward $45 $-1 #
edge $-1 $189 39.967795090238788 $252 51.167368642137475 $184 $253 forward 7 unknown #
edge $-1 $254 -5.5997867759493403 $130 5.5997867759493403 $127 $255 forward 7 unknown #
vertex $-1 $187 $256 #
straight-curve $-1 0 -39.967795090238788 12.703042853718156 -1 0 0 I I #
coedge $-1 $257 $125 $128 $197 forward $193 $-1 #
coedge $-1 $125 $257 $183 $249 forward $193 $-1 #
loop $-1 $-1 $125 $180 #
vertex $-1 $185 $258 #
straight-curve $-1 0 -39.967795090238788 -12.703042853718156 1 0 0 I I #
coedge $-1 $128 $127 $259 $260 forward $129 $-1 #
edge $-1 $131 -5.5997867759493403 $261 5.5997867759493403 $128 $262 forward 7 unknown #
point $-1 -70.130271389613256 -39.967795090238795 12.703042853718156 #
point $-1 -70.130271389613256 -39.967795090238795 -12.703042853718156 #
loop $-1 $-1 $141 $133 #
plane-surface $-1 73.755912961210981 0 0 -1 0 0 0 0 1 forward_v I I I I #
coedge $-1 $203 $136 $138 $207 reversed $79 $-1 #
coedge $-1 $136 $202 $263 $264 reversed $79 $-1 #
coedge $-1 $144 $139 $136 $205 forward $134 $-1 #
edge $-1 $208 5.6252860683200083 $265 13.414072522960566 $204 $266 forward 7 unknown #
coedge $-1 $138 $137 $211 $267 reversed $49 $-1 #
edge $-1 $268 -147.51182592242199 $208 -132.81376309144991 $202 $269 forward 7 unknown #
vertex $-1 $140 $270 #
straight-curve $-1 65.967126506570409 6.0564836890922855 12.703042853718159 0 -1 0 I I #
coedge $-1 $263 $141 $144 $215 reversed $200 $-1 #
coedge $-1 $141 $263 $206 $267 forward $200 $-1 #
vertex $-1 $142 $271 #
straight-curve $-1 73.755912961210981 15.691364361913973 101.75242961352305 0 0 1 I I #
straight-curve $-1 -4.4134434265430684 15.691364361913973 125.33550283929206 0.52991925155115449 0 -0.84804810408105047 I I #
edge $-1 $265 8.5345703944551694 $145 15.691364361913973 $210 $272 forward 7 unknown #
point $-1 73.755912961210981 15.691364361913973 12.703042853718156 #
point $-1 65.967126506570423 15.691364361913973 12.703042853718159 #
edge $-1 $273 1 $273 0 $148 $-1 forward 7 unknown #
vertex $-1 $149 $274 #
ellipse-curve $-1 68.403478473124977 10.579368670871965 5.5596254276292401 0.84804810408105047 0 0.52991925155115449 0.26495962577557725 0 -0.42402405204052523 1 I I #
point $-1 70.126479359666263 10.579368670871965 6.0466866429426336 #
edge $-1 $275 1 $275 0 $152 $-1 forward 7 unknown #
vertex $-1 $153 $276 #
ellipse-curve $-1 68.403478473124977 13.646566085497163 5.5596254276292401 0.84804810408105047 0 0.52991925155115449 0.26495962577557725 0 -0.42402405204052523 1 I I #
point $-1 70.126479359666263 13.646566085497163 6.0466866429426336 #
plane-surface $-1 73.755912961210981 0 0 -1 0 0 0 0 1 forward_v I I I I #
coedge $-1 $230 $164 $167 $238 forward $157 $-1 #
coedge $-1 $164 $230 $159 $229 reversed $157 $-1 #
edge $-1 $235 -12.703042853718156 $242 12.703042853718156 $228 $277 forward 7 unknown #
coedge $-1 $228 $227 $160 $231 reversed $157 $-1 #
edge $-1 $242 -73.755912961210981 $232 73.755912961210981 $230 $278 forward 7 unknown #
vertex $-1 $162 $279 #
straight-curve $-1 73.755912961210981 0 -12.703042853718156 0 -1 0 I I #
edge $-1 $235 -39.967795090238788 $175 39.967795090238788 $173 $280 forward 7 unknown #
vertex $-1 $165 $281 #
straight-curve $-1 0 39.967795090238788 12.703042853718156 -1 0 0 I I #
straight-curve $-1 0 -39.967795090238788 12.703042853718156 1 0 0 I I #
edge $-1 $170 -12.703042853718156 $232 12.703042853718156 $167 $282 forward 7 unknown #
point $-1 73.755912961210981 -39.967795090238788 12.703042853718156 #
point $-1 73.755912961210981 39.967795090238788 12.703042853718156 #
point $-1 -73.755912961210981 -39.967795090238788 12.703042853718156 #
vertex $-1 $231 $283 #
straight-curve $-1 -73.755912961210981 0 -12.703042853718156 0 1 0 I I #
plane-surface $-1 0 0 -12.703042853718156 0 0 1 1 0 0 forward_v I I I I #
coedge $-1 $259 $182 $257 $284 reversed $118 $-1 #
coedge $-1 $182 $259 $186 $251 reversed $118 $-1 #
coedge $-1 $184 $183 $182 $248 reversed $71 $-1 #
edge $-1 $252 -12.703042853718156 $285 12.703042853718156 $247 $286 forward 7 unknown #
edge $-1 $285 -51.167368642137475 $194 -39.967795090238788 $183 $287 forward 7 unknown #
straight-curve $-1 -73.755912961210981 -39.967795090238788 0 0 0 -1 I I #
edge $-1 $252 -1.8128207857988627 $254 1.8128207857988627 $246 $288 forward 7 unknown #
vertex $-1 $187 $289 #
straight-curve $-1 -73.755912961210981 0 12.703042853718156 0 -1 0 I I #
vertex $-1 $188 $290 #
straight-curve $-1 -70.130271389613256 -45.567581866188135 12.703042853718156 0 1 0 I I #
point $-1 -73.755912961210981 -39.967795090238788 12.703042853718156 #
coedge $-1 $192 $191 $245 $284 forward $193 $-1 #
point $-1 -73.755912961210981 -39.967795090238788 -12.703042853718156 #
coedge $-1 $246 $245 $196 $260 reversed $118 $-1 #
edge $-1 $254 -12.703042853718156 $261 12.703042853718156 $196 $291 forward 7 unknown #
vertex $-1 $260 $292 #
straight-curve $-1 -70.130271389613256 -45.567581866188135 -12.703042853718156 0 -1 0 I I #
coedge $-1 $211 $210 $203 $264 forward $200 $-1 #
edge $-1 $265 89.049386759804889 $268 101.51405107727491 $263 $293 forward 7 unknown #
vertex $-1 $215 $294 #
straight-curve $-1 60.341840438250415 8.5345703944551694 12.703042853718159 1 0 0 I I #
edge $-1 $268 2.4780867053628839 $212 9.6348806728216871 $211 $295 forward 7 unknown #
vertex $-1 $267 $296 #
straight-curve $-1 -4.4134434265430684 8.5345703944551694 125.33550283929206 -0.52991925155115449 0 0.84804810408105047 I I #
point $-1 65.967126506570423 8.5345703944551694 12.703042853718159 #
point $-1 73.755912961210981 15.691364361913973 0.23837853624813476 #
straight-curve $-1 73.755912961210981 0 12.703042853718156 0 1 0 I I #
vertex $-1 $218 $297 #
point $-1 68.668438098900552 10.579368670871965 5.1356013755887151 #
vertex $-1 $222 $298 #
point $-1 68.668438098900552 13.646566085497163 5.1356013755887151 #
straight-curve $-1 -73.755912961210981 39.967795090238788 0 0 0 -1 I I #
straight-curve $-1 0 39.967795090238788 -12.703042853718156 1 0 0 I I #
point $-1 73.755912961210981 39.967795090238788 -12.703042853718156 #
straight-curve $-1 -73.755912961210981 0 12.703042853718156 0 -1 0 I I #
point $-1 -73.755912961210981 39.967795090238788 12.703042853718156 #
straight-curve $-1 73.755912961210981 39.967795090238788 0 0 0 -1 I I #
point $-1 -73.755912961210981 39.967795090238788 -12.703042853718156 #
edge $-1 $261 -1.8128207857988627 $285 1.8128207857988627 $245 $299 forward 7 unknown #
vertex $-1 $249 $300 #
straight-curve $-1 -73.755912961210981 -51.167368642137475 0 0 0 -1 I I #
straight-curve $-1 -73.755912961210981 0 -12.703042853718156 0 1 0 I I #
straight-curve $-1 -71.943092175412119 -51.167368642137475 12.703042853718156 1 0 0 I I #
point $-1 -73.755912961210981 -51.167368642137475 12.703042853718156 #
point $-1 -70.130271389613256 -51.167368642137475 12.703042853718156 #
straight-curve $-1 -70.130271389613256 -51.167368642137475 0 0 0 -1 I I #
point $-1 -70.130271389613256 -51.167368642137475 -12.703042853718156 #
straight-curve $-1 73.755912961210981 8.5345703944551694 101.75242961352305 0 0 -1 I I #
point $-1 73.755912961210981 8.5345703944551694 12.703042853718156 #
straight-curve $-1 73.755912961210981 6.0564836890922855 0.23837853624813476 0 1 0 I I #
point $-1 73.755912961210981 8.5345703944551694 0.23837853624813476 #
point $-1 67.979454421084455 10.579368670871965 5.2946658018536636 #
point $-1 67.979454421084455 13.646566085497163 5.2946658018536636 #
straight-curve $-1 -71.943092175412119 -51.167368642137475 -12.703042853718156 -1 0 0 I I #
point $-1 -73.755912961210981 -51.167368642137475 -12.703042853718156 #
End-of-ACIS-data 