500 0 9 0           
7 Unknown 11 ACIS 5.0 NT 24 Thu Mar 25 21:07:19 1999 
-1 9.9999999999999995e-007 1e-010 
body $-1 $9 $-1 $10 #
body $-1 $11 $-1 $12 #
body $-1 $13 $-1 $14 #
body $-1 $15 $-1 $16 #
body $-1 $17 $-1 $18 #
body $-1 $19 $-1 $20 #
body $-1 $21 $-1 $22 #
body $-1 $23 $-1 $24 #
body $-1 $25 $-1 $26 #
lump $-1 $-1 $27 $0 #
transform $-1 1 0 0 0 1 0 0 0 1 57.444380016479997 34.785519965971794 15.529011124309177 1 rotate no_reflect no_shear #
lump $-1 $-1 $28 $1 #
transform $-1 1 0 0 0 1 0 0 0 1 57.444380016479997 34.785519965971794 15.529011124309177 1 rotate no_reflect no_shear #
lump $-1 $-1 $29 $2 #
transform $-1 1 0 0 0 1 0 0 0 1 57.444380016479997 34.785519965971794 15.529011124309177 1 rotate no_reflect no_shear #
lump $-1 $-1 $30 $3 #
transform $-1 1 0 0 0 1 0 0 0 1 57.444380016479997 34.785519965971794 15.529011124309177 1 rotate no_reflect no_shear #
lump $-1 $-1 $31 $4 #
transform $-1 1 0 0 0 1 0 0 0 1 57.444380016479997 34.785519965971794 15.529011124309177 1 rotate no_reflect no_shear #
lump $-1 $-1 $32 $5 #
transform $-1 1 0 0 0 1 0 0 0 1 57.444380016479997 34.785519965971794 15.529011124309177 1 rotate no_reflect no_shear #
lump $-1 $-1 $33 $6 #
transform $-1 1 0 0 0 1 0 0 0 1 57.444380016479997 34.785519965971794 15.529011124309177 1 rotate no_reflect no_shear #
lump $-1 $-1 $34 $7 #
transform $-1 1 0 0 0 1 0 0 0 1 57.444380016479997 34.785519965971794 15.529011124309177 1 rotate no_reflect no_shear #
lump $-1 $-1 $35 $8 #
transform $-1 1 0 0 0 1 0 0 0 1 57.444380016479997 34.785519965971794 15.529011124309177 1 rotate no_reflect no_shear #
shell $-1 $-1 $-1 $36 $-1 $9 #
shell $-1 $-1 $-1 $37 $-1 $11 #
shell $-1 $-1 $-1 $38 $-1 $13 #
shell $-1 $-1 $-1 $39 $-1 $15 #
shell $-1 $-1 $-1 $40 $-1 $17 #
shell $-1 $-1 $-1 $41 $-1 $19 #
shell $-1 $-1 $-1 $42 $-1 $21 #
shell $-1 $-1 $-1 $43 $-1 $23 #
shell $-1 $-1 $-1 $44 $-1 $25 #
face $-1 $45 $46 $27 $-1 $47 forward single #
face $-1 $48 $49 $28 $-1 $50 forward single #
face $-1 $51 $52 $29 $-1 $53 forward single #
face $-1 $54 $55 $30 $-1 $56 reversed single #
face $-1 $57 $58 $31 $-1 $59 forward single #
face $-1 $60 $61 $32 $-1 $62 forward single #
face $-1 $63 $64 $33 $-1 $65 reversed single #
face $-1 $66 $67 $34 $-1 $68 forward single #
face $-1 $69 $70 $35 $-1 $71 forward single #
face $-1 $72 $73 $27 $-1 $74 reversed single #
loop $-1 $-1 $75 $36 #
plane-surface $-1 0 0 15.529011124309177 0 0 1 1 0 0 forward_v I I I I #
face $-1 $76 $77 $28 $-1 $78 reversed single #
loop $-1 $-1 $79 $37 #
plane-surface $-1 0 -34.785519965971794 0 0 1 0 0 0 1 forward_v I I I I #
face $-1 $80 $81 $29 $-1 $82 reversed single #
loop $-1 $-1 $83 $38 #
plane-surface $-1 0 34.785519965971794 0 0 -1 0 0 0 -1 forward_v I I I I #
face $-1 $84 $85 $30 $-1 $86 reversed single #
loop $-1 $-1 $87 $39 #
plane-surface $-1 -123.34186642225609 -3.4560075792164895 94.41496124746341 0 1 0 -0.57357644374324357 0 0.81915203911291934 forward_v I I I I #
face $-1 $88 $89 $31 $-1 $90 forward single #
loop $-1 $91 $92 $40 #
cone-surface $-1 -46.285521154310842 -0.61001475954952156 7.5067291402528049 0.57357644374324357 0 -0.81915203911291934 0.40957601955645967 0 0.28678822187162178 1 I I 0 1 0.5 forward I I I I #
face $-1 $93 $94 $32 $-1 $95 forward single #
loop $-1 $96 $97 $41 #
cone-surface $-1 -46.285521154310842 3.6589744699509339 7.5067291402528049 0.57357644374324357 0 -0.81915203911291934 0.40957601955645967 0 0.28678822187162178 1 I I 0 1 0.5 forward I I I I #
face $-1 $98 $99 $33 $-1 $100 reversed single #
loop $-1 $-1 $101 $42 #
plane-surface $-1 29.23050437010204 6.5049672896179089 160.3124476532395 0 -1 0 -0.57357644374324357 0 -0.81915203911291934 forward_v I I I I #
face $-1 $102 $103 $34 $-1 $104 forward single #
loop $-1 $105 $106 $43 #
cone-surface $-1 46.285521154310842 -0.61001475954952156 7.506729140252812 -0.57357644374324357 0 -0.81915203911291934 0.40957601955645967 0 -0.28678822187162178 1 I I 0 1 0.5 forward I I I I #
face $-1 $107 $108 $35 $-1 $109 forward single #
loop $-1 $110 $111 $44 #
cone-surface $-1 46.285521154310842 3.6589744699509339 7.506729140252812 -0.57357644374324357 0 -0.81915203911291934 0.40957601955645967 0 -0.28678822187162178 1 I I 0 1 0.5 forward I I I I #
face $-1 $112 $113 $27 $-1 $114 reversed single #
loop $-1 $-1 $115 $45 #
plane-surface $-1 0 0 -15.529011124309177 0 0 1 1 0 0 forward_v I I I I #
coedge $-1 $116 $117 $118 $119 forward $46 $-1 #
face $-1 $120 $121 $28 $-1 $122 reversed single #
loop $-1 $-1 $123 $48 #
plane-surface $-1 0 0 -15.529011124309177 0 0 1 1 0 0 forward_v I I I I #
coedge $-1 $124 $125 $126 $127 forward $49 $-1 #
face $-1 $128 $129 $29 $-1 $130 forward single #
loop $-1 $-1 $131 $51 #
plane-surface $-1 57.444380016479997 0 0 -1 0 0 0 0 1 forward_v I I I I #
coedge $-1 $132 $133 $134 $135 forward $52 $-1 #
face $-1 $136 $137 $30 $-1 $138 reversed single #
loop $-1 $-1 $139 $54 #
plane-surface $-1 -57.444380016479997 1.5244798552007097 0.30359919530935997 -0.57357644374324357 0 0.81915203911291934 0.81915203911291934 0 0.57357644374324357 forward_v I I I I #
coedge $-1 $140 $141 $142 $143 reversed $55 $-1 #
face $-1 $-1 $144 $31 $-1 $145 forward single #
loop $-1 $146 $147 $57 #
cone-surface $-1 -45.855338821503409 -0.61001475954952156 6.8923651109181154 0.57357644374324357 0 -0.81915203911291934 0.20478800977822983 0 0.14339411093581089 1 I I -0.70710678118654746 0.70710678118654746 0.25 forward I I I I #
loop $-1 $-1 $148 $40 #
coedge $-1 $92 $92 $149 $150 reversed $58 $-1 #
face $-1 $-1 $151 $32 $-1 $152 forward single #
loop $-1 $153 $154 $60 #
cone-surface $-1 -45.855338821503409 3.6589744699509339 6.8923651109181154 0.57357644374324357 0 -0.81915203911291934 0.20478800977822983 0 0.14339411093581089 1 I I -0.70710678118654746 0.70710678118654746 0.25 forward I I I I #
loop $-1 $-1 $155 $41 #
coedge $-1 $97 $97 $156 $157 reversed $61 $-1 #
face $-1 $158 $159 $33 $-1 $160 reversed single #
loop $-1 $-1 $161 $63 #
plane-surface $-1 -36.666982035674053 1.5244798552007097 66.201085601085452 0.57357644374324357 0 0.81915203911291934 0.81915203911291934 0 -0.57357644374324357 forward_v I I I I #
coedge $-1 $162 $163 $164 $165 reversed $64 $-1 #
face $-1 $-1 $166 $34 $-1 $167 forward single #
loop $-1 $168 $169 $66 #
cone-surface $-1 45.855338821503409 -0.61001475954952156 6.8923651109181225 -0.57357644374324357 0 -0.81915203911291934 0.20478800977822983 0 -0.14339411093581089 1 I I -0.70710678118654746 0.70710678118654746 0.25 forward I I I I #
loop $-1 $-1 $170 $43 #
coedge $-1 $106 $106 $171 $172 reversed $67 $-1 #
face $-1 $-1 $173 $35 $-1 $174 forward single #
loop $-1 $175 $176 $69 #
cone-surface $-1 45.855338821503409 3.6589744699509339 6.8923651109181225 -0.57357644374324357 0 -0.81915203911291934 0.20478800977822983 0 -0.14339411093581089 1 I I -0.70710678118654746 0.70710678118654746 0.25 forward I I I I #
loop $-1 $-1 $177 $44 #
coedge $-1 $111 $111 $178 $179 reversed $70 $-1 #
face $-1 $180 $181 $27 $-1 $182 reversed single #
loop $-1 $-1 $183 $72 #
plane-surface $-1 0 -34.785519965971794 0 0 1 0 0 0 1 forward_v I I I I #
coedge $-1 $184 $185 $186 $187 forward $73 $-1 #
coedge $-1 $188 $75 $189 $190 forward $46 $-1 #
coedge $-1 $75 $188 $191 $192 forward $46 $-1 #
coedge $-1 $193 $194 $75 $119 reversed $195 $-1 #
edge $-1 $196 -34.785519965971794 $197 34.785519965971794 $118 $198 forward 7 unknown #
face $-1 $199 $200 $28 $-1 $201 forward single #
loop $-1 $-1 $202 $76 #
plane-surface $-1 57.444380016479997 0 0 -1 0 0 0 0 1 forward_v I I I I #
coedge $-1 $203 $204 $205 $206 forward $77 $-1 #
coedge $-1 $205 $79 $202 $207 reversed $49 $-1 #
coedge $-1 $79 $205 $208 $209 reversed $49 $-1 #
coedge $-1 $210 $211 $79 $127 reversed $200 $-1 #
edge $-1 $212 -57.444380016479997 $213 57.444380016479997 $126 $214 forward 7 unknown #
face $-1 $215 $216 $29 $-1 $217 reversed single #
loop $-1 $-1 $218 $80 #
plane-surface $-1 0 42.576148123822428 1.9578301420623214 0 0 1 1 0 0 forward_v I I I I #
coedge $-1 $219 $220 $133 $221 forward $81 $-1 #
coedge $-1 $222 $83 $223 $224 reversed $52 $-1 #
coedge $-1 $83 $222 $131 $221 reversed $52 $-1 #
coedge $-1 $218 $225 $83 $135 reversed $129 $-1 #
edge $-1 $226 -57.444380016479997 $227 57.444380016479997 $134 $228 forward 7 unknown #
face $-1 $229 $230 $30 $-1 $231 reversed single #
loop $-1 $-1 $232 $84 #
plane-surface $-1 -123.34186642225609 6.5049672896179089 94.41496124746341 0 -1 0 0.57357644374324357 0 -0.81915203911291934 forward_v I I I I #
coedge $-1 $233 $234 $235 $236 reversed $85 $-1 #
coedge $-1 $141 $87 $237 $238 reversed $55 $-1 #
coedge $-1 $87 $140 $233 $239 reversed $55 $-1 #
coedge $-1 $235 $240 $87 $143 forward $241 $-1 #
edge $-1 $242 4.2265531946480479 $243 25.970694475243093 $142 $244 forward 7 unknown #
loop $-1 $-1 $149 $88 #
plane-surface $-1 -57.444380016479997 1.5244798552007097 0.30359919530935997 -0.57357644374324357 0 0.81915203911291934 0.81915203911291934 0 0.57357644374324357 forward_v I I I I #
loop $-1 $-1 $245 $57 #
coedge $-1 $147 $147 $148 $246 reversed $89 $-1 #
coedge $-1 $148 $148 $147 $246 forward $91 $-1 #
coedge $-1 $149 $149 $92 $150 forward $144 $-1 #
edge $-1 $247 0 $247 6.2831853071796004 $149 $248 forward 7 unknown #
loop $-1 $-1 $156 $93 #
plane-surface $-1 -57.444380016479997 1.5244798552007097 0.30359919530935997 -0.57357644374324357 0 0.81915203911291934 0.81915203911291934 0 0.57357644374324357 forward_v I I I I #
loop $-1 $-1 $249 $60 #
coedge $-1 $154 $154 $155 $250 reversed $94 $-1 #
coedge $-1 $155 $155 $154 $250 forward $96 $-1 #
coedge $-1 $156 $156 $97 $157 forward $151 $-1 #
edge $-1 $251 0 $251 6.2831853071796004 $156 $252 forward 7 unknown #
face $-1 $253 $254 $33 $-1 $255 forward single #
loop $-1 $-1 $256 $98 #
plane-surface $-1 29.23050437010204 -3.4560075792164895 160.3124476532395 0 1 0 0.57357644374324357 0 0.81915203911291934 forward_v I I I I #
coedge $-1 $257 $258 $259 $260 reversed $99 $-1 #
coedge $-1 $163 $101 $261 $262 reversed $64 $-1 #
coedge $-1 $101 $162 $257 $263 reversed $64 $-1 #
coedge $-1 $259 $264 $101 $165 forward $254 $-1 #
edge $-1 $265 -42.829127831428977 $266 -21.084986550833932 $164 $267 forward 7 unknown #
loop $-1 $-1 $171 $102 #
plane-surface $-1 -36.666982035674053 1.5244798552007097 66.201085601085452 0.57357644374324357 0 0.81915203911291934 0.81915203911291934 0 -0.57357644374324357 forward_v I I I I #
loop $-1 $-1 $268 $66 #
coedge $-1 $169 $169 $170 $269 reversed $103 $-1 #
coedge $-1 $170 $170 $169 $269 forward $105 $-1 #
coedge $-1 $171 $171 $106 $172 forward $166 $-1 #
edge $-1 $270 0 $270 6.2831853071796004 $171 $271 forward 7 unknown #
loop $-1 $-1 $178 $107 #
plane-surface $-1 -36.666982035674053 1.5244798552007097 66.201085601085452 0.57357644374324357 0 0.81915203911291934 0.81915203911291934 0 -0.57357644374324357 forward_v I I I I #
loop $-1 $-1 $272 $69 #
coedge $-1 $176 $176 $177 $273 reversed $108 $-1 #
coedge $-1 $177 $177 $176 $273 forward $110 $-1 #
coedge $-1 $178 $178 $111 $179 forward $173 $-1 #
edge $-1 $274 0 $274 6.2831853071796004 $178 $275 forward 7 unknown #
face $-1 $276 $277 $27 $-1 $278 reversed single #
loop $-1 $-1 $279 $112 #
plane-surface $-1 -57.444380016479997 0 0 1 0 0 0 0 -1 forward_v I I I I #
coedge $-1 $191 $280 $193 $281 reversed $113 $-1 #
coedge $-1 $282 $115 $280 $283 forward $73 $-1 #
coedge $-1 $115 $282 $284 $285 forward $73 $-1 #
coedge $-1 $194 $193 $115 $187 reversed $195 $-1 #
edge $-1 $286 -34.785519965971794 $287 34.785519965971794 $186 $288 forward 7 unknown #
coedge $-1 $117 $116 $289 $290 forward $46 $-1 #
coedge $-1 $291 $292 $116 $190 reversed $277 $-1 #
edge $-1 $197 -57.444380016479997 $293 57.444380016479997 $189 $294 forward 7 unknown #
coedge $-1 $295 $183 $117 $192 reversed $113 $-1 #
edge $-1 $296 -57.444380016479997 $196 57.444380016479997 $191 $297 forward 7 unknown #
coedge $-1 $186 $118 $183 $281 forward $195 $-1 #
coedge $-1 $118 $186 $291 $298 reversed $195 $-1 #
loop $-1 $-1 $193 $276 #
vertex $-1 $119 $299 #
vertex $-1 $119 $300 #
straight-curve $-1 57.444380016479997 0 15.529011124309177 0 1 0 I I #
face $-1 $301 $302 $28 $-1 $303 reversed single #
loop $-1 $-1 $211 $120 #
plane-surface $-1 0 -43.459307019060347 -12.131651917005401 0 0 1 1 0 0 forward_v I I I I #
coedge $-1 $304 $305 $124 $207 forward $121 $-1 #
coedge $-1 $306 $123 $305 $307 forward $77 $-1 #
coedge $-1 $123 $306 $308 $309 forward $77 $-1 #
coedge $-1 $125 $124 $123 $206 reversed $49 $-1 #
edge $-1 $310 -57.444380016479997 $311 57.444380016479997 $123 $312 forward 7 unknown #
edge $-1 $311 -15.529011124309177 $213 -12.131651917005401 $202 $313 forward 7 unknown #
coedge $-1 $308 $314 $125 $209 forward $315 $-1 #
edge $-1 $212 12.131651917005401 $310 15.529011124309177 $208 $316 forward 7 unknown #
coedge $-1 $317 $126 $314 $318 forward $200 $-1 #
coedge $-1 $126 $317 $304 $319 forward $200 $-1 #
vertex $-1 $209 $320 #
vertex $-1 $319 $321 #
straight-curve $-1 0 -34.785519965971794 -12.131651917005401 1 0 0 I I #
face $-1 $322 $323 $29 $-1 $324 reversed single #
loop $-1 $-1 $325 $128 #
plane-surface $-1 0 42.576148123822428 -3.580141188605805 0 0 1 1 0 0 forward_v I I I I #
coedge $-1 $326 $134 $220 $327 forward $129 $-1 #
coedge $-1 $328 $131 $325 $329 reversed $81 $-1 #
coedge $-1 $131 $328 $218 $327 reversed $81 $-1 #
edge $-1 $226 -1.9578301420623214 $330 3.580141188605805 $131 $331 forward 7 unknown #
coedge $-1 $133 $132 $332 $333 forward $52 $-1 #
coedge $-1 $334 $335 $132 $224 forward $336 $-1 #
edge $-1 $337 -3.580141188605805 $227 1.9578301420623214 $223 $338 forward 7 unknown #
coedge $-1 $134 $326 $334 $339 forward $129 $-1 #
vertex $-1 $221 $340 #
vertex $-1 $339 $341 #
straight-curve $-1 0 34.785519965971794 1.9578301420623214 -1 0 0 I I #
face $-1 $-1 $241 $30 $-1 $342 forward single #
loop $-1 $-1 $343 $136 #
plane-surface $-1 -57.444380016479997 0 0 1 0 0 0 0 -1 forward_v I I I I #
coedge $-1 $344 $345 $346 $347 reversed $137 $-1 #
coedge $-1 $348 $139 $141 $239 forward $85 $-1 #
coedge $-1 $139 $348 $344 $349 forward $85 $-1 #
coedge $-1 $346 $142 $139 $236 forward $241 $-1 #
edge $-1 $243 -4.2182475068168443 $350 5.7427273620175541 $235 $351 forward 7 unknown #
coedge $-1 $352 $353 $140 $238 forward $230 $-1 #
edge $-1 $354 -46.903881428422345 $242 -31.678469499422526 $237 $355 forward 7 unknown #
edge $-1 $243 -26.544695297520512 $354 0 $141 $356 forward 7 unknown #
coedge $-1 $142 $346 $352 $357 forward $241 $-1 #
loop $-1 $-1 $346 $229 #
vertex $-1 $238 $358 #
vertex $-1 $143 $359 #
straight-curve $-1 -61.670933211128045 -3.4560075792164895 15.529011124309179 1 0 0 I I #
coedge $-1 $245 $245 $-1 $360 reversed $146 $-1 #
edge $-1 $361 0 $361 6.2831853071796004 $147 $362 forward 7 unknown #
vertex $-1 $150 $363 #
ellipse-curve $-1 -46.572309376182467 -0.61001475954952156 7.9163051598092702 -0.57357644374324357 0 0.81915203911291934 0.40957601955645967 0 0.28678822187162178 1 I I #
coedge $-1 $249 $249 $-1 $364 reversed $153 $-1 #
edge $-1 $365 0 $365 6.2831853071796004 $154 $366 forward 7 unknown #
vertex $-1 $157 $367 #
ellipse-curve $-1 -46.572309376182467 3.6589744699509339 7.9163051598092702 -0.57357644374324357 0 0.81915203911291934 0.40957601955645967 0 0.28678822187162178 1 I I #
face $-1 $-1 $368 $33 $-1 $369 reversed single #
loop $-1 $-1 $164 $158 #
plane-surface $-1 0 0 15.529011124309177 0 0 1 1 0 0 forward_v I I I I #
coedge $-1 $370 $371 $372 $373 reversed $159 $-1 #
coedge $-1 $374 $161 $163 $263 forward $99 $-1 #
coedge $-1 $161 $374 $370 $375 forward $99 $-1 #
coedge $-1 $372 $164 $161 $260 forward $254 $-1 #
edge $-1 $266 -5.7427273620175541 $376 4.2182475068168443 $259 $377 forward 7 unknown #
coedge $-1 $378 $379 $162 $262 forward $368 $-1 #
edge $-1 $380 -79.852624631310391 $265 -64.627212702310572 $261 $381 forward 7 unknown #
edge $-1 $266 88.344064735439488 $380 114.88876003295999 $163 $382 forward 7 unknown #
coedge $-1 $164 $372 $378 $383 forward $254 $-1 #
vertex $-1 $165 $384 #
vertex $-1 $165 $385 #
straight-curve $-1 14.61525218505102 6.5049672896179089 15.529011124309179 -1 0 0 I I #
coedge $-1 $268 $268 $-1 $386 reversed $168 $-1 #
edge $-1 $387 0 $387 6.2831853071796004 $169 $388 forward 7 unknown #
vertex $-1 $172 $389 #
ellipse-curve $-1 46.572309376182467 -0.61001475954952156 7.9163051598092773 0.57357644374324357 0 0.81915203911291934 0.40957601955645967 0 -0.28678822187162178 1 I I #
coedge $-1 $272 $272 $-1 $390 reversed $175 $-1 #
edge $-1 $391 0 $391 6.2831853071796004 $176 $392 forward 7 unknown #
vertex $-1 $179 $393 #
ellipse-curve $-1 46.572309376182467 3.6589744699509339 7.9163051598092773 0.57357644374324357 0 0.81915203911291934 0.40957601955645967 0 -0.28678822187162178 1 I I #
face $-1 $-1 $195 $27 $-1 $394 reversed single #
loop $-1 $-1 $292 $180 #
plane-surface $-1 0 34.785519965971794 0 0 -1 0 0 0 -1 forward_v I I I I #
coedge $-1 $395 $289 $292 $396 forward $181 $-1 #
coedge $-1 $183 $295 $184 $283 reversed $113 $-1 #
edge $-1 $196 -15.529011124309177 $287 15.529011124309177 $193 $397 forward 7 unknown #
coedge $-1 $185 $184 $395 $398 forward $73 $-1 #
edge $-1 $287 -57.444380016479997 $399 57.444380016479997 $280 $400 forward 7 unknown #
coedge $-1 $292 $291 $185 $285 reversed $277 $-1 #
edge $-1 $401 -57.444380016479997 $286 57.444380016479997 $284 $402 forward 7 unknown #
vertex $-1 $187 $403 #
vertex $-1 $281 $404 #
straight-curve $-1 57.444380016479997 0 -15.529011124309177 0 -1 0 I I #
coedge $-1 $279 $405 $188 $290 reversed $181 $-1 #
edge $-1 $293 -34.785519965971794 $296 34.785519965971794 $289 $406 forward 7 unknown #
coedge $-1 $284 $189 $194 $298 forward $277 $-1 #
coedge $-1 $189 $284 $279 $396 reversed $277 $-1 #
vertex $-1 $190 $407 #
straight-curve $-1 0 34.785519965971794 15.529011124309177 -1 0 0 I I #
coedge $-1 $280 $191 $405 $408 forward $113 $-1 #
vertex $-1 $290 $409 #
straight-curve $-1 0 -34.785519965971794 15.529011124309177 1 0 0 I I #
edge $-1 $197 -15.529011124309177 $286 15.529011124309177 $194 $410 forward 7 unknown #
point $-1 57.444380016479997 -34.785519965971794 15.529011124309177 #
point $-1 57.444380016479997 34.785519965971794 15.529011124309177 #
face $-1 $-1 $315 $28 $-1 $411 reversed single #
loop $-1 $-1 $412 $199 #
plane-surface $-1 0 -52.133094072148907 -13.830331520657289 0 1 0 0 0 1 forward_v I I I I #
coedge $-1 $413 $202 $211 $319 reversed $121 $-1 #
coedge $-1 $202 $413 $203 $307 reversed $121 $-1 #
coedge $-1 $204 $203 $414 $415 forward $77 $-1 #
edge $-1 $311 34.785519965971794 $416 52.133094072148907 $305 $417 forward 7 unknown #
coedge $-1 $418 $208 $204 $309 reversed $315 $-1 #
edge $-1 $419 -52.133094072148907 $310 -34.785519965971794 $308 $420 forward 7 unknown #
vertex $-1 $209 $421 #
vertex $-1 $307 $422 #
straight-curve $-1 0 -34.785519965971794 -15.529011124309177 1 0 0 I I #
straight-curve $-1 57.444380016479997 -34.785519965971794 0 0 0 1 I I #
coedge $-1 $208 $418 $210 $318 reversed $315 $-1 #
loop $-1 $-1 $208 $301 #
straight-curve $-1 -57.444380016479997 -34.785519965971794 0 0 0 -1 I I #
coedge $-1 $211 $210 $423 $424 forward $200 $-1 #
edge $-1 $212 -8.6737870530885601 $425 8.6737870530885601 $314 $426 forward 7 unknown #
edge $-1 $427 -8.6737870530885601 $213 8.6737870530885601 $304 $428 forward 7 unknown #
point $-1 -57.444380016479997 -34.785519965971787 -12.131651917005401 #
point $-1 57.444380016479997 -34.785519965971787 -12.131651917005401 #
face $-1 $-1 $336 $29 $-1 $429 reversed single #
loop $-1 $-1 $430 $215 #
plane-surface $-1 0 50.366776281673054 -0.81115552327174179 0 -1 0 0 0 -1 forward_v I I I I #
coedge $-1 $332 $431 $219 $329 forward $216 $-1 #
coedge $-1 $225 $218 $432 $433 forward $129 $-1 #
edge $-1 $226 -7.7906281578506267 $434 7.7906281578506267 $220 $435 forward 7 unknown #
coedge $-1 $220 $219 $430 $436 reversed $81 $-1 #
edge $-1 $437 -7.7906281578506267 $330 7.7906281578506267 $219 $438 forward 7 unknown #
vertex $-1 $221 $439 #
straight-curve $-1 57.444380016479997 34.785519965971794 0 0 0 -1 I I #
coedge $-1 $440 $325 $222 $333 reversed $216 $-1 #
edge $-1 $337 -57.444380016479997 $330 57.444380016479997 $332 $441 forward 7 unknown #
coedge $-1 $442 $223 $225 $339 reversed $336 $-1 #
coedge $-1 $223 $442 $440 $443 reversed $336 $-1 #
loop $-1 $-1 $223 $322 #
vertex $-1 $224 $444 #
straight-curve $-1 -57.444380016479997 34.785519965971794 0 0 0 1 I I #
edge $-1 $445 -7.7906281578506267 $227 7.7906281578506267 $334 $446 forward 7 unknown #
point $-1 57.444380016479997 34.785519965971801 1.9578301420623214 #
point $-1 -57.444380016479997 34.785519965971801 1.9578301420623214 #
plane-surface $-1 0 0 15.529011124309177 0 0 1 1 0 0 forward_v I I I I #
coedge $-1 $353 $352 $345 $447 forward $230 $-1 #
coedge $-1 $345 $232 $234 $349 reversed $137 $-1 #
coedge $-1 $232 $344 $343 $447 reversed $137 $-1 #
coedge $-1 $240 $235 $232 $347 forward $241 $-1 #
edge $-1 $350 -25.970694475243093 $448 -4.2265531946480479 $346 $449 forward 7 unknown #
coedge $-1 $234 $233 $353 $450 reversed $85 $-1 #
edge $-1 $451 0 $350 26.544695297520512 $344 $452 forward 7 unknown #
vertex $-1 $236 $453 #
straight-curve $-1 -35.700238735884945 0.76223992760035486 15.529011124309177 0 1 0 I I #
coedge $-1 $343 $237 $240 $357 reversed $230 $-1 #
coedge $-1 $237 $343 $348 $450 forward $230 $-1 #
vertex $-1 $238 $454 #
straight-curve $-1 -57.444380016479997 -3.4560075792164895 47.207480623731705 0 0 1 I I #
straight-curve $-1 -57.444380016479997 -3.4560075792164895 0.30359919530935997 -0.81915203911291934 0 -0.57357644374324357 I I #
edge $-1 $448 -6.5049672896179089 $242 3.4560075792164895 $352 $455 forward 7 unknown #
point $-1 -57.444380016479997 -3.4560075792164895 15.529011124309177 #
point $-1 -35.700238735884952 -3.4560075792164895 15.529011124309177 #
edge $-1 $456 1 $456 0 $245 $-1 forward 7 unknown #
vertex $-1 $246 $457 #
ellipse-curve $-1 -45.998732932439218 -0.61001475954952156 7.097153120696345 -0.57357644374324357 0 0.81915203911291934 0.40957601955645967 0 0.28678822187162178 1 I I #
point $-1 -46.162733356626006 -0.61001475954952156 8.2030933816808869 #
edge $-1 $458 1 $458 0 $249 $-1 forward 7 unknown #
vertex $-1 $250 $459 #
ellipse-curve $-1 -45.998732932439218 3.6589744699509339 7.097153120696345 -0.57357644374324357 0 0.81915203911291934 0.40957601955645967 0 0.28678822187162178 1 I I #
point $-1 -46.162733356626006 3.6589744699509339 8.2030933816808869 #
loop $-1 $-1 $261 $253 #
plane-surface $-1 57.444380016479997 0 0 -1 0 0 0 0 1 forward_v I I I I #
coedge $-1 $371 $256 $258 $375 reversed $159 $-1 #
coedge $-1 $256 $370 $460 $461 reversed $159 $-1 #
coedge $-1 $264 $259 $256 $373 forward $254 $-1 #
edge $-1 $376 21.084986550833932 $462 42.829127831428977 $372 $463 forward 7 unknown #
coedge $-1 $258 $257 $379 $464 reversed $99 $-1 #
edge $-1 $465 -114.88876003295999 $376 -88.344064735439488 $370 $466 forward 7 unknown #
vertex $-1 $260 $467 #
straight-curve $-1 35.700238735884938 0.76223992760035486 15.529011124309179 0 -1 0 I I #
coedge $-1 $460 $261 $264 $383 reversed $368 $-1 #
coedge $-1 $261 $460 $374 $464 forward $368 $-1 #
vertex $-1 $262 $468 #
straight-curve $-1 57.444380016479997 6.5049672896179089 80.156223826619751 0 0 1 I I #
straight-curve $-1 -36.666982035674053 6.5049672896179089 66.201085601085452 0.81915203911291934 0 -0.57357644374324357 I I #
edge $-1 $462 -3.4560075792164895 $265 6.5049672896179089 $378 $469 forward 7 unknown #
point $-1 57.444380016479997 6.5049672896179089 15.529011124309177 #
point $-1 35.700238735884952 6.5049672896179089 15.529011124309179 #
edge $-1 $470 1 $470 0 $268 $-1 forward 7 unknown #
vertex $-1 $269 $471 #
ellipse-curve $-1 45.998732932439218 -0.61001475954952156 7.0971531206963521 0.57357644374324357 0 0.81915203911291934 0.40957601955645967 0 -0.28678822187162178 1 I I #
point $-1 46.981885395738921 -0.61001475954952156 7.62951693793765 #
edge $-1 $472 1 $472 0 $272 $-1 forward 7 unknown #
vertex $-1 $273 $473 #
ellipse-curve $-1 45.998732932439218 3.6589744699509339 7.0971531206963521 0.57357644374324357 0 0.81915203911291934 0.40957601955645967 0 -0.28678822187162178 1 I I #
point $-1 46.981885395738921 3.6589744699509339 7.62951693793765 #
plane-surface $-1 57.444380016479997 0 0 -1 0 0 0 0 1 forward_v I I I I #
coedge $-1 $405 $279 $282 $398 reversed $181 $-1 #
edge $-1 $293 -15.529011124309177 $401 15.529011124309177 $292 $474 forward 7 unknown #
straight-curve $-1 57.444380016479997 -34.785519965971794 0 0 0 -1 I I #
edge $-1 $399 -34.785519965971794 $401 34.785519965971794 $395 $475 forward 7 unknown #
vertex $-1 $398 $476 #
straight-curve $-1 0 -34.785519965971794 -15.529011124309177 -1 0 0 I I #
vertex $-1 $285 $477 #
straight-curve $-1 0 34.785519965971794 -15.529011124309177 1 0 0 I I #
point $-1 57.444380016479997 34.785519965971794 -15.529011124309177 #
point $-1 57.444380016479997 -34.785519965971794 -15.529011124309177 #
coedge $-1 $289 $395 $295 $408 reversed $181 $-1 #
straight-curve $-1 -57.444380016479997 0 15.529011124309177 0 -1 0 I I #
point $-1 -57.444380016479997 34.785519965971794 15.529011124309177 #
edge $-1 $296 -15.529011124309177 $399 15.529011124309177 $405 $478 forward 7 unknown #
point $-1 -57.444380016479997 -34.785519965971794 15.529011124309177 #
straight-curve $-1 57.444380016479997 34.785519965971794 0 0 0 -1 I I #
plane-surface $-1 -57.444380016479997 0 0 1 0 0 0 0 -1 forward_v I I I I #
coedge $-1 $414 $423 $418 $479 forward $302 $-1 #
coedge $-1 $305 $304 $480 $481 forward $121 $-1 #
coedge $-1 $480 $412 $306 $415 reversed $302 $-1 #
edge $-1 $416 -57.444380016479997 $419 57.444380016479997 $414 $482 forward 7 unknown #
vertex $-1 $481 $483 #
straight-curve $-1 57.444380016479997 0 -15.529011124309177 0 -1 0 I I #
coedge $-1 $314 $308 $412 $479 reversed $315 $-1 #
vertex $-1 $309 $484 #
straight-curve $-1 -57.444380016479997 0 -15.529011124309177 0 1 0 I I #
point $-1 -57.444380016479997 -34.785519965971794 -15.529011124309177 #
point $-1 57.444380016479997 -34.785519965971794 -15.529011124309177 #
coedge $-1 $412 $480 $317 $424 reversed $302 $-1 #
edge $-1 $425 -57.444380016479997 $427 57.444380016479997 $423 $485 forward 7 unknown #
vertex $-1 $318 $486 #
straight-curve $-1 -57.444380016479997 -43.459307019060347 -12.131651917005401 0 -1 0 I I #
vertex $-1 $319 $487 #
straight-curve $-1 57.444380016479997 -43.459307019060347 -12.131651917005401 0 1 0 I I #
plane-surface $-1 -57.444380016479997 0 0 1 0 0 0 0 -1 forward_v I I I I #
coedge $-1 $488 $432 $328 $436 forward $323 $-1 #
coedge $-1 $325 $440 $488 $489 forward $216 $-1 #
coedge $-1 $430 $490 $326 $433 reversed $323 $-1 #
edge $-1 $434 -57.444380016479997 $445 57.444380016479997 $432 $491 forward 7 unknown #
vertex $-1 $327 $492 #
straight-curve $-1 57.444380016479997 42.576148123822428 1.9578301420623214 0 1 0 I I #
edge $-1 $434 -2.7689856653340632 $437 2.7689856653340632 $328 $493 forward 7 unknown #
vertex $-1 $329 $494 #
straight-curve $-1 57.444380016479997 42.576148123822428 -3.580141188605805 0 -1 0 I I #
point $-1 57.444380016479997 34.785519965971801 -3.580141188605805 #
coedge $-1 $431 $332 $335 $443 forward $216 $-1 #
straight-curve $-1 0 34.785519965971794 -3.580141188605805 1 0 0 I I #
coedge $-1 $335 $334 $490 $495 forward $336 $-1 #
edge $-1 $337 -7.7906281578506267 $496 7.7906281578506267 $335 $497 forward 7 unknown #
point $-1 -57.444380016479997 34.785519965971801 -3.580141188605805 #
vertex $-1 $433 $498 #
straight-curve $-1 -57.444380016479997 42.576148123822428 1.9578301420623214 0 -1 0 I I #
edge $-1 $448 31.678469499422526 $451 46.903881428422345 $343 $499 forward 7 unknown #
vertex $-1 $357 $500 #
straight-curve $-1 -61.670933211128045 6.5049672896179089 15.529011124309179 -1 0 0 I I #
edge $-1 $451 -5.7427273620175541 $354 4.2182475068168443 $353 $501 forward 7 unknown #
vertex $-1 $450 $502 #
straight-curve $-1 -57.444380016479997 6.5049672896179089 0.30359919530935997 0.81915203911291934 0 0.57357644374324357 I I #
point $-1 -35.700238735884952 6.5049672896179089 15.529011124309177 #
point $-1 -57.444380016479997 -3.4560075792164895 0.30359919530935997 #
straight-curve $-1 -57.444380016479997 0 15.529011124309177 0 -1 0 I I #
vertex $-1 $360 $503 #
point $-1 -45.589156912882757 -0.61001475954952156 7.383941342567967 #
vertex $-1 $364 $504 #
point $-1 -45.589156912882757 3.6589744699509339 7.383941342567967 #
coedge $-1 $379 $378 $371 $461 forward $368 $-1 #
edge $-1 $462 64.627212702310572 $465 79.852624631310391 $460 $505 forward 7 unknown #
vertex $-1 $383 $506 #
straight-curve $-1 14.61525218505102 -3.4560075792164895 15.529011124309179 1 0 0 I I #
edge $-1 $465 -4.2182475068168443 $380 5.7427273620175541 $379 $507 forward 7 unknown #
vertex $-1 $464 $508 #
straight-curve $-1 -36.666982035674053 -3.4560075792164895 66.201085601085452 -0.81915203911291934 0 0.57357644374324357 I I #
point $-1 35.700238735884952 -3.4560075792164895 15.529011124309179 #
point $-1 57.444380016479997 6.5049672896179089 0.30359919530935997 #
straight-curve $-1 57.444380016479997 0 15.529011124309177 0 1 0 I I #
vertex $-1 $386 $509 #
point $-1 46.408308951995679 -0.61001475954952156 6.810364898824731 #
vertex $-1 $390 $510 #
point $-1 46.408308951995679 3.6589744699509339 6.810364898824731 #
straight-curve $-1 -57.444380016479997 34.785519965971794 0 0 0 -1 I I #
straight-curve $-1 -57.444380016479997 0 -15.529011124309177 0 1 0 I I #
point $-1 -57.444380016479997 -34.785519965971794 -15.529011124309177 #
point $-1 -57.444380016479997 34.785519965971794 -15.529011124309177 #
straight-curve $-1 -57.444380016479997 -34.785519965971794 0 0 0 -1 I I #
edge $-1 $425 -1.6986796036518879 $419 1.6986796036518879 $418 $511 forward 7 unknown #
coedge $-1 $423 $414 $413 $481 reversed $302 $-1 #
edge $-1 $427 -1.6986796036518879 $416 1.6986796036518879 $413 $512 forward 7 unknown #
straight-curve $-1 0 -52.133094072148907 -15.529011124309177 -1 0 0 I I #
point $-1 57.444380016479997 -52.133094072148907 -15.529011124309177 #
point $-1 -57.444380016479997 -52.133094072148907 -15.529011124309177 #
straight-curve $-1 0 -52.133094072148907 -12.131651917005401 1 0 0 I I #
point $-1 -57.444380016479997 -52.133094072148907 -12.131651917005401 #
point $-1 57.444380016479997 -52.133094072148907 -12.131651917005401 #
coedge $-1 $490 $430 $431 $489 reversed $323 $-1 #
edge $-1 $496 -57.444380016479997 $437 57.444380016479997 $488 $513 forward 7 unknown #
coedge $-1 $432 $488 $442 $495 reversed $323 $-1 #
straight-curve $-1 0 50.366776281673054 1.9578301420623214 -1 0 0 I I #
point $-1 57.444380016479997 50.366776281673054 1.9578301420623214 #
straight-curve $-1 57.444380016479997 50.366776281673054 -0.81115552327174179 0 0 -1 I I #
point $-1 57.444380016479997 50.366776281673054 -3.580141188605805 #
edge $-1 $445 -2.7689856653340632 $496 2.7689856653340632 $490 $514 forward 7 unknown #
vertex $-1 $489 $515 #
straight-curve $-1 -57.444380016479997 42.576148123822428 -3.580141188605805 0 1 0 I I #
point $-1 -57.444380016479997 50.366776281673054 1.9578301420623214 #
straight-curve $-1 -57.444380016479997 6.5049672896179089 47.207480623731705 0 0 -1 I I #
point $-1 -57.444380016479997 6.5049672896179089 15.529011124309177 #
straight-curve $-1 -57.444380016479997 0.76223992760035486 0.3035991953093603 0 -1 0 I I #
point $-1 -57.444380016479997 6.5049672896179089 0.30359919530935997 #
point $-1 -45.7119447105676 -0.61001475954952156 6.6875771011398859 #
point $-1 -45.7119447105676 3.6589744699509339 6.6875771011398859 #
straight-curve $-1 57.444380016479997 -3.4560075792164895 80.156223826619751 0 0 -1 I I #
point $-1 57.444380016479997 -3.4560075792164895 15.529011124309177 #
straight-curve $-1 57.444380016480004 0.76223992760035486 0.30359919530935287 0 1 0 I I #
point $-1 57.444380016479997 -3.4560075792164895 0.30359919530935997 #
point $-1 45.7119447105676 -0.61001475954952156 6.687577101139893 #
point $-1 45.7119447105676 3.6589744699509339 6.687577101139893 #
straight-curve $-1 -57.444380016479997 -52.133094072148907 -13.830331520657289 0 0 -1 I I #
straight-curve $-1 57.444380016479997 -52.133094072148907 -13.830331520657289 0 0 -1 I I #
straight-curve $-1 0 50.366776281673054 -3.580141188605805 1 0 0 I I #
straight-curve $-1 -57.444380016479997 50.366776281673054 -0.81115552327174179 0 0 -1 I I #
point $-1 -57.444380016479997 50.366776281673054 -3.580141188605805 #
End-of-ACIS-data 