500 0 7 0           
7 Unknown 11 ACIS 5.0 NT 24 Fri Mar 26 01:55:05 1999 
-1 9.9999999999999995e-007 1e-010 
body $-1 $7 $-1 $8 #
body $-1 $9 $-1 $10 #
body $-1 $11 $-1 $12 #
body $-1 $13 $-1 $14 #
body $-1 $15 $-1 $16 #
body $-1 $17 $-1 $18 #
body $-1 $19 $-1 $20 #
lump $-1 $-1 $21 $0 #
transform $-1 1 0 0 0 1 0 0 0 1 72.580339976195575 50.323801445148618 12.973886687461089 1 rotate no_reflect no_shear #
lump $-1 $-1 $22 $1 #
transform $-1 1 0 0 0 1 0 0 0 1 72.580339976195575 50.323801445148618 12.973886687461089 1 rotate no_reflect no_shear #
lump $-1 $-1 $23 $2 #
transform $-1 1 0 0 0 1 0 0 0 1 72.580339976195575 50.323801445148618 12.973886687461089 1 rotate no_reflect no_shear #
lump $-1 $-1 $24 $3 #
transform $-1 1 0 0 0 1 0 0 0 1 72.580339976195575 50.323801445148618 12.973886687461089 1 rotate no_reflect no_shear #
lump $-1 $-1 $25 $4 #
transform $-1 1 0 0 0 1 0 0 0 1 72.580339976195575 50.323801445148618 12.973886687461089 1 rotate no_reflect no_shear #
lump $-1 $-1 $26 $5 #
transform $-1 1 0 0 0 1 0 0 0 1 72.580339976195575 50.323801445148618 12.973886687461089 1 rotate no_reflect no_shear #
lump $-1 $-1 $27 $6 #
transform $-1 1 0 0 0 1 0 0 0 1 72.580339976195575 50.323801445148618 12.973886687461089 1 rotate no_reflect no_shear #
shell $-1 $-1 $-1 $28 $-1 $7 #
shell $-1 $-1 $-1 $29 $-1 $9 #
shell $-1 $-1 $-1 $30 $-1 $11 #
shell $-1 $-1 $-1 $31 $-1 $13 #
shell $-1 $-1 $-1 $32 $-1 $15 #
shell $-1 $-1 $-1 $33 $-1 $17 #
shell $-1 $-1 $-1 $34 $-1 $19 #
face $-1 $35 $36 $21 $-1 $37 forward single #
face $-1 $38 $39 $22 $-1 $40 reversed single #
face $-1 $41 $42 $23 $-1 $43 reversed single #
face $-1 $44 $45 $24 $-1 $46 forward single #
face $-1 $47 $48 $25 $-1 $49 reversed single #
face $-1 $50 $51 $26 $-1 $52 forward single #
face $-1 $53 $54 $27 $-1 $55 forward single #
face $-1 $56 $57 $21 $-1 $58 reversed single #
loop $-1 $-1 $59 $28 #
plane-surface $-1 0 0 12.973886687461089 0 0 1 1 0 0 forward_v I I I I #
face $-1 $60 $61 $22 $-1 $62 reversed single #
loop $-1 $-1 $63 $29 #
plane-surface $-1 -66.448661062202007 -27.473495508686113 0 0 1 0 0 0 1 forward_v I I I I #
face $-1 $64 $65 $23 $-1 $66 reversed single #
loop $-1 $-1 $67 $30 #
plane-surface $-1 -1.2439067047129413 -163.13483883374329 101.16026514390529 -1 0 0 0 -0.77714596973225614 0.62932038083071107 forward_v I I I I #
face $-1 $68 $69 $24 $-1 $70 forward single #
loop $-1 $71 $72 $31 #
cone-surface $-1 -11.778312039953299 -47.603306404108892 10.225892054928295 0 0.77714596973225614 -0.62932038083071107 1 0 0 1 I I 0 1 1 forward I I I I #
face $-1 $73 $74 $25 $-1 $75 reversed single #
loop $-1 $-1 $76 $32 #
plane-surface $-1 -36.931164022047383 111.50337813530378 172.73140853628249 1 0 0 0 -0.81915205242281985 -0.57357642473473569 forward_v I I I I #
face $-1 $77 $78 $26 $-1 $79 forward single #
loop $-1 $80 $81 $33 #
cone-surface $-1 -32.919949947489577 46.872690670800601 9.0412845851461228 0 -0.81915205242281985 -0.57357642473473569 1.5 0 0 1 I I 0 1 1.5 forward I I I I #
face $-1 $82 $83 $27 $-1 $84 forward single #
loop $-1 $85 $86 $34 #
cone-surface $-1 -26.903128835652872 46.872690670800601 9.0412845851461228 0 -0.81915205242281985 -0.57357642473473569 1.5 0 0 1 I I 0 1 1.5 forward I I I I #
face $-1 $87 $88 $21 $-1 $89 reversed single #
loop $-1 $-1 $90 $35 #
plane-surface $-1 0 0 -12.973886687461089 0 0 1 1 0 0 forward_v I I I I #
coedge $-1 $91 $92 $93 $94 forward $36 $-1 #
face $-1 $95 $96 $22 $-1 $97 reversed single #
loop $-1 $-1 $98 $38 #
plane-surface $-1 -66.448661062202007 -24.37602807022644 0 0 -1 0 0 0 -1 forward_v I I I I #
coedge $-1 $99 $100 $101 $102 reversed $39 $-1 #
face $-1 $103 $104 $23 $-1 $105 reversed single #
loop $-1 $-1 $106 $41 #
plane-surface $-1 -11.778312039953299 -50.32380144514859 9.8076907546215324 0 -0.77714596973225614 0.62932038083071107 1 0 0 forward_v I I I I #
coedge $-1 $107 $108 $109 $110 reversed $42 $-1 #
face $-1 $-1 $111 $24 $-1 $112 forward single #
loop $-1 $113 $114 $44 #
cone-surface $-1 -11.778312039953299 -45.776205799925449 8.746335198399926 0 0.77714596973225614 -0.62932038083071107 0.5 0 0 1 I I -0.70710678118654746 0.70710678118654746 0.5 forward I I I I #
loop $-1 $-1 $115 $31 #
coedge $-1 $72 $72 $116 $117 reversed $45 $-1 #
face $-1 $118 $119 $25 $-1 $120 reversed single #
loop $-1 $-1 $121 $47 #
plane-surface $-1 -29.911539391571225 -7.4052907787895066 89.470664717126752 0 0.81915205242281985 0.57357642473473569 1 0 0 forward_v I I I I #
coedge $-1 $122 $123 $124 $125 reversed $48 $-1 #
face $-1 $-1 $126 $26 $-1 $127 forward single #
loop $-1 $128 $129 $50 #
cone-surface $-1 -32.919949947489577 44.889952464869467 7.6529563889592538 0 -0.81915205242281985 -0.57357642473473569 0.75 0 0 1 I I -0.70710678118654791 0.70710678118654702 0.75 forward I I I I #
loop $-1 $-1 $130 $33 #
coedge $-1 $81 $81 $131 $132 reversed $51 $-1 #
face $-1 $-1 $133 $27 $-1 $134 forward single #
loop $-1 $135 $136 $53 #
cone-surface $-1 -26.903128835652872 44.889952464869467 7.6529563889592538 0 -0.81915205242281985 -0.57357642473473569 0.75 0 0 1 I I -0.70710678118654791 0.70710678118654702 0.75 forward I I I I #
loop $-1 $-1 $137 $34 #
coedge $-1 $86 $86 $138 $139 reversed $54 $-1 #
face $-1 $140 $141 $21 $-1 $142 reversed single #
loop $-1 $-1 $143 $56 #
plane-surface $-1 0 -50.323801445148618 0 0 1 0 0 0 1 forward_v I I I I #
coedge $-1 $144 $145 $146 $147 forward $57 $-1 #
coedge $-1 $148 $59 $149 $150 forward $36 $-1 #
coedge $-1 $59 $148 $151 $152 forward $36 $-1 #
coedge $-1 $153 $154 $59 $94 reversed $155 $-1 #
edge $-1 $156 -50.323801445148618 $157 50.323801445148618 $93 $158 forward 7 unknown #
face $-1 $159 $160 $22 $-1 $161 reversed single #
loop $-1 $-1 $162 $60 #
plane-surface $-1 -60.316982148208432 -25.924761789456277 0 -1 0 0 0 0 1 forward_v I I I I #
coedge $-1 $163 $164 $165 $166 forward $61 $-1 #
coedge $-1 $167 $63 $168 $169 reversed $39 $-1 #
coedge $-1 $63 $167 $170 $171 reversed $39 $-1 #
coedge $-1 $172 $173 $63 $102 forward $174 $-1 #
edge $-1 $175 -12.973886687461089 $176 12.973886687461089 $101 $177 forward 7 unknown #
face $-1 $178 $179 $23 $-1 $180 reversed single #
loop $-1 $-1 $181 $64 #
plane-surface $-1 -22.312717375193657 -163.13483883374329 101.16026514390529 1 0 0 0 0.77714596973225614 -0.62932038083071107 forward_v I I I I #
coedge $-1 $182 $183 $184 $185 reversed $65 $-1 #
coedge $-1 $108 $67 $186 $187 reversed $42 $-1 #
coedge $-1 $67 $107 $182 $188 reversed $42 $-1 #
coedge $-1 $184 $189 $67 $110 forward $190 $-1 #
edge $-1 $191 31.243617971723026 $192 33.807552815167867 $109 $193 forward 7 unknown #
loop $-1 $-1 $116 $68 #
plane-surface $-1 -11.778312039953299 -50.32380144514859 9.8076907546215324 0 -0.77714596973225614 0.62932038083071107 1 0 0 forward_v I I I I #
loop $-1 $-1 $194 $44 #
coedge $-1 $114 $114 $115 $195 reversed $69 $-1 #
coedge $-1 $115 $115 $114 $195 forward $71 $-1 #
coedge $-1 $116 $116 $72 $117 forward $111 $-1 #
edge $-1 $196 2.1007279670690359e-015 $196 6.2831853071796022 $116 $197 forward 7 unknown #
face $-1 $198 $199 $25 $-1 $200 reversed single #
loop $-1 $-1 $201 $73 #
plane-surface $-1 -22.891914761095066 111.50337813530378 172.73140853628249 -1 0 0 0 0.81915205242281985 0.57357642473473569 forward_v I I I I #
coedge $-1 $202 $203 $204 $205 reversed $74 $-1 #
coedge $-1 $123 $76 $206 $207 reversed $48 $-1 #
coedge $-1 $76 $122 $202 $208 reversed $48 $-1 #
coedge $-1 $204 $209 $76 $125 forward $210 $-1 #
edge $-1 $211 5.4278876225032704 $212 9.5933608379712254 $124 $213 forward 7 unknown #
loop $-1 $-1 $131 $77 #
plane-surface $-1 -29.911539391571225 -7.4052907787895066 89.470664717126752 0 0.81915205242281985 0.57357642473473569 1 0 0 forward_v I I I I #
loop $-1 $-1 $214 $50 #
coedge $-1 $129 $129 $130 $215 reversed $78 $-1 #
coedge $-1 $130 $130 $129 $215 forward $80 $-1 #
coedge $-1 $131 $131 $81 $132 forward $126 $-1 #
edge $-1 $216 1.5496977655631975e-015 $216 6.2831853071796022 $131 $217 forward 7 unknown #
loop $-1 $-1 $138 $82 #
plane-surface $-1 -29.911539391571225 -7.4052907787895066 89.470664717126752 0 0.81915205242281985 0.57357642473473569 1 0 0 forward_v I I I I #
loop $-1 $-1 $218 $53 #
coedge $-1 $136 $136 $137 $219 reversed $83 $-1 #
coedge $-1 $137 $137 $136 $219 forward $85 $-1 #
coedge $-1 $138 $138 $86 $139 forward $133 $-1 #
edge $-1 $220 1.5496977655631975e-015 $220 6.2831853071796022 $138 $221 forward 7 unknown #
face $-1 $222 $223 $21 $-1 $224 reversed single #
loop $-1 $-1 $225 $87 #
plane-surface $-1 -72.580339976195575 0 0 1 0 0 0 0 -1 forward_v I I I I #
coedge $-1 $226 $151 $227 $228 forward $88 $-1 #
coedge $-1 $229 $90 $226 $230 forward $57 $-1 #
coedge $-1 $90 $229 $231 $232 forward $57 $-1 #
coedge $-1 $154 $153 $90 $147 reversed $155 $-1 #
edge $-1 $233 -50.323801445148618 $234 50.323801445148618 $146 $235 forward 7 unknown #
coedge $-1 $92 $91 $236 $237 forward $36 $-1 #
coedge $-1 $238 $239 $91 $150 reversed $223 $-1 #
edge $-1 $157 -72.580339976195575 $240 72.580339976195575 $149 $241 forward 7 unknown #
coedge $-1 $143 $242 $92 $152 reversed $88 $-1 #
edge $-1 $243 -72.580339976195575 $156 72.580339976195575 $151 $244 forward 7 unknown #
coedge $-1 $146 $93 $242 $245 forward $155 $-1 #
coedge $-1 $93 $146 $238 $246 reversed $155 $-1 #
loop $-1 $-1 $153 $222 #
vertex $-1 $94 $247 #
vertex $-1 $94 $248 #
straight-curve $-1 72.580339976195575 0 12.973886687461089 0 1 0 I I #
face $-1 $249 $250 $22 $-1 $251 forward single #
loop $-1 $-1 $252 $95 #
plane-surface $-1 0 0 -12.973886687461089 0 0 1 1 0 0 forward_v I I I I #
coedge $-1 $253 $254 $167 $255 forward $96 $-1 #
coedge $-1 $256 $98 $252 $257 reversed $61 $-1 #
coedge $-1 $98 $256 $258 $259 reversed $61 $-1 #
coedge $-1 $254 $253 $98 $166 reversed $96 $-1 #
edge $-1 $260 -12.973886687461089 $261 12.973886687461089 $165 $262 forward 7 unknown #
coedge $-1 $100 $99 $162 $255 reversed $39 $-1 #
coedge $-1 $263 $264 $99 $169 forward $160 $-1 #
edge $-1 $265 27.092651617107428 $175 39.356009445094571 $168 $266 forward 7 unknown #
coedge $-1 $267 $268 $100 $171 forward $250 $-1 #
edge $-1 $176 -39.356009445094571 $269 -27.092651617107428 $170 $270 forward 7 unknown #
coedge $-1 $271 $101 $268 $272 reversed $174 $-1 #
coedge $-1 $101 $271 $263 $273 reversed $174 $-1 #
loop $-1 $-1 $271 $249 #
vertex $-1 $273 $274 #
vertex $-1 $102 $275 #
straight-curve $-1 -72.580339976195575 -27.473495508686113 0 0 0 1 I I #
face $-1 $-1 $190 $23 $-1 $276 forward single #
loop $-1 $-1 $277 $103 #
plane-surface $-1 0 -50.323801445148618 0 0 1 0 0 0 1 forward_v I I I I #
coedge $-1 $278 $279 $280 $281 reversed $104 $-1 #
coedge $-1 $282 $106 $108 $188 forward $65 $-1 #
coedge $-1 $106 $282 $278 $283 forward $65 $-1 #
coedge $-1 $280 $109 $106 $185 forward $190 $-1 #
edge $-1 $192 -4.6452493152637082 $284 16.423561355217007 $184 $285 forward 7 unknown #
coedge $-1 $286 $287 $107 $187 forward $179 $-1 #
edge $-1 $288 -40.772441817331149 $191 -37.606245884491557 $186 $289 forward 7 unknown #
edge $-1 $192 -4.0741328606907414 $288 4.5496132173526324e-014 $108 $290 forward 7 unknown #
coedge $-1 $109 $280 $286 $291 forward $190 $-1 #
loop $-1 $-1 $280 $178 #
vertex $-1 $187 $292 #
vertex $-1 $110 $293 #
straight-curve $-1 -1.2439067047129413 -81.567419416871644 12.973886687461089 0 1 0 I I #
coedge $-1 $194 $194 $-1 $294 reversed $113 $-1 #
edge $-1 $295 0 $295 6.2831853071796004 $114 $296 forward 7 unknown #
vertex $-1 $117 $297 #
ellipse-curve $-1 -11.778312039953299 -49.041834023426198 11.390788721041297 0 -0.77714596973225614 0.62932038083071107 1 0 0 1 I I #
face $-1 $-1 $210 $25 $-1 $298 forward single #
loop $-1 $-1 $299 $118 #
plane-surface $-1 0 50.323801445148618 0 0 -1 0 0 0 -1 forward_v I I I I #
coedge $-1 $300 $301 $302 $303 reversed $119 $-1 #
coedge $-1 $304 $121 $123 $208 forward $74 $-1 #
coedge $-1 $121 $304 $300 $305 forward $74 $-1 #
coedge $-1 $302 $124 $121 $205 forward $210 $-1 #
edge $-1 $212 -21.975394326261771 $306 -7.9361450653094536 $204 $307 forward 7 unknown #
coedge $-1 $308 $309 $122 $207 forward $199 $-1 #
edge $-1 $310 -79.340730030038387 $211 -73.391817580680154 $206 $311 forward 7 unknown #
edge $-1 $212 93.385321813465353 $310 100.64760289029724 $123 $312 forward 7 unknown #
coedge $-1 $124 $302 $308 $313 forward $210 $-1 #
loop $-1 $-1 $302 $198 #
vertex $-1 $207 $314 #
vertex $-1 $125 $315 #
straight-curve $-1 -36.931164022047383 55.751689067651888 12.973886687461089 0 -1 0 I I #
coedge $-1 $214 $214 $-1 $316 reversed $128 $-1 #
edge $-1 $317 0 $317 6.2831853071796004 $129 $318 forward 7 unknown #
vertex $-1 $132 $319 #
ellipse-curve $-1 -32.919949947489577 48.241064837414648 9.9994304627819588 0 0.81915205242281985 0.57357642473473569 1.5 0 0 1 I I #
coedge $-1 $218 $218 $-1 $320 reversed $135 $-1 #
edge $-1 $321 0 $321 6.2831853071796004 $136 $322 forward 7 unknown #
vertex $-1 $139 $323 #
ellipse-curve $-1 -26.903128835652872 48.241064837414648 9.9994304627819588 0 0.81915205242281985 0.57357642473473569 1.5 0 0 1 I I #
face $-1 $-1 $155 $21 $-1 $324 reversed single #
loop $-1 $-1 $238 $140 #
plane-surface $-1 0 50.323801445148618 0 0 -1 0 0 0 -1 forward_v I I I I #
coedge $-1 $325 $236 $239 $326 forward $141 $-1 #
coedge $-1 $242 $143 $144 $230 reversed $88 $-1 #
coedge $-1 $236 $325 $143 $228 reversed $141 $-1 #
edge $-1 $243 -12.973886687461089 $327 12.973886687461089 $227 $328 forward 7 unknown #
coedge $-1 $145 $144 $325 $329 forward $57 $-1 #
edge $-1 $234 -72.580339976195575 $327 72.580339976195575 $226 $330 forward 7 unknown #
coedge $-1 $239 $238 $145 $232 reversed $223 $-1 #
edge $-1 $331 -72.580339976195575 $233 72.580339976195575 $231 $332 forward 7 unknown #
vertex $-1 $147 $333 #
vertex $-1 $245 $334 #
straight-curve $-1 72.580339976195575 0 -12.973886687461089 0 -1 0 I I #
coedge $-1 $225 $227 $148 $237 reversed $141 $-1 #
edge $-1 $240 -50.323801445148618 $243 50.323801445148618 $236 $335 forward 7 unknown #
coedge $-1 $231 $149 $154 $246 forward $223 $-1 #
coedge $-1 $149 $231 $225 $326 reversed $223 $-1 #
vertex $-1 $150 $336 #
straight-curve $-1 0 50.323801445148618 12.973886687461089 -1 0 0 I I #
coedge $-1 $151 $226 $153 $245 reversed $88 $-1 #
vertex $-1 $237 $337 #
straight-curve $-1 0 -50.323801445148618 12.973886687461089 1 0 0 I I #
edge $-1 $156 -12.973886687461089 $234 12.973886687461089 $153 $338 forward 7 unknown #
edge $-1 $157 -12.973886687461089 $233 12.973886687461089 $154 $339 forward 7 unknown #
point $-1 72.580339976195575 -50.323801445148618 12.973886687461089 #
point $-1 72.580339976195575 50.323801445148618 12.973886687461089 #
face $-1 $-1 $174 $22 $-1 $340 reversed single #
loop $-1 $-1 $258 $159 #
plane-surface $-1 0 0 12.973886687461089 0 0 1 1 0 0 forward_v I I I I #
coedge $-1 $264 $263 $163 $257 forward $160 $-1 #
coedge $-1 $165 $162 $264 $341 reversed $96 $-1 #
coedge $-1 $162 $165 $267 $342 reversed $96 $-1 #
edge $-1 $269 -12.973886687461089 $265 12.973886687461089 $162 $343 forward 7 unknown #
coedge $-1 $164 $163 $271 $344 reversed $61 $-1 #
edge $-1 $345 -39.356009445094571 $261 -27.092651617107428 $252 $346 forward 7 unknown #
coedge $-1 $268 $267 $164 $259 forward $250 $-1 #
edge $-1 $260 27.092651617107428 $347 39.356009445094571 $258 $348 forward 7 unknown #
vertex $-1 $259 $349 #
vertex $-1 $257 $350 #
straight-curve $-1 -60.316982148208432 -24.37602807022644 0 0 0 -1 I I #
coedge $-1 $252 $168 $173 $273 forward $160 $-1 #
coedge $-1 $168 $252 $253 $341 forward $160 $-1 #
vertex $-1 $169 $351 #
straight-curve $-1 -33.224330531101003 -27.473495508686113 -12.973886687461089 -1 0 0 I I #
coedge $-1 $258 $170 $254 $342 forward $250 $-1 #
coedge $-1 $170 $258 $172 $272 forward $250 $-1 #
vertex $-1 $171 $352 #
straight-curve $-1 -33.224330531101003 -27.473495508686113 12.973886687461089 1 0 0 I I #
coedge $-1 $173 $172 $256 $344 forward $174 $-1 #
edge $-1 $347 24.37602807022644 $176 27.473495508686113 $172 $353 forward 7 unknown #
edge $-1 $175 -27.473495508686113 $345 -24.37602807022644 $173 $354 forward 7 unknown #
point $-1 -72.580339976195575 -27.473495508686113 -12.973886687461089 #
point $-1 -72.580339976195575 -27.473495508686113 12.973886687461089 #
plane-surface $-1 0 0 12.973886687461089 0 0 1 1 0 0 forward_v I I I I #
coedge $-1 $287 $286 $279 $355 forward $179 $-1 #
coedge $-1 $279 $181 $183 $283 reversed $104 $-1 #
coedge $-1 $181 $278 $277 $355 reversed $104 $-1 #
coedge $-1 $189 $184 $181 $281 forward $190 $-1 #
edge $-1 $284 -33.807552815167867 $356 -31.243617971723026 $280 $357 forward 7 unknown #
coedge $-1 $183 $182 $287 $358 reversed $65 $-1 #
edge $-1 $359 -4.5496132173526324e-014 $284 4.0741328606907414 $278 $360 forward 7 unknown #
vertex $-1 $185 $361 #
straight-curve $-1 -5.8891560199766495 -47.759866601703777 12.973886687461089 -1 0 0 I I #
coedge $-1 $277 $186 $189 $291 reversed $179 $-1 #
coedge $-1 $186 $277 $282 $358 forward $179 $-1 #
vertex $-1 $187 $362 #
straight-curve $-1 -1.2439067047129413 -50.323801445148618 50.580132571952646 0 0 1 I I #
straight-curve $-1 -1.2439067047129413 -50.32380144514859 9.8076907546215324 0 -0.62932038083071107 -0.77714596973225614 I I #
edge $-1 $356 -22.312717375193657 $191 -1.2439067047129413 $286 $363 forward 7 unknown #
point $-1 -1.2439067047129413 -50.323801445148618 12.973886687461089 #
point $-1 -1.2439067047129413 -47.759866601703777 12.973886687461089 #
edge $-1 $364 1 $364 0 $194 $-1 forward 7 unknown #
vertex $-1 $195 $365 #
ellipse-curve $-1 -11.778312039953299 -46.164778784791579 9.0609953888152823 0 -0.77714596973225614 0.62932038083071107 1 0 0 1 I I #
point $-1 -10.778312039953299 -49.041834023426212 11.390788721041311 #
plane-surface $-1 0 0 12.973886687461089 0 0 1 1 0 0 forward_v I I I I #
coedge $-1 $309 $308 $301 $366 forward $199 $-1 #
coedge $-1 $301 $201 $203 $305 reversed $119 $-1 #
coedge $-1 $201 $300 $299 $366 reversed $119 $-1 #
coedge $-1 $209 $204 $201 $303 forward $210 $-1 #
edge $-1 $306 -9.5933608379712254 $367 -5.4278876225032704 $302 $368 forward 7 unknown #
coedge $-1 $203 $202 $309 $369 reversed $74 $-1 #
edge $-1 $370 -100.64760289029724 $306 -93.385321813465353 $300 $371 forward 7 unknown #
vertex $-1 $205 $372 #
straight-curve $-1 -14.955769695785612 46.15832822968067 12.973886687461096 1 0 0 I I #
coedge $-1 $299 $206 $209 $313 reversed $199 $-1 #
coedge $-1 $206 $299 $304 $369 forward $199 $-1 #
vertex $-1 $207 $373 #
straight-curve $-1 -36.931164022047383 50.323801445148618 86.365704268141243 0 0 1 I I #
straight-curve $-1 -36.931164022047383 -7.4052907787895066 89.470664717126752 0 0.57357642473473569 -0.81915205242281985 I I #
edge $-1 $367 22.891914761095066 $211 36.931164022047383 $308 $374 forward 7 unknown #
point $-1 -36.931164022047383 50.323801445148618 12.973886687461089 #
point $-1 -36.931164022047383 46.158328229680663 12.973886687461089 #
edge $-1 $375 1 $375 0 $214 $-1 forward 7 unknown #
vertex $-1 $215 $376 #
ellipse-curve $-1 -32.919949947489577 45.504316504186583 8.0831387075103045 0 0.81915205242281985 0.57357642473473569 1.5 0 0 1 I I #
point $-1 -31.419949947489577 48.241064837414626 9.999430462781941 #
edge $-1 $377 1 $377 0 $218 $-1 forward 7 unknown #
vertex $-1 $219 $378 #
ellipse-curve $-1 -26.903128835652872 45.504316504186583 8.0831387075103045 0 0.81915205242281985 0.57357642473473569 1.5 0 0 1 I I #
point $-1 -25.403128835652872 48.241064837414626 9.999430462781941 #
plane-surface $-1 72.580339976195575 0 0 -1 0 0 0 0 1 forward_v I I I I #
coedge $-1 $227 $225 $229 $329 reversed $141 $-1 #
edge $-1 $240 -12.973886687461089 $331 12.973886687461089 $239 $379 forward 7 unknown #
vertex $-1 $329 $380 #
straight-curve $-1 -72.580339976195575 -50.323801445148618 0 0 0 -1 I I #
edge $-1 $327 -50.323801445148618 $331 50.323801445148618 $325 $381 forward 7 unknown #
straight-curve $-1 0 -50.323801445148618 -12.973886687461089 -1 0 0 I I #
vertex $-1 $232 $382 #
straight-curve $-1 0 50.323801445148618 -12.973886687461089 1 0 0 I I #
point $-1 72.580339976195575 50.323801445148618 -12.973886687461089 #
point $-1 72.580339976195575 -50.323801445148618 -12.973886687461089 #
straight-curve $-1 -72.580339976195575 0 12.973886687461089 0 -1 0 I I #
point $-1 -72.580339976195575 50.323801445148618 12.973886687461089 #
point $-1 -72.580339976195575 -50.323801445148618 12.973886687461089 #
straight-curve $-1 72.580339976195575 -50.323801445148618 0 0 0 -1 I I #
straight-curve $-1 72.580339976195575 50.323801445148618 0 0 0 -1 I I #
plane-surface $-1 -72.580339976195575 0 0 1 0 0 0 0 -1 forward_v I I I I #
edge $-1 $261 11.413647175498301 $265 14.511114613957975 $264 $383 forward 7 unknown #
edge $-1 $269 -14.511114613957975 $260 -11.413647175498301 $267 $384 forward 7 unknown #
straight-curve $-1 -60.316982148208432 -27.473495508686113 0 0 0 -1 I I #
edge $-1 $347 -12.973886687461089 $345 12.973886687461089 $271 $385 forward 7 unknown #
vertex $-1 $344 $386 #
straight-curve $-1 -33.224330531101003 -24.37602807022644 -12.973886687461089 1 0 0 I I #
vertex $-1 $272 $387 #
straight-curve $-1 -33.224330531101003 -24.37602807022644 12.973886687461089 -1 0 0 I I #
point $-1 -60.316982148208432 -24.37602807022644 12.973886687461089 #
point $-1 -60.316982148208432 -24.37602807022644 -12.973886687461089 #
point $-1 -60.316982148208432 -27.473495508686113 -12.973886687461089 #
point $-1 -60.316982148208432 -27.473495508686113 12.973886687461089 #
straight-curve $-1 -72.580339976195575 0 12.973886687461089 0 -1 0 I I #
straight-curve $-1 -72.580339976195575 0 -12.973886687461089 0 1 0 I I #
edge $-1 $356 37.606245884491557 $359 40.772441817331149 $277 $388 forward 7 unknown #
vertex $-1 $291 $389 #
straight-curve $-1 -22.312717375193657 -81.567419416871644 12.973886687461089 0 -1 0 I I #
edge $-1 $359 -16.423561355217007 $288 4.6452493152637082 $287 $390 forward 7 unknown #
vertex $-1 $358 $391 #
straight-curve $-1 -22.312717375193657 -50.32380144514859 9.8076907546215324 0 0.62932038083071107 0.77714596973225614 I I #
point $-1 -22.312717375193657 -47.759866601703777 12.973886687461089 #
point $-1 -1.2439067047129413 -50.323801445148618 9.8076907546214969 #
straight-curve $-1 0 -50.323801445148618 12.973886687461089 1 0 0 I I #
vertex $-1 $294 $392 #
point $-1 -10.778312039953299 -46.164778784791579 9.0609953888152823 #
edge $-1 $367 73.391817580680154 $370 79.340730030038387 $299 $393 forward 7 unknown #
vertex $-1 $313 $394 #
straight-curve $-1 -22.891914761095066 55.751689067651888 12.973886687461089 0 1 0 I I #
edge $-1 $370 7.9361450653094536 $310 21.975394326261771 $309 $395 forward 7 unknown #
vertex $-1 $369 $396 #
straight-curve $-1 -22.891914761095066 -7.4052907787895066 89.470664717126752 0 -0.57357642473473569 0.81915205242281985 I I #
point $-1 -22.891914761095066 46.158328229680663 12.973886687461089 #
point $-1 -36.931164022047383 50.323801445148618 7.0249742381028568 #
straight-curve $-1 0 50.323801445148618 12.973886687461089 -1 0 0 I I #
vertex $-1 $316 $397 #
point $-1 -31.419949947489577 45.504316504186583 8.0831387075103045 #
vertex $-1 $320 $398 #
point $-1 -25.403128835652872 45.504316504186583 8.0831387075103045 #
straight-curve $-1 -72.580339976195575 50.323801445148618 0 0 0 -1 I I #
point $-1 -72.580339976195575 -50.323801445148618 -12.973886687461089 #
straight-curve $-1 -72.580339976195575 0 -12.973886687461089 0 1 0 I I #
point $-1 -72.580339976195575 50.323801445148618 -12.973886687461089 #
straight-curve $-1 -60.316982148208432 -12.962380894728138 -12.973886687461089 0 -1 0 I I #
straight-curve $-1 -60.316982148208432 -12.962380894728138 12.973886687461089 0 1 0 I I #
straight-curve $-1 -72.580339976195575 -24.37602807022644 0 0 0 -1 I I #
point $-1 -72.580339976195575 -24.37602807022644 -12.973886687461089 #
point $-1 -72.580339976195575 -24.37602807022644 12.973886687461089 #
straight-curve $-1 -22.312717375193657 -50.323801445148618 50.580132571952646 0 0 -1 I I #
point $-1 -22.312717375193657 -50.323801445148618 12.973886687461089 #
straight-curve $-1 -5.8891560199766495 -50.323801445148618 9.8076907546214969 1 0 0 I I #
point $-1 -22.312717375193657 -50.323801445148618 9.8076907546214969 #
point $-1 -11.778312039953299 -45.38763281505932 8.4316750079845697 #
straight-curve $-1 -22.891914761095066 50.323801445148618 86.365704268141243 0 0 -1 I I #
point $-1 -22.891914761095066 50.323801445148618 12.973886687461089 #
straight-curve $-1 -14.955769695785612 50.323801445148625 7.0249742381028568 -1 0 0 I I #
point $-1 -22.891914761095066 50.323801445148618 7.0249742381028568 #
point $-1 -32.919949947489577 44.27558842555235 7.2227740704082022 #
point $-1 -26.903128835652872 44.27558842555235 7.2227740704082022 #
End-of-ACIS-data 