500 0 14 0           
7 Unknown 11 ACIS 5.0 NT 24 Thu Mar 25 15:15:51 1999 
-1 9.9999999999999995e-007 1e-010 
body $-1 $14 $-1 $15 #
body $-1 $16 $-1 $17 #
body $-1 $18 $-1 $19 #
body $-1 $20 $-1 $21 #
body $-1 $22 $-1 $23 #
body $-1 $24 $-1 $25 #
body $-1 $26 $-1 $27 #
body $-1 $28 $-1 $29 #
body $-1 $30 $-1 $31 #
body $-1 $32 $-1 $33 #
body $-1 $34 $-1 $35 #
body $-1 $36 $-1 $37 #
body $-1 $38 $-1 $39 #
body $-1 $40 $-1 $41 #
lump $-1 $-1 $42 $0 #
transform $-1 1 0 0 0 1 0 0 0 1 51.365092928861351 31.858992359660832 14.985014683868792 1 rotate no_reflect no_shear #
lump $-1 $-1 $43 $1 #
transform $-1 1 0 0 0 1 0 0 0 1 51.365092928861351 31.858992359660832 14.985014683868792 1 rotate no_reflect no_shear #
lump $-1 $-1 $44 $2 #
transform $-1 1 0 0 0 1 0 0 0 1 51.365092928861351 31.858992359660832 14.985014683868792 1 rotate no_reflect no_shear #
lump $-1 $-1 $45 $3 #
transform $-1 1 0 0 0 1 0 0 0 1 51.365092928861351 31.858992359660832 14.985014683868792 1 rotate no_reflect no_shear #
lump $-1 $-1 $46 $4 #
transform $-1 1 0 0 0 1 0 0 0 1 51.365092928861351 31.858992359660832 14.985014683868792 1 rotate no_reflect no_shear #
lump $-1 $-1 $47 $5 #
transform $-1 1 0 0 0 1 0 0 0 1 51.365092928861351 31.858992359660832 14.985014683868792 1 rotate no_reflect no_shear #
lump $-1 $-1 $48 $6 #
transform $-1 1 0 0 0 1 0 0 0 1 51.365092928861351 31.858992359660832 14.985014683868792 1 rotate no_reflect no_shear #
lump $-1 $-1 $49 $7 #
transform $-1 1 0 0 0 1 0 0 0 1 51.365092928861351 31.858992359660832 14.985014683868792 1 rotate no_reflect no_shear #
lump $-1 $-1 $50 $8 #
transform $-1 1 0 0 0 1 0 0 0 1 51.365092928861351 31.858992359660832 14.985014683868792 1 rotate no_reflect no_shear #
lump $-1 $-1 $51 $9 #
transform $-1 1 0 0 0 1 0 0 0 1 51.365092928861351 31.858992359660832 14.985014683868792 1 rotate no_reflect no_shear #
lump $-1 $-1 $52 $10 #
transform $-1 1 0 0 0 1 0 0 0 1 51.365092928861351 31.858992359660832 14.985014683868792 1 rotate no_reflect no_shear #
lump $-1 $-1 $53 $11 #
transform $-1 1 0 0 0 1 0 0 0 1 51.365092928861351 31.858992359660832 14.985014683868792 1 rotate no_reflect no_shear #
lump $-1 $-1 $54 $12 #
transform $-1 1 0 0 0 1 0 0 0 1 51.365092928861351 31.858992359660832 14.985014683868792 1 rotate no_reflect no_shear #
lump $-1 $-1 $55 $13 #
transform $-1 1 0 0 0 1 0 0 0 1 51.365092928861351 31.858992359660832 14.985014683868792 1 rotate no_reflect no_shear #
shell $-1 $-1 $-1 $56 $-1 $14 #
shell $-1 $-1 $-1 $57 $-1 $16 #
shell $-1 $-1 $-1 $58 $-1 $18 #
shell $-1 $-1 $-1 $59 $-1 $20 #
shell $-1 $-1 $-1 $60 $-1 $22 #
shell $-1 $-1 $-1 $61 $-1 $24 #
shell $-1 $-1 $-1 $62 $-1 $26 #
shell $-1 $-1 $-1 $63 $-1 $28 #
shell $-1 $-1 $-1 $64 $-1 $30 #
shell $-1 $-1 $-1 $65 $-1 $32 #
shell $-1 $-1 $-1 $66 $-1 $34 #
shell $-1 $-1 $-1 $67 $-1 $36 #
shell $-1 $-1 $-1 $68 $-1 $38 #
shell $-1 $-1 $-1 $69 $-1 $40 #
face $-1 $70 $71 $42 $-1 $72 forward single #
face $-1 $73 $74 $43 $-1 $75 reversed single #
face $-1 $76 $77 $44 $-1 $78 reversed single #
face $-1 $79 $80 $45 $-1 $81 forward single #
face $-1 $82 $83 $46 $-1 $84 forward single #
face $-1 $85 $86 $47 $-1 $87 forward single #
face $-1 $88 $89 $48 $-1 $90 reversed single #
face $-1 $91 $92 $49 $-1 $93 forward single #
face $-1 $94 $95 $50 $-1 $96 forward single #
face $-1 $97 $98 $51 $-1 $99 forward single #
face $-1 $100 $101 $52 $-1 $102 reversed single #
face $-1 $103 $104 $53 $-1 $105 forward single #
face $-1 $106 $107 $54 $-1 $108 forward single #
face $-1 $109 $110 $55 $-1 $111 forward single #
face $-1 $112 $113 $42 $-1 $114 reversed single #
loop $-1 $-1 $115 $56 #
plane-surface $-1 0 0 14.985014683868792 0 0 1 1 0 0 forward_v I I I I #
face $-1 $116 $117 $43 $-1 $118 reversed single #
loop $-1 $-1 $119 $57 #
plane-surface $-1 0 -24.350181548581261 9.2248824181990354 0 0 1 1 0 0 forward_v I I I I #
face $-1 $120 $121 $44 $-1 $122 reversed single #
loop $-1 $-1 $123 $58 #
plane-surface $-1 74.092272908494124 20.710604800235416 146.4765659053447 0 -1 0 -0.80901700255871778 0 -0.5877852410284794 forward_v I I I I #
face $-1 $124 $125 $45 $-1 $126 forward single #
loop $-1 $127 $128 $59 #
cone-surface $-1 45.431001212096604 10.494857582811555 7.8403088705280259 -0.80901700255871778 0 -0.5877852410284794 0.5877852410284794 0 -0.80901700255871778 1 I I 0 1 1 forward I I I I #
face $-1 $129 $130 $46 $-1 $131 forward single #
loop $-1 $132 $133 $60 #
cone-surface $-1 45.431001212096604 14.325762789345504 7.8403088705280259 -0.80901700255871778 0 -0.5877852410284794 0.5877852410284794 0 -0.80901700255871778 1 I I 0 1 1 forward I I I I #
face $-1 $134 $135 $47 $-1 $136 forward single #
loop $-1 $137 $138 $61 #
cone-surface $-1 45.431001212096604 18.156667995879452 7.8403088705280259 -0.80901700255871778 0 -0.5877852410284794 0.5877852410284794 0 -0.80901700255871778 1 I I 0 1 1 forward I I I I #
face $-1 $139 $140 $48 $-1 $141 reversed single #
loop $-1 $-1 $142 $62 #
plane-surface $-1 -51.365092928861358 -12.444545492009514 2.8149257792002231 -0.79863551827123203 0 0.60181501223851219 0.60181501223851219 0 0.79863551827123203 forward_v I I I I #
face $-1 $143 $144 $49 $-1 $145 forward single #
loop $-1 $146 $147 $63 #
cone-surface $-1 -46.380365407985423 -15.08264063930482 8.5990627254152567 0.79863551827123203 0 -0.60181501223851219 0.3009075061192561 0 0.39931775913561601 1 I I 0 1 0.5 forward I I I I #
face $-1 $148 $149 $50 $-1 $150 forward single #
loop $-1 $151 $152 $64 #
cone-surface $-1 -46.380365407985423 -12.444545492009514 8.5990627254152567 0.79863551827123203 0 -0.60181501223851219 0.3009075061192561 0 0.39931775913561601 1 I I 0 1 0.5 forward I I I I #
face $-1 $153 $154 $51 $-1 $155 forward single #
loop $-1 $156 $157 $65 #
cone-surface $-1 -46.380365407985423 -9.8064503447142073 8.5990627254152567 0.79863551827123203 0 -0.60181501223851219 0.3009075061192561 0 0.39931775913561601 1 I I 0 1 0.5 forward I I I I #
face $-1 $158 $159 $52 $-1 $160 reversed single #
loop $-1 $-1 $161 $66 #
plane-surface $-1 -133.40906815344371 7.5088108110795746 64.639493838430241 0 1 0 -0.79863551827123203 0 0.60181501223851219 forward_v I I I I #
face $-1 $162 $163 $53 $-1 $164 forward single #
loop $-1 $165 $166 $67 #
cone-surface $-1 -46.380365407985423 9.2675409092764411 8.5990627254152567 0.79863551827123203 0 -0.60181501223851219 0.3009075061192561 0 0.39931775913561601 1 I I 0 1 0.5 forward I I I I #
face $-1 $167 $168 $54 $-1 $169 forward single #
loop $-1 $170 $171 $68 #
cone-surface $-1 -46.380365407985423 11.905636056571751 8.5990627254152567 0.79863551827123203 0 -0.60181501223851219 0.3009075061192561 0 0.39931775913561601 1 I I 0 1 0.5 forward I I I I #
face $-1 $172 $173 $55 $-1 $174 forward single #
loop $-1 $175 $176 $69 #
cone-surface $-1 -46.380365407985423 14.543731203867054 8.5990627254152567 0.79863551827123203 0 -0.60181501223851219 0.3009075061192561 0 0.39931775913561601 1 I I 0 1 0.5 forward I I I I #
face $-1 $177 $178 $42 $-1 $179 reversed single #
loop $-1 $-1 $180 $70 #
plane-surface $-1 0 0 -14.985014683868792 0 0 1 1 0 0 forward_v I I I I #
coedge $-1 $181 $182 $183 $184 forward $71 $-1 #
face $-1 $185 $186 $43 $-1 $187 reversed single #
loop $-1 $-1 $188 $73 #
plane-surface $-1 0 -16.841370737501691 12.104948551033916 0 -1 0 0 0 -1 forward_v I I I I #
coedge $-1 $189 $190 $191 $192 reversed $74 $-1 #
face $-1 $193 $194 $44 $-1 $195 reversed single #
loop $-1 $-1 $196 $76 #
plane-surface $-1 -9.0181941264206671 14.325762789345504 86.093278850062688 0.80901700255871778 0 0.5877852410284794 0.5877852410284794 0 -0.80901700255871778 forward_v I I I I #
coedge $-1 $197 $198 $199 $200 reversed $77 $-1 #
face $-1 $-1 $201 $45 $-1 $202 forward single #
loop $-1 $203 $204 $79 #
cone-surface $-1 43.452456273330647 10.494857582811555 6.4028118710334834 -0.80901700255871778 0 -0.5877852410284794 0.2938926205142397 0 -0.40450850127935889 1 I I -0.70710678118654746 0.70710678118654746 0.5 forward I I I I #
loop $-1 $-1 $205 $59 #
coedge $-1 $128 $128 $206 $207 reversed $80 $-1 #
face $-1 $-1 $208 $46 $-1 $209 forward single #
loop $-1 $210 $211 $82 #
cone-surface $-1 43.452456273330647 14.325762789345504 6.4028118710334834 -0.80901700255871778 0 -0.5877852410284794 0.2938926205142397 0 -0.40450850127935889 1 I I -0.70710678118654746 0.70710678118654746 0.5 forward I I I I #
loop $-1 $-1 $212 $60 #
coedge $-1 $133 $133 $213 $214 reversed $83 $-1 #
face $-1 $-1 $215 $47 $-1 $216 forward single #
loop $-1 $217 $218 $85 #
cone-surface $-1 43.452456273330647 18.156667995879452 6.4028118710334834 -0.80901700255871778 0 -0.5877852410284794 0.2938926205142397 0 -0.40450850127935889 1 I I -0.70710678118654746 0.70710678118654746 0.5 forward I I I I #
loop $-1 $-1 $219 $61 #
coedge $-1 $138 $138 $220 $221 reversed $86 $-1 #
face $-1 $222 $223 $48 $-1 $224 forward single #
loop $-1 $-1 $225 $88 #
plane-surface $-1 -133.40906815344371 -8.0477202465173363 64.639493838430241 0 -1 0 0.79863551827123203 0 -0.60181501223851219 forward_v I I I I #
coedge $-1 $226 $227 $228 $229 reversed $89 $-1 #
face $-1 $-1 $230 $49 $-1 $231 forward single #
loop $-1 $232 $233 $91 #
cone-surface $-1 -45.781388769281996 -15.08264063930482 8.1477014662363718 0.79863551827123203 0 -0.60181501223851219 0.15045375305962805 0 0.19965887956780801 1 I I -0.70710678118654746 0.70710678118654746 0.25 forward I I I I #
loop $-1 $-1 $234 $63 #
coedge $-1 $147 $147 $235 $236 reversed $92 $-1 #
face $-1 $-1 $237 $50 $-1 $238 forward single #
loop $-1 $239 $240 $94 #
cone-surface $-1 -45.781388769281996 -12.444545492009514 8.1477014662363718 0.79863551827123203 0 -0.60181501223851219 0.15045375305962805 0 0.19965887956780801 1 I I -0.70710678118654746 0.70710678118654746 0.25 forward I I I I #
loop $-1 $-1 $241 $64 #
coedge $-1 $152 $152 $242 $243 reversed $95 $-1 #
face $-1 $-1 $244 $51 $-1 $245 forward single #
loop $-1 $246 $247 $97 #
cone-surface $-1 -45.781388769281996 -9.8064503447142073 8.1477014662363718 0.79863551827123203 0 -0.60181501223851219 0.15045375305962805 0 0.19965887956780801 1 I I -0.70710678118654746 0.70710678118654746 0.25 forward I I I I #
loop $-1 $-1 $248 $65 #
coedge $-1 $157 $157 $249 $250 reversed $98 $-1 #
face $-1 $251 $252 $52 $-1 $253 reversed single #
loop $-1 $-1 $254 $100 #
plane-surface $-1 -51.365092928861358 11.905636056571751 2.8149257792002231 -0.79863551827123203 0 0.60181501223851219 0.60181501223851219 0 0.79863551827123203 forward_v I I I I #
coedge $-1 $255 $256 $257 $258 reversed $101 $-1 #
face $-1 $-1 $259 $53 $-1 $260 forward single #
loop $-1 $261 $262 $103 #
cone-surface $-1 -45.781388769281996 9.2675409092764411 8.1477014662363718 0.79863551827123203 0 -0.60181501223851219 0.15045375305962805 0 0.19965887956780801 1 I I -0.70710678118654746 0.70710678118654746 0.25 forward I I I I #
loop $-1 $-1 $263 $67 #
coedge $-1 $166 $166 $264 $265 reversed $104 $-1 #
face $-1 $-1 $266 $54 $-1 $267 forward single #
loop $-1 $268 $269 $106 #
cone-surface $-1 -45.781388769281996 11.905636056571751 8.1477014662363718 0.79863551827123203 0 -0.60181501223851219 0.15045375305962805 0 0.19965887956780801 1 I I -0.70710678118654746 0.70710678118654746 0.25 forward I I I I #
loop $-1 $-1 $270 $68 #
coedge $-1 $171 $171 $271 $272 reversed $107 $-1 #
face $-1 $-1 $273 $55 $-1 $274 forward single #
loop $-1 $275 $276 $109 #
cone-surface $-1 -45.781388769281996 14.543731203867054 8.1477014662363718 0.79863551827123203 0 -0.60181501223851219 0.15045375305962805 0 0.19965887956780801 1 I I -0.70710678118654746 0.70710678118654746 0.25 forward I I I I #
loop $-1 $-1 $277 $69 #
coedge $-1 $176 $176 $278 $279 reversed $110 $-1 #
face $-1 $280 $281 $42 $-1 $282 reversed single #
loop $-1 $-1 $283 $112 #
plane-surface $-1 0 -31.858992359660832 0 0 1 0 0 0 1 forward_v I I I I #
coedge $-1 $284 $285 $286 $287 forward $113 $-1 #
coedge $-1 $288 $115 $289 $290 forward $71 $-1 #
coedge $-1 $115 $288 $291 $292 forward $71 $-1 #
coedge $-1 $293 $294 $115 $184 reversed $295 $-1 #
edge $-1 $296 -31.858992359660832 $297 31.858992359660832 $183 $298 forward 7 unknown #
face $-1 $299 $300 $43 $-1 $301 reversed single #
loop $-1 $-1 $302 $116 #
plane-surface $-1 -51.365092928861351 0 0 1 0 0 0 0 -1 forward_v I I I I #
coedge $-1 $303 $304 $305 $306 reversed $117 $-1 #
coedge $-1 $307 $119 $308 $309 reversed $74 $-1 #
coedge $-1 $119 $307 $303 $310 forward $74 $-1 #
coedge $-1 $305 $311 $119 $192 forward $312 $-1 #
edge $-1 $313 -19.683901585370201 $314 -4.6662799632110605 $191 $315 forward 7 unknown #
face $-1 $316 $317 $44 $-1 $318 reversed single #
loop $-1 $-1 $319 $120 #
plane-surface $-1 74.092272908494124 7.9409207784555917 146.4765659053447 0 1 0 0.80901700255871778 0 0.5877852410284794 forward_v I I I I #
coedge $-1 $320 $321 $322 $323 reversed $121 $-1 #
coedge $-1 $198 $123 $324 $325 reversed $77 $-1 #
coedge $-1 $123 $197 $320 $326 reversed $77 $-1 #
coedge $-1 $322 $327 $123 $200 forward $328 $-1 #
edge $-1 $329 -14.318956474614289 $330 -5.5988459160580177 $199 $331 forward 7 unknown #
loop $-1 $-1 $206 $124 #
plane-surface $-1 -9.0181941264206671 14.325762789345504 86.093278850062688 0.80901700255871778 0 0.5877852410284794 0.5877852410284794 0 -0.80901700255871778 forward_v I I I I #
loop $-1 $-1 $332 $79 #
coedge $-1 $204 $204 $205 $333 reversed $125 $-1 #
coedge $-1 $205 $205 $204 $333 forward $127 $-1 #
coedge $-1 $206 $206 $128 $207 forward $201 $-1 #
edge $-1 $334 0 $334 6.2831853071796004 $206 $335 forward 7 unknown #
loop $-1 $-1 $213 $129 #
plane-surface $-1 -9.0181941264206671 14.325762789345504 86.093278850062688 0.80901700255871778 0 0.5877852410284794 0.5877852410284794 0 -0.80901700255871778 forward_v I I I I #
loop $-1 $-1 $336 $82 #
coedge $-1 $211 $211 $212 $337 reversed $130 $-1 #
coedge $-1 $212 $212 $211 $337 forward $132 $-1 #
coedge $-1 $213 $213 $133 $214 forward $208 $-1 #
edge $-1 $338 0 $338 6.2831853071796004 $213 $339 forward 7 unknown #
loop $-1 $-1 $220 $134 #
plane-surface $-1 -9.0181941264206671 14.325762789345504 86.093278850062688 0.80901700255871778 0 0.5877852410284794 0.5877852410284794 0 -0.80901700255871778 forward_v I I I I #
loop $-1 $-1 $340 $85 #
coedge $-1 $218 $218 $219 $341 reversed $135 $-1 #
coedge $-1 $219 $219 $218 $341 forward $137 $-1 #
coedge $-1 $220 $220 $138 $221 forward $215 $-1 #
edge $-1 $342 0 $342 6.2831853071796004 $220 $343 forward 7 unknown #
face $-1 $344 $345 $48 $-1 $346 reversed single #
loop $-1 $-1 $228 $139 #
plane-surface $-1 0 0 14.985014683868792 0 0 1 1 0 0 forward_v I I I I #
coedge $-1 $347 $348 $349 $350 reversed $140 $-1 #
coedge $-1 $351 $142 $352 $353 reversed $89 $-1 #
coedge $-1 $142 $351 $347 $354 forward $89 $-1 #
coedge $-1 $349 $355 $142 $229 forward $223 $-1 #
edge $-1 $356 -10.619097991496934 $357 -1.8254475005125794 $228 $358 forward 7 unknown #
loop $-1 $-1 $235 $143 #
plane-surface $-1 -51.365092928861358 -12.444545492009514 2.8149257792002231 -0.79863551827123203 0 0.60181501223851219 0.60181501223851219 0 0.79863551827123203 forward_v I I I I #
loop $-1 $-1 $359 $91 #
coedge $-1 $233 $233 $234 $360 reversed $144 $-1 #
coedge $-1 $234 $234 $233 $360 forward $146 $-1 #
coedge $-1 $235 $235 $147 $236 forward $230 $-1 #
edge $-1 $361 0 $361 6.2831853071796004 $235 $362 forward 7 unknown #
loop $-1 $-1 $242 $148 #
plane-surface $-1 -51.365092928861358 -12.444545492009514 2.8149257792002231 -0.79863551827123203 0 0.60181501223851219 0.60181501223851219 0 0.79863551827123203 forward_v I I I I #
loop $-1 $-1 $363 $94 #
coedge $-1 $240 $240 $241 $364 reversed $149 $-1 #
coedge $-1 $241 $241 $240 $364 forward $151 $-1 #
coedge $-1 $242 $242 $152 $243 forward $237 $-1 #
edge $-1 $365 0 $365 6.2831853071796004 $242 $366 forward 7 unknown #
loop $-1 $-1 $249 $153 #
plane-surface $-1 -51.365092928861358 -12.444545492009514 2.8149257792002231 -0.79863551827123203 0 0.60181501223851219 0.60181501223851219 0 0.79863551827123203 forward_v I I I I #
loop $-1 $-1 $367 $97 #
coedge $-1 $247 $247 $248 $368 reversed $154 $-1 #
coedge $-1 $248 $248 $247 $368 forward $156 $-1 #
coedge $-1 $249 $249 $157 $250 forward $244 $-1 #
edge $-1 $369 0 $369 6.2831853071796004 $249 $370 forward 7 unknown #
face $-1 $371 $372 $52 $-1 $373 forward single #
loop $-1 $-1 $374 $158 #
plane-surface $-1 -133.40906815344371 16.302461302063929 64.639493838430241 0 -1 0 0.79863551827123203 0 -0.60181501223851219 forward_v I I I I #
coedge $-1 $375 $376 $377 $378 reversed $159 $-1 #
coedge $-1 $256 $161 $379 $380 reversed $101 $-1 #
coedge $-1 $161 $255 $375 $381 reversed $101 $-1 #
coedge $-1 $377 $382 $161 $258 forward $372 $-1 #
edge $-1 $383 15.339441147860505 $384 24.510260671341143 $257 $385 forward 7 unknown #
loop $-1 $-1 $264 $162 #
plane-surface $-1 -51.365092928861358 11.905636056571751 2.8149257792002231 -0.79863551827123203 0 0.60181501223851219 0.60181501223851219 0 0.79863551827123203 forward_v I I I I #
loop $-1 $-1 $386 $103 #
coedge $-1 $262 $262 $263 $387 reversed $163 $-1 #
coedge $-1 $263 $263 $262 $387 forward $165 $-1 #
coedge $-1 $264 $264 $166 $265 forward $259 $-1 #
edge $-1 $388 0 $388 6.2831853071796004 $264 $389 forward 7 unknown #
loop $-1 $-1 $271 $167 #
plane-surface $-1 -51.365092928861358 11.905636056571751 2.8149257792002231 -0.79863551827123203 0 0.60181501223851219 0.60181501223851219 0 0.79863551827123203 forward_v I I I I #
loop $-1 $-1 $390 $106 #
coedge $-1 $269 $269 $270 $391 reversed $168 $-1 #
coedge $-1 $270 $270 $269 $391 forward $170 $-1 #
coedge $-1 $271 $271 $171 $272 forward $266 $-1 #
edge $-1 $392 0 $392 6.2831853071796004 $271 $393 forward 7 unknown #
loop $-1 $-1 $278 $172 #
plane-surface $-1 -51.365092928861358 11.905636056571751 2.8149257792002231 -0.79863551827123203 0 0.60181501223851219 0.60181501223851219 0 0.79863551827123203 forward_v I I I I #
loop $-1 $-1 $394 $109 #
coedge $-1 $276 $276 $277 $395 reversed $173 $-1 #
coedge $-1 $277 $277 $276 $395 forward $175 $-1 #
coedge $-1 $278 $278 $176 $279 forward $273 $-1 #
edge $-1 $396 0 $396 6.2831853071796004 $278 $397 forward 7 unknown #
face $-1 $398 $399 $42 $-1 $400 reversed single #
loop $-1 $-1 $401 $177 #
plane-surface $-1 -51.365092928861351 0 0 1 0 0 0 0 -1 forward_v I I I I #
coedge $-1 $402 $291 $403 $404 forward $178 $-1 #
coedge $-1 $405 $180 $402 $406 forward $113 $-1 #
coedge $-1 $180 $405 $407 $408 forward $113 $-1 #
coedge $-1 $294 $293 $180 $287 reversed $295 $-1 #
edge $-1 $409 -31.858992359660832 $410 31.858992359660832 $286 $411 forward 7 unknown #
coedge $-1 $182 $181 $412 $413 forward $71 $-1 #
coedge $-1 $414 $415 $181 $290 reversed $399 $-1 #
edge $-1 $297 -51.365092928861351 $416 51.365092928861351 $289 $417 forward 7 unknown #
coedge $-1 $283 $418 $182 $292 reversed $178 $-1 #
edge $-1 $419 -51.365092928861351 $296 51.365092928861351 $291 $420 forward 7 unknown #
coedge $-1 $286 $183 $418 $421 forward $295 $-1 #
coedge $-1 $183 $286 $414 $422 reversed $295 $-1 #
loop $-1 $-1 $293 $398 #
vertex $-1 $184 $423 #
vertex $-1 $184 $424 #
straight-curve $-1 51.365092928861351 0 14.985014683868792 0 1 0 I I #
face $-1 $425 $426 $43 $-1 $427 forward single #
loop $-1 $-1 $308 $185 #
plane-surface $-1 0 -31.858992359660832 0 0 1 0 0 0 1 forward_v I I I I #
coedge $-1 $428 $429 $430 $431 forward $186 $-1 #
coedge $-1 $430 $188 $190 $310 reversed $117 $-1 #
coedge $-1 $188 $430 $432 $433 reversed $117 $-1 #
coedge $-1 $434 $191 $188 $306 forward $312 $-1 #
edge $-1 $314 3.1724081426820776 $435 8.9325404083518372 $305 $436 forward 7 unknown #
coedge $-1 $190 $189 $428 $437 reversed $74 $-1 #
coedge $-1 $438 $439 $189 $309 forward $300 $-1 #
edge $-1 $440 -51.365092928861351 $313 51.365092928861351 $308 $441 forward 7 unknown #
edge $-1 $442 -51.365092928861351 $314 51.365092928861351 $303 $443 forward 7 unknown #
coedge $-1 $191 $434 $438 $444 forward $312 $-1 #
loop $-1 $-1 $305 $425 #
vertex $-1 $309 $445 #
vertex $-1 $192 $446 #
straight-curve $-1 51.365092928861351 -12.175090774290631 9.2248824181990354 0 1 0 I I #
face $-1 $-1 $328 $44 $-1 $447 forward single #
loop $-1 $-1 $448 $193 #
plane-surface $-1 51.365092928861351 0 0 -1 0 0 0 0 1 forward_v I I I I #
coedge $-1 $449 $450 $451 $452 reversed $194 $-1 #
coedge $-1 $453 $196 $198 $326 forward $121 $-1 #
coedge $-1 $196 $453 $449 $454 forward $121 $-1 #
coedge $-1 $451 $199 $196 $323 forward $328 $-1 #
edge $-1 $330 -13.547723405562664 $455 -0.77803938378283988 $322 $456 forward 7 unknown #
coedge $-1 $457 $458 $197 $325 forward $317 $-1 #
edge $-1 $459 -70.255471137524452 $329 -58.253268268803559 $324 $460 forward 7 unknown #
edge $-1 $330 87.894647382312485 $459 102.73018585772269 $198 $461 forward 7 unknown #
coedge $-1 $199 $451 $457 $462 forward $328 $-1 #
loop $-1 $-1 $451 $316 #
vertex $-1 $325 $463 #
vertex $-1 $200 $464 #
straight-curve $-1 37.046136454247062 20.710604800235416 14.985014683868798 -1 0 0 I I #
coedge $-1 $332 $332 $-1 $465 reversed $203 $-1 #
edge $-1 $466 0 $466 6.2831853071796004 $204 $467 forward 7 unknown #
vertex $-1 $207 $468 #
ellipse-curve $-1 47.005037649583223 10.494857582811555 8.983913249508344 0.80901700255871778 0 0.5877852410284794 0.5877852410284794 0 -0.80901700255871778 1 I I #
coedge $-1 $336 $336 $-1 $469 reversed $210 $-1 #
edge $-1 $470 0 $470 6.2831853071796004 $211 $471 forward 7 unknown #
vertex $-1 $214 $472 #
ellipse-curve $-1 47.005037649583223 14.325762789345504 8.983913249508344 0.80901700255871778 0 0.5877852410284794 0.5877852410284794 0 -0.80901700255871778 1 I I #
coedge $-1 $340 $340 $-1 $473 reversed $217 $-1 #
edge $-1 $474 0 $474 6.2831853071796004 $218 $475 forward 7 unknown #
vertex $-1 $221 $476 #
ellipse-curve $-1 47.005037649583223 18.156667995879452 8.983913249508344 0.80901700255871778 0 0.5877852410284794 0.5877852410284794 0 -0.80901700255871778 1 I I #
face $-1 $-1 $477 $48 $-1 $478 forward single #
loop $-1 $-1 $479 $222 #
plane-surface $-1 -51.365092928861351 0 0 1 0 0 0 0 -1 forward_v I I I I #
coedge $-1 $348 $225 $227 $354 reversed $140 $-1 #
coedge $-1 $225 $347 $479 $480 reversed $140 $-1 #
coedge $-1 $481 $228 $225 $350 forward $223 $-1 #
edge $-1 $357 -24.510260671341143 $482 -15.339441147860505 $349 $483 forward 7 unknown #
coedge $-1 $227 $226 $484 $485 reversed $89 $-1 #
coedge $-1 $486 $487 $226 $353 forward $477 $-1 #
edge $-1 $488 -19.165813090374968 $356 -3.9272109668273356 $352 $489 forward 7 unknown #
edge $-1 $490 1.1724126593787106e-014 $357 15.238602123547643 $347 $491 forward 7 unknown #
coedge $-1 $228 $481 $486 $492 forward $223 $-1 #
vertex $-1 $353 $493 #
vertex $-1 $229 $494 #
straight-curve $-1 -42.19427340538072 -6.2222727460047569 14.985014683868792 0 1 0 I I #
coedge $-1 $359 $359 $-1 $495 reversed $232 $-1 #
edge $-1 $496 0 $496 6.2831853071796004 $233 $497 forward 7 unknown #
vertex $-1 $236 $498 #
ellipse-curve $-1 -46.779683167121036 -15.08264063930482 8.8999702315345104 -0.79863551827123203 0 0.60181501223851219 0.3009075061192561 0 0.39931775913561601 1 I I #
coedge $-1 $363 $363 $-1 $499 reversed $239 $-1 #
edge $-1 $500 0 $500 6.2831853071796004 $240 $501 forward 7 unknown #
vertex $-1 $243 $502 #
ellipse-curve $-1 -46.779683167121036 -12.444545492009514 8.8999702315345104 -0.79863551827123203 0 0.60181501223851219 0.3009075061192561 0 0.39931775913561601 1 I I #
coedge $-1 $367 $367 $-1 $503 reversed $246 $-1 #
edge $-1 $504 0 $504 6.2831853071796004 $247 $505 forward 7 unknown #
vertex $-1 $250 $506 #
ellipse-curve $-1 -46.779683167121036 -9.8064503447142073 8.8999702315345104 -0.79863551827123203 0 0.60181501223851219 0.3009075061192561 0 0.39931775913561601 1 I I #
face $-1 $-1 $507 $52 $-1 $508 reversed single #
loop $-1 $-1 $257 $251 #
plane-surface $-1 0 0 14.985014683868792 0 0 1 1 0 0 forward_v I I I I #
coedge $-1 $509 $510 $511 $512 reversed $252 $-1 #
coedge $-1 $513 $254 $256 $381 forward $159 $-1 #
coedge $-1 $254 $513 $509 $514 forward $159 $-1 #
coedge $-1 $511 $257 $254 $378 forward $372 $-1 #
edge $-1 $384 1.555992782793699 $515 10.349643273778053 $377 $516 forward 7 unknown #
coedge $-1 $517 $518 $255 $380 forward $507 $-1 #
edge $-1 $519 -29.504821140014887 $383 -17.33473223534633 $379 $520 forward 7 unknown #
edge $-1 $384 -15.238602123547643 $519 -1.1724126593787106e-014 $256 $521 forward 7 unknown #
coedge $-1 $257 $511 $517 $522 forward $372 $-1 #
vertex $-1 $258 $523 #
vertex $-1 $258 $524 #
straight-curve $-1 -66.704534076721856 7.5088108110795746 14.985014683868791 1 0 0 I I #
coedge $-1 $386 $386 $-1 $525 reversed $261 $-1 #
edge $-1 $526 0 $526 6.2831853071796004 $262 $527 forward 7 unknown #
vertex $-1 $265 $528 #
ellipse-curve $-1 -46.779683167121036 9.2675409092764411 8.8999702315345104 -0.79863551827123203 0 0.60181501223851219 0.3009075061192561 0 0.39931775913561601 1 I I #
coedge $-1 $390 $390 $-1 $529 reversed $268 $-1 #
edge $-1 $530 0 $530 6.2831853071796004 $269 $531 forward 7 unknown #
vertex $-1 $272 $532 #
ellipse-curve $-1 -46.779683167121036 11.905636056571751 8.8999702315345104 -0.79863551827123203 0 0.60181501223851219 0.3009075061192561 0 0.39931775913561601 1 I I #
coedge $-1 $394 $394 $-1 $533 reversed $275 $-1 #
edge $-1 $534 0 $534 6.2831853071796004 $276 $535 forward 7 unknown #
vertex $-1 $279 $536 #
ellipse-curve $-1 -46.779683167121036 14.543731203867054 8.8999702315345104 -0.79863551827123203 0 0.60181501223851219 0.3009075061192561 0 0.39931775913561601 1 I I #
face $-1 $-1 $295 $42 $-1 $537 reversed single #
loop $-1 $-1 $414 $280 #
plane-surface $-1 0 31.858992359660832 0 0 -1 0 0 0 -1 forward_v I I I I #
coedge $-1 $538 $412 $415 $539 forward $281 $-1 #
coedge $-1 $418 $283 $284 $406 reversed $178 $-1 #
coedge $-1 $412 $538 $283 $404 reversed $281 $-1 #
edge $-1 $419 -14.985014683868792 $540 14.985014683868792 $403 $541 forward 7 unknown #
coedge $-1 $285 $284 $538 $542 forward $113 $-1 #
edge $-1 $410 -51.365092928861351 $540 51.365092928861351 $402 $543 forward 7 unknown #
coedge $-1 $415 $414 $285 $408 reversed $399 $-1 #
edge $-1 $544 -51.365092928861351 $409 51.365092928861351 $407 $545 forward 7 unknown #
vertex $-1 $287 $546 #
vertex $-1 $421 $547 #
straight-curve $-1 51.365092928861351 0 -14.985014683868792 0 -1 0 I I #
coedge $-1 $401 $403 $288 $413 reversed $281 $-1 #
edge $-1 $416 -31.858992359660832 $419 31.858992359660832 $412 $548 forward 7 unknown #
coedge $-1 $407 $289 $294 $422 forward $399 $-1 #
coedge $-1 $289 $407 $401 $539 reversed $399 $-1 #
vertex $-1 $290 $549 #
straight-curve $-1 0 31.858992359660832 14.985014683868792 -1 0 0 I I #
coedge $-1 $291 $402 $293 $421 reversed $178 $-1 #
vertex $-1 $413 $550 #
straight-curve $-1 0 -31.858992359660832 14.985014683868792 1 0 0 I I #
edge $-1 $296 -14.985014683868792 $410 14.985014683868792 $293 $551 forward 7 unknown #
edge $-1 $297 -14.985014683868792 $409 14.985014683868792 $294 $552 forward 7 unknown #
point $-1 51.365092928861351 -31.858992359660832 14.985014683868792 #
point $-1 51.365092928861351 31.858992359660832 14.985014683868792 #
face $-1 $-1 $312 $43 $-1 $553 reversed single #
loop $-1 $-1 $432 $299 #
plane-surface $-1 0 0 14.985014683868792 0 0 1 1 0 0 forward_v I I I I #
coedge $-1 $554 $302 $307 $437 forward $186 $-1 #
coedge $-1 $302 $554 $555 $556 reversed $186 $-1 #
coedge $-1 $304 $303 $302 $431 reversed $117 $-1 #
edge $-1 $557 -8.9325404083518372 $442 -3.1724081426820776 $302 $558 forward 7 unknown #
coedge $-1 $555 $559 $304 $433 forward $426 $-1 #
edge $-1 $435 -51.365092928861351 $557 51.365092928861351 $432 $560 forward 7 unknown #
coedge $-1 $311 $305 $559 $561 reversed $312 $-1 #
vertex $-1 $306 $562 #
straight-curve $-1 51.365092928861351 -16.841370737501691 6.0524742755169578 0 0 1 I I #
edge $-1 $442 4.6662799632110605 $440 19.683901585370201 $428 $563 forward 7 unknown #
coedge $-1 $564 $308 $311 $444 reversed $300 $-1 #
coedge $-1 $308 $564 $554 $565 forward $300 $-1 #
vertex $-1 $309 $566 #
straight-curve $-1 0 -31.858992359660832 9.2248824181990354 1 0 0 I I #
vertex $-1 $437 $567 #
straight-curve $-1 0 -16.841370737501691 9.2248824181990354 1 0 0 I I #
edge $-1 $568 -14.985014683868792 $313 -9.2248824181990354 $311 $569 forward 7 unknown #
point $-1 51.365092928861351 -31.858992359660832 9.2248824181990354 #
point $-1 51.365092928861351 -16.841370737501691 9.2248824181990354 #
plane-surface $-1 0 0 14.985014683868792 0 0 1 1 0 0 forward_v I I I I #
coedge $-1 $458 $457 $450 $570 forward $317 $-1 #
coedge $-1 $450 $319 $321 $454 reversed $194 $-1 #
coedge $-1 $319 $449 $448 $570 reversed $194 $-1 #
coedge $-1 $327 $322 $319 $452 forward $328 $-1 #
edge $-1 $455 5.5988459160580177 $571 14.318956474614289 $451 $572 forward 7 unknown #
coedge $-1 $321 $320 $458 $573 reversed $121 $-1 #
edge $-1 $574 -102.73018585772269 $455 -87.894647382312485 $449 $575 forward 7 unknown #
vertex $-1 $323 $576 #
straight-curve $-1 42.644982370305087 7.1628813946727519 14.985014683868798 0 -1 0 I I #
coedge $-1 $448 $324 $327 $462 reversed $317 $-1 #
coedge $-1 $324 $448 $453 $573 forward $317 $-1 #
vertex $-1 $325 $577 #
straight-curve $-1 51.365092928861351 20.710604800235416 73.23828295267235 0 0 1 I I #
straight-curve $-1 -9.0181941264206671 20.710604800235416 86.093278850062688 0.5877852410284794 0 -0.80901700255871778 I I #
edge $-1 $571 7.9409207784555917 $329 20.710604800235416 $457 $578 forward 7 unknown #
point $-1 51.365092928861351 20.710604800235416 14.985014683868792 #
point $-1 42.64498237030508 20.710604800235416 14.985014683868798 #
edge $-1 $579 1 $579 0 $332 $-1 forward 7 unknown #
vertex $-1 $333 $580 #
ellipse-curve $-1 43.856964774610006 10.494857582811555 6.696704491547723 0.80901700255871778 0 0.5877852410284794 0.5877852410284794 0 -0.80901700255871778 1 I I #
point $-1 47.592822890611679 10.494857582811555 8.1748962469496114 #
edge $-1 $581 1 $581 0 $336 $-1 forward 7 unknown #
vertex $-1 $337 $582 #
ellipse-curve $-1 43.856964774610006 14.325762789345504 6.696704491547723 0.80901700255871778 0 0.5877852410284794 0.5877852410284794 0 -0.80901700255871778 1 I I #
point $-1 47.592822890611679 14.325762789345504 8.1748962469496114 #
edge $-1 $583 1 $583 0 $340 $-1 forward 7 unknown #
vertex $-1 $341 $584 #
ellipse-curve $-1 43.856964774610006 18.156667995879452 6.696704491547723 0.80901700255871778 0 0.5877852410284794 0.5877852410284794 0 -0.80901700255871778 1 I I #
point $-1 47.592822890611679 18.156667995879452 8.1748962469496114 #
loop $-1 $-1 $352 $344 #
plane-surface $-1 0 -16.841370737501691 12.104948551033916 0 -1 0 0 0 -1 forward_v I I I I #
coedge $-1 $484 $585 $348 $480 forward $345 $-1 #
edge $-1 $482 17.33473223534633 $490 29.504821140014887 $479 $586 forward 7 unknown #
coedge $-1 $355 $349 $585 $587 forward $223 $-1 #
vertex $-1 $587 $588 #
straight-curve $-1 -66.704534076721856 -8.0477202465173363 14.985014683868791 -1 0 0 I I #
coedge $-1 $589 $479 $351 $485 forward $345 $-1 #
edge $-1 $490 1.8254475005125794 $488 10.619097991496934 $484 $590 forward 7 unknown #
coedge $-1 $487 $352 $355 $492 reversed $477 $-1 #
coedge $-1 $352 $486 $589 $591 reversed $477 $-1 #
vertex $-1 $591 $592 #
straight-curve $-1 -39.830818889316305 -16.841370737501691 18.121424849721411 0.60181501223851219 0 0.79863551827123203 I I #
vertex $-1 $485 $593 #
straight-curve $-1 -51.365092928861358 -8.0477202465173363 2.8149257792002231 0.60181501223851219 0 0.79863551827123203 I I #
edge $-1 $594 -51.365092928861351 $356 -42.194273405380713 $355 $595 forward 7 unknown #
point $-1 -42.194273405380713 -16.841370737501691 14.985014683868792 #
point $-1 -42.194273405380713 -8.0477202465173363 14.985014683868792 #
edge $-1 $596 1 $596 0 $359 $-1 forward 7 unknown #
vertex $-1 $360 $597 #
ellipse-curve $-1 -45.981047648849803 -15.08264063930482 8.2981552192959995 -0.79863551827123203 0 0.60181501223851219 0.3009075061192561 0 0.39931775913561601 1 I I #
point $-1 -46.478775661001777 -15.08264063930482 9.2992879906701287 #
edge $-1 $598 1 $598 0 $363 $-1 forward 7 unknown #
vertex $-1 $364 $599 #
ellipse-curve $-1 -45.981047648849803 -12.444545492009514 8.2981552192959995 -0.79863551827123203 0 0.60181501223851219 0.3009075061192561 0 0.39931775913561601 1 I I #
point $-1 -46.478775661001777 -12.444545492009514 9.2992879906701287 #
edge $-1 $600 1 $600 0 $367 $-1 forward 7 unknown #
vertex $-1 $368 $601 #
ellipse-curve $-1 -45.981047648849803 -9.8064503447142073 8.2981552192959995 -0.79863551827123203 0 0.60181501223851219 0.3009075061192561 0 0.39931775913561601 1 I I #
point $-1 -46.478775661001777 -9.8064503447142073 9.2992879906701287 #
loop $-1 $-1 $379 $371 #
plane-surface $-1 -51.365092928861351 0 0 1 0 0 0 0 -1 forward_v I I I I #
coedge $-1 $510 $374 $376 $514 reversed $252 $-1 #
coedge $-1 $374 $509 $602 $603 reversed $252 $-1 #
coedge $-1 $382 $377 $374 $512 forward $372 $-1 #
edge $-1 $515 -24.510260671341143 $604 -15.339441147860505 $511 $605 forward 7 unknown #
coedge $-1 $376 $375 $518 $606 reversed $159 $-1 #
edge $-1 $607 1.1724126593787106e-014 $515 15.238602123547643 $509 $608 forward 7 unknown #
vertex $-1 $378 $609 #
straight-curve $-1 -42.19427340538072 5.9528180282858756 14.985014683868792 0 1 0 I I #
coedge $-1 $602 $379 $382 $522 reversed $507 $-1 #
coedge $-1 $379 $602 $513 $606 forward $507 $-1 #
vertex $-1 $380 $610 #
straight-curve $-1 -51.365092928861351 7.5088108110795746 32.31974691921512 0 0 1 I I #
straight-curve $-1 -51.365092928861358 7.5088108110795746 2.8149257792002231 -0.60181501223851219 0 -0.79863551827123203 I I #
edge $-1 $604 -16.302461302063929 $383 -7.5088108110795746 $517 $611 forward 7 unknown #
point $-1 -51.365092928861351 7.5088108110795746 14.985014683868792 #
point $-1 -42.194273405380713 7.5088108110795746 14.985014683868792 #
edge $-1 $612 1 $612 0 $386 $-1 forward 7 unknown #
vertex $-1 $387 $613 #
ellipse-curve $-1 -45.981047648849803 9.2675409092764411 8.2981552192959995 -0.79863551827123203 0 0.60181501223851219 0.3009075061192561 0 0.39931775913561601 1 I I #
point $-1 -46.478775661001777 9.2675409092764411 9.2992879906701287 #
edge $-1 $614 1 $614 0 $390 $-1 forward 7 unknown #
vertex $-1 $391 $615 #
ellipse-curve $-1 -45.981047648849803 11.905636056571751 8.2981552192959995 -0.79863551827123203 0 0.60181501223851219 0.3009075061192561 0 0.39931775913561601 1 I I #
point $-1 -46.478775661001777 11.905636056571751 9.2992879906701287 #
edge $-1 $616 1 $616 0 $394 $-1 forward 7 unknown #
vertex $-1 $395 $617 #
ellipse-curve $-1 -45.981047648849803 14.543731203867054 8.2981552192959995 -0.79863551827123203 0 0.60181501223851219 0.3009075061192561 0 0.39931775913561601 1 I I #
point $-1 -46.478775661001777 14.543731203867054 9.2992879906701287 #
plane-surface $-1 51.365092928861351 0 0 -1 0 0 0 0 1 forward_v I I I I #
coedge $-1 $403 $401 $405 $542 reversed $281 $-1 #
edge $-1 $416 -14.985014683868792 $544 14.985014683868792 $415 $618 forward 7 unknown #
vertex $-1 $542 $619 #
straight-curve $-1 -51.365092928861351 -31.858992359660832 0 0 0 -1 I I #
edge $-1 $540 -31.858992359660832 $544 31.858992359660832 $538 $620 forward 7 unknown #
straight-curve $-1 0 -31.858992359660832 -14.985014683868792 -1 0 0 I I #
vertex $-1 $408 $621 #
straight-curve $-1 0 31.858992359660832 -14.985014683868792 1 0 0 I I #
point $-1 51.365092928861351 31.858992359660832 -14.985014683868792 #
point $-1 51.365092928861351 -31.858992359660832 -14.985014683868792 #
straight-curve $-1 -51.365092928861351 0 14.985014683868792 0 -1 0 I I #
point $-1 -51.365092928861351 31.858992359660832 14.985014683868792 #
point $-1 -51.365092928861351 -31.858992359660832 14.985014683868792 #
straight-curve $-1 51.365092928861351 -31.858992359660832 0 0 0 -1 I I #
straight-curve $-1 51.365092928861351 31.858992359660832 0 0 0 -1 I I #
plane-surface $-1 51.365092928861351 0 0 -1 0 0 0 0 1 forward_v I I I I #
coedge $-1 $429 $428 $439 $565 reversed $186 $-1 #
coedge $-1 $622 $432 $429 $556 forward $426 $-1 #
edge $-1 $557 16.841370737501691 $623 31.858992359660832 $429 $624 forward 7 unknown #
vertex $-1 $556 $625 #
straight-curve $-1 -51.365092928861351 -16.841370737501691 6.0524742755169578 0 0 -1 I I #
coedge $-1 $432 $622 $434 $561 forward $426 $-1 #
straight-curve $-1 0 -16.841370737501691 14.985014683868792 -1 0 0 I I #
edge $-1 $568 -31.858992359660832 $435 -16.841370737501691 $434 $626 forward 7 unknown #
point $-1 51.365092928861351 -16.841370737501691 14.985014683868796 #
straight-curve $-1 -51.365092928861351 -12.175090774290631 9.2248824181990354 0 -1 0 I I #
coedge $-1 $439 $438 $622 $627 reversed $300 $-1 #
edge $-1 $623 -14.985014683868792 $440 -9.2248824181990354 $554 $628 forward 7 unknown #
point $-1 -51.365092928861351 -31.858992359660832 9.2248824181990354 #
point $-1 -51.365092928861351 -16.841370737501691 9.2248824181990354 #
vertex $-1 $561 $629 #
straight-curve $-1 51.365092928861351 -31.858992359660832 0 0 0 -1 I I #
edge $-1 $571 58.253268268803559 $574 70.255471137524452 $448 $630 forward 7 unknown #
vertex $-1 $462 $631 #
straight-curve $-1 37.046136454247062 7.9409207784555917 14.985014683868798 1 0 0 I I #
edge $-1 $574 0.77803938378283988 $459 13.547723405562664 $458 $632 forward 7 unknown #
vertex $-1 $573 $633 #
straight-curve $-1 -9.0181941264206671 7.9409207784555917 86.093278850062688 -0.5877852410284794 0 0.80901700255871778 I I #
point $-1 42.64498237030508 7.9409207784555917 14.985014683868798 #
point $-1 51.365092928861351 20.710604800235416 2.9828118151478975 #
straight-curve $-1 51.365092928861351 0 14.985014683868792 0 1 0 I I #
vertex $-1 $465 $634 #
point $-1 44.444750015638483 10.494857582811555 5.8876874889890054 #
vertex $-1 $469 $635 #
point $-1 44.444750015638483 14.325762789345504 5.8876874889890054 #
vertex $-1 $473 $636 #
point $-1 44.444750015638483 18.156667995879452 5.8876874889890054 #
coedge $-1 $479 $589 $481 $587 reversed $345 $-1 #
straight-curve $-1 -51.365092928861351 -8.0477202465173363 32.31974691921512 0 0 -1 I I #
edge $-1 $482 8.0477202465173363 $594 16.841370737501691 $585 $637 forward 7 unknown #
point $-1 -51.365092928861351 -8.0477202465173363 14.985014683868792 #
coedge $-1 $585 $484 $487 $591 forward $345 $-1 #
straight-curve $-1 -51.365092928861351 -6.2222727460047569 2.8149257792002338 0 -1 0 I I #
edge $-1 $488 -29.504821140014887 $594 -17.334732235346323 $589 $638 forward 7 unknown #
point $-1 -51.365092928861351 -16.841370737501691 2.8149257792002325 #
point $-1 -51.365092928861351 -8.0477202465173363 2.8149257792002325 #
vertex $-1 $591 $639 #
straight-curve $-1 0 -16.841370737501691 14.985014683868792 1 0 0 I I #
vertex $-1 $495 $640 #
point $-1 -45.680140142730551 -15.08264063930482 8.697472978431616 #
vertex $-1 $499 $641 #
point $-1 -45.680140142730551 -12.444545492009514 8.697472978431616 #
vertex $-1 $503 $642 #
point $-1 -45.680140142730551 -9.8064503447142073 8.697472978431616 #
coedge $-1 $518 $517 $510 $603 forward $507 $-1 #
edge $-1 $604 17.33473223534633 $607 29.504821140014887 $602 $643 forward 7 unknown #
vertex $-1 $522 $644 #
straight-curve $-1 -66.704534076721856 16.302461302063929 14.985014683868791 -1 0 0 I I #
edge $-1 $607 -10.349643273778053 $519 -1.555992782793699 $518 $645 forward 7 unknown #
vertex $-1 $606 $646 #
straight-curve $-1 -51.365092928861358 16.302461302063929 2.8149257792002231 0.60181501223851219 0 0.79863551827123203 I I #
point $-1 -42.194273405380713 16.302461302063929 14.985014683868792 #
point $-1 -51.365092928861351 7.5088108110795746 2.8149257792002325 #
straight-curve $-1 -51.365092928861351 0 14.985014683868792 0 -1 0 I I #
vertex $-1 $525 $647 #
point $-1 -45.680140142730551 9.2675409092764411 8.697472978431616 #
vertex $-1 $529 $648 #
point $-1 -45.680140142730551 11.905636056571751 8.697472978431616 #
vertex $-1 $533 $649 #
point $-1 -45.680140142730551 14.543731203867054 8.697472978431616 #
straight-curve $-1 -51.365092928861351 31.858992359660832 0 0 0 -1 I I #
point $-1 -51.365092928861351 -31.858992359660832 -14.985014683868792 #
straight-curve $-1 -51.365092928861351 0 -14.985014683868792 0 1 0 I I #
point $-1 -51.365092928861351 31.858992359660832 -14.985014683868792 #
coedge $-1 $559 $555 $564 $627 forward $426 $-1 #
vertex $-1 $556 $650 #
straight-curve $-1 -51.365092928861351 0 14.985014683868792 0 -1 0 I I #
point $-1 -51.365092928861351 -16.841370737501691 14.985014683868796 #
straight-curve $-1 51.365092928861351 0 14.985014683868792 0 1 0 I I #
edge $-1 $623 -51.365092928861351 $568 51.365092928861351 $564 $651 forward 7 unknown #
straight-curve $-1 -51.365092928861351 -31.858992359660832 0 0 0 -1 I I #
point $-1 51.365092928861351 -31.858992359660832 14.985014683868792 #
straight-curve $-1 51.365092928861351 7.9409207784555917 73.23828295267235 0 0 -1 I I #
point $-1 51.365092928861351 7.9409207784555917 14.985014683868792 #
straight-curve $-1 51.365092928861351 7.1628813946727519 2.9828118151478975 0 1 0 I I #
point $-1 51.365092928861351 7.9409207784555917 2.9828118151478975 #
point $-1 43.047947772051288 10.494857582811555 6.1089192505192438 #
point $-1 43.047947772051288 14.325762789345504 6.1089192505192438 #
point $-1 43.047947772051288 18.156667995879452 6.1089192505192438 #
straight-curve $-1 -51.365092928861351 0 14.985014683868792 0 -1 0 I I #
straight-curve $-1 -51.365092928861351 -16.841370737501691 32.31974691921512 0 0 1 I I #
point $-1 -51.365092928861351 -16.841370737501691 14.985014683868796 #
point $-1 -45.58172988971419 -15.08264063930482 7.9972477131767441 #
point $-1 -45.58172988971419 -12.444545492009514 7.9972477131767441 #
point $-1 -45.58172988971419 -9.8064503447142073 7.9972477131767441 #
straight-curve $-1 -51.365092928861351 16.302461302063929 32.31974691921512 0 0 -1 I I #
point $-1 -51.365092928861351 16.302461302063929 14.985014683868792 #
straight-curve $-1 -51.365092928861351 5.9528180282858756 2.8149257792002338 0 -1 0 I I #
point $-1 -51.365092928861351 16.302461302063929 2.8149257792002325 #
point $-1 -45.58172988971419 9.2675409092764411 7.9972477131767441 #
point $-1 -45.58172988971419 11.905636056571751 7.9972477131767441 #
point $-1 -45.58172988971419 14.543731203867054 7.9972477131767441 #
point $-1 -51.365092928861351 -31.858992359660832 14.985014683868792 #
straight-curve $-1 0 -31.858992359660832 14.985014683868792 1 0 0 I I #
End-of-ACIS-data 