500 0 6 0           
7 Unknown 11 ACIS 5.0 NT 24 Fri Mar 26 00:52:39 1999 
-1 9.9999999999999995e-007 1e-010 
body $-1 $6 $-1 $7 #
body $-1 $8 $-1 $9 #
body $-1 $10 $-1 $11 #
body $-1 $12 $-1 $13 #
body $-1 $14 $-1 $15 #
body $-1 $16 $-1 $17 #
lump $-1 $-1 $18 $0 #
transform $-1 1 0 0 0 1 0 0 0 1 48.943144016846219 31.191601456703122 8.4129842376231139 1 rotate no_reflect no_shear #
lump $-1 $-1 $19 $1 #
transform $-1 1 0 0 0 1 0 0 0 1 48.943144016846219 31.191601456703122 8.4129842376231139 1 rotate no_reflect no_shear #
lump $-1 $-1 $20 $2 #
transform $-1 1 0 0 0 1 0 0 0 1 48.943144016846219 31.191601456703122 8.4129842376231139 1 rotate no_reflect no_shear #
lump $-1 $-1 $21 $3 #
transform $-1 1 0 0 0 1 0 0 0 1 48.943144016846219 31.191601456703122 8.4129842376231139 1 rotate no_reflect no_shear #
lump $-1 $-1 $22 $4 #
transform $-1 1 0 0 0 1 0 0 0 1 48.943144016846219 31.191601456703122 8.4129842376231139 1 rotate no_reflect no_shear #
lump $-1 $-1 $23 $5 #
transform $-1 1 0 0 0 1 0 0 0 1 48.943144016846219 31.191601456703122 8.4129842376231139 1 rotate no_reflect no_shear #
shell $-1 $-1 $-1 $24 $-1 $6 #
shell $-1 $-1 $-1 $25 $-1 $8 #
shell $-1 $-1 $-1 $26 $-1 $10 #
shell $-1 $-1 $-1 $27 $-1 $12 #
shell $-1 $-1 $-1 $28 $-1 $14 #
shell $-1 $-1 $-1 $29 $-1 $16 #
face $-1 $30 $31 $18 $-1 $32 forward single #
face $-1 $33 $34 $19 $-1 $35 forward single #
face $-1 $36 $37 $20 $-1 $38 reversed single #
face $-1 $39 $40 $21 $-1 $41 forward single #
face $-1 $42 $43 $22 $-1 $44 forward single #
face $-1 $45 $46 $23 $-1 $47 forward single #
face $-1 $48 $49 $18 $-1 $50 reversed single #
loop $-1 $-1 $51 $24 #
plane-surface $-1 0 0 8.4129842376231139 0 0 1 1 0 0 forward_v I I I I #
face $-1 $52 $53 $19 $-1 $54 reversed single #
loop $-1 $-1 $55 $25 #
plane-surface $-1 -45.041162028216348 0 -0.10512770991057963 0 0 1 1 0 0 forward_v I I I I #
face $-1 $56 $57 $20 $-1 $58 reversed single #
loop $-1 $-1 $59 $26 #
plane-surface $-1 72.98163064277685 -15.324407998614138 141.48545539009973 0 -1 0 -0.81915205242281985 0 -0.57357642473473569 forward_v I I I I #
face $-1 $60 $61 $21 $-1 $62 forward single #
loop $-1 $63 $64 $27 #
cone-surface $-1 47.012923355104327 -28.018162765085325 6.2314821661474582 -0.81915205242281985 0 -0.57357642473473569 0.28678821236736785 0 -0.40957602621140993 1 I I 0 1 0.5 forward I I I I #
face $-1 $65 $66 $22 $-1 $67 forward single #
loop $-1 $68 $69 $28 #
cone-surface $-1 47.012923355104327 -23.25800472765863 6.2314821661474582 -0.81915205242281985 0 -0.57357642473473569 0.28678821236736785 0 -0.40957602621140993 1 I I 0 1 0.5 forward I I I I #
face $-1 $70 $71 $23 $-1 $72 forward single #
loop $-1 $73 $74 $29 #
cone-surface $-1 47.012923355104327 -18.497846690231938 6.2314821661474582 -0.81915205242281985 0 -0.57357642473473569 0.28678821236736785 0 -0.40957602621140993 1 I I 0 1 0.5 forward I I I I #
face $-1 $75 $76 $18 $-1 $77 reversed single #
loop $-1 $-1 $78 $30 #
plane-surface $-1 0 0 -8.4129842376231139 0 0 1 1 0 0 forward_v I I I I #
coedge $-1 $79 $80 $81 $82 forward $31 $-1 #
face $-1 $83 $84 $19 $-1 $85 reversed single #
loop $-1 $-1 $86 $33 #
plane-surface $-1 -45.041162028216348 0 -3.423233135994705 0 0 1 1 0 0 forward_v I I I I #
coedge $-1 $87 $88 $89 $90 forward $34 $-1 #
face $-1 $91 $92 $20 $-1 $93 reversed single #
loop $-1 $-1 $94 $36 #
plane-surface $-1 -7.2021231040736211 -23.25800472765863 85.34018826917989 0.81915205242281985 0 0.57357642473473569 0.57357642473473569 0 -0.81915205242281985 forward_v I I I I #
coedge $-1 $95 $96 $97 $98 reversed $37 $-1 #
face $-1 $-1 $99 $21 $-1 $100 forward single #
loop $-1 $101 $102 $39 #
cone-surface $-1 46.018044975446998 -28.018162765085325 5.5348608461349542 -0.81915205242281985 0 -0.57357642473473569 0.14339410618368392 0 -0.20478801310570496 1 I I -0.70710678118654746 0.70710678118654746 0.25 forward I I I I #
loop $-1 $-1 $103 $27 #
coedge $-1 $64 $64 $104 $105 reversed $40 $-1 #
face $-1 $-1 $106 $22 $-1 $107 forward single #
loop $-1 $108 $109 $42 #
cone-surface $-1 46.018044975446998 -23.25800472765863 5.5348608461349542 -0.81915205242281985 0 -0.57357642473473569 0.14339410618368392 0 -0.20478801310570496 1 I I -0.70710678118654746 0.70710678118654746 0.25 forward I I I I #
loop $-1 $-1 $110 $28 #
coedge $-1 $69 $69 $111 $112 reversed $43 $-1 #
face $-1 $-1 $113 $23 $-1 $114 forward single #
loop $-1 $115 $116 $45 #
cone-surface $-1 46.018044975446998 -18.497846690231938 5.5348608461349542 -0.81915205242281985 0 -0.57357642473473569 0.14339410618368392 0 -0.20478801310570496 1 I I -0.70710678118654746 0.70710678118654746 0.25 forward I I I I #
loop $-1 $-1 $117 $29 #
coedge $-1 $74 $74 $118 $119 reversed $46 $-1 #
face $-1 $120 $121 $18 $-1 $122 reversed single #
loop $-1 $-1 $123 $48 #
plane-surface $-1 0 -31.191601456703122 0 0 1 0 0 0 1 forward_v I I I I #
coedge $-1 $124 $125 $126 $127 forward $49 $-1 #
coedge $-1 $128 $51 $129 $130 forward $31 $-1 #
coedge $-1 $51 $128 $131 $132 forward $31 $-1 #
coedge $-1 $133 $134 $51 $82 reversed $135 $-1 #
edge $-1 $136 -31.191601456703122 $137 31.191601456703122 $81 $138 forward 7 unknown #
face $-1 $139 $140 $19 $-1 $141 reversed single #
loop $-1 $-1 $142 $52 #
plane-surface $-1 -41.139180039586478 0 -1.7641804229526423 -1 0 0 0 0 1 forward_v I I I I #
coedge $-1 $143 $144 $145 $146 forward $53 $-1 #
coedge $-1 $147 $55 $148 $149 reversed $34 $-1 #
coedge $-1 $55 $147 $150 $151 reversed $34 $-1 #
coedge $-1 $142 $152 $55 $90 reversed $84 $-1 #
edge $-1 $153 -31.191601456703122 $154 31.191601456703122 $89 $155 forward 7 unknown #
face $-1 $156 $157 $20 $-1 $158 forward single #
loop $-1 $-1 $159 $56 #
plane-surface $-1 0 -31.191601456703122 0 0 1 0 0 0 1 forward_v I I I I #
coedge $-1 $160 $161 $162 $163 reversed $57 $-1 #
coedge $-1 $96 $59 $164 $165 reversed $37 $-1 #
coedge $-1 $59 $95 $160 $166 reversed $37 $-1 #
coedge $-1 $162 $167 $59 $98 forward $157 $-1 #
edge $-1 $168 -12.452328695457794 $169 -10.172068105077287 $97 $170 forward 7 unknown #
loop $-1 $-1 $104 $60 #
plane-surface $-1 -7.2021231040736211 -23.25800472765863 85.34018826917989 0.81915205242281985 0 0.57357642473473569 0.57357642473473569 0 -0.81915205242281985 forward_v I I I I #
loop $-1 $-1 $171 $39 #
coedge $-1 $102 $102 $103 $172 reversed $61 $-1 #
coedge $-1 $103 $103 $102 $172 forward $63 $-1 #
coedge $-1 $104 $104 $64 $105 forward $99 $-1 #
edge $-1 $173 0 $173 6.2831853071796004 $104 $174 forward 7 unknown #
loop $-1 $-1 $111 $65 #
plane-surface $-1 -7.2021231040736211 -23.25800472765863 85.34018826917989 0.81915205242281985 0 0.57357642473473569 0.57357642473473569 0 -0.81915205242281985 forward_v I I I I #
loop $-1 $-1 $175 $42 #
coedge $-1 $109 $109 $110 $176 reversed $66 $-1 #
coedge $-1 $110 $110 $109 $176 forward $68 $-1 #
coedge $-1 $111 $111 $69 $112 forward $106 $-1 #
edge $-1 $177 0 $177 6.2831853071796004 $111 $178 forward 7 unknown #
loop $-1 $-1 $118 $70 #
plane-surface $-1 -7.2021231040736211 -23.25800472765863 85.34018826917989 0.81915205242281985 0 0.57357642473473569 0.57357642473473569 0 -0.81915205242281985 forward_v I I I I #
loop $-1 $-1 $179 $45 #
coedge $-1 $116 $116 $117 $180 reversed $71 $-1 #
coedge $-1 $117 $117 $116 $180 forward $73 $-1 #
coedge $-1 $118 $118 $74 $119 forward $113 $-1 #
edge $-1 $181 0 $181 6.2831853071796004 $118 $182 forward 7 unknown #
face $-1 $183 $184 $18 $-1 $185 reversed single #
loop $-1 $-1 $186 $75 #
plane-surface $-1 -48.943144016846219 0 0 1 0 0 0 0 -1 forward_v I I I I #
coedge $-1 $187 $131 $188 $189 forward $76 $-1 #
coedge $-1 $190 $78 $187 $191 forward $49 $-1 #
coedge $-1 $78 $190 $192 $193 forward $49 $-1 #
coedge $-1 $134 $133 $78 $127 reversed $135 $-1 #
edge $-1 $194 -31.191601456703122 $195 31.191601456703122 $126 $196 forward 7 unknown #
coedge $-1 $80 $79 $197 $198 forward $31 $-1 #
coedge $-1 $199 $200 $79 $130 reversed $184 $-1 #
edge $-1 $137 -48.943144016846219 $201 48.943144016846219 $129 $202 forward 7 unknown #
coedge $-1 $123 $203 $80 $132 reversed $76 $-1 #
edge $-1 $204 -48.943144016846219 $136 48.943144016846219 $131 $205 forward 7 unknown #
coedge $-1 $126 $81 $203 $206 forward $135 $-1 #
coedge $-1 $81 $126 $199 $207 reversed $135 $-1 #
loop $-1 $-1 $133 $183 #
vertex $-1 $82 $208 #
vertex $-1 $82 $209 #
straight-curve $-1 48.943144016846219 0 8.4129842376231139 0 1 0 I I #
face $-1 $210 $211 $19 $-1 $212 reversed single #
loop $-1 $-1 $213 $83 #
plane-surface $-1 0 -31.191601456703122 0 0 1 0 0 0 1 forward_v I I I I #
coedge $-1 $145 $89 $214 $215 reversed $84 $-1 #
coedge $-1 $216 $86 $213 $217 reversed $53 $-1 #
coedge $-1 $86 $216 $218 $219 reversed $53 $-1 #
coedge $-1 $152 $142 $86 $146 reversed $84 $-1 #
edge $-1 $220 -31.191601456703122 $221 31.191601456703122 $145 $222 forward 7 unknown #
coedge $-1 $88 $87 $223 $224 reversed $34 $-1 #
coedge $-1 $225 $226 $87 $149 forward $227 $-1 #
edge $-1 $228 -26.422563002738045 $154 -18.618599025478304 $148 $229 forward 7 unknown #
coedge $-1 $230 $214 $88 $151 forward $140 $-1 #
edge $-1 $153 18.618599025478304 $231 26.422563002738045 $150 $232 forward 7 unknown #
coedge $-1 $89 $145 $225 $233 reversed $84 $-1 #
vertex $-1 $151 $234 #
vertex $-1 $149 $235 #
straight-curve $-1 -41.139180039586478 0 -0.10512770991057963 0 1 0 I I #
face $-1 $-1 $236 $20 $-1 $237 reversed single #
loop $-1 $-1 $162 $91 #
plane-surface $-1 0 0 8.4129842376231139 0 0 1 1 0 0 forward_v I I I I #
coedge $-1 $238 $239 $161 $240 forward $92 $-1 #
coedge $-1 $241 $94 $96 $166 forward $57 $-1 #
coedge $-1 $94 $241 $159 $240 reversed $57 $-1 #
coedge $-1 $242 $97 $94 $163 forward $157 $-1 #
edge $-1 $169 3.695405634784823 $243 19.562599092873807 $162 $244 forward 7 unknown #
coedge $-1 $245 $246 $95 $165 forward $236 $-1 #
edge $-1 $247 -65.586293172720431 $168 -62.329743457426751 $164 $248 forward 7 unknown #
edge $-1 $169 93.910774933698704 $247 97.886288033692438 $96 $249 forward 7 unknown #
coedge $-1 $97 $242 $245 $250 forward $157 $-1 #
vertex $-1 $165 $251 #
vertex $-1 $98 $252 #
straight-curve $-1 36.490815321388425 -15.324407998614138 8.4129842376231068 -1 0 0 I I #
coedge $-1 $171 $171 $-1 $253 reversed $101 $-1 #
edge $-1 $254 0 $254 6.2831853071796004 $102 $255 forward 7 unknown #
vertex $-1 $105 $256 #
ellipse-curve $-1 47.803013721655951 -28.018162765085325 6.7847093799762792 0.81915205242281985 0 0.57357642473473569 0.28678821236736785 0 -0.40957602621140993 1 I I #
coedge $-1 $175 $175 $-1 $257 reversed $108 $-1 #
edge $-1 $258 0 $258 6.2831853071796004 $109 $259 forward 7 unknown #
vertex $-1 $112 $260 #
ellipse-curve $-1 47.803013721655951 -23.25800472765863 6.7847093799762792 0.81915205242281985 0 0.57357642473473569 0.28678821236736785 0 -0.40957602621140993 1 I I #
coedge $-1 $179 $179 $-1 $261 reversed $115 $-1 #
edge $-1 $262 0 $262 6.2831853071796004 $116 $263 forward 7 unknown #
vertex $-1 $119 $264 #
ellipse-curve $-1 47.803013721655951 -18.497846690231938 6.7847093799762792 0.81915205242281985 0 0.57357642473473569 0.28678821236736785 0 -0.40957602621140993 1 I I #
face $-1 $-1 $135 $18 $-1 $265 reversed single #
loop $-1 $-1 $199 $120 #
plane-surface $-1 0 31.191601456703122 0 0 -1 0 0 0 -1 forward_v I I I I #
coedge $-1 $266 $197 $200 $267 forward $121 $-1 #
coedge $-1 $203 $123 $124 $191 reversed $76 $-1 #
coedge $-1 $197 $266 $123 $189 reversed $121 $-1 #
edge $-1 $204 -8.4129842376231139 $268 8.4129842376231139 $188 $269 forward 7 unknown #
coedge $-1 $125 $124 $266 $270 forward $49 $-1 #
edge $-1 $195 -48.943144016846219 $268 48.943144016846219 $187 $271 forward 7 unknown #
coedge $-1 $200 $199 $125 $193 reversed $184 $-1 #
edge $-1 $272 -48.943144016846219 $194 48.943144016846219 $192 $273 forward 7 unknown #
vertex $-1 $127 $274 #
vertex $-1 $206 $275 #
straight-curve $-1 48.943144016846219 0 -8.4129842376231139 0 -1 0 I I #
coedge $-1 $186 $188 $128 $198 reversed $121 $-1 #
edge $-1 $201 -31.191601456703122 $204 31.191601456703122 $197 $276 forward 7 unknown #
coedge $-1 $192 $129 $134 $207 forward $184 $-1 #
coedge $-1 $129 $192 $186 $267 reversed $184 $-1 #
vertex $-1 $130 $277 #
straight-curve $-1 0 31.191601456703122 8.4129842376231139 -1 0 0 I I #
coedge $-1 $131 $187 $133 $206 reversed $76 $-1 #
vertex $-1 $198 $278 #
straight-curve $-1 0 -31.191601456703122 8.4129842376231139 1 0 0 I I #
edge $-1 $136 -8.4129842376231139 $195 8.4129842376231139 $133 $279 forward 7 unknown #
edge $-1 $137 -8.4129842376231139 $194 8.4129842376231139 $134 $280 forward 7 unknown #
point $-1 48.943144016846219 -31.191601456703122 8.4129842376231139 #
point $-1 48.943144016846219 31.191601456703122 8.4129842376231139 #
face $-1 $-1 $227 $19 $-1 $281 reversed single #
loop $-1 $-1 $282 $139 #
plane-surface $-1 -48.943144016846219 0 0 1 0 0 0 0 -1 forward_v I I I I #
coedge $-1 $214 $230 $143 $217 forward $140 $-1 #
coedge $-1 $150 $213 $142 $215 forward $140 $-1 #
edge $-1 $221 -2.5411429245183839 $153 0.77696250156574154 $214 $283 forward 7 unknown #
coedge $-1 $144 $143 $282 $284 reversed $53 $-1 #
edge $-1 $285 -26.422563002738045 $221 -18.618599025478304 $213 $286 forward 7 unknown #
coedge $-1 $226 $225 $144 $219 forward $227 $-1 #
edge $-1 $220 18.618599025478304 $287 26.422563002738045 $218 $288 forward 7 unknown #
vertex $-1 $219 $289 #
vertex $-1 $217 $290 #
straight-curve $-1 -41.139180039586478 0 -3.423233135994705 0 -1 0 I I #
coedge $-1 $291 $292 $147 $224 forward $211 $-1 #
edge $-1 $231 -31.191601456703122 $228 31.191601456703122 $223 $293 forward 7 unknown #
coedge $-1 $218 $148 $152 $233 forward $227 $-1 #
coedge $-1 $148 $218 $291 $294 reversed $227 $-1 #
loop $-1 $-1 $218 $210 #
vertex $-1 $294 $295 #
straight-curve $-1 -22.520581014108174 31.191601456703122 -0.10512770991057963 1 0 0 I I #
coedge $-1 $213 $150 $292 $296 forward $140 $-1 #
vertex $-1 $296 $297 #
straight-curve $-1 -22.520581014108174 -31.191601456703122 -0.10512770991057963 -1 0 0 I I #
edge $-1 $154 -0.77696250156574154 $220 2.5411429245183839 $225 $298 forward 7 unknown #
point $-1 -41.139180039586478 -31.191601456703122 -0.10512770991057963 #
point $-1 -41.139180039586478 31.191601456703122 -0.10512770991057963 #
loop $-1 $-1 $164 $156 #
plane-surface $-1 48.943144016846219 0 0 -1 0 0 0 0 1 forward_v I I I I #
coedge $-1 $239 $159 $299 $300 reversed $92 $-1 #
coedge $-1 $159 $238 $242 $301 reversed $92 $-1 #
edge $-1 $243 56.891995736007431 $302 60.867508836001164 $159 $303 forward 7 unknown #
coedge $-1 $161 $160 $246 $304 reversed $57 $-1 #
coedge $-1 $167 $162 $239 $301 forward $157 $-1 #
vertex $-1 $301 $305 #
straight-curve $-1 46.662883426465704 -11.629002363829315 8.412984237623121 0 -1 0 I I #
coedge $-1 $299 $164 $167 $250 reversed $236 $-1 #
coedge $-1 $164 $299 $241 $304 forward $236 $-1 #
vertex $-1 $165 $306 #
straight-curve $-1 48.943144016846219 -15.324407998614138 70.742727695049865 0 0 1 I I #
straight-curve $-1 -7.2021231040736211 -15.324407998614138 85.34018826917989 0.57357642473473569 0 -0.81915205242281985 I I #
edge $-1 $307 -31.191601456703122 $168 -15.324407998614138 $245 $308 forward 7 unknown #
point $-1 48.943144016846219 -15.324407998614138 8.4129842376231139 #
point $-1 46.662883426465712 -15.324407998614138 8.4129842376231068 #
edge $-1 $309 1 $309 0 $171 $-1 forward 7 unknown #
vertex $-1 $172 $310 #
ellipse-curve $-1 46.222832988552703 -28.018162765085325 5.6782549523186381 0.81915205242281985 0 0.57357642473473569 0.28678821236736785 0 -0.40957602621140993 1 I I #
point $-1 48.089801934023313 -28.018162765085325 6.375133353764868 #
edge $-1 $311 1 $311 0 $175 $-1 forward 7 unknown #
vertex $-1 $176 $312 #
ellipse-curve $-1 46.222832988552703 -23.25800472765863 5.6782549523186381 0.81915205242281985 0 0.57357642473473569 0.28678821236736785 0 -0.40957602621140993 1 I I #
point $-1 48.089801934023313 -23.25800472765863 6.375133353764868 #
edge $-1 $313 1 $313 0 $179 $-1 forward 7 unknown #
vertex $-1 $180 $314 #
ellipse-curve $-1 46.222832988552703 -18.497846690231938 5.6782549523186381 0.81915205242281985 0 0.57357642473473569 0.28678821236736785 0 -0.40957602621140993 1 I I #
point $-1 48.089801934023313 -18.497846690231938 6.375133353764868 #
plane-surface $-1 48.943144016846219 0 0 -1 0 0 0 0 1 forward_v I I I I #
coedge $-1 $188 $186 $190 $270 reversed $121 $-1 #
edge $-1 $201 -8.4129842376231139 $272 8.4129842376231139 $200 $315 forward 7 unknown #
vertex $-1 $270 $316 #
straight-curve $-1 -48.943144016846219 -31.191601456703122 0 0 0 -1 I I #
edge $-1 $268 -31.191601456703122 $272 31.191601456703122 $266 $317 forward 7 unknown #
straight-curve $-1 0 -31.191601456703122 -8.4129842376231139 -1 0 0 I I #
vertex $-1 $193 $318 #
straight-curve $-1 0 31.191601456703122 -8.4129842376231139 1 0 0 I I #
point $-1 48.943144016846219 31.191601456703122 -8.4129842376231139 #
point $-1 48.943144016846219 -31.191601456703122 -8.4129842376231139 #
straight-curve $-1 -48.943144016846219 0 8.4129842376231139 0 -1 0 I I #
point $-1 -48.943144016846219 31.191601456703122 8.4129842376231139 #
point $-1 -48.943144016846219 -31.191601456703122 8.4129842376231139 #
straight-curve $-1 48.943144016846219 -31.191601456703122 0 0 0 -1 I I #
straight-curve $-1 48.943144016846219 31.191601456703122 0 0 0 -1 I I #
plane-surface $-1 0 31.191601456703122 0 0 -1 0 0 0 -1 forward_v I I I I #
coedge $-1 $292 $291 $216 $284 forward $211 $-1 #
straight-curve $-1 -41.139180039586478 -31.191601456703122 -0.88209021147632116 0 0 1 I I #
edge $-1 $287 -31.191601456703122 $285 31.191601456703122 $282 $319 forward 7 unknown #
vertex $-1 $217 $320 #
straight-curve $-1 -22.520581014108174 -31.191601456703122 -3.423233135994705 1 0 0 I I #
vertex $-1 $219 $321 #
straight-curve $-1 -22.520581014108174 31.191601456703122 -3.423233135994705 -1 0 0 I I #
point $-1 -41.139180039586478 31.191601456703122 -3.423233135994705 #
point $-1 -41.139180039586478 -31.191601456703122 -3.423233135994705 #
coedge $-1 $282 $223 $226 $294 forward $211 $-1 #
coedge $-1 $223 $282 $230 $296 reversed $211 $-1 #
straight-curve $-1 -48.943144016846219 0 -0.10512770991057963 0 1 0 I I #
edge $-1 $228 0.10512770991057963 $287 3.423233135994705 $226 $322 forward 7 unknown #
point $-1 -48.943144016846219 31.191601456703122 -0.10512770991057963 #
edge $-1 $231 0.10512770991057963 $285 3.423233135994705 $292 $323 forward 7 unknown #
point $-1 -48.943144016846219 -31.191601456703122 -0.10512770991057963 #
straight-curve $-1 -41.139180039586478 31.191601456703122 -0.88209021147632116 0 0 -1 I I #
coedge $-1 $246 $245 $238 $300 forward $236 $-1 #
edge $-1 $307 -8.4129842376231139 $302 -5.1564345223294268 $299 $324 forward 7 unknown #
edge $-1 $243 46.662883426465712 $307 48.943144016846219 $239 $325 forward 7 unknown #
vertex $-1 $240 $326 #
straight-curve $-1 14.030975916182744 -31.191601456703122 55.016179311203899 0.57357642473473569 0 -0.81915205242281985 I I #
edge $-1 $302 -19.562599092873807 $247 -3.695405634784823 $246 $327 forward 7 unknown #
point $-1 46.662883426465712 -31.191601456703122 8.4129842376231139 #
point $-1 48.943144016846219 -15.324407998614138 5.1564345223294339 #
vertex $-1 $250 $328 #
straight-curve $-1 48.943144016846219 0 8.4129842376231139 0 1 0 I I #
vertex $-1 $253 $329 #
point $-1 46.509621200920073 -28.018162765085325 5.2686789261072278 #
vertex $-1 $257 $330 #
point $-1 46.509621200920073 -23.25800472765863 5.2686789261072278 #
vertex $-1 $261 $331 #
point $-1 46.509621200920073 -18.497846690231938 5.2686789261072278 #
straight-curve $-1 -48.943144016846219 31.191601456703122 0 0 0 -1 I I #
point $-1 -48.943144016846219 -31.191601456703122 -8.4129842376231139 #
straight-curve $-1 -48.943144016846219 0 -8.4129842376231139 0 1 0 I I #
point $-1 -48.943144016846219 31.191601456703122 -8.4129842376231139 #
straight-curve $-1 -48.943144016846219 0 -3.423233135994705 0 -1 0 I I #
point $-1 -48.943144016846219 -31.191601456703122 -3.423233135994705 #
point $-1 -48.943144016846219 31.191601456703122 -3.423233135994705 #
straight-curve $-1 -48.943144016846219 31.191601456703122 0 0 0 -1 I I #
straight-curve $-1 -48.943144016846219 -31.191601456703122 0 0 0 -1 I I #
straight-curve $-1 48.943144016846219 -31.191601456703122 0 0 0 -1 I I #
straight-curve $-1 0 -31.191601456703122 8.4129842376231139 1 0 0 I I #
point $-1 48.943144016846219 -31.191601456703122 5.1564345223294268 #
straight-curve $-1 48.943144016846219 -11.629002363829315 5.1564345223294268 0 1 0 I I #
point $-1 48.943144016846219 -31.191601456703122 8.4129842376231139 #
point $-1 45.813256962341292 -28.018162765085325 5.3914667399512703 #
point $-1 45.813256962341292 -23.25800472765863 5.3914667399512703 #
point $-1 45.813256962341292 -18.497846690231938 5.3914667399512703 #
End-of-ACIS-data 