500 0 4 0           
7 Unknown 11 ACIS 5.0 NT 24 Thu Mar 25 20:11:55 1999 
-1 9.9999999999999995e-007 1e-010 
body $-1 $4 $-1 $5 #
body $-1 $6 $-1 $7 #
body $-1 $8 $-1 $9 #
body $-1 $10 $-1 $11 #
lump $-1 $-1 $12 $0 #
transform $-1 1 0 0 0 1 0 0 0 1 66.424146244697411 40.359454781626461 15.209775913904672 1 rotate no_reflect no_shear #
lump $-1 $-1 $13 $1 #
transform $-1 1 0 0 0 1 0 0 0 1 66.424146244697411 40.359454781626461 15.209775913904672 1 rotate no_reflect no_shear #
lump $-1 $-1 $14 $2 #
transform $-1 1 0 0 0 1 0 0 0 1 66.424146244697411 40.359454781626461 15.209775913904672 1 rotate no_reflect no_shear #
lump $-1 $-1 $15 $3 #
transform $-1 1 0 0 0 1 0 0 0 1 66.424146244697411 40.359454781626461 15.209775913904672 1 rotate no_reflect no_shear #
shell $-1 $-1 $-1 $16 $-1 $4 #
shell $-1 $-1 $-1 $17 $-1 $6 #
shell $-1 $-1 $-1 $18 $-1 $8 #
shell $-1 $-1 $-1 $19 $-1 $10 #
face $-1 $20 $21 $12 $-1 $22 forward single #
face $-1 $23 $24 $13 $-1 $25 reversed single #
face $-1 $26 $27 $14 $-1 $28 forward single #
face $-1 $29 $30 $15 $-1 $31 forward single #
face $-1 $32 $33 $12 $-1 $34 reversed single #
loop $-1 $-1 $35 $16 #
plane-surface $-1 0 0 15.209775913904672 0 0 1 1 0 0 forward_v I I I I #
face $-1 $36 $37 $13 $-1 $38 reversed single #
loop $-1 $-1 $39 $17 #
plane-surface $-1 -27.915696679783895 79.850454577033304 154.80844079346858 -1 0 0 0 0.71933980857756763 0.69465836192734942 forward_v I I I I #
face $-1 $40 $41 $14 $-1 $42 forward single #
loop $-1 $43 $44 $18 #
cone-surface $-1 -55.421732083293548 32.809340823137525 7.5562031394030607 0 -0.71933980857756763 -0.69465836192734942 3 0 0 1 I I 0 1 3 forward I I I I #
face $-1 $45 $46 $15 $-1 $47 forward single #
loop $-1 $48 $49 $19 #
cone-surface $-1 -38.918110841187762 32.809340823137525 7.5562031394030607 0 -0.71933980857756763 -0.69465836192734942 3 0 0 1 I I 0 1 3 forward I I I I #
face $-1 $50 $51 $12 $-1 $52 reversed single #
loop $-1 $-1 $53 $20 #
plane-surface $-1 0 0 -15.209775913904672 0 0 1 1 0 0 forward_v I I I I #
coedge $-1 $54 $55 $56 $57 forward $21 $-1 #
face $-1 $58 $59 $13 $-1 $60 reversed single #
loop $-1 $-1 $61 $23 #
plane-surface $-1 -47.169921462240652 -15.712610712144681 62.52426354794018 0 0.71933980857756763 0.69465836192734942 1 0 0 forward_v I I I I #
coedge $-1 $62 $63 $64 $65 reversed $24 $-1 #
face $-1 $-1 $66 $14 $-1 $67 forward single #
loop $-1 $68 $69 $26 #
cone-surface $-1 -55.421732083293548 29.370715643943733 4.2355614819028489 0 -0.71933980857756763 -0.69465836192734942 1.5 0 0 1 I I -0.70710678118654757 0.70710678118654757 1.5 forward I I I I #
loop $-1 $-1 $70 $18 #
coedge $-1 $44 $44 $71 $72 reversed $27 $-1 #
face $-1 $-1 $73 $15 $-1 $74 forward single #
loop $-1 $75 $76 $29 #
cone-surface $-1 -38.918110841187762 29.370715643943733 4.2355614819028489 0 -0.71933980857756763 -0.69465836192734942 1.5 0 0 1 I I -0.70710678118654757 0.70710678118654757 1.5 forward I I I I #
loop $-1 $-1 $77 $19 #
coedge $-1 $49 $49 $78 $79 reversed $30 $-1 #
face $-1 $80 $81 $12 $-1 $82 reversed single #
loop $-1 $-1 $83 $32 #
plane-surface $-1 0 -40.359454781626461 0 0 1 0 0 0 1 forward_v I I I I #
coedge $-1 $84 $85 $86 $87 forward $33 $-1 #
coedge $-1 $88 $35 $89 $90 forward $21 $-1 #
coedge $-1 $35 $88 $91 $92 forward $21 $-1 #
coedge $-1 $93 $94 $35 $57 reversed $95 $-1 #
edge $-1 $96 -40.359454781626461 $97 40.359454781626461 $56 $98 forward 7 unknown #
face $-1 $99 $100 $13 $-1 $101 forward single #
loop $-1 $-1 $64 $36 #
plane-surface $-1 0 40.359454781626461 0 0 -1 0 0 0 -1 forward_v I I I I #
coedge $-1 $102 $103 $104 $105 reversed $37 $-1 #
coedge $-1 $63 $39 $106 $107 reversed $24 $-1 #
coedge $-1 $39 $62 $102 $108 reversed $24 $-1 #
coedge $-1 $104 $109 $39 $65 forward $59 $-1 #
edge $-1 $110 62.194444482829617 $111 72.944281802614469 $64 $112 forward 7 unknown #
loop $-1 $-1 $71 $40 #
plane-surface $-1 -47.169921462240652 -15.712610712144681 62.52426354794018 0 0.71933980857756763 0.69465836192734942 1 0 0 forward_v I I I I #
loop $-1 $-1 $113 $26 #
coedge $-1 $69 $69 $70 $114 reversed $41 $-1 #
coedge $-1 $70 $70 $69 $114 forward $43 $-1 #
coedge $-1 $71 $71 $44 $72 forward $66 $-1 #
edge $-1 $115 1.586824100923752e-015 $115 6.2831853071796022 $71 $116 forward 7 unknown #
loop $-1 $-1 $78 $45 #
plane-surface $-1 -47.169921462240652 -15.712610712144681 62.52426354794018 0 0.71933980857756763 0.69465836192734942 1 0 0 forward_v I I I I #
loop $-1 $-1 $117 $29 #
coedge $-1 $76 $76 $77 $118 reversed $46 $-1 #
coedge $-1 $77 $77 $76 $118 forward $48 $-1 #
coedge $-1 $78 $78 $49 $79 forward $73 $-1 #
edge $-1 $119 1.586824100923752e-015 $119 6.2831853071796022 $78 $120 forward 7 unknown #
face $-1 $121 $122 $12 $-1 $123 reversed single #
loop $-1 $-1 $124 $50 #
plane-surface $-1 -66.424146244697411 0 0 1 0 0 0 0 -1 forward_v I I I I #
coedge $-1 $125 $91 $126 $127 forward $51 $-1 #
coedge $-1 $128 $53 $125 $129 forward $33 $-1 #
coedge $-1 $53 $128 $130 $131 forward $33 $-1 #
coedge $-1 $94 $93 $53 $87 reversed $95 $-1 #
edge $-1 $132 -40.359454781626461 $133 40.359454781626461 $86 $134 forward 7 unknown #
coedge $-1 $55 $54 $135 $136 forward $21 $-1 #
coedge $-1 $137 $138 $54 $90 reversed $122 $-1 #
edge $-1 $97 -66.424146244697411 $139 66.424146244697411 $89 $140 forward 7 unknown #
coedge $-1 $83 $141 $55 $92 reversed $51 $-1 #
edge $-1 $142 -66.424146244697411 $96 66.424146244697411 $91 $143 forward 7 unknown #
coedge $-1 $86 $56 $141 $144 forward $95 $-1 #
coedge $-1 $56 $86 $137 $145 reversed $95 $-1 #
loop $-1 $-1 $93 $121 #
vertex $-1 $57 $146 #
vertex $-1 $57 $147 #
straight-curve $-1 66.424146244697411 0 15.209775913904672 0 1 0 I I #
face $-1 $-1 $148 $13 $-1 $149 reversed single #
loop $-1 $-1 $106 $58 #
plane-surface $-1 0 0 15.209775913904672 0 0 1 1 0 0 forward_v I I I I #
coedge $-1 $150 $61 $63 $108 forward $37 $-1 #
coedge $-1 $61 $150 $151 $152 reversed $37 $-1 #
coedge $-1 $153 $64 $61 $105 forward $59 $-1 #
edge $-1 $111 4.3307359486635697 $154 42.839185513577085 $104 $155 forward 7 unknown #
coedge $-1 $156 $157 $62 $107 forward $100 $-1 #
edge $-1 $158 -9.9467694912132174 $110 0.4342274931098089 $106 $159 forward 7 unknown #
edge $-1 $111 -80.718909563252936 $158 -65.774877283096316 $63 $160 forward 7 unknown #
coedge $-1 $64 $153 $156 $161 reversed $59 $-1 #
vertex $-1 $161 $162 #
vertex $-1 $65 $163 #
straight-curve $-1 -27.915696679783895 40.359454781626461 77.404220396734289 0 0 -1 I I #
coedge $-1 $113 $113 $-1 $164 reversed $68 $-1 #
edge $-1 $165 0 $165 6.2831853071796004 $69 $166 forward 7 unknown #
vertex $-1 $72 $167 #
ellipse-curve $-1 -55.421732083293548 35.168956289464958 9.8348572540122419 0 0.71933980857756763 0.69465836192734942 3 0 0 1 I I #
coedge $-1 $117 $117 $-1 $168 reversed $75 $-1 #
edge $-1 $169 0 $169 6.2831853071796004 $76 $170 forward 7 unknown #
vertex $-1 $79 $171 #
ellipse-curve $-1 -38.918110841187762 35.168956289464958 9.8348572540122419 0 0.71933980857756763 0.69465836192734942 3 0 0 1 I I #
face $-1 $-1 $95 $12 $-1 $172 reversed single #
loop $-1 $-1 $137 $80 #
plane-surface $-1 0 40.359454781626461 0 0 -1 0 0 0 -1 forward_v I I I I #
coedge $-1 $173 $135 $138 $174 forward $81 $-1 #
coedge $-1 $141 $83 $84 $129 reversed $51 $-1 #
coedge $-1 $135 $173 $83 $127 reversed $81 $-1 #
edge $-1 $142 -15.209775913904672 $175 15.209775913904672 $126 $176 forward 7 unknown #
coedge $-1 $85 $84 $173 $177 forward $33 $-1 #
edge $-1 $133 -66.424146244697411 $175 66.424146244697411 $125 $178 forward 7 unknown #
coedge $-1 $138 $137 $85 $131 reversed $122 $-1 #
edge $-1 $179 -66.424146244697411 $132 66.424146244697411 $130 $180 forward 7 unknown #
vertex $-1 $87 $181 #
vertex $-1 $144 $182 #
straight-curve $-1 66.424146244697411 0 -15.209775913904672 0 -1 0 I I #
coedge $-1 $124 $126 $88 $136 reversed $81 $-1 #
edge $-1 $139 -40.359454781626461 $142 40.359454781626461 $135 $183 forward 7 unknown #
coedge $-1 $130 $89 $94 $145 forward $122 $-1 #
coedge $-1 $89 $130 $124 $174 reversed $122 $-1 #
vertex $-1 $90 $184 #
straight-curve $-1 0 40.359454781626461 15.209775913904672 -1 0 0 I I #
coedge $-1 $91 $125 $93 $144 reversed $51 $-1 #
vertex $-1 $136 $185 #
straight-curve $-1 0 -40.359454781626461 15.209775913904672 1 0 0 I I #
edge $-1 $96 -15.209775913904672 $133 15.209775913904672 $93 $186 forward 7 unknown #
edge $-1 $97 -15.209775913904672 $132 15.209775913904672 $94 $187 forward 7 unknown #
point $-1 66.424146244697411 -40.359454781626461 15.209775913904672 #
point $-1 66.424146244697411 40.359454781626461 15.209775913904672 #
loop $-1 $-1 $151 $99 #
plane-surface $-1 -66.424146244697411 0 0 1 0 0 0 0 -1 forward_v I I I I #
coedge $-1 $103 $102 $157 $188 reversed $37 $-1 #
coedge $-1 $189 $190 $103 $152 forward $148 $-1 #
edge $-1 $154 -52.773365467788324 $191 -37.829333187631704 $151 $192 forward 7 unknown #
coedge $-1 $109 $104 $190 $193 reversed $59 $-1 #
vertex $-1 $105 $194 #
straight-curve $-1 -23.584960731120326 40.359454781626454 4.4599385941198264 -1 0 0 I I #
coedge $-1 $195 $106 $109 $161 forward $100 $-1 #
coedge $-1 $106 $195 $150 $188 forward $100 $-1 #
vertex $-1 $107 $196 #
straight-curve $-1 -27.915696679783895 39.925227288516652 15.209775913904679 0 1 0 I I #
straight-curve $-1 -27.915696679783895 -15.712610712144681 62.52426354794018 0 -0.69465836192734942 0.71933980857756763 I I #
edge $-1 $110 27.915696679783895 $197 66.424146244697411 $109 $198 forward 7 unknown #
point $-1 -27.915696679783895 40.359454781626461 15.209775913904672 #
point $-1 -27.915696679783895 40.359454781626461 4.4599385941198193 #
edge $-1 $199 1 $199 0 $113 $-1 forward 7 unknown #
vertex $-1 $114 $200 #
ellipse-curve $-1 -55.421732083293548 30.449725356810085 5.2775490247938732 0 0.71933980857756763 0.69465836192734942 3 0 0 1 I I #
point $-1 -52.421732083293548 35.168956289464973 9.834857254012249 #
edge $-1 $201 1 $201 0 $117 $-1 forward 7 unknown #
vertex $-1 $118 $202 #
ellipse-curve $-1 -38.918110841187762 30.449725356810085 5.2775490247938732 0 0.71933980857756763 0.69465836192734942 3 0 0 1 I I #
point $-1 -35.918110841187762 35.168956289464973 9.834857254012249 #
plane-surface $-1 66.424146244697411 0 0 -1 0 0 0 0 1 forward_v I I I I #
coedge $-1 $126 $124 $128 $177 reversed $81 $-1 #
edge $-1 $139 -15.209775913904672 $179 15.209775913904672 $138 $203 forward 7 unknown #
vertex $-1 $177 $204 #
straight-curve $-1 -66.424146244697411 -40.359454781626461 0 0 0 -1 I I #
edge $-1 $175 -40.359454781626461 $179 40.359454781626461 $173 $205 forward 7 unknown #
straight-curve $-1 0 -40.359454781626461 -15.209775913904672 -1 0 0 I I #
vertex $-1 $131 $206 #
straight-curve $-1 0 40.359454781626461 -15.209775913904672 1 0 0 I I #
point $-1 66.424146244697411 40.359454781626461 -15.209775913904672 #
point $-1 66.424146244697411 -40.359454781626461 -15.209775913904672 #
straight-curve $-1 -66.424146244697411 0 15.209775913904672 0 -1 0 I I #
point $-1 -66.424146244697411 40.359454781626461 15.209775913904672 #
point $-1 -66.424146244697411 -40.359454781626461 15.209775913904672 #
straight-curve $-1 66.424146244697411 -40.359454781626461 0 0 0 -1 I I #
straight-curve $-1 66.424146244697411 40.359454781626461 0 0 0 -1 I I #
edge $-1 $191 -42.839185513577085 $158 -4.3307359486635697 $157 $207 forward 7 unknown #
coedge $-1 $190 $151 $195 $208 reversed $148 $-1 #
coedge $-1 $151 $189 $153 $193 forward $148 $-1 #
vertex $-1 $152 $209 #
straight-curve $-1 -66.424146244697411 3.6999951723792783 42.421921207712693 0 -0.69465836192734942 0.71933980857756763 I I #
edge $-1 $197 -15.209775913904672 $154 -4.4599385941198166 $153 $210 forward 7 unknown #
point $-1 -66.424146244697411 40.359454781626461 4.4599385941198166 #
coedge $-1 $157 $156 $189 $208 forward $100 $-1 #
point $-1 -27.915696679783895 29.978457797303435 15.209775913904672 #
vertex $-1 $161 $211 #
straight-curve $-1 0 40.359454781626461 15.209775913904672 -1 0 0 I I #
vertex $-1 $164 $212 #
point $-1 -52.421732083293548 30.449725356810085 5.2775490247938732 #
vertex $-1 $168 $213 #
point $-1 -35.918110841187762 30.449725356810085 5.2775490247938732 #
straight-curve $-1 -66.424146244697411 40.359454781626461 0 0 0 -1 I I #
point $-1 -66.424146244697411 -40.359454781626461 -15.209775913904672 #
straight-curve $-1 -66.424146244697411 0 -15.209775913904672 0 1 0 I I #
point $-1 -66.424146244697411 40.359454781626461 -15.209775913904672 #
straight-curve $-1 -23.584960731120326 29.978457797303431 15.209775913904675 1 0 0 I I #
edge $-1 $197 -40.359454781626461 $191 -29.978457797303435 $189 $214 forward 7 unknown #
point $-1 -66.424146244697411 29.978457797303435 15.209775913904672 #
straight-curve $-1 -66.424146244697411 40.359454781626461 0 0 0 -1 I I #
point $-1 -66.424146244697411 40.359454781626461 15.209775913904672 #
point $-1 -55.421732083293548 28.291705931077381 3.1935739390118245 #
point $-1 -38.918110841187762 28.291705931077381 3.1935739390118245 #
straight-curve $-1 -66.424146244697411 0 15.209775913904672 0 -1 0 I I #
End-of-ACIS-data 