500 0 7 0           
7 Unknown 11 ACIS 5.0 NT 24 Fri Mar 26 15:04:09 1999 
-1 9.9999999999999995e-007 1e-010 
body $-1 $7 $-1 $8 #
body $-1 $9 $-1 $10 #
body $-1 $11 $-1 $12 #
body $-1 $13 $-1 $14 #
body $-1 $15 $-1 $16 #
body $-1 $17 $-1 $18 #
body $-1 $19 $-1 $20 #
lump $-1 $-1 $21 $0 #
transform $-1 1 0 0 0 1 0 0 0 1 58.789635914181957 36.158846626070925 15.608103478473684 1 rotate no_reflect no_shear #
lump $-1 $-1 $22 $1 #
transform $-1 1 0 0 0 1 0 0 0 1 58.789635914181957 36.158846626070925 15.608103478473684 1 rotate no_reflect no_shear #
lump $-1 $-1 $23 $2 #
transform $-1 1 0 0 0 1 0 0 0 1 58.789635914181957 36.158846626070925 15.608103478473684 1 rotate no_reflect no_shear #
lump $-1 $-1 $24 $3 #
transform $-1 1 0 0 0 1 0 0 0 1 58.789635914181957 36.158846626070925 15.608103478473684 1 rotate no_reflect no_shear #
lump $-1 $-1 $25 $4 #
transform $-1 1 0 0 0 1 0 0 0 1 58.789635914181957 36.158846626070925 15.608103478473684 1 rotate no_reflect no_shear #
lump $-1 $-1 $26 $5 #
transform $-1 1 0 0 0 1 0 0 0 1 58.789635914181957 36.158846626070925 15.608103478473684 1 rotate no_reflect no_shear #
lump $-1 $-1 $27 $6 #
transform $-1 1 0 0 0 1 0 0 0 1 58.789635914181957 36.158846626070925 15.608103478473684 1 rotate no_reflect no_shear #
shell $-1 $-1 $-1 $28 $-1 $7 #
shell $-1 $-1 $-1 $29 $-1 $9 #
shell $-1 $-1 $-1 $30 $-1 $11 #
shell $-1 $-1 $-1 $31 $-1 $13 #
shell $-1 $-1 $-1 $32 $-1 $15 #
shell $-1 $-1 $-1 $33 $-1 $17 #
shell $-1 $-1 $-1 $34 $-1 $19 #
face $-1 $35 $36 $21 $-1 $37 forward single #
face $-1 $38 $39 $22 $-1 $40 forward single #
face $-1 $41 $42 $23 $-1 $43 forward single #
face $-1 $44 $45 $24 $-1 $46 reversed single #
face $-1 $47 $48 $25 $-1 $49 forward single #
face $-1 $50 $51 $26 $-1 $52 reversed single #
face $-1 $53 $54 $27 $-1 $55 forward single #
face $-1 $56 $57 $21 $-1 $58 reversed single #
loop $-1 $-1 $59 $28 #
plane-surface $-1 0 0 15.608103478473684 0 0 1 1 0 0 forward_v I I I I #
face $-1 $60 $61 $22 $-1 $62 reversed single #
loop $-1 $-1 $63 $29 #
plane-surface $-1 -58.789635914181957 0 0 1 0 0 0 0 -1 forward_v I I I I #
face $-1 $64 $65 $23 $-1 $66 reversed single #
loop $-1 $-1 $67 $30 #
plane-surface $-1 58.789635914181957 0 0 -1 0 0 0 0 1 forward_v I I I I #
face $-1 $68 $69 $24 $-1 $70 reversed single #
loop $-1 $-1 $71 $31 #
plane-surface $-1 -21.381808083968469 -138.9959958148045 58.182143256089063 -1 0 0 0 -0.87461971476443456 0.48480960649040278 forward_v I I I I #
face $-1 $72 $73 $25 $-1 $74 forward single #
loop $-1 $75 $76 $32 #
cone-surface $-1 -32.976561967453883 -30.879620621837798 7.6838169236612694 0 0.87461971476443456 -0.48480960649040278 1.5 0 0 1 I I 0 1 1.5 forward I I I I #
face $-1 $77 $78 $26 $-1 $79 reversed single #
loop $-1 $-1 $80 $33 #
plane-surface $-1 44.5713158509393 -138.9959958148045 58.182143256089063 -1 0 0 0 -0.87461971476443456 0.48480960649040278 forward_v I I I I #
face $-1 $81 $82 $27 $-1 $83 forward single #
loop $-1 $84 $85 $34 #
cone-surface $-1 32.976561967453875 -30.879620621837798 7.6838169236612694 0 0.87461971476443456 -0.48480960649040278 1.5 0 0 1 I I 0 1 1.5 forward I I I I #
face $-1 $86 $87 $21 $-1 $88 reversed single #
loop $-1 $-1 $89 $35 #
plane-surface $-1 0 0 -15.608103478473684 0 0 1 1 0 0 forward_v I I I I #
coedge $-1 $90 $91 $92 $93 forward $36 $-1 #
face $-1 $94 $95 $22 $-1 $96 forward single #
loop $-1 $-1 $97 $38 #
plane-surface $-1 0 36.158846626070925 0 0 -1 0 0 0 -1 forward_v I I I I #
coedge $-1 $98 $99 $100 $101 forward $39 $-1 #
face $-1 $102 $103 $23 $-1 $104 forward single #
loop $-1 $-1 $105 $41 #
plane-surface $-1 0 36.158846626070925 0 0 -1 0 0 0 -1 forward_v I I I I #
coedge $-1 $106 $107 $108 $109 forward $42 $-1 #
face $-1 $110 $111 $24 $-1 $112 reversed single #
loop $-1 $-1 $113 $44 #
plane-surface $-1 -32.97656196745389 -36.15884662607094 1.1785827495518504 0 -0.87461971476443456 0.48480960649040278 1 0 0 forward_v I I I I #
coedge $-1 $114 $115 $116 $117 reversed $45 $-1 #
face $-1 $-1 $118 $25 $-1 $119 forward single #
loop $-1 $120 $121 $47 #
cone-surface $-1 -32.976561967453883 -28.943636657276102 6.610683528441978 0 0.87461971476443456 -0.48480960649040278 0.75 0 0 1 I I -0.70710678118654757 0.70710678118654757 0.75 forward I I I I #
loop $-1 $-1 $122 $32 #
coedge $-1 $76 $76 $123 $124 reversed $48 $-1 #
face $-1 $125 $126 $26 $-1 $127 reversed single #
loop $-1 $-1 $128 $50 #
plane-surface $-1 32.976561967453875 -36.15884662607094 1.1785827495518504 0 -0.87461971476443456 0.48480960649040278 1 0 0 forward_v I I I I #
coedge $-1 $129 $130 $131 $132 reversed $51 $-1 #
face $-1 $-1 $133 $27 $-1 $134 forward single #
loop $-1 $135 $136 $53 #
cone-surface $-1 32.976561967453875 -28.943636657276102 6.610683528441978 0 0.87461971476443456 -0.48480960649040278 0.75 0 0 1 I I -0.70710678118654757 0.70710678118654757 0.75 forward I I I I #
loop $-1 $-1 $137 $34 #
coedge $-1 $85 $85 $138 $139 reversed $54 $-1 #
face $-1 $140 $141 $21 $-1 $142 reversed single #
loop $-1 $-1 $143 $56 #
plane-surface $-1 0 -36.158846626070925 0 0 1 0 0 0 1 forward_v I I I I #
coedge $-1 $144 $145 $146 $147 forward $57 $-1 #
coedge $-1 $148 $59 $149 $150 forward $36 $-1 #
coedge $-1 $59 $148 $151 $152 forward $36 $-1 #
coedge $-1 $153 $154 $59 $93 reversed $155 $-1 #
edge $-1 $156 -36.158846626070925 $157 36.158846626070925 $92 $158 forward 7 unknown #
face $-1 $159 $160 $22 $-1 $161 reversed single #
loop $-1 $-1 $100 $60 #
plane-surface $-1 -64.213193460642316 0 -9.0160888284112026 0 0 1 1 0 0 forward_v I I I I #
coedge $-1 $162 $163 $99 $164 forward $61 $-1 #
coedge $-1 $165 $63 $166 $167 reversed $39 $-1 #
coedge $-1 $63 $165 $97 $164 reversed $39 $-1 #
coedge $-1 $168 $169 $63 $101 reversed $95 $-1 #
edge $-1 $170 -36.158846626070925 $171 36.158846626070925 $100 $172 forward 7 unknown #
face $-1 $173 $174 $23 $-1 $175 reversed single #
loop $-1 $-1 $176 $64 #
plane-surface $-1 64.213193460642316 0 -9.0160888284112026 0 0 1 1 0 0 forward_v I I I I #
coedge $-1 $177 $178 $106 $179 forward $65 $-1 #
coedge $-1 $180 $67 $105 $179 reversed $42 $-1 #
coedge $-1 $67 $180 $181 $182 reversed $42 $-1 #
coedge $-1 $183 $184 $67 $109 reversed $103 $-1 #
edge $-1 $185 -36.158846626070925 $186 36.158846626070925 $108 $187 forward 7 unknown #
face $-1 $188 $189 $24 $-1 $190 forward single #
loop $-1 $-1 $191 $68 #
plane-surface $-1 -44.571315850939314 -138.9959958148045 58.182143256089063 1 0 0 0 0.87461971476443456 -0.48480960649040278 forward_v I I I I #
coedge $-1 $192 $193 $194 $195 reversed $69 $-1 #
coedge $-1 $115 $71 $196 $197 reversed $45 $-1 #
coedge $-1 $71 $114 $192 $198 reversed $45 $-1 #
coedge $-1 $194 $199 $71 $117 forward $189 $-1 #
edge $-1 $200 33.339151281331326 $201 41.337564932820811 $116 $202 forward 7 unknown #
loop $-1 $-1 $123 $72 #
plane-surface $-1 -32.97656196745389 -36.15884662607094 1.1785827495518504 0 -0.87461971476443456 0.48480960649040278 1 0 0 forward_v I I I I #
loop $-1 $-1 $203 $47 #
coedge $-1 $121 $121 $122 $204 reversed $73 $-1 #
coedge $-1 $122 $122 $121 $204 forward $75 $-1 #
coedge $-1 $123 $123 $76 $124 forward $118 $-1 #
edge $-1 $205 6.7501203358497052e-016 $205 6.2831853071796013 $123 $206 forward 7 unknown #
face $-1 $207 $208 $26 $-1 $209 reversed single #
loop $-1 $-1 $210 $77 #
plane-surface $-1 21.381808083968455 -138.9959958148045 58.182143256089063 1 0 0 0 0.87461971476443456 -0.48480960649040278 forward_v I I I I #
coedge $-1 $211 $212 $213 $214 reversed $78 $-1 #
coedge $-1 $130 $80 $215 $216 reversed $51 $-1 #
coedge $-1 $80 $129 $211 $217 reversed $51 $-1 #
coedge $-1 $213 $218 $80 $132 forward $219 $-1 #
edge $-1 $220 33.339151281331326 $221 41.337564932820811 $131 $222 forward 7 unknown #
loop $-1 $-1 $138 $81 #
plane-surface $-1 32.976561967453875 -36.15884662607094 1.1785827495518504 0 -0.87461971476443456 0.48480960649040278 1 0 0 forward_v I I I I #
loop $-1 $-1 $223 $53 #
coedge $-1 $136 $136 $137 $224 reversed $82 $-1 #
coedge $-1 $137 $137 $136 $224 forward $84 $-1 #
coedge $-1 $138 $138 $85 $139 forward $133 $-1 #
edge $-1 $225 6.7501203358497052e-016 $225 6.2831853071796013 $138 $226 forward 7 unknown #
face $-1 $227 $228 $21 $-1 $229 reversed single #
loop $-1 $-1 $230 $86 #
plane-surface $-1 -58.789635914181957 0 0 1 0 0 0 0 -1 forward_v I I I I #
coedge $-1 $231 $151 $230 $232 forward $87 $-1 #
coedge $-1 $233 $89 $231 $234 forward $57 $-1 #
coedge $-1 $89 $233 $235 $236 forward $57 $-1 #
coedge $-1 $154 $153 $89 $147 reversed $155 $-1 #
edge $-1 $237 -36.158846626070925 $238 36.158846626070925 $146 $239 forward 7 unknown #
coedge $-1 $91 $90 $240 $241 forward $36 $-1 #
coedge $-1 $242 $243 $90 $150 reversed $228 $-1 #
edge $-1 $157 -58.789635914181957 $244 58.789635914181957 $149 $245 forward 7 unknown #
coedge $-1 $143 $246 $91 $152 reversed $87 $-1 #
edge $-1 $247 -58.789635914181957 $156 58.789635914181957 $151 $248 forward 7 unknown #
coedge $-1 $146 $92 $246 $249 forward $155 $-1 #
coedge $-1 $92 $146 $242 $250 reversed $155 $-1 #
loop $-1 $-1 $154 $227 #
vertex $-1 $93 $251 #
vertex $-1 $93 $252 #
straight-curve $-1 58.789635914181957 0 15.608103478473684 0 1 0 I I #
face $-1 $253 $254 $22 $-1 $255 reversed single #
loop $-1 $-1 $256 $94 #
plane-surface $-1 -69.636751007102674 0 -12.312096153442443 1 0 0 0 0 -1 forward_v I I I I #
coedge $-1 $257 $97 $258 $259 reversed $61 $-1 #
coedge $-1 $97 $257 $168 $260 reversed $61 $-1 #
edge $-1 $170 9.0160888284112026 $261 15.608103478473684 $97 $262 forward 7 unknown #
coedge $-1 $99 $98 $263 $264 reversed $39 $-1 #
coedge $-1 $265 $266 $98 $167 forward $267 $-1 #
edge $-1 $268 -15.608103478473684 $171 -9.0160888284112026 $166 $269 forward 7 unknown #
coedge $-1 $270 $100 $163 $260 forward $95 $-1 #
coedge $-1 $100 $270 $265 $271 forward $95 $-1 #
vertex $-1 $164 $272 #
vertex $-1 $271 $273 #
straight-curve $-1 -58.789635914181957 0 -9.0160888284112026 0 -1 0 I I #
face $-1 $274 $275 $23 $-1 $276 reversed single #
loop $-1 $-1 $277 $102 #
plane-surface $-1 69.636751007102674 0 -12.312096153442443 -1 0 0 0 0 1 forward_v I I I I #
coedge $-1 $184 $183 $278 $279 forward $103 $-1 #
coedge $-1 $280 $105 $184 $281 reversed $65 $-1 #
coedge $-1 $105 $280 $282 $283 reversed $65 $-1 #
edge $-1 $284 -15.608103478473684 $186 -9.0160888284112026 $105 $285 forward 7 unknown #
coedge $-1 $107 $106 $286 $287 reversed $42 $-1 #
coedge $-1 $288 $289 $107 $182 forward $290 $-1 #
edge $-1 $185 9.0160888284112026 $291 15.608103478473684 $181 $292 forward 7 unknown #
coedge $-1 $176 $108 $289 $293 forward $103 $-1 #
coedge $-1 $108 $176 $177 $281 forward $103 $-1 #
vertex $-1 $182 $294 #
vertex $-1 $281 $295 #
straight-curve $-1 58.789635914181957 0 -9.0160888284112026 0 1 0 I I #
face $-1 $-1 $296 $24 $-1 $297 reversed single #
loop $-1 $-1 $116 $110 #
plane-surface $-1 0 0 15.608103478473684 0 0 1 1 0 0 forward_v I I I I #
coedge $-1 $298 $299 $300 $301 reversed $111 $-1 #
coedge $-1 $302 $113 $115 $198 forward $69 $-1 #
coedge $-1 $113 $302 $298 $303 forward $69 $-1 #
coedge $-1 $300 $116 $113 $195 forward $189 $-1 #
edge $-1 $201 4.8935271002415242 $304 28.083034867212369 $194 $305 forward 7 unknown #
coedge $-1 $306 $307 $114 $197 forward $296 $-1 #
edge $-1 $308 -27.912488878492656 $200 -13.482968149570848 $196 $309 forward 7 unknown #
edge $-1 $201 -16.498051079043197 $308 -2.9223086620188301e-014 $115 $310 forward 7 unknown #
coedge $-1 $116 $300 $306 $311 forward $189 $-1 #
vertex $-1 $197 $312 #
vertex $-1 $117 $313 #
straight-curve $-1 -21.381808083968469 -69.497997907402251 15.608103478473684 0 1 0 I I #
coedge $-1 $203 $203 $-1 $314 reversed $120 $-1 #
edge $-1 $315 0 $315 6.2831853071796004 $121 $316 forward 7 unknown #
vertex $-1 $124 $317 #
ellipse-curve $-1 -32.976561967453883 -32.15963980032619 8.3933431140127706 0 -0.87461971476443456 0.48480960649040278 1.5 0 0 1 I I #
face $-1 $-1 $219 $26 $-1 $318 forward single #
loop $-1 $-1 $319 $125 #
plane-surface $-1 0 -36.158846626070925 0 0 1 0 0 0 1 forward_v I I I I #
coedge $-1 $320 $321 $322 $323 reversed $126 $-1 #
coedge $-1 $324 $128 $130 $217 forward $78 $-1 #
coedge $-1 $128 $324 $320 $325 forward $78 $-1 #
coedge $-1 $322 $131 $128 $214 forward $219 $-1 #
edge $-1 $221 -28.083034867212362 $326 -4.893527100241517 $213 $327 forward 7 unknown #
coedge $-1 $328 $329 $129 $216 forward $208 $-1 #
edge $-1 $330 -27.912488878492656 $220 -13.482968149570848 $215 $331 forward 7 unknown #
edge $-1 $221 -16.498051079043197 $330 -2.9223086620188301e-014 $130 $332 forward 7 unknown #
coedge $-1 $131 $322 $328 $333 forward $219 $-1 #
loop $-1 $-1 $322 $207 #
vertex $-1 $216 $334 #
vertex $-1 $132 $335 #
straight-curve $-1 44.5713158509393 -69.497997907402251 15.608103478473684 0 1 0 I I #
coedge $-1 $223 $223 $-1 $336 reversed $135 $-1 #
edge $-1 $337 0 $337 6.2831853071796004 $136 $338 forward 7 unknown #
vertex $-1 $139 $339 #
ellipse-curve $-1 32.976561967453875 -32.15963980032619 8.3933431140127706 0 -0.87461971476443456 0.48480960649040278 1.5 0 0 1 I I #
face $-1 $-1 $155 $21 $-1 $340 reversed single #
loop $-1 $-1 $242 $140 #
plane-surface $-1 0 36.158846626070925 0 0 -1 0 0 0 -1 forward_v I I I I #
coedge $-1 $240 $341 $143 $232 reversed $141 $-1 #
coedge $-1 $246 $143 $144 $234 reversed $87 $-1 #
edge $-1 $247 -15.608103478473684 $342 15.608103478473684 $230 $343 forward 7 unknown #
coedge $-1 $145 $144 $341 $344 forward $57 $-1 #
edge $-1 $238 -58.789635914181957 $342 58.789635914181957 $231 $345 forward 7 unknown #
coedge $-1 $243 $242 $145 $236 reversed $228 $-1 #
edge $-1 $346 -58.789635914181957 $237 58.789635914181957 $235 $347 forward 7 unknown #
vertex $-1 $147 $348 #
vertex $-1 $249 $349 #
straight-curve $-1 58.789635914181957 0 -15.608103478473684 0 -1 0 I I #
coedge $-1 $350 $230 $148 $241 reversed $141 $-1 #
edge $-1 $244 -36.158846626070925 $247 36.158846626070925 $240 $351 forward 7 unknown #
coedge $-1 $235 $149 $154 $250 forward $228 $-1 #
coedge $-1 $149 $235 $350 $352 reversed $228 $-1 #
vertex $-1 $150 $353 #
straight-curve $-1 0 36.158846626070925 15.608103478473684 -1 0 0 I I #
coedge $-1 $151 $231 $153 $249 reversed $87 $-1 #
vertex $-1 $241 $354 #
straight-curve $-1 0 -36.158846626070925 15.608103478473684 1 0 0 I I #
edge $-1 $156 -15.608103478473684 $238 15.608103478473684 $153 $355 forward 7 unknown #
edge $-1 $157 -15.608103478473684 $237 15.608103478473684 $154 $356 forward 7 unknown #
point $-1 58.789635914181957 -36.158846626070925 15.608103478473684 #
point $-1 58.789635914181957 36.158846626070925 15.608103478473684 #
face $-1 $-1 $267 $22 $-1 $357 reversed single #
loop $-1 $-1 $263 $159 #
plane-surface $-1 0 0 -15.608103478473684 0 0 1 1 0 0 forward_v I I I I #
coedge $-1 $358 $359 $257 $360 forward $160 $-1 #
coedge $-1 $163 $162 $256 $360 reversed $61 $-1 #
coedge $-1 $263 $361 $162 $259 forward $254 $-1 #
edge $-1 $362 -69.636751007102674 $261 -58.789635914181957 $162 $363 forward 7 unknown #
edge $-1 $170 -5.4235575464603585 $364 5.4235575464603585 $163 $365 forward 7 unknown #
vertex $-1 $164 $366 #
straight-curve $-1 -58.789635914181957 36.158846626070925 0 0 0 -1 I I #
coedge $-1 $367 $258 $165 $264 forward $254 $-1 #
edge $-1 $261 -36.158846626070925 $268 36.158846626070925 $263 $368 forward 7 unknown #
coedge $-1 $369 $166 $169 $271 reversed $267 $-1 #
coedge $-1 $166 $369 $367 $370 reversed $267 $-1 #
loop $-1 $-1 $166 $253 #
vertex $-1 $370 $371 #
straight-curve $-1 -58.789635914181957 -36.158846626070925 0 0 0 1 I I #
coedge $-1 $169 $168 $359 $372 forward $95 $-1 #
edge $-1 $373 -5.4235575464603585 $171 5.4235575464603585 $265 $374 forward 7 unknown #
point $-1 -58.789635914181957 36.158846626070925 -9.0160888284112026 #
point $-1 -58.789635914181957 -36.158846626070925 -9.0160888284112026 #
face $-1 $-1 $290 $23 $-1 $375 reversed single #
loop $-1 $-1 $286 $173 #
plane-surface $-1 0 0 -15.608103478473684 0 0 1 1 0 0 forward_v I I I I #
coedge $-1 $376 $278 $377 $378 forward $174 $-1 #
coedge $-1 $277 $379 $176 $279 reversed $174 $-1 #
edge $-1 $380 -36.158846626070925 $381 36.158846626070925 $278 $382 forward 7 unknown #
coedge $-1 $178 $177 $379 $383 forward $65 $-1 #
edge $-1 $381 -5.4235575464603585 $186 5.4235575464603585 $177 $384 forward 7 unknown #
coedge $-1 $385 $286 $178 $283 forward $275 $-1 #
edge $-1 $284 -5.4235575464603585 $386 5.4235575464603585 $178 $387 forward 7 unknown #
vertex $-1 $283 $388 #
straight-curve $-1 58.789635914181957 36.158846626070925 0 0 0 1 I I #
coedge $-1 $282 $389 $180 $287 forward $275 $-1 #
edge $-1 $291 -36.158846626070925 $284 36.158846626070925 $286 $390 forward 7 unknown #
coedge $-1 $377 $181 $389 $391 reversed $290 $-1 #
coedge $-1 $181 $377 $183 $293 reversed $290 $-1 #
loop $-1 $-1 $181 $274 #
vertex $-1 $182 $392 #
straight-curve $-1 58.789635914181957 -36.158846626070925 0 0 0 -1 I I #
edge $-1 $185 -5.4235575464603585 $380 5.4235575464603585 $289 $393 forward 7 unknown #
point $-1 58.789635914181957 -36.158846626070925 -9.0160888284112026 #
point $-1 58.789635914181957 36.158846626070925 -9.0160888284112026 #
loop $-1 $-1 $196 $188 #
plane-surface $-1 0 -36.158846626070925 0 0 1 0 0 0 1 forward_v I I I I #
coedge $-1 $299 $191 $193 $303 reversed $111 $-1 #
coedge $-1 $191 $298 $394 $395 reversed $111 $-1 #
coedge $-1 $199 $194 $191 $301 forward $189 $-1 #
edge $-1 $304 -41.337564932820811 $396 -33.339151281331326 $300 $397 forward 7 unknown #
coedge $-1 $193 $192 $307 $398 reversed $69 $-1 #
edge $-1 $399 2.9223086620188301e-014 $304 16.498051079043197 $298 $400 forward 7 unknown #
vertex $-1 $195 $401 #
straight-curve $-1 -16.488280983726945 -28.160432974581443 15.608103478473684 -1 0 0 I I #
coedge $-1 $394 $196 $199 $311 reversed $296 $-1 #
coedge $-1 $196 $394 $302 $398 forward $296 $-1 #
vertex $-1 $197 $402 #
straight-curve $-1 -21.381808083968469 -36.158846626070925 29.091071628044531 0 0 1 I I #
straight-curve $-1 -21.381808083968469 -36.15884662607094 1.1785827495518504 0 -0.48480960649040278 -0.87461971476443456 I I #
edge $-1 $396 -44.571315850939314 $200 -21.381808083968469 $306 $403 forward 7 unknown #
point $-1 -21.381808083968469 -36.158846626070925 15.608103478473684 #
point $-1 -21.381808083968469 -28.160432974581443 15.608103478473684 #
edge $-1 $404 1 $404 0 $203 $-1 forward 7 unknown #
vertex $-1 $204 $405 #
ellipse-curve $-1 -32.976561967453883 -29.599601443349428 6.9742907333097799 0 -0.87461971476443456 0.48480960649040278 1.5 0 0 1 I I #
point $-1 -31.476561967453883 -32.159639800326168 8.3933431140127599 #
plane-surface $-1 0 0 15.608103478473684 0 0 1 1 0 0 forward_v I I I I #
coedge $-1 $329 $328 $321 $406 forward $208 $-1 #
coedge $-1 $321 $210 $212 $325 reversed $126 $-1 #
coedge $-1 $210 $320 $319 $406 reversed $126 $-1 #
coedge $-1 $218 $213 $210 $323 forward $219 $-1 #
edge $-1 $326 -41.337564932820811 $407 -33.339151281331326 $322 $408 forward 7 unknown #
coedge $-1 $212 $211 $329 $409 reversed $78 $-1 #
edge $-1 $410 2.9223086620188301e-014 $326 16.498051079043197 $320 $411 forward 7 unknown #
vertex $-1 $214 $412 #
straight-curve $-1 16.488280983726938 -28.160432974581443 15.608103478473684 -1 0 0 I I #
coedge $-1 $319 $215 $218 $333 reversed $208 $-1 #
coedge $-1 $215 $319 $324 $409 forward $208 $-1 #
vertex $-1 $216 $413 #
straight-curve $-1 44.5713158509393 -36.158846626070925 29.091071628044531 0 0 1 I I #
straight-curve $-1 44.5713158509393 -36.15884662607094 1.1785827495518504 0 -0.48480960649040278 -0.87461971476443456 I I #
edge $-1 $407 21.381808083968455 $220 44.5713158509393 $328 $414 forward 7 unknown #
point $-1 44.5713158509393 -36.158846626070925 15.608103478473684 #
point $-1 44.5713158509393 -28.160432974581443 15.608103478473684 #
edge $-1 $415 1 $415 0 $223 $-1 forward 7 unknown #
vertex $-1 $224 $416 #
ellipse-curve $-1 32.976561967453875 -29.599601443349428 6.9742907333097799 0 -0.87461971476443456 0.48480960649040278 1.5 0 0 1 I I #
point $-1 34.476561967453875 -32.159639800326168 8.3933431140127599 #
plane-surface $-1 58.789635914181957 0 0 -1 0 0 0 0 1 forward_v I I I I #
coedge $-1 $230 $350 $233 $344 reversed $141 $-1 #
vertex $-1 $344 $417 #
straight-curve $-1 -58.789635914181957 -36.158846626070925 0 0 0 -1 I I #
edge $-1 $342 -36.158846626070925 $346 36.158846626070925 $341 $418 forward 7 unknown #
straight-curve $-1 0 -36.158846626070925 -15.608103478473684 -1 0 0 I I #
vertex $-1 $236 $419 #
straight-curve $-1 0 36.158846626070925 -15.608103478473684 1 0 0 I I #
point $-1 58.789635914181957 36.158846626070925 -15.608103478473684 #
point $-1 58.789635914181957 -36.158846626070925 -15.608103478473684 #
coedge $-1 $341 $240 $243 $352 forward $141 $-1 #
straight-curve $-1 -58.789635914181957 0 15.608103478473684 0 -1 0 I I #
edge $-1 $244 -15.608103478473684 $346 15.608103478473684 $243 $420 forward 7 unknown #
point $-1 -58.789635914181957 36.158846626070925 15.608103478473684 #
point $-1 -58.789635914181957 -36.158846626070925 15.608103478473684 #
straight-curve $-1 58.789635914181957 -36.158846626070925 0 0 0 -1 I I #
straight-curve $-1 58.789635914181957 36.158846626070925 0 0 0 -1 I I #
plane-surface $-1 0 -36.158846626070925 0 0 1 0 0 0 1 forward_v I I I I #
coedge $-1 $421 $256 $361 $422 reversed $160 $-1 #
coedge $-1 $256 $421 $270 $372 reversed $160 $-1 #
edge $-1 $364 -3.2960073250312405 $362 3.2960073250312405 $257 $423 forward 7 unknown #
coedge $-1 $258 $367 $358 $422 forward $254 $-1 #
vertex $-1 $259 $424 #
straight-curve $-1 0 36.158846626070925 -15.608103478473684 1 0 0 I I #
vertex $-1 $260 $425 #
straight-curve $-1 -64.213193460642316 36.158846626070925 -9.0160888284112026 -1 0 0 I I #
point $-1 -58.789635914181957 36.158846626070925 -15.608103478473684 #
coedge $-1 $361 $263 $266 $370 forward $254 $-1 #
straight-curve $-1 -58.789635914181957 0 -15.608103478473684 0 -1 0 I I #
coedge $-1 $266 $265 $421 $426 forward $267 $-1 #
edge $-1 $268 -5.4235575464603585 $427 5.4235575464603585 $266 $428 forward 7 unknown #
point $-1 -58.789635914181957 -36.158846626070925 -15.608103478473684 #
edge $-1 $364 -36.158846626070925 $373 36.158846626070925 $359 $429 forward 7 unknown #
vertex $-1 $372 $430 #
straight-curve $-1 -64.213193460642316 -36.158846626070925 -9.0160888284112026 1 0 0 I I #
plane-surface $-1 0 -36.158846626070925 0 0 1 0 0 0 1 forward_v I I I I #
coedge $-1 $379 $277 $385 $431 reversed $174 $-1 #
coedge $-1 $289 $288 $277 $378 reversed $290 $-1 #
edge $-1 $380 -3.2960073250312405 $432 3.2960073250312405 $277 $433 forward 7 unknown #
coedge $-1 $278 $376 $280 $383 reversed $174 $-1 #
vertex $-1 $279 $434 #
vertex $-1 $279 $435 #
straight-curve $-1 69.636751007102674 0 -9.0160888284112026 0 1 0 I I #
edge $-1 $381 -3.2960073250312405 $386 3.2960073250312405 $379 $436 forward 7 unknown #
straight-curve $-1 64.213193460642316 36.158846626070925 -9.0160888284112026 -1 0 0 I I #
coedge $-1 $389 $282 $376 $431 forward $275 $-1 #
vertex $-1 $431 $437 #
straight-curve $-1 64.213193460642316 36.158846626070925 -15.608103478473684 1 0 0 I I #
point $-1 58.789635914181957 36.158846626070925 -15.608103478473684 #
coedge $-1 $286 $385 $288 $391 forward $275 $-1 #
straight-curve $-1 58.789635914181957 0 -15.608103478473684 0 1 0 I I #
edge $-1 $432 -5.4235575464603585 $291 5.4235575464603585 $288 $438 forward 7 unknown #
point $-1 58.789635914181957 -36.158846626070925 -15.608103478473684 #
straight-curve $-1 64.213193460642316 -36.158846626070925 -9.0160888284112026 1 0 0 I I #
coedge $-1 $307 $306 $299 $395 forward $296 $-1 #
edge $-1 $396 13.482968149570848 $399 27.912488878492656 $394 $439 forward 7 unknown #
vertex $-1 $311 $440 #
straight-curve $-1 -44.571315850939314 -69.497997907402251 15.608103478473684 0 -1 0 I I #
edge $-1 $399 -28.083034867212369 $308 -4.8935271002415242 $307 $441 forward 7 unknown #
vertex $-1 $398 $442 #
straight-curve $-1 -44.571315850939314 -36.15884662607094 1.1785827495518504 0 0.48480960649040278 0.87461971476443456 I I #
point $-1 -44.571315850939314 -28.160432974581443 15.608103478473684 #
point $-1 -21.381808083968469 -36.158846626070925 1.1785827495518759 #
straight-curve $-1 0 -36.158846626070925 15.608103478473684 1 0 0 I I #
vertex $-1 $314 $443 #
point $-1 -31.476561967453883 -29.599601443349428 6.9742907333097799 #
edge $-1 $407 13.482968149570848 $410 27.912488878492656 $319 $444 forward 7 unknown #
vertex $-1 $333 $445 #
straight-curve $-1 21.381808083968455 -69.497997907402251 15.608103478473684 0 -1 0 I I #
edge $-1 $410 4.893527100241517 $330 28.083034867212362 $329 $446 forward 7 unknown #
vertex $-1 $409 $447 #
straight-curve $-1 21.381808083968455 -36.15884662607094 1.1785827495518504 0 0.48480960649040278 0.87461971476443456 I I #
point $-1 21.381808083968455 -28.160432974581443 15.608103478473684 #
point $-1 44.5713158509393 -36.158846626070925 1.1785827495518759 #
straight-curve $-1 0 -36.158846626070925 15.608103478473684 1 0 0 I I #
vertex $-1 $336 $448 #
point $-1 34.476561967453875 -29.599601443349428 6.9742907333097799 #
point $-1 -58.789635914181957 -36.158846626070925 -15.608103478473684 #
straight-curve $-1 -58.789635914181957 0 -15.608103478473684 0 1 0 I I #
point $-1 -58.789635914181957 36.158846626070925 -15.608103478473684 #
straight-curve $-1 -58.789635914181957 36.158846626070925 0 0 0 -1 I I #
coedge $-1 $359 $358 $369 $426 reversed $160 $-1 #
edge $-1 $427 -36.158846626070925 $362 36.158846626070925 $358 $449 forward 7 unknown #
straight-curve $-1 -69.636751007102674 36.158846626070925 -12.312096153442443 0 0 -1 I I #
point $-1 -69.636751007102674 36.158846626070925 -15.608103478473684 #
point $-1 -69.636751007102674 36.158846626070925 -9.0160888284112026 #
edge $-1 $373 -3.2960073250312405 $427 3.2960073250312405 $421 $450 forward 7 unknown #
vertex $-1 $422 $451 #
straight-curve $-1 -64.213193460642316 -36.158846626070925 -15.608103478473684 -1 0 0 I I #
straight-curve $-1 -69.636751007102674 0 -9.0160888284112026 0 -1 0 I I #
point $-1 -69.636751007102674 -36.158846626070925 -9.0160888284112026 #
edge $-1 $386 -36.158846626070925 $432 36.158846626070925 $376 $452 forward 7 unknown #
vertex $-1 $378 $453 #
straight-curve $-1 69.636751007102674 -36.158846626070925 -12.312096153442443 0 0 -1 I I #
point $-1 69.636751007102674 -36.158846626070925 -9.0160888284112026 #
point $-1 69.636751007102674 36.158846626070925 -9.0160888284112026 #
straight-curve $-1 69.636751007102674 36.158846626070925 -12.312096153442443 0 0 -1 I I #
point $-1 69.636751007102674 36.158846626070925 -15.608103478473684 #
straight-curve $-1 64.213193460642316 -36.158846626070925 -15.608103478473684 -1 0 0 I I #
straight-curve $-1 -44.571315850939314 -36.158846626070925 29.091071628044531 0 0 -1 I I #
point $-1 -44.571315850939314 -36.158846626070925 15.608103478473684 #
straight-curve $-1 -16.488280983726945 -36.158846626070925 1.1785827495518728 1 0 0 I I #
point $-1 -44.571315850939314 -36.158846626070925 1.1785827495518759 #
point $-1 -32.976561967453883 -28.287671871202775 6.2470763235741762 #
straight-curve $-1 21.381808083968455 -36.158846626070925 29.091071628044531 0 0 -1 I I #
point $-1 21.381808083968455 -36.158846626070925 15.608103478473684 #
straight-curve $-1 16.488280983726938 -36.158846626070925 1.1785827495518728 1 0 0 I I #
point $-1 21.381808083968455 -36.158846626070925 1.1785827495518759 #
point $-1 32.976561967453875 -28.287671871202775 6.2470763235741762 #
straight-curve $-1 -69.636751007102674 0 -15.608103478473684 0 1 0 I I #
straight-curve $-1 -69.636751007102674 -36.158846626070925 -12.312096153442443 0 0 -1 I I #
point $-1 -69.636751007102674 -36.158846626070925 -15.608103478473684 #
straight-curve $-1 69.636751007102674 0 -15.608103478473684 0 -1 0 I I #
point $-1 69.636751007102674 -36.158846626070925 -15.608103478473684 #
End-of-ACIS-data 