500 0 9 0           
7 Unknown 11 ACIS 5.0 NT 24 Fri Mar 26 19:02:42 1999 
-1 9.9999999999999995e-007 1e-010 
body $-1 $9 $-1 $10 #
body $-1 $11 $-1 $12 #
body $-1 $13 $-1 $14 #
body $-1 $15 $-1 $16 #
body $-1 $17 $-1 $18 #
body $-1 $19 $-1 $20 #
body $-1 $21 $-1 $22 #
body $-1 $23 $-1 $24 #
body $-1 $25 $-1 $26 #
lump $-1 $-1 $27 $0 #
transform $-1 1 0 0 0 1 0 0 0 1 41.721243934446242 23.281490557346189 8.570888163219438 1 rotate no_reflect no_shear #
lump $-1 $-1 $28 $1 #
transform $-1 1 0 0 0 1 0 0 0 1 41.721243934446242 23.281490557346189 8.570888163219438 1 rotate no_reflect no_shear #
lump $-1 $-1 $29 $2 #
transform $-1 1 0 0 0 1 0 0 0 1 41.721243934446242 23.281490557346189 8.570888163219438 1 rotate no_reflect no_shear #
lump $-1 $-1 $30 $3 #
transform $-1 1 0 0 0 1 0 0 0 1 41.721243934446242 23.281490557346189 8.570888163219438 1 rotate no_reflect no_shear #
lump $-1 $-1 $31 $4 #
transform $-1 1 0 0 0 1 0 0 0 1 41.721243934446242 23.281490557346189 8.570888163219438 1 rotate no_reflect no_shear #
lump $-1 $-1 $32 $5 #
transform $-1 1 0 0 0 1 0 0 0 1 41.721243934446242 23.281490557346189 8.570888163219438 1 rotate no_reflect no_shear #
lump $-1 $-1 $33 $6 #
transform $-1 1 0 0 0 1 0 0 0 1 41.721243934446242 23.281490557346189 8.570888163219438 1 rotate no_reflect no_shear #
lump $-1 $-1 $34 $7 #
transform $-1 1 0 0 0 1 0 0 0 1 41.721243934446242 23.281490557346189 8.570888163219438 1 rotate no_reflect no_shear #
lump $-1 $-1 $35 $8 #
transform $-1 1 0 0 0 1 0 0 0 1 41.721243934446242 23.281490557346189 8.570888163219438 1 rotate no_reflect no_shear #
shell $-1 $-1 $-1 $36 $-1 $9 #
shell $-1 $-1 $-1 $37 $-1 $11 #
shell $-1 $-1 $-1 $38 $-1 $13 #
shell $-1 $-1 $-1 $39 $-1 $15 #
shell $-1 $-1 $-1 $40 $-1 $17 #
shell $-1 $-1 $-1 $41 $-1 $19 #
shell $-1 $-1 $-1 $42 $-1 $21 #
shell $-1 $-1 $-1 $43 $-1 $23 #
shell $-1 $-1 $-1 $44 $-1 $25 #
face $-1 $45 $46 $27 $-1 $47 forward single #
face $-1 $48 $49 $28 $-1 $50 forward single #
face $-1 $51 $52 $29 $-1 $53 forward single #
face $-1 $54 $55 $30 $-1 $56 reversed single #
face $-1 $57 $58 $31 $-1 $59 forward single #
face $-1 $60 $61 $32 $-1 $62 forward single #
face $-1 $63 $64 $33 $-1 $65 forward single #
face $-1 $66 $67 $34 $-1 $68 reversed single #
face $-1 $69 $70 $35 $-1 $71 forward single #
face $-1 $72 $73 $27 $-1 $74 reversed single #
loop $-1 $-1 $75 $36 #
plane-surface $-1 0 0 8.570888163219438 0 0 1 1 0 0 forward_v I I I I #
face $-1 $76 $77 $28 $-1 $78 reversed single #
loop $-1 $-1 $79 $37 #
plane-surface $-1 -41.721243934446242 0 0 1 0 0 0 0 -1 forward_v I I I I #
face $-1 $80 $81 $29 $-1 $82 reversed single #
loop $-1 $-1 $83 $38 #
plane-surface $-1 38.347146286019843 0 4.5111204301227419 0 0 1 1 0 0 forward_v I I I I #
face $-1 $84 $85 $30 $-1 $86 reversed single #
loop $-1 $-1 $87 $39 #
plane-surface $-1 25.349874818362387 -15.769511043568251 25.776894712239695 0 0.54463904215088732 0.83867056331134215 1 0 0 forward_v I I I I #
face $-1 $88 $89 $31 $-1 $90 forward single #
loop $-1 $91 $92 $40 #
cone-surface $-1 19.57597052682376 15.895583523796752 2.7879136139745304 0 -0.54463904215088732 -0.83867056331134215 1.5 0 0 1 I I 0 1 1.5 forward I I I I #
face $-1 $93 $94 $32 $-1 $95 forward single #
loop $-1 $96 $97 $41 #
cone-surface $-1 25.349874818362387 15.895583523796752 2.7879136139745304 0 -0.54463904215088732 -0.83867056331134215 1.5 0 0 1 I I 0 1 1.5 forward I I I I #
face $-1 $98 $99 $33 $-1 $100 forward single #
loop $-1 $101 $102 $42 #
cone-surface $-1 31.123779109901015 15.895583523796752 2.7879136139745304 0 -0.54463904215088732 -0.83867056331134215 1.5 0 0 1 I I 0 1 1.5 forward I I I I #
face $-1 $103 $104 $34 $-1 $105 reversed single #
loop $-1 $-1 $106 $43 #
plane-surface $-1 23.397557104659228 -68.72752722494684 71.368592408816795 1 0 0 0 0.54463904215088732 -0.83867056331134215 forward_v I I I I #
face $-1 $107 $108 $35 $-1 $109 forward single #
loop $-1 $110 $111 $44 #
cone-surface $-1 29.185302871126332 -16.784259386468577 3.4906741727581823 0 0.54463904215088732 -0.83867056331134215 1.5 0 0 1 I I 0 1 1.5 forward I I I I #
face $-1 $112 $113 $27 $-1 $114 reversed single #
loop $-1 $-1 $115 $45 #
plane-surface $-1 0 0 -8.570888163219438 0 0 1 1 0 0 forward_v I I I I #
coedge $-1 $116 $117 $118 $119 forward $46 $-1 #
face $-1 $120 $121 $28 $-1 $122 forward single #
loop $-1 $-1 $123 $48 #
plane-surface $-1 0 23.281490557346189 0 0 -1 0 0 0 -1 forward_v I I I I #
coedge $-1 $124 $125 $126 $127 forward $49 $-1 #
face $-1 $128 $129 $29 $-1 $130 reversed single #
loop $-1 $-1 $131 $51 #
plane-surface $-1 38.347146286019843 0 0.57557951621036008 0 0 1 1 0 0 forward_v I I I I #
coedge $-1 $132 $133 $134 $135 reversed $52 $-1 #
face $-1 $136 $137 $30 $-1 $138 forward single #
loop $-1 $-1 $139 $54 #
plane-surface $-1 15.726700999131335 29.676525624032386 95.757653017343586 1 0 0 0 -0.54463904215088732 -0.83867056331134215 forward_v I I I I #
coedge $-1 $140 $141 $142 $143 reversed $55 $-1 #
face $-1 $-1 $144 $31 $-1 $145 forward single #
loop $-1 $146 $147 $57 #
cone-surface $-1 19.57597052682376 14.37923492985832 0.45294158473394397 0 -0.54463904215088732 -0.83867056331134215 0.75 0 0 1 I I -0.70710678118654757 0.70710678118654757 0.75 forward I I I I #
loop $-1 $-1 $148 $40 #
coedge $-1 $92 $92 $149 $150 reversed $58 $-1 #
face $-1 $-1 $151 $32 $-1 $152 forward single #
loop $-1 $153 $154 $60 #
cone-surface $-1 25.349874818362387 14.37923492985832 0.45294158473394397 0 -0.54463904215088732 -0.83867056331134215 0.75 0 0 1 I I -0.70710678118654757 0.70710678118654757 0.75 forward I I I I #
loop $-1 $-1 $155 $41 #
coedge $-1 $97 $97 $156 $157 reversed $61 $-1 #
face $-1 $-1 $158 $33 $-1 $159 forward single #
loop $-1 $160 $161 $63 #
cone-surface $-1 31.123779109901015 14.37923492985832 0.45294158473394397 0 -0.54463904215088732 -0.83867056331134215 0.75 0 0 1 I I -0.70710678118654757 0.70710678118654757 0.75 forward I I I I #
loop $-1 $-1 $162 $42 #
coedge $-1 $102 $102 $163 $164 reversed $64 $-1 #
face $-1 $165 $166 $34 $-1 $167 forward single #
loop $-1 $-1 $168 $66 #
plane-surface $-1 29.185302871126346 -23.281490557346203 1.3878341037129047 0 -0.54463904215088732 0.83867056331134215 1 0 0 forward_v I I I I #
coedge $-1 $169 $170 $171 $172 reversed $67 $-1 #
face $-1 $-1 $173 $35 $-1 $174 forward single #
loop $-1 $175 $176 $69 #
cone-surface $-1 29.185302871126332 -15.409015470669107 1.3729842895666948 0 0.54463904215088732 -0.83867056331134215 0.75 0 0 1 I I -0.70710678118654757 0.70710678118654757 0.75 forward I I I I #
loop $-1 $-1 $177 $44 #
coedge $-1 $111 $111 $178 $179 reversed $70 $-1 #
face $-1 $180 $181 $27 $-1 $182 reversed single #
loop $-1 $-1 $183 $72 #
plane-surface $-1 0 -23.281490557346189 0 0 1 0 0 0 1 forward_v I I I I #
coedge $-1 $184 $185 $186 $187 forward $73 $-1 #
coedge $-1 $188 $75 $189 $190 forward $46 $-1 #
coedge $-1 $75 $188 $191 $192 forward $46 $-1 #
coedge $-1 $193 $194 $75 $119 reversed $195 $-1 #
edge $-1 $196 -23.281490557346189 $197 23.281490557346189 $118 $198 forward 7 unknown #
face $-1 $199 $200 $28 $-1 $201 reversed single #
loop $-1 $-1 $126 $76 #
plane-surface $-1 -46.817392494538502 0 -3.6706930016449868 0 0 1 1 0 0 forward_v I I I I #
coedge $-1 $202 $203 $125 $204 forward $77 $-1 #
coedge $-1 $205 $79 $206 $207 reversed $49 $-1 #
coedge $-1 $79 $205 $123 $204 reversed $49 $-1 #
coedge $-1 $208 $209 $79 $127 reversed $121 $-1 #
edge $-1 $210 -23.281490557346189 $211 23.281490557346189 $126 $212 forward 7 unknown #
face $-1 $213 $214 $29 $-1 $215 reversed single #
loop $-1 $-1 $216 $80 #
plane-surface $-1 34.973048637593443 0 2.543349973166551 1 0 0 0 0 -1 forward_v I I I I #
coedge $-1 $217 $218 $219 $220 reversed $81 $-1 #
coedge $-1 $221 $83 $222 $223 reversed $52 $-1 #
coedge $-1 $83 $221 $224 $225 reversed $52 $-1 #
coedge $-1 $226 $227 $83 $135 forward $228 $-1 #
edge $-1 $229 -23.281490557346189 $230 23.281490557346189 $134 $231 forward 7 unknown #
face $-1 $232 $233 $30 $-1 $234 reversed single #
loop $-1 $-1 $235 $84 #
plane-surface $-1 34.973048637593443 0 2.543349973166551 1 0 0 0 0 -1 forward_v I I I I #
coedge $-1 $236 $237 $238 $239 reversed $85 $-1 #
coedge $-1 $240 $87 $235 $241 forward $55 $-1 #
coedge $-1 $87 $240 $236 $242 forward $55 $-1 #
coedge $-1 $238 $243 $87 $143 forward $233 $-1 #
edge $-1 $244 -22.298111228412242 $245 -3.0517635899501414 $142 $246 forward 7 unknown #
loop $-1 $-1 $149 $88 #
plane-surface $-1 25.349874818362387 -15.769511043568251 25.776894712239695 0 0.54463904215088732 0.83867056331134215 1 0 0 forward_v I I I I #
loop $-1 $-1 $247 $57 #
coedge $-1 $147 $147 $148 $248 reversed $89 $-1 #
coedge $-1 $148 $148 $147 $248 forward $91 $-1 #
coedge $-1 $149 $149 $92 $150 forward $144 $-1 #
edge $-1 $249 0 $249 6.2831853071796004 $149 $250 forward 7 unknown #
loop $-1 $-1 $156 $93 #
plane-surface $-1 25.349874818362387 -15.769511043568251 25.776894712239695 0 0.54463904215088732 0.83867056331134215 1 0 0 forward_v I I I I #
loop $-1 $-1 $251 $60 #
coedge $-1 $154 $154 $155 $252 reversed $94 $-1 #
coedge $-1 $155 $155 $154 $252 forward $96 $-1 #
coedge $-1 $156 $156 $97 $157 forward $151 $-1 #
edge $-1 $253 0 $253 6.2831853071796004 $156 $254 forward 7 unknown #
loop $-1 $-1 $163 $98 #
plane-surface $-1 25.349874818362387 -15.769511043568251 25.776894712239695 0 0.54463904215088732 0.83867056331134215 1 0 0 forward_v I I I I #
loop $-1 $-1 $255 $63 #
coedge $-1 $161 $161 $162 $256 reversed $99 $-1 #
coedge $-1 $162 $162 $161 $256 forward $101 $-1 #
coedge $-1 $163 $163 $102 $164 forward $158 $-1 #
edge $-1 $257 0 $257 6.2831853071796004 $163 $258 forward 7 unknown #
face $-1 $259 $260 $34 $-1 $261 forward single #
loop $-1 $-1 $262 $103 #
plane-surface $-1 0 0 8.570888163219438 0 0 1 1 0 0 forward_v I I I I #
coedge $-1 $263 $264 $265 $266 reversed $104 $-1 #
coedge $-1 $170 $106 $267 $268 reversed $67 $-1 #
coedge $-1 $106 $169 $263 $269 reversed $67 $-1 #
coedge $-1 $265 $270 $106 $172 forward $271 $-1 #
edge $-1 $272 27.113408041188961 $273 34.296462100695486 $171 $274 forward 7 unknown #
loop $-1 $-1 $178 $107 #
plane-surface $-1 29.185302871126346 -23.281490557346203 1.3878341037129047 0 -0.54463904215088732 0.83867056331134215 1 0 0 forward_v I I I I #
loop $-1 $-1 $275 $69 #
coedge $-1 $176 $176 $177 $276 reversed $108 $-1 #
coedge $-1 $177 $177 $176 $276 forward $110 $-1 #
coedge $-1 $178 $178 $111 $179 forward $173 $-1 #
edge $-1 $277 1.8181528650715821e-015 $277 6.2831853071796022 $178 $278 forward 7 unknown #
face $-1 $279 $280 $27 $-1 $281 reversed single #
loop $-1 $-1 $282 $112 #
plane-surface $-1 -41.721243934446242 0 0 1 0 0 0 0 -1 forward_v I I I I #
coedge $-1 $283 $191 $282 $284 forward $113 $-1 #
coedge $-1 $285 $115 $283 $286 forward $73 $-1 #
coedge $-1 $115 $285 $287 $288 forward $73 $-1 #
coedge $-1 $194 $193 $115 $187 reversed $195 $-1 #
edge $-1 $289 -23.281490557346189 $290 23.281490557346189 $186 $291 forward 7 unknown #
coedge $-1 $117 $116 $292 $293 forward $46 $-1 #
coedge $-1 $294 $295 $116 $190 reversed $280 $-1 #
edge $-1 $197 -41.721243934446242 $296 41.721243934446242 $189 $297 forward 7 unknown #
coedge $-1 $183 $298 $117 $192 reversed $113 $-1 #
edge $-1 $299 -41.721243934446242 $196 41.721243934446242 $191 $300 forward 7 unknown #
coedge $-1 $186 $118 $298 $301 forward $195 $-1 #
coedge $-1 $118 $186 $294 $302 reversed $195 $-1 #
loop $-1 $-1 $193 $279 #
vertex $-1 $119 $303 #
vertex $-1 $119 $304 #
straight-curve $-1 41.721243934446242 0 8.570888163219438 0 1 0 I I #
face $-1 $305 $306 $28 $-1 $307 reversed single #
loop $-1 $-1 $308 $120 #
plane-surface $-1 -46.817392494538502 0 -8.070888163219438 0 0 1 1 0 0 forward_v I I I I #
coedge $-1 $309 $123 $310 $311 reversed $77 $-1 #
coedge $-1 $123 $309 $208 $312 reversed $77 $-1 #
edge $-1 $210 3.6706930016449868 $313 8.070888163219438 $123 $314 forward 7 unknown #
coedge $-1 $125 $124 $308 $315 forward $49 $-1 #
coedge $-1 $316 $317 $124 $207 forward $318 $-1 #
edge $-1 $319 -8.070888163219438 $211 -3.6706930016449868 $206 $320 forward 7 unknown #
coedge $-1 $321 $126 $203 $312 forward $121 $-1 #
coedge $-1 $126 $321 $316 $322 forward $121 $-1 #
vertex $-1 $204 $323 #
vertex $-1 $322 $324 #
straight-curve $-1 -41.721243934446242 0 -3.6706930016449868 0 -1 0 I I #
face $-1 $325 $326 $29 $-1 $327 reversed single #
loop $-1 $-1 $224 $128 #
plane-surface $-1 0 -23.281490557346189 0 0 1 0 0 0 1 forward_v I I I I #
coedge $-1 $328 $329 $221 $330 reversed $129 $-1 #
coedge $-1 $331 $131 $332 $333 reversed $81 $-1 #
coedge $-1 $131 $331 $334 $335 reversed $81 $-1 #
coedge $-1 $227 $226 $131 $220 forward $228 $-1 #
edge $-1 $336 -23.281490557346189 $337 23.281490557346189 $219 $338 forward 7 unknown #
coedge $-1 $133 $132 $216 $330 forward $52 $-1 #
coedge $-1 $339 $340 $132 $223 forward $326 $-1 #
edge $-1 $341 15.799475494583522 $229 22.547670791436321 $222 $342 forward 7 unknown #
coedge $-1 $343 $344 $133 $225 forward $214 $-1 #
edge $-1 $230 -22.547670791436321 $345 -15.799475494583522 $224 $346 forward 7 unknown #
coedge $-1 $219 $134 $344 $347 forward $228 $-1 #
coedge $-1 $134 $219 $339 $348 reversed $228 $-1 #
loop $-1 $-1 $134 $325 #
vertex $-1 $348 $349 #
vertex $-1 $347 $350 #
straight-curve $-1 41.721243934446242 0 4.5111204301227419 0 -1 0 I I #
face $-1 $-1 $351 $30 $-1 $352 forward single #
loop $-1 $-1 $243 $136 #
plane-surface $-1 0 23.281490557346189 0 0 -1 0 0 0 -1 forward_v I I I I #
coedge $-1 $353 $354 $140 $241 reversed $137 $-1 #
coedge $-1 $237 $139 $141 $242 reversed $85 $-1 #
coedge $-1 $139 $236 $355 $356 reversed $85 $-1 #
coedge $-1 $357 $142 $139 $239 forward $233 $-1 #
edge $-1 $245 -47.461949230428004 $358 -39.307938345452357 $238 $359 forward 7 unknown #
coedge $-1 $141 $140 $360 $361 reversed $55 $-1 #
edge $-1 $244 -46.562981114692377 $362 -31.591577572313462 $235 $363 forward 7 unknown #
edge $-1 $364 31.591577572313462 $245 46.562981114692377 $236 $365 forward 7 unknown #
coedge $-1 $142 $357 $353 $366 forward $233 $-1 #
vertex $-1 $143 $367 #
vertex $-1 $143 $368 #
straight-curve $-1 12.674937409181194 23.281490557346189 0.41687727824378662 -1 0 0 I I #
coedge $-1 $247 $247 $-1 $369 reversed $146 $-1 #
edge $-1 $370 0 $370 6.2831853071796004 $147 $371 forward 7 unknown #
vertex $-1 $150 $372 #
ellipse-curve $-1 19.57597052682376 17.003452836122019 4.4938827207316097 0 0.54463904215088732 0.83867056331134215 1.5 0 0 1 I I #
coedge $-1 $251 $251 $-1 $373 reversed $153 $-1 #
edge $-1 $374 0 $374 6.2831853071796004 $154 $375 forward 7 unknown #
vertex $-1 $157 $376 #
ellipse-curve $-1 25.349874818362387 17.003452836122019 4.4938827207316097 0 0.54463904215088732 0.83867056331134215 1.5 0 0 1 I I #
coedge $-1 $255 $255 $-1 $377 reversed $160 $-1 #
edge $-1 $378 0 $378 6.2831853071796004 $161 $379 forward 7 unknown #
vertex $-1 $164 $380 #
ellipse-curve $-1 31.123779109901015 17.003452836122019 4.4938827207316097 0 0.54463904215088732 0.83867056331134215 1.5 0 0 1 I I #
face $-1 $-1 $271 $34 $-1 $381 reversed single #
loop $-1 $-1 $382 $165 #
plane-surface $-1 34.973048637593443 0 2.543349973166551 1 0 0 0 0 -1 forward_v I I I I #
coedge $-1 $383 $384 $385 $386 forward $166 $-1 #
coedge $-1 $387 $168 $170 $269 forward $104 $-1 #
coedge $-1 $168 $387 $382 $388 forward $104 $-1 #
coedge $-1 $389 $171 $168 $266 forward $271 $-1 #
edge $-1 $273 8.8049056690960548 $390 20.38039720203027 $265 $391 forward 7 unknown #
coedge $-1 $384 $383 $169 $268 forward $166 $-1 #
edge $-1 $392 -22.143206128509814 $272 -11.082273055127231 $267 $393 forward 7 unknown #
edge $-1 $273 1.699746028866204e-014 $392 13.188650654090518 $170 $394 forward 7 unknown #
coedge $-1 $171 $389 $384 $395 reversed $271 $-1 #
loop $-1 $-1 $389 $259 #
vertex $-1 $395 $396 #
vertex $-1 $172 $397 #
straight-curve $-1 23.397557104659228 -23.281490557346189 35.684296204408398 0 0 -1 I I #
coedge $-1 $275 $275 $-1 $398 reversed $175 $-1 #
edge $-1 $399 0 $399 6.2831853071796004 $176 $400 forward 7 unknown #
vertex $-1 $179 $401 #
ellipse-curve $-1 29.185302871126332 -17.751024020654892 4.9793611334661803 0 -0.54463904215088732 0.83867056331134215 1.5 0 0 1 I I #
face $-1 $-1 $195 $27 $-1 $402 reversed single #
loop $-1 $-1 $294 $180 #
plane-surface $-1 0 23.281490557346189 0 0 -1 0 0 0 -1 forward_v I I I I #
coedge $-1 $292 $403 $183 $284 reversed $181 $-1 #
coedge $-1 $298 $183 $184 $286 reversed $113 $-1 #
edge $-1 $299 -8.570888163219438 $404 8.570888163219438 $282 $405 forward 7 unknown #
coedge $-1 $185 $184 $403 $406 forward $73 $-1 #
edge $-1 $290 -41.721243934446242 $404 41.721243934446242 $283 $407 forward 7 unknown #
coedge $-1 $295 $294 $185 $288 reversed $280 $-1 #
edge $-1 $408 -41.721243934446242 $289 41.721243934446242 $287 $409 forward 7 unknown #
vertex $-1 $187 $410 #
vertex $-1 $301 $411 #
straight-curve $-1 41.721243934446242 0 -8.570888163219438 0 -1 0 I I #
coedge $-1 $412 $282 $188 $293 reversed $181 $-1 #
edge $-1 $296 -23.281490557346189 $299 23.281490557346189 $292 $413 forward 7 unknown #
coedge $-1 $287 $189 $194 $302 forward $280 $-1 #
coedge $-1 $189 $287 $412 $414 reversed $280 $-1 #
vertex $-1 $190 $415 #
straight-curve $-1 0 23.281490557346189 8.570888163219438 -1 0 0 I I #
coedge $-1 $191 $283 $193 $301 reversed $113 $-1 #
vertex $-1 $293 $416 #
straight-curve $-1 0 -23.281490557346189 8.570888163219438 1 0 0 I I #
edge $-1 $196 -8.570888163219438 $290 8.570888163219438 $193 $417 forward 7 unknown #
edge $-1 $197 -8.570888163219438 $289 8.570888163219438 $194 $418 forward 7 unknown #
point $-1 41.721243934446242 -23.281490557346189 8.570888163219438 #
point $-1 41.721243934446242 23.281490557346189 8.570888163219438 #
face $-1 $-1 $318 $28 $-1 $419 reversed single #
loop $-1 $-1 $420 $199 #
plane-surface $-1 -51.913541054630763 0 -5.8707905824322122 1 0 0 0 0 -1 forward_v I I I I #
coedge $-1 $421 $310 $205 $315 reversed $200 $-1 #
coedge $-1 $203 $202 $420 $422 reversed $77 $-1 #
coedge $-1 $308 $423 $202 $311 forward $200 $-1 #
edge $-1 $424 -5.09614856009226 $313 5.09614856009226 $202 $425 forward 7 unknown #
edge $-1 $210 -5.09614856009226 $426 5.09614856009226 $203 $427 forward 7 unknown #
vertex $-1 $204 $428 #
straight-curve $-1 -41.721243934446242 23.281490557346189 0 0 0 -1 I I #
edge $-1 $319 -23.281490557346189 $313 23.281490557346189 $308 $429 forward 7 unknown #
coedge $-1 $430 $206 $209 $322 reversed $318 $-1 #
coedge $-1 $206 $430 $421 $431 reversed $318 $-1 #
loop $-1 $-1 $206 $305 #
vertex $-1 $207 $432 #
straight-curve $-1 -41.721243934446242 -23.281490557346189 0 0 0 1 I I #
coedge $-1 $209 $208 $433 $434 forward $121 $-1 #
edge $-1 $435 -5.09614856009226 $211 5.09614856009226 $316 $436 forward 7 unknown #
point $-1 -41.721243934446242 23.281490557346189 -3.6706930016449868 #
point $-1 -41.721243934446242 -23.281490557346189 -3.6706930016449868 #
face $-1 $-1 $228 $29 $-1 $437 reversed single #
loop $-1 $-1 $222 $213 #
plane-surface $-1 0 23.281490557346189 0 0 -1 0 0 0 -1 forward_v I I I I #
coedge $-1 $438 $216 $340 $439 reversed $129 $-1 #
coedge $-1 $216 $438 $343 $440 reversed $129 $-1 #
edge $-1 $341 -23.281490557346189 $345 23.281490557346189 $216 $441 forward 7 unknown #
coedge $-1 $218 $217 $438 $442 forward $81 $-1 #
coedge $-1 $344 $343 $217 $333 forward $214 $-1 #
edge $-1 $443 15.799475494583522 $336 22.547670791436321 $332 $444 forward 7 unknown #
coedge $-1 $340 $339 $218 $335 forward $326 $-1 #
edge $-1 $337 -22.547670791436321 $445 -15.799475494583522 $334 $446 forward 7 unknown #
vertex $-1 $220 $447 #
vertex $-1 $220 $448 #
straight-curve $-1 41.721243934446242 0 0.57557951621036008 0 1 0 I I #
coedge $-1 $334 $222 $227 $348 forward $326 $-1 #
coedge $-1 $222 $334 $328 $439 forward $326 $-1 #
vertex $-1 $223 $449 #
straight-curve $-1 19.173573143009921 23.281490557346189 4.5111204301227419 1 0 0 I I #
coedge $-1 $332 $224 $329 $440 forward $214 $-1 #
coedge $-1 $224 $332 $226 $347 reversed $214 $-1 #
vertex $-1 $225 $450 #
straight-curve $-1 19.173573143009921 -23.281490557346189 4.5111204301227419 -1 0 0 I I #
edge $-1 $230 -4.5111204301227419 $336 -0.57557951621036008 $226 $451 forward 7 unknown #
edge $-1 $229 -4.5111204301227419 $337 -0.57557951621036008 $227 $452 forward 7 unknown #
point $-1 41.721243934446242 23.281490557346189 4.5111204301227419 #
point $-1 41.721243934446242 -23.281490557346189 4.5111204301227419 #
loop $-1 $-1 $453 $232 #
plane-surface $-1 0 0 8.570888163219438 0 0 1 1 0 0 forward_v I I I I #
coedge $-1 $354 $235 $243 $366 reversed $137 $-1 #
coedge $-1 $235 $353 $453 $454 reversed $137 $-1 #
coedge $-1 $360 $455 $237 $356 forward $351 $-1 #
edge $-1 $358 -8.4432277453299953 $364 4.1128476971183474 $355 $456 forward 7 unknown #
coedge $-1 $243 $238 $455 $457 reversed $233 $-1 #
vertex $-1 $356 $458 #
straight-curve $-1 15.726700999131335 23.281490557346189 47.878826508671793 0 0 1 I I #
coedge $-1 $453 $355 $240 $361 forward $351 $-1 #
edge $-1 $364 3.0517635899501414 $362 22.298111228412242 $360 $459 forward 7 unknown #
vertex $-1 $454 $460 #
straight-curve $-1 34.973048637593436 -15.769511043568251 25.776894712239695 0 -0.83867056331134215 0.54463904215088732 I I #
vertex $-1 $361 $461 #
straight-curve $-1 15.726700999131335 -15.769511043568251 25.776894712239695 0 0.83867056331134215 -0.54463904215088732 I I #
edge $-1 $462 39.307938345452357 $244 47.461949230428004 $243 $463 forward 7 unknown #
point $-1 34.973048637593436 23.281490557346189 0.41687727824378484 #
point $-1 15.726700999131335 23.281490557346189 0.41687727824378484 #
edge $-1 $464 1 $464 0 $247 $-1 forward 7 unknown #
vertex $-1 $248 $465 #
ellipse-curve $-1 19.57597052682376 14.787714211471485 1.0819445072174507 0 0.54463904215088732 0.83867056331134215 1.5 0 0 1 I I #
point $-1 21.07597052682376 17.003452836122019 4.4938827207316097 #
edge $-1 $466 1 $466 0 $251 $-1 forward 7 unknown #
vertex $-1 $252 $467 #
ellipse-curve $-1 25.349874818362387 14.787714211471485 1.0819445072174507 0 0.54463904215088732 0.83867056331134215 1.5 0 0 1 I I #
point $-1 26.849874818362387 17.003452836122019 4.4938827207316097 #
edge $-1 $468 1 $468 0 $255 $-1 forward 7 unknown #
vertex $-1 $256 $469 #
ellipse-curve $-1 31.123779109901015 14.787714211471485 1.0819445072174507 0 0.54463904215088732 0.83867056331134215 1.5 0 0 1 I I #
point $-1 32.623779109901015 17.003452836122019 4.4938827207316097 #
plane-surface $-1 0 -23.281490557346189 0 0 1 0 0 0 1 forward_v I I I I #
coedge $-1 $385 $470 $264 $388 reversed $260 $-1 #
coedge $-1 $267 $262 $387 $471 forward $166 $-1 #
coedge $-1 $262 $267 $270 $395 forward $166 $-1 #
coedge $-1 $470 $382 $262 $386 reversed $260 $-1 #
edge $-1 $472 11.082273055127231 $473 22.143206128509814 $262 $474 forward 7 unknown #
coedge $-1 $264 $263 $383 $471 reversed $104 $-1 #
edge $-1 $473 -13.188650654090518 $390 -1.699746028866204e-014 $382 $475 forward 7 unknown #
coedge $-1 $270 $265 $470 $476 forward $271 $-1 #
vertex $-1 $476 $477 #
straight-curve $-1 14.592651435563173 -23.281490557346189 1.3878341037129152 1 0 0 I I #
vertex $-1 $268 $478 #
straight-curve $-1 23.397557104659228 -34.36376361247342 8.5708881632194363 0 -1 0 I I #
straight-curve $-1 23.397557104659228 -23.281490557346203 1.3878341037129047 0 0.83867056331134215 0.54463904215088732 I I #
edge $-1 $272 23.397557104659228 $472 34.973048637593465 $270 $479 forward 7 unknown #
point $-1 23.397557104659228 -23.281490557346189 8.570888163219438 #
point $-1 23.397557104659228 -23.281490557346189 1.387834103712914 #
edge $-1 $480 1 $480 0 $275 $-1 forward 7 unknown #
vertex $-1 $276 $481 #
ellipse-curve $-1 29.185302871126332 -15.817494752282272 2.0019872120502016 0 -0.54463904215088732 0.83867056331134215 1.5 0 0 1 I I #
point $-1 30.685302871126332 -17.751024020654878 4.9793611334661634 #
plane-surface $-1 41.721243934446242 0 0 -1 0 0 0 0 1 forward_v I I I I #
coedge $-1 $282 $412 $285 $406 reversed $181 $-1 #
vertex $-1 $406 $482 #
straight-curve $-1 -41.721243934446242 -23.281490557346189 0 0 0 -1 I I #
edge $-1 $404 -23.281490557346189 $408 23.281490557346189 $403 $483 forward 7 unknown #
straight-curve $-1 0 -23.281490557346189 -8.570888163219438 -1 0 0 I I #
vertex $-1 $288 $484 #
straight-curve $-1 0 23.281490557346189 -8.570888163219438 1 0 0 I I #
point $-1 41.721243934446242 23.281490557346189 -8.570888163219438 #
point $-1 41.721243934446242 -23.281490557346189 -8.570888163219438 #
coedge $-1 $403 $292 $295 $414 forward $181 $-1 #
straight-curve $-1 -41.721243934446242 0 8.570888163219438 0 -1 0 I I #
edge $-1 $296 -8.570888163219438 $408 8.570888163219438 $295 $485 forward 7 unknown #
point $-1 -41.721243934446242 23.281490557346189 8.570888163219438 #
point $-1 -41.721243934446242 -23.281490557346189 8.570888163219438 #
straight-curve $-1 41.721243934446242 -23.281490557346189 0 0 0 -1 I I #
straight-curve $-1 41.721243934446242 23.281490557346189 0 0 0 -1 I I #
plane-surface $-1 0 -23.281490557346189 0 0 1 0 0 0 1 forward_v I I I I #
coedge $-1 $486 $433 $309 $422 forward $306 $-1 #
coedge $-1 $423 $308 $317 $431 forward $200 $-1 #
edge $-1 $426 -2.2000975807872254 $424 2.2000975807872258 $309 $487 forward 7 unknown #
coedge $-1 $310 $421 $486 $488 forward $200 $-1 #
vertex $-1 $311 $489 #
straight-curve $-1 -46.817392494538502 23.281490557346189 -8.070888163219438 1 0 0 I I #
vertex $-1 $312 $490 #
straight-curve $-1 -46.817392494538502 23.281490557346189 -3.6706930016449868 -1 0 0 I I #
point $-1 -41.721243934446242 23.281490557346189 -8.070888163219438 #
straight-curve $-1 -41.721243934446242 0 -8.070888163219438 0 1 0 I I #
coedge $-1 $317 $316 $491 $492 forward $318 $-1 #
edge $-1 $319 -5.09614856009226 $493 5.09614856009226 $317 $494 forward 7 unknown #
point $-1 -41.721243934446242 -23.281490557346189 -8.070888163219438 #
coedge $-1 $420 $491 $321 $434 reversed $306 $-1 #
edge $-1 $426 -23.281490557346189 $435 23.281490557346189 $433 $495 forward 7 unknown #
vertex $-1 $434 $496 #
straight-curve $-1 -46.817392494538502 -23.281490557346189 -3.6706930016449868 1 0 0 I I #
plane-surface $-1 41.721243934446242 0 0 -1 0 0 0 0 1 forward_v I I I I #
coedge $-1 $329 $328 $331 $442 reversed $129 $-1 #
edge $-1 $445 -0.69609547037291541 $341 3.2394454435394664 $340 $497 forward 7 unknown #
edge $-1 $345 -3.2394454435394664 $443 0.69609547037291541 $343 $498 forward 7 unknown #
straight-curve $-1 34.973048637593443 0 4.5111204301227419 0 -1 0 I I #
edge $-1 $443 -23.281490557346189 $445 23.281490557346189 $438 $499 forward 7 unknown #
vertex $-1 $333 $500 #
straight-curve $-1 19.173573143009921 -23.281490557346189 0.57557951621036008 1 0 0 I I #
vertex $-1 $335 $501 #
straight-curve $-1 19.173573143009921 23.281490557346189 0.57557951621036008 -1 0 0 I I #
point $-1 41.721243934446242 -23.281490557346189 0.57557951621036008 #
point $-1 41.721243934446242 23.281490557346189 0.57557951621036008 #
point $-1 34.973048637593443 23.281490557346189 4.5111204301227419 #
point $-1 34.973048637593443 -23.281490557346189 4.5111204301227419 #
straight-curve $-1 41.721243934446242 -23.281490557346189 0 0 0 -1 I I #
straight-curve $-1 41.721243934446242 23.281490557346189 0 0 0 -1 I I #
coedge $-1 $455 $360 $354 $454 forward $351 $-1 #
edge $-1 $362 -4.1128476971183474 $462 8.4432277453299953 $453 $502 forward 7 unknown #
coedge $-1 $355 $453 $357 $457 forward $351 $-1 #
straight-curve $-1 15.726700999131335 14.838262812016193 8.5708881632194363 0 -1 0 I I #
edge $-1 $462 -34.973048637593436 $358 -15.726700999131335 $357 $503 forward 7 unknown #
point $-1 15.726700999131335 23.281490557346189 8.570888163219438 #
straight-curve $-1 12.674937409181194 10.725415114897846 8.5708881632194363 1 0 0 I I #
point $-1 34.973048637593436 10.725415114897846 8.5708881632194363 #
point $-1 15.726700999131335 10.725415114897846 8.5708881632194363 #
vertex $-1 $457 $504 #
straight-curve $-1 34.973048637593436 23.281490557346189 47.878826508671793 0 0 -1 I I #
vertex $-1 $369 $505 #
point $-1 21.07597052682376 14.787714211471485 1.0819445072174507 #
vertex $-1 $373 $506 #
point $-1 26.849874818362387 14.787714211471485 1.0819445072174507 #
vertex $-1 $377 $507 #
point $-1 32.623779109901015 14.787714211471485 1.0819445072174507 #
coedge $-1 $382 $385 $389 $476 reversed $260 $-1 #
edge $-1 $473 -20.380397202030291 $392 -8.8049056690960548 $383 $508 forward 7 unknown #
vertex $-1 $386 $509 #
vertex $-1 $471 $510 #
straight-curve $-1 34.973048637593465 -34.36376361247342 8.5708881632194363 0 1 0 I I #
straight-curve $-1 34.973048637593465 -23.281490557346203 1.3878341037129047 0 -0.83867056331134215 -0.54463904215088732 I I #
edge $-1 $390 -34.296462100695486 $472 -27.113408041188961 $389 $511 forward 7 unknown #
point $-1 34.973048637593443 -23.281490557346189 1.387834103712914 #
point $-1 23.397557104659228 -12.220557483963606 8.570888163219438 #
straight-curve $-1 0 -23.281490557346189 8.570888163219438 1 0 0 I I #
vertex $-1 $398 $512 #
point $-1 30.685302871126332 -15.817494752282272 2.0019872120502016 #
point $-1 -41.721243934446242 -23.281490557346189 -8.570888163219438 #
straight-curve $-1 -41.721243934446242 0 -8.570888163219438 0 1 0 I I #
point $-1 -41.721243934446242 23.281490557346189 -8.570888163219438 #
straight-curve $-1 -41.721243934446242 23.281490557346189 0 0 0 -1 I I #
coedge $-1 $491 $420 $423 $488 reversed $306 $-1 #
straight-curve $-1 -51.913541054630763 23.281490557346189 -5.8707905824322122 0 0 -1 I I #
edge $-1 $493 -23.281490557346189 $424 23.281490557346189 $486 $513 forward 7 unknown #
point $-1 -51.913541054630763 23.281490557346189 -8.070888163219438 #
point $-1 -51.913541054630763 23.281490557346189 -3.6706930016449868 #
coedge $-1 $433 $486 $430 $492 reversed $306 $-1 #
edge $-1 $435 -2.2000975807872254 $493 2.2000975807872258 $491 $514 forward 7 unknown #
vertex $-1 $488 $515 #
straight-curve $-1 -46.817392494538502 -23.281490557346189 -8.070888163219438 -1 0 0 I I #
straight-curve $-1 -51.913541054630763 0 -3.6706930016449868 0 -1 0 I I #
point $-1 -51.913541054630763 -23.281490557346189 -3.6706930016449868 #
straight-curve $-1 34.973048637593443 23.281490557346189 1.2716749865832755 0 0 1 I I #
straight-curve $-1 34.973048637593443 -23.281490557346189 1.2716749865832755 0 0 -1 I I #
straight-curve $-1 34.973048637593443 0 0.57557951621036008 0 1 0 I I #
point $-1 34.973048637593443 -23.281490557346189 0.57557951621036008 #
point $-1 34.973048637593443 23.281490557346189 0.57557951621036008 #
straight-curve $-1 34.973048637593436 14.838262812016193 8.5708881632194363 0 1 0 I I #
straight-curve $-1 0 23.281490557346189 8.570888163219438 -1 0 0 I I #
point $-1 34.973048637593436 23.281490557346189 8.570888163219438 #
point $-1 19.57597052682376 13.970755648245156 -0.17606133774956267 #
point $-1 25.349874818362387 13.970755648245156 -0.17606133774956267 #
point $-1 31.123779109901015 13.970755648245156 -0.17606133774956267 #
straight-curve $-1 14.592651435563173 -12.220557483963606 8.570888163219438 -1 0 0 I I #
point $-1 34.973048637593465 -23.281490557346189 8.570888163219438 #
point $-1 34.973048637593465 -12.220557483963606 8.570888163219438 #
straight-curve $-1 34.973048637593465 -23.281490557346189 35.684296204408398 0 0 1 I I #
point $-1 29.185302871126332 -15.000536189055943 0.74398136708318818 #
straight-curve $-1 -51.913541054630763 0 -8.070888163219438 0 1 0 I I #
straight-curve $-1 -51.913541054630763 -23.281490557346189 -5.8707905824322122 0 0 -1 I I #
point $-1 -51.913541054630763 -23.281490557346189 -8.070888163219438 #
End-of-ACIS-data 