500 0 9 0           
7 Unknown 11 ACIS 5.0 NT 24 Thu Mar 25 16:14:08 1999 
-1 9.9999999999999995e-007 1e-010 
body $-1 $9 $-1 $10 #
body $-1 $11 $-1 $12 #
body $-1 $13 $-1 $14 #
body $-1 $15 $-1 $16 #
body $-1 $17 $-1 $18 #
body $-1 $19 $-1 $20 #
body $-1 $21 $-1 $22 #
body $-1 $23 $-1 $24 #
body $-1 $25 $-1 $26 #
lump $-1 $-1 $27 $0 #
transform $-1 1 0 0 0 1 0 0 0 1 63.966795861690116 39.572073291822505 10.852339482029061 1 rotate no_reflect no_shear #
lump $-1 $-1 $28 $1 #
transform $-1 1 0 0 0 1 0 0 0 1 63.966795861690116 39.572073291822505 10.852339482029061 1 rotate no_reflect no_shear #
lump $-1 $-1 $29 $2 #
transform $-1 1 0 0 0 1 0 0 0 1 63.966795861690116 39.572073291822505 10.852339482029061 1 rotate no_reflect no_shear #
lump $-1 $-1 $30 $3 #
transform $-1 1 0 0 0 1 0 0 0 1 63.966795861690116 39.572073291822505 10.852339482029061 1 rotate no_reflect no_shear #
lump $-1 $-1 $31 $4 #
transform $-1 1 0 0 0 1 0 0 0 1 63.966795861690116 39.572073291822505 10.852339482029061 1 rotate no_reflect no_shear #
lump $-1 $-1 $32 $5 #
transform $-1 1 0 0 0 1 0 0 0 1 63.966795861690116 39.572073291822505 10.852339482029061 1 rotate no_reflect no_shear #
lump $-1 $-1 $33 $6 #
transform $-1 1 0 0 0 1 0 0 0 1 63.966795861690116 39.572073291822505 10.852339482029061 1 rotate no_reflect no_shear #
lump $-1 $-1 $34 $7 #
transform $-1 1 0 0 0 1 0 0 0 1 63.966795861690116 39.572073291822505 10.852339482029061 1 rotate no_reflect no_shear #
lump $-1 $-1 $35 $8 #
transform $-1 1 0 0 0 1 0 0 0 1 63.966795861690116 39.572073291822505 10.852339482029061 1 rotate no_reflect no_shear #
shell $-1 $-1 $-1 $36 $-1 $9 #
shell $-1 $-1 $-1 $37 $-1 $11 #
shell $-1 $-1 $-1 $38 $-1 $13 #
shell $-1 $-1 $-1 $39 $-1 $15 #
shell $-1 $-1 $-1 $40 $-1 $17 #
shell $-1 $-1 $-1 $41 $-1 $19 #
shell $-1 $-1 $-1 $42 $-1 $21 #
shell $-1 $-1 $-1 $43 $-1 $23 #
shell $-1 $-1 $-1 $44 $-1 $25 #
face $-1 $45 $46 $27 $-1 $47 forward single #
face $-1 $48 $49 $28 $-1 $50 forward single #
face $-1 $51 $52 $29 $-1 $53 forward single #
face $-1 $54 $55 $30 $-1 $56 reversed single #
face $-1 $57 $58 $31 $-1 $59 forward single #
face $-1 $60 $61 $32 $-1 $62 reversed single #
face $-1 $63 $64 $33 $-1 $65 forward single #
face $-1 $66 $67 $34 $-1 $68 forward single #
face $-1 $69 $70 $35 $-1 $71 forward single #
face $-1 $72 $73 $27 $-1 $74 reversed single #
loop $-1 $-1 $75 $36 #
plane-surface $-1 0 0 10.852339482029061 0 0 1 1 0 0 forward_v I I I I #
face $-1 $76 $77 $28 $-1 $78 reversed single #
loop $-1 $-1 $79 $37 #
plane-surface $-1 0 -33.618879342074543 2.0030970253286169 0 0 1 1 0 0 forward_v I I I I #
face $-1 $80 $81 $29 $-1 $82 reversed single #
loop $-1 $-1 $83 $38 #
plane-surface $-1 0 33.618879342074536 2.0030970253286169 0 0 1 1 0 0 forward_v I I I I #
face $-1 $84 $85 $30 $-1 $86 reversed single #
loop $-1 $-1 $87 $39 #
plane-surface $-1 -63.966795861690116 19.640774532905802 0.012461368238334103 -0.85716730853699208 0 0.51503806187062418 0.51503806187062418 0 0.85716730853699208 forward_v I I I I #
face $-1 $88 $89 $31 $-1 $90 forward single #
loop $-1 $91 $92 $40 #
cone-surface $-1 -57.388961900064956 19.640774532905802 3.4368185184869349 0.85716730853699208 0 -0.51503806187062418 1.5451141856118724 0 2.5715019256109763 1 I I 0 1 3 forward I I I I #
face $-1 $93 $94 $32 $-1 $95 reversed single #
loop $-1 $-1 $96 $41 #
plane-surface $-1 98.48899614938847 -27.66568539232658 185.01822095815831 0 1 0 0.82903758062907751 0 0.55919289150049634 forward_v I I I I #
face $-1 $97 $98 $33 $-1 $99 forward single #
loop $-1 $100 $101 $42 #
cone-surface $-1 62.202717479058883 -25.742776238944735 8.7262334634897947 -0.82903758062907751 0 -0.55919289150049634 0.27959644575024817 0 -0.41451879031453875 1 I I 0 1 0.5 forward I I I I #
face $-1 $102 $103 $34 $-1 $104 forward single #
loop $-1 $105 $106 $43 #
cone-surface $-1 62.202717479058883 -22.858412508871972 8.7262334634897947 -0.82903758062907751 0 -0.55919289150049634 0.27959644575024817 0 -0.41451879031453875 1 I I 0 1 0.5 forward I I I I #
face $-1 $107 $108 $35 $-1 $109 forward single #
loop $-1 $110 $111 $44 #
cone-surface $-1 62.202717479058883 -19.974048778799208 8.7262334634897947 -0.82903758062907751 0 -0.55919289150049634 0.27959644575024817 0 -0.41451879031453875 1 I I 0 1 0.5 forward I I I I #
face $-1 $112 $113 $27 $-1 $114 reversed single #
loop $-1 $-1 $115 $45 #
plane-surface $-1 0 0 -10.852339482029061 0 0 1 1 0 0 forward_v I I I I #
coedge $-1 $116 $117 $118 $119 forward $46 $-1 #
face $-1 $120 $121 $28 $-1 $122 reversed single #
loop $-1 $-1 $123 $48 #
plane-surface $-1 0 -33.618879342074543 -1.1189667388638673 0 0 1 1 0 0 forward_v I I I I #
coedge $-1 $124 $125 $126 $127 reversed $49 $-1 #
face $-1 $128 $129 $29 $-1 $130 reversed single #
loop $-1 $-1 $131 $51 #
plane-surface $-1 0 33.618879342074536 -1.1189667388638673 0 0 1 1 0 0 forward_v I I I I #
coedge $-1 $132 $133 $134 $135 reversed $52 $-1 #
face $-1 $136 $137 $30 $-1 $138 forward single #
loop $-1 $-1 $139 $54 #
plane-surface $-1 -173.62728835069035 11.615863673485023 65.903130497595811 0 1 0 -0.85716730853699208 0 0.51503806187062418 forward_v I I I I #
coedge $-1 $140 $141 $142 $143 reversed $55 $-1 #
face $-1 $-1 $144 $31 $-1 $145 forward single #
loop $-1 $146 $147 $57 #
cone-surface $-1 -52.78200480023574 19.640774532905802 0.66867951903423695 0.85716730853699208 0 -0.51503806187062418 0.77255709280593621 0 1.2857509628054882 1 I I -0.70710678118654757 0.70710678118654757 1.5 forward I I I I #
loop $-1 $-1 $148 $40 #
coedge $-1 $92 $92 $149 $150 reversed $58 $-1 #
face $-1 $151 $152 $32 $-1 $153 reversed single #
loop $-1 $-1 $154 $60 #
plane-surface $-1 -7.5727592141508353 -22.858412508871972 113.47866588231736 0.82903758062907751 0 0.55919289150049634 0.55919289150049634 0 -0.82903758062907751 forward_v I I I I #
coedge $-1 $155 $156 $157 $158 reversed $61 $-1 #
face $-1 $-1 $159 $33 $-1 $160 forward single #
loop $-1 $161 $162 $63 #
cone-surface $-1 61.389992712544938 -25.742776238944735 8.1780437037009275 -0.82903758062907751 0 -0.55919289150049634 0.13979822287512408 0 -0.20725939515726938 1 I I -0.70710678118654746 0.70710678118654746 0.25 forward I I I I #
loop $-1 $-1 $163 $42 #
coedge $-1 $101 $101 $164 $165 reversed $64 $-1 #
face $-1 $-1 $166 $34 $-1 $167 forward single #
loop $-1 $168 $169 $66 #
cone-surface $-1 61.389992712544938 -22.858412508871972 8.1780437037009275 -0.82903758062907751 0 -0.55919289150049634 0.13979822287512408 0 -0.20725939515726938 1 I I -0.70710678118654746 0.70710678118654746 0.25 forward I I I I #
loop $-1 $-1 $170 $43 #
coedge $-1 $106 $106 $171 $172 reversed $67 $-1 #
face $-1 $-1 $173 $35 $-1 $174 forward single #
loop $-1 $175 $176 $69 #
cone-surface $-1 61.389992712544938 -19.974048778799208 8.1780437037009275 -0.82903758062907751 0 -0.55919289150049634 0.13979822287512408 0 -0.20725939515726938 1 I I -0.70710678118654746 0.70710678118654746 0.25 forward I I I I #
loop $-1 $-1 $177 $44 #
coedge $-1 $111 $111 $178 $179 reversed $70 $-1 #
face $-1 $180 $181 $27 $-1 $182 reversed single #
loop $-1 $-1 $183 $72 #
plane-surface $-1 0 -39.572073291822505 0 0 1 0 0 0 1 forward_v I I I I #
coedge $-1 $184 $185 $186 $187 forward $73 $-1 #
coedge $-1 $188 $75 $189 $190 forward $46 $-1 #
coedge $-1 $75 $188 $191 $192 forward $46 $-1 #
coedge $-1 $193 $194 $75 $119 reversed $195 $-1 #
edge $-1 $196 -39.572073291822505 $197 39.572073291822505 $118 $198 forward 7 unknown #
face $-1 $199 $200 $28 $-1 $201 reversed single #
loop $-1 $-1 $202 $76 #
plane-surface $-1 0 -27.66568539232658 0.44206514323237478 0 -1 0 0 0 -1 forward_v I I I I #
coedge $-1 $203 $204 $205 $206 reversed $77 $-1 #
coedge $-1 $207 $79 $208 $209 forward $49 $-1 #
coedge $-1 $79 $207 $210 $211 reversed $49 $-1 #
coedge $-1 $212 $213 $79 $127 forward $214 $-1 #
edge $-1 $215 10.856245721289309 $216 22.762633620785234 $126 $217 forward 7 unknown #
face $-1 $218 $219 $29 $-1 $220 reversed single #
loop $-1 $-1 $221 $80 #
plane-surface $-1 0 27.665685392326573 0.44206514323237478 0 1 0 0 0 1 forward_v I I I I #
coedge $-1 $222 $223 $224 $225 reversed $81 $-1 #
coedge $-1 $226 $83 $227 $228 reversed $52 $-1 #
coedge $-1 $83 $226 $229 $230 forward $52 $-1 #
coedge $-1 $231 $232 $83 $135 forward $219 $-1 #
edge $-1 $233 -22.76263362078523 $234 -10.856245721289305 $134 $235 forward 7 unknown #
face $-1 $236 $237 $30 $-1 $238 reversed single #
loop $-1 $-1 $239 $84 #
plane-surface $-1 0 27.665685392326573 0.44206514323237478 0 1 0 0 0 1 forward_v I I I I #
coedge $-1 $240 $241 $242 $243 reversed $85 $-1 #
coedge $-1 $244 $87 $239 $245 reversed $55 $-1 #
coedge $-1 $87 $244 $240 $246 forward $55 $-1 #
coedge $-1 $242 $247 $87 $143 forward $237 $-1 #
edge $-1 $248 -17.845298125873672 $249 -1.7954764070321225 $142 $250 forward 7 unknown #
loop $-1 $-1 $149 $88 #
plane-surface $-1 -63.966795861690116 19.640774532905802 0.012461368238334103 -0.85716730853699208 0 0.51503806187062418 0.51503806187062418 0 0.85716730853699208 forward_v I I I I #
loop $-1 $-1 $251 $57 #
coedge $-1 $147 $147 $148 $252 reversed $89 $-1 #
coedge $-1 $148 $148 $147 $252 forward $91 $-1 #
coedge $-1 $149 $149 $92 $150 forward $144 $-1 #
edge $-1 $253 0 $253 6.2831853071796004 $149 $254 forward 7 unknown #
face $-1 $255 $256 $32 $-1 $257 forward single #
loop $-1 $-1 $258 $93 #
plane-surface $-1 98.48899614938847 -18.051139625417363 185.01822095815831 0 -1 0 -0.82903758062907751 0 -0.55919289150049634 forward_v I I I I #
coedge $-1 $259 $260 $261 $262 reversed $94 $-1 #
coedge $-1 $156 $96 $263 $264 reversed $61 $-1 #
coedge $-1 $96 $155 $259 $265 reversed $61 $-1 #
coedge $-1 $261 $266 $96 $158 forward $267 $-1 #
edge $-1 $268 81.656770997050089 $269 85.092199960301102 $157 $270 forward 7 unknown #
loop $-1 $-1 $164 $97 #
plane-surface $-1 -7.5727592141508353 -22.858412508871972 113.47866588231736 0.82903758062907751 0 0.55919289150049634 0.55919289150049634 0 -0.82903758062907751 forward_v I I I I #
loop $-1 $-1 $271 $63 #
coedge $-1 $162 $162 $163 $272 reversed $98 $-1 #
coedge $-1 $163 $163 $162 $272 forward $100 $-1 #
coedge $-1 $164 $164 $101 $165 forward $159 $-1 #
edge $-1 $273 0 $273 6.2831853071796004 $164 $274 forward 7 unknown #
loop $-1 $-1 $171 $102 #
plane-surface $-1 -7.5727592141508353 -22.858412508871972 113.47866588231736 0.82903758062907751 0 0.55919289150049634 0.55919289150049634 0 -0.82903758062907751 forward_v I I I I #
loop $-1 $-1 $275 $66 #
coedge $-1 $169 $169 $170 $276 reversed $103 $-1 #
coedge $-1 $170 $170 $169 $276 forward $105 $-1 #
coedge $-1 $171 $171 $106 $172 forward $166 $-1 #
edge $-1 $277 0 $277 6.2831853071796004 $171 $278 forward 7 unknown #
loop $-1 $-1 $178 $107 #
plane-surface $-1 -7.5727592141508353 -22.858412508871972 113.47866588231736 0.82903758062907751 0 0.55919289150049634 0.55919289150049634 0 -0.82903758062907751 forward_v I I I I #
loop $-1 $-1 $279 $69 #
coedge $-1 $176 $176 $177 $280 reversed $108 $-1 #
coedge $-1 $177 $177 $176 $280 forward $110 $-1 #
coedge $-1 $178 $178 $111 $179 forward $173 $-1 #
edge $-1 $281 0 $281 6.2831853071796004 $178 $282 forward 7 unknown #
face $-1 $283 $284 $27 $-1 $285 reversed single #
loop $-1 $-1 $286 $112 #
plane-surface $-1 -63.966795861690116 0 0 1 0 0 0 0 -1 forward_v I I I I #
coedge $-1 $287 $191 $288 $289 forward $113 $-1 #
coedge $-1 $290 $115 $287 $291 forward $73 $-1 #
coedge $-1 $115 $290 $292 $293 forward $73 $-1 #
coedge $-1 $194 $193 $115 $187 reversed $195 $-1 #
edge $-1 $294 -39.572073291822505 $295 39.572073291822505 $186 $296 forward 7 unknown #
coedge $-1 $117 $116 $297 $298 forward $46 $-1 #
coedge $-1 $299 $300 $116 $190 reversed $284 $-1 #
edge $-1 $197 -63.966795861690116 $301 63.966795861690116 $189 $302 forward 7 unknown #
coedge $-1 $183 $303 $117 $192 reversed $113 $-1 #
edge $-1 $304 -63.966795861690116 $196 63.966795861690116 $191 $305 forward 7 unknown #
coedge $-1 $186 $118 $303 $306 forward $195 $-1 #
coedge $-1 $118 $186 $299 $307 reversed $195 $-1 #
loop $-1 $-1 $193 $283 #
vertex $-1 $119 $308 #
vertex $-1 $119 $309 #
straight-curve $-1 63.966795861690116 0 10.852339482029061 0 1 0 I I #
face $-1 $310 $311 $28 $-1 $312 reversed single #
loop $-1 $-1 $313 $120 #
plane-surface $-1 -63.966795861690116 0 0 1 0 0 0 0 -1 forward_v I I I I #
coedge $-1 $314 $208 $213 $315 reversed $121 $-1 #
coedge $-1 $316 $123 $317 $318 reversed $77 $-1 #
coedge $-1 $123 $316 $314 $319 forward $77 $-1 #
coedge $-1 $213 $212 $123 $206 forward $214 $-1 #
edge $-1 $320 -22.762633620785234 $321 -10.856245721289309 $205 $322 forward 7 unknown #
coedge $-1 $125 $124 $313 $323 reversed $49 $-1 #
coedge $-1 $202 $324 $124 $209 reversed $121 $-1 #
edge $-1 $215 -63.966795861690116 $325 63.966795861690116 $208 $326 forward 7 unknown #
coedge $-1 $327 $328 $125 $211 forward $311 $-1 #
edge $-1 $216 -63.966795861690116 $329 63.966795861690116 $210 $330 forward 7 unknown #
coedge $-1 $205 $126 $328 $331 forward $214 $-1 #
coedge $-1 $126 $205 $202 $315 forward $214 $-1 #
loop $-1 $-1 $126 $310 #
vertex $-1 $127 $332 #
vertex $-1 $331 $333 #
straight-curve $-1 63.966795861690116 -16.809439671037271 2.0030970253286169 0 -1 0 I I #
face $-1 $334 $335 $29 $-1 $336 reversed single #
loop $-1 $-1 $134 $128 #
plane-surface $-1 63.966795861690116 0 0 -1 0 0 0 0 1 forward_v I I I I #
coedge $-1 $337 $229 $338 $339 reversed $129 $-1 #
coedge $-1 $340 $131 $337 $341 forward $81 $-1 #
coedge $-1 $131 $340 $342 $343 reversed $81 $-1 #
coedge $-1 $232 $231 $131 $225 forward $219 $-1 #
edge $-1 $344 10.856245721289305 $345 22.76263362078523 $224 $346 forward 7 unknown #
coedge $-1 $133 $132 $347 $348 reversed $52 $-1 #
coedge $-1 $349 $350 $132 $228 forward $351 $-1 #
edge $-1 $352 -63.966795861690116 $233 63.966795861690116 $227 $353 forward 7 unknown #
coedge $-1 $221 $354 $133 $230 reversed $129 $-1 #
edge $-1 $355 -63.966795861690116 $234 63.966795861690116 $229 $356 forward 7 unknown #
coedge $-1 $224 $134 $354 $357 forward $219 $-1 #
coedge $-1 $134 $224 $349 $358 reversed $219 $-1 #
vertex $-1 $358 $359 #
vertex $-1 $135 $360 #
straight-curve $-1 63.966795861690116 16.809439671037268 2.0030970253286169 0 -1 0 I I #
face $-1 $-1 $361 $30 $-1 $362 forward single #
loop $-1 $-1 $247 $136 #
plane-surface $-1 -63.966795861690116 0 0 1 0 0 0 0 -1 forward_v I I I I #
coedge $-1 $363 $364 $140 $245 forward $137 $-1 #
coedge $-1 $241 $139 $141 $246 reversed $85 $-1 #
coedge $-1 $139 $240 $365 $366 reversed $85 $-1 #
coedge $-1 $367 $142 $139 $243 forward $237 $-1 #
edge $-1 $249 -32.939103880559571 $368 -22.099225766768846 $242 $369 forward 7 unknown #
coedge $-1 $141 $140 $370 $371 reversed $55 $-1 #
edge $-1 $372 4.0106247244134785 $248 16.65678843811386 $239 $373 forward 7 unknown #
edge $-1 $374 -12.646163713700384 $249 0 $240 $375 forward 7 unknown #
coedge $-1 $142 $367 $363 $376 forward $237 $-1 #
vertex $-1 $245 $377 #
vertex $-1 $143 $378 #
straight-curve $-1 -63.966795861690116 9.8203872664529008 0.012461368238338051 0 -1 0 I I #
coedge $-1 $251 $251 $-1 $379 reversed $146 $-1 #
edge $-1 $380 0 $380 6.2831853071796004 $147 $381 forward 7 unknown #
vertex $-1 $150 $382 #
ellipse-curve $-1 -60.710168037088685 19.640774532905802 5.4324004251336975 -0.85716730853699208 0 0.51503806187062418 1.5451141856118724 0 2.5715019256109763 1 I I #
face $-1 $-1 $267 $32 $-1 $383 reversed single #
loop $-1 $-1 $384 $151 #
plane-surface $-1 0 0 10.852339482029061 0 0 1 1 0 0 forward_v I I I I #
coedge $-1 $385 $386 $387 $388 reversed $152 $-1 #
coedge $-1 $389 $154 $156 $265 forward $94 $-1 #
coedge $-1 $154 $389 $385 $390 forward $94 $-1 #
coedge $-1 $387 $157 $154 $262 forward $267 $-1 #
edge $-1 $269 -16.236479137890594 $391 -6.6219333709813775 $261 $392 forward 7 unknown #
coedge $-1 $393 $394 $155 $264 forward $256 $-1 #
edge $-1 $395 12.405071764446731 $268 14.722297786995881 $263 $396 forward 7 unknown #
edge $-1 $269 -127.93359172338022 $395 -123.78971568745408 $156 $397 forward 7 unknown #
coedge $-1 $157 $387 $393 $398 reversed $267 $-1 #
loop $-1 $-1 $387 $255 #
vertex $-1 $398 $399 #
vertex $-1 $158 $400 #
straight-curve $-1 63.966795861690116 -27.66568539232658 92.509110479079155 0 0 -1 I I #
coedge $-1 $271 $271 $-1 $401 reversed $161 $-1 #
edge $-1 $402 0 $402 6.2831853071796004 $162 $403 forward 7 unknown #
vertex $-1 $165 $404 #
ellipse-curve $-1 62.808182850415548 -25.742776238944735 9.1346250004035312 0.82903758062907751 0 0.55919289150049634 0.27959644575024817 0 -0.41451879031453875 1 I I #
coedge $-1 $275 $275 $-1 $405 reversed $168 $-1 #
edge $-1 $406 0 $406 6.2831853071796004 $169 $407 forward 7 unknown #
vertex $-1 $172 $408 #
ellipse-curve $-1 62.808182850415548 -22.858412508871972 9.1346250004035312 0.82903758062907751 0 0.55919289150049634 0.27959644575024817 0 -0.41451879031453875 1 I I #
coedge $-1 $279 $279 $-1 $409 reversed $175 $-1 #
edge $-1 $410 0 $410 6.2831853071796004 $176 $411 forward 7 unknown #
vertex $-1 $179 $412 #
ellipse-curve $-1 62.808182850415548 -19.974048778799208 9.1346250004035312 0.82903758062907751 0 0.55919289150049634 0.27959644575024817 0 -0.41451879031453875 1 I I #
face $-1 $-1 $195 $27 $-1 $413 reversed single #
loop $-1 $-1 $299 $180 #
plane-surface $-1 0 39.572073291822505 0 0 -1 0 0 0 -1 forward_v I I I I #
coedge $-1 $414 $297 $300 $415 forward $181 $-1 #
coedge $-1 $303 $183 $184 $291 reversed $113 $-1 #
coedge $-1 $297 $414 $183 $289 reversed $181 $-1 #
edge $-1 $304 -10.852339482029061 $416 10.852339482029061 $288 $417 forward 7 unknown #
coedge $-1 $185 $184 $414 $418 forward $73 $-1 #
edge $-1 $295 -63.966795861690116 $416 63.966795861690116 $287 $419 forward 7 unknown #
coedge $-1 $300 $299 $185 $293 reversed $284 $-1 #
edge $-1 $420 -63.966795861690116 $294 63.966795861690116 $292 $421 forward 7 unknown #
vertex $-1 $187 $422 #
vertex $-1 $306 $423 #
straight-curve $-1 63.966795861690116 0 -10.852339482029061 0 -1 0 I I #
coedge $-1 $286 $288 $188 $298 reversed $181 $-1 #
edge $-1 $301 -39.572073291822505 $304 39.572073291822505 $297 $424 forward 7 unknown #
coedge $-1 $292 $189 $194 $307 forward $284 $-1 #
coedge $-1 $189 $292 $286 $415 reversed $284 $-1 #
vertex $-1 $190 $425 #
straight-curve $-1 0 39.572073291822505 10.852339482029061 -1 0 0 I I #
coedge $-1 $191 $287 $193 $306 reversed $113 $-1 #
vertex $-1 $298 $426 #
straight-curve $-1 0 -39.572073291822505 10.852339482029061 1 0 0 I I #
edge $-1 $196 -10.852339482029061 $295 10.852339482029061 $193 $427 forward 7 unknown #
edge $-1 $197 -10.852339482029061 $294 10.852339482029061 $194 $428 forward 7 unknown #
point $-1 63.966795861690116 -39.572073291822505 10.852339482029061 #
point $-1 63.966795861690116 39.572073291822505 10.852339482029061 #
face $-1 $-1 $214 $28 $-1 $429 reversed single #
loop $-1 $-1 $210 $199 #
plane-surface $-1 0 -39.572073291822505 0 0 1 0 0 0 1 forward_v I I I I #
coedge $-1 $430 $431 $207 $323 forward $200 $-1 #
coedge $-1 $324 $202 $204 $319 reversed $121 $-1 #
edge $-1 $321 -1.3399993104800547 $215 1.7820644537124295 $213 $432 forward 7 unknown #
coedge $-1 $204 $203 $433 $434 reversed $77 $-1 #
coedge $-1 $328 $327 $203 $318 forward $311 $-1 #
edge $-1 $435 -63.966795861690116 $320 63.966795861690116 $317 $436 forward 7 unknown #
edge $-1 $437 -63.966795861690116 $321 63.966795861690116 $314 $438 forward 7 unknown #
vertex $-1 $318 $439 #
vertex $-1 $206 $440 #
straight-curve $-1 63.966795861690116 -16.809439671037271 -1.1189667388638673 0 1 0 I I #
edge $-1 $329 -22.762633620785234 $325 -10.856245721289309 $313 $441 forward 7 unknown #
coedge $-1 $208 $314 $430 $442 reversed $121 $-1 #
vertex $-1 $323 $443 #
straight-curve $-1 0 -27.66568539232658 2.0030970253286169 -1 0 0 I I #
coedge $-1 $317 $210 $431 $444 forward $311 $-1 #
coedge $-1 $210 $317 $212 $331 reversed $311 $-1 #
vertex $-1 $444 $445 #
straight-curve $-1 0 -39.572073291822505 2.0030970253286169 -1 0 0 I I #
edge $-1 $216 -2.0030970253286169 $320 1.1189667388638673 $212 $446 forward 7 unknown #
point $-1 63.966795861690116 -27.66568539232658 2.0030970253286169 #
point $-1 63.966795861690116 -39.572073291822505 2.0030970253286169 #
face $-1 $-1 $351 $29 $-1 $447 reversed single #
loop $-1 $-1 $347 $218 #
plane-surface $-1 -63.966795861690116 0 0 1 0 0 0 0 -1 forward_v I I I I #
coedge $-1 $354 $221 $222 $341 reversed $129 $-1 #
coedge $-1 $347 $448 $221 $339 forward $335 $-1 #
edge $-1 $449 -1.3399993104800547 $355 1.7820644537124295 $338 $450 forward 7 unknown #
coedge $-1 $223 $222 $448 $451 reversed $81 $-1 #
edge $-1 $344 -63.966795861690116 $449 63.966795861690116 $337 $452 forward 7 unknown #
coedge $-1 $350 $349 $223 $343 forward $351 $-1 #
edge $-1 $345 -63.966795861690116 $453 63.966795861690116 $342 $454 forward 7 unknown #
vertex $-1 $225 $455 #
vertex $-1 $343 $456 #
straight-curve $-1 63.966795861690116 16.809439671037268 -1.1189667388638673 0 1 0 I I #
coedge $-1 $457 $338 $226 $348 forward $335 $-1 #
edge $-1 $355 10.856245721289305 $352 22.76263362078523 $347 $458 forward 7 unknown #
coedge $-1 $342 $227 $232 $358 forward $351 $-1 #
coedge $-1 $227 $342 $457 $459 reversed $351 $-1 #
loop $-1 $-1 $227 $334 #
vertex $-1 $459 $460 #
straight-curve $-1 0 39.572073291822505 2.0030970253286169 1 0 0 I I #
coedge $-1 $229 $337 $231 $357 reversed $129 $-1 #
vertex $-1 $348 $461 #
straight-curve $-1 0 27.665685392326573 2.0030970253286169 1 0 0 I I #
edge $-1 $234 -1.7820644537124295 $344 1.3399993104800547 $231 $462 forward 7 unknown #
edge $-1 $233 -2.0030970253286169 $345 1.1189667388638673 $232 $463 forward 7 unknown #
point $-1 63.966795861690116 39.572073291822498 2.0030970253286169 #
point $-1 63.966795861690116 27.665685392326573 2.0030970253286169 #
loop $-1 $-1 $464 $236 #
plane-surface $-1 0 0 10.852339482029061 0 0 1 1 0 0 forward_v I I I I #
coedge $-1 $364 $239 $247 $376 reversed $137 $-1 #
coedge $-1 $239 $363 $464 $465 reversed $137 $-1 #
coedge $-1 $370 $466 $241 $366 forward $361 $-1 #
edge $-1 $368 22.846848313655059 $374 29.36010396285792 $365 $467 forward 7 unknown #
coedge $-1 $247 $242 $466 $468 reversed $237 $-1 #
vertex $-1 $366 $469 #
straight-curve $-1 -63.966795861690116 11.615863673485023 32.951565248797905 0 0 1 I I #
coedge $-1 $464 $365 $244 $371 forward $361 $-1 #
edge $-1 $374 1.7954764070321225 $372 17.845298125873679 $370 $470 forward 7 unknown #
vertex $-1 $465 $471 #
straight-curve $-1 -55.387915827534925 27.665685392326573 14.290115882606475 -0.51503806187062429 0 -0.85716730853699219 I I #
vertex $-1 $371 $472 #
straight-curve $-1 -63.966795861690116 11.615863673485023 0.012461368238334103 -0.51503806187062418 0 -0.85716730853699208 I I #
edge $-1 $473 22.099225766768846 $248 32.939103880559571 $247 $474 forward 7 unknown #
point $-1 -63.966795861690116 27.665685392326573 0.012461368238334103 #
point $-1 -63.966795861690116 11.615863673485023 0.012461368238334103 #
edge $-1 $475 1 $475 0 $251 $-1 forward 7 unknown #
vertex $-1 $252 $476 #
ellipse-curve $-1 -54.067755763041227 19.640774532905802 1.4412366118401732 -0.85716730853699208 0 0.51503806187062418 1.5451141856118724 0 2.5715019256109763 1 I I #
point $-1 -59.165053851476813 19.640774532905802 8.0039023507446725 #
plane-surface $-1 63.966795861690116 0 0 -1 0 0 0 0 1 forward_v I I I I #
coedge $-1 $394 $393 $386 $477 forward $256 $-1 #
coedge $-1 $386 $258 $260 $390 reversed $152 $-1 #
coedge $-1 $258 $385 $384 $477 reversed $152 $-1 #
coedge $-1 $266 $261 $258 $388 forward $267 $-1 #
edge $-1 $391 -85.092199960301102 $478 -81.656770997050089 $387 $479 forward 7 unknown #
coedge $-1 $260 $259 $394 $480 reversed $94 $-1 #
edge $-1 $481 123.78971568745408 $391 127.93359172338022 $385 $482 forward 7 unknown #
vertex $-1 $262 $483 #
straight-curve $-1 63.966795861690116 -11.429206254435986 7.416910518778046 0 1 0 I I #
coedge $-1 $384 $263 $266 $398 forward $256 $-1 #
coedge $-1 $263 $384 $389 $480 forward $256 $-1 #
vertex $-1 $264 $484 #
straight-curve $-1 49.244498074694235 -27.66568539232658 10.852339482029066 1 0 0 I I #
straight-curve $-1 -7.5727592141508353 -27.66568539232658 113.47866588231736 -0.55919289150049634 0 0.82903758062907751 I I #
edge $-1 $268 -27.66568539232658 $478 -18.051139625417363 $266 $485 forward 7 unknown #
point $-1 63.966795861690116 -27.66568539232658 10.852339482029061 #
point $-1 63.966795861690116 -27.66568539232658 7.4169105187780531 #
edge $-1 $486 1 $486 0 $271 $-1 forward 7 unknown #
vertex $-1 $272 $487 #
ellipse-curve $-1 61.597252107702211 -25.742776238944735 8.317841926576051 0.82903758062907751 0 0.55919289150049634 0.27959644575024817 0 -0.41451879031453875 1 I I #
point $-1 63.087779296165806 -25.742776238944735 8.7201062100889999 #
edge $-1 $488 1 $488 0 $275 $-1 forward 7 unknown #
vertex $-1 $276 $489 #
ellipse-curve $-1 61.597252107702211 -22.858412508871972 8.317841926576051 0.82903758062907751 0 0.55919289150049634 0.27959644575024817 0 -0.41451879031453875 1 I I #
point $-1 63.087779296165806 -22.858412508871972 8.7201062100889999 #
edge $-1 $490 1 $490 0 $279 $-1 forward 7 unknown #
vertex $-1 $280 $491 #
ellipse-curve $-1 61.597252107702211 -19.974048778799208 8.317841926576051 0.82903758062907751 0 0.55919289150049634 0.27959644575024817 0 -0.41451879031453875 1 I I #
point $-1 63.087779296165806 -19.974048778799208 8.7201062100889999 #
plane-surface $-1 63.966795861690116 0 0 -1 0 0 0 0 1 forward_v I I I I #
coedge $-1 $288 $286 $290 $418 reversed $181 $-1 #
edge $-1 $301 -10.852339482029061 $420 10.852339482029061 $300 $492 forward 7 unknown #
vertex $-1 $418 $493 #
straight-curve $-1 -63.966795861690116 -39.572073291822505 0 0 0 -1 I I #
edge $-1 $416 -39.572073291822505 $420 39.572073291822505 $414 $494 forward 7 unknown #
straight-curve $-1 0 -39.572073291822505 -10.852339482029061 -1 0 0 I I #
vertex $-1 $293 $495 #
straight-curve $-1 0 39.572073291822505 -10.852339482029061 1 0 0 I I #
point $-1 63.966795861690116 39.572073291822505 -10.852339482029061 #
point $-1 63.966795861690116 -39.572073291822505 -10.852339482029061 #
straight-curve $-1 -63.966795861690116 0 10.852339482029061 0 -1 0 I I #
point $-1 -63.966795861690116 39.572073291822505 10.852339482029061 #
point $-1 -63.966795861690116 -39.572073291822505 10.852339482029061 #
straight-curve $-1 63.966795861690116 -39.572073291822505 0 0 0 -1 I I #
straight-curve $-1 63.966795861690116 39.572073291822505 0 0 0 -1 I I #
plane-surface $-1 63.966795861690116 0 0 -1 0 0 0 0 1 forward_v I I I I #
coedge $-1 $433 $313 $324 $442 forward $200 $-1 #
coedge $-1 $313 $433 $327 $444 reversed $200 $-1 #
straight-curve $-1 63.966795861690116 -27.66568539232658 0.22103257161618739 0 0 1 I I #
coedge $-1 $431 $430 $316 $434 forward $200 $-1 #
edge $-1 $437 10.856245721289309 $435 22.762633620785234 $433 $496 forward 7 unknown #
vertex $-1 $318 $497 #
straight-curve $-1 0 -39.572073291822505 -1.1189667388638673 1 0 0 I I #
vertex $-1 $434 $498 #
straight-curve $-1 0 -27.66568539232658 -1.1189667388638673 1 0 0 I I #
point $-1 63.966795861690116 -39.572073291822505 -1.1189667388638673 #
point $-1 63.966795861690116 -27.66568539232658 -1.1189667388638673 #
straight-curve $-1 -63.966795861690116 -16.809439671037271 2.0030970253286169 0 1 0 I I #
edge $-1 $325 -1.7820644537124295 $437 1.3399993104800547 $430 $499 forward 7 unknown #
point $-1 -63.966795861690116 -27.66568539232658 2.0030970253286169 #
edge $-1 $329 -2.0030970253286169 $435 1.1189667388638673 $431 $500 forward 7 unknown #
point $-1 -63.966795861690116 -39.572073291822505 2.0030970253286169 #
straight-curve $-1 63.966795861690116 -39.572073291822505 0 0 0 -1 I I #
plane-surface $-1 0 39.572073291822505 0 0 -1 0 0 0 -1 forward_v I I I I #
coedge $-1 $338 $457 $340 $451 forward $335 $-1 #
vertex $-1 $451 $501 #
straight-curve $-1 -63.966795861690116 27.665685392326573 0.22103257161618739 0 0 1 I I #
edge $-1 $453 -22.76263362078523 $449 -10.856245721289305 $448 $502 forward 7 unknown #
straight-curve $-1 0 27.665685392326573 -1.1189667388638673 -1 0 0 I I #
vertex $-1 $343 $503 #
straight-curve $-1 0 39.572073291822505 -1.1189667388638673 -1 0 0 I I #
point $-1 63.966795861690116 27.665685392326573 -1.1189667388638673 #
point $-1 63.966795861690116 39.572073291822498 -1.1189667388638673 #
coedge $-1 $448 $347 $350 $459 forward $335 $-1 #
straight-curve $-1 -63.966795861690116 16.809439671037268 2.0030970253286169 0 1 0 I I #
edge $-1 $352 -2.0030970253286169 $453 1.1189667388638673 $350 $504 forward 7 unknown #
point $-1 -63.966795861690116 39.572073291822498 2.0030970253286169 #
point $-1 -63.966795861690116 27.665685392326573 2.0030970253286169 #
straight-curve $-1 63.966795861690116 27.665685392326573 0.22103257161618739 0 0 -1 I I #
straight-curve $-1 63.966795861690116 39.572073291822505 0 0 0 -1 I I #
coedge $-1 $466 $370 $364 $465 forward $361 $-1 #
edge $-1 $372 -29.36010396285792 $473 -22.846848313655059 $464 $505 forward 7 unknown #
coedge $-1 $365 $464 $367 $468 forward $361 $-1 #
straight-curve $-1 -86.813644175345175 11.615863673485023 10.852339482029059 1 0 0 I I #
edge $-1 $473 -27.66568539232658 $368 -11.615863673485023 $367 $506 forward 7 unknown #
point $-1 -63.966795861690116 11.615863673485023 10.852339482029061 #
straight-curve $-1 -57.453540212487255 9.8203872664529008 10.852339482029059 0 1 0 I I #
point $-1 -57.453540212487255 27.66568539232658 10.852339482029061 #
point $-1 -57.453540212487255 11.615863673485023 10.852339482029061 #
vertex $-1 $468 $507 #
straight-curve $-1 -63.966795861690116 27.66568539232658 32.951565248797905 0 0 -1 I I #
vertex $-1 $379 $508 #
point $-1 -52.522641577429354 19.640774532905802 4.0127385374511491 #
edge $-1 $478 -14.722297786995881 $481 -12.405071764446731 $384 $509 forward 7 unknown #
vertex $-1 $388 $510 #
straight-curve $-1 63.966795861690116 -18.051139625417363 92.509110479079155 0 0 1 I I #
edge $-1 $481 6.6219333709813775 $395 16.236479137890594 $394 $511 forward 7 unknown #
vertex $-1 $480 $512 #
straight-curve $-1 -7.5727592141508353 -18.051139625417363 113.47866588231736 0.55919289150049634 0 -0.82903758062907751 I I #
point $-1 63.966795861690116 -18.051139625417363 7.4169105187780531 #
point $-1 61.649569839140966 -27.66568539232658 10.852339482029066 #
straight-curve $-1 63.966795861690116 0 10.852339482029061 0 1 0 I I #
vertex $-1 $401 $513 #
point $-1 61.876848553452454 -25.742776238944735 7.9033231362615126 #
vertex $-1 $405 $514 #
point $-1 61.876848553452454 -22.858412508871972 7.9033231362615126 #
vertex $-1 $409 $515 #
point $-1 61.876848553452454 -19.974048778799208 7.9033231362615126 #
straight-curve $-1 -63.966795861690116 39.572073291822505 0 0 0 -1 I I #
point $-1 -63.966795861690116 -39.572073291822505 -10.852339482029061 #
straight-curve $-1 -63.966795861690116 0 -10.852339482029061 0 1 0 I I #
point $-1 -63.966795861690116 39.572073291822505 -10.852339482029061 #
straight-curve $-1 -63.966795861690116 -16.809439671037271 -1.1189667388638673 0 -1 0 I I #
point $-1 -63.966795861690116 -39.572073291822505 -1.1189667388638673 #
point $-1 -63.966795861690116 -27.66568539232658 -1.1189667388638673 #
straight-curve $-1 -63.966795861690116 -27.66568539232658 0.22103257161618739 0 0 -1 I I #
straight-curve $-1 -63.966795861690116 -39.572073291822505 0 0 0 -1 I I #
point $-1 -63.966795861690116 27.665685392326573 -1.1189667388638673 #
straight-curve $-1 -63.966795861690116 16.809439671037268 -1.1189667388638673 0 -1 0 I I #
point $-1 -63.966795861690116 39.572073291822498 -1.1189667388638673 #
straight-curve $-1 -63.966795861690116 39.572073291822505 0 0 0 -1 I I #
straight-curve $-1 -86.813644175345175 27.66568539232658 10.852339482029059 -1 0 0 I I #
straight-curve $-1 -63.966795861690116 0 10.852339482029061 0 -1 0 I I #
point $-1 -63.966795861690116 27.66568539232658 10.852339482029061 #
point $-1 -51.496253837430253 19.640774532905802 -0.10387757377169926 #
straight-curve $-1 49.244498074694235 -18.051139625417363 10.852339482029066 -1 0 0 I I #
point $-1 63.966795861690116 -18.051139625417363 10.852339482029061 #
straight-curve $-1 61.649569839140966 -11.429206254435986 10.852339482029066 0 -1 0 I I #
point $-1 61.649569839140966 -18.051139625417363 10.852339482029066 #
point $-1 61.182733317387665 -25.742776238944735 8.0382454808258039 #
point $-1 61.182733317387665 -22.858412508871972 8.0382454808258039 #
point $-1 61.182733317387665 -19.974048778799208 8.0382454808258039 #
End-of-ACIS-data 