500 0 11 0           
7 Unknown 11 ACIS 5.0 NT 24 Thu Mar 25 19:04:13 1999 
-1 9.9999999999999995e-007 1e-010 
body $-1 $11 $-1 $12 #
body $-1 $13 $-1 $14 #
body $-1 $15 $-1 $16 #
body $-1 $17 $-1 $18 #
body $-1 $19 $-1 $20 #
body $-1 $21 $-1 $22 #
body $-1 $23 $-1 $24 #
body $-1 $25 $-1 $26 #
body $-1 $27 $-1 $28 #
body $-1 $29 $-1 $30 #
body $-1 $31 $-1 $32 #
lump $-1 $-1 $33 $0 #
transform $-1 1 0 0 0 1 0 0 0 1 74.949797051911986 32.491435809289818 8.6868258738146142 1 rotate no_reflect no_shear #
lump $-1 $-1 $34 $1 #
transform $-1 1 0 0 0 1 0 0 0 1 74.949797051911986 32.491435809289818 8.6868258738146142 1 rotate no_reflect no_shear #
lump $-1 $-1 $35 $2 #
transform $-1 1 0 0 0 1 0 0 0 1 74.949797051911986 32.491435809289818 8.6868258738146142 1 rotate no_reflect no_shear #
lump $-1 $-1 $36 $3 #
transform $-1 1 0 0 0 1 0 0 0 1 74.949797051911986 32.491435809289818 8.6868258738146142 1 rotate no_reflect no_shear #
lump $-1 $-1 $37 $4 #
transform $-1 1 0 0 0 1 0 0 0 1 74.949797051911986 32.491435809289818 8.6868258738146142 1 rotate no_reflect no_shear #
lump $-1 $-1 $38 $5 #
transform $-1 1 0 0 0 1 0 0 0 1 74.949797051911986 32.491435809289818 8.6868258738146142 1 rotate no_reflect no_shear #
lump $-1 $-1 $39 $6 #
transform $-1 1 0 0 0 1 0 0 0 1 74.949797051911986 32.491435809289818 8.6868258738146142 1 rotate no_reflect no_shear #
lump $-1 $-1 $40 $7 #
transform $-1 1 0 0 0 1 0 0 0 1 74.949797051911986 32.491435809289818 8.6868258738146142 1 rotate no_reflect no_shear #
lump $-1 $-1 $41 $8 #
transform $-1 1 0 0 0 1 0 0 0 1 74.949797051911986 32.491435809289818 8.6868258738146142 1 rotate no_reflect no_shear #
lump $-1 $-1 $42 $9 #
transform $-1 1 0 0 0 1 0 0 0 1 74.949797051911986 32.491435809289818 8.6868258738146142 1 rotate no_reflect no_shear #
lump $-1 $-1 $43 $10 #
transform $-1 1 0 0 0 1 0 0 0 1 74.949797051911986 32.491435809289818 8.6868258738146142 1 rotate no_reflect no_shear #
shell $-1 $-1 $-1 $44 $-1 $11 #
shell $-1 $-1 $-1 $45 $-1 $13 #
shell $-1 $-1 $-1 $46 $-1 $15 #
shell $-1 $-1 $-1 $47 $-1 $17 #
shell $-1 $-1 $-1 $48 $-1 $19 #
shell $-1 $-1 $-1 $49 $-1 $21 #
shell $-1 $-1 $-1 $50 $-1 $23 #
shell $-1 $-1 $-1 $51 $-1 $25 #
shell $-1 $-1 $-1 $52 $-1 $27 #
shell $-1 $-1 $-1 $53 $-1 $29 #
shell $-1 $-1 $-1 $54 $-1 $31 #
face $-1 $55 $56 $33 $-1 $57 forward single #
face $-1 $58 $59 $34 $-1 $60 forward single #
face $-1 $61 $62 $35 $-1 $63 forward single #
face $-1 $64 $65 $36 $-1 $66 reversed single #
face $-1 $67 $68 $37 $-1 $69 forward single #
face $-1 $70 $71 $38 $-1 $72 forward single #
face $-1 $73 $74 $39 $-1 $75 forward single #
face $-1 $76 $77 $40 $-1 $78 reversed single #
face $-1 $79 $80 $41 $-1 $81 forward single #
face $-1 $82 $83 $42 $-1 $84 forward single #
face $-1 $85 $86 $43 $-1 $87 forward single #
face $-1 $88 $89 $33 $-1 $90 reversed single #
loop $-1 $-1 $91 $44 #
plane-surface $-1 0 0 8.6868258738146142 0 0 1 1 0 0 forward_v I I I I #
face $-1 $92 $93 $34 $-1 $94 reversed single #
loop $-1 $-1 $95 $45 #
plane-surface $-1 -74.949797051911986 0 0 1 0 0 0 0 -1 forward_v I I I I #
face $-1 $96 $97 $35 $-1 $98 reversed single #
loop $-1 $-1 $99 $46 #
plane-surface $-1 74.949797051911986 0 0 -1 0 0 0 0 1 forward_v I I I I #
face $-1 $100 $101 $36 $-1 $102 reversed single #
loop $-1 $-1 $103 $47 #
plane-surface $-1 -63.61762318979472 62.440984328940566 160.78547144689389 1 0 0 0 -0.55919291073839883 -0.82903756765294845 forward_v I I I I #
face $-1 $104 $105 $37 $-1 $106 forward single #
loop $-1 $107 $108 $48 #
cone-surface $-1 -57.347319098323268 24.330102408593167 1.6856107353769065 0 -0.55919291073839883 -0.82903756765294845 2 0 0 1 I I 0 1 2 forward I I I I #
face $-1 $109 $110 $38 $-1 $111 forward single #
loop $-1 $112 $113 $49 #
cone-surface $-1 -47.941862961116094 24.330102408593167 1.6856107353769065 0 -0.55919291073839883 -0.82903756765294845 2 0 0 1 I I 0 1 2 forward I I I I #
face $-1 $114 $115 $39 $-1 $116 forward single #
loop $-1 $117 $118 $50 #
cone-surface $-1 -38.536406823908919 24.330102408593167 1.6856107353769065 0 -0.55919291073839883 -0.82903756765294845 2 0 0 1 I I 0 1 2 forward I I I I #
face $-1 $119 $120 $40 $-1 $121 reversed single #
loop $-1 $-1 $122 $51 #
plane-surface $-1 -32.266102732437467 -116.31422615471166 124.44751031836067 -1 0 0 0 -0.55919291073839883 0.82903756765294845 forward_v I I I I #
face $-1 $123 $124 $41 $-1 $125 forward single #
loop $-1 $126 $127 $52 #
cone-surface $-1 -57.347319098323268 -24.330102408593167 1.6856107353769056 0 0.55919291073839883 -0.82903756765294845 2 0 0 1 I I 0 1 2 forward I I I I #
face $-1 $128 $129 $42 $-1 $130 forward single #
loop $-1 $131 $132 $53 #
cone-surface $-1 -47.941862961116094 -24.330102408593167 1.6856107353769056 0 0.55919291073839883 -0.82903756765294845 2 0 0 1 I I 0 1 2 forward I I I I #
face $-1 $133 $134 $43 $-1 $135 forward single #
loop $-1 $136 $137 $54 #
cone-surface $-1 -38.536406823908919 -24.330102408593167 1.6856107353769056 0 0.55919291073839883 -0.82903756765294845 2 0 0 1 I I 0 1 2 forward I I I I #
face $-1 $138 $139 $33 $-1 $140 reversed single #
loop $-1 $-1 $141 $55 #
plane-surface $-1 0 0 -8.6868258738146142 0 0 1 1 0 0 forward_v I I I I #
coedge $-1 $142 $143 $144 $145 forward $56 $-1 #
face $-1 $146 $147 $34 $-1 $148 reversed single #
loop $-1 $-1 $149 $58 #
plane-surface $-1 0 0 -8.6868258738146142 0 0 1 1 0 0 forward_v I I I I #
coedge $-1 $150 $151 $152 $153 forward $59 $-1 #
face $-1 $154 $155 $35 $-1 $156 reversed single #
loop $-1 $-1 $157 $61 #
plane-surface $-1 0 0 -8.6868258738146142 0 0 1 1 0 0 forward_v I I I I #
coedge $-1 $158 $159 $160 $161 forward $62 $-1 #
face $-1 $162 $163 $36 $-1 $164 reversed single #
loop $-1 $-1 $165 $64 #
plane-surface $-1 -47.941862961116094 -21.381806016481285 36.51307655889542 0 0.55919291073839883 0.82903756765294845 1 0 0 forward_v I I I I #
coedge $-1 $166 $167 $168 $169 reversed $65 $-1 #
face $-1 $-1 $170 $37 $-1 $171 forward single #
loop $-1 $172 $173 $67 #
cone-surface $-1 -57.347319098323268 21.919140817218697 -1.8887867489875543 0 -0.55919291073839883 -0.82903756765294845 1 0 0 1 I I -0.70710678118654746 0.70710678118654746 1 forward I I I I #
loop $-1 $-1 $174 $48 #
coedge $-1 $108 $108 $175 $176 reversed $68 $-1 #
face $-1 $-1 $177 $38 $-1 $178 forward single #
loop $-1 $179 $180 $70 #
cone-surface $-1 -47.941862961116094 21.919140817218697 -1.8887867489875543 0 -0.55919291073839883 -0.82903756765294845 1 0 0 1 I I -0.70710678118654746 0.70710678118654746 1 forward I I I I #
loop $-1 $-1 $181 $49 #
coedge $-1 $113 $113 $182 $183 reversed $71 $-1 #
face $-1 $-1 $184 $39 $-1 $185 forward single #
loop $-1 $186 $187 $73 #
cone-surface $-1 -38.536406823908919 21.919140817218697 -1.8887867489875543 0 -0.55919291073839883 -0.82903756765294845 1 0 0 1 I I -0.70710678118654746 0.70710678118654746 1 forward I I I I #
loop $-1 $-1 $188 $50 #
coedge $-1 $118 $118 $189 $190 reversed $74 $-1 #
face $-1 $191 $192 $40 $-1 $193 reversed single #
loop $-1 $-1 $194 $76 #
plane-surface $-1 -47.941862961116094 -32.491435809289811 0.17511543036219734 0 -0.55919291073839883 0.82903756765294845 1 0 0 forward_v I I I I #
coedge $-1 $195 $196 $197 $198 reversed $77 $-1 #
face $-1 $-1 $199 $41 $-1 $200 forward single #
loop $-1 $201 $202 $79 #
cone-surface $-1 -57.347319098323268 -21.919140817218697 -1.8887867489875552 0 0.55919291073839883 -0.82903756765294845 1 0 0 1 I I -0.70710678118654746 0.70710678118654746 1 forward I I I I #
loop $-1 $-1 $203 $52 #
coedge $-1 $127 $127 $204 $205 reversed $80 $-1 #
face $-1 $-1 $206 $42 $-1 $207 forward single #
loop $-1 $208 $209 $82 #
cone-surface $-1 -47.941862961116094 -21.919140817218697 -1.8887867489875552 0 0.55919291073839883 -0.82903756765294845 1 0 0 1 I I -0.70710678118654746 0.70710678118654746 1 forward I I I I #
loop $-1 $-1 $210 $53 #
coedge $-1 $132 $132 $211 $212 reversed $83 $-1 #
face $-1 $-1 $213 $43 $-1 $214 forward single #
loop $-1 $215 $216 $85 #
cone-surface $-1 -38.536406823908919 -21.919140817218697 -1.8887867489875552 0 0.55919291073839883 -0.82903756765294845 1 0 0 1 I I -0.70710678118654746 0.70710678118654746 1 forward I I I I #
loop $-1 $-1 $217 $54 #
coedge $-1 $137 $137 $218 $219 reversed $86 $-1 #
face $-1 $220 $221 $33 $-1 $222 reversed single #
loop $-1 $-1 $223 $88 #
plane-surface $-1 0 -32.491435809289818 0 0 1 0 0 0 1 forward_v I I I I #
coedge $-1 $224 $225 $226 $227 forward $89 $-1 #
coedge $-1 $228 $91 $229 $230 forward $56 $-1 #
coedge $-1 $91 $228 $231 $232 forward $56 $-1 #
coedge $-1 $233 $234 $91 $145 reversed $235 $-1 #
edge $-1 $236 -32.491435809289818 $237 32.491435809289818 $144 $238 forward 7 unknown #
face $-1 $239 $240 $34 $-1 $241 reversed single #
loop $-1 $-1 $242 $92 #
plane-surface $-1 -78.00944362389059 -19.401738253963035 0 0 1 0 0 0 1 forward_v I I I I #
coedge $-1 $243 $244 $151 $245 forward $93 $-1 #
coedge $-1 $246 $95 $247 $248 reversed $59 $-1 #
coedge $-1 $95 $246 $149 $245 reversed $59 $-1 #
coedge $-1 $249 $250 $95 $153 reversed $251 $-1 #
edge $-1 $252 -8.6868258738146142 $253 8.6868258738146142 $152 $254 forward 7 unknown #
face $-1 $255 $256 $35 $-1 $257 reversed single #
loop $-1 $-1 $160 $96 #
plane-surface $-1 78.009443623890576 -19.401738253963035 0 0 1 0 0 0 1 forward_v I I I I #
coedge $-1 $258 $259 $159 $260 forward $97 $-1 #
coedge $-1 $261 $99 $262 $263 reversed $62 $-1 #
coedge $-1 $99 $261 $157 $260 reversed $62 $-1 #
coedge $-1 $264 $265 $99 $161 reversed $155 $-1 #
edge $-1 $266 -8.6868258738146142 $267 8.6868258738146142 $160 $268 forward 7 unknown #
face $-1 $269 $270 $36 $-1 $271 reversed single #
loop $-1 $-1 $272 $100 #
plane-surface $-1 -32.266102732437467 62.440984328940566 160.78547144689389 -1 0 0 0 0.55919291073839883 0.82903756765294845 forward_v I I I I #
coedge $-1 $273 $274 $275 $276 reversed $101 $-1 #
coedge $-1 $167 $103 $277 $278 reversed $65 $-1 #
coedge $-1 $103 $166 $273 $279 reversed $65 $-1 #
coedge $-1 $275 $280 $103 $169 forward $281 $-1 #
edge $-1 $282 -1.2709436448195355 $283 11.348185795301699 $168 $284 forward 7 unknown #
loop $-1 $-1 $175 $104 #
plane-surface $-1 -47.941862961116094 -21.381806016481285 36.51307655889542 0 0.55919291073839883 0.82903756765294845 1 0 0 forward_v I I I I #
loop $-1 $-1 $285 $67 #
coedge $-1 $173 $173 $174 $286 reversed $105 $-1 #
coedge $-1 $174 $174 $173 $286 forward $107 $-1 #
coedge $-1 $175 $175 $108 $176 forward $170 $-1 #
edge $-1 $287 -1.212587171695901e-016 $287 6.2831853071796004 $175 $288 forward 7 unknown #
loop $-1 $-1 $182 $109 #
plane-surface $-1 -47.941862961116094 -21.381806016481285 36.51307655889542 0 0.55919291073839883 0.82903756765294845 1 0 0 forward_v I I I I #
loop $-1 $-1 $289 $70 #
coedge $-1 $180 $180 $181 $290 reversed $110 $-1 #
coedge $-1 $181 $181 $180 $290 forward $112 $-1 #
coedge $-1 $182 $182 $113 $183 forward $177 $-1 #
edge $-1 $291 -1.212587171695901e-016 $291 6.2831853071796004 $182 $292 forward 7 unknown #
loop $-1 $-1 $189 $114 #
plane-surface $-1 -47.941862961116094 -21.381806016481285 36.51307655889542 0 0.55919291073839883 0.82903756765294845 1 0 0 forward_v I I I I #
loop $-1 $-1 $293 $73 #
coedge $-1 $187 $187 $188 $294 reversed $115 $-1 #
coedge $-1 $188 $188 $187 $294 forward $117 $-1 #
coedge $-1 $189 $189 $118 $190 forward $184 $-1 #
edge $-1 $295 -1.212587171695901e-016 $295 6.2831853071796004 $189 $296 forward 7 unknown #
face $-1 $297 $298 $40 $-1 $299 forward single #
loop $-1 $-1 $300 $119 #
plane-surface $-1 -63.61762318979472 -116.31422615471166 124.44751031836067 1 0 0 0 0.55919291073839883 -0.82903756765294845 forward_v I I I I #
coedge $-1 $301 $302 $303 $304 reversed $120 $-1 #
coedge $-1 $196 $122 $305 $306 reversed $77 $-1 #
coedge $-1 $122 $195 $301 $307 reversed $77 $-1 #
coedge $-1 $303 $308 $122 $198 forward $298 $-1 #
edge $-1 $309 25.665677268066013 $310 38.284806708187212 $197 $311 forward 7 unknown #
loop $-1 $-1 $204 $123 #
plane-surface $-1 -47.941862961116094 -32.491435809289811 0.17511543036219734 0 -0.55919291073839883 0.82903756765294845 1 0 0 forward_v I I I I #
loop $-1 $-1 $312 $79 #
coedge $-1 $202 $202 $203 $313 reversed $124 $-1 #
coedge $-1 $203 $203 $202 $313 forward $126 $-1 #
coedge $-1 $204 $204 $127 $205 forward $199 $-1 #
edge $-1 $314 -1.7904084235809259e-016 $314 6.2831853071796004 $204 $315 forward 7 unknown #
loop $-1 $-1 $211 $128 #
plane-surface $-1 -47.941862961116094 -32.491435809289811 0.17511543036219734 0 -0.55919291073839883 0.82903756765294845 1 0 0 forward_v I I I I #
loop $-1 $-1 $316 $82 #
coedge $-1 $209 $209 $210 $317 reversed $129 $-1 #
coedge $-1 $210 $210 $209 $317 forward $131 $-1 #
coedge $-1 $211 $211 $132 $212 forward $206 $-1 #
edge $-1 $318 -1.7904084235809259e-016 $318 6.2831853071796004 $211 $319 forward 7 unknown #
loop $-1 $-1 $218 $133 #
plane-surface $-1 -47.941862961116094 -32.491435809289811 0.17511543036219734 0 -0.55919291073839883 0.82903756765294845 1 0 0 forward_v I I I I #
loop $-1 $-1 $320 $85 #
coedge $-1 $216 $216 $217 $321 reversed $134 $-1 #
coedge $-1 $217 $217 $216 $321 forward $136 $-1 #
coedge $-1 $218 $218 $137 $219 forward $213 $-1 #
edge $-1 $322 -1.7904084235809259e-016 $322 6.2831853071796004 $218 $323 forward 7 unknown #
face $-1 $324 $325 $33 $-1 $326 reversed single #
loop $-1 $-1 $327 $138 #
plane-surface $-1 -74.949797051911986 0 0 1 0 0 0 0 -1 forward_v I I I I #
coedge $-1 $328 $231 $329 $330 forward $139 $-1 #
coedge $-1 $331 $141 $328 $332 forward $89 $-1 #
coedge $-1 $141 $331 $333 $334 forward $89 $-1 #
coedge $-1 $234 $233 $141 $227 reversed $235 $-1 #
edge $-1 $335 -32.491435809289818 $336 32.491435809289818 $226 $337 forward 7 unknown #
coedge $-1 $143 $142 $338 $339 forward $56 $-1 #
coedge $-1 $340 $341 $142 $230 reversed $325 $-1 #
edge $-1 $237 -74.949797051911986 $342 74.949797051911986 $229 $343 forward 7 unknown #
coedge $-1 $223 $344 $143 $232 reversed $139 $-1 #
edge $-1 $345 -74.949797051911986 $236 74.949797051911986 $231 $346 forward 7 unknown #
coedge $-1 $226 $144 $344 $347 forward $235 $-1 #
coedge $-1 $144 $226 $340 $348 reversed $235 $-1 #
loop $-1 $-1 $233 $324 #
vertex $-1 $145 $349 #
vertex $-1 $145 $350 #
straight-curve $-1 74.949797051911986 0 8.6868258738146142 0 1 0 I I #
face $-1 $351 $251 $34 $-1 $352 reversed single #
loop $-1 $-1 $353 $146 #
plane-surface $-1 -81.069090195869194 -17.585609201911673 0 1 0 0 0 0 -1 forward_v I I I I #
coedge $-1 $354 $355 $356 $357 forward $147 $-1 #
coedge $-1 $358 $149 $354 $359 forward $93 $-1 #
coedge $-1 $149 $358 $249 $360 forward $93 $-1 #
edge $-1 $252 15.769480149860311 $361 19.401738253963035 $149 $362 forward 7 unknown #
coedge $-1 $151 $150 $363 $364 forward $59 $-1 #
coedge $-1 $365 $366 $150 $248 forward $367 $-1 #
edge $-1 $368 -19.401738253963035 $253 -15.769480149860311 $247 $369 forward 7 unknown #
coedge $-1 $370 $152 $244 $360 reversed $251 $-1 #
coedge $-1 $152 $370 $365 $371 reversed $251 $-1 #
loop $-1 $-1 $152 $239 #
vertex $-1 $245 $372 #
vertex $-1 $371 $373 #
straight-curve $-1 -74.949797051911986 -15.769480149860311 0 0 0 1 I I #
face $-1 $374 $375 $35 $-1 $376 reversed single #
loop $-1 $-1 $377 $154 #
plane-surface $-1 78.009443623890576 -15.769480149860311 0 0 -1 0 0 0 -1 forward_v I I I I #
coedge $-1 $378 $157 $379 $380 forward $97 $-1 #
coedge $-1 $157 $378 $264 $381 forward $97 $-1 #
edge $-1 $266 -19.401738253963035 $382 -15.769480149860311 $157 $383 forward 7 unknown #
coedge $-1 $159 $158 $384 $385 forward $62 $-1 #
coedge $-1 $386 $387 $158 $263 forward $388 $-1 #
edge $-1 $389 15.769480149860311 $267 19.401738253963035 $262 $390 forward 7 unknown #
coedge $-1 $391 $160 $259 $381 reversed $155 $-1 #
coedge $-1 $160 $391 $386 $392 reversed $155 $-1 #
vertex $-1 $260 $393 #
vertex $-1 $392 $394 #
straight-curve $-1 74.949797051911986 -19.401738253963035 0 0 0 1 I I #
face $-1 $-1 $281 $36 $-1 $395 forward single #
loop $-1 $-1 $396 $162 #
plane-surface $-1 0 32.491435809289818 0 0 -1 0 0 0 -1 forward_v I I I I #
coedge $-1 $397 $398 $399 $400 reversed $163 $-1 #
coedge $-1 $401 $165 $167 $279 forward $101 $-1 #
coedge $-1 $165 $401 $397 $402 forward $101 $-1 #
coedge $-1 $399 $168 $165 $276 forward $281 $-1 #
edge $-1 $283 -39.646691709236677 $403 -8.2951712518794203 $275 $404 forward 7 unknown #
coedge $-1 $405 $406 $166 $278 forward $270 $-1 #
edge $-1 $407 -80.217620293084778 $282 -71.705909849632334 $277 $408 forward 7 unknown #
edge $-1 $283 49.761451103407239 $407 64.982871618579665 $167 $409 forward 7 unknown #
coedge $-1 $168 $399 $405 $410 forward $281 $-1 #
loop $-1 $-1 $399 $269 #
vertex $-1 $278 $411 #
vertex $-1 $169 $412 #
straight-curve $-1 -63.61762318979472 31.220492164470283 8.6868258738146125 0 -1 0 I I #
coedge $-1 $285 $285 $-1 $413 reversed $172 $-1 #
edge $-1 $414 0 $414 6.2831853071796004 $173 $415 forward 7 unknown #
vertex $-1 $176 $416 #
ellipse-curve $-1 -57.347319098323268 26.181871089229215 4.4309706520883818 0 0.55919291073839883 0.82903756765294845 2 0 0 1 I I #
coedge $-1 $289 $289 $-1 $417 reversed $179 $-1 #
edge $-1 $418 0 $418 6.2831853071796004 $180 $419 forward 7 unknown #
vertex $-1 $183 $420 #
ellipse-curve $-1 -47.941862961116094 26.181871089229215 4.4309706520883818 0 0.55919291073839883 0.82903756765294845 2 0 0 1 I I #
coedge $-1 $293 $293 $-1 $421 reversed $186 $-1 #
edge $-1 $422 0 $422 6.2831853071796004 $187 $423 forward 7 unknown #
vertex $-1 $190 $424 #
ellipse-curve $-1 -38.536406823908919 26.181871089229215 4.4309706520883818 0 0.55919291073839883 0.82903756765294845 2 0 0 1 I I #
face $-1 $-1 $425 $40 $-1 $426 reversed single #
loop $-1 $-1 $197 $191 #
plane-surface $-1 0 0 8.6868258738146142 0 0 1 1 0 0 forward_v I I I I #
coedge $-1 $427 $428 $429 $430 reversed $192 $-1 #
coedge $-1 $431 $194 $196 $307 forward $120 $-1 #
coedge $-1 $194 $431 $427 $432 forward $120 $-1 #
coedge $-1 $429 $197 $194 $304 forward $298 $-1 #
edge $-1 $310 8.2951712518794203 $433 39.646691709236677 $303 $434 forward 7 unknown #
coedge $-1 $435 $436 $195 $306 forward $425 $-1 #
edge $-1 $437 -62.048639728818145 $309 -53.536929285365723 $305 $438 forward 7 unknown #
edge $-1 $310 -15.221420515172369 $437 8.575750967046375e-015 $196 $439 forward 7 unknown #
coedge $-1 $197 $429 $435 $440 forward $298 $-1 #
vertex $-1 $198 $441 #
vertex $-1 $198 $442 #
straight-curve $-1 -32.266102732437467 -58.157113077355831 8.6868258738146125 0 1 0 I I #
coedge $-1 $312 $312 $-1 $443 reversed $201 $-1 #
edge $-1 $444 0 $444 6.2831853071796004 $202 $445 forward 7 unknown #
vertex $-1 $205 $446 #
ellipse-curve $-1 -57.347319098323268 -26.181871089229226 4.4309706520883978 0 -0.55919291073839883 0.82903756765294845 2 0 0 1 I I #
coedge $-1 $316 $316 $-1 $447 reversed $208 $-1 #
edge $-1 $448 0 $448 6.2831853071796004 $209 $449 forward 7 unknown #
vertex $-1 $212 $450 #
ellipse-curve $-1 -47.941862961116094 -26.181871089229226 4.4309706520883978 0 -0.55919291073839883 0.82903756765294845 2 0 0 1 I I #
coedge $-1 $320 $320 $-1 $451 reversed $215 $-1 #
edge $-1 $452 0 $452 6.2831853071796004 $216 $453 forward 7 unknown #
vertex $-1 $219 $454 #
ellipse-curve $-1 -38.536406823908919 -26.181871089229226 4.4309706520883978 0 -0.55919291073839883 0.82903756765294845 2 0 0 1 I I #
face $-1 $-1 $235 $33 $-1 $455 reversed single #
loop $-1 $-1 $340 $220 #
plane-surface $-1 0 32.491435809289818 0 0 -1 0 0 0 -1 forward_v I I I I #
coedge $-1 $456 $338 $341 $457 forward $221 $-1 #
coedge $-1 $344 $223 $224 $332 reversed $139 $-1 #
coedge $-1 $338 $456 $223 $330 reversed $221 $-1 #
edge $-1 $345 -8.6868258738146142 $458 8.6868258738146142 $329 $459 forward 7 unknown #
coedge $-1 $225 $224 $456 $460 forward $89 $-1 #
edge $-1 $336 -74.949797051911986 $458 74.949797051911986 $328 $461 forward 7 unknown #
coedge $-1 $341 $340 $225 $334 reversed $325 $-1 #
edge $-1 $462 -74.949797051911986 $335 74.949797051911986 $333 $463 forward 7 unknown #
vertex $-1 $227 $464 #
vertex $-1 $347 $465 #
straight-curve $-1 74.949797051911986 0 -8.6868258738146142 0 -1 0 I I #
coedge $-1 $327 $329 $228 $339 reversed $221 $-1 #
edge $-1 $342 -32.491435809289818 $345 32.491435809289818 $338 $466 forward 7 unknown #
coedge $-1 $333 $229 $234 $348 forward $325 $-1 #
coedge $-1 $229 $333 $327 $457 reversed $325 $-1 #
vertex $-1 $230 $467 #
straight-curve $-1 0 32.491435809289818 8.6868258738146142 -1 0 0 I I #
coedge $-1 $231 $328 $233 $347 reversed $139 $-1 #
vertex $-1 $339 $468 #
straight-curve $-1 0 -32.491435809289818 8.6868258738146142 1 0 0 I I #
edge $-1 $236 -8.6868258738146142 $336 8.6868258738146142 $233 $469 forward 7 unknown #
edge $-1 $237 -8.6868258738146142 $335 8.6868258738146142 $234 $470 forward 7 unknown #
point $-1 74.949797051911986 -32.491435809289818 8.6868258738146142 #
point $-1 74.949797051911986 32.491435809289818 8.6868258738146142 #
face $-1 $-1 $367 $34 $-1 $471 forward single #
plane-surface $-1 -78.00944362389059 -15.769480149860311 0 0 -1 0 0 0 -1 forward_v I I I I #
coedge $-1 $472 $473 $370 $474 forward $240 $-1 #
coedge $-1 $363 $242 $243 $359 reversed $147 $-1 #
coedge $-1 $242 $363 $366 $475 reversed $147 $-1 #
coedge $-1 $473 $472 $242 $357 reversed $240 $-1 #
edge $-1 $476 -8.6868258738146142 $477 8.6868258738146142 $356 $478 forward 7 unknown #
coedge $-1 $244 $243 $472 $479 forward $93 $-1 #
edge $-1 $361 -3.0596465719786039 $477 3.0596465719786039 $354 $480 forward 7 unknown #
edge $-1 $481 -3.0596465719786039 $252 3.0596465719786039 $249 $482 forward 7 unknown #
vertex $-1 $359 $483 #
straight-curve $-1 -74.949797051911986 0 -8.6868258738146142 0 -1 0 I I #
coedge $-1 $355 $354 $246 $364 reversed $147 $-1 #
edge $-1 $368 -8.6868258738146142 $361 8.6868258738146142 $363 $484 forward 7 unknown #
coedge $-1 $485 $247 $250 $371 forward $367 $-1 #
coedge $-1 $247 $485 $355 $475 forward $367 $-1 #
loop $-1 $-1 $247 $351 #
vertex $-1 $248 $486 #
straight-curve $-1 -74.949797051911986 0 8.6868258738146142 0 1 0 I I #
coedge $-1 $250 $249 $353 $474 reversed $251 $-1 #
edge $-1 $253 -3.0596465719786039 $487 3.0596465719786039 $250 $488 forward 7 unknown #
point $-1 -74.949797051911986 -15.769480149860311 -8.6868258738146142 #
point $-1 -74.949797051911986 -15.769480149860311 8.6868258738146142 #
face $-1 $-1 $388 $35 $-1 $489 forward single #
loop $-1 $-1 $490 $255 #
plane-surface $-1 81.06909019586918 -17.585609201911673 0 -1 0 0 0 0 1 forward_v I I I I #
coedge $-1 $379 $491 $492 $493 forward $256 $-1 #
coedge $-1 $259 $258 $494 $495 forward $97 $-1 #
coedge $-1 $384 $377 $258 $380 reversed $256 $-1 #
edge $-1 $382 -3.0596465719786039 $496 3.0596465719786039 $379 $497 forward 7 unknown #
edge $-1 $498 -3.0596465719786039 $266 3.0596465719786039 $264 $499 forward 7 unknown #
vertex $-1 $380 $500 #
straight-curve $-1 74.949797051911986 0 -8.6868258738146142 0 1 0 I I #
coedge $-1 $491 $379 $261 $385 reversed $256 $-1 #
edge $-1 $389 -8.6868258738146142 $382 8.6868258738146142 $384 $501 forward 7 unknown #
coedge $-1 $502 $262 $265 $392 forward $388 $-1 #
coedge $-1 $262 $502 $491 $503 forward $388 $-1 #
loop $-1 $-1 $262 $374 #
vertex $-1 $263 $504 #
straight-curve $-1 74.949797051911986 0 8.6868258738146142 0 -1 0 I I #
coedge $-1 $265 $264 $490 $505 reversed $155 $-1 #
edge $-1 $267 -3.0596465719786039 $506 3.0596465719786039 $265 $507 forward 7 unknown #
point $-1 74.949797051911972 -19.401738253963035 -8.6868258738146142 #
point $-1 74.949797051911972 -19.401738253963035 8.6868258738146142 #
plane-surface $-1 0 0 8.6868258738146142 0 0 1 1 0 0 forward_v I I I I #
coedge $-1 $406 $405 $398 $508 forward $270 $-1 #
coedge $-1 $398 $272 $274 $402 reversed $163 $-1 #
coedge $-1 $272 $397 $396 $508 reversed $163 $-1 #
coedge $-1 $280 $275 $272 $400 forward $281 $-1 #
edge $-1 $403 -11.348185795301699 $509 1.2709436448195355 $399 $510 forward 7 unknown #
coedge $-1 $274 $273 $406 $511 reversed $101 $-1 #
edge $-1 $512 -64.982871618579665 $403 -49.761451103407239 $397 $513 forward 7 unknown #
vertex $-1 $276 $514 #
straight-curve $-1 -23.970931480558047 19.872306369168594 8.6868258738146125 1 0 0 I I #
coedge $-1 $396 $277 $280 $410 reversed $270 $-1 #
coedge $-1 $277 $396 $401 $511 forward $270 $-1 #
vertex $-1 $278 $515 #
straight-curve $-1 -63.61762318979472 32.491435809289818 80.392735723446947 0 0 1 I I #
straight-curve $-1 -63.61762318979472 -21.381806016481285 36.51307655889542 0 0.82903756765294845 -0.55919291073839883 I I #
edge $-1 $509 32.266102732437467 $282 63.61762318979472 $405 $516 forward 7 unknown #
point $-1 -63.61762318979472 32.491435809289818 8.6868258738146142 #
point $-1 -63.61762318979472 19.872306369168584 8.6868258738146125 #
edge $-1 $517 1 $517 0 $285 $-1 forward 7 unknown #
vertex $-1 $286 $518 #
ellipse-curve $-1 -57.347319098323268 22.478333727957096 -1.0597491813346058 0 0.55919291073839883 0.82903756765294845 2 0 0 1 I I #
point $-1 -55.347319098323268 26.18187108922924 4.4309706520884191 #
edge $-1 $519 1 $519 0 $289 $-1 forward 7 unknown #
vertex $-1 $290 $520 #
ellipse-curve $-1 -47.941862961116094 22.478333727957096 -1.0597491813346058 0 0.55919291073839883 0.82903756765294845 2 0 0 1 I I #
point $-1 -45.941862961116094 26.18187108922924 4.4309706520884191 #
edge $-1 $521 1 $521 0 $293 $-1 forward 7 unknown #
vertex $-1 $294 $522 #
ellipse-curve $-1 -38.536406823908919 22.478333727957096 -1.0597491813346058 0 0.55919291073839883 0.82903756765294845 2 0 0 1 I I #
point $-1 -36.536406823908919 26.18187108922924 4.4309706520884191 #
loop $-1 $-1 $305 $297 #
plane-surface $-1 0 -32.491435809289818 0 0 1 0 0 0 1 forward_v I I I I #
coedge $-1 $428 $300 $302 $432 reversed $192 $-1 #
coedge $-1 $300 $427 $523 $524 reversed $192 $-1 #
coedge $-1 $308 $303 $300 $430 forward $298 $-1 #
edge $-1 $433 -38.284806708187212 $525 -25.665677268066013 $429 $526 forward 7 unknown #
coedge $-1 $302 $301 $436 $527 reversed $120 $-1 #
edge $-1 $528 -8.575750967046375e-015 $433 15.221420515172369 $427 $529 forward 7 unknown #
vertex $-1 $304 $530 #
straight-curve $-1 -23.970931480558047 -19.872306369168616 8.6868258738146142 -1 0 0 I I #
coedge $-1 $523 $305 $308 $440 reversed $425 $-1 #
coedge $-1 $305 $523 $431 $527 forward $425 $-1 #
vertex $-1 $306 $531 #
straight-curve $-1 -32.266102732437467 -32.491435809289818 62.223755159180335 0 0 1 I I #
straight-curve $-1 -32.266102732437467 -32.491435809289811 0.17511543036219734 0 -0.82903756765294845 -0.55919291073839883 I I #
edge $-1 $525 -63.61762318979472 $309 -32.266102732437467 $435 $532 forward 7 unknown #
point $-1 -32.266102732437467 -32.491435809289818 8.6868258738146142 #
point $-1 -32.266102732437467 -19.872306369168619 8.6868258738146142 #
edge $-1 $533 1 $533 0 $312 $-1 forward 7 unknown #
vertex $-1 $313 $534 #
ellipse-curve $-1 -57.347319098323268 -22.478333727957096 -1.0597491813346067 0 -0.55919291073839883 0.82903756765294845 2 0 0 1 I I #
point $-1 -55.347319098323268 -26.18187108922924 4.4309706520884182 #
edge $-1 $535 1 $535 0 $316 $-1 forward 7 unknown #
vertex $-1 $317 $536 #
ellipse-curve $-1 -47.941862961116094 -22.478333727957096 -1.0597491813346067 0 -0.55919291073839883 0.82903756765294845 2 0 0 1 I I #
point $-1 -45.941862961116094 -26.18187108922924 4.4309706520884182 #
edge $-1 $537 1 $537 0 $320 $-1 forward 7 unknown #
vertex $-1 $321 $538 #
ellipse-curve $-1 -38.536406823908919 -22.478333727957096 -1.0597491813346067 0 -0.55919291073839883 0.82903756765294845 2 0 0 1 I I #
point $-1 -36.536406823908919 -26.18187108922924 4.4309706520884182 #
plane-surface $-1 74.949797051911986 0 0 -1 0 0 0 0 1 forward_v I I I I #
coedge $-1 $329 $327 $331 $460 reversed $221 $-1 #
edge $-1 $342 -8.6868258738146142 $462 8.6868258738146142 $341 $539 forward 7 unknown #
vertex $-1 $460 $540 #
straight-curve $-1 -74.949797051911986 -32.491435809289818 0 0 0 -1 I I #
edge $-1 $458 -32.491435809289818 $462 32.491435809289818 $456 $541 forward 7 unknown #
straight-curve $-1 0 -32.491435809289818 -8.6868258738146142 -1 0 0 I I #
vertex $-1 $334 $542 #
straight-curve $-1 0 32.491435809289818 -8.6868258738146142 1 0 0 I I #
point $-1 74.949797051911986 32.491435809289818 -8.6868258738146142 #
point $-1 74.949797051911986 -32.491435809289818 -8.6868258738146142 #
straight-curve $-1 -74.949797051911986 0 8.6868258738146142 0 -1 0 I I #
point $-1 -74.949797051911986 32.491435809289818 8.6868258738146142 #
point $-1 -74.949797051911986 -32.491435809289818 8.6868258738146142 #
straight-curve $-1 74.949797051911986 -32.491435809289818 0 0 0 -1 I I #
straight-curve $-1 74.949797051911986 32.491435809289818 0 0 0 -1 I I #
plane-surface $-1 0 0 8.6868258738146142 0 0 1 1 0 0 forward_v I I I I #
coedge $-1 $356 $353 $358 $479 reversed $240 $-1 #
coedge $-1 $353 $356 $485 $543 reversed $240 $-1 #
edge $-1 $487 -8.6868258738146142 $481 8.6868258738146142 $370 $544 forward 7 unknown #
edge $-1 $476 -3.0596465719786039 $368 3.0596465719786039 $355 $545 forward 7 unknown #
vertex $-1 $543 $546 #
vertex $-1 $479 $547 #
straight-curve $-1 -81.069090195869194 -19.401738253963035 0 0 0 -1 I I #
edge $-1 $477 -1.8161290520513624 $481 1.8161290520513624 $472 $548 forward 7 unknown #
straight-curve $-1 -78.00944362389059 -19.401738253963035 -8.6868258738146142 -1 0 0 I I #
vertex $-1 $360 $549 #
straight-curve $-1 -78.00944362389059 -15.769480149860311 -8.6868258738146142 1 0 0 I I #
point $-1 -74.949797051911986 -19.401738253963035 -8.6868258738146142 #
straight-curve $-1 -74.949797051911986 -19.401738253963035 0 0 0 -1 I I #
coedge $-1 $366 $365 $473 $543 forward $367 $-1 #
point $-1 -74.949797051911986 -19.401738253963035 8.6868258738146142 #
vertex $-1 $371 $550 #
straight-curve $-1 -78.00944362389059 -15.769480149860311 8.6868258738146142 -1 0 0 I I #
plane-surface $-1 0 0 8.6868258738146142 0 0 1 1 0 0 forward_v I I I I #
coedge $-1 $494 $551 $391 $505 forward $375 $-1 #
coedge $-1 $377 $384 $387 $503 reversed $256 $-1 #
coedge $-1 $551 $494 $377 $493 reversed $375 $-1 #
edge $-1 $552 -8.6868258738146142 $496 8.6868258738146142 $492 $553 forward 7 unknown #
coedge $-1 $492 $490 $378 $495 reversed $375 $-1 #
edge $-1 $496 -1.8161290520513624 $498 1.8161290520513624 $494 $554 forward 7 unknown #
vertex $-1 $495 $555 #
straight-curve $-1 78.009443623890576 -15.769480149860311 -8.6868258738146142 1 0 0 I I #
vertex $-1 $505 $556 #
straight-curve $-1 78.009443623890576 -19.401738253963035 -8.6868258738146142 -1 0 0 I I #
point $-1 74.949797051911972 -15.769480149860311 -8.6868258738146142 #
straight-curve $-1 74.949797051911986 -15.769480149860311 0 0 0 -1 I I #
coedge $-1 $387 $386 $551 $557 forward $388 $-1 #
edge $-1 $552 -3.0596465719786039 $389 3.0596465719786039 $491 $558 forward 7 unknown #
point $-1 74.949797051911972 -15.769480149860311 8.6868258738146142 #
edge $-1 $506 -8.6868258738146142 $498 8.6868258738146142 $490 $559 forward 7 unknown #
vertex $-1 $557 $560 #
straight-curve $-1 78.009443623890576 -19.401738253963035 8.6868258738146142 1 0 0 I I #
edge $-1 $509 71.705909849632334 $512 80.217620293084778 $396 $561 forward 7 unknown #
vertex $-1 $410 $562 #
straight-curve $-1 -32.266102732437467 31.220492164470283 8.6868258738146125 0 1 0 I I #
edge $-1 $512 8.2951712518794203 $407 39.646691709236677 $406 $563 forward 7 unknown #
vertex $-1 $511 $564 #
straight-curve $-1 -32.266102732437467 -21.381806016481285 36.51307655889542 0 -0.82903756765294845 0.55919291073839883 I I #
point $-1 -32.266102732437467 19.872306369168584 8.6868258738146125 #
point $-1 -63.61762318979472 32.491435809289818 0.17511543036216892 #
straight-curve $-1 0 32.491435809289818 8.6868258738146142 -1 0 0 I I #
vertex $-1 $413 $565 #
point $-1 -55.347319098323268 22.478333727957096 -1.0597491813346058 #
vertex $-1 $417 $566 #
point $-1 -45.941862961116094 22.478333727957096 -1.0597491813346058 #
vertex $-1 $421 $567 #
point $-1 -36.536406823908919 22.478333727957096 -1.0597491813346058 #
coedge $-1 $436 $435 $428 $524 forward $425 $-1 #
edge $-1 $525 53.536929285365723 $528 62.048639728818145 $523 $568 forward 7 unknown #
vertex $-1 $440 $569 #
straight-curve $-1 -63.61762318979472 -58.157113077355831 8.6868258738146125 0 -1 0 I I #
edge $-1 $528 -39.646691709236677 $437 -8.2951712518794203 $436 $570 forward 7 unknown #
vertex $-1 $527 $571 #
straight-curve $-1 -63.61762318979472 -32.491435809289811 0.17511543036219734 0 0.82903756765294845 0.55919291073839883 I I #
point $-1 -63.61762318979472 -19.872306369168619 8.6868258738146142 #
point $-1 -32.266102732437467 -32.491435809289818 0.17511543036219254 #
straight-curve $-1 0 -32.491435809289818 8.6868258738146142 1 0 0 I I #
vertex $-1 $443 $572 #
point $-1 -55.347319098323268 -22.478333727957096 -1.0597491813346067 #
vertex $-1 $447 $573 #
point $-1 -45.941862961116094 -22.478333727957096 -1.0597491813346067 #
vertex $-1 $451 $574 #
point $-1 -36.536406823908919 -22.478333727957096 -1.0597491813346067 #
straight-curve $-1 -74.949797051911986 32.491435809289818 0 0 0 -1 I I #
point $-1 -74.949797051911986 -32.491435809289818 -8.6868258738146142 #
straight-curve $-1 -74.949797051911986 0 -8.6868258738146142 0 1 0 I I #
point $-1 -74.949797051911986 32.491435809289818 -8.6868258738146142 #
edge $-1 $487 -1.8161290520513624 $476 1.8161290520513624 $473 $575 forward 7 unknown #
straight-curve $-1 -81.069090195869194 -15.769480149860311 0 0 0 -1 I I #
straight-curve $-1 -78.00944362389059 -19.401738253963035 8.6868258738146142 1 0 0 I I #
point $-1 -81.069090195869194 -19.401738253963035 8.6868258738146142 #
point $-1 -81.069090195869194 -19.401738253963035 -8.6868258738146142 #
straight-curve $-1 -81.069090195869194 -17.585609201911673 -8.6868258738146142 0 1 0 I I #
point $-1 -81.069090195869194 -15.769480149860311 -8.6868258738146142 #
point $-1 -81.069090195869194 -15.769480149860311 8.6868258738146142 #
coedge $-1 $490 $492 $502 $557 reversed $375 $-1 #
vertex $-1 $557 $576 #
straight-curve $-1 81.06909019586918 -15.769480149860311 0 0 0 -1 I I #
straight-curve $-1 81.06909019586918 -17.585609201911673 -8.6868258738146142 0 -1 0 I I #
point $-1 81.06909019586918 -15.769480149860311 -8.6868258738146142 #
point $-1 81.06909019586918 -19.401738253963035 -8.6868258738146142 #
edge $-1 $506 -1.8161290520513624 $552 1.8161290520513624 $551 $577 forward 7 unknown #
straight-curve $-1 78.009443623890576 -15.769480149860311 8.6868258738146142 -1 0 0 I I #
straight-curve $-1 81.06909019586918 -19.401738253963035 0 0 0 -1 I I #
point $-1 81.06909019586918 -19.401738253963035 8.6868258738146142 #
straight-curve $-1 -32.266102732437467 32.491435809289818 80.392735723446947 0 0 -1 I I #
point $-1 -32.266102732437467 32.491435809289818 8.6868258738146142 #
straight-curve $-1 -23.970931480558047 32.491435809289818 0.17511543036216537 -1 0 0 I I #
point $-1 -32.266102732437467 32.491435809289818 0.17511543036216892 #
point $-1 -57.347319098323268 21.359947906480297 -2.7178243166405025 #
point $-1 -47.941862961116094 21.359947906480297 -2.7178243166405025 #
point $-1 -38.536406823908919 21.359947906480297 -2.7178243166405025 #
straight-curve $-1 -63.61762318979472 -32.491435809289818 62.223755159180335 0 0 -1 I I #
point $-1 -63.61762318979472 -32.491435809289818 8.6868258738146142 #
straight-curve $-1 -23.970931480558047 -32.491435809289818 0.17511543036218935 1 0 0 I I #
point $-1 -63.61762318979472 -32.491435809289818 0.17511543036219254 #
point $-1 -57.347319098323268 -21.359947906480297 -2.7178243166405034 #
point $-1 -47.941862961116094 -21.359947906480297 -2.7178243166405034 #
point $-1 -38.536406823908919 -21.359947906480297 -2.7178243166405034 #
straight-curve $-1 -81.069090195869194 -17.585609201911673 8.6868258738146142 0 -1 0 I I #
point $-1 81.06909019586918 -15.769480149860311 8.6868258738146142 #
straight-curve $-1 81.06909019586918 -17.585609201911673 8.6868258738146142 0 1 0 I I #
End-of-ACIS-data 