500 0 11 0           
7 Unknown 11 ACIS 5.0 NT 24 Fri Mar 26 20:18:37 1999 
-1 9.9999999999999995e-007 1e-010 
body $-1 $11 $-1 $12 #
body $-1 $13 $-1 $14 #
body $-1 $15 $-1 $16 #
body $-1 $17 $-1 $18 #
body $-1 $19 $-1 $20 #
body $-1 $21 $-1 $22 #
body $-1 $23 $-1 $24 #
body $-1 $25 $-1 $26 #
body $-1 $27 $-1 $28 #
body $-1 $29 $-1 $30 #
body $-1 $31 $-1 $32 #
lump $-1 $-1 $33 $0 #
transform $-1 1 0 0 0 1 0 0 0 1 65.205847346415595 38.102247967217608 9.2827062379070853 1 rotate no_reflect no_shear #
lump $-1 $-1 $34 $1 #
transform $-1 1 0 0 0 1 0 0 0 1 65.205847346415595 38.102247967217608 9.2827062379070853 1 rotate no_reflect no_shear #
lump $-1 $-1 $35 $2 #
transform $-1 1 0 0 0 1 0 0 0 1 65.205847346415595 38.102247967217608 9.2827062379070853 1 rotate no_reflect no_shear #
lump $-1 $-1 $36 $3 #
transform $-1 1 0 0 0 1 0 0 0 1 65.205847346415595 38.102247967217608 9.2827062379070853 1 rotate no_reflect no_shear #
lump $-1 $-1 $37 $4 #
transform $-1 1 0 0 0 1 0 0 0 1 65.205847346415595 38.102247967217608 9.2827062379070853 1 rotate no_reflect no_shear #
lump $-1 $-1 $38 $5 #
transform $-1 1 0 0 0 1 0 0 0 1 65.205847346415595 38.102247967217608 9.2827062379070853 1 rotate no_reflect no_shear #
lump $-1 $-1 $39 $6 #
transform $-1 1 0 0 0 1 0 0 0 1 65.205847346415595 38.102247967217608 9.2827062379070853 1 rotate no_reflect no_shear #
lump $-1 $-1 $40 $7 #
transform $-1 1 0 0 0 1 0 0 0 1 65.205847346415595 38.102247967217608 9.2827062379070853 1 rotate no_reflect no_shear #
lump $-1 $-1 $41 $8 #
transform $-1 1 0 0 0 1 0 0 0 1 65.205847346415595 38.102247967217608 9.2827062379070853 1 rotate no_reflect no_shear #
lump $-1 $-1 $42 $9 #
transform $-1 1 0 0 0 1 0 0 0 1 65.205847346415595 38.102247967217608 9.2827062379070853 1 rotate no_reflect no_shear #
lump $-1 $-1 $43 $10 #
transform $-1 1 0 0 0 1 0 0 0 1 65.205847346415595 38.102247967217608 9.2827062379070853 1 rotate no_reflect no_shear #
shell $-1 $-1 $-1 $44 $-1 $11 #
shell $-1 $-1 $-1 $45 $-1 $13 #
shell $-1 $-1 $-1 $46 $-1 $15 #
shell $-1 $-1 $-1 $47 $-1 $17 #
shell $-1 $-1 $-1 $48 $-1 $19 #
shell $-1 $-1 $-1 $49 $-1 $21 #
shell $-1 $-1 $-1 $50 $-1 $23 #
shell $-1 $-1 $-1 $51 $-1 $25 #
shell $-1 $-1 $-1 $52 $-1 $27 #
shell $-1 $-1 $-1 $53 $-1 $29 #
shell $-1 $-1 $-1 $54 $-1 $31 #
face $-1 $55 $56 $33 $-1 $57 forward single #
face $-1 $58 $59 $34 $-1 $60 forward single #
face $-1 $61 $62 $35 $-1 $63 reversed single #
face $-1 $64 $65 $36 $-1 $66 forward single #
face $-1 $67 $68 $37 $-1 $69 forward single #
face $-1 $70 $71 $38 $-1 $72 reversed single #
face $-1 $73 $74 $39 $-1 $75 forward single #
face $-1 $76 $77 $40 $-1 $78 forward single #
face $-1 $79 $80 $41 $-1 $81 reversed single #
face $-1 $82 $83 $42 $-1 $84 forward single #
face $-1 $85 $86 $43 $-1 $87 forward single #
face $-1 $88 $89 $33 $-1 $90 reversed single #
loop $-1 $-1 $91 $44 #
plane-surface $-1 0 0 9.2827062379070853 0 0 1 1 0 0 forward_v I I I I #
face $-1 $92 $93 $34 $-1 $94 reversed single #
loop $-1 $-1 $95 $45 #
plane-surface $-1 -59.396650063700918 0 7.234838163831494 0 0 1 1 0 0 forward_v I I I I #
face $-1 $96 $97 $35 $-1 $98 reversed single #
loop $-1 $-1 $99 $46 #
plane-surface $-1 -39.048110878788492 -139.45117090370485 87.894229109271777 1 0 0 0 0.77714596973225614 -0.62932038083071107 forward_v I I I I #
face $-1 $100 $101 $36 $-1 $102 forward single #
loop $-1 $103 $104 $47 #
cone-surface $-1 -34.063141710957382 -36.069323617605754 7.0410595588387874 0 0.77714596973225614 -0.62932038083071107 0.5 0 0 1 I I 0 1 0.5 forward I I I I #
face $-1 $105 $106 $37 $-1 $107 forward single #
loop $-1 $108 $109 $48 #
cone-surface $-1 -26.585687959210702 -36.069323617605754 7.0410595588387874 0 0.77714596973225614 -0.62932038083071107 0.5 0 0 1 I I 0 1 0.5 forward I I I I #
face $-1 $110 $111 $38 $-1 $112 reversed single #
loop $-1 $-1 $113 $49 #
plane-surface $-1 33.219113356808947 -139.45117090370485 87.894229109271777 1 0 0 0 0.77714596973225614 -0.62932038083071107 forward_v I I I I #
face $-1 $114 $115 $39 $-1 $116 forward single #
loop $-1 $117 $118 $50 #
cone-surface $-1 38.204082524640057 -36.069323617605754 7.0410595588387874 0 0.77714596973225614 -0.62932038083071107 0.5 0 0 1 I I 0 1 0.5 forward I I I I #
face $-1 $119 $120 $40 $-1 $121 forward single #
loop $-1 $122 $123 $51 #
cone-surface $-1 45.681536276386737 -36.069323617605754 7.0410595588387874 0 0.77714596973225614 -0.62932038083071107 0.5 0 0 1 I I 0 1 0.5 forward I I I I #
face $-1 $124 $125 $41 $-1 $126 reversed single #
loop $-1 $-1 $127 $52 #
plane-surface $-1 6.869693552379843 108.31540895106096 138.4821167603375 1 0 0 0 -0.84804810408105047 -0.52991925155115449 forward_v I I I I #
face $-1 $128 $129 $42 $-1 $130 forward single #
loop $-1 $131 $132 $53 #
cone-surface $-1 14.53802432221508 35.789469771467232 6.4559012472344026 0 -0.84804810408105047 -0.52991925155115449 1 0 0 1 I I 0 1 1 forward I I I I #
face $-1 $133 $134 $43 $-1 $135 forward single #
loop $-1 $136 $137 $54 #
cone-surface $-1 26.040520476967927 35.789469771467232 6.4559012472344026 0 -0.84804810408105047 -0.52991925155115449 1 0 0 1 I I 0 1 1 forward I I I I #
face $-1 $138 $139 $33 $-1 $140 reversed single #
loop $-1 $-1 $141 $55 #
plane-surface $-1 0 0 -9.2827062379070853 0 0 1 1 0 0 forward_v I I I I #
coedge $-1 $142 $143 $144 $145 forward $56 $-1 #
face $-1 $146 $147 $34 $-1 $148 reversed single #
loop $-1 $-1 $149 $58 #
plane-surface $-1 -59.396650063700918 0 4.234838163831494 0 0 1 1 0 0 forward_v I I I I #
coedge $-1 $150 $151 $152 $153 forward $59 $-1 #
face $-1 $154 $155 $35 $-1 $156 reversed single #
loop $-1 $-1 $157 $61 #
plane-surface $-1 -30.324414835084042 -38.102247967217636 5.8234917404008257 0 -0.77714596973225614 0.62932038083071107 1 0 0 forward_v I I I I #
coedge $-1 $158 $159 $160 $161 reversed $62 $-1 #
face $-1 $-1 $162 $36 $-1 $163 forward single #
loop $-1 $164 $165 $64 #
cone-surface $-1 -34.063141710957382 -35.242721071641796 6.3716900333159394 0 0.77714596973225614 -0.62932038083071107 0.25 0 0 1 I I -0.70710678118654746 0.70710678118654746 0.25 forward I I I I #
loop $-1 $-1 $166 $47 #
coedge $-1 $104 $104 $167 $168 reversed $65 $-1 #
face $-1 $-1 $169 $37 $-1 $170 forward single #
loop $-1 $171 $172 $67 #
cone-surface $-1 -26.585687959210702 -35.242721071641796 6.3716900333159394 0 0.77714596973225614 -0.62932038083071107 0.25 0 0 1 I I -0.70710678118654746 0.70710678118654746 0.25 forward I I I I #
loop $-1 $-1 $173 $48 #
coedge $-1 $109 $109 $174 $175 reversed $68 $-1 #
face $-1 $176 $177 $38 $-1 $178 reversed single #
loop $-1 $-1 $179 $70 #
plane-surface $-1 41.942809400513397 -38.102247967217636 5.8234917404008257 0 -0.77714596973225614 0.62932038083071107 1 0 0 forward_v I I I I #
coedge $-1 $180 $181 $182 $183 reversed $71 $-1 #
face $-1 $-1 $184 $39 $-1 $185 forward single #
loop $-1 $186 $187 $73 #
cone-surface $-1 38.204082524640057 -35.242721071641796 6.3716900333159394 0 0.77714596973225614 -0.62932038083071107 0.25 0 0 1 I I -0.70710678118654746 0.70710678118654746 0.25 forward I I I I #
loop $-1 $-1 $188 $50 #
coedge $-1 $118 $118 $189 $190 reversed $74 $-1 #
face $-1 $-1 $191 $40 $-1 $192 forward single #
loop $-1 $193 $194 $76 #
cone-surface $-1 45.681536276386737 -35.242721071641796 6.3716900333159394 0 0.77714596973225614 -0.62932038083071107 0.25 0 0 1 I I -0.70710678118654746 0.70710678118654746 0.25 forward I I I I #
loop $-1 $-1 $195 $51 #
coedge $-1 $123 $123 $196 $197 reversed $77 $-1 #
face $-1 $198 $199 $41 $-1 $200 reversed single #
loop $-1 $-1 $201 $79 #
plane-surface $-1 20.289272399591496 -2.279981483191321 69.374449115194736 0 0.84804810408105047 0.52991925155115449 1 0 0 forward_v I I I I #
coedge $-1 $202 $203 $204 $205 reversed $80 $-1 #
face $-1 $-1 $206 $42 $-1 $207 forward single #
loop $-1 $208 $209 $82 #
cone-surface $-1 14.53802432221508 34.469038660223873 5.6308043419672629 0 -0.84804810408105047 -0.52991925155115449 0.5 0 0 1 I I -0.70710678118654746 0.70710678118654746 0.5 forward I I I I #
loop $-1 $-1 $210 $53 #
coedge $-1 $132 $132 $211 $212 reversed $83 $-1 #
face $-1 $-1 $213 $43 $-1 $214 forward single #
loop $-1 $215 $216 $85 #
cone-surface $-1 26.040520476967927 34.469038660223873 5.6308043419672629 0 -0.84804810408105047 -0.52991925155115449 0.5 0 0 1 I I -0.70710678118654746 0.70710678118654746 0.5 forward I I I I #
loop $-1 $-1 $217 $54 #
coedge $-1 $137 $137 $218 $219 reversed $86 $-1 #
face $-1 $220 $221 $33 $-1 $222 reversed single #
loop $-1 $-1 $223 $88 #
plane-surface $-1 0 -38.102247967217608 0 0 1 0 0 0 1 forward_v I I I I #
coedge $-1 $224 $225 $226 $227 forward $89 $-1 #
coedge $-1 $228 $91 $229 $230 forward $56 $-1 #
coedge $-1 $91 $228 $231 $232 forward $56 $-1 #
coedge $-1 $233 $234 $91 $145 reversed $235 $-1 #
edge $-1 $236 -38.102247967217608 $237 38.102247967217608 $144 $238 forward 7 unknown #
face $-1 $239 $240 $34 $-1 $241 reversed single #
loop $-1 $-1 $242 $92 #
plane-surface $-1 -53.58745278098624 0 5.734838163831494 -1 0 0 0 0 1 forward_v I I I I #
coedge $-1 $243 $244 $245 $246 forward $93 $-1 #
coedge $-1 $247 $95 $248 $249 reversed $59 $-1 #
coedge $-1 $95 $247 $250 $251 reversed $59 $-1 #
coedge $-1 $242 $252 $95 $153 reversed $147 $-1 #
edge $-1 $253 -38.102247967217608 $254 38.102247967217608 $152 $255 forward 7 unknown #
face $-1 $256 $257 $35 $-1 $258 forward single #
loop $-1 $-1 $259 $96 #
plane-surface $-1 -21.600718791379592 -139.45117090370485 87.894229109271777 -1 0 0 0 -0.77714596973225614 0.62932038083071107 forward_v I I I I #
coedge $-1 $260 $261 $262 $263 reversed $97 $-1 #
coedge $-1 $159 $99 $264 $265 reversed $62 $-1 #
coedge $-1 $99 $158 $260 $266 reversed $62 $-1 #
coedge $-1 $262 $267 $99 $161 forward $268 $-1 #
edge $-1 $269 34.664408316728803 $270 38.123622814235027 $160 $271 forward 7 unknown #
loop $-1 $-1 $167 $100 #
plane-surface $-1 -30.324414835084042 -38.102247967217636 5.8234917404008257 0 -0.77714596973225614 0.62932038083071107 1 0 0 forward_v I I I I #
loop $-1 $-1 $272 $64 #
coedge $-1 $165 $165 $166 $273 reversed $101 $-1 #
coedge $-1 $166 $166 $165 $273 forward $103 $-1 #
coedge $-1 $167 $167 $104 $168 forward $162 $-1 #
edge $-1 $274 4.7417245671627592e-015 $274 6.2831853071796049 $167 $275 forward 7 unknown #
loop $-1 $-1 $174 $105 #
plane-surface $-1 -30.324414835084042 -38.102247967217636 5.8234917404008257 0 -0.77714596973225614 0.62932038083071107 1 0 0 forward_v I I I I #
loop $-1 $-1 $276 $67 #
coedge $-1 $172 $172 $173 $277 reversed $106 $-1 #
coedge $-1 $173 $173 $172 $277 forward $108 $-1 #
coedge $-1 $174 $174 $109 $175 forward $169 $-1 #
edge $-1 $278 4.7417245671627592e-015 $278 6.2831853071796049 $174 $279 forward 7 unknown #
face $-1 $280 $281 $38 $-1 $282 reversed single #
loop $-1 $-1 $283 $110 #
plane-surface $-1 50.666505444217847 -139.45117090370485 87.894229109271777 -1 0 0 0 -0.77714596973225614 0.62932038083071107 forward_v I I I I #
coedge $-1 $284 $285 $286 $287 reversed $111 $-1 #
coedge $-1 $181 $113 $288 $289 reversed $71 $-1 #
coedge $-1 $113 $180 $284 $290 reversed $71 $-1 #
coedge $-1 $286 $291 $113 $183 forward $281 $-1 #
edge $-1 $292 34.664408316728803 $293 38.123622814235027 $182 $294 forward 7 unknown #
loop $-1 $-1 $189 $114 #
plane-surface $-1 41.942809400513397 -38.102247967217636 5.8234917404008257 0 -0.77714596973225614 0.62932038083071107 1 0 0 forward_v I I I I #
loop $-1 $-1 $295 $73 #
coedge $-1 $187 $187 $188 $296 reversed $115 $-1 #
coedge $-1 $188 $188 $187 $296 forward $117 $-1 #
coedge $-1 $189 $189 $118 $190 forward $184 $-1 #
edge $-1 $297 4.7417245671627592e-015 $297 6.2831853071796049 $189 $298 forward 7 unknown #
loop $-1 $-1 $196 $119 #
plane-surface $-1 41.942809400513397 -38.102247967217636 5.8234917404008257 0 -0.77714596973225614 0.62932038083071107 1 0 0 forward_v I I I I #
loop $-1 $-1 $299 $76 #
coedge $-1 $194 $194 $195 $300 reversed $120 $-1 #
coedge $-1 $195 $195 $194 $300 forward $122 $-1 #
coedge $-1 $196 $196 $123 $197 forward $191 $-1 #
edge $-1 $301 4.7417245671627592e-015 $301 6.2831853071796049 $196 $302 forward 7 unknown #
face $-1 $303 $304 $41 $-1 $305 reversed single #
loop $-1 $-1 $306 $124 #
plane-surface $-1 33.70885124680315 108.31540895106096 138.4821167603375 -1 0 0 0 0.84804810408105047 0.52991925155115449 forward_v I I I I #
coedge $-1 $307 $308 $309 $310 reversed $125 $-1 #
coedge $-1 $203 $127 $311 $312 reversed $80 $-1 #
coedge $-1 $127 $202 $307 $313 reversed $80 $-1 #
coedge $-1 $309 $314 $127 $205 forward $315 $-1 #
edge $-1 $316 16.055456508312872 $317 18.888198781407986 $204 $318 forward 7 unknown #
loop $-1 $-1 $211 $128 #
plane-surface $-1 20.289272399591496 -2.279981483191321 69.374449115194736 0 0.84804810408105047 0.52991925155115449 1 0 0 forward_v I I I I #
loop $-1 $-1 $319 $82 #
coedge $-1 $209 $209 $210 $320 reversed $129 $-1 #
coedge $-1 $210 $210 $209 $320 forward $131 $-1 #
coedge $-1 $211 $211 $132 $212 forward $206 $-1 #
edge $-1 $321 -2.2612288292790901e-015 $321 6.2831853071795978 $211 $322 forward 7 unknown #
loop $-1 $-1 $218 $133 #
plane-surface $-1 20.289272399591496 -2.279981483191321 69.374449115194736 0 0.84804810408105047 0.52991925155115449 1 0 0 forward_v I I I I #
loop $-1 $-1 $323 $85 #
coedge $-1 $216 $216 $217 $324 reversed $134 $-1 #
coedge $-1 $217 $217 $216 $324 forward $136 $-1 #
coedge $-1 $218 $218 $137 $219 forward $213 $-1 #
edge $-1 $325 -2.2612288292790901e-015 $325 6.2831853071795978 $218 $326 forward 7 unknown #
face $-1 $327 $328 $33 $-1 $329 reversed single #
loop $-1 $-1 $330 $138 #
plane-surface $-1 -65.205847346415595 0 0 1 0 0 0 0 -1 forward_v I I I I #
coedge $-1 $331 $231 $332 $333 forward $139 $-1 #
coedge $-1 $334 $141 $331 $335 forward $89 $-1 #
coedge $-1 $141 $334 $336 $337 forward $89 $-1 #
coedge $-1 $234 $233 $141 $227 reversed $235 $-1 #
edge $-1 $338 -38.102247967217608 $339 38.102247967217608 $226 $340 forward 7 unknown #
coedge $-1 $143 $142 $341 $342 forward $56 $-1 #
coedge $-1 $343 $344 $142 $230 reversed $328 $-1 #
edge $-1 $237 -65.205847346415595 $345 65.205847346415595 $229 $346 forward 7 unknown #
coedge $-1 $223 $347 $143 $232 reversed $139 $-1 #
edge $-1 $348 -65.205847346415595 $236 65.205847346415595 $231 $349 forward 7 unknown #
coedge $-1 $226 $144 $347 $350 forward $235 $-1 #
coedge $-1 $144 $226 $343 $351 reversed $235 $-1 #
loop $-1 $-1 $233 $327 #
vertex $-1 $145 $352 #
vertex $-1 $145 $353 #
straight-curve $-1 65.205847346415595 0 9.2827062379070853 0 1 0 I I #
face $-1 $354 $355 $34 $-1 $356 reversed single #
loop $-1 $-1 $357 $146 #
plane-surface $-1 0 -38.102247967217608 0 0 1 0 0 0 1 forward_v I I I I #
coedge $-1 $245 $152 $358 $359 reversed $147 $-1 #
coedge $-1 $360 $149 $357 $361 reversed $93 $-1 #
coedge $-1 $149 $360 $362 $363 reversed $93 $-1 #
coedge $-1 $252 $242 $149 $246 reversed $147 $-1 #
edge $-1 $364 -38.102247967217608 $365 38.102247967217608 $245 $366 forward 7 unknown #
coedge $-1 $151 $150 $367 $368 reversed $59 $-1 #
coedge $-1 $369 $370 $150 $249 forward $371 $-1 #
edge $-1 $372 -35.507522314565136 $254 -23.889127749135781 $248 $373 forward 7 unknown #
coedge $-1 $374 $358 $151 $251 forward $240 $-1 #
edge $-1 $253 23.889127749135781 $375 35.507522314565136 $250 $376 forward 7 unknown #
coedge $-1 $152 $245 $369 $377 reversed $147 $-1 #
vertex $-1 $251 $378 #
vertex $-1 $249 $379 #
straight-curve $-1 -53.58745278098624 0 7.234838163831494 0 1 0 I I #
face $-1 $-1 $268 $35 $-1 $380 reversed single #
loop $-1 $-1 $381 $154 #
plane-surface $-1 0 0 9.2827062379070853 0 0 1 1 0 0 forward_v I I I I #
coedge $-1 $382 $383 $384 $385 reversed $155 $-1 #
coedge $-1 $386 $157 $159 $266 forward $97 $-1 #
coedge $-1 $157 $386 $382 $387 forward $97 $-1 #
coedge $-1 $384 $160 $157 $263 forward $268 $-1 #
edge $-1 $270 -23.885903461246471 $388 -6.4385113738375708 $262 $389 forward 7 unknown #
coedge $-1 $390 $391 $158 $265 forward $257 $-1 #
edge $-1 $392 -34.424554076796703 $269 -31.623337484634817 $264 $393 forward 7 unknown #
edge $-1 $270 4.5496132173526324e-014 $392 4.4511772977450237 $159 $394 forward 7 unknown #
coedge $-1 $160 $384 $390 $395 reversed $268 $-1 #
loop $-1 $-1 $384 $256 #
vertex $-1 $395 $396 #
vertex $-1 $161 $397 #
straight-curve $-1 -39.048110878788492 -38.102247967217608 43.947114554635888 0 0 -1 I I #
coedge $-1 $272 $272 $-1 $398 reversed $164 $-1 #
edge $-1 $399 0 $399 6.2831853071796004 $165 $400 forward 7 unknown #
vertex $-1 $168 $401 #
ellipse-curve $-1 -34.063141710957382 -36.701639671136668 7.5530989891539715 0 -0.77714596973225614 0.62932038083071107 0.5 0 0 1 I I #
coedge $-1 $276 $276 $-1 $402 reversed $171 $-1 #
edge $-1 $403 0 $403 6.2831853071796004 $172 $404 forward 7 unknown #
vertex $-1 $175 $405 #
ellipse-curve $-1 -26.585687959210702 -36.701639671136668 7.5530989891539715 0 -0.77714596973225614 0.62932038083071107 0.5 0 0 1 I I #
face $-1 $-1 $406 $38 $-1 $407 forward single #
loop $-1 $-1 $182 $176 #
plane-surface $-1 0 -38.102247967217608 0 0 1 0 0 0 1 forward_v I I I I #
coedge $-1 $408 $409 $410 $411 reversed $177 $-1 #
coedge $-1 $412 $179 $181 $290 forward $111 $-1 #
coedge $-1 $179 $412 $408 $413 forward $111 $-1 #
coedge $-1 $410 $182 $179 $287 forward $281 $-1 #
edge $-1 $293 12.247708656552248 $414 29.695100743961149 $286 $415 forward 7 unknown #
coedge $-1 $416 $417 $180 $289 forward $406 $-1 #
edge $-1 $418 -34.424554076796703 $292 -31.623337484634817 $288 $419 forward 7 unknown #
edge $-1 $293 4.5496132173526324e-014 $418 4.4511772977450237 $181 $420 forward 7 unknown #
coedge $-1 $182 $410 $416 $421 reversed $281 $-1 #
vertex $-1 $421 $422 #
vertex $-1 $183 $423 #
straight-curve $-1 33.219113356808947 -38.102247967217608 43.947114554635888 0 0 -1 I I #
coedge $-1 $295 $295 $-1 $424 reversed $186 $-1 #
edge $-1 $425 0 $425 6.2831853071796004 $187 $426 forward 7 unknown #
vertex $-1 $190 $427 #
ellipse-curve $-1 38.204082524640057 -36.701639671136668 7.5530989891539715 0 -0.77714596973225614 0.62932038083071107 0.5 0 0 1 I I #
coedge $-1 $299 $299 $-1 $428 reversed $193 $-1 #
edge $-1 $429 0 $429 6.2831853071796004 $194 $430 forward 7 unknown #
vertex $-1 $197 $431 #
ellipse-curve $-1 45.681536276386737 -36.701639671136668 7.5530989891539715 0 -0.77714596973225614 0.62932038083071107 0.5 0 0 1 I I #
face $-1 $-1 $315 $41 $-1 $432 forward single #
loop $-1 $-1 $433 $198 #
plane-surface $-1 0 38.102247967217608 0 0 -1 0 0 0 -1 forward_v I I I I #
coedge $-1 $434 $435 $436 $437 reversed $199 $-1 #
coedge $-1 $438 $201 $203 $313 forward $125 $-1 #
coedge $-1 $201 $438 $434 $439 forward $125 $-1 #
coedge $-1 $436 $204 $201 $310 forward $315 $-1 #
edge $-1 $317 -3.2749426474159051 $440 23.564215047007401 $309 $441 forward 7 unknown #
coedge $-1 $442 $443 $202 $312 forward $304 $-1 #
edge $-1 $444 -64.491687564623959 $316 -59.958352142261667 $311 $445 forward 7 unknown #
edge $-1 $317 70.858884759141574 $444 76.204495934435258 $203 $446 forward 7 unknown #
coedge $-1 $204 $436 $442 $447 forward $315 $-1 #
loop $-1 $-1 $436 $303 #
vertex $-1 $312 $448 #
vertex $-1 $205 $449 #
straight-curve $-1 6.869693552379843 54.15770447553048 9.2827062379070924 0 -1 0 I I #
coedge $-1 $319 $319 $-1 $450 reversed $208 $-1 #
edge $-1 $451 0 $451 6.2831853071796004 $209 $452 forward 7 unknown #
vertex $-1 $212 $453 #
ellipse-curve $-1 14.53802432221508 36.685876830670047 7.0160385267259526 0 0.84804810408105047 0.52991925155115449 1 0 0 1 I I #
coedge $-1 $323 $323 $-1 $454 reversed $215 $-1 #
edge $-1 $455 0 $455 6.2831853071796004 $216 $456 forward 7 unknown #
vertex $-1 $219 $457 #
ellipse-curve $-1 26.040520476967927 36.685876830670047 7.0160385267259526 0 0.84804810408105047 0.52991925155115449 1 0 0 1 I I #
face $-1 $-1 $235 $33 $-1 $458 reversed single #
loop $-1 $-1 $343 $220 #
plane-surface $-1 0 38.102247967217608 0 0 -1 0 0 0 -1 forward_v I I I I #
coedge $-1 $459 $341 $344 $460 forward $221 $-1 #
coedge $-1 $347 $223 $224 $335 reversed $139 $-1 #
coedge $-1 $341 $459 $223 $333 reversed $221 $-1 #
edge $-1 $348 -9.2827062379070853 $461 9.2827062379070853 $332 $462 forward 7 unknown #
coedge $-1 $225 $224 $459 $463 forward $89 $-1 #
edge $-1 $339 -65.205847346415595 $461 65.205847346415595 $331 $464 forward 7 unknown #
coedge $-1 $344 $343 $225 $337 reversed $328 $-1 #
edge $-1 $465 -65.205847346415595 $338 65.205847346415595 $336 $466 forward 7 unknown #
vertex $-1 $227 $467 #
vertex $-1 $350 $468 #
straight-curve $-1 65.205847346415595 0 -9.2827062379070853 0 -1 0 I I #
coedge $-1 $330 $332 $228 $342 reversed $221 $-1 #
edge $-1 $345 -38.102247967217608 $348 38.102247967217608 $341 $469 forward 7 unknown #
coedge $-1 $336 $229 $234 $351 forward $328 $-1 #
coedge $-1 $229 $336 $330 $460 reversed $328 $-1 #
vertex $-1 $230 $470 #
straight-curve $-1 0 38.102247967217608 9.2827062379070853 -1 0 0 I I #
coedge $-1 $231 $331 $233 $350 reversed $139 $-1 #
vertex $-1 $342 $471 #
straight-curve $-1 0 -38.102247967217608 9.2827062379070853 1 0 0 I I #
edge $-1 $236 -9.2827062379070853 $339 9.2827062379070853 $233 $472 forward 7 unknown #
edge $-1 $237 -9.2827062379070853 $338 9.2827062379070853 $234 $473 forward 7 unknown #
point $-1 65.205847346415595 -38.102247967217608 9.2827062379070853 #
point $-1 65.205847346415595 38.102247967217608 9.2827062379070853 #
face $-1 $-1 $371 $34 $-1 $474 reversed single #
loop $-1 $-1 $475 $239 #
plane-surface $-1 -65.205847346415595 0 0 1 0 0 0 0 -1 forward_v I I I I #
coedge $-1 $358 $374 $243 $361 forward $240 $-1 #
coedge $-1 $250 $357 $242 $359 forward $240 $-1 #
edge $-1 $365 1.367419081915747 $253 4.367419081915747 $358 $476 forward 7 unknown #
coedge $-1 $244 $243 $475 $477 reversed $93 $-1 #
edge $-1 $478 -35.507522314565136 $365 -23.889127749135781 $357 $479 forward 7 unknown #
coedge $-1 $370 $369 $244 $363 forward $371 $-1 #
edge $-1 $364 23.889127749135781 $480 35.507522314565136 $362 $481 forward 7 unknown #
vertex $-1 $363 $482 #
vertex $-1 $361 $483 #
straight-curve $-1 -53.58745278098624 0 4.234838163831494 0 -1 0 I I #
coedge $-1 $484 $485 $247 $368 forward $355 $-1 #
edge $-1 $375 -38.102247967217608 $372 38.102247967217608 $367 $486 forward 7 unknown #
coedge $-1 $362 $248 $252 $377 forward $371 $-1 #
coedge $-1 $248 $362 $484 $487 reversed $371 $-1 #
loop $-1 $-1 $362 $354 #
vertex $-1 $487 $488 #
straight-curve $-1 -29.698325031850459 38.102247967217608 7.234838163831494 1 0 0 I I #
coedge $-1 $357 $250 $485 $489 forward $240 $-1 #
vertex $-1 $489 $490 #
straight-curve $-1 -29.698325031850459 -38.102247967217608 7.234838163831494 -1 0 0 I I #
edge $-1 $254 -4.367419081915747 $364 -1.367419081915747 $369 $491 forward 7 unknown #
point $-1 -53.58745278098624 -38.102247967217608 7.234838163831494 #
point $-1 -53.58745278098624 38.102247967217608 7.234838163831494 #
plane-surface $-1 0 -38.102247967217608 0 0 1 0 0 0 1 forward_v I I I I #
coedge $-1 $391 $390 $383 $492 forward $257 $-1 #
coedge $-1 $383 $259 $261 $387 reversed $155 $-1 #
coedge $-1 $259 $382 $381 $492 reversed $155 $-1 #
coedge $-1 $267 $262 $259 $385 forward $268 $-1 #
edge $-1 $388 -38.123622814235027 $493 -34.664408316728803 $384 $494 forward 7 unknown #
coedge $-1 $261 $260 $391 $495 reversed $97 $-1 #
edge $-1 $496 -4.4511772977450237 $388 -4.5496132173526324e-014 $382 $497 forward 7 unknown #
vertex $-1 $263 $498 #
straight-curve $-1 -15.162207417542021 -38.102247967217608 5.8234917404008586 1 0 0 I I #
coedge $-1 $381 $264 $267 $395 forward $257 $-1 #
coedge $-1 $264 $381 $386 $495 forward $257 $-1 #
vertex $-1 $265 $499 #
straight-curve $-1 -39.048110878788492 -69.725585451852425 9.2827062379070853 0 -1 0 I I #
straight-curve $-1 -39.048110878788492 -38.102247967217636 5.8234917404008257 0 0.62932038083071107 0.77714596973225614 I I #
edge $-1 $269 -39.048110878788492 $493 -21.600718791379592 $267 $500 forward 7 unknown #
point $-1 -39.048110878788492 -38.102247967217608 9.2827062379070853 #
point $-1 -39.048110878788492 -38.102247967217608 5.8234917404008613 #
edge $-1 $501 1 $501 0 $272 $-1 forward 7 unknown #
vertex $-1 $273 $502 #
ellipse-curve $-1 -34.063141710957382 -35.437007564074861 6.5290201285236176 0 -0.77714596973225614 0.62932038083071107 0.5 0 0 1 I I #
point $-1 -33.563141710957382 -36.701639671136647 7.5530989891539573 #
edge $-1 $503 1 $503 0 $276 $-1 forward 7 unknown #
vertex $-1 $277 $504 #
ellipse-curve $-1 -26.585687959210702 -35.437007564074861 6.5290201285236176 0 -0.77714596973225614 0.62932038083071107 0.5 0 0 1 I I #
point $-1 -26.085687959210702 -36.701639671136647 7.5530989891539573 #
loop $-1 $-1 $288 $280 #
plane-surface $-1 0 0 9.2827062379070853 0 0 1 1 0 0 forward_v I I I I #
coedge $-1 $409 $283 $285 $413 reversed $177 $-1 #
coedge $-1 $283 $408 $505 $506 reversed $177 $-1 #
coedge $-1 $291 $286 $283 $411 forward $281 $-1 #
edge $-1 $414 -38.123622814235027 $507 -34.664408316728803 $410 $508 forward 7 unknown #
coedge $-1 $285 $284 $417 $509 reversed $111 $-1 #
edge $-1 $510 -4.4511772977450237 $414 -4.5496132173526324e-014 $408 $511 forward 7 unknown #
vertex $-1 $287 $512 #
straight-curve $-1 20.971404700256699 -38.102247967217608 5.8234917404008586 1 0 0 I I #
coedge $-1 $505 $288 $291 $421 forward $406 $-1 #
coedge $-1 $288 $505 $412 $509 forward $406 $-1 #
vertex $-1 $289 $513 #
straight-curve $-1 33.219113356808947 -69.725585451852425 9.2827062379070853 0 -1 0 I I #
straight-curve $-1 33.219113356808947 -38.102247967217636 5.8234917404008257 0 0.62932038083071107 0.77714596973225614 I I #
edge $-1 $292 33.219113356808947 $507 50.666505444217847 $291 $514 forward 7 unknown #
point $-1 33.219113356808947 -38.102247967217608 9.2827062379070853 #
point $-1 33.219113356808947 -38.102247967217608 5.8234917404008613 #
edge $-1 $515 1 $515 0 $295 $-1 forward 7 unknown #
vertex $-1 $296 $516 #
ellipse-curve $-1 38.204082524640057 -35.437007564074861 6.5290201285236176 0 -0.77714596973225614 0.62932038083071107 0.5 0 0 1 I I #
point $-1 38.704082524640057 -36.701639671136647 7.5530989891539573 #
edge $-1 $517 1 $517 0 $299 $-1 forward 7 unknown #
vertex $-1 $300 $518 #
ellipse-curve $-1 45.681536276386737 -35.437007564074861 6.5290201285236176 0 -0.77714596973225614 0.62932038083071107 0.5 0 0 1 I I #
point $-1 46.181536276386737 -36.701639671136647 7.5530989891539573 #
plane-surface $-1 0 0 9.2827062379070853 0 0 1 1 0 0 forward_v I I I I #
coedge $-1 $443 $442 $435 $519 forward $304 $-1 #
coedge $-1 $435 $306 $308 $439 reversed $199 $-1 #
coedge $-1 $306 $434 $433 $519 reversed $199 $-1 #
coedge $-1 $314 $309 $306 $437 forward $315 $-1 #
edge $-1 $440 -18.888198781407986 $520 -16.055456508312872 $436 $521 forward 7 unknown #
coedge $-1 $308 $307 $443 $522 reversed $125 $-1 #
edge $-1 $523 -76.204495934435258 $440 -70.858884759141574 $434 $524 forward 7 unknown #
vertex $-1 $310 $525 #
straight-curve $-1 10.144636199795748 35.269505694122486 9.2827062379070853 1 0 0 I I #
coedge $-1 $433 $311 $314 $447 reversed $304 $-1 #
coedge $-1 $311 $433 $438 $522 forward $304 $-1 #
vertex $-1 $312 $526 #
straight-curve $-1 6.869693552379843 38.102247967217608 69.241058380168752 0 0 1 I I #
straight-curve $-1 6.869693552379843 -2.279981483191321 69.374449115194736 0 0.52991925155115449 -0.84804810408105047 I I #
edge $-1 $520 -33.70885124680315 $316 -6.869693552379843 $442 $527 forward 7 unknown #
point $-1 6.869693552379843 38.102247967217608 9.2827062379070853 #
point $-1 6.869693552379843 35.269505694122493 9.2827062379070782 #
edge $-1 $528 1 $528 0 $319 $-1 forward 7 unknown #
vertex $-1 $320 $529 #
ellipse-curve $-1 14.53802432221508 34.893062712264395 5.8957639677428402 0 0.84804810408105047 0.52991925155115449 1 0 0 1 I I #
point $-1 15.53802432221508 36.685876830670061 7.0160385267259642 #
edge $-1 $530 1 $530 0 $323 $-1 forward 7 unknown #
vertex $-1 $324 $531 #
ellipse-curve $-1 26.040520476967927 34.893062712264395 5.8957639677428402 0 0.84804810408105047 0.52991925155115449 1 0 0 1 I I #
point $-1 27.040520476967927 36.685876830670061 7.0160385267259642 #
plane-surface $-1 65.205847346415595 0 0 -1 0 0 0 0 1 forward_v I I I I #
coedge $-1 $332 $330 $334 $463 reversed $221 $-1 #
edge $-1 $345 -9.2827062379070853 $465 9.2827062379070853 $344 $532 forward 7 unknown #
vertex $-1 $463 $533 #
straight-curve $-1 -65.205847346415595 -38.102247967217608 0 0 0 -1 I I #
edge $-1 $461 -38.102247967217608 $465 38.102247967217608 $459 $534 forward 7 unknown #
straight-curve $-1 0 -38.102247967217608 -9.2827062379070853 -1 0 0 I I #
vertex $-1 $337 $535 #
straight-curve $-1 0 38.102247967217608 -9.2827062379070853 1 0 0 I I #
point $-1 65.205847346415595 38.102247967217608 -9.2827062379070853 #
point $-1 65.205847346415595 -38.102247967217608 -9.2827062379070853 #
straight-curve $-1 -65.205847346415595 0 9.2827062379070853 0 -1 0 I I #
point $-1 -65.205847346415595 38.102247967217608 9.2827062379070853 #
point $-1 -65.205847346415595 -38.102247967217608 9.2827062379070853 #
straight-curve $-1 65.205847346415595 -38.102247967217608 0 0 0 -1 I I #
straight-curve $-1 65.205847346415595 38.102247967217608 0 0 0 -1 I I #
plane-surface $-1 0 38.102247967217608 0 0 -1 0 0 0 -1 forward_v I I I I #
coedge $-1 $485 $484 $360 $477 forward $355 $-1 #
straight-curve $-1 -53.58745278098624 -38.102247967217608 2.867419081915747 0 0 1 I I #
edge $-1 $480 -38.102247967217608 $478 38.102247967217608 $475 $536 forward 7 unknown #
vertex $-1 $361 $537 #
straight-curve $-1 -29.698325031850459 -38.102247967217608 4.234838163831494 1 0 0 I I #
vertex $-1 $363 $538 #
straight-curve $-1 -29.698325031850459 38.102247967217608 4.234838163831494 -1 0 0 I I #
point $-1 -53.58745278098624 38.102247967217608 4.234838163831494 #
point $-1 -53.58745278098624 -38.102247967217608 4.234838163831494 #
coedge $-1 $475 $367 $370 $487 forward $355 $-1 #
coedge $-1 $367 $475 $374 $489 reversed $355 $-1 #
straight-curve $-1 -65.205847346415595 0 7.234838163831494 0 1 0 I I #
edge $-1 $372 -7.234838163831494 $480 -4.234838163831494 $370 $539 forward 7 unknown #
point $-1 -65.205847346415595 38.102247967217608 7.234838163831494 #
edge $-1 $375 -7.234838163831494 $478 -4.234838163831494 $485 $540 forward 7 unknown #
point $-1 -65.205847346415595 -38.102247967217608 7.234838163831494 #
straight-curve $-1 -53.58745278098624 38.102247967217608 2.867419081915747 0 0 -1 I I #
edge $-1 $493 31.623337484634817 $496 34.424554076796703 $381 $541 forward 7 unknown #
vertex $-1 $492 $542 #
straight-curve $-1 -21.600718791379592 -38.102247967217608 43.947114554635888 0 0 1 I I #
edge $-1 $496 6.4385113738375708 $392 23.885903461246471 $391 $543 forward 7 unknown #
vertex $-1 $495 $544 #
straight-curve $-1 -21.600718791379592 -38.102247967217636 5.8234917404008257 0 -0.62932038083071107 -0.77714596973225614 I I #
point $-1 -21.600718791379592 -38.102247967217608 5.8234917404008613 #
point $-1 -39.048110878788492 -35.301031375055722 9.2827062379070853 #
straight-curve $-1 0 -38.102247967217608 9.2827062379070853 1 0 0 I I #
vertex $-1 $398 $545 #
point $-1 -33.563141710957382 -35.437007564074861 6.5290201285236176 #
vertex $-1 $402 $546 #
point $-1 -26.085687959210702 -35.437007564074861 6.5290201285236176 #
coedge $-1 $417 $416 $409 $506 forward $406 $-1 #
edge $-1 $507 31.623337484634817 $510 34.424554076796703 $505 $547 forward 7 unknown #
vertex $-1 $506 $548 #
straight-curve $-1 50.666505444217847 -38.102247967217608 43.947114554635888 0 0 1 I I #
edge $-1 $510 -29.695100743961149 $418 -12.247708656552248 $417 $549 forward 7 unknown #
vertex $-1 $509 $550 #
straight-curve $-1 50.666505444217847 -38.102247967217636 5.8234917404008257 0 -0.62932038083071107 -0.77714596973225614 I I #
point $-1 50.666505444217847 -38.102247967217608 5.8234917404008613 #
point $-1 33.219113356808947 -35.301031375055722 9.2827062379070853 #
straight-curve $-1 0 -38.102247967217608 9.2827062379070853 1 0 0 I I #
vertex $-1 $424 $551 #
point $-1 38.704082524640057 -35.437007564074861 6.5290201285236176 #
vertex $-1 $428 $552 #
point $-1 46.181536276386737 -35.437007564074861 6.5290201285236176 #
edge $-1 $520 59.958352142261667 $523 64.491687564623959 $433 $553 forward 7 unknown #
vertex $-1 $447 $554 #
straight-curve $-1 33.70885124680315 54.15770447553048 9.2827062379070924 0 1 0 I I #
edge $-1 $523 -23.564215047007401 $444 3.2749426474159051 $443 $555 forward 7 unknown #
vertex $-1 $522 $556 #
straight-curve $-1 33.70885124680315 -2.279981483191321 69.374449115194736 0 -0.52991925155115449 0.84804810408105047 I I #
point $-1 33.70885124680315 35.269505694122493 9.2827062379070782 #
point $-1 6.869693552379843 38.102247967217608 4.7493708155447933 #
straight-curve $-1 0 38.102247967217608 9.2827062379070853 -1 0 0 I I #
vertex $-1 $450 $557 #
point $-1 15.53802432221508 34.893062712264395 5.8957639677428402 #
vertex $-1 $454 $558 #
point $-1 27.040520476967927 34.893062712264395 5.8957639677428402 #
straight-curve $-1 -65.205847346415595 38.102247967217608 0 0 0 -1 I I #
point $-1 -65.205847346415595 -38.102247967217608 -9.2827062379070853 #
straight-curve $-1 -65.205847346415595 0 -9.2827062379070853 0 1 0 I I #
point $-1 -65.205847346415595 38.102247967217608 -9.2827062379070853 #
straight-curve $-1 -65.205847346415595 0 4.234838163831494 0 -1 0 I I #
point $-1 -65.205847346415595 -38.102247967217608 4.234838163831494 #
point $-1 -65.205847346415595 38.102247967217608 4.234838163831494 #
straight-curve $-1 -65.205847346415595 38.102247967217608 0 0 0 -1 I I #
straight-curve $-1 -65.205847346415595 -38.102247967217608 0 0 0 -1 I I #
straight-curve $-1 -21.600718791379592 -69.725585451852425 9.2827062379070853 0 1 0 I I #
point $-1 -21.600718791379592 -38.102247967217608 9.2827062379070853 #
straight-curve $-1 -15.162207417542021 -35.301031375055722 9.2827062379070853 -1 0 0 I I #
point $-1 -21.600718791379592 -35.301031375055722 9.2827062379070853 #
point $-1 -34.063141710957382 -35.048434579208731 6.2143599381082613 #
point $-1 -26.585687959210702 -35.048434579208731 6.2143599381082613 #
straight-curve $-1 50.666505444217847 -69.725585451852425 9.2827062379070853 0 1 0 I I #
point $-1 50.666505444217847 -38.102247967217608 9.2827062379070853 #
straight-curve $-1 20.971404700256699 -35.301031375055722 9.2827062379070853 -1 0 0 I I #
point $-1 50.666505444217847 -35.301031375055722 9.2827062379070853 #
point $-1 38.204082524640057 -35.048434579208731 6.2143599381082613 #
point $-1 45.681536276386737 -35.048434579208731 6.2143599381082613 #
straight-curve $-1 33.70885124680315 38.102247967217608 69.241058380168752 0 0 -1 I I #
point $-1 33.70885124680315 38.102247967217608 9.2827062379070853 #
straight-curve $-1 10.144636199795748 38.102247967217608 4.7493708155447898 -1 0 0 I I #
point $-1 33.70885124680315 38.102247967217608 4.7493708155447933 #
point $-1 14.53802432221508 34.045014608183351 5.3658447161916856 #
point $-1 26.040520476967927 34.045014608183351 5.3658447161916856 #
End-of-ACIS-data 