500 0 16 0           
7 Unknown 11 ACIS 5.0 NT 24 Fri Mar 26 00:58:37 1999 
-1 9.9999999999999995e-007 1e-010 
body $-1 $16 $-1 $17 #
body $-1 $18 $-1 $19 #
body $-1 $20 $-1 $21 #
body $-1 $22 $-1 $23 #
body $-1 $24 $-1 $25 #
body $-1 $26 $-1 $27 #
body $-1 $28 $-1 $29 #
body $-1 $30 $-1 $31 #
body $-1 $32 $-1 $33 #
body $-1 $34 $-1 $35 #
body $-1 $36 $-1 $37 #
body $-1 $38 $-1 $39 #
body $-1 $40 $-1 $41 #
body $-1 $42 $-1 $43 #
body $-1 $44 $-1 $45 #
body $-1 $46 $-1 $47 #
lump $-1 $-1 $48 $0 #
transform $-1 1 0 0 0 1 0 0 0 1 46.338084047975094 23.039928370812703 8.5751959729681175 1 rotate no_reflect no_shear #
lump $-1 $-1 $49 $1 #
transform $-1 1 0 0 0 1 0 0 0 1 46.338084047975094 23.039928370812703 8.5751959729681175 1 rotate no_reflect no_shear #
lump $-1 $-1 $50 $2 #
transform $-1 1 0 0 0 1 0 0 0 1 46.338084047975094 23.039928370812703 8.5751959729681175 1 rotate no_reflect no_shear #
lump $-1 $-1 $51 $3 #
transform $-1 1 0 0 0 1 0 0 0 1 46.338084047975094 23.039928370812703 8.5751959729681175 1 rotate no_reflect no_shear #
lump $-1 $-1 $52 $4 #
transform $-1 1 0 0 0 1 0 0 0 1 46.338084047975094 23.039928370812703 8.5751959729681175 1 rotate no_reflect no_shear #
lump $-1 $-1 $53 $5 #
transform $-1 1 0 0 0 1 0 0 0 1 46.338084047975094 23.039928370812703 8.5751959729681175 1 rotate no_reflect no_shear #
lump $-1 $-1 $54 $6 #
transform $-1 1 0 0 0 1 0 0 0 1 46.338084047975094 23.039928370812703 8.5751959729681175 1 rotate no_reflect no_shear #
lump $-1 $-1 $55 $7 #
transform $-1 1 0 0 0 1 0 0 0 1 46.338084047975094 23.039928370812703 8.5751959729681175 1 rotate no_reflect no_shear #
lump $-1 $-1 $56 $8 #
transform $-1 1 0 0 0 1 0 0 0 1 46.338084047975094 23.039928370812703 8.5751959729681175 1 rotate no_reflect no_shear #
lump $-1 $-1 $57 $9 #
transform $-1 1 0 0 0 1 0 0 0 1 46.338084047975094 23.039928370812703 8.5751959729681175 1 rotate no_reflect no_shear #
lump $-1 $-1 $58 $10 #
transform $-1 1 0 0 0 1 0 0 0 1 46.338084047975094 23.039928370812703 8.5751959729681175 1 rotate no_reflect no_shear #
lump $-1 $-1 $59 $11 #
transform $-1 1 0 0 0 1 0 0 0 1 46.338084047975094 23.039928370812703 8.5751959729681175 1 rotate no_reflect no_shear #
lump $-1 $-1 $60 $12 #
transform $-1 1 0 0 0 1 0 0 0 1 46.338084047975094 23.039928370812703 8.5751959729681175 1 rotate no_reflect no_shear #
lump $-1 $-1 $61 $13 #
transform $-1 1 0 0 0 1 0 0 0 1 46.338084047975094 23.039928370812703 8.5751959729681175 1 rotate no_reflect no_shear #
lump $-1 $-1 $62 $14 #
transform $-1 1 0 0 0 1 0 0 0 1 46.338084047975094 23.039928370812703 8.5751959729681175 1 rotate no_reflect no_shear #
lump $-1 $-1 $63 $15 #
transform $-1 1 0 0 0 1 0 0 0 1 46.338084047975094 23.039928370812703 8.5751959729681175 1 rotate no_reflect no_shear #
shell $-1 $-1 $-1 $64 $-1 $16 #
shell $-1 $-1 $-1 $65 $-1 $18 #
shell $-1 $-1 $-1 $66 $-1 $20 #
shell $-1 $-1 $-1 $67 $-1 $22 #
shell $-1 $-1 $-1 $68 $-1 $24 #
shell $-1 $-1 $-1 $69 $-1 $26 #
shell $-1 $-1 $-1 $70 $-1 $28 #
shell $-1 $-1 $-1 $71 $-1 $30 #
shell $-1 $-1 $-1 $72 $-1 $32 #
shell $-1 $-1 $-1 $73 $-1 $34 #
shell $-1 $-1 $-1 $74 $-1 $36 #
shell $-1 $-1 $-1 $75 $-1 $38 #
shell $-1 $-1 $-1 $76 $-1 $40 #
shell $-1 $-1 $-1 $77 $-1 $42 #
shell $-1 $-1 $-1 $78 $-1 $44 #
shell $-1 $-1 $-1 $79 $-1 $46 #
face $-1 $80 $81 $48 $-1 $82 forward single #
face $-1 $83 $84 $49 $-1 $85 forward single #
face $-1 $86 $87 $50 $-1 $88 reversed single #
face $-1 $89 $90 $51 $-1 $91 forward single #
face $-1 $92 $93 $52 $-1 $94 forward single #
face $-1 $95 $96 $53 $-1 $97 forward single #
face $-1 $98 $99 $54 $-1 $100 reversed single #
face $-1 $101 $102 $55 $-1 $103 forward single #
face $-1 $104 $105 $56 $-1 $106 forward single #
face $-1 $107 $108 $57 $-1 $109 forward single #
face $-1 $110 $111 $58 $-1 $112 reversed single #
face $-1 $113 $114 $59 $-1 $115 forward single #
face $-1 $116 $117 $60 $-1 $118 forward single #
face $-1 $119 $120 $61 $-1 $121 reversed single #
face $-1 $122 $123 $62 $-1 $124 forward single #
face $-1 $125 $126 $63 $-1 $127 forward single #
face $-1 $128 $129 $48 $-1 $130 reversed single #
loop $-1 $-1 $131 $64 #
plane-surface $-1 0 0 8.5751959729681175 0 0 1 1 0 0 forward_v I I I I #
face $-1 $132 $133 $49 $-1 $134 reversed single #
loop $-1 $-1 $135 $65 #
plane-surface $-1 0 -17.406639355039417 1.0247503178044108 0 0 1 1 0 0 forward_v I I I I #
face $-1 $136 $137 $50 $-1 $138 reversed single #
loop $-1 $-1 $139 $66 #
plane-surface $-1 -124.06285932182121 -5.2164624562206434 53.861827107255394 0 1 0 -0.83867057594974714 0 0.54463902268945019 forward_v I I I I #
face $-1 $140 $141 $51 $-1 $142 forward single #
loop $-1 $143 $144 $67 #
cone-surface $-1 -44.019516347034099 -3.6886848421947711 5.569345365380669 0.83867057594974714 0 -0.54463902268945019 0.2723195113447251 0 0.41933528797487357 1 I I 0 1 0.5 forward I I I I #
face $-1 $145 $146 $52 $-1 $147 forward single #
loop $-1 $148 $149 $68 #
cone-surface $-1 -44.019516347034099 -1.3970184211559626 5.569345365380669 0.83867057594974714 0 -0.54463902268945019 0.2723195113447251 0 0.41933528797487357 1 I I 0 1 0.5 forward I I I I #
face $-1 $150 $151 $53 $-1 $152 forward single #
loop $-1 $153 $154 $69 #
cone-surface $-1 -44.019516347034099 0.89464799988284938 5.569345365380669 0.83867057594974714 0 -0.54463902268945019 0.2723195113447251 0 0.41933528797487357 1 I I 0 1 0.5 forward I I I I #
face $-1 $155 $156 $54 $-1 $157 reversed single #
loop $-1 $-1 $158 $70 #
plane-surface $-1 -124.06285932182121 12.19017689881877 53.861827107255394 0 1 0 -0.83867057594974714 0 0.54463902268945019 forward_v I I I I #
face $-1 $159 $160 $55 $-1 $161 forward single #
loop $-1 $162 $163 $71 #
cone-surface $-1 -44.019516347034099 13.717954512844642 5.569345365380669 0.83867057594974714 0 -0.54463902268945019 0.2723195113447251 0 0.41933528797487357 1 I I 0 1 0.5 forward I I I I #
face $-1 $164 $165 $56 $-1 $166 forward single #
loop $-1 $167 $168 $72 #
cone-surface $-1 -44.019516347034099 16.009620933883454 5.569345365380669 0.83867057594974714 0 -0.54463902268945019 0.2723195113447251 0 0.41933528797487357 1 I I 0 1 0.5 forward I I I I #
face $-1 $169 $170 $57 $-1 $171 forward single #
loop $-1 $172 $173 $73 #
cone-surface $-1 -44.019516347034099 18.301287354922266 5.569345365380669 0.83867057594974714 0 -0.54463902268945019 0.2723195113447251 0 0.41933528797487357 1 I I 0 1 0.5 forward I I I I #
face $-1 $174 $175 $58 $-1 $176 reversed single #
loop $-1 $-1 $177 $74 #
plane-surface $-1 50.912149565807916 5.633289015773288 133.85289621368796 0 -1 0 -0.73135370988377701 0 -0.68199835119979291 forward_v I I I I #
face $-1 $178 $179 $59 $-1 $180 forward single #
loop $-1 $181 $182 $75 #
cone-surface $-1 43.055696217229382 -0.023537733631624036 5.1422209937878405 -0.73135370988377701 0 -0.68199835119979291 0.34099917559989645 0 -0.36567685494188851 1 I I 0 1 0.5 forward I I I I #
face $-1 $183 $184 $60 $-1 $185 forward single #
loop $-1 $186 $187 $76 #
cone-surface $-1 43.055696217229382 3.3705583160113228 5.1422209937878405 -0.73135370988377701 0 -0.68199835119979291 0.34099917559989645 0 -0.36567685494188851 1 I I 0 1 0.5 forward I I I I #
face $-1 $188 $189 $61 $-1 $190 reversed single #
loop $-1 $-1 $191 $77 #
plane-surface $-1 50.912149565807916 13.552846464940169 133.85289621368796 0 -1 0 -0.73135370988377701 0 -0.68199835119979291 forward_v I I I I #
face $-1 $192 $193 $62 $-1 $194 forward single #
loop $-1 $195 $196 $78 #
cone-surface $-1 43.055696217229382 7.8960197155352532 5.1422209937878405 -0.73135370988377701 0 -0.68199835119979291 0.34099917559989645 0 -0.36567685494188851 1 I I 0 1 0.5 forward I I I I #
face $-1 $197 $198 $63 $-1 $199 forward single #
loop $-1 $200 $201 $79 #
cone-surface $-1 43.055696217229382 11.2901157651782 5.1422209937878405 -0.73135370988377701 0 -0.68199835119979291 0.34099917559989645 0 -0.36567685494188851 1 I I 0 1 0.5 forward I I I I #
face $-1 $202 $203 $48 $-1 $204 reversed single #
loop $-1 $-1 $205 $80 #
plane-surface $-1 0 0 -8.5751959729681175 0 0 1 1 0 0 forward_v I I I I #
coedge $-1 $206 $207 $208 $209 forward $81 $-1 #
face $-1 $210 $211 $49 $-1 $212 reversed single #
loop $-1 $-1 $213 $83 #
plane-surface $-1 0 -17.406639355039417 -1.9752496821955883 0 0 1 1 0 0 forward_v I I I I #
coedge $-1 $214 $215 $216 $217 reversed $84 $-1 #
face $-1 $218 $219 $50 $-1 $220 reversed single #
loop $-1 $-1 $221 $86 #
plane-surface $-1 -46.338084047975087 -1.3970184211559591 3.3867694888738811 -0.83867057594974714 0 0.54463902268945019 0.54463902268945019 0 0.83867057594974714 forward_v I I I I #
coedge $-1 $222 $223 $224 $225 reversed $87 $-1 #
face $-1 $-1 $226 $51 $-1 $227 forward single #
loop $-1 $228 $229 $89 #
cone-surface $-1 -43.175982725659672 -3.6886848421947711 5.0215482441679793 0.83867057594974714 0 -0.54463902268945019 0.13615975567236255 0 0.20966764398743679 1 I I -0.70710678118654746 0.70710678118654746 0.25 forward I I I I #
loop $-1 $-1 $230 $67 #
coedge $-1 $144 $144 $231 $232 reversed $90 $-1 #
face $-1 $-1 $233 $52 $-1 $234 forward single #
loop $-1 $235 $236 $92 #
cone-surface $-1 -43.175982725659672 -1.3970184211559626 5.0215482441679793 0.83867057594974714 0 -0.54463902268945019 0.13615975567236255 0 0.20966764398743679 1 I I -0.70710678118654746 0.70710678118654746 0.25 forward I I I I #
loop $-1 $-1 $237 $68 #
coedge $-1 $149 $149 $238 $239 reversed $93 $-1 #
face $-1 $-1 $240 $53 $-1 $241 forward single #
loop $-1 $242 $243 $95 #
cone-surface $-1 -43.175982725659672 0.89464799988284938 5.0215482441679793 0.83867057594974714 0 -0.54463902268945019 0.13615975567236255 0 0.20966764398743679 1 I I -0.70710678118654746 0.70710678118654746 0.25 forward I I I I #
loop $-1 $-1 $244 $69 #
coedge $-1 $154 $154 $245 $246 reversed $96 $-1 #
face $-1 $247 $248 $54 $-1 $249 reversed single #
loop $-1 $-1 $250 $98 #
plane-surface $-1 -46.338084047975087 16.009620933883454 3.3867694888738811 -0.83867057594974714 0 0.54463902268945019 0.54463902268945019 0 0.83867057594974714 forward_v I I I I #
coedge $-1 $251 $252 $253 $254 reversed $99 $-1 #
face $-1 $-1 $255 $55 $-1 $256 forward single #
loop $-1 $257 $258 $101 #
cone-surface $-1 -43.175982725659672 13.717954512844642 5.0215482441679793 0.83867057594974714 0 -0.54463902268945019 0.13615975567236255 0 0.20966764398743679 1 I I -0.70710678118654746 0.70710678118654746 0.25 forward I I I I #
loop $-1 $-1 $259 $71 #
coedge $-1 $163 $163 $260 $261 reversed $102 $-1 #
face $-1 $-1 $262 $56 $-1 $263 forward single #
loop $-1 $264 $265 $104 #
cone-surface $-1 -43.175982725659672 16.009620933883454 5.0215482441679793 0.83867057594974714 0 -0.54463902268945019 0.13615975567236255 0 0.20966764398743679 1 I I -0.70710678118654746 0.70710678118654746 0.25 forward I I I I #
loop $-1 $-1 $266 $72 #
coedge $-1 $168 $168 $267 $268 reversed $105 $-1 #
face $-1 $-1 $269 $57 $-1 $270 forward single #
loop $-1 $271 $272 $107 #
cone-surface $-1 -43.175982725659672 18.301287354922266 5.0215482441679793 0.83867057594974714 0 -0.54463902268945019 0.13615975567236255 0 0.20966764398743679 1 I I -0.70710678118654746 0.70710678118654746 0.25 forward I I I I #
loop $-1 $-1 $273 $73 #
coedge $-1 $173 $173 $274 $275 reversed $108 $-1 #
face $-1 $276 $277 $58 $-1 $278 reversed single #
loop $-1 $-1 $279 $110 #
plane-surface $-1 -16.866909788977786 1.6735102911898494 70.647902376735075 0.73135370988377701 0 0.68199835119979291 0.68199835119979291 0 -0.73135370988377701 forward_v I I I I #
coedge $-1 $280 $281 $282 $283 reversed $111 $-1 #
face $-1 $-1 $284 $59 $-1 $285 forward single #
loop $-1 $286 $287 $113 #
cone-surface $-1 42.251100001196626 -0.023537733631624036 4.3919229023169777 -0.73135370988377701 0 -0.68199835119979291 0.17049958779994823 0 -0.18283842747094425 1 I I -0.70710678118654746 0.70710678118654746 0.25 forward I I I I #
loop $-1 $-1 $288 $75 #
coedge $-1 $182 $182 $289 $290 reversed $114 $-1 #
face $-1 $-1 $291 $60 $-1 $292 forward single #
loop $-1 $293 $294 $116 #
cone-surface $-1 42.251100001196626 3.3705583160113228 4.3919229023169777 -0.73135370988377701 0 -0.68199835119979291 0.17049958779994823 0 -0.18283842747094425 1 I I -0.70710678118654746 0.70710678118654746 0.25 forward I I I I #
loop $-1 $-1 $295 $76 #
coedge $-1 $187 $187 $296 $297 reversed $117 $-1 #
face $-1 $298 $299 $61 $-1 $300 forward single #
loop $-1 $-1 $301 $119 #
plane-surface $-1 -16.866909788977786 1.6735102911898494 70.647902376735075 0.73135370988377701 0 0.68199835119979291 0.68199835119979291 0 -0.73135370988377701 forward_v I I I I #
coedge $-1 $302 $303 $304 $305 reversed $120 $-1 #
face $-1 $-1 $306 $62 $-1 $307 forward single #
loop $-1 $308 $309 $122 #
cone-surface $-1 42.251100001196626 7.8960197155352532 4.3919229023169777 -0.73135370988377701 0 -0.68199835119979291 0.17049958779994823 0 -0.18283842747094425 1 I I -0.70710678118654746 0.70710678118654746 0.25 forward I I I I #
loop $-1 $-1 $310 $78 #
coedge $-1 $196 $196 $311 $312 reversed $123 $-1 #
face $-1 $-1 $313 $63 $-1 $314 forward single #
loop $-1 $315 $316 $125 #
cone-surface $-1 42.251100001196626 11.2901157651782 4.3919229023169777 -0.73135370988377701 0 -0.68199835119979291 0.17049958779994823 0 -0.18283842747094425 1 I I -0.70710678118654746 0.70710678118654746 0.25 forward I I I I #
loop $-1 $-1 $317 $79 #
coedge $-1 $201 $201 $318 $319 reversed $126 $-1 #
face $-1 $320 $321 $48 $-1 $322 reversed single #
loop $-1 $-1 $323 $128 #
plane-surface $-1 0 -23.039928370812703 0 0 1 0 0 0 1 forward_v I I I I #
coedge $-1 $324 $325 $326 $327 forward $129 $-1 #
coedge $-1 $328 $131 $329 $330 forward $81 $-1 #
coedge $-1 $131 $328 $331 $332 forward $81 $-1 #
coedge $-1 $333 $334 $131 $209 reversed $335 $-1 #
edge $-1 $336 -23.039928370812703 $337 23.039928370812703 $208 $338 forward 7 unknown #
face $-1 $339 $340 $49 $-1 $341 reversed single #
loop $-1 $-1 $342 $132 #
plane-surface $-1 0 -11.773350339266129 -0.47524968219558872 0 -1 0 0 0 -1 forward_v I I I I #
coedge $-1 $343 $344 $345 $346 reversed $133 $-1 #
coedge $-1 $347 $135 $348 $349 forward $84 $-1 #
coedge $-1 $135 $347 $350 $351 reversed $84 $-1 #
coedge $-1 $352 $353 $135 $217 forward $354 $-1 #
edge $-1 $355 3.0700306617464204 $356 14.336608693292995 $216 $357 forward 7 unknown #
face $-1 $358 $359 $50 $-1 $360 reversed single #
loop $-1 $-1 $361 $136 #
plane-surface $-1 -124.06285932182121 2.4224256139087252 53.861827107255394 0 -1 0 0.83867057594974714 0 -0.54463902268945019 forward_v I I I I #
coedge $-1 $362 $363 $364 $365 reversed $137 $-1 #
coedge $-1 $223 $139 $366 $367 reversed $87 $-1 #
coedge $-1 $139 $222 $362 $368 reversed $87 $-1 #
coedge $-1 $364 $369 $139 $225 forward $370 $-1 #
edge $-1 $371 15.693345612935509 $372 19.062749060043537 $224 $373 forward 7 unknown #
loop $-1 $-1 $231 $140 #
plane-surface $-1 -46.338084047975087 -1.3970184211559591 3.3867694888738811 -0.83867057594974714 0 0.54463902268945019 0.54463902268945019 0 0.83867057594974714 forward_v I I I I #
loop $-1 $-1 $374 $89 #
coedge $-1 $229 $229 $230 $375 reversed $141 $-1 #
coedge $-1 $230 $230 $229 $375 forward $143 $-1 #
coedge $-1 $231 $231 $144 $232 forward $226 $-1 #
edge $-1 $376 0 $376 6.2831853071796004 $231 $377 forward 7 unknown #
loop $-1 $-1 $238 $145 #
plane-surface $-1 -46.338084047975087 -1.3970184211559591 3.3867694888738811 -0.83867057594974714 0 0.54463902268945019 0.54463902268945019 0 0.83867057594974714 forward_v I I I I #
loop $-1 $-1 $378 $92 #
coedge $-1 $236 $236 $237 $379 reversed $146 $-1 #
coedge $-1 $237 $237 $236 $379 forward $148 $-1 #
coedge $-1 $238 $238 $149 $239 forward $233 $-1 #
edge $-1 $380 0 $380 6.2831853071796004 $238 $381 forward 7 unknown #
loop $-1 $-1 $245 $150 #
plane-surface $-1 -46.338084047975087 -1.3970184211559591 3.3867694888738811 -0.83867057594974714 0 0.54463902268945019 0.54463902268945019 0 0.83867057594974714 forward_v I I I I #
loop $-1 $-1 $382 $95 #
coedge $-1 $243 $243 $244 $383 reversed $151 $-1 #
coedge $-1 $244 $244 $243 $383 forward $153 $-1 #
coedge $-1 $245 $245 $154 $246 forward $240 $-1 #
edge $-1 $384 0 $384 6.2831853071796004 $245 $385 forward 7 unknown #
face $-1 $386 $387 $54 $-1 $388 forward single #
loop $-1 $-1 $389 $155 #
plane-surface $-1 -124.06285932182121 19.829064968948138 53.861827107255394 0 -1 0 0.83867057594974714 0 -0.54463902268945019 forward_v I I I I #
coedge $-1 $390 $391 $392 $393 reversed $156 $-1 #
coedge $-1 $252 $158 $394 $395 reversed $99 $-1 #
coedge $-1 $158 $251 $390 $396 reversed $99 $-1 #
coedge $-1 $392 $397 $158 $254 forward $387 $-1 #
edge $-1 $398 15.693345612935509 $399 19.062749060043537 $253 $400 forward 7 unknown #
loop $-1 $-1 $260 $159 #
plane-surface $-1 -46.338084047975087 16.009620933883454 3.3867694888738811 -0.83867057594974714 0 0.54463902268945019 0.54463902268945019 0 0.83867057594974714 forward_v I I I I #
loop $-1 $-1 $401 $101 #
coedge $-1 $258 $258 $259 $402 reversed $160 $-1 #
coedge $-1 $259 $259 $258 $402 forward $162 $-1 #
coedge $-1 $260 $260 $163 $261 forward $255 $-1 #
edge $-1 $403 0 $403 6.2831853071796004 $260 $404 forward 7 unknown #
loop $-1 $-1 $267 $164 #
plane-surface $-1 -46.338084047975087 16.009620933883454 3.3867694888738811 -0.83867057594974714 0 0.54463902268945019 0.54463902268945019 0 0.83867057594974714 forward_v I I I I #
loop $-1 $-1 $405 $104 #
coedge $-1 $265 $265 $266 $406 reversed $165 $-1 #
coedge $-1 $266 $266 $265 $406 forward $167 $-1 #
coedge $-1 $267 $267 $168 $268 forward $262 $-1 #
edge $-1 $407 0 $407 6.2831853071796004 $267 $408 forward 7 unknown #
loop $-1 $-1 $274 $169 #
plane-surface $-1 -46.338084047975087 16.009620933883454 3.3867694888738811 -0.83867057594974714 0 0.54463902268945019 0.54463902268945019 0 0.83867057594974714 forward_v I I I I #
loop $-1 $-1 $409 $107 #
coedge $-1 $272 $272 $273 $410 reversed $170 $-1 #
coedge $-1 $273 $273 $272 $410 forward $172 $-1 #
coedge $-1 $274 $274 $173 $275 forward $269 $-1 #
edge $-1 $411 0 $411 6.2831853071796004 $274 $412 forward 7 unknown #
face $-1 $413 $414 $58 $-1 $415 forward single #
loop $-1 $-1 $416 $174 #
plane-surface $-1 50.912149565807916 -2.2862684333935892 133.85289621368796 0 1 0 0.73135370988377701 0 0.68199835119979291 forward_v I I I I #
coedge $-1 $417 $418 $419 $420 reversed $175 $-1 #
coedge $-1 $281 $177 $421 $422 reversed $111 $-1 #
coedge $-1 $177 $280 $417 $423 reversed $111 $-1 #
coedge $-1 $419 $424 $177 $283 forward $414 $-1 #
edge $-1 $425 -20.882009265071137 $426 -15.560749180703329 $282 $427 forward 7 unknown #
loop $-1 $-1 $289 $178 #
plane-surface $-1 -16.866909788977786 1.6735102911898494 70.647902376735075 0.73135370988377701 0 0.68199835119979291 0.68199835119979291 0 -0.73135370988377701 forward_v I I I I #
loop $-1 $-1 $428 $113 #
coedge $-1 $287 $287 $288 $429 reversed $179 $-1 #
coedge $-1 $288 $288 $287 $429 forward $181 $-1 #
coedge $-1 $289 $289 $182 $290 forward $284 $-1 #
edge $-1 $430 0 $430 6.2831853071796004 $289 $431 forward 7 unknown #
loop $-1 $-1 $296 $183 #
plane-surface $-1 -16.866909788977786 1.6735102911898494 70.647902376735075 0.73135370988377701 0 0.68199835119979291 0.68199835119979291 0 -0.73135370988377701 forward_v I I I I #
loop $-1 $-1 $432 $116 #
coedge $-1 $294 $294 $295 $433 reversed $184 $-1 #
coedge $-1 $295 $295 $294 $433 forward $186 $-1 #
coedge $-1 $296 $296 $187 $297 forward $291 $-1 #
edge $-1 $434 0 $434 6.2831853071796004 $296 $435 forward 7 unknown #
face $-1 $436 $437 $61 $-1 $438 forward single #
loop $-1 $-1 $439 $188 #
plane-surface $-1 0 0 8.5751959729681175 0 0 1 1 0 0 forward_v I I I I #
coedge $-1 $440 $441 $442 $443 reversed $189 $-1 #
coedge $-1 $303 $191 $444 $445 reversed $120 $-1 #
coedge $-1 $191 $302 $439 $446 reversed $120 $-1 #
coedge $-1 $447 $448 $191 $305 forward $449 $-1 #
edge $-1 $450 -64.057605084894604 $451 -58.35125213387586 $304 $452 forward 7 unknown #
loop $-1 $-1 $311 $192 #
plane-surface $-1 -16.866909788977786 1.6735102911898494 70.647902376735075 0.73135370988377701 0 0.68199835119979291 0.68199835119979291 0 -0.73135370988377701 forward_v I I I I #
loop $-1 $-1 $453 $122 #
coedge $-1 $309 $309 $310 $454 reversed $193 $-1 #
coedge $-1 $310 $310 $309 $454 forward $195 $-1 #
coedge $-1 $311 $311 $196 $312 forward $306 $-1 #
edge $-1 $455 0 $455 6.2831853071796004 $311 $456 forward 7 unknown #
loop $-1 $-1 $318 $197 #
plane-surface $-1 -16.866909788977786 1.6735102911898494 70.647902376735075 0.73135370988377701 0 0.68199835119979291 0.68199835119979291 0 -0.73135370988377701 forward_v I I I I #
loop $-1 $-1 $457 $125 #
coedge $-1 $316 $316 $317 $458 reversed $198 $-1 #
coedge $-1 $317 $317 $316 $458 forward $200 $-1 #
coedge $-1 $318 $318 $201 $319 forward $313 $-1 #
edge $-1 $459 0 $459 6.2831853071796004 $318 $460 forward 7 unknown #
face $-1 $461 $462 $48 $-1 $463 reversed single #
loop $-1 $-1 $464 $202 #
plane-surface $-1 -46.338084047975094 0 0 1 0 0 0 0 -1 forward_v I I I I #
coedge $-1 $465 $331 $466 $467 forward $203 $-1 #
coedge $-1 $468 $205 $465 $469 forward $129 $-1 #
coedge $-1 $205 $468 $470 $471 forward $129 $-1 #
coedge $-1 $334 $333 $205 $327 reversed $335 $-1 #
edge $-1 $472 -23.039928370812703 $473 23.039928370812703 $326 $474 forward 7 unknown #
coedge $-1 $207 $206 $475 $476 forward $81 $-1 #
coedge $-1 $477 $478 $206 $330 reversed $462 $-1 #
edge $-1 $337 -46.338084047975094 $479 46.338084047975094 $329 $480 forward 7 unknown #
coedge $-1 $323 $481 $207 $332 reversed $203 $-1 #
edge $-1 $482 -46.338084047975094 $336 46.338084047975094 $331 $483 forward 7 unknown #
coedge $-1 $326 $208 $481 $484 forward $335 $-1 #
coedge $-1 $208 $326 $477 $485 reversed $335 $-1 #
loop $-1 $-1 $333 $461 #
vertex $-1 $209 $486 #
vertex $-1 $209 $487 #
straight-curve $-1 46.338084047975094 0 8.5751959729681175 0 1 0 I I #
face $-1 $488 $489 $49 $-1 $490 reversed single #
loop $-1 $-1 $491 $210 #
plane-surface $-1 -46.338084047975094 0 0 1 0 0 0 0 -1 forward_v I I I I #
coedge $-1 $492 $348 $353 $493 reversed $211 $-1 #
coedge $-1 $494 $213 $495 $496 reversed $133 $-1 #
coedge $-1 $213 $494 $492 $497 forward $133 $-1 #
coedge $-1 $353 $352 $213 $346 forward $354 $-1 #
edge $-1 $498 -14.336608693292995 $499 -3.0700306617464204 $345 $500 forward 7 unknown #
coedge $-1 $215 $214 $491 $501 reversed $84 $-1 #
coedge $-1 $342 $502 $214 $349 reversed $211 $-1 #
edge $-1 $355 -46.338084047975094 $503 46.338084047975094 $348 $504 forward 7 unknown #
coedge $-1 $505 $506 $215 $351 forward $489 $-1 #
edge $-1 $356 -46.338084047975094 $507 46.338084047975094 $350 $508 forward 7 unknown #
coedge $-1 $345 $216 $506 $509 forward $354 $-1 #
coedge $-1 $216 $345 $342 $493 forward $354 $-1 #
loop $-1 $-1 $216 $488 #
vertex $-1 $217 $510 #
vertex $-1 $509 $511 #
straight-curve $-1 46.338084047975094 -8.7033196775197084 1.0247503178044108 0 -1 0 I I #
face $-1 $-1 $370 $50 $-1 $512 forward single #
loop $-1 $-1 $513 $218 #
plane-surface $-1 -46.338084047975094 0 0 1 0 0 0 0 -1 forward_v I I I I #
coedge $-1 $514 $515 $516 $517 reversed $219 $-1 #
coedge $-1 $518 $221 $223 $368 forward $137 $-1 #
coedge $-1 $221 $518 $514 $519 forward $137 $-1 #
coedge $-1 $516 $224 $221 $365 forward $370 $-1 #
edge $-1 $372 -4.5179532456426639 $520 3.1209348244867048 $364 $521 forward 7 unknown #
coedge $-1 $522 $523 $222 $367 forward $359 $-1 #
edge $-1 $524 -23.544144064753826 $371 -18.355717580659579 $366 $525 forward 7 unknown #
edge $-1 $372 -6.1864892281676109 $524 1.3181006846785195e-014 $223 $526 forward 7 unknown #
coedge $-1 $224 $516 $522 $527 forward $370 $-1 #
loop $-1 $-1 $516 $358 #
vertex $-1 $367 $528 #
vertex $-1 $225 $529 #
straight-curve $-1 -62.031429660910604 -5.2164624562206434 8.5751959729681175 1 0 0 I I #
coedge $-1 $374 $374 $-1 $530 reversed $228 $-1 #
edge $-1 $531 0 $531 6.2831853071796004 $229 $532 forward 7 unknown #
vertex $-1 $232 $533 #
ellipse-curve $-1 -44.653382324421081 -3.6886848421947711 5.9809827309209931 -0.83867057594974714 0 0.54463902268945019 0.2723195113447251 0 0.41933528797487357 1 I I #
coedge $-1 $378 $378 $-1 $534 reversed $235 $-1 #
edge $-1 $535 0 $535 6.2831853071796004 $236 $536 forward 7 unknown #
vertex $-1 $239 $537 #
ellipse-curve $-1 -44.653382324421081 -1.3970184211559626 5.9809827309209931 -0.83867057594974714 0 0.54463902268945019 0.2723195113447251 0 0.41933528797487357 1 I I #
coedge $-1 $382 $382 $-1 $538 reversed $242 $-1 #
edge $-1 $539 0 $539 6.2831853071796004 $243 $540 forward 7 unknown #
vertex $-1 $246 $541 #
ellipse-curve $-1 -44.653382324421081 0.89464799988284938 5.9809827309209931 -0.83867057594974714 0 0.54463902268945019 0.2723195113447251 0 0.41933528797487357 1 I I #
face $-1 $-1 $542 $54 $-1 $543 reversed single #
loop $-1 $-1 $253 $247 #
plane-surface $-1 0 0 8.5751959729681175 0 0 1 1 0 0 forward_v I I I I #
coedge $-1 $544 $545 $546 $547 reversed $248 $-1 #
coedge $-1 $548 $250 $252 $396 forward $156 $-1 #
coedge $-1 $250 $548 $544 $549 forward $156 $-1 #
coedge $-1 $546 $253 $250 $393 forward $387 $-1 #
edge $-1 $399 4.1853664318770427 $550 11.824254502006411 $392 $551 forward 7 unknown #
coedge $-1 $552 $553 $251 $395 forward $542 $-1 #
edge $-1 $554 -23.544144064753826 $398 -18.355717580659579 $394 $555 forward 7 unknown #
edge $-1 $399 -6.1864892281676109 $554 1.3181006846785195e-014 $252 $556 forward 7 unknown #
coedge $-1 $253 $546 $552 $557 forward $387 $-1 #
vertex $-1 $254 $558 #
vertex $-1 $254 $559 #
straight-curve $-1 -62.031429660910604 12.19017689881877 8.5751959729681175 1 0 0 I I #
coedge $-1 $401 $401 $-1 $560 reversed $257 $-1 #
edge $-1 $561 0 $561 6.2831853071796004 $258 $562 forward 7 unknown #
vertex $-1 $261 $563 #
ellipse-curve $-1 -44.653382324421081 13.717954512844642 5.9809827309209931 -0.83867057594974714 0 0.54463902268945019 0.2723195113447251 0 0.41933528797487357 1 I I #
coedge $-1 $405 $405 $-1 $564 reversed $264 $-1 #
edge $-1 $565 0 $565 6.2831853071796004 $265 $566 forward 7 unknown #
vertex $-1 $268 $567 #
ellipse-curve $-1 -44.653382324421081 16.009620933883454 5.9809827309209931 -0.83867057594974714 0 0.54463902268945019 0.2723195113447251 0 0.41933528797487357 1 I I #
coedge $-1 $409 $409 $-1 $568 reversed $271 $-1 #
edge $-1 $569 0 $569 6.2831853071796004 $272 $570 forward 7 unknown #
vertex $-1 $275 $571 #
ellipse-curve $-1 -44.653382324421081 18.301287354922266 5.9809827309209931 -0.83867057594974714 0 0.54463902268945019 0.2723195113447251 0 0.41933528797487357 1 I I #
face $-1 $-1 $572 $58 $-1 $573 reversed single #
loop $-1 $-1 $282 $276 #
plane-surface $-1 0 0 8.5751959729681175 0 0 1 1 0 0 forward_v I I I I #
coedge $-1 $574 $575 $576 $577 reversed $277 $-1 #
coedge $-1 $578 $279 $281 $423 forward $175 $-1 #
coedge $-1 $279 $578 $574 $579 forward $175 $-1 #
coedge $-1 $576 $282 $279 $420 forward $414 $-1 #
edge $-1 $426 -4.7965338701783633 $580 3.1230235789885139 $419 $581 forward 7 unknown #
coedge $-1 $582 $583 $280 $422 forward $572 $-1 #
edge $-1 $584 -64.057605084894604 $425 -58.35125213387586 $421 $585 forward 7 unknown #
edge $-1 $426 84.873715091472278 $584 92.676168095950175 $281 $586 forward 7 unknown #
coedge $-1 $282 $576 $582 $587 forward $414 $-1 #
vertex $-1 $422 $588 #
vertex $-1 $283 $589 #
straight-curve $-1 25.456074782903958 5.633289015773288 8.5751959729681175 -1 0 0 I I #
coedge $-1 $428 $428 $-1 $590 reversed $286 $-1 #
edge $-1 $591 0 $591 6.2831853071796004 $287 $592 forward 7 unknown #
vertex $-1 $290 $593 #
ellipse-curve $-1 43.677454005791184 -0.023537733631624036 5.7220194974587422 0.73135370988377701 0 0.68199835119979291 0.34099917559989645 0 -0.36567685494188851 1 I I #
coedge $-1 $432 $432 $-1 $594 reversed $293 $-1 #
edge $-1 $595 0 $595 6.2831853071796004 $294 $596 forward 7 unknown #
vertex $-1 $297 $597 #
ellipse-curve $-1 43.677454005791184 3.3705583160113228 5.7220194974587422 0.73135370988377701 0 0.68199835119979291 0.34099917559989645 0 -0.36567685494188851 1 I I #
face $-1 $-1 $449 $61 $-1 $598 reversed single #
loop $-1 $-1 $599 $298 #
plane-surface $-1 50.912149565807916 5.633289015773288 133.85289621368796 0 -1 0 -0.73135370988377701 0 -0.68199835119979291 forward_v I I I I #
coedge $-1 $600 $601 $303 $446 forward $299 $-1 #
coedge $-1 $444 $301 $600 $602 reversed $189 $-1 #
coedge $-1 $301 $444 $448 $603 reversed $189 $-1 #
coedge $-1 $604 $599 $301 $443 forward $437 $-1 #
edge $-1 $605 84.873715091472278 $606 92.676168095950175 $442 $607 forward 7 unknown #
coedge $-1 $441 $440 $302 $445 forward $189 $-1 #
edge $-1 $608 84.873715091472278 $450 92.676168095950175 $302 $609 forward 7 unknown #
edge $-1 $451 -20.882009265071137 $608 -15.560749180703329 $439 $610 forward 7 unknown #
coedge $-1 $611 $304 $601 $612 reversed $449 $-1 #
coedge $-1 $304 $611 $441 $603 forward $449 $-1 #
loop $-1 $-1 $304 $436 #
vertex $-1 $305 $613 #
vertex $-1 $446 $614 #
straight-curve $-1 46.338084047975094 13.552846464940169 66.926448106843978 0 0 1 I I #
coedge $-1 $453 $453 $-1 $615 reversed $308 $-1 #
edge $-1 $616 0 $616 6.2831853071796004 $309 $617 forward 7 unknown #
vertex $-1 $312 $618 #
ellipse-curve $-1 43.677454005791184 7.8960197155352532 5.7220194974587422 0.73135370988377701 0 0.68199835119979291 0.34099917559989645 0 -0.36567685494188851 1 I I #
coedge $-1 $457 $457 $-1 $619 reversed $315 $-1 #
edge $-1 $620 0 $620 6.2831853071796004 $316 $621 forward 7 unknown #
vertex $-1 $319 $622 #
ellipse-curve $-1 43.677454005791184 11.2901157651782 5.7220194974587422 0.73135370988377701 0 0.68199835119979291 0.34099917559989645 0 -0.36567685494188851 1 I I #
face $-1 $-1 $335 $48 $-1 $623 reversed single #
loop $-1 $-1 $477 $320 #
plane-surface $-1 0 23.039928370812703 0 0 -1 0 0 0 -1 forward_v I I I I #
coedge $-1 $624 $475 $478 $625 forward $321 $-1 #
coedge $-1 $481 $323 $324 $469 reversed $203 $-1 #
coedge $-1 $475 $624 $323 $467 reversed $321 $-1 #
edge $-1 $482 -8.5751959729681175 $626 8.5751959729681175 $466 $627 forward 7 unknown #
coedge $-1 $325 $324 $624 $628 forward $129 $-1 #
edge $-1 $473 -46.338084047975094 $626 46.338084047975094 $465 $629 forward 7 unknown #
coedge $-1 $478 $477 $325 $471 reversed $462 $-1 #
edge $-1 $630 -46.338084047975094 $472 46.338084047975094 $470 $631 forward 7 unknown #
vertex $-1 $327 $632 #
vertex $-1 $484 $633 #
straight-curve $-1 46.338084047975094 0 -8.5751959729681175 0 -1 0 I I #
coedge $-1 $464 $466 $328 $476 reversed $321 $-1 #
edge $-1 $479 -23.039928370812703 $482 23.039928370812703 $475 $634 forward 7 unknown #
coedge $-1 $470 $329 $334 $485 forward $462 $-1 #
coedge $-1 $329 $470 $464 $625 reversed $462 $-1 #
vertex $-1 $330 $635 #
straight-curve $-1 0 23.039928370812703 8.5751959729681175 -1 0 0 I I #
coedge $-1 $331 $465 $333 $484 reversed $203 $-1 #
vertex $-1 $476 $636 #
straight-curve $-1 0 -23.039928370812703 8.5751959729681175 1 0 0 I I #
edge $-1 $336 -8.5751959729681175 $473 8.5751959729681175 $333 $637 forward 7 unknown #
edge $-1 $337 -8.5751959729681175 $472 8.5751959729681175 $334 $638 forward 7 unknown #
point $-1 46.338084047975094 -23.039928370812703 8.5751959729681175 #
point $-1 46.338084047975094 23.039928370812703 8.5751959729681175 #
face $-1 $-1 $354 $49 $-1 $639 reversed single #
loop $-1 $-1 $350 $339 #
plane-surface $-1 0 -23.039928370812703 0 0 1 0 0 0 1 forward_v I I I I #
coedge $-1 $640 $641 $347 $501 forward $340 $-1 #
coedge $-1 $502 $342 $344 $497 reversed $211 $-1 #
edge $-1 $499 -1.7376248410977939 $355 1.2623751589022052 $353 $642 forward 7 unknown #
coedge $-1 $344 $343 $643 $644 reversed $133 $-1 #
coedge $-1 $506 $505 $343 $496 forward $489 $-1 #
edge $-1 $645 -46.338084047975094 $498 46.338084047975094 $495 $646 forward 7 unknown #
edge $-1 $647 -46.338084047975094 $499 46.338084047975094 $492 $648 forward 7 unknown #
vertex $-1 $496 $649 #
vertex $-1 $346 $650 #
straight-curve $-1 46.338084047975094 -8.7033196775197084 -1.9752496821955883 0 1 0 I I #
edge $-1 $507 -14.336608693292995 $503 -3.0700306617464204 $491 $651 forward 7 unknown #
coedge $-1 $348 $492 $640 $652 reversed $211 $-1 #
vertex $-1 $501 $653 #
straight-curve $-1 0 -11.773350339266129 1.0247503178044108 -1 0 0 I I #
coedge $-1 $495 $350 $641 $654 forward $489 $-1 #
coedge $-1 $350 $495 $352 $509 reversed $489 $-1 #
vertex $-1 $654 $655 #
straight-curve $-1 0 -23.039928370812703 1.0247503178044108 -1 0 0 I I #
edge $-1 $356 -1.0247503178044108 $498 1.9752496821955883 $352 $656 forward 7 unknown #
point $-1 46.338084047975094 -11.773350339266129 1.0247503178044108 #
point $-1 46.338084047975094 -23.039928370812703 1.0247503178044108 #
plane-surface $-1 0 0 8.5751959729681175 0 0 1 1 0 0 forward_v I I I I #
coedge $-1 $523 $522 $515 $657 forward $359 $-1 #
coedge $-1 $515 $361 $363 $519 reversed $219 $-1 #
coedge $-1 $361 $514 $513 $657 reversed $219 $-1 #
coedge $-1 $369 $364 $361 $517 forward $370 $-1 #
edge $-1 $520 -19.062749060043537 $658 -15.693345612935509 $516 $659 forward 7 unknown #
coedge $-1 $363 $362 $523 $660 reversed $137 $-1 #
edge $-1 $661 -1.3181006846785195e-014 $520 6.1864892281676109 $514 $662 forward 7 unknown #
vertex $-1 $365 $663 #
straight-curve $-1 -42.968680600867074 -0.69850921057797954 8.5751959729681175 0 1 0 I I #
coedge $-1 $513 $366 $369 $527 reversed $359 $-1 #
coedge $-1 $366 $513 $518 $660 forward $359 $-1 #
vertex $-1 $367 $664 #
straight-curve $-1 -46.338084047975094 -5.2164624562206434 26.930913553627697 0 0 1 I I #
straight-curve $-1 -46.338084047975087 -5.2164624562206434 3.3867694888738811 -0.54463902268945019 0 -0.83867057594974714 I I #
edge $-1 $658 -2.4224256139087252 $371 5.2164624562206434 $522 $665 forward 7 unknown #
point $-1 -46.338084047975094 -5.2164624562206434 8.5751959729681175 #
point $-1 -42.968680600867067 -5.2164624562206434 8.5751959729681175 #
edge $-1 $666 1 $666 0 $374 $-1 forward 7 unknown #
vertex $-1 $375 $667 #
ellipse-curve $-1 -43.385650369647109 -3.6886848421947711 5.1577079998403415 -0.83867057594974714 0 0.54463902268945019 0.2723195113447251 0 0.41933528797487357 1 I I #
point $-1 -44.381062813076362 -3.6886848421947711 6.4003180188958702 #
edge $-1 $668 1 $668 0 $378 $-1 forward 7 unknown #
vertex $-1 $379 $669 #
ellipse-curve $-1 -43.385650369647109 -1.3970184211559626 5.1577079998403415 -0.83867057594974714 0 0.54463902268945019 0.2723195113447251 0 0.41933528797487357 1 I I #
point $-1 -44.381062813076362 -1.3970184211559626 6.4003180188958702 #
edge $-1 $670 1 $670 0 $382 $-1 forward 7 unknown #
vertex $-1 $383 $671 #
ellipse-curve $-1 -43.385650369647109 0.89464799988284938 5.1577079998403415 -0.83867057594974714 0 0.54463902268945019 0.2723195113447251 0 0.41933528797487357 1 I I #
point $-1 -44.381062813076362 0.89464799988284938 6.4003180188958702 #
loop $-1 $-1 $394 $386 #
plane-surface $-1 -46.338084047975094 0 0 1 0 0 0 0 -1 forward_v I I I I #
coedge $-1 $545 $389 $391 $549 reversed $248 $-1 #
coedge $-1 $389 $544 $672 $673 reversed $248 $-1 #
coedge $-1 $397 $392 $389 $547 forward $387 $-1 #
edge $-1 $550 -19.062749060043537 $674 -15.693345612935509 $546 $675 forward 7 unknown #
coedge $-1 $391 $390 $553 $676 reversed $156 $-1 #
edge $-1 $677 -1.3181006846785195e-014 $550 6.1864892281676109 $544 $678 forward 7 unknown #
vertex $-1 $393 $679 #
straight-curve $-1 -42.968680600867074 8.004810466941727 8.5751959729681175 0 1 0 I I #
coedge $-1 $672 $394 $397 $557 reversed $542 $-1 #
coedge $-1 $394 $672 $548 $676 forward $542 $-1 #
vertex $-1 $395 $680 #
straight-curve $-1 -46.338084047975094 12.19017689881877 26.930913553627697 0 0 1 I I #
straight-curve $-1 -46.338084047975087 12.19017689881877 3.3867694888738811 -0.54463902268945019 0 -0.83867057594974714 I I #
edge $-1 $674 -19.829064968948138 $398 -12.19017689881877 $552 $681 forward 7 unknown #
point $-1 -46.338084047975094 12.19017689881877 8.5751959729681175 #
point $-1 -42.968680600867067 12.19017689881877 8.5751959729681175 #
edge $-1 $682 1 $682 0 $401 $-1 forward 7 unknown #
vertex $-1 $402 $683 #
ellipse-curve $-1 -43.385650369647109 13.717954512844642 5.1577079998403415 -0.83867057594974714 0 0.54463902268945019 0.2723195113447251 0 0.41933528797487357 1 I I #
point $-1 -44.381062813076362 13.717954512844642 6.4003180188958702 #
edge $-1 $684 1 $684 0 $405 $-1 forward 7 unknown #
vertex $-1 $406 $685 #
ellipse-curve $-1 -43.385650369647109 16.009620933883454 5.1577079998403415 -0.83867057594974714 0 0.54463902268945019 0.2723195113447251 0 0.41933528797487357 1 I I #
point $-1 -44.381062813076362 16.009620933883454 6.4003180188958702 #
edge $-1 $686 1 $686 0 $409 $-1 forward 7 unknown #
vertex $-1 $410 $687 #
ellipse-curve $-1 -43.385650369647109 18.301287354922266 5.1577079998403415 -0.83867057594974714 0 0.54463902268945019 0.2723195113447251 0 0.41933528797487357 1 I I #
point $-1 -44.381062813076362 18.301287354922266 6.4003180188958702 #
loop $-1 $-1 $421 $413 #
plane-surface $-1 46.338084047975094 0 0 -1 0 0 0 0 1 forward_v I I I I #
coedge $-1 $575 $416 $418 $579 reversed $277 $-1 #
coedge $-1 $416 $574 $688 $689 reversed $277 $-1 #
coedge $-1 $424 $419 $416 $577 forward $414 $-1 #
edge $-1 $580 15.560749180703329 $690 20.882009265071137 $576 $691 forward 7 unknown #
coedge $-1 $418 $417 $583 $692 reversed $175 $-1 #
edge $-1 $693 -92.676168095950175 $580 -84.873715091472278 $574 $694 forward 7 unknown #
vertex $-1 $420 $695 #
straight-curve $-1 41.01682396360728 0.8367551455949247 8.5751959729681175 0 -1 0 I I #
coedge $-1 $688 $421 $424 $587 reversed $572 $-1 #
coedge $-1 $421 $688 $578 $692 forward $572 $-1 #
vertex $-1 $422 $696 #
straight-curve $-1 46.338084047975094 5.633289015773288 66.926448106843978 0 0 1 I I #
straight-curve $-1 -16.866909788977786 5.633289015773288 70.647902376735075 0.68199835119979291 0 -0.73135370988377701 I I #
edge $-1 $690 -2.2862684333935892 $425 5.633289015773288 $582 $697 forward 7 unknown #
point $-1 46.338084047975094 5.633289015773288 8.5751959729681175 #
point $-1 41.016823963607287 5.633289015773288 8.5751959729681104 #
edge $-1 $698 1 $698 0 $428 $-1 forward 7 unknown #
vertex $-1 $429 $699 #
ellipse-curve $-1 42.433938428667574 -0.023537733631624036 4.5624224901169264 0.73135370988377701 0 0.68199835119979291 0.34099917559989645 0 -0.36567685494188851 1 I I #
point $-1 44.018453181391095 -0.023537733631624036 5.3563426425168652 #
edge $-1 $700 1 $700 0 $432 $-1 forward 7 unknown #
vertex $-1 $433 $701 #
ellipse-curve $-1 42.433938428667574 3.3705583160113228 4.5624224901169264 0.73135370988377701 0 0.68199835119979291 0.34099917559989645 0 -0.36567685494188851 1 I I #
point $-1 44.018453181391095 3.3705583160113228 5.3563426425168652 #
plane-surface $-1 46.338084047975094 0 0 -1 0 0 0 0 1 forward_v I I I I #
coedge $-1 $442 $604 $702 $703 reversed $437 $-1 #
coedge $-1 $702 $439 $440 $602 forward $299 $-1 #
coedge $-1 $439 $702 $447 $612 forward $299 $-1 #
edge $-1 $608 -12.716091319345244 $605 -4.7965338701783633 $600 $704 forward 7 unknown #
edge $-1 $606 4.7965338701783633 $450 12.716091319345244 $448 $705 forward 7 unknown #
coedge $-1 $599 $442 $611 $706 reversed $437 $-1 #
vertex $-1 $602 $707 #
vertex $-1 $603 $708 #
straight-curve $-1 -16.866909788977786 5.633289015773288 70.647902376735075 0.68199835119979291 0 -0.73135370988377701 I I #
vertex $-1 $446 $709 #
straight-curve $-1 -16.866909788977786 13.552846464940169 70.647902376735075 0.68199835119979291 0 -0.73135370988377701 I I #
straight-curve $-1 25.456074782903958 13.552846464940169 8.5751959729681175 -1 0 0 I I #
coedge $-1 $448 $447 $604 $706 forward $449 $-1 #
edge $-1 $710 5.633289015773288 $451 13.552846464940169 $447 $711 forward 7 unknown #
point $-1 46.338084047975094 13.552846464940169 2.8688430219493739 #
point $-1 46.338084047975094 13.552846464940169 8.5751959729681175 #
edge $-1 $712 1 $712 0 $453 $-1 forward 7 unknown #
vertex $-1 $454 $713 #
ellipse-curve $-1 42.433938428667574 7.8960197155352532 4.5624224901169264 0.73135370988377701 0 0.68199835119979291 0.34099917559989645 0 -0.36567685494188851 1 I I #
point $-1 44.018453181391095 7.8960197155352532 5.3563426425168652 #
edge $-1 $714 1 $714 0 $457 $-1 forward 7 unknown #
vertex $-1 $458 $715 #
ellipse-curve $-1 42.433938428667574 11.2901157651782 4.5624224901169264 0.73135370988377701 0 0.68199835119979291 0.34099917559989645 0 -0.36567685494188851 1 I I #
point $-1 44.018453181391095 11.2901157651782 5.3563426425168652 #
plane-surface $-1 46.338084047975094 0 0 -1 0 0 0 0 1 forward_v I I I I #
coedge $-1 $466 $464 $468 $628 reversed $321 $-1 #
edge $-1 $479 -8.5751959729681175 $630 8.5751959729681175 $478 $716 forward 7 unknown #
vertex $-1 $628 $717 #
straight-curve $-1 -46.338084047975094 -23.039928370812703 0 0 0 -1 I I #
edge $-1 $626 -23.039928370812703 $630 23.039928370812703 $624 $718 forward 7 unknown #
straight-curve $-1 0 -23.039928370812703 -8.5751959729681175 -1 0 0 I I #
vertex $-1 $471 $719 #
straight-curve $-1 0 23.039928370812703 -8.5751959729681175 1 0 0 I I #
point $-1 46.338084047975094 23.039928370812703 -8.5751959729681175 #
point $-1 46.338084047975094 -23.039928370812703 -8.5751959729681175 #
straight-curve $-1 -46.338084047975094 0 8.5751959729681175 0 -1 0 I I #
point $-1 -46.338084047975094 23.039928370812703 8.5751959729681175 #
point $-1 -46.338084047975094 -23.039928370812703 8.5751959729681175 #
straight-curve $-1 46.338084047975094 -23.039928370812703 0 0 0 -1 I I #
straight-curve $-1 46.338084047975094 23.039928370812703 0 0 0 -1 I I #
plane-surface $-1 46.338084047975094 0 0 -1 0 0 0 0 1 forward_v I I I I #
coedge $-1 $643 $491 $502 $652 forward $340 $-1 #
coedge $-1 $491 $643 $505 $654 reversed $340 $-1 #
straight-curve $-1 46.338084047975094 -11.773350339266129 -0.23762484109779436 0 0 1 I I #
coedge $-1 $641 $640 $494 $644 forward $340 $-1 #
edge $-1 $647 3.0700306617464204 $645 14.336608693292995 $643 $720 forward 7 unknown #
vertex $-1 $496 $721 #
straight-curve $-1 0 -23.039928370812703 -1.9752496821955883 1 0 0 I I #
vertex $-1 $644 $722 #
straight-curve $-1 0 -11.773350339266129 -1.9752496821955883 1 0 0 I I #
point $-1 46.338084047975094 -23.039928370812703 -1.9752496821955883 #
point $-1 46.338084047975094 -11.773350339266129 -1.9752496821955883 #
straight-curve $-1 -46.338084047975094 -8.7033196775197084 1.0247503178044108 0 1 0 I I #
edge $-1 $503 -1.2623751589022052 $647 1.7376248410977939 $640 $723 forward 7 unknown #
point $-1 -46.338084047975094 -11.773350339266129 1.0247503178044108 #
edge $-1 $507 -1.0247503178044108 $645 1.9752496821955883 $641 $724 forward 7 unknown #
point $-1 -46.338084047975094 -23.039928370812703 1.0247503178044108 #
straight-curve $-1 46.338084047975094 -23.039928370812703 0 0 0 -1 I I #
edge $-1 $658 18.355717580659579 $661 23.544144064753826 $513 $725 forward 7 unknown #
vertex $-1 $527 $726 #
straight-curve $-1 -62.031429660910604 2.4224256139087252 8.5751959729681175 -1 0 0 I I #
edge $-1 $661 -3.1209348244867048 $524 4.5179532456426639 $523 $727 forward 7 unknown #
vertex $-1 $660 $728 #
straight-curve $-1 -46.338084047975087 2.4224256139087252 3.3867694888738811 0.54463902268945019 0 0.83867057594974714 I I #
point $-1 -42.968680600867067 2.4224256139087252 8.5751959729681175 #
point $-1 -46.338084047975094 -5.2164624562206434 3.38676948887387 #
straight-curve $-1 -46.338084047975094 0 8.5751959729681175 0 -1 0 I I #
vertex $-1 $530 $729 #
point $-1 -43.113330858302383 -3.6886848421947711 5.577043287815215 #
vertex $-1 $534 $730 #
point $-1 -43.113330858302383 -1.3970184211559626 5.577043287815215 #
vertex $-1 $538 $731 #
point $-1 -43.113330858302383 0.89464799988284938 5.577043287815215 #
coedge $-1 $553 $552 $545 $673 forward $542 $-1 #
edge $-1 $674 18.355717580659579 $677 23.544144064753826 $672 $732 forward 7 unknown #
vertex $-1 $557 $733 #
straight-curve $-1 -62.031429660910604 19.829064968948138 8.5751959729681175 -1 0 0 I I #
edge $-1 $677 -11.824254502006411 $554 -4.1853664318770427 $553 $734 forward 7 unknown #
vertex $-1 $676 $735 #
straight-curve $-1 -46.338084047975087 19.829064968948138 3.3867694888738811 0.54463902268945019 0 0.83867057594974714 I I #
point $-1 -42.968680600867067 19.829064968948138 8.5751959729681175 #
point $-1 -46.338084047975094 12.19017689881877 3.38676948887387 #
straight-curve $-1 -46.338084047975094 0 8.5751959729681175 0 -1 0 I I #
vertex $-1 $560 $736 #
point $-1 -43.113330858302383 13.717954512844642 5.577043287815215 #
vertex $-1 $564 $737 #
point $-1 -43.113330858302383 16.009620933883454 5.577043287815215 #
vertex $-1 $568 $738 #
point $-1 -43.113330858302383 18.301287354922266 5.577043287815215 #
coedge $-1 $583 $582 $575 $689 forward $572 $-1 #
edge $-1 $690 58.35125213387586 $693 64.057605084894604 $688 $739 forward 7 unknown #
vertex $-1 $587 $740 #
straight-curve $-1 25.456074782903958 -2.2862684333935892 8.5751959729681175 1 0 0 I I #
edge $-1 $693 -3.1230235789885139 $584 4.7965338701783633 $583 $741 forward 7 unknown #
vertex $-1 $692 $742 #
straight-curve $-1 -16.866909788977786 -2.2862684333935892 70.647902376735075 -0.68199835119979291 0 0.73135370988377701 I I #
point $-1 41.016823963607287 -2.2862684333935892 8.5751959729681104 #
point $-1 46.338084047975094 5.633289015773288 2.8688430219493739 #
straight-curve $-1 46.338084047975094 0 8.5751959729681175 0 1 0 I I #
vertex $-1 $590 $743 #
point $-1 42.774937604267464 -0.023537733631624036 4.1967456351750378 #
vertex $-1 $594 $744 #
point $-1 42.774937604267464 3.3705583160113228 4.1967456351750378 #
coedge $-1 $601 $600 $599 $703 forward $299 $-1 #
edge $-1 $605 15.560749180703329 $710 20.882009265071137 $702 $745 forward 7 unknown #
straight-curve $-1 41.01682396360728 0.8367551455949247 8.5751959729681175 0 -1 0 I I #
straight-curve $-1 46.338084047975087 0.8367551455949247 2.868843021949381 0 1 0 I I #
edge $-1 $710 58.35125213387586 $606 64.057605084894604 $611 $746 forward 7 unknown #
point $-1 41.016823963607287 5.633289015773288 8.5751959729681104 #
point $-1 46.338084047975094 5.633289015773288 2.8688430219493739 #
point $-1 41.016823963607287 13.552846464940169 8.5751959729681104 #
vertex $-1 $612 $747 #
straight-curve $-1 46.338084047975094 0 8.5751959729681175 0 1 0 I I #
vertex $-1 $615 $748 #
point $-1 42.774937604267464 7.8960197155352532 4.1967456351750378 #
vertex $-1 $619 $749 #
point $-1 42.774937604267464 11.2901157651782 4.1967456351750378 #
straight-curve $-1 -46.338084047975094 23.039928370812703 0 0 0 -1 I I #
point $-1 -46.338084047975094 -23.039928370812703 -8.5751959729681175 #
straight-curve $-1 -46.338084047975094 0 -8.5751959729681175 0 1 0 I I #
point $-1 -46.338084047975094 23.039928370812703 -8.5751959729681175 #
straight-curve $-1 -46.338084047975094 -8.7033196775197084 -1.9752496821955883 0 -1 0 I I #
point $-1 -46.338084047975094 -23.039928370812703 -1.9752496821955883 #
point $-1 -46.338084047975094 -11.773350339266129 -1.9752496821955883 #
straight-curve $-1 -46.338084047975094 -11.773350339266129 -0.23762484109779436 0 0 -1 I I #
straight-curve $-1 -46.338084047975094 -23.039928370812703 0 0 0 -1 I I #
straight-curve $-1 -46.338084047975094 2.4224256139087252 26.930913553627697 0 0 -1 I I #
point $-1 -46.338084047975094 2.4224256139087252 8.5751959729681175 #
straight-curve $-1 -46.338084047975094 -0.69850921057797954 3.3867694888738615 0 -1 0 I I #
point $-1 -46.338084047975094 2.4224256139087252 3.38676948887387 #
point $-1 -42.966315081672235 -3.6886848421947711 4.8853884884956171 #
point $-1 -42.966315081672235 -1.3970184211559626 4.8853884884956171 #
point $-1 -42.966315081672235 0.89464799988284938 4.8853884884956171 #
straight-curve $-1 -46.338084047975094 19.829064968948138 26.930913553627697 0 0 -1 I I #
point $-1 -46.338084047975094 19.829064968948138 8.5751959729681175 #
straight-curve $-1 -46.338084047975094 8.004810466941727 3.3867694888738615 0 -1 0 I I #
point $-1 -46.338084047975094 19.829064968948138 3.38676948887387 #
point $-1 -42.966315081672235 13.717954512844642 4.8853884884956171 #
point $-1 -42.966315081672235 16.009620933883454 4.8853884884956171 #
point $-1 -42.966315081672235 18.301287354922266 4.8853884884956171 #
straight-curve $-1 46.338084047975094 -2.2862684333935892 66.926448106843978 0 0 -1 I I #
point $-1 46.338084047975094 -2.2862684333935892 8.5751959729681175 #
straight-curve $-1 46.338084047975087 0.8367551455949247 2.868843021949381 0 1 0 I I #
point $-1 46.338084047975094 -2.2862684333935892 2.8688430219493739 #
point $-1 42.068261573725678 -0.023537733631624036 4.221423314517029 #
point $-1 42.068261573725678 3.3705583160113228 4.221423314517029 #
straight-curve $-1 25.456074782903958 5.633289015773288 8.5751959729681175 1 0 0 I I #
straight-curve $-1 46.338084047975094 5.633289015773288 66.926448106843978 0 0 -1 I I #
point $-1 46.338084047975094 5.633289015773288 8.5751959729681175 #
point $-1 42.068261573725678 7.8960197155352532 4.221423314517029 #
point $-1 42.068261573725678 11.2901157651782 4.221423314517029 #
End-of-ACIS-data 