500 0 7 0           
7 Unknown 11 ACIS 5.0 NT 24 Fri Mar 26 17:37:28 1999 
-1 9.9999999999999995e-007 1e-010 
body $-1 $7 $-1 $8 #
body $-1 $9 $-1 $10 #
body $-1 $11 $-1 $12 #
body $-1 $13 $-1 $14 #
body $-1 $15 $-1 $16 #
body $-1 $17 $-1 $18 #
body $-1 $19 $-1 $20 #
lump $-1 $-1 $21 $0 #
transform $-1 1 0 0 0 1 0 0 0 1 60.134891811883904 33.402053847535413 13.489365470108689 1 rotate no_reflect no_shear #
lump $-1 $-1 $22 $1 #
transform $-1 1 0 0 0 1 0 0 0 1 60.134891811883904 33.402053847535413 13.489365470108689 1 rotate no_reflect no_shear #
lump $-1 $-1 $23 $2 #
transform $-1 1 0 0 0 1 0 0 0 1 60.134891811883904 33.402053847535413 13.489365470108689 1 rotate no_reflect no_shear #
lump $-1 $-1 $24 $3 #
transform $-1 1 0 0 0 1 0 0 0 1 60.134891811883904 33.402053847535413 13.489365470108689 1 rotate no_reflect no_shear #
lump $-1 $-1 $25 $4 #
transform $-1 1 0 0 0 1 0 0 0 1 60.134891811883904 33.402053847535413 13.489365470108689 1 rotate no_reflect no_shear #
lump $-1 $-1 $26 $5 #
transform $-1 1 0 0 0 1 0 0 0 1 60.134891811883904 33.402053847535413 13.489365470108689 1 rotate no_reflect no_shear #
lump $-1 $-1 $27 $6 #
transform $-1 1 0 0 0 1 0 0 0 1 60.134891811883904 33.402053847535413 13.489365470108689 1 rotate no_reflect no_shear #
shell $-1 $-1 $-1 $28 $-1 $7 #
shell $-1 $-1 $-1 $29 $-1 $9 #
shell $-1 $-1 $-1 $30 $-1 $11 #
shell $-1 $-1 $-1 $31 $-1 $13 #
shell $-1 $-1 $-1 $32 $-1 $15 #
shell $-1 $-1 $-1 $33 $-1 $17 #
shell $-1 $-1 $-1 $34 $-1 $19 #
face $-1 $35 $36 $21 $-1 $37 forward single #
face $-1 $38 $39 $22 $-1 $40 forward single #
face $-1 $41 $42 $23 $-1 $43 reversed single #
face $-1 $44 $45 $24 $-1 $46 forward single #
face $-1 $47 $48 $25 $-1 $49 reversed single #
face $-1 $50 $51 $26 $-1 $52 forward single #
face $-1 $53 $54 $27 $-1 $55 forward single #
face $-1 $56 $57 $21 $-1 $58 reversed single #
loop $-1 $-1 $59 $28 #
plane-surface $-1 0 0 13.489365470108689 0 0 1 1 0 0 forward_v I I I I #
face $-1 $60 $61 $22 $-1 $62 reversed single #
loop $-1 $-1 $63 $29 #
plane-surface $-1 0 -24.925107200626393 3.7765315084007538 0 0 1 1 0 0 forward_v I I I I #
face $-1 $64 $65 $23 $-1 $66 reversed single #
loop $-1 $-1 $67 $30 #
plane-surface $-1 -148.09464425204561 -16.448160553717372 87.49368114456577 0 1 0 -0.73135370988377701 0 0.68199835119979291 forward_v I I I I #
face $-1 $68 $69 $24 $-1 $70 forward single #
loop $-1 $71 $72 $31 #
cone-surface $-1 -55.395229940106709 -13.300854432660131 8.546626605528175 0.73135370988377701 0 -0.68199835119979291 0.68199835119979291 0 0.73135370988377701 1 I I 0 1 1 forward I I I I #
face $-1 $73 $74 $25 $-1 $75 reversed single #
loop $-1 $-1 $76 $32 #
plane-surface $-1 -8.8490206826570841 27.373532918971776 99.436703445215429 0.81915205242281985 0 0.57357642473473569 0.57357642473473569 0 -0.81915205242281985 forward_v I I I I #
face $-1 $77 $78 $26 $-1 $79 forward single #
loop $-1 $80 $81 $33 #
cone-surface $-1 55.083514832407509 24.789881092444496 6.7483447854354184 -0.81915205242281985 0 -0.57357642473473569 0.57357642473473569 0 -0.81915205242281985 1 I I 0 1 1 forward I I I I #
face $-1 $82 $83 $27 $-1 $84 forward single #
loop $-1 $85 $86 $34 #
cone-surface $-1 55.083514832407509 29.957184745499049 6.7483447854354184 -0.81915205242281985 0 -0.57357642473473569 0.57357642473473569 0 -0.81915205242281985 1 I I 0 1 1 forward I I I I #
face $-1 $87 $88 $21 $-1 $89 reversed single #
loop $-1 $-1 $90 $35 #
plane-surface $-1 0 0 -13.489365470108689 0 0 1 1 0 0 forward_v I I I I #
coedge $-1 $91 $92 $93 $94 forward $36 $-1 #
face $-1 $95 $96 $22 $-1 $97 reversed single #
loop $-1 $-1 $98 $38 #
plane-surface $-1 0 -24.925107200626393 -1.6952099451776226 0 0 1 1 0 0 forward_v I I I I #
coedge $-1 $99 $100 $101 $102 reversed $39 $-1 #
face $-1 $103 $104 $23 $-1 $105 reversed single #
loop $-1 $-1 $106 $41 #
plane-surface $-1 -60.13489181188389 -13.300854432660131 5.469887014000264 -0.73135370988377701 0 0.68199835119979291 0.68199835119979291 0 0.73135370988377701 forward_v I I I I #
coedge $-1 $107 $108 $109 $110 reversed $42 $-1 #
face $-1 $-1 $111 $24 $-1 $112 forward single #
loop $-1 $113 $114 $44 #
cone-surface $-1 -54.029033444181358 -13.300854432660131 7.2726277934019716 0.73135370988377701 0 -0.68199835119979291 0.34099917559989645 0 0.36567685494188851 1 I I -0.70710678118654746 0.70710678118654746 0.5 forward I I I I #
loop $-1 $-1 $115 $31 #
coedge $-1 $72 $72 $116 $117 reversed $45 $-1 #
face $-1 $118 $119 $25 $-1 $120 forward single #
loop $-1 $-1 $121 $47 #
plane-surface $-1 89.670219417200769 21.345011990408135 168.42061593975643 0 1 0 0.81915205242281985 0 0.57357642473473569 forward_v I I I I #
coedge $-1 $122 $123 $124 $125 reversed $48 $-1 #
face $-1 $-1 $126 $26 $-1 $127 forward single #
loop $-1 $128 $129 $50 #
cone-surface $-1 54.024032012567261 24.789881092444496 6.0064869507703431 -0.81915205242281985 0 -0.57357642473473569 0.28678821236736785 0 -0.40957602621140993 1 I I -0.70710678118654691 0.70710678118654813 0.5 forward I I I I #
loop $-1 $-1 $130 $33 #
coedge $-1 $81 $81 $131 $132 reversed $51 $-1 #
face $-1 $-1 $133 $27 $-1 $134 forward single #
loop $-1 $135 $136 $53 #
cone-surface $-1 54.024032012567261 29.957184745499049 6.0064869507703431 -0.81915205242281985 0 -0.57357642473473569 0.28678821236736785 0 -0.40957602621140993 1 I I -0.70710678118654691 0.70710678118654813 0.5 forward I I I I #
loop $-1 $-1 $137 $34 #
coedge $-1 $86 $86 $138 $139 reversed $54 $-1 #
face $-1 $140 $141 $21 $-1 $142 reversed single #
loop $-1 $-1 $143 $56 #
plane-surface $-1 0 -33.402053847535413 0 0 1 0 0 0 1 forward_v I I I I #
coedge $-1 $144 $145 $146 $147 forward $57 $-1 #
coedge $-1 $148 $59 $149 $150 forward $36 $-1 #
coedge $-1 $59 $148 $151 $152 forward $36 $-1 #
coedge $-1 $153 $154 $59 $94 reversed $155 $-1 #
edge $-1 $156 -33.402053847535413 $157 33.402053847535413 $93 $158 forward 7 unknown #
face $-1 $159 $160 $22 $-1 $161 reversed single #
loop $-1 $-1 $162 $60 #
plane-surface $-1 0 -16.448160553717372 1.0406607816115656 0 -1 0 0 0 -1 forward_v I I I I #
coedge $-1 $163 $164 $165 $166 reversed $61 $-1 #
coedge $-1 $167 $63 $168 $169 forward $39 $-1 #
coedge $-1 $63 $167 $170 $171 reversed $39 $-1 #
coedge $-1 $172 $173 $63 $102 forward $174 $-1 #
edge $-1 $175 3.9856069534041758 $176 20.939500247222217 $101 $177 forward 7 unknown #
face $-1 $178 $179 $23 $-1 $180 reversed single #
loop $-1 $-1 $181 $64 #
plane-surface $-1 -148.09464425204561 -10.153548311602892 87.49368114456577 0 -1 0 0.73135370988377701 0 -0.68199835119979291 forward_v I I I I #
coedge $-1 $182 $183 $184 $185 reversed $65 $-1 #
coedge $-1 $108 $67 $186 $187 reversed $42 $-1 #
coedge $-1 $67 $107 $182 $188 reversed $42 $-1 #
coedge $-1 $184 $189 $67 $110 forward $190 $-1 #
edge $-1 $191 13.912430314138902 $192 21.390714775726394 $109 $193 forward 7 unknown #
loop $-1 $-1 $116 $68 #
plane-surface $-1 -60.13489181188389 -13.300854432660131 5.469887014000264 -0.73135370988377701 0 0.68199835119979291 0.68199835119979291 0 0.73135370988377701 forward_v I I I I #
loop $-1 $-1 $194 $44 #
coedge $-1 $114 $114 $115 $195 reversed $69 $-1 #
coedge $-1 $115 $115 $114 $195 forward $71 $-1 #
coedge $-1 $116 $116 $72 $117 forward $111 $-1 #
edge $-1 $196 0 $196 6.2831853071796004 $116 $197 forward 7 unknown #
face $-1 $198 $199 $25 $-1 $200 reversed single #
loop $-1 $-1 $124 $73 #
plane-surface $-1 0 0 13.489365470108689 0 0 1 1 0 0 forward_v I I I I #
coedge $-1 $201 $202 $203 $204 reversed $74 $-1 #
coedge $-1 $205 $76 $206 $207 reversed $48 $-1 #
coedge $-1 $76 $205 $201 $208 forward $48 $-1 #
coedge $-1 $203 $209 $76 $125 forward $119 $-1 #
edge $-1 $210 -19.715287388049525 $211 -7.6582455309222475 $124 $212 forward 7 unknown #
loop $-1 $-1 $131 $77 #
plane-surface $-1 -8.8490206826570841 27.373532918971776 99.436703445215429 0.81915205242281985 0 0.57357642473473569 0.57357642473473569 0 -0.81915205242281985 forward_v I I I I #
loop $-1 $-1 $213 $50 #
coedge $-1 $129 $129 $130 $214 reversed $78 $-1 #
coedge $-1 $130 $130 $129 $214 forward $80 $-1 #
coedge $-1 $131 $131 $81 $132 forward $126 $-1 #
edge $-1 $215 0 $215 6.2831853071796004 $131 $216 forward 7 unknown #
loop $-1 $-1 $138 $82 #
plane-surface $-1 -8.8490206826570841 27.373532918971776 99.436703445215429 0.81915205242281985 0 0.57357642473473569 0.57357642473473569 0 -0.81915205242281985 forward_v I I I I #
loop $-1 $-1 $217 $53 #
coedge $-1 $136 $136 $137 $218 reversed $83 $-1 #
coedge $-1 $137 $137 $136 $218 forward $85 $-1 #
coedge $-1 $138 $138 $86 $139 forward $133 $-1 #
edge $-1 $219 0 $219 6.2831853071796004 $138 $220 forward 7 unknown #
face $-1 $221 $222 $21 $-1 $223 reversed single #
loop $-1 $-1 $224 $87 #
plane-surface $-1 -60.134891811883904 0 0 1 0 0 0 0 -1 forward_v I I I I #
coedge $-1 $225 $151 $226 $227 forward $88 $-1 #
coedge $-1 $228 $90 $225 $229 forward $57 $-1 #
coedge $-1 $90 $228 $230 $231 forward $57 $-1 #
coedge $-1 $154 $153 $90 $147 reversed $155 $-1 #
edge $-1 $232 -33.402053847535413 $233 33.402053847535413 $146 $234 forward 7 unknown #
coedge $-1 $92 $91 $235 $236 forward $36 $-1 #
coedge $-1 $237 $238 $91 $150 reversed $222 $-1 #
edge $-1 $157 -60.134891811883904 $239 60.134891811883904 $149 $240 forward 7 unknown #
coedge $-1 $143 $241 $92 $152 reversed $88 $-1 #
edge $-1 $242 -60.134891811883904 $156 60.134891811883904 $151 $243 forward 7 unknown #
coedge $-1 $146 $93 $241 $244 forward $155 $-1 #
coedge $-1 $93 $146 $237 $245 reversed $155 $-1 #
loop $-1 $-1 $153 $221 #
vertex $-1 $94 $246 #
vertex $-1 $94 $247 #
straight-curve $-1 60.134891811883904 0 13.489365470108689 0 1 0 I I #
face $-1 $248 $249 $22 $-1 $250 reversed single #
loop $-1 $-1 $251 $95 #
plane-surface $-1 -60.134891811883904 0 0 1 0 0 0 0 -1 forward_v I I I I #
coedge $-1 $252 $168 $173 $253 reversed $96 $-1 #
coedge $-1 $254 $98 $255 $256 reversed $61 $-1 #
coedge $-1 $98 $254 $252 $257 forward $61 $-1 #
coedge $-1 $173 $172 $98 $166 forward $174 $-1 #
edge $-1 $258 -20.939500247222217 $259 -3.9856069534041758 $165 $260 forward 7 unknown #
coedge $-1 $100 $99 $251 $261 reversed $39 $-1 #
coedge $-1 $162 $262 $99 $169 reversed $96 $-1 #
edge $-1 $175 -60.134891811883904 $263 60.134891811883904 $168 $264 forward 7 unknown #
coedge $-1 $265 $266 $100 $171 forward $249 $-1 #
edge $-1 $176 -60.134891811883904 $267 60.134891811883904 $170 $268 forward 7 unknown #
coedge $-1 $165 $101 $266 $269 forward $174 $-1 #
coedge $-1 $101 $165 $162 $253 forward $174 $-1 #
loop $-1 $-1 $101 $248 #
vertex $-1 $102 $270 #
vertex $-1 $269 $271 #
straight-curve $-1 60.134891811883904 -12.462553600313196 3.7765315084007538 0 -1 0 I I #
face $-1 $-1 $190 $23 $-1 $272 forward single #
loop $-1 $-1 $273 $103 #
plane-surface $-1 -60.134891811883904 0 0 1 0 0 0 0 -1 forward_v I I I I #
coedge $-1 $274 $275 $276 $277 reversed $104 $-1 #
coedge $-1 $278 $106 $108 $188 forward $65 $-1 #
coedge $-1 $106 $278 $274 $279 forward $65 $-1 #
coedge $-1 $276 $109 $106 $185 forward $190 $-1 #
edge $-1 $192 -9.7977333373873066 $280 -3.5031210952728262 $184 $281 forward 7 unknown #
coedge $-1 $282 $283 $107 $187 forward $179 $-1 #
edge $-1 $284 -38.276953558282635 $191 -30.257475102174197 $186 $285 forward 7 unknown #
edge $-1 $192 -10.965252992813612 $284 2.0734513383776317e-014 $108 $286 forward 7 unknown #
coedge $-1 $109 $276 $282 $287 forward $190 $-1 #
loop $-1 $-1 $276 $178 #
vertex $-1 $187 $288 #
vertex $-1 $110 $289 #
straight-curve $-1 -74.047322126022806 -16.448160553717372 13.489365470108687 1 0 0 I I #
coedge $-1 $194 $194 $-1 $290 reversed $113 $-1 #
edge $-1 $291 0 $291 6.2831853071796004 $114 $292 forward 7 unknown #
vertex $-1 $117 $293 #
ellipse-curve $-1 -56.395749581090158 -13.300854432660131 9.4796262420544686 -0.73135370988377701 0 0.68199835119979291 0.68199835119979291 0 0.73135370988377701 1 I I #
face $-1 $-1 $294 $25 $-1 $295 reversed single #
loop $-1 $-1 $296 $118 #
plane-surface $-1 60.134891811883904 0 0 -1 0 0 0 0 1 forward_v I I I I #
coedge $-1 $202 $121 $123 $208 reversed $74 $-1 #
coedge $-1 $121 $201 $297 $298 reversed $74 $-1 #
coedge $-1 $299 $124 $121 $204 forward $119 $-1 #
edge $-1 $211 6.4968417315883968 $300 15.299782103283519 $203 $301 forward 7 unknown #
coedge $-1 $123 $122 $296 $302 reversed $48 $-1 #
coedge $-1 $303 $304 $122 $207 forward $294 $-1 #
edge $-1 $305 -77.005098944332957 $210 -61.657640450434343 $206 $306 forward 7 unknown #
edge $-1 $307 -120.26978362376779 $211 -104.92232512986918 $201 $308 forward 7 unknown #
coedge $-1 $124 $299 $303 $309 forward $119 $-1 #
vertex $-1 $207 $310 #
vertex $-1 $125 $311 #
straight-curve $-1 51.331951440188796 13.686766459485888 13.489365470108694 0 -1 0 I I #
coedge $-1 $213 $213 $-1 $312 reversed $128 $-1 #
edge $-1 $313 0 $313 6.2831853071796004 $129 $314 forward 7 unknown #
vertex $-1 $132 $315 #
ellipse-curve $-1 55.733421626036353 24.789881092444496 7.2034144077331312 0.81915205242281985 0 0.57357642473473569 0.57357642473473569 0 -0.81915205242281985 1 I I #
coedge $-1 $217 $217 $-1 $316 reversed $135 $-1 #
edge $-1 $317 0 $317 6.2831853071796004 $136 $318 forward 7 unknown #
vertex $-1 $139 $319 #
ellipse-curve $-1 55.733421626036353 29.957184745499049 7.2034144077331312 0.81915205242281985 0 0.57357642473473569 0.57357642473473569 0 -0.81915205242281985 1 I I #
face $-1 $-1 $155 $21 $-1 $320 reversed single #
loop $-1 $-1 $237 $140 #
plane-surface $-1 0 33.402053847535413 0 0 -1 0 0 0 -1 forward_v I I I I #
coedge $-1 $321 $235 $238 $322 forward $141 $-1 #
coedge $-1 $241 $143 $144 $229 reversed $88 $-1 #
coedge $-1 $235 $321 $143 $227 reversed $141 $-1 #
edge $-1 $242 -13.489365470108689 $323 13.489365470108689 $226 $324 forward 7 unknown #
coedge $-1 $145 $144 $321 $325 forward $57 $-1 #
edge $-1 $233 -60.134891811883904 $323 60.134891811883904 $225 $326 forward 7 unknown #
coedge $-1 $238 $237 $145 $231 reversed $222 $-1 #
edge $-1 $327 -60.134891811883904 $232 60.134891811883904 $230 $328 forward 7 unknown #
vertex $-1 $147 $329 #
vertex $-1 $244 $330 #
straight-curve $-1 60.134891811883904 0 -13.489365470108689 0 -1 0 I I #
coedge $-1 $224 $226 $148 $236 reversed $141 $-1 #
edge $-1 $239 -33.402053847535413 $242 33.402053847535413 $235 $331 forward 7 unknown #
coedge $-1 $230 $149 $154 $245 forward $222 $-1 #
coedge $-1 $149 $230 $224 $322 reversed $222 $-1 #
vertex $-1 $150 $332 #
straight-curve $-1 0 33.402053847535413 13.489365470108689 -1 0 0 I I #
coedge $-1 $151 $225 $153 $244 reversed $88 $-1 #
vertex $-1 $236 $333 #
straight-curve $-1 0 -33.402053847535413 13.489365470108689 1 0 0 I I #
edge $-1 $156 -13.489365470108689 $233 13.489365470108689 $153 $334 forward 7 unknown #
edge $-1 $157 -13.489365470108689 $232 13.489365470108689 $154 $335 forward 7 unknown #
point $-1 60.134891811883904 -33.402053847535413 13.489365470108689 #
point $-1 60.134891811883904 33.402053847535413 13.489365470108689 #
face $-1 $-1 $174 $22 $-1 $336 reversed single #
loop $-1 $-1 $170 $159 #
plane-surface $-1 0 -33.402053847535413 0 0 1 0 0 0 1 forward_v I I I I #
coedge $-1 $337 $338 $167 $261 forward $160 $-1 #
coedge $-1 $262 $162 $164 $257 reversed $96 $-1 #
edge $-1 $259 -2.2155403359834054 $175 3.256201117594971 $173 $339 forward 7 unknown #
coedge $-1 $164 $163 $340 $341 reversed $61 $-1 #
coedge $-1 $266 $265 $163 $256 forward $249 $-1 #
edge $-1 $342 -60.134891811883904 $258 60.134891811883904 $255 $343 forward 7 unknown #
edge $-1 $344 -60.134891811883904 $259 60.134891811883904 $252 $345 forward 7 unknown #
vertex $-1 $256 $346 #
vertex $-1 $166 $347 #
straight-curve $-1 60.134891811883904 -12.462553600313196 -1.6952099451776226 0 1 0 I I #
edge $-1 $267 -20.939500247222217 $263 -3.9856069534041758 $251 $348 forward 7 unknown #
coedge $-1 $168 $252 $337 $349 reversed $96 $-1 #
vertex $-1 $261 $350 #
straight-curve $-1 0 -16.448160553717372 3.7765315084007538 -1 0 0 I I #
coedge $-1 $255 $170 $338 $351 forward $249 $-1 #
coedge $-1 $170 $255 $172 $269 reversed $249 $-1 #
vertex $-1 $351 $352 #
straight-curve $-1 0 -33.402053847535413 3.7765315084007538 -1 0 0 I I #
edge $-1 $176 -3.7765315084007538 $258 1.6952099451776226 $172 $353 forward 7 unknown #
point $-1 60.134891811883904 -16.448160553717372 3.7765315084007538 #
point $-1 60.134891811883904 -33.402053847535413 3.7765315084007538 #
plane-surface $-1 0 0 13.489365470108689 0 0 1 1 0 0 forward_v I I I I #
coedge $-1 $283 $282 $275 $354 forward $179 $-1 #
coedge $-1 $275 $181 $183 $279 reversed $104 $-1 #
coedge $-1 $181 $274 $273 $354 reversed $104 $-1 #
coedge $-1 $189 $184 $181 $277 forward $190 $-1 #
edge $-1 $280 -21.390714775726394 $355 -13.912430314138902 $276 $356 forward 7 unknown #
coedge $-1 $183 $182 $283 $357 reversed $65 $-1 #
edge $-1 $358 -2.0734513383776317e-014 $280 10.965252992813612 $274 $359 forward 7 unknown #
vertex $-1 $185 $360 #
straight-curve $-1 -52.656607350296404 -6.6504272163300655 13.489365470108689 0 1 0 I I #
coedge $-1 $273 $186 $189 $287 reversed $179 $-1 #
coedge $-1 $186 $273 $278 $357 forward $179 $-1 #
vertex $-1 $187 $361 #
straight-curve $-1 -60.134891811883904 -16.448160553717372 43.746840572282885 0 0 1 I I #
straight-curve $-1 -60.13489181188389 -16.448160553717372 5.469887014000264 -0.68199835119979291 0 -0.73135370988377701 I I #
edge $-1 $355 10.153548311602892 $191 16.448160553717372 $282 $362 forward 7 unknown #
point $-1 -60.134891811883904 -16.448160553717372 13.489365470108689 #
point $-1 -52.656607350296412 -16.448160553717372 13.489365470108689 #
edge $-1 $363 1 $363 0 $194 $-1 forward 7 unknown #
vertex $-1 $195 $364 #
ellipse-curve $-1 -54.394710299123247 -13.300854432660131 7.6136269690018681 -0.73135370988377701 0 0.68199835119979291 0.68199835119979291 0 0.73135370988377701 1 I I #
point $-1 -55.713751229890377 -13.300854432660131 10.21097995193826 #
loop $-1 $-1 $206 $198 #
plane-surface $-1 0 33.402053847535413 0 0 -1 0 0 0 -1 forward_v I I I I #
coedge $-1 $365 $297 $205 $302 forward $199 $-1 #
coedge $-1 $296 $366 $202 $298 forward $199 $-1 #
edge $-1 $300 70.720942499769521 $307 83.292844624520612 $297 $367 forward 7 unknown #
coedge $-1 $209 $203 $366 $368 forward $119 $-1 #
vertex $-1 $368 $369 #
straight-curve $-1 44.835109708600385 21.345011990408135 13.489365470108694 1 0 0 I I #
edge $-1 $307 7.6582455309222475 $305 19.715287388049525 $296 $370 forward 7 unknown #
coedge $-1 $304 $206 $209 $309 reversed $294 $-1 #
coedge $-1 $206 $303 $365 $371 forward $294 $-1 #
vertex $-1 $207 $372 #
straight-curve $-1 15.966582473048845 33.402053847535413 63.996348192630258 -0.57357642473473569 0 0.81915205242281985 I I #
vertex $-1 $302 $373 #
straight-curve $-1 -8.8490206826570841 21.345011990408135 99.436703445215429 -0.57357642473473569 0 0.81915205242281985 I I #
edge $-1 $374 -60.134891811883904 $210 -51.331951440188782 $303 $375 forward 7 unknown #
point $-1 51.331951440188782 33.402053847535413 13.489365470108694 #
point $-1 51.331951440188782 21.345011990408135 13.489365470108694 #
edge $-1 $376 1 $376 0 $213 $-1 forward 7 unknown #
vertex $-1 $214 $377 #
ellipse-curve $-1 54.433608038778672 24.789881092444496 6.2932751631377117 0.81915205242281985 0 0.57357642473473569 0.57357642473473569 0 -0.81915205242281985 1 I I #
point $-1 56.306998050771078 24.789881092444496 6.3842623553103035 #
edge $-1 $378 1 $378 0 $217 $-1 forward 7 unknown #
vertex $-1 $218 $379 #
ellipse-curve $-1 54.433608038778672 29.957184745499049 6.2932751631377117 0.81915205242281985 0 0.57357642473473569 0.57357642473473569 0 -0.81915205242281985 1 I I #
point $-1 56.306998050771078 29.957184745499049 6.3842623553103035 #
plane-surface $-1 60.134891811883904 0 0 -1 0 0 0 0 1 forward_v I I I I #
coedge $-1 $226 $224 $228 $325 reversed $141 $-1 #
edge $-1 $239 -13.489365470108689 $327 13.489365470108689 $238 $380 forward 7 unknown #
vertex $-1 $325 $381 #
straight-curve $-1 -60.134891811883904 -33.402053847535413 0 0 0 -1 I I #
edge $-1 $323 -33.402053847535413 $327 33.402053847535413 $321 $382 forward 7 unknown #
straight-curve $-1 0 -33.402053847535413 -13.489365470108689 -1 0 0 I I #
vertex $-1 $231 $383 #
straight-curve $-1 0 33.402053847535413 -13.489365470108689 1 0 0 I I #
point $-1 60.134891811883904 33.402053847535413 -13.489365470108689 #
point $-1 60.134891811883904 -33.402053847535413 -13.489365470108689 #
straight-curve $-1 -60.134891811883904 0 13.489365470108689 0 -1 0 I I #
point $-1 -60.134891811883904 33.402053847535413 13.489365470108689 #
point $-1 -60.134891811883904 -33.402053847535413 13.489365470108689 #
straight-curve $-1 60.134891811883904 -33.402053847535413 0 0 0 -1 I I #
straight-curve $-1 60.134891811883904 33.402053847535413 0 0 0 -1 I I #
plane-surface $-1 60.134891811883904 0 0 -1 0 0 0 0 1 forward_v I I I I #
coedge $-1 $340 $251 $262 $349 forward $160 $-1 #
coedge $-1 $251 $340 $265 $351 reversed $160 $-1 #
straight-curve $-1 60.134891811883904 -16.448160553717372 0.52033039080578281 0 0 1 I I #
coedge $-1 $338 $337 $254 $341 forward $160 $-1 #
edge $-1 $344 3.9856069534041758 $342 20.939500247222217 $340 $384 forward 7 unknown #
vertex $-1 $256 $385 #
straight-curve $-1 0 -33.402053847535413 -1.6952099451776226 1 0 0 I I #
vertex $-1 $341 $386 #
straight-curve $-1 0 -16.448160553717372 -1.6952099451776226 1 0 0 I I #
point $-1 60.134891811883904 -33.402053847535413 -1.6952099451776226 #
point $-1 60.134891811883904 -16.448160553717372 -1.6952099451776226 #
straight-curve $-1 -60.134891811883904 -12.462553600313196 3.7765315084007538 0 1 0 I I #
edge $-1 $263 -3.256201117594971 $344 2.2155403359834054 $337 $387 forward 7 unknown #
point $-1 -60.134891811883904 -16.448160553717372 3.7765315084007538 #
edge $-1 $267 -3.7765315084007538 $342 1.6952099451776226 $338 $388 forward 7 unknown #
point $-1 -60.134891811883904 -33.402053847535413 3.7765315084007538 #
straight-curve $-1 60.134891811883904 -33.402053847535413 0 0 0 -1 I I #
edge $-1 $355 30.257475102174197 $358 38.276953558282635 $273 $389 forward 7 unknown #
vertex $-1 $287 $390 #
straight-curve $-1 -74.047322126022806 -10.153548311602892 13.489365470108687 -1 0 0 I I #
edge $-1 $358 3.5031210952728262 $284 9.7977333373873066 $283 $391 forward 7 unknown #
vertex $-1 $357 $392 #
straight-curve $-1 -60.13489181188389 -10.153548311602892 5.469887014000264 0.68199835119979291 0 0.73135370988377701 I I #
point $-1 -52.656607350296412 -10.153548311602892 13.489365470108689 #
point $-1 -60.134891811883904 -16.448160553717372 5.4698870140002489 #
straight-curve $-1 -60.134891811883904 0 13.489365470108689 0 -1 0 I I #
vertex $-1 $290 $393 #
point $-1 -53.712711947923452 -13.300854432660131 8.3449806788856442 #
coedge $-1 $366 $296 $304 $371 reversed $199 $-1 #
coedge $-1 $297 $365 $299 $368 reversed $199 $-1 #
straight-curve $-1 60.134891811883904 21.345011990408135 84.210307969878215 0 0 -1 I I #
edge $-1 $300 21.345011990408135 $374 33.402053847535413 $366 $394 forward 7 unknown #
point $-1 60.134891811883904 21.345011990408135 13.489365470108689 #
straight-curve $-1 60.134891811883911 13.686766459485888 0.91746334535759644 0 1 0 I I #
edge $-1 $374 -13.489365470108689 $305 -0.91746334535760354 $365 $395 forward 7 unknown #
point $-1 60.134891811883904 33.402053847535413 0.91746334535760354 #
point $-1 60.134891811883904 21.345011990408135 0.91746334535760354 #
vertex $-1 $368 $396 #
straight-curve $-1 0 33.402053847535413 13.489365470108689 -1 0 0 I I #
vertex $-1 $312 $397 #
point $-1 55.007184463513404 24.789881092444496 5.474123110714892 #
vertex $-1 $316 $398 #
point $-1 55.007184463513404 29.957184745499049 5.474123110714892 #
straight-curve $-1 -60.134891811883904 33.402053847535413 0 0 0 -1 I I #
point $-1 -60.134891811883904 -33.402053847535413 -13.489365470108689 #
straight-curve $-1 -60.134891811883904 0 -13.489365470108689 0 1 0 I I #
point $-1 -60.134891811883904 33.402053847535413 -13.489365470108689 #
straight-curve $-1 -60.134891811883904 -12.462553600313196 -1.6952099451776226 0 -1 0 I I #
point $-1 -60.134891811883904 -33.402053847535413 -1.6952099451776226 #
point $-1 -60.134891811883904 -16.448160553717372 -1.6952099451776226 #
straight-curve $-1 -60.134891811883904 -16.448160553717372 0.52033039080578281 0 0 -1 I I #
straight-curve $-1 -60.134891811883904 -33.402053847535413 0 0 0 -1 I I #
straight-curve $-1 -60.134891811883904 -10.153548311602892 43.746840572282885 0 0 -1 I I #
point $-1 -60.134891811883904 -10.153548311602892 13.489365470108689 #
straight-curve $-1 -60.134891811883904 -6.6504272163300655 5.469887014000248 0 -1 0 I I #
point $-1 -60.134891811883904 -10.153548311602892 5.4698870140002489 #
point $-1 -53.66335658923947 -13.300854432660131 6.9316286178020752 #
straight-curve $-1 60.134891811883904 0 13.489365470108689 0 1 0 I I #
straight-curve $-1 60.134891811883904 33.402053847535413 0 0 0 -1 I I #
point $-1 60.134891811883904 33.402053847535413 13.489365470108689 #
point $-1 53.61445598635585 24.789881092444496 5.7196987384029745 #
point $-1 53.61445598635585 29.957184745499049 5.7196987384029745 #
End-of-ACIS-data 