500 0 11 0           
7 Unknown 11 ACIS 5.0 NT 24 Fri Mar 26 16:31:21 1999 
-1 9.9999999999999995e-007 1e-010 
body $-1 $11 $-1 $12 #
body $-1 $13 $-1 $14 #
body $-1 $15 $-1 $16 #
body $-1 $17 $-1 $18 #
body $-1 $19 $-1 $20 #
body $-1 $21 $-1 $22 #
body $-1 $23 $-1 $24 #
body $-1 $25 $-1 $26 #
body $-1 $27 $-1 $28 #
body $-1 $29 $-1 $30 #
body $-1 $31 $-1 $32 #
lump $-1 $-1 $33 $0 #
transform $-1 1 0 0 0 1 0 0 0 1 70.278023621326327 28.172335693631023 12.762454109399382 1 rotate no_reflect no_shear #
lump $-1 $-1 $34 $1 #
transform $-1 1 0 0 0 1 0 0 0 1 70.278023621326327 28.172335693631023 12.762454109399382 1 rotate no_reflect no_shear #
lump $-1 $-1 $35 $2 #
transform $-1 1 0 0 0 1 0 0 0 1 70.278023621326327 28.172335693631023 12.762454109399382 1 rotate no_reflect no_shear #
lump $-1 $-1 $36 $3 #
transform $-1 1 0 0 0 1 0 0 0 1 70.278023621326327 28.172335693631023 12.762454109399382 1 rotate no_reflect no_shear #
lump $-1 $-1 $37 $4 #
transform $-1 1 0 0 0 1 0 0 0 1 70.278023621326327 28.172335693631023 12.762454109399382 1 rotate no_reflect no_shear #
lump $-1 $-1 $38 $5 #
transform $-1 1 0 0 0 1 0 0 0 1 70.278023621326327 28.172335693631023 12.762454109399382 1 rotate no_reflect no_shear #
lump $-1 $-1 $39 $6 #
transform $-1 1 0 0 0 1 0 0 0 1 70.278023621326327 28.172335693631023 12.762454109399382 1 rotate no_reflect no_shear #
lump $-1 $-1 $40 $7 #
transform $-1 1 0 0 0 1 0 0 0 1 70.278023621326327 28.172335693631023 12.762454109399382 1 rotate no_reflect no_shear #
lump $-1 $-1 $41 $8 #
transform $-1 1 0 0 0 1 0 0 0 1 70.278023621326327 28.172335693631023 12.762454109399382 1 rotate no_reflect no_shear #
lump $-1 $-1 $42 $9 #
transform $-1 1 0 0 0 1 0 0 0 1 70.278023621326327 28.172335693631023 12.762454109399382 1 rotate no_reflect no_shear #
lump $-1 $-1 $43 $10 #
transform $-1 1 0 0 0 1 0 0 0 1 70.278023621326327 28.172335693631023 12.762454109399382 1 rotate no_reflect no_shear #
shell $-1 $-1 $-1 $44 $-1 $11 #
shell $-1 $-1 $-1 $45 $-1 $13 #
shell $-1 $-1 $-1 $46 $-1 $15 #
shell $-1 $-1 $-1 $47 $-1 $17 #
shell $-1 $-1 $-1 $48 $-1 $19 #
shell $-1 $-1 $-1 $49 $-1 $21 #
shell $-1 $-1 $-1 $50 $-1 $23 #
shell $-1 $-1 $-1 $51 $-1 $25 #
shell $-1 $-1 $-1 $52 $-1 $27 #
shell $-1 $-1 $-1 $53 $-1 $29 #
shell $-1 $-1 $-1 $54 $-1 $31 #
face $-1 $55 $56 $33 $-1 $57 forward single #
face $-1 $58 $59 $34 $-1 $60 forward single #
face $-1 $61 $62 $35 $-1 $63 reversed single #
face $-1 $64 $65 $36 $-1 $66 forward single #
face $-1 $67 $68 $37 $-1 $69 forward single #
face $-1 $70 $71 $38 $-1 $72 reversed single #
face $-1 $73 $74 $39 $-1 $75 forward single #
face $-1 $76 $77 $40 $-1 $78 forward single #
face $-1 $79 $80 $41 $-1 $81 reversed single #
face $-1 $82 $83 $42 $-1 $84 forward single #
face $-1 $85 $86 $43 $-1 $87 forward single #
face $-1 $88 $89 $33 $-1 $90 reversed single #
loop $-1 $-1 $91 $44 #
plane-surface $-1 0 0 12.762454109399382 0 0 1 1 0 0 forward_v I I I I #
face $-1 $92 $93 $34 $-1 $94 reversed single #
loop $-1 $-1 $95 $45 #
plane-surface $-1 0 -23.886177245453695 12.239812500237282 0 0 1 1 0 0 forward_v I I I I #
face $-1 $96 $97 $35 $-1 $98 reversed single #
loop $-1 $-1 $99 $46 #
plane-surface $-1 -20.069660624686634 -16.341933469279255 115.82220702402833 0.7660444514056185 0 0.64278759981090561 0.64278759981090561 0 -0.7660444514056185 forward_v I I I I #
face $-1 $100 $101 $36 $-1 $102 forward single #
loop $-1 $103 $104 $47 #
cone-surface $-1 67.800866899643282 -17.738255752706586 10.001436950948806 -0.7660444514056185 0 -0.64278759981090561 0.3213937999054528 0 -0.38302222570280925 1 I I 0 1 0.5 forward I I I I #
face $-1 $105 $106 $37 $-1 $107 forward single #
loop $-1 $108 $109 $48 #
cone-surface $-1 67.800866899643282 -14.94561118585192 10.001436950948806 -0.7660444514056185 0 -0.64278759981090561 0.3213937999054528 0 -0.38302222570280925 1 I I 0 1 0.5 forward I I I I #
face $-1 $110 $111 $38 $-1 $112 reversed single #
loop $-1 $-1 $113 $49 #
plane-surface $-1 -160.62571036588332 -9.5918859517344153 117.22667310193583 0 1 0 -0.64278761758704617 0 0.76604443648966558 forward_v I I I I #
face $-1 $114 $115 $39 $-1 $116 forward single #
loop $-1 $117 $118 $50 #
cone-surface $-1 -67.910965535645232 -7.2009708049888275 10.615619189797966 0.64278761758704617 0 -0.76604443648966558 0.38302221824483279 0 0.32139380879352308 1 I I 0 1 0.5 forward I I I I #
face $-1 $119 $120 $40 $-1 $121 forward single #
loop $-1 $122 $123 $51 #
cone-surface $-1 -67.910965535645232 -3.614598084870444 10.615619189797966 0.64278761758704617 0 -0.76604443648966558 0.38302221824483279 0 0.32139380879352308 1 I I 0 1 0.5 forward I I I I #
face $-1 $124 $125 $41 $-1 $126 reversed single #
loop $-1 $-1 $127 $52 #
plane-surface $-1 -160.62571036588332 9.7959998344795203 117.22667310193583 0 1 0 -0.64278761758704617 0 0.76604443648966558 forward_v I I I I #
face $-1 $128 $129 $42 $-1 $130 forward single #
loop $-1 $131 $132 $53 #
cone-surface $-1 -67.910965535645232 12.186914981225105 10.615619189797966 0.64278761758704617 0 -0.76604443648966558 0.38302221824483279 0 0.32139380879352308 1 I I 0 1 0.5 forward I I I I #
face $-1 $133 $134 $43 $-1 $135 forward single #
loop $-1 $136 $137 $54 #
cone-surface $-1 -67.910965535645232 15.773287701343488 10.615619189797966 0.64278761758704617 0 -0.76604443648966558 0.38302221824483279 0 0.32139380879352308 1 I I 0 1 0.5 forward I I I I #
face $-1 $138 $139 $33 $-1 $140 reversed single #
loop $-1 $-1 $141 $55 #
plane-surface $-1 0 0 -12.762454109399382 0 0 1 1 0 0 forward_v I I I I #
coedge $-1 $142 $143 $144 $145 forward $56 $-1 #
face $-1 $146 $147 $34 $-1 $148 reversed single #
loop $-1 $-1 $149 $58 #
plane-surface $-1 0 -23.886177245453695 8.2292228837180552 0 0 1 1 0 0 forward_v I I I I #
coedge $-1 $150 $151 $152 $153 reversed $59 $-1 #
face $-1 $154 $155 $35 $-1 $156 forward single #
loop $-1 $-1 $157 $61 #
plane-surface $-1 87.60251947705342 -13.083848141282145 206.16989127004129 0 -1 0 -0.7660444514056185 0 -0.64278759981090561 forward_v I I I I #
coedge $-1 $158 $159 $160 $161 reversed $62 $-1 #
face $-1 $-1 $162 $36 $-1 $163 forward single #
loop $-1 $164 $165 $64 #
cone-surface $-1 67.067341990212981 -17.738255752706586 9.3859364861010341 -0.7660444514056185 0 -0.64278759981090561 0.1606968999527264 0 -0.19151111285140462 1 I I -0.70710678118654746 0.70710678118654746 0.25 forward I I I I #
loop $-1 $-1 $166 $47 #
coedge $-1 $104 $104 $167 $168 reversed $65 $-1 #
face $-1 $-1 $169 $37 $-1 $170 forward single #
loop $-1 $171 $172 $67 #
cone-surface $-1 67.067341990212981 -14.94561118585192 9.3859364861010341 -0.7660444514056185 0 -0.64278759981090561 0.1606968999527264 0 -0.19151111285140462 1 I I -0.70710678118654746 0.70710678118654746 0.25 forward I I I I #
loop $-1 $-1 $173 $48 #
coedge $-1 $109 $109 $174 $175 reversed $68 $-1 #
face $-1 $176 $177 $38 $-1 $178 reversed single #
loop $-1 $-1 $179 $70 #
plane-surface $-1 -70.278023621326312 -5.4077844449296357 9.5544950967231586 -0.64278761758704617 0 0.76604443648966558 0.76604443648966558 0 0.64278761758704617 forward_v I I I I #
coedge $-1 $180 $181 $182 $183 reversed $71 $-1 #
face $-1 $-1 $184 $39 $-1 $185 forward single #
loop $-1 $186 $187 $73 #
cone-surface $-1 -67.294758844656002 -7.2009708049888275 9.8812526674122338 0.64278761758704617 0 -0.76604443648966558 0.1915111091224164 0 0.16069690439676154 1 I I -0.70710678118654746 0.70710678118654746 0.25 forward I I I I #
loop $-1 $-1 $188 $50 #
coedge $-1 $118 $118 $189 $190 reversed $74 $-1 #
face $-1 $-1 $191 $40 $-1 $192 forward single #
loop $-1 $193 $194 $76 #
cone-surface $-1 -67.294758844656002 -3.614598084870444 9.8812526674122338 0.64278761758704617 0 -0.76604443648966558 0.1915111091224164 0 0.16069690439676154 1 I I -0.70710678118654746 0.70710678118654746 0.25 forward I I I I #
loop $-1 $-1 $195 $51 #
coedge $-1 $123 $123 $196 $197 reversed $77 $-1 #
face $-1 $198 $199 $41 $-1 $200 reversed single #
loop $-1 $-1 $201 $79 #
plane-surface $-1 -70.278023621326312 13.9801013412843 9.5544950967231586 -0.64278761758704617 0 0.76604443648966558 0.76604443648966558 0 0.64278761758704617 forward_v I I I I #
coedge $-1 $202 $203 $204 $205 reversed $80 $-1 #
face $-1 $-1 $206 $42 $-1 $207 forward single #
loop $-1 $208 $209 $82 #
cone-surface $-1 -67.294758844656002 12.186914981225105 9.8812526674122338 0.64278761758704617 0 -0.76604443648966558 0.1915111091224164 0 0.16069690439676154 1 I I -0.70710678118654746 0.70710678118654746 0.25 forward I I I I #
loop $-1 $-1 $210 $53 #
coedge $-1 $132 $132 $211 $212 reversed $83 $-1 #
face $-1 $-1 $213 $43 $-1 $214 forward single #
loop $-1 $215 $216 $85 #
cone-surface $-1 -67.294758844656002 15.773287701343488 9.8812526674122338 0.64278761758704617 0 -0.76604443648966558 0.1915111091224164 0 0.16069690439676154 1 I I -0.70710678118654746 0.70710678118654746 0.25 forward I I I I #
loop $-1 $-1 $217 $54 #
coedge $-1 $137 $137 $218 $219 reversed $86 $-1 #
face $-1 $220 $221 $33 $-1 $222 reversed single #
loop $-1 $-1 $223 $88 #
plane-surface $-1 0 -28.172335693631023 0 0 1 0 0 0 1 forward_v I I I I #
coedge $-1 $224 $225 $226 $227 forward $89 $-1 #
coedge $-1 $228 $91 $229 $230 forward $56 $-1 #
coedge $-1 $91 $228 $231 $232 forward $56 $-1 #
coedge $-1 $233 $234 $91 $145 reversed $235 $-1 #
edge $-1 $236 -28.172335693631023 $237 28.172335693631023 $144 $238 forward 7 unknown #
face $-1 $239 $240 $34 $-1 $241 reversed single #
loop $-1 $-1 $242 $92 #
plane-surface $-1 0 -19.600018797276363 10.234517691977668 0 -1 0 0 0 -1 forward_v I I I I #
coedge $-1 $243 $244 $245 $246 reversed $93 $-1 #
coedge $-1 $247 $95 $248 $249 forward $59 $-1 #
coedge $-1 $95 $247 $250 $251 reversed $59 $-1 #
coedge $-1 $252 $253 $95 $153 forward $254 $-1 #
edge $-1 $255 7.6569301745495153 $256 16.229247070904179 $152 $257 forward 7 unknown #
face $-1 $258 $259 $35 $-1 $260 reversed single #
loop $-1 $-1 $261 $96 #
plane-surface $-1 0 -19.600018797276363 10.234517691977668 0 -1 0 0 0 -1 forward_v I I I I #
coedge $-1 $262 $263 $264 $265 reversed $97 $-1 #
coedge $-1 $266 $99 $261 $267 forward $62 $-1 #
coedge $-1 $99 $266 $262 $268 forward $62 $-1 #
coedge $-1 $264 $269 $99 $161 forward $259 $-1 #
edge $-1 $270 -11.429052062636735 $271 -4.9128814066425175 $160 $272 forward 7 unknown #
loop $-1 $-1 $167 $100 #
plane-surface $-1 -20.069660624686634 -16.341933469279255 115.82220702402833 0.7660444514056185 0 0.64278759981090561 0.64278759981090561 0 -0.7660444514056185 forward_v I I I I #
loop $-1 $-1 $273 $64 #
coedge $-1 $165 $165 $166 $274 reversed $101 $-1 #
coedge $-1 $166 $166 $165 $274 forward $103 $-1 #
coedge $-1 $167 $167 $104 $168 forward $162 $-1 #
edge $-1 $275 0 $275 6.2831853071796004 $167 $276 forward 7 unknown #
loop $-1 $-1 $174 $105 #
plane-surface $-1 -20.069660624686634 -16.341933469279255 115.82220702402833 0.7660444514056185 0 0.64278759981090561 0.64278759981090561 0 -0.7660444514056185 forward_v I I I I #
loop $-1 $-1 $277 $67 #
coedge $-1 $172 $172 $173 $278 reversed $106 $-1 #
coedge $-1 $173 $173 $172 $278 forward $108 $-1 #
coedge $-1 $174 $174 $109 $175 forward $169 $-1 #
edge $-1 $279 0 $279 6.2831853071796004 $174 $280 forward 7 unknown #
face $-1 $281 $282 $38 $-1 $283 forward single #
loop $-1 $-1 $284 $110 #
plane-surface $-1 -160.62571036588332 -1.2236829381248562 117.22667310193583 0 -1 0 0.64278761758704617 0 -0.76604443648966558 forward_v I I I I #
coedge $-1 $285 $286 $287 $288 reversed $111 $-1 #
coedge $-1 $181 $113 $289 $290 reversed $71 $-1 #
coedge $-1 $113 $180 $285 $291 reversed $71 $-1 #
coedge $-1 $287 $292 $113 $183 forward $282 $-1 #
edge $-1 $293 10.034831561615334 $294 13.857928159792607 $182 $295 forward 7 unknown #
loop $-1 $-1 $189 $114 #
plane-surface $-1 -70.278023621326312 -5.4077844449296357 9.5544950967231586 -0.64278761758704617 0 0.76604443648966558 0.76604443648966558 0 0.64278761758704617 forward_v I I I I #
loop $-1 $-1 $296 $73 #
coedge $-1 $187 $187 $188 $297 reversed $115 $-1 #
coedge $-1 $188 $188 $187 $297 forward $117 $-1 #
coedge $-1 $189 $189 $118 $190 forward $184 $-1 #
edge $-1 $298 0 $298 6.2831853071796004 $189 $299 forward 7 unknown #
loop $-1 $-1 $196 $119 #
plane-surface $-1 -70.278023621326312 -5.4077844449296357 9.5544950967231586 -0.64278761758704617 0 0.76604443648966558 0.76604443648966558 0 0.64278761758704617 forward_v I I I I #
loop $-1 $-1 $300 $76 #
coedge $-1 $194 $194 $195 $301 reversed $120 $-1 #
coedge $-1 $195 $195 $194 $301 forward $122 $-1 #
coedge $-1 $196 $196 $123 $197 forward $191 $-1 #
edge $-1 $302 0 $302 6.2831853071796004 $196 $303 forward 7 unknown #
face $-1 $304 $305 $41 $-1 $306 forward single #
loop $-1 $-1 $307 $124 #
plane-surface $-1 -160.62571036588332 18.164202848089079 117.22667310193583 0 -1 0 0.64278761758704617 0 -0.76604443648966558 forward_v I I I I #
coedge $-1 $308 $309 $310 $311 reversed $125 $-1 #
coedge $-1 $203 $127 $312 $313 reversed $80 $-1 #
coedge $-1 $127 $202 $308 $314 reversed $80 $-1 #
coedge $-1 $310 $315 $127 $205 forward $305 $-1 #
edge $-1 $316 10.034831561615334 $317 13.857928159792607 $204 $318 forward 7 unknown #
loop $-1 $-1 $211 $128 #
plane-surface $-1 -70.278023621326312 13.9801013412843 9.5544950967231586 -0.64278761758704617 0 0.76604443648966558 0.76604443648966558 0 0.64278761758704617 forward_v I I I I #
loop $-1 $-1 $319 $82 #
coedge $-1 $209 $209 $210 $320 reversed $129 $-1 #
coedge $-1 $210 $210 $209 $320 forward $131 $-1 #
coedge $-1 $211 $211 $132 $212 forward $206 $-1 #
edge $-1 $321 0 $321 6.2831853071796004 $211 $322 forward 7 unknown #
loop $-1 $-1 $218 $133 #
plane-surface $-1 -70.278023621326312 13.9801013412843 9.5544950967231586 -0.64278761758704617 0 0.76604443648966558 0.76604443648966558 0 0.64278761758704617 forward_v I I I I #
loop $-1 $-1 $323 $85 #
coedge $-1 $216 $216 $217 $324 reversed $134 $-1 #
coedge $-1 $217 $217 $216 $324 forward $136 $-1 #
coedge $-1 $218 $218 $137 $219 forward $213 $-1 #
edge $-1 $325 0 $325 6.2831853071796004 $218 $326 forward 7 unknown #
face $-1 $327 $328 $33 $-1 $329 reversed single #
loop $-1 $-1 $330 $138 #
plane-surface $-1 -70.278023621326327 0 0 1 0 0 0 0 -1 forward_v I I I I #
coedge $-1 $331 $231 $332 $333 forward $139 $-1 #
coedge $-1 $334 $141 $331 $335 forward $89 $-1 #
coedge $-1 $141 $334 $336 $337 forward $89 $-1 #
coedge $-1 $234 $233 $141 $227 reversed $235 $-1 #
edge $-1 $338 -28.172335693631023 $339 28.172335693631023 $226 $340 forward 7 unknown #
coedge $-1 $143 $142 $341 $342 forward $56 $-1 #
coedge $-1 $343 $344 $142 $230 reversed $328 $-1 #
edge $-1 $237 -70.278023621326327 $345 70.278023621326327 $229 $346 forward 7 unknown #
coedge $-1 $223 $347 $143 $232 reversed $139 $-1 #
edge $-1 $348 -70.278023621326327 $236 70.278023621326327 $231 $349 forward 7 unknown #
coedge $-1 $226 $144 $347 $350 forward $235 $-1 #
coedge $-1 $144 $226 $343 $351 reversed $235 $-1 #
loop $-1 $-1 $233 $327 #
vertex $-1 $145 $352 #
vertex $-1 $145 $353 #
straight-curve $-1 70.278023621326327 0 12.762454109399382 0 1 0 I I #
face $-1 $354 $355 $34 $-1 $356 reversed single #
loop $-1 $-1 $357 $146 #
plane-surface $-1 -70.278023621326327 0 0 1 0 0 0 0 -1 forward_v I I I I #
coedge $-1 $358 $359 $244 $360 reversed $147 $-1 #
coedge $-1 $361 $149 $362 $363 reversed $93 $-1 #
coedge $-1 $149 $361 $242 $360 forward $93 $-1 #
coedge $-1 $253 $252 $149 $246 forward $254 $-1 #
edge $-1 $364 -16.229247070904179 $365 -7.6569301745495153 $245 $366 forward 7 unknown #
coedge $-1 $151 $150 $357 $367 reversed $59 $-1 #
coedge $-1 $359 $358 $150 $249 reversed $147 $-1 #
edge $-1 $255 -70.278023621326327 $368 70.278023621326327 $248 $369 forward 7 unknown #
coedge $-1 $370 $371 $151 $251 forward $355 $-1 #
edge $-1 $256 -70.278023621326327 $372 70.278023621326327 $250 $373 forward 7 unknown #
coedge $-1 $245 $152 $371 $374 forward $254 $-1 #
coedge $-1 $152 $245 $359 $375 forward $254 $-1 #
loop $-1 $-1 $152 $354 #
vertex $-1 $153 $376 #
vertex $-1 $374 $377 #
straight-curve $-1 70.278023621326327 -11.943088622726847 12.239812500237282 0 -1 0 I I #
face $-1 $-1 $378 $35 $-1 $379 forward single #
loop $-1 $-1 $269 $154 #
plane-surface $-1 70.278023621326327 0 0 -1 0 0 0 0 1 forward_v I I I I #
coedge $-1 $380 $381 $158 $267 reversed $155 $-1 #
coedge $-1 $263 $157 $159 $268 reversed $97 $-1 #
coedge $-1 $157 $262 $382 $383 reversed $97 $-1 #
coedge $-1 $384 $160 $157 $265 forward $259 $-1 #
edge $-1 $271 -94.934918712732355 $385 -90.32249152562126 $264 $386 forward 7 unknown #
coedge $-1 $159 $158 $387 $388 reversed $62 $-1 #
edge $-1 $270 -140.55604724265268 $389 -134.53495123621633 $261 $390 forward 7 unknown #
edge $-1 $391 134.53495123621633 $271 140.55604724265268 $262 $392 forward 7 unknown #
coedge $-1 $160 $384 $380 $393 forward $259 $-1 #
vertex $-1 $161 $394 #
vertex $-1 $161 $395 #
straight-curve $-1 70.278023621326327 -8.1709667346396273 8.1500269222882835 0 1 0 I I #
coedge $-1 $273 $273 $-1 $396 reversed $164 $-1 #
edge $-1 $397 0 $397 6.2831853071796004 $165 $398 forward 7 unknown #
vertex $-1 $168 $399 #
ellipse-curve $-1 68.342880696222181 -17.738255752706586 10.456240515843852 0.7660444514056185 0 0.64278759981090561 0.3213937999054528 0 -0.38302222570280925 1 I I #
coedge $-1 $277 $277 $-1 $400 reversed $171 $-1 #
edge $-1 $401 0 $401 6.2831853071796004 $172 $402 forward 7 unknown #
vertex $-1 $175 $403 #
ellipse-curve $-1 68.342880696222181 -14.94561118585192 10.456240515843852 0.7660444514056185 0 0.64278759981090561 0.3213937999054528 0 -0.38302222570280925 1 I I #
face $-1 $-1 $404 $38 $-1 $405 reversed single #
loop $-1 $-1 $182 $176 #
plane-surface $-1 0 0 12.762454109399382 0 0 1 1 0 0 forward_v I I I I #
coedge $-1 $406 $407 $408 $409 reversed $177 $-1 #
coedge $-1 $410 $179 $181 $291 forward $111 $-1 #
coedge $-1 $179 $410 $406 $411 forward $111 $-1 #
coedge $-1 $408 $182 $179 $288 forward $282 $-1 #
edge $-1 $294 -6.8879937292695974 $412 1.4802092843399617 $287 $413 forward 7 unknown #
coedge $-1 $414 $415 $180 $290 forward $404 $-1 #
edge $-1 $416 -49.058841454244771 $293 -45.85088244156853 $289 $417 forward 7 unknown #
edge $-1 $294 -4.9906982102712973 $416 1.8878887457821222e-014 $181 $418 forward 7 unknown #
coedge $-1 $182 $408 $414 $419 forward $282 $-1 #
vertex $-1 $290 $420 #
vertex $-1 $183 $421 #
straight-curve $-1 -80.312855182941661 -9.5918859517344153 12.762454109399386 1 0 0 I I #
coedge $-1 $296 $296 $-1 $422 reversed $186 $-1 #
edge $-1 $423 0 $423 6.2831853071796004 $187 $424 forward 7 unknown #
vertex $-1 $190 $425 #
ellipse-curve $-1 -68.36647532223769 -7.2009708049888275 11.158474603061265 -0.64278761758704617 0 0.76604443648966558 0.38302221824483279 0 0.32139380879352308 1 I I #
coedge $-1 $300 $300 $-1 $426 reversed $193 $-1 #
edge $-1 $427 0 $427 6.2831853071796004 $194 $428 forward 7 unknown #
vertex $-1 $197 $429 #
ellipse-curve $-1 -68.36647532223769 -3.614598084870444 11.158474603061265 -0.64278761758704617 0 0.76604443648966558 0.38302221824483279 0 0.32139380879352308 1 I I #
face $-1 $-1 $430 $41 $-1 $431 reversed single #
loop $-1 $-1 $204 $198 #
plane-surface $-1 0 0 12.762454109399382 0 0 1 1 0 0 forward_v I I I I #
coedge $-1 $432 $433 $434 $435 reversed $199 $-1 #
coedge $-1 $436 $201 $203 $314 forward $125 $-1 #
coedge $-1 $201 $436 $432 $437 forward $125 $-1 #
coedge $-1 $434 $204 $201 $311 forward $305 $-1 #
edge $-1 $317 2.8059491638373704 $438 11.174152177446929 $310 $439 forward 7 unknown #
coedge $-1 $440 $441 $202 $313 forward $430 $-1 #
edge $-1 $442 -49.058841454244771 $316 -45.85088244156853 $312 $443 forward 7 unknown #
edge $-1 $317 -4.9906982102712973 $442 1.8878887457821222e-014 $203 $444 forward 7 unknown #
coedge $-1 $204 $434 $440 $445 forward $305 $-1 #
vertex $-1 $205 $446 #
vertex $-1 $205 $447 #
straight-curve $-1 -80.312855182941661 9.7959998344795203 12.762454109399386 1 0 0 I I #
coedge $-1 $319 $319 $-1 $448 reversed $208 $-1 #
edge $-1 $449 0 $449 6.2831853071796004 $209 $450 forward 7 unknown #
vertex $-1 $212 $451 #
ellipse-curve $-1 -68.36647532223769 12.186914981225105 11.158474603061265 -0.64278761758704617 0 0.76604443648966558 0.38302221824483279 0 0.32139380879352308 1 I I #
coedge $-1 $323 $323 $-1 $452 reversed $215 $-1 #
edge $-1 $453 0 $453 6.2831853071796004 $216 $454 forward 7 unknown #
vertex $-1 $219 $455 #
ellipse-curve $-1 -68.36647532223769 15.773287701343488 11.158474603061265 -0.64278761758704617 0 0.76604443648966558 0.38302221824483279 0 0.32139380879352308 1 I I #
face $-1 $-1 $235 $33 $-1 $456 reversed single #
loop $-1 $-1 $343 $220 #
plane-surface $-1 0 28.172335693631023 0 0 -1 0 0 0 -1 forward_v I I I I #
coedge $-1 $457 $341 $344 $458 forward $221 $-1 #
coedge $-1 $347 $223 $224 $335 reversed $139 $-1 #
coedge $-1 $341 $457 $223 $333 reversed $221 $-1 #
edge $-1 $348 -12.762454109399382 $459 12.762454109399382 $332 $460 forward 7 unknown #
coedge $-1 $225 $224 $457 $461 forward $89 $-1 #
edge $-1 $339 -70.278023621326327 $459 70.278023621326327 $331 $462 forward 7 unknown #
coedge $-1 $344 $343 $225 $337 reversed $328 $-1 #
edge $-1 $463 -70.278023621326327 $338 70.278023621326327 $336 $464 forward 7 unknown #
vertex $-1 $227 $465 #
vertex $-1 $350 $466 #
straight-curve $-1 70.278023621326327 0 -12.762454109399382 0 -1 0 I I #
coedge $-1 $330 $332 $228 $342 reversed $221 $-1 #
edge $-1 $345 -28.172335693631023 $348 28.172335693631023 $341 $467 forward 7 unknown #
coedge $-1 $336 $229 $234 $351 forward $328 $-1 #
coedge $-1 $229 $336 $330 $458 reversed $328 $-1 #
vertex $-1 $230 $468 #
straight-curve $-1 0 28.172335693631023 12.762454109399382 -1 0 0 I I #
coedge $-1 $231 $331 $233 $350 reversed $139 $-1 #
vertex $-1 $342 $469 #
straight-curve $-1 0 -28.172335693631023 12.762454109399382 1 0 0 I I #
edge $-1 $236 -12.762454109399382 $339 12.762454109399382 $233 $470 forward 7 unknown #
edge $-1 $237 -12.762454109399382 $338 12.762454109399382 $234 $471 forward 7 unknown #
point $-1 70.278023621326327 -28.172335693631023 12.762454109399382 #
point $-1 70.278023621326327 28.172335693631023 12.762454109399382 #
face $-1 $-1 $254 $34 $-1 $472 reversed single #
loop $-1 $-1 $250 $239 #
plane-surface $-1 0 -28.172335693631023 0 0 1 0 0 0 1 forward_v I I I I #
coedge $-1 $473 $474 $247 $367 forward $240 $-1 #
coedge $-1 $248 $242 $473 $475 reversed $147 $-1 #
coedge $-1 $242 $248 $253 $375 reversed $147 $-1 #
edge $-1 $476 -70.278023621326327 $365 70.278023621326327 $242 $477 forward 7 unknown #
coedge $-1 $244 $243 $478 $479 reversed $93 $-1 #
coedge $-1 $371 $370 $243 $363 forward $355 $-1 #
edge $-1 $480 -70.278023621326327 $364 70.278023621326327 $362 $481 forward 7 unknown #
vertex $-1 $363 $482 #
vertex $-1 $246 $483 #
straight-curve $-1 70.278023621326327 -11.943088622726847 8.2292228837180552 0 1 0 I I #
edge $-1 $372 -16.229247070904179 $368 -7.6569301745495153 $357 $484 forward 7 unknown #
vertex $-1 $367 $485 #
straight-curve $-1 0 -19.600018797276363 12.239812500237282 -1 0 0 I I #
coedge $-1 $362 $250 $474 $486 forward $355 $-1 #
coedge $-1 $250 $362 $252 $374 reversed $355 $-1 #
vertex $-1 $486 $487 #
straight-curve $-1 0 -28.172335693631023 12.239812500237282 -1 0 0 I I #
edge $-1 $256 -12.239812500237282 $364 -8.2292228837180552 $252 $488 forward 7 unknown #
edge $-1 $365 3.111964037729221 $255 7.1225536542484473 $253 $489 forward 7 unknown #
point $-1 70.278023621326327 -19.600018797276363 12.239812500237282 #
point $-1 70.278023621326327 -28.172335693631027 12.239812500237282 #
loop $-1 $-1 $490 $258 #
plane-surface $-1 0 0 12.762454109399382 0 0 1 1 0 0 forward_v I I I I #
coedge $-1 $381 $261 $269 $393 reversed $155 $-1 #
coedge $-1 $261 $380 $490 $491 reversed $155 $-1 #
coedge $-1 $387 $492 $263 $383 forward $378 $-1 #
edge $-1 $385 -26.476763882799617 $391 -22.606478032591355 $382 $493 forward 7 unknown #
coedge $-1 $269 $264 $492 $494 reversed $259 $-1 #
vertex $-1 $265 $495 #
straight-curve $-1 70.278023621326327 -13.083848141282145 103.08494563502065 0 0 1 I I #
coedge $-1 $490 $382 $266 $388 forward $378 $-1 #
edge $-1 $391 4.9128814066425175 $389 11.429052062636735 $387 $496 forward 7 unknown #
vertex $-1 $491 $497 #
straight-curve $-1 -20.069660624686634 -19.600018797276363 115.82220702402833 -0.64278759981090561 0 0.7660444514056185 I I #
vertex $-1 $388 $498 #
straight-curve $-1 -20.069660624686634 -13.083848141282145 115.82220702402833 0.64278759981090561 0 -0.7660444514056185 I I #
edge $-1 $499 90.32249152562126 $270 94.934918712732355 $269 $500 forward 7 unknown #
point $-1 70.278023621326327 -19.600018797276363 8.1500269222882906 #
point $-1 70.278023621326327 -13.083848141282145 8.1500269222882906 #
edge $-1 $501 1 $501 0 $273 $-1 forward 7 unknown #
vertex $-1 $274 $502 #
ellipse-curve $-1 67.258853103064382 -17.738255752706586 9.5466333860537613 0.7660444514056185 0 0.64278759981090561 0.3213937999054528 0 -0.38302222570280925 1 I I #
point $-1 68.664274496127632 -17.738255752706586 10.073218290141043 #
edge $-1 $503 1 $503 0 $277 $-1 forward 7 unknown #
vertex $-1 $278 $504 #
ellipse-curve $-1 67.258853103064382 -14.94561118585192 9.5466333860537613 0.7660444514056185 0 0.64278759981090561 0.3213937999054528 0 -0.38302222570280925 1 I I #
point $-1 68.664274496127632 -14.94561118585192 10.073218290141043 #
loop $-1 $-1 $289 $281 #
plane-surface $-1 -70.278023621326327 0 0 1 0 0 0 0 -1 forward_v I I I I #
coedge $-1 $407 $284 $286 $411 reversed $177 $-1 #
coedge $-1 $284 $406 $505 $506 reversed $177 $-1 #
coedge $-1 $292 $287 $284 $409 forward $282 $-1 #
edge $-1 $412 -13.857928159792607 $507 -10.034831561615334 $408 $508 forward 7 unknown #
coedge $-1 $286 $285 $415 $509 reversed $111 $-1 #
edge $-1 $510 -1.8878887457821222e-014 $412 4.9906982102712973 $406 $511 forward 7 unknown #
vertex $-1 $288 $512 #
straight-curve $-1 -66.454927023149054 -2.7038922224648179 12.762454109399384 0 1 0 I I #
coedge $-1 $505 $289 $292 $419 reversed $404 $-1 #
coedge $-1 $289 $505 $410 $509 forward $404 $-1 #
vertex $-1 $290 $513 #
straight-curve $-1 -70.278023621326327 -9.5918859517344153 58.613336550967915 0 0 1 I I #
straight-curve $-1 -70.278023621326312 -9.5918859517344153 9.5544950967231586 -0.76604443648966558 0 -0.64278761758704617 I I #
edge $-1 $507 1.2236829381248562 $293 9.5918859517344153 $414 $514 forward 7 unknown #
point $-1 -70.278023621326327 -9.5918859517344153 12.762454109399382 #
point $-1 -66.454927023149054 -9.5918859517344153 12.762454109399382 #
edge $-1 $515 1 $515 0 $296 $-1 forward 7 unknown #
vertex $-1 $297 $516 #
ellipse-curve $-1 -67.45545574905276 -7.2009708049888275 10.07276377653465 -0.64278761758704617 0 0.76604443648966558 0.38302221824483279 0 0.32139380879352308 1 I I #
point $-1 -67.983453103992872 -7.2009708049888275 11.479868411854808 #
edge $-1 $517 1 $517 0 $300 $-1 forward 7 unknown #
vertex $-1 $301 $518 #
ellipse-curve $-1 -67.45545574905276 -3.614598084870444 10.07276377653465 -0.64278761758704617 0 0.76604443648966558 0.38302221824483279 0 0.32139380879352308 1 I I #
point $-1 -67.983453103992872 -3.614598084870444 11.479868411854808 #
loop $-1 $-1 $312 $304 #
plane-surface $-1 -70.278023621326327 0 0 1 0 0 0 0 -1 forward_v I I I I #
coedge $-1 $433 $307 $309 $437 reversed $199 $-1 #
coedge $-1 $307 $432 $519 $520 reversed $199 $-1 #
coedge $-1 $315 $310 $307 $435 forward $305 $-1 #
edge $-1 $438 -13.857928159792607 $521 -10.034831561615334 $434 $522 forward 7 unknown #
coedge $-1 $309 $308 $441 $523 reversed $125 $-1 #
edge $-1 $524 -1.8878887457821222e-014 $438 4.9906982102712973 $432 $525 forward 7 unknown #
vertex $-1 $311 $526 #
straight-curve $-1 -66.454927023149054 6.9900506706421499 12.762454109399384 0 1 0 I I #
coedge $-1 $519 $312 $315 $445 reversed $430 $-1 #
coedge $-1 $312 $519 $436 $523 forward $430 $-1 #
vertex $-1 $313 $527 #
straight-curve $-1 -70.278023621326327 9.7959998344795203 58.613336550967915 0 0 1 I I #
straight-curve $-1 -70.278023621326312 9.7959998344795203 9.5544950967231586 -0.76604443648966558 0 -0.64278761758704617 I I #
edge $-1 $521 -18.164202848089079 $316 -9.7959998344795203 $440 $528 forward 7 unknown #
point $-1 -70.278023621326327 9.7959998344795203 12.762454109399382 #
point $-1 -66.454927023149054 9.7959998344795203 12.762454109399382 #
edge $-1 $529 1 $529 0 $319 $-1 forward 7 unknown #
vertex $-1 $320 $530 #
ellipse-curve $-1 -67.45545574905276 12.186914981225105 10.07276377653465 -0.64278761758704617 0 0.76604443648966558 0.38302221824483279 0 0.32139380879352308 1 I I #
point $-1 -67.983453103992872 12.186914981225105 11.479868411854808 #
edge $-1 $531 1 $531 0 $323 $-1 forward 7 unknown #
vertex $-1 $324 $532 #
ellipse-curve $-1 -67.45545574905276 15.773287701343488 10.07276377653465 -0.64278761758704617 0 0.76604443648966558 0.38302221824483279 0 0.32139380879352308 1 I I #
point $-1 -67.983453103992872 15.773287701343488 11.479868411854808 #
plane-surface $-1 70.278023621326327 0 0 -1 0 0 0 0 1 forward_v I I I I #
coedge $-1 $332 $330 $334 $461 reversed $221 $-1 #
edge $-1 $345 -12.762454109399382 $463 12.762454109399382 $344 $533 forward 7 unknown #
vertex $-1 $461 $534 #
straight-curve $-1 -70.278023621326327 -28.172335693631023 0 0 0 -1 I I #
edge $-1 $459 -28.172335693631023 $463 28.172335693631023 $457 $535 forward 7 unknown #
straight-curve $-1 0 -28.172335693631023 -12.762454109399382 -1 0 0 I I #
vertex $-1 $337 $536 #
straight-curve $-1 0 28.172335693631023 -12.762454109399382 1 0 0 I I #
point $-1 70.278023621326327 28.172335693631023 -12.762454109399382 #
point $-1 70.278023621326327 -28.172335693631023 -12.762454109399382 #
straight-curve $-1 -70.278023621326327 0 12.762454109399382 0 -1 0 I I #
point $-1 -70.278023621326327 28.172335693631023 12.762454109399382 #
point $-1 -70.278023621326327 -28.172335693631023 12.762454109399382 #
straight-curve $-1 70.278023621326327 -28.172335693631023 0 0 0 -1 I I #
straight-curve $-1 70.278023621326327 28.172335693631023 0 0 0 -1 I I #
plane-surface $-1 70.278023621326327 0 0 -1 0 0 0 0 1 forward_v I I I I #
coedge $-1 $478 $357 $358 $475 forward $240 $-1 #
coedge $-1 $357 $478 $370 $486 reversed $240 $-1 #
edge $-1 $368 -7.1225536542484473 $476 -3.111964037729221 $473 $537 forward 7 unknown #
vertex $-1 $479 $538 #
straight-curve $-1 0 -19.600018797276363 8.2292228837180552 1 0 0 I I #
coedge $-1 $474 $473 $361 $479 forward $240 $-1 #
edge $-1 $476 7.6569301745495153 $480 16.229247070904179 $478 $539 forward 7 unknown #
vertex $-1 $363 $540 #
straight-curve $-1 0 -28.172335693631023 8.2292228837180552 1 0 0 I I #
point $-1 70.278023621326327 -28.172335693631027 8.2292228837180552 #
point $-1 70.278023621326327 -19.600018797276363 8.2292228837180552 #
straight-curve $-1 -70.278023621326327 -11.943088622726847 12.239812500237282 0 1 0 I I #
point $-1 -70.278023621326327 -19.600018797276363 12.239812500237282 #
edge $-1 $372 -12.239812500237282 $480 -8.2292228837180552 $474 $541 forward 7 unknown #
point $-1 -70.278023621326327 -28.172335693631027 12.239812500237282 #
straight-curve $-1 70.278023621326327 -28.172335693631023 0 0 0 -1 I I #
straight-curve $-1 70.278023621326327 -19.600018797276363 5.1172588459888342 0 0 1 I I #
coedge $-1 $492 $387 $381 $491 forward $378 $-1 #
edge $-1 $389 22.606478032591355 $499 26.476763882799617 $490 $542 forward 7 unknown #
coedge $-1 $382 $490 $384 $494 forward $378 $-1 #
straight-curve $-1 43.80125973852671 -13.083848141282145 12.762454109399386 -1 0 0 I I #
edge $-1 $499 -19.600018797276363 $385 -13.083848141282145 $384 $543 forward 7 unknown #
point $-1 70.278023621326327 -13.083848141282145 12.762454109399382 #
straight-curve $-1 66.407737771118065 -8.1709667346396273 12.762454109399386 0 -1 0 I I #
point $-1 66.407737771118065 -19.600018797276363 12.762454109399386 #
point $-1 66.407737771118065 -13.083848141282145 12.762454109399386 #
vertex $-1 $494 $544 #
straight-curve $-1 70.278023621326327 -19.600018797276363 103.08494563502065 0 0 -1 I I #
vertex $-1 $396 $545 #
point $-1 67.580246902969833 -17.738255752706586 9.1636111603509516 #
vertex $-1 $400 $546 #
point $-1 67.580246902969833 -14.94561118585192 9.1636111603509516 #
coedge $-1 $415 $414 $407 $506 forward $404 $-1 #
edge $-1 $507 45.85088244156853 $510 49.058841454244771 $505 $547 forward 7 unknown #
vertex $-1 $419 $548 #
straight-curve $-1 -80.312855182941661 -1.2236829381248562 12.762454109399386 -1 0 0 I I #
edge $-1 $510 -1.4802092843399617 $416 6.8879937292695974 $415 $549 forward 7 unknown #
vertex $-1 $509 $550 #
straight-curve $-1 -70.278023621326312 -1.2236829381248562 9.5544950967231586 0.76604443648966558 0 0.64278761758704617 I I #
point $-1 -66.454927023149054 -1.2236829381248562 12.762454109399382 #
point $-1 -70.278023621326327 -9.5918859517344153 9.5544950967231461 #
straight-curve $-1 -70.278023621326327 0 12.762454109399382 0 -1 0 I I #
vertex $-1 $422 $551 #
point $-1 -67.072433530807928 -7.2009708049888275 10.394157585328173 #
vertex $-1 $426 $552 #
point $-1 -67.072433530807928 -3.614598084870444 10.394157585328173 #
coedge $-1 $441 $440 $433 $520 forward $430 $-1 #
edge $-1 $521 45.85088244156853 $524 49.058841454244771 $519 $553 forward 7 unknown #
vertex $-1 $445 $554 #
straight-curve $-1 -80.312855182941661 18.164202848089079 12.762454109399386 -1 0 0 I I #
edge $-1 $524 -11.174152177446929 $442 -2.8059491638373704 $441 $555 forward 7 unknown #
vertex $-1 $523 $556 #
straight-curve $-1 -70.278023621326312 18.164202848089079 9.5544950967231586 0.76604443648966558 0 0.64278761758704617 I I #
point $-1 -66.454927023149054 18.164202848089079 12.762454109399382 #
point $-1 -70.278023621326327 9.7959998344795203 9.5544950967231461 #
straight-curve $-1 -70.278023621326327 0 12.762454109399382 0 -1 0 I I #
vertex $-1 $448 $557 #
point $-1 -67.072433530807928 12.186914981225105 10.394157585328173 #
vertex $-1 $452 $558 #
point $-1 -67.072433530807928 15.773287701343488 10.394157585328173 #
straight-curve $-1 -70.278023621326327 28.172335693631023 0 0 0 -1 I I #
point $-1 -70.278023621326327 -28.172335693631023 -12.762454109399382 #
straight-curve $-1 -70.278023621326327 0 -12.762454109399382 0 1 0 I I #
point $-1 -70.278023621326327 28.172335693631023 -12.762454109399382 #
straight-curve $-1 -70.278023621326327 -19.600018797276363 5.1172588459888342 0 0 -1 I I #
point $-1 -70.278023621326327 -19.600018797276363 8.2292228837180552 #
straight-curve $-1 -70.278023621326327 -11.943088622726847 8.2292228837180552 0 -1 0 I I #
point $-1 -70.278023621326327 -28.172335693631027 8.2292228837180552 #
straight-curve $-1 -70.278023621326327 -28.172335693631023 0 0 0 -1 I I #
straight-curve $-1 43.80125973852671 -19.600018797276363 12.762454109399386 1 0 0 I I #
straight-curve $-1 70.278023621326327 0 12.762454109399382 0 1 0 I I #
point $-1 70.278023621326327 -19.600018797276363 12.762454109399382 #
point $-1 66.875830877361579 -17.738255752706586 9.225239586148307 #
point $-1 66.875830877361579 -14.94561118585192 9.225239586148307 #
straight-curve $-1 -70.278023621326327 -1.2236829381248562 58.613336550967915 0 0 -1 I I #
point $-1 -70.278023621326327 -1.2236829381248562 12.762454109399382 #
straight-curve $-1 -70.278023621326327 -2.7038922224648179 9.5544950967231514 0 -1 0 I I #
point $-1 -70.278023621326327 -1.2236829381248562 9.5544950967231461 #
point $-1 -67.134061940259244 -7.2009708049888275 9.6897415582898176 #
point $-1 -67.134061940259244 -3.614598084870444 9.6897415582898176 #
straight-curve $-1 -70.278023621326327 18.164202848089079 58.613336550967915 0 0 -1 I I #
point $-1 -70.278023621326327 18.164202848089079 12.762454109399382 #
straight-curve $-1 -70.278023621326327 6.9900506706421499 9.5544950967231514 0 -1 0 I I #
point $-1 -70.278023621326327 18.164202848089079 9.5544950967231461 #
point $-1 -67.134061940259244 12.186914981225105 9.6897415582898176 #
point $-1 -67.134061940259244 15.773287701343488 9.6897415582898176 #
End-of-ACIS-data 