500 0 17 0           
7 Unknown 11 ACIS 5.0 NT 24 Fri Mar 26 01:06:35 1999 
-1 9.9999999999999995e-007 1e-010 
body $-1 $17 $-1 $18 #
body $-1 $19 $-1 $20 #
body $-1 $21 $-1 $22 #
body $-1 $23 $-1 $24 #
body $-1 $25 $-1 $26 #
body $-1 $27 $-1 $28 #
body $-1 $29 $-1 $30 #
body $-1 $31 $-1 $32 #
body $-1 $33 $-1 $34 #
body $-1 $35 $-1 $36 #
body $-1 $37 $-1 $38 #
body $-1 $39 $-1 $40 #
body $-1 $41 $-1 $42 #
body $-1 $43 $-1 $44 #
body $-1 $45 $-1 $46 #
body $-1 $47 $-1 $48 #
body $-1 $49 $-1 $50 #
lump $-1 $-1 $51 $0 #
transform $-1 1 0 0 0 1 0 0 0 1 73.080843531601914 35.316423019191774 16.38359980078836 1 rotate no_reflect no_shear #
lump $-1 $-1 $52 $1 #
transform $-1 1 0 0 0 1 0 0 0 1 73.080843531601914 35.316423019191774 16.38359980078836 1 rotate no_reflect no_shear #
lump $-1 $-1 $53 $2 #
transform $-1 1 0 0 0 1 0 0 0 1 73.080843531601914 35.316423019191774 16.38359980078836 1 rotate no_reflect no_shear #
lump $-1 $-1 $54 $3 #
transform $-1 1 0 0 0 1 0 0 0 1 73.080843531601914 35.316423019191774 16.38359980078836 1 rotate no_reflect no_shear #
lump $-1 $-1 $55 $4 #
transform $-1 1 0 0 0 1 0 0 0 1 73.080843531601914 35.316423019191774 16.38359980078836 1 rotate no_reflect no_shear #
lump $-1 $-1 $56 $5 #
transform $-1 1 0 0 0 1 0 0 0 1 73.080843531601914 35.316423019191774 16.38359980078836 1 rotate no_reflect no_shear #
lump $-1 $-1 $57 $6 #
transform $-1 1 0 0 0 1 0 0 0 1 73.080843531601914 35.316423019191774 16.38359980078836 1 rotate no_reflect no_shear #
lump $-1 $-1 $58 $7 #
transform $-1 1 0 0 0 1 0 0 0 1 73.080843531601914 35.316423019191774 16.38359980078836 1 rotate no_reflect no_shear #
lump $-1 $-1 $59 $8 #
transform $-1 1 0 0 0 1 0 0 0 1 73.080843531601914 35.316423019191774 16.38359980078836 1 rotate no_reflect no_shear #
lump $-1 $-1 $60 $9 #
transform $-1 1 0 0 0 1 0 0 0 1 73.080843531601914 35.316423019191774 16.38359980078836 1 rotate no_reflect no_shear #
lump $-1 $-1 $61 $10 #
transform $-1 1 0 0 0 1 0 0 0 1 73.080843531601914 35.316423019191774 16.38359980078836 1 rotate no_reflect no_shear #
lump $-1 $-1 $62 $11 #
transform $-1 1 0 0 0 1 0 0 0 1 73.080843531601914 35.316423019191774 16.38359980078836 1 rotate no_reflect no_shear #
lump $-1 $-1 $63 $12 #
transform $-1 1 0 0 0 1 0 0 0 1 73.080843531601914 35.316423019191774 16.38359980078836 1 rotate no_reflect no_shear #
lump $-1 $-1 $64 $13 #
transform $-1 1 0 0 0 1 0 0 0 1 73.080843531601914 35.316423019191774 16.38359980078836 1 rotate no_reflect no_shear #
lump $-1 $-1 $65 $14 #
transform $-1 1 0 0 0 1 0 0 0 1 73.080843531601914 35.316423019191774 16.38359980078836 1 rotate no_reflect no_shear #
lump $-1 $-1 $66 $15 #
transform $-1 1 0 0 0 1 0 0 0 1 73.080843531601914 35.316423019191774 16.38359980078836 1 rotate no_reflect no_shear #
lump $-1 $-1 $67 $16 #
transform $-1 1 0 0 0 1 0 0 0 1 73.080843531601914 35.316423019191774 16.38359980078836 1 rotate no_reflect no_shear #
shell $-1 $-1 $-1 $68 $-1 $17 #
shell $-1 $-1 $-1 $69 $-1 $19 #
shell $-1 $-1 $-1 $70 $-1 $21 #
shell $-1 $-1 $-1 $71 $-1 $23 #
shell $-1 $-1 $-1 $72 $-1 $25 #
shell $-1 $-1 $-1 $73 $-1 $27 #
shell $-1 $-1 $-1 $74 $-1 $29 #
shell $-1 $-1 $-1 $75 $-1 $31 #
shell $-1 $-1 $-1 $76 $-1 $33 #
shell $-1 $-1 $-1 $77 $-1 $35 #
shell $-1 $-1 $-1 $78 $-1 $37 #
shell $-1 $-1 $-1 $79 $-1 $39 #
shell $-1 $-1 $-1 $80 $-1 $41 #
shell $-1 $-1 $-1 $81 $-1 $43 #
shell $-1 $-1 $-1 $82 $-1 $45 #
shell $-1 $-1 $-1 $83 $-1 $47 #
shell $-1 $-1 $-1 $84 $-1 $49 #
face $-1 $85 $86 $51 $-1 $87 forward single #
face $-1 $88 $89 $52 $-1 $90 forward single #
face $-1 $91 $92 $53 $-1 $93 reversed single #
face $-1 $94 $95 $54 $-1 $96 forward single #
face $-1 $97 $98 $55 $-1 $99 forward single #
face $-1 $100 $101 $56 $-1 $102 reversed single #
face $-1 $103 $104 $57 $-1 $105 forward single #
face $-1 $106 $107 $58 $-1 $108 forward single #
face $-1 $109 $110 $59 $-1 $111 reversed single #
face $-1 $112 $113 $60 $-1 $114 forward single #
face $-1 $115 $116 $61 $-1 $117 forward single #
face $-1 $118 $119 $62 $-1 $120 reversed single #
face $-1 $121 $122 $63 $-1 $123 forward single #
face $-1 $124 $125 $64 $-1 $126 forward single #
face $-1 $127 $128 $65 $-1 $129 reversed single #
face $-1 $130 $131 $66 $-1 $132 forward single #
face $-1 $133 $134 $67 $-1 $135 forward single #
face $-1 $136 $137 $51 $-1 $138 reversed single #
loop $-1 $-1 $139 $68 #
plane-surface $-1 0 0 16.38359980078836 0 0 1 1 0 0 forward_v I I I I #
face $-1 $140 $141 $52 $-1 $142 reversed single #
loop $-1 $-1 $143 $69 #
plane-surface $-1 0 -24.73474356083311 -0.98204681590926413 0 0 1 1 0 0 forward_v I I I I #
face $-1 $144 $145 $53 $-1 $146 reversed single #
loop $-1 $-1 $147 $70 #
plane-surface $-1 -185.0471929144536 -5.1390973752951528 99.44576446248908 0 1 0 -0.7660444514056185 0 0.64278759981090561 forward_v I I I I #
face $-1 $148 $149 $54 $-1 $150 forward single #
loop $-1 $151 $152 $71 #
cone-surface $-1 -67.233078032512637 -1.5513319522837108 9.865686208580799 0.7660444514056185 0 -0.64278759981090561 0.64278759981090561 0 0.7660444514056185 1 I I 0 1 1 forward I I I I #
face $-1 $153 $154 $55 $-1 $155 forward single #
loop $-1 $156 $157 $72 #
cone-surface $-1 -67.233078032512637 3.8303161822334602 9.865686208580799 0.7660444514056185 0 -0.64278759981090561 0.64278759981090561 0 0.7660444514056185 1 I I 0 1 1 forward I I I I #
face $-1 $158 $159 $56 $-1 $160 reversed single #
loop $-1 $-1 $161 $73 #
plane-surface $-1 37.187100210819381 -4.6033024782427265 208.6911948079611 0 -1 0 -0.57357644374324357 0 -0.81915203911291934 forward_v I I I I #
face $-1 $162 $163 $57 $-1 $164 forward single #
loop $-1 $165 $166 $74 #
cone-surface $-1 64.581738149946858 -9.0259795772671261 10.096499692084224 -0.57357644374324357 0 -0.81915203911291934 0.40957601955645967 0 -0.28678822187162178 1 I I 0 1 0.5 forward I I I I #
face $-1 $167 $168 $58 $-1 $169 forward single #
loop $-1 $170 $171 $75 #
cone-surface $-1 64.581738149946858 -6.3723733178524853 10.096499692084224 -0.57357644374324357 0 -0.81915203911291934 0.40957601955645967 0 -0.28678822187162178 1 I I 0 1 0.5 forward I I I I #
face $-1 $172 $173 $59 $-1 $174 reversed single #
loop $-1 $-1 $175 $76 #
plane-surface $-1 37.187100210819381 7.7640693021738283 208.6911948079611 0 -1 0 -0.57357644374324357 0 -0.81915203911291934 forward_v I I I I #
face $-1 $176 $177 $60 $-1 $178 forward single #
loop $-1 $179 $180 $77 #
cone-surface $-1 64.581738149946858 3.3413922031494252 10.096499692084224 -0.57357644374324357 0 -0.81915203911291934 0.40957601955645967 0 -0.28678822187162178 1 I I 0 1 0.5 forward I I I I #
face $-1 $181 $182 $61 $-1 $183 forward single #
loop $-1 $184 $185 $78 #
cone-surface $-1 64.581738149946858 5.9949984625640695 10.096499692084224 -0.57357644374324357 0 -0.81915203911291934 0.40957601955645967 0 -0.28678822187162178 1 I I 0 1 0.5 forward I I I I #
face $-1 $186 $187 $62 $-1 $188 reversed single #
loop $-1 $-1 $189 $79 #
plane-surface $-1 37.187100210819381 20.131441082590385 208.6911948079611 0 -1 0 -0.57357644374324357 0 -0.81915203911291934 forward_v I I I I #
face $-1 $190 $191 $63 $-1 $192 forward single #
loop $-1 $193 $194 $80 #
cone-surface $-1 64.581738149946858 15.70876398356598 10.096499692084224 -0.57357644374324357 0 -0.81915203911291934 0.40957601955645967 0 -0.28678822187162178 1 I I 0 1 0.5 forward I I I I #
face $-1 $195 $196 $64 $-1 $197 forward single #
loop $-1 $198 $199 $81 #
cone-surface $-1 64.581738149946858 18.362370242980624 10.096499692084224 -0.57357644374324357 0 -0.81915203911291934 0.40957601955645967 0 -0.28678822187162178 1 I I 0 1 0.5 forward I I I I #
face $-1 $200 $201 $65 $-1 $202 reversed single #
loop $-1 $-1 $203 $82 #
plane-surface $-1 37.187100210819381 32.498812863006933 208.6911948079611 0 -1 0 -0.57357644374324357 0 -0.81915203911291934 forward_v I I I I #
face $-1 $204 $205 $66 $-1 $206 forward single #
loop $-1 $207 $208 $83 #
cone-surface $-1 64.581738149946858 28.076135763982535 10.096499692084224 -0.57357644374324357 0 -0.81915203911291934 0.40957601955645967 0 -0.28678822187162178 1 I I 0 1 0.5 forward I I I I #
face $-1 $209 $210 $67 $-1 $211 forward single #
loop $-1 $212 $213 $84 #
cone-surface $-1 64.581738149946858 30.729742023397179 10.096499692084224 -0.57357644374324357 0 -0.81915203911291934 0.40957601955645967 0 -0.28678822187162178 1 I I 0 1 0.5 forward I I I I #
face $-1 $214 $215 $51 $-1 $216 reversed single #
loop $-1 $-1 $217 $85 #
plane-surface $-1 0 0 -16.38359980078836 0 0 1 1 0 0 forward_v I I I I #
coedge $-1 $218 $219 $220 $221 forward $86 $-1 #
face $-1 $222 $223 $52 $-1 $224 reversed single #
loop $-1 $-1 $225 $88 #
plane-surface $-1 0 -24.73474356083311 -10.299003570202611 0 0 1 1 0 0 forward_v I I I I #
coedge $-1 $226 $227 $228 $229 reversed $89 $-1 #
face $-1 $230 $231 $53 $-1 $232 reversed single #
loop $-1 $-1 $233 $91 #
plane-surface $-1 -73.080843531601943 1.1394921149748782 5.494844450819599 -0.7660444514056185 0 0.64278759981090561 0.64278759981090561 0 0.7660444514056185 forward_v I I I I #
coedge $-1 $234 $235 $236 $237 reversed $92 $-1 #
face $-1 $-1 $238 $54 $-1 $239 forward single #
loop $-1 $240 $241 $94 #
cone-surface $-1 -65.570665487184215 -1.5513319522837108 8.4707564914521711 0.7660444514056185 0 -0.64278759981090561 0.3213937999054528 0 0.38302222570280925 1 I I -0.70710678118654746 0.70710678118654746 0.5 forward I I I I #
loop $-1 $-1 $242 $71 #
coedge $-1 $152 $152 $243 $244 reversed $95 $-1 #
face $-1 $-1 $245 $55 $-1 $246 forward single #
loop $-1 $247 $248 $97 #
cone-surface $-1 -65.570665487184215 3.8303161822334602 8.4707564914521711 0.7660444514056185 0 -0.64278759981090561 0.3213937999054528 0 0.38302222570280925 1 I I -0.70710678118654746 0.70710678118654746 0.5 forward I I I I #
loop $-1 $-1 $249 $72 #
coedge $-1 $157 $157 $250 $251 reversed $98 $-1 #
face $-1 $252 $253 $56 $-1 $254 reversed single #
loop $-1 $-1 $255 $100 #
plane-surface $-1 -46.647800466405926 -7.6991764475598075 88.962550809953271 0.57357644374324357 0 0.81915203911291934 0.81915203911291934 0 -0.57357644374324357 forward_v I I I I #
coedge $-1 $256 $257 $258 $259 reversed $101 $-1 #
face $-1 $-1 $260 $57 $-1 $261 forward single #
loop $-1 $262 $263 $103 #
cone-surface $-1 63.976819544195422 -9.0259795772671261 9.2325864076320414 -0.57357644374324357 0 -0.81915203911291934 0.20478800977822983 0 -0.14339411093581089 1 I I -0.70710678118654746 0.70710678118654746 0.25 forward I I I I #
loop $-1 $-1 $264 $74 #
coedge $-1 $166 $166 $265 $266 reversed $104 $-1 #
face $-1 $-1 $267 $58 $-1 $268 forward single #
loop $-1 $269 $270 $106 #
cone-surface $-1 63.976819544195422 -6.3723733178524853 9.2325864076320414 -0.57357644374324357 0 -0.81915203911291934 0.20478800977822983 0 -0.14339411093581089 1 I I -0.70710678118654746 0.70710678118654746 0.25 forward I I I I #
loop $-1 $-1 $271 $75 #
coedge $-1 $171 $171 $272 $273 reversed $107 $-1 #
face $-1 $274 $275 $59 $-1 $276 reversed single #
loop $-1 $-1 $277 $109 #
plane-surface $-1 -46.647800466405926 4.6681953328567474 88.962550809953271 0.57357644374324357 0 0.81915203911291934 0.81915203911291934 0 -0.57357644374324357 forward_v I I I I #
coedge $-1 $278 $279 $280 $281 reversed $110 $-1 #
face $-1 $-1 $282 $60 $-1 $283 forward single #
loop $-1 $284 $285 $112 #
cone-surface $-1 63.976819544195422 3.3413922031494252 9.2325864076320414 -0.57357644374324357 0 -0.81915203911291934 0.20478800977822983 0 -0.14339411093581089 1 I I -0.70710678118654746 0.70710678118654746 0.25 forward I I I I #
loop $-1 $-1 $286 $77 #
coedge $-1 $180 $180 $287 $288 reversed $113 $-1 #
face $-1 $-1 $289 $61 $-1 $290 forward single #
loop $-1 $291 $292 $115 #
cone-surface $-1 63.976819544195422 5.9949984625640695 9.2325864076320414 -0.57357644374324357 0 -0.81915203911291934 0.20478800977822983 0 -0.14339411093581089 1 I I -0.70710678118654746 0.70710678118654746 0.25 forward I I I I #
loop $-1 $-1 $293 $78 #
coedge $-1 $185 $185 $294 $295 reversed $116 $-1 #
face $-1 $296 $297 $62 $-1 $298 reversed single #
loop $-1 $-1 $299 $118 #
plane-surface $-1 -46.647800466405926 17.035567113273302 88.962550809953271 0.57357644374324357 0 0.81915203911291934 0.81915203911291934 0 -0.57357644374324357 forward_v I I I I #
coedge $-1 $300 $301 $302 $303 reversed $119 $-1 #
face $-1 $-1 $304 $63 $-1 $305 forward single #
loop $-1 $306 $307 $121 #
cone-surface $-1 63.976819544195422 15.70876398356598 9.2325864076320414 -0.57357644374324357 0 -0.81915203911291934 0.20478800977822983 0 -0.14339411093581089 1 I I -0.70710678118654746 0.70710678118654746 0.25 forward I I I I #
loop $-1 $-1 $308 $80 #
coedge $-1 $194 $194 $309 $310 reversed $122 $-1 #
face $-1 $-1 $311 $64 $-1 $312 forward single #
loop $-1 $313 $314 $124 #
cone-surface $-1 63.976819544195422 18.362370242980624 9.2325864076320414 -0.57357644374324357 0 -0.81915203911291934 0.20478800977822983 0 -0.14339411093581089 1 I I -0.70710678118654746 0.70710678118654746 0.25 forward I I I I #
loop $-1 $-1 $315 $81 #
coedge $-1 $199 $199 $316 $317 reversed $125 $-1 #
face $-1 $318 $319 $65 $-1 $320 reversed single #
loop $-1 $-1 $321 $127 #
plane-surface $-1 -46.647800466405926 29.40293889368985 88.962550809953271 0.57357644374324357 0 0.81915203911291934 0.81915203911291934 0 -0.57357644374324357 forward_v I I I I #
coedge $-1 $322 $323 $324 $325 reversed $128 $-1 #
face $-1 $-1 $326 $66 $-1 $327 forward single #
loop $-1 $328 $329 $130 #
cone-surface $-1 63.976819544195422 28.076135763982535 9.2325864076320414 -0.57357644374324357 0 -0.81915203911291934 0.20478800977822983 0 -0.14339411093581089 1 I I -0.70710678118654746 0.70710678118654746 0.25 forward I I I I #
loop $-1 $-1 $330 $83 #
coedge $-1 $208 $208 $331 $332 reversed $131 $-1 #
face $-1 $-1 $333 $67 $-1 $334 forward single #
loop $-1 $335 $336 $133 #
cone-surface $-1 63.976819544195422 30.729742023397179 9.2325864076320414 -0.57357644374324357 0 -0.81915203911291934 0.20478800977822983 0 -0.14339411093581089 1 I I -0.70710678118654746 0.70710678118654746 0.25 forward I I I I #
loop $-1 $-1 $337 $84 #
coedge $-1 $213 $213 $338 $339 reversed $134 $-1 #
face $-1 $340 $341 $51 $-1 $342 reversed single #
loop $-1 $-1 $343 $136 #
plane-surface $-1 0 -35.316423019191774 0 0 1 0 0 0 1 forward_v I I I I #
coedge $-1 $344 $345 $346 $347 forward $137 $-1 #
coedge $-1 $348 $139 $349 $350 forward $86 $-1 #
coedge $-1 $139 $348 $351 $352 forward $86 $-1 #
coedge $-1 $353 $354 $139 $221 reversed $355 $-1 #
edge $-1 $356 -35.316423019191774 $357 35.316423019191774 $220 $358 forward 7 unknown #
face $-1 $359 $360 $52 $-1 $361 reversed single #
loop $-1 $-1 $362 $140 #
plane-surface $-1 0 -14.153064102474447 -5.6405251930559377 0 -1 0 0 0 -1 forward_v I I I I #
coedge $-1 $363 $364 $365 $366 reversed $141 $-1 #
coedge $-1 $367 $143 $368 $369 forward $89 $-1 #
coedge $-1 $143 $367 $370 $371 reversed $89 $-1 #
coedge $-1 $372 $373 $143 $229 forward $374 $-1 #
edge $-1 $375 1.7856923220578924 $376 22.949051238775219 $228 $377 forward 7 unknown #
face $-1 $378 $379 $53 $-1 $380 reversed single #
loop $-1 $-1 $381 $144 #
plane-surface $-1 -185.0471929144536 7.4180816052449092 99.44576446248908 0 -1 0 0.7660444514056185 0 -0.64278759981090561 forward_v I I I I #
coedge $-1 $382 $383 $384 $385 reversed $145 $-1 #
coedge $-1 $235 $147 $386 $387 reversed $92 $-1 #
coedge $-1 $147 $234 $382 $388 reversed $92 $-1 #
coedge $-1 $384 $389 $147 $237 forward $390 $-1 #
edge $-1 $391 19.442752925624887 $392 28.579503284552196 $236 $393 forward 7 unknown #
loop $-1 $-1 $243 $148 #
plane-surface $-1 -73.080843531601943 1.1394921149748782 5.494844450819599 -0.7660444514056185 0 0.64278759981090561 0.64278759981090561 0 0.7660444514056185 forward_v I I I I #
loop $-1 $-1 $394 $94 #
coedge $-1 $241 $241 $242 $395 reversed $149 $-1 #
coedge $-1 $242 $242 $241 $395 forward $151 $-1 #
coedge $-1 $243 $243 $152 $244 forward $238 $-1 #
edge $-1 $396 0 $396 6.2831853071796004 $243 $397 forward 7 unknown #
loop $-1 $-1 $250 $153 #
plane-surface $-1 -73.080843531601943 1.1394921149748782 5.494844450819599 -0.7660444514056185 0 0.64278759981090561 0.64278759981090561 0 0.7660444514056185 forward_v I I I I #
loop $-1 $-1 $398 $97 #
coedge $-1 $248 $248 $249 $399 reversed $154 $-1 #
coedge $-1 $249 $249 $248 $399 forward $156 $-1 #
coedge $-1 $250 $250 $157 $251 forward $245 $-1 #
edge $-1 $400 0 $400 6.2831853071796004 $250 $401 forward 7 unknown #
face $-1 $402 $403 $56 $-1 $404 forward single #
loop $-1 $-1 $405 $158 #
plane-surface $-1 37.187100210819381 -10.795050416876888 208.6911948079611 0 1 0 0.57357644374324357 0 0.81915203911291934 forward_v I I I I #
coedge $-1 $406 $407 $408 $409 reversed $159 $-1 #
coedge $-1 $257 $161 $410 $411 reversed $101 $-1 #
coedge $-1 $161 $256 $406 $412 reversed $101 $-1 #
coedge $-1 $408 $413 $161 $259 forward $403 $-1 #
edge $-1 $414 -54.487293426192224 $415 -38.412131652513338 $258 $416 forward 7 unknown #
loop $-1 $-1 $265 $162 #
plane-surface $-1 -46.647800466405926 -7.6991764475598075 88.962550809953271 0.57357644374324357 0 0.81915203911291934 0.81915203911291934 0 -0.57357644374324357 forward_v I I I I #
loop $-1 $-1 $417 $103 #
coedge $-1 $263 $263 $264 $418 reversed $163 $-1 #
coedge $-1 $264 $264 $263 $418 forward $165 $-1 #
coedge $-1 $265 $265 $166 $266 forward $260 $-1 #
edge $-1 $419 0 $419 6.2831853071796004 $265 $420 forward 7 unknown #
loop $-1 $-1 $272 $167 #
plane-surface $-1 -46.647800466405926 -7.6991764475598075 88.962550809953271 0.57357644374324357 0 0.81915203911291934 0.81915203911291934 0 -0.57357644374324357 forward_v I I I I #
loop $-1 $-1 $421 $106 #
coedge $-1 $270 $270 $271 $422 reversed $168 $-1 #
coedge $-1 $271 $271 $270 $422 forward $170 $-1 #
coedge $-1 $272 $272 $171 $273 forward $267 $-1 #
edge $-1 $423 0 $423 6.2831853071796004 $272 $424 forward 7 unknown #
face $-1 $425 $426 $59 $-1 $427 reversed single #
loop $-1 $-1 $428 $172 #
plane-surface $-1 37.187100210819381 1.5723213635396665 208.6911948079611 0 1 0 0.57357644374324357 0 0.81915203911291934 forward_v I I I I #
coedge $-1 $429 $430 $431 $432 reversed $173 $-1 #
coedge $-1 $279 $175 $433 $434 reversed $110 $-1 #
coedge $-1 $175 $278 $429 $435 reversed $110 $-1 #
coedge $-1 $431 $436 $175 $281 forward $437 $-1 #
edge $-1 $438 -54.487293426192224 $439 -38.412131652513338 $280 $440 forward 7 unknown #
loop $-1 $-1 $287 $176 #
plane-surface $-1 -46.647800466405926 4.6681953328567474 88.962550809953271 0.57357644374324357 0 0.81915203911291934 0.81915203911291934 0 -0.57357644374324357 forward_v I I I I #
loop $-1 $-1 $441 $112 #
coedge $-1 $285 $285 $286 $442 reversed $177 $-1 #
coedge $-1 $286 $286 $285 $442 forward $179 $-1 #
coedge $-1 $287 $287 $180 $288 forward $282 $-1 #
edge $-1 $443 0 $443 6.2831853071796004 $287 $444 forward 7 unknown #
loop $-1 $-1 $294 $181 #
plane-surface $-1 -46.647800466405926 4.6681953328567474 88.962550809953271 0.57357644374324357 0 0.81915203911291934 0.81915203911291934 0 -0.57357644374324357 forward_v I I I I #
loop $-1 $-1 $445 $115 #
coedge $-1 $292 $292 $293 $446 reversed $182 $-1 #
coedge $-1 $293 $293 $292 $446 forward $184 $-1 #
coedge $-1 $294 $294 $185 $295 forward $289 $-1 #
edge $-1 $447 0 $447 6.2831853071796004 $294 $448 forward 7 unknown #
face $-1 $449 $450 $62 $-1 $451 reversed single #
loop $-1 $-1 $452 $186 #
plane-surface $-1 37.187100210819381 13.939693143956221 208.6911948079611 0 1 0 0.57357644374324357 0 0.81915203911291934 forward_v I I I I #
coedge $-1 $453 $454 $455 $456 reversed $187 $-1 #
coedge $-1 $301 $189 $457 $458 reversed $119 $-1 #
coedge $-1 $189 $300 $453 $459 reversed $119 $-1 #
coedge $-1 $455 $460 $189 $303 forward $461 $-1 #
edge $-1 $462 -54.487293426192224 $463 -38.412131652513338 $302 $464 forward 7 unknown #
loop $-1 $-1 $309 $190 #
plane-surface $-1 -46.647800466405926 17.035567113273302 88.962550809953271 0.57357644374324357 0 0.81915203911291934 0.81915203911291934 0 -0.57357644374324357 forward_v I I I I #
loop $-1 $-1 $465 $121 #
coedge $-1 $307 $307 $308 $466 reversed $191 $-1 #
coedge $-1 $308 $308 $307 $466 forward $193 $-1 #
coedge $-1 $309 $309 $194 $310 forward $304 $-1 #
edge $-1 $467 0 $467 6.2831853071796004 $309 $468 forward 7 unknown #
loop $-1 $-1 $316 $195 #
plane-surface $-1 -46.647800466405926 17.035567113273302 88.962550809953271 0.57357644374324357 0 0.81915203911291934 0.81915203911291934 0 -0.57357644374324357 forward_v I I I I #
loop $-1 $-1 $469 $124 #
coedge $-1 $314 $314 $315 $470 reversed $196 $-1 #
coedge $-1 $315 $315 $314 $470 forward $198 $-1 #
coedge $-1 $316 $316 $199 $317 forward $311 $-1 #
edge $-1 $471 0 $471 6.2831853071796004 $316 $472 forward 7 unknown #
face $-1 $473 $474 $65 $-1 $475 reversed single #
loop $-1 $-1 $476 $200 #
plane-surface $-1 37.187100210819381 26.307064924372767 208.6911948079611 0 1 0 0.57357644374324357 0 0.81915203911291934 forward_v I I I I #
coedge $-1 $477 $478 $479 $480 reversed $201 $-1 #
coedge $-1 $323 $203 $481 $482 reversed $128 $-1 #
coedge $-1 $203 $322 $477 $483 reversed $128 $-1 #
coedge $-1 $479 $484 $203 $325 forward $485 $-1 #
edge $-1 $486 -54.487293426192224 $487 -38.412131652513338 $324 $488 forward 7 unknown #
loop $-1 $-1 $331 $204 #
plane-surface $-1 -46.647800466405926 29.40293889368985 88.962550809953271 0.57357644374324357 0 0.81915203911291934 0.81915203911291934 0 -0.57357644374324357 forward_v I I I I #
loop $-1 $-1 $489 $130 #
coedge $-1 $329 $329 $330 $490 reversed $205 $-1 #
coedge $-1 $330 $330 $329 $490 forward $207 $-1 #
coedge $-1 $331 $331 $208 $332 forward $326 $-1 #
edge $-1 $491 0 $491 6.2831853071796004 $331 $492 forward 7 unknown #
loop $-1 $-1 $338 $209 #
plane-surface $-1 -46.647800466405926 29.40293889368985 88.962550809953271 0.57357644374324357 0 0.81915203911291934 0.81915203911291934 0 -0.57357644374324357 forward_v I I I I #
loop $-1 $-1 $493 $133 #
coedge $-1 $336 $336 $337 $494 reversed $210 $-1 #
coedge $-1 $337 $337 $336 $494 forward $212 $-1 #
coedge $-1 $338 $338 $213 $339 forward $333 $-1 #
edge $-1 $495 0 $495 6.2831853071796004 $338 $496 forward 7 unknown #
face $-1 $497 $498 $51 $-1 $499 reversed single #
loop $-1 $-1 $500 $214 #
plane-surface $-1 -73.080843531601914 0 0 1 0 0 0 0 -1 forward_v I I I I #
coedge $-1 $501 $351 $502 $503 forward $215 $-1 #
coedge $-1 $504 $217 $501 $505 forward $137 $-1 #
coedge $-1 $217 $504 $506 $507 forward $137 $-1 #
coedge $-1 $354 $353 $217 $347 reversed $355 $-1 #
edge $-1 $508 -35.316423019191774 $509 35.316423019191774 $346 $510 forward 7 unknown #
coedge $-1 $219 $218 $511 $512 forward $86 $-1 #
coedge $-1 $513 $514 $218 $350 reversed $498 $-1 #
edge $-1 $357 -73.080843531601914 $515 73.080843531601914 $349 $516 forward 7 unknown #
coedge $-1 $343 $517 $219 $352 reversed $215 $-1 #
edge $-1 $518 -73.080843531601914 $356 73.080843531601914 $351 $519 forward 7 unknown #
coedge $-1 $346 $220 $517 $520 forward $355 $-1 #
coedge $-1 $220 $346 $513 $521 reversed $355 $-1 #
loop $-1 $-1 $353 $497 #
vertex $-1 $221 $522 #
vertex $-1 $221 $523 #
straight-curve $-1 73.080843531601914 0 16.38359980078836 0 1 0 I I #
face $-1 $524 $525 $52 $-1 $526 reversed single #
loop $-1 $-1 $527 $222 #
plane-surface $-1 -73.080843531601914 0 0 1 0 0 0 0 -1 forward_v I I I I #
coedge $-1 $528 $368 $373 $529 reversed $223 $-1 #
coedge $-1 $530 $225 $531 $532 reversed $141 $-1 #
coedge $-1 $225 $530 $528 $533 forward $141 $-1 #
coedge $-1 $373 $372 $225 $366 forward $374 $-1 #
edge $-1 $534 -22.949051238775219 $535 -1.7856923220578924 $365 $536 forward 7 unknown #
coedge $-1 $227 $226 $527 $537 reversed $89 $-1 #
coedge $-1 $362 $538 $226 $369 reversed $223 $-1 #
edge $-1 $375 -73.080843531601914 $539 73.080843531601914 $368 $540 forward 7 unknown #
coedge $-1 $541 $542 $227 $371 forward $525 $-1 #
edge $-1 $376 -73.080843531601914 $543 73.080843531601914 $370 $544 forward 7 unknown #
coedge $-1 $365 $228 $542 $545 forward $374 $-1 #
coedge $-1 $228 $365 $362 $529 forward $374 $-1 #
loop $-1 $-1 $228 $524 #
vertex $-1 $229 $546 #
vertex $-1 $545 $547 #
straight-curve $-1 73.080843531601914 -12.367371780416555 -0.98204681590926413 0 -1 0 I I #
face $-1 $-1 $390 $53 $-1 $548 forward single #
loop $-1 $-1 $549 $230 #
plane-surface $-1 -73.080843531601914 0 0 1 0 0 0 0 -1 forward_v I I I I #
coedge $-1 $550 $551 $552 $553 reversed $231 $-1 #
coedge $-1 $554 $233 $235 $388 forward $145 $-1 #
coedge $-1 $233 $554 $550 $555 forward $145 $-1 #
coedge $-1 $552 $236 $233 $385 forward $390 $-1 #
edge $-1 $392 -5.7088434327825919 $556 6.8483355477574701 $384 $557 forward 7 unknown #
coedge $-1 $558 $559 $234 $387 forward $379 $-1 #
edge $-1 $560 -44.228037780424906 $391 -33.33928243045618 $386 $561 forward 7 unknown #
edge $-1 $392 -14.214260451843151 $560 -4.4123720097533069e-014 $235 $562 forward 7 unknown #
coedge $-1 $236 $552 $558 $563 forward $390 $-1 #
loop $-1 $-1 $552 $378 #
vertex $-1 $387 $564 #
vertex $-1 $237 $565 #
straight-curve $-1 -92.523596457226802 -5.1390973752951528 16.38359980078836 1 0 0 I I #
coedge $-1 $394 $394 $-1 $566 reversed $240 $-1 #
edge $-1 $567 0 $567 6.2831853071796004 $241 $568 forward 7 unknown #
vertex $-1 $244 $569 #
ellipse-curve $-1 -68.512468352138271 -1.5513319522837108 10.93922212580399 -0.7660444514056185 0 0.64278759981090561 0.64278759981090561 0 0.7660444514056185 1 I I #
coedge $-1 $398 $398 $-1 $570 reversed $247 $-1 #
edge $-1 $571 0 $571 6.2831853071796004 $248 $572 forward 7 unknown #
vertex $-1 $251 $573 #
ellipse-curve $-1 -68.512468352138271 3.8303161822334602 10.93922212580399 -0.7660444514056185 0 0.64278759981090561 0.64278759981090561 0 0.7660444514056185 1 I I #
face $-1 $-1 $574 $56 $-1 $575 reversed single #
loop $-1 $-1 $258 $252 #
plane-surface $-1 0 0 16.38359980078836 0 0 1 1 0 0 forward_v I I I I #
coedge $-1 $576 $577 $578 $579 reversed $253 $-1 #
coedge $-1 $580 $255 $257 $412 forward $159 $-1 #
coedge $-1 $255 $580 $576 $581 forward $159 $-1 #
coedge $-1 $578 $258 $255 $409 forward $403 $-1 #
edge $-1 $415 0.75371425446282281 $582 6.9454621930969846 $408 $583 forward 7 unknown #
coedge $-1 $584 $585 $256 $411 forward $574 $-1 #
edge $-1 $586 -99.217947271252598 $414 -87.961997603192188 $410 $587 forward 7 unknown #
edge $-1 $415 126.53753793566571 $586 146.16168706320386 $257 $588 forward 7 unknown #
coedge $-1 $258 $578 $584 $589 forward $403 $-1 #
vertex $-1 $411 $590 #
vertex $-1 $259 $591 #
straight-curve $-1 18.59355010540969 -4.6033024782427265 16.38359980078836 -1 0 0 I I #
coedge $-1 $417 $417 $-1 $592 reversed $262 $-1 #
edge $-1 $593 0 $593 6.2831853071796004 $263 $594 forward 7 unknown #
vertex $-1 $266 $595 #
ellipse-curve $-1 65.043262644762464 -9.0259795772671261 10.755624966758166 0.57357644374324357 0 0.81915203911291934 0.40957601955645967 0 -0.28678822187162178 1 I I #
coedge $-1 $421 $421 $-1 $596 reversed $269 $-1 #
edge $-1 $597 0 $597 6.2831853071796004 $270 $598 forward 7 unknown #
vertex $-1 $273 $599 #
ellipse-curve $-1 65.043262644762464 -6.3723733178524853 10.755624966758166 0.57357644374324357 0 0.81915203911291934 0.40957601955645967 0 -0.28678822187162178 1 I I #
face $-1 $-1 $437 $59 $-1 $600 forward single #
loop $-1 $-1 $601 $274 #
plane-surface $-1 73.080843531601914 0 0 -1 0 0 0 0 1 forward_v I I I I #
coedge $-1 $602 $603 $604 $605 reversed $275 $-1 #
coedge $-1 $606 $277 $279 $435 forward $173 $-1 #
coedge $-1 $277 $606 $602 $607 forward $173 $-1 #
coedge $-1 $604 $280 $277 $432 forward $437 $-1 #
edge $-1 $439 -5.4299716357454546 $608 0.76177630288870724 $431 $609 forward 7 unknown #
coedge $-1 $610 $611 $278 $434 forward $426 $-1 #
edge $-1 $612 -99.217947271252598 $438 -87.961997603192188 $433 $613 forward 7 unknown #
edge $-1 $439 126.53753793566571 $612 146.16168706320386 $279 $614 forward 7 unknown #
coedge $-1 $280 $604 $610 $615 forward $437 $-1 #
loop $-1 $-1 $604 $425 #
vertex $-1 $434 $616 #
vertex $-1 $281 $617 #
straight-curve $-1 18.59355010540969 7.7640693021738283 16.38359980078836 -1 0 0 I I #
coedge $-1 $441 $441 $-1 $618 reversed $284 $-1 #
edge $-1 $619 0 $619 6.2831853071796004 $285 $620 forward 7 unknown #
vertex $-1 $288 $621 #
ellipse-curve $-1 65.043262644762464 3.3413922031494252 10.755624966758166 0.57357644374324357 0 0.81915203911291934 0.40957601955645967 0 -0.28678822187162178 1 I I #
coedge $-1 $445 $445 $-1 $622 reversed $291 $-1 #
edge $-1 $623 0 $623 6.2831853071796004 $292 $624 forward 7 unknown #
vertex $-1 $295 $625 #
ellipse-curve $-1 65.043262644762464 5.9949984625640695 10.755624966758166 0.57357644374324357 0 0.81915203911291934 0.40957601955645967 0 -0.28678822187162178 1 I I #
face $-1 $-1 $461 $62 $-1 $626 forward single #
loop $-1 $-1 $627 $296 #
plane-surface $-1 73.080843531601914 0 0 -1 0 0 0 0 1 forward_v I I I I #
coedge $-1 $628 $629 $630 $631 reversed $297 $-1 #
coedge $-1 $632 $299 $301 $459 forward $187 $-1 #
coedge $-1 $299 $632 $628 $633 forward $187 $-1 #
coedge $-1 $630 $302 $299 $456 forward $461 $-1 #
edge $-1 $463 -11.613657525953734 $634 -5.4219095873195702 $455 $635 forward 7 unknown #
coedge $-1 $636 $637 $300 $458 forward $450 $-1 #
edge $-1 $638 -99.217947271252598 $462 -87.961997603192188 $457 $639 forward 7 unknown #
edge $-1 $463 126.53753793566571 $638 146.16168706320386 $301 $640 forward 7 unknown #
coedge $-1 $302 $630 $636 $641 forward $461 $-1 #
loop $-1 $-1 $630 $449 #
vertex $-1 $458 $642 #
vertex $-1 $303 $643 #
straight-curve $-1 18.59355010540969 20.131441082590385 16.38359980078836 -1 0 0 I I #
coedge $-1 $465 $465 $-1 $644 reversed $306 $-1 #
edge $-1 $645 0 $645 6.2831853071796004 $307 $646 forward 7 unknown #
vertex $-1 $310 $647 #
ellipse-curve $-1 65.043262644762464 15.70876398356598 10.755624966758166 0.57357644374324357 0 0.81915203911291934 0.40957601955645967 0 -0.28678822187162178 1 I I #
coedge $-1 $469 $469 $-1 $648 reversed $313 $-1 #
edge $-1 $649 0 $649 6.2831853071796004 $314 $650 forward 7 unknown #
vertex $-1 $317 $651 #
ellipse-curve $-1 65.043262644762464 18.362370242980624 10.755624966758166 0.57357644374324357 0 0.81915203911291934 0.40957601955645967 0 -0.28678822187162178 1 I I #
face $-1 $-1 $485 $65 $-1 $652 forward single #
loop $-1 $-1 $653 $318 #
plane-surface $-1 73.080843531601914 0 0 -1 0 0 0 0 1 forward_v I I I I #
coedge $-1 $654 $655 $656 $657 reversed $319 $-1 #
coedge $-1 $658 $321 $323 $483 forward $201 $-1 #
coedge $-1 $321 $658 $654 $659 forward $201 $-1 #
coedge $-1 $656 $324 $321 $480 forward $485 $-1 #
edge $-1 $487 -17.797343416162008 $660 -11.605595477527842 $479 $661 forward 7 unknown #
coedge $-1 $662 $663 $322 $482 forward $474 $-1 #
edge $-1 $664 -99.217947271252598 $486 -87.961997603192188 $481 $665 forward 7 unknown #
edge $-1 $487 126.53753793566571 $664 146.16168706320386 $323 $666 forward 7 unknown #
coedge $-1 $324 $656 $662 $667 forward $485 $-1 #
loop $-1 $-1 $656 $473 #
vertex $-1 $482 $668 #
vertex $-1 $325 $669 #
straight-curve $-1 18.59355010540969 32.498812863006933 16.38359980078836 -1 0 0 I I #
coedge $-1 $489 $489 $-1 $670 reversed $328 $-1 #
edge $-1 $671 0 $671 6.2831853071796004 $329 $672 forward 7 unknown #
vertex $-1 $332 $673 #
ellipse-curve $-1 65.043262644762464 28.076135763982535 10.755624966758166 0.57357644374324357 0 0.81915203911291934 0.40957601955645967 0 -0.28678822187162178 1 I I #
coedge $-1 $493 $493 $-1 $674 reversed $335 $-1 #
edge $-1 $675 0 $675 6.2831853071796004 $336 $676 forward 7 unknown #
vertex $-1 $339 $677 #
ellipse-curve $-1 65.043262644762464 30.729742023397179 10.755624966758166 0.57357644374324357 0 0.81915203911291934 0.40957601955645967 0 -0.28678822187162178 1 I I #
face $-1 $-1 $355 $51 $-1 $678 reversed single #
loop $-1 $-1 $513 $340 #
plane-surface $-1 0 35.316423019191774 0 0 -1 0 0 0 -1 forward_v I I I I #
coedge $-1 $679 $511 $514 $680 forward $341 $-1 #
coedge $-1 $517 $343 $344 $505 reversed $215 $-1 #
coedge $-1 $511 $679 $343 $503 reversed $341 $-1 #
edge $-1 $518 -16.38359980078836 $681 16.38359980078836 $502 $682 forward 7 unknown #
coedge $-1 $345 $344 $679 $683 forward $137 $-1 #
edge $-1 $509 -73.080843531601914 $681 73.080843531601914 $501 $684 forward 7 unknown #
coedge $-1 $514 $513 $345 $507 reversed $498 $-1 #
edge $-1 $685 -73.080843531601914 $508 73.080843531601914 $506 $686 forward 7 unknown #
vertex $-1 $347 $687 #
vertex $-1 $520 $688 #
straight-curve $-1 73.080843531601914 0 -16.38359980078836 0 -1 0 I I #
coedge $-1 $500 $502 $348 $512 reversed $341 $-1 #
edge $-1 $515 -35.316423019191774 $518 35.316423019191774 $511 $689 forward 7 unknown #
coedge $-1 $506 $349 $354 $521 forward $498 $-1 #
coedge $-1 $349 $506 $500 $680 reversed $498 $-1 #
vertex $-1 $350 $690 #
straight-curve $-1 0 35.316423019191774 16.38359980078836 -1 0 0 I I #
coedge $-1 $351 $501 $353 $520 reversed $215 $-1 #
vertex $-1 $512 $691 #
straight-curve $-1 0 -35.316423019191774 16.38359980078836 1 0 0 I I #
edge $-1 $356 -16.38359980078836 $509 16.38359980078836 $353 $692 forward 7 unknown #
edge $-1 $357 -16.38359980078836 $508 16.38359980078836 $354 $693 forward 7 unknown #
point $-1 73.080843531601914 -35.316423019191774 16.38359980078836 #
point $-1 73.080843531601914 35.316423019191774 16.38359980078836 #
face $-1 $-1 $374 $52 $-1 $694 reversed single #
loop $-1 $-1 $370 $359 #
plane-surface $-1 0 -35.316423019191774 0 0 1 0 0 0 1 forward_v I I I I #
coedge $-1 $695 $696 $367 $537 forward $360 $-1 #
coedge $-1 $538 $362 $364 $533 reversed $223 $-1 #
edge $-1 $535 -7.4787409736746424 $375 1.8382157806187047 $373 $697 forward 7 unknown #
coedge $-1 $364 $363 $698 $699 reversed $141 $-1 #
coedge $-1 $542 $541 $363 $532 forward $525 $-1 #
edge $-1 $700 -73.080843531601914 $534 73.080843531601914 $531 $701 forward 7 unknown #
edge $-1 $702 -73.080843531601914 $535 73.080843531601914 $528 $703 forward 7 unknown #
vertex $-1 $532 $704 #
vertex $-1 $366 $705 #
straight-curve $-1 73.080843531601914 -12.367371780416555 -10.299003570202611 0 1 0 I I #
edge $-1 $543 -22.949051238775219 $539 -1.7856923220578924 $527 $706 forward 7 unknown #
coedge $-1 $368 $528 $695 $707 reversed $223 $-1 #
vertex $-1 $537 $708 #
straight-curve $-1 0 -14.153064102474447 -0.98204681590926413 -1 0 0 I I #
coedge $-1 $531 $370 $696 $709 forward $525 $-1 #
coedge $-1 $370 $531 $372 $545 reversed $525 $-1 #
vertex $-1 $709 $710 #
straight-curve $-1 0 -35.316423019191774 -0.98204681590926413 -1 0 0 I I #
edge $-1 $376 0.98204681590926413 $534 10.299003570202611 $372 $711 forward 7 unknown #
point $-1 73.080843531601914 -14.153064102474447 -0.98204681590926413 #
point $-1 73.080843531601914 -35.316423019191774 -0.98204681590926413 #
plane-surface $-1 0 0 16.38359980078836 0 0 1 1 0 0 forward_v I I I I #
coedge $-1 $559 $558 $551 $712 forward $379 $-1 #
coedge $-1 $551 $381 $383 $555 reversed $231 $-1 #
coedge $-1 $381 $550 $549 $712 reversed $231 $-1 #
coedge $-1 $389 $384 $381 $553 forward $390 $-1 #
edge $-1 $556 -28.579503284552196 $713 -19.442752925624887 $552 $714 forward 7 unknown #
coedge $-1 $383 $382 $559 $715 reversed $145 $-1 #
edge $-1 $716 4.4123720097533069e-014 $556 14.214260451843151 $550 $717 forward 7 unknown #
vertex $-1 $385 $718 #
straight-curve $-1 -63.944093172674599 0.56974605748743912 16.38359980078836 0 1 0 I I #
coedge $-1 $549 $386 $389 $563 reversed $379 $-1 #
coedge $-1 $386 $549 $554 $715 forward $379 $-1 #
vertex $-1 $387 $719 #
straight-curve $-1 -73.080843531601914 -5.1390973752951528 49.72288223124454 0 0 1 I I #
straight-curve $-1 -73.080843531601943 -5.1390973752951528 5.494844450819599 -0.64278759981090561 0 -0.7660444514056185 I I #
edge $-1 $713 -7.4180816052449092 $391 5.1390973752951528 $558 $720 forward 7 unknown #
point $-1 -73.080843531601914 -5.1390973752951528 16.38359980078836 #
point $-1 -63.944093172674606 -5.1390973752951528 16.38359980078836 #
edge $-1 $721 1 $721 0 $394 $-1 forward 7 unknown #
vertex $-1 $395 $722 #
ellipse-curve $-1 -65.953687712887017 -1.5513319522837108 8.7921502913576237 -0.7660444514056185 0 0.64278759981090561 0.64278759981090561 0 0.7660444514056185 1 I I #
point $-1 -67.869680752327341 -1.5513319522837108 11.705266577209594 #
edge $-1 $723 1 $723 0 $398 $-1 forward 7 unknown #
vertex $-1 $399 $724 #
ellipse-curve $-1 -65.953687712887017 3.8303161822334602 8.7921502913576237 -0.7660444514056185 0 0.64278759981090561 0.64278759981090561 0 0.7660444514056185 1 I I #
point $-1 -67.869680752327341 3.8303161822334602 11.705266577209594 #
loop $-1 $-1 $410 $402 #
plane-surface $-1 73.080843531601914 0 0 -1 0 0 0 0 1 forward_v I I I I #
coedge $-1 $577 $405 $407 $581 reversed $253 $-1 #
coedge $-1 $405 $576 $725 $726 reversed $253 $-1 #
coedge $-1 $413 $408 $405 $579 forward $403 $-1 #
edge $-1 $582 38.412131652513338 $727 54.487293426192224 $578 $728 forward 7 unknown #
coedge $-1 $407 $406 $585 $729 reversed $159 $-1 #
edge $-1 $730 -146.16168706320386 $582 -126.53753793566571 $576 $731 forward 7 unknown #
vertex $-1 $409 $732 #
straight-curve $-1 57.005681757923035 -3.8495882237799037 16.38359980078836 0 -1 0 I I #
coedge $-1 $725 $410 $413 $589 reversed $574 $-1 #
coedge $-1 $410 $725 $580 $729 forward $574 $-1 #
vertex $-1 $411 $733 #
straight-curve $-1 73.080843531601914 -4.6033024782427265 104.34559740398055 0 0 1 I I #
straight-curve $-1 -46.647800466405926 -4.6033024782427265 88.962550809953271 0.81915203911291934 0 -0.57357644374324357 I I #
edge $-1 $727 -10.795050416876888 $414 -4.6033024782427265 $584 $734 forward 7 unknown #
point $-1 73.080843531601914 -4.6033024782427265 16.38359980078836 #
point $-1 57.005681757923028 -4.6033024782427265 16.38359980078836 #
edge $-1 $735 1 $735 0 $417 $-1 forward 7 unknown #
vertex $-1 $418 $736 #
ellipse-curve $-1 64.120213655131238 -9.0259795772671261 9.4373744174102718 0.57357644374324357 0 0.81915203911291934 0.40957601955645967 0 -0.28678822187162178 1 I I #
point $-1 65.452838664318932 -9.0259795772671261 10.468836744886556 #
edge $-1 $737 1 $737 0 $421 $-1 forward 7 unknown #
vertex $-1 $422 $738 #
ellipse-curve $-1 64.120213655131238 -6.3723733178524853 9.4373744174102718 0.57357644374324357 0 0.81915203911291934 0.40957601955645967 0 -0.28678822187162178 1 I I #
point $-1 65.452838664318932 -6.3723733178524853 10.468836744886556 #
plane-surface $-1 0 0 16.38359980078836 0 0 1 1 0 0 forward_v I I I I #
coedge $-1 $611 $610 $603 $739 forward $426 $-1 #
coedge $-1 $603 $428 $430 $607 reversed $275 $-1 #
coedge $-1 $428 $602 $601 $739 reversed $275 $-1 #
coedge $-1 $436 $431 $428 $605 forward $437 $-1 #
edge $-1 $608 38.412131652513338 $740 54.487293426192224 $604 $741 forward 7 unknown #
coedge $-1 $430 $429 $611 $742 reversed $173 $-1 #
edge $-1 $743 -146.16168706320386 $608 -126.53753793566571 $602 $744 forward 7 unknown #
vertex $-1 $432 $745 #
straight-curve $-1 57.005681757923035 2.3340976664283737 16.38359980078836 0 -1 0 I I #
coedge $-1 $601 $433 $436 $615 reversed $426 $-1 #
coedge $-1 $433 $601 $606 $742 forward $426 $-1 #
vertex $-1 $434 $746 #
straight-curve $-1 73.080843531601914 7.7640693021738283 104.34559740398055 0 0 1 I I #
straight-curve $-1 -46.647800466405926 7.7640693021738283 88.962550809953271 0.81915203911291934 0 -0.57357644374324357 I I #
edge $-1 $740 1.5723213635396665 $438 7.7640693021738283 $610 $747 forward 7 unknown #
point $-1 73.080843531601914 7.7640693021738283 16.38359980078836 #
point $-1 57.005681757923028 7.7640693021738283 16.38359980078836 #
edge $-1 $748 1 $748 0 $441 $-1 forward 7 unknown #
vertex $-1 $442 $749 #
ellipse-curve $-1 64.120213655131238 3.3413922031494252 9.4373744174102718 0.57357644374324357 0 0.81915203911291934 0.40957601955645967 0 -0.28678822187162178 1 I I #
point $-1 65.452838664318932 3.3413922031494252 10.468836744886556 #
edge $-1 $750 1 $750 0 $445 $-1 forward 7 unknown #
vertex $-1 $446 $751 #
ellipse-curve $-1 64.120213655131238 5.9949984625640695 9.4373744174102718 0.57357644374324357 0 0.81915203911291934 0.40957601955645967 0 -0.28678822187162178 1 I I #
point $-1 65.452838664318932 5.9949984625640695 10.468836744886556 #
plane-surface $-1 0 0 16.38359980078836 0 0 1 1 0 0 forward_v I I I I #
coedge $-1 $637 $636 $629 $752 forward $450 $-1 #
coedge $-1 $629 $452 $454 $633 reversed $297 $-1 #
coedge $-1 $452 $628 $627 $752 reversed $297 $-1 #
coedge $-1 $460 $455 $452 $631 forward $461 $-1 #
edge $-1 $634 38.412131652513338 $753 54.487293426192224 $630 $754 forward 7 unknown #
coedge $-1 $454 $453 $637 $755 reversed $187 $-1 #
edge $-1 $756 -146.16168706320386 $634 -126.53753793566571 $628 $757 forward 7 unknown #
vertex $-1 $456 $758 #
straight-curve $-1 57.005681757923035 8.5177835566366511 16.38359980078836 0 -1 0 I I #
coedge $-1 $627 $457 $460 $641 reversed $450 $-1 #
coedge $-1 $457 $627 $632 $755 forward $450 $-1 #
vertex $-1 $458 $759 #
straight-curve $-1 73.080843531601914 20.131441082590385 104.34559740398055 0 0 1 I I #
straight-curve $-1 -46.647800466405926 20.131441082590385 88.962550809953271 0.81915203911291934 0 -0.57357644374324357 I I #
edge $-1 $753 13.939693143956221 $462 20.131441082590385 $636 $760 forward 7 unknown #
point $-1 73.080843531601914 20.131441082590385 16.38359980078836 #
point $-1 57.005681757923028 20.131441082590385 16.38359980078836 #
edge $-1 $761 1 $761 0 $465 $-1 forward 7 unknown #
vertex $-1 $466 $762 #
ellipse-curve $-1 64.120213655131238 15.70876398356598 9.4373744174102718 0.57357644374324357 0 0.81915203911291934 0.40957601955645967 0 -0.28678822187162178 1 I I #
point $-1 65.452838664318932 15.70876398356598 10.468836744886556 #
edge $-1 $763 1 $763 0 $469 $-1 forward 7 unknown #
vertex $-1 $470 $764 #
ellipse-curve $-1 64.120213655131238 18.362370242980624 9.4373744174102718 0.57357644374324357 0 0.81915203911291934 0.40957601955645967 0 -0.28678822187162178 1 I I #
point $-1 65.452838664318932 18.362370242980624 10.468836744886556 #
plane-surface $-1 0 0 16.38359980078836 0 0 1 1 0 0 forward_v I I I I #
coedge $-1 $663 $662 $655 $765 forward $474 $-1 #
coedge $-1 $655 $476 $478 $659 reversed $319 $-1 #
coedge $-1 $476 $654 $653 $765 reversed $319 $-1 #
coedge $-1 $484 $479 $476 $657 forward $485 $-1 #
edge $-1 $660 38.412131652513338 $766 54.487293426192224 $656 $767 forward 7 unknown #
coedge $-1 $478 $477 $663 $768 reversed $201 $-1 #
edge $-1 $769 -146.16168706320386 $660 -126.53753793566571 $654 $770 forward 7 unknown #
vertex $-1 $480 $771 #
straight-curve $-1 57.005681757923035 14.701469446844925 16.38359980078836 0 -1 0 I I #
coedge $-1 $653 $481 $484 $667 reversed $474 $-1 #
coedge $-1 $481 $653 $658 $768 forward $474 $-1 #
vertex $-1 $482 $772 #
straight-curve $-1 73.080843531601914 32.498812863006933 104.34559740398055 0 0 1 I I #
straight-curve $-1 -46.647800466405926 32.498812863006933 88.962550809953271 0.81915203911291934 0 -0.57357644374324357 I I #
edge $-1 $766 26.307064924372767 $486 32.498812863006933 $662 $773 forward 7 unknown #
point $-1 73.080843531601914 32.498812863006933 16.38359980078836 #
point $-1 57.005681757923028 32.498812863006933 16.38359980078836 #
edge $-1 $774 1 $774 0 $489 $-1 forward 7 unknown #
vertex $-1 $490 $775 #
ellipse-curve $-1 64.120213655131238 28.076135763982535 9.4373744174102718 0.57357644374324357 0 0.81915203911291934 0.40957601955645967 0 -0.28678822187162178 1 I I #
point $-1 65.452838664318932 28.076135763982535 10.468836744886556 #
edge $-1 $776 1 $776 0 $493 $-1 forward 7 unknown #
vertex $-1 $494 $777 #
ellipse-curve $-1 64.120213655131238 30.729742023397179 9.4373744174102718 0.57357644374324357 0 0.81915203911291934 0.40957601955645967 0 -0.28678822187162178 1 I I #
point $-1 65.452838664318932 30.729742023397179 10.468836744886556 #
plane-surface $-1 73.080843531601914 0 0 -1 0 0 0 0 1 forward_v I I I I #
coedge $-1 $502 $500 $504 $683 reversed $341 $-1 #
edge $-1 $515 -16.38359980078836 $685 16.38359980078836 $514 $778 forward 7 unknown #
vertex $-1 $683 $779 #
straight-curve $-1 -73.080843531601914 -35.316423019191774 0 0 0 -1 I I #
edge $-1 $681 -35.316423019191774 $685 35.316423019191774 $679 $780 forward 7 unknown #
straight-curve $-1 0 -35.316423019191774 -16.38359980078836 -1 0 0 I I #
vertex $-1 $507 $781 #
straight-curve $-1 0 35.316423019191774 -16.38359980078836 1 0 0 I I #
point $-1 73.080843531601914 35.316423019191774 -16.38359980078836 #
point $-1 73.080843531601914 -35.316423019191774 -16.38359980078836 #
straight-curve $-1 -73.080843531601914 0 16.38359980078836 0 -1 0 I I #
point $-1 -73.080843531601914 35.316423019191774 16.38359980078836 #
point $-1 -73.080843531601914 -35.316423019191774 16.38359980078836 #
straight-curve $-1 73.080843531601914 -35.316423019191774 0 0 0 -1 I I #
straight-curve $-1 73.080843531601914 35.316423019191774 0 0 0 -1 I I #
plane-surface $-1 73.080843531601914 0 0 -1 0 0 0 0 1 forward_v I I I I #
coedge $-1 $698 $527 $538 $707 forward $360 $-1 #
coedge $-1 $527 $698 $541 $709 reversed $360 $-1 #
straight-curve $-1 73.080843531601914 -14.153064102474447 -2.8202625965279688 0 0 1 I I #
coedge $-1 $696 $695 $530 $699 forward $360 $-1 #
edge $-1 $702 1.7856923220578924 $700 22.949051238775219 $698 $782 forward 7 unknown #
vertex $-1 $532 $783 #
straight-curve $-1 0 -35.316423019191774 -10.299003570202611 1 0 0 I I #
vertex $-1 $699 $784 #
straight-curve $-1 0 -14.153064102474447 -10.299003570202611 1 0 0 I I #
point $-1 73.080843531601914 -35.316423019191774 -10.299003570202611 #
point $-1 73.080843531601914 -14.153064102474447 -10.299003570202611 #
straight-curve $-1 -73.080843531601914 -12.367371780416555 -0.98204681590926413 0 1 0 I I #
edge $-1 $539 -1.8382157806187047 $702 7.4787409736746424 $695 $785 forward 7 unknown #
point $-1 -73.080843531601914 -14.153064102474447 -0.98204681590926413 #
edge $-1 $543 0.98204681590926413 $700 10.299003570202611 $696 $786 forward 7 unknown #
point $-1 -73.080843531601914 -35.316423019191774 -0.98204681590926413 #
straight-curve $-1 73.080843531601914 -35.316423019191774 0 0 0 -1 I I #
edge $-1 $713 33.33928243045618 $716 44.228037780424906 $549 $787 forward 7 unknown #
vertex $-1 $563 $788 #
straight-curve $-1 -92.523596457226802 7.4180816052449092 16.38359980078836 -1 0 0 I I #
edge $-1 $716 -6.8483355477574701 $560 5.7088434327825919 $559 $789 forward 7 unknown #
vertex $-1 $715 $790 #
straight-curve $-1 -73.080843531601943 7.4180816052449092 5.494844450819599 0.64278759981090561 0 0.7660444514056185 I I #
point $-1 -63.944093172674606 7.4180816052449092 16.38359980078836 #
point $-1 -73.080843531601914 -5.1390973752951528 5.4948444508196328 #
straight-curve $-1 -73.080843531601914 0 16.38359980078836 0 -1 0 I I #
vertex $-1 $566 $791 #
point $-1 -65.310900113076116 -1.5513319522837108 9.5581947427632414 #
vertex $-1 $570 $792 #
point $-1 -65.310900113076116 3.8303161822334602 9.5581947427632414 #
coedge $-1 $585 $584 $577 $726 forward $574 $-1 #
edge $-1 $727 87.961997603192188 $730 99.217947271252598 $725 $793 forward 7 unknown #
vertex $-1 $589 $794 #
straight-curve $-1 18.59355010540969 -10.795050416876888 16.38359980078836 1 0 0 I I #
edge $-1 $730 -6.9454621930969846 $586 -0.75371425446282281 $585 $795 forward 7 unknown #
vertex $-1 $729 $796 #
straight-curve $-1 -46.647800466405926 -10.795050416876888 88.962550809953271 -0.81915203911291934 0 0.57357644374324357 I I #
point $-1 57.005681757923028 -10.795050416876888 16.38359980078836 #
point $-1 73.080843531601914 -4.6033024782427265 5.1276501327279504 #
straight-curve $-1 73.080843531601914 0 16.38359980078836 0 1 0 I I #
vertex $-1 $592 $797 #
point $-1 64.529789674687692 -9.0259795772671261 9.1505861955386489 #
vertex $-1 $596 $798 #
point $-1 64.529789674687692 -6.3723733178524853 9.1505861955386489 #
edge $-1 $740 87.961997603192188 $743 99.217947271252598 $601 $799 forward 7 unknown #
vertex $-1 $615 $800 #
straight-curve $-1 18.59355010540969 1.5723213635396665 16.38359980078836 1 0 0 I I #
edge $-1 $743 -0.76177630288870724 $612 5.4299716357454546 $611 $801 forward 7 unknown #
vertex $-1 $742 $802 #
straight-curve $-1 -46.647800466405926 1.5723213635396665 88.962550809953271 -0.81915203911291934 0 0.57357644374324357 I I #
point $-1 57.005681757923028 1.5723213635396665 16.38359980078836 #
point $-1 73.080843531601914 7.7640693021738283 5.1276501327279504 #
straight-curve $-1 73.080843531601914 0 16.38359980078836 0 1 0 I I #
vertex $-1 $618 $803 #
point $-1 64.529789674687692 3.3413922031494252 9.1505861955386489 #
vertex $-1 $622 $804 #
point $-1 64.529789674687692 5.9949984625640695 9.1505861955386489 #
edge $-1 $753 87.961997603192188 $756 99.217947271252598 $627 $805 forward 7 unknown #
vertex $-1 $641 $806 #
straight-curve $-1 18.59355010540969 13.939693143956221 16.38359980078836 1 0 0 I I #
edge $-1 $756 5.4219095873195702 $638 11.613657525953734 $637 $807 forward 7 unknown #
vertex $-1 $755 $808 #
straight-curve $-1 -46.647800466405926 13.939693143956221 88.962550809953271 -0.81915203911291934 0 0.57357644374324357 I I #
point $-1 57.005681757923028 13.939693143956221 16.38359980078836 #
point $-1 73.080843531601914 20.131441082590385 5.1276501327279504 #
straight-curve $-1 73.080843531601914 0 16.38359980078836 0 1 0 I I #
vertex $-1 $644 $809 #
point $-1 64.529789674687692 15.70876398356598 9.1505861955386489 #
vertex $-1 $648 $810 #
point $-1 64.529789674687692 18.362370242980624 9.1505861955386489 #
edge $-1 $766 87.961997603192188 $769 99.217947271252598 $653 $811 forward 7 unknown #
vertex $-1 $667 $812 #
straight-curve $-1 18.59355010540969 26.307064924372767 16.38359980078836 1 0 0 I I #
edge $-1 $769 11.605595477527842 $664 17.797343416162008 $663 $813 forward 7 unknown #
vertex $-1 $768 $814 #
straight-curve $-1 -46.647800466405926 26.307064924372767 88.962550809953271 -0.81915203911291934 0 0.57357644374324357 I I #
point $-1 57.005681757923028 26.307064924372767 16.38359980078836 #
point $-1 73.080843531601914 32.498812863006933 5.1276501327279504 #
straight-curve $-1 73.080843531601914 0 16.38359980078836 0 1 0 I I #
vertex $-1 $670 $815 #
point $-1 64.529789674687692 28.076135763982535 9.1505861955386489 #
vertex $-1 $674 $816 #
point $-1 64.529789674687692 30.729742023397179 9.1505861955386489 #
straight-curve $-1 -73.080843531601914 35.316423019191774 0 0 0 -1 I I #
point $-1 -73.080843531601914 -35.316423019191774 -16.38359980078836 #
straight-curve $-1 -73.080843531601914 0 -16.38359980078836 0 1 0 I I #
point $-1 -73.080843531601914 35.316423019191774 -16.38359980078836 #
straight-curve $-1 -73.080843531601914 -12.367371780416555 -10.299003570202611 0 -1 0 I I #
point $-1 -73.080843531601914 -35.316423019191774 -10.299003570202611 #
point $-1 -73.080843531601914 -14.153064102474447 -10.299003570202611 #
straight-curve $-1 -73.080843531601914 -14.153064102474447 -2.8202625965279688 0 0 -1 I I #
straight-curve $-1 -73.080843531601914 -35.316423019191774 0 0 0 -1 I I #
straight-curve $-1 -73.080843531601914 7.4180816052449092 49.72288223124454 0 0 -1 I I #
point $-1 -73.080843531601914 7.4180816052449092 16.38359980078836 #
straight-curve $-1 -73.080843531601914 0.56974605748743912 5.4948444508196301 0 -1 0 I I #
point $-1 -73.080843531601914 7.4180816052449092 5.4948444508196328 #
point $-1 -65.187643261481412 -1.5513319522837108 8.1493626915467186 #
point $-1 -65.187643261481412 3.8303161822334602 8.1493626915467186 #
straight-curve $-1 73.080843531601914 -10.795050416876888 104.34559740398055 0 0 -1 I I #
point $-1 73.080843531601914 -10.795050416876888 16.38359980078836 #
straight-curve $-1 73.080843531601914 -3.8495882237799037 5.1276501327279576 0 1 0 I I #
point $-1 73.080843531601914 -10.795050416876888 5.1276501327279504 #
point $-1 63.833425433259613 -9.0259795772671261 9.027798397853811 #
point $-1 63.833425433259613 -6.3723733178524853 9.027798397853811 #
straight-curve $-1 73.080843531601914 1.5723213635396665 104.34559740398055 0 0 -1 I I #
point $-1 73.080843531601914 1.5723213635396665 16.38359980078836 #
straight-curve $-1 73.080843531601914 2.3340976664283737 5.1276501327279576 0 1 0 I I #
point $-1 73.080843531601914 1.5723213635396665 5.1276501327279504 #
point $-1 63.833425433259613 3.3413922031494252 9.027798397853811 #
point $-1 63.833425433259613 5.9949984625640695 9.027798397853811 #
straight-curve $-1 73.080843531601914 13.939693143956221 104.34559740398055 0 0 -1 I I #
point $-1 73.080843531601914 13.939693143956221 16.38359980078836 #
straight-curve $-1 73.080843531601914 8.5177835566366511 5.1276501327279576 0 1 0 I I #
point $-1 73.080843531601914 13.939693143956221 5.1276501327279504 #
point $-1 63.833425433259613 15.70876398356598 9.027798397853811 #
point $-1 63.833425433259613 18.362370242980624 9.027798397853811 #
straight-curve $-1 73.080843531601914 26.307064924372767 104.34559740398055 0 0 -1 I I #
point $-1 73.080843531601914 26.307064924372767 16.38359980078836 #
straight-curve $-1 73.080843531601914 14.701469446844925 5.1276501327279576 0 1 0 I I #
point $-1 73.080843531601914 26.307064924372767 5.1276501327279504 #
point $-1 63.833425433259613 28.076135763982535 9.027798397853811 #
point $-1 63.833425433259613 30.729742023397179 9.027798397853811 #
End-of-ACIS-data 