500 0 5 0           
7 Unknown 11 ACIS 5.0 NT 24 Thu Mar 25 23:33:52 1999 
-1 9.9999999999999995e-007 1e-010 
body $-1 $5 $-1 $6 #
body $-1 $7 $-1 $8 #
body $-1 $9 $-1 $10 #
body $-1 $11 $-1 $12 #
body $-1 $13 $-1 $14 #
lump $-1 $-1 $15 $0 #
transform $-1 1 0 0 0 1 0 0 0 1 42.246162297433393 23.355099831211788 6.435321812984462 1 rotate no_reflect no_shear #
lump $-1 $-1 $16 $1 #
transform $-1 1 0 0 0 1 0 0 0 1 42.246162297433393 23.355099831211788 6.435321812984462 1 rotate no_reflect no_shear #
lump $-1 $-1 $17 $2 #
transform $-1 1 0 0 0 1 0 0 0 1 42.246162297433393 23.355099831211788 6.435321812984462 1 rotate no_reflect no_shear #
lump $-1 $-1 $18 $3 #
transform $-1 1 0 0 0 1 0 0 0 1 42.246162297433393 23.355099831211788 6.435321812984462 1 rotate no_reflect no_shear #
lump $-1 $-1 $19 $4 #
transform $-1 1 0 0 0 1 0 0 0 1 42.246162297433393 23.355099831211788 6.435321812984462 1 rotate no_reflect no_shear #
shell $-1 $-1 $-1 $20 $-1 $5 #
shell $-1 $-1 $-1 $21 $-1 $7 #
shell $-1 $-1 $-1 $22 $-1 $9 #
shell $-1 $-1 $-1 $23 $-1 $11 #
shell $-1 $-1 $-1 $24 $-1 $13 #
face $-1 $25 $26 $15 $-1 $27 forward single #
face $-1 $28 $29 $16 $-1 $30 reversed single #
face $-1 $31 $32 $17 $-1 $33 reversed single #
face $-1 $34 $35 $18 $-1 $36 forward single #
face $-1 $37 $38 $19 $-1 $39 forward single #
face $-1 $40 $41 $15 $-1 $42 reversed single #
loop $-1 $-1 $43 $20 #
plane-surface $-1 0 0 6.435321812984462 0 0 1 1 0 0 forward_v I I I I #
face $-1 $44 $45 $16 $-1 $46 reversed single #
loop $-1 $-1 $47 $21 #
plane-surface $-1 -36.44643996304881 -19.955448173109644 0 1 0 0 0 0 -1 forward_v I I I I #
face $-1 $48 $49 $17 $-1 $50 reversed single #
loop $-1 $-1 $51 $22 #
plane-surface $-1 -13.843749289864499 68.776128868750234 86.139419848088806 1 0 0 0 -0.83867057594974714 -0.54463902268945019 forward_v I I I I #
face $-1 $52 $53 $18 $-1 $54 forward single #
loop $-1 $55 $56 $23 #
cone-surface $-1 -7.1592600146644045 20.61592712588687 3.0696552928036809 0 -0.83867057594974714 -0.54463902268945019 1 0 0 1 I I 0 1 1 forward I I I I #
face $-1 $57 $58 $19 $-1 $59 forward single #
loop $-1 $60 $61 $24 #
cone-surface $-1 2.8674738981357422 20.61592712588687 3.0696552928036809 0 -0.83867057594974714 -0.54463902268945019 1 0 0 1 I I 0 1 1 forward I I I I #
face $-1 $62 $63 $15 $-1 $64 reversed single #
loop $-1 $-1 $65 $25 #
plane-surface $-1 0 0 -6.435321812984462 0 0 1 1 0 0 forward_v I I I I #
coedge $-1 $66 $67 $68 $69 forward $26 $-1 #
face $-1 $70 $71 $16 $-1 $72 reversed single #
loop $-1 $-1 $73 $28 #
plane-surface $-1 -34.94643996304881 -16.555796515007501 0 0 -1 0 0 0 -1 forward_v I I I I #
coedge $-1 $74 $75 $76 $77 forward $29 $-1 #
face $-1 $78 $79 $17 $-1 $80 reversed single #
loop $-1 $-1 $81 $31 #
plane-surface $-1 -2.1458930582643276 -2.0850976625596758 40.121602755980767 0 0.83867057594974714 0.54463902268945019 1 0 0 forward_v I I I I #
coedge $-1 $82 $83 $84 $85 reversed $32 $-1 #
face $-1 $-1 $86 $18 $-1 $87 forward single #
loop $-1 $88 $89 $34 #
cone-surface $-1 -7.1592600146644045 19.239454915919481 2.1757638165862687 0 -0.83867057594974714 -0.54463902268945019 0.5 0 0 1 I I -0.70710678118654746 0.70710678118654746 0.5 forward I I I I #
loop $-1 $-1 $90 $23 #
coedge $-1 $56 $56 $91 $92 reversed $35 $-1 #
face $-1 $-1 $93 $19 $-1 $94 forward single #
loop $-1 $95 $96 $37 #
cone-surface $-1 2.8674738981357422 19.239454915919481 2.1757638165862687 0 -0.83867057594974714 -0.54463902268945019 0.5 0 0 1 I I -0.70710678118654746 0.70710678118654746 0.5 forward I I I I #
loop $-1 $-1 $97 $24 #
coedge $-1 $61 $61 $98 $99 reversed $38 $-1 #
face $-1 $100 $101 $15 $-1 $102 reversed single #
loop $-1 $-1 $103 $40 #
plane-surface $-1 0 -23.355099831211788 0 0 1 0 0 0 1 forward_v I I I I #
coedge $-1 $104 $105 $106 $107 forward $41 $-1 #
coedge $-1 $108 $43 $109 $110 forward $26 $-1 #
coedge $-1 $43 $108 $111 $112 forward $26 $-1 #
coedge $-1 $113 $114 $43 $69 reversed $115 $-1 #
edge $-1 $116 -23.355099831211788 $117 23.355099831211788 $68 $118 forward 7 unknown #
face $-1 $119 $120 $16 $-1 $121 forward single #
loop $-1 $-1 $122 $44 #
plane-surface $-1 -33.44643996304881 -19.955448173109644 0 -1 0 0 0 0 1 forward_v I I I I #
coedge $-1 $123 $124 $125 $126 forward $45 $-1 #
coedge $-1 $127 $47 $128 $129 reversed $29 $-1 #
coedge $-1 $47 $127 $130 $131 reversed $29 $-1 #
coedge $-1 $124 $123 $47 $77 reversed $45 $-1 #
edge $-1 $132 -6.435321812984462 $133 6.435321812984462 $76 $134 forward 7 unknown #
face $-1 $135 $136 $17 $-1 $137 reversed single #
loop $-1 $-1 $138 $48 #
plane-surface $-1 9.5519631733358441 68.776128868750234 86.139419848088806 -1 0 0 0 0.83867057594974714 0.54463902268945019 forward_v I I I I #
coedge $-1 $139 $140 $141 $142 reversed $49 $-1 #
coedge $-1 $83 $51 $143 $144 reversed $32 $-1 #
coedge $-1 $51 $82 $139 $145 reversed $32 $-1 #
coedge $-1 $141 $146 $51 $85 forward $147 $-1 #
edge $-1 $148 11.032964603163329 $149 14.597036169828108 $84 $150 forward 7 unknown #
loop $-1 $-1 $91 $52 #
plane-surface $-1 -2.1458930582643276 -2.0850976625596758 40.121602755980767 0 0.83867057594974714 0.54463902268945019 1 0 0 forward_v I I I I #
loop $-1 $-1 $151 $34 #
coedge $-1 $89 $89 $90 $152 reversed $53 $-1 #
coedge $-1 $90 $90 $89 $152 forward $55 $-1 #
coedge $-1 $91 $91 $56 $92 forward $86 $-1 #
edge $-1 $153 2.0164961036063844e-015 $153 6.2831853071796022 $91 $154 forward 7 unknown #
loop $-1 $-1 $98 $57 #
plane-surface $-1 -2.1458930582643276 -2.0850976625596758 40.121602755980767 0 0.83867057594974714 0.54463902268945019 1 0 0 forward_v I I I I #
loop $-1 $-1 $155 $37 #
coedge $-1 $96 $96 $97 $156 reversed $58 $-1 #
coedge $-1 $97 $97 $96 $156 forward $60 $-1 #
coedge $-1 $98 $98 $61 $99 forward $93 $-1 #
edge $-1 $157 2.0164961036063844e-015 $157 6.2831853071796022 $98 $158 forward 7 unknown #
face $-1 $159 $160 $15 $-1 $161 reversed single #
loop $-1 $-1 $162 $62 #
plane-surface $-1 -42.246162297433393 0 0 1 0 0 0 0 -1 forward_v I I I I #
coedge $-1 $163 $111 $164 $165 forward $63 $-1 #
coedge $-1 $166 $65 $163 $167 forward $41 $-1 #
coedge $-1 $65 $166 $168 $169 forward $41 $-1 #
coedge $-1 $114 $113 $65 $107 reversed $115 $-1 #
edge $-1 $170 -23.355099831211788 $171 23.355099831211788 $106 $172 forward 7 unknown #
coedge $-1 $67 $66 $173 $174 forward $26 $-1 #
coedge $-1 $175 $176 $66 $110 reversed $160 $-1 #
edge $-1 $117 -42.246162297433393 $177 42.246162297433393 $109 $178 forward 7 unknown #
coedge $-1 $103 $179 $67 $112 reversed $63 $-1 #
edge $-1 $180 -42.246162297433393 $116 42.246162297433393 $111 $181 forward 7 unknown #
coedge $-1 $106 $68 $179 $182 forward $115 $-1 #
coedge $-1 $68 $106 $175 $183 reversed $115 $-1 #
loop $-1 $-1 $113 $159 #
vertex $-1 $69 $184 #
vertex $-1 $69 $185 #
straight-curve $-1 42.246162297433393 0 6.435321812984462 0 1 0 I I #
face $-1 $186 $187 $16 $-1 $188 reversed single #
loop $-1 $-1 $189 $70 #
plane-surface $-1 0 0 6.435321812984462 0 0 1 1 0 0 forward_v I I I I #
coedge $-1 $190 $191 $192 $193 reversed $71 $-1 #
coedge $-1 $76 $73 $194 $195 reversed $45 $-1 #
coedge $-1 $73 $76 $196 $197 reversed $45 $-1 #
coedge $-1 $191 $190 $73 $126 reversed $71 $-1 #
edge $-1 $198 -6.435321812984462 $199 6.435321812984462 $125 $200 forward 7 unknown #
coedge $-1 $75 $74 $201 $202 reversed $29 $-1 #
coedge $-1 $194 $203 $74 $129 forward $187 $-1 #
edge $-1 $204 -13.377375744656966 $133 -6.5780724284526784 $128 $205 forward 7 unknown #
coedge $-1 $206 $196 $75 $131 forward $120 $-1 #
edge $-1 $132 6.5780724284526784 $207 13.377375744656966 $130 $208 forward 7 unknown #
vertex $-1 $131 $209 #
vertex $-1 $129 $210 #
straight-curve $-1 -36.44643996304881 -16.555796515007501 0 0 0 -1 I I #
face $-1 $-1 $147 $17 $-1 $211 forward single #
loop $-1 $-1 $212 $78 #
plane-surface $-1 0 23.355099831211788 0 0 -1 0 0 0 -1 forward_v I I I I #
coedge $-1 $213 $214 $215 $216 reversed $79 $-1 #
coedge $-1 $217 $81 $83 $145 forward $49 $-1 #
coedge $-1 $81 $217 $213 $218 forward $49 $-1 #
coedge $-1 $215 $84 $81 $142 forward $147 $-1 #
edge $-1 $149 -12.770802760732336 $219 10.624909702468008 $141 $220 forward 7 unknown #
coedge $-1 $221 $222 $82 $144 forward $136 $-1 #
edge $-1 $223 -42.122577221676103 $148 -36.634388111059941 $143 $224 forward 7 unknown #
edge $-1 $149 40.166284485238428 $223 46.710199662423577 $83 $225 forward 7 unknown #
coedge $-1 $84 $215 $221 $226 forward $147 $-1 #
loop $-1 $-1 $215 $135 #
vertex $-1 $144 $227 #
vertex $-1 $85 $228 #
straight-curve $-1 -13.843749289864499 34.388064434375117 6.435321812984462 0 -1 0 I I #
coedge $-1 $151 $151 $-1 $229 reversed $88 $-1 #
edge $-1 $230 0 $230 6.2831853071796004 $89 $231 forward 7 unknown #
vertex $-1 $92 $232 #
ellipse-curve $-1 -7.1592600146644045 21.573064047879399 3.6912272576763772 0 0.83867057594974714 0.54463902268945019 1 0 0 1 I I #
coedge $-1 $155 $155 $-1 $233 reversed $95 $-1 #
edge $-1 $234 0 $234 6.2831853071796004 $96 $235 forward 7 unknown #
vertex $-1 $99 $236 #
ellipse-curve $-1 2.8674738981357422 21.573064047879399 3.6912272576763772 0 0.83867057594974714 0.54463902268945019 1 0 0 1 I I #
face $-1 $-1 $115 $15 $-1 $237 reversed single #
loop $-1 $-1 $175 $100 #
plane-surface $-1 0 23.355099831211788 0 0 -1 0 0 0 -1 forward_v I I I I #
coedge $-1 $238 $173 $176 $239 forward $101 $-1 #
coedge $-1 $179 $103 $104 $167 reversed $63 $-1 #
coedge $-1 $173 $238 $103 $165 reversed $101 $-1 #
edge $-1 $180 -6.435321812984462 $240 6.435321812984462 $164 $241 forward 7 unknown #
coedge $-1 $105 $104 $238 $242 forward $41 $-1 #
edge $-1 $171 -42.246162297433393 $240 42.246162297433393 $163 $243 forward 7 unknown #
coedge $-1 $176 $175 $105 $169 reversed $160 $-1 #
edge $-1 $244 -42.246162297433393 $170 42.246162297433393 $168 $245 forward 7 unknown #
vertex $-1 $107 $246 #
vertex $-1 $182 $247 #
straight-curve $-1 42.246162297433393 0 -6.435321812984462 0 -1 0 I I #
coedge $-1 $162 $164 $108 $174 reversed $101 $-1 #
edge $-1 $177 -23.355099831211788 $180 23.355099831211788 $173 $248 forward 7 unknown #
coedge $-1 $168 $109 $114 $183 forward $160 $-1 #
coedge $-1 $109 $168 $162 $239 reversed $160 $-1 #
vertex $-1 $110 $249 #
straight-curve $-1 0 23.355099831211788 6.435321812984462 -1 0 0 I I #
coedge $-1 $111 $163 $113 $182 reversed $63 $-1 #
vertex $-1 $174 $250 #
straight-curve $-1 0 -23.355099831211788 6.435321812984462 1 0 0 I I #
edge $-1 $116 -6.435321812984462 $171 6.435321812984462 $113 $251 forward 7 unknown #
edge $-1 $117 -6.435321812984462 $170 6.435321812984462 $114 $252 forward 7 unknown #
point $-1 42.246162297433393 -23.355099831211788 6.435321812984462 #
point $-1 42.246162297433393 23.355099831211788 6.435321812984462 #
face $-1 $-1 $253 $16 $-1 $254 reversed single #
loop $-1 $-1 $255 $119 #
plane-surface $-1 0 0 -6.435321812984462 0 0 1 1 0 0 forward_v I I I I #
coedge $-1 $196 $206 $191 $256 forward $120 $-1 #
coedge $-1 $125 $122 $255 $257 reversed $71 $-1 #
coedge $-1 $122 $125 $189 $256 reversed $71 $-1 #
coedge $-1 $258 $259 $122 $193 forward $253 $-1 #
edge $-1 $260 -6.435321812984462 $261 6.435321812984462 $192 $262 forward 7 unknown #
coedge $-1 $255 $128 $123 $195 forward $187 $-1 #
edge $-1 $133 -18.973219981524405 $199 -15.973219981524405 $194 $263 forward 7 unknown #
coedge $-1 $130 $189 $124 $197 forward $120 $-1 #
edge $-1 $198 15.973219981524405 $132 18.973219981524405 $196 $264 forward 7 unknown #
vertex $-1 $197 $265 #
vertex $-1 $195 $266 #
straight-curve $-1 -33.44643996304881 -16.555796515007501 0 0 0 -1 I I #
coedge $-1 $259 $258 $127 $202 forward $253 $-1 #
edge $-1 $207 -6.435321812984462 $204 6.435321812984462 $201 $267 forward 7 unknown #
coedge $-1 $128 $255 $259 $268 forward $187 $-1 #
vertex $-1 $129 $269 #
straight-curve $-1 -36.44643996304881 -9.9777240865548222 -6.435321812984462 0 1 0 I I #
coedge $-1 $189 $130 $258 $270 forward $120 $-1 #
vertex $-1 $270 $271 #
straight-curve $-1 -36.44643996304881 -9.9777240865548222 6.435321812984462 0 -1 0 I I #
point $-1 -36.44643996304881 -16.555796515007501 6.435321812984462 #
point $-1 -36.44643996304881 -16.555796515007501 -6.435321812984462 #
plane-surface $-1 0 0 6.435321812984462 0 0 1 1 0 0 forward_v I I I I #
coedge $-1 $222 $221 $214 $272 forward $136 $-1 #
coedge $-1 $214 $138 $140 $218 reversed $79 $-1 #
coedge $-1 $138 $213 $212 $272 reversed $79 $-1 #
coedge $-1 $146 $141 $138 $216 forward $147 $-1 #
edge $-1 $219 -14.597036169828108 $273 -11.032964603163329 $215 $274 forward 7 unknown #
coedge $-1 $140 $139 $222 $275 reversed $49 $-1 #
edge $-1 $276 -46.710199662423577 $219 -40.166284485238428 $213 $277 forward 7 unknown #
vertex $-1 $142 $278 #
straight-curve $-1 -1.0729465291321638 19.791028264547005 6.4353218129844585 1 0 0 I I #
coedge $-1 $212 $143 $146 $226 reversed $136 $-1 #
coedge $-1 $143 $212 $217 $275 forward $136 $-1 #
vertex $-1 $144 $279 #
straight-curve $-1 -13.843749289864499 23.355099831211788 43.069709924044403 0 0 1 I I #
straight-curve $-1 -13.843749289864499 -2.0850976625596758 40.121602755980767 0 0.54463902268945019 -0.83867057594974714 I I #
edge $-1 $273 -9.5519631733358441 $148 13.843749289864499 $221 $280 forward 7 unknown #
point $-1 -13.843749289864499 23.355099831211788 6.435321812984462 #
point $-1 -13.843749289864499 19.791028264547009 6.435321812984462 #
edge $-1 $281 1 $281 0 $151 $-1 forward 7 unknown #
vertex $-1 $152 $282 #
ellipse-curve $-1 -7.1592600146644045 19.658790203894355 2.4480833279309939 0 0.83867057594974714 0.54463902268945019 1 0 0 1 I I #
point $-1 -6.1592600146644045 21.573064047879388 3.6912272576763678 #
edge $-1 $283 1 $283 0 $155 $-1 forward 7 unknown #
vertex $-1 $156 $284 #
ellipse-curve $-1 2.8674738981357422 19.658790203894355 2.4480833279309939 0 0.83867057594974714 0.54463902268945019 1 0 0 1 I I #
point $-1 3.8674738981357422 21.573064047879388 3.6912272576763678 #
plane-surface $-1 42.246162297433393 0 0 -1 0 0 0 0 1 forward_v I I I I #
coedge $-1 $164 $162 $166 $242 reversed $101 $-1 #
edge $-1 $177 -6.435321812984462 $244 6.435321812984462 $176 $285 forward 7 unknown #
vertex $-1 $242 $286 #
straight-curve $-1 -42.246162297433393 -23.355099831211788 0 0 0 -1 I I #
edge $-1 $240 -23.355099831211788 $244 23.355099831211788 $238 $287 forward 7 unknown #
straight-curve $-1 0 -23.355099831211788 -6.435321812984462 -1 0 0 I I #
vertex $-1 $169 $288 #
straight-curve $-1 0 23.355099831211788 -6.435321812984462 1 0 0 I I #
point $-1 42.246162297433393 23.355099831211788 -6.435321812984462 #
point $-1 42.246162297433393 -23.355099831211788 -6.435321812984462 #
straight-curve $-1 -42.246162297433393 0 6.435321812984462 0 -1 0 I I #
point $-1 -42.246162297433393 23.355099831211788 6.435321812984462 #
point $-1 -42.246162297433393 -23.355099831211788 6.435321812984462 #
straight-curve $-1 42.246162297433393 -23.355099831211788 0 0 0 -1 I I #
straight-curve $-1 42.246162297433393 23.355099831211788 0 0 0 -1 I I #
loop $-1 $-1 $192 $186 #
plane-surface $-1 0 -23.355099831211788 0 0 1 0 0 0 1 forward_v I I I I #
coedge $-1 $203 $194 $190 $257 forward $187 $-1 #
edge $-1 $261 -13.377375744656966 $198 -6.5780724284526784 $189 $289 forward 7 unknown #
edge $-1 $199 6.5780724284526784 $260 13.377375744656966 $255 $290 forward 7 unknown #
coedge $-1 $201 $192 $206 $270 reversed $253 $-1 #
coedge $-1 $192 $201 $203 $268 reversed $253 $-1 #
vertex $-1 $268 $291 #
vertex $-1 $193 $292 #
straight-curve $-1 -33.44643996304881 -23.355099831211788 0 0 0 1 I I #
straight-curve $-1 -17.473219981524405 -16.555796515007501 -6.435321812984462 1 0 0 I I #
straight-curve $-1 -17.473219981524405 -16.555796515007501 6.435321812984462 -1 0 0 I I #
point $-1 -33.44643996304881 -16.555796515007501 6.435321812984462 #
point $-1 -33.44643996304881 -16.555796515007501 -6.435321812984462 #
straight-curve $-1 -36.44643996304881 -23.355099831211788 0 0 0 -1 I I #
edge $-1 $260 33.44643996304881 $204 36.44643996304881 $259 $293 forward 7 unknown #
point $-1 -36.44643996304881 -23.355099831211788 -6.435321812984462 #
edge $-1 $207 -36.44643996304881 $261 -33.44643996304881 $258 $294 forward 7 unknown #
point $-1 -36.44643996304881 -23.355099831211788 6.435321812984462 #
edge $-1 $273 36.634388111059941 $276 42.122577221676103 $212 $295 forward 7 unknown #
vertex $-1 $226 $296 #
straight-curve $-1 9.5519631733358441 34.388064434375117 6.435321812984462 0 1 0 I I #
edge $-1 $276 -10.624909702468008 $223 12.770802760732336 $222 $297 forward 7 unknown #
vertex $-1 $275 $298 #
straight-curve $-1 9.5519631733358441 -2.0850976625596758 40.121602755980767 0 -0.54463902268945019 0.83867057594974714 I I #
point $-1 9.5519631733358441 19.791028264547009 6.435321812984462 #
point $-1 -13.843749289864499 23.355099831211788 0.94713270236830027 #
straight-curve $-1 0 23.355099831211788 6.435321812984462 -1 0 0 I I #
vertex $-1 $229 $299 #
point $-1 -6.1592600146644045 19.658790203894355 2.4480833279309939 #
vertex $-1 $233 $300 #
point $-1 3.8674738981357422 19.658790203894355 2.4480833279309939 #
straight-curve $-1 -42.246162297433393 23.355099831211788 0 0 0 -1 I I #
point $-1 -42.246162297433393 -23.355099831211788 -6.435321812984462 #
straight-curve $-1 -42.246162297433393 0 -6.435321812984462 0 1 0 I I #
point $-1 -42.246162297433393 23.355099831211788 -6.435321812984462 #
straight-curve $-1 -33.44643996304881 -9.9777240865548222 6.435321812984462 0 1 0 I I #
straight-curve $-1 -33.44643996304881 -9.9777240865548222 -6.435321812984462 0 -1 0 I I #
point $-1 -33.44643996304881 -23.355099831211788 -6.435321812984462 #
point $-1 -33.44643996304881 -23.355099831211788 6.435321812984462 #
straight-curve $-1 0 -23.355099831211788 -6.435321812984462 -1 0 0 I I #
straight-curve $-1 0 -23.355099831211788 6.435321812984462 1 0 0 I I #
straight-curve $-1 9.5519631733358441 23.355099831211788 43.069709924044403 0 0 -1 I I #
point $-1 9.5519631733358441 23.355099831211788 6.435321812984462 #
straight-curve $-1 -1.0729465291321638 23.355099831211788 0.94713270236829672 -1 0 0 I I #
point $-1 9.5519631733358441 23.355099831211788 0.94713270236830027 #
point $-1 -7.1592600146644045 18.820119627944607 1.9034443052415435 #
point $-1 2.8674738981357422 18.820119627944607 1.9034443052415435 #
End-of-ACIS-data 