500 0 7 0           
7 Unknown 11 ACIS 5.0 NT 24 Thu Mar 25 16:51:22 1999 
-1 9.9999999999999995e-007 1e-010 
body $-1 $7 $-1 $8 #
body $-1 $9 $-1 $10 #
body $-1 $11 $-1 $12 #
body $-1 $13 $-1 $14 #
body $-1 $15 $-1 $16 #
body $-1 $17 $-1 $18 #
body $-1 $19 $-1 $20 #
lump $-1 $-1 $21 $0 #
transform $-1 1 0 0 0 1 0 0 0 1 45.349284340952785 25.271981015126986 8.3418284329786214 1 rotate no_reflect no_shear #
lump $-1 $-1 $22 $1 #
transform $-1 1 0 0 0 1 0 0 0 1 45.349284340952785 25.271981015126986 8.3418284329786214 1 rotate no_reflect no_shear #
lump $-1 $-1 $23 $2 #
transform $-1 1 0 0 0 1 0 0 0 1 45.349284340952785 25.271981015126986 8.3418284329786214 1 rotate no_reflect no_shear #
lump $-1 $-1 $24 $3 #
transform $-1 1 0 0 0 1 0 0 0 1 45.349284340952785 25.271981015126986 8.3418284329786214 1 rotate no_reflect no_shear #
lump $-1 $-1 $25 $4 #
transform $-1 1 0 0 0 1 0 0 0 1 45.349284340952785 25.271981015126986 8.3418284329786214 1 rotate no_reflect no_shear #
lump $-1 $-1 $26 $5 #
transform $-1 1 0 0 0 1 0 0 0 1 45.349284340952785 25.271981015126986 8.3418284329786214 1 rotate no_reflect no_shear #
lump $-1 $-1 $27 $6 #
transform $-1 1 0 0 0 1 0 0 0 1 45.349284340952785 25.271981015126986 8.3418284329786214 1 rotate no_reflect no_shear #
shell $-1 $-1 $-1 $28 $-1 $7 #
shell $-1 $-1 $-1 $29 $-1 $9 #
shell $-1 $-1 $-1 $30 $-1 $11 #
shell $-1 $-1 $-1 $31 $-1 $13 #
shell $-1 $-1 $-1 $32 $-1 $15 #
shell $-1 $-1 $-1 $33 $-1 $17 #
shell $-1 $-1 $-1 $34 $-1 $19 #
face $-1 $35 $36 $21 $-1 $37 forward single #
face $-1 $38 $39 $22 $-1 $40 forward single #
face $-1 $41 $42 $23 $-1 $43 forward single #
face $-1 $44 $45 $24 $-1 $46 reversed single #
face $-1 $47 $48 $25 $-1 $49 forward single #
face $-1 $50 $51 $26 $-1 $52 forward single #
face $-1 $53 $54 $27 $-1 $55 forward single #
face $-1 $56 $57 $21 $-1 $58 reversed single #
loop $-1 $-1 $59 $28 #
plane-surface $-1 0 0 8.3418284329786214 0 0 1 1 0 0 forward_v I I I I #
face $-1 $60 $61 $22 $-1 $62 reversed single #
loop $-1 $-1 $63 $29 #
plane-surface $-1 0 -25.271981015126986 0 0 1 0 0 0 1 forward_v I I I I #
face $-1 $64 $65 $23 $-1 $66 reversed single #
loop $-1 $-1 $67 $30 #
plane-surface $-1 0 25.271981015126986 0 0 -1 0 0 0 -1 forward_v I I I I #
face $-1 $68 $69 $24 $-1 $70 reversed single #
loop $-1 $-1 $71 $31 #
plane-surface $-1 -94.747265912322291 10.73717014875502 79.401703856165852 0 1 0 -0.54463904215088732 0 0.83867056331134215 forward_v I I I I #
face $-1 $72 $73 $25 $-1 $74 forward single #
loop $-1 $75 $76 $32 #
cone-surface $-1 -41.008090969425119 11.949419624471876 5.0892866069047225 0.54463904215088732 0 -0.83867056331134215 0.41933528165567108 0 0.27231952107544366 1 I I 0 1 0.5 forward I I I I #
face $-1 $77 $78 $26 $-1 $79 forward single #
loop $-1 $80 $81 $33 #
cone-surface $-1 -41.008090969425119 13.767793838047158 5.0892866069047225 0.54463904215088732 0 -0.83867056331134215 0.41933528165567108 0 0.27231952107544366 1 I I 0 1 0.5 forward I I I I #
face $-1 $82 $83 $27 $-1 $84 forward single #
loop $-1 $85 $86 $34 #
cone-surface $-1 -41.008090969425119 15.58616805162244 5.0892866069047225 0.54463904215088732 0 -0.83867056331134215 0.41933528165567108 0 0.27231952107544366 1 I I 0 1 0.5 forward I I I I #
face $-1 $87 $88 $21 $-1 $89 reversed single #
loop $-1 $-1 $90 $35 #
plane-surface $-1 0 0 -8.3418284329786214 0 0 1 1 0 0 forward_v I I I I #
coedge $-1 $91 $92 $93 $94 forward $36 $-1 #
face $-1 $95 $96 $22 $-1 $97 reversed single #
loop $-1 $-1 $98 $38 #
plane-surface $-1 0 0 -8.3418284329786214 0 0 1 1 0 0 forward_v I I I I #
coedge $-1 $99 $100 $101 $102 forward $39 $-1 #
face $-1 $103 $104 $23 $-1 $105 forward single #
loop $-1 $-1 $106 $41 #
plane-surface $-1 -45.349284340952785 0 0 1 0 0 0 0 -1 forward_v I I I I #
coedge $-1 $107 $108 $109 $110 forward $42 $-1 #
face $-1 $111 $112 $24 $-1 $113 reversed single #
loop $-1 $-1 $114 $44 #
plane-surface $-1 -45.349284340952778 13.767793838047151 3.3354841681796472 -0.54463904215088732 0 0.83867056331134215 0.83867056331134215 0 0.54463904215088732 forward_v I I I I #
coedge $-1 $115 $116 $117 $118 reversed $45 $-1 #
face $-1 $-1 $119 $25 $-1 $120 forward single #
loop $-1 $121 $122 $47 #
cone-surface $-1 -40.385284830638135 11.949419624471876 4.1302492724024749 0.54463904215088732 0 -0.83867056331134215 0.20966764082783554 0 0.13615976053772183 1 I I -0.70710678118654879 0.70710678118654635 0.25 forward I I I I #
loop $-1 $-1 $123 $32 #
coedge $-1 $76 $76 $124 $125 reversed $48 $-1 #
face $-1 $-1 $126 $26 $-1 $127 forward single #
loop $-1 $128 $129 $50 #
cone-surface $-1 -40.385284830638135 13.767793838047158 4.1302492724024749 0.54463904215088732 0 -0.83867056331134215 0.20966764082783554 0 0.13615976053772183 1 I I -0.70710678118654879 0.70710678118654635 0.25 forward I I I I #
loop $-1 $-1 $130 $33 #
coedge $-1 $81 $81 $131 $132 reversed $51 $-1 #
face $-1 $-1 $133 $27 $-1 $134 forward single #
loop $-1 $135 $136 $53 #
cone-surface $-1 -40.385284830638135 15.58616805162244 4.1302492724024749 0.54463904215088732 0 -0.83867056331134215 0.20966764082783554 0 0.13615976053772183 1 I I -0.70710678118654879 0.70710678118654635 0.25 forward I I I I #
loop $-1 $-1 $137 $34 #
coedge $-1 $86 $86 $138 $139 reversed $54 $-1 #
face $-1 $140 $141 $21 $-1 $142 reversed single #
loop $-1 $-1 $143 $56 #
plane-surface $-1 0 -25.271981015126986 0 0 1 0 0 0 1 forward_v I I I I #
coedge $-1 $144 $145 $146 $147 forward $57 $-1 #
coedge $-1 $148 $59 $149 $150 forward $36 $-1 #
coedge $-1 $59 $148 $151 $152 forward $36 $-1 #
coedge $-1 $153 $154 $59 $94 reversed $155 $-1 #
edge $-1 $156 -25.271981015126986 $157 25.271981015126986 $93 $158 forward 7 unknown #
face $-1 $159 $160 $22 $-1 $161 forward single #
loop $-1 $-1 $162 $60 #
plane-surface $-1 45.349284340952785 0 0 -1 0 0 0 0 1 forward_v I I I I #
coedge $-1 $163 $164 $165 $166 forward $61 $-1 #
coedge $-1 $165 $63 $162 $167 reversed $39 $-1 #
coedge $-1 $63 $165 $168 $169 reversed $39 $-1 #
coedge $-1 $170 $171 $63 $102 reversed $160 $-1 #
edge $-1 $172 -45.349284340952785 $173 45.349284340952785 $101 $174 forward 7 unknown #
face $-1 $175 $176 $23 $-1 $177 reversed single #
loop $-1 $-1 $178 $64 #
plane-surface $-1 0 29.508762759020836 -4.8226649099085606 0 0 1 1 0 0 forward_v I I I I #
coedge $-1 $179 $180 $107 $181 forward $65 $-1 #
coedge $-1 $182 $67 $106 $181 reversed $42 $-1 #
coedge $-1 $67 $182 $183 $184 reversed $42 $-1 #
coedge $-1 $178 $185 $67 $110 reversed $104 $-1 #
edge $-1 $186 -45.349284340952785 $187 45.349284340952785 $109 $188 forward 7 unknown #
face $-1 $189 $190 $24 $-1 $191 reversed single #
loop $-1 $-1 $192 $68 #
plane-surface $-1 -94.747265912322291 16.798417527339282 79.401703856165852 0 -1 0 0.54463904215088732 0 -0.83867056331134215 forward_v I I I I #
coedge $-1 $193 $194 $195 $196 reversed $69 $-1 #
coedge $-1 $116 $71 $197 $198 reversed $45 $-1 #
coedge $-1 $71 $115 $193 $199 reversed $45 $-1 #
coedge $-1 $195 $200 $71 $118 forward $201 $-1 #
edge $-1 $202 2.0243486152083605 $203 9.7334426017651694 $117 $204 forward 7 unknown #
loop $-1 $-1 $124 $72 #
plane-surface $-1 -45.349284340952778 13.767793838047151 3.3354841681796472 -0.54463904215088732 0 0.83867056331134215 0.83867056331134215 0 0.54463904215088732 forward_v I I I I #
loop $-1 $-1 $205 $47 #
coedge $-1 $122 $122 $123 $206 reversed $73 $-1 #
coedge $-1 $123 $123 $122 $206 forward $75 $-1 #
coedge $-1 $124 $124 $76 $125 forward $119 $-1 #
edge $-1 $207 0 $207 6.2831853071796004 $124 $208 forward 7 unknown #
loop $-1 $-1 $131 $77 #
plane-surface $-1 -45.349284340952778 13.767793838047151 3.3354841681796472 -0.54463904215088732 0 0.83867056331134215 0.83867056331134215 0 0.54463904215088732 forward_v I I I I #
loop $-1 $-1 $209 $50 #
coedge $-1 $129 $129 $130 $210 reversed $78 $-1 #
coedge $-1 $130 $130 $129 $210 forward $80 $-1 #
coedge $-1 $131 $131 $81 $132 forward $126 $-1 #
edge $-1 $211 0 $211 6.2831853071796004 $131 $212 forward 7 unknown #
loop $-1 $-1 $138 $82 #
plane-surface $-1 -45.349284340952778 13.767793838047151 3.3354841681796472 -0.54463904215088732 0 0.83867056331134215 0.83867056331134215 0 0.54463904215088732 forward_v I I I I #
loop $-1 $-1 $213 $53 #
coedge $-1 $136 $136 $137 $214 reversed $83 $-1 #
coedge $-1 $137 $137 $136 $214 forward $85 $-1 #
coedge $-1 $138 $138 $86 $139 forward $133 $-1 #
edge $-1 $215 0 $215 6.2831853071796004 $138 $216 forward 7 unknown #
face $-1 $217 $218 $21 $-1 $219 reversed single #
loop $-1 $-1 $220 $87 #
plane-surface $-1 -45.349284340952785 0 0 1 0 0 0 0 -1 forward_v I I I I #
coedge $-1 $151 $221 $153 $222 reversed $88 $-1 #
coedge $-1 $223 $90 $221 $224 forward $57 $-1 #
coedge $-1 $90 $223 $225 $226 forward $57 $-1 #
coedge $-1 $154 $153 $90 $147 reversed $155 $-1 #
edge $-1 $227 -25.271981015126986 $228 25.271981015126986 $146 $229 forward 7 unknown #
coedge $-1 $92 $91 $230 $231 forward $36 $-1 #
coedge $-1 $232 $233 $91 $150 reversed $218 $-1 #
edge $-1 $157 -45.349284340952785 $234 45.349284340952785 $149 $235 forward 7 unknown #
coedge $-1 $236 $143 $92 $152 reversed $88 $-1 #
edge $-1 $237 -45.349284340952785 $156 45.349284340952785 $151 $238 forward 7 unknown #
coedge $-1 $146 $93 $143 $222 forward $155 $-1 #
coedge $-1 $93 $146 $232 $239 reversed $155 $-1 #
loop $-1 $-1 $153 $217 #
vertex $-1 $94 $240 #
vertex $-1 $94 $241 #
straight-curve $-1 45.349284340952785 0 8.3418284329786214 0 1 0 I I #
face $-1 $242 $243 $22 $-1 $244 reversed single #
loop $-1 $-1 $171 $95 #
plane-surface $-1 0 -29.508762759020836 -4.8226649099085606 0 0 1 1 0 0 forward_v I I I I #
coedge $-1 $245 $246 $99 $167 forward $96 $-1 #
coedge $-1 $247 $98 $246 $248 forward $61 $-1 #
coedge $-1 $98 $247 $249 $250 forward $61 $-1 #
coedge $-1 $100 $99 $98 $166 reversed $39 $-1 #
edge $-1 $251 -45.349284340952785 $252 45.349284340952785 $98 $253 forward 7 unknown #
edge $-1 $252 -8.3418284329786214 $173 -4.8226649099085606 $162 $254 forward 7 unknown #
coedge $-1 $249 $255 $100 $169 forward $256 $-1 #
edge $-1 $172 4.8226649099085606 $251 8.3418284329786214 $168 $257 forward 7 unknown #
coedge $-1 $258 $101 $255 $259 forward $160 $-1 #
coedge $-1 $101 $258 $245 $260 forward $160 $-1 #
vertex $-1 $169 $261 #
vertex $-1 $260 $262 #
straight-curve $-1 0 -25.271981015126986 -4.8226649099085606 1 0 0 I I #
face $-1 $263 $264 $23 $-1 $265 reversed single #
loop $-1 $-1 $266 $103 #
plane-surface $-1 0 33.745544502914683 -6.582246671443591 0 -1 0 0 0 -1 forward_v I I I I #
coedge $-1 $267 $109 $268 $269 forward $104 $-1 #
coedge $-1 $270 $106 $185 $271 reversed $65 $-1 #
coedge $-1 $106 $270 $272 $273 reversed $65 $-1 #
edge $-1 $274 -8.3418284329786214 $187 -4.8226649099085606 $106 $275 forward 7 unknown #
coedge $-1 $108 $107 $276 $277 reversed $42 $-1 #
coedge $-1 $278 $268 $108 $184 forward $279 $-1 #
edge $-1 $186 4.8226649099085606 $280 8.3418284329786214 $183 $281 forward 7 unknown #
coedge $-1 $109 $267 $179 $271 forward $104 $-1 #
vertex $-1 $184 $282 #
vertex $-1 $271 $283 #
straight-curve $-1 0 25.271981015126986 -4.8226649099085606 -1 0 0 I I #
face $-1 $-1 $201 $24 $-1 $284 forward single #
loop $-1 $-1 $285 $111 #
plane-surface $-1 -45.349284340952785 0 0 1 0 0 0 0 -1 forward_v I I I I #
coedge $-1 $286 $287 $288 $289 reversed $112 $-1 #
coedge $-1 $290 $114 $116 $199 forward $69 $-1 #
coedge $-1 $114 $290 $286 $291 forward $69 $-1 #
coedge $-1 $288 $117 $114 $196 forward $201 $-1 #
edge $-1 $203 3.8532732297314443 $292 9.9145206083157067 $195 $293 forward 7 unknown #
coedge $-1 $294 $295 $115 $198 forward $190 $-1 #
edge $-1 $296 -36.365367759903286 $202 -31.359023495104303 $197 $297 forward 7 unknown #
edge $-1 $203 -9.1920407413833747 $296 8.3777959833898778e-015 $116 $298 forward 7 unknown #
coedge $-1 $117 $288 $294 $299 forward $201 $-1 #
loop $-1 $-1 $288 $189 #
vertex $-1 $198 $300 #
vertex $-1 $118 $301 #
straight-curve $-1 -47.373632956161146 10.73717014875502 8.3418284329786232 1 0 0 I I #
coedge $-1 $205 $205 $-1 $302 reversed $121 $-1 #
edge $-1 $303 0 $303 6.2831853071796004 $122 $304 forward 7 unknown #
vertex $-1 $125 $305 #
ellipse-curve $-1 -41.494737347674381 11.949419624471876 5.8386563005791308 -0.54463904215088732 0 0.83867056331134215 0.41933528165567108 0 0.27231952107544366 1 I I #
coedge $-1 $209 $209 $-1 $306 reversed $128 $-1 #
edge $-1 $307 0 $307 6.2831853071796004 $129 $308 forward 7 unknown #
vertex $-1 $132 $309 #
ellipse-curve $-1 -41.494737347674381 13.767793838047158 5.8386563005791308 -0.54463904215088732 0 0.83867056331134215 0.41933528165567108 0 0.27231952107544366 1 I I #
coedge $-1 $213 $213 $-1 $310 reversed $135 $-1 #
edge $-1 $311 0 $311 6.2831853071796004 $136 $312 forward 7 unknown #
vertex $-1 $139 $313 #
ellipse-curve $-1 -41.494737347674381 15.58616805162244 5.8386563005791308 -0.54463904215088732 0 0.83867056331134215 0.41933528165567108 0 0.27231952107544366 1 I I #
face $-1 $-1 $155 $21 $-1 $314 reversed single #
loop $-1 $-1 $233 $140 #
plane-surface $-1 0 25.271981015126986 0 0 -1 0 0 0 -1 forward_v I I I I #
coedge $-1 $315 $230 $233 $316 forward $141 $-1 #
coedge $-1 $143 $236 $144 $224 reversed $88 $-1 #
edge $-1 $156 -8.3418284329786214 $228 8.3418284329786214 $153 $317 forward 7 unknown #
coedge $-1 $145 $144 $315 $318 forward $57 $-1 #
edge $-1 $228 -45.349284340952785 $319 45.349284340952785 $221 $320 forward 7 unknown #
coedge $-1 $233 $232 $145 $226 reversed $218 $-1 #
edge $-1 $321 -45.349284340952785 $227 45.349284340952785 $225 $322 forward 7 unknown #
vertex $-1 $147 $323 #
vertex $-1 $222 $324 #
straight-curve $-1 45.349284340952785 0 -8.3418284329786214 0 -1 0 I I #
coedge $-1 $220 $325 $148 $231 reversed $141 $-1 #
edge $-1 $234 -25.271981015126986 $237 25.271981015126986 $230 $326 forward 7 unknown #
coedge $-1 $225 $149 $154 $239 forward $218 $-1 #
coedge $-1 $149 $225 $220 $316 reversed $218 $-1 #
vertex $-1 $150 $327 #
straight-curve $-1 0 25.271981015126986 8.3418284329786214 -1 0 0 I I #
coedge $-1 $221 $151 $325 $328 forward $88 $-1 #
vertex $-1 $231 $329 #
straight-curve $-1 0 -25.271981015126986 8.3418284329786214 1 0 0 I I #
edge $-1 $157 -8.3418284329786214 $227 8.3418284329786214 $154 $330 forward 7 unknown #
point $-1 45.349284340952785 -25.271981015126986 8.3418284329786214 #
point $-1 45.349284340952785 25.271981015126986 8.3418284329786214 #
face $-1 $-1 $256 $22 $-1 $331 reversed single #
loop $-1 $-1 $332 $159 #
plane-surface $-1 0 -33.74554450291469 -6.582246671443591 0 1 0 0 0 1 forward_v I I I I #
coedge $-1 $333 $162 $171 $260 reversed $96 $-1 #
coedge $-1 $162 $333 $163 $248 reversed $96 $-1 #
coedge $-1 $164 $163 $334 $335 forward $61 $-1 #
edge $-1 $252 25.271981015126986 $336 33.74554450291469 $246 $337 forward 7 unknown #
coedge $-1 $338 $168 $164 $250 reversed $256 $-1 #
edge $-1 $339 -33.74554450291469 $251 -25.271981015126986 $249 $340 forward 7 unknown #
vertex $-1 $169 $341 #
vertex $-1 $248 $342 #
straight-curve $-1 0 -25.271981015126986 -8.3418284329786214 1 0 0 I I #
straight-curve $-1 45.349284340952785 -25.271981015126986 0 0 0 1 I I #
coedge $-1 $168 $338 $170 $259 reversed $256 $-1 #
loop $-1 $-1 $168 $242 #
straight-curve $-1 -45.349284340952785 -25.271981015126986 0 0 0 -1 I I #
coedge $-1 $171 $170 $343 $344 forward $160 $-1 #
edge $-1 $172 -4.2367817438938502 $345 4.2367817438938538 $255 $346 forward 7 unknown #
edge $-1 $347 -4.2367817438938538 $173 4.2367817438938502 $245 $348 forward 7 unknown #
point $-1 -45.349284340952785 -25.271981015126986 -4.8226649099085606 #
point $-1 45.349284340952785 -25.271981015126986 -4.8226649099085606 #
face $-1 $-1 $279 $23 $-1 $349 reversed single #
loop $-1 $-1 $276 $175 #
plane-surface $-1 0 0 -8.3418284329786214 0 0 1 1 0 0 forward_v I I I I #
coedge $-1 $350 $351 $352 $353 forward $176 $-1 #
coedge $-1 $185 $178 $351 $354 forward $104 $-1 #
coedge $-1 $183 $352 $178 $269 reversed $279 $-1 #
edge $-1 $186 -4.2367817438938502 $355 4.2367817438938467 $268 $356 forward 7 unknown #
coedge $-1 $180 $179 $357 $358 forward $65 $-1 #
edge $-1 $359 -4.2367817438938467 $187 4.2367817438938502 $179 $360 forward 7 unknown #
coedge $-1 $361 $276 $180 $273 forward $264 $-1 #
edge $-1 $274 -4.2367817438938502 $362 4.2367817438938467 $180 $363 forward 7 unknown #
vertex $-1 $273 $364 #
straight-curve $-1 -45.349284340952785 25.271981015126986 0 0 0 1 I I #
coedge $-1 $272 $365 $182 $277 forward $264 $-1 #
edge $-1 $280 -45.349284340952785 $274 45.349284340952785 $276 $366 forward 7 unknown #
coedge $-1 $352 $183 $365 $367 reversed $279 $-1 #
loop $-1 $-1 $183 $263 #
vertex $-1 $184 $368 #
straight-curve $-1 45.349284340952785 25.271981015126986 0 0 0 -1 I I #
point $-1 45.349284340952785 25.271981015126986 -4.8226649099085606 #
point $-1 -45.349284340952785 25.271981015126986 -4.8226649099085606 #
plane-surface $-1 0 0 8.3418284329786214 0 0 1 1 0 0 forward_v I I I I #
coedge $-1 $295 $294 $287 $369 forward $190 $-1 #
coedge $-1 $287 $192 $194 $291 reversed $112 $-1 #
coedge $-1 $192 $286 $285 $369 reversed $112 $-1 #
coedge $-1 $200 $195 $192 $289 forward $201 $-1 #
edge $-1 $292 -9.7334426017651694 $370 -2.0243486152083605 $288 $371 forward 7 unknown #
coedge $-1 $194 $193 $295 $372 reversed $69 $-1 #
edge $-1 $373 -8.3777959833898778e-015 $292 9.1920407413833747 $286 $374 forward 7 unknown #
vertex $-1 $196 $375 #
straight-curve $-1 -37.640190354395976 6.8838969190235755 8.3418284329786196 0 1 0 I I #
coedge $-1 $285 $197 $200 $299 reversed $190 $-1 #
coedge $-1 $197 $285 $290 $372 forward $190 $-1 #
vertex $-1 $198 $376 #
straight-curve $-1 -45.349284340952785 10.73717014875502 39.700851928082926 0 0 1 I I #
straight-curve $-1 -45.349284340952778 10.73717014875502 3.3354841681796472 -0.83867056331134215 0 -0.54463904215088732 I I #
edge $-1 $370 -16.798417527339282 $202 -10.73717014875502 $294 $377 forward 7 unknown #
point $-1 -45.349284340952785 10.73717014875502 8.3418284329786214 #
point $-1 -37.640190354395976 10.73717014875502 8.3418284329786214 #
edge $-1 $378 1 $378 0 $205 $-1 forward 7 unknown #
vertex $-1 $206 $379 #
ellipse-curve $-1 -40.521444591175857 11.949419624471876 4.3399169132303097 -0.54463904215088732 0 0.83867056331134215 0.41933528165567108 0 0.27231952107544366 1 I I #
point $-1 -41.075402066018718 11.949419624471876 6.1109758216545789 #
edge $-1 $380 1 $380 0 $209 $-1 forward 7 unknown #
vertex $-1 $210 $381 #
ellipse-curve $-1 -40.521444591175857 13.767793838047158 4.3399169132303097 -0.54463904215088732 0 0.83867056331134215 0.41933528165567108 0 0.27231952107544366 1 I I #
point $-1 -41.075402066018718 13.767793838047158 6.1109758216545789 #
edge $-1 $382 1 $382 0 $213 $-1 forward 7 unknown #
vertex $-1 $214 $383 #
ellipse-curve $-1 -40.521444591175857 15.58616805162244 4.3399169132303097 -0.54463904215088732 0 0.83867056331134215 0.41933528165567108 0 0.27231952107544366 1 I I #
point $-1 -41.075402066018718 15.58616805162244 6.1109758216545789 #
plane-surface $-1 45.349284340952785 0 0 -1 0 0 0 0 1 forward_v I I I I #
coedge $-1 $325 $220 $223 $318 reversed $141 $-1 #
edge $-1 $234 -8.3418284329786214 $321 8.3418284329786214 $233 $384 forward 7 unknown #
straight-curve $-1 45.349284340952785 -25.271981015126986 0 0 0 -1 I I #
edge $-1 $319 -25.271981015126986 $321 25.271981015126986 $315 $385 forward 7 unknown #
vertex $-1 $318 $386 #
straight-curve $-1 0 -25.271981015126986 -8.3418284329786214 -1 0 0 I I #
vertex $-1 $226 $387 #
straight-curve $-1 0 25.271981015126986 -8.3418284329786214 1 0 0 I I #
point $-1 45.349284340952785 25.271981015126986 -8.3418284329786214 #
point $-1 45.349284340952785 -25.271981015126986 -8.3418284329786214 #
coedge $-1 $230 $315 $236 $328 reversed $141 $-1 #
straight-curve $-1 -45.349284340952785 0 8.3418284329786214 0 -1 0 I I #
point $-1 -45.349284340952785 25.271981015126986 8.3418284329786214 #
edge $-1 $237 -8.3418284329786214 $319 8.3418284329786214 $325 $388 forward 7 unknown #
point $-1 -45.349284340952785 -25.271981015126986 8.3418284329786214 #
straight-curve $-1 45.349284340952785 25.271981015126986 0 0 0 -1 I I #
plane-surface $-1 -45.349284340952785 0 0 1 0 0 0 0 -1 forward_v I I I I #
coedge $-1 $334 $343 $338 $389 forward $243 $-1 #
coedge $-1 $246 $245 $390 $391 forward $96 $-1 #
coedge $-1 $390 $332 $247 $335 reversed $243 $-1 #
edge $-1 $336 -45.349284340952785 $339 45.349284340952785 $334 $392 forward 7 unknown #
vertex $-1 $391 $393 #
straight-curve $-1 45.349284340952785 0 -8.3418284329786214 0 -1 0 I I #
coedge $-1 $255 $249 $332 $389 reversed $256 $-1 #
vertex $-1 $250 $394 #
straight-curve $-1 -45.349284340952785 0 -8.3418284329786214 0 1 0 I I #
point $-1 -45.349284340952785 -25.271981015126986 -8.3418284329786214 #
point $-1 45.349284340952785 -25.271981015126986 -8.3418284329786214 #
coedge $-1 $332 $390 $258 $344 reversed $243 $-1 #
edge $-1 $345 -45.349284340952785 $347 45.349284340952785 $343 $395 forward 7 unknown #
vertex $-1 $259 $396 #
straight-curve $-1 -45.349284340952785 -29.508762759020836 -4.8226649099085606 0 -1 0 I I #
vertex $-1 $260 $397 #
straight-curve $-1 45.349284340952785 -29.508762759020836 -4.8226649099085606 0 1 0 I I #
plane-surface $-1 45.349284340952785 0 0 -1 0 0 0 0 1 forward_v I I I I #
coedge $-1 $357 $266 $361 $398 reversed $176 $-1 #
coedge $-1 $266 $357 $267 $354 reversed $176 $-1 #
coedge $-1 $268 $278 $266 $353 reversed $279 $-1 #
edge $-1 $355 -1.7595817615350304 $399 1.7595817615350304 $352 $400 forward 7 unknown #
edge $-1 $355 -45.349284340952785 $359 45.349284340952785 $351 $401 forward 7 unknown #
vertex $-1 $269 $402 #
straight-curve $-1 45.349284340952785 29.508762759020836 -4.8226649099085606 0 1 0 I I #
coedge $-1 $351 $350 $270 $358 reversed $176 $-1 #
edge $-1 $359 -1.7595817615350304 $362 1.7595817615350304 $357 $403 forward 7 unknown #
vertex $-1 $354 $404 #
straight-curve $-1 -45.349284340952785 29.508762759020836 -4.8226649099085606 0 -1 0 I I #
coedge $-1 $365 $272 $350 $398 forward $264 $-1 #
vertex $-1 $398 $405 #
straight-curve $-1 -45.349284340952785 29.508762759020836 -8.3418284329786214 0 1 0 I I #
point $-1 -45.349284340952785 25.271981015126986 -8.3418284329786214 #
coedge $-1 $276 $361 $278 $367 forward $264 $-1 #
straight-curve $-1 0 25.271981015126986 -8.3418284329786214 -1 0 0 I I #
edge $-1 $399 -33.745544502914683 $280 -25.271981015126986 $278 $406 forward 7 unknown #
point $-1 45.349284340952785 25.271981015126986 -8.3418284329786214 #
edge $-1 $370 31.359023495104303 $373 36.365367759903286 $285 $407 forward 7 unknown #
vertex $-1 $299 $408 #
straight-curve $-1 -47.373632956161146 16.798417527339282 8.3418284329786232 -1 0 0 I I #
edge $-1 $373 -9.9145206083157067 $296 -3.8532732297314443 $295 $409 forward 7 unknown #
vertex $-1 $372 $410 #
straight-curve $-1 -45.349284340952778 16.798417527339282 3.3354841681796472 0.83867056331134215 0 0.54463904215088732 I I #
point $-1 -37.640190354395976 16.798417527339282 8.3418284329786214 #
point $-1 -45.349284340952785 10.73717014875502 3.3354841681796428 #
straight-curve $-1 -45.349284340952785 0 8.3418284329786214 0 -1 0 I I #
vertex $-1 $302 $411 #
point $-1 -40.102109309520188 11.949419624471876 4.6122364343057534 #
vertex $-1 $306 $412 #
point $-1 -40.102109309520188 13.767793838047158 4.6122364343057534 #
vertex $-1 $310 $413 #
point $-1 -40.102109309520188 15.58616805162244 4.6122364343057534 #
straight-curve $-1 -45.349284340952785 25.271981015126986 0 0 0 -1 I I #
straight-curve $-1 -45.349284340952785 0 -8.3418284329786214 0 1 0 I I #
point $-1 -45.349284340952785 -25.271981015126986 -8.3418284329786214 #
point $-1 -45.349284340952785 25.271981015126986 -8.3418284329786214 #
straight-curve $-1 -45.349284340952785 -25.271981015126986 0 0 0 -1 I I #
edge $-1 $345 -1.7595817615350304 $339 1.7595817615350304 $338 $414 forward 7 unknown #
coedge $-1 $343 $334 $333 $391 reversed $243 $-1 #
edge $-1 $347 -1.7595817615350304 $336 1.7595817615350304 $333 $415 forward 7 unknown #
straight-curve $-1 0 -33.74554450291469 -8.3418284329786214 -1 0 0 I I #
point $-1 45.349284340952785 -33.74554450291469 -8.3418284329786214 #
point $-1 -45.349284340952785 -33.74554450291469 -8.3418284329786214 #
straight-curve $-1 0 -33.74554450291469 -4.8226649099085606 1 0 0 I I #
point $-1 -45.349284340952785 -33.74554450291469 -4.8226649099085606 #
point $-1 45.349284340952785 -33.74554450291469 -4.8226649099085606 #
edge $-1 $362 -45.349284340952785 $399 45.349284340952785 $350 $416 forward 7 unknown #
vertex $-1 $367 $417 #
straight-curve $-1 45.349284340952785 33.745544502914683 -6.582246671443591 0 0 -1 I I #
straight-curve $-1 0 33.745544502914683 -4.8226649099085606 -1 0 0 I I #
point $-1 45.349284340952785 33.745544502914683 -4.8226649099085606 #
straight-curve $-1 -45.349284340952785 33.745544502914683 -6.582246671443591 0 0 -1 I I #
point $-1 -45.349284340952785 33.745544502914683 -4.8226649099085606 #
point $-1 -45.349284340952785 33.745544502914683 -8.3418284329786214 #
straight-curve $-1 45.349284340952785 0 -8.3418284329786214 0 -1 0 I I #
straight-curve $-1 -45.349284340952785 16.798417527339282 39.700851928082926 0 0 -1 I I #
point $-1 -45.349284340952785 16.798417527339282 8.3418284329786214 #
straight-curve $-1 -45.349284340952785 6.8838969190235755 3.3354841681796379 0 -1 0 I I #
point $-1 -45.349284340952785 16.798417527339282 3.3354841681796428 #
point $-1 -40.249125070100412 11.949419624471876 3.92058163157464 #
point $-1 -40.249125070100412 13.767793838047158 3.92058163157464 #
point $-1 -40.249125070100412 15.58616805162244 3.92058163157464 #
straight-curve $-1 -45.349284340952785 -33.74554450291469 -6.582246671443591 0 0 -1 I I #
straight-curve $-1 45.349284340952785 -33.74554450291469 -6.582246671443591 0 0 -1 I I #
straight-curve $-1 0 33.745544502914683 -8.3418284329786214 1 0 0 I I #
point $-1 45.349284340952785 33.745544502914683 -8.3418284329786214 #
End-of-ACIS-data 