500 0 20 0           
7 Unknown 11 ACIS 5.0 NT 24 Fri Mar 26 02:13:27 1999 
-1 9.9999999999999995e-007 1e-010 
body $-1 $20 $-1 $21 #
body $-1 $22 $-1 $23 #
body $-1 $24 $-1 $25 #
body $-1 $26 $-1 $27 #
body $-1 $28 $-1 $29 #
body $-1 $30 $-1 $31 #
body $-1 $32 $-1 $33 #
body $-1 $34 $-1 $35 #
body $-1 $36 $-1 $37 #
body $-1 $38 $-1 $39 #
body $-1 $40 $-1 $41 #
body $-1 $42 $-1 $43 #
body $-1 $44 $-1 $45 #
body $-1 $46 $-1 $47 #
body $-1 $48 $-1 $49 #
body $-1 $50 $-1 $51 #
body $-1 $52 $-1 $53 #
body $-1 $54 $-1 $55 #
body $-1 $56 $-1 $57 #
body $-1 $58 $-1 $59 #
lump $-1 $-1 $60 $0 #
transform $-1 1 0 0 0 1 0 0 0 1 59.673451948606832 28.71053002456684 12.616178126307886 1 rotate no_reflect no_shear #
lump $-1 $-1 $61 $1 #
transform $-1 1 0 0 0 1 0 0 0 1 59.673451948606832 28.71053002456684 12.616178126307886 1 rotate no_reflect no_shear #
lump $-1 $-1 $62 $2 #
transform $-1 1 0 0 0 1 0 0 0 1 59.673451948606832 28.71053002456684 12.616178126307886 1 rotate no_reflect no_shear #
lump $-1 $-1 $63 $3 #
transform $-1 1 0 0 0 1 0 0 0 1 59.673451948606832 28.71053002456684 12.616178126307886 1 rotate no_reflect no_shear #
lump $-1 $-1 $64 $4 #
transform $-1 1 0 0 0 1 0 0 0 1 59.673451948606832 28.71053002456684 12.616178126307886 1 rotate no_reflect no_shear #
lump $-1 $-1 $65 $5 #
transform $-1 1 0 0 0 1 0 0 0 1 59.673451948606832 28.71053002456684 12.616178126307886 1 rotate no_reflect no_shear #
lump $-1 $-1 $66 $6 #
transform $-1 1 0 0 0 1 0 0 0 1 59.673451948606832 28.71053002456684 12.616178126307886 1 rotate no_reflect no_shear #
lump $-1 $-1 $67 $7 #
transform $-1 1 0 0 0 1 0 0 0 1 59.673451948606832 28.71053002456684 12.616178126307886 1 rotate no_reflect no_shear #
lump $-1 $-1 $68 $8 #
transform $-1 1 0 0 0 1 0 0 0 1 59.673451948606832 28.71053002456684 12.616178126307886 1 rotate no_reflect no_shear #
lump $-1 $-1 $69 $9 #
transform $-1 1 0 0 0 1 0 0 0 1 59.673451948606832 28.71053002456684 12.616178126307886 1 rotate no_reflect no_shear #
lump $-1 $-1 $70 $10 #
transform $-1 1 0 0 0 1 0 0 0 1 59.673451948606832 28.71053002456684 12.616178126307886 1 rotate no_reflect no_shear #
lump $-1 $-1 $71 $11 #
transform $-1 1 0 0 0 1 0 0 0 1 59.673451948606832 28.71053002456684 12.616178126307886 1 rotate no_reflect no_shear #
lump $-1 $-1 $72 $12 #
transform $-1 1 0 0 0 1 0 0 0 1 59.673451948606832 28.71053002456684 12.616178126307886 1 rotate no_reflect no_shear #
lump $-1 $-1 $73 $13 #
transform $-1 1 0 0 0 1 0 0 0 1 59.673451948606832 28.71053002456684 12.616178126307886 1 rotate no_reflect no_shear #
lump $-1 $-1 $74 $14 #
transform $-1 1 0 0 0 1 0 0 0 1 59.673451948606832 28.71053002456684 12.616178126307886 1 rotate no_reflect no_shear #
lump $-1 $-1 $75 $15 #
transform $-1 1 0 0 0 1 0 0 0 1 59.673451948606832 28.71053002456684 12.616178126307886 1 rotate no_reflect no_shear #
lump $-1 $-1 $76 $16 #
transform $-1 1 0 0 0 1 0 0 0 1 59.673451948606832 28.71053002456684 12.616178126307886 1 rotate no_reflect no_shear #
lump $-1 $-1 $77 $17 #
transform $-1 1 0 0 0 1 0 0 0 1 59.673451948606832 28.71053002456684 12.616178126307886 1 rotate no_reflect no_shear #
lump $-1 $-1 $78 $18 #
transform $-1 1 0 0 0 1 0 0 0 1 59.673451948606832 28.71053002456684 12.616178126307886 1 rotate no_reflect no_shear #
lump $-1 $-1 $79 $19 #
transform $-1 1 0 0 0 1 0 0 0 1 59.673451948606832 28.71053002456684 12.616178126307886 1 rotate no_reflect no_shear #
shell $-1 $-1 $-1 $80 $-1 $20 #
shell $-1 $-1 $-1 $81 $-1 $22 #
shell $-1 $-1 $-1 $82 $-1 $24 #
shell $-1 $-1 $-1 $83 $-1 $26 #
shell $-1 $-1 $-1 $84 $-1 $28 #
shell $-1 $-1 $-1 $85 $-1 $30 #
shell $-1 $-1 $-1 $86 $-1 $32 #
shell $-1 $-1 $-1 $87 $-1 $34 #
shell $-1 $-1 $-1 $88 $-1 $36 #
shell $-1 $-1 $-1 $89 $-1 $38 #
shell $-1 $-1 $-1 $90 $-1 $40 #
shell $-1 $-1 $-1 $91 $-1 $42 #
shell $-1 $-1 $-1 $92 $-1 $44 #
shell $-1 $-1 $-1 $93 $-1 $46 #
shell $-1 $-1 $-1 $94 $-1 $48 #
shell $-1 $-1 $-1 $95 $-1 $50 #
shell $-1 $-1 $-1 $96 $-1 $52 #
shell $-1 $-1 $-1 $97 $-1 $54 #
shell $-1 $-1 $-1 $98 $-1 $56 #
shell $-1 $-1 $-1 $99 $-1 $58 #
face $-1 $100 $101 $60 $-1 $102 forward single #
face $-1 $103 $104 $61 $-1 $105 forward single #
face $-1 $106 $107 $62 $-1 $108 reversed single #
face $-1 $109 $110 $63 $-1 $111 forward single #
face $-1 $112 $113 $64 $-1 $114 forward single #
face $-1 $115 $116 $65 $-1 $117 forward single #
face $-1 $118 $119 $66 $-1 $120 reversed single #
face $-1 $121 $122 $67 $-1 $123 forward single #
face $-1 $124 $125 $68 $-1 $126 forward single #
face $-1 $127 $128 $69 $-1 $129 forward single #
face $-1 $130 $131 $70 $-1 $132 reversed single #
face $-1 $133 $134 $71 $-1 $135 forward single #
face $-1 $136 $137 $72 $-1 $138 forward single #
face $-1 $139 $140 $73 $-1 $141 forward single #
face $-1 $142 $143 $74 $-1 $144 reversed single #
face $-1 $145 $146 $75 $-1 $147 forward single #
face $-1 $148 $149 $76 $-1 $150 forward single #
face $-1 $151 $152 $77 $-1 $153 forward single #
face $-1 $154 $155 $78 $-1 $156 reversed single #
face $-1 $157 $158 $79 $-1 $159 forward single #
face $-1 $160 $161 $60 $-1 $162 reversed single #
loop $-1 $-1 $163 $80 #
plane-surface $-1 0 0 12.616178126307886 0 0 1 1 0 0 forward_v I I I I #
face $-1 $164 $165 $61 $-1 $166 reversed single #
loop $-1 $-1 $167 $81 #
plane-surface $-1 0 -28.71053002456684 0 0 1 0 0 0 1 forward_v I I I I #
face $-1 $168 $169 $62 $-1 $170 reversed single #
loop $-1 $-1 $171 $82 #
plane-surface $-1 24.581700249918477 -8.7786902552252108 172.84224453180701 0 -1 0 -0.54463904215088732 0 -0.83867056331134215 forward_v I I I I #
face $-1 $172 $173 $63 $-1 $174 forward single #
loop $-1 $175 $176 $83 #
cone-surface $-1 55.55132502142461 -13.904817488222385 9.6058828222601544 -0.54463904215088732 0 -0.83867056331134215 0.41933528165567108 0 -0.27231952107544366 1 I I 0 1 0.5 forward I I I I #
face $-1 $177 $178 $64 $-1 $179 forward single #
loop $-1 $180 $181 $84 #
cone-surface $-1 55.55132502142461 -11.982519775848445 9.6058828222601544 -0.54463904215088732 0 -0.83867056331134215 0.41933528165567108 0 -0.27231952107544366 1 I I 0 1 0.5 forward I I I I #
face $-1 $182 $183 $65 $-1 $184 forward single #
loop $-1 $185 $186 $85 #
cone-surface $-1 55.55132502142461 -10.060222063474505 9.6058828222601544 -0.54463904215088732 0 -0.83867056331134215 0.41933528165567108 0 -0.27231952107544366 1 I I 0 1 0.5 forward I I I I #
face $-1 $187 $188 $66 $-1 $189 reversed single #
loop $-1 $-1 $190 $86 #
plane-surface $-1 24.581700249918477 2.9198606745041289 172.84224453180701 0 -1 0 -0.54463904215088732 0 -0.83867056331134215 forward_v I I I I #
face $-1 $191 $192 $67 $-1 $193 forward single #
loop $-1 $194 $195 $87 #
cone-surface $-1 55.55132502142461 -2.206266558493045 9.6058828222601544 -0.54463904215088732 0 -0.83867056331134215 0.41933528165567108 0 -0.27231952107544366 1 I I 0 1 0.5 forward I I I I #
face $-1 $196 $197 $68 $-1 $198 forward single #
loop $-1 $199 $200 $88 #
cone-surface $-1 55.55132502142461 -0.28396884611910522 9.6058828222601544 -0.54463904215088732 0 -0.83867056331134215 0.41933528165567108 0 -0.27231952107544366 1 I I 0 1 0.5 forward I I I I #
face $-1 $201 $202 $69 $-1 $203 forward single #
loop $-1 $204 $205 $89 #
cone-surface $-1 55.55132502142461 1.6383288662548345 9.6058828222601544 -0.54463904215088732 0 -0.83867056331134215 0.41933528165567108 0 -0.27231952107544366 1 I I 0 1 0.5 forward I I I I #
face $-1 $206 $207 $70 $-1 $208 reversed single #
loop $-1 $-1 $209 $90 #
plane-surface $-1 24.581700249918477 14.618411604233465 172.84224453180701 0 -1 0 -0.54463904215088732 0 -0.83867056331134215 forward_v I I I I #
face $-1 $210 $211 $71 $-1 $212 forward single #
loop $-1 $213 $214 $91 #
cone-surface $-1 55.55132502142461 9.4922843712362912 9.6058828222601544 -0.54463904215088732 0 -0.83867056331134215 0.41933528165567108 0 -0.27231952107544366 1 I I 0 1 0.5 forward I I I I #
face $-1 $215 $216 $72 $-1 $217 forward single #
loop $-1 $218 $219 $92 #
cone-surface $-1 55.55132502142461 11.414582083610231 9.6058828222601544 -0.54463904215088732 0 -0.83867056331134215 0.41933528165567108 0 -0.27231952107544366 1 I I 0 1 0.5 forward I I I I #
face $-1 $220 $221 $73 $-1 $222 forward single #
loop $-1 $223 $224 $93 #
cone-surface $-1 55.55132502142461 13.336879795984171 9.6058828222601544 -0.54463904215088732 0 -0.83867056331134215 0.41933528165567108 0 -0.27231952107544366 1 I I 0 1 0.5 forward I I I I #
face $-1 $225 $226 $74 $-1 $227 reversed single #
loop $-1 $-1 $228 $94 #
plane-surface $-1 24.581700249918477 26.316962533962801 172.84224453180701 0 -1 0 -0.54463904215088732 0 -0.83867056331134215 forward_v I I I I #
face $-1 $229 $230 $75 $-1 $231 forward single #
loop $-1 $232 $233 $95 #
cone-surface $-1 55.55132502142461 21.190835300965627 9.6058828222601544 -0.54463904215088732 0 -0.83867056331134215 0.41933528165567108 0 -0.27231952107544366 1 I I 0 1 0.5 forward I I I I #
face $-1 $234 $235 $76 $-1 $236 forward single #
loop $-1 $237 $238 $96 #
cone-surface $-1 55.55132502142461 23.113133013339567 9.6058828222601544 -0.54463904215088732 0 -0.83867056331134215 0.41933528165567108 0 -0.27231952107544366 1 I I 0 1 0.5 forward I I I I #
face $-1 $239 $240 $77 $-1 $241 forward single #
loop $-1 $242 $243 $97 #
cone-surface $-1 55.55132502142461 25.035430725713507 9.6058828222601544 -0.54463904215088732 0 -0.83867056331134215 0.41933528165567108 0 -0.27231952107544366 1 I I 0 1 0.5 forward I I I I #
face $-1 $244 $245 $78 $-1 $246 reversed single #
loop $-1 $-1 $247 $98 #
plane-surface $-1 -133.15074379895671 -17.579916787075714 101.02333910617523 0 1 0 -0.61566148304635926 0 0.78801074757464917 forward_v I I I I #
face $-1 $248 $249 $79 $-1 $250 forward single #
loop $-1 $251 $252 $99 #
cone-surface $-1 -54.895080773324537 -12.217531549798583 8.2998431896639584 0.61566148304635926 0 -0.78801074757464917 1.1820161213619738 0 0.92349222456953894 1 I I 0 1 1.5 forward I I I I #
face $-1 $253 $254 $60 $-1 $255 reversed single #
loop $-1 $-1 $256 $100 #
plane-surface $-1 0 0 -12.616178126307886 0 0 1 1 0 0 forward_v I I I I #
coedge $-1 $257 $258 $259 $260 forward $101 $-1 #
face $-1 $261 $262 $61 $-1 $263 reversed single #
loop $-1 $-1 $264 $103 #
plane-surface $-1 0 0 -12.616178126307886 0 0 1 1 0 0 forward_v I I I I #
coedge $-1 $265 $266 $267 $268 forward $104 $-1 #
face $-1 $269 $270 $62 $-1 $271 reversed single #
loop $-1 $-1 $272 $106 #
plane-surface $-1 -40.419283172333969 -11.982519775848445 72.74950941086621 0.54463904215088732 0 0.83867056331134215 0.83867056331134215 0 -0.54463904215088732 forward_v I I I I #
coedge $-1 $273 $274 $275 $276 reversed $107 $-1 #
face $-1 $-1 $277 $63 $-1 $278 forward single #
loop $-1 $279 $280 $109 #
cone-surface $-1 55.040801755329348 -13.904817488222385 8.8197459462316417 -0.54463904215088732 0 -0.83867056331134215 0.20966764082783554 0 -0.13615976053772183 1 I I -0.70710678118654746 0.70710678118654746 0.25 forward I I I I #
loop $-1 $-1 $281 $83 #
coedge $-1 $176 $176 $282 $283 reversed $110 $-1 #
face $-1 $-1 $284 $64 $-1 $285 forward single #
loop $-1 $286 $287 $112 #
cone-surface $-1 55.040801755329348 -11.982519775848445 8.8197459462316417 -0.54463904215088732 0 -0.83867056331134215 0.20966764082783554 0 -0.13615976053772183 1 I I -0.70710678118654746 0.70710678118654746 0.25 forward I I I I #
loop $-1 $-1 $288 $84 #
coedge $-1 $181 $181 $289 $290 reversed $113 $-1 #
face $-1 $-1 $291 $65 $-1 $292 forward single #
loop $-1 $293 $294 $115 #
cone-surface $-1 55.040801755329348 -10.060222063474505 8.8197459462316417 -0.54463904215088732 0 -0.83867056331134215 0.20966764082783554 0 -0.13615976053772183 1 I I -0.70710678118654746 0.70710678118654746 0.25 forward I I I I #
loop $-1 $-1 $295 $85 #
coedge $-1 $186 $186 $296 $297 reversed $116 $-1 #
face $-1 $298 $299 $66 $-1 $300 reversed single #
loop $-1 $-1 $301 $118 #
plane-surface $-1 -40.419283172333969 -0.28396884611910522 72.74950941086621 0.54463904215088732 0 0.83867056331134215 0.83867056331134215 0 -0.54463904215088732 forward_v I I I I #
coedge $-1 $302 $303 $304 $305 reversed $119 $-1 #
face $-1 $-1 $306 $67 $-1 $307 forward single #
loop $-1 $308 $309 $121 #
cone-surface $-1 55.040801755329348 -2.206266558493045 8.8197459462316417 -0.54463904215088732 0 -0.83867056331134215 0.20966764082783554 0 -0.13615976053772183 1 I I -0.70710678118654746 0.70710678118654746 0.25 forward I I I I #
loop $-1 $-1 $310 $87 #
coedge $-1 $195 $195 $311 $312 reversed $122 $-1 #
face $-1 $-1 $313 $68 $-1 $314 forward single #
loop $-1 $315 $316 $124 #
cone-surface $-1 55.040801755329348 -0.28396884611910522 8.8197459462316417 -0.54463904215088732 0 -0.83867056331134215 0.20966764082783554 0 -0.13615976053772183 1 I I -0.70710678118654746 0.70710678118654746 0.25 forward I I I I #
loop $-1 $-1 $317 $88 #
coedge $-1 $200 $200 $318 $319 reversed $125 $-1 #
face $-1 $-1 $320 $69 $-1 $321 forward single #
loop $-1 $322 $323 $127 #
cone-surface $-1 55.040801755329348 1.6383288662548345 8.8197459462316417 -0.54463904215088732 0 -0.83867056331134215 0.20966764082783554 0 -0.13615976053772183 1 I I -0.70710678118654746 0.70710678118654746 0.25 forward I I I I #
loop $-1 $-1 $324 $89 #
coedge $-1 $205 $205 $325 $326 reversed $128 $-1 #
face $-1 $327 $328 $70 $-1 $329 reversed single #
loop $-1 $-1 $330 $130 #
plane-surface $-1 -40.419283172333969 11.414582083610231 72.74950941086621 0.54463904215088732 0 0.83867056331134215 0.83867056331134215 0 -0.54463904215088732 forward_v I I I I #
coedge $-1 $331 $332 $333 $334 reversed $131 $-1 #
face $-1 $-1 $335 $71 $-1 $336 forward single #
loop $-1 $337 $338 $133 #
cone-surface $-1 55.040801755329348 9.4922843712362912 8.8197459462316417 -0.54463904215088732 0 -0.83867056331134215 0.20966764082783554 0 -0.13615976053772183 1 I I -0.70710678118654746 0.70710678118654746 0.25 forward I I I I #
loop $-1 $-1 $339 $91 #
coedge $-1 $214 $214 $340 $341 reversed $134 $-1 #
face $-1 $-1 $342 $72 $-1 $343 forward single #
loop $-1 $344 $345 $136 #
cone-surface $-1 55.040801755329348 11.414582083610231 8.8197459462316417 -0.54463904215088732 0 -0.83867056331134215 0.20966764082783554 0 -0.13615976053772183 1 I I -0.70710678118654746 0.70710678118654746 0.25 forward I I I I #
loop $-1 $-1 $346 $92 #
coedge $-1 $219 $219 $347 $348 reversed $137 $-1 #
face $-1 $-1 $349 $73 $-1 $350 forward single #
loop $-1 $351 $352 $139 #
cone-surface $-1 55.040801755329348 13.336879795984171 8.8197459462316417 -0.54463904215088732 0 -0.83867056331134215 0.20966764082783554 0 -0.13615976053772183 1 I I -0.70710678118654746 0.70710678118654746 0.25 forward I I I I #
loop $-1 $-1 $353 $93 #
coedge $-1 $224 $224 $354 $355 reversed $140 $-1 #
face $-1 $356 $357 $74 $-1 $358 reversed single #
loop $-1 $-1 $359 $142 #
plane-surface $-1 -40.419283172333969 23.113133013339567 72.74950941086621 0.54463904215088732 0 0.83867056331134215 0.83867056331134215 0 -0.54463904215088732 forward_v I I I I #
coedge $-1 $360 $361 $362 $363 reversed $143 $-1 #
face $-1 $-1 $364 $75 $-1 $365 forward single #
loop $-1 $366 $367 $145 #
cone-surface $-1 55.040801755329348 21.190835300965627 8.8197459462316417 -0.54463904215088732 0 -0.83867056331134215 0.20966764082783554 0 -0.13615976053772183 1 I I -0.70710678118654746 0.70710678118654746 0.25 forward I I I I #
loop $-1 $-1 $368 $95 #
coedge $-1 $233 $233 $369 $370 reversed $146 $-1 #
face $-1 $-1 $371 $76 $-1 $372 forward single #
loop $-1 $373 $374 $148 #
cone-surface $-1 55.040801755329348 23.113133013339567 8.8197459462316417 -0.54463904215088732 0 -0.83867056331134215 0.20966764082783554 0 -0.13615976053772183 1 I I -0.70710678118654746 0.70710678118654746 0.25 forward I I I I #
loop $-1 $-1 $375 $96 #
coedge $-1 $238 $238 $376 $377 reversed $149 $-1 #
face $-1 $-1 $378 $77 $-1 $379 forward single #
loop $-1 $380 $381 $151 #
cone-surface $-1 55.040801755329348 25.035430725713507 8.8197459462316417 -0.54463904215088732 0 -0.83867056331134215 0.20966764082783554 0 -0.13615976053772183 1 I I -0.70710678118654746 0.70710678118654746 0.25 forward I I I I #
loop $-1 $-1 $382 $97 #
coedge $-1 $243 $243 $383 $384 reversed $152 $-1 #
face $-1 $385 $386 $78 $-1 $387 reversed single #
loop $-1 $-1 $388 $154 #
plane-surface $-1 -59.673451948606825 -12.217531549798583 6.9766961454120633 -0.61566148304635926 0 0.78801074757464917 0.78801074757464917 0 0.61566148304635926 forward_v I I I I #
coedge $-1 $389 $390 $391 $392 reversed $155 $-1 #
face $-1 $-1 $393 $79 $-1 $394 forward single #
loop $-1 $395 $396 $157 #
cone-surface $-1 -53.264067298546138 -12.217531549798583 6.2122411827869541 0.61566148304635926 0 -0.78801074757464917 0.59100806068098688 0 0.46174611228476947 1 I I -0.70710678118654757 0.70710678118654757 0.75 forward I I I I #
loop $-1 $-1 $397 $99 #
coedge $-1 $252 $252 $398 $399 reversed $158 $-1 #
face $-1 $400 $401 $60 $-1 $402 reversed single #
loop $-1 $-1 $403 $160 #
plane-surface $-1 0 -28.71053002456684 0 0 1 0 0 0 1 forward_v I I I I #
coedge $-1 $404 $405 $406 $407 forward $161 $-1 #
coedge $-1 $408 $163 $409 $410 forward $101 $-1 #
coedge $-1 $163 $408 $411 $412 forward $101 $-1 #
coedge $-1 $413 $414 $163 $260 reversed $415 $-1 #
edge $-1 $416 -28.71053002456684 $417 28.71053002456684 $259 $418 forward 7 unknown #
face $-1 $419 $420 $61 $-1 $421 forward single #
loop $-1 $-1 $422 $164 #
plane-surface $-1 59.673451948606832 0 0 -1 0 0 0 0 1 forward_v I I I I #
coedge $-1 $423 $424 $425 $426 forward $165 $-1 #
coedge $-1 $425 $167 $422 $427 reversed $104 $-1 #
coedge $-1 $167 $425 $428 $429 reversed $104 $-1 #
coedge $-1 $430 $431 $167 $268 reversed $420 $-1 #
edge $-1 $432 -59.673451948606832 $433 59.673451948606832 $267 $434 forward 7 unknown #
face $-1 $435 $436 $62 $-1 $437 reversed single #
loop $-1 $-1 $438 $168 #
plane-surface $-1 24.581700249918477 -15.186349296471679 172.84224453180701 0 1 0 0.54463904215088732 0 0.83867056331134215 forward_v I I I I #
coedge $-1 $439 $440 $441 $442 reversed $169 $-1 #
coedge $-1 $274 $171 $443 $444 reversed $107 $-1 #
coedge $-1 $171 $273 $439 $445 reversed $107 $-1 #
coedge $-1 $441 $446 $171 $276 forward $447 $-1 #
edge $-1 $448 -47.38260182364759 $449 -39.887074980398225 $275 $450 forward 7 unknown #
loop $-1 $-1 $282 $172 #
plane-surface $-1 -40.419283172333969 -11.982519775848445 72.74950941086621 0.54463904215088732 0 0.83867056331134215 0.83867056331134215 0 -0.54463904215088732 forward_v I I I I #
loop $-1 $-1 $451 $109 #
coedge $-1 $280 $280 $281 $452 reversed $173 $-1 #
coedge $-1 $281 $281 $280 $452 forward $175 $-1 #
coedge $-1 $282 $282 $176 $283 forward $277 $-1 #
edge $-1 $453 0 $453 6.2831853071796004 $282 $454 forward 7 unknown #
loop $-1 $-1 $289 $177 #
plane-surface $-1 -40.419283172333969 -11.982519775848445 72.74950941086621 0.54463904215088732 0 0.83867056331134215 0.83867056331134215 0 -0.54463904215088732 forward_v I I I I #
loop $-1 $-1 $455 $112 #
coedge $-1 $287 $287 $288 $456 reversed $178 $-1 #
coedge $-1 $288 $288 $287 $456 forward $180 $-1 #
coedge $-1 $289 $289 $181 $290 forward $284 $-1 #
edge $-1 $457 0 $457 6.2831853071796004 $289 $458 forward 7 unknown #
loop $-1 $-1 $296 $182 #
plane-surface $-1 -40.419283172333969 -11.982519775848445 72.74950941086621 0.54463904215088732 0 0.83867056331134215 0.83867056331134215 0 -0.54463904215088732 forward_v I I I I #
loop $-1 $-1 $459 $115 #
coedge $-1 $294 $294 $295 $460 reversed $183 $-1 #
coedge $-1 $295 $295 $294 $460 forward $185 $-1 #
coedge $-1 $296 $296 $186 $297 forward $291 $-1 #
edge $-1 $461 0 $461 6.2831853071796004 $296 $462 forward 7 unknown #
face $-1 $463 $464 $66 $-1 $465 reversed single #
loop $-1 $-1 $466 $187 #
plane-surface $-1 24.581700249918477 -3.4877983667423393 172.84224453180701 0 1 0 0.54463904215088732 0 0.83867056331134215 forward_v I I I I #
coedge $-1 $467 $468 $469 $470 reversed $188 $-1 #
coedge $-1 $303 $190 $471 $472 reversed $119 $-1 #
coedge $-1 $190 $302 $467 $473 reversed $119 $-1 #
coedge $-1 $469 $474 $190 $305 forward $475 $-1 #
edge $-1 $476 -47.38260182364759 $477 -39.887074980398225 $304 $478 forward 7 unknown #
loop $-1 $-1 $311 $191 #
plane-surface $-1 -40.419283172333969 -0.28396884611910522 72.74950941086621 0.54463904215088732 0 0.83867056331134215 0.83867056331134215 0 -0.54463904215088732 forward_v I I I I #
loop $-1 $-1 $479 $121 #
coedge $-1 $309 $309 $310 $480 reversed $192 $-1 #
coedge $-1 $310 $310 $309 $480 forward $194 $-1 #
coedge $-1 $311 $311 $195 $312 forward $306 $-1 #
edge $-1 $481 0 $481 6.2831853071796004 $311 $482 forward 7 unknown #
loop $-1 $-1 $318 $196 #
plane-surface $-1 -40.419283172333969 -0.28396884611910522 72.74950941086621 0.54463904215088732 0 0.83867056331134215 0.83867056331134215 0 -0.54463904215088732 forward_v I I I I #
loop $-1 $-1 $483 $124 #
coedge $-1 $316 $316 $317 $484 reversed $197 $-1 #
coedge $-1 $317 $317 $316 $484 forward $199 $-1 #
coedge $-1 $318 $318 $200 $319 forward $313 $-1 #
edge $-1 $485 0 $485 6.2831853071796004 $318 $486 forward 7 unknown #
loop $-1 $-1 $325 $201 #
plane-surface $-1 -40.419283172333969 -0.28396884611910522 72.74950941086621 0.54463904215088732 0 0.83867056331134215 0.83867056331134215 0 -0.54463904215088732 forward_v I I I I #
loop $-1 $-1 $487 $127 #
coedge $-1 $323 $323 $324 $488 reversed $202 $-1 #
coedge $-1 $324 $324 $323 $488 forward $204 $-1 #
coedge $-1 $325 $325 $205 $326 forward $320 $-1 #
edge $-1 $489 0 $489 6.2831853071796004 $325 $490 forward 7 unknown #
face $-1 $491 $492 $70 $-1 $493 reversed single #
loop $-1 $-1 $494 $206 #
plane-surface $-1 24.581700249918477 8.2107525629869968 172.84224453180701 0 1 0 0.54463904215088732 0 0.83867056331134215 forward_v I I I I #
coedge $-1 $495 $496 $497 $498 reversed $207 $-1 #
coedge $-1 $332 $209 $499 $500 reversed $131 $-1 #
coedge $-1 $209 $331 $495 $501 reversed $131 $-1 #
coedge $-1 $497 $502 $209 $334 forward $503 $-1 #
edge $-1 $504 -47.38260182364759 $505 -39.887074980398225 $333 $506 forward 7 unknown #
loop $-1 $-1 $340 $210 #
plane-surface $-1 -40.419283172333969 11.414582083610231 72.74950941086621 0.54463904215088732 0 0.83867056331134215 0.83867056331134215 0 -0.54463904215088732 forward_v I I I I #
loop $-1 $-1 $507 $133 #
coedge $-1 $338 $338 $339 $508 reversed $211 $-1 #
coedge $-1 $339 $339 $338 $508 forward $213 $-1 #
coedge $-1 $340 $340 $214 $341 forward $335 $-1 #
edge $-1 $509 0 $509 6.2831853071796004 $340 $510 forward 7 unknown #
loop $-1 $-1 $347 $215 #
plane-surface $-1 -40.419283172333969 11.414582083610231 72.74950941086621 0.54463904215088732 0 0.83867056331134215 0.83867056331134215 0 -0.54463904215088732 forward_v I I I I #
loop $-1 $-1 $511 $136 #
coedge $-1 $345 $345 $346 $512 reversed $216 $-1 #
coedge $-1 $346 $346 $345 $512 forward $218 $-1 #
coedge $-1 $347 $347 $219 $348 forward $342 $-1 #
edge $-1 $513 0 $513 6.2831853071796004 $347 $514 forward 7 unknown #
loop $-1 $-1 $354 $220 #
plane-surface $-1 -40.419283172333969 11.414582083610231 72.74950941086621 0.54463904215088732 0 0.83867056331134215 0.83867056331134215 0 -0.54463904215088732 forward_v I I I I #
loop $-1 $-1 $515 $139 #
coedge $-1 $352 $352 $353 $516 reversed $221 $-1 #
coedge $-1 $353 $353 $352 $516 forward $223 $-1 #
coedge $-1 $354 $354 $224 $355 forward $349 $-1 #
edge $-1 $517 0 $517 6.2831853071796004 $354 $518 forward 7 unknown #
face $-1 $519 $520 $74 $-1 $521 reversed single #
loop $-1 $-1 $522 $225 #
plane-surface $-1 24.581700249918477 19.909303492716333 172.84224453180701 0 1 0 0.54463904215088732 0 0.83867056331134215 forward_v I I I I #
coedge $-1 $523 $524 $525 $526 reversed $226 $-1 #
coedge $-1 $361 $228 $527 $528 reversed $143 $-1 #
coedge $-1 $228 $360 $523 $529 reversed $143 $-1 #
coedge $-1 $525 $530 $228 $363 forward $531 $-1 #
edge $-1 $532 -47.38260182364759 $533 -39.887074980398225 $362 $534 forward 7 unknown #
loop $-1 $-1 $369 $229 #
plane-surface $-1 -40.419283172333969 23.113133013339567 72.74950941086621 0.54463904215088732 0 0.83867056331134215 0.83867056331134215 0 -0.54463904215088732 forward_v I I I I #
loop $-1 $-1 $535 $145 #
coedge $-1 $367 $367 $368 $536 reversed $230 $-1 #
coedge $-1 $368 $368 $367 $536 forward $232 $-1 #
coedge $-1 $369 $369 $233 $370 forward $364 $-1 #
edge $-1 $537 0 $537 6.2831853071796004 $369 $538 forward 7 unknown #
loop $-1 $-1 $376 $234 #
plane-surface $-1 -40.419283172333969 23.113133013339567 72.74950941086621 0.54463904215088732 0 0.83867056331134215 0.83867056331134215 0 -0.54463904215088732 forward_v I I I I #
loop $-1 $-1 $539 $148 #
coedge $-1 $374 $374 $375 $540 reversed $235 $-1 #
coedge $-1 $375 $375 $374 $540 forward $237 $-1 #
coedge $-1 $376 $376 $238 $377 forward $371 $-1 #
edge $-1 $541 0 $541 6.2831853071796004 $376 $542 forward 7 unknown #
loop $-1 $-1 $383 $239 #
plane-surface $-1 -40.419283172333969 23.113133013339567 72.74950941086621 0.54463904215088732 0 0.83867056331134215 0.83867056331134215 0 -0.54463904215088732 forward_v I I I I #
loop $-1 $-1 $543 $151 #
coedge $-1 $381 $381 $382 $544 reversed $240 $-1 #
coedge $-1 $382 $382 $381 $544 forward $242 $-1 #
coedge $-1 $383 $383 $243 $384 forward $378 $-1 #
edge $-1 $545 0 $545 6.2831853071796004 $383 $546 forward 7 unknown #
face $-1 $547 $548 $78 $-1 $549 forward single #
loop $-1 $-1 $550 $244 #
plane-surface $-1 -133.15074379895671 -6.8551463125214518 101.02333910617523 0 -1 0 0.61566148304635926 0 -0.78801074757464917 forward_v I I I I #
coedge $-1 $551 $552 $553 $554 reversed $245 $-1 #
coedge $-1 $390 $247 $555 $556 reversed $155 $-1 #
coedge $-1 $247 $389 $551 $557 reversed $155 $-1 #
coedge $-1 $553 $558 $247 $392 forward $548 $-1 #
edge $-1 $559 6.9019199508715232 $560 14.120127576448866 $391 $561 forward 7 unknown #
loop $-1 $-1 $398 $248 #
plane-surface $-1 -59.673451948606825 -12.217531549798583 6.9766961454120633 -0.61566148304635926 0 0.78801074757464917 0.78801074757464917 0 0.61566148304635926 forward_v I I I I #
loop $-1 $-1 $562 $157 #
coedge $-1 $396 $396 $397 $563 reversed $249 $-1 #
coedge $-1 $397 $397 $396 $563 forward $251 $-1 #
coedge $-1 $398 $398 $252 $399 forward $393 $-1 #
edge $-1 $564 0 $564 6.2831853071796004 $398 $565 forward 7 unknown #
face $-1 $566 $567 $60 $-1 $568 reversed single #
loop $-1 $-1 $569 $253 #
plane-surface $-1 -59.673451948606832 0 0 1 0 0 0 0 -1 forward_v I I I I #
coedge $-1 $411 $570 $413 $571 reversed $254 $-1 #
coedge $-1 $572 $256 $570 $573 forward $161 $-1 #
coedge $-1 $256 $572 $574 $575 forward $161 $-1 #
coedge $-1 $414 $413 $256 $407 reversed $415 $-1 #
edge $-1 $576 -28.71053002456684 $577 28.71053002456684 $406 $578 forward 7 unknown #
coedge $-1 $258 $257 $579 $580 forward $101 $-1 #
coedge $-1 $581 $582 $257 $410 reversed $567 $-1 #
edge $-1 $417 -59.673451948606832 $583 59.673451948606832 $409 $584 forward 7 unknown #
coedge $-1 $585 $403 $258 $412 reversed $254 $-1 #
edge $-1 $586 -59.673451948606832 $416 59.673451948606832 $411 $587 forward 7 unknown #
coedge $-1 $406 $259 $403 $571 forward $415 $-1 #
coedge $-1 $259 $406 $581 $588 reversed $415 $-1 #
loop $-1 $-1 $413 $566 #
vertex $-1 $260 $589 #
vertex $-1 $260 $590 #
straight-curve $-1 59.673451948606832 0 12.616178126307886 0 1 0 I I #
face $-1 $591 $592 $61 $-1 $593 reversed single #
loop $-1 $-1 $431 $261 #
plane-surface $-1 0 -34.275836643312402 -6.5371415967194375 0 0 1 1 0 0 forward_v I I I I #
coedge $-1 $594 $595 $265 $427 forward $262 $-1 #
coedge $-1 $596 $264 $595 $597 forward $165 $-1 #
coedge $-1 $264 $596 $598 $599 forward $165 $-1 #
coedge $-1 $266 $265 $264 $426 reversed $104 $-1 #
edge $-1 $600 -59.673451948606832 $601 59.673451948606832 $264 $602 forward 7 unknown #
edge $-1 $601 -12.616178126307886 $433 -6.5371415967194375 $422 $603 forward 7 unknown #
coedge $-1 $598 $604 $266 $429 forward $605 $-1 #
edge $-1 $432 6.5371415967194375 $600 12.616178126307886 $428 $606 forward 7 unknown #
coedge $-1 $607 $267 $604 $608 forward $420 $-1 #
coedge $-1 $267 $607 $594 $609 forward $420 $-1 #
vertex $-1 $429 $610 #
vertex $-1 $609 $611 #
straight-curve $-1 0 -28.71053002456684 -6.5371415967194375 1 0 0 I I #
face $-1 $-1 $447 $62 $-1 $612 forward single #
loop $-1 $-1 $613 $269 #
plane-surface $-1 59.673451948606832 0 0 -1 0 0 0 0 1 forward_v I I I I #
coedge $-1 $614 $615 $616 $617 reversed $270 $-1 #
coedge $-1 $618 $272 $274 $445 forward $169 $-1 #
coedge $-1 $272 $618 $614 $619 forward $169 $-1 #
coedge $-1 $616 $275 $272 $442 forward $447 $-1 #
edge $-1 $449 2.7874303673009884 $620 9.1950894085474566 $441 $621 forward 7 unknown #
coedge $-1 $622 $623 $273 $444 forward $436 $-1 #
edge $-1 $624 -78.672596277289742 $448 -73.804944139595619 $443 $625 forward 7 unknown #
edge $-1 $449 110.40951277947298 $624 119.34690389721365 $274 $626 forward 7 unknown #
coedge $-1 $275 $616 $622 $627 forward $447 $-1 #
loop $-1 $-1 $616 $435 #
vertex $-1 $444 $628 #
vertex $-1 $276 $629 #
straight-curve $-1 12.290850124959238 -8.7786902552252108 12.616178126307886 -1 0 0 I I #
coedge $-1 $451 $451 $-1 $630 reversed $279 $-1 #
edge $-1 $631 0 $631 6.2831853071796004 $280 $632 forward 7 unknown #
vertex $-1 $283 $633 #
ellipse-curve $-1 55.92568852698215 -13.904817488222385 10.182352057460825 0.54463904215088732 0 0.83867056331134215 0.41933528165567108 0 -0.27231952107544366 1 I I #
coedge $-1 $455 $455 $-1 $634 reversed $286 $-1 #
edge $-1 $635 0 $635 6.2831853071796004 $287 $636 forward 7 unknown #
vertex $-1 $290 $637 #
ellipse-curve $-1 55.92568852698215 -11.982519775848445 10.182352057460825 0.54463904215088732 0 0.83867056331134215 0.41933528165567108 0 -0.27231952107544366 1 I I #
coedge $-1 $459 $459 $-1 $638 reversed $293 $-1 #
edge $-1 $639 0 $639 6.2831853071796004 $294 $640 forward 7 unknown #
vertex $-1 $297 $641 #
ellipse-curve $-1 55.92568852698215 -10.060222063474505 10.182352057460825 0.54463904215088732 0 0.83867056331134215 0.41933528165567108 0 -0.27231952107544366 1 I I #
face $-1 $-1 $475 $66 $-1 $642 forward single #
loop $-1 $-1 $643 $298 #
plane-surface $-1 59.673451948606832 0 0 -1 0 0 0 0 1 forward_v I I I I #
coedge $-1 $644 $645 $646 $647 reversed $299 $-1 #
coedge $-1 $648 $301 $303 $473 forward $188 $-1 #
coedge $-1 $301 $648 $644 $649 forward $188 $-1 #
coedge $-1 $646 $304 $301 $470 forward $475 $-1 #
edge $-1 $477 -3.0618450975636815 $650 3.3458139436827867 $469 $651 forward 7 unknown #
coedge $-1 $652 $653 $302 $472 forward $464 $-1 #
edge $-1 $654 -78.672596277289742 $476 -73.804944139595619 $471 $655 forward 7 unknown #
edge $-1 $477 110.40951277947298 $654 119.34690389721365 $303 $656 forward 7 unknown #
coedge $-1 $304 $646 $652 $657 forward $475 $-1 #
loop $-1 $-1 $646 $463 #
vertex $-1 $472 $658 #
vertex $-1 $305 $659 #
straight-curve $-1 12.290850124959238 2.9198606745041289 12.616178126307886 -1 0 0 I I #
coedge $-1 $479 $479 $-1 $660 reversed $308 $-1 #
edge $-1 $661 0 $661 6.2831853071796004 $309 $662 forward 7 unknown #
vertex $-1 $312 $663 #
ellipse-curve $-1 55.92568852698215 -2.206266558493045 10.182352057460825 0.54463904215088732 0 0.83867056331134215 0.41933528165567108 0 -0.27231952107544366 1 I I #
coedge $-1 $483 $483 $-1 $664 reversed $315 $-1 #
edge $-1 $665 0 $665 6.2831853071796004 $316 $666 forward 7 unknown #
vertex $-1 $319 $667 #
ellipse-curve $-1 55.92568852698215 -0.28396884611910522 10.182352057460825 0.54463904215088732 0 0.83867056331134215 0.41933528165567108 0 -0.27231952107544366 1 I I #
coedge $-1 $487 $487 $-1 $668 reversed $322 $-1 #
edge $-1 $669 0 $669 6.2831853071796004 $323 $670 forward 7 unknown #
vertex $-1 $326 $671 #
ellipse-curve $-1 55.92568852698215 1.6383288662548345 10.182352057460825 0.54463904215088732 0 0.83867056331134215 0.41933528165567108 0 -0.27231952107544366 1 I I #
face $-1 $-1 $503 $70 $-1 $672 forward single #
loop $-1 $-1 $673 $327 #
plane-surface $-1 59.673451948606832 0 0 -1 0 0 0 0 1 forward_v I I I I #
coedge $-1 $674 $675 $676 $677 reversed $328 $-1 #
coedge $-1 $678 $330 $332 $501 forward $207 $-1 #
coedge $-1 $330 $678 $674 $679 forward $207 $-1 #
coedge $-1 $676 $333 $330 $498 forward $503 $-1 #
edge $-1 $505 -8.9111205624283496 $680 -2.5034615211818814 $497 $681 forward 7 unknown #
coedge $-1 $682 $683 $331 $500 forward $492 $-1 #
edge $-1 $684 -78.672596277289742 $504 -73.804944139595619 $499 $685 forward 7 unknown #
edge $-1 $505 110.40951277947298 $684 119.34690389721365 $332 $686 forward 7 unknown #
coedge $-1 $333 $676 $682 $687 forward $503 $-1 #
loop $-1 $-1 $676 $491 #
vertex $-1 $500 $688 #
vertex $-1 $334 $689 #
straight-curve $-1 12.290850124959238 14.618411604233465 12.616178126307886 -1 0 0 I I #
coedge $-1 $507 $507 $-1 $690 reversed $337 $-1 #
edge $-1 $691 0 $691 6.2831853071796004 $338 $692 forward 7 unknown #
vertex $-1 $341 $693 #
ellipse-curve $-1 55.92568852698215 9.4922843712362912 10.182352057460825 0.54463904215088732 0 0.83867056331134215 0.41933528165567108 0 -0.27231952107544366 1 I I #
coedge $-1 $511 $511 $-1 $694 reversed $344 $-1 #
edge $-1 $695 0 $695 6.2831853071796004 $345 $696 forward 7 unknown #
vertex $-1 $348 $697 #
ellipse-curve $-1 55.92568852698215 11.414582083610231 10.182352057460825 0.54463904215088732 0 0.83867056331134215 0.41933528165567108 0 -0.27231952107544366 1 I I #
coedge $-1 $515 $515 $-1 $698 reversed $351 $-1 #
edge $-1 $699 0 $699 6.2831853071796004 $352 $700 forward 7 unknown #
vertex $-1 $355 $701 #
ellipse-curve $-1 55.92568852698215 13.336879795984171 10.182352057460825 0.54463904215088732 0 0.83867056331134215 0.41933528165567108 0 -0.27231952107544366 1 I I #
face $-1 $-1 $531 $74 $-1 $702 forward single #
loop $-1 $-1 $703 $356 #
plane-surface $-1 59.673451948606832 0 0 -1 0 0 0 0 1 forward_v I I I I #
coedge $-1 $704 $705 $706 $707 reversed $357 $-1 #
coedge $-1 $708 $359 $361 $529 forward $226 $-1 #
coedge $-1 $359 $708 $704 $709 forward $226 $-1 #
coedge $-1 $706 $362 $359 $526 forward $531 $-1 #
edge $-1 $533 -14.760396027293018 $710 -8.3527369860465495 $525 $711 forward 7 unknown #
coedge $-1 $712 $713 $360 $528 forward $520 $-1 #
edge $-1 $714 -78.672596277289742 $532 -73.804944139595619 $527 $715 forward 7 unknown #
edge $-1 $533 110.40951277947298 $714 119.34690389721365 $361 $716 forward 7 unknown #
coedge $-1 $362 $706 $712 $717 forward $531 $-1 #
loop $-1 $-1 $706 $519 #
vertex $-1 $528 $718 #
vertex $-1 $363 $719 #
straight-curve $-1 12.290850124959238 26.316962533962801 12.616178126307886 -1 0 0 I I #
coedge $-1 $535 $535 $-1 $720 reversed $366 $-1 #
edge $-1 $721 0 $721 6.2831853071796004 $367 $722 forward 7 unknown #
vertex $-1 $370 $723 #
ellipse-curve $-1 55.92568852698215 21.190835300965627 10.182352057460825 0.54463904215088732 0 0.83867056331134215 0.41933528165567108 0 -0.27231952107544366 1 I I #
coedge $-1 $539 $539 $-1 $724 reversed $373 $-1 #
edge $-1 $725 0 $725 6.2831853071796004 $374 $726 forward 7 unknown #
vertex $-1 $377 $727 #
ellipse-curve $-1 55.92568852698215 23.113133013339567 10.182352057460825 0.54463904215088732 0 0.83867056331134215 0.41933528165567108 0 -0.27231952107544366 1 I I #
coedge $-1 $543 $543 $-1 $728 reversed $380 $-1 #
edge $-1 $729 0 $729 6.2831853071796004 $381 $730 forward 7 unknown #
vertex $-1 $384 $731 #
ellipse-curve $-1 55.92568852698215 25.035430725713507 10.182352057460825 0.54463904215088732 0 0.83867056331134215 0.41933528165567108 0 -0.27231952107544366 1 I I #
face $-1 $-1 $732 $78 $-1 $733 reversed single #
loop $-1 $-1 $391 $385 #
plane-surface $-1 0 0 12.616178126307886 0 0 1 1 0 0 forward_v I I I I #
coedge $-1 $734 $735 $736 $737 reversed $386 $-1 #
coedge $-1 $738 $388 $390 $557 forward $245 $-1 #
coedge $-1 $388 $738 $734 $739 forward $245 $-1 #
coedge $-1 $736 $391 $388 $554 forward $548 $-1 #
edge $-1 $560 -11.471151012176422 $740 -0.74638053762216039 $553 $741 forward 7 unknown #
coedge $-1 $742 $743 $389 $556 forward $732 $-1 #
edge $-1 $744 -43.534973407675558 $559 -37.895491426779728 $555 $745 forward 7 unknown #
edge $-1 $560 -9.1600370271517715 $744 8.8800565823946346e-015 $390 $746 forward 7 unknown #
coedge $-1 $391 $736 $742 $747 forward $548 $-1 #
vertex $-1 $556 $748 #
vertex $-1 $392 $749 #
straight-curve $-1 -66.575371899478355 -17.579916787075714 12.616178126307886 1 0 0 I I #
coedge $-1 $562 $562 $-1 $750 reversed $395 $-1 #
edge $-1 $751 0 $751 6.2831853071796004 $396 $752 forward 7 unknown #
vertex $-1 $399 $753 #
ellipse-curve $-1 -56.064348135818165 -12.217531549798583 9.7964371358599713 -0.61566148304635926 0 0.78801074757464917 1.1820161213619738 0 0.92349222456953894 1 I I #
face $-1 $-1 $415 $60 $-1 $754 reversed single #
loop $-1 $-1 $581 $400 #
plane-surface $-1 0 28.71053002456684 0 0 -1 0 0 0 -1 forward_v I I I I #
coedge $-1 $755 $579 $582 $756 forward $401 $-1 #
coedge $-1 $403 $585 $404 $573 reversed $254 $-1 #
edge $-1 $416 -12.616178126307886 $577 12.616178126307886 $413 $757 forward 7 unknown #
coedge $-1 $405 $404 $755 $758 forward $161 $-1 #
edge $-1 $577 -59.673451948606832 $759 59.673451948606832 $570 $760 forward 7 unknown #
coedge $-1 $582 $581 $405 $575 reversed $567 $-1 #
edge $-1 $761 -59.673451948606832 $576 59.673451948606832 $574 $762 forward 7 unknown #
vertex $-1 $407 $763 #
vertex $-1 $571 $764 #
straight-curve $-1 59.673451948606832 0 -12.616178126307886 0 -1 0 I I #
coedge $-1 $569 $765 $408 $580 reversed $401 $-1 #
edge $-1 $583 -28.71053002456684 $586 28.71053002456684 $579 $766 forward 7 unknown #
coedge $-1 $574 $409 $414 $588 forward $567 $-1 #
coedge $-1 $409 $574 $569 $756 reversed $567 $-1 #
vertex $-1 $410 $767 #
straight-curve $-1 0 28.71053002456684 12.616178126307886 -1 0 0 I I #
coedge $-1 $570 $411 $765 $768 forward $254 $-1 #
vertex $-1 $580 $769 #
straight-curve $-1 0 -28.71053002456684 12.616178126307886 1 0 0 I I #
edge $-1 $417 -12.616178126307886 $576 12.616178126307886 $414 $770 forward 7 unknown #
point $-1 59.673451948606832 -28.71053002456684 12.616178126307886 #
point $-1 59.673451948606832 28.71053002456684 12.616178126307886 #
face $-1 $-1 $605 $61 $-1 $771 reversed single #
loop $-1 $-1 $772 $419 #
plane-surface $-1 0 -39.841143262057969 -9.5766598615136616 0 1 0 0 0 1 forward_v I I I I #
coedge $-1 $773 $422 $431 $609 reversed $262 $-1 #
coedge $-1 $422 $773 $423 $597 reversed $262 $-1 #
coedge $-1 $424 $423 $774 $775 forward $165 $-1 #
edge $-1 $601 28.71053002456684 $776 39.841143262057969 $595 $777 forward 7 unknown #
coedge $-1 $778 $428 $424 $599 reversed $605 $-1 #
edge $-1 $779 -39.841143262057969 $600 -28.71053002456684 $598 $780 forward 7 unknown #
vertex $-1 $429 $781 #
vertex $-1 $597 $782 #
straight-curve $-1 0 -28.71053002456684 -12.616178126307886 1 0 0 I I #
straight-curve $-1 59.673451948606832 -28.71053002456684 0 0 0 1 I I #
coedge $-1 $428 $778 $430 $608 reversed $605 $-1 #
loop $-1 $-1 $428 $591 #
straight-curve $-1 -59.673451948606832 -28.71053002456684 0 0 0 -1 I I #
coedge $-1 $431 $430 $783 $784 forward $420 $-1 #
edge $-1 $432 -5.5653066187455629 $785 5.5653066187455664 $604 $786 forward 7 unknown #
edge $-1 $787 -5.5653066187455664 $433 5.5653066187455629 $594 $788 forward 7 unknown #
point $-1 -59.673451948606832 -28.71053002456684 -6.5371415967194375 #
point $-1 59.673451948606832 -28.71053002456684 -6.5371415967194375 #
plane-surface $-1 0 0 12.616178126307886 0 0 1 1 0 0 forward_v I I I I #
coedge $-1 $623 $622 $615 $789 forward $436 $-1 #
coedge $-1 $615 $438 $440 $619 reversed $270 $-1 #
coedge $-1 $438 $614 $613 $789 reversed $270 $-1 #
coedge $-1 $446 $441 $438 $617 forward $447 $-1 #
edge $-1 $620 39.887074980398225 $790 47.38260182364759 $616 $791 forward 7 unknown #
coedge $-1 $440 $439 $623 $792 reversed $169 $-1 #
edge $-1 $793 -119.34690389721365 $620 -110.40951277947298 $614 $794 forward 7 unknown #
vertex $-1 $442 $795 #
straight-curve $-1 52.177925105357474 -5.9912598879242225 12.616178126307879 0 -1 0 I I #
coedge $-1 $613 $443 $446 $627 reversed $436 $-1 #
coedge $-1 $443 $613 $618 $792 forward $436 $-1 #
vertex $-1 $444 $796 #
straight-curve $-1 59.673451948606832 -8.7786902552252108 86.421122265903506 0 0 1 I I #
straight-curve $-1 -40.419283172333969 -8.7786902552252108 72.74950941086621 0.83867056331134215 0 -0.54463904215088732 I I #
edge $-1 $790 -15.186349296471679 $448 -8.7786902552252108 $622 $797 forward 7 unknown #
point $-1 59.673451948606832 -8.7786902552252108 12.616178126307886 #
point $-1 52.177925105357467 -8.7786902552252108 12.616178126307886 #
edge $-1 $798 1 $798 0 $451 $-1 forward 7 unknown #
vertex $-1 $452 $799 #
ellipse-curve $-1 55.17696151586707 -13.904817488222385 9.0294135870594765 0.54463904215088732 0 0.83867056331134215 0.41933528165567108 0 -0.27231952107544366 1 I I #
point $-1 56.345023808637819 -13.904817488222385 9.9100325363853852 #
edge $-1 $800 1 $800 0 $455 $-1 forward 7 unknown #
vertex $-1 $456 $801 #
ellipse-curve $-1 55.17696151586707 -11.982519775848445 9.0294135870594765 0.54463904215088732 0 0.83867056331134215 0.41933528165567108 0 -0.27231952107544366 1 I I #
point $-1 56.345023808637819 -11.982519775848445 9.9100325363853852 #
edge $-1 $802 1 $802 0 $459 $-1 forward 7 unknown #
vertex $-1 $460 $803 #
ellipse-curve $-1 55.17696151586707 -10.060222063474505 9.0294135870594765 0.54463904215088732 0 0.83867056331134215 0.41933528165567108 0 -0.27231952107544366 1 I I #
point $-1 56.345023808637819 -10.060222063474505 9.9100325363853852 #
plane-surface $-1 0 0 12.616178126307886 0 0 1 1 0 0 forward_v I I I I #
coedge $-1 $653 $652 $645 $804 forward $464 $-1 #
coedge $-1 $645 $466 $468 $649 reversed $299 $-1 #
coedge $-1 $466 $644 $643 $804 reversed $299 $-1 #
coedge $-1 $474 $469 $466 $647 forward $475 $-1 #
edge $-1 $650 39.887074980398225 $805 47.38260182364759 $646 $806 forward 7 unknown #
coedge $-1 $468 $467 $653 $807 reversed $188 $-1 #
edge $-1 $808 -119.34690389721365 $650 -110.40951277947298 $644 $809 forward 7 unknown #
vertex $-1 $470 $810 #
straight-curve $-1 52.177925105357474 -0.14198442305955261 12.616178126307879 0 -1 0 I I #
coedge $-1 $643 $471 $474 $657 reversed $464 $-1 #
coedge $-1 $471 $643 $648 $807 forward $464 $-1 #
vertex $-1 $472 $811 #
straight-curve $-1 59.673451948606832 2.9198606745041289 86.421122265903506 0 0 1 I I #
straight-curve $-1 -40.419283172333969 2.9198606745041289 72.74950941086621 0.83867056331134215 0 -0.54463904215088732 I I #
edge $-1 $805 -3.4877983667423393 $476 2.9198606745041289 $652 $812 forward 7 unknown #
point $-1 59.673451948606832 2.9198606745041289 12.616178126307886 #
point $-1 52.177925105357467 2.9198606745041289 12.616178126307886 #
edge $-1 $813 1 $813 0 $479 $-1 forward 7 unknown #
vertex $-1 $480 $814 #
ellipse-curve $-1 55.17696151586707 -2.206266558493045 9.0294135870594765 0.54463904215088732 0 0.83867056331134215 0.41933528165567108 0 -0.27231952107544366 1 I I #
point $-1 56.345023808637819 -2.206266558493045 9.9100325363853852 #
edge $-1 $815 1 $815 0 $483 $-1 forward 7 unknown #
vertex $-1 $484 $816 #
ellipse-curve $-1 55.17696151586707 -0.28396884611910522 9.0294135870594765 0.54463904215088732 0 0.83867056331134215 0.41933528165567108 0 -0.27231952107544366 1 I I #
point $-1 56.345023808637819 -0.28396884611910522 9.9100325363853852 #
edge $-1 $817 1 $817 0 $487 $-1 forward 7 unknown #
vertex $-1 $488 $818 #
ellipse-curve $-1 55.17696151586707 1.6383288662548345 9.0294135870594765 0.54463904215088732 0 0.83867056331134215 0.41933528165567108 0 -0.27231952107544366 1 I I #
point $-1 56.345023808637819 1.6383288662548345 9.9100325363853852 #
plane-surface $-1 0 0 12.616178126307886 0 0 1 1 0 0 forward_v I I I I #
coedge $-1 $683 $682 $675 $819 forward $492 $-1 #
coedge $-1 $675 $494 $496 $679 reversed $328 $-1 #
coedge $-1 $494 $674 $673 $819 reversed $328 $-1 #
coedge $-1 $502 $497 $494 $677 forward $503 $-1 #
edge $-1 $680 39.887074980398225 $820 47.38260182364759 $676 $821 forward 7 unknown #
coedge $-1 $496 $495 $683 $822 reversed $207 $-1 #
edge $-1 $823 -119.34690389721365 $680 -110.40951277947298 $674 $824 forward 7 unknown #
vertex $-1 $498 $825 #
straight-curve $-1 52.177925105357474 5.7072910418051155 12.616178126307879 0 -1 0 I I #
coedge $-1 $673 $499 $502 $687 reversed $492 $-1 #
coedge $-1 $499 $673 $678 $822 forward $492 $-1 #
vertex $-1 $500 $826 #
straight-curve $-1 59.673451948606832 14.618411604233465 86.421122265903506 0 0 1 I I #
straight-curve $-1 -40.419283172333969 14.618411604233465 72.74950941086621 0.83867056331134215 0 -0.54463904215088732 I I #
edge $-1 $820 8.2107525629869968 $504 14.618411604233465 $682 $827 forward 7 unknown #
point $-1 59.673451948606832 14.618411604233465 12.616178126307886 #
point $-1 52.177925105357467 14.618411604233465 12.616178126307886 #
edge $-1 $828 1 $828 0 $507 $-1 forward 7 unknown #
vertex $-1 $508 $829 #
ellipse-curve $-1 55.17696151586707 9.4922843712362912 9.0294135870594765 0.54463904215088732 0 0.83867056331134215 0.41933528165567108 0 -0.27231952107544366 1 I I #
point $-1 56.345023808637819 9.4922843712362912 9.9100325363853852 #
edge $-1 $830 1 $830 0 $511 $-1 forward 7 unknown #
vertex $-1 $512 $831 #
ellipse-curve $-1 55.17696151586707 11.414582083610231 9.0294135870594765 0.54463904215088732 0 0.83867056331134215 0.41933528165567108 0 -0.27231952107544366 1 I I #
point $-1 56.345023808637819 11.414582083610231 9.9100325363853852 #
edge $-1 $832 1 $832 0 $515 $-1 forward 7 unknown #
vertex $-1 $516 $833 #
ellipse-curve $-1 55.17696151586707 13.336879795984171 9.0294135870594765 0.54463904215088732 0 0.83867056331134215 0.41933528165567108 0 -0.27231952107544366 1 I I #
point $-1 56.345023808637819 13.336879795984171 9.9100325363853852 #
plane-surface $-1 0 0 12.616178126307886 0 0 1 1 0 0 forward_v I I I I #
coedge $-1 $713 $712 $705 $834 forward $520 $-1 #
coedge $-1 $705 $522 $524 $709 reversed $357 $-1 #
coedge $-1 $522 $704 $703 $834 reversed $357 $-1 #
coedge $-1 $530 $525 $522 $707 forward $531 $-1 #
edge $-1 $710 39.887074980398225 $835 47.38260182364759 $706 $836 forward 7 unknown #
coedge $-1 $524 $523 $713 $837 reversed $226 $-1 #
edge $-1 $838 -119.34690389721365 $710 -110.40951277947298 $704 $839 forward 7 unknown #
vertex $-1 $526 $840 #
straight-curve $-1 52.177925105357474 11.556566506669784 12.616178126307879 0 -1 0 I I #
coedge $-1 $703 $527 $530 $717 reversed $520 $-1 #
coedge $-1 $527 $703 $708 $837 forward $520 $-1 #
vertex $-1 $528 $841 #
straight-curve $-1 59.673451948606832 26.316962533962801 86.421122265903506 0 0 1 I I #
straight-curve $-1 -40.419283172333969 26.316962533962801 72.74950941086621 0.83867056331134215 0 -0.54463904215088732 I I #
edge $-1 $835 19.909303492716333 $532 26.316962533962801 $712 $842 forward 7 unknown #
point $-1 59.673451948606832 26.316962533962801 12.616178126307886 #
point $-1 52.177925105357467 26.316962533962801 12.616178126307886 #
edge $-1 $843 1 $843 0 $535 $-1 forward 7 unknown #
vertex $-1 $536 $844 #
ellipse-curve $-1 55.17696151586707 21.190835300965627 9.0294135870594765 0.54463904215088732 0 0.83867056331134215 0.41933528165567108 0 -0.27231952107544366 1 I I #
point $-1 56.345023808637819 21.190835300965627 9.9100325363853852 #
edge $-1 $845 1 $845 0 $539 $-1 forward 7 unknown #
vertex $-1 $540 $846 #
ellipse-curve $-1 55.17696151586707 23.113133013339567 9.0294135870594765 0.54463904215088732 0 0.83867056331134215 0.41933528165567108 0 -0.27231952107544366 1 I I #
point $-1 56.345023808637819 23.113133013339567 9.9100325363853852 #
edge $-1 $847 1 $847 0 $543 $-1 forward 7 unknown #
vertex $-1 $544 $848 #
ellipse-curve $-1 55.17696151586707 25.035430725713507 9.0294135870594765 0.54463904215088732 0 0.83867056331134215 0.41933528165567108 0 -0.27231952107544366 1 I I #
point $-1 56.345023808637819 25.035430725713507 9.9100325363853852 #
loop $-1 $-1 $555 $547 #
plane-surface $-1 -59.673451948606832 0 0 1 0 0 0 0 -1 forward_v I I I I #
coedge $-1 $735 $550 $552 $739 reversed $386 $-1 #
coedge $-1 $550 $734 $849 $850 reversed $386 $-1 #
coedge $-1 $558 $553 $550 $737 forward $548 $-1 #
edge $-1 $740 -14.120127576448866 $851 -6.9019199508715232 $736 $852 forward 7 unknown #
coedge $-1 $552 $551 $743 $853 reversed $245 $-1 #
edge $-1 $854 -8.8800565823946346e-015 $740 9.1600370271517715 $734 $855 forward 7 unknown #
vertex $-1 $554 $856 #
straight-curve $-1 -52.45524432302949 -6.1087657748992914 12.616178126307885 0 1 0 I I #
coedge $-1 $849 $555 $558 $747 reversed $732 $-1 #
coedge $-1 $555 $849 $738 $853 forward $732 $-1 #
vertex $-1 $556 $857 #
straight-curve $-1 -59.673451948606832 -17.579916787075714 50.511669553087614 0 0 1 I I #
straight-curve $-1 -59.673451948606825 -17.579916787075714 6.9766961454120633 -0.78801074757464917 0 -0.61566148304635926 I I #
edge $-1 $851 6.8551463125214518 $559 17.579916787075714 $742 $858 forward 7 unknown #
point $-1 -59.673451948606832 -17.579916787075714 12.616178126307886 #
point $-1 -52.45524432302949 -17.579916787075714 12.616178126307886 #
edge $-1 $859 1 $859 0 $562 $-1 forward 7 unknown #
vertex $-1 $563 $860 #
ellipse-curve $-1 -53.725813410830909 -12.217531549798583 6.803249243467941 -0.61566148304635926 0 0.78801074757464917 1.1820161213619738 0 0.92349222456953894 1 I I #
point $-1 -54.882332014456196 -12.217531549798583 10.719929360429514 #
plane-surface $-1 59.673451948606832 0 0 -1 0 0 0 0 1 forward_v I I I I #
coedge $-1 $765 $569 $572 $758 reversed $401 $-1 #
edge $-1 $583 -12.616178126307886 $761 12.616178126307886 $582 $861 forward 7 unknown #
straight-curve $-1 59.673451948606832 -28.71053002456684 0 0 0 -1 I I #
edge $-1 $759 -28.71053002456684 $761 28.71053002456684 $755 $862 forward 7 unknown #
vertex $-1 $758 $863 #
straight-curve $-1 0 -28.71053002456684 -12.616178126307886 -1 0 0 I I #
vertex $-1 $575 $864 #
straight-curve $-1 0 28.71053002456684 -12.616178126307886 1 0 0 I I #
point $-1 59.673451948606832 28.71053002456684 -12.616178126307886 #
point $-1 59.673451948606832 -28.71053002456684 -12.616178126307886 #
coedge $-1 $579 $755 $585 $768 reversed $401 $-1 #
straight-curve $-1 -59.673451948606832 0 12.616178126307886 0 -1 0 I I #
point $-1 -59.673451948606832 28.71053002456684 12.616178126307886 #
edge $-1 $586 -12.616178126307886 $759 12.616178126307886 $765 $865 forward 7 unknown #
point $-1 -59.673451948606832 -28.71053002456684 12.616178126307886 #
straight-curve $-1 59.673451948606832 28.71053002456684 0 0 0 -1 I I #
plane-surface $-1 -59.673451948606832 0 0 1 0 0 0 0 -1 forward_v I I I I #
coedge $-1 $774 $783 $778 $866 forward $592 $-1 #
coedge $-1 $595 $594 $867 $868 forward $262 $-1 #
coedge $-1 $867 $772 $596 $775 reversed $592 $-1 #
edge $-1 $776 -59.673451948606832 $779 59.673451948606832 $774 $869 forward 7 unknown #
vertex $-1 $868 $870 #
straight-curve $-1 59.673451948606832 0 -12.616178126307886 0 -1 0 I I #
coedge $-1 $604 $598 $772 $866 reversed $605 $-1 #
vertex $-1 $599 $871 #
straight-curve $-1 -59.673451948606832 0 -12.616178126307886 0 1 0 I I #
point $-1 -59.673451948606832 -28.71053002456684 -12.616178126307886 #
point $-1 59.673451948606832 -28.71053002456684 -12.616178126307886 #
coedge $-1 $772 $867 $607 $784 reversed $592 $-1 #
edge $-1 $785 -59.673451948606832 $787 59.673451948606832 $783 $872 forward 7 unknown #
vertex $-1 $608 $873 #
straight-curve $-1 -59.673451948606832 -34.275836643312402 -6.5371415967194375 0 -1 0 I I #
vertex $-1 $609 $874 #
straight-curve $-1 59.673451948606832 -34.275836643312402 -6.5371415967194375 0 1 0 I I #
edge $-1 $790 73.804944139595619 $793 78.672596277289742 $613 $875 forward 7 unknown #
vertex $-1 $627 $876 #
straight-curve $-1 12.290850124959238 -15.186349296471679 12.616178126307886 1 0 0 I I #
edge $-1 $793 -9.1950894085474566 $624 -2.7874303673009884 $623 $877 forward 7 unknown #
vertex $-1 $792 $878 #
straight-curve $-1 -40.419283172333969 -15.186349296471679 72.74950941086621 -0.83867056331134215 0 0.54463904215088732 I I #
point $-1 52.177925105357467 -15.186349296471679 12.616178126307886 #
point $-1 59.673451948606832 -8.7786902552252108 7.7485259886137641 #
straight-curve $-1 59.673451948606832 0 12.616178126307886 0 1 0 I I #
vertex $-1 $630 $879 #
point $-1 55.59629679752274 -13.904817488222385 8.7570940659840328 #
vertex $-1 $634 $880 #
point $-1 55.59629679752274 -11.982519775848445 8.7570940659840328 #
vertex $-1 $638 $881 #
point $-1 55.59629679752274 -10.060222063474505 8.7570940659840328 #
edge $-1 $805 73.804944139595619 $808 78.672596277289742 $643 $882 forward 7 unknown #
vertex $-1 $657 $883 #
straight-curve $-1 12.290850124959238 -3.4877983667423393 12.616178126307886 1 0 0 I I #
edge $-1 $808 -3.3458139436827867 $654 3.0618450975636815 $653 $884 forward 7 unknown #
vertex $-1 $807 $885 #
straight-curve $-1 -40.419283172333969 -3.4877983667423393 72.74950941086621 -0.83867056331134215 0 0.54463904215088732 I I #
point $-1 52.177925105357467 -3.4877983667423393 12.616178126307886 #
point $-1 59.673451948606832 2.9198606745041289 7.7485259886137641 #
straight-curve $-1 59.673451948606832 0 12.616178126307886 0 1 0 I I #
vertex $-1 $660 $886 #
point $-1 55.59629679752274 -2.206266558493045 8.7570940659840328 #
vertex $-1 $664 $887 #
point $-1 55.59629679752274 -0.28396884611910522 8.7570940659840328 #
vertex $-1 $668 $888 #
point $-1 55.59629679752274 1.6383288662548345 8.7570940659840328 #
edge $-1 $820 73.804944139595619 $823 78.672596277289742 $673 $889 forward 7 unknown #
vertex $-1 $687 $890 #
straight-curve $-1 12.290850124959238 8.2107525629869968 12.616178126307886 1 0 0 I I #
edge $-1 $823 2.5034615211818814 $684 8.9111205624283496 $683 $891 forward 7 unknown #
vertex $-1 $822 $892 #
straight-curve $-1 -40.419283172333969 8.2107525629869968 72.74950941086621 -0.83867056331134215 0 0.54463904215088732 I I #
point $-1 52.177925105357467 8.2107525629869968 12.616178126307886 #
point $-1 59.673451948606832 14.618411604233465 7.7485259886137641 #
straight-curve $-1 59.673451948606832 0 12.616178126307886 0 1 0 I I #
vertex $-1 $690 $893 #
point $-1 55.59629679752274 9.4922843712362912 8.7570940659840328 #
vertex $-1 $694 $894 #
point $-1 55.59629679752274 11.414582083610231 8.7570940659840328 #
vertex $-1 $698 $895 #
point $-1 55.59629679752274 13.336879795984171 8.7570940659840328 #
edge $-1 $835 73.804944139595619 $838 78.672596277289742 $703 $896 forward 7 unknown #
vertex $-1 $717 $897 #
straight-curve $-1 12.290850124959238 19.909303492716333 12.616178126307886 1 0 0 I I #
edge $-1 $838 8.3527369860465495 $714 14.760396027293018 $713 $898 forward 7 unknown #
vertex $-1 $837 $899 #
straight-curve $-1 -40.419283172333969 19.909303492716333 72.74950941086621 -0.83867056331134215 0 0.54463904215088732 I I #
point $-1 52.177925105357467 19.909303492716333 12.616178126307886 #
point $-1 59.673451948606832 26.316962533962801 7.7485259886137641 #
straight-curve $-1 59.673451948606832 0 12.616178126307886 0 1 0 I I #
vertex $-1 $720 $900 #
point $-1 55.59629679752274 21.190835300965627 8.7570940659840328 #
vertex $-1 $724 $901 #
point $-1 55.59629679752274 23.113133013339567 8.7570940659840328 #
vertex $-1 $728 $902 #
point $-1 55.59629679752274 25.035430725713507 8.7570940659840328 #
coedge $-1 $743 $742 $735 $850 forward $732 $-1 #
edge $-1 $851 37.895491426779728 $854 43.534973407675558 $849 $903 forward 7 unknown #
vertex $-1 $747 $904 #
straight-curve $-1 -66.575371899478355 -6.8551463125214518 12.616178126307886 -1 0 0 I I #
edge $-1 $854 0.74638053762216039 $744 11.471151012176422 $743 $905 forward 7 unknown #
vertex $-1 $853 $906 #
straight-curve $-1 -59.673451948606825 -6.8551463125214518 6.9766961454120633 0.78801074757464917 0 0.61566148304635926 I I #
point $-1 -52.45524432302949 -6.8551463125214518 12.616178126307886 #
point $-1 -59.673451948606832 -17.579916787075714 6.976696145412058 #
straight-curve $-1 -59.673451948606832 0 12.616178126307886 0 -1 0 I I #
vertex $-1 $750 $907 #
point $-1 -52.543797289468934 -12.217531549798583 7.7267414680374795 #
straight-curve $-1 -59.673451948606832 28.71053002456684 0 0 0 -1 I I #
straight-curve $-1 -59.673451948606832 0 -12.616178126307886 0 1 0 I I #
point $-1 -59.673451948606832 -28.71053002456684 -12.616178126307886 #
point $-1 -59.673451948606832 28.71053002456684 -12.616178126307886 #
straight-curve $-1 -59.673451948606832 -28.71053002456684 0 0 0 -1 I I #
edge $-1 $785 -3.039518264794224 $779 3.0395182647942249 $778 $908 forward 7 unknown #
coedge $-1 $783 $774 $773 $868 reversed $592 $-1 #
edge $-1 $787 -3.039518264794224 $776 3.0395182647942249 $773 $909 forward 7 unknown #
straight-curve $-1 0 -39.841143262057969 -12.616178126307886 -1 0 0 I I #
point $-1 59.673451948606832 -39.841143262057969 -12.616178126307886 #
point $-1 -59.673451948606832 -39.841143262057969 -12.616178126307886 #
straight-curve $-1 0 -39.841143262057969 -6.5371415967194375 1 0 0 I I #
point $-1 -59.673451948606832 -39.841143262057969 -6.5371415967194375 #
point $-1 59.673451948606832 -39.841143262057969 -6.5371415967194375 #
straight-curve $-1 59.673451948606832 -15.186349296471679 86.421122265903506 0 0 -1 I I #
point $-1 59.673451948606832 -15.186349296471679 12.616178126307886 #
straight-curve $-1 59.673451948606832 -5.9912598879242225 7.748525988613757 0 1 0 I I #
point $-1 59.673451948606832 -15.186349296471679 7.7485259886137641 #
point $-1 54.904641994791625 -13.904817488222385 8.6100783054038068 #
point $-1 54.904641994791625 -11.982519775848445 8.6100783054038068 #
point $-1 54.904641994791625 -10.060222063474505 8.6100783054038068 #
straight-curve $-1 59.673451948606832 -3.4877983667423393 86.421122265903506 0 0 -1 I I #
point $-1 59.673451948606832 -3.4877983667423393 12.616178126307886 #
straight-curve $-1 59.673451948606832 -0.14198442305955261 7.748525988613757 0 1 0 I I #
point $-1 59.673451948606832 -3.4877983667423393 7.7485259886137641 #
point $-1 54.904641994791625 -2.206266558493045 8.6100783054038068 #
point $-1 54.904641994791625 -0.28396884611910522 8.6100783054038068 #
point $-1 54.904641994791625 1.6383288662548345 8.6100783054038068 #
straight-curve $-1 59.673451948606832 8.2107525629869968 86.421122265903506 0 0 -1 I I #
point $-1 59.673451948606832 8.2107525629869968 12.616178126307886 #
straight-curve $-1 59.673451948606832 5.7072910418051155 7.748525988613757 0 1 0 I I #
point $-1 59.673451948606832 8.2107525629869968 7.7485259886137641 #
point $-1 54.904641994791625 9.4922843712362912 8.6100783054038068 #
point $-1 54.904641994791625 11.414582083610231 8.6100783054038068 #
point $-1 54.904641994791625 13.336879795984171 8.6100783054038068 #
straight-curve $-1 59.673451948606832 19.909303492716333 86.421122265903506 0 0 -1 I I #
point $-1 59.673451948606832 19.909303492716333 12.616178126307886 #
straight-curve $-1 59.673451948606832 11.556566506669784 7.748525988613757 0 1 0 I I #
point $-1 59.673451948606832 19.909303492716333 7.7485259886137641 #
point $-1 54.904641994791625 21.190835300965627 8.6100783054038068 #
point $-1 54.904641994791625 23.113133013339567 8.6100783054038068 #
point $-1 54.904641994791625 25.035430725713507 8.6100783054038068 #
straight-curve $-1 -59.673451948606832 -6.8551463125214518 50.511669553087614 0 0 -1 I I #
point $-1 -59.673451948606832 -6.8551463125214518 12.616178126307886 #
straight-curve $-1 -59.673451948606832 -6.1087657748992914 6.9766961454120553 0 -1 0 I I #
point $-1 -59.673451948606832 -6.8551463125214518 6.976696145412058 #
point $-1 -52.802321186261366 -12.217531549798583 5.6212331221059673 #
straight-curve $-1 -59.673451948606832 -39.841143262057969 -9.5766598615136616 0 0 -1 I I #
straight-curve $-1 59.673451948606832 -39.841143262057969 -9.5766598615136616 0 0 -1 I I #
End-of-ACIS-data 