500 0 9 0           
7 Unknown 11 ACIS 5.0 NT 24 Thu Mar 25 15:54:21 1999 
-1 9.9999999999999995e-007 1e-010 
body $-1 $9 $-1 $10 #
body $-1 $11 $-1 $12 #
body $-1 $13 $-1 $14 #
body $-1 $15 $-1 $16 #
body $-1 $17 $-1 $18 #
body $-1 $19 $-1 $20 #
body $-1 $21 $-1 $22 #
body $-1 $23 $-1 $24 #
body $-1 $25 $-1 $26 #
lump $-1 $-1 $27 $0 #
transform $-1 1 0 0 0 1 0 0 0 1 46.414990691854612 23.512896267377659 7.2961951557189417 1 rotate no_reflect no_shear #
lump $-1 $-1 $28 $1 #
transform $-1 1 0 0 0 1 0 0 0 1 46.414990691854612 23.512896267377659 7.2961951557189417 1 rotate no_reflect no_shear #
lump $-1 $-1 $29 $2 #
transform $-1 1 0 0 0 1 0 0 0 1 46.414990691854612 23.512896267377659 7.2961951557189417 1 rotate no_reflect no_shear #
lump $-1 $-1 $30 $3 #
transform $-1 1 0 0 0 1 0 0 0 1 46.414990691854612 23.512896267377659 7.2961951557189417 1 rotate no_reflect no_shear #
lump $-1 $-1 $31 $4 #
transform $-1 1 0 0 0 1 0 0 0 1 46.414990691854612 23.512896267377659 7.2961951557189417 1 rotate no_reflect no_shear #
lump $-1 $-1 $32 $5 #
transform $-1 1 0 0 0 1 0 0 0 1 46.414990691854612 23.512896267377659 7.2961951557189417 1 rotate no_reflect no_shear #
lump $-1 $-1 $33 $6 #
transform $-1 1 0 0 0 1 0 0 0 1 46.414990691854612 23.512896267377659 7.2961951557189417 1 rotate no_reflect no_shear #
lump $-1 $-1 $34 $7 #
transform $-1 1 0 0 0 1 0 0 0 1 46.414990691854612 23.512896267377659 7.2961951557189417 1 rotate no_reflect no_shear #
lump $-1 $-1 $35 $8 #
transform $-1 1 0 0 0 1 0 0 0 1 46.414990691854612 23.512896267377659 7.2961951557189417 1 rotate no_reflect no_shear #
shell $-1 $-1 $-1 $36 $-1 $9 #
shell $-1 $-1 $-1 $37 $-1 $11 #
shell $-1 $-1 $-1 $38 $-1 $13 #
shell $-1 $-1 $-1 $39 $-1 $15 #
shell $-1 $-1 $-1 $40 $-1 $17 #
shell $-1 $-1 $-1 $41 $-1 $19 #
shell $-1 $-1 $-1 $42 $-1 $21 #
shell $-1 $-1 $-1 $43 $-1 $23 #
shell $-1 $-1 $-1 $44 $-1 $25 #
face $-1 $45 $46 $27 $-1 $47 forward single #
face $-1 $48 $49 $28 $-1 $50 forward single #
face $-1 $51 $52 $29 $-1 $53 reversed single #
face $-1 $54 $55 $30 $-1 $56 reversed single #
face $-1 $57 $58 $31 $-1 $59 forward single #
face $-1 $60 $61 $32 $-1 $62 forward single #
face $-1 $63 $64 $33 $-1 $65 reversed single #
face $-1 $66 $67 $34 $-1 $68 forward single #
face $-1 $69 $70 $35 $-1 $71 forward single #
face $-1 $72 $73 $27 $-1 $74 reversed single #
loop $-1 $-1 $75 $36 #
plane-surface $-1 0 0 7.2961951557189417 0 0 1 1 0 0 forward_v I I I I #
face $-1 $76 $77 $28 $-1 $78 reversed single #
loop $-1 $-1 $79 $37 #
plane-surface $-1 -42.235110552430427 0 -3.1545962709464215 0 0 1 1 0 0 forward_v I I I I #
face $-1 $80 $81 $29 $-1 $82 reversed single #
loop $-1 $-1 $83 $38 #
plane-surface $-1 42.625219962109824 -16.430524928998345 0 0 1 0 0 0 1 forward_v I I I I #
face $-1 $84 $85 $30 $-1 $86 reversed single #
loop $-1 $-1 $87 $39 #
plane-surface $-1 -38.055230413006235 80.393123459198577 88.238858339831737 1 0 0 0 -0.86602541151947299 -0.49999998660252726 forward_v I I I I #
face $-1 $88 $89 $31 $-1 $90 forward single #
loop $-1 $91 $92 $40 #
cone-surface $-1 -34.209037057133372 21.199335199968534 3.8945074925769694 0 -0.86602541151947299 -0.49999998660252726 1 0 0 1 I I 0 1 1 forward I I I I #
face $-1 $93 $94 $32 $-1 $95 forward single #
loop $-1 $96 $97 $41 #
cone-surface $-1 -28.439747023324077 21.199335199968534 3.8945074925769694 0 -0.86602541151947299 -0.49999998660252726 1 0 0 1 I I 0 1 1 forward I I I I #
face $-1 $98 $99 $33 $-1 $100 reversed single #
loop $-1 $-1 $101 $42 #
plane-surface $-1 25.373772486810012 80.393123459198577 88.238858339831737 1 0 0 0 -0.86602541151947299 -0.49999998660252726 forward_v I I I I #
face $-1 $102 $103 $34 $-1 $104 forward single #
loop $-1 $105 $106 $43 #
cone-surface $-1 29.219965842682868 21.199335199968534 3.8945074925769694 0 -0.86602541151947299 -0.49999998660252726 1 0 0 1 I I 0 1 1 forward I I I I #
face $-1 $107 $108 $35 $-1 $109 forward single #
loop $-1 $110 $111 $44 #
cone-surface $-1 34.989255876492166 21.199335199968534 3.8945074925769694 0 -0.86602541151947299 -0.49999998660252726 1 0 0 1 I I 0 1 1 forward I I I I #
face $-1 $112 $113 $27 $-1 $114 reversed single #
loop $-1 $-1 $115 $45 #
plane-surface $-1 0 0 -7.2961951557189417 0 0 1 1 0 0 forward_v I I I I #
coedge $-1 $116 $117 $118 $119 forward $46 $-1 #
face $-1 $120 $121 $28 $-1 $122 reversed single #
loop $-1 $-1 $123 $48 #
plane-surface $-1 -38.055230413006242 0 -5.2253957133326816 -1 0 0 0 0 1 forward_v I I I I #
coedge $-1 $124 $125 $126 $127 forward $49 $-1 #
face $-1 $128 $129 $29 $-1 $130 reversed single #
loop $-1 $-1 $131 $51 #
plane-surface $-1 38.835449232365036 -14.930524928998345 0 1 0 0 0 0 -1 forward_v I I I I #
coedge $-1 $132 $133 $134 $135 forward $52 $-1 #
face $-1 $136 $137 $30 $-1 $138 reversed single #
loop $-1 $-1 $139 $54 #
plane-surface $-1 -31.324392040228727 6.3002677563872567e-007 41.823868891664269 0 0.86602541151947299 0.49999998660252726 1 0 0 forward_v I I I I #
coedge $-1 $140 $141 $142 $143 reversed $55 $-1 #
face $-1 $-1 $144 $31 $-1 $145 forward single #
loop $-1 $146 $147 $57 #
cone-surface $-1 -34.209037057133372 20.241928738602308 3.3417486341314833 0 -0.86602541151947299 -0.49999998660252726 0.5 0 0 1 I I -0.70710678118654746 0.70710678118654746 0.5 forward I I I I #
loop $-1 $-1 $148 $40 #
coedge $-1 $92 $92 $149 $150 reversed $58 $-1 #
face $-1 $-1 $151 $32 $-1 $152 forward single #
loop $-1 $153 $154 $60 #
cone-surface $-1 -28.439747023324077 20.241928738602308 3.3417486341314833 0 -0.86602541151947299 -0.49999998660252726 0.5 0 0 1 I I -0.70710678118654746 0.70710678118654746 0.5 forward I I I I #
loop $-1 $-1 $155 $41 #
coedge $-1 $97 $97 $156 $157 reversed $61 $-1 #
face $-1 $158 $159 $33 $-1 $160 reversed single #
loop $-1 $-1 $161 $63 #
plane-surface $-1 32.104610859587524 6.3002677563872567e-007 41.823868891664269 0 0.86602541151947299 0.49999998660252726 1 0 0 forward_v I I I I #
coedge $-1 $162 $163 $164 $165 reversed $64 $-1 #
face $-1 $-1 $166 $34 $-1 $167 forward single #
loop $-1 $168 $169 $66 #
cone-surface $-1 29.219965842682868 20.241928738602308 3.3417486341314833 0 -0.86602541151947299 -0.49999998660252726 0.5 0 0 1 I I -0.70710678118654746 0.70710678118654746 0.5 forward I I I I #
loop $-1 $-1 $170 $43 #
coedge $-1 $106 $106 $171 $172 reversed $67 $-1 #
face $-1 $-1 $173 $35 $-1 $174 forward single #
loop $-1 $175 $176 $69 #
cone-surface $-1 34.989255876492166 20.241928738602308 3.3417486341314833 0 -0.86602541151947299 -0.49999998660252726 0.5 0 0 1 I I -0.70710678118654746 0.70710678118654746 0.5 forward I I I I #
loop $-1 $-1 $177 $44 #
coedge $-1 $111 $111 $178 $179 reversed $70 $-1 #
face $-1 $180 $181 $27 $-1 $182 reversed single #
loop $-1 $-1 $183 $72 #
plane-surface $-1 0 -23.512896267377659 0 0 1 0 0 0 1 forward_v I I I I #
coedge $-1 $184 $185 $186 $187 forward $73 $-1 #
coedge $-1 $188 $75 $189 $190 forward $46 $-1 #
coedge $-1 $75 $188 $191 $192 forward $46 $-1 #
coedge $-1 $193 $194 $75 $119 reversed $195 $-1 #
edge $-1 $196 -23.512896267377659 $197 23.512896267377659 $118 $198 forward 7 unknown #
face $-1 $199 $200 $28 $-1 $201 reversed single #
loop $-1 $-1 $202 $76 #
plane-surface $-1 0 0 -7.2961951557189417 0 0 1 1 0 0 forward_v I I I I #
coedge $-1 $203 $126 $204 $205 reversed $77 $-1 #
coedge $-1 $206 $79 $207 $208 reversed $49 $-1 #
coedge $-1 $79 $206 $209 $210 reversed $49 $-1 #
coedge $-1 $123 $211 $79 $127 reversed $77 $-1 #
edge $-1 $212 -23.512896267377659 $213 23.512896267377659 $126 $214 forward 7 unknown #
face $-1 $215 $216 $29 $-1 $217 reversed single #
loop $-1 $-1 $218 $80 #
plane-surface $-1 42.625219962109824 -13.430524928998345 0 0 -1 0 0 0 -1 forward_v I I I I #
coedge $-1 $219 $220 $221 $222 forward $81 $-1 #
coedge $-1 $223 $83 $224 $225 reversed $52 $-1 #
coedge $-1 $83 $223 $226 $227 reversed $52 $-1 #
coedge $-1 $220 $219 $83 $135 reversed $81 $-1 #
edge $-1 $228 -7.2961951557189417 $229 7.2961951557189417 $134 $230 forward 7 unknown #
face $-1 $231 $232 $30 $-1 $233 reversed single #
loop $-1 $-1 $234 $84 #
plane-surface $-1 -24.593553667451214 80.393123459198577 88.238858339831737 -1 0 0 0 0.86602541151947299 0.49999998660252726 forward_v I I I I #
coedge $-1 $235 $236 $237 $238 reversed $85 $-1 #
coedge $-1 $141 $87 $239 $240 reversed $55 $-1 #
coedge $-1 $87 $140 $235 $241 reversed $55 $-1 #
coedge $-1 $237 $242 $87 $143 forward $243 $-1 #
edge $-1 $244 16.683665462221629 $245 20.262000085826887 $142 $246 forward 7 unknown #
loop $-1 $-1 $149 $88 #
plane-surface $-1 -31.324392040228727 6.3002677563872567e-007 41.823868891664269 0 0.86602541151947299 0.49999998660252726 1 0 0 forward_v I I I I #
loop $-1 $-1 $247 $57 #
coedge $-1 $147 $147 $148 $248 reversed $89 $-1 #
coedge $-1 $148 $148 $147 $248 forward $91 $-1 #
coedge $-1 $149 $149 $92 $150 forward $144 $-1 #
edge $-1 $249 0 $249 6.2831853071796004 $149 $250 forward 7 unknown #
loop $-1 $-1 $156 $93 #
plane-surface $-1 -31.324392040228727 6.3002677563872567e-007 41.823868891664269 0 0.86602541151947299 0.49999998660252726 1 0 0 forward_v I I I I #
loop $-1 $-1 $251 $60 #
coedge $-1 $154 $154 $155 $252 reversed $94 $-1 #
coedge $-1 $155 $155 $154 $252 forward $96 $-1 #
coedge $-1 $156 $156 $97 $157 forward $151 $-1 #
edge $-1 $253 0 $253 6.2831853071796004 $156 $254 forward 7 unknown #
face $-1 $255 $256 $33 $-1 $257 forward single #
loop $-1 $-1 $258 $98 #
plane-surface $-1 38.835449232365036 80.393123459198577 88.238858339831737 -1 0 0 0 0.86602541151947299 0.49999998660252726 forward_v I I I I #
coedge $-1 $259 $260 $261 $262 reversed $99 $-1 #
coedge $-1 $163 $101 $263 $264 reversed $64 $-1 #
coedge $-1 $101 $162 $259 $265 reversed $64 $-1 #
coedge $-1 $261 $266 $101 $165 forward $256 $-1 #
edge $-1 $267 16.683665462221629 $268 20.262000085826887 $164 $269 forward 7 unknown #
loop $-1 $-1 $171 $102 #
plane-surface $-1 32.104610859587524 6.3002677563872567e-007 41.823868891664269 0 0.86602541151947299 0.49999998660252726 1 0 0 forward_v I I I I #
loop $-1 $-1 $270 $66 #
coedge $-1 $169 $169 $170 $271 reversed $103 $-1 #
coedge $-1 $170 $170 $169 $271 forward $105 $-1 #
coedge $-1 $171 $171 $106 $172 forward $166 $-1 #
edge $-1 $272 0 $272 6.2831853071796004 $171 $273 forward 7 unknown #
loop $-1 $-1 $178 $107 #
plane-surface $-1 32.104610859587524 6.3002677563872567e-007 41.823868891664269 0 0.86602541151947299 0.49999998660252726 1 0 0 forward_v I I I I #
loop $-1 $-1 $274 $69 #
coedge $-1 $176 $176 $177 $275 reversed $108 $-1 #
coedge $-1 $177 $177 $176 $275 forward $110 $-1 #
coedge $-1 $178 $178 $111 $179 forward $173 $-1 #
edge $-1 $276 0 $276 6.2831853071796004 $178 $277 forward 7 unknown #
face $-1 $278 $279 $27 $-1 $280 reversed single #
loop $-1 $-1 $281 $112 #
plane-surface $-1 -46.414990691854612 0 0 1 0 0 0 0 -1 forward_v I I I I #
coedge $-1 $282 $191 $283 $284 forward $113 $-1 #
coedge $-1 $285 $115 $282 $286 forward $73 $-1 #
coedge $-1 $115 $285 $287 $288 forward $73 $-1 #
coedge $-1 $194 $193 $115 $187 reversed $195 $-1 #
edge $-1 $289 -23.512896267377659 $290 23.512896267377659 $186 $291 forward 7 unknown #
coedge $-1 $117 $116 $292 $293 forward $46 $-1 #
coedge $-1 $294 $295 $116 $190 reversed $279 $-1 #
edge $-1 $197 -46.414990691854612 $296 46.414990691854612 $189 $297 forward 7 unknown #
coedge $-1 $183 $298 $117 $192 reversed $113 $-1 #
edge $-1 $299 -46.414990691854612 $196 46.414990691854612 $191 $300 forward 7 unknown #
coedge $-1 $186 $118 $298 $301 forward $195 $-1 #
coedge $-1 $118 $186 $294 $302 reversed $195 $-1 #
loop $-1 $-1 $193 $278 #
vertex $-1 $119 $303 #
vertex $-1 $119 $304 #
straight-curve $-1 46.414990691854612 0 7.2961951557189417 0 1 0 I I #
face $-1 $305 $306 $28 $-1 $307 reversed single #
loop $-1 $-1 $204 $120 #
plane-surface $-1 0 -23.512896267377659 0 0 1 0 0 0 1 forward_v I I I I #
coedge $-1 $308 $309 $203 $310 forward $121 $-1 #
coedge $-1 $211 $123 $202 $310 reversed $77 $-1 #
coedge $-1 $209 $311 $123 $205 forward $200 $-1 #
edge $-1 $312 -4.6834972990526005 $212 -0.54189841428008068 $204 $313 forward 7 unknown #
coedge $-1 $125 $124 $314 $315 reversed $49 $-1 #
coedge $-1 $316 $317 $124 $208 forward $318 $-1 #
edge $-1 $319 -25.297435415639399 $213 -16.937675136791029 $207 $320 forward 7 unknown #
coedge $-1 $321 $204 $125 $210 forward $200 $-1 #
edge $-1 $212 16.937675136791029 $322 25.297435415639399 $209 $323 forward 7 unknown #
coedge $-1 $126 $203 $316 $324 reversed $77 $-1 #
vertex $-1 $210 $325 #
vertex $-1 $208 $326 #
straight-curve $-1 -38.055230413006242 0 -3.1545962709464215 0 1 0 I I #
face $-1 $327 $328 $29 $-1 $329 forward single #
loop $-1 $-1 $224 $128 #
plane-surface $-1 0 0 -7.2961951557189417 0 0 1 1 0 0 forward_v I I I I #
coedge $-1 $330 $331 $332 $333 reversed $129 $-1 #
coedge $-1 $134 $131 $334 $335 reversed $81 $-1 #
coedge $-1 $131 $134 $336 $337 reversed $81 $-1 #
coedge $-1 $331 $330 $131 $222 reversed $129 $-1 #
edge $-1 $338 -7.2961951557189417 $339 7.2961951557189417 $221 $340 forward 7 unknown #
coedge $-1 $133 $132 $341 $342 reversed $52 $-1 #
coedge $-1 $334 $343 $132 $225 forward $216 $-1 #
edge $-1 $344 -25.1023807107997 $229 -17.522839251310124 $224 $345 forward 7 unknown #
coedge $-1 $346 $336 $133 $227 forward $328 $-1 #
edge $-1 $228 17.522839251310124 $347 25.1023807107997 $226 $348 forward 7 unknown #
vertex $-1 $227 $349 #
vertex $-1 $225 $350 #
straight-curve $-1 38.835449232365036 -16.430524928998345 0 0 0 -1 I I #
face $-1 $-1 $243 $30 $-1 $351 forward single #
loop $-1 $-1 $352 $136 #
plane-surface $-1 0 23.512896267377659 0 0 -1 0 0 0 -1 forward_v I I I I #
coedge $-1 $353 $354 $355 $356 reversed $137 $-1 #
coedge $-1 $357 $139 $141 $241 forward $85 $-1 #
coedge $-1 $139 $357 $353 $358 forward $85 $-1 #
coedge $-1 $355 $142 $139 $238 forward $243 $-1 #
edge $-1 $245 -22.39303439289187 $359 -8.931357647336851 $237 $360 forward 7 unknown #
coedge $-1 $361 $362 $140 $240 forward $232 $-1 #
edge $-1 $363 -43.021091610192428 $244 -36.823234014196927 $239 $364 forward 7 unknown #
edge $-1 $245 39.869123095782228 $363 47.025792534755311 $141 $365 forward 7 unknown #
coedge $-1 $142 $355 $361 $366 forward $243 $-1 #
loop $-1 $-1 $355 $231 #
vertex $-1 $240 $367 #
vertex $-1 $143 $368 #
straight-curve $-1 -38.055230413006235 40.196561729599289 7.2961951557189408 0 -1 0 I I #
coedge $-1 $247 $247 $-1 $369 reversed $146 $-1 #
edge $-1 $370 0 $370 6.2831853071796004 $147 $371 forward 7 unknown #
vertex $-1 $150 $372 #
ellipse-curve $-1 -34.209037057133372 21.723728955575023 4.1972663577211922 0 0.86602541151947299 0.49999998660252726 1 0 0 1 I I #
coedge $-1 $251 $251 $-1 $373 reversed $153 $-1 #
edge $-1 $374 0 $374 6.2831853071796004 $154 $375 forward 7 unknown #
vertex $-1 $157 $376 #
ellipse-curve $-1 -28.439747023324077 21.723728955575023 4.1972663577211922 0 0.86602541151947299 0.49999998660252726 1 0 0 1 I I #
face $-1 $-1 $377 $33 $-1 $378 reversed single #
loop $-1 $-1 $164 $158 #
plane-surface $-1 0 0 7.2961951557189417 0 0 1 1 0 0 forward_v I I I I #
coedge $-1 $379 $380 $381 $382 reversed $159 $-1 #
coedge $-1 $383 $161 $163 $265 forward $99 $-1 #
coedge $-1 $161 $383 $379 $384 forward $99 $-1 #
coedge $-1 $381 $164 $161 $262 forward $256 $-1 #
edge $-1 $268 9.3214670570162497 $385 22.783143802571274 $261 $386 forward 7 unknown #
coedge $-1 $387 $388 $162 $264 forward $377 $-1 #
edge $-1 $389 -43.021091610192428 $267 -36.823234014196927 $263 $390 forward 7 unknown #
edge $-1 $268 39.869123095782228 $389 47.025792534755311 $163 $391 forward 7 unknown #
coedge $-1 $164 $381 $387 $392 forward $256 $-1 #
vertex $-1 $264 $393 #
vertex $-1 $165 $394 #
straight-curve $-1 25.373772486810012 40.196561729599289 7.2961951557189408 0 -1 0 I I #
coedge $-1 $270 $270 $-1 $395 reversed $168 $-1 #
edge $-1 $396 0 $396 6.2831853071796004 $169 $397 forward 7 unknown #
vertex $-1 $172 $398 #
ellipse-curve $-1 29.219965842682868 21.723728955575023 4.1972663577211922 0 0.86602541151947299 0.49999998660252726 1 0 0 1 I I #
coedge $-1 $274 $274 $-1 $399 reversed $175 $-1 #
edge $-1 $400 0 $400 6.2831853071796004 $176 $401 forward 7 unknown #
vertex $-1 $179 $402 #
ellipse-curve $-1 34.989255876492166 21.723728955575023 4.1972663577211922 0 0.86602541151947299 0.49999998660252726 1 0 0 1 I I #
face $-1 $-1 $195 $27 $-1 $403 reversed single #
loop $-1 $-1 $294 $180 #
plane-surface $-1 0 23.512896267377659 0 0 -1 0 0 0 -1 forward_v I I I I #
coedge $-1 $404 $292 $295 $405 forward $181 $-1 #
coedge $-1 $298 $183 $184 $286 reversed $113 $-1 #
coedge $-1 $292 $404 $183 $284 reversed $181 $-1 #
edge $-1 $299 -7.2961951557189417 $406 7.2961951557189417 $283 $407 forward 7 unknown #
coedge $-1 $185 $184 $404 $408 forward $73 $-1 #
edge $-1 $290 -46.414990691854612 $406 46.414990691854612 $282 $409 forward 7 unknown #
coedge $-1 $295 $294 $185 $288 reversed $279 $-1 #
edge $-1 $410 -46.414990691854612 $289 46.414990691854612 $287 $411 forward 7 unknown #
vertex $-1 $187 $412 #
vertex $-1 $301 $413 #
straight-curve $-1 46.414990691854612 0 -7.2961951557189417 0 -1 0 I I #
coedge $-1 $281 $283 $188 $293 reversed $181 $-1 #
edge $-1 $296 -23.512896267377659 $299 23.512896267377659 $292 $414 forward 7 unknown #
coedge $-1 $287 $189 $194 $302 forward $279 $-1 #
coedge $-1 $189 $287 $281 $405 reversed $279 $-1 #
vertex $-1 $190 $415 #
straight-curve $-1 0 23.512896267377659 7.2961951557189417 -1 0 0 I I #
coedge $-1 $191 $282 $193 $301 reversed $113 $-1 #
vertex $-1 $293 $416 #
straight-curve $-1 0 -23.512896267377659 7.2961951557189417 1 0 0 I I #
edge $-1 $196 -7.2961951557189417 $290 7.2961951557189417 $193 $417 forward 7 unknown #
edge $-1 $197 -7.2961951557189417 $289 7.2961951557189417 $194 $418 forward 7 unknown #
point $-1 46.414990691854612 -23.512896267377659 7.2961951557189417 #
point $-1 46.414990691854612 23.512896267377659 7.2961951557189417 #
face $-1 $-1 $318 $28 $-1 $419 reversed single #
loop $-1 $-1 $314 $199 #
plane-surface $-1 -46.414990691854612 0 0 1 0 0 0 0 -1 forward_v I I I I #
coedge $-1 $420 $202 $311 $421 forward $121 $-1 #
coedge $-1 $202 $420 $422 $423 forward $121 $-1 #
edge $-1 $424 -23.512896267377659 $312 23.512896267377659 $202 $425 forward 7 unknown #
coedge $-1 $204 $321 $308 $421 reversed $200 $-1 #
vertex $-1 $421 $426 #
straight-curve $-1 -38.055230413006242 -23.512896267377659 -2.6126978566663408 0 0 1 I I #
coedge $-1 $427 $428 $206 $315 forward $306 $-1 #
edge $-1 $322 -23.512896267377659 $319 23.512896267377659 $314 $429 forward 7 unknown #
coedge $-1 $422 $207 $211 $324 forward $318 $-1 #
coedge $-1 $207 $422 $427 $430 reversed $318 $-1 #
loop $-1 $-1 $316 $305 #
vertex $-1 $430 $431 #
straight-curve $-1 -21.117555276215214 23.512896267377659 -3.1545962709464215 1 0 0 I I #
coedge $-1 $311 $209 $428 $432 forward $200 $-1 #
vertex $-1 $432 $433 #
straight-curve $-1 -21.117555276215214 -23.512896267377659 -3.1545962709464215 -1 0 0 I I #
edge $-1 $213 0.54189841428008068 $424 4.6834972990526005 $316 $434 forward 7 unknown #
point $-1 -38.055230413006242 -23.512896267377659 -3.1545962709464215 #
point $-1 -38.055230413006242 23.512896267377659 -3.1545962709464215 #
face $-1 $-1 $435 $29 $-1 $436 reversed single #
loop $-1 $-1 $437 $215 #
plane-surface $-1 0 0 7.2961951557189417 0 0 1 1 0 0 forward_v I I I I #
coedge $-1 $221 $218 $438 $439 reversed $129 $-1 #
coedge $-1 $218 $221 $437 $440 reversed $129 $-1 #
coedge $-1 $441 $442 $218 $333 forward $435 $-1 #
edge $-1 $443 -7.2961951557189417 $444 7.2961951557189417 $332 $445 forward 7 unknown #
coedge $-1 $438 $224 $219 $335 forward $216 $-1 #
edge $-1 $229 -8.9652624644991725 $339 -5.9652624644991725 $334 $446 forward 7 unknown #
coedge $-1 $226 $437 $220 $337 forward $328 $-1 #
edge $-1 $338 5.9652624644991725 $228 8.9652624644991725 $336 $447 forward 7 unknown #
vertex $-1 $337 $448 #
vertex $-1 $335 $449 #
straight-curve $-1 38.835449232365036 -13.430524928998345 0 0 0 -1 I I #
coedge $-1 $442 $441 $223 $342 forward $435 $-1 #
edge $-1 $347 -7.2961951557189417 $344 7.2961951557189417 $341 $450 forward 7 unknown #
coedge $-1 $224 $438 $442 $451 forward $216 $-1 #
vertex $-1 $342 $452 #
straight-curve $-1 21.312609981054912 -16.430524928998345 -7.2961951557189417 -1 0 0 I I #
coedge $-1 $437 $226 $441 $453 forward $328 $-1 #
vertex $-1 $453 $454 #
straight-curve $-1 21.312609981054912 -16.430524928998345 7.2961951557189417 1 0 0 I I #
point $-1 38.835449232365036 -16.430524928998345 7.2961951557189417 #
point $-1 38.835449232365036 -16.430524928998345 -7.2961951557189417 #
plane-surface $-1 0 0 7.2961951557189417 0 0 1 1 0 0 forward_v I I I I #
coedge $-1 $362 $361 $354 $455 forward $232 $-1 #
coedge $-1 $354 $234 $236 $358 reversed $137 $-1 #
coedge $-1 $234 $353 $352 $455 reversed $137 $-1 #
coedge $-1 $242 $237 $234 $356 forward $243 $-1 #
edge $-1 $359 -20.262000085826887 $456 -16.683665462221629 $355 $457 forward 7 unknown #
coedge $-1 $236 $235 $362 $458 reversed $85 $-1 #
edge $-1 $459 -47.025792534755311 $359 -39.869123095782228 $353 $460 forward 7 unknown #
vertex $-1 $238 $461 #
straight-curve $-1 -15.662196020114363 19.934561643772398 7.2961951557189444 1 0 0 I I #
coedge $-1 $352 $239 $242 $366 reversed $232 $-1 #
coedge $-1 $239 $352 $357 $458 forward $232 $-1 #
vertex $-1 $240 $462 #
straight-curve $-1 -38.055230413006235 23.512896267377659 44.119429169915868 0 0 1 I I #
straight-curve $-1 -38.055230413006235 6.3002677563872567e-007 41.823868891664269 0 0.49999998660252726 -0.86602541151947299 I I #
edge $-1 $456 24.593553667451214 $244 38.055230413006235 $361 $463 forward 7 unknown #
point $-1 -38.055230413006235 23.512896267377659 7.2961951557189417 #
point $-1 -38.055230413006235 19.934561643772401 7.2961951557189408 #
edge $-1 $464 1 $464 0 $247 $-1 forward 7 unknown #
vertex $-1 $248 $465 #
ellipse-curve $-1 -34.209037057133372 20.674941444362045 3.591748627432747 0 0.86602541151947299 0.49999998660252726 1 0 0 1 I I #
point $-1 -33.209037057133372 21.723728955575023 4.1972663577211922 #
edge $-1 $466 1 $466 0 $251 $-1 forward 7 unknown #
vertex $-1 $252 $467 #
ellipse-curve $-1 -28.439747023324077 20.674941444362045 3.591748627432747 0 0.86602541151947299 0.49999998660252726 1 0 0 1 I I #
point $-1 -27.439747023324077 21.723728955575023 4.1972663577211922 #
loop $-1 $-1 $263 $255 #
plane-surface $-1 0 23.512896267377659 0 0 -1 0 0 0 -1 forward_v I I I I #
coedge $-1 $380 $258 $260 $384 reversed $159 $-1 #
coedge $-1 $258 $379 $468 $469 reversed $159 $-1 #
coedge $-1 $266 $261 $258 $382 forward $256 $-1 #
edge $-1 $385 -20.262000085826887 $470 -16.683665462221629 $381 $471 forward 7 unknown #
coedge $-1 $260 $259 $388 $472 reversed $99 $-1 #
edge $-1 $473 -47.025792534755311 $385 -39.869123095782228 $379 $474 forward 7 unknown #
vertex $-1 $262 $475 #
straight-curve $-1 16.052305429793762 19.934561643772398 7.2961951557189444 1 0 0 I I #
coedge $-1 $468 $263 $266 $392 reversed $377 $-1 #
coedge $-1 $263 $468 $383 $472 forward $377 $-1 #
vertex $-1 $264 $476 #
straight-curve $-1 25.373772486810012 23.512896267377659 44.119429169915868 0 0 1 I I #
straight-curve $-1 25.373772486810012 6.3002677563872567e-007 41.823868891664269 0 0.49999998660252726 -0.86602541151947299 I I #
edge $-1 $470 -38.835449232365036 $267 -25.373772486810012 $387 $477 forward 7 unknown #
point $-1 25.373772486810012 23.512896267377659 7.2961951557189417 #
point $-1 25.373772486810012 19.934561643772401 7.2961951557189408 #
edge $-1 $478 1 $478 0 $270 $-1 forward 7 unknown #
vertex $-1 $271 $479 #
ellipse-curve $-1 29.219965842682868 20.674941444362045 3.591748627432747 0 0.86602541151947299 0.49999998660252726 1 0 0 1 I I #
point $-1 30.219965842682868 21.723728955575023 4.1972663577211922 #
edge $-1 $480 1 $480 0 $274 $-1 forward 7 unknown #
vertex $-1 $275 $481 #
ellipse-curve $-1 34.989255876492166 20.674941444362045 3.591748627432747 0 0.86602541151947299 0.49999998660252726 1 0 0 1 I I #
point $-1 35.989255876492166 21.723728955575023 4.1972663577211922 #
plane-surface $-1 46.414990691854612 0 0 -1 0 0 0 0 1 forward_v I I I I #
coedge $-1 $283 $281 $285 $408 reversed $181 $-1 #
edge $-1 $296 -7.2961951557189417 $410 7.2961951557189417 $295 $482 forward 7 unknown #
vertex $-1 $408 $483 #
straight-curve $-1 -46.414990691854612 -23.512896267377659 0 0 0 -1 I I #
edge $-1 $406 -23.512896267377659 $410 23.512896267377659 $404 $484 forward 7 unknown #
straight-curve $-1 0 -23.512896267377659 -7.2961951557189417 -1 0 0 I I #
vertex $-1 $288 $485 #
straight-curve $-1 0 23.512896267377659 -7.2961951557189417 1 0 0 I I #
point $-1 46.414990691854612 23.512896267377659 -7.2961951557189417 #
point $-1 46.414990691854612 -23.512896267377659 -7.2961951557189417 #
straight-curve $-1 -46.414990691854612 0 7.2961951557189417 0 -1 0 I I #
point $-1 -46.414990691854612 23.512896267377659 7.2961951557189417 #
point $-1 -46.414990691854612 -23.512896267377659 7.2961951557189417 #
straight-curve $-1 46.414990691854612 -23.512896267377659 0 0 0 -1 I I #
straight-curve $-1 46.414990691854612 23.512896267377659 0 0 0 -1 I I #
plane-surface $-1 0 23.512896267377659 0 0 -1 0 0 0 -1 forward_v I I I I #
coedge $-1 $309 $308 $486 $487 forward $121 $-1 #
edge $-1 $312 38.055230413006242 $488 46.414990691854612 $311 $489 forward 7 unknown #
coedge $-1 $317 $316 $309 $423 reversed $318 $-1 #
edge $-1 $490 -46.414990691854612 $424 -38.055230413006242 $422 $491 forward 7 unknown #
vertex $-1 $324 $492 #
straight-curve $-1 -38.055230413006242 0 -7.2961951557189417 0 -1 0 I I #
point $-1 -38.055230413006242 -23.512896267377659 -7.2961951557189417 #
coedge $-1 $486 $314 $317 $430 forward $306 $-1 #
coedge $-1 $314 $486 $321 $432 reversed $306 $-1 #
straight-curve $-1 -46.414990691854612 0 -3.1545962709464215 0 1 0 I I #
edge $-1 $319 3.1545962709464215 $490 7.2961951557189417 $317 $493 forward 7 unknown #
point $-1 -46.414990691854612 23.512896267377659 -3.1545962709464215 #
edge $-1 $322 3.1545962709464215 $488 7.2961951557189417 $428 $494 forward 7 unknown #
point $-1 -46.414990691854612 -23.512896267377659 -3.1545962709464215 #
straight-curve $-1 -38.055230413006242 23.512896267377659 -2.6126978566663408 0 0 -1 I I #
loop $-1 $-1 $341 $327 #
plane-surface $-1 46.414990691854612 0 0 -1 0 0 0 0 1 forward_v I I I I #
coedge $-1 $336 $346 $331 $440 forward $328 $-1 #
coedge $-1 $343 $334 $330 $439 forward $216 $-1 #
edge $-1 $339 17.522839251310124 $443 25.1023807107997 $438 $495 forward 7 unknown #
edge $-1 $444 -25.1023807107997 $338 -17.522839251310124 $437 $496 forward 7 unknown #
coedge $-1 $341 $332 $346 $453 reversed $435 $-1 #
coedge $-1 $332 $341 $343 $451 reversed $435 $-1 #
vertex $-1 $451 $497 #
vertex $-1 $333 $498 #
straight-curve $-1 46.414990691854612 -13.430524928998345 0 0 0 1 I I #
straight-curve $-1 38.835449232365036 -7.4652624644991725 -7.2961951557189417 0 1 0 I I #
straight-curve $-1 38.835449232365036 -7.4652624644991725 7.2961951557189417 0 -1 0 I I #
point $-1 38.835449232365036 -13.430524928998345 7.2961951557189417 #
point $-1 38.835449232365036 -13.430524928998345 -7.2961951557189417 #
straight-curve $-1 46.414990691854612 -16.430524928998345 0 0 0 -1 I I #
edge $-1 $443 13.430524928998345 $344 16.430524928998345 $442 $499 forward 7 unknown #
point $-1 46.414990691854612 -16.430524928998345 -7.2961951557189417 #
edge $-1 $347 -16.430524928998345 $444 -13.430524928998345 $441 $500 forward 7 unknown #
point $-1 46.414990691854612 -16.430524928998345 7.2961951557189417 #
edge $-1 $456 36.823234014196927 $459 43.021091610192428 $352 $501 forward 7 unknown #
vertex $-1 $366 $502 #
straight-curve $-1 -24.593553667451214 40.196561729599289 7.2961951557189408 0 1 0 I I #
edge $-1 $459 8.931357647336851 $363 22.39303439289187 $362 $503 forward 7 unknown #
vertex $-1 $458 $504 #
straight-curve $-1 -24.593553667451214 6.3002677563872567e-007 41.823868891664269 0 -0.49999998660252726 0.86602541151947299 I I #
point $-1 -24.593553667451214 19.934561643772401 7.2961951557189408 #
point $-1 -38.055230413006235 23.512896267377659 1.0983375597234399 #
straight-curve $-1 0 23.512896267377659 7.2961951557189417 -1 0 0 I I #
vertex $-1 $369 $505 #
point $-1 -33.209037057133372 20.674941444362045 3.591748627432747 #
vertex $-1 $373 $506 #
point $-1 -27.439747023324077 20.674941444362045 3.591748627432747 #
coedge $-1 $388 $387 $380 $469 forward $377 $-1 #
edge $-1 $470 36.823234014196927 $473 43.021091610192428 $468 $507 forward 7 unknown #
vertex $-1 $392 $508 #
straight-curve $-1 38.835449232365036 40.196561729599289 7.2961951557189408 0 1 0 I I #
edge $-1 $473 -22.783143802571274 $389 -9.3214670570162497 $388 $509 forward 7 unknown #
vertex $-1 $472 $510 #
straight-curve $-1 38.835449232365036 6.3002677563872567e-007 41.823868891664269 0 -0.49999998660252726 0.86602541151947299 I I #
point $-1 38.835449232365036 19.934561643772401 7.2961951557189408 #
point $-1 25.373772486810012 23.512896267377659 1.0983375597234399 #
straight-curve $-1 0 23.512896267377659 7.2961951557189417 -1 0 0 I I #
vertex $-1 $395 $511 #
point $-1 30.219965842682868 20.674941444362045 3.591748627432747 #
vertex $-1 $399 $512 #
point $-1 35.989255876492166 20.674941444362045 3.591748627432747 #
straight-curve $-1 -46.414990691854612 23.512896267377659 0 0 0 -1 I I #
point $-1 -46.414990691854612 -23.512896267377659 -7.2961951557189417 #
straight-curve $-1 -46.414990691854612 0 -7.2961951557189417 0 1 0 I I #
point $-1 -46.414990691854612 23.512896267377659 -7.2961951557189417 #
coedge $-1 $428 $427 $420 $487 reversed $306 $-1 #
edge $-1 $488 -23.512896267377659 $490 23.512896267377659 $486 $513 forward 7 unknown #
vertex $-1 $487 $514 #
straight-curve $-1 0 -23.512896267377659 -7.2961951557189417 -1 0 0 I I #
vertex $-1 $423 $515 #
straight-curve $-1 0 23.512896267377659 -7.2961951557189417 1 0 0 I I #
point $-1 -38.055230413006242 23.512896267377659 -7.2961951557189417 #
straight-curve $-1 -46.414990691854612 23.512896267377659 0 0 0 -1 I I #
straight-curve $-1 -46.414990691854612 -23.512896267377659 0 0 0 -1 I I #
straight-curve $-1 21.312609981054912 -13.430524928998345 -7.2961951557189417 1 0 0 I I #
straight-curve $-1 21.312609981054912 -13.430524928998345 7.2961951557189417 -1 0 0 I I #
point $-1 46.414990691854612 -13.430524928998345 -7.2961951557189417 #
point $-1 46.414990691854612 -13.430524928998345 7.2961951557189417 #
straight-curve $-1 46.414990691854612 0 -7.2961951557189417 0 -1 0 I I #
straight-curve $-1 46.414990691854612 0 7.2961951557189417 0 1 0 I I #
straight-curve $-1 -24.593553667451214 23.512896267377659 44.119429169915868 0 0 -1 I I #
point $-1 -24.593553667451214 23.512896267377659 7.2961951557189417 #
straight-curve $-1 -15.662196020114363 23.512896267377659 1.0983375597234328 -1 0 0 I I #
point $-1 -24.593553667451214 23.512896267377659 1.0983375597234399 #
point $-1 -34.209037057133372 19.808916032842571 3.0917486408302195 #
point $-1 -28.439747023324077 19.808916032842571 3.0917486408302195 #
straight-curve $-1 38.835449232365036 23.512896267377659 44.119429169915868 0 0 -1 I I #
point $-1 38.835449232365036 23.512896267377659 7.2961951557189417 #
straight-curve $-1 16.052305429793762 23.512896267377659 1.0983375597234328 -1 0 0 I I #
point $-1 38.835449232365036 23.512896267377659 1.0983375597234399 #
point $-1 29.219965842682868 19.808916032842571 3.0917486408302195 #
point $-1 34.989255876492166 19.808916032842571 3.0917486408302195 #
straight-curve $-1 -46.414990691854612 0 -7.2961951557189417 0 1 0 I I #
point $-1 -46.414990691854612 -23.512896267377659 -7.2961951557189417 #
point $-1 -46.414990691854612 23.512896267377659 -7.2961951557189417 #
End-of-ACIS-data 