500 0 10 0           
7 Unknown 11 ACIS 5.0 NT 24 Fri Mar 26 02:15:22 1999 
-1 9.9999999999999995e-007 1e-010 
body $-1 $10 $-1 $11 #
body $-1 $12 $-1 $13 #
body $-1 $14 $-1 $15 #
body $-1 $16 $-1 $17 #
body $-1 $18 $-1 $19 #
body $-1 $20 $-1 $21 #
body $-1 $22 $-1 $23 #
body $-1 $24 $-1 $25 #
body $-1 $26 $-1 $27 #
body $-1 $28 $-1 $29 #
lump $-1 $-1 $30 $0 #
transform $-1 1 0 0 0 1 0 0 0 1 61.157872249519329 32.116888538273379 6.981186517345261 1 rotate no_reflect no_shear #
lump $-1 $-1 $31 $1 #
transform $-1 1 0 0 0 1 0 0 0 1 61.157872249519329 32.116888538273379 6.981186517345261 1 rotate no_reflect no_shear #
lump $-1 $-1 $32 $2 #
transform $-1 1 0 0 0 1 0 0 0 1 61.157872249519329 32.116888538273379 6.981186517345261 1 rotate no_reflect no_shear #
lump $-1 $-1 $33 $3 #
transform $-1 1 0 0 0 1 0 0 0 1 61.157872249519329 32.116888538273379 6.981186517345261 1 rotate no_reflect no_shear #
lump $-1 $-1 $34 $4 #
transform $-1 1 0 0 0 1 0 0 0 1 61.157872249519329 32.116888538273379 6.981186517345261 1 rotate no_reflect no_shear #
lump $-1 $-1 $35 $5 #
transform $-1 1 0 0 0 1 0 0 0 1 61.157872249519329 32.116888538273379 6.981186517345261 1 rotate no_reflect no_shear #
lump $-1 $-1 $36 $6 #
transform $-1 1 0 0 0 1 0 0 0 1 61.157872249519329 32.116888538273379 6.981186517345261 1 rotate no_reflect no_shear #
lump $-1 $-1 $37 $7 #
transform $-1 1 0 0 0 1 0 0 0 1 61.157872249519329 32.116888538273379 6.981186517345261 1 rotate no_reflect no_shear #
lump $-1 $-1 $38 $8 #
transform $-1 1 0 0 0 1 0 0 0 1 61.157872249519329 32.116888538273379 6.981186517345261 1 rotate no_reflect no_shear #
lump $-1 $-1 $39 $9 #
transform $-1 1 0 0 0 1 0 0 0 1 61.157872249519329 32.116888538273379 6.981186517345261 1 rotate no_reflect no_shear #
shell $-1 $-1 $-1 $40 $-1 $10 #
shell $-1 $-1 $-1 $41 $-1 $12 #
shell $-1 $-1 $-1 $42 $-1 $14 #
shell $-1 $-1 $-1 $43 $-1 $16 #
shell $-1 $-1 $-1 $44 $-1 $18 #
shell $-1 $-1 $-1 $45 $-1 $20 #
shell $-1 $-1 $-1 $46 $-1 $22 #
shell $-1 $-1 $-1 $47 $-1 $24 #
shell $-1 $-1 $-1 $48 $-1 $26 #
shell $-1 $-1 $-1 $49 $-1 $28 #
face $-1 $50 $51 $30 $-1 $52 forward single #
face $-1 $53 $54 $31 $-1 $55 reversed single #
face $-1 $56 $57 $32 $-1 $58 reversed single #
face $-1 $59 $60 $33 $-1 $61 reversed single #
face $-1 $62 $63 $34 $-1 $64 forward single #
face $-1 $65 $66 $35 $-1 $67 forward single #
face $-1 $68 $69 $36 $-1 $70 reversed single #
face $-1 $71 $72 $37 $-1 $73 forward single #
face $-1 $74 $75 $38 $-1 $76 forward single #
face $-1 $77 $78 $39 $-1 $79 forward single #
face $-1 $80 $81 $30 $-1 $82 reversed single #
loop $-1 $-1 $83 $40 #
plane-surface $-1 0 0 6.981186517345261 0 0 1 1 0 0 forward_v I I I I #
face $-1 $84 $85 $31 $-1 $86 reversed single #
loop $-1 $-1 $87 $41 #
plane-surface $-1 -58.809927096272894 0 3.981186517345261 0 0 1 1 0 0 forward_v I I I I #
face $-1 $88 $89 $32 $-1 $90 reversed single #
loop $-1 $-1 $91 $42 #
plane-surface $-1 58.809927096272901 0 3.981186517345261 0 0 1 1 0 0 forward_v I I I I #
face $-1 $92 $93 $33 $-1 $94 reversed single #
loop $-1 $-1 $95 $43 #
plane-surface $-1 -46.473826837806186 -7.4293727437720776 54.241977984900785 0 0.78801076186113728 0.61566146476048833 1 0 0 forward_v I I I I #
face $-1 $96 $97 $34 $-1 $98 forward single #
loop $-1 $99 $100 $44 #
cone-surface $-1 -50.754464740043446 29.466393564846438 4.2566335999608675 0 -0.78801076186113728 -0.61566146476048833 1 0 0 1 I I 0 1 1 forward I I I I #
face $-1 $101 $102 $35 $-1 $103 forward single #
loop $-1 $104 $105 $45 #
cone-surface $-1 -42.193188935568926 29.466393564846438 4.2566335999608675 0 -0.78801076186113728 -0.61566146476048833 1 0 0 1 I I 0 1 1 forward I I I I #
face $-1 $106 $107 $36 $-1 $108 reversed single #
loop $-1 $-1 $109 $46 #
plane-surface $-1 52.060363133469572 -139.09665010322203 59.754986502853171 -1 0 0 0 -0.87461971476443456 0.48480960649040278 forward_v I I I I #
face $-1 $110 $111 $37 $-1 $112 forward single #
loop $-1 $113 $114 $47 #
cone-surface $-1 38.295405108776535 -29.363805401584436 3.1946955466989637 0 0.87461971476443456 -0.48480960649040278 1.5 0 0 1 I I 0 1 1.5 forward I I I I #
face $-1 $115 $116 $38 $-1 $117 forward single #
loop $-1 $118 $119 $48 #
cone-surface $-1 43.457264368036434 -29.363805401584436 3.1946955466989637 0 0.87461971476443456 -0.48480960649040278 1.5 0 0 1 I I 0 1 1.5 forward I I I I #
face $-1 $120 $121 $39 $-1 $122 forward single #
loop $-1 $123 $124 $49 #
cone-surface $-1 48.619123627296332 -29.363805401584436 3.1946955466989637 0 0.87461971476443456 -0.48480960649040278 1.5 0 0 1 I I 0 1 1.5 forward I I I I #
face $-1 $125 $126 $30 $-1 $127 reversed single #
loop $-1 $-1 $128 $50 #
plane-surface $-1 0 0 -6.981186517345261 0 0 1 1 0 0 forward_v I I I I #
coedge $-1 $129 $130 $131 $132 forward $51 $-1 #
face $-1 $133 $134 $31 $-1 $135 reversed single #
loop $-1 $-1 $136 $53 #
plane-surface $-1 -56.461981943026458 0 5.481186517345261 -1 0 0 0 0 1 forward_v I I I I #
coedge $-1 $137 $138 $139 $140 forward $54 $-1 #
face $-1 $141 $142 $32 $-1 $143 forward single #
loop $-1 $-1 $144 $56 #
plane-surface $-1 56.461981943026466 0 5.481186517345261 1 0 0 0 0 -1 forward_v I I I I #
coedge $-1 $145 $146 $147 $148 reversed $57 $-1 #
face $-1 $149 $150 $33 $-1 $151 reversed single #
loop $-1 $-1 $152 $59 #
plane-surface $-1 -36.485671732585907 88.956750266527592 129.54706840644857 -1 0 0 0 0.78801076186113728 0.61566146476048833 forward_v I I I I #
coedge $-1 $153 $154 $155 $156 reversed $60 $-1 #
face $-1 $-1 $157 $34 $-1 $158 forward single #
loop $-1 $159 $160 $62 #
cone-surface $-1 -50.754464740043446 27.732935826257865 2.9023080220724928 0 -0.78801076186113728 -0.61566146476048833 0.5 0 0 1 I I -0.70710678118654746 0.70710678118654746 0.5 forward I I I I #
loop $-1 $-1 $161 $44 #
coedge $-1 $100 $100 $162 $163 reversed $63 $-1 #
face $-1 $-1 $164 $35 $-1 $165 forward single #
loop $-1 $166 $167 $65 #
cone-surface $-1 -42.193188935568926 27.732935826257865 2.9023080220724928 0 -0.78801076186113728 -0.61566146476048833 0.5 0 0 1 I I -0.70710678118654746 0.70710678118654746 0.5 forward I I I I #
loop $-1 $-1 $168 $45 #
coedge $-1 $105 $105 $169 $170 reversed $66 $-1 #
face $-1 $171 $172 $36 $-1 $173 reversed single #
loop $-1 $-1 $174 $68 #
plane-surface $-1 43.457264368036419 -32.116888538273386 0.45513854469358961 0 -0.87461971476443456 0.48480960649040278 1 0 0 forward_v I I I I #
coedge $-1 $175 $176 $177 $178 reversed $69 $-1 #
face $-1 $-1 $179 $37 $-1 $180 forward single #
loop $-1 $181 $182 $71 #
cone-surface $-1 38.295405108776535 -27.763481142460876 2.3076213575106923 0 0.87461971476443456 -0.48480960649040278 0.75 0 0 1 I I -0.70710678118654757 0.70710678118654757 0.75 forward I I I I #
loop $-1 $-1 $183 $47 #
coedge $-1 $114 $114 $184 $185 reversed $72 $-1 #
face $-1 $-1 $186 $38 $-1 $187 forward single #
loop $-1 $188 $189 $74 #
cone-surface $-1 43.457264368036434 -27.763481142460876 2.3076213575106923 0 0.87461971476443456 -0.48480960649040278 0.75 0 0 1 I I -0.70710678118654757 0.70710678118654757 0.75 forward I I I I #
loop $-1 $-1 $190 $48 #
coedge $-1 $119 $119 $191 $192 reversed $75 $-1 #
face $-1 $-1 $193 $39 $-1 $194 forward single #
loop $-1 $195 $196 $77 #
cone-surface $-1 48.619123627296332 -27.763481142460876 2.3076213575106923 0 0.87461971476443456 -0.48480960649040278 0.75 0 0 1 I I -0.70710678118654757 0.70710678118654757 0.75 forward I I I I #
loop $-1 $-1 $197 $49 #
coedge $-1 $124 $124 $198 $199 reversed $78 $-1 #
face $-1 $200 $201 $30 $-1 $202 reversed single #
loop $-1 $-1 $203 $80 #
plane-surface $-1 0 -32.116888538273379 0 0 1 0 0 0 1 forward_v I I I I #
coedge $-1 $204 $205 $206 $207 forward $81 $-1 #
coedge $-1 $208 $83 $209 $210 forward $51 $-1 #
coedge $-1 $83 $208 $211 $212 forward $51 $-1 #
coedge $-1 $213 $214 $83 $132 reversed $215 $-1 #
edge $-1 $216 -32.116888538273379 $217 32.116888538273379 $131 $218 forward 7 unknown #
face $-1 $219 $220 $31 $-1 $221 reversed single #
loop $-1 $-1 $222 $84 #
plane-surface $-1 0 32.116888538273379 0 0 -1 0 0 0 -1 forward_v I I I I #
coedge $-1 $139 $223 $224 $225 reversed $85 $-1 #
coedge $-1 $226 $87 $227 $228 reversed $54 $-1 #
coedge $-1 $87 $226 $229 $230 reversed $54 $-1 #
coedge $-1 $231 $136 $87 $140 reversed $85 $-1 #
edge $-1 $232 -32.116888538273379 $233 32.116888538273379 $139 $234 forward 7 unknown #
face $-1 $235 $236 $32 $-1 $237 reversed single #
loop $-1 $-1 $238 $88 #
plane-surface $-1 0 0 6.981186517345261 0 0 1 1 0 0 forward_v I I I I #
coedge $-1 $239 $240 $241 $242 reversed $89 $-1 #
coedge $-1 $243 $91 $244 $245 reversed $57 $-1 #
coedge $-1 $91 $243 $246 $247 reversed $57 $-1 #
coedge $-1 $248 $249 $91 $148 forward $250 $-1 #
edge $-1 $251 -32.116888538273379 $252 32.116888538273379 $147 $253 forward 7 unknown #
face $-1 $254 $255 $33 $-1 $256 forward single #
loop $-1 $-1 $257 $92 #
plane-surface $-1 0 32.116888538273379 0 0 -1 0 0 0 -1 forward_v I I I I #
coedge $-1 $258 $259 $260 $261 reversed $93 $-1 #
coedge $-1 $262 $95 $263 $264 reversed $60 $-1 #
coedge $-1 $95 $262 $258 $265 forward $60 $-1 #
coedge $-1 $260 $266 $95 $156 forward $255 $-1 #
edge $-1 $267 -33.225068524123373 $268 -13.248758313682814 $155 $269 forward 7 unknown #
loop $-1 $-1 $162 $96 #
plane-surface $-1 -46.473826837806186 -7.4293727437720776 54.241977984900785 0 0.78801076186113728 0.61566146476048833 1 0 0 forward_v I I I I #
loop $-1 $-1 $270 $62 #
coedge $-1 $160 $160 $161 $271 reversed $97 $-1 #
coedge $-1 $161 $161 $160 $271 forward $99 $-1 #
coedge $-1 $162 $162 $100 $163 forward $157 $-1 #
edge $-1 $272 -1.8369231160233815e-015 $272 6.2831853071795987 $162 $273 forward 7 unknown #
loop $-1 $-1 $169 $101 #
plane-surface $-1 -46.473826837806186 -7.4293727437720776 54.241977984900785 0 0.78801076186113728 0.61566146476048833 1 0 0 forward_v I I I I #
loop $-1 $-1 $274 $65 #
coedge $-1 $167 $167 $168 $275 reversed $102 $-1 #
coedge $-1 $168 $168 $167 $275 forward $104 $-1 #
coedge $-1 $169 $169 $105 $170 forward $164 $-1 #
edge $-1 $276 -1.8369231160233815e-015 $276 6.2831853071795987 $169 $277 forward 7 unknown #
face $-1 $278 $279 $36 $-1 $280 forward single #
loop $-1 $-1 $281 $106 #
plane-surface $-1 34.854165602603267 -139.09665010322203 59.754986502853171 1 0 0 0 0.87461971476443456 -0.48480960649040278 forward_v I I I I #
coedge $-1 $282 $283 $284 $285 reversed $107 $-1 #
coedge $-1 $176 $109 $286 $287 reversed $69 $-1 #
coedge $-1 $109 $175 $282 $288 reversed $69 $-1 #
coedge $-1 $284 $289 $109 $178 forward $279 $-1 #
edge $-1 $290 37.431436513337637 $291 41.048883840615055 $177 $292 forward 7 unknown #
loop $-1 $-1 $184 $110 #
plane-surface $-1 43.457264368036419 -32.116888538273386 0.45513854469358961 0 -0.87461971476443456 0.48480960649040278 1 0 0 forward_v I I I I #
loop $-1 $-1 $293 $71 #
coedge $-1 $182 $182 $183 $294 reversed $111 $-1 #
coedge $-1 $183 $183 $182 $294 forward $113 $-1 #
coedge $-1 $184 $184 $114 $185 forward $179 $-1 #
edge $-1 $295 0 $295 6.2831853071796004 $184 $296 forward 7 unknown #
loop $-1 $-1 $191 $115 #
plane-surface $-1 43.457264368036419 -32.116888538273386 0.45513854469358961 0 -0.87461971476443456 0.48480960649040278 1 0 0 forward_v I I I I #
loop $-1 $-1 $297 $74 #
coedge $-1 $189 $189 $190 $298 reversed $116 $-1 #
coedge $-1 $190 $190 $189 $298 forward $118 $-1 #
coedge $-1 $191 $191 $119 $192 forward $186 $-1 #
edge $-1 $299 0 $299 6.2831853071796004 $191 $300 forward 7 unknown #
loop $-1 $-1 $198 $120 #
plane-surface $-1 43.457264368036419 -32.116888538273386 0.45513854469358961 0 -0.87461971476443456 0.48480960649040278 1 0 0 forward_v I I I I #
loop $-1 $-1 $301 $77 #
coedge $-1 $196 $196 $197 $302 reversed $121 $-1 #
coedge $-1 $197 $197 $196 $302 forward $123 $-1 #
coedge $-1 $198 $198 $124 $199 forward $193 $-1 #
edge $-1 $303 0 $303 6.2831853071796004 $198 $304 forward 7 unknown #
face $-1 $305 $306 $30 $-1 $307 reversed single #
loop $-1 $-1 $308 $125 #
plane-surface $-1 -61.157872249519329 0 0 1 0 0 0 0 -1 forward_v I I I I #
coedge $-1 $309 $211 $310 $311 forward $126 $-1 #
coedge $-1 $312 $128 $309 $313 forward $81 $-1 #
coedge $-1 $128 $312 $314 $315 forward $81 $-1 #
coedge $-1 $214 $213 $128 $207 reversed $215 $-1 #
edge $-1 $316 -32.116888538273379 $317 32.116888538273379 $206 $318 forward 7 unknown #
coedge $-1 $130 $129 $319 $320 forward $51 $-1 #
coedge $-1 $321 $322 $129 $210 reversed $306 $-1 #
edge $-1 $217 -61.157872249519329 $323 61.157872249519329 $209 $324 forward 7 unknown #
coedge $-1 $203 $325 $130 $212 reversed $126 $-1 #
edge $-1 $326 -61.157872249519329 $216 61.157872249519329 $211 $327 forward 7 unknown #
coedge $-1 $206 $131 $325 $328 forward $215 $-1 #
coedge $-1 $131 $206 $321 $329 reversed $215 $-1 #
loop $-1 $-1 $213 $305 #
vertex $-1 $132 $330 #
vertex $-1 $132 $331 #
straight-curve $-1 61.157872249519329 0 6.981186517345261 0 1 0 I I #
face $-1 $332 $333 $31 $-1 $334 forward single #
loop $-1 $-1 $335 $133 #
plane-surface $-1 -61.157872249519329 0 0 1 0 0 0 0 -1 forward_v I I I I #
coedge $-1 $229 $336 $231 $337 forward $134 $-1 #
coedge $-1 $136 $231 $338 $339 reversed $85 $-1 #
coedge $-1 $340 $227 $136 $225 forward $341 $-1 #
edge $-1 $233 1.2405932586726305 $342 4.2405932586726305 $224 $343 forward 7 unknown #
coedge $-1 $138 $137 $335 $344 reversed $54 $-1 #
coedge $-1 $224 $345 $137 $228 forward $341 $-1 #
edge $-1 $346 -31.752908701382882 $233 -27.057018394890012 $227 $347 forward 7 unknown #
coedge $-1 $348 $222 $138 $230 forward $134 $-1 #
edge $-1 $232 27.057018394890012 $349 31.752908701382882 $229 $350 forward 7 unknown #
coedge $-1 $223 $139 $222 $337 reversed $85 $-1 #
vertex $-1 $230 $351 #
vertex $-1 $228 $352 #
straight-curve $-1 -56.461981943026458 0 3.981186517345261 0 -1 0 I I #
face $-1 $353 $354 $32 $-1 $355 reversed single #
loop $-1 $-1 $356 $141 #
plane-surface $-1 0 -32.116888538273379 0 0 1 0 0 0 1 forward_v I I I I #
coedge $-1 $357 $358 $240 $359 forward $142 $-1 #
coedge $-1 $360 $144 $243 $361 reversed $89 $-1 #
coedge $-1 $144 $360 $238 $359 reversed $89 $-1 #
coedge $-1 $362 $246 $144 $242 forward $354 $-1 #
edge $-1 $363 1.2405932586726305 $364 4.2405932586726305 $241 $365 forward 7 unknown #
coedge $-1 $146 $145 $239 $361 forward $57 $-1 #
coedge $-1 $366 $356 $145 $245 forward $236 $-1 #
edge $-1 $367 27.057018394890015 $251 31.752908701382886 $244 $368 forward 7 unknown #
coedge $-1 $241 $369 $146 $247 forward $354 $-1 #
edge $-1 $252 -31.752908701382886 $363 -27.057018394890015 $246 $370 forward 7 unknown #
coedge $-1 $371 $147 $369 $372 reversed $250 $-1 #
coedge $-1 $147 $371 $366 $373 forward $250 $-1 #
loop $-1 $-1 $147 $353 #
vertex $-1 $245 $374 #
vertex $-1 $148 $375 #
straight-curve $-1 61.157872249519329 0 3.981186517345261 0 1 0 I I #
face $-1 $-1 $376 $33 $-1 $377 forward single #
loop $-1 $-1 $260 $149 #
plane-surface $-1 0 0 6.981186517345261 0 0 1 1 0 0 forward_v I I I I #
coedge $-1 $378 $379 $259 $380 forward $150 $-1 #
coedge $-1 $259 $152 $154 $265 reversed $93 $-1 #
coedge $-1 $152 $258 $257 $380 reversed $93 $-1 #
coedge $-1 $381 $155 $152 $261 forward $255 $-1 #
edge $-1 $268 -14.983571826528312 $382 -12.361486594990417 $260 $383 forward 7 unknown #
coedge $-1 $154 $153 $378 $384 reversed $60 $-1 #
coedge $-1 $385 $386 $153 $264 forward $376 $-1 #
edge $-1 $387 -42.734773607055345 $267 -38.475801133346977 $263 $388 forward 7 unknown #
edge $-1 $389 -64.233777076546758 $268 -59.97480460283839 $258 $390 forward 7 unknown #
coedge $-1 $155 $381 $385 $391 forward $255 $-1 #
vertex $-1 $264 $392 #
vertex $-1 $156 $393 #
straight-curve $-1 -23.236913418903093 29.494803306735484 6.9811865173452645 1 0 0 I I #
coedge $-1 $270 $270 $-1 $394 reversed $159 $-1 #
edge $-1 $395 0 $395 6.2831853071796004 $160 $396 forward 7 unknown #
vertex $-1 $163 $397 #
ellipse-curve $-1 -50.754464740043446 30.805845922504428 5.303128445468988 0 0.78801076186113728 0.61566146476048833 1 0 0 1 I I #
coedge $-1 $274 $274 $-1 $398 reversed $166 $-1 #
edge $-1 $399 0 $399 6.2831853071796004 $167 $400 forward 7 unknown #
vertex $-1 $170 $401 #
ellipse-curve $-1 -42.193188935568926 30.805845922504428 5.303128445468988 0 0.78801076186113728 0.61566146476048833 1 0 0 1 I I #
face $-1 $-1 $402 $36 $-1 $403 reversed single #
loop $-1 $-1 $177 $171 #
plane-surface $-1 0 0 6.981186517345261 0 0 1 1 0 0 forward_v I I I I #
coedge $-1 $404 $405 $406 $407 reversed $172 $-1 #
coedge $-1 $408 $174 $176 $288 forward $107 $-1 #
coedge $-1 $174 $408 $404 $409 forward $107 $-1 #
coedge $-1 $406 $177 $174 $285 forward $279 $-1 #
edge $-1 $291 -30.331730949451362 $410 -13.125533418585057 $284 $411 forward 7 unknown #
coedge $-1 $412 $413 $175 $287 forward $402 $-1 #
edge $-1 $414 -29.422354706732982 $290 -22.896306734081325 $286 $415 forward 7 unknown #
edge $-1 $291 -7.4615834316167486 $414 -1.4660094457350279e-014 $176 $416 forward 7 unknown #
coedge $-1 $177 $406 $412 $417 forward $279 $-1 #
vertex $-1 $287 $418 #
vertex $-1 $178 $419 #
straight-curve $-1 52.060363133469572 -69.548325051611016 6.981186517345261 0 1 0 I I #
coedge $-1 $293 $293 $-1 $420 reversed $181 $-1 #
edge $-1 $421 0 $421 6.2831853071796004 $182 $422 forward 7 unknown #
vertex $-1 $185 $423 #
ellipse-curve $-1 38.295405108776535 -30.30816487463467 3.7181625310194333 0 -0.87461971476443456 0.48480960649040278 1.5 0 0 1 I I #
coedge $-1 $297 $297 $-1 $424 reversed $188 $-1 #
edge $-1 $425 0 $425 6.2831853071796004 $189 $426 forward 7 unknown #
vertex $-1 $192 $427 #
ellipse-curve $-1 43.457264368036434 -30.30816487463467 3.7181625310194333 0 -0.87461971476443456 0.48480960649040278 1.5 0 0 1 I I #
coedge $-1 $301 $301 $-1 $428 reversed $195 $-1 #
edge $-1 $429 0 $429 6.2831853071796004 $196 $430 forward 7 unknown #
vertex $-1 $199 $431 #
ellipse-curve $-1 48.619123627296332 -30.30816487463467 3.7181625310194333 0 -0.87461971476443456 0.48480960649040278 1.5 0 0 1 I I #
face $-1 $-1 $215 $30 $-1 $432 reversed single #
loop $-1 $-1 $321 $200 #
plane-surface $-1 0 32.116888538273379 0 0 -1 0 0 0 -1 forward_v I I I I #
coedge $-1 $433 $319 $322 $434 forward $201 $-1 #
coedge $-1 $325 $203 $204 $313 reversed $126 $-1 #
coedge $-1 $319 $433 $203 $311 reversed $201 $-1 #
edge $-1 $326 -6.981186517345261 $435 6.981186517345261 $310 $436 forward 7 unknown #
coedge $-1 $205 $204 $433 $437 forward $81 $-1 #
edge $-1 $317 -61.157872249519329 $435 61.157872249519329 $309 $438 forward 7 unknown #
coedge $-1 $322 $321 $205 $315 reversed $306 $-1 #
edge $-1 $439 -61.157872249519329 $316 61.157872249519329 $314 $440 forward 7 unknown #
vertex $-1 $207 $441 #
vertex $-1 $328 $442 #
straight-curve $-1 61.157872249519329 0 -6.981186517345261 0 -1 0 I I #
coedge $-1 $308 $310 $208 $320 reversed $201 $-1 #
edge $-1 $323 -32.116888538273379 $326 32.116888538273379 $319 $443 forward 7 unknown #
coedge $-1 $314 $209 $214 $329 forward $306 $-1 #
coedge $-1 $209 $314 $308 $434 reversed $306 $-1 #
vertex $-1 $210 $444 #
straight-curve $-1 0 32.116888538273379 6.981186517345261 -1 0 0 I I #
coedge $-1 $211 $309 $213 $328 reversed $126 $-1 #
vertex $-1 $320 $445 #
straight-curve $-1 0 -32.116888538273379 6.981186517345261 1 0 0 I I #
edge $-1 $216 -6.981186517345261 $317 6.981186517345261 $213 $446 forward 7 unknown #
edge $-1 $217 -6.981186517345261 $316 6.981186517345261 $214 $447 forward 7 unknown #
point $-1 61.157872249519329 -32.116888538273379 6.981186517345261 #
point $-1 61.157872249519329 32.116888538273379 6.981186517345261 #
face $-1 $-1 $341 $31 $-1 $448 reversed single #
loop $-1 $-1 $338 $219 #
plane-surface $-1 0 0 6.981186517345261 0 0 1 1 0 0 forward_v I I I I #
coedge $-1 $449 $450 $226 $344 forward $220 $-1 #
coedge $-1 $222 $348 $451 $452 reversed $134 $-1 #
edge $-1 $453 -4.2405932586726305 $232 -1.2405932586726305 $222 $454 forward 7 unknown #
coedge $-1 $451 $455 $223 $339 forward $333 $-1 #
edge $-1 $342 -32.116888538273379 $453 32.116888538273379 $338 $456 forward 7 unknown #
coedge $-1 $345 $224 $455 $457 reversed $341 $-1 #
loop $-1 $-1 $224 $332 #
vertex $-1 $225 $458 #
straight-curve $-1 -56.461981943026458 -32.116888538273379 2.7405932586726305 0 0 1 I I #
edge $-1 $349 -32.116888538273379 $346 32.116888538273379 $335 $459 forward 7 unknown #
coedge $-1 $227 $340 $449 $460 forward $341 $-1 #
vertex $-1 $344 $461 #
straight-curve $-1 -29.404963548136447 -32.116888538273379 3.981186517345261 1 0 0 I I #
coedge $-1 $336 $229 $450 $462 reversed $134 $-1 #
vertex $-1 $344 $463 #
straight-curve $-1 -29.404963548136447 32.116888538273379 3.981186517345261 -1 0 0 I I #
point $-1 -56.461981943026458 32.116888538273379 3.981186517345261 #
point $-1 -56.461981943026458 -32.116888538273379 3.981186517345261 #
face $-1 $-1 $250 $32 $-1 $464 reversed single #
loop $-1 $-1 $241 $235 #
plane-surface $-1 0 32.116888538273379 0 0 -1 0 0 0 -1 forward_v I I I I #
coedge $-1 $244 $465 $360 $466 forward $236 $-1 #
coedge $-1 $467 $238 $465 $468 forward $142 $-1 #
coedge $-1 $238 $467 $362 $469 forward $142 $-1 #
edge $-1 $364 -32.116888538273379 $470 32.116888538273379 $238 $471 forward 7 unknown #
coedge $-1 $240 $239 $356 $466 reversed $89 $-1 #
edge $-1 $367 -32.116888538273379 $363 32.116888538273379 $239 $472 forward 7 unknown #
coedge $-1 $369 $241 $358 $469 reversed $354 $-1 #
vertex $-1 $247 $473 #
vertex $-1 $242 $474 #
straight-curve $-1 56.461981943026466 32.116888538273379 2.7405932586726305 0 0 1 I I #
coedge $-1 $465 $244 $249 $373 reversed $236 $-1 #
vertex $-1 $245 $475 #
straight-curve $-1 29.40496354813645 -32.116888538273379 3.981186517345261 1 0 0 I I #
coedge $-1 $246 $362 $248 $372 forward $354 $-1 #
straight-curve $-1 29.40496354813645 32.116888538273379 3.981186517345261 -1 0 0 I I #
coedge $-1 $249 $248 $467 $476 reversed $250 $-1 #
edge $-1 $477 -6.981186517345261 $252 -3.981186517345261 $248 $478 forward 7 unknown #
edge $-1 $479 -6.981186517345261 $251 -3.981186517345261 $249 $480 forward 7 unknown #
point $-1 61.157872249519336 -32.116888538273379 3.981186517345261 #
point $-1 61.157872249519336 32.116888538273379 3.981186517345261 #
loop $-1 $-1 $263 $254 #
plane-surface $-1 -56.461981943026458 0 5.481186517345261 -1 0 0 0 0 1 forward_v I I I I #
coedge $-1 $481 $257 $262 $384 forward $150 $-1 #
coedge $-1 $257 $481 $381 $482 reversed $150 $-1 #
edge $-1 $382 57.792347685879022 $389 61.148463829631567 $257 $483 forward 7 unknown #
coedge $-1 $266 $260 $379 $482 forward $255 $-1 #
vertex $-1 $482 $484 #
straight-curve $-1 -36.485671732585907 44.478375133263796 6.9811865173452645 0 1 0 I I #
edge $-1 $389 13.248758313682814 $387 33.225068524123373 $378 $485 forward 7 unknown #
coedge $-1 $386 $263 $266 $391 reversed $376 $-1 #
coedge $-1 $263 $385 $481 $486 reversed $376 $-1 #
vertex $-1 $486 $487 #
straight-curve $-1 -56.461981943026458 5.8067352231458287 37.300531881651622 0 -0.61566146476048833 0.78801076186113728 I I #
vertex $-1 $384 $488 #
straight-curve $-1 -36.485671732585907 -7.4293727437720776 54.241977984900785 0 -0.61566146476048833 0.78801076186113728 I I #
edge $-1 $489 -32.116888538273379 $267 -29.494803306735484 $266 $490 forward 7 unknown #
point $-1 -56.461981943026466 29.494803306735484 6.9811865173452645 #
point $-1 -36.485671732585907 29.494803306735484 6.9811865173452645 #
edge $-1 $491 1 $491 0 $270 $-1 forward 7 unknown #
vertex $-1 $271 $492 #
ellipse-curve $-1 -50.754464740043446 28.126941207188434 3.2101387544527369 0 0.78801076186113728 0.61566146476048833 1 0 0 1 I I #
point $-1 -49.754464740043446 30.805845922504439 5.3031284454689986 #
edge $-1 $493 1 $493 0 $274 $-1 forward 7 unknown #
vertex $-1 $275 $494 #
ellipse-curve $-1 -42.193188935568926 28.126941207188434 3.2101387544527369 0 0.78801076186113728 0.61566146476048833 1 0 0 1 I I #
point $-1 -41.193188935568926 30.805845922504439 5.3031284454689986 #
loop $-1 $-1 $286 $278 #
plane-surface $-1 0 -32.116888538273379 0 0 1 0 0 0 1 forward_v I I I I #
coedge $-1 $405 $281 $283 $409 reversed $172 $-1 #
coedge $-1 $281 $404 $495 $496 reversed $172 $-1 #
coedge $-1 $289 $284 $281 $407 forward $279 $-1 #
edge $-1 $410 -41.048883840615055 $497 -37.431436513337637 $406 $498 forward 7 unknown #
coedge $-1 $283 $282 $413 $499 reversed $107 $-1 #
edge $-1 $500 1.4660094457350279e-014 $410 7.4615834316167486 $404 $501 forward 7 unknown #
vertex $-1 $285 $502 #
straight-curve $-1 21.72863218401821 -28.499441210995965 6.981186517345261 -1 0 0 I I #
coedge $-1 $495 $286 $289 $417 reversed $402 $-1 #
coedge $-1 $286 $495 $408 $499 forward $402 $-1 #
vertex $-1 $287 $503 #
straight-curve $-1 52.060363133469572 -32.116888538273379 29.877493251426586 0 0 1 I I #
straight-curve $-1 52.060363133469572 -32.116888538273386 0.45513854469358961 0 -0.48480960649040278 -0.87461971476443456 I I #
edge $-1 $497 34.854165602603267 $290 52.060363133469572 $412 $504 forward 7 unknown #
point $-1 52.060363133469572 -32.116888538273379 6.981186517345261 #
point $-1 52.060363133469572 -28.499441210995961 6.981186517345261 #
edge $-1 $505 1 $505 0 $293 $-1 forward 7 unknown #
vertex $-1 $294 $506 #
ellipse-curve $-1 38.295405108776535 -28.419445928534202 2.6712285623784942 0 -0.87461971476443456 0.48480960649040278 1.5 0 0 1 I I #
point $-1 39.795405108776535 -30.30816487463467 3.7181625310194333 #
edge $-1 $507 1 $507 0 $297 $-1 forward 7 unknown #
vertex $-1 $298 $508 #
ellipse-curve $-1 43.457264368036434 -28.419445928534202 2.6712285623784942 0 -0.87461971476443456 0.48480960649040278 1.5 0 0 1 I I #
point $-1 44.957264368036434 -30.30816487463467 3.7181625310194333 #
edge $-1 $509 1 $509 0 $301 $-1 forward 7 unknown #
vertex $-1 $302 $510 #
ellipse-curve $-1 48.619123627296332 -28.419445928534202 2.6712285623784942 0 -0.87461971476443456 0.48480960649040278 1.5 0 0 1 I I #
point $-1 50.119123627296332 -30.30816487463467 3.7181625310194333 #
plane-surface $-1 61.157872249519329 0 0 -1 0 0 0 0 1 forward_v I I I I #
coedge $-1 $310 $308 $312 $437 reversed $201 $-1 #
edge $-1 $323 -6.981186517345261 $439 6.981186517345261 $322 $511 forward 7 unknown #
vertex $-1 $437 $512 #
straight-curve $-1 -61.157872249519329 -32.116888538273379 0 0 0 -1 I I #
edge $-1 $435 -32.116888538273379 $439 32.116888538273379 $433 $513 forward 7 unknown #
straight-curve $-1 0 -32.116888538273379 -6.981186517345261 -1 0 0 I I #
vertex $-1 $315 $514 #
straight-curve $-1 0 32.116888538273379 -6.981186517345261 1 0 0 I I #
point $-1 61.157872249519329 32.116888538273379 -6.981186517345261 #
point $-1 61.157872249519329 -32.116888538273379 -6.981186517345261 #
straight-curve $-1 -61.157872249519329 0 6.981186517345261 0 -1 0 I I #
point $-1 -61.157872249519329 32.116888538273379 6.981186517345261 #
point $-1 -61.157872249519329 -32.116888538273379 6.981186517345261 #
straight-curve $-1 61.157872249519329 -32.116888538273379 0 0 0 -1 I I #
straight-curve $-1 61.157872249519329 32.116888538273379 0 0 0 -1 I I #
plane-surface $-1 0 -32.116888538273379 0 0 1 0 0 0 1 forward_v I I I I #
coedge $-1 $515 $335 $345 $460 reversed $220 $-1 #
coedge $-1 $335 $515 $348 $462 forward $220 $-1 #
coedge $-1 $516 $338 $336 $452 forward $333 $-1 #
edge $-1 $453 56.461981943026458 $517 61.157872249519329 $336 $518 forward 7 unknown #
vertex $-1 $452 $519 #
straight-curve $-1 -56.461981943026458 32.116888538273379 2.7405932586726305 0 0 -1 I I #
coedge $-1 $338 $516 $340 $457 forward $333 $-1 #
straight-curve $-1 -56.461981943026458 0 6.981186517345261 0 1 0 I I #
edge $-1 $520 -61.157872249519329 $342 -56.461981943026458 $340 $521 forward 7 unknown #
point $-1 -56.461981943026458 -32.116888538273379 6.981186517345261 #
straight-curve $-1 -61.157872249519329 0 3.981186517345261 0 -1 0 I I #
edge $-1 $520 -6.981186517345261 $346 -3.981186517345261 $449 $522 forward 7 unknown #
point $-1 -61.157872249519329 -32.116888538273379 3.981186517345261 #
edge $-1 $517 -6.981186517345261 $349 -3.981186517345261 $348 $523 forward 7 unknown #
point $-1 -61.157872249519329 32.116888538273379 3.981186517345261 #
plane-surface $-1 61.157872249519329 0 0 -1 0 0 0 0 1 forward_v I I I I #
coedge $-1 $356 $366 $357 $468 reversed $236 $-1 #
edge $-1 $470 -4.2405932586726305 $367 -1.2405932586726305 $356 $524 forward 7 unknown #
coedge $-1 $358 $357 $371 $476 forward $142 $-1 #
edge $-1 $470 56.461981943026466 $479 61.157872249519329 $465 $525 forward 7 unknown #
edge $-1 $477 -61.157872249519329 $364 -56.461981943026466 $362 $526 forward 7 unknown #
vertex $-1 $468 $527 #
straight-curve $-1 56.461981943026466 0 6.981186517345261 0 -1 0 I I #
straight-curve $-1 56.461981943026466 0 3.981186517345261 0 1 0 I I #
point $-1 56.461981943026466 32.116888538273379 3.981186517345261 #
point $-1 56.461981943026466 32.116888538273379 6.981186517345261 #
point $-1 56.461981943026466 -32.116888538273379 3.981186517345261 #
edge $-1 $479 -32.116888538273379 $477 32.116888538273379 $371 $528 forward 7 unknown #
vertex $-1 $476 $529 #
straight-curve $-1 61.157872249519329 32.116888538273379 0 0 0 -1 I I #
vertex $-1 $476 $530 #
straight-curve $-1 61.157872249519329 -32.116888538273379 0 0 0 -1 I I #
coedge $-1 $379 $378 $386 $486 forward $150 $-1 #
edge $-1 $382 36.485671732585907 $489 56.461981943026458 $379 $531 forward 7 unknown #
straight-curve $-1 -36.485671732585907 32.116888538273379 64.773534203224287 0 0 -1 I I #
point $-1 -36.485671732585907 32.116888538273379 6.981186517345261 #
straight-curve $-1 -23.236913418903093 32.116888538273379 3.6250703735927203 -1 0 0 I I #
edge $-1 $387 -61.148463829631567 $489 -57.792347685879022 $481 $532 forward 7 unknown #
point $-1 -56.461981943026466 32.116888538273379 3.6250703735927203 #
point $-1 -36.485671732585907 32.116888538273379 3.6250703735927203 #
vertex $-1 $391 $533 #
straight-curve $-1 -56.461981943026458 0 6.981186517345261 0 -1 0 I I #
vertex $-1 $394 $534 #
point $-1 -49.754464740043446 28.126941207188434 3.2101387544527369 #
vertex $-1 $398 $535 #
point $-1 -41.193188935568926 28.126941207188434 3.2101387544527369 #
coedge $-1 $413 $412 $405 $496 forward $402 $-1 #
edge $-1 $497 22.896306734081325 $500 29.422354706732982 $495 $536 forward 7 unknown #
vertex $-1 $417 $537 #
straight-curve $-1 34.854165602603267 -69.548325051611016 6.981186517345261 0 -1 0 I I #
edge $-1 $500 13.125533418585057 $414 30.331730949451362 $413 $538 forward 7 unknown #
vertex $-1 $499 $539 #
straight-curve $-1 34.854165602603267 -32.116888538273386 0.45513854469358961 0 0.48480960649040278 0.87461971476443456 I I #
point $-1 34.854165602603267 -28.499441210995961 6.981186517345261 #
point $-1 52.060363133469572 -32.116888538273379 0.45513854469360243 #
straight-curve $-1 0 -32.116888538273379 6.981186517345261 1 0 0 I I #
vertex $-1 $420 $540 #
point $-1 39.795405108776535 -28.419445928534202 2.6712285623784942 #
vertex $-1 $424 $541 #
point $-1 44.957264368036434 -28.419445928534202 2.6712285623784942 #
vertex $-1 $428 $542 #
point $-1 50.119123627296332 -28.419445928534202 2.6712285623784942 #
straight-curve $-1 -61.157872249519329 32.116888538273379 0 0 0 -1 I I #
point $-1 -61.157872249519329 -32.116888538273379 -6.981186517345261 #
straight-curve $-1 -61.157872249519329 0 -6.981186517345261 0 1 0 I I #
point $-1 -61.157872249519329 32.116888538273379 -6.981186517345261 #
coedge $-1 $450 $449 $516 $543 reversed $220 $-1 #
coedge $-1 $455 $451 $515 $543 forward $333 $-1 #
vertex $-1 $452 $544 #
straight-curve $-1 0 32.116888538273379 6.981186517345261 -1 0 0 I I #
point $-1 -56.461981943026458 32.116888538273379 6.981186517345261 #
vertex $-1 $543 $545 #
straight-curve $-1 0 -32.116888538273379 6.981186517345261 1 0 0 I I #
straight-curve $-1 -61.157872249519329 -32.116888538273379 0 0 0 -1 I I #
straight-curve $-1 -61.157872249519329 32.116888538273379 0 0 0 -1 I I #
straight-curve $-1 56.461981943026466 -32.116888538273379 2.7405932586726305 0 0 -1 I I #
straight-curve $-1 0 -32.116888538273379 6.981186517345261 1 0 0 I I #
straight-curve $-1 0 32.116888538273379 6.981186517345261 -1 0 0 I I #
point $-1 56.461981943026466 -32.116888538273379 6.981186517345261 #
straight-curve $-1 61.157872249519329 0 6.981186517345261 0 1 0 I I #
point $-1 61.157872249519329 32.116888538273379 6.981186517345261 #
point $-1 61.157872249519329 -32.116888538273379 6.981186517345261 #
straight-curve $-1 0 32.116888538273379 6.981186517345261 -1 0 0 I I #
straight-curve $-1 -56.461981943026466 32.116888538273379 64.773534203224287 0 0 1 I I #
point $-1 -56.461981943026458 32.116888538273379 6.981186517345261 #
point $-1 -50.754464740043446 27.338930445327296 2.5944772896922488 #
point $-1 -42.193188935568926 27.338930445327296 2.5944772896922488 #
straight-curve $-1 34.854165602603267 -32.116888538273379 29.877493251426586 0 0 -1 I I #
point $-1 34.854165602603267 -32.116888538273379 6.981186517345261 #
straight-curve $-1 21.72863218401821 -32.116888538273379 0.45513854469361203 1 0 0 I I #
point $-1 34.854165602603267 -32.116888538273379 0.45513854469360243 #
point $-1 38.295405108776535 -27.107516356387549 1.9440141526428902 #
point $-1 43.457264368036434 -27.107516356387549 1.9440141526428902 #
point $-1 48.619123627296332 -27.107516356387549 1.9440141526428902 #
edge $-1 $517 -32.116888538273379 $520 32.116888538273379 $515 $546 forward 7 unknown #
point $-1 -61.157872249519329 32.116888538273379 6.981186517345261 #
point $-1 -61.157872249519329 -32.116888538273379 6.981186517345261 #
straight-curve $-1 -61.157872249519329 0 6.981186517345261 0 -1 0 I I #
End-of-ACIS-data 