500 0 5 0           
7 Unknown 11 ACIS 5.0 NT 24 Fri Mar 26 02:32:37 1999 
-1 9.9999999999999995e-007 1e-010 
body $-1 $5 $-1 $6 #
body $-1 $7 $-1 $8 #
body $-1 $9 $-1 $10 #
body $-1 $11 $-1 $12 #
body $-1 $13 $-1 $14 #
lump $-1 $-1 $15 $0 #
transform $-1 1 0 0 0 1 0 0 0 1 75.739616077150799 35.838496822760703 15.186654629160882 1 rotate no_reflect no_shear #
lump $-1 $-1 $16 $1 #
transform $-1 1 0 0 0 1 0 0 0 1 75.739616077150799 35.838496822760703 15.186654629160882 1 rotate no_reflect no_shear #
lump $-1 $-1 $17 $2 #
transform $-1 1 0 0 0 1 0 0 0 1 75.739616077150799 35.838496822760703 15.186654629160882 1 rotate no_reflect no_shear #
lump $-1 $-1 $18 $3 #
transform $-1 1 0 0 0 1 0 0 0 1 75.739616077150799 35.838496822760703 15.186654629160882 1 rotate no_reflect no_shear #
lump $-1 $-1 $19 $4 #
transform $-1 1 0 0 0 1 0 0 0 1 75.739616077150799 35.838496822760703 15.186654629160882 1 rotate no_reflect no_shear #
shell $-1 $-1 $-1 $20 $-1 $5 #
shell $-1 $-1 $-1 $21 $-1 $7 #
shell $-1 $-1 $-1 $22 $-1 $9 #
shell $-1 $-1 $-1 $23 $-1 $11 #
shell $-1 $-1 $-1 $24 $-1 $13 #
face $-1 $25 $26 $15 $-1 $27 forward single #
face $-1 $28 $29 $16 $-1 $30 reversed single #
face $-1 $31 $32 $17 $-1 $33 reversed single #
face $-1 $34 $35 $18 $-1 $36 forward single #
face $-1 $37 $38 $19 $-1 $39 forward single #
face $-1 $40 $41 $15 $-1 $42 reversed single #
loop $-1 $-1 $43 $20 #
plane-surface $-1 0 0 15.186654629160882 0 0 1 1 0 0 forward_v I I I I #
face $-1 $44 $45 $16 $-1 $46 reversed single #
loop $-1 $-1 $47 $21 #
plane-surface $-1 -72.787888810793277 -19.155710839636939 0 0 -1 0 0 0 -1 forward_v I I I I #
face $-1 $48 $49 $17 $-1 $50 reversed single #
loop $-1 $-1 $51 $22 #
plane-surface $-1 -14.361561521123555 123.84158392961956 154.56053791992596 1 0 0 0 -0.83867057594974714 -0.54463902268945019 forward_v I I I I #
face $-1 $52 $53 $18 $-1 $54 forward single #
loop $-1 $55 $56 $23 #
cone-surface $-1 -7.6682332253039505 34.352462334880215 13.284525432689222 0 -0.83867057594974714 -0.54463902268945019 0.5 0 0 1 I I 0 1 0.5 forward I I I I #
face $-1 $57 $58 $19 $-1 $59 forward single #
loop $-1 $60 $61 $24 #
cone-surface $-1 2.3717592184254528 34.352462334880215 13.284525432689222 0 -0.83867057594974714 -0.54463902268945019 0.5 0 0 1 I I 0 1 0.5 forward I I I I #
face $-1 $62 $63 $15 $-1 $64 reversed single #
loop $-1 $-1 $65 $25 #
plane-surface $-1 0 0 -15.186654629160882 0 0 1 1 0 0 forward_v I I I I #
coedge $-1 $66 $67 $68 $69 forward $26 $-1 #
face $-1 $70 $71 $16 $-1 $72 forward single #
loop $-1 $-1 $73 $28 #
plane-surface $-1 -69.836161544435754 -27.497103831198821 0 -1 0 0 0 0 1 forward_v I I I I #
coedge $-1 $74 $75 $76 $77 forward $29 $-1 #
face $-1 $78 $79 $17 $-1 $80 reversed single #
loop $-1 $-1 $81 $31 #
plane-surface $-1 -2.6482370034392488 -3.1995909456540232 72.059036961658805 0 0.83867057594974714 0.54463902268945019 1 0 0 forward_v I I I I #
coedge $-1 $82 $83 $84 $85 reversed $32 $-1 #
face $-1 $-1 $86 $18 $-1 $87 forward single #
loop $-1 $88 $89 $34 #
cone-surface $-1 -7.6682332253039505 33.709126216403064 12.866738085814164 0 -0.83867057594974714 -0.54463902268945019 0.25 0 0 1 I I -0.70710678118654746 0.70710678118654746 0.25 forward I I I I #
loop $-1 $-1 $90 $23 #
coedge $-1 $56 $56 $91 $92 reversed $35 $-1 #
face $-1 $-1 $93 $19 $-1 $94 forward single #
loop $-1 $95 $96 $37 #
cone-surface $-1 2.3717592184254528 33.709126216403064 12.866738085814164 0 -0.83867057594974714 -0.54463902268945019 0.25 0 0 1 I I -0.70710678118654746 0.70710678118654746 0.25 forward I I I I #
loop $-1 $-1 $97 $24 #
coedge $-1 $61 $61 $98 $99 reversed $38 $-1 #
face $-1 $100 $101 $15 $-1 $102 reversed single #
loop $-1 $-1 $103 $40 #
plane-surface $-1 0 -35.838496822760703 0 0 1 0 0 0 1 forward_v I I I I #
coedge $-1 $104 $105 $106 $107 forward $41 $-1 #
coedge $-1 $108 $43 $109 $110 forward $26 $-1 #
coedge $-1 $43 $108 $111 $112 forward $26 $-1 #
coedge $-1 $113 $114 $43 $69 reversed $115 $-1 #
edge $-1 $116 -35.838496822760703 $117 35.838496822760703 $68 $118 forward 7 unknown #
face $-1 $119 $120 $16 $-1 $121 reversed single #
loop $-1 $-1 $122 $44 #
plane-surface $-1 0 0 15.186654629160882 0 0 1 1 0 0 forward_v I I I I #
coedge $-1 $123 $124 $125 $126 reversed $45 $-1 #
coedge $-1 $127 $47 $128 $129 reversed $29 $-1 #
coedge $-1 $47 $127 $130 $131 reversed $29 $-1 #
coedge $-1 $124 $123 $47 $77 reversed $45 $-1 #
edge $-1 $132 -15.186654629160882 $133 15.186654629160882 $76 $134 forward 7 unknown #
face $-1 $135 $136 $17 $-1 $137 reversed single #
loop $-1 $-1 $138 $48 #
plane-surface $-1 9.0650875142450573 123.84158392961956 154.56053791992596 -1 0 0 0 0.83867057594974714 0.54463902268945019 forward_v I I I I #
coedge $-1 $139 $140 $141 $142 reversed $49 $-1 #
coedge $-1 $83 $51 $143 $144 reversed $32 $-1 #
coedge $-1 $51 $82 $139 $145 reversed $32 $-1 #
coedge $-1 $141 $146 $51 $85 forward $147 $-1 #
edge $-1 $148 26.082295142049077 $149 28.187027168830596 $84 $150 forward 7 unknown #
loop $-1 $-1 $91 $52 #
plane-surface $-1 -2.6482370034392488 -3.1995909456540232 72.059036961658805 0 0.83867057594974714 0.54463902268945019 1 0 0 forward_v I I I I #
loop $-1 $-1 $151 $34 #
coedge $-1 $89 $89 $90 $152 reversed $53 $-1 #
coedge $-1 $90 $90 $89 $152 forward $55 $-1 #
coedge $-1 $91 $91 $56 $92 forward $86 $-1 #
edge $-1 $153 1.0137552539435583e-014 $153 6.2831853071796102 $91 $154 forward 7 unknown #
loop $-1 $-1 $98 $57 #
plane-surface $-1 -2.6482370034392488 -3.1995909456540232 72.059036961658805 0 0.83867057594974714 0.54463902268945019 1 0 0 forward_v I I I I #
loop $-1 $-1 $155 $37 #
coedge $-1 $96 $96 $97 $156 reversed $58 $-1 #
coedge $-1 $97 $97 $96 $156 forward $60 $-1 #
coedge $-1 $98 $98 $61 $99 forward $93 $-1 #
edge $-1 $157 1.0137552539435583e-014 $157 6.2831853071796102 $98 $158 forward 7 unknown #
face $-1 $159 $160 $15 $-1 $161 reversed single #
loop $-1 $-1 $162 $62 #
plane-surface $-1 -75.739616077150799 0 0 1 0 0 0 0 -1 forward_v I I I I #
coedge $-1 $163 $111 $164 $165 forward $63 $-1 #
coedge $-1 $166 $65 $163 $167 forward $41 $-1 #
coedge $-1 $65 $166 $168 $169 forward $41 $-1 #
coedge $-1 $114 $113 $65 $107 reversed $115 $-1 #
edge $-1 $170 -35.838496822760703 $171 35.838496822760703 $106 $172 forward 7 unknown #
coedge $-1 $67 $66 $173 $174 forward $26 $-1 #
coedge $-1 $175 $176 $66 $110 reversed $160 $-1 #
edge $-1 $117 -75.739616077150799 $177 75.739616077150799 $109 $178 forward 7 unknown #
coedge $-1 $103 $179 $67 $112 reversed $63 $-1 #
edge $-1 $180 -75.739616077150799 $116 75.739616077150799 $111 $181 forward 7 unknown #
coedge $-1 $106 $68 $179 $182 forward $115 $-1 #
coedge $-1 $68 $106 $175 $183 reversed $115 $-1 #
loop $-1 $-1 $113 $159 #
vertex $-1 $69 $184 #
vertex $-1 $69 $185 #
straight-curve $-1 75.739616077150799 0 15.186654629160882 0 1 0 I I #
face $-1 $186 $187 $16 $-1 $188 reversed single #
loop $-1 $-1 $189 $70 #
plane-surface $-1 -75.739616077150799 0 0 1 0 0 0 0 -1 forward_v I I I I #
coedge $-1 $130 $190 $124 $191 forward $71 $-1 #
coedge $-1 $76 $73 $192 $193 reversed $45 $-1 #
coedge $-1 $73 $76 $122 $191 reversed $45 $-1 #
coedge $-1 $194 $195 $73 $126 forward $196 $-1 #
edge $-1 $197 -15.186654629160882 $198 15.186654629160882 $125 $199 forward 7 unknown #
coedge $-1 $75 $74 $189 $200 reversed $29 $-1 #
coedge $-1 $192 $201 $74 $129 forward $187 $-1 #
edge $-1 $202 -39.345671671754161 $133 -33.442217139039116 $128 $203 forward 7 unknown #
coedge $-1 $204 $122 $75 $131 forward $71 $-1 #
edge $-1 $132 33.442217139039116 $205 39.345671671754161 $130 $206 forward 7 unknown #
vertex $-1 $131 $207 #
vertex $-1 $129 $208 #
straight-curve $-1 -69.836161544435754 -19.155710839636939 0 0 0 -1 I I #
face $-1 $-1 $147 $17 $-1 $209 forward single #
loop $-1 $-1 $210 $78 #
plane-surface $-1 0 35.838496822760703 0 0 -1 0 0 0 -1 forward_v I I I I #
coedge $-1 $211 $212 $213 $214 reversed $79 $-1 #
coedge $-1 $215 $81 $83 $145 forward $49 $-1 #
coedge $-1 $81 $215 $211 $216 forward $49 $-1 #
coedge $-1 $213 $84 $81 $142 forward $147 $-1 #
edge $-1 $149 -13.037443019403931 $217 10.389206015964682 $141 $218 forward 7 unknown #
coedge $-1 $219 $220 $82 $144 forward $136 $-1 #
edge $-1 $221 -65.334617541340009 $148 -62.093614330802097 $143 $222 forward 7 unknown #
edge $-1 $149 67.812540422195156 $221 71.676993645521435 $83 $223 forward 7 unknown #
coedge $-1 $84 $213 $219 $224 forward $147 $-1 #
loop $-1 $-1 $213 $135 #
vertex $-1 $144 $225 #
vertex $-1 $85 $226 #
straight-curve $-1 -14.361561521123555 61.92079196480978 15.186654629160884 0 -1 0 I I #
coedge $-1 $151 $151 $-1 $227 reversed $88 $-1 #
edge $-1 $228 0 $228 6.2831853071796004 $89 $229 forward 7 unknown #
vertex $-1 $92 $230 #
ellipse-curve $-1 -7.6682332253039505 34.786130809369944 13.566153023891927 0 0.83867057594974714 0.54463902268945019 0.5 0 0 1 I I #
coedge $-1 $155 $155 $-1 $231 reversed $95 $-1 #
edge $-1 $232 0 $232 6.2831853071796004 $96 $233 forward 7 unknown #
vertex $-1 $99 $234 #
ellipse-curve $-1 2.3717592184254528 34.786130809369944 13.566153023891927 0 0.83867057594974714 0.54463902268945019 0.5 0 0 1 I I #
face $-1 $-1 $115 $15 $-1 $235 reversed single #
loop $-1 $-1 $175 $100 #
plane-surface $-1 0 35.838496822760703 0 0 -1 0 0 0 -1 forward_v I I I I #
coedge $-1 $236 $173 $176 $237 forward $101 $-1 #
coedge $-1 $179 $103 $104 $167 reversed $63 $-1 #
coedge $-1 $173 $236 $103 $165 reversed $101 $-1 #
edge $-1 $180 -15.186654629160882 $238 15.186654629160882 $164 $239 forward 7 unknown #
coedge $-1 $105 $104 $236 $240 forward $41 $-1 #
edge $-1 $171 -75.739616077150799 $238 75.739616077150799 $163 $241 forward 7 unknown #
coedge $-1 $176 $175 $105 $169 reversed $160 $-1 #
edge $-1 $242 -75.739616077150799 $170 75.739616077150799 $168 $243 forward 7 unknown #
vertex $-1 $107 $244 #
vertex $-1 $182 $245 #
straight-curve $-1 75.739616077150799 0 -15.186654629160882 0 -1 0 I I #
coedge $-1 $162 $164 $108 $174 reversed $101 $-1 #
edge $-1 $177 -35.838496822760703 $180 35.838496822760703 $173 $246 forward 7 unknown #
coedge $-1 $168 $109 $114 $183 forward $160 $-1 #
coedge $-1 $109 $168 $162 $237 reversed $160 $-1 #
vertex $-1 $110 $247 #
straight-curve $-1 0 35.838496822760703 15.186654629160882 -1 0 0 I I #
coedge $-1 $111 $163 $113 $182 reversed $63 $-1 #
vertex $-1 $174 $248 #
straight-curve $-1 0 -35.838496822760703 15.186654629160882 1 0 0 I I #
edge $-1 $116 -15.186654629160882 $171 15.186654629160882 $113 $249 forward 7 unknown #
edge $-1 $117 -15.186654629160882 $170 15.186654629160882 $114 $250 forward 7 unknown #
point $-1 75.739616077150799 -35.838496822760703 15.186654629160882 #
point $-1 75.739616077150799 35.838496822760703 15.186654629160882 #
face $-1 $-1 $196 $16 $-1 $251 reversed single #
loop $-1 $-1 $192 $119 #
plane-surface $-1 0 0 -15.186654629160882 0 0 1 1 0 0 forward_v I I I I #
coedge $-1 $252 $253 $127 $200 forward $120 $-1 #
coedge $-1 $122 $204 $194 $254 forward $71 $-1 #
edge $-1 $198 -22.089944907161293 $132 -5.4071589240375282 $122 $255 forward 7 unknown #
coedge $-1 $256 $128 $123 $193 forward $187 $-1 #
edge $-1 $133 5.4071589240375282 $197 22.089944907161293 $192 $257 forward 7 unknown #
coedge $-1 $258 $125 $190 $254 reversed $196 $-1 #
coedge $-1 $125 $258 $256 $259 reversed $196 $-1 #
loop $-1 $-1 $125 $186 #
vertex $-1 $259 $260 #
vertex $-1 $126 $261 #
straight-curve $-1 -69.836161544435754 -35.838496822760703 0 0 0 1 I I #
edge $-1 $205 -15.186654629160882 $202 15.186654629160882 $189 $262 forward 7 unknown #
coedge $-1 $128 $256 $252 $263 forward $187 $-1 #
vertex $-1 $129 $264 #
straight-curve $-1 -36.393944405396638 -19.155710839636939 -15.186654629160882 1 0 0 I I #
coedge $-1 $190 $130 $253 $265 forward $71 $-1 #
vertex $-1 $265 $266 #
straight-curve $-1 -36.393944405396638 -19.155710839636939 15.186654629160882 -1 0 0 I I #
point $-1 -69.836161544435754 -19.155710839636939 15.186654629160882 #
point $-1 -69.836161544435754 -19.155710839636939 -15.186654629160882 #
plane-surface $-1 0 0 15.186654629160882 0 0 1 1 0 0 forward_v I I I I #
coedge $-1 $220 $219 $212 $267 forward $136 $-1 #
coedge $-1 $212 $138 $140 $216 reversed $79 $-1 #
coedge $-1 $138 $211 $210 $267 reversed $79 $-1 #
coedge $-1 $146 $141 $138 $214 forward $147 $-1 #
edge $-1 $217 -28.187027168830596 $268 -26.082295142049077 $213 $269 forward 7 unknown #
coedge $-1 $140 $139 $220 $270 reversed $49 $-1 #
edge $-1 $271 -71.676993645521435 $217 -67.812540422195156 $211 $272 forward 7 unknown #
vertex $-1 $142 $273 #
straight-curve $-1 -1.3241185017196244 33.733764795979184 15.186654629160884 1 0 0 I I #
coedge $-1 $210 $143 $146 $224 reversed $136 $-1 #
coedge $-1 $143 $210 $215 $270 forward $136 $-1 #
vertex $-1 $144 $274 #
straight-curve $-1 -14.361561521123555 35.838496822760703 77.280268959962982 0 0 1 I I #
straight-curve $-1 -14.361561521123555 -3.1995909456540232 72.059036961658805 0 0.54463902268945019 -0.83867057594974714 I I #
edge $-1 $268 -9.0650875142450573 $148 14.361561521123555 $219 $275 forward 7 unknown #
point $-1 -14.361561521123555 35.838496822760703 15.186654629160882 #
point $-1 -14.361561521123555 33.733764795979184 15.186654629160884 #
edge $-1 $276 1 $276 0 $151 $-1 forward 7 unknown #
vertex $-1 $152 $277 #
ellipse-curve $-1 -7.6682332253039505 33.918793860390501 13.002897841486527 0 0.83867057594974714 0.54463902268945019 0.5 0 0 1 I I #
point $-1 -7.1682332253039505 34.786130809369936 13.566153023891916 #
edge $-1 $278 1 $278 0 $155 $-1 forward 7 unknown #
vertex $-1 $156 $279 #
ellipse-curve $-1 2.3717592184254528 33.918793860390501 13.002897841486527 0 0.83867057594974714 0.54463902268945019 0.5 0 0 1 I I #
point $-1 2.8717592184254528 34.786130809369936 13.566153023891916 #
plane-surface $-1 75.739616077150799 0 0 -1 0 0 0 0 1 forward_v I I I I #
coedge $-1 $164 $162 $166 $240 reversed $101 $-1 #
edge $-1 $177 -15.186654629160882 $242 15.186654629160882 $176 $280 forward 7 unknown #
vertex $-1 $240 $281 #
straight-curve $-1 -75.739616077150799 -35.838496822760703 0 0 0 -1 I I #
edge $-1 $238 -35.838496822760703 $242 35.838496822760703 $236 $282 forward 7 unknown #
straight-curve $-1 0 -35.838496822760703 -15.186654629160882 -1 0 0 I I #
vertex $-1 $169 $283 #
straight-curve $-1 0 35.838496822760703 -15.186654629160882 1 0 0 I I #
point $-1 75.739616077150799 35.838496822760703 -15.186654629160882 #
point $-1 75.739616077150799 -35.838496822760703 -15.186654629160882 #
straight-curve $-1 -75.739616077150799 0 15.186654629160882 0 -1 0 I I #
point $-1 -75.739616077150799 35.838496822760703 15.186654629160882 #
point $-1 -75.739616077150799 -35.838496822760703 15.186654629160882 #
straight-curve $-1 75.739616077150799 -35.838496822760703 0 0 0 -1 I I #
straight-curve $-1 75.739616077150799 35.838496822760703 0 0 0 -1 I I #
plane-surface $-1 0 -35.838496822760703 0 0 1 0 0 0 1 forward_v I I I I #
coedge $-1 $284 $189 $201 $263 reversed $120 $-1 #
coedge $-1 $189 $284 $204 $265 reversed $120 $-1 #
edge $-1 $285 -75.739616077150799 $198 -69.836161544435754 $194 $286 forward 7 unknown #
straight-curve $-1 -69.836161544435754 -13.74855191559941 15.186654629160882 0 1 0 I I #
coedge $-1 $201 $192 $195 $259 forward $187 $-1 #
straight-curve $-1 -69.836161544435754 -13.74855191559941 -15.186654629160882 0 -1 0 I I #
coedge $-1 $195 $194 $284 $287 forward $196 $-1 #
edge $-1 $197 69.836161544435754 $288 75.739616077150799 $195 $289 forward 7 unknown #
point $-1 -69.836161544435754 -35.838496822760703 -15.186654629160882 #
point $-1 -69.836161544435754 -35.838496822760703 15.186654629160882 #
straight-curve $-1 -75.739616077150799 -19.155710839636939 0 0 0 -1 I I #
edge $-1 $288 -35.838496822760703 $202 -19.155710839636939 $252 $290 forward 7 unknown #
point $-1 -75.739616077150799 -19.155710839636939 -15.186654629160882 #
edge $-1 $205 19.155710839636939 $285 35.838496822760703 $253 $291 forward 7 unknown #
point $-1 -75.739616077150799 -19.155710839636939 15.186654629160882 #
edge $-1 $268 62.093614330802097 $271 65.334617541340009 $210 $292 forward 7 unknown #
vertex $-1 $224 $293 #
straight-curve $-1 9.0650875142450573 61.92079196480978 15.186654629160884 0 1 0 I I #
edge $-1 $271 -10.389206015964682 $221 13.037443019403931 $220 $294 forward 7 unknown #
vertex $-1 $270 $295 #
straight-curve $-1 9.0650875142450573 -3.1995909456540232 72.059036961658805 0 -0.54463902268945019 0.83867057594974714 I I #
point $-1 9.0650875142450573 33.733764795979184 15.186654629160884 #
point $-1 -14.361561521123555 35.838496822760703 11.94565141862298 #
straight-curve $-1 0 35.838496822760703 15.186654629160882 -1 0 0 I I #
vertex $-1 $227 $296 #
point $-1 -7.1682332253039505 33.918793860390501 13.002897841486527 #
vertex $-1 $231 $297 #
point $-1 2.8717592184254528 33.918793860390501 13.002897841486527 #
straight-curve $-1 -75.739616077150799 35.838496822760703 0 0 0 -1 I I #
point $-1 -75.739616077150799 -35.838496822760703 -15.186654629160882 #
straight-curve $-1 -75.739616077150799 0 -15.186654629160882 0 1 0 I I #
point $-1 -75.739616077150799 35.838496822760703 -15.186654629160882 #
coedge $-1 $253 $252 $258 $287 reversed $120 $-1 #
vertex $-1 $265 $298 #
straight-curve $-1 0 -35.838496822760703 15.186654629160882 1 0 0 I I #
edge $-1 $285 -15.186654629160882 $288 15.186654629160882 $284 $299 forward 7 unknown #
vertex $-1 $263 $300 #
straight-curve $-1 0 -35.838496822760703 -15.186654629160882 -1 0 0 I I #
straight-curve $-1 -75.739616077150799 0 -15.186654629160882 0 1 0 I I #
straight-curve $-1 -75.739616077150799 0 15.186654629160882 0 -1 0 I I #
straight-curve $-1 9.0650875142450573 35.838496822760703 77.280268959962982 0 0 -1 I I #
point $-1 9.0650875142450573 35.838496822760703 15.186654629160882 #
straight-curve $-1 -1.3241185017196244 35.838496822760703 11.945651418622976 -1 0 0 I I #
point $-1 9.0650875142450573 35.838496822760703 11.94565141862298 #
point $-1 -7.6682332253039505 33.499458572415627 12.730578330141801 #
point $-1 2.3717592184254528 33.499458572415627 12.730578330141801 #
point $-1 -75.739616077150799 -35.838496822760703 15.186654629160882 #
straight-curve $-1 -75.739616077150799 -35.838496822760703 0 0 0 -1 I I #
point $-1 -75.739616077150799 -35.838496822760703 -15.186654629160882 #
End-of-ACIS-data 