500 0 15 0           
7 Unknown 11 ACIS 5.0 NT 24 Fri Mar 26 18:22:59 1999 
-1 9.9999999999999995e-007 1e-010 
body $-1 $15 $-1 $16 #
body $-1 $17 $-1 $18 #
body $-1 $19 $-1 $20 #
body $-1 $21 $-1 $22 #
body $-1 $23 $-1 $24 #
body $-1 $25 $-1 $26 #
body $-1 $27 $-1 $28 #
body $-1 $29 $-1 $30 #
body $-1 $31 $-1 $32 #
body $-1 $33 $-1 $34 #
body $-1 $35 $-1 $36 #
body $-1 $37 $-1 $38 #
body $-1 $39 $-1 $40 #
body $-1 $41 $-1 $42 #
body $-1 $43 $-1 $44 #
lump $-1 $-1 $45 $0 #
transform $-1 1 0 0 0 1 0 0 0 1 47.082735679189426 27.872600181822584 6.7261882814333243 1 rotate no_reflect no_shear #
lump $-1 $-1 $46 $1 #
transform $-1 1 0 0 0 1 0 0 0 1 47.082735679189426 27.872600181822584 6.7261882814333243 1 rotate no_reflect no_shear #
lump $-1 $-1 $47 $2 #
transform $-1 1 0 0 0 1 0 0 0 1 47.082735679189426 27.872600181822584 6.7261882814333243 1 rotate no_reflect no_shear #
lump $-1 $-1 $48 $3 #
transform $-1 1 0 0 0 1 0 0 0 1 47.082735679189426 27.872600181822584 6.7261882814333243 1 rotate no_reflect no_shear #
lump $-1 $-1 $49 $4 #
transform $-1 1 0 0 0 1 0 0 0 1 47.082735679189426 27.872600181822584 6.7261882814333243 1 rotate no_reflect no_shear #
lump $-1 $-1 $50 $5 #
transform $-1 1 0 0 0 1 0 0 0 1 47.082735679189426 27.872600181822584 6.7261882814333243 1 rotate no_reflect no_shear #
lump $-1 $-1 $51 $6 #
transform $-1 1 0 0 0 1 0 0 0 1 47.082735679189426 27.872600181822584 6.7261882814333243 1 rotate no_reflect no_shear #
lump $-1 $-1 $52 $7 #
transform $-1 1 0 0 0 1 0 0 0 1 47.082735679189426 27.872600181822584 6.7261882814333243 1 rotate no_reflect no_shear #
lump $-1 $-1 $53 $8 #
transform $-1 1 0 0 0 1 0 0 0 1 47.082735679189426 27.872600181822584 6.7261882814333243 1 rotate no_reflect no_shear #
lump $-1 $-1 $54 $9 #
transform $-1 1 0 0 0 1 0 0 0 1 47.082735679189426 27.872600181822584 6.7261882814333243 1 rotate no_reflect no_shear #
lump $-1 $-1 $55 $10 #
transform $-1 1 0 0 0 1 0 0 0 1 47.082735679189426 27.872600181822584 6.7261882814333243 1 rotate no_reflect no_shear #
lump $-1 $-1 $56 $11 #
transform $-1 1 0 0 0 1 0 0 0 1 47.082735679189426 27.872600181822584 6.7261882814333243 1 rotate no_reflect no_shear #
lump $-1 $-1 $57 $12 #
transform $-1 1 0 0 0 1 0 0 0 1 47.082735679189426 27.872600181822584 6.7261882814333243 1 rotate no_reflect no_shear #
lump $-1 $-1 $58 $13 #
transform $-1 1 0 0 0 1 0 0 0 1 47.082735679189426 27.872600181822584 6.7261882814333243 1 rotate no_reflect no_shear #
lump $-1 $-1 $59 $14 #
transform $-1 1 0 0 0 1 0 0 0 1 47.082735679189426 27.872600181822584 6.7261882814333243 1 rotate no_reflect no_shear #
shell $-1 $-1 $-1 $60 $-1 $15 #
shell $-1 $-1 $-1 $61 $-1 $17 #
shell $-1 $-1 $-1 $62 $-1 $19 #
shell $-1 $-1 $-1 $63 $-1 $21 #
shell $-1 $-1 $-1 $64 $-1 $23 #
shell $-1 $-1 $-1 $65 $-1 $25 #
shell $-1 $-1 $-1 $66 $-1 $27 #
shell $-1 $-1 $-1 $67 $-1 $29 #
shell $-1 $-1 $-1 $68 $-1 $31 #
shell $-1 $-1 $-1 $69 $-1 $33 #
shell $-1 $-1 $-1 $70 $-1 $35 #
shell $-1 $-1 $-1 $71 $-1 $37 #
shell $-1 $-1 $-1 $72 $-1 $39 #
shell $-1 $-1 $-1 $73 $-1 $41 #
shell $-1 $-1 $-1 $74 $-1 $43 #
face $-1 $75 $76 $45 $-1 $77 forward single #
face $-1 $78 $79 $46 $-1 $80 reversed single #
face $-1 $81 $82 $47 $-1 $83 reversed single #
face $-1 $84 $85 $48 $-1 $86 reversed single #
face $-1 $87 $88 $49 $-1 $89 forward single #
face $-1 $90 $91 $50 $-1 $92 forward single #
face $-1 $93 $94 $51 $-1 $95 forward single #
face $-1 $96 $97 $52 $-1 $98 reversed single #
face $-1 $99 $100 $53 $-1 $101 forward single #
face $-1 $102 $103 $54 $-1 $104 forward single #
face $-1 $105 $106 $55 $-1 $107 forward single #
face $-1 $108 $109 $56 $-1 $110 reversed single #
face $-1 $111 $112 $57 $-1 $113 forward single #
face $-1 $114 $115 $58 $-1 $116 forward single #
face $-1 $117 $118 $59 $-1 $119 forward single #
face $-1 $120 $121 $45 $-1 $122 reversed single #
loop $-1 $-1 $123 $60 #
plane-surface $-1 0 0 6.7261882814333243 0 0 1 1 0 0 forward_v I I I I #
face $-1 $124 $125 $46 $-1 $126 reversed single #
loop $-1 $-1 $127 $61 #
plane-surface $-1 -44.428811319873702 -24.534569903808119 0 0 -1 0 0 0 -1 forward_v I I I I #
face $-1 $128 $129 $47 $-1 $130 reversed single #
loop $-1 $-1 $131 $62 #
plane-surface $-1 41.774886960557978 -26.203585042815352 0 1 0 0 0 0 -1 forward_v I I I I #
face $-1 $132 $133 $48 $-1 $134 reversed single #
loop $-1 $-1 $135 $63 #
plane-surface $-1 -36.268267036124499 38.122862083678321 111.62447440857723 1 0 0 0 -0.5877852598018023 -0.80901698891910034 forward_v I I I I #
face $-1 $136 $137 $49 $-1 $138 forward single #
loop $-1 $139 $140 $64 #
cone-surface $-1 -31.322187735099007 24.710794069963875 4.1852763903583412 0 -0.5877852598018023 -0.80901698891910034 0.5 0 0 1 I I 0 1 0.5 forward I I I I #
face $-1 $141 $142 $50 $-1 $143 forward single #
loop $-1 $144 $145 $65 #
cone-surface $-1 -23.903068783560769 24.710794069963875 4.1852763903583412 0 -0.5877852598018023 -0.80901698891910034 0.5 0 0 1 I I 0 1 0.5 forward I I I I #
face $-1 $146 $147 $51 $-1 $148 forward single #
loop $-1 $149 $150 $66 #
cone-surface $-1 -16.483949832022532 24.710794069963875 4.1852763903583412 0 -0.5877852598018023 -0.80901698891910034 0.5 0 0 1 I I 0 1 0.5 forward I I I I #
face $-1 $151 $152 $52 $-1 $153 reversed single #
loop $-1 $-1 $154 $67 #
plane-surface $-1 -6.8459557528839809 -101.0529167359249 59.659172031374368 -1 0 0 0 -0.77714596973225614 0.62932038083071107 forward_v I I I I #
face $-1 $155 $156 $53 $-1 $157 forward single #
loop $-1 $158 $159 $68 #
cone-surface $-1 -19.003879579285798 -24.546093605851393 2.9433561472370005 0 0.77714596973225614 -0.62932038083071107 1 0 0 1 I I 0 1 1 forward I I I I #
face $-1 $160 $161 $54 $-1 $162 forward single #
loop $-1 $163 $164 $69 #
cone-surface $-1 -14.444658144385116 -24.546093605851393 2.9433561472370005 0 0.77714596973225614 -0.62932038083071107 1 0 0 1 I I 0 1 1 forward I I I I #
face $-1 $165 $166 $55 $-1 $167 forward single #
loop $-1 $168 $169 $70 #
cone-surface $-1 -9.8854367094844378 -24.546093605851393 2.9433561472370005 0 0.77714596973225614 -0.62932038083071107 1 0 0 1 I I 0 1 1 forward I I I I #
face $-1 $170 $171 $56 $-1 $172 reversed single #
loop $-1 $-1 $173 $71 #
plane-surface $-1 22.043360535886244 -101.0529167359249 59.659172031374368 -1 0 0 0 -0.77714596973225614 0.62932038083071107 forward_v I I I I #
face $-1 $174 $175 $57 $-1 $176 forward single #
loop $-1 $177 $178 $72 #
cone-surface $-1 9.8854367094844235 -24.546093605851393 2.9433561472370005 0 0.77714596973225614 -0.62932038083071107 1 0 0 1 I I 0 1 1 forward I I I I #
face $-1 $179 $180 $58 $-1 $181 forward single #
loop $-1 $182 $183 $73 #
cone-surface $-1 14.444658144385109 -24.546093605851393 2.9433561472370005 0 0.77714596973225614 -0.62932038083071107 1 0 0 1 I I 0 1 1 forward I I I I #
face $-1 $184 $185 $59 $-1 $186 forward single #
loop $-1 $187 $188 $74 #
cone-surface $-1 19.00387957928578 -24.546093605851393 2.9433561472370005 0 0.77714596973225614 -0.62932038083071107 1 0 0 1 I I 0 1 1 forward I I I I #
face $-1 $189 $190 $45 $-1 $191 reversed single #
loop $-1 $-1 $192 $75 #
plane-surface $-1 0 0 -6.7261882814333243 0 0 1 1 0 0 forward_v I I I I #
coedge $-1 $193 $194 $195 $196 forward $76 $-1 #
face $-1 $197 $198 $46 $-1 $199 forward single #
loop $-1 $-1 $200 $78 #
plane-surface $-1 -41.774886960557978 -26.203585042815352 0 -1 0 0 0 0 1 forward_v I I I I #
coedge $-1 $201 $202 $203 $204 forward $79 $-1 #
face $-1 $205 $206 $47 $-1 $207 forward single #
loop $-1 $-1 $208 $81 #
plane-surface $-1 44.428811319873702 -24.534569903808119 0 0 -1 0 0 0 -1 forward_v I I I I #
coedge $-1 $209 $210 $211 $212 forward $82 $-1 #
face $-1 $213 $214 $48 $-1 $215 reversed single #
loop $-1 $-1 $216 $84 #
plane-surface $-1 -23.903068783560769 -17.226213963065568 35.443008310073779 0 0.5877852598018023 0.80901698891910034 1 0 0 forward_v I I I I #
coedge $-1 $217 $218 $219 $220 reversed $85 $-1 #
face $-1 $-1 $221 $49 $-1 $222 forward single #
loop $-1 $223 $224 $87 #
cone-surface $-1 -31.322187735099007 24.188793150932 3.4668037769577067 0 -0.5877852598018023 -0.80901698891910034 0.25 0 0 1 I I -0.70710678118654691 0.70710678118654813 0.25 forward I I I I #
loop $-1 $-1 $225 $64 #
coedge $-1 $140 $140 $226 $227 reversed $88 $-1 #
face $-1 $-1 $228 $50 $-1 $229 forward single #
loop $-1 $230 $231 $90 #
cone-surface $-1 -23.903068783560769 24.188793150932 3.4668037769577067 0 -0.5877852598018023 -0.80901698891910034 0.25 0 0 1 I I -0.70710678118654691 0.70710678118654813 0.25 forward I I I I #
loop $-1 $-1 $232 $65 #
coedge $-1 $145 $145 $233 $234 reversed $91 $-1 #
face $-1 $-1 $235 $51 $-1 $236 forward single #
loop $-1 $237 $238 $93 #
cone-surface $-1 -16.483949832022532 24.188793150932 3.4668037769577067 0 -0.5877852598018023 -0.80901698891910034 0.25 0 0 1 I I -0.70710678118654691 0.70710678118654813 0.25 forward I I I I #
loop $-1 $-1 $239 $66 #
coedge $-1 $150 $150 $240 $241 reversed $94 $-1 #
face $-1 $242 $243 $52 $-1 $244 reversed single #
loop $-1 $-1 $245 $96 #
plane-surface $-1 -14.444658144385116 -27.872600181822577 0.39892173501597483 0 -0.77714596973225614 0.62932038083071107 1 0 0 forward_v I I I I #
coedge $-1 $246 $247 $248 $249 reversed $97 $-1 #
face $-1 $-1 $250 $53 $-1 $251 forward single #
loop $-1 $252 $253 $99 #
cone-surface $-1 -19.003879579285798 -23.392873687663084 2.0094970958340008 0 0.77714596973225614 -0.62932038083071107 0.5 0 0 1 I I -0.70710678118654746 0.70710678118654746 0.5 forward I I I I #
loop $-1 $-1 $254 $68 #
coedge $-1 $159 $159 $255 $256 reversed $100 $-1 #
face $-1 $-1 $257 $54 $-1 $258 forward single #
loop $-1 $259 $260 $102 #
cone-surface $-1 -14.444658144385116 -23.392873687663084 2.0094970958340008 0 0.77714596973225614 -0.62932038083071107 0.5 0 0 1 I I -0.70710678118654746 0.70710678118654746 0.5 forward I I I I #
loop $-1 $-1 $261 $69 #
coedge $-1 $164 $164 $262 $263 reversed $103 $-1 #
face $-1 $-1 $264 $55 $-1 $265 forward single #
loop $-1 $266 $267 $105 #
cone-surface $-1 -9.8854367094844378 -23.392873687663084 2.0094970958340008 0 0.77714596973225614 -0.62932038083071107 0.5 0 0 1 I I -0.70710678118654746 0.70710678118654746 0.5 forward I I I I #
loop $-1 $-1 $268 $70 #
coedge $-1 $169 $169 $269 $270 reversed $106 $-1 #
face $-1 $271 $272 $56 $-1 $273 reversed single #
loop $-1 $-1 $274 $108 #
plane-surface $-1 14.444658144385109 -27.872600181822577 0.39892173501597483 0 -0.77714596973225614 0.62932038083071107 1 0 0 forward_v I I I I #
coedge $-1 $275 $276 $277 $278 reversed $109 $-1 #
face $-1 $-1 $279 $57 $-1 $280 forward single #
loop $-1 $281 $282 $111 #
cone-surface $-1 9.8854367094844235 -23.392873687663084 2.0094970958340008 0 0.77714596973225614 -0.62932038083071107 0.5 0 0 1 I I -0.70710678118654746 0.70710678118654746 0.5 forward I I I I #
loop $-1 $-1 $283 $72 #
coedge $-1 $178 $178 $284 $285 reversed $112 $-1 #
face $-1 $-1 $286 $58 $-1 $287 forward single #
loop $-1 $288 $289 $114 #
cone-surface $-1 14.444658144385109 -23.392873687663084 2.0094970958340008 0 0.77714596973225614 -0.62932038083071107 0.5 0 0 1 I I -0.70710678118654746 0.70710678118654746 0.5 forward I I I I #
loop $-1 $-1 $290 $73 #
coedge $-1 $183 $183 $291 $292 reversed $115 $-1 #
face $-1 $-1 $293 $59 $-1 $294 forward single #
loop $-1 $295 $296 $117 #
cone-surface $-1 19.00387957928578 -23.392873687663084 2.0094970958340008 0 0.77714596973225614 -0.62932038083071107 0.5 0 0 1 I I -0.70710678118654746 0.70710678118654746 0.5 forward I I I I #
loop $-1 $-1 $297 $74 #
coedge $-1 $188 $188 $298 $299 reversed $118 $-1 #
face $-1 $300 $301 $45 $-1 $302 reversed single #
loop $-1 $-1 $303 $120 #
plane-surface $-1 0 -27.872600181822584 0 0 1 0 0 0 1 forward_v I I I I #
coedge $-1 $304 $305 $306 $307 forward $121 $-1 #
coedge $-1 $308 $123 $309 $310 forward $76 $-1 #
coedge $-1 $123 $308 $311 $312 forward $76 $-1 #
coedge $-1 $313 $314 $123 $196 reversed $315 $-1 #
edge $-1 $316 -27.872600181822584 $317 27.872600181822584 $195 $318 forward 7 unknown #
face $-1 $319 $320 $46 $-1 $321 reversed single #
loop $-1 $-1 $322 $124 #
plane-surface $-1 0 0 6.7261882814333243 0 0 1 1 0 0 forward_v I I I I #
coedge $-1 $323 $324 $325 $326 reversed $125 $-1 #
coedge $-1 $327 $127 $328 $329 reversed $79 $-1 #
coedge $-1 $127 $327 $330 $331 reversed $79 $-1 #
coedge $-1 $324 $323 $127 $204 reversed $125 $-1 #
edge $-1 $332 -6.7261882814333243 $333 6.7261882814333243 $203 $334 forward 7 unknown #
face $-1 $335 $336 $47 $-1 $337 reversed single #
loop $-1 $-1 $338 $128 #
plane-surface $-1 0 0 6.7261882814333243 0 0 1 1 0 0 forward_v I I I I #
coedge $-1 $339 $340 $341 $342 reversed $129 $-1 #
coedge $-1 $343 $131 $344 $345 reversed $82 $-1 #
coedge $-1 $131 $343 $346 $347 reversed $82 $-1 #
coedge $-1 $340 $339 $131 $212 reversed $129 $-1 #
edge $-1 $348 -6.7261882814333243 $349 6.7261882814333243 $211 $350 forward 7 unknown #
face $-1 $351 $352 $48 $-1 $353 reversed single #
loop $-1 $-1 $354 $132 #
plane-surface $-1 -11.53787053099704 38.122862083678321 111.62447440857723 -1 0 0 0 0.5877852598018023 0.80901698891910034 forward_v I I I I #
coedge $-1 $355 $356 $357 $358 reversed $133 $-1 #
coedge $-1 $218 $135 $359 $360 reversed $85 $-1 #
coedge $-1 $135 $217 $355 $361 reversed $85 $-1 #
coedge $-1 $357 $362 $135 $220 forward $363 $-1 #
edge $-1 $364 -8.8111691399834235 $365 -3.2376661244288663 $219 $366 forward 7 unknown #
loop $-1 $-1 $226 $136 #
plane-surface $-1 -23.903068783560769 -17.226213963065568 35.443008310073779 0 0.5877852598018023 0.80901698891910034 1 0 0 forward_v I I I I #
loop $-1 $-1 $367 $87 #
coedge $-1 $224 $224 $225 $368 reversed $137 $-1 #
coedge $-1 $225 $225 $224 $368 forward $139 $-1 #
coedge $-1 $226 $226 $140 $227 forward $221 $-1 #
edge $-1 $369 3.1323490990427538e-015 $369 6.283185307179604 $226 $370 forward 7 unknown #
loop $-1 $-1 $233 $141 #
plane-surface $-1 -23.903068783560769 -17.226213963065568 35.443008310073779 0 0.5877852598018023 0.80901698891910034 1 0 0 forward_v I I I I #
loop $-1 $-1 $371 $90 #
coedge $-1 $231 $231 $232 $372 reversed $142 $-1 #
coedge $-1 $232 $232 $231 $372 forward $144 $-1 #
coedge $-1 $233 $233 $145 $234 forward $228 $-1 #
edge $-1 $373 3.1323490990427538e-015 $373 6.283185307179604 $233 $374 forward 7 unknown #
loop $-1 $-1 $240 $146 #
plane-surface $-1 -23.903068783560769 -17.226213963065568 35.443008310073779 0 0.5877852598018023 0.80901698891910034 1 0 0 forward_v I I I I #
loop $-1 $-1 $375 $93 #
coedge $-1 $238 $238 $239 $376 reversed $147 $-1 #
coedge $-1 $239 $239 $238 $376 forward $149 $-1 #
coedge $-1 $240 $240 $150 $241 forward $235 $-1 #
edge $-1 $377 3.1323490990427538e-015 $377 6.283185307179604 $240 $378 forward 7 unknown #
face $-1 $379 $380 $52 $-1 $381 forward single #
loop $-1 $-1 $382 $151 #
plane-surface $-1 -22.043360535886251 -101.0529167359249 59.659172031374368 1 0 0 0 0.77714596973225614 -0.62932038083071107 forward_v I I I I #
coedge $-1 $383 $384 $385 $386 reversed $152 $-1 #
coedge $-1 $247 $154 $387 $388 reversed $97 $-1 #
coedge $-1 $154 $246 $383 $389 reversed $97 $-1 #
coedge $-1 $385 $390 $154 $249 forward $380 $-1 #
edge $-1 $391 22.653858186139864 $392 27.77757747143788 $248 $393 forward 7 unknown #
loop $-1 $-1 $255 $155 #
plane-surface $-1 -14.444658144385116 -27.872600181822577 0.39892173501597483 0 -0.77714596973225614 0.62932038083071107 1 0 0 forward_v I I I I #
loop $-1 $-1 $394 $99 #
coedge $-1 $253 $253 $254 $395 reversed $156 $-1 #
coedge $-1 $254 $254 $253 $395 forward $158 $-1 #
coedge $-1 $255 $255 $159 $256 forward $250 $-1 #
edge $-1 $396 -3.4512213963655826e-016 $396 6.2831853071796004 $255 $397 forward 7 unknown #
loop $-1 $-1 $262 $160 #
plane-surface $-1 -14.444658144385116 -27.872600181822577 0.39892173501597483 0 -0.77714596973225614 0.62932038083071107 1 0 0 forward_v I I I I #
loop $-1 $-1 $398 $102 #
coedge $-1 $260 $260 $261 $399 reversed $161 $-1 #
coedge $-1 $261 $261 $260 $399 forward $163 $-1 #
coedge $-1 $262 $262 $164 $263 forward $257 $-1 #
edge $-1 $400 -3.4512213963655826e-016 $400 6.2831853071796004 $262 $401 forward 7 unknown #
loop $-1 $-1 $269 $165 #
plane-surface $-1 -14.444658144385116 -27.872600181822577 0.39892173501597483 0 -0.77714596973225614 0.62932038083071107 1 0 0 forward_v I I I I #
loop $-1 $-1 $402 $105 #
coedge $-1 $267 $267 $268 $403 reversed $166 $-1 #
coedge $-1 $268 $268 $267 $403 forward $168 $-1 #
coedge $-1 $269 $269 $169 $270 forward $264 $-1 #
edge $-1 $404 -3.4512213963655826e-016 $404 6.2831853071796004 $269 $405 forward 7 unknown #
face $-1 $406 $407 $56 $-1 $408 reversed single #
loop $-1 $-1 $409 $170 #
plane-surface $-1 6.8459557528839738 -101.0529167359249 59.659172031374368 1 0 0 0 0.77714596973225614 -0.62932038083071107 forward_v I I I I #
coedge $-1 $410 $411 $412 $413 reversed $171 $-1 #
coedge $-1 $276 $173 $414 $415 reversed $109 $-1 #
coedge $-1 $173 $275 $410 $416 reversed $109 $-1 #
coedge $-1 $412 $417 $173 $278 forward $418 $-1 #
edge $-1 $419 22.653858186139864 $420 27.77757747143788 $277 $421 forward 7 unknown #
loop $-1 $-1 $284 $174 #
plane-surface $-1 14.444658144385109 -27.872600181822577 0.39892173501597483 0 -0.77714596973225614 0.62932038083071107 1 0 0 forward_v I I I I #
loop $-1 $-1 $422 $111 #
coedge $-1 $282 $282 $283 $423 reversed $175 $-1 #
coedge $-1 $283 $283 $282 $423 forward $177 $-1 #
coedge $-1 $284 $284 $178 $285 forward $279 $-1 #
edge $-1 $424 -3.4512213963655826e-016 $424 6.2831853071796004 $284 $425 forward 7 unknown #
loop $-1 $-1 $291 $179 #
plane-surface $-1 14.444658144385109 -27.872600181822577 0.39892173501597483 0 -0.77714596973225614 0.62932038083071107 1 0 0 forward_v I I I I #
loop $-1 $-1 $426 $114 #
coedge $-1 $289 $289 $290 $427 reversed $180 $-1 #
coedge $-1 $290 $290 $289 $427 forward $182 $-1 #
coedge $-1 $291 $291 $183 $292 forward $286 $-1 #
edge $-1 $428 -3.4512213963655826e-016 $428 6.2831853071796004 $291 $429 forward 7 unknown #
loop $-1 $-1 $298 $184 #
plane-surface $-1 14.444658144385109 -27.872600181822577 0.39892173501597483 0 -0.77714596973225614 0.62932038083071107 1 0 0 forward_v I I I I #
loop $-1 $-1 $430 $117 #
coedge $-1 $296 $296 $297 $431 reversed $185 $-1 #
coedge $-1 $297 $297 $296 $431 forward $187 $-1 #
coedge $-1 $298 $298 $188 $299 forward $293 $-1 #
edge $-1 $432 -3.4512213963655826e-016 $432 6.2831853071796004 $298 $433 forward 7 unknown #
face $-1 $434 $435 $45 $-1 $436 reversed single #
loop $-1 $-1 $437 $189 #
plane-surface $-1 -47.082735679189426 0 0 1 0 0 0 0 -1 forward_v I I I I #
coedge $-1 $438 $311 $439 $440 forward $190 $-1 #
coedge $-1 $441 $192 $438 $442 forward $121 $-1 #
coedge $-1 $192 $441 $443 $444 forward $121 $-1 #
coedge $-1 $314 $313 $192 $307 reversed $315 $-1 #
edge $-1 $445 -27.872600181822584 $446 27.872600181822584 $306 $447 forward 7 unknown #
coedge $-1 $194 $193 $448 $449 forward $76 $-1 #
coedge $-1 $450 $451 $193 $310 reversed $435 $-1 #
edge $-1 $317 -47.082735679189426 $452 47.082735679189426 $309 $453 forward 7 unknown #
coedge $-1 $303 $454 $194 $312 reversed $190 $-1 #
edge $-1 $455 -47.082735679189426 $316 47.082735679189426 $311 $456 forward 7 unknown #
coedge $-1 $306 $195 $454 $457 forward $315 $-1 #
coedge $-1 $195 $306 $450 $458 reversed $315 $-1 #
loop $-1 $-1 $313 $434 #
vertex $-1 $196 $459 #
vertex $-1 $196 $460 #
straight-curve $-1 47.082735679189426 0 6.7261882814333243 0 1 0 I I #
face $-1 $461 $462 $46 $-1 $463 reversed single #
loop $-1 $-1 $464 $197 #
plane-surface $-1 -47.082735679189426 0 0 1 0 0 0 0 -1 forward_v I I I I #
coedge $-1 $330 $465 $324 $466 forward $198 $-1 #
coedge $-1 $203 $200 $467 $468 reversed $125 $-1 #
coedge $-1 $200 $203 $322 $466 reversed $125 $-1 #
coedge $-1 $469 $470 $200 $326 forward $471 $-1 #
edge $-1 $472 -6.7261882814333243 $473 6.7261882814333243 $325 $474 forward 7 unknown #
coedge $-1 $202 $201 $464 $475 reversed $79 $-1 #
coedge $-1 $467 $476 $201 $329 forward $462 $-1 #
edge $-1 $477 -24.868330019252575 $333 -19.560481300621127 $328 $478 forward 7 unknown #
coedge $-1 $479 $322 $202 $331 forward $198 $-1 #
edge $-1 $332 19.560481300621127 $480 24.868330019252575 $330 $481 forward 7 unknown #
vertex $-1 $331 $482 #
vertex $-1 $329 $483 #
straight-curve $-1 -41.774886960557978 -24.534569903808119 0 0 0 -1 I I #
face $-1 $484 $485 $47 $-1 $486 reversed single #
loop $-1 $-1 $487 $205 #
plane-surface $-1 0 -27.872600181822584 0 0 1 0 0 0 1 forward_v I I I I #
coedge $-1 $346 $488 $340 $489 forward $206 $-1 #
coedge $-1 $211 $208 $490 $491 reversed $129 $-1 #
coedge $-1 $208 $211 $338 $489 reversed $129 $-1 #
coedge $-1 $492 $493 $208 $342 forward $494 $-1 #
edge $-1 $495 -6.7261882814333243 $496 6.7261882814333243 $341 $497 forward 7 unknown #
coedge $-1 $210 $209 $487 $498 reversed $82 $-1 #
coedge $-1 $490 $499 $209 $345 forward $485 $-1 #
edge $-1 $500 -14.770807660414908 $349 -11.432777382400443 $344 $501 forward 7 unknown #
coedge $-1 $502 $338 $210 $347 forward $206 $-1 #
edge $-1 $348 11.432777382400443 $503 14.770807660414908 $346 $504 forward 7 unknown #
vertex $-1 $347 $505 #
vertex $-1 $345 $506 #
straight-curve $-1 41.774886960557978 -24.534569903808119 0 0 0 -1 I I #
face $-1 $-1 $363 $48 $-1 $507 forward single #
loop $-1 $-1 $508 $213 #
plane-surface $-1 0 27.872600181822584 0 0 -1 0 0 0 -1 forward_v I I I I #
coedge $-1 $509 $510 $511 $512 reversed $214 $-1 #
coedge $-1 $513 $216 $218 $361 forward $133 $-1 #
coedge $-1 $216 $513 $509 $514 forward $133 $-1 #
coedge $-1 $511 $219 $216 $358 forward $363 $-1 #
edge $-1 $365 -24.316732644344114 $515 0.41366386078334472 $357 $516 forward 7 unknown #
coedge $-1 $517 $518 $217 $360 forward $352 $-1 #
edge $-1 $519 -53.135435972663537 $364 -49.086048922855291 $359 $520 forward 7 unknown #
edge $-1 $365 48.855971717160102 $519 55.745200363645168 $218 $521 forward 7 unknown #
coedge $-1 $219 $511 $517 $522 forward $363 $-1 #
loop $-1 $-1 $511 $351 #
vertex $-1 $360 $523 #
vertex $-1 $220 $524 #
straight-curve $-1 -36.268267036124499 19.06143104183916 6.7261882814333234 0 -1 0 I I #
coedge $-1 $367 $367 $-1 $525 reversed $223 $-1 #
edge $-1 $526 0 $526 6.2831853071796004 $224 $527 forward 7 unknown #
vertex $-1 $227 $528 #
ellipse-curve $-1 -31.322187735099007 25.085848674045302 4.7014947565292031 0 0.5877852598018023 0.80901698891910034 0.5 0 0 1 I I #
coedge $-1 $371 $371 $-1 $529 reversed $230 $-1 #
edge $-1 $530 0 $530 6.2831853071796004 $231 $531 forward 7 unknown #
vertex $-1 $234 $532 #
ellipse-curve $-1 -23.903068783560769 25.085848674045302 4.7014947565292031 0 0.5877852598018023 0.80901698891910034 0.5 0 0 1 I I #
coedge $-1 $375 $375 $-1 $533 reversed $237 $-1 #
edge $-1 $534 0 $534 6.2831853071796004 $238 $535 forward 7 unknown #
vertex $-1 $241 $536 #
ellipse-curve $-1 -16.483949832022532 25.085848674045302 4.7014947565292031 0 0.5877852598018023 0.80901698891910034 0.5 0 0 1 I I #
face $-1 $-1 $537 $52 $-1 $538 reversed single #
loop $-1 $-1 $248 $242 #
plane-surface $-1 0 0 6.7261882814333243 0 0 1 1 0 0 forward_v I I I I #
coedge $-1 $539 $540 $541 $542 reversed $243 $-1 #
coedge $-1 $543 $245 $247 $389 forward $152 $-1 #
coedge $-1 $245 $543 $539 $544 forward $152 $-1 #
coedge $-1 $541 $248 $245 $386 forward $380 $-1 #
edge $-1 $392 -0.37637331930857698 $545 14.821031463693693 $385 $546 forward 7 unknown #
coedge $-1 $547 $548 $246 $388 forward $537 $-1 #
edge $-1 $549 -29.430664280671216 $391 -23.103397734253861 $387 $550 forward 7 unknown #
edge $-1 $392 -8.1416706678633748 $549 1.1287752508472441e-014 $247 $551 forward 7 unknown #
coedge $-1 $248 $541 $547 $552 forward $380 $-1 #
vertex $-1 $388 $553 #
vertex $-1 $249 $554 #
straight-curve $-1 -6.8459557528839809 -50.526458367962448 6.7261882814333234 0 1 0 I I #
coedge $-1 $394 $394 $-1 $555 reversed $252 $-1 #
edge $-1 $556 0 $556 6.2831853071796004 $253 $557 forward 7 unknown #
vertex $-1 $256 $558 #
ellipse-curve $-1 -19.003879579285798 -25.310740539173576 3.5625550082246447 0 -0.77714596973225614 0.62932038083071107 1 0 0 1 I I #
coedge $-1 $398 $398 $-1 $559 reversed $259 $-1 #
edge $-1 $560 0 $560 6.2831853071796004 $260 $561 forward 7 unknown #
vertex $-1 $263 $562 #
ellipse-curve $-1 -14.444658144385116 -25.310740539173576 3.5625550082246447 0 -0.77714596973225614 0.62932038083071107 1 0 0 1 I I #
coedge $-1 $402 $402 $-1 $563 reversed $266 $-1 #
edge $-1 $564 0 $564 6.2831853071796004 $267 $565 forward 7 unknown #
vertex $-1 $270 $566 #
ellipse-curve $-1 -9.8854367094844378 -25.310740539173576 3.5625550082246447 0 -0.77714596973225614 0.62932038083071107 1 0 0 1 I I #
face $-1 $-1 $418 $56 $-1 $567 forward single #
loop $-1 $-1 $568 $271 #
plane-surface $-1 0 -27.872600181822584 0 0 1 0 0 0 1 forward_v I I I I #
coedge $-1 $569 $570 $571 $572 reversed $272 $-1 #
coedge $-1 $573 $274 $276 $416 forward $171 $-1 #
coedge $-1 $274 $573 $569 $574 forward $171 $-1 #
coedge $-1 $571 $277 $274 $413 forward $418 $-1 #
edge $-1 $420 -14.821031463693689 $575 0.37637331930858053 $412 $576 forward 7 unknown #
coedge $-1 $577 $578 $275 $415 forward $407 $-1 #
edge $-1 $579 -29.430664280671216 $419 -23.103397734253861 $414 $580 forward 7 unknown #
edge $-1 $420 -8.1416706678633748 $579 1.1287752508472441e-014 $276 $581 forward 7 unknown #
coedge $-1 $277 $571 $577 $582 forward $418 $-1 #
loop $-1 $-1 $571 $406 #
vertex $-1 $415 $583 #
vertex $-1 $278 $584 #
straight-curve $-1 22.043360535886244 -50.526458367962448 6.7261882814333234 0 1 0 I I #
coedge $-1 $422 $422 $-1 $585 reversed $281 $-1 #
edge $-1 $586 0 $586 6.2831853071796004 $282 $587 forward 7 unknown #
vertex $-1 $285 $588 #
ellipse-curve $-1 9.8854367094844235 -25.310740539173576 3.5625550082246447 0 -0.77714596973225614 0.62932038083071107 1 0 0 1 I I #
coedge $-1 $426 $426 $-1 $589 reversed $288 $-1 #
edge $-1 $590 0 $590 6.2831853071796004 $289 $591 forward 7 unknown #
vertex $-1 $292 $592 #
ellipse-curve $-1 14.444658144385109 -25.310740539173576 3.5625550082246447 0 -0.77714596973225614 0.62932038083071107 1 0 0 1 I I #
coedge $-1 $430 $430 $-1 $593 reversed $295 $-1 #
edge $-1 $594 0 $594 6.2831853071796004 $296 $595 forward 7 unknown #
vertex $-1 $299 $596 #
ellipse-curve $-1 19.00387957928578 -25.310740539173576 3.5625550082246447 0 -0.77714596973225614 0.62932038083071107 1 0 0 1 I I #
face $-1 $-1 $315 $45 $-1 $597 reversed single #
loop $-1 $-1 $450 $300 #
plane-surface $-1 0 27.872600181822584 0 0 -1 0 0 0 -1 forward_v I I I I #
coedge $-1 $598 $448 $451 $599 forward $301 $-1 #
coedge $-1 $454 $303 $304 $442 reversed $190 $-1 #
coedge $-1 $448 $598 $303 $440 reversed $301 $-1 #
edge $-1 $455 -6.7261882814333243 $600 6.7261882814333243 $439 $601 forward 7 unknown #
coedge $-1 $305 $304 $598 $602 forward $121 $-1 #
edge $-1 $446 -47.082735679189426 $600 47.082735679189426 $438 $603 forward 7 unknown #
coedge $-1 $451 $450 $305 $444 reversed $435 $-1 #
edge $-1 $604 -47.082735679189426 $445 47.082735679189426 $443 $605 forward 7 unknown #
vertex $-1 $307 $606 #
vertex $-1 $457 $607 #
straight-curve $-1 47.082735679189426 0 -6.7261882814333243 0 -1 0 I I #
coedge $-1 $437 $439 $308 $449 reversed $301 $-1 #
edge $-1 $452 -27.872600181822584 $455 27.872600181822584 $448 $608 forward 7 unknown #
coedge $-1 $443 $309 $314 $458 forward $435 $-1 #
coedge $-1 $309 $443 $437 $599 reversed $435 $-1 #
vertex $-1 $310 $609 #
straight-curve $-1 0 27.872600181822584 6.7261882814333243 -1 0 0 I I #
coedge $-1 $311 $438 $313 $457 reversed $190 $-1 #
vertex $-1 $449 $610 #
straight-curve $-1 0 -27.872600181822584 6.7261882814333243 1 0 0 I I #
edge $-1 $316 -6.7261882814333243 $446 6.7261882814333243 $313 $611 forward 7 unknown #
edge $-1 $317 -6.7261882814333243 $445 6.7261882814333243 $314 $612 forward 7 unknown #
point $-1 47.082735679189426 -27.872600181822584 6.7261882814333243 #
point $-1 47.082735679189426 27.872600181822584 6.7261882814333243 #
face $-1 $-1 $471 $46 $-1 $613 reversed single #
loop $-1 $-1 $467 $319 #
plane-surface $-1 0 0 -6.7261882814333243 0 0 1 1 0 0 forward_v I I I I #
coedge $-1 $614 $615 $327 $475 forward $320 $-1 #
coedge $-1 $322 $479 $469 $616 forward $198 $-1 #
edge $-1 $473 -14.770807660414908 $332 -11.432777382400443 $322 $617 forward 7 unknown #
coedge $-1 $618 $328 $323 $468 forward $462 $-1 #
edge $-1 $333 11.432777382400443 $472 14.770807660414908 $467 $619 forward 7 unknown #
coedge $-1 $620 $325 $465 $616 reversed $471 $-1 #
coedge $-1 $325 $620 $618 $621 reversed $471 $-1 #
loop $-1 $-1 $325 $461 #
vertex $-1 $621 $622 #
vertex $-1 $326 $623 #
straight-curve $-1 -41.774886960557978 -27.872600181822584 0 0 0 1 I I #
edge $-1 $480 -6.7261882814333243 $477 6.7261882814333243 $464 $624 forward 7 unknown #
coedge $-1 $328 $618 $614 $625 forward $462 $-1 #
vertex $-1 $329 $626 #
straight-curve $-1 -22.214405659936851 -24.534569903808119 -6.7261882814333243 1 0 0 I I #
coedge $-1 $465 $330 $615 $627 forward $198 $-1 #
vertex $-1 $627 $628 #
straight-curve $-1 -22.214405659936851 -24.534569903808119 6.7261882814333243 -1 0 0 I I #
point $-1 -41.774886960557978 -24.534569903808119 6.7261882814333243 #
point $-1 -41.774886960557978 -24.534569903808119 -6.7261882814333243 #
face $-1 $-1 $494 $47 $-1 $629 reversed single #
loop $-1 $-1 $490 $335 #
plane-surface $-1 0 0 -6.7261882814333243 0 0 1 1 0 0 forward_v I I I I #
coedge $-1 $630 $631 $343 $498 forward $336 $-1 #
coedge $-1 $338 $502 $492 $632 forward $206 $-1 #
edge $-1 $496 -24.868330019252575 $348 -19.560481300621127 $338 $633 forward 7 unknown #
coedge $-1 $634 $344 $339 $491 forward $485 $-1 #
edge $-1 $349 19.560481300621127 $495 24.868330019252575 $490 $635 forward 7 unknown #
coedge $-1 $636 $341 $488 $632 reversed $494 $-1 #
coedge $-1 $341 $636 $634 $637 reversed $494 $-1 #
loop $-1 $-1 $341 $484 #
vertex $-1 $637 $638 #
vertex $-1 $342 $639 #
straight-curve $-1 47.082735679189426 -24.534569903808119 0 0 0 1 I I #
edge $-1 $503 -6.7261882814333243 $500 6.7261882814333243 $487 $640 forward 7 unknown #
coedge $-1 $344 $634 $630 $641 forward $485 $-1 #
vertex $-1 $345 $642 #
straight-curve $-1 41.774886960557978 -13.101792521407676 -6.7261882814333243 0 1 0 I I #
coedge $-1 $488 $346 $631 $643 forward $206 $-1 #
vertex $-1 $643 $644 #
straight-curve $-1 41.774886960557978 -13.101792521407676 6.7261882814333243 0 -1 0 I I #
point $-1 41.774886960557978 -24.534569903808119 6.7261882814333243 #
point $-1 41.774886960557978 -24.534569903808119 -6.7261882814333243 #
plane-surface $-1 0 0 6.7261882814333243 0 0 1 1 0 0 forward_v I I I I #
coedge $-1 $518 $517 $510 $645 forward $352 $-1 #
coedge $-1 $510 $354 $356 $514 reversed $214 $-1 #
coedge $-1 $354 $509 $508 $645 reversed $214 $-1 #
coedge $-1 $362 $357 $354 $512 forward $363 $-1 #
edge $-1 $515 3.2376661244288663 $646 8.8111691399834235 $511 $647 forward 7 unknown #
coedge $-1 $356 $355 $518 $648 reversed $133 $-1 #
edge $-1 $649 -55.745200363645168 $515 -48.855971717160102 $509 $650 forward 7 unknown #
vertex $-1 $358 $651 #
straight-curve $-1 -11.951534391780385 22.299097166268027 6.7261882814333234 1 0 0 I I #
coedge $-1 $508 $359 $362 $522 reversed $352 $-1 #
coedge $-1 $359 $508 $513 $648 forward $352 $-1 #
vertex $-1 $360 $652 #
straight-curve $-1 -36.268267036124499 27.872600181822584 55.812237204288614 0 0 1 I I #
straight-curve $-1 -36.268267036124499 -17.226213963065568 35.443008310073779 0 0.80901698891910034 -0.5877852598018023 I I #
edge $-1 $646 11.53787053099704 $364 36.268267036124499 $517 $653 forward 7 unknown #
point $-1 -36.268267036124499 27.872600181822584 6.7261882814333243 #
point $-1 -36.268267036124499 22.299097166268027 6.7261882814333234 #
edge $-1 $654 1 $654 0 $367 $-1 forward 7 unknown #
vertex $-1 $368 $655 #
ellipse-curve $-1 -31.322187735099007 24.335739465882451 3.6690580241874819 0 0.5877852598018023 0.80901698891910034 0.5 0 0 1 I I #
point $-1 -30.822187735099007 25.085848674045302 4.7014947565292005 #
edge $-1 $656 1 $656 0 $371 $-1 forward 7 unknown #
vertex $-1 $372 $657 #
ellipse-curve $-1 -23.903068783560769 24.335739465882451 3.6690580241874819 0 0.5877852598018023 0.80901698891910034 0.5 0 0 1 I I #
point $-1 -23.403068783560769 25.085848674045302 4.7014947565292005 #
edge $-1 $658 1 $658 0 $375 $-1 forward 7 unknown #
vertex $-1 $376 $659 #
ellipse-curve $-1 -16.483949832022532 24.335739465882451 3.6690580241874819 0 0.5877852598018023 0.80901698891910034 0.5 0 0 1 I I #
point $-1 -15.983949832022532 25.085848674045302 4.7014947565292005 #
loop $-1 $-1 $387 $379 #
plane-surface $-1 0 -27.872600181822584 0 0 1 0 0 0 1 forward_v I I I I #
coedge $-1 $540 $382 $384 $544 reversed $243 $-1 #
coedge $-1 $382 $539 $660 $661 reversed $243 $-1 #
coedge $-1 $390 $385 $382 $542 forward $380 $-1 #
edge $-1 $545 -27.77757747143788 $662 -22.653858186139864 $541 $663 forward 7 unknown #
coedge $-1 $384 $383 $548 $664 reversed $152 $-1 #
edge $-1 $665 -1.1287752508472441e-014 $545 8.1416706678633748 $539 $666 forward 7 unknown #
vertex $-1 $386 $667 #
straight-curve $-1 -7.2223290721925579 -22.748880896524568 6.7261882814333243 -1 0 0 I I #
coedge $-1 $660 $387 $390 $552 reversed $537 $-1 #
coedge $-1 $387 $660 $543 $664 forward $537 $-1 #
vertex $-1 $388 $668 #
straight-curve $-1 -6.8459557528839809 -27.872600181822584 29.829586015687184 0 0 1 I I #
straight-curve $-1 -6.8459557528839809 -27.872600181822577 0.39892173501597483 0 -0.62932038083071107 -0.77714596973225614 I I #
edge $-1 $662 -22.043360535886251 $391 -6.8459557528839809 $547 $669 forward 7 unknown #
point $-1 -6.8459557528839809 -27.872600181822584 6.7261882814333243 #
point $-1 -6.8459557528839809 -22.748880896524568 6.7261882814333243 #
edge $-1 $670 1 $670 0 $394 $-1 forward 7 unknown #
vertex $-1 $395 $671 #
ellipse-curve $-1 -19.003879579285798 -23.78144667252921 2.3241572862493562 0 -0.77714596973225614 0.62932038083071107 1 0 0 1 I I #
point $-1 -18.003879579285798 -25.310740539173576 3.5625550082246442 #
edge $-1 $672 1 $672 0 $398 $-1 forward 7 unknown #
vertex $-1 $399 $673 #
ellipse-curve $-1 -14.444658144385116 -23.78144667252921 2.3241572862493562 0 -0.77714596973225614 0.62932038083071107 1 0 0 1 I I #
point $-1 -13.444658144385116 -25.310740539173576 3.5625550082246442 #
edge $-1 $674 1 $674 0 $402 $-1 forward 7 unknown #
vertex $-1 $403 $675 #
ellipse-curve $-1 -9.8854367094844378 -23.78144667252921 2.3241572862493562 0 -0.77714596973225614 0.62932038083071107 1 0 0 1 I I #
point $-1 -8.8854367094844378 -25.310740539173576 3.5625550082246442 #
plane-surface $-1 0 0 6.7261882814333243 0 0 1 1 0 0 forward_v I I I I #
coedge $-1 $578 $577 $570 $676 forward $407 $-1 #
coedge $-1 $570 $409 $411 $574 reversed $272 $-1 #
coedge $-1 $409 $569 $568 $676 reversed $272 $-1 #
coedge $-1 $417 $412 $409 $572 forward $418 $-1 #
edge $-1 $575 -27.77757747143788 $677 -22.653858186139864 $571 $678 forward 7 unknown #
coedge $-1 $411 $410 $578 $679 reversed $171 $-1 #
edge $-1 $680 -1.1287752508472441e-014 $575 8.1416706678633748 $569 $681 forward 7 unknown #
vertex $-1 $413 $682 #
straight-curve $-1 7.2223290721925544 -22.748880896524568 6.7261882814333243 -1 0 0 I I #
coedge $-1 $568 $414 $417 $582 reversed $407 $-1 #
coedge $-1 $414 $568 $573 $679 forward $407 $-1 #
vertex $-1 $415 $683 #
straight-curve $-1 22.043360535886244 -27.872600181822584 29.829586015687184 0 0 1 I I #
straight-curve $-1 22.043360535886244 -27.872600181822577 0.39892173501597483 0 -0.62932038083071107 -0.77714596973225614 I I #
edge $-1 $677 6.8459557528839738 $419 22.043360535886244 $577 $684 forward 7 unknown #
point $-1 22.043360535886244 -27.872600181822584 6.7261882814333243 #
point $-1 22.043360535886244 -22.748880896524568 6.7261882814333243 #
edge $-1 $685 1 $685 0 $422 $-1 forward 7 unknown #
vertex $-1 $423 $686 #
ellipse-curve $-1 9.8854367094844235 -23.78144667252921 2.3241572862493562 0 -0.77714596973225614 0.62932038083071107 1 0 0 1 I I #
point $-1 10.885436709484424 -25.310740539173576 3.5625550082246442 #
edge $-1 $687 1 $687 0 $426 $-1 forward 7 unknown #
vertex $-1 $427 $688 #
ellipse-curve $-1 14.444658144385109 -23.78144667252921 2.3241572862493562 0 -0.77714596973225614 0.62932038083071107 1 0 0 1 I I #
point $-1 15.444658144385109 -25.310740539173576 3.5625550082246442 #
edge $-1 $689 1 $689 0 $430 $-1 forward 7 unknown #
vertex $-1 $431 $690 #
ellipse-curve $-1 19.00387957928578 -23.78144667252921 2.3241572862493562 0 -0.77714596973225614 0.62932038083071107 1 0 0 1 I I #
point $-1 20.00387957928578 -25.310740539173576 3.5625550082246442 #
plane-surface $-1 47.082735679189426 0 0 -1 0 0 0 0 1 forward_v I I I I #
coedge $-1 $439 $437 $441 $602 reversed $301 $-1 #
edge $-1 $452 -6.7261882814333243 $604 6.7261882814333243 $451 $691 forward 7 unknown #
vertex $-1 $602 $692 #
straight-curve $-1 -47.082735679189426 -27.872600181822584 0 0 0 -1 I I #
edge $-1 $600 -27.872600181822584 $604 27.872600181822584 $598 $693 forward 7 unknown #
straight-curve $-1 0 -27.872600181822584 -6.7261882814333243 -1 0 0 I I #
vertex $-1 $444 $694 #
straight-curve $-1 0 27.872600181822584 -6.7261882814333243 1 0 0 I I #
point $-1 47.082735679189426 27.872600181822584 -6.7261882814333243 #
point $-1 47.082735679189426 -27.872600181822584 -6.7261882814333243 #
straight-curve $-1 -47.082735679189426 0 6.7261882814333243 0 -1 0 I I #
point $-1 -47.082735679189426 27.872600181822584 6.7261882814333243 #
point $-1 -47.082735679189426 -27.872600181822584 6.7261882814333243 #
straight-curve $-1 47.082735679189426 -27.872600181822584 0 0 0 -1 I I #
straight-curve $-1 47.082735679189426 27.872600181822584 0 0 0 -1 I I #
plane-surface $-1 0 -27.872600181822584 0 0 1 0 0 0 1 forward_v I I I I #
coedge $-1 $695 $464 $476 $625 reversed $320 $-1 #
coedge $-1 $464 $695 $479 $627 reversed $320 $-1 #
edge $-1 $696 -47.082735679189426 $473 -41.774886960557978 $469 $697 forward 7 unknown #
straight-curve $-1 -41.774886960557978 -13.101792521407676 6.7261882814333243 0 1 0 I I #
coedge $-1 $476 $467 $470 $621 forward $462 $-1 #
straight-curve $-1 -41.774886960557978 -13.101792521407676 -6.7261882814333243 0 -1 0 I I #
coedge $-1 $470 $469 $695 $698 forward $471 $-1 #
edge $-1 $472 41.774886960557978 $699 47.082735679189426 $470 $700 forward 7 unknown #
point $-1 -41.774886960557978 -27.872600181822584 -6.7261882814333243 #
point $-1 -41.774886960557978 -27.872600181822584 6.7261882814333243 #
straight-curve $-1 -47.082735679189426 -24.534569903808119 0 0 0 -1 I I #
edge $-1 $699 -27.872600181822584 $477 -24.534569903808119 $614 $701 forward 7 unknown #
point $-1 -47.082735679189426 -24.534569903808119 -6.7261882814333243 #
edge $-1 $480 24.534569903808119 $696 27.872600181822584 $615 $702 forward 7 unknown #
point $-1 -47.082735679189426 -24.534569903808119 6.7261882814333243 #
plane-surface $-1 47.082735679189426 0 0 -1 0 0 0 0 1 forward_v I I I I #
coedge $-1 $703 $487 $499 $641 reversed $336 $-1 #
coedge $-1 $487 $703 $502 $643 reversed $336 $-1 #
edge $-1 $704 -27.872600181822584 $496 -24.534569903808119 $492 $705 forward 7 unknown #
straight-curve $-1 22.214405659936851 -24.534569903808119 6.7261882814333243 -1 0 0 I I #
coedge $-1 $499 $490 $493 $637 forward $485 $-1 #
straight-curve $-1 22.214405659936851 -24.534569903808119 -6.7261882814333243 1 0 0 I I #
coedge $-1 $493 $492 $703 $706 forward $494 $-1 #
edge $-1 $495 24.534569903808119 $707 27.872600181822584 $493 $708 forward 7 unknown #
point $-1 47.082735679189426 -24.534569903808119 -6.7261882814333243 #
point $-1 47.082735679189426 -24.534569903808119 6.7261882814333243 #
straight-curve $-1 41.774886960557978 -27.872600181822584 0 0 0 -1 I I #
edge $-1 $707 -47.082735679189426 $500 -41.774886960557978 $630 $709 forward 7 unknown #
point $-1 41.774886960557978 -27.872600181822584 -6.7261882814333243 #
edge $-1 $503 41.774886960557978 $704 47.082735679189426 $631 $710 forward 7 unknown #
point $-1 41.774886960557978 -27.872600181822584 6.7261882814333243 #
edge $-1 $646 49.086048922855291 $649 53.135435972663537 $508 $711 forward 7 unknown #
vertex $-1 $522 $712 #
straight-curve $-1 -11.53787053099704 19.06143104183916 6.7261882814333234 0 1 0 I I #
edge $-1 $649 -0.41366386078334472 $519 24.316732644344114 $518 $713 forward 7 unknown #
vertex $-1 $648 $714 #
straight-curve $-1 -11.53787053099704 -17.226213963065568 35.443008310073779 0 -0.80901698891910034 0.5877852598018023 I I #
point $-1 -11.53787053099704 22.299097166268027 6.7261882814333234 #
point $-1 -36.268267036124499 27.872600181822584 2.6768012316250775 #
straight-curve $-1 0 27.872600181822584 6.7261882814333243 -1 0 0 I I #
vertex $-1 $525 $715 #
point $-1 -30.822187735099007 24.335739465882451 3.6690580241874819 #
vertex $-1 $529 $716 #
point $-1 -23.403068783560769 24.335739465882451 3.6690580241874819 #
vertex $-1 $533 $717 #
point $-1 -15.983949832022532 24.335739465882451 3.6690580241874819 #
coedge $-1 $548 $547 $540 $661 forward $537 $-1 #
edge $-1 $662 23.103397734253861 $665 29.430664280671216 $660 $718 forward 7 unknown #
vertex $-1 $552 $719 #
straight-curve $-1 -22.043360535886251 -50.526458367962448 6.7261882814333234 0 -1 0 I I #
edge $-1 $665 -14.821031463693693 $549 0.37637331930857698 $548 $720 forward 7 unknown #
vertex $-1 $664 $721 #
straight-curve $-1 -22.043360535886251 -27.872600181822577 0.39892173501597483 0 0.62932038083071107 0.77714596973225614 I I #
point $-1 -22.043360535886251 -22.748880896524568 6.7261882814333243 #
point $-1 -6.8459557528839809 -27.872600181822584 0.39892173501596606 #
straight-curve $-1 0 -27.872600181822584 6.7261882814333243 1 0 0 I I #
vertex $-1 $555 $722 #
point $-1 -18.003879579285798 -23.78144667252921 2.3241572862493562 #
vertex $-1 $559 $723 #
point $-1 -13.444658144385116 -23.78144667252921 2.3241572862493562 #
vertex $-1 $563 $724 #
point $-1 -8.8854367094844378 -23.78144667252921 2.3241572862493562 #
edge $-1 $677 23.103397734253861 $680 29.430664280671216 $568 $725 forward 7 unknown #
vertex $-1 $582 $726 #
straight-curve $-1 6.8459557528839738 -50.526458367962448 6.7261882814333234 0 -1 0 I I #
edge $-1 $680 -0.37637331930858053 $579 14.821031463693689 $578 $727 forward 7 unknown #
vertex $-1 $679 $728 #
straight-curve $-1 6.8459557528839738 -27.872600181822577 0.39892173501597483 0 0.62932038083071107 0.77714596973225614 I I #
point $-1 6.8459557528839738 -22.748880896524568 6.7261882814333243 #
point $-1 22.043360535886244 -27.872600181822584 0.39892173501596606 #
straight-curve $-1 0 -27.872600181822584 6.7261882814333243 1 0 0 I I #
vertex $-1 $585 $729 #
point $-1 10.885436709484424 -23.78144667252921 2.3241572862493562 #
vertex $-1 $589 $730 #
point $-1 15.444658144385109 -23.78144667252921 2.3241572862493562 #
vertex $-1 $593 $731 #
point $-1 20.00387957928578 -23.78144667252921 2.3241572862493562 #
straight-curve $-1 -47.082735679189426 27.872600181822584 0 0 0 -1 I I #
point $-1 -47.082735679189426 -27.872600181822584 -6.7261882814333243 #
straight-curve $-1 -47.082735679189426 0 -6.7261882814333243 0 1 0 I I #
point $-1 -47.082735679189426 27.872600181822584 -6.7261882814333243 #
coedge $-1 $615 $614 $620 $698 reversed $320 $-1 #
vertex $-1 $627 $732 #
straight-curve $-1 0 -27.872600181822584 6.7261882814333243 1 0 0 I I #
edge $-1 $696 -6.7261882814333243 $699 6.7261882814333243 $695 $733 forward 7 unknown #
vertex $-1 $625 $734 #
straight-curve $-1 0 -27.872600181822584 -6.7261882814333243 -1 0 0 I I #
straight-curve $-1 -47.082735679189426 0 -6.7261882814333243 0 1 0 I I #
straight-curve $-1 -47.082735679189426 0 6.7261882814333243 0 -1 0 I I #
coedge $-1 $631 $630 $636 $706 reversed $336 $-1 #
vertex $-1 $632 $735 #
straight-curve $-1 47.082735679189426 0 6.7261882814333243 0 1 0 I I #
edge $-1 $704 -6.7261882814333243 $707 6.7261882814333243 $636 $736 forward 7 unknown #
vertex $-1 $706 $737 #
straight-curve $-1 47.082735679189426 0 -6.7261882814333243 0 -1 0 I I #
straight-curve $-1 0 -27.872600181822584 -6.7261882814333243 -1 0 0 I I #
straight-curve $-1 0 -27.872600181822584 6.7261882814333243 1 0 0 I I #
straight-curve $-1 -11.53787053099704 27.872600181822584 55.812237204288614 0 0 -1 I I #
point $-1 -11.53787053099704 27.872600181822584 6.7261882814333243 #
straight-curve $-1 -11.951534391780385 27.872600181822584 2.6768012316250775 -1 0 0 I I #
point $-1 -11.53787053099704 27.872600181822584 2.6768012316250775 #
point $-1 -31.322187735099007 24.041846835981548 3.2645495297279314 #
point $-1 -23.903068783560769 24.041846835981548 3.2645495297279314 #
point $-1 -16.483949832022532 24.041846835981548 3.2645495297279314 #
straight-curve $-1 -22.043360535886251 -27.872600181822584 29.829586015687184 0 0 -1 I I #
point $-1 -22.043360535886251 -27.872600181822584 6.7261882814333243 #
straight-curve $-1 -7.2223290721925579 -27.872600181822584 0.39892173501596401 1 0 0 I I #
point $-1 -22.043360535886251 -27.872600181822584 0.39892173501596606 #
point $-1 -19.003879579285798 -23.004300702796957 1.6948369054186454 #
point $-1 -14.444658144385116 -23.004300702796957 1.6948369054186454 #
point $-1 -9.8854367094844378 -23.004300702796957 1.6948369054186454 #
straight-curve $-1 6.8459557528839738 -27.872600181822584 29.829586015687184 0 0 -1 I I #
point $-1 6.8459557528839738 -27.872600181822584 6.7261882814333243 #
straight-curve $-1 7.2223290721925544 -27.872600181822584 0.39892173501596401 1 0 0 I I #
point $-1 6.8459557528839738 -27.872600181822584 0.39892173501596606 #
point $-1 9.8854367094844235 -23.004300702796957 1.6948369054186454 #
point $-1 14.444658144385109 -23.004300702796957 1.6948369054186454 #
point $-1 19.00387957928578 -23.004300702796957 1.6948369054186454 #
point $-1 -47.082735679189426 -27.872600181822584 6.7261882814333243 #
straight-curve $-1 -47.082735679189426 -27.872600181822584 0 0 0 -1 I I #
point $-1 -47.082735679189426 -27.872600181822584 -6.7261882814333243 #
point $-1 47.082735679189426 -27.872600181822584 6.7261882814333243 #
straight-curve $-1 47.082735679189426 -27.872600181822584 0 0 0 -1 I I #
point $-1 47.082735679189426 -27.872600181822584 -6.7261882814333243 #
End-of-ACIS-data 