500 0 13 0           
7 Unknown 11 ACIS 5.0 NT 24 Thu Mar 25 16:02:07 1999 
-1 9.9999999999999995e-007 1e-010 
body $-1 $13 $-1 $14 #
body $-1 $15 $-1 $16 #
body $-1 $17 $-1 $18 #
body $-1 $19 $-1 $20 #
body $-1 $21 $-1 $22 #
body $-1 $23 $-1 $24 #
body $-1 $25 $-1 $26 #
body $-1 $27 $-1 $28 #
body $-1 $29 $-1 $30 #
body $-1 $31 $-1 $32 #
body $-1 $33 $-1 $34 #
body $-1 $35 $-1 $36 #
body $-1 $37 $-1 $38 #
lump $-1 $-1 $39 $0 #
transform $-1 1 0 0 0 1 0 0 0 1 47.905514694662315 32.804904641048658 11.911363062146078 1 rotate no_reflect no_shear #
lump $-1 $-1 $40 $1 #
transform $-1 1 0 0 0 1 0 0 0 1 47.905514694662315 32.804904641048658 11.911363062146078 1 rotate no_reflect no_shear #
lump $-1 $-1 $41 $2 #
transform $-1 1 0 0 0 1 0 0 0 1 47.905514694662315 32.804904641048658 11.911363062146078 1 rotate no_reflect no_shear #
lump $-1 $-1 $42 $3 #
transform $-1 1 0 0 0 1 0 0 0 1 47.905514694662315 32.804904641048658 11.911363062146078 1 rotate no_reflect no_shear #
lump $-1 $-1 $43 $4 #
transform $-1 1 0 0 0 1 0 0 0 1 47.905514694662315 32.804904641048658 11.911363062146078 1 rotate no_reflect no_shear #
lump $-1 $-1 $44 $5 #
transform $-1 1 0 0 0 1 0 0 0 1 47.905514694662315 32.804904641048658 11.911363062146078 1 rotate no_reflect no_shear #
lump $-1 $-1 $45 $6 #
transform $-1 1 0 0 0 1 0 0 0 1 47.905514694662315 32.804904641048658 11.911363062146078 1 rotate no_reflect no_shear #
lump $-1 $-1 $46 $7 #
transform $-1 1 0 0 0 1 0 0 0 1 47.905514694662315 32.804904641048658 11.911363062146078 1 rotate no_reflect no_shear #
lump $-1 $-1 $47 $8 #
transform $-1 1 0 0 0 1 0 0 0 1 47.905514694662315 32.804904641048658 11.911363062146078 1 rotate no_reflect no_shear #
lump $-1 $-1 $48 $9 #
transform $-1 1 0 0 0 1 0 0 0 1 47.905514694662315 32.804904641048658 11.911363062146078 1 rotate no_reflect no_shear #
lump $-1 $-1 $49 $10 #
transform $-1 1 0 0 0 1 0 0 0 1 47.905514694662315 32.804904641048658 11.911363062146078 1 rotate no_reflect no_shear #
lump $-1 $-1 $50 $11 #
transform $-1 1 0 0 0 1 0 0 0 1 47.905514694662315 32.804904641048658 11.911363062146078 1 rotate no_reflect no_shear #
lump $-1 $-1 $51 $12 #
transform $-1 1 0 0 0 1 0 0 0 1 47.905514694662315 32.804904641048658 11.911363062146078 1 rotate no_reflect no_shear #
shell $-1 $-1 $-1 $52 $-1 $13 #
shell $-1 $-1 $-1 $53 $-1 $15 #
shell $-1 $-1 $-1 $54 $-1 $17 #
shell $-1 $-1 $-1 $55 $-1 $19 #
shell $-1 $-1 $-1 $56 $-1 $21 #
shell $-1 $-1 $-1 $57 $-1 $23 #
shell $-1 $-1 $-1 $58 $-1 $25 #
shell $-1 $-1 $-1 $59 $-1 $27 #
shell $-1 $-1 $-1 $60 $-1 $29 #
shell $-1 $-1 $-1 $61 $-1 $31 #
shell $-1 $-1 $-1 $62 $-1 $33 #
shell $-1 $-1 $-1 $63 $-1 $35 #
shell $-1 $-1 $-1 $64 $-1 $37 #
face $-1 $65 $66 $39 $-1 $67 forward single #
face $-1 $68 $69 $40 $-1 $70 reversed single #
face $-1 $71 $72 $41 $-1 $73 forward single #
face $-1 $74 $75 $42 $-1 $76 reversed single #
face $-1 $77 $78 $43 $-1 $79 forward single #
face $-1 $80 $81 $44 $-1 $82 reversed single #
face $-1 $83 $84 $45 $-1 $85 forward single #
face $-1 $86 $87 $46 $-1 $88 reversed single #
face $-1 $89 $90 $47 $-1 $91 forward single #
face $-1 $92 $93 $48 $-1 $94 reversed single #
face $-1 $95 $96 $49 $-1 $97 forward single #
face $-1 $98 $99 $50 $-1 $100 forward single #
face $-1 $101 $102 $51 $-1 $103 forward single #
face $-1 $104 $105 $39 $-1 $106 reversed single #
loop $-1 $-1 $107 $52 #
plane-surface $-1 0 0 11.911363062146078 0 0 1 1 0 0 forward_v I I I I #
face $-1 $108 $109 $40 $-1 $110 reversed single #
loop $-1 $-1 $111 $53 #
plane-surface $-1 -114.46144902413536 -28.674244316716006 75.485565080456723 0 1 0 -0.69465837861970381 0 0.71933979245794832 forward_v I I I I #
face $-1 $112 $113 $41 $-1 $114 forward single #
loop $-1 $115 $116 $54 #
cone-surface $-1 -44.11084362876425 -23.902605895978127 8.1752030642387012 0.69465837861970381 0 -0.71933979245794832 0.71933979245794832 0 0.69465837861970381 1 I I 0 1 1 forward I I I I #
face $-1 $117 $118 $42 $-1 $119 reversed single #
loop $-1 $-1 $120 $55 #
plane-surface $-1 -114.46144902413536 -12.271791996191675 75.485565080456723 0 1 0 -0.69465837861970381 0 0.71933979245794832 forward_v I I I I #
face $-1 $121 $122 $43 $-1 $123 forward single #
loop $-1 $124 $125 $56 #
cone-surface $-1 -44.11084362876425 -7.5001535754537976 8.1752030642387012 0.69465837861970381 0 -0.71933979245794832 0.71933979245794832 0 0.69465837861970381 1 I I 0 1 1 forward I I I I #
face $-1 $126 $127 $44 $-1 $128 reversed single #
loop $-1 $-1 $129 $57 #
plane-surface $-1 -114.46144902413536 4.1306603243326538 75.485565080456723 0 1 0 -0.69465837861970381 0 0.71933979245794832 forward_v I I I I #
face $-1 $130 $131 $45 $-1 $132 forward single #
loop $-1 $133 $134 $58 #
cone-surface $-1 -44.11084362876425 8.9022987450705315 8.1752030642387012 0.69465837861970381 0 -0.71933979245794832 0.71933979245794832 0 0.69465837861970381 1 I I 0 1 1 forward I I I I #
face $-1 $135 $136 $46 $-1 $137 reversed single #
loop $-1 $-1 $138 $59 #
plane-surface $-1 -114.46144902413536 20.533112644856985 75.485565080456723 0 1 0 -0.69465837861970381 0 0.71933979245794832 forward_v I I I I #
face $-1 $139 $140 $47 $-1 $141 forward single #
loop $-1 $142 $143 $60 #
cone-surface $-1 -44.11084362876425 25.304751065594864 8.1752030642387012 0.69465837861970381 0 -0.71933979245794832 0.71933979245794832 0 0.69465837861970381 1 I I 0 1 1 forward I I I I #
face $-1 $144 $145 $48 $-1 $146 reversed single #
loop $-1 $-1 $147 $61 #
plane-surface $-1 43.176730115582927 23.374947588027958 135.67661491356048 0 -1 0 -0.68199836817093118 0 -0.7313536940579346 forward_v I I I I #
face $-1 $148 $149 $49 $-1 $150 forward single #
loop $-1 $151 $152 $62 #
cone-surface $-1 41.286712272974 16.9776357723619 5.6871284607425316 -0.68199836817093118 0 -0.7313536940579346 0.3656768470289673 0 -0.34099918408546559 1 I I 0 1 0.5 forward I I I I #
face $-1 $153 $154 $50 $-1 $155 forward single #
loop $-1 $156 $157 $63 #
cone-surface $-1 41.286712272974 19.376627703236672 5.6871284607425316 -0.68199836817093118 0 -0.7313536940579346 0.3656768470289673 0 -0.34099918408546559 1 I I 0 1 0.5 forward I I I I #
face $-1 $158 $159 $51 $-1 $160 forward single #
loop $-1 $161 $162 $64 #
cone-surface $-1 41.286712272974 21.775619634111443 5.6871284607425316 -0.68199836817093118 0 -0.7313536940579346 0.3656768470289673 0 -0.34099918408546559 1 I I 0 1 0.5 forward I I I I #
face $-1 $163 $164 $39 $-1 $165 reversed single #
loop $-1 $-1 $166 $65 #
plane-surface $-1 0 0 -11.911363062146078 0 0 1 1 0 0 forward_v I I I I #
coedge $-1 $167 $168 $169 $170 forward $66 $-1 #
face $-1 $171 $172 $40 $-1 $173 reversed single #
loop $-1 $-1 $174 $68 #
plane-surface $-1 -47.90551469466233 -23.902605895978127 6.5648790843575568 -0.69465837861970381 0 0.71933979245794832 0.71933979245794832 0 0.69465837861970381 forward_v I I I I #
coedge $-1 $175 $176 $177 $178 reversed $69 $-1 #
face $-1 $-1 $179 $41 $-1 $180 forward single #
loop $-1 $181 $182 $71 #
cone-surface $-1 -42.737066426306427 -23.902605895978127 6.7526151589966137 0.69465837861970381 0 -0.71933979245794832 0.35966989622897416 0 0.3473291893098519 1 I I -0.70710678118654746 0.70710678118654746 0.5 forward I I I I #
loop $-1 $-1 $183 $54 #
coedge $-1 $116 $116 $184 $185 reversed $72 $-1 #
face $-1 $186 $187 $42 $-1 $188 reversed single #
loop $-1 $-1 $189 $74 #
plane-surface $-1 -47.90551469466233 -7.5001535754537976 6.5648790843575568 -0.69465837861970381 0 0.71933979245794832 0.71933979245794832 0 0.69465837861970381 forward_v I I I I #
coedge $-1 $190 $191 $192 $193 reversed $75 $-1 #
face $-1 $-1 $194 $43 $-1 $195 forward single #
loop $-1 $196 $197 $77 #
cone-surface $-1 -42.737066426306427 -7.5001535754537976 6.7526151589966137 0.69465837861970381 0 -0.71933979245794832 0.35966989622897416 0 0.3473291893098519 1 I I -0.70710678118654746 0.70710678118654746 0.5 forward I I I I #
loop $-1 $-1 $198 $56 #
coedge $-1 $125 $125 $199 $200 reversed $78 $-1 #
face $-1 $201 $202 $44 $-1 $203 reversed single #
loop $-1 $-1 $204 $80 #
plane-surface $-1 -47.90551469466233 8.9022987450705315 6.5648790843575568 -0.69465837861970381 0 0.71933979245794832 0.71933979245794832 0 0.69465837861970381 forward_v I I I I #
coedge $-1 $205 $206 $207 $208 reversed $81 $-1 #
face $-1 $-1 $209 $45 $-1 $210 forward single #
loop $-1 $211 $212 $83 #
cone-surface $-1 -42.737066426306427 8.9022987450705315 6.7526151589966137 0.69465837861970381 0 -0.71933979245794832 0.35966989622897416 0 0.3473291893098519 1 I I -0.70710678118654746 0.70710678118654746 0.5 forward I I I I #
loop $-1 $-1 $213 $58 #
coedge $-1 $134 $134 $214 $215 reversed $84 $-1 #
face $-1 $216 $217 $46 $-1 $218 reversed single #
loop $-1 $-1 $219 $86 #
plane-surface $-1 -47.90551469466233 25.304751065594864 6.5648790843575568 -0.69465837861970381 0 0.71933979245794832 0.71933979245794832 0 0.69465837861970381 forward_v I I I I #
coedge $-1 $220 $221 $222 $223 reversed $87 $-1 #
face $-1 $-1 $224 $47 $-1 $225 forward single #
loop $-1 $226 $227 $89 #
cone-surface $-1 -42.737066426306427 25.304751065594864 6.7526151589966137 0.69465837861970381 0 -0.71933979245794832 0.35966989622897416 0 0.3473291893098519 1 I I -0.70710678118654746 0.70710678118654746 0.5 forward I I I I #
loop $-1 $-1 $228 $60 #
coedge $-1 $143 $143 $229 $230 reversed $90 $-1 #
face $-1 $231 $232 $48 $-1 $233 reversed single #
loop $-1 $-1 $234 $92 #
plane-surface $-1 -22.166235580713604 19.376627703236672 65.60486463818458 0.68199836817093118 0 0.7313536940579346 0.7313536940579346 0 -0.68199836817093118 forward_v I I I I #
coedge $-1 $235 $236 $237 $238 reversed $93 $-1 #
face $-1 $-1 $239 $49 $-1 $240 forward single #
loop $-1 $241 $242 $95 #
cone-surface $-1 40.743670525961591 16.9776357723619 5.104787495953504 -0.68199836817093118 0 -0.7313536940579346 0.18283842351448365 0 -0.17049959204273279 1 I I -0.70710678118654746 0.70710678118654746 0.25 forward I I I I #
loop $-1 $-1 $243 $62 #
coedge $-1 $152 $152 $244 $245 reversed $96 $-1 #
face $-1 $-1 $246 $50 $-1 $247 forward single #
loop $-1 $248 $249 $98 #
cone-surface $-1 40.743670525961591 19.376627703236672 5.104787495953504 -0.68199836817093118 0 -0.7313536940579346 0.18283842351448365 0 -0.17049959204273279 1 I I -0.70710678118654746 0.70710678118654746 0.25 forward I I I I #
loop $-1 $-1 $250 $63 #
coedge $-1 $157 $157 $251 $252 reversed $99 $-1 #
face $-1 $-1 $253 $51 $-1 $254 forward single #
loop $-1 $255 $256 $101 #
cone-surface $-1 40.743670525961591 21.775619634111443 5.104787495953504 -0.68199836817093118 0 -0.7313536940579346 0.18283842351448365 0 -0.17049959204273279 1 I I -0.70710678118654746 0.70710678118654746 0.25 forward I I I I #
loop $-1 $-1 $257 $64 #
coedge $-1 $162 $162 $258 $259 reversed $102 $-1 #
face $-1 $260 $261 $39 $-1 $262 reversed single #
loop $-1 $-1 $263 $104 #
plane-surface $-1 0 -32.804904641048658 0 0 1 0 0 0 1 forward_v I I I I #
coedge $-1 $264 $265 $266 $267 forward $105 $-1 #
coedge $-1 $268 $107 $269 $270 forward $66 $-1 #
coedge $-1 $107 $268 $271 $272 forward $66 $-1 #
coedge $-1 $273 $274 $107 $170 reversed $275 $-1 #
edge $-1 $276 -32.804904641048658 $277 32.804904641048658 $169 $278 forward 7 unknown #
face $-1 $279 $280 $40 $-1 $281 reversed single #
loop $-1 $-1 $282 $108 #
plane-surface $-1 -114.46144902413536 -19.130967475240247 75.485565080456723 0 -1 0 0.69465837861970381 0 -0.71933979245794832 forward_v I I I I #
coedge $-1 $283 $284 $285 $286 reversed $109 $-1 #
coedge $-1 $176 $111 $287 $288 reversed $69 $-1 #
coedge $-1 $111 $175 $283 $289 reversed $69 $-1 #
coedge $-1 $285 $290 $111 $178 forward $291 $-1 #
edge $-1 $292 9.3252098174053657 $293 14.861655922905548 $177 $294 forward 7 unknown #
loop $-1 $-1 $184 $112 #
plane-surface $-1 -47.90551469466233 -23.902605895978127 6.5648790843575568 -0.69465837861970381 0 0.71933979245794832 0.71933979245794832 0 0.69465837861970381 forward_v I I I I #
loop $-1 $-1 $295 $71 #
coedge $-1 $182 $182 $183 $296 reversed $113 $-1 #
coedge $-1 $183 $183 $182 $296 forward $115 $-1 #
coedge $-1 $184 $184 $116 $185 forward $179 $-1 #
edge $-1 $297 0 $297 6.2831853071796004 $184 $298 forward 7 unknown #
face $-1 $299 $300 $42 $-1 $301 forward single #
loop $-1 $-1 $302 $117 #
plane-surface $-1 -114.46144902413536 -2.7285151547159199 75.485565080456723 0 -1 0 0.69465837861970381 0 -0.71933979245794832 forward_v I I I I #
coedge $-1 $303 $304 $305 $306 reversed $118 $-1 #
coedge $-1 $191 $120 $307 $308 reversed $75 $-1 #
coedge $-1 $120 $190 $303 $309 reversed $75 $-1 #
coedge $-1 $305 $310 $120 $193 forward $300 $-1 #
edge $-1 $311 9.3252098174053657 $312 14.861655922905548 $192 $313 forward 7 unknown #
loop $-1 $-1 $199 $121 #
plane-surface $-1 -47.90551469466233 -7.5001535754537976 6.5648790843575568 -0.69465837861970381 0 0.71933979245794832 0.71933979245794832 0 0.69465837861970381 forward_v I I I I #
loop $-1 $-1 $314 $77 #
coedge $-1 $197 $197 $198 $315 reversed $122 $-1 #
coedge $-1 $198 $198 $197 $315 forward $124 $-1 #
coedge $-1 $199 $199 $125 $200 forward $194 $-1 #
edge $-1 $316 0 $316 6.2831853071796004 $199 $317 forward 7 unknown #
face $-1 $318 $319 $44 $-1 $320 forward single #
loop $-1 $-1 $321 $126 #
plane-surface $-1 -114.46144902413536 13.673937165808409 75.485565080456723 0 -1 0 0.69465837861970381 0 -0.71933979245794832 forward_v I I I I #
coedge $-1 $322 $323 $324 $325 reversed $127 $-1 #
coedge $-1 $206 $129 $326 $327 reversed $81 $-1 #
coedge $-1 $129 $205 $322 $328 reversed $81 $-1 #
coedge $-1 $324 $329 $129 $208 forward $319 $-1 #
edge $-1 $330 9.3252098174053657 $331 14.861655922905548 $207 $332 forward 7 unknown #
loop $-1 $-1 $214 $130 #
plane-surface $-1 -47.90551469466233 8.9022987450705315 6.5648790843575568 -0.69465837861970381 0 0.71933979245794832 0.71933979245794832 0 0.69465837861970381 forward_v I I I I #
loop $-1 $-1 $333 $83 #
coedge $-1 $212 $212 $213 $334 reversed $131 $-1 #
coedge $-1 $213 $213 $212 $334 forward $133 $-1 #
coedge $-1 $214 $214 $134 $215 forward $209 $-1 #
edge $-1 $335 0 $335 6.2831853071796004 $214 $336 forward 7 unknown #
face $-1 $337 $338 $46 $-1 $339 forward single #
loop $-1 $-1 $340 $135 #
plane-surface $-1 -114.46144902413536 30.076389486332744 75.485565080456723 0 -1 0 0.69465837861970381 0 -0.71933979245794832 forward_v I I I I #
coedge $-1 $341 $342 $343 $344 reversed $136 $-1 #
coedge $-1 $221 $138 $345 $346 reversed $87 $-1 #
coedge $-1 $138 $220 $341 $347 reversed $87 $-1 #
coedge $-1 $343 $348 $138 $223 forward $338 $-1 #
edge $-1 $349 9.3252098174053657 $350 14.861655922905548 $222 $351 forward 7 unknown #
loop $-1 $-1 $229 $139 #
plane-surface $-1 -47.90551469466233 25.304751065594864 6.5648790843575568 -0.69465837861970381 0 0.71933979245794832 0.71933979245794832 0 0.69465837861970381 forward_v I I I I #
loop $-1 $-1 $352 $89 #
coedge $-1 $227 $227 $228 $353 reversed $140 $-1 #
coedge $-1 $228 $228 $227 $353 forward $142 $-1 #
coedge $-1 $229 $229 $143 $230 forward $224 $-1 #
edge $-1 $354 0 $354 6.2831853071796004 $229 $355 forward 7 unknown #
face $-1 $356 $357 $48 $-1 $358 forward single #
loop $-1 $-1 $359 $144 #
plane-surface $-1 43.176730115582927 15.378307818445386 135.67661491356048 0 1 0 0.68199836817093118 0 0.7313536940579346 forward_v I I I I #
coedge $-1 $360 $361 $362 $363 reversed $145 $-1 #
coedge $-1 $236 $147 $364 $365 reversed $93 $-1 #
coedge $-1 $147 $235 $360 $366 reversed $93 $-1 #
coedge $-1 $362 $367 $147 $238 forward $357 $-1 #
edge $-1 $368 -26.317149636870852 $369 -13.824629103433558 $237 $370 forward 7 unknown #
loop $-1 $-1 $244 $148 #
plane-surface $-1 -22.166235580713604 19.376627703236672 65.60486463818458 0.68199836817093118 0 0.7313536940579346 0.7313536940579346 0 -0.68199836817093118 forward_v I I I I #
loop $-1 $-1 $371 $95 #
coedge $-1 $242 $242 $243 $372 reversed $149 $-1 #
coedge $-1 $243 $243 $242 $372 forward $151 $-1 #
coedge $-1 $244 $244 $152 $245 forward $239 $-1 #
edge $-1 $373 0 $373 6.2831853071796004 $244 $374 forward 7 unknown #
loop $-1 $-1 $251 $153 #
plane-surface $-1 -22.166235580713604 19.376627703236672 65.60486463818458 0.68199836817093118 0 0.7313536940579346 0.7313536940579346 0 -0.68199836817093118 forward_v I I I I #
loop $-1 $-1 $375 $98 #
coedge $-1 $249 $249 $250 $376 reversed $154 $-1 #
coedge $-1 $250 $250 $249 $376 forward $156 $-1 #
coedge $-1 $251 $251 $157 $252 forward $246 $-1 #
edge $-1 $377 0 $377 6.2831853071796004 $251 $378 forward 7 unknown #
loop $-1 $-1 $258 $158 #
plane-surface $-1 -22.166235580713604 19.376627703236672 65.60486463818458 0.68199836817093118 0 0.7313536940579346 0.7313536940579346 0 -0.68199836817093118 forward_v I I I I #
loop $-1 $-1 $379 $101 #
coedge $-1 $256 $256 $257 $380 reversed $159 $-1 #
coedge $-1 $257 $257 $256 $380 forward $161 $-1 #
coedge $-1 $258 $258 $162 $259 forward $253 $-1 #
edge $-1 $381 0 $381 6.2831853071796004 $258 $382 forward 7 unknown #
face $-1 $383 $384 $39 $-1 $385 reversed single #
loop $-1 $-1 $386 $163 #
plane-surface $-1 -47.905514694662315 0 0 1 0 0 0 0 -1 forward_v I I I I #
coedge $-1 $387 $271 $388 $389 forward $164 $-1 #
coedge $-1 $390 $166 $387 $391 forward $105 $-1 #
coedge $-1 $166 $390 $392 $393 forward $105 $-1 #
coedge $-1 $274 $273 $166 $267 reversed $275 $-1 #
edge $-1 $394 -32.804904641048658 $395 32.804904641048658 $266 $396 forward 7 unknown #
coedge $-1 $168 $167 $397 $398 forward $66 $-1 #
coedge $-1 $399 $400 $167 $270 reversed $384 $-1 #
edge $-1 $277 -47.905514694662315 $401 47.905514694662315 $269 $402 forward 7 unknown #
coedge $-1 $263 $403 $168 $272 reversed $164 $-1 #
edge $-1 $404 -47.905514694662315 $276 47.905514694662315 $271 $405 forward 7 unknown #
coedge $-1 $266 $169 $403 $406 forward $275 $-1 #
coedge $-1 $169 $266 $399 $407 reversed $275 $-1 #
loop $-1 $-1 $273 $383 #
vertex $-1 $170 $408 #
vertex $-1 $170 $409 #
straight-curve $-1 47.905514694662315 0 11.911363062146078 0 1 0 I I #
face $-1 $-1 $291 $40 $-1 $410 forward single #
loop $-1 $-1 $411 $171 #
plane-surface $-1 -47.905514694662315 0 0 1 0 0 0 0 -1 forward_v I I I I #
coedge $-1 $412 $413 $414 $415 reversed $172 $-1 #
coedge $-1 $416 $174 $176 $289 forward $109 $-1 #
coedge $-1 $174 $416 $412 $417 forward $109 $-1 #
coedge $-1 $414 $177 $174 $286 forward $291 $-1 #
edge $-1 $293 -16.722941368726943 $418 -7.1796645272511839 $285 $419 forward 7 unknown #
coedge $-1 $420 $421 $175 $288 forward $280 $-1 #
edge $-1 $422 -31.177903455870791 $292 -25.831419478082282 $287 $423 forward 7 unknown #
edge $-1 $293 -7.6965658838119264 $422 -1.9477141995791963e-014 $176 $424 forward 7 unknown #
coedge $-1 $177 $414 $420 $425 forward $291 $-1 #
loop $-1 $-1 $414 $279 #
vertex $-1 $288 $426 #
vertex $-1 $178 $427 #
straight-curve $-1 -57.230724512067681 -28.674244316716006 11.91136306214608 1 0 0 I I #
coedge $-1 $295 $295 $-1 $428 reversed $181 $-1 #
edge $-1 $429 0 $429 6.2831853071796004 $182 $430 forward 7 unknown #
vertex $-1 $185 $431 #
ellipse-curve $-1 -45.137291641912228 -23.902605895978127 9.238121073251822 -0.69465837861970381 0 0.71933979245794832 0.71933979245794832 0 0.69465837861970381 1 I I #
face $-1 $-1 $432 $42 $-1 $433 reversed single #
loop $-1 $-1 $192 $186 #
plane-surface $-1 0 0 11.911363062146078 0 0 1 1 0 0 forward_v I I I I #
coedge $-1 $434 $435 $436 $437 reversed $187 $-1 #
coedge $-1 $438 $189 $191 $309 forward $118 $-1 #
coedge $-1 $189 $438 $434 $439 forward $118 $-1 #
coedge $-1 $436 $192 $189 $306 forward $300 $-1 #
edge $-1 $312 -8.5217152084647765 $440 1.0215616330109789 $305 $441 forward 7 unknown #
coedge $-1 $442 $443 $190 $308 forward $432 $-1 #
edge $-1 $444 -31.177903455870791 $311 -25.831419478082282 $307 $445 forward 7 unknown #
edge $-1 $312 -7.6965658838119264 $444 -1.9477141995791963e-014 $191 $446 forward 7 unknown #
coedge $-1 $192 $436 $442 $447 forward $300 $-1 #
vertex $-1 $193 $448 #
vertex $-1 $193 $449 #
straight-curve $-1 -57.230724512067681 -12.271791996191675 11.91136306214608 1 0 0 I I #
coedge $-1 $314 $314 $-1 $450 reversed $196 $-1 #
edge $-1 $451 0 $451 6.2831853071796004 $197 $452 forward 7 unknown #
vertex $-1 $200 $453 #
ellipse-curve $-1 -45.137291641912228 -7.5001535754537976 9.238121073251822 -0.69465837861970381 0 0.71933979245794832 0.71933979245794832 0 0.69465837861970381 1 I I #
face $-1 $-1 $454 $44 $-1 $455 reversed single #
loop $-1 $-1 $207 $201 #
plane-surface $-1 0 0 11.911363062146078 0 0 1 1 0 0 forward_v I I I I #
coedge $-1 $456 $457 $458 $459 reversed $202 $-1 #
coedge $-1 $460 $204 $206 $328 forward $127 $-1 #
coedge $-1 $204 $460 $456 $461 forward $127 $-1 #
coedge $-1 $458 $207 $204 $325 forward $319 $-1 #
edge $-1 $331 -0.32048904820261193 $462 9.2227877932731435 $324 $463 forward 7 unknown #
coedge $-1 $464 $465 $205 $327 forward $454 $-1 #
edge $-1 $466 -31.177903455870791 $330 -25.831419478082282 $326 $467 forward 7 unknown #
edge $-1 $331 -7.6965658838119264 $466 -1.9477141995791963e-014 $206 $468 forward 7 unknown #
coedge $-1 $207 $458 $464 $469 forward $319 $-1 #
vertex $-1 $208 $470 #
vertex $-1 $208 $471 #
straight-curve $-1 -57.230724512067681 4.1306603243326538 11.91136306214608 1 0 0 I I #
coedge $-1 $333 $333 $-1 $472 reversed $211 $-1 #
edge $-1 $473 0 $473 6.2831853071796004 $212 $474 forward 7 unknown #
vertex $-1 $215 $475 #
ellipse-curve $-1 -45.137291641912228 8.9022987450705315 9.238121073251822 -0.69465837861970381 0 0.71933979245794832 0.71933979245794832 0 0.69465837861970381 1 I I #
face $-1 $-1 $476 $46 $-1 $477 reversed single #
loop $-1 $-1 $222 $216 #
plane-surface $-1 0 0 11.911363062146078 0 0 1 1 0 0 forward_v I I I I #
coedge $-1 $478 $479 $480 $481 reversed $217 $-1 #
coedge $-1 $482 $219 $221 $347 forward $136 $-1 #
coedge $-1 $219 $482 $478 $483 forward $136 $-1 #
coedge $-1 $480 $222 $219 $344 forward $338 $-1 #
edge $-1 $350 7.8807371120595526 $484 17.424013953535312 $343 $485 forward 7 unknown #
coedge $-1 $486 $487 $220 $346 forward $476 $-1 #
edge $-1 $488 -31.177903455870791 $349 -25.831419478082282 $345 $489 forward 7 unknown #
edge $-1 $350 -7.6965658838119264 $488 -1.9477141995791963e-014 $221 $490 forward 7 unknown #
coedge $-1 $222 $480 $486 $491 forward $338 $-1 #
vertex $-1 $223 $492 #
vertex $-1 $223 $493 #
straight-curve $-1 -57.230724512067681 20.533112644856985 11.91136306214608 1 0 0 I I #
coedge $-1 $352 $352 $-1 $494 reversed $226 $-1 #
edge $-1 $495 0 $495 6.2831853071796004 $227 $496 forward 7 unknown #
vertex $-1 $230 $497 #
ellipse-curve $-1 -45.137291641912228 25.304751065594864 9.238121073251822 -0.69465837861970381 0 0.71933979245794832 0.71933979245794832 0 0.69465837861970381 1 I I #
face $-1 $-1 $498 $48 $-1 $499 reversed single #
loop $-1 $-1 $237 $231 #
plane-surface $-1 0 0 11.911363062146078 0 0 1 1 0 0 forward_v I I I I #
coedge $-1 $500 $501 $502 $503 reversed $232 $-1 #
coedge $-1 $504 $234 $236 $366 forward $145 $-1 #
coedge $-1 $234 $504 $500 $505 forward $145 $-1 #
coedge $-1 $502 $237 $234 $363 forward $357 $-1 #
edge $-1 $369 -13.686633736409622 $506 -5.6899939668270498 $362 $507 forward 7 unknown #
coedge $-1 $508 $509 $235 $365 forward $498 $-1 #
edge $-1 $510 -67.576408514892194 $368 -55.926944394634162 $364 $511 forward 7 unknown #
edge $-1 $369 78.729662829018878 $510 95.811029389324645 $236 $512 forward 7 unknown #
coedge $-1 $237 $502 $508 $513 forward $357 $-1 #
vertex $-1 $365 $514 #
vertex $-1 $238 $515 #
straight-curve $-1 21.588365057791464 23.374947588027958 11.91136306214608 -1 0 0 I I #
coedge $-1 $371 $371 $-1 $516 reversed $241 $-1 #
edge $-1 $517 0 $517 6.2831853071796004 $242 $518 forward 7 unknown #
vertex $-1 $245 $519 #
ellipse-curve $-1 41.659254427943672 16.9776357723619 6.0866310020170635 0.68199836817093118 0 0.7313536940579346 0.3656768470289673 0 -0.34099918408546559 1 I I #
coedge $-1 $375 $375 $-1 $520 reversed $248 $-1 #
edge $-1 $521 0 $521 6.2831853071796004 $249 $522 forward 7 unknown #
vertex $-1 $252 $523 #
ellipse-curve $-1 41.659254427943672 19.376627703236672 6.0866310020170635 0.68199836817093118 0 0.7313536940579346 0.3656768470289673 0 -0.34099918408546559 1 I I #
coedge $-1 $379 $379 $-1 $524 reversed $255 $-1 #
edge $-1 $525 0 $525 6.2831853071796004 $256 $526 forward 7 unknown #
vertex $-1 $259 $527 #
ellipse-curve $-1 41.659254427943672 21.775619634111443 6.0866310020170635 0.68199836817093118 0 0.7313536940579346 0.3656768470289673 0 -0.34099918408546559 1 I I #
face $-1 $-1 $275 $39 $-1 $528 reversed single #
loop $-1 $-1 $399 $260 #
plane-surface $-1 0 32.804904641048658 0 0 -1 0 0 0 -1 forward_v I I I I #
coedge $-1 $529 $397 $400 $530 forward $261 $-1 #
coedge $-1 $403 $263 $264 $391 reversed $164 $-1 #
coedge $-1 $397 $529 $263 $389 reversed $261 $-1 #
edge $-1 $404 -11.911363062146078 $531 11.911363062146078 $388 $532 forward 7 unknown #
coedge $-1 $265 $264 $529 $533 forward $105 $-1 #
edge $-1 $395 -47.905514694662315 $531 47.905514694662315 $387 $534 forward 7 unknown #
coedge $-1 $400 $399 $265 $393 reversed $384 $-1 #
edge $-1 $535 -47.905514694662315 $394 47.905514694662315 $392 $536 forward 7 unknown #
vertex $-1 $267 $537 #
vertex $-1 $406 $538 #
straight-curve $-1 47.905514694662315 0 -11.911363062146078 0 -1 0 I I #
coedge $-1 $386 $388 $268 $398 reversed $261 $-1 #
edge $-1 $401 -32.804904641048658 $404 32.804904641048658 $397 $539 forward 7 unknown #
coedge $-1 $392 $269 $274 $407 forward $384 $-1 #
coedge $-1 $269 $392 $386 $530 reversed $384 $-1 #
vertex $-1 $270 $540 #
straight-curve $-1 0 32.804904641048658 11.911363062146078 -1 0 0 I I #
coedge $-1 $271 $387 $273 $406 reversed $164 $-1 #
vertex $-1 $398 $541 #
straight-curve $-1 0 -32.804904641048658 11.911363062146078 1 0 0 I I #
edge $-1 $276 -11.911363062146078 $395 11.911363062146078 $273 $542 forward 7 unknown #
edge $-1 $277 -11.911363062146078 $394 11.911363062146078 $274 $543 forward 7 unknown #
point $-1 47.905514694662315 -32.804904641048658 11.911363062146078 #
point $-1 47.905514694662315 32.804904641048658 11.911363062146078 #
plane-surface $-1 0 0 11.911363062146078 0 0 1 1 0 0 forward_v I I I I #
coedge $-1 $421 $420 $413 $544 forward $280 $-1 #
coedge $-1 $413 $282 $284 $417 reversed $172 $-1 #
coedge $-1 $282 $412 $411 $544 reversed $172 $-1 #
coedge $-1 $290 $285 $282 $415 forward $291 $-1 #
edge $-1 $418 -14.861655922905548 $545 -9.3252098174053657 $414 $546 forward 7 unknown #
coedge $-1 $284 $283 $421 $547 reversed $109 $-1 #
edge $-1 $548 1.9477141995791963e-014 $418 7.6965658838119264 $412 $549 forward 7 unknown #
vertex $-1 $286 $550 #
straight-curve $-1 -42.369068589162133 -11.951302947989063 11.911363062146078 0 1 0 I I #
coedge $-1 $411 $287 $290 $425 reversed $280 $-1 #
coedge $-1 $287 $411 $416 $547 forward $280 $-1 #
vertex $-1 $288 $551 #
straight-curve $-1 -47.905514694662315 -28.674244316716006 37.742782540228362 0 0 1 I I #
straight-curve $-1 -47.90551469466233 -28.674244316716006 6.5648790843575568 -0.71933979245794832 0 -0.69465837861970381 I I #
edge $-1 $545 19.130967475240247 $292 28.674244316716006 $420 $552 forward 7 unknown #
point $-1 -47.905514694662315 -28.674244316716006 11.911363062146078 #
point $-1 -42.369068589162133 -28.674244316716006 11.911363062146078 #
edge $-1 $553 1 $553 0 $295 $-1 forward 7 unknown #
vertex $-1 $296 $554 #
ellipse-curve $-1 -43.08439561561628 -23.902605895978127 7.1122850552255876 -0.69465837861970381 0 0.71933979245794832 0.71933979245794832 0 0.69465837861970381 1 I I #
point $-1 -44.417951849454269 -23.902605895978127 9.932779451871518 #
loop $-1 $-1 $307 $299 #
plane-surface $-1 -47.905514694662315 0 0 1 0 0 0 0 -1 forward_v I I I I #
coedge $-1 $435 $302 $304 $439 reversed $187 $-1 #
coedge $-1 $302 $434 $555 $556 reversed $187 $-1 #
coedge $-1 $310 $305 $302 $437 forward $300 $-1 #
edge $-1 $440 -14.861655922905548 $557 -9.3252098174053657 $436 $558 forward 7 unknown #
coedge $-1 $304 $303 $443 $559 reversed $118 $-1 #
edge $-1 $560 1.9477141995791963e-014 $440 7.6965658838119264 $434 $561 forward 7 unknown #
vertex $-1 $306 $562 #
straight-curve $-1 -42.369068589162133 -3.7500767877268988 11.911363062146078 0 1 0 I I #
coedge $-1 $555 $307 $310 $447 reversed $432 $-1 #
coedge $-1 $307 $555 $438 $559 forward $432 $-1 #
vertex $-1 $308 $563 #
straight-curve $-1 -47.905514694662315 -12.271791996191675 37.742782540228362 0 0 1 I I #
straight-curve $-1 -47.90551469466233 -12.271791996191675 6.5648790843575568 -0.71933979245794832 0 -0.69465837861970381 I I #
edge $-1 $557 2.7285151547159199 $311 12.271791996191675 $442 $564 forward 7 unknown #
point $-1 -47.905514694662315 -12.271791996191675 11.911363062146078 #
point $-1 -42.369068589162133 -12.271791996191675 11.911363062146078 #
edge $-1 $565 1 $565 0 $314 $-1 forward 7 unknown #
vertex $-1 $315 $566 #
ellipse-curve $-1 -43.08439561561628 -7.5001535754537976 7.1122850552255876 -0.69465837861970381 0 0.71933979245794832 0.71933979245794832 0 0.69465837861970381 1 I I #
point $-1 -44.417951849454269 -7.5001535754537976 9.932779451871518 #
loop $-1 $-1 $326 $318 #
plane-surface $-1 -47.905514694662315 0 0 1 0 0 0 0 -1 forward_v I I I I #
coedge $-1 $457 $321 $323 $461 reversed $202 $-1 #
coedge $-1 $321 $456 $567 $568 reversed $202 $-1 #
coedge $-1 $329 $324 $321 $459 forward $319 $-1 #
edge $-1 $462 -14.861655922905548 $569 -9.3252098174053657 $458 $570 forward 7 unknown #
coedge $-1 $323 $322 $465 $571 reversed $127 $-1 #
edge $-1 $572 1.9477141995791963e-014 $462 7.6965658838119264 $456 $573 forward 7 unknown #
vertex $-1 $325 $574 #
straight-curve $-1 -42.369068589162133 4.4511493725352658 11.911363062146078 0 1 0 I I #
coedge $-1 $567 $326 $329 $469 reversed $454 $-1 #
coedge $-1 $326 $567 $460 $571 forward $454 $-1 #
vertex $-1 $327 $575 #
straight-curve $-1 -47.905514694662315 4.1306603243326538 37.742782540228362 0 0 1 I I #
straight-curve $-1 -47.90551469466233 4.1306603243326538 6.5648790843575568 -0.71933979245794832 0 -0.69465837861970381 I I #
edge $-1 $569 -13.673937165808409 $330 -4.1306603243326538 $464 $576 forward 7 unknown #
point $-1 -47.905514694662315 4.1306603243326538 11.911363062146078 #
point $-1 -42.369068589162133 4.1306603243326538 11.911363062146078 #
edge $-1 $577 1 $577 0 $333 $-1 forward 7 unknown #
vertex $-1 $334 $578 #
ellipse-curve $-1 -43.08439561561628 8.9022987450705315 7.1122850552255876 -0.69465837861970381 0 0.71933979245794832 0.71933979245794832 0 0.69465837861970381 1 I I #
point $-1 -44.417951849454269 8.9022987450705315 9.932779451871518 #
loop $-1 $-1 $345 $337 #
plane-surface $-1 -47.905514694662315 0 0 1 0 0 0 0 -1 forward_v I I I I #
coedge $-1 $479 $340 $342 $483 reversed $217 $-1 #
coedge $-1 $340 $478 $579 $580 reversed $217 $-1 #
coedge $-1 $348 $343 $340 $481 forward $338 $-1 #
edge $-1 $484 -14.861655922905548 $581 -9.3252098174053657 $480 $582 forward 7 unknown #
coedge $-1 $342 $341 $487 $583 reversed $136 $-1 #
edge $-1 $584 1.9477141995791963e-014 $484 7.6965658838119264 $478 $585 forward 7 unknown #
vertex $-1 $344 $586 #
straight-curve $-1 -42.369068589162133 12.652375532797432 11.911363062146078 0 1 0 I I #
coedge $-1 $579 $345 $348 $491 reversed $476 $-1 #
coedge $-1 $345 $579 $482 $583 forward $476 $-1 #
vertex $-1 $346 $587 #
straight-curve $-1 -47.905514694662315 20.533112644856985 37.742782540228362 0 0 1 I I #
straight-curve $-1 -47.90551469466233 20.533112644856985 6.5648790843575568 -0.71933979245794832 0 -0.69465837861970381 I I #
edge $-1 $581 -30.076389486332744 $349 -20.533112644856985 $486 $588 forward 7 unknown #
point $-1 -47.905514694662315 20.533112644856985 11.911363062146078 #
point $-1 -42.369068589162133 20.533112644856985 11.911363062146078 #
edge $-1 $589 1 $589 0 $352 $-1 forward 7 unknown #
vertex $-1 $353 $590 #
ellipse-curve $-1 -43.08439561561628 25.304751065594864 7.1122850552255876 -0.69465837861970381 0 0.71933979245794832 0.71933979245794832 0 0.69465837861970381 1 I I #
point $-1 -44.417951849454269 25.304751065594864 9.932779451871518 #
loop $-1 $-1 $364 $356 #
plane-surface $-1 47.905514694662315 0 0 -1 0 0 0 0 1 forward_v I I I I #
coedge $-1 $501 $359 $361 $505 reversed $232 $-1 #
coedge $-1 $359 $500 $591 $592 reversed $232 $-1 #
coedge $-1 $367 $362 $359 $503 forward $357 $-1 #
edge $-1 $506 13.824629103433558 $593 26.317149636870852 $502 $594 forward 7 unknown #
coedge $-1 $361 $360 $509 $595 reversed $145 $-1 #
edge $-1 $596 -95.811029389324645 $506 -78.729662829018878 $500 $597 forward 7 unknown #
vertex $-1 $363 $598 #
straight-curve $-1 35.412994161225022 9.6883138516183358 11.91136306214608 0 -1 0 I I #
coedge $-1 $591 $364 $367 $513 reversed $498 $-1 #
coedge $-1 $364 $591 $504 $595 forward $498 $-1 #
vertex $-1 $365 $599 #
straight-curve $-1 47.905514694662315 23.374947588027958 67.838307456780242 0 0 1 I I #
straight-curve $-1 -22.166235580713604 23.374947588027958 65.60486463818458 0.7313536940579346 0 -0.68199836817093118 I I #
edge $-1 $593 15.378307818445386 $368 23.374947588027958 $508 $600 forward 7 unknown #
point $-1 47.905514694662315 23.374947588027958 11.911363062146078 #
point $-1 35.412994161225022 23.374947588027958 11.91136306214608 #
edge $-1 $601 1 $601 0 $371 $-1 forward 7 unknown #
vertex $-1 $372 $602 #
ellipse-curve $-1 40.914170118004321 16.9776357723619 5.2876259194679873 0.68199836817093118 0 0.7313536940579346 0.3656768470289673 0 -0.34099918408546559 1 I I #
point $-1 42.024931274972651 16.9776357723619 5.7456318179316099 #
edge $-1 $603 1 $603 0 $375 $-1 forward 7 unknown #
vertex $-1 $376 $604 #
ellipse-curve $-1 40.914170118004321 19.376627703236672 5.2876259194679873 0.68199836817093118 0 0.7313536940579346 0.3656768470289673 0 -0.34099918408546559 1 I I #
point $-1 42.024931274972651 19.376627703236672 5.7456318179316099 #
edge $-1 $605 1 $605 0 $379 $-1 forward 7 unknown #
vertex $-1 $380 $606 #
ellipse-curve $-1 40.914170118004321 21.775619634111443 5.2876259194679873 0.68199836817093118 0 0.7313536940579346 0.3656768470289673 0 -0.34099918408546559 1 I I #
point $-1 42.024931274972651 21.775619634111443 5.7456318179316099 #
plane-surface $-1 47.905514694662315 0 0 -1 0 0 0 0 1 forward_v I I I I #
coedge $-1 $388 $386 $390 $533 reversed $261 $-1 #
edge $-1 $401 -11.911363062146078 $535 11.911363062146078 $400 $607 forward 7 unknown #
vertex $-1 $533 $608 #
straight-curve $-1 -47.905514694662315 -32.804904641048658 0 0 0 -1 I I #
edge $-1 $531 -32.804904641048658 $535 32.804904641048658 $529 $609 forward 7 unknown #
straight-curve $-1 0 -32.804904641048658 -11.911363062146078 -1 0 0 I I #
vertex $-1 $393 $610 #
straight-curve $-1 0 32.804904641048658 -11.911363062146078 1 0 0 I I #
point $-1 47.905514694662315 32.804904641048658 -11.911363062146078 #
point $-1 47.905514694662315 -32.804904641048658 -11.911363062146078 #
straight-curve $-1 -47.905514694662315 0 11.911363062146078 0 -1 0 I I #
point $-1 -47.905514694662315 32.804904641048658 11.911363062146078 #
point $-1 -47.905514694662315 -32.804904641048658 11.911363062146078 #
straight-curve $-1 47.905514694662315 -32.804904641048658 0 0 0 -1 I I #
straight-curve $-1 47.905514694662315 32.804904641048658 0 0 0 -1 I I #
edge $-1 $545 25.831419478082282 $548 31.177903455870791 $411 $611 forward 7 unknown #
vertex $-1 $425 $612 #
straight-curve $-1 -57.230724512067681 -19.130967475240247 11.91136306214608 -1 0 0 I I #
edge $-1 $548 7.1796645272511839 $422 16.722941368726943 $421 $613 forward 7 unknown #
vertex $-1 $547 $614 #
straight-curve $-1 -47.90551469466233 -19.130967475240247 6.5648790843575568 0.71933979245794832 0 0.69465837861970381 I I #
point $-1 -42.369068589162133 -19.130967475240247 11.911363062146078 #
point $-1 -47.905514694662315 -28.674244316716006 6.5648790843575702 #
straight-curve $-1 -47.905514694662315 0 11.911363062146078 0 -1 0 I I #
vertex $-1 $428 $615 #
point $-1 -42.365055823158329 -23.902605895978127 7.8069434338452917 #
coedge $-1 $443 $442 $435 $556 forward $432 $-1 #
edge $-1 $557 25.831419478082282 $560 31.177903455870791 $555 $616 forward 7 unknown #
vertex $-1 $447 $617 #
straight-curve $-1 -57.230724512067681 -2.7285151547159199 11.91136306214608 -1 0 0 I I #
edge $-1 $560 -1.0215616330109789 $444 8.5217152084647765 $443 $618 forward 7 unknown #
vertex $-1 $559 $619 #
straight-curve $-1 -47.90551469466233 -2.7285151547159199 6.5648790843575568 0.71933979245794832 0 0.69465837861970381 I I #
point $-1 -42.369068589162133 -2.7285151547159199 11.911363062146078 #
point $-1 -47.905514694662315 -12.271791996191675 6.5648790843575702 #
straight-curve $-1 -47.905514694662315 0 11.911363062146078 0 -1 0 I I #
vertex $-1 $450 $620 #
point $-1 -42.365055823158329 -7.5001535754537976 7.8069434338452917 #
coedge $-1 $465 $464 $457 $568 forward $454 $-1 #
edge $-1 $569 25.831419478082282 $572 31.177903455870791 $567 $621 forward 7 unknown #
vertex $-1 $469 $622 #
straight-curve $-1 -57.230724512067681 13.673937165808409 11.91136306214608 -1 0 0 I I #
edge $-1 $572 -9.2227877932731435 $466 0.32048904820261193 $465 $623 forward 7 unknown #
vertex $-1 $571 $624 #
straight-curve $-1 -47.90551469466233 13.673937165808409 6.5648790843575568 0.71933979245794832 0 0.69465837861970381 I I #
point $-1 -42.369068589162133 13.673937165808409 11.911363062146078 #
point $-1 -47.905514694662315 4.1306603243326538 6.5648790843575702 #
straight-curve $-1 -47.905514694662315 0 11.911363062146078 0 -1 0 I I #
vertex $-1 $472 $625 #
point $-1 -42.365055823158329 8.9022987450705315 7.8069434338452917 #
coedge $-1 $487 $486 $479 $580 forward $476 $-1 #
edge $-1 $581 25.831419478082282 $584 31.177903455870791 $579 $626 forward 7 unknown #
vertex $-1 $491 $627 #
straight-curve $-1 -57.230724512067681 30.076389486332744 11.91136306214608 -1 0 0 I I #
edge $-1 $584 -17.424013953535312 $488 -7.8807371120595526 $487 $628 forward 7 unknown #
vertex $-1 $583 $629 #
straight-curve $-1 -47.90551469466233 30.076389486332744 6.5648790843575568 0.71933979245794832 0 0.69465837861970381 I I #
point $-1 -42.369068589162133 30.076389486332744 11.911363062146078 #
point $-1 -47.905514694662315 20.533112644856985 6.5648790843575702 #
straight-curve $-1 -47.905514694662315 0 11.911363062146078 0 -1 0 I I #
vertex $-1 $494 $630 #
point $-1 -42.365055823158329 25.304751065594864 7.8069434338452917 #
coedge $-1 $509 $508 $501 $592 forward $498 $-1 #
edge $-1 $593 55.926944394634162 $596 67.576408514892194 $591 $631 forward 7 unknown #
vertex $-1 $513 $632 #
straight-curve $-1 21.588365057791464 15.378307818445386 11.91136306214608 1 0 0 I I #
edge $-1 $596 5.6899939668270498 $510 13.686633736409622 $509 $633 forward 7 unknown #
vertex $-1 $595 $634 #
straight-curve $-1 -22.166235580713604 15.378307818445386 65.60486463818458 -0.7313536940579346 0 0.68199836817093118 I I #
point $-1 35.412994161225022 15.378307818445386 11.91136306214608 #
point $-1 47.905514694662315 23.374947588027958 0.26189894188804885 #
straight-curve $-1 47.905514694662315 0 11.911363062146078 0 1 0 I I #
vertex $-1 $516 $635 #
point $-1 41.279846965033293 16.9776357723619 4.9466267353825222 #
vertex $-1 $520 $636 #
point $-1 41.279846965033293 19.376627703236672 4.9466267353825222 #
vertex $-1 $524 $637 #
point $-1 41.279846965033293 21.775619634111443 4.9466267353825222 #
straight-curve $-1 -47.905514694662315 32.804904641048658 0 0 0 -1 I I #
point $-1 -47.905514694662315 -32.804904641048658 -11.911363062146078 #
straight-curve $-1 -47.905514694662315 0 -11.911363062146078 0 1 0 I I #
point $-1 -47.905514694662315 32.804904641048658 -11.911363062146078 #
straight-curve $-1 -47.905514694662315 -19.130967475240247 37.742782540228362 0 0 -1 I I #
point $-1 -47.905514694662315 -19.130967475240247 11.911363062146078 #
straight-curve $-1 -47.905514694662315 -11.951302947989063 6.5648790843575711 0 -1 0 I I #
point $-1 -47.905514694662315 -19.130967475240247 6.5648790843575702 #
point $-1 -42.389737236996574 -23.902605895978127 6.3929452627676397 #
straight-curve $-1 -47.905514694662315 -2.7285151547159199 37.742782540228362 0 0 -1 I I #
point $-1 -47.905514694662315 -2.7285151547159199 11.911363062146078 #
straight-curve $-1 -47.905514694662315 -3.7500767877268988 6.5648790843575711 0 -1 0 I I #
point $-1 -47.905514694662315 -2.7285151547159199 6.5648790843575702 #
point $-1 -42.389737236996574 -7.5001535754537976 6.3929452627676397 #
straight-curve $-1 -47.905514694662315 13.673937165808409 37.742782540228362 0 0 -1 I I #
point $-1 -47.905514694662315 13.673937165808409 11.911363062146078 #
straight-curve $-1 -47.905514694662315 4.4511493725352658 6.5648790843575711 0 -1 0 I I #
point $-1 -47.905514694662315 13.673937165808409 6.5648790843575702 #
point $-1 -42.389737236996574 8.9022987450705315 6.3929452627676397 #
straight-curve $-1 -47.905514694662315 30.076389486332744 37.742782540228362 0 0 -1 I I #
point $-1 -47.905514694662315 30.076389486332744 11.911363062146078 #
straight-curve $-1 -47.905514694662315 12.652375532797432 6.5648790843575711 0 -1 0 I I #
point $-1 -47.905514694662315 30.076389486332744 6.5648790843575702 #
point $-1 -42.389737236996574 25.304751065594864 6.3929452627676397 #
straight-curve $-1 47.905514694662315 15.378307818445386 67.838307456780242 0 0 -1 I I #
point $-1 47.905514694662315 15.378307818445386 11.911363062146078 #
straight-curve $-1 47.905514694662308 9.6883138516183358 0.26189894188804885 0 1 0 I I #
point $-1 47.905514694662315 15.378307818445386 0.26189894188804885 #
point $-1 40.57317093391886 16.9776357723619 4.9219490724390207 #
point $-1 40.57317093391886 19.376627703236672 4.9219490724390207 #
point $-1 40.57317093391886 21.775619634111443 4.9219490724390207 #
End-of-ACIS-data 