500 0 5 0           
7 Unknown 11 ACIS 5.0 NT 24 Fri Mar 26 17:28:16 1999 
-1 9.9999999999999995e-007 1e-010 
body $-1 $5 $-1 $6 #
body $-1 $7 $-1 $8 #
body $-1 $9 $-1 $10 #
body $-1 $11 $-1 $12 #
body $-1 $13 $-1 $14 #
lump $-1 $-1 $15 $0 #
transform $-1 1 0 0 0 1 0 0 0 1 56.511734366893521 34.296295005542397 12.781956071891955 1 rotate no_reflect no_shear #
lump $-1 $-1 $16 $1 #
transform $-1 1 0 0 0 1 0 0 0 1 56.511734366893521 34.296295005542397 12.781956071891955 1 rotate no_reflect no_shear #
lump $-1 $-1 $17 $2 #
transform $-1 1 0 0 0 1 0 0 0 1 56.511734366893521 34.296295005542397 12.781956071891955 1 rotate no_reflect no_shear #
lump $-1 $-1 $18 $3 #
transform $-1 1 0 0 0 1 0 0 0 1 56.511734366893521 34.296295005542397 12.781956071891955 1 rotate no_reflect no_shear #
lump $-1 $-1 $19 $4 #
transform $-1 1 0 0 0 1 0 0 0 1 56.511734366893521 34.296295005542397 12.781956071891955 1 rotate no_reflect no_shear #
shell $-1 $-1 $-1 $20 $-1 $5 #
shell $-1 $-1 $-1 $21 $-1 $7 #
shell $-1 $-1 $-1 $22 $-1 $9 #
shell $-1 $-1 $-1 $23 $-1 $11 #
shell $-1 $-1 $-1 $24 $-1 $13 #
face $-1 $25 $26 $15 $-1 $27 reversed single #
face $-1 $28 $29 $16 $-1 $30 forward single #
face $-1 $31 $32 $17 $-1 $33 forward single #
face $-1 $34 $35 $18 $-1 $36 reversed single #
face $-1 $37 $38 $19 $-1 $39 forward single #
face $-1 $40 $41 $15 $-1 $42 reversed single #
loop $-1 $-1 $43 $20 #
plane-surface $-1 0 34.296295005542397 0 0 -1 0 0 0 -1 forward_v I I I I #
face $-1 $44 $45 $16 $-1 $46 reversed single #
loop $-1 $-1 $47 $21 #
plane-surface $-1 0 -34.296295005542397 0 0 1 0 0 0 1 forward_v I I I I #
face $-1 $48 $49 $17 $-1 $50 reversed single #
loop $-1 $-1 $51 $22 #
plane-surface $-1 0 34.296295005542397 0 0 -1 0 0 0 -1 forward_v I I I I #
face $-1 $52 $53 $18 $-1 $54 reversed single #
loop $-1 $-1 $55 $23 #
plane-surface $-1 84.267543644677843 -3.4796490860491005 167.05921780241869 0 -1 0 -0.81915205242281985 0 -0.57357642473473569 forward_v I I I I #
face $-1 $56 $57 $19 $-1 $58 forward single #
loop $-1 $59 $60 $24 #
cone-surface $-1 55.005023571467554 -8.9406028109776834 10.928296978452044 -0.81915205242281985 0 -0.57357642473473569 0.28678821236736785 0 -0.40957602621140993 1 I I 0 1 0.5 forward I I I I #
face $-1 $61 $62 $15 $-1 $63 forward single #
loop $-1 $-1 $64 $25 #
plane-surface $-1 0 -34.296295005542397 0 0 1 0 0 0 1 forward_v I I I I #
coedge $-1 $65 $66 $67 $68 reversed $26 $-1 #
face $-1 $69 $70 $16 $-1 $71 reversed single #
loop $-1 $-1 $72 $28 #
plane-surface $-1 0 0 -12.781956071891955 0 0 1 1 0 0 forward_v I I I I #
coedge $-1 $73 $74 $75 $76 forward $29 $-1 #
face $-1 $77 $78 $17 $-1 $79 reversed single #
loop $-1 $-1 $80 $31 #
plane-surface $-1 0 0 -12.781956071891955 0 0 1 1 0 0 forward_v I I I I #
coedge $-1 $81 $82 $83 $84 forward $32 $-1 #
face $-1 $85 $86 $18 $-1 $87 reversed single #
loop $-1 $-1 $88 $34 #
plane-surface $-1 -8.3158627405502159 -8.9406028109776834 102.23162069497494 0.81915205242281985 0 0.57357642473473569 0.57357642473473569 0 -0.81915205242281985 forward_v I I I I #
coedge $-1 $89 $90 $91 $92 reversed $35 $-1 #
face $-1 $-1 $93 $19 $-1 $94 forward single #
loop $-1 $95 $96 $37 #
cone-surface $-1 54.390659532150437 -8.9406028109776834 10.498114659900992 -0.81915205242281985 0 -0.57357642473473569 0.14339410618368392 0 -0.20478801310570496 1 I I -0.70710678118654746 0.70710678118654746 0.25 forward I I I I #
loop $-1 $-1 $97 $24 #
coedge $-1 $60 $60 $98 $99 reversed $38 $-1 #
face $-1 $100 $101 $15 $-1 $102 reversed single #
loop $-1 $-1 $103 $40 #
plane-surface $-1 0 0 12.781956071891955 0 0 1 1 0 0 forward_v I I I I #
coedge $-1 $104 $105 $106 $107 reversed $41 $-1 #
coedge $-1 $108 $43 $109 $110 reversed $26 $-1 #
coedge $-1 $43 $108 $111 $112 forward $26 $-1 #
coedge $-1 $113 $114 $43 $68 forward $101 $-1 #
edge $-1 $115 -56.511734366893521 $116 56.511734366893521 $43 $117 forward 7 unknown #
face $-1 $118 $119 $16 $-1 $120 reversed single #
loop $-1 $-1 $121 $44 #
plane-surface $-1 -40.738306214842844 -46.399087515358843 0 0 1 0 0 0 1 forward_v I I I I #
coedge $-1 $122 $123 $74 $124 forward $45 $-1 #
coedge $-1 $125 $47 $126 $127 reversed $29 $-1 #
coedge $-1 $47 $125 $72 $124 reversed $29 $-1 #
coedge $-1 $128 $129 $47 $76 reversed $119 $-1 #
edge $-1 $130 -12.781956071891955 $131 12.781956071891955 $75 $132 forward 7 unknown #
face $-1 $133 $134 $17 $-1 $135 reversed single #
loop $-1 $-1 $136 $48 #
plane-surface $-1 -42.574247138710135 40.347691260450624 0 1 0 0 0 0 -1 forward_v I I I I #
coedge $-1 $137 $138 $82 $139 forward $49 $-1 #
coedge $-1 $140 $51 $141 $142 reversed $32 $-1 #
coedge $-1 $51 $140 $80 $139 reversed $32 $-1 #
coedge $-1 $143 $144 $51 $84 reversed $145 $-1 #
edge $-1 $146 -12.781956071891955 $147 12.781956071891955 $83 $148 forward 7 unknown #
face $-1 $149 $150 $18 $-1 $151 forward single #
loop $-1 $-1 $152 $52 #
plane-surface $-1 84.267543644677843 -14.401556535906266 167.05921780241869 0 1 0 0.81915205242281985 0 0.57357642473473569 forward_v I I I I #
coedge $-1 $153 $154 $155 $156 reversed $53 $-1 #
coedge $-1 $90 $55 $157 $158 reversed $35 $-1 #
coedge $-1 $55 $89 $153 $159 reversed $35 $-1 #
coedge $-1 $155 $160 $55 $92 forward $150 $-1 #
edge $-1 $161 -14.377962544554599 $162 -12.183693006125473 $91 $163 forward 7 unknown #
loop $-1 $-1 $98 $56 #
plane-surface $-1 -8.3158627405502159 -8.9406028109776834 102.23162069497494 0.81915205242281985 0 0.57357642473473569 0.57357642473473569 0 -0.81915205242281985 forward_v I I I I #
loop $-1 $-1 $164 $37 #
coedge $-1 $96 $96 $97 $165 reversed $57 $-1 #
coedge $-1 $97 $97 $96 $165 forward $59 $-1 #
coedge $-1 $98 $98 $60 $99 forward $93 $-1 #
edge $-1 $166 0 $166 6.2831853071796004 $98 $167 forward 7 unknown #
face $-1 $168 $169 $15 $-1 $170 reversed single #
loop $-1 $-1 $113 $61 #
plane-surface $-1 0 0 -12.781956071891955 0 0 1 1 0 0 forward_v I I I I #
coedge $-1 $171 $172 $173 $174 forward $62 $-1 #
coedge $-1 $175 $64 $176 $177 reversed $41 $-1 #
coedge $-1 $64 $175 $178 $179 forward $41 $-1 #
coedge $-1 $114 $113 $64 $107 forward $101 $-1 #
edge $-1 $180 -56.511734366893521 $181 56.511734366893521 $64 $182 forward 7 unknown #
coedge $-1 $66 $65 $171 $183 reversed $26 $-1 #
coedge $-1 $184 $185 $65 $110 forward $169 $-1 #
edge $-1 $186 -12.781956071891955 $115 12.781956071891955 $65 $187 forward 7 unknown #
coedge $-1 $173 $188 $66 $112 reversed $189 $-1 #
edge $-1 $190 -12.781956071891955 $116 12.781956071891955 $111 $191 forward 7 unknown #
coedge $-1 $106 $67 $188 $192 forward $101 $-1 #
coedge $-1 $67 $106 $184 $193 forward $101 $-1 #
vertex $-1 $68 $194 #
vertex $-1 $192 $195 #
straight-curve $-1 0 34.296295005542397 -12.781956071891955 1 0 0 I I #
face $-1 $196 $197 $16 $-1 $198 reversed single #
loop $-1 $-1 $75 $69 #
plane-surface $-1 -42.574247138710135 -40.347691260450617 0 1 0 0 0 0 -1 forward_v I I I I #
coedge $-1 $199 $200 $201 $202 forward $70 $-1 #
coedge $-1 $203 $72 $204 $205 forward $45 $-1 #
coedge $-1 $72 $203 $128 $206 forward $45 $-1 #
edge $-1 $130 -42.574247138710135 $207 -38.902365290975553 $72 $208 forward 7 unknown #
coedge $-1 $74 $73 $209 $210 forward $29 $-1 #
coedge $-1 $211 $212 $73 $127 forward $213 $-1 #
edge $-1 $214 38.902365290975553 $131 42.574247138710135 $126 $215 forward 7 unknown #
coedge $-1 $201 $75 $123 $206 reversed $119 $-1 #
coedge $-1 $75 $201 $211 $216 reversed $119 $-1 #
vertex $-1 $124 $217 #
vertex $-1 $216 $218 #
straight-curve $-1 -42.574247138710135 -34.296295005542397 0 0 0 1 I I #
face $-1 $219 $145 $17 $-1 $220 reversed single #
loop $-1 $-1 $221 $77 #
plane-surface $-1 -40.738306214842844 46.399087515358843 0 0 -1 0 0 0 -1 forward_v I I I I #
coedge $-1 $222 $223 $224 $225 forward $78 $-1 #
coedge $-1 $226 $80 $222 $227 forward $49 $-1 #
coedge $-1 $80 $226 $143 $228 forward $49 $-1 #
edge $-1 $146 38.902365290975553 $229 42.574247138710135 $80 $230 forward 7 unknown #
coedge $-1 $82 $81 $231 $232 forward $32 $-1 #
coedge $-1 $233 $234 $81 $142 forward $235 $-1 #
edge $-1 $236 -42.574247138710135 $147 -38.902365290975553 $141 $237 forward 7 unknown #
coedge $-1 $238 $83 $138 $228 reversed $145 $-1 #
coedge $-1 $83 $238 $233 $239 reversed $145 $-1 #
loop $-1 $-1 $83 $133 #
vertex $-1 $139 $240 #
vertex $-1 $239 $241 #
straight-curve $-1 -38.902365290975553 34.296295005542397 0 0 0 1 I I #
face $-1 $-1 $242 $18 $-1 $243 reversed single #
loop $-1 $-1 $91 $85 #
plane-surface $-1 0 0 12.781956071891955 0 0 1 1 0 0 forward_v I I I I #
coedge $-1 $244 $245 $246 $247 reversed $86 $-1 #
coedge $-1 $248 $88 $90 $159 forward $53 $-1 #
coedge $-1 $88 $248 $244 $249 forward $53 $-1 #
coedge $-1 $246 $91 $88 $156 forward $150 $-1 #
edge $-1 $162 -0.99065231943974119 $250 9.9312551304174246 $155 $251 forward 7 unknown #
coedge $-1 $252 $253 $89 $158 forward $242 $-1 #
edge $-1 $254 -73.881394591462453 $161 -70.747652829317389 $157 $255 forward 7 unknown #
edge $-1 $162 109.19787646080628 $254 113.02346873378703 $90 $256 forward 7 unknown #
coedge $-1 $91 $246 $252 $257 forward $150 $-1 #
vertex $-1 $92 $258 #
vertex $-1 $92 $259 #
straight-curve $-1 42.133771822338922 -3.4796490860491005 12.781956071891955 -1 0 0 I I #
coedge $-1 $164 $164 $-1 $260 reversed $95 $-1 #
edge $-1 $261 0 $261 6.2831853071796004 $96 $262 forward 7 unknown #
vertex $-1 $99 $263 #
ellipse-curve $-1 55.414599597678972 -8.9406028109776834 11.215085190819416 0.81915205242281985 0 0.57357642473473569 0.28678821236736785 0 -0.40957602621140993 1 I I #
face $-1 $-1 $189 $15 $-1 $264 reversed single #
loop $-1 $-1 $109 $100 #
plane-surface $-1 -56.511734366893521 0 0 1 0 0 0 0 -1 forward_v I I I I #
coedge $-1 $265 $103 $108 $183 forward $62 $-1 #
coedge $-1 $103 $265 $175 $266 forward $62 $-1 #
coedge $-1 $176 $111 $103 $174 reversed $189 $-1 #
edge $-1 $267 -34.296295005542397 $190 34.296295005542397 $173 $268 forward 7 unknown #
coedge $-1 $105 $104 $172 $266 reversed $41 $-1 #
coedge $-1 $188 $173 $104 $177 forward $189 $-1 #
edge $-1 $267 -12.781956071891955 $180 12.781956071891955 $176 $269 forward 7 unknown #
coedge $-1 $185 $184 $105 $179 reversed $169 $-1 #
edge $-1 $270 -12.781956071891955 $181 12.781956071891955 $178 $271 forward 7 unknown #
vertex $-1 $177 $272 #
vertex $-1 $193 $273 #
straight-curve $-1 0 -34.296295005542397 -12.781956071891955 -1 0 0 I I #
edge $-1 $190 -56.511734366893521 $186 56.511734366893521 $108 $274 forward 7 unknown #
coedge $-1 $178 $109 $114 $193 reversed $169 $-1 #
coedge $-1 $109 $178 $265 $275 reversed $169 $-1 #
vertex $-1 $183 $276 #
straight-curve $-1 -56.511734366893521 34.296295005542397 0 0 0 -1 I I #
coedge $-1 $111 $176 $113 $192 reversed $189 $-1 #
loop $-1 $-1 $176 $168 #
vertex $-1 $174 $277 #
straight-curve $-1 56.511734366893521 34.296295005542397 0 0 0 -1 I I #
edge $-1 $116 -34.296295005542397 $180 34.296295005542397 $188 $278 forward 7 unknown #
edge $-1 $181 -34.296295005542397 $115 34.296295005542397 $184 $279 forward 7 unknown #
point $-1 -56.511734366893521 34.296295005542397 -12.781956071891955 #
point $-1 56.511734366893521 34.296295005542397 -12.781956071891955 #
face $-1 $-1 $213 $16 $-1 $280 forward single #
loop $-1 $-1 $281 $118 #
plane-surface $-1 -38.902365290975553 -40.347691260450617 0 -1 0 0 0 0 1 forward_v I I I I #
coedge $-1 $282 $121 $203 $283 reversed $70 $-1 #
coedge $-1 $121 $282 $284 $285 reversed $70 $-1 #
coedge $-1 $129 $128 $121 $202 reversed $119 $-1 #
edge $-1 $286 -12.781956071891955 $287 12.781956071891955 $201 $288 forward 7 unknown #
coedge $-1 $123 $122 $199 $283 forward $45 $-1 #
coedge $-1 $209 $281 $122 $205 reversed $197 $-1 #
edge $-1 $207 -6.0513962549082265 $289 6.0513962549082265 $204 $290 forward 7 unknown #
edge $-1 $287 -6.0513962549082265 $130 6.0513962549082265 $128 $291 forward 7 unknown #
vertex $-1 $205 $292 #
straight-curve $-1 0 -34.296295005542397 -12.781956071891955 1 0 0 I I #
coedge $-1 $293 $204 $125 $210 reversed $197 $-1 #
edge $-1 $214 -12.781956071891955 $207 12.781956071891955 $209 $294 forward 7 unknown #
coedge $-1 $284 $126 $129 $216 forward $213 $-1 #
coedge $-1 $126 $284 $293 $295 forward $213 $-1 #
loop $-1 $-1 $126 $196 #
vertex $-1 $127 $296 #
straight-curve $-1 0 -34.296295005542397 12.781956071891955 -1 0 0 I I #
edge $-1 $131 -6.0513962549082265 $286 6.0513962549082265 $129 $297 forward 7 unknown #
point $-1 -42.574247138710135 -34.29629500554239 -12.781956071891955 #
point $-1 -42.574247138710135 -34.29629500554239 12.781956071891955 #
face $-1 $-1 $235 $17 $-1 $298 forward single #
plane-surface $-1 -38.902365290975553 40.347691260450624 0 -1 0 0 0 0 1 forward_v I I I I #
coedge $-1 $299 $300 $238 $301 forward $134 $-1 #
coedge $-1 $231 $136 $137 $227 reversed $78 $-1 #
coedge $-1 $136 $231 $234 $302 reversed $78 $-1 #
coedge $-1 $300 $299 $136 $225 reversed $134 $-1 #
edge $-1 $303 -12.781956071891955 $304 12.781956071891955 $224 $305 forward 7 unknown #
coedge $-1 $138 $137 $299 $306 forward $49 $-1 #
edge $-1 $229 -6.0513962549082194 $304 6.0513962549082194 $222 $307 forward 7 unknown #
edge $-1 $308 -6.0513962549082194 $146 6.0513962549082194 $143 $309 forward 7 unknown #
vertex $-1 $227 $310 #
straight-curve $-1 0 34.296295005542397 -12.781956071891955 -1 0 0 I I #
coedge $-1 $223 $222 $140 $232 reversed $78 $-1 #
edge $-1 $236 -12.781956071891955 $229 12.781956071891955 $231 $311 forward 7 unknown #
coedge $-1 $312 $141 $144 $239 forward $235 $-1 #
coedge $-1 $141 $312 $223 $302 forward $235 $-1 #
loop $-1 $-1 $141 $219 #
vertex $-1 $142 $313 #
straight-curve $-1 0 34.296295005542397 12.781956071891955 1 0 0 I I #
coedge $-1 $144 $143 $221 $301 reversed $145 $-1 #
edge $-1 $147 -6.0513962549082194 $314 6.0513962549082194 $144 $315 forward 7 unknown #
point $-1 -38.902365290975553 34.296295005542405 -12.781956071891955 #
point $-1 -38.902365290975553 34.296295005542405 12.781956071891955 #
loop $-1 $-1 $157 $149 #
plane-surface $-1 56.511734366893521 0 0 -1 0 0 0 0 1 forward_v I I I I #
coedge $-1 $245 $152 $154 $249 reversed $86 $-1 #
coedge $-1 $152 $244 $316 $317 reversed $86 $-1 #
coedge $-1 $160 $155 $152 $247 forward $150 $-1 #
edge $-1 $250 12.183693006125473 $318 14.377962544554599 $246 $319 forward 7 unknown #
coedge $-1 $154 $153 $253 $320 reversed $53 $-1 #
edge $-1 $321 -113.02346873378703 $250 -109.19787646080628 $244 $322 forward 7 unknown #
vertex $-1 $156 $323 #
straight-curve $-1 54.317464828464395 -4.4703014054888417 12.781956071891962 0 -1 0 I I #
coedge $-1 $316 $157 $160 $257 reversed $242 $-1 #
coedge $-1 $157 $316 $248 $320 forward $242 $-1 #
vertex $-1 $158 $324 #
straight-curve $-1 56.511734366893521 -3.4796490860491005 83.529608901209343 0 0 1 I I #
straight-curve $-1 -8.3158627405502159 -3.4796490860491005 102.23162069497494 0.57357642473473569 0 -0.81915205242281985 I I #
edge $-1 $318 -14.401556535906266 $161 -3.4796490860491005 $252 $325 forward 7 unknown #
point $-1 56.511734366893521 -3.4796490860491005 12.781956071891955 #
point $-1 54.317464828464395 -3.4796490860491005 12.781956071891955 #
edge $-1 $326 1 $326 0 $164 $-1 forward 7 unknown #
vertex $-1 $165 $327 #
ellipse-curve $-1 54.595447545256143 -8.9406028109776834 10.641508766084677 0.81915205242281985 0 0.57357642473473569 0.28678821236736785 0 -0.40957602621140993 1 I I #
point $-1 55.701387810046327 -8.9406028109776834 10.805509164608001 #
plane-surface $-1 56.511734366893521 0 0 -1 0 0 0 0 1 forward_v I I I I #
coedge $-1 $172 $171 $185 $275 forward $62 $-1 #
edge $-1 $270 -56.511734366893521 $267 56.511734366893521 $175 $328 forward 7 unknown #
vertex $-1 $174 $329 #
straight-curve $-1 56.511734366893521 0 12.781956071891955 0 1 0 I I #
straight-curve $-1 56.511734366893521 -34.296295005542397 0 0 0 -1 I I #
vertex $-1 $275 $330 #
straight-curve $-1 -56.511734366893521 -34.296295005542397 0 0 0 -1 I I #
point $-1 56.511734366893521 -34.296295005542397 -12.781956071891955 #
point $-1 -56.511734366893521 -34.296295005542397 -12.781956071891955 #
straight-curve $-1 0 34.296295005542397 12.781956071891955 -1 0 0 I I #
edge $-1 $186 -34.296295005542397 $270 34.296295005542397 $185 $331 forward 7 unknown #
point $-1 -56.511734366893521 34.296295005542397 12.781956071891955 #
point $-1 56.511734366893521 34.296295005542397 12.781956071891955 #
straight-curve $-1 56.511734366893521 0 -12.781956071891955 0 -1 0 I I #
straight-curve $-1 -56.511734366893521 0 -12.781956071891955 0 1 0 I I #
plane-surface $-1 0 0 12.781956071891955 0 0 1 1 0 0 forward_v I I I I #
coedge $-1 $204 $293 $282 $332 forward $197 $-1 #
coedge $-1 $200 $199 $281 $332 reversed $70 $-1 #
edge $-1 $289 -1.835940923867291 $287 1.835940923867291 $199 $333 forward 7 unknown #
coedge $-1 $212 $211 $200 $285 forward $213 $-1 #
edge $-1 $286 -1.835940923867291 $334 1.835940923867291 $200 $335 forward 7 unknown #
vertex $-1 $216 $336 #
vertex $-1 $206 $337 #
straight-curve $-1 -42.574247138710135 -46.399087515358843 0 0 0 -1 I I #
vertex $-1 $332 $338 #
straight-curve $-1 -38.902365290975553 -40.347691260450617 -12.781956071891955 0 -1 0 I I #
straight-curve $-1 -42.574247138710135 -40.347691260450617 -12.781956071891955 0 1 0 I I #
point $-1 -38.902365290975553 -34.29629500554239 -12.781956071891955 #
coedge $-1 $281 $209 $212 $295 reversed $197 $-1 #
straight-curve $-1 -38.902365290975553 -34.296295005542397 0 0 0 -1 I I #
edge $-1 $334 -6.0513962549082265 $214 6.0513962549082265 $293 $339 forward 7 unknown #
point $-1 -38.902365290975553 -34.29629500554239 12.781956071891955 #
straight-curve $-1 -42.574247138710135 -40.347691260450617 12.781956071891955 0 -1 0 I I #
plane-surface $-1 0 0 12.781956071891955 0 0 1 1 0 0 forward_v I I I I #
coedge $-1 $224 $221 $226 $306 reversed $134 $-1 #
coedge $-1 $221 $224 $312 $340 reversed $134 $-1 #
edge $-1 $314 -12.781956071891955 $308 12.781956071891955 $238 $341 forward 7 unknown #
edge $-1 $303 -6.0513962549082194 $236 6.0513962549082194 $223 $342 forward 7 unknown #
vertex $-1 $340 $343 #
vertex $-1 $306 $344 #
straight-curve $-1 -42.574247138710135 46.399087515358843 0 0 0 -1 I I #
edge $-1 $304 -1.835940923867291 $308 1.835940923867291 $299 $345 forward 7 unknown #
straight-curve $-1 -42.574247138710135 40.347691260450624 -12.781956071891955 0 1 0 I I #
vertex $-1 $228 $346 #
straight-curve $-1 -38.902365290975553 40.347691260450624 -12.781956071891955 0 -1 0 I I #
point $-1 -42.574247138710135 34.296295005542405 -12.781956071891955 #
straight-curve $-1 -42.574247138710135 34.296295005542397 0 0 0 -1 I I #
coedge $-1 $234 $233 $300 $340 forward $235 $-1 #
point $-1 -42.574247138710135 34.296295005542405 12.781956071891955 #
vertex $-1 $239 $347 #
straight-curve $-1 -38.902365290975553 40.347691260450624 12.781956071891955 0 1 0 I I #
coedge $-1 $253 $252 $245 $317 forward $242 $-1 #
edge $-1 $318 70.747652829317389 $321 73.881394591462453 $316 $348 forward 7 unknown #
vertex $-1 $257 $349 #
straight-curve $-1 42.133771822338922 -14.401556535906266 12.781956071891955 1 0 0 I I #
edge $-1 $321 -9.9312551304174246 $254 0.99065231943974119 $253 $350 forward 7 unknown #
vertex $-1 $320 $351 #
straight-curve $-1 -8.3158627405502159 -14.401556535906266 102.23162069497494 -0.57357642473473569 0 0.81915205242281985 I I #
point $-1 54.317464828464395 -14.401556535906266 12.781956071891955 #
point $-1 56.511734366893521 -3.4796490860491005 9.6482143097468906 #
straight-curve $-1 56.511734366893521 0 12.781956071891955 0 1 0 I I #
vertex $-1 $260 $352 #
point $-1 54.882235757623512 -8.9406028109776834 10.231932739873265 #
straight-curve $-1 0 -34.296295005542397 12.781956071891955 1 0 0 I I #
point $-1 56.511734366893521 -34.296295005542397 12.781956071891955 #
point $-1 -56.511734366893521 -34.296295005542397 12.781956071891955 #
straight-curve $-1 -56.511734366893521 0 12.781956071891955 0 -1 0 I I #
edge $-1 $334 -12.781956071891955 $289 12.781956071891955 $281 $353 forward 7 unknown #
straight-curve $-1 -40.738306214842844 -46.399087515358843 -12.781956071891955 -1 0 0 I I #
vertex $-1 $295 $354 #
straight-curve $-1 -40.738306214842844 -46.399087515358843 12.781956071891955 1 0 0 I I #
point $-1 -42.574247138710135 -46.399087515358843 12.781956071891955 #
point $-1 -42.574247138710135 -46.399087515358843 -12.781956071891955 #
point $-1 -38.902365290975553 -46.399087515358843 -12.781956071891955 #
straight-curve $-1 -38.902365290975553 -40.347691260450617 12.781956071891955 0 1 0 I I #
edge $-1 $314 -1.835940923867291 $303 1.835940923867291 $300 $355 forward 7 unknown #
straight-curve $-1 -38.902365290975553 46.399087515358843 0 0 0 -1 I I #
straight-curve $-1 -42.574247138710135 40.347691260450624 12.781956071891955 0 -1 0 I I #
point $-1 -42.574247138710135 46.399087515358843 12.781956071891955 #
point $-1 -42.574247138710135 46.399087515358843 -12.781956071891955 #
straight-curve $-1 -40.738306214842844 46.399087515358843 -12.781956071891955 1 0 0 I I #
point $-1 -38.902365290975553 46.399087515358843 -12.781956071891955 #
point $-1 -38.902365290975553 46.399087515358843 12.781956071891955 #
straight-curve $-1 56.511734366893521 -14.401556535906266 83.529608901209343 0 0 -1 I I #
point $-1 56.511734366893521 -14.401556535906266 12.781956071891955 #
straight-curve $-1 56.511734366893521 -4.4703014054888417 9.6482143097468906 0 1 0 I I #
point $-1 56.511734366893521 -14.401556535906266 9.6482143097468906 #
point $-1 54.185871519044731 -8.9406028109776834 10.354720553717307 #
straight-curve $-1 -38.902365290975553 -46.399087515358843 0 0 0 -1 I I #
point $-1 -38.902365290975553 -46.399087515358843 12.781956071891955 #
straight-curve $-1 -40.738306214842844 46.399087515358843 12.781956071891955 -1 0 0 I I #
End-of-ACIS-data 