500 0 9 0           
7 Unknown 11 ACIS 5.0 NT 24 Thu Mar 25 19:40:25 1999 
-1 9.9999999999999995e-007 1e-010 
body $-1 $9 $-1 $10 #
body $-1 $11 $-1 $12 #
body $-1 $13 $-1 $14 #
body $-1 $15 $-1 $16 #
body $-1 $17 $-1 $18 #
body $-1 $19 $-1 $20 #
body $-1 $21 $-1 $22 #
body $-1 $23 $-1 $24 #
body $-1 $25 $-1 $26 #
lump $-1 $-1 $27 $0 #
transform $-1 1 0 0 0 1 0 0 0 1 52.364879299295026 32.079741129497926 14.155441543903063 1 rotate no_reflect no_shear #
lump $-1 $-1 $28 $1 #
transform $-1 1 0 0 0 1 0 0 0 1 52.364879299295026 32.079741129497926 14.155441543903063 1 rotate no_reflect no_shear #
lump $-1 $-1 $29 $2 #
transform $-1 1 0 0 0 1 0 0 0 1 52.364879299295026 32.079741129497926 14.155441543903063 1 rotate no_reflect no_shear #
lump $-1 $-1 $30 $3 #
transform $-1 1 0 0 0 1 0 0 0 1 52.364879299295026 32.079741129497926 14.155441543903063 1 rotate no_reflect no_shear #
lump $-1 $-1 $31 $4 #
transform $-1 1 0 0 0 1 0 0 0 1 52.364879299295026 32.079741129497926 14.155441543903063 1 rotate no_reflect no_shear #
lump $-1 $-1 $32 $5 #
transform $-1 1 0 0 0 1 0 0 0 1 52.364879299295026 32.079741129497926 14.155441543903063 1 rotate no_reflect no_shear #
lump $-1 $-1 $33 $6 #
transform $-1 1 0 0 0 1 0 0 0 1 52.364879299295026 32.079741129497926 14.155441543903063 1 rotate no_reflect no_shear #
lump $-1 $-1 $34 $7 #
transform $-1 1 0 0 0 1 0 0 0 1 52.364879299295026 32.079741129497926 14.155441543903063 1 rotate no_reflect no_shear #
lump $-1 $-1 $35 $8 #
transform $-1 1 0 0 0 1 0 0 0 1 52.364879299295026 32.079741129497926 14.155441543903063 1 rotate no_reflect no_shear #
shell $-1 $-1 $-1 $36 $-1 $9 #
shell $-1 $-1 $-1 $37 $-1 $11 #
shell $-1 $-1 $-1 $38 $-1 $13 #
shell $-1 $-1 $-1 $39 $-1 $15 #
shell $-1 $-1 $-1 $40 $-1 $17 #
shell $-1 $-1 $-1 $41 $-1 $19 #
shell $-1 $-1 $-1 $42 $-1 $21 #
shell $-1 $-1 $-1 $43 $-1 $23 #
shell $-1 $-1 $-1 $44 $-1 $25 #
face $-1 $45 $46 $27 $-1 $47 forward single #
face $-1 $48 $49 $28 $-1 $50 forward single #
face $-1 $51 $52 $29 $-1 $53 forward single #
face $-1 $54 $55 $30 $-1 $56 reversed single #
face $-1 $57 $58 $31 $-1 $59 forward single #
face $-1 $60 $61 $32 $-1 $62 forward single #
face $-1 $63 $64 $33 $-1 $65 reversed single #
face $-1 $66 $67 $34 $-1 $68 forward single #
face $-1 $69 $70 $35 $-1 $71 forward single #
face $-1 $72 $73 $27 $-1 $74 reversed single #
loop $-1 $-1 $75 $36 #
plane-surface $-1 0 0 14.155441543903063 0 0 1 1 0 0 forward_v I I I I #
face $-1 $76 $77 $28 $-1 $78 reversed single #
loop $-1 $-1 $79 $37 #
plane-surface $-1 -45.000606632739583 0 10.891470705598806 0 0 1 1 0 0 forward_v I I I I #
face $-1 $80 $81 $29 $-1 $82 reversed single #
loop $-1 $-1 $83 $38 #
plane-surface $-1 45.000606632739576 0 10.891470705598806 0 0 1 1 0 0 forward_v I I I I #
face $-1 $84 $85 $30 $-1 $86 reversed single #
loop $-1 $-1 $87 $39 #
plane-surface $-1 0.40459646364251967 48.12703246300422 129.27608816605783 -1 0 0 0 0.62932039886446345 0.77714595512881146 forward_v I I I I #
face $-1 $88 $89 $31 $-1 $90 forward single #
loop $-1 $91 $92 $40 #
cone-surface $-1 -6.2876674465232796 27.240233530740902 9.9237656813358743 0 -0.62932039886446345 -0.77714595512881146 1 0 0 1 I I 0 1 1 forward I I I I #
face $-1 $93 $94 $32 $-1 $95 forward single #
loop $-1 $96 $97 $41 #
cone-surface $-1 -2.2723091004237972 27.240233530740902 9.9237656813358743 0 -0.62932039886446345 -0.77714595512881146 1 0 0 1 I I 0 1 1 forward I I I I #
face $-1 $98 $99 $33 $-1 $100 reversed single #
loop $-1 $-1 $101 $42 #
plane-surface $-1 -29.992024342320335 -32.079741129497918 7.977024165019472 0 -0.78801076186113728 0.61566146476048833 1 0 0 forward_v I I I I #
face $-1 $102 $103 $34 $-1 $104 forward single #
loop $-1 $105 $106 $43 #
cone-surface $-1 -33.268157038261968 -29.26911523240441 10.756006515624616 0 0.78801076186113728 -0.61566146476048833 1 0 0 1 I I 0 1 1 forward I I I I #
face $-1 $107 $108 $35 $-1 $109 forward single #
loop $-1 $110 $111 $44 #
cone-surface $-1 -26.715891646378708 -29.26911523240441 10.756006515624616 0 0.78801076186113728 -0.61566146476048833 1 0 0 1 I I 0 1 1 forward I I I I #
face $-1 $112 $113 $27 $-1 $114 reversed single #
loop $-1 $-1 $115 $45 #
plane-surface $-1 0 0 -14.155441543903063 0 0 1 1 0 0 forward_v I I I I #
coedge $-1 $116 $117 $118 $119 forward $46 $-1 #
face $-1 $120 $121 $28 $-1 $122 reversed single #
loop $-1 $-1 $123 $48 #
plane-surface $-1 -45.000606632739583 0 6.937347458083174 0 0 1 1 0 0 forward_v I I I I #
coedge $-1 $124 $125 $126 $127 forward $49 $-1 #
face $-1 $128 $129 $29 $-1 $130 reversed single #
loop $-1 $-1 $131 $51 #
plane-surface $-1 45.000606632739576 0 6.937347458083174 0 0 1 1 0 0 forward_v I I I I #
coedge $-1 $132 $133 $134 $135 reversed $52 $-1 #
face $-1 $136 $137 $30 $-1 $138 reversed single #
loop $-1 $-1 $139 $54 #
plane-surface $-1 -4.2799882734735419 -17.781540991239446 47.885779889546711 0 0.62932039886446345 0.77714595512881146 1 0 0 forward_v I I I I #
coedge $-1 $140 $141 $142 $143 reversed $55 $-1 #
face $-1 $-1 $144 $31 $-1 $145 forward single #
loop $-1 $146 $147 $57 #
cone-surface $-1 -6.2876674465232796 26.18995776512601 8.6267831514668281 0 -0.62932039886446345 -0.77714595512881146 0.5 0 0 1 I I -0.70710678118654746 0.70710678118654746 0.5 forward I I I I #
loop $-1 $-1 $148 $40 #
coedge $-1 $92 $92 $149 $150 reversed $58 $-1 #
face $-1 $-1 $151 $32 $-1 $152 forward single #
loop $-1 $153 $154 $60 #
cone-surface $-1 -2.2723091004237972 26.18995776512601 8.6267831514668281 0 -0.62932039886446345 -0.77714595512881146 0.5 0 0 1 I I -0.70710678118654746 0.70710678118654746 0.5 forward I I I I #
loop $-1 $-1 $155 $41 #
coedge $-1 $97 $97 $156 $157 reversed $61 $-1 #
face $-1 $158 $159 $33 $-1 $160 forward single #
loop $-1 $-1 $161 $63 #
plane-surface $-1 -22.34771471845653 -114.60791799230586 72.455100747839765 -1 0 0 0 -0.78801076186113728 0.61566146476048833 forward_v I I I I #
coedge $-1 $162 $163 $164 $165 reversed $64 $-1 #
face $-1 $-1 $166 $34 $-1 $167 forward single #
loop $-1 $168 $169 $66 #
cone-surface $-1 -33.268157038261968 -28.478038234020634 10.137949444407724 0 0.78801076186113728 -0.61566146476048833 0.5 0 0 1 I I -0.70710678118654746 0.70710678118654746 0.5 forward I I I I #
loop $-1 $-1 $170 $43 #
coedge $-1 $106 $106 $171 $172 reversed $67 $-1 #
face $-1 $-1 $173 $35 $-1 $174 forward single #
loop $-1 $175 $176 $69 #
cone-surface $-1 -26.715891646378708 -28.478038234020634 10.137949444407724 0 0.78801076186113728 -0.61566146476048833 0.5 0 0 1 I I -0.70710678118654746 0.70710678118654746 0.5 forward I I I I #
loop $-1 $-1 $177 $44 #
coedge $-1 $111 $111 $178 $179 reversed $70 $-1 #
face $-1 $180 $181 $27 $-1 $182 reversed single #
loop $-1 $-1 $183 $72 #
plane-surface $-1 0 -32.079741129497926 0 0 1 0 0 0 1 forward_v I I I I #
coedge $-1 $184 $185 $186 $187 forward $73 $-1 #
coedge $-1 $188 $75 $189 $190 forward $46 $-1 #
coedge $-1 $75 $188 $191 $192 forward $46 $-1 #
coedge $-1 $193 $194 $75 $119 reversed $195 $-1 #
edge $-1 $196 -32.079741129497926 $197 32.079741129497926 $118 $198 forward 7 unknown #
face $-1 $199 $200 $28 $-1 $201 reversed single #
loop $-1 $-1 $202 $76 #
plane-surface $-1 -37.636333966184139 0 8.91440908184099 -1 0 0 0 0 1 forward_v I I I I #
coedge $-1 $203 $204 $205 $206 forward $77 $-1 #
coedge $-1 $207 $79 $208 $209 reversed $49 $-1 #
coedge $-1 $79 $207 $210 $211 reversed $49 $-1 #
coedge $-1 $202 $212 $79 $127 reversed $121 $-1 #
edge $-1 $213 -32.079741129497926 $214 32.079741129497926 $126 $215 forward 7 unknown #
face $-1 $216 $217 $29 $-1 $218 reversed single #
loop $-1 $-1 $219 $80 #
plane-surface $-1 37.636333966184132 0 8.91440908184099 1 0 0 0 0 -1 forward_v I I I I #
coedge $-1 $220 $221 $222 $223 reversed $81 $-1 #
coedge $-1 $224 $83 $225 $226 reversed $52 $-1 #
coedge $-1 $83 $224 $227 $228 reversed $52 $-1 #
coedge $-1 $229 $230 $83 $135 forward $231 $-1 #
edge $-1 $232 -32.079741129497926 $233 32.079741129497926 $134 $234 forward 7 unknown #
face $-1 $235 $236 $30 $-1 $237 reversed single #
loop $-1 $-1 $238 $84 #
plane-surface $-1 -8.9645730105896035 48.12703246300422 129.27608816605783 1 0 0 0 -0.62932039886446345 -0.77714595512881146 forward_v I I I I #
coedge $-1 $239 $240 $241 $242 reversed $85 $-1 #
coedge $-1 $141 $87 $243 $244 reversed $55 $-1 #
coedge $-1 $87 $140 $239 $245 reversed $55 $-1 #
coedge $-1 $241 $246 $87 $143 forward $236 $-1 #
edge $-1 $247 50.48260253912585 $248 57.12913515965095 $142 $249 forward 7 unknown #
loop $-1 $-1 $149 $88 #
plane-surface $-1 -4.2799882734735419 -17.781540991239446 47.885779889546711 0 0.62932039886446345 0.77714595512881146 1 0 0 forward_v I I I I #
loop $-1 $-1 $250 $57 #
coedge $-1 $147 $147 $148 $251 reversed $89 $-1 #
coedge $-1 $148 $148 $147 $251 forward $91 $-1 #
coedge $-1 $149 $149 $92 $150 forward $144 $-1 #
edge $-1 $252 -5.2518187581664207e-016 $252 6.2831853071795996 $149 $253 forward 7 unknown #
loop $-1 $-1 $156 $93 #
plane-surface $-1 -4.2799882734735419 -17.781540991239446 47.885779889546711 0 0.62932039886446345 0.77714595512881146 1 0 0 forward_v I I I I #
loop $-1 $-1 $254 $60 #
coedge $-1 $154 $154 $155 $255 reversed $94 $-1 #
coedge $-1 $155 $155 $154 $255 forward $96 $-1 #
coedge $-1 $156 $156 $97 $157 forward $151 $-1 #
edge $-1 $256 -5.2518187581664207e-016 $256 6.2831853071795996 $156 $257 forward 7 unknown #
face $-1 $258 $259 $33 $-1 $260 reversed single #
loop $-1 $-1 $261 $98 #
plane-surface $-1 -37.636333966184139 0 8.91440908184099 -1 0 0 0 0 1 forward_v I I I I #
coedge $-1 $262 $263 $264 $265 reversed $99 $-1 #
coedge $-1 $266 $101 $261 $267 reversed $64 $-1 #
coedge $-1 $101 $266 $262 $268 forward $64 $-1 #
coedge $-1 $264 $269 $101 $165 forward $259 $-1 #
edge $-1 $270 -22.640321795023972 $271 -7.3517025472963624 $164 $272 forward 7 unknown #
loop $-1 $-1 $171 $102 #
plane-surface $-1 -29.992024342320335 -32.079741129497918 7.977024165019472 0 -0.78801076186113728 0.61566146476048833 1 0 0 forward_v I I I I #
loop $-1 $-1 $273 $66 #
coedge $-1 $169 $169 $170 $274 reversed $103 $-1 #
coedge $-1 $170 $170 $169 $274 forward $105 $-1 #
coedge $-1 $171 $171 $106 $172 forward $166 $-1 #
edge $-1 $275 -1.3997883063530332e-015 $275 6.2831853071795987 $171 $276 forward 7 unknown #
loop $-1 $-1 $178 $107 #
plane-surface $-1 -29.992024342320335 -32.079741129497918 7.977024165019472 0 -0.78801076186113728 0.61566146476048833 1 0 0 forward_v I I I I #
loop $-1 $-1 $277 $69 #
coedge $-1 $176 $176 $177 $278 reversed $108 $-1 #
coedge $-1 $177 $177 $176 $278 forward $110 $-1 #
coedge $-1 $178 $178 $111 $179 forward $173 $-1 #
edge $-1 $279 -1.3997883063530332e-015 $279 6.2831853071795987 $178 $280 forward 7 unknown #
face $-1 $281 $282 $27 $-1 $283 reversed single #
loop $-1 $-1 $284 $112 #
plane-surface $-1 -52.364879299295026 0 0 1 0 0 0 0 -1 forward_v I I I I #
coedge $-1 $285 $191 $286 $287 forward $113 $-1 #
coedge $-1 $288 $115 $285 $289 forward $73 $-1 #
coedge $-1 $115 $288 $290 $291 forward $73 $-1 #
coedge $-1 $194 $193 $115 $187 reversed $195 $-1 #
edge $-1 $292 -32.079741129497926 $293 32.079741129497926 $186 $294 forward 7 unknown #
coedge $-1 $117 $116 $295 $296 forward $46 $-1 #
coedge $-1 $297 $298 $116 $190 reversed $282 $-1 #
edge $-1 $197 -52.364879299295026 $299 52.364879299295026 $189 $300 forward 7 unknown #
coedge $-1 $183 $301 $117 $192 reversed $113 $-1 #
edge $-1 $302 -52.364879299295026 $196 52.364879299295026 $191 $303 forward 7 unknown #
coedge $-1 $186 $118 $301 $304 forward $195 $-1 #
coedge $-1 $118 $186 $297 $305 reversed $195 $-1 #
loop $-1 $-1 $193 $281 #
vertex $-1 $119 $306 #
vertex $-1 $119 $307 #
straight-curve $-1 52.364879299295026 0 14.155441543903063 0 1 0 I I #
face $-1 $308 $309 $28 $-1 $310 reversed single #
loop $-1 $-1 $311 $120 #
plane-surface $-1 0 -32.079741129497926 0 0 1 0 0 0 1 forward_v I I I I #
coedge $-1 $205 $126 $312 $313 reversed $121 $-1 #
coedge $-1 $314 $123 $311 $315 reversed $77 $-1 #
coedge $-1 $123 $314 $316 $317 reversed $77 $-1 #
coedge $-1 $212 $202 $123 $206 reversed $121 $-1 #
edge $-1 $318 -32.079741129497926 $319 32.079741129497926 $205 $320 forward 7 unknown #
coedge $-1 $125 $124 $321 $322 reversed $49 $-1 #
coedge $-1 $323 $324 $124 $209 forward $325 $-1 #
edge $-1 $326 -29.864575982925235 $214 -15.136030649814348 $208 $327 forward 7 unknown #
coedge $-1 $328 $312 $125 $211 forward $200 $-1 #
edge $-1 $213 15.136030649814348 $329 29.864575982925235 $210 $330 forward 7 unknown #
coedge $-1 $126 $205 $323 $331 reversed $121 $-1 #
vertex $-1 $211 $332 #
vertex $-1 $209 $333 #
straight-curve $-1 -37.636333966184139 0 10.891470705598806 0 1 0 I I #
face $-1 $334 $335 $29 $-1 $336 reversed single #
loop $-1 $-1 $227 $128 #
plane-surface $-1 0 -32.079741129497926 0 0 1 0 0 0 1 forward_v I I I I #
coedge $-1 $337 $338 $339 $340 reversed $129 $-1 #
coedge $-1 $341 $131 $342 $343 reversed $81 $-1 #
coedge $-1 $131 $341 $344 $345 reversed $81 $-1 #
coedge $-1 $230 $229 $131 $223 forward $231 $-1 #
edge $-1 $346 -32.079741129497926 $347 32.079741129497926 $222 $348 forward 7 unknown #
coedge $-1 $133 $132 $338 $349 forward $52 $-1 #
coedge $-1 $350 $339 $132 $226 forward $335 $-1 #
edge $-1 $351 15.136030649814344 $232 29.864575982925231 $225 $352 forward 7 unknown #
coedge $-1 $353 $354 $133 $228 forward $217 $-1 #
edge $-1 $233 -29.864575982925231 $355 -15.136030649814344 $227 $356 forward 7 unknown #
coedge $-1 $222 $134 $354 $357 forward $231 $-1 #
coedge $-1 $134 $222 $350 $358 reversed $231 $-1 #
loop $-1 $-1 $134 $334 #
vertex $-1 $358 $359 #
vertex $-1 $357 $360 #
straight-curve $-1 52.364879299295026 0 10.891470705598806 0 -1 0 I I #
face $-1 $-1 $361 $30 $-1 $362 forward single #
loop $-1 $-1 $142 $136 #
plane-surface $-1 0 32.079741129497926 0 0 -1 0 0 0 -1 forward_v I I I I #
coedge $-1 $363 $364 $365 $366 reversed $137 $-1 #
coedge $-1 $367 $139 $141 $245 forward $85 $-1 #
coedge $-1 $139 $367 $363 $368 forward $85 $-1 #
coedge $-1 $365 $142 $139 $242 forward $236 $-1 #
edge $-1 $248 -2.5445906003792906 $369 6.8245788738528326 $241 $370 forward 7 unknown #
coedge $-1 $371 $372 $140 $244 forward $361 $-1 #
edge $-1 $373 -0.19155916715289933 $247 8.0162248979958157 $243 $374 forward 7 unknown #
edge $-1 $248 -64.159482258995865 $373 -53.598037512380301 $141 $375 forward 7 unknown #
coedge $-1 $142 $365 $371 $376 reversed $236 $-1 #
vertex $-1 $376 $377 #
vertex $-1 $143 $378 #
straight-curve $-1 0.40459646364251967 32.079741129497926 64.638044083028916 0 0 -1 I I #
coedge $-1 $250 $250 $-1 $379 reversed $146 $-1 #
edge $-1 $380 0 $380 6.2831853071796004 $147 $381 forward 7 unknown #
vertex $-1 $150 $382 #
ellipse-curve $-1 -6.2876674465232796 27.975849096923568 10.83217523364052 0 0.62932039886446345 0.77714595512881146 1 0 0 1 I I #
coedge $-1 $254 $254 $-1 $383 reversed $153 $-1 #
edge $-1 $384 0 $384 6.2831853071796004 $154 $385 forward 7 unknown #
vertex $-1 $157 $386 #
ellipse-curve $-1 -2.2723091004237972 27.975849096923568 10.83217523364052 0 0.62932039886446345 0.77714595512881146 1 0 0 1 I I #
face $-1 $-1 $387 $33 $-1 $388 forward single #
loop $-1 $-1 $269 $158 #
plane-surface $-1 0 -32.079741129497926 0 0 1 0 0 0 1 forward_v I I I I #
coedge $-1 $389 $390 $162 $267 forward $159 $-1 #
coedge $-1 $263 $161 $163 $268 reversed $99 $-1 #
coedge $-1 $161 $262 $391 $392 reversed $99 $-1 #
coedge $-1 $393 $164 $161 $265 forward $259 $-1 #
edge $-1 $271 -28.250526208900418 $394 -22.07210883001682 $264 $395 forward 7 unknown #
coedge $-1 $163 $162 $396 $397 reversed $64 $-1 #
edge $-1 $398 2.4039407956980789 $270 10.244464907692828 $261 $399 forward 7 unknown #
edge $-1 $400 -7.8405241119947382 $271 1.1373479346495045e-014 $262 $401 forward 7 unknown #
coedge $-1 $164 $393 $389 $402 forward $259 $-1 #
vertex $-1 $165 $403 #
vertex $-1 $165 $404 #
straight-curve $-1 -14.996012171160167 -32.079741129497926 7.9770241650194604 1 0 0 I I #
coedge $-1 $273 $273 $-1 $405 reversed $168 $-1 #
edge $-1 $406 0 $406 6.2831853071796004 $169 $407 forward 7 unknown #
vertex $-1 $172 $408 #
ellipse-curve $-1 -33.268157038261968 -29.666186849857617 11.066232854461264 0 -0.78801076186113728 0.61566146476048833 1 0 0 1 I I #
coedge $-1 $277 $277 $-1 $409 reversed $175 $-1 #
edge $-1 $410 0 $410 6.2831853071796004 $176 $411 forward 7 unknown #
vertex $-1 $179 $412 #
ellipse-curve $-1 -26.715891646378708 -29.666186849857617 11.066232854461264 0 -0.78801076186113728 0.61566146476048833 1 0 0 1 I I #
face $-1 $-1 $195 $27 $-1 $413 reversed single #
loop $-1 $-1 $297 $180 #
plane-surface $-1 0 32.079741129497926 0 0 -1 0 0 0 -1 forward_v I I I I #
coedge $-1 $414 $295 $298 $415 forward $181 $-1 #
coedge $-1 $301 $183 $184 $289 reversed $113 $-1 #
coedge $-1 $295 $414 $183 $287 reversed $181 $-1 #
edge $-1 $302 -14.155441543903063 $416 14.155441543903063 $286 $417 forward 7 unknown #
coedge $-1 $185 $184 $414 $418 forward $73 $-1 #
edge $-1 $293 -52.364879299295026 $416 52.364879299295026 $285 $419 forward 7 unknown #
coedge $-1 $298 $297 $185 $291 reversed $282 $-1 #
edge $-1 $420 -52.364879299295026 $292 52.364879299295026 $290 $421 forward 7 unknown #
vertex $-1 $187 $422 #
vertex $-1 $304 $423 #
straight-curve $-1 52.364879299295026 0 -14.155441543903063 0 -1 0 I I #
coedge $-1 $284 $286 $188 $296 reversed $181 $-1 #
edge $-1 $299 -32.079741129497926 $302 32.079741129497926 $295 $424 forward 7 unknown #
coedge $-1 $290 $189 $194 $305 forward $282 $-1 #
coedge $-1 $189 $290 $284 $415 reversed $282 $-1 #
vertex $-1 $190 $425 #
straight-curve $-1 0 32.079741129497926 14.155441543903063 -1 0 0 I I #
coedge $-1 $191 $285 $193 $304 reversed $113 $-1 #
vertex $-1 $296 $426 #
straight-curve $-1 0 -32.079741129497926 14.155441543903063 1 0 0 I I #
edge $-1 $196 -14.155441543903063 $293 14.155441543903063 $193 $427 forward 7 unknown #
edge $-1 $197 -14.155441543903063 $292 14.155441543903063 $194 $428 forward 7 unknown #
point $-1 52.364879299295026 -32.079741129497926 14.155441543903063 #
point $-1 52.364879299295026 32.079741129497926 14.155441543903063 #
face $-1 $-1 $325 $28 $-1 $429 reversed single #
loop $-1 $-1 $430 $199 #
plane-surface $-1 -52.364879299295026 0 0 1 0 0 0 0 -1 forward_v I I I I #
coedge $-1 $312 $328 $203 $315 forward $200 $-1 #
coedge $-1 $210 $311 $202 $313 forward $200 $-1 #
edge $-1 $319 2.480142917162679 $213 6.434266164678311 $312 $431 forward 7 unknown #
coedge $-1 $204 $203 $430 $432 reversed $77 $-1 #
edge $-1 $433 -29.864575982925235 $319 -15.136030649814348 $311 $434 forward 7 unknown #
coedge $-1 $324 $323 $204 $317 forward $325 $-1 #
edge $-1 $318 15.136030649814348 $435 29.864575982925235 $316 $436 forward 7 unknown #
vertex $-1 $317 $437 #
vertex $-1 $315 $438 #
straight-curve $-1 -37.636333966184139 0 6.937347458083174 0 -1 0 I I #
coedge $-1 $439 $440 $207 $322 forward $309 $-1 #
edge $-1 $329 -32.079741129497926 $326 32.079741129497926 $321 $441 forward 7 unknown #
coedge $-1 $316 $208 $212 $331 forward $325 $-1 #
coedge $-1 $208 $316 $439 $442 reversed $325 $-1 #
loop $-1 $-1 $316 $308 #
vertex $-1 $442 $443 #
straight-curve $-1 -22.500303316369791 32.079741129497926 10.891470705598806 1 0 0 I I #
coedge $-1 $311 $210 $440 $444 forward $200 $-1 #
vertex $-1 $444 $445 #
straight-curve $-1 -22.500303316369791 -32.079741129497926 10.891470705598806 -1 0 0 I I #
edge $-1 $214 -6.434266164678311 $318 -2.480142917162679 $323 $446 forward 7 unknown #
point $-1 -37.636333966184139 -32.079741129497926 10.891470705598806 #
point $-1 -37.636333966184139 32.079741129497926 10.891470705598806 #
face $-1 $-1 $231 $29 $-1 $447 reversed single #
loop $-1 $-1 $225 $216 #
plane-surface $-1 0 32.079741129497926 0 0 -1 0 0 0 -1 forward_v I I I I #
coedge $-1 $448 $219 $341 $449 reversed $129 $-1 #
coedge $-1 $219 $448 $224 $349 reversed $129 $-1 #
coedge $-1 $225 $344 $219 $340 forward $335 $-1 #
edge $-1 $450 2.480142917162679 $351 6.434266164678311 $339 $451 forward 7 unknown #
coedge $-1 $221 $220 $337 $449 forward $81 $-1 #
coedge $-1 $354 $353 $220 $343 forward $217 $-1 #
edge $-1 $452 15.136030649814344 $346 29.864575982925231 $342 $453 forward 7 unknown #
coedge $-1 $339 $350 $221 $345 forward $335 $-1 #
edge $-1 $347 -29.864575982925231 $450 -15.136030649814344 $344 $454 forward 7 unknown #
vertex $-1 $223 $455 #
vertex $-1 $223 $456 #
straight-curve $-1 52.364879299295026 0 6.937347458083174 0 1 0 I I #
edge $-1 $351 -32.079741129497926 $355 32.079741129497926 $338 $457 forward 7 unknown #
coedge $-1 $344 $225 $230 $358 forward $335 $-1 #
vertex $-1 $226 $458 #
straight-curve $-1 22.500303316369788 32.079741129497926 10.891470705598806 1 0 0 I I #
coedge $-1 $342 $227 $448 $459 forward $217 $-1 #
coedge $-1 $227 $342 $229 $357 reversed $217 $-1 #
vertex $-1 $228 $460 #
straight-curve $-1 22.500303316369788 -32.079741129497926 10.891470705598806 -1 0 0 I I #
edge $-1 $233 -10.891470705598806 $346 -6.937347458083174 $229 $461 forward 7 unknown #
edge $-1 $232 -10.891470705598806 $347 -6.937347458083174 $230 $462 forward 7 unknown #
point $-1 52.364879299295019 32.079741129497926 10.891470705598806 #
point $-1 52.364879299295019 -32.079741129497926 10.891470705598806 #
loop $-1 $-1 $243 $235 #
plane-surface $-1 0 0 14.155441543903063 0 0 1 1 0 0 forward_v I I I I #
coedge $-1 $364 $238 $240 $368 reversed $137 $-1 #
coedge $-1 $238 $363 $463 $464 reversed $137 $-1 #
coedge $-1 $246 $241 $238 $366 forward $236 $-1 #
edge $-1 $369 -57.12913515965095 $465 -50.48260253912585 $365 $466 forward 7 unknown #
coedge $-1 $240 $239 $372 $467 reversed $85 $-1 #
edge $-1 $468 53.598037512380301 $369 64.159482258995865 $363 $469 forward 7 unknown #
vertex $-1 $242 $470 #
straight-curve $-1 -2.139994136736771 32.079741129497926 7.5089089233779731 -1 0 0 I I #
coedge $-1 $463 $243 $246 $376 forward $361 $-1 #
coedge $-1 $243 $463 $367 $467 forward $361 $-1 #
vertex $-1 $244 $471 #
straight-curve $-1 0.40459646364251967 24.06351623150211 14.155441543903066 0 1 0 I I #
straight-curve $-1 0.40459646364251967 -17.781540991239446 47.885779889546711 0 -0.77714595512881146 0.62932039886446345 I I #
edge $-1 $247 -0.40459646364251967 $465 8.9645730105896035 $246 $472 forward 7 unknown #
point $-1 0.40459646364251967 32.079741129497926 14.155441543903063 #
point $-1 0.40459646364251967 32.079741129497933 7.508908923377966 #
edge $-1 $473 1 $473 0 $250 $-1 forward 7 unknown #
vertex $-1 $251 $474 #
ellipse-curve $-1 -6.2876674465232796 26.504617964558243 9.0153561290312343 0 0.62932039886446345 0.77714595512881146 1 0 0 1 I I #
point $-1 -5.2876674465232796 27.975849096923564 10.832175233640516 #
edge $-1 $475 1 $475 0 $254 $-1 forward 7 unknown #
vertex $-1 $255 $476 #
ellipse-curve $-1 -2.2723091004237972 26.504617964558243 9.0153561290312343 0 0.62932039886446345 0.77714595512881146 1 0 0 1 I I #
point $-1 -1.2723091004237972 27.975849096923564 10.832175233640516 #
loop $-1 $-1 $477 $258 #
plane-surface $-1 0 0 14.155441543903063 0 0 1 1 0 0 forward_v I I I I #
coedge $-1 $390 $261 $269 $402 reversed $159 $-1 #
coedge $-1 $261 $389 $477 $478 reversed $159 $-1 #
coedge $-1 $396 $479 $263 $392 forward $387 $-1 #
edge $-1 $394 25.224217866655003 $400 30.051326425935617 $391 $480 forward 7 unknown #
coedge $-1 $269 $264 $479 $481 reversed $259 $-1 #
vertex $-1 $392 $482 #
straight-curve $-1 -22.34771471845653 -32.079741129497926 36.227550373919883 0 0 1 I I #
coedge $-1 $477 $391 $266 $397 forward $387 $-1 #
edge $-1 $400 7.3517025472963624 $398 22.640321795023972 $396 $483 forward 7 unknown #
vertex $-1 $478 $484 #
straight-curve $-1 -37.636333966184139 -25.772618858740337 16.049772761790173 0 -0.61566146476048833 -0.78801076186113728 I I #
vertex $-1 $397 $485 #
straight-curve $-1 -22.34771471845653 -32.079741129497918 7.977024165019472 0 -0.61566146476048833 -0.78801076186113728 I I #
edge $-1 $486 22.07210883001682 $270 28.250526208900418 $269 $487 forward 7 unknown #
point $-1 -37.636333966184139 -32.079741129497926 7.9770241650194631 #
point $-1 -22.34771471845653 -32.079741129497926 7.9770241650194631 #
edge $-1 $488 1 $488 0 $273 $-1 forward 7 unknown #
vertex $-1 $274 $489 #
ellipse-curve $-1 -33.268157038261968 -28.872043614951203 10.445780176787968 0 -0.78801076186113728 0.61566146476048833 1 0 0 1 I I #
point $-1 -32.268157038261968 -29.666186849857617 11.066232854461262 #
edge $-1 $490 1 $490 0 $277 $-1 forward 7 unknown #
vertex $-1 $278 $491 #
ellipse-curve $-1 -26.715891646378708 -28.872043614951203 10.445780176787968 0 -0.78801076186113728 0.61566146476048833 1 0 0 1 I I #
point $-1 -25.715891646378708 -29.666186849857617 11.066232854461262 #
plane-surface $-1 52.364879299295026 0 0 -1 0 0 0 0 1 forward_v I I I I #
coedge $-1 $286 $284 $288 $418 reversed $181 $-1 #
edge $-1 $299 -14.155441543903063 $420 14.155441543903063 $298 $492 forward 7 unknown #
vertex $-1 $418 $493 #
straight-curve $-1 -52.364879299295026 -32.079741129497926 0 0 0 -1 I I #
edge $-1 $416 -32.079741129497926 $420 32.079741129497926 $414 $494 forward 7 unknown #
straight-curve $-1 0 -32.079741129497926 -14.155441543903063 -1 0 0 I I #
vertex $-1 $291 $495 #
straight-curve $-1 0 32.079741129497926 -14.155441543903063 1 0 0 I I #
point $-1 52.364879299295026 32.079741129497926 -14.155441543903063 #
point $-1 52.364879299295026 -32.079741129497926 -14.155441543903063 #
straight-curve $-1 -52.364879299295026 0 14.155441543903063 0 -1 0 I I #
point $-1 -52.364879299295026 32.079741129497926 14.155441543903063 #
point $-1 -52.364879299295026 -32.079741129497926 14.155441543903063 #
straight-curve $-1 52.364879299295026 -32.079741129497926 0 0 0 -1 I I #
straight-curve $-1 52.364879299295026 32.079741129497926 0 0 0 -1 I I #
plane-surface $-1 0 32.079741129497926 0 0 -1 0 0 0 -1 forward_v I I I I #
coedge $-1 $440 $439 $314 $432 forward $309 $-1 #
straight-curve $-1 -37.636333966184139 -32.079741129497926 4.457204540920495 0 0 1 I I #
edge $-1 $435 -32.079741129497926 $433 32.079741129497926 $430 $496 forward 7 unknown #
vertex $-1 $315 $497 #
straight-curve $-1 -22.500303316369791 -32.079741129497926 6.937347458083174 1 0 0 I I #
vertex $-1 $317 $498 #
straight-curve $-1 -22.500303316369791 32.079741129497926 6.937347458083174 -1 0 0 I I #
point $-1 -37.636333966184139 32.079741129497926 6.937347458083174 #
point $-1 -37.636333966184139 -32.079741129497926 6.937347458083174 #
coedge $-1 $430 $321 $324 $442 forward $309 $-1 #
coedge $-1 $321 $430 $328 $444 reversed $309 $-1 #
straight-curve $-1 -52.364879299295026 0 10.891470705598806 0 1 0 I I #
edge $-1 $326 -10.891470705598806 $435 -6.937347458083174 $324 $499 forward 7 unknown #
point $-1 -52.364879299295026 32.079741129497926 10.891470705598806 #
edge $-1 $329 -10.891470705598806 $433 -6.937347458083174 $440 $500 forward 7 unknown #
point $-1 -52.364879299295026 -32.079741129497926 10.891470705598806 #
straight-curve $-1 -37.636333966184139 32.079741129497926 4.457204540920495 0 0 -1 I I #
plane-surface $-1 52.364879299295026 0 0 -1 0 0 0 0 1 forward_v I I I I #
coedge $-1 $338 $337 $353 $459 reversed $129 $-1 #
edge $-1 $452 -32.079741129497926 $450 32.079741129497926 $337 $501 forward 7 unknown #
vertex $-1 $345 $502 #
straight-curve $-1 37.636333966184132 32.079741129497926 4.457204540920495 0 0 1 I I #
vertex $-1 $343 $503 #
straight-curve $-1 22.500303316369788 -32.079741129497926 6.937347458083174 1 0 0 I I #
straight-curve $-1 22.500303316369788 32.079741129497926 6.937347458083174 -1 0 0 I I #
point $-1 52.364879299295019 -32.079741129497926 6.937347458083174 #
point $-1 52.364879299295019 32.079741129497926 6.937347458083174 #
straight-curve $-1 37.636333966184132 0 10.891470705598806 0 -1 0 I I #
point $-1 37.636333966184132 32.079741129497926 10.891470705598806 #
edge $-1 $355 -6.434266164678311 $452 -2.480142917162679 $353 $504 forward 7 unknown #
point $-1 37.636333966184132 -32.079741129497926 10.891470705598806 #
straight-curve $-1 52.364879299295026 -32.079741129497926 0 0 0 -1 I I #
straight-curve $-1 52.364879299295026 32.079741129497926 0 0 0 -1 I I #
coedge $-1 $372 $371 $364 $464 forward $361 $-1 #
edge $-1 $465 -8.0162248979958157 $468 0.19155916715289933 $463 $505 forward 7 unknown #
vertex $-1 $464 $506 #
straight-curve $-1 -8.9645730105896035 32.079741129497926 64.638044083028916 0 0 1 I I #
edge $-1 $468 -6.8245788738528326 $373 2.5445906003792906 $372 $507 forward 7 unknown #
vertex $-1 $467 $508 #
straight-curve $-1 -8.9645730105896035 -17.781540991239446 47.885779889546711 0 0.77714595512881146 -0.62932039886446345 I I #
point $-1 -8.9645730105896035 32.079741129497933 7.508908923377966 #
point $-1 0.40459646364251967 23.87195706434921 14.155441543903066 #
straight-curve $-1 0 32.079741129497926 14.155441543903063 -1 0 0 I I #
vertex $-1 $379 $509 #
point $-1 -5.2876674465232796 26.504617964558243 9.0153561290312343 #
vertex $-1 $383 $510 #
point $-1 -1.2723091004237972 26.504617964558243 9.0153561290312343 #
coedge $-1 $479 $396 $390 $478 forward $387 $-1 #
edge $-1 $398 -30.051326425935617 $486 -25.224217866655003 $477 $511 forward 7 unknown #
coedge $-1 $391 $477 $393 $481 forward $387 $-1 #
straight-curve $-1 -22.34771471845653 -57.303958996152929 14.155441543903063 0 1 0 I I #
edge $-1 $486 -37.636333966184139 $394 -22.34771471845653 $393 $512 forward 7 unknown #
point $-1 -22.34771471845653 -32.079741129497926 14.155441543903063 #
straight-curve $-1 -14.996012171160167 -27.252632570217308 14.155441543903063 -1 0 0 I I #
point $-1 -37.636333966184139 -27.252632570217312 14.155441543903063 #
point $-1 -22.34771471845653 -27.252632570217312 14.155441543903063 #
vertex $-1 $481 $513 #
straight-curve $-1 -37.636333966184139 -32.079741129497926 36.227550373919883 0 0 -1 I I #
vertex $-1 $405 $514 #
point $-1 -32.268157038261968 -28.872043614951203 10.445780176787968 #
vertex $-1 $409 $515 #
point $-1 -25.715891646378708 -28.872043614951203 10.445780176787968 #
straight-curve $-1 -52.364879299295026 32.079741129497926 0 0 0 -1 I I #
point $-1 -52.364879299295026 -32.079741129497926 -14.155441543903063 #
straight-curve $-1 -52.364879299295026 0 -14.155441543903063 0 1 0 I I #
point $-1 -52.364879299295026 32.079741129497926 -14.155441543903063 #
straight-curve $-1 -52.364879299295026 0 6.937347458083174 0 -1 0 I I #
point $-1 -52.364879299295026 -32.079741129497926 6.937347458083174 #
point $-1 -52.364879299295026 32.079741129497926 6.937347458083174 #
straight-curve $-1 -52.364879299295026 32.079741129497926 0 0 0 -1 I I #
straight-curve $-1 -52.364879299295026 -32.079741129497926 0 0 0 -1 I I #
straight-curve $-1 37.636333966184132 0 6.937347458083174 0 1 0 I I #
point $-1 37.636333966184132 32.079741129497926 6.937347458083174 #
point $-1 37.636333966184132 -32.079741129497926 6.937347458083174 #
straight-curve $-1 37.636333966184132 -32.079741129497926 4.457204540920495 0 0 -1 I I #
straight-curve $-1 -8.9645730105896035 24.06351623150211 14.155441543903066 0 -1 0 I I #
point $-1 -8.9645730105896035 32.079741129497926 14.155441543903063 #
straight-curve $-1 -2.139994136736771 23.871957064349218 14.155441543903063 1 0 0 I I #
point $-1 -8.9645730105896035 23.87195706434921 14.155441543903066 #
point $-1 -6.2876674465232796 25.875297565693778 8.2382101739024218 #
point $-1 -2.2723091004237972 25.875297565693778 8.2382101739024218 #
straight-curve $-1 -37.636333966184139 -57.303958996152929 14.155441543903063 0 -1 0 I I #
straight-curve $-1 0 -32.079741129497926 14.155441543903063 1 0 0 I I #
point $-1 -37.636333966184139 -32.079741129497926 14.155441543903063 #
point $-1 -33.268157038261968 -28.084032853090065 9.8301187120274793 #
point $-1 -26.715891646378708 -28.084032853090065 9.8301187120274793 #
End-of-ACIS-data 