500 0 6 0           
7 Unknown 11 ACIS 5.0 NT 24 Thu Mar 25 19:25:58 1999 
-1 9.9999999999999995e-007 1e-010 
body $-1 $6 $-1 $7 #
body $-1 $8 $-1 $9 #
body $-1 $10 $-1 $11 #
body $-1 $12 $-1 $13 #
body $-1 $14 $-1 $15 #
body $-1 $16 $-1 $17 #
lump $-1 $-1 $18 $0 #
transform $-1 1 0 0 0 1 0 0 0 1 49.983214819788202 28.316092970923378 6.7997683386030978 1 rotate no_reflect no_shear #
lump $-1 $-1 $19 $1 #
transform $-1 1 0 0 0 1 0 0 0 1 49.983214819788202 28.316092970923378 6.7997683386030978 1 rotate no_reflect no_shear #
lump $-1 $-1 $20 $2 #
transform $-1 1 0 0 0 1 0 0 0 1 49.983214819788202 28.316092970923378 6.7997683386030978 1 rotate no_reflect no_shear #
lump $-1 $-1 $21 $3 #
transform $-1 1 0 0 0 1 0 0 0 1 49.983214819788202 28.316092970923378 6.7997683386030978 1 rotate no_reflect no_shear #
lump $-1 $-1 $22 $4 #
transform $-1 1 0 0 0 1 0 0 0 1 49.983214819788202 28.316092970923378 6.7997683386030978 1 rotate no_reflect no_shear #
lump $-1 $-1 $23 $5 #
transform $-1 1 0 0 0 1 0 0 0 1 49.983214819788202 28.316092970923378 6.7997683386030978 1 rotate no_reflect no_shear #
shell $-1 $-1 $-1 $24 $-1 $6 #
shell $-1 $-1 $-1 $25 $-1 $8 #
shell $-1 $-1 $-1 $26 $-1 $10 #
shell $-1 $-1 $-1 $27 $-1 $12 #
shell $-1 $-1 $-1 $28 $-1 $14 #
shell $-1 $-1 $-1 $29 $-1 $16 #
face $-1 $30 $31 $18 $-1 $32 forward single #
face $-1 $33 $34 $19 $-1 $35 reversed single #
face $-1 $36 $37 $20 $-1 $38 reversed single #
face $-1 $39 $40 $21 $-1 $41 forward single #
face $-1 $42 $43 $22 $-1 $44 forward single #
face $-1 $45 $46 $23 $-1 $47 forward single #
face $-1 $48 $49 $18 $-1 $50 reversed single #
loop $-1 $-1 $51 $24 #
plane-surface $-1 0 0 6.7997683386030978 0 0 1 1 0 0 forward_v I I I I #
face $-1 $52 $53 $19 $-1 $54 reversed single #
loop $-1 $-1 $55 $25 #
plane-surface $-1 -45.960971409912673 0 3.7997683386030978 0 0 1 1 0 0 forward_v I I I I #
face $-1 $56 $57 $20 $-1 $58 reversed single #
loop $-1 $-1 $59 $26 #
plane-surface $-1 -31.232782677508396 -97.758610900752231 73.297679117760467 -1 0 0 0 -0.69465837861970381 0.71933979245794832 forward_v I I I I #
face $-1 $60 $61 $21 $-1 $62 forward single #
loop $-1 $63 $64 $27 #
cone-surface $-1 -39.797538935531392 -25.102541039160229 3.6677410694198707 0 0.69465837861970381 -0.71933979245794832 0.5 0 0 1 I I 0 1 0.5 forward I I I I #
face $-1 $65 $66 $22 $-1 $67 forward single #
loop $-1 $68 $69 $28 #
cone-surface $-1 -36.585755338772771 -25.102541039160229 3.6677410694198707 0 0.69465837861970381 -0.71933979245794832 0.5 0 0 1 I I 0 1 0.5 forward I I I I #
face $-1 $70 $71 $23 $-1 $72 forward single #
loop $-1 $73 $74 $29 #
cone-surface $-1 -33.373971742014142 -25.102541039160229 3.6677410694198707 0 0.69465837861970381 -0.71933979245794832 0.5 0 0 1 I I 0 1 0.5 forward I I I I #
face $-1 $75 $76 $18 $-1 $77 reversed single #
loop $-1 $-1 $78 $30 #
plane-surface $-1 0 0 -6.7997683386030978 0 0 1 1 0 0 forward_v I I I I #
coedge $-1 $79 $80 $81 $82 forward $31 $-1 #
face $-1 $83 $84 $19 $-1 $85 reversed single #
loop $-1 $-1 $86 $33 #
plane-surface $-1 -41.938728000037145 0 5.2997683386030978 -1 0 0 0 0 1 forward_v I I I I #
coedge $-1 $87 $88 $89 $90 forward $34 $-1 #
face $-1 $91 $92 $20 $-1 $93 forward single #
loop $-1 $-1 $94 $36 #
plane-surface $-1 -36.585755338772771 -28.316092970923378 1.3878483680654767 0 -0.69465837861970381 0.71933979245794832 1 0 0 forward_v I I I I #
coedge $-1 $95 $96 $97 $98 reversed $37 $-1 #
face $-1 $-1 $99 $21 $-1 $100 forward single #
loop $-1 $101 $102 $39 #
cone-surface $-1 -39.797538935531392 -24.517428041775386 3.0618388373909617 0 0.69465837861970381 -0.71933979245794832 0.25 0 0 1 I I -0.70710678118654746 0.70710678118654746 0.25 forward I I I I #
loop $-1 $-1 $103 $27 #
coedge $-1 $64 $64 $104 $105 reversed $40 $-1 #
face $-1 $-1 $106 $22 $-1 $107 forward single #
loop $-1 $108 $109 $42 #
cone-surface $-1 -36.585755338772771 -24.517428041775386 3.0618388373909617 0 0.69465837861970381 -0.71933979245794832 0.25 0 0 1 I I -0.70710678118654746 0.70710678118654746 0.25 forward I I I I #
loop $-1 $-1 $110 $28 #
coedge $-1 $69 $69 $111 $112 reversed $43 $-1 #
face $-1 $-1 $113 $23 $-1 $114 forward single #
loop $-1 $115 $116 $45 #
cone-surface $-1 -33.373971742014142 -24.517428041775386 3.0618388373909617 0 0.69465837861970381 -0.71933979245794832 0.25 0 0 1 I I -0.70710678118654746 0.70710678118654746 0.25 forward I I I I #
loop $-1 $-1 $117 $29 #
coedge $-1 $74 $74 $118 $119 reversed $46 $-1 #
face $-1 $120 $121 $18 $-1 $122 reversed single #
loop $-1 $-1 $123 $48 #
plane-surface $-1 0 -28.316092970923378 0 0 1 0 0 0 1 forward_v I I I I #
coedge $-1 $124 $125 $126 $127 forward $49 $-1 #
coedge $-1 $128 $51 $129 $130 forward $31 $-1 #
coedge $-1 $51 $128 $131 $132 forward $31 $-1 #
coedge $-1 $133 $134 $51 $82 reversed $135 $-1 #
edge $-1 $136 -28.316092970923378 $137 28.316092970923378 $81 $138 forward 7 unknown #
face $-1 $139 $140 $19 $-1 $141 reversed single #
loop $-1 $-1 $142 $52 #
plane-surface $-1 0 28.316092970923378 0 0 -1 0 0 0 -1 forward_v I I I I #
coedge $-1 $89 $143 $144 $145 reversed $53 $-1 #
coedge $-1 $146 $55 $147 $148 reversed $34 $-1 #
coedge $-1 $55 $146 $149 $150 reversed $34 $-1 #
coedge $-1 $151 $86 $55 $90 reversed $53 $-1 #
edge $-1 $152 -28.316092970923378 $153 28.316092970923378 $89 $154 forward 7 unknown #
face $-1 $155 $156 $20 $-1 $157 forward single #
loop $-1 $-1 $158 $56 #
plane-surface $-1 -41.938728000037145 0 5.2997683386030978 -1 0 0 0 0 1 forward_v I I I I #
coedge $-1 $159 $160 $161 $162 reversed $57 $-1 #
coedge $-1 $96 $59 $163 $164 reversed $37 $-1 #
coedge $-1 $59 $95 $159 $165 reversed $37 $-1 #
coedge $-1 $161 $166 $59 $98 forward $156 $-1 #
edge $-1 $167 20.563212479452737 $168 26.167419537519212 $97 $169 forward 7 unknown #
loop $-1 $-1 $104 $60 #
plane-surface $-1 -36.585755338772771 -28.316092970923378 1.3878483680654767 0 -0.69465837861970381 0.71933979245794832 1 0 0 forward_v I I I I #
loop $-1 $-1 $170 $39 #
coedge $-1 $102 $102 $103 $171 reversed $61 $-1 #
coedge $-1 $103 $103 $102 $171 forward $63 $-1 #
coedge $-1 $104 $104 $64 $105 forward $99 $-1 #
edge $-1 $172 3.5265114926128642e-015 $172 6.283185307179604 $104 $173 forward 7 unknown #
loop $-1 $-1 $111 $65 #
plane-surface $-1 -36.585755338772771 -28.316092970923378 1.3878483680654767 0 -0.69465837861970381 0.71933979245794832 1 0 0 forward_v I I I I #
loop $-1 $-1 $174 $42 #
coedge $-1 $109 $109 $110 $175 reversed $66 $-1 #
coedge $-1 $110 $110 $109 $175 forward $68 $-1 #
coedge $-1 $111 $111 $69 $112 forward $106 $-1 #
edge $-1 $176 3.5265114926128642e-015 $176 6.283185307179604 $111 $177 forward 7 unknown #
loop $-1 $-1 $118 $70 #
plane-surface $-1 -36.585755338772771 -28.316092970923378 1.3878483680654767 0 -0.69465837861970381 0.71933979245794832 1 0 0 forward_v I I I I #
loop $-1 $-1 $178 $45 #
coedge $-1 $116 $116 $117 $179 reversed $71 $-1 #
coedge $-1 $117 $117 $116 $179 forward $73 $-1 #
coedge $-1 $118 $118 $74 $119 forward $113 $-1 #
edge $-1 $180 3.5265114926128642e-015 $180 6.283185307179604 $118 $181 forward 7 unknown #
face $-1 $182 $183 $18 $-1 $184 reversed single #
loop $-1 $-1 $185 $75 #
plane-surface $-1 -49.983214819788202 0 0 1 0 0 0 0 -1 forward_v I I I I #
coedge $-1 $186 $131 $187 $188 forward $76 $-1 #
coedge $-1 $189 $78 $186 $190 forward $49 $-1 #
coedge $-1 $78 $189 $191 $192 forward $49 $-1 #
coedge $-1 $134 $133 $78 $127 reversed $135 $-1 #
edge $-1 $193 -28.316092970923378 $194 28.316092970923378 $126 $195 forward 7 unknown #
coedge $-1 $80 $79 $196 $197 forward $31 $-1 #
coedge $-1 $198 $199 $79 $130 reversed $183 $-1 #
edge $-1 $137 -49.983214819788202 $200 49.983214819788202 $129 $201 forward 7 unknown #
coedge $-1 $123 $202 $80 $132 reversed $76 $-1 #
edge $-1 $203 -49.983214819788202 $136 49.983214819788202 $131 $204 forward 7 unknown #
coedge $-1 $126 $81 $202 $205 forward $135 $-1 #
coedge $-1 $81 $126 $198 $206 reversed $135 $-1 #
loop $-1 $-1 $133 $182 #
vertex $-1 $82 $207 #
vertex $-1 $82 $208 #
straight-curve $-1 49.983214819788202 0 6.7997683386030978 0 1 0 I I #
face $-1 $209 $210 $19 $-1 $211 forward single #
loop $-1 $-1 $212 $83 #
plane-surface $-1 -49.983214819788202 0 0 1 0 0 0 0 -1 forward_v I I I I #
coedge $-1 $149 $213 $151 $214 forward $84 $-1 #
coedge $-1 $86 $151 $215 $216 reversed $53 $-1 #
coedge $-1 $217 $147 $86 $145 forward $218 $-1 #
edge $-1 $153 1.1498841693015489 $219 4.1498841693015489 $144 $220 forward 7 unknown #
coedge $-1 $88 $87 $212 $221 reversed $34 $-1 #
coedge $-1 $144 $222 $87 $148 forward $218 $-1 #
edge $-1 $223 -27.002729114831865 $153 -18.958242295080808 $147 $224 forward 7 unknown #
coedge $-1 $225 $142 $88 $150 forward $84 $-1 #
edge $-1 $152 18.958242295080808 $226 27.002729114831865 $149 $227 forward 7 unknown #
coedge $-1 $143 $89 $142 $214 reversed $53 $-1 #
vertex $-1 $150 $228 #
vertex $-1 $148 $229 #
straight-curve $-1 -41.938728000037145 0 3.7997683386030978 0 -1 0 I I #
face $-1 $-1 $230 $20 $-1 $231 reversed single #
loop $-1 $-1 $161 $91 #
plane-surface $-1 0 0 6.7997683386030978 0 0 1 1 0 0 forward_v I I I I #
coedge $-1 $232 $233 $160 $234 reversed $92 $-1 #
coedge $-1 $235 $94 $96 $165 forward $57 $-1 #
coedge $-1 $94 $235 $158 $234 forward $57 $-1 #
coedge $-1 $236 $97 $94 $162 forward $156 $-1 #
edge $-1 $168 12.939905008122011 $237 23.645850330650759 $161 $238 forward 7 unknown #
coedge $-1 $239 $240 $95 $164 forward $230 $-1 #
edge $-1 $241 -35.260991190814757 $167 -29.849071220277136 $163 $242 forward 7 unknown #
edge $-1 $168 -7.7907646939941664 $241 0 $96 $243 forward 7 unknown #
coedge $-1 $97 $236 $239 $244 forward $156 $-1 #
vertex $-1 $164 $245 #
vertex $-1 $98 $246 #
straight-curve $-1 -31.232782677508396 -48.879305450376116 6.7997683386031014 0 1 0 I I #
coedge $-1 $170 $170 $-1 $247 reversed $101 $-1 #
edge $-1 $248 0 $248 6.2831853071796004 $102 $249 forward 7 unknown #
vertex $-1 $105 $250 #
ellipse-curve $-1 -39.797538935531392 -25.513989441890143 4.0938083533342864 0 -0.69465837861970381 0.71933979245794832 0.5 0 0 1 I I #
coedge $-1 $174 $174 $-1 $251 reversed $108 $-1 #
edge $-1 $252 0 $252 6.2831853071796004 $109 $253 forward 7 unknown #
vertex $-1 $112 $254 #
ellipse-curve $-1 -36.585755338772771 -25.513989441890143 4.0938083533342864 0 -0.69465837861970381 0.71933979245794832 0.5 0 0 1 I I #
coedge $-1 $178 $178 $-1 $255 reversed $115 $-1 #
edge $-1 $256 0 $256 6.2831853071796004 $116 $257 forward 7 unknown #
vertex $-1 $119 $258 #
ellipse-curve $-1 -33.373971742014142 -25.513989441890143 4.0938083533342864 0 -0.69465837861970381 0.71933979245794832 0.5 0 0 1 I I #
face $-1 $-1 $135 $18 $-1 $259 reversed single #
loop $-1 $-1 $198 $120 #
plane-surface $-1 0 28.316092970923378 0 0 -1 0 0 0 -1 forward_v I I I I #
coedge $-1 $260 $196 $199 $261 forward $121 $-1 #
coedge $-1 $202 $123 $124 $190 reversed $76 $-1 #
coedge $-1 $196 $260 $123 $188 reversed $121 $-1 #
edge $-1 $203 -6.7997683386030978 $262 6.7997683386030978 $187 $263 forward 7 unknown #
coedge $-1 $125 $124 $260 $264 forward $49 $-1 #
edge $-1 $194 -49.983214819788202 $262 49.983214819788202 $186 $265 forward 7 unknown #
coedge $-1 $199 $198 $125 $192 reversed $183 $-1 #
edge $-1 $266 -49.983214819788202 $193 49.983214819788202 $191 $267 forward 7 unknown #
vertex $-1 $127 $268 #
vertex $-1 $205 $269 #
straight-curve $-1 49.983214819788202 0 -6.7997683386030978 0 -1 0 I I #
coedge $-1 $185 $187 $128 $197 reversed $121 $-1 #
edge $-1 $200 -28.316092970923378 $203 28.316092970923378 $196 $270 forward 7 unknown #
coedge $-1 $191 $129 $134 $206 forward $183 $-1 #
coedge $-1 $129 $191 $185 $261 reversed $183 $-1 #
vertex $-1 $130 $271 #
straight-curve $-1 0 28.316092970923378 6.7997683386030978 -1 0 0 I I #
coedge $-1 $131 $186 $133 $205 reversed $76 $-1 #
vertex $-1 $197 $272 #
straight-curve $-1 0 -28.316092970923378 6.7997683386030978 1 0 0 I I #
edge $-1 $136 -6.7997683386030978 $194 6.7997683386030978 $133 $273 forward 7 unknown #
edge $-1 $137 -6.7997683386030978 $193 6.7997683386030978 $134 $274 forward 7 unknown #
point $-1 49.983214819788202 -28.316092970923378 6.7997683386030978 #
point $-1 49.983214819788202 28.316092970923378 6.7997683386030978 #
face $-1 $-1 $218 $19 $-1 $275 reversed single #
loop $-1 $-1 $215 $139 #
plane-surface $-1 0 0 6.7997683386030978 0 0 1 1 0 0 forward_v I I I I #
coedge $-1 $276 $277 $146 $221 forward $140 $-1 #
coedge $-1 $142 $225 $278 $279 reversed $84 $-1 #
edge $-1 $280 -4.1498841693015489 $152 -1.1498841693015489 $142 $281 forward 7 unknown #
coedge $-1 $278 $282 $143 $216 forward $210 $-1 #
edge $-1 $219 -28.316092970923378 $280 28.316092970923378 $215 $283 forward 7 unknown #
coedge $-1 $222 $144 $282 $284 reversed $218 $-1 #
loop $-1 $-1 $144 $209 #
vertex $-1 $145 $285 #
straight-curve $-1 -41.938728000037145 -28.316092970923378 2.6498841693015489 0 0 1 I I #
edge $-1 $226 -28.316092970923378 $223 28.316092970923378 $212 $286 forward 7 unknown #
coedge $-1 $147 $217 $276 $287 forward $218 $-1 #
vertex $-1 $221 $288 #
straight-curve $-1 -22.980485704956337 -28.316092970923378 3.7997683386030978 1 0 0 I I #
coedge $-1 $213 $149 $277 $289 reversed $84 $-1 #
vertex $-1 $221 $290 #
straight-curve $-1 -22.980485704956337 28.316092970923378 3.7997683386030978 -1 0 0 I I #
point $-1 -41.938728000037145 28.316092970923378 3.7997683386030978 #
point $-1 -41.938728000037145 -28.316092970923378 3.7997683386030978 #
loop $-1 $-1 $163 $155 #
plane-surface $-1 0 -28.316092970923378 0 0 1 0 0 0 1 forward_v I I I I #
coedge $-1 $233 $158 $291 $292 reversed $92 $-1 #
coedge $-1 $158 $232 $236 $293 reversed $92 $-1 #
edge $-1 $294 0 $237 7.7907646939941664 $158 $295 forward 7 unknown #
coedge $-1 $160 $159 $240 $296 reversed $57 $-1 #
coedge $-1 $166 $161 $233 $293 forward $156 $-1 #
vertex $-1 $293 $297 #
straight-curve $-1 -18.292877669386385 -22.7118859128569 6.7997683386030978 -1 0 0 I I #
coedge $-1 $291 $163 $166 $244 reversed $230 $-1 #
coedge $-1 $163 $291 $235 $296 forward $230 $-1 #
vertex $-1 $164 $298 #
straight-curve $-1 -31.232782677508396 -28.316092970923378 36.648839558880233 0 0 1 I I #
straight-curve $-1 -31.232782677508396 -28.316092970923378 1.3878483680654767 0 -0.71933979245794832 -0.69465837861970381 I I #
edge $-1 $299 -41.938728000037145 $167 -31.232782677508396 $239 $300 forward 7 unknown #
point $-1 -31.232782677508396 -28.316092970923378 6.7997683386030978 #
point $-1 -31.232782677508396 -22.711885912856904 6.7997683386030978 #
edge $-1 $301 1 $301 0 $170 $-1 forward 7 unknown #
vertex $-1 $171 $302 #
ellipse-curve $-1 -39.797538935531392 -24.691092636430312 3.2416737855054487 0 -0.69465837861970381 0.71933979245794832 0.5 0 0 1 I I #
point $-1 -39.297538935531392 -25.513989441890146 4.0938083533342926 #
edge $-1 $303 1 $303 0 $174 $-1 forward 7 unknown #
vertex $-1 $175 $304 #
ellipse-curve $-1 -36.585755338772771 -24.691092636430312 3.2416737855054487 0 -0.69465837861970381 0.71933979245794832 0.5 0 0 1 I I #
point $-1 -36.085755338772771 -25.513989441890146 4.0938083533342926 #
edge $-1 $305 1 $305 0 $178 $-1 forward 7 unknown #
vertex $-1 $179 $306 #
ellipse-curve $-1 -33.373971742014142 -24.691092636430312 3.2416737855054487 0 -0.69465837861970381 0.71933979245794832 0.5 0 0 1 I I #
point $-1 -32.873971742014142 -25.513989441890146 4.0938083533342926 #
plane-surface $-1 49.983214819788202 0 0 -1 0 0 0 0 1 forward_v I I I I #
coedge $-1 $187 $185 $189 $264 reversed $121 $-1 #
edge $-1 $200 -6.7997683386030978 $266 6.7997683386030978 $199 $307 forward 7 unknown #
vertex $-1 $264 $308 #
straight-curve $-1 -49.983214819788202 -28.316092970923378 0 0 0 -1 I I #
edge $-1 $262 -28.316092970923378 $266 28.316092970923378 $260 $309 forward 7 unknown #
straight-curve $-1 0 -28.316092970923378 -6.7997683386030978 -1 0 0 I I #
vertex $-1 $192 $310 #
straight-curve $-1 0 28.316092970923378 -6.7997683386030978 1 0 0 I I #
point $-1 49.983214819788202 28.316092970923378 -6.7997683386030978 #
point $-1 49.983214819788202 -28.316092970923378 -6.7997683386030978 #
straight-curve $-1 -49.983214819788202 0 6.7997683386030978 0 -1 0 I I #
point $-1 -49.983214819788202 28.316092970923378 6.7997683386030978 #
point $-1 -49.983214819788202 -28.316092970923378 6.7997683386030978 #
straight-curve $-1 49.983214819788202 -28.316092970923378 0 0 0 -1 I I #
straight-curve $-1 49.983214819788202 28.316092970923378 0 0 0 -1 I I #
plane-surface $-1 0 -28.316092970923378 0 0 1 0 0 0 1 forward_v I I I I #
coedge $-1 $311 $212 $222 $287 reversed $140 $-1 #
coedge $-1 $212 $311 $225 $289 forward $140 $-1 #
coedge $-1 $312 $215 $213 $279 forward $210 $-1 #
edge $-1 $280 41.938728000037145 $313 49.983214819788202 $213 $314 forward 7 unknown #
vertex $-1 $279 $315 #
straight-curve $-1 -41.938728000037145 28.316092970923378 2.6498841693015489 0 0 -1 I I #
coedge $-1 $215 $312 $217 $284 forward $210 $-1 #
straight-curve $-1 -41.938728000037145 0 6.7997683386030978 0 1 0 I I #
edge $-1 $316 -49.983214819788202 $219 -41.938728000037145 $217 $317 forward 7 unknown #
point $-1 -41.938728000037145 -28.316092970923378 6.7997683386030978 #
straight-curve $-1 -49.983214819788202 0 3.7997683386030978 0 -1 0 I I #
edge $-1 $316 -6.7997683386030978 $223 -3.7997683386030978 $276 $318 forward 7 unknown #
point $-1 -49.983214819788202 -28.316092970923378 3.7997683386030978 #
edge $-1 $313 -6.7997683386030978 $226 -3.7997683386030978 $225 $319 forward 7 unknown #
point $-1 -49.983214819788202 28.316092970923378 3.7997683386030978 #
coedge $-1 $240 $239 $232 $292 forward $230 $-1 #
edge $-1 $299 29.849071220277136 $294 35.260991190814757 $291 $320 forward 7 unknown #
edge $-1 $237 22.711885912856904 $299 28.316092970923378 $236 $321 forward 7 unknown #
vertex $-1 $292 $322 #
straight-curve $-1 -41.938728000037145 -28.316092970923378 1.3878483680654767 0 0.71933979245794832 0.69465837861970381 I I #
edge $-1 $294 -23.645850330650759 $241 -12.939905008122011 $240 $323 forward 7 unknown #
point $-1 -41.938728000037145 -22.711885912856904 6.7997683386030978 #
point $-1 -31.232782677508396 -28.316092970923378 1.3878483680654767 #
vertex $-1 $244 $324 #
straight-curve $-1 0 -28.316092970923378 6.7997683386030978 1 0 0 I I #
vertex $-1 $247 $325 #
point $-1 -39.297538935531392 -24.691092636430312 3.2416737855054487 #
vertex $-1 $251 $326 #
point $-1 -36.085755338772771 -24.691092636430312 3.2416737855054487 #
vertex $-1 $255 $327 #
point $-1 -32.873971742014142 -24.691092636430312 3.2416737855054487 #
straight-curve $-1 -49.983214819788202 28.316092970923378 0 0 0 -1 I I #
point $-1 -49.983214819788202 -28.316092970923378 -6.7997683386030978 #
straight-curve $-1 -49.983214819788202 0 -6.7997683386030978 0 1 0 I I #
point $-1 -49.983214819788202 28.316092970923378 -6.7997683386030978 #
coedge $-1 $277 $276 $312 $328 reversed $140 $-1 #
coedge $-1 $282 $278 $311 $328 forward $210 $-1 #
vertex $-1 $279 $329 #
straight-curve $-1 0 28.316092970923378 6.7997683386030978 -1 0 0 I I #
point $-1 -41.938728000037145 28.316092970923378 6.7997683386030978 #
vertex $-1 $328 $330 #
straight-curve $-1 0 -28.316092970923378 6.7997683386030978 1 0 0 I I #
straight-curve $-1 -49.983214819788202 -28.316092970923378 0 0 0 -1 I I #
straight-curve $-1 -49.983214819788202 28.316092970923378 0 0 0 -1 I I #
straight-curve $-1 -41.938728000037145 -28.316092970923378 36.648839558880233 0 0 -1 I I #
straight-curve $-1 -41.938728000037145 0 6.7997683386030978 0 -1 0 I I #
point $-1 -41.938728000037145 -28.316092970923378 1.3878483680654767 #
straight-curve $-1 -18.292877669386385 -28.316092970923378 1.3878483680654781 1 0 0 I I #
point $-1 -41.938728000037145 -28.316092970923378 6.7997683386030978 #
point $-1 -39.797538935531392 -24.343763447120459 2.8820038892764748 #
point $-1 -36.585755338772771 -24.343763447120459 2.8820038892764748 #
point $-1 -33.373971742014142 -24.343763447120459 2.8820038892764748 #
edge $-1 $313 -28.316092970923378 $316 28.316092970923378 $311 $331 forward 7 unknown #
point $-1 -49.983214819788202 28.316092970923378 6.7997683386030978 #
point $-1 -49.983214819788202 -28.316092970923378 6.7997683386030978 #
straight-curve $-1 -49.983214819788202 0 6.7997683386030978 0 -1 0 I I #
End-of-ACIS-data 