600 0 9 0           
109 GICL ACIS Healer - Source: /gicl/data5/repository/Drexel/CICIRELLO-THESISDATA/Part10005.smdg.deltas.sat - 6 0 18 ACIS 6.0.3 Solaris 24 Fri Apr 12 10:17:11 2002 
1 9.999999999999999547e-07 1.000000000000000036e-10 
body $-1 $9 $-1 $-1 #
body $-1 $10 $-1 $-1 #
body $-1 $11 $-1 $-1 #
body $-1 $12 $-1 $-1 #
body $-1 $13 $-1 $-1 #
body $-1 $14 $-1 $-1 #
body $-1 $15 $-1 $-1 #
body $-1 $16 $-1 $-1 #
body $-1 $17 $-1 $-1 #
lump $-1 $-1 $18 $0 #
lump $-1 $-1 $19 $1 #
lump $-1 $-1 $20 $2 #
lump $-1 $-1 $21 $3 #
lump $-1 $-1 $22 $4 #
lump $-1 $-1 $23 $5 #
lump $-1 $-1 $24 $6 #
lump $-1 $-1 $25 $7 #
lump $-1 $-1 $26 $8 #
shell $-1 $-1 $-1 $27 $-1 $9 #
shell $-1 $-1 $-1 $28 $-1 $10 #
shell $-1 $-1 $-1 $29 $-1 $11 #
shell $-1 $-1 $-1 $30 $-1 $12 #
shell $-1 $-1 $-1 $31 $-1 $13 #
shell $-1 $-1 $-1 $32 $-1 $14 #
shell $-1 $-1 $-1 $33 $-1 $15 #
shell $-1 $-1 $-1 $34 $-1 $16 #
shell $-1 $-1 $-1 $35 $-1 $17 #
face $-1 $36 $37 $18 $-1 $38 reversed single #
face $-1 $39 $40 $19 $-1 $41 forward single #
face $-1 $42 $43 $20 $-1 $44 forward single #
face $-1 $45 $46 $21 $-1 $47 reversed single #
face $-1 $48 $49 $22 $-1 $50 forward single #
face $-1 $51 $52 $23 $-1 $53 forward single #
face $-1 $54 $55 $24 $-1 $56 reversed single #
face $-1 $57 $58 $25 $-1 $59 forward single #
face $-1 $60 $61 $26 $-1 $62 forward single #
face $-1 $63 $64 $18 $-1 $65 forward single #
loop $-1 $-1 $66 $27 #
plane-surface $-1 101.582689901425212 29.2310258739447697 13.10235439064879337 -1 0 0 0 0 1 forward_v I I I I #
face $-1 $67 $68 $19 $-1 $69 reversed single #
loop $-1 $-1 $70 $28 #
plane-surface $-1 6.802819813358489398 29.2310258739447697 7.552053543558624682 0 0 1 1 0 0 forward_v I I I I #
face $-1 $71 $72 $20 $-1 $73 reversed single #
loop $-1 $-1 $74 $29 #
plane-surface $-1 101.582689901425212 29.2310258739447697 13.10235439064879337 -1 0 0 0 0 1 forward_v I I I I #
face $-1 $75 $76 $21 $-1 $77 reversed single #
loop $-1 $-1 $78 $30 #
plane-surface $-1 29.17820067222048408 100.6152691292171255 131.7052073006463786 1 0 0 0 -0.7771459697322561366 -0.629320380830711068 forward_v I I I I #
face $-1 $79 $80 $22 $-1 $81 forward single #
loop $-1 $82 $83 $31 #
cone-surface $-1 33.95864735209557494 55.55361557333334588 23.1849109973999461 0 -0.7771459697322561366 -0.629320380830711068 1 0 0 1 I I 0 1 1 forward I I I I #
face $-1 $84 $85 $23 $-1 $86 forward single #
loop $-1 $87 $88 $32 #
cone-surface $-1 41.1293173719082148 55.55361557333334588 23.1849109973999461 0 -0.7771459697322561366 -0.629320380830711068 1 0 0 1 I I 0 1 1 forward I I I I #
face $-1 $89 $90 $24 $-1 $91 reversed single #
loop $-1 $-1 $92 $33 #
plane-surface $-1 45.90976405178331277 -78.94457805145415819 86.27165940249543041 -1 0 0 0 -0.7771459697322561366 0.629320380830711068 forward_v I I I I #
face $-1 $93 $94 $25 $-1 $95 forward single #
loop $-1 $96 $97 $34 #
cone-surface $-1 33.95864735209557494 2.908436174556197074 23.1849109973999461 0 0.7771459697322561366 -0.629320380830711068 1 0 0 1 I I 0 1 1 forward I I I I #
face $-1 $98 $99 $26 $-1 $100 forward single #
loop $-1 $101 $102 $35 #
cone-surface $-1 41.1293173719082148 2.908436174556197074 23.1849109973999461 0 0.7771459697322561366 -0.629320380830711068 1 0 0 1 I I 0 1 1 forward I I I I #
face $-1 $103 $104 $18 $-1 $105 reversed single #
loop $-1 $-1 $106 $36 #
plane-surface $-1 50.79134495071260602 29.2310258739447697 26.20470878129758674 0 0 1 1 0 0 forward_v I I I I #
coedge $-1 $107 $108 $109 $110 reversed $37 $-1 #
face $-1 $111 $112 $19 $-1 $113 reversed single #
loop $-1 $-1 $114 $39 #
plane-surface $-1 6.802819813358489398 29.2310258739447697 3.679687431619141691 0 0 1 1 0 0 forward_v I I I I #
coedge $-1 $115 $116 $117 $118 forward $40 $-1 #
face $-1 $119 $120 $20 $-1 $121 forward single #
loop $-1 $-1 $122 $42 #
plane-surface $-1 50.79134495071260602 58.4620517478895394 13.10235439064879337 0 -1 0 0 0 -1 forward_v I I I I #
coedge $-1 $123 $124 $125 $126 forward $43 $-1 #
face $-1 $127 $128 $21 $-1 $129 reversed single #
loop $-1 $-1 $130 $45 #
plane-surface $-1 37.54398236200189842 21.67069107776296377 67.77715020607342922 0 0.7771459697322561366 0.629320380830711068 1 0 0 forward_v I I I I #
coedge $-1 $131 $132 $133 $134 reversed $46 $-1 #
face $-1 $-1 $135 $22 $-1 $136 forward single #
loop $-1 $137 $138 $48 #
cone-surface $-1 33.95864735209557494 53.81993755818079705 21.78100625977450022 0 -0.7771459697322561366 -0.629320380830711068 0.5 0 0 1 I I -0.7071067811865474617 0.7071067811865474617 0.5 forward I I I I #
loop $-1 $-1 $139 $31 #
coedge $-1 $83 $83 $140 $141 reversed $49 $-1 #
face $-1 $-1 $142 $23 $-1 $143 forward single #
loop $-1 $144 $145 $51 #
cone-surface $-1 41.1293173719082148 53.81993755818079705 21.78100625977450022 0 -0.7771459697322561366 -0.629320380830711068 0.5 0 0 1 I I -0.7071067811865474617 0.7071067811865474617 0.5 forward I I I I #
loop $-1 $-1 $146 $32 #
coedge $-1 $88 $88 $147 $148 reversed $52 $-1 #
face $-1 $149 $150 $24 $-1 $151 reversed single #
loop $-1 $-1 $152 $54 #
plane-surface $-1 37.54398236200189842 -3.552713678800500929e-15 22.34360230792248103 0 -0.7771459697322561366 0.629320380830711068 1 0 0 forward_v I I I I #
coedge $-1 $153 $154 $155 $156 reversed $55 $-1 #
face $-1 $-1 $157 $25 $-1 $158 forward single #
loop $-1 $159 $160 $57 #
cone-surface $-1 33.95864735209557494 4.642114189708745897 21.78100625977450022 0 0.7771459697322561366 -0.629320380830711068 0.5 0 0 1 I I -0.7071067811865474617 0.7071067811865474617 0.5 forward I I I I #
loop $-1 $-1 $161 $34 #
coedge $-1 $97 $97 $162 $163 reversed $58 $-1 #
face $-1 $-1 $164 $26 $-1 $165 forward single #
loop $-1 $166 $167 $60 #
cone-surface $-1 41.1293173719082148 4.642114189708745897 21.78100625977450022 0 0.7771459697322561366 -0.629320380830711068 0.5 0 0 1 I I -0.7071067811865474617 0.7071067811865474617 0.5 forward I I I I #
loop $-1 $-1 $168 $35 #
coedge $-1 $102 $102 $169 $170 reversed $61 $-1 #
face $-1 $171 $172 $18 $-1 $173 reversed single #
loop $-1 $-1 $174 $63 #
plane-surface $-1 50.79134495071260602 29.2310258739447697 0 0 0 1 1 0 0 forward_v I I I I #
coedge $-1 $175 $176 $107 $177 forward $64 $-1 #
coedge $-1 $178 $66 $106 $177 reversed $37 $-1 #
coedge $-1 $66 $178 $174 $179 reversed $37 $-1 #
coedge $-1 $180 $181 $66 $110 forward $182 $-1 #
edge $-1 $183 -13.10235439064879337 $184 13.10235439064879337 $66 $185 forward 7 unknown #
face $-1 $186 $187 $19 $-1 $188 reversed single #
loop $-1 $-1 $189 $67 #
plane-surface $-1 13.6056396267169788 29.2310258739447697 5.615870487588883186 -1 0 0 0 0 1 forward_v I I I I #
coedge $-1 $190 $191 $192 $193 forward $68 $-1 #
coedge $-1 $194 $70 $195 $196 reversed $40 $-1 #
coedge $-1 $70 $194 $197 $198 reversed $40 $-1 #
coedge $-1 $189 $199 $70 $118 reversed $112 $-1 #
edge $-1 $200 -29.2310258739447697 $201 29.2310258739447697 $117 $202 forward 7 unknown #
face $-1 $203 $204 $20 $-1 $205 reversed single #
loop $-1 $-1 $206 $71 #
plane-surface $-1 106.4796803598483592 29.2310258739447697 9.920908233969949919 0 0 1 1 0 0 forward_v I I I I #
coedge $-1 $207 $208 $124 $209 forward $72 $-1 #
coedge $-1 $210 $74 $211 $212 reversed $43 $-1 #
coedge $-1 $74 $210 $122 $209 reversed $43 $-1 #
coedge $-1 $213 $214 $74 $126 reversed $204 $-1 #
edge $-1 $215 -29.2310258739447697 $216 29.2310258739447697 $125 $217 forward 7 unknown #
face $-1 $218 $219 $21 $-1 $220 reversed single #
loop $-1 $-1 $221 $75 #
plane-surface $-1 45.90976405178331277 100.6152691292171255 131.7052073006463786 -1 0 0 0 0.7771459697322561366 0.629320380830711068 forward_v I I I I #
coedge $-1 $222 $223 $224 $225 reversed $76 $-1 #
coedge $-1 $132 $78 $226 $227 reversed $46 $-1 #
coedge $-1 $78 $131 $222 $228 reversed $46 $-1 #
coedge $-1 $224 $229 $78 $134 forward $230 $-1 #
edge $-1 $231 6.461095753691402876 $232 9.587758042230944966 $133 $233 forward 7 unknown #
loop $-1 $-1 $140 $79 #
plane-surface $-1 37.54398236200189842 21.67069107776296377 67.77715020607342922 0 0.7771459697322561366 0.629320380830711068 1 0 0 forward_v I I I I #
loop $-1 $-1 $234 $48 #
coedge $-1 $138 $138 $139 $235 reversed $80 $-1 #
coedge $-1 $139 $139 $138 $235 forward $82 $-1 #
coedge $-1 $140 $140 $83 $141 forward $135 $-1 #
edge $-1 $236 -4.471590250650415527e-15 $236 6.283185307179581791 $140 $237 forward 7 unknown #
loop $-1 $-1 $147 $84 #
plane-surface $-1 37.54398236200189842 21.67069107776296377 67.77715020607342922 0 0.7771459697322561366 0.629320380830711068 1 0 0 forward_v I I I I #
loop $-1 $-1 $238 $51 #
coedge $-1 $145 $145 $146 $239 reversed $85 $-1 #
coedge $-1 $146 $146 $145 $239 forward $87 $-1 #
coedge $-1 $147 $147 $88 $148 forward $142 $-1 #
edge $-1 $240 -4.471590250650415527e-15 $240 6.283185307179581791 $147 $241 forward 7 unknown #
face $-1 $242 $243 $24 $-1 $244 forward single #
loop $-1 $-1 $245 $89 #
plane-surface $-1 29.17820067222048408 -78.94457805145415819 86.27165940249543041 1 0 0 0 0.7771459697322561366 -0.629320380830711068 forward_v I I I I #
coedge $-1 $246 $247 $248 $249 reversed $90 $-1 #
coedge $-1 $154 $92 $250 $251 reversed $55 $-1 #
coedge $-1 $92 $153 $246 $252 reversed $55 $-1 #
coedge $-1 $248 $253 $92 $156 forward $243 $-1 #
edge $-1 $254 24.85677608875469602 $255 27.98343837729424166 $155 $256 forward 7 unknown #
loop $-1 $-1 $162 $93 #
plane-surface $-1 37.54398236200189842 -3.552713678800500929e-15 22.34360230792248103 0 -0.7771459697322561366 0.629320380830711068 1 0 0 forward_v I I I I #
loop $-1 $-1 $257 $57 #
coedge $-1 $160 $160 $161 $258 reversed $94 $-1 #
coedge $-1 $161 $161 $160 $258 forward $96 $-1 #
coedge $-1 $162 $162 $97 $163 forward $157 $-1 #
edge $-1 $259 -5.251819917672589776e-16 $259 6.283185307179585344 $162 $260 forward 7 unknown #
loop $-1 $-1 $169 $98 #
plane-surface $-1 37.54398236200189842 -3.552713678800500929e-15 22.34360230792248103 0 -0.7771459697322561366 0.629320380830711068 1 0 0 forward_v I I I I #
loop $-1 $-1 $261 $60 #
coedge $-1 $167 $167 $168 $262 reversed $99 $-1 #
coedge $-1 $168 $168 $167 $262 forward $101 $-1 #
coedge $-1 $169 $169 $102 $170 forward $164 $-1 #
edge $-1 $263 -5.251819917672589776e-16 $263 6.283185307179585344 $169 $264 forward 7 unknown #
face $-1 $265 $266 $18 $-1 $267 reversed single #
loop $-1 $-1 $268 $103 #
plane-surface $-1 50.79134495071260602 0 13.10235439064879337 0 1 0 0 0 1 forward_v I I I I #
coedge $-1 $269 $270 $108 $179 forward $104 $-1 #
coedge $-1 $271 $106 $181 $272 forward $64 $-1 #
coedge $-1 $106 $271 $273 $274 forward $64 $-1 #
edge $-1 $275 -29.2310258739447697 $183 29.2310258739447697 $107 $276 forward 7 unknown #
coedge $-1 $108 $107 $277 $278 forward $37 $-1 #
edge $-1 $184 -29.2310258739447697 $279 29.2310258739447697 $108 $280 forward 7 unknown #
coedge $-1 $281 $109 $270 $282 reversed $182 $-1 #
coedge $-1 $109 $281 $175 $272 reversed $182 $-1 #
loop $-1 $-1 $109 $265 #
vertex $-1 $177 $283 #
vertex $-1 $179 $284 #
straight-curve $-1 101.582689901425212 58.4620517478895394 13.10235439064879337 0 0 -1 I I #
face $-1 $285 $286 $19 $-1 $287 reversed single #
loop $-1 $-1 $288 $111 #
plane-surface $-1 50.79134495071260602 0 13.10235439064879337 0 1 0 0 0 1 forward_v I I I I #
coedge $-1 $192 $117 $289 $290 reversed $112 $-1 #
coedge $-1 $291 $114 $288 $292 reversed $68 $-1 #
coedge $-1 $114 $291 $293 $294 reversed $68 $-1 #
coedge $-1 $199 $189 $114 $193 reversed $112 $-1 #
edge $-1 $295 -29.2310258739447697 $296 29.2310258739447697 $192 $297 forward 7 unknown #
coedge $-1 $116 $115 $298 $299 reversed $40 $-1 #
coedge $-1 $300 $301 $115 $196 forward $302 $-1 #
edge $-1 $303 -28.79708238203554771 $201 -15.19144275531856891 $195 $304 forward 7 unknown #
coedge $-1 $305 $289 $116 $198 forward $187 $-1 #
edge $-1 $200 15.19144275531856891 $306 28.79708238203554771 $197 $307 forward 7 unknown #
coedge $-1 $117 $192 $300 $308 reversed $112 $-1 #
vertex $-1 $198 $309 #
vertex $-1 $196 $310 #
straight-curve $-1 13.6056396267169788 29.2310258739447697 7.552053543558624682 0 1 0 I I #
face $-1 $311 $312 $20 $-1 $313 reversed single #
loop $-1 $-1 $314 $119 #
plane-surface $-1 106.4796803598483592 29.2310258739447697 2.297174955328884494 0 0 1 1 0 0 forward_v I I I I #
coedge $-1 $315 $316 $317 $318 forward $120 $-1 #
coedge $-1 $319 $122 $315 $320 reversed $72 $-1 #
coedge $-1 $122 $319 $213 $321 reversed $72 $-1 #
edge $-1 $215 -10.80517943531990888 $322 -3.181446156678843451 $122 $323 forward 7 unknown #
coedge $-1 $124 $123 $324 $325 forward $43 $-1 #
coedge $-1 $326 $327 $123 $212 forward $328 $-1 #
edge $-1 $329 3.181446156678843451 $216 10.80517943531990888 $211 $330 forward 7 unknown #
coedge $-1 $314 $125 $208 $321 forward $204 $-1 #
coedge $-1 $125 $314 $326 $331 forward $204 $-1 #
vertex $-1 $209 $332 #
vertex $-1 $212 $333 #
straight-curve $-1 101.582689901425212 29.2310258739447697 2.297174955328884494 0 -1 0 I I #
face $-1 $-1 $230 $21 $-1 $334 forward single #
loop $-1 $-1 $335 $127 #
plane-surface $-1 50.79134495071260602 58.4620517478895394 13.10235439064879337 0 -1 0 0 0 -1 forward_v I I I I #
coedge $-1 $336 $337 $338 $339 reversed $128 $-1 #
coedge $-1 $340 $130 $132 $228 forward $76 $-1 #
coedge $-1 $130 $340 $336 $341 forward $76 $-1 #
coedge $-1 $338 $133 $130 $225 forward $230 $-1 #
edge $-1 $232 -14.98946298413676459 $342 1.742100395426064097 $224 $343 forward 7 unknown #
coedge $-1 $344 $345 $131 $227 forward $219 $-1 #
edge $-1 $346 -50.06017853772510762 $231 -46.19907206435000546 $226 $347 forward 7 unknown #
edge $-1 $232 53.49373611124621419 $346 58.46205174788953229 $132 $348 forward 7 unknown #
coedge $-1 $133 $338 $344 $349 forward $230 $-1 #
loop $-1 $-1 $338 $218 #
vertex $-1 $227 $350 #
vertex $-1 $134 $351 #
straight-curve $-1 29.17820067222048408 64.92314750158094228 26.20470878129758319 0 -1 0 I I #
coedge $-1 $234 $234 $-1 $352 reversed $137 $-1 #
edge $-1 $353 0 $353 6.283185307179586232 $138 $354 forward 7 unknown #
vertex $-1 $141 $355 #
ellipse-curve $-1 33.95864735209557494 56.89872060361977191 24.27415554461003211 0 0.7771459697322561366 0.629320380830711068 1 0 0 1 I I #
coedge $-1 $238 $238 $-1 $356 reversed $144 $-1 #
edge $-1 $357 0 $357 6.283185307179586232 $145 $358 forward 7 unknown #
vertex $-1 $148 $359 #
ellipse-curve $-1 41.1293173719082148 56.89872060361977191 24.27415554461003211 0 0.7771459697322561366 0.629320380830711068 1 0 0 1 I I #
face $-1 $-1 $360 $24 $-1 $361 reversed single #
loop $-1 $-1 $155 $149 #
plane-surface $-1 50.79134495071260602 29.2310258739447697 26.20470878129758674 0 0 1 1 0 0 forward_v I I I I #
coedge $-1 $362 $363 $364 $365 reversed $150 $-1 #
coedge $-1 $366 $152 $154 $252 forward $90 $-1 #
coedge $-1 $152 $366 $362 $367 forward $90 $-1 #
coedge $-1 $364 $155 $152 $249 forward $243 $-1 #
edge $-1 $255 -1.742100395426064097 $368 14.98946298413676459 $248 $369 forward 7 unknown #
coedge $-1 $370 $371 $153 $251 forward $360 $-1 #
edge $-1 $372 -27.34340458864961931 $254 -23.48229811527452071 $250 $373 forward 7 unknown #
edge $-1 $255 -4.968315636643319877 $372 -7.757749359510140654e-15 $154 $374 forward 7 unknown #
coedge $-1 $155 $364 $370 $375 forward $243 $-1 #
vertex $-1 $156 $376 #
vertex $-1 $156 $377 #
straight-curve $-1 45.90976405178331277 -24.85677608875469602 26.20470878129758319 0 1 0 I I #
coedge $-1 $257 $257 $-1 $378 reversed $159 $-1 #
edge $-1 $379 0 $379 6.283185307179586232 $160 $380 forward 7 unknown #
vertex $-1 $163 $381 #
ellipse-curve $-1 33.95864735209557494 1.563331144269771045 24.27415554461003566 0 -0.7771459697322561366 0.629320380830711068 1 0 0 1 I I #
coedge $-1 $261 $261 $-1 $382 reversed $166 $-1 #
edge $-1 $383 0 $383 6.283185307179586232 $167 $384 forward 7 unknown #
vertex $-1 $170 $385 #
ellipse-curve $-1 41.1293173719082148 1.563331144269771045 24.27415554461003566 0 -0.7771459697322561366 0.629320380830711068 1 0 0 1 I I #
face $-1 $-1 $182 $18 $-1 $386 reversed single #
loop $-1 $-1 $387 $171 #
plane-surface $-1 0 29.2310258739447697 13.10235439064879337 1 0 0 0 0 -1 forward_v I I I I #
coedge $-1 $388 $273 $389 $390 forward $172 $-1 #
coedge $-1 $391 $174 $388 $392 forward $104 $-1 #
coedge $-1 $174 $391 $180 $282 forward $104 $-1 #
coedge $-1 $176 $175 $393 $394 forward $64 $-1 #
edge $-1 $183 -50.79134495071260602 $395 50.79134495071260602 $181 $396 forward 7 unknown #
coedge $-1 $268 $277 $176 $274 reversed $172 $-1 #
edge $-1 $397 -50.79134495071260602 $275 50.79134495071260602 $273 $398 forward 7 unknown #
vertex $-1 $177 $399 #
straight-curve $-1 101.582689901425212 29.2310258739447697 26.20470878129758674 0 1 0 I I #
coedge $-1 $273 $388 $178 $278 reversed $172 $-1 #
edge $-1 $275 -13.10235439064879337 $279 13.10235439064879337 $178 $400 forward 7 unknown #
vertex $-1 $278 $401 #
straight-curve $-1 101.582689901425212 29.2310258739447697 0 0 -1 0 I I #
coedge $-1 $181 $180 $387 $402 reversed $182 $-1 #
edge $-1 $403 -50.79134495071260602 $184 50.79134495071260602 $180 $404 forward 7 unknown #
point $-1 101.582689901425212 58.4620517478895394 26.20470878129758674 #
point $-1 101.582689901425212 58.4620517478895394 0 #
face $-1 $-1 $302 $19 $-1 $405 reversed single #
loop $-1 $-1 $406 $186 #
plane-surface $-1 0 29.2310258739447697 13.10235439064879337 1 0 0 0 0 -1 forward_v I I I I #
coedge $-1 $289 $305 $190 $292 forward $187 $-1 #
coedge $-1 $197 $288 $189 $290 forward $187 $-1 #
edge $-1 $296 -5.679425007499697031 $200 -1.80705889556021404 $289 $407 forward 7 unknown #
coedge $-1 $191 $190 $406 $408 reversed $68 $-1 #
edge $-1 $409 -28.79708238203554771 $296 -15.19144275531856891 $288 $410 forward 7 unknown #
coedge $-1 $301 $300 $191 $294 forward $302 $-1 #
edge $-1 $295 15.19144275531856891 $411 28.79708238203554771 $293 $412 forward 7 unknown #
vertex $-1 $294 $413 #
vertex $-1 $292 $414 #
straight-curve $-1 13.6056396267169788 29.2310258739447697 3.679687431619141691 0 -1 0 I I #
coedge $-1 $415 $416 $194 $299 forward $286 $-1 #
edge $-1 $306 -29.2310258739447697 $303 29.2310258739447697 $298 $417 forward 7 unknown #
coedge $-1 $293 $195 $199 $308 forward $302 $-1 #
coedge $-1 $195 $293 $415 $418 reversed $302 $-1 #
loop $-1 $-1 $293 $285 #
vertex $-1 $418 $419 #
straight-curve $-1 28.79708238203554771 58.4620517478895394 7.552053543558624682 1 0 0 I I #
coedge $-1 $288 $197 $416 $420 forward $187 $-1 #
vertex $-1 $420 $421 #
straight-curve $-1 28.79708238203554771 0 7.552053543558624682 -1 0 0 I I #
edge $-1 $201 1.80705889556021404 $295 5.679425007499697031 $300 $422 forward 7 unknown #
point $-1 13.6056396267169788 0 7.552053543558624682 #
point $-1 13.6056396267169788 58.4620517478895394 7.552053543558624682 #
face $-1 $-1 $328 $20 $-1 $423 reversed single #
loop $-1 $-1 $424 $203 #
plane-surface $-1 111.3766708182715064 29.2310258739447697 6.109041594649417206 -1 0 0 0 0 1 forward_v I I I I #
coedge $-1 $214 $213 $425 $426 forward $204 $-1 #
coedge $-1 $324 $206 $207 $320 forward $120 $-1 #
coedge $-1 $206 $324 $327 $427 forward $120 $-1 #
coedge $-1 $424 $428 $206 $318 reversed $312 $-1 #
edge $-1 $429 -29.2310258739447697 $430 29.2310258739447697 $317 $431 forward 7 unknown #
coedge $-1 $208 $207 $428 $432 forward $72 $-1 #
edge $-1 $430 -4.896990458423147174 $322 4.896990458423147174 $207 $433 forward 7 unknown #
edge $-1 $215 -4.896990458423147174 $434 4.896990458423147174 $208 $435 forward 7 unknown #
vertex $-1 $320 $436 #
straight-curve $-1 101.582689901425212 58.4620517478895394 13.10235439064879337 0 0 1 I I #
coedge $-1 $316 $315 $210 $325 reversed $120 $-1 #
edge $-1 $329 -29.2310258739447697 $322 29.2310258739447697 $324 $437 forward 7 unknown #
coedge $-1 $438 $211 $214 $331 reversed $328 $-1 #
coedge $-1 $211 $438 $316 $427 reversed $328 $-1 #
loop $-1 $-1 $211 $311 #
vertex $-1 $212 $439 #
straight-curve $-1 101.582689901425212 0 13.10235439064879337 0 0 -1 I I #
edge $-1 $440 -4.896990458423147174 $216 4.896990458423147174 $326 $441 forward 7 unknown #
point $-1 101.582689901425212 58.4620517478895394 2.297174955328884494 #
point $-1 101.582689901425212 0 2.297174955328884494 #
plane-surface $-1 50.79134495071260602 29.2310258739447697 26.20470878129758674 0 0 1 1 0 0 forward_v I I I I #
coedge $-1 $345 $344 $337 $442 forward $219 $-1 #
coedge $-1 $337 $221 $223 $341 reversed $128 $-1 #
coedge $-1 $221 $336 $335 $442 reversed $128 $-1 #
coedge $-1 $229 $224 $221 $339 forward $230 $-1 #
edge $-1 $342 -9.587758042230944966 $443 -6.461095753691402876 $338 $444 forward 7 unknown #
coedge $-1 $223 $222 $345 $445 reversed $76 $-1 #
edge $-1 $446 -58.46205174788953229 $342 -53.49373611124621419 $336 $447 forward 7 unknown #
vertex $-1 $225 $448 #
straight-curve $-1 44.16766365635724867 55.3353894593499902 26.20470878129758319 1 0 0 I I #
coedge $-1 $335 $226 $229 $349 reversed $219 $-1 #
coedge $-1 $226 $335 $340 $445 forward $219 $-1 #
vertex $-1 $227 $449 #
straight-curve $-1 29.17820067222048408 58.4620517478895394 72.40378084564758865 0 0 1 I I #
straight-curve $-1 29.17820067222048408 21.67069107776296377 67.77715020607342922 0 0.629320380830711068 -0.7771459697322561366 I I #
edge $-1 $443 4.881580898929293255 $231 21.61314427849212194 $344 $450 forward 7 unknown #
point $-1 29.17820067222048408 58.4620517478895394 26.20470878129758674 #
point $-1 29.17820067222048408 55.33538945934999731 26.20470878129758319 #
edge $-1 $451 1 $451 0 $234 $-1 forward 7 unknown #
vertex $-1 $235 $452 #
ellipse-curve $-1 33.95864735209557494 54.20851054304692695 22.09566645018985653 0 0.7771459697322561366 0.629320380830711068 1 0 0 1 I I #
point $-1 34.95864735209557494 56.8987206036197648 24.27415554461003211 #
edge $-1 $453 1 $453 0 $238 $-1 forward 7 unknown #
vertex $-1 $239 $454 #
ellipse-curve $-1 41.1293173719082148 54.20851054304692695 22.09566645018985653 0 0.7771459697322561366 0.629320380830711068 1 0 0 1 I I #
point $-1 42.1293173719082148 56.8987206036197648 24.27415554461003211 #
loop $-1 $-1 $250 $242 #
plane-surface $-1 50.79134495071260602 0 13.10235439064879337 0 1 0 0 0 1 forward_v I I I I #
coedge $-1 $363 $245 $247 $367 reversed $150 $-1 #
coedge $-1 $245 $362 $455 $456 reversed $150 $-1 #
coedge $-1 $253 $248 $245 $365 forward $243 $-1 #
edge $-1 $368 -27.98343837729424166 $457 -24.85677608875469602 $364 $458 forward 7 unknown #
coedge $-1 $247 $246 $371 $459 reversed $90 $-1 #
edge $-1 $460 7.757749359510140654e-15 $368 4.968315636643319877 $362 $461 forward 7 unknown #
vertex $-1 $249 $462 #
straight-curve $-1 44.16766365635724867 3.126662288539545642 26.20470878129758674 -1 0 0 I I #
coedge $-1 $455 $250 $253 $375 reversed $360 $-1 #
coedge $-1 $250 $455 $366 $459 forward $360 $-1 #
vertex $-1 $251 $463 #
straight-curve $-1 45.90976405178331277 -3.552713678800500929e-15 49.68700689657210745 0 0 1 I I #
straight-curve $-1 45.90976405178331277 -3.552713678800500929e-15 22.34360230792248103 0 -0.629320380830711068 -0.7771459697322561366 I I #
edge $-1 $457 -21.61314427849212194 $254 -4.881580898929293255 $370 $464 forward 7 unknown #
point $-1 45.90976405178331277 0 26.20470878129758674 #
point $-1 45.90976405178331277 3.126662288539545642 26.20470878129758674 #
edge $-1 $465 1 $465 0 $257 $-1 forward 7 unknown #
vertex $-1 $258 $466 #
ellipse-curve $-1 33.95864735209557494 4.25354120484261955 22.09566645018985653 0 -0.7771459697322561366 0.629320380830711068 1 0 0 1 I I #
point $-1 34.95864735209557494 1.563331144269774597 24.27415554461003211 #
edge $-1 $467 1 $467 0 $261 $-1 forward 7 unknown #
vertex $-1 $262 $468 #
ellipse-curve $-1 41.1293173719082148 4.25354120484261955 22.09566645018985653 0 -0.7771459697322561366 0.629320380830711068 1 0 0 1 I I #
point $-1 42.1293173719082148 1.563331144269774597 24.27415554461003211 #
plane-surface $-1 50.79134495071260602 58.4620517478895394 13.10235439064879337 0 -1 0 0 0 -1 forward_v I I I I #
coedge $-1 $469 $393 $281 $402 forward $266 $-1 #
coedge $-1 $277 $268 $269 $392 reversed $172 $-1 #
coedge $-1 $393 $469 $268 $390 reversed $266 $-1 #
edge $-1 $397 -13.10235439064879337 $470 13.10235439064879337 $389 $471 forward 7 unknown #
coedge $-1 $270 $269 $469 $472 forward $104 $-1 #
edge $-1 $279 -50.79134495071260602 $470 50.79134495071260602 $388 $473 forward 7 unknown #
coedge $-1 $387 $389 $271 $394 reversed $266 $-1 #
edge $-1 $395 -29.2310258739447697 $397 29.2310258739447697 $393 $474 forward 7 unknown #
vertex $-1 $272 $475 #
straight-curve $-1 50.79134495071260602 58.4620517478895394 26.20470878129758674 -1 0 0 I I #
vertex $-1 $394 $476 #
straight-curve $-1 50.79134495071260602 0 26.20470878129758674 1 0 0 I I #
point $-1 101.582689901425212 0 26.20470878129758674 #
straight-curve $-1 101.582689901425212 0 13.10235439064879337 0 0 -1 I I #
point $-1 101.582689901425212 0 0 #
edge $-1 $395 -13.10235439064879337 $403 13.10235439064879337 $281 $477 forward 7 unknown #
vertex $-1 $282 $478 #
straight-curve $-1 50.79134495071260602 58.4620517478895394 0 1 0 0 I I #
plane-surface $-1 50.79134495071260602 58.4620517478895394 13.10235439064879337 0 -1 0 0 0 -1 forward_v I I I I #
coedge $-1 $416 $415 $291 $408 forward $286 $-1 #
straight-curve $-1 13.6056396267169788 0 9.359112439118838722 0 0 1 I I #
edge $-1 $411 -29.2310258739447697 $409 29.2310258739447697 $406 $479 forward 7 unknown #
vertex $-1 $292 $480 #
straight-curve $-1 28.79708238203554771 0 3.679687431619141691 1 0 0 I I #
vertex $-1 $294 $481 #
straight-curve $-1 28.79708238203554771 58.4620517478895394 3.679687431619141691 -1 0 0 I I #
point $-1 13.6056396267169788 58.4620517478895394 3.679687431619141691 #
point $-1 13.6056396267169788 0 3.679687431619141691 #
coedge $-1 $406 $298 $301 $418 forward $286 $-1 #
coedge $-1 $298 $406 $305 $420 reversed $286 $-1 #
straight-curve $-1 0 29.2310258739447697 7.552053543558624682 0 1 0 I I #
edge $-1 $303 5.550300847090168688 $411 9.422666959029651679 $301 $482 forward 7 unknown #
point $-1 0 58.4620517478895394 7.552053543558624682 #
edge $-1 $306 5.550300847090168688 $409 9.422666959029651679 $416 $483 forward 7 unknown #
point $-1 0 0 7.552053543558624682 #
straight-curve $-1 13.6056396267169788 58.4620517478895394 9.359112439118838722 0 0 -1 I I #
plane-surface $-1 50.79134495071260602 0 13.10235439064879337 0 1 0 0 0 1 forward_v I I I I #
coedge $-1 $425 $317 $438 $484 forward $312 $-1 #
coedge $-1 $428 $424 $314 $426 reversed $312 $-1 #
edge $-1 $434 -29.2310258739447697 $440 29.2310258739447697 $425 $485 forward 7 unknown #
edge $-1 $329 -4.896990458423147174 $429 4.896990458423147174 $327 $486 forward 7 unknown #
coedge $-1 $317 $425 $319 $432 reversed $312 $-1 #
vertex $-1 $318 $487 #
vertex $-1 $318 $488 #
straight-curve $-1 111.3766708182715064 29.2310258739447697 9.920908233969949919 0 1 0 I I #
edge $-1 $430 -3.811866639320532713 $434 3.811866639320532713 $428 $489 forward 7 unknown #
straight-curve $-1 106.4796803598483592 58.4620517478895394 9.920908233969949919 -1 0 0 I I #
vertex $-1 $426 $490 #
straight-curve $-1 106.4796803598483592 58.4620517478895394 2.297174955328884494 1 0 0 I I #
point $-1 101.582689901425212 58.4620517478895394 9.920908233969949919 #
straight-curve $-1 101.582689901425212 29.2310258739447697 9.920908233969949919 0 1 0 I I #
coedge $-1 $327 $326 $424 $484 reversed $328 $-1 #
point $-1 101.582689901425212 0 9.920908233969949919 #
vertex $-1 $484 $491 #
straight-curve $-1 106.4796803598483592 0 2.297174955328884494 -1 0 0 I I #
edge $-1 $443 46.19907206435000546 $446 50.06017853772510762 $335 $492 forward 7 unknown #
vertex $-1 $349 $493 #
straight-curve $-1 45.90976405178331277 64.92314750158094228 26.20470878129758319 0 1 0 I I #
edge $-1 $446 -1.742100395426064097 $346 14.98946298413676459 $345 $494 forward 7 unknown #
vertex $-1 $445 $495 #
straight-curve $-1 45.90976405178331277 21.67069107776296377 67.77715020607342922 0 -0.629320380830711068 0.7771459697322561366 I I #
point $-1 45.90976405178331277 55.33538945934999731 26.20470878129758319 #
point $-1 29.17820067222048408 58.4620517478895465 22.34360230792248103 #
straight-curve $-1 50.79134495071260602 58.4620517478895394 26.20470878129758674 -1 0 0 I I #
vertex $-1 $352 $496 #
point $-1 34.95864735209557494 54.20851054304692695 22.09566645018985653 #
vertex $-1 $356 $497 #
point $-1 42.1293173719082148 54.20851054304692695 22.09566645018985653 #
coedge $-1 $371 $370 $363 $456 forward $360 $-1 #
edge $-1 $457 23.48229811527452071 $460 27.34340458864961931 $455 $498 forward 7 unknown #
vertex $-1 $375 $499 #
straight-curve $-1 29.17820067222048408 -24.85677608875469602 26.20470878129758319 0 -1 0 I I #
edge $-1 $460 -14.98946298413676459 $372 1.742100395426064097 $371 $500 forward 7 unknown #
vertex $-1 $459 $501 #
straight-curve $-1 29.17820067222048408 -3.552713678800500929e-15 22.34360230792248103 0 0.629320380830711068 0.7771459697322561366 I I #
point $-1 29.17820067222048408 3.126662288539545642 26.20470878129758674 #
point $-1 45.90976405178331277 0 22.34360230792248814 #
straight-curve $-1 50.79134495071260602 0 26.20470878129758674 1 0 0 I I #
vertex $-1 $378 $502 #
point $-1 34.95864735209557494 4.25354120484261955 22.09566645018985653 #
vertex $-1 $382 $503 #
point $-1 42.1293173719082148 4.25354120484261955 22.09566645018985653 #
coedge $-1 $389 $387 $391 $472 reversed $266 $-1 #
vertex $-1 $472 $504 #
straight-curve $-1 0 0 13.10235439064879337 0 0 -1 I I #
edge $-1 $470 -29.2310258739447697 $403 29.2310258739447697 $469 $505 forward 7 unknown #
straight-curve $-1 50.79134495071260602 0 0 -1 0 0 I I #
straight-curve $-1 0 29.2310258739447697 26.20470878129758674 0 -1 0 I I #
point $-1 0 58.4620517478895394 26.20470878129758674 #
point $-1 0 0 26.20470878129758674 #
straight-curve $-1 0 58.4620517478895394 13.10235439064879337 0 0 -1 I I #
point $-1 0 58.4620517478895394 0 #
straight-curve $-1 0 29.2310258739447697 3.679687431619141691 0 -1 0 I I #
point $-1 0 0 3.679687431619141691 #
point $-1 0 58.4620517478895394 3.679687431619141691 #
straight-curve $-1 0 58.4620517478895394 13.10235439064879337 0 0 -1 I I #
straight-curve $-1 0 0 13.10235439064879337 0 0 -1 I I #
edge $-1 $429 -3.811866639320532713 $440 3.811866639320532713 $424 $506 forward 7 unknown #
straight-curve $-1 111.3766708182715064 29.2310258739447697 2.297174955328884494 0 -1 0 I I #
straight-curve $-1 106.4796803598483592 0 9.920908233969949919 1 0 0 I I #
point $-1 111.3766708182715064 0 9.920908233969949919 #
point $-1 111.3766708182715064 58.4620517478895394 9.920908233969949919 #
straight-curve $-1 111.3766708182715064 58.4620517478895394 6.109041594649417206 0 0 -1 I I #
point $-1 111.3766708182715064 58.4620517478895394 2.297174955328884494 #
point $-1 111.3766708182715064 0 2.297174955328884494 #
straight-curve $-1 45.90976405178331277 58.4620517478895394 72.40378084564758865 0 0 -1 I I #
point $-1 45.90976405178331277 58.4620517478895394 26.20470878129758674 #
straight-curve $-1 44.16766365635724867 58.4620517478895394 22.34360230792248103 -1 0 0 I I #
point $-1 45.90976405178331277 58.4620517478895465 22.34360230792248103 #
point $-1 33.95864735209557494 53.43136457331466715 21.46634606935914391 #
point $-1 41.1293173719082148 53.43136457331466715 21.46634606935914391 #
straight-curve $-1 29.17820067222048408 -3.552713678800500929e-15 49.68700689657210745 0 0 -1 I I #
point $-1 29.17820067222048408 0 26.20470878129758674 #
straight-curve $-1 44.16766365635724867 0 22.34360230792248814 1 0 0 I I #
point $-1 29.17820067222048408 0 22.34360230792248814 #
point $-1 33.95864735209557494 5.030687174574872245 21.46634606935914391 #
point $-1 41.1293173719082148 5.030687174574872245 21.46634606935914391 #
point $-1 0 0 0 #
straight-curve $-1 0 29.2310258739447697 0 0 1 0 I I #
straight-curve $-1 111.3766708182715064 0 6.109041594649417206 0 0 -1 I I #
End-of-ACIS-data 