500 0 18 0           
7 Unknown 11 ACIS 5.0 NT 24 Thu Mar 25 16:13:11 1999 
-1 9.9999999999999995e-007 1e-010 
body $-1 $18 $-1 $19 #
body $-1 $20 $-1 $21 #
body $-1 $22 $-1 $23 #
body $-1 $24 $-1 $25 #
body $-1 $26 $-1 $27 #
body $-1 $28 $-1 $29 #
body $-1 $30 $-1 $31 #
body $-1 $32 $-1 $33 #
body $-1 $34 $-1 $35 #
body $-1 $36 $-1 $37 #
body $-1 $38 $-1 $39 #
body $-1 $40 $-1 $41 #
body $-1 $42 $-1 $43 #
body $-1 $44 $-1 $45 #
body $-1 $46 $-1 $47 #
body $-1 $48 $-1 $49 #
body $-1 $50 $-1 $51 #
body $-1 $52 $-1 $53 #
lump $-1 $-1 $54 $0 #
transform $-1 1 0 0 0 1 0 0 0 1 45.995056001464889 25.07598740871514 6.7570552942060713 1 rotate no_reflect no_shear #
lump $-1 $-1 $55 $1 #
transform $-1 1 0 0 0 1 0 0 0 1 45.995056001464889 25.07598740871514 6.7570552942060713 1 rotate no_reflect no_shear #
lump $-1 $-1 $56 $2 #
transform $-1 1 0 0 0 1 0 0 0 1 45.995056001464889 25.07598740871514 6.7570552942060713 1 rotate no_reflect no_shear #
lump $-1 $-1 $57 $3 #
transform $-1 1 0 0 0 1 0 0 0 1 45.995056001464889 25.07598740871514 6.7570552942060713 1 rotate no_reflect no_shear #
lump $-1 $-1 $58 $4 #
transform $-1 1 0 0 0 1 0 0 0 1 45.995056001464889 25.07598740871514 6.7570552942060713 1 rotate no_reflect no_shear #
lump $-1 $-1 $59 $5 #
transform $-1 1 0 0 0 1 0 0 0 1 45.995056001464889 25.07598740871514 6.7570552942060713 1 rotate no_reflect no_shear #
lump $-1 $-1 $60 $6 #
transform $-1 1 0 0 0 1 0 0 0 1 45.995056001464889 25.07598740871514 6.7570552942060713 1 rotate no_reflect no_shear #
lump $-1 $-1 $61 $7 #
transform $-1 1 0 0 0 1 0 0 0 1 45.995056001464889 25.07598740871514 6.7570552942060713 1 rotate no_reflect no_shear #
lump $-1 $-1 $62 $8 #
transform $-1 1 0 0 0 1 0 0 0 1 45.995056001464889 25.07598740871514 6.7570552942060713 1 rotate no_reflect no_shear #
lump $-1 $-1 $63 $9 #
transform $-1 1 0 0 0 1 0 0 0 1 45.995056001464889 25.07598740871514 6.7570552942060713 1 rotate no_reflect no_shear #
lump $-1 $-1 $64 $10 #
transform $-1 1 0 0 0 1 0 0 0 1 45.995056001464889 25.07598740871514 6.7570552942060713 1 rotate no_reflect no_shear #
lump $-1 $-1 $65 $11 #
transform $-1 1 0 0 0 1 0 0 0 1 45.995056001464889 25.07598740871514 6.7570552942060713 1 rotate no_reflect no_shear #
lump $-1 $-1 $66 $12 #
transform $-1 1 0 0 0 1 0 0 0 1 45.995056001464889 25.07598740871514 6.7570552942060713 1 rotate no_reflect no_shear #
lump $-1 $-1 $67 $13 #
transform $-1 1 0 0 0 1 0 0 0 1 45.995056001464889 25.07598740871514 6.7570552942060713 1 rotate no_reflect no_shear #
lump $-1 $-1 $68 $14 #
transform $-1 1 0 0 0 1 0 0 0 1 45.995056001464889 25.07598740871514 6.7570552942060713 1 rotate no_reflect no_shear #
lump $-1 $-1 $69 $15 #
transform $-1 1 0 0 0 1 0 0 0 1 45.995056001464889 25.07598740871514 6.7570552942060713 1 rotate no_reflect no_shear #
lump $-1 $-1 $70 $16 #
transform $-1 1 0 0 0 1 0 0 0 1 45.995056001464889 25.07598740871514 6.7570552942060713 1 rotate no_reflect no_shear #
lump $-1 $-1 $71 $17 #
transform $-1 1 0 0 0 1 0 0 0 1 45.995056001464889 25.07598740871514 6.7570552942060713 1 rotate no_reflect no_shear #
shell $-1 $-1 $-1 $72 $-1 $18 #
shell $-1 $-1 $-1 $73 $-1 $20 #
shell $-1 $-1 $-1 $74 $-1 $22 #
shell $-1 $-1 $-1 $75 $-1 $24 #
shell $-1 $-1 $-1 $76 $-1 $26 #
shell $-1 $-1 $-1 $77 $-1 $28 #
shell $-1 $-1 $-1 $78 $-1 $30 #
shell $-1 $-1 $-1 $79 $-1 $32 #
shell $-1 $-1 $-1 $80 $-1 $34 #
shell $-1 $-1 $-1 $81 $-1 $36 #
shell $-1 $-1 $-1 $82 $-1 $38 #
shell $-1 $-1 $-1 $83 $-1 $40 #
shell $-1 $-1 $-1 $84 $-1 $42 #
shell $-1 $-1 $-1 $85 $-1 $44 #
shell $-1 $-1 $-1 $86 $-1 $46 #
shell $-1 $-1 $-1 $87 $-1 $48 #
shell $-1 $-1 $-1 $88 $-1 $50 #
shell $-1 $-1 $-1 $89 $-1 $52 #
face $-1 $90 $91 $54 $-1 $92 forward single #
face $-1 $93 $94 $55 $-1 $95 forward single #
face $-1 $96 $97 $56 $-1 $98 reversed single #
face $-1 $99 $100 $57 $-1 $101 forward single #
face $-1 $102 $103 $58 $-1 $104 forward single #
face $-1 $105 $106 $59 $-1 $107 forward single #
face $-1 $108 $109 $60 $-1 $110 reversed single #
face $-1 $111 $112 $61 $-1 $113 forward single #
face $-1 $114 $115 $62 $-1 $116 forward single #
face $-1 $117 $118 $63 $-1 $119 forward single #
face $-1 $120 $121 $64 $-1 $122 reversed single #
face $-1 $123 $124 $65 $-1 $125 forward single #
face $-1 $126 $127 $66 $-1 $128 forward single #
face $-1 $129 $130 $67 $-1 $131 forward single #
face $-1 $132 $133 $68 $-1 $134 reversed single #
face $-1 $135 $136 $69 $-1 $137 forward single #
face $-1 $138 $139 $70 $-1 $140 forward single #
face $-1 $141 $142 $71 $-1 $143 forward single #
face $-1 $144 $145 $54 $-1 $146 reversed single #
loop $-1 $-1 $147 $72 #
plane-surface $-1 0 0 6.7570552942060713 0 0 1 1 0 0 forward_v I I I I #
face $-1 $148 $149 $55 $-1 $150 reversed single #
loop $-1 $-1 $151 $73 #
plane-surface $-1 0 -25.07598740871514 0 0 1 0 0 0 1 forward_v I I I I #
face $-1 $152 $153 $56 $-1 $154 reversed single #
loop $-1 $-1 $155 $74 #
plane-surface $-1 73.043051518275007 -8.1654920585079225 129.57851204351607 0 -1 0 -0.83867057594974714 0 -0.54463902268945019 forward_v I I I I #
face $-1 $156 $157 $57 $-1 $158 forward single #
loop $-1 $159 $160 $75 #
cone-surface $-1 43.946920802427393 -13.231572720892686 4.1463016371666805 -0.83867057594974714 0 -0.54463902268945019 0.2723195113447251 0 -0.41933528797487357 1 I I 0 1 0.5 forward I I I I #
face $-1 $161 $162 $58 $-1 $163 forward single #
loop $-1 $164 $165 $76 #
cone-surface $-1 43.946920802427393 -11.3317924724984 4.1463016371666805 -0.83867057594974714 0 -0.54463902268945019 0.2723195113447251 0 -0.41933528797487357 1 I I 0 1 0.5 forward I I I I #
face $-1 $166 $167 $59 $-1 $168 forward single #
loop $-1 $169 $170 $77 #
cone-surface $-1 43.946920802427393 -9.4320122241041133 4.1463016371666805 -0.83867057594974714 0 -0.54463902268945019 0.2723195113447251 0 -0.41933528797487357 1 I I 0 1 0.5 forward I I I I #
face $-1 $171 $172 $60 $-1 $173 reversed single #
loop $-1 $-1 $174 $78 #
plane-surface $-1 73.043051518275007 2.2256755781138757 129.57851204351607 0 -1 0 -0.83867057594974714 0 -0.54463902268945019 forward_v I I I I #
face $-1 $175 $176 $61 $-1 $177 forward single #
loop $-1 $178 $179 $79 #
cone-surface $-1 43.946920802427393 -2.8404050842708877 4.1463016371666805 -0.83867057594974714 0 -0.54463902268945019 0.2723195113447251 0 -0.41933528797487357 1 I I 0 1 0.5 forward I I I I #
face $-1 $180 $181 $62 $-1 $182 forward single #
loop $-1 $183 $184 $80 #
cone-surface $-1 43.946920802427393 -0.9406248358766014 4.1463016371666805 -0.83867057594974714 0 -0.54463902268945019 0.2723195113447251 0 -0.41933528797487357 1 I I 0 1 0.5 forward I I I I #
face $-1 $185 $186 $63 $-1 $187 forward single #
loop $-1 $188 $189 $81 #
cone-surface $-1 43.946920802427393 0.95915541251768488 4.1463016371666805 -0.83867057594974714 0 -0.54463902268945019 0.2723195113447251 0 -0.41933528797487357 1 I I 0 1 0.5 forward I I I I #
face $-1 $190 $191 $64 $-1 $192 reversed single #
loop $-1 $-1 $193 $82 #
plane-surface $-1 73.043051518275007 12.61684321473567 129.57851204351607 0 -1 0 -0.83867057594974714 0 -0.54463902268945019 forward_v I I I I #
face $-1 $194 $195 $65 $-1 $196 forward single #
loop $-1 $197 $198 $83 #
cone-surface $-1 43.946920802427393 7.550762552350907 4.1463016371666805 -0.83867057594974714 0 -0.54463902268945019 0.2723195113447251 0 -0.41933528797487357 1 I I 0 1 0.5 forward I I I I #
face $-1 $199 $200 $66 $-1 $201 forward single #
loop $-1 $202 $203 $84 #
cone-surface $-1 43.946920802427393 9.4505428007451933 4.1463016371666805 -0.83867057594974714 0 -0.54463902268945019 0.2723195113447251 0 -0.41933528797487357 1 I I 0 1 0.5 forward I I I I #
face $-1 $204 $205 $67 $-1 $206 forward single #
loop $-1 $207 $208 $85 #
cone-surface $-1 43.946920802427393 11.35032304913948 4.1463016371666805 -0.83867057594974714 0 -0.54463902268945019 0.2723195113447251 0 -0.41933528797487357 1 I I 0 1 0.5 forward I I I I #
face $-1 $209 $210 $68 $-1 $211 reversed single #
loop $-1 $-1 $212 $86 #
plane-surface $-1 73.043051518275007 23.008010851357465 129.57851204351607 0 -1 0 -0.83867057594974714 0 -0.54463902268945019 forward_v I I I I #
face $-1 $213 $214 $69 $-1 $215 forward single #
loop $-1 $216 $217 $87 #
cone-surface $-1 43.946920802427393 17.941930188972702 4.1463016371666805 -0.83867057594974714 0 -0.54463902268945019 0.2723195113447251 0 -0.41933528797487357 1 I I 0 1 0.5 forward I I I I #
face $-1 $218 $219 $70 $-1 $220 forward single #
loop $-1 $221 $222 $88 #
cone-surface $-1 43.946920802427393 19.841710437366988 4.1463016371666805 -0.83867057594974714 0 -0.54463902268945019 0.2723195113447251 0 -0.41933528797487357 1 I I 0 1 0.5 forward I I I I #
face $-1 $223 $224 $71 $-1 $225 forward single #
loop $-1 $226 $227 $89 #
cone-surface $-1 43.946920802427393 21.741490685761274 4.1463016371666805 -0.83867057594974714 0 -0.54463902268945019 0.2723195113447251 0 -0.41933528797487357 1 I I 0 1 0.5 forward I I I I #
face $-1 $228 $229 $54 $-1 $230 reversed single #
loop $-1 $-1 $231 $90 #
plane-surface $-1 0 0 -6.7570552942060713 0 0 1 1 0 0 forward_v I I I I #
coedge $-1 $232 $233 $234 $235 forward $91 $-1 #
face $-1 $236 $237 $55 $-1 $238 reversed single #
loop $-1 $-1 $239 $93 #
plane-surface $-1 0 0 -6.7570552942060713 0 0 1 1 0 0 forward_v I I I I #
coedge $-1 $240 $241 $242 $243 forward $94 $-1 #
face $-1 $244 $245 $56 $-1 $246 reversed single #
loop $-1 $-1 $247 $96 #
plane-surface $-1 -4.1063486969038507 -11.3317924724984 79.477107345147346 0.83867057594974714 0 0.54463902268945019 0.54463902268945019 0 -0.83867057594974714 forward_v I I I I #
coedge $-1 $248 $249 $250 $251 reversed $97 $-1 #
face $-1 $-1 $252 $57 $-1 $253 forward single #
loop $-1 $254 $255 $99 #
cone-surface $-1 43.127344078513488 -13.231572720892686 3.6140623065737403 -0.83867057594974714 0 -0.54463902268945019 0.13615975567236255 0 -0.20966764398743679 1 I I -0.70710678118654746 0.70710678118654746 0.25 forward I I I I #
loop $-1 $-1 $256 $75 #
coedge $-1 $160 $160 $257 $258 reversed $100 $-1 #
face $-1 $-1 $259 $58 $-1 $260 forward single #
loop $-1 $261 $262 $102 #
cone-surface $-1 43.127344078513488 -11.3317924724984 3.6140623065737403 -0.83867057594974714 0 -0.54463902268945019 0.13615975567236255 0 -0.20966764398743679 1 I I -0.70710678118654746 0.70710678118654746 0.25 forward I I I I #
loop $-1 $-1 $263 $76 #
coedge $-1 $165 $165 $264 $265 reversed $103 $-1 #
face $-1 $-1 $266 $59 $-1 $267 forward single #
loop $-1 $268 $269 $105 #
cone-surface $-1 43.127344078513488 -9.4320122241041133 3.6140623065737403 -0.83867057594974714 0 -0.54463902268945019 0.13615975567236255 0 -0.20966764398743679 1 I I -0.70710678118654746 0.70710678118654746 0.25 forward I I I I #
loop $-1 $-1 $270 $77 #
coedge $-1 $170 $170 $271 $272 reversed $106 $-1 #
face $-1 $273 $274 $60 $-1 $275 reversed single #
loop $-1 $-1 $276 $108 #
plane-surface $-1 -4.1063486969038507 -0.9406248358766014 79.477107345147346 0.83867057594974714 0 0.54463902268945019 0.54463902268945019 0 -0.83867057594974714 forward_v I I I I #
coedge $-1 $277 $278 $279 $280 reversed $109 $-1 #
face $-1 $-1 $281 $61 $-1 $282 forward single #
loop $-1 $283 $284 $111 #
cone-surface $-1 43.127344078513488 -2.8404050842708877 3.6140623065737403 -0.83867057594974714 0 -0.54463902268945019 0.13615975567236255 0 -0.20966764398743679 1 I I -0.70710678118654746 0.70710678118654746 0.25 forward I I I I #
loop $-1 $-1 $285 $79 #
coedge $-1 $179 $179 $286 $287 reversed $112 $-1 #
face $-1 $-1 $288 $62 $-1 $289 forward single #
loop $-1 $290 $291 $114 #
cone-surface $-1 43.127344078513488 -0.9406248358766014 3.6140623065737403 -0.83867057594974714 0 -0.54463902268945019 0.13615975567236255 0 -0.20966764398743679 1 I I -0.70710678118654746 0.70710678118654746 0.25 forward I I I I #
loop $-1 $-1 $292 $80 #
coedge $-1 $184 $184 $293 $294 reversed $115 $-1 #
face $-1 $-1 $295 $63 $-1 $296 forward single #
loop $-1 $297 $298 $117 #
cone-surface $-1 43.127344078513488 0.95915541251768488 3.6140623065737403 -0.83867057594974714 0 -0.54463902268945019 0.13615975567236255 0 -0.20966764398743679 1 I I -0.70710678118654746 0.70710678118654746 0.25 forward I I I I #
loop $-1 $-1 $299 $81 #
coedge $-1 $189 $189 $300 $301 reversed $118 $-1 #
face $-1 $302 $303 $64 $-1 $304 reversed single #
loop $-1 $-1 $305 $120 #
plane-surface $-1 -4.1063486969038507 9.4505428007451933 79.477107345147346 0.83867057594974714 0 0.54463902268945019 0.54463902268945019 0 -0.83867057594974714 forward_v I I I I #
coedge $-1 $306 $307 $308 $309 reversed $121 $-1 #
face $-1 $-1 $310 $65 $-1 $311 forward single #
loop $-1 $312 $313 $123 #
cone-surface $-1 43.127344078513488 7.550762552350907 3.6140623065737403 -0.83867057594974714 0 -0.54463902268945019 0.13615975567236255 0 -0.20966764398743679 1 I I -0.70710678118654746 0.70710678118654746 0.25 forward I I I I #
loop $-1 $-1 $314 $83 #
coedge $-1 $198 $198 $315 $316 reversed $124 $-1 #
face $-1 $-1 $317 $66 $-1 $318 forward single #
loop $-1 $319 $320 $126 #
cone-surface $-1 43.127344078513488 9.4505428007451933 3.6140623065737403 -0.83867057594974714 0 -0.54463902268945019 0.13615975567236255 0 -0.20966764398743679 1 I I -0.70710678118654746 0.70710678118654746 0.25 forward I I I I #
loop $-1 $-1 $321 $84 #
coedge $-1 $203 $203 $322 $323 reversed $127 $-1 #
face $-1 $-1 $324 $67 $-1 $325 forward single #
loop $-1 $326 $327 $129 #
cone-surface $-1 43.127344078513488 11.35032304913948 3.6140623065737403 -0.83867057594974714 0 -0.54463902268945019 0.13615975567236255 0 -0.20966764398743679 1 I I -0.70710678118654746 0.70710678118654746 0.25 forward I I I I #
loop $-1 $-1 $328 $85 #
coedge $-1 $208 $208 $329 $330 reversed $130 $-1 #
face $-1 $331 $332 $68 $-1 $333 reversed single #
loop $-1 $-1 $334 $132 #
plane-surface $-1 -4.1063486969038507 19.841710437366988 79.477107345147346 0.83867057594974714 0 0.54463902268945019 0.54463902268945019 0 -0.83867057594974714 forward_v I I I I #
coedge $-1 $335 $336 $337 $338 reversed $133 $-1 #
face $-1 $-1 $339 $69 $-1 $340 forward single #
loop $-1 $341 $342 $135 #
cone-surface $-1 43.127344078513488 17.941930188972702 3.6140623065737403 -0.83867057594974714 0 -0.54463902268945019 0.13615975567236255 0 -0.20966764398743679 1 I I -0.70710678118654746 0.70710678118654746 0.25 forward I I I I #
loop $-1 $-1 $343 $87 #
coedge $-1 $217 $217 $344 $345 reversed $136 $-1 #
face $-1 $-1 $346 $70 $-1 $347 forward single #
loop $-1 $348 $349 $138 #
cone-surface $-1 43.127344078513488 19.841710437366988 3.6140623065737403 -0.83867057594974714 0 -0.54463902268945019 0.13615975567236255 0 -0.20966764398743679 1 I I -0.70710678118654746 0.70710678118654746 0.25 forward I I I I #
loop $-1 $-1 $350 $88 #
coedge $-1 $222 $222 $351 $352 reversed $139 $-1 #
face $-1 $-1 $353 $71 $-1 $354 forward single #
loop $-1 $355 $356 $141 #
cone-surface $-1 43.127344078513488 21.741490685761274 3.6140623065737403 -0.83867057594974714 0 -0.54463902268945019 0.13615975567236255 0 -0.20966764398743679 1 I I -0.70710678118654746 0.70710678118654746 0.25 forward I I I I #
loop $-1 $-1 $357 $89 #
coedge $-1 $227 $227 $358 $359 reversed $142 $-1 #
face $-1 $360 $361 $54 $-1 $362 reversed single #
loop $-1 $-1 $363 $144 #
plane-surface $-1 0 -25.07598740871514 0 0 1 0 0 0 1 forward_v I I I I #
coedge $-1 $364 $365 $366 $367 forward $145 $-1 #
coedge $-1 $368 $147 $369 $370 forward $91 $-1 #
coedge $-1 $147 $368 $371 $372 forward $91 $-1 #
coedge $-1 $373 $374 $147 $235 reversed $375 $-1 #
edge $-1 $376 -25.07598740871514 $377 25.07598740871514 $234 $378 forward 7 unknown #
face $-1 $379 $380 $55 $-1 $381 reversed single #
loop $-1 $-1 $382 $148 #
plane-surface $-1 -33.992730076505431 -33.585905373583728 0 0 1 0 0 0 1 forward_v I I I I #
coedge $-1 $383 $384 $241 $385 forward $149 $-1 #
coedge $-1 $386 $151 $387 $388 reversed $94 $-1 #
coedge $-1 $151 $386 $239 $385 reversed $94 $-1 #
coedge $-1 $389 $390 $151 $243 reversed $380 $-1 #
edge $-1 $391 -6.7570552942060713 $392 6.7570552942060713 $242 $393 forward 7 unknown #
face $-1 $394 $395 $56 $-1 $396 forward single #
loop $-1 $-1 $397 $152 #
plane-surface $-1 73.043051518275007 -14.498092886488877 129.57851204351607 0 1 0 0.83867057594974714 0 0.54463902268945019 forward_v I I I I #
coedge $-1 $398 $399 $400 $401 reversed $153 $-1 #
coedge $-1 $249 $155 $402 $403 reversed $97 $-1 #
coedge $-1 $155 $248 $398 $404 reversed $97 $-1 #
coedge $-1 $400 $405 $155 $251 forward $395 $-1 #
edge $-1 $406 -9.4735302423273851 $407 -6.5970780041052777 $250 $408 forward 7 unknown #
loop $-1 $-1 $257 $156 #
plane-surface $-1 -4.1063486969038507 -11.3317924724984 79.477107345147346 0.83867057594974714 0 0.54463902268945019 0.54463902268945019 0 -0.83867057594974714 forward_v I I I I #
loop $-1 $-1 $409 $99 #
coedge $-1 $255 $255 $256 $410 reversed $157 $-1 #
coedge $-1 $256 $256 $255 $410 forward $159 $-1 #
coedge $-1 $257 $257 $160 $258 forward $252 $-1 #
edge $-1 $411 0 $411 6.2831853071796004 $257 $412 forward 7 unknown #
loop $-1 $-1 $264 $161 #
plane-surface $-1 -4.1063486969038507 -11.3317924724984 79.477107345147346 0.83867057594974714 0 0.54463902268945019 0.54463902268945019 0 -0.83867057594974714 forward_v I I I I #
loop $-1 $-1 $413 $102 #
coedge $-1 $262 $262 $263 $414 reversed $162 $-1 #
coedge $-1 $263 $263 $262 $414 forward $164 $-1 #
coedge $-1 $264 $264 $165 $265 forward $259 $-1 #
edge $-1 $415 0 $415 6.2831853071796004 $264 $416 forward 7 unknown #
loop $-1 $-1 $271 $166 #
plane-surface $-1 -4.1063486969038507 -11.3317924724984 79.477107345147346 0.83867057594974714 0 0.54463902268945019 0.54463902268945019 0 -0.83867057594974714 forward_v I I I I #
loop $-1 $-1 $417 $105 #
coedge $-1 $269 $269 $270 $418 reversed $167 $-1 #
coedge $-1 $270 $270 $269 $418 forward $169 $-1 #
coedge $-1 $271 $271 $170 $272 forward $266 $-1 #
edge $-1 $419 0 $419 6.2831853071796004 $271 $420 forward 7 unknown #
face $-1 $421 $422 $60 $-1 $423 reversed single #
loop $-1 $-1 $424 $171 #
plane-surface $-1 73.043051518275007 -4.1069252498670785 129.57851204351607 0 1 0 0.83867057594974714 0 0.54463902268945019 forward_v I I I I #
coedge $-1 $425 $426 $427 $428 reversed $172 $-1 #
coedge $-1 $278 $174 $429 $430 reversed $109 $-1 #
coedge $-1 $174 $277 $425 $431 reversed $109 $-1 #
coedge $-1 $427 $432 $174 $280 forward $433 $-1 #
edge $-1 $434 -9.4735302423273851 $435 -6.5970780041052777 $279 $436 forward 7 unknown #
loop $-1 $-1 $286 $175 #
plane-surface $-1 -4.1063486969038507 -0.9406248358766014 79.477107345147346 0.83867057594974714 0 0.54463902268945019 0.54463902268945019 0 -0.83867057594974714 forward_v I I I I #
loop $-1 $-1 $437 $111 #
coedge $-1 $284 $284 $285 $438 reversed $176 $-1 #
coedge $-1 $285 $285 $284 $438 forward $178 $-1 #
coedge $-1 $286 $286 $179 $287 forward $281 $-1 #
edge $-1 $439 0 $439 6.2831853071796004 $286 $440 forward 7 unknown #
loop $-1 $-1 $293 $180 #
plane-surface $-1 -4.1063486969038507 -0.9406248358766014 79.477107345147346 0.83867057594974714 0 0.54463902268945019 0.54463902268945019 0 -0.83867057594974714 forward_v I I I I #
loop $-1 $-1 $441 $114 #
coedge $-1 $291 $291 $292 $442 reversed $181 $-1 #
coedge $-1 $292 $292 $291 $442 forward $183 $-1 #
coedge $-1 $293 $293 $184 $294 forward $288 $-1 #
edge $-1 $443 0 $443 6.2831853071796004 $293 $444 forward 7 unknown #
loop $-1 $-1 $300 $185 #
plane-surface $-1 -4.1063486969038507 -0.9406248358766014 79.477107345147346 0.83867057594974714 0 0.54463902268945019 0.54463902268945019 0 -0.83867057594974714 forward_v I I I I #
loop $-1 $-1 $445 $117 #
coedge $-1 $298 $298 $299 $446 reversed $186 $-1 #
coedge $-1 $299 $299 $298 $446 forward $188 $-1 #
coedge $-1 $300 $300 $189 $301 forward $295 $-1 #
edge $-1 $447 0 $447 6.2831853071796004 $300 $448 forward 7 unknown #
face $-1 $449 $450 $64 $-1 $451 reversed single #
loop $-1 $-1 $452 $190 #
plane-surface $-1 73.043051518275007 6.2842423867547161 129.57851204351607 0 1 0 0.83867057594974714 0 0.54463902268945019 forward_v I I I I #
coedge $-1 $453 $454 $455 $456 reversed $191 $-1 #
coedge $-1 $307 $193 $457 $458 reversed $121 $-1 #
coedge $-1 $193 $306 $453 $459 reversed $121 $-1 #
coedge $-1 $455 $460 $193 $309 forward $461 $-1 #
edge $-1 $462 -9.4735302423273851 $463 -6.5970780041052777 $308 $464 forward 7 unknown #
loop $-1 $-1 $315 $194 #
plane-surface $-1 -4.1063486969038507 9.4505428007451933 79.477107345147346 0.83867057594974714 0 0.54463902268945019 0.54463902268945019 0 -0.83867057594974714 forward_v I I I I #
loop $-1 $-1 $465 $123 #
coedge $-1 $313 $313 $314 $466 reversed $195 $-1 #
coedge $-1 $314 $314 $313 $466 forward $197 $-1 #
coedge $-1 $315 $315 $198 $316 forward $310 $-1 #
edge $-1 $467 0 $467 6.2831853071796004 $315 $468 forward 7 unknown #
loop $-1 $-1 $322 $199 #
plane-surface $-1 -4.1063486969038507 9.4505428007451933 79.477107345147346 0.83867057594974714 0 0.54463902268945019 0.54463902268945019 0 -0.83867057594974714 forward_v I I I I #
loop $-1 $-1 $469 $126 #
coedge $-1 $320 $320 $321 $470 reversed $200 $-1 #
coedge $-1 $321 $321 $320 $470 forward $202 $-1 #
coedge $-1 $322 $322 $203 $323 forward $317 $-1 #
edge $-1 $471 0 $471 6.2831853071796004 $322 $472 forward 7 unknown #
loop $-1 $-1 $329 $204 #
plane-surface $-1 -4.1063486969038507 9.4505428007451933 79.477107345147346 0.83867057594974714 0 0.54463902268945019 0.54463902268945019 0 -0.83867057594974714 forward_v I I I I #
loop $-1 $-1 $473 $129 #
coedge $-1 $327 $327 $328 $474 reversed $205 $-1 #
coedge $-1 $328 $328 $327 $474 forward $207 $-1 #
coedge $-1 $329 $329 $208 $330 forward $324 $-1 #
edge $-1 $475 0 $475 6.2831853071796004 $329 $476 forward 7 unknown #
face $-1 $477 $478 $68 $-1 $479 reversed single #
loop $-1 $-1 $480 $209 #
plane-surface $-1 73.043051518275007 16.675410023376511 129.57851204351607 0 1 0 0.83867057594974714 0 0.54463902268945019 forward_v I I I I #
coedge $-1 $481 $482 $483 $484 reversed $210 $-1 #
coedge $-1 $336 $212 $485 $486 reversed $133 $-1 #
coedge $-1 $212 $335 $481 $487 reversed $133 $-1 #
coedge $-1 $483 $488 $212 $338 forward $489 $-1 #
edge $-1 $490 -9.4735302423273851 $491 -6.5970780041052777 $337 $492 forward 7 unknown #
loop $-1 $-1 $344 $213 #
plane-surface $-1 -4.1063486969038507 19.841710437366988 79.477107345147346 0.83867057594974714 0 0.54463902268945019 0.54463902268945019 0 -0.83867057594974714 forward_v I I I I #
loop $-1 $-1 $493 $135 #
coedge $-1 $342 $342 $343 $494 reversed $214 $-1 #
coedge $-1 $343 $343 $342 $494 forward $216 $-1 #
coedge $-1 $344 $344 $217 $345 forward $339 $-1 #
edge $-1 $495 0 $495 6.2831853071796004 $344 $496 forward 7 unknown #
loop $-1 $-1 $351 $218 #
plane-surface $-1 -4.1063486969038507 19.841710437366988 79.477107345147346 0.83867057594974714 0 0.54463902268945019 0.54463902268945019 0 -0.83867057594974714 forward_v I I I I #
loop $-1 $-1 $497 $138 #
coedge $-1 $349 $349 $350 $498 reversed $219 $-1 #
coedge $-1 $350 $350 $349 $498 forward $221 $-1 #
coedge $-1 $351 $351 $222 $352 forward $346 $-1 #
edge $-1 $499 0 $499 6.2831853071796004 $351 $500 forward 7 unknown #
loop $-1 $-1 $358 $223 #
plane-surface $-1 -4.1063486969038507 19.841710437366988 79.477107345147346 0.83867057594974714 0 0.54463902268945019 0.54463902268945019 0 -0.83867057594974714 forward_v I I I I #
loop $-1 $-1 $501 $141 #
coedge $-1 $356 $356 $357 $502 reversed $224 $-1 #
coedge $-1 $357 $357 $356 $502 forward $226 $-1 #
coedge $-1 $358 $358 $227 $359 forward $353 $-1 #
edge $-1 $503 0 $503 6.2831853071796004 $358 $504 forward 7 unknown #
face $-1 $505 $506 $54 $-1 $507 reversed single #
loop $-1 $-1 $508 $228 #
plane-surface $-1 -45.995056001464889 0 0 1 0 0 0 0 -1 forward_v I I I I #
coedge $-1 $509 $371 $510 $511 forward $229 $-1 #
coedge $-1 $512 $231 $509 $513 forward $145 $-1 #
coedge $-1 $231 $512 $514 $515 forward $145 $-1 #
coedge $-1 $374 $373 $231 $367 reversed $375 $-1 #
edge $-1 $516 -25.07598740871514 $517 25.07598740871514 $366 $518 forward 7 unknown #
coedge $-1 $233 $232 $519 $520 forward $91 $-1 #
coedge $-1 $521 $522 $232 $370 reversed $506 $-1 #
edge $-1 $377 -45.995056001464889 $523 45.995056001464889 $369 $524 forward 7 unknown #
coedge $-1 $363 $525 $233 $372 reversed $229 $-1 #
edge $-1 $526 -45.995056001464889 $376 45.995056001464889 $371 $527 forward 7 unknown #
coedge $-1 $366 $234 $525 $528 forward $375 $-1 #
coedge $-1 $234 $366 $521 $529 reversed $375 $-1 #
loop $-1 $-1 $373 $505 #
vertex $-1 $235 $530 #
vertex $-1 $235 $531 #
straight-curve $-1 45.995056001464889 0 6.7570552942060713 0 1 0 I I #
face $-1 $532 $533 $55 $-1 $534 reversed single #
loop $-1 $-1 $242 $236 #
plane-surface $-1 -35.504514739958118 -29.330946391149432 0 1 0 0 0 0 -1 forward_v I I I I #
coedge $-1 $535 $536 $537 $538 forward $237 $-1 #
coedge $-1 $539 $239 $540 $541 forward $149 $-1 #
coedge $-1 $239 $539 $389 $542 forward $149 $-1 #
edge $-1 $391 -35.504514739958118 $543 -32.480945413052744 $239 $544 forward 7 unknown #
coedge $-1 $241 $240 $545 $546 forward $94 $-1 #
coedge $-1 $547 $548 $240 $388 forward $549 $-1 #
edge $-1 $550 32.480945413052744 $392 35.504514739958118 $387 $551 forward 7 unknown #
coedge $-1 $537 $242 $384 $542 reversed $380 $-1 #
coedge $-1 $242 $537 $547 $552 reversed $380 $-1 #
vertex $-1 $385 $553 #
vertex $-1 $552 $554 #
straight-curve $-1 -35.504514739958118 -25.07598740871514 0 0 0 1 I I #
face $-1 $-1 $555 $56 $-1 $556 reversed single #
loop $-1 $-1 $250 $244 #
plane-surface $-1 0 0 6.7570552942060713 0 0 1 1 0 0 forward_v I I I I #
coedge $-1 $557 $558 $559 $560 reversed $245 $-1 #
coedge $-1 $561 $247 $249 $404 forward $153 $-1 #
coedge $-1 $247 $561 $557 $562 forward $153 $-1 #
coedge $-1 $559 $250 $247 $401 forward $395 $-1 #
edge $-1 $407 2.4995958222587227 $563 8.8321966502396769 $400 $564 forward 7 unknown #
coedge $-1 $565 $566 $248 $403 forward $555 $-1 #
edge $-1 $567 -62.461548891789562 $406 -58.032200727551967 $402 $568 forward 7 unknown #
edge $-1 $407 86.70871989110853 $567 91.990112002929806 $249 $569 forward 7 unknown #
coedge $-1 $250 $559 $565 $570 forward $395 $-1 #
vertex $-1 $251 $571 #
vertex $-1 $251 $572 #
straight-curve $-1 36.521525759137504 -8.1654920585079225 6.7570552942060687 -1 0 0 I I #
coedge $-1 $409 $409 $-1 $573 reversed $254 $-1 #
edge $-1 $574 0 $574 6.2831853071796004 $255 $575 forward 7 unknown #
vertex $-1 $258 $576 #
ellipse-curve $-1 44.556829882353846 -13.231572720892686 4.5423812120872515 0.83867057594974714 0 0.54463902268945019 0.2723195113447251 0 -0.41933528797487357 1 I I #
coedge $-1 $413 $413 $-1 $577 reversed $261 $-1 #
edge $-1 $578 0 $578 6.2831853071796004 $262 $579 forward 7 unknown #
vertex $-1 $265 $580 #
ellipse-curve $-1 44.556829882353846 -11.3317924724984 4.5423812120872515 0.83867057594974714 0 0.54463902268945019 0.2723195113447251 0 -0.41933528797487357 1 I I #
coedge $-1 $417 $417 $-1 $581 reversed $268 $-1 #
edge $-1 $582 0 $582 6.2831853071796004 $269 $583 forward 7 unknown #
vertex $-1 $272 $584 #
ellipse-curve $-1 44.556829882353846 -9.4320122241041133 4.5423812120872515 0.83867057594974714 0 0.54463902268945019 0.2723195113447251 0 -0.41933528797487357 1 I I #
face $-1 $-1 $433 $60 $-1 $585 forward single #
loop $-1 $-1 $586 $273 #
plane-surface $-1 45.995056001464889 0 0 -1 0 0 0 0 1 forward_v I I I I #
coedge $-1 $587 $588 $589 $590 reversed $274 $-1 #
coedge $-1 $591 $276 $278 $431 forward $172 $-1 #
coedge $-1 $276 $591 $587 $592 forward $172 $-1 #
coedge $-1 $589 $279 $276 $428 forward $433 $-1 #
edge $-1 $435 -2.6959879960521764 $593 3.6366128319287778 $427 $594 forward 7 unknown #
coedge $-1 $595 $596 $277 $430 forward $422 $-1 #
edge $-1 $597 -62.461548891789562 $434 -58.032200727551967 $429 $598 forward 7 unknown #
edge $-1 $435 86.70871989110853 $597 91.990112002929806 $278 $599 forward 7 unknown #
coedge $-1 $279 $589 $595 $600 forward $433 $-1 #
loop $-1 $-1 $589 $421 #
vertex $-1 $430 $601 #
vertex $-1 $280 $602 #
straight-curve $-1 36.521525759137504 2.2256755781138757 6.7570552942060687 -1 0 0 I I #
coedge $-1 $437 $437 $-1 $603 reversed $283 $-1 #
edge $-1 $604 0 $604 6.2831853071796004 $284 $605 forward 7 unknown #
vertex $-1 $287 $606 #
ellipse-curve $-1 44.556829882353846 -2.8404050842708877 4.5423812120872515 0.83867057594974714 0 0.54463902268945019 0.2723195113447251 0 -0.41933528797487357 1 I I #
coedge $-1 $441 $441 $-1 $607 reversed $290 $-1 #
edge $-1 $608 0 $608 6.2831853071796004 $291 $609 forward 7 unknown #
vertex $-1 $294 $610 #
ellipse-curve $-1 44.556829882353846 -0.9406248358766014 4.5423812120872515 0.83867057594974714 0 0.54463902268945019 0.2723195113447251 0 -0.41933528797487357 1 I I #
coedge $-1 $445 $445 $-1 $611 reversed $297 $-1 #
edge $-1 $612 0 $612 6.2831853071796004 $298 $613 forward 7 unknown #
vertex $-1 $301 $614 #
ellipse-curve $-1 44.556829882353846 0.95915541251768488 4.5423812120872515 0.83867057594974714 0 0.54463902268945019 0.2723195113447251 0 -0.41933528797487357 1 I I #
face $-1 $-1 $461 $64 $-1 $615 forward single #
loop $-1 $-1 $616 $302 #
plane-surface $-1 45.995056001464889 0 0 -1 0 0 0 0 1 forward_v I I I I #
coedge $-1 $617 $618 $619 $620 reversed $303 $-1 #
coedge $-1 $621 $305 $307 $459 forward $191 $-1 #
coedge $-1 $305 $621 $617 $622 forward $191 $-1 #
coedge $-1 $619 $308 $305 $456 forward $461 $-1 #
edge $-1 $463 -7.8915718143630738 $623 -1.5589709863821195 $455 $624 forward 7 unknown #
coedge $-1 $625 $626 $306 $458 forward $450 $-1 #
edge $-1 $627 -62.461548891789562 $462 -58.032200727551967 $457 $628 forward 7 unknown #
edge $-1 $463 86.70871989110853 $627 91.990112002929806 $307 $629 forward 7 unknown #
coedge $-1 $308 $619 $625 $630 forward $461 $-1 #
loop $-1 $-1 $619 $449 #
vertex $-1 $458 $631 #
vertex $-1 $309 $632 #
straight-curve $-1 36.521525759137504 12.61684321473567 6.7570552942060687 -1 0 0 I I #
coedge $-1 $465 $465 $-1 $633 reversed $312 $-1 #
edge $-1 $634 0 $634 6.2831853071796004 $313 $635 forward 7 unknown #
vertex $-1 $316 $636 #
ellipse-curve $-1 44.556829882353846 7.550762552350907 4.5423812120872515 0.83867057594974714 0 0.54463902268945019 0.2723195113447251 0 -0.41933528797487357 1 I I #
coedge $-1 $469 $469 $-1 $637 reversed $319 $-1 #
edge $-1 $638 0 $638 6.2831853071796004 $320 $639 forward 7 unknown #
vertex $-1 $323 $640 #
ellipse-curve $-1 44.556829882353846 9.4505428007451933 4.5423812120872515 0.83867057594974714 0 0.54463902268945019 0.2723195113447251 0 -0.41933528797487357 1 I I #
coedge $-1 $473 $473 $-1 $641 reversed $326 $-1 #
edge $-1 $642 0 $642 6.2831853071796004 $327 $643 forward 7 unknown #
vertex $-1 $330 $644 #
ellipse-curve $-1 44.556829882353846 11.35032304913948 4.5423812120872515 0.83867057594974714 0 0.54463902268945019 0.2723195113447251 0 -0.41933528797487357 1 I I #
face $-1 $-1 $489 $68 $-1 $645 forward single #
loop $-1 $-1 $646 $331 #
plane-surface $-1 45.995056001464889 0 0 -1 0 0 0 0 1 forward_v I I I I #
coedge $-1 $647 $648 $649 $650 reversed $332 $-1 #
coedge $-1 $651 $334 $336 $487 forward $210 $-1 #
coedge $-1 $334 $651 $647 $652 forward $210 $-1 #
coedge $-1 $649 $337 $334 $484 forward $489 $-1 #
edge $-1 $491 -13.087155632673971 $653 -6.7545548046930168 $483 $654 forward 7 unknown #
coedge $-1 $655 $656 $335 $486 forward $478 $-1 #
edge $-1 $657 -62.461548891789562 $490 -58.032200727551967 $485 $658 forward 7 unknown #
edge $-1 $491 86.70871989110853 $657 91.990112002929806 $336 $659 forward 7 unknown #
coedge $-1 $337 $649 $655 $660 forward $489 $-1 #
loop $-1 $-1 $649 $477 #
vertex $-1 $486 $661 #
vertex $-1 $338 $662 #
straight-curve $-1 36.521525759137504 23.008010851357465 6.7570552942060687 -1 0 0 I I #
coedge $-1 $493 $493 $-1 $663 reversed $341 $-1 #
edge $-1 $664 0 $664 6.2831853071796004 $342 $665 forward 7 unknown #
vertex $-1 $345 $666 #
ellipse-curve $-1 44.556829882353846 17.941930188972702 4.5423812120872515 0.83867057594974714 0 0.54463902268945019 0.2723195113447251 0 -0.41933528797487357 1 I I #
coedge $-1 $497 $497 $-1 $667 reversed $348 $-1 #
edge $-1 $668 0 $668 6.2831853071796004 $349 $669 forward 7 unknown #
vertex $-1 $352 $670 #
ellipse-curve $-1 44.556829882353846 19.841710437366988 4.5423812120872515 0.83867057594974714 0 0.54463902268945019 0.2723195113447251 0 -0.41933528797487357 1 I I #
coedge $-1 $501 $501 $-1 $671 reversed $355 $-1 #
edge $-1 $672 0 $672 6.2831853071796004 $356 $673 forward 7 unknown #
vertex $-1 $359 $674 #
ellipse-curve $-1 44.556829882353846 21.741490685761274 4.5423812120872515 0.83867057594974714 0 0.54463902268945019 0.2723195113447251 0 -0.41933528797487357 1 I I #
face $-1 $-1 $375 $54 $-1 $675 reversed single #
loop $-1 $-1 $521 $360 #
plane-surface $-1 0 25.07598740871514 0 0 -1 0 0 0 -1 forward_v I I I I #
coedge $-1 $676 $519 $522 $677 forward $361 $-1 #
coedge $-1 $525 $363 $364 $513 reversed $229 $-1 #
coedge $-1 $519 $676 $363 $511 reversed $361 $-1 #
edge $-1 $526 -6.7570552942060713 $678 6.7570552942060713 $510 $679 forward 7 unknown #
coedge $-1 $365 $364 $676 $680 forward $145 $-1 #
edge $-1 $517 -45.995056001464889 $678 45.995056001464889 $509 $681 forward 7 unknown #
coedge $-1 $522 $521 $365 $515 reversed $506 $-1 #
edge $-1 $682 -45.995056001464889 $516 45.995056001464889 $514 $683 forward 7 unknown #
vertex $-1 $367 $684 #
vertex $-1 $528 $685 #
straight-curve $-1 45.995056001464889 0 -6.7570552942060713 0 -1 0 I I #
coedge $-1 $508 $510 $368 $520 reversed $361 $-1 #
edge $-1 $523 -25.07598740871514 $526 25.07598740871514 $519 $686 forward 7 unknown #
coedge $-1 $514 $369 $374 $529 forward $506 $-1 #
coedge $-1 $369 $514 $508 $677 reversed $506 $-1 #
vertex $-1 $370 $687 #
straight-curve $-1 0 25.07598740871514 6.7570552942060713 -1 0 0 I I #
coedge $-1 $371 $509 $373 $528 reversed $229 $-1 #
vertex $-1 $520 $688 #
straight-curve $-1 0 -25.07598740871514 6.7570552942060713 1 0 0 I I #
edge $-1 $376 -6.7570552942060713 $517 6.7570552942060713 $373 $689 forward 7 unknown #
edge $-1 $377 -6.7570552942060713 $516 6.7570552942060713 $374 $690 forward 7 unknown #
point $-1 45.995056001464889 -25.07598740871514 6.7570552942060713 #
point $-1 45.995056001464889 25.07598740871514 6.7570552942060713 #
face $-1 $-1 $549 $55 $-1 $691 forward single #
loop $-1 $-1 $692 $379 #
plane-surface $-1 -32.480945413052744 -29.330946391149432 0 -1 0 0 0 0 1 forward_v I I I I #
coedge $-1 $693 $382 $539 $694 reversed $237 $-1 #
coedge $-1 $382 $693 $695 $696 reversed $237 $-1 #
coedge $-1 $390 $389 $382 $538 reversed $380 $-1 #
edge $-1 $697 -6.7570552942060713 $698 6.7570552942060713 $537 $699 forward 7 unknown #
coedge $-1 $384 $383 $535 $694 forward $149 $-1 #
coedge $-1 $545 $692 $383 $541 reversed $533 $-1 #
edge $-1 $543 -4.2549589824342959 $700 4.2549589824342959 $540 $701 forward 7 unknown #
edge $-1 $698 -4.2549589824342959 $391 4.2549589824342959 $389 $702 forward 7 unknown #
vertex $-1 $541 $703 #
straight-curve $-1 0 -25.07598740871514 -6.7570552942060713 1 0 0 I I #
coedge $-1 $704 $540 $386 $546 reversed $533 $-1 #
edge $-1 $550 -6.7570552942060713 $543 6.7570552942060713 $545 $705 forward 7 unknown #
coedge $-1 $695 $387 $390 $552 forward $549 $-1 #
coedge $-1 $387 $695 $704 $706 forward $549 $-1 #
loop $-1 $-1 $387 $532 #
vertex $-1 $388 $707 #
straight-curve $-1 0 -25.07598740871514 6.7570552942060713 -1 0 0 I I #
edge $-1 $392 -4.2549589824342959 $697 4.2549589824342959 $390 $708 forward 7 unknown #
point $-1 -35.504514739958118 -25.075987408715136 -6.7570552942060713 #
point $-1 -35.504514739958118 -25.075987408715136 6.7570552942060713 #
loop $-1 $-1 $402 $394 #
plane-surface $-1 45.995056001464889 0 0 -1 0 0 0 0 1 forward_v I I I I #
coedge $-1 $558 $397 $399 $562 reversed $245 $-1 #
coedge $-1 $397 $557 $709 $710 reversed $245 $-1 #
coedge $-1 $405 $400 $397 $560 forward $395 $-1 #
edge $-1 $563 6.5970780041052777 $711 9.4735302423273851 $559 $712 forward 7 unknown #
coedge $-1 $399 $398 $566 $713 reversed $153 $-1 #
edge $-1 $714 -91.990112002929806 $563 -86.70871989110853 $557 $715 forward 7 unknown #
vertex $-1 $401 $716 #
straight-curve $-1 43.118603763242781 -5.6658962362491998 6.7570552942060758 0 -1 0 I I #
coedge $-1 $709 $402 $405 $570 reversed $555 $-1 #
coedge $-1 $402 $709 $561 $713 forward $555 $-1 #
vertex $-1 $403 $717 #
straight-curve $-1 45.995056001464889 -8.1654920585079225 64.789256021758035 0 0 1 I I #
straight-curve $-1 -4.1063486969038507 -8.1654920585079225 79.477107345147346 0.54463902268945019 0 -0.83867057594974714 I I #
edge $-1 $711 -14.498092886488877 $406 -8.1654920585079225 $565 $718 forward 7 unknown #
point $-1 45.995056001464889 -8.1654920585079225 6.7570552942060713 #
point $-1 43.118603763242781 -8.1654920585079225 6.7570552942060687 #
edge $-1 $719 1 $719 0 $409 $-1 forward 7 unknown #
vertex $-1 $410 $720 #
ellipse-curve $-1 43.337011722500925 -13.231572720892686 3.7502220622461029 0.83867057594974714 0 0.54463902268945019 0.2723195113447251 0 -0.41933528797487357 1 I I #
point $-1 44.829149393698579 -13.231572720892686 4.1230459241123842 #
edge $-1 $721 1 $721 0 $413 $-1 forward 7 unknown #
vertex $-1 $414 $722 #
ellipse-curve $-1 43.337011722500925 -11.3317924724984 3.7502220622461029 0.83867057594974714 0 0.54463902268945019 0.2723195113447251 0 -0.41933528797487357 1 I I #
point $-1 44.829149393698579 -11.3317924724984 4.1230459241123842 #
edge $-1 $723 1 $723 0 $417 $-1 forward 7 unknown #
vertex $-1 $418 $724 #
ellipse-curve $-1 43.337011722500925 -9.4320122241041133 3.7502220622461029 0.83867057594974714 0 0.54463902268945019 0.2723195113447251 0 -0.41933528797487357 1 I I #
point $-1 44.829149393698579 -9.4320122241041133 4.1230459241123842 #
plane-surface $-1 0 0 6.7570552942060713 0 0 1 1 0 0 forward_v I I I I #
coedge $-1 $596 $595 $588 $725 forward $422 $-1 #
coedge $-1 $588 $424 $426 $592 reversed $274 $-1 #
coedge $-1 $424 $587 $586 $725 reversed $274 $-1 #
coedge $-1 $432 $427 $424 $590 forward $433 $-1 #
edge $-1 $593 6.5970780041052777 $726 9.4735302423273851 $589 $727 forward 7 unknown #
coedge $-1 $426 $425 $596 $728 reversed $172 $-1 #
edge $-1 $729 -91.990112002929806 $593 -86.70871989110853 $587 $730 forward 7 unknown #
vertex $-1 $428 $731 #
straight-curve $-1 43.118603763242781 -0.4703124179383007 6.7570552942060758 0 -1 0 I I #
coedge $-1 $586 $429 $432 $600 reversed $422 $-1 #
coedge $-1 $429 $586 $591 $728 forward $422 $-1 #
vertex $-1 $430 $732 #
straight-curve $-1 45.995056001464889 2.2256755781138757 64.789256021758035 0 0 1 I I #
straight-curve $-1 -4.1063486969038507 2.2256755781138757 79.477107345147346 0.54463902268945019 0 -0.83867057594974714 I I #
edge $-1 $726 -4.1069252498670785 $434 2.2256755781138757 $595 $733 forward 7 unknown #
point $-1 45.995056001464889 2.2256755781138757 6.7570552942060713 #
point $-1 43.118603763242781 2.2256755781138757 6.7570552942060687 #
edge $-1 $734 1 $734 0 $437 $-1 forward 7 unknown #
vertex $-1 $438 $735 #
ellipse-curve $-1 43.337011722500925 -2.8404050842708877 3.7502220622461029 0.83867057594974714 0 0.54463902268945019 0.2723195113447251 0 -0.41933528797487357 1 I I #
point $-1 44.829149393698579 -2.8404050842708877 4.1230459241123842 #
edge $-1 $736 1 $736 0 $441 $-1 forward 7 unknown #
vertex $-1 $442 $737 #
ellipse-curve $-1 43.337011722500925 -0.9406248358766014 3.7502220622461029 0.83867057594974714 0 0.54463902268945019 0.2723195113447251 0 -0.41933528797487357 1 I I #
point $-1 44.829149393698579 -0.9406248358766014 4.1230459241123842 #
edge $-1 $738 1 $738 0 $445 $-1 forward 7 unknown #
vertex $-1 $446 $739 #
ellipse-curve $-1 43.337011722500925 0.95915541251768488 3.7502220622461029 0.83867057594974714 0 0.54463902268945019 0.2723195113447251 0 -0.41933528797487357 1 I I #
point $-1 44.829149393698579 0.95915541251768488 4.1230459241123842 #
plane-surface $-1 0 0 6.7570552942060713 0 0 1 1 0 0 forward_v I I I I #
coedge $-1 $626 $625 $618 $740 forward $450 $-1 #
coedge $-1 $618 $452 $454 $622 reversed $303 $-1 #
coedge $-1 $452 $617 $616 $740 reversed $303 $-1 #
coedge $-1 $460 $455 $452 $620 forward $461 $-1 #
edge $-1 $623 6.5970780041052777 $741 9.4735302423273851 $619 $742 forward 7 unknown #
coedge $-1 $454 $453 $626 $743 reversed $191 $-1 #
edge $-1 $744 -91.990112002929806 $623 -86.70871989110853 $617 $745 forward 7 unknown #
vertex $-1 $456 $746 #
straight-curve $-1 43.118603763242781 4.7252714003725966 6.7570552942060758 0 -1 0 I I #
coedge $-1 $616 $457 $460 $630 reversed $450 $-1 #
coedge $-1 $457 $616 $621 $743 forward $450 $-1 #
vertex $-1 $458 $747 #
straight-curve $-1 45.995056001464889 12.61684321473567 64.789256021758035 0 0 1 I I #
straight-curve $-1 -4.1063486969038507 12.61684321473567 79.477107345147346 0.54463902268945019 0 -0.83867057594974714 I I #
edge $-1 $741 6.2842423867547161 $462 12.61684321473567 $625 $748 forward 7 unknown #
point $-1 45.995056001464889 12.61684321473567 6.7570552942060713 #
point $-1 43.118603763242781 12.61684321473567 6.7570552942060687 #
edge $-1 $749 1 $749 0 $465 $-1 forward 7 unknown #
vertex $-1 $466 $750 #
ellipse-curve $-1 43.337011722500925 7.550762552350907 3.7502220622461029 0.83867057594974714 0 0.54463902268945019 0.2723195113447251 0 -0.41933528797487357 1 I I #
point $-1 44.829149393698579 7.550762552350907 4.1230459241123842 #
edge $-1 $751 1 $751 0 $469 $-1 forward 7 unknown #
vertex $-1 $470 $752 #
ellipse-curve $-1 43.337011722500925 9.4505428007451933 3.7502220622461029 0.83867057594974714 0 0.54463902268945019 0.2723195113447251 0 -0.41933528797487357 1 I I #
point $-1 44.829149393698579 9.4505428007451933 4.1230459241123842 #
edge $-1 $753 1 $753 0 $473 $-1 forward 7 unknown #
vertex $-1 $474 $754 #
ellipse-curve $-1 43.337011722500925 11.35032304913948 3.7502220622461029 0.83867057594974714 0 0.54463902268945019 0.2723195113447251 0 -0.41933528797487357 1 I I #
point $-1 44.829149393698579 11.35032304913948 4.1230459241123842 #
plane-surface $-1 0 0 6.7570552942060713 0 0 1 1 0 0 forward_v I I I I #
coedge $-1 $656 $655 $648 $755 forward $478 $-1 #
coedge $-1 $648 $480 $482 $652 reversed $332 $-1 #
coedge $-1 $480 $647 $646 $755 reversed $332 $-1 #
coedge $-1 $488 $483 $480 $650 forward $489 $-1 #
edge $-1 $653 6.5970780041052777 $756 9.4735302423273851 $649 $757 forward 7 unknown #
coedge $-1 $482 $481 $656 $758 reversed $210 $-1 #
edge $-1 $759 -91.990112002929806 $653 -86.70871989110853 $647 $760 forward 7 unknown #
vertex $-1 $484 $761 #
straight-curve $-1 43.118603763242781 9.920855218683494 6.7570552942060758 0 -1 0 I I #
coedge $-1 $646 $485 $488 $660 reversed $478 $-1 #
coedge $-1 $485 $646 $651 $758 forward $478 $-1 #
vertex $-1 $486 $762 #
straight-curve $-1 45.995056001464889 23.008010851357465 64.789256021758035 0 0 1 I I #
straight-curve $-1 -4.1063486969038507 23.008010851357465 79.477107345147346 0.54463902268945019 0 -0.83867057594974714 I I #
edge $-1 $756 16.675410023376511 $490 23.008010851357465 $655 $763 forward 7 unknown #
point $-1 45.995056001464889 23.008010851357465 6.7570552942060713 #
point $-1 43.118603763242781 23.008010851357465 6.7570552942060687 #
edge $-1 $764 1 $764 0 $493 $-1 forward 7 unknown #
vertex $-1 $494 $765 #
ellipse-curve $-1 43.337011722500925 17.941930188972702 3.7502220622461029 0.83867057594974714 0 0.54463902268945019 0.2723195113447251 0 -0.41933528797487357 1 I I #
point $-1 44.829149393698579 17.941930188972702 4.1230459241123842 #
edge $-1 $766 1 $766 0 $497 $-1 forward 7 unknown #
vertex $-1 $498 $767 #
ellipse-curve $-1 43.337011722500925 19.841710437366988 3.7502220622461029 0.83867057594974714 0 0.54463902268945019 0.2723195113447251 0 -0.41933528797487357 1 I I #
point $-1 44.829149393698579 19.841710437366988 4.1230459241123842 #
edge $-1 $768 1 $768 0 $501 $-1 forward 7 unknown #
vertex $-1 $502 $769 #
ellipse-curve $-1 43.337011722500925 21.741490685761274 3.7502220622461029 0.83867057594974714 0 0.54463902268945019 0.2723195113447251 0 -0.41933528797487357 1 I I #
point $-1 44.829149393698579 21.741490685761274 4.1230459241123842 #
plane-surface $-1 45.995056001464889 0 0 -1 0 0 0 0 1 forward_v I I I I #
coedge $-1 $510 $508 $512 $680 reversed $361 $-1 #
edge $-1 $523 -6.7570552942060713 $682 6.7570552942060713 $522 $770 forward 7 unknown #
vertex $-1 $680 $771 #
straight-curve $-1 -45.995056001464889 -25.07598740871514 0 0 0 -1 I I #
edge $-1 $678 -25.07598740871514 $682 25.07598740871514 $676 $772 forward 7 unknown #
straight-curve $-1 0 -25.07598740871514 -6.7570552942060713 -1 0 0 I I #
vertex $-1 $515 $773 #
straight-curve $-1 0 25.07598740871514 -6.7570552942060713 1 0 0 I I #
point $-1 45.995056001464889 25.07598740871514 -6.7570552942060713 #
point $-1 45.995056001464889 -25.07598740871514 -6.7570552942060713 #
straight-curve $-1 -45.995056001464889 0 6.7570552942060713 0 -1 0 I I #
point $-1 -45.995056001464889 25.07598740871514 6.7570552942060713 #
point $-1 -45.995056001464889 -25.07598740871514 6.7570552942060713 #
straight-curve $-1 45.995056001464889 -25.07598740871514 0 0 0 -1 I I #
straight-curve $-1 45.995056001464889 25.07598740871514 0 0 0 -1 I I #
plane-surface $-1 0 0 6.7570552942060713 0 0 1 1 0 0 forward_v I I I I #
coedge $-1 $540 $704 $693 $774 forward $533 $-1 #
coedge $-1 $536 $535 $692 $774 reversed $237 $-1 #
edge $-1 $700 -1.511784663452687 $698 1.511784663452687 $535 $775 forward 7 unknown #
coedge $-1 $548 $547 $536 $696 forward $549 $-1 #
edge $-1 $697 -1.511784663452687 $776 1.511784663452687 $536 $777 forward 7 unknown #
vertex $-1 $552 $778 #
vertex $-1 $542 $779 #
straight-curve $-1 -35.504514739958118 -33.585905373583728 0 0 0 -1 I I #
vertex $-1 $774 $780 #
straight-curve $-1 -32.480945413052744 -29.330946391149432 -6.7570552942060713 0 -1 0 I I #
straight-curve $-1 -35.504514739958118 -29.330946391149432 -6.7570552942060713 0 1 0 I I #
point $-1 -32.480945413052744 -25.075987408715136 -6.7570552942060713 #
coedge $-1 $692 $545 $548 $706 reversed $533 $-1 #
straight-curve $-1 -32.480945413052744 -25.07598740871514 0 0 0 -1 I I #
edge $-1 $776 -4.2549589824342959 $550 4.2549589824342959 $704 $781 forward 7 unknown #
point $-1 -32.480945413052744 -25.075987408715136 6.7570552942060713 #
straight-curve $-1 -35.504514739958118 -29.330946391149432 6.7570552942060713 0 -1 0 I I #
coedge $-1 $566 $565 $558 $710 forward $555 $-1 #
edge $-1 $711 58.032200727551967 $714 62.461548891789562 $709 $782 forward 7 unknown #
vertex $-1 $570 $783 #
straight-curve $-1 36.521525759137504 -14.498092886488877 6.7570552942060687 1 0 0 I I #
edge $-1 $714 -8.8321966502396769 $567 -2.4995958222587227 $566 $784 forward 7 unknown #
vertex $-1 $713 $785 #
straight-curve $-1 -4.1063486969038507 -14.498092886488877 79.477107345147346 -0.54463902268945019 0 0.83867057594974714 I I #
point $-1 43.118603763242781 -14.498092886488877 6.7570552942060687 #
point $-1 45.995056001464896 -8.1654920585079225 2.3277071299684735 #
straight-curve $-1 45.995056001464889 0 6.7570552942060713 0 1 0 I I #
vertex $-1 $573 $786 #
point $-1 43.609331233845651 -13.231572720892686 3.3308867742712294 #
vertex $-1 $577 $787 #
point $-1 43.609331233845651 -11.3317924724984 3.3308867742712294 #
vertex $-1 $581 $788 #
point $-1 43.609331233845651 -9.4320122241041133 3.3308867742712294 #
edge $-1 $726 58.032200727551967 $729 62.461548891789562 $586 $789 forward 7 unknown #
vertex $-1 $600 $790 #
straight-curve $-1 36.521525759137504 -4.1069252498670785 6.7570552942060687 1 0 0 I I #
edge $-1 $729 -3.6366128319287778 $597 2.6959879960521764 $596 $791 forward 7 unknown #
vertex $-1 $728 $792 #
straight-curve $-1 -4.1063486969038507 -4.1069252498670785 79.477107345147346 -0.54463902268945019 0 0.83867057594974714 I I #
point $-1 43.118603763242781 -4.1069252498670785 6.7570552942060687 #
point $-1 45.995056001464896 2.2256755781138757 2.3277071299684735 #
straight-curve $-1 45.995056001464889 0 6.7570552942060713 0 1 0 I I #
vertex $-1 $603 $793 #
point $-1 43.609331233845651 -2.8404050842708877 3.3308867742712294 #
vertex $-1 $607 $794 #
point $-1 43.609331233845651 -0.9406248358766014 3.3308867742712294 #
vertex $-1 $611 $795 #
point $-1 43.609331233845651 0.95915541251768488 3.3308867742712294 #
edge $-1 $741 58.032200727551967 $744 62.461548891789562 $616 $796 forward 7 unknown #
vertex $-1 $630 $797 #
straight-curve $-1 36.521525759137504 6.2842423867547161 6.7570552942060687 1 0 0 I I #
edge $-1 $744 1.5589709863821195 $627 7.8915718143630738 $626 $798 forward 7 unknown #
vertex $-1 $743 $799 #
straight-curve $-1 -4.1063486969038507 6.2842423867547161 79.477107345147346 -0.54463902268945019 0 0.83867057594974714 I I #
point $-1 43.118603763242781 6.2842423867547161 6.7570552942060687 #
point $-1 45.995056001464896 12.61684321473567 2.3277071299684735 #
straight-curve $-1 45.995056001464889 0 6.7570552942060713 0 1 0 I I #
vertex $-1 $633 $800 #
point $-1 43.609331233845651 7.550762552350907 3.3308867742712294 #
vertex $-1 $637 $801 #
point $-1 43.609331233845651 9.4505428007451933 3.3308867742712294 #
vertex $-1 $641 $802 #
point $-1 43.609331233845651 11.35032304913948 3.3308867742712294 #
edge $-1 $756 58.032200727551967 $759 62.461548891789562 $646 $803 forward 7 unknown #
vertex $-1 $660 $804 #
straight-curve $-1 36.521525759137504 16.675410023376511 6.7570552942060687 1 0 0 I I #
edge $-1 $759 6.7545548046930168 $657 13.087155632673971 $656 $805 forward 7 unknown #
vertex $-1 $758 $806 #
straight-curve $-1 -4.1063486969038507 16.675410023376511 79.477107345147346 -0.54463902268945019 0 0.83867057594974714 I I #
point $-1 43.118603763242781 16.675410023376511 6.7570552942060687 #
point $-1 45.995056001464896 23.008010851357465 2.3277071299684735 #
straight-curve $-1 45.995056001464889 0 6.7570552942060713 0 1 0 I I #
vertex $-1 $663 $807 #
point $-1 43.609331233845651 17.941930188972702 3.3308867742712294 #
vertex $-1 $667 $808 #
point $-1 43.609331233845651 19.841710437366988 3.3308867742712294 #
vertex $-1 $671 $809 #
point $-1 43.609331233845651 21.741490685761274 3.3308867742712294 #
straight-curve $-1 -45.995056001464889 25.07598740871514 0 0 0 -1 I I #
point $-1 -45.995056001464889 -25.07598740871514 -6.7570552942060713 #
straight-curve $-1 -45.995056001464889 0 -6.7570552942060713 0 1 0 I I #
point $-1 -45.995056001464889 25.07598740871514 -6.7570552942060713 #
edge $-1 $776 -6.7570552942060713 $700 6.7570552942060713 $692 $810 forward 7 unknown #
straight-curve $-1 -33.992730076505431 -33.585905373583728 -6.7570552942060713 -1 0 0 I I #
vertex $-1 $706 $811 #
straight-curve $-1 -33.992730076505431 -33.585905373583728 6.7570552942060713 1 0 0 I I #
point $-1 -35.504514739958118 -33.585905373583728 6.7570552942060713 #
point $-1 -35.504514739958118 -33.585905373583728 -6.7570552942060713 #
point $-1 -32.480945413052744 -33.585905373583728 -6.7570552942060713 #
straight-curve $-1 -32.480945413052744 -29.330946391149432 6.7570552942060713 0 1 0 I I #
straight-curve $-1 45.995056001464889 -14.498092886488877 64.789256021758035 0 0 -1 I I #
point $-1 45.995056001464889 -14.498092886488877 6.7570552942060713 #
straight-curve $-1 45.995056001464889 -5.6658962362491998 2.3277071299684735 0 1 0 I I #
point $-1 45.995056001464896 -14.498092886488877 2.3277071299684735 #
point $-1 42.917676434526051 -13.231572720892686 3.4779025509013777 #
point $-1 42.917676434526051 -11.3317924724984 3.4779025509013777 #
point $-1 42.917676434526051 -9.4320122241041133 3.4779025509013777 #
straight-curve $-1 45.995056001464889 -4.1069252498670785 64.789256021758035 0 0 -1 I I #
point $-1 45.995056001464889 -4.1069252498670785 6.7570552942060713 #
straight-curve $-1 45.995056001464889 -0.4703124179383007 2.3277071299684735 0 1 0 I I #
point $-1 45.995056001464896 -4.1069252498670785 2.3277071299684735 #
point $-1 42.917676434526051 -2.8404050842708877 3.4779025509013777 #
point $-1 42.917676434526051 -0.9406248358766014 3.4779025509013777 #
point $-1 42.917676434526051 0.95915541251768488 3.4779025509013777 #
straight-curve $-1 45.995056001464889 6.2842423867547161 64.789256021758035 0 0 -1 I I #
point $-1 45.995056001464889 6.2842423867547161 6.7570552942060713 #
straight-curve $-1 45.995056001464889 4.7252714003725966 2.3277071299684735 0 1 0 I I #
point $-1 45.995056001464896 6.2842423867547161 2.3277071299684735 #
point $-1 42.917676434526051 7.550762552350907 3.4779025509013777 #
point $-1 42.917676434526051 9.4505428007451933 3.4779025509013777 #
point $-1 42.917676434526051 11.35032304913948 3.4779025509013777 #
straight-curve $-1 45.995056001464889 16.675410023376511 64.789256021758035 0 0 -1 I I #
point $-1 45.995056001464889 16.675410023376511 6.7570552942060713 #
straight-curve $-1 45.995056001464889 9.920855218683494 2.3277071299684735 0 1 0 I I #
point $-1 45.995056001464896 16.675410023376511 2.3277071299684735 #
point $-1 42.917676434526051 17.941930188972702 3.4779025509013777 #
point $-1 42.917676434526051 19.841710437366988 3.4779025509013777 #
point $-1 42.917676434526051 21.741490685761274 3.4779025509013777 #
straight-curve $-1 -32.480945413052744 -33.585905373583728 0 0 0 -1 I I #
point $-1 -32.480945413052744 -33.585905373583728 6.7570552942060713 #
End-of-ACIS-data 