500 0 7 0           
7 Unknown 11 ACIS 5.0 NT 24 Thu Mar 25 21:38:31 1999 
-1 9.9999999999999995e-007 1e-010 
body $-1 $7 $-1 $8 #
body $-1 $9 $-1 $10 #
body $-1 $11 $-1 $12 #
body $-1 $13 $-1 $14 #
body $-1 $15 $-1 $16 #
body $-1 $17 $-1 $18 #
body $-1 $19 $-1 $20 #
lump $-1 $-1 $21 $0 #
transform $-1 1 0 0 0 1 0 0 0 1 63.737296670430617 29.757752789490912 13.1896945902332 1 rotate no_reflect no_shear #
lump $-1 $-1 $22 $1 #
transform $-1 1 0 0 0 1 0 0 0 1 63.737296670430617 29.757752789490912 13.1896945902332 1 rotate no_reflect no_shear #
lump $-1 $-1 $23 $2 #
transform $-1 1 0 0 0 1 0 0 0 1 63.737296670430617 29.757752789490912 13.1896945902332 1 rotate no_reflect no_shear #
lump $-1 $-1 $24 $3 #
transform $-1 1 0 0 0 1 0 0 0 1 63.737296670430617 29.757752789490912 13.1896945902332 1 rotate no_reflect no_shear #
lump $-1 $-1 $25 $4 #
transform $-1 1 0 0 0 1 0 0 0 1 63.737296670430617 29.757752789490912 13.1896945902332 1 rotate no_reflect no_shear #
lump $-1 $-1 $26 $5 #
transform $-1 1 0 0 0 1 0 0 0 1 63.737296670430617 29.757752789490912 13.1896945902332 1 rotate no_reflect no_shear #
lump $-1 $-1 $27 $6 #
transform $-1 1 0 0 0 1 0 0 0 1 63.737296670430617 29.757752789490912 13.1896945902332 1 rotate no_reflect no_shear #
shell $-1 $-1 $-1 $28 $-1 $7 #
shell $-1 $-1 $-1 $29 $-1 $9 #
shell $-1 $-1 $-1 $30 $-1 $11 #
shell $-1 $-1 $-1 $31 $-1 $13 #
shell $-1 $-1 $-1 $32 $-1 $15 #
shell $-1 $-1 $-1 $33 $-1 $17 #
shell $-1 $-1 $-1 $34 $-1 $19 #
face $-1 $35 $36 $21 $-1 $37 forward single #
face $-1 $38 $39 $22 $-1 $40 reversed single #
face $-1 $41 $42 $23 $-1 $43 forward single #
face $-1 $44 $45 $24 $-1 $46 forward single #
face $-1 $47 $48 $25 $-1 $49 reversed single #
face $-1 $50 $51 $26 $-1 $52 forward single #
face $-1 $53 $54 $27 $-1 $55 forward single #
face $-1 $56 $57 $21 $-1 $58 reversed single #
loop $-1 $-1 $59 $28 #
plane-surface $-1 0 0 13.1896945902332 0 0 1 1 0 0 forward_v I I I I #
face $-1 $60 $61 $22 $-1 $62 reversed single #
loop $-1 $-1 $63 $29 #
plane-surface $-1 47.401587232033968 -29.757752789490908 9.3363811359774047 0 -0.50000000669873634 0.8660253999169214 1 0 0 forward_v I I I I #
face $-1 $64 $65 $23 $-1 $66 forward single #
loop $-1 $67 $68 $30 #
cone-surface $-1 40.400568901292537 -25.216879071749688 9.1779839886036356 0 0.50000000669873634 -0.8660253999169214 1.5 0 0 1 I I 0 1 1.5 forward I I I I #
face $-1 $69 $70 $24 $-1 $71 forward single #
loop $-1 $72 $73 $31 #
cone-surface $-1 54.402605562775385 -25.216879071749688 9.1779839886036356 0 0.50000000669873634 -0.8660253999169214 1.5 0 0 1 I I 0 1 1.5 forward I I I I #
face $-1 $74 $75 $25 $-1 $76 reversed single #
loop $-1 $-1 $77 $32 #
plane-surface $-1 -38.906458115887482 75.497175683645011 133.17016840501321 -1 0 0 0 0.69465837861970381 0.71933979245794832 forward_v I I I I #
face $-1 $78 $79 $26 $-1 $80 forward single #
loop $-1 $81 $82 $33 #
cone-surface $-1 -56.642771369132575 22.103080610714173 5.7353194221310062 0 -0.69465837861970381 -0.71933979245794832 2.5 0 0 1 I I 0 1 2.5 forward I I I I #
face $-1 $83 $84 $27 $-1 $85 forward single #
loop $-1 $86 $87 $34 #
cone-surface $-1 -46.000983417185516 22.103080610714173 5.7353194221310062 0 -0.69465837861970381 -0.71933979245794832 2.5 0 0 1 I I 0 1 2.5 forward I I I I #
face $-1 $88 $89 $21 $-1 $90 reversed single #
loop $-1 $-1 $91 $35 #
plane-surface $-1 0 0 -13.1896945902332 0 0 1 1 0 0 forward_v I I I I #
coedge $-1 $92 $93 $94 $95 forward $36 $-1 #
face $-1 $96 $97 $22 $-1 $98 reversed single #
loop $-1 $-1 $99 $38 #
plane-surface $-1 31.065877793637313 -93.495050313840224 119.73261681324369 1 0 0 0 0.50000000669873634 -0.8660253999169214 forward_v I I I I #
coedge $-1 $100 $101 $102 $103 reversed $39 $-1 #
face $-1 $-1 $104 $23 $-1 $105 forward single #
loop $-1 $106 $107 $41 #
cone-surface $-1 40.400568901292537 -23.638072629503277 6.4434110641642821 0 0.50000000669873634 -0.8660253999169214 0.75 0 0 1 I I -0.70710678118654757 0.70710678118654757 0.75 forward I I I I #
loop $-1 $-1 $108 $30 #
coedge $-1 $68 $68 $109 $110 reversed $42 $-1 #
face $-1 $-1 $111 $24 $-1 $112 forward single #
loop $-1 $113 $114 $44 #
cone-surface $-1 54.402605562775385 -23.638072629503277 6.4434110641642821 0 0.50000000669873634 -0.8660253999169214 0.75 0 0 1 I I -0.70710678118654757 0.70710678118654757 0.75 forward I I I I #
loop $-1 $-1 $115 $31 #
coedge $-1 $73 $73 $116 $117 reversed $45 $-1 #
face $-1 $118 $119 $25 $-1 $120 reversed single #
loop $-1 $-1 $121 $47 #
plane-surface $-1 -51.321877393159049 -13.054118641723747 41.472620887536735 0 0.69465837861970381 0.71933979245794832 1 0 0 forward_v I I I I #
coedge $-1 $122 $123 $124 $125 reversed $48 $-1 #
face $-1 $-1 $126 $26 $-1 $127 forward single #
loop $-1 $128 $129 $50 #
cone-surface $-1 -56.642771369132575 20.342107734953633 3.9117786689183394 0 -0.69465837861970381 -0.71933979245794832 1.25 0 0 1 I I -0.70710678118654746 0.70710678118654746 1.25 forward I I I I #
loop $-1 $-1 $130 $33 #
coedge $-1 $82 $82 $131 $132 reversed $51 $-1 #
face $-1 $-1 $133 $27 $-1 $134 forward single #
loop $-1 $135 $136 $53 #
cone-surface $-1 -46.000983417185516 20.342107734953633 3.9117786689183394 0 -0.69465837861970381 -0.71933979245794832 1.25 0 0 1 I I -0.70710678118654746 0.70710678118654746 1.25 forward I I I I #
loop $-1 $-1 $137 $34 #
coedge $-1 $87 $87 $138 $139 reversed $54 $-1 #
face $-1 $140 $141 $21 $-1 $142 reversed single #
loop $-1 $-1 $143 $56 #
plane-surface $-1 0 -29.757752789490912 0 0 1 0 0 0 1 forward_v I I I I #
coedge $-1 $144 $145 $146 $147 forward $57 $-1 #
coedge $-1 $148 $59 $149 $150 forward $36 $-1 #
coedge $-1 $59 $148 $151 $152 forward $36 $-1 #
coedge $-1 $153 $154 $59 $95 reversed $155 $-1 #
edge $-1 $156 -29.757752789490912 $157 29.757752789490912 $94 $158 forward 7 unknown #
face $-1 $159 $160 $22 $-1 $161 forward single #
loop $-1 $-1 $162 $60 #
plane-surface $-1 0 -29.757752789490912 0 0 1 0 0 0 1 forward_v I I I I #
coedge $-1 $163 $164 $165 $166 reversed $61 $-1 #
coedge $-1 $167 $63 $168 $169 reversed $39 $-1 #
coedge $-1 $63 $167 $163 $170 forward $39 $-1 #
coedge $-1 $165 $171 $63 $103 forward $160 $-1 #
edge $-1 $172 -40.036503054413643 $173 -7.3650841776203286 $102 $174 forward 7 unknown #
loop $-1 $-1 $109 $64 #
plane-surface $-1 47.401587232033968 -29.757752789490908 9.3363811359774047 0 -0.50000000669873634 0.8660253999169214 1 0 0 forward_v I I I I #
loop $-1 $-1 $175 $41 #
coedge $-1 $107 $107 $108 $176 reversed $65 $-1 #
coedge $-1 $108 $108 $107 $176 forward $67 $-1 #
coedge $-1 $109 $109 $68 $110 forward $104 $-1 #
edge $-1 $177 2.7480332645007109e-016 $177 6.2831853071796004 $109 $178 forward 7 unknown #
loop $-1 $-1 $116 $69 #
plane-surface $-1 47.401587232033968 -29.757752789490908 9.3363811359774047 0 -0.50000000669873634 0.8660253999169214 1 0 0 forward_v I I I I #
loop $-1 $-1 $179 $44 #
coedge $-1 $114 $114 $115 $180 reversed $70 $-1 #
coedge $-1 $115 $115 $114 $180 forward $72 $-1 #
coedge $-1 $116 $116 $73 $117 forward $111 $-1 #
edge $-1 $181 2.7480332645007109e-016 $181 6.2831853071796004 $116 $182 forward 7 unknown #
face $-1 $183 $184 $25 $-1 $185 forward single #
loop $-1 $-1 $186 $74 #
plane-surface $-1 -63.737296670430617 0 0 1 0 0 0 0 -1 forward_v I I I I #
coedge $-1 $187 $188 $189 $190 reversed $75 $-1 #
coedge $-1 $123 $77 $191 $192 reversed $48 $-1 #
coedge $-1 $77 $122 $187 $193 reversed $48 $-1 #
coedge $-1 $189 $194 $77 $125 forward $195 $-1 #
edge $-1 $196 53.395389612273405 $197 66.455407923197328 $124 $198 forward 7 unknown #
loop $-1 $-1 $131 $78 #
plane-surface $-1 -51.321877393159049 -13.054118641723747 41.472620887536735 0 0.69465837861970381 0.71933979245794832 1 0 0 forward_v I I I I #
loop $-1 $-1 $199 $50 #
coedge $-1 $129 $129 $130 $200 reversed $79 $-1 #
coedge $-1 $130 $130 $129 $200 forward $81 $-1 #
coedge $-1 $131 $131 $82 $132 forward $126 $-1 #
edge $-1 $201 2.8186663100366674e-016 $201 6.2831853071796004 $131 $202 forward 7 unknown #
loop $-1 $-1 $138 $83 #
plane-surface $-1 -51.321877393159049 -13.054118641723747 41.472620887536735 0 0.69465837861970381 0.71933979245794832 1 0 0 forward_v I I I I #
loop $-1 $-1 $203 $53 #
coedge $-1 $136 $136 $137 $204 reversed $84 $-1 #
coedge $-1 $137 $137 $136 $204 forward $86 $-1 #
coedge $-1 $138 $138 $87 $139 forward $133 $-1 #
edge $-1 $205 2.8186663100366674e-016 $205 6.2831853071796004 $138 $206 forward 7 unknown #
face $-1 $207 $208 $21 $-1 $209 reversed single #
loop $-1 $-1 $210 $88 #
plane-surface $-1 -63.737296670430617 0 0 1 0 0 0 0 -1 forward_v I I I I #
coedge $-1 $211 $151 $212 $213 forward $89 $-1 #
coedge $-1 $214 $91 $211 $215 forward $57 $-1 #
coedge $-1 $91 $214 $216 $217 forward $57 $-1 #
coedge $-1 $154 $153 $91 $147 reversed $155 $-1 #
edge $-1 $218 -29.757752789490912 $219 29.757752789490912 $146 $220 forward 7 unknown #
coedge $-1 $93 $92 $221 $222 forward $36 $-1 #
coedge $-1 $223 $224 $92 $150 reversed $208 $-1 #
edge $-1 $157 -63.737296670430617 $225 63.737296670430617 $149 $226 forward 7 unknown #
coedge $-1 $143 $227 $93 $152 reversed $89 $-1 #
edge $-1 $228 -63.737296670430617 $156 63.737296670430617 $151 $229 forward 7 unknown #
coedge $-1 $146 $94 $227 $230 forward $155 $-1 #
coedge $-1 $94 $146 $223 $231 reversed $155 $-1 #
loop $-1 $-1 $153 $207 #
vertex $-1 $95 $232 #
vertex $-1 $95 $233 #
straight-curve $-1 63.737296670430617 0 13.1896945902332 0 1 0 I I #
face $-1 $-1 $234 $22 $-1 $235 reversed single #
loop $-1 $-1 $165 $96 #
plane-surface $-1 0 0 13.1896945902332 0 0 1 1 0 0 forward_v I I I I #
coedge $-1 $236 $237 $164 $238 forward $97 $-1 #
coedge $-1 $164 $99 $101 $170 reversed $61 $-1 #
coedge $-1 $99 $163 $162 $238 reversed $61 $-1 #
coedge $-1 $239 $102 $99 $166 forward $160 $-1 #
edge $-1 $173 -23.663906928466929 $240 -16.9897723674292 $165 $241 forward 7 unknown #
coedge $-1 $101 $100 $236 $242 reversed $39 $-1 #
coedge $-1 $243 $244 $100 $169 forward $234 $-1 #
edge $-1 $245 -10.551389564808549 $172 -2.8447627595462737 $168 $246 forward 7 unknown #
edge $-1 $247 -3.964918716072992e-015 $173 7.7066268052622711 $163 $248 forward 7 unknown #
coedge $-1 $102 $239 $243 $249 forward $160 $-1 #
vertex $-1 $169 $250 #
vertex $-1 $103 $251 #
straight-curve $-1 23.700793616016984 -23.083618228453187 13.1896945902332 -1 0 0 I I #
coedge $-1 $175 $175 $-1 $252 reversed $106 $-1 #
edge $-1 $253 0 $253 6.2831853071796004 $107 $254 forward 7 unknown #
vertex $-1 $110 $255 #
ellipse-curve $-1 40.400568901292537 -26.420685508972049 11.263037863105302 0 -0.50000000669873634 0.8660253999169214 1.5 0 0 1 I I #
coedge $-1 $179 $179 $-1 $256 reversed $113 $-1 #
edge $-1 $257 0 $257 6.2831853071796004 $114 $258 forward 7 unknown #
vertex $-1 $117 $259 #
ellipse-curve $-1 54.402605562775385 -26.420685508972049 11.263037863105302 0 -0.50000000669873634 0.8660253999169214 1.5 0 0 1 I I #
face $-1 $-1 $195 $25 $-1 $260 reversed single #
loop $-1 $-1 $261 $118 #
plane-surface $-1 0 0 13.1896945902332 0 0 1 1 0 0 forward_v I I I I #
coedge $-1 $262 $263 $188 $264 forward $119 $-1 #
coedge $-1 $265 $121 $123 $193 forward $75 $-1 #
coedge $-1 $121 $265 $186 $264 reversed $75 $-1 #
coedge $-1 $266 $124 $121 $190 forward $195 $-1 #
edge $-1 $197 13.245519419307957 $267 38.076357973851088 $189 $268 forward 7 unknown #
coedge $-1 $269 $261 $122 $192 forward $184 $-1 #
edge $-1 $270 -21.514879604913265 $196 -7.9908350523315939 $191 $271 forward 7 unknown #
edge $-1 $197 -59.515505578981831 $270 -40.714871032725625 $123 $272 forward 7 unknown #
coedge $-1 $124 $266 $269 $273 reversed $195 $-1 #
loop $-1 $-1 $189 $183 #
vertex $-1 $273 $274 #
vertex $-1 $125 $275 #
straight-curve $-1 -38.906458115887482 29.757752789490912 66.585084202506607 0 0 -1 I I #
coedge $-1 $199 $199 $-1 $276 reversed $128 $-1 #
edge $-1 $277 0 $277 6.2831853071796004 $129 $278 forward 7 unknown #
vertex $-1 $132 $279 #
ellipse-curve $-1 -56.642771369132575 22.995730513200083 6.6596854347712355 0 0.69465837861970381 0.71933979245794832 2.5 0 0 1 I I #
coedge $-1 $203 $203 $-1 $280 reversed $135 $-1 #
edge $-1 $281 0 $281 6.2831853071796004 $136 $282 forward 7 unknown #
vertex $-1 $139 $283 #
ellipse-curve $-1 -46.000983417185516 22.995730513200083 6.6596854347712355 0 0.69465837861970381 0.71933979245794832 2.5 0 0 1 I I #
face $-1 $-1 $155 $21 $-1 $284 reversed single #
loop $-1 $-1 $223 $140 #
plane-surface $-1 0 29.757752789490912 0 0 -1 0 0 0 -1 forward_v I I I I #
coedge $-1 $285 $221 $224 $286 forward $141 $-1 #
coedge $-1 $227 $143 $144 $215 reversed $89 $-1 #
coedge $-1 $221 $285 $143 $213 reversed $141 $-1 #
edge $-1 $228 -13.1896945902332 $287 13.1896945902332 $212 $288 forward 7 unknown #
coedge $-1 $145 $144 $285 $289 forward $57 $-1 #
edge $-1 $219 -63.737296670430617 $287 63.737296670430617 $211 $290 forward 7 unknown #
coedge $-1 $224 $223 $145 $217 reversed $208 $-1 #
edge $-1 $291 -63.737296670430617 $218 63.737296670430617 $216 $292 forward 7 unknown #
vertex $-1 $147 $293 #
vertex $-1 $230 $294 #
straight-curve $-1 63.737296670430617 0 -13.1896945902332 0 -1 0 I I #
coedge $-1 $210 $212 $148 $222 reversed $141 $-1 #
edge $-1 $225 -29.757752789490912 $228 29.757752789490912 $221 $295 forward 7 unknown #
coedge $-1 $216 $149 $154 $231 forward $208 $-1 #
coedge $-1 $149 $216 $210 $286 reversed $208 $-1 #
vertex $-1 $150 $296 #
straight-curve $-1 0 29.757752789490912 13.1896945902332 -1 0 0 I I #
coedge $-1 $151 $211 $153 $230 reversed $89 $-1 #
vertex $-1 $222 $297 #
straight-curve $-1 0 -29.757752789490912 13.1896945902332 1 0 0 I I #
edge $-1 $156 -13.1896945902332 $219 13.1896945902332 $153 $298 forward 7 unknown #
edge $-1 $157 -13.1896945902332 $218 13.1896945902332 $154 $299 forward 7 unknown #
point $-1 63.737296670430617 -29.757752789490912 13.1896945902332 #
point $-1 63.737296670430617 29.757752789490912 13.1896945902332 #
loop $-1 $-1 $168 $159 #
plane-surface $-1 63.737296670430617 0 0 -1 0 0 0 0 1 forward_v I I I I #
coedge $-1 $300 $162 $167 $242 forward $97 $-1 #
coedge $-1 $162 $300 $239 $301 reversed $97 $-1 #
edge $-1 $240 46.676613816388645 $247 50.529927270644443 $162 $302 forward 7 unknown #
coedge $-1 $171 $165 $237 $301 forward $160 $-1 #
vertex $-1 $301 $303 #
straight-curve $-1 31.065877793637313 -46.747525156920112 13.189694590233202 0 -1 0 I I #
edge $-1 $247 7.3650841776203286 $245 40.036503054413643 $236 $304 forward 7 unknown #
coedge $-1 $244 $168 $171 $249 reversed $234 $-1 #
coedge $-1 $168 $243 $300 $305 forward $234 $-1 #
vertex $-1 $242 $306 #
straight-curve $-1 63.737296670430617 -20.619981421948356 14.612075989062653 0 0.8660253999169214 0.50000000669873634 I I #
vertex $-1 $242 $307 #
straight-curve $-1 31.065877793637313 -29.757752789490908 9.3363811359774047 0 0.8660253999169214 0.50000000669873634 I I #
edge $-1 $308 -29.757752789490912 $172 -23.083618228453183 $243 $309 forward 7 unknown #
point $-1 63.737296670430624 -23.083618228453183 13.1896945902332 #
point $-1 31.065877793637313 -23.083618228453183 13.1896945902332 #
edge $-1 $310 1 $310 0 $175 $-1 forward 7 unknown #
vertex $-1 $176 $311 #
ellipse-curve $-1 40.400568901292537 -24.01307263452733 7.0929301141019732 0 -0.50000000669873634 0.8660253999169214 1.5 0 0 1 I I #
point $-1 41.900568901292537 -26.420685508972046 11.263037863105296 #
edge $-1 $312 1 $312 0 $179 $-1 forward 7 unknown #
vertex $-1 $180 $313 #
ellipse-curve $-1 54.402605562775385 -24.01307263452733 7.0929301141019732 0 -0.50000000669873634 0.8660253999169214 1.5 0 0 1 I I #
point $-1 55.902605562775385 -26.420685508972046 11.263037863105296 #
plane-surface $-1 0 29.757752789490912 0 0 -1 0 0 0 -1 forward_v I I I I #
coedge $-1 $191 $314 $265 $315 forward $184 $-1 #
coedge $-1 $263 $186 $314 $316 reversed $119 $-1 #
coedge $-1 $186 $262 $266 $317 forward $119 $-1 #
edge $-1 $267 -40.415680290329369 $318 -21.615045744073168 $186 $319 forward 7 unknown #
coedge $-1 $188 $187 $261 $315 reversed $75 $-1 #
coedge $-1 $194 $189 $263 $317 reversed $195 $-1 #
vertex $-1 $264 $320 #
straight-curve $-1 -25.660938696579525 29.757752789490915 0.12967627930927961 -1 0 0 I I #
coedge $-1 $314 $191 $194 $273 forward $184 $-1 #
vertex $-1 $192 $321 #
straight-curve $-1 -38.906458115887482 37.748587841822506 13.189694590233202 0 1 0 I I #
straight-curve $-1 -38.906458115887482 -13.054118641723747 41.472620887536735 0 -0.71933979245794832 0.69465837861970381 I I #
edge $-1 $196 38.906458115887482 $322 63.737296670430617 $194 $323 forward 7 unknown #
point $-1 -38.906458115887482 29.757752789490912 13.1896945902332 #
point $-1 -38.906458115887482 29.757752789490908 0.12967627930927961 #
edge $-1 $324 1 $324 0 $199 $-1 forward 7 unknown #
vertex $-1 $200 $325 #
ellipse-curve $-1 -56.642771369132575 21.210430708228262 4.8109534094907751 0 0.69465837861970381 0.71933979245794832 2.5 0 0 1 I I #
point $-1 -54.142771369132575 22.995730513200087 6.6596854347712382 #
edge $-1 $326 1 $326 0 $203 $-1 forward 7 unknown #
vertex $-1 $204 $327 #
ellipse-curve $-1 -46.000983417185516 21.210430708228262 4.8109534094907751 0 0.69465837861970381 0.71933979245794832 2.5 0 0 1 I I #
point $-1 -43.500983417185516 22.995730513200087 6.6596854347712382 #
plane-surface $-1 63.737296670430617 0 0 -1 0 0 0 0 1 forward_v I I I I #
coedge $-1 $212 $210 $214 $289 reversed $141 $-1 #
edge $-1 $225 -13.1896945902332 $291 13.1896945902332 $224 $328 forward 7 unknown #
vertex $-1 $289 $329 #
straight-curve $-1 -63.737296670430617 -29.757752789490912 0 0 0 -1 I I #
edge $-1 $287 -29.757752789490912 $291 29.757752789490912 $285 $330 forward 7 unknown #
straight-curve $-1 0 -29.757752789490912 -13.1896945902332 -1 0 0 I I #
vertex $-1 $217 $331 #
straight-curve $-1 0 29.757752789490912 -13.1896945902332 1 0 0 I I #
point $-1 63.737296670430617 29.757752789490912 -13.1896945902332 #
point $-1 63.737296670430617 -29.757752789490912 -13.1896945902332 #
straight-curve $-1 -63.737296670430617 0 13.1896945902332 0 -1 0 I I #
point $-1 -63.737296670430617 29.757752789490912 13.1896945902332 #
point $-1 -63.737296670430617 -29.757752789490912 13.1896945902332 #
straight-curve $-1 63.737296670430617 -29.757752789490912 0 0 0 -1 I I #
straight-curve $-1 63.737296670430617 29.757752789490912 0 0 0 -1 I I #
coedge $-1 $237 $236 $244 $305 reversed $97 $-1 #
edge $-1 $240 31.065877793637313 $308 63.737296670430617 $237 $332 forward 7 unknown #
straight-curve $-1 31.065877793637313 -29.757752789490912 59.866308406621847 0 0 -1 I I #
point $-1 31.065877793637313 -29.757752789490912 13.1896945902332 #
straight-curve $-1 23.700793616016984 -29.757752789490912 9.3363811359774012 1 0 0 I I #
edge $-1 $308 -13.1896945902332 $245 -9.3363811359774029 $244 $333 forward 7 unknown #
point $-1 63.737296670430624 -29.757752789490912 9.3363811359774029 #
point $-1 31.065877793637313 -29.757752789490912 9.3363811359774029 #
vertex $-1 $249 $334 #
straight-curve $-1 63.737296670430617 0 13.1896945902332 0 1 0 I I #
vertex $-1 $252 $335 #
point $-1 41.900568901292537 -24.01307263452733 7.0929301141019732 #
vertex $-1 $256 $336 #
point $-1 55.902605562775385 -24.01307263452733 7.0929301141019732 #
coedge $-1 $261 $269 $262 $316 forward $184 $-1 #
edge $-1 $318 -38.076357973851088 $270 -13.245519419307957 $261 $337 forward 7 unknown #
edge $-1 $322 -29.757752789490912 $318 -16.233708236909241 $262 $338 forward 7 unknown #
edge $-1 $322 -13.1896945902332 $267 -0.12967627930928105 $266 $339 forward 7 unknown #
vertex $-1 $264 $340 #
straight-curve $-1 -63.737296670430617 0.68514571739858887 28.204767220601799 0 -0.71933979245794832 0.69465837861970381 I I #
point $-1 -63.737296670430617 29.757752789490912 0.12967627930928105 #
point $-1 -38.906458115887482 16.233708236909241 13.189694590233202 #
vertex $-1 $273 $341 #
straight-curve $-1 0 29.757752789490912 13.1896945902332 -1 0 0 I I #
vertex $-1 $276 $342 #
point $-1 -54.142771369132575 21.210430708228262 4.8109534094907751 #
vertex $-1 $280 $343 #
point $-1 -43.500983417185516 21.210430708228262 4.8109534094907751 #
straight-curve $-1 -63.737296670430617 29.757752789490912 0 0 0 -1 I I #
point $-1 -63.737296670430617 -29.757752789490912 -13.1896945902332 #
straight-curve $-1 -63.737296670430617 0 -13.1896945902332 0 1 0 I I #
point $-1 -63.737296670430617 29.757752789490912 -13.1896945902332 #
straight-curve $-1 0 -29.757752789490912 13.1896945902332 1 0 0 I I #
straight-curve $-1 63.737296670430617 -29.757752789490912 0 0 0 -1 I I #
point $-1 63.737296670430617 -29.757752789490912 13.1896945902332 #
point $-1 40.400568901292537 -23.263072624479225 5.7938920142265911 #
point $-1 54.402605562775385 -23.263072624479225 5.7938920142265911 #
straight-curve $-1 -25.660938696579525 16.233708236909244 13.189694590233199 1 0 0 I I #
straight-curve $-1 -63.737296670430617 0 13.1896945902332 0 -1 0 I I #
straight-curve $-1 -63.737296670430617 29.757752789490912 0 0 0 -1 I I #
point $-1 -63.737296670430617 16.233708236909241 13.189694590233202 #
point $-1 -63.737296670430617 29.757752789490912 13.1896945902332 #
point $-1 -56.642771369132575 19.473784761679003 3.0126039283459041 #
point $-1 -46.000983417185516 19.473784761679003 3.0126039283459041 #
End-of-ACIS-data 