500 0 9 0           
7 Unknown 11 ACIS 5.0 NT 24 Fri Mar 26 18:28:13 1999 
-1 9.9999999999999995e-007 1e-010 
body $-1 $9 $-1 $10 #
body $-1 $11 $-1 $12 #
body $-1 $13 $-1 $14 #
body $-1 $15 $-1 $16 #
body $-1 $17 $-1 $18 #
body $-1 $19 $-1 $20 #
body $-1 $21 $-1 $22 #
body $-1 $23 $-1 $24 #
body $-1 $25 $-1 $26 #
lump $-1 $-1 $27 $0 #
transform $-1 1 0 0 0 1 0 0 0 1 50.703451643421737 25.427702855790642 8.7710714153918552 1 rotate no_reflect no_shear #
lump $-1 $-1 $28 $1 #
transform $-1 1 0 0 0 1 0 0 0 1 50.703451643421737 25.427702855790642 8.7710714153918552 1 rotate no_reflect no_shear #
lump $-1 $-1 $29 $2 #
transform $-1 1 0 0 0 1 0 0 0 1 50.703451643421737 25.427702855790642 8.7710714153918552 1 rotate no_reflect no_shear #
lump $-1 $-1 $30 $3 #
transform $-1 1 0 0 0 1 0 0 0 1 50.703451643421737 25.427702855790642 8.7710714153918552 1 rotate no_reflect no_shear #
lump $-1 $-1 $31 $4 #
transform $-1 1 0 0 0 1 0 0 0 1 50.703451643421737 25.427702855790642 8.7710714153918552 1 rotate no_reflect no_shear #
lump $-1 $-1 $32 $5 #
transform $-1 1 0 0 0 1 0 0 0 1 50.703451643421737 25.427702855790642 8.7710714153918552 1 rotate no_reflect no_shear #
lump $-1 $-1 $33 $6 #
transform $-1 1 0 0 0 1 0 0 0 1 50.703451643421737 25.427702855790642 8.7710714153918552 1 rotate no_reflect no_shear #
lump $-1 $-1 $34 $7 #
transform $-1 1 0 0 0 1 0 0 0 1 50.703451643421737 25.427702855790642 8.7710714153918552 1 rotate no_reflect no_shear #
lump $-1 $-1 $35 $8 #
transform $-1 1 0 0 0 1 0 0 0 1 50.703451643421737 25.427702855790642 8.7710714153918552 1 rotate no_reflect no_shear #
shell $-1 $-1 $-1 $36 $-1 $9 #
shell $-1 $-1 $-1 $37 $-1 $11 #
shell $-1 $-1 $-1 $38 $-1 $13 #
shell $-1 $-1 $-1 $39 $-1 $15 #
shell $-1 $-1 $-1 $40 $-1 $17 #
shell $-1 $-1 $-1 $41 $-1 $19 #
shell $-1 $-1 $-1 $42 $-1 $21 #
shell $-1 $-1 $-1 $43 $-1 $23 #
shell $-1 $-1 $-1 $44 $-1 $25 #
face $-1 $45 $46 $27 $-1 $47 forward single #
face $-1 $48 $49 $28 $-1 $50 forward single #
face $-1 $51 $52 $29 $-1 $53 forward single #
face $-1 $54 $55 $30 $-1 $56 reversed single #
face $-1 $57 $58 $31 $-1 $59 forward single #
face $-1 $60 $61 $32 $-1 $62 forward single #
face $-1 $63 $64 $33 $-1 $65 reversed single #
face $-1 $66 $67 $34 $-1 $68 forward single #
face $-1 $69 $70 $35 $-1 $71 forward single #
face $-1 $72 $73 $27 $-1 $74 reversed single #
loop $-1 $-1 $75 $36 #
plane-surface $-1 0 0 8.7710714153918552 0 0 1 1 0 0 forward_v I I I I #
face $-1 $76 $77 $28 $-1 $78 reversed single #
loop $-1 $-1 $79 $37 #
plane-surface $-1 0 -21.102585206786937 -4.3131817966396699 0 0 1 1 0 0 forward_v I I I I #
face $-1 $80 $81 $29 $-1 $82 reversed single #
loop $-1 $-1 $83 $38 #
plane-surface $-1 0 25.427702855790642 0 0 -1 0 0 0 -1 forward_v I I I I #
face $-1 $84 $85 $30 $-1 $86 reversed single #
loop $-1 $-1 $87 $39 #
plane-surface $-1 -102.93186858962926 -0.39514841846445847 91.138044872897225 0 1 0 -0.51503808176128008 0 0.85716729658548041 forward_v I I I I #
face $-1 $88 $89 $31 $-1 $90 forward single #
loop $-1 $91 $92 $40 #
cone-surface $-1 -46.654947254828009 1.8185658630730295 6.0646339231073494 0.51503808176128008 0 -0.85716729658548041 0.4285836482927402 0 0.25751904088064004 1 I I 0 1 0.5 forward I I I I #
face $-1 $93 $94 $32 $-1 $95 forward single #
loop $-1 $96 $97 $41 #
cone-surface $-1 -46.654947254828009 5.1391372853792632 6.0646339231073494 0.51503808176128008 0 -0.85716729658548041 0.4285836482927402 0 0.25751904088064004 1 I I 0 1 0.5 forward I I I I #
face $-1 $98 $99 $33 $-1 $100 reversed single #
loop $-1 $-1 $101 $42 #
plane-surface $-1 18.442993104742548 -7.8468685538398155 142.45511760676254 0 -1 0 -0.52991927123019833 0 -0.84804809178421925 forward_v I I I I #
face $-1 $102 $103 $34 $-1 $104 forward single #
loop $-1 $105 $106 $43 #
cone-surface $-1 45.176139790617562 -14.225867842370828 4.6488209878066877 -0.52991927123019833 0 -0.84804809178421925 0.84804809178421925 0 -0.52991927123019833 1 I I 0 1 1 forward I I I I #
face $-1 $107 $108 $35 $-1 $109 forward single #
loop $-1 $110 $111 $44 #
cone-surface $-1 45.176139790617562 -10.39846826925222 4.6488209878066877 -0.52991927123019833 0 -0.84804809178421925 0.84804809178421925 0 -0.52991927123019833 1 I I 0 1 1 forward I I I I #
face $-1 $112 $113 $27 $-1 $114 reversed single #
loop $-1 $-1 $115 $45 #
plane-surface $-1 0 0 -8.7710714153918552 0 0 1 1 0 0 forward_v I I I I #
coedge $-1 $116 $117 $118 $119 forward $46 $-1 #
face $-1 $120 $121 $28 $-1 $122 reversed single #
loop $-1 $-1 $123 $48 #
plane-surface $-1 0 -16.777467557783233 -6.5421266060157626 0 -1 0 0 0 -1 forward_v I I I I #
coedge $-1 $124 $125 $126 $127 reversed $49 $-1 #
face $-1 $128 $129 $29 $-1 $130 reversed single #
loop $-1 $-1 $131 $51 #
plane-surface $-1 0 0 -8.7710714153918552 0 0 1 1 0 0 forward_v I I I I #
coedge $-1 $132 $133 $134 $135 forward $52 $-1 #
face $-1 $136 $137 $30 $-1 $138 reversed single #
loop $-1 $-1 $139 $54 #
plane-surface $-1 -50.703451643421751 3.4788515742261481 4.2153637274083309 -0.51503808176128008 0 0.85716729658548041 0.85716729658548041 0 0.51503808176128008 forward_v I I I I #
coedge $-1 $140 $141 $142 $143 reversed $55 $-1 #
face $-1 $-1 $144 $31 $-1 $145 forward single #
loop $-1 $146 $147 $57 #
cone-surface $-1 -46.268668693507053 1.8185658630730295 5.4217584506682392 0.51503808176128008 0 -0.85716729658548041 0.2142918241463701 0 0.12875952044032002 1 I I -0.70710678118654746 0.70710678118654746 0.25 forward I I I I #
loop $-1 $-1 $148 $40 #
coedge $-1 $92 $92 $149 $150 reversed $58 $-1 #
face $-1 $-1 $151 $32 $-1 $152 forward single #
loop $-1 $153 $154 $60 #
cone-surface $-1 -46.268668693507053 5.1391372853792632 5.4217584506682392 0.51503808176128008 0 -0.85716729658548041 0.2142918241463701 0 0.12875952044032002 1 I I -0.70710678118654746 0.70710678118654746 0.25 forward I I I I #
loop $-1 $-1 $155 $41 #
coedge $-1 $97 $97 $156 $157 reversed $61 $-1 #
face $-1 $158 $159 $33 $-1 $160 reversed single #
loop $-1 $-1 $161 $63 #
plane-surface $-1 -35.294479182732751 -12.312168055811524 56.457186780608069 0.52991927123019833 0 0.84804809178421925 0.84804809178421925 0 -0.52991927123019833 forward_v I I I I #
coedge $-1 $162 $163 $164 $165 reversed $64 $-1 #
face $-1 $-1 $166 $34 $-1 $167 forward single #
loop $-1 $168 $169 $66 #
cone-surface $-1 44.225965928421211 -14.225867842370828 3.1282249754589522 -0.52991927123019833 0 -0.84804809178421925 0.42402404589210962 0 -0.26495963561509916 1 I I -0.70710678118654746 0.70710678118654746 0.5 forward I I I I #
loop $-1 $-1 $170 $43 #
coedge $-1 $106 $106 $171 $172 reversed $67 $-1 #
face $-1 $-1 $173 $35 $-1 $174 forward single #
loop $-1 $175 $176 $69 #
cone-surface $-1 44.225965928421211 -10.39846826925222 3.1282249754589522 -0.52991927123019833 0 -0.84804809178421925 0.42402404589210962 0 -0.26495963561509916 1 I I -0.70710678118654746 0.70710678118654746 0.5 forward I I I I #
loop $-1 $-1 $177 $44 #
coedge $-1 $111 $111 $178 $179 reversed $70 $-1 #
face $-1 $180 $181 $27 $-1 $182 reversed single #
loop $-1 $-1 $183 $72 #
plane-surface $-1 0 -25.427702855790642 0 0 1 0 0 0 1 forward_v I I I I #
coedge $-1 $184 $185 $186 $187 forward $73 $-1 #
coedge $-1 $188 $75 $189 $190 forward $46 $-1 #
coedge $-1 $75 $188 $191 $192 forward $46 $-1 #
coedge $-1 $193 $194 $75 $119 reversed $195 $-1 #
edge $-1 $196 -25.427702855790642 $197 25.427702855790642 $118 $198 forward 7 unknown #
face $-1 $199 $200 $28 $-1 $201 reversed single #
loop $-1 $-1 $202 $76 #
plane-surface $-1 0 0 -8.7710714153918552 0 0 1 1 0 0 forward_v I I I I #
coedge $-1 $203 $204 $205 $206 reversed $77 $-1 #
coedge $-1 $207 $79 $204 $208 forward $49 $-1 #
coedge $-1 $79 $207 $209 $210 reversed $49 $-1 #
coedge $-1 $211 $205 $79 $127 forward $200 $-1 #
edge $-1 $212 6.226174954389764 $213 14.876410252397173 $126 $214 forward 7 unknown #
face $-1 $215 $216 $29 $-1 $217 reversed single #
loop $-1 $-1 $218 $80 #
plane-surface $-1 -36.295788382325682 29.905639031697852 0 1 0 0 0 0 -1 forward_v I I I I #
coedge $-1 $219 $220 $133 $221 forward $81 $-1 #
coedge $-1 $222 $83 $223 $224 reversed $52 $-1 #
coedge $-1 $83 $222 $131 $221 reversed $52 $-1 #
coedge $-1 $225 $226 $83 $135 reversed $227 $-1 #
edge $-1 $228 -8.7710714153918552 $229 8.7710714153918552 $134 $230 forward 7 unknown #
face $-1 $231 $232 $30 $-1 $233 forward single #
loop $-1 $-1 $234 $84 #
plane-surface $-1 -102.93186858962926 7.3528515669167547 91.138044872897225 0 -1 0 0.51503808176128008 0 -0.85716729658548041 forward_v I I I I #
coedge $-1 $235 $236 $237 $238 reversed $85 $-1 #
coedge $-1 $141 $87 $239 $240 reversed $55 $-1 #
coedge $-1 $87 $140 $235 $241 reversed $55 $-1 #
coedge $-1 $237 $242 $87 $143 forward $232 $-1 #
edge $-1 $243 0.76248265139289373 $244 8.3444533468190372 $142 $245 forward 7 unknown #
loop $-1 $-1 $149 $88 #
plane-surface $-1 -50.703451643421751 3.4788515742261481 4.2153637274083309 -0.51503808176128008 0 0.85716729658548041 0.85716729658548041 0 0.51503808176128008 forward_v I I I I #
loop $-1 $-1 $246 $57 #
coedge $-1 $147 $147 $148 $247 reversed $89 $-1 #
coedge $-1 $148 $148 $147 $247 forward $91 $-1 #
coedge $-1 $149 $149 $92 $150 forward $144 $-1 #
edge $-1 $248 0 $248 6.2831853071796004 $149 $249 forward 7 unknown #
loop $-1 $-1 $156 $93 #
plane-surface $-1 -50.703451643421751 3.4788515742261481 4.2153637274083309 -0.51503808176128008 0 0.85716729658548041 0.85716729658548041 0 0.51503808176128008 forward_v I I I I #
loop $-1 $-1 $250 $60 #
coedge $-1 $154 $154 $155 $251 reversed $94 $-1 #
coedge $-1 $155 $155 $154 $251 forward $96 $-1 #
coedge $-1 $156 $156 $97 $157 forward $151 $-1 #
edge $-1 $252 0 $252 6.2831853071796004 $156 $253 forward 7 unknown #
face $-1 $254 $255 $33 $-1 $256 reversed single #
loop $-1 $-1 $257 $98 #
plane-surface $-1 18.442993104742548 -16.777467557783233 142.45511760676254 0 1 0 0.52991927123019833 0 0.84804809178421925 forward_v I I I I #
coedge $-1 $258 $259 $260 $261 reversed $99 $-1 #
coedge $-1 $163 $101 $262 $263 reversed $64 $-1 #
coedge $-1 $101 $162 $258 $264 reversed $64 $-1 #
coedge $-1 $260 $265 $101 $165 forward $266 $-1 #
edge $-1 $267 -41.481955091050466 $268 -31.797759838604616 $164 $269 forward 7 unknown #
loop $-1 $-1 $171 $102 #
plane-surface $-1 -35.294479182732751 -12.312168055811524 56.457186780608069 0.52991927123019833 0 0.84804809178421925 0.84804809178421925 0 -0.52991927123019833 forward_v I I I I #
loop $-1 $-1 $270 $66 #
coedge $-1 $169 $169 $170 $271 reversed $103 $-1 #
coedge $-1 $170 $170 $169 $271 forward $105 $-1 #
coedge $-1 $171 $171 $106 $172 forward $166 $-1 #
edge $-1 $272 0 $272 6.2831853071796004 $171 $273 forward 7 unknown #
loop $-1 $-1 $178 $107 #
plane-surface $-1 -35.294479182732751 -12.312168055811524 56.457186780608069 0.52991927123019833 0 0.84804809178421925 0.84804809178421925 0 -0.52991927123019833 forward_v I I I I #
loop $-1 $-1 $274 $69 #
coedge $-1 $176 $176 $177 $275 reversed $108 $-1 #
coedge $-1 $177 $177 $176 $275 forward $110 $-1 #
coedge $-1 $178 $178 $111 $179 forward $173 $-1 #
edge $-1 $276 0 $276 6.2831853071796004 $178 $277 forward 7 unknown #
face $-1 $278 $279 $27 $-1 $280 reversed single #
loop $-1 $-1 $281 $112 #
plane-surface $-1 -50.703451643421737 0 0 1 0 0 0 0 -1 forward_v I I I I #
coedge $-1 $282 $191 $283 $284 forward $113 $-1 #
coedge $-1 $285 $115 $282 $286 forward $73 $-1 #
coedge $-1 $115 $285 $287 $288 forward $73 $-1 #
coedge $-1 $194 $193 $115 $187 reversed $195 $-1 #
edge $-1 $289 -25.427702855790642 $290 25.427702855790642 $186 $291 forward 7 unknown #
coedge $-1 $117 $116 $292 $293 forward $46 $-1 #
coedge $-1 $294 $295 $116 $190 reversed $279 $-1 #
edge $-1 $197 -50.703451643421737 $296 50.703451643421737 $189 $297 forward 7 unknown #
coedge $-1 $183 $298 $117 $192 reversed $113 $-1 #
edge $-1 $299 -50.703451643421737 $196 50.703451643421737 $191 $300 forward 7 unknown #
coedge $-1 $186 $118 $298 $301 forward $195 $-1 #
coedge $-1 $118 $186 $294 $302 reversed $195 $-1 #
loop $-1 $-1 $193 $278 #
vertex $-1 $119 $303 #
vertex $-1 $119 $304 #
straight-curve $-1 50.703451643421737 0 8.7710714153918552 0 1 0 I I #
face $-1 $305 $306 $28 $-1 $307 reversed single #
loop $-1 $-1 $205 $120 #
plane-surface $-1 50.703451643421737 0 0 -1 0 0 0 0 1 forward_v I I I I #
coedge $-1 $308 $309 $203 $310 forward $121 $-1 #
coedge $-1 $311 $123 $202 $310 reversed $77 $-1 #
coedge $-1 $123 $311 $124 $208 reversed $77 $-1 #
coedge $-1 $126 $312 $123 $206 forward $200 $-1 #
edge $-1 $313 -5.5000081123839735 $212 -1.0421184936317887 $205 $314 forward 7 unknown #
coedge $-1 $125 $124 $315 $316 reversed $49 $-1 #
edge $-1 $212 -50.703451643421737 $317 50.703451643421737 $204 $318 forward 7 unknown #
coedge $-1 $319 $320 $125 $210 forward $306 $-1 #
edge $-1 $213 -50.703451643421737 $321 50.703451643421737 $209 $322 forward 7 unknown #
coedge $-1 $312 $126 $320 $323 forward $200 $-1 #
vertex $-1 $127 $324 #
vertex $-1 $323 $325 #
straight-curve $-1 50.703451643421737 -10.551292603393469 -4.3131817966396699 0 -1 0 I I #
face $-1 $326 $227 $29 $-1 $327 reversed single #
loop $-1 $-1 $328 $128 #
plane-surface $-1 -34.728548597481854 34.383575207605062 0 0 -1 0 0 0 -1 forward_v I I I I #
coedge $-1 $329 $330 $331 $332 forward $129 $-1 #
coedge $-1 $333 $131 $329 $334 forward $81 $-1 #
coedge $-1 $131 $333 $225 $335 forward $81 $-1 #
edge $-1 $228 33.161308812638026 $336 36.295788382325682 $131 $337 forward 7 unknown #
coedge $-1 $133 $132 $338 $339 forward $52 $-1 #
coedge $-1 $340 $341 $132 $224 forward $342 $-1 #
edge $-1 $343 -36.295788382325682 $229 -33.161308812638026 $223 $344 forward 7 unknown #
coedge $-1 $345 $134 $220 $335 reversed $227 $-1 #
coedge $-1 $134 $345 $340 $346 reversed $227 $-1 #
loop $-1 $-1 $134 $215 #
vertex $-1 $221 $347 #
vertex $-1 $346 $348 #
straight-curve $-1 -33.161308812638026 25.427702855790642 0 0 0 1 I I #
face $-1 $-1 $349 $30 $-1 $350 reversed single #
loop $-1 $-1 $142 $136 #
plane-surface $-1 0 0 8.7710714153918552 0 0 1 1 0 0 forward_v I I I I #
coedge $-1 $351 $352 $353 $354 reversed $137 $-1 #
coedge $-1 $355 $139 $141 $241 forward $85 $-1 #
coedge $-1 $139 $355 $351 $356 forward $85 $-1 #
coedge $-1 $353 $142 $139 $238 forward $232 $-1 #
edge $-1 $244 -2.1345742055775325 $357 5.6134257798036806 $237 $358 forward 7 unknown #
coedge $-1 $359 $360 $140 $240 forward $349 $-1 #
edge $-1 $361 -41.353658709040275 $243 -36.797951021056761 $239 $362 forward 7 unknown #
edge $-1 $244 -8.8453802724729247 $361 -1.6755537013839907e-014 $141 $363 forward 7 unknown #
coedge $-1 $142 $353 $359 $364 forward $232 $-1 #
vertex $-1 $240 $365 #
vertex $-1 $143 $366 #
straight-curve $-1 -51.46593429481463 -0.39514841846445847 8.7710714153918587 1 0 0 I I #
coedge $-1 $246 $246 $-1 $367 reversed $146 $-1 #
edge $-1 $368 0 $368 6.2831853071796004 $147 $369 forward 7 unknown #
vertex $-1 $150 $370 #
ellipse-curve $-1 -46.912466295708654 1.8185658630730295 6.4932175714001019 -0.51503808176128008 0 0.85716729658548041 0.4285836482927402 0 0.25751904088064004 1 I I #
coedge $-1 $250 $250 $-1 $371 reversed $153 $-1 #
edge $-1 $372 0 $372 6.2831853071796004 $154 $373 forward 7 unknown #
vertex $-1 $157 $374 #
ellipse-curve $-1 -46.912466295708654 5.1391372853792632 6.4932175714001019 -0.51503808176128008 0 0.85716729658548041 0.4285836482927402 0 0.25751904088064004 1 I I #
face $-1 $-1 $266 $33 $-1 $375 forward single #
loop $-1 $-1 $376 $158 #
plane-surface $-1 50.703451643421737 0 0 -1 0 0 0 0 1 forward_v I I I I #
coedge $-1 $377 $378 $379 $380 reversed $159 $-1 #
coedge $-1 $381 $161 $163 $264 forward $99 $-1 #
coedge $-1 $161 $381 $377 $382 forward $99 $-1 #
coedge $-1 $379 $164 $161 $261 forward $266 $-1 #
edge $-1 $268 1.6907845259340535 $383 10.62138352987747 $260 $384 forward 7 unknown #
coedge $-1 $385 $386 $162 $263 forward $255 $-1 #
edge $-1 $387 -68.507844310248515 $267 -62.456487387989412 $262 $388 forward 7 unknown #
edge $-1 $268 89.987509332343635 $387 101.40690328684349 $163 $389 forward 7 unknown #
coedge $-1 $164 $379 $385 $390 forward $266 $-1 #
loop $-1 $-1 $379 $254 #
vertex $-1 $263 $391 #
vertex $-1 $165 $392 #
straight-curve $-1 9.2214965523712742 -7.8468685538398155 8.7710714153918587 -1 0 0 I I #
coedge $-1 $270 $270 $-1 $393 reversed $168 $-1 #
edge $-1 $394 0 $394 6.2831853071796004 $169 $395 forward 7 unknown #
vertex $-1 $172 $396 #
ellipse-curve $-1 45.861354017198813 -14.225867842370828 5.7453929542623126 0.52991927123019833 0 0.84804809178421925 0.84804809178421925 0 -0.52991927123019833 1 I I #
coedge $-1 $274 $274 $-1 $397 reversed $175 $-1 #
edge $-1 $398 0 $398 6.2831853071796004 $176 $399 forward 7 unknown #
vertex $-1 $179 $400 #
ellipse-curve $-1 45.861354017198813 -10.39846826925222 5.7453929542623126 0.52991927123019833 0 0.84804809178421925 0.84804809178421925 0 -0.52991927123019833 1 I I #
face $-1 $-1 $195 $27 $-1 $401 reversed single #
loop $-1 $-1 $294 $180 #
plane-surface $-1 0 25.427702855790642 0 0 -1 0 0 0 -1 forward_v I I I I #
coedge $-1 $402 $292 $295 $403 forward $181 $-1 #
coedge $-1 $298 $183 $184 $286 reversed $113 $-1 #
coedge $-1 $292 $402 $183 $284 reversed $181 $-1 #
edge $-1 $299 -8.7710714153918552 $404 8.7710714153918552 $283 $405 forward 7 unknown #
coedge $-1 $185 $184 $402 $406 forward $73 $-1 #
edge $-1 $290 -50.703451643421737 $404 50.703451643421737 $282 $407 forward 7 unknown #
coedge $-1 $295 $294 $185 $288 reversed $279 $-1 #
edge $-1 $408 -50.703451643421737 $289 50.703451643421737 $287 $409 forward 7 unknown #
vertex $-1 $187 $410 #
vertex $-1 $301 $411 #
straight-curve $-1 50.703451643421737 0 -8.7710714153918552 0 -1 0 I I #
coedge $-1 $281 $283 $188 $293 reversed $181 $-1 #
edge $-1 $296 -25.427702855790642 $299 25.427702855790642 $292 $412 forward 7 unknown #
coedge $-1 $287 $189 $194 $302 forward $279 $-1 #
coedge $-1 $189 $287 $281 $403 reversed $279 $-1 #
vertex $-1 $190 $413 #
straight-curve $-1 0 25.427702855790642 8.7710714153918552 -1 0 0 I I #
coedge $-1 $191 $282 $193 $301 reversed $113 $-1 #
vertex $-1 $293 $414 #
straight-curve $-1 0 -25.427702855790642 8.7710714153918552 1 0 0 I I #
edge $-1 $196 -8.7710714153918552 $290 8.7710714153918552 $193 $415 forward 7 unknown #
edge $-1 $197 -8.7710714153918552 $289 8.7710714153918552 $194 $416 forward 7 unknown #
point $-1 50.703451643421737 -25.427702855790642 8.7710714153918552 #
point $-1 50.703451643421737 25.427702855790642 8.7710714153918552 #
face $-1 $-1 $417 $28 $-1 $418 reversed single #
loop $-1 $-1 $209 $199 #
plane-surface $-1 0 -25.427702855790642 0 0 1 0 0 0 1 forward_v I I I I #
coedge $-1 $419 $202 $312 $420 forward $121 $-1 #
coedge $-1 $202 $419 $421 $422 forward $121 $-1 #
edge $-1 $423 -50.703451643421737 $313 50.703451643421737 $202 $424 forward 7 unknown #
coedge $-1 $204 $203 $425 $426 reversed $77 $-1 #
coedge $-1 $205 $211 $308 $420 reversed $200 $-1 #
vertex $-1 $420 $427 #
straight-curve $-1 50.703451643421737 -16.777467557783233 -3.2710633030078813 0 0 1 I I #
coedge $-1 $425 $428 $207 $316 forward $417 $-1 #
edge $-1 $321 -14.876410252397173 $317 -6.226174954389764 $315 $429 forward 7 unknown #
vertex $-1 $316 $430 #
straight-curve $-1 0 -16.777467557783233 -4.3131817966396699 -1 0 0 I I #
coedge $-1 $431 $209 $428 $432 forward $306 $-1 #
coedge $-1 $209 $431 $211 $323 reversed $306 $-1 #
vertex $-1 $432 $433 #
straight-curve $-1 0 -25.427702855790642 -4.3131817966396699 -1 0 0 I I #
edge $-1 $213 4.3131817966396699 $434 8.7710714153918552 $211 $435 forward 7 unknown #
point $-1 50.703451643421737 -16.777467557783233 -4.3131817966396699 #
point $-1 50.703451643421737 -25.427702855790642 -4.3131817966396699 #
face $-1 $-1 $342 $29 $-1 $436 forward single #
plane-surface $-1 -33.161308812638026 29.905639031697852 0 -1 0 0 0 0 1 forward_v I I I I #
coedge $-1 $437 $438 $345 $439 forward $216 $-1 #
coedge $-1 $338 $218 $219 $334 reversed $129 $-1 #
coedge $-1 $218 $338 $341 $440 reversed $129 $-1 #
coedge $-1 $438 $437 $218 $332 reversed $216 $-1 #
edge $-1 $441 -8.7710714153918552 $442 8.7710714153918552 $331 $443 forward 7 unknown #
coedge $-1 $220 $219 $437 $444 forward $81 $-1 #
edge $-1 $336 -4.4779361759072103 $442 4.4779361759072103 $329 $445 forward 7 unknown #
edge $-1 $446 -4.4779361759072103 $228 4.4779361759072103 $225 $447 forward 7 unknown #
vertex $-1 $334 $448 #
straight-curve $-1 0 25.427702855790642 -8.7710714153918552 -1 0 0 I I #
coedge $-1 $330 $329 $222 $339 reversed $129 $-1 #
edge $-1 $343 -8.7710714153918552 $336 8.7710714153918552 $338 $449 forward 7 unknown #
coedge $-1 $450 $223 $226 $346 forward $342 $-1 #
coedge $-1 $223 $450 $330 $440 forward $342 $-1 #
loop $-1 $-1 $223 $326 #
vertex $-1 $224 $451 #
straight-curve $-1 0 25.427702855790642 8.7710714153918552 1 0 0 I I #
coedge $-1 $226 $225 $328 $439 reversed $227 $-1 #
edge $-1 $229 -4.4779361759072103 $452 4.4779361759072103 $226 $453 forward 7 unknown #
point $-1 -33.161308812638026 25.427702855790642 -8.7710714153918552 #
point $-1 -33.161308812638026 25.427702855790642 8.7710714153918552 #
loop $-1 $-1 $239 $231 #
plane-surface $-1 -50.703451643421737 0 0 1 0 0 0 0 -1 forward_v I I I I #
coedge $-1 $352 $234 $236 $356 reversed $137 $-1 #
coedge $-1 $234 $351 $454 $455 reversed $137 $-1 #
coedge $-1 $242 $237 $234 $354 forward $232 $-1 #
edge $-1 $357 -8.3444533468190372 $456 -0.76248265139289373 $353 $457 forward 7 unknown #
coedge $-1 $236 $235 $360 $458 reversed $85 $-1 #
edge $-1 $459 1.6755537013839907e-014 $357 8.8453802724729247 $351 $460 forward 7 unknown #
vertex $-1 $238 $461 #
straight-curve $-1 -43.121480947995593 1.7394257871130741 8.7710714153918552 0 1 0 I I #
coedge $-1 $454 $239 $242 $364 reversed $349 $-1 #
coedge $-1 $239 $454 $355 $458 forward $349 $-1 #
vertex $-1 $240 $462 #
straight-curve $-1 -50.703451643421737 -0.39514841846445847 45.569022436448613 0 0 1 I I #
straight-curve $-1 -50.703451643421751 -0.39514841846445847 4.2153637274083309 -0.85716729658548041 0 -0.51503808176128008 I I #
edge $-1 $456 -7.3528515669167547 $243 0.39514841846445847 $359 $463 forward 7 unknown #
point $-1 -50.703451643421737 -0.39514841846445847 8.7710714153918552 #
point $-1 -43.121480947995593 -0.39514841846445847 8.7710714153918552 #
edge $-1 $464 1 $464 0 $246 $-1 forward 7 unknown #
vertex $-1 $247 $465 #
ellipse-curve $-1 -46.397428213947371 1.8185658630730295 5.6360502748146093 -0.51503808176128008 0 0.85716729658548041 0.4285836482927402 0 0.25751904088064004 1 I I #
point $-1 -46.483882647415911 1.8185658630730295 6.75073661228073 #
edge $-1 $466 1 $466 0 $250 $-1 forward 7 unknown #
vertex $-1 $251 $467 #
ellipse-curve $-1 -46.397428213947371 5.1391372853792632 5.6360502748146093 -0.51503808176128008 0 0.85716729658548041 0.4285836482927402 0 0.25751904088064004 1 I I #
point $-1 -46.483882647415911 5.1391372853792632 6.75073661228073 #
plane-surface $-1 0 0 8.7710714153918552 0 0 1 1 0 0 forward_v I I I I #
coedge $-1 $386 $385 $378 $468 forward $255 $-1 #
coedge $-1 $378 $257 $259 $382 reversed $159 $-1 #
coedge $-1 $257 $377 $376 $468 reversed $159 $-1 #
coedge $-1 $265 $260 $257 $380 forward $266 $-1 #
edge $-1 $383 31.797759838604616 $469 41.481955091050466 $379 $470 forward 7 unknown #
coedge $-1 $259 $258 $386 $471 reversed $99 $-1 #
edge $-1 $472 -101.40690328684349 $383 -89.987509332343635 $377 $473 forward 7 unknown #
vertex $-1 $261 $474 #
straight-curve $-1 41.019256390975912 -6.156084027905762 8.7710714153918445 0 -1 0 I I #
coedge $-1 $376 $262 $265 $390 reversed $255 $-1 #
coedge $-1 $262 $376 $381 $471 forward $255 $-1 #
vertex $-1 $263 $475 #
straight-curve $-1 50.703451643421737 -7.8468685538398155 71.227558803381271 0 0 1 I I #
straight-curve $-1 -35.294479182732751 -7.8468685538398155 56.457186780608069 0.84804809178421925 0 -0.52991927123019833 I I #
edge $-1 $469 -16.777467557783233 $267 -7.8468685538398155 $385 $476 forward 7 unknown #
point $-1 50.703451643421737 -7.8468685538398155 8.7710714153918552 #
point $-1 41.01925639097589 -7.8468685538398155 8.7710714153918587 #
edge $-1 $477 1 $477 0 $270 $-1 forward 7 unknown #
vertex $-1 $271 $478 #
ellipse-curve $-1 44.49092556403631 -14.225867842370828 3.552249021351062 0.52991927123019833 0 0.84804809178421925 0.84804809178421925 0 -0.52991927123019833 1 I I #
point $-1 46.709402108983035 -14.225867842370828 5.2154736830321147 #
edge $-1 $479 1 $479 0 $274 $-1 forward 7 unknown #
vertex $-1 $275 $480 #
ellipse-curve $-1 44.49092556403631 -10.39846826925222 3.552249021351062 0.52991927123019833 0 0.84804809178421925 0.84804809178421925 0 -0.52991927123019833 1 I I #
point $-1 46.709402108983035 -10.39846826925222 5.2154736830321147 #
plane-surface $-1 50.703451643421737 0 0 -1 0 0 0 0 1 forward_v I I I I #
coedge $-1 $283 $281 $285 $406 reversed $181 $-1 #
edge $-1 $296 -8.7710714153918552 $408 8.7710714153918552 $295 $481 forward 7 unknown #
vertex $-1 $406 $482 #
straight-curve $-1 -50.703451643421737 -25.427702855790642 0 0 0 -1 I I #
edge $-1 $404 -25.427702855790642 $408 25.427702855790642 $402 $483 forward 7 unknown #
straight-curve $-1 0 -25.427702855790642 -8.7710714153918552 -1 0 0 I I #
vertex $-1 $288 $484 #
straight-curve $-1 0 25.427702855790642 -8.7710714153918552 1 0 0 I I #
point $-1 50.703451643421737 25.427702855790642 -8.7710714153918552 #
point $-1 50.703451643421737 -25.427702855790642 -8.7710714153918552 #
straight-curve $-1 -50.703451643421737 0 8.7710714153918552 0 -1 0 I I #
point $-1 -50.703451643421737 25.427702855790642 8.7710714153918552 #
point $-1 -50.703451643421737 -25.427702855790642 8.7710714153918552 #
straight-curve $-1 50.703451643421737 -25.427702855790642 0 0 0 -1 I I #
straight-curve $-1 50.703451643421737 25.427702855790642 0 0 0 -1 I I #
loop $-1 $-1 $425 $305 #
plane-surface $-1 -50.703451643421737 0 0 1 0 0 0 0 -1 forward_v I I I I #
coedge $-1 $309 $308 $431 $485 forward $121 $-1 #
edge $-1 $313 16.777467557783233 $434 25.427702855790642 $312 $486 forward 7 unknown #
coedge $-1 $428 $425 $309 $422 reversed $417 $-1 #
edge $-1 $487 -25.427702855790642 $423 -16.777467557783233 $421 $488 forward 7 unknown #
vertex $-1 $426 $489 #
straight-curve $-1 0 -16.777467557783233 -8.7710714153918552 1 0 0 I I #
coedge $-1 $421 $315 $311 $426 forward $417 $-1 #
edge $-1 $317 1.0421184936317887 $423 5.5000081123839735 $425 $490 forward 7 unknown #
point $-1 50.703451643421737 -16.777467557783233 -8.7710714153918552 #
coedge $-1 $315 $421 $319 $432 reversed $417 $-1 #
straight-curve $-1 -50.703451643421737 -10.551292603393469 -4.3131817966396699 0 1 0 I I #
point $-1 -50.703451643421737 -16.777467557783233 -4.3131817966396699 #
coedge $-1 $320 $319 $419 $485 reversed $306 $-1 #
edge $-1 $321 4.3131817966396699 $487 8.7710714153918552 $428 $491 forward 7 unknown #
point $-1 -50.703451643421737 -25.427702855790642 -4.3131817966396699 #
vertex $-1 $323 $492 #
straight-curve $-1 50.703451643421737 -25.427702855790642 0 0 0 -1 I I #
plane-surface $-1 0 0 8.7710714153918552 0 0 1 1 0 0 forward_v I I I I #
coedge $-1 $331 $328 $333 $444 reversed $216 $-1 #
coedge $-1 $328 $331 $450 $493 reversed $216 $-1 #
edge $-1 $452 -8.7710714153918552 $446 8.7710714153918552 $345 $494 forward 7 unknown #
edge $-1 $441 -4.4779361759072103 $343 4.4779361759072103 $330 $495 forward 7 unknown #
vertex $-1 $493 $496 #
vertex $-1 $444 $497 #
straight-curve $-1 -36.295788382325682 34.383575207605062 0 0 0 -1 I I #
edge $-1 $442 -1.567239784843828 $446 1.567239784843828 $437 $498 forward 7 unknown #
straight-curve $-1 -36.295788382325682 29.905639031697852 -8.7710714153918552 0 1 0 I I #
vertex $-1 $335 $499 #
straight-curve $-1 -33.161308812638026 29.905639031697852 -8.7710714153918552 0 -1 0 I I #
point $-1 -36.295788382325682 25.427702855790642 -8.7710714153918552 #
straight-curve $-1 -36.295788382325682 25.427702855790642 0 0 0 -1 I I #
coedge $-1 $341 $340 $438 $493 forward $342 $-1 #
point $-1 -36.295788382325682 25.427702855790642 8.7710714153918552 #
vertex $-1 $346 $500 #
straight-curve $-1 -33.161308812638026 29.905639031697852 8.7710714153918552 0 1 0 I I #
coedge $-1 $360 $359 $352 $455 forward $349 $-1 #
edge $-1 $456 36.797951021056761 $459 41.353658709040275 $454 $501 forward 7 unknown #
vertex $-1 $364 $502 #
straight-curve $-1 -51.46593429481463 7.3528515669167547 8.7710714153918587 -1 0 0 I I #
edge $-1 $459 -5.6134257798036806 $361 2.1345742055775325 $360 $503 forward 7 unknown #
vertex $-1 $458 $504 #
straight-curve $-1 -50.703451643421751 7.3528515669167547 4.2153637274083309 0.85716729658548041 0 0.51503808176128008 I I #
point $-1 -43.121480947995593 7.3528515669167547 8.7710714153918552 #
point $-1 -50.703451643421737 -0.39514841846445847 4.2153637274083398 #
straight-curve $-1 -50.703451643421737 0 8.7710714153918552 0 -1 0 I I #
vertex $-1 $367 $505 #
point $-1 -45.968844565654635 1.8185658630730295 5.8935693156952498 #
vertex $-1 $371 $506 #
point $-1 -45.968844565654635 5.1391372853792632 5.8935693156952498 #
edge $-1 $469 62.456487387989412 $472 68.507844310248515 $376 $507 forward 7 unknown #
vertex $-1 $390 $508 #
straight-curve $-1 9.2214965523712742 -16.777467557783233 8.7710714153918587 1 0 0 I I #
edge $-1 $472 -10.62138352987747 $387 -1.6907845259340535 $386 $509 forward 7 unknown #
vertex $-1 $471 $510 #
straight-curve $-1 -35.294479182732751 -16.777467557783233 56.457186780608069 -0.84804809178421925 0 0.52991927123019833 I I #
point $-1 41.01925639097589 -16.777467557783233 8.7710714153918587 #
point $-1 50.703451643421737 -7.8468685538398155 2.7197144931327628 #
straight-curve $-1 50.703451643421737 0 8.7710714153918552 0 1 0 I I #
vertex $-1 $393 $511 #
point $-1 45.338973655820531 -14.225867842370828 3.0223297501208632 #
vertex $-1 $397 $512 #
point $-1 45.338973655820531 -10.39846826925222 3.0223297501208632 #
straight-curve $-1 -50.703451643421737 25.427702855790642 0 0 0 -1 I I #
point $-1 -50.703451643421737 -25.427702855790642 -8.7710714153918552 #
straight-curve $-1 -50.703451643421737 0 -8.7710714153918552 0 1 0 I I #
point $-1 -50.703451643421737 25.427702855790642 -8.7710714153918552 #
edge $-1 $434 -50.703451643421737 $487 50.703451643421737 $431 $513 forward 7 unknown #
straight-curve $-1 50.703451643421737 0 -8.7710714153918552 0 -1 0 I I #
vertex $-1 $422 $514 #
straight-curve $-1 -50.703451643421737 0 -8.7710714153918552 0 1 0 I I #
point $-1 -50.703451643421737 -16.777467557783233 -8.7710714153918552 #
straight-curve $-1 -50.703451643421737 -16.777467557783233 -3.2710633030078813 0 0 -1 I I #
straight-curve $-1 -50.703451643421737 -25.427702855790642 0 0 0 -1 I I #
point $-1 50.703451643421737 -25.427702855790642 -8.7710714153918552 #
edge $-1 $452 -1.567239784843828 $441 1.567239784843828 $438 $515 forward 7 unknown #
straight-curve $-1 -33.161308812638026 34.383575207605062 0 0 0 -1 I I #
straight-curve $-1 -36.295788382325682 29.905639031697852 8.7710714153918552 0 -1 0 I I #
point $-1 -36.295788382325682 34.383575207605062 8.7710714153918552 #
point $-1 -36.295788382325682 34.383575207605062 -8.7710714153918552 #
straight-curve $-1 -34.728548597481854 34.383575207605062 -8.7710714153918552 1 0 0 I I #
point $-1 -33.161308812638026 34.383575207605062 -8.7710714153918552 #
point $-1 -33.161308812638026 34.383575207605062 8.7710714153918552 #
straight-curve $-1 -50.703451643421737 7.3528515669167547 45.569022436448613 0 0 -1 I I #
point $-1 -50.703451643421737 7.3528515669167547 8.7710714153918552 #
straight-curve $-1 -50.703451643421737 1.7394257871130741 4.2153637274083389 0 -1 0 I I #
point $-1 -50.703451643421737 7.3528515669167547 4.2153637274083398 #
point $-1 -46.139909173066734 1.8185658630730295 5.2074666265218692 #
point $-1 -46.139909173066734 5.1391372853792632 5.2074666265218692 #
straight-curve $-1 50.703451643421737 -16.777467557783233 71.227558803381271 0 0 -1 I I #
point $-1 50.703451643421737 -16.777467557783233 8.7710714153918552 #
straight-curve $-1 50.703451643421737 -6.156084027905762 2.7197144931327593 0 1 0 I I #
point $-1 50.703451643421737 -16.777467557783233 2.7197144931327628 #
point $-1 43.961006292806111 -14.225867842370828 2.7042009295668423 #
point $-1 43.961006292806111 -10.39846826925222 2.7042009295668423 #
straight-curve $-1 0 -25.427702855790642 -8.7710714153918552 -1 0 0 I I #
point $-1 -50.703451643421737 -25.427702855790642 -8.7710714153918552 #
straight-curve $-1 -34.728548597481854 34.383575207605062 8.7710714153918552 -1 0 0 I I #
End-of-ACIS-data 