500 0 4 0           
7 Unknown 11 ACIS 5.0 NT 24 Fri Mar 26 19:51:00 1999 
-1 9.9999999999999995e-007 1e-010 
body $-1 $4 $-1 $5 #
body $-1 $6 $-1 $7 #
body $-1 $8 $-1 $9 #
body $-1 $10 $-1 $11 #
lump $-1 $-1 $12 $0 #
transform $-1 1 0 0 0 1 0 0 0 1 54.568315683462018 24.955840871698715 8.5655800026748494 1 rotate no_reflect no_shear #
lump $-1 $-1 $13 $1 #
transform $-1 1 0 0 0 1 0 0 0 1 54.568315683462018 24.955840871698715 8.5655800026748494 1 rotate no_reflect no_shear #
lump $-1 $-1 $14 $2 #
transform $-1 1 0 0 0 1 0 0 0 1 54.568315683462018 24.955840871698715 8.5655800026748494 1 rotate no_reflect no_shear #
lump $-1 $-1 $15 $3 #
transform $-1 1 0 0 0 1 0 0 0 1 54.568315683462018 24.955840871698715 8.5655800026748494 1 rotate no_reflect no_shear #
shell $-1 $-1 $-1 $16 $-1 $4 #
shell $-1 $-1 $-1 $17 $-1 $6 #
shell $-1 $-1 $-1 $18 $-1 $8 #
shell $-1 $-1 $-1 $19 $-1 $10 #
face $-1 $20 $21 $12 $-1 $22 forward single #
face $-1 $23 $24 $13 $-1 $25 reversed single #
face $-1 $26 $27 $14 $-1 $28 forward single #
face $-1 $29 $30 $15 $-1 $31 reversed single #
face $-1 $32 $33 $12 $-1 $34 reversed single #
loop $-1 $-1 $35 $16 #
plane-surface $-1 0 0 8.5655800026748494 0 0 1 1 0 0 forward_v I I I I #
face $-1 $36 $37 $13 $-1 $38 reversed single #
loop $-1 $-1 $39 $17 #
plane-surface $-1 -59.248271817355487 -15.732367886596872 0 0 1 0 0 0 1 forward_v I I I I #
face $-1 $40 $41 $14 $-1 $42 forward single #
loop $-1 $-1 $43 $18 #
plane-surface $-1 -35.910051726809158 -20.129755842263851 64.641887667783976 0.55919291073839883 0 0.82903756765294845 0.82903756765294845 0 -0.55919291073839883 forward_v I I I I #
face $-1 $44 $45 $15 $-1 $46 reversed single #
loop $-1 $47 $48 $19 #
cone-surface $-1 48.682493256071773 -20.129755842263851 2.805778852787939 -0.55919291073839883 0 -0.82903756765294845 1.6580751353058969 0 -1.1183858214767977 1 I I 0 1 2 forward I I I I #
face $-1 $49 $50 $12 $-1 $51 reversed single #
loop $-1 $-1 $52 $20 #
plane-surface $-1 0 0 -8.5655800026748494 0 0 1 1 0 0 forward_v I I I I #
coedge $-1 $53 $54 $55 $56 forward $21 $-1 #
face $-1 $57 $58 $13 $-1 $59 reversed single #
loop $-1 $-1 $60 $23 #
plane-surface $-1 -63.928227951248957 -13.662350540877664 0 1 0 0 0 0 -1 forward_v I I I I #
coedge $-1 $61 $62 $63 $64 forward $24 $-1 #
face $-1 $65 $66 $14 $-1 $67 reversed single #
loop $-1 $-1 $68 $26 #
plane-surface $-1 25.11837883544473 -15.303670812828987 155.12025507805515 0 -1 0 -0.55919291073839883 0 -0.82903756765294845 forward_v I I I I #
coedge $-1 $69 $70 $71 $72 reversed $27 $-1 #
face $-1 $73 $74 $15 $-1 $75 forward single #
loop $-1 $76 $77 $29 #
cone-surface $-1 45.908389907819881 -20.129755842263851 -1.3069984161795389 -0.55919291073839883 0 -0.82903756765294845 0.82903756765294845 0 -0.55919291073839883 1 I I -0.70710678118654746 0.70710678118654746 1 forward I I I I #
loop $-1 $-1 $78 $19 #
coedge $-1 $48 $48 $79 $80 reversed $30 $-1 #
face $-1 $81 $82 $12 $-1 $83 reversed single #
loop $-1 $-1 $84 $32 #
plane-surface $-1 0 -24.955840871698715 0 0 1 0 0 0 1 forward_v I I I I #
coedge $-1 $85 $86 $87 $88 forward $33 $-1 #
coedge $-1 $89 $35 $90 $91 forward $21 $-1 #
coedge $-1 $35 $89 $92 $93 forward $21 $-1 #
coedge $-1 $94 $95 $35 $56 reversed $96 $-1 #
edge $-1 $97 -24.955840871698715 $98 24.955840871698715 $55 $99 forward 7 unknown #
face $-1 $100 $101 $13 $-1 $102 reversed single #
loop $-1 $-1 $103 $36 #
plane-surface $-1 -59.248271817355487 -11.592333195158457 0 0 -1 0 0 0 -1 forward_v I I I I #
coedge $-1 $104 $105 $106 $107 forward $37 $-1 #
coedge $-1 $108 $39 $109 $110 reversed $24 $-1 #
coedge $-1 $39 $108 $111 $112 reversed $24 $-1 #
coedge $-1 $105 $104 $39 $64 reversed $37 $-1 #
edge $-1 $113 -8.5655800026748494 $114 8.5655800026748494 $63 $115 forward 7 unknown #
face $-1 $116 $117 $14 $-1 $118 reversed single #
loop $-1 $-1 $119 $40 #
plane-surface $-1 54.568315683462018 0 0 -1 0 0 0 0 1 forward_v I I I I #
coedge $-1 $120 $121 $119 $122 reversed $41 $-1 #
coedge $-1 $123 $43 $121 $124 reversed $27 $-1 #
coedge $-1 $43 $123 $125 $126 reversed $27 $-1 #
coedge $-1 $127 $119 $43 $72 forward $66 $-1 #
edge $-1 $128 5.2387928916970612 $129 14.89096295056679 $71 $130 forward 7 unknown #
face $-1 $131 $132 $15 $-1 $133 forward single #
loop $-1 $134 $79 $44 #
plane-surface $-1 -35.910051726809158 -20.129755842263851 64.641887667783976 0.55919291073839883 0 0.82903756765294845 0.82903756765294845 0 -0.55919291073839883 forward_v I I I I #
loop $-1 $-1 $135 $29 #
coedge $-1 $77 $77 $78 $136 forward $45 $-1 #
coedge $-1 $78 $78 $77 $136 reversed $47 $-1 #
coedge $-1 $79 $79 $48 $80 forward $74 $-1 #
edge $-1 $137 0 $137 6.2831853071796004 $79 $138 forward 7 unknown #
face $-1 $139 $140 $12 $-1 $141 reversed single #
loop $-1 $-1 $142 $49 #
plane-surface $-1 -54.568315683462018 0 0 1 0 0 0 0 -1 forward_v I I I I #
coedge $-1 $143 $92 $144 $145 forward $50 $-1 #
coedge $-1 $146 $52 $143 $147 forward $33 $-1 #
coedge $-1 $52 $146 $148 $149 forward $33 $-1 #
coedge $-1 $95 $94 $52 $88 reversed $96 $-1 #
edge $-1 $150 -24.955840871698715 $151 24.955840871698715 $87 $152 forward 7 unknown #
coedge $-1 $54 $53 $153 $154 forward $21 $-1 #
coedge $-1 $155 $156 $53 $91 reversed $140 $-1 #
edge $-1 $98 -54.568315683462018 $157 54.568315683462018 $90 $158 forward 7 unknown #
coedge $-1 $84 $159 $54 $93 reversed $50 $-1 #
edge $-1 $160 -54.568315683462018 $97 54.568315683462018 $92 $161 forward 7 unknown #
coedge $-1 $87 $55 $159 $162 forward $96 $-1 #
coedge $-1 $55 $87 $155 $163 reversed $96 $-1 #
loop $-1 $-1 $94 $139 #
vertex $-1 $56 $164 #
vertex $-1 $56 $165 #
straight-curve $-1 54.568315683462018 0 8.5655800026748494 0 1 0 I I #
face $-1 $166 $167 $13 $-1 $102 reversed single #
loop $-1 $-1 $168 $57 #
plane-surface $-1 -54.568315683462018 0 0 1 0 0 0 0 -1 forward_v I I I I #
coedge $-1 $169 $170 $168 $171 reversed $58 $-1 #
coedge $-1 $63 $60 $172 $173 reversed $37 $-1 #
coedge $-1 $60 $63 $174 $175 reversed $37 $-1 #
coedge $-1 $170 $169 $60 $107 reversed $58 $-1 #
edge $-1 $176 -8.5655800026748494 $177 8.5655800026748494 $106 $178 forward 7 unknown #
coedge $-1 $62 $61 $179 $180 reversed $24 $-1 #
coedge $-1 $172 $181 $61 $110 forward $182 $-1 #
edge $-1 $183 -4.6799561338934694 $114 4.6799561338934694 $61 $184 forward 7 unknown #
coedge $-1 $185 $174 $62 $112 forward $186 $-1 #
edge $-1 $113 -4.6799561338934694 $187 4.6799561338934694 $62 $188 forward 7 unknown #
vertex $-1 $175 $189 #
vertex $-1 $173 $190 #
straight-curve $-1 -63.928227951248957 -15.732367886596872 0 0 0 -1 I I #
face $-1 $191 $192 $14 $-1 $193 reversed single #
loop $-1 $-1 $125 $65 #
plane-surface $-1 0 -24.955840871698715 0 0 1 0 0 0 1 forward_v I I I I #
coedge $-1 $71 $194 $68 $122 forward $66 $-1 #
coedge $-1 $121 $68 $195 $196 reversed $41 $-1 #
coedge $-1 $68 $120 $69 $124 forward $41 $-1 #
edge $-1 $197 68.994547536352727 $128 73.946670433497488 $119 $198 forward 7 unknown #
coedge $-1 $70 $69 $199 $200 reversed $27 $-1 #
edge $-1 $201 100.28079145542439 $128 109.13663136692404 $121 $202 forward 7 unknown #
coedge $-1 $203 $204 $70 $126 forward $117 $-1 #
edge $-1 $129 -76.177597737694953 $205 -67.321757826195324 $125 $206 forward 7 unknown #
coedge $-1 $207 $71 $204 $208 forward $66 $-1 #
vertex $-1 $72 $209 #
vertex $-1 $208 $210 #
straight-curve $-1 54.568315683462018 -10.064877921131925 3.6134571055300846 0 -1 0 I I #
face $-1 $211 $212 $15 $-1 $213 reversed single #
loop $-1 $-1 $214 $73 #
plane-surface $-1 25.11837883544473 -15.303670812828987 155.12025507805515 0 -1 0 -0.55919291073839883 0 -0.82903756765294845 forward_v I I I I #
loop $-1 $-1 $215 $44 #
coedge $-1 $135 $135 $-1 $216 forward $76 $-1 #
edge $-1 $217 0 $217 6.2831853071796004 $77 $218 forward 7 unknown #
vertex $-1 $80 $219 #
ellipse-curve $-1 50.897403693585261 -20.129755842263851 6.0895185541024643 -0.55919291073839883 0 -0.82903756765294845 1.6580751353058969 0 -1.1183858214767977 1 I I #
face $-1 $-1 $96 $12 $-1 $220 reversed single #
loop $-1 $-1 $155 $81 #
plane-surface $-1 0 24.955840871698715 0 0 -1 0 0 0 -1 forward_v I I I I #
coedge $-1 $221 $153 $156 $222 forward $82 $-1 #
coedge $-1 $159 $84 $85 $147 reversed $50 $-1 #
coedge $-1 $153 $221 $84 $145 reversed $82 $-1 #
edge $-1 $160 -8.5655800026748494 $223 8.5655800026748494 $144 $224 forward 7 unknown #
coedge $-1 $86 $85 $221 $225 forward $33 $-1 #
edge $-1 $151 -54.568315683462018 $223 54.568315683462018 $143 $226 forward 7 unknown #
coedge $-1 $156 $155 $86 $149 reversed $140 $-1 #
edge $-1 $227 -54.568315683462018 $150 54.568315683462018 $148 $228 forward 7 unknown #
vertex $-1 $88 $229 #
vertex $-1 $162 $230 #
straight-curve $-1 54.568315683462018 0 -8.5655800026748494 0 -1 0 I I #
coedge $-1 $142 $144 $89 $154 reversed $82 $-1 #
edge $-1 $157 -24.955840871698715 $160 24.955840871698715 $153 $231 forward 7 unknown #
coedge $-1 $148 $90 $95 $163 forward $140 $-1 #
coedge $-1 $90 $148 $142 $222 reversed $140 $-1 #
vertex $-1 $91 $232 #
straight-curve $-1 0 24.955840871698715 8.5655800026748494 -1 0 0 I I #
coedge $-1 $92 $143 $94 $162 reversed $50 $-1 #
vertex $-1 $154 $233 #
straight-curve $-1 0 -24.955840871698715 8.5655800026748494 1 0 0 I I #
edge $-1 $97 -8.5655800026748494 $151 8.5655800026748494 $94 $234 forward 7 unknown #
edge $-1 $98 -8.5655800026748494 $150 8.5655800026748494 $95 $235 forward 7 unknown #
point $-1 54.568315683462018 -24.955840871698715 8.5655800026748494 #
point $-1 54.568315683462018 24.955840871698715 8.5655800026748494 #
face $-1 $236 $186 $13 $-1 $237 forward single #
loop $-1 $-1 $179 $100 #
coedge $-1 $238 $239 $103 $171 forward $101 $-1 #
coedge $-1 $106 $103 $240 $241 reversed $58 $-1 #
coedge $-1 $103 $106 $242 $243 reversed $58 $-1 #
edge $-1 $244 -8.5655800026748494 $245 8.5655800026748494 $168 $246 forward 7 unknown #
coedge $-1 $240 $109 $104 $173 forward $182 $-1 #
edge $-1 $114 -2.0700173457192079 $177 2.0700173457192079 $104 $247 forward 7 unknown #
coedge $-1 $111 $242 $105 $175 forward $186 $-1 #
edge $-1 $176 -2.0700173457192079 $113 2.0700173457192079 $105 $248 forward 7 unknown #
vertex $-1 $243 $249 #
vertex $-1 $241 $250 #
straight-curve $-1 -63.928227951248957 -11.592333195158457 0 0 0 -1 I I #
coedge $-1 $251 $252 $108 $180 forward $167 $-1 #
edge $-1 $187 -8.5655800026748494 $183 8.5655800026748494 $179 $253 forward 7 unknown #
coedge $-1 $109 $254 $251 $255 forward $182 $-1 #
loop $-1 $-1 $256 $236 #
vertex $-1 $110 $257 #
straight-curve $-1 -59.248271817355487 -15.732367886596872 -8.5655800026748494 -1 0 0 I I #
coedge $-1 $258 $111 $252 $259 forward $186 $-1 #
loop $-1 $-1 $260 $166 #
vertex $-1 $259 $261 #
straight-curve $-1 -59.248271817355487 -15.732367886596872 8.5655800026748494 1 0 0 I I #
point $-1 -63.928227951248957 -15.732367886596872 8.5655800026748494 #
point $-1 -63.928227951248957 -15.732367886596872 -8.5655800026748494 #
face $-1 $262 $263 $14 $-1 $264 reversed single #
loop $-1 $-1 $265 $116 #
plane-surface $-1 -59.248271817355487 -15.732367886596872 0 0 1 0 0 0 1 forward_v I I I I #
coedge $-1 $119 $266 $267 $268 reversed $66 $-1 #
coedge $-1 $267 $199 $120 $196 forward $269 $-1 #
edge $-1 $201 34.667302285986096 $197 42.009126265739653 $195 $270 forward 7 unknown #
vertex $-1 $268 $271 #
straight-curve $-1 54.568315683462018 -15.303670812828987 77.560127539027576 0 0 -1 I I #
coedge $-1 $195 $272 $123 $200 forward $269 $-1 #
edge $-1 $205 -14.89096295056679 $201 -5.2387928916970612 $199 $273 forward 7 unknown #
vertex $-1 $200 $274 #
straight-curve $-1 -35.910051726809158 -15.303670812828987 64.641887667783976 0.82903756765294845 0 -0.55919291073839883 I I #
coedge $-1 $275 $125 $272 $276 reversed $117 $-1 #
coedge $-1 $125 $277 $127 $208 reversed $117 $-1 #
vertex $-1 $200 $278 #
straight-curve $-1 -8.5857746546413534 -24.955840871698715 46.211429717530592 -0.82903756765294845 0 0.55919291073839883 I I #
coedge $-1 $266 $127 $279 $280 reversed $66 $-1 #
edge $-1 $129 -3.6134571055300873 $281 8.5655800026748494 $127 $282 forward 7 unknown #
point $-1 54.568315683462018 -15.303670812828987 3.6134571055300881 #
point $-1 54.568315683462018 -24.955840871698715 3.6134571055300873 #
face $-1 $283 $284 $15 $-1 $285 reversed single #
loop $-1 $-1 $286 $131 #
plane-surface $-1 54.568315683462018 0 0 -1 0 0 0 0 1 forward_v I I I I #
coedge $-1 $287 $288 $286 $289 reversed $132 $-1 #
coedge $-1 $290 $291 $292 $293 reversed $134 $-1 #
edge $-1 $294 1 $294 0 $135 $-1 forward 7 unknown #
vertex $-1 $136 $295 #
ellipse-curve $-1 46.467582818558277 -20.129755842263851 -0.47796084852659049 0.55919291073839883 0 0.82903756765294845 1.6580751353058969 0 -1.1183858214767977 1 I I #
point $-1 52.555478828891161 -20.129755842263851 4.971132732625672 #
plane-surface $-1 54.568315683462018 0 0 -1 0 0 0 0 1 forward_v I I I I #
coedge $-1 $144 $142 $146 $225 reversed $82 $-1 #
edge $-1 $157 -8.5655800026748494 $227 8.5655800026748494 $156 $296 forward 7 unknown #
vertex $-1 $225 $297 #
straight-curve $-1 -54.568315683462018 -24.955840871698715 0 0 0 -1 I I #
edge $-1 $223 -24.955840871698715 $227 24.955840871698715 $221 $298 forward 7 unknown #
straight-curve $-1 0 -24.955840871698715 -8.5655800026748494 -1 0 0 I I #
vertex $-1 $149 $299 #
straight-curve $-1 0 24.955840871698715 -8.5655800026748494 1 0 0 I I #
point $-1 54.568315683462018 24.955840871698715 -8.5655800026748494 #
point $-1 54.568315683462018 -24.955840871698715 -8.5655800026748494 #
straight-curve $-1 -54.568315683462018 0 8.5655800026748494 0 -1 0 I I #
point $-1 -54.568315683462018 24.955840871698715 8.5655800026748494 #
point $-1 -54.568315683462018 -24.955840871698715 8.5655800026748494 #
straight-curve $-1 54.568315683462018 -24.955840871698715 0 0 0 -1 I I #
straight-curve $-1 54.568315683462018 24.955840871698715 0 0 0 -1 I I #
face $-1 $300 $182 $13 $-1 $301 reversed single #
plane-surface $-1 0 0 8.5655800026748494 0 0 1 1 0 0 forward_v I I I I #
coedge $-1 $302 $168 $303 $304 reversed $101 $-1 #
coedge $-1 $168 $302 $305 $306 reversed $101 $-1 #
coedge $-1 $305 $172 $169 $241 forward $182 $-1 #
edge $-1 $177 -4.6799561338934694 $244 4.6799561338934694 $169 $307 forward 7 unknown #
coedge $-1 $174 $303 $170 $243 forward $186 $-1 #
edge $-1 $245 -4.6799561338934694 $176 4.6799561338934694 $170 $308 forward 7 unknown #
vertex $-1 $306 $309 #
vertex $-1 $243 $310 #
straight-curve $-1 -54.568315683462018 -11.592333195158457 0 0 0 1 I I #
straight-curve $-1 -63.928227951248957 -13.662350540877664 -8.5655800026748494 0 1 0 I I #
straight-curve $-1 -63.928227951248957 -13.662350540877664 8.5655800026748494 0 -1 0 I I #
point $-1 -63.928227951248957 -11.592333195158457 8.5655800026748494 #
point $-1 -63.928227951248957 -11.592333195158457 -8.5655800026748494 #
coedge $-1 $311 $179 $181 $255 reversed $167 $-1 #
coedge $-1 $179 $311 $185 $259 reversed $167 $-1 #
straight-curve $-1 -54.568315683462018 -15.732367886596872 0 0 0 -1 I I #
coedge $-1 $181 $256 $312 $313 forward $182 $-1 #
edge $-1 $314 -24.955840871698715 $183 -15.732367886596872 $251 $315 forward 7 unknown #
coedge $-1 $254 $316 $317 $318 forward $182 $-1 #
point $-1 -54.568315683462018 -15.732367886596872 -8.5655800026748494 #
coedge $-1 $260 $185 $319 $320 forward $186 $-1 #
edge $-1 $187 15.732367886596872 $321 24.955840871698715 $252 $322 forward 7 unknown #
coedge $-1 $323 $258 $324 $325 forward $186 $-1 #
point $-1 -54.568315683462018 -15.732367886596872 8.5655800026748494 #
face $-1 $326 $327 $14 $-1 $328 reversed single #
loop $-1 $-1 $329 $191 #
plane-surface $-1 -63.928227951248957 -13.662350540877664 0 1 0 0 0 0 -1 forward_v I I I I #
coedge $-1 $330 $331 $332 $333 forward $192 $-1 #
coedge $-1 $194 $207 $334 $335 reversed $66 $-1 #
coedge $-1 $336 $195 $194 $268 forward $269 $-1 #
edge $-1 $197 -15.303670812828987 $337 24.955840871698715 $194 $338 forward 7 unknown #
loop $-1 $-1 $195 $339 #
straight-curve $-1 12.559189417722365 -15.303670812828987 8.5655800026748494 1 0 0 I I #
point $-1 54.568315683462018 -15.303670812828987 8.5655800026748494 #
coedge $-1 $199 $340 $203 $276 forward $269 $-1 #
straight-curve $-1 47.226491703708462 -10.064877921131925 8.5655800026748423 0 1 0 I I #
point $-1 47.226491703708462 -15.303670812828987 8.5655800026748494 #
coedge $-1 $277 $203 $341 $342 forward $117 $-1 #
edge $-1 $343 -54.568315683462018 $205 47.226491703708462 $203 $344 forward 7 unknown #
coedge $-1 $204 $275 $345 $346 reversed $117 $-1 #
point $-1 47.226491703708462 -24.955840871698715 8.5655800026748494 #
coedge $-1 $345 $347 $207 $280 forward $348 $-1 #
edge $-1 $349 -24.955840871698715 $281 24.955840871698715 $207 $350 forward 7 unknown #
vertex $-1 $208 $351 #
straight-curve $-1 54.568315683462018 -24.955840871698715 0 0 0 -1 I I #
face $-1 $352 $353 $15 $-1 $354 reversed single #
loop $-1 $-1 $355 $211 #
plane-surface $-1 0 -24.955840871698715 0 0 1 0 0 0 1 forward_v I I I I #
coedge $-1 $292 $356 $214 $289 forward $212 $-1 #
coedge $-1 $288 $214 $357 $358 reversed $132 $-1 #
coedge $-1 $214 $287 $290 $359 forward $132 $-1 #
edge $-1 $360 68.994547536352727 $361 73.946670433497488 $286 $362 forward 7 unknown #
coedge $-1 $363 $215 $288 $359 reversed $134 $-1 #
coedge $-1 $215 $363 $355 $364 reversed $134 $-1 #
coedge $-1 $365 $286 $215 $293 forward $212 $-1 #
edge $-1 $361 5.2387928916970612 $366 14.89096295056679 $292 $367 forward 7 unknown #
vertex $-1 $216 $368 #
point $-1 48.125657953864177 -20.129755842263851 -1.5963466700033881 #
straight-curve $-1 -54.568315683462018 24.955840871698715 0 0 0 -1 I I #
point $-1 -54.568315683462018 -24.955840871698715 -8.5655800026748494 #
straight-curve $-1 -54.568315683462018 0 -8.5655800026748494 0 1 0 I I #
point $-1 -54.568315683462018 24.955840871698715 -8.5655800026748494 #
face $-1 $369 $370 $13 $-1 $371 reversed single #
plane-surface $-1 0 0 -8.5655800026748494 0 0 1 1 0 0 forward_v I I I I #
coedge $-1 $239 $238 $372 $373 forward $101 $-1 #
coedge $-1 $242 $323 $238 $304 forward $186 $-1 #
edge $-1 $374 -24.955840871698715 $245 11.592333195158457 $238 $322 forward 7 unknown #
coedge $-1 $316 $240 $239 $306 forward $182 $-1 #
edge $-1 $244 -11.592333195158457 $375 24.955840871698715 $239 $315 forward 7 unknown #
straight-curve $-1 -59.248271817355487 -11.592333195158457 -8.5655800026748494 1 0 0 I I #
straight-curve $-1 -59.248271817355487 -11.592333195158457 8.5655800026748494 -1 0 0 I I #
point $-1 -54.568315683462018 -11.592333195158457 -8.5655800026748494 #
point $-1 -54.568315683462018 -11.592333195158457 8.5655800026748494 #
coedge $-1 $252 $251 $376 $377 reversed $167 $-1 #
coedge $-1 $378 $376 $254 $313 reversed $370 $-1 #
edge $-1 $379 -54.568315683462018 $314 54.568315683462018 $312 $380 forward 7 unknown #
vertex $-1 $255 $381 #
straight-curve $-1 -54.568315683462018 0 -8.5655800026748494 0 1 0 I I #
coedge $-1 $256 $305 $382 $383 forward $182 $-1 #
coedge $-1 $384 $385 $256 $318 reversed $386 $-1 #
edge $-1 $387 -24.955840871698715 $379 24.955840871698715 $317 $388 forward 7 unknown #
coedge $-1 $376 $378 $258 $320 reversed $370 $-1 #
edge $-1 $321 -54.568315683462018 $389 54.568315683462018 $319 $390 forward 7 unknown #
vertex $-1 $259 $391 #
straight-curve $-1 -54.568315683462018 0 8.5655800026748494 0 -1 0 I I #
coedge $-1 $303 $260 $392 $393 forward $186 $-1 #
coedge $-1 $385 $384 $260 $325 reversed $386 $-1 #
edge $-1 $389 -24.955840871698715 $394 24.955840871698715 $324 $395 forward 7 unknown #
face $-1 $396 $397 $14 $-1 $398 reversed single #
loop $-1 $-1 $399 $262 #
plane-surface $-1 -59.248271817355487 -11.592333195158457 0 0 -1 0 0 0 -1 forward_v I I I I #
coedge $-1 $400 $401 $402 $403 forward $263 $-1 #
coedge $-1 $404 $265 $405 $406 reversed $192 $-1 #
coedge $-1 $265 $404 $407 $408 reversed $192 $-1 #
coedge $-1 $401 $400 $265 $333 reversed $263 $-1 #
edge $-1 $409 -8.5655800026748494 $410 8.5655800026748494 $332 $411 forward 7 unknown #
coedge $-1 $412 $413 $266 $335 forward $414 $-1 #
edge $-1 $337 -8.5655800026748494 $349 8.5655800026748494 $266 $415 forward 7 unknown #
coedge $-1 $416 $267 $413 $417 forward $269 $-1 #
vertex $-1 $268 $418 #
straight-curve $-1 54.568315683462018 0 8.5655800026748494 0 1 0 I I #
face $-1 $419 $269 $14 $-1 $420 forward single #
coedge $-1 $272 $407 $421 $422 forward $269 $-1 #
coedge $-1 $421 $423 $275 $342 reversed $424 $-1 #
edge $-1 $343 -8.5655800026748494 $425 8.5655800026748494 $341 $426 forward 7 unknown #
vertex $-1 $422 $427 #
straight-curve $-1 0 -24.955840871698715 8.5655800026748494 1 0 0 I I #
coedge $-1 $428 $279 $277 $346 forward $348 $-1 #
edge $-1 $281 -54.568315683462018 $425 54.568315683462018 $277 $429 forward 7 unknown #
coedge $-1 $279 $430 $412 $431 forward $348 $-1 #
loop $-1 $-1 $279 $419 #
vertex $-1 $280 $432 #
straight-curve $-1 54.568315683462018 0 -8.5655800026748494 0 -1 0 I I #
point $-1 54.568315683462018 -24.955840871698715 -8.5655800026748494 #
face $-1 $433 $434 $15 $-1 $435 reversed single #
loop $-1 $-1 $436 $283 #
plane-surface $-1 -59.248271817355487 -15.732367886596872 0 0 1 0 0 0 1 forward_v I I I I #
coedge $-1 $437 $438 $291 $364 forward $284 $-1 #
coedge $-1 $286 $439 $440 $441 reversed $212 $-1 #
coedge $-1 $440 $442 $287 $358 forward $443 $-1 #
edge $-1 $444 34.667302285986096 $360 42.009126265739653 $357 $445 forward 7 unknown #
edge $-1 $444 100.28079145542439 $361 109.13663136692404 $288 $446 forward 7 unknown #
vertex $-1 $441 $447 #
vertex $-1 $293 $448 #
straight-curve $-1 54.568315683462018 -15.303670812828987 77.560127539027576 0 0 -1 I I #
coedge $-1 $291 $290 $442 $449 reversed $134 $-1 #
edge $-1 $366 -76.177597737694953 $450 -67.321757826195324 $355 $451 forward 7 unknown #
coedge $-1 $452 $292 $438 $453 forward $212 $-1 #
vertex $-1 $453 $454 #
straight-curve $-1 54.568315683462018 -10.064877921131925 3.6134571055300846 0 -1 0 I I #
point $-1 45.349196997081485 -20.129755842263851 -2.1360359838324872 #
face $-1 $455 $456 $13 $-1 $457 reversed single #
loop $-1 $-1 $376 $300 #
plane-surface $-1 0 -24.955840871698715 0 0 1 0 0 0 1 forward_v I I I I #
coedge $-1 $392 $382 $302 $373 reversed $456 $-1 #
edge $-1 $374 -8.5655800026748494 $375 8.5655800026748494 $372 $458 forward 7 unknown #
vertex $-1 $393 $459 #
vertex $-1 $383 $460 #
coedge $-1 $312 $319 $311 $377 forward $370 $-1 #
edge $-1 $321 -8.5655800026748494 $314 8.5655800026748494 $311 $461 forward 7 unknown #
coedge $-1 $319 $312 $385 $462 reversed $370 $-1 #
vertex $-1 $462 $463 #
straight-curve $-1 0 -24.955840871698715 -8.5655800026748494 -1 0 0 I I #
point $-1 -54.568315683462018 -24.955840871698715 -8.5655800026748494 #
coedge $-1 $372 $464 $316 $383 reversed $456 $-1 #
edge $-1 $375 -54.568315683462018 $387 54.568315683462018 $382 $465 forward 7 unknown #
coedge $-1 $324 $317 $464 $466 reversed $386 $-1 #
coedge $-1 $317 $324 $378 $462 forward $386 $-1 #
loop $-1 $-1 $385 $455 #
vertex $-1 $318 $467 #
straight-curve $-1 54.568315683462018 0 -8.5655800026748494 0 -1 0 I I #
vertex $-1 $325 $468 #
straight-curve $-1 0 -24.955840871698715 8.5655800026748494 1 0 0 I I #
point $-1 -54.568315683462018 -24.955840871698715 8.5655800026748494 #
coedge $-1 $464 $372 $323 $393 reversed $456 $-1 #
edge $-1 $394 -54.568315683462018 $374 54.568315683462018 $392 $469 forward 7 unknown #
vertex $-1 $325 $470 #
straight-curve $-1 54.568315683462018 0 8.5655800026748494 0 1 0 I I #
face $-1 $339 $424 $14 $-1 $398 reversed single #
loop $-1 $-1 $471 $326 #
plane-surface $-1 -54.568315683462018 0 0 1 0 0 0 0 -1 forward_v I I I I #
coedge $-1 $472 $473 $471 $474 reversed $327 $-1 #
coedge $-1 $332 $329 $475 $476 reversed $263 $-1 #
coedge $-1 $329 $332 $477 $478 reversed $263 $-1 #
coedge $-1 $473 $472 $329 $403 reversed $327 $-1 #
edge $-1 $479 -8.5655800026748494 $480 8.5655800026748494 $402 $481 forward 7 unknown #
coedge $-1 $331 $330 $482 $483 reversed $192 $-1 #
coedge $-1 $475 $428 $330 $406 forward $348 $-1 #
edge $-1 $484 -4.6799561338934694 $410 4.6799561338934694 $330 $485 forward 7 unknown #
coedge $-1 $340 $477 $331 $408 forward $269 $-1 #
edge $-1 $409 -4.6799561338934694 $486 4.6799561338934694 $331 $487 forward 7 unknown #
vertex $-1 $478 $488 #
vertex $-1 $476 $489 #
straight-curve $-1 -63.928227951248957 -15.732367886596872 0 0 0 -1 I I #
coedge $-1 $490 $334 $347 $431 reversed $414 $-1 #
coedge $-1 $334 $490 $336 $417 reversed $414 $-1 #
loop $-1 $-1 $334 $491 #
straight-curve $-1 54.568315683462018 24.955840871698715 0 0 0 -1 I I #
coedge $-1 $492 $336 $493 $494 forward $269 $-1 #
edge $-1 $337 -54.568315683462018 $495 54.568315683462018 $413 $496 forward 7 unknown #
point $-1 54.568315683462018 24.955840871698715 8.5655800026748494 #
face $-1 $491 $348 $14 $-1 $497 reversed single #
plane-surface $-1 0 0 8.5655800026748494 0 0 1 1 0 0 forward_v I I I I #
coedge $-1 $482 $341 $340 $422 reversed $424 $-1 #
edge $-1 $486 15.732367886596872 $343 24.955840871698715 $421 $498 forward 7 unknown #
coedge $-1 $341 $482 $428 $499 reversed $424 $-1 #
loop $-1 $-1 $482 $396 #
vertex $-1 $499 $500 #
straight-curve $-1 -54.568315683462018 -24.955840871698715 0 0 0 -1 I I #
point $-1 -54.568315683462018 -24.955840871698715 8.5655800026748494 #
coedge $-1 $405 $345 $423 $499 forward $348 $-1 #
straight-curve $-1 0 -24.955840871698715 -8.5655800026748494 -1 0 0 I I #
coedge $-1 $347 $501 $502 $503 forward $348 $-1 #
edge $-1 $504 -54.568315683462018 $349 54.568315683462018 $412 $505 forward 7 unknown #
point $-1 54.568315683462018 24.955840871698715 -8.5655800026748494 #
face $-1 $506 $507 $15 $-1 $508 reversed single #
loop $-1 $-1 $509 $352 #
plane-surface $-1 -63.928227951248957 -13.662350540877664 0 1 0 0 0 0 -1 forward_v I I I I #
coedge $-1 $510 $511 $512 $513 forward $353 $-1 #
coedge $-1 $514 $355 $515 $516 reversed $284 $-1 #
coedge $-1 $355 $517 $365 $453 reversed $284 $-1 #
coedge $-1 $356 $452 $518 $519 reversed $212 $-1 #
coedge $-1 $520 $357 $356 $441 forward $443 $-1 #
edge $-1 $360 -15.303670812828987 $521 24.955840871698715 $356 $522 forward 7 unknown #
coedge $-1 $357 $515 $363 $449 forward $443 $-1 #
loop $-1 $-1 $357 $523 #
vertex $-1 $449 $524 #
straight-curve $-1 12.559189417722365 -15.303670812828987 8.5655800026748494 1 0 0 I I #
straight-curve $-1 -35.910051726809158 -15.303670812828987 64.641887667783976 0.82903756765294845 0 -0.55919291073839883 I I #
point $-1 54.568315683462018 -15.303670812828987 8.5655800026748494 #
point $-1 54.568315683462018 -15.303670812828987 3.6134571055300881 #
edge $-1 $450 -14.89096295056679 $444 -5.2387928916970612 $442 $525 forward 7 unknown #
vertex $-1 $449 $526 #
straight-curve $-1 -8.5857746546413534 -24.955840871698715 46.211429717530592 -0.82903756765294845 0 0.55919291073839883 I I #
coedge $-1 $439 $365 $527 $528 reversed $212 $-1 #
edge $-1 $366 -3.6134571055300873 $529 8.5655800026748494 $365 $530 forward 7 unknown #
point $-1 54.568315683462018 -24.955840871698715 3.6134571055300873 #
face $-1 $-1 $386 $13 $-1 $531 reversed single #
loop $-1 $-1 $464 $369 #
plane-surface $-1 0 24.955840871698715 0 0 -1 0 0 0 -1 forward_v I I I I #
straight-curve $-1 -54.568315683462018 24.955840871698715 0 0 0 -1 I I #
point $-1 -54.568315683462018 24.955840871698715 8.5655800026748494 #
point $-1 -54.568315683462018 24.955840871698715 -8.5655800026748494 #
straight-curve $-1 -54.568315683462018 -24.955840871698715 0 0 0 -1 I I #
edge $-1 $389 -8.5655800026748494 $379 8.5655800026748494 $385 $532 forward 7 unknown #
point $-1 54.568315683462018 -24.955840871698715 -8.5655800026748494 #
coedge $-1 $382 $392 $384 $466 forward $456 $-1 #
straight-curve $-1 0 24.955840871698715 -8.5655800026748494 1 0 0 I I #
edge $-1 $394 -8.5655800026748494 $387 8.5655800026748494 $384 $533 forward 7 unknown #
point $-1 54.568315683462018 24.955840871698715 -8.5655800026748494 #
point $-1 54.568315683462018 -24.955840871698715 8.5655800026748494 #
straight-curve $-1 0 24.955840871698715 8.5655800026748494 -1 0 0 I I #
point $-1 54.568315683462018 24.955840871698715 8.5655800026748494 #
coedge $-1 $493 $502 $399 $474 forward $397 $-1 #
coedge $-1 $402 $399 $501 $534 reversed $327 $-1 #
coedge $-1 $399 $402 $492 $535 reversed $327 $-1 #
edge $-1 $536 -8.5655800026748494 $537 8.5655800026748494 $471 $538 forward 7 unknown #
coedge $-1 $501 $405 $400 $476 forward $348 $-1 #
edge $-1 $410 -2.0700173457192079 $480 2.0700173457192079 $400 $539 forward 7 unknown #
coedge $-1 $407 $492 $401 $478 forward $269 $-1 #
edge $-1 $479 -2.0700173457192079 $409 2.0700173457192079 $401 $540 forward 7 unknown #
vertex $-1 $535 $541 #
vertex $-1 $534 $542 #
straight-curve $-1 -63.928227951248957 -11.592333195158457 0 0 0 -1 I I #
coedge $-1 $423 $421 $404 $483 forward $424 $-1 #
edge $-1 $486 -8.5655800026748494 $484 8.5655800026748494 $482 $543 forward 7 unknown #
vertex $-1 $406 $544 #
straight-curve $-1 -59.248271817355487 -15.732367886596872 -8.5655800026748494 -1 0 0 I I #
vertex $-1 $422 $545 #
straight-curve $-1 -59.248271817355487 -15.732367886596872 8.5655800026748494 1 0 0 I I #
point $-1 -63.928227951248957 -15.732367886596872 8.5655800026748494 #
point $-1 -63.928227951248957 -15.732367886596872 -8.5655800026748494 #
coedge $-1 $413 $412 $546 $547 reversed $414 $-1 #
face $-1 $-1 $414 $14 $-1 $548 reversed single #
coedge $-1 $477 $416 $473 $535 forward $269 $-1 #
coedge $-1 $546 $471 $416 $494 reversed $397 $-1 #
edge $-1 $495 -24.955840871698715 $537 11.592333195158457 $493 $498 forward 7 unknown #
vertex $-1 $417 $549 #
straight-curve $-1 0 24.955840871698715 8.5655800026748494 -1 0 0 I I #
plane-surface $-1 0 0 -8.5655800026748494 0 0 1 1 0 0 forward_v I I I I #
straight-curve $-1 -54.568315683462018 0 8.5655800026748494 0 -1 0 I I #
edge $-1 $425 -24.955840871698715 $484 -15.732367886596872 $423 $550 forward 7 unknown #
point $-1 -54.568315683462018 -24.955840871698715 -8.5655800026748494 #
coedge $-1 $430 $475 $472 $534 forward $348 $-1 #
coedge $-1 $471 $546 $430 $503 reversed $397 $-1 #
edge $-1 $536 -11.592333195158457 $504 24.955840871698715 $502 $550 forward 7 unknown #
vertex $-1 $431 $551 #
straight-curve $-1 0 24.955840871698715 -8.5655800026748494 1 0 0 I I #
face $-1 $552 $553 $15 $-1 $554 reversed single #
loop $-1 $-1 $555 $433 #
plane-surface $-1 -59.248271817355487 -11.592333195158457 0 0 -1 0 0 0 -1 forward_v I I I I #
coedge $-1 $556 $557 $558 $559 forward $434 $-1 #
coedge $-1 $560 $436 $561 $562 reversed $353 $-1 #
coedge $-1 $436 $560 $563 $564 reversed $353 $-1 #
coedge $-1 $557 $556 $436 $513 reversed $434 $-1 #
edge $-1 $565 -8.5655800026748494 $566 8.5655800026748494 $512 $567 forward 7 unknown #
coedge $-1 $517 $437 $568 $569 forward $284 $-1 #
coedge $-1 $442 $570 $437 $516 forward $443 $-1 #
edge $-1 $571 -54.568315683462018 $450 47.226491703708462 $437 $572 forward 7 unknown #
coedge $-1 $438 $514 $573 $574 reversed $284 $-1 #
coedge $-1 $575 $576 $439 $519 forward $577 $-1 #
edge $-1 $521 -8.5655800026748494 $578 8.5655800026748494 $439 $579 forward 7 unknown #
coedge $-1 $580 $440 $576 $581 forward $443 $-1 #
vertex $-1 $441 $582 #
straight-curve $-1 54.568315683462018 0 8.5655800026748494 0 1 0 I I #
face $-1 $583 $443 $15 $-1 $584 forward single #
point $-1 47.226491703708462 -15.303670812828987 8.5655800026748494 #
straight-curve $-1 47.226491703708462 -10.064877921131925 8.5655800026748423 0 1 0 I I #
point $-1 47.226491703708462 -24.955840871698715 8.5655800026748494 #
coedge $-1 $573 $585 $452 $528 forward $586 $-1 #
edge $-1 $578 -24.955840871698715 $529 24.955840871698715 $452 $587 forward 7 unknown #
vertex $-1 $453 $588 #
straight-curve $-1 54.568315683462018 -24.955840871698715 0 0 0 -1 I I #
plane-surface $-1 54.568315683462018 0 0 -1 0 0 0 0 1 forward_v I I I I #
straight-curve $-1 54.568315683462018 -24.955840871698715 0 0 0 -1 I I #
straight-curve $-1 54.568315683462018 24.955840871698715 0 0 0 -1 I I #
edge $-1 $480 -4.6799561338934694 $536 4.6799561338934694 $472 $589 forward 7 unknown #
edge $-1 $537 -4.6799561338934694 $479 4.6799561338934694 $473 $590 forward 7 unknown #
vertex $-1 $503 $591 #
vertex $-1 $535 $592 #
straight-curve $-1 -54.568315683462018 -11.592333195158457 0 0 0 1 I I #
straight-curve $-1 -63.928227951248957 -13.662350540877664 -8.5655800026748494 0 1 0 I I #
straight-curve $-1 -63.928227951248957 -13.662350540877664 8.5655800026748494 0 -1 0 I I #
point $-1 -63.928227951248957 -11.592333195158457 8.5655800026748494 #
point $-1 -63.928227951248957 -11.592333195158457 -8.5655800026748494 #
straight-curve $-1 -54.568315683462018 -15.732367886596872 0 0 0 -1 I I #
point $-1 -54.568315683462018 -15.732367886596872 -8.5655800026748494 #
point $-1 -54.568315683462018 -15.732367886596872 8.5655800026748494 #
coedge $-1 $502 $493 $490 $547 forward $397 $-1 #
edge $-1 $495 -8.5655800026748494 $504 8.5655800026748494 $490 $593 forward 7 unknown #
plane-surface $-1 0 24.955840871698715 0 0 -1 0 0 0 -1 forward_v I I I I #
point $-1 -54.568315683462018 24.955840871698715 8.5655800026748494 #
straight-curve $-1 -54.568315683462018 0 -8.5655800026748494 0 1 0 I I #
point $-1 -54.568315683462018 24.955840871698715 -8.5655800026748494 #
face $-1 $523 $594 $15 $-1 $554 reversed single #
loop $-1 $-1 $595 $506 #
plane-surface $-1 -54.568315683462018 0 0 1 0 0 0 0 -1 forward_v I I I I #
coedge $-1 $596 $597 $595 $598 reversed $507 $-1 #
coedge $-1 $512 $509 $599 $600 reversed $434 $-1 #
coedge $-1 $509 $512 $601 $602 reversed $434 $-1 #
coedge $-1 $597 $596 $509 $559 reversed $507 $-1 #
edge $-1 $603 -8.5655800026748494 $604 8.5655800026748494 $558 $605 forward 7 unknown #
coedge $-1 $511 $510 $606 $607 reversed $353 $-1 #
coedge $-1 $599 $608 $510 $562 forward $586 $-1 #
edge $-1 $609 -4.6799561338934694 $566 4.6799561338934694 $510 $610 forward 7 unknown #
coedge $-1 $570 $601 $511 $564 forward $443 $-1 #
edge $-1 $565 -4.6799561338934694 $611 4.6799561338934694 $511 $612 forward 7 unknown #
vertex $-1 $602 $613 #
vertex $-1 $600 $614 #
straight-curve $-1 -63.928227951248957 -15.732367886596872 0 0 0 -1 I I #
coedge $-1 $615 $616 $514 $569 reversed $594 $-1 #
edge $-1 $571 -8.5655800026748494 $617 8.5655800026748494 $568 $618 forward 7 unknown #
coedge $-1 $515 $563 $615 $619 forward $443 $-1 #
vertex $-1 $619 $620 #
straight-curve $-1 0 -24.955840871698715 8.5655800026748494 1 0 0 I I #
coedge $-1 $608 $527 $517 $574 forward $586 $-1 #
edge $-1 $529 -54.568315683462018 $617 54.568315683462018 $517 $621 forward 7 unknown #
coedge $-1 $622 $518 $585 $623 reversed $577 $-1 #
coedge $-1 $518 $622 $520 $581 reversed $577 $-1 #
loop $-1 $-1 $518 $624 #
vertex $-1 $528 $625 #
straight-curve $-1 54.568315683462018 24.955840871698715 0 0 0 -1 I I #
coedge $-1 $626 $520 $627 $628 forward $443 $-1 #
edge $-1 $521 -54.568315683462018 $629 54.568315683462018 $576 $630 forward 7 unknown #
point $-1 54.568315683462018 24.955840871698715 8.5655800026748494 #
face $-1 $624 $586 $15 $-1 $631 reversed single #
plane-surface $-1 0 0 8.5655800026748494 0 0 1 1 0 0 forward_v I I I I #
coedge $-1 $527 $632 $575 $623 forward $586 $-1 #
loop $-1 $-1 $527 $583 #
straight-curve $-1 54.568315683462018 0 -8.5655800026748494 0 -1 0 I I #
point $-1 54.568315683462018 -24.955840871698715 -8.5655800026748494 #
straight-curve $-1 -59.248271817355487 -11.592333195158457 -8.5655800026748494 1 0 0 I I #
straight-curve $-1 -59.248271817355487 -11.592333195158457 8.5655800026748494 -1 0 0 I I #
point $-1 -54.568315683462018 -11.592333195158457 -8.5655800026748494 #
point $-1 -54.568315683462018 -11.592333195158457 8.5655800026748494 #
straight-curve $-1 -54.568315683462018 24.955840871698715 0 0 0 -1 I I #
loop $-1 $-1 $606 $552 #
coedge $-1 $627 $633 $555 $598 forward $553 $-1 #
coedge $-1 $558 $555 $634 $635 reversed $507 $-1 #
coedge $-1 $555 $558 $626 $636 reversed $507 $-1 #
edge $-1 $637 -8.5655800026748494 $638 8.5655800026748494 $595 $639 forward 7 unknown #
coedge $-1 $634 $561 $556 $600 forward $586 $-1 #
edge $-1 $566 -2.0700173457192079 $604 2.0700173457192079 $556 $640 forward 7 unknown #
coedge $-1 $563 $626 $557 $602 forward $443 $-1 #
edge $-1 $603 -2.0700173457192079 $565 2.0700173457192079 $557 $641 forward 7 unknown #
vertex $-1 $636 $642 #
vertex $-1 $635 $643 #
straight-curve $-1 -63.928227951248957 -11.592333195158457 0 0 0 -1 I I #
coedge $-1 $616 $615 $560 $607 forward $594 $-1 #
edge $-1 $611 -8.5655800026748494 $609 8.5655800026748494 $606 $644 forward 7 unknown #
coedge $-1 $561 $573 $616 $645 forward $586 $-1 #
vertex $-1 $562 $646 #
straight-curve $-1 -59.248271817355487 -15.732367886596872 -8.5655800026748494 -1 0 0 I I #
vertex $-1 $619 $647 #
straight-curve $-1 -59.248271817355487 -15.732367886596872 8.5655800026748494 1 0 0 I I #
point $-1 -63.928227951248957 -15.732367886596872 8.5655800026748494 #
point $-1 -63.928227951248957 -15.732367886596872 -8.5655800026748494 #
coedge $-1 $606 $568 $570 $619 reversed $594 $-1 #
coedge $-1 $568 $606 $608 $645 reversed $594 $-1 #
vertex $-1 $645 $648 #
straight-curve $-1 -54.568315683462018 -24.955840871698715 0 0 0 -1 I I #
edge $-1 $611 15.732367886596872 $571 24.955840871698715 $615 $649 forward 7 unknown #
point $-1 -54.568315683462018 -24.955840871698715 8.5655800026748494 #
straight-curve $-1 0 -24.955840871698715 -8.5655800026748494 -1 0 0 I I #
coedge $-1 $576 $575 $650 $651 reversed $577 $-1 #
edge $-1 $652 -54.568315683462018 $578 54.568315683462018 $575 $653 forward 7 unknown #
face $-1 $-1 $577 $15 $-1 $654 reversed single #
point $-1 54.568315683462018 24.955840871698715 -8.5655800026748494 #
coedge $-1 $601 $580 $597 $636 forward $443 $-1 #
coedge $-1 $650 $595 $580 $628 reversed $553 $-1 #
edge $-1 $629 -24.955840871698715 $638 11.592333195158457 $627 $649 forward 7 unknown #
vertex $-1 $581 $655 #
straight-curve $-1 0 24.955840871698715 8.5655800026748494 -1 0 0 I I #
plane-surface $-1 0 0 -8.5655800026748494 0 0 1 1 0 0 forward_v I I I I #
coedge $-1 $585 $634 $633 $656 forward $586 $-1 #
coedge $-1 $595 $650 $632 $656 reversed $553 $-1 #
coedge $-1 $632 $599 $596 $635 forward $586 $-1 #
edge $-1 $604 -4.6799561338934694 $637 4.6799561338934694 $596 $657 forward 7 unknown #
edge $-1 $638 -4.6799561338934694 $603 4.6799561338934694 $597 $658 forward 7 unknown #
vertex $-1 $656 $659 #
vertex $-1 $636 $660 #
straight-curve $-1 -54.568315683462018 -11.592333195158457 0 0 0 1 I I #
straight-curve $-1 -63.928227951248957 -13.662350540877664 -8.5655800026748494 0 1 0 I I #
straight-curve $-1 -63.928227951248957 -13.662350540877664 8.5655800026748494 0 -1 0 I I #
point $-1 -63.928227951248957 -11.592333195158457 8.5655800026748494 #
point $-1 -63.928227951248957 -11.592333195158457 -8.5655800026748494 #
straight-curve $-1 -54.568315683462018 -15.732367886596872 0 0 0 -1 I I #
edge $-1 $617 -24.955840871698715 $609 -15.732367886596872 $616 $661 forward 7 unknown #
point $-1 -54.568315683462018 -15.732367886596872 -8.5655800026748494 #
point $-1 -54.568315683462018 -15.732367886596872 8.5655800026748494 #
point $-1 -54.568315683462018 -24.955840871698715 -8.5655800026748494 #
straight-curve $-1 -54.568315683462018 0 8.5655800026748494 0 -1 0 I I #
coedge $-1 $633 $627 $622 $651 forward $553 $-1 #
edge $-1 $629 -8.5655800026748494 $652 8.5655800026748494 $622 $662 forward 7 unknown #
vertex $-1 $623 $663 #
straight-curve $-1 0 24.955840871698715 -8.5655800026748494 1 0 0 I I #
plane-surface $-1 0 24.955840871698715 0 0 -1 0 0 0 -1 forward_v I I I I #
point $-1 -54.568315683462018 24.955840871698715 8.5655800026748494 #
edge $-1 $637 -11.592333195158457 $652 24.955840871698715 $633 $661 forward 7 unknown #
straight-curve $-1 -59.248271817355487 -11.592333195158457 -8.5655800026748494 1 0 0 I I #
straight-curve $-1 -59.248271817355487 -11.592333195158457 8.5655800026748494 -1 0 0 I I #
point $-1 -54.568315683462018 -11.592333195158457 -8.5655800026748494 #
point $-1 -54.568315683462018 -11.592333195158457 8.5655800026748494 #
straight-curve $-1 -54.568315683462018 0 -8.5655800026748494 0 1 0 I I #
straight-curve $-1 -54.568315683462018 24.955840871698715 0 0 0 -1 I I #
point $-1 -54.568315683462018 24.955840871698715 -8.5655800026748494 #
End-of-ACIS-data 