500 0 17 0           
7 Unknown 11 ACIS 5.0 NT 24 Fri Mar 26 01:06:10 1999 
-1 9.9999999999999995e-007 1e-010 
body $-1 $17 $-1 $18 #
body $-1 $19 $-1 $20 #
body $-1 $21 $-1 $22 #
body $-1 $23 $-1 $24 #
body $-1 $25 $-1 $26 #
body $-1 $27 $-1 $28 #
body $-1 $29 $-1 $30 #
body $-1 $31 $-1 $32 #
body $-1 $33 $-1 $34 #
body $-1 $35 $-1 $36 #
body $-1 $37 $-1 $38 #
body $-1 $39 $-1 $40 #
body $-1 $41 $-1 $42 #
body $-1 $43 $-1 $44 #
body $-1 $45 $-1 $46 #
body $-1 $47 $-1 $48 #
body $-1 $49 $-1 $50 #
lump $-1 $-1 $51 $0 #
transform $-1 1 0 0 0 1 0 0 0 1 66.372875148777737 31.594112455993709 6.5730834078113567 1 rotate no_reflect no_shear #
lump $-1 $-1 $52 $1 #
transform $-1 0.55919289150049634 0 -0.82903758062907751 0 1 0 0.82903758062907751 0 0.55919289150049634 168.56648601973959 8.7682586743421798 191.57425911316443 1 rotate no_reflect no_shear #
lump $-1 $-1 $53 $2 #
transform $-1 0.55919289150049634 0 -0.82903758062907751 0 -1 0 -0.82903758062907751 0 -0.55919289150049634 129.30691700590933 7.1144056700957368 9.2314255778928356 1 rotate no_reflect no_shear #
lump $-1 $-1 $54 $3 #
transform $-1 0.55919289150049634 0 -0.82903758062907751 0 -1 0 -0.82903758062907751 0 -0.55919289150049634 129.30691700590933 10.422111678588625 9.2314255778928356 1 rotate no_reflect no_shear #
lump $-1 $-1 $55 $4 #
transform $-1 0.55919289150049634 0 -0.82903758062907751 0 1 0 0.82903758062907751 0 0.55919289150049634 168.56648601973959 23.985494528776535 191.57425911316443 1 rotate no_reflect no_shear #
lump $-1 $-1 $56 $5 #
transform $-1 0.55919289150049634 0 -0.82903758062907751 0 -1 0 -0.82903758062907751 0 -0.55919289150049634 129.30691700590933 22.331641524530092 9.2314255778928356 1 rotate no_reflect no_shear #
lump $-1 $-1 $57 $6 #
transform $-1 0.55919289150049634 0 -0.82903758062907751 0 -1 0 -0.82903758062907751 0 -0.55919289150049634 129.30691700590933 25.639347533022978 9.2314255778928356 1 rotate no_reflect no_shear #
lump $-1 $-1 $58 $7 #
transform $-1 0.55919289150049634 0 -0.82903758062907751 0 1 0 0.82903758062907751 0 0.55919289150049634 168.56648601973959 39.202730383210891 191.57425911316443 1 rotate no_reflect no_shear #
lump $-1 $-1 $59 $8 #
transform $-1 0.55919289150049634 0 -0.82903758062907751 0 -1 0 -0.82903758062907751 0 -0.55919289150049634 129.30691700590933 37.548877378964448 9.2314255778928356 1 rotate no_reflect no_shear #
lump $-1 $-1 $60 $9 #
transform $-1 0.55919289150049634 0 -0.82903758062907751 0 -1 0 -0.82903758062907751 0 -0.55919289150049634 129.30691700590933 40.856583387457334 9.2314255778928356 1 rotate no_reflect no_shear #
lump $-1 $-1 $61 $10 #
transform $-1 0.55919289150049634 0 -0.82903758062907751 0 1 0 0.82903758062907751 0 0.55919289150049634 168.56648601973959 54.419966237645248 191.57425911316443 1 rotate no_reflect no_shear #
lump $-1 $-1 $62 $11 #
transform $-1 0.55919289150049634 0 -0.82903758062907751 0 -1 0 -0.82903758062907751 0 -0.55919289150049634 129.30691700590933 52.766113233398805 9.2314255778928356 1 rotate no_reflect no_shear #
lump $-1 $-1 $63 $12 #
transform $-1 0.55919289150049634 0 -0.82903758062907751 0 -1 0 -0.82903758062907751 0 -0.55919289150049634 129.30691700590933 56.073819241891691 9.2314255778928356 1 rotate no_reflect no_shear #
lump $-1 $-1 $64 $13 #
transform $-1 0.74314481823134659 0 0.66913061440640931 0 1 0 -0.66913061440640931 0 0.74314481823134659 -88.824245456443109 32.339933289647391 106.17142008381789 1 rotate no_reflect no_shear #
lump $-1 $-1 $65 $14 #
transform $-1 0.74314481823134659 0 0.66913061440640931 0 -1 0 0.66913061440640931 0 -0.74314481823134659 4.8243093880893904 27.434462094577217 8.4447257422131123 1 rotate no_reflect no_shear #
lump $-1 $-1 $66 $15 #
transform $-1 0.74314481823134659 0 0.66913061440640931 0 -1 0 0.66913061440640931 0 -0.74314481823134659 4.8243093880893904 32.339933289647391 8.4447257422131123 1 rotate no_reflect no_shear #
lump $-1 $-1 $67 $16 #
transform $-1 0.74314481823134659 0 0.66913061440640931 0 -1 0 0.66913061440640931 0 -0.74314481823134659 4.8243093880893904 37.245404484717568 8.4447257422131123 1 rotate no_reflect no_shear #
shell $-1 $-1 $-1 $68 $-1 $17 #
shell $-1 $-1 $-1 $69 $-1 $19 #
shell $-1 $-1 $-1 $70 $-1 $21 #
shell $-1 $-1 $-1 $71 $-1 $23 #
shell $-1 $-1 $-1 $72 $-1 $25 #
shell $-1 $-1 $-1 $73 $-1 $27 #
shell $-1 $-1 $-1 $74 $-1 $29 #
shell $-1 $-1 $-1 $75 $-1 $31 #
shell $-1 $-1 $-1 $76 $-1 $33 #
shell $-1 $-1 $-1 $77 $-1 $35 #
shell $-1 $-1 $-1 $78 $-1 $37 #
shell $-1 $-1 $-1 $79 $-1 $39 #
shell $-1 $-1 $-1 $80 $-1 $41 #
shell $-1 $-1 $-1 $81 $-1 $43 #
shell $-1 $-1 $-1 $82 $-1 $45 #
shell $-1 $-1 $-1 $83 $-1 $47 #
shell $-1 $-1 $-1 $84 $-1 $49 #
face $-1 $85 $86 $51 $-1 $87 forward single #
face $-1 $88 $89 $52 $-1 $90 forward single #
face $-1 $91 $92 $53 $-1 $93 forward single #
face $-1 $94 $95 $54 $-1 $96 forward single #
face $-1 $97 $98 $55 $-1 $99 forward single #
face $-1 $100 $101 $56 $-1 $102 forward single #
face $-1 $103 $104 $57 $-1 $105 forward single #
face $-1 $106 $107 $58 $-1 $108 forward single #
face $-1 $109 $110 $59 $-1 $111 forward single #
face $-1 $112 $113 $60 $-1 $114 forward single #
face $-1 $115 $116 $61 $-1 $117 forward single #
face $-1 $118 $119 $62 $-1 $120 forward single #
face $-1 $121 $122 $63 $-1 $123 forward single #
face $-1 $124 $125 $64 $-1 $126 forward single #
face $-1 $127 $128 $65 $-1 $129 forward single #
face $-1 $130 $131 $66 $-1 $132 forward single #
face $-1 $133 $134 $67 $-1 $135 forward single #
face $-1 $136 $137 $51 $-1 $138 reversed single #
loop $-1 $-1 $139 $68 #
plane-surface $-1 0 0 6.5730834078113567 0 0 1 1 0 0 forward_v I I I I #
face $-1 $140 $141 $52 $-1 $142 reversed single #
loop $-1 $-1 $143 $69 #
plane-surface $-1 0 0 132.74575029755547 0 0 1 1 0 0 forward_v I I I I #
face $-1 $144 $145 $53 $-1 $146 forward single #
loop $-1 $147 $148 $70 #
cone-surface $-1 0 0 -1.008362071596423 0 0 1 0.5 0 0 1 I I 0 1 0.5 forward I I I I #
face $-1 $149 $150 $54 $-1 $151 forward single #
loop $-1 $152 $153 $71 #
cone-surface $-1 0 0 -1.008362071596423 0 0 1 0.5 0 0 1 I I 0 1 0.5 forward I I I I #
face $-1 $154 $155 $55 $-1 $156 reversed single #
loop $-1 $-1 $157 $72 #
plane-surface $-1 0 0 132.74575029755547 0 0 1 1 0 0 forward_v I I I I #
face $-1 $158 $159 $56 $-1 $160 forward single #
loop $-1 $161 $162 $73 #
cone-surface $-1 0 0 -1.008362071596423 0 0 1 0.5 0 0 1 I I 0 1 0.5 forward I I I I #
face $-1 $163 $164 $57 $-1 $165 forward single #
loop $-1 $166 $167 $74 #
cone-surface $-1 0 0 -1.008362071596423 0 0 1 0.5 0 0 1 I I 0 1 0.5 forward I I I I #
face $-1 $168 $169 $58 $-1 $170 reversed single #
loop $-1 $-1 $171 $75 #
plane-surface $-1 0 0 132.74575029755547 0 0 1 1 0 0 forward_v I I I I #
face $-1 $172 $173 $59 $-1 $174 forward single #
loop $-1 $175 $176 $76 #
cone-surface $-1 0 0 -1.008362071596423 0 0 1 0.5 0 0 1 I I 0 1 0.5 forward I I I I #
face $-1 $177 $178 $60 $-1 $179 forward single #
loop $-1 $180 $181 $77 #
cone-surface $-1 0 0 -1.008362071596423 0 0 1 0.5 0 0 1 I I 0 1 0.5 forward I I I I #
face $-1 $182 $183 $61 $-1 $184 reversed single #
loop $-1 $-1 $185 $78 #
plane-surface $-1 0 0 132.74575029755547 0 0 1 1 0 0 forward_v I I I I #
face $-1 $186 $187 $62 $-1 $188 forward single #
loop $-1 $189 $190 $79 #
cone-surface $-1 0 0 -1.008362071596423 0 0 1 0.5 0 0 1 I I 0 1 0.5 forward I I I I #
face $-1 $191 $192 $63 $-1 $193 forward single #
loop $-1 $194 $195 $80 #
cone-surface $-1 0 0 -1.008362071596423 0 0 1 0.5 0 0 1 I I 0 1 0.5 forward I I I I #
face $-1 $196 $197 $64 $-1 $198 reversed single #
loop $-1 $-1 $199 $81 #
plane-surface $-1 0 0 132.74575029755547 0 0 1 1 0 0 forward_v I I I I #
face $-1 $200 $201 $65 $-1 $202 forward single #
loop $-1 $203 $204 $82 #
cone-surface $-1 0 0 -1.5212256233405554 0 0 1 1 0 0 1 I I 0 1 1 forward I I I I #
face $-1 $205 $206 $66 $-1 $207 forward single #
loop $-1 $208 $209 $83 #
cone-surface $-1 0 0 -1.5212256233405554 0 0 1 1 0 0 1 I I 0 1 1 forward I I I I #
face $-1 $210 $211 $67 $-1 $212 forward single #
loop $-1 $213 $214 $84 #
cone-surface $-1 0 0 -1.5212256233405554 0 0 1 1 0 0 1 I I 0 1 1 forward I I I I #
face $-1 $215 $216 $51 $-1 $217 reversed single #
loop $-1 $-1 $218 $85 #
plane-surface $-1 0 0 -6.5730834078113567 0 0 1 1 0 0 forward_v I I I I #
coedge $-1 $219 $220 $221 $222 forward $86 $-1 #
face $-1 $223 $224 $52 $-1 $225 reversed single #
loop $-1 $-1 $226 $88 #
plane-surface $-1 0 0 -132.74575029755547 0 0 1 1 0 0 forward_v I I I I #
coedge $-1 $227 $228 $229 $230 forward $89 $-1 #
face $-1 $-1 $231 $53 $-1 $232 forward single #
loop $-1 $-1 $233 $91 #
plane-surface $-1 0 0 -1.7667241431928464 0 0 -1 -1 0 0 forward_v I I I I #
loop $-1 $-1 $234 $70 #
coedge $-1 $148 $148 $233 $235 reversed $92 $-1 #
face $-1 $-1 $236 $54 $-1 $237 forward single #
loop $-1 $-1 $238 $94 #
plane-surface $-1 0 0 -1.7667241431928464 0 0 -1 -1 0 0 forward_v I I I I #
loop $-1 $-1 $239 $71 #
coedge $-1 $153 $153 $238 $240 reversed $95 $-1 #
face $-1 $241 $242 $55 $-1 $243 reversed single #
loop $-1 $-1 $244 $97 #
plane-surface $-1 0 0 -132.74575029755547 0 0 1 1 0 0 forward_v I I I I #
coedge $-1 $245 $246 $247 $248 forward $98 $-1 #
face $-1 $-1 $249 $56 $-1 $250 forward single #
loop $-1 $-1 $251 $100 #
plane-surface $-1 0 0 -1.7667241431928464 0 0 -1 -1 0 0 forward_v I I I I #
loop $-1 $-1 $252 $73 #
coedge $-1 $162 $162 $251 $253 reversed $101 $-1 #
face $-1 $-1 $254 $57 $-1 $255 forward single #
loop $-1 $-1 $256 $103 #
plane-surface $-1 0 0 -1.7667241431928464 0 0 -1 -1 0 0 forward_v I I I I #
loop $-1 $-1 $257 $74 #
coedge $-1 $167 $167 $256 $258 reversed $104 $-1 #
face $-1 $259 $260 $58 $-1 $261 reversed single #
loop $-1 $-1 $262 $106 #
plane-surface $-1 0 0 -132.74575029755547 0 0 1 1 0 0 forward_v I I I I #
coedge $-1 $263 $264 $265 $266 forward $107 $-1 #
face $-1 $-1 $267 $59 $-1 $268 forward single #
loop $-1 $-1 $269 $109 #
plane-surface $-1 0 0 -1.7667241431928464 0 0 -1 -1 0 0 forward_v I I I I #
loop $-1 $-1 $270 $76 #
coedge $-1 $176 $176 $269 $271 reversed $110 $-1 #
face $-1 $-1 $272 $60 $-1 $273 forward single #
loop $-1 $-1 $274 $112 #
plane-surface $-1 0 0 -1.7667241431928464 0 0 -1 -1 0 0 forward_v I I I I #
loop $-1 $-1 $275 $77 #
coedge $-1 $181 $181 $274 $276 reversed $113 $-1 #
face $-1 $277 $278 $61 $-1 $279 reversed single #
loop $-1 $-1 $280 $115 #
plane-surface $-1 0 0 -132.74575029755547 0 0 1 1 0 0 forward_v I I I I #
coedge $-1 $281 $282 $283 $284 forward $116 $-1 #
face $-1 $-1 $285 $62 $-1 $286 forward single #
loop $-1 $-1 $287 $118 #
plane-surface $-1 0 0 -1.7667241431928464 0 0 -1 -1 0 0 forward_v I I I I #
loop $-1 $-1 $288 $79 #
coedge $-1 $190 $190 $287 $289 reversed $119 $-1 #
face $-1 $-1 $290 $63 $-1 $291 forward single #
loop $-1 $-1 $292 $121 #
plane-surface $-1 0 0 -1.7667241431928464 0 0 -1 -1 0 0 forward_v I I I I #
loop $-1 $-1 $293 $80 #
coedge $-1 $195 $195 $292 $294 reversed $122 $-1 #
face $-1 $295 $296 $64 $-1 $297 reversed single #
loop $-1 $-1 $298 $124 #
plane-surface $-1 0 0 -132.74575029755547 0 0 1 1 0 0 forward_v I I I I #
coedge $-1 $299 $300 $301 $302 forward $125 $-1 #
face $-1 $-1 $303 $65 $-1 $304 forward single #
loop $-1 $-1 $305 $127 #
plane-surface $-1 0 0 -2.5424512466811113 0 0 -1 -1 0 0 forward_v I I I I #
loop $-1 $-1 $306 $82 #
coedge $-1 $204 $204 $305 $307 reversed $128 $-1 #
face $-1 $-1 $308 $66 $-1 $309 forward single #
loop $-1 $-1 $310 $130 #
plane-surface $-1 0 0 -2.5424512466811113 0 0 -1 -1 0 0 forward_v I I I I #
loop $-1 $-1 $311 $83 #
coedge $-1 $209 $209 $310 $312 reversed $131 $-1 #
face $-1 $-1 $313 $67 $-1 $314 forward single #
loop $-1 $-1 $315 $133 #
plane-surface $-1 0 0 -2.5424512466811113 0 0 -1 -1 0 0 forward_v I I I I #
loop $-1 $-1 $316 $84 #
coedge $-1 $214 $214 $315 $317 reversed $134 $-1 #
face $-1 $318 $319 $51 $-1 $320 reversed single #
loop $-1 $-1 $321 $136 #
plane-surface $-1 0 -31.594112455993709 0 0 1 0 0 0 1 forward_v I I I I #
coedge $-1 $322 $323 $324 $325 forward $137 $-1 #
coedge $-1 $326 $139 $327 $328 forward $86 $-1 #
coedge $-1 $139 $326 $329 $330 forward $86 $-1 #
coedge $-1 $331 $332 $139 $222 reversed $333 $-1 #
edge $-1 $334 -31.594112455993709 $335 31.594112455993709 $221 $336 forward 7 unknown #
face $-1 $337 $338 $52 $-1 $339 reversed single #
loop $-1 $-1 $340 $140 #
plane-surface $-1 0 -3.8589903432417016 0 0 1 0 0 0 1 forward_v I I I I #
coedge $-1 $341 $342 $343 $344 forward $141 $-1 #
coedge $-1 $345 $143 $346 $347 forward $89 $-1 #
coedge $-1 $143 $345 $348 $349 forward $89 $-1 #
coedge $-1 $350 $351 $143 $230 reversed $352 $-1 #
edge $-1 $353 -3.8589903432417016 $354 3.8589903432417016 $229 $355 forward 7 unknown #
loop $-1 $356 $357 $144 #
cone-surface $-1 0 0 0 0 0 1 0.25 0 0 1 I I -0.70710678118654746 0.70710678118654746 0.25 forward I I I I #
coedge $-1 $233 $233 $148 $235 forward $145 $-1 #
coedge $-1 $234 $234 $357 $358 forward $147 $-1 #
edge $-1 $359 0 $359 6.2831853071796004 $233 $360 forward 7 unknown #
loop $-1 $361 $362 $149 #
cone-surface $-1 0 0 0 0 0 1 0.25 0 0 1 I I -0.70710678118654746 0.70710678118654746 0.25 forward I I I I #
coedge $-1 $238 $238 $153 $240 forward $150 $-1 #
coedge $-1 $239 $239 $362 $363 forward $152 $-1 #
edge $-1 $364 0 $364 6.2831853071796004 $238 $365 forward 7 unknown #
face $-1 $366 $367 $55 $-1 $368 reversed single #
loop $-1 $-1 $369 $154 #
plane-surface $-1 0 -3.8589903432417016 0 0 1 0 0 0 1 forward_v I I I I #
coedge $-1 $370 $371 $372 $373 forward $155 $-1 #
coedge $-1 $374 $157 $375 $376 forward $98 $-1 #
coedge $-1 $157 $374 $377 $378 forward $98 $-1 #
coedge $-1 $379 $380 $157 $248 reversed $381 $-1 #
edge $-1 $382 -3.8589903432417016 $383 3.8589903432417016 $247 $384 forward 7 unknown #
loop $-1 $385 $386 $158 #
cone-surface $-1 0 0 0 0 0 1 0.25 0 0 1 I I -0.70710678118654746 0.70710678118654746 0.25 forward I I I I #
coedge $-1 $251 $251 $162 $253 forward $159 $-1 #
coedge $-1 $252 $252 $386 $387 forward $161 $-1 #
edge $-1 $388 0 $388 6.2831853071796004 $251 $389 forward 7 unknown #
loop $-1 $390 $391 $163 #
cone-surface $-1 0 0 0 0 0 1 0.25 0 0 1 I I -0.70710678118654746 0.70710678118654746 0.25 forward I I I I #
coedge $-1 $256 $256 $167 $258 forward $164 $-1 #
coedge $-1 $257 $257 $391 $392 forward $166 $-1 #
edge $-1 $393 0 $393 6.2831853071796004 $256 $394 forward 7 unknown #
face $-1 $395 $396 $58 $-1 $397 reversed single #
loop $-1 $-1 $398 $168 #
plane-surface $-1 0 -3.8589903432417016 0 0 1 0 0 0 1 forward_v I I I I #
coedge $-1 $399 $400 $401 $402 forward $169 $-1 #
coedge $-1 $403 $171 $404 $405 forward $107 $-1 #
coedge $-1 $171 $403 $406 $407 forward $107 $-1 #
coedge $-1 $408 $409 $171 $266 reversed $410 $-1 #
edge $-1 $411 -3.8589903432417016 $412 3.8589903432417016 $265 $413 forward 7 unknown #
loop $-1 $414 $415 $172 #
cone-surface $-1 0 0 0 0 0 1 0.25 0 0 1 I I -0.70710678118654746 0.70710678118654746 0.25 forward I I I I #
coedge $-1 $269 $269 $176 $271 forward $173 $-1 #
coedge $-1 $270 $270 $415 $416 forward $175 $-1 #
edge $-1 $417 0 $417 6.2831853071796004 $269 $418 forward 7 unknown #
loop $-1 $419 $420 $177 #
cone-surface $-1 0 0 0 0 0 1 0.25 0 0 1 I I -0.70710678118654746 0.70710678118654746 0.25 forward I I I I #
coedge $-1 $274 $274 $181 $276 forward $178 $-1 #
coedge $-1 $275 $275 $420 $421 forward $180 $-1 #
edge $-1 $422 0 $422 6.2831853071796004 $274 $423 forward 7 unknown #
face $-1 $424 $425 $61 $-1 $426 reversed single #
loop $-1 $-1 $427 $182 #
plane-surface $-1 0 -3.8589903432417016 0 0 1 0 0 0 1 forward_v I I I I #
coedge $-1 $428 $429 $430 $431 forward $183 $-1 #
coedge $-1 $432 $185 $433 $434 forward $116 $-1 #
coedge $-1 $185 $432 $435 $436 forward $116 $-1 #
coedge $-1 $437 $438 $185 $284 reversed $439 $-1 #
edge $-1 $440 -3.8589903432417016 $441 3.8589903432417016 $283 $442 forward 7 unknown #
loop $-1 $443 $444 $186 #
cone-surface $-1 0 0 0 0 0 1 0.25 0 0 1 I I -0.70710678118654746 0.70710678118654746 0.25 forward I I I I #
coedge $-1 $287 $287 $190 $289 forward $187 $-1 #
coedge $-1 $288 $288 $444 $445 forward $189 $-1 #
edge $-1 $446 0 $446 6.2831853071796004 $287 $447 forward 7 unknown #
loop $-1 $448 $449 $191 #
cone-surface $-1 0 0 0 0 0 1 0.25 0 0 1 I I -0.70710678118654746 0.70710678118654746 0.25 forward I I I I #
coedge $-1 $292 $292 $195 $294 forward $192 $-1 #
coedge $-1 $293 $293 $449 $450 forward $194 $-1 #
edge $-1 $451 0 $451 6.2831853071796004 $292 $452 forward 7 unknown #
face $-1 $453 $454 $64 $-1 $455 reversed single #
loop $-1 $-1 $456 $196 #
plane-surface $-1 0 -8.1757853251169603 0 0 1 0 0 0 1 forward_v I I I I #
coedge $-1 $457 $458 $459 $460 forward $197 $-1 #
coedge $-1 $461 $199 $462 $463 forward $125 $-1 #
coedge $-1 $199 $461 $464 $465 forward $125 $-1 #
coedge $-1 $466 $467 $199 $302 reversed $468 $-1 #
edge $-1 $469 -8.1757853251169603 $470 8.1757853251169603 $301 $471 forward 7 unknown #
loop $-1 $472 $473 $200 #
cone-surface $-1 0 0 0 0 0 1 0.5 0 0 1 I I -0.70710678118654746 0.70710678118654746 0.5 forward I I I I #
coedge $-1 $305 $305 $204 $307 forward $201 $-1 #
coedge $-1 $306 $306 $473 $474 forward $203 $-1 #
edge $-1 $475 0 $475 6.2831853071796004 $305 $476 forward 7 unknown #
loop $-1 $477 $478 $205 #
cone-surface $-1 0 0 0 0 0 1 0.5 0 0 1 I I -0.70710678118654746 0.70710678118654746 0.5 forward I I I I #
coedge $-1 $310 $310 $209 $312 forward $206 $-1 #
coedge $-1 $311 $311 $478 $479 forward $208 $-1 #
edge $-1 $480 0 $480 6.2831853071796004 $310 $481 forward 7 unknown #
loop $-1 $482 $483 $210 #
cone-surface $-1 0 0 0 0 0 1 0.5 0 0 1 I I -0.70710678118654746 0.70710678118654746 0.5 forward I I I I #
coedge $-1 $315 $315 $214 $317 forward $211 $-1 #
coedge $-1 $316 $316 $483 $484 forward $213 $-1 #
edge $-1 $485 0 $485 6.2831853071796004 $315 $486 forward 7 unknown #
face $-1 $487 $488 $51 $-1 $489 reversed single #
loop $-1 $-1 $490 $215 #
plane-surface $-1 -66.372875148777737 0 0 1 0 0 0 0 -1 forward_v I I I I #
coedge $-1 $491 $329 $492 $493 forward $216 $-1 #
coedge $-1 $494 $218 $491 $495 forward $137 $-1 #
coedge $-1 $218 $494 $496 $497 forward $137 $-1 #
coedge $-1 $332 $331 $218 $325 reversed $333 $-1 #
edge $-1 $498 -31.594112455993709 $499 31.594112455993709 $324 $500 forward 7 unknown #
coedge $-1 $220 $219 $501 $502 forward $86 $-1 #
coedge $-1 $503 $504 $219 $328 reversed $488 $-1 #
edge $-1 $335 -66.372875148777737 $505 66.372875148777737 $327 $506 forward 7 unknown #
coedge $-1 $321 $507 $220 $330 reversed $216 $-1 #
edge $-1 $508 -66.372875148777737 $334 66.372875148777737 $329 $509 forward 7 unknown #
coedge $-1 $324 $221 $507 $510 forward $333 $-1 #
coedge $-1 $221 $324 $503 $511 reversed $333 $-1 #
loop $-1 $-1 $331 $487 #
vertex $-1 $222 $512 #
vertex $-1 $222 $513 #
straight-curve $-1 66.372875148777737 0 6.5730834078113567 0 1 0 I I #
face $-1 $514 $515 $52 $-1 $516 reversed single #
loop $-1 $-1 $517 $223 #
plane-surface $-1 -265.49150059511095 0 0 1 0 0 0 0 -1 forward_v I I I I #
coedge $-1 $518 $348 $519 $520 forward $224 $-1 #
coedge $-1 $521 $226 $518 $522 forward $141 $-1 #
coedge $-1 $226 $521 $523 $524 forward $141 $-1 #
coedge $-1 $351 $350 $226 $344 reversed $352 $-1 #
edge $-1 $525 -3.8589903432417016 $526 3.8589903432417016 $343 $527 forward 7 unknown #
coedge $-1 $228 $227 $528 $529 forward $89 $-1 #
coedge $-1 $530 $531 $227 $347 reversed $515 $-1 #
edge $-1 $354 -265.49150059511095 $532 265.49150059511095 $346 $533 forward 7 unknown #
coedge $-1 $340 $534 $228 $349 reversed $224 $-1 #
edge $-1 $535 -265.49150059511095 $353 265.49150059511095 $348 $536 forward 7 unknown #
coedge $-1 $343 $229 $534 $537 forward $352 $-1 #
coedge $-1 $229 $343 $530 $538 reversed $352 $-1 #
loop $-1 $-1 $350 $514 #
vertex $-1 $230 $539 #
vertex $-1 $230 $540 #
straight-curve $-1 265.49150059511095 0 132.74575029755547 0 1 0 I I #
loop $-1 $-1 $541 $144 #
coedge $-1 $357 $357 $234 $358 reversed $231 $-1 #
edge $-1 $542 0 $542 6.2831853071796004 $357 $543 forward 7 unknown #
vertex $-1 $235 $544 #
ellipse-curve $-1 0 0 -1.7667241431928464 0 0 -1 0.5 0 0 1 I I #
loop $-1 $-1 $545 $149 #
coedge $-1 $362 $362 $239 $363 reversed $236 $-1 #
edge $-1 $546 0 $546 6.2831853071796004 $362 $547 forward 7 unknown #
vertex $-1 $240 $548 #
ellipse-curve $-1 0 0 -1.7667241431928464 0 0 -1 0.5 0 0 1 I I #
face $-1 $549 $550 $55 $-1 $551 reversed single #
loop $-1 $-1 $552 $241 #
plane-surface $-1 -265.49150059511095 0 0 1 0 0 0 0 -1 forward_v I I I I #
coedge $-1 $553 $377 $554 $555 forward $242 $-1 #
coedge $-1 $556 $244 $553 $557 forward $155 $-1 #
coedge $-1 $244 $556 $558 $559 forward $155 $-1 #
coedge $-1 $380 $379 $244 $373 reversed $381 $-1 #
edge $-1 $560 -3.8589903432417016 $561 3.8589903432417016 $372 $562 forward 7 unknown #
coedge $-1 $246 $245 $563 $564 forward $98 $-1 #
coedge $-1 $565 $566 $245 $376 reversed $550 $-1 #
edge $-1 $383 -265.49150059511095 $567 265.49150059511095 $375 $568 forward 7 unknown #
coedge $-1 $369 $569 $246 $378 reversed $242 $-1 #
edge $-1 $570 -265.49150059511095 $382 265.49150059511095 $377 $571 forward 7 unknown #
coedge $-1 $372 $247 $569 $572 forward $381 $-1 #
coedge $-1 $247 $372 $565 $573 reversed $381 $-1 #
loop $-1 $-1 $379 $549 #
vertex $-1 $248 $574 #
vertex $-1 $248 $575 #
straight-curve $-1 265.49150059511095 0 132.74575029755547 0 1 0 I I #
loop $-1 $-1 $576 $158 #
coedge $-1 $386 $386 $252 $387 reversed $249 $-1 #
edge $-1 $577 0 $577 6.2831853071796004 $386 $578 forward 7 unknown #
vertex $-1 $253 $579 #
ellipse-curve $-1 0 0 -1.7667241431928464 0 0 -1 0.5 0 0 1 I I #
loop $-1 $-1 $580 $163 #
coedge $-1 $391 $391 $257 $392 reversed $254 $-1 #
edge $-1 $581 0 $581 6.2831853071796004 $391 $582 forward 7 unknown #
vertex $-1 $258 $583 #
ellipse-curve $-1 0 0 -1.7667241431928464 0 0 -1 0.5 0 0 1 I I #
face $-1 $584 $585 $58 $-1 $586 reversed single #
loop $-1 $-1 $587 $259 #
plane-surface $-1 -265.49150059511095 0 0 1 0 0 0 0 -1 forward_v I I I I #
coedge $-1 $588 $406 $589 $590 forward $260 $-1 #
coedge $-1 $591 $262 $588 $592 forward $169 $-1 #
coedge $-1 $262 $591 $593 $594 forward $169 $-1 #
coedge $-1 $409 $408 $262 $402 reversed $410 $-1 #
edge $-1 $595 -3.8589903432417016 $596 3.8589903432417016 $401 $597 forward 7 unknown #
coedge $-1 $264 $263 $598 $599 forward $107 $-1 #
coedge $-1 $600 $601 $263 $405 reversed $585 $-1 #
edge $-1 $412 -265.49150059511095 $602 265.49150059511095 $404 $603 forward 7 unknown #
coedge $-1 $398 $604 $264 $407 reversed $260 $-1 #
edge $-1 $605 -265.49150059511095 $411 265.49150059511095 $406 $606 forward 7 unknown #
coedge $-1 $401 $265 $604 $607 forward $410 $-1 #
coedge $-1 $265 $401 $600 $608 reversed $410 $-1 #
loop $-1 $-1 $408 $584 #
vertex $-1 $266 $609 #
vertex $-1 $266 $610 #
straight-curve $-1 265.49150059511095 0 132.74575029755547 0 1 0 I I #
loop $-1 $-1 $611 $172 #
coedge $-1 $415 $415 $270 $416 reversed $267 $-1 #
edge $-1 $612 0 $612 6.2831853071796004 $415 $613 forward 7 unknown #
vertex $-1 $271 $614 #
ellipse-curve $-1 0 0 -1.7667241431928464 0 0 -1 0.5 0 0 1 I I #
loop $-1 $-1 $615 $177 #
coedge $-1 $420 $420 $275 $421 reversed $272 $-1 #
edge $-1 $616 0 $616 6.2831853071796004 $420 $617 forward 7 unknown #
vertex $-1 $276 $618 #
ellipse-curve $-1 0 0 -1.7667241431928464 0 0 -1 0.5 0 0 1 I I #
face $-1 $619 $620 $61 $-1 $621 reversed single #
loop $-1 $-1 $622 $277 #
plane-surface $-1 -265.49150059511095 0 0 1 0 0 0 0 -1 forward_v I I I I #
coedge $-1 $623 $435 $624 $625 forward $278 $-1 #
coedge $-1 $626 $280 $623 $627 forward $183 $-1 #
coedge $-1 $280 $626 $628 $629 forward $183 $-1 #
coedge $-1 $438 $437 $280 $431 reversed $439 $-1 #
edge $-1 $630 -3.8589903432417016 $631 3.8589903432417016 $430 $632 forward 7 unknown #
coedge $-1 $282 $281 $633 $634 forward $116 $-1 #
coedge $-1 $635 $636 $281 $434 reversed $620 $-1 #
edge $-1 $441 -265.49150059511095 $637 265.49150059511095 $433 $638 forward 7 unknown #
coedge $-1 $427 $639 $282 $436 reversed $278 $-1 #
edge $-1 $640 -265.49150059511095 $440 265.49150059511095 $435 $641 forward 7 unknown #
coedge $-1 $430 $283 $639 $642 forward $439 $-1 #
coedge $-1 $283 $430 $635 $643 reversed $439 $-1 #
loop $-1 $-1 $437 $619 #
vertex $-1 $284 $644 #
vertex $-1 $284 $645 #
straight-curve $-1 265.49150059511095 0 132.74575029755547 0 1 0 I I #
loop $-1 $-1 $646 $186 #
coedge $-1 $444 $444 $288 $445 reversed $285 $-1 #
edge $-1 $647 0 $647 6.2831853071796004 $444 $648 forward 7 unknown #
vertex $-1 $289 $649 #
ellipse-curve $-1 0 0 -1.7667241431928464 0 0 -1 0.5 0 0 1 I I #
loop $-1 $-1 $650 $191 #
coedge $-1 $449 $449 $293 $450 reversed $290 $-1 #
edge $-1 $651 0 $651 6.2831853071796004 $449 $652 forward 7 unknown #
vertex $-1 $294 $653 #
ellipse-curve $-1 0 0 -1.7667241431928464 0 0 -1 0.5 0 0 1 I I #
face $-1 $654 $655 $64 $-1 $656 reversed single #
loop $-1 $-1 $657 $295 #
plane-surface $-1 -265.49150059511095 0 0 1 0 0 0 0 -1 forward_v I I I I #
coedge $-1 $658 $464 $659 $660 forward $296 $-1 #
coedge $-1 $661 $298 $658 $662 forward $197 $-1 #
coedge $-1 $298 $661 $663 $664 forward $197 $-1 #
coedge $-1 $467 $466 $298 $460 reversed $468 $-1 #
edge $-1 $665 -8.1757853251169603 $666 8.1757853251169603 $459 $667 forward 7 unknown #
coedge $-1 $300 $299 $668 $669 forward $125 $-1 #
coedge $-1 $670 $671 $299 $463 reversed $655 $-1 #
edge $-1 $470 -265.49150059511095 $672 265.49150059511095 $462 $673 forward 7 unknown #
coedge $-1 $456 $674 $300 $465 reversed $296 $-1 #
edge $-1 $675 -265.49150059511095 $469 265.49150059511095 $464 $676 forward 7 unknown #
coedge $-1 $459 $301 $674 $677 forward $468 $-1 #
coedge $-1 $301 $459 $670 $678 reversed $468 $-1 #
loop $-1 $-1 $466 $654 #
vertex $-1 $302 $679 #
vertex $-1 $302 $680 #
straight-curve $-1 265.49150059511095 0 132.74575029755547 0 1 0 I I #
loop $-1 $-1 $681 $200 #
coedge $-1 $473 $473 $306 $474 reversed $303 $-1 #
edge $-1 $682 0 $682 6.2831853071796004 $473 $683 forward 7 unknown #
vertex $-1 $307 $684 #
ellipse-curve $-1 0 0 -2.5424512466811113 0 0 -1 1 0 0 1 I I #
loop $-1 $-1 $685 $205 #
coedge $-1 $478 $478 $311 $479 reversed $308 $-1 #
edge $-1 $686 0 $686 6.2831853071796004 $478 $687 forward 7 unknown #
vertex $-1 $312 $688 #
ellipse-curve $-1 0 0 -2.5424512466811113 0 0 -1 1 0 0 1 I I #
loop $-1 $-1 $689 $210 #
coedge $-1 $483 $483 $316 $484 reversed $313 $-1 #
edge $-1 $690 0 $690 6.2831853071796004 $483 $691 forward 7 unknown #
vertex $-1 $317 $692 #
ellipse-curve $-1 0 0 -2.5424512466811113 0 0 -1 1 0 0 1 I I #
face $-1 $-1 $333 $51 $-1 $693 reversed single #
loop $-1 $-1 $503 $318 #
plane-surface $-1 0 31.594112455993709 0 0 -1 0 0 0 -1 forward_v I I I I #
coedge $-1 $694 $501 $504 $695 forward $319 $-1 #
coedge $-1 $507 $321 $322 $495 reversed $216 $-1 #
coedge $-1 $501 $694 $321 $493 reversed $319 $-1 #
edge $-1 $508 -6.5730834078113567 $696 6.5730834078113567 $492 $697 forward 7 unknown #
coedge $-1 $323 $322 $694 $698 forward $137 $-1 #
edge $-1 $499 -66.372875148777737 $696 66.372875148777737 $491 $699 forward 7 unknown #
coedge $-1 $504 $503 $323 $497 reversed $488 $-1 #
edge $-1 $700 -66.372875148777737 $498 66.372875148777737 $496 $701 forward 7 unknown #
vertex $-1 $325 $702 #
vertex $-1 $510 $703 #
straight-curve $-1 66.372875148777737 0 -6.5730834078113567 0 -1 0 I I #
coedge $-1 $490 $492 $326 $502 reversed $319 $-1 #
edge $-1 $505 -31.594112455993709 $508 31.594112455993709 $501 $704 forward 7 unknown #
coedge $-1 $496 $327 $332 $511 forward $488 $-1 #
coedge $-1 $327 $496 $490 $695 reversed $488 $-1 #
vertex $-1 $328 $705 #
straight-curve $-1 0 31.594112455993709 6.5730834078113567 -1 0 0 I I #
coedge $-1 $329 $491 $331 $510 reversed $216 $-1 #
vertex $-1 $502 $706 #
straight-curve $-1 0 -31.594112455993709 6.5730834078113567 1 0 0 I I #
edge $-1 $334 -6.5730834078113567 $499 6.5730834078113567 $331 $707 forward 7 unknown #
edge $-1 $335 -6.5730834078113567 $498 6.5730834078113567 $332 $708 forward 7 unknown #
point $-1 66.372875148777737 -31.594112455993709 6.5730834078113567 #
point $-1 66.372875148777737 31.594112455993709 6.5730834078113567 #
face $-1 $-1 $352 $52 $-1 $709 reversed single #
loop $-1 $-1 $530 $337 #
plane-surface $-1 0 3.8589903432417016 0 0 -1 0 0 0 -1 forward_v I I I I #
coedge $-1 $710 $528 $531 $711 forward $338 $-1 #
coedge $-1 $534 $340 $341 $522 reversed $224 $-1 #
coedge $-1 $528 $710 $340 $520 reversed $338 $-1 #
edge $-1 $535 -132.74575029755547 $712 132.74575029755547 $519 $713 forward 7 unknown #
coedge $-1 $342 $341 $710 $714 forward $141 $-1 #
edge $-1 $526 -265.49150059511095 $712 265.49150059511095 $518 $715 forward 7 unknown #
coedge $-1 $531 $530 $342 $524 reversed $515 $-1 #
edge $-1 $716 -265.49150059511095 $525 265.49150059511095 $523 $717 forward 7 unknown #
vertex $-1 $344 $718 #
vertex $-1 $537 $719 #
straight-curve $-1 265.49150059511095 0 -132.74575029755547 0 -1 0 I I #
coedge $-1 $517 $519 $345 $529 reversed $338 $-1 #
edge $-1 $532 -3.8589903432417016 $535 3.8589903432417016 $528 $720 forward 7 unknown #
coedge $-1 $523 $346 $351 $538 forward $515 $-1 #
coedge $-1 $346 $523 $517 $711 reversed $515 $-1 #
vertex $-1 $347 $721 #
straight-curve $-1 0 3.8589903432417016 132.74575029755547 -1 0 0 I I #
coedge $-1 $348 $518 $350 $537 reversed $224 $-1 #
vertex $-1 $529 $722 #
straight-curve $-1 0 -3.8589903432417016 132.74575029755547 1 0 0 I I #
edge $-1 $353 -132.74575029755547 $526 132.74575029755547 $350 $723 forward 7 unknown #
edge $-1 $354 -132.74575029755547 $525 132.74575029755547 $351 $724 forward 7 unknown #
point $-1 265.49150059511095 -3.8589903432417016 132.74575029755547 #
point $-1 265.49150059511095 3.8589903432417016 132.74575029755547 #
coedge $-1 $541 $541 $-1 $725 reversed $356 $-1 #
vertex $-1 $358 $726 #
ellipse-curve $-1 0 0 -0.25 0 0 -1 0.5 0 0 1 I I #
point $-1 0.5 0 -1.7667241431928464 #
coedge $-1 $545 $545 $-1 $727 reversed $361 $-1 #
vertex $-1 $363 $728 #
ellipse-curve $-1 0 0 -0.25 0 0 -1 0.5 0 0 1 I I #
point $-1 0.5 0 -1.7667241431928464 #
face $-1 $-1 $381 $55 $-1 $729 reversed single #
loop $-1 $-1 $565 $366 #
plane-surface $-1 0 3.8589903432417016 0 0 -1 0 0 0 -1 forward_v I I I I #
coedge $-1 $730 $563 $566 $731 forward $367 $-1 #
coedge $-1 $569 $369 $370 $557 reversed $242 $-1 #
coedge $-1 $563 $730 $369 $555 reversed $367 $-1 #
edge $-1 $570 -132.74575029755547 $732 132.74575029755547 $554 $733 forward 7 unknown #
coedge $-1 $371 $370 $730 $734 forward $155 $-1 #
edge $-1 $561 -265.49150059511095 $732 265.49150059511095 $553 $735 forward 7 unknown #
coedge $-1 $566 $565 $371 $559 reversed $550 $-1 #
edge $-1 $736 -265.49150059511095 $560 265.49150059511095 $558 $737 forward 7 unknown #
vertex $-1 $373 $738 #
vertex $-1 $572 $739 #
straight-curve $-1 265.49150059511095 0 -132.74575029755547 0 -1 0 I I #
coedge $-1 $552 $554 $374 $564 reversed $367 $-1 #
edge $-1 $567 -3.8589903432417016 $570 3.8589903432417016 $563 $740 forward 7 unknown #
coedge $-1 $558 $375 $380 $573 forward $550 $-1 #
coedge $-1 $375 $558 $552 $731 reversed $550 $-1 #
vertex $-1 $376 $741 #
straight-curve $-1 0 3.8589903432417016 132.74575029755547 -1 0 0 I I #
coedge $-1 $377 $553 $379 $572 reversed $242 $-1 #
vertex $-1 $564 $742 #
straight-curve $-1 0 -3.8589903432417016 132.74575029755547 1 0 0 I I #
edge $-1 $382 -132.74575029755547 $561 132.74575029755547 $379 $743 forward 7 unknown #
edge $-1 $383 -132.74575029755547 $560 132.74575029755547 $380 $744 forward 7 unknown #
point $-1 265.49150059511095 -3.8589903432417016 132.74575029755547 #
point $-1 265.49150059511095 3.8589903432417016 132.74575029755547 #
coedge $-1 $576 $576 $-1 $745 reversed $385 $-1 #
vertex $-1 $387 $746 #
ellipse-curve $-1 0 0 -0.25 0 0 -1 0.5 0 0 1 I I #
point $-1 0.5 0 -1.7667241431928464 #
coedge $-1 $580 $580 $-1 $747 reversed $390 $-1 #
vertex $-1 $392 $748 #
ellipse-curve $-1 0 0 -0.25 0 0 -1 0.5 0 0 1 I I #
point $-1 0.5 0 -1.7667241431928464 #
face $-1 $-1 $410 $58 $-1 $749 reversed single #
loop $-1 $-1 $600 $395 #
plane-surface $-1 0 3.8589903432417016 0 0 -1 0 0 0 -1 forward_v I I I I #
coedge $-1 $750 $598 $601 $751 forward $396 $-1 #
coedge $-1 $604 $398 $399 $592 reversed $260 $-1 #
coedge $-1 $598 $750 $398 $590 reversed $396 $-1 #
edge $-1 $605 -132.74575029755547 $752 132.74575029755547 $589 $753 forward 7 unknown #
coedge $-1 $400 $399 $750 $754 forward $169 $-1 #
edge $-1 $596 -265.49150059511095 $752 265.49150059511095 $588 $755 forward 7 unknown #
coedge $-1 $601 $600 $400 $594 reversed $585 $-1 #
edge $-1 $756 -265.49150059511095 $595 265.49150059511095 $593 $757 forward 7 unknown #
vertex $-1 $402 $758 #
vertex $-1 $607 $759 #
straight-curve $-1 265.49150059511095 0 -132.74575029755547 0 -1 0 I I #
coedge $-1 $587 $589 $403 $599 reversed $396 $-1 #
edge $-1 $602 -3.8589903432417016 $605 3.8589903432417016 $598 $760 forward 7 unknown #
coedge $-1 $593 $404 $409 $608 forward $585 $-1 #
coedge $-1 $404 $593 $587 $751 reversed $585 $-1 #
vertex $-1 $405 $761 #
straight-curve $-1 0 3.8589903432417016 132.74575029755547 -1 0 0 I I #
coedge $-1 $406 $588 $408 $607 reversed $260 $-1 #
vertex $-1 $599 $762 #
straight-curve $-1 0 -3.8589903432417016 132.74575029755547 1 0 0 I I #
edge $-1 $411 -132.74575029755547 $596 132.74575029755547 $408 $763 forward 7 unknown #
edge $-1 $412 -132.74575029755547 $595 132.74575029755547 $409 $764 forward 7 unknown #
point $-1 265.49150059511095 -3.8589903432417016 132.74575029755547 #
point $-1 265.49150059511095 3.8589903432417016 132.74575029755547 #
coedge $-1 $611 $611 $-1 $765 reversed $414 $-1 #
vertex $-1 $416 $766 #
ellipse-curve $-1 0 0 -0.25 0 0 -1 0.5 0 0 1 I I #
point $-1 0.5 0 -1.7667241431928464 #
coedge $-1 $615 $615 $-1 $767 reversed $419 $-1 #
vertex $-1 $421 $768 #
ellipse-curve $-1 0 0 -0.25 0 0 -1 0.5 0 0 1 I I #
point $-1 0.5 0 -1.7667241431928464 #
face $-1 $-1 $439 $61 $-1 $769 reversed single #
loop $-1 $-1 $635 $424 #
plane-surface $-1 0 3.8589903432417016 0 0 -1 0 0 0 -1 forward_v I I I I #
coedge $-1 $770 $633 $636 $771 forward $425 $-1 #
coedge $-1 $639 $427 $428 $627 reversed $278 $-1 #
coedge $-1 $633 $770 $427 $625 reversed $425 $-1 #
edge $-1 $640 -132.74575029755547 $772 132.74575029755547 $624 $773 forward 7 unknown #
coedge $-1 $429 $428 $770 $774 forward $183 $-1 #
edge $-1 $631 -265.49150059511095 $772 265.49150059511095 $623 $775 forward 7 unknown #
coedge $-1 $636 $635 $429 $629 reversed $620 $-1 #
edge $-1 $776 -265.49150059511095 $630 265.49150059511095 $628 $777 forward 7 unknown #
vertex $-1 $431 $778 #
vertex $-1 $642 $779 #
straight-curve $-1 265.49150059511095 0 -132.74575029755547 0 -1 0 I I #
coedge $-1 $622 $624 $432 $634 reversed $425 $-1 #
edge $-1 $637 -3.8589903432417016 $640 3.8589903432417016 $633 $780 forward 7 unknown #
coedge $-1 $628 $433 $438 $643 forward $620 $-1 #
coedge $-1 $433 $628 $622 $771 reversed $620 $-1 #
vertex $-1 $434 $781 #
straight-curve $-1 0 3.8589903432417016 132.74575029755547 -1 0 0 I I #
coedge $-1 $435 $623 $437 $642 reversed $278 $-1 #
vertex $-1 $634 $782 #
straight-curve $-1 0 -3.8589903432417016 132.74575029755547 1 0 0 I I #
edge $-1 $440 -132.74575029755547 $631 132.74575029755547 $437 $783 forward 7 unknown #
edge $-1 $441 -132.74575029755547 $630 132.74575029755547 $438 $784 forward 7 unknown #
point $-1 265.49150059511095 -3.8589903432417016 132.74575029755547 #
point $-1 265.49150059511095 3.8589903432417016 132.74575029755547 #
coedge $-1 $646 $646 $-1 $785 reversed $443 $-1 #
vertex $-1 $445 $786 #
ellipse-curve $-1 0 0 -0.25 0 0 -1 0.5 0 0 1 I I #
point $-1 0.5 0 -1.7667241431928464 #
coedge $-1 $650 $650 $-1 $787 reversed $448 $-1 #
vertex $-1 $450 $788 #
ellipse-curve $-1 0 0 -0.25 0 0 -1 0.5 0 0 1 I I #
point $-1 0.5 0 -1.7667241431928464 #
face $-1 $-1 $468 $64 $-1 $789 reversed single #
loop $-1 $-1 $670 $453 #
plane-surface $-1 0 8.1757853251169603 0 0 -1 0 0 0 -1 forward_v I I I I #
coedge $-1 $790 $668 $671 $791 forward $454 $-1 #
coedge $-1 $674 $456 $457 $662 reversed $296 $-1 #
coedge $-1 $668 $790 $456 $660 reversed $454 $-1 #
edge $-1 $675 -132.74575029755547 $792 132.74575029755547 $659 $793 forward 7 unknown #
coedge $-1 $458 $457 $790 $794 forward $197 $-1 #
edge $-1 $666 -265.49150059511095 $792 265.49150059511095 $658 $795 forward 7 unknown #
coedge $-1 $671 $670 $458 $664 reversed $655 $-1 #
edge $-1 $796 -265.49150059511095 $665 265.49150059511095 $663 $797 forward 7 unknown #
vertex $-1 $460 $798 #
vertex $-1 $677 $799 #
straight-curve $-1 265.49150059511095 0 -132.74575029755547 0 -1 0 I I #
coedge $-1 $657 $659 $461 $669 reversed $454 $-1 #
edge $-1 $672 -8.1757853251169603 $675 8.1757853251169603 $668 $800 forward 7 unknown #
coedge $-1 $663 $462 $467 $678 forward $655 $-1 #
coedge $-1 $462 $663 $657 $791 reversed $655 $-1 #
vertex $-1 $463 $801 #
straight-curve $-1 0 8.1757853251169603 132.74575029755547 -1 0 0 I I #
coedge $-1 $464 $658 $466 $677 reversed $296 $-1 #
vertex $-1 $669 $802 #
straight-curve $-1 0 -8.1757853251169603 132.74575029755547 1 0 0 I I #
edge $-1 $469 -132.74575029755547 $666 132.74575029755547 $466 $803 forward 7 unknown #
edge $-1 $470 -132.74575029755547 $665 132.74575029755547 $467 $804 forward 7 unknown #
point $-1 265.49150059511095 -8.1757853251169603 132.74575029755547 #
point $-1 265.49150059511095 8.1757853251169603 132.74575029755547 #
coedge $-1 $681 $681 $-1 $805 reversed $472 $-1 #
vertex $-1 $474 $806 #
ellipse-curve $-1 0 0 -0.5 0 0 -1 1 0 0 1 I I #
point $-1 1 0 -2.5424512466811113 #
coedge $-1 $685 $685 $-1 $807 reversed $477 $-1 #
vertex $-1 $479 $808 #
ellipse-curve $-1 0 0 -0.5 0 0 -1 1 0 0 1 I I #
point $-1 1 0 -2.5424512466811113 #
coedge $-1 $689 $689 $-1 $809 reversed $482 $-1 #
vertex $-1 $484 $810 #
ellipse-curve $-1 0 0 -0.5 0 0 -1 1 0 0 1 I I #
point $-1 1 0 -2.5424512466811113 #
plane-surface $-1 66.372875148777737 0 0 -1 0 0 0 0 1 forward_v I I I I #
coedge $-1 $492 $490 $494 $698 reversed $319 $-1 #
edge $-1 $505 -6.5730834078113567 $700 6.5730834078113567 $504 $811 forward 7 unknown #
vertex $-1 $698 $812 #
straight-curve $-1 -66.372875148777737 -31.594112455993709 0 0 0 -1 I I #
edge $-1 $696 -31.594112455993709 $700 31.594112455993709 $694 $813 forward 7 unknown #
straight-curve $-1 0 -31.594112455993709 -6.5730834078113567 -1 0 0 I I #
vertex $-1 $497 $814 #
straight-curve $-1 0 31.594112455993709 -6.5730834078113567 1 0 0 I I #
point $-1 66.372875148777737 31.594112455993709 -6.5730834078113567 #
point $-1 66.372875148777737 -31.594112455993709 -6.5730834078113567 #
straight-curve $-1 -66.372875148777737 0 6.5730834078113567 0 -1 0 I I #
point $-1 -66.372875148777737 31.594112455993709 6.5730834078113567 #
point $-1 -66.372875148777737 -31.594112455993709 6.5730834078113567 #
straight-curve $-1 66.372875148777737 -31.594112455993709 0 0 0 -1 I I #
straight-curve $-1 66.372875148777737 31.594112455993709 0 0 0 -1 I I #
plane-surface $-1 265.49150059511095 0 0 -1 0 0 0 0 1 forward_v I I I I #
coedge $-1 $519 $517 $521 $714 reversed $338 $-1 #
edge $-1 $532 -132.74575029755547 $716 132.74575029755547 $531 $815 forward 7 unknown #
vertex $-1 $714 $816 #
straight-curve $-1 -265.49150059511095 -3.8589903432417016 0 0 0 -1 I I #
edge $-1 $712 -3.8589903432417016 $716 3.8589903432417016 $710 $817 forward 7 unknown #
straight-curve $-1 0 -3.8589903432417016 -132.74575029755547 -1 0 0 I I #
vertex $-1 $524 $818 #
straight-curve $-1 0 3.8589903432417016 -132.74575029755547 1 0 0 I I #
point $-1 265.49150059511095 3.8589903432417016 -132.74575029755547 #
point $-1 265.49150059511095 -3.8589903432417016 -132.74575029755547 #
straight-curve $-1 -265.49150059511095 0 132.74575029755547 0 -1 0 I I #
point $-1 -265.49150059511095 3.8589903432417016 132.74575029755547 #
point $-1 -265.49150059511095 -3.8589903432417016 132.74575029755547 #
straight-curve $-1 265.49150059511095 -3.8589903432417016 0 0 0 -1 I I #
straight-curve $-1 265.49150059511095 3.8589903432417016 0 0 0 -1 I I #
edge $-1 $819 1 $819 0 $541 $-1 forward 7 unknown #
point $-1 0.5 0 -0.25 #
edge $-1 $820 1 $820 0 $545 $-1 forward 7 unknown #
point $-1 0.5 0 -0.25 #
plane-surface $-1 265.49150059511095 0 0 -1 0 0 0 0 1 forward_v I I I I #
coedge $-1 $554 $552 $556 $734 reversed $367 $-1 #
edge $-1 $567 -132.74575029755547 $736 132.74575029755547 $566 $821 forward 7 unknown #
vertex $-1 $734 $822 #
straight-curve $-1 -265.49150059511095 -3.8589903432417016 0 0 0 -1 I I #
edge $-1 $732 -3.8589903432417016 $736 3.8589903432417016 $730 $823 forward 7 unknown #
straight-curve $-1 0 -3.8589903432417016 -132.74575029755547 -1 0 0 I I #
vertex $-1 $559 $824 #
straight-curve $-1 0 3.8589903432417016 -132.74575029755547 1 0 0 I I #
point $-1 265.49150059511095 3.8589903432417016 -132.74575029755547 #
point $-1 265.49150059511095 -3.8589903432417016 -132.74575029755547 #
straight-curve $-1 -265.49150059511095 0 132.74575029755547 0 -1 0 I I #
point $-1 -265.49150059511095 3.8589903432417016 132.74575029755547 #
point $-1 -265.49150059511095 -3.8589903432417016 132.74575029755547 #
straight-curve $-1 265.49150059511095 -3.8589903432417016 0 0 0 -1 I I #
straight-curve $-1 265.49150059511095 3.8589903432417016 0 0 0 -1 I I #
edge $-1 $825 1 $825 0 $576 $-1 forward 7 unknown #
point $-1 0.5 0 -0.25 #
edge $-1 $826 1 $826 0 $580 $-1 forward 7 unknown #
point $-1 0.5 0 -0.25 #
plane-surface $-1 265.49150059511095 0 0 -1 0 0 0 0 1 forward_v I I I I #
coedge $-1 $589 $587 $591 $754 reversed $396 $-1 #
edge $-1 $602 -132.74575029755547 $756 132.74575029755547 $601 $827 forward 7 unknown #
vertex $-1 $754 $828 #
straight-curve $-1 -265.49150059511095 -3.8589903432417016 0 0 0 -1 I I #
edge $-1 $752 -3.8589903432417016 $756 3.8589903432417016 $750 $829 forward 7 unknown #
straight-curve $-1 0 -3.8589903432417016 -132.74575029755547 -1 0 0 I I #
vertex $-1 $594 $830 #
straight-curve $-1 0 3.8589903432417016 -132.74575029755547 1 0 0 I I #
point $-1 265.49150059511095 3.8589903432417016 -132.74575029755547 #
point $-1 265.49150059511095 -3.8589903432417016 -132.74575029755547 #
straight-curve $-1 -265.49150059511095 0 132.74575029755547 0 -1 0 I I #
point $-1 -265.49150059511095 3.8589903432417016 132.74575029755547 #
point $-1 -265.49150059511095 -3.8589903432417016 132.74575029755547 #
straight-curve $-1 265.49150059511095 -3.8589903432417016 0 0 0 -1 I I #
straight-curve $-1 265.49150059511095 3.8589903432417016 0 0 0 -1 I I #
edge $-1 $831 1 $831 0 $611 $-1 forward 7 unknown #
point $-1 0.5 0 -0.25 #
edge $-1 $832 1 $832 0 $615 $-1 forward 7 unknown #
point $-1 0.5 0 -0.25 #
plane-surface $-1 265.49150059511095 0 0 -1 0 0 0 0 1 forward_v I I I I #
coedge $-1 $624 $622 $626 $774 reversed $425 $-1 #
edge $-1 $637 -132.74575029755547 $776 132.74575029755547 $636 $833 forward 7 unknown #
vertex $-1 $774 $834 #
straight-curve $-1 -265.49150059511095 -3.8589903432417016 0 0 0 -1 I I #
edge $-1 $772 -3.8589903432417016 $776 3.8589903432417016 $770 $835 forward 7 unknown #
straight-curve $-1 0 -3.8589903432417016 -132.74575029755547 -1 0 0 I I #
vertex $-1 $629 $836 #
straight-curve $-1 0 3.8589903432417016 -132.74575029755547 1 0 0 I I #
point $-1 265.49150059511095 3.8589903432417016 -132.74575029755547 #
point $-1 265.49150059511095 -3.8589903432417016 -132.74575029755547 #
straight-curve $-1 -265.49150059511095 0 132.74575029755547 0 -1 0 I I #
point $-1 -265.49150059511095 3.8589903432417016 132.74575029755547 #
point $-1 -265.49150059511095 -3.8589903432417016 132.74575029755547 #
straight-curve $-1 265.49150059511095 -3.8589903432417016 0 0 0 -1 I I #
straight-curve $-1 265.49150059511095 3.8589903432417016 0 0 0 -1 I I #
edge $-1 $837 1 $837 0 $646 $-1 forward 7 unknown #
point $-1 0.5 0 -0.25 #
edge $-1 $838 1 $838 0 $650 $-1 forward 7 unknown #
point $-1 0.5 0 -0.25 #
plane-surface $-1 265.49150059511095 0 0 -1 0 0 0 0 1 forward_v I I I I #
coedge $-1 $659 $657 $661 $794 reversed $454 $-1 #
edge $-1 $672 -132.74575029755547 $796 132.74575029755547 $671 $839 forward 7 unknown #
vertex $-1 $794 $840 #
straight-curve $-1 -265.49150059511095 -8.1757853251169603 0 0 0 -1 I I #
edge $-1 $792 -8.1757853251169603 $796 8.1757853251169603 $790 $841 forward 7 unknown #
straight-curve $-1 0 -8.1757853251169603 -132.74575029755547 -1 0 0 I I #
vertex $-1 $664 $842 #
straight-curve $-1 0 8.1757853251169603 -132.74575029755547 1 0 0 I I #
point $-1 265.49150059511095 8.1757853251169603 -132.74575029755547 #
point $-1 265.49150059511095 -8.1757853251169603 -132.74575029755547 #
straight-curve $-1 -265.49150059511095 0 132.74575029755547 0 -1 0 I I #
point $-1 -265.49150059511095 8.1757853251169603 132.74575029755547 #
point $-1 -265.49150059511095 -8.1757853251169603 132.74575029755547 #
straight-curve $-1 265.49150059511095 -8.1757853251169603 0 0 0 -1 I I #
straight-curve $-1 265.49150059511095 8.1757853251169603 0 0 0 -1 I I #
edge $-1 $843 1 $843 0 $681 $-1 forward 7 unknown #
point $-1 1 0 -0.5 #
edge $-1 $844 1 $844 0 $685 $-1 forward 7 unknown #
point $-1 1 0 -0.5 #
edge $-1 $845 1 $845 0 $689 $-1 forward 7 unknown #
point $-1 1 0 -0.5 #
straight-curve $-1 -66.372875148777737 31.594112455993709 0 0 0 -1 I I #
point $-1 -66.372875148777737 -31.594112455993709 -6.5730834078113567 #
straight-curve $-1 -66.372875148777737 0 -6.5730834078113567 0 1 0 I I #
point $-1 -66.372875148777737 31.594112455993709 -6.5730834078113567 #
straight-curve $-1 -265.49150059511095 3.8589903432417016 0 0 0 -1 I I #
point $-1 -265.49150059511095 -3.8589903432417016 -132.74575029755547 #
straight-curve $-1 -265.49150059511095 0 -132.74575029755547 0 1 0 I I #
point $-1 -265.49150059511095 3.8589903432417016 -132.74575029755547 #
vertex $-1 $725 $846 #
vertex $-1 $727 $847 #
straight-curve $-1 -265.49150059511095 3.8589903432417016 0 0 0 -1 I I #
point $-1 -265.49150059511095 -3.8589903432417016 -132.74575029755547 #
straight-curve $-1 -265.49150059511095 0 -132.74575029755547 0 1 0 I I #
point $-1 -265.49150059511095 3.8589903432417016 -132.74575029755547 #
vertex $-1 $745 $848 #
vertex $-1 $747 $849 #
straight-curve $-1 -265.49150059511095 3.8589903432417016 0 0 0 -1 I I #
point $-1 -265.49150059511095 -3.8589903432417016 -132.74575029755547 #
straight-curve $-1 -265.49150059511095 0 -132.74575029755547 0 1 0 I I #
point $-1 -265.49150059511095 3.8589903432417016 -132.74575029755547 #
vertex $-1 $765 $850 #
vertex $-1 $767 $851 #
straight-curve $-1 -265.49150059511095 3.8589903432417016 0 0 0 -1 I I #
point $-1 -265.49150059511095 -3.8589903432417016 -132.74575029755547 #
straight-curve $-1 -265.49150059511095 0 -132.74575029755547 0 1 0 I I #
point $-1 -265.49150059511095 3.8589903432417016 -132.74575029755547 #
vertex $-1 $785 $852 #
vertex $-1 $787 $853 #
straight-curve $-1 -265.49150059511095 8.1757853251169603 0 0 0 -1 I I #
point $-1 -265.49150059511095 -8.1757853251169603 -132.74575029755547 #
straight-curve $-1 -265.49150059511095 0 -132.74575029755547 0 1 0 I I #
point $-1 -265.49150059511095 8.1757853251169603 -132.74575029755547 #
vertex $-1 $805 $854 #
vertex $-1 $807 $855 #
vertex $-1 $809 $856 #
point $-1 0 0 0.25 #
point $-1 0 0 0.25 #
point $-1 0 0 0.25 #
point $-1 0 0 0.25 #
point $-1 0 0 0.25 #
point $-1 0 0 0.25 #
point $-1 0 0 0.25 #
point $-1 0 0 0.25 #
point $-1 0 0 0.5 #
point $-1 0 0 0.5 #
point $-1 0 0 0.5 #
End-of-ACIS-data 