500 0 7 0           
7 Unknown 11 ACIS 5.0 NT 24 Thu Mar 25 16:23:59 1999 
-1 9.9999999999999995e-007 1e-010 
body $-1 $7 $-1 $8 #
body $-1 $9 $-1 $10 #
body $-1 $11 $-1 $12 #
body $-1 $13 $-1 $14 #
body $-1 $15 $-1 $16 #
body $-1 $17 $-1 $18 #
body $-1 $19 $-1 $20 #
lump $-1 $-1 $21 $0 #
transform $-1 1 0 0 0 1 0 0 0 1 65.513473921933652 39.115744615274814 15.818317829601277 1 rotate no_reflect no_shear #
lump $-1 $-1 $22 $1 #
transform $-1 1 0 0 0 1 0 0 0 1 65.513473921933652 39.115744615274814 15.818317829601277 1 rotate no_reflect no_shear #
lump $-1 $-1 $23 $2 #
transform $-1 1 0 0 0 1 0 0 0 1 65.513473921933652 39.115744615274814 15.818317829601277 1 rotate no_reflect no_shear #
lump $-1 $-1 $24 $3 #
transform $-1 1 0 0 0 1 0 0 0 1 65.513473921933652 39.115744615274814 15.818317829601277 1 rotate no_reflect no_shear #
lump $-1 $-1 $25 $4 #
transform $-1 1 0 0 0 1 0 0 0 1 65.513473921933652 39.115744615274814 15.818317829601277 1 rotate no_reflect no_shear #
lump $-1 $-1 $26 $5 #
transform $-1 1 0 0 0 1 0 0 0 1 65.513473921933652 39.115744615274814 15.818317829601277 1 rotate no_reflect no_shear #
lump $-1 $-1 $27 $6 #
transform $-1 1 0 0 0 1 0 0 0 1 65.513473921933652 39.115744615274814 15.818317829601277 1 rotate no_reflect no_shear #
shell $-1 $-1 $-1 $28 $-1 $7 #
shell $-1 $-1 $-1 $29 $-1 $9 #
shell $-1 $-1 $-1 $30 $-1 $11 #
shell $-1 $-1 $-1 $31 $-1 $13 #
shell $-1 $-1 $-1 $32 $-1 $15 #
shell $-1 $-1 $-1 $33 $-1 $17 #
shell $-1 $-1 $-1 $34 $-1 $19 #
face $-1 $35 $36 $21 $-1 $37 reversed single #
face $-1 $38 $39 $22 $-1 $40 forward single #
face $-1 $41 $42 $23 $-1 $43 reversed single #
face $-1 $44 $45 $24 $-1 $46 forward single #
face $-1 $47 $48 $25 $-1 $49 reversed single #
face $-1 $50 $51 $26 $-1 $52 forward single #
face $-1 $53 $54 $27 $-1 $55 forward single #
face $-1 $56 $57 $21 $-1 $58 forward single #
loop $-1 $-1 $59 $28 #
plane-surface $-1 -65.513473921933652 0 0 1 0 0 0 0 -1 forward_v I I I I #
face $-1 $60 $61 $22 $-1 $62 reversed single #
loop $-1 $-1 $63 $29 #
plane-surface $-1 -65.513473921933652 0 0 1 0 0 0 0 -1 forward_v I I I I #
face $-1 $64 $65 $23 $-1 $66 reversed single #
loop $-1 $-1 $67 $30 #
plane-surface $-1 -25.088251144927671 -140.9428090584548 90.716857700182601 -1 0 0 0 -0.77714596973225614 0.62932038083071107 forward_v I I I I #
face $-1 $68 $69 $24 $-1 $70 forward single #
loop $-1 $71 $72 $31 #
cone-surface $-1 -39.014728585598448 -35.031676579554201 11.209945576306671 0 0.77714596973225614 -0.62932038083071107 2 0 0 1 I I 0 1 2 forward I I I I #
face $-1 $73 $74 $25 $-1 $75 reversed single #
loop $-1 $-1 $76 $32 #
plane-surface $-1 33.03641435933978 66.035103979842546 152.65322133146563 1 0 0 0 -0.6560590369687036 -0.75470957328743171 forward_v I I I I #
face $-1 $77 $78 $26 $-1 $79 forward single #
loop $-1 $80 $81 $33 #
cone-surface $-1 40.905987422773393 29.48696364919401 6.9043598263388528 0 -0.6560590369687036 -0.75470957328743171 2 0 0 1 I I 0 1 2 forward I I I I #
face $-1 $82 $83 $27 $-1 $84 forward single #
loop $-1 $85 $86 $34 #
cone-surface $-1 52.710347017923809 29.48696364919401 6.9043598263388528 0 -0.6560590369687036 -0.75470957328743171 2 0 0 1 I I 0 1 2 forward I I I I #
face $-1 $87 $88 $21 $-1 $89 reversed single #
loop $-1 $-1 $90 $35 #
plane-surface $-1 0 0 15.818317829601277 0 0 1 1 0 0 forward_v I I I I #
coedge $-1 $91 $92 $93 $94 reversed $36 $-1 #
face $-1 $95 $96 $22 $-1 $97 reversed single #
loop $-1 $-1 $98 $38 #
plane-surface $-1 0 0 -15.818317829601277 0 0 1 1 0 0 forward_v I I I I #
coedge $-1 $99 $100 $101 $102 forward $39 $-1 #
face $-1 $103 $104 $23 $-1 $105 reversed single #
loop $-1 $-1 $106 $41 #
plane-surface $-1 -39.014728585598448 -39.115744615274792 8.2589289839943092 0 -0.77714596973225614 0.62932038083071107 1 0 0 forward_v I I I I #
coedge $-1 $107 $108 $109 $110 reversed $42 $-1 #
face $-1 $-1 $111 $24 $-1 $112 forward single #
loop $-1 $113 $114 $44 #
cone-surface $-1 -39.014728585598448 -33.231198685750847 9.7519473649848365 0 0.77714596973225614 -0.62932038083071107 1 0 0 1 I I -0.70710678118654746 0.70710678118654746 1 forward I I I I #
loop $-1 $-1 $115 $31 #
coedge $-1 $72 $72 $116 $117 reversed $45 $-1 #
face $-1 $118 $119 $25 $-1 $120 reversed single #
loop $-1 $-1 $121 $47 #
plane-surface $-1 46.808167220348608 -19.926309239553589 53.765929435065971 0 0.6560590369687036 0.75470957328743171 1 0 0 forward_v I I I I #
coedge $-1 $122 $123 $124 $125 reversed $48 $-1 #
face $-1 $-1 $126 $26 $-1 $127 forward single #
loop $-1 $128 $129 $50 #
cone-surface $-1 40.905987422773393 26.896284279356841 3.9241241896675874 0 -0.6560590369687036 -0.75470957328743171 1 0 0 1 I I -0.70710678118654746 0.70710678118654746 1 forward I I I I #
loop $-1 $-1 $130 $33 #
coedge $-1 $81 $81 $131 $132 reversed $51 $-1 #
face $-1 $-1 $133 $27 $-1 $134 forward single #
loop $-1 $135 $136 $53 #
cone-surface $-1 52.710347017923809 26.896284279356841 3.9241241896675874 0 -0.6560590369687036 -0.75470957328743171 1 0 0 1 I I -0.70710678118654746 0.70710678118654746 1 forward I I I I #
loop $-1 $-1 $137 $34 #
coedge $-1 $86 $86 $138 $139 reversed $54 $-1 #
face $-1 $140 $141 $21 $-1 $142 reversed single #
loop $-1 $-1 $143 $56 #
plane-surface $-1 0 0 -15.818317829601277 0 0 1 1 0 0 forward_v I I I I #
coedge $-1 $144 $145 $146 $147 forward $57 $-1 #
coedge $-1 $148 $59 $149 $150 reversed $36 $-1 #
coedge $-1 $59 $148 $151 $152 forward $36 $-1 #
coedge $-1 $153 $154 $59 $94 forward $88 $-1 #
edge $-1 $155 -39.115744615274814 $156 39.115744615274814 $59 $157 forward 7 unknown #
face $-1 $158 $159 $22 $-1 $160 reversed single #
loop $-1 $-1 $161 $60 #
plane-surface $-1 -71.799607869765865 -11.549766007458224 0 0 1 0 0 0 1 forward_v I I I I #
coedge $-1 $162 $163 $100 $164 forward $61 $-1 #
coedge $-1 $165 $63 $166 $167 reversed $39 $-1 #
coedge $-1 $63 $165 $98 $164 reversed $39 $-1 #
coedge $-1 $168 $169 $63 $102 reversed $170 $-1 #
edge $-1 $171 -15.818317829601277 $172 15.818317829601277 $101 $173 forward 7 unknown #
face $-1 $174 $175 $23 $-1 $176 forward single #
loop $-1 $-1 $177 $64 #
plane-surface $-1 -52.941206026269228 -140.9428090584548 90.716857700182601 1 0 0 0 0.77714596973225614 -0.62932038083071107 forward_v I I I I #
coedge $-1 $178 $179 $180 $181 reversed $65 $-1 #
coedge $-1 $108 $67 $182 $183 reversed $42 $-1 #
coedge $-1 $67 $107 $178 $184 reversed $42 $-1 #
coedge $-1 $180 $185 $67 $110 forward $175 $-1 #
edge $-1 $186 31.355659913952586 $187 37.477132137251651 $109 $188 forward 7 unknown #
loop $-1 $-1 $116 $68 #
plane-surface $-1 -39.014728585598448 -39.115744615274792 8.2589289839943092 0 -0.77714596973225614 0.62932038083071107 1 0 0 forward_v I I I I #
loop $-1 $-1 $189 $44 #
coedge $-1 $114 $114 $115 $190 reversed $69 $-1 #
coedge $-1 $115 $115 $114 $190 forward $71 $-1 #
coedge $-1 $116 $116 $72 $117 forward $111 $-1 #
edge $-1 $191 1.7406082628076339e-015 $191 6.2831853071796022 $116 $192 forward 7 unknown #
face $-1 $193 $194 $25 $-1 $195 reversed single #
loop $-1 $-1 $196 $73 #
plane-surface $-1 60.579920081357436 66.035103979842546 152.65322133146563 -1 0 0 0 0.6560590369687036 0.75470957328743171 forward_v I I I I #
coedge $-1 $197 $198 $199 $200 reversed $74 $-1 #
coedge $-1 $123 $76 $201 $202 reversed $48 $-1 #
coedge $-1 $76 $122 $197 $203 reversed $48 $-1 #
coedge $-1 $199 $204 $76 $125 forward $205 $-1 #
edge $-1 $206 -6.0981926253535406 $207 9.2901286410711563 $124 $208 forward 7 unknown #
loop $-1 $-1 $131 $77 #
plane-surface $-1 46.808167220348608 -19.926309239553589 53.765929435065971 0 0.6560590369687036 0.75470957328743171 1 0 0 forward_v I I I I #
loop $-1 $-1 $209 $50 #
coedge $-1 $129 $129 $130 $210 reversed $78 $-1 #
coedge $-1 $130 $130 $129 $210 forward $80 $-1 #
coedge $-1 $131 $131 $81 $132 forward $126 $-1 #
edge $-1 $211 -2.3222036888429843e-016 $211 6.2831853071796004 $131 $212 forward 7 unknown #
loop $-1 $-1 $138 $82 #
plane-surface $-1 46.808167220348608 -19.926309239553589 53.765929435065971 0 0.6560590369687036 0.75470957328743171 1 0 0 forward_v I I I I #
loop $-1 $-1 $213 $53 #
coedge $-1 $136 $136 $137 $214 reversed $83 $-1 #
coedge $-1 $137 $137 $136 $214 forward $85 $-1 #
coedge $-1 $138 $138 $86 $139 forward $133 $-1 #
edge $-1 $215 -2.3222036888429843e-016 $215 6.2831853071796004 $138 $216 forward 7 unknown #
face $-1 $217 $218 $21 $-1 $219 reversed single #
loop $-1 $-1 $149 $87 #
plane-surface $-1 0 -39.115744615274814 0 0 1 0 0 0 1 forward_v I I I I #
coedge $-1 $154 $153 $220 $221 forward $88 $-1 #
coedge $-1 $222 $90 $223 $224 forward $57 $-1 #
coedge $-1 $90 $222 $225 $226 forward $57 $-1 #
coedge $-1 $227 $228 $90 $147 reversed $229 $-1 #
edge $-1 $230 -39.115744615274814 $231 39.115744615274814 $146 $232 forward 7 unknown #
coedge $-1 $92 $91 $222 $233 reversed $36 $-1 #
coedge $-1 $234 $225 $91 $150 forward $141 $-1 #
edge $-1 $235 -15.818317829601277 $155 15.818317829601277 $91 $236 forward 7 unknown #
coedge $-1 $223 $237 $92 $152 reversed $218 $-1 #
edge $-1 $238 -15.818317829601277 $156 15.818317829601277 $151 $239 forward 7 unknown #
coedge $-1 $143 $93 $237 $240 forward $88 $-1 #
coedge $-1 $93 $143 $234 $241 forward $88 $-1 #
vertex $-1 $94 $242 #
vertex $-1 $240 $243 #
straight-curve $-1 -65.513473921933652 0 -15.818317829601277 0 1 0 I I #
face $-1 $244 $170 $22 $-1 $245 reversed single #
loop $-1 $-1 $246 $95 #
plane-surface $-1 -78.085741817598077 -9.514437481765242 0 1 0 0 0 0 -1 forward_v I I I I #
coedge $-1 $247 $248 $249 $250 forward $96 $-1 #
coedge $-1 $251 $98 $247 $252 forward $61 $-1 #
coedge $-1 $98 $251 $168 $253 forward $61 $-1 #
edge $-1 $171 7.4791089560722597 $254 11.549766007458224 $98 $255 forward 7 unknown #
coedge $-1 $100 $99 $256 $257 forward $39 $-1 #
coedge $-1 $258 $259 $99 $167 forward $260 $-1 #
edge $-1 $261 -11.549766007458224 $172 -7.4791089560722597 $166 $262 forward 7 unknown #
coedge $-1 $263 $101 $163 $253 reversed $170 $-1 #
coedge $-1 $101 $263 $258 $264 reversed $170 $-1 #
loop $-1 $-1 $101 $158 #
vertex $-1 $164 $265 #
vertex $-1 $264 $266 #
straight-curve $-1 -65.513473921933652 -7.4791089560722597 0 0 0 1 I I #
face $-1 $-1 $267 $23 $-1 $268 reversed single #
loop $-1 $-1 $109 $103 #
plane-surface $-1 0 0 15.818317829601277 0 0 1 1 0 0 forward_v I I I I #
coedge $-1 $269 $270 $271 $272 reversed $104 $-1 #
coedge $-1 $273 $106 $108 $184 forward $65 $-1 #
coedge $-1 $106 $273 $269 $274 forward $65 $-1 #
coedge $-1 $271 $109 $106 $181 forward $175 $-1 #
edge $-1 $187 5.5808868521284474 $275 33.433841733470004 $180 $276 forward 7 unknown #
coedge $-1 $277 $278 $107 $183 forward $267 $-1 #
edge $-1 $279 -37.09949986609702 $186 -29.540111020490023 $182 $280 forward 7 unknown #
edge $-1 $187 -9.7271158058136002 $279 3.4122099130144743e-014 $108 $281 forward 7 unknown #
coedge $-1 $109 $271 $277 $282 forward $175 $-1 #
vertex $-1 $110 $283 #
vertex $-1 $110 $284 #
straight-curve $-1 -25.088251144927671 -70.471404529227399 15.818317829601277 0 1 0 I I #
coedge $-1 $189 $189 $-1 $285 reversed $113 $-1 #
edge $-1 $286 0 $286 6.2831853071796004 $114 $287 forward 7 unknown #
vertex $-1 $117 $288 #
ellipse-curve $-1 -39.014728585598448 -36.055008503625281 12.038623406797781 0 -0.77714596973225614 0.62932038083071107 2 0 0 1 I I #
face $-1 $-1 $205 $25 $-1 $289 forward single #
loop $-1 $-1 $290 $118 #
plane-surface $-1 0 39.115744615274814 0 0 -1 0 0 0 -1 forward_v I I I I #
coedge $-1 $291 $292 $293 $294 reversed $119 $-1 #
coedge $-1 $295 $121 $123 $203 forward $74 $-1 #
coedge $-1 $121 $295 $291 $296 forward $74 $-1 #
coedge $-1 $293 $124 $121 $200 forward $205 $-1 #
edge $-1 $207 9.6323307491654759 $297 37.175836471183132 $199 $298 forward 7 unknown #
coedge $-1 $299 $300 $122 $202 forward $194 $-1 #
edge $-1 $301 -73.885156715888741 $206 -60.508292836131538 $201 $302 forward 7 unknown #
edge $-1 $207 57.841763419341376 $301 78.231489230549627 $123 $303 forward 7 unknown #
coedge $-1 $124 $293 $299 $304 forward $205 $-1 #
loop $-1 $-1 $293 $193 #
vertex $-1 $202 $305 #
vertex $-1 $125 $306 #
straight-curve $-1 33.03641435933978 33.017551989921273 15.818317829601284 0 -1 0 I I #
coedge $-1 $209 $209 $-1 $307 reversed $128 $-1 #
edge $-1 $308 0 $308 6.2831853071796004 $129 $309 forward 7 unknown #
vertex $-1 $132 $310 #
ellipse-curve $-1 40.905987422773393 31.421583982062465 9.1298858897226776 0 0.6560590369687036 0.75470957328743171 2 0 0 1 I I #
coedge $-1 $213 $213 $-1 $311 reversed $135 $-1 #
edge $-1 $312 0 $312 6.2831853071796004 $136 $313 forward 7 unknown #
vertex $-1 $139 $314 #
ellipse-curve $-1 52.710347017923809 31.421583982062465 9.1298858897226776 0 0.6560590369687036 0.75470957328743171 2 0 0 1 I I #
face $-1 $-1 $229 $21 $-1 $315 reversed single #
loop $-1 $-1 $316 $140 #
plane-surface $-1 0 39.115744615274814 0 0 -1 0 0 0 -1 forward_v I I I I #
coedge $-1 $228 $227 $143 $221 reversed $229 $-1 #
edge $-1 $317 -39.115744615274814 $318 39.115744615274814 $220 $319 forward 7 unknown #
coedge $-1 $145 $144 $148 $233 forward $57 $-1 #
coedge $-1 $316 $151 $144 $224 reversed $218 $-1 #
edge $-1 $231 -65.513473921933652 $238 65.513473921933652 $223 $320 forward 7 unknown #
coedge $-1 $149 $321 $145 $226 reversed $141 $-1 #
edge $-1 $235 -65.513473921933652 $230 65.513473921933652 $225 $322 forward 7 unknown #
coedge $-1 $220 $146 $321 $323 forward $229 $-1 #
coedge $-1 $146 $220 $316 $324 reversed $229 $-1 #
loop $-1 $-1 $227 $217 #
vertex $-1 $147 $325 #
vertex $-1 $147 $326 #
straight-curve $-1 65.513473921933652 0 15.818317829601277 0 1 0 I I #
edge $-1 $238 -39.115744615274814 $235 39.115744615274814 $148 $327 forward 7 unknown #
coedge $-1 $321 $149 $154 $241 reversed $141 $-1 #
vertex $-1 $233 $328 #
straight-curve $-1 -65.513473921933652 -39.115744615274814 0 0 0 -1 I I #
coedge $-1 $151 $316 $153 $240 reversed $218 $-1 #
vertex $-1 $224 $329 #
straight-curve $-1 -65.513473921933652 39.115744615274814 0 0 0 -1 I I #
edge $-1 $156 -65.513473921933652 $317 65.513473921933652 $237 $330 forward 7 unknown #
edge $-1 $318 -65.513473921933652 $155 65.513473921933652 $234 $331 forward 7 unknown #
point $-1 -65.513473921933652 -39.115744615274814 -15.818317829601277 #
point $-1 -65.513473921933652 39.115744615274814 -15.818317829601277 #
face $-1 $-1 $260 $22 $-1 $332 forward single #
plane-surface $-1 -71.799607869765865 -7.4791089560722597 0 0 -1 0 0 0 -1 forward_v I I I I #
coedge $-1 $333 $334 $263 $335 forward $159 $-1 #
coedge $-1 $256 $161 $162 $252 reversed $96 $-1 #
coedge $-1 $161 $256 $259 $336 reversed $96 $-1 #
coedge $-1 $334 $333 $161 $250 reversed $159 $-1 #
edge $-1 $337 -15.818317829601277 $338 15.818317829601277 $249 $339 forward 7 unknown #
coedge $-1 $163 $162 $333 $340 forward $61 $-1 #
edge $-1 $254 -6.2861339478322122 $338 6.2861339478322122 $247 $341 forward 7 unknown #
edge $-1 $342 -6.2861339478322122 $171 6.2861339478322122 $168 $343 forward 7 unknown #
vertex $-1 $252 $344 #
straight-curve $-1 -65.513473921933652 0 -15.818317829601277 0 -1 0 I I #
coedge $-1 $248 $247 $165 $257 reversed $96 $-1 #
edge $-1 $261 -15.818317829601277 $254 15.818317829601277 $256 $345 forward 7 unknown #
coedge $-1 $346 $166 $169 $264 forward $260 $-1 #
coedge $-1 $166 $346 $248 $336 forward $260 $-1 #
loop $-1 $-1 $166 $244 #
vertex $-1 $167 $347 #
straight-curve $-1 -65.513473921933652 0 15.818317829601277 0 1 0 I I #
coedge $-1 $169 $168 $246 $335 reversed $170 $-1 #
edge $-1 $172 -6.2861339478322122 $348 6.2861339478322122 $169 $349 forward 7 unknown #
point $-1 -65.513473921933652 -7.4791089560722597 -15.818317829601277 #
point $-1 -65.513473921933652 -7.4791089560722597 15.818317829601277 #
loop $-1 $-1 $182 $174 #
plane-surface $-1 0 -39.115744615274814 0 0 1 0 0 0 1 forward_v I I I I #
coedge $-1 $270 $177 $179 $274 reversed $104 $-1 #
coedge $-1 $177 $269 $350 $351 reversed $104 $-1 #
coedge $-1 $185 $180 $177 $272 forward $175 $-1 #
edge $-1 $275 -37.477132137251651 $352 -31.355659913952586 $271 $353 forward 7 unknown #
coedge $-1 $179 $178 $278 $354 reversed $65 $-1 #
edge $-1 $355 -3.4122099130144743e-014 $275 9.7271158058136002 $269 $356 forward 7 unknown #
vertex $-1 $181 $357 #
straight-curve $-1 -19.507364292799224 -32.994272391975748 15.818317829601277 -1 0 0 I I #
coedge $-1 $350 $182 $185 $282 reversed $267 $-1 #
coedge $-1 $182 $350 $273 $354 forward $267 $-1 #
vertex $-1 $183 $358 #
straight-curve $-1 -25.088251144927671 -39.115744615274814 45.3584288500913 0 0 1 I I #
straight-curve $-1 -25.088251144927671 -39.115744615274792 8.2589289839943092 0 -0.62932038083071107 -0.77714596973225614 I I #
edge $-1 $352 -52.941206026269228 $186 -25.088251144927671 $277 $359 forward 7 unknown #
point $-1 -25.088251144927671 -39.115744615274814 15.818317829601277 #
point $-1 -25.088251144927671 -32.994272391975748 15.818317829601277 #
edge $-1 $360 1 $360 0 $189 $-1 forward 7 unknown #
vertex $-1 $190 $361 #
ellipse-curve $-1 -39.014728585598448 -34.0083446554831 10.381267745815547 0 -0.77714596973225614 0.62932038083071107 2 0 0 1 I I #
point $-1 -37.014728585598448 -36.055008503625295 12.038623406797797 #
plane-surface $-1 0 0 15.818317829601277 0 0 1 1 0 0 forward_v I I I I #
coedge $-1 $300 $299 $292 $362 forward $194 $-1 #
coedge $-1 $292 $196 $198 $296 reversed $119 $-1 #
coedge $-1 $196 $291 $290 $362 reversed $119 $-1 #
coedge $-1 $204 $199 $196 $294 forward $205 $-1 #
edge $-1 $297 -9.2901286410711563 $363 6.0981926253535406 $293 $364 forward 7 unknown #
coedge $-1 $198 $197 $300 $365 reversed $74 $-1 #
edge $-1 $366 -78.231489230549627 $297 -57.841763419341376 $291 $367 forward 7 unknown #
vertex $-1 $200 $368 #
straight-curve $-1 23.404083610174304 23.72742334885012 15.818317829601281 1 0 0 I I #
coedge $-1 $290 $201 $204 $304 reversed $194 $-1 #
coedge $-1 $201 $290 $295 $365 forward $194 $-1 #
vertex $-1 $202 $369 #
straight-curve $-1 33.03641435933978 39.115744615274814 76.326610665732815 0 0 1 I I #
straight-curve $-1 33.03641435933978 -19.926309239553589 53.765929435065971 0 0.75470957328743171 -0.6560590369687036 I I #
edge $-1 $363 -60.579920081357436 $206 -33.03641435933978 $299 $370 forward 7 unknown #
point $-1 33.03641435933978 39.115744615274814 15.818317829601277 #
point $-1 33.03641435933978 23.727423348850117 15.818317829601277 #
edge $-1 $371 1 $371 0 $209 $-1 forward 7 unknown #
vertex $-1 $210 $372 #
ellipse-curve $-1 40.905987422773393 27.552343316325544 4.6788337629550192 0 0.6560590369687036 0.75470957328743171 2 0 0 1 I I #
point $-1 42.905987422773393 31.421583982062472 9.1298858897226864 #
edge $-1 $373 1 $373 0 $213 $-1 forward 7 unknown #
vertex $-1 $214 $374 #
ellipse-curve $-1 52.710347017923809 27.552343316325544 4.6788337629550192 0 0.6560590369687036 0.75470957328743171 2 0 0 1 I I #
point $-1 54.710347017923809 31.421583982062472 9.1298858897226864 #
plane-surface $-1 65.513473921933652 0 0 -1 0 0 0 0 1 forward_v I I I I #
coedge $-1 $237 $223 $228 $324 forward $218 $-1 #
vertex $-1 $221 $375 #
vertex $-1 $323 $376 #
straight-curve $-1 65.513473921933652 0 -15.818317829601277 0 -1 0 I I #
straight-curve $-1 0 39.115744615274814 15.818317829601277 -1 0 0 I I #
coedge $-1 $225 $234 $227 $323 reversed $141 $-1 #
straight-curve $-1 0 -39.115744615274814 15.818317829601277 1 0 0 I I #
edge $-1 $230 -15.818317829601277 $318 15.818317829601277 $227 $377 forward 7 unknown #
edge $-1 $231 -15.818317829601277 $317 15.818317829601277 $228 $378 forward 7 unknown #
point $-1 65.513473921933652 -39.115744615274814 15.818317829601277 #
point $-1 65.513473921933652 39.115744615274814 15.818317829601277 #
straight-curve $-1 -65.513473921933652 0 15.818317829601277 0 -1 0 I I #
point $-1 -65.513473921933652 -39.115744615274814 15.818317829601277 #
point $-1 -65.513473921933652 39.115744615274814 15.818317829601277 #
straight-curve $-1 0 39.115744615274814 -15.818317829601277 1 0 0 I I #
straight-curve $-1 0 -39.115744615274814 -15.818317829601277 -1 0 0 I I #
plane-surface $-1 0 0 15.818317829601277 0 0 1 1 0 0 forward_v I I I I #
coedge $-1 $249 $246 $251 $340 reversed $159 $-1 #
coedge $-1 $246 $249 $346 $379 reversed $159 $-1 #
edge $-1 $348 -15.818317829601277 $342 15.818317829601277 $263 $380 forward 7 unknown #
edge $-1 $337 -6.2861339478322122 $261 6.2861339478322122 $248 $381 forward 7 unknown #
vertex $-1 $379 $382 #
vertex $-1 $340 $383 #
straight-curve $-1 -78.085741817598077 -11.549766007458224 0 0 0 -1 I I #
edge $-1 $338 -2.0353285256929823 $342 2.0353285256929823 $333 $384 forward 7 unknown #
straight-curve $-1 -71.799607869765865 -11.549766007458224 -15.818317829601277 -1 0 0 I I #
vertex $-1 $253 $385 #
straight-curve $-1 -71.799607869765865 -7.4791089560722597 -15.818317829601277 1 0 0 I I #
point $-1 -65.513473921933652 -11.549766007458224 -15.818317829601277 #
straight-curve $-1 -65.513473921933652 -11.549766007458224 0 0 0 -1 I I #
coedge $-1 $259 $258 $334 $379 forward $260 $-1 #
point $-1 -65.513473921933652 -11.549766007458224 15.818317829601277 #
vertex $-1 $264 $386 #
straight-curve $-1 -71.799607869765865 -7.4791089560722597 15.818317829601277 -1 0 0 I I #
coedge $-1 $278 $277 $270 $351 forward $267 $-1 #
edge $-1 $352 29.540111020490023 $355 37.09949986609702 $350 $387 forward 7 unknown #
vertex $-1 $282 $388 #
straight-curve $-1 -52.941206026269228 -70.471404529227399 15.818317829601277 0 -1 0 I I #
edge $-1 $355 -33.433841733470004 $279 -5.5808868521284474 $278 $389 forward 7 unknown #
vertex $-1 $354 $390 #
straight-curve $-1 -52.941206026269228 -39.115744615274792 8.2589289839943092 0 0.62932038083071107 0.77714596973225614 I I #
point $-1 -52.941206026269228 -32.994272391975748 15.818317829601277 #
point $-1 -25.088251144927671 -39.115744615274814 8.2589289839942825 #
straight-curve $-1 0 -39.115744615274814 15.818317829601277 1 0 0 I I #
vertex $-1 $285 $391 #
point $-1 -37.014728585598448 -34.0083446554831 10.381267745815547 #
edge $-1 $363 60.508292836131538 $366 73.885156715888741 $290 $392 forward 7 unknown #
vertex $-1 $304 $393 #
straight-curve $-1 60.579920081357436 33.017551989921273 15.818317829601284 0 1 0 I I #
edge $-1 $366 -37.175836471183132 $301 -9.6323307491654759 $300 $394 forward 7 unknown #
vertex $-1 $365 $395 #
straight-curve $-1 60.579920081357436 -19.926309239553589 53.765929435065971 0 -0.75470957328743171 0.6560590369687036 I I #
point $-1 60.579920081357436 23.727423348850117 15.818317829601277 #
point $-1 33.03641435933978 39.115744615274821 2.4414539498440817 #
straight-curve $-1 0 39.115744615274814 15.818317829601277 -1 0 0 I I #
vertex $-1 $307 $396 #
point $-1 42.905987422773393 27.552343316325544 4.6788337629550192 #
vertex $-1 $311 $397 #
point $-1 54.710347017923809 27.552343316325544 4.6788337629550192 #
point $-1 65.513473921933652 39.115744615274814 -15.818317829601277 #
point $-1 65.513473921933652 -39.115744615274814 -15.818317829601277 #
straight-curve $-1 65.513473921933652 -39.115744615274814 0 0 0 -1 I I #
straight-curve $-1 65.513473921933652 39.115744615274814 0 0 0 -1 I I #
edge $-1 $348 -2.0353285256929823 $337 2.0353285256929823 $334 $398 forward 7 unknown #
straight-curve $-1 -78.085741817598077 -7.4791089560722597 0 0 0 -1 I I #
straight-curve $-1 -71.799607869765865 -11.549766007458224 15.818317829601277 1 0 0 I I #
point $-1 -78.085741817598077 -11.549766007458224 15.818317829601277 #
point $-1 -78.085741817598077 -11.549766007458224 -15.818317829601277 #
straight-curve $-1 -78.085741817598077 -9.514437481765242 -15.818317829601277 0 1 0 I I #
point $-1 -78.085741817598077 -7.4791089560722597 -15.818317829601277 #
point $-1 -78.085741817598077 -7.4791089560722597 15.818317829601277 #
straight-curve $-1 -52.941206026269228 -39.115744615274814 45.3584288500913 0 0 -1 I I #
point $-1 -52.941206026269228 -39.115744615274814 15.818317829601277 #
straight-curve $-1 -19.507364292799224 -39.115744615274814 8.2589289839942879 1 0 0 I I #
point $-1 -52.941206026269228 -39.115744615274814 8.2589289839942825 #
point $-1 -39.014728585598448 -32.454052716018595 9.1226269841541257 #
straight-curve $-1 60.579920081357436 39.115744615274814 76.326610665732815 0 0 -1 I I #
point $-1 60.579920081357436 39.115744615274814 15.818317829601277 #
straight-curve $-1 23.404083610174304 39.115744615274814 2.4414539498440888 -1 0 0 I I #
point $-1 60.579920081357436 39.115744615274821 2.4414539498440817 #
point $-1 40.905987422773393 26.240225242388139 3.1694146163801555 #
point $-1 52.710347017923809 26.240225242388139 3.1694146163801555 #
straight-curve $-1 -78.085741817598077 -9.514437481765242 15.818317829601277 0 -1 0 I I #
End-of-ACIS-data 