500 0 8 0           
7 Unknown 11 ACIS 5.0 NT 24 Thu Mar 25 16:49:10 1999 
-1 9.9999999999999995e-007 1e-010 
body $-1 $8 $-1 $9 #
body $-1 $10 $-1 $11 #
body $-1 $12 $-1 $13 #
body $-1 $14 $-1 $15 #
body $-1 $16 $-1 $17 #
body $-1 $18 $-1 $19 #
body $-1 $20 $-1 $21 #
body $-1 $22 $-1 $23 #
lump $-1 $-1 $24 $0 #
transform $-1 1 0 0 0 1 0 0 0 1 76.647846919156478 31.240892346836585 7.7155002663515244 1 rotate no_reflect no_shear #
lump $-1 $-1 $25 $1 #
transform $-1 1 0 0 0 0.8660253999169214 0.50000000669873634 0 -0.50000000669873634 0.8660253999169214 20.230849136317289 -76.64784794604391 142.97030401463158 1 rotate no_reflect no_shear #
lump $-1 $-1 $26 $2 #
transform $-1 1 0 0 0 -0.8660253999169214 -0.50000000669873634 0 0.50000000669873634 -0.8660253999169214 11.560485220752737 7.474047152394852 7.7042321581086481 1 rotate no_reflect no_shear #
lump $-1 $-1 $27 $3 #
transform $-1 1 0 0 0 -0.8660253999169214 -0.50000000669873634 0 0.50000000669873634 -0.8660253999169214 28.90121305188184 7.474047152394852 7.7042321581086481 1 rotate no_reflect no_shear #
lump $-1 $-1 $28 $4 #
transform $-1 1 0 0 0 0.83867056331134215 -0.54463904215088732 0 0.54463904215088732 0.83867056331134215 49.329450049999366 93.570970985886731 171.03526822772915 1 rotate no_reflect no_shear #
lump $-1 $-1 $29 $5 #
transform $-1 1 0 0 0 -0.83867056331134215 0.54463904215088732 0 -0.54463904215088732 -0.83867056331134215 49.329450049999366 54.345481614834391 7.6947123045591539 1 rotate no_reflect no_shear #
lump $-1 $-1 $30 $6 #
transform $-1 1 0 0 0 0.83867056331134215 -0.54463904215088732 0 0.54463904215088732 0.83867056331134215 103.96624378831359 93.570970985886731 171.03526822772915 1 rotate no_reflect no_shear #
lump $-1 $-1 $31 $7 #
transform $-1 1 0 0 0 -0.83867056331134215 0.54463904215088732 0 -0.54463904215088732 -0.83867056331134215 103.96624378831359 54.345481614834391 7.6947123045591539 1 rotate no_reflect no_shear #
shell $-1 $-1 $-1 $32 $-1 $8 #
shell $-1 $-1 $-1 $33 $-1 $10 #
shell $-1 $-1 $-1 $34 $-1 $12 #
shell $-1 $-1 $-1 $35 $-1 $14 #
shell $-1 $-1 $-1 $36 $-1 $16 #
shell $-1 $-1 $-1 $37 $-1 $18 #
shell $-1 $-1 $-1 $38 $-1 $20 #
shell $-1 $-1 $-1 $39 $-1 $22 #
face $-1 $40 $41 $24 $-1 $42 forward single #
face $-1 $43 $44 $25 $-1 $45 forward single #
face $-1 $46 $47 $26 $-1 $48 forward single #
face $-1 $49 $50 $27 $-1 $51 forward single #
face $-1 $52 $53 $28 $-1 $54 forward single #
face $-1 $55 $56 $29 $-1 $57 forward single #
face $-1 $58 $59 $30 $-1 $60 forward single #
face $-1 $61 $62 $31 $-1 $63 forward single #
face $-1 $64 $65 $24 $-1 $66 reversed single #
loop $-1 $-1 $67 $32 #
plane-surface $-1 0 0 7.7155002663515244 0 0 1 1 0 0 forward_v I I I I #
face $-1 $68 $69 $25 $-1 $70 reversed single #
loop $-1 $-1 $71 $33 #
plane-surface $-1 0 0 153.29569383831296 0 0 1 1 0 0 forward_v I I I I #
face $-1 $72 $73 $26 $-1 $74 forward single #
loop $-1 $75 $76 $34 #
cone-surface $-1 0 0 -3.3295541245765561 0 0 1 1.5 0 0 1 I I 0 1 1.5 forward I I I I #
face $-1 $77 $78 $27 $-1 $79 forward single #
loop $-1 $80 $81 $35 #
cone-surface $-1 0 0 -3.3295541245765561 0 0 1 1.5 0 0 1 I I 0 1 1.5 forward I I I I #
face $-1 $82 $83 $28 $-1 $84 reversed single #
loop $-1 $-1 $85 $36 #
plane-surface $-1 0 0 153.29569383831296 0 0 1 1 0 0 forward_v I I I I #
face $-1 $86 $87 $29 $-1 $88 forward single #
loop $-1 $89 $90 $37 #
cone-surface $-1 0 0 -3.15347758415479 0 0 1 2.5 0 0 1 I I 0 1 2.5 forward I I I I #
face $-1 $91 $92 $30 $-1 $93 reversed single #
loop $-1 $-1 $94 $38 #
plane-surface $-1 0 0 153.29569383831296 0 0 1 1 0 0 forward_v I I I I #
face $-1 $95 $96 $31 $-1 $97 forward single #
loop $-1 $98 $99 $39 #
cone-surface $-1 0 0 -3.15347758415479 0 0 1 2.5 0 0 1 I I 0 1 2.5 forward I I I I #
face $-1 $100 $101 $24 $-1 $102 reversed single #
loop $-1 $-1 $103 $40 #
plane-surface $-1 0 0 -7.7155002663515244 0 0 1 1 0 0 forward_v I I I I #
coedge $-1 $104 $105 $106 $107 forward $41 $-1 #
face $-1 $108 $109 $25 $-1 $110 reversed single #
loop $-1 $-1 $111 $43 #
plane-surface $-1 0 0 -153.29569383831296 0 0 1 1 0 0 forward_v I I I I #
coedge $-1 $112 $113 $114 $115 forward $44 $-1 #
face $-1 $-1 $116 $26 $-1 $117 forward single #
loop $-1 $-1 $118 $46 #
plane-surface $-1 0 0 -5.9091082491531122 0 0 -1 -1 0 0 forward_v I I I I #
loop $-1 $-1 $119 $34 #
coedge $-1 $76 $76 $118 $120 reversed $47 $-1 #
face $-1 $-1 $121 $27 $-1 $122 forward single #
loop $-1 $-1 $123 $49 #
plane-surface $-1 0 0 -5.9091082491531122 0 0 -1 -1 0 0 forward_v I I I I #
loop $-1 $-1 $124 $35 #
coedge $-1 $81 $81 $123 $125 reversed $50 $-1 #
face $-1 $126 $127 $28 $-1 $128 reversed single #
loop $-1 $-1 $129 $52 #
plane-surface $-1 0 0 -153.29569383831296 0 0 1 1 0 0 forward_v I I I I #
coedge $-1 $130 $131 $132 $133 forward $53 $-1 #
face $-1 $-1 $134 $29 $-1 $135 forward single #
loop $-1 $-1 $136 $55 #
plane-surface $-1 0 0 -5.0569551683095799 0 0 -1 -1 0 0 forward_v I I I I #
loop $-1 $-1 $137 $37 #
coedge $-1 $90 $90 $136 $138 reversed $56 $-1 #
face $-1 $139 $140 $30 $-1 $141 reversed single #
loop $-1 $-1 $142 $58 #
plane-surface $-1 0 0 -153.29569383831296 0 0 1 1 0 0 forward_v I I I I #
coedge $-1 $143 $144 $145 $146 forward $59 $-1 #
face $-1 $-1 $147 $31 $-1 $148 forward single #
loop $-1 $-1 $149 $61 #
plane-surface $-1 0 0 -5.0569551683095799 0 0 -1 -1 0 0 forward_v I I I I #
loop $-1 $-1 $150 $39 #
coedge $-1 $99 $99 $149 $151 reversed $62 $-1 #
face $-1 $152 $153 $24 $-1 $154 reversed single #
loop $-1 $-1 $155 $64 #
plane-surface $-1 0 -31.240892346836585 0 0 1 0 0 0 1 forward_v I I I I #
coedge $-1 $156 $157 $158 $159 forward $65 $-1 #
coedge $-1 $160 $67 $161 $162 forward $41 $-1 #
coedge $-1 $67 $160 $163 $164 forward $41 $-1 #
coedge $-1 $165 $166 $67 $107 reversed $167 $-1 #
edge $-1 $168 -31.240892346836585 $169 31.240892346836585 $106 $170 forward 7 unknown #
face $-1 $171 $172 $25 $-1 $173 reversed single #
loop $-1 $-1 $174 $68 #
plane-surface $-1 0 -306.59138767662591 0 0 1 0 0 0 1 forward_v I I I I #
coedge $-1 $175 $176 $177 $178 forward $69 $-1 #
coedge $-1 $179 $71 $180 $181 forward $44 $-1 #
coedge $-1 $71 $179 $182 $183 forward $44 $-1 #
coedge $-1 $184 $185 $71 $115 reversed $186 $-1 #
edge $-1 $187 -306.59138767662591 $188 306.59138767662591 $114 $189 forward 7 unknown #
loop $-1 $190 $191 $72 #
cone-surface $-1 0 0 0 0 0 1 0.75 0 0 1 I I -0.70710678118654757 0.70710678118654757 0.75 forward I I I I #
coedge $-1 $118 $118 $76 $120 forward $73 $-1 #
coedge $-1 $119 $119 $191 $192 forward $75 $-1 #
edge $-1 $193 0 $193 6.2831853071796004 $118 $194 forward 7 unknown #
loop $-1 $195 $196 $77 #
cone-surface $-1 0 0 0 0 0 1 0.75 0 0 1 I I -0.70710678118654757 0.70710678118654757 0.75 forward I I I I #
coedge $-1 $123 $123 $81 $125 forward $78 $-1 #
coedge $-1 $124 $124 $196 $197 forward $80 $-1 #
edge $-1 $198 0 $198 6.2831853071796004 $123 $199 forward 7 unknown #
face $-1 $200 $201 $28 $-1 $202 reversed single #
loop $-1 $-1 $203 $82 #
plane-surface $-1 0 -306.59138767662591 0 0 1 0 0 0 1 forward_v I I I I #
coedge $-1 $204 $205 $206 $207 forward $83 $-1 #
coedge $-1 $208 $85 $209 $210 forward $53 $-1 #
coedge $-1 $85 $208 $211 $212 forward $53 $-1 #
coedge $-1 $213 $214 $85 $133 reversed $215 $-1 #
edge $-1 $216 -306.59138767662591 $217 306.59138767662591 $132 $218 forward 7 unknown #
loop $-1 $219 $220 $86 #
cone-surface $-1 0 0 0 0 0 1 1.25 0 0 1 I I -0.70710678118654746 0.70710678118654746 1.25 forward I I I I #
coedge $-1 $136 $136 $90 $138 forward $87 $-1 #
coedge $-1 $137 $137 $220 $221 forward $89 $-1 #
edge $-1 $222 0 $222 6.2831853071796004 $136 $223 forward 7 unknown #
face $-1 $224 $225 $30 $-1 $226 reversed single #
loop $-1 $-1 $227 $91 #
plane-surface $-1 0 -306.59138767662591 0 0 1 0 0 0 1 forward_v I I I I #
coedge $-1 $228 $229 $230 $231 forward $92 $-1 #
coedge $-1 $232 $94 $233 $234 forward $59 $-1 #
coedge $-1 $94 $232 $235 $236 forward $59 $-1 #
coedge $-1 $237 $238 $94 $146 reversed $239 $-1 #
edge $-1 $240 -306.59138767662591 $241 306.59138767662591 $145 $242 forward 7 unknown #
loop $-1 $243 $244 $95 #
cone-surface $-1 0 0 0 0 0 1 1.25 0 0 1 I I -0.70710678118654746 0.70710678118654746 1.25 forward I I I I #
coedge $-1 $149 $149 $99 $151 forward $96 $-1 #
coedge $-1 $150 $150 $244 $245 forward $98 $-1 #
edge $-1 $246 0 $246 6.2831853071796004 $149 $247 forward 7 unknown #
face $-1 $248 $249 $24 $-1 $250 reversed single #
loop $-1 $-1 $251 $100 #
plane-surface $-1 -76.647846919156478 0 0 1 0 0 0 0 -1 forward_v I I I I #
coedge $-1 $252 $163 $253 $254 forward $101 $-1 #
coedge $-1 $255 $103 $252 $256 forward $65 $-1 #
coedge $-1 $103 $255 $257 $258 forward $65 $-1 #
coedge $-1 $166 $165 $103 $159 reversed $167 $-1 #
edge $-1 $259 -31.240892346836585 $260 31.240892346836585 $158 $261 forward 7 unknown #
coedge $-1 $105 $104 $262 $263 forward $41 $-1 #
coedge $-1 $264 $265 $104 $162 reversed $249 $-1 #
edge $-1 $169 -76.647846919156478 $266 76.647846919156478 $161 $267 forward 7 unknown #
coedge $-1 $155 $268 $105 $164 reversed $101 $-1 #
edge $-1 $269 -76.647846919156478 $168 76.647846919156478 $163 $270 forward 7 unknown #
coedge $-1 $158 $106 $268 $271 forward $167 $-1 #
coedge $-1 $106 $158 $264 $272 reversed $167 $-1 #
loop $-1 $-1 $165 $248 #
vertex $-1 $107 $273 #
vertex $-1 $107 $274 #
straight-curve $-1 76.647846919156478 0 7.7155002663515244 0 1 0 I I #
face $-1 $275 $276 $25 $-1 $277 reversed single #
loop $-1 $-1 $278 $108 #
plane-surface $-1 -20.230849136317289 0 0 1 0 0 0 0 -1 forward_v I I I I #
coedge $-1 $279 $182 $280 $281 forward $109 $-1 #
coedge $-1 $282 $111 $279 $283 forward $69 $-1 #
coedge $-1 $111 $282 $284 $285 forward $69 $-1 #
coedge $-1 $185 $184 $111 $178 reversed $186 $-1 #
edge $-1 $286 -306.59138767662591 $287 306.59138767662591 $177 $288 forward 7 unknown #
coedge $-1 $113 $112 $289 $290 forward $44 $-1 #
coedge $-1 $291 $292 $112 $181 reversed $276 $-1 #
edge $-1 $188 -20.230849136317289 $293 20.230849136317289 $180 $294 forward 7 unknown #
coedge $-1 $174 $295 $113 $183 reversed $109 $-1 #
edge $-1 $296 -20.230849136317289 $187 20.230849136317289 $182 $297 forward 7 unknown #
coedge $-1 $177 $114 $295 $298 forward $186 $-1 #
coedge $-1 $114 $177 $291 $299 reversed $186 $-1 #
loop $-1 $-1 $184 $275 #
vertex $-1 $115 $300 #
vertex $-1 $115 $301 #
straight-curve $-1 20.230849136317289 0 153.29569383831296 0 1 0 I I #
loop $-1 $-1 $302 $72 #
coedge $-1 $191 $191 $119 $192 reversed $116 $-1 #
edge $-1 $303 0 $303 6.2831853071796004 $191 $304 forward 7 unknown #
vertex $-1 $120 $305 #
ellipse-curve $-1 0 0 -5.9091082491531122 0 0 -1 1.5 0 0 1 I I #
loop $-1 $-1 $306 $77 #
coedge $-1 $196 $196 $124 $197 reversed $121 $-1 #
edge $-1 $307 0 $307 6.2831853071796004 $196 $308 forward 7 unknown #
vertex $-1 $125 $309 #
ellipse-curve $-1 0 0 -5.9091082491531122 0 0 -1 1.5 0 0 1 I I #
face $-1 $310 $311 $28 $-1 $312 reversed single #
loop $-1 $-1 $313 $126 #
plane-surface $-1 -17.206174968440607 0 0 1 0 0 0 0 -1 forward_v I I I I #
coedge $-1 $314 $211 $315 $316 forward $127 $-1 #
coedge $-1 $317 $129 $314 $318 forward $83 $-1 #
coedge $-1 $129 $317 $319 $320 forward $83 $-1 #
coedge $-1 $214 $213 $129 $207 reversed $215 $-1 #
edge $-1 $321 -306.59138767662591 $322 306.59138767662591 $206 $323 forward 7 unknown #
coedge $-1 $131 $130 $324 $325 forward $53 $-1 #
coedge $-1 $326 $327 $130 $210 reversed $311 $-1 #
edge $-1 $217 -17.206174968440607 $328 17.206174968440607 $209 $329 forward 7 unknown #
coedge $-1 $203 $330 $131 $212 reversed $127 $-1 #
edge $-1 $331 -17.206174968440607 $216 17.206174968440607 $211 $332 forward 7 unknown #
coedge $-1 $206 $132 $330 $333 forward $215 $-1 #
coedge $-1 $132 $206 $326 $334 reversed $215 $-1 #
loop $-1 $-1 $213 $310 #
vertex $-1 $133 $335 #
vertex $-1 $133 $336 #
straight-curve $-1 17.206174968440607 0 153.29569383831296 0 1 0 I I #
loop $-1 $-1 $337 $86 #
coedge $-1 $220 $220 $137 $221 reversed $134 $-1 #
edge $-1 $338 0 $338 6.2831853071796004 $220 $339 forward 7 unknown #
vertex $-1 $138 $340 #
ellipse-curve $-1 0 0 -5.0569551683095799 0 0 -1 2.5 0 0 1 I I #
face $-1 $341 $342 $30 $-1 $343 reversed single #
loop $-1 $-1 $344 $139 #
plane-surface $-1 -17.206174968440607 0 0 1 0 0 0 0 -1 forward_v I I I I #
coedge $-1 $345 $235 $346 $347 forward $140 $-1 #
coedge $-1 $348 $142 $345 $349 forward $92 $-1 #
coedge $-1 $142 $348 $350 $351 forward $92 $-1 #
coedge $-1 $238 $237 $142 $231 reversed $239 $-1 #
edge $-1 $352 -306.59138767662591 $353 306.59138767662591 $230 $354 forward 7 unknown #
coedge $-1 $144 $143 $355 $356 forward $59 $-1 #
coedge $-1 $357 $358 $143 $234 reversed $342 $-1 #
edge $-1 $241 -17.206174968440607 $359 17.206174968440607 $233 $360 forward 7 unknown #
coedge $-1 $227 $361 $144 $236 reversed $140 $-1 #
edge $-1 $362 -17.206174968440607 $240 17.206174968440607 $235 $363 forward 7 unknown #
coedge $-1 $230 $145 $361 $364 forward $239 $-1 #
coedge $-1 $145 $230 $357 $365 reversed $239 $-1 #
loop $-1 $-1 $237 $341 #
vertex $-1 $146 $366 #
vertex $-1 $146 $367 #
straight-curve $-1 17.206174968440607 0 153.29569383831296 0 1 0 I I #
loop $-1 $-1 $368 $95 #
coedge $-1 $244 $244 $150 $245 reversed $147 $-1 #
edge $-1 $369 0 $369 6.2831853071796004 $244 $370 forward 7 unknown #
vertex $-1 $151 $371 #
ellipse-curve $-1 0 0 -5.0569551683095799 0 0 -1 2.5 0 0 1 I I #
face $-1 $-1 $167 $24 $-1 $372 reversed single #
loop $-1 $-1 $264 $152 #
plane-surface $-1 0 31.240892346836585 0 0 -1 0 0 0 -1 forward_v I I I I #
coedge $-1 $373 $262 $265 $374 forward $153 $-1 #
coedge $-1 $268 $155 $156 $256 reversed $101 $-1 #
coedge $-1 $262 $373 $155 $254 reversed $153 $-1 #
edge $-1 $269 -7.7155002663515244 $375 7.7155002663515244 $253 $376 forward 7 unknown #
coedge $-1 $157 $156 $373 $377 forward $65 $-1 #
edge $-1 $260 -76.647846919156478 $375 76.647846919156478 $252 $378 forward 7 unknown #
coedge $-1 $265 $264 $157 $258 reversed $249 $-1 #
edge $-1 $379 -76.647846919156478 $259 76.647846919156478 $257 $380 forward 7 unknown #
vertex $-1 $159 $381 #
vertex $-1 $271 $382 #
straight-curve $-1 76.647846919156478 0 -7.7155002663515244 0 -1 0 I I #
coedge $-1 $251 $253 $160 $263 reversed $153 $-1 #
edge $-1 $266 -31.240892346836585 $269 31.240892346836585 $262 $383 forward 7 unknown #
coedge $-1 $257 $161 $166 $272 forward $249 $-1 #
coedge $-1 $161 $257 $251 $374 reversed $249 $-1 #
vertex $-1 $162 $384 #
straight-curve $-1 0 31.240892346836585 7.7155002663515244 -1 0 0 I I #
coedge $-1 $163 $252 $165 $271 reversed $101 $-1 #
vertex $-1 $263 $385 #
straight-curve $-1 0 -31.240892346836585 7.7155002663515244 1 0 0 I I #
edge $-1 $168 -7.7155002663515244 $260 7.7155002663515244 $165 $386 forward 7 unknown #
edge $-1 $169 -7.7155002663515244 $259 7.7155002663515244 $166 $387 forward 7 unknown #
point $-1 76.647846919156478 -31.240892346836585 7.7155002663515244 #
point $-1 76.647846919156478 31.240892346836585 7.7155002663515244 #
face $-1 $-1 $186 $25 $-1 $388 reversed single #
loop $-1 $-1 $291 $171 #
plane-surface $-1 0 306.59138767662591 0 0 -1 0 0 0 -1 forward_v I I I I #
coedge $-1 $389 $289 $292 $390 forward $172 $-1 #
coedge $-1 $295 $174 $175 $283 reversed $109 $-1 #
coedge $-1 $289 $389 $174 $281 reversed $172 $-1 #
edge $-1 $296 -153.29569383831296 $391 153.29569383831296 $280 $392 forward 7 unknown #
coedge $-1 $176 $175 $389 $393 forward $69 $-1 #
edge $-1 $287 -20.230849136317289 $391 20.230849136317289 $279 $394 forward 7 unknown #
coedge $-1 $292 $291 $176 $285 reversed $276 $-1 #
edge $-1 $395 -20.230849136317289 $286 20.230849136317289 $284 $396 forward 7 unknown #
vertex $-1 $178 $397 #
vertex $-1 $298 $398 #
straight-curve $-1 20.230849136317289 0 -153.29569383831296 0 -1 0 I I #
coedge $-1 $278 $280 $179 $290 reversed $172 $-1 #
edge $-1 $293 -306.59138767662591 $296 306.59138767662591 $289 $399 forward 7 unknown #
coedge $-1 $284 $180 $185 $299 forward $276 $-1 #
coedge $-1 $180 $284 $278 $390 reversed $276 $-1 #
vertex $-1 $181 $400 #
straight-curve $-1 0 306.59138767662591 153.29569383831296 -1 0 0 I I #
coedge $-1 $182 $279 $184 $298 reversed $109 $-1 #
vertex $-1 $290 $401 #
straight-curve $-1 0 -306.59138767662591 153.29569383831296 1 0 0 I I #
edge $-1 $187 -153.29569383831296 $287 153.29569383831296 $184 $402 forward 7 unknown #
edge $-1 $188 -153.29569383831296 $286 153.29569383831296 $185 $403 forward 7 unknown #
point $-1 20.230849136317289 -306.59138767662591 153.29569383831296 #
point $-1 20.230849136317289 306.59138767662591 153.29569383831296 #
coedge $-1 $302 $302 $-1 $404 reversed $190 $-1 #
vertex $-1 $192 $405 #
ellipse-curve $-1 0 0 -0.75 0 0 -1 1.5 0 0 1 I I #
point $-1 1.5 0 -5.9091082491531122 #
coedge $-1 $306 $306 $-1 $406 reversed $195 $-1 #
vertex $-1 $197 $407 #
ellipse-curve $-1 0 0 -0.75 0 0 -1 1.5 0 0 1 I I #
point $-1 1.5 0 -5.9091082491531122 #
face $-1 $-1 $215 $28 $-1 $408 reversed single #
loop $-1 $-1 $326 $200 #
plane-surface $-1 0 306.59138767662591 0 0 -1 0 0 0 -1 forward_v I I I I #
coedge $-1 $409 $324 $327 $410 forward $201 $-1 #
coedge $-1 $330 $203 $204 $318 reversed $127 $-1 #
coedge $-1 $324 $409 $203 $316 reversed $201 $-1 #
edge $-1 $331 -153.29569383831296 $411 153.29569383831296 $315 $412 forward 7 unknown #
coedge $-1 $205 $204 $409 $413 forward $83 $-1 #
edge $-1 $322 -17.206174968440607 $411 17.206174968440607 $314 $414 forward 7 unknown #
coedge $-1 $327 $326 $205 $320 reversed $311 $-1 #
edge $-1 $415 -17.206174968440607 $321 17.206174968440607 $319 $416 forward 7 unknown #
vertex $-1 $207 $417 #
vertex $-1 $333 $418 #
straight-curve $-1 17.206174968440607 0 -153.29569383831296 0 -1 0 I I #
coedge $-1 $313 $315 $208 $325 reversed $201 $-1 #
edge $-1 $328 -306.59138767662591 $331 306.59138767662591 $324 $419 forward 7 unknown #
coedge $-1 $319 $209 $214 $334 forward $311 $-1 #
coedge $-1 $209 $319 $313 $410 reversed $311 $-1 #
vertex $-1 $210 $420 #
straight-curve $-1 0 306.59138767662591 153.29569383831296 -1 0 0 I I #
coedge $-1 $211 $314 $213 $333 reversed $127 $-1 #
vertex $-1 $325 $421 #
straight-curve $-1 0 -306.59138767662591 153.29569383831296 1 0 0 I I #
edge $-1 $216 -153.29569383831296 $322 153.29569383831296 $213 $422 forward 7 unknown #
edge $-1 $217 -153.29569383831296 $321 153.29569383831296 $214 $423 forward 7 unknown #
point $-1 17.206174968440607 -306.59138767662591 153.29569383831296 #
point $-1 17.206174968440607 306.59138767662591 153.29569383831296 #
coedge $-1 $337 $337 $-1 $424 reversed $219 $-1 #
vertex $-1 $221 $425 #
ellipse-curve $-1 0 0 -1.25 0 0 -1 2.5 0 0 1 I I #
point $-1 2.5 0 -5.0569551683095799 #
face $-1 $-1 $239 $30 $-1 $426 reversed single #
loop $-1 $-1 $357 $224 #
plane-surface $-1 0 306.59138767662591 0 0 -1 0 0 0 -1 forward_v I I I I #
coedge $-1 $427 $355 $358 $428 forward $225 $-1 #
coedge $-1 $361 $227 $228 $349 reversed $140 $-1 #
coedge $-1 $355 $427 $227 $347 reversed $225 $-1 #
edge $-1 $362 -153.29569383831296 $429 153.29569383831296 $346 $430 forward 7 unknown #
coedge $-1 $229 $228 $427 $431 forward $92 $-1 #
edge $-1 $353 -17.206174968440607 $429 17.206174968440607 $345 $432 forward 7 unknown #
coedge $-1 $358 $357 $229 $351 reversed $342 $-1 #
edge $-1 $433 -17.206174968440607 $352 17.206174968440607 $350 $434 forward 7 unknown #
vertex $-1 $231 $435 #
vertex $-1 $364 $436 #
straight-curve $-1 17.206174968440607 0 -153.29569383831296 0 -1 0 I I #
coedge $-1 $344 $346 $232 $356 reversed $225 $-1 #
edge $-1 $359 -306.59138767662591 $362 306.59138767662591 $355 $437 forward 7 unknown #
coedge $-1 $350 $233 $238 $365 forward $342 $-1 #
coedge $-1 $233 $350 $344 $428 reversed $342 $-1 #
vertex $-1 $234 $438 #
straight-curve $-1 0 306.59138767662591 153.29569383831296 -1 0 0 I I #
coedge $-1 $235 $345 $237 $364 reversed $140 $-1 #
vertex $-1 $356 $439 #
straight-curve $-1 0 -306.59138767662591 153.29569383831296 1 0 0 I I #
edge $-1 $240 -153.29569383831296 $353 153.29569383831296 $237 $440 forward 7 unknown #
edge $-1 $241 -153.29569383831296 $352 153.29569383831296 $238 $441 forward 7 unknown #
point $-1 17.206174968440607 -306.59138767662591 153.29569383831296 #
point $-1 17.206174968440607 306.59138767662591 153.29569383831296 #
coedge $-1 $368 $368 $-1 $442 reversed $243 $-1 #
vertex $-1 $245 $443 #
ellipse-curve $-1 0 0 -1.25 0 0 -1 2.5 0 0 1 I I #
point $-1 2.5 0 -5.0569551683095799 #
plane-surface $-1 76.647846919156478 0 0 -1 0 0 0 0 1 forward_v I I I I #
coedge $-1 $253 $251 $255 $377 reversed $153 $-1 #
edge $-1 $266 -7.7155002663515244 $379 7.7155002663515244 $265 $444 forward 7 unknown #
vertex $-1 $377 $445 #
straight-curve $-1 -76.647846919156478 -31.240892346836585 0 0 0 -1 I I #
edge $-1 $375 -31.240892346836585 $379 31.240892346836585 $373 $446 forward 7 unknown #
straight-curve $-1 0 -31.240892346836585 -7.7155002663515244 -1 0 0 I I #
vertex $-1 $258 $447 #
straight-curve $-1 0 31.240892346836585 -7.7155002663515244 1 0 0 I I #
point $-1 76.647846919156478 31.240892346836585 -7.7155002663515244 #
point $-1 76.647846919156478 -31.240892346836585 -7.7155002663515244 #
straight-curve $-1 -76.647846919156478 0 7.7155002663515244 0 -1 0 I I #
point $-1 -76.647846919156478 31.240892346836585 7.7155002663515244 #
point $-1 -76.647846919156478 -31.240892346836585 7.7155002663515244 #
straight-curve $-1 76.647846919156478 -31.240892346836585 0 0 0 -1 I I #
straight-curve $-1 76.647846919156478 31.240892346836585 0 0 0 -1 I I #
plane-surface $-1 20.230849136317289 0 0 -1 0 0 0 0 1 forward_v I I I I #
coedge $-1 $280 $278 $282 $393 reversed $172 $-1 #
edge $-1 $293 -153.29569383831296 $395 153.29569383831296 $292 $448 forward 7 unknown #
vertex $-1 $393 $449 #
straight-curve $-1 -20.230849136317289 -306.59138767662591 0 0 0 -1 I I #
edge $-1 $391 -306.59138767662591 $395 306.59138767662591 $389 $450 forward 7 unknown #
straight-curve $-1 0 -306.59138767662591 -153.29569383831296 -1 0 0 I I #
vertex $-1 $285 $451 #
straight-curve $-1 0 306.59138767662591 -153.29569383831296 1 0 0 I I #
point $-1 20.230849136317289 306.59138767662591 -153.29569383831296 #
point $-1 20.230849136317289 -306.59138767662591 -153.29569383831296 #
straight-curve $-1 -20.230849136317289 0 153.29569383831296 0 -1 0 I I #
point $-1 -20.230849136317289 306.59138767662591 153.29569383831296 #
point $-1 -20.230849136317289 -306.59138767662591 153.29569383831296 #
straight-curve $-1 20.230849136317289 -306.59138767662591 0 0 0 -1 I I #
straight-curve $-1 20.230849136317289 306.59138767662591 0 0 0 -1 I I #
edge $-1 $452 1 $452 0 $302 $-1 forward 7 unknown #
point $-1 1.5 0 -0.75 #
edge $-1 $453 1 $453 0 $306 $-1 forward 7 unknown #
point $-1 1.5 0 -0.75 #
plane-surface $-1 17.206174968440607 0 0 -1 0 0 0 0 1 forward_v I I I I #
coedge $-1 $315 $313 $317 $413 reversed $201 $-1 #
edge $-1 $328 -153.29569383831296 $415 153.29569383831296 $327 $454 forward 7 unknown #
vertex $-1 $413 $455 #
straight-curve $-1 -17.206174968440607 -306.59138767662591 0 0 0 -1 I I #
edge $-1 $411 -306.59138767662591 $415 306.59138767662591 $409 $456 forward 7 unknown #
straight-curve $-1 0 -306.59138767662591 -153.29569383831296 -1 0 0 I I #
vertex $-1 $320 $457 #
straight-curve $-1 0 306.59138767662591 -153.29569383831296 1 0 0 I I #
point $-1 17.206174968440607 306.59138767662591 -153.29569383831296 #
point $-1 17.206174968440607 -306.59138767662591 -153.29569383831296 #
straight-curve $-1 -17.206174968440607 0 153.29569383831296 0 -1 0 I I #
point $-1 -17.206174968440607 306.59138767662591 153.29569383831296 #
point $-1 -17.206174968440607 -306.59138767662591 153.29569383831296 #
straight-curve $-1 17.206174968440607 -306.59138767662591 0 0 0 -1 I I #
straight-curve $-1 17.206174968440607 306.59138767662591 0 0 0 -1 I I #
edge $-1 $458 1 $458 0 $337 $-1 forward 7 unknown #
point $-1 2.5 0 -1.25 #
plane-surface $-1 17.206174968440607 0 0 -1 0 0 0 0 1 forward_v I I I I #
coedge $-1 $346 $344 $348 $431 reversed $225 $-1 #
edge $-1 $359 -153.29569383831296 $433 153.29569383831296 $358 $459 forward 7 unknown #
vertex $-1 $431 $460 #
straight-curve $-1 -17.206174968440607 -306.59138767662591 0 0 0 -1 I I #
edge $-1 $429 -306.59138767662591 $433 306.59138767662591 $427 $461 forward 7 unknown #
straight-curve $-1 0 -306.59138767662591 -153.29569383831296 -1 0 0 I I #
vertex $-1 $351 $462 #
straight-curve $-1 0 306.59138767662591 -153.29569383831296 1 0 0 I I #
point $-1 17.206174968440607 306.59138767662591 -153.29569383831296 #
point $-1 17.206174968440607 -306.59138767662591 -153.29569383831296 #
straight-curve $-1 -17.206174968440607 0 153.29569383831296 0 -1 0 I I #
point $-1 -17.206174968440607 306.59138767662591 153.29569383831296 #
point $-1 -17.206174968440607 -306.59138767662591 153.29569383831296 #
straight-curve $-1 17.206174968440607 -306.59138767662591 0 0 0 -1 I I #
straight-curve $-1 17.206174968440607 306.59138767662591 0 0 0 -1 I I #
edge $-1 $463 1 $463 0 $368 $-1 forward 7 unknown #
point $-1 2.5 0 -1.25 #
straight-curve $-1 -76.647846919156478 31.240892346836585 0 0 0 -1 I I #
point $-1 -76.647846919156478 -31.240892346836585 -7.7155002663515244 #
straight-curve $-1 -76.647846919156478 0 -7.7155002663515244 0 1 0 I I #
point $-1 -76.647846919156478 31.240892346836585 -7.7155002663515244 #
straight-curve $-1 -20.230849136317289 306.59138767662591 0 0 0 -1 I I #
point $-1 -20.230849136317289 -306.59138767662591 -153.29569383831296 #
straight-curve $-1 -20.230849136317289 0 -153.29569383831296 0 1 0 I I #
point $-1 -20.230849136317289 306.59138767662591 -153.29569383831296 #
vertex $-1 $404 $464 #
vertex $-1 $406 $465 #
straight-curve $-1 -17.206174968440607 306.59138767662591 0 0 0 -1 I I #
point $-1 -17.206174968440607 -306.59138767662591 -153.29569383831296 #
straight-curve $-1 -17.206174968440607 0 -153.29569383831296 0 1 0 I I #
point $-1 -17.206174968440607 306.59138767662591 -153.29569383831296 #
vertex $-1 $424 $466 #
straight-curve $-1 -17.206174968440607 306.59138767662591 0 0 0 -1 I I #
point $-1 -17.206174968440607 -306.59138767662591 -153.29569383831296 #
straight-curve $-1 -17.206174968440607 0 -153.29569383831296 0 1 0 I I #
point $-1 -17.206174968440607 306.59138767662591 -153.29569383831296 #
vertex $-1 $442 $467 #
point $-1 0 0 0.75 #
point $-1 0 0 0.75 #
point $-1 0 0 1.25 #
point $-1 0 0 1.25 #
End-of-ACIS-data 