500 0 5 0           
7 Unknown 11 ACIS 5.0 NT 24 Fri Mar 26 15:15:34 1999 
-1 9.9999999999999995e-007 1e-010 
body $-1 $5 $-1 $6 #
body $-1 $7 $-1 $8 #
body $-1 $9 $-1 $10 #
body $-1 $11 $-1 $12 #
body $-1 $13 $-1 $14 #
lump $-1 $-1 $15 $0 #
transform $-1 1 0 0 0 1 0 0 0 1 41.411175878170113 22.532547863688549 10.330506509348856 1 rotate no_reflect no_shear #
lump $-1 $-1 $16 $1 #
transform $-1 1 0 0 0 1 0 0 0 1 41.411175878170113 22.532547863688549 10.330506509348856 1 rotate no_reflect no_shear #
lump $-1 $-1 $17 $2 #
transform $-1 1 0 0 0 1 0 0 0 1 41.411175878170113 22.532547863688549 10.330506509348856 1 rotate no_reflect no_shear #
lump $-1 $-1 $18 $3 #
transform $-1 1 0 0 0 1 0 0 0 1 41.411175878170113 22.532547863688549 10.330506509348856 1 rotate no_reflect no_shear #
lump $-1 $-1 $19 $4 #
transform $-1 1 0 0 0 1 0 0 0 1 41.411175878170113 22.532547863688549 10.330506509348856 1 rotate no_reflect no_shear #
shell $-1 $-1 $-1 $20 $-1 $5 #
shell $-1 $-1 $-1 $21 $-1 $7 #
shell $-1 $-1 $-1 $22 $-1 $9 #
shell $-1 $-1 $-1 $23 $-1 $11 #
shell $-1 $-1 $-1 $24 $-1 $13 #
face $-1 $25 $26 $15 $-1 $27 forward single #
face $-1 $28 $29 $16 $-1 $30 forward single #
face $-1 $31 $32 $17 $-1 $33 forward single #
face $-1 $34 $35 $18 $-1 $36 reversed single #
face $-1 $37 $38 $19 $-1 $39 reversed single #
face $-1 $40 $41 $15 $-1 $42 reversed single #
loop $-1 $-1 $43 $20 #
plane-surface $-1 0 0 10.330506509348856 0 0 1 1 0 0 forward_v I I I I #
face $-1 $44 $45 $16 $-1 $46 forward single #
loop $-1 $-1 $47 $21 #
plane-surface $-1 -35.724264675390458 -7.9320118041747323 0 0 1 0 0 0 1 forward_v I I I I #
face $-1 $48 $49 $17 $-1 $50 forward single #
loop $-1 $-1 $51 $22 #
plane-surface $-1 35.21996576396559 -22.532547863688535 1.9091934736406415 0 -0.54463904215088732 0.83867056331134215 1 0 0 forward_v I I I I #
face $-1 $52 $53 $18 $-1 $54 reversed single #
loop $-1 $55 $56 $23 #
cone-surface $-1 32.566590000735076 -14.427803102207701 3.6238791674035795 0 0.54463904215088732 -0.83867056331134215 1.5 0 0 1 I I 0 1 1.5 forward I I I I #
face $-1 $57 $58 $19 $-1 $59 reversed single #
loop $-1 $60 $61 $24 #
cone-surface $-1 37.873341527196104 -14.427803102207701 3.6238791674035795 0 0.54463904215088732 -0.83867056331134215 1.5 0 0 1 I I 0 1 1.5 forward I I I I #
face $-1 $62 $63 $15 $-1 $64 reversed single #
loop $-1 $-1 $65 $25 #
plane-surface $-1 0 0 -10.330506509348856 0 0 1 1 0 0 forward_v I I I I #
coedge $-1 $66 $67 $68 $69 forward $26 $-1 #
face $-1 $70 $71 $16 $-1 $72 forward single #
loop $-1 $-1 $73 $28 #
plane-surface $-1 -35.724264675390458 -4.8211002184223331 0 0 -1 0 0 0 -1 forward_v I I I I #
coedge $-1 $74 $75 $76 $77 reversed $29 $-1 #
face $-1 $78 $79 $17 $-1 $80 forward single #
loop $-1 $-1 $81 $31 #
plane-surface $-1 29.028755649761059 -67.640834192945533 71.369861875900625 1 0 0 0 0.54463904215088732 -0.83867056331134215 forward_v I I I I #
coedge $-1 $82 $83 $84 $85 reversed $32 $-1 #
face $-1 $86 $87 $18 $-1 $88 forward single #
loop $-1 $89 $90 $34 #
cone-surface $-1 32.566590000735076 -12.398421384836906 0.49890542082889944 0 0.54463904215088732 -0.83867056331134215 0.75 0 0 1 I I -0.70710678118654757 0.70710678118654757 0.75 forward I I I I #
loop $-1 $-1 $91 $23 #
coedge $-1 $56 $56 $92 $93 reversed $35 $-1 #
face $-1 $94 $95 $19 $-1 $96 reversed single #
loop $-1 $97 $98 $37 #
cone-surface $-1 37.873341527196104 -12.398421384836906 0.49890542082889944 0 0.54463904215088732 -0.83867056331134215 0.75 0 0 1 I I -0.70710678118654757 0.70710678118654757 0.75 forward I I I I #
loop $-1 $-1 $99 $24 #
coedge $-1 $61 $61 $100 $101 reversed $38 $-1 #
face $-1 $102 $103 $15 $-1 $104 reversed single #
loop $-1 $-1 $105 $40 #
plane-surface $-1 0 -22.532547863688549 0 0 1 0 0 0 1 forward_v I I I I #
coedge $-1 $106 $107 $108 $109 forward $41 $-1 #
coedge $-1 $110 $43 $111 $112 forward $26 $-1 #
coedge $-1 $43 $110 $113 $114 forward $26 $-1 #
coedge $-1 $115 $116 $43 $69 reversed $117 $-1 #
edge $-1 $118 -22.532547863688549 $119 22.532547863688549 $68 $120 forward 7 unknown #
face $-1 $121 $122 $16 $-1 $123 forward single #
loop $-1 $-1 $124 $44 #
plane-surface $-1 -30.037353472610803 -6.3765560112985327 0 -1 0 0 0 0 1 forward_v I I I I #
coedge $-1 $125 $126 $127 $128 reversed $45 $-1 #
coedge $-1 $129 $47 $130 $131 reversed $29 $-1 #
coedge $-1 $47 $129 $132 $133 reversed $29 $-1 #
coedge $-1 $134 $135 $47 $77 forward $136 $-1 #
edge $-1 $137 -10.330506509348856 $138 10.330506509348856 $76 $139 forward 7 unknown #
face $-1 $140 $141 $17 $-1 $142 reversed single #
loop $-1 $-1 $143 $48 #
plane-surface $-1 0 0 10.330506509348856 0 0 1 1 0 0 forward_v I I I I #
coedge $-1 $144 $145 $143 $146 reversed $49 $-1 #
coedge $-1 $147 $51 $145 $148 reversed $32 $-1 #
coedge $-1 $51 $147 $149 $150 reversed $32 $-1 #
coedge $-1 $151 $143 $51 $85 forward $79 $-1 #
edge $-1 $152 11.418772767778265 $153 23.801192996187325 $84 $154 forward 7 unknown #
face $-1 $155 $156 $18 $-1 $157 forward single #
loop $-1 $158 $92 $52 #
plane-surface $-1 35.21996576396559 -22.532547863688535 1.9091934736406415 0 -0.54463904215088732 0.83867056331134215 1 0 0 forward_v I I I I #
loop $-1 $-1 $159 $34 #
coedge $-1 $90 $90 $91 $160 forward $53 $-1 #
coedge $-1 $91 $91 $90 $160 reversed $55 $-1 #
coedge $-1 $92 $92 $56 $93 forward $87 $-1 #
edge $-1 $161 -2.1964240291486027e-016 $161 6.2831853071796004 $92 $162 forward 7 unknown #
face $-1 $163 $164 $19 $-1 $165 reversed single #
loop $-1 $166 $167 $57 #
cone-surface $-1 32.566590000735076 -14.427803102207701 3.6238791674035795 0 0.54463904215088732 -0.83867056331134215 1.5 0 0 1 I I 0 1 1.5 forward I I I I #
loop $-1 $-1 $168 $37 #
coedge $-1 $98 $98 $99 $169 forward $58 $-1 #
coedge $-1 $99 $99 $98 $169 reversed $60 $-1 #
coedge $-1 $100 $100 $61 $101 forward $170 $-1 #
edge $-1 $171 -2.1964240291486027e-016 $171 6.2831853071796004 $100 $172 forward 7 unknown #
face $-1 $173 $174 $15 $-1 $175 reversed single #
loop $-1 $-1 $176 $62 #
plane-surface $-1 -41.411175878170113 0 0 1 0 0 0 0 -1 forward_v I I I I #
coedge $-1 $177 $113 $178 $179 forward $63 $-1 #
coedge $-1 $180 $65 $177 $181 forward $41 $-1 #
coedge $-1 $65 $180 $182 $183 forward $41 $-1 #
coedge $-1 $116 $115 $65 $109 reversed $117 $-1 #
edge $-1 $184 -22.532547863688549 $185 22.532547863688549 $108 $186 forward 7 unknown #
coedge $-1 $67 $66 $187 $188 forward $26 $-1 #
coedge $-1 $189 $190 $66 $112 reversed $174 $-1 #
edge $-1 $119 -41.411175878170113 $191 41.411175878170113 $111 $192 forward 7 unknown #
coedge $-1 $105 $193 $67 $114 reversed $63 $-1 #
edge $-1 $194 -41.411175878170113 $118 41.411175878170113 $113 $195 forward 7 unknown #
coedge $-1 $108 $68 $193 $196 forward $117 $-1 #
coedge $-1 $68 $108 $189 $197 reversed $117 $-1 #
loop $-1 $-1 $115 $173 #
vertex $-1 $69 $198 #
vertex $-1 $69 $199 #
straight-curve $-1 41.411175878170113 0 10.330506509348856 0 1 0 I I #
face $-1 $200 $136 $16 $-1 $201 reversed single #
loop $-1 $-1 $202 $70 #
plane-surface $-1 0 0 10.330506509348856 0 0 1 1 0 0 forward_v I I I I #
coedge $-1 $203 $204 $129 $205 reversed $71 $-1 #
coedge $-1 $206 $73 $202 $207 reversed $45 $-1 #
coedge $-1 $73 $206 $208 $209 reversed $45 $-1 #
coedge $-1 $204 $203 $73 $128 forward $71 $-1 #
edge $-1 $210 -10.330506509348856 $211 10.330506509348856 $127 $212 forward 7 unknown #
coedge $-1 $75 $74 $124 $205 forward $29 $-1 #
coedge $-1 $213 $214 $74 $131 forward $122 $-1 #
edge $-1 $215 12.175221134915574 $137 23.549043540474884 $130 $216 forward 7 unknown #
coedge $-1 $217 $218 $75 $133 forward $219 $-1 #
edge $-1 $138 -23.549043540474884 $220 -12.175221134915574 $132 $221 forward 7 unknown #
coedge $-1 $222 $76 $218 $223 reversed $136 $-1 #
coedge $-1 $76 $222 $213 $224 reversed $136 $-1 #
loop $-1 $-1 $76 $121 #
vertex $-1 $224 $225 #
vertex $-1 $77 $226 #
straight-curve $-1 -41.411175878170113 -7.9320118041747323 0 0 0 -1 I I #
face $-1 $227 $228 $17 $-1 $229 forward single #
loop $-1 $-1 $149 $78 #
plane-surface $-1 41.411175878170113 0 0 -1 0 0 0 0 1 forward_v I I I I #
coedge $-1 $84 $230 $81 $146 forward $79 $-1 #
coedge $-1 $145 $81 $231 $232 reversed $49 $-1 #
coedge $-1 $81 $144 $82 $148 forward $49 $-1 #
edge $-1 $233 11.287869232784217 $152 24.255553884230679 $143 $234 forward 7 unknown #
coedge $-1 $83 $82 $235 $236 reversed $32 $-1 #
edge $-1 $237 -1.699746028866204e-014 $152 15.462191256893341 $145 $238 forward 7 unknown #
coedge $-1 $239 $240 $83 $150 forward $141 $-1 #
edge $-1 $153 -6.5334096044358043 $241 8.9287816524575554 $149 $242 forward 7 unknown #
coedge $-1 $243 $84 $240 $244 forward $79 $-1 #
vertex $-1 $85 $245 #
vertex $-1 $244 $246 #
straight-curve $-1 17.609982881982795 -9.564863212242086 10.330506509348856 1 0 0 I I #
face $-1 $247 $248 $18 $-1 $249 forward single #
loop $-1 $-1 $250 $86 #
plane-surface $-1 29.028755649761059 -67.640834192945533 71.369861875900625 1 0 0 0 0.54463904215088732 -0.83867056331134215 forward_v I I I I #
loop $-1 $-1 $251 $52 #
coedge $-1 $159 $159 $-1 $252 forward $89 $-1 #
edge $-1 $253 0 $253 6.2831853071796004 $90 $254 forward 7 unknown #
vertex $-1 $93 $255 #
ellipse-curve $-1 32.566590000735076 -16.048705537965322 6.1198499914947408 0 0.54463904215088732 -0.83867056331134215 1.5 0 0 1 I I #
face $-1 $256 $170 $19 $-1 $257 forward single #
loop $-1 $258 $259 $94 #
cone-surface $-1 32.566590000735076 -12.398421384836906 0.49890542082889944 0 0.54463904215088732 -0.83867056331134215 0.75 0 0 1 I I -0.70710678118654757 0.70710678118654757 0.75 forward I I I I #
loop $-1 $-1 $260 $57 #
coedge $-1 $167 $167 $261 $262 reversed $95 $-1 #
coedge $-1 $168 $168 $-1 $263 forward $97 $-1 #
edge $-1 $264 0 $264 6.2831853071796004 $98 $265 forward 7 unknown #
loop $-1 $266 $100 $163 #
vertex $-1 $101 $267 #
ellipse-curve $-1 37.873341527196104 -16.048705537965322 6.1198499914947408 0 0.54463904215088732 -0.83867056331134215 1.5 0 0 1 I I #
face $-1 $-1 $117 $15 $-1 $268 reversed single #
loop $-1 $-1 $189 $102 #
plane-surface $-1 0 22.532547863688549 0 0 -1 0 0 0 -1 forward_v I I I I #
coedge $-1 $269 $187 $190 $270 forward $103 $-1 #
coedge $-1 $193 $105 $106 $181 reversed $63 $-1 #
coedge $-1 $187 $269 $105 $179 reversed $103 $-1 #
edge $-1 $194 -10.330506509348856 $271 10.330506509348856 $178 $272 forward 7 unknown #
coedge $-1 $107 $106 $269 $273 forward $41 $-1 #
edge $-1 $185 -41.411175878170113 $271 41.411175878170113 $177 $274 forward 7 unknown #
coedge $-1 $190 $189 $107 $183 reversed $174 $-1 #
edge $-1 $275 -41.411175878170113 $184 41.411175878170113 $182 $276 forward 7 unknown #
vertex $-1 $109 $277 #
vertex $-1 $196 $278 #
straight-curve $-1 41.411175878170113 0 -10.330506509348856 0 -1 0 I I #
coedge $-1 $176 $178 $110 $188 reversed $103 $-1 #
edge $-1 $191 -22.532547863688549 $194 22.532547863688549 $187 $279 forward 7 unknown #
coedge $-1 $182 $111 $116 $197 forward $174 $-1 #
coedge $-1 $111 $182 $176 $270 reversed $174 $-1 #
vertex $-1 $112 $280 #
straight-curve $-1 0 22.532547863688549 10.330506509348856 -1 0 0 I I #
coedge $-1 $113 $177 $115 $196 reversed $63 $-1 #
vertex $-1 $188 $281 #
straight-curve $-1 0 -22.532547863688549 10.330506509348856 1 0 0 I I #
edge $-1 $118 -10.330506509348856 $185 10.330506509348856 $115 $282 forward 7 unknown #
edge $-1 $119 -10.330506509348856 $184 10.330506509348856 $116 $283 forward 7 unknown #
point $-1 41.411175878170113 -22.532547863688549 10.330506509348856 #
point $-1 41.411175878170113 22.532547863688549 10.330506509348856 #
face $-1 $284 $219 $16 $-1 $285 reversed single #
plane-surface $-1 -41.411175878170113 0 0 1 0 0 0 0 -1 forward_v I I I I #
coedge $-1 $214 $286 $125 $207 forward $122 $-1 #
coedge $-1 $127 $124 $214 $287 reversed $71 $-1 #
coedge $-1 $124 $127 $217 $288 reversed $71 $-1 #
edge $-1 $215 -10.330506509348856 $220 10.330506509348856 $124 $289 forward 7 unknown #
coedge $-1 $126 $125 $290 $291 reversed $45 $-1 #
edge $-1 $292 -23.549043540474884 $210 -12.175221134915574 $202 $293 forward 7 unknown #
coedge $-1 $294 $217 $126 $209 forward $219 $-1 #
edge $-1 $211 12.175221134915574 $295 23.549043540474884 $208 $296 forward 7 unknown #
vertex $-1 $207 $297 #
vertex $-1 $209 $298 #
straight-curve $-1 -30.037353472610803 -4.8211002184223331 0 0 0 -1 I I #
coedge $-1 $299 $130 $135 $224 forward $122 $-1 #
coedge $-1 $130 $202 $203 $287 forward $122 $-1 #
vertex $-1 $131 $300 #
straight-curve $-1 -17.862132337695229 -7.9320118041747323 10.330506509348856 -1 0 0 I I #
coedge $-1 $208 $132 $204 $288 forward $219 $-1 #
coedge $-1 $132 $301 $134 $223 forward $219 $-1 #
loop $-1 $-1 $208 $200 #
vertex $-1 $133 $302 #
straight-curve $-1 -17.862132337695229 -7.9320118041747323 -10.330506509348856 1 0 0 I I #
coedge $-1 $135 $134 $303 $304 reversed $136 $-1 #
edge $-1 $305 -22.532547863688549 $138 -7.9320118041747323 $134 $306 forward 7 unknown #
edge $-1 $137 7.9320118041747323 $307 22.532547863688549 $135 $308 forward 7 unknown #
point $-1 -41.411175878170113 -7.9320118041747323 10.330506509348856 #
point $-1 -41.411175878170113 -7.9320118041747323 -10.330506509348856 #
face $-1 $309 $310 $17 $-1 $311 forward single #
loop $-1 $-1 $312 $140 #
plane-surface $-1 -35.724264675390458 -7.9320118041747323 0 0 1 0 0 0 1 forward_v I I I I #
coedge $-1 $143 $313 $314 $315 forward $79 $-1 #
coedge $-1 $314 $235 $144 $232 forward $316 $-1 #
edge $-1 $237 -33.775737464309678 $233 -25.354424428601455 $231 $317 forward 7 unknown #
vertex $-1 $232 $318 #
straight-curve $-1 29.028755649761059 -33.820417096472767 10.330506509348858 0 1 0 I I #
coedge $-1 $231 $319 $147 $236 forward $316 $-1 #
edge $-1 $241 -23.801192996187325 $237 -11.418772767778265 $235 $320 forward 7 unknown #
vertex $-1 $236 $321 #
straight-curve $-1 29.028755649761059 -22.532547863688535 1.9091934736406415 0 0.83867056331134215 0.54463904215088732 I I #
coedge $-1 $322 $149 $319 $323 forward $141 $-1 #
coedge $-1 $149 $324 $151 $244 reversed $141 $-1 #
vertex $-1 $323 $325 #
straight-curve $-1 41.411175878170113 -15.044241525537995 6.7721565604095328 0 -0.83867056331134215 -0.54463904215088732 I I #
coedge $-1 $326 $151 $327 $328 forward $79 $-1 #
edge $-1 $153 -9.564863212242086 $329 22.532547863688549 $240 $330 forward 7 unknown #
point $-1 29.028755649761059 -9.564863212242086 10.330506509348856 #
point $-1 41.41117587817012 -9.564863212242086 10.330506509348856 #
face $-1 $331 $332 $18 $-1 $333 reversed single #
loop $-1 $-1 $334 $155 #
plane-surface $-1 0 0 10.330506509348856 0 0 1 1 0 0 forward_v I I I I #
coedge $-1 $335 $336 $334 $337 reversed $156 $-1 #
coedge $-1 $338 $339 $340 $341 reversed $158 $-1 #
edge $-1 $342 1 $342 0 $159 $-1 forward 7 unknown #
vertex $-1 $160 $343 #
ellipse-curve $-1 32.566590000735076 -12.806900666450073 1.1279083433124062 0 -0.54463904215088732 0.83867056331134215 1.5 0 0 1 I I #
point $-1 34.066590000735076 -16.048705537965329 6.1198499914947524 #
face $-1 $344 $345 $19 $-1 $346 forward single #
plane-surface $-1 35.21996576396559 -22.532547863688535 1.9091934736406415 0 -0.54463904215088732 0.83867056331134215 1 0 0 forward_v I I I I #
loop $-1 $-1 $347 $94 #
coedge $-1 $259 $259 $260 $348 forward $164 $-1 #
coedge $-1 $260 $260 $259 $348 reversed $166 $-1 #
coedge $-1 $261 $261 $167 $262 forward $266 $-1 #
edge $-1 $349 -2.1964240291486027e-016 $349 6.2831853071796004 $261 $350 forward 7 unknown #
edge $-1 $351 1 $351 0 $168 $-1 forward 7 unknown #
vertex $-1 $169 $352 #
ellipse-curve $-1 37.873341527196104 -12.806900666450073 1.1279083433124062 0 -0.54463904215088732 0.83867056331134215 1.5 0 0 1 I I #
loop $-1 $353 $261 $163 #
point $-1 39.373341527196104 -16.048705537965329 6.1198499914947524 #
plane-surface $-1 41.411175878170113 0 0 -1 0 0 0 0 1 forward_v I I I I #
coedge $-1 $178 $176 $180 $273 reversed $103 $-1 #
edge $-1 $191 -10.330506509348856 $275 10.330506509348856 $190 $354 forward 7 unknown #
vertex $-1 $273 $355 #
straight-curve $-1 -41.411175878170113 -22.532547863688549 0 0 0 -1 I I #
edge $-1 $271 -22.532547863688549 $275 22.532547863688549 $269 $356 forward 7 unknown #
straight-curve $-1 0 -22.532547863688549 -10.330506509348856 -1 0 0 I I #
vertex $-1 $183 $357 #
straight-curve $-1 0 22.532547863688549 -10.330506509348856 1 0 0 I I #
point $-1 41.411175878170113 22.532547863688549 -10.330506509348856 #
point $-1 41.411175878170113 -22.532547863688549 -10.330506509348856 #
straight-curve $-1 -41.411175878170113 0 10.330506509348856 0 -1 0 I I #
point $-1 -41.411175878170113 22.532547863688549 10.330506509348856 #
point $-1 -41.411175878170113 -22.532547863688549 10.330506509348856 #
straight-curve $-1 41.411175878170113 -22.532547863688549 0 0 0 -1 I I #
straight-curve $-1 41.411175878170113 22.532547863688549 0 0 0 -1 I I #
face $-1 $358 $359 $16 $-1 $360 reversed single #
plane-surface $-1 0 0 -10.330506509348856 0 0 1 1 0 0 forward_v I I I I #
coedge $-1 $202 $361 $362 $363 forward $122 $-1 #
edge $-1 $210 1.6328222127730667 $215 4.743733798525466 $214 $364 forward 7 unknown #
edge $-1 $220 -4.743733798525466 $211 -1.6328222127730667 $217 $365 forward 7 unknown #
straight-curve $-1 -30.037353472610803 -7.9320118041747323 0 0 0 -1 I I #
coedge $-1 $362 $366 $206 $291 forward $367 $-1 #
edge $-1 $295 -10.330506509348856 $292 10.330506509348856 $290 $368 forward 7 unknown #
vertex $-1 $291 $369 #
straight-curve $-1 -17.862132337695229 -4.8211002184223331 10.330506509348856 1 0 0 I I #
coedge $-1 $370 $208 $366 $371 forward $219 $-1 #
vertex $-1 $371 $372 #
straight-curve $-1 -17.862132337695229 -4.8211002184223331 -10.330506509348856 -1 0 0 I I #
point $-1 -30.037353472610803 -4.8211002184223331 10.330506509348856 #
point $-1 -30.037353472610803 -4.8211002184223331 -10.330506509348856 #
coedge $-1 $373 $213 $374 $375 forward $122 $-1 #
point $-1 -30.037353472610803 -7.9320118041747323 10.330506509348856 #
coedge $-1 $218 $376 $377 $378 forward $219 $-1 #
point $-1 -30.037353472610803 -7.9320118041747323 -10.330506509348856 #
coedge $-1 $377 $374 $222 $304 forward $359 $-1 #
edge $-1 $307 -10.330506509348856 $305 10.330506509348856 $222 $379 forward 7 unknown #
vertex $-1 $223 $380 #
straight-curve $-1 -41.411175878170113 0 -10.330506509348856 0 1 0 I I #
vertex $-1 $224 $381 #
straight-curve $-1 -41.411175878170113 0 10.330506509348856 0 -1 0 I I #
face $-1 $382 $383 $17 $-1 $384 forward single #
loop $-1 $-1 $385 $227 #
plane-surface $-1 -35.724264675390458 -4.8211002184223331 0 0 -1 0 0 0 -1 forward_v I I I I #
coedge $-1 $386 $387 $388 $389 reversed $228 $-1 #
coedge $-1 $230 $390 $391 $392 forward $79 $-1 #
coedge $-1 $393 $231 $230 $315 reversed $316 $-1 #
edge $-1 $394 -41.411175878170113 $233 29.028755649761059 $314 $395 forward 7 unknown #
loop $-1 $-1 $231 $396 #
straight-curve $-1 29.028755649761059 -22.532547863688549 35.684930937950313 0 0 1 I I #
point $-1 29.028755649761059 -22.532547863688549 10.330506509348856 #
coedge $-1 $235 $397 $239 $323 reversed $316 $-1 #
straight-curve $-1 17.609982881982795 -22.532547863688549 1.9091934736406326 -1 0 0 I I #
point $-1 29.028755649761059 -22.532547863688549 1.9091934736406322 #
coedge $-1 $324 $239 $398 $399 reversed $141 $-1 #
edge $-1 $241 -1.9091934736406322 $400 10.330506509348856 $239 $401 forward 7 unknown #
coedge $-1 $240 $322 $402 $403 reversed $141 $-1 #
point $-1 41.41117587817012 -22.532547863688549 1.9091934736406322 #
coedge $-1 $404 $243 $405 $406 forward $79 $-1 #
coedge $-1 $402 $407 $243 $328 reversed $408 $-1 #
edge $-1 $329 -41.411175878170113 $409 41.411175878170113 $327 $410 forward 7 unknown #
vertex $-1 $244 $411 #
straight-curve $-1 41.411175878170113 0 10.330506509348856 0 1 0 I I #
face $-1 $412 $413 $18 $-1 $414 forward single #
loop $-1 $-1 $415 $247 #
plane-surface $-1 41.411175878170113 0 0 -1 0 0 0 0 1 forward_v I I I I #
coedge $-1 $340 $416 $250 $337 forward $248 $-1 #
coedge $-1 $336 $250 $417 $418 reversed $156 $-1 #
coedge $-1 $250 $335 $338 $419 forward $156 $-1 #
edge $-1 $420 11.287869232784217 $421 24.255553884230679 $334 $422 forward 7 unknown #
coedge $-1 $423 $251 $336 $419 reversed $158 $-1 #
coedge $-1 $251 $423 $415 $424 reversed $158 $-1 #
coedge $-1 $425 $334 $251 $341 forward $248 $-1 #
edge $-1 $421 11.418772767778265 $426 23.801192996187325 $340 $427 forward 7 unknown #
vertex $-1 $252 $428 #
point $-1 34.066590000735076 -12.806900666450073 1.1279083433124062 #
face $-1 $429 $430 $19 $-1 $431 forward single #
loop $-1 $-1 $432 $256 #
plane-surface $-1 29.028755649761059 -67.640834192945533 71.369861875900625 1 0 0 0 0.54463904215088732 -0.83867056331134215 forward_v I I I I #
coedge $-1 $347 $347 $-1 $433 forward $258 $-1 #
edge $-1 $434 0 $434 6.2831853071796004 $259 $435 forward 7 unknown #
vertex $-1 $262 $436 #
ellipse-curve $-1 32.566590000735076 -16.048705537965322 6.1198499914947408 0 0.54463904215088732 -0.83867056331134215 1.5 0 0 1 I I #
vertex $-1 $263 $437 #
point $-1 39.373341527196104 -12.806900666450073 1.1279083433124062 #
loop $-1 $-1 $438 $163 #
straight-curve $-1 -41.411175878170113 22.532547863688549 0 0 0 -1 I I #
point $-1 -41.411175878170113 -22.532547863688549 -10.330506509348856 #
straight-curve $-1 -41.411175878170113 0 -10.330506509348856 0 1 0 I I #
point $-1 -41.411175878170113 22.532547863688549 -10.330506509348856 #
face $-1 $439 $367 $16 $-1 $201 reversed single #
loop $-1 $-1 $303 $284 #
plane-surface $-1 0 -22.532547863688549 0 0 1 0 0 0 1 forward_v I I I I #
coedge $-1 $286 $373 $440 $441 forward $122 $-1 #
coedge $-1 $442 $290 $286 $363 reversed $367 $-1 #
edge $-1 $443 -22.532547863688549 $292 4.8211002184223331 $362 $308 forward 7 unknown #
straight-curve $-1 -30.037353472610803 -3.1882780056492663 10.330506509348856 0 -1 0 I I #
straight-curve $-1 -30.037353472610803 -3.1882780056492663 -10.330506509348856 0 1 0 I I #
coedge $-1 $290 $442 $294 $371 reversed $367 $-1 #
loop $-1 $-1 $290 $358 #
straight-curve $-1 -41.411175878170113 -4.8211002184223331 0 0 0 1 I I #
point $-1 -41.411175878170113 -4.8211002184223331 10.330506509348856 #
coedge $-1 $376 $294 $444 $445 forward $219 $-1 #
edge $-1 $295 -4.8211002184223331 $446 22.532547863688549 $366 $306 forward 7 unknown #
point $-1 -41.411175878170113 -4.8211002184223331 -10.330506509348856 #
coedge $-1 $361 $299 $447 $448 forward $122 $-1 #
coedge $-1 $303 $449 $299 $375 reversed $359 $-1 #
edge $-1 $307 -41.411175878170113 $450 41.411175878170113 $374 $451 forward 7 unknown #
coedge $-1 $301 $370 $452 $453 forward $219 $-1 #
coedge $-1 $449 $303 $301 $378 reversed $359 $-1 #
edge $-1 $454 -41.411175878170113 $305 41.411175878170113 $377 $455 forward 7 unknown #
straight-curve $-1 -41.411175878170113 -22.532547863688549 0 0 0 -1 I I #
point $-1 -41.411175878170113 -22.532547863688549 -10.330506509348856 #
point $-1 -41.411175878170113 -22.532547863688549 10.330506509348856 #
face $-1 $456 $457 $17 $-1 $458 reversed single #
loop $-1 $-1 $459 $309 #
plane-surface $-1 -30.037353472610803 -6.3765560112985327 0 -1 0 0 0 0 1 forward_v I I I I #
coedge $-1 $460 $461 $462 $463 reversed $310 $-1 #
coedge $-1 $464 $312 $390 $465 reversed $228 $-1 #
coedge $-1 $312 $464 $466 $467 reversed $228 $-1 #
coedge $-1 $468 $391 $312 $389 forward $457 $-1 #
edge $-1 $469 -10.330506509348856 $470 10.330506509348856 $388 $471 forward 7 unknown #
coedge $-1 $313 $472 $386 $465 forward $79 $-1 #
coedge $-1 $388 $473 $313 $392 reversed $457 $-1 #
edge $-1 $469 7.9320118041747323 $394 22.532547863688549 $391 $474 forward 7 unknown #
coedge $-1 $397 $314 $473 $475 forward $316 $-1 #
vertex $-1 $392 $476 #
straight-curve $-1 0 -22.532547863688549 10.330506509348856 1 0 0 I I #
face $-1 $477 $316 $17 $-1 $478 reversed single #
coedge $-1 $319 $393 $479 $480 reversed $316 $-1 #
coedge $-1 $479 $481 $322 $399 forward $482 $-1 #
edge $-1 $483 -22.532547863688549 $400 22.532547863688549 $322 $484 forward 7 unknown #
vertex $-1 $323 $485 #
straight-curve $-1 41.411175878170113 -22.532547863688549 0 0 0 -1 I I #
coedge $-1 $486 $327 $324 $403 forward $408 $-1 #
edge $-1 $329 -10.330506509348856 $483 10.330506509348856 $324 $487 forward 7 unknown #
coedge $-1 $472 $326 $460 $488 forward $79 $-1 #
coedge $-1 $489 $490 $326 $406 reversed $491 $-1 #
edge $-1 $409 -22.532547863688549 $492 4.8211002184223331 $405 $474 forward 7 unknown #
coedge $-1 $327 $486 $489 $493 reversed $408 $-1 #
loop $-1 $-1 $402 $494 #
vertex $-1 $328 $495 #
straight-curve $-1 0 22.532547863688549 10.330506509348856 -1 0 0 I I #
point $-1 41.411175878170113 22.532547863688549 10.330506509348856 #
face $-1 $496 $497 $18 $-1 $498 forward single #
loop $-1 $-1 $499 $331 #
plane-surface $-1 -35.724264675390458 -7.9320118041747323 0 0 1 0 0 0 1 forward_v I I I I #
coedge $-1 $500 $501 $339 $424 forward $332 $-1 #
coedge $-1 $334 $502 $503 $504 forward $248 $-1 #
coedge $-1 $503 $505 $335 $418 forward $506 $-1 #
edge $-1 $507 -33.775737464309678 $420 -25.354424428601455 $417 $508 forward 7 unknown #
edge $-1 $507 -1.699746028866204e-014 $421 15.462191256893341 $336 $509 forward 7 unknown #
vertex $-1 $418 $510 #
vertex $-1 $341 $511 #
straight-curve $-1 29.028755649761059 -33.820417096472767 10.330506509348858 0 1 0 I I #
coedge $-1 $339 $338 $505 $512 reversed $158 $-1 #
edge $-1 $426 -6.5334096044358043 $513 8.9287816524575554 $415 $514 forward 7 unknown #
coedge $-1 $515 $340 $501 $516 forward $248 $-1 #
vertex $-1 $516 $517 #
straight-curve $-1 17.609982881982795 -9.564863212242086 10.330506509348856 1 0 0 I I #
point $-1 32.566590000735076 -11.98994210322374 -0.13009750165460721 #
face $-1 $518 $519 $19 $-1 $520 reversed single #
loop $-1 $-1 $521 $344 #
plane-surface $-1 0 0 10.330506509348856 0 0 1 1 0 0 forward_v I I I I #
coedge $-1 $522 $523 $521 $524 reversed $345 $-1 #
edge $-1 $525 1 $525 0 $347 $-1 forward 7 unknown #
vertex $-1 $348 $526 #
ellipse-curve $-1 32.566590000735076 -12.806900666450073 1.1279083433124062 0 -0.54463904215088732 0.83867056331134215 1.5 0 0 1 I I #
point $-1 34.066590000735076 -16.048705537965329 6.1198499914947524 #
point $-1 37.873341527196104 -11.98994210322374 -0.13009750165460721 #
coedge $-1 $527 $528 $529 $530 reversed $353 $-1 #
face $-1 $531 $532 $16 $-1 $533 reversed single #
coedge $-1 $534 $535 $361 $441 reversed $532 $-1 #
edge $-1 $536 -41.411175878170113 $443 41.411175878170113 $440 $537 forward 7 unknown #
coedge $-1 $366 $362 $535 $538 forward $367 $-1 #
vertex $-1 $441 $539 #
coedge $-1 $535 $534 $370 $445 reversed $532 $-1 #
edge $-1 $446 -41.411175878170113 $540 41.411175878170113 $444 $541 forward 7 unknown #
vertex $-1 $445 $542 #
coedge $-1 $543 $544 $373 $448 reversed $545 $-1 #
edge $-1 $450 -22.532547863688549 $536 22.532547863688549 $447 $546 forward 7 unknown #
coedge $-1 $374 $377 $543 $547 reversed $359 $-1 #
vertex $-1 $448 $548 #
straight-curve $-1 0 -22.532547863688549 10.330506509348856 1 0 0 I I #
coedge $-1 $544 $543 $376 $453 reversed $545 $-1 #
edge $-1 $540 -22.532547863688549 $454 22.532547863688549 $452 $549 forward 7 unknown #
vertex $-1 $547 $550 #
straight-curve $-1 0 -22.532547863688549 -10.330506509348856 -1 0 0 I I #
face $-1 $396 $482 $17 $-1 $551 reversed single #
loop $-1 $-1 $388 $382 #
plane-surface $-1 -41.411175878170113 0 0 1 0 0 0 0 -1 forward_v I I I I #
coedge $-1 $552 $553 $464 $554 reversed $383 $-1 #
coedge $-1 $555 $385 $404 $488 reversed $310 $-1 #
coedge $-1 $385 $555 $556 $557 reversed $310 $-1 #
coedge $-1 $553 $552 $385 $463 forward $383 $-1 #
edge $-1 $558 -10.330506509348856 $559 10.330506509348856 $462 $560 forward 7 unknown #
coedge $-1 $387 $386 $459 $554 forward $228 $-1 #
edge $-1 $561 12.175221134915574 $469 23.549043540474884 $390 $562 forward 7 unknown #
coedge $-1 $563 $564 $387 $467 forward $482 $-1 #
edge $-1 $470 -23.549043540474884 $565 -12.175221134915574 $466 $566 forward 7 unknown #
coedge $-1 $473 $388 $564 $567 reversed $457 $-1 #
vertex $-1 $392 $568 #
vertex $-1 $389 $569 #
straight-curve $-1 -41.411175878170113 -7.9320118041747323 0 0 0 -1 I I #
coedge $-1 $390 $404 $552 $570 forward $79 $-1 #
coedge $-1 $391 $468 $393 $475 reversed $457 $-1 #
straight-curve $-1 -41.411175878170113 0 10.330506509348856 0 -1 0 I I #
edge $-1 $394 -10.330506509348856 $571 10.330506509348856 $473 $572 forward 7 unknown #
point $-1 -41.411175878170113 -22.532547863688549 10.330506509348856 #
face $-1 $494 $491 $17 $-1 $458 reversed single #
plane-surface $-1 0 -22.532547863688549 0 0 1 0 0 0 1 forward_v I I I I #
coedge $-1 $564 $398 $397 $480 forward $482 $-1 #
edge $-1 $400 -41.411175878170113 $571 41.411175878170113 $397 $573 forward 7 unknown #
coedge $-1 $398 $574 $486 $575 forward $482 $-1 #
loop $-1 $-1 $556 $456 #
vertex $-1 $399 $576 #
straight-curve $-1 41.411175878170113 0 -10.330506509348856 0 -1 0 I I #
point $-1 41.411175878170113 -22.532547863688549 -10.330506509348856 #
coedge $-1 $407 $402 $481 $575 reversed $408 $-1 #
straight-curve $-1 41.411175878170113 22.532547863688549 0 0 0 -1 I I #
edge $-1 $492 -23.549043540474884 $558 -12.175221134915574 $404 $577 forward 7 unknown #
coedge $-1 $578 $405 $407 $493 forward $491 $-1 #
coedge $-1 $405 $578 $555 $579 forward $491 $-1 #
loop $-1 $-1 $490 $477 #
vertex $-1 $579 $580 #
edge $-1 $409 -10.330506509348856 $581 10.330506509348856 $407 $582 forward 7 unknown #
face $-1 $-1 $408 $17 $-1 $583 reversed single #
point $-1 -41.411175878170113 22.532547863688549 10.330506509348856 #
face $-1 $584 $585 $18 $-1 $586 forward single #
loop $-1 $-1 $587 $412 #
plane-surface $-1 -35.724264675390458 -4.8211002184223331 0 0 -1 0 0 0 -1 forward_v I I I I #
coedge $-1 $588 $589 $590 $591 reversed $413 $-1 #
coedge $-1 $592 $415 $593 $594 forward $332 $-1 #
coedge $-1 $415 $595 $425 $516 reversed $332 $-1 #
coedge $-1 $416 $596 $597 $598 forward $248 $-1 #
coedge $-1 $599 $417 $416 $504 reversed $506 $-1 #
edge $-1 $600 -41.411175878170113 $420 29.028755649761059 $503 $601 forward 7 unknown #
coedge $-1 $417 $593 $423 $512 forward $506 $-1 #
loop $-1 $-1 $417 $602 #
vertex $-1 $512 $603 #
straight-curve $-1 29.028755649761059 -22.532547863688549 35.684930937950313 0 0 1 I I #
straight-curve $-1 29.028755649761059 -22.532547863688535 1.9091934736406415 0 0.83867056331134215 0.54463904215088732 I I #
point $-1 29.028755649761059 -22.532547863688549 10.330506509348856 #
point $-1 29.028755649761059 -9.564863212242086 10.330506509348856 #
edge $-1 $513 -23.801192996187325 $507 -11.418772767778265 $505 $604 forward 7 unknown #
vertex $-1 $594 $605 #
straight-curve $-1 41.411175878170113 -15.044241525537995 6.7721565604095328 0 -0.83867056331134215 -0.54463904215088732 I I #
coedge $-1 $606 $425 $607 $608 forward $248 $-1 #
edge $-1 $426 -9.564863212242086 $609 22.532547863688549 $501 $610 forward 7 unknown #
point $-1 41.41117587817012 -9.564863212242086 10.330506509348856 #
face $-1 $611 $612 $19 $-1 $613 forward single #
loop $-1 $-1 $614 $429 #
plane-surface $-1 41.411175878170113 0 0 -1 0 0 0 0 1 forward_v I I I I #
coedge $-1 $529 $615 $432 $524 forward $430 $-1 #
coedge $-1 $523 $432 $616 $617 reversed $345 $-1 #
coedge $-1 $432 $522 $527 $618 forward $345 $-1 #
edge $-1 $619 11.287869232784217 $620 24.255553884230679 $521 $621 forward 7 unknown #
vertex $-1 $433 $622 #
point $-1 34.066590000735076 -12.806900666450073 1.1279083433124062 #
coedge $-1 $623 $438 $523 $618 reversed $353 $-1 #
coedge $-1 $438 $623 $614 $624 reversed $353 $-1 #
coedge $-1 $625 $521 $438 $530 forward $430 $-1 #
edge $-1 $620 11.418772767778265 $626 23.801192996187325 $529 $627 forward 7 unknown #
face $-1 $-1 $545 $16 $-1 $628 reversed single #
loop $-1 $-1 $534 $439 #
plane-surface $-1 0 22.532547863688549 0 0 -1 0 0 0 -1 forward_v I I I I #
coedge $-1 $444 $440 $544 $629 forward $532 $-1 #
coedge $-1 $440 $444 $442 $538 reversed $532 $-1 #
vertex $-1 $448 $630 #
straight-curve $-1 0 22.532547863688549 10.330506509348856 -1 0 0 I I #
edge $-1 $443 -10.330506509348856 $446 10.330506509348856 $535 $631 forward 7 unknown #
point $-1 -41.411175878170113 22.532547863688549 10.330506509348856 #
vertex $-1 $453 $632 #
straight-curve $-1 0 22.532547863688549 -10.330506509348856 1 0 0 I I #
point $-1 -41.411175878170113 22.532547863688549 -10.330506509348856 #
coedge $-1 $452 $447 $449 $547 forward $545 $-1 #
coedge $-1 $447 $452 $534 $629 reversed $545 $-1 #
loop $-1 $-1 $543 $531 #
straight-curve $-1 41.411175878170113 0 10.330506509348856 0 1 0 I I #
edge $-1 $450 -10.330506509348856 $454 10.330506509348856 $543 $633 forward 7 unknown #
point $-1 41.411175878170113 -22.532547863688549 10.330506509348856 #
straight-curve $-1 41.411175878170113 0 -10.330506509348856 0 -1 0 I I #
point $-1 41.411175878170113 -22.532547863688549 -10.330506509348856 #
plane-surface $-1 0 0 -10.330506509348856 0 0 1 1 0 0 forward_v I I I I #
coedge $-1 $462 $459 $472 $570 reversed $383 $-1 #
coedge $-1 $459 $462 $563 $634 reversed $383 $-1 #
edge $-1 $561 -10.330506509348856 $565 10.330506509348856 $459 $635 forward 7 unknown #
coedge $-1 $461 $460 $490 $579 reversed $310 $-1 #
coedge $-1 $574 $563 $461 $557 forward $482 $-1 #
edge $-1 $559 12.175221134915574 $636 23.549043540474884 $556 $637 forward 7 unknown #
vertex $-1 $488 $638 #
vertex $-1 $557 $639 #
straight-curve $-1 -30.037353472610803 -4.8211002184223331 0 0 0 -1 I I #
vertex $-1 $465 $640 #
straight-curve $-1 -17.862132337695229 -7.9320118041747323 10.330506509348856 -1 0 0 I I #
coedge $-1 $556 $466 $553 $634 forward $482 $-1 #
coedge $-1 $466 $479 $468 $567 forward $482 $-1 #
vertex $-1 $467 $641 #
straight-curve $-1 -17.862132337695229 -7.9320118041747323 -10.330506509348856 1 0 0 I I #
edge $-1 $571 -22.532547863688549 $470 -7.9320118041747323 $468 $642 forward 7 unknown #
point $-1 -41.411175878170113 -7.9320118041747323 10.330506509348856 #
point $-1 -41.411175878170113 -7.9320118041747323 -10.330506509348856 #
edge $-1 $558 1.6328222127730667 $561 4.743733798525466 $472 $643 forward 7 unknown #
vertex $-1 $567 $644 #
straight-curve $-1 -41.411175878170113 -22.532547863688549 0 0 0 -1 I I #
straight-curve $-1 0 -22.532547863688549 -10.330506509348856 -1 0 0 I I #
coedge $-1 $481 $556 $578 $645 forward $482 $-1 #
edge $-1 $581 -41.411175878170113 $483 41.411175878170113 $486 $646 forward 7 unknown #
point $-1 41.411175878170113 22.532547863688549 -10.330506509348856 #
straight-curve $-1 -17.862132337695229 -4.8211002184223331 10.330506509348856 1 0 0 I I #
coedge $-1 $490 $489 $574 $645 reversed $491 $-1 #
edge $-1 $636 -10.330506509348856 $492 10.330506509348856 $490 $647 forward 7 unknown #
point $-1 -41.411175878170113 -4.8211002184223331 10.330506509348856 #
vertex $-1 $575 $648 #
straight-curve $-1 -41.411175878170113 22.532547863688549 0 0 0 -1 I I #
plane-surface $-1 0 22.532547863688549 0 0 -1 0 0 0 -1 forward_v I I I I #
face $-1 $649 $650 $18 $-1 $651 reversed single #
loop $-1 $-1 $652 $496 #
plane-surface $-1 -30.037353472610803 -6.3765560112985327 0 -1 0 0 0 0 1 forward_v I I I I #
coedge $-1 $653 $654 $655 $656 reversed $497 $-1 #
coedge $-1 $657 $499 $596 $658 reversed $413 $-1 #
coedge $-1 $499 $657 $659 $660 reversed $413 $-1 #
coedge $-1 $661 $597 $499 $591 forward $650 $-1 #
edge $-1 $662 -10.330506509348856 $663 10.330506509348856 $590 $664 forward 7 unknown #
coedge $-1 $595 $500 $665 $666 reversed $332 $-1 #
coedge $-1 $505 $667 $500 $594 reversed $506 $-1 #
edge $-1 $513 -1.9091934736406322 $668 10.330506509348856 $500 $669 forward 7 unknown #
coedge $-1 $501 $592 $670 $671 reversed $332 $-1 #
coedge $-1 $502 $672 $588 $658 forward $248 $-1 #
coedge $-1 $590 $673 $502 $598 reversed $650 $-1 #
edge $-1 $662 7.9320118041747323 $600 22.532547863688549 $597 $674 forward 7 unknown #
coedge $-1 $667 $503 $673 $675 forward $506 $-1 #
vertex $-1 $598 $676 #
straight-curve $-1 0 -22.532547863688549 10.330506509348856 1 0 0 I I #
face $-1 $677 $506 $18 $-1 $678 reversed single #
point $-1 29.028755649761059 -22.532547863688549 1.9091934736406322 #
straight-curve $-1 17.609982881982795 -22.532547863688549 1.9091934736406326 -1 0 0 I I #
point $-1 41.41117587817012 -22.532547863688549 1.9091934736406322 #
coedge $-1 $679 $515 $680 $681 forward $248 $-1 #
coedge $-1 $670 $682 $515 $608 reversed $683 $-1 #
edge $-1 $609 -41.411175878170113 $684 41.411175878170113 $607 $685 forward 7 unknown #
vertex $-1 $516 $686 #
straight-curve $-1 41.411175878170113 0 10.330506509348856 0 1 0 I I #
face $-1 $687 $688 $19 $-1 $689 forward single #
loop $-1 $-1 $690 $518 #
plane-surface $-1 -35.724264675390458 -7.9320118041747323 0 0 1 0 0 0 1 forward_v I I I I #
coedge $-1 $691 $692 $528 $624 forward $519 $-1 #
coedge $-1 $521 $693 $694 $695 forward $430 $-1 #
coedge $-1 $694 $696 $522 $617 forward $697 $-1 #
edge $-1 $698 -33.775737464309678 $619 -25.354424428601455 $616 $699 forward 7 unknown #
edge $-1 $698 -1.699746028866204e-014 $620 15.462191256893341 $523 $700 forward 7 unknown #
vertex $-1 $617 $701 #
vertex $-1 $530 $702 #
straight-curve $-1 29.028755649761059 -33.820417096472767 10.330506509348858 0 1 0 I I #
point $-1 32.566590000735076 -11.98994210322374 -0.13009750165460721 #
coedge $-1 $528 $527 $696 $703 reversed $353 $-1 #
edge $-1 $626 -6.5334096044358043 $704 8.9287816524575554 $614 $705 forward 7 unknown #
coedge $-1 $706 $529 $692 $707 forward $430 $-1 #
vertex $-1 $707 $708 #
straight-curve $-1 17.609982881982795 -9.564863212242086 10.330506509348856 1 0 0 I I #
plane-surface $-1 41.411175878170113 0 0 -1 0 0 0 0 1 forward_v I I I I #
edge $-1 $536 -10.330506509348856 $540 10.330506509348856 $544 $709 forward 7 unknown #
point $-1 41.411175878170113 22.532547863688549 10.330506509348856 #
straight-curve $-1 -41.411175878170113 22.532547863688549 0 0 0 -1 I I #
point $-1 41.411175878170113 22.532547863688549 -10.330506509348856 #
straight-curve $-1 41.411175878170113 -22.532547863688549 0 0 0 -1 I I #
edge $-1 $565 -4.743733798525466 $559 -1.6328222127730667 $563 $710 forward 7 unknown #
straight-curve $-1 -30.037353472610803 -7.9320118041747323 0 0 0 -1 I I #
vertex $-1 $645 $711 #
straight-curve $-1 -17.862132337695229 -4.8211002184223331 -10.330506509348856 -1 0 0 I I #
point $-1 -30.037353472610803 -4.8211002184223331 10.330506509348856 #
point $-1 -30.037353472610803 -4.8211002184223331 -10.330506509348856 #
point $-1 -30.037353472610803 -7.9320118041747323 10.330506509348856 #
point $-1 -30.037353472610803 -7.9320118041747323 -10.330506509348856 #
straight-curve $-1 -41.411175878170113 0 -10.330506509348856 0 1 0 I I #
straight-curve $-1 -30.037353472610803 -3.1882780056492663 10.330506509348856 0 -1 0 I I #
point $-1 -41.411175878170113 -22.532547863688549 -10.330506509348856 #
edge $-1 $636 -4.8211002184223331 $581 22.532547863688549 $578 $642 forward 7 unknown #
straight-curve $-1 0 22.532547863688549 -10.330506509348856 1 0 0 I I #
straight-curve $-1 -41.411175878170113 -4.8211002184223331 0 0 0 1 I I #
point $-1 -41.411175878170113 22.532547863688549 -10.330506509348856 #
face $-1 $602 $712 $18 $-1 $713 reversed single #
loop $-1 $-1 $590 $584 #
plane-surface $-1 -41.411175878170113 0 0 1 0 0 0 0 -1 forward_v I I I I #
coedge $-1 $714 $715 $657 $716 reversed $585 $-1 #
coedge $-1 $717 $587 $679 $718 reversed $497 $-1 #
coedge $-1 $587 $717 $719 $720 reversed $497 $-1 #
coedge $-1 $715 $714 $587 $656 forward $585 $-1 #
edge $-1 $721 -10.330506509348856 $722 10.330506509348856 $655 $723 forward 7 unknown #
coedge $-1 $589 $588 $652 $716 forward $413 $-1 #
edge $-1 $724 12.175221134915574 $662 23.549043540474884 $596 $725 forward 7 unknown #
coedge $-1 $726 $727 $589 $660 forward $712 $-1 #
edge $-1 $663 -23.549043540474884 $728 -12.175221134915574 $659 $729 forward 7 unknown #
coedge $-1 $673 $590 $727 $730 reversed $650 $-1 #
vertex $-1 $598 $731 #
vertex $-1 $591 $732 #
straight-curve $-1 -41.411175878170113 -7.9320118041747323 0 0 0 -1 I I #
coedge $-1 $733 $734 $592 $666 forward $712 $-1 #
edge $-1 $735 -22.532547863688549 $668 22.532547863688549 $592 $736 forward 7 unknown #
coedge $-1 $593 $599 $733 $737 reversed $506 $-1 #
vertex $-1 $594 $738 #
straight-curve $-1 41.411175878170113 -22.532547863688549 0 0 0 -1 I I #
coedge $-1 $739 $607 $595 $671 forward $683 $-1 #
edge $-1 $609 -10.330506509348856 $735 10.330506509348856 $595 $740 forward 7 unknown #
coedge $-1 $596 $679 $714 $741 forward $248 $-1 #
coedge $-1 $597 $661 $599 $675 reversed $650 $-1 #
straight-curve $-1 -41.411175878170113 0 10.330506509348856 0 -1 0 I I #
edge $-1 $600 -10.330506509348856 $742 10.330506509348856 $673 $743 forward 7 unknown #
point $-1 -41.411175878170113 -22.532547863688549 10.330506509348856 #
face $-1 $744 $745 $18 $-1 $651 reversed single #
plane-surface $-1 0 -22.532547863688549 0 0 1 0 0 0 1 forward_v I I I I #
coedge $-1 $672 $606 $653 $718 forward $248 $-1 #
coedge $-1 $746 $747 $606 $681 reversed $745 $-1 #
edge $-1 $684 -22.532547863688549 $748 4.8211002184223331 $680 $674 forward 7 unknown #
coedge $-1 $607 $739 $746 $749 reversed $683 $-1 #
loop $-1 $-1 $670 $744 #
vertex $-1 $608 $750 #
straight-curve $-1 0 22.532547863688549 10.330506509348856 -1 0 0 I I #
point $-1 41.411175878170113 22.532547863688549 10.330506509348856 #
face $-1 $751 $752 $19 $-1 $753 forward single #
loop $-1 $-1 $754 $611 #
plane-surface $-1 -35.724264675390458 -4.8211002184223331 0 0 -1 0 0 0 -1 forward_v I I I I #
coedge $-1 $755 $756 $757 $758 reversed $612 $-1 #
coedge $-1 $759 $614 $760 $761 forward $519 $-1 #
coedge $-1 $614 $762 $625 $707 reversed $519 $-1 #
coedge $-1 $615 $763 $764 $765 forward $430 $-1 #
coedge $-1 $766 $616 $615 $695 reversed $697 $-1 #
edge $-1 $767 -41.411175878170113 $619 29.028755649761059 $694 $768 forward 7 unknown #
coedge $-1 $616 $760 $623 $703 forward $697 $-1 #
loop $-1 $-1 $616 $769 #
vertex $-1 $703 $770 #
straight-curve $-1 29.028755649761059 -22.532547863688549 35.684930937950313 0 0 1 I I #
straight-curve $-1 29.028755649761059 -22.532547863688535 1.9091934736406415 0 0.83867056331134215 0.54463904215088732 I I #
point $-1 29.028755649761059 -22.532547863688549 10.330506509348856 #
point $-1 29.028755649761059 -9.564863212242086 10.330506509348856 #
edge $-1 $704 -23.801192996187325 $698 -11.418772767778265 $696 $771 forward 7 unknown #
vertex $-1 $761 $772 #
straight-curve $-1 41.411175878170113 -15.044241525537995 6.7721565604095328 0 -0.83867056331134215 -0.54463904215088732 I I #
coedge $-1 $773 $625 $774 $775 forward $430 $-1 #
edge $-1 $626 -9.564863212242086 $776 22.532547863688549 $692 $777 forward 7 unknown #
point $-1 41.41117587817012 -9.564863212242086 10.330506509348856 #
straight-curve $-1 41.411175878170113 22.532547863688549 0 0 0 -1 I I #
straight-curve $-1 -30.037353472610803 -3.1882780056492663 -10.330506509348856 0 1 0 I I #
point $-1 -41.411175878170113 -4.8211002184223331 -10.330506509348856 #
loop $-1 $-1 $719 $649 #
plane-surface $-1 0 0 -10.330506509348856 0 0 1 1 0 0 forward_v I I I I #
coedge $-1 $655 $652 $672 $741 reversed $585 $-1 #
coedge $-1 $652 $655 $726 $778 reversed $585 $-1 #
edge $-1 $724 -10.330506509348856 $728 10.330506509348856 $652 $779 forward 7 unknown #
coedge $-1 $654 $653 $747 $780 reversed $497 $-1 #
edge $-1 $748 -23.549043540474884 $721 -12.175221134915574 $679 $781 forward 7 unknown #
coedge $-1 $782 $726 $654 $720 forward $712 $-1 #
edge $-1 $722 12.175221134915574 $783 23.549043540474884 $719 $784 forward 7 unknown #
vertex $-1 $718 $785 #
vertex $-1 $720 $786 #
straight-curve $-1 -30.037353472610803 -4.8211002184223331 0 0 0 -1 I I #
vertex $-1 $658 $787 #
straight-curve $-1 -17.862132337695229 -7.9320118041747323 10.330506509348856 -1 0 0 I I #
coedge $-1 $719 $659 $715 $778 forward $712 $-1 #
coedge $-1 $659 $733 $661 $730 forward $712 $-1 #
vertex $-1 $660 $788 #
straight-curve $-1 -17.862132337695229 -7.9320118041747323 -10.330506509348856 1 0 0 I I #
edge $-1 $742 -22.532547863688549 $663 -7.9320118041747323 $661 $789 forward 7 unknown #
point $-1 -41.411175878170113 -7.9320118041747323 10.330506509348856 #
point $-1 -41.411175878170113 -7.9320118041747323 -10.330506509348856 #
coedge $-1 $727 $665 $667 $737 forward $712 $-1 #
coedge $-1 $665 $782 $739 $790 forward $712 $-1 #
vertex $-1 $666 $791 #
straight-curve $-1 41.411175878170113 0 -10.330506509348856 0 -1 0 I I #
edge $-1 $668 -41.411175878170113 $742 41.411175878170113 $667 $792 forward 7 unknown #
point $-1 41.411175878170113 -22.532547863688549 -10.330506509348856 #
coedge $-1 $682 $670 $734 $790 reversed $683 $-1 #
straight-curve $-1 41.411175878170113 22.532547863688549 0 0 0 -1 I I #
edge $-1 $721 1.6328222127730667 $724 4.743733798525466 $672 $793 forward 7 unknown #
vertex $-1 $730 $794 #
straight-curve $-1 -41.411175878170113 -22.532547863688549 0 0 0 -1 I I #
face $-1 $-1 $683 $18 $-1 $795 reversed single #
loop $-1 $-1 $747 $677 #
coedge $-1 $796 $680 $682 $749 forward $745 $-1 #
coedge $-1 $680 $796 $717 $780 forward $745 $-1 #
vertex $-1 $780 $797 #
edge $-1 $684 -10.330506509348856 $798 10.330506509348856 $682 $799 forward 7 unknown #
point $-1 -41.411175878170113 22.532547863688549 10.330506509348856 #
face $-1 $800 $801 $19 $-1 $802 reversed single #
loop $-1 $-1 $803 $687 #
plane-surface $-1 -30.037353472610803 -6.3765560112985327 0 -1 0 0 0 0 1 forward_v I I I I #
coedge $-1 $804 $805 $806 $807 reversed $688 $-1 #
coedge $-1 $808 $690 $763 $809 reversed $612 $-1 #
coedge $-1 $690 $808 $810 $811 reversed $612 $-1 #
coedge $-1 $812 $764 $690 $758 forward $801 $-1 #
edge $-1 $813 -10.330506509348856 $814 10.330506509348856 $757 $815 forward 7 unknown #
coedge $-1 $762 $691 $816 $817 reversed $519 $-1 #
coedge $-1 $696 $818 $691 $761 reversed $697 $-1 #
edge $-1 $704 -1.9091934736406322 $819 10.330506509348856 $691 $820 forward 7 unknown #
coedge $-1 $692 $759 $821 $822 reversed $519 $-1 #
coedge $-1 $693 $823 $755 $809 forward $430 $-1 #
coedge $-1 $757 $824 $693 $765 reversed $801 $-1 #
edge $-1 $813 7.9320118041747323 $767 22.532547863688549 $764 $825 forward 7 unknown #
coedge $-1 $818 $694 $824 $826 forward $697 $-1 #
vertex $-1 $765 $827 #
straight-curve $-1 0 -22.532547863688549 10.330506509348856 1 0 0 I I #
face $-1 $828 $697 $19 $-1 $829 reversed single #
point $-1 29.028755649761059 -22.532547863688549 1.9091934736406322 #
straight-curve $-1 17.609982881982795 -22.532547863688549 1.9091934736406326 -1 0 0 I I #
point $-1 41.41117587817012 -22.532547863688549 1.9091934736406322 #
coedge $-1 $830 $706 $831 $832 forward $430 $-1 #
coedge $-1 $821 $833 $706 $775 reversed $834 $-1 #
edge $-1 $776 -41.411175878170113 $835 41.411175878170113 $774 $836 forward 7 unknown #
vertex $-1 $707 $837 #
straight-curve $-1 41.411175878170113 0 10.330506509348856 0 1 0 I I #
edge $-1 $728 -4.743733798525466 $722 -1.6328222127730667 $726 $838 forward 7 unknown #
straight-curve $-1 -30.037353472610803 -7.9320118041747323 0 0 0 -1 I I #
edge $-1 $783 -10.330506509348856 $748 10.330506509348856 $747 $839 forward 7 unknown #
straight-curve $-1 -17.862132337695229 -4.8211002184223331 10.330506509348856 1 0 0 I I #
coedge $-1 $734 $719 $796 $840 forward $712 $-1 #
vertex $-1 $840 $841 #
straight-curve $-1 -17.862132337695229 -4.8211002184223331 -10.330506509348856 -1 0 0 I I #
point $-1 -30.037353472610803 -4.8211002184223331 10.330506509348856 #
point $-1 -30.037353472610803 -4.8211002184223331 -10.330506509348856 #
point $-1 -30.037353472610803 -7.9320118041747323 10.330506509348856 #
point $-1 -30.037353472610803 -7.9320118041747323 -10.330506509348856 #
straight-curve $-1 -41.411175878170113 0 -10.330506509348856 0 1 0 I I #
edge $-1 $798 -41.411175878170113 $735 41.411175878170113 $739 $842 forward 7 unknown #
point $-1 41.411175878170113 22.532547863688549 -10.330506509348856 #
straight-curve $-1 0 -22.532547863688549 -10.330506509348856 -1 0 0 I I #
straight-curve $-1 -30.037353472610803 -3.1882780056492663 10.330506509348856 0 -1 0 I I #
point $-1 -41.411175878170113 -22.532547863688549 -10.330506509348856 #
plane-surface $-1 0 22.532547863688549 0 0 -1 0 0 0 -1 forward_v I I I I #
coedge $-1 $747 $746 $782 $840 reversed $745 $-1 #
point $-1 -41.411175878170113 -4.8211002184223331 10.330506509348856 #
vertex $-1 $790 $843 #
straight-curve $-1 -41.411175878170113 22.532547863688549 0 0 0 -1 I I #
face $-1 $769 $844 $19 $-1 $845 reversed single #
loop $-1 $-1 $757 $751 #
plane-surface $-1 -41.411175878170113 0 0 1 0 0 0 0 -1 forward_v I I I I #
coedge $-1 $846 $847 $808 $848 reversed $752 $-1 #
coedge $-1 $849 $754 $830 $850 reversed $688 $-1 #
coedge $-1 $754 $849 $851 $852 reversed $688 $-1 #
coedge $-1 $847 $846 $754 $807 forward $752 $-1 #
edge $-1 $853 -10.330506509348856 $854 10.330506509348856 $806 $855 forward 7 unknown #
coedge $-1 $756 $755 $803 $848 forward $612 $-1 #
edge $-1 $856 12.175221134915574 $813 23.549043540474884 $763 $857 forward 7 unknown #
coedge $-1 $858 $859 $756 $811 forward $844 $-1 #
edge $-1 $814 -23.549043540474884 $860 -12.175221134915574 $810 $861 forward 7 unknown #
coedge $-1 $824 $757 $859 $862 reversed $801 $-1 #
vertex $-1 $765 $863 #
vertex $-1 $758 $864 #
straight-curve $-1 -41.411175878170113 -7.9320118041747323 0 0 0 -1 I I #
coedge $-1 $865 $866 $759 $817 forward $844 $-1 #
edge $-1 $867 -22.532547863688549 $819 22.532547863688549 $759 $868 forward 7 unknown #
coedge $-1 $760 $766 $865 $869 reversed $697 $-1 #
vertex $-1 $761 $870 #
straight-curve $-1 41.411175878170113 -22.532547863688549 0 0 0 -1 I I #
coedge $-1 $871 $774 $762 $822 forward $834 $-1 #
edge $-1 $776 -10.330506509348856 $867 10.330506509348856 $762 $872 forward 7 unknown #
coedge $-1 $763 $830 $846 $873 forward $430 $-1 #
coedge $-1 $764 $812 $766 $826 reversed $801 $-1 #
straight-curve $-1 -41.411175878170113 0 10.330506509348856 0 -1 0 I I #
edge $-1 $767 -10.330506509348856 $874 10.330506509348856 $824 $875 forward 7 unknown #
point $-1 -41.411175878170113 -22.532547863688549 10.330506509348856 #
face $-1 $876 $877 $19 $-1 $802 reversed single #
plane-surface $-1 0 -22.532547863688549 0 0 1 0 0 0 1 forward_v I I I I #
coedge $-1 $823 $773 $804 $850 forward $430 $-1 #
coedge $-1 $878 $879 $773 $832 reversed $877 $-1 #
edge $-1 $835 -22.532547863688549 $880 4.8211002184223331 $831 $825 forward 7 unknown #
coedge $-1 $774 $871 $878 $881 reversed $834 $-1 #
loop $-1 $-1 $821 $876 #
vertex $-1 $775 $882 #
straight-curve $-1 0 22.532547863688549 10.330506509348856 -1 0 0 I I #
point $-1 41.411175878170113 22.532547863688549 10.330506509348856 #
straight-curve $-1 -30.037353472610803 -3.1882780056492663 -10.330506509348856 0 1 0 I I #
straight-curve $-1 -41.411175878170113 -4.8211002184223331 0 0 0 1 I I #
edge $-1 $783 -4.8211002184223331 $798 22.532547863688549 $796 $789 forward 7 unknown #
point $-1 -41.411175878170113 -4.8211002184223331 -10.330506509348856 #
straight-curve $-1 0 22.532547863688549 -10.330506509348856 1 0 0 I I #
point $-1 -41.411175878170113 22.532547863688549 -10.330506509348856 #
loop $-1 $-1 $851 $800 #
plane-surface $-1 0 0 -10.330506509348856 0 0 1 1 0 0 forward_v I I I I #
coedge $-1 $806 $803 $823 $873 reversed $752 $-1 #
coedge $-1 $803 $806 $858 $883 reversed $752 $-1 #
edge $-1 $856 -10.330506509348856 $860 10.330506509348856 $803 $884 forward 7 unknown #
coedge $-1 $805 $804 $879 $885 reversed $688 $-1 #
edge $-1 $880 -23.549043540474884 $853 -12.175221134915574 $830 $886 forward 7 unknown #
coedge $-1 $887 $858 $805 $852 forward $844 $-1 #
edge $-1 $854 12.175221134915574 $888 23.549043540474884 $851 $889 forward 7 unknown #
vertex $-1 $850 $890 #
vertex $-1 $852 $891 #
straight-curve $-1 -30.037353472610803 -4.8211002184223331 0 0 0 -1 I I #
vertex $-1 $809 $892 #
straight-curve $-1 -17.862132337695229 -7.9320118041747323 10.330506509348856 -1 0 0 I I #
coedge $-1 $851 $810 $847 $883 forward $844 $-1 #
coedge $-1 $810 $865 $812 $862 forward $844 $-1 #
vertex $-1 $811 $893 #
straight-curve $-1 -17.862132337695229 -7.9320118041747323 -10.330506509348856 1 0 0 I I #
edge $-1 $874 -22.532547863688549 $814 -7.9320118041747323 $812 $894 forward 7 unknown #
point $-1 -41.411175878170113 -7.9320118041747323 10.330506509348856 #
point $-1 -41.411175878170113 -7.9320118041747323 -10.330506509348856 #
coedge $-1 $859 $816 $818 $869 forward $844 $-1 #
coedge $-1 $816 $887 $871 $895 forward $844 $-1 #
vertex $-1 $817 $896 #
straight-curve $-1 41.411175878170113 0 -10.330506509348856 0 -1 0 I I #
edge $-1 $819 -41.411175878170113 $874 41.411175878170113 $818 $897 forward 7 unknown #
point $-1 41.411175878170113 -22.532547863688549 -10.330506509348856 #
coedge $-1 $833 $821 $866 $895 reversed $834 $-1 #
straight-curve $-1 41.411175878170113 22.532547863688549 0 0 0 -1 I I #
edge $-1 $853 1.6328222127730667 $856 4.743733798525466 $823 $898 forward 7 unknown #
vertex $-1 $862 $899 #
straight-curve $-1 -41.411175878170113 -22.532547863688549 0 0 0 -1 I I #
face $-1 $-1 $834 $19 $-1 $900 reversed single #
loop $-1 $-1 $879 $828 #
coedge $-1 $901 $831 $833 $881 forward $877 $-1 #
coedge $-1 $831 $901 $849 $885 forward $877 $-1 #
vertex $-1 $885 $902 #
edge $-1 $835 -10.330506509348856 $903 10.330506509348856 $833 $904 forward 7 unknown #
point $-1 -41.411175878170113 22.532547863688549 10.330506509348856 #
edge $-1 $860 -4.743733798525466 $854 -1.6328222127730667 $858 $905 forward 7 unknown #
straight-curve $-1 -30.037353472610803 -7.9320118041747323 0 0 0 -1 I I #
edge $-1 $888 -10.330506509348856 $880 10.330506509348856 $879 $906 forward 7 unknown #
straight-curve $-1 -17.862132337695229 -4.8211002184223331 10.330506509348856 1 0 0 I I #
coedge $-1 $866 $851 $901 $907 forward $844 $-1 #
vertex $-1 $907 $908 #
straight-curve $-1 -17.862132337695229 -4.8211002184223331 -10.330506509348856 -1 0 0 I I #
point $-1 -30.037353472610803 -4.8211002184223331 10.330506509348856 #
point $-1 -30.037353472610803 -4.8211002184223331 -10.330506509348856 #
point $-1 -30.037353472610803 -7.9320118041747323 10.330506509348856 #
point $-1 -30.037353472610803 -7.9320118041747323 -10.330506509348856 #
straight-curve $-1 -41.411175878170113 0 -10.330506509348856 0 1 0 I I #
edge $-1 $903 -41.411175878170113 $867 41.411175878170113 $871 $909 forward 7 unknown #
point $-1 41.411175878170113 22.532547863688549 -10.330506509348856 #
straight-curve $-1 0 -22.532547863688549 -10.330506509348856 -1 0 0 I I #
straight-curve $-1 -30.037353472610803 -3.1882780056492663 10.330506509348856 0 -1 0 I I #
point $-1 -41.411175878170113 -22.532547863688549 -10.330506509348856 #
plane-surface $-1 0 22.532547863688549 0 0 -1 0 0 0 -1 forward_v I I I I #
coedge $-1 $879 $878 $887 $907 reversed $877 $-1 #
point $-1 -41.411175878170113 -4.8211002184223331 10.330506509348856 #
vertex $-1 $895 $910 #
straight-curve $-1 -41.411175878170113 22.532547863688549 0 0 0 -1 I I #
straight-curve $-1 -30.037353472610803 -3.1882780056492663 -10.330506509348856 0 1 0 I I #
straight-curve $-1 -41.411175878170113 -4.8211002184223331 0 0 0 1 I I #
edge $-1 $888 -4.8211002184223331 $903 22.532547863688549 $901 $894 forward 7 unknown #
point $-1 -41.411175878170113 -4.8211002184223331 -10.330506509348856 #
straight-curve $-1 0 22.532547863688549 -10.330506509348856 1 0 0 I I #
point $-1 -41.411175878170113 22.532547863688549 -10.330506509348856 #
End-of-ACIS-data 