500 0 6 0           
7 Unknown 11 ACIS 5.0 NT 24 Thu Mar 25 21:55:04 1999 
-1 9.9999999999999995e-007 1e-010 
body $-1 $6 $-1 $7 #
body $-1 $8 $-1 $9 #
body $-1 $10 $-1 $11 #
body $-1 $12 $-1 $13 #
body $-1 $14 $-1 $15 #
body $-1 $16 $-1 $17 #
lump $-1 $-1 $18 $0 #
transform $-1 1 0 0 0 1 0 0 0 1 69.695730460524317 47.29129802362619 15.731677528834737 1 rotate no_reflect no_shear #
lump $-1 $-1 $19 $1 #
transform $-1 1 0 0 0 1 0 0 0 1 69.695730460524317 47.29129802362619 15.731677528834737 1 rotate no_reflect no_shear #
lump $-1 $-1 $20 $2 #
transform $-1 1 0 0 0 1 0 0 0 1 69.695730460524317 47.29129802362619 15.731677528834737 1 rotate no_reflect no_shear #
lump $-1 $-1 $21 $3 #
transform $-1 1 0 0 0 1 0 0 0 1 69.695730460524317 47.29129802362619 15.731677528834737 1 rotate no_reflect no_shear #
lump $-1 $-1 $22 $4 #
transform $-1 1 0 0 0 1 0 0 0 1 69.695730460524317 47.29129802362619 15.731677528834737 1 rotate no_reflect no_shear #
lump $-1 $-1 $23 $5 #
transform $-1 1 0 0 0 1 0 0 0 1 69.695730460524317 47.29129802362619 15.731677528834737 1 rotate no_reflect no_shear #
shell $-1 $-1 $-1 $24 $-1 $6 #
shell $-1 $-1 $-1 $25 $-1 $8 #
shell $-1 $-1 $-1 $26 $-1 $10 #
shell $-1 $-1 $-1 $27 $-1 $12 #
shell $-1 $-1 $-1 $28 $-1 $14 #
shell $-1 $-1 $-1 $29 $-1 $16 #
face $-1 $30 $31 $18 $-1 $32 forward single #
face $-1 $33 $34 $19 $-1 $35 reversed single #
face $-1 $36 $37 $20 $-1 $38 reversed single #
face $-1 $39 $40 $21 $-1 $41 reversed single #
face $-1 $42 $43 $22 $-1 $44 forward single #
face $-1 $45 $46 $23 $-1 $47 forward single #
face $-1 $48 $49 $18 $-1 $50 reversed single #
loop $-1 $-1 $51 $24 #
plane-surface $-1 0 0 15.731677528834737 0 0 1 1 0 0 forward_v I I I I #
face $-1 $52 $53 $19 $-1 $54 reversed single #
loop $-1 $-1 $55 $25 #
plane-surface $-1 -62.635531033259753 0 10.916488875381717 0 0 1 1 0 0 forward_v I I I I #
face $-1 $56 $57 $20 $-1 $58 reversed single #
loop $-1 $-1 $59 $26 #
plane-surface $-1 62.635531033259753 0 10.916488875381717 0 0 1 1 0 0 forward_v I I I I #
face $-1 $60 $61 $21 $-1 $62 reversed single #
loop $-1 $-1 $63 $27 #
plane-surface $-1 -42.460421738037851 -21.882032989121228 75.455343589729111 0 0.68199836817093118 0.7313536940579346 1 0 0 forward_v I I I I #
face $-1 $64 $65 $22 $-1 $66 forward single #
loop $-1 $67 $68 $28 #
cone-surface $-1 -48.081097395733849 43.617070982500884 12.150104034249351 0 -0.68199836817093118 -0.7313536940579346 1 0 0 1 I I 0 1 1 forward I I I I #
face $-1 $69 $70 $23 $-1 $71 forward single #
loop $-1 $72 $73 $29 #
cone-surface $-1 -36.839746080341854 43.617070982500884 12.150104034249351 0 -0.68199836817093118 -0.7313536940579346 1 0 0 1 I I 0 1 1 forward I I I I #
face $-1 $74 $75 $18 $-1 $76 reversed single #
loop $-1 $-1 $77 $30 #
plane-surface $-1 0 0 -15.731677528834737 0 0 1 1 0 0 forward_v I I I I #
coedge $-1 $78 $79 $80 $81 forward $31 $-1 #
face $-1 $82 $83 $19 $-1 $84 reversed single #
loop $-1 $-1 $85 $33 #
plane-surface $-1 -55.575331605995189 0 13.324083202108227 -1 0 0 0 0 1 forward_v I I I I #
coedge $-1 $86 $87 $88 $89 forward $34 $-1 #
face $-1 $90 $91 $20 $-1 $92 forward single #
loop $-1 $-1 $93 $36 #
plane-surface $-1 55.575331605995189 0 13.324083202108227 1 0 0 0 0 -1 forward_v I I I I #
coedge $-1 $94 $95 $96 $97 reversed $37 $-1 #
face $-1 $98 $99 $21 $-1 $100 reversed single #
loop $-1 $-1 $101 $39 #
plane-surface $-1 -29.345511870080525 73.182715895996068 177.39980345447026 -1 0 0 0 0.68199836817093118 0.7313536940579346 forward_v I I I I #
coedge $-1 $102 $103 $104 $105 reversed $40 $-1 #
face $-1 $-1 $106 $22 $-1 $107 forward single #
loop $-1 $108 $109 $42 #
cone-surface $-1 -48.081097395733849 42.165615609632816 10.593608742986063 0 -0.68199836817093118 -0.7313536940579346 0.5 0 0 1 I I -0.70710678118654746 0.70710678118654746 0.5 forward I I I I #
loop $-1 $-1 $110 $28 #
coedge $-1 $68 $68 $111 $112 reversed $43 $-1 #
face $-1 $-1 $113 $23 $-1 $114 forward single #
loop $-1 $115 $116 $45 #
cone-surface $-1 -36.839746080341854 42.165615609632816 10.593608742986063 0 -0.68199836817093118 -0.7313536940579346 0.5 0 0 1 I I -0.70710678118654746 0.70710678118654746 0.5 forward I I I I #
loop $-1 $-1 $117 $29 #
coedge $-1 $73 $73 $118 $119 reversed $46 $-1 #
face $-1 $120 $121 $18 $-1 $122 reversed single #
loop $-1 $-1 $123 $48 #
plane-surface $-1 0 -47.29129802362619 0 0 1 0 0 0 1 forward_v I I I I #
coedge $-1 $124 $125 $126 $127 forward $49 $-1 #
coedge $-1 $128 $51 $129 $130 forward $31 $-1 #
coedge $-1 $51 $128 $131 $132 forward $31 $-1 #
coedge $-1 $133 $134 $51 $81 reversed $135 $-1 #
edge $-1 $136 -47.29129802362619 $137 47.29129802362619 $80 $138 forward 7 unknown #
face $-1 $139 $140 $19 $-1 $141 reversed single #
loop $-1 $-1 $142 $52 #
plane-surface $-1 0 47.29129802362619 0 0 -1 0 0 0 -1 forward_v I I I I #
coedge $-1 $143 $144 $145 $146 reversed $53 $-1 #
coedge $-1 $147 $55 $148 $149 reversed $34 $-1 #
coedge $-1 $55 $147 $150 $151 reversed $34 $-1 #
coedge $-1 $144 $143 $55 $89 reversed $53 $-1 #
edge $-1 $152 -47.29129802362619 $153 47.29129802362619 $88 $154 forward 7 unknown #
face $-1 $155 $156 $20 $-1 $157 reversed single #
loop $-1 $-1 $158 $56 #
plane-surface $-1 0 0 15.731677528834737 0 0 1 1 0 0 forward_v I I I I #
coedge $-1 $159 $160 $161 $162 reversed $57 $-1 #
coedge $-1 $163 $59 $164 $165 reversed $37 $-1 #
coedge $-1 $59 $163 $166 $167 reversed $37 $-1 #
coedge $-1 $168 $169 $59 $97 forward $170 $-1 #
edge $-1 $171 -47.29129802362619 $172 47.29129802362619 $96 $173 forward 7 unknown #
face $-1 $174 $175 $21 $-1 $176 forward single #
loop $-1 $-1 $177 $60 #
plane-surface $-1 0 47.29129802362619 0 0 -1 0 0 0 -1 forward_v I I I I #
coedge $-1 $178 $179 $180 $181 reversed $61 $-1 #
coedge $-1 $182 $63 $183 $184 reversed $40 $-1 #
coedge $-1 $63 $182 $178 $185 forward $40 $-1 #
coedge $-1 $180 $186 $63 $105 forward $175 $-1 #
edge $-1 $187 -34.345120736976249 $188 -8.1153010010615994 $104 $189 forward 7 unknown #
loop $-1 $-1 $111 $64 #
plane-surface $-1 -42.460421738037851 -21.882032989121228 75.455343589729111 0 0.68199836817093118 0.7313536940579346 1 0 0 forward_v I I I I #
loop $-1 $-1 $190 $42 #
coedge $-1 $109 $109 $110 $191 reversed $65 $-1 #
coedge $-1 $110 $110 $109 $191 forward $67 $-1 #
coedge $-1 $111 $111 $68 $112 forward $106 $-1 #
edge $-1 $192 1.3708728831180057e-015 $192 6.2831853071796022 $111 $193 forward 7 unknown #
loop $-1 $-1 $118 $69 #
plane-surface $-1 -42.460421738037851 -21.882032989121228 75.455343589729111 0 0.68199836817093118 0.7313536940579346 1 0 0 forward_v I I I I #
loop $-1 $-1 $194 $45 #
coedge $-1 $116 $116 $117 $195 reversed $70 $-1 #
coedge $-1 $117 $117 $116 $195 forward $72 $-1 #
coedge $-1 $118 $118 $73 $119 forward $113 $-1 #
edge $-1 $196 1.3708728831180057e-015 $196 6.2831853071796022 $118 $197 forward 7 unknown #
face $-1 $198 $199 $18 $-1 $200 reversed single #
loop $-1 $-1 $201 $74 #
plane-surface $-1 -69.695730460524317 0 0 1 0 0 0 0 -1 forward_v I I I I #
coedge $-1 $202 $131 $203 $204 forward $75 $-1 #
coedge $-1 $205 $77 $202 $206 forward $49 $-1 #
coedge $-1 $77 $205 $207 $208 forward $49 $-1 #
coedge $-1 $134 $133 $77 $127 reversed $135 $-1 #
edge $-1 $209 -47.29129802362619 $210 47.29129802362619 $126 $211 forward 7 unknown #
coedge $-1 $79 $78 $212 $213 forward $31 $-1 #
coedge $-1 $214 $215 $78 $130 reversed $199 $-1 #
edge $-1 $137 -69.695730460524317 $216 69.695730460524317 $129 $217 forward 7 unknown #
coedge $-1 $123 $218 $79 $132 reversed $75 $-1 #
edge $-1 $219 -69.695730460524317 $136 69.695730460524317 $131 $220 forward 7 unknown #
coedge $-1 $126 $80 $218 $221 forward $135 $-1 #
coedge $-1 $80 $126 $214 $222 reversed $135 $-1 #
loop $-1 $-1 $133 $198 #
vertex $-1 $81 $223 #
vertex $-1 $81 $224 #
straight-curve $-1 69.695730460524317 0 15.731677528834737 0 1 0 I I #
face $-1 $225 $226 $19 $-1 $227 forward single #
loop $-1 $-1 $228 $82 #
plane-surface $-1 -69.695730460524317 0 0 1 0 0 0 0 -1 forward_v I I I I #
coedge $-1 $150 $229 $144 $230 forward $83 $-1 #
coedge $-1 $88 $85 $231 $232 reversed $53 $-1 #
coedge $-1 $85 $88 $142 $230 reversed $53 $-1 #
coedge $-1 $233 $234 $85 $146 forward $226 $-1 #
edge $-1 $235 -47.29129802362619 $236 47.29129802362619 $145 $237 forward 7 unknown #
coedge $-1 $87 $86 $228 $238 reversed $34 $-1 #
coedge $-1 $231 $239 $86 $149 forward $240 $-1 #
edge $-1 $241 -38.37796494389444 $153 -24.257566089365312 $148 $242 forward 7 unknown #
coedge $-1 $243 $142 $87 $151 forward $83 $-1 #
edge $-1 $152 24.257566089365312 $244 38.37796494389444 $150 $245 forward 7 unknown #
vertex $-1 $151 $246 #
vertex $-1 $149 $247 #
straight-curve $-1 -55.575331605995189 0 10.916488875381717 0 -1 0 I I #
face $-1 $248 $249 $20 $-1 $250 reversed single #
loop $-1 $-1 $251 $90 #
plane-surface $-1 0 -47.29129802362619 0 0 1 0 0 0 1 forward_v I I I I #
coedge $-1 $252 $253 $160 $254 forward $91 $-1 #
coedge $-1 $255 $93 $163 $256 reversed $57 $-1 #
coedge $-1 $93 $255 $158 $254 reversed $57 $-1 #
coedge $-1 $257 $166 $93 $162 forward $249 $-1 #
edge $-1 $258 4.2544472743276032 $259 9.0696359277806238 $161 $260 forward 7 unknown #
coedge $-1 $95 $94 $159 $256 forward $37 $-1 #
coedge $-1 $261 $251 $94 $165 forward $156 $-1 #
edge $-1 $262 24.257566089365312 $171 38.37796494389444 $164 $263 forward 7 unknown #
coedge $-1 $161 $264 $95 $167 forward $249 $-1 #
edge $-1 $172 -38.37796494389444 $258 -24.257566089365312 $166 $265 forward 7 unknown #
coedge $-1 $266 $96 $264 $267 reversed $170 $-1 #
coedge $-1 $96 $266 $261 $268 forward $170 $-1 #
loop $-1 $-1 $96 $248 #
vertex $-1 $165 $269 #
vertex $-1 $97 $270 #
straight-curve $-1 69.695730460524317 0 10.916488875381717 0 1 0 I I #
face $-1 $-1 $271 $21 $-1 $272 forward single #
loop $-1 $-1 $180 $98 #
plane-surface $-1 0 0 15.731677528834737 0 0 1 1 0 0 forward_v I I I I #
coedge $-1 $273 $274 $179 $275 forward $99 $-1 #
coedge $-1 $179 $101 $103 $185 reversed $61 $-1 #
coedge $-1 $101 $178 $177 $275 reversed $61 $-1 #
coedge $-1 $276 $104 $101 $181 forward $175 $-1 #
edge $-1 $188 5.5723983709427927 $277 10.699940075628156 $180 $278 forward 7 unknown #
coedge $-1 $103 $102 $273 $279 reversed $40 $-1 #
coedge $-1 $280 $281 $102 $184 forward $271 $-1 #
edge $-1 $282 -65.394134118826315 $187 -58.383105465596913 $183 $283 forward 7 unknown #
edge $-1 $284 -94.582596047252352 $188 -87.571567394022935 $178 $285 forward 7 unknown #
coedge $-1 $104 $276 $280 $286 forward $175 $-1 #
vertex $-1 $184 $287 #
vertex $-1 $105 $288 #
straight-curve $-1 -21.230210869018926 42.163756318940841 15.731677528834737 1 0 0 I I #
coedge $-1 $190 $190 $-1 $289 reversed $108 $-1 #
edge $-1 $290 0 $290 6.2831853071796004 $109 $291 forward 7 unknown #
vertex $-1 $112 $292 #
ellipse-curve $-1 -48.081097395733849 44.727527171283512 13.340922478483694 0 0.68199836817093118 0.7313536940579346 1 0 0 1 I I #
coedge $-1 $194 $194 $-1 $293 reversed $115 $-1 #
edge $-1 $294 0 $294 6.2831853071796004 $116 $295 forward 7 unknown #
vertex $-1 $119 $296 #
ellipse-curve $-1 -36.839746080341854 44.727527171283512 13.340922478483694 0 0.68199836817093118 0.7313536940579346 1 0 0 1 I I #
face $-1 $-1 $135 $18 $-1 $297 reversed single #
loop $-1 $-1 $214 $120 #
plane-surface $-1 0 47.29129802362619 0 0 -1 0 0 0 -1 forward_v I I I I #
coedge $-1 $298 $212 $215 $299 forward $121 $-1 #
coedge $-1 $218 $123 $124 $206 reversed $75 $-1 #
coedge $-1 $212 $298 $123 $204 reversed $121 $-1 #
edge $-1 $219 -15.731677528834737 $300 15.731677528834737 $203 $301 forward 7 unknown #
coedge $-1 $125 $124 $298 $302 forward $49 $-1 #
edge $-1 $210 -69.695730460524317 $300 69.695730460524317 $202 $303 forward 7 unknown #
coedge $-1 $215 $214 $125 $208 reversed $199 $-1 #
edge $-1 $304 -69.695730460524317 $209 69.695730460524317 $207 $305 forward 7 unknown #
vertex $-1 $127 $306 #
vertex $-1 $221 $307 #
straight-curve $-1 69.695730460524317 0 -15.731677528834737 0 -1 0 I I #
coedge $-1 $201 $203 $128 $213 reversed $121 $-1 #
edge $-1 $216 -47.29129802362619 $219 47.29129802362619 $212 $308 forward 7 unknown #
coedge $-1 $207 $129 $134 $222 forward $199 $-1 #
coedge $-1 $129 $207 $201 $299 reversed $199 $-1 #
vertex $-1 $130 $309 #
straight-curve $-1 0 47.29129802362619 15.731677528834737 -1 0 0 I I #
coedge $-1 $131 $202 $133 $221 reversed $75 $-1 #
vertex $-1 $213 $310 #
straight-curve $-1 0 -47.29129802362619 15.731677528834737 1 0 0 I I #
edge $-1 $136 -15.731677528834737 $210 15.731677528834737 $133 $311 forward 7 unknown #
edge $-1 $137 -15.731677528834737 $209 15.731677528834737 $134 $312 forward 7 unknown #
point $-1 69.695730460524317 -47.29129802362619 15.731677528834737 #
point $-1 69.695730460524317 47.29129802362619 15.731677528834737 #
face $-1 $-1 $240 $19 $-1 $313 reversed single #
loop $-1 $-1 $145 $139 #
plane-surface $-1 0 0 15.731677528834737 0 0 1 1 0 0 forward_v I I I I #
coedge $-1 $314 $315 $147 $238 forward $140 $-1 #
coedge $-1 $142 $243 $233 $316 reversed $83 $-1 #
edge $-1 $236 -9.0696359277806238 $152 -4.2544472743276032 $142 $317 forward 7 unknown #
coedge $-1 $318 $148 $143 $232 forward $240 $-1 #
edge $-1 $153 4.2544472743276032 $235 9.0696359277806238 $231 $319 forward 7 unknown #
coedge $-1 $320 $145 $229 $316 forward $226 $-1 #
coedge $-1 $145 $320 $318 $321 forward $226 $-1 #
vertex $-1 $232 $322 #
vertex $-1 $316 $323 #
straight-curve $-1 -55.575331605995189 0 15.731677528834737 0 1 0 I I #
edge $-1 $244 -47.29129802362619 $241 47.29129802362619 $228 $324 forward 7 unknown #
coedge $-1 $148 $318 $314 $325 forward $240 $-1 #
loop $-1 $-1 $231 $225 #
vertex $-1 $238 $326 #
straight-curve $-1 -31.317765516629876 -47.29129802362619 10.916488875381717 1 0 0 I I #
coedge $-1 $229 $150 $315 $327 reversed $83 $-1 #
vertex $-1 $238 $328 #
straight-curve $-1 -31.317765516629876 47.29129802362619 10.916488875381717 -1 0 0 I I #
point $-1 -55.575331605995189 47.29129802362619 10.916488875381717 #
point $-1 -55.575331605995189 -47.29129802362619 10.916488875381717 #
face $-1 $-1 $170 $20 $-1 $329 reversed single #
loop $-1 $-1 $161 $155 #
plane-surface $-1 0 47.29129802362619 0 0 -1 0 0 0 -1 forward_v I I I I #
coedge $-1 $164 $330 $255 $331 forward $156 $-1 #
coedge $-1 $332 $158 $330 $333 forward $91 $-1 #
coedge $-1 $158 $332 $257 $334 forward $91 $-1 #
edge $-1 $259 -47.29129802362619 $335 47.29129802362619 $158 $336 forward 7 unknown #
coedge $-1 $160 $159 $251 $331 reversed $57 $-1 #
edge $-1 $262 -47.29129802362619 $258 47.29129802362619 $159 $337 forward 7 unknown #
coedge $-1 $264 $161 $253 $334 reversed $249 $-1 #
vertex $-1 $167 $338 #
vertex $-1 $162 $339 #
straight-curve $-1 55.575331605995189 47.29129802362619 6.6620416010541135 0 0 1 I I #
coedge $-1 $330 $164 $169 $268 reversed $156 $-1 #
vertex $-1 $165 $340 #
straight-curve $-1 31.317765516629876 -47.29129802362619 10.916488875381717 1 0 0 I I #
coedge $-1 $166 $257 $168 $267 forward $249 $-1 #
straight-curve $-1 31.317765516629876 47.29129802362619 10.916488875381717 -1 0 0 I I #
coedge $-1 $169 $168 $332 $341 reversed $170 $-1 #
edge $-1 $342 -15.731677528834737 $172 -10.916488875381717 $168 $343 forward 7 unknown #
edge $-1 $344 -15.731677528834737 $171 -10.916488875381717 $169 $345 forward 7 unknown #
point $-1 69.695730460524317 -47.29129802362619 10.916488875381717 #
point $-1 69.695730460524317 47.29129802362619 10.916488875381717 #
loop $-1 $-1 $183 $174 #
plane-surface $-1 -55.575331605995189 0 13.324083202108227 -1 0 0 0 0 1 forward_v I I I I #
coedge $-1 $346 $177 $182 $279 forward $99 $-1 #
coedge $-1 $177 $346 $276 $347 reversed $99 $-1 #
edge $-1 $277 72.968224198400392 $284 77.749734299102485 $177 $348 forward 7 unknown #
coedge $-1 $186 $180 $274 $347 forward $175 $-1 #
vertex $-1 $347 $349 #
straight-curve $-1 -29.345511870080525 36.591357947998034 15.731677528834737 0 1 0 I I #
edge $-1 $284 8.1153010010615994 $282 34.345120736976249 $273 $350 forward 7 unknown #
coedge $-1 $281 $183 $186 $286 reversed $271 $-1 #
coedge $-1 $183 $280 $346 $351 reversed $271 $-1 #
vertex $-1 $351 $352 #
straight-curve $-1 -55.575331605995189 -0.53494353389746507 55.54886018512321 0 -0.7313536940579346 0.68199836817093118 I I #
vertex $-1 $279 $353 #
straight-curve $-1 -29.345511870080525 -21.882032989121228 75.455343589729111 0 -0.7313536940579346 0.68199836817093118 I I #
edge $-1 $354 -47.29129802362619 $187 -42.163756318940827 $186 $355 forward 7 unknown #
point $-1 -55.575331605995174 42.163756318940827 15.731677528834737 #
point $-1 -29.345511870080525 42.163756318940827 15.731677528834737 #
edge $-1 $356 1 $356 0 $190 $-1 forward 7 unknown #
vertex $-1 $191 $357 #
ellipse-curve $-1 -48.081097395733849 42.506614793718285 10.95928559001503 0 0.68199836817093118 0.7313536940579346 1 0 0 1 I I #
point $-1 -47.081097395733849 44.727527171283491 13.34092247848367 #
edge $-1 $358 1 $358 0 $194 $-1 forward 7 unknown #
vertex $-1 $195 $359 #
ellipse-curve $-1 -36.839746080341854 42.506614793718285 10.95928559001503 0 0.68199836817093118 0.7313536940579346 1 0 0 1 I I #
point $-1 -35.839746080341854 44.727527171283491 13.34092247848367 #
plane-surface $-1 69.695730460524317 0 0 -1 0 0 0 0 1 forward_v I I I I #
coedge $-1 $203 $201 $205 $302 reversed $121 $-1 #
edge $-1 $216 -15.731677528834737 $304 15.731677528834737 $215 $360 forward 7 unknown #
vertex $-1 $302 $361 #
straight-curve $-1 -69.695730460524317 -47.29129802362619 0 0 0 -1 I I #
edge $-1 $300 -47.29129802362619 $304 47.29129802362619 $298 $362 forward 7 unknown #
straight-curve $-1 0 -47.29129802362619 -15.731677528834737 -1 0 0 I I #
vertex $-1 $208 $363 #
straight-curve $-1 0 47.29129802362619 -15.731677528834737 1 0 0 I I #
point $-1 69.695730460524317 47.29129802362619 -15.731677528834737 #
point $-1 69.695730460524317 -47.29129802362619 -15.731677528834737 #
straight-curve $-1 -69.695730460524317 0 15.731677528834737 0 -1 0 I I #
point $-1 -69.695730460524317 47.29129802362619 15.731677528834737 #
point $-1 -69.695730460524317 -47.29129802362619 15.731677528834737 #
straight-curve $-1 69.695730460524317 -47.29129802362619 0 0 0 -1 I I #
straight-curve $-1 69.695730460524317 47.29129802362619 0 0 0 -1 I I #
plane-surface $-1 0 -47.29129802362619 0 0 1 0 0 0 1 forward_v I I I I #
coedge $-1 $364 $228 $239 $325 reversed $140 $-1 #
coedge $-1 $228 $364 $243 $327 forward $140 $-1 #
edge $-1 $236 55.575331605995189 $365 69.695730460524317 $229 $366 forward 7 unknown #
straight-curve $-1 -55.575331605995189 47.29129802362619 6.6620416010541135 0 0 -1 I I #
coedge $-1 $239 $231 $234 $321 reversed $240 $-1 #
straight-curve $-1 -55.575331605995189 -47.29129802362619 6.6620416010541135 0 0 1 I I #
coedge $-1 $234 $233 $364 $367 forward $226 $-1 #
edge $-1 $368 -69.695730460524317 $235 -55.575331605995189 $318 $369 forward 7 unknown #
point $-1 -55.575331605995189 -47.29129802362619 15.731677528834737 #
point $-1 -55.575331605995189 47.29129802362619 15.731677528834737 #
straight-curve $-1 -69.695730460524317 0 10.916488875381717 0 -1 0 I I #
edge $-1 $368 -15.731677528834737 $241 -10.916488875381717 $314 $370 forward 7 unknown #
point $-1 -69.695730460524317 -47.29129802362619 10.916488875381717 #
edge $-1 $365 -15.731677528834737 $244 -10.916488875381717 $243 $371 forward 7 unknown #
point $-1 -69.695730460524317 47.29129802362619 10.916488875381717 #
plane-surface $-1 69.695730460524317 0 0 -1 0 0 0 0 1 forward_v I I I I #
coedge $-1 $251 $261 $252 $333 reversed $156 $-1 #
edge $-1 $335 -9.0696359277806238 $262 -4.2544472743276032 $251 $372 forward 7 unknown #
coedge $-1 $253 $252 $266 $341 forward $91 $-1 #
edge $-1 $335 55.575331605995189 $344 69.695730460524317 $330 $373 forward 7 unknown #
edge $-1 $342 -69.695730460524317 $259 -55.575331605995189 $257 $374 forward 7 unknown #
vertex $-1 $333 $375 #
straight-curve $-1 55.575331605995189 0 15.731677528834737 0 -1 0 I I #
straight-curve $-1 55.575331605995189 0 10.916488875381717 0 1 0 I I #
point $-1 55.575331605995189 47.29129802362619 10.916488875381717 #
point $-1 55.575331605995189 47.29129802362619 15.731677528834737 #
point $-1 55.575331605995189 -47.29129802362619 10.916488875381717 #
edge $-1 $344 -47.29129802362619 $342 47.29129802362619 $266 $376 forward 7 unknown #
vertex $-1 $341 $377 #
straight-curve $-1 69.695730460524317 47.29129802362619 0 0 0 -1 I I #
vertex $-1 $341 $378 #
straight-curve $-1 69.695730460524317 -47.29129802362619 0 0 0 -1 I I #
coedge $-1 $274 $273 $281 $351 forward $99 $-1 #
edge $-1 $277 29.345511870080525 $354 55.575331605995189 $274 $379 forward 7 unknown #
straight-curve $-1 -29.345511870080525 47.29129802362619 88.69990172723513 0 0 -1 I I #
point $-1 -29.345511870080525 47.29129802362619 15.731677528834737 #
straight-curve $-1 -21.230210869018926 47.291298023626183 10.950167428132644 -1 0 0 I I #
edge $-1 $282 4.288125827078531 $354 9.0696359277806238 $346 $380 forward 7 unknown #
point $-1 -55.575331605995174 47.291298023626183 10.950167428132644 #
point $-1 -29.345511870080525 47.291298023626183 10.950167428132644 #
vertex $-1 $286 $381 #
straight-curve $-1 -55.575331605995189 0 15.731677528834737 0 -1 0 I I #
vertex $-1 $289 $382 #
point $-1 -47.081097395733849 42.506614793718285 10.95928559001503 #
vertex $-1 $293 $383 #
point $-1 -35.839746080341854 42.506614793718285 10.95928559001503 #
straight-curve $-1 -69.695730460524317 47.29129802362619 0 0 0 -1 I I #
point $-1 -69.695730460524317 -47.29129802362619 -15.731677528834737 #
straight-curve $-1 -69.695730460524317 0 -15.731677528834737 0 1 0 I I #
point $-1 -69.695730460524317 47.29129802362619 -15.731677528834737 #
coedge $-1 $315 $314 $320 $367 reversed $140 $-1 #
vertex $-1 $316 $384 #
straight-curve $-1 0 47.29129802362619 15.731677528834737 -1 0 0 I I #
edge $-1 $365 -47.29129802362619 $368 47.29129802362619 $364 $385 forward 7 unknown #
vertex $-1 $367 $386 #
straight-curve $-1 0 -47.29129802362619 15.731677528834737 1 0 0 I I #
straight-curve $-1 -69.695730460524317 -47.29129802362619 0 0 0 -1 I I #
straight-curve $-1 -69.695730460524317 47.29129802362619 0 0 0 -1 I I #
straight-curve $-1 55.575331605995189 -47.29129802362619 6.6620416010541135 0 0 -1 I I #
straight-curve $-1 0 -47.29129802362619 15.731677528834737 1 0 0 I I #
straight-curve $-1 0 47.29129802362619 15.731677528834737 -1 0 0 I I #
point $-1 55.575331605995189 -47.29129802362619 15.731677528834737 #
straight-curve $-1 69.695730460524317 0 15.731677528834737 0 1 0 I I #
point $-1 69.695730460524317 47.29129802362619 15.731677528834737 #
point $-1 69.695730460524317 -47.29129802362619 15.731677528834737 #
straight-curve $-1 0 47.29129802362619 15.731677528834737 -1 0 0 I I #
straight-curve $-1 -55.575331605995189 47.29129802362619 6.6620416010541135 0 0 1 I I #
point $-1 -55.575331605995189 47.29129802362619 15.731677528834737 #
point $-1 -48.081097395733849 41.824616425547347 10.227931895957097 #
point $-1 -36.839746080341854 41.824616425547347 10.227931895957097 #
point $-1 -69.695730460524317 47.29129802362619 15.731677528834737 #
straight-curve $-1 -69.695730460524317 0 15.731677528834737 0 -1 0 I I #
point $-1 -69.695730460524317 -47.29129802362619 15.731677528834737 #
End-of-ACIS-data 