500 0 13 0           
7 Unknown 11 ACIS 5.0 NT 24 Thu Mar 25 15:25:31 1999 
-1 9.9999999999999995e-007 1e-010 
body $-1 $13 $-1 $14 #
body $-1 $15 $-1 $16 #
body $-1 $17 $-1 $18 #
body $-1 $19 $-1 $20 #
body $-1 $21 $-1 $22 #
body $-1 $23 $-1 $24 #
body $-1 $25 $-1 $26 #
body $-1 $27 $-1 $28 #
body $-1 $29 $-1 $30 #
body $-1 $31 $-1 $32 #
body $-1 $33 $-1 $34 #
body $-1 $35 $-1 $36 #
body $-1 $37 $-1 $38 #
lump $-1 $-1 $39 $0 #
transform $-1 1 0 0 0 1 0 0 0 1 76.050904873805962 51.159302362129367 21.956641411133926 1 rotate no_reflect no_shear #
lump $-1 $-1 $40 $1 #
transform $-1 1 0 0 0 1 0 0 0 1 76.050904873805962 51.159302362129367 21.956641411133926 1 rotate no_reflect no_shear #
lump $-1 $-1 $41 $2 #
transform $-1 1 0 0 0 1 0 0 0 1 76.050904873805962 51.159302362129367 21.956641411133926 1 rotate no_reflect no_shear #
lump $-1 $-1 $42 $3 #
transform $-1 1 0 0 0 1 0 0 0 1 76.050904873805962 51.159302362129367 21.956641411133926 1 rotate no_reflect no_shear #
lump $-1 $-1 $43 $4 #
transform $-1 1 0 0 0 1 0 0 0 1 76.050904873805962 51.159302362129367 21.956641411133926 1 rotate no_reflect no_shear #
lump $-1 $-1 $44 $5 #
transform $-1 1 0 0 0 1 0 0 0 1 76.050904873805962 51.159302362129367 21.956641411133926 1 rotate no_reflect no_shear #
lump $-1 $-1 $45 $6 #
transform $-1 1 0 0 0 1 0 0 0 1 76.050904873805962 51.159302362129367 21.956641411133926 1 rotate no_reflect no_shear #
lump $-1 $-1 $46 $7 #
transform $-1 1 0 0 0 1 0 0 0 1 76.050904873805962 51.159302362129367 21.956641411133926 1 rotate no_reflect no_shear #
lump $-1 $-1 $47 $8 #
transform $-1 1 0 0 0 1 0 0 0 1 76.050904873805962 51.159302362129367 21.956641411133926 1 rotate no_reflect no_shear #
lump $-1 $-1 $48 $9 #
transform $-1 1 0 0 0 1 0 0 0 1 76.050904873805962 51.159302362129367 21.956641411133926 1 rotate no_reflect no_shear #
lump $-1 $-1 $49 $10 #
transform $-1 1 0 0 0 1 0 0 0 1 76.050904873805962 51.159302362129367 21.956641411133926 1 rotate no_reflect no_shear #
lump $-1 $-1 $50 $11 #
transform $-1 1 0 0 0 1 0 0 0 1 76.050904873805962 51.159302362129367 21.956641411133926 1 rotate no_reflect no_shear #
lump $-1 $-1 $51 $12 #
transform $-1 1 0 0 0 1 0 0 0 1 76.050904873805962 51.159302362129367 21.956641411133926 1 rotate no_reflect no_shear #
shell $-1 $-1 $-1 $52 $-1 $13 #
shell $-1 $-1 $-1 $53 $-1 $15 #
shell $-1 $-1 $-1 $54 $-1 $17 #
shell $-1 $-1 $-1 $55 $-1 $19 #
shell $-1 $-1 $-1 $56 $-1 $21 #
shell $-1 $-1 $-1 $57 $-1 $23 #
shell $-1 $-1 $-1 $58 $-1 $25 #
shell $-1 $-1 $-1 $59 $-1 $27 #
shell $-1 $-1 $-1 $60 $-1 $29 #
shell $-1 $-1 $-1 $61 $-1 $31 #
shell $-1 $-1 $-1 $62 $-1 $33 #
shell $-1 $-1 $-1 $63 $-1 $35 #
shell $-1 $-1 $-1 $64 $-1 $37 #
face $-1 $65 $66 $39 $-1 $67 forward single #
face $-1 $68 $69 $40 $-1 $70 reversed single #
face $-1 $71 $72 $41 $-1 $73 reversed single #
face $-1 $74 $75 $42 $-1 $76 forward single #
face $-1 $77 $78 $43 $-1 $79 forward single #
face $-1 $80 $81 $44 $-1 $82 reversed single #
face $-1 $83 $84 $45 $-1 $85 forward single #
face $-1 $86 $87 $46 $-1 $88 reversed single #
face $-1 $89 $90 $47 $-1 $91 forward single #
face $-1 $92 $93 $48 $-1 $94 reversed single #
face $-1 $95 $96 $49 $-1 $97 forward single #
face $-1 $98 $99 $50 $-1 $100 reversed single #
face $-1 $101 $102 $51 $-1 $103 forward single #
face $-1 $104 $105 $39 $-1 $106 reversed single #
loop $-1 $-1 $107 $52 #
plane-surface $-1 0 0 21.956641411133926 0 0 1 1 0 0 forward_v I I I I #
face $-1 $108 $109 $40 $-1 $110 reversed single #
loop $-1 $-1 $111 $53 #
plane-surface $-1 -65.460877725736168 -15.335139196434483 0 0 1 0 0 0 1 forward_v I I I I #
face $-1 $112 $113 $41 $-1 $114 reversed single #
loop $-1 $-1 $115 $54 #
plane-surface $-1 26.998459173871929 73.726238675533921 190.72609713212614 1 0 0 0 -0.6560590369687036 -0.75470957328743171 forward_v I I I I #
face $-1 $116 $117 $42 $-1 $118 forward single #
loop $-1 $119 $120 $55 #
cone-surface $-1 34.13414548545299 42.039988540968885 13.59212588817161 0 -0.6560590369687036 -0.75470957328743171 1.5 0 0 1 I I 0 1 1.5 forward I I I I #
face $-1 $121 $122 $43 $-1 $123 forward single #
loop $-1 $124 $125 $56 #
cone-surface $-1 44.837674952824585 42.039988540968885 13.59212588817161 0 -0.6560590369687036 -0.75470957328743171 1.5 0 0 1 I I 0 1 1.5 forward I I I I #
face $-1 $126 $127 $44 $-1 $128 reversed single #
loop $-1 $-1 $129 $57 #
plane-surface $-1 -38.924063741210674 -174.2122525678987 91.04737673137916 -1 0 0 0 -0.80901700255871778 0.5877852410284794 forward_v I I I I #
face $-1 $130 $131 $45 $-1 $132 forward single #
loop $-1 $133 $134 $58 #
cone-surface $-1 -46.897457159438524 -41.191313860197184 9.9193515478128926 0 0.80901700255871778 -0.5877852410284794 2.5 0 0 1 I I 0 1 2.5 forward I I I I #
face $-1 $135 $136 $46 $-1 $137 reversed single #
loop $-1 $-1 $138 $59 #
plane-surface $-1 -0.59907420287179747 -174.2122525678987 91.04737673137916 -1 0 0 0 -0.80901700255871778 0.5877852410284794 forward_v I I I I #
face $-1 $139 $140 $47 $-1 $141 forward single #
loop $-1 $142 $143 $60 #
cone-surface $-1 -8.5724676210996478 -41.191313860197184 9.9193515478128926 0 0.80901700255871778 -0.5877852410284794 2.5 0 0 1 I I 0 1 2.5 forward I I I I #
face $-1 $144 $145 $48 $-1 $146 reversed single #
loop $-1 $-1 $147 $61 #
plane-surface $-1 37.725915335467072 -174.2122525678987 91.04737673137916 -1 0 0 0 -0.80901700255871778 0.5877852410284794 forward_v I I I I #
face $-1 $148 $149 $49 $-1 $150 forward single #
loop $-1 $151 $152 $62 #
cone-surface $-1 29.752521917239221 -41.191313860197184 9.9193515478128926 0 0.80901700255871778 -0.5877852410284794 2.5 0 0 1 I I 0 1 2.5 forward I I I I #
face $-1 $153 $154 $50 $-1 $155 reversed single #
loop $-1 $-1 $156 $63 #
plane-surface $-1 68.077511455578104 -51.159302362129338 1.6441778280111663 0 -0.80901700255871778 0.5877852410284794 1 0 0 forward_v I I I I #
face $-1 $157 $158 $51 $-1 $159 forward single #
loop $-1 $160 $161 $64 #
cone-surface $-1 68.077511455578104 -41.191313860197184 9.9193515478128926 0 0.80901700255871778 -0.5877852410284794 2.5 0 0 1 I I 0 1 2.5 forward I I I I #
face $-1 $162 $163 $39 $-1 $164 reversed single #
loop $-1 $-1 $165 $65 #
plane-surface $-1 0 0 -21.956641411133926 0 0 1 1 0 0 forward_v I I I I #
coedge $-1 $166 $167 $168 $169 forward $66 $-1 #
face $-1 $170 $171 $40 $-1 $172 reversed single #
loop $-1 $-1 $173 $68 #
plane-surface $-1 -65.460877725736168 -7.246019539861507 0 0 -1 0 0 0 -1 forward_v I I I I #
coedge $-1 $174 $175 $176 $177 reversed $69 $-1 #
face $-1 $178 $179 $41 $-1 $180 reversed single #
loop $-1 $-1 $181 $71 #
plane-surface $-1 39.485910219138788 -26.061528148681333 75.933405201259831 0 0.6560590369687036 0.75470957328743171 1 0 0 forward_v I I I I #
coedge $-1 $182 $183 $184 $185 reversed $72 $-1 #
face $-1 $-1 $186 $42 $-1 $187 forward single #
loop $-1 $188 $189 $74 #
cone-surface $-1 34.13414548545299 39.992464466242254 11.23671892987009 0 -0.6560590369687036 -0.75470957328743171 0.75 0 0 1 I I -0.70710678118654757 0.70710678118654757 0.75 forward I I I I #
loop $-1 $-1 $190 $55 #
coedge $-1 $120 $120 $191 $192 reversed $75 $-1 #
face $-1 $-1 $193 $43 $-1 $194 forward single #
loop $-1 $195 $196 $77 #
cone-surface $-1 44.837674952824585 39.992464466242254 11.23671892987009 0 -0.6560590369687036 -0.75470957328743171 0.75 0 0 1 I I -0.70710678118654757 0.70710678118654757 0.75 forward I I I I #
loop $-1 $-1 $197 $56 #
coedge $-1 $125 $125 $198 $199 reversed $78 $-1 #
face $-1 $200 $201 $44 $-1 $202 reversed single #
loop $-1 $-1 $203 $80 #
plane-surface $-1 -46.897457159438524 -51.159302362129338 1.6441778280111663 0 -0.80901700255871778 0.5877852410284794 1 0 0 forward_v I I I I #
coedge $-1 $204 $205 $206 $207 reversed $81 $-1 #
face $-1 $-1 $208 $45 $-1 $209 forward single #
loop $-1 $210 $211 $83 #
cone-surface $-1 -46.897457159438524 -37.590988209867113 7.303561924767628 0 0.80901700255871778 -0.5877852410284794 1.25 0 0 1 I I -0.70710678118654746 0.70710678118654746 1.25 forward I I I I #
loop $-1 $-1 $212 $58 #
coedge $-1 $134 $134 $213 $214 reversed $84 $-1 #
face $-1 $215 $216 $46 $-1 $217 reversed single #
loop $-1 $-1 $218 $86 #
plane-surface $-1 -8.5724676210996478 -51.159302362129338 1.6441778280111663 0 -0.80901700255871778 0.5877852410284794 1 0 0 forward_v I I I I #
coedge $-1 $219 $220 $221 $222 reversed $87 $-1 #
face $-1 $-1 $223 $47 $-1 $224 forward single #
loop $-1 $225 $226 $89 #
cone-surface $-1 -8.5724676210996478 -37.590988209867113 7.303561924767628 0 0.80901700255871778 -0.5877852410284794 1.25 0 0 1 I I -0.70710678118654746 0.70710678118654746 1.25 forward I I I I #
loop $-1 $-1 $227 $60 #
coedge $-1 $143 $143 $228 $229 reversed $90 $-1 #
face $-1 $230 $231 $48 $-1 $232 reversed single #
loop $-1 $-1 $233 $92 #
plane-surface $-1 29.752521917239221 -51.159302362129338 1.6441778280111663 0 -0.80901700255871778 0.5877852410284794 1 0 0 forward_v I I I I #
coedge $-1 $234 $235 $236 $237 reversed $93 $-1 #
face $-1 $-1 $238 $49 $-1 $239 forward single #
loop $-1 $240 $241 $95 #
cone-surface $-1 29.752521917239221 -37.590988209867113 7.303561924767628 0 0.80901700255871778 -0.5877852410284794 1.25 0 0 1 I I -0.70710678118654746 0.70710678118654746 1.25 forward I I I I #
loop $-1 $-1 $242 $62 #
coedge $-1 $152 $152 $243 $244 reversed $96 $-1 #
face $-1 $245 $246 $50 $-1 $247 reversed single #
loop $-1 $-1 $248 $98 #
plane-surface $-1 60.104118037350254 -174.2122525678987 91.04737673137916 1 0 0 0 0.80901700255871778 -0.5877852410284794 forward_v I I I I #
coedge $-1 $249 $250 $251 $252 reversed $99 $-1 #
face $-1 $-1 $253 $51 $-1 $254 forward single #
loop $-1 $255 $256 $101 #
cone-surface $-1 68.077511455578104 -37.590988209867113 7.303561924767628 0 0.80901700255871778 -0.5877852410284794 1.25 0 0 1 I I -0.70710678118654746 0.70710678118654746 1.25 forward I I I I #
loop $-1 $-1 $257 $64 #
coedge $-1 $161 $161 $258 $259 reversed $102 $-1 #
face $-1 $260 $261 $39 $-1 $262 reversed single #
loop $-1 $-1 $263 $104 #
plane-surface $-1 0 -51.159302362129367 0 0 1 0 0 0 1 forward_v I I I I #
coedge $-1 $264 $265 $266 $267 forward $105 $-1 #
coedge $-1 $268 $107 $269 $270 forward $66 $-1 #
coedge $-1 $107 $268 $271 $272 forward $66 $-1 #
coedge $-1 $273 $274 $107 $169 reversed $275 $-1 #
edge $-1 $276 -51.159302362129367 $277 51.159302362129367 $168 $278 forward 7 unknown #
face $-1 $279 $280 $40 $-1 $281 reversed single #
loop $-1 $-1 $282 $108 #
plane-surface $-1 -54.870850577666374 -11.290579368147995 0 -1 0 0 0 0 1 forward_v I I I I #
coedge $-1 $283 $284 $285 $286 forward $109 $-1 #
coedge $-1 $287 $111 $288 $289 reversed $69 $-1 #
coedge $-1 $111 $287 $290 $291 reversed $69 $-1 #
coedge $-1 $292 $293 $111 $177 forward $294 $-1 #
edge $-1 $295 -21.956641411133926 $296 21.956641411133926 $176 $297 forward 7 unknown #
face $-1 $298 $299 $41 $-1 $300 reversed single #
loop $-1 $-1 $301 $112 #
plane-surface $-1 51.973361264405646 73.726238675533921 190.72609713212614 -1 0 0 0 0.6560590369687036 0.75470957328743171 forward_v I I I I #
coedge $-1 $302 $303 $304 $305 reversed $113 $-1 #
coedge $-1 $183 $115 $306 $307 reversed $72 $-1 #
coedge $-1 $115 $182 $302 $308 reversed $72 $-1 #
coedge $-1 $304 $309 $115 $185 forward $310 $-1 #
edge $-1 $311 -14.296183024362406 $312 0.83148502395834356 $184 $313 forward 7 unknown #
loop $-1 $-1 $191 $116 #
plane-surface $-1 39.485910219138788 -26.061528148681333 75.933405201259831 0 0.6560590369687036 0.75470957328743171 1 0 0 forward_v I I I I #
loop $-1 $-1 $314 $74 #
coedge $-1 $189 $189 $190 $315 reversed $117 $-1 #
coedge $-1 $190 $190 $189 $315 forward $119 $-1 #
coedge $-1 $191 $191 $120 $192 forward $186 $-1 #
edge $-1 $316 1.5538599431595979e-015 $316 6.2831853071796022 $191 $317 forward 7 unknown #
loop $-1 $-1 $198 $121 #
plane-surface $-1 39.485910219138788 -26.061528148681333 75.933405201259831 0 0.6560590369687036 0.75470957328743171 1 0 0 forward_v I I I I #
loop $-1 $-1 $318 $77 #
coedge $-1 $196 $196 $197 $319 reversed $122 $-1 #
coedge $-1 $197 $197 $196 $319 forward $124 $-1 #
coedge $-1 $198 $198 $125 $199 forward $193 $-1 #
edge $-1 $320 1.5538599431595979e-015 $320 6.2831853071796022 $198 $321 forward 7 unknown #
face $-1 $322 $323 $44 $-1 $324 forward single #
loop $-1 $-1 $325 $126 #
plane-surface $-1 -54.870850577666374 -174.2122525678987 91.04737673137916 1 0 0 0 0.80901700255871778 -0.5877852410284794 forward_v I I I I #
coedge $-1 $326 $327 $328 $329 reversed $127 $-1 #
coedge $-1 $205 $129 $330 $331 reversed $81 $-1 #
coedge $-1 $129 $204 $326 $332 reversed $81 $-1 #
coedge $-1 $328 $333 $129 $207 forward $323 $-1 #
edge $-1 $334 35.946823921819984 $335 50.704692131421048 $206 $336 forward 7 unknown #
loop $-1 $-1 $213 $130 #
plane-surface $-1 -46.897457159438524 -51.159302362129338 1.6441778280111663 0 -0.80901700255871778 0.5877852410284794 1 0 0 forward_v I I I I #
loop $-1 $-1 $337 $83 #
coedge $-1 $211 $211 $212 $338 reversed $131 $-1 #
coedge $-1 $212 $212 $211 $338 forward $133 $-1 #
coedge $-1 $213 $213 $134 $214 forward $208 $-1 #
edge $-1 $339 2.1574932009751726e-016 $339 6.2831853071796004 $213 $340 forward 7 unknown #
face $-1 $341 $342 $46 $-1 $343 reversed single #
loop $-1 $-1 $344 $135 #
plane-surface $-1 -16.545861039327498 -174.2122525678987 91.04737673137916 1 0 0 0 0.80901700255871778 -0.5877852410284794 forward_v I I I I #
coedge $-1 $345 $346 $347 $348 reversed $136 $-1 #
coedge $-1 $220 $138 $349 $350 reversed $87 $-1 #
coedge $-1 $138 $219 $345 $351 reversed $87 $-1 #
coedge $-1 $347 $352 $138 $222 forward $353 $-1 #
edge $-1 $354 35.946823921819984 $355 50.704692131421048 $221 $356 forward 7 unknown #
loop $-1 $-1 $228 $139 #
plane-surface $-1 -8.5724676210996478 -51.159302362129338 1.6441778280111663 0 -0.80901700255871778 0.5877852410284794 1 0 0 forward_v I I I I #
loop $-1 $-1 $357 $89 #
coedge $-1 $226 $226 $227 $358 reversed $140 $-1 #
coedge $-1 $227 $227 $226 $358 forward $142 $-1 #
coedge $-1 $228 $228 $143 $229 forward $223 $-1 #
edge $-1 $359 2.1574932009751726e-016 $359 6.2831853071796004 $228 $360 forward 7 unknown #
face $-1 $361 $362 $48 $-1 $363 reversed single #
loop $-1 $-1 $364 $144 #
plane-surface $-1 21.779128499011371 -174.2122525678987 91.04737673137916 1 0 0 0 0.80901700255871778 -0.5877852410284794 forward_v I I I I #
coedge $-1 $365 $366 $367 $368 reversed $145 $-1 #
coedge $-1 $235 $147 $369 $370 reversed $93 $-1 #
coedge $-1 $147 $234 $365 $371 reversed $93 $-1 #
coedge $-1 $367 $372 $147 $237 forward $373 $-1 #
edge $-1 $374 35.946823921819984 $375 50.704692131421048 $236 $376 forward 7 unknown #
loop $-1 $-1 $243 $148 #
plane-surface $-1 29.752521917239221 -51.159302362129338 1.6441778280111663 0 -0.80901700255871778 0.5877852410284794 1 0 0 forward_v I I I I #
loop $-1 $-1 $377 $95 #
coedge $-1 $241 $241 $242 $378 reversed $149 $-1 #
coedge $-1 $242 $242 $241 $378 forward $151 $-1 #
coedge $-1 $243 $243 $152 $244 forward $238 $-1 #
edge $-1 $379 2.1574932009751726e-016 $379 6.2831853071796004 $243 $380 forward 7 unknown #
face $-1 $381 $382 $50 $-1 $383 forward single #
loop $-1 $-1 $384 $153 #
plane-surface $-1 0 -51.159302362129367 0 0 1 0 0 0 1 forward_v I I I I #
coedge $-1 $385 $386 $387 $388 reversed $154 $-1 #
coedge $-1 $389 $156 $390 $391 reversed $99 $-1 #
coedge $-1 $156 $389 $385 $392 forward $99 $-1 #
coedge $-1 $387 $393 $156 $252 forward $382 $-1 #
edge $-1 $394 -42.01214914601691 $395 -26.065362309561202 $251 $396 forward 7 unknown #
loop $-1 $-1 $258 $157 #
plane-surface $-1 68.077511455578104 -51.159302362129338 1.6441778280111663 0 -0.80901700255871778 0.5877852410284794 1 0 0 forward_v I I I I #
loop $-1 $-1 $397 $101 #
coedge $-1 $256 $256 $257 $398 reversed $158 $-1 #
coedge $-1 $257 $257 $256 $398 forward $160 $-1 #
coedge $-1 $258 $258 $161 $259 forward $253 $-1 #
edge $-1 $399 2.1574932009751726e-016 $399 6.2831853071796004 $258 $400 forward 7 unknown #
face $-1 $401 $402 $39 $-1 $403 reversed single #
loop $-1 $-1 $404 $162 #
plane-surface $-1 -76.050904873805962 0 0 1 0 0 0 0 -1 forward_v I I I I #
coedge $-1 $405 $271 $406 $407 forward $163 $-1 #
coedge $-1 $408 $165 $405 $409 forward $105 $-1 #
coedge $-1 $165 $408 $410 $411 forward $105 $-1 #
coedge $-1 $274 $273 $165 $267 reversed $275 $-1 #
edge $-1 $412 -51.159302362129367 $413 51.159302362129367 $266 $414 forward 7 unknown #
coedge $-1 $167 $166 $415 $416 forward $66 $-1 #
coedge $-1 $417 $418 $166 $270 reversed $402 $-1 #
edge $-1 $277 -76.050904873805962 $419 76.050904873805962 $269 $420 forward 7 unknown #
coedge $-1 $263 $421 $167 $272 reversed $163 $-1 #
edge $-1 $422 -76.050904873805962 $276 76.050904873805962 $271 $423 forward 7 unknown #
coedge $-1 $266 $168 $421 $424 forward $275 $-1 #
coedge $-1 $168 $266 $417 $425 reversed $275 $-1 #
loop $-1 $-1 $273 $401 #
vertex $-1 $169 $426 #
vertex $-1 $169 $427 #
straight-curve $-1 76.050904873805962 0 21.956641411133926 0 1 0 I I #
face $-1 $428 $429 $40 $-1 $430 forward single #
loop $-1 $-1 $431 $170 #
plane-surface $-1 0 0 -21.956641411133926 0 0 1 1 0 0 forward_v I I I I #
coedge $-1 $432 $433 $287 $434 forward $171 $-1 #
coedge $-1 $435 $173 $431 $436 reversed $109 $-1 #
coedge $-1 $173 $435 $437 $438 reversed $109 $-1 #
coedge $-1 $433 $432 $173 $286 reversed $171 $-1 #
edge $-1 $439 -21.956641411133926 $440 21.956641411133926 $285 $441 forward 7 unknown #
coedge $-1 $175 $174 $282 $434 reversed $69 $-1 #
coedge $-1 $442 $443 $174 $289 forward $280 $-1 #
edge $-1 $444 22.14041171479829 $295 43.320466010937878 $288 $445 forward 7 unknown #
coedge $-1 $446 $447 $175 $291 forward $429 $-1 #
edge $-1 $296 -43.320466010937878 $448 -22.14041171479829 $290 $449 forward 7 unknown #
coedge $-1 $450 $176 $447 $451 reversed $294 $-1 #
coedge $-1 $176 $450 $442 $452 reversed $294 $-1 #
loop $-1 $-1 $450 $428 #
vertex $-1 $452 $453 #
vertex $-1 $177 $454 #
straight-curve $-1 -76.050904873805962 -15.335139196434483 0 0 0 1 I I #
face $-1 $-1 $310 $41 $-1 $455 forward single #
loop $-1 $-1 $456 $178 #
plane-surface $-1 0 51.159302362129367 0 0 -1 0 0 0 -1 forward_v I I I I #
coedge $-1 $457 $458 $459 $460 reversed $179 $-1 #
coedge $-1 $461 $181 $183 $308 forward $113 $-1 #
coedge $-1 $181 $461 $457 $462 forward $113 $-1 #
coedge $-1 $459 $184 $181 $305 forward $310 $-1 #
edge $-1 $312 7.255504064302535 $463 32.230406154836253 $304 $464 forward 7 unknown #
coedge $-1 $465 $466 $182 $307 forward $299 $-1 #
edge $-1 $467 -86.556688644181875 $311 -73.406407154929141 $306 $468 forward 7 unknown #
edge $-1 $312 82.27424781697016 $467 102.31860472425873 $183 $469 forward 7 unknown #
coedge $-1 $184 $459 $465 $470 forward $310 $-1 #
loop $-1 $-1 $459 $298 #
vertex $-1 $307 $471 #
vertex $-1 $185 $472 #
straight-curve $-1 26.998459173871929 36.86311933776696 21.95664141113393 0 -1 0 I I #
coedge $-1 $314 $314 $-1 $473 reversed $188 $-1 #
edge $-1 $474 0 $474 6.2831853071796004 $189 $475 forward 7 unknown #
vertex $-1 $192 $476 #
ellipse-curve $-1 34.13414548545299 43.595468337968988 15.381500666507559 0 0.6560590369687036 0.75470957328743171 1.5 0 0 1 I I #
coedge $-1 $318 $318 $-1 $477 reversed $195 $-1 #
edge $-1 $478 0 $478 6.2831853071796004 $196 $479 forward 7 unknown #
vertex $-1 $199 $480 #
ellipse-curve $-1 44.837674952824585 43.595468337968988 15.381500666507559 0 0.6560590369687036 0.75470957328743171 1.5 0 0 1 I I #
face $-1 $-1 $481 $44 $-1 $482 reversed single #
loop $-1 $-1 $206 $200 #
plane-surface $-1 0 0 21.956641411133926 0 0 1 1 0 0 forward_v I I I I #
coedge $-1 $483 $484 $485 $486 reversed $201 $-1 #
coedge $-1 $487 $203 $205 $332 forward $127 $-1 #
coedge $-1 $203 $487 $483 $488 forward $127 $-1 #
coedge $-1 $485 $206 $203 $329 forward $323 $-1 #
edge $-1 $335 15.475335161491412 $489 31.422121997947112 $328 $490 forward 7 unknown #
coedge $-1 $491 $492 $204 $331 forward $481 $-1 #
edge $-1 $493 -43.879510537678456 $334 -23.567046954555654 $330 $494 forward 7 unknown #
edge $-1 $335 -25.107585525247966 $493 4.8322124813089328e-014 $205 $495 forward 7 unknown #
coedge $-1 $206 $485 $491 $496 forward $323 $-1 #
vertex $-1 $331 $497 #
vertex $-1 $207 $498 #
straight-curve $-1 -38.924063741210674 -87.106126283949351 21.956641411133923 0 1 0 I I #
coedge $-1 $337 $337 $-1 $499 reversed $210 $-1 #
edge $-1 $500 0 $500 6.2831853071796004 $211 $501 forward 7 unknown #
vertex $-1 $214 $502 #
ellipse-curve $-1 -46.897457159438524 -43.780368257328831 11.800409619572536 0 -0.80901700255871778 0.5877852410284794 2.5 0 0 1 I I #
face $-1 $-1 $353 $46 $-1 $503 forward single #
loop $-1 $-1 $504 $215 #
plane-surface $-1 0 -51.159302362129367 0 0 1 0 0 0 1 forward_v I I I I #
coedge $-1 $505 $506 $507 $508 reversed $216 $-1 #
coedge $-1 $509 $218 $220 $351 forward $136 $-1 #
coedge $-1 $218 $509 $505 $510 forward $136 $-1 #
coedge $-1 $507 $221 $218 $348 forward $353 $-1 #
edge $-1 $355 -3.6871596076780264 $511 12.259627228777674 $347 $512 forward 7 unknown #
coedge $-1 $513 $514 $219 $350 forward $342 $-1 #
edge $-1 $515 -43.879510537678456 $354 -23.567046954555654 $349 $516 forward 7 unknown #
edge $-1 $355 -25.107585525247966 $515 4.8322124813089328e-014 $220 $517 forward 7 unknown #
coedge $-1 $221 $507 $513 $518 forward $353 $-1 #
loop $-1 $-1 $507 $341 #
vertex $-1 $350 $519 #
vertex $-1 $222 $520 #
straight-curve $-1 -0.59907420287179747 -87.106126283949351 21.956641411133923 0 1 0 I I #
coedge $-1 $357 $357 $-1 $521 reversed $225 $-1 #
edge $-1 $522 0 $522 6.2831853071796004 $226 $523 forward 7 unknown #
vertex $-1 $229 $524 #
ellipse-curve $-1 -8.5724676210996478 -43.780368257328831 11.800409619572536 0 -0.80901700255871778 0.5877852410284794 2.5 0 0 1 I I #
face $-1 $-1 $373 $48 $-1 $525 forward single #
loop $-1 $-1 $526 $230 #
plane-surface $-1 0 -51.159302362129367 0 0 1 0 0 0 1 forward_v I I I I #
coedge $-1 $527 $528 $529 $530 reversed $231 $-1 #
coedge $-1 $531 $233 $235 $371 forward $145 $-1 #
coedge $-1 $233 $531 $527 $532 forward $145 $-1 #
coedge $-1 $529 $236 $233 $368 forward $373 $-1 #
edge $-1 $375 -22.849654376847461 $533 -6.9028675403917603 $367 $534 forward 7 unknown #
coedge $-1 $535 $536 $234 $370 forward $362 $-1 #
edge $-1 $537 -43.879510537678456 $374 -23.567046954555654 $369 $538 forward 7 unknown #
edge $-1 $375 -25.107585525247966 $537 4.8322124813089328e-014 $235 $539 forward 7 unknown #
coedge $-1 $236 $529 $535 $540 forward $373 $-1 #
loop $-1 $-1 $529 $361 #
vertex $-1 $370 $541 #
vertex $-1 $237 $542 #
straight-curve $-1 37.725915335467072 -87.106126283949351 21.956641411133923 0 1 0 I I #
coedge $-1 $377 $377 $-1 $543 reversed $240 $-1 #
edge $-1 $544 0 $544 6.2831853071796004 $241 $545 forward 7 unknown #
vertex $-1 $244 $546 #
ellipse-curve $-1 29.752521917239221 -43.780368257328831 11.800409619572536 0 -0.80901700255871778 0.5877852410284794 2.5 0 0 1 I I #
face $-1 $-1 $547 $50 $-1 $548 reversed single #
loop $-1 $-1 $387 $245 #
plane-surface $-1 0 0 21.956641411133926 0 0 1 1 0 0 forward_v I I I I #
coedge $-1 $549 $550 $386 $551 forward $246 $-1 #
coedge $-1 $386 $248 $250 $392 reversed $154 $-1 #
coedge $-1 $248 $385 $384 $551 reversed $154 $-1 #
coedge $-1 $552 $251 $248 $388 forward $382 $-1 #
edge $-1 $395 -50.704692131421048 $553 -35.946823921819984 $387 $554 forward 7 unknown #
coedge $-1 $250 $249 $549 $555 reversed $99 $-1 #
coedge $-1 $556 $557 $249 $391 forward $547 $-1 #
edge $-1 $558 -14.370257525841026 $394 10.73732799940699 $390 $559 forward 7 unknown #
edge $-1 $560 -4.8322124813089328e-014 $395 25.107585525247966 $385 $561 forward 7 unknown #
coedge $-1 $251 $552 $556 $562 forward $382 $-1 #
vertex $-1 $391 $563 #
vertex $-1 $252 $564 #
straight-curve $-1 34.038755727789052 -36.401434152528303 21.956641411133926 -1 0 0 I I #
coedge $-1 $397 $397 $-1 $565 reversed $255 $-1 #
edge $-1 $566 0 $566 6.2831853071796004 $256 $567 forward 7 unknown #
vertex $-1 $259 $568 #
ellipse-curve $-1 68.077511455578104 -43.780368257328831 11.800409619572536 0 -0.80901700255871778 0.5877852410284794 2.5 0 0 1 I I #
face $-1 $-1 $275 $39 $-1 $569 reversed single #
loop $-1 $-1 $417 $260 #
plane-surface $-1 0 51.159302362129367 0 0 -1 0 0 0 -1 forward_v I I I I #
coedge $-1 $570 $415 $418 $571 forward $261 $-1 #
coedge $-1 $421 $263 $264 $409 reversed $163 $-1 #
coedge $-1 $415 $570 $263 $407 reversed $261 $-1 #
edge $-1 $422 -21.956641411133926 $572 21.956641411133926 $406 $573 forward 7 unknown #
coedge $-1 $265 $264 $570 $574 forward $105 $-1 #
edge $-1 $413 -76.050904873805962 $572 76.050904873805962 $405 $575 forward 7 unknown #
coedge $-1 $418 $417 $265 $411 reversed $402 $-1 #
edge $-1 $576 -76.050904873805962 $412 76.050904873805962 $410 $577 forward 7 unknown #
vertex $-1 $267 $578 #
vertex $-1 $424 $579 #
straight-curve $-1 76.050904873805962 0 -21.956641411133926 0 -1 0 I I #
coedge $-1 $404 $406 $268 $416 reversed $261 $-1 #
edge $-1 $419 -51.159302362129367 $422 51.159302362129367 $415 $580 forward 7 unknown #
coedge $-1 $410 $269 $274 $425 forward $402 $-1 #
coedge $-1 $269 $410 $404 $571 reversed $402 $-1 #
vertex $-1 $270 $581 #
straight-curve $-1 0 51.159302362129367 21.956641411133926 -1 0 0 I I #
coedge $-1 $271 $405 $273 $424 reversed $163 $-1 #
vertex $-1 $416 $582 #
straight-curve $-1 0 -51.159302362129367 21.956641411133926 1 0 0 I I #
edge $-1 $276 -21.956641411133926 $413 21.956641411133926 $273 $583 forward 7 unknown #
edge $-1 $277 -21.956641411133926 $412 21.956641411133926 $274 $584 forward 7 unknown #
point $-1 76.050904873805962 -51.159302362129367 21.956641411133926 #
point $-1 76.050904873805962 51.159302362129367 21.956641411133926 #
face $-1 $-1 $294 $40 $-1 $585 reversed single #
loop $-1 $-1 $437 $279 #
plane-surface $-1 0 0 21.956641411133926 0 0 1 1 0 0 forward_v I I I I #
coedge $-1 $443 $442 $283 $436 forward $280 $-1 #
coedge $-1 $285 $282 $443 $586 reversed $171 $-1 #
coedge $-1 $282 $285 $446 $587 reversed $171 $-1 #
edge $-1 $448 -21.956641411133926 $444 21.956641411133926 $282 $588 forward 7 unknown #
coedge $-1 $284 $283 $450 $589 reversed $109 $-1 #
edge $-1 $590 -43.320466010937878 $440 -22.14041171479829 $431 $591 forward 7 unknown #
coedge $-1 $447 $446 $284 $438 forward $429 $-1 #
edge $-1 $439 22.14041171479829 $592 43.320466010937878 $437 $593 forward 7 unknown #
vertex $-1 $438 $594 #
vertex $-1 $436 $595 #
straight-curve $-1 -54.870850577666374 -7.246019539861507 0 0 0 -1 I I #
coedge $-1 $431 $288 $293 $452 forward $280 $-1 #
coedge $-1 $288 $431 $432 $586 forward $280 $-1 #
vertex $-1 $289 $596 #
straight-curve $-1 -32.730438862868084 -15.335139196434483 -21.956641411133926 -1 0 0 I I #
coedge $-1 $437 $290 $433 $587 forward $429 $-1 #
coedge $-1 $290 $437 $292 $451 forward $429 $-1 #
vertex $-1 $291 $597 #
straight-curve $-1 -32.730438862868084 -15.335139196434483 21.956641411133926 1 0 0 I I #
coedge $-1 $293 $292 $435 $589 forward $294 $-1 #
edge $-1 $592 7.246019539861507 $296 15.335139196434483 $292 $598 forward 7 unknown #
edge $-1 $295 -15.335139196434483 $590 -7.246019539861507 $293 $599 forward 7 unknown #
point $-1 -76.050904873805962 -15.335139196434483 -21.956641411133926 #
point $-1 -76.050904873805962 -15.335139196434483 21.956641411133926 #
plane-surface $-1 0 0 21.956641411133926 0 0 1 1 0 0 forward_v I I I I #
coedge $-1 $466 $465 $458 $600 forward $299 $-1 #
coedge $-1 $458 $301 $303 $462 reversed $179 $-1 #
coedge $-1 $301 $457 $456 $600 reversed $179 $-1 #
coedge $-1 $309 $304 $301 $460 forward $310 $-1 #
edge $-1 $463 -0.83148502395834356 $601 14.296183024362406 $459 $602 forward 7 unknown #
coedge $-1 $303 $302 $466 $603 reversed $113 $-1 #
edge $-1 $604 -102.31860472425873 $463 -82.27424781697016 $457 $605 forward 7 unknown #
vertex $-1 $305 $606 #
straight-curve $-1 19.742955109569394 36.031634313808617 21.95664141113393 1 0 0 I I #
coedge $-1 $456 $306 $309 $470 reversed $299 $-1 #
coedge $-1 $306 $456 $461 $603 forward $299 $-1 #
vertex $-1 $307 $607 #
straight-curve $-1 26.998459173871929 51.159302362129367 95.363048566063071 0 0 1 I I #
straight-curve $-1 26.998459173871929 -26.061528148681333 75.933405201259831 0 0.75470957328743171 -0.6560590369687036 I I #
edge $-1 $601 -51.973361264405646 $311 -26.998459173871929 $465 $608 forward 7 unknown #
point $-1 26.998459173871929 51.159302362129367 21.956641411133926 #
point $-1 26.998459173871929 36.031634313808617 21.95664141113393 #
edge $-1 $609 1 $609 0 $314 $-1 forward 7 unknown #
vertex $-1 $315 $610 #
ellipse-curve $-1 34.13414548545299 40.484508743968782 11.802751109835663 0 0.6560590369687036 0.75470957328743171 1.5 0 0 1 I I #
point $-1 35.63414548545299 43.595468337968988 15.381500666507556 #
edge $-1 $611 1 $611 0 $318 $-1 forward 7 unknown #
vertex $-1 $319 $612 #
ellipse-curve $-1 44.837674952824585 40.484508743968782 11.802751109835663 0 0.6560590369687036 0.75470957328743171 1.5 0 0 1 I I #
point $-1 46.337674952824585 43.595468337968988 15.381500666507556 #
loop $-1 $-1 $330 $322 #
plane-surface $-1 0 -51.159302362129367 0 0 1 0 0 0 1 forward_v I I I I #
coedge $-1 $484 $325 $327 $488 reversed $201 $-1 #
coedge $-1 $325 $483 $613 $614 reversed $201 $-1 #
coedge $-1 $333 $328 $325 $486 forward $323 $-1 #
edge $-1 $489 -50.704692131421048 $615 -35.946823921819984 $485 $616 forward 7 unknown #
coedge $-1 $327 $326 $492 $617 reversed $127 $-1 #
edge $-1 $618 -4.8322124813089328e-014 $489 25.107585525247966 $483 $619 forward 7 unknown #
vertex $-1 $329 $620 #
straight-curve $-1 -23.448728579719262 -36.401434152528303 21.956641411133926 -1 0 0 I I #
coedge $-1 $613 $330 $333 $496 reversed $481 $-1 #
coedge $-1 $330 $613 $487 $617 forward $481 $-1 #
vertex $-1 $331 $621 #
straight-curve $-1 -38.924063741210674 -51.159302362129367 45.52368836568958 0 0 1 I I #
straight-curve $-1 -38.924063741210674 -51.159302362129338 1.6441778280111663 0 -0.5877852410284794 -0.80901700255871778 I I #
edge $-1 $615 -54.870850577666374 $334 -38.924063741210674 $491 $622 forward 7 unknown #
point $-1 -38.924063741210674 -51.159302362129367 21.956641411133926 #
point $-1 -38.924063741210674 -36.401434152528303 21.956641411133926 #
edge $-1 $623 1 $623 0 $337 $-1 forward 7 unknown #
vertex $-1 $338 $624 #
ellipse-curve $-1 -46.897457159438524 -38.602259463065508 8.0382934760532265 0 -0.80901700255871778 0.5877852410284794 2.5 0 0 1 I I #
point $-1 -44.397457159438524 -43.78036825732886 11.800409619572557 #
plane-surface $-1 0 0 21.956641411133926 0 0 1 1 0 0 forward_v I I I I #
coedge $-1 $514 $513 $506 $625 forward $342 $-1 #
coedge $-1 $506 $344 $346 $510 reversed $216 $-1 #
coedge $-1 $344 $505 $504 $625 reversed $216 $-1 #
coedge $-1 $352 $347 $344 $508 forward $353 $-1 #
edge $-1 $511 -50.704692131421048 $626 -35.946823921819984 $507 $627 forward 7 unknown #
coedge $-1 $346 $345 $514 $628 reversed $136 $-1 #
edge $-1 $629 -4.8322124813089328e-014 $511 25.107585525247966 $505 $630 forward 7 unknown #
vertex $-1 $348 $631 #
straight-curve $-1 -4.2862338105498239 -36.401434152528303 21.956641411133926 -1 0 0 I I #
coedge $-1 $504 $349 $352 $518 reversed $342 $-1 #
coedge $-1 $349 $504 $509 $628 forward $342 $-1 #
vertex $-1 $350 $632 #
straight-curve $-1 -0.59907420287179747 -51.159302362129367 45.52368836568958 0 0 1 I I #
straight-curve $-1 -0.59907420287179747 -51.159302362129338 1.6441778280111663 0 -0.5877852410284794 -0.80901700255871778 I I #
edge $-1 $626 -16.545861039327498 $354 -0.59907420287179747 $513 $633 forward 7 unknown #
point $-1 -0.59907420287179747 -51.159302362129367 21.956641411133926 #
point $-1 -0.59907420287179747 -36.401434152528303 21.956641411133926 #
edge $-1 $634 1 $634 0 $357 $-1 forward 7 unknown #
vertex $-1 $358 $635 #
ellipse-curve $-1 -8.5724676210996478 -38.602259463065508 8.0382934760532265 0 -0.80901700255871778 0.5877852410284794 2.5 0 0 1 I I #
point $-1 -6.0724676210996478 -43.78036825732886 11.800409619572557 #
plane-surface $-1 0 0 21.956641411133926 0 0 1 1 0 0 forward_v I I I I #
coedge $-1 $536 $535 $528 $636 forward $362 $-1 #
coedge $-1 $528 $364 $366 $532 reversed $231 $-1 #
coedge $-1 $364 $527 $526 $636 reversed $231 $-1 #
coedge $-1 $372 $367 $364 $530 forward $373 $-1 #
edge $-1 $533 -50.704692131421048 $637 -35.946823921819984 $529 $638 forward 7 unknown #
coedge $-1 $366 $365 $536 $639 reversed $145 $-1 #
edge $-1 $640 -4.8322124813089328e-014 $533 25.107585525247966 $527 $641 forward 7 unknown #
vertex $-1 $368 $642 #
straight-curve $-1 14.876260958619611 -36.401434152528303 21.956641411133926 -1 0 0 I I #
coedge $-1 $526 $369 $372 $540 reversed $362 $-1 #
coedge $-1 $369 $526 $531 $639 forward $362 $-1 #
vertex $-1 $370 $643 #
straight-curve $-1 37.725915335467072 -51.159302362129367 45.52368836568958 0 0 1 I I #
straight-curve $-1 37.725915335467072 -51.159302362129338 1.6441778280111663 0 -0.5877852410284794 -0.80901700255871778 I I #
edge $-1 $637 21.779128499011371 $374 37.725915335467072 $535 $644 forward 7 unknown #
point $-1 37.725915335467072 -51.159302362129367 21.956641411133926 #
point $-1 37.725915335467072 -36.401434152528303 21.956641411133926 #
edge $-1 $645 1 $645 0 $377 $-1 forward 7 unknown #
vertex $-1 $378 $646 #
ellipse-curve $-1 29.752521917239221 -38.602259463065508 8.0382934760532265 0 -0.80901700255871778 0.5877852410284794 2.5 0 0 1 I I #
point $-1 32.252521917239221 -43.78036825732886 11.800409619572557 #
loop $-1 $-1 $390 $381 #
plane-surface $-1 76.050904873805962 0 0 -1 0 0 0 0 1 forward_v I I I I #
coedge $-1 $647 $384 $389 $555 forward $246 $-1 #
coedge $-1 $384 $647 $552 $648 reversed $246 $-1 #
edge $-1 $553 23.567046954555654 $560 43.879510537678456 $384 $649 forward 7 unknown #
coedge $-1 $393 $387 $550 $648 forward $382 $-1 #
vertex $-1 $648 $650 #
straight-curve $-1 60.104118037350254 -87.106126283949351 21.956641411133923 0 -1 0 I I #
edge $-1 $560 26.065362309561202 $558 42.01214914601691 $549 $651 forward 7 unknown #
coedge $-1 $557 $390 $393 $562 reversed $547 $-1 #
coedge $-1 $390 $556 $647 $652 forward $547 $-1 #
vertex $-1 $555 $653 #
straight-curve $-1 76.050904873805962 -42.712677078661578 13.269960497563888 0 0.5877852410284794 0.80901700255871778 I I #
vertex $-1 $555 $654 #
straight-curve $-1 60.104118037350254 -51.159302362129338 1.6441778280111663 0 0.5877852410284794 0.80901700255871778 I I #
edge $-1 $655 -51.159302362129367 $394 -36.401434152528303 $556 $656 forward 7 unknown #
point $-1 76.050904873805962 -36.401434152528303 21.956641411133926 #
point $-1 60.104118037350254 -36.401434152528303 21.956641411133926 #
edge $-1 $657 1 $657 0 $397 $-1 forward 7 unknown #
vertex $-1 $398 $658 #
ellipse-curve $-1 68.077511455578104 -38.602259463065508 8.0382934760532265 0 -0.80901700255871778 0.5877852410284794 2.5 0 0 1 I I #
point $-1 70.577511455578104 -43.78036825732886 11.800409619572557 #
plane-surface $-1 76.050904873805962 0 0 -1 0 0 0 0 1 forward_v I I I I #
coedge $-1 $406 $404 $408 $574 reversed $261 $-1 #
edge $-1 $419 -21.956641411133926 $576 21.956641411133926 $418 $659 forward 7 unknown #
vertex $-1 $574 $660 #
straight-curve $-1 -76.050904873805962 -51.159302362129367 0 0 0 -1 I I #
edge $-1 $572 -51.159302362129367 $576 51.159302362129367 $570 $661 forward 7 unknown #
straight-curve $-1 0 -51.159302362129367 -21.956641411133926 -1 0 0 I I #
vertex $-1 $411 $662 #
straight-curve $-1 0 51.159302362129367 -21.956641411133926 1 0 0 I I #
point $-1 76.050904873805962 51.159302362129367 -21.956641411133926 #
point $-1 76.050904873805962 -51.159302362129367 -21.956641411133926 #
straight-curve $-1 -76.050904873805962 0 21.956641411133926 0 -1 0 I I #
point $-1 -76.050904873805962 51.159302362129367 21.956641411133926 #
point $-1 -76.050904873805962 -51.159302362129367 21.956641411133926 #
straight-curve $-1 76.050904873805962 -51.159302362129367 0 0 0 -1 I I #
straight-curve $-1 76.050904873805962 51.159302362129367 0 0 0 -1 I I #
plane-surface $-1 -76.050904873805962 0 0 1 0 0 0 0 -1 forward_v I I I I #
edge $-1 $440 1.6007298557875096 $444 9.6898495123604853 $443 $663 forward 7 unknown #
edge $-1 $448 -9.6898495123604853 $439 -1.6007298557875096 $446 $664 forward 7 unknown #
straight-curve $-1 -54.870850577666374 -15.335139196434483 0 0 0 -1 I I #
edge $-1 $592 -21.956641411133926 $590 21.956641411133926 $450 $665 forward 7 unknown #
vertex $-1 $589 $666 #
straight-curve $-1 -32.730438862868084 -7.246019539861507 -21.956641411133926 1 0 0 I I #
vertex $-1 $451 $667 #
straight-curve $-1 -32.730438862868084 -7.246019539861507 21.956641411133926 -1 0 0 I I #
point $-1 -54.870850577666374 -7.246019539861507 21.956641411133926 #
point $-1 -54.870850577666374 -7.246019539861507 -21.956641411133926 #
point $-1 -54.870850577666374 -15.335139196434483 -21.956641411133926 #
point $-1 -54.870850577666374 -15.335139196434483 21.956641411133926 #
straight-curve $-1 -76.050904873805962 0 21.956641411133926 0 -1 0 I I #
straight-curve $-1 -76.050904873805962 0 -21.956641411133926 0 1 0 I I #
edge $-1 $601 73.406407154929141 $604 86.556688644181875 $456 $668 forward 7 unknown #
vertex $-1 $470 $669 #
straight-curve $-1 51.973361264405646 36.86311933776696 21.95664141113393 0 1 0 I I #
edge $-1 $604 -32.230406154836253 $467 -7.255504064302535 $466 $670 forward 7 unknown #
vertex $-1 $603 $671 #
straight-curve $-1 51.973361264405646 -26.061528148681333 75.933405201259831 0 -0.75470957328743171 0.6560590369687036 I I #
point $-1 51.973361264405646 36.031634313808617 21.95664141113393 #
point $-1 26.998459173871929 51.159302362129367 8.8063599218811959 #
straight-curve $-1 0 51.159302362129367 21.956641411133926 -1 0 0 I I #
vertex $-1 $473 $672 #
point $-1 35.63414548545299 40.484508743968782 11.802751109835663 #
vertex $-1 $477 $673 #
point $-1 46.337674952824585 40.484508743968782 11.802751109835663 #
coedge $-1 $492 $491 $484 $614 forward $481 $-1 #
edge $-1 $615 23.567046954555654 $618 43.879510537678456 $613 $674 forward 7 unknown #
vertex $-1 $496 $675 #
straight-curve $-1 -54.870850577666374 -87.106126283949351 21.956641411133923 0 -1 0 I I #
edge $-1 $618 -31.422121997947112 $493 -15.475335161491412 $492 $676 forward 7 unknown #
vertex $-1 $617 $677 #
straight-curve $-1 -54.870850577666374 -51.159302362129338 1.6441778280111663 0 0.5877852410284794 0.80901700255871778 I I #
point $-1 -54.870850577666374 -36.401434152528303 21.956641411133926 #
point $-1 -38.924063741210674 -51.159302362129367 1.6441778280111272 #
straight-curve $-1 0 -51.159302362129367 21.956641411133926 1 0 0 I I #
vertex $-1 $499 $678 #
point $-1 -44.397457159438524 -38.602259463065508 8.0382934760532265 #
edge $-1 $626 23.567046954555654 $629 43.879510537678456 $504 $679 forward 7 unknown #
vertex $-1 $518 $680 #
straight-curve $-1 -16.545861039327498 -87.106126283949351 21.956641411133923 0 -1 0 I I #
edge $-1 $629 -12.259627228777674 $515 3.6871596076780264 $514 $681 forward 7 unknown #
vertex $-1 $628 $682 #
straight-curve $-1 -16.545861039327498 -51.159302362129338 1.6441778280111663 0 0.5877852410284794 0.80901700255871778 I I #
point $-1 -16.545861039327498 -36.401434152528303 21.956641411133926 #
point $-1 -0.59907420287179747 -51.159302362129367 1.6441778280111272 #
straight-curve $-1 0 -51.159302362129367 21.956641411133926 1 0 0 I I #
vertex $-1 $521 $683 #
point $-1 -6.0724676210996478 -38.602259463065508 8.0382934760532265 #
edge $-1 $637 23.567046954555654 $640 43.879510537678456 $526 $684 forward 7 unknown #
vertex $-1 $540 $685 #
straight-curve $-1 21.779128499011371 -87.106126283949351 21.956641411133923 0 -1 0 I I #
edge $-1 $640 6.9028675403917603 $537 22.849654376847461 $536 $686 forward 7 unknown #
vertex $-1 $639 $687 #
straight-curve $-1 21.779128499011371 -51.159302362129338 1.6441778280111663 0 0.5877852410284794 0.80901700255871778 I I #
point $-1 21.779128499011371 -36.401434152528303 21.956641411133926 #
point $-1 37.725915335467072 -51.159302362129367 1.6441778280111272 #
straight-curve $-1 0 -51.159302362129367 21.956641411133926 1 0 0 I I #
vertex $-1 $543 $688 #
point $-1 32.252521917239221 -38.602259463065508 8.0382934760532265 #
coedge $-1 $550 $549 $557 $652 reversed $246 $-1 #
edge $-1 $553 60.104118037350254 $655 76.050904873805962 $550 $689 forward 7 unknown #
straight-curve $-1 60.104118037350254 -51.159302362129367 45.52368836568958 0 0 -1 I I #
point $-1 60.104118037350254 -51.159302362129367 21.956641411133926 #
straight-curve $-1 34.038755727789052 -51.159302362129367 1.6441778280111223 1 0 0 I I #
edge $-1 $655 -21.956641411133926 $558 -1.6441778280111272 $557 $690 forward 7 unknown #
point $-1 76.050904873805962 -51.159302362129367 1.6441778280111272 #
point $-1 60.104118037350254 -51.159302362129367 1.6441778280111272 #
vertex $-1 $562 $691 #
straight-curve $-1 76.050904873805962 0 21.956641411133926 0 1 0 I I #
vertex $-1 $565 $692 #
point $-1 70.577511455578104 -38.602259463065508 8.0382934760532265 #
straight-curve $-1 -76.050904873805962 51.159302362129367 0 0 0 -1 I I #
point $-1 -76.050904873805962 -51.159302362129367 -21.956641411133926 #
straight-curve $-1 -76.050904873805962 0 -21.956641411133926 0 1 0 I I #
point $-1 -76.050904873805962 51.159302362129367 -21.956641411133926 #
straight-curve $-1 -54.870850577666374 -5.6452896840739974 -21.956641411133926 0 -1 0 I I #
straight-curve $-1 -54.870850577666374 -5.6452896840739974 21.956641411133926 0 1 0 I I #
straight-curve $-1 -76.050904873805962 -7.246019539861507 0 0 0 -1 I I #
point $-1 -76.050904873805962 -7.246019539861507 -21.956641411133926 #
point $-1 -76.050904873805962 -7.246019539861507 21.956641411133926 #
straight-curve $-1 51.973361264405646 51.159302362129367 95.363048566063071 0 0 -1 I I #
point $-1 51.973361264405646 51.159302362129367 21.956641411133926 #
straight-curve $-1 19.742955109569394 51.15930236212936 8.806359921881203 -1 0 0 I I #
point $-1 51.973361264405646 51.159302362129367 8.8063599218811959 #
point $-1 34.13414548545299 39.500420188515726 10.670686749904517 #
point $-1 44.837674952824585 39.500420188515726 10.670686749904517 #
straight-curve $-1 -54.870850577666374 -51.159302362129367 45.52368836568958 0 0 -1 I I #
point $-1 -54.870850577666374 -51.159302362129367 21.956641411133926 #
straight-curve $-1 -23.448728579719262 -51.159302362129367 1.6441778280111223 1 0 0 I I #
point $-1 -54.870850577666374 -51.159302362129367 1.6441778280111272 #
point $-1 -46.897457159438524 -36.579716956668719 6.5688303734820286 #
straight-curve $-1 -16.545861039327498 -51.159302362129367 45.52368836568958 0 0 -1 I I #
point $-1 -16.545861039327498 -51.159302362129367 21.956641411133926 #
straight-curve $-1 -4.2862338105498239 -51.159302362129367 1.6441778280111223 1 0 0 I I #
point $-1 -16.545861039327498 -51.159302362129367 1.6441778280111272 #
point $-1 -8.5724676210996478 -36.579716956668719 6.5688303734820286 #
straight-curve $-1 21.779128499011371 -51.159302362129367 45.52368836568958 0 0 -1 I I #
point $-1 21.779128499011371 -51.159302362129367 21.956641411133926 #
straight-curve $-1 14.876260958619611 -51.159302362129367 1.6441778280111223 1 0 0 I I #
point $-1 21.779128499011371 -51.159302362129367 1.6441778280111272 #
point $-1 29.752521917239221 -36.579716956668719 6.5688303734820286 #
straight-curve $-1 0 -51.159302362129367 21.956641411133926 1 0 0 I I #
straight-curve $-1 76.050904873805962 -51.159302362129367 0 0 0 -1 I I #
point $-1 76.050904873805962 -51.159302362129367 21.956641411133926 #
point $-1 68.077511455578104 -36.579716956668719 6.5688303734820286 #
End-of-ACIS-data 