500 0 9 0           
7 Unknown 11 ACIS 5.0 NT 24 Thu Mar 25 18:23:18 1999 
-1 9.9999999999999995e-007 1e-010 
body $-1 $9 $-1 $10 #
body $-1 $11 $-1 $12 #
body $-1 $13 $-1 $14 #
body $-1 $15 $-1 $16 #
body $-1 $17 $-1 $18 #
body $-1 $19 $-1 $20 #
body $-1 $21 $-1 $22 #
body $-1 $23 $-1 $24 #
body $-1 $25 $-1 $26 #
lump $-1 $-1 $27 $0 #
transform $-1 1 0 0 0 1 0 0 0 1 41.800592059083833 16.930725964835013 4.4684261038207094 1 rotate no_reflect no_shear #
lump $-1 $-1 $28 $1 #
transform $-1 1 0 0 0 1 0 0 0 1 41.800592059083833 16.930725964835013 4.4684261038207094 1 rotate no_reflect no_shear #
lump $-1 $-1 $29 $2 #
transform $-1 1 0 0 0 1 0 0 0 1 41.800592059083833 16.930725964835013 4.4684261038207094 1 rotate no_reflect no_shear #
lump $-1 $-1 $30 $3 #
transform $-1 1 0 0 0 1 0 0 0 1 41.800592059083833 16.930725964835013 4.4684261038207094 1 rotate no_reflect no_shear #
lump $-1 $-1 $31 $4 #
transform $-1 1 0 0 0 1 0 0 0 1 41.800592059083833 16.930725964835013 4.4684261038207094 1 rotate no_reflect no_shear #
lump $-1 $-1 $32 $5 #
transform $-1 1 0 0 0 1 0 0 0 1 41.800592059083833 16.930725964835013 4.4684261038207094 1 rotate no_reflect no_shear #
lump $-1 $-1 $33 $6 #
transform $-1 1 0 0 0 1 0 0 0 1 41.800592059083833 16.930725964835013 4.4684261038207094 1 rotate no_reflect no_shear #
lump $-1 $-1 $34 $7 #
transform $-1 1 0 0 0 1 0 0 0 1 41.800592059083833 16.930725964835013 4.4684261038207094 1 rotate no_reflect no_shear #
lump $-1 $-1 $35 $8 #
transform $-1 1 0 0 0 1 0 0 0 1 41.800592059083833 16.930725964835013 4.4684261038207094 1 rotate no_reflect no_shear #
shell $-1 $-1 $-1 $36 $-1 $9 #
shell $-1 $-1 $-1 $37 $-1 $11 #
shell $-1 $-1 $-1 $38 $-1 $13 #
shell $-1 $-1 $-1 $39 $-1 $15 #
shell $-1 $-1 $-1 $40 $-1 $17 #
shell $-1 $-1 $-1 $41 $-1 $19 #
shell $-1 $-1 $-1 $42 $-1 $21 #
shell $-1 $-1 $-1 $43 $-1 $23 #
shell $-1 $-1 $-1 $44 $-1 $25 #
face $-1 $45 $46 $27 $-1 $47 forward single #
face $-1 $48 $49 $28 $-1 $50 forward single #
face $-1 $51 $52 $29 $-1 $53 forward single #
face $-1 $54 $55 $30 $-1 $56 reversed single #
face $-1 $57 $58 $31 $-1 $59 forward single #
face $-1 $60 $61 $32 $-1 $62 forward single #
face $-1 $63 $64 $33 $-1 $65 reversed single #
face $-1 $66 $67 $34 $-1 $68 forward single #
face $-1 $69 $70 $35 $-1 $71 forward single #
face $-1 $72 $73 $27 $-1 $74 reversed single #
loop $-1 $-1 $75 $36 #
plane-surface $-1 0 0 4.4684261038207094 0 0 1 1 0 0 forward_v I I I I #
face $-1 $76 $77 $28 $-1 $78 reversed single #
loop $-1 $-1 $79 $37 #
plane-surface $-1 0 -15.380902002478713 -0.29471692687130635 0 0 1 1 0 0 forward_v I I I I #
face $-1 $80 $81 $29 $-1 $82 reversed single #
loop $-1 $-1 $83 $38 #
plane-surface $-1 0 15.380902002478713 -0.29471692687130635 0 0 1 1 0 0 forward_v I I I I #
face $-1 $84 $85 $30 $-1 $86 reversed single #
loop $-1 $-1 $87 $39 #
plane-surface $-1 31.496176048186307 6.9271788632619646 117.79589216273489 0 1 0 0.64278761758704617 0 0.76604443648966558 forward_v I I I I #
face $-1 $88 $89 $31 $-1 $90 forward single #
loop $-1 $91 $92 $40 #
cone-surface $-1 38.533654322771262 8.8997214852220949 1.5106951108359579 -0.64278761758704617 0 -0.76604443648966558 0.38302221824483279 0 -0.32139380879352308 1 I I 0 1 0.5 forward I I I I #
face $-1 $93 $94 $32 $-1 $95 forward single #
loop $-1 $96 $97 $41 #
cone-surface $-1 38.533654322771262 11.858535418162287 1.5106951108359579 -0.64278761758704617 0 -0.76604443648966558 0.38302221824483279 0 -0.32139380879352308 1 I I 0 1 0.5 forward I I I I #
face $-1 $98 $99 $33 $-1 $100 reversed single #
loop $-1 $-1 $101 $42 #
plane-surface $-1 -114.20134193853519 -2.1660346899823644 43.011245902713561 0 -1 0 0.86602541151947299 0 -0.49999998660252726 forward_v I I I I #
face $-1 $102 $103 $34 $-1 $104 forward single #
loop $-1 $105 $106 $43 #
cone-surface $-1 -40.173461991332189 -7.4290063428627562 2.4430784025817012 0.86602541151947299 0 -0.49999998660252726 0.24999999330126363 0 0.43301270575973649 1 I I 0 1 0.5 forward I I I I #
face $-1 $107 $108 $35 $-1 $109 forward single #
loop $-1 $110 $111 $44 #
cone-surface $-1 -40.173461991332189 -4.2712233511345215 2.4430784025817012 0.86602541151947299 0 -0.49999998660252726 0.24999999330126363 0 0.43301270575973649 1 I I 0 1 0.5 forward I I I I #
face $-1 $112 $113 $27 $-1 $114 reversed single #
loop $-1 $-1 $115 $45 #
plane-surface $-1 0 0 -4.4684261038207094 0 0 1 1 0 0 forward_v I I I I #
coedge $-1 $116 $117 $118 $119 forward $46 $-1 #
face $-1 $120 $121 $28 $-1 $122 reversed single #
loop $-1 $-1 $123 $48 #
plane-surface $-1 0 -15.380902002478713 -3.2947169268713061 0 0 1 1 0 0 forward_v I I I I #
coedge $-1 $124 $125 $126 $127 reversed $49 $-1 #
face $-1 $128 $129 $29 $-1 $130 reversed single #
loop $-1 $-1 $131 $51 #
plane-surface $-1 0 15.380902002478713 -3.2947169268713061 0 0 1 1 0 0 forward_v I I I I #
coedge $-1 $132 $133 $134 $135 reversed $52 $-1 #
face $-1 $136 $137 $30 $-1 $138 reversed single #
loop $-1 $-1 $139 $54 #
plane-surface $-1 -22.241629918586689 10.379128451692189 53.753670185064351 0.64278761758704617 0 0.76604443648966558 0.76604443648966558 0 -0.64278761758704617 forward_v I I I I #
coedge $-1 $140 $141 $142 $143 reversed $55 $-1 #
face $-1 $-1 $144 $31 $-1 $145 forward single #
loop $-1 $146 $147 $57 #
cone-surface $-1 37.759197938155062 8.8997214852220949 0.58773395149346364 -0.64278761758704617 0 -0.76604443648966558 0.1915111091224164 0 -0.16069690439676154 1 I I -0.70710678118654746 0.70710678118654746 0.25 forward I I I I #
loop $-1 $-1 $148 $40 #
coedge $-1 $92 $92 $149 $150 reversed $58 $-1 #
face $-1 $-1 $151 $32 $-1 $152 forward single #
loop $-1 $153 $154 $60 #
cone-surface $-1 37.759197938155062 11.858535418162287 0.58773395149346364 -0.64278761758704617 0 -0.76604443648966558 0.1915111091224164 0 -0.16069690439676154 1 I I -0.70710678118654746 0.70710678118654746 0.25 forward I I I I #
loop $-1 $-1 $155 $41 #
coedge $-1 $97 $97 $156 $157 reversed $61 $-1 #
face $-1 $158 $159 $33 $-1 $160 reversed single #
loop $-1 $-1 $161 $63 #
plane-surface $-1 -41.800592059083812 -5.8501148469986379 1.2106549636743154 -0.86602541151947299 0 0.49999998660252726 0.49999998660252726 0 0.86602541151947299 forward_v I I I I #
coedge $-1 $162 $163 $164 $165 reversed $64 $-1 #
face $-1 $-1 $166 $34 $-1 $167 forward single #
loop $-1 $168 $169 $66 #
cone-surface $-1 -39.270263059462913 -7.4290063428627562 1.9216162747652561 0.86602541151947299 0 -0.49999998660252726 0.12499999665063181 0 0.21650635287986825 1 I I -0.70710678118654746 0.70710678118654746 0.25 forward I I I I #
loop $-1 $-1 $170 $43 #
coedge $-1 $106 $106 $171 $172 reversed $67 $-1 #
face $-1 $-1 $173 $35 $-1 $174 forward single #
loop $-1 $175 $176 $69 #
cone-surface $-1 -39.270263059462913 -4.2712233511345215 1.9216162747652561 0.86602541151947299 0 -0.49999998660252726 0.12499999665063181 0 0.21650635287986825 1 I I -0.70710678118654746 0.70710678118654746 0.25 forward I I I I #
loop $-1 $-1 $177 $44 #
coedge $-1 $111 $111 $178 $179 reversed $70 $-1 #
face $-1 $180 $181 $27 $-1 $182 reversed single #
loop $-1 $-1 $183 $72 #
plane-surface $-1 0 -16.930725964835013 0 0 1 0 0 0 1 forward_v I I I I #
coedge $-1 $184 $185 $186 $187 forward $73 $-1 #
coedge $-1 $188 $75 $189 $190 forward $46 $-1 #
coedge $-1 $75 $188 $191 $192 forward $46 $-1 #
coedge $-1 $193 $194 $75 $119 reversed $195 $-1 #
edge $-1 $196 -16.930725964835013 $197 16.930725964835013 $118 $198 forward 7 unknown #
face $-1 $199 $200 $28 $-1 $201 reversed single #
loop $-1 $-1 $202 $76 #
plane-surface $-1 0 -13.831078040122414 -1.7947169268713061 0 -1 0 0 0 -1 forward_v I I I I #
coedge $-1 $203 $204 $205 $206 reversed $77 $-1 #
coedge $-1 $207 $79 $208 $209 forward $49 $-1 #
coedge $-1 $79 $207 $210 $211 reversed $49 $-1 #
coedge $-1 $212 $213 $79 $127 forward $214 $-1 #
edge $-1 $215 6.1406270388830571 $216 9.240274963595656 $126 $217 forward 7 unknown #
face $-1 $218 $219 $29 $-1 $220 reversed single #
loop $-1 $-1 $221 $80 #
plane-surface $-1 0 13.831078040122414 -1.7947169268713061 0 1 0 0 0 1 forward_v I I I I #
coedge $-1 $222 $223 $224 $225 reversed $81 $-1 #
coedge $-1 $226 $83 $227 $228 reversed $52 $-1 #
coedge $-1 $83 $226 $229 $230 forward $52 $-1 #
coedge $-1 $231 $232 $83 $135 forward $219 $-1 #
edge $-1 $233 -9.240274963595656 $234 -6.1406270388830571 $134 $235 forward 7 unknown #
face $-1 $236 $237 $30 $-1 $238 forward single #
loop $-1 $-1 $239 $84 #
plane-surface $-1 31.496176048186307 13.831078040122414 117.79589216273489 0 -1 0 -0.64278761758704617 0 -0.76604443648966558 forward_v I I I I #
coedge $-1 $240 $241 $242 $243 reversed $85 $-1 #
coedge $-1 $141 $87 $244 $245 reversed $55 $-1 #
coedge $-1 $87 $140 $240 $246 reversed $55 $-1 #
coedge $-1 $242 $247 $87 $143 forward $248 $-1 #
edge $-1 $249 54.429519977546732 $250 58.882081863076081 $142 $251 forward 7 unknown #
loop $-1 $-1 $149 $88 #
plane-surface $-1 -22.241629918586689 10.379128451692189 53.753670185064351 0.64278761758704617 0 0.76604443648966558 0.76604443648966558 0 -0.64278761758704617 forward_v I I I I #
loop $-1 $-1 $252 $57 #
coedge $-1 $147 $147 $148 $253 reversed $89 $-1 #
coedge $-1 $148 $148 $147 $253 forward $91 $-1 #
coedge $-1 $149 $149 $92 $150 forward $144 $-1 #
edge $-1 $254 0 $254 6.2831853071796004 $149 $255 forward 7 unknown #
loop $-1 $-1 $156 $93 #
plane-surface $-1 -22.241629918586689 10.379128451692189 53.753670185064351 0.64278761758704617 0 0.76604443648966558 0.76604443648966558 0 -0.64278761758704617 forward_v I I I I #
loop $-1 $-1 $256 $60 #
coedge $-1 $154 $154 $155 $257 reversed $94 $-1 #
coedge $-1 $155 $155 $154 $257 forward $96 $-1 #
coedge $-1 $156 $156 $97 $157 forward $151 $-1 #
edge $-1 $258 0 $258 6.2831853071796004 $156 $259 forward 7 unknown #
face $-1 $260 $261 $33 $-1 $262 reversed single #
loop $-1 $-1 $263 $98 #
plane-surface $-1 -114.20134193853519 -9.5341950040149115 43.011245902713561 0 1 0 -0.86602541151947299 0 0.49999998660252726 forward_v I I I I #
coedge $-1 $264 $265 $266 $267 reversed $99 $-1 #
coedge $-1 $163 $101 $268 $269 reversed $64 $-1 #
coedge $-1 $101 $162 $264 $270 reversed $64 $-1 #
coedge $-1 $266 $271 $101 $165 forward $261 $-1 #
edge $-1 $272 17.037196847536073 $273 20.294967987682501 $164 $274 forward 7 unknown #
loop $-1 $-1 $171 $102 #
plane-surface $-1 -41.800592059083812 -5.8501148469986379 1.2106549636743154 -0.86602541151947299 0 0.49999998660252726 0.49999998660252726 0 0.86602541151947299 forward_v I I I I #
loop $-1 $-1 $275 $66 #
coedge $-1 $169 $169 $170 $276 reversed $103 $-1 #
coedge $-1 $170 $170 $169 $276 forward $105 $-1 #
coedge $-1 $171 $171 $106 $172 forward $166 $-1 #
edge $-1 $277 0 $277 6.2831853071796004 $171 $278 forward 7 unknown #
loop $-1 $-1 $178 $107 #
plane-surface $-1 -41.800592059083812 -5.8501148469986379 1.2106549636743154 -0.86602541151947299 0 0.49999998660252726 0.49999998660252726 0 0.86602541151947299 forward_v I I I I #
loop $-1 $-1 $279 $69 #
coedge $-1 $176 $176 $177 $280 reversed $108 $-1 #
coedge $-1 $177 $177 $176 $280 forward $110 $-1 #
coedge $-1 $178 $178 $111 $179 forward $173 $-1 #
edge $-1 $281 0 $281 6.2831853071796004 $178 $282 forward 7 unknown #
face $-1 $283 $284 $27 $-1 $285 reversed single #
loop $-1 $-1 $286 $112 #
plane-surface $-1 -41.800592059083833 0 0 1 0 0 0 0 -1 forward_v I I I I #
coedge $-1 $287 $191 $288 $289 forward $113 $-1 #
coedge $-1 $290 $115 $287 $291 forward $73 $-1 #
coedge $-1 $115 $290 $292 $293 forward $73 $-1 #
coedge $-1 $194 $193 $115 $187 reversed $195 $-1 #
edge $-1 $294 -16.930725964835013 $295 16.930725964835013 $186 $296 forward 7 unknown #
coedge $-1 $117 $116 $297 $298 forward $46 $-1 #
coedge $-1 $299 $300 $116 $190 reversed $284 $-1 #
edge $-1 $197 -41.800592059083833 $301 41.800592059083833 $189 $302 forward 7 unknown #
coedge $-1 $183 $303 $117 $192 reversed $113 $-1 #
edge $-1 $304 -41.800592059083833 $196 41.800592059083833 $191 $305 forward 7 unknown #
coedge $-1 $186 $118 $303 $306 forward $195 $-1 #
coedge $-1 $118 $186 $299 $307 reversed $195 $-1 #
loop $-1 $-1 $193 $283 #
vertex $-1 $119 $308 #
vertex $-1 $119 $309 #
straight-curve $-1 41.800592059083833 0 4.4684261038207094 0 1 0 I I #
face $-1 $310 $311 $28 $-1 $312 reversed single #
loop $-1 $-1 $313 $120 #
plane-surface $-1 -41.800592059083833 0 0 1 0 0 0 0 -1 forward_v I I I I #
coedge $-1 $314 $208 $213 $315 reversed $121 $-1 #
coedge $-1 $316 $123 $317 $318 reversed $77 $-1 #
coedge $-1 $123 $316 $314 $319 forward $77 $-1 #
coedge $-1 $213 $212 $123 $206 forward $214 $-1 #
edge $-1 $320 -9.240274963595656 $321 -6.1406270388830571 $205 $322 forward 7 unknown #
coedge $-1 $125 $124 $313 $323 reversed $49 $-1 #
coedge $-1 $202 $324 $124 $209 reversed $121 $-1 #
edge $-1 $215 -41.800592059083833 $325 41.800592059083833 $208 $326 forward 7 unknown #
coedge $-1 $327 $328 $125 $211 forward $311 $-1 #
edge $-1 $216 -41.800592059083833 $329 41.800592059083833 $210 $330 forward 7 unknown #
coedge $-1 $205 $126 $328 $331 forward $214 $-1 #
coedge $-1 $126 $205 $202 $315 forward $214 $-1 #
loop $-1 $-1 $126 $310 #
vertex $-1 $127 $332 #
vertex $-1 $331 $333 #
straight-curve $-1 41.800592059083833 -7.6904510012393565 -0.29471692687130635 0 -1 0 I I #
face $-1 $334 $335 $29 $-1 $336 reversed single #
loop $-1 $-1 $134 $128 #
plane-surface $-1 41.800592059083833 0 0 -1 0 0 0 0 1 forward_v I I I I #
coedge $-1 $337 $229 $338 $339 reversed $129 $-1 #
coedge $-1 $340 $131 $337 $341 forward $81 $-1 #
coedge $-1 $131 $340 $342 $343 reversed $81 $-1 #
coedge $-1 $232 $231 $131 $225 forward $219 $-1 #
edge $-1 $344 6.1406270388830571 $345 9.240274963595656 $224 $346 forward 7 unknown #
coedge $-1 $133 $132 $347 $348 reversed $52 $-1 #
coedge $-1 $349 $350 $132 $228 forward $351 $-1 #
edge $-1 $352 -41.800592059083833 $233 41.800592059083833 $227 $353 forward 7 unknown #
coedge $-1 $221 $354 $133 $230 reversed $129 $-1 #
edge $-1 $355 -41.800592059083833 $234 41.800592059083833 $229 $356 forward 7 unknown #
coedge $-1 $224 $134 $354 $357 forward $219 $-1 #
coedge $-1 $134 $224 $349 $358 reversed $219 $-1 #
vertex $-1 $358 $359 #
vertex $-1 $135 $360 #
straight-curve $-1 41.800592059083833 7.6904510012393565 -0.29471692687130635 0 -1 0 I I #
face $-1 $-1 $248 $30 $-1 $361 reversed single #
loop $-1 $-1 $362 $136 #
plane-surface $-1 0 0 4.4684261038207094 0 0 1 1 0 0 forward_v I I I I #
coedge $-1 $363 $364 $365 $366 reversed $137 $-1 #
coedge $-1 $367 $139 $141 $246 forward $85 $-1 #
coedge $-1 $139 $367 $363 $368 forward $85 $-1 #
coedge $-1 $365 $142 $139 $243 forward $248 $-1 #
edge $-1 $250 1.7376146374158701 $369 8.641513814276319 $242 $370 forward 7 unknown #
coedge $-1 $371 $372 $140 $245 forward $237 $-1 #
edge $-1 $373 20.74614752280446 $249 26.05250403499068 $244 $374 forward 7 unknown #
edge $-1 $250 -83.601184118167652 $373 -76.6742275874184 $141 $375 forward 7 unknown #
coedge $-1 $142 $365 $371 $376 reversed $248 $-1 #
loop $-1 $-1 $365 $236 #
vertex $-1 $376 $377 #
vertex $-1 $143 $378 #
straight-curve $-1 41.800592059083833 6.9271788632619646 58.897946081367444 0 0 -1 I I #
coedge $-1 $252 $252 $-1 $379 reversed $146 $-1 #
edge $-1 $380 0 $380 6.2831853071796004 $147 $381 forward 7 unknown #
vertex $-1 $150 $382 #
ellipse-curve $-1 39.147413802990705 8.8997214852220949 2.2421451610560421 0.64278761758704617 0 0.76604443648966558 0.38302221824483279 0 -0.32139380879352308 1 I I #
coedge $-1 $256 $256 $-1 $383 reversed $153 $-1 #
edge $-1 $384 0 $384 6.2831853071796004 $154 $385 forward 7 unknown #
vertex $-1 $157 $386 #
ellipse-curve $-1 39.147413802990705 11.858535418162287 2.2421451610560421 0.64278761758704617 0 0.76604443648966558 0.38302221824483279 0 -0.32139380879352308 1 I I #
face $-1 $-1 $387 $33 $-1 $388 forward single #
loop $-1 $-1 $164 $158 #
plane-surface $-1 -41.800592059083833 0 0 1 0 0 0 0 -1 forward_v I I I I #
coedge $-1 $389 $390 $391 $392 reversed $159 $-1 #
coedge $-1 $393 $161 $163 $270 forward $99 $-1 #
coedge $-1 $161 $393 $389 $394 forward $99 $-1 #
coedge $-1 $391 $164 $161 $267 forward $261 $-1 #
edge $-1 $273 -0.7590227335169546 $395 6.6091375805155925 $266 $396 forward 7 unknown #
coedge $-1 $397 $398 $162 $269 forward $387 $-1 #
edge $-1 $399 -17.180953887708242 $272 -15.300078910183764 $268 $400 forward 7 unknown #
edge $-1 $273 -4.2579321629893116e-014 $399 3.7617500558448005 $163 $401 forward 7 unknown #
coedge $-1 $164 $391 $397 $402 reversed $261 $-1 #
vertex $-1 $402 $403 #
vertex $-1 $165 $404 #
straight-curve $-1 -41.800592059083833 -2.1660346899823644 21.505622951356781 0 0 -1 I I #
coedge $-1 $275 $275 $-1 $405 reversed $168 $-1 #
edge $-1 $406 0 $406 6.2831853071796004 $169 $407 forward 7 unknown #
vertex $-1 $172 $408 #
ellipse-curve $-1 -40.860154570321583 -7.4290063428627562 2.8395405337475061 -0.86602541151947299 0 0.49999998660252726 0.24999999330126363 0 0.43301270575973649 1 I I #
coedge $-1 $279 $279 $-1 $409 reversed $175 $-1 #
edge $-1 $410 0 $410 6.2831853071796004 $176 $411 forward 7 unknown #
vertex $-1 $179 $412 #
ellipse-curve $-1 -40.860154570321583 -4.2712233511345215 2.8395405337475061 -0.86602541151947299 0 0.49999998660252726 0.24999999330126363 0 0.43301270575973649 1 I I #
face $-1 $-1 $195 $27 $-1 $413 reversed single #
loop $-1 $-1 $299 $180 #
plane-surface $-1 0 16.930725964835013 0 0 -1 0 0 0 -1 forward_v I I I I #
coedge $-1 $414 $297 $300 $415 forward $181 $-1 #
coedge $-1 $303 $183 $184 $291 reversed $113 $-1 #
coedge $-1 $297 $414 $183 $289 reversed $181 $-1 #
edge $-1 $304 -4.4684261038207094 $416 4.4684261038207094 $288 $417 forward 7 unknown #
coedge $-1 $185 $184 $414 $418 forward $73 $-1 #
edge $-1 $295 -41.800592059083833 $416 41.800592059083833 $287 $419 forward 7 unknown #
coedge $-1 $300 $299 $185 $293 reversed $284 $-1 #
edge $-1 $420 -41.800592059083833 $294 41.800592059083833 $292 $421 forward 7 unknown #
vertex $-1 $187 $422 #
vertex $-1 $306 $423 #
straight-curve $-1 41.800592059083833 0 -4.4684261038207094 0 -1 0 I I #
coedge $-1 $286 $288 $188 $298 reversed $181 $-1 #
edge $-1 $301 -16.930725964835013 $304 16.930725964835013 $297 $424 forward 7 unknown #
coedge $-1 $292 $189 $194 $307 forward $284 $-1 #
coedge $-1 $189 $292 $286 $415 reversed $284 $-1 #
vertex $-1 $190 $425 #
straight-curve $-1 0 16.930725964835013 4.4684261038207094 -1 0 0 I I #
coedge $-1 $191 $287 $193 $306 reversed $113 $-1 #
vertex $-1 $298 $426 #
straight-curve $-1 0 -16.930725964835013 4.4684261038207094 1 0 0 I I #
edge $-1 $196 -4.4684261038207094 $295 4.4684261038207094 $193 $427 forward 7 unknown #
edge $-1 $197 -4.4684261038207094 $294 4.4684261038207094 $194 $428 forward 7 unknown #
point $-1 41.800592059083833 -16.930725964835013 4.4684261038207094 #
point $-1 41.800592059083833 16.930725964835013 4.4684261038207094 #
face $-1 $-1 $214 $28 $-1 $429 reversed single #
loop $-1 $-1 $210 $199 #
plane-surface $-1 0 -16.930725964835013 0 0 1 0 0 0 1 forward_v I I I I #
coedge $-1 $430 $431 $207 $323 forward $200 $-1 #
coedge $-1 $324 $202 $204 $319 reversed $121 $-1 #
edge $-1 $321 -2.3973584634356531 $215 0.60264153656434671 $213 $432 forward 7 unknown #
coedge $-1 $204 $203 $433 $434 reversed $77 $-1 #
coedge $-1 $328 $327 $203 $318 forward $311 $-1 #
edge $-1 $435 -41.800592059083833 $320 41.800592059083833 $317 $436 forward 7 unknown #
edge $-1 $437 -41.800592059083833 $321 41.800592059083833 $314 $438 forward 7 unknown #
vertex $-1 $318 $439 #
vertex $-1 $206 $440 #
straight-curve $-1 41.800592059083833 -7.6904510012393565 -3.2947169268713061 0 1 0 I I #
edge $-1 $329 -9.240274963595656 $325 -6.1406270388830571 $313 $441 forward 7 unknown #
coedge $-1 $208 $314 $430 $442 reversed $121 $-1 #
vertex $-1 $323 $443 #
straight-curve $-1 0 -13.831078040122414 -0.29471692687130635 -1 0 0 I I #
coedge $-1 $317 $210 $431 $444 forward $311 $-1 #
coedge $-1 $210 $317 $212 $331 reversed $311 $-1 #
vertex $-1 $444 $445 #
straight-curve $-1 0 -16.930725964835013 -0.29471692687130635 -1 0 0 I I #
edge $-1 $216 0.29471692687130635 $320 3.2947169268713061 $212 $446 forward 7 unknown #
point $-1 41.800592059083833 -13.831078040122414 -0.29471692687130635 #
point $-1 41.800592059083833 -16.930725964835013 -0.29471692687130635 #
face $-1 $-1 $351 $29 $-1 $447 reversed single #
loop $-1 $-1 $347 $218 #
plane-surface $-1 -41.800592059083833 0 0 1 0 0 0 0 -1 forward_v I I I I #
coedge $-1 $354 $221 $222 $341 reversed $129 $-1 #
coedge $-1 $347 $448 $221 $339 forward $335 $-1 #
edge $-1 $449 -2.3973584634356531 $355 0.60264153656434671 $338 $450 forward 7 unknown #
coedge $-1 $223 $222 $448 $451 reversed $81 $-1 #
edge $-1 $344 -41.800592059083833 $449 41.800592059083833 $337 $452 forward 7 unknown #
coedge $-1 $350 $349 $223 $343 forward $351 $-1 #
edge $-1 $345 -41.800592059083833 $453 41.800592059083833 $342 $454 forward 7 unknown #
vertex $-1 $225 $455 #
vertex $-1 $343 $456 #
straight-curve $-1 41.800592059083833 7.6904510012393565 -3.2947169268713061 0 1 0 I I #
coedge $-1 $457 $338 $226 $348 forward $335 $-1 #
edge $-1 $355 6.1406270388830571 $352 9.240274963595656 $347 $458 forward 7 unknown #
coedge $-1 $342 $227 $232 $358 forward $351 $-1 #
coedge $-1 $227 $342 $457 $459 reversed $351 $-1 #
loop $-1 $-1 $227 $334 #
vertex $-1 $459 $460 #
straight-curve $-1 0 16.930725964835013 -0.29471692687130635 1 0 0 I I #
coedge $-1 $229 $337 $231 $357 reversed $129 $-1 #
vertex $-1 $348 $461 #
straight-curve $-1 0 13.831078040122414 -0.29471692687130635 1 0 0 I I #
edge $-1 $234 -0.60264153656434671 $344 2.3973584634356531 $231 $462 forward 7 unknown #
edge $-1 $233 0.29471692687130635 $345 3.2947169268713061 $232 $463 forward 7 unknown #
point $-1 41.800592059083833 16.930725964835013 -0.29471692687130635 #
point $-1 41.800592059083833 13.831078040122414 -0.29471692687130635 #
plane-surface $-1 41.800592059083833 0 0 -1 0 0 0 0 1 forward_v I I I I #
coedge $-1 $372 $371 $364 $464 forward $237 $-1 #
coedge $-1 $364 $239 $241 $368 reversed $137 $-1 #
coedge $-1 $239 $363 $362 $464 reversed $137 $-1 #
coedge $-1 $247 $242 $239 $366 forward $248 $-1 #
edge $-1 $369 -58.882081863076081 $465 -54.429519977546732 $365 $466 forward 7 unknown #
coedge $-1 $241 $240 $372 $467 reversed $85 $-1 #
edge $-1 $468 76.6742275874184 $369 83.601184118167652 $363 $469 forward 7 unknown #
vertex $-1 $243 $470 #
straight-curve $-1 41.800592059083826 5.1895642258460946 0.015864218291365972 0 1 0 I I #
coedge $-1 $362 $244 $247 $376 forward $237 $-1 #
coedge $-1 $244 $362 $367 $467 forward $237 $-1 #
vertex $-1 $245 $471 #
straight-curve $-1 15.748088024093153 6.9271788632619646 4.4684261038207111 1 0 0 I I #
straight-curve $-1 -22.241629918586689 6.9271788632619646 53.753670185064351 -0.76604443648966558 0 0.64278761758704617 I I #
edge $-1 $249 6.9271788632619646 $465 13.831078040122414 $247 $472 forward 7 unknown #
point $-1 41.800592059083833 6.9271788632619646 4.4684261038207094 #
point $-1 41.800592059083833 6.9271788632619646 0.01586421829136242 #
edge $-1 $473 1 $473 0 $252 $-1 forward 7 unknown #
vertex $-1 $253 $474 #
ellipse-curve $-1 37.91989484255182 8.8997214852220949 0.77924506061588006 0.64278761758704617 0 0.76604443648966558 0.38302221824483279 0 -0.32139380879352308 1 I I #
point $-1 39.530436021235531 8.8997214852220949 1.9207513522625126 #
edge $-1 $475 1 $475 0 $256 $-1 forward 7 unknown #
vertex $-1 $257 $476 #
ellipse-curve $-1 37.91989484255182 11.858535418162287 0.77924506061588006 0.64278761758704617 0 0.76604443648966558 0.38302221824483279 0 -0.32139380879352308 1 I I #
point $-1 39.530436021235531 11.858535418162287 1.9207513522625126 #
loop $-1 $-1 $268 $260 #
plane-surface $-1 0 0 4.4684261038207094 0 0 1 1 0 0 forward_v I I I I #
coedge $-1 $390 $263 $265 $394 reversed $159 $-1 #
coedge $-1 $263 $389 $477 $478 reversed $159 $-1 #
coedge $-1 $271 $266 $263 $392 forward $261 $-1 #
edge $-1 $395 -20.294967987682501 $479 -17.037196847536073 $391 $480 forward 7 unknown #
coedge $-1 $265 $264 $398 $481 reversed $99 $-1 #
edge $-1 $482 -3.7617500558448005 $395 4.2579321629893116e-014 $389 $483 forward 7 unknown #
vertex $-1 $267 $484 #
straight-curve $-1 -41.800592059083833 -2.925057423499319 1.2106549636742865 0 -1 0 I I #
coedge $-1 $477 $268 $271 $402 forward $387 $-1 #
coedge $-1 $268 $477 $393 $481 forward $387 $-1 #
vertex $-1 $269 $485 #
straight-curve $-1 -57.100670969267597 -2.1660346899823644 4.4684261038207111 -1 0 0 I I #
straight-curve $-1 -41.800592059083812 -2.1660346899823644 1.2106549636743154 0.49999998660252726 0 0.86602541151947299 I I #
edge $-1 $272 2.1660346899823644 $479 9.5341950040149115 $271 $486 forward 7 unknown #
point $-1 -41.800592059083833 -2.1660346899823644 4.4684261038207094 #
point $-1 -41.800592059083833 -2.1660346899823644 1.2106549636742785 #
edge $-1 $487 1 $487 0 $275 $-1 forward 7 unknown #
vertex $-1 $276 $488 #
ellipse-curve $-1 -39.486769412342781 -7.4290063428627562 2.0466162714158878 -0.86602541151947299 0 0.49999998660252726 0.24999999330126363 0 0.43301270575973649 1 I I #
point $-1 -40.610154577020339 -7.4290063428627562 3.2725532395072516 #
edge $-1 $489 1 $489 0 $279 $-1 forward 7 unknown #
vertex $-1 $280 $490 #
ellipse-curve $-1 -39.486769412342781 -4.2712233511345215 2.0466162714158878 -0.86602541151947299 0 0.49999998660252726 0.24999999330126363 0 0.43301270575973649 1 I I #
point $-1 -40.610154577020339 -4.2712233511345215 3.2725532395072516 #
plane-surface $-1 41.800592059083833 0 0 -1 0 0 0 0 1 forward_v I I I I #
coedge $-1 $288 $286 $290 $418 reversed $181 $-1 #
edge $-1 $301 -4.4684261038207094 $420 4.4684261038207094 $300 $491 forward 7 unknown #
vertex $-1 $418 $492 #
straight-curve $-1 -41.800592059083833 -16.930725964835013 0 0 0 -1 I I #
edge $-1 $416 -16.930725964835013 $420 16.930725964835013 $414 $493 forward 7 unknown #
straight-curve $-1 0 -16.930725964835013 -4.4684261038207094 -1 0 0 I I #
vertex $-1 $293 $494 #
straight-curve $-1 0 16.930725964835013 -4.4684261038207094 1 0 0 I I #
point $-1 41.800592059083833 16.930725964835013 -4.4684261038207094 #
point $-1 41.800592059083833 -16.930725964835013 -4.4684261038207094 #
straight-curve $-1 -41.800592059083833 0 4.4684261038207094 0 -1 0 I I #
point $-1 -41.800592059083833 16.930725964835013 4.4684261038207094 #
point $-1 -41.800592059083833 -16.930725964835013 4.4684261038207094 #
straight-curve $-1 41.800592059083833 -16.930725964835013 0 0 0 -1 I I #
straight-curve $-1 41.800592059083833 16.930725964835013 0 0 0 -1 I I #
plane-surface $-1 41.800592059083833 0 0 -1 0 0 0 0 1 forward_v I I I I #
coedge $-1 $433 $313 $324 $442 forward $200 $-1 #
coedge $-1 $313 $433 $327 $444 reversed $200 $-1 #
straight-curve $-1 41.800592059083833 -13.831078040122414 -0.89735846343565306 0 0 1 I I #
coedge $-1 $431 $430 $316 $434 forward $200 $-1 #
edge $-1 $437 6.1406270388830571 $435 9.240274963595656 $433 $495 forward 7 unknown #
vertex $-1 $318 $496 #
straight-curve $-1 0 -16.930725964835013 -3.2947169268713061 1 0 0 I I #
vertex $-1 $434 $497 #
straight-curve $-1 0 -13.831078040122414 -3.2947169268713061 1 0 0 I I #
point $-1 41.800592059083833 -16.930725964835013 -3.2947169268713061 #
point $-1 41.800592059083833 -13.831078040122414 -3.2947169268713061 #
straight-curve $-1 -41.800592059083833 -7.6904510012393565 -0.29471692687130635 0 1 0 I I #
edge $-1 $325 -0.60264153656434671 $437 2.3973584634356531 $430 $498 forward 7 unknown #
point $-1 -41.800592059083833 -13.831078040122414 -0.29471692687130635 #
edge $-1 $329 0.29471692687130635 $435 3.2947169268713061 $431 $499 forward 7 unknown #
point $-1 -41.800592059083833 -16.930725964835013 -0.29471692687130635 #
straight-curve $-1 41.800592059083833 -16.930725964835013 0 0 0 -1 I I #
plane-surface $-1 0 16.930725964835013 0 0 -1 0 0 0 -1 forward_v I I I I #
coedge $-1 $338 $457 $340 $451 forward $335 $-1 #
vertex $-1 $451 $500 #
straight-curve $-1 -41.800592059083833 13.831078040122414 -0.89735846343565306 0 0 1 I I #
edge $-1 $453 -9.240274963595656 $449 -6.1406270388830571 $448 $501 forward 7 unknown #
straight-curve $-1 0 13.831078040122414 -3.2947169268713061 -1 0 0 I I #
vertex $-1 $343 $502 #
straight-curve $-1 0 16.930725964835013 -3.2947169268713061 -1 0 0 I I #
point $-1 41.800592059083833 13.831078040122414 -3.2947169268713061 #
point $-1 41.800592059083833 16.930725964835013 -3.2947169268713061 #
coedge $-1 $448 $347 $350 $459 forward $335 $-1 #
straight-curve $-1 -41.800592059083833 7.6904510012393565 -0.29471692687130635 0 1 0 I I #
edge $-1 $352 0.29471692687130635 $453 3.2947169268713061 $350 $503 forward 7 unknown #
point $-1 -41.800592059083833 16.930725964835013 -0.29471692687130635 #
point $-1 -41.800592059083833 13.831078040122414 -0.29471692687130635 #
straight-curve $-1 41.800592059083833 13.831078040122414 -0.89735846343565306 0 0 -1 I I #
straight-curve $-1 41.800592059083833 16.930725964835013 0 0 0 -1 I I #
edge $-1 $465 -26.05250403499068 $468 -20.74614752280446 $362 $504 forward 7 unknown #
vertex $-1 $464 $505 #
straight-curve $-1 41.800592059083833 13.831078040122414 58.897946081367444 0 0 1 I I #
edge $-1 $468 -8.641513814276319 $373 -1.7376146374158701 $372 $506 forward 7 unknown #
vertex $-1 $467 $507 #
straight-curve $-1 -22.241629918586689 13.831078040122414 53.753670185064351 0.76604443648966558 0 -0.64278761758704617 I I #
point $-1 41.800592059083833 13.831078040122414 0.01586421829136242 #
point $-1 36.494235546897613 6.9271788632619646 4.468426103820704 #
straight-curve $-1 41.800592059083833 0 4.4684261038207094 0 1 0 I I #
vertex $-1 $379 $508 #
point $-1 38.302917060796659 8.8997214852220949 0.45785125182235697 #
vertex $-1 $383 $509 #
point $-1 38.302917060796659 11.858535418162287 0.45785125182235697 #
coedge $-1 $398 $397 $390 $478 forward $387 $-1 #
edge $-1 $479 15.300078910183764 $482 17.180953887708242 $477 $510 forward 7 unknown #
vertex $-1 $478 $511 #
straight-curve $-1 -41.800592059083833 -9.5341950040149115 21.505622951356781 0 0 1 I I #
edge $-1 $482 -6.6091375805155925 $399 0.7590227335169546 $398 $512 forward 7 unknown #
vertex $-1 $481 $513 #
straight-curve $-1 -41.800592059083812 -9.5341950040149115 1.2106549636743154 -0.49999998660252726 0 -0.86602541151947299 I I #
point $-1 -41.800592059083833 -9.5341950040149115 1.2106549636742785 #
point $-1 -39.919717081559355 -2.1660346899823644 4.4684261038207094 #
straight-curve $-1 -41.800592059083833 0 4.4684261038207094 0 -1 0 I I #
vertex $-1 $405 $514 #
point $-1 -39.236769419041515 -7.4290063428627562 2.4796289771756244 #
vertex $-1 $409 $515 #
point $-1 -39.236769419041515 -4.2712233511345215 2.4796289771756244 #
straight-curve $-1 -41.800592059083833 16.930725964835013 0 0 0 -1 I I #
point $-1 -41.800592059083833 -16.930725964835013 -4.4684261038207094 #
straight-curve $-1 -41.800592059083833 0 -4.4684261038207094 0 1 0 I I #
point $-1 -41.800592059083833 16.930725964835013 -4.4684261038207094 #
straight-curve $-1 -41.800592059083833 -7.6904510012393565 -3.2947169268713061 0 -1 0 I I #
point $-1 -41.800592059083833 -16.930725964835013 -3.2947169268713061 #
point $-1 -41.800592059083833 -13.831078040122414 -3.2947169268713061 #
straight-curve $-1 -41.800592059083833 -13.831078040122414 -0.89735846343565306 0 0 -1 I I #
straight-curve $-1 -41.800592059083833 -16.930725964835013 0 0 0 -1 I I #
point $-1 -41.800592059083833 13.831078040122414 -3.2947169268713061 #
straight-curve $-1 -41.800592059083833 7.6904510012393565 -3.2947169268713061 0 -1 0 I I #
point $-1 -41.800592059083833 16.930725964835013 -3.2947169268713061 #
straight-curve $-1 -41.800592059083833 16.930725964835013 0 0 0 -1 I I #
straight-curve $-1 15.748088024093153 13.831078040122414 4.4684261038207111 -1 0 0 I I #
point $-1 41.800592059083833 13.831078040122414 4.4684261038207094 #
straight-curve $-1 36.494235546897599 5.1895642258460946 4.4684261038207183 0 -1 0 I I #
point $-1 36.494235546897613 13.831078040122414 4.468426103820704 #
point $-1 37.598501033758303 8.8997214852220949 0.39622284237104721 #
point $-1 37.598501033758303 11.858535418162287 0.39622284237104721 #
straight-curve $-1 -57.100670969267597 -9.5341950040149115 4.4684261038207111 1 0 0 I I #
point $-1 -41.800592059083833 -9.5341950040149115 4.4684261038207094 #
straight-curve $-1 -39.919717081559355 -2.925057423499319 4.4684261038207085 0 1 0 I I #
point $-1 -39.919717081559355 -9.5341950040149115 4.4684261038207094 #
point $-1 -39.053756706583044 -7.4290063428627562 1.7966162781146242 #
point $-1 -39.053756706583044 -4.2712233511345215 1.7966162781146242 #
End-of-ACIS-data 