500 0 8 0           
7 Unknown 11 ACIS 5.0 NT 24 Fri Mar 26 19:08:31 1999 
-1 9.9999999999999995e-007 1e-010 
body $-1 $8 $-1 $9 #
body $-1 $10 $-1 $11 #
body $-1 $12 $-1 $13 #
body $-1 $14 $-1 $15 #
body $-1 $16 $-1 $17 #
body $-1 $18 $-1 $19 #
body $-1 $20 $-1 $21 #
body $-1 $22 $-1 $23 #
lump $-1 $-1 $24 $0 #
transform $-1 1 0 0 0 1 0 0 0 1 49.647511215552228 30.991853187883891 13.201827655765964 1 rotate no_reflect no_shear #
lump $-1 $-1 $25 $1 #
transform $-1 1 0 0 0 1 0 0 0 1 49.647511215552228 30.991853187883891 13.201827655765964 1 rotate no_reflect no_shear #
lump $-1 $-1 $26 $2 #
transform $-1 1 0 0 0 1 0 0 0 1 49.647511215552228 30.991853187883891 13.201827655765964 1 rotate no_reflect no_shear #
lump $-1 $-1 $27 $3 #
transform $-1 1 0 0 0 1 0 0 0 1 49.647511215552228 30.991853187883891 13.201827655765964 1 rotate no_reflect no_shear #
lump $-1 $-1 $28 $4 #
transform $-1 1 0 0 0 1 0 0 0 1 49.647511215552228 30.991853187883891 13.201827655765964 1 rotate no_reflect no_shear #
lump $-1 $-1 $29 $5 #
transform $-1 1 0 0 0 1 0 0 0 1 49.647511215552228 30.991853187883891 13.201827655765964 1 rotate no_reflect no_shear #
lump $-1 $-1 $30 $6 #
transform $-1 1 0 0 0 1 0 0 0 1 49.647511215552228 30.991853187883891 13.201827655765964 1 rotate no_reflect no_shear #
lump $-1 $-1 $31 $7 #
transform $-1 1 0 0 0 1 0 0 0 1 49.647511215552228 30.991853187883891 13.201827655765964 1 rotate no_reflect no_shear #
shell $-1 $-1 $-1 $32 $-1 $8 #
shell $-1 $-1 $-1 $33 $-1 $10 #
shell $-1 $-1 $-1 $34 $-1 $12 #
shell $-1 $-1 $-1 $35 $-1 $14 #
shell $-1 $-1 $-1 $36 $-1 $16 #
shell $-1 $-1 $-1 $37 $-1 $18 #
shell $-1 $-1 $-1 $38 $-1 $20 #
shell $-1 $-1 $-1 $39 $-1 $22 #
face $-1 $40 $41 $24 $-1 $42 reversed single #
face $-1 $43 $44 $25 $-1 $45 forward single #
face $-1 $46 $47 $26 $-1 $48 reversed single #
face $-1 $49 $50 $27 $-1 $51 forward single #
face $-1 $52 $53 $28 $-1 $54 forward single #
face $-1 $55 $56 $29 $-1 $57 reversed single #
face $-1 $58 $59 $30 $-1 $60 forward single #
face $-1 $61 $62 $31 $-1 $63 forward single #
face $-1 $64 $65 $24 $-1 $66 forward single #
loop $-1 $-1 $67 $32 #
plane-surface $-1 -49.647511215552228 0 0 1 0 0 0 0 -1 forward_v I I I I #
face $-1 $68 $69 $25 $-1 $70 reversed single #
loop $-1 $-1 $71 $33 #
plane-surface $-1 -49.647511215552228 0 0 1 0 0 0 0 -1 forward_v I I I I #
face $-1 $72 $73 $26 $-1 $74 reversed single #
loop $-1 $-1 $75 $34 #
plane-surface $-1 -22.147867883569354 -108.15857968469069 69.961273795724239 -1 0 0 0 -0.77714596973225614 0.62932038083071107 forward_v I I I I #
face $-1 $76 $77 $27 $-1 $78 forward single #
loop $-1 $79 $80 $35 #
cone-surface $-1 -33.940307110985223 -27.699142664085826 9.5493507653979712 0 0.77714596973225614 -0.62932038083071107 1.5 0 0 1 I I 0 1 1.5 forward I I I I #
face $-1 $81 $82 $28 $-1 $83 forward single #
loop $-1 $84 $85 $36 #
cone-surface $-1 -26.864843574535705 -27.699142664085826 9.5493507653979712 0 0.77714596973225614 -0.62932038083071107 1.5 0 0 1 I I 0 1 1.5 forward I I I I #
face $-1 $86 $87 $29 $-1 $88 reversed single #
loop $-1 $-1 $89 $37 #
plane-surface $-1 39.007116360383613 67.213896324764193 117.76330188537629 1 0 0 0 -0.7660444514056185 -0.64278759981090561 forward_v I I I I #
face $-1 $90 $91 $30 $-1 $92 forward single #
loop $-1 $93 $94 $38 #
cone-surface $-1 42.047229176146075 27.363044915022503 9.1587248438863718 0 -0.7660444514056185 -0.64278759981090561 1.5 0 0 1 I I 0 1 1.5 forward I I I I #
face $-1 $95 $96 $31 $-1 $97 forward single #
loop $-1 $98 $99 $39 #
cone-surface $-1 46.607398399789773 27.363044915022503 9.1587248438863718 0 -0.7660444514056185 -0.64278759981090561 1.5 0 0 1 I I 0 1 1.5 forward I I I I #
face $-1 $100 $101 $24 $-1 $102 reversed single #
loop $-1 $-1 $103 $40 #
plane-surface $-1 0 0 13.201827655765964 0 0 1 1 0 0 forward_v I I I I #
coedge $-1 $104 $105 $106 $107 reversed $41 $-1 #
face $-1 $108 $109 $25 $-1 $110 reversed single #
loop $-1 $-1 $111 $43 #
plane-surface $-1 0 0 -13.201827655765964 0 0 1 1 0 0 forward_v I I I I #
coedge $-1 $112 $113 $114 $115 forward $44 $-1 #
face $-1 $116 $117 $26 $-1 $118 reversed single #
loop $-1 $-1 $119 $46 #
plane-surface $-1 -30.402575342760461 -30.991853187883891 7.4728924647875843 0 -0.77714596973225614 0.62932038083071107 1 0 0 forward_v I I I I #
coedge $-1 $120 $121 $122 $123 reversed $47 $-1 #
face $-1 $-1 $124 $27 $-1 $125 forward single #
loop $-1 $126 $127 $49 #
cone-surface $-1 -33.940307110985223 -26.143172723053929 8.2893511848961374 0 0.77714596973225614 -0.62932038083071107 0.75 0 0 1 I I -0.70710678118654757 0.70710678118654757 0.75 forward I I I I #
loop $-1 $-1 $128 $35 #
coedge $-1 $80 $80 $129 $130 reversed $50 $-1 #
face $-1 $-1 $131 $28 $-1 $132 forward single #
loop $-1 $133 $134 $52 #
cone-surface $-1 -26.864843574535705 -26.143172723053929 8.2893511848961374 0 0.77714596973225614 -0.62932038083071107 0.75 0 0 1 I I -0.70710678118654757 0.70710678118654757 0.75 forward I I I I #
loop $-1 $-1 $135 $36 #
coedge $-1 $85 $85 $136 $137 reversed $53 $-1 #
face $-1 $138 $139 $29 $-1 $140 reversed single #
loop $-1 $-1 $141 $55 #
plane-surface $-1 44.327313787967924 -8.850504660779805 53.937692743716624 0 0.7660444514056185 0.64278759981090561 1 0 0 forward_v I I I I #
coedge $-1 $142 $143 $144 $145 reversed $56 $-1 #
face $-1 $-1 $146 $30 $-1 $147 forward single #
loop $-1 $148 $149 $58 #
cone-surface $-1 42.047229176146075 25.990157989900993 8.0067359615292553 0 -0.7660444514056185 -0.64278759981090561 0.75 0 0 1 I I -0.70710678118654757 0.70710678118654757 0.75 forward I I I I #
loop $-1 $-1 $150 $38 #
coedge $-1 $94 $94 $151 $152 reversed $59 $-1 #
face $-1 $-1 $153 $31 $-1 $154 forward single #
loop $-1 $155 $156 $61 #
cone-surface $-1 46.607398399789773 25.990157989900993 8.0067359615292553 0 -0.7660444514056185 -0.64278759981090561 0.75 0 0 1 I I -0.70710678118654757 0.70710678118654757 0.75 forward I I I I #
loop $-1 $-1 $157 $39 #
coedge $-1 $99 $99 $158 $159 reversed $62 $-1 #
face $-1 $160 $161 $24 $-1 $162 reversed single #
loop $-1 $-1 $163 $64 #
plane-surface $-1 0 0 -13.201827655765964 0 0 1 1 0 0 forward_v I I I I #
coedge $-1 $164 $165 $166 $167 forward $65 $-1 #
coedge $-1 $168 $67 $169 $170 reversed $41 $-1 #
coedge $-1 $67 $168 $171 $172 forward $41 $-1 #
coedge $-1 $173 $174 $67 $107 forward $101 $-1 #
edge $-1 $175 -30.991853187883891 $176 30.991853187883891 $67 $177 forward 7 unknown #
face $-1 $178 $179 $25 $-1 $180 reversed single #
loop $-1 $-1 $181 $68 #
plane-surface $-1 -55.142625422352559 -18.514283313079957 0 0 1 0 0 0 1 forward_v I I I I #
coedge $-1 $182 $183 $113 $184 forward $69 $-1 #
coedge $-1 $185 $71 $186 $187 reversed $44 $-1 #
coedge $-1 $71 $185 $111 $184 reversed $44 $-1 #
coedge $-1 $188 $189 $71 $115 reversed $190 $-1 #
edge $-1 $191 -13.201827655765964 $192 13.201827655765964 $114 $193 forward 7 unknown #
face $-1 $194 $195 $26 $-1 $196 forward single #
loop $-1 $-1 $197 $72 #
plane-surface $-1 -38.657282801951567 -108.15857968469069 69.961273795724239 1 0 0 0 0.77714596973225614 -0.62932038083071107 forward_v I I I I #
coedge $-1 $198 $199 $200 $201 reversed $73 $-1 #
coedge $-1 $121 $75 $202 $203 reversed $47 $-1 #
coedge $-1 $75 $120 $198 $204 reversed $47 $-1 #
coedge $-1 $200 $205 $75 $123 forward $195 $-1 #
edge $-1 $206 23.087436654461456 $207 27.726636774592162 $122 $208 forward 7 unknown #
loop $-1 $-1 $129 $76 #
plane-surface $-1 -30.402575342760461 -30.991853187883891 7.4728924647875843 0 -0.77714596973225614 0.62932038083071107 1 0 0 forward_v I I I I #
loop $-1 $-1 $209 $49 #
coedge $-1 $127 $127 $128 $210 reversed $77 $-1 #
coedge $-1 $128 $128 $127 $210 forward $79 $-1 #
coedge $-1 $129 $129 $80 $130 forward $124 $-1 #
edge $-1 $211 -1.8406514113949776e-015 $211 6.2831853071795987 $129 $212 forward 7 unknown #
loop $-1 $-1 $136 $81 #
plane-surface $-1 -30.402575342760461 -30.991853187883891 7.4728924647875843 0 -0.77714596973225614 0.62932038083071107 1 0 0 forward_v I I I I #
loop $-1 $-1 $213 $52 #
coedge $-1 $134 $134 $135 $214 reversed $82 $-1 #
coedge $-1 $135 $135 $134 $214 forward $84 $-1 #
coedge $-1 $136 $136 $85 $137 forward $131 $-1 #
edge $-1 $215 -1.8406514113949776e-015 $215 6.2831853071795987 $136 $216 forward 7 unknown #
face $-1 $217 $218 $29 $-1 $219 forward single #
loop $-1 $-1 $220 $86 #
plane-surface $-1 0 30.991853187883891 0 0 -1 0 0 0 -1 forward_v I I I I #
coedge $-1 $221 $222 $223 $224 reversed $87 $-1 #
coedge $-1 $143 $89 $225 $226 reversed $56 $-1 #
coedge $-1 $89 $142 $221 $227 reversed $56 $-1 #
coedge $-1 $223 $228 $89 $145 forward $218 $-1 #
edge $-1 $229 2.6150949744982057 $230 8.2760043470864062 $144 $231 forward 7 unknown #
loop $-1 $-1 $151 $90 #
plane-surface $-1 44.327313787967924 -8.850504660779805 53.937692743716624 0 0.7660444514056185 0.64278759981090561 1 0 0 forward_v I I I I #
loop $-1 $-1 $232 $58 #
coedge $-1 $149 $149 $150 $233 reversed $91 $-1 #
coedge $-1 $150 $150 $149 $233 forward $93 $-1 #
coedge $-1 $151 $151 $94 $152 forward $146 $-1 #
edge $-1 $234 -6.1524799858170891e-016 $234 6.2831853071795996 $151 $235 forward 7 unknown #
loop $-1 $-1 $158 $95 #
plane-surface $-1 44.327313787967924 -8.850504660779805 53.937692743716624 0 0.7660444514056185 0.64278759981090561 1 0 0 forward_v I I I I #
loop $-1 $-1 $236 $61 #
coedge $-1 $156 $156 $157 $237 reversed $96 $-1 #
coedge $-1 $157 $157 $156 $237 forward $98 $-1 #
coedge $-1 $158 $158 $99 $159 forward $153 $-1 #
edge $-1 $238 -6.1524799858170891e-016 $238 6.2831853071795996 $158 $239 forward 7 unknown #
face $-1 $240 $241 $24 $-1 $242 reversed single #
loop $-1 $-1 $169 $100 #
plane-surface $-1 0 -30.991853187883891 0 0 1 0 0 0 1 forward_v I I I I #
coedge $-1 $174 $173 $243 $244 forward $101 $-1 #
coedge $-1 $245 $103 $246 $247 forward $65 $-1 #
coedge $-1 $103 $245 $248 $249 forward $65 $-1 #
coedge $-1 $250 $251 $103 $167 reversed $252 $-1 #
edge $-1 $253 -30.991853187883891 $254 30.991853187883891 $166 $255 forward 7 unknown #
coedge $-1 $105 $104 $245 $256 reversed $41 $-1 #
coedge $-1 $257 $248 $104 $170 forward $161 $-1 #
edge $-1 $258 -13.201827655765964 $175 13.201827655765964 $104 $259 forward 7 unknown #
coedge $-1 $246 $260 $105 $172 reversed $241 $-1 #
edge $-1 $261 -13.201827655765964 $176 13.201827655765964 $171 $262 forward 7 unknown #
coedge $-1 $163 $106 $260 $263 forward $101 $-1 #
coedge $-1 $106 $163 $257 $264 forward $101 $-1 #
vertex $-1 $107 $265 #
vertex $-1 $263 $266 #
straight-curve $-1 -49.647511215552228 0 -13.201827655765964 0 1 0 I I #
face $-1 $267 $190 $25 $-1 $268 reversed single #
loop $-1 $-1 $269 $108 #
plane-surface $-1 -60.63773962915289 -15.702080888247629 0 1 0 0 0 0 -1 forward_v I I I I #
coedge $-1 $270 $271 $272 $273 forward $109 $-1 #
coedge $-1 $274 $111 $270 $275 forward $69 $-1 #
coedge $-1 $111 $274 $188 $276 forward $69 $-1 #
edge $-1 $191 12.8898784634153 $277 18.514283313079957 $111 $278 forward 7 unknown #
coedge $-1 $113 $112 $279 $280 forward $44 $-1 #
coedge $-1 $281 $282 $112 $187 forward $283 $-1 #
edge $-1 $284 -18.514283313079957 $192 -12.8898784634153 $186 $285 forward 7 unknown #
coedge $-1 $286 $114 $183 $276 reversed $190 $-1 #
coedge $-1 $114 $286 $281 $287 reversed $190 $-1 #
loop $-1 $-1 $114 $178 #
vertex $-1 $184 $288 #
vertex $-1 $287 $289 #
straight-curve $-1 -49.647511215552228 -12.8898784634153 0 0 0 1 I I #
face $-1 $-1 $290 $26 $-1 $291 reversed single #
loop $-1 $-1 $122 $116 #
plane-surface $-1 0 0 13.201827655765964 0 0 1 1 0 0 forward_v I I I I #
coedge $-1 $292 $293 $294 $295 reversed $117 $-1 #
coedge $-1 $296 $119 $121 $204 forward $73 $-1 #
coedge $-1 $119 $296 $292 $297 forward $73 $-1 #
coedge $-1 $294 $122 $119 $201 forward $195 $-1 #
edge $-1 $207 6.946580212189124 $298 23.455995130571338 $200 $299 forward 7 unknown #
coedge $-1 $300 $301 $120 $203 forward $290 $-1 #
edge $-1 $302 -27.507744433074535 $206 -21.778809242096155 $202 $303 forward 7 unknown #
edge $-1 $207 -7.3717620808766764 $302 0 $121 $304 forward 7 unknown #
coedge $-1 $122 $294 $300 $305 forward $195 $-1 #
vertex $-1 $123 $306 #
vertex $-1 $123 $307 #
straight-curve $-1 -22.147867883569354 -54.079289842345347 13.201827655765964 0 1 0 I I #
coedge $-1 $209 $209 $-1 $308 reversed $126 $-1 #
edge $-1 $309 0 $309 6.2831853071796004 $127 $310 forward 7 unknown #
vertex $-1 $130 $311 #
ellipse-curve $-1 -33.940307110985223 -28.672253127818536 10.337360060276776 0 -0.77714596973225614 0.62932038083071107 1.5 0 0 1 I I #
coedge $-1 $213 $213 $-1 $312 reversed $133 $-1 #
edge $-1 $313 0 $313 6.2831853071796004 $134 $314 forward 7 unknown #
vertex $-1 $137 $315 #
ellipse-curve $-1 -26.864843574535705 -28.672253127818536 10.337360060276776 0 -0.77714596973225614 0.62932038083071107 1.5 0 0 1 I I #
face $-1 $-1 $316 $29 $-1 $317 reversed single #
loop $-1 $-1 $223 $138 #
plane-surface $-1 0 0 13.201827655765964 0 0 1 1 0 0 forward_v I I I I #
coedge $-1 $225 $318 $319 $320 forward $139 $-1 #
coedge $-1 $319 $141 $143 $227 forward $87 $-1 #
coedge $-1 $141 $319 $321 $322 reversed $87 $-1 #
coedge $-1 $323 $144 $141 $224 forward $218 $-1 #
edge $-1 $230 16.843459466399651 $324 27.483854321568273 $223 $325 forward 7 unknown #
coedge $-1 $326 $220 $142 $226 forward $139 $-1 #
edge $-1 $327 -52.426232545683483 $229 -45.679823286922186 $225 $328 forward 7 unknown #
edge $-1 $230 53.176894647829165 $327 61.983706375767788 $143 $329 forward 7 unknown #
coedge $-1 $144 $323 $326 $330 forward $218 $-1 #
vertex $-1 $226 $331 #
vertex $-1 $145 $332 #
straight-curve $-1 39.007116360383613 33.606948162382096 13.201827655765968 0 -1 0 I I #
coedge $-1 $232 $232 $-1 $333 reversed $148 $-1 #
edge $-1 $334 0 $334 6.2831853071796004 $149 $335 forward 7 unknown #
vertex $-1 $152 $336 #
ellipse-curve $-1 42.047229176146075 28.161398501589797 9.8286230263853085 0 0.7660444514056185 0.64278759981090561 1.5 0 0 1 I I #
coedge $-1 $236 $236 $-1 $337 reversed $155 $-1 #
edge $-1 $338 0 $338 6.2831853071796004 $156 $339 forward 7 unknown #
vertex $-1 $159 $340 #
ellipse-curve $-1 46.607398399789773 28.161398501589797 9.8286230263853085 0 0.7660444514056185 0.64278759981090561 1.5 0 0 1 I I #
face $-1 $-1 $252 $24 $-1 $341 reversed single #
loop $-1 $-1 $342 $160 #
plane-surface $-1 0 30.991853187883891 0 0 -1 0 0 0 -1 forward_v I I I I #
coedge $-1 $251 $250 $163 $244 reversed $252 $-1 #
edge $-1 $343 -30.991853187883891 $344 30.991853187883891 $243 $345 forward 7 unknown #
coedge $-1 $165 $164 $168 $256 forward $65 $-1 #
coedge $-1 $342 $171 $164 $247 reversed $241 $-1 #
edge $-1 $254 -49.647511215552228 $261 49.647511215552228 $246 $346 forward 7 unknown #
coedge $-1 $169 $347 $165 $249 reversed $161 $-1 #
edge $-1 $258 -49.647511215552228 $253 49.647511215552228 $248 $348 forward 7 unknown #
coedge $-1 $243 $166 $347 $349 forward $252 $-1 #
coedge $-1 $166 $243 $342 $350 reversed $252 $-1 #
loop $-1 $-1 $250 $240 #
vertex $-1 $167 $351 #
vertex $-1 $167 $352 #
straight-curve $-1 49.647511215552228 0 13.201827655765964 0 1 0 I I #
edge $-1 $261 -30.991853187883891 $258 30.991853187883891 $168 $353 forward 7 unknown #
coedge $-1 $347 $169 $174 $264 reversed $161 $-1 #
vertex $-1 $256 $354 #
straight-curve $-1 -49.647511215552228 -30.991853187883891 0 0 0 -1 I I #
coedge $-1 $171 $342 $173 $263 reversed $241 $-1 #
vertex $-1 $247 $355 #
straight-curve $-1 -49.647511215552228 30.991853187883891 0 0 0 -1 I I #
edge $-1 $176 -49.647511215552228 $343 49.647511215552228 $260 $356 forward 7 unknown #
edge $-1 $344 -49.647511215552228 $175 49.647511215552228 $257 $357 forward 7 unknown #
point $-1 -49.647511215552228 -30.991853187883891 -13.201827655765964 #
point $-1 -49.647511215552228 30.991853187883891 -13.201827655765964 #
face $-1 $-1 $283 $25 $-1 $358 forward single #
plane-surface $-1 -55.142625422352559 -12.8898784634153 0 0 -1 0 0 0 -1 forward_v I I I I #
coedge $-1 $359 $360 $286 $361 forward $179 $-1 #
coedge $-1 $279 $181 $182 $275 reversed $109 $-1 #
coedge $-1 $181 $279 $282 $362 reversed $109 $-1 #
coedge $-1 $360 $359 $181 $273 reversed $179 $-1 #
edge $-1 $363 -13.201827655765964 $364 13.201827655765964 $272 $365 forward 7 unknown #
coedge $-1 $183 $182 $359 $366 forward $69 $-1 #
edge $-1 $277 -5.4951142068003307 $364 5.4951142068003307 $270 $367 forward 7 unknown #
edge $-1 $368 -5.4951142068003307 $191 5.4951142068003307 $188 $369 forward 7 unknown #
vertex $-1 $275 $370 #
straight-curve $-1 -49.647511215552228 0 -13.201827655765964 0 -1 0 I I #
coedge $-1 $271 $270 $185 $280 reversed $109 $-1 #
edge $-1 $284 -13.201827655765964 $277 13.201827655765964 $279 $371 forward 7 unknown #
coedge $-1 $372 $186 $189 $287 forward $283 $-1 #
coedge $-1 $186 $372 $271 $362 forward $283 $-1 #
loop $-1 $-1 $186 $267 #
vertex $-1 $187 $373 #
straight-curve $-1 -49.647511215552228 0 13.201827655765964 0 1 0 I I #
coedge $-1 $189 $188 $269 $361 reversed $190 $-1 #
edge $-1 $192 -5.4951142068003307 $374 5.4951142068003307 $189 $375 forward 7 unknown #
point $-1 -49.647511215552228 -12.8898784634153 -13.201827655765964 #
point $-1 -49.647511215552228 -12.8898784634153 13.201827655765964 #
loop $-1 $-1 $202 $194 #
plane-surface $-1 0 -30.991853187883891 0 0 1 0 0 0 1 forward_v I I I I #
coedge $-1 $293 $197 $199 $297 reversed $117 $-1 #
coedge $-1 $197 $292 $376 $377 reversed $117 $-1 #
coedge $-1 $205 $200 $197 $295 forward $195 $-1 #
edge $-1 $298 -27.726636774592162 $378 -23.087436654461456 $294 $379 forward 7 unknown #
coedge $-1 $199 $198 $301 $380 reversed $73 $-1 #
edge $-1 $381 0 $298 7.3717620808766764 $292 $382 forward 7 unknown #
vertex $-1 $201 $383 #
straight-curve $-1 -15.20128767138023 -26.352653067753185 13.201827655765964 -1 0 0 I I #
coedge $-1 $376 $202 $205 $305 reversed $290 $-1 #
coedge $-1 $202 $376 $296 $380 forward $290 $-1 #
vertex $-1 $203 $384 #
straight-curve $-1 -22.147867883569354 -30.991853187883891 34.980636897862119 0 0 1 I I #
straight-curve $-1 -22.147867883569354 -30.991853187883891 7.4728924647875843 0 -0.62932038083071107 -0.77714596973225614 I I #
edge $-1 $378 -38.657282801951567 $206 -22.147867883569354 $300 $385 forward 7 unknown #
point $-1 -22.147867883569354 -30.991853187883891 13.201827655765964 #
point $-1 -22.147867883569354 -26.352653067753185 13.201827655765964 #
edge $-1 $386 1 $386 0 $209 $-1 forward 7 unknown #
vertex $-1 $210 $387 #
ellipse-curve $-1 -33.940307110985223 -26.726032200353121 8.7613414705191701 0 -0.77714596973225614 0.62932038083071107 1.5 0 0 1 I I #
point $-1 -32.440307110985223 -28.672253127818536 10.337360060276772 #
edge $-1 $388 1 $388 0 $213 $-1 forward 7 unknown #
vertex $-1 $214 $389 #
ellipse-curve $-1 -26.864843574535705 -26.726032200353121 8.7613414705191701 0 -0.77714596973225614 0.62932038083071107 1.5 0 0 1 I I #
point $-1 -25.364843574535705 -28.672253127818536 10.337360060276772 #
loop $-1 $-1 $321 $217 #
plane-surface $-1 49.647511215552228 0 0 -1 0 0 0 0 1 forward_v I I I I #
coedge $-1 $220 $326 $390 $391 forward $139 $-1 #
coedge $-1 $222 $221 $220 $320 reversed $87 $-1 #
edge $-1 $392 -27.483854321568273 $327 -16.843459466399651 $220 $393 forward 7 unknown #
coedge $-1 $390 $394 $222 $322 forward $316 $-1 #
edge $-1 $324 29.673062199847607 $392 38.47987392778623 $321 $395 forward 7 unknown #
coedge $-1 $228 $223 $394 $396 forward $218 $-1 #
vertex $-1 $396 $397 #
straight-curve $-1 22.163656893983962 25.330943815295697 13.20182765576596 1 0 0 I I #
coedge $-1 $318 $225 $228 $330 reversed $139 $-1 #
vertex $-1 $226 $398 #
straight-curve $-1 39.007116360383613 30.991853187883891 58.881650942688147 0 0 1 I I #
straight-curve $-1 39.007116360383613 -8.850504660779805 53.937692743716624 0 0.64278759981090561 -0.7660444514056185 I I #
edge $-1 $399 -49.647511215552228 $229 -39.007116360383613 $326 $400 forward 7 unknown #
point $-1 39.007116360383613 30.991853187883891 13.201827655765964 #
point $-1 39.007116360383613 25.33094381529569 13.201827655765968 #
edge $-1 $401 1 $401 0 $232 $-1 forward 7 unknown #
vertex $-1 $233 $402 #
ellipse-curve $-1 42.047229176146075 26.564691328455208 8.488826661387435 0 0.7660444514056185 0.64278759981090561 1.5 0 0 1 I I #
point $-1 43.547229176146075 28.161398501589794 9.8286230263853067 #
edge $-1 $403 1 $403 0 $236 $-1 forward 7 unknown #
vertex $-1 $237 $404 #
ellipse-curve $-1 46.607398399789773 26.564691328455208 8.488826661387435 0 0.7660444514056185 0.64278759981090561 1.5 0 0 1 I I #
point $-1 48.107398399789773 28.161398501589794 9.8286230263853067 #
plane-surface $-1 49.647511215552228 0 0 -1 0 0 0 0 1 forward_v I I I I #
coedge $-1 $260 $246 $251 $350 forward $241 $-1 #
vertex $-1 $244 $405 #
vertex $-1 $349 $406 #
straight-curve $-1 49.647511215552228 0 -13.201827655765964 0 -1 0 I I #
straight-curve $-1 0 30.991853187883891 13.201827655765964 -1 0 0 I I #
coedge $-1 $248 $257 $250 $349 reversed $161 $-1 #
straight-curve $-1 0 -30.991853187883891 13.201827655765964 1 0 0 I I #
edge $-1 $253 -13.201827655765964 $344 13.201827655765964 $250 $407 forward 7 unknown #
edge $-1 $254 -13.201827655765964 $343 13.201827655765964 $251 $408 forward 7 unknown #
point $-1 49.647511215552228 -30.991853187883891 13.201827655765964 #
point $-1 49.647511215552228 30.991853187883891 13.201827655765964 #
straight-curve $-1 -49.647511215552228 0 13.201827655765964 0 -1 0 I I #
point $-1 -49.647511215552228 -30.991853187883891 13.201827655765964 #
point $-1 -49.647511215552228 30.991853187883891 13.201827655765964 #
straight-curve $-1 0 30.991853187883891 -13.201827655765964 1 0 0 I I #
straight-curve $-1 0 -30.991853187883891 -13.201827655765964 -1 0 0 I I #
plane-surface $-1 0 0 13.201827655765964 0 0 1 1 0 0 forward_v I I I I #
coedge $-1 $272 $269 $274 $366 reversed $179 $-1 #
coedge $-1 $269 $272 $372 $409 reversed $179 $-1 #
edge $-1 $374 -13.201827655765964 $368 13.201827655765964 $286 $410 forward 7 unknown #
edge $-1 $363 -5.4951142068003307 $284 5.4951142068003307 $271 $411 forward 7 unknown #
vertex $-1 $409 $412 #
vertex $-1 $366 $413 #
straight-curve $-1 -60.63773962915289 -18.514283313079957 0 0 0 -1 I I #
edge $-1 $364 -2.8122024248323285 $368 2.8122024248323285 $359 $414 forward 7 unknown #
straight-curve $-1 -55.142625422352559 -18.514283313079957 -13.201827655765964 -1 0 0 I I #
vertex $-1 $276 $415 #
straight-curve $-1 -55.142625422352559 -12.8898784634153 -13.201827655765964 1 0 0 I I #
point $-1 -49.647511215552228 -18.514283313079957 -13.201827655765964 #
straight-curve $-1 -49.647511215552228 -18.514283313079957 0 0 0 -1 I I #
coedge $-1 $282 $281 $360 $409 forward $283 $-1 #
point $-1 -49.647511215552228 -18.514283313079957 13.201827655765964 #
vertex $-1 $287 $416 #
straight-curve $-1 -55.142625422352559 -12.8898784634153 13.201827655765964 -1 0 0 I I #
coedge $-1 $301 $300 $293 $377 forward $290 $-1 #
edge $-1 $378 21.778809242096155 $381 27.507744433074535 $376 $417 forward 7 unknown #
vertex $-1 $305 $418 #
straight-curve $-1 -38.657282801951567 -54.079289842345347 13.201827655765964 0 -1 0 I I #
edge $-1 $381 -23.455995130571338 $302 -6.946580212189124 $301 $419 forward 7 unknown #
vertex $-1 $380 $420 #
straight-curve $-1 -38.657282801951567 -30.991853187883891 7.4728924647875843 0 0.62932038083071107 0.77714596973225614 I I #
point $-1 -38.657282801951567 -26.352653067753185 13.201827655765964 #
point $-1 -22.147867883569354 -30.991853187883891 7.4728924647875843 #
straight-curve $-1 0 -30.991853187883891 13.201827655765964 1 0 0 I I #
vertex $-1 $308 $421 #
point $-1 -32.440307110985223 -26.726032200353121 8.7613414705191701 #
vertex $-1 $312 $422 #
point $-1 -25.364843574535705 -26.726032200353121 8.7613414705191701 #
coedge $-1 $394 $321 $318 $391 reversed $316 $-1 #
edge $-1 $399 -13.201827655765964 $392 -6.4554183970046637 $390 $423 forward 7 unknown #
vertex $-1 $322 $424 #
straight-curve $-1 22.163656893983962 30.991853187883891 6.4554183970046637 -1 0 0 I I #
coedge $-1 $321 $390 $323 $396 reversed $316 $-1 #
straight-curve $-1 49.647511215552228 6.2574673848159375 35.932712310173024 0 0.64278759981090572 -0.76604445140561861 I I #
edge $-1 $324 25.33094381529569 $399 30.991853187883891 $394 $425 forward 7 unknown #
point $-1 49.647511215552235 25.33094381529569 13.201827655765968 #
point $-1 39.007116360383613 30.991853187883891 6.4554183970046637 #
vertex $-1 $396 $426 #
straight-curve $-1 0 30.991853187883891 13.201827655765964 -1 0 0 I I #
vertex $-1 $333 $427 #
point $-1 43.547229176146075 26.564691328455208 8.488826661387435 #
vertex $-1 $337 $428 #
point $-1 48.107398399789773 26.564691328455208 8.488826661387435 #
point $-1 49.647511215552228 30.991853187883891 -13.201827655765964 #
point $-1 49.647511215552228 -30.991853187883891 -13.201827655765964 #
straight-curve $-1 49.647511215552228 -30.991853187883891 0 0 0 -1 I I #
straight-curve $-1 49.647511215552228 30.991853187883891 0 0 0 -1 I I #
edge $-1 $374 -2.8122024248323285 $363 2.8122024248323285 $360 $429 forward 7 unknown #
straight-curve $-1 -60.63773962915289 -12.8898784634153 0 0 0 -1 I I #
straight-curve $-1 -55.142625422352559 -18.514283313079957 13.201827655765964 1 0 0 I I #
point $-1 -60.63773962915289 -18.514283313079957 13.201827655765964 #
point $-1 -60.63773962915289 -18.514283313079957 -13.201827655765964 #
straight-curve $-1 -60.63773962915289 -15.702080888247629 -13.201827655765964 0 1 0 I I #
point $-1 -60.63773962915289 -12.8898784634153 -13.201827655765964 #
point $-1 -60.63773962915289 -12.8898784634153 13.201827655765964 #
straight-curve $-1 -38.657282801951567 -30.991853187883891 34.980636897862119 0 0 -1 I I #
point $-1 -38.657282801951567 -30.991853187883891 13.201827655765964 #
straight-curve $-1 -15.20128767138023 -30.991853187883891 7.4728924647875825 1 0 0 I I #
point $-1 -38.657282801951567 -30.991853187883891 7.4728924647875843 #
point $-1 -33.940307110985223 -25.560313245754738 7.8173608992731038 #
point $-1 -26.864843574535705 -25.560313245754738 7.8173608992731038 #
straight-curve $-1 49.647511215552228 30.991853187883891 0 0 0 -1 I I #
point $-1 49.647511215552235 30.991853187883891 6.4554183970046637 #
straight-curve $-1 49.647511215552228 0 13.201827655765964 0 1 0 I I #
point $-1 49.647511215552228 30.991853187883891 13.201827655765964 #
point $-1 42.047229176146075 25.415624651346779 7.5246452616710764 #
point $-1 46.607398399789773 25.415624651346779 7.5246452616710764 #
straight-curve $-1 -60.63773962915289 -15.702080888247629 13.201827655765964 0 -1 0 I I #
End-of-ACIS-data 