500 0 8 0           
7 Unknown 11 ACIS 5.0 NT 24 Fri Mar 26 02:03:56 1999 
-1 9.9999999999999995e-007 1e-010 
body $-1 $8 $-1 $9 #
body $-1 $10 $-1 $11 #
body $-1 $12 $-1 $13 #
body $-1 $14 $-1 $15 #
body $-1 $16 $-1 $17 #
body $-1 $18 $-1 $19 #
body $-1 $20 $-1 $21 #
body $-1 $22 $-1 $23 #
lump $-1 $-1 $24 $0 #
transform $-1 1 0 0 0 1 0 0 0 1 73.345744193853562 32.556897048138126 14.433057585395796 1 rotate no_reflect no_shear #
lump $-1 $-1 $25 $1 #
transform $-1 1 0 0 0 1 0 0 0 1 73.345744193853562 32.556897048138126 14.433057585395796 1 rotate no_reflect no_shear #
lump $-1 $-1 $26 $2 #
transform $-1 1 0 0 0 1 0 0 0 1 73.345744193853562 32.556897048138126 14.433057585395796 1 rotate no_reflect no_shear #
lump $-1 $-1 $27 $3 #
transform $-1 1 0 0 0 1 0 0 0 1 73.345744193853562 32.556897048138126 14.433057585395796 1 rotate no_reflect no_shear #
lump $-1 $-1 $28 $4 #
transform $-1 1 0 0 0 1 0 0 0 1 73.345744193853562 32.556897048138126 14.433057585395796 1 rotate no_reflect no_shear #
lump $-1 $-1 $29 $5 #
transform $-1 1 0 0 0 1 0 0 0 1 73.345744193853562 32.556897048138126 14.433057585395796 1 rotate no_reflect no_shear #
lump $-1 $-1 $30 $6 #
transform $-1 1 0 0 0 1 0 0 0 1 73.345744193853562 32.556897048138126 14.433057585395796 1 rotate no_reflect no_shear #
lump $-1 $-1 $31 $7 #
transform $-1 1 0 0 0 1 0 0 0 1 73.345744193853562 32.556897048138126 14.433057585395796 1 rotate no_reflect no_shear #
shell $-1 $-1 $-1 $32 $-1 $8 #
shell $-1 $-1 $-1 $33 $-1 $10 #
shell $-1 $-1 $-1 $34 $-1 $12 #
shell $-1 $-1 $-1 $35 $-1 $14 #
shell $-1 $-1 $-1 $36 $-1 $16 #
shell $-1 $-1 $-1 $37 $-1 $18 #
shell $-1 $-1 $-1 $38 $-1 $20 #
shell $-1 $-1 $-1 $39 $-1 $22 #
face $-1 $40 $41 $24 $-1 $42 reversed single #
face $-1 $43 $44 $25 $-1 $45 forward single #
face $-1 $46 $47 $26 $-1 $48 reversed single #
face $-1 $49 $50 $27 $-1 $51 forward single #
face $-1 $52 $53 $28 $-1 $54 forward single #
face $-1 $55 $56 $29 $-1 $57 reversed single #
face $-1 $58 $59 $30 $-1 $60 forward single #
face $-1 $61 $62 $31 $-1 $63 forward single #
face $-1 $64 $65 $24 $-1 $66 forward single #
loop $-1 $-1 $67 $32 #
plane-surface $-1 0 -32.556897048138126 0 0 1 0 0 0 1 forward_v I I I I #
face $-1 $68 $69 $25 $-1 $70 forward single #
loop $-1 $-1 $71 $33 #
plane-surface $-1 0 -32.556897048138126 0 0 1 0 0 0 1 forward_v I I I I #
face $-1 $72 $73 $26 $-1 $74 reversed single #
loop $-1 $-1 $75 $34 #
plane-surface $-1 -180.62910843457615 -12.726754626542343 105.15154020389924 0 1 0 -0.73135370988377701 0 0.68199835119979291 forward_v I I I I #
face $-1 $76 $77 $27 $-1 $78 forward single #
loop $-1 $79 $80 $35 #
cone-surface $-1 -67.776193717931562 -8.6079528162222481 8.6313133099976032 0.73135370988377701 0 -0.68199835119979291 1.0229975267996894 0 1.0970305648256655 1 I I 0 1 1.5 forward I I I I #
face $-1 $81 $82 $28 $-1 $83 forward single #
loop $-1 $84 $85 $36 #
cone-surface $-1 -67.776193717931562 -2.4297501007421083 8.6313133099976032 0.73135370988377701 0 -0.68199835119979291 1.0229975267996894 0 1.0970305648256655 1 I I 0 1 1.5 forward I I I I #
face $-1 $86 $87 $29 $-1 $88 reversed single #
loop $-1 $-1 $89 $37 #
plane-surface $-1 76.966302338535883 8.6069271191688586 218.62252207654436 0 -1 0 -0.71933980857756763 0 -0.69465836192734942 forward_v I I I I #
face $-1 $90 $91 $30 $-1 $92 forward single #
loop $-1 $93 $94 $38 #
cone-surface $-1 70.827896519469306 2.7722507767545324 11.892607838755348 -0.71933980857756763 0 -0.69465836192734942 0.69465836192734942 0 -0.71933980857756763 1 I I 0 1 1 forward I I I I #
face $-1 $95 $96 $31 $-1 $97 forward single #
loop $-1 $98 $99 $39 #
cone-surface $-1 70.827896519469306 6.2730565822031323 11.892607838755348 -0.71933980857756763 0 -0.69465836192734942 0.69465836192734942 0 -0.71933980857756763 1 I I 0 1 1 forward I I I I #
face $-1 $100 $101 $24 $-1 $102 reversed single #
loop $-1 $-1 $103 $40 #
plane-surface $-1 0 0 14.433057585395796 0 0 1 1 0 0 forward_v I I I I #
coedge $-1 $104 $105 $106 $107 reversed $41 $-1 #
face $-1 $108 $109 $25 $-1 $110 reversed single #
loop $-1 $-1 $111 $43 #
plane-surface $-1 0 0 14.433057585395796 0 0 1 1 0 0 forward_v I I I I #
coedge $-1 $112 $113 $114 $115 forward $44 $-1 #
face $-1 $116 $117 $26 $-1 $118 reversed single #
loop $-1 $-1 $119 $46 #
plane-surface $-1 -73.345744193853548 -5.5188514584821817 5.1081869884394138 -0.73135370988377701 0 0.68199835119979291 0.68199835119979291 0 0.73135370988377701 forward_v I I I I #
coedge $-1 $120 $121 $122 $123 reversed $47 $-1 #
face $-1 $-1 $124 $27 $-1 $125 forward single #
loop $-1 $126 $127 $49 #
cone-surface $-1 -66.00591910793608 -8.6079528162222481 6.9805055696777583 0.73135370988377701 0 -0.68199835119979291 0.51149876339984468 0 0.54851528241283276 1 I I -0.70710678118654791 0.70710678118654702 0.75 forward I I I I #
loop $-1 $-1 $128 $35 #
coedge $-1 $80 $80 $129 $130 reversed $50 $-1 #
face $-1 $-1 $131 $28 $-1 $132 forward single #
loop $-1 $133 $134 $52 #
cone-surface $-1 -66.00591910793608 -2.4297501007421083 6.9805055696777583 0.73135370988377701 0 -0.68199835119979291 0.51149876339984468 0 0.54851528241283276 1 I I -0.70710678118654791 0.70710678118654702 0.75 forward I I I I #
loop $-1 $-1 $135 $36 #
coedge $-1 $85 $85 $136 $137 reversed $53 $-1 #
face $-1 $138 $139 $29 $-1 $140 reversed single #
loop $-1 $-1 $141 $55 #
plane-surface $-1 -28.554724838235842 4.5226536794788288 116.72205304445492 0.71933980857756763 0 0.69465836192734942 0.69465836192734942 0 -0.71933980857756763 forward_v I I I I #
coedge $-1 $142 $143 $144 $145 reversed $56 $-1 #
face $-1 $-1 $146 $30 $-1 $147 forward single #
loop $-1 $148 $149 $58 #
cone-surface $-1 69.510947278563521 2.7722507767545324 10.620844770007528 -0.71933980857756763 0 -0.69465836192734942 0.34732918096367471 0 -0.35966990428878381 1 I I -0.70710678118654746 0.70710678118654746 0.5 forward I I I I #
loop $-1 $-1 $150 $38 #
coedge $-1 $94 $94 $151 $152 reversed $59 $-1 #
face $-1 $-1 $153 $31 $-1 $154 forward single #
loop $-1 $155 $156 $61 #
cone-surface $-1 69.510947278563521 6.2730565822031323 10.620844770007528 -0.71933980857756763 0 -0.69465836192734942 0.34732918096367471 0 -0.35966990428878381 1 I I -0.70710678118654746 0.70710678118654746 0.5 forward I I I I #
loop $-1 $-1 $157 $39 #
coedge $-1 $99 $99 $158 $159 reversed $62 $-1 #
face $-1 $160 $161 $24 $-1 $162 reversed single #
loop $-1 $-1 $163 $64 #
plane-surface $-1 0 0 -14.433057585395796 0 0 1 1 0 0 forward_v I I I I #
coedge $-1 $164 $165 $166 $167 forward $65 $-1 #
coedge $-1 $168 $67 $169 $170 reversed $41 $-1 #
coedge $-1 $67 $168 $171 $172 forward $41 $-1 #
coedge $-1 $173 $163 $67 $107 forward $101 $-1 #
edge $-1 $174 -73.345744193853562 $175 73.345744193853562 $67 $176 forward 7 unknown #
face $-1 $177 $178 $25 $-1 $179 reversed single #
loop $-1 $-1 $180 $68 #
plane-surface $-1 -73.345744193853562 0 0 1 0 0 0 0 -1 forward_v I I I I #
coedge $-1 $181 $182 $113 $183 forward $69 $-1 #
coedge $-1 $184 $71 $185 $186 reversed $44 $-1 #
coedge $-1 $71 $184 $111 $183 reversed $44 $-1 #
coedge $-1 $187 $188 $71 $115 reversed $189 $-1 #
edge $-1 $190 -14.433057585395796 $191 14.433057585395796 $114 $192 forward 7 unknown #
face $-1 $193 $194 $26 $-1 $195 reversed single #
loop $-1 $-1 $196 $72 #
plane-surface $-1 -180.62910843457615 1.6890517095779796 105.15154020389924 0 -1 0 0.73135370988377701 0 -0.68199835119979291 forward_v I I I I #
coedge $-1 $197 $198 $199 $200 reversed $73 $-1 #
coedge $-1 $121 $75 $201 $202 reversed $47 $-1 #
coedge $-1 $75 $120 $197 $203 reversed $47 $-1 #
coedge $-1 $199 $204 $75 $123 forward $205 $-1 #
edge $-1 $206 16.968810023434514 $207 25.664392320113251 $122 $208 forward 7 unknown #
loop $-1 $-1 $129 $76 #
plane-surface $-1 -73.345744193853548 -5.5188514584821817 5.1081869884394138 -0.73135370988377701 0 0.68199835119979291 0.68199835119979291 0 0.73135370988377701 forward_v I I I I #
loop $-1 $-1 $209 $49 #
coedge $-1 $127 $127 $128 $210 reversed $77 $-1 #
coedge $-1 $128 $128 $127 $210 forward $79 $-1 #
coedge $-1 $129 $129 $80 $130 forward $124 $-1 #
edge $-1 $211 0 $211 6.2831853071796004 $129 $212 forward 7 unknown #
loop $-1 $-1 $136 $81 #
plane-surface $-1 -73.345744193853548 -5.5188514584821817 5.1081869884394138 -0.73135370988377701 0 0.68199835119979291 0.68199835119979291 0 0.73135370988377701 forward_v I I I I #
loop $-1 $-1 $213 $52 #
coedge $-1 $134 $134 $135 $214 reversed $82 $-1 #
coedge $-1 $135 $135 $134 $214 forward $84 $-1 #
coedge $-1 $136 $136 $85 $137 forward $131 $-1 #
edge $-1 $215 0 $215 6.2831853071796004 $136 $216 forward 7 unknown #
face $-1 $217 $218 $29 $-1 $219 forward single #
loop $-1 $-1 $220 $86 #
plane-surface $-1 76.966302338535883 0.43838023978879903 218.62252207654436 0 1 0 0.71933980857756763 0 0.69465836192734942 forward_v I I I I #
coedge $-1 $221 $222 $223 $224 reversed $87 $-1 #
coedge $-1 $143 $89 $225 $226 reversed $56 $-1 #
coedge $-1 $89 $142 $221 $227 reversed $56 $-1 #
coedge $-1 $223 $228 $89 $145 forward $218 $-1 #
edge $-1 $229 -34.862593024585621 $230 -31.741456349051063 $144 $231 forward 7 unknown #
loop $-1 $-1 $151 $90 #
plane-surface $-1 -28.554724838235842 4.5226536794788288 116.72205304445492 0.71933980857756763 0 0.69465836192734942 0.69465836192734942 0 -0.71933980857756763 forward_v I I I I #
loop $-1 $-1 $232 $58 #
coedge $-1 $149 $149 $150 $233 reversed $91 $-1 #
coedge $-1 $150 $150 $149 $233 forward $93 $-1 #
coedge $-1 $151 $151 $94 $152 forward $146 $-1 #
edge $-1 $234 0 $234 6.2831853071796004 $151 $235 forward 7 unknown #
loop $-1 $-1 $158 $95 #
plane-surface $-1 -28.554724838235842 4.5226536794788288 116.72205304445492 0.71933980857756763 0 0.69465836192734942 0.69465836192734942 0 -0.71933980857756763 forward_v I I I I #
loop $-1 $-1 $236 $61 #
coedge $-1 $156 $156 $157 $237 reversed $96 $-1 #
coedge $-1 $157 $157 $156 $237 forward $98 $-1 #
coedge $-1 $158 $158 $99 $159 forward $153 $-1 #
edge $-1 $238 0 $238 6.2831853071796004 $158 $239 forward 7 unknown #
face $-1 $240 $241 $24 $-1 $242 reversed single #
loop $-1 $-1 $243 $100 #
plane-surface $-1 -73.345744193853562 0 0 1 0 0 0 0 -1 forward_v I I I I #
coedge $-1 $106 $244 $245 $246 forward $101 $-1 #
coedge $-1 $247 $103 $248 $249 forward $65 $-1 #
coedge $-1 $103 $247 $168 $250 forward $65 $-1 #
coedge $-1 $169 $251 $103 $167 reversed $252 $-1 #
edge $-1 $253 -32.556897048138126 $254 32.556897048138126 $166 $255 forward 7 unknown #
coedge $-1 $105 $104 $165 $250 reversed $41 $-1 #
coedge $-1 $245 $166 $104 $170 forward $252 $-1 #
edge $-1 $253 -14.433057585395796 $174 14.433057585395796 $169 $256 forward 7 unknown #
coedge $-1 $257 $258 $105 $172 reversed $161 $-1 #
edge $-1 $259 -14.433057585395796 $175 14.433057585395796 $171 $260 forward 7 unknown #
coedge $-1 $244 $106 $258 $261 forward $101 $-1 #
vertex $-1 $170 $262 #
vertex $-1 $261 $263 #
straight-curve $-1 0 -32.556897048138126 -14.433057585395796 -1 0 0 I I #
face $-1 $264 $189 $25 $-1 $265 reversed single #
loop $-1 $-1 $266 $108 #
plane-surface $-1 -69.69918046106703 -48.725815346358857 0 0 1 0 0 0 1 forward_v I I I I #
coedge $-1 $267 $268 $184 $269 forward $109 $-1 #
coedge $-1 $270 $111 $268 $271 forward $69 $-1 #
coedge $-1 $111 $270 $187 $272 forward $69 $-1 #
edge $-1 $190 66.052616728280498 $273 73.345744193853562 $111 $274 forward 7 unknown #
coedge $-1 $113 $112 $180 $269 reversed $44 $-1 #
coedge $-1 $275 $276 $112 $186 forward $277 $-1 #
edge $-1 $278 -73.345744193853562 $191 -66.052616728280498 $185 $279 forward 7 unknown #
coedge $-1 $280 $114 $182 $272 reversed $189 $-1 #
coedge $-1 $114 $280 $275 $281 reversed $189 $-1 #
loop $-1 $-1 $280 $177 #
vertex $-1 $183 $282 #
vertex $-1 $281 $283 #
straight-curve $-1 -66.052616728280498 -32.556897048138126 0 0 0 -1 I I #
face $-1 $-1 $205 $26 $-1 $284 forward single #
loop $-1 $-1 $285 $116 #
plane-surface $-1 -73.345744193853562 0 0 1 0 0 0 0 -1 forward_v I I I I #
coedge $-1 $286 $287 $288 $289 reversed $117 $-1 #
coedge $-1 $290 $119 $121 $203 forward $73 $-1 #
coedge $-1 $119 $290 $286 $291 forward $73 $-1 #
coedge $-1 $288 $122 $119 $200 forward $205 $-1 #
edge $-1 $207 -9.9673288973012522 $292 4.4484774388190704 $199 $293 forward 7 unknown #
coedge $-1 $294 $295 $120 $202 forward $194 $-1 #
edge $-1 $296 -47.467583113510223 $206 -38.142712516553829 $201 $297 forward 7 unknown #
edge $-1 $207 -12.750151494327197 $296 2.0734513383776317e-014 $121 $298 forward 7 unknown #
coedge $-1 $122 $288 $294 $299 forward $205 $-1 #
loop $-1 $-1 $288 $193 #
vertex $-1 $202 $300 #
vertex $-1 $123 $301 #
straight-curve $-1 -90.314554217288077 -12.726754626542343 14.433057585395794 1 0 0 I I #
coedge $-1 $209 $209 $-1 $302 reversed $126 $-1 #
edge $-1 $303 0 $303 6.2831853071796004 $127 $304 forward 7 unknown #
vertex $-1 $130 $305 #
ellipse-curve $-1 -68.997953045514194 -8.6079528162222481 9.7706222869175914 -0.73135370988377701 0 0.68199835119979291 1.0229975267996894 0 1.0970305648256655 1 I I #
coedge $-1 $213 $213 $-1 $306 reversed $133 $-1 #
edge $-1 $307 0 $307 6.2831853071796004 $134 $308 forward 7 unknown #
vertex $-1 $137 $309 #
ellipse-curve $-1 -68.997953045514194 -2.4297501007421083 9.7706222869175914 -0.73135370988377701 0 0.68199835119979291 1.0229975267996894 0 1.0970305648256655 1 I I #
face $-1 $-1 $310 $29 $-1 $311 reversed single #
loop $-1 $-1 $144 $138 #
plane-surface $-1 0 0 14.433057585395796 0 0 1 1 0 0 forward_v I I I I #
coedge $-1 $312 $313 $314 $315 reversed $139 $-1 #
coedge $-1 $316 $141 $143 $227 forward $87 $-1 #
coedge $-1 $141 $316 $312 $317 forward $87 $-1 #
coedge $-1 $314 $144 $141 $224 forward $218 $-1 #
edge $-1 $230 -6.3456002794294442 $318 1.8229465999506154 $223 $319 forward 7 unknown #
coedge $-1 $320 $321 $142 $226 forward $310 $-1 #
edge $-1 $322 -98.110235170588965 $229 -94.878203452876377 $225 $323 forward 7 unknown #
edge $-1 $230 142.1984356201929 $322 146.6914883877071 $143 $324 forward 7 unknown #
coedge $-1 $144 $314 $320 $325 forward $218 $-1 #
vertex $-1 $145 $326 #
vertex $-1 $145 $327 #
straight-curve $-1 38.483151169267941 8.6069271191688586 14.433057585395801 -1 0 0 I I #
coedge $-1 $232 $232 $-1 $328 reversed $148 $-1 #
edge $-1 $329 0 $329 6.2831853071796004 $149 $330 forward 7 unknown #
vertex $-1 $152 $331 #
ellipse-curve $-1 71.785175856086312 2.7722507767545324 12.817041726539495 0.71933980857756763 0 0.69465836192734942 0.69465836192734942 0 -0.71933980857756763 1 I I #
coedge $-1 $236 $236 $-1 $332 reversed $155 $-1 #
edge $-1 $333 0 $333 6.2831853071796004 $156 $334 forward 7 unknown #
vertex $-1 $159 $335 #
ellipse-curve $-1 71.785175856086312 6.2730565822031323 12.817041726539495 0.71933980857756763 0 0.69465836192734942 0.69465836192734942 0 -0.71933980857756763 1 I I #
face $-1 $-1 $252 $24 $-1 $336 reversed single #
loop $-1 $-1 $337 $160 #
plane-surface $-1 0 32.556897048138126 0 0 -1 0 0 0 -1 forward_v I I I I #
coedge $-1 $258 $257 $338 $339 forward $161 $-1 #
coedge $-1 $163 $173 $340 $341 forward $101 $-1 #
coedge $-1 $251 $169 $163 $246 reversed $252 $-1 #
edge $-1 $342 -32.556897048138126 $174 32.556897048138126 $245 $343 forward 7 unknown #
coedge $-1 $165 $164 $257 $344 forward $65 $-1 #
coedge $-1 $337 $338 $164 $249 reversed $241 $-1 #
edge $-1 $254 -73.345744193853562 $345 73.345744193853562 $248 $346 forward 7 unknown #
edge $-1 $259 -73.345744193853562 $253 73.345744193853562 $168 $347 forward 7 unknown #
coedge $-1 $166 $245 $337 $348 reversed $252 $-1 #
loop $-1 $-1 $169 $240 #
vertex $-1 $167 $349 #
vertex $-1 $167 $350 #
straight-curve $-1 73.345744193853562 0 14.433057585395796 0 1 0 I I #
straight-curve $-1 73.345744193853562 -32.556897048138126 0 0 0 -1 I I #
coedge $-1 $243 $171 $247 $344 reversed $161 $-1 #
coedge $-1 $171 $243 $173 $261 reversed $161 $-1 #
vertex $-1 $344 $351 #
straight-curve $-1 -73.345744193853562 -32.556897048138126 0 0 0 -1 I I #
edge $-1 $175 -32.556897048138126 $352 32.556897048138126 $258 $353 forward 7 unknown #
point $-1 73.345744193853562 -32.556897048138126 -14.433057585395796 #
point $-1 -73.345744193853562 -32.556897048138126 -14.433057585395796 #
face $-1 $-1 $277 $25 $-1 $354 reversed single #
plane-surface $-1 -66.052616728280498 -40.641356197248491 0 -1 0 0 0 0 1 forward_v I I I I #
coedge $-1 $355 $356 $357 $358 forward $178 $-1 #
coedge $-1 $357 $180 $276 $359 reversed $109 $-1 #
coedge $-1 $180 $357 $181 $271 reversed $109 $-1 #
edge $-1 $273 -14.433057585395796 $278 14.433057585395796 $180 $360 forward 7 unknown #
coedge $-1 $182 $181 $356 $361 forward $69 $-1 #
edge $-1 $273 32.556897048138126 $362 48.725815346358857 $268 $363 forward 7 unknown #
edge $-1 $364 -8.0844591491103657 $190 8.0844591491103657 $187 $365 forward 7 unknown #
vertex $-1 $271 $366 #
straight-curve $-1 0 -32.556897048138126 14.433057585395796 -1 0 0 I I #
coedge $-1 $367 $185 $188 $281 forward $277 $-1 #
coedge $-1 $185 $367 $267 $359 forward $277 $-1 #
loop $-1 $-1 $185 $264 #
vertex $-1 $269 $368 #
straight-curve $-1 0 -32.556897048138126 -14.433057585395796 1 0 0 I I #
coedge $-1 $188 $187 $369 $370 forward $189 $-1 #
edge $-1 $191 -8.0844591491103657 $371 8.0844591491103657 $188 $372 forward 7 unknown #
point $-1 -66.052616728280498 -32.556897048138126 14.433057585395796 #
point $-1 -66.052616728280498 -32.556897048138126 -14.433057585395796 #
plane-surface $-1 0 0 14.433057585395796 0 0 1 1 0 0 forward_v I I I I #
coedge $-1 $295 $294 $287 $373 forward $194 $-1 #
coedge $-1 $287 $196 $198 $291 reversed $117 $-1 #
coedge $-1 $196 $286 $285 $373 reversed $117 $-1 #
coedge $-1 $204 $199 $196 $289 forward $205 $-1 #
edge $-1 $292 -25.664392320113251 $374 -16.968810023434514 $288 $375 forward 7 unknown #
coedge $-1 $198 $197 $295 $376 reversed $73 $-1 #
edge $-1 $377 -2.0734513383776317e-014 $292 12.750151494327197 $286 $378 forward 7 unknown #
vertex $-1 $200 $379 #
straight-curve $-1 -64.650161897174826 -2.7594257292410909 14.433057585395794 0 1 0 I I #
coedge $-1 $285 $201 $204 $299 reversed $194 $-1 #
coedge $-1 $201 $285 $290 $376 forward $194 $-1 #
vertex $-1 $202 $380 #
straight-curve $-1 -73.345744193853562 -12.726754626542343 52.575770101949622 0 0 1 I I #
straight-curve $-1 -73.345744193853548 -12.726754626542343 5.1081869884394138 -0.68199835119979291 0 -0.73135370988377701 I I #
edge $-1 $374 -1.6890517095779796 $206 12.726754626542343 $294 $381 forward 7 unknown #
point $-1 -73.345744193853562 -12.726754626542343 14.433057585395796 #
point $-1 -64.650161897174826 -12.726754626542343 14.433057585395796 #
edge $-1 $382 1 $382 0 $209 $-1 forward 7 unknown #
vertex $-1 $210 $383 #
ellipse-curve $-1 -66.554434390348916 -8.6079528162222481 7.4920043330776025 -0.73135370988377701 0 0.68199835119979291 1.0229975267996894 0 1.0970305648256655 1 I I #
point $-1 -67.974955518714523 -8.6079528162222481 10.867652851743269 #
edge $-1 $384 1 $384 0 $213 $-1 forward 7 unknown #
vertex $-1 $214 $385 #
ellipse-curve $-1 -66.554434390348916 -2.4297501007421083 7.4920043330776025 -0.73135370988377701 0 0.68199835119979291 1.0229975267996894 0 1.0970305648256655 1 I I #
point $-1 -67.974955518714523 -2.4297501007421083 10.867652851743269 #
loop $-1 $-1 $225 $217 #
plane-surface $-1 73.345744193853562 0 0 -1 0 0 0 0 1 forward_v I I I I #
coedge $-1 $313 $220 $222 $317 reversed $139 $-1 #
coedge $-1 $220 $312 $386 $387 reversed $139 $-1 #
coedge $-1 $228 $223 $220 $315 forward $218 $-1 #
edge $-1 $318 31.741456349051063 $388 34.862593024585621 $314 $389 forward 7 unknown #
coedge $-1 $222 $221 $321 $390 reversed $87 $-1 #
edge $-1 $391 -146.6914883877071 $318 -142.1984356201929 $312 $392 forward 7 unknown #
vertex $-1 $224 $393 #
straight-curve $-1 70.224607518318976 2.2613268397394144 14.433057585395815 0 -1 0 I I #
coedge $-1 $386 $225 $228 $325 reversed $310 $-1 #
coedge $-1 $225 $386 $316 $390 forward $310 $-1 #
vertex $-1 $226 $394 #
straight-curve $-1 73.345744193853562 8.6069271191688586 109.31126103827218 0 0 1 I I #
straight-curve $-1 -28.554724838235842 8.6069271191688586 116.72205304445492 0.69465836192734942 0 -0.71933980857756763 I I #
edge $-1 $388 0.43838023978879903 $229 8.6069271191688586 $320 $395 forward 7 unknown #
point $-1 73.345744193853562 8.6069271191688586 14.433057585395796 #
point $-1 70.224607518319004 8.6069271191688586 14.433057585395787 #
edge $-1 $396 1 $396 0 $232 $-1 forward 7 unknown #
vertex $-1 $233 $397 #
ellipse-curve $-1 69.8706171828523 2.7722507767545324 10.968173950971202 0.71933980857756763 0 0.69465836192734942 0.69465836192734942 0 -0.71933980857756763 1 I I #
point $-1 72.47983421801365 2.7722507767545324 12.097701917961922 #
edge $-1 $398 1 $398 0 $236 $-1 forward 7 unknown #
vertex $-1 $237 $399 #
ellipse-curve $-1 69.8706171828523 6.2730565822031323 10.968173950971202 0.71933980857756763 0 0.69465836192734942 0.69465836192734942 0 -0.71933980857756763 1 I I #
point $-1 72.47983421801365 6.2730565822031323 12.097701917961922 #
plane-surface $-1 73.345744193853562 0 0 -1 0 0 0 0 1 forward_v I I I I #
coedge $-1 $340 $248 $251 $348 forward $241 $-1 #
coedge $-1 $248 $340 $243 $339 reversed $241 $-1 #
edge $-1 $345 -14.433057585395796 $352 14.433057585395796 $338 $400 forward 7 unknown #
coedge $-1 $338 $337 $244 $341 reversed $241 $-1 #
edge $-1 $352 -73.345744193853562 $342 73.345744193853562 $340 $401 forward 7 unknown #
vertex $-1 $246 $402 #
straight-curve $-1 73.345744193853562 0 -14.433057585395796 0 -1 0 I I #
edge $-1 $345 -32.556897048138126 $259 32.556897048138126 $257 $403 forward 7 unknown #
vertex $-1 $249 $404 #
straight-curve $-1 0 32.556897048138126 14.433057585395796 -1 0 0 I I #
straight-curve $-1 0 -32.556897048138126 14.433057585395796 1 0 0 I I #
edge $-1 $254 -14.433057585395796 $342 14.433057585395796 $251 $405 forward 7 unknown #
point $-1 73.345744193853562 -32.556897048138126 14.433057585395796 #
point $-1 73.345744193853562 32.556897048138126 14.433057585395796 #
point $-1 -73.345744193853562 -32.556897048138126 14.433057585395796 #
vertex $-1 $341 $406 #
straight-curve $-1 -73.345744193853562 0 -14.433057585395796 0 1 0 I I #
plane-surface $-1 0 0 -14.433057585395796 0 0 1 1 0 0 forward_v I I I I #
coedge $-1 $369 $266 $367 $407 reversed $178 $-1 #
coedge $-1 $266 $369 $270 $361 reversed $178 $-1 #
coedge $-1 $268 $267 $266 $358 reversed $109 $-1 #
edge $-1 $362 -14.433057585395796 $408 14.433057585395796 $357 $409 forward 7 unknown #
edge $-1 $408 -48.725815346358857 $278 -32.556897048138126 $267 $410 forward 7 unknown #
straight-curve $-1 -73.345744193853562 -32.556897048138126 0 0 0 -1 I I #
edge $-1 $362 -3.6465637327865323 $364 3.6465637327865323 $356 $411 forward 7 unknown #
vertex $-1 $271 $412 #
straight-curve $-1 -73.345744193853562 0 14.433057585395796 0 -1 0 I I #
vertex $-1 $272 $413 #
straight-curve $-1 -66.052616728280498 -40.641356197248491 14.433057585395796 0 1 0 I I #
point $-1 -73.345744193853562 -32.556897048138126 14.433057585395796 #
coedge $-1 $276 $275 $355 $407 forward $277 $-1 #
point $-1 -73.345744193853562 -32.556897048138126 -14.433057585395796 #
coedge $-1 $356 $355 $280 $370 reversed $178 $-1 #
edge $-1 $364 -14.433057585395796 $371 14.433057585395796 $280 $414 forward 7 unknown #
vertex $-1 $370 $415 #
straight-curve $-1 -66.052616728280498 -40.641356197248491 -14.433057585395796 0 -1 0 I I #
edge $-1 $374 38.142712516553829 $377 47.467583113510223 $285 $416 forward 7 unknown #
vertex $-1 $299 $417 #
straight-curve $-1 -90.314554217288077 1.6890517095779796 14.433057585395794 -1 0 0 I I #
edge $-1 $377 -4.4484774388190704 $296 9.9673288973012522 $295 $418 forward 7 unknown #
vertex $-1 $376 $419 #
straight-curve $-1 -73.345744193853548 1.6890517095779796 5.1081869884394138 0.68199835119979291 0 0.73135370988377701 I I #
point $-1 -64.650161897174826 1.6890517095779796 14.433057585395796 #
point $-1 -73.345744193853562 -12.726754626542343 5.1081869884393987 #
straight-curve $-1 -73.345744193853562 0 14.433057585395796 0 -1 0 I I #
vertex $-1 $302 $420 #
point $-1 -65.531436863549217 -8.6079528162222481 8.589034897903268 #
vertex $-1 $306 $421 #
point $-1 -65.531436863549217 -2.4297501007421083 8.589034897903268 #
coedge $-1 $321 $320 $313 $387 forward $310 $-1 #
edge $-1 $388 94.878203452876377 $391 98.110235170588965 $386 $422 forward 7 unknown #
vertex $-1 $325 $423 #
straight-curve $-1 38.483151169267941 0.43838023978879903 14.433057585395801 1 0 0 I I #
edge $-1 $391 -1.8229465999506154 $322 6.3456002794294442 $321 $424 forward 7 unknown #
vertex $-1 $390 $425 #
straight-curve $-1 -28.554724838235842 0.43838023978879903 116.72205304445492 -0.69465836192734942 0 0.71933980857756763 I I #
point $-1 70.224607518319004 0.43838023978879903 14.433057585395787 #
point $-1 73.345744193853562 8.6069271191688586 11.201025867683214 #
straight-curve $-1 73.345744193853562 0 14.433057585395796 0 1 0 I I #
vertex $-1 $328 $426 #
point $-1 70.565275544779652 2.7722507767545324 10.248834142393635 #
vertex $-1 $332 $427 #
point $-1 70.565275544779652 6.2730565822031323 10.248834142393635 #
straight-curve $-1 -73.345744193853562 32.556897048138126 0 0 0 -1 I I #
straight-curve $-1 0 32.556897048138126 -14.433057585395796 1 0 0 I I #
point $-1 73.345744193853562 32.556897048138126 -14.433057585395796 #
straight-curve $-1 -73.345744193853562 0 14.433057585395796 0 -1 0 I I #
point $-1 -73.345744193853562 32.556897048138126 14.433057585395796 #
straight-curve $-1 73.345744193853562 32.556897048138126 0 0 0 -1 I I #
point $-1 -73.345744193853562 32.556897048138126 -14.433057585395796 #
edge $-1 $371 -3.6465637327865323 $408 3.6465637327865323 $355 $428 forward 7 unknown #
vertex $-1 $359 $429 #
straight-curve $-1 -73.345744193853562 -48.725815346358857 0 0 0 -1 I I #
straight-curve $-1 -73.345744193853562 0 -14.433057585395796 0 1 0 I I #
straight-curve $-1 -69.69918046106703 -48.725815346358857 14.433057585395796 1 0 0 I I #
point $-1 -73.345744193853562 -48.725815346358857 14.433057585395796 #
point $-1 -66.052616728280498 -48.725815346358857 14.433057585395796 #
straight-curve $-1 -66.052616728280498 -48.725815346358857 0 0 0 -1 I I #
point $-1 -66.052616728280498 -48.725815346358857 -14.433057585395796 #
straight-curve $-1 -73.345744193853562 1.6890517095779796 52.575770101949622 0 0 -1 I I #
point $-1 -73.345744193853562 1.6890517095779796 14.433057585395796 #
straight-curve $-1 -73.345744193853562 -2.7594257292410909 5.1081869884394129 0 -1 0 I I #
point $-1 -73.345744193853562 1.6890517095779796 5.1081869884393987 #
point $-1 -65.457403825523244 -8.6079528162222481 6.469006806277914 #
point $-1 -65.457403825523244 -2.4297501007421083 6.469006806277914 #
straight-curve $-1 73.345744193853562 0.43838023978879903 109.31126103827218 0 0 -1 I I #
point $-1 73.345744193853562 0.43838023978879903 14.433057585395796 #
straight-curve $-1 73.345744193853562 2.2613268397394144 11.201025867683228 0 1 0 I I #
point $-1 73.345744193853562 0.43838023978879903 11.201025867683214 #
point $-1 69.151277374274741 2.7722507767545324 10.273515589043853 #
point $-1 69.151277374274741 6.2730565822031323 10.273515589043853 #
straight-curve $-1 -69.69918046106703 -48.725815346358857 -14.433057585395796 -1 0 0 I I #
point $-1 -73.345744193853562 -48.725815346358857 -14.433057585395796 #
End-of-ACIS-data 