500 0 10 0           
7 Unknown 11 ACIS 5.0 NT 24 Fri Mar 26 19:19:11 1999 
-1 9.9999999999999995e-007 1e-010 
body $-1 $10 $-1 $11 #
body $-1 $12 $-1 $13 #
body $-1 $14 $-1 $15 #
body $-1 $16 $-1 $17 #
body $-1 $18 $-1 $19 #
body $-1 $20 $-1 $21 #
body $-1 $22 $-1 $23 #
body $-1 $24 $-1 $25 #
body $-1 $26 $-1 $27 #
body $-1 $28 $-1 $29 #
lump $-1 $-1 $30 $0 #
transform $-1 1 0 0 0 1 0 0 0 1 54.449903866695152 34.424396755957417 13.040235062521617 1 rotate no_reflect no_shear #
lump $-1 $-1 $31 $1 #
transform $-1 1 0 0 0 1 0 0 0 1 54.449903866695152 34.424396755957417 13.040235062521617 1 rotate no_reflect no_shear #
lump $-1 $-1 $32 $2 #
transform $-1 1 0 0 0 1 0 0 0 1 54.449903866695152 34.424396755957417 13.040235062521617 1 rotate no_reflect no_shear #
lump $-1 $-1 $33 $3 #
transform $-1 1 0 0 0 1 0 0 0 1 54.449903866695152 34.424396755957417 13.040235062521617 1 rotate no_reflect no_shear #
lump $-1 $-1 $34 $4 #
transform $-1 1 0 0 0 1 0 0 0 1 54.449903866695152 34.424396755957417 13.040235062521617 1 rotate no_reflect no_shear #
lump $-1 $-1 $35 $5 #
transform $-1 1 0 0 0 1 0 0 0 1 54.449903866695152 34.424396755957417 13.040235062521617 1 rotate no_reflect no_shear #
lump $-1 $-1 $36 $6 #
transform $-1 1 0 0 0 1 0 0 0 1 54.449903866695152 34.424396755957417 13.040235062521617 1 rotate no_reflect no_shear #
lump $-1 $-1 $37 $7 #
transform $-1 1 0 0 0 1 0 0 0 1 54.449903866695152 34.424396755957417 13.040235062521617 1 rotate no_reflect no_shear #
lump $-1 $-1 $38 $8 #
transform $-1 1 0 0 0 1 0 0 0 1 54.449903866695152 34.424396755957417 13.040235062521617 1 rotate no_reflect no_shear #
lump $-1 $-1 $39 $9 #
transform $-1 1 0 0 0 1 0 0 0 1 54.449903866695152 34.424396755957417 13.040235062521617 1 rotate no_reflect no_shear #
shell $-1 $-1 $-1 $40 $-1 $10 #
shell $-1 $-1 $-1 $41 $-1 $12 #
shell $-1 $-1 $-1 $42 $-1 $14 #
shell $-1 $-1 $-1 $43 $-1 $16 #
shell $-1 $-1 $-1 $44 $-1 $18 #
shell $-1 $-1 $-1 $45 $-1 $20 #
shell $-1 $-1 $-1 $46 $-1 $22 #
shell $-1 $-1 $-1 $47 $-1 $24 #
shell $-1 $-1 $-1 $48 $-1 $26 #
shell $-1 $-1 $-1 $49 $-1 $28 #
face $-1 $50 $51 $30 $-1 $52 forward single #
face $-1 $53 $54 $31 $-1 $55 forward single #
face $-1 $56 $57 $32 $-1 $58 reversed single #
face $-1 $59 $60 $33 $-1 $61 forward single #
face $-1 $62 $63 $34 $-1 $64 reversed single #
face $-1 $65 $66 $35 $-1 $67 forward single #
face $-1 $68 $69 $36 $-1 $70 forward single #
face $-1 $71 $72 $37 $-1 $73 reversed single #
face $-1 $74 $75 $38 $-1 $76 forward single #
face $-1 $77 $78 $39 $-1 $79 forward single #
face $-1 $80 $81 $30 $-1 $82 reversed single #
loop $-1 $-1 $83 $40 #
plane-surface $-1 0 0 13.040235062521617 0 0 1 1 0 0 forward_v I I I I #
face $-1 $84 $85 $31 $-1 $86 forward single #
loop $-1 $-1 $87 $41 #
plane-surface $-1 0 -34.424396755957417 0 0 1 0 0 0 1 forward_v I I I I #
face $-1 $88 $89 $32 $-1 $90 reversed single #
loop $-1 $-1 $91 $42 #
plane-surface $-1 57.137708661485846 19.592767862919203 156.15966126651841 0 -1 0 -0.71933980857756763 0 -0.69465836192734942 forward_v I I I I #
face $-1 $92 $93 $33 $-1 $94 forward single #
loop $-1 $95 $96 $43 #
cone-surface $-1 48.83795085224498 16.592318848277586 7.2544489497940798 -0.71933980857756763 0 -0.69465836192734942 0.69465836192734942 0 -0.71933980857756763 1 I I 0 1 1 forward I I I I #
face $-1 $97 $98 $34 $-1 $99 reversed single #
loop $-1 $-1 $100 $44 #
plane-surface $-1 -132.78587071576607 0.16657171123703307 78.637220956068546 0 1 0 -0.71933980857756763 0 0.69465836192734942 forward_v I I I I #
face $-1 $101 $102 $35 $-1 $103 forward single #
loop $-1 $104 $105 $45 #
cone-surface $-1 -48.980260819805871 2.4266287837426646 7.4193103288255919 0.71933980857756763 0 -0.69465836192734942 0.69465836192734942 0 0.71933980857756763 1 I I 0 1 1 forward I I I I #
face $-1 $106 $107 $36 $-1 $108 forward single #
loop $-1 $109 $110 $46 #
cone-surface $-1 -48.980260819805871 5.8167143925011118 7.4193103288255919 0.71933980857756763 0 -0.69465836192734942 0.69465836192734942 0 0.71933980857756763 1 I I 0 1 1 forward I I I I #
face $-1 $111 $112 $37 $-1 $113 reversed single #
loop $-1 $-1 $114 $47 #
plane-surface $-1 -132.78587071576607 26.5141970021877 78.637220956068546 0 1 0 -0.71933980857756763 0 0.69465836192734942 forward_v I I I I #
face $-1 $115 $116 $38 $-1 $117 forward single #
loop $-1 $118 $119 $48 #
cone-surface $-1 -48.980260819805871 28.774254074693332 7.4193103288255919 0.71933980857756763 0 -0.69465836192734942 0.69465836192734942 0 0.71933980857756763 1 I I 0 1 1 forward I I I I #
face $-1 $120 $121 $39 $-1 $122 forward single #
loop $-1 $123 $124 $49 #
cone-surface $-1 -48.980260819805871 32.164339683451772 7.4193103288255919 0.71933980857756763 0 -0.69465836192734942 0.69465836192734942 0 0.71933980857756763 1 I I 0 1 1 forward I I I I #
face $-1 $125 $126 $30 $-1 $127 reversed single #
loop $-1 $-1 $128 $50 #
plane-surface $-1 0 0 -13.040235062521617 0 0 1 1 0 0 forward_v I I I I #
coedge $-1 $129 $130 $131 $132 forward $51 $-1 #
face $-1 $133 $134 $31 $-1 $135 reversed single #
loop $-1 $-1 $136 $53 #
plane-surface $-1 0 0 13.040235062521617 0 0 1 1 0 0 forward_v I I I I #
coedge $-1 $137 $138 $139 $140 forward $54 $-1 #
face $-1 $141 $142 $32 $-1 $143 reversed single #
loop $-1 $-1 $144 $56 #
plane-surface $-1 -21.198258187585054 16.592318848277586 80.511499212238206 0.71933980857756763 0 0.69465836192734942 0.69465836192734942 0 -0.71933980857756763 forward_v I I I I #
coedge $-1 $145 $146 $147 $148 reversed $57 $-1 #
face $-1 $-1 $149 $33 $-1 $150 forward single #
loop $-1 $151 $152 $59 #
cone-surface $-1 48.112288528183228 16.592318848277586 6.5536850057800251 -0.71933980857756763 0 -0.69465836192734942 0.34732918096367471 0 -0.35966990428878381 1 I I -0.70710678118654746 0.70710678118654746 0.5 forward I I I I #
loop $-1 $-1 $153 $43 #
coedge $-1 $96 $96 $154 $155 reversed $60 $-1 #
face $-1 $156 $157 $34 $-1 $158 reversed single #
loop $-1 $-1 $159 $62 #
plane-surface $-1 -54.449903866695166 4.1216715881218917 2.98905890178834 -0.71933980857756763 0 0.69465836192734942 0.69465836192734942 0 0.71933980857756763 forward_v I I I I #
coedge $-1 $160 $161 $162 $163 reversed $63 $-1 #
face $-1 $-1 $164 $35 $-1 $165 forward single #
loop $-1 $166 $167 $65 #
cone-surface $-1 -48.004101749451372 2.4266287837426646 6.4766444945325361 0.71933980857756763 0 -0.69465836192734942 0.34732918096367471 0 0.35966990428878381 1 I I -0.70710678118654746 0.70710678118654746 0.5 forward I I I I #
loop $-1 $-1 $168 $45 #
coedge $-1 $105 $105 $169 $170 reversed $66 $-1 #
face $-1 $-1 $171 $36 $-1 $172 forward single #
loop $-1 $173 $174 $68 #
cone-surface $-1 -48.004101749451372 5.8167143925011118 6.4766444945325361 0.71933980857756763 0 -0.69465836192734942 0.34732918096367471 0 0.35966990428878381 1 I I -0.70710678118654746 0.70710678118654746 0.5 forward I I I I #
loop $-1 $-1 $175 $46 #
coedge $-1 $110 $110 $176 $177 reversed $69 $-1 #
face $-1 $178 $179 $37 $-1 $180 forward single #
loop $-1 $-1 $181 $71 #
plane-surface $-1 -54.449903866695166 30.469296879072559 2.98905890178834 -0.71933980857756763 0 0.69465836192734942 0.69465836192734942 0 0.71933980857756763 forward_v I I I I #
coedge $-1 $182 $183 $184 $185 reversed $72 $-1 #
face $-1 $-1 $186 $38 $-1 $187 forward single #
loop $-1 $188 $189 $74 #
cone-surface $-1 -48.004101749451372 28.774254074693332 6.4766444945325361 0.71933980857756763 0 -0.69465836192734942 0.34732918096367471 0 0.35966990428878381 1 I I -0.70710678118654746 0.70710678118654746 0.5 forward I I I I #
loop $-1 $-1 $190 $48 #
coedge $-1 $119 $119 $191 $192 reversed $75 $-1 #
face $-1 $-1 $193 $39 $-1 $194 forward single #
loop $-1 $195 $196 $77 #
cone-surface $-1 -48.004101749451372 32.164339683451772 6.4766444945325361 0.71933980857756763 0 -0.69465836192734942 0.34732918096367471 0 0.35966990428878381 1 I I -0.70710678118654746 0.70710678118654746 0.5 forward I I I I #
loop $-1 $-1 $197 $49 #
coedge $-1 $124 $124 $198 $199 reversed $78 $-1 #
face $-1 $200 $201 $30 $-1 $202 reversed single #
loop $-1 $-1 $203 $80 #
plane-surface $-1 0 -34.424396755957417 0 0 1 0 0 0 1 forward_v I I I I #
coedge $-1 $204 $205 $206 $207 forward $81 $-1 #
coedge $-1 $208 $83 $209 $210 forward $51 $-1 #
coedge $-1 $83 $208 $211 $212 forward $51 $-1 #
coedge $-1 $213 $214 $83 $132 reversed $215 $-1 #
edge $-1 $216 -34.424396755957417 $217 34.424396755957417 $131 $218 forward 7 unknown #
face $-1 $219 $220 $31 $-1 $221 reversed single #
loop $-1 $-1 $222 $84 #
plane-surface $-1 -54.449903866695152 0 0 1 0 0 0 0 -1 forward_v I I I I #
coedge $-1 $223 $224 $225 $226 forward $85 $-1 #
coedge $-1 $225 $87 $222 $227 reversed $54 $-1 #
coedge $-1 $87 $225 $228 $229 reversed $54 $-1 #
coedge $-1 $230 $231 $87 $140 reversed $220 $-1 #
edge $-1 $232 -54.449903866695152 $233 54.449903866695152 $139 $234 forward 7 unknown #
face $-1 $235 $236 $32 $-1 $237 reversed single #
loop $-1 $-1 $238 $88 #
plane-surface $-1 57.137708661485846 13.591869833635968 156.15966126651841 0 1 0 0.71933980857756763 0 0.69465836192734942 forward_v I I I I #
coedge $-1 $239 $240 $241 $242 reversed $89 $-1 #
coedge $-1 $146 $91 $243 $244 reversed $57 $-1 #
coedge $-1 $91 $145 $239 $245 reversed $57 $-1 #
coedge $-1 $241 $246 $91 $148 forward $247 $-1 #
edge $-1 $248 -25.881049535952229 $249 -15.389128346597829 $147 $250 forward 7 unknown #
loop $-1 $-1 $154 $92 #
plane-surface $-1 -21.198258187585054 16.592318848277586 80.511499212238206 0.71933980857756763 0 0.69465836192734942 0.69465836192734942 0 -0.71933980857756763 forward_v I I I I #
loop $-1 $-1 $251 $59 #
coedge $-1 $152 $152 $153 $252 reversed $93 $-1 #
coedge $-1 $153 $153 $152 $252 forward $95 $-1 #
coedge $-1 $154 $154 $96 $155 forward $149 $-1 #
edge $-1 $253 0 $253 6.2831853071796004 $154 $254 forward 7 unknown #
face $-1 $255 $256 $34 $-1 $257 forward single #
loop $-1 $-1 $258 $97 #
plane-surface $-1 -132.78587071576607 8.0767714650067504 78.637220956068546 0 -1 0 0.71933980857756763 0 -0.69465836192734942 forward_v I I I I #
coedge $-1 $259 $260 $261 $262 reversed $98 $-1 #
coedge $-1 $161 $100 $263 $264 reversed $63 $-1 #
coedge $-1 $100 $160 $259 $265 reversed $63 $-1 #
coedge $-1 $261 $266 $100 $163 forward $256 $-1 #
edge $-1 $267 11.943031491187881 $268 21.649339252834991 $162 $269 forward 7 unknown #
loop $-1 $-1 $169 $101 #
plane-surface $-1 -54.449903866695166 4.1216715881218917 2.98905890178834 -0.71933980857756763 0 0.69465836192734942 0.69465836192734942 0 0.71933980857756763 forward_v I I I I #
loop $-1 $-1 $270 $65 #
coedge $-1 $167 $167 $168 $271 reversed $102 $-1 #
coedge $-1 $168 $168 $167 $271 forward $104 $-1 #
coedge $-1 $169 $169 $105 $170 forward $164 $-1 #
edge $-1 $272 0 $272 6.2831853071796004 $169 $273 forward 7 unknown #
loop $-1 $-1 $176 $106 #
plane-surface $-1 -54.449903866695166 4.1216715881218917 2.98905890178834 -0.71933980857756763 0 0.69465836192734942 0.69465836192734942 0 0.71933980857756763 forward_v I I I I #
loop $-1 $-1 $274 $68 #
coedge $-1 $174 $174 $175 $275 reversed $107 $-1 #
coedge $-1 $175 $175 $174 $275 forward $109 $-1 #
coedge $-1 $176 $176 $110 $177 forward $171 $-1 #
edge $-1 $276 0 $276 6.2831853071796004 $176 $277 forward 7 unknown #
face $-1 $278 $279 $37 $-1 $280 reversed single #
loop $-1 $-1 $184 $111 #
plane-surface $-1 0 0 13.040235062521617 0 0 1 1 0 0 forward_v I I I I #
coedge $-1 $281 $282 $283 $284 reversed $112 $-1 #
coedge $-1 $183 $114 $285 $286 reversed $72 $-1 #
coedge $-1 $114 $182 $281 $287 reversed $72 $-1 #
coedge $-1 $283 $288 $114 $185 forward $179 $-1 #
edge $-1 $289 11.943031491187881 $290 21.649339252834991 $184 $291 forward 7 unknown #
loop $-1 $-1 $191 $115 #
plane-surface $-1 -54.449903866695166 30.469296879072559 2.98905890178834 -0.71933980857756763 0 0.69465836192734942 0.69465836192734942 0 0.71933980857756763 forward_v I I I I #
loop $-1 $-1 $292 $74 #
coedge $-1 $189 $189 $190 $293 reversed $116 $-1 #
coedge $-1 $190 $190 $189 $293 forward $118 $-1 #
coedge $-1 $191 $191 $119 $192 forward $186 $-1 #
edge $-1 $294 0 $294 6.2831853071796004 $191 $295 forward 7 unknown #
loop $-1 $-1 $198 $120 #
plane-surface $-1 -54.449903866695166 30.469296879072559 2.98905890178834 -0.71933980857756763 0 0.69465836192734942 0.69465836192734942 0 0.71933980857756763 forward_v I I I I #
loop $-1 $-1 $296 $77 #
coedge $-1 $196 $196 $197 $297 reversed $121 $-1 #
coedge $-1 $197 $197 $196 $297 forward $123 $-1 #
coedge $-1 $198 $198 $124 $199 forward $193 $-1 #
edge $-1 $298 0 $298 6.2831853071796004 $198 $299 forward 7 unknown #
face $-1 $300 $301 $30 $-1 $302 reversed single #
loop $-1 $-1 $303 $125 #
plane-surface $-1 -54.449903866695152 0 0 1 0 0 0 0 -1 forward_v I I I I #
coedge $-1 $304 $211 $305 $306 forward $126 $-1 #
coedge $-1 $307 $128 $304 $308 forward $81 $-1 #
coedge $-1 $128 $307 $309 $310 forward $81 $-1 #
coedge $-1 $214 $213 $128 $207 reversed $215 $-1 #
edge $-1 $311 -34.424396755957417 $312 34.424396755957417 $206 $313 forward 7 unknown #
coedge $-1 $130 $129 $314 $315 forward $51 $-1 #
coedge $-1 $316 $317 $129 $210 reversed $301 $-1 #
edge $-1 $217 -54.449903866695152 $318 54.449903866695152 $209 $319 forward 7 unknown #
coedge $-1 $203 $320 $130 $212 reversed $126 $-1 #
edge $-1 $321 -54.449903866695152 $216 54.449903866695152 $211 $322 forward 7 unknown #
coedge $-1 $206 $131 $320 $323 forward $215 $-1 #
coedge $-1 $131 $206 $316 $324 reversed $215 $-1 #
loop $-1 $-1 $213 $300 #
vertex $-1 $132 $325 #
vertex $-1 $132 $326 #
straight-curve $-1 54.449903866695152 0 13.040235062521617 0 1 0 I I #
face $-1 $327 $328 $31 $-1 $329 reversed single #
loop $-1 $-1 $230 $133 #
plane-surface $-1 0 -42.501168220964168 8.2960521290727129 0 0 1 1 0 0 forward_v I I I I #
coedge $-1 $330 $331 $137 $227 forward $134 $-1 #
coedge $-1 $332 $136 $331 $333 forward $85 $-1 #
coedge $-1 $136 $332 $334 $335 forward $85 $-1 #
coedge $-1 $138 $137 $136 $226 reversed $54 $-1 #
edge $-1 $336 -54.449903866695152 $337 54.449903866695152 $136 $338 forward 7 unknown #
edge $-1 $337 -13.040235062521617 $233 -8.2960521290727129 $222 $339 forward 7 unknown #
coedge $-1 $334 $340 $138 $229 forward $341 $-1 #
edge $-1 $232 8.2960521290727129 $336 13.040235062521617 $228 $342 forward 7 unknown #
coedge $-1 $343 $139 $340 $344 forward $220 $-1 #
coedge $-1 $139 $343 $330 $345 forward $220 $-1 #
vertex $-1 $229 $346 #
vertex $-1 $227 $347 #
straight-curve $-1 0 -34.424396755957417 8.2960521290727129 -1 0 0 I I #
face $-1 $-1 $247 $32 $-1 $348 forward single #
loop $-1 $-1 $349 $141 #
plane-surface $-1 54.449903866695152 0 0 -1 0 0 0 0 1 forward_v I I I I #
coedge $-1 $350 $351 $352 $353 reversed $142 $-1 #
coedge $-1 $354 $144 $146 $245 forward $89 $-1 #
coedge $-1 $144 $354 $350 $355 forward $89 $-1 #
coedge $-1 $352 $147 $144 $242 forward $247 $-1 #
edge $-1 $249 -11.29660843878041 $356 -5.2957104094971754 $241 $357 forward 7 unknown #
coedge $-1 $358 $359 $145 $244 forward $236 $-1 #
edge $-1 $360 -75.9042982700919 $248 -65.039595570737589 $243 $361 forward 7 unknown #
edge $-1 $249 93.796093786516821 $360 108.8998077333903 $146 $362 forward 7 unknown #
coedge $-1 $147 $352 $358 $363 forward $247 $-1 #
loop $-1 $-1 $352 $235 #
vertex $-1 $244 $364 #
vertex $-1 $148 $365 #
straight-curve $-1 28.568854330742923 19.592767862919203 13.040235062521617 -1 0 0 I I #
coedge $-1 $251 $251 $-1 $366 reversed $151 $-1 #
edge $-1 $367 0 $367 6.2831853071796004 $152 $368 forward 7 unknown #
vertex $-1 $155 $369 #
ellipse-curve $-1 49.203943272017952 16.592318848277586 7.6078837128444645 0.71933980857756763 0 0.69465836192734942 0.69465836192734942 0 -0.71933980857756763 1 I I #
face $-1 $-1 $370 $34 $-1 $371 reversed single #
loop $-1 $-1 $162 $156 #
plane-surface $-1 0 0 13.040235062521617 0 0 1 1 0 0 forward_v I I I I #
coedge $-1 $372 $373 $374 $375 reversed $157 $-1 #
coedge $-1 $376 $159 $161 $265 forward $98 $-1 #
coedge $-1 $159 $376 $372 $377 forward $98 $-1 #
coedge $-1 $374 $162 $159 $262 forward $256 $-1 #
edge $-1 $268 -1.8942640828239128 $378 6.0159356709458045 $261 $379 forward 7 unknown #
coedge $-1 $380 $381 $160 $264 forward $370 $-1 #
edge $-1 $382 -36.329551576245919 $267 -26.278375415512656 $263 $383 forward 7 unknown #
edge $-1 $268 -13.972778985509795 $382 -2.0413573615811715e-014 $161 $384 forward 7 unknown #
coedge $-1 $162 $374 $380 $385 forward $256 $-1 #
vertex $-1 $264 $386 #
vertex $-1 $163 $387 #
straight-curve $-1 -66.392935357883033 0.16657171123703307 13.040235062521617 1 0 0 I I #
coedge $-1 $270 $270 $-1 $388 reversed $166 $-1 #
edge $-1 $389 0 $389 6.2831853071796004 $167 $390 forward 7 unknown #
vertex $-1 $170 $391 #
ellipse-curve $-1 -49.596749985871597 2.4266287837426646 8.0146469821549839 -0.71933980857756763 0 0.69465836192734942 0.69465836192734942 0 0.71933980857756763 1 I I #
coedge $-1 $274 $274 $-1 $392 reversed $173 $-1 #
edge $-1 $393 0 $393 6.2831853071796004 $174 $394 forward 7 unknown #
vertex $-1 $177 $395 #
ellipse-curve $-1 -49.596749985871597 5.8167143925011118 8.0146469821549839 -0.71933980857756763 0 0.69465836192734942 0.69465836192734942 0 0.71933980857756763 1 I I #
face $-1 $-1 $396 $37 $-1 $397 reversed single #
loop $-1 $-1 $398 $178 #
plane-surface $-1 0 34.424396755957417 0 0 -1 0 0 0 -1 forward_v I I I I #
coedge $-1 $399 $181 $183 $287 forward $112 $-1 #
coedge $-1 $181 $399 $398 $400 reversed $112 $-1 #
coedge $-1 $401 $184 $181 $284 forward $179 $-1 #
edge $-1 $290 11.279548562651421 $402 19.189748316421138 $283 $403 forward 7 unknown #
coedge $-1 $404 $405 $182 $286 forward $396 $-1 #
edge $-1 $406 -36.329551576245919 $289 -26.278375415512656 $285 $407 forward 7 unknown #
edge $-1 $290 -13.972778985509795 $406 -2.0413573615811715e-014 $183 $408 forward 7 unknown #
coedge $-1 $184 $401 $404 $409 forward $179 $-1 #
vertex $-1 $286 $410 #
vertex $-1 $185 $411 #
straight-curve $-1 -66.392935357883033 26.5141970021877 13.040235062521617 1 0 0 I I #
coedge $-1 $292 $292 $-1 $412 reversed $188 $-1 #
edge $-1 $413 0 $413 6.2831853071796004 $189 $414 forward 7 unknown #
vertex $-1 $192 $415 #
ellipse-curve $-1 -49.596749985871597 28.774254074693332 8.0146469821549839 -0.71933980857756763 0 0.69465836192734942 0.69465836192734942 0 0.71933980857756763 1 I I #
coedge $-1 $296 $296 $-1 $416 reversed $195 $-1 #
edge $-1 $417 0 $417 6.2831853071796004 $196 $418 forward 7 unknown #
vertex $-1 $199 $419 #
ellipse-curve $-1 -49.596749985871597 32.164339683451772 8.0146469821549839 -0.71933980857756763 0 0.69465836192734942 0.69465836192734942 0 0.71933980857756763 1 I I #
face $-1 $-1 $215 $30 $-1 $420 reversed single #
loop $-1 $-1 $316 $200 #
plane-surface $-1 0 34.424396755957417 0 0 -1 0 0 0 -1 forward_v I I I I #
coedge $-1 $421 $314 $317 $422 forward $201 $-1 #
coedge $-1 $320 $203 $204 $308 reversed $126 $-1 #
coedge $-1 $314 $421 $203 $306 reversed $201 $-1 #
edge $-1 $321 -13.040235062521617 $423 13.040235062521617 $305 $424 forward 7 unknown #
coedge $-1 $205 $204 $421 $425 forward $81 $-1 #
edge $-1 $312 -54.449903866695152 $423 54.449903866695152 $304 $426 forward 7 unknown #
coedge $-1 $317 $316 $205 $310 reversed $301 $-1 #
edge $-1 $427 -54.449903866695152 $311 54.449903866695152 $309 $428 forward 7 unknown #
vertex $-1 $207 $429 #
vertex $-1 $323 $430 #
straight-curve $-1 54.449903866695152 0 -13.040235062521617 0 -1 0 I I #
coedge $-1 $303 $305 $208 $315 reversed $201 $-1 #
edge $-1 $318 -34.424396755957417 $321 34.424396755957417 $314 $431 forward 7 unknown #
coedge $-1 $309 $209 $214 $324 forward $301 $-1 #
coedge $-1 $209 $309 $303 $422 reversed $301 $-1 #
vertex $-1 $210 $432 #
straight-curve $-1 0 34.424396755957417 13.040235062521617 -1 0 0 I I #
coedge $-1 $211 $304 $213 $323 reversed $126 $-1 #
vertex $-1 $315 $433 #
straight-curve $-1 0 -34.424396755957417 13.040235062521617 1 0 0 I I #
edge $-1 $216 -13.040235062521617 $312 13.040235062521617 $213 $434 forward 7 unknown #
edge $-1 $217 -13.040235062521617 $311 13.040235062521617 $214 $435 forward 7 unknown #
point $-1 54.449903866695152 -34.424396755957417 13.040235062521617 #
point $-1 54.449903866695152 34.424396755957417 13.040235062521617 #
face $-1 $-1 $341 $31 $-1 $436 reversed single #
loop $-1 $-1 $437 $219 #
plane-surface $-1 0 -50.577939685970918 10.668143595797165 0 1 0 0 0 1 forward_v I I I I #
coedge $-1 $438 $222 $231 $345 reversed $134 $-1 #
coedge $-1 $222 $438 $223 $333 reversed $134 $-1 #
coedge $-1 $224 $223 $439 $440 forward $85 $-1 #
edge $-1 $337 34.424396755957417 $441 50.577939685970918 $331 $442 forward 7 unknown #
coedge $-1 $443 $228 $224 $335 reversed $341 $-1 #
edge $-1 $444 -50.577939685970918 $336 -34.424396755957417 $334 $445 forward 7 unknown #
vertex $-1 $229 $446 #
vertex $-1 $333 $447 #
straight-curve $-1 0 -34.424396755957417 13.040235062521617 -1 0 0 I I #
straight-curve $-1 -54.449903866695152 -34.424396755957417 0 0 0 -1 I I #
coedge $-1 $228 $443 $230 $344 reversed $341 $-1 #
loop $-1 $-1 $228 $327 #
straight-curve $-1 54.449903866695152 -34.424396755957417 0 0 0 1 I I #
coedge $-1 $231 $230 $448 $449 forward $220 $-1 #
edge $-1 $232 -8.0767714650067504 $450 8.0767714650067504 $340 $451 forward 7 unknown #
edge $-1 $452 -8.0767714650067504 $233 8.0767714650067504 $330 $453 forward 7 unknown #
point $-1 54.449903866695152 -34.424396755957417 8.2960521290727129 #
point $-1 -54.449903866695152 -34.424396755957417 8.2960521290727129 #
plane-surface $-1 0 0 13.040235062521617 0 0 1 1 0 0 forward_v I I I I #
coedge $-1 $359 $358 $351 $454 forward $236 $-1 #
coedge $-1 $351 $238 $240 $355 reversed $142 $-1 #
coedge $-1 $238 $350 $349 $454 reversed $142 $-1 #
coedge $-1 $246 $241 $238 $353 forward $247 $-1 #
edge $-1 $356 15.389128346597829 $455 25.881049535952229 $352 $456 forward 7 unknown #
coedge $-1 $240 $239 $359 $457 reversed $89 $-1 #
edge $-1 $458 -108.8998077333903 $356 -93.796093786516821 $350 $459 forward 7 unknown #
vertex $-1 $242 $460 #
straight-curve $-1 43.957982677340752 8.2961594241387928 13.040235062521617 0 -1 0 I I #
coedge $-1 $349 $243 $246 $363 reversed $236 $-1 #
coedge $-1 $243 $349 $354 $457 forward $236 $-1 #
vertex $-1 $244 $461 #
straight-curve $-1 54.449903866695152 19.592767862919203 78.079830633259206 0 0 1 I I #
straight-curve $-1 -21.198258187585054 19.592767862919203 80.511499212238206 0.69465836192734942 0 -0.71933980857756763 I I #
edge $-1 $455 13.591869833635968 $248 19.592767862919203 $358 $462 forward 7 unknown #
point $-1 54.449903866695152 19.592767862919203 13.040235062521617 #
point $-1 43.957982677340752 19.592767862919203 13.040235062521617 #
edge $-1 $463 1 $463 0 $251 $-1 forward 7 unknown #
vertex $-1 $252 $464 #
ellipse-curve $-1 48.471958432472015 16.592318848277586 6.9010141867436996 0.71933980857756763 0 0.69465836192734942 0.69465836192734942 0 -0.71933980857756763 1 I I #
point $-1 49.898601633945304 16.592318848277586 6.8885439042668919 #
loop $-1 $-1 $263 $255 #
plane-surface $-1 -54.449903866695152 0 0 1 0 0 0 0 -1 forward_v I I I I #
coedge $-1 $373 $258 $260 $377 reversed $157 $-1 #
coedge $-1 $258 $372 $465 $466 reversed $157 $-1 #
coedge $-1 $266 $261 $258 $375 forward $256 $-1 #
edge $-1 $378 -21.649339252834991 $467 -11.943031491187881 $374 $468 forward 7 unknown #
coedge $-1 $260 $259 $381 $469 reversed $98 $-1 #
edge $-1 $470 2.0413573615811715e-014 $378 13.972778985509795 $372 $471 forward 7 unknown #
vertex $-1 $262 $472 #
straight-curve $-1 -44.743596105048034 2.0608357940609459 13.040235062521617 0 1 0 I I #
coedge $-1 $465 $263 $266 $385 reversed $370 $-1 #
coedge $-1 $263 $465 $376 $469 forward $370 $-1 #
vertex $-1 $264 $473 #
straight-curve $-1 -54.449903866695152 0.16657171123703307 39.318610478034273 0 0 1 I I #
straight-curve $-1 -54.449903866695166 0.16657171123703307 2.98905890178834 -0.69465836192734942 0 -0.71933980857756763 I I #
edge $-1 $467 -8.0767714650067504 $267 -0.16657171123703307 $380 $474 forward 7 unknown #
point $-1 -54.449903866695152 0.16657171123703307 13.040235062521617 #
point $-1 -44.743596105048042 0.16657171123703307 13.040235062521617 #
edge $-1 $475 1 $475 0 $270 $-1 forward 7 unknown #
vertex $-1 $271 $476 #
ellipse-curve $-1 -48.363771653740159 2.4266287837426646 6.8239736754962106 -0.71933980857756763 0 0.69465836192734942 0.69465836192734942 0 0.71933980857756763 1 I I #
point $-1 -48.902091623944237 2.4266287837426646 8.7339867907325406 #
edge $-1 $477 1 $477 0 $274 $-1 forward 7 unknown #
vertex $-1 $275 $478 #
ellipse-curve $-1 -48.363771653740159 5.8167143925011118 6.8239736754962106 -0.71933980857756763 0 0.69465836192734942 0.69465836192734942 0 0.71933980857756763 1 I I #
point $-1 -48.902091623944237 5.8167143925011118 8.7339867907325406 #
loop $-1 $-1 $285 $278 #
plane-surface $-1 -54.449903866695152 0 0 1 0 0 0 0 -1 forward_v I I I I #
coedge $-1 $479 $480 $282 $400 forward $279 $-1 #
coedge $-1 $282 $281 $405 $481 reversed $112 $-1 #
edge $-1 $402 3.8641869989405135 $482 17.836965984450291 $398 $483 forward 7 unknown #
coedge $-1 $288 $283 $480 $484 forward $179 $-1 #
vertex $-1 $484 $485 #
straight-curve $-1 -44.743596105048034 15.234648439536279 13.040235062521617 0 1 0 I I #
coedge $-1 $486 $285 $288 $409 reversed $396 $-1 #
coedge $-1 $285 $486 $399 $481 forward $396 $-1 #
vertex $-1 $286 $487 #
straight-curve $-1 -54.449903866695152 26.5141970021877 39.318610478034273 0 0 1 I I #
straight-curve $-1 -54.449903866695166 26.5141970021877 2.98905890178834 -0.69465836192734942 0 -0.71933980857756763 I I #
edge $-1 $488 -34.424396755957417 $289 -26.5141970021877 $404 $489 forward 7 unknown #
point $-1 -54.449903866695152 26.5141970021877 13.040235062521617 #
point $-1 -44.743596105048042 26.5141970021877 13.040235062521617 #
edge $-1 $490 1 $490 0 $292 $-1 forward 7 unknown #
vertex $-1 $293 $491 #
ellipse-curve $-1 -48.363771653740159 28.774254074693332 6.8239736754962106 -0.71933980857756763 0 0.69465836192734942 0.69465836192734942 0 0.71933980857756763 1 I I #
point $-1 -48.902091623944237 28.774254074693332 8.7339867907325406 #
edge $-1 $492 1 $492 0 $296 $-1 forward 7 unknown #
vertex $-1 $297 $493 #
ellipse-curve $-1 -48.363771653740159 32.164339683451772 6.8239736754962106 -0.71933980857756763 0 0.69465836192734942 0.69465836192734942 0 0.71933980857756763 1 I I #
point $-1 -48.902091623944237 32.164339683451772 8.7339867907325406 #
plane-surface $-1 54.449903866695152 0 0 -1 0 0 0 0 1 forward_v I I I I #
coedge $-1 $305 $303 $307 $425 reversed $201 $-1 #
edge $-1 $318 -13.040235062521617 $427 13.040235062521617 $317 $494 forward 7 unknown #
vertex $-1 $425 $495 #
straight-curve $-1 -54.449903866695152 -34.424396755957417 0 0 0 -1 I I #
edge $-1 $423 -34.424396755957417 $427 34.424396755957417 $421 $496 forward 7 unknown #
straight-curve $-1 0 -34.424396755957417 -13.040235062521617 -1 0 0 I I #
vertex $-1 $310 $497 #
straight-curve $-1 0 34.424396755957417 -13.040235062521617 1 0 0 I I #
point $-1 54.449903866695152 34.424396755957417 -13.040235062521617 #
point $-1 54.449903866695152 -34.424396755957417 -13.040235062521617 #
straight-curve $-1 -54.449903866695152 0 13.040235062521617 0 -1 0 I I #
point $-1 -54.449903866695152 34.424396755957417 13.040235062521617 #
point $-1 -54.449903866695152 -34.424396755957417 13.040235062521617 #
straight-curve $-1 54.449903866695152 -34.424396755957417 0 0 0 -1 I I #
straight-curve $-1 54.449903866695152 34.424396755957417 0 0 0 -1 I I #
plane-surface $-1 54.449903866695152 0 0 -1 0 0 0 0 1 forward_v I I I I #
coedge $-1 $448 $439 $438 $498 forward $328 $-1 #
coedge $-1 $331 $330 $437 $498 reversed $134 $-1 #
coedge $-1 $437 $499 $332 $440 reversed $328 $-1 #
edge $-1 $441 -54.449903866695152 $444 54.449903866695152 $439 $500 forward 7 unknown #
vertex $-1 $333 $501 #
straight-curve $-1 -54.449903866695152 0 13.040235062521617 0 -1 0 I I #
coedge $-1 $340 $334 $499 $502 forward $341 $-1 #
vertex $-1 $335 $503 #
straight-curve $-1 54.449903866695152 0 13.040235062521617 0 1 0 I I #
point $-1 54.449903866695152 -34.424396755957417 13.040235062521617 #
point $-1 -54.449903866695152 -34.424396755957417 13.040235062521617 #
coedge $-1 $499 $437 $343 $449 reversed $328 $-1 #
edge $-1 $450 -54.449903866695152 $452 54.449903866695152 $448 $504 forward 7 unknown #
vertex $-1 $502 $505 #
straight-curve $-1 54.449903866695152 -42.501168220964168 8.2960521290727129 0 -1 0 I I #
vertex $-1 $345 $506 #
straight-curve $-1 -54.449903866695152 -42.501168220964168 8.2960521290727129 0 1 0 I I #
edge $-1 $455 65.039595570737589 $458 75.9042982700919 $349 $507 forward 7 unknown #
vertex $-1 $363 $508 #
straight-curve $-1 28.568854330742923 13.591869833635968 13.040235062521617 1 0 0 I I #
edge $-1 $458 5.2957104094971754 $360 11.29660843878041 $359 $509 forward 7 unknown #
vertex $-1 $457 $510 #
straight-curve $-1 -21.198258187585054 13.591869833635968 80.511499212238206 -0.69465836192734942 0 0.71933980857756763 I I #
point $-1 43.957982677340752 13.591869833635968 13.040235062521617 #
point $-1 54.449903866695152 19.592767862919203 2.1755323631673065 #
straight-curve $-1 54.449903866695152 0 13.040235062521617 0 1 0 I I #
vertex $-1 $366 $511 #
point $-1 49.16661679439936 16.592318848277586 6.1816743781661323 #
coedge $-1 $381 $380 $373 $466 forward $370 $-1 #
edge $-1 $467 26.278375415512656 $470 36.329551576245919 $465 $512 forward 7 unknown #
vertex $-1 $385 $513 #
straight-curve $-1 -66.392935357883033 8.0767714650067504 13.040235062521617 -1 0 0 I I #
edge $-1 $470 -6.0159356709458045 $382 1.8942640828239128 $381 $514 forward 7 unknown #
vertex $-1 $469 $515 #
straight-curve $-1 -54.449903866695166 8.0767714650067504 2.98905890178834 0.69465836192734942 0 0.71933980857756763 I I #
point $-1 -44.743596105048042 8.0767714650067504 13.040235062521617 #
point $-1 -54.449903866695152 0.16657171123703307 2.9890589017883546 #
straight-curve $-1 -54.449903866695152 0 13.040235062521617 0 -1 0 I I #
vertex $-1 $388 $516 #
point $-1 -47.669113291812806 2.4266287837426646 7.5433134840737779 #
vertex $-1 $392 $517 #
point $-1 -47.669113291812806 5.8167143925011118 7.5433134840737779 #
coedge $-1 $480 $398 $486 $518 reversed $279 $-1 #
coedge $-1 $398 $479 $401 $484 reversed $279 $-1 #
edge $-1 $482 -19.189748316421138 $406 -11.279548562651421 $405 $519 forward 7 unknown #
vertex $-1 $400 $520 #
straight-curve $-1 -42.05930629418306 34.424396755957417 15.819898598647407 -0.69465836192734942 0 -0.71933980857756763 I I #
edge $-1 $402 44.743596105048042 $488 54.449903866695152 $480 $521 forward 7 unknown #
point $-1 -44.743596105048042 34.424396755957417 13.040235062521617 #
coedge $-1 $405 $404 $479 $518 forward $396 $-1 #
point $-1 -54.449903866695152 26.5141970021877 2.9890589017883546 #
vertex $-1 $484 $522 #
straight-curve $-1 -54.449903866695152 0 13.040235062521617 0 -1 0 I I #
vertex $-1 $412 $523 #
point $-1 -47.669113291812806 28.774254074693332 7.5433134840737779 #
vertex $-1 $416 $524 #
point $-1 -47.669113291812806 32.164339683451772 7.5433134840737779 #
straight-curve $-1 -54.449903866695152 34.424396755957417 0 0 0 -1 I I #
point $-1 -54.449903866695152 -34.424396755957417 -13.040235062521617 #
straight-curve $-1 -54.449903866695152 0 -13.040235062521617 0 1 0 I I #
point $-1 -54.449903866695152 34.424396755957417 -13.040235062521617 #
edge $-1 $441 -2.3720914667244521 $452 2.3720914667244521 $438 $525 forward 7 unknown #
coedge $-1 $439 $448 $443 $502 reversed $328 $-1 #
straight-curve $-1 0 -50.577939685970918 13.040235062521617 1 0 0 I I #
point $-1 -54.449903866695152 -50.577939685970918 13.040235062521617 #
edge $-1 $444 -2.3720914667244521 $450 2.3720914667244521 $443 $526 forward 7 unknown #
point $-1 54.449903866695152 -50.577939685970918 13.040235062521617 #
straight-curve $-1 0 -50.577939685970918 8.2960521290727129 -1 0 0 I I #
point $-1 54.449903866695152 -50.577939685970918 8.2960521290727129 #
point $-1 -54.449903866695152 -50.577939685970918 8.2960521290727129 #
straight-curve $-1 54.449903866695152 13.591869833635968 78.079830633259206 0 0 -1 I I #
point $-1 54.449903866695152 13.591869833635968 13.040235062521617 #
straight-curve $-1 54.449903866695152 8.2961594241387928 2.1755323631673065 0 1 0 I I #
point $-1 54.449903866695152 13.591869833635968 2.1755323631673065 #
point $-1 47.752618623894442 16.592318848277586 6.2063558248163506 #
straight-curve $-1 -54.449903866695152 8.0767714650067504 39.318610478034273 0 0 -1 I I #
point $-1 -54.449903866695152 8.0767714650067504 13.040235062521617 #
straight-curve $-1 -54.449903866695152 2.0608357940609459 2.989058901788356 0 -1 0 I I #
point $-1 -54.449903866695152 8.0767714650067504 2.9890589017883546 #
point $-1 -47.644431845162586 2.4266287837426646 6.1293153135688616 #
point $-1 -47.644431845162586 5.8167143925011118 6.1293153135688616 #
edge $-1 $488 -13.040235062521617 $482 -2.9890589017883546 $479 $527 forward 7 unknown #
straight-curve $-1 -54.449903866695152 15.234648439536279 2.989058901788356 0 -1 0 I I #
point $-1 -54.449903866695152 34.424396755957417 2.9890589017883546 #
straight-curve $-1 0 34.424396755957417 13.040235062521617 -1 0 0 I I #
point $-1 -54.449903866695152 34.424396755957417 13.040235062521617 #
point $-1 -47.644431845162586 28.774254074693332 6.1293153135688616 #
point $-1 -47.644431845162586 32.164339683451772 6.1293153135688616 #
straight-curve $-1 -54.449903866695152 -50.577939685970918 10.668143595797165 0 0 -1 I I #
straight-curve $-1 54.449903866695152 -50.577939685970918 10.668143595797165 0 0 -1 I I #
straight-curve $-1 -54.449903866695152 34.424396755957417 0 0 0 -1 I I #
End-of-ACIS-data 