500 0 4 0           
7 Unknown 11 ACIS 5.0 NT 24 Thu Mar 25 20:30:15 1999 
-1 9.9999999999999995e-007 1e-010 
body $-1 $4 $-1 $5 #
body $-1 $6 $-1 $7 #
body $-1 $8 $-1 $9 #
body $-1 $10 $-1 $11 #
lump $-1 $-1 $12 $0 #
transform $-1 1 0 0 0 1 0 0 0 1 59.646595660267948 25.51003728089221 11.554294421008255 1 rotate no_reflect no_shear #
lump $-1 $-1 $13 $1 #
transform $-1 1 0 0 0 1 0 0 0 1 59.646595660267948 25.51003728089221 11.554294421008255 1 rotate no_reflect no_shear #
lump $-1 $-1 $14 $2 #
transform $-1 1 0 0 0 1 0 0 0 1 59.646595660267948 25.51003728089221 11.554294421008255 1 rotate no_reflect no_shear #
lump $-1 $-1 $15 $3 #
transform $-1 1 0 0 0 1 0 0 0 1 59.646595660267948 25.51003728089221 11.554294421008255 1 rotate no_reflect no_shear #
shell $-1 $-1 $-1 $16 $-1 $4 #
shell $-1 $-1 $-1 $17 $-1 $6 #
shell $-1 $-1 $-1 $18 $-1 $8 #
shell $-1 $-1 $-1 $19 $-1 $10 #
face $-1 $20 $21 $12 $-1 $22 forward single #
face $-1 $23 $24 $13 $-1 $25 reversed single #
face $-1 $26 $27 $14 $-1 $28 forward single #
face $-1 $29 $30 $15 $-1 $31 forward single #
face $-1 $32 $33 $12 $-1 $34 reversed single #
loop $-1 $-1 $35 $16 #
plane-surface $-1 0 0 11.554294421008255 0 0 1 1 0 0 forward_v I I I I #
face $-1 $36 $37 $13 $-1 $38 reversed single #
loop $-1 $-1 $39 $17 #
plane-surface $-1 -34.402296227898475 45.458321413385349 136.72637282391861 1 0 0 0 -0.52991927123019833 -0.84804809178421925 forward_v I I I I #
face $-1 $40 $41 $14 $-1 $42 forward single #
loop $-1 $43 $44 $18 #
cone-surface $-1 -25.813793921342068 22.440037857589157 9.0069190446052456 0 -0.52991927123019833 -0.84804809178421925 1 0 0 1 I I 0 1 1 forward I I I I #
face $-1 $45 $46 $15 $-1 $47 forward single #
loop $-1 $48 $49 $19 #
cone-surface $-1 -12.93104046150745 22.440037857589157 9.0069190446052456 0 -0.52991927123019833 -0.84804809178421925 1 0 0 1 I I 0 1 1 forward I I I I #
face $-1 $50 $51 $12 $-1 $52 reversed single #
loop $-1 $-1 $53 $20 #
plane-surface $-1 0 0 -11.554294421008255 0 0 1 1 0 0 forward_v I I I I #
coedge $-1 $54 $55 $56 $57 forward $21 $-1 #
face $-1 $58 $59 $13 $-1 $60 reversed single #
loop $-1 $-1 $61 $23 #
plane-surface $-1 -19.372417191424759 -17.757439593917653 35.560009561688361 0 0.52991927123019833 0.84804809178421925 1 0 0 forward_v I I I I #
coedge $-1 $62 $63 $64 $65 reversed $24 $-1 #
face $-1 $-1 $66 $14 $-1 $67 forward single #
loop $-1 $68 $69 $26 #
cone-surface $-1 -25.813793921342068 21.530230171758983 7.5509224169156539 0 -0.52991927123019833 -0.84804809178421925 0.5 0 0 1 I I -0.70710678118654746 0.70710678118654746 0.5 forward I I I I #
loop $-1 $-1 $70 $18 #
coedge $-1 $44 $44 $71 $72 reversed $27 $-1 #
face $-1 $-1 $73 $15 $-1 $74 forward single #
loop $-1 $75 $76 $29 #
cone-surface $-1 -12.93104046150745 21.530230171758983 7.5509224169156539 0 -0.52991927123019833 -0.84804809178421925 0.5 0 0 1 I I -0.70710678118654746 0.70710678118654746 0.5 forward I I I I #
loop $-1 $-1 $77 $19 #
coedge $-1 $49 $49 $78 $79 reversed $30 $-1 #
face $-1 $80 $81 $12 $-1 $82 reversed single #
loop $-1 $-1 $83 $32 #
plane-surface $-1 0 -25.51003728089221 0 0 1 0 0 0 1 forward_v I I I I #
coedge $-1 $84 $85 $86 $87 forward $33 $-1 #
coedge $-1 $88 $35 $89 $90 forward $21 $-1 #
coedge $-1 $35 $88 $91 $92 forward $21 $-1 #
coedge $-1 $93 $94 $35 $57 reversed $95 $-1 #
edge $-1 $96 -25.51003728089221 $97 25.51003728089221 $56 $98 forward 7 unknown #
face $-1 $99 $100 $13 $-1 $101 reversed single #
loop $-1 $-1 $102 $36 #
plane-surface $-1 -4.3425381549510398 45.458321413385349 136.72637282391861 -1 0 0 0 0.52991927123019833 0.84804809178421925 forward_v I I I I #
coedge $-1 $103 $104 $105 $106 reversed $37 $-1 #
coedge $-1 $63 $39 $107 $108 reversed $24 $-1 #
coedge $-1 $39 $62 $103 $109 reversed $24 $-1 #
coedge $-1 $105 $110 $39 $65 forward $111 $-1 #
edge $-1 $112 -2.7808765741995352 $113 2.0694261719764313 $64 $114 forward 7 unknown #
loop $-1 $-1 $71 $40 #
plane-surface $-1 -19.372417191424759 -17.757439593917653 35.560009561688361 0 0.52991927123019833 0.84804809178421925 1 0 0 forward_v I I I I #
loop $-1 $-1 $115 $26 #
coedge $-1 $69 $69 $70 $116 reversed $41 $-1 #
coedge $-1 $70 $70 $69 $116 forward $43 $-1 #
coedge $-1 $71 $71 $44 $72 forward $66 $-1 #
edge $-1 $117 -2.6350822747160967e-015 $117 6.2831853071795978 $71 $118 forward 7 unknown #
loop $-1 $-1 $78 $45 #
plane-surface $-1 -19.372417191424759 -17.757439593917653 35.560009561688361 0 0.52991927123019833 0.84804809178421925 1 0 0 forward_v I I I I #
loop $-1 $-1 $119 $29 #
coedge $-1 $76 $76 $77 $120 reversed $46 $-1 #
coedge $-1 $77 $77 $76 $120 forward $48 $-1 #
coedge $-1 $78 $78 $49 $79 forward $73 $-1 #
edge $-1 $121 -2.6350822747160967e-015 $121 6.2831853071795978 $78 $122 forward 7 unknown #
face $-1 $123 $124 $12 $-1 $125 reversed single #
loop $-1 $-1 $126 $50 #
plane-surface $-1 -59.646595660267948 0 0 1 0 0 0 0 -1 forward_v I I I I #
coedge $-1 $127 $91 $128 $129 forward $51 $-1 #
coedge $-1 $130 $53 $127 $131 forward $33 $-1 #
coedge $-1 $53 $130 $132 $133 forward $33 $-1 #
coedge $-1 $94 $93 $53 $87 reversed $95 $-1 #
edge $-1 $134 -25.51003728089221 $135 25.51003728089221 $86 $136 forward 7 unknown #
coedge $-1 $55 $54 $137 $138 forward $21 $-1 #
coedge $-1 $139 $140 $54 $90 reversed $124 $-1 #
edge $-1 $97 -59.646595660267948 $141 59.646595660267948 $89 $142 forward 7 unknown #
coedge $-1 $83 $143 $55 $92 reversed $51 $-1 #
edge $-1 $144 -59.646595660267948 $96 59.646595660267948 $91 $145 forward 7 unknown #
coedge $-1 $86 $56 $143 $146 forward $95 $-1 #
coedge $-1 $56 $86 $139 $147 reversed $95 $-1 #
loop $-1 $-1 $93 $123 #
vertex $-1 $57 $148 #
vertex $-1 $57 $149 #
straight-curve $-1 59.646595660267948 0 11.554294421008255 0 1 0 I I #
face $-1 $-1 $111 $13 $-1 $150 forward single #
loop $-1 $-1 $151 $58 #
plane-surface $-1 0 25.51003728089221 0 0 -1 0 0 0 -1 forward_v I I I I #
coedge $-1 $152 $153 $154 $155 reversed $59 $-1 #
coedge $-1 $156 $61 $63 $109 forward $37 $-1 #
coedge $-1 $61 $156 $152 $157 forward $37 $-1 #
coedge $-1 $154 $64 $61 $106 forward $111 $-1 #
edge $-1 $113 -24.716087632186095 $158 5.3436704407613398 $105 $159 forward 7 unknown #
coedge $-1 $160 $161 $62 $108 forward $100 $-1 #
edge $-1 $162 -59.839697580162124 $112 -56.808891990951054 $107 $163 forward 7 unknown #
edge $-1 $113 45.300702284238994 $162 51.020074561784419 $63 $164 forward 7 unknown #
coedge $-1 $64 $154 $160 $165 forward $111 $-1 #
loop $-1 $-1 $154 $99 #
vertex $-1 $108 $166 #
vertex $-1 $65 $167 #
straight-curve $-1 -34.402296227898475 22.729160706692674 11.554294421008251 0 -1 0 I I #
coedge $-1 $115 $115 $-1 $168 reversed $68 $-1 #
edge $-1 $169 0 $169 6.2831853071796004 $69 $170 forward 7 unknown #
vertex $-1 $72 $171 #
ellipse-curve $-1 -25.813793921342068 23.084885907804225 10.038891626402716 0 0.52991927123019833 0.84804809178421925 1 0 0 1 I I #
coedge $-1 $119 $119 $-1 $172 reversed $75 $-1 #
edge $-1 $173 0 $173 6.2831853071796004 $76 $174 forward 7 unknown #
vertex $-1 $79 $175 #
ellipse-curve $-1 -12.93104046150745 23.084885907804225 10.038891626402716 0 0.52991927123019833 0.84804809178421925 1 0 0 1 I I #
face $-1 $-1 $95 $12 $-1 $176 reversed single #
loop $-1 $-1 $139 $80 #
plane-surface $-1 0 25.51003728089221 0 0 -1 0 0 0 -1 forward_v I I I I #
coedge $-1 $177 $137 $140 $178 forward $81 $-1 #
coedge $-1 $143 $83 $84 $131 reversed $51 $-1 #
coedge $-1 $137 $177 $83 $129 reversed $81 $-1 #
edge $-1 $144 -11.554294421008255 $179 11.554294421008255 $128 $180 forward 7 unknown #
coedge $-1 $85 $84 $177 $181 forward $33 $-1 #
edge $-1 $135 -59.646595660267948 $179 59.646595660267948 $127 $182 forward 7 unknown #
coedge $-1 $140 $139 $85 $133 reversed $124 $-1 #
edge $-1 $183 -59.646595660267948 $134 59.646595660267948 $132 $184 forward 7 unknown #
vertex $-1 $87 $185 #
vertex $-1 $146 $186 #
straight-curve $-1 59.646595660267948 0 -11.554294421008255 0 -1 0 I I #
coedge $-1 $126 $128 $88 $138 reversed $81 $-1 #
edge $-1 $141 -25.51003728089221 $144 25.51003728089221 $137 $187 forward 7 unknown #
coedge $-1 $132 $89 $94 $147 forward $124 $-1 #
coedge $-1 $89 $132 $126 $178 reversed $124 $-1 #
vertex $-1 $90 $188 #
straight-curve $-1 0 25.51003728089221 11.554294421008255 -1 0 0 I I #
coedge $-1 $91 $127 $93 $146 reversed $51 $-1 #
vertex $-1 $138 $189 #
straight-curve $-1 0 -25.51003728089221 11.554294421008255 1 0 0 I I #
edge $-1 $96 -11.554294421008255 $135 11.554294421008255 $93 $190 forward 7 unknown #
edge $-1 $97 -11.554294421008255 $134 11.554294421008255 $94 $191 forward 7 unknown #
point $-1 59.646595660267948 -25.51003728089221 11.554294421008255 #
point $-1 59.646595660267948 25.51003728089221 11.554294421008255 #
plane-surface $-1 0 0 11.554294421008255 0 0 1 1 0 0 forward_v I I I I #
coedge $-1 $161 $160 $153 $192 forward $100 $-1 #
coedge $-1 $153 $102 $104 $157 reversed $59 $-1 #
coedge $-1 $102 $152 $151 $192 reversed $59 $-1 #
coedge $-1 $110 $105 $102 $155 forward $111 $-1 #
edge $-1 $158 -2.0694261719764313 $193 2.7808765741995352 $154 $194 forward 7 unknown #
coedge $-1 $104 $103 $161 $195 reversed $37 $-1 #
edge $-1 $196 -51.020074561784419 $158 -45.300702284238994 $152 $197 forward 7 unknown #
vertex $-1 $106 $198 #
straight-curve $-1 -9.6862085957123796 20.659734534716243 11.554294421008255 1 0 0 I I #
coedge $-1 $151 $107 $110 $165 reversed $100 $-1 #
coedge $-1 $107 $151 $156 $195 forward $100 $-1 #
vertex $-1 $108 $199 #
straight-curve $-1 -34.402296227898475 25.51003728089221 68.363186411959305 0 0 1 I I #
straight-curve $-1 -34.402296227898475 -17.757439593917653 35.560009561688361 0 0.84804809178421925 -0.52991927123019833 I I #
edge $-1 $193 4.3425381549510398 $112 34.402296227898475 $160 $200 forward 7 unknown #
point $-1 -34.402296227898475 25.51003728089221 11.554294421008255 #
point $-1 -34.402296227898475 20.659734534716243 11.554294421008255 #
edge $-1 $201 1 $201 0 $115 $-1 forward 7 unknown #
vertex $-1 $116 $202 #
ellipse-curve $-1 -25.813793921342068 21.795189807374083 7.9749464628077638 0 0.52991927123019833 0.84804809178421925 1 0 0 1 I I #
point $-1 -24.813793921342068 23.084885907804228 10.038891626402727 #
edge $-1 $203 1 $203 0 $119 $-1 forward 7 unknown #
vertex $-1 $120 $204 #
ellipse-curve $-1 -12.93104046150745 21.795189807374083 7.9749464628077638 0 0.52991927123019833 0.84804809178421925 1 0 0 1 I I #
point $-1 -11.93104046150745 23.084885907804228 10.038891626402727 #
plane-surface $-1 59.646595660267948 0 0 -1 0 0 0 0 1 forward_v I I I I #
coedge $-1 $128 $126 $130 $181 reversed $81 $-1 #
edge $-1 $141 -11.554294421008255 $183 11.554294421008255 $140 $205 forward 7 unknown #
vertex $-1 $181 $206 #
straight-curve $-1 -59.646595660267948 -25.51003728089221 0 0 0 -1 I I #
edge $-1 $179 -25.51003728089221 $183 25.51003728089221 $177 $207 forward 7 unknown #
straight-curve $-1 0 -25.51003728089221 -11.554294421008255 -1 0 0 I I #
vertex $-1 $133 $208 #
straight-curve $-1 0 25.51003728089221 -11.554294421008255 1 0 0 I I #
point $-1 59.646595660267948 25.51003728089221 -11.554294421008255 #
point $-1 59.646595660267948 -25.51003728089221 -11.554294421008255 #
straight-curve $-1 -59.646595660267948 0 11.554294421008255 0 -1 0 I I #
point $-1 -59.646595660267948 25.51003728089221 11.554294421008255 #
point $-1 -59.646595660267948 -25.51003728089221 11.554294421008255 #
straight-curve $-1 59.646595660267948 -25.51003728089221 0 0 0 -1 I I #
straight-curve $-1 59.646595660267948 25.51003728089221 0 0 0 -1 I I #
edge $-1 $193 56.808891990951054 $196 59.839697580162124 $151 $209 forward 7 unknown #
vertex $-1 $165 $210 #
straight-curve $-1 -4.3425381549510398 22.729160706692674 11.554294421008251 0 1 0 I I #
edge $-1 $196 -5.3436704407613398 $162 24.716087632186095 $161 $211 forward 7 unknown #
vertex $-1 $195 $212 #
straight-curve $-1 -4.3425381549510398 -17.757439593917653 35.560009561688361 0 -0.84804809178421925 0.52991927123019833 I I #
point $-1 -4.3425381549510398 20.659734534716243 11.554294421008255 #
point $-1 -34.402296227898475 25.510037280892206 8.5234888317971844 #
straight-curve $-1 0 25.51003728089221 11.554294421008255 -1 0 0 I I #
vertex $-1 $168 $213 #
point $-1 -24.813793921342068 21.795189807374083 7.9749464628077638 #
vertex $-1 $172 $214 #
point $-1 -11.93104046150745 21.795189807374083 7.9749464628077638 #
straight-curve $-1 -59.646595660267948 25.51003728089221 0 0 0 -1 I I #
point $-1 -59.646595660267948 -25.51003728089221 -11.554294421008255 #
straight-curve $-1 -59.646595660267948 0 -11.554294421008255 0 1 0 I I #
point $-1 -59.646595660267948 25.51003728089221 -11.554294421008255 #
straight-curve $-1 -4.3425381549510398 25.51003728089221 68.363186411959305 0 0 -1 I I #
point $-1 -4.3425381549510398 25.51003728089221 11.554294421008255 #
straight-curve $-1 -9.6862085957123796 25.51003728089221 8.5234888317971826 -1 0 0 I I #
point $-1 -4.3425381549510398 25.510037280892206 8.5234888317971844 #
point $-1 -25.813793921342068 21.265270536143884 7.1268983710235441 #
point $-1 -12.93104046150745 21.265270536143884 7.1268983710235441 #
End-of-ACIS-data 