500 0 11 0           
7 Unknown 11 ACIS 5.0 NT 24 Thu Mar 25 17:10:55 1999 
-1 9.9999999999999995e-007 1e-010 
body $-1 $11 $-1 $12 #
body $-1 $13 $-1 $14 #
body $-1 $15 $-1 $16 #
body $-1 $17 $-1 $18 #
body $-1 $19 $-1 $20 #
body $-1 $21 $-1 $22 #
body $-1 $23 $-1 $24 #
body $-1 $25 $-1 $26 #
body $-1 $27 $-1 $28 #
body $-1 $29 $-1 $30 #
body $-1 $31 $-1 $32 #
lump $-1 $-1 $33 $0 #
transform $-1 1 0 0 0 1 0 0 0 1 46.798303170873133 27.293321128748516 12.254548756687335 1 rotate no_reflect no_shear #
lump $-1 $-1 $34 $1 #
transform $-1 1 0 0 0 1 0 0 0 1 46.798303170873133 27.293321128748516 12.254548756687335 1 rotate no_reflect no_shear #
lump $-1 $-1 $35 $2 #
transform $-1 1 0 0 0 1 0 0 0 1 46.798303170873133 27.293321128748516 12.254548756687335 1 rotate no_reflect no_shear #
lump $-1 $-1 $36 $3 #
transform $-1 1 0 0 0 1 0 0 0 1 46.798303170873133 27.293321128748516 12.254548756687335 1 rotate no_reflect no_shear #
lump $-1 $-1 $37 $4 #
transform $-1 1 0 0 0 1 0 0 0 1 46.798303170873133 27.293321128748516 12.254548756687335 1 rotate no_reflect no_shear #
lump $-1 $-1 $38 $5 #
transform $-1 1 0 0 0 1 0 0 0 1 46.798303170873133 27.293321128748516 12.254548756687335 1 rotate no_reflect no_shear #
lump $-1 $-1 $39 $6 #
transform $-1 1 0 0 0 1 0 0 0 1 46.798303170873133 27.293321128748516 12.254548756687335 1 rotate no_reflect no_shear #
lump $-1 $-1 $40 $7 #
transform $-1 1 0 0 0 1 0 0 0 1 46.798303170873133 27.293321128748516 12.254548756687335 1 rotate no_reflect no_shear #
lump $-1 $-1 $41 $8 #
transform $-1 1 0 0 0 1 0 0 0 1 46.798303170873133 27.293321128748516 12.254548756687335 1 rotate no_reflect no_shear #
lump $-1 $-1 $42 $9 #
transform $-1 1 0 0 0 1 0 0 0 1 46.798303170873133 27.293321128748516 12.254548756687335 1 rotate no_reflect no_shear #
lump $-1 $-1 $43 $10 #
transform $-1 1 0 0 0 1 0 0 0 1 46.798303170873133 27.293321128748516 12.254548756687335 1 rotate no_reflect no_shear #
shell $-1 $-1 $-1 $44 $-1 $11 #
shell $-1 $-1 $-1 $45 $-1 $13 #
shell $-1 $-1 $-1 $46 $-1 $15 #
shell $-1 $-1 $-1 $47 $-1 $17 #
shell $-1 $-1 $-1 $48 $-1 $19 #
shell $-1 $-1 $-1 $49 $-1 $21 #
shell $-1 $-1 $-1 $50 $-1 $23 #
shell $-1 $-1 $-1 $51 $-1 $25 #
shell $-1 $-1 $-1 $52 $-1 $27 #
shell $-1 $-1 $-1 $53 $-1 $29 #
shell $-1 $-1 $-1 $54 $-1 $31 #
face $-1 $55 $56 $33 $-1 $57 forward single #
face $-1 $58 $59 $34 $-1 $60 forward single #
face $-1 $61 $62 $35 $-1 $63 forward single #
face $-1 $64 $65 $36 $-1 $66 reversed single #
face $-1 $67 $68 $37 $-1 $69 forward single #
face $-1 $70 $71 $38 $-1 $72 forward single #
face $-1 $73 $74 $39 $-1 $75 forward single #
face $-1 $76 $77 $40 $-1 $78 reversed single #
face $-1 $79 $80 $41 $-1 $81 forward single #
face $-1 $82 $83 $42 $-1 $84 forward single #
face $-1 $85 $86 $43 $-1 $87 forward single #
face $-1 $88 $89 $33 $-1 $90 reversed single #
loop $-1 $-1 $91 $44 #
plane-surface $-1 0 0 12.254548756687335 0 0 1 1 0 0 forward_v I I I I #
face $-1 $92 $93 $34 $-1 $94 reversed single #
loop $-1 $-1 $95 $45 #
plane-surface $-1 0 -22.39762011167371 3.5835123007582732 0 0 1 1 0 0 forward_v I I I I #
face $-1 $96 $97 $35 $-1 $98 reversed single #
loop $-1 $-1 $99 $46 #
plane-surface $-1 0 27.293321128748516 0 0 -1 0 0 0 -1 forward_v I I I I #
face $-1 $100 $101 $36 $-1 $102 reversed single #
loop $-1 $-1 $103 $47 #
plane-surface $-1 76.574084147065264 -2.0152768518439004 129.78224450908553 0 1 0 0.84804810408105047 0 0.52991925155115449 forward_v I I I I #
face $-1 $104 $105 $37 $-1 $106 forward single #
loop $-1 $107 $108 $48 #
cone-surface $-1 42.468505529821144 -0.33225085577510427 6.0607944788952066 -0.84804810408105047 0 -0.52991925155115449 0.26495962577557725 0 -0.42402405204052523 1 I I 0 1 0.5 forward I I I I #
face $-1 $109 $110 $38 $-1 $111 forward single #
loop $-1 $112 $113 $49 #
cone-surface $-1 42.468505529821144 2.1922881383280881 6.0607944788952066 -0.84804810408105047 0 -0.52991925155115449 0.26495962577557725 0 -0.42402405204052523 1 I I 0 1 0.5 forward I I I I #
face $-1 $114 $115 $39 $-1 $116 forward single #
loop $-1 $117 $118 $50 #
cone-surface $-1 42.468505529821144 4.716827132431284 6.0607944788952066 -0.84804810408105047 0 -0.52991925155115449 0.26495962577557725 0 -0.42402405204052523 1 I I 0 1 0.5 forward I I I I #
face $-1 $119 $120 $40 $-1 $121 reversed single #
loop $-1 $-1 $122 $51 #
plane-surface $-1 -126.17272772741148 -2.0152768518439004 50.407819952547193 0 1 0 -0.84804810408105047 0 0.52991925155115449 forward_v I I I I #
face $-1 $123 $124 $41 $-1 $125 forward single #
loop $-1 $126 $127 $52 #
cone-surface $-1 -42.468505529821137 -0.33225085577510427 6.0607944788952137 0.84804810408105047 0 -0.52991925155115449 0.26495962577557725 0 0.42402405204052523 1 I I 0 1 0.5 forward I I I I #
face $-1 $128 $129 $42 $-1 $130 forward single #
loop $-1 $131 $132 $53 #
cone-surface $-1 -42.468505529821137 2.1922881383280881 6.0607944788952137 0.84804810408105047 0 -0.52991925155115449 0.26495962577557725 0 0.42402405204052523 1 I I 0 1 0.5 forward I I I I #
face $-1 $133 $134 $43 $-1 $135 forward single #
loop $-1 $136 $137 $54 #
cone-surface $-1 -42.468505529821137 4.716827132431284 6.0607944788952137 0.84804810408105047 0 -0.52991925155115449 0.26495962577557725 0 0.42402405204052523 1 I I 0 1 0.5 forward I I I I #
face $-1 $138 $139 $33 $-1 $140 reversed single #
loop $-1 $-1 $141 $55 #
plane-surface $-1 0 0 -12.254548756687335 0 0 1 1 0 0 forward_v I I I I #
coedge $-1 $142 $143 $144 $145 forward $56 $-1 #
face $-1 $146 $147 $34 $-1 $148 reversed single #
loop $-1 $-1 $149 $58 #
plane-surface $-1 0 -22.39762011167371 -2.185142527343154 0 0 1 1 0 0 forward_v I I I I #
coedge $-1 $150 $151 $152 $153 reversed $59 $-1 #
face $-1 $154 $155 $35 $-1 $156 forward single #
loop $-1 $-1 $157 $61 #
plane-surface $-1 -46.798303170873133 0 0 1 0 0 0 0 -1 forward_v I I I I #
coedge $-1 $158 $159 $160 $161 forward $62 $-1 #
face $-1 $162 $163 $36 $-1 $164 reversed single #
loop $-1 $-1 $165 $64 #
plane-surface $-1 -2.8003404094730797 2.1922881383280917 80.18360092873931 0.84804810408105047 0 0.52991925155115449 0.52991925155115449 0 -0.84804810408105047 forward_v I I I I #
coedge $-1 $166 $167 $168 $169 reversed $65 $-1 #
face $-1 $-1 $170 $37 $-1 $171 forward single #
loop $-1 $172 $173 $67 #
cone-surface $-1 41.502626955881546 -0.33225085577510427 5.4572465804584809 -0.84804810408105047 0 -0.52991925155115449 0.13247981288778862 0 -0.21201202602026262 1 I I -0.70710678118654746 0.70710678118654746 0.25 forward I I I I #
loop $-1 $-1 $174 $48 #
coedge $-1 $108 $108 $175 $176 reversed $68 $-1 #
face $-1 $-1 $177 $38 $-1 $178 forward single #
loop $-1 $179 $180 $70 #
cone-surface $-1 41.502626955881546 2.1922881383280881 5.4572465804584809 -0.84804810408105047 0 -0.52991925155115449 0.13247981288778862 0 -0.21201202602026262 1 I I -0.70710678118654746 0.70710678118654746 0.25 forward I I I I #
loop $-1 $-1 $181 $49 #
coedge $-1 $113 $113 $182 $183 reversed $71 $-1 #
face $-1 $-1 $184 $39 $-1 $185 forward single #
loop $-1 $186 $187 $73 #
cone-surface $-1 41.502626955881546 4.716827132431284 5.4572465804584809 -0.84804810408105047 0 -0.52991925155115449 0.13247981288778862 0 -0.21201202602026262 1 I I -0.70710678118654746 0.70710678118654746 0.25 forward I I I I #
loop $-1 $-1 $188 $50 #
coedge $-1 $118 $118 $189 $190 reversed $74 $-1 #
face $-1 $191 $192 $40 $-1 $193 reversed single #
loop $-1 $-1 $194 $76 #
plane-surface $-1 -46.79830317087314 2.1922881383280917 0.80917637220097305 -0.84804810408105047 0 0.52991925155115449 0.52991925155115449 0 0.84804810408105047 forward_v I I I I #
coedge $-1 $195 $196 $197 $198 reversed $77 $-1 #
face $-1 $-1 $199 $41 $-1 $200 forward single #
loop $-1 $201 $202 $79 #
cone-surface $-1 -41.502626955881539 -0.33225085577510427 5.457246580458488 0.84804810408105047 0 -0.52991925155115449 0.13247981288778862 0 0.21201202602026262 1 I I -0.70710678118654746 0.70710678118654746 0.25 forward I I I I #
loop $-1 $-1 $203 $52 #
coedge $-1 $127 $127 $204 $205 reversed $80 $-1 #
face $-1 $-1 $206 $42 $-1 $207 forward single #
loop $-1 $208 $209 $82 #
cone-surface $-1 -41.502626955881539 2.1922881383280881 5.457246580458488 0.84804810408105047 0 -0.52991925155115449 0.13247981288778862 0 0.21201202602026262 1 I I -0.70710678118654746 0.70710678118654746 0.25 forward I I I I #
loop $-1 $-1 $210 $53 #
coedge $-1 $132 $132 $211 $212 reversed $83 $-1 #
face $-1 $-1 $213 $43 $-1 $214 forward single #
loop $-1 $215 $216 $85 #
cone-surface $-1 -41.502626955881539 4.716827132431284 5.457246580458488 0.84804810408105047 0 -0.52991925155115449 0.13247981288778862 0 0.21201202602026262 1 I I -0.70710678118654746 0.70710678118654746 0.25 forward I I I I #
loop $-1 $-1 $217 $54 #
coedge $-1 $137 $137 $218 $219 reversed $86 $-1 #
face $-1 $220 $221 $33 $-1 $222 reversed single #
loop $-1 $-1 $223 $88 #
plane-surface $-1 0 -27.293321128748516 0 0 1 0 0 0 1 forward_v I I I I #
coedge $-1 $224 $225 $226 $227 forward $89 $-1 #
coedge $-1 $228 $91 $229 $230 forward $56 $-1 #
coedge $-1 $91 $228 $231 $232 forward $56 $-1 #
coedge $-1 $233 $234 $91 $145 reversed $235 $-1 #
edge $-1 $236 -27.293321128748516 $237 27.293321128748516 $144 $238 forward 7 unknown #
face $-1 $239 $240 $34 $-1 $241 reversed single #
loop $-1 $-1 $242 $92 #
plane-surface $-1 0 -17.501919094598904 0.69918488670755963 0 -1 0 0 0 -1 forward_v I I I I #
coedge $-1 $243 $244 $245 $246 reversed $93 $-1 #
coedge $-1 $247 $95 $248 $249 forward $59 $-1 #
coedge $-1 $95 $247 $250 $251 reversed $59 $-1 #
coedge $-1 $252 $253 $95 $153 forward $254 $-1 #
edge $-1 $255 6.3031090387620488 $256 16.094511072911661 $152 $257 forward 7 unknown #
face $-1 $258 $259 $35 $-1 $260 reversed single #
loop $-1 $-1 $261 $96 #
plane-surface $-1 0 33.127730977523207 9.2824928046533923 0 0 1 1 0 0 forward_v I I I I #
coedge $-1 $262 $263 $159 $264 forward $97 $-1 #
coedge $-1 $265 $99 $266 $267 reversed $62 $-1 #
coedge $-1 $99 $265 $157 $264 reversed $62 $-1 #
coedge $-1 $268 $269 $99 $161 reversed $259 $-1 #
edge $-1 $270 -46.798303170873133 $271 46.798303170873133 $160 $272 forward 7 unknown #
face $-1 $273 $274 $36 $-1 $275 forward single #
loop $-1 $-1 $276 $100 #
plane-surface $-1 76.574084147065264 6.3998531285000837 129.78224450908553 0 -1 0 -0.84804810408105047 0 -0.52991925155115449 forward_v I I I I #
coedge $-1 $277 $278 $279 $280 reversed $101 $-1 #
coedge $-1 $167 $103 $281 $282 reversed $65 $-1 #
coedge $-1 $103 $166 $277 $283 reversed $65 $-1 #
coedge $-1 $279 $284 $103 $169 forward $285 $-1 #
edge $-1 $286 52.63657349785543 $287 64.081945882341785 $168 $288 forward 7 unknown #
loop $-1 $-1 $175 $104 #
plane-surface $-1 -2.8003404094730797 2.1922881383280917 80.18360092873931 0.84804810408105047 0 0.52991925155115449 0.52991925155115449 0 -0.84804810408105047 forward_v I I I I #
loop $-1 $-1 $289 $67 #
coedge $-1 $173 $173 $174 $290 reversed $105 $-1 #
coedge $-1 $174 $174 $173 $290 forward $107 $-1 #
coedge $-1 $175 $175 $108 $176 forward $170 $-1 #
edge $-1 $291 0 $291 6.2831853071796004 $175 $292 forward 7 unknown #
loop $-1 $-1 $182 $109 #
plane-surface $-1 -2.8003404094730797 2.1922881383280917 80.18360092873931 0.84804810408105047 0 0.52991925155115449 0.52991925155115449 0 -0.84804810408105047 forward_v I I I I #
loop $-1 $-1 $293 $70 #
coedge $-1 $180 $180 $181 $294 reversed $110 $-1 #
coedge $-1 $181 $181 $180 $294 forward $112 $-1 #
coedge $-1 $182 $182 $113 $183 forward $177 $-1 #
edge $-1 $295 0 $295 6.2831853071796004 $182 $296 forward 7 unknown #
loop $-1 $-1 $189 $114 #
plane-surface $-1 -2.8003404094730797 2.1922881383280917 80.18360092873931 0.84804810408105047 0 0.52991925155115449 0.52991925155115449 0 -0.84804810408105047 forward_v I I I I #
loop $-1 $-1 $297 $73 #
coedge $-1 $187 $187 $188 $298 reversed $115 $-1 #
coedge $-1 $188 $188 $187 $298 forward $117 $-1 #
coedge $-1 $189 $189 $118 $190 forward $184 $-1 #
edge $-1 $299 0 $299 6.2831853071796004 $189 $300 forward 7 unknown #
face $-1 $301 $302 $40 $-1 $303 reversed single #
loop $-1 $-1 $304 $119 #
plane-surface $-1 -126.17272772741148 6.3998531285000837 50.407819952547193 0 -1 0 0.84804810408105047 0 -0.52991925155115449 forward_v I I I I #
coedge $-1 $305 $306 $307 $308 reversed $120 $-1 #
coedge $-1 $196 $122 $309 $310 reversed $77 $-1 #
coedge $-1 $122 $195 $305 $311 reversed $77 $-1 #
coedge $-1 $307 $312 $122 $198 forward $313 $-1 #
edge $-1 $314 16.288060692832609 $315 23.439922879097928 $197 $316 forward 7 unknown #
loop $-1 $-1 $204 $123 #
plane-surface $-1 -46.79830317087314 2.1922881383280917 0.80917637220097305 -0.84804810408105047 0 0.52991925155115449 0.52991925155115449 0 0.84804810408105047 forward_v I I I I #
loop $-1 $-1 $317 $79 #
coedge $-1 $202 $202 $203 $318 reversed $124 $-1 #
coedge $-1 $203 $203 $202 $318 forward $126 $-1 #
coedge $-1 $204 $204 $127 $205 forward $199 $-1 #
edge $-1 $319 0 $319 6.2831853071796004 $204 $320 forward 7 unknown #
loop $-1 $-1 $211 $128 #
plane-surface $-1 -46.79830317087314 2.1922881383280917 0.80917637220097305 -0.84804810408105047 0 0.52991925155115449 0.52991925155115449 0 0.84804810408105047 forward_v I I I I #
loop $-1 $-1 $321 $82 #
coedge $-1 $209 $209 $210 $322 reversed $129 $-1 #
coedge $-1 $210 $210 $209 $322 forward $131 $-1 #
coedge $-1 $211 $211 $132 $212 forward $206 $-1 #
edge $-1 $323 0 $323 6.2831853071796004 $211 $324 forward 7 unknown #
loop $-1 $-1 $218 $133 #
plane-surface $-1 -46.79830317087314 2.1922881383280917 0.80917637220097305 -0.84804810408105047 0 0.52991925155115449 0.52991925155115449 0 0.84804810408105047 forward_v I I I I #
loop $-1 $-1 $325 $85 #
coedge $-1 $216 $216 $217 $326 reversed $134 $-1 #
coedge $-1 $217 $217 $216 $326 forward $136 $-1 #
coedge $-1 $218 $218 $137 $219 forward $213 $-1 #
edge $-1 $327 0 $327 6.2831853071796004 $218 $328 forward 7 unknown #
face $-1 $329 $330 $33 $-1 $331 reversed single #
loop $-1 $-1 $332 $138 #
plane-surface $-1 -46.798303170873133 0 0 1 0 0 0 0 -1 forward_v I I I I #
coedge $-1 $333 $231 $334 $335 forward $139 $-1 #
coedge $-1 $336 $141 $333 $337 forward $89 $-1 #
coedge $-1 $141 $336 $338 $339 forward $89 $-1 #
coedge $-1 $234 $233 $141 $227 reversed $235 $-1 #
edge $-1 $340 -27.293321128748516 $341 27.293321128748516 $226 $342 forward 7 unknown #
coedge $-1 $143 $142 $343 $344 forward $56 $-1 #
coedge $-1 $345 $346 $142 $230 reversed $330 $-1 #
edge $-1 $237 -46.798303170873133 $347 46.798303170873133 $229 $348 forward 7 unknown #
coedge $-1 $223 $349 $143 $232 reversed $139 $-1 #
edge $-1 $350 -46.798303170873133 $236 46.798303170873133 $231 $351 forward 7 unknown #
coedge $-1 $226 $144 $349 $352 forward $235 $-1 #
coedge $-1 $144 $226 $345 $353 reversed $235 $-1 #
loop $-1 $-1 $233 $329 #
vertex $-1 $145 $354 #
vertex $-1 $145 $355 #
straight-curve $-1 46.798303170873133 0 12.254548756687335 0 1 0 I I #
face $-1 $356 $357 $34 $-1 $358 reversed single #
loop $-1 $-1 $359 $146 #
plane-surface $-1 -46.798303170873133 0 0 1 0 0 0 0 -1 forward_v I I I I #
coedge $-1 $360 $248 $253 $361 reversed $147 $-1 #
coedge $-1 $362 $149 $363 $364 reversed $93 $-1 #
coedge $-1 $149 $362 $360 $365 forward $93 $-1 #
coedge $-1 $253 $252 $149 $246 forward $254 $-1 #
edge $-1 $366 -16.094511072911661 $367 -6.3031090387620488 $245 $368 forward 7 unknown #
coedge $-1 $151 $150 $359 $369 reversed $59 $-1 #
coedge $-1 $242 $370 $150 $249 reversed $147 $-1 #
edge $-1 $255 -46.798303170873133 $371 46.798303170873133 $248 $372 forward 7 unknown #
coedge $-1 $373 $374 $151 $251 forward $357 $-1 #
edge $-1 $256 -46.798303170873133 $375 46.798303170873133 $250 $376 forward 7 unknown #
coedge $-1 $245 $152 $374 $377 forward $254 $-1 #
coedge $-1 $152 $245 $242 $361 forward $254 $-1 #
loop $-1 $-1 $152 $356 #
vertex $-1 $153 $378 #
vertex $-1 $377 $379 #
straight-curve $-1 46.798303170873133 -11.198810055836855 3.5835123007582732 0 -1 0 I I #
face $-1 $380 $381 $35 $-1 $382 reversed single #
loop $-1 $-1 $269 $154 #
plane-surface $-1 0 33.127730977523207 5.784259882496892 0 0 1 1 0 0 forward_v I I I I #
coedge $-1 $383 $384 $385 $386 forward $155 $-1 #
coedge $-1 $387 $157 $388 $389 reversed $97 $-1 #
coedge $-1 $157 $387 $268 $390 reversed $97 $-1 #
edge $-1 $270 5.784259882496892 $391 9.2824928046533923 $157 $392 forward 7 unknown #
coedge $-1 $159 $158 $384 $393 forward $62 $-1 #
coedge $-1 $394 $385 $158 $267 forward $395 $-1 #
edge $-1 $396 -9.2824928046533923 $271 -5.784259882496892 $266 $397 forward 7 unknown #
coedge $-1 $398 $160 $263 $390 forward $259 $-1 #
coedge $-1 $160 $398 $394 $399 forward $259 $-1 #
vertex $-1 $264 $400 #
vertex $-1 $267 $401 #
straight-curve $-1 0 27.293321128748516 5.784259882496892 1 0 0 I I #
face $-1 $-1 $285 $36 $-1 $402 reversed single #
loop $-1 $-1 $403 $162 #
plane-surface $-1 0 0 12.254548756687335 0 0 1 1 0 0 forward_v I I I I #
coedge $-1 $404 $405 $406 $407 reversed $163 $-1 #
coedge $-1 $408 $165 $167 $283 forward $101 $-1 #
coedge $-1 $165 $408 $404 $409 forward $101 $-1 #
coedge $-1 $406 $168 $165 $280 forward $285 $-1 #
edge $-1 $287 -3.1114209210079462 $410 5.3037090593360379 $279 $411 forward 7 unknown #
coedge $-1 $412 $413 $166 $282 forward $274 $-1 #
edge $-1 $414 1.3593989110751679 $286 8.5112610973405012 $281 $415 forward 7 unknown #
edge $-1 $287 -93.596606341746252 $414 -80.100470533638244 $167 $416 forward 7 unknown #
coedge $-1 $168 $406 $412 $417 reversed $285 $-1 #
loop $-1 $-1 $406 $273 #
vertex $-1 $417 $418 #
vertex $-1 $169 $419 #
straight-curve $-1 46.798303170873133 -2.0152768518439004 64.891122254542765 0 0 -1 I I #
coedge $-1 $289 $289 $-1 $420 reversed $172 $-1 #
edge $-1 $421 0 $421 6.2831853071796004 $173 $422 forward 7 unknown #
vertex $-1 $176 $423 #
ellipse-curve $-1 43.222372077740481 -0.33225085577510427 6.5318625644441459 0.84804810408105047 0 0.52991925155115449 0.26495962577557725 0 -0.42402405204052523 1 I I #
coedge $-1 $293 $293 $-1 $424 reversed $179 $-1 #
edge $-1 $425 0 $425 6.2831853071796004 $180 $426 forward 7 unknown #
vertex $-1 $183 $427 #
ellipse-curve $-1 43.222372077740481 2.1922881383280881 6.5318625644441459 0.84804810408105047 0 0.52991925155115449 0.26495962577557725 0 -0.42402405204052523 1 I I #
coedge $-1 $297 $297 $-1 $428 reversed $186 $-1 #
edge $-1 $429 0 $429 6.2831853071796004 $187 $430 forward 7 unknown #
vertex $-1 $190 $431 #
ellipse-curve $-1 43.222372077740481 4.716827132431284 6.5318625644441459 0.84804810408105047 0 0.52991925155115449 0.26495962577557725 0 -0.42402405204052523 1 I I #
face $-1 $-1 $313 $40 $-1 $432 forward single #
loop $-1 $-1 $433 $191 #
plane-surface $-1 -46.798303170873133 0 0 1 0 0 0 0 -1 forward_v I I I I #
coedge $-1 $434 $435 $436 $437 reversed $192 $-1 #
coedge $-1 $438 $194 $196 $311 forward $120 $-1 #
coedge $-1 $194 $438 $434 $439 forward $120 $-1 #
coedge $-1 $436 $197 $194 $308 forward $313 $-1 #
edge $-1 $315 -3.1114209210079462 $440 5.3037090593360379 $307 $441 forward 7 unknown #
coedge $-1 $442 $443 $195 $310 forward $302 $-1 #
edge $-1 $444 -24.394733604072613 $314 -12.949361219586262 $309 $445 forward 7 unknown #
edge $-1 $315 -13.496135808107995 $444 -1.3368832564924053e-014 $196 $446 forward 7 unknown #
coedge $-1 $197 $436 $442 $447 forward $313 $-1 #
loop $-1 $-1 $436 $301 #
vertex $-1 $310 $448 #
vertex $-1 $198 $449 #
straight-curve $-1 -63.086363863705742 -2.0152768518439004 12.254548756687335 1 0 0 I I #
coedge $-1 $317 $317 $-1 $450 reversed $201 $-1 #
edge $-1 $451 0 $451 6.2831853071796004 $202 $452 forward 7 unknown #
vertex $-1 $205 $453 #
ellipse-curve $-1 -43.222372077740474 -0.33225085577510427 6.5318625644441548 -0.84804810408105047 0 0.52991925155115449 0.26495962577557725 0 0.42402405204052523 1 I I #
coedge $-1 $321 $321 $-1 $454 reversed $208 $-1 #
edge $-1 $455 0 $455 6.2831853071796004 $209 $456 forward 7 unknown #
vertex $-1 $212 $457 #
ellipse-curve $-1 -43.222372077740474 2.1922881383280881 6.5318625644441548 -0.84804810408105047 0 0.52991925155115449 0.26495962577557725 0 0.42402405204052523 1 I I #
coedge $-1 $325 $325 $-1 $458 reversed $215 $-1 #
edge $-1 $459 0 $459 6.2831853071796004 $216 $460 forward 7 unknown #
vertex $-1 $219 $461 #
ellipse-curve $-1 -43.222372077740474 4.716827132431284 6.5318625644441548 -0.84804810408105047 0 0.52991925155115449 0.26495962577557725 0 0.42402405204052523 1 I I #
face $-1 $-1 $235 $33 $-1 $462 reversed single #
loop $-1 $-1 $346 $220 #
plane-surface $-1 0 27.293321128748516 0 0 -1 0 0 0 -1 forward_v I I I I #
coedge $-1 $463 $343 $346 $464 forward $221 $-1 #
coedge $-1 $349 $223 $224 $337 reversed $139 $-1 #
coedge $-1 $343 $463 $223 $335 reversed $221 $-1 #
edge $-1 $350 -12.254548756687335 $465 12.254548756687335 $334 $466 forward 7 unknown #
coedge $-1 $225 $224 $463 $467 forward $89 $-1 #
edge $-1 $341 -46.798303170873133 $465 46.798303170873133 $333 $468 forward 7 unknown #
coedge $-1 $346 $345 $225 $339 reversed $330 $-1 #
edge $-1 $469 -46.798303170873133 $340 46.798303170873133 $338 $470 forward 7 unknown #
vertex $-1 $227 $471 #
vertex $-1 $352 $472 #
straight-curve $-1 46.798303170873133 0 -12.254548756687335 0 -1 0 I I #
coedge $-1 $332 $334 $228 $344 reversed $221 $-1 #
edge $-1 $347 -27.293321128748516 $350 27.293321128748516 $343 $473 forward 7 unknown #
coedge $-1 $338 $229 $234 $353 forward $330 $-1 #
coedge $-1 $229 $338 $332 $464 reversed $330 $-1 #
vertex $-1 $230 $474 #
straight-curve $-1 0 27.293321128748516 12.254548756687335 -1 0 0 I I #
coedge $-1 $231 $333 $233 $352 reversed $139 $-1 #
vertex $-1 $344 $475 #
straight-curve $-1 0 -27.293321128748516 12.254548756687335 1 0 0 I I #
edge $-1 $236 -12.254548756687335 $341 12.254548756687335 $233 $476 forward 7 unknown #
edge $-1 $237 -12.254548756687335 $340 12.254548756687335 $234 $477 forward 7 unknown #
point $-1 46.798303170873133 -27.293321128748516 12.254548756687335 #
point $-1 46.798303170873133 27.293321128748516 12.254548756687335 #
face $-1 $-1 $254 $34 $-1 $478 reversed single #
loop $-1 $-1 $250 $239 #
plane-surface $-1 0 -27.293321128748516 0 0 1 0 0 0 1 forward_v I I I I #
coedge $-1 $479 $480 $247 $369 forward $240 $-1 #
coedge $-1 $370 $242 $244 $365 reversed $147 $-1 #
edge $-1 $367 -2.5347349706969338 $255 3.2339198574044934 $253 $481 forward 7 unknown #
coedge $-1 $244 $243 $482 $483 reversed $93 $-1 #
coedge $-1 $374 $373 $243 $364 forward $357 $-1 #
edge $-1 $484 -46.798303170873133 $366 46.798303170873133 $363 $485 forward 7 unknown #
edge $-1 $486 -46.798303170873133 $367 46.798303170873133 $360 $487 forward 7 unknown #
vertex $-1 $364 $488 #
vertex $-1 $246 $489 #
straight-curve $-1 46.798303170873133 -11.198810055836855 -2.185142527343154 0 1 0 I I #
edge $-1 $375 -16.094511072911661 $371 -6.3031090387620488 $359 $490 forward 7 unknown #
coedge $-1 $248 $360 $479 $491 reversed $147 $-1 #
vertex $-1 $369 $492 #
straight-curve $-1 0 -17.501919094598904 3.5835123007582732 -1 0 0 I I #
coedge $-1 $363 $250 $480 $493 forward $357 $-1 #
coedge $-1 $250 $363 $252 $377 reversed $357 $-1 #
vertex $-1 $493 $494 #
straight-curve $-1 0 -27.293321128748516 3.5835123007582732 -1 0 0 I I #
edge $-1 $256 -3.5835123007582732 $366 2.185142527343154 $252 $495 forward 7 unknown #
point $-1 46.798303170873133 -17.501919094598904 3.5835123007582732 #
point $-1 46.798303170873133 -27.293321128748516 3.5835123007582732 #
face $-1 $-1 $395 $35 $-1 $496 reversed single #
loop $-1 $-1 $497 $258 #
plane-surface $-1 0 38.962140826297897 7.5333763435751422 0 -1 0 0 0 -1 forward_v I I I I #
coedge $-1 $388 $261 $498 $499 forward $155 $-1 #
coedge $-1 $261 $388 $265 $393 reversed $155 $-1 #
coedge $-1 $266 $500 $261 $386 reversed $395 $-1 #
edge $-1 $396 -5.8344098487746905 $501 5.8344098487746905 $385 $502 forward 7 unknown #
coedge $-1 $263 $262 $503 $504 forward $97 $-1 #
coedge $-1 $384 $383 $262 $389 forward $155 $-1 #
edge $-1 $505 -5.8344098487746905 $391 5.8344098487746905 $262 $506 forward 7 unknown #
edge $-1 $270 -5.8344098487746905 $507 5.8344098487746905 $263 $508 forward 7 unknown #
vertex $-1 $389 $509 #
straight-curve $-1 -46.798303170873133 27.293321128748516 0 0 0 1 I I #
edge $-1 $396 -46.798303170873133 $391 46.798303170873133 $384 $510 forward 7 unknown #
coedge $-1 $500 $266 $269 $399 reversed $395 $-1 #
loop $-1 $-1 $266 $380 #
vertex $-1 $267 $511 #
straight-curve $-1 46.798303170873133 27.293321128748516 0 0 0 -1 I I #
coedge $-1 $269 $268 $512 $513 forward $259 $-1 #
edge $-1 $514 -5.8344098487746905 $271 5.8344098487746905 $394 $515 forward 7 unknown #
point $-1 -46.798303170873133 27.293321128748516 5.784259882496892 #
point $-1 46.798303170873133 27.293321128748516 5.784259882496892 #
plane-surface $-1 46.798303170873133 0 0 -1 0 0 0 0 1 forward_v I I I I #
coedge $-1 $413 $412 $405 $516 forward $274 $-1 #
coedge $-1 $405 $276 $278 $409 reversed $163 $-1 #
coedge $-1 $276 $404 $403 $516 reversed $163 $-1 #
coedge $-1 $284 $279 $276 $407 forward $285 $-1 #
edge $-1 $410 -64.081945882341785 $517 -52.63657349785543 $406 $518 forward 7 unknown #
coedge $-1 $278 $277 $413 $519 reversed $101 $-1 #
edge $-1 $520 80.100470533638244 $410 93.596606341746252 $404 $521 forward 7 unknown #
vertex $-1 $280 $522 #
straight-curve $-1 46.798303170873126 1.0961440691640458 0.80917637220098015 0 1 0 I I #
coedge $-1 $403 $281 $284 $417 forward $274 $-1 #
coedge $-1 $281 $403 $408 $519 forward $274 $-1 #
vertex $-1 $282 $523 #
straight-curve $-1 38.287042073532632 -2.0152768518439004 12.254548756687335 1 0 0 I I #
straight-curve $-1 -2.8003404094730797 -2.0152768518439004 80.18360092873931 -0.52991925155115449 0 0.84804810408105047 I I #
edge $-1 $286 -2.0152768518439004 $517 6.3998531285000837 $284 $524 forward 7 unknown #
point $-1 46.798303170873133 -2.0152768518439004 12.254548756687335 #
point $-1 46.798303170873133 -2.0152768518439004 0.80917637220098015 #
edge $-1 $525 1 $525 0 $289 $-1 forward 7 unknown #
vertex $-1 $290 $526 #
ellipse-curve $-1 41.714638981901807 -0.33225085577510427 5.5897263933462691 0.84804810408105047 0 0.52991925155115449 0.26495962577557725 0 -0.42402405204052523 1 I I #
point $-1 43.487331703516055 -0.33225085577510427 6.1078385124036192 #
edge $-1 $527 1 $527 0 $293 $-1 forward 7 unknown #
vertex $-1 $294 $528 #
ellipse-curve $-1 41.714638981901807 2.1922881383280881 5.5897263933462691 0.84804810408105047 0 0.52991925155115449 0.26495962577557725 0 -0.42402405204052523 1 I I #
point $-1 43.487331703516055 2.1922881383280881 6.1078385124036192 #
edge $-1 $529 1 $529 0 $297 $-1 forward 7 unknown #
vertex $-1 $298 $530 #
ellipse-curve $-1 41.714638981901807 4.716827132431284 5.5897263933462691 0.84804810408105047 0 0.52991925155115449 0.26495962577557725 0 -0.42402405204052523 1 I I #
point $-1 43.487331703516055 4.716827132431284 6.1078385124036192 #
plane-surface $-1 0 0 12.254548756687335 0 0 1 1 0 0 forward_v I I I I #
coedge $-1 $443 $442 $435 $531 forward $302 $-1 #
coedge $-1 $435 $304 $306 $439 reversed $192 $-1 #
coedge $-1 $304 $434 $433 $531 reversed $192 $-1 #
coedge $-1 $312 $307 $304 $437 forward $313 $-1 #
edge $-1 $440 -23.439922879097928 $532 -16.288060692832609 $436 $533 forward 7 unknown #
coedge $-1 $306 $305 $443 $534 reversed $120 $-1 #
edge $-1 $535 1.3368832564924053e-014 $440 13.496135808107995 $434 $536 forward 7 unknown #
vertex $-1 $308 $537 #
straight-curve $-1 -39.646440984607814 1.0961440691640458 12.254548756687335 0 1 0 I I #
coedge $-1 $433 $309 $312 $447 reversed $302 $-1 #
coedge $-1 $309 $433 $438 $534 forward $302 $-1 #
vertex $-1 $310 $538 #
straight-curve $-1 -46.798303170873133 -2.0152768518439004 25.203909976273597 0 0 1 I I #
straight-curve $-1 -46.79830317087314 -2.0152768518439004 0.80917637220097305 -0.52991925155115449 0 -0.84804810408105047 I I #
edge $-1 $532 -6.3998531285000837 $314 2.0152768518439004 $442 $539 forward 7 unknown #
point $-1 -46.798303170873133 -2.0152768518439004 12.254548756687335 #
point $-1 -39.646440984607814 -2.0152768518439004 12.254548756687335 #
edge $-1 $540 1 $540 0 $317 $-1 forward 7 unknown #
vertex $-1 $318 $541 #
ellipse-curve $-1 -41.7146389819018 -0.33225085577510427 5.5897263933462762 -0.84804810408105047 0 0.52991925155115449 0.26495962577557725 0 0.42402405204052523 1 I I #
point $-1 -42.957412451964892 -0.33225085577510427 6.9558866164846762 #
edge $-1 $542 1 $542 0 $321 $-1 forward 7 unknown #
vertex $-1 $322 $543 #
ellipse-curve $-1 -41.7146389819018 2.1922881383280881 5.5897263933462762 -0.84804810408105047 0 0.52991925155115449 0.26495962577557725 0 0.42402405204052523 1 I I #
point $-1 -42.957412451964892 2.1922881383280881 6.9558866164846762 #
edge $-1 $544 1 $544 0 $325 $-1 forward 7 unknown #
vertex $-1 $326 $545 #
ellipse-curve $-1 -41.7146389819018 4.716827132431284 5.5897263933462762 -0.84804810408105047 0 0.52991925155115449 0.26495962577557725 0 0.42402405204052523 1 I I #
point $-1 -42.957412451964892 4.716827132431284 6.9558866164846762 #
plane-surface $-1 46.798303170873133 0 0 -1 0 0 0 0 1 forward_v I I I I #
coedge $-1 $334 $332 $336 $467 reversed $221 $-1 #
edge $-1 $347 -12.254548756687335 $469 12.254548756687335 $346 $546 forward 7 unknown #
vertex $-1 $467 $547 #
straight-curve $-1 -46.798303170873133 -27.293321128748516 0 0 0 -1 I I #
edge $-1 $465 -27.293321128748516 $469 27.293321128748516 $463 $548 forward 7 unknown #
straight-curve $-1 0 -27.293321128748516 -12.254548756687335 -1 0 0 I I #
vertex $-1 $339 $549 #
straight-curve $-1 0 27.293321128748516 -12.254548756687335 1 0 0 I I #
point $-1 46.798303170873133 27.293321128748516 -12.254548756687335 #
point $-1 46.798303170873133 -27.293321128748516 -12.254548756687335 #
straight-curve $-1 -46.798303170873133 0 12.254548756687335 0 -1 0 I I #
point $-1 -46.798303170873133 27.293321128748516 12.254548756687335 #
point $-1 -46.798303170873133 -27.293321128748516 12.254548756687335 #
straight-curve $-1 46.798303170873133 -27.293321128748516 0 0 0 -1 I I #
straight-curve $-1 46.798303170873133 27.293321128748516 0 0 0 -1 I I #
plane-surface $-1 46.798303170873133 0 0 -1 0 0 0 0 1 forward_v I I I I #
coedge $-1 $482 $359 $370 $491 forward $240 $-1 #
coedge $-1 $359 $482 $373 $493 reversed $240 $-1 #
straight-curve $-1 46.798303170873133 -17.501919094598904 0.34959244335377981 0 0 1 I I #
coedge $-1 $480 $479 $362 $483 forward $240 $-1 #
edge $-1 $486 6.3031090387620488 $484 16.094511072911661 $482 $550 forward 7 unknown #
vertex $-1 $364 $551 #
straight-curve $-1 0 -27.293321128748516 -2.185142527343154 1 0 0 I I #
vertex $-1 $483 $552 #
straight-curve $-1 0 -17.501919094598904 -2.185142527343154 1 0 0 I I #
point $-1 46.798303170873133 -27.293321128748516 -2.185142527343154 #
point $-1 46.798303170873133 -17.501919094598904 -2.185142527343154 #
straight-curve $-1 -46.798303170873133 -11.198810055836855 3.5835123007582732 0 1 0 I I #
edge $-1 $371 -3.2339198574044934 $486 2.5347349706969338 $479 $553 forward 7 unknown #
point $-1 -46.798303170873133 -17.501919094598904 3.5835123007582732 #
edge $-1 $375 -3.5835123007582732 $484 2.185142527343154 $480 $554 forward 7 unknown #
point $-1 -46.798303170873133 -27.293321128748516 3.5835123007582732 #
straight-curve $-1 46.798303170873133 -27.293321128748516 0 0 0 -1 I I #
plane-surface $-1 46.798303170873133 0 0 -1 0 0 0 0 1 forward_v I I I I #
coedge $-1 $512 $498 $500 $555 forward $381 $-1 #
coedge $-1 $497 $503 $383 $499 reversed $381 $-1 #
edge $-1 $501 -46.798303170873133 $505 46.798303170873133 $498 $556 forward 7 unknown #
coedge $-1 $385 $394 $497 $555 reversed $395 $-1 #
vertex $-1 $386 $557 #
straight-curve $-1 46.798303170873133 33.127730977523207 9.2824928046533923 0 1 0 I I #
coedge $-1 $498 $512 $387 $504 reversed $381 $-1 #
edge $-1 $505 -1.7491164610782501 $507 1.7491164610782501 $503 $558 forward 7 unknown #
vertex $-1 $499 $559 #
straight-curve $-1 -46.798303170873133 33.127730977523207 9.2824928046533923 0 -1 0 I I #
vertex $-1 $513 $560 #
straight-curve $-1 -46.798303170873133 33.127730977523207 5.784259882496892 0 1 0 I I #
point $-1 -46.798303170873133 27.293321128748516 9.2824928046533923 #
straight-curve $-1 0 27.293321128748516 9.2824928046533923 -1 0 0 I I #
point $-1 46.798303170873133 27.293321128748516 9.2824928046533923 #
coedge $-1 $503 $497 $398 $513 reversed $381 $-1 #
edge $-1 $507 -46.798303170873133 $514 46.798303170873133 $512 $561 forward 7 unknown #
vertex $-1 $399 $562 #
straight-curve $-1 46.798303170873133 33.127730977523207 5.784259882496892 0 -1 0 I I #
edge $-1 $517 -8.5112610973405012 $520 -1.3593989110751679 $403 $563 forward 7 unknown #
vertex $-1 $407 $564 #
straight-curve $-1 46.798303170873133 6.3998531285000837 64.891122254542765 0 0 1 I I #
edge $-1 $520 -5.3037090593360379 $414 3.1114209210079462 $413 $565 forward 7 unknown #
vertex $-1 $519 $566 #
straight-curve $-1 -2.8003404094730797 6.3998531285000837 80.18360092873931 0.52991925155115449 0 -0.84804810408105047 I I #
point $-1 46.798303170873133 6.3998531285000837 0.80917637220098015 #
point $-1 39.6464409846078 -2.0152768518439004 12.254548756687342 #
straight-curve $-1 46.798303170873133 0 12.254548756687335 0 1 0 I I #
vertex $-1 $420 $567 #
point $-1 41.979598607677389 -0.33225085577510427 5.1657023413057441 #
vertex $-1 $424 $568 #
point $-1 41.979598607677389 2.1922881383280881 5.1657023413057441 #
vertex $-1 $428 $569 #
point $-1 41.979598607677389 4.716827132431284 5.1657023413057441 #
edge $-1 $532 12.949361219586262 $535 24.394733604072613 $433 $570 forward 7 unknown #
vertex $-1 $447 $571 #
straight-curve $-1 -63.086363863705742 6.3998531285000837 12.254548756687335 -1 0 0 I I #
edge $-1 $535 -5.3037090593360379 $444 3.1114209210079462 $443 $572 forward 7 unknown #
vertex $-1 $534 $573 #
straight-curve $-1 -46.79830317087314 6.3998531285000837 0.80917637220097305 0.52991925155115449 0 0.84804810408105047 I I #
point $-1 -39.646440984607814 6.3998531285000837 12.254548756687335 #
point $-1 -46.798303170873133 -2.0152768518439004 0.80917637220098437 #
straight-curve $-1 -46.798303170873133 0 12.254548756687335 0 -1 0 I I #
vertex $-1 $450 $574 #
point $-1 -41.449679356126225 -0.33225085577510427 6.013750445386802 #
vertex $-1 $454 $575 #
point $-1 -41.449679356126225 2.1922881383280881 6.013750445386802 #
vertex $-1 $458 $576 #
point $-1 -41.449679356126225 4.716827132431284 6.013750445386802 #
straight-curve $-1 -46.798303170873133 27.293321128748516 0 0 0 -1 I I #
point $-1 -46.798303170873133 -27.293321128748516 -12.254548756687335 #
straight-curve $-1 -46.798303170873133 0 -12.254548756687335 0 1 0 I I #
point $-1 -46.798303170873133 27.293321128748516 -12.254548756687335 #
straight-curve $-1 -46.798303170873133 -11.198810055836855 -2.185142527343154 0 -1 0 I I #
point $-1 -46.798303170873133 -27.293321128748516 -2.185142527343154 #
point $-1 -46.798303170873133 -17.501919094598904 -2.185142527343154 #
straight-curve $-1 -46.798303170873133 -17.501919094598904 0.34959244335377981 0 0 -1 I I #
straight-curve $-1 -46.798303170873133 -27.293321128748516 0 0 0 -1 I I #
edge $-1 $501 -1.7491164610782501 $514 1.7491164610782501 $500 $577 forward 7 unknown #
straight-curve $-1 0 38.962140826297897 9.2824928046533923 -1 0 0 I I #
point $-1 46.798303170873133 38.962140826297897 9.2824928046533923 #
straight-curve $-1 -46.798303170873133 38.962140826297897 7.5333763435751422 0 0 -1 I I #
point $-1 -46.798303170873133 38.962140826297897 9.2824928046533923 #
point $-1 -46.798303170873133 38.962140826297897 5.784259882496892 #
straight-curve $-1 0 38.962140826297897 5.784259882496892 1 0 0 I I #
point $-1 46.798303170873133 38.962140826297897 5.784259882496892 #
straight-curve $-1 38.287042073532632 6.3998531285000837 12.254548756687335 -1 0 0 I I #
point $-1 46.798303170873133 6.3998531285000837 12.254548756687335 #
straight-curve $-1 39.646440984607814 1.0961440691640458 12.254548756687335 0 -1 0 I I #
point $-1 39.6464409846078 6.3998531285000837 12.254548756687342 #
point $-1 41.290614929861285 -0.33225085577510427 5.3247667675706927 #
point $-1 41.290614929861285 2.1922881383280881 5.3247667675706927 #
point $-1 41.290614929861285 4.716827132431284 5.3247667675706927 #
straight-curve $-1 -46.798303170873133 6.3998531285000837 25.203909976273597 0 0 -1 I I #
point $-1 -46.798303170873133 6.3998531285000837 12.254548756687335 #
straight-curve $-1 -46.798303170873133 1.0961440691640458 0.80917637220099103 0 -1 0 I I #
point $-1 -46.798303170873133 6.3998531285000837 0.80917637220098437 #
point $-1 -41.290614929861277 -0.33225085577510427 5.3247667675706998 #
point $-1 -41.290614929861277 2.1922881383280881 5.3247667675706998 #
point $-1 -41.290614929861277 4.716827132431284 5.3247667675706998 #
straight-curve $-1 46.798303170873133 38.962140826297897 7.5333763435751422 0 0 -1 I I #
End-of-ACIS-data 