500 0 2 0           
7 Unknown 11 ACIS 5.0 NT 24 Fri Mar 26 01:54:04 1999 
-1 9.9999999999999995e-007 1e-010 
body $-1 $2 $-1 $3 #
body $-1 $4 $-1 $5 #
lump $-1 $-1 $6 $0 #
transform $-1 1 0 0 0 1 0 0 0 1 47.484359263893552 32.080454566134129 9.8772201890896554 1 rotate no_reflect no_shear #
lump $-1 $-1 $7 $1 #
transform $-1 1 0 0 0 1 0 0 0 1 47.484359263893552 32.080454566134129 9.8772201890896554 1 rotate no_reflect no_shear #
shell $-1 $-1 $-1 $8 $-1 $2 #
shell $-1 $-1 $-1 $9 $-1 $4 #
face $-1 $10 $11 $6 $-1 $12 forward single #
face $-1 $13 $14 $7 $-1 $15 reversed single #
face $-1 $16 $17 $6 $-1 $18 reversed single #
loop $-1 $-1 $19 $8 #
plane-surface $-1 0 0 9.8772201890896554 0 0 1 1 0 0 forward_v I I I I #
face $-1 $20 $21 $7 $-1 $22 reversed single #
loop $-1 $-1 $23 $9 #
plane-surface $-1 -45.383366283274761 -44.324578286628544 0 0 1 0 0 0 1 forward_v I I I I #
face $-1 $24 $25 $6 $-1 $26 reversed single #
loop $-1 $-1 $27 $10 #
plane-surface $-1 0 0 -9.8772201890896554 0 0 1 1 0 0 forward_v I I I I #
coedge $-1 $28 $29 $30 $31 forward $11 $-1 #
face $-1 $32 $33 $7 $-1 $34 reversed single #
loop $-1 $-1 $35 $13 #
plane-surface $-1 -43.282373302655969 -38.202516426381337 0 -1 0 0 0 0 1 forward_v I I I I #
coedge $-1 $36 $37 $38 $39 forward $14 $-1 #
face $-1 $40 $41 $6 $-1 $42 reversed single #
loop $-1 $-1 $43 $16 #
plane-surface $-1 0 -32.080454566134129 0 0 1 0 0 0 1 forward_v I I I I #
coedge $-1 $44 $45 $46 $47 forward $17 $-1 #
coedge $-1 $48 $19 $49 $50 forward $11 $-1 #
coedge $-1 $19 $48 $51 $52 forward $11 $-1 #
coedge $-1 $53 $54 $19 $31 reversed $55 $-1 #
edge $-1 $56 -32.080454566134129 $57 32.080454566134129 $30 $58 forward 7 unknown #
face $-1 $59 $60 $7 $-1 $61 forward single #
loop $-1 $-1 $62 $20 #
plane-surface $-1 0 -32.080454566134129 0 0 1 0 0 0 1 forward_v I I I I #
coedge $-1 $63 $64 $65 $66 forward $21 $-1 #
coedge $-1 $65 $23 $67 $68 reversed $14 $-1 #
coedge $-1 $23 $65 $69 $70 reversed $14 $-1 #
coedge $-1 $71 $72 $23 $39 reversed $73 $-1 #
edge $-1 $74 -9.8772201890896554 $75 9.8772201890896554 $38 $76 forward 7 unknown #
face $-1 $77 $78 $6 $-1 $79 reversed single #
loop $-1 $-1 $80 $24 #
plane-surface $-1 -47.484359263893552 0 0 1 0 0 0 0 -1 forward_v I I I I #
coedge $-1 $81 $51 $82 $83 forward $25 $-1 #
coedge $-1 $84 $27 $81 $85 forward $17 $-1 #
coedge $-1 $27 $84 $86 $87 forward $17 $-1 #
coedge $-1 $54 $53 $27 $47 reversed $55 $-1 #
edge $-1 $88 -32.080454566134129 $89 32.080454566134129 $46 $90 forward 7 unknown #
coedge $-1 $29 $28 $91 $92 forward $11 $-1 #
coedge $-1 $93 $94 $28 $50 reversed $78 $-1 #
edge $-1 $57 -47.484359263893552 $95 47.484359263893552 $49 $96 forward 7 unknown #
coedge $-1 $43 $97 $29 $52 reversed $25 $-1 #
edge $-1 $98 -47.484359263893552 $56 47.484359263893552 $51 $99 forward 7 unknown #
coedge $-1 $46 $30 $97 $100 forward $55 $-1 #
coedge $-1 $30 $46 $93 $101 reversed $55 $-1 #
loop $-1 $-1 $53 $77 #
vertex $-1 $31 $102 #
vertex $-1 $31 $103 #
straight-curve $-1 47.484359263893552 0 9.8772201890896554 0 1 0 I I #
face $-1 $104 $105 $7 $-1 $106 reversed single #
loop $-1 $-1 $107 $32 #
plane-surface $-1 0 0 9.8772201890896554 0 0 1 1 0 0 forward_v I I I I #
coedge $-1 $108 $109 $110 $111 forward $33 $-1 #
coedge $-1 $110 $35 $112 $113 reversed $21 $-1 #
coedge $-1 $35 $110 $114 $115 reversed $21 $-1 #
coedge $-1 $37 $36 $35 $66 reversed $14 $-1 #
edge $-1 $116 -9.8772201890896554 $117 9.8772201890896554 $35 $118 forward 7 unknown #
coedge $-1 $119 $112 $36 $68 forward $105 $-1 #
edge $-1 $117 -2.1009929806187913 $75 2.1009929806187913 $36 $120 forward 7 unknown #
coedge $-1 $114 $121 $37 $70 forward $60 $-1 #
edge $-1 $74 -2.1009929806187913 $116 2.1009929806187913 $37 $122 forward 7 unknown #
coedge $-1 $123 $38 $121 $124 reversed $73 $-1 #
coedge $-1 $38 $123 $119 $125 reversed $73 $-1 #
loop $-1 $-1 $123 $104 #
vertex $-1 $124 $126 #
vertex $-1 $125 $127 #
straight-curve $-1 -47.484359263893552 -44.324578286628544 0 0 0 -1 I I #
face $-1 $-1 $55 $6 $-1 $128 reversed single #
loop $-1 $-1 $93 $40 #
plane-surface $-1 0 32.080454566134129 0 0 -1 0 0 0 -1 forward_v I I I I #
coedge $-1 $129 $91 $94 $130 forward $41 $-1 #
coedge $-1 $97 $43 $44 $85 reversed $25 $-1 #
coedge $-1 $91 $129 $43 $83 reversed $41 $-1 #
edge $-1 $98 -9.8772201890896554 $131 9.8772201890896554 $82 $132 forward 7 unknown #
coedge $-1 $45 $44 $129 $133 forward $17 $-1 #
edge $-1 $89 -47.484359263893552 $131 47.484359263893552 $81 $134 forward 7 unknown #
coedge $-1 $94 $93 $45 $87 reversed $78 $-1 #
edge $-1 $135 -47.484359263893552 $88 47.484359263893552 $86 $136 forward 7 unknown #
vertex $-1 $47 $137 #
vertex $-1 $100 $138 #
straight-curve $-1 47.484359263893552 0 -9.8772201890896554 0 -1 0 I I #
coedge $-1 $80 $82 $48 $92 reversed $41 $-1 #
edge $-1 $95 -32.080454566134129 $98 32.080454566134129 $91 $139 forward 7 unknown #
coedge $-1 $86 $49 $54 $101 forward $78 $-1 #
coedge $-1 $49 $86 $80 $130 reversed $78 $-1 #
vertex $-1 $50 $140 #
straight-curve $-1 0 32.080454566134129 9.8772201890896554 -1 0 0 I I #
coedge $-1 $51 $81 $53 $100 reversed $25 $-1 #
vertex $-1 $92 $141 #
straight-curve $-1 0 -32.080454566134129 9.8772201890896554 1 0 0 I I #
edge $-1 $56 -9.8772201890896554 $89 9.8772201890896554 $53 $142 forward 7 unknown #
edge $-1 $57 -9.8772201890896554 $88 9.8772201890896554 $54 $143 forward 7 unknown #
point $-1 47.484359263893552 -32.080454566134129 9.8772201890896554 #
point $-1 47.484359263893552 32.080454566134129 9.8772201890896554 #
face $-1 $144 $73 $7 $-1 $145 reversed single #
loop $-1 $-1 $146 $59 #
plane-surface $-1 0 0 -9.8772201890896554 0 0 1 1 0 0 forward_v I I I I #
coedge $-1 $147 $148 $149 $150 forward $60 $-1 #
coedge $-1 $151 $62 $152 $153 reversed $33 $-1 #
coedge $-1 $62 $151 $148 $154 reversed $33 $-1 #
coedge $-1 $64 $63 $62 $111 reversed $21 $-1 #
edge $-1 $155 -9.8772201890896554 $156 9.8772201890896554 $62 $157 forward 7 unknown #
coedge $-1 $67 $152 $63 $113 forward $105 $-1 #
edge $-1 $156 -6.1220618602472072 $117 6.1220618602472072 $63 $158 forward 7 unknown #
coedge $-1 $148 $69 $64 $115 forward $60 $-1 #
edge $-1 $116 -6.1220618602472072 $155 6.1220618602472072 $64 $159 forward 7 unknown #
vertex $-1 $115 $160 #
vertex $-1 $66 $161 #
straight-curve $-1 -43.282373302655969 -44.324578286628544 0 0 0 -1 I I #
coedge $-1 $162 $67 $72 $125 forward $105 $-1 #
straight-curve $-1 -45.383366283274761 -44.324578286628544 -9.8772201890896554 -1 0 0 I I #
coedge $-1 $69 $147 $71 $124 forward $60 $-1 #
straight-curve $-1 -45.383366283274761 -44.324578286628544 9.8772201890896554 1 0 0 I I #
coedge $-1 $72 $71 $163 $164 forward $73 $-1 #
edge $-1 $165 -32.080454566134129 $74 44.324578286628544 $71 $166 forward 7 unknown #
edge $-1 $75 -44.324578286628544 $167 32.080454566134129 $72 $168 forward 7 unknown #
point $-1 -47.484359263893552 -44.324578286628544 9.8772201890896554 #
point $-1 -47.484359263893552 -44.324578286628544 -9.8772201890896554 #
plane-surface $-1 47.484359263893552 0 0 -1 0 0 0 0 1 forward_v I I I I #
coedge $-1 $82 $80 $84 $133 reversed $41 $-1 #
edge $-1 $95 -9.8772201890896554 $135 9.8772201890896554 $94 $169 forward 7 unknown #
vertex $-1 $133 $170 #
straight-curve $-1 -47.484359263893552 -32.080454566134129 0 0 0 -1 I I #
edge $-1 $131 -32.080454566134129 $135 32.080454566134129 $129 $171 forward 7 unknown #
straight-curve $-1 0 -32.080454566134129 -9.8772201890896554 -1 0 0 I I #
vertex $-1 $87 $172 #
straight-curve $-1 0 32.080454566134129 -9.8772201890896554 1 0 0 I I #
point $-1 47.484359263893552 32.080454566134129 -9.8772201890896554 #
point $-1 47.484359263893552 -32.080454566134129 -9.8772201890896554 #
straight-curve $-1 -47.484359263893552 0 9.8772201890896554 0 -1 0 I I #
point $-1 -47.484359263893552 32.080454566134129 9.8772201890896554 #
point $-1 -47.484359263893552 -32.080454566134129 9.8772201890896554 #
straight-curve $-1 47.484359263893552 -32.080454566134129 0 0 0 -1 I I #
straight-curve $-1 47.484359263893552 32.080454566134129 0 0 0 -1 I I #
face $-1 $173 $174 $7 $-1 $175 reversed single #
plane-surface $-1 -47.484359263893552 0 0 1 0 0 0 0 -1 forward_v I I I I #
coedge $-1 $152 $162 $176 $177 forward $105 $-1 #
coedge $-1 $121 $107 $178 $179 forward $60 $-1 #
coedge $-1 $107 $114 $109 $154 forward $60 $-1 #
coedge $-1 $180 $181 $107 $150 reversed $182 $-1 #
edge $-1 $183 -32.080454566134129 $184 32.080454566134129 $149 $185 forward 7 unknown #
coedge $-1 $109 $108 $180 $186 reversed $33 $-1 #
coedge $-1 $112 $146 $108 $153 forward $105 $-1 #
edge $-1 $187 -47.484359263893552 $156 43.282373302655969 $108 $188 forward 7 unknown #
edge $-1 $155 -43.282373302655969 $183 47.484359263893552 $109 $189 forward 7 unknown #
vertex $-1 $154 $190 #
vertex $-1 $113 $191 #
straight-curve $-1 -43.282373302655969 -32.080454566134129 0 0 0 -1 I I #
straight-curve $-1 -43.282373302655969 -38.202516426381337 -9.8772201890896554 0 -1 0 I I #
straight-curve $-1 -43.282373302655969 -38.202516426381337 9.8772201890896554 0 1 0 I I #
point $-1 -43.282373302655969 -44.324578286628544 9.8772201890896554 #
point $-1 -43.282373302655969 -44.324578286628544 -9.8772201890896554 #
coedge $-1 $146 $119 $192 $193 forward $105 $-1 #
coedge $-1 $178 $192 $123 $164 reversed $174 $-1 #
edge $-1 $165 -9.8772201890896554 $167 9.8772201890896554 $163 $194 forward 7 unknown #
vertex $-1 $179 $195 #
straight-curve $-1 -47.484359263893552 0 9.8772201890896554 0 -1 0 I I #
vertex $-1 $193 $196 #
straight-curve $-1 -47.484359263893552 0 -9.8772201890896554 0 1 0 I I #
straight-curve $-1 -47.484359263893552 32.080454566134129 0 0 0 -1 I I #
point $-1 -47.484359263893552 -32.080454566134129 -9.8772201890896554 #
straight-curve $-1 -47.484359263893552 0 -9.8772201890896554 0 1 0 I I #
point $-1 -47.484359263893552 32.080454566134129 -9.8772201890896554 #
face $-1 $-1 $182 $7 $-1 $197 reversed single #
loop $-1 $-1 $198 $144 #
plane-surface $-1 0 32.080454566134129 0 0 -1 0 0 0 -1 forward_v I I I I #
coedge $-1 $181 $180 $146 $177 reversed $182 $-1 #
edge $-1 $199 -32.080454566134129 $187 32.080454566134129 $176 $200 forward 7 unknown #
coedge $-1 $198 $163 $147 $179 reversed $174 $-1 #
edge $-1 $184 -47.484359263893552 $165 47.484359263893552 $178 $201 forward 7 unknown #
coedge $-1 $176 $149 $151 $186 forward $182 $-1 #
coedge $-1 $149 $176 $198 $202 reversed $182 $-1 #
loop $-1 $-1 $180 $173 #
vertex $-1 $150 $203 #
vertex $-1 $150 $204 #
straight-curve $-1 47.484359263893552 0 9.8772201890896554 0 1 0 I I #
edge $-1 $183 -9.8772201890896554 $187 9.8772201890896554 $180 $205 forward 7 unknown #
vertex $-1 $186 $206 #
straight-curve $-1 0 -32.080454566134129 -9.8772201890896554 -1 0 0 I I #
straight-curve $-1 0 -32.080454566134129 9.8772201890896554 1 0 0 I I #
point $-1 -43.282373302655969 -32.080454566134129 9.8772201890896554 #
point $-1 -43.282373302655969 -32.080454566134129 -9.8772201890896554 #
coedge $-1 $163 $198 $162 $193 reversed $174 $-1 #
edge $-1 $167 -47.484359263893552 $199 47.484359263893552 $192 $207 forward 7 unknown #
straight-curve $-1 -47.484359263893552 32.080454566134129 0 0 0 -1 I I #
point $-1 -47.484359263893552 32.080454566134129 9.8772201890896554 #
point $-1 -47.484359263893552 32.080454566134129 -9.8772201890896554 #
plane-surface $-1 47.484359263893552 0 0 -1 0 0 0 0 1 forward_v I I I I #
coedge $-1 $192 $178 $181 $202 forward $174 $-1 #
vertex $-1 $177 $208 #
straight-curve $-1 47.484359263893552 0 -9.8772201890896554 0 -1 0 I I #
straight-curve $-1 0 32.080454566134129 9.8772201890896554 -1 0 0 I I #
edge $-1 $184 -9.8772201890896554 $199 9.8772201890896554 $181 $209 forward 7 unknown #
point $-1 47.484359263893552 -32.080454566134129 9.8772201890896554 #
point $-1 47.484359263893552 32.080454566134129 9.8772201890896554 #
straight-curve $-1 47.484359263893552 -32.080454566134129 0 0 0 -1 I I #
point $-1 47.484359263893552 -32.080454566134129 -9.8772201890896554 #
straight-curve $-1 0 32.080454566134129 -9.8772201890896554 1 0 0 I I #
point $-1 47.484359263893552 32.080454566134129 -9.8772201890896554 #
straight-curve $-1 47.484359263893552 32.080454566134129 0 0 0 -1 I I #
End-of-ACIS-data 