500 0 7 0           
7 Unknown 11 ACIS 5.0 NT 24 Fri Mar 26 15:50:02 1999 
-1 9.9999999999999995e-007 1e-010 
body $-1 $7 $-1 $8 #
body $-1 $9 $-1 $10 #
body $-1 $11 $-1 $12 #
body $-1 $13 $-1 $14 #
body $-1 $15 $-1 $16 #
body $-1 $17 $-1 $18 #
body $-1 $19 $-1 $20 #
lump $-1 $-1 $21 $0 #
transform $-1 1 0 0 0 1 0 0 0 1 58.425855281228067 37.298080330430018 17.433013699044825 1 rotate no_reflect no_shear #
lump $-1 $-1 $22 $1 #
transform $-1 1 0 0 0 1 0 0 0 1 58.425855281228067 37.298080330430018 17.433013699044825 1 rotate no_reflect no_shear #
lump $-1 $-1 $23 $2 #
transform $-1 1 0 0 0 1 0 0 0 1 58.425855281228067 37.298080330430018 17.433013699044825 1 rotate no_reflect no_shear #
lump $-1 $-1 $24 $3 #
transform $-1 1 0 0 0 1 0 0 0 1 58.425855281228067 37.298080330430018 17.433013699044825 1 rotate no_reflect no_shear #
lump $-1 $-1 $25 $4 #
transform $-1 1 0 0 0 1 0 0 0 1 58.425855281228067 37.298080330430018 17.433013699044825 1 rotate no_reflect no_shear #
lump $-1 $-1 $26 $5 #
transform $-1 1 0 0 0 1 0 0 0 1 58.425855281228067 37.298080330430018 17.433013699044825 1 rotate no_reflect no_shear #
lump $-1 $-1 $27 $6 #
transform $-1 1 0 0 0 1 0 0 0 1 58.425855281228067 37.298080330430018 17.433013699044825 1 rotate no_reflect no_shear #
shell $-1 $-1 $-1 $28 $-1 $7 #
shell $-1 $-1 $-1 $29 $-1 $9 #
shell $-1 $-1 $-1 $30 $-1 $11 #
shell $-1 $-1 $-1 $31 $-1 $13 #
shell $-1 $-1 $-1 $32 $-1 $15 #
shell $-1 $-1 $-1 $33 $-1 $17 #
shell $-1 $-1 $-1 $34 $-1 $19 #
face $-1 $35 $36 $21 $-1 $37 forward single #
face $-1 $38 $39 $22 $-1 $40 reversed single #
face $-1 $41 $42 $23 $-1 $43 reversed single #
face $-1 $44 $45 $24 $-1 $46 forward single #
face $-1 $47 $48 $25 $-1 $49 forward single #
face $-1 $50 $51 $26 $-1 $52 reversed single #
face $-1 $53 $54 $27 $-1 $55 forward single #
face $-1 $56 $57 $21 $-1 $58 reversed single #
loop $-1 $-1 $59 $28 #
plane-surface $-1 0 0 17.433013699044825 0 0 1 1 0 0 forward_v I I I I #
face $-1 $60 $61 $22 $-1 $62 reversed single #
loop $-1 $-1 $63 $29 #
plane-surface $-1 -52.017909963806467 0 11.106436987694329 0 0 1 1 0 0 forward_v I I I I #
face $-1 $64 $65 $23 $-1 $66 reversed single #
loop $-1 $-1 $67 $30 #
plane-surface $-1 -21.565869650510365 64.810113400741869 150.17007855687433 -1 0 0 0 0.69465837861970381 0.71933979245794832 forward_v I I I I #
face $-1 $68 $69 $24 $-1 $70 forward single #
loop $-1 $71 $72 $31 #
cone-surface $-1 -38.740223218992149 35.326072262648722 15.504409611589917 0 -0.69465837861970381 -0.71933979245794832 0.5 0 0 1 I I 0 1 0.5 forward I I I I #
face $-1 $73 $74 $25 $-1 $75 forward single #
loop $-1 $76 $77 $32 #
cone-surface $-1 -28.435611077903076 35.326072262648722 15.504409611589917 0 -0.69465837861970381 -0.71933979245794832 0.5 0 0 1 I I 0 1 0.5 forward I I I I #
face $-1 $78 $79 $26 $-1 $80 reversed single #
loop $-1 $-1 $81 $33 #
plane-surface $-1 -3.3322547979988677 -116.99075625200706 94.220518862417904 -1 0 0 0 -0.68199836817093118 0.7313536940579346 forward_v I I I I #
face $-1 $82 $83 $27 $-1 $84 forward single #
loop $-1 $85 $86 $34 #
cone-surface $-1 -17.626345288587267 -31.134576795777924 11.473787243657089 0 0.68199836817093118 -0.7313536940579346 1.5 0 0 1 I I 0 1 1.5 forward I I I I #
face $-1 $87 $88 $21 $-1 $89 reversed single #
loop $-1 $-1 $90 $35 #
plane-surface $-1 0 0 -17.433013699044825 0 0 1 1 0 0 forward_v I I I I #
coedge $-1 $91 $92 $93 $94 forward $36 $-1 #
face $-1 $95 $96 $22 $-1 $97 reversed single #
loop $-1 $-1 $98 $38 #
plane-surface $-1 -45.609964646384867 0 14.269725343369576 -1 0 0 0 0 1 forward_v I I I I #
coedge $-1 $99 $100 $101 $102 forward $39 $-1 #
face $-1 $103 $104 $23 $-1 $105 forward single #
loop $-1 $-1 $106 $41 #
plane-surface $-1 -33.587917148447616 -16.361906397512811 66.113993332520891 0 0.69465837861970381 0.71933979245794832 1 0 0 forward_v I I I I #
coedge $-1 $107 $108 $109 $110 reversed $42 $-1 #
face $-1 $-1 $111 $24 $-1 $112 forward single #
loop $-1 $113 $114 $44 #
cone-surface $-1 -38.740223218992149 34.805078478683946 14.964904767246455 0 -0.69465837861970381 -0.71933979245794832 0.25 0 0 1 I I -0.70710678118654746 0.70710678118654746 0.25 forward I I I I #
loop $-1 $-1 $115 $31 #
coedge $-1 $72 $72 $116 $117 reversed $45 $-1 #
face $-1 $-1 $118 $25 $-1 $119 forward single #
loop $-1 $120 $121 $47 #
cone-surface $-1 -28.435611077903076 34.805078478683946 14.964904767246455 0 -0.69465837861970381 -0.71933979245794832 0.25 0 0 1 I I -0.70710678118654746 0.70710678118654746 0.25 forward I I I I #
loop $-1 $-1 $122 $32 #
coedge $-1 $77 $77 $123 $124 reversed $48 $-1 #
face $-1 $125 $126 $26 $-1 $127 reversed single #
loop $-1 $-1 $128 $50 #
plane-surface $-1 -17.62634528858726 -37.298080330430011 8.7605886855770336 0 -0.68199836817093118 0.7313536940579346 1 0 0 forward_v I I I I #
coedge $-1 $129 $130 $131 $132 reversed $51 $-1 #
face $-1 $-1 $133 $27 $-1 $134 forward single #
loop $-1 $135 $136 $53 #
cone-surface $-1 -17.626345288587267 -29.109592993876554 9.3022580244597997 0 0.68199836817093118 -0.7313536940579346 0.75 0 0 1 I I -0.70710678118654757 0.70710678118654757 0.75 forward I I I I #
loop $-1 $-1 $137 $34 #
coedge $-1 $86 $86 $138 $139 reversed $54 $-1 #
face $-1 $140 $141 $21 $-1 $142 reversed single #
loop $-1 $-1 $143 $56 #
plane-surface $-1 0 -37.298080330430018 0 0 1 0 0 0 1 forward_v I I I I #
coedge $-1 $144 $145 $146 $147 forward $57 $-1 #
coedge $-1 $148 $59 $149 $150 forward $36 $-1 #
coedge $-1 $59 $148 $151 $152 forward $36 $-1 #
coedge $-1 $153 $154 $59 $94 reversed $155 $-1 #
edge $-1 $156 -37.298080330430018 $157 37.298080330430018 $93 $158 forward 7 unknown #
face $-1 $159 $160 $22 $-1 $161 reversed single #
loop $-1 $-1 $162 $60 #
plane-surface $-1 0 37.298080330430018 0 0 -1 0 0 0 -1 forward_v I I I I #
coedge $-1 $163 $164 $165 $166 reversed $61 $-1 #
coedge $-1 $167 $63 $168 $169 reversed $39 $-1 #
coedge $-1 $63 $167 $170 $171 reversed $39 $-1 #
coedge $-1 $164 $163 $63 $102 reversed $61 $-1 #
edge $-1 $172 -37.298080330430018 $173 37.298080330430018 $101 $174 forward 7 unknown #
face $-1 $175 $176 $23 $-1 $177 forward single #
loop $-1 $-1 $178 $64 #
plane-surface $-1 -45.609964646384867 0 14.269725343369576 -1 0 0 0 0 1 forward_v I I I I #
coedge $-1 $179 $180 $181 $182 reversed $65 $-1 #
coedge $-1 $108 $67 $183 $184 reversed $42 $-1 #
coedge $-1 $67 $107 $179 $185 reversed $42 $-1 #
coedge $-1 $181 $186 $67 $110 forward $187 $-1 #
edge $-1 $188 57.652025579392344 $189 60.789893961844243 $109 $190 forward 7 unknown #
loop $-1 $-1 $116 $68 #
plane-surface $-1 -33.587917148447616 -16.361906397512811 66.113993332520891 0 0.69465837861970381 0.71933979245794832 1 0 0 forward_v I I I I #
loop $-1 $-1 $191 $44 #
coedge $-1 $114 $114 $115 $192 reversed $69 $-1 #
coedge $-1 $115 $115 $114 $192 forward $71 $-1 #
coedge $-1 $116 $116 $72 $117 forward $111 $-1 #
edge $-1 $193 5.6373326200733348e-015 $193 6.2831853071796058 $116 $194 forward 7 unknown #
loop $-1 $-1 $123 $73 #
plane-surface $-1 -33.587917148447616 -16.361906397512811 66.113993332520891 0 0.69465837861970381 0.71933979245794832 1 0 0 forward_v I I I I #
loop $-1 $-1 $195 $47 #
coedge $-1 $121 $121 $122 $196 reversed $74 $-1 #
coedge $-1 $122 $122 $121 $196 forward $76 $-1 #
coedge $-1 $123 $123 $77 $124 forward $118 $-1 #
edge $-1 $197 5.6373326200733348e-015 $197 6.2831853071796058 $123 $198 forward 7 unknown #
face $-1 $199 $200 $26 $-1 $201 reversed single #
loop $-1 $-1 $202 $78 #
plane-surface $-1 -31.920435779175651 -116.99075625200706 94.220518862417904 1 0 0 0 0.68199836817093118 -0.7313536940579346 forward_v I I I I #
coedge $-1 $203 $204 $205 $206 reversed $79 $-1 #
coedge $-1 $130 $81 $207 $208 reversed $51 $-1 #
coedge $-1 $81 $129 $203 $209 reversed $51 $-1 #
coedge $-1 $205 $210 $81 $132 forward $211 $-1 #
edge $-1 $212 21.197297795573512 $213 30.497334813331364 $131 $214 forward 7 unknown #
loop $-1 $-1 $138 $82 #
plane-surface $-1 -17.62634528858726 -37.298080330430011 8.7605886855770336 0 -0.68199836817093118 0.7313536940579346 1 0 0 forward_v I I I I #
loop $-1 $-1 $215 $53 #
coedge $-1 $136 $136 $137 $216 reversed $83 $-1 #
coedge $-1 $137 $137 $136 $216 forward $85 $-1 #
coedge $-1 $138 $138 $86 $139 forward $133 $-1 #
edge $-1 $217 8.0764831050682916e-016 $217 6.2831853071796013 $138 $218 forward 7 unknown #
face $-1 $219 $220 $21 $-1 $221 reversed single #
loop $-1 $-1 $222 $87 #
plane-surface $-1 -58.425855281228067 0 0 1 0 0 0 0 -1 forward_v I I I I #
coedge $-1 $223 $151 $224 $225 forward $88 $-1 #
coedge $-1 $226 $90 $223 $227 forward $57 $-1 #
coedge $-1 $90 $226 $228 $229 forward $57 $-1 #
coedge $-1 $154 $153 $90 $147 reversed $155 $-1 #
edge $-1 $230 -37.298080330430018 $231 37.298080330430018 $146 $232 forward 7 unknown #
coedge $-1 $92 $91 $233 $234 forward $36 $-1 #
coedge $-1 $235 $236 $91 $150 reversed $220 $-1 #
edge $-1 $157 -58.425855281228067 $237 58.425855281228067 $149 $238 forward 7 unknown #
coedge $-1 $143 $239 $92 $152 reversed $88 $-1 #
edge $-1 $240 -58.425855281228067 $156 58.425855281228067 $151 $241 forward 7 unknown #
coedge $-1 $146 $93 $239 $242 forward $155 $-1 #
coedge $-1 $93 $146 $235 $243 reversed $155 $-1 #
loop $-1 $-1 $153 $219 #
vertex $-1 $94 $244 #
vertex $-1 $94 $245 #
straight-curve $-1 58.425855281228067 0 17.433013699044825 0 1 0 I I #
face $-1 $246 $247 $22 $-1 $248 forward single #
loop $-1 $-1 $249 $95 #
plane-surface $-1 -58.425855281228067 0 0 1 0 0 0 0 -1 forward_v I I I I #
coedge $-1 $170 $250 $164 $251 forward $96 $-1 #
coedge $-1 $101 $98 $252 $253 reversed $61 $-1 #
coedge $-1 $98 $101 $162 $251 reversed $61 $-1 #
coedge $-1 $254 $255 $98 $166 forward $247 $-1 #
edge $-1 $256 -37.298080330430018 $257 37.298080330430018 $165 $258 forward 7 unknown #
coedge $-1 $100 $99 $249 $259 reversed $39 $-1 #
coedge $-1 $252 $260 $99 $169 forward $261 $-1 #
edge $-1 $262 -32.416900299324837 $173 -19.601009664481634 $168 $263 forward 7 unknown #
coedge $-1 $264 $162 $100 $171 forward $96 $-1 #
edge $-1 $172 19.601009664481634 $265 32.416900299324837 $170 $266 forward 7 unknown #
vertex $-1 $171 $267 #
vertex $-1 $169 $268 #
straight-curve $-1 -45.609964646384867 0 11.106436987694329 0 -1 0 I I #
face $-1 $-1 $187 $23 $-1 $269 reversed single #
loop $-1 $-1 $270 $103 #
plane-surface $-1 0 0 17.433013699044825 0 0 1 1 0 0 forward_v I I I I #
coedge $-1 $271 $272 $180 $273 forward $104 $-1 #
coedge $-1 $274 $106 $108 $185 forward $65 $-1 #
coedge $-1 $106 $274 $178 $273 reversed $65 $-1 #
coedge $-1 $275 $109 $106 $182 forward $187 $-1 #
edge $-1 $189 4.7719110762865569 $276 28.816006072161059 $181 $277 forward 7 unknown #
coedge $-1 $278 $270 $107 $184 forward $176 $-1 #
edge $-1 $279 1.6436658731161913 $188 4.8930236300590835 $183 $280 forward 7 unknown #
edge $-1 $189 -74.596160660860036 $279 -70.079021763483041 $108 $281 forward 7 unknown #
coedge $-1 $109 $275 $278 $282 reversed $187 $-1 #
loop $-1 $-1 $181 $175 #
vertex $-1 $282 $283 #
vertex $-1 $110 $284 #
straight-curve $-1 -21.565869650510365 37.298080330430018 75.085039278437165 0 0 -1 I I #
coedge $-1 $191 $191 $-1 $285 reversed $113 $-1 #
edge $-1 $286 0 $286 6.2831853071796004 $114 $287 forward 7 unknown #
vertex $-1 $117 $288 #
ellipse-curve $-1 -38.740223218992149 35.673401451958561 15.864079507818881 0 0.69465837861970381 0.71933979245794832 0.5 0 0 1 I I #
coedge $-1 $195 $195 $-1 $289 reversed $120 $-1 #
edge $-1 $290 0 $290 6.2831853071796004 $121 $291 forward 7 unknown #
vertex $-1 $124 $292 #
ellipse-curve $-1 -28.435611077903076 35.673401451958561 15.864079507818881 0 0.69465837861970381 0.71933979245794832 0.5 0 0 1 I I #
face $-1 $-1 $211 $26 $-1 $293 forward single #
loop $-1 $-1 $294 $125 #
plane-surface $-1 0 -37.298080330430018 0 0 1 0 0 0 1 forward_v I I I I #
coedge $-1 $295 $296 $297 $298 reversed $126 $-1 #
coedge $-1 $299 $128 $130 $209 forward $79 $-1 #
coedge $-1 $128 $299 $295 $300 forward $79 $-1 #
coedge $-1 $297 $131 $128 $206 forward $211 $-1 #
edge $-1 $213 -5.4809178462947621 $301 23.107263134882022 $205 $302 forward 7 unknown #
coedge $-1 $303 $304 $129 $208 forward $200 $-1 #
edge $-1 $305 -38.349670745631926 $212 -29.677245732164128 $207 $306 forward 7 unknown #
edge $-1 $213 -12.716196135082537 $305 1.0042470408882777e-014 $130 $307 forward 7 unknown #
coedge $-1 $131 $297 $303 $308 forward $211 $-1 #
loop $-1 $-1 $297 $199 #
vertex $-1 $208 $309 #
vertex $-1 $132 $310 #
straight-curve $-1 -3.3322547979988677 -58.49537812600353 17.433013699044821 0 1 0 I I #
coedge $-1 $215 $215 $-1 $311 reversed $135 $-1 #
edge $-1 $312 0 $312 6.2831853071796004 $136 $313 forward 7 unknown #
vertex $-1 $139 $314 #
ellipse-curve $-1 -17.626345288587267 -32.648061821551096 13.096801192310926 0 -0.68199836817093118 0.7313536940579346 1.5 0 0 1 I I #
face $-1 $-1 $155 $21 $-1 $315 reversed single #
loop $-1 $-1 $235 $140 #
plane-surface $-1 0 37.298080330430018 0 0 -1 0 0 0 -1 forward_v I I I I #
coedge $-1 $316 $233 $236 $317 forward $141 $-1 #
coedge $-1 $239 $143 $144 $227 reversed $88 $-1 #
coedge $-1 $233 $316 $143 $225 reversed $141 $-1 #
edge $-1 $240 -17.433013699044825 $318 17.433013699044825 $224 $319 forward 7 unknown #
coedge $-1 $145 $144 $316 $320 forward $57 $-1 #
edge $-1 $231 -58.425855281228067 $318 58.425855281228067 $223 $321 forward 7 unknown #
coedge $-1 $236 $235 $145 $229 reversed $220 $-1 #
edge $-1 $322 -58.425855281228067 $230 58.425855281228067 $228 $323 forward 7 unknown #
vertex $-1 $147 $324 #
vertex $-1 $242 $325 #
straight-curve $-1 58.425855281228067 0 -17.433013699044825 0 -1 0 I I #
coedge $-1 $222 $224 $148 $234 reversed $141 $-1 #
edge $-1 $237 -37.298080330430018 $240 37.298080330430018 $233 $326 forward 7 unknown #
coedge $-1 $228 $149 $154 $243 forward $220 $-1 #
coedge $-1 $149 $228 $222 $317 reversed $220 $-1 #
vertex $-1 $150 $327 #
straight-curve $-1 0 37.298080330430018 17.433013699044825 -1 0 0 I I #
coedge $-1 $151 $223 $153 $242 reversed $88 $-1 #
vertex $-1 $234 $328 #
straight-curve $-1 0 -37.298080330430018 17.433013699044825 1 0 0 I I #
edge $-1 $156 -17.433013699044825 $231 17.433013699044825 $153 $329 forward 7 unknown #
edge $-1 $157 -17.433013699044825 $230 17.433013699044825 $154 $330 forward 7 unknown #
point $-1 58.425855281228067 -37.298080330430018 17.433013699044825 #
point $-1 58.425855281228067 37.298080330430018 17.433013699044825 #
face $-1 $-1 $261 $22 $-1 $331 reversed single #
loop $-1 $-1 $165 $159 #
plane-surface $-1 0 0 17.433013699044825 0 0 1 1 0 0 forward_v I I I I #
coedge $-1 $332 $333 $167 $259 forward $160 $-1 #
coedge $-1 $162 $264 $254 $334 reversed $96 $-1 #
edge $-1 $257 -10.298151027360033 $172 -3.9715743160095407 $162 $335 forward 7 unknown #
coedge $-1 $336 $168 $163 $253 forward $261 $-1 #
edge $-1 $173 3.9715743160095407 $256 10.298151027360033 $252 $337 forward 7 unknown #
coedge $-1 $338 $165 $250 $334 forward $247 $-1 #
coedge $-1 $165 $338 $336 $339 forward $247 $-1 #
vertex $-1 $253 $340 #
vertex $-1 $334 $341 #
straight-curve $-1 -45.609964646384867 0 17.433013699044825 0 1 0 I I #
edge $-1 $265 -37.298080330430018 $262 37.298080330430018 $249 $342 forward 7 unknown #
coedge $-1 $168 $336 $332 $343 forward $261 $-1 #
loop $-1 $-1 $252 $246 #
vertex $-1 $259 $344 #
straight-curve $-1 -26.008954981903234 -37.298080330430018 11.106436987694329 1 0 0 I I #
coedge $-1 $250 $170 $333 $345 reversed $96 $-1 #
vertex $-1 $259 $346 #
straight-curve $-1 -26.008954981903234 37.298080330430018 11.106436987694329 -1 0 0 I I #
point $-1 -45.609964646384867 37.298080330430018 11.106436987694329 #
point $-1 -45.609964646384867 -37.298080330430018 11.106436987694329 #
plane-surface $-1 0 37.298080330430018 0 0 -1 0 0 0 -1 forward_v I I I I #
coedge $-1 $183 $347 $274 $348 forward $176 $-1 #
coedge $-1 $272 $178 $347 $349 reversed $104 $-1 #
coedge $-1 $178 $271 $275 $350 reversed $104 $-1 #
edge $-1 $276 -50.704247913723776 $351 -46.187109016346788 $178 $352 forward 7 unknown #
coedge $-1 $180 $179 $270 $348 reversed $65 $-1 #
coedge $-1 $186 $181 $272 $350 forward $187 $-1 #
vertex $-1 $350 $353 #
straight-curve $-1 -16.793958574223808 37.298080330430011 14.295145316592926 -1 0 0 I I #
coedge $-1 $347 $183 $186 $282 forward $176 $-1 #
vertex $-1 $184 $354 #
straight-curve $-1 -21.565869650510365 32.405056700370935 17.433013699044821 0 1 0 I I #
straight-curve $-1 -21.565869650510365 -16.361906397512811 66.113993332520891 0 -0.71933979245794832 0.69465837861970381 I I #
edge $-1 $188 21.565869650510365 $355 45.609964646384867 $186 $356 forward 7 unknown #
point $-1 -21.565869650510365 37.298080330430018 17.433013699044825 #
point $-1 -21.565869650510365 37.298080330430018 14.295145316592922 #
edge $-1 $357 1 $357 0 $191 $-1 forward 7 unknown #
vertex $-1 $192 $358 #
ellipse-curve $-1 -38.740223218992149 34.978743073338869 15.144739715360943 0 0.69465837861970381 0.71933979245794832 0.5 0 0 1 I I #
point $-1 -38.240223218992149 35.673401451958576 15.864079507818891 #
edge $-1 $359 1 $359 0 $195 $-1 forward 7 unknown #
vertex $-1 $196 $360 #
ellipse-curve $-1 -28.435611077903076 34.978743073338869 15.144739715360943 0 0.69465837861970381 0.71933979245794832 0.5 0 0 1 I I #
point $-1 -27.935611077903076 35.673401451958576 15.864079507818891 #
plane-surface $-1 0 0 17.433013699044825 0 0 1 1 0 0 forward_v I I I I #
coedge $-1 $304 $303 $296 $361 forward $200 $-1 #
coedge $-1 $296 $202 $204 $300 reversed $126 $-1 #
coedge $-1 $202 $295 $294 $361 reversed $126 $-1 #
coedge $-1 $210 $205 $202 $298 forward $211 $-1 #
edge $-1 $301 -30.497334813331364 $362 -21.197297795573512 $297 $363 forward 7 unknown #
coedge $-1 $204 $203 $304 $364 reversed $79 $-1 #
edge $-1 $365 -1.0042470408882777e-014 $301 12.716196135082537 $295 $366 forward 7 unknown #
vertex $-1 $206 $367 #
straight-curve $-1 -8.8131726442936298 -27.998043312672166 17.433013699044825 -1 0 0 I I #
coedge $-1 $294 $207 $210 $308 reversed $200 $-1 #
coedge $-1 $207 $294 $299 $364 forward $200 $-1 #
vertex $-1 $208 $368 #
straight-curve $-1 -3.3322547979988677 -37.298080330430018 47.110259431208952 0 0 1 I I #
straight-curve $-1 -3.3322547979988677 -37.298080330430011 8.7605886855770336 0 -0.7313536940579346 -0.68199836817093118 I I #
edge $-1 $362 -31.920435779175651 $212 -3.3322547979988677 $303 $369 forward 7 unknown #
point $-1 -3.3322547979988677 -37.298080330430018 17.433013699044825 #
point $-1 -3.3322547979988677 -27.998043312672166 17.433013699044825 #
edge $-1 $370 1 $370 0 $215 $-1 forward 7 unknown #
vertex $-1 $216 $371 #
ellipse-curve $-1 -17.626345288587267 -29.621091770004753 9.8507732950032505 0 -0.68199836817093118 0.7313536940579346 1.5 0 0 1 I I #
point $-1 -16.126345288587267 -32.648061821551096 13.096801192310927 #
plane-surface $-1 58.425855281228067 0 0 -1 0 0 0 0 1 forward_v I I I I #
coedge $-1 $224 $222 $226 $320 reversed $141 $-1 #
edge $-1 $237 -17.433013699044825 $322 17.433013699044825 $236 $372 forward 7 unknown #
vertex $-1 $320 $373 #
straight-curve $-1 -58.425855281228067 -37.298080330430018 0 0 0 -1 I I #
edge $-1 $318 -37.298080330430018 $322 37.298080330430018 $316 $374 forward 7 unknown #
straight-curve $-1 0 -37.298080330430018 -17.433013699044825 -1 0 0 I I #
vertex $-1 $229 $375 #
straight-curve $-1 0 37.298080330430018 -17.433013699044825 1 0 0 I I #
point $-1 58.425855281228067 37.298080330430018 -17.433013699044825 #
point $-1 58.425855281228067 -37.298080330430018 -17.433013699044825 #
straight-curve $-1 -58.425855281228067 0 17.433013699044825 0 -1 0 I I #
point $-1 -58.425855281228067 37.298080330430018 17.433013699044825 #
point $-1 -58.425855281228067 -37.298080330430018 17.433013699044825 #
straight-curve $-1 58.425855281228067 -37.298080330430018 0 0 0 -1 I I #
straight-curve $-1 58.425855281228067 37.298080330430018 0 0 0 -1 I I #
plane-surface $-1 0 -37.298080330430018 0 0 1 0 0 0 1 forward_v I I I I #
coedge $-1 $376 $249 $260 $343 reversed $160 $-1 #
coedge $-1 $249 $376 $264 $345 forward $160 $-1 #
edge $-1 $257 45.609964646384867 $377 58.425855281228067 $250 $378 forward 7 unknown #
straight-curve $-1 -45.609964646384867 37.298080330430018 7.1348626716847878 0 0 -1 I I #
coedge $-1 $260 $252 $255 $339 reversed $261 $-1 #
straight-curve $-1 -45.609964646384867 -37.298080330430018 7.1348626716847878 0 0 1 I I #
coedge $-1 $255 $254 $376 $379 forward $247 $-1 #
edge $-1 $380 -58.425855281228067 $256 -45.609964646384867 $336 $381 forward 7 unknown #
point $-1 -45.609964646384867 -37.298080330430018 17.433013699044821 #
point $-1 -45.609964646384867 37.298080330430018 17.433013699044821 #
straight-curve $-1 -58.425855281228067 0 11.106436987694329 0 -1 0 I I #
edge $-1 $380 -17.433013699044825 $262 -11.106436987694329 $332 $382 forward 7 unknown #
point $-1 -58.425855281228067 -37.298080330430018 11.106436987694329 #
edge $-1 $377 -17.433013699044825 $265 -11.106436987694329 $264 $383 forward 7 unknown #
point $-1 -58.425855281228067 37.298080330430018 11.106436987694329 #
coedge $-1 $270 $278 $271 $349 forward $176 $-1 #
edge $-1 $351 -28.816006072161059 $279 -4.7719110762865569 $270 $384 forward 7 unknown #
edge $-1 $355 -37.298080330430018 $351 -34.048722573487133 $347 $385 forward 7 unknown #
edge $-1 $276 7.1602826449081363 $355 10.298151027360033 $275 $386 forward 7 unknown #
vertex $-1 $273 $387 #
straight-curve $-1 -45.609964646384867 0.82449715943559276 49.517275961471782 0 -0.71933979245794832 0.69465837861970381 I I #
point $-1 -45.609964646384867 37.298080330430018 14.295145316592924 #
point $-1 -21.565869650510365 34.048722573487126 17.433013699044828 #
vertex $-1 $349 $388 #
straight-curve $-1 0 37.298080330430018 17.433013699044825 -1 0 0 I I #
vertex $-1 $285 $389 #
point $-1 -38.240223218992149 34.978743073338869 15.144739715360943 #
vertex $-1 $289 $390 #
point $-1 -27.935611077903076 34.978743073338869 15.144739715360943 #
edge $-1 $362 29.677245732164128 $365 38.349670745631926 $294 $391 forward 7 unknown #
vertex $-1 $308 $392 #
straight-curve $-1 -31.920435779175651 -58.49537812600353 17.433013699044821 0 -1 0 I I #
edge $-1 $365 -23.107263134882022 $305 5.4809178462947621 $304 $393 forward 7 unknown #
vertex $-1 $364 $394 #
straight-curve $-1 -31.920435779175651 -37.298080330430011 8.7605886855770336 0 0.7313536940579346 0.68199836817093118 I I #
point $-1 -31.920435779175651 -27.998043312672166 17.433013699044825 #
point $-1 -3.3322547979988677 -37.298080330430018 8.7605886855770265 #
straight-curve $-1 0 -37.298080330430018 17.433013699044825 1 0 0 I I #
vertex $-1 $311 $395 #
point $-1 -16.126345288587267 -29.621091770004753 9.8507732950032505 #
straight-curve $-1 -58.425855281228067 37.298080330430018 0 0 0 -1 I I #
point $-1 -58.425855281228067 -37.298080330430018 -17.433013699044825 #
straight-curve $-1 -58.425855281228067 0 -17.433013699044825 0 1 0 I I #
point $-1 -58.425855281228067 37.298080330430018 -17.433013699044825 #
coedge $-1 $333 $332 $338 $379 reversed $160 $-1 #
vertex $-1 $334 $396 #
straight-curve $-1 0 37.298080330430018 17.433013699044825 -1 0 0 I I #
edge $-1 $377 -37.298080330430018 $380 37.298080330430018 $376 $397 forward 7 unknown #
vertex $-1 $379 $398 #
straight-curve $-1 0 -37.298080330430018 17.433013699044825 1 0 0 I I #
straight-curve $-1 -58.425855281228067 -37.298080330430018 0 0 0 -1 I I #
straight-curve $-1 -58.425855281228067 37.298080330430018 0 0 0 -1 I I #
straight-curve $-1 -16.793958574223808 34.048722573487133 17.433013699044821 1 0 0 I I #
straight-curve $-1 -45.609964646384867 0 17.433013699044825 0 -1 0 I I #
straight-curve $-1 -45.609964646384867 37.298080330430018 7.1348626716847878 0 0 1 I I #
point $-1 -45.609964646384867 34.048722573487133 17.433013699044825 #
point $-1 -45.609964646384867 37.298080330430018 17.433013699044821 #
point $-1 -38.740223218992149 34.631413884029023 14.785069819131968 #
point $-1 -28.435611077903076 34.631413884029023 14.785069819131968 #
straight-curve $-1 -31.920435779175651 -37.298080330430018 47.110259431208952 0 0 -1 I I #
point $-1 -31.920435779175651 -37.298080330430018 17.433013699044825 #
straight-curve $-1 -8.8131726442936298 -37.298080330430018 8.760588685577023 1 0 0 I I #
point $-1 -31.920435779175651 -37.298080330430018 8.7605886855770265 #
point $-1 -17.626345288587267 -28.598094217748354 8.7537427539163488 #
point $-1 -58.425855281228067 37.298080330430018 17.433013699044825 #
straight-curve $-1 -58.425855281228067 0 17.433013699044825 0 -1 0 I I #
point $-1 -58.425855281228067 -37.298080330430018 17.433013699044825 #
End-of-ACIS-data 