500 0 9 0           
7 Unknown 11 ACIS 5.0 NT 24 Thu Mar 25 18:37:28 1999 
-1 9.9999999999999995e-007 1e-010 
body $-1 $9 $-1 $10 #
body $-1 $11 $-1 $12 #
body $-1 $13 $-1 $14 #
body $-1 $15 $-1 $16 #
body $-1 $17 $-1 $18 #
body $-1 $19 $-1 $20 #
body $-1 $21 $-1 $22 #
body $-1 $23 $-1 $24 #
body $-1 $25 $-1 $26 #
lump $-1 $-1 $27 $0 #
transform $-1 1 0 0 0 1 0 0 0 1 51.980346079897458 32.117816180999782 14.653024617847285 1 rotate no_reflect no_shear #
lump $-1 $-1 $28 $1 #
transform $-1 1 0 0 0 1 0 0 0 1 51.980346079897458 32.117816180999782 14.653024617847285 1 rotate no_reflect no_shear #
lump $-1 $-1 $29 $2 #
transform $-1 1 0 0 0 1 0 0 0 1 51.980346079897458 32.117816180999782 14.653024617847285 1 rotate no_reflect no_shear #
lump $-1 $-1 $30 $3 #
transform $-1 1 0 0 0 1 0 0 0 1 51.980346079897458 32.117816180999782 14.653024617847285 1 rotate no_reflect no_shear #
lump $-1 $-1 $31 $4 #
transform $-1 1 0 0 0 1 0 0 0 1 51.980346079897458 32.117816180999782 14.653024617847285 1 rotate no_reflect no_shear #
lump $-1 $-1 $32 $5 #
transform $-1 1 0 0 0 1 0 0 0 1 51.980346079897458 32.117816180999782 14.653024617847285 1 rotate no_reflect no_shear #
lump $-1 $-1 $33 $6 #
transform $-1 1 0 0 0 1 0 0 0 1 51.980346079897458 32.117816180999782 14.653024617847285 1 rotate no_reflect no_shear #
lump $-1 $-1 $34 $7 #
transform $-1 1 0 0 0 1 0 0 0 1 51.980346079897458 32.117816180999782 14.653024617847285 1 rotate no_reflect no_shear #
lump $-1 $-1 $35 $8 #
transform $-1 1 0 0 0 1 0 0 0 1 51.980346079897458 32.117816180999782 14.653024617847285 1 rotate no_reflect no_shear #
shell $-1 $-1 $-1 $36 $-1 $9 #
shell $-1 $-1 $-1 $37 $-1 $11 #
shell $-1 $-1 $-1 $38 $-1 $13 #
shell $-1 $-1 $-1 $39 $-1 $15 #
shell $-1 $-1 $-1 $40 $-1 $17 #
shell $-1 $-1 $-1 $41 $-1 $19 #
shell $-1 $-1 $-1 $42 $-1 $21 #
shell $-1 $-1 $-1 $43 $-1 $23 #
shell $-1 $-1 $-1 $44 $-1 $25 #
face $-1 $45 $46 $27 $-1 $47 forward single #
face $-1 $48 $49 $28 $-1 $50 reversed single #
face $-1 $51 $52 $29 $-1 $53 forward single #
face $-1 $54 $55 $30 $-1 $56 reversed single #
face $-1 $57 $58 $31 $-1 $59 forward single #
face $-1 $60 $61 $32 $-1 $62 reversed single #
face $-1 $63 $64 $33 $-1 $65 forward single #
face $-1 $66 $67 $34 $-1 $68 reversed single #
face $-1 $69 $70 $35 $-1 $71 forward single #
face $-1 $72 $73 $27 $-1 $74 reversed single #
loop $-1 $-1 $75 $36 #
plane-surface $-1 0 0 14.653024617847285 0 0 1 1 0 0 forward_v I I I I #
face $-1 $76 $77 $28 $-1 $78 reversed single #
loop $-1 $-1 $79 $37 #
plane-surface $-1 -121.54362789889662 -24.426772000445723 82.717170974373346 0 1 0 -0.66913061440640931 0 0.74314481823134659 forward_v I I I I #
face $-1 $80 $81 $29 $-1 $82 forward single #
loop $-1 $83 $84 $38 #
cone-surface $-1 -46.32147671179942 -20.242840045472807 9.4413950832542142 0.66913061440640931 0 -0.74314481823134659 0.74314481823134659 0 0.66913061440640931 1 I I 0 1 1 forward I I I I #
face $-1 $85 $86 $30 $-1 $87 reversed single #
loop $-1 $-1 $88 $39 #
plane-surface $-1 -121.54362789889662 -10.931545303463853 82.717170974373346 0 1 0 -0.66913061440640931 0 0.74314481823134659 forward_v I I I I #
face $-1 $89 $90 $31 $-1 $91 forward single #
loop $-1 $92 $93 $40 #
cone-surface $-1 -46.32147671179942 -6.7476133484909369 9.4413950832542142 0.66913061440640931 0 -0.74314481823134659 0.74314481823134659 0 0.66913061440640931 1 I I 0 1 1 forward I I I I #
face $-1 $94 $95 $32 $-1 $96 reversed single #
loop $-1 $-1 $97 $41 #
plane-surface $-1 -121.54362789889662 2.5636813935180136 82.717170974373346 0 1 0 -0.66913061440640931 0 0.74314481823134659 forward_v I I I I #
face $-1 $98 $99 $33 $-1 $100 forward single #
loop $-1 $101 $102 $42 #
cone-surface $-1 -46.32147671179942 6.7476133484909298 9.4413950832542142 0.66913061440640931 0 -0.74314481823134659 0.74314481823134659 0 0.66913061440640931 1 I I 0 1 1 forward I I I I #
face $-1 $103 $104 $34 $-1 $105 reversed single #
loop $-1 $-1 $106 $43 #
plane-surface $-1 -121.54362789889662 16.058908090499887 82.717170974373346 0 1 0 -0.66913061440640931 0 0.74314481823134659 forward_v I I I I #
face $-1 $107 $108 $35 $-1 $109 forward single #
loop $-1 $110 $111 $44 #
cone-surface $-1 -46.32147671179942 20.242840045472803 9.4413950832542142 0.66913061440640931 0 -0.74314481823134659 0.74314481823134659 0 0.66913061440640931 1 I I 0 1 1 forward I I I I #
face $-1 $112 $113 $27 $-1 $114 reversed single #
loop $-1 $-1 $115 $45 #
plane-surface $-1 0 0 -14.653024617847285 0 0 1 1 0 0 forward_v I I I I #
coedge $-1 $116 $117 $118 $119 forward $46 $-1 #
face $-1 $120 $121 $28 $-1 $122 reversed single #
loop $-1 $-1 $123 $48 #
plane-surface $-1 -51.980346079897458 -20.242840045472807 5.4593212960775759 -0.66913061440640931 0 0.74314481823134659 0.74314481823134659 0 0.66913061440640931 forward_v I I I I #
coedge $-1 $124 $125 $126 $127 reversed $49 $-1 #
face $-1 $-1 $128 $29 $-1 $129 forward single #
loop $-1 $130 $131 $51 #
cone-surface $-1 -45.433362908709668 -20.242840045472807 8.4550448004303238 0.66913061440640931 0 -0.74314481823134659 0.3715724091156733 0 0.33456530720320465 1 I I -0.70710678118654746 0.70710678118654746 0.5 forward I I I I #
loop $-1 $-1 $132 $38 #
coedge $-1 $84 $84 $133 $134 reversed $52 $-1 #
face $-1 $135 $136 $30 $-1 $137 reversed single #
loop $-1 $-1 $138 $54 #
plane-surface $-1 -51.980346079897458 -6.7476133484909369 5.4593212960775759 -0.66913061440640931 0 0.74314481823134659 0.74314481823134659 0 0.66913061440640931 forward_v I I I I #
coedge $-1 $139 $140 $141 $142 reversed $55 $-1 #
face $-1 $-1 $143 $31 $-1 $144 forward single #
loop $-1 $145 $146 $57 #
cone-surface $-1 -45.433362908709668 -6.7476133484909369 8.4550448004303238 0.66913061440640931 0 -0.74314481823134659 0.3715724091156733 0 0.33456530720320465 1 I I -0.70710678118654746 0.70710678118654746 0.5 forward I I I I #
loop $-1 $-1 $147 $40 #
coedge $-1 $93 $93 $148 $149 reversed $58 $-1 #
face $-1 $150 $151 $32 $-1 $152 reversed single #
loop $-1 $-1 $153 $60 #
plane-surface $-1 -51.980346079897458 6.7476133484909298 5.4593212960775759 -0.66913061440640931 0 0.74314481823134659 0.74314481823134659 0 0.66913061440640931 forward_v I I I I #
coedge $-1 $154 $155 $156 $157 reversed $61 $-1 #
face $-1 $-1 $158 $33 $-1 $159 forward single #
loop $-1 $160 $161 $63 #
cone-surface $-1 -45.433362908709668 6.7476133484909298 8.4550448004303238 0.66913061440640931 0 -0.74314481823134659 0.3715724091156733 0 0.33456530720320465 1 I I -0.70710678118654746 0.70710678118654746 0.5 forward I I I I #
loop $-1 $-1 $162 $42 #
coedge $-1 $102 $102 $163 $164 reversed $64 $-1 #
face $-1 $165 $166 $34 $-1 $167 reversed single #
loop $-1 $-1 $168 $66 #
plane-surface $-1 -51.980346079897458 20.242840045472803 5.4593212960775759 -0.66913061440640931 0 0.74314481823134659 0.74314481823134659 0 0.66913061440640931 forward_v I I I I #
coedge $-1 $169 $170 $171 $172 reversed $67 $-1 #
face $-1 $-1 $173 $35 $-1 $174 forward single #
loop $-1 $175 $176 $69 #
cone-surface $-1 -45.433362908709668 20.242840045472803 8.4550448004303238 0.66913061440640931 0 -0.74314481823134659 0.3715724091156733 0 0.33456530720320465 1 I I -0.70710678118654746 0.70710678118654746 0.5 forward I I I I #
loop $-1 $-1 $177 $44 #
coedge $-1 $111 $111 $178 $179 reversed $70 $-1 #
face $-1 $180 $181 $27 $-1 $182 reversed single #
loop $-1 $-1 $183 $72 #
plane-surface $-1 0 -32.117816180999782 0 0 1 0 0 0 1 forward_v I I I I #
coedge $-1 $184 $185 $186 $187 forward $73 $-1 #
coedge $-1 $188 $75 $189 $190 forward $46 $-1 #
coedge $-1 $75 $188 $191 $192 forward $46 $-1 #
coedge $-1 $193 $194 $75 $119 reversed $195 $-1 #
edge $-1 $196 -32.117816180999782 $197 32.117816180999782 $118 $198 forward 7 unknown #
face $-1 $199 $200 $28 $-1 $201 reversed single #
loop $-1 $-1 $202 $76 #
plane-surface $-1 -121.54362789889662 -16.058908090499891 82.717170974373346 0 -1 0 0.66913061440640931 0 -0.74314481823134659 forward_v I I I I #
coedge $-1 $203 $204 $205 $206 reversed $77 $-1 #
coedge $-1 $125 $79 $207 $208 reversed $49 $-1 #
coedge $-1 $79 $124 $203 $209 reversed $49 $-1 #
coedge $-1 $205 $210 $79 $127 forward $211 $-1 #
edge $-1 $212 8.7914678695508499 $213 19.002109613973829 $126 $214 forward 7 unknown #
loop $-1 $-1 $133 $80 #
plane-surface $-1 -51.980346079897458 -20.242840045472807 5.4593212960775759 -0.66913061440640931 0 0.74314481823134659 0.74314481823134659 0 0.66913061440640931 forward_v I I I I #
loop $-1 $-1 $215 $51 #
coedge $-1 $131 $131 $132 $216 reversed $81 $-1 #
coedge $-1 $132 $132 $131 $216 forward $83 $-1 #
coedge $-1 $133 $133 $84 $134 forward $128 $-1 #
edge $-1 $217 0 $217 6.2831853071796004 $133 $218 forward 7 unknown #
face $-1 $219 $220 $30 $-1 $221 forward single #
loop $-1 $-1 $222 $85 #
plane-surface $-1 -121.54362789889662 -2.5636813935180207 82.717170974373346 0 -1 0 0.66913061440640931 0 -0.74314481823134659 forward_v I I I I #
coedge $-1 $223 $224 $225 $226 reversed $86 $-1 #
coedge $-1 $140 $88 $227 $228 reversed $55 $-1 #
coedge $-1 $88 $139 $223 $229 reversed $55 $-1 #
coedge $-1 $225 $230 $88 $142 forward $220 $-1 #
edge $-1 $231 8.7914678695508499 $232 19.002109613973829 $141 $233 forward 7 unknown #
loop $-1 $-1 $148 $89 #
plane-surface $-1 -51.980346079897458 -6.7476133484909369 5.4593212960775759 -0.66913061440640931 0 0.74314481823134659 0.74314481823134659 0 0.66913061440640931 forward_v I I I I #
loop $-1 $-1 $234 $57 #
coedge $-1 $146 $146 $147 $235 reversed $90 $-1 #
coedge $-1 $147 $147 $146 $235 forward $92 $-1 #
coedge $-1 $148 $148 $93 $149 forward $143 $-1 #
edge $-1 $236 0 $236 6.2831853071796004 $148 $237 forward 7 unknown #
face $-1 $238 $239 $32 $-1 $240 forward single #
loop $-1 $-1 $241 $94 #
plane-surface $-1 -121.54362789889662 10.931545303463846 82.717170974373346 0 -1 0 0.66913061440640931 0 -0.74314481823134659 forward_v I I I I #
coedge $-1 $242 $243 $244 $245 reversed $95 $-1 #
coedge $-1 $155 $97 $246 $247 reversed $61 $-1 #
coedge $-1 $97 $154 $242 $248 reversed $61 $-1 #
coedge $-1 $244 $249 $97 $157 forward $239 $-1 #
edge $-1 $250 8.7914678695508499 $251 19.002109613973829 $156 $252 forward 7 unknown #
loop $-1 $-1 $163 $98 #
plane-surface $-1 -51.980346079897458 6.7476133484909298 5.4593212960775759 -0.66913061440640931 0 0.74314481823134659 0.74314481823134659 0 0.66913061440640931 forward_v I I I I #
loop $-1 $-1 $253 $63 #
coedge $-1 $161 $161 $162 $254 reversed $99 $-1 #
coedge $-1 $162 $162 $161 $254 forward $101 $-1 #
coedge $-1 $163 $163 $102 $164 forward $158 $-1 #
edge $-1 $255 0 $255 6.2831853071796004 $163 $256 forward 7 unknown #
face $-1 $257 $258 $34 $-1 $259 forward single #
loop $-1 $-1 $260 $103 #
plane-surface $-1 -121.54362789889662 24.42677200044572 82.717170974373346 0 -1 0 0.66913061440640931 0 -0.74314481823134659 forward_v I I I I #
coedge $-1 $261 $262 $263 $264 reversed $104 $-1 #
coedge $-1 $170 $106 $265 $266 reversed $67 $-1 #
coedge $-1 $106 $169 $261 $267 reversed $67 $-1 #
coedge $-1 $263 $268 $106 $172 forward $258 $-1 #
edge $-1 $269 8.7914678695508499 $270 19.002109613973829 $171 $271 forward 7 unknown #
loop $-1 $-1 $178 $107 #
plane-surface $-1 -51.980346079897458 20.242840045472803 5.4593212960775759 -0.66913061440640931 0 0.74314481823134659 0.74314481823134659 0 0.66913061440640931 forward_v I I I I #
loop $-1 $-1 $272 $69 #
coedge $-1 $176 $176 $177 $273 reversed $108 $-1 #
coedge $-1 $177 $177 $176 $273 forward $110 $-1 #
coedge $-1 $178 $178 $111 $179 forward $173 $-1 #
edge $-1 $274 0 $274 6.2831853071796004 $178 $275 forward 7 unknown #
face $-1 $276 $277 $27 $-1 $278 reversed single #
loop $-1 $-1 $279 $112 #
plane-surface $-1 -51.980346079897458 0 0 1 0 0 0 0 -1 forward_v I I I I #
coedge $-1 $280 $191 $281 $282 forward $113 $-1 #
coedge $-1 $283 $115 $280 $284 forward $73 $-1 #
coedge $-1 $115 $283 $285 $286 forward $73 $-1 #
coedge $-1 $194 $193 $115 $187 reversed $195 $-1 #
edge $-1 $287 -32.117816180999782 $288 32.117816180999782 $186 $289 forward 7 unknown #
coedge $-1 $117 $116 $290 $291 forward $46 $-1 #
coedge $-1 $292 $293 $116 $190 reversed $277 $-1 #
edge $-1 $197 -51.980346079897458 $294 51.980346079897458 $189 $295 forward 7 unknown #
coedge $-1 $183 $296 $117 $192 reversed $113 $-1 #
edge $-1 $297 -51.980346079897458 $196 51.980346079897458 $191 $298 forward 7 unknown #
coedge $-1 $186 $118 $296 $299 forward $195 $-1 #
coedge $-1 $118 $186 $292 $300 reversed $195 $-1 #
loop $-1 $-1 $193 $276 #
vertex $-1 $119 $301 #
vertex $-1 $119 $302 #
straight-curve $-1 51.980346079897458 0 14.653024617847285 0 1 0 I I #
face $-1 $-1 $211 $28 $-1 $303 forward single #
loop $-1 $-1 $304 $120 #
plane-surface $-1 -51.980346079897458 0 0 1 0 0 0 0 -1 forward_v I I I I #
coedge $-1 $305 $306 $307 $308 reversed $121 $-1 #
coedge $-1 $309 $123 $125 $209 forward $77 $-1 #
coedge $-1 $123 $309 $305 $310 forward $77 $-1 #
coedge $-1 $307 $126 $123 $206 forward $211 $-1 #
edge $-1 $213 -14.30535197770932 $311 -5.9374880677634874 $205 $312 forward 7 unknown #
coedge $-1 $313 $314 $124 $208 forward $200 $-1 #
edge $-1 $315 -35.899264191109097 $212 -26.705560869339386 $207 $316 forward 7 unknown #
edge $-1 $213 -13.739773855550627 $315 0 $125 $317 forward 7 unknown #
coedge $-1 $126 $307 $313 $318 forward $211 $-1 #
loop $-1 $-1 $307 $199 #
vertex $-1 $208 $319 #
vertex $-1 $127 $320 #
straight-curve $-1 -60.771813949448308 -24.426772000445723 14.653024617847286 1 0 0 I I #
coedge $-1 $215 $215 $-1 $321 reversed $130 $-1 #
edge $-1 $322 0 $322 6.2831853071796004 $131 $323 forward 7 unknown #
vertex $-1 $134 $324 #
ellipse-curve $-1 -46.875025207685972 -20.242840045472807 10.056172956962431 -0.66913061440640931 0 0.74314481823134659 0.74314481823134659 0 0.66913061440640931 1 I I #
face $-1 $-1 $325 $30 $-1 $326 reversed single #
loop $-1 $-1 $141 $135 #
plane-surface $-1 0 0 14.653024617847285 0 0 1 1 0 0 forward_v I I I I #
coedge $-1 $327 $328 $329 $330 reversed $136 $-1 #
coedge $-1 $331 $138 $140 $229 forward $86 $-1 #
coedge $-1 $138 $331 $327 $332 forward $86 $-1 #
coedge $-1 $329 $141 $138 $226 forward $220 $-1 #
edge $-1 $232 -7.5577386292183846 $333 0.81012528072744772 $225 $334 forward 7 unknown #
coedge $-1 $335 $336 $139 $228 forward $325 $-1 #
edge $-1 $337 -35.899264191109097 $231 -26.705560869339386 $227 $338 forward 7 unknown #
edge $-1 $232 -13.739773855550627 $337 0 $140 $339 forward 7 unknown #
coedge $-1 $141 $329 $335 $340 forward $220 $-1 #
vertex $-1 $142 $341 #
vertex $-1 $142 $342 #
straight-curve $-1 -60.771813949448308 -10.931545303463853 14.653024617847286 1 0 0 I I #
coedge $-1 $234 $234 $-1 $343 reversed $145 $-1 #
edge $-1 $344 0 $344 6.2831853071796004 $146 $345 forward 7 unknown #
vertex $-1 $149 $346 #
ellipse-curve $-1 -46.875025207685972 -6.7476133484909369 10.056172956962431 -0.66913061440640931 0 0.74314481823134659 0.74314481823134659 0 0.66913061440640931 1 I I #
face $-1 $-1 $347 $32 $-1 $348 reversed single #
loop $-1 $-1 $156 $150 #
plane-surface $-1 0 0 14.653024617847285 0 0 1 1 0 0 forward_v I I I I #
coedge $-1 $349 $350 $351 $352 reversed $151 $-1 #
coedge $-1 $353 $153 $155 $248 forward $95 $-1 #
coedge $-1 $153 $353 $349 $354 forward $95 $-1 #
coedge $-1 $351 $156 $153 $245 forward $239 $-1 #
edge $-1 $251 -0.81012528072745127 $355 7.557738629218381 $244 $356 forward 7 unknown #
coedge $-1 $357 $358 $154 $247 forward $347 $-1 #
edge $-1 $359 -35.899264191109097 $250 -26.705560869339386 $246 $360 forward 7 unknown #
edge $-1 $251 -13.739773855550627 $359 0 $155 $361 forward 7 unknown #
coedge $-1 $156 $351 $357 $362 forward $239 $-1 #
vertex $-1 $157 $363 #
vertex $-1 $157 $364 #
straight-curve $-1 -60.771813949448308 2.5636813935180136 14.653024617847286 1 0 0 I I #
coedge $-1 $253 $253 $-1 $365 reversed $160 $-1 #
edge $-1 $366 0 $366 6.2831853071796004 $161 $367 forward 7 unknown #
vertex $-1 $164 $368 #
ellipse-curve $-1 -46.875025207685972 6.7476133484909298 10.056172956962431 -0.66913061440640931 0 0.74314481823134659 0.74314481823134659 0 0.66913061440640931 1 I I #
face $-1 $-1 $369 $34 $-1 $370 reversed single #
loop $-1 $-1 $171 $165 #
plane-surface $-1 0 0 14.653024617847285 0 0 1 1 0 0 forward_v I I I I #
coedge $-1 $371 $372 $373 $374 reversed $166 $-1 #
coedge $-1 $375 $168 $170 $267 forward $104 $-1 #
coedge $-1 $168 $375 $371 $376 forward $104 $-1 #
coedge $-1 $373 $171 $168 $264 forward $258 $-1 #
edge $-1 $270 5.9374880677634856 $377 14.305351977709318 $263 $378 forward 7 unknown #
coedge $-1 $379 $380 $169 $266 forward $369 $-1 #
edge $-1 $381 -35.899264191109097 $269 -26.705560869339386 $265 $382 forward 7 unknown #
edge $-1 $270 -13.739773855550627 $381 0 $170 $383 forward 7 unknown #
coedge $-1 $171 $373 $379 $384 forward $258 $-1 #
vertex $-1 $172 $385 #
vertex $-1 $172 $386 #
straight-curve $-1 -60.771813949448308 16.058908090499887 14.653024617847286 1 0 0 I I #
coedge $-1 $272 $272 $-1 $387 reversed $175 $-1 #
edge $-1 $388 0 $388 6.2831853071796004 $176 $389 forward 7 unknown #
vertex $-1 $179 $390 #
ellipse-curve $-1 -46.875025207685972 20.242840045472803 10.056172956962431 -0.66913061440640931 0 0.74314481823134659 0.74314481823134659 0 0.66913061440640931 1 I I #
face $-1 $-1 $195 $27 $-1 $391 reversed single #
loop $-1 $-1 $292 $180 #
plane-surface $-1 0 32.117816180999782 0 0 -1 0 0 0 -1 forward_v I I I I #
coedge $-1 $392 $290 $293 $393 forward $181 $-1 #
coedge $-1 $296 $183 $184 $284 reversed $113 $-1 #
coedge $-1 $290 $392 $183 $282 reversed $181 $-1 #
edge $-1 $297 -14.653024617847285 $394 14.653024617847285 $281 $395 forward 7 unknown #
coedge $-1 $185 $184 $392 $396 forward $73 $-1 #
edge $-1 $288 -51.980346079897458 $394 51.980346079897458 $280 $397 forward 7 unknown #
coedge $-1 $293 $292 $185 $286 reversed $277 $-1 #
edge $-1 $398 -51.980346079897458 $287 51.980346079897458 $285 $399 forward 7 unknown #
vertex $-1 $187 $400 #
vertex $-1 $299 $401 #
straight-curve $-1 51.980346079897458 0 -14.653024617847285 0 -1 0 I I #
coedge $-1 $279 $281 $188 $291 reversed $181 $-1 #
edge $-1 $294 -32.117816180999782 $297 32.117816180999782 $290 $402 forward 7 unknown #
coedge $-1 $285 $189 $194 $300 forward $277 $-1 #
coedge $-1 $189 $285 $279 $393 reversed $277 $-1 #
vertex $-1 $190 $403 #
straight-curve $-1 0 32.117816180999782 14.653024617847285 -1 0 0 I I #
coedge $-1 $191 $280 $193 $299 reversed $113 $-1 #
vertex $-1 $291 $404 #
straight-curve $-1 0 -32.117816180999782 14.653024617847285 1 0 0 I I #
edge $-1 $196 -14.653024617847285 $288 14.653024617847285 $193 $405 forward 7 unknown #
edge $-1 $197 -14.653024617847285 $287 14.653024617847285 $194 $406 forward 7 unknown #
point $-1 51.980346079897458 -32.117816180999782 14.653024617847285 #
point $-1 51.980346079897458 32.117816180999782 14.653024617847285 #
plane-surface $-1 0 0 14.653024617847285 0 0 1 1 0 0 forward_v I I I I #
coedge $-1 $314 $313 $306 $407 forward $200 $-1 #
coedge $-1 $306 $202 $204 $310 reversed $121 $-1 #
coedge $-1 $202 $305 $304 $407 reversed $121 $-1 #
coedge $-1 $210 $205 $202 $308 forward $211 $-1 #
edge $-1 $311 -19.002109613973829 $408 -8.7914678695508499 $307 $409 forward 7 unknown #
coedge $-1 $204 $203 $314 $410 reversed $77 $-1 #
edge $-1 $411 0 $311 13.739773855550627 $305 $412 forward 7 unknown #
vertex $-1 $206 $413 #
straight-curve $-1 -41.769704335474486 -10.121420022736404 14.653024617847283 0 1 0 I I #
coedge $-1 $304 $207 $210 $318 reversed $200 $-1 #
coedge $-1 $207 $304 $309 $410 forward $200 $-1 #
vertex $-1 $208 $414 #
straight-curve $-1 -51.980346079897458 -24.426772000445723 41.358585487186673 0 0 1 I I #
straight-curve $-1 -51.980346079897458 -24.426772000445723 5.4593212960775759 -0.74314481823134659 0 -0.66913061440640931 I I #
edge $-1 $408 16.058908090499891 $212 24.426772000445723 $313 $415 forward 7 unknown #
point $-1 -51.980346079897458 -24.426772000445723 14.653024617847285 #
point $-1 -41.769704335474479 -24.426772000445723 14.653024617847285 #
edge $-1 $416 1 $416 0 $215 $-1 forward 7 unknown #
vertex $-1 $216 $417 #
ellipse-curve $-1 -45.767928215912875 -20.242840045472807 8.8266172095459972 -0.66913061440640931 0 0.74314481823134659 0.74314481823134659 0 0.66913061440640931 1 I I #
point $-1 -46.131880389454622 -20.242840045472807 10.725303571368839 #
loop $-1 $-1 $227 $219 #
plane-surface $-1 -51.980346079897458 0 0 1 0 0 0 0 -1 forward_v I I I I #
coedge $-1 $328 $222 $224 $332 reversed $136 $-1 #
coedge $-1 $222 $327 $418 $419 reversed $136 $-1 #
coedge $-1 $230 $225 $222 $330 forward $220 $-1 #
edge $-1 $333 -19.002109613973829 $420 -8.7914678695508499 $329 $421 forward 7 unknown #
coedge $-1 $224 $223 $336 $422 reversed $86 $-1 #
edge $-1 $423 0 $333 13.739773855550627 $327 $424 forward 7 unknown #
vertex $-1 $226 $425 #
straight-curve $-1 -41.769704335474486 -3.3738066742454684 14.653024617847283 0 1 0 I I #
coedge $-1 $418 $227 $230 $340 reversed $325 $-1 #
coedge $-1 $227 $418 $331 $422 forward $325 $-1 #
vertex $-1 $228 $426 #
straight-curve $-1 -51.980346079897458 -10.931545303463853 41.358585487186673 0 0 1 I I #
straight-curve $-1 -51.980346079897458 -10.931545303463853 5.4593212960775759 -0.74314481823134659 0 -0.66913061440640931 I I #
edge $-1 $420 2.5636813935180207 $231 10.931545303463853 $335 $427 forward 7 unknown #
point $-1 -51.980346079897458 -10.931545303463853 14.653024617847285 #
point $-1 -41.769704335474479 -10.931545303463853 14.653024617847285 #
edge $-1 $428 1 $428 0 $234 $-1 forward 7 unknown #
vertex $-1 $235 $429 #
ellipse-curve $-1 -45.767928215912875 -6.7476133484909369 8.8266172095459972 -0.66913061440640931 0 0.74314481823134659 0.74314481823134659 0 0.66913061440640931 1 I I #
point $-1 -46.131880389454622 -6.7476133484909369 10.725303571368839 #
loop $-1 $-1 $246 $238 #
plane-surface $-1 -51.980346079897458 0 0 1 0 0 0 0 -1 forward_v I I I I #
coedge $-1 $350 $241 $243 $354 reversed $151 $-1 #
coedge $-1 $241 $349 $430 $431 reversed $151 $-1 #
coedge $-1 $249 $244 $241 $352 forward $239 $-1 #
edge $-1 $355 -19.002109613973829 $432 -8.7914678695508499 $351 $433 forward 7 unknown #
coedge $-1 $243 $242 $358 $434 reversed $95 $-1 #
edge $-1 $435 0 $355 13.739773855550627 $349 $436 forward 7 unknown #
vertex $-1 $245 $437 #
straight-curve $-1 -41.769704335474486 3.3738066742454649 14.653024617847283 0 1 0 I I #
coedge $-1 $430 $246 $249 $362 reversed $347 $-1 #
coedge $-1 $246 $430 $353 $434 forward $347 $-1 #
vertex $-1 $247 $438 #
straight-curve $-1 -51.980346079897458 2.5636813935180136 41.358585487186673 0 0 1 I I #
straight-curve $-1 -51.980346079897458 2.5636813935180136 5.4593212960775759 -0.74314481823134659 0 -0.66913061440640931 I I #
edge $-1 $432 -10.931545303463846 $250 -2.5636813935180136 $357 $439 forward 7 unknown #
point $-1 -51.980346079897458 2.5636813935180136 14.653024617847285 #
point $-1 -41.769704335474479 2.5636813935180136 14.653024617847285 #
edge $-1 $440 1 $440 0 $253 $-1 forward 7 unknown #
vertex $-1 $254 $441 #
ellipse-curve $-1 -45.767928215912875 6.7476133484909298 8.8266172095459972 -0.66913061440640931 0 0.74314481823134659 0.74314481823134659 0 0.66913061440640931 1 I I #
point $-1 -46.131880389454622 6.7476133484909298 10.725303571368839 #
loop $-1 $-1 $265 $257 #
plane-surface $-1 -51.980346079897458 0 0 1 0 0 0 0 -1 forward_v I I I I #
coedge $-1 $372 $260 $262 $376 reversed $166 $-1 #
coedge $-1 $260 $371 $442 $443 reversed $166 $-1 #
coedge $-1 $268 $263 $260 $374 forward $258 $-1 #
edge $-1 $377 -19.002109613973829 $444 -8.7914678695508499 $373 $445 forward 7 unknown #
coedge $-1 $262 $261 $380 $446 reversed $104 $-1 #
edge $-1 $447 0 $377 13.739773855550627 $371 $448 forward 7 unknown #
vertex $-1 $264 $449 #
straight-curve $-1 -41.769704335474486 10.121420022736402 14.653024617847283 0 1 0 I I #
coedge $-1 $442 $265 $268 $384 reversed $369 $-1 #
coedge $-1 $265 $442 $375 $446 forward $369 $-1 #
vertex $-1 $266 $450 #
straight-curve $-1 -51.980346079897458 16.058908090499887 41.358585487186673 0 0 1 I I #
straight-curve $-1 -51.980346079897458 16.058908090499887 5.4593212960775759 -0.74314481823134659 0 -0.66913061440640931 I I #
edge $-1 $444 -24.42677200044572 $269 -16.058908090499887 $379 $451 forward 7 unknown #
point $-1 -51.980346079897458 16.058908090499887 14.653024617847285 #
point $-1 -41.769704335474479 16.058908090499887 14.653024617847285 #
edge $-1 $452 1 $452 0 $272 $-1 forward 7 unknown #
vertex $-1 $273 $453 #
ellipse-curve $-1 -45.767928215912875 20.242840045472803 8.8266172095459972 -0.66913061440640931 0 0.74314481823134659 0.74314481823134659 0 0.66913061440640931 1 I I #
point $-1 -46.131880389454622 20.242840045472803 10.725303571368839 #
plane-surface $-1 51.980346079897458 0 0 -1 0 0 0 0 1 forward_v I I I I #
coedge $-1 $281 $279 $283 $396 reversed $181 $-1 #
edge $-1 $294 -14.653024617847285 $398 14.653024617847285 $293 $454 forward 7 unknown #
vertex $-1 $396 $455 #
straight-curve $-1 -51.980346079897458 -32.117816180999782 0 0 0 -1 I I #
edge $-1 $394 -32.117816180999782 $398 32.117816180999782 $392 $456 forward 7 unknown #
straight-curve $-1 0 -32.117816180999782 -14.653024617847285 -1 0 0 I I #
vertex $-1 $286 $457 #
straight-curve $-1 0 32.117816180999782 -14.653024617847285 1 0 0 I I #
point $-1 51.980346079897458 32.117816180999782 -14.653024617847285 #
point $-1 51.980346079897458 -32.117816180999782 -14.653024617847285 #
straight-curve $-1 -51.980346079897458 0 14.653024617847285 0 -1 0 I I #
point $-1 -51.980346079897458 32.117816180999782 14.653024617847285 #
point $-1 -51.980346079897458 -32.117816180999782 14.653024617847285 #
straight-curve $-1 51.980346079897458 -32.117816180999782 0 0 0 -1 I I #
straight-curve $-1 51.980346079897458 32.117816180999782 0 0 0 -1 I I #
edge $-1 $408 26.705560869339386 $411 35.899264191109097 $304 $458 forward 7 unknown #
vertex $-1 $318 $459 #
straight-curve $-1 -60.771813949448308 -16.058908090499891 14.653024617847286 -1 0 0 I I #
edge $-1 $411 5.9374880677634874 $315 14.30535197770932 $314 $460 forward 7 unknown #
vertex $-1 $410 $461 #
straight-curve $-1 -51.980346079897458 -16.058908090499891 5.4593212960775759 0.74314481823134659 0 0.66913061440640931 I I #
point $-1 -41.769704335474479 -16.058908090499891 14.653024617847285 #
point $-1 -51.980346079897458 -24.426772000445723 5.4593212960775759 #
straight-curve $-1 -51.980346079897458 0 14.653024617847285 0 -1 0 I I #
vertex $-1 $321 $462 #
point $-1 -45.024783397681524 -20.242840045472807 9.4957478239524065 #
coedge $-1 $336 $335 $328 $419 forward $325 $-1 #
edge $-1 $420 26.705560869339386 $423 35.899264191109097 $418 $463 forward 7 unknown #
vertex $-1 $340 $464 #
straight-curve $-1 -60.771813949448308 -2.5636813935180207 14.653024617847286 -1 0 0 I I #
edge $-1 $423 -0.81012528072744772 $337 7.5577386292183846 $336 $465 forward 7 unknown #
vertex $-1 $422 $466 #
straight-curve $-1 -51.980346079897458 -2.5636813935180207 5.4593212960775759 0.74314481823134659 0 0.66913061440640931 I I #
point $-1 -41.769704335474479 -2.5636813935180207 14.653024617847285 #
point $-1 -51.980346079897458 -10.931545303463853 5.4593212960775759 #
straight-curve $-1 -51.980346079897458 0 14.653024617847285 0 -1 0 I I #
vertex $-1 $343 $467 #
point $-1 -45.024783397681524 -6.7476133484909369 9.4957478239524065 #
coedge $-1 $358 $357 $350 $431 forward $347 $-1 #
edge $-1 $432 26.705560869339386 $435 35.899264191109097 $430 $468 forward 7 unknown #
vertex $-1 $362 $469 #
straight-curve $-1 -60.771813949448308 10.931545303463846 14.653024617847286 -1 0 0 I I #
edge $-1 $435 -7.557738629218381 $359 0.81012528072745127 $358 $470 forward 7 unknown #
vertex $-1 $434 $471 #
straight-curve $-1 -51.980346079897458 10.931545303463846 5.4593212960775759 0.74314481823134659 0 0.66913061440640931 I I #
point $-1 -41.769704335474479 10.931545303463846 14.653024617847285 #
point $-1 -51.980346079897458 2.5636813935180136 5.4593212960775759 #
straight-curve $-1 -51.980346079897458 0 14.653024617847285 0 -1 0 I I #
vertex $-1 $365 $472 #
point $-1 -45.024783397681524 6.7476133484909298 9.4957478239524065 #
coedge $-1 $380 $379 $372 $443 forward $369 $-1 #
edge $-1 $444 26.705560869339386 $447 35.899264191109097 $442 $473 forward 7 unknown #
vertex $-1 $384 $474 #
straight-curve $-1 -60.771813949448308 24.42677200044572 14.653024617847286 -1 0 0 I I #
edge $-1 $447 -14.305351977709318 $381 -5.9374880677634856 $380 $475 forward 7 unknown #
vertex $-1 $446 $476 #
straight-curve $-1 -51.980346079897458 24.42677200044572 5.4593212960775759 0.74314481823134659 0 0.66913061440640931 I I #
point $-1 -41.769704335474479 24.42677200044572 14.653024617847285 #
point $-1 -51.980346079897458 16.058908090499887 5.4593212960775759 #
straight-curve $-1 -51.980346079897458 0 14.653024617847285 0 -1 0 I I #
vertex $-1 $387 $477 #
point $-1 -45.024783397681524 20.242840045472803 9.4957478239524065 #
straight-curve $-1 -51.980346079897458 32.117816180999782 0 0 0 -1 I I #
point $-1 -51.980346079897458 -32.117816180999782 -14.653024617847285 #
straight-curve $-1 -51.980346079897458 0 -14.653024617847285 0 1 0 I I #
point $-1 -51.980346079897458 32.117816180999782 -14.653024617847285 #
straight-curve $-1 -51.980346079897458 -16.058908090499891 41.358585487186673 0 0 -1 I I #
point $-1 -51.980346079897458 -16.058908090499891 14.653024617847285 #
straight-curve $-1 -51.980346079897458 -10.121420022736404 5.4593212960775777 0 -1 0 I I #
point $-1 -51.980346079897458 -16.058908090499891 5.4593212960775759 #
point $-1 -45.098797601506462 -20.242840045472807 8.0834723913146505 #
straight-curve $-1 -51.980346079897458 -2.5636813935180207 41.358585487186673 0 0 -1 I I #
point $-1 -51.980346079897458 -2.5636813935180207 14.653024617847285 #
straight-curve $-1 -51.980346079897458 -3.3738066742454684 5.4593212960775777 0 -1 0 I I #
point $-1 -51.980346079897458 -2.5636813935180207 5.4593212960775759 #
point $-1 -45.098797601506462 -6.7476133484909369 8.0834723913146505 #
straight-curve $-1 -51.980346079897458 10.931545303463846 41.358585487186673 0 0 -1 I I #
point $-1 -51.980346079897458 10.931545303463846 14.653024617847285 #
straight-curve $-1 -51.980346079897458 3.3738066742454649 5.4593212960775777 0 -1 0 I I #
point $-1 -51.980346079897458 10.931545303463846 5.4593212960775759 #
point $-1 -45.098797601506462 6.7476133484909298 8.0834723913146505 #
straight-curve $-1 -51.980346079897458 24.42677200044572 41.358585487186673 0 0 -1 I I #
point $-1 -51.980346079897458 24.42677200044572 14.653024617847285 #
straight-curve $-1 -51.980346079897458 10.121420022736402 5.4593212960775777 0 -1 0 I I #
point $-1 -51.980346079897458 24.42677200044572 5.4593212960775759 #
point $-1 -45.098797601506462 20.242840045472803 8.0834723913146505 #
End-of-ACIS-data 