500 0 13 0           
7 Unknown 11 ACIS 5.0 NT 24 Fri Mar 26 19:31:35 1999 
-1 9.9999999999999995e-007 1e-010 
body $-1 $13 $-1 $14 #
body $-1 $15 $-1 $16 #
body $-1 $17 $-1 $18 #
body $-1 $19 $-1 $20 #
body $-1 $21 $-1 $22 #
body $-1 $23 $-1 $24 #
body $-1 $25 $-1 $26 #
body $-1 $27 $-1 $28 #
body $-1 $29 $-1 $30 #
body $-1 $31 $-1 $32 #
body $-1 $33 $-1 $34 #
body $-1 $35 $-1 $36 #
body $-1 $37 $-1 $38 #
lump $-1 $-1 $39 $0 #
transform $-1 1 0 0 0 1 0 0 0 1 57.061067537461469 26.728513666561934 6.5504313271459793 1 rotate no_reflect no_shear #
lump $-1 $-1 $40 $1 #
transform $-1 1 0 0 0 1 0 0 0 1 57.061067537461469 26.728513666561934 6.5504313271459793 1 rotate no_reflect no_shear #
lump $-1 $-1 $41 $2 #
transform $-1 1 0 0 0 1 0 0 0 1 57.061067537461469 26.728513666561934 6.5504313271459793 1 rotate no_reflect no_shear #
lump $-1 $-1 $42 $3 #
transform $-1 1 0 0 0 1 0 0 0 1 57.061067537461469 26.728513666561934 6.5504313271459793 1 rotate no_reflect no_shear #
lump $-1 $-1 $43 $4 #
transform $-1 1 0 0 0 1 0 0 0 1 57.061067537461469 26.728513666561934 6.5504313271459793 1 rotate no_reflect no_shear #
lump $-1 $-1 $44 $5 #
transform $-1 1 0 0 0 1 0 0 0 1 57.061067537461469 26.728513666561934 6.5504313271459793 1 rotate no_reflect no_shear #
lump $-1 $-1 $45 $6 #
transform $-1 1 0 0 0 1 0 0 0 1 57.061067537461469 26.728513666561934 6.5504313271459793 1 rotate no_reflect no_shear #
lump $-1 $-1 $46 $7 #
transform $-1 1 0 0 0 1 0 0 0 1 57.061067537461469 26.728513666561934 6.5504313271459793 1 rotate no_reflect no_shear #
lump $-1 $-1 $47 $8 #
transform $-1 1 0 0 0 1 0 0 0 1 57.061067537461469 26.728513666561934 6.5504313271459793 1 rotate no_reflect no_shear #
lump $-1 $-1 $48 $9 #
transform $-1 1 0 0 0 1 0 0 0 1 57.061067537461469 26.728513666561934 6.5504313271459793 1 rotate no_reflect no_shear #
lump $-1 $-1 $49 $10 #
transform $-1 1 0 0 0 1 0 0 0 1 57.061067537461469 26.728513666561934 6.5504313271459793 1 rotate no_reflect no_shear #
lump $-1 $-1 $50 $11 #
transform $-1 1 0 0 0 1 0 0 0 1 57.061067537461469 26.728513666561934 6.5504313271459793 1 rotate no_reflect no_shear #
lump $-1 $-1 $51 $12 #
transform $-1 1 0 0 0 1 0 0 0 1 57.061067537461469 26.728513666561934 6.5504313271459793 1 rotate no_reflect no_shear #
shell $-1 $-1 $-1 $52 $-1 $13 #
shell $-1 $-1 $-1 $53 $-1 $15 #
shell $-1 $-1 $-1 $54 $-1 $17 #
shell $-1 $-1 $-1 $55 $-1 $19 #
shell $-1 $-1 $-1 $56 $-1 $21 #
shell $-1 $-1 $-1 $57 $-1 $23 #
shell $-1 $-1 $-1 $58 $-1 $25 #
shell $-1 $-1 $-1 $59 $-1 $27 #
shell $-1 $-1 $-1 $60 $-1 $29 #
shell $-1 $-1 $-1 $61 $-1 $31 #
shell $-1 $-1 $-1 $62 $-1 $33 #
shell $-1 $-1 $-1 $63 $-1 $35 #
shell $-1 $-1 $-1 $64 $-1 $37 #
face $-1 $65 $66 $39 $-1 $67 forward single #
face $-1 $68 $69 $40 $-1 $70 forward single #
face $-1 $71 $72 $41 $-1 $73 reversed single #
face $-1 $74 $75 $42 $-1 $76 reversed single #
face $-1 $77 $78 $43 $-1 $79 forward single #
face $-1 $80 $81 $44 $-1 $82 reversed single #
face $-1 $83 $84 $45 $-1 $85 forward single #
face $-1 $86 $87 $46 $-1 $88 forward single #
face $-1 $89 $90 $47 $-1 $91 forward single #
face $-1 $92 $93 $48 $-1 $94 reversed single #
face $-1 $95 $96 $49 $-1 $97 forward single #
face $-1 $98 $99 $50 $-1 $100 forward single #
face $-1 $101 $102 $51 $-1 $103 forward single #
face $-1 $104 $105 $39 $-1 $106 reversed single #
loop $-1 $-1 $107 $52 #
plane-surface $-1 0 0 6.5504313271459793 0 0 1 1 0 0 forward_v I I I I #
face $-1 $108 $109 $40 $-1 $110 reversed single #
loop $-1 $-1 $111 $53 #
plane-surface $-1 0 -22.631638381309134 -3.5504313271459793 0 0 1 1 0 0 forward_v I I I I #
face $-1 $112 $113 $41 $-1 $114 reversed single #
loop $-1 $-1 $115 $54 #
plane-surface $-1 0 23.061631507283781 2.7469150907940154 0 0 1 1 0 0 forward_v I I I I #
face $-1 $116 $117 $42 $-1 $118 reversed single #
loop $-1 $-1 $119 $55 #
plane-surface $-1 -144.4836958941687 -18.534763096056334 76.223228392036162 0 1 0 -0.7660444514056185 0 0.64278759981090561 forward_v I I I I #
face $-1 $120 $121 $43 $-1 $122 forward single #
loop $-1 $123 $124 $56 #
cone-surface $-1 -55.132635190208724 -13.183412625319828 4.3872894146327672 0.7660444514056185 0 -0.64278759981090561 0.3213937999054528 0 0.38302222570280925 1 I I 0 1 0.5 forward I I I I #
face $-1 $125 $126 $44 $-1 $127 reversed single #
loop $-1 $-1 $128 $57 #
plane-surface $-1 29.03545627157871 -10.076029203727444 159.34368267806016 0 -1 0 -0.57357644374324357 0 -0.81915203911291934 forward_v I I I I #
face $-1 $129 $130 $45 $-1 $131 forward single #
loop $-1 $132 $133 $58 #
cone-surface $-1 52.303962779416601 -14.881725650358215 2.9522789244764889 -0.57357644374324357 0 -0.81915203911291934 0.40957601955645967 0 -0.28678822187162178 1 I I 0 1 0.5 forward I I I I #
face $-1 $134 $135 $46 $-1 $136 forward single #
loop $-1 $137 $138 $59 #
cone-surface $-1 52.303962779416601 -13.079589482871675 2.9522789244764889 -0.57357644374324357 0 -0.81915203911291934 0.40957601955645967 0 -0.28678822187162178 1 I I 0 1 0.5 forward I I I I #
face $-1 $139 $140 $47 $-1 $141 forward single #
loop $-1 $142 $143 $60 #
cone-surface $-1 52.303962779416601 -11.277453315385136 2.9522789244764889 -0.57357644374324357 0 -0.81915203911291934 0.40957601955645967 0 -0.28678822187162178 1 I I 0 1 0.5 forward I I I I #
face $-1 $144 $145 $48 $-1 $146 reversed single #
loop $-1 $-1 $147 $61 #
plane-surface $-1 29.03545627157871 8.8887270183035376 159.34368267806016 0 -1 0 -0.57357644374324357 0 -0.81915203911291934 forward_v I I I I #
face $-1 $148 $149 $49 $-1 $150 forward single #
loop $-1 $151 $152 $62 #
cone-surface $-1 52.303962779416601 4.0830305716727686 2.9522789244764889 -0.57357644374324357 0 -0.81915203911291934 0.40957601955645967 0 -0.28678822187162178 1 I I 0 1 0.5 forward I I I I #
face $-1 $153 $154 $50 $-1 $155 forward single #
loop $-1 $156 $157 $63 #
cone-surface $-1 52.303962779416601 5.8851667391593061 2.9522789244764889 -0.57357644374324357 0 -0.81915203911291934 0.40957601955645967 0 -0.28678822187162178 1 I I 0 1 0.5 forward I I I I #
face $-1 $158 $159 $51 $-1 $160 forward single #
loop $-1 $161 $162 $64 #
cone-surface $-1 52.303962779416601 7.6873029066458507 2.9522789244764889 -0.57357644374324357 0 -0.81915203911291934 0.40957601955645967 0 -0.28678822187162178 1 I I 0 1 0.5 forward I I I I #
face $-1 $163 $164 $39 $-1 $165 reversed single #
loop $-1 $-1 $166 $65 #
plane-surface $-1 0 0 -6.5504313271459793 0 0 1 1 0 0 forward_v I I I I #
coedge $-1 $167 $168 $169 $170 forward $66 $-1 #
face $-1 $171 $172 $40 $-1 $173 reversed single #
loop $-1 $-1 $174 $68 #
plane-surface $-1 0 -18.534763096056334 -5.0504313271459793 0 -1 0 0 0 -1 forward_v I I I I #
coedge $-1 $175 $176 $177 $178 reversed $69 $-1 #
face $-1 $179 $180 $41 $-1 $181 reversed single #
loop $-1 $-1 $182 $71 #
plane-surface $-1 0 19.394749348005632 4.6486732089699974 0 1 0 0 0 1 forward_v I I I I #
coedge $-1 $183 $184 $185 $186 reversed $72 $-1 #
face $-1 $187 $188 $42 $-1 $189 reversed single #
loop $-1 $-1 $190 $74 #
plane-surface $-1 -57.061067537461469 -13.183412625319828 2.8669351019304798 -0.7660444514056185 0 0.64278759981090561 0.64278759981090561 0 0.7660444514056185 forward_v I I I I #
coedge $-1 $191 $192 $193 $194 reversed $75 $-1 #
face $-1 $-1 $195 $43 $-1 $196 forward single #
loop $-1 $197 $198 $77 #
cone-surface $-1 -54.558101851654513 -13.183412625319828 3.9051987147745884 0.7660444514056185 0 -0.64278759981090561 0.1606968999527264 0 0.19151111285140462 1 I I -0.70710678118654746 0.70710678118654746 0.25 forward I I I I #
loop $-1 $-1 $199 $56 #
coedge $-1 $124 $124 $200 $201 reversed $78 $-1 #
face $-1 $202 $203 $44 $-1 $204 reversed single #
loop $-1 $-1 $205 $80 #
plane-surface $-1 -36.422312117081674 -13.079589482871675 65.860303023517019 0.57357644374324357 0 0.81915203911291934 0.81915203911291934 0 -0.57357644374324357 forward_v I I I I #
coedge $-1 $206 $207 $208 $209 reversed $81 $-1 #
face $-1 $-1 $210 $45 $-1 $211 forward single #
loop $-1 $212 $213 $83 #
cone-surface $-1 51.793517029492136 -14.881725650358215 2.2232868581734309 -0.57357644374324357 0 -0.81915203911291934 0.20478800977822983 0 -0.14339411093581089 1 I I -0.70710678118654746 0.70710678118654746 0.25 forward I I I I #
loop $-1 $-1 $214 $58 #
coedge $-1 $133 $133 $215 $216 reversed $84 $-1 #
face $-1 $-1 $217 $46 $-1 $218 forward single #
loop $-1 $219 $220 $86 #
cone-surface $-1 51.793517029492136 -13.079589482871675 2.2232868581734309 -0.57357644374324357 0 -0.81915203911291934 0.20478800977822983 0 -0.14339411093581089 1 I I -0.70710678118654746 0.70710678118654746 0.25 forward I I I I #
loop $-1 $-1 $221 $59 #
coedge $-1 $138 $138 $222 $223 reversed $87 $-1 #
face $-1 $-1 $224 $47 $-1 $225 forward single #
loop $-1 $226 $227 $89 #
cone-surface $-1 51.793517029492136 -11.277453315385136 2.2232868581734309 -0.57357644374324357 0 -0.81915203911291934 0.20478800977822983 0 -0.14339411093581089 1 I I -0.70710678118654746 0.70710678118654746 0.25 forward I I I I #
loop $-1 $-1 $228 $60 #
coedge $-1 $143 $143 $229 $230 reversed $90 $-1 #
face $-1 $231 $232 $48 $-1 $233 reversed single #
loop $-1 $-1 $234 $92 #
plane-surface $-1 -36.422312117081674 5.8851667391593061 65.860303023517019 0.57357644374324357 0 0.81915203911291934 0.81915203911291934 0 -0.57357644374324357 forward_v I I I I #
coedge $-1 $235 $236 $237 $238 reversed $93 $-1 #
face $-1 $-1 $239 $49 $-1 $240 forward single #
loop $-1 $241 $242 $95 #
cone-surface $-1 51.793517029492136 4.0830305716727686 2.2232868581734309 -0.57357644374324357 0 -0.81915203911291934 0.20478800977822983 0 -0.14339411093581089 1 I I -0.70710678118654746 0.70710678118654746 0.25 forward I I I I #
loop $-1 $-1 $243 $62 #
coedge $-1 $152 $152 $244 $245 reversed $96 $-1 #
face $-1 $-1 $246 $50 $-1 $247 forward single #
loop $-1 $248 $249 $98 #
cone-surface $-1 51.793517029492136 5.8851667391593061 2.2232868581734309 -0.57357644374324357 0 -0.81915203911291934 0.20478800977822983 0 -0.14339411093581089 1 I I -0.70710678118654746 0.70710678118654746 0.25 forward I I I I #
loop $-1 $-1 $250 $63 #
coedge $-1 $157 $157 $251 $252 reversed $99 $-1 #
face $-1 $-1 $253 $51 $-1 $254 forward single #
loop $-1 $255 $256 $101 #
cone-surface $-1 51.793517029492136 7.6873029066458507 2.2232868581734309 -0.57357644374324357 0 -0.81915203911291934 0.20478800977822983 0 -0.14339411093581089 1 I I -0.70710678118654746 0.70710678118654746 0.25 forward I I I I #
loop $-1 $-1 $257 $64 #
coedge $-1 $162 $162 $258 $259 reversed $102 $-1 #
face $-1 $260 $261 $39 $-1 $262 reversed single #
loop $-1 $-1 $263 $104 #
plane-surface $-1 0 -26.728513666561934 0 0 1 0 0 0 1 forward_v I I I I #
coedge $-1 $264 $265 $266 $267 forward $105 $-1 #
coedge $-1 $268 $107 $269 $270 forward $66 $-1 #
coedge $-1 $107 $268 $271 $272 forward $66 $-1 #
coedge $-1 $273 $274 $107 $170 reversed $275 $-1 #
edge $-1 $276 -26.728513666561934 $277 26.728513666561934 $169 $278 forward 7 unknown #
face $-1 $279 $280 $40 $-1 $281 reversed single #
loop $-1 $-1 $282 $108 #
plane-surface $-1 0 0 -6.5504313271459793 0 0 1 1 0 0 forward_v I I I I #
coedge $-1 $283 $284 $285 $286 reversed $109 $-1 #
coedge $-1 $287 $111 $284 $288 forward $69 $-1 #
coedge $-1 $111 $287 $289 $290 reversed $69 $-1 #
coedge $-1 $291 $285 $111 $178 forward $280 $-1 #
edge $-1 $292 7.2189439054017672 $293 15.412694475907367 $177 $294 forward 7 unknown #
face $-1 $295 $296 $41 $-1 $297 reversed single #
loop $-1 $-1 $298 $112 #
plane-surface $-1 0 26.728513666561934 0 0 -1 0 0 0 -1 forward_v I I I I #
coedge $-1 $299 $300 $301 $302 reversed $113 $-1 #
coedge $-1 $303 $115 $299 $304 forward $72 $-1 #
coedge $-1 $115 $303 $298 $305 reversed $72 $-1 #
coedge $-1 $306 $307 $115 $186 forward $308 $-1 #
edge $-1 $309 7.8639335943637416 $310 15.19769791292004 $185 $311 forward 7 unknown #
face $-1 $312 $313 $42 $-1 $314 reversed single #
loop $-1 $-1 $315 $116 #
plane-surface $-1 -144.4836958941687 -7.8320621545833227 76.223228392036162 0 -1 0 0.7660444514056185 0 -0.64278759981090561 forward_v I I I I #
coedge $-1 $316 $317 $318 $319 reversed $117 $-1 #
coedge $-1 $192 $119 $320 $321 reversed $75 $-1 #
coedge $-1 $119 $191 $316 $322 reversed $75 $-1 #
coedge $-1 $318 $323 $119 $194 forward $324 $-1 #
edge $-1 $325 15.180780409622884 $326 18.271600652722732 $193 $327 forward 7 unknown #
loop $-1 $-1 $200 $120 #
plane-surface $-1 -57.061067537461469 -13.183412625319828 2.8669351019304798 -0.7660444514056185 0 0.64278759981090561 0.64278759981090561 0 0.7660444514056185 forward_v I I I I #
loop $-1 $-1 $328 $77 #
coedge $-1 $198 $198 $199 $329 reversed $121 $-1 #
coedge $-1 $199 $199 $198 $329 forward $123 $-1 #
coedge $-1 $200 $200 $124 $201 forward $195 $-1 #
edge $-1 $330 0 $330 6.2831853071796004 $200 $331 forward 7 unknown #
face $-1 $332 $333 $44 $-1 $334 forward single #
loop $-1 $-1 $335 $125 #
plane-surface $-1 29.03545627157871 -16.083149762015907 159.34368267806016 0 1 0 0.57357644374324357 0 0.81915203911291934 forward_v I I I I #
coedge $-1 $336 $337 $338 $339 reversed $126 $-1 #
coedge $-1 $207 $128 $340 $341 reversed $81 $-1 #
coedge $-1 $128 $206 $336 $342 reversed $81 $-1 #
coedge $-1 $338 $343 $128 $209 forward $333 $-1 #
edge $-1 $344 -42.543339401672114 $345 -33.763233163559704 $208 $346 forward 7 unknown #
loop $-1 $-1 $215 $129 #
plane-surface $-1 -36.422312117081674 -13.079589482871675 65.860303023517019 0.57357644374324357 0 0.81915203911291934 0.81915203911291934 0 -0.57357644374324357 forward_v I I I I #
loop $-1 $-1 $347 $83 #
coedge $-1 $213 $213 $214 $348 reversed $130 $-1 #
coedge $-1 $214 $214 $213 $348 forward $132 $-1 #
coedge $-1 $215 $215 $133 $216 forward $210 $-1 #
edge $-1 $349 0 $349 6.2831853071796004 $215 $350 forward 7 unknown #
loop $-1 $-1 $222 $134 #
plane-surface $-1 -36.422312117081674 -13.079589482871675 65.860303023517019 0.57357644374324357 0 0.81915203911291934 0.81915203911291934 0 -0.57357644374324357 forward_v I I I I #
loop $-1 $-1 $351 $86 #
coedge $-1 $220 $220 $221 $352 reversed $135 $-1 #
coedge $-1 $221 $221 $220 $352 forward $137 $-1 #
coedge $-1 $222 $222 $138 $223 forward $217 $-1 #
edge $-1 $353 0 $353 6.2831853071796004 $222 $354 forward 7 unknown #
loop $-1 $-1 $229 $139 #
plane-surface $-1 -36.422312117081674 -13.079589482871675 65.860303023517019 0.57357644374324357 0 0.81915203911291934 0.81915203911291934 0 -0.57357644374324357 forward_v I I I I #
loop $-1 $-1 $355 $89 #
coedge $-1 $227 $227 $228 $356 reversed $140 $-1 #
coedge $-1 $228 $228 $227 $356 forward $142 $-1 #
coedge $-1 $229 $229 $143 $230 forward $224 $-1 #
edge $-1 $357 0 $357 6.2831853071796004 $229 $358 forward 7 unknown #
face $-1 $359 $360 $48 $-1 $361 reversed single #
loop $-1 $-1 $362 $144 #
plane-surface $-1 29.03545627157871 2.8816064600150746 159.34368267806016 0 1 0 0.57357644374324357 0 0.81915203911291934 forward_v I I I I #
coedge $-1 $363 $364 $365 $366 reversed $145 $-1 #
coedge $-1 $236 $147 $367 $368 reversed $93 $-1 #
coedge $-1 $147 $235 $363 $369 reversed $93 $-1 #
coedge $-1 $365 $370 $147 $238 forward $371 $-1 #
edge $-1 $372 -42.543339401672114 $373 -33.763233163559704 $237 $374 forward 7 unknown #
loop $-1 $-1 $244 $148 #
plane-surface $-1 -36.422312117081674 5.8851667391593061 65.860303023517019 0.57357644374324357 0 0.81915203911291934 0.81915203911291934 0 -0.57357644374324357 forward_v I I I I #
loop $-1 $-1 $375 $95 #
coedge $-1 $242 $242 $243 $376 reversed $149 $-1 #
coedge $-1 $243 $243 $242 $376 forward $151 $-1 #
coedge $-1 $244 $244 $152 $245 forward $239 $-1 #
edge $-1 $377 0 $377 6.2831853071796004 $244 $378 forward 7 unknown #
loop $-1 $-1 $251 $153 #
plane-surface $-1 -36.422312117081674 5.8851667391593061 65.860303023517019 0.57357644374324357 0 0.81915203911291934 0.81915203911291934 0 -0.57357644374324357 forward_v I I I I #
loop $-1 $-1 $379 $98 #
coedge $-1 $249 $249 $250 $380 reversed $154 $-1 #
coedge $-1 $250 $250 $249 $380 forward $156 $-1 #
coedge $-1 $251 $251 $157 $252 forward $246 $-1 #
edge $-1 $381 0 $381 6.2831853071796004 $251 $382 forward 7 unknown #
loop $-1 $-1 $258 $158 #
plane-surface $-1 -36.422312117081674 5.8851667391593061 65.860303023517019 0.57357644374324357 0 0.81915203911291934 0.81915203911291934 0 -0.57357644374324357 forward_v I I I I #
loop $-1 $-1 $383 $101 #
coedge $-1 $256 $256 $257 $384 reversed $159 $-1 #
coedge $-1 $257 $257 $256 $384 forward $161 $-1 #
coedge $-1 $258 $258 $162 $259 forward $253 $-1 #
edge $-1 $385 0 $385 6.2831853071796004 $258 $386 forward 7 unknown #
face $-1 $387 $388 $39 $-1 $389 reversed single #
loop $-1 $-1 $390 $163 #
plane-surface $-1 -57.061067537461469 0 0 1 0 0 0 0 -1 forward_v I I I I #
coedge $-1 $391 $271 $392 $393 forward $164 $-1 #
coedge $-1 $394 $166 $391 $395 forward $105 $-1 #
coedge $-1 $166 $394 $396 $397 forward $105 $-1 #
coedge $-1 $274 $273 $166 $267 reversed $275 $-1 #
edge $-1 $398 -26.728513666561934 $399 26.728513666561934 $266 $400 forward 7 unknown #
coedge $-1 $168 $167 $401 $402 forward $66 $-1 #
coedge $-1 $403 $404 $167 $270 reversed $388 $-1 #
edge $-1 $277 -57.061067537461469 $405 57.061067537461469 $269 $406 forward 7 unknown #
coedge $-1 $263 $407 $168 $272 reversed $164 $-1 #
edge $-1 $408 -57.061067537461469 $276 57.061067537461469 $271 $409 forward 7 unknown #
coedge $-1 $266 $169 $407 $410 forward $275 $-1 #
coedge $-1 $169 $266 $403 $411 reversed $275 $-1 #
loop $-1 $-1 $273 $387 #
vertex $-1 $170 $412 #
vertex $-1 $170 $413 #
straight-curve $-1 57.061067537461469 0 6.5504313271459793 0 1 0 I I #
face $-1 $414 $415 $40 $-1 $416 reversed single #
loop $-1 $-1 $285 $171 #
plane-surface $-1 57.061067537461469 0 0 -1 0 0 0 0 1 forward_v I I I I #
coedge $-1 $417 $418 $283 $419 forward $172 $-1 #
coedge $-1 $420 $174 $282 $419 reversed $109 $-1 #
coedge $-1 $174 $420 $175 $288 reversed $109 $-1 #
coedge $-1 $177 $421 $174 $286 forward $280 $-1 #
edge $-1 $422 -4.0252156635729897 $292 -1.0252156635729897 $285 $423 forward 7 unknown #
coedge $-1 $176 $175 $424 $425 reversed $69 $-1 #
edge $-1 $292 -57.061067537461469 $426 57.061067537461469 $284 $427 forward 7 unknown #
coedge $-1 $428 $429 $176 $290 forward $415 $-1 #
edge $-1 $293 -57.061067537461469 $430 57.061067537461469 $289 $431 forward 7 unknown #
coedge $-1 $421 $177 $429 $432 forward $280 $-1 #
vertex $-1 $178 $433 #
vertex $-1 $432 $434 #
straight-curve $-1 57.061067537461469 -11.315819190654567 -3.5504313271459793 0 -1 0 I I #
face $-1 $435 $436 $41 $-1 $437 forward single #
loop $-1 $-1 $438 $179 #
plane-surface $-1 -57.061067537461469 0 0 1 0 0 0 0 -1 forward_v I I I I #
coedge $-1 $439 $440 $184 $305 forward $180 $-1 #
coedge $-1 $441 $182 $183 $304 reversed $113 $-1 #
coedge $-1 $182 $441 $442 $443 reversed $113 $-1 #
coedge $-1 $444 $438 $182 $302 forward $296 $-1 #
edge $-1 $445 0.42257848630901673 $446 4.2260947226609806 $301 $447 forward 7 unknown #
coedge $-1 $184 $183 $438 $448 reversed $72 $-1 #
edge $-1 $309 -57.061067537461469 $445 57.061067537461469 $299 $449 forward 7 unknown #
edge $-1 $310 -57.061067537461469 $450 57.061067537461469 $298 $451 forward 7 unknown #
coedge $-1 $452 $185 $440 $453 reversed $308 $-1 #
coedge $-1 $185 $452 $441 $454 forward $308 $-1 #
loop $-1 $-1 $185 $435 #
vertex $-1 $186 $455 #
vertex $-1 $305 $456 #
straight-curve $-1 57.061067537461469 11.530815753641891 2.7469150907940154 0 1 0 I I #
face $-1 $-1 $324 $42 $-1 $457 forward single #
loop $-1 $-1 $458 $187 #
plane-surface $-1 -57.061067537461469 0 0 1 0 0 0 0 -1 forward_v I I I I #
coedge $-1 $459 $460 $461 $462 reversed $188 $-1 #
coedge $-1 $463 $190 $192 $322 forward $117 $-1 #
coedge $-1 $190 $463 $459 $464 forward $117 $-1 #
coedge $-1 $461 $193 $190 $319 forward $324 $-1 #
edge $-1 $326 -11.94305678339642 $465 -1.2403558419234084 $318 $466 forward 7 unknown #
coedge $-1 $467 $468 $191 $321 forward $313 $-1 #
edge $-1 $469 -35.244679094087601 $325 -31.561182868872102 $320 $470 forward 7 unknown #
edge $-1 $326 -4.8084627706089869 $469 0 $192 $471 forward 7 unknown #
coedge $-1 $193 $461 $467 $472 forward $324 $-1 #
loop $-1 $-1 $461 $312 #
vertex $-1 $321 $473 #
vertex $-1 $194 $474 #
straight-curve $-1 -72.241847947084352 -18.534763096056334 6.5504313271459793 1 0 0 I I #
coedge $-1 $328 $328 $-1 $475 reversed $197 $-1 #
edge $-1 $476 0 $476 6.2831853071796004 $198 $477 forward 7 unknown #
vertex $-1 $201 $478 #
ellipse-curve $-1 -55.515657415911548 -13.183412625319828 4.7086832145382305 -0.7660444514056185 0 0.64278759981090561 0.3213937999054528 0 0.38302222570280925 1 I I #
face $-1 $-1 $479 $44 $-1 $480 reversed single #
loop $-1 $-1 $208 $202 #
plane-surface $-1 0 0 6.5504313271459793 0 0 1 1 0 0 forward_v I I I I #
coedge $-1 $481 $482 $483 $484 reversed $203 $-1 #
coedge $-1 $485 $205 $207 $342 forward $126 $-1 #
coedge $-1 $205 $485 $481 $486 forward $126 $-1 #
coedge $-1 $483 $208 $205 $339 forward $333 $-1 #
edge $-1 $345 3.5362344622916062 $487 9.5433550205800692 $338 $488 forward 7 unknown #
coedge $-1 $489 $490 $206 $341 forward $479 $-1 #
edge $-1 $491 -79.269306704173445 $344 -73.121410011884109 $340 $492 forward 7 unknown #
edge $-1 $345 103.40360442508091 $491 114.12213507492294 $207 $493 forward 7 unknown #
coedge $-1 $208 $483 $489 $494 forward $333 $-1 #
vertex $-1 $209 $495 #
vertex $-1 $209 $496 #
straight-curve $-1 14.517728135789355 -10.076029203727444 6.5504313271459722 -1 0 0 I I #
coedge $-1 $347 $347 $-1 $497 reversed $212 $-1 #
edge $-1 $498 0 $498 6.2831853071796004 $213 $499 forward 7 unknown #
vertex $-1 $216 $500 #
ellipse-curve $-1 52.671014418405257 -14.881725650358215 3.4764829810013191 0.57357644374324357 0 0.81915203911291934 0.40957601955645967 0 -0.28678822187162178 1 I I #
coedge $-1 $351 $351 $-1 $501 reversed $219 $-1 #
edge $-1 $502 0 $502 6.2831853071796004 $220 $503 forward 7 unknown #
vertex $-1 $223 $504 #
ellipse-curve $-1 52.671014418405257 -13.079589482871675 3.4764829810013191 0.57357644374324357 0 0.81915203911291934 0.40957601955645967 0 -0.28678822187162178 1 I I #
coedge $-1 $355 $355 $-1 $505 reversed $226 $-1 #
edge $-1 $506 0 $506 6.2831853071796004 $227 $507 forward 7 unknown #
vertex $-1 $230 $508 #
ellipse-curve $-1 52.671014418405257 -11.277453315385136 3.4764829810013191 0.57357644374324357 0 0.81915203911291934 0.40957601955645967 0 -0.28678822187162178 1 I I #
face $-1 $-1 $371 $48 $-1 $509 forward single #
loop $-1 $-1 $510 $231 #
plane-surface $-1 57.061067537461469 0 0 -1 0 0 0 0 1 forward_v I I I I #
coedge $-1 $511 $512 $513 $514 reversed $232 $-1 #
coedge $-1 $515 $234 $236 $369 forward $145 $-1 #
coedge $-1 $234 $515 $511 $516 forward $145 $-1 #
coedge $-1 $513 $237 $234 $366 forward $371 $-1 #
edge $-1 $373 -5.9461436487238846 $517 0.060976909564578463 $365 $518 forward 7 unknown #
coedge $-1 $519 $520 $235 $368 forward $360 $-1 #
edge $-1 $521 -79.269306704173445 $372 -73.121410011884109 $367 $522 forward 7 unknown #
edge $-1 $373 103.40360442508091 $521 114.12213507492294 $236 $523 forward 7 unknown #
coedge $-1 $237 $513 $519 $524 forward $371 $-1 #
loop $-1 $-1 $513 $359 #
vertex $-1 $368 $525 #
vertex $-1 $238 $526 #
straight-curve $-1 14.517728135789355 8.8887270183035376 6.5504313271459722 -1 0 0 I I #
coedge $-1 $375 $375 $-1 $527 reversed $241 $-1 #
edge $-1 $528 0 $528 6.2831853071796004 $242 $529 forward 7 unknown #
vertex $-1 $245 $530 #
ellipse-curve $-1 52.671014418405257 4.0830305716727686 3.4764829810013191 0.57357644374324357 0 0.81915203911291934 0.40957601955645967 0 -0.28678822187162178 1 I I #
coedge $-1 $379 $379 $-1 $531 reversed $248 $-1 #
edge $-1 $532 0 $532 6.2831853071796004 $249 $533 forward 7 unknown #
vertex $-1 $252 $534 #
ellipse-curve $-1 52.671014418405257 5.8851667391593061 3.4764829810013191 0.57357644374324357 0 0.81915203911291934 0.40957601955645967 0 -0.28678822187162178 1 I I #
coedge $-1 $383 $383 $-1 $535 reversed $255 $-1 #
edge $-1 $536 0 $536 6.2831853071796004 $256 $537 forward 7 unknown #
vertex $-1 $259 $538 #
ellipse-curve $-1 52.671014418405257 7.6873029066458507 3.4764829810013191 0.57357644374324357 0 0.81915203911291934 0.40957601955645967 0 -0.28678822187162178 1 I I #
face $-1 $-1 $275 $39 $-1 $539 reversed single #
loop $-1 $-1 $403 $260 #
plane-surface $-1 0 26.728513666561934 0 0 -1 0 0 0 -1 forward_v I I I I #
coedge $-1 $540 $401 $404 $541 forward $261 $-1 #
coedge $-1 $407 $263 $264 $395 reversed $164 $-1 #
coedge $-1 $401 $540 $263 $393 reversed $261 $-1 #
edge $-1 $408 -6.5504313271459793 $542 6.5504313271459793 $392 $543 forward 7 unknown #
coedge $-1 $265 $264 $540 $544 forward $105 $-1 #
edge $-1 $399 -57.061067537461469 $542 57.061067537461469 $391 $545 forward 7 unknown #
coedge $-1 $404 $403 $265 $397 reversed $388 $-1 #
edge $-1 $546 -57.061067537461469 $398 57.061067537461469 $396 $547 forward 7 unknown #
vertex $-1 $267 $548 #
vertex $-1 $410 $549 #
straight-curve $-1 57.061067537461469 0 -6.5504313271459793 0 -1 0 I I #
coedge $-1 $390 $392 $268 $402 reversed $261 $-1 #
edge $-1 $405 -26.728513666561934 $408 26.728513666561934 $401 $550 forward 7 unknown #
coedge $-1 $396 $269 $274 $411 forward $388 $-1 #
coedge $-1 $269 $396 $390 $541 reversed $388 $-1 #
vertex $-1 $270 $551 #
straight-curve $-1 0 26.728513666561934 6.5504313271459793 -1 0 0 I I #
coedge $-1 $271 $391 $273 $410 reversed $164 $-1 #
vertex $-1 $402 $552 #
straight-curve $-1 0 -26.728513666561934 6.5504313271459793 1 0 0 I I #
edge $-1 $276 -6.5504313271459793 $399 6.5504313271459793 $273 $553 forward 7 unknown #
edge $-1 $277 -6.5504313271459793 $398 6.5504313271459793 $274 $554 forward 7 unknown #
point $-1 57.061067537461469 -26.728513666561934 6.5504313271459793 #
point $-1 57.061067537461469 26.728513666561934 6.5504313271459793 #
face $-1 $-1 $555 $40 $-1 $556 reversed single #
loop $-1 $-1 $289 $279 #
plane-surface $-1 0 -26.728513666561934 0 0 1 0 0 0 1 forward_v I I I I #
coedge $-1 $557 $282 $421 $558 forward $172 $-1 #
coedge $-1 $282 $557 $559 $560 forward $172 $-1 #
edge $-1 $561 -57.061067537461469 $422 57.061067537461469 $282 $562 forward 7 unknown #
coedge $-1 $284 $283 $563 $564 reversed $109 $-1 #
coedge $-1 $285 $291 $417 $558 reversed $280 $-1 #
vertex $-1 $558 $565 #
straight-curve $-1 57.061067537461469 -18.534763096056334 -2.5252156635729897 0 0 1 I I #
coedge $-1 $563 $566 $287 $425 forward $555 $-1 #
edge $-1 $430 -15.412694475907367 $426 -7.2189439054017672 $424 $567 forward 7 unknown #
vertex $-1 $425 $568 #
straight-curve $-1 0 -18.534763096056334 -3.5504313271459793 -1 0 0 I I #
coedge $-1 $569 $289 $566 $570 forward $415 $-1 #
coedge $-1 $289 $569 $291 $432 reversed $415 $-1 #
vertex $-1 $570 $571 #
straight-curve $-1 0 -26.728513666561934 -3.5504313271459793 -1 0 0 I I #
edge $-1 $293 3.5504313271459793 $572 6.5504313271459793 $291 $573 forward 7 unknown #
point $-1 57.061067537461469 -18.534763096056334 -3.5504313271459793 #
point $-1 57.061067537461469 -26.728513666561934 -3.5504313271459793 #
face $-1 $-1 $308 $41 $-1 $574 reversed single #
loop $-1 $-1 $442 $295 #
plane-surface $-1 0 0 6.5504313271459793 0 0 1 1 0 0 forward_v I I I I #
coedge $-1 $301 $575 $303 $448 forward $296 $-1 #
coedge $-1 $576 $298 $575 $577 reversed $180 $-1 #
coedge $-1 $298 $576 $306 $453 forward $180 $-1 #
coedge $-1 $300 $299 $307 $454 reversed $113 $-1 #
coedge $-1 $578 $579 $300 $443 forward $436 $-1 #
edge $-1 $446 -57.061067537461469 $580 57.061067537461469 $442 $581 forward 7 unknown #
coedge $-1 $575 $301 $579 $582 reversed $296 $-1 #
vertex $-1 $448 $583 #
vertex $-1 $302 $584 #
straight-curve $-1 -57.061067537461469 19.394749348005632 2.3243366044849987 0 0 1 I I #
edge $-1 $450 -15.19769791292004 $445 -7.8639335943637416 $438 $585 forward 7 unknown #
straight-curve $-1 0 19.394749348005632 2.7469150907940154 -1 0 0 I I #
vertex $-1 $305 $586 #
straight-curve $-1 0 26.728513666561934 2.7469150907940154 -1 0 0 I I #
coedge $-1 $307 $306 $578 $587 reversed $308 $-1 #
edge $-1 $588 -6.5504313271459793 $310 -2.7469150907940154 $306 $589 forward 7 unknown #
edge $-1 $580 -4.2260947226609806 $309 -0.42257848630901673 $307 $590 forward 7 unknown #
point $-1 57.061067537461469 19.394749348005632 2.7469150907940154 #
point $-1 57.061067537461469 26.728513666561931 2.7469150907940154 #
plane-surface $-1 0 0 6.5504313271459793 0 0 1 1 0 0 forward_v I I I I #
coedge $-1 $468 $467 $460 $591 forward $313 $-1 #
coedge $-1 $460 $315 $317 $464 reversed $188 $-1 #
coedge $-1 $315 $459 $458 $591 reversed $188 $-1 #
coedge $-1 $323 $318 $315 $462 forward $324 $-1 #
edge $-1 $465 -18.271600652722732 $592 -15.180780409622884 $461 $593 forward 7 unknown #
coedge $-1 $317 $316 $468 $594 reversed $117 $-1 #
edge $-1 $595 0 $465 4.8084627706089869 $459 $596 forward 7 unknown #
vertex $-1 $319 $597 #
straight-curve $-1 -53.97024729436162 -6.5917063126599142 6.5504313271459811 0 1 0 I I #
coedge $-1 $458 $320 $323 $472 reversed $313 $-1 #
coedge $-1 $320 $458 $463 $594 forward $313 $-1 #
vertex $-1 $321 $598 #
straight-curve $-1 -57.061067537461469 -18.534763096056334 38.111614196018081 0 0 1 I I #
straight-curve $-1 -57.061067537461469 -18.534763096056334 2.8669351019304798 -0.64278759981090561 0 -0.7660444514056185 I I #
edge $-1 $592 7.8320621545833227 $325 18.534763096056334 $467 $599 forward 7 unknown #
point $-1 -57.061067537461469 -18.534763096056334 6.5504313271459793 #
point $-1 -53.97024729436162 -18.534763096056334 6.5504313271459793 #
edge $-1 $600 1 $600 0 $328 $-1 forward 7 unknown #
vertex $-1 $329 $601 #
ellipse-curve $-1 -54.749612964505914 -13.183412625319828 4.0658956147273146 -0.7660444514056185 0 0.64278759981090561 0.3213937999054528 0 0.38302222570280925 1 I I #
point $-1 -55.194263616006083 -13.183412625319828 5.0917054402410296 #
loop $-1 $-1 $340 $332 #
plane-surface $-1 57.061067537461469 0 0 -1 0 0 0 0 1 forward_v I I I I #
coedge $-1 $482 $335 $337 $486 reversed $203 $-1 #
coedge $-1 $335 $481 $602 $603 reversed $203 $-1 #
coedge $-1 $343 $338 $335 $484 forward $333 $-1 #
edge $-1 $487 33.763233163559704 $604 42.543339401672114 $483 $605 forward 7 unknown #
coedge $-1 $337 $336 $490 $606 reversed $126 $-1 #
edge $-1 $607 -114.12213507492294 $487 -103.40360442508091 $481 $608 forward 7 unknown #
vertex $-1 $339 $609 #
straight-curve $-1 48.280961299349045 -6.5397947414358377 6.5504313271459864 0 -1 0 I I #
coedge $-1 $602 $340 $343 $494 reversed $479 $-1 #
coedge $-1 $340 $602 $485 $606 forward $479 $-1 #
vertex $-1 $341 $610 #
straight-curve $-1 57.061067537461469 -10.076029203727444 79.671841339030081 0 0 1 I I #
straight-curve $-1 -36.422312117081674 -10.076029203727444 65.860303023517019 0.81915203911291934 0 -0.57357644374324357 I I #
edge $-1 $604 -16.083149762015907 $344 -10.076029203727444 $489 $611 forward 7 unknown #
point $-1 57.061067537461469 -10.076029203727444 6.5504313271459793 #
point $-1 48.280961299349059 -10.076029203727444 6.5504313271459793 #
edge $-1 $612 1 $612 0 $347 $-1 forward 7 unknown #
vertex $-1 $348 $613 #
ellipse-curve $-1 51.936911140427945 -14.881725650358215 2.4280748679516608 0.57357644374324357 0 0.81915203911291934 0.40957601955645967 0 -0.28678822187162178 1 I I #
point $-1 53.08059043796171 -14.881725650358215 3.1896947591296945 #
edge $-1 $614 1 $614 0 $351 $-1 forward 7 unknown #
vertex $-1 $352 $615 #
ellipse-curve $-1 51.936911140427945 -13.079589482871675 2.4280748679516608 0.57357644374324357 0 0.81915203911291934 0.40957601955645967 0 -0.28678822187162178 1 I I #
point $-1 53.08059043796171 -13.079589482871675 3.1896947591296945 #
edge $-1 $616 1 $616 0 $355 $-1 forward 7 unknown #
vertex $-1 $356 $617 #
ellipse-curve $-1 51.936911140427945 -11.277453315385136 2.4280748679516608 0.57357644374324357 0 0.81915203911291934 0.40957601955645967 0 -0.28678822187162178 1 I I #
point $-1 53.08059043796171 -11.277453315385136 3.1896947591296945 #
plane-surface $-1 0 0 6.5504313271459793 0 0 1 1 0 0 forward_v I I I I #
coedge $-1 $520 $519 $512 $618 forward $360 $-1 #
coedge $-1 $512 $362 $364 $516 reversed $232 $-1 #
coedge $-1 $362 $511 $510 $618 reversed $232 $-1 #
coedge $-1 $370 $365 $362 $514 forward $371 $-1 #
edge $-1 $517 33.763233163559704 $619 42.543339401672114 $513 $620 forward 7 unknown #
coedge $-1 $364 $363 $520 $621 reversed $145 $-1 #
edge $-1 $622 -114.12213507492294 $517 -103.40360442508091 $511 $623 forward 7 unknown #
vertex $-1 $366 $624 #
straight-curve $-1 48.280961299349045 2.9425833695796531 6.5504313271459864 0 -1 0 I I #
coedge $-1 $510 $367 $370 $524 reversed $360 $-1 #
coedge $-1 $367 $510 $515 $621 forward $360 $-1 #
vertex $-1 $368 $625 #
straight-curve $-1 57.061067537461469 8.8887270183035376 79.671841339030081 0 0 1 I I #
straight-curve $-1 -36.422312117081674 8.8887270183035376 65.860303023517019 0.81915203911291934 0 -0.57357644374324357 I I #
edge $-1 $619 2.8816064600150746 $372 8.8887270183035376 $519 $626 forward 7 unknown #
point $-1 57.061067537461469 8.8887270183035376 6.5504313271459793 #
point $-1 48.280961299349059 8.8887270183035376 6.5504313271459793 #
edge $-1 $627 1 $627 0 $375 $-1 forward 7 unknown #
vertex $-1 $376 $628 #
ellipse-curve $-1 51.936911140427945 4.0830305716727686 2.4280748679516608 0.57357644374324357 0 0.81915203911291934 0.40957601955645967 0 -0.28678822187162178 1 I I #
point $-1 53.08059043796171 4.0830305716727686 3.1896947591296945 #
edge $-1 $629 1 $629 0 $379 $-1 forward 7 unknown #
vertex $-1 $380 $630 #
ellipse-curve $-1 51.936911140427945 5.8851667391593061 2.4280748679516608 0.57357644374324357 0 0.81915203911291934 0.40957601955645967 0 -0.28678822187162178 1 I I #
point $-1 53.08059043796171 5.8851667391593061 3.1896947591296945 #
edge $-1 $631 1 $631 0 $383 $-1 forward 7 unknown #
vertex $-1 $384 $632 #
ellipse-curve $-1 51.936911140427945 7.6873029066458507 2.4280748679516608 0.57357644374324357 0 0.81915203911291934 0.40957601955645967 0 -0.28678822187162178 1 I I #
point $-1 53.08059043796171 7.6873029066458507 3.1896947591296945 #
plane-surface $-1 57.061067537461469 0 0 -1 0 0 0 0 1 forward_v I I I I #
coedge $-1 $392 $390 $394 $544 reversed $261 $-1 #
edge $-1 $405 -6.5504313271459793 $546 6.5504313271459793 $404 $633 forward 7 unknown #
vertex $-1 $544 $634 #
straight-curve $-1 -57.061067537461469 -26.728513666561934 0 0 0 -1 I I #
edge $-1 $542 -26.728513666561934 $546 26.728513666561934 $540 $635 forward 7 unknown #
straight-curve $-1 0 -26.728513666561934 -6.5504313271459793 -1 0 0 I I #
vertex $-1 $397 $636 #
straight-curve $-1 0 26.728513666561934 -6.5504313271459793 1 0 0 I I #
point $-1 57.061067537461469 26.728513666561934 -6.5504313271459793 #
point $-1 57.061067537461469 -26.728513666561934 -6.5504313271459793 #
straight-curve $-1 -57.061067537461469 0 6.5504313271459793 0 -1 0 I I #
point $-1 -57.061067537461469 26.728513666561934 6.5504313271459793 #
point $-1 -57.061067537461469 -26.728513666561934 6.5504313271459793 #
straight-curve $-1 57.061067537461469 -26.728513666561934 0 0 0 -1 I I #
straight-curve $-1 57.061067537461469 26.728513666561934 0 0 0 -1 I I #
loop $-1 $-1 $563 $414 #
plane-surface $-1 -57.061067537461469 0 0 1 0 0 0 0 -1 forward_v I I I I #
coedge $-1 $418 $417 $569 $637 forward $172 $-1 #
edge $-1 $422 18.534763096056334 $572 26.728513666561934 $421 $638 forward 7 unknown #
coedge $-1 $566 $563 $418 $560 reversed $555 $-1 #
edge $-1 $639 -26.728513666561934 $561 -18.534763096056334 $559 $640 forward 7 unknown #
vertex $-1 $564 $641 #
straight-curve $-1 0 -18.534763096056334 -6.5504313271459793 1 0 0 I I #
coedge $-1 $559 $424 $420 $564 forward $555 $-1 #
edge $-1 $426 1.0252156635729897 $561 4.0252156635729897 $563 $642 forward 7 unknown #
point $-1 57.061067537461469 -18.534763096056334 -6.5504313271459793 #
coedge $-1 $424 $559 $428 $570 reversed $555 $-1 #
straight-curve $-1 -57.061067537461469 -11.315819190654567 -3.5504313271459793 0 1 0 I I #
point $-1 -57.061067537461469 -18.534763096056334 -3.5504313271459793 #
coedge $-1 $429 $428 $557 $637 reversed $415 $-1 #
edge $-1 $430 3.5504313271459793 $639 6.5504313271459793 $566 $643 forward 7 unknown #
point $-1 -57.061067537461469 -26.728513666561934 -3.5504313271459793 #
vertex $-1 $432 $644 #
straight-curve $-1 57.061067537461469 -26.728513666561934 0 0 0 -1 I I #
plane-surface $-1 57.061067537461469 0 0 -1 0 0 0 0 1 forward_v I I I I #
coedge $-1 $438 $444 $439 $577 forward $296 $-1 #
coedge $-1 $440 $439 $645 $646 reversed $180 $-1 #
edge $-1 $647 -6.5504313271459793 $450 -2.7469150907940154 $439 $648 forward 7 unknown #
coedge $-1 $645 $442 $452 $587 forward $436 $-1 #
coedge $-1 $442 $645 $444 $582 forward $436 $-1 #
vertex $-1 $587 $649 #
straight-curve $-1 0 19.394749348005632 6.5504313271459793 1 0 0 I I #
edge $-1 $647 -26.728513666561934 $446 -19.394749348005632 $444 $650 forward 7 unknown #
point $-1 -57.061067537461469 19.394749348005632 2.7469150907940154 #
point $-1 -57.061067537461469 19.394749348005632 6.5504313271459793 #
straight-curve $-1 -57.061067537461469 11.530815753641891 2.7469150907940154 0 -1 0 I I #
point $-1 -57.061067537461469 26.728513666561931 2.7469150907940154 #
edge $-1 $580 19.394749348005632 $588 26.728513666561934 $452 $651 forward 7 unknown #
vertex $-1 $587 $652 #
straight-curve $-1 57.061067537461469 26.728513666561934 0 0 0 -1 I I #
straight-curve $-1 57.061067537461469 19.394749348005632 2.3243366044849987 0 0 -1 I I #
edge $-1 $592 31.561182868872102 $595 35.244679094087601 $458 $653 forward 7 unknown #
vertex $-1 $472 $654 #
straight-curve $-1 -72.241847947084352 -7.8320621545833227 6.5504313271459793 -1 0 0 I I #
edge $-1 $595 1.2403558419234084 $469 11.94305678339642 $468 $655 forward 7 unknown #
vertex $-1 $594 $656 #
straight-curve $-1 -57.061067537461469 -7.8320621545833227 2.8669351019304798 0.64278759981090561 0 0.7660444514056185 I I #
point $-1 -53.97024729436162 -7.8320621545833227 6.5504313271459793 #
point $-1 -57.061067537461469 -18.534763096056334 2.8669351019304798 #
straight-curve $-1 -57.061067537461469 0 6.5504313271459793 0 -1 0 I I #
vertex $-1 $475 $657 #
point $-1 -54.428219164600463 -13.183412625319828 4.4489178404301235 #
coedge $-1 $490 $489 $482 $603 forward $479 $-1 #
edge $-1 $604 73.121410011884109 $607 79.269306704173445 $602 $658 forward 7 unknown #
vertex $-1 $494 $659 #
straight-curve $-1 14.517728135789355 -16.083149762015907 6.5504313271459722 1 0 0 I I #
edge $-1 $607 -9.5433550205800692 $491 -3.5362344622916062 $490 $660 forward 7 unknown #
vertex $-1 $606 $661 #
straight-curve $-1 -36.422312117081674 -16.083149762015907 65.860303023517019 -0.81915203911291934 0 0.57357644374324357 I I #
point $-1 48.280961299349059 -16.083149762015907 6.5504313271459793 #
point $-1 57.061067537461469 -10.076029203727444 0.40253463485663588 #
straight-curve $-1 57.061067537461469 0 6.5504313271459793 0 1 0 I I #
vertex $-1 $497 $662 #
point $-1 52.346487159984406 -14.881725650358215 2.1412866460800388 #
vertex $-1 $501 $663 #
point $-1 52.346487159984406 -13.079589482871675 2.1412866460800388 #
vertex $-1 $505 $664 #
point $-1 52.346487159984406 -11.277453315385136 2.1412866460800388 #
edge $-1 $619 73.121410011884109 $622 79.269306704173445 $510 $665 forward 7 unknown #
vertex $-1 $524 $666 #
straight-curve $-1 14.517728135789355 2.8816064600150746 6.5504313271459722 1 0 0 I I #
edge $-1 $622 -0.060976909564578463 $521 5.9461436487238846 $520 $667 forward 7 unknown #
vertex $-1 $621 $668 #
straight-curve $-1 -36.422312117081674 2.8816064600150746 65.860303023517019 -0.81915203911291934 0 0.57357644374324357 I I #
point $-1 48.280961299349059 2.8816064600150746 6.5504313271459793 #
point $-1 57.061067537461469 8.8887270183035376 0.40253463485663588 #
straight-curve $-1 57.061067537461469 0 6.5504313271459793 0 1 0 I I #
vertex $-1 $527 $669 #
point $-1 52.346487159984406 4.0830305716727686 2.1412866460800388 #
vertex $-1 $531 $670 #
point $-1 52.346487159984406 5.8851667391593061 2.1412866460800388 #
vertex $-1 $535 $671 #
point $-1 52.346487159984406 7.6873029066458507 2.1412866460800388 #
straight-curve $-1 -57.061067537461469 26.728513666561934 0 0 0 -1 I I #
point $-1 -57.061067537461469 -26.728513666561934 -6.5504313271459793 #
straight-curve $-1 -57.061067537461469 0 -6.5504313271459793 0 1 0 I I #
point $-1 -57.061067537461469 26.728513666561934 -6.5504313271459793 #
edge $-1 $572 -57.061067537461469 $639 57.061067537461469 $569 $672 forward 7 unknown #
straight-curve $-1 57.061067537461469 0 -6.5504313271459793 0 -1 0 I I #
vertex $-1 $560 $673 #
straight-curve $-1 -57.061067537461469 0 -6.5504313271459793 0 1 0 I I #
point $-1 -57.061067537461469 -18.534763096056334 -6.5504313271459793 #
straight-curve $-1 -57.061067537461469 -18.534763096056334 -2.5252156635729897 0 0 -1 I I #
straight-curve $-1 -57.061067537461469 -26.728513666561934 0 0 0 -1 I I #
point $-1 57.061067537461469 -26.728513666561934 -6.5504313271459793 #
coedge $-1 $579 $578 $576 $646 forward $436 $-1 #
edge $-1 $588 -57.061067537461469 $647 57.061067537461469 $576 $674 forward 7 unknown #
vertex $-1 $646 $675 #
straight-curve $-1 -57.061067537461469 26.728513666561934 0 0 0 -1 I I #
point $-1 57.061067537461469 19.394749348005632 6.5504313271459793 #
straight-curve $-1 -57.061067537461469 0 6.5504313271459793 0 -1 0 I I #
straight-curve $-1 57.061067537461469 0 6.5504313271459793 0 1 0 I I #
point $-1 57.061067537461469 26.728513666561934 6.5504313271459793 #
straight-curve $-1 -57.061067537461469 -7.8320621545833227 38.111614196018081 0 0 -1 I I #
point $-1 -57.061067537461469 -7.8320621545833227 6.5504313271459793 #
straight-curve $-1 -57.061067537461469 -6.5917063126599142 2.866935101930479 0 -1 0 I I #
point $-1 -57.061067537461469 -7.8320621545833227 2.8669351019304798 #
point $-1 -54.366590738803112 -13.183412625319828 3.7445018148218621 #
straight-curve $-1 57.061067537461469 -16.083149762015907 79.671841339030081 0 0 -1 I I #
point $-1 57.061067537461469 -16.083149762015907 6.5504313271459793 #
straight-curve $-1 57.061067537461483 -6.5397947414358377 0.40253463485663588 0 1 0 I I #
point $-1 57.061067537461469 -16.083149762015907 0.40253463485663588 #
point $-1 51.650122918556328 -14.881725650358215 2.0184988483952009 #
point $-1 51.650122918556328 -13.079589482871675 2.0184988483952009 #
point $-1 51.650122918556328 -11.277453315385136 2.0184988483952009 #
straight-curve $-1 57.061067537461469 2.8816064600150746 79.671841339030081 0 0 -1 I I #
point $-1 57.061067537461469 2.8816064600150746 6.5504313271459793 #
straight-curve $-1 57.061067537461483 2.9425833695796531 0.40253463485663588 0 1 0 I I #
point $-1 57.061067537461469 2.8816064600150746 0.40253463485663588 #
point $-1 51.650122918556328 4.0830305716727686 2.0184988483952009 #
point $-1 51.650122918556328 5.8851667391593061 2.0184988483952009 #
point $-1 51.650122918556328 7.6873029066458507 2.0184988483952009 #
straight-curve $-1 0 -26.728513666561934 -6.5504313271459793 -1 0 0 I I #
point $-1 -57.061067537461469 -26.728513666561934 -6.5504313271459793 #
straight-curve $-1 0 26.728513666561934 6.5504313271459793 -1 0 0 I I #
point $-1 -57.061067537461469 26.728513666561934 6.5504313271459793 #
End-of-ACIS-data 