500 0 5 0           
7 Unknown 11 ACIS 5.0 NT 24 Fri Mar 26 15:16:04 1999 
-1 9.9999999999999995e-007 1e-010 
body $-1 $5 $-1 $6 #
body $-1 $7 $-1 $8 #
body $-1 $9 $-1 $10 #
body $-1 $11 $-1 $12 #
body $-1 $13 $-1 $14 #
lump $-1 $-1 $15 $0 #
transform $-1 1 0 0 0 1 0 0 0 1 71.564683980834374 47.09308711203176 19.715658101225369 1 rotate no_reflect no_shear #
lump $-1 $-1 $16 $1 #
transform $-1 1 0 0 0 1 0 0 0 1 71.564683980834374 47.09308711203176 19.715658101225369 1 rotate no_reflect no_shear #
lump $-1 $-1 $17 $2 #
transform $-1 1 0 0 0 1 0 0 0 1 71.564683980834374 47.09308711203176 19.715658101225369 1 rotate no_reflect no_shear #
lump $-1 $-1 $18 $3 #
transform $-1 1 0 0 0 1 0 0 0 1 71.564683980834374 47.09308711203176 19.715658101225369 1 rotate no_reflect no_shear #
lump $-1 $-1 $19 $4 #
transform $-1 1 0 0 0 1 0 0 0 1 71.564683980834374 47.09308711203176 19.715658101225369 1 rotate no_reflect no_shear #
shell $-1 $-1 $-1 $20 $-1 $5 #
shell $-1 $-1 $-1 $21 $-1 $7 #
shell $-1 $-1 $-1 $22 $-1 $9 #
shell $-1 $-1 $-1 $23 $-1 $11 #
shell $-1 $-1 $-1 $24 $-1 $13 #
face $-1 $25 $26 $15 $-1 $27 forward single #
face $-1 $28 $29 $16 $-1 $30 reversed single #
face $-1 $31 $32 $17 $-1 $33 reversed single #
face $-1 $34 $35 $18 $-1 $36 forward single #
face $-1 $37 $38 $19 $-1 $39 forward single #
face $-1 $40 $41 $15 $-1 $42 reversed single #
loop $-1 $-1 $43 $20 #
plane-surface $-1 0 0 19.715658101225369 0 0 1 1 0 0 forward_v I I I I #
face $-1 $44 $45 $16 $-1 $46 reversed single #
loop $-1 $-1 $47 $21 #
plane-surface $-1 -39.734549113042895 -34.735995896185095 0 1 0 0 0 0 -1 forward_v I I I I #
face $-1 $48 $49 $17 $-1 $50 reversed single #
loop $-1 $-1 $51 $22 #
plane-surface $-1 55.691463660514891 99.052219542092359 168.77399169051108 1 0 0 0 -0.77714596973225614 -0.62932038083071107 forward_v I I I I #
face $-1 $52 $53 $18 $-1 $54 forward single #
loop $-1 $55 $56 $23 #
cone-surface $-1 60.226669466320473 39.844542931050583 11.399611730967866 0 -0.77714596973225614 -0.62932038083071107 1 0 0 1 I I 0 1 1 forward I I I I #
face $-1 $57 $58 $19 $-1 $59 forward single #
loop $-1 $60 $61 $24 #
cone-surface $-1 67.029478175028814 39.844542931050583 11.399611730967866 0 -0.77714596973225614 -0.62932038083071107 1 0 0 1 I I 0 1 1 forward I I I I #
face $-1 $62 $63 $15 $-1 $64 reversed single #
loop $-1 $-1 $65 $25 #
plane-surface $-1 0 0 -19.715658101225369 0 0 1 1 0 0 forward_v I I I I #
coedge $-1 $66 $67 $68 $69 forward $26 $-1 #
face $-1 $70 $71 $16 $-1 $72 reversed single #
loop $-1 $-1 $73 $28 #
plane-surface $-1 -35.933958445713266 -22.37890468033843 0 0 -1 0 0 0 -1 forward_v I I I I #
coedge $-1 $74 $75 $76 $77 forward $29 $-1 #
face $-1 $78 $79 $17 $-1 $80 forward single #
loop $-1 $-1 $81 $31 #
plane-surface $-1 63.628073820674629 -12.180191919643619 78.699763336814726 0 0.77714596973225614 0.62932038083071107 1 0 0 forward_v I I I I #
coedge $-1 $82 $83 $84 $85 reversed $32 $-1 #
face $-1 $-1 $86 $18 $-1 $87 forward single #
loop $-1 $88 $89 $34 #
cone-surface $-1 60.226669466320473 37.961872607116085 9.8750554038658613 0 -0.77714596973225614 -0.62932038083071107 0.5 0 0 1 I I -0.70710678118654746 0.70710678118654746 0.5 forward I I I I #
loop $-1 $-1 $90 $23 #
coedge $-1 $56 $56 $91 $92 reversed $35 $-1 #
face $-1 $-1 $93 $19 $-1 $94 forward single #
loop $-1 $95 $96 $37 #
cone-surface $-1 67.029478175028814 37.961872607116085 9.8750554038658613 0 -0.77714596973225614 -0.62932038083071107 0.5 0 0 1 I I -0.70710678118654746 0.70710678118654746 0.5 forward I I I I #
loop $-1 $-1 $97 $24 #
coedge $-1 $61 $61 $98 $99 reversed $38 $-1 #
face $-1 $100 $101 $15 $-1 $102 reversed single #
loop $-1 $-1 $103 $40 #
plane-surface $-1 0 -47.09308711203176 0 0 1 0 0 0 1 forward_v I I I I #
coedge $-1 $104 $105 $106 $107 forward $41 $-1 #
coedge $-1 $108 $43 $109 $110 forward $26 $-1 #
coedge $-1 $43 $108 $111 $112 forward $26 $-1 #
coedge $-1 $113 $114 $43 $69 reversed $115 $-1 #
edge $-1 $116 -47.09308711203176 $117 47.09308711203176 $68 $118 forward 7 unknown #
face $-1 $119 $120 $16 $-1 $121 forward single #
loop $-1 $-1 $122 $44 #
plane-surface $-1 -32.133367778383636 -34.735995896185095 0 -1 0 0 0 0 1 forward_v I I I I #
coedge $-1 $123 $124 $125 $126 forward $45 $-1 #
coedge $-1 $127 $47 $128 $129 reversed $29 $-1 #
coedge $-1 $47 $127 $130 $131 reversed $29 $-1 #
coedge $-1 $124 $123 $47 $77 reversed $45 $-1 #
edge $-1 $132 -19.715658101225369 $133 19.715658101225369 $76 $134 forward 7 unknown #
face $-1 $135 $136 $17 $-1 $137 reversed single #
loop $-1 $-1 $84 $48 #
plane-surface $-1 0 0 19.715658101225369 0 0 1 1 0 0 forward_v I I I I #
coedge $-1 $138 $139 $140 $141 reversed $49 $-1 #
coedge $-1 $83 $51 $142 $143 reversed $32 $-1 #
coedge $-1 $51 $82 $138 $144 reversed $32 $-1 #
coedge $-1 $140 $145 $51 $85 forward $79 $-1 #
edge $-1 $146 2.4330226590144193 $147 13.941916342840088 $84 $148 forward 7 unknown #
loop $-1 $-1 $91 $52 #
plane-surface $-1 63.628073820674629 -12.180191919643619 78.699763336814726 0 0.77714596973225614 0.62932038083071107 1 0 0 forward_v I I I I #
loop $-1 $-1 $149 $34 #
coedge $-1 $89 $89 $90 $150 reversed $53 $-1 #
coedge $-1 $90 $90 $89 $150 forward $55 $-1 #
coedge $-1 $91 $91 $56 $92 forward $86 $-1 #
edge $-1 $151 -3.9011483351108678e-016 $151 6.2831853071796004 $91 $152 forward 7 unknown #
loop $-1 $-1 $98 $57 #
plane-surface $-1 63.628073820674629 -12.180191919643619 78.699763336814726 0 0.77714596973225614 0.62932038083071107 1 0 0 forward_v I I I I #
loop $-1 $-1 $153 $37 #
coedge $-1 $96 $96 $97 $154 reversed $58 $-1 #
coedge $-1 $97 $97 $96 $154 forward $60 $-1 #
coedge $-1 $98 $98 $61 $99 forward $93 $-1 #
edge $-1 $155 -3.9011483351108678e-016 $155 6.2831853071796004 $98 $156 forward 7 unknown #
face $-1 $157 $158 $15 $-1 $159 reversed single #
loop $-1 $-1 $160 $62 #
plane-surface $-1 -71.564683980834374 0 0 1 0 0 0 0 -1 forward_v I I I I #
coedge $-1 $161 $111 $162 $163 forward $63 $-1 #
coedge $-1 $164 $65 $161 $165 forward $41 $-1 #
coedge $-1 $65 $164 $166 $167 forward $41 $-1 #
coedge $-1 $114 $113 $65 $107 reversed $115 $-1 #
edge $-1 $168 -47.09308711203176 $169 47.09308711203176 $106 $170 forward 7 unknown #
coedge $-1 $67 $66 $171 $172 forward $26 $-1 #
coedge $-1 $173 $174 $66 $110 reversed $158 $-1 #
edge $-1 $117 -71.564683980834374 $175 71.564683980834374 $109 $176 forward 7 unknown #
coedge $-1 $103 $177 $67 $112 reversed $63 $-1 #
edge $-1 $178 -71.564683980834374 $116 71.564683980834374 $111 $179 forward 7 unknown #
coedge $-1 $106 $68 $177 $180 forward $115 $-1 #
coedge $-1 $68 $106 $173 $181 reversed $115 $-1 #
loop $-1 $-1 $113 $157 #
vertex $-1 $69 $182 #
vertex $-1 $69 $183 #
straight-curve $-1 71.564683980834374 0 19.715658101225369 0 1 0 I I #
face $-1 $184 $185 $16 $-1 $186 reversed single #
loop $-1 $-1 $187 $70 #
plane-surface $-1 0 0 19.715658101225369 0 0 1 1 0 0 forward_v I I I I #
coedge $-1 $188 $189 $190 $191 reversed $71 $-1 #
coedge $-1 $76 $73 $192 $193 reversed $45 $-1 #
coedge $-1 $73 $76 $194 $195 reversed $45 $-1 #
coedge $-1 $189 $188 $73 $126 reversed $71 $-1 #
edge $-1 $196 -19.715658101225369 $197 19.715658101225369 $125 $198 forward 7 unknown #
coedge $-1 $75 $74 $199 $200 reversed $29 $-1 #
coedge $-1 $192 $201 $74 $129 forward $185 $-1 #
edge $-1 $202 -29.725089163939213 $133 -5.010906732245882 $128 $203 forward 7 unknown #
coedge $-1 $204 $194 $75 $131 forward $120 $-1 #
edge $-1 $132 5.010906732245882 $205 29.725089163939213 $130 $206 forward 7 unknown #
vertex $-1 $131 $207 #
vertex $-1 $129 $208 #
straight-curve $-1 -39.734549113042895 -22.37890468033843 0 0 0 -1 I I #
face $-1 $-1 $209 $17 $-1 $210 reversed single #
loop $-1 $-1 $211 $78 #
plane-surface $-1 71.564683980834374 0 0 -1 0 0 0 0 1 forward_v I I I I #
coedge $-1 $212 $81 $83 $144 forward $49 $-1 #
coedge $-1 $81 $212 $211 $213 reversed $49 $-1 #
coedge $-1 $214 $84 $81 $141 forward $79 $-1 #
edge $-1 $147 23.877426750177577 $215 39.750647070497045 $140 $216 forward 7 unknown #
coedge $-1 $217 $218 $82 $143 forward $209 $-1 #
edge $-1 $219 -78.883638211171913 $146 -64.671337744030168 $142 $220 forward 7 unknown #
edge $-1 $147 75.898360839355149 $219 94.186174224063549 $83 $221 forward 7 unknown #
coedge $-1 $84 $214 $217 $222 forward $79 $-1 #
vertex $-1 $143 $223 #
vertex $-1 $85 $224 #
straight-curve $-1 55.691463660514891 49.52610977104618 19.715658101225372 0 -1 0 I I #
coedge $-1 $149 $149 $-1 $225 reversed $88 $-1 #
edge $-1 $226 0 $226 6.2831853071796004 $89 $227 forward 7 unknown #
vertex $-1 $92 $228 #
ellipse-curve $-1 60.226669466320473 41.33864027011893 12.6095078676545 0 0.77714596973225614 0.62932038083071107 1 0 0 1 I I #
coedge $-1 $153 $153 $-1 $229 reversed $95 $-1 #
edge $-1 $230 0 $230 6.2831853071796004 $96 $231 forward 7 unknown #
vertex $-1 $99 $232 #
ellipse-curve $-1 67.029478175028814 41.33864027011893 12.6095078676545 0 0.77714596973225614 0.62932038083071107 1 0 0 1 I I #
face $-1 $-1 $115 $15 $-1 $233 reversed single #
loop $-1 $-1 $173 $100 #
plane-surface $-1 0 47.09308711203176 0 0 -1 0 0 0 -1 forward_v I I I I #
coedge $-1 $234 $171 $174 $235 forward $101 $-1 #
coedge $-1 $177 $103 $104 $165 reversed $63 $-1 #
coedge $-1 $171 $234 $103 $163 reversed $101 $-1 #
edge $-1 $178 -19.715658101225369 $236 19.715658101225369 $162 $237 forward 7 unknown #
coedge $-1 $105 $104 $234 $238 forward $41 $-1 #
edge $-1 $169 -71.564683980834374 $236 71.564683980834374 $161 $239 forward 7 unknown #
coedge $-1 $174 $173 $105 $167 reversed $158 $-1 #
edge $-1 $240 -71.564683980834374 $168 71.564683980834374 $166 $241 forward 7 unknown #
vertex $-1 $107 $242 #
vertex $-1 $180 $243 #
straight-curve $-1 71.564683980834374 0 -19.715658101225369 0 -1 0 I I #
coedge $-1 $160 $162 $108 $172 reversed $101 $-1 #
edge $-1 $175 -47.09308711203176 $178 47.09308711203176 $171 $244 forward 7 unknown #
coedge $-1 $166 $109 $114 $181 forward $158 $-1 #
coedge $-1 $109 $166 $160 $235 reversed $158 $-1 #
vertex $-1 $110 $245 #
straight-curve $-1 0 47.09308711203176 19.715658101225369 -1 0 0 I I #
coedge $-1 $111 $161 $113 $180 reversed $63 $-1 #
vertex $-1 $172 $246 #
straight-curve $-1 0 -47.09308711203176 19.715658101225369 1 0 0 I I #
edge $-1 $116 -19.715658101225369 $169 19.715658101225369 $113 $247 forward 7 unknown #
edge $-1 $117 -19.715658101225369 $168 19.715658101225369 $114 $248 forward 7 unknown #
point $-1 71.564683980834374 -47.09308711203176 19.715658101225369 #
point $-1 71.564683980834374 47.09308711203176 19.715658101225369 #
face $-1 $-1 $249 $16 $-1 $250 reversed single #
loop $-1 $-1 $251 $119 #
plane-surface $-1 0 0 -19.715658101225369 0 0 1 1 0 0 forward_v I I I I #
coedge $-1 $194 $204 $189 $252 forward $120 $-1 #
coedge $-1 $125 $122 $251 $253 reversed $71 $-1 #
coedge $-1 $122 $125 $187 $252 reversed $71 $-1 #
coedge $-1 $254 $255 $122 $191 forward $249 $-1 #
edge $-1 $256 -19.715658101225369 $257 19.715658101225369 $190 $258 forward 7 unknown #
coedge $-1 $251 $128 $123 $193 forward $185 $-1 #
edge $-1 $133 -21.767569890186262 $197 -14.166388555527003 $192 $259 forward 7 unknown #
coedge $-1 $130 $187 $124 $195 forward $120 $-1 #
edge $-1 $196 14.166388555527003 $132 21.767569890186262 $194 $260 forward 7 unknown #
vertex $-1 $195 $261 #
vertex $-1 $193 $262 #
straight-curve $-1 -32.133367778383636 -22.37890468033843 0 0 0 -1 I I #
coedge $-1 $255 $254 $127 $200 forward $249 $-1 #
edge $-1 $205 -19.715658101225369 $202 19.715658101225369 $199 $263 forward 7 unknown #
coedge $-1 $128 $251 $255 $264 forward $185 $-1 #
vertex $-1 $129 $265 #
straight-curve $-1 -39.734549113042895 -17.367997948092547 -19.715658101225369 0 1 0 I I #
coedge $-1 $187 $130 $254 $266 forward $120 $-1 #
vertex $-1 $266 $267 #
straight-curve $-1 -39.734549113042895 -17.367997948092547 19.715658101225369 0 -1 0 I I #
point $-1 -39.734549113042895 -22.37890468033843 19.715658101225369 #
point $-1 -39.734549113042895 -22.37890468033843 -19.715658101225369 #
loop $-1 $-1 $142 $135 #
plane-surface $-1 0 47.09308711203176 0 0 -1 0 0 0 -1 forward_v I I I I #
coedge $-1 $268 $269 $139 $213 forward $136 $-1 #
coedge $-1 $139 $138 $218 $270 reversed $49 $-1 #
edge $-1 $215 41.485137382580547 $271 59.772950767288947 $211 $272 forward 7 unknown #
coedge $-1 $145 $140 $269 $273 forward $79 $-1 #
vertex $-1 $273 $274 #
straight-curve $-1 31.814036910337315 35.584193428206085 19.715658101225372 1 0 0 I I #
coedge $-1 $275 $142 $145 $222 reversed $209 $-1 #
coedge $-1 $142 $275 $212 $270 forward $209 $-1 #
vertex $-1 $143 $276 #
straight-curve $-1 55.691463660514891 47.09308711203176 84.386995845255541 0 0 1 I I #
straight-curve $-1 55.691463660514891 -12.180191919643619 78.699763336814726 0 0.62932038083071107 -0.77714596973225614 I I #
edge $-1 $277 -71.564683980834374 $146 -55.691463660514891 $217 $278 forward 7 unknown #
point $-1 55.691463660514891 47.09308711203176 19.715658101225369 #
point $-1 55.691463660514891 35.584193428206092 19.715658101225372 #
edge $-1 $279 1 $279 0 $149 $-1 forward 7 unknown #
vertex $-1 $150 $280 #
ellipse-curve $-1 60.226669466320473 38.350445591982215 10.189715594281218 0 0.77714596973225614 0.62932038083071107 1 0 0 1 I I #
point $-1 61.226669466320473 41.338640270118951 12.609507867654518 #
edge $-1 $281 1 $281 0 $153 $-1 forward 7 unknown #
vertex $-1 $154 $282 #
ellipse-curve $-1 67.029478175028814 38.350445591982215 10.189715594281218 0 0.77714596973225614 0.62932038083071107 1 0 0 1 I I #
point $-1 68.029478175028814 41.338640270118951 12.609507867654518 #
plane-surface $-1 71.564683980834374 0 0 -1 0 0 0 0 1 forward_v I I I I #
coedge $-1 $162 $160 $164 $238 reversed $101 $-1 #
edge $-1 $175 -19.715658101225369 $240 19.715658101225369 $174 $283 forward 7 unknown #
vertex $-1 $238 $284 #
straight-curve $-1 -71.564683980834374 -47.09308711203176 0 0 0 -1 I I #
edge $-1 $236 -47.09308711203176 $240 47.09308711203176 $234 $285 forward 7 unknown #
straight-curve $-1 0 -47.09308711203176 -19.715658101225369 -1 0 0 I I #
vertex $-1 $167 $286 #
straight-curve $-1 0 47.09308711203176 -19.715658101225369 1 0 0 I I #
point $-1 71.564683980834374 47.09308711203176 -19.715658101225369 #
point $-1 71.564683980834374 -47.09308711203176 -19.715658101225369 #
straight-curve $-1 -71.564683980834374 0 19.715658101225369 0 -1 0 I I #
point $-1 -71.564683980834374 47.09308711203176 19.715658101225369 #
point $-1 -71.564683980834374 -47.09308711203176 19.715658101225369 #
straight-curve $-1 71.564683980834374 -47.09308711203176 0 0 0 -1 I I #
straight-curve $-1 71.564683980834374 47.09308711203176 0 0 0 -1 I I #
loop $-1 $-1 $190 $184 #
plane-surface $-1 0 -47.09308711203176 0 0 1 0 0 0 1 forward_v I I I I #
coedge $-1 $201 $192 $188 $253 forward $185 $-1 #
edge $-1 $257 -29.725089163939213 $196 -5.010906732245882 $187 $287 forward 7 unknown #
edge $-1 $197 5.010906732245882 $256 29.725089163939213 $251 $288 forward 7 unknown #
coedge $-1 $199 $190 $204 $266 reversed $249 $-1 #
coedge $-1 $190 $199 $201 $264 reversed $249 $-1 #
vertex $-1 $264 $289 #
vertex $-1 $191 $290 #
straight-curve $-1 -32.133367778383636 -47.09308711203176 0 0 0 1 I I #
straight-curve $-1 -17.966979222856633 -22.37890468033843 -19.715658101225369 1 0 0 I I #
straight-curve $-1 -17.966979222856633 -22.37890468033843 19.715658101225369 -1 0 0 I I #
point $-1 -32.133367778383636 -22.37890468033843 19.715658101225369 #
point $-1 -32.133367778383636 -22.37890468033843 -19.715658101225369 #
straight-curve $-1 -39.734549113042895 -47.09308711203176 0 0 0 -1 I I #
edge $-1 $256 32.133367778383636 $202 39.734549113042895 $255 $291 forward 7 unknown #
point $-1 -39.734549113042895 -47.09308711203176 -19.715658101225369 #
edge $-1 $205 -39.734549113042895 $257 -32.133367778383636 $254 $292 forward 7 unknown #
point $-1 -39.734549113042895 -47.09308711203176 19.715658101225369 #
coedge $-1 $269 $211 $275 $293 reversed $136 $-1 #
coedge $-1 $211 $268 $214 $273 reversed $136 $-1 #
edge $-1 $271 -39.750647070497045 $219 -23.877426750177577 $218 $294 forward 7 unknown #
vertex $-1 $213 $295 #
straight-curve $-1 71.564683980834374 9.4767509717861369 51.955665421886806 0 0.62932038083071107 -0.77714596973225614 I I #
edge $-1 $215 35.584193428206092 $277 47.09308711203176 $269 $296 forward 7 unknown #
point $-1 71.56468398083436 35.584193428206092 19.715658101225372 #
coedge $-1 $218 $217 $268 $293 forward $209 $-1 #
point $-1 55.691463660514891 47.093087112031753 5.5033576340836277 #
vertex $-1 $273 $297 #
straight-curve $-1 0 47.09308711203176 19.715658101225369 -1 0 0 I I #
vertex $-1 $225 $298 #
point $-1 61.226669466320473 38.350445591982215 10.189715594281218 #
vertex $-1 $229 $299 #
point $-1 68.029478175028814 38.350445591982215 10.189715594281218 #
straight-curve $-1 -71.564683980834374 47.09308711203176 0 0 0 -1 I I #
point $-1 -71.564683980834374 -47.09308711203176 -19.715658101225369 #
straight-curve $-1 -71.564683980834374 0 -19.715658101225369 0 1 0 I I #
point $-1 -71.564683980834374 47.09308711203176 -19.715658101225369 #
straight-curve $-1 -32.133367778383636 -17.367997948092547 19.715658101225369 0 1 0 I I #
straight-curve $-1 -32.133367778383636 -17.367997948092547 -19.715658101225369 0 -1 0 I I #
point $-1 -32.133367778383636 -47.09308711203176 -19.715658101225369 #
point $-1 -32.133367778383636 -47.09308711203176 19.715658101225369 #
straight-curve $-1 0 -47.09308711203176 -19.715658101225369 -1 0 0 I I #
straight-curve $-1 0 -47.09308711203176 19.715658101225369 1 0 0 I I #
edge $-1 $277 -19.715658101225369 $271 -5.5033576340836277 $268 $300 forward 7 unknown #
straight-curve $-1 31.814036910337315 47.093087112031753 5.5033576340836277 -1 0 0 I I #
point $-1 71.56468398083436 47.093087112031753 5.5033576340836277 #
straight-curve $-1 71.564683980834374 0 19.715658101225369 0 1 0 I I #
point $-1 71.564683980834374 47.09308711203176 19.715658101225369 #
point $-1 60.226669466320473 37.573299622249955 9.560395213450505 #
point $-1 67.029478175028814 37.573299622249955 9.560395213450505 #
straight-curve $-1 71.564683980834374 47.09308711203176 0 0 0 -1 I I #
End-of-ACIS-data 