500 0 11 0           
7 Unknown 11 ACIS 5.0 NT 24 Thu Mar 25 16:04:22 1999 
-1 9.9999999999999995e-007 1e-010 
body $-1 $11 $-1 $12 #
body $-1 $13 $-1 $14 #
body $-1 $15 $-1 $16 #
body $-1 $17 $-1 $18 #
body $-1 $19 $-1 $20 #
body $-1 $21 $-1 $22 #
body $-1 $23 $-1 $24 #
body $-1 $25 $-1 $26 #
body $-1 $27 $-1 $28 #
body $-1 $29 $-1 $30 #
body $-1 $31 $-1 $32 #
lump $-1 $-1 $33 $0 #
transform $-1 1 0 0 0 1 0 0 0 1 67.21396526993621 46.6676240812467 17.564413609557878 1 rotate no_reflect no_shear #
lump $-1 $-1 $34 $1 #
transform $-1 1 0 0 0 1 0 0 0 1 67.21396526993621 46.6676240812467 17.564413609557878 1 rotate no_reflect no_shear #
lump $-1 $-1 $35 $2 #
transform $-1 1 0 0 0 1 0 0 0 1 67.21396526993621 46.6676240812467 17.564413609557878 1 rotate no_reflect no_shear #
lump $-1 $-1 $36 $3 #
transform $-1 1 0 0 0 1 0 0 0 1 67.21396526993621 46.6676240812467 17.564413609557878 1 rotate no_reflect no_shear #
lump $-1 $-1 $37 $4 #
transform $-1 1 0 0 0 1 0 0 0 1 67.21396526993621 46.6676240812467 17.564413609557878 1 rotate no_reflect no_shear #
lump $-1 $-1 $38 $5 #
transform $-1 1 0 0 0 1 0 0 0 1 67.21396526993621 46.6676240812467 17.564413609557878 1 rotate no_reflect no_shear #
lump $-1 $-1 $39 $6 #
transform $-1 1 0 0 0 1 0 0 0 1 67.21396526993621 46.6676240812467 17.564413609557878 1 rotate no_reflect no_shear #
lump $-1 $-1 $40 $7 #
transform $-1 1 0 0 0 1 0 0 0 1 67.21396526993621 46.6676240812467 17.564413609557878 1 rotate no_reflect no_shear #
lump $-1 $-1 $41 $8 #
transform $-1 1 0 0 0 1 0 0 0 1 67.21396526993621 46.6676240812467 17.564413609557878 1 rotate no_reflect no_shear #
lump $-1 $-1 $42 $9 #
transform $-1 1 0 0 0 1 0 0 0 1 67.21396526993621 46.6676240812467 17.564413609557878 1 rotate no_reflect no_shear #
lump $-1 $-1 $43 $10 #
transform $-1 1 0 0 0 1 0 0 0 1 67.21396526993621 46.6676240812467 17.564413609557878 1 rotate no_reflect no_shear #
shell $-1 $-1 $-1 $44 $-1 $11 #
shell $-1 $-1 $-1 $45 $-1 $13 #
shell $-1 $-1 $-1 $46 $-1 $15 #
shell $-1 $-1 $-1 $47 $-1 $17 #
shell $-1 $-1 $-1 $48 $-1 $19 #
shell $-1 $-1 $-1 $49 $-1 $21 #
shell $-1 $-1 $-1 $50 $-1 $23 #
shell $-1 $-1 $-1 $51 $-1 $25 #
shell $-1 $-1 $-1 $52 $-1 $27 #
shell $-1 $-1 $-1 $53 $-1 $29 #
shell $-1 $-1 $-1 $54 $-1 $31 #
face $-1 $55 $56 $33 $-1 $57 forward single #
face $-1 $58 $59 $34 $-1 $60 forward single #
face $-1 $61 $62 $35 $-1 $63 forward single #
face $-1 $64 $65 $36 $-1 $66 reversed single #
face $-1 $67 $68 $37 $-1 $69 forward single #
face $-1 $70 $71 $38 $-1 $72 forward single #
face $-1 $73 $74 $39 $-1 $75 forward single #
face $-1 $76 $77 $40 $-1 $78 reversed single #
face $-1 $79 $80 $41 $-1 $81 forward single #
face $-1 $82 $83 $42 $-1 $84 forward single #
face $-1 $85 $86 $43 $-1 $87 forward single #
face $-1 $88 $89 $33 $-1 $90 reversed single #
loop $-1 $-1 $91 $44 #
plane-surface $-1 0 0 17.564413609557878 0 0 1 1 0 0 forward_v I I I I #
face $-1 $92 $93 $34 $-1 $94 reversed single #
loop $-1 $-1 $95 $45 #
plane-surface $-1 0 -35.769062764174791 3.5685368306395349 0 0 1 1 0 0 forward_v I I I I #
face $-1 $96 $97 $35 $-1 $98 reversed single #
loop $-1 $-1 $99 $46 #
plane-surface $-1 0 35.769062764174791 3.5685368306395349 0 0 1 1 0 0 forward_v I I I I #
face $-1 $100 $101 $36 $-1 $102 reversed single #
loop $-1 $-1 $103 $47 #
plane-surface $-1 -140.42866459749837 24.870501447102878 123.64750140156656 0 -1 0 0.54463904215088732 0 -0.83867056331134215 forward_v I I I I #
face $-1 $104 $105 $37 $-1 $106 forward single #
loop $-1 $107 $108 $48 #
cone-surface $-1 -61.815696819123175 17.760783594234354 13.816248108580149 0.54463904215088732 0 -0.83867056331134215 0.41933528165567108 0 0.27231952107544366 1 I I 0 1 0.5 forward I I I I #
face $-1 $109 $110 $38 $-1 $111 forward single #
loop $-1 $112 $113 $49 #
cone-surface $-1 -61.815696819123175 20.426927789060059 13.816248108580149 0.54463904215088732 0 -0.83867056331134215 0.41933528165567108 0 0.27231952107544366 1 I I 0 1 0.5 forward I I I I #
face $-1 $114 $115 $39 $-1 $116 forward single #
loop $-1 $117 $118 $50 #
cone-surface $-1 -61.815696819123175 23.093071983885764 13.816248108580149 0.54463904215088732 0 -0.83867056331134215 0.41933528165567108 0 0.27231952107544366 1 I I 0 1 0.5 forward I I I I #
face $-1 $119 $120 $40 $-1 $121 reversed single #
loop $-1 $-1 $122 $51 #
plane-surface $-1 27.687916366845556 15.983354131017212 196.86220072912869 0 1 0 0.54463904215088732 0 0.83867056331134215 forward_v I I I I #
face $-1 $123 $124 $41 $-1 $125 forward single #
loop $-1 $126 $127 $52 #
cone-surface $-1 61.815696819123147 17.760783594234354 13.816248108580163 -0.54463904215088732 0 -0.83867056331134215 0.41933528165567108 0 -0.27231952107544366 1 I I 0 1 0.5 forward I I I I #
face $-1 $128 $129 $42 $-1 $130 forward single #
loop $-1 $131 $132 $53 #
cone-surface $-1 61.815696819123147 20.426927789060059 13.816248108580163 -0.54463904215088732 0 -0.83867056331134215 0.41933528165567108 0 -0.27231952107544366 1 I I 0 1 0.5 forward I I I I #
face $-1 $133 $134 $43 $-1 $135 forward single #
loop $-1 $136 $137 $54 #
cone-surface $-1 61.815696819123147 23.093071983885764 13.816248108580163 -0.54463904215088732 0 -0.83867056331134215 0.41933528165567108 0 -0.27231952107544366 1 I I 0 1 0.5 forward I I I I #
face $-1 $138 $139 $33 $-1 $140 reversed single #
loop $-1 $-1 $141 $55 #
plane-surface $-1 0 0 -17.564413609557878 0 0 1 1 0 0 forward_v I I I I #
coedge $-1 $142 $143 $144 $145 forward $56 $-1 #
face $-1 $146 $147 $34 $-1 $148 reversed single #
loop $-1 $-1 $149 $58 #
plane-surface $-1 0 -35.769062764174791 -3.0561636922976279 0 0 1 1 0 0 forward_v I I I I #
coedge $-1 $150 $151 $152 $153 reversed $59 $-1 #
face $-1 $154 $155 $35 $-1 $156 reversed single #
loop $-1 $-1 $157 $61 #
plane-surface $-1 0 35.769062764174791 -3.0561636922976279 0 0 1 1 0 0 forward_v I I I I #
coedge $-1 $158 $159 $160 $161 reversed $62 $-1 #
face $-1 $162 $163 $36 $-1 $164 reversed single #
loop $-1 $-1 $165 $64 #
plane-surface $-1 -67.213965269936239 20.426927789060045 10.906753170913774 -0.54463904215088732 0 0.83867056331134215 0.83867056331134215 0 0.54463904215088732 forward_v I I I I #
coedge $-1 $166 $167 $168 $169 reversed $65 $-1 #
face $-1 $-1 $170 $37 $-1 $171 forward single #
loop $-1 $172 $173 $67 #
cone-surface $-1 -61.407217537510007 17.760783594234354 13.187245186096643 0.54463904215088732 0 -0.83867056331134215 0.20966764082783554 0 0.13615976053772183 1 I I -0.70710678118654746 0.70710678118654746 0.25 forward I I I I #
loop $-1 $-1 $174 $48 #
coedge $-1 $108 $108 $175 $176 reversed $68 $-1 #
face $-1 $-1 $177 $38 $-1 $178 forward single #
loop $-1 $179 $180 $70 #
cone-surface $-1 -61.407217537510007 20.426927789060059 13.187245186096643 0.54463904215088732 0 -0.83867056331134215 0.20966764082783554 0 0.13615976053772183 1 I I -0.70710678118654746 0.70710678118654746 0.25 forward I I I I #
loop $-1 $-1 $181 $49 #
coedge $-1 $113 $113 $182 $183 reversed $71 $-1 #
face $-1 $-1 $184 $39 $-1 $185 forward single #
loop $-1 $186 $187 $73 #
cone-surface $-1 -61.407217537510007 23.093071983885764 13.187245186096643 0.54463904215088732 0 -0.83867056331134215 0.20966764082783554 0 0.13615976053772183 1 I I -0.70710678118654746 0.70710678118654746 0.25 forward I I I I #
loop $-1 $-1 $188 $50 #
coedge $-1 $118 $118 $189 $190 reversed $74 $-1 #
face $-1 $191 $192 $40 $-1 $193 reversed single #
loop $-1 $-1 $194 $76 #
plane-surface $-1 -45.526782960716574 20.426927789060045 84.121452498475904 0.54463904215088732 0 0.83867056331134215 0.83867056331134215 0 -0.54463904215088732 forward_v I I I I #
coedge $-1 $195 $196 $197 $198 reversed $77 $-1 #
face $-1 $-1 $199 $41 $-1 $200 forward single #
loop $-1 $201 $202 $79 #
cone-surface $-1 61.407217537509979 17.760783594234354 13.187245186096657 -0.54463904215088732 0 -0.83867056331134215 0.20966764082783554 0 -0.13615976053772183 1 I I -0.70710678118654746 0.70710678118654746 0.25 forward I I I I #
loop $-1 $-1 $203 $52 #
coedge $-1 $127 $127 $204 $205 reversed $80 $-1 #
face $-1 $-1 $206 $42 $-1 $207 forward single #
loop $-1 $208 $209 $82 #
cone-surface $-1 61.407217537509979 20.426927789060059 13.187245186096657 -0.54463904215088732 0 -0.83867056331134215 0.20966764082783554 0 -0.13615976053772183 1 I I -0.70710678118654746 0.70710678118654746 0.25 forward I I I I #
loop $-1 $-1 $210 $53 #
coedge $-1 $132 $132 $211 $212 reversed $83 $-1 #
face $-1 $-1 $213 $43 $-1 $214 forward single #
loop $-1 $215 $216 $85 #
cone-surface $-1 61.407217537509979 23.093071983885764 13.187245186096657 -0.54463904215088732 0 -0.83867056331134215 0.20966764082783554 0 -0.13615976053772183 1 I I -0.70710678118654746 0.70710678118654746 0.25 forward I I I I #
loop $-1 $-1 $217 $54 #
coedge $-1 $137 $137 $218 $219 reversed $86 $-1 #
face $-1 $220 $221 $33 $-1 $222 reversed single #
loop $-1 $-1 $223 $88 #
plane-surface $-1 0 -46.6676240812467 0 0 1 0 0 0 1 forward_v I I I I #
coedge $-1 $224 $225 $226 $227 forward $89 $-1 #
coedge $-1 $228 $91 $229 $230 forward $56 $-1 #
coedge $-1 $91 $228 $231 $232 forward $56 $-1 #
coedge $-1 $233 $234 $91 $145 reversed $235 $-1 #
edge $-1 $236 -46.6676240812467 $237 46.6676240812467 $144 $238 forward 7 unknown #
face $-1 $239 $240 $34 $-1 $241 reversed single #
loop $-1 $-1 $242 $92 #
plane-surface $-1 0 -24.870501447102882 0.2561865691709535 0 -1 0 0 0 -1 forward_v I I I I #
coedge $-1 $243 $244 $245 $246 reversed $93 $-1 #
coedge $-1 $247 $95 $248 $249 forward $59 $-1 #
coedge $-1 $95 $247 $250 $251 reversed $59 $-1 #
coedge $-1 $252 $253 $95 $153 forward $254 $-1 #
edge $-1 $255 6.9859700650154863 $256 28.783092699159305 $152 $257 forward 7 unknown #
face $-1 $258 $259 $35 $-1 $260 reversed single #
loop $-1 $-1 $261 $96 #
plane-surface $-1 0 24.870501447102882 0.2561865691709535 0 1 0 0 0 1 forward_v I I I I #
coedge $-1 $262 $263 $264 $265 reversed $97 $-1 #
coedge $-1 $266 $99 $267 $268 reversed $62 $-1 #
coedge $-1 $99 $266 $269 $270 forward $62 $-1 #
coedge $-1 $271 $272 $99 $161 forward $259 $-1 #
edge $-1 $273 -28.783092699159305 $274 -6.9859700650154863 $160 $275 forward 7 unknown #
face $-1 $276 $277 $36 $-1 $278 reversed single #
loop $-1 $-1 $279 $100 #
plane-surface $-1 -140.42866459749837 15.983354131017212 123.64750140156656 0 1 0 -0.54463904215088732 0 0.83867056331134215 forward_v I I I I #
coedge $-1 $280 $281 $282 $283 reversed $101 $-1 #
coedge $-1 $167 $103 $284 $285 reversed $65 $-1 #
coedge $-1 $103 $166 $280 $286 reversed $65 $-1 #
coedge $-1 $282 $287 $103 $169 forward $277 $-1 #
edge $-1 $288 44.259337091225404 $289 50.916997529869491 $168 $290 forward 7 unknown #
loop $-1 $-1 $175 $104 #
plane-surface $-1 -67.213965269936239 20.426927789060045 10.906753170913774 -0.54463904215088732 0 0.83867056331134215 0.83867056331134215 0 0.54463904215088732 forward_v I I I I #
loop $-1 $-1 $291 $67 #
coedge $-1 $173 $173 $174 $292 reversed $105 $-1 #
coedge $-1 $174 $174 $173 $292 forward $107 $-1 #
coedge $-1 $175 $175 $108 $176 forward $170 $-1 #
edge $-1 $293 0 $293 6.2831853071796004 $175 $294 forward 7 unknown #
loop $-1 $-1 $182 $109 #
plane-surface $-1 -67.213965269936239 20.426927789060045 10.906753170913774 -0.54463904215088732 0 0.83867056331134215 0.83867056331134215 0 0.54463904215088732 forward_v I I I I #
loop $-1 $-1 $295 $70 #
coedge $-1 $180 $180 $181 $296 reversed $110 $-1 #
coedge $-1 $181 $181 $180 $296 forward $112 $-1 #
coedge $-1 $182 $182 $113 $183 forward $177 $-1 #
edge $-1 $297 0 $297 6.2831853071796004 $182 $298 forward 7 unknown #
loop $-1 $-1 $189 $114 #
plane-surface $-1 -67.213965269936239 20.426927789060045 10.906753170913774 -0.54463904215088732 0 0.83867056331134215 0.83867056331134215 0 0.54463904215088732 forward_v I I I I #
loop $-1 $-1 $299 $73 #
coedge $-1 $187 $187 $188 $300 reversed $115 $-1 #
coedge $-1 $188 $188 $187 $300 forward $117 $-1 #
coedge $-1 $189 $189 $118 $190 forward $184 $-1 #
edge $-1 $301 0 $301 6.2831853071796004 $189 $302 forward 7 unknown #
face $-1 $303 $304 $40 $-1 $305 forward single #
loop $-1 $-1 $306 $119 #
plane-surface $-1 27.687916366845556 24.870501447102878 196.86220072912869 0 -1 0 -0.54463904215088732 0 -0.83867056331134215 forward_v I I I I #
coedge $-1 $307 $308 $309 $310 reversed $120 $-1 #
coedge $-1 $196 $122 $311 $312 reversed $77 $-1 #
coedge $-1 $122 $195 $307 $313 reversed $77 $-1 #
coedge $-1 $309 $314 $122 $198 forward $315 $-1 #
edge $-1 $316 80.866686755006469 $317 87.52434719365057 $197 $318 forward 7 unknown #
loop $-1 $-1 $204 $123 #
plane-surface $-1 -45.526782960716574 20.426927789060045 84.121452498475904 0.54463904215088732 0 0.83867056331134215 0.83867056331134215 0 -0.54463904215088732 forward_v I I I I #
loop $-1 $-1 $319 $79 #
coedge $-1 $202 $202 $203 $320 reversed $124 $-1 #
coedge $-1 $203 $203 $202 $320 forward $126 $-1 #
coedge $-1 $204 $204 $127 $205 forward $199 $-1 #
edge $-1 $321 0 $321 6.2831853071796004 $204 $322 forward 7 unknown #
loop $-1 $-1 $211 $128 #
plane-surface $-1 -45.526782960716574 20.426927789060045 84.121452498475904 0.54463904215088732 0 0.83867056331134215 0.83867056331134215 0 -0.54463904215088732 forward_v I I I I #
loop $-1 $-1 $323 $82 #
coedge $-1 $209 $209 $210 $324 reversed $129 $-1 #
coedge $-1 $210 $210 $209 $324 forward $131 $-1 #
coedge $-1 $211 $211 $132 $212 forward $206 $-1 #
edge $-1 $325 0 $325 6.2831853071796004 $211 $326 forward 7 unknown #
loop $-1 $-1 $218 $133 #
plane-surface $-1 -45.526782960716574 20.426927789060045 84.121452498475904 0.54463904215088732 0 0.83867056331134215 0.83867056331134215 0 -0.54463904215088732 forward_v I I I I #
loop $-1 $-1 $327 $85 #
coedge $-1 $216 $216 $217 $328 reversed $134 $-1 #
coedge $-1 $217 $217 $216 $328 forward $136 $-1 #
coedge $-1 $218 $218 $137 $219 forward $213 $-1 #
edge $-1 $329 0 $329 6.2831853071796004 $218 $330 forward 7 unknown #
face $-1 $331 $332 $33 $-1 $333 reversed single #
loop $-1 $-1 $334 $138 #
plane-surface $-1 -67.21396526993621 0 0 1 0 0 0 0 -1 forward_v I I I I #
coedge $-1 $335 $231 $336 $337 forward $139 $-1 #
coedge $-1 $338 $141 $335 $339 forward $89 $-1 #
coedge $-1 $141 $338 $340 $341 forward $89 $-1 #
coedge $-1 $234 $233 $141 $227 reversed $235 $-1 #
edge $-1 $342 -46.6676240812467 $343 46.6676240812467 $226 $344 forward 7 unknown #
coedge $-1 $143 $142 $345 $346 forward $56 $-1 #
coedge $-1 $347 $348 $142 $230 reversed $332 $-1 #
edge $-1 $237 -67.21396526993621 $349 67.21396526993621 $229 $350 forward 7 unknown #
coedge $-1 $223 $351 $143 $232 reversed $139 $-1 #
edge $-1 $352 -67.21396526993621 $236 67.21396526993621 $231 $353 forward 7 unknown #
coedge $-1 $226 $144 $351 $354 forward $235 $-1 #
coedge $-1 $144 $226 $347 $355 reversed $235 $-1 #
loop $-1 $-1 $233 $331 #
vertex $-1 $145 $356 #
vertex $-1 $145 $357 #
straight-curve $-1 67.21396526993621 0 17.564413609557878 0 1 0 I I #
face $-1 $358 $359 $34 $-1 $360 reversed single #
loop $-1 $-1 $361 $146 #
plane-surface $-1 -67.21396526993621 0 0 1 0 0 0 0 -1 forward_v I I I I #
coedge $-1 $362 $248 $253 $363 reversed $147 $-1 #
coedge $-1 $364 $149 $365 $366 reversed $93 $-1 #
coedge $-1 $149 $364 $362 $367 forward $93 $-1 #
coedge $-1 $253 $252 $149 $246 forward $254 $-1 #
edge $-1 $368 -28.783092699159305 $369 -6.9859700650154863 $245 $370 forward 7 unknown #
coedge $-1 $151 $150 $361 $371 reversed $59 $-1 #
coedge $-1 $242 $372 $150 $249 reversed $147 $-1 #
edge $-1 $255 -67.21396526993621 $373 67.21396526993621 $248 $374 forward 7 unknown #
coedge $-1 $375 $376 $151 $251 forward $359 $-1 #
edge $-1 $256 -67.21396526993621 $377 67.21396526993621 $250 $378 forward 7 unknown #
coedge $-1 $245 $152 $376 $379 forward $254 $-1 #
coedge $-1 $152 $245 $242 $363 forward $254 $-1 #
loop $-1 $-1 $152 $358 #
vertex $-1 $153 $380 #
vertex $-1 $379 $381 #
straight-curve $-1 67.21396526993621 -17.884531382087395 3.5685368306395349 0 -1 0 I I #
face $-1 $382 $383 $35 $-1 $384 reversed single #
loop $-1 $-1 $160 $154 #
plane-surface $-1 67.21396526993621 0 0 -1 0 0 0 0 1 forward_v I I I I #
coedge $-1 $385 $269 $386 $387 reversed $155 $-1 #
coedge $-1 $388 $157 $385 $389 forward $97 $-1 #
coedge $-1 $157 $388 $390 $391 reversed $97 $-1 #
coedge $-1 $272 $271 $157 $265 forward $259 $-1 #
edge $-1 $392 6.9859700650154863 $393 28.783092699159305 $264 $394 forward 7 unknown #
coedge $-1 $159 $158 $395 $396 reversed $62 $-1 #
coedge $-1 $397 $398 $158 $268 forward $399 $-1 #
edge $-1 $400 -67.21396526993621 $273 67.21396526993621 $267 $401 forward 7 unknown #
coedge $-1 $261 $402 $159 $270 reversed $155 $-1 #
edge $-1 $403 -67.21396526993621 $274 67.21396526993621 $269 $404 forward 7 unknown #
coedge $-1 $264 $160 $402 $405 forward $259 $-1 #
coedge $-1 $160 $264 $397 $406 reversed $259 $-1 #
vertex $-1 $406 $407 #
vertex $-1 $161 $408 #
straight-curve $-1 67.21396526993621 17.884531382087395 3.5685368306395349 0 -1 0 I I #
face $-1 $-1 $409 $36 $-1 $410 forward single #
loop $-1 $-1 $168 $162 #
plane-surface $-1 -67.21396526993621 0 0 1 0 0 0 0 -1 forward_v I I I I #
coedge $-1 $411 $412 $413 $414 reversed $163 $-1 #
coedge $-1 $415 $165 $167 $286 forward $101 $-1 #
coedge $-1 $165 $415 $411 $416 forward $101 $-1 #
coedge $-1 $413 $168 $165 $283 forward $277 $-1 #
edge $-1 $289 -14.657037552572856 $417 -5.7698902364871891 $282 $418 forward 7 unknown #
coedge $-1 $419 $420 $166 $285 forward $409 $-1 #
edge $-1 $421 -13.25226488828811 $288 -3.000367028812974 $284 $422 forward 7 unknown #
edge $-1 $289 3.3511183933559511e-014 $421 12.223986757085362 $167 $423 forward 7 unknown #
coedge $-1 $168 $413 $419 $424 reversed $277 $-1 #
vertex $-1 $424 $425 #
vertex $-1 $169 $426 #
straight-curve $-1 -67.21396526993621 24.870501447102878 61.823750700783279 0 0 -1 I I #
coedge $-1 $291 $291 $-1 $427 reversed $172 $-1 #
edge $-1 $428 0 $428 6.2831853071796004 $173 $429 forward 7 unknown #
vertex $-1 $176 $430 #
ellipse-curve $-1 -62.088016340198635 17.760783594234354 14.23558339023584 -0.54463904215088732 0 0.83867056331134215 0.41933528165567108 0 0.27231952107544366 1 I I #
coedge $-1 $295 $295 $-1 $431 reversed $179 $-1 #
edge $-1 $432 0 $432 6.2831853071796004 $180 $433 forward 7 unknown #
vertex $-1 $183 $434 #
ellipse-curve $-1 -62.088016340198635 20.426927789060059 14.23558339023584 -0.54463904215088732 0 0.83867056331134215 0.41933528165567108 0 0.27231952107544366 1 I I #
coedge $-1 $299 $299 $-1 $435 reversed $186 $-1 #
edge $-1 $436 0 $436 6.2831853071796004 $187 $437 forward 7 unknown #
vertex $-1 $190 $438 #
ellipse-curve $-1 -62.088016340198635 23.093071983885764 14.23558339023584 -0.54463904215088732 0 0.83867056331134215 0.41933528165567108 0 0.27231952107544366 1 I I #
face $-1 $-1 $315 $40 $-1 $439 reversed single #
loop $-1 $-1 $440 $191 #
plane-surface $-1 0 0 17.564413609557878 0 0 1 1 0 0 forward_v I I I I #
coedge $-1 $441 $442 $443 $444 reversed $192 $-1 #
coedge $-1 $445 $194 $196 $313 forward $120 $-1 #
coedge $-1 $194 $445 $441 $446 forward $120 $-1 #
coedge $-1 $443 $197 $194 $310 forward $315 $-1 #
edge $-1 $317 5.7698902364871891 $447 14.657037552572856 $309 $448 forward 7 unknown #
coedge $-1 $449 $450 $195 $312 forward $304 $-1 #
edge $-1 $451 43.118109227038268 $316 53.370007086513432 $311 $452 forward 7 unknown #
edge $-1 $317 -134.42793053987242 $451 -122.20394378278706 $196 $453 forward 7 unknown #
coedge $-1 $197 $443 $449 $454 reversed $315 $-1 #
loop $-1 $-1 $443 $303 #
vertex $-1 $454 $455 #
vertex $-1 $198 $456 #
straight-curve $-1 67.21396526993621 15.983354131017212 98.431100364564344 0 0 -1 I I #
coedge $-1 $319 $319 $-1 $457 reversed $201 $-1 #
edge $-1 $458 0 $458 6.2831853071796004 $202 $459 forward 7 unknown #
vertex $-1 $205 $460 #
ellipse-curve $-1 62.088016340198593 17.760783594234354 14.23558339023584 0.54463904215088732 0 0.83867056331134215 0.41933528165567108 0 -0.27231952107544366 1 I I #
coedge $-1 $323 $323 $-1 $461 reversed $208 $-1 #
edge $-1 $462 0 $462 6.2831853071796004 $209 $463 forward 7 unknown #
vertex $-1 $212 $464 #
ellipse-curve $-1 62.088016340198593 20.426927789060059 14.23558339023584 0.54463904215088732 0 0.83867056331134215 0.41933528165567108 0 -0.27231952107544366 1 I I #
coedge $-1 $327 $327 $-1 $465 reversed $215 $-1 #
edge $-1 $466 0 $466 6.2831853071796004 $216 $467 forward 7 unknown #
vertex $-1 $219 $468 #
ellipse-curve $-1 62.088016340198593 23.093071983885764 14.23558339023584 0.54463904215088732 0 0.83867056331134215 0.41933528165567108 0 -0.27231952107544366 1 I I #
face $-1 $-1 $235 $33 $-1 $469 reversed single #
loop $-1 $-1 $347 $220 #
plane-surface $-1 0 46.6676240812467 0 0 -1 0 0 0 -1 forward_v I I I I #
coedge $-1 $470 $345 $348 $471 forward $221 $-1 #
coedge $-1 $351 $223 $224 $339 reversed $139 $-1 #
coedge $-1 $345 $470 $223 $337 reversed $221 $-1 #
edge $-1 $352 -17.564413609557878 $472 17.564413609557878 $336 $473 forward 7 unknown #
coedge $-1 $225 $224 $470 $474 forward $89 $-1 #
edge $-1 $343 -67.21396526993621 $472 67.21396526993621 $335 $475 forward 7 unknown #
coedge $-1 $348 $347 $225 $341 reversed $332 $-1 #
edge $-1 $476 -67.21396526993621 $342 67.21396526993621 $340 $477 forward 7 unknown #
vertex $-1 $227 $478 #
vertex $-1 $354 $479 #
straight-curve $-1 67.21396526993621 0 -17.564413609557878 0 -1 0 I I #
coedge $-1 $334 $336 $228 $346 reversed $221 $-1 #
edge $-1 $349 -46.6676240812467 $352 46.6676240812467 $345 $480 forward 7 unknown #
coedge $-1 $340 $229 $234 $355 forward $332 $-1 #
coedge $-1 $229 $340 $334 $471 reversed $332 $-1 #
vertex $-1 $230 $481 #
straight-curve $-1 0 46.6676240812467 17.564413609557878 -1 0 0 I I #
coedge $-1 $231 $335 $233 $354 reversed $139 $-1 #
vertex $-1 $346 $482 #
straight-curve $-1 0 -46.6676240812467 17.564413609557878 1 0 0 I I #
edge $-1 $236 -17.564413609557878 $343 17.564413609557878 $233 $483 forward 7 unknown #
edge $-1 $237 -17.564413609557878 $342 17.564413609557878 $234 $484 forward 7 unknown #
point $-1 67.21396526993621 -46.6676240812467 17.564413609557878 #
point $-1 67.21396526993621 46.6676240812467 17.564413609557878 #
face $-1 $-1 $254 $34 $-1 $485 reversed single #
loop $-1 $-1 $250 $239 #
plane-surface $-1 0 -46.6676240812467 0 0 1 0 0 0 1 forward_v I I I I #
coedge $-1 $486 $487 $247 $371 forward $240 $-1 #
coedge $-1 $372 $242 $244 $367 reversed $147 $-1 #
edge $-1 $369 -3.1842569768831046 $255 3.4404435460540581 $253 $488 forward 7 unknown #
coedge $-1 $244 $243 $489 $490 reversed $93 $-1 #
coedge $-1 $376 $375 $243 $366 forward $359 $-1 #
edge $-1 $491 -67.21396526993621 $368 67.21396526993621 $365 $492 forward 7 unknown #
edge $-1 $493 -67.21396526993621 $369 67.21396526993621 $362 $494 forward 7 unknown #
vertex $-1 $366 $495 #
vertex $-1 $246 $496 #
straight-curve $-1 67.21396526993621 -17.884531382087395 -3.0561636922976279 0 1 0 I I #
edge $-1 $377 -28.783092699159305 $373 -6.9859700650154863 $361 $497 forward 7 unknown #
coedge $-1 $248 $362 $486 $498 reversed $147 $-1 #
vertex $-1 $371 $499 #
straight-curve $-1 0 -24.870501447102882 3.5685368306395349 -1 0 0 I I #
coedge $-1 $365 $250 $487 $500 forward $359 $-1 #
coedge $-1 $250 $365 $252 $379 reversed $359 $-1 #
vertex $-1 $500 $501 #
straight-curve $-1 0 -46.6676240812467 3.5685368306395349 -1 0 0 I I #
edge $-1 $256 -3.5685368306395349 $368 3.0561636922976279 $252 $502 forward 7 unknown #
point $-1 67.21396526993621 -24.870501447102882 3.5685368306395349 #
point $-1 67.21396526993621 -46.6676240812467 3.5685368306395349 #
face $-1 $-1 $399 $35 $-1 $503 reversed single #
loop $-1 $-1 $395 $258 #
plane-surface $-1 -67.21396526993621 0 0 1 0 0 0 0 -1 forward_v I I I I #
coedge $-1 $402 $261 $262 $389 reversed $155 $-1 #
coedge $-1 $395 $504 $261 $387 forward $383 $-1 #
edge $-1 $505 -3.1842569768831046 $403 3.4404435460540581 $386 $506 forward 7 unknown #
coedge $-1 $263 $262 $504 $507 reversed $97 $-1 #
edge $-1 $392 -67.21396526993621 $505 67.21396526993621 $385 $508 forward 7 unknown #
coedge $-1 $398 $397 $263 $391 forward $399 $-1 #
edge $-1 $393 -67.21396526993621 $509 67.21396526993621 $390 $510 forward 7 unknown #
vertex $-1 $265 $511 #
vertex $-1 $391 $512 #
straight-curve $-1 67.21396526993621 17.884531382087395 -3.0561636922976279 0 1 0 I I #
coedge $-1 $513 $386 $266 $396 forward $383 $-1 #
edge $-1 $403 6.9859700650154863 $400 28.783092699159305 $395 $514 forward 7 unknown #
coedge $-1 $390 $267 $272 $406 forward $399 $-1 #
coedge $-1 $267 $390 $513 $515 reversed $399 $-1 #
loop $-1 $-1 $267 $382 #
vertex $-1 $515 $516 #
straight-curve $-1 0 46.6676240812467 3.5685368306395349 1 0 0 I I #
coedge $-1 $269 $385 $271 $405 reversed $155 $-1 #
vertex $-1 $396 $517 #
straight-curve $-1 0 24.870501447102882 3.5685368306395349 1 0 0 I I #
edge $-1 $274 -3.4404435460540581 $392 3.1842569768831046 $271 $518 forward 7 unknown #
edge $-1 $273 -3.5685368306395349 $393 3.0561636922976279 $272 $519 forward 7 unknown #
point $-1 67.21396526993621 46.6676240812467 3.5685368306395349 #
point $-1 67.21396526993621 24.870501447102882 3.5685368306395349 #
loop $-1 $-1 $284 $276 #
plane-surface $-1 0 0 17.564413609557878 0 0 1 1 0 0 forward_v I I I I #
coedge $-1 $412 $279 $281 $416 reversed $163 $-1 #
coedge $-1 $279 $411 $520 $521 reversed $163 $-1 #
coedge $-1 $287 $282 $279 $414 forward $277 $-1 #
edge $-1 $417 -50.916997529869491 $522 -44.259337091225404 $413 $523 forward 7 unknown #
coedge $-1 $281 $280 $420 $524 reversed $101 $-1 #
edge $-1 $525 -12.223986757085362 $417 -3.3511183933559511e-014 $411 $526 forward 7 unknown #
vertex $-1 $283 $527 #
straight-curve $-1 -67.21396526993621 10.213463894530022 10.906753170913795 0 -1 0 I I #
coedge $-1 $520 $284 $287 $424 forward $409 $-1 #
coedge $-1 $284 $520 $415 $524 forward $409 $-1 #
vertex $-1 $285 $528 #
straight-curve $-1 -70.214332298749184 24.870501447102878 17.564413609557874 -1 0 0 I I #
straight-curve $-1 -67.213965269936239 24.870501447102878 10.906753170913774 0.83867056331134215 0 0.54463904215088732 I I #
edge $-1 $288 -24.870501447102878 $522 -15.983354131017212 $287 $529 forward 7 unknown #
point $-1 -67.21396526993621 24.870501447102878 17.564413609557878 #
point $-1 -67.21396526993621 24.870501447102878 10.906753170913792 #
edge $-1 $530 1 $530 0 $291 $-1 forward 7 unknown #
vertex $-1 $292 $531 #
ellipse-curve $-1 -61.54337729804773 17.760783594234354 13.396912826924478 -0.54463904215088732 0 0.83867056331134215 0.41933528165567108 0 0.27231952107544366 1 I I #
point $-1 -61.668681058542944 17.760783594234354 14.507902911311264 #
edge $-1 $532 1 $532 0 $295 $-1 forward 7 unknown #
vertex $-1 $296 $533 #
ellipse-curve $-1 -61.54337729804773 20.426927789060059 13.396912826924478 -0.54463904215088732 0 0.83867056331134215 0.41933528165567108 0 0.27231952107544366 1 I I #
point $-1 -61.668681058542944 20.426927789060059 14.507902911311264 #
edge $-1 $534 1 $534 0 $299 $-1 forward 7 unknown #
vertex $-1 $300 $535 #
ellipse-curve $-1 -61.54337729804773 23.093071983885764 13.396912826924478 -0.54463904215088732 0 0.83867056331134215 0.41933528165567108 0 0.27231952107544366 1 I I #
point $-1 -61.668681058542944 23.093071983885764 14.507902911311264 #
plane-surface $-1 67.21396526993621 0 0 -1 0 0 0 0 1 forward_v I I I I #
coedge $-1 $450 $449 $442 $536 forward $304 $-1 #
coedge $-1 $442 $306 $308 $446 reversed $192 $-1 #
coedge $-1 $306 $441 $440 $536 reversed $192 $-1 #
coedge $-1 $314 $309 $306 $444 forward $315 $-1 #
edge $-1 $447 -87.52434719365057 $537 -80.866686755006469 $443 $538 forward 7 unknown #
coedge $-1 $308 $307 $450 $539 reversed $120 $-1 #
edge $-1 $540 122.20394378278706 $447 134.42793053987242 $441 $541 forward 7 unknown #
vertex $-1 $310 $542 #
straight-curve $-1 67.21396526993621 10.213463894530022 10.906753170913781 0 1 0 I I #
coedge $-1 $440 $311 $314 $454 forward $304 $-1 #
coedge $-1 $311 $440 $445 $539 forward $304 $-1 #
vertex $-1 $312 $543 #
straight-curve $-1 13.843958183422778 15.983354131017212 17.564413609557874 1 0 0 I I #
straight-curve $-1 -45.526782960716574 15.983354131017212 84.121452498475904 -0.83867056331134215 0 0.54463904215088732 I I #
edge $-1 $316 15.983354131017212 $537 24.870501447102878 $314 $544 forward 7 unknown #
point $-1 67.21396526993621 15.983354131017212 17.564413609557878 #
point $-1 67.21396526993621 15.983354131017212 10.906753170913774 #
edge $-1 $545 1 $545 0 $319 $-1 forward 7 unknown #
vertex $-1 $320 $546 #
ellipse-curve $-1 61.543377298047702 17.760783594234354 13.396912826924492 0.54463904215088732 0 0.83867056331134215 0.41933528165567108 0 -0.27231952107544366 1 I I #
point $-1 62.507351621854262 17.760783594234354 13.963263869160391 #
edge $-1 $547 1 $547 0 $323 $-1 forward 7 unknown #
vertex $-1 $324 $548 #
ellipse-curve $-1 61.543377298047702 20.426927789060059 13.396912826924492 0.54463904215088732 0 0.83867056331134215 0.41933528165567108 0 -0.27231952107544366 1 I I #
point $-1 62.507351621854262 20.426927789060059 13.963263869160391 #
edge $-1 $549 1 $549 0 $327 $-1 forward 7 unknown #
vertex $-1 $328 $550 #
ellipse-curve $-1 61.543377298047702 23.093071983885764 13.396912826924492 0.54463904215088732 0 0.83867056331134215 0.41933528165567108 0 -0.27231952107544366 1 I I #
point $-1 62.507351621854262 23.093071983885764 13.963263869160391 #
plane-surface $-1 67.21396526993621 0 0 -1 0 0 0 0 1 forward_v I I I I #
coedge $-1 $336 $334 $338 $474 reversed $221 $-1 #
edge $-1 $349 -17.564413609557878 $476 17.564413609557878 $348 $551 forward 7 unknown #
vertex $-1 $474 $552 #
straight-curve $-1 -67.21396526993621 -46.6676240812467 0 0 0 -1 I I #
edge $-1 $472 -46.6676240812467 $476 46.6676240812467 $470 $553 forward 7 unknown #
straight-curve $-1 0 -46.6676240812467 -17.564413609557878 -1 0 0 I I #
vertex $-1 $341 $554 #
straight-curve $-1 0 46.6676240812467 -17.564413609557878 1 0 0 I I #
point $-1 67.21396526993621 46.6676240812467 -17.564413609557878 #
point $-1 67.21396526993621 -46.6676240812467 -17.564413609557878 #
straight-curve $-1 -67.21396526993621 0 17.564413609557878 0 -1 0 I I #
point $-1 -67.21396526993621 46.6676240812467 17.564413609557878 #
point $-1 -67.21396526993621 -46.6676240812467 17.564413609557878 #
straight-curve $-1 67.21396526993621 -46.6676240812467 0 0 0 -1 I I #
straight-curve $-1 67.21396526993621 46.6676240812467 0 0 0 -1 I I #
plane-surface $-1 67.21396526993621 0 0 -1 0 0 0 0 1 forward_v I I I I #
coedge $-1 $489 $361 $372 $498 forward $240 $-1 #
coedge $-1 $361 $489 $375 $500 reversed $240 $-1 #
straight-curve $-1 67.21396526993621 -24.870501447102882 0.12809328458547675 0 0 1 I I #
coedge $-1 $487 $486 $364 $490 forward $240 $-1 #
edge $-1 $493 6.9859700650154863 $491 28.783092699159305 $489 $555 forward 7 unknown #
vertex $-1 $366 $556 #
straight-curve $-1 0 -46.6676240812467 -3.0561636922976279 1 0 0 I I #
vertex $-1 $490 $557 #
straight-curve $-1 0 -24.870501447102882 -3.0561636922976279 1 0 0 I I #
point $-1 67.21396526993621 -46.6676240812467 -3.0561636922976279 #
point $-1 67.21396526993621 -24.870501447102882 -3.0561636922976279 #
straight-curve $-1 -67.21396526993621 -17.884531382087395 3.5685368306395349 0 1 0 I I #
edge $-1 $373 -3.4404435460540581 $493 3.1842569768831046 $486 $558 forward 7 unknown #
point $-1 -67.21396526993621 -24.870501447102882 3.5685368306395349 #
edge $-1 $377 -3.5685368306395349 $491 3.0561636922976279 $487 $559 forward 7 unknown #
point $-1 -67.21396526993621 -46.6676240812467 3.5685368306395349 #
straight-curve $-1 67.21396526993621 -46.6676240812467 0 0 0 -1 I I #
plane-surface $-1 0 46.6676240812467 0 0 -1 0 0 0 -1 forward_v I I I I #
coedge $-1 $386 $513 $388 $507 forward $383 $-1 #
vertex $-1 $507 $560 #
straight-curve $-1 -67.21396526993621 24.870501447102882 0.12809328458547675 0 0 1 I I #
edge $-1 $509 -28.783092699159305 $505 -6.9859700650154863 $504 $561 forward 7 unknown #
straight-curve $-1 0 24.870501447102882 -3.0561636922976279 -1 0 0 I I #
vertex $-1 $391 $562 #
straight-curve $-1 0 46.6676240812467 -3.0561636922976279 -1 0 0 I I #
point $-1 67.21396526993621 24.870501447102882 -3.0561636922976279 #
point $-1 67.21396526993621 46.6676240812467 -3.0561636922976279 #
coedge $-1 $504 $395 $398 $515 forward $383 $-1 #
straight-curve $-1 -67.21396526993621 17.884531382087395 3.5685368306395349 0 1 0 I I #
edge $-1 $400 -3.5685368306395349 $509 3.0561636922976279 $398 $563 forward 7 unknown #
point $-1 -67.21396526993621 46.6676240812467 3.5685368306395349 #
point $-1 -67.21396526993621 24.870501447102882 3.5685368306395349 #
straight-curve $-1 67.21396526993621 24.870501447102882 0.12809328458547675 0 0 -1 I I #
straight-curve $-1 67.21396526993621 46.6676240812467 0 0 0 -1 I I #
coedge $-1 $420 $419 $412 $521 forward $409 $-1 #
edge $-1 $522 3.000367028812974 $525 13.25226488828811 $520 $564 forward 7 unknown #
vertex $-1 $521 $565 #
straight-curve $-1 -67.21396526993621 15.983354131017212 61.823750700783279 0 0 1 I I #
edge $-1 $525 5.7698902364871891 $421 14.657037552572856 $420 $566 forward 7 unknown #
vertex $-1 $524 $567 #
straight-curve $-1 -67.213965269936239 15.983354131017212 10.906753170913774 -0.83867056331134215 0 -0.54463904215088732 I I #
point $-1 -67.21396526993621 15.983354131017212 10.906753170913792 #
point $-1 -56.962067410461074 24.870501447102878 17.564413609557878 #
straight-curve $-1 -67.21396526993621 0 17.564413609557878 0 -1 0 I I #
vertex $-1 $427 $568 #
point $-1 -61.12404201639206 17.760783594234354 13.669232347999921 #
vertex $-1 $431 $569 #
point $-1 -61.12404201639206 20.426927789060059 13.669232347999921 #
vertex $-1 $435 $570 #
point $-1 -61.12404201639206 23.093071983885764 13.669232347999921 #
edge $-1 $537 -53.370007086513432 $540 -43.118109227038268 $440 $571 forward 7 unknown #
vertex $-1 $444 $572 #
straight-curve $-1 67.21396526993621 24.870501447102878 98.431100364564344 0 0 1 I I #
edge $-1 $540 -14.657037552572856 $451 -5.7698902364871891 $450 $573 forward 7 unknown #
vertex $-1 $539 $574 #
straight-curve $-1 -45.526782960716574 24.870501447102878 84.121452498475904 0.83867056331134215 0 -0.54463904215088732 I I #
point $-1 67.21396526993621 24.870501447102878 10.906753170913774 #
point $-1 56.962067410461046 15.983354131017212 17.564413609557874 #
straight-curve $-1 67.21396526993621 0 17.564413609557878 0 1 0 I I #
vertex $-1 $457 $575 #
point $-1 61.962712579703371 17.760783594234354 13.124593305849048 #
vertex $-1 $461 $576 #
point $-1 61.962712579703371 20.426927789060059 13.124593305849048 #
vertex $-1 $465 $577 #
point $-1 61.962712579703371 23.093071983885764 13.124593305849048 #
straight-curve $-1 -67.21396526993621 46.6676240812467 0 0 0 -1 I I #
point $-1 -67.21396526993621 -46.6676240812467 -17.564413609557878 #
straight-curve $-1 -67.21396526993621 0 -17.564413609557878 0 1 0 I I #
point $-1 -67.21396526993621 46.6676240812467 -17.564413609557878 #
straight-curve $-1 -67.21396526993621 -17.884531382087395 -3.0561636922976279 0 -1 0 I I #
point $-1 -67.21396526993621 -46.6676240812467 -3.0561636922976279 #
point $-1 -67.21396526993621 -24.870501447102882 -3.0561636922976279 #
straight-curve $-1 -67.21396526993621 -24.870501447102882 0.12809328458547675 0 0 -1 I I #
straight-curve $-1 -67.21396526993621 -46.6676240812467 0 0 0 -1 I I #
point $-1 -67.21396526993621 24.870501447102882 -3.0561636922976279 #
straight-curve $-1 -67.21396526993621 17.884531382087395 -3.0561636922976279 0 -1 0 I I #
point $-1 -67.21396526993621 46.6676240812467 -3.0561636922976279 #
straight-curve $-1 -67.21396526993621 46.6676240812467 0 0 0 -1 I I #
straight-curve $-1 -70.214332298749184 15.983354131017212 17.564413609557874 1 0 0 I I #
point $-1 -67.21396526993621 15.983354131017212 17.564413609557878 #
straight-curve $-1 -56.962067410461067 10.213463894530022 17.564413609557878 0 1 0 I I #
point $-1 -56.962067410461074 15.983354131017212 17.564413609557878 #
point $-1 -61.271057776972285 17.760783594234354 12.977577545268808 #
point $-1 -61.271057776972285 20.426927789060059 12.977577545268808 #
point $-1 -61.271057776972285 23.093071983885764 12.977577545268808 #
straight-curve $-1 13.843958183422778 24.870501447102878 17.564413609557874 -1 0 0 I I #
point $-1 67.21396526993621 24.870501447102878 17.564413609557878 #
straight-curve $-1 56.96206741046106 10.213463894530022 17.564413609557867 0 -1 0 I I #
point $-1 56.962067410461046 24.870501447102878 17.564413609557874 #
point $-1 61.271057776972256 17.760783594234354 12.977577545268822 #
point $-1 61.271057776972256 20.426927789060059 12.977577545268822 #
point $-1 61.271057776972256 23.093071983885764 12.977577545268822 #
End-of-ACIS-data 