500 0 6 0           
7 Unknown 11 ACIS 5.0 NT 24 Thu Mar 25 21:34:51 1999 
-1 9.9999999999999995e-007 1e-010 
body $-1 $6 $-1 $7 #
body $-1 $8 $-1 $9 #
body $-1 $10 $-1 $11 #
body $-1 $12 $-1 $13 #
body $-1 $14 $-1 $15 #
body $-1 $16 $-1 $17 #
lump $-1 $-1 $18 $0 #
transform $-1 1 0 0 0 1 0 0 0 1 51.905880916776027 33.45946830348602 14.481505404412305 1 rotate no_reflect no_shear #
lump $-1 $-1 $19 $1 #
transform $-1 1 0 0 0 1 0 0 0 1 51.905880916776027 33.45946830348602 14.481505404412305 1 rotate no_reflect no_shear #
lump $-1 $-1 $20 $2 #
transform $-1 1 0 0 0 1 0 0 0 1 51.905880916776027 33.45946830348602 14.481505404412305 1 rotate no_reflect no_shear #
lump $-1 $-1 $21 $3 #
transform $-1 1 0 0 0 1 0 0 0 1 51.905880916776027 33.45946830348602 14.481505404412305 1 rotate no_reflect no_shear #
lump $-1 $-1 $22 $4 #
transform $-1 1 0 0 0 1 0 0 0 1 51.905880916776027 33.45946830348602 14.481505404412305 1 rotate no_reflect no_shear #
lump $-1 $-1 $23 $5 #
transform $-1 1 0 0 0 1 0 0 0 1 51.905880916776027 33.45946830348602 14.481505404412305 1 rotate no_reflect no_shear #
shell $-1 $-1 $-1 $24 $-1 $6 #
shell $-1 $-1 $-1 $25 $-1 $8 #
shell $-1 $-1 $-1 $26 $-1 $10 #
shell $-1 $-1 $-1 $27 $-1 $12 #
shell $-1 $-1 $-1 $28 $-1 $14 #
shell $-1 $-1 $-1 $29 $-1 $16 #
face $-1 $30 $31 $18 $-1 $32 forward single #
face $-1 $33 $34 $19 $-1 $35 forward single #
face $-1 $36 $37 $20 $-1 $38 reversed single #
face $-1 $39 $40 $21 $-1 $41 forward single #
face $-1 $42 $43 $22 $-1 $44 reversed single #
face $-1 $45 $46 $23 $-1 $47 forward single #
face $-1 $48 $49 $18 $-1 $50 reversed single #
loop $-1 $-1 $51 $24 #
plane-surface $-1 0 0 14.481505404412305 0 0 1 1 0 0 forward_v I I I I #
face $-1 $52 $53 $19 $-1 $54 reversed single #
loop $-1 $-1 $55 $25 #
plane-surface $-1 0 -33.45946830348602 0 0 1 0 0 0 1 forward_v I I I I #
face $-1 $56 $57 $20 $-1 $58 reversed single #
loop $-1 $-1 $59 $26 #
plane-surface $-1 31.473600794181166 -8.0114290371489076 147.46039930891524 0 -1 0 -0.6018150307709319 0 -0.79863550430605224 forward_v I I I I #
face $-1 $60 $61 $21 $-1 $62 forward single #
loop $-1 $63 $64 $27 #
cone-surface $-1 43.292760802170726 -11.38210927756527 7.7716589017548232 -0.6018150307709319 0 -0.79863550430605224 0.39931775215302612 0 -0.30090751538546595 1 I I 0 1 0.5 forward I I I I #
face $-1 $65 $66 $22 $-1 $67 reversed single #
loop $-1 $-1 $68 $28 #
plane-surface $-1 -137.96973278810606 18.672023619105818 65.274262936492448 0 1 0 -0.82903758062907751 0 0.55919289150049634 forward_v I I I I #
face $-1 $69 $70 $23 $-1 $71 forward single #
loop $-1 $72 $73 $29 #
cone-surface $-1 -47.306207226168077 26.065745961295917 9.4010310962975865 0.82903758062907751 0 -0.55919289150049634 0.83878933725074445 0 1.2435563709436162 1 I I 0 1 1.5 forward I I I I #
face $-1 $74 $75 $18 $-1 $76 reversed single #
loop $-1 $-1 $77 $30 #
plane-surface $-1 0 0 -14.481505404412305 0 0 1 1 0 0 forward_v I I I I #
coedge $-1 $78 $79 $80 $81 forward $31 $-1 #
face $-1 $82 $83 $19 $-1 $84 reversed single #
loop $-1 $-1 $85 $33 #
plane-surface $-1 0 0 -14.481505404412305 0 0 1 1 0 0 forward_v I I I I #
coedge $-1 $86 $87 $88 $89 forward $34 $-1 #
face $-1 $90 $91 $20 $-1 $92 reversed single #
loop $-1 $-1 $93 $36 #
plane-surface $-1 -31.00187784806262 -11.38210927756527 64.55264054407661 0.6018150307709319 0 0.79863550430605224 0.79863550430605224 0 -0.6018150307709319 forward_v I I I I #
coedge $-1 $94 $95 $96 $97 reversed $37 $-1 #
face $-1 $-1 $98 $21 $-1 $99 forward single #
loop $-1 $100 $101 $39 #
cone-surface $-1 42.75974667185659 -11.38210927756527 7.0643252743105673 -0.6018150307709319 0 -0.79863550430605224 0.19965887607651306 0 -0.15045375769273298 1 I I -0.70710678118654746 0.70710678118654746 0.25 forward I I I I #
loop $-1 $-1 $102 $27 #
coedge $-1 $64 $64 $103 $104 reversed $40 $-1 #
face $-1 $105 $106 $22 $-1 $107 reversed single #
loop $-1 $-1 $108 $42 #
plane-surface $-1 -51.905880916776056 26.065745961295917 7.2234636650276087 -0.82903758062907751 0 0.55919289150049634 0.55919289150049634 0 0.82903758062907751 forward_v I I I I #
coedge $-1 $109 $110 $111 $112 reversed $43 $-1 #
face $-1 $-1 $113 $23 $-1 $114 forward single #
loop $-1 $115 $116 $45 #
cone-surface $-1 -44.53256075825697 26.065745961295917 7.5301829892498429 0.82903758062907751 0 -0.55919289150049634 0.41939466862537222 0 0.62177818547180808 1 I I -0.70710678118654791 0.70710678118654702 0.75 forward I I I I #
loop $-1 $-1 $117 $29 #
coedge $-1 $73 $73 $118 $119 reversed $46 $-1 #
face $-1 $120 $121 $18 $-1 $122 reversed single #
loop $-1 $-1 $123 $48 #
plane-surface $-1 0 -33.45946830348602 0 0 1 0 0 0 1 forward_v I I I I #
coedge $-1 $124 $125 $126 $127 forward $49 $-1 #
coedge $-1 $128 $51 $129 $130 forward $31 $-1 #
coedge $-1 $51 $128 $131 $132 forward $31 $-1 #
coedge $-1 $133 $134 $51 $81 reversed $135 $-1 #
edge $-1 $136 -33.45946830348602 $137 33.45946830348602 $80 $138 forward 7 unknown #
face $-1 $139 $140 $19 $-1 $141 forward single #
loop $-1 $-1 $142 $52 #
plane-surface $-1 51.905880916776027 0 0 -1 0 0 0 0 1 forward_v I I I I #
coedge $-1 $143 $144 $145 $146 forward $53 $-1 #
coedge $-1 $145 $55 $142 $147 reversed $34 $-1 #
coedge $-1 $55 $145 $148 $149 reversed $34 $-1 #
coedge $-1 $150 $151 $55 $89 reversed $140 $-1 #
edge $-1 $152 -51.905880916776027 $153 51.905880916776027 $88 $154 forward 7 unknown #
face $-1 $155 $156 $20 $-1 $157 reversed single #
loop $-1 $-1 $158 $56 #
plane-surface $-1 31.473600794181166 -14.752789517981633 147.46039930891524 0 1 0 0.6018150307709319 0 0.79863550430605224 forward_v I I I I #
coedge $-1 $159 $160 $161 $162 reversed $57 $-1 #
coedge $-1 $95 $59 $163 $164 reversed $37 $-1 #
coedge $-1 $59 $94 $159 $165 reversed $37 $-1 #
coedge $-1 $161 $166 $59 $97 forward $167 $-1 #
edge $-1 $168 -36.169080519685444 $169 -19.707961035717638 $96 $170 forward 7 unknown #
loop $-1 $-1 $103 $60 #
plane-surface $-1 -31.00187784806262 -11.38210927756527 64.55264054407661 0.6018150307709319 0 0.79863550430605224 0.79863550430605224 0 -0.6018150307709319 forward_v I I I I #
loop $-1 $-1 $171 $39 #
coedge $-1 $101 $101 $102 $172 reversed $61 $-1 #
coedge $-1 $102 $102 $101 $172 forward $63 $-1 #
coedge $-1 $103 $103 $64 $104 forward $98 $-1 #
edge $-1 $173 0 $173 6.2831853071796004 $103 $174 forward 7 unknown #
face $-1 $175 $176 $22 $-1 $177 reversed single #
loop $-1 $-1 $178 $65 #
plane-surface $-1 0 33.45946830348602 0 0 -1 0 0 0 -1 forward_v I I I I #
coedge $-1 $179 $180 $181 $182 reversed $66 $-1 #
coedge $-1 $110 $68 $183 $184 reversed $43 $-1 #
coedge $-1 $68 $109 $179 $185 reversed $43 $-1 #
coedge $-1 $181 $186 $68 $112 forward $187 $-1 #
edge $-1 $188 17.078985477277001 $189 21.974596293614276 $111 $190 forward 7 unknown #
loop $-1 $-1 $118 $69 #
plane-surface $-1 -51.905880916776056 26.065745961295917 7.2234636650276087 -0.82903758062907751 0 0.55919289150049634 0.55919289150049634 0 0.82903758062907751 forward_v I I I I #
loop $-1 $-1 $191 $45 #
coedge $-1 $116 $116 $117 $192 reversed $70 $-1 #
coedge $-1 $117 $117 $116 $192 forward $72 $-1 #
coedge $-1 $118 $118 $73 $119 forward $113 $-1 #
edge $-1 $193 0 $193 6.2831853071796004 $118 $194 forward 7 unknown #
face $-1 $195 $196 $18 $-1 $197 reversed single #
loop $-1 $-1 $198 $74 #
plane-surface $-1 -51.905880916776027 0 0 1 0 0 0 0 -1 forward_v I I I I #
coedge $-1 $131 $199 $133 $200 reversed $75 $-1 #
coedge $-1 $201 $77 $199 $202 forward $49 $-1 #
coedge $-1 $77 $201 $203 $204 forward $49 $-1 #
coedge $-1 $134 $133 $77 $127 reversed $135 $-1 #
edge $-1 $205 -33.45946830348602 $206 33.45946830348602 $126 $207 forward 7 unknown #
coedge $-1 $79 $78 $208 $209 forward $31 $-1 #
coedge $-1 $210 $211 $78 $130 reversed $196 $-1 #
edge $-1 $137 -51.905880916776027 $212 51.905880916776027 $129 $213 forward 7 unknown #
coedge $-1 $214 $123 $79 $132 reversed $75 $-1 #
edge $-1 $215 -51.905880916776027 $136 51.905880916776027 $131 $216 forward 7 unknown #
coedge $-1 $126 $80 $123 $200 forward $135 $-1 #
coedge $-1 $80 $126 $210 $217 reversed $135 $-1 #
loop $-1 $-1 $133 $195 #
vertex $-1 $81 $218 #
vertex $-1 $81 $219 #
straight-curve $-1 51.905880916776027 0 14.481505404412305 0 1 0 I I #
face $-1 $220 $221 $19 $-1 $222 reversed single #
loop $-1 $-1 $151 $82 #
plane-surface $-1 0 -41.353026780337494 -8.772078977902682 0 0 1 1 0 0 forward_v I I I I #
coedge $-1 $223 $224 $86 $147 forward $83 $-1 #
coedge $-1 $225 $85 $224 $226 forward $53 $-1 #
coedge $-1 $85 $225 $227 $228 forward $53 $-1 #
coedge $-1 $87 $86 $85 $146 reversed $34 $-1 #
edge $-1 $229 -51.905880916776027 $230 51.905880916776027 $85 $231 forward 7 unknown #
edge $-1 $230 -14.481505404412305 $153 -8.772078977902682 $142 $232 forward 7 unknown #
coedge $-1 $227 $233 $87 $149 forward $234 $-1 #
edge $-1 $152 8.772078977902682 $229 14.481505404412305 $148 $235 forward 7 unknown #
coedge $-1 $236 $88 $233 $237 forward $140 $-1 #
coedge $-1 $88 $236 $223 $238 forward $140 $-1 #
vertex $-1 $149 $239 #
vertex $-1 $238 $240 #
straight-curve $-1 0 -33.45946830348602 -8.772078977902682 1 0 0 I I #
face $-1 $-1 $167 $20 $-1 $241 forward single #
loop $-1 $-1 $242 $90 #
plane-surface $-1 51.905880916776027 0 0 -1 0 0 0 0 1 forward_v I I I I #
coedge $-1 $243 $244 $245 $246 reversed $91 $-1 #
coedge $-1 $247 $93 $95 $165 forward $57 $-1 #
coedge $-1 $93 $247 $243 $248 forward $57 $-1 #
coedge $-1 $245 $96 $93 $162 forward $167 $-1 #
edge $-1 $169 2.3203743983662726 $249 9.0617348791989976 $161 $250 forward 7 unknown #
coedge $-1 $251 $252 $94 $164 forward $156 $-1 #
edge $-1 $253 -71.653037752624812 $168 -59.248694250045318 $163 $254 forward 7 unknown #
edge $-1 $169 83.200207006333187 $253 103.81176183355208 $95 $255 forward 7 unknown #
coedge $-1 $96 $245 $251 $256 forward $167 $-1 #
loop $-1 $-1 $245 $155 #
vertex $-1 $164 $257 #
vertex $-1 $97 $258 #
straight-curve $-1 15.736800397090583 -8.0114290371489076 14.481505404412303 -1 0 0 I I #
coedge $-1 $171 $171 $-1 $259 reversed $100 $-1 #
edge $-1 $260 0 $260 6.2831853071796004 $101 $261 forward 7 unknown #
vertex $-1 $104 $262 #
ellipse-curve $-1 43.675321174792124 -11.38210927756527 8.2793336531225634 0.6018150307709319 0 0.79863550430605224 0.39931775215302612 0 -0.30090751538546595 1 I I #
face $-1 $-1 $187 $22 $-1 $263 forward single #
loop $-1 $-1 $264 $105 #
plane-surface $-1 -51.905880916776027 0 0 1 0 0 0 0 -1 forward_v I I I I #
coedge $-1 $265 $266 $180 $267 forward $106 $-1 #
coedge $-1 $268 $108 $110 $185 forward $66 $-1 #
coedge $-1 $108 $268 $178 $267 reversed $66 $-1 #
coedge $-1 $269 $111 $108 $182 forward $187 $-1 #
edge $-1 $189 5.6391506384578598 $270 20.426595322838061 $181 $271 forward 7 unknown #
coedge $-1 $272 $264 $109 $184 forward $176 $-1 #
edge $-1 $273 -25.413667803218573 $188 -18.155626063833921 $183 $274 forward 7 unknown #
edge $-1 $189 -8.75478013177311 $273 -5.0500882424826555e-014 $110 $275 forward 7 unknown #
coedge $-1 $111 $269 $272 $276 forward $187 $-1 #
loop $-1 $-1 $181 $175 #
vertex $-1 $184 $277 #
vertex $-1 $112 $278 #
straight-curve $-1 -68.984866394053029 18.672023619105818 14.481505404412303 1 0 0 I I #
coedge $-1 $191 $191 $-1 $279 reversed $115 $-1 #
edge $-1 $280 0 $280 6.2831853071796004 $116 $281 forward 7 unknown #
vertex $-1 $119 $282 #
ellipse-curve $-1 -49.458075508607394 26.065745961295917 10.85248453471997 -0.82903758062907751 0 0.55919289150049634 0.83878933725074445 0 1.2435563709436162 1 I I #
face $-1 $-1 $135 $18 $-1 $283 reversed single #
loop $-1 $-1 $210 $120 #
plane-surface $-1 0 33.45946830348602 0 0 -1 0 0 0 -1 forward_v I I I I #
coedge $-1 $284 $208 $211 $285 forward $121 $-1 #
coedge $-1 $123 $214 $124 $202 reversed $75 $-1 #
edge $-1 $136 -14.481505404412305 $206 14.481505404412305 $133 $286 forward 7 unknown #
coedge $-1 $125 $124 $284 $287 forward $49 $-1 #
edge $-1 $206 -51.905880916776027 $288 51.905880916776027 $199 $289 forward 7 unknown #
coedge $-1 $211 $210 $125 $204 reversed $196 $-1 #
edge $-1 $290 -51.905880916776027 $205 51.905880916776027 $203 $291 forward 7 unknown #
vertex $-1 $127 $292 #
vertex $-1 $200 $293 #
straight-curve $-1 51.905880916776027 0 -14.481505404412305 0 -1 0 I I #
coedge $-1 $198 $294 $128 $209 reversed $121 $-1 #
edge $-1 $212 -33.45946830348602 $215 33.45946830348602 $208 $295 forward 7 unknown #
coedge $-1 $203 $129 $134 $217 forward $196 $-1 #
coedge $-1 $129 $203 $198 $285 reversed $196 $-1 #
vertex $-1 $130 $296 #
straight-curve $-1 0 33.45946830348602 14.481505404412305 -1 0 0 I I #
coedge $-1 $199 $131 $294 $297 forward $75 $-1 #
vertex $-1 $209 $298 #
straight-curve $-1 0 -33.45946830348602 14.481505404412305 1 0 0 I I #
edge $-1 $137 -14.481505404412305 $205 14.481505404412305 $134 $299 forward 7 unknown #
point $-1 51.905880916776027 -33.45946830348602 14.481505404412305 #
point $-1 51.905880916776027 33.45946830348602 14.481505404412305 #
face $-1 $-1 $234 $19 $-1 $300 reversed single #
loop $-1 $-1 $301 $139 #
plane-surface $-1 0 -49.246585257188968 -11.626792191157493 0 1 0 0 0 1 forward_v I I I I #
coedge $-1 $302 $142 $151 $238 reversed $83 $-1 #
coedge $-1 $142 $302 $143 $226 reversed $83 $-1 #
coedge $-1 $144 $143 $303 $304 forward $53 $-1 #
edge $-1 $230 33.45946830348602 $305 49.246585257188968 $224 $306 forward 7 unknown #
coedge $-1 $307 $148 $144 $228 reversed $234 $-1 #
edge $-1 $308 -49.246585257188968 $229 -33.45946830348602 $227 $309 forward 7 unknown #
vertex $-1 $149 $310 #
vertex $-1 $226 $311 #
straight-curve $-1 0 -33.45946830348602 -14.481505404412305 1 0 0 I I #
straight-curve $-1 51.905880916776027 -33.45946830348602 0 0 0 1 I I #
coedge $-1 $148 $307 $150 $237 reversed $234 $-1 #
loop $-1 $-1 $148 $220 #
straight-curve $-1 -51.905880916776027 -33.45946830348602 0 0 0 -1 I I #
coedge $-1 $151 $150 $312 $313 forward $140 $-1 #
edge $-1 $152 -7.8935584768514744 $314 7.8935584768514744 $233 $315 forward 7 unknown #
edge $-1 $316 -7.8935584768514744 $153 7.8935584768514744 $223 $317 forward 7 unknown #
point $-1 -51.905880916776027 -33.45946830348602 -8.772078977902682 #
point $-1 51.905880916776027 -33.45946830348602 -8.772078977902682 #
plane-surface $-1 0 0 14.481505404412305 0 0 1 1 0 0 forward_v I I I I #
coedge $-1 $252 $251 $244 $318 forward $156 $-1 #
coedge $-1 $244 $158 $160 $248 reversed $91 $-1 #
coedge $-1 $158 $243 $242 $318 reversed $91 $-1 #
coedge $-1 $166 $161 $158 $246 forward $167 $-1 #
edge $-1 $249 19.707961035717638 $319 36.169080519685444 $245 $320 forward 7 unknown #
coedge $-1 $160 $159 $252 $321 reversed $57 $-1 #
edge $-1 $322 -103.81176183355208 $249 -83.200207006333187 $243 $323 forward 7 unknown #
vertex $-1 $162 $324 #
straight-curve $-1 35.444761432808221 -5.6910546387826351 14.481505404412303 0 -1 0 I I #
coedge $-1 $242 $163 $166 $256 reversed $156 $-1 #
coedge $-1 $163 $242 $247 $321 forward $156 $-1 #
vertex $-1 $164 $325 #
straight-curve $-1 51.905880916776027 -8.0114290371489076 73.730199654457621 0 0 1 I I #
straight-curve $-1 -31.00187784806262 -8.0114290371489076 64.55264054407661 0.79863550430605224 0 -0.6018150307709319 I I #
edge $-1 $319 -14.752789517981633 $168 -8.0114290371489076 $251 $326 forward 7 unknown #
point $-1 51.905880916776027 -8.0114290371489076 14.481505404412305 #
point $-1 35.444761432808221 -8.0114290371489076 14.48150540441231 #
edge $-1 $327 1 $327 0 $171 $-1 forward 7 unknown #
vertex $-1 $172 $328 #
ellipse-curve $-1 42.91020042954932 -11.38210927756527 7.2639841503870803 0.6018150307709319 0 0.79863550430605224 0.39931775215302612 0 -0.30090751538546595 1 I I #
point $-1 44.074638926945148 -11.38210927756527 7.9784261377371006 #
plane-surface $-1 0 0 14.481505404412305 0 0 1 1 0 0 forward_v I I I I #
coedge $-1 $183 $329 $268 $330 forward $176 $-1 #
coedge $-1 $266 $178 $329 $331 reversed $106 $-1 #
coedge $-1 $178 $265 $269 $332 reversed $106 $-1 #
edge $-1 $270 2.7636582657848408 $333 11.518438397557899 $178 $334 forward 7 unknown #
coedge $-1 $180 $179 $264 $330 reversed $66 $-1 #
coedge $-1 $186 $181 $266 $332 forward $187 $-1 #
vertex $-1 $332 $335 #
straight-curve $-1 -47.010270100438753 13.032872980647959 14.481505404412305 0 1 0 I I #
coedge $-1 $329 $183 $186 $276 reversed $176 $-1 #
vertex $-1 $184 $336 #
straight-curve $-1 -51.905880916776027 18.672023619105818 32.637131468246224 0 0 1 I I #
straight-curve $-1 -51.905880916776056 18.672023619105818 7.2234636650276087 -0.55919289150049634 0 -0.82903758062907751 I I #
edge $-1 $337 -33.45946830348602 $188 -18.672023619105818 $272 $338 forward 7 unknown #
point $-1 -51.905880916776027 18.672023619105818 14.481505404412305 #
point $-1 -47.010270100438753 18.672023619105818 14.481505404412303 #
edge $-1 $339 1 $339 0 $191 $-1 forward 7 unknown #
vertex $-1 $192 $340 #
ellipse-curve $-1 -45.154338943728774 26.065745961295917 7.9495776578752144 -0.82903758062907751 0 0.55919289150049634 0.83878933725074445 0 1.2435563709436162 1 I I #
point $-1 -48.619286171356634 26.065745961295917 12.096040905663575 #
plane-surface $-1 51.905880916776027 0 0 -1 0 0 0 0 1 forward_v I I I I #
coedge $-1 $294 $198 $201 $287 reversed $121 $-1 #
edge $-1 $212 -14.481505404412305 $290 14.481505404412305 $211 $341 forward 7 unknown #
straight-curve $-1 51.905880916776027 -33.45946830348602 0 0 0 -1 I I #
edge $-1 $288 -33.45946830348602 $290 33.45946830348602 $284 $342 forward 7 unknown #
vertex $-1 $287 $343 #
straight-curve $-1 0 -33.45946830348602 -14.481505404412305 -1 0 0 I I #
vertex $-1 $204 $344 #
straight-curve $-1 0 33.45946830348602 -14.481505404412305 1 0 0 I I #
point $-1 51.905880916776027 33.45946830348602 -14.481505404412305 #
point $-1 51.905880916776027 -33.45946830348602 -14.481505404412305 #
coedge $-1 $208 $284 $214 $297 reversed $121 $-1 #
straight-curve $-1 -51.905880916776027 0 14.481505404412305 0 -1 0 I I #
point $-1 -51.905880916776027 33.45946830348602 14.481505404412305 #
edge $-1 $215 -14.481505404412305 $288 14.481505404412305 $294 $345 forward 7 unknown #
point $-1 -51.905880916776027 -33.45946830348602 14.481505404412305 #
straight-curve $-1 51.905880916776027 33.45946830348602 0 0 0 -1 I I #
plane-surface $-1 -51.905880916776027 0 0 1 0 0 0 0 -1 forward_v I I I I #
coedge $-1 $303 $312 $307 $346 forward $221 $-1 #
coedge $-1 $224 $223 $347 $348 forward $83 $-1 #
coedge $-1 $347 $301 $225 $304 reversed $221 $-1 #
edge $-1 $305 -51.905880916776027 $308 51.905880916776027 $303 $349 forward 7 unknown #
vertex $-1 $348 $350 #
straight-curve $-1 51.905880916776027 0 -14.481505404412305 0 -1 0 I I #
coedge $-1 $233 $227 $301 $346 reversed $234 $-1 #
vertex $-1 $228 $351 #
straight-curve $-1 -51.905880916776027 0 -14.481505404412305 0 1 0 I I #
point $-1 -51.905880916776027 -33.45946830348602 -14.481505404412305 #
point $-1 51.905880916776027 -33.45946830348602 -14.481505404412305 #
coedge $-1 $301 $347 $236 $313 reversed $221 $-1 #
edge $-1 $314 -51.905880916776027 $316 51.905880916776027 $312 $352 forward 7 unknown #
vertex $-1 $237 $353 #
straight-curve $-1 -51.905880916776027 -41.353026780337494 -8.772078977902682 0 -1 0 I I #
vertex $-1 $238 $354 #
straight-curve $-1 51.905880916776027 -41.353026780337494 -8.772078977902682 0 1 0 I I #
edge $-1 $319 59.248694250045318 $322 71.653037752624812 $242 $355 forward 7 unknown #
vertex $-1 $256 $356 #
straight-curve $-1 15.736800397090583 -14.752789517981633 14.481505404412303 1 0 0 I I #
edge $-1 $322 -9.0617348791989976 $253 -2.3203743983662726 $252 $357 forward 7 unknown #
vertex $-1 $321 $358 #
straight-curve $-1 -31.00187784806262 -14.752789517981633 64.55264054407661 -0.79863550430605224 0 0.6018150307709319 I I #
point $-1 35.444761432808221 -14.752789517981633 14.48150540441231 #
point $-1 51.905880916776027 -8.0114290371489076 2.0771619018328167 #
straight-curve $-1 51.905880916776027 0 14.481505404412305 0 1 0 I I #
vertex $-1 $259 $359 #
point $-1 43.309518181702352 -11.38210927756527 6.9630766350016149 #
coedge $-1 $264 $272 $265 $331 forward $176 $-1 #
edge $-1 $333 -20.426595322838061 $273 -5.6391506384578598 $264 $360 forward 7 unknown #
edge $-1 $337 -14.481505404412305 $333 -7.2234636650276505 $265 $361 forward 7 unknown #
edge $-1 $270 47.010270100438753 $337 51.905880916776027 $266 $362 forward 7 unknown #
vertex $-1 $267 $363 #
straight-curve $-1 -45.464852043675279 33.45946830348602 16.772681966764118 -0.55919289150049634 0 -0.82903758062907751 I I #
point $-1 -47.010270100438753 33.45946830348602 14.481505404412303 #
point $-1 -51.905880916776027 18.672023619105818 7.2234636650276505 #
vertex $-1 $332 $364 #
straight-curve $-1 -51.905880916776027 0 14.481505404412305 0 -1 0 I I #
vertex $-1 $279 $365 #
point $-1 -44.315549606478037 26.065745961295917 9.1931340288188306 #
straight-curve $-1 -51.905880916776027 33.45946830348602 0 0 0 -1 I I #
straight-curve $-1 -51.905880916776027 0 -14.481505404412305 0 1 0 I I #
point $-1 -51.905880916776027 -33.45946830348602 -14.481505404412305 #
point $-1 -51.905880916776027 33.45946830348602 -14.481505404412305 #
straight-curve $-1 -51.905880916776027 -33.45946830348602 0 0 0 -1 I I #
edge $-1 $314 -2.8547132132548114 $308 2.8547132132548114 $307 $366 forward 7 unknown #
coedge $-1 $312 $303 $302 $348 reversed $221 $-1 #
edge $-1 $316 -2.8547132132548114 $305 2.8547132132548114 $302 $367 forward 7 unknown #
straight-curve $-1 0 -49.246585257188968 -14.481505404412305 -1 0 0 I I #
point $-1 51.905880916776027 -49.246585257188968 -14.481505404412305 #
point $-1 -51.905880916776027 -49.246585257188968 -14.481505404412305 #
straight-curve $-1 0 -49.246585257188968 -8.772078977902682 1 0 0 I I #
point $-1 -51.905880916776027 -49.246585257188968 -8.772078977902682 #
point $-1 51.905880916776027 -49.246585257188968 -8.772078977902682 #
straight-curve $-1 51.905880916776027 -14.752789517981633 73.730199654457621 0 0 -1 I I #
point $-1 51.905880916776027 -14.752789517981633 14.481505404412305 #
straight-curve $-1 51.905880916776027 -5.6910546387826351 2.0771619018328131 0 1 0 I I #
point $-1 51.905880916776027 -14.752789517981633 2.0771619018328167 #
point $-1 42.609292914163859 -11.38210927756527 6.8646663982340543 #
straight-curve $-1 -51.905880916776027 13.032872980647959 7.2234636650276496 0 -1 0 I I #
straight-curve $-1 -51.905880916776027 33.45946830348602 0 0 0 -1 I I #
straight-curve $-1 0 33.45946830348602 14.481505404412305 -1 0 0 I I #
point $-1 -51.905880916776027 33.45946830348602 7.2234636650276505 #
point $-1 -51.905880916776027 33.45946830348602 14.481505404412305 #
point $-1 -43.910782572785166 26.065745961295917 7.1107883206244713 #
straight-curve $-1 -51.905880916776027 -49.246585257188968 -11.626792191157493 0 0 -1 I I #
straight-curve $-1 51.905880916776027 -49.246585257188968 -11.626792191157493 0 0 -1 I I #
End-of-ACIS-data 