500 0 9 0           
7 Unknown 11 ACIS 5.0 NT 24 Fri Mar 26 20:23:23 1999 
-1 9.9999999999999995e-007 1e-010 
body $-1 $9 $-1 $10 #
body $-1 $11 $-1 $12 #
body $-1 $13 $-1 $14 #
body $-1 $15 $-1 $16 #
body $-1 $17 $-1 $18 #
body $-1 $19 $-1 $20 #
body $-1 $21 $-1 $22 #
body $-1 $23 $-1 $24 #
body $-1 $25 $-1 $26 #
lump $-1 $-1 $27 $0 #
transform $-1 1 0 0 0 1 0 0 0 1 75.493026520584735 33.169286300593718 15.782615941948205 1 rotate no_reflect no_shear #
lump $-1 $-1 $28 $1 #
transform $-1 1 0 0 0 1 0 0 0 1 6.0487825675642215 33.169286300593718 2.8395414826675389 1 rotate no_reflect no_shear #
lump $-1 $-1 $29 $2 #
transform $-1 1 0 0 0 1 0 0 0 1 144.93727047360525 33.169286300593718 2.8395414826675389 1 rotate no_reflect no_shear #
lump $-1 $-1 $30 $3 #
transform $-1 1 0 0 0 0.51503806187062418 0.85716730853699208 0 -0.85716730853699208 0.51503806187062418 27.712230811070764 -129.42030871192273 96.348314238626713 1 rotate no_reflect no_shear #
lump $-1 $-1 $31 $4 #
transform $-1 1 0 0 0 -0.51503806187062418 -0.85716730853699208 0 0.85716730853699208 -0.51503806187062418 18.34343140550537 10.250496920530699 21.259065399100422 1 rotate no_reflect no_shear #
lump $-1 $-1 $32 $5 #
transform $-1 1 0 0 0 -0.51503806187062418 -0.85716730853699208 0 0.85716730853699208 -0.51503806187062418 27.712230811070764 10.250496920530699 21.259065399100422 1 rotate no_reflect no_shear #
lump $-1 $-1 $33 $6 #
transform $-1 1 0 0 0 -0.51503806187062418 -0.85716730853699208 0 0.85716730853699208 -0.51503806187062418 37.081030216636158 10.250496920530699 21.259065399100422 1 rotate no_reflect no_shear #
lump $-1 $-1 $34 $7 #
transform $-1 1 0 0 0 0.78801074757464917 -0.61566148304635926 0 0.61566148304635926 0.78801074757464917 84.152329536253887 107.01936174733324 186.29343775186385 1 rotate no_reflect no_shear #
lump $-1 $-1 $35 $8 #
transform $-1 1 0 0 0 -0.78801074757464917 0.61566148304635926 0 -0.61566148304635926 -0.78801074757464917 84.152329536253873 60.479084875037458 25.69058490901282 1 rotate no_reflect no_shear #
shell $-1 $-1 $-1 $36 $-1 $9 #
shell $-1 $-1 $-1 $37 $-1 $11 #
shell $-1 $-1 $-1 $38 $-1 $13 #
shell $-1 $-1 $-1 $39 $-1 $15 #
shell $-1 $-1 $-1 $40 $-1 $17 #
shell $-1 $-1 $-1 $41 $-1 $19 #
shell $-1 $-1 $-1 $42 $-1 $21 #
shell $-1 $-1 $-1 $43 $-1 $23 #
shell $-1 $-1 $-1 $44 $-1 $25 #
face $-1 $45 $46 $27 $-1 $47 forward single #
face $-1 $48 $49 $28 $-1 $50 forward single #
face $-1 $51 $52 $29 $-1 $53 forward single #
face $-1 $54 $55 $30 $-1 $56 forward single #
face $-1 $57 $58 $31 $-1 $59 forward single #
face $-1 $60 $61 $32 $-1 $62 forward single #
face $-1 $63 $64 $33 $-1 $65 forward single #
face $-1 $66 $67 $34 $-1 $68 forward single #
face $-1 $69 $70 $35 $-1 $71 forward single #
face $-1 $72 $73 $27 $-1 $74 reversed single #
loop $-1 $-1 $75 $36 #
plane-surface $-1 0 0 15.782615941948205 0 0 1 1 0 0 forward_v I I I I #
face $-1 $76 $77 $28 $-1 $78 reversed single #
loop $-1 $-1 $79 $37 #
plane-surface $-1 0 0 2.8395414826675389 0 0 1 1 0 0 forward_v I I I I #
face $-1 $80 $81 $29 $-1 $82 reversed single #
loop $-1 $-1 $83 $38 #
plane-surface $-1 0 0 2.8395414826675389 0 0 1 1 0 0 forward_v I I I I #
face $-1 $84 $85 $30 $-1 $86 reversed single #
loop $-1 $-1 $87 $39 #
plane-surface $-1 0 0 150.98605304116947 0 0 1 1 0 0 forward_v I I I I #
face $-1 $88 $89 $31 $-1 $90 forward single #
loop $-1 $91 $92 $40 #
cone-surface $-1 0 0 -4.3295083468123412 0 0 1 2.5 0 0 1 I I 0 1 2.5 forward I I I I #
face $-1 $93 $94 $32 $-1 $95 forward single #
loop $-1 $96 $97 $41 #
cone-surface $-1 0 0 -4.3295083468123412 0 0 1 2.5 0 0 1 I I 0 1 2.5 forward I I I I #
face $-1 $98 $99 $33 $-1 $100 forward single #
loop $-1 $101 $102 $42 #
cone-surface $-1 0 0 -4.3295083468123412 0 0 1 2.5 0 0 1 I I 0 1 2.5 forward I I I I #
face $-1 $103 $104 $34 $-1 $105 reversed single #
loop $-1 $-1 $106 $43 #
plane-surface $-1 0 0 150.98605304116947 0 0 1 1 0 0 forward_v I I I I #
face $-1 $107 $108 $35 $-1 $109 forward single #
loop $-1 $110 $111 $44 #
cone-surface $-1 0 0 -2.3618884853663751 0 0 1 1 0 0 1 I I 0 1 1 forward I I I I #
face $-1 $112 $113 $27 $-1 $114 reversed single #
loop $-1 $-1 $115 $45 #
plane-surface $-1 0 0 -15.782615941948205 0 0 1 1 0 0 forward_v I I I I #
coedge $-1 $116 $117 $118 $119 forward $46 $-1 #
face $-1 $120 $121 $28 $-1 $122 reversed single #
loop $-1 $-1 $123 $48 #
plane-surface $-1 0 0 -2.8395414826675389 0 0 1 1 0 0 forward_v I I I I #
coedge $-1 $124 $125 $126 $127 forward $49 $-1 #
face $-1 $128 $129 $29 $-1 $130 reversed single #
loop $-1 $-1 $131 $51 #
plane-surface $-1 0 0 -2.8395414826675389 0 0 1 1 0 0 forward_v I I I I #
coedge $-1 $132 $133 $134 $135 forward $52 $-1 #
face $-1 $136 $137 $30 $-1 $138 reversed single #
loop $-1 $-1 $139 $54 #
plane-surface $-1 0 0 -150.98605304116947 0 0 1 1 0 0 forward_v I I I I #
coedge $-1 $140 $141 $142 $143 forward $55 $-1 #
face $-1 $-1 $144 $31 $-1 $145 forward single #
loop $-1 $-1 $146 $57 #
plane-surface $-1 0 0 -7.4090166936246833 0 0 -1 -1 0 0 forward_v I I I I #
loop $-1 $-1 $147 $40 #
coedge $-1 $92 $92 $146 $148 reversed $58 $-1 #
face $-1 $-1 $149 $32 $-1 $150 forward single #
loop $-1 $-1 $151 $60 #
plane-surface $-1 0 0 -7.4090166936246833 0 0 -1 -1 0 0 forward_v I I I I #
loop $-1 $-1 $152 $41 #
coedge $-1 $97 $97 $151 $153 reversed $61 $-1 #
face $-1 $-1 $154 $33 $-1 $155 forward single #
loop $-1 $-1 $156 $63 #
plane-surface $-1 0 0 -7.4090166936246833 0 0 -1 -1 0 0 forward_v I I I I #
loop $-1 $-1 $157 $42 #
coedge $-1 $102 $102 $156 $158 reversed $64 $-1 #
face $-1 $159 $160 $34 $-1 $161 reversed single #
loop $-1 $-1 $162 $66 #
plane-surface $-1 0 0 -150.98605304116947 0 0 1 1 0 0 forward_v I I I I #
coedge $-1 $163 $164 $165 $166 forward $67 $-1 #
face $-1 $-1 $167 $35 $-1 $168 forward single #
loop $-1 $-1 $169 $69 #
plane-surface $-1 0 0 -4.2237769707327502 0 0 -1 -1 0 0 forward_v I I I I #
loop $-1 $-1 $170 $44 #
coedge $-1 $111 $111 $169 $171 reversed $70 $-1 #
face $-1 $172 $173 $27 $-1 $174 reversed single #
loop $-1 $-1 $175 $72 #
plane-surface $-1 0 -33.169286300593718 0 0 1 0 0 0 1 forward_v I I I I #
coedge $-1 $176 $177 $178 $179 forward $73 $-1 #
coedge $-1 $180 $75 $181 $182 forward $46 $-1 #
coedge $-1 $75 $180 $183 $184 forward $46 $-1 #
coedge $-1 $185 $186 $75 $119 reversed $187 $-1 #
edge $-1 $188 -33.169286300593718 $189 33.169286300593718 $118 $190 forward 7 unknown #
face $-1 $191 $192 $28 $-1 $193 reversed single #
loop $-1 $-1 $194 $76 #
plane-surface $-1 0 -33.169286300593718 0 0 1 0 0 0 1 forward_v I I I I #
coedge $-1 $195 $196 $197 $198 forward $77 $-1 #
coedge $-1 $199 $79 $200 $201 forward $49 $-1 #
coedge $-1 $79 $199 $202 $203 forward $49 $-1 #
coedge $-1 $204 $205 $79 $127 reversed $206 $-1 #
edge $-1 $207 -33.169286300593718 $208 33.169286300593718 $126 $209 forward 7 unknown #
face $-1 $210 $211 $29 $-1 $212 reversed single #
loop $-1 $-1 $213 $80 #
plane-surface $-1 0 -33.169286300593718 0 0 1 0 0 0 1 forward_v I I I I #
coedge $-1 $214 $215 $216 $217 forward $81 $-1 #
coedge $-1 $218 $83 $219 $220 forward $52 $-1 #
coedge $-1 $83 $218 $221 $222 forward $52 $-1 #
coedge $-1 $223 $224 $83 $135 reversed $225 $-1 #
edge $-1 $226 -33.169286300593718 $227 33.169286300593718 $134 $228 forward 7 unknown #
face $-1 $229 $230 $30 $-1 $231 reversed single #
loop $-1 $-1 $232 $84 #
plane-surface $-1 0 -301.97210608233894 0 0 1 0 0 0 1 forward_v I I I I #
coedge $-1 $233 $234 $235 $236 forward $85 $-1 #
coedge $-1 $237 $87 $238 $239 forward $55 $-1 #
coedge $-1 $87 $237 $240 $241 forward $55 $-1 #
coedge $-1 $242 $243 $87 $143 reversed $244 $-1 #
edge $-1 $245 -301.97210608233894 $246 301.97210608233894 $142 $247 forward 7 unknown #
loop $-1 $248 $249 $88 #
cone-surface $-1 0 0 0 0 0 1 1.25 0 0 1 I I -0.70710678118654746 0.70710678118654746 1.25 forward I I I I #
coedge $-1 $146 $146 $92 $148 forward $89 $-1 #
coedge $-1 $147 $147 $249 $250 forward $91 $-1 #
edge $-1 $251 0 $251 6.2831853071796004 $146 $252 forward 7 unknown #
loop $-1 $253 $254 $93 #
cone-surface $-1 0 0 0 0 0 1 1.25 0 0 1 I I -0.70710678118654746 0.70710678118654746 1.25 forward I I I I #
coedge $-1 $151 $151 $97 $153 forward $94 $-1 #
coedge $-1 $152 $152 $254 $255 forward $96 $-1 #
edge $-1 $256 0 $256 6.2831853071796004 $151 $257 forward 7 unknown #
loop $-1 $258 $259 $98 #
cone-surface $-1 0 0 0 0 0 1 1.25 0 0 1 I I -0.70710678118654746 0.70710678118654746 1.25 forward I I I I #
coedge $-1 $156 $156 $102 $158 forward $99 $-1 #
coedge $-1 $157 $157 $259 $260 forward $101 $-1 #
edge $-1 $261 0 $261 6.2831853071796004 $156 $262 forward 7 unknown #
face $-1 $263 $264 $34 $-1 $265 reversed single #
loop $-1 $-1 $266 $103 #
plane-surface $-1 0 -301.97210608233894 0 0 1 0 0 0 1 forward_v I I I I #
coedge $-1 $267 $268 $269 $270 forward $104 $-1 #
coedge $-1 $271 $106 $272 $273 forward $67 $-1 #
coedge $-1 $106 $271 $274 $275 forward $67 $-1 #
coedge $-1 $276 $277 $106 $166 reversed $278 $-1 #
edge $-1 $279 -301.97210608233894 $280 301.97210608233894 $165 $281 forward 7 unknown #
loop $-1 $282 $283 $107 #
cone-surface $-1 0 0 0 0 0 1 0.5 0 0 1 I I -0.70710678118654746 0.70710678118654746 0.5 forward I I I I #
coedge $-1 $169 $169 $111 $171 forward $108 $-1 #
coedge $-1 $170 $170 $283 $284 forward $110 $-1 #
edge $-1 $285 0 $285 6.2831853071796004 $169 $286 forward 7 unknown #
face $-1 $287 $288 $27 $-1 $289 reversed single #
loop $-1 $-1 $290 $112 #
plane-surface $-1 -75.493026520584735 0 0 1 0 0 0 0 -1 forward_v I I I I #
coedge $-1 $291 $183 $292 $293 forward $113 $-1 #
coedge $-1 $294 $115 $291 $295 forward $73 $-1 #
coedge $-1 $115 $294 $296 $297 forward $73 $-1 #
coedge $-1 $186 $185 $115 $179 reversed $187 $-1 #
edge $-1 $298 -33.169286300593718 $299 33.169286300593718 $178 $300 forward 7 unknown #
coedge $-1 $117 $116 $301 $302 forward $46 $-1 #
coedge $-1 $303 $304 $116 $182 reversed $288 $-1 #
edge $-1 $189 -75.493026520584735 $305 75.493026520584735 $181 $306 forward 7 unknown #
coedge $-1 $175 $307 $117 $184 reversed $113 $-1 #
edge $-1 $308 -75.493026520584735 $188 75.493026520584735 $183 $309 forward 7 unknown #
coedge $-1 $178 $118 $307 $310 forward $187 $-1 #
coedge $-1 $118 $178 $303 $311 reversed $187 $-1 #
loop $-1 $-1 $185 $287 #
vertex $-1 $119 $312 #
vertex $-1 $119 $313 #
straight-curve $-1 75.493026520584735 0 15.782615941948205 0 1 0 I I #
face $-1 $314 $315 $28 $-1 $316 reversed single #
loop $-1 $-1 $317 $120 #
plane-surface $-1 -6.0487825675642215 0 0 1 0 0 0 0 -1 forward_v I I I I #
coedge $-1 $318 $202 $319 $320 forward $121 $-1 #
coedge $-1 $321 $123 $318 $322 forward $77 $-1 #
coedge $-1 $123 $321 $323 $324 forward $77 $-1 #
coedge $-1 $205 $204 $123 $198 reversed $206 $-1 #
edge $-1 $325 -33.169286300593718 $326 33.169286300593718 $197 $327 forward 7 unknown #
coedge $-1 $125 $124 $328 $329 forward $49 $-1 #
coedge $-1 $330 $331 $124 $201 reversed $315 $-1 #
edge $-1 $208 -6.0487825675642215 $332 6.0487825675642215 $200 $333 forward 7 unknown #
coedge $-1 $194 $334 $125 $203 reversed $121 $-1 #
edge $-1 $335 -6.0487825675642215 $207 6.0487825675642215 $202 $336 forward 7 unknown #
coedge $-1 $197 $126 $334 $337 forward $206 $-1 #
coedge $-1 $126 $197 $330 $338 reversed $206 $-1 #
loop $-1 $-1 $204 $314 #
vertex $-1 $127 $339 #
vertex $-1 $127 $340 #
straight-curve $-1 6.0487825675642215 0 2.8395414826675389 0 1 0 I I #
face $-1 $341 $342 $29 $-1 $343 reversed single #
loop $-1 $-1 $344 $128 #
plane-surface $-1 -6.0487825675642171 0 0 1 0 0 0 0 -1 forward_v I I I I #
coedge $-1 $345 $221 $346 $347 forward $129 $-1 #
coedge $-1 $348 $131 $345 $349 forward $81 $-1 #
coedge $-1 $131 $348 $350 $351 forward $81 $-1 #
coedge $-1 $224 $223 $131 $217 reversed $225 $-1 #
edge $-1 $352 -33.169286300593718 $353 33.169286300593718 $216 $354 forward 7 unknown #
coedge $-1 $133 $132 $355 $356 forward $52 $-1 #
coedge $-1 $357 $358 $132 $220 reversed $342 $-1 #
edge $-1 $227 -6.0487825675642171 $359 6.0487825675642171 $219 $360 forward 7 unknown #
coedge $-1 $213 $361 $133 $222 reversed $129 $-1 #
edge $-1 $362 -6.0487825675642171 $226 6.0487825675642171 $221 $363 forward 7 unknown #
coedge $-1 $216 $134 $361 $364 forward $225 $-1 #
coedge $-1 $134 $216 $357 $365 reversed $225 $-1 #
loop $-1 $-1 $223 $341 #
vertex $-1 $135 $366 #
vertex $-1 $135 $367 #
straight-curve $-1 6.0487825675642171 0 2.8395414826675389 0 1 0 I I #
face $-1 $368 $369 $30 $-1 $370 reversed single #
loop $-1 $-1 $371 $136 #
plane-surface $-1 -15.614665675942323 0 0 1 0 0 0 0 -1 forward_v I I I I #
coedge $-1 $372 $240 $373 $374 forward $137 $-1 #
coedge $-1 $375 $139 $372 $376 forward $85 $-1 #
coedge $-1 $139 $375 $377 $378 forward $85 $-1 #
coedge $-1 $243 $242 $139 $236 reversed $244 $-1 #
edge $-1 $379 -301.97210608233894 $380 301.97210608233894 $235 $381 forward 7 unknown #
coedge $-1 $141 $140 $382 $383 forward $55 $-1 #
coedge $-1 $384 $385 $140 $239 reversed $369 $-1 #
edge $-1 $246 -15.614665675942323 $386 15.614665675942323 $238 $387 forward 7 unknown #
coedge $-1 $232 $388 $141 $241 reversed $137 $-1 #
edge $-1 $389 -15.614665675942323 $245 15.614665675942323 $240 $390 forward 7 unknown #
coedge $-1 $235 $142 $388 $391 forward $244 $-1 #
coedge $-1 $142 $235 $384 $392 reversed $244 $-1 #
loop $-1 $-1 $242 $368 #
vertex $-1 $143 $393 #
vertex $-1 $143 $394 #
straight-curve $-1 15.614665675942323 0 150.98605304116947 0 1 0 I I #
loop $-1 $-1 $395 $88 #
coedge $-1 $249 $249 $147 $250 reversed $144 $-1 #
edge $-1 $396 0 $396 6.2831853071796004 $249 $397 forward 7 unknown #
vertex $-1 $148 $398 #
ellipse-curve $-1 0 0 -7.4090166936246833 0 0 -1 2.5 0 0 1 I I #
loop $-1 $-1 $399 $93 #
coedge $-1 $254 $254 $152 $255 reversed $149 $-1 #
edge $-1 $400 0 $400 6.2831853071796004 $254 $401 forward 7 unknown #
vertex $-1 $153 $402 #
ellipse-curve $-1 0 0 -7.4090166936246833 0 0 -1 2.5 0 0 1 I I #
loop $-1 $-1 $403 $98 #
coedge $-1 $259 $259 $157 $260 reversed $154 $-1 #
edge $-1 $404 0 $404 6.2831853071796004 $259 $405 forward 7 unknown #
vertex $-1 $158 $406 #
ellipse-curve $-1 0 0 -7.4090166936246833 0 0 -1 2.5 0 0 1 I I #
face $-1 $407 $408 $34 $-1 $409 reversed single #
loop $-1 $-1 $410 $159 #
plane-surface $-1 -12.751644839179782 0 0 1 0 0 0 0 -1 forward_v I I I I #
coedge $-1 $411 $274 $412 $413 forward $160 $-1 #
coedge $-1 $414 $162 $411 $415 forward $104 $-1 #
coedge $-1 $162 $414 $416 $417 forward $104 $-1 #
coedge $-1 $277 $276 $162 $270 reversed $278 $-1 #
edge $-1 $418 -301.97210608233894 $419 301.97210608233894 $269 $420 forward 7 unknown #
coedge $-1 $164 $163 $421 $422 forward $67 $-1 #
coedge $-1 $423 $424 $163 $273 reversed $408 $-1 #
edge $-1 $280 -12.751644839179782 $425 12.751644839179782 $272 $426 forward 7 unknown #
coedge $-1 $266 $427 $164 $275 reversed $160 $-1 #
edge $-1 $428 -12.751644839179782 $279 12.751644839179782 $274 $429 forward 7 unknown #
coedge $-1 $269 $165 $427 $430 forward $278 $-1 #
coedge $-1 $165 $269 $423 $431 reversed $278 $-1 #
loop $-1 $-1 $276 $407 #
vertex $-1 $166 $432 #
vertex $-1 $166 $433 #
straight-curve $-1 12.751644839179782 0 150.98605304116947 0 1 0 I I #
loop $-1 $-1 $434 $107 #
coedge $-1 $283 $283 $170 $284 reversed $167 $-1 #
edge $-1 $435 0 $435 6.2831853071796004 $283 $436 forward 7 unknown #
vertex $-1 $171 $437 #
ellipse-curve $-1 0 0 -4.2237769707327502 0 0 -1 1 0 0 1 I I #
face $-1 $-1 $187 $27 $-1 $438 reversed single #
loop $-1 $-1 $303 $172 #
plane-surface $-1 0 33.169286300593718 0 0 -1 0 0 0 -1 forward_v I I I I #
coedge $-1 $439 $301 $304 $440 forward $173 $-1 #
coedge $-1 $307 $175 $176 $295 reversed $113 $-1 #
coedge $-1 $301 $439 $175 $293 reversed $173 $-1 #
edge $-1 $308 -15.782615941948205 $441 15.782615941948205 $292 $442 forward 7 unknown #
coedge $-1 $177 $176 $439 $443 forward $73 $-1 #
edge $-1 $299 -75.493026520584735 $441 75.493026520584735 $291 $444 forward 7 unknown #
coedge $-1 $304 $303 $177 $297 reversed $288 $-1 #
edge $-1 $445 -75.493026520584735 $298 75.493026520584735 $296 $446 forward 7 unknown #
vertex $-1 $179 $447 #
vertex $-1 $310 $448 #
straight-curve $-1 75.493026520584735 0 -15.782615941948205 0 -1 0 I I #
coedge $-1 $290 $292 $180 $302 reversed $173 $-1 #
edge $-1 $305 -33.169286300593718 $308 33.169286300593718 $301 $449 forward 7 unknown #
coedge $-1 $296 $181 $186 $311 forward $288 $-1 #
coedge $-1 $181 $296 $290 $440 reversed $288 $-1 #
vertex $-1 $182 $450 #
straight-curve $-1 0 33.169286300593718 15.782615941948205 -1 0 0 I I #
coedge $-1 $183 $291 $185 $310 reversed $113 $-1 #
vertex $-1 $302 $451 #
straight-curve $-1 0 -33.169286300593718 15.782615941948205 1 0 0 I I #
edge $-1 $188 -15.782615941948205 $299 15.782615941948205 $185 $452 forward 7 unknown #
edge $-1 $189 -15.782615941948205 $298 15.782615941948205 $186 $453 forward 7 unknown #
point $-1 75.493026520584735 -33.169286300593718 15.782615941948205 #
point $-1 75.493026520584735 33.169286300593718 15.782615941948205 #
face $-1 $-1 $206 $28 $-1 $454 reversed single #
loop $-1 $-1 $330 $191 #
plane-surface $-1 0 33.169286300593718 0 0 -1 0 0 0 -1 forward_v I I I I #
coedge $-1 $455 $328 $331 $456 forward $192 $-1 #
coedge $-1 $334 $194 $195 $322 reversed $121 $-1 #
coedge $-1 $328 $455 $194 $320 reversed $192 $-1 #
edge $-1 $335 -2.8395414826675389 $457 2.8395414826675389 $319 $458 forward 7 unknown #
coedge $-1 $196 $195 $455 $459 forward $77 $-1 #
edge $-1 $326 -6.0487825675642215 $457 6.0487825675642215 $318 $460 forward 7 unknown #
coedge $-1 $331 $330 $196 $324 reversed $315 $-1 #
edge $-1 $461 -6.0487825675642215 $325 6.0487825675642215 $323 $462 forward 7 unknown #
vertex $-1 $198 $463 #
vertex $-1 $337 $464 #
straight-curve $-1 6.0487825675642215 0 -2.8395414826675389 0 -1 0 I I #
coedge $-1 $317 $319 $199 $329 reversed $192 $-1 #
edge $-1 $332 -33.169286300593718 $335 33.169286300593718 $328 $465 forward 7 unknown #
coedge $-1 $323 $200 $205 $338 forward $315 $-1 #
coedge $-1 $200 $323 $317 $456 reversed $315 $-1 #
vertex $-1 $201 $466 #
straight-curve $-1 0 33.169286300593718 2.8395414826675389 -1 0 0 I I #
coedge $-1 $202 $318 $204 $337 reversed $121 $-1 #
vertex $-1 $329 $467 #
straight-curve $-1 0 -33.169286300593718 2.8395414826675389 1 0 0 I I #
edge $-1 $207 -2.8395414826675389 $326 2.8395414826675389 $204 $468 forward 7 unknown #
edge $-1 $208 -2.8395414826675389 $325 2.8395414826675389 $205 $469 forward 7 unknown #
point $-1 6.0487825675642215 -33.169286300593718 2.8395414826675389 #
point $-1 6.0487825675642215 33.169286300593718 2.8395414826675389 #
face $-1 $-1 $225 $29 $-1 $470 reversed single #
loop $-1 $-1 $357 $210 #
plane-surface $-1 0 33.169286300593718 0 0 -1 0 0 0 -1 forward_v I I I I #
coedge $-1 $471 $355 $358 $472 forward $211 $-1 #
coedge $-1 $361 $213 $214 $349 reversed $129 $-1 #
coedge $-1 $355 $471 $213 $347 reversed $211 $-1 #
edge $-1 $362 -2.8395414826675389 $473 2.8395414826675389 $346 $474 forward 7 unknown #
coedge $-1 $215 $214 $471 $475 forward $81 $-1 #
edge $-1 $353 -6.0487825675642171 $473 6.0487825675642171 $345 $476 forward 7 unknown #
coedge $-1 $358 $357 $215 $351 reversed $342 $-1 #
edge $-1 $477 -6.0487825675642171 $352 6.0487825675642171 $350 $478 forward 7 unknown #
vertex $-1 $217 $479 #
vertex $-1 $364 $480 #
straight-curve $-1 6.0487825675642171 0 -2.8395414826675389 0 -1 0 I I #
coedge $-1 $344 $346 $218 $356 reversed $211 $-1 #
edge $-1 $359 -33.169286300593718 $362 33.169286300593718 $355 $481 forward 7 unknown #
coedge $-1 $350 $219 $224 $365 forward $342 $-1 #
coedge $-1 $219 $350 $344 $472 reversed $342 $-1 #
vertex $-1 $220 $482 #
straight-curve $-1 0 33.169286300593718 2.8395414826675389 -1 0 0 I I #
coedge $-1 $221 $345 $223 $364 reversed $129 $-1 #
vertex $-1 $356 $483 #
straight-curve $-1 0 -33.169286300593718 2.8395414826675389 1 0 0 I I #
edge $-1 $226 -2.8395414826675389 $353 2.8395414826675389 $223 $484 forward 7 unknown #
edge $-1 $227 -2.8395414826675389 $352 2.8395414826675389 $224 $485 forward 7 unknown #
point $-1 6.0487825675642171 -33.169286300593718 2.8395414826675389 #
point $-1 6.0487825675642171 33.169286300593718 2.8395414826675389 #
face $-1 $-1 $244 $30 $-1 $486 reversed single #
loop $-1 $-1 $384 $229 #
plane-surface $-1 0 301.97210608233894 0 0 -1 0 0 0 -1 forward_v I I I I #
coedge $-1 $487 $382 $385 $488 forward $230 $-1 #
coedge $-1 $388 $232 $233 $376 reversed $137 $-1 #
coedge $-1 $382 $487 $232 $374 reversed $230 $-1 #
edge $-1 $389 -150.98605304116947 $489 150.98605304116947 $373 $490 forward 7 unknown #
coedge $-1 $234 $233 $487 $491 forward $85 $-1 #
edge $-1 $380 -15.614665675942323 $489 15.614665675942323 $372 $492 forward 7 unknown #
coedge $-1 $385 $384 $234 $378 reversed $369 $-1 #
edge $-1 $493 -15.614665675942323 $379 15.614665675942323 $377 $494 forward 7 unknown #
vertex $-1 $236 $495 #
vertex $-1 $391 $496 #
straight-curve $-1 15.614665675942323 0 -150.98605304116947 0 -1 0 I I #
coedge $-1 $371 $373 $237 $383 reversed $230 $-1 #
edge $-1 $386 -301.97210608233894 $389 301.97210608233894 $382 $497 forward 7 unknown #
coedge $-1 $377 $238 $243 $392 forward $369 $-1 #
coedge $-1 $238 $377 $371 $488 reversed $369 $-1 #
vertex $-1 $239 $498 #
straight-curve $-1 0 301.97210608233894 150.98605304116947 -1 0 0 I I #
coedge $-1 $240 $372 $242 $391 reversed $137 $-1 #
vertex $-1 $383 $499 #
straight-curve $-1 0 -301.97210608233894 150.98605304116947 1 0 0 I I #
edge $-1 $245 -150.98605304116947 $380 150.98605304116947 $242 $500 forward 7 unknown #
edge $-1 $246 -150.98605304116947 $379 150.98605304116947 $243 $501 forward 7 unknown #
point $-1 15.614665675942323 -301.97210608233894 150.98605304116947 #
point $-1 15.614665675942323 301.97210608233894 150.98605304116947 #
coedge $-1 $395 $395 $-1 $502 reversed $248 $-1 #
vertex $-1 $250 $503 #
ellipse-curve $-1 0 0 -1.25 0 0 -1 2.5 0 0 1 I I #
point $-1 2.5 0 -7.4090166936246833 #
coedge $-1 $399 $399 $-1 $504 reversed $253 $-1 #
vertex $-1 $255 $505 #
ellipse-curve $-1 0 0 -1.25 0 0 -1 2.5 0 0 1 I I #
point $-1 2.5 0 -7.4090166936246833 #
coedge $-1 $403 $403 $-1 $506 reversed $258 $-1 #
vertex $-1 $260 $507 #
ellipse-curve $-1 0 0 -1.25 0 0 -1 2.5 0 0 1 I I #
point $-1 2.5 0 -7.4090166936246833 #
face $-1 $-1 $278 $34 $-1 $508 reversed single #
loop $-1 $-1 $423 $263 #
plane-surface $-1 0 301.97210608233894 0 0 -1 0 0 0 -1 forward_v I I I I #
coedge $-1 $509 $421 $424 $510 forward $264 $-1 #
coedge $-1 $427 $266 $267 $415 reversed $160 $-1 #
coedge $-1 $421 $509 $266 $413 reversed $264 $-1 #
edge $-1 $428 -150.98605304116947 $511 150.98605304116947 $412 $512 forward 7 unknown #
coedge $-1 $268 $267 $509 $513 forward $104 $-1 #
edge $-1 $419 -12.751644839179782 $511 12.751644839179782 $411 $514 forward 7 unknown #
coedge $-1 $424 $423 $268 $417 reversed $408 $-1 #
edge $-1 $515 -12.751644839179782 $418 12.751644839179782 $416 $516 forward 7 unknown #
vertex $-1 $270 $517 #
vertex $-1 $430 $518 #
straight-curve $-1 12.751644839179782 0 -150.98605304116947 0 -1 0 I I #
coedge $-1 $410 $412 $271 $422 reversed $264 $-1 #
edge $-1 $425 -301.97210608233894 $428 301.97210608233894 $421 $519 forward 7 unknown #
coedge $-1 $416 $272 $277 $431 forward $408 $-1 #
coedge $-1 $272 $416 $410 $510 reversed $408 $-1 #
vertex $-1 $273 $520 #
straight-curve $-1 0 301.97210608233894 150.98605304116947 -1 0 0 I I #
coedge $-1 $274 $411 $276 $430 reversed $160 $-1 #
vertex $-1 $422 $521 #
straight-curve $-1 0 -301.97210608233894 150.98605304116947 1 0 0 I I #
edge $-1 $279 -150.98605304116947 $419 150.98605304116947 $276 $522 forward 7 unknown #
edge $-1 $280 -150.98605304116947 $418 150.98605304116947 $277 $523 forward 7 unknown #
point $-1 12.751644839179782 -301.97210608233894 150.98605304116947 #
point $-1 12.751644839179782 301.97210608233894 150.98605304116947 #
coedge $-1 $434 $434 $-1 $524 reversed $282 $-1 #
vertex $-1 $284 $525 #
ellipse-curve $-1 0 0 -0.5 0 0 -1 1 0 0 1 I I #
point $-1 1 0 -4.2237769707327502 #
plane-surface $-1 75.493026520584735 0 0 -1 0 0 0 0 1 forward_v I I I I #
coedge $-1 $292 $290 $294 $443 reversed $173 $-1 #
edge $-1 $305 -15.782615941948205 $445 15.782615941948205 $304 $526 forward 7 unknown #
vertex $-1 $443 $527 #
straight-curve $-1 -75.493026520584735 -33.169286300593718 0 0 0 -1 I I #
edge $-1 $441 -33.169286300593718 $445 33.169286300593718 $439 $528 forward 7 unknown #
straight-curve $-1 0 -33.169286300593718 -15.782615941948205 -1 0 0 I I #
vertex $-1 $297 $529 #
straight-curve $-1 0 33.169286300593718 -15.782615941948205 1 0 0 I I #
point $-1 75.493026520584735 33.169286300593718 -15.782615941948205 #
point $-1 75.493026520584735 -33.169286300593718 -15.782615941948205 #
straight-curve $-1 -75.493026520584735 0 15.782615941948205 0 -1 0 I I #
point $-1 -75.493026520584735 33.169286300593718 15.782615941948205 #
point $-1 -75.493026520584735 -33.169286300593718 15.782615941948205 #
straight-curve $-1 75.493026520584735 -33.169286300593718 0 0 0 -1 I I #
straight-curve $-1 75.493026520584735 33.169286300593718 0 0 0 -1 I I #
plane-surface $-1 6.0487825675642215 0 0 -1 0 0 0 0 1 forward_v I I I I #
coedge $-1 $319 $317 $321 $459 reversed $192 $-1 #
edge $-1 $332 -2.8395414826675389 $461 2.8395414826675389 $331 $530 forward 7 unknown #
vertex $-1 $459 $531 #
straight-curve $-1 -6.0487825675642215 -33.169286300593718 0 0 0 -1 I I #
edge $-1 $457 -33.169286300593718 $461 33.169286300593718 $455 $532 forward 7 unknown #
straight-curve $-1 0 -33.169286300593718 -2.8395414826675389 -1 0 0 I I #
vertex $-1 $324 $533 #
straight-curve $-1 0 33.169286300593718 -2.8395414826675389 1 0 0 I I #
point $-1 6.0487825675642215 33.169286300593718 -2.8395414826675389 #
point $-1 6.0487825675642215 -33.169286300593718 -2.8395414826675389 #
straight-curve $-1 -6.0487825675642215 0 2.8395414826675389 0 -1 0 I I #
point $-1 -6.0487825675642215 33.169286300593718 2.8395414826675389 #
point $-1 -6.0487825675642215 -33.169286300593718 2.8395414826675389 #
straight-curve $-1 6.0487825675642215 -33.169286300593718 0 0 0 -1 I I #
straight-curve $-1 6.0487825675642215 33.169286300593718 0 0 0 -1 I I #
plane-surface $-1 6.0487825675642171 0 0 -1 0 0 0 0 1 forward_v I I I I #
coedge $-1 $346 $344 $348 $475 reversed $211 $-1 #
edge $-1 $359 -2.8395414826675389 $477 2.8395414826675389 $358 $534 forward 7 unknown #
vertex $-1 $475 $535 #
straight-curve $-1 -6.0487825675642171 -33.169286300593718 0 0 0 -1 I I #
edge $-1 $473 -33.169286300593718 $477 33.169286300593718 $471 $536 forward 7 unknown #
straight-curve $-1 0 -33.169286300593718 -2.8395414826675389 -1 0 0 I I #
vertex $-1 $351 $537 #
straight-curve $-1 0 33.169286300593718 -2.8395414826675389 1 0 0 I I #
point $-1 6.0487825675642171 33.169286300593718 -2.8395414826675389 #
point $-1 6.0487825675642171 -33.169286300593718 -2.8395414826675389 #
straight-curve $-1 -6.0487825675642171 0 2.8395414826675389 0 -1 0 I I #
point $-1 -6.0487825675642171 33.169286300593718 2.8395414826675389 #
point $-1 -6.0487825675642171 -33.169286300593718 2.8395414826675389 #
straight-curve $-1 6.0487825675642171 -33.169286300593718 0 0 0 -1 I I #
straight-curve $-1 6.0487825675642171 33.169286300593718 0 0 0 -1 I I #
plane-surface $-1 15.614665675942323 0 0 -1 0 0 0 0 1 forward_v I I I I #
coedge $-1 $373 $371 $375 $491 reversed $230 $-1 #
edge $-1 $386 -150.98605304116947 $493 150.98605304116947 $385 $538 forward 7 unknown #
vertex $-1 $491 $539 #
straight-curve $-1 -15.614665675942323 -301.97210608233894 0 0 0 -1 I I #
edge $-1 $489 -301.97210608233894 $493 301.97210608233894 $487 $540 forward 7 unknown #
straight-curve $-1 0 -301.97210608233894 -150.98605304116947 -1 0 0 I I #
vertex $-1 $378 $541 #
straight-curve $-1 0 301.97210608233894 -150.98605304116947 1 0 0 I I #
point $-1 15.614665675942323 301.97210608233894 -150.98605304116947 #
point $-1 15.614665675942323 -301.97210608233894 -150.98605304116947 #
straight-curve $-1 -15.614665675942323 0 150.98605304116947 0 -1 0 I I #
point $-1 -15.614665675942323 301.97210608233894 150.98605304116947 #
point $-1 -15.614665675942323 -301.97210608233894 150.98605304116947 #
straight-curve $-1 15.614665675942323 -301.97210608233894 0 0 0 -1 I I #
straight-curve $-1 15.614665675942323 301.97210608233894 0 0 0 -1 I I #
edge $-1 $542 1 $542 0 $395 $-1 forward 7 unknown #
point $-1 2.5 0 -1.25 #
edge $-1 $543 1 $543 0 $399 $-1 forward 7 unknown #
point $-1 2.5 0 -1.25 #
edge $-1 $544 1 $544 0 $403 $-1 forward 7 unknown #
point $-1 2.5 0 -1.25 #
plane-surface $-1 12.751644839179782 0 0 -1 0 0 0 0 1 forward_v I I I I #
coedge $-1 $412 $410 $414 $513 reversed $264 $-1 #
edge $-1 $425 -150.98605304116947 $515 150.98605304116947 $424 $545 forward 7 unknown #
vertex $-1 $513 $546 #
straight-curve $-1 -12.751644839179782 -301.97210608233894 0 0 0 -1 I I #
edge $-1 $511 -301.97210608233894 $515 301.97210608233894 $509 $547 forward 7 unknown #
straight-curve $-1 0 -301.97210608233894 -150.98605304116947 -1 0 0 I I #
vertex $-1 $417 $548 #
straight-curve $-1 0 301.97210608233894 -150.98605304116947 1 0 0 I I #
point $-1 12.751644839179782 301.97210608233894 -150.98605304116947 #
point $-1 12.751644839179782 -301.97210608233894 -150.98605304116947 #
straight-curve $-1 -12.751644839179782 0 150.98605304116947 0 -1 0 I I #
point $-1 -12.751644839179782 301.97210608233894 150.98605304116947 #
point $-1 -12.751644839179782 -301.97210608233894 150.98605304116947 #
straight-curve $-1 12.751644839179782 -301.97210608233894 0 0 0 -1 I I #
straight-curve $-1 12.751644839179782 301.97210608233894 0 0 0 -1 I I #
edge $-1 $549 1 $549 0 $434 $-1 forward 7 unknown #
point $-1 1 0 -0.5 #
straight-curve $-1 -75.493026520584735 33.169286300593718 0 0 0 -1 I I #
point $-1 -75.493026520584735 -33.169286300593718 -15.782615941948205 #
straight-curve $-1 -75.493026520584735 0 -15.782615941948205 0 1 0 I I #
point $-1 -75.493026520584735 33.169286300593718 -15.782615941948205 #
straight-curve $-1 -6.0487825675642215 33.169286300593718 0 0 0 -1 I I #
point $-1 -6.0487825675642215 -33.169286300593718 -2.8395414826675389 #
straight-curve $-1 -6.0487825675642215 0 -2.8395414826675389 0 1 0 I I #
point $-1 -6.0487825675642215 33.169286300593718 -2.8395414826675389 #
straight-curve $-1 -6.0487825675642171 33.169286300593718 0 0 0 -1 I I #
point $-1 -6.0487825675642171 -33.169286300593718 -2.8395414826675389 #
straight-curve $-1 -6.0487825675642171 0 -2.8395414826675389 0 1 0 I I #
point $-1 -6.0487825675642171 33.169286300593718 -2.8395414826675389 #
straight-curve $-1 -15.614665675942323 301.97210608233894 0 0 0 -1 I I #
point $-1 -15.614665675942323 -301.97210608233894 -150.98605304116947 #
straight-curve $-1 -15.614665675942323 0 -150.98605304116947 0 1 0 I I #
point $-1 -15.614665675942323 301.97210608233894 -150.98605304116947 #
vertex $-1 $502 $550 #
vertex $-1 $504 $551 #
vertex $-1 $506 $552 #
straight-curve $-1 -12.751644839179782 301.97210608233894 0 0 0 -1 I I #
point $-1 -12.751644839179782 -301.97210608233894 -150.98605304116947 #
straight-curve $-1 -12.751644839179782 0 -150.98605304116947 0 1 0 I I #
point $-1 -12.751644839179782 301.97210608233894 -150.98605304116947 #
vertex $-1 $524 $553 #
point $-1 0 0 1.25 #
point $-1 0 0 1.25 #
point $-1 0 0 1.25 #
point $-1 0 0 0.5 #
End-of-ACIS-data 