500 0 14 0           
7 Unknown 11 ACIS 5.0 NT 24 Fri Mar 26 17:05:08 1999 
-1 9.9999999999999995e-007 1e-010 
body $-1 $14 $-1 $15 #
body $-1 $16 $-1 $17 #
body $-1 $18 $-1 $19 #
body $-1 $20 $-1 $21 #
body $-1 $22 $-1 $23 #
body $-1 $24 $-1 $25 #
body $-1 $26 $-1 $27 #
body $-1 $28 $-1 $29 #
body $-1 $30 $-1 $31 #
body $-1 $32 $-1 $33 #
body $-1 $34 $-1 $35 #
body $-1 $36 $-1 $37 #
body $-1 $38 $-1 $39 #
body $-1 $40 $-1 $41 #
lump $-1 $-1 $42 $0 #
transform $-1 1 0 0 0 1 0 0 0 1 65.141148106326483 31.829642448218394 9.675562413570951 1 rotate no_reflect no_shear #
lump $-1 $-1 $43 $1 #
transform $-1 1 0 0 0 1 0 0 0 1 65.141148106326483 31.829642448218394 9.675562413570951 1 rotate no_reflect no_shear #
lump $-1 $-1 $44 $2 #
transform $-1 1 0 0 0 1 0 0 0 1 65.141148106326483 31.829642448218394 9.675562413570951 1 rotate no_reflect no_shear #
lump $-1 $-1 $45 $3 #
transform $-1 1 0 0 0 1 0 0 0 1 65.141148106326483 31.829642448218394 9.675562413570951 1 rotate no_reflect no_shear #
lump $-1 $-1 $46 $4 #
transform $-1 1 0 0 0 1 0 0 0 1 65.141148106326483 31.829642448218394 9.675562413570951 1 rotate no_reflect no_shear #
lump $-1 $-1 $47 $5 #
transform $-1 1 0 0 0 1 0 0 0 1 65.141148106326483 31.829642448218394 9.675562413570951 1 rotate no_reflect no_shear #
lump $-1 $-1 $48 $6 #
transform $-1 1 0 0 0 1 0 0 0 1 65.141148106326483 31.829642448218394 9.675562413570951 1 rotate no_reflect no_shear #
lump $-1 $-1 $49 $7 #
transform $-1 1 0 0 0 1 0 0 0 1 65.141148106326483 31.829642448218394 9.675562413570951 1 rotate no_reflect no_shear #
lump $-1 $-1 $50 $8 #
transform $-1 1 0 0 0 1 0 0 0 1 65.141148106326483 31.829642448218394 9.675562413570951 1 rotate no_reflect no_shear #
lump $-1 $-1 $51 $9 #
transform $-1 1 0 0 0 1 0 0 0 1 65.141148106326483 31.829642448218394 9.675562413570951 1 rotate no_reflect no_shear #
lump $-1 $-1 $52 $10 #
transform $-1 1 0 0 0 1 0 0 0 1 65.141148106326483 31.829642448218394 9.675562413570951 1 rotate no_reflect no_shear #
lump $-1 $-1 $53 $11 #
transform $-1 1 0 0 0 1 0 0 0 1 65.141148106326483 31.829642448218394 9.675562413570951 1 rotate no_reflect no_shear #
lump $-1 $-1 $54 $12 #
transform $-1 1 0 0 0 1 0 0 0 1 65.141148106326483 31.829642448218394 9.675562413570951 1 rotate no_reflect no_shear #
lump $-1 $-1 $55 $13 #
transform $-1 1 0 0 0 1 0 0 0 1 65.141148106326483 31.829642448218394 9.675562413570951 1 rotate no_reflect no_shear #
shell $-1 $-1 $-1 $56 $-1 $14 #
shell $-1 $-1 $-1 $57 $-1 $16 #
shell $-1 $-1 $-1 $58 $-1 $18 #
shell $-1 $-1 $-1 $59 $-1 $20 #
shell $-1 $-1 $-1 $60 $-1 $22 #
shell $-1 $-1 $-1 $61 $-1 $24 #
shell $-1 $-1 $-1 $62 $-1 $26 #
shell $-1 $-1 $-1 $63 $-1 $28 #
shell $-1 $-1 $-1 $64 $-1 $30 #
shell $-1 $-1 $-1 $65 $-1 $32 #
shell $-1 $-1 $-1 $66 $-1 $34 #
shell $-1 $-1 $-1 $67 $-1 $36 #
shell $-1 $-1 $-1 $68 $-1 $38 #
shell $-1 $-1 $-1 $69 $-1 $40 #
face $-1 $70 $71 $42 $-1 $72 forward single #
face $-1 $73 $74 $43 $-1 $75 forward single #
face $-1 $76 $77 $44 $-1 $78 reversed single #
face $-1 $79 $80 $45 $-1 $81 forward single #
face $-1 $82 $83 $46 $-1 $84 reversed single #
face $-1 $85 $86 $47 $-1 $87 forward single #
face $-1 $88 $89 $48 $-1 $90 reversed single #
face $-1 $91 $92 $49 $-1 $93 forward single #
face $-1 $94 $95 $50 $-1 $96 forward single #
face $-1 $97 $98 $51 $-1 $99 forward single #
face $-1 $100 $101 $52 $-1 $102 reversed single #
face $-1 $103 $104 $53 $-1 $105 forward single #
face $-1 $106 $107 $54 $-1 $108 forward single #
face $-1 $109 $110 $55 $-1 $111 forward single #
face $-1 $112 $113 $42 $-1 $114 reversed single #
loop $-1 $-1 $115 $56 #
plane-surface $-1 0 0 9.675562413570951 0 0 1 1 0 0 forward_v I I I I #
face $-1 $116 $117 $43 $-1 $118 reversed single #
loop $-1 $-1 $119 $57 #
plane-surface $-1 0 -27.595521609014924 3.9228381554499032 0 0 1 1 0 0 forward_v I I I I #
face $-1 $120 $121 $44 $-1 $122 reversed single #
loop $-1 $-1 $123 $58 #
plane-surface $-1 49.082966715826075 -20.111973948706272 187.08055950946911 0 1 0 0.64278761758704617 0 0.76604443648966558 forward_v I I I I #
face $-1 $124 $125 $45 $-1 $126 forward single #
loop $-1 $127 $128 $59 #
cone-surface $-1 60.461851892713426 -13.931662190185875 5.3894279922112798 -0.64278761758704617 0 -0.76604443648966558 1.1490666547344983 0 -0.96418142638056925 1 I I 0 1 1.5 forward I I I I #
face $-1 $129 $130 $46 $-1 $131 reversed single #
loop $-1 $-1 $132 $60 #
plane-surface $-1 49.082966715826075 7.4835476603086537 187.08055950946911 0 1 0 0.64278761758704617 0 0.76604443648966558 forward_v I I I I #
face $-1 $133 $134 $47 $-1 $135 forward single #
loop $-1 $136 $137 $61 #
cone-surface $-1 60.461851892713426 13.663859418829048 5.3894279922112798 -0.64278761758704617 0 -0.76604443648966558 1.1490666547344983 0 -0.96418142638056925 1 I I 0 1 1.5 forward I I I I #
face $-1 $138 $139 $48 $-1 $140 reversed single #
loop $-1 $-1 $141 $62 #
plane-surface $-1 -145.35093980729346 -12.01158679019345 106.06427726710368 0 1 0 -0.61566148304635926 0 0.78801074757464917 forward_v I I I I #
face $-1 $142 $143 $49 $-1 $144 forward single #
loop $-1 $145 $146 $63 #
cone-surface $-1 -60.686726937178889 -9.5279916418017052 5.9767174317926965 0.61566148304635926 0 -0.78801074757464917 0.78801074757464917 0 0.61566148304635926 1 I I 0 1 1 forward I I I I #
face $-1 $147 $148 $50 $-1 $149 forward single #
loop $-1 $150 $151 $64 #
cone-surface $-1 -60.686726937178889 -5.8025989192140841 5.9767174317926965 0.61566148304635926 0 -0.78801074757464917 0.78801074757464917 0 0.61566148304635926 1 I I 0 1 1 forward I I I I #
face $-1 $152 $153 $51 $-1 $154 forward single #
loop $-1 $155 $156 $65 #
cone-surface $-1 -60.686726937178889 -2.077206196626463 5.9767174317926965 0.61566148304635926 0 -0.78801074757464917 0.78801074757464917 0 0.61566148304635926 1 I I 0 1 1 forward I I I I #
face $-1 $157 $158 $52 $-1 $159 reversed single #
loop $-1 $-1 $160 $66 #
plane-surface $-1 -145.35093980729346 8.0618527266416589 106.06427726710368 0 1 0 -0.61566148304635926 0 0.78801074757464917 forward_v I I I I #
face $-1 $161 $162 $53 $-1 $163 forward single #
loop $-1 $164 $165 $67 #
cone-surface $-1 -60.686726937178889 10.545447875033403 5.9767174317926965 0.61566148304635926 0 -0.78801074757464917 0.78801074757464917 0 0.61566148304635926 1 I I 0 1 1 forward I I I I #
face $-1 $166 $167 $54 $-1 $168 forward single #
loop $-1 $169 $170 $68 #
cone-surface $-1 -60.686726937178889 14.270840597621024 5.9767174317926965 0.61566148304635926 0 -0.78801074757464917 0.78801074757464917 0 0.61566148304635926 1 I I 0 1 1 forward I I I I #
face $-1 $171 $172 $55 $-1 $173 forward single #
loop $-1 $174 $175 $69 #
cone-surface $-1 -60.686726937178889 17.996233320208646 5.9767174317926965 0.61566148304635926 0 -0.78801074757464917 0.78801074757464917 0 0.61566148304635926 1 I I 0 1 1 forward I I I I #
face $-1 $176 $177 $42 $-1 $178 reversed single #
loop $-1 $-1 $179 $70 #
plane-surface $-1 0 0 -9.675562413570951 0 0 1 1 0 0 forward_v I I I I #
coedge $-1 $180 $181 $182 $183 forward $71 $-1 #
face $-1 $184 $185 $43 $-1 $186 reversed single #
loop $-1 $-1 $187 $73 #
plane-surface $-1 0 -27.595521609014924 0.20444809077710513 0 0 1 1 0 0 forward_v I I I I #
coedge $-1 $188 $189 $190 $191 reversed $74 $-1 #
face $-1 $192 $193 $44 $-1 $194 reversed single #
loop $-1 $-1 $195 $76 #
plane-surface $-1 -34.660880080474968 -13.931662190185875 87.278531322667675 0.64278761758704617 0 0.76604443648966558 0.76604443648966558 0 -0.64278761758704617 forward_v I I I I #
coedge $-1 $196 $197 $198 $199 reversed $77 $-1 #
face $-1 $-1 $200 $45 $-1 $201 forward single #
loop $-1 $202 $203 $79 #
cone-surface $-1 58.95967153114718 -13.931662190185875 3.599199187086505 -0.64278761758704617 0 -0.76604443648966558 0.57453332736724916 0 -0.48209071319028463 1 I I -0.70710678118654757 0.70710678118654757 0.75 forward I I I I #
loop $-1 $-1 $204 $59 #
coedge $-1 $128 $128 $205 $206 reversed $80 $-1 #
face $-1 $207 $208 $46 $-1 $209 reversed single #
loop $-1 $-1 $210 $82 #
plane-surface $-1 -34.660880080474968 13.663859418829048 87.278531322667675 0.64278761758704617 0 0.76604443648966558 0.76604443648966558 0 -0.64278761758704617 forward_v I I I I #
coedge $-1 $211 $212 $213 $214 reversed $83 $-1 #
face $-1 $-1 $215 $47 $-1 $216 forward single #
loop $-1 $217 $218 $85 #
cone-surface $-1 58.95967153114718 13.663859418829048 3.599199187086505 -0.64278761758704617 0 -0.76604443648966558 0.57453332736724916 0 -0.48209071319028463 1 I I -0.70710678118654757 0.70710678118654757 0.75 forward I I I I #
loop $-1 $-1 $219 $61 #
coedge $-1 $137 $137 $220 $221 reversed $86 $-1 #
face $-1 $222 $223 $48 $-1 $224 reversed single #
loop $-1 $-1 $225 $88 #
plane-surface $-1 -65.141148106326455 -5.8025989192140841 3.4004276328291212 -0.61566148304635926 0 0.78801074757464917 0.78801074757464917 0 0.61566148304635926 forward_v I I I I #
coedge $-1 $226 $227 $228 $229 reversed $89 $-1 #
face $-1 $-1 $230 $49 $-1 $231 forward single #
loop $-1 $232 $233 $91 #
cone-surface $-1 -59.940378072152825 -9.5279916418017052 5.02143446659802 0.61566148304635926 0 -0.78801074757464917 0.39400537378732459 0 0.30783074152317963 1 I I -0.70710678118654746 0.70710678118654746 0.5 forward I I I I #
loop $-1 $-1 $234 $63 #
coedge $-1 $146 $146 $235 $236 reversed $92 $-1 #
face $-1 $-1 $237 $50 $-1 $238 forward single #
loop $-1 $239 $240 $94 #
cone-surface $-1 -59.940378072152825 -5.8025989192140841 5.02143446659802 0.61566148304635926 0 -0.78801074757464917 0.39400537378732459 0 0.30783074152317963 1 I I -0.70710678118654746 0.70710678118654746 0.5 forward I I I I #
loop $-1 $-1 $241 $64 #
coedge $-1 $151 $151 $242 $243 reversed $95 $-1 #
face $-1 $-1 $244 $51 $-1 $245 forward single #
loop $-1 $246 $247 $97 #
cone-surface $-1 -59.940378072152825 -2.077206196626463 5.02143446659802 0.61566148304635926 0 -0.78801074757464917 0.39400537378732459 0 0.30783074152317963 1 I I -0.70710678118654746 0.70710678118654746 0.5 forward I I I I #
loop $-1 $-1 $248 $65 #
coedge $-1 $156 $156 $249 $250 reversed $98 $-1 #
face $-1 $251 $252 $52 $-1 $253 reversed single #
loop $-1 $-1 $254 $100 #
plane-surface $-1 -65.141148106326455 14.270840597621024 3.4004276328291212 -0.61566148304635926 0 0.78801074757464917 0.78801074757464917 0 0.61566148304635926 forward_v I I I I #
coedge $-1 $255 $256 $257 $258 reversed $101 $-1 #
face $-1 $-1 $259 $53 $-1 $260 forward single #
loop $-1 $261 $262 $103 #
cone-surface $-1 -59.940378072152825 10.545447875033403 5.02143446659802 0.61566148304635926 0 -0.78801074757464917 0.39400537378732459 0 0.30783074152317963 1 I I -0.70710678118654746 0.70710678118654746 0.5 forward I I I I #
loop $-1 $-1 $263 $67 #
coedge $-1 $165 $165 $264 $265 reversed $104 $-1 #
face $-1 $-1 $266 $54 $-1 $267 forward single #
loop $-1 $268 $269 $106 #
cone-surface $-1 -59.940378072152825 14.270840597621024 5.02143446659802 0.61566148304635926 0 -0.78801074757464917 0.39400537378732459 0 0.30783074152317963 1 I I -0.70710678118654746 0.70710678118654746 0.5 forward I I I I #
loop $-1 $-1 $270 $68 #
coedge $-1 $170 $170 $271 $272 reversed $107 $-1 #
face $-1 $-1 $273 $55 $-1 $274 forward single #
loop $-1 $275 $276 $109 #
cone-surface $-1 -59.940378072152825 17.996233320208646 5.02143446659802 0.61566148304635926 0 -0.78801074757464917 0.39400537378732459 0 0.30783074152317963 1 I I -0.70710678118654746 0.70710678118654746 0.5 forward I I I I #
loop $-1 $-1 $277 $69 #
coedge $-1 $175 $175 $278 $279 reversed $110 $-1 #
face $-1 $280 $281 $42 $-1 $282 reversed single #
loop $-1 $-1 $283 $112 #
plane-surface $-1 0 -31.829642448218394 0 0 1 0 0 0 1 forward_v I I I I #
coedge $-1 $284 $285 $286 $287 forward $113 $-1 #
coedge $-1 $288 $115 $289 $290 forward $71 $-1 #
coedge $-1 $115 $288 $291 $292 forward $71 $-1 #
coedge $-1 $293 $294 $115 $183 reversed $295 $-1 #
edge $-1 $296 -31.829642448218394 $297 31.829642448218394 $182 $298 forward 7 unknown #
face $-1 $299 $300 $43 $-1 $301 reversed single #
loop $-1 $-1 $302 $116 #
plane-surface $-1 0 -23.361400769811453 2.0636431231135042 0 -1 0 0 0 -1 forward_v I I I I #
coedge $-1 $303 $304 $305 $306 reversed $117 $-1 #
coedge $-1 $307 $119 $308 $309 forward $74 $-1 #
coedge $-1 $119 $307 $310 $311 reversed $74 $-1 #
coedge $-1 $312 $313 $119 $191 forward $314 $-1 #
edge $-1 $315 9.5636399653039916 $316 18.031881643710932 $190 $317 forward 7 unknown #
face $-1 $318 $319 $44 $-1 $320 forward single #
loop $-1 $-1 $321 $120 #
plane-surface $-1 49.082966715826075 -7.7513504316654807 187.08055950946911 0 -1 0 -0.64278761758704617 0 -0.76604443648966558 forward_v I I I I #
coedge $-1 $322 $323 $324 $325 reversed $121 $-1 #
coedge $-1 $197 $123 $326 $327 reversed $77 $-1 #
coedge $-1 $123 $196 $322 $328 reversed $77 $-1 #
coedge $-1 $324 $329 $123 $199 forward $330 $-1 #
edge $-1 $331 83.864717341163612 $332 90.005595228367952 $198 $333 forward 7 unknown #
loop $-1 $-1 $205 $124 #
plane-surface $-1 -34.660880080474968 -13.931662190185875 87.278531322667675 0.64278761758704617 0 0.76604443648966558 0.76604443648966558 0 -0.64278761758704617 forward_v I I I I #
loop $-1 $-1 $334 $79 #
coedge $-1 $203 $203 $204 $335 reversed $125 $-1 #
coedge $-1 $204 $204 $203 $335 forward $127 $-1 #
coedge $-1 $205 $205 $128 $206 forward $200 $-1 #
edge $-1 $336 0 $336 6.2831853071796004 $205 $337 forward 7 unknown #
face $-1 $338 $339 $46 $-1 $340 reversed single #
loop $-1 $-1 $341 $129 #
plane-surface $-1 49.082966715826075 19.844171177349445 187.08055950946911 0 -1 0 -0.64278761758704617 0 -0.76604443648966558 forward_v I I I I #
coedge $-1 $342 $343 $344 $345 reversed $130 $-1 #
coedge $-1 $212 $132 $346 $347 reversed $83 $-1 #
coedge $-1 $132 $211 $342 $348 reversed $83 $-1 #
coedge $-1 $344 $349 $132 $214 forward $339 $-1 #
edge $-1 $350 83.864717341163612 $351 90.005595228367952 $213 $352 forward 7 unknown #
loop $-1 $-1 $220 $133 #
plane-surface $-1 -34.660880080474968 13.663859418829048 87.278531322667675 0.64278761758704617 0 0.76604443648966558 0.76604443648966558 0 -0.64278761758704617 forward_v I I I I #
loop $-1 $-1 $353 $85 #
coedge $-1 $218 $218 $219 $354 reversed $134 $-1 #
coedge $-1 $219 $219 $218 $354 forward $136 $-1 #
coedge $-1 $220 $220 $137 $221 forward $215 $-1 #
edge $-1 $355 0 $355 6.2831853071796004 $220 $356 forward 7 unknown #
face $-1 $357 $358 $48 $-1 $359 reversed single #
loop $-1 $-1 $360 $138 #
plane-surface $-1 -145.35093980729346 0.40638895176528145 106.06427726710368 0 -1 0 0.61566148304635926 0 -0.78801074757464917 forward_v I I I I #
coedge $-1 $361 $362 $363 $364 reversed $139 $-1 #
coedge $-1 $227 $141 $365 $366 reversed $89 $-1 #
coedge $-1 $141 $226 $361 $367 reversed $89 $-1 #
coedge $-1 $363 $368 $141 $229 forward $369 $-1 #
edge $-1 $370 7.5343217973202457 $371 15.566127888609735 $228 $372 forward 7 unknown #
loop $-1 $-1 $235 $142 #
plane-surface $-1 -65.141148106326455 -5.8025989192140841 3.4004276328291212 -0.61566148304635926 0 0.78801074757464917 0.78801074757464917 0 0.61566148304635926 forward_v I I I I #
loop $-1 $-1 $373 $91 #
coedge $-1 $233 $233 $234 $374 reversed $143 $-1 #
coedge $-1 $234 $234 $233 $374 forward $145 $-1 #
coedge $-1 $235 $235 $146 $236 forward $230 $-1 #
edge $-1 $375 0 $375 6.2831853071796004 $235 $376 forward 7 unknown #
loop $-1 $-1 $242 $147 #
plane-surface $-1 -65.141148106326455 -5.8025989192140841 3.4004276328291212 -0.61566148304635926 0 0.78801074757464917 0.78801074757464917 0 0.61566148304635926 forward_v I I I I #
loop $-1 $-1 $377 $94 #
coedge $-1 $240 $240 $241 $378 reversed $148 $-1 #
coedge $-1 $241 $241 $240 $378 forward $150 $-1 #
coedge $-1 $242 $242 $151 $243 forward $237 $-1 #
edge $-1 $379 0 $379 6.2831853071796004 $242 $380 forward 7 unknown #
loop $-1 $-1 $249 $152 #
plane-surface $-1 -65.141148106326455 -5.8025989192140841 3.4004276328291212 -0.61566148304635926 0 0.78801074757464917 0.78801074757464917 0 0.61566148304635926 forward_v I I I I #
loop $-1 $-1 $381 $97 #
coedge $-1 $247 $247 $248 $382 reversed $153 $-1 #
coedge $-1 $248 $248 $247 $382 forward $155 $-1 #
coedge $-1 $249 $249 $156 $250 forward $244 $-1 #
edge $-1 $383 0 $383 6.2831853071796004 $249 $384 forward 7 unknown #
face $-1 $385 $386 $52 $-1 $387 forward single #
loop $-1 $-1 $388 $157 #
plane-surface $-1 -145.35093980729346 20.479828468600388 106.06427726710368 0 -1 0 0.61566148304635926 0 -0.78801074757464917 forward_v I I I I #
coedge $-1 $389 $390 $391 $392 reversed $158 $-1 #
coedge $-1 $256 $160 $393 $394 reversed $101 $-1 #
coedge $-1 $160 $255 $389 $395 reversed $101 $-1 #
coedge $-1 $391 $396 $160 $258 forward $386 $-1 #
edge $-1 $397 7.5343217973202457 $398 15.566127888609735 $257 $399 forward 7 unknown #
loop $-1 $-1 $264 $161 #
plane-surface $-1 -65.141148106326455 14.270840597621024 3.4004276328291212 -0.61566148304635926 0 0.78801074757464917 0.78801074757464917 0 0.61566148304635926 forward_v I I I I #
loop $-1 $-1 $400 $103 #
coedge $-1 $262 $262 $263 $401 reversed $162 $-1 #
coedge $-1 $263 $263 $262 $401 forward $164 $-1 #
coedge $-1 $264 $264 $165 $265 forward $259 $-1 #
edge $-1 $402 0 $402 6.2831853071796004 $264 $403 forward 7 unknown #
loop $-1 $-1 $271 $166 #
plane-surface $-1 -65.141148106326455 14.270840597621024 3.4004276328291212 -0.61566148304635926 0 0.78801074757464917 0.78801074757464917 0 0.61566148304635926 forward_v I I I I #
loop $-1 $-1 $404 $106 #
coedge $-1 $269 $269 $270 $405 reversed $167 $-1 #
coedge $-1 $270 $270 $269 $405 forward $169 $-1 #
coedge $-1 $271 $271 $170 $272 forward $266 $-1 #
edge $-1 $406 0 $406 6.2831853071796004 $271 $407 forward 7 unknown #
loop $-1 $-1 $278 $171 #
plane-surface $-1 -65.141148106326455 14.270840597621024 3.4004276328291212 -0.61566148304635926 0 0.78801074757464917 0.78801074757464917 0 0.61566148304635926 forward_v I I I I #
loop $-1 $-1 $408 $109 #
coedge $-1 $276 $276 $277 $409 reversed $172 $-1 #
coedge $-1 $277 $277 $276 $409 forward $174 $-1 #
coedge $-1 $278 $278 $175 $279 forward $273 $-1 #
edge $-1 $410 0 $410 6.2831853071796004 $278 $411 forward 7 unknown #
face $-1 $412 $413 $42 $-1 $414 reversed single #
loop $-1 $-1 $415 $176 #
plane-surface $-1 -65.141148106326483 0 0 1 0 0 0 0 -1 forward_v I I I I #
coedge $-1 $416 $291 $417 $418 forward $177 $-1 #
coedge $-1 $419 $179 $416 $420 forward $113 $-1 #
coedge $-1 $179 $419 $421 $422 forward $113 $-1 #
coedge $-1 $294 $293 $179 $287 reversed $295 $-1 #
edge $-1 $423 -31.829642448218394 $424 31.829642448218394 $286 $425 forward 7 unknown #
coedge $-1 $181 $180 $426 $427 forward $71 $-1 #
coedge $-1 $428 $429 $180 $290 reversed $413 $-1 #
edge $-1 $297 -65.141148106326483 $430 65.141148106326483 $289 $431 forward 7 unknown #
coedge $-1 $283 $432 $181 $292 reversed $177 $-1 #
edge $-1 $433 -65.141148106326483 $296 65.141148106326483 $291 $434 forward 7 unknown #
coedge $-1 $286 $182 $432 $435 forward $295 $-1 #
coedge $-1 $182 $286 $428 $436 reversed $295 $-1 #
loop $-1 $-1 $293 $412 #
vertex $-1 $183 $437 #
vertex $-1 $183 $438 #
straight-curve $-1 65.141148106326483 0 9.675562413570951 0 1 0 I I #
face $-1 $439 $440 $43 $-1 $441 reversed single #
loop $-1 $-1 $442 $184 #
plane-surface $-1 -65.141148106326483 0 0 1 0 0 0 0 -1 forward_v I I I I #
coedge $-1 $443 $308 $313 $444 reversed $185 $-1 #
coedge $-1 $445 $187 $446 $447 reversed $117 $-1 #
coedge $-1 $187 $445 $443 $448 forward $117 $-1 #
coedge $-1 $313 $312 $187 $306 forward $314 $-1 #
edge $-1 $449 -18.031881643710932 $450 -9.5636399653039916 $305 $451 forward 7 unknown #
coedge $-1 $189 $188 $442 $452 reversed $74 $-1 #
coedge $-1 $302 $453 $188 $309 reversed $185 $-1 #
edge $-1 $315 -65.141148106326483 $454 65.141148106326483 $308 $455 forward 7 unknown #
coedge $-1 $456 $457 $189 $311 forward $440 $-1 #
edge $-1 $316 -65.141148106326483 $458 65.141148106326483 $310 $459 forward 7 unknown #
coedge $-1 $305 $190 $457 $460 forward $314 $-1 #
coedge $-1 $190 $305 $302 $444 forward $314 $-1 #
loop $-1 $-1 $190 $439 #
vertex $-1 $191 $461 #
vertex $-1 $460 $462 #
straight-curve $-1 65.141148106326483 -13.797760804507462 3.9228381554499032 0 -1 0 I I #
face $-1 $-1 $330 $44 $-1 $463 reversed single #
loop $-1 $-1 $464 $192 #
plane-surface $-1 0 0 9.675562413570951 0 0 1 1 0 0 forward_v I I I I #
coedge $-1 $465 $466 $467 $468 reversed $193 $-1 #
coedge $-1 $469 $195 $197 $328 forward $121 $-1 #
coedge $-1 $195 $469 $465 $470 forward $121 $-1 #
coedge $-1 $467 $198 $195 $325 forward $330 $-1 #
edge $-1 $332 -13.146142853613334 $471 -0.78551933657254303 $324 $472 forward 7 unknown #
coedge $-1 $473 $474 $196 $327 forward $319 $-1 #
edge $-1 $475 33.281251617939191 $331 40.599664748413446 $326 $476 forward 7 unknown #
edge $-1 $332 -130.28229621265299 $475 -120.72878628311122 $197 $477 forward 7 unknown #
coedge $-1 $198 $467 $473 $478 reversed $330 $-1 #
loop $-1 $-1 $467 $318 #
vertex $-1 $478 $479 #
vertex $-1 $199 $480 #
straight-curve $-1 65.141148106326483 -20.111973948706272 93.540279754734556 0 0 -1 I I #
coedge $-1 $334 $334 $-1 $481 reversed $202 $-1 #
edge $-1 $482 0 $482 6.2831853071796004 $203 $483 forward 7 unknown #
vertex $-1 $206 $484 #
ellipse-curve $-1 61.481941541089363 -13.931662190185875 6.6051234699687766 0.64278761758704617 0 0.76604443648966558 1.1490666547344983 0 -0.96418142638056925 1 I I #
face $-1 $-1 $485 $46 $-1 $486 forward single #
loop $-1 $-1 $213 $207 #
plane-surface $-1 65.141148106326483 0 0 -1 0 0 0 0 1 forward_v I I I I #
coedge $-1 $487 $488 $489 $490 reversed $208 $-1 #
coedge $-1 $491 $210 $212 $348 forward $130 $-1 #
coedge $-1 $210 $491 $487 $492 forward $130 $-1 #
coedge $-1 $489 $213 $210 $345 forward $339 $-1 #
edge $-1 $351 0.65161795089412955 $493 13.012241467934921 $344 $494 forward 7 unknown #
coedge $-1 $495 $496 $211 $347 forward $485 $-1 #
edge $-1 $497 33.281251617939191 $350 40.599664748413446 $346 $498 forward 7 unknown #
edge $-1 $351 -130.28229621265299 $497 -120.72878628311122 $212 $499 forward 7 unknown #
coedge $-1 $213 $489 $495 $500 reversed $339 $-1 #
vertex $-1 $500 $501 #
vertex $-1 $214 $502 #
straight-curve $-1 65.141148106326483 7.4835476603086537 93.540279754734556 0 0 -1 I I #
coedge $-1 $353 $353 $-1 $503 reversed $217 $-1 #
edge $-1 $504 0 $504 6.2831853071796004 $218 $505 forward 7 unknown #
vertex $-1 $221 $506 #
ellipse-curve $-1 61.481941541089363 13.663859418829048 6.6051234699687766 0.64278761758704617 0 0.76604443648966558 1.1490666547344983 0 -0.96418142638056925 1 I I #
face $-1 $-1 $369 $48 $-1 $507 forward single #
loop $-1 $-1 $508 $222 #
plane-surface $-1 -65.141148106326483 0 0 1 0 0 0 0 -1 forward_v I I I I #
coedge $-1 $509 $510 $511 $512 reversed $223 $-1 #
coedge $-1 $513 $225 $227 $367 forward $139 $-1 #
coedge $-1 $225 $513 $509 $514 forward $139 $-1 #
coedge $-1 $511 $228 $225 $364 forward $369 $-1 #
edge $-1 $371 -9.1102873305864076 $515 3.3076884113723235 $363 $516 forward 7 unknown #
coedge $-1 $517 $518 $226 $366 forward $358 $-1 #
edge $-1 $519 -49.631711000722738 $370 -43.356576219980887 $365 $520 forward 7 unknown #
edge $-1 $371 -10.192508307798935 $519 3.606704357266089e-014 $227 $521 forward 7 unknown #
coedge $-1 $228 $511 $517 $522 forward $369 $-1 #
loop $-1 $-1 $511 $357 #
vertex $-1 $366 $523 #
vertex $-1 $229 $524 #
straight-curve $-1 -72.675469903646729 -12.01158679019345 9.675562413570951 1 0 0 I I #
coedge $-1 $373 $373 $-1 $525 reversed $232 $-1 #
edge $-1 $526 0 $526 6.2831853071796004 $233 $527 forward 7 unknown #
vertex $-1 $236 $528 #
ellipse-curve $-1 -61.125245060681749 -9.5279916418017052 6.5379950232000175 -0.61566148304635926 0 0.78801074757464917 0.78801074757464917 0 0.61566148304635926 1 I I #
coedge $-1 $377 $377 $-1 $529 reversed $239 $-1 #
edge $-1 $530 0 $530 6.2831853071796004 $240 $531 forward 7 unknown #
vertex $-1 $243 $532 #
ellipse-curve $-1 -61.125245060681749 -5.8025989192140841 6.5379950232000175 -0.61566148304635926 0 0.78801074757464917 0.78801074757464917 0 0.61566148304635926 1 I I #
coedge $-1 $381 $381 $-1 $533 reversed $246 $-1 #
edge $-1 $534 0 $534 6.2831853071796004 $247 $535 forward 7 unknown #
vertex $-1 $250 $536 #
ellipse-curve $-1 -61.125245060681749 -2.077206196626463 6.5379950232000175 -0.61566148304635926 0 0.78801074757464917 0.78801074757464917 0 0.61566148304635926 1 I I #
face $-1 $-1 $537 $52 $-1 $538 reversed single #
loop $-1 $-1 $257 $251 #
plane-surface $-1 0 0 9.675562413570951 0 0 1 1 0 0 forward_v I I I I #
coedge $-1 $539 $540 $541 $542 reversed $252 $-1 #
coedge $-1 $543 $254 $256 $395 forward $158 $-1 #
coedge $-1 $254 $543 $539 $544 forward $158 $-1 #
coedge $-1 $541 $257 $254 $392 forward $386 $-1 #
edge $-1 $398 0.92643242783114665 $545 13.344408169789876 $391 $546 forward 7 unknown #
coedge $-1 $547 $548 $255 $394 forward $537 $-1 #
edge $-1 $549 -49.631711000722738 $397 -43.356576219980887 $393 $550 forward 7 unknown #
edge $-1 $398 -10.192508307798935 $549 3.606704357266089e-014 $256 $551 forward 7 unknown #
coedge $-1 $257 $541 $547 $552 forward $386 $-1 #
vertex $-1 $258 $553 #
vertex $-1 $258 $554 #
straight-curve $-1 -72.675469903646729 8.0618527266416589 9.675562413570951 1 0 0 I I #
coedge $-1 $400 $400 $-1 $555 reversed $261 $-1 #
edge $-1 $556 0 $556 6.2831853071796004 $262 $557 forward 7 unknown #
vertex $-1 $265 $558 #
ellipse-curve $-1 -61.125245060681749 10.545447875033403 6.5379950232000175 -0.61566148304635926 0 0.78801074757464917 0.78801074757464917 0 0.61566148304635926 1 I I #
coedge $-1 $404 $404 $-1 $559 reversed $268 $-1 #
edge $-1 $560 0 $560 6.2831853071796004 $269 $561 forward 7 unknown #
vertex $-1 $272 $562 #
ellipse-curve $-1 -61.125245060681749 14.270840597621024 6.5379950232000175 -0.61566148304635926 0 0.78801074757464917 0.78801074757464917 0 0.61566148304635926 1 I I #
coedge $-1 $408 $408 $-1 $563 reversed $275 $-1 #
edge $-1 $564 0 $564 6.2831853071796004 $276 $565 forward 7 unknown #
vertex $-1 $279 $566 #
ellipse-curve $-1 -61.125245060681749 17.996233320208646 6.5379950232000175 -0.61566148304635926 0 0.78801074757464917 0.78801074757464917 0 0.61566148304635926 1 I I #
face $-1 $-1 $295 $42 $-1 $567 reversed single #
loop $-1 $-1 $428 $280 #
plane-surface $-1 0 31.829642448218394 0 0 -1 0 0 0 -1 forward_v I I I I #
coedge $-1 $568 $426 $429 $569 forward $281 $-1 #
coedge $-1 $432 $283 $284 $420 reversed $177 $-1 #
coedge $-1 $426 $568 $283 $418 reversed $281 $-1 #
edge $-1 $433 -9.675562413570951 $570 9.675562413570951 $417 $571 forward 7 unknown #
coedge $-1 $285 $284 $568 $572 forward $113 $-1 #
edge $-1 $424 -65.141148106326483 $570 65.141148106326483 $416 $573 forward 7 unknown #
coedge $-1 $429 $428 $285 $422 reversed $413 $-1 #
edge $-1 $574 -65.141148106326483 $423 65.141148106326483 $421 $575 forward 7 unknown #
vertex $-1 $287 $576 #
vertex $-1 $435 $577 #
straight-curve $-1 65.141148106326483 0 -9.675562413570951 0 -1 0 I I #
coedge $-1 $415 $417 $288 $427 reversed $281 $-1 #
edge $-1 $430 -31.829642448218394 $433 31.829642448218394 $426 $578 forward 7 unknown #
coedge $-1 $421 $289 $294 $436 forward $413 $-1 #
coedge $-1 $289 $421 $415 $569 reversed $413 $-1 #
vertex $-1 $290 $579 #
straight-curve $-1 0 31.829642448218394 9.675562413570951 -1 0 0 I I #
coedge $-1 $291 $416 $293 $435 reversed $177 $-1 #
vertex $-1 $427 $580 #
straight-curve $-1 0 -31.829642448218394 9.675562413570951 1 0 0 I I #
edge $-1 $296 -9.675562413570951 $424 9.675562413570951 $293 $581 forward 7 unknown #
edge $-1 $297 -9.675562413570951 $423 9.675562413570951 $294 $582 forward 7 unknown #
point $-1 65.141148106326483 -31.829642448218394 9.675562413570951 #
point $-1 65.141148106326483 31.829642448218394 9.675562413570951 #
face $-1 $-1 $314 $43 $-1 $583 reversed single #
loop $-1 $-1 $310 $299 #
plane-surface $-1 0 -31.829642448218394 0 0 1 0 0 0 1 forward_v I I I I #
coedge $-1 $584 $585 $307 $452 forward $300 $-1 #
coedge $-1 $453 $302 $304 $448 reversed $185 $-1 #
edge $-1 $450 -0.82737347077964696 $315 2.8910165938931511 $313 $586 forward 7 unknown #
coedge $-1 $304 $303 $587 $588 reversed $117 $-1 #
coedge $-1 $457 $456 $303 $447 forward $440 $-1 #
edge $-1 $589 -65.141148106326483 $449 65.141148106326483 $446 $590 forward 7 unknown #
edge $-1 $591 -65.141148106326483 $450 65.141148106326483 $443 $592 forward 7 unknown #
vertex $-1 $447 $593 #
vertex $-1 $306 $594 #
straight-curve $-1 65.141148106326483 -13.797760804507462 0.20444809077710513 0 1 0 I I #
edge $-1 $458 -18.031881643710932 $454 -9.5636399653039916 $442 $595 forward 7 unknown #
coedge $-1 $308 $443 $584 $596 reversed $185 $-1 #
vertex $-1 $452 $597 #
straight-curve $-1 0 -23.361400769811453 3.9228381554499032 -1 0 0 I I #
coedge $-1 $446 $310 $585 $598 forward $440 $-1 #
coedge $-1 $310 $446 $312 $460 reversed $440 $-1 #
vertex $-1 $598 $599 #
straight-curve $-1 0 -31.829642448218394 3.9228381554499032 -1 0 0 I I #
edge $-1 $316 -3.9228381554499032 $449 -0.20444809077710513 $312 $600 forward 7 unknown #
point $-1 65.141148106326483 -23.361400769811453 3.9228381554499032 #
point $-1 65.141148106326483 -31.829642448218394 3.9228381554499032 #
plane-surface $-1 65.141148106326483 0 0 -1 0 0 0 0 1 forward_v I I I I #
coedge $-1 $474 $473 $466 $601 forward $319 $-1 #
coedge $-1 $466 $321 $323 $470 reversed $193 $-1 #
coedge $-1 $321 $465 $464 $601 reversed $193 $-1 #
coedge $-1 $329 $324 $321 $468 forward $330 $-1 #
edge $-1 $471 -90.005595228367952 $602 -83.864717341163612 $467 $603 forward 7 unknown #
coedge $-1 $323 $322 $474 $604 reversed $121 $-1 #
edge $-1 $605 120.72878628311122 $471 130.28229621265299 $465 $606 forward 7 unknown #
vertex $-1 $325 $607 #
straight-curve $-1 65.141148106326483 -6.9658310950929376 3.5346845263666111 0 1 0 I I #
coedge $-1 $464 $326 $329 $478 forward $319 $-1 #
coedge $-1 $326 $464 $469 $604 forward $319 $-1 #
vertex $-1 $327 $608 #
straight-curve $-1 24.541483357913037 -20.111973948706272 9.6755624135709439 1 0 0 I I #
straight-curve $-1 -34.660880080474968 -20.111973948706272 87.278531322667675 -0.76604443648966558 0 0.64278761758704617 I I #
edge $-1 $331 -20.111973948706272 $602 -7.7513504316654807 $329 $609 forward 7 unknown #
point $-1 65.141148106326483 -20.111973948706272 9.675562413570951 #
point $-1 65.141148106326483 -20.111973948706272 3.534684526366604 #
edge $-1 $610 1 $610 0 $334 $-1 forward 7 unknown #
vertex $-1 $335 $611 #
ellipse-curve $-1 59.441762244337461 -13.931662190185875 4.1737325144537545 0.64278761758704617 0 0.76604443648966558 1.1490666547344983 0 -0.96418142638056925 1 I I #
point $-1 62.631008195823888 -13.931662190185875 5.640942043588236 #
loop $-1 $-1 $346 $338 #
plane-surface $-1 0 0 9.675562413570951 0 0 1 1 0 0 forward_v I I I I #
coedge $-1 $488 $341 $343 $492 reversed $208 $-1 #
coedge $-1 $341 $487 $612 $613 reversed $208 $-1 #
coedge $-1 $349 $344 $341 $490 forward $339 $-1 #
edge $-1 $493 -90.005595228367952 $614 -83.864717341163612 $489 $615 forward 7 unknown #
coedge $-1 $343 $342 $496 $616 reversed $130 $-1 #
edge $-1 $617 120.72878628311122 $493 130.28229621265299 $487 $618 forward 7 unknown #
vertex $-1 $345 $619 #
straight-curve $-1 65.141148106326483 6.8319297094145242 3.5346845263666111 0 1 0 I I #
coedge $-1 $612 $346 $349 $500 forward $485 $-1 #
coedge $-1 $346 $612 $491 $616 forward $485 $-1 #
vertex $-1 $347 $620 #
straight-curve $-1 24.541483357913037 7.4835476603086537 9.6755624135709439 1 0 0 I I #
straight-curve $-1 -34.660880080474968 7.4835476603086537 87.278531322667675 -0.76604443648966558 0 0.64278761758704617 I I #
edge $-1 $350 7.4835476603086537 $614 19.844171177349445 $349 $621 forward 7 unknown #
point $-1 65.141148106326483 7.4835476603086537 9.675562413570951 #
point $-1 65.141148106326483 7.4835476603086537 3.534684526366604 #
edge $-1 $622 1 $622 0 $353 $-1 forward 7 unknown #
vertex $-1 $354 $623 #
ellipse-curve $-1 59.441762244337461 13.663859418829048 4.1737325144537545 0.64278761758704617 0 0.76604443648966558 1.1490666547344983 0 -0.96418142638056925 1 I I #
point $-1 62.631008195823888 13.663859418829048 5.640942043588236 #
plane-surface $-1 0 0 9.675562413570951 0 0 1 1 0 0 forward_v I I I I #
coedge $-1 $518 $517 $510 $624 forward $358 $-1 #
coedge $-1 $510 $360 $362 $514 reversed $223 $-1 #
coedge $-1 $360 $509 $508 $624 reversed $223 $-1 #
coedge $-1 $368 $363 $360 $512 forward $369 $-1 #
edge $-1 $515 -15.566127888609735 $625 -7.5343217973202457 $511 $626 forward 7 unknown #
coedge $-1 $362 $361 $518 $627 reversed $139 $-1 #
edge $-1 $628 -3.606704357266089e-014 $515 10.192508307798935 $509 $629 forward 7 unknown #
vertex $-1 $364 $630 #
straight-curve $-1 -57.109342015036994 -2.9012994596070421 9.6755624135709493 0 1 0 I I #
coedge $-1 $508 $365 $368 $522 reversed $358 $-1 #
coedge $-1 $365 $508 $513 $627 forward $358 $-1 #
vertex $-1 $366 $631 #
straight-curve $-1 -65.141148106326483 -12.01158679019345 53.032138633551838 0 0 1 I I #
straight-curve $-1 -65.141148106326455 -12.01158679019345 3.4004276328291212 -0.78801074757464917 0 -0.61566148304635926 I I #
edge $-1 $625 -0.40638895176528145 $370 12.01158679019345 $517 $632 forward 7 unknown #
point $-1 -65.141148106326483 -12.01158679019345 9.675562413570951 #
point $-1 -57.109342015036994 -12.01158679019345 9.675562413570951 #
edge $-1 $633 1 $633 0 $373 $-1 forward 7 unknown #
vertex $-1 $374 $634 #
ellipse-curve $-1 -60.248208813676001 -9.5279916418017052 5.4154398403853445 -0.61566148304635926 0 0.78801074757464917 0.78801074757464917 0 0.61566148304635926 1 I I #
point $-1 -60.337234313107125 -9.5279916418017052 7.1536565062464099 #
edge $-1 $635 1 $635 0 $377 $-1 forward 7 unknown #
vertex $-1 $378 $636 #
ellipse-curve $-1 -60.248208813676001 -5.8025989192140841 5.4154398403853445 -0.61566148304635926 0 0.78801074757464917 0.78801074757464917 0 0.61566148304635926 1 I I #
point $-1 -60.337234313107125 -5.8025989192140841 7.1536565062464099 #
edge $-1 $637 1 $637 0 $381 $-1 forward 7 unknown #
vertex $-1 $382 $638 #
ellipse-curve $-1 -60.248208813676001 -2.077206196626463 5.4154398403853445 -0.61566148304635926 0 0.78801074757464917 0.78801074757464917 0 0.61566148304635926 1 I I #
point $-1 -60.337234313107125 -2.077206196626463 7.1536565062464099 #
loop $-1 $-1 $393 $385 #
plane-surface $-1 -65.141148106326483 0 0 1 0 0 0 0 -1 forward_v I I I I #
coedge $-1 $540 $388 $390 $544 reversed $252 $-1 #
coedge $-1 $388 $539 $639 $640 reversed $252 $-1 #
coedge $-1 $396 $391 $388 $542 forward $386 $-1 #
edge $-1 $545 -15.566127888609735 $641 -7.5343217973202457 $541 $642 forward 7 unknown #
coedge $-1 $390 $389 $548 $643 reversed $158 $-1 #
edge $-1 $644 -3.606704357266089e-014 $545 10.192508307798935 $539 $645 forward 7 unknown #
vertex $-1 $392 $646 #
straight-curve $-1 -57.109342015036994 7.1354202988105122 9.6755624135709493 0 1 0 I I #
coedge $-1 $639 $393 $396 $552 reversed $537 $-1 #
coedge $-1 $393 $639 $543 $643 forward $537 $-1 #
vertex $-1 $394 $647 #
straight-curve $-1 -65.141148106326483 8.0618527266416589 53.032138633551838 0 0 1 I I #
straight-curve $-1 -65.141148106326455 8.0618527266416589 3.4004276328291212 -0.78801074757464917 0 -0.61566148304635926 I I #
edge $-1 $641 -20.479828468600388 $397 -8.0618527266416589 $547 $648 forward 7 unknown #
point $-1 -65.141148106326483 8.0618527266416589 9.675562413570951 #
point $-1 -57.109342015036994 8.0618527266416589 9.675562413570951 #
edge $-1 $649 1 $649 0 $400 $-1 forward 7 unknown #
vertex $-1 $401 $650 #
ellipse-curve $-1 -60.248208813676001 10.545447875033403 5.4154398403853445 -0.61566148304635926 0 0.78801074757464917 0.78801074757464917 0 0.61566148304635926 1 I I #
point $-1 -60.337234313107125 10.545447875033403 7.1536565062464099 #
edge $-1 $651 1 $651 0 $404 $-1 forward 7 unknown #
vertex $-1 $405 $652 #
ellipse-curve $-1 -60.248208813676001 14.270840597621024 5.4154398403853445 -0.61566148304635926 0 0.78801074757464917 0.78801074757464917 0 0.61566148304635926 1 I I #
point $-1 -60.337234313107125 14.270840597621024 7.1536565062464099 #
edge $-1 $653 1 $653 0 $408 $-1 forward 7 unknown #
vertex $-1 $409 $654 #
ellipse-curve $-1 -60.248208813676001 17.996233320208646 5.4154398403853445 -0.61566148304635926 0 0.78801074757464917 0.78801074757464917 0 0.61566148304635926 1 I I #
point $-1 -60.337234313107125 17.996233320208646 7.1536565062464099 #
plane-surface $-1 65.141148106326483 0 0 -1 0 0 0 0 1 forward_v I I I I #
coedge $-1 $417 $415 $419 $572 reversed $281 $-1 #
edge $-1 $430 -9.675562413570951 $574 9.675562413570951 $429 $655 forward 7 unknown #
vertex $-1 $572 $656 #
straight-curve $-1 -65.141148106326483 -31.829642448218394 0 0 0 -1 I I #
edge $-1 $570 -31.829642448218394 $574 31.829642448218394 $568 $657 forward 7 unknown #
straight-curve $-1 0 -31.829642448218394 -9.675562413570951 -1 0 0 I I #
vertex $-1 $422 $658 #
straight-curve $-1 0 31.829642448218394 -9.675562413570951 1 0 0 I I #
point $-1 65.141148106326483 31.829642448218394 -9.675562413570951 #
point $-1 65.141148106326483 -31.829642448218394 -9.675562413570951 #
straight-curve $-1 -65.141148106326483 0 9.675562413570951 0 -1 0 I I #
point $-1 -65.141148106326483 31.829642448218394 9.675562413570951 #
point $-1 -65.141148106326483 -31.829642448218394 9.675562413570951 #
straight-curve $-1 65.141148106326483 -31.829642448218394 0 0 0 -1 I I #
straight-curve $-1 65.141148106326483 31.829642448218394 0 0 0 -1 I I #
plane-surface $-1 65.141148106326483 0 0 -1 0 0 0 0 1 forward_v I I I I #
coedge $-1 $587 $442 $453 $596 forward $300 $-1 #
coedge $-1 $442 $587 $456 $598 reversed $300 $-1 #
straight-curve $-1 65.141148106326483 -23.361400769811453 1.0318215615567521 0 0 1 I I #
coedge $-1 $585 $584 $445 $588 forward $300 $-1 #
edge $-1 $591 9.5636399653039916 $589 18.031881643710932 $587 $659 forward 7 unknown #
vertex $-1 $447 $660 #
straight-curve $-1 0 -31.829642448218394 0.20444809077710513 1 0 0 I I #
vertex $-1 $588 $661 #
straight-curve $-1 0 -23.361400769811453 0.20444809077710513 1 0 0 I I #
point $-1 65.141148106326483 -31.829642448218394 0.20444809077710513 #
point $-1 65.141148106326483 -23.361400769811453 0.20444809077710513 #
straight-curve $-1 -65.141148106326483 -13.797760804507462 3.9228381554499032 0 1 0 I I #
edge $-1 $454 -2.8910165938931511 $591 0.82737347077964696 $584 $662 forward 7 unknown #
point $-1 -65.141148106326483 -23.361400769811453 3.9228381554499032 #
edge $-1 $458 -3.9228381554499032 $589 -0.20444809077710513 $585 $663 forward 7 unknown #
point $-1 -65.141148106326483 -31.829642448218394 3.9228381554499032 #
straight-curve $-1 65.141148106326483 -31.829642448218394 0 0 0 -1 I I #
edge $-1 $602 -40.599664748413446 $605 -33.281251617939191 $464 $664 forward 7 unknown #
vertex $-1 $601 $665 #
straight-curve $-1 65.141148106326483 -7.7513504316654807 93.540279754734556 0 0 1 I I #
edge $-1 $605 0.78551933657254303 $475 13.146142853613334 $474 $666 forward 7 unknown #
vertex $-1 $604 $667 #
straight-curve $-1 -34.660880080474968 -7.7513504316654807 87.278531322667675 0.76604443648966558 0 -0.64278761758704617 I I #
point $-1 65.141148106326483 -7.7513504316654807 3.534684526366604 #
point $-1 57.822734975852228 -20.111973948706272 9.6755624135709581 #
straight-curve $-1 65.141148106326483 0 9.675562413570951 0 1 0 I I #
vertex $-1 $481 $668 #
point $-1 60.590828899071965 -13.931662190185875 3.209551088073185 #
coedge $-1 $496 $495 $488 $613 forward $485 $-1 #
edge $-1 $614 -40.599664748413446 $617 -33.281251617939191 $612 $669 forward 7 unknown #
vertex $-1 $613 $670 #
straight-curve $-1 65.141148106326483 19.844171177349445 93.540279754734556 0 0 1 I I #
edge $-1 $617 -13.012241467934921 $497 -0.65161795089412955 $496 $671 forward 7 unknown #
vertex $-1 $616 $672 #
straight-curve $-1 -34.660880080474968 19.844171177349445 87.278531322667675 0.76604443648966558 0 -0.64278761758704617 I I #
point $-1 65.141148106326483 19.844171177349445 3.534684526366604 #
point $-1 57.822734975852228 7.4835476603086537 9.6755624135709581 #
straight-curve $-1 65.141148106326483 0 9.675562413570951 0 1 0 I I #
vertex $-1 $503 $673 #
point $-1 60.590828899071965 13.663859418829048 3.209551088073185 #
edge $-1 $625 43.356576219980887 $628 49.631711000722738 $508 $674 forward 7 unknown #
vertex $-1 $522 $675 #
straight-curve $-1 -72.675469903646729 0.40638895176528145 9.675562413570951 -1 0 0 I I #
edge $-1 $628 -3.3076884113723235 $519 9.1102873305864076 $518 $676 forward 7 unknown #
vertex $-1 $627 $677 #
straight-curve $-1 -65.141148106326455 0.40638895176528145 3.4004276328291212 0.78801074757464917 0 0.61566148304635926 I I #
point $-1 -57.109342015036994 0.40638895176528145 9.675562413570951 #
point $-1 -65.141148106326483 -12.01158679019345 3.400427632829099 #
straight-curve $-1 -65.141148106326483 0 9.675562413570951 0 -1 0 I I #
vertex $-1 $525 $678 #
point $-1 -59.460198066101356 -9.5279916418017052 6.0311013234317041 #
vertex $-1 $529 $679 #
point $-1 -59.460198066101356 -5.8025989192140841 6.0311013234317041 #
vertex $-1 $533 $680 #
point $-1 -59.460198066101356 -2.077206196626463 6.0311013234317041 #
coedge $-1 $548 $547 $540 $640 forward $537 $-1 #
edge $-1 $641 43.356576219980887 $644 49.631711000722738 $639 $681 forward 7 unknown #
vertex $-1 $552 $682 #
straight-curve $-1 -72.675469903646729 20.479828468600388 9.675562413570951 -1 0 0 I I #
edge $-1 $644 -13.344408169789876 $549 -0.92643242783114665 $548 $683 forward 7 unknown #
vertex $-1 $643 $684 #
straight-curve $-1 -65.141148106326455 20.479828468600388 3.4004276328291212 0.78801074757464917 0 0.61566148304635926 I I #
point $-1 -57.109342015036994 20.479828468600388 9.675562413570951 #
point $-1 -65.141148106326483 8.0618527266416589 3.400427632829099 #
straight-curve $-1 -65.141148106326483 0 9.675562413570951 0 -1 0 I I #
vertex $-1 $555 $685 #
point $-1 -59.460198066101356 10.545447875033403 6.0311013234317041 #
vertex $-1 $559 $686 #
point $-1 -59.460198066101356 14.270840597621024 6.0311013234317041 #
vertex $-1 $563 $687 #
point $-1 -59.460198066101356 17.996233320208646 6.0311013234317041 #
straight-curve $-1 -65.141148106326483 31.829642448218394 0 0 0 -1 I I #
point $-1 -65.141148106326483 -31.829642448218394 -9.675562413570951 #
straight-curve $-1 -65.141148106326483 0 -9.675562413570951 0 1 0 I I #
point $-1 -65.141148106326483 31.829642448218394 -9.675562413570951 #
straight-curve $-1 -65.141148106326483 -13.797760804507462 0.20444809077710513 0 -1 0 I I #
point $-1 -65.141148106326483 -31.829642448218394 0.20444809077710513 #
point $-1 -65.141148106326483 -23.361400769811453 0.20444809077710513 #
straight-curve $-1 -65.141148106326483 -23.361400769811453 1.0318215615567521 0 0 -1 I I #
straight-curve $-1 -65.141148106326483 -31.829642448218394 0 0 0 -1 I I #
straight-curve $-1 24.541483357913037 -7.7513504316654807 9.6755624135709439 -1 0 0 I I #
point $-1 65.141148106326483 -7.7513504316654807 9.675562413570951 #
straight-curve $-1 57.822734975852228 -6.9658310950929376 9.6755624135709581 0 -1 0 I I #
point $-1 57.822734975852228 -7.7513504316654807 9.6755624135709581 #
point $-1 58.477580817956898 -13.931662190185875 3.0246658597192559 #
straight-curve $-1 24.541483357913037 19.844171177349445 9.6755624135709439 -1 0 0 I I #
point $-1 65.141148106326483 19.844171177349445 9.675562413570951 #
straight-curve $-1 57.822734975852228 6.8319297094145242 9.6755624135709581 0 -1 0 I I #
point $-1 57.822734975852228 19.844171177349445 9.6755624135709581 #
point $-1 58.477580817956898 13.663859418829048 3.0246658597192559 #
straight-curve $-1 -65.141148106326483 0.40638895176528145 53.032138633551838 0 0 -1 I I #
point $-1 -65.141148106326483 0.40638895176528145 9.675562413570951 #
straight-curve $-1 -65.141148106326483 -2.9012994596070421 3.4004276328290994 0 -1 0 I I #
point $-1 -65.141148106326483 0.40638895176528145 3.400427632829099 #
point $-1 -59.632547330629649 -9.5279916418017052 4.6274290928106954 #
point $-1 -59.632547330629649 -5.8025989192140841 4.6274290928106954 #
point $-1 -59.632547330629649 -2.077206196626463 4.6274290928106954 #
straight-curve $-1 -65.141148106326483 20.479828468600388 53.032138633551838 0 0 -1 I I #
point $-1 -65.141148106326483 20.479828468600388 9.675562413570951 #
straight-curve $-1 -65.141148106326483 7.1354202988105122 3.4004276328290994 0 -1 0 I I #
point $-1 -65.141148106326483 20.479828468600388 3.400427632829099 #
point $-1 -59.632547330629649 10.545447875033403 4.6274290928106954 #
point $-1 -59.632547330629649 14.270840597621024 4.6274290928106954 #
point $-1 -59.632547330629649 17.996233320208646 4.6274290928106954 #
End-of-ACIS-data 