500 0 7 0           
7 Unknown 11 ACIS 5.0 NT 24 Fri Mar 26 16:52:29 1999 
-1 9.9999999999999995e-007 1e-010 
body $-1 $7 $-1 $8 #
body $-1 $9 $-1 $10 #
body $-1 $11 $-1 $12 #
body $-1 $13 $-1 $14 #
body $-1 $15 $-1 $16 #
body $-1 $17 $-1 $18 #
body $-1 $19 $-1 $20 #
lump $-1 $-1 $21 $0 #
transform $-1 1 0 0 0 1 0 0 0 1 62.073427533799247 35.702971486594869 11.034067243058574 1 rotate no_reflect no_shear #
lump $-1 $-1 $22 $1 #
transform $-1 1 0 0 0 1 0 0 0 1 62.073427533799247 35.702971486594869 11.034067243058574 1 rotate no_reflect no_shear #
lump $-1 $-1 $23 $2 #
transform $-1 1 0 0 0 1 0 0 0 1 62.073427533799247 35.702971486594869 11.034067243058574 1 rotate no_reflect no_shear #
lump $-1 $-1 $24 $3 #
transform $-1 1 0 0 0 1 0 0 0 1 62.073427533799247 35.702971486594869 11.034067243058574 1 rotate no_reflect no_shear #
lump $-1 $-1 $25 $4 #
transform $-1 1 0 0 0 1 0 0 0 1 62.073427533799247 35.702971486594869 11.034067243058574 1 rotate no_reflect no_shear #
lump $-1 $-1 $26 $5 #
transform $-1 1 0 0 0 1 0 0 0 1 62.073427533799247 35.702971486594869 11.034067243058574 1 rotate no_reflect no_shear #
lump $-1 $-1 $27 $6 #
transform $-1 1 0 0 0 1 0 0 0 1 62.073427533799247 35.702971486594869 11.034067243058574 1 rotate no_reflect no_shear #
shell $-1 $-1 $-1 $28 $-1 $7 #
shell $-1 $-1 $-1 $29 $-1 $9 #
shell $-1 $-1 $-1 $30 $-1 $11 #
shell $-1 $-1 $-1 $31 $-1 $13 #
shell $-1 $-1 $-1 $32 $-1 $15 #
shell $-1 $-1 $-1 $33 $-1 $17 #
shell $-1 $-1 $-1 $34 $-1 $19 #
face $-1 $35 $36 $21 $-1 $37 forward single #
face $-1 $38 $39 $22 $-1 $40 forward single #
face $-1 $41 $42 $23 $-1 $43 reversed single #
face $-1 $44 $45 $24 $-1 $46 forward single #
face $-1 $47 $48 $25 $-1 $49 reversed single #
face $-1 $50 $51 $26 $-1 $52 forward single #
face $-1 $53 $54 $27 $-1 $55 forward single #
face $-1 $56 $57 $21 $-1 $58 reversed single #
loop $-1 $-1 $59 $28 #
plane-surface $-1 0 0 11.034067243058574 0 0 1 1 0 0 forward_v I I I I #
face $-1 $60 $61 $22 $-1 $62 reversed single #
loop $-1 $-1 $63 $29 #
plane-surface $-1 -62.073427533799247 0 0 1 0 0 0 0 -1 forward_v I I I I #
face $-1 $64 $65 $23 $-1 $66 reversed single #
loop $-1 $-1 $67 $30 #
plane-surface $-1 52.908043763377123 -35.70297148659489 2.5445585451357147 0 -0.82903758062907751 0.55919289150049634 1 0 0 forward_v I I I I #
face $-1 $68 $69 $24 $-1 $70 forward single #
loop $-1 $71 $72 $31 #
cone-surface $-1 52.908043763377123 -30.895309305933345 5.4777046093171808 0 0.82903758062907751 -0.55919289150049634 1.5 0 0 1 I I 0 1 1.5 forward I I I I #
face $-1 $73 $74 $25 $-1 $75 reversed single #
loop $-1 $-1 $76 $32 #
plane-surface $-1 21.317633888783092 98.695684133047962 136.46821879625148 1 0 0 0 -0.82903758062907751 -0.55919289150049634 forward_v I I I I #
face $-1 $77 $78 $26 $-1 $79 forward single #
loop $-1 $80 $81 $33 #
cone-surface $-1 25.521038994693129 33.820680795589837 8.896173613156277 0 -0.82903758062907751 -0.55919289150049634 0.5 0 0 1 I I 0 1 0.5 forward I I I I #
face $-1 $82 $83 $27 $-1 $84 forward single #
loop $-1 $85 $86 $34 #
cone-surface $-1 31.826146653558169 33.820680795589837 8.896173613156277 0 -0.82903758062907751 -0.55919289150049634 0.5 0 0 1 I I 0 1 0.5 forward I I I I #
face $-1 $87 $88 $21 $-1 $89 reversed single #
loop $-1 $-1 $90 $35 #
plane-surface $-1 0 0 -11.034067243058574 0 0 1 1 0 0 forward_v I I I I #
coedge $-1 $91 $92 $93 $94 forward $36 $-1 #
face $-1 $95 $96 $22 $-1 $97 reversed single #
loop $-1 $-1 $98 $38 #
plane-surface $-1 0 35.702971486594869 0 0 -1 0 0 0 -1 forward_v I I I I #
coedge $-1 $99 $100 $101 $102 forward $39 $-1 #
face $-1 $103 $104 $23 $-1 $105 reversed single #
loop $-1 $-1 $106 $41 #
plane-surface $-1 43.742659992954991 -138.62537985454549 71.96659740107917 1 0 0 0 0.82903758062907751 -0.55919289150049634 forward_v I I I I #
coedge $-1 $107 $108 $109 $110 reversed $42 $-1 #
face $-1 $-1 $111 $24 $-1 $112 forward single #
loop $-1 $113 $114 $44 #
cone-surface $-1 52.908043763377123 -28.328991810905471 3.7467016559118456 0 0.82903758062907751 -0.55919289150049634 0.75 0 0 1 I I -0.70710678118654757 0.70710678118654757 0.75 forward I I I I #
loop $-1 $-1 $115 $31 #
coedge $-1 $72 $72 $116 $117 reversed $45 $-1 #
face $-1 $118 $119 $25 $-1 $120 reversed single #
loop $-1 $-1 $121 $47 #
plane-surface $-1 28.673592824125649 -4.2267242349026333 67.046179940308022 0 0.82903758062907751 0.55919289150049634 1 0 0 forward_v I I I I #
coedge $-1 $122 $123 $124 $125 reversed $48 $-1 #
face $-1 $-1 $126 $26 $-1 $127 forward single #
loop $-1 $128 $129 $50 #
cone-surface $-1 25.521038994693129 32.805655628205663 8.2115305142696879 0 -0.82903758062907751 -0.55919289150049634 0.25 0 0 1 I I -0.70710678118655002 0.70710678118654502 0.25 forward I I I I #
loop $-1 $-1 $130 $33 #
coedge $-1 $81 $81 $131 $132 reversed $51 $-1 #
face $-1 $-1 $133 $27 $-1 $134 forward single #
loop $-1 $135 $136 $53 #
cone-surface $-1 31.826146653558169 32.805655628205663 8.2115305142696879 0 -0.82903758062907751 -0.55919289150049634 0.25 0 0 1 I I -0.70710678118655002 0.70710678118654502 0.25 forward I I I I #
loop $-1 $-1 $137 $34 #
coedge $-1 $86 $86 $138 $139 reversed $54 $-1 #
face $-1 $140 $141 $21 $-1 $142 reversed single #
loop $-1 $-1 $143 $56 #
plane-surface $-1 0 -35.702971486594869 0 0 1 0 0 0 1 forward_v I I I I #
coedge $-1 $144 $145 $146 $147 forward $57 $-1 #
coedge $-1 $148 $59 $149 $150 forward $36 $-1 #
coedge $-1 $59 $148 $151 $152 forward $36 $-1 #
coedge $-1 $153 $154 $59 $94 reversed $155 $-1 #
edge $-1 $156 -35.702971486594869 $157 35.702971486594869 $93 $158 forward 7 unknown #
face $-1 $159 $160 $22 $-1 $161 reversed single #
loop $-1 $-1 $101 $60 #
plane-surface $-1 -66.224401403029859 0 7.6244067778690479 0 0 1 1 0 0 forward_v I I I I #
coedge $-1 $162 $163 $99 $164 forward $61 $-1 #
coedge $-1 $165 $63 $98 $164 reversed $39 $-1 #
coedge $-1 $63 $165 $166 $167 reversed $39 $-1 #
coedge $-1 $168 $169 $63 $102 reversed $96 $-1 #
edge $-1 $170 -35.702971486594869 $171 35.702971486594869 $101 $172 forward 7 unknown #
face $-1 $173 $174 $23 $-1 $175 forward single #
loop $-1 $-1 $176 $64 #
plane-surface $-1 62.073427533799247 0 0 -1 0 0 0 0 1 forward_v I I I I #
coedge $-1 $177 $178 $179 $180 reversed $65 $-1 #
coedge $-1 $181 $67 $176 $182 reversed $42 $-1 #
coedge $-1 $67 $181 $177 $183 forward $42 $-1 #
coedge $-1 $179 $184 $67 $110 forward $174 $-1 #
edge $-1 $185 -35.619405652110693 $186 -17.28863811126643 $109 $187 forward 7 unknown #
loop $-1 $-1 $116 $68 #
plane-surface $-1 52.908043763377123 -35.70297148659489 2.5445585451357147 0 -0.82903758062907751 0.55919289150049634 1 0 0 forward_v I I I I #
loop $-1 $-1 $188 $44 #
coedge $-1 $114 $114 $115 $189 reversed $69 $-1 #
coedge $-1 $115 $115 $114 $189 forward $71 $-1 #
coedge $-1 $116 $116 $72 $117 forward $111 $-1 #
edge $-1 $190 -5.9292701328967935e-016 $190 6.2831853071795996 $116 $191 forward 7 unknown #
face $-1 $192 $193 $25 $-1 $194 reversed single #
loop $-1 $-1 $195 $73 #
plane-surface $-1 36.029551759468205 98.695684133047962 136.46821879625148 -1 0 0 0 0.82903758062907751 0.55919289150049634 forward_v I I I I #
coedge $-1 $196 $197 $198 $199 reversed $74 $-1 #
coedge $-1 $123 $76 $200 $201 reversed $48 $-1 #
coedge $-1 $76 $122 $196 $202 reversed $48 $-1 #
coedge $-1 $198 $203 $76 $125 forward $204 $-1 #
edge $-1 $205 13.644870579929112 $206 15.793920417485346 $124 $207 forward 7 unknown #
loop $-1 $-1 $131 $77 #
plane-surface $-1 28.673592824125649 -4.2267242349026333 67.046179940308022 0 0.82903758062907751 0.55919289150049634 1 0 0 forward_v I I I I #
loop $-1 $-1 $208 $50 #
coedge $-1 $129 $129 $130 $209 reversed $78 $-1 #
coedge $-1 $130 $130 $129 $209 forward $80 $-1 #
coedge $-1 $131 $131 $81 $132 forward $126 $-1 #
edge $-1 $210 8.8939051993451917e-016 $210 6.2831853071796013 $131 $211 forward 7 unknown #
loop $-1 $-1 $138 $82 #
plane-surface $-1 28.673592824125649 -4.2267242349026333 67.046179940308022 0 0.82903758062907751 0.55919289150049634 1 0 0 forward_v I I I I #
loop $-1 $-1 $212 $53 #
coedge $-1 $136 $136 $137 $213 reversed $83 $-1 #
coedge $-1 $137 $137 $136 $213 forward $85 $-1 #
coedge $-1 $138 $138 $86 $139 forward $133 $-1 #
edge $-1 $214 8.8939051993451917e-016 $214 6.2831853071796013 $138 $215 forward 7 unknown #
face $-1 $216 $217 $21 $-1 $218 reversed single #
loop $-1 $-1 $219 $87 #
plane-surface $-1 -62.073427533799247 0 0 1 0 0 0 0 -1 forward_v I I I I #
coedge $-1 $220 $151 $221 $222 forward $88 $-1 #
coedge $-1 $223 $90 $220 $224 forward $57 $-1 #
coedge $-1 $90 $223 $225 $226 forward $57 $-1 #
coedge $-1 $154 $153 $90 $147 reversed $155 $-1 #
edge $-1 $227 -35.702971486594869 $228 35.702971486594869 $146 $229 forward 7 unknown #
coedge $-1 $92 $91 $230 $231 forward $36 $-1 #
coedge $-1 $232 $233 $91 $150 reversed $217 $-1 #
edge $-1 $157 -62.073427533799247 $234 62.073427533799247 $149 $235 forward 7 unknown #
coedge $-1 $143 $236 $92 $152 reversed $88 $-1 #
edge $-1 $237 -62.073427533799247 $156 62.073427533799247 $151 $238 forward 7 unknown #
coedge $-1 $146 $93 $236 $239 forward $155 $-1 #
coedge $-1 $93 $146 $232 $240 reversed $155 $-1 #
loop $-1 $-1 $153 $216 #
vertex $-1 $94 $241 #
vertex $-1 $94 $242 #
straight-curve $-1 62.073427533799247 0 11.034067243058574 0 1 0 I I #
face $-1 $243 $244 $22 $-1 $245 forward single #
loop $-1 $-1 $246 $95 #
plane-surface $-1 -70.37537527226047 0 9.329237010463812 1 0 0 0 0 -1 forward_v I I I I #
coedge $-1 $247 $98 $169 $248 reversed $61 $-1 #
coedge $-1 $98 $247 $249 $250 reversed $61 $-1 #
edge $-1 $251 -11.034067243058574 $171 -7.6244067778690479 $98 $252 forward 7 unknown #
coedge $-1 $100 $99 $253 $254 reversed $39 $-1 #
coedge $-1 $255 $256 $100 $167 forward $257 $-1 #
edge $-1 $170 7.6244067778690479 $258 11.034067243058574 $166 $259 forward 7 unknown #
coedge $-1 $260 $101 $256 $261 forward $96 $-1 #
coedge $-1 $101 $260 $162 $248 forward $96 $-1 #
vertex $-1 $167 $262 #
vertex $-1 $164 $263 #
straight-curve $-1 -62.073427533799247 0 7.6244067778690479 0 1 0 I I #
face $-1 $-1 $264 $23 $-1 $265 reversed single #
loop $-1 $-1 $109 $103 #
plane-surface $-1 0 0 11.034067243058574 0 0 1 1 0 0 forward_v I I I I #
coedge $-1 $266 $267 $107 $182 forward $104 $-1 #
coedge $-1 $178 $106 $108 $183 reversed $65 $-1 #
coedge $-1 $106 $177 $268 $269 reversed $65 $-1 #
coedge $-1 $270 $109 $106 $180 forward $174 $-1 #
edge $-1 $186 -39.335964182888773 $271 -33.609718440677874 $179 $272 forward 7 unknown #
coedge $-1 $108 $107 $273 $274 reversed $42 $-1 #
edge $-1 $275 -8.9276566003601694 $185 1.3125410653246012 $176 $276 forward 7 unknown #
edge $-1 $277 3.8059745140678707e-014 $186 10.240197665684809 $177 $278 forward 7 unknown #
coedge $-1 $109 $270 $266 $279 forward $174 $-1 #
vertex $-1 $110 $280 #
vertex $-1 $110 $281 #
straight-curve $-1 26.454021881688561 -29.976725744383973 11.034067243058574 -1 0 0 I I #
coedge $-1 $188 $188 $-1 $282 reversed $113 $-1 #
edge $-1 $283 0 $283 6.2831853071796004 $114 $284 forward 7 unknown #
vertex $-1 $117 $285 #
ellipse-curve $-1 52.908043763377123 -32.839848615489423 6.7893128940971534 0 -0.82903758062907751 0.55919289150049634 1.5 0 0 1 I I #
face $-1 $-1 $204 $25 $-1 $286 forward single #
loop $-1 $-1 $287 $118 #
plane-surface $-1 0 35.702971486594869 0 0 -1 0 0 0 -1 forward_v I I I I #
coedge $-1 $288 $289 $290 $291 reversed $119 $-1 #
coedge $-1 $292 $121 $123 $202 forward $74 $-1 #
coedge $-1 $121 $292 $288 $293 forward $74 $-1 #
coedge $-1 $290 $124 $121 $199 forward $204 $-1 #
edge $-1 $206 6.9808374767202679 $294 21.692755347405381 $198 $295 forward 7 unknown #
coedge $-1 $296 $297 $122 $201 forward $193 $-1 #
edge $-1 $298 -60.386139662848791 $205 -57.200042155067166 $200 $299 forward 7 unknown #
edge $-1 $206 67.562815011048357 $298 71.40594297318971 $123 $300 forward 7 unknown #
coedge $-1 $124 $290 $296 $301 forward $204 $-1 #
loop $-1 $-1 $290 $192 #
vertex $-1 $201 $302 #
vertex $-1 $125 $303 #
straight-curve $-1 21.317633888783092 49.347842066523981 11.034067243058573 0 -1 0 I I #
coedge $-1 $208 $208 $-1 $304 reversed $128 $-1 #
edge $-1 $305 0 $305 6.2831853071796004 $129 $306 forward 7 unknown #
vertex $-1 $132 $307 #
ellipse-curve $-1 25.521038994693129 34.628446567816752 9.4410184891677496 0 0.82903758062907751 0.55919289150049634 0.5 0 0 1 I I #
coedge $-1 $212 $212 $-1 $308 reversed $135 $-1 #
edge $-1 $309 0 $309 6.2831853071796004 $136 $310 forward 7 unknown #
vertex $-1 $139 $311 #
ellipse-curve $-1 31.826146653558169 34.628446567816752 9.4410184891677496 0 0.82903758062907751 0.55919289150049634 0.5 0 0 1 I I #
face $-1 $-1 $155 $21 $-1 $312 reversed single #
loop $-1 $-1 $232 $140 #
plane-surface $-1 0 35.702971486594869 0 0 -1 0 0 0 -1 forward_v I I I I #
coedge $-1 $313 $230 $233 $314 forward $141 $-1 #
coedge $-1 $236 $143 $144 $224 reversed $88 $-1 #
coedge $-1 $230 $313 $143 $222 reversed $141 $-1 #
edge $-1 $237 -11.034067243058574 $315 11.034067243058574 $221 $316 forward 7 unknown #
coedge $-1 $145 $144 $313 $317 forward $57 $-1 #
edge $-1 $228 -62.073427533799247 $315 62.073427533799247 $220 $318 forward 7 unknown #
coedge $-1 $233 $232 $145 $226 reversed $217 $-1 #
edge $-1 $319 -62.073427533799247 $227 62.073427533799247 $225 $320 forward 7 unknown #
vertex $-1 $147 $321 #
vertex $-1 $239 $322 #
straight-curve $-1 62.073427533799247 0 -11.034067243058574 0 -1 0 I I #
coedge $-1 $219 $221 $148 $231 reversed $141 $-1 #
edge $-1 $234 -35.702971486594869 $237 35.702971486594869 $230 $323 forward 7 unknown #
coedge $-1 $225 $149 $154 $240 forward $217 $-1 #
coedge $-1 $149 $225 $219 $314 reversed $217 $-1 #
vertex $-1 $150 $324 #
straight-curve $-1 0 35.702971486594869 11.034067243058574 -1 0 0 I I #
coedge $-1 $151 $220 $153 $239 reversed $88 $-1 #
vertex $-1 $231 $325 #
straight-curve $-1 0 -35.702971486594869 11.034067243058574 1 0 0 I I #
edge $-1 $156 -11.034067243058574 $228 11.034067243058574 $153 $326 forward 7 unknown #
edge $-1 $157 -11.034067243058574 $227 11.034067243058574 $154 $327 forward 7 unknown #
point $-1 62.073427533799247 -35.702971486594869 11.034067243058574 #
point $-1 62.073427533799247 35.702971486594869 11.034067243058574 #
face $-1 $-1 $257 $22 $-1 $328 reversed single #
loop $-1 $-1 $253 $159 #
plane-surface $-1 0 0 11.034067243058574 0 0 1 1 0 0 forward_v I I I I #
coedge $-1 $329 $330 $247 $331 forward $160 $-1 #
coedge $-1 $163 $162 $246 $331 reversed $61 $-1 #
edge $-1 $332 -4.1509738692306115 $171 4.1509738692306044 $162 $333 forward 7 unknown #
coedge $-1 $334 $253 $163 $250 forward $244 $-1 #
edge $-1 $251 62.073427533799247 $335 70.37537527226047 $163 $336 forward 7 unknown #
vertex $-1 $250 $337 #
straight-curve $-1 -62.073427533799247 35.702971486594869 0 0 0 -1 I I #
coedge $-1 $249 $338 $165 $254 forward $244 $-1 #
edge $-1 $258 -35.702971486594869 $251 35.702971486594869 $253 $339 forward 7 unknown #
coedge $-1 $340 $166 $338 $341 reversed $257 $-1 #
coedge $-1 $166 $340 $168 $261 reversed $257 $-1 #
loop $-1 $-1 $166 $243 #
vertex $-1 $167 $342 #
straight-curve $-1 -62.073427533799247 -35.702971486594869 0 0 0 1 I I #
coedge $-1 $169 $168 $329 $343 forward $96 $-1 #
edge $-1 $170 -4.1509738692306044 $344 4.1509738692306115 $256 $345 forward 7 unknown #
point $-1 -62.073427533799254 -35.702971486594869 7.6244067778690479 #
point $-1 -62.073427533799254 35.702971486594869 7.6244067778690479 #
loop $-1 $-1 $273 $173 #
plane-surface $-1 0 -35.702971486594869 0 0 1 0 0 0 1 forward_v I I I I #
coedge $-1 $267 $176 $184 $279 reversed $104 $-1 #
coedge $-1 $176 $266 $346 $347 forward $104 $-1 #
coedge $-1 $273 $348 $178 $269 forward $264 $-1 #
edge $-1 $271 24.949231457481012 $277 33.438740155403842 $268 $349 forward 7 unknown #
coedge $-1 $184 $179 $348 $350 forward $174 $-1 #
vertex $-1 $350 $351 #
straight-curve $-1 43.742659992954991 -69.312689927272743 11.034067243058573 0 -1 0 I I #
coedge $-1 $346 $268 $181 $274 forward $264 $-1 #
edge $-1 $277 17.28863811126643 $275 35.619405652110693 $273 $352 forward 7 unknown #
vertex $-1 $274 $353 #
straight-curve $-1 62.073427533799247 -30.710689377915976 9.9459213737855556 0 0.55919289150049634 0.82903758062907751 I I #
vertex $-1 $274 $354 #
straight-curve $-1 43.742659992954991 -35.70297148659489 2.5445585451357147 0 0.55919289150049634 0.82903758062907751 I I #
edge $-1 $355 -35.702971486594869 $185 -29.97672574438397 $266 $356 forward 7 unknown #
point $-1 62.073427533799254 -29.97672574438397 11.034067243058574 #
point $-1 43.742659992954991 -29.97672574438397 11.034067243058574 #
edge $-1 $357 1 $357 0 $188 $-1 forward 7 unknown #
vertex $-1 $189 $358 #
ellipse-curve $-1 52.908043763377123 -28.950769996377279 4.166096324537218 0 -0.82903758062907751 0.55919289150049634 1.5 0 0 1 I I #
point $-1 54.408043763377123 -32.839848615489409 6.7893128940971428 #
plane-surface $-1 0 0 11.034067243058574 0 0 1 1 0 0 forward_v I I I I #
coedge $-1 $297 $296 $289 $359 forward $193 $-1 #
coedge $-1 $289 $195 $197 $293 reversed $119 $-1 #
coedge $-1 $195 $288 $287 $359 reversed $119 $-1 #
coedge $-1 $203 $198 $195 $291 forward $204 $-1 #
edge $-1 $294 -15.793920417485346 $360 -13.644870579929112 $290 $361 forward 7 unknown #
coedge $-1 $197 $196 $297 $362 reversed $74 $-1 #
edge $-1 $363 -71.40594297318971 $294 -67.562815011048357 $288 $364 forward 7 unknown #
vertex $-1 $199 $365 #
straight-curve $-1 14.336796412062824 33.553921649038635 11.034067243058573 1 0 0 I I #
coedge $-1 $287 $200 $203 $301 reversed $193 $-1 #
coedge $-1 $200 $287 $292 $362 forward $193 $-1 #
vertex $-1 $201 $366 #
straight-curve $-1 21.317633888783092 35.702971486594869 68.234109398125739 0 0 1 I I #
straight-curve $-1 21.317633888783092 -4.2267242349026333 67.046179940308022 0 0.55919289150049634 -0.82903758062907751 I I #
edge $-1 $360 -36.029551759468205 $205 -21.317633888783092 $296 $367 forward 7 unknown #
point $-1 21.317633888783092 35.702971486594869 11.034067243058574 #
point $-1 21.317633888783092 33.553921649038635 11.034067243058573 #
edge $-1 $368 1 $368 0 $208 $-1 forward 7 unknown #
vertex $-1 $209 $369 #
ellipse-curve $-1 25.521038994693129 33.012915023362929 8.3513287371448115 0 0.82903758062907751 0.55919289150049634 0.5 0 0 1 I I #
point $-1 26.021038994693129 34.628446567816745 9.4410184891677442 #
edge $-1 $370 1 $370 0 $212 $-1 forward 7 unknown #
vertex $-1 $213 $371 #
ellipse-curve $-1 31.826146653558169 33.012915023362929 8.3513287371448115 0 0.82903758062907751 0.55919289150049634 0.5 0 0 1 I I #
point $-1 32.326146653558169 34.628446567816745 9.4410184891677442 #
plane-surface $-1 62.073427533799247 0 0 -1 0 0 0 0 1 forward_v I I I I #
coedge $-1 $221 $219 $223 $317 reversed $141 $-1 #
edge $-1 $234 -11.034067243058574 $319 11.034067243058574 $233 $372 forward 7 unknown #
vertex $-1 $317 $373 #
straight-curve $-1 -62.073427533799247 -35.702971486594869 0 0 0 -1 I I #
edge $-1 $315 -35.702971486594869 $319 35.702971486594869 $313 $374 forward 7 unknown #
straight-curve $-1 0 -35.702971486594869 -11.034067243058574 -1 0 0 I I #
vertex $-1 $226 $375 #
straight-curve $-1 0 35.702971486594869 -11.034067243058574 1 0 0 I I #
point $-1 62.073427533799247 35.702971486594869 -11.034067243058574 #
point $-1 62.073427533799247 -35.702971486594869 -11.034067243058574 #
straight-curve $-1 -62.073427533799247 0 11.034067243058574 0 -1 0 I I #
point $-1 -62.073427533799247 35.702971486594869 11.034067243058574 #
point $-1 -62.073427533799247 -35.702971486594869 11.034067243058574 #
straight-curve $-1 62.073427533799247 -35.702971486594869 0 0 0 -1 I I #
straight-curve $-1 62.073427533799247 35.702971486594869 0 0 0 -1 I I #
plane-surface $-1 0 -35.702971486594869 0 0 1 0 0 0 1 forward_v I I I I #
coedge $-1 $376 $246 $260 $343 reversed $160 $-1 #
coedge $-1 $246 $376 $334 $377 reversed $160 $-1 #
edge $-1 $335 -1.7048302325947642 $332 1.7048302325947642 $247 $378 forward 7 unknown #
vertex $-1 $248 $379 #
straight-curve $-1 -66.224401403029859 35.702971486594869 7.6244067778690479 1 0 0 I I #
coedge $-1 $338 $249 $330 $377 forward $244 $-1 #
vertex $-1 $250 $380 #
straight-curve $-1 0 35.702971486594869 11.034067243058574 -1 0 0 I I #
point $-1 -62.073427533799247 35.702971486594869 11.034067243058574 #
coedge $-1 $253 $334 $255 $341 forward $244 $-1 #
straight-curve $-1 -62.073427533799247 0 11.034067243058574 0 1 0 I I #
coedge $-1 $256 $255 $376 $381 forward $257 $-1 #
edge $-1 $382 -70.37537527226047 $258 -62.073427533799247 $255 $383 forward 7 unknown #
point $-1 -62.073427533799247 -35.702971486594869 11.034067243058574 #
edge $-1 $344 -35.702971486594869 $332 35.702971486594869 $329 $384 forward 7 unknown #
vertex $-1 $343 $385 #
straight-curve $-1 -66.224401403029859 -35.702971486594869 7.6244067778690479 -1 0 0 I I #
coedge $-1 $348 $273 $267 $347 reversed $264 $-1 #
edge $-1 $355 -11.034067243058574 $275 -2.5445585451357462 $267 $386 forward 7 unknown #
coedge $-1 $268 $346 $270 $350 reversed $264 $-1 #
straight-curve $-1 43.742659992954991 -35.702971486594869 35.983298700539585 0 0 -1 I I #
edge $-1 $271 43.742659992954991 $355 62.073427533799247 $348 $387 forward 7 unknown #
point $-1 43.742659992954991 -35.702971486594869 11.034067243058574 #
straight-curve $-1 26.454021881688561 -35.702971486594869 2.5445585451357462 1 0 0 I I #
point $-1 62.073427533799254 -35.702971486594869 2.5445585451357462 #
point $-1 43.742659992954991 -35.702971486594869 2.5445585451357462 #
vertex $-1 $279 $388 #
straight-curve $-1 62.073427533799247 0 11.034067243058574 0 1 0 I I #
vertex $-1 $282 $389 #
point $-1 54.408043763377123 -28.950769996377279 4.166096324537218 #
edge $-1 $360 57.200042155067166 $363 60.386139662848791 $287 $390 forward 7 unknown #
vertex $-1 $301 $391 #
straight-curve $-1 36.029551759468205 49.347842066523981 11.034067243058573 0 1 0 I I #
edge $-1 $363 -21.692755347405381 $298 -6.9808374767202679 $297 $392 forward 7 unknown #
vertex $-1 $362 $393 #
straight-curve $-1 36.029551759468205 -4.2267242349026333 67.046179940308022 0 -0.55919289150049634 0.82903758062907751 I I #
point $-1 36.029551759468205 33.553921649038635 11.034067243058573 #
point $-1 21.317633888783092 35.702971486594869 7.8479697352769477 #
straight-curve $-1 0 35.702971486594869 11.034067243058574 -1 0 0 I I #
vertex $-1 $304 $394 #
point $-1 26.021038994693129 33.012915023362929 8.3513287371448115 #
vertex $-1 $308 $395 #
point $-1 32.326146653558169 33.012915023362929 8.3513287371448115 #
straight-curve $-1 -62.073427533799247 35.702971486594869 0 0 0 -1 I I #
point $-1 -62.073427533799247 -35.702971486594869 -11.034067243058574 #
straight-curve $-1 -62.073427533799247 0 -11.034067243058574 0 1 0 I I #
point $-1 -62.073427533799247 35.702971486594869 -11.034067243058574 #
coedge $-1 $330 $329 $340 $381 reversed $160 $-1 #
edge $-1 $335 -35.702971486594869 $382 35.702971486594869 $330 $396 forward 7 unknown #
straight-curve $-1 -70.37537527226047 35.702971486594869 9.329237010463812 0 0 -1 I I #
point $-1 -70.37537527226047 35.702971486594869 7.6244067778690479 #
point $-1 -70.37537527226047 35.702971486594869 11.034067243058576 #
edge $-1 $382 -1.7048302325947642 $344 1.7048302325947642 $376 $397 forward 7 unknown #
vertex $-1 $377 $398 #
straight-curve $-1 0 -35.702971486594869 11.034067243058574 1 0 0 I I #
straight-curve $-1 -70.37537527226047 0 7.6244067778690479 0 1 0 I I #
point $-1 -70.37537527226047 -35.702971486594869 7.6244067778690479 #
straight-curve $-1 62.073427533799247 -35.702971486594869 0 0 0 -1 I I #
straight-curve $-1 0 -35.702971486594869 11.034067243058574 1 0 0 I I #
point $-1 62.073427533799247 -35.702971486594869 11.034067243058574 #
point $-1 52.908043763377123 -27.707213625433663 3.3273069872864731 #
straight-curve $-1 36.029551759468205 35.702971486594869 68.234109398125739 0 0 -1 I I #
point $-1 36.029551759468205 35.702971486594869 11.034067243058574 #
straight-curve $-1 14.336796412062824 35.702971486594869 7.8479697352769513 -1 0 0 I I #
point $-1 36.029551759468205 35.702971486594869 7.8479697352769477 #
point $-1 25.521038994693129 32.598396233048398 8.0717322913945644 #
point $-1 31.826146653558169 32.598396233048398 8.0717322913945644 #
straight-curve $-1 -70.37537527226047 0 11.034067243058576 0 -1 0 I I #
straight-curve $-1 -70.37537527226047 -35.702971486594869 9.329237010463812 0 0 -1 I I #
point $-1 -70.37537527226047 -35.702971486594869 11.034067243058576 #
End-of-ACIS-data 