500 0 11 0           
7 Unknown 11 ACIS 5.0 NT 24 Fri Mar 26 00:31:37 1999 
-1 9.9999999999999995e-007 1e-010 
body $-1 $11 $-1 $12 #
body $-1 $13 $-1 $14 #
body $-1 $15 $-1 $16 #
body $-1 $17 $-1 $18 #
body $-1 $19 $-1 $20 #
body $-1 $21 $-1 $22 #
body $-1 $23 $-1 $24 #
body $-1 $25 $-1 $26 #
body $-1 $27 $-1 $28 #
body $-1 $29 $-1 $30 #
body $-1 $31 $-1 $32 #
lump $-1 $-1 $33 $0 #
transform $-1 1 0 0 0 1 0 0 0 1 43.468123416852322 26.413713558314409 11.612699244658392 1 rotate no_reflect no_shear #
lump $-1 $-1 $34 $1 #
transform $-1 1 0 0 0 1 0 0 0 1 43.468123416852322 26.413713558314409 11.612699244658392 1 rotate no_reflect no_shear #
lump $-1 $-1 $35 $2 #
transform $-1 1 0 0 0 1 0 0 0 1 43.468123416852322 26.413713558314409 11.612699244658392 1 rotate no_reflect no_shear #
lump $-1 $-1 $36 $3 #
transform $-1 1 0 0 0 1 0 0 0 1 43.468123416852322 26.413713558314409 11.612699244658392 1 rotate no_reflect no_shear #
lump $-1 $-1 $37 $4 #
transform $-1 1 0 0 0 1 0 0 0 1 43.468123416852322 26.413713558314409 11.612699244658392 1 rotate no_reflect no_shear #
lump $-1 $-1 $38 $5 #
transform $-1 1 0 0 0 1 0 0 0 1 43.468123416852322 26.413713558314409 11.612699244658392 1 rotate no_reflect no_shear #
lump $-1 $-1 $39 $6 #
transform $-1 1 0 0 0 1 0 0 0 1 43.468123416852322 26.413713558314409 11.612699244658392 1 rotate no_reflect no_shear #
lump $-1 $-1 $40 $7 #
transform $-1 1 0 0 0 1 0 0 0 1 43.468123416852322 26.413713558314409 11.612699244658392 1 rotate no_reflect no_shear #
lump $-1 $-1 $41 $8 #
transform $-1 1 0 0 0 1 0 0 0 1 43.468123416852322 26.413713558314409 11.612699244658392 1 rotate no_reflect no_shear #
lump $-1 $-1 $42 $9 #
transform $-1 1 0 0 0 1 0 0 0 1 43.468123416852322 26.413713558314409 11.612699244658392 1 rotate no_reflect no_shear #
lump $-1 $-1 $43 $10 #
transform $-1 1 0 0 0 1 0 0 0 1 43.468123416852322 26.413713558314409 11.612699244658392 1 rotate no_reflect no_shear #
shell $-1 $-1 $-1 $44 $-1 $11 #
shell $-1 $-1 $-1 $45 $-1 $13 #
shell $-1 $-1 $-1 $46 $-1 $15 #
shell $-1 $-1 $-1 $47 $-1 $17 #
shell $-1 $-1 $-1 $48 $-1 $19 #
shell $-1 $-1 $-1 $49 $-1 $21 #
shell $-1 $-1 $-1 $50 $-1 $23 #
shell $-1 $-1 $-1 $51 $-1 $25 #
shell $-1 $-1 $-1 $52 $-1 $27 #
shell $-1 $-1 $-1 $53 $-1 $29 #
shell $-1 $-1 $-1 $54 $-1 $31 #
face $-1 $55 $56 $33 $-1 $57 reversed single #
face $-1 $58 $59 $34 $-1 $60 forward single #
face $-1 $61 $62 $35 $-1 $63 forward single #
face $-1 $64 $65 $36 $-1 $66 reversed single #
face $-1 $67 $68 $37 $-1 $69 forward single #
face $-1 $70 $71 $38 $-1 $72 forward single #
face $-1 $73 $74 $39 $-1 $75 forward single #
face $-1 $76 $77 $40 $-1 $78 reversed single #
face $-1 $79 $80 $41 $-1 $81 forward single #
face $-1 $82 $83 $42 $-1 $84 forward single #
face $-1 $85 $86 $43 $-1 $87 forward single #
face $-1 $88 $89 $33 $-1 $90 forward single #
loop $-1 $-1 $91 $44 #
plane-surface $-1 43.468123416852322 0 0 -1 0 0 0 0 1 forward_v I I I I #
face $-1 $92 $93 $34 $-1 $94 forward single #
loop $-1 $-1 $95 $45 #
plane-surface $-1 -43.468123416852322 0 0 1 0 0 0 0 -1 forward_v I I I I #
face $-1 $96 $97 $35 $-1 $98 reversed single #
loop $-1 $-1 $99 $46 #
plane-surface $-1 43.468123416852322 0 0 -1 0 0 0 0 1 forward_v I I I I #
face $-1 $100 $101 $36 $-1 $102 reversed single #
loop $-1 $-1 $103 $47 #
plane-surface $-1 -12.481952727029421 -99.324585761246865 51.779154373692812 -1 0 0 0 -0.83867057594974714 0.54463902268945019 forward_v I I I I #
face $-1 $104 $105 $37 $-1 $106 forward single #
loop $-1 $107 $108 $48 #
cone-surface $-1 -22.816816357203454 -23.517019854045554 7.6548768686565607 0 0.83867057594974714 -0.54463902268945019 1 0 0 1 I I 0 1 1 forward I I I I #
face $-1 $109 $110 $38 $-1 $111 forward single #
loop $-1 $112 $113 $49 #
cone-surface $-1 -18.941242495888194 -23.517019854045554 7.6548768686565607 0 0.83867057594974714 -0.54463902268945019 1 0 0 1 I I 0 1 1 forward I I I I #
face $-1 $114 $115 $39 $-1 $116 forward single #
loop $-1 $117 $118 $50 #
cone-surface $-1 -15.065668634572933 -23.517019854045554 7.6548768686565607 0 0.83867057594974714 -0.54463902268945019 1 0 0 1 I I 0 1 1 forward I I I I #
face $-1 $119 $120 $40 $-1 $121 reversed single #
loop $-1 $-1 $122 $51 #
plane-surface $-1 25.400532264746957 -99.324585761246865 51.779154373692812 -1 0 0 0 -0.83867057594974714 0.54463902268945019 forward_v I I I I #
face $-1 $123 $124 $41 $-1 $125 forward single #
loop $-1 $126 $127 $52 #
cone-surface $-1 15.06566863457293 -23.517019854045554 7.6548768686565607 0 0.83867057594974714 -0.54463902268945019 1 0 0 1 I I 0 1 1 forward I I I I #
face $-1 $128 $129 $42 $-1 $130 forward single #
loop $-1 $131 $132 $53 #
cone-surface $-1 18.94124249588819 -23.517019854045554 7.6548768686565607 0 0.83867057594974714 -0.54463902268945019 1 0 0 1 I I 0 1 1 forward I I I I #
face $-1 $133 $134 $43 $-1 $135 forward single #
loop $-1 $136 $137 $54 #
cone-surface $-1 22.81681635720345 -23.517019854045554 7.6548768686565607 0 0.83867057594974714 -0.54463902268945019 1 0 0 1 I I 0 1 1 forward I I I I #
face $-1 $138 $139 $33 $-1 $140 reversed single #
loop $-1 $-1 $141 $55 #
plane-surface $-1 0 0 11.612699244658392 0 0 1 1 0 0 forward_v I I I I #
coedge $-1 $142 $143 $144 $145 reversed $56 $-1 #
face $-1 $146 $147 $34 $-1 $148 reversed single #
loop $-1 $-1 $149 $58 #
plane-surface $-1 0 0 11.612699244658392 0 0 1 1 0 0 forward_v I I I I #
coedge $-1 $150 $151 $152 $153 forward $59 $-1 #
face $-1 $154 $155 $35 $-1 $156 reversed single #
loop $-1 $-1 $157 $61 #
plane-surface $-1 0 -26.413713558314409 0 0 1 0 0 0 1 forward_v I I I I #
coedge $-1 $158 $159 $160 $161 forward $62 $-1 #
face $-1 $162 $163 $36 $-1 $164 reversed single #
loop $-1 $-1 $165 $64 #
plane-surface $-1 -18.94124249588819 -26.413713558314413 4.4302818618951036 0 -0.83867057594974714 0.54463902268945019 1 0 0 forward_v I I I I #
coedge $-1 $166 $167 $168 $169 reversed $65 $-1 #
face $-1 $-1 $170 $37 $-1 $171 forward single #
loop $-1 $172 $173 $67 #
cone-surface $-1 -22.816816357203454 -22.533148979705263 7.0159436726916429 0 0.83867057594974714 -0.54463902268945019 0.5 0 0 1 I I -0.70710678118654746 0.70710678118654746 0.5 forward I I I I #
loop $-1 $-1 $174 $48 #
coedge $-1 $108 $108 $175 $176 reversed $68 $-1 #
face $-1 $-1 $177 $38 $-1 $178 forward single #
loop $-1 $179 $180 $70 #
cone-surface $-1 -18.941242495888194 -22.533148979705263 7.0159436726916429 0 0.83867057594974714 -0.54463902268945019 0.5 0 0 1 I I -0.70710678118654746 0.70710678118654746 0.5 forward I I I I #
loop $-1 $-1 $181 $49 #
coedge $-1 $113 $113 $182 $183 reversed $71 $-1 #
face $-1 $-1 $184 $39 $-1 $185 forward single #
loop $-1 $186 $187 $73 #
cone-surface $-1 -15.065668634572933 -22.533148979705263 7.0159436726916429 0 0.83867057594974714 -0.54463902268945019 0.5 0 0 1 I I -0.70710678118654746 0.70710678118654746 0.5 forward I I I I #
loop $-1 $-1 $188 $50 #
coedge $-1 $118 $118 $189 $190 reversed $74 $-1 #
face $-1 $191 $192 $40 $-1 $193 reversed single #
loop $-1 $-1 $194 $76 #
plane-surface $-1 18.94124249588819 -26.413713558314413 4.4302818618951036 0 -0.83867057594974714 0.54463902268945019 1 0 0 forward_v I I I I #
coedge $-1 $195 $196 $197 $198 reversed $77 $-1 #
face $-1 $-1 $199 $41 $-1 $200 forward single #
loop $-1 $201 $202 $79 #
cone-surface $-1 15.06566863457293 -22.533148979705263 7.0159436726916429 0 0.83867057594974714 -0.54463902268945019 0.5 0 0 1 I I -0.70710678118654746 0.70710678118654746 0.5 forward I I I I #
loop $-1 $-1 $203 $52 #
coedge $-1 $127 $127 $204 $205 reversed $80 $-1 #
face $-1 $-1 $206 $42 $-1 $207 forward single #
loop $-1 $208 $209 $82 #
cone-surface $-1 18.94124249588819 -22.533148979705263 7.0159436726916429 0 0.83867057594974714 -0.54463902268945019 0.5 0 0 1 I I -0.70710678118654746 0.70710678118654746 0.5 forward I I I I #
loop $-1 $-1 $210 $53 #
coedge $-1 $132 $132 $211 $212 reversed $83 $-1 #
face $-1 $-1 $213 $43 $-1 $214 forward single #
loop $-1 $215 $216 $85 #
cone-surface $-1 22.81681635720345 -22.533148979705263 7.0159436726916429 0 0.83867057594974714 -0.54463902268945019 0.5 0 0 1 I I -0.70710678118654746 0.70710678118654746 0.5 forward I I I I #
loop $-1 $-1 $217 $54 #
coedge $-1 $137 $137 $218 $219 reversed $86 $-1 #
face $-1 $220 $221 $33 $-1 $222 reversed single #
loop $-1 $-1 $144 $88 #
plane-surface $-1 0 0 -11.612699244658392 0 0 1 1 0 0 forward_v I I I I #
coedge $-1 $223 $224 $225 $226 forward $89 $-1 #
coedge $-1 $225 $91 $227 $228 reversed $56 $-1 #
coedge $-1 $91 $225 $229 $230 forward $56 $-1 #
coedge $-1 $231 $232 $91 $145 forward $139 $-1 #
edge $-1 $233 -26.413713558314409 $234 26.413713558314409 $91 $235 forward 7 unknown #
face $-1 $236 $237 $34 $-1 $238 reversed single #
loop $-1 $-1 $239 $92 #
plane-surface $-1 -56.783661785773532 -24.913713558314409 0 1 0 0 0 0 -1 forward_v I I I I #
coedge $-1 $240 $241 $150 $242 forward $93 $-1 #
coedge $-1 $243 $95 $149 $242 reversed $59 $-1 #
coedge $-1 $95 $243 $244 $245 reversed $59 $-1 #
coedge $-1 $246 $247 $95 $153 reversed $237 $-1 #
edge $-1 $248 -11.612699244658392 $249 11.612699244658392 $152 $250 forward 7 unknown #
face $-1 $251 $252 $35 $-1 $253 reversed single #
loop $-1 $-1 $254 $96 #
plane-surface $-1 0 0 -11.612699244658392 0 0 1 1 0 0 forward_v I I I I #
coedge $-1 $255 $256 $257 $258 forward $97 $-1 #
coedge $-1 $257 $99 $254 $259 reversed $62 $-1 #
coedge $-1 $99 $257 $260 $261 reversed $62 $-1 #
coedge $-1 $262 $263 $99 $161 reversed $252 $-1 #
edge $-1 $264 -11.612699244658392 $265 11.612699244658392 $160 $266 forward 7 unknown #
face $-1 $267 $268 $36 $-1 $269 forward single #
loop $-1 $-1 $270 $100 #
plane-surface $-1 -25.400532264746957 -99.324585761246865 51.779154373692812 1 0 0 0 0.83867057594974714 -0.54463902268945019 forward_v I I I I #
coedge $-1 $271 $272 $273 $274 reversed $101 $-1 #
coedge $-1 $167 $103 $275 $276 reversed $65 $-1 #
coedge $-1 $103 $166 $271 $277 reversed $65 $-1 #
coedge $-1 $273 $278 $103 $169 forward $268 $-1 #
edge $-1 $279 23.248579322309023 $280 27.912895558115906 $168 $281 forward 7 unknown #
loop $-1 $-1 $175 $104 #
plane-surface $-1 -18.94124249588819 -26.413713558314413 4.4302818618951036 0 -0.83867057594974714 0.54463902268945019 1 0 0 forward_v I I I I #
loop $-1 $-1 $282 $67 #
coedge $-1 $173 $173 $174 $283 reversed $105 $-1 #
coedge $-1 $174 $174 $173 $283 forward $107 $-1 #
coedge $-1 $175 $175 $108 $176 forward $170 $-1 #
edge $-1 $284 -4.4516829232526574e-016 $284 6.2831853071795996 $175 $285 forward 7 unknown #
loop $-1 $-1 $182 $109 #
plane-surface $-1 -18.94124249588819 -26.413713558314413 4.4302818618951036 0 -0.83867057594974714 0.54463902268945019 1 0 0 forward_v I I I I #
loop $-1 $-1 $286 $70 #
coedge $-1 $180 $180 $181 $287 reversed $110 $-1 #
coedge $-1 $181 $181 $180 $287 forward $112 $-1 #
coedge $-1 $182 $182 $113 $183 forward $177 $-1 #
edge $-1 $288 -4.4516829232526574e-016 $288 6.2831853071795996 $182 $289 forward 7 unknown #
loop $-1 $-1 $189 $114 #
plane-surface $-1 -18.94124249588819 -26.413713558314413 4.4302818618951036 0 -0.83867057594974714 0.54463902268945019 1 0 0 forward_v I I I I #
loop $-1 $-1 $290 $73 #
coedge $-1 $187 $187 $188 $291 reversed $115 $-1 #
coedge $-1 $188 $188 $187 $291 forward $117 $-1 #
coedge $-1 $189 $189 $118 $190 forward $184 $-1 #
edge $-1 $292 -4.4516829232526574e-016 $292 6.2831853071795996 $189 $293 forward 7 unknown #
face $-1 $294 $295 $40 $-1 $296 reversed single #
loop $-1 $-1 $297 $119 #
plane-surface $-1 12.481952727029421 -99.324585761246865 51.779154373692812 1 0 0 0 0.83867057594974714 -0.54463902268945019 forward_v I I I I #
coedge $-1 $298 $299 $300 $301 reversed $120 $-1 #
coedge $-1 $196 $122 $302 $303 reversed $77 $-1 #
coedge $-1 $122 $195 $298 $304 reversed $77 $-1 #
coedge $-1 $300 $305 $122 $198 forward $306 $-1 #
edge $-1 $307 23.248579322309023 $308 27.912895558115906 $197 $309 forward 7 unknown #
loop $-1 $-1 $204 $123 #
plane-surface $-1 18.94124249588819 -26.413713558314413 4.4302818618951036 0 -0.83867057594974714 0.54463902268945019 1 0 0 forward_v I I I I #
loop $-1 $-1 $310 $79 #
coedge $-1 $202 $202 $203 $311 reversed $124 $-1 #
coedge $-1 $203 $203 $202 $311 forward $126 $-1 #
coedge $-1 $204 $204 $127 $205 forward $199 $-1 #
edge $-1 $312 -4.4516829232526574e-016 $312 6.2831853071795996 $204 $313 forward 7 unknown #
loop $-1 $-1 $211 $128 #
plane-surface $-1 18.94124249588819 -26.413713558314413 4.4302818618951036 0 -0.83867057594974714 0.54463902268945019 1 0 0 forward_v I I I I #
loop $-1 $-1 $314 $82 #
coedge $-1 $209 $209 $210 $315 reversed $129 $-1 #
coedge $-1 $210 $210 $209 $315 forward $131 $-1 #
coedge $-1 $211 $211 $132 $212 forward $206 $-1 #
edge $-1 $316 -4.4516829232526574e-016 $316 6.2831853071795996 $211 $317 forward 7 unknown #
loop $-1 $-1 $218 $133 #
plane-surface $-1 18.94124249588819 -26.413713558314413 4.4302818618951036 0 -0.83867057594974714 0.54463902268945019 1 0 0 forward_v I I I I #
loop $-1 $-1 $318 $85 #
coedge $-1 $216 $216 $217 $319 reversed $134 $-1 #
coedge $-1 $217 $217 $216 $319 forward $136 $-1 #
coedge $-1 $218 $218 $137 $219 forward $213 $-1 #
edge $-1 $320 -4.4516829232526574e-016 $320 6.2831853071795996 $218 $321 forward 7 unknown #
face $-1 $322 $323 $33 $-1 $324 reversed single #
loop $-1 $-1 $325 $138 #
plane-surface $-1 0 -26.413713558314409 0 0 1 0 0 0 1 forward_v I I I I #
coedge $-1 $326 $141 $327 $328 forward $89 $-1 #
coedge $-1 $141 $326 $329 $330 forward $89 $-1 #
coedge $-1 $143 $142 $141 $226 reversed $56 $-1 #
edge $-1 $331 -26.413713558314409 $332 26.413713558314409 $225 $333 forward 7 unknown #
coedge $-1 $334 $327 $142 $228 forward $335 $-1 #
edge $-1 $332 -11.612699244658392 $233 11.612699244658392 $142 $336 forward 7 unknown #
coedge $-1 $329 $337 $143 $230 reversed $221 $-1 #
edge $-1 $331 -11.612699244658392 $234 11.612699244658392 $143 $338 forward 7 unknown #
coedge $-1 $339 $144 $337 $340 forward $139 $-1 #
coedge $-1 $144 $339 $334 $341 forward $139 $-1 #
vertex $-1 $145 $342 #
vertex $-1 $230 $343 #
straight-curve $-1 43.468123416852322 0 -11.612699244658392 0 -1 0 I I #
face $-1 $344 $345 $34 $-1 $346 reversed single #
loop $-1 $-1 $152 $146 #
plane-surface $-1 -50.125892601312927 -23.413713558314409 0 0 -1 0 0 0 -1 forward_v I I I I #
coedge $-1 $347 $348 $349 $350 forward $147 $-1 #
coedge $-1 $351 $149 $247 $352 forward $93 $-1 #
coedge $-1 $149 $351 $353 $354 forward $93 $-1 #
edge $-1 $355 -26.413713558314409 $249 -23.413713558314409 $149 $356 forward 7 unknown #
coedge $-1 $151 $150 $357 $358 reversed $59 $-1 #
coedge $-1 $359 $360 $151 $245 forward $345 $-1 #
edge $-1 $248 23.413713558314409 $361 26.413713558314409 $244 $362 forward 7 unknown #
coedge $-1 $349 $152 $360 $363 reversed $237 $-1 #
coedge $-1 $152 $349 $240 $352 reversed $237 $-1 #
vertex $-1 $245 $364 #
vertex $-1 $352 $365 #
straight-curve $-1 -43.468123416852322 -23.413713558314409 0 0 0 1 I I #
face $-1 $366 $367 $35 $-1 $368 reversed single #
loop $-1 $-1 $369 $154 #
plane-surface $-1 50.125892601312927 -23.413713558314409 0 0 -1 0 0 0 -1 forward_v I I I I #
coedge $-1 $370 $371 $158 $259 forward $155 $-1 #
coedge $-1 $372 $157 $371 $373 reversed $97 $-1 #
coedge $-1 $157 $372 $374 $375 reversed $97 $-1 #
coedge $-1 $159 $158 $157 $258 reversed $62 $-1 #
edge $-1 $376 -11.612699244658392 $377 11.612699244658392 $157 $378 forward 7 unknown #
edge $-1 $377 -26.413713558314409 $265 -23.413713558314409 $254 $379 forward 7 unknown #
coedge $-1 $374 $380 $159 $261 forward $381 $-1 #
edge $-1 $264 23.413713558314409 $376 26.413713558314409 $260 $382 forward 7 unknown #
coedge $-1 $369 $160 $380 $383 reversed $252 $-1 #
coedge $-1 $160 $369 $370 $384 reversed $252 $-1 #
vertex $-1 $261 $385 #
vertex $-1 $384 $386 #
straight-curve $-1 43.468123416852322 -23.413713558314409 0 0 0 -1 I I #
face $-1 $-1 $387 $36 $-1 $388 reversed single #
loop $-1 $-1 $168 $162 #
plane-surface $-1 0 0 11.612699244658392 0 0 1 1 0 0 forward_v I I I I #
coedge $-1 $389 $390 $391 $392 reversed $163 $-1 #
coedge $-1 $393 $165 $167 $277 forward $101 $-1 #
coedge $-1 $165 $393 $389 $394 forward $101 $-1 #
coedge $-1 $391 $168 $165 $274 forward $268 $-1 #
edge $-1 $280 3.0113314790853263 $395 15.929911016802862 $273 $396 forward 7 unknown #
coedge $-1 $397 $398 $166 $276 forward $387 $-1 #
edge $-1 $399 -21.459295324951299 $279 -14.276877942188014 $275 $400 forward 7 unknown #
edge $-1 $280 -8.5640507592979596 $399 -6.4042811466935879e-015 $167 $401 forward 7 unknown #
coedge $-1 $168 $391 $397 $402 forward $268 $-1 #
vertex $-1 $169 $403 #
vertex $-1 $169 $404 #
straight-curve $-1 -12.481952727029421 -49.662292880623433 11.612699244658394 0 1 0 I I #
coedge $-1 $282 $282 $-1 $405 reversed $172 $-1 #
edge $-1 $406 0 $406 6.2831853071796004 $173 $407 forward 7 unknown #
vertex $-1 $176 $408 #
ellipse-curve $-1 -22.816816357203454 -24.081555440410966 8.0214905532767524 0 -0.83867057594974714 0.54463902268945019 1 0 0 1 I I #
coedge $-1 $286 $286 $-1 $409 reversed $179 $-1 #
edge $-1 $410 0 $410 6.2831853071796004 $180 $411 forward 7 unknown #
vertex $-1 $183 $412 #
ellipse-curve $-1 -18.941242495888194 -24.081555440410966 8.0214905532767524 0 -0.83867057594974714 0.54463902268945019 1 0 0 1 I I #
coedge $-1 $290 $290 $-1 $413 reversed $186 $-1 #
edge $-1 $414 0 $414 6.2831853071796004 $187 $415 forward 7 unknown #
vertex $-1 $190 $416 #
ellipse-curve $-1 -15.065668634572933 -24.081555440410966 8.0214905532767524 0 -0.83867057594974714 0.54463902268945019 1 0 0 1 I I #
face $-1 $-1 $306 $40 $-1 $417 forward single #
loop $-1 $-1 $418 $191 #
plane-surface $-1 0 -26.413713558314409 0 0 1 0 0 0 1 forward_v I I I I #
coedge $-1 $419 $420 $421 $422 reversed $192 $-1 #
coedge $-1 $423 $194 $196 $304 forward $120 $-1 #
coedge $-1 $194 $423 $419 $424 forward $120 $-1 #
coedge $-1 $421 $197 $194 $301 forward $306 $-1 #
edge $-1 $308 -15.929911016802862 $425 -3.0113314790853263 $300 $426 forward 7 unknown #
coedge $-1 $427 $428 $195 $303 forward $295 $-1 #
edge $-1 $429 -21.459295324951299 $307 -14.276877942188014 $302 $430 forward 7 unknown #
edge $-1 $308 -8.5640507592979596 $429 -6.4042811466935879e-015 $196 $431 forward 7 unknown #
coedge $-1 $197 $421 $427 $432 forward $306 $-1 #
loop $-1 $-1 $421 $294 #
vertex $-1 $303 $433 #
vertex $-1 $198 $434 #
straight-curve $-1 25.400532264746957 -49.662292880623433 11.612699244658394 0 1 0 I I #
coedge $-1 $310 $310 $-1 $435 reversed $201 $-1 #
edge $-1 $436 0 $436 6.2831853071796004 $202 $437 forward 7 unknown #
vertex $-1 $205 $438 #
ellipse-curve $-1 15.06566863457293 -24.081555440410966 8.0214905532767524 0 -0.83867057594974714 0.54463902268945019 1 0 0 1 I I #
coedge $-1 $314 $314 $-1 $439 reversed $208 $-1 #
edge $-1 $440 0 $440 6.2831853071796004 $209 $441 forward 7 unknown #
vertex $-1 $212 $442 #
ellipse-curve $-1 18.94124249588819 -24.081555440410966 8.0214905532767524 0 -0.83867057594974714 0.54463902268945019 1 0 0 1 I I #
coedge $-1 $318 $318 $-1 $443 reversed $215 $-1 #
edge $-1 $444 0 $444 6.2831853071796004 $216 $445 forward 7 unknown #
vertex $-1 $219 $446 #
ellipse-curve $-1 22.81681635720345 -24.081555440410966 8.0214905532767524 0 -0.83867057594974714 0.54463902268945019 1 0 0 1 I I #
face $-1 $-1 $335 $33 $-1 $447 reversed single #
loop $-1 $-1 $448 $220 #
plane-surface $-1 -43.468123416852322 0 0 1 0 0 0 0 -1 forward_v I I I I #
coedge $-1 $337 $329 $449 $450 forward $221 $-1 #
coedge $-1 $224 $223 $448 $451 forward $89 $-1 #
coedge $-1 $227 $452 $223 $328 reversed $335 $-1 #
edge $-1 $332 -43.468123416852322 $453 43.468123416852322 $327 $454 forward 7 unknown #
coedge $-1 $325 $229 $224 $330 reversed $221 $-1 #
edge $-1 $455 -43.468123416852322 $331 43.468123416852322 $329 $456 forward 7 unknown #
vertex $-1 $226 $457 #
vertex $-1 $226 $458 #
straight-curve $-1 43.468123416852322 0 11.612699244658392 0 1 0 I I #
coedge $-1 $452 $227 $232 $341 reversed $335 $-1 #
loop $-1 $-1 $227 $322 #
straight-curve $-1 43.468123416852322 26.413713558314409 0 0 0 -1 I I #
coedge $-1 $229 $325 $231 $340 reversed $221 $-1 #
straight-curve $-1 43.468123416852322 -26.413713558314409 0 0 0 -1 I I #
coedge $-1 $232 $231 $459 $460 forward $139 $-1 #
edge $-1 $234 -43.468123416852322 $461 43.468123416852322 $337 $462 forward 7 unknown #
edge $-1 $463 -43.468123416852322 $233 43.468123416852322 $334 $464 forward 7 unknown #
point $-1 43.468123416852322 26.413713558314409 -11.612699244658392 #
point $-1 43.468123416852322 -26.413713558314409 -11.612699244658392 #
face $-1 $-1 $465 $34 $-1 $466 reversed single #
loop $-1 $-1 $244 $236 #
plane-surface $-1 0 0 -11.612699244658392 0 0 1 1 0 0 forward_v I I I I #
coedge $-1 $467 $239 $468 $469 reversed $147 $-1 #
coedge $-1 $239 $467 $351 $470 reversed $147 $-1 #
coedge $-1 $247 $246 $239 $350 reversed $237 $-1 #
edge $-1 $471 -11.612699244658392 $472 11.612699244658392 $349 $473 forward 7 unknown #
coedge $-1 $241 $240 $348 $470 forward $93 $-1 #
edge $-1 $249 -6.6577691844606051 $471 6.6577691844606051 $247 $474 forward 7 unknown #
coedge $-1 $475 $357 $241 $354 reversed $465 $-1 #
edge $-1 $476 -56.783661785773532 $355 -43.468123416852322 $353 $477 forward 7 unknown #
vertex $-1 $358 $478 #
straight-curve $-1 -43.468123416852322 0 11.612699244658392 0 1 0 I I #
coedge $-1 $353 $479 $243 $358 forward $465 $-1 #
edge $-1 $361 -11.612699244658392 $355 11.612699244658392 $357 $480 forward 7 unknown #
coedge $-1 $468 $244 $479 $481 forward $345 $-1 #
coedge $-1 $244 $468 $246 $363 forward $345 $-1 #
vertex $-1 $481 $482 #
straight-curve $-1 -43.468123416852322 0 -11.612699244658392 0 -1 0 I I #
edge $-1 $472 -6.6577691844606051 $248 6.6577691844606051 $246 $483 forward 7 unknown #
point $-1 -43.468123416852322 -23.413713558314409 -11.612699244658392 #
point $-1 -43.468123416852322 -23.413713558314409 11.612699244658392 #
face $-1 $-1 $381 $35 $-1 $484 forward single #
loop $-1 $-1 $485 $251 #
plane-surface $-1 56.783661785773532 -24.913713558314409 0 -1 0 0 0 0 1 forward_v I I I I #
coedge $-1 $263 $262 $486 $487 forward $252 $-1 #
coedge $-1 $488 $254 $263 $384 forward $155 $-1 #
coedge $-1 $254 $488 $255 $373 forward $155 $-1 #
coedge $-1 $256 $255 $485 $489 reversed $97 $-1 #
edge $-1 $490 -6.6577691844606051 $377 6.6577691844606051 $255 $491 forward 7 unknown #
coedge $-1 $492 $260 $256 $375 forward $381 $-1 #
edge $-1 $376 -6.6577691844606051 $493 6.6577691844606051 $256 $494 forward 7 unknown #
vertex $-1 $375 $495 #
vertex $-1 $259 $496 #
straight-curve $-1 43.468123416852322 -26.413713558314409 0 0 0 -1 I I #
straight-curve $-1 43.468123416852322 0 -11.612699244658392 0 1 0 I I #
coedge $-1 $260 $492 $262 $383 forward $381 $-1 #
loop $-1 $-1 $260 $366 #
straight-curve $-1 43.468123416852322 0 11.612699244658392 0 -1 0 I I #
edge $-1 $497 -6.6577691844606051 $264 6.6577691844606051 $262 $498 forward 7 unknown #
edge $-1 $265 -6.6577691844606051 $499 6.6577691844606051 $263 $500 forward 7 unknown #
point $-1 43.468123416852322 -23.413713558314409 11.612699244658392 #
point $-1 43.468123416852322 -23.413713558314409 -11.612699244658392 #
loop $-1 $-1 $275 $267 #
plane-surface $-1 0 -26.413713558314409 0 0 1 0 0 0 1 forward_v I I I I #
coedge $-1 $390 $270 $272 $394 reversed $163 $-1 #
coedge $-1 $270 $389 $501 $502 reversed $163 $-1 #
coedge $-1 $278 $273 $270 $392 forward $268 $-1 #
edge $-1 $395 -27.912895558115906 $503 -23.248579322309023 $391 $504 forward 7 unknown #
coedge $-1 $272 $271 $398 $505 reversed $101 $-1 #
edge $-1 $506 6.4042811466935879e-015 $395 8.5640507592979596 $389 $507 forward 7 unknown #
vertex $-1 $274 $508 #
straight-curve $-1 -9.470621247944095 -21.74939732250753 11.612699244658392 -1 0 0 I I #
coedge $-1 $501 $275 $278 $402 reversed $387 $-1 #
coedge $-1 $275 $501 $393 $505 forward $387 $-1 #
vertex $-1 $276 $509 #
straight-curve $-1 -12.481952727029421 -26.413713558314406 25.889577186846406 0 0 1 I I #
straight-curve $-1 -12.481952727029421 -26.413713558314413 4.4302818618951036 0 -0.54463902268945019 -0.83867057594974714 I I #
edge $-1 $503 -75.526424866059884 $279 -62.60784532834235 $397 $510 forward 7 unknown #
point $-1 -12.481952727029423 -26.413713558314409 11.612699244658392 #
point $-1 -12.481952727029421 -21.749397322507527 11.612699244658392 #
edge $-1 $511 1 $511 0 $282 $-1 forward 7 unknown #
vertex $-1 $283 $512 #
ellipse-curve $-1 -22.816816357203454 -22.952484267680138 7.2882631840363681 0 -0.83867057594974714 0.54463902268945019 1 0 0 1 I I #
point $-1 -21.816816357203454 -24.08155544041097 8.0214905532767542 #
edge $-1 $513 1 $513 0 $286 $-1 forward 7 unknown #
vertex $-1 $287 $514 #
ellipse-curve $-1 -18.941242495888194 -22.952484267680138 7.2882631840363681 0 -0.83867057594974714 0.54463902268945019 1 0 0 1 I I #
point $-1 -17.941242495888194 -24.08155544041097 8.0214905532767542 #
edge $-1 $515 1 $515 0 $290 $-1 forward 7 unknown #
vertex $-1 $291 $516 #
ellipse-curve $-1 -15.065668634572933 -22.952484267680138 7.2882631840363681 0 -0.83867057594974714 0.54463902268945019 1 0 0 1 I I #
point $-1 -14.065668634572933 -24.08155544041097 8.0214905532767542 #
plane-surface $-1 0 0 11.612699244658392 0 0 1 1 0 0 forward_v I I I I #
coedge $-1 $428 $427 $420 $517 forward $295 $-1 #
coedge $-1 $420 $297 $299 $424 reversed $192 $-1 #
coedge $-1 $297 $419 $418 $517 reversed $192 $-1 #
coedge $-1 $305 $300 $297 $422 forward $306 $-1 #
edge $-1 $425 -27.912895558115906 $518 -23.248579322309023 $421 $519 forward 7 unknown #
coedge $-1 $299 $298 $428 $520 reversed $120 $-1 #
edge $-1 $521 6.4042811466935879e-015 $425 8.5640507592979596 $419 $522 forward 7 unknown #
vertex $-1 $301 $523 #
straight-curve $-1 9.470621247944095 -21.74939732250753 11.612699244658392 -1 0 0 I I #
coedge $-1 $418 $302 $305 $432 reversed $295 $-1 #
coedge $-1 $302 $418 $423 $520 forward $295 $-1 #
vertex $-1 $303 $524 #
straight-curve $-1 25.400532264746957 -26.413713558314406 25.889577186846406 0 0 1 I I #
straight-curve $-1 25.400532264746957 -26.413713558314413 4.4302818618951036 0 -0.54463902268945019 -0.83867057594974714 I I #
edge $-1 $518 -37.643939874283504 $307 -24.72536033656597 $427 $525 forward 7 unknown #
point $-1 25.400532264746957 -26.413713558314409 11.612699244658392 #
point $-1 25.400532264746957 -21.749397322507527 11.612699244658392 #
edge $-1 $526 1 $526 0 $310 $-1 forward 7 unknown #
vertex $-1 $311 $527 #
ellipse-curve $-1 15.06566863457293 -22.952484267680138 7.2882631840363681 0 -0.83867057594974714 0.54463902268945019 1 0 0 1 I I #
point $-1 16.06566863457293 -24.08155544041097 8.0214905532767542 #
edge $-1 $528 1 $528 0 $314 $-1 forward 7 unknown #
vertex $-1 $315 $529 #
ellipse-curve $-1 18.94124249588819 -22.952484267680138 7.2882631840363681 0 -0.83867057594974714 0.54463902268945019 1 0 0 1 I I #
point $-1 19.94124249588819 -24.08155544041097 8.0214905532767542 #
edge $-1 $530 1 $530 0 $318 $-1 forward 7 unknown #
vertex $-1 $319 $531 #
ellipse-curve $-1 22.81681635720345 -22.952484267680138 7.2882631840363681 0 -0.83867057594974714 0.54463902268945019 1 0 0 1 I I #
point $-1 23.81681635720345 -24.08155544041097 8.0214905532767542 #
plane-surface $-1 0 26.413713558314409 0 0 -1 0 0 0 -1 forward_v I I I I #
coedge $-1 $532 $449 $326 $451 reversed $323 $-1 #
coedge $-1 $448 $459 $325 $450 reversed $323 $-1 #
edge $-1 $455 -11.612699244658392 $461 11.612699244658392 $449 $533 forward 7 unknown #
edge $-1 $453 -26.413713558314409 $455 26.413713558314409 $448 $534 forward 7 unknown #
coedge $-1 $327 $334 $532 $535 reversed $335 $-1 #
vertex $-1 $328 $536 #
straight-curve $-1 0 26.413713558314409 11.612699244658392 -1 0 0 I I #
vertex $-1 $451 $537 #
straight-curve $-1 0 -26.413713558314409 11.612699244658392 1 0 0 I I #
point $-1 43.468123416852322 -26.413713558314409 11.612699244658392 #
point $-1 43.468123416852322 26.413713558314409 11.612699244658392 #
coedge $-1 $449 $532 $339 $460 reversed $323 $-1 #
edge $-1 $461 -26.413713558314409 $463 26.413713558314409 $459 $538 forward 7 unknown #
vertex $-1 $460 $539 #
straight-curve $-1 0 -26.413713558314409 -11.612699244658392 -1 0 0 I I #
vertex $-1 $341 $540 #
straight-curve $-1 0 26.413713558314409 -11.612699244658392 1 0 0 I I #
loop $-1 $-1 $357 $344 #
plane-surface $-1 0 -26.413713558314409 0 0 1 0 0 0 1 forward_v I I I I #
coedge $-1 $348 $347 $475 $541 reversed $147 $-1 #
coedge $-1 $360 $359 $347 $469 forward $345 $-1 #
edge $-1 $542 -1.5 $472 1.5 $347 $543 forward 7 unknown #
edge $-1 $471 -1.5 $476 1.5 $348 $544 forward 7 unknown #
vertex $-1 $352 $545 #
vertex $-1 $363 $546 #
straight-curve $-1 -56.783661785773532 -23.413713558314409 0 0 0 -1 I I #
straight-curve $-1 -50.125892601312927 -23.413713558314409 11.612699244658392 -1 0 0 I I #
coedge $-1 $479 $353 $467 $541 forward $465 $-1 #
vertex $-1 $470 $547 #
straight-curve $-1 0 -26.413713558314409 11.612699244658392 1 0 0 I I #
point $-1 -43.468123416852322 -26.413713558314409 11.612699244658392 #
coedge $-1 $357 $475 $359 $481 reversed $465 $-1 #
straight-curve $-1 -43.468123416852322 -26.413713558314409 0 0 0 1 I I #
edge $-1 $361 -6.6577691844606051 $542 6.6577691844606051 $479 $548 forward 7 unknown #
point $-1 -43.468123416852322 -26.413713558314409 -11.612699244658392 #
straight-curve $-1 -50.125892601312927 -23.413713558314409 -11.612699244658392 1 0 0 I I #
plane-surface $-1 0 0 11.612699244658392 0 0 1 1 0 0 forward_v I I I I #
coedge $-1 $549 $550 $372 $489 forward $367 $-1 #
coedge $-1 $550 $549 $369 $487 reversed $367 $-1 #
edge $-1 $497 -11.612699244658392 $499 11.612699244658392 $486 $551 forward 7 unknown #
coedge $-1 $371 $370 $549 $552 forward $155 $-1 #
edge $-1 $493 -11.612699244658392 $490 11.612699244658392 $485 $553 forward 7 unknown #
vertex $-1 $489 $554 #
straight-curve $-1 50.125892601312927 -26.413713558314409 -11.612699244658392 -1 0 0 I I #
coedge $-1 $380 $374 $550 $555 forward $381 $-1 #
vertex $-1 $555 $556 #
straight-curve $-1 50.125892601312927 -26.413713558314409 11.612699244658392 1 0 0 I I #
point $-1 43.468123416852322 -26.413713558314409 11.612699244658392 #
point $-1 43.468123416852322 -26.413713558314409 -11.612699244658392 #
vertex $-1 $555 $557 #
straight-curve $-1 50.125892601312927 -23.413713558314409 11.612699244658392 -1 0 0 I I #
vertex $-1 $552 $558 #
straight-curve $-1 50.125892601312927 -23.413713558314409 -11.612699244658392 1 0 0 I I #
coedge $-1 $398 $397 $390 $502 forward $387 $-1 #
edge $-1 $503 14.276877942188014 $506 21.459295324951299 $501 $559 forward 7 unknown #
vertex $-1 $402 $560 #
straight-curve $-1 -25.400532264746957 -49.662292880623433 11.612699244658394 0 -1 0 I I #
edge $-1 $506 -15.929911016802862 $399 -3.0113314790853263 $398 $561 forward 7 unknown #
vertex $-1 $505 $562 #
straight-curve $-1 -25.400532264746957 -26.413713558314413 4.4302818618951036 0 0.54463902268945019 0.83867057594974714 I I #
point $-1 -25.400532264746957 -21.749397322507527 11.612699244658392 #
point $-1 -12.481952727029421 -26.413713558314409 4.430281861895109 #
straight-curve $-1 50.125892601312927 -26.413713558314409 11.612699244658392 1 0 0 I I #
vertex $-1 $405 $563 #
point $-1 -21.816816357203454 -22.952484267680138 7.2882631840363681 #
vertex $-1 $409 $564 #
point $-1 -17.941242495888194 -22.952484267680138 7.2882631840363681 #
vertex $-1 $413 $565 #
point $-1 -14.065668634572933 -22.952484267680138 7.2882631840363681 #
edge $-1 $518 14.276877942188014 $521 21.459295324951299 $418 $566 forward 7 unknown #
vertex $-1 $432 $567 #
straight-curve $-1 12.481952727029421 -49.662292880623433 11.612699244658394 0 -1 0 I I #
edge $-1 $521 3.0113314790853263 $429 15.929911016802862 $428 $568 forward 7 unknown #
vertex $-1 $520 $569 #
straight-curve $-1 12.481952727029421 -26.413713558314413 4.4302818618951036 0 0.54463902268945019 0.83867057594974714 I I #
point $-1 12.481952727029421 -21.749397322507527 11.612699244658392 #
point $-1 25.400532264746957 -26.413713558314409 4.430281861895109 #
straight-curve $-1 50.125892601312927 -26.413713558314409 11.612699244658392 1 0 0 I I #
vertex $-1 $435 $570 #
point $-1 16.06566863457293 -22.952484267680138 7.2882631840363681 #
vertex $-1 $439 $571 #
point $-1 19.94124249588819 -22.952484267680138 7.2882631840363681 #
vertex $-1 $443 $572 #
point $-1 23.81681635720345 -22.952484267680138 7.2882631840363681 #
coedge $-1 $459 $448 $452 $535 forward $323 $-1 #
straight-curve $-1 -43.468123416852322 -26.413713558314409 0 0 0 -1 I I #
straight-curve $-1 -43.468123416852322 0 11.612699244658392 0 -1 0 I I #
edge $-1 $453 -11.612699244658392 $463 11.612699244658392 $452 $573 forward 7 unknown #
point $-1 -43.468123416852322 26.413713558314409 11.612699244658392 #
point $-1 -43.468123416852322 -26.413713558314409 11.612699244658392 #
straight-curve $-1 -43.468123416852322 0 -11.612699244658392 0 1 0 I I #
point $-1 -43.468123416852322 -26.413713558314409 -11.612699244658392 #
point $-1 -43.468123416852322 26.413713558314409 -11.612699244658392 #
edge $-1 $476 -11.612699244658392 $542 11.612699244658392 $467 $574 forward 7 unknown #
vertex $-1 $469 $575 #
straight-curve $-1 -56.783661785773532 -24.913713558314409 -11.612699244658392 0 1 0 I I #
straight-curve $-1 -56.783661785773532 -24.913713558314409 11.612699244658392 0 -1 0 I I #
point $-1 -56.783661785773532 -23.413713558314409 11.612699244658392 #
point $-1 -56.783661785773532 -23.413713558314409 -11.612699244658392 #
point $-1 -56.783661785773532 -26.413713558314409 11.612699244658392 #
straight-curve $-1 -50.125892601312927 -26.413713558314409 -11.612699244658392 -1 0 0 I I #
coedge $-1 $486 $485 $488 $552 reversed $367 $-1 #
coedge $-1 $485 $486 $492 $555 reversed $367 $-1 #
straight-curve $-1 56.783661785773532 -23.413713558314409 0 0 0 -1 I I #
edge $-1 $499 -1.5 $490 1.5 $549 $576 forward 7 unknown #
straight-curve $-1 56.783661785773532 -26.413713558314409 0 0 0 -1 I I #
point $-1 56.783661785773532 -26.413713558314409 -11.612699244658392 #
edge $-1 $493 -1.5 $497 1.5 $550 $577 forward 7 unknown #
point $-1 56.783661785773532 -26.413713558314409 11.612699244658392 #
point $-1 56.783661785773532 -23.413713558314409 11.612699244658392 #
point $-1 56.783661785773532 -23.413713558314409 -11.612699244658392 #
straight-curve $-1 -25.400532264746957 -26.413713558314406 25.889577186846406 0 0 -1 I I #
point $-1 -25.400532264746957 -26.413713558314409 11.612699244658392 #
straight-curve $-1 -9.470621247944095 -26.413713558314409 4.4302818618951116 1 0 0 I I #
point $-1 -25.400532264746957 -26.413713558314409 4.430281861895109 #
point $-1 -22.816816357203454 -22.113813691730389 6.7436241613469177 #
point $-1 -18.941242495888194 -22.113813691730389 6.7436241613469177 #
point $-1 -15.065668634572933 -22.113813691730389 6.7436241613469177 #
straight-curve $-1 12.481952727029421 -26.413713558314406 25.889577186846406 0 0 -1 I I #
point $-1 12.481952727029423 -26.413713558314409 11.612699244658392 #
straight-curve $-1 9.470621247944095 -26.413713558314409 4.4302818618951116 1 0 0 I I #
point $-1 12.481952727029421 -26.413713558314409 4.430281861895109 #
point $-1 15.06566863457293 -22.113813691730389 6.7436241613469177 #
point $-1 18.94124249588819 -22.113813691730389 6.7436241613469177 #
point $-1 22.81681635720345 -22.113813691730389 6.7436241613469177 #
straight-curve $-1 -43.468123416852322 26.413713558314409 0 0 0 -1 I I #
straight-curve $-1 -56.783661785773532 -26.413713558314409 0 0 0 -1 I I #
point $-1 -56.783661785773532 -26.413713558314409 -11.612699244658392 #
straight-curve $-1 56.783661785773532 -24.913713558314409 -11.612699244658392 0 -1 0 I I #
straight-curve $-1 56.783661785773532 -24.913713558314409 11.612699244658392 0 1 0 I I #
End-of-ACIS-data 