500 0 10 0           
7 Unknown 11 ACIS 5.0 NT 24 Thu Mar 25 19:28:35 1999 
-1 9.9999999999999995e-007 1e-010 
body $-1 $10 $-1 $11 #
body $-1 $12 $-1 $13 #
body $-1 $14 $-1 $15 #
body $-1 $16 $-1 $17 #
body $-1 $18 $-1 $19 #
body $-1 $20 $-1 $21 #
body $-1 $22 $-1 $23 #
body $-1 $24 $-1 $25 #
body $-1 $26 $-1 $27 #
body $-1 $28 $-1 $29 #
lump $-1 $-1 $30 $0 #
transform $-1 1 0 0 0 1 0 0 0 1 55.957518234809413 33.574169392875547 13.288985562941354 1 rotate no_reflect no_shear #
lump $-1 $-1 $31 $1 #
transform $-1 1 0 0 0 1 0 0 0 1 55.957518234809413 33.574169392875547 13.288985562941354 1 rotate no_reflect no_shear #
lump $-1 $-1 $32 $2 #
transform $-1 1 0 0 0 1 0 0 0 1 55.957518234809413 33.574169392875547 13.288985562941354 1 rotate no_reflect no_shear #
lump $-1 $-1 $33 $3 #
transform $-1 1 0 0 0 1 0 0 0 1 55.957518234809413 33.574169392875547 13.288985562941354 1 rotate no_reflect no_shear #
lump $-1 $-1 $34 $4 #
transform $-1 1 0 0 0 1 0 0 0 1 55.957518234809413 33.574169392875547 13.288985562941354 1 rotate no_reflect no_shear #
lump $-1 $-1 $35 $5 #
transform $-1 1 0 0 0 1 0 0 0 1 55.957518234809413 33.574169392875547 13.288985562941354 1 rotate no_reflect no_shear #
lump $-1 $-1 $36 $6 #
transform $-1 1 0 0 0 1 0 0 0 1 55.957518234809413 33.574169392875547 13.288985562941354 1 rotate no_reflect no_shear #
lump $-1 $-1 $37 $7 #
transform $-1 1 0 0 0 1 0 0 0 1 55.957518234809413 33.574169392875547 13.288985562941354 1 rotate no_reflect no_shear #
lump $-1 $-1 $38 $8 #
transform $-1 1 0 0 0 1 0 0 0 1 55.957518234809413 33.574169392875547 13.288985562941354 1 rotate no_reflect no_shear #
lump $-1 $-1 $39 $9 #
transform $-1 1 0 0 0 1 0 0 0 1 55.957518234809413 33.574169392875547 13.288985562941354 1 rotate no_reflect no_shear #
shell $-1 $-1 $-1 $40 $-1 $10 #
shell $-1 $-1 $-1 $41 $-1 $12 #
shell $-1 $-1 $-1 $42 $-1 $14 #
shell $-1 $-1 $-1 $43 $-1 $16 #
shell $-1 $-1 $-1 $44 $-1 $18 #
shell $-1 $-1 $-1 $45 $-1 $20 #
shell $-1 $-1 $-1 $46 $-1 $22 #
shell $-1 $-1 $-1 $47 $-1 $24 #
shell $-1 $-1 $-1 $48 $-1 $26 #
shell $-1 $-1 $-1 $49 $-1 $28 #
face $-1 $50 $51 $30 $-1 $52 forward single #
face $-1 $53 $54 $31 $-1 $55 forward single #
face $-1 $56 $57 $32 $-1 $58 reversed single #
face $-1 $59 $60 $33 $-1 $61 reversed single #
face $-1 $62 $63 $34 $-1 $64 forward single #
face $-1 $65 $66 $35 $-1 $67 forward single #
face $-1 $68 $69 $36 $-1 $70 reversed single #
face $-1 $71 $72 $37 $-1 $73 forward single #
face $-1 $74 $75 $38 $-1 $76 forward single #
face $-1 $77 $78 $39 $-1 $79 forward single #
face $-1 $80 $81 $30 $-1 $82 reversed single #
loop $-1 $-1 $83 $40 #
plane-surface $-1 0 0 13.288985562941354 0 0 1 1 0 0 forward_v I I I I #
face $-1 $84 $85 $31 $-1 $86 reversed single #
loop $-1 $-1 $87 $41 #
plane-surface $-1 0 -28.276853758333537 12.788985562941351 0 0 1 1 0 0 forward_v I I I I #
face $-1 $88 $89 $32 $-1 $90 forward single #
loop $-1 $-1 $91 $42 #
plane-surface $-1 0 22.979538123791528 10.908444251353389 0 1 0 0 0 1 forward_v I I I I #
face $-1 $92 $93 $33 $-1 $94 reversed single #
loop $-1 $-1 $95 $43 #
plane-surface $-1 64.240824222826348 13.791912183370517 161.96264240141196 0 1 0 0.74314483375859142 0 0.66913059716165679 forward_v I I I I #
face $-1 $96 $97 $34 $-1 $98 forward single #
loop $-1 $99 $100 $44 #
cone-surface $-1 50.248440049839431 16.41694816634795 7.2607066043116371 -0.74314483375859142 0 -0.66913059716165679 0.66913059716165679 0 -0.74314483375859142 1 I I 0 1 1 forward I I I I #
face $-1 $101 $102 $35 $-1 $103 forward single #
loop $-1 $104 $105 $45 #
cone-surface $-1 50.248440049839431 20.354502140814098 7.2607066043116371 -0.74314483375859142 0 -0.66913059716165679 0.66913059716165679 0 -0.74314483375859142 1 I I 0 1 1 forward I I I I #
face $-1 $106 $107 $36 $-1 $108 reversed single #
loop $-1 $-1 $109 $46 #
plane-surface $-1 -130.84329534904117 3.6256056743977112 85.53981343524714 0 -1 0 0.66913061440640931 0 -0.74314481823134659 forward_v I I I I #
face $-1 $110 $111 $37 $-1 $112 forward single #
loop $-1 $113 $114 $47 #
cone-surface $-1 -49.555114375051893 -4.5759229909247949 7.4528839407976433 0.66913061440640931 0 -0.74314481823134659 0.3715724091156733 0 0.33456530720320465 1 I I 0 1 0.5 forward I I I I #
face $-1 $115 $116 $38 $-1 $117 forward single #
loop $-1 $118 $119 $48 #
cone-surface $-1 -49.555114375051893 -1.500349741428856 7.4528839407976433 0.66913061440640931 0 -0.74314481823134659 0.3715724091156733 0 0.33456530720320465 1 I I 0 1 0.5 forward I I I I #
face $-1 $120 $121 $39 $-1 $122 forward single #
loop $-1 $123 $124 $49 #
cone-surface $-1 -49.555114375051893 1.5752235080670829 7.4528839407976433 0.66913061440640931 0 -0.74314481823134659 0.3715724091156733 0 0.33456530720320465 1 I I 0 1 0.5 forward I I I I #
face $-1 $125 $126 $30 $-1 $127 reversed single #
loop $-1 $-1 $128 $50 #
plane-surface $-1 0 0 -13.288985562941354 0 0 1 1 0 0 forward_v I I I I #
coedge $-1 $129 $130 $131 $132 forward $51 $-1 #
face $-1 $133 $134 $31 $-1 $135 reversed single #
loop $-1 $-1 $136 $53 #
plane-surface $-1 0 -28.276853758333537 9.0279029397654273 0 0 1 1 0 0 forward_v I I I I #
coedge $-1 $137 $138 $139 $140 reversed $54 $-1 #
face $-1 $141 $142 $32 $-1 $143 reversed single #
loop $-1 $-1 $144 $56 #
plane-surface $-1 0 28.276853758333537 12.788985562941351 0 0 1 1 0 0 forward_v I I I I #
coedge $-1 $145 $146 $147 $148 reversed $57 $-1 #
face $-1 $149 $150 $33 $-1 $151 forward single #
loop $-1 $-1 $152 $59 #
plane-surface $-1 -18.928256949475227 18.385725153581021 87.076867217127315 0.74314483375859142 0 0.66913059716165679 0.66913059716165679 0 -0.74314483375859142 forward_v I I I I #
coedge $-1 $153 $154 $155 $156 reversed $60 $-1 #
face $-1 $-1 $157 $34 $-1 $158 forward single #
loop $-1 $159 $160 $62 #
cone-surface $-1 48.39122433611351 16.41694816634795 5.5884621061588948 -0.74314483375859142 0 -0.66913059716165679 0.3345652985808284 0 -0.37157241687929571 1 I I -0.70710678118654746 0.70710678118654746 0.5 forward I I I I #
loop $-1 $-1 $161 $44 #
coedge $-1 $100 $100 $162 $163 reversed $63 $-1 #
face $-1 $-1 $164 $35 $-1 $165 forward single #
loop $-1 $166 $167 $65 #
cone-surface $-1 48.39122433611351 20.354502140814098 5.5884621061588948 -0.74314483375859142 0 -0.66913059716165679 0.3345652985808284 0 -0.37157241687929571 1 I I -0.70710678118654746 0.70710678118654746 0.5 forward I I I I #
loop $-1 $-1 $168 $45 #
coedge $-1 $105 $105 $169 $170 reversed $66 $-1 #
face $-1 $171 $172 $36 $-1 $173 reversed single #
loop $-1 $-1 $174 $68 #
plane-surface $-1 -55.957518234809427 -1.500349741428856 2.3707340006777287 -0.66913061440640931 0 0.74314481823134659 0.74314481823134659 0 0.66913061440640931 forward_v I I I I #
coedge $-1 $175 $176 $177 $178 reversed $69 $-1 #
face $-1 $-1 $179 $37 $-1 $180 forward single #
loop $-1 $181 $182 $71 #
cone-surface $-1 -49.048401142208682 -4.5759229909247949 6.8901218952279084 0.66913061440640931 0 -0.74314481823134659 0.18578620455783665 0 0.16728265360160233 1 I I -0.70710678118654746 0.70710678118654746 0.25 forward I I I I #
loop $-1 $-1 $183 $47 #
coedge $-1 $114 $114 $184 $185 reversed $72 $-1 #
face $-1 $-1 $186 $38 $-1 $187 forward single #
loop $-1 $188 $189 $74 #
cone-surface $-1 -49.048401142208682 -1.500349741428856 6.8901218952279084 0.66913061440640931 0 -0.74314481823134659 0.18578620455783665 0 0.16728265360160233 1 I I -0.70710678118654746 0.70710678118654746 0.25 forward I I I I #
loop $-1 $-1 $190 $48 #
coedge $-1 $119 $119 $191 $192 reversed $75 $-1 #
face $-1 $-1 $193 $39 $-1 $194 forward single #
loop $-1 $195 $196 $77 #
cone-surface $-1 -49.048401142208682 1.5752235080670829 6.8901218952279084 0.66913061440640931 0 -0.74314481823134659 0.18578620455783665 0 0.16728265360160233 1 I I -0.70710678118654746 0.70710678118654746 0.25 forward I I I I #
loop $-1 $-1 $197 $49 #
coedge $-1 $124 $124 $198 $199 reversed $78 $-1 #
face $-1 $200 $201 $30 $-1 $202 reversed single #
loop $-1 $-1 $203 $80 #
plane-surface $-1 0 -33.574169392875547 0 0 1 0 0 0 1 forward_v I I I I #
coedge $-1 $204 $205 $206 $207 forward $81 $-1 #
coedge $-1 $208 $83 $209 $210 forward $51 $-1 #
coedge $-1 $83 $208 $211 $212 forward $51 $-1 #
coedge $-1 $213 $214 $83 $132 reversed $215 $-1 #
edge $-1 $216 -33.574169392875547 $217 33.574169392875547 $131 $218 forward 7 unknown #
face $-1 $219 $220 $31 $-1 $221 reversed single #
loop $-1 $-1 $222 $84 #
plane-surface $-1 0 -22.979538123791528 10.908444251353389 0 -1 0 0 0 -1 forward_v I I I I #
coedge $-1 $223 $224 $225 $226 reversed $85 $-1 #
coedge $-1 $227 $87 $228 $229 forward $54 $-1 #
coedge $-1 $87 $227 $230 $231 reversed $54 $-1 #
coedge $-1 $232 $233 $87 $140 forward $234 $-1 #
edge $-1 $235 8.8411112446247593 $236 19.435742513708778 $139 $237 forward 7 unknown #
face $-1 $238 $239 $32 $-1 $240 reversed single #
loop $-1 $-1 $241 $88 #
plane-surface $-1 0 28.276853758333537 9.0279029397654273 0 0 1 1 0 0 forward_v I I I I #
coedge $-1 $242 $147 $243 $244 reversed $89 $-1 #
coedge $-1 $245 $91 $246 $247 reversed $57 $-1 #
coedge $-1 $91 $245 $248 $249 reversed $57 $-1 #
coedge $-1 $144 $250 $91 $148 forward $89 $-1 #
edge $-1 $251 -55.957518234809413 $252 55.957518234809413 $91 $253 forward 7 unknown #
face $-1 $254 $255 $33 $-1 $256 reversed single #
loop $-1 $-1 $257 $92 #
plane-surface $-1 0 0 13.288985562941354 0 0 1 1 0 0 forward_v I I I I #
coedge $-1 $258 $259 $260 $261 reversed $93 $-1 #
coedge $-1 $154 $95 $262 $263 reversed $60 $-1 #
coedge $-1 $95 $153 $258 $264 reversed $60 $-1 #
coedge $-1 $260 $265 $95 $156 forward $255 $-1 #
edge $-1 $266 67.692335637764629 $267 77.073535155880236 $155 $268 forward 7 unknown #
loop $-1 $-1 $162 $96 #
plane-surface $-1 -18.928256949475227 18.385725153581021 87.076867217127315 0.74314483375859142 0 0.66913059716165679 0.66913059716165679 0 -0.74314483375859142 forward_v I I I I #
loop $-1 $-1 $269 $62 #
coedge $-1 $160 $160 $161 $270 reversed $97 $-1 #
coedge $-1 $161 $161 $160 $270 forward $99 $-1 #
coedge $-1 $162 $162 $100 $163 forward $157 $-1 #
edge $-1 $271 0 $271 6.2831853071796004 $162 $272 forward 7 unknown #
loop $-1 $-1 $169 $101 #
plane-surface $-1 -18.928256949475227 18.385725153581021 87.076867217127315 0.74314483375859142 0 0.66913059716165679 0.66913059716165679 0 -0.74314483375859142 forward_v I I I I #
loop $-1 $-1 $273 $65 #
coedge $-1 $167 $167 $168 $274 reversed $102 $-1 #
coedge $-1 $168 $168 $167 $274 forward $104 $-1 #
coedge $-1 $169 $169 $105 $170 forward $164 $-1 #
edge $-1 $275 0 $275 6.2831853071796004 $169 $276 forward 7 unknown #
face $-1 $277 $278 $36 $-1 $279 reversed single #
loop $-1 $-1 $280 $106 #
plane-surface $-1 -130.84329534904117 -6.6263051572554232 85.53981343524714 0 1 0 -0.66913061440640931 0 0.74314481823134659 forward_v I I I I #
coedge $-1 $281 $282 $283 $284 reversed $107 $-1 #
coedge $-1 $176 $109 $285 $286 reversed $69 $-1 #
coedge $-1 $109 $175 $281 $287 reversed $69 $-1 #
coedge $-1 $283 $288 $109 $178 forward $278 $-1 #
edge $-1 $289 29.480921154682214 $290 40.399172716945827 $177 $291 forward 7 unknown #
loop $-1 $-1 $184 $110 #
plane-surface $-1 -55.957518234809427 -1.500349741428856 2.3707340006777287 -0.66913061440640931 0 0.74314481823134659 0.74314481823134659 0 0.66913061440640931 forward_v I I I I #
loop $-1 $-1 $292 $71 #
coedge $-1 $182 $182 $183 $293 reversed $111 $-1 #
coedge $-1 $183 $183 $182 $293 forward $113 $-1 #
coedge $-1 $184 $184 $114 $185 forward $179 $-1 #
edge $-1 $294 0 $294 6.2831853071796004 $184 $295 forward 7 unknown #
loop $-1 $-1 $191 $115 #
plane-surface $-1 -55.957518234809427 -1.500349741428856 2.3707340006777287 -0.66913061440640931 0 0.74314481823134659 0.74314481823134659 0 0.66913061440640931 forward_v I I I I #
loop $-1 $-1 $296 $74 #
coedge $-1 $189 $189 $190 $297 reversed $116 $-1 #
coedge $-1 $190 $190 $189 $297 forward $118 $-1 #
coedge $-1 $191 $191 $119 $192 forward $186 $-1 #
edge $-1 $298 0 $298 6.2831853071796004 $191 $299 forward 7 unknown #
loop $-1 $-1 $198 $120 #
plane-surface $-1 -55.957518234809427 -1.500349741428856 2.3707340006777287 -0.66913061440640931 0 0.74314481823134659 0.74314481823134659 0 0.66913061440640931 forward_v I I I I #
loop $-1 $-1 $300 $77 #
coedge $-1 $196 $196 $197 $301 reversed $121 $-1 #
coedge $-1 $197 $197 $196 $301 forward $123 $-1 #
coedge $-1 $198 $198 $124 $199 forward $193 $-1 #
edge $-1 $302 0 $302 6.2831853071796004 $198 $303 forward 7 unknown #
face $-1 $304 $305 $30 $-1 $306 reversed single #
loop $-1 $-1 $307 $125 #
plane-surface $-1 -55.957518234809413 0 0 1 0 0 0 0 -1 forward_v I I I I #
coedge $-1 $308 $211 $309 $310 forward $126 $-1 #
coedge $-1 $311 $128 $308 $312 forward $81 $-1 #
coedge $-1 $128 $311 $313 $314 forward $81 $-1 #
coedge $-1 $214 $213 $128 $207 reversed $215 $-1 #
edge $-1 $315 -33.574169392875547 $316 33.574169392875547 $206 $317 forward 7 unknown #
coedge $-1 $130 $129 $318 $319 forward $51 $-1 #
coedge $-1 $320 $321 $129 $210 reversed $305 $-1 #
edge $-1 $217 -55.957518234809413 $322 55.957518234809413 $209 $323 forward 7 unknown #
coedge $-1 $203 $324 $130 $212 reversed $126 $-1 #
edge $-1 $325 -55.957518234809413 $216 55.957518234809413 $211 $326 forward 7 unknown #
coedge $-1 $206 $131 $324 $327 forward $215 $-1 #
coedge $-1 $131 $206 $320 $328 reversed $215 $-1 #
loop $-1 $-1 $213 $304 #
vertex $-1 $132 $329 #
vertex $-1 $132 $330 #
straight-curve $-1 55.957518234809413 0 13.288985562941354 0 1 0 I I #
face $-1 $331 $332 $31 $-1 $333 reversed single #
loop $-1 $-1 $334 $133 #
plane-surface $-1 -55.957518234809413 0 0 1 0 0 0 0 -1 forward_v I I I I #
coedge $-1 $335 $228 $233 $336 reversed $134 $-1 #
coedge $-1 $337 $136 $338 $339 reversed $85 $-1 #
coedge $-1 $136 $337 $335 $340 forward $85 $-1 #
coedge $-1 $233 $232 $136 $226 forward $234 $-1 #
edge $-1 $341 -19.435742513708778 $342 -8.8411112446247593 $225 $343 forward 7 unknown #
coedge $-1 $138 $137 $334 $344 reversed $54 $-1 #
coedge $-1 $222 $345 $137 $229 reversed $134 $-1 #
edge $-1 $235 -55.957518234809413 $346 55.957518234809413 $228 $347 forward 7 unknown #
coedge $-1 $348 $349 $138 $231 forward $332 $-1 #
edge $-1 $236 -55.957518234809413 $350 55.957518234809413 $230 $351 forward 7 unknown #
coedge $-1 $225 $139 $349 $352 forward $234 $-1 #
coedge $-1 $139 $225 $222 $336 forward $234 $-1 #
loop $-1 $-1 $139 $331 #
vertex $-1 $140 $353 #
vertex $-1 $352 $354 #
straight-curve $-1 55.957518234809413 -14.138426879166769 12.788985562941351 0 -1 0 I I #
face $-1 $355 $356 $32 $-1 $357 reversed single #
loop $-1 $-1 $243 $141 #
plane-surface $-1 55.957518234809413 0 0 -1 0 0 0 0 1 forward_v I I I I #
coedge $-1 $358 $359 $360 $361 reversed $142 $-1 #
coedge $-1 $250 $144 $362 $363 reversed $89 $-1 #
coedge $-1 $248 $364 $144 $244 forward $239 $-1 #
edge $-1 $365 -19.435742513708778 $252 -8.8411112446247593 $243 $366 forward 7 unknown #
coedge $-1 $146 $145 $358 $367 reversed $57 $-1 #
coedge $-1 $368 $369 $145 $247 forward $356 $-1 #
edge $-1 $370 3.5736808140887328 $251 7.3347634372646562 $246 $371 forward 7 unknown #
coedge $-1 $360 $243 $146 $249 forward $239 $-1 #
edge $-1 $252 -7.3347634372646562 $372 -3.5736808140887328 $248 $373 forward 7 unknown #
coedge $-1 $147 $242 $368 $374 reversed $89 $-1 #
vertex $-1 $374 $375 #
vertex $-1 $244 $376 #
straight-curve $-1 0 22.979538123791528 12.788985562941351 1 0 0 I I #
face $-1 $-1 $377 $33 $-1 $378 forward single #
loop $-1 $-1 $379 $149 #
plane-surface $-1 55.957518234809413 0 0 -1 0 0 0 0 1 forward_v I I I I #
coedge $-1 $380 $381 $382 $383 forward $150 $-1 #
coedge $-1 $384 $152 $154 $264 forward $93 $-1 #
coedge $-1 $152 $384 $385 $386 forward $93 $-1 #
coedge $-1 $379 $155 $152 $261 forward $255 $-1 #
edge $-1 $267 4.5990496065800066 $387 13.786675547001014 $260 $388 forward 7 unknown #
coedge $-1 $381 $380 $153 $263 forward $150 $-1 #
edge $-1 $389 15.390236347149511 $266 23.837106123396239 $262 $390 forward 7 unknown #
edge $-1 $267 -111.9150364696188 $389 -99.29138749574588 $154 $391 forward 7 unknown #
coedge $-1 $155 $379 $381 $392 reversed $255 $-1 #
vertex $-1 $392 $393 #
vertex $-1 $156 $394 #
straight-curve $-1 55.957518234809413 13.791912183370517 80.981321200705978 0 0 -1 I I #
coedge $-1 $269 $269 $-1 $395 reversed $159 $-1 #
edge $-1 $396 0 $396 6.2831853071796004 $160 $397 forward 7 unknown #
vertex $-1 $163 $398 #
ellipse-curve $-1 51.734083346686049 16.41694816634795 8.5983858038835468 0.74314483375859142 0 0.66913059716165679 0.66913059716165679 0 -0.74314483375859142 1 I I #
coedge $-1 $273 $273 $-1 $399 reversed $166 $-1 #
edge $-1 $400 0 $400 6.2831853071796004 $167 $401 forward 7 unknown #
vertex $-1 $170 $402 #
ellipse-curve $-1 51.734083346686049 20.354502140814098 8.5983858038835468 0.74314483375859142 0 0.66913059716165679 0.66913059716165679 0 -0.74314483375859142 1 I I #
face $-1 $-1 $403 $36 $-1 $404 forward single #
loop $-1 $-1 $177 $171 #
plane-surface $-1 -55.957518234809413 0 0 1 0 0 0 0 -1 forward_v I I I I #
coedge $-1 $405 $406 $407 $408 reversed $172 $-1 #
coedge $-1 $409 $174 $176 $287 forward $107 $-1 #
coedge $-1 $174 $409 $405 $410 forward $107 $-1 #
coedge $-1 $407 $177 $174 $284 forward $278 $-1 #
edge $-1 $290 -4.3757805451121392 $411 5.8761302865409952 $283 $412 forward 7 unknown #
coedge $-1 $413 $414 $175 $286 forward $403 $-1 #
edge $-1 $415 -21.590076000742997 $289 -9.4641294397111722 $285 $416 forward 7 unknown #
edge $-1 $290 1.9178179933549516e-014 $415 16.317070729082225 $176 $417 forward 7 unknown #
coedge $-1 $177 $407 $413 $418 reversed $278 $-1 #
vertex $-1 $418 $419 #
vertex $-1 $178 $420 #
straight-curve $-1 -55.957518234809413 3.6256056743977112 42.76990671762357 0 0 -1 I I #
coedge $-1 $292 $292 $-1 $421 reversed $181 $-1 #
edge $-1 $422 0 $422 6.2831853071796004 $182 $423 forward 7 unknown #
vertex $-1 $185 $424 #
ellipse-curve $-1 -49.894544954293501 -4.5759229909247949 7.8298597818095468 -0.66913061440640931 0 0.74314481823134659 0.3715724091156733 0 0.33456530720320465 1 I I #
coedge $-1 $296 $296 $-1 $425 reversed $188 $-1 #
edge $-1 $426 0 $426 6.2831853071796004 $189 $427 forward 7 unknown #
vertex $-1 $192 $428 #
ellipse-curve $-1 -49.894544954293501 -1.500349741428856 7.8298597818095468 -0.66913061440640931 0 0.74314481823134659 0.3715724091156733 0 0.33456530720320465 1 I I #
coedge $-1 $300 $300 $-1 $429 reversed $195 $-1 #
edge $-1 $430 0 $430 6.2831853071796004 $196 $431 forward 7 unknown #
vertex $-1 $199 $432 #
ellipse-curve $-1 -49.894544954293501 1.5752235080670829 7.8298597818095468 -0.66913061440640931 0 0.74314481823134659 0.3715724091156733 0 0.33456530720320465 1 I I #
face $-1 $-1 $215 $30 $-1 $433 reversed single #
loop $-1 $-1 $320 $200 #
plane-surface $-1 0 33.574169392875547 0 0 -1 0 0 0 -1 forward_v I I I I #
coedge $-1 $434 $318 $321 $435 forward $201 $-1 #
coedge $-1 $324 $203 $204 $312 reversed $126 $-1 #
coedge $-1 $318 $434 $203 $310 reversed $201 $-1 #
edge $-1 $325 -13.288985562941354 $436 13.288985562941354 $309 $437 forward 7 unknown #
coedge $-1 $205 $204 $434 $438 forward $81 $-1 #
edge $-1 $316 -55.957518234809413 $436 55.957518234809413 $308 $439 forward 7 unknown #
coedge $-1 $321 $320 $205 $314 reversed $305 $-1 #
edge $-1 $440 -55.957518234809413 $315 55.957518234809413 $313 $441 forward 7 unknown #
vertex $-1 $207 $442 #
vertex $-1 $327 $443 #
straight-curve $-1 55.957518234809413 0 -13.288985562941354 0 -1 0 I I #
coedge $-1 $307 $309 $208 $319 reversed $201 $-1 #
edge $-1 $322 -33.574169392875547 $325 33.574169392875547 $318 $444 forward 7 unknown #
coedge $-1 $313 $209 $214 $328 forward $305 $-1 #
coedge $-1 $209 $313 $307 $435 reversed $305 $-1 #
vertex $-1 $210 $445 #
straight-curve $-1 0 33.574169392875547 13.288985562941354 -1 0 0 I I #
coedge $-1 $211 $308 $213 $327 reversed $126 $-1 #
vertex $-1 $319 $446 #
straight-curve $-1 0 -33.574169392875547 13.288985562941354 1 0 0 I I #
edge $-1 $216 -13.288985562941354 $316 13.288985562941354 $213 $447 forward 7 unknown #
edge $-1 $217 -13.288985562941354 $315 13.288985562941354 $214 $448 forward 7 unknown #
point $-1 55.957518234809413 -33.574169392875547 13.288985562941354 #
point $-1 55.957518234809413 33.574169392875547 13.288985562941354 #
face $-1 $-1 $234 $31 $-1 $449 reversed single #
loop $-1 $-1 $230 $219 #
plane-surface $-1 0 -33.574169392875547 0 0 1 0 0 0 1 forward_v I I I I #
coedge $-1 $450 $451 $227 $344 forward $220 $-1 #
coedge $-1 $345 $222 $224 $340 reversed $134 $-1 #
edge $-1 $342 3.5736808140887328 $235 7.3347634372646562 $233 $452 forward 7 unknown #
coedge $-1 $224 $223 $453 $454 reversed $85 $-1 #
coedge $-1 $349 $348 $223 $339 forward $332 $-1 #
edge $-1 $455 -55.957518234809413 $341 55.957518234809413 $338 $456 forward 7 unknown #
edge $-1 $457 -55.957518234809413 $342 55.957518234809413 $335 $458 forward 7 unknown #
vertex $-1 $339 $459 #
vertex $-1 $226 $460 #
straight-curve $-1 55.957518234809413 -14.138426879166769 9.0279029397654273 0 1 0 I I #
edge $-1 $350 -19.435742513708778 $346 -8.8411112446247593 $334 $461 forward 7 unknown #
coedge $-1 $228 $335 $450 $462 reversed $134 $-1 #
vertex $-1 $344 $463 #
straight-curve $-1 0 -22.979538123791528 12.788985562941351 -1 0 0 I I #
coedge $-1 $338 $230 $451 $464 forward $332 $-1 #
coedge $-1 $230 $338 $232 $352 reversed $332 $-1 #
vertex $-1 $464 $465 #
straight-curve $-1 0 -33.574169392875547 12.788985562941351 -1 0 0 I I #
edge $-1 $236 -12.788985562941351 $341 -9.0279029397654273 $232 $466 forward 7 unknown #
point $-1 55.957518234809413 -22.979538123791528 12.788985562941351 #
point $-1 55.957518234809413 -33.574169392875547 12.788985562941351 #
face $-1 $-1 $467 $32 $-1 $468 reversed single #
loop $-1 $-1 $368 $238 #
plane-surface $-1 -55.957518234809413 0 0 1 0 0 0 0 -1 forward_v I I I I #
coedge $-1 $469 $241 $245 $367 forward $142 $-1 #
coedge $-1 $241 $469 $470 $471 reversed $142 $-1 #
coedge $-1 $364 $248 $241 $361 forward $239 $-1 #
edge $-1 $372 8.8411112446247593 $472 19.435742513708778 $360 $473 forward 7 unknown #
coedge $-1 $474 $475 $242 $363 forward $467 $-1 #
edge $-1 $476 -55.957518234809413 $365 55.957518234809413 $362 $477 forward 7 unknown #
coedge $-1 $243 $360 $474 $478 reversed $239 $-1 #
vertex $-1 $478 $479 #
straight-curve $-1 55.957518234809413 14.138426879166769 12.788985562941351 0 -1 0 I I #
edge $-1 $372 -55.957518234809413 $370 55.957518234809413 $245 $480 forward 7 unknown #
coedge $-1 $481 $246 $250 $374 forward $356 $-1 #
coedge $-1 $246 $481 $469 $482 forward $356 $-1 #
vertex $-1 $482 $483 #
straight-curve $-1 -55.957518234809413 22.979538123791528 5.4542221256766945 0 0 1 I I #
vertex $-1 $361 $484 #
straight-curve $-1 55.957518234809413 22.979538123791528 5.4542221256766945 0 0 -1 I I #
edge $-1 $251 8.8411112446247593 $476 19.435742513708778 $368 $485 forward 7 unknown #
point $-1 -55.957518234809413 22.979538123791528 12.788985562941351 #
point $-1 55.957518234809413 22.979538123791528 12.788985562941351 #
loop $-1 $-1 $385 $254 #
plane-surface $-1 0 22.979538123791528 10.908444251353389 0 1 0 0 0 1 forward_v I I I I #
coedge $-1 $265 $260 $486 $487 forward $255 $-1 #
coedge $-1 $262 $257 $384 $488 forward $150 $-1 #
coedge $-1 $257 $262 $265 $392 forward $150 $-1 #
coedge $-1 $486 $385 $257 $383 reversed $377 $-1 #
edge $-1 $489 -23.837106123396239 $490 -15.390236347149511 $257 $491 forward 7 unknown #
coedge $-1 $259 $258 $380 $488 reversed $93 $-1 #
coedge $-1 $382 $486 $259 $386 reversed $377 $-1 #
edge $-1 $490 99.29138749574588 $387 111.9150364696188 $385 $492 forward 7 unknown #
vertex $-1 $487 $493 #
straight-curve $-1 55.95751823480942 9.1928625767905103 3.9077860448257269 0 1 0 I I #
vertex $-1 $263 $494 #
straight-curve $-1 32.120412111413174 13.791912183370517 13.288985562941349 1 0 0 I I #
straight-curve $-1 -18.928256949475227 13.791912183370517 87.076867217127315 -0.66913059716165679 0 0.74314483375859142 I I #
edge $-1 $266 13.791912183370517 $489 22.979538123791524 $265 $495 forward 7 unknown #
point $-1 55.957518234809413 13.791912183370517 13.288985562941354 #
point $-1 55.957518234809413 13.791912183370517 3.9077860448257411 #
edge $-1 $496 1 $496 0 $269 $-1 forward 7 unknown #
vertex $-1 $270 $497 #
ellipse-curve $-1 48.762796752992806 16.41694816634795 5.9230274047397229 0.74314483375859142 0 0.66913059716165679 0.66913059716165679 0 -0.74314483375859142 1 I I #
point $-1 52.403213943847717 16.41694816634795 7.8552409701249601 #
edge $-1 $498 1 $498 0 $273 $-1 forward 7 unknown #
vertex $-1 $274 $499 #
ellipse-curve $-1 48.762796752992806 20.354502140814098 5.9230274047397229 0.74314483375859142 0 0.66913059716165679 0.66913059716165679 0 -0.74314483375859142 1 I I #
point $-1 52.403213943847717 20.354502140814098 7.8552409701249601 #
loop $-1 $-1 $285 $277 #
plane-surface $-1 0 0 13.288985562941354 0 0 1 1 0 0 forward_v I I I I #
coedge $-1 $406 $280 $282 $410 reversed $172 $-1 #
coedge $-1 $280 $405 $500 $501 reversed $172 $-1 #
coedge $-1 $288 $283 $280 $408 forward $278 $-1 #
edge $-1 $411 -40.399172716945827 $502 -29.480921154682214 $407 $503 forward 7 unknown #
coedge $-1 $282 $281 $414 $504 reversed $107 $-1 #
edge $-1 $505 -16.317070729082225 $411 -1.9178179933549516e-014 $405 $506 forward 7 unknown #
vertex $-1 $284 $507 #
straight-curve $-1 -55.957518234809413 -0.75017487071442801 2.3707340006777384 0 -1 0 I I #
coedge $-1 $500 $285 $288 $418 forward $403 $-1 #
coedge $-1 $285 $500 $409 $504 forward $403 $-1 #
vertex $-1 $286 $508 #
straight-curve $-1 -65.421647674520585 3.6256056743977112 13.288985562941356 -1 0 0 I I #
straight-curve $-1 -55.957518234809427 3.6256056743977112 2.3707340006777287 0.74314481823134659 0 0.66913061440640931 I I #
edge $-1 $289 -3.6256056743977112 $502 6.6263051572554232 $288 $509 forward 7 unknown #
point $-1 -55.957518234809413 3.6256056743977112 13.288985562941354 #
point $-1 -55.957518234809413 3.6256056743977112 2.3707340006777415 #
edge $-1 $510 1 $510 0 $292 $-1 forward 7 unknown #
vertex $-1 $293 $511 #
ellipse-curve $-1 -49.215683795810286 -4.5759229909247949 7.0759080997857451 -0.66913061440640931 0 0.74314481823134659 0.3715724091156733 0 0.33456530720320465 1 I I #
point $-1 -49.522972545177822 -4.5759229909247949 8.164425089012747 #
edge $-1 $512 1 $512 0 $296 $-1 forward 7 unknown #
vertex $-1 $297 $513 #
ellipse-curve $-1 -49.215683795810286 -1.500349741428856 7.0759080997857451 -0.66913061440640931 0 0.74314481823134659 0.3715724091156733 0 0.33456530720320465 1 I I #
point $-1 -49.522972545177822 -1.500349741428856 8.164425089012747 #
edge $-1 $514 1 $514 0 $300 $-1 forward 7 unknown #
vertex $-1 $301 $515 #
ellipse-curve $-1 -49.215683795810286 1.5752235080670829 7.0759080997857451 -0.66913061440640931 0 0.74314481823134659 0.3715724091156733 0 0.33456530720320465 1 I I #
point $-1 -49.522972545177822 1.5752235080670829 8.164425089012747 #
plane-surface $-1 55.957518234809413 0 0 -1 0 0 0 0 1 forward_v I I I I #
coedge $-1 $309 $307 $311 $438 reversed $201 $-1 #
edge $-1 $322 -13.288985562941354 $440 13.288985562941354 $321 $516 forward 7 unknown #
vertex $-1 $438 $517 #
straight-curve $-1 -55.957518234809413 -33.574169392875547 0 0 0 -1 I I #
edge $-1 $436 -33.574169392875547 $440 33.574169392875547 $434 $518 forward 7 unknown #
straight-curve $-1 0 -33.574169392875547 -13.288985562941354 -1 0 0 I I #
vertex $-1 $314 $519 #
straight-curve $-1 0 33.574169392875547 -13.288985562941354 1 0 0 I I #
point $-1 55.957518234809413 33.574169392875547 -13.288985562941354 #
point $-1 55.957518234809413 -33.574169392875547 -13.288985562941354 #
straight-curve $-1 -55.957518234809413 0 13.288985562941354 0 -1 0 I I #
point $-1 -55.957518234809413 33.574169392875547 13.288985562941354 #
point $-1 -55.957518234809413 -33.574169392875547 13.288985562941354 #
straight-curve $-1 55.957518234809413 -33.574169392875547 0 0 0 -1 I I #
straight-curve $-1 55.957518234809413 33.574169392875547 0 0 0 -1 I I #
plane-surface $-1 55.957518234809413 0 0 -1 0 0 0 0 1 forward_v I I I I #
coedge $-1 $453 $334 $345 $462 forward $220 $-1 #
coedge $-1 $334 $453 $348 $464 reversed $220 $-1 #
straight-curve $-1 55.957518234809413 -22.979538123791528 5.4542221256766945 0 0 1 I I #
coedge $-1 $451 $450 $337 $454 forward $220 $-1 #
edge $-1 $457 8.8411112446247593 $455 19.435742513708778 $453 $520 forward 7 unknown #
vertex $-1 $339 $521 #
straight-curve $-1 0 -33.574169392875547 9.0279029397654273 1 0 0 I I #
vertex $-1 $454 $522 #
straight-curve $-1 0 -22.979538123791528 9.0279029397654273 1 0 0 I I #
point $-1 55.957518234809413 -33.574169392875547 9.0279029397654273 #
point $-1 55.957518234809413 -22.979538123791528 9.0279029397654273 #
straight-curve $-1 -55.957518234809413 -14.138426879166769 12.788985562941351 0 1 0 I I #
edge $-1 $346 -7.3347634372646562 $457 -3.5736808140887328 $450 $523 forward 7 unknown #
point $-1 -55.957518234809413 -22.979538123791528 12.788985562941351 #
edge $-1 $350 -12.788985562941351 $455 -9.0279029397654273 $451 $524 forward 7 unknown #
point $-1 -55.957518234809413 -33.574169392875547 12.788985562941351 #
straight-curve $-1 55.957518234809413 -33.574169392875547 0 0 0 -1 I I #
loop $-1 $-1 $362 $355 #
plane-surface $-1 0 33.574169392875547 0 0 -1 0 0 0 -1 forward_v I I I I #
coedge $-1 $359 $358 $369 $482 reversed $142 $-1 #
coedge $-1 $475 $474 $359 $471 forward $467 $-1 #
edge $-1 $472 -55.957518234809413 $525 55.957518234809413 $470 $526 forward 7 unknown #
vertex $-1 $471 $527 #
straight-curve $-1 55.957518234809413 14.138426879166769 9.0279029397654273 0 1 0 I I #
coedge $-1 $470 $362 $364 $478 forward $467 $-1 #
coedge $-1 $362 $470 $481 $528 reversed $467 $-1 #
vertex $-1 $528 $529 #
straight-curve $-1 0 33.574169392875547 12.788985562941351 1 0 0 I I #
edge $-1 $365 -12.788985562941351 $472 -9.0279029397654273 $364 $530 forward 7 unknown #
point $-1 55.957518234809413 33.574169392875547 12.788985562941351 #
straight-curve $-1 0 22.979538123791528 9.0279029397654273 -1 0 0 I I #
coedge $-1 $369 $368 $475 $528 forward $356 $-1 #
edge $-1 $525 -19.435742513708778 $370 -8.8411112446247593 $369 $531 forward 7 unknown #
point $-1 -55.957518234809413 22.979538123791528 9.0279029397654273 #
point $-1 55.957518234809413 22.979538123791528 9.0279029397654273 #
straight-curve $-1 -55.957518234809413 14.138426879166769 12.788985562941351 0 1 0 I I #
coedge $-1 $385 $382 $379 $487 reversed $377 $-1 #
edge $-1 $387 -77.073535155880236 $489 -67.692335637764629 $379 $532 forward 7 unknown #
edge $-1 $490 -13.786675547001014 $389 -4.5990496065800066 $380 $533 forward 7 unknown #
vertex $-1 $383 $534 #
vertex $-1 $383 $535 #
straight-curve $-1 32.120412111413174 22.979538123791524 13.288985562941349 -1 0 0 I I #
straight-curve $-1 -18.928256949475227 22.979538123791524 87.076867217127315 0.66913059716165679 0 -0.74314483375859142 I I #
point $-1 55.957518234809413 22.979538123791524 3.9077860448257411 #
point $-1 47.510648458562684 13.791912183370517 13.288985562941349 #
straight-curve $-1 55.957518234809413 0 13.288985562941354 0 1 0 I I #
vertex $-1 $395 $536 #
point $-1 49.43192735015446 16.41694816634795 5.1798825709811318 #
vertex $-1 $399 $537 #
point $-1 49.43192735015446 20.354502140814098 5.1798825709811318 #
coedge $-1 $414 $413 $406 $501 forward $403 $-1 #
edge $-1 $502 9.4641294397111722 $505 21.590076000742997 $500 $538 forward 7 unknown #
vertex $-1 $501 $539 #
straight-curve $-1 -55.957518234809413 -6.6263051572554232 42.76990671762357 0 0 1 I I #
edge $-1 $505 -5.8761302865409952 $415 4.3757805451121392 $414 $540 forward 7 unknown #
vertex $-1 $504 $541 #
straight-curve $-1 -55.957518234809427 -6.6263051572554232 2.3707340006777287 -0.74314481823134659 0 -0.66913061440640931 I I #
point $-1 -55.957518234809413 -6.6263051572554232 2.3707340006777415 #
point $-1 -43.831571673777589 3.6256056743977112 13.288985562941354 #
straight-curve $-1 -55.957518234809413 0 13.288985562941354 0 -1 0 I I #
vertex $-1 $421 $542 #
point $-1 -48.844111386694614 -4.5759229909247949 7.4104734069889497 #
vertex $-1 $425 $543 #
point $-1 -48.844111386694614 -1.500349741428856 7.4104734069889497 #
vertex $-1 $429 $544 #
point $-1 -48.844111386694614 1.5752235080670829 7.4104734069889497 #
straight-curve $-1 -55.957518234809413 33.574169392875547 0 0 0 -1 I I #
point $-1 -55.957518234809413 -33.574169392875547 -13.288985562941354 #
straight-curve $-1 -55.957518234809413 0 -13.288985562941354 0 1 0 I I #
point $-1 -55.957518234809413 33.574169392875547 -13.288985562941354 #
straight-curve $-1 -55.957518234809413 -14.138426879166769 9.0279029397654273 0 -1 0 I I #
point $-1 -55.957518234809413 -33.574169392875547 9.0279029397654273 #
point $-1 -55.957518234809413 -22.979538123791528 9.0279029397654273 #
straight-curve $-1 -55.957518234809413 -22.979538123791528 5.4542221256766945 0 0 -1 I I #
straight-curve $-1 -55.957518234809413 -33.574169392875547 0 0 0 -1 I I #
vertex $-1 $471 $545 #
straight-curve $-1 0 33.574169392875547 9.0279029397654273 -1 0 0 I I #
point $-1 55.957518234809413 33.574169392875547 9.0279029397654273 #
edge $-1 $476 -12.788985562941351 $525 -9.0279029397654273 $475 $546 forward 7 unknown #
point $-1 -55.957518234809413 33.574169392875547 12.788985562941351 #
straight-curve $-1 55.957518234809413 33.574169392875547 0 0 0 -1 I I #
straight-curve $-1 -55.957518234809413 14.138426879166769 9.0279029397654273 0 -1 0 I I #
straight-curve $-1 55.957518234809413 22.979538123791524 80.981321200705978 0 0 1 I I #
straight-curve $-1 47.51064845856267 9.1928625767905103 13.288985562941363 0 -1 0 I I #
point $-1 55.957518234809413 22.979538123791524 13.288985562941354 #
point $-1 47.510648458562684 22.979538123791524 13.288985562941349 #
point $-1 48.019651919234214 16.41694816634795 5.2538968075780668 #
point $-1 48.019651919234214 20.354502140814098 5.2538968075780668 #
straight-curve $-1 -65.421647674520585 -6.6263051572554232 13.288985562941356 1 0 0 I I #
point $-1 -55.957518234809413 -6.6263051572554232 13.288985562941354 #
straight-curve $-1 -43.831571673777589 -0.75017487071442801 13.288985562941352 0 1 0 I I #
point $-1 -43.831571673777589 -6.6263051572554232 13.288985562941354 #
point $-1 -48.881118488607079 -4.5759229909247949 6.7043356906700717 #
point $-1 -48.881118488607079 -1.500349741428856 6.7043356906700717 #
point $-1 -48.881118488607079 1.5752235080670829 6.7043356906700717 #
point $-1 -55.957518234809413 33.574169392875547 9.0279029397654273 #
straight-curve $-1 -55.957518234809413 33.574169392875547 0 0 0 -1 I I #
End-of-ACIS-data 