500 0 9 0           
7 Unknown 11 ACIS 5.0 NT 24 Thu Mar 25 22:17:17 1999 
-1 9.9999999999999995e-007 1e-010 
body $-1 $9 $-1 $10 #
body $-1 $11 $-1 $12 #
body $-1 $13 $-1 $14 #
body $-1 $15 $-1 $16 #
body $-1 $17 $-1 $18 #
body $-1 $19 $-1 $20 #
body $-1 $21 $-1 $22 #
body $-1 $23 $-1 $24 #
body $-1 $25 $-1 $26 #
lump $-1 $-1 $27 $0 #
transform $-1 1 0 0 0 1 0 0 0 1 65.941953794976655 35.758220343822835 14.424530188379038 1 rotate no_reflect no_shear #
lump $-1 $-1 $28 $1 #
transform $-1 1 0 0 0 1 0 0 0 1 65.941953794976655 35.758220343822835 14.424530188379038 1 rotate no_reflect no_shear #
lump $-1 $-1 $29 $2 #
transform $-1 1 0 0 0 1 0 0 0 1 65.941953794976655 35.758220343822835 14.424530188379038 1 rotate no_reflect no_shear #
lump $-1 $-1 $30 $3 #
transform $-1 1 0 0 0 1 0 0 0 1 65.941953794976655 35.758220343822835 14.424530188379038 1 rotate no_reflect no_shear #
lump $-1 $-1 $31 $4 #
transform $-1 1 0 0 0 1 0 0 0 1 65.941953794976655 35.758220343822835 14.424530188379038 1 rotate no_reflect no_shear #
lump $-1 $-1 $32 $5 #
transform $-1 1 0 0 0 1 0 0 0 1 65.941953794976655 35.758220343822835 14.424530188379038 1 rotate no_reflect no_shear #
lump $-1 $-1 $33 $6 #
transform $-1 1 0 0 0 1 0 0 0 1 65.941953794976655 35.758220343822835 14.424530188379038 1 rotate no_reflect no_shear #
lump $-1 $-1 $34 $7 #
transform $-1 1 0 0 0 1 0 0 0 1 65.941953794976655 35.758220343822835 14.424530188379038 1 rotate no_reflect no_shear #
lump $-1 $-1 $35 $8 #
transform $-1 1 0 0 0 1 0 0 0 1 65.941953794976655 35.758220343822835 14.424530188379038 1 rotate no_reflect no_shear #
shell $-1 $-1 $-1 $36 $-1 $9 #
shell $-1 $-1 $-1 $37 $-1 $11 #
shell $-1 $-1 $-1 $38 $-1 $13 #
shell $-1 $-1 $-1 $39 $-1 $15 #
shell $-1 $-1 $-1 $40 $-1 $17 #
shell $-1 $-1 $-1 $41 $-1 $19 #
shell $-1 $-1 $-1 $42 $-1 $21 #
shell $-1 $-1 $-1 $43 $-1 $23 #
shell $-1 $-1 $-1 $44 $-1 $25 #
face $-1 $45 $46 $27 $-1 $47 forward single #
face $-1 $48 $49 $28 $-1 $50 forward single #
face $-1 $51 $52 $29 $-1 $53 forward single #
face $-1 $54 $55 $30 $-1 $56 reversed single #
face $-1 $57 $58 $31 $-1 $59 forward single #
face $-1 $60 $61 $32 $-1 $62 forward single #
face $-1 $63 $64 $33 $-1 $65 reversed single #
face $-1 $66 $67 $34 $-1 $68 forward single #
face $-1 $69 $70 $35 $-1 $71 forward single #
face $-1 $72 $73 $27 $-1 $74 reversed single #
loop $-1 $-1 $75 $36 #
plane-surface $-1 0 0 14.424530188379038 0 0 1 1 0 0 forward_v I I I I #
face $-1 $76 $77 $28 $-1 $78 reversed single #
loop $-1 $-1 $79 $37 #
plane-surface $-1 -58.441902441277541 0 6.4219306747525398 0 0 1 1 0 0 forward_v I I I I #
face $-1 $80 $81 $29 $-1 $82 reversed single #
loop $-1 $-1 $83 $38 #
plane-surface $-1 65.941953794976655 0 0 -1 0 0 0 0 1 forward_v I I I I #
face $-1 $84 $85 $30 $-1 $86 reversed single #
loop $-1 $-1 $87 $39 #
plane-surface $-1 -50.941851087578421 -129.01422681206643 101.64161713301048 1 0 0 0 0.70710678939079041 -0.70710677298230451 forward_v I I I I #
face $-1 $88 $89 $31 $-1 $90 forward single #
loop $-1 $91 $92 $40 #
cone-surface $-1 -46.591180408669842 -31.143752211783667 9.8100620232853775 0 0.70710678939079041 -0.70710677298230451 2 0 0 1 I I 0 1 2 forward I I I I #
face $-1 $93 $94 $32 $-1 $95 forward single #
loop $-1 $96 $97 $41 #
cone-surface $-1 -40.065174390306979 -31.143752211783667 9.8100620232853775 0 0.70710678939079041 -0.70710677298230451 2 0 0 1 I I 0 1 2 forward I I I I #
face $-1 $98 $99 $33 $-1 $100 reversed single #
loop $-1 $-1 $101 $42 #
plane-surface $-1 -1.3784765494547697 -129.01422681206643 101.64161713301048 1 0 0 0 0.70710678939079041 -0.70710677298230451 forward_v I I I I #
face $-1 $102 $103 $34 $-1 $104 forward single #
loop $-1 $105 $106 $43 #
cone-surface $-1 2.9721941294538112 -31.143752211783667 9.8100620232853775 0 0.70710678939079041 -0.70710677298230451 2 0 0 1 I I 0 1 2 forward I I I I #
face $-1 $107 $108 $35 $-1 $109 forward single #
loop $-1 $110 $111 $44 #
cone-surface $-1 9.4982001478166751 -31.143752211783667 9.8100620232853775 0 0.70710678939079041 -0.70710677298230451 2 0 0 1 I I 0 1 2 forward I I I I #
face $-1 $112 $113 $27 $-1 $114 reversed single #
loop $-1 $-1 $115 $45 #
plane-surface $-1 0 0 -14.424530188379038 0 0 1 1 0 0 forward_v I I I I #
coedge $-1 $116 $117 $118 $119 forward $46 $-1 #
face $-1 $120 $121 $28 $-1 $122 reversed single #
loop $-1 $-1 $123 $48 #
plane-surface $-1 -58.441902441277541 0 1.8638548522324978 0 0 1 1 0 0 forward_v I I I I #
coedge $-1 $124 $125 $126 $127 forward $49 $-1 #
face $-1 $128 $129 $29 $-1 $130 forward single #
loop $-1 $-1 $131 $51 #
plane-surface $-1 0 35.758220343822835 0 0 -1 0 0 0 -1 forward_v I I I I #
coedge $-1 $132 $133 $134 $135 forward $52 $-1 #
face $-1 $136 $137 $30 $-1 $138 reversed single #
loop $-1 $-1 $139 $54 #
plane-surface $-1 -43.328177399488411 -35.758220343822842 8.3856128287821434 0 -0.70710678939079041 0.70710677298230451 1 0 0 forward_v I I I I #
coedge $-1 $140 $141 $142 $143 reversed $55 $-1 #
face $-1 $-1 $144 $31 $-1 $145 forward single #
loop $-1 $146 $147 $57 #
cone-surface $-1 -46.591180408669842 -28.841635900085308 7.5079457650078645 0 0.70710678939079041 -0.70710677298230451 1 0 0 1 I I -0.70710678118654746 0.70710678118654746 1 forward I I I I #
loop $-1 $-1 $148 $40 #
coedge $-1 $92 $92 $149 $150 reversed $58 $-1 #
face $-1 $-1 $151 $32 $-1 $152 forward single #
loop $-1 $153 $154 $60 #
cone-surface $-1 -40.065174390306979 -28.841635900085308 7.5079457650078645 0 0.70710678939079041 -0.70710677298230451 1 0 0 1 I I -0.70710678118654746 0.70710678118654746 1 forward I I I I #
loop $-1 $-1 $155 $41 #
coedge $-1 $97 $97 $156 $157 reversed $61 $-1 #
face $-1 $158 $159 $33 $-1 $160 reversed single #
loop $-1 $-1 $161 $63 #
plane-surface $-1 6.2351971386352432 -35.758220343822842 8.3856128287821434 0 -0.70710678939079041 0.70710677298230451 1 0 0 forward_v I I I I #
coedge $-1 $162 $163 $164 $165 reversed $64 $-1 #
face $-1 $-1 $166 $34 $-1 $167 forward single #
loop $-1 $168 $169 $66 #
cone-surface $-1 2.9721941294538112 -28.841635900085308 7.5079457650078645 0 0.70710678939079041 -0.70710677298230451 1 0 0 1 I I -0.70710678118654746 0.70710678118654746 1 forward I I I I #
loop $-1 $-1 $170 $43 #
coedge $-1 $106 $106 $171 $172 reversed $67 $-1 #
face $-1 $-1 $173 $35 $-1 $174 forward single #
loop $-1 $175 $176 $69 #
cone-surface $-1 9.4982001478166751 -28.841635900085308 7.5079457650078645 0 0.70710678939079041 -0.70710677298230451 1 0 0 1 I I -0.70710678118654746 0.70710678118654746 1 forward I I I I #
loop $-1 $-1 $177 $44 #
coedge $-1 $111 $111 $178 $179 reversed $70 $-1 #
face $-1 $180 $181 $27 $-1 $182 reversed single #
loop $-1 $-1 $183 $72 #
plane-surface $-1 0 -35.758220343822835 0 0 1 0 0 0 1 forward_v I I I I #
coedge $-1 $184 $185 $186 $187 forward $73 $-1 #
coedge $-1 $188 $75 $189 $190 forward $46 $-1 #
coedge $-1 $75 $188 $191 $192 forward $46 $-1 #
coedge $-1 $193 $194 $75 $119 reversed $195 $-1 #
edge $-1 $196 -35.758220343822835 $197 35.758220343822835 $118 $198 forward 7 unknown #
face $-1 $199 $200 $28 $-1 $201 reversed single #
loop $-1 $-1 $202 $76 #
plane-surface $-1 -50.941851087578428 0 4.1428927634925188 -1 0 0 0 0 1 forward_v I I I I #
coedge $-1 $203 $204 $205 $206 forward $77 $-1 #
coedge $-1 $207 $79 $208 $209 reversed $49 $-1 #
coedge $-1 $79 $207 $210 $211 reversed $49 $-1 #
coedge $-1 $202 $212 $79 $127 reversed $121 $-1 #
edge $-1 $213 -35.758220343822835 $214 35.758220343822835 $126 $215 forward 7 unknown #
face $-1 $216 $217 $29 $-1 $218 reversed single #
loop $-1 $-1 $219 $80 #
plane-surface $-1 74.82048169813055 0 13.419654961406559 0 0 1 1 0 0 forward_v I I I I #
coedge $-1 $220 $221 $133 $222 forward $81 $-1 #
coedge $-1 $223 $83 $224 $225 reversed $52 $-1 #
coedge $-1 $83 $223 $131 $222 reversed $52 $-1 #
coedge $-1 $226 $227 $83 $135 reversed $217 $-1 #
edge $-1 $228 -35.758220343822835 $229 35.758220343822835 $134 $230 forward 7 unknown #
face $-1 $231 $232 $30 $-1 $233 forward single #
loop $-1 $-1 $234 $84 #
plane-surface $-1 -35.7145037113984 -129.01422681206643 101.64161713301048 -1 0 0 0 -0.70710678939079041 0.70710677298230451 forward_v I I I I #
coedge $-1 $235 $236 $237 $238 reversed $85 $-1 #
coedge $-1 $141 $87 $239 $240 reversed $55 $-1 #
coedge $-1 $87 $140 $235 $241 reversed $55 $-1 #
coedge $-1 $237 $242 $87 $143 forward $243 $-1 #
edge $-1 $244 36.396278378126205 $245 42.435195737723092 $142 $246 forward 7 unknown #
loop $-1 $-1 $149 $88 #
plane-surface $-1 -43.328177399488411 -35.758220343822842 8.3856128287821434 0 -0.70710678939079041 0.70710677298230451 1 0 0 forward_v I I I I #
loop $-1 $-1 $247 $57 #
coedge $-1 $147 $147 $148 $248 reversed $89 $-1 #
coedge $-1 $148 $148 $147 $248 forward $91 $-1 #
coedge $-1 $149 $149 $92 $150 forward $144 $-1 #
edge $-1 $249 -5.8294651990167239e-023 $249 6.2831853071796004 $149 $250 forward 7 unknown #
loop $-1 $-1 $156 $93 #
plane-surface $-1 -43.328177399488411 -35.758220343822842 8.3856128287821434 0 -0.70710678939079041 0.70710677298230451 1 0 0 forward_v I I I I #
loop $-1 $-1 $251 $60 #
coedge $-1 $154 $154 $155 $252 reversed $94 $-1 #
coedge $-1 $155 $155 $154 $252 forward $96 $-1 #
coedge $-1 $156 $156 $97 $157 forward $151 $-1 #
edge $-1 $253 -5.8294651990167239e-023 $253 6.2831853071796004 $156 $254 forward 7 unknown #
face $-1 $255 $256 $33 $-1 $257 reversed single #
loop $-1 $-1 $258 $98 #
plane-surface $-1 13.848870826725257 -129.01422681206643 101.64161713301048 -1 0 0 0 -0.70710678939079041 0.70710677298230451 forward_v I I I I #
coedge $-1 $259 $260 $261 $262 reversed $99 $-1 #
coedge $-1 $163 $101 $263 $264 reversed $64 $-1 #
coedge $-1 $101 $162 $259 $265 reversed $64 $-1 #
coedge $-1 $261 $266 $101 $165 forward $256 $-1 #
edge $-1 $267 36.396278378126205 $268 42.435195737723092 $164 $269 forward 7 unknown #
loop $-1 $-1 $171 $102 #
plane-surface $-1 6.2351971386352432 -35.758220343822842 8.3856128287821434 0 -0.70710678939079041 0.70710677298230451 1 0 0 forward_v I I I I #
loop $-1 $-1 $270 $66 #
coedge $-1 $169 $169 $170 $271 reversed $103 $-1 #
coedge $-1 $170 $170 $169 $271 forward $105 $-1 #
coedge $-1 $171 $171 $106 $172 forward $166 $-1 #
edge $-1 $272 -5.8294651990167239e-023 $272 6.2831853071796004 $171 $273 forward 7 unknown #
loop $-1 $-1 $178 $107 #
plane-surface $-1 6.2351971386352432 -35.758220343822842 8.3856128287821434 0 -0.70710678939079041 0.70710677298230451 1 0 0 forward_v I I I I #
loop $-1 $-1 $274 $69 #
coedge $-1 $176 $176 $177 $275 reversed $108 $-1 #
coedge $-1 $177 $177 $176 $275 forward $110 $-1 #
coedge $-1 $178 $178 $111 $179 forward $173 $-1 #
edge $-1 $276 -5.8294651990167239e-023 $276 6.2831853071796004 $178 $277 forward 7 unknown #
face $-1 $278 $279 $27 $-1 $280 reversed single #
loop $-1 $-1 $281 $112 #
plane-surface $-1 -65.941953794976655 0 0 1 0 0 0 0 -1 forward_v I I I I #
coedge $-1 $282 $191 $283 $284 forward $113 $-1 #
coedge $-1 $285 $115 $282 $286 forward $73 $-1 #
coedge $-1 $115 $285 $287 $288 forward $73 $-1 #
coedge $-1 $194 $193 $115 $187 reversed $195 $-1 #
edge $-1 $289 -35.758220343822835 $290 35.758220343822835 $186 $291 forward 7 unknown #
coedge $-1 $117 $116 $292 $293 forward $46 $-1 #
coedge $-1 $294 $295 $116 $190 reversed $279 $-1 #
edge $-1 $197 -65.941953794976655 $296 65.941953794976655 $189 $297 forward 7 unknown #
coedge $-1 $183 $298 $117 $192 reversed $113 $-1 #
edge $-1 $299 -65.941953794976655 $196 65.941953794976655 $191 $300 forward 7 unknown #
coedge $-1 $186 $118 $298 $301 forward $195 $-1 #
coedge $-1 $118 $186 $294 $302 reversed $195 $-1 #
loop $-1 $-1 $193 $278 #
vertex $-1 $119 $303 #
vertex $-1 $119 $304 #
straight-curve $-1 65.941953794976655 0 14.424530188379038 0 1 0 I I #
face $-1 $305 $306 $28 $-1 $307 reversed single #
loop $-1 $-1 $308 $120 #
plane-surface $-1 0 -35.758220343822835 0 0 1 0 0 0 1 forward_v I I I I #
coedge $-1 $205 $126 $309 $310 reversed $121 $-1 #
coedge $-1 $311 $123 $308 $312 reversed $77 $-1 #
coedge $-1 $123 $311 $313 $314 reversed $77 $-1 #
coedge $-1 $212 $202 $123 $206 reversed $121 $-1 #
edge $-1 $315 -35.758220343822835 $316 35.758220343822835 $205 $317 forward 7 unknown #
coedge $-1 $125 $124 $318 $319 reversed $49 $-1 #
coedge $-1 $320 $321 $124 $209 forward $322 $-1 #
edge $-1 $323 -36.721002574337888 $214 -21.720899866939657 $208 $324 forward 7 unknown #
coedge $-1 $325 $309 $125 $211 forward $200 $-1 #
edge $-1 $213 21.720899866939657 $326 36.721002574337888 $210 $327 forward 7 unknown #
coedge $-1 $126 $205 $320 $328 reversed $121 $-1 #
vertex $-1 $211 $329 #
vertex $-1 $209 $330 #
straight-curve $-1 -50.941851087578428 0 6.4219306747525398 0 1 0 I I #
face $-1 $331 $332 $29 $-1 $333 reversed single #
loop $-1 $-1 $334 $128 #
plane-surface $-1 74.82048169813055 0 7.5802008475466405 0 0 1 1 0 0 forward_v I I I I #
coedge $-1 $335 $336 $337 $338 forward $129 $-1 #
coedge $-1 $339 $131 $335 $340 reversed $81 $-1 #
coedge $-1 $131 $339 $226 $341 reversed $81 $-1 #
edge $-1 $228 7.5802008475466405 $342 13.419654961406559 $131 $343 forward 7 unknown #
coedge $-1 $133 $132 $344 $345 forward $52 $-1 #
coedge $-1 $346 $347 $132 $225 forward $348 $-1 #
edge $-1 $349 -13.419654961406559 $229 -7.5802008475466405 $224 $350 forward 7 unknown #
coedge $-1 $334 $134 $221 $341 forward $217 $-1 #
coedge $-1 $134 $334 $346 $351 forward $217 $-1 #
vertex $-1 $222 $352 #
vertex $-1 $225 $353 #
straight-curve $-1 65.941953794976655 0 7.5802008475466405 0 -1 0 I I #
face $-1 $-1 $243 $30 $-1 $354 reversed single #
loop $-1 $-1 $355 $136 #
plane-surface $-1 0 0 14.424530188379038 0 0 1 1 0 0 forward_v I I I I #
coedge $-1 $356 $357 $358 $359 reversed $137 $-1 #
coedge $-1 $360 $139 $141 $241 forward $85 $-1 #
coedge $-1 $139 $360 $356 $361 forward $85 $-1 #
coedge $-1 $358 $142 $139 $238 forward $243 $-1 #
edge $-1 $245 -29.277762387834215 $362 -14.050415011654195 $237 $363 forward 7 unknown #
coedge $-1 $364 $365 $140 $240 forward $232 $-1 #
edge $-1 $366 -34.787810281673565 $244 -28.748893062210378 $239 $367 forward 7 unknown #
edge $-1 $245 1.0048591735576163e-014 $366 8.5403187329027634 $141 $368 forward 7 unknown #
coedge $-1 $142 $358 $364 $369 reversed $243 $-1 #
loop $-1 $-1 $358 $231 #
vertex $-1 $369 $370 #
vertex $-1 $143 $371 #
straight-curve $-1 -50.941851087578421 -35.758220343822835 50.820808566505242 0 0 -1 I I #
coedge $-1 $247 $247 $-1 $372 reversed $146 $-1 #
edge $-1 $373 0 $373 6.2831853071796004 $147 $374 forward 7 unknown #
vertex $-1 $150 $375 #
ellipse-curve $-1 -46.591180408669842 -32.738761734091241 11.405071508580592 0 -0.70710678939079041 0.70710677298230451 2 0 0 1 I I #
coedge $-1 $251 $251 $-1 $376 reversed $153 $-1 #
edge $-1 $377 0 $377 6.2831853071796004 $154 $378 forward 7 unknown #
vertex $-1 $157 $379 #
ellipse-curve $-1 -40.065174390306979 -32.738761734091241 11.405071508580592 0 -0.70710678939079041 0.70710677298230451 2 0 0 1 I I #
face $-1 $-1 $380 $33 $-1 $381 forward single #
loop $-1 $-1 $164 $158 #
plane-surface $-1 0 -35.758220343822835 0 0 1 0 0 0 1 forward_v I I I I #
coedge $-1 $382 $383 $384 $385 reversed $159 $-1 #
coedge $-1 $386 $161 $163 $265 forward $99 $-1 #
coedge $-1 $161 $386 $382 $387 forward $99 $-1 #
coedge $-1 $384 $164 $161 $262 forward $256 $-1 #
edge $-1 $268 -4.4960751187723913 $388 10.731272257407635 $261 $389 forward 7 unknown #
coedge $-1 $390 $391 $162 $264 forward $380 $-1 #
edge $-1 $392 -34.787810281673565 $267 -28.748893062210378 $263 $393 forward 7 unknown #
edge $-1 $268 1.0048591735576163e-014 $392 8.5403187329027634 $163 $394 forward 7 unknown #
coedge $-1 $164 $384 $390 $395 reversed $256 $-1 #
vertex $-1 $395 $396 #
vertex $-1 $165 $397 #
straight-curve $-1 -1.3784765494547697 -35.758220343822835 50.820808566505242 0 0 -1 I I #
coedge $-1 $270 $270 $-1 $398 reversed $168 $-1 #
edge $-1 $399 0 $399 6.2831853071796004 $169 $400 forward 7 unknown #
vertex $-1 $172 $401 #
ellipse-curve $-1 2.9721941294538112 -32.738761734091241 11.405071508580592 0 -0.70710678939079041 0.70710677298230451 2 0 0 1 I I #
coedge $-1 $274 $274 $-1 $402 reversed $175 $-1 #
edge $-1 $403 0 $403 6.2831853071796004 $176 $404 forward 7 unknown #
vertex $-1 $179 $405 #
ellipse-curve $-1 9.4982001478166751 -32.738761734091241 11.405071508580592 0 -0.70710678939079041 0.70710677298230451 2 0 0 1 I I #
face $-1 $-1 $195 $27 $-1 $406 reversed single #
loop $-1 $-1 $294 $180 #
plane-surface $-1 0 35.758220343822835 0 0 -1 0 0 0 -1 forward_v I I I I #
coedge $-1 $407 $292 $295 $408 forward $181 $-1 #
coedge $-1 $298 $183 $184 $286 reversed $113 $-1 #
coedge $-1 $292 $407 $183 $284 reversed $181 $-1 #
edge $-1 $299 -14.424530188379038 $409 14.424530188379038 $283 $410 forward 7 unknown #
coedge $-1 $185 $184 $407 $411 forward $73 $-1 #
edge $-1 $290 -65.941953794976655 $409 65.941953794976655 $282 $412 forward 7 unknown #
coedge $-1 $295 $294 $185 $288 reversed $279 $-1 #
edge $-1 $413 -65.941953794976655 $289 65.941953794976655 $287 $414 forward 7 unknown #
vertex $-1 $187 $415 #
vertex $-1 $301 $416 #
straight-curve $-1 65.941953794976655 0 -14.424530188379038 0 -1 0 I I #
coedge $-1 $281 $283 $188 $293 reversed $181 $-1 #
edge $-1 $296 -35.758220343822835 $299 35.758220343822835 $292 $417 forward 7 unknown #
coedge $-1 $287 $189 $194 $302 forward $279 $-1 #
coedge $-1 $189 $287 $281 $408 reversed $279 $-1 #
vertex $-1 $190 $418 #
straight-curve $-1 0 35.758220343822835 14.424530188379038 -1 0 0 I I #
coedge $-1 $191 $282 $193 $301 reversed $113 $-1 #
vertex $-1 $293 $419 #
straight-curve $-1 0 -35.758220343822835 14.424530188379038 1 0 0 I I #
edge $-1 $196 -14.424530188379038 $290 14.424530188379038 $193 $420 forward 7 unknown #
edge $-1 $197 -14.424530188379038 $289 14.424530188379038 $194 $421 forward 7 unknown #
point $-1 65.941953794976655 -35.758220343822835 14.424530188379038 #
point $-1 65.941953794976655 35.758220343822835 14.424530188379038 #
face $-1 $-1 $322 $28 $-1 $422 reversed single #
loop $-1 $-1 $423 $199 #
plane-surface $-1 -65.941953794976655 0 0 1 0 0 0 0 -1 forward_v I I I I #
coedge $-1 $309 $325 $203 $312 forward $200 $-1 #
coedge $-1 $210 $308 $202 $310 forward $200 $-1 #
edge $-1 $316 -0.20759152951376159 $213 4.3504842930062804 $309 $424 forward 7 unknown #
coedge $-1 $204 $203 $423 $425 reversed $77 $-1 #
edge $-1 $426 -36.721002574337888 $316 -21.720899866939657 $308 $427 forward 7 unknown #
coedge $-1 $321 $320 $204 $314 forward $322 $-1 #
edge $-1 $315 21.720899866939657 $428 36.721002574337888 $313 $429 forward 7 unknown #
vertex $-1 $314 $430 #
vertex $-1 $312 $431 #
straight-curve $-1 -50.941851087578428 0 1.8638548522324978 0 -1 0 I I #
coedge $-1 $432 $433 $207 $319 forward $306 $-1 #
edge $-1 $326 -35.758220343822835 $323 35.758220343822835 $318 $434 forward 7 unknown #
coedge $-1 $313 $208 $212 $328 forward $322 $-1 #
coedge $-1 $208 $313 $432 $435 reversed $322 $-1 #
loop $-1 $-1 $313 $305 #
vertex $-1 $435 $436 #
straight-curve $-1 -29.220951220638771 35.758220343822835 6.4219306747525398 1 0 0 I I #
coedge $-1 $308 $210 $433 $437 forward $200 $-1 #
vertex $-1 $437 $438 #
straight-curve $-1 -29.220951220638771 -35.758220343822835 6.4219306747525398 -1 0 0 I I #
edge $-1 $214 -4.3504842930062804 $315 0.20759152951376159 $320 $439 forward 7 unknown #
point $-1 -50.941851087578428 -35.758220343822835 6.4219306747525398 #
point $-1 -50.941851087578428 35.758220343822835 6.4219306747525398 #
face $-1 $-1 $348 $29 $-1 $440 reversed single #
loop $-1 $-1 $441 $216 #
plane-surface $-1 83.69900960128443 0 10.4999279044766 -1 0 0 0 0 1 forward_v I I I I #
coedge $-1 $227 $226 $442 $443 forward $217 $-1 #
coedge $-1 $344 $219 $220 $340 forward $129 $-1 #
coedge $-1 $219 $344 $347 $444 forward $129 $-1 #
coedge $-1 $441 $445 $219 $338 reversed $332 $-1 #
edge $-1 $446 -35.758220343822835 $447 35.758220343822835 $337 $448 forward 7 unknown #
coedge $-1 $221 $220 $445 $449 forward $81 $-1 #
edge $-1 $447 -8.8785279031538806 $342 8.8785279031538806 $220 $450 forward 7 unknown #
edge $-1 $228 -8.8785279031538806 $451 8.8785279031538806 $221 $452 forward 7 unknown #
vertex $-1 $340 $453 #
straight-curve $-1 65.941953794976655 35.758220343822835 0 0 0 1 I I #
coedge $-1 $336 $335 $223 $345 reversed $129 $-1 #
edge $-1 $349 -35.758220343822835 $342 35.758220343822835 $344 $454 forward 7 unknown #
coedge $-1 $455 $224 $227 $351 reversed $348 $-1 #
coedge $-1 $224 $455 $336 $444 reversed $348 $-1 #
loop $-1 $-1 $224 $331 #
vertex $-1 $225 $456 #
straight-curve $-1 65.941953794976655 -35.758220343822835 0 0 0 -1 I I #
edge $-1 $457 -8.8785279031538806 $229 8.8785279031538806 $346 $458 forward 7 unknown #
point $-1 65.941953794976669 35.758220343822835 7.5802008475466405 #
point $-1 65.941953794976669 -35.758220343822835 7.5802008475466405 #
plane-surface $-1 0 -35.758220343822835 0 0 1 0 0 0 1 forward_v I I I I #
coedge $-1 $365 $364 $357 $459 forward $232 $-1 #
coedge $-1 $357 $234 $236 $361 reversed $137 $-1 #
coedge $-1 $234 $356 $355 $459 reversed $137 $-1 #
coedge $-1 $242 $237 $234 $359 forward $243 $-1 #
edge $-1 $362 -42.435195737723092 $460 -36.396278378126205 $358 $461 forward 7 unknown #
coedge $-1 $236 $235 $365 $462 reversed $85 $-1 #
edge $-1 $463 -8.5403187329027634 $362 -1.0048591735576163e-014 $356 $464 forward 7 unknown #
vertex $-1 $238 $465 #
straight-curve $-1 -21.664088699744205 -35.758220343822835 8.3856128287821523 1 0 0 I I #
coedge $-1 $355 $239 $242 $369 forward $232 $-1 #
coedge $-1 $239 $355 $360 $462 forward $232 $-1 #
vertex $-1 $240 $466 #
straight-curve $-1 -50.941851087578421 -64.507113406033213 14.424530188379038 0 -1 0 I I #
straight-curve $-1 -50.941851087578421 -35.758220343822842 8.3856128287821434 0 0.70710677298230451 0.70710678939079041 I I #
edge $-1 $244 -50.941851087578421 $460 -35.7145037113984 $242 $467 forward 7 unknown #
point $-1 -50.941851087578421 -35.758220343822835 14.424530188379038 #
point $-1 -50.941851087578421 -35.758220343822835 8.3856128287821505 #
edge $-1 $468 1 $468 0 $247 $-1 forward 7 unknown #
vertex $-1 $248 $469 #
ellipse-curve $-1 -46.591180408669842 -29.548742689476097 8.2150525379901698 0 -0.70710678939079041 0.70710677298230451 2 0 0 1 I I #
point $-1 -44.591180408669842 -32.738761734091234 11.405071508580585 #
edge $-1 $470 1 $470 0 $251 $-1 forward 7 unknown #
vertex $-1 $252 $471 #
ellipse-curve $-1 -40.065174390306979 -29.548742689476097 8.2150525379901698 0 -0.70710678939079041 0.70710677298230451 2 0 0 1 I I #
point $-1 -38.065174390306979 -32.738761734091234 11.405071508580585 #
loop $-1 $-1 $263 $255 #
plane-surface $-1 0 0 14.424530188379038 0 0 1 1 0 0 forward_v I I I I #
coedge $-1 $383 $258 $260 $387 reversed $159 $-1 #
coedge $-1 $258 $382 $472 $473 reversed $159 $-1 #
coedge $-1 $266 $261 $258 $385 forward $256 $-1 #
edge $-1 $388 -42.435195737723092 $474 -36.396278378126205 $384 $475 forward 7 unknown #
coedge $-1 $260 $259 $391 $476 reversed $99 $-1 #
edge $-1 $477 -8.5403187329027634 $388 -1.0048591735576163e-014 $382 $478 forward 7 unknown #
vertex $-1 $262 $479 #
straight-curve $-1 3.1175985693176216 -35.758220343822835 8.3856128287821523 1 0 0 I I #
coedge $-1 $472 $263 $266 $395 forward $380 $-1 #
coedge $-1 $263 $472 $386 $476 forward $380 $-1 #
vertex $-1 $264 $480 #
straight-curve $-1 -1.3784765494547697 -64.507113406033213 14.424530188379038 0 -1 0 I I #
straight-curve $-1 -1.3784765494547697 -35.758220343822842 8.3856128287821434 0 0.70710677298230451 0.70710678939079041 I I #
edge $-1 $267 -1.3784765494547697 $474 13.848870826725257 $266 $481 forward 7 unknown #
point $-1 -1.3784765494547697 -35.758220343822835 14.424530188379038 #
point $-1 -1.3784765494547697 -35.758220343822835 8.3856128287821505 #
edge $-1 $482 1 $482 0 $270 $-1 forward 7 unknown #
vertex $-1 $271 $483 #
ellipse-curve $-1 2.9721941294538112 -29.548742689476097 8.2150525379901698 0 -0.70710678939079041 0.70710677298230451 2 0 0 1 I I #
point $-1 4.9721941294538112 -32.738761734091234 11.405071508580585 #
edge $-1 $484 1 $484 0 $274 $-1 forward 7 unknown #
vertex $-1 $275 $485 #
ellipse-curve $-1 9.4982001478166751 -29.548742689476097 8.2150525379901698 0 -0.70710678939079041 0.70710677298230451 2 0 0 1 I I #
point $-1 11.498200147816675 -32.738761734091234 11.405071508580585 #
plane-surface $-1 65.941953794976655 0 0 -1 0 0 0 0 1 forward_v I I I I #
coedge $-1 $283 $281 $285 $411 reversed $181 $-1 #
edge $-1 $296 -14.424530188379038 $413 14.424530188379038 $295 $486 forward 7 unknown #
vertex $-1 $411 $487 #
straight-curve $-1 -65.941953794976655 -35.758220343822835 0 0 0 -1 I I #
edge $-1 $409 -35.758220343822835 $413 35.758220343822835 $407 $488 forward 7 unknown #
straight-curve $-1 0 -35.758220343822835 -14.424530188379038 -1 0 0 I I #
vertex $-1 $288 $489 #
straight-curve $-1 0 35.758220343822835 -14.424530188379038 1 0 0 I I #
point $-1 65.941953794976655 35.758220343822835 -14.424530188379038 #
point $-1 65.941953794976655 -35.758220343822835 -14.424530188379038 #
straight-curve $-1 -65.941953794976655 0 14.424530188379038 0 -1 0 I I #
point $-1 -65.941953794976655 35.758220343822835 14.424530188379038 #
point $-1 -65.941953794976655 -35.758220343822835 14.424530188379038 #
straight-curve $-1 65.941953794976655 -35.758220343822835 0 0 0 -1 I I #
straight-curve $-1 65.941953794976655 35.758220343822835 0 0 0 -1 I I #
plane-surface $-1 0 35.758220343822835 0 0 -1 0 0 0 -1 forward_v I I I I #
coedge $-1 $433 $432 $311 $425 forward $306 $-1 #
straight-curve $-1 -50.941851087578428 -35.758220343822835 2.0714463817462594 0 0 1 I I #
edge $-1 $428 -35.758220343822835 $426 35.758220343822835 $423 $490 forward 7 unknown #
vertex $-1 $312 $491 #
straight-curve $-1 -29.220951220638771 -35.758220343822835 1.8638548522324978 1 0 0 I I #
vertex $-1 $314 $492 #
straight-curve $-1 -29.220951220638771 35.758220343822835 1.8638548522324978 -1 0 0 I I #
point $-1 -50.941851087578428 35.758220343822835 1.8638548522324978 #
point $-1 -50.941851087578428 -35.758220343822835 1.8638548522324978 #
coedge $-1 $423 $318 $321 $435 forward $306 $-1 #
coedge $-1 $318 $423 $325 $437 reversed $306 $-1 #
straight-curve $-1 -65.941953794976655 0 6.4219306747525398 0 1 0 I I #
edge $-1 $323 -6.4219306747525398 $428 -1.8638548522324978 $321 $493 forward 7 unknown #
point $-1 -65.941953794976655 35.758220343822835 6.4219306747525398 #
edge $-1 $326 -6.4219306747525398 $426 -1.8638548522324978 $433 $494 forward 7 unknown #
point $-1 -65.941953794976655 -35.758220343822835 6.4219306747525398 #
straight-curve $-1 -50.941851087578428 35.758220343822835 2.0714463817462594 0 0 -1 I I #
plane-surface $-1 0 -35.758220343822835 0 0 1 0 0 0 1 forward_v I I I I #
coedge $-1 $442 $337 $455 $495 forward $332 $-1 #
coedge $-1 $445 $441 $334 $443 reversed $332 $-1 #
edge $-1 $451 -35.758220343822835 $457 35.758220343822835 $442 $496 forward 7 unknown #
edge $-1 $349 -8.8785279031538806 $446 8.8785279031538806 $347 $497 forward 7 unknown #
coedge $-1 $337 $442 $339 $449 reversed $332 $-1 #
vertex $-1 $338 $498 #
vertex $-1 $338 $499 #
straight-curve $-1 83.69900960128443 0 13.419654961406559 0 1 0 I I #
edge $-1 $447 -2.9197270569299594 $451 2.9197270569299594 $445 $500 forward 7 unknown #
straight-curve $-1 74.82048169813055 35.758220343822835 13.419654961406559 -1 0 0 I I #
vertex $-1 $443 $501 #
straight-curve $-1 74.82048169813055 35.758220343822835 7.5802008475466405 1 0 0 I I #
point $-1 65.941953794976669 35.758220343822835 13.419654961406559 #
straight-curve $-1 65.941953794976655 0 13.419654961406559 0 1 0 I I #
coedge $-1 $347 $346 $441 $495 reversed $348 $-1 #
point $-1 65.941953794976669 -35.758220343822835 13.419654961406559 #
vertex $-1 $495 $502 #
straight-curve $-1 74.82048169813055 -35.758220343822835 7.5802008475466405 -1 0 0 I I #
edge $-1 $460 28.748893062210378 $463 34.787810281673565 $355 $503 forward 7 unknown #
vertex $-1 $359 $504 #
straight-curve $-1 -35.7145037113984 -35.758220343822835 50.820808566505242 0 0 1 I I #
edge $-1 $463 14.050415011654195 $366 29.277762387834215 $365 $505 forward 7 unknown #
vertex $-1 $462 $506 #
straight-curve $-1 -35.7145037113984 -35.758220343822842 8.3856128287821434 0 -0.70710677298230451 -0.70710678939079041 I I #
point $-1 -35.7145037113984 -35.758220343822835 8.3856128287821505 #
point $-1 -50.941851087578421 -29.719303124359648 14.424530188379038 #
straight-curve $-1 0 -35.758220343822835 14.424530188379038 1 0 0 I I #
vertex $-1 $372 $507 #
point $-1 -44.591180408669842 -29.548742689476097 8.2150525379901698 #
vertex $-1 $376 $508 #
point $-1 -38.065174390306979 -29.548742689476097 8.2150525379901698 #
coedge $-1 $391 $390 $383 $473 forward $380 $-1 #
edge $-1 $474 28.748893062210378 $477 34.787810281673565 $472 $509 forward 7 unknown #
vertex $-1 $473 $510 #
straight-curve $-1 13.848870826725257 -35.758220343822835 50.820808566505242 0 0 1 I I #
edge $-1 $477 -10.731272257407635 $392 4.4960751187723913 $391 $511 forward 7 unknown #
vertex $-1 $476 $512 #
straight-curve $-1 13.848870826725257 -35.758220343822842 8.3856128287821434 0 -0.70710677298230451 -0.70710678939079041 I I #
point $-1 13.848870826725257 -35.758220343822835 8.3856128287821505 #
point $-1 -1.3784765494547697 -29.719303124359648 14.424530188379038 #
straight-curve $-1 0 -35.758220343822835 14.424530188379038 1 0 0 I I #
vertex $-1 $398 $513 #
point $-1 4.9721941294538112 -29.548742689476097 8.2150525379901698 #
vertex $-1 $402 $514 #
point $-1 11.498200147816675 -29.548742689476097 8.2150525379901698 #
straight-curve $-1 -65.941953794976655 35.758220343822835 0 0 0 -1 I I #
point $-1 -65.941953794976655 -35.758220343822835 -14.424530188379038 #
straight-curve $-1 -65.941953794976655 0 -14.424530188379038 0 1 0 I I #
point $-1 -65.941953794976655 35.758220343822835 -14.424530188379038 #
straight-curve $-1 -65.941953794976655 0 1.8638548522324978 0 -1 0 I I #
point $-1 -65.941953794976655 -35.758220343822835 1.8638548522324978 #
point $-1 -65.941953794976655 35.758220343822835 1.8638548522324978 #
straight-curve $-1 -65.941953794976655 35.758220343822835 0 0 0 -1 I I #
straight-curve $-1 -65.941953794976655 -35.758220343822835 0 0 0 -1 I I #
edge $-1 $446 -2.9197270569299594 $457 2.9197270569299594 $441 $515 forward 7 unknown #
straight-curve $-1 83.69900960128443 0 7.5802008475466405 0 -1 0 I I #
straight-curve $-1 74.82048169813055 -35.758220343822835 13.419654961406559 1 0 0 I I #
point $-1 83.69900960128443 -35.758220343822835 13.419654961406559 #
point $-1 83.69900960128443 35.758220343822835 13.419654961406559 #
straight-curve $-1 83.69900960128443 35.758220343822835 10.4999279044766 0 0 -1 I I #
point $-1 83.69900960128443 35.758220343822835 7.5802008475466405 #
point $-1 83.69900960128443 -35.758220343822835 7.5802008475466405 #
straight-curve $-1 -35.7145037113984 -64.507113406033213 14.424530188379038 0 1 0 I I #
point $-1 -35.7145037113984 -35.758220343822835 14.424530188379038 #
straight-curve $-1 -21.664088699744205 -29.719303124359648 14.424530188379038 -1 0 0 I I #
point $-1 -35.7145037113984 -29.719303124359648 14.424530188379038 #
point $-1 -46.591180408669842 -28.134529110694519 6.8008389920255601 #
point $-1 -40.065174390306979 -28.134529110694519 6.8008389920255601 #
straight-curve $-1 13.848870826725257 -64.507113406033213 14.424530188379038 0 1 0 I I #
point $-1 13.848870826725257 -35.758220343822835 14.424530188379038 #
straight-curve $-1 3.1175985693176216 -29.719303124359648 14.424530188379038 -1 0 0 I I #
point $-1 13.848870826725257 -29.719303124359648 14.424530188379038 #
point $-1 2.9721941294538112 -28.134529110694519 6.8008389920255601 #
point $-1 9.4982001478166751 -28.134529110694519 6.8008389920255601 #
straight-curve $-1 83.69900960128443 -35.758220343822835 10.4999279044766 0 0 -1 I I #
End-of-ACIS-data 