500 0 14 0           
7 Unknown 11 ACIS 5.0 NT 24 Fri Mar 26 17:26:04 1999 
-1 9.9999999999999995e-007 1e-010 
body $-1 $14 $-1 $15 #
body $-1 $16 $-1 $17 #
body $-1 $18 $-1 $19 #
body $-1 $20 $-1 $21 #
body $-1 $22 $-1 $23 #
body $-1 $24 $-1 $25 #
body $-1 $26 $-1 $27 #
body $-1 $28 $-1 $29 #
body $-1 $30 $-1 $31 #
body $-1 $32 $-1 $33 #
body $-1 $34 $-1 $35 #
body $-1 $36 $-1 $37 #
body $-1 $38 $-1 $39 #
body $-1 $40 $-1 $41 #
lump $-1 $-1 $42 $0 #
transform $-1 1 0 0 0 1 0 0 0 1 45.669118320261241 25.345266571310116 8.7498292628150285 1 rotate no_reflect no_shear #
lump $-1 $-1 $43 $1 #
transform $-1 1 0 0 0 1 0 0 0 1 45.669118320261241 25.345266571310116 8.7498292628150285 1 rotate no_reflect no_shear #
lump $-1 $-1 $44 $2 #
transform $-1 1 0 0 0 1 0 0 0 1 45.669118320261241 25.345266571310116 8.7498292628150285 1 rotate no_reflect no_shear #
lump $-1 $-1 $45 $3 #
transform $-1 1 0 0 0 1 0 0 0 1 45.669118320261241 25.345266571310116 8.7498292628150285 1 rotate no_reflect no_shear #
lump $-1 $-1 $46 $4 #
transform $-1 1 0 0 0 1 0 0 0 1 45.669118320261241 25.345266571310116 8.7498292628150285 1 rotate no_reflect no_shear #
lump $-1 $-1 $47 $5 #
transform $-1 1 0 0 0 1 0 0 0 1 45.669118320261241 25.345266571310116 8.7498292628150285 1 rotate no_reflect no_shear #
lump $-1 $-1 $48 $6 #
transform $-1 1 0 0 0 1 0 0 0 1 45.669118320261241 25.345266571310116 8.7498292628150285 1 rotate no_reflect no_shear #
lump $-1 $-1 $49 $7 #
transform $-1 1 0 0 0 1 0 0 0 1 45.669118320261241 25.345266571310116 8.7498292628150285 1 rotate no_reflect no_shear #
lump $-1 $-1 $50 $8 #
transform $-1 1 0 0 0 1 0 0 0 1 45.669118320261241 25.345266571310116 8.7498292628150285 1 rotate no_reflect no_shear #
lump $-1 $-1 $51 $9 #
transform $-1 1 0 0 0 1 0 0 0 1 45.669118320261241 25.345266571310116 8.7498292628150285 1 rotate no_reflect no_shear #
lump $-1 $-1 $52 $10 #
transform $-1 1 0 0 0 1 0 0 0 1 45.669118320261241 25.345266571310116 8.7498292628150285 1 rotate no_reflect no_shear #
lump $-1 $-1 $53 $11 #
transform $-1 1 0 0 0 1 0 0 0 1 45.669118320261241 25.345266571310116 8.7498292628150285 1 rotate no_reflect no_shear #
lump $-1 $-1 $54 $12 #
transform $-1 1 0 0 0 1 0 0 0 1 45.669118320261241 25.345266571310116 8.7498292628150285 1 rotate no_reflect no_shear #
lump $-1 $-1 $55 $13 #
transform $-1 1 0 0 0 1 0 0 0 1 45.669118320261241 25.345266571310116 8.7498292628150285 1 rotate no_reflect no_shear #
shell $-1 $-1 $-1 $56 $-1 $14 #
shell $-1 $-1 $-1 $57 $-1 $16 #
shell $-1 $-1 $-1 $58 $-1 $18 #
shell $-1 $-1 $-1 $59 $-1 $20 #
shell $-1 $-1 $-1 $60 $-1 $22 #
shell $-1 $-1 $-1 $61 $-1 $24 #
shell $-1 $-1 $-1 $62 $-1 $26 #
shell $-1 $-1 $-1 $63 $-1 $28 #
shell $-1 $-1 $-1 $64 $-1 $30 #
shell $-1 $-1 $-1 $65 $-1 $32 #
shell $-1 $-1 $-1 $66 $-1 $34 #
shell $-1 $-1 $-1 $67 $-1 $36 #
shell $-1 $-1 $-1 $68 $-1 $38 #
shell $-1 $-1 $-1 $69 $-1 $40 #
face $-1 $70 $71 $42 $-1 $72 forward single #
face $-1 $73 $74 $43 $-1 $75 forward single #
face $-1 $76 $77 $44 $-1 $78 reversed single #
face $-1 $79 $80 $45 $-1 $81 reversed single #
face $-1 $82 $83 $46 $-1 $84 forward single #
face $-1 $85 $86 $47 $-1 $87 forward single #
face $-1 $88 $89 $48 $-1 $90 reversed single #
face $-1 $91 $92 $49 $-1 $93 forward single #
face $-1 $94 $95 $50 $-1 $96 forward single #
face $-1 $97 $98 $51 $-1 $99 forward single #
face $-1 $100 $101 $52 $-1 $102 reversed single #
face $-1 $103 $104 $53 $-1 $105 forward single #
face $-1 $106 $107 $54 $-1 $108 forward single #
face $-1 $109 $110 $55 $-1 $111 forward single #
face $-1 $112 $113 $42 $-1 $114 reversed single #
loop $-1 $-1 $115 $56 #
plane-surface $-1 0 0 8.7498292628150285 0 0 1 1 0 0 forward_v I I I I #
face $-1 $116 $117 $43 $-1 $118 forward single #
loop $-1 $-1 $119 $57 #
plane-surface $-1 0 -25.345266571310116 0 0 1 0 0 0 1 forward_v I I I I #
face $-1 $120 $121 $44 $-1 $122 reversed single #
loop $-1 $-1 $123 $58 #
plane-surface $-1 0 20.531949898503658 5.7498292628150285 0 0 1 1 0 0 forward_v I I I I #
face $-1 $124 $125 $45 $-1 $126 reversed single #
loop $-1 $-1 $127 $59 #
plane-surface $-1 -98.058579270310943 8.6149122932476665 75.164538086869186 0 1 0 -0.57357644374324357 0 0.81915203911291934 forward_v I I I I #
face $-1 $128 $129 $46 $-1 $130 forward single #
loop $-1 $131 $132 $60 #
cone-surface $-1 -39.380399707107074 10.644546845376102 4.1376562587544754 0.57357644374324357 0 -0.81915203911291934 0.40957601955645967 0 0.28678822187162178 1 I I 0 1 0.5 forward I I I I #
face $-1 $133 $134 $47 $-1 $135 forward single #
loop $-1 $136 $137 $61 #
cone-surface $-1 -39.380399707107074 13.688998673568758 4.1376562587544754 0.57357644374324357 0 -0.81915203911291934 0.40957601955645967 0 0.28678822187162178 1 I I 0 1 0.5 forward I I I I #
face $-1 $138 $139 $48 $-1 $140 reversed single #
loop $-1 $-1 $141 $62 #
plane-surface $-1 41.161089884924017 -8.3714323188152591 132.13970322777558 0 -1 0 -0.68199836817093118 0 -0.7313536940579346 forward_v I I I I #
face $-1 $142 $143 $49 $-1 $144 forward single #
loop $-1 $145 $146 $63 #
cone-surface $-1 42.240476862250532 -13.399006686090853 5.5007299301232822 -0.68199836817093118 0 -0.7313536940579346 0.3656768470289673 0 -0.34099918408546559 1 I I 0 1 0.5 forward I I I I #
face $-1 $147 $148 $50 $-1 $149 forward single #
loop $-1 $150 $151 $64 #
cone-surface $-1 42.240476862250532 -11.513666298362505 5.5007299301232822 -0.68199836817093118 0 -0.7313536940579346 0.3656768470289673 0 -0.34099918408546559 1 I I 0 1 0.5 forward I I I I #
face $-1 $152 $153 $51 $-1 $154 forward single #
loop $-1 $155 $156 $65 #
cone-surface $-1 42.240476862250532 -9.6283259106341568 5.5007299301232822 -0.68199836817093118 0 -0.7313536940579346 0.3656768470289673 0 -0.34099918408546559 1 I I 0 1 0.5 forward I I I I #
face $-1 $157 $158 $52 $-1 $159 reversed single #
loop $-1 $-1 $160 $66 #
plane-surface $-1 41.161089884924017 6.8158344329882192 132.13970322777558 0 -1 0 -0.68199836817093118 0 -0.7313536940579346 forward_v I I I I #
face $-1 $161 $162 $53 $-1 $163 forward single #
loop $-1 $164 $165 $67 #
cone-surface $-1 42.240476862250532 1.788260065712624 5.5007299301232822 -0.68199836817093118 0 -0.7313536940579346 0.3656768470289673 0 -0.34099918408546559 1 I I 0 1 0.5 forward I I I I #
face $-1 $166 $167 $54 $-1 $168 forward single #
loop $-1 $169 $170 $68 #
cone-surface $-1 42.240476862250532 3.6736004534409723 5.5007299301232822 -0.68199836817093118 0 -0.7313536940579346 0.3656768470289673 0 -0.34099918408546559 1 I I 0 1 0.5 forward I I I I #
face $-1 $171 $172 $55 $-1 $173 forward single #
loop $-1 $174 $175 $69 #
cone-surface $-1 42.240476862250532 5.5589408411693206 5.5007299301232822 -0.68199836817093118 0 -0.7313536940579346 0.3656768470289673 0 -0.34099918408546559 1 I I 0 1 0.5 forward I I I I #
face $-1 $176 $177 $42 $-1 $178 reversed single #
loop $-1 $-1 $179 $70 #
plane-surface $-1 0 0 -8.7498292628150285 0 0 1 1 0 0 forward_v I I I I #
coedge $-1 $180 $181 $182 $183 forward $71 $-1 #
face $-1 $184 $185 $43 $-1 $186 reversed single #
loop $-1 $-1 $187 $73 #
plane-surface $-1 0 0 8.7498292628150285 0 0 1 1 0 0 forward_v I I I I #
coedge $-1 $188 $189 $190 $191 forward $74 $-1 #
face $-1 $192 $193 $44 $-1 $194 reversed single #
loop $-1 $-1 $195 $76 #
plane-surface $-1 0 15.7186332256972 7.2498292628150285 0 1 0 0 0 1 forward_v I I I I #
coedge $-1 $196 $197 $198 $199 reversed $77 $-1 #
face $-1 $200 $201 $45 $-1 $202 forward single #
loop $-1 $-1 $203 $79 #
plane-surface $-1 -45.669118320261234 12.166772759472433 0.34463529380683156 -0.57357644374324357 0 0.81915203911291934 0.81915203911291934 0 0.57357644374324357 forward_v I I I I #
coedge $-1 $204 $205 $206 $207 reversed $80 $-1 #
face $-1 $-1 $208 $46 $-1 $209 forward single #
loop $-1 $210 $211 $82 #
cone-surface $-1 -38.95021737429964 10.644546845376102 3.5232922294197859 0.57357644374324357 0 -0.81915203911291934 0.20478800977822983 0 0.14339411093581089 1 I I -0.70710678118654746 0.70710678118654746 0.25 forward I I I I #
loop $-1 $-1 $212 $60 #
coedge $-1 $132 $132 $213 $214 reversed $83 $-1 #
face $-1 $-1 $215 $47 $-1 $216 forward single #
loop $-1 $217 $218 $85 #
cone-surface $-1 -38.95021737429964 13.688998673568758 3.5232922294197859 0.57357644374324357 0 -0.81915203911291934 0.20478800977822983 0 0.14339411093581089 1 I I -0.70710678118654746 0.70710678118654746 0.25 forward I I I I #
loop $-1 $-1 $219 $61 #
coedge $-1 $137 $137 $220 $221 reversed $86 $-1 #
face $-1 $222 $223 $48 $-1 $224 reversed single #
loop $-1 $-1 $225 $88 #
plane-surface $-1 -21.13143845552267 -11.513666298362505 65.339146451991667 0.68199836817093118 0 0.7313536940579346 0.7313536940579346 0 -0.68199836817093118 forward_v I I I I #
coedge $-1 $226 $227 $228 $229 reversed $89 $-1 #
face $-1 $-1 $230 $49 $-1 $231 forward single #
loop $-1 $232 $233 $91 #
cone-surface $-1 41.699308336867666 -13.399006686090853 4.9203977495520714 -0.68199836817093118 0 -0.7313536940579346 0.18283842351448365 0 -0.17049959204273279 1 I I -0.70710678118654746 0.70710678118654746 0.25 forward I I I I #
loop $-1 $-1 $234 $63 #
coedge $-1 $146 $146 $235 $236 reversed $92 $-1 #
face $-1 $-1 $237 $50 $-1 $238 forward single #
loop $-1 $239 $240 $94 #
cone-surface $-1 41.699308336867666 -11.513666298362505 4.9203977495520714 -0.68199836817093118 0 -0.7313536940579346 0.18283842351448365 0 -0.17049959204273279 1 I I -0.70710678118654746 0.70710678118654746 0.25 forward I I I I #
loop $-1 $-1 $241 $64 #
coedge $-1 $151 $151 $242 $243 reversed $95 $-1 #
face $-1 $-1 $244 $51 $-1 $245 forward single #
loop $-1 $246 $247 $97 #
cone-surface $-1 41.699308336867666 -9.6283259106341568 4.9203977495520714 -0.68199836817093118 0 -0.7313536940579346 0.18283842351448365 0 -0.17049959204273279 1 I I -0.70710678118654746 0.70710678118654746 0.25 forward I I I I #
loop $-1 $-1 $248 $65 #
coedge $-1 $156 $156 $249 $250 reversed $98 $-1 #
face $-1 $251 $252 $52 $-1 $253 reversed single #
loop $-1 $-1 $254 $100 #
plane-surface $-1 -21.13143845552267 3.6736004534409723 65.339146451991667 0.68199836817093118 0 0.7313536940579346 0.7313536940579346 0 -0.68199836817093118 forward_v I I I I #
coedge $-1 $255 $256 $257 $258 reversed $101 $-1 #
face $-1 $-1 $259 $53 $-1 $260 forward single #
loop $-1 $261 $262 $103 #
cone-surface $-1 41.699308336867666 1.788260065712624 4.9203977495520714 -0.68199836817093118 0 -0.7313536940579346 0.18283842351448365 0 -0.17049959204273279 1 I I -0.70710678118654746 0.70710678118654746 0.25 forward I I I I #
loop $-1 $-1 $263 $67 #
coedge $-1 $165 $165 $264 $265 reversed $104 $-1 #
face $-1 $-1 $266 $54 $-1 $267 forward single #
loop $-1 $268 $269 $106 #
cone-surface $-1 41.699308336867666 3.6736004534409723 4.9203977495520714 -0.68199836817093118 0 -0.7313536940579346 0.18283842351448365 0 -0.17049959204273279 1 I I -0.70710678118654746 0.70710678118654746 0.25 forward I I I I #
loop $-1 $-1 $270 $68 #
coedge $-1 $170 $170 $271 $272 reversed $107 $-1 #
face $-1 $-1 $273 $55 $-1 $274 forward single #
loop $-1 $275 $276 $109 #
cone-surface $-1 41.699308336867666 5.5589408411693206 4.9203977495520714 -0.68199836817093118 0 -0.7313536940579346 0.18283842351448365 0 -0.17049959204273279 1 I I -0.70710678118654746 0.70710678118654746 0.25 forward I I I I #
loop $-1 $-1 $277 $69 #
coedge $-1 $175 $175 $278 $279 reversed $110 $-1 #
face $-1 $280 $281 $42 $-1 $282 reversed single #
loop $-1 $-1 $283 $112 #
plane-surface $-1 0 -25.345266571310116 0 0 1 0 0 0 1 forward_v I I I I #
coedge $-1 $284 $285 $286 $287 forward $113 $-1 #
coedge $-1 $288 $115 $289 $290 forward $71 $-1 #
coedge $-1 $115 $288 $291 $292 forward $71 $-1 #
coedge $-1 $293 $294 $115 $183 reversed $295 $-1 #
edge $-1 $296 -25.345266571310116 $297 25.345266571310116 $182 $298 forward 7 unknown #
face $-1 $299 $300 $43 $-1 $301 reversed single #
loop $-1 $-1 $302 $116 #
plane-surface $-1 -45.669118320261241 0 0 1 0 0 0 0 -1 forward_v I I I I #
coedge $-1 $303 $304 $305 $306 forward $117 $-1 #
coedge $-1 $305 $119 $302 $307 reversed $74 $-1 #
coedge $-1 $119 $305 $308 $309 reversed $74 $-1 #
coedge $-1 $310 $311 $119 $191 reversed $300 $-1 #
edge $-1 $312 -45.669118320261241 $313 45.669118320261241 $190 $314 forward 7 unknown #
face $-1 $315 $316 $44 $-1 $317 reversed single #
loop $-1 $-1 $318 $120 #
plane-surface $-1 45.669118320261241 0 0 -1 0 0 0 0 1 forward_v I I I I #
coedge $-1 $319 $320 $196 $321 reversed $121 $-1 #
coedge $-1 $322 $123 $195 $321 forward $77 $-1 #
coedge $-1 $123 $322 $323 $324 reversed $77 $-1 #
coedge $-1 $325 $318 $123 $199 forward $193 $-1 #
edge $-1 $326 5.452658276445371 $327 15.079291622058287 $198 $328 forward 7 unknown #
face $-1 $329 $330 $45 $-1 $331 forward single #
loop $-1 $-1 $206 $124 #
plane-surface $-1 0 0 8.7498292628150285 0 0 1 1 0 0 forward_v I I I I #
coedge $-1 $332 $333 $334 $335 reversed $125 $-1 #
coedge $-1 $205 $127 $336 $337 reversed $80 $-1 #
coedge $-1 $127 $204 $332 $338 reversed $80 $-1 #
coedge $-1 $334 $339 $127 $207 forward $201 $-1 #
edge $-1 $340 3.3601713148942309 $341 15.364032097459337 $206 $342 forward 7 unknown #
loop $-1 $-1 $213 $128 #
plane-surface $-1 -45.669118320261234 12.166772759472433 0.34463529380683156 -0.57357644374324357 0 0.81915203911291934 0.81915203911291934 0 0.57357644374324357 forward_v I I I I #
loop $-1 $-1 $343 $82 #
coedge $-1 $211 $211 $212 $344 reversed $129 $-1 #
coedge $-1 $212 $212 $211 $344 forward $131 $-1 #
coedge $-1 $213 $213 $132 $214 forward $208 $-1 #
edge $-1 $345 0 $345 6.2831853071796004 $213 $346 forward 7 unknown #
loop $-1 $-1 $220 $133 #
plane-surface $-1 -45.669118320261234 12.166772759472433 0.34463529380683156 -0.57357644374324357 0 0.81915203911291934 0.81915203911291934 0 0.57357644374324357 forward_v I I I I #
loop $-1 $-1 $347 $85 #
coedge $-1 $218 $218 $219 $348 reversed $134 $-1 #
coedge $-1 $219 $219 $218 $348 forward $136 $-1 #
coedge $-1 $220 $220 $137 $221 forward $215 $-1 #
edge $-1 $349 0 $349 6.2831853071796004 $220 $350 forward 7 unknown #
face $-1 $351 $352 $48 $-1 $353 reversed single #
loop $-1 $-1 $354 $138 #
plane-surface $-1 41.161089884924017 -14.655900277909751 132.13970322777558 0 1 0 0.68199836817093118 0 0.7313536940579346 forward_v I I I I #
coedge $-1 $355 $356 $357 $358 reversed $139 $-1 #
coedge $-1 $227 $141 $359 $360 reversed $89 $-1 #
coedge $-1 $141 $226 $355 $361 reversed $89 $-1 #
coedge $-1 $357 $362 $141 $229 forward $363 $-1 #
edge $-1 $364 -25.088573377799232 $365 -18.972628328458068 $228 $366 forward 7 unknown #
loop $-1 $-1 $235 $142 #
plane-surface $-1 -21.13143845552267 -11.513666298362505 65.339146451991667 0.68199836817093118 0 0.7313536940579346 0.7313536940579346 0 -0.68199836817093118 forward_v I I I I #
loop $-1 $-1 $367 $91 #
coedge $-1 $233 $233 $234 $368 reversed $143 $-1 #
coedge $-1 $234 $234 $233 $368 forward $145 $-1 #
coedge $-1 $235 $235 $146 $236 forward $230 $-1 #
edge $-1 $369 0 $369 6.2831853071796004 $235 $370 forward 7 unknown #
loop $-1 $-1 $242 $147 #
plane-surface $-1 -21.13143845552267 -11.513666298362505 65.339146451991667 0.68199836817093118 0 0.7313536940579346 0.7313536940579346 0 -0.68199836817093118 forward_v I I I I #
loop $-1 $-1 $371 $94 #
coedge $-1 $240 $240 $241 $372 reversed $148 $-1 #
coedge $-1 $241 $241 $240 $372 forward $150 $-1 #
coedge $-1 $242 $242 $151 $243 forward $237 $-1 #
edge $-1 $373 0 $373 6.2831853071796004 $242 $374 forward 7 unknown #
loop $-1 $-1 $249 $152 #
plane-surface $-1 -21.13143845552267 -11.513666298362505 65.339146451991667 0.68199836817093118 0 0.7313536940579346 0.7313536940579346 0 -0.68199836817093118 forward_v I I I I #
loop $-1 $-1 $375 $97 #
coedge $-1 $247 $247 $248 $376 reversed $153 $-1 #
coedge $-1 $248 $248 $247 $376 forward $155 $-1 #
coedge $-1 $249 $249 $156 $250 forward $244 $-1 #
edge $-1 $377 0 $377 6.2831853071796004 $249 $378 forward 7 unknown #
face $-1 $379 $380 $52 $-1 $381 reversed single #
loop $-1 $-1 $382 $157 #
plane-surface $-1 41.161089884924017 0.53136647389372538 132.13970322777558 0 1 0 0.68199836817093118 0 0.7313536940579346 forward_v I I I I #
coedge $-1 $383 $384 $385 $386 reversed $158 $-1 #
coedge $-1 $256 $160 $387 $388 reversed $101 $-1 #
coedge $-1 $160 $255 $383 $389 reversed $101 $-1 #
coedge $-1 $385 $390 $160 $258 forward $391 $-1 #
edge $-1 $392 -25.088573377799232 $393 -18.972628328458068 $257 $394 forward 7 unknown #
loop $-1 $-1 $264 $161 #
plane-surface $-1 -21.13143845552267 3.6736004534409723 65.339146451991667 0.68199836817093118 0 0.7313536940579346 0.7313536940579346 0 -0.68199836817093118 forward_v I I I I #
loop $-1 $-1 $395 $103 #
coedge $-1 $262 $262 $263 $396 reversed $162 $-1 #
coedge $-1 $263 $263 $262 $396 forward $164 $-1 #
coedge $-1 $264 $264 $165 $265 forward $259 $-1 #
edge $-1 $397 0 $397 6.2831853071796004 $264 $398 forward 7 unknown #
loop $-1 $-1 $271 $166 #
plane-surface $-1 -21.13143845552267 3.6736004534409723 65.339146451991667 0.68199836817093118 0 0.7313536940579346 0.7313536940579346 0 -0.68199836817093118 forward_v I I I I #
loop $-1 $-1 $399 $106 #
coedge $-1 $269 $269 $270 $400 reversed $167 $-1 #
coedge $-1 $270 $270 $269 $400 forward $169 $-1 #
coedge $-1 $271 $271 $170 $272 forward $266 $-1 #
edge $-1 $401 0 $401 6.2831853071796004 $271 $402 forward 7 unknown #
loop $-1 $-1 $278 $171 #
plane-surface $-1 -21.13143845552267 3.6736004534409723 65.339146451991667 0.68199836817093118 0 0.7313536940579346 0.7313536940579346 0 -0.68199836817093118 forward_v I I I I #
loop $-1 $-1 $403 $109 #
coedge $-1 $276 $276 $277 $404 reversed $172 $-1 #
coedge $-1 $277 $277 $276 $404 forward $174 $-1 #
coedge $-1 $278 $278 $175 $279 forward $273 $-1 #
edge $-1 $405 0 $405 6.2831853071796004 $278 $406 forward 7 unknown #
face $-1 $407 $408 $42 $-1 $409 reversed single #
loop $-1 $-1 $410 $176 #
plane-surface $-1 -45.669118320261241 0 0 1 0 0 0 0 -1 forward_v I I I I #
coedge $-1 $411 $291 $412 $413 forward $177 $-1 #
coedge $-1 $414 $179 $411 $415 forward $113 $-1 #
coedge $-1 $179 $414 $416 $417 forward $113 $-1 #
coedge $-1 $294 $293 $179 $287 reversed $295 $-1 #
edge $-1 $418 -25.345266571310116 $419 25.345266571310116 $286 $420 forward 7 unknown #
coedge $-1 $181 $180 $421 $422 forward $71 $-1 #
coedge $-1 $423 $424 $180 $290 reversed $408 $-1 #
edge $-1 $297 -45.669118320261241 $425 45.669118320261241 $289 $426 forward 7 unknown #
coedge $-1 $283 $427 $181 $292 reversed $177 $-1 #
edge $-1 $428 -45.669118320261241 $296 45.669118320261241 $291 $429 forward 7 unknown #
coedge $-1 $286 $182 $427 $430 forward $295 $-1 #
coedge $-1 $182 $286 $423 $431 reversed $295 $-1 #
loop $-1 $-1 $293 $407 #
vertex $-1 $183 $432 #
vertex $-1 $183 $433 #
straight-curve $-1 45.669118320261241 0 8.7498292628150285 0 1 0 I I #
face $-1 $434 $435 $43 $-1 $436 reversed single #
loop $-1 $-1 $310 $184 #
plane-surface $-1 0 -30.689949718010297 5.1502947159570907 0 0 1 1 0 0 forward_v I I I I #
coedge $-1 $437 $438 $188 $307 forward $185 $-1 #
coedge $-1 $439 $187 $438 $440 forward $117 $-1 #
coedge $-1 $187 $439 $441 $442 forward $117 $-1 #
coedge $-1 $189 $188 $187 $306 reversed $74 $-1 #
edge $-1 $443 -45.669118320261241 $444 45.669118320261241 $187 $445 forward 7 unknown #
edge $-1 $444 -8.7498292628150285 $313 -5.1502947159570907 $302 $446 forward 7 unknown #
coedge $-1 $441 $447 $189 $309 forward $448 $-1 #
edge $-1 $312 5.1502947159570907 $443 8.7498292628150285 $308 $449 forward 7 unknown #
coedge $-1 $450 $190 $447 $451 forward $300 $-1 #
coedge $-1 $190 $450 $437 $452 forward $300 $-1 #
vertex $-1 $309 $453 #
vertex $-1 $307 $454 #
straight-curve $-1 0 -25.345266571310116 5.1502947159570907 -1 0 0 I I #
face $-1 $455 $456 $44 $-1 $457 forward single #
loop $-1 $-1 $323 $192 #
plane-surface $-1 0 25.345266571310116 0 0 -1 0 0 0 -1 forward_v I I I I #
coedge $-1 $198 $458 $319 $459 forward $193 $-1 #
coedge $-1 $460 $195 $318 $459 reversed $121 $-1 #
coedge $-1 $195 $460 $461 $462 reversed $121 $-1 #
edge $-1 $326 -45.669118320261241 $463 45.669118320261241 $195 $464 forward 7 unknown #
coedge $-1 $197 $196 $465 $466 reversed $77 $-1 #
coedge $-1 $467 $468 $197 $324 forward $316 $-1 #
edge $-1 $327 -45.669118320261241 $469 45.669118320261241 $323 $470 forward 7 unknown #
coedge $-1 $458 $198 $468 $471 reversed $193 $-1 #
vertex $-1 $199 $472 #
vertex $-1 $324 $473 #
straight-curve $-1 45.669118320261241 10.265974949251829 5.7498292628150285 0 1 0 I I #
face $-1 $-1 $474 $45 $-1 $475 reversed single #
loop $-1 $-1 $476 $200 #
plane-surface $-1 0 15.7186332256972 7.2498292628150285 0 1 0 0 0 1 forward_v I I I I #
coedge $-1 $477 $203 $205 $338 forward $125 $-1 #
coedge $-1 $203 $477 $476 $478 forward $125 $-1 #
coedge $-1 $479 $206 $203 $335 forward $201 $-1 #
edge $-1 $341 2.5315259135114498 $480 9.6352468459609835 $334 $481 forward 7 unknown #
coedge $-1 $482 $483 $204 $337 forward $474 $-1 #
edge $-1 $484 -37.237633749627769 $340 -28.832439780619566 $336 $485 forward 7 unknown #
edge $-1 $341 -14.654008302981683 $484 8.6860152927662243e-015 $205 $486 forward 7 unknown #
coedge $-1 $206 $479 $482 $487 forward $201 $-1 #
vertex $-1 $337 $488 #
vertex $-1 $207 $489 #
straight-curve $-1 -49.029289635155472 8.6149122932476665 8.7498292628150267 1 0 0 I I #
coedge $-1 $343 $343 $-1 $490 reversed $210 $-1 #
edge $-1 $491 0 $491 6.2831853071796004 $211 $492 forward 7 unknown #
vertex $-1 $214 $493 #
ellipse-curve $-1 -39.667187928978692 10.644546845376102 4.5472322783109274 -0.57357644374324357 0 0.81915203911291934 0.40957601955645967 0 0.28678822187162178 1 I I #
coedge $-1 $347 $347 $-1 $494 reversed $217 $-1 #
edge $-1 $495 0 $495 6.2831853071796004 $218 $496 forward 7 unknown #
vertex $-1 $221 $497 #
ellipse-curve $-1 -39.667187928978692 13.688998673568758 4.5472322783109274 -0.57357644374324357 0 0.81915203911291934 0.40957601955645967 0 0.28678822187162178 1 I I #
face $-1 $-1 $363 $48 $-1 $498 forward single #
loop $-1 $-1 $499 $222 #
plane-surface $-1 45.669118320261241 0 0 -1 0 0 0 0 1 forward_v I I I I #
coedge $-1 $500 $501 $502 $503 reversed $223 $-1 #
coedge $-1 $504 $225 $227 $361 forward $139 $-1 #
coedge $-1 $225 $504 $500 $505 forward $139 $-1 #
coedge $-1 $502 $228 $225 $358 forward $363 $-1 #
edge $-1 $365 2.6145991696340065 $506 8.8990671287284986 $357 $507 forward 7 unknown #
coedge $-1 $508 $509 $226 $360 forward $352 $-1 #
edge $-1 $510 -63.023233502342819 $364 -57.320022351072765 $359 $511 forward 7 unknown #
edge $-1 $365 82.975736937531053 $510 91.338236640522496 $227 $512 forward 7 unknown #
coedge $-1 $228 $502 $508 $513 forward $363 $-1 #
loop $-1 $-1 $502 $351 #
vertex $-1 $360 $514 #
vertex $-1 $229 $515 #
straight-curve $-1 20.580544942462009 -8.3714323188152591 8.7498292628150267 -1 0 0 I I #
coedge $-1 $367 $367 $-1 $516 reversed $232 $-1 #
edge $-1 $517 0 $517 6.2831853071796004 $233 $518 forward 7 unknown #
vertex $-1 $236 $519 #
ellipse-curve $-1 42.611145795590659 -13.399006686090853 5.8982236871800025 0.68199836817093118 0 0.7313536940579346 0.3656768470289673 0 -0.34099918408546559 1 I I #
coedge $-1 $371 $371 $-1 $520 reversed $239 $-1 #
edge $-1 $521 0 $521 6.2831853071796004 $240 $522 forward 7 unknown #
vertex $-1 $243 $523 #
ellipse-curve $-1 42.611145795590659 -11.513666298362505 5.8982236871800025 0.68199836817093118 0 0.7313536940579346 0.3656768470289673 0 -0.34099918408546559 1 I I #
coedge $-1 $375 $375 $-1 $524 reversed $246 $-1 #
edge $-1 $525 0 $525 6.2831853071796004 $247 $526 forward 7 unknown #
vertex $-1 $250 $527 #
ellipse-curve $-1 42.611145795590659 -9.6283259106341568 5.8982236871800025 0.68199836817093118 0 0.7313536940579346 0.3656768470289673 0 -0.34099918408546559 1 I I #
face $-1 $-1 $391 $52 $-1 $528 forward single #
loop $-1 $-1 $529 $251 #
plane-surface $-1 45.669118320261241 0 0 -1 0 0 0 0 1 forward_v I I I I #
coedge $-1 $530 $531 $532 $533 reversed $252 $-1 #
coedge $-1 $534 $254 $256 $389 forward $158 $-1 #
coedge $-1 $254 $534 $530 $535 forward $158 $-1 #
coedge $-1 $532 $257 $254 $386 forward $391 $-1 #
edge $-1 $393 -4.9790342062677331 $536 1.3054337528267608 $385 $537 forward 7 unknown #
coedge $-1 $538 $539 $255 $388 forward $380 $-1 #
edge $-1 $540 -63.023233502342819 $392 -57.320022351072765 $387 $541 forward 7 unknown #
edge $-1 $393 82.975736937531053 $540 91.338236640522496 $256 $542 forward 7 unknown #
coedge $-1 $257 $532 $538 $543 forward $391 $-1 #
loop $-1 $-1 $532 $379 #
vertex $-1 $388 $544 #
vertex $-1 $258 $545 #
straight-curve $-1 20.580544942462009 6.8158344329882192 8.7498292628150267 -1 0 0 I I #
coedge $-1 $395 $395 $-1 $546 reversed $261 $-1 #
edge $-1 $547 0 $547 6.2831853071796004 $262 $548 forward 7 unknown #
vertex $-1 $265 $549 #
ellipse-curve $-1 42.611145795590659 1.788260065712624 5.8982236871800025 0.68199836817093118 0 0.7313536940579346 0.3656768470289673 0 -0.34099918408546559 1 I I #
coedge $-1 $399 $399 $-1 $550 reversed $268 $-1 #
edge $-1 $551 0 $551 6.2831853071796004 $269 $552 forward 7 unknown #
vertex $-1 $272 $553 #
ellipse-curve $-1 42.611145795590659 3.6736004534409723 5.8982236871800025 0.68199836817093118 0 0.7313536940579346 0.3656768470289673 0 -0.34099918408546559 1 I I #
coedge $-1 $403 $403 $-1 $554 reversed $275 $-1 #
edge $-1 $555 0 $555 6.2831853071796004 $276 $556 forward 7 unknown #
vertex $-1 $279 $557 #
ellipse-curve $-1 42.611145795590659 5.5589408411693206 5.8982236871800025 0.68199836817093118 0 0.7313536940579346 0.3656768470289673 0 -0.34099918408546559 1 I I #
face $-1 $-1 $295 $42 $-1 $558 reversed single #
loop $-1 $-1 $423 $280 #
plane-surface $-1 0 25.345266571310116 0 0 -1 0 0 0 -1 forward_v I I I I #
coedge $-1 $559 $421 $424 $560 forward $281 $-1 #
coedge $-1 $427 $283 $284 $415 reversed $177 $-1 #
coedge $-1 $421 $559 $283 $413 reversed $281 $-1 #
edge $-1 $428 -8.7498292628150285 $561 8.7498292628150285 $412 $562 forward 7 unknown #
coedge $-1 $285 $284 $559 $563 forward $113 $-1 #
edge $-1 $419 -45.669118320261241 $561 45.669118320261241 $411 $564 forward 7 unknown #
coedge $-1 $424 $423 $285 $417 reversed $408 $-1 #
edge $-1 $565 -45.669118320261241 $418 45.669118320261241 $416 $566 forward 7 unknown #
vertex $-1 $287 $567 #
vertex $-1 $430 $568 #
straight-curve $-1 45.669118320261241 0 -8.7498292628150285 0 -1 0 I I #
coedge $-1 $410 $412 $288 $422 reversed $281 $-1 #
edge $-1 $425 -25.345266571310116 $428 25.345266571310116 $421 $569 forward 7 unknown #
coedge $-1 $416 $289 $294 $431 forward $408 $-1 #
coedge $-1 $289 $416 $410 $560 reversed $408 $-1 #
vertex $-1 $290 $570 #
straight-curve $-1 0 25.345266571310116 8.7498292628150285 -1 0 0 I I #
coedge $-1 $291 $411 $293 $430 reversed $177 $-1 #
vertex $-1 $422 $571 #
straight-curve $-1 0 -25.345266571310116 8.7498292628150285 1 0 0 I I #
edge $-1 $296 -8.7498292628150285 $419 8.7498292628150285 $293 $572 forward 7 unknown #
edge $-1 $297 -8.7498292628150285 $418 8.7498292628150285 $294 $573 forward 7 unknown #
point $-1 45.669118320261241 -25.345266571310116 8.7498292628150285 #
point $-1 45.669118320261241 25.345266571310116 8.7498292628150285 #
face $-1 $-1 $448 $43 $-1 $574 reversed single #
loop $-1 $-1 $575 $299 #
plane-surface $-1 0 -36.034632864710481 6.9500619893860591 0 1 0 0 0 1 forward_v I I I I #
coedge $-1 $576 $302 $311 $452 reversed $185 $-1 #
coedge $-1 $302 $576 $303 $440 reversed $185 $-1 #
coedge $-1 $304 $303 $577 $578 forward $117 $-1 #
edge $-1 $444 25.345266571310116 $579 36.034632864710481 $438 $580 forward 7 unknown #
coedge $-1 $581 $308 $304 $442 reversed $448 $-1 #
edge $-1 $582 -36.034632864710481 $443 -25.345266571310116 $441 $583 forward 7 unknown #
vertex $-1 $309 $584 #
vertex $-1 $440 $585 #
straight-curve $-1 0 -25.345266571310116 8.7498292628150285 -1 0 0 I I #
straight-curve $-1 -45.669118320261241 -25.345266571310116 0 0 0 -1 I I #
coedge $-1 $308 $581 $310 $451 reversed $448 $-1 #
loop $-1 $-1 $308 $434 #
straight-curve $-1 45.669118320261241 -25.345266571310116 0 0 0 1 I I #
coedge $-1 $311 $310 $586 $587 forward $300 $-1 #
edge $-1 $312 -5.3446831467001807 $588 5.3446831467001843 $447 $589 forward 7 unknown #
edge $-1 $590 -5.3446831467001843 $313 5.3446831467001807 $437 $591 forward 7 unknown #
point $-1 45.669118320261241 -25.345266571310116 5.1502947159570907 #
point $-1 -45.669118320261241 -25.345266571310116 5.1502947159570907 #
face $-1 $-1 $592 $44 $-1 $593 reversed single #
loop $-1 $-1 $594 $315 #
plane-surface $-1 0 0 8.7498292628150285 0 0 1 1 0 0 forward_v I I I I #
coedge $-1 $318 $325 $595 $596 reversed $193 $-1 #
edge $-1 $597 -5.1249146314075142 $326 -2.1249146314075142 $318 $598 forward 7 unknown #
coedge $-1 $320 $319 $594 $599 reversed $121 $-1 #
coedge $-1 $600 $465 $320 $462 forward $592 $-1 #
edge $-1 $463 2.1249146314075142 $601 5.1249146314075142 $461 $602 forward 7 unknown #
vertex $-1 $466 $603 #
straight-curve $-1 0 15.7186332256972 5.7498292628150285 -1 0 0 I I #
coedge $-1 $461 $604 $322 $466 forward $592 $-1 #
edge $-1 $469 -15.079291622058287 $463 -5.452658276445371 $465 $605 forward 7 unknown #
coedge $-1 $606 $323 $604 $607 reversed $316 $-1 #
coedge $-1 $323 $606 $325 $471 forward $316 $-1 #
vertex $-1 $324 $608 #
straight-curve $-1 0 25.345266571310116 5.7498292628150285 -1 0 0 I I #
edge $-1 $609 -8.7498292628150285 $327 -5.7498292628150285 $325 $610 forward 7 unknown #
point $-1 45.669118320261241 15.7186332256972 5.7498292628150285 #
point $-1 45.669118320261241 25.345266571310116 5.7498292628150285 #
loop $-1 $-1 $336 $329 #
plane-surface $-1 -45.669118320261241 0 0 1 0 0 0 0 -1 forward_v I I I I #
coedge $-1 $611 $612 $333 $478 reversed $330 $-1 #
coedge $-1 $333 $332 $483 $613 reversed $125 $-1 #
edge $-1 $614 -8.6860152927662243e-015 $480 14.654008302981683 $476 $615 forward 7 unknown #
coedge $-1 $339 $334 $612 $616 forward $201 $-1 #
vertex $-1 $616 $617 #
straight-curve $-1 -33.665257537696135 6.0833863797362167 8.7498292628150303 0 1 0 I I #
coedge $-1 $618 $336 $339 $487 reversed $474 $-1 #
coedge $-1 $336 $618 $477 $613 forward $474 $-1 #
vertex $-1 $337 $619 #
straight-curve $-1 -45.669118320261241 8.6149122932476665 37.582269043434593 0 0 1 I I #
straight-curve $-1 -45.669118320261234 8.6149122932476665 0.34463529380683156 -0.81915203911291934 0 -0.57357644374324357 I I #
edge $-1 $620 -15.7186332256972 $340 -8.6149122932476665 $482 $621 forward 7 unknown #
point $-1 -45.669118320261241 8.6149122932476665 8.7498292628150285 #
point $-1 -33.665257537696135 8.6149122932476665 8.7498292628150285 #
edge $-1 $622 1 $622 0 $343 $-1 forward 7 unknown #
vertex $-1 $344 $623 #
ellipse-curve $-1 -39.093611485235449 10.644546845376102 3.7280802391980159 -0.57357644374324357 0 0.81915203911291934 0.40957601955645967 0 0.28678822187162178 1 I I #
point $-1 -39.257611909422238 10.644546845376102 4.8340205001825574 #
edge $-1 $624 1 $624 0 $347 $-1 forward 7 unknown #
vertex $-1 $348 $625 #
ellipse-curve $-1 -39.093611485235449 13.688998673568758 3.7280802391980159 -0.57357644374324357 0 0.81915203911291934 0.40957601955645967 0 0.28678822187162178 1 I I #
point $-1 -39.257611909422238 13.688998673568758 4.8340205001825574 #
plane-surface $-1 0 0 8.7498292628150285 0 0 1 1 0 0 forward_v I I I I #
coedge $-1 $509 $508 $501 $626 forward $352 $-1 #
coedge $-1 $501 $354 $356 $505 reversed $223 $-1 #
coedge $-1 $354 $500 $499 $626 reversed $223 $-1 #
coedge $-1 $362 $357 $354 $503 forward $363 $-1 #
edge $-1 $506 18.972628328458068 $627 25.088573377799232 $502 $628 forward 7 unknown #
coedge $-1 $356 $355 $509 $629 reversed $139 $-1 #
edge $-1 $630 -91.338236640522496 $506 -82.975736937531053 $500 $631 forward 7 unknown #
vertex $-1 $358 $632 #
straight-curve $-1 39.553173270920084 -5.7568331491812526 8.7498292628150267 0 -1 0 I I #
coedge $-1 $499 $359 $362 $513 reversed $352 $-1 #
coedge $-1 $359 $499 $504 $629 forward $352 $-1 #
vertex $-1 $360 $633 #
straight-curve $-1 45.669118320261241 -8.3714323188152591 66.069851613887792 0 0 1 I I #
straight-curve $-1 -21.13143845552267 -8.3714323188152591 65.339146451991667 0.7313536940579346 0 -0.68199836817093118 I I #
edge $-1 $627 -14.655900277909751 $364 -8.3714323188152591 $508 $634 forward 7 unknown #
point $-1 45.669118320261241 -8.3714323188152591 8.7498292628150285 #
point $-1 39.553173270920077 -8.3714323188152591 8.7498292628150267 #
edge $-1 $635 1 $635 0 $367 $-1 forward 7 unknown #
vertex $-1 $368 $636 #
ellipse-curve $-1 41.869807928910397 -13.399006686090853 5.1032361730665547 0.68199836817093118 0 0.7313536940579346 0.3656768470289673 0 -0.34099918408546559 1 I I #
point $-1 42.976822642619631 -13.399006686090853 5.5572245030945426 #
edge $-1 $637 1 $637 0 $371 $-1 forward 7 unknown #
vertex $-1 $372 $638 #
ellipse-curve $-1 41.869807928910397 -11.513666298362505 5.1032361730665547 0.68199836817093118 0 0.7313536940579346 0.3656768470289673 0 -0.34099918408546559 1 I I #
point $-1 42.976822642619631 -11.513666298362505 5.5572245030945426 #
edge $-1 $639 1 $639 0 $375 $-1 forward 7 unknown #
vertex $-1 $376 $640 #
ellipse-curve $-1 41.869807928910397 -9.6283259106341568 5.1032361730665547 0.68199836817093118 0 0.7313536940579346 0.3656768470289673 0 -0.34099918408546559 1 I I #
point $-1 42.976822642619631 -9.6283259106341568 5.5572245030945426 #
plane-surface $-1 0 0 8.7498292628150285 0 0 1 1 0 0 forward_v I I I I #
coedge $-1 $539 $538 $531 $641 forward $380 $-1 #
coedge $-1 $531 $382 $384 $535 reversed $252 $-1 #
coedge $-1 $382 $530 $529 $641 reversed $252 $-1 #
coedge $-1 $390 $385 $382 $533 forward $391 $-1 #
edge $-1 $536 18.972628328458068 $642 25.088573377799232 $532 $643 forward 7 unknown #
coedge $-1 $384 $383 $539 $644 reversed $158 $-1 #
edge $-1 $645 -91.338236640522496 $536 -82.975736937531053 $530 $646 forward 7 unknown #
vertex $-1 $386 $647 #
straight-curve $-1 39.553173270920084 1.8368002267204862 8.7498292628150267 0 -1 0 I I #
coedge $-1 $529 $387 $390 $543 reversed $380 $-1 #
coedge $-1 $387 $529 $534 $644 forward $380 $-1 #
vertex $-1 $388 $648 #
straight-curve $-1 45.669118320261241 6.8158344329882192 66.069851613887792 0 0 1 I I #
straight-curve $-1 -21.13143845552267 6.8158344329882192 65.339146451991667 0.7313536940579346 0 -0.68199836817093118 I I #
edge $-1 $642 0.53136647389372538 $392 6.8158344329882192 $538 $649 forward 7 unknown #
point $-1 45.669118320261241 6.8158344329882192 8.7498292628150285 #
point $-1 39.553173270920077 6.8158344329882192 8.7498292628150267 #
edge $-1 $650 1 $650 0 $395 $-1 forward 7 unknown #
vertex $-1 $396 $651 #
ellipse-curve $-1 41.869807928910397 1.788260065712624 5.1032361730665547 0.68199836817093118 0 0.7313536940579346 0.3656768470289673 0 -0.34099918408546559 1 I I #
point $-1 42.976822642619631 1.788260065712624 5.5572245030945426 #
edge $-1 $652 1 $652 0 $399 $-1 forward 7 unknown #
vertex $-1 $400 $653 #
ellipse-curve $-1 41.869807928910397 3.6736004534409723 5.1032361730665547 0.68199836817093118 0 0.7313536940579346 0.3656768470289673 0 -0.34099918408546559 1 I I #
point $-1 42.976822642619631 3.6736004534409723 5.5572245030945426 #
edge $-1 $654 1 $654 0 $403 $-1 forward 7 unknown #
vertex $-1 $404 $655 #
ellipse-curve $-1 41.869807928910397 5.5589408411693206 5.1032361730665547 0.68199836817093118 0 0.7313536940579346 0.3656768470289673 0 -0.34099918408546559 1 I I #
point $-1 42.976822642619631 5.5589408411693206 5.5572245030945426 #
plane-surface $-1 45.669118320261241 0 0 -1 0 0 0 0 1 forward_v I I I I #
coedge $-1 $412 $410 $414 $563 reversed $281 $-1 #
edge $-1 $425 -8.7498292628150285 $565 8.7498292628150285 $424 $656 forward 7 unknown #
vertex $-1 $563 $657 #
straight-curve $-1 -45.669118320261241 -25.345266571310116 0 0 0 -1 I I #
edge $-1 $561 -25.345266571310116 $565 25.345266571310116 $559 $658 forward 7 unknown #
straight-curve $-1 0 -25.345266571310116 -8.7498292628150285 -1 0 0 I I #
vertex $-1 $417 $659 #
straight-curve $-1 0 25.345266571310116 -8.7498292628150285 1 0 0 I I #
point $-1 45.669118320261241 25.345266571310116 -8.7498292628150285 #
point $-1 45.669118320261241 -25.345266571310116 -8.7498292628150285 #
straight-curve $-1 -45.669118320261241 0 8.7498292628150285 0 -1 0 I I #
point $-1 -45.669118320261241 25.345266571310116 8.7498292628150285 #
point $-1 -45.669118320261241 -25.345266571310116 8.7498292628150285 #
straight-curve $-1 45.669118320261241 -25.345266571310116 0 0 0 -1 I I #
straight-curve $-1 45.669118320261241 25.345266571310116 0 0 0 -1 I I #
plane-surface $-1 45.669118320261241 0 0 -1 0 0 0 0 1 forward_v I I I I #
coedge $-1 $586 $577 $576 $660 forward $435 $-1 #
coedge $-1 $438 $437 $575 $660 reversed $185 $-1 #
coedge $-1 $575 $661 $439 $578 reversed $435 $-1 #
edge $-1 $579 -45.669118320261241 $582 45.669118320261241 $577 $662 forward 7 unknown #
vertex $-1 $440 $663 #
straight-curve $-1 -45.669118320261241 0 8.7498292628150285 0 -1 0 I I #
coedge $-1 $447 $441 $661 $664 forward $448 $-1 #
vertex $-1 $442 $665 #
straight-curve $-1 45.669118320261241 0 8.7498292628150285 0 1 0 I I #
point $-1 45.669118320261241 -25.345266571310116 8.7498292628150285 #
point $-1 -45.669118320261241 -25.345266571310116 8.7498292628150285 #
coedge $-1 $661 $575 $450 $587 reversed $435 $-1 #
edge $-1 $588 -45.669118320261241 $590 45.669118320261241 $586 $666 forward 7 unknown #
vertex $-1 $664 $667 #
straight-curve $-1 45.669118320261241 -30.689949718010297 5.1502947159570907 0 -1 0 I I #
vertex $-1 $452 $668 #
straight-curve $-1 -45.669118320261241 -30.689949718010297 5.1502947159570907 0 1 0 I I #
loop $-1 $-1 $461 $455 #
plane-surface $-1 -45.669118320261241 0 0 1 0 0 0 0 -1 forward_v I I I I #
coedge $-1 $595 $669 $460 $599 forward $456 $-1 #
coedge $-1 $670 $594 $458 $596 forward $456 $-1 #
edge $-1 $597 15.7186332256972 $609 25.345266571310116 $458 $671 forward 7 unknown #
vertex $-1 $596 $672 #
straight-curve $-1 45.669118320261241 15.7186332256972 3.6249146314075142 0 0 -1 I I #
edge $-1 $601 -45.669118320261241 $597 45.669118320261241 $594 $673 forward 7 unknown #
coedge $-1 $604 $461 $669 $674 reversed $592 $-1 #
vertex $-1 $462 $675 #
straight-curve $-1 -45.669118320261241 15.7186332256972 3.6249146314075142 0 0 1 I I #
point $-1 -45.669118320261241 15.7186332256972 5.7498292628150285 #
coedge $-1 $465 $600 $467 $607 forward $592 $-1 #
straight-curve $-1 -45.669118320261241 10.265974949251829 5.7498292628150285 0 -1 0 I I #
coedge $-1 $468 $467 $670 $676 reversed $316 $-1 #
edge $-1 $677 -8.7498292628150285 $469 -5.7498292628150285 $467 $678 forward 7 unknown #
point $-1 -45.669118320261241 25.345266571310116 5.7498292628150285 #
vertex $-1 $596 $679 #
straight-curve $-1 45.669118320261241 25.345266571310116 0 0 0 -1 I I #
coedge $-1 $612 $476 $618 $680 reversed $330 $-1 #
coedge $-1 $476 $611 $479 $616 reversed $330 $-1 #
edge $-1 $614 -9.6352468459609835 $484 -2.5315259135114498 $483 $681 forward 7 unknown #
vertex $-1 $680 $682 #
straight-curve $-1 -45.669118320261234 15.7186332256972 0.34463529380683156 0.81915203911291934 0 0.57357644374324357 I I #
edge $-1 $480 33.665257537696135 $620 45.669118320261241 $479 $683 forward 7 unknown #
point $-1 -33.665257537696135 15.7186332256972 8.7498292628150285 #
coedge $-1 $483 $482 $611 $680 forward $474 $-1 #
point $-1 -45.669118320261241 8.6149122932476665 0.34463529380682656 #
vertex $-1 $487 $684 #
straight-curve $-1 -45.669118320261241 0 8.7498292628150285 0 -1 0 I I #
vertex $-1 $490 $685 #
point $-1 -38.684035465678988 10.644546845376102 4.0148684610696375 #
vertex $-1 $494 $686 #
point $-1 -38.684035465678988 13.688998673568758 4.0148684610696375 #
edge $-1 $627 57.320022351072765 $630 63.023233502342819 $499 $687 forward 7 unknown #
vertex $-1 $513 $688 #
straight-curve $-1 20.580544942462009 -14.655900277909751 8.7498292628150267 1 0 0 I I #
edge $-1 $630 -8.8990671287284986 $510 -2.6145991696340065 $509 $689 forward 7 unknown #
vertex $-1 $629 $690 #
straight-curve $-1 -21.13143845552267 -14.655900277909751 65.339146451991667 -0.7313536940579346 0 0.68199836817093118 I I #
point $-1 39.553173270920077 -14.655900277909751 8.7498292628150267 #
point $-1 45.669118320261248 -8.3714323188152591 3.0466181115449729 #
straight-curve $-1 45.669118320261241 0 8.7498292628150285 0 1 0 I I #
vertex $-1 $516 $691 #
point $-1 42.235484775939369 -13.399006686090853 4.7622369889810896 #
vertex $-1 $520 $692 #
point $-1 42.235484775939369 -11.513666298362505 4.7622369889810896 #
vertex $-1 $524 $693 #
point $-1 42.235484775939369 -9.6283259106341568 4.7622369889810896 #
edge $-1 $642 57.320022351072765 $645 63.023233502342819 $529 $694 forward 7 unknown #
vertex $-1 $543 $695 #
straight-curve $-1 20.580544942462009 0.53136647389372538 8.7498292628150267 1 0 0 I I #
edge $-1 $645 -1.3054337528267608 $540 4.9790342062677331 $539 $696 forward 7 unknown #
vertex $-1 $644 $697 #
straight-curve $-1 -21.13143845552267 0.53136647389372538 65.339146451991667 -0.7313536940579346 0 0.68199836817093118 I I #
point $-1 39.553173270920077 0.53136647389372538 8.7498292628150267 #
point $-1 45.669118320261248 6.8158344329882192 3.0466181115449729 #
straight-curve $-1 45.669118320261241 0 8.7498292628150285 0 1 0 I I #
vertex $-1 $546 $698 #
point $-1 42.235484775939369 1.788260065712624 4.7622369889810896 #
vertex $-1 $550 $699 #
point $-1 42.235484775939369 3.6736004534409723 4.7622369889810896 #
vertex $-1 $554 $700 #
point $-1 42.235484775939369 5.5589408411693206 4.7622369889810896 #
straight-curve $-1 -45.669118320261241 25.345266571310116 0 0 0 -1 I I #
point $-1 -45.669118320261241 -25.345266571310116 -8.7498292628150285 #
straight-curve $-1 -45.669118320261241 0 -8.7498292628150285 0 1 0 I I #
point $-1 -45.669118320261241 25.345266571310116 -8.7498292628150285 #
edge $-1 $579 -1.7997672734289676 $590 1.7997672734289685 $576 $701 forward 7 unknown #
coedge $-1 $577 $586 $581 $664 reversed $435 $-1 #
straight-curve $-1 0 -36.034632864710481 8.7498292628150267 1 0 0 I I #
point $-1 -45.669118320261241 -36.034632864710481 8.7498292628150267 #
edge $-1 $582 -1.7997672734289676 $588 1.7997672734289685 $581 $702 forward 7 unknown #
point $-1 45.669118320261241 -36.034632864710481 8.7498292628150267 #
straight-curve $-1 0 -36.034632864710481 5.1502947159570907 -1 0 0 I I #
point $-1 45.669118320261241 -36.034632864710481 5.1502947159570907 #
point $-1 -45.669118320261241 -36.034632864710481 5.1502947159570907 #
coedge $-1 $594 $670 $600 $674 forward $456 $-1 #
coedge $-1 $669 $595 $606 $676 forward $456 $-1 #
straight-curve $-1 45.669118320261241 0 8.7498292628150285 0 1 0 I I #
point $-1 45.669118320261241 15.7186332256972 8.7498292628150285 #
straight-curve $-1 0 15.7186332256972 8.7498292628150285 1 0 0 I I #
edge $-1 $677 -25.345266571310116 $601 -15.7186332256972 $600 $703 forward 7 unknown #
point $-1 -45.669118320261241 15.7186332256972 8.7498292628150285 #
edge $-1 $609 -45.669118320261241 $677 45.669118320261241 $606 $704 forward 7 unknown #
vertex $-1 $676 $705 #
straight-curve $-1 -45.669118320261241 25.345266571310116 0 0 0 -1 I I #
point $-1 45.669118320261241 25.345266571310116 8.7498292628150285 #
edge $-1 $620 28.832439780619566 $614 37.237633749627769 $618 $706 forward 7 unknown #
straight-curve $-1 -45.669118320261241 6.0833863797362167 0.3446352938068224 0 -1 0 I I #
point $-1 -45.669118320261241 15.7186332256972 0.34463529380682656 #
straight-curve $-1 0 15.7186332256972 8.7498292628150285 -1 0 0 I I #
point $-1 -45.669118320261241 15.7186332256972 8.7498292628150285 #
point $-1 -38.806823263363832 10.644546845376102 3.318504219641556 #
point $-1 -38.806823263363832 13.688998673568758 3.318504219641556 #
straight-curve $-1 45.669118320261241 -14.655900277909751 66.069851613887792 0 0 -1 I I #
point $-1 45.669118320261241 -14.655900277909751 8.7498292628150285 #
straight-curve $-1 45.669118320261234 -5.7568331491812526 3.04661811154498 0 1 0 I I #
point $-1 45.669118320261248 -14.655900277909751 3.0466181115449729 #
point $-1 41.528808744824936 -13.399006686090853 4.7375593260375881 #
point $-1 41.528808744824936 -11.513666298362505 4.7375593260375881 #
point $-1 41.528808744824936 -9.6283259106341568 4.7375593260375881 #
straight-curve $-1 45.669118320261241 0.53136647389372538 66.069851613887792 0 0 -1 I I #
point $-1 45.669118320261241 0.53136647389372538 8.7498292628150285 #
straight-curve $-1 45.669118320261234 1.8368002267204862 3.04661811154498 0 1 0 I I #
point $-1 45.669118320261248 0.53136647389372538 3.0466181115449729 #
point $-1 41.528808744824936 1.788260065712624 4.7375593260375881 #
point $-1 41.528808744824936 3.6736004534409723 4.7375593260375881 #
point $-1 41.528808744824936 5.5589408411693206 4.7375593260375881 #
straight-curve $-1 -45.669118320261241 -36.034632864710481 6.9500619893860591 0 0 -1 I I #
straight-curve $-1 45.669118320261241 -36.034632864710481 6.9500619893860591 0 0 -1 I I #
straight-curve $-1 -45.669118320261241 0 8.7498292628150285 0 -1 0 I I #
straight-curve $-1 0 25.345266571310116 8.7498292628150285 -1 0 0 I I #
point $-1 -45.669118320261241 25.345266571310116 8.7498292628150285 #
straight-curve $-1 -45.669118320261241 15.7186332256972 37.582269043434593 0 0 -1 I I #
End-of-ACIS-data 