500 0 13 0           
7 Unknown 11 ACIS 5.0 NT 24 Fri Mar 26 14:52:30 1999 
-1 9.9999999999999995e-007 1e-010 
body $-1 $13 $-1 $14 #
body $-1 $15 $-1 $16 #
body $-1 $17 $-1 $18 #
body $-1 $19 $-1 $20 #
body $-1 $21 $-1 $22 #
body $-1 $23 $-1 $24 #
body $-1 $25 $-1 $26 #
body $-1 $27 $-1 $28 #
body $-1 $29 $-1 $30 #
body $-1 $31 $-1 $32 #
body $-1 $33 $-1 $34 #
body $-1 $35 $-1 $36 #
body $-1 $37 $-1 $38 #
lump $-1 $-1 $39 $0 #
transform $-1 1 0 0 0 1 0 0 0 1 58.264717551194799 27.242716289509119 10.357919014544862 1 rotate no_reflect no_shear #
lump $-1 $-1 $40 $1 #
transform $-1 1 0 0 0 1 0 0 0 1 58.264717551194799 27.242716289509119 10.357919014544862 1 rotate no_reflect no_shear #
lump $-1 $-1 $41 $2 #
transform $-1 1 0 0 0 1 0 0 0 1 58.264717551194799 27.242716289509119 10.357919014544862 1 rotate no_reflect no_shear #
lump $-1 $-1 $42 $3 #
transform $-1 1 0 0 0 1 0 0 0 1 58.264717551194799 27.242716289509119 10.357919014544862 1 rotate no_reflect no_shear #
lump $-1 $-1 $43 $4 #
transform $-1 1 0 0 0 1 0 0 0 1 58.264717551194799 27.242716289509119 10.357919014544862 1 rotate no_reflect no_shear #
lump $-1 $-1 $44 $5 #
transform $-1 1 0 0 0 1 0 0 0 1 58.264717551194799 27.242716289509119 10.357919014544862 1 rotate no_reflect no_shear #
lump $-1 $-1 $45 $6 #
transform $-1 1 0 0 0 1 0 0 0 1 58.264717551194799 27.242716289509119 10.357919014544862 1 rotate no_reflect no_shear #
lump $-1 $-1 $46 $7 #
transform $-1 1 0 0 0 1 0 0 0 1 58.264717551194799 27.242716289509119 10.357919014544862 1 rotate no_reflect no_shear #
lump $-1 $-1 $47 $8 #
transform $-1 1 0 0 0 1 0 0 0 1 58.264717551194799 27.242716289509119 10.357919014544862 1 rotate no_reflect no_shear #
lump $-1 $-1 $48 $9 #
transform $-1 1 0 0 0 1 0 0 0 1 58.264717551194799 27.242716289509119 10.357919014544862 1 rotate no_reflect no_shear #
lump $-1 $-1 $49 $10 #
transform $-1 1 0 0 0 1 0 0 0 1 58.264717551194799 27.242716289509119 10.357919014544862 1 rotate no_reflect no_shear #
lump $-1 $-1 $50 $11 #
transform $-1 1 0 0 0 1 0 0 0 1 58.264717551194799 27.242716289509119 10.357919014544862 1 rotate no_reflect no_shear #
lump $-1 $-1 $51 $12 #
transform $-1 1 0 0 0 1 0 0 0 1 58.264717551194799 27.242716289509119 10.357919014544862 1 rotate no_reflect no_shear #
shell $-1 $-1 $-1 $52 $-1 $13 #
shell $-1 $-1 $-1 $53 $-1 $15 #
shell $-1 $-1 $-1 $54 $-1 $17 #
shell $-1 $-1 $-1 $55 $-1 $19 #
shell $-1 $-1 $-1 $56 $-1 $21 #
shell $-1 $-1 $-1 $57 $-1 $23 #
shell $-1 $-1 $-1 $58 $-1 $25 #
shell $-1 $-1 $-1 $59 $-1 $27 #
shell $-1 $-1 $-1 $60 $-1 $29 #
shell $-1 $-1 $-1 $61 $-1 $31 #
shell $-1 $-1 $-1 $62 $-1 $33 #
shell $-1 $-1 $-1 $63 $-1 $35 #
shell $-1 $-1 $-1 $64 $-1 $37 #
face $-1 $65 $66 $39 $-1 $67 forward single #
face $-1 $68 $69 $40 $-1 $70 forward single #
face $-1 $71 $72 $41 $-1 $73 forward single #
face $-1 $74 $75 $42 $-1 $76 reversed single #
face $-1 $77 $78 $43 $-1 $79 forward single #
face $-1 $80 $81 $44 $-1 $82 reversed single #
face $-1 $83 $84 $45 $-1 $85 forward single #
face $-1 $86 $87 $46 $-1 $88 reversed single #
face $-1 $89 $90 $47 $-1 $91 forward single #
face $-1 $92 $93 $48 $-1 $94 reversed single #
face $-1 $95 $96 $49 $-1 $97 forward single #
face $-1 $98 $99 $50 $-1 $100 reversed single #
face $-1 $101 $102 $51 $-1 $103 forward single #
face $-1 $104 $105 $39 $-1 $106 reversed single #
loop $-1 $-1 $107 $52 #
plane-surface $-1 0 0 10.357919014544862 0 0 1 1 0 0 forward_v I I I I #
face $-1 $108 $109 $40 $-1 $110 reversed single #
loop $-1 $-1 $111 $53 #
plane-surface $-1 0 -23.502997642651824 0.21912501343225799 0 0 1 1 0 0 forward_v I I I I #
face $-1 $112 $113 $41 $-1 $114 reversed single #
loop $-1 $-1 $115 $54 #
plane-surface $-1 0 23.50299764265182 0.21912501343225799 0 0 1 1 0 0 forward_v I I I I #
face $-1 $116 $117 $42 $-1 $118 reversed single #
loop $-1 $-1 $119 $55 #
plane-surface $-1 -140.66347227596796 0 88.467514655015179 0 -1 0 0.70710678939079041 0 -0.70710677298230451 forward_v I I I I #
face $-1 $120 $121 $43 $-1 $122 forward single #
loop $-1 $123 $124 $56 #
cone-surface $-1 -55.440881015751977 -3.0976717968082603 7.5340824450991217 0.70710678939079041 0 -0.70710677298230451 0.70710677298230451 0 0.70710678939079041 1 I I 0 1 1 forward I I I I #
face $-1 $125 $126 $44 $-1 $127 reversed single #
loop $-1 $-1 $128 $57 #
plane-surface $-1 -140.66347227596796 19.763278995794526 88.467514655015179 0 -1 0 0.70710678939079041 0 -0.70710677298230451 forward_v I I I I #
face $-1 $129 $130 $45 $-1 $131 forward single #
loop $-1 $132 $133 $58 #
cone-surface $-1 -55.440881015751977 16.665607198986265 7.5340824450991217 0.70710678939079041 0 -0.70710677298230451 0.70710677298230451 0 0.70710678939079041 1 I I 0 1 1 forward I I I I #
face $-1 $134 $135 $46 $-1 $136 reversed single #
loop $-1 $-1 $137 $59 #
plane-surface $-1 32.484709130431177 -17.748679695737806 163.88011296298089 0 1 0 0.5877852598018023 0 0.80901698891910034 forward_v I I I I #
face $-1 $138 $139 $47 $-1 $140 forward single #
loop $-1 $141 $142 $60 #
cone-surface $-1 50.83806969922005 -13.667673489115494 4.2711232458086457 -0.5877852598018023 0 -0.80901698891910034 1.2135254833786506 0 -0.88167788970270344 1 I I 0 1 1.5 forward I I I I #
face $-1 $143 $144 $48 $-1 $145 reversed single #
loop $-1 $-1 $146 $61 #
plane-surface $-1 32.484709130431177 -4.0810062066223098 163.88011296298089 0 1 0 0.5877852598018023 0 0.80901698891910034 forward_v I I I I #
face $-1 $147 $148 $49 $-1 $149 forward single #
loop $-1 $150 $151 $62 #
cone-surface $-1 50.83806969922005 3.5527136788005009e-015 4.2711232458086457 -0.5877852598018023 0 -0.80901698891910034 1.2135254833786506 0 -0.88167788970270344 1 I I 0 1 1.5 forward I I I I #
face $-1 $152 $153 $50 $-1 $154 reversed single #
loop $-1 $-1 $155 $63 #
plane-surface $-1 32.484709130431177 9.5866672824931882 163.88011296298089 0 1 0 0.5877852598018023 0 0.80901698891910034 forward_v I I I I #
face $-1 $156 $157 $51 $-1 $158 forward single #
loop $-1 $159 $160 $64 #
cone-surface $-1 50.83806969922005 13.667673489115501 4.2711232458086457 -0.5877852598018023 0 -0.80901698891910034 1.2135254833786506 0 -0.88167788970270344 1 I I 0 1 1.5 forward I I I I #
face $-1 $161 $162 $39 $-1 $163 reversed single #
loop $-1 $-1 $164 $65 #
plane-surface $-1 0 0 -10.357919014544862 0 0 1 1 0 0 forward_v I I I I #
coedge $-1 $165 $166 $167 $168 forward $66 $-1 #
face $-1 $169 $170 $40 $-1 $171 reversed single #
loop $-1 $-1 $172 $68 #
plane-surface $-1 0 -23.502997642651824 -4.973964532597158 0 0 1 1 0 0 forward_v I I I I #
coedge $-1 $173 $174 $175 $176 reversed $69 $-1 #
face $-1 $177 $178 $41 $-1 $179 reversed single #
loop $-1 $-1 $180 $71 #
plane-surface $-1 0 23.50299764265182 -4.973964532597158 0 0 1 1 0 0 forward_v I I I I #
coedge $-1 $181 $182 $183 $184 reversed $72 $-1 #
face $-1 $185 $186 $42 $-1 $187 reversed single #
loop $-1 $-1 $188 $74 #
plane-surface $-1 -58.264717551194792 -3.0976717968082603 6.0687618423136058 -0.70710678939079041 0 0.70710677298230451 0.70710677298230451 0 0.70710678939079041 forward_v I I I I #
coedge $-1 $189 $190 $191 $192 reversed $75 $-1 #
face $-1 $-1 $193 $43 $-1 $194 forward single #
loop $-1 $195 $196 $77 #
cone-surface $-1 -54.408069621964223 -3.0976717968082603 6.5012710752778666 0.70710678939079041 0 -0.70710677298230451 0.35355338649115226 0 0.35355339469539521 1 I I -0.70710678118654746 0.70710678118654746 0.5 forward I I I I #
loop $-1 $-1 $197 $56 #
coedge $-1 $124 $124 $198 $199 reversed $78 $-1 #
face $-1 $200 $201 $44 $-1 $202 reversed single #
loop $-1 $-1 $203 $80 #
plane-surface $-1 -58.264717551194792 16.665607198986265 6.0687618423136058 -0.70710678939079041 0 0.70710677298230451 0.70710677298230451 0 0.70710678939079041 forward_v I I I I #
coedge $-1 $204 $205 $206 $207 reversed $81 $-1 #
face $-1 $-1 $208 $45 $-1 $209 forward single #
loop $-1 $210 $211 $83 #
cone-surface $-1 -54.408069621964223 16.665607198986265 6.5012710752778666 0.70710678939079041 0 -0.70710677298230451 0.35355338649115226 0 0.35355339469539521 1 I I -0.70710678118654746 0.70710678118654746 0.5 forward I I I I #
loop $-1 $-1 $212 $58 #
coedge $-1 $133 $133 $213 $214 reversed $84 $-1 #
face $-1 $215 $216 $46 $-1 $217 reversed single #
loop $-1 $-1 $218 $86 #
plane-surface $-1 -36.009575155784155 -13.667673489115494 69.605820256001934 0.5877852598018023 0 0.80901698891910034 0.80901698891910034 0 -0.5877852598018023 forward_v I I I I #
coedge $-1 $219 $220 $221 $222 reversed $87 $-1 #
face $-1 $-1 $223 $47 $-1 $224 forward single #
loop $-1 $225 $226 $89 #
cone-surface $-1 49.333860004464647 -13.667673489115494 2.2007562577622366 -0.5877852598018023 0 -0.80901698891910034 0.60676274168932531 0 -0.44083894485135172 1 I I -0.70710678118654757 0.70710678118654757 0.75 forward I I I I #
loop $-1 $-1 $227 $60 #
coedge $-1 $142 $142 $228 $229 reversed $90 $-1 #
face $-1 $230 $231 $48 $-1 $232 reversed single #
loop $-1 $-1 $233 $92 #
plane-surface $-1 -36.009575155784155 3.5527136788005009e-015 69.605820256001934 0.5877852598018023 0 0.80901698891910034 0.80901698891910034 0 -0.5877852598018023 forward_v I I I I #
coedge $-1 $234 $235 $236 $237 reversed $93 $-1 #
face $-1 $-1 $238 $49 $-1 $239 forward single #
loop $-1 $240 $241 $95 #
cone-surface $-1 49.333860004464647 3.5527136788005009e-015 2.2007562577622366 -0.5877852598018023 0 -0.80901698891910034 0.60676274168932531 0 -0.44083894485135172 1 I I -0.70710678118654757 0.70710678118654757 0.75 forward I I I I #
loop $-1 $-1 $242 $62 #
coedge $-1 $151 $151 $243 $244 reversed $96 $-1 #
face $-1 $245 $246 $50 $-1 $247 reversed single #
loop $-1 $-1 $248 $98 #
plane-surface $-1 -36.009575155784155 13.667673489115501 69.605820256001934 0.5877852598018023 0 0.80901698891910034 0.80901698891910034 0 -0.5877852598018023 forward_v I I I I #
coedge $-1 $249 $250 $251 $252 reversed $99 $-1 #
face $-1 $-1 $253 $51 $-1 $254 forward single #
loop $-1 $255 $256 $101 #
cone-surface $-1 49.333860004464647 13.667673489115501 2.2007562577622366 -0.5877852598018023 0 -0.80901698891910034 0.60676274168932531 0 -0.44083894485135172 1 I I -0.70710678118654757 0.70710678118654757 0.75 forward I I I I #
loop $-1 $-1 $257 $64 #
coedge $-1 $160 $160 $258 $259 reversed $102 $-1 #
face $-1 $260 $261 $39 $-1 $262 reversed single #
loop $-1 $-1 $263 $104 #
plane-surface $-1 0 -27.242716289509119 0 0 1 0 0 0 1 forward_v I I I I #
coedge $-1 $264 $265 $266 $267 forward $105 $-1 #
coedge $-1 $268 $107 $269 $270 forward $66 $-1 #
coedge $-1 $107 $268 $271 $272 forward $66 $-1 #
coedge $-1 $273 $274 $107 $168 reversed $275 $-1 #
edge $-1 $276 -27.242716289509119 $277 27.242716289509119 $167 $278 forward 7 unknown #
face $-1 $279 $280 $40 $-1 $281 reversed single #
loop $-1 $-1 $282 $108 #
plane-surface $-1 0 -19.763278995794529 -2.37741975958245 0 -1 0 0 0 -1 forward_v I I I I #
coedge $-1 $283 $284 $285 $286 reversed $109 $-1 #
coedge $-1 $287 $111 $288 $289 forward $69 $-1 #
coedge $-1 $111 $287 $290 $291 reversed $69 $-1 #
coedge $-1 $292 $293 $111 $176 forward $294 $-1 #
edge $-1 $295 8.0117801744686172 $296 15.491217468183207 $175 $297 forward 7 unknown #
face $-1 $298 $299 $41 $-1 $300 reversed single #
loop $-1 $-1 $301 $112 #
plane-surface $-1 0 19.763278995794526 -2.37741975958245 0 1 0 0 0 1 forward_v I I I I #
coedge $-1 $302 $303 $304 $305 reversed $113 $-1 #
coedge $-1 $306 $115 $307 $308 reversed $72 $-1 #
coedge $-1 $115 $306 $309 $310 forward $72 $-1 #
coedge $-1 $311 $312 $115 $184 forward $299 $-1 #
edge $-1 $313 -15.491217468183205 $314 -8.0117801744686155 $183 $315 forward 7 unknown #
face $-1 $316 $317 $42 $-1 $318 reversed single #
loop $-1 $-1 $319 $116 #
plane-surface $-1 -140.66347227596796 -6.1953435936165206 88.467514655015179 0 1 0 -0.70710678939079041 0 0.70710677298230451 forward_v I I I I #
coedge $-1 $320 $321 $322 $323 reversed $117 $-1 #
coedge $-1 $190 $119 $324 $325 reversed $75 $-1 #
coedge $-1 $119 $189 $320 $326 reversed $75 $-1 #
coedge $-1 $322 $327 $119 $192 forward $317 $-1 #
edge $-1 $328 33.875838312962728 $329 38.164995485193991 $191 $330 forward 7 unknown #
loop $-1 $-1 $198 $120 #
plane-surface $-1 -58.264717551194792 -3.0976717968082603 6.0687618423136058 -0.70710678939079041 0 0.70710677298230451 0.70710677298230451 0 0.70710678939079041 forward_v I I I I #
loop $-1 $-1 $331 $77 #
coedge $-1 $196 $196 $197 $332 reversed $121 $-1 #
coedge $-1 $197 $197 $196 $332 forward $123 $-1 #
coedge $-1 $198 $198 $124 $199 forward $193 $-1 #
edge $-1 $333 0 $333 6.2831853071796004 $198 $334 forward 7 unknown #
face $-1 $335 $336 $44 $-1 $337 forward single #
loop $-1 $-1 $338 $125 #
plane-surface $-1 -140.66347227596796 13.567935402178005 88.467514655015179 0 1 0 -0.70710678939079041 0 0.70710677298230451 forward_v I I I I #
coedge $-1 $339 $340 $341 $342 reversed $126 $-1 #
coedge $-1 $205 $128 $343 $344 reversed $81 $-1 #
coedge $-1 $128 $204 $339 $345 reversed $81 $-1 #
coedge $-1 $341 $346 $128 $207 forward $347 $-1 #
edge $-1 $348 33.875838312962728 $349 38.164995485193991 $206 $350 forward 7 unknown #
loop $-1 $-1 $213 $129 #
plane-surface $-1 -58.264717551194792 16.665607198986265 6.0687618423136058 -0.70710678939079041 0 0.70710677298230451 0.70710677298230451 0 0.70710678939079041 forward_v I I I I #
loop $-1 $-1 $351 $83 #
coedge $-1 $211 $211 $212 $352 reversed $130 $-1 #
coedge $-1 $212 $212 $211 $352 forward $132 $-1 #
coedge $-1 $213 $213 $133 $214 forward $208 $-1 #
edge $-1 $353 0 $353 6.2831853071796004 $213 $354 forward 7 unknown #
face $-1 $355 $356 $46 $-1 $357 forward single #
loop $-1 $-1 $358 $134 #
plane-surface $-1 32.484709130431177 -9.5866672824931811 163.88011296298089 0 -1 0 -0.5877852598018023 0 -0.80901698891910034 forward_v I I I I #
coedge $-1 $359 $360 $361 $362 reversed $135 $-1 #
coedge $-1 $220 $137 $363 $364 reversed $87 $-1 #
coedge $-1 $137 $219 $359 $365 reversed $87 $-1 #
coedge $-1 $361 $366 $137 $222 forward $367 $-1 #
edge $-1 $368 71.582137466945582 $369 80.828520511703843 $221 $370 forward 7 unknown #
loop $-1 $-1 $228 $138 #
plane-surface $-1 -36.009575155784155 -13.667673489115494 69.605820256001934 0.5877852598018023 0 0.80901698891910034 0.80901698891910034 0 -0.5877852598018023 forward_v I I I I #
loop $-1 $-1 $371 $89 #
coedge $-1 $226 $226 $227 $372 reversed $139 $-1 #
coedge $-1 $227 $227 $226 $372 forward $141 $-1 #
coedge $-1 $228 $228 $142 $229 forward $223 $-1 #
edge $-1 $373 0 $373 6.2831853071796004 $228 $374 forward 7 unknown #
face $-1 $375 $376 $48 $-1 $377 reversed single #
loop $-1 $-1 $378 $143 #
plane-surface $-1 32.484709130431177 4.0810062066223169 163.88011296298089 0 -1 0 -0.5877852598018023 0 -0.80901698891910034 forward_v I I I I #
coedge $-1 $379 $380 $381 $382 reversed $144 $-1 #
coedge $-1 $235 $146 $383 $384 reversed $93 $-1 #
coedge $-1 $146 $234 $379 $385 reversed $93 $-1 #
coedge $-1 $381 $386 $146 $237 forward $376 $-1 #
edge $-1 $387 71.582137466945582 $388 80.828520511703843 $236 $389 forward 7 unknown #
loop $-1 $-1 $243 $147 #
plane-surface $-1 -36.009575155784155 3.5527136788005009e-015 69.605820256001934 0.5877852598018023 0 0.80901698891910034 0.80901698891910034 0 -0.5877852598018023 forward_v I I I I #
loop $-1 $-1 $390 $95 #
coedge $-1 $241 $241 $242 $391 reversed $148 $-1 #
coedge $-1 $242 $242 $241 $391 forward $150 $-1 #
coedge $-1 $243 $243 $151 $244 forward $238 $-1 #
edge $-1 $392 0 $392 6.2831853071796004 $243 $393 forward 7 unknown #
face $-1 $394 $395 $50 $-1 $396 reversed single #
loop $-1 $-1 $397 $152 #
plane-surface $-1 32.484709130431177 17.748679695737813 163.88011296298089 0 -1 0 -0.5877852598018023 0 -0.80901698891910034 forward_v I I I I #
coedge $-1 $398 $399 $400 $401 reversed $153 $-1 #
coedge $-1 $250 $155 $402 $403 reversed $99 $-1 #
coedge $-1 $155 $249 $398 $404 reversed $99 $-1 #
coedge $-1 $400 $405 $155 $252 forward $395 $-1 #
edge $-1 $406 71.582137466945582 $407 80.828520511703843 $251 $408 forward 7 unknown #
loop $-1 $-1 $258 $156 #
plane-surface $-1 -36.009575155784155 13.667673489115501 69.605820256001934 0.5877852598018023 0 0.80901698891910034 0.80901698891910034 0 -0.5877852598018023 forward_v I I I I #
loop $-1 $-1 $409 $101 #
coedge $-1 $256 $256 $257 $410 reversed $157 $-1 #
coedge $-1 $257 $257 $256 $410 forward $159 $-1 #
coedge $-1 $258 $258 $160 $259 forward $253 $-1 #
edge $-1 $411 0 $411 6.2831853071796004 $258 $412 forward 7 unknown #
face $-1 $413 $414 $39 $-1 $415 reversed single #
loop $-1 $-1 $416 $161 #
plane-surface $-1 -58.264717551194799 0 0 1 0 0 0 0 -1 forward_v I I I I #
coedge $-1 $417 $271 $418 $419 forward $162 $-1 #
coedge $-1 $420 $164 $417 $421 forward $105 $-1 #
coedge $-1 $164 $420 $422 $423 forward $105 $-1 #
coedge $-1 $274 $273 $164 $267 reversed $275 $-1 #
edge $-1 $424 -27.242716289509119 $425 27.242716289509119 $266 $426 forward 7 unknown #
coedge $-1 $166 $165 $427 $428 forward $66 $-1 #
coedge $-1 $429 $430 $165 $270 reversed $414 $-1 #
edge $-1 $277 -58.264717551194799 $431 58.264717551194799 $269 $432 forward 7 unknown #
coedge $-1 $263 $433 $166 $272 reversed $162 $-1 #
edge $-1 $434 -58.264717551194799 $276 58.264717551194799 $271 $435 forward 7 unknown #
coedge $-1 $266 $167 $433 $436 forward $275 $-1 #
coedge $-1 $167 $266 $429 $437 reversed $275 $-1 #
loop $-1 $-1 $273 $413 #
vertex $-1 $168 $438 #
vertex $-1 $168 $439 #
straight-curve $-1 58.264717551194799 0 10.357919014544862 0 1 0 I I #
face $-1 $440 $441 $40 $-1 $442 reversed single #
loop $-1 $-1 $443 $169 #
plane-surface $-1 -58.264717551194799 0 0 1 0 0 0 0 -1 forward_v I I I I #
coedge $-1 $444 $288 $293 $445 reversed $170 $-1 #
coedge $-1 $446 $172 $447 $448 reversed $109 $-1 #
coedge $-1 $172 $446 $444 $449 forward $109 $-1 #
coedge $-1 $293 $292 $172 $286 forward $294 $-1 #
edge $-1 $450 -15.491217468183207 $451 -8.0117801744686172 $285 $452 forward 7 unknown #
coedge $-1 $174 $173 $443 $453 reversed $69 $-1 #
coedge $-1 $282 $454 $173 $289 reversed $170 $-1 #
edge $-1 $295 -58.264717551194799 $455 58.264717551194799 $288 $456 forward 7 unknown #
coedge $-1 $457 $458 $174 $291 forward $441 $-1 #
edge $-1 $296 -58.264717551194799 $459 58.264717551194799 $290 $460 forward 7 unknown #
coedge $-1 $285 $175 $458 $461 forward $294 $-1 #
coedge $-1 $175 $285 $282 $445 forward $294 $-1 #
loop $-1 $-1 $175 $440 #
vertex $-1 $176 $462 #
vertex $-1 $461 $463 #
straight-curve $-1 58.264717551194799 -11.751498821325912 0.21912501343225799 0 -1 0 I I #
face $-1 $464 $465 $41 $-1 $466 reversed single #
loop $-1 $-1 $183 $177 #
plane-surface $-1 58.264717551194799 0 0 -1 0 0 0 0 1 forward_v I I I I #
coedge $-1 $467 $309 $468 $469 reversed $178 $-1 #
coedge $-1 $470 $180 $467 $471 forward $113 $-1 #
coedge $-1 $180 $470 $472 $473 reversed $113 $-1 #
coedge $-1 $312 $311 $180 $305 forward $299 $-1 #
edge $-1 $474 8.0117801744686155 $475 15.491217468183205 $304 $476 forward 7 unknown #
coedge $-1 $182 $181 $477 $478 reversed $72 $-1 #
coedge $-1 $479 $480 $181 $308 forward $481 $-1 #
edge $-1 $482 -58.264717551194799 $313 58.264717551194799 $307 $483 forward 7 unknown #
coedge $-1 $301 $484 $182 $310 reversed $178 $-1 #
edge $-1 $485 -58.264717551194799 $314 58.264717551194799 $309 $486 forward 7 unknown #
coedge $-1 $304 $183 $484 $487 forward $299 $-1 #
coedge $-1 $183 $304 $479 $488 reversed $299 $-1 #
vertex $-1 $488 $489 #
vertex $-1 $184 $490 #
straight-curve $-1 58.264717551194799 11.75149882132591 0.21912501343225799 0 -1 0 I I #
face $-1 $-1 $491 $42 $-1 $492 forward single #
loop $-1 $-1 $191 $185 #
plane-surface $-1 -58.264717551194799 0 0 1 0 0 0 0 -1 forward_v I I I I #
coedge $-1 $493 $494 $495 $496 reversed $186 $-1 #
coedge $-1 $497 $188 $190 $326 forward $117 $-1 #
coedge $-1 $188 $497 $493 $498 forward $117 $-1 #
coedge $-1 $495 $191 $188 $323 forward $317 $-1 #
edge $-1 $329 -1.5488358984041302 $499 4.6465076952123905 $322 $500 forward 7 unknown #
coedge $-1 $501 $502 $189 $325 forward $491 $-1 #
edge $-1 $503 -16.356175659490113 $328 -12.067018586789182 $324 $504 forward 7 unknown #
edge $-1 $329 -1.0048591735576163e-014 $503 6.0657841737407052 $190 $505 forward 7 unknown #
coedge $-1 $191 $495 $501 $506 reversed $317 $-1 #
vertex $-1 $506 $507 #
vertex $-1 $192 $508 #
straight-curve $-1 -58.264717551194799 0 44.23375732750759 0 0 -1 I I #
coedge $-1 $331 $331 $-1 $509 reversed $195 $-1 #
edge $-1 $510 0 $510 6.2831853071796004 $196 $511 forward 7 unknown #
vertex $-1 $199 $512 #
ellipse-curve $-1 -56.120139014844334 -3.0976717968082603 8.2133404284292286 -0.70710678939079041 0 0.70710677298230451 0.70710677298230451 0 0.70710678939079041 1 I I #
face $-1 $-1 $347 $44 $-1 $513 reversed single #
loop $-1 $-1 $514 $200 #
plane-surface $-1 0 0 10.357919014544862 0 0 1 1 0 0 forward_v I I I I #
coedge $-1 $515 $516 $517 $518 reversed $201 $-1 #
coedge $-1 $519 $203 $205 $345 forward $126 $-1 #
coedge $-1 $203 $519 $515 $520 forward $126 $-1 #
coedge $-1 $517 $206 $203 $342 forward $347 $-1 #
edge $-1 $349 -11.430475396301393 $521 -5.2351318026848723 $341 $522 forward 7 unknown #
coedge $-1 $523 $524 $204 $344 forward $336 $-1 #
edge $-1 $525 -16.356175659490113 $348 -12.067018586789182 $343 $526 forward 7 unknown #
edge $-1 $349 -1.0048591735576163e-014 $525 6.0657841737407052 $205 $527 forward 7 unknown #
coedge $-1 $206 $517 $523 $528 reversed $347 $-1 #
loop $-1 $-1 $517 $335 #
vertex $-1 $528 $529 #
vertex $-1 $207 $530 #
straight-curve $-1 -58.264717551194799 19.763278995794526 44.23375732750759 0 0 -1 I I #
coedge $-1 $351 $351 $-1 $531 reversed $210 $-1 #
edge $-1 $532 0 $532 6.2831853071796004 $211 $533 forward 7 unknown #
vertex $-1 $214 $534 #
ellipse-curve $-1 -56.120139014844334 16.665607198986265 8.2133404284292286 -0.70710678939079041 0 0.70710677298230451 0.70710677298230451 0 0.70710678939079041 1 I I #
face $-1 $-1 $367 $46 $-1 $535 reversed single #
loop $-1 $-1 $536 $215 #
plane-surface $-1 0 0 10.357919014544862 0 0 1 1 0 0 forward_v I I I I #
coedge $-1 $537 $538 $539 $540 reversed $216 $-1 #
coedge $-1 $541 $218 $220 $365 forward $135 $-1 #
coedge $-1 $218 $541 $537 $542 forward $135 $-1 #
coedge $-1 $539 $221 $218 $362 forward $367 $-1 #
edge $-1 $369 -10.914842951180059 $543 -2.7528305379354343 $361 $544 forward 7 unknown #
coedge $-1 $545 $546 $219 $364 forward $356 $-1 #
edge $-1 $547 29.295808781837845 $368 42.022362985979214 $363 $548 forward 7 unknown #
edge $-1 $369 -116.5294351023896 $547 -100.79854888064922 $220 $549 forward 7 unknown #
coedge $-1 $221 $539 $545 $550 reversed $367 $-1 #
loop $-1 $-1 $539 $355 #
vertex $-1 $550 $551 #
vertex $-1 $222 $552 #
straight-curve $-1 58.264717551194799 -17.748679695737806 81.940056481490444 0 0 -1 I I #
coedge $-1 $371 $371 $-1 $553 reversed $225 $-1 #
edge $-1 $554 0 $554 6.2831853071796004 $226 $555 forward 7 unknown #
vertex $-1 $229 $556 #
ellipse-curve $-1 51.901440449124102 -13.667673489115494 5.7347274921657343 0.5877852598018023 0 0.80901698891910034 1.2135254833786506 0 -0.88167788970270344 1 I I #
face $-1 $-1 $557 $48 $-1 $558 forward single #
loop $-1 $-1 $236 $230 #
plane-surface $-1 58.264717551194799 0 0 -1 0 0 0 0 1 forward_v I I I I #
coedge $-1 $559 $560 $561 $562 reversed $231 $-1 #
coedge $-1 $563 $233 $235 $385 forward $144 $-1 #
coedge $-1 $233 $563 $559 $564 forward $144 $-1 #
coedge $-1 $561 $236 $233 $382 forward $376 $-1 #
edge $-1 $388 -4.0810062066223116 $565 4.0810062066223152 $381 $566 forward 7 unknown #
coedge $-1 $567 $568 $234 $384 forward $557 $-1 #
edge $-1 $569 29.295808781837845 $387 42.022362985979214 $383 $570 forward 7 unknown #
edge $-1 $388 -116.5294351023896 $569 -100.79854888064922 $235 $571 forward 7 unknown #
coedge $-1 $236 $561 $567 $572 reversed $376 $-1 #
vertex $-1 $572 $573 #
vertex $-1 $237 $574 #
straight-curve $-1 58.264717551194799 -4.0810062066223098 81.940056481490444 0 0 -1 I I #
coedge $-1 $390 $390 $-1 $575 reversed $240 $-1 #
edge $-1 $576 0 $576 6.2831853071796004 $241 $577 forward 7 unknown #
vertex $-1 $244 $578 #
ellipse-curve $-1 51.901440449124102 3.5527136788005009e-015 5.7347274921657343 0.5877852598018023 0 0.80901698891910034 1.2135254833786506 0 -0.88167788970270344 1 I I #
face $-1 $-1 $579 $50 $-1 $580 forward single #
loop $-1 $-1 $251 $245 #
plane-surface $-1 58.264717551194799 0 0 -1 0 0 0 0 1 forward_v I I I I #
coedge $-1 $581 $582 $583 $584 reversed $246 $-1 #
coedge $-1 $585 $248 $250 $404 forward $153 $-1 #
coedge $-1 $248 $585 $581 $586 forward $153 $-1 #
coedge $-1 $583 $251 $248 $401 forward $395 $-1 #
edge $-1 $407 2.7528305379354379 $587 10.914842951180063 $400 $588 forward 7 unknown #
coedge $-1 $589 $590 $249 $403 forward $579 $-1 #
edge $-1 $591 29.295808781837845 $406 42.022362985979214 $402 $592 forward 7 unknown #
edge $-1 $407 -116.5294351023896 $591 -100.79854888064922 $250 $593 forward 7 unknown #
coedge $-1 $251 $583 $589 $594 reversed $395 $-1 #
vertex $-1 $594 $595 #
vertex $-1 $252 $596 #
straight-curve $-1 58.264717551194799 9.5866672824931882 81.940056481490444 0 0 -1 I I #
coedge $-1 $409 $409 $-1 $597 reversed $255 $-1 #
edge $-1 $598 0 $598 6.2831853071796004 $256 $599 forward 7 unknown #
vertex $-1 $259 $600 #
ellipse-curve $-1 51.901440449124102 13.667673489115501 5.7347274921657343 0.5877852598018023 0 0.80901698891910034 1.2135254833786506 0 -0.88167788970270344 1 I I #
face $-1 $-1 $275 $39 $-1 $601 reversed single #
loop $-1 $-1 $429 $260 #
plane-surface $-1 0 27.242716289509119 0 0 -1 0 0 0 -1 forward_v I I I I #
coedge $-1 $602 $427 $430 $603 forward $261 $-1 #
coedge $-1 $433 $263 $264 $421 reversed $162 $-1 #
coedge $-1 $427 $602 $263 $419 reversed $261 $-1 #
edge $-1 $434 -10.357919014544862 $604 10.357919014544862 $418 $605 forward 7 unknown #
coedge $-1 $265 $264 $602 $606 forward $105 $-1 #
edge $-1 $425 -58.264717551194799 $604 58.264717551194799 $417 $607 forward 7 unknown #
coedge $-1 $430 $429 $265 $423 reversed $414 $-1 #
edge $-1 $608 -58.264717551194799 $424 58.264717551194799 $422 $609 forward 7 unknown #
vertex $-1 $267 $610 #
vertex $-1 $436 $611 #
straight-curve $-1 58.264717551194799 0 -10.357919014544862 0 -1 0 I I #
coedge $-1 $416 $418 $268 $428 reversed $261 $-1 #
edge $-1 $431 -27.242716289509119 $434 27.242716289509119 $427 $612 forward 7 unknown #
coedge $-1 $422 $269 $274 $437 forward $414 $-1 #
coedge $-1 $269 $422 $416 $603 reversed $414 $-1 #
vertex $-1 $270 $613 #
straight-curve $-1 0 27.242716289509119 10.357919014544862 -1 0 0 I I #
coedge $-1 $271 $417 $273 $436 reversed $162 $-1 #
vertex $-1 $428 $614 #
straight-curve $-1 0 -27.242716289509119 10.357919014544862 1 0 0 I I #
edge $-1 $276 -10.357919014544862 $425 10.357919014544862 $273 $615 forward 7 unknown #
edge $-1 $277 -10.357919014544862 $424 10.357919014544862 $274 $616 forward 7 unknown #
point $-1 58.264717551194799 -27.242716289509119 10.357919014544862 #
point $-1 58.264717551194799 27.242716289509119 10.357919014544862 #
face $-1 $-1 $294 $40 $-1 $617 reversed single #
loop $-1 $-1 $290 $279 #
plane-surface $-1 0 -27.242716289509119 0 0 1 0 0 0 1 forward_v I I I I #
coedge $-1 $618 $619 $287 $453 forward $280 $-1 #
coedge $-1 $454 $282 $284 $449 reversed $170 $-1 #
edge $-1 $451 -3.785254652805933 $295 1.407834893223483 $293 $620 forward 7 unknown #
coedge $-1 $284 $283 $621 $622 reversed $109 $-1 #
coedge $-1 $458 $457 $283 $448 forward $441 $-1 #
edge $-1 $623 -58.264717551194799 $450 58.264717551194799 $447 $624 forward 7 unknown #
edge $-1 $625 -58.264717551194799 $451 58.264717551194799 $444 $626 forward 7 unknown #
vertex $-1 $448 $627 #
vertex $-1 $286 $628 #
straight-curve $-1 58.264717551194799 -11.751498821325912 -4.973964532597158 0 1 0 I I #
edge $-1 $459 -15.491217468183207 $455 -8.0117801744686172 $443 $629 forward 7 unknown #
coedge $-1 $288 $444 $618 $630 reversed $170 $-1 #
vertex $-1 $453 $631 #
straight-curve $-1 0 -19.763278995794529 0.21912501343225799 -1 0 0 I I #
coedge $-1 $447 $290 $619 $632 forward $441 $-1 #
coedge $-1 $290 $447 $292 $461 reversed $441 $-1 #
vertex $-1 $632 $633 #
straight-curve $-1 0 -27.242716289509119 0.21912501343225799 -1 0 0 I I #
edge $-1 $296 -0.21912501343225799 $450 4.973964532597158 $292 $634 forward 7 unknown #
point $-1 58.264717551194799 -19.763278995794529 0.21912501343225799 #
point $-1 58.264717551194799 -27.242716289509119 0.21912501343225799 #
face $-1 $-1 $481 $41 $-1 $635 reversed single #
loop $-1 $-1 $477 $298 #
plane-surface $-1 -58.264717551194799 0 0 1 0 0 0 0 -1 forward_v I I I I #
coedge $-1 $484 $301 $302 $471 reversed $178 $-1 #
coedge $-1 $477 $636 $301 $469 forward $465 $-1 #
edge $-1 $637 -3.785254652805933 $485 1.407834893223483 $468 $638 forward 7 unknown #
coedge $-1 $303 $302 $636 $639 reversed $113 $-1 #
edge $-1 $474 -58.264717551194799 $637 58.264717551194799 $467 $640 forward 7 unknown #
coedge $-1 $480 $479 $303 $473 forward $481 $-1 #
edge $-1 $475 -58.264717551194799 $641 58.264717551194799 $472 $642 forward 7 unknown #
vertex $-1 $305 $643 #
vertex $-1 $473 $644 #
straight-curve $-1 58.264717551194799 11.75149882132591 -4.973964532597158 0 1 0 I I #
coedge $-1 $645 $468 $306 $478 forward $465 $-1 #
edge $-1 $485 8.0117801744686155 $482 15.491217468183205 $477 $646 forward 7 unknown #
coedge $-1 $472 $307 $312 $488 forward $481 $-1 #
coedge $-1 $307 $472 $645 $647 reversed $481 $-1 #
loop $-1 $-1 $307 $464 #
vertex $-1 $647 $648 #
straight-curve $-1 0 27.242716289509119 0.21912501343225799 1 0 0 I I #
coedge $-1 $309 $467 $311 $487 reversed $178 $-1 #
vertex $-1 $478 $649 #
straight-curve $-1 0 19.763278995794526 0.21912501343225799 1 0 0 I I #
edge $-1 $314 -1.407834893223483 $474 3.785254652805933 $311 $650 forward 7 unknown #
edge $-1 $313 -0.21912501343225799 $475 4.973964532597158 $312 $651 forward 7 unknown #
point $-1 58.264717551194799 27.242716289509115 0.21912501343225799 #
point $-1 58.264717551194799 19.763278995794526 0.21912501343225799 #
loop $-1 $-1 $324 $316 #
plane-surface $-1 0 0 10.357919014544862 0 0 1 1 0 0 forward_v I I I I #
coedge $-1 $494 $319 $321 $498 reversed $186 $-1 #
coedge $-1 $319 $493 $652 $653 reversed $186 $-1 #
coedge $-1 $327 $322 $319 $496 forward $317 $-1 #
edge $-1 $499 -38.164995485193991 $654 -33.875838312962728 $495 $655 forward 7 unknown #
coedge $-1 $321 $320 $502 $656 reversed $117 $-1 #
edge $-1 $657 -6.0657841737407052 $499 1.0048591735576163e-014 $493 $658 forward 7 unknown #
vertex $-1 $323 $659 #
straight-curve $-1 -58.264717551194799 -1.5488358984041302 6.0687618423135934 0 -1 0 I I #
coedge $-1 $652 $324 $327 $506 forward $491 $-1 #
coedge $-1 $324 $652 $497 $656 forward $491 $-1 #
vertex $-1 $325 $660 #
straight-curve $-1 -70.331736137983981 0 10.357919014544862 -1 0 0 I I #
straight-curve $-1 -58.264717551194792 0 6.0687618423136058 0.70710677298230451 0 0.70710678939079041 I I #
edge $-1 $328 0 $654 6.1953435936165206 $327 $661 forward 7 unknown #
point $-1 -58.264717551194799 0 10.357919014544862 #
point $-1 -58.264717551194799 0 6.0687618423135987 #
edge $-1 $662 1 $662 0 $331 $-1 forward 7 unknown #
vertex $-1 $332 $663 #
ellipse-curve $-1 -54.76162301665962 -3.0976717968082603 6.8548244617690193 -0.70710678939079041 0 0.70710677298230451 0.70710677298230451 0 0.70710678939079041 1 I I #
point $-1 -55.413032241862027 -3.0976717968082603 8.9204472178200156 #
plane-surface $-1 -58.264717551194799 0 0 1 0 0 0 0 -1 forward_v I I I I #
coedge $-1 $524 $523 $516 $664 forward $336 $-1 #
coedge $-1 $516 $338 $340 $520 reversed $201 $-1 #
coedge $-1 $338 $515 $514 $664 reversed $201 $-1 #
coedge $-1 $346 $341 $338 $518 forward $347 $-1 #
edge $-1 $521 -38.164995485193991 $665 -33.875838312962728 $517 $666 forward 7 unknown #
coedge $-1 $340 $339 $524 $667 reversed $126 $-1 #
edge $-1 $668 -6.0657841737407052 $521 1.0048591735576163e-014 $515 $669 forward 7 unknown #
vertex $-1 $342 $670 #
straight-curve $-1 -58.264717551194799 8.3328035994931327 6.0687618423135934 0 -1 0 I I #
coedge $-1 $514 $343 $346 $528 forward $336 $-1 #
coedge $-1 $343 $514 $519 $667 forward $336 $-1 #
vertex $-1 $344 $671 #
straight-curve $-1 -70.331736137983981 19.763278995794526 10.357919014544862 -1 0 0 I I #
straight-curve $-1 -58.264717551194792 19.763278995794526 6.0687618423136058 0.70710677298230451 0 0.70710678939079041 I I #
edge $-1 $348 -19.763278995794526 $665 -13.567935402178005 $346 $672 forward 7 unknown #
point $-1 -58.264717551194799 19.763278995794526 10.357919014544862 #
point $-1 -58.264717551194799 19.763278995794526 6.0687618423135987 #
edge $-1 $673 1 $673 0 $351 $-1 forward 7 unknown #
vertex $-1 $352 $674 #
ellipse-curve $-1 -54.76162301665962 16.665607198986265 6.8548244617690193 -0.70710678939079041 0 0.70710677298230451 0.70710677298230451 0 0.70710678939079041 1 I I #
point $-1 -55.413032241862027 16.665607198986265 8.9204472178200156 #
plane-surface $-1 58.264717551194799 0 0 -1 0 0 0 0 1 forward_v I I I I #
coedge $-1 $546 $545 $538 $675 forward $356 $-1 #
coedge $-1 $538 $358 $360 $542 reversed $216 $-1 #
coedge $-1 $358 $537 $536 $675 reversed $216 $-1 #
coedge $-1 $366 $361 $358 $540 forward $367 $-1 #
edge $-1 $543 -80.828520511703843 $676 -71.582137466945582 $539 $677 forward 7 unknown #
coedge $-1 $360 $359 $546 $678 reversed $135 $-1 #
edge $-1 $679 100.79854888064922 $543 116.5294351023896 $537 $680 forward 7 unknown #
vertex $-1 $362 $681 #
straight-curve $-1 58.264717551194806 -6.8338367445577468 1.1115359697866012 0 1 0 I I #
coedge $-1 $536 $363 $366 $550 forward $356 $-1 #
coedge $-1 $363 $536 $541 $678 forward $356 $-1 #
vertex $-1 $364 $682 #
straight-curve $-1 16.242354565215589 -17.748679695737806 10.357919014544862 1 0 0 I I #
straight-curve $-1 -36.009575155784155 -17.748679695737806 69.605820256001934 -0.80901698891910034 0 0.5877852598018023 I I #
edge $-1 $368 -17.748679695737806 $676 -9.5866672824931811 $366 $683 forward 7 unknown #
point $-1 58.264717551194799 -17.748679695737806 10.357919014544862 #
point $-1 58.264717551194799 -17.748679695737806 1.1115359697866012 #
edge $-1 $684 1 $684 0 $371 $-1 forward 7 unknown #
vertex $-1 $372 $685 #
ellipse-curve $-1 49.774698949315997 -13.667673489115494 2.8075189994515619 0.5877852598018023 0 0.80901698891910034 1.2135254833786506 0 -0.88167788970270344 1 I I #
point $-1 53.114965932502749 -13.667673489115494 4.8530496024630274 #
loop $-1 $-1 $383 $375 #
plane-surface $-1 0 0 10.357919014544862 0 0 1 1 0 0 forward_v I I I I #
coedge $-1 $560 $378 $380 $564 reversed $231 $-1 #
coedge $-1 $378 $559 $686 $687 reversed $231 $-1 #
coedge $-1 $386 $381 $378 $562 forward $376 $-1 #
edge $-1 $565 -80.828520511703843 $688 -71.582137466945582 $561 $689 forward 7 unknown #
coedge $-1 $380 $379 $568 $690 reversed $144 $-1 #
edge $-1 $691 100.79854888064922 $565 116.5294351023896 $559 $692 forward 7 unknown #
vertex $-1 $382 $693 #
straight-curve $-1 58.264717551194806 1.7763568394002505e-015 1.1115359697866012 0 1 0 I I #
coedge $-1 $686 $383 $386 $572 forward $557 $-1 #
coedge $-1 $383 $686 $563 $690 forward $557 $-1 #
vertex $-1 $384 $694 #
straight-curve $-1 16.242354565215589 -4.0810062066223098 10.357919014544862 1 0 0 I I #
straight-curve $-1 -36.009575155784155 -4.0810062066223098 69.605820256001934 -0.80901698891910034 0 0.5877852598018023 I I #
edge $-1 $387 -4.0810062066223098 $688 4.0810062066223169 $386 $695 forward 7 unknown #
point $-1 58.264717551194799 -4.0810062066223098 10.357919014544862 #
point $-1 58.264717551194799 -4.0810062066223098 1.1115359697866012 #
edge $-1 $696 1 $696 0 $390 $-1 forward 7 unknown #
vertex $-1 $391 $697 #
ellipse-curve $-1 49.774698949315997 3.5527136788005009e-015 2.8075189994515619 0.5877852598018023 0 0.80901698891910034 1.2135254833786506 0 -0.88167788970270344 1 I I #
point $-1 53.114965932502749 3.5527136788005009e-015 4.8530496024630274 #
loop $-1 $-1 $402 $394 #
plane-surface $-1 0 0 10.357919014544862 0 0 1 1 0 0 forward_v I I I I #
coedge $-1 $582 $397 $399 $586 reversed $246 $-1 #
coedge $-1 $397 $581 $698 $699 reversed $246 $-1 #
coedge $-1 $405 $400 $397 $584 forward $395 $-1 #
edge $-1 $587 -80.828520511703843 $700 -71.582137466945582 $583 $701 forward 7 unknown #
coedge $-1 $399 $398 $590 $702 reversed $153 $-1 #
edge $-1 $703 100.79854888064922 $587 116.5294351023896 $581 $704 forward 7 unknown #
vertex $-1 $401 $705 #
straight-curve $-1 58.264717551194806 6.8338367445577504 1.1115359697866012 0 1 0 I I #
coedge $-1 $698 $402 $405 $594 forward $579 $-1 #
coedge $-1 $402 $698 $585 $702 forward $579 $-1 #
vertex $-1 $403 $706 #
straight-curve $-1 16.242354565215589 9.5866672824931882 10.357919014544862 1 0 0 I I #
straight-curve $-1 -36.009575155784155 9.5866672824931882 69.605820256001934 -0.80901698891910034 0 0.5877852598018023 I I #
edge $-1 $406 9.5866672824931882 $700 17.748679695737813 $405 $707 forward 7 unknown #
point $-1 58.264717551194799 9.5866672824931882 10.357919014544862 #
point $-1 58.264717551194799 9.5866672824931882 1.1115359697866012 #
edge $-1 $708 1 $708 0 $409 $-1 forward 7 unknown #
vertex $-1 $410 $709 #
ellipse-curve $-1 49.774698949315997 13.667673489115501 2.8075189994515619 0.5877852598018023 0 0.80901698891910034 1.2135254833786506 0 -0.88167788970270344 1 I I #
point $-1 53.114965932502749 13.667673489115501 4.8530496024630274 #
plane-surface $-1 58.264717551194799 0 0 -1 0 0 0 0 1 forward_v I I I I #
coedge $-1 $418 $416 $420 $606 reversed $261 $-1 #
edge $-1 $431 -10.357919014544862 $608 10.357919014544862 $430 $710 forward 7 unknown #
vertex $-1 $606 $711 #
straight-curve $-1 -58.264717551194799 -27.242716289509119 0 0 0 -1 I I #
edge $-1 $604 -27.242716289509119 $608 27.242716289509119 $602 $712 forward 7 unknown #
straight-curve $-1 0 -27.242716289509119 -10.357919014544862 -1 0 0 I I #
vertex $-1 $423 $713 #
straight-curve $-1 0 27.242716289509119 -10.357919014544862 1 0 0 I I #
point $-1 58.264717551194799 27.242716289509119 -10.357919014544862 #
point $-1 58.264717551194799 -27.242716289509119 -10.357919014544862 #
straight-curve $-1 -58.264717551194799 0 10.357919014544862 0 -1 0 I I #
point $-1 -58.264717551194799 27.242716289509119 10.357919014544862 #
point $-1 -58.264717551194799 -27.242716289509119 10.357919014544862 #
straight-curve $-1 58.264717551194799 -27.242716289509119 0 0 0 -1 I I #
straight-curve $-1 58.264717551194799 27.242716289509119 0 0 0 -1 I I #
plane-surface $-1 58.264717551194799 0 0 -1 0 0 0 0 1 forward_v I I I I #
coedge $-1 $621 $443 $454 $630 forward $280 $-1 #
coedge $-1 $443 $621 $457 $632 reversed $280 $-1 #
straight-curve $-1 58.264717551194799 -19.763278995794529 -1.188709879791225 0 0 1 I I #
coedge $-1 $619 $618 $446 $622 forward $280 $-1 #
edge $-1 $625 8.0117801744686172 $623 15.491217468183207 $621 $714 forward 7 unknown #
vertex $-1 $448 $715 #
straight-curve $-1 0 -27.242716289509119 -4.973964532597158 1 0 0 I I #
vertex $-1 $622 $716 #
straight-curve $-1 0 -19.763278995794529 -4.973964532597158 1 0 0 I I #
point $-1 58.264717551194799 -27.242716289509119 -4.973964532597158 #
point $-1 58.264717551194799 -19.763278995794529 -4.973964532597158 #
straight-curve $-1 -58.264717551194799 -11.751498821325912 0.21912501343225799 0 1 0 I I #
edge $-1 $455 -1.407834893223483 $625 3.785254652805933 $618 $717 forward 7 unknown #
point $-1 -58.264717551194799 -19.763278995794529 0.21912501343225799 #
edge $-1 $459 -0.21912501343225799 $623 4.973964532597158 $619 $718 forward 7 unknown #
point $-1 -58.264717551194799 -27.242716289509119 0.21912501343225799 #
straight-curve $-1 58.264717551194799 -27.242716289509119 0 0 0 -1 I I #
plane-surface $-1 0 27.242716289509119 0 0 -1 0 0 0 -1 forward_v I I I I #
coedge $-1 $468 $645 $470 $639 forward $465 $-1 #
vertex $-1 $639 $719 #
straight-curve $-1 -58.264717551194799 19.763278995794526 -1.188709879791225 0 0 1 I I #
edge $-1 $641 -15.491217468183205 $637 -8.0117801744686155 $636 $720 forward 7 unknown #
straight-curve $-1 0 19.763278995794526 -4.973964532597158 -1 0 0 I I #
vertex $-1 $473 $721 #
straight-curve $-1 0 27.242716289509119 -4.973964532597158 -1 0 0 I I #
point $-1 58.264717551194799 19.763278995794526 -4.973964532597158 #
point $-1 58.264717551194799 27.242716289509115 -4.973964532597158 #
coedge $-1 $636 $477 $480 $647 forward $465 $-1 #
straight-curve $-1 -58.264717551194799 11.75149882132591 0.21912501343225799 0 1 0 I I #
edge $-1 $482 -0.21912501343225799 $641 4.973964532597158 $480 $722 forward 7 unknown #
point $-1 -58.264717551194799 27.242716289509115 0.21912501343225799 #
point $-1 -58.264717551194799 19.763278995794526 0.21912501343225799 #
straight-curve $-1 58.264717551194799 19.763278995794526 -1.188709879791225 0 0 -1 I I #
straight-curve $-1 58.264717551194799 27.242716289509119 0 0 0 -1 I I #
coedge $-1 $502 $501 $494 $653 forward $491 $-1 #
edge $-1 $654 12.067018586789182 $657 16.356175659490113 $652 $723 forward 7 unknown #
vertex $-1 $653 $724 #
straight-curve $-1 -58.264717551194799 -6.1953435936165206 44.23375732750759 0 0 1 I I #
edge $-1 $657 -4.6465076952123905 $503 1.5488358984041302 $502 $725 forward 7 unknown #
vertex $-1 $656 $726 #
straight-curve $-1 -58.264717551194792 -6.1953435936165206 6.0687618423136058 -0.70710677298230451 0 -0.70710678939079041 I I #
point $-1 -58.264717551194799 -6.1953435936165206 6.0687618423135987 #
point $-1 -53.975560478493868 0 10.357919014544862 #
straight-curve $-1 -58.264717551194799 0 10.357919014544862 0 -1 0 I I #
vertex $-1 $509 $727 #
point $-1 -54.054516243677313 -3.0976717968082603 7.5619312511598089 #
edge $-1 $665 12.067018586789182 $668 16.356175659490113 $514 $728 forward 7 unknown #
vertex $-1 $664 $729 #
straight-curve $-1 -58.264717551194799 13.567935402178005 44.23375732750759 0 0 1 I I #
edge $-1 $668 5.2351318026848723 $525 11.430475396301393 $524 $730 forward 7 unknown #
vertex $-1 $667 $731 #
straight-curve $-1 -58.264717551194792 13.567935402178005 6.0687618423136058 -0.70710677298230451 0 -0.70710678939079041 I I #
point $-1 -58.264717551194799 13.567935402178005 6.0687618423135987 #
point $-1 -53.975560478493868 19.763278995794526 10.357919014544862 #
straight-curve $-1 -58.264717551194799 0 10.357919014544862 0 -1 0 I I #
vertex $-1 $531 $732 #
point $-1 -54.054516243677313 16.665607198986265 7.5619312511598089 #
edge $-1 $676 -42.022362985979214 $679 -29.295808781837845 $536 $733 forward 7 unknown #
vertex $-1 $540 $734 #
straight-curve $-1 58.264717551194799 -9.5866672824931811 81.940056481490444 0 0 1 I I #
edge $-1 $679 2.7528305379354343 $547 10.914842951180059 $546 $735 forward 7 unknown #
vertex $-1 $678 $736 #
straight-curve $-1 -36.009575155784155 -9.5866672824931811 69.605820256001934 0.80901698891910034 0 -0.5877852598018023 I I #
point $-1 58.264717551194799 -9.5866672824931811 1.1115359697866012 #
point $-1 45.538163347053434 -17.748679695737806 10.357919014544862 #
straight-curve $-1 58.264717551194799 0 10.357919014544862 0 1 0 I I #
vertex $-1 $553 $737 #
point $-1 50.988224432694651 -13.667673489115494 1.9258411097488586 #
coedge $-1 $568 $567 $560 $687 forward $557 $-1 #
edge $-1 $688 -42.022362985979214 $691 -29.295808781837845 $686 $738 forward 7 unknown #
vertex $-1 $687 $739 #
straight-curve $-1 58.264717551194799 4.0810062066223169 81.940056481490444 0 0 1 I I #
edge $-1 $691 -4.0810062066223152 $569 4.0810062066223116 $568 $740 forward 7 unknown #
vertex $-1 $690 $741 #
straight-curve $-1 -36.009575155784155 4.0810062066223169 69.605820256001934 0.80901698891910034 0 -0.5877852598018023 I I #
point $-1 58.264717551194799 4.0810062066223169 1.1115359697866012 #
point $-1 45.538163347053434 -4.0810062066223098 10.357919014544862 #
straight-curve $-1 58.264717551194799 0 10.357919014544862 0 1 0 I I #
vertex $-1 $575 $742 #
point $-1 50.988224432694651 3.5527136788005009e-015 1.9258411097488586 #
coedge $-1 $590 $589 $582 $699 forward $579 $-1 #
edge $-1 $700 -42.022362985979214 $703 -29.295808781837845 $698 $743 forward 7 unknown #
vertex $-1 $699 $744 #
straight-curve $-1 58.264717551194799 17.748679695737813 81.940056481490444 0 0 1 I I #
edge $-1 $703 -10.914842951180063 $591 -2.7528305379354379 $590 $745 forward 7 unknown #
vertex $-1 $702 $746 #
straight-curve $-1 -36.009575155784155 17.748679695737813 69.605820256001934 0.80901698891910034 0 -0.5877852598018023 I I #
point $-1 58.264717551194799 17.748679695737813 1.1115359697866012 #
point $-1 45.538163347053434 9.5866672824931882 10.357919014544862 #
straight-curve $-1 58.264717551194799 0 10.357919014544862 0 1 0 I I #
vertex $-1 $597 $747 #
point $-1 50.988224432694651 13.667673489115501 1.9258411097488586 #
straight-curve $-1 -58.264717551194799 27.242716289509119 0 0 0 -1 I I #
point $-1 -58.264717551194799 -27.242716289509119 -10.357919014544862 #
straight-curve $-1 -58.264717551194799 0 -10.357919014544862 0 1 0 I I #
point $-1 -58.264717551194799 27.242716289509119 -10.357919014544862 #
straight-curve $-1 -58.264717551194799 -11.751498821325912 -4.973964532597158 0 -1 0 I I #
point $-1 -58.264717551194799 -27.242716289509119 -4.973964532597158 #
point $-1 -58.264717551194799 -19.763278995794529 -4.973964532597158 #
straight-curve $-1 -58.264717551194799 -19.763278995794529 -1.188709879791225 0 0 -1 I I #
straight-curve $-1 -58.264717551194799 -27.242716289509119 0 0 0 -1 I I #
point $-1 -58.264717551194799 19.763278995794526 -4.973964532597158 #
straight-curve $-1 -58.264717551194799 11.75149882132591 -4.973964532597158 0 -1 0 I I #
point $-1 -58.264717551194799 27.242716289509115 -4.973964532597158 #
straight-curve $-1 -58.264717551194799 27.242716289509119 0 0 0 -1 I I #
straight-curve $-1 -70.331736137983981 -6.1953435936165206 10.357919014544862 1 0 0 I I #
point $-1 -58.264717551194799 -6.1953435936165206 10.357919014544862 #
straight-curve $-1 -53.975560478493875 -1.5488358984041302 10.357919014544862 0 1 0 I I #
point $-1 -53.975560478493868 -6.1953435936165206 10.357919014544862 #
point $-1 -54.054516227268827 -3.0976717968082603 6.147717688786714 #
straight-curve $-1 -70.331736137983981 13.567935402178005 10.357919014544862 1 0 0 I I #
point $-1 -58.264717551194799 13.567935402178005 10.357919014544862 #
straight-curve $-1 -53.975560478493875 8.3328035994931327 10.357919014544862 0 1 0 I I #
point $-1 -53.975560478493868 13.567935402178005 10.357919014544862 #
point $-1 -54.054516227268827 16.665607198986265 6.147717688786714 #
straight-curve $-1 16.242354565215589 -9.5866672824931811 10.357919014544862 -1 0 0 I I #
point $-1 58.264717551194799 -9.5866672824931811 10.357919014544862 #
straight-curve $-1 45.538163347053427 -6.8338367445577468 10.357919014544862 0 -1 0 I I #
point $-1 45.538163347053434 -9.5866672824931811 10.357919014544862 #
point $-1 48.893021059613297 -13.667673489115494 1.5939935160729113 #
straight-curve $-1 16.242354565215589 4.0810062066223169 10.357919014544862 -1 0 0 I I #
point $-1 58.264717551194799 4.0810062066223169 10.357919014544862 #
straight-curve $-1 45.538163347053427 1.7763568394002505e-015 10.357919014544862 0 -1 0 I I #
point $-1 45.538163347053434 4.0810062066223169 10.357919014544862 #
point $-1 48.893021059613297 3.5527136788005009e-015 1.5939935160729113 #
straight-curve $-1 16.242354565215589 17.748679695737813 10.357919014544862 -1 0 0 I I #
point $-1 58.264717551194799 17.748679695737813 10.357919014544862 #
straight-curve $-1 45.538163347053427 6.8338367445577504 10.357919014544862 0 -1 0 I I #
point $-1 45.538163347053434 17.748679695737813 10.357919014544862 #
point $-1 48.893021059613297 13.667673489115501 1.5939935160729113 #
End-of-ACIS-data 