500 0 2 0           
7 Unknown 11 ACIS 5.0 NT 24 Fri Mar 26 17:39:41 1999 
-1 9.9999999999999995e-007 1e-010 
body $-1 $2 $-1 $3 #
body $-1 $4 $-1 $5 #
lump $-1 $-1 $6 $0 #
transform $-1 1 0 0 0 1 0 0 0 1 68.459120456556903 43.982065138070681 18.911334999749492 1 rotate no_reflect no_shear #
lump $-1 $-1 $7 $1 #
transform $-1 1 0 0 0 1 0 0 0 1 68.459120456556903 43.982065138070681 18.911334999749492 1 rotate no_reflect no_shear #
shell $-1 $-1 $-1 $8 $-1 $2 #
shell $-1 $-1 $-1 $9 $-1 $4 #
face $-1 $10 $11 $6 $-1 $12 forward single #
face $-1 $13 $14 $7 $-1 $15 forward single #
face $-1 $16 $17 $6 $-1 $18 reversed single #
loop $-1 $-1 $19 $8 #
plane-surface $-1 0 0 18.911334999749492 0 0 1 1 0 0 forward_v I I I I #
face $-1 $20 $21 $7 $-1 $22 reversed single #
loop $-1 $-1 $23 $9 #
plane-surface $-1 -68.459120456556903 0 0 1 0 0 0 0 -1 forward_v I I I I #
face $-1 $24 $25 $6 $-1 $26 reversed single #
loop $-1 $-1 $27 $10 #
plane-surface $-1 0 0 -18.911334999749492 0 0 1 1 0 0 forward_v I I I I #
coedge $-1 $28 $29 $30 $31 forward $11 $-1 #
face $-1 $32 $33 $7 $-1 $34 forward single #
loop $-1 $-1 $35 $13 #
plane-surface $-1 0 43.982065138070681 0 0 -1 0 0 0 -1 forward_v I I I I #
coedge $-1 $36 $37 $38 $39 forward $14 $-1 #
face $-1 $40 $41 $6 $-1 $42 reversed single #
loop $-1 $-1 $43 $16 #
plane-surface $-1 0 -43.982065138070681 0 0 1 0 0 0 1 forward_v I I I I #
coedge $-1 $44 $45 $46 $47 forward $17 $-1 #
coedge $-1 $48 $19 $49 $50 forward $11 $-1 #
coedge $-1 $19 $48 $51 $52 forward $11 $-1 #
coedge $-1 $53 $54 $19 $31 reversed $55 $-1 #
edge $-1 $56 -43.982065138070681 $57 43.982065138070681 $30 $58 forward 7 unknown #
face $-1 $59 $60 $7 $-1 $61 reversed single #
loop $-1 $-1 $38 $20 #
plane-surface $-1 -78.780044874416959 0 5.4574203181720966 0 0 1 1 0 0 forward_v I I I I #
coedge $-1 $62 $63 $37 $64 forward $21 $-1 #
coedge $-1 $65 $23 $66 $67 reversed $14 $-1 #
coedge $-1 $23 $65 $35 $64 reversed $14 $-1 #
coedge $-1 $68 $69 $23 $39 reversed $33 $-1 #
edge $-1 $70 -43.982065138070681 $71 43.982065138070681 $38 $72 forward 7 unknown #
face $-1 $73 $74 $6 $-1 $75 reversed single #
loop $-1 $-1 $76 $24 #
plane-surface $-1 -68.459120456556903 0 0 1 0 0 0 0 -1 forward_v I I I I #
coedge $-1 $77 $51 $76 $78 forward $25 $-1 #
coedge $-1 $79 $27 $77 $80 forward $17 $-1 #
coedge $-1 $27 $79 $81 $82 forward $17 $-1 #
coedge $-1 $54 $53 $27 $47 reversed $55 $-1 #
edge $-1 $83 -43.982065138070681 $84 43.982065138070681 $46 $85 forward 7 unknown #
coedge $-1 $29 $28 $86 $87 forward $11 $-1 #
coedge $-1 $88 $89 $28 $50 reversed $74 $-1 #
edge $-1 $57 -68.459120456556903 $90 68.459120456556903 $49 $91 forward 7 unknown #
coedge $-1 $43 $92 $29 $52 reversed $25 $-1 #
edge $-1 $93 -68.459120456556903 $56 68.459120456556903 $51 $94 forward 7 unknown #
coedge $-1 $46 $30 $92 $95 forward $55 $-1 #
coedge $-1 $30 $46 $88 $96 reversed $55 $-1 #
loop $-1 $-1 $53 $73 #
vertex $-1 $31 $97 #
vertex $-1 $31 $98 #
straight-curve $-1 68.459120456556903 0 18.911334999749492 0 1 0 I I #
face $-1 $99 $100 $7 $-1 $101 reversed single #
loop $-1 $-1 $102 $32 #
plane-surface $-1 -78.780044874416959 0 -3.2146563882470423 0 0 1 1 0 0 forward_v I I I I #
coedge $-1 $103 $35 $104 $105 reversed $21 $-1 #
coedge $-1 $35 $103 $68 $106 reversed $21 $-1 #
edge $-1 $70 -5.4574203181720966 $107 3.2146563882470423 $35 $108 forward 7 unknown #
coedge $-1 $37 $36 $102 $109 forward $14 $-1 #
coedge $-1 $110 $111 $36 $67 forward $112 $-1 #
edge $-1 $113 -3.2146563882470423 $71 5.4574203181720966 $66 $114 forward 7 unknown #
coedge $-1 $115 $38 $63 $106 forward $33 $-1 #
coedge $-1 $38 $115 $110 $116 forward $33 $-1 #
vertex $-1 $64 $117 #
vertex $-1 $116 $118 #
straight-curve $-1 -68.459120456556903 0 5.4574203181720966 0 -1 0 I I #
face $-1 $-1 $55 $6 $-1 $119 reversed single #
loop $-1 $-1 $88 $40 #
plane-surface $-1 0 43.982065138070681 0 0 -1 0 0 0 -1 forward_v I I I I #
coedge $-1 $86 $120 $43 $78 reversed $41 $-1 #
coedge $-1 $92 $43 $44 $80 reversed $25 $-1 #
edge $-1 $93 -18.911334999749492 $121 18.911334999749492 $76 $122 forward 7 unknown #
coedge $-1 $45 $44 $120 $123 forward $17 $-1 #
edge $-1 $84 -68.459120456556903 $121 68.459120456556903 $77 $124 forward 7 unknown #
coedge $-1 $89 $88 $45 $82 reversed $74 $-1 #
edge $-1 $125 -68.459120456556903 $83 68.459120456556903 $81 $126 forward 7 unknown #
vertex $-1 $47 $127 #
vertex $-1 $95 $128 #
straight-curve $-1 68.459120456556903 0 -18.911334999749492 0 -1 0 I I #
coedge $-1 $129 $76 $48 $87 reversed $41 $-1 #
edge $-1 $90 -43.982065138070681 $93 43.982065138070681 $86 $130 forward 7 unknown #
coedge $-1 $81 $49 $54 $96 forward $74 $-1 #
coedge $-1 $49 $81 $129 $131 reversed $74 $-1 #
vertex $-1 $50 $132 #
straight-curve $-1 0 43.982065138070681 18.911334999749492 -1 0 0 I I #
coedge $-1 $51 $77 $53 $95 reversed $25 $-1 #
vertex $-1 $87 $133 #
straight-curve $-1 0 -43.982065138070681 18.911334999749492 1 0 0 I I #
edge $-1 $56 -18.911334999749492 $84 18.911334999749492 $53 $134 forward 7 unknown #
edge $-1 $57 -18.911334999749492 $83 18.911334999749492 $54 $135 forward 7 unknown #
point $-1 68.459120456556903 -43.982065138070681 18.911334999749492 #
point $-1 68.459120456556903 43.982065138070681 18.911334999749492 #
face $-1 $-1 $112 $7 $-1 $136 reversed single #
loop $-1 $-1 $137 $59 #
plane-surface $-1 -89.100969292277014 0 1.1213819649625272 1 0 0 0 0 -1 forward_v I I I I #
coedge $-1 $138 $104 $65 $109 reversed $60 $-1 #
coedge $-1 $63 $62 $137 $139 reversed $21 $-1 #
coedge $-1 $102 $140 $62 $105 forward $60 $-1 #
edge $-1 $141 -10.320924417860056 $107 10.320924417860056 $62 $142 forward 7 unknown #
edge $-1 $70 -10.320924417860056 $143 10.320924417860056 $63 $144 forward 7 unknown #
vertex $-1 $64 $145 #
straight-curve $-1 -68.459120456556903 43.982065138070681 0 0 0 -1 I I #
edge $-1 $113 -43.982065138070681 $107 43.982065138070681 $102 $146 forward 7 unknown #
coedge $-1 $147 $66 $69 $116 reversed $112 $-1 #
coedge $-1 $66 $147 $138 $148 reversed $112 $-1 #
loop $-1 $-1 $66 $99 #
vertex $-1 $67 $149 #
straight-curve $-1 -68.459120456556903 -43.982065138070681 0 0 0 1 I I #
coedge $-1 $69 $68 $150 $151 forward $33 $-1 #
edge $-1 $152 -10.320924417860056 $71 10.320924417860056 $110 $153 forward 7 unknown #
point $-1 -68.459120456556903 43.982065138070681 5.4574203181720966 #
point $-1 -68.459120456556903 -43.982065138070681 5.4574203181720966 #
plane-surface $-1 68.459120456556903 0 0 -1 0 0 0 0 1 forward_v I I I I #
coedge $-1 $76 $129 $79 $123 reversed $41 $-1 #
vertex $-1 $123 $154 #
straight-curve $-1 -68.459120456556903 -43.982065138070681 0 0 0 -1 I I #
edge $-1 $121 -43.982065138070681 $125 43.982065138070681 $120 $155 forward 7 unknown #
straight-curve $-1 0 -43.982065138070681 -18.911334999749492 -1 0 0 I I #
vertex $-1 $82 $156 #
straight-curve $-1 0 43.982065138070681 -18.911334999749492 1 0 0 I I #
point $-1 68.459120456556903 43.982065138070681 -18.911334999749492 #
point $-1 68.459120456556903 -43.982065138070681 -18.911334999749492 #
coedge $-1 $120 $86 $89 $131 forward $41 $-1 #
straight-curve $-1 -68.459120456556903 0 18.911334999749492 0 -1 0 I I #
edge $-1 $90 -18.911334999749492 $125 18.911334999749492 $89 $157 forward 7 unknown #
point $-1 -68.459120456556903 43.982065138070681 18.911334999749492 #
point $-1 -68.459120456556903 -43.982065138070681 18.911334999749492 #
straight-curve $-1 68.459120456556903 -43.982065138070681 0 0 0 -1 I I #
straight-curve $-1 68.459120456556903 43.982065138070681 0 0 0 -1 I I #
plane-surface $-1 0 -43.982065138070681 0 0 1 0 0 0 1 forward_v I I I I #
coedge $-1 $158 $150 $103 $139 forward $100 $-1 #
coedge $-1 $140 $102 $111 $148 forward $60 $-1 #
edge $-1 $143 -4.3360383532095694 $141 4.3360383532095694 $103 $159 forward 7 unknown #
coedge $-1 $104 $138 $158 $160 forward $60 $-1 #
vertex $-1 $105 $161 #
straight-curve $-1 -78.780044874416959 43.982065138070681 -3.2146563882470423 1 0 0 I I #
vertex $-1 $106 $162 #
straight-curve $-1 -78.780044874416959 43.982065138070681 5.4574203181720966 -1 0 0 I I #
point $-1 -68.459120456556903 43.982065138070681 -3.2146563882470423 #
straight-curve $-1 -68.459120456556903 0 -3.2146563882470423 0 1 0 I I #
coedge $-1 $111 $110 $163 $164 forward $112 $-1 #
edge $-1 $113 -10.320924417860056 $165 10.320924417860056 $111 $166 forward 7 unknown #
point $-1 -68.459120456556903 -43.982065138070681 -3.2146563882470423 #
coedge $-1 $137 $163 $115 $151 reversed $100 $-1 #
edge $-1 $143 -43.982065138070681 $152 43.982065138070681 $150 $167 forward 7 unknown #
vertex $-1 $151 $168 #
straight-curve $-1 -78.780044874416959 -43.982065138070681 5.4574203181720966 1 0 0 I I #
point $-1 -68.459120456556903 -43.982065138070681 -18.911334999749492 #
straight-curve $-1 -68.459120456556903 0 -18.911334999749492 0 1 0 I I #
point $-1 -68.459120456556903 43.982065138070681 -18.911334999749492 #
straight-curve $-1 -68.459120456556903 43.982065138070681 0 0 0 -1 I I #
coedge $-1 $163 $137 $140 $160 reversed $100 $-1 #
straight-curve $-1 -89.100969292277014 43.982065138070681 1.1213819649625272 0 0 -1 I I #
edge $-1 $165 -43.982065138070681 $141 43.982065138070681 $158 $169 forward 7 unknown #
point $-1 -89.100969292277014 43.982065138070681 -3.2146563882470423 #
point $-1 -89.100969292277014 43.982065138070681 5.4574203181720966 #
coedge $-1 $150 $158 $147 $164 reversed $100 $-1 #
edge $-1 $152 -4.3360383532095694 $165 4.3360383532095694 $163 $170 forward 7 unknown #
vertex $-1 $160 $171 #
straight-curve $-1 -78.780044874416959 -43.982065138070681 -3.2146563882470423 -1 0 0 I I #
straight-curve $-1 -89.100969292277014 0 5.4574203181720966 0 -1 0 I I #
point $-1 -89.100969292277014 -43.982065138070681 5.4574203181720966 #
straight-curve $-1 -89.100969292277014 0 -3.2146563882470423 0 1 0 I I #
straight-curve $-1 -89.100969292277014 -43.982065138070681 1.1213819649625272 0 0 -1 I I #
point $-1 -89.100969292277014 -43.982065138070681 -3.2146563882470423 #
End-of-ACIS-data 