500 0 4 0           
7 Unknown 11 ACIS 5.0 NT 24 Thu Mar 25 20:11:55 1999 
-1 9.9999999999999995e-007 1e-010 
body $-1 $4 $-1 $5 #
body $-1 $6 $-1 $7 #
body $-1 $8 $-1 $9 #
body $-1 $10 $-1 $11 #
lump $-1 $-1 $12 $0 #
transform $-1 1 0 0 0 1 0 0 0 1 66.424146244697411 40.359454781626461 15.209775913904672 1 rotate no_reflect no_shear #
lump $-1 $-1 $13 $1 #
transform $-1 1 0 0 0 1 0 0 0 1 66.424146244697411 40.359454781626461 15.209775913904672 1 rotate no_reflect no_shear #
lump $-1 $-1 $14 $2 #
transform $-1 1 0 0 0 1 0 0 0 1 66.424146244697411 40.359454781626461 15.209775913904672 1 rotate no_reflect no_shear #
lump $-1 $-1 $15 $3 #
transform $-1 1 0 0 0 1 0 0 0 1 66.424146244697411 40.359454781626461 15.209775913904672 1 rotate no_reflect no_shear #
shell $-1 $-1 $-1 $16 $-1 $4 #
shell $-1 $-1 $-1 $17 $-1 $6 #
shell $-1 $-1 $-1 $18 $-1 $8 #
shell $-1 $-1 $-1 $19 $-1 $10 #
face $-1 $20 $21 $12 $-1 $22 forward single #
face $-1 $23 $24 $13 $-1 $25 forward single #
face $-1 $26 $27 $14 $-1 $28 reversed single #
face $-1 $29 $30 $15 $-1 $31 reversed single #
face $-1 $32 $33 $12 $-1 $34 reversed single #
loop $-1 $-1 $35 $16 #
plane-surface $-1 0 0 15.209775913904672 0 0 1 1 0 0 forward_v I I I I #
face $-1 $36 $37 $13 $-1 $38 forward single #
loop $-1 $-1 $39 $17 #
plane-surface $-1 -27.915696679783895 79.850454577033304 154.80844079346858 -1 0 0 0 0.71933980857756763 0.69465836192734942 forward_v I I I I #
face $-1 $40 $41 $14 $-1 $42 reversed single #
loop $-1 $43 $44 $18 #
cone-surface $-1 -55.421732083293548 32.809340823137525 7.5562031394030607 0 -0.71933980857756763 -0.69465836192734942 3 0 0 1 I I 0 1 3 forward I I I I #
face $-1 $45 $46 $15 $-1 $47 reversed single #
loop $-1 $48 $49 $19 #
cone-surface $-1 -38.918110841187762 32.809340823137525 7.5562031394030607 0 -0.71933980857756763 -0.69465836192734942 3 0 0 1 I I 0 1 3 forward I I I I #
face $-1 $50 $51 $12 $-1 $52 reversed single #
loop $-1 $-1 $53 $20 #
plane-surface $-1 0 0 -15.209775913904672 0 0 1 1 0 0 forward_v I I I I #
coedge $-1 $54 $55 $56 $57 forward $21 $-1 #
face $-1 $58 $59 $13 $-1 $60 reversed single #
loop $-1 $-1 $61 $23 #
plane-surface $-1 -47.169921462240652 -15.712610712144681 62.52426354794018 0 0.71933980857756763 0.69465836192734942 1 0 0 forward_v I I I I #
coedge $-1 $62 $63 $64 $65 reversed $24 $-1 #
face $-1 $66 $67 $14 $-1 $68 forward single #
loop $-1 $69 $70 $26 #
cone-surface $-1 -55.421732083293548 29.370715643943733 4.2355614819028489 0 -0.71933980857756763 -0.69465836192734942 1.5 0 0 1 I I -0.70710678118654757 0.70710678118654757 1.5 forward I I I I #
loop $-1 $-1 $71 $18 #
coedge $-1 $44 $44 $72 $73 reversed $27 $-1 #
face $-1 $74 $75 $15 $-1 $76 reversed single #
loop $-1 $77 $78 $29 #
cone-surface $-1 -38.918110841187762 29.370715643943733 4.2355614819028489 0 -0.71933980857756763 -0.69465836192734942 1.5 0 0 1 I I -0.70710678118654757 0.70710678118654757 1.5 forward I I I I #
loop $-1 $-1 $79 $19 #
coedge $-1 $49 $49 $80 $81 reversed $30 $-1 #
face $-1 $82 $83 $12 $-1 $84 reversed single #
loop $-1 $-1 $85 $32 #
plane-surface $-1 0 -40.359454781626461 0 0 1 0 0 0 1 forward_v I I I I #
coedge $-1 $86 $87 $88 $89 forward $33 $-1 #
coedge $-1 $90 $35 $91 $92 forward $21 $-1 #
coedge $-1 $35 $90 $93 $94 forward $21 $-1 #
coedge $-1 $95 $96 $35 $57 reversed $97 $-1 #
edge $-1 $98 -40.359454781626461 $99 40.359454781626461 $56 $100 forward 7 unknown #
face $-1 $101 $102 $13 $-1 $103 forward single #
loop $-1 $-1 $104 $36 #
plane-surface $-1 0 40.359454781626461 0 0 -1 0 0 0 -1 forward_v I I I I #
coedge $-1 $105 $106 $104 $107 reversed $37 $-1 #
coedge $-1 $63 $39 $106 $108 forward $24 $-1 #
coedge $-1 $39 $62 $109 $110 reversed $24 $-1 #
coedge $-1 $111 $104 $39 $65 forward $59 $-1 #
edge $-1 $112 -72.944281802614469 $113 -62.194444482829617 $64 $114 forward 7 unknown #
face $-1 $115 $116 $14 $-1 $117 forward single #
loop $-1 $-1 $118 $40 #
plane-surface $-1 -27.915696679783895 79.850454577033304 154.80844079346858 -1 0 0 0 0.71933980857756763 0.69465836192734942 forward_v I I I I #
loop $-1 $-1 $119 $26 #
coedge $-1 $70 $70 $71 $120 forward $41 $-1 #
coedge $-1 $71 $71 $70 $120 reversed $43 $-1 #
coedge $-1 $72 $72 $44 $73 forward $116 $-1 #
edge $-1 $121 -1.586824100923752e-015 $121 6.2831853071795987 $72 $122 forward 7 unknown #
face $-1 $123 $124 $15 $-1 $125 reversed single #
loop $-1 $126 $127 $45 #
cone-surface $-1 -55.421732083293548 32.809340823137525 7.5562031394030607 0 -0.71933980857756763 -0.69465836192734942 3 0 0 1 I I 0 1 3 forward I I I I #
loop $-1 $-1 $128 $29 #
coedge $-1 $78 $78 $79 $129 forward $46 $-1 #
coedge $-1 $79 $79 $78 $129 reversed $48 $-1 #
coedge $-1 $80 $80 $49 $81 forward $130 $-1 #
edge $-1 $131 -1.586824100923752e-015 $131 6.2831853071795987 $80 $132 forward 7 unknown #
face $-1 $133 $134 $12 $-1 $135 reversed single #
loop $-1 $-1 $136 $50 #
plane-surface $-1 -66.424146244697411 0 0 1 0 0 0 0 -1 forward_v I I I I #
coedge $-1 $137 $93 $138 $139 forward $51 $-1 #
coedge $-1 $140 $53 $137 $141 forward $33 $-1 #
coedge $-1 $53 $140 $142 $143 forward $33 $-1 #
coedge $-1 $96 $95 $53 $89 reversed $97 $-1 #
edge $-1 $144 -40.359454781626461 $145 40.359454781626461 $88 $146 forward 7 unknown #
coedge $-1 $55 $54 $147 $148 forward $21 $-1 #
coedge $-1 $149 $150 $54 $92 reversed $134 $-1 #
edge $-1 $99 -66.424146244697411 $151 66.424146244697411 $91 $152 forward 7 unknown #
coedge $-1 $85 $153 $55 $94 reversed $51 $-1 #
edge $-1 $154 -66.424146244697411 $98 66.424146244697411 $93 $155 forward 7 unknown #
coedge $-1 $88 $56 $153 $156 forward $97 $-1 #
coedge $-1 $56 $88 $149 $157 reversed $97 $-1 #
loop $-1 $-1 $95 $133 #
vertex $-1 $57 $158 #
vertex $-1 $57 $159 #
straight-curve $-1 66.424146244697411 0 15.209775913904672 0 1 0 I I #
face $-1 $160 $161 $13 $-1 $162 reversed single #
loop $-1 $-1 $109 $58 #
plane-surface $-1 0 0 15.209775913904672 0 0 1 1 0 0 forward_v I I I I #
coedge $-1 $64 $163 $61 $107 forward $59 $-1 #
coedge $-1 $164 $61 $165 $166 reversed $37 $-1 #
coedge $-1 $61 $164 $62 $108 reversed $37 $-1 #
edge $-1 $167 -42.839185513577085 $112 -4.3307359486635697 $104 $168 forward 7 unknown #
edge $-1 $112 -80.718909563252936 $169 -65.774877283096316 $62 $170 forward 7 unknown #
coedge $-1 $171 $172 $63 $110 forward $102 $-1 #
edge $-1 $113 -0.4342274931098089 $169 9.9467694912132174 $109 $173 forward 7 unknown #
coedge $-1 $174 $64 $172 $175 reversed $59 $-1 #
vertex $-1 $107 $176 #
vertex $-1 $110 $177 #
straight-curve $-1 -27.915696679783895 40.359454781626461 77.404220396734289 0 0 1 I I #
face $-1 $178 $179 $14 $-1 $180 reversed single #
loop $-1 $181 $72 $66 #
plane-surface $-1 -47.169921462240652 -15.712610712144681 62.52426354794018 0 0.71933980857756763 0.69465836192734942 1 0 0 forward_v I I I I #
coedge $-1 $182 $183 $184 $185 reversed $67 $-1 #
coedge $-1 $119 $119 $-1 $186 forward $69 $-1 #
edge $-1 $187 0 $187 6.2831853071796004 $70 $188 forward 7 unknown #
vertex $-1 $73 $189 #
ellipse-curve $-1 -55.421732083293548 35.168956289464958 9.8348572540122419 0 -0.71933980857756763 -0.69465836192734942 3 0 0 1 I I #
face $-1 $190 $191 $15 $-1 $192 forward single #
loop $-1 $193 $194 $74 #
cone-surface $-1 -55.421732083293548 29.370715643943733 4.2355614819028489 0 -0.71933980857756763 -0.69465836192734942 1.5 0 0 1 I I -0.70710678118654757 0.70710678118654757 1.5 forward I I I I #
loop $-1 $-1 $195 $45 #
coedge $-1 $127 $127 $196 $197 reversed $75 $-1 #
coedge $-1 $128 $128 $-1 $198 forward $77 $-1 #
edge $-1 $199 0 $199 6.2831853071796004 $78 $200 forward 7 unknown #
loop $-1 $201 $80 $190 #
vertex $-1 $81 $202 #
ellipse-curve $-1 -38.918110841187762 35.168956289464958 9.8348572540122419 0 -0.71933980857756763 -0.69465836192734942 3 0 0 1 I I #
face $-1 $-1 $97 $12 $-1 $203 reversed single #
loop $-1 $-1 $149 $82 #
plane-surface $-1 0 40.359454781626461 0 0 -1 0 0 0 -1 forward_v I I I I #
coedge $-1 $204 $147 $150 $205 forward $83 $-1 #
coedge $-1 $153 $85 $86 $141 reversed $51 $-1 #
coedge $-1 $147 $204 $85 $139 reversed $83 $-1 #
edge $-1 $154 -15.209775913904672 $206 15.209775913904672 $138 $207 forward 7 unknown #
coedge $-1 $87 $86 $204 $208 forward $33 $-1 #
edge $-1 $145 -66.424146244697411 $206 66.424146244697411 $137 $209 forward 7 unknown #
coedge $-1 $150 $149 $87 $143 reversed $134 $-1 #
edge $-1 $210 -66.424146244697411 $144 66.424146244697411 $142 $211 forward 7 unknown #
vertex $-1 $89 $212 #
vertex $-1 $156 $213 #
straight-curve $-1 66.424146244697411 0 -15.209775913904672 0 -1 0 I I #
coedge $-1 $136 $138 $90 $148 reversed $83 $-1 #
edge $-1 $151 -40.359454781626461 $154 40.359454781626461 $147 $214 forward 7 unknown #
coedge $-1 $142 $91 $96 $157 forward $134 $-1 #
coedge $-1 $91 $142 $136 $205 reversed $134 $-1 #
vertex $-1 $92 $215 #
straight-curve $-1 0 40.359454781626461 15.209775913904672 -1 0 0 I I #
coedge $-1 $93 $137 $95 $156 reversed $51 $-1 #
vertex $-1 $148 $216 #
straight-curve $-1 0 -40.359454781626461 15.209775913904672 1 0 0 I I #
edge $-1 $98 -15.209775913904672 $145 15.209775913904672 $95 $217 forward 7 unknown #
edge $-1 $99 -15.209775913904672 $144 15.209775913904672 $96 $218 forward 7 unknown #
point $-1 66.424146244697411 -40.359454781626461 15.209775913904672 #
point $-1 66.424146244697411 40.359454781626461 15.209775913904672 #
face $-1 $219 $220 $13 $-1 $221 reversed single #
loop $-1 $-1 $222 $101 #
plane-surface $-1 0 0 -15.209775913904672 0 0 1 1 0 0 forward_v I I I I #
coedge $-1 $104 $223 $224 $225 reversed $59 $-1 #
coedge $-1 $106 $105 $171 $226 reversed $37 $-1 #
coedge $-1 $224 $227 $105 $166 forward $228 $-1 #
edge $-1 $229 37.829333187631704 $167 52.773365467788324 $165 $230 forward 7 unknown #
vertex $-1 $225 $231 #
straight-curve $-1 -23.584960731120326 40.359454781626454 4.4599385941198264 1 0 0 I I #
vertex $-1 $226 $232 #
straight-curve $-1 -27.915696679783895 -15.712610712144681 62.52426354794018 0 -0.69465836192734942 0.71933980857756763 I I #
coedge $-1 $233 $109 $164 $226 forward $102 $-1 #
coedge $-1 $109 $234 $111 $175 forward $102 $-1 #
straight-curve $-1 -27.915696679783895 39.925227288516652 15.209775913904679 0 -1 0 I I #
coedge $-1 $223 $111 $235 $236 forward $59 $-1 #
edge $-1 $237 -66.424146244697411 $113 27.915696679783895 $111 $238 forward 7 unknown #
point $-1 -27.915696679783895 40.359454781626461 4.4599385941198193 #
point $-1 -27.915696679783895 40.359454781626461 15.209775913904672 #
face $-1 $239 $240 $14 $-1 $241 forward single #
loop $-1 $-1 $242 $115 #
plane-surface $-1 0 40.359454781626461 0 0 -1 0 0 0 -1 forward_v I I I I #
loop $-1 $-1 $243 $66 #
coedge $-1 $183 $118 $244 $245 forward $67 $-1 #
coedge $-1 $118 $182 $246 $247 reversed $67 $-1 #
coedge $-1 $248 $242 $118 $185 forward $179 $-1 #
edge $-1 $249 -72.944281802614469 $250 -62.194444482829617 $184 $251 forward 7 unknown #
edge $-1 $252 1 $252 0 $119 $-1 forward 7 unknown #
vertex $-1 $120 $253 #
ellipse-curve $-1 -55.421732083293548 30.449725356810085 5.2775490247938732 0 0.71933980857756763 0.69465836192734942 3 0 0 1 I I #
point $-1 -52.421732083293548 35.168956289464973 9.834857254012249 #
face $-1 $254 $130 $15 $-1 $255 forward single #
loop $-1 $-1 $256 $123 #
plane-surface $-1 -27.915696679783895 79.850454577033304 154.80844079346858 -1 0 0 0 0.71933980857756763 0.69465836192734942 forward_v I I I I #
loop $-1 $-1 $257 $74 #
coedge $-1 $194 $194 $195 $258 forward $124 $-1 #
coedge $-1 $195 $195 $194 $258 reversed $126 $-1 #
coedge $-1 $196 $196 $127 $197 forward $201 $-1 #
edge $-1 $259 -1.586824100923752e-015 $259 6.2831853071795987 $196 $260 forward 7 unknown #
edge $-1 $261 1 $261 0 $128 $-1 forward 7 unknown #
vertex $-1 $129 $262 #
ellipse-curve $-1 -38.918110841187762 30.449725356810085 5.2775490247938732 0 0.71933980857756763 0.69465836192734942 3 0 0 1 I I #
loop $-1 $263 $196 $190 #
point $-1 -35.918110841187762 35.168956289464973 9.834857254012249 #
plane-surface $-1 66.424146244697411 0 0 -1 0 0 0 0 1 forward_v I I I I #
coedge $-1 $138 $136 $140 $208 reversed $83 $-1 #
edge $-1 $151 -15.209775913904672 $210 15.209775913904672 $150 $264 forward 7 unknown #
vertex $-1 $208 $265 #
straight-curve $-1 -66.424146244697411 -40.359454781626461 0 0 0 -1 I I #
edge $-1 $206 -40.359454781626461 $210 40.359454781626461 $204 $266 forward 7 unknown #
straight-curve $-1 0 -40.359454781626461 -15.209775913904672 -1 0 0 I I #
vertex $-1 $143 $267 #
straight-curve $-1 0 40.359454781626461 -15.209775913904672 1 0 0 I I #
point $-1 66.424146244697411 40.359454781626461 -15.209775913904672 #
point $-1 66.424146244697411 -40.359454781626461 -15.209775913904672 #
straight-curve $-1 -66.424146244697411 0 15.209775913904672 0 -1 0 I I #
point $-1 -66.424146244697411 40.359454781626461 15.209775913904672 #
point $-1 -66.424146244697411 -40.359454781626461 15.209775913904672 #
straight-curve $-1 66.424146244697411 -40.359454781626461 0 0 0 -1 I I #
straight-curve $-1 66.424146244697411 40.359454781626461 0 0 0 -1 I I #
face $-1 $268 $228 $13 $-1 $269 reversed single #
loop $-1 $-1 $270 $160 #
plane-surface $-1 0 -40.359454781626461 0 0 1 0 0 0 1 forward_v I I I I #
coedge $-1 $271 $272 $273 $274 forward $161 $-1 #
coedge $-1 $163 $174 $272 $275 reversed $59 $-1 #
coedge $-1 $276 $165 $163 $225 forward $228 $-1 #
edge $-1 $167 -4.4599385941198166 $277 15.209775913904672 $163 $278 forward 7 unknown #
edge $-1 $169 4.3307359486635697 $229 42.839185513577085 $171 $279 forward 7 unknown #
coedge $-1 $165 $280 $233 $281 reversed $228 $-1 #
loop $-1 $-1 $165 $219 #
vertex $-1 $281 $282 #
straight-curve $-1 -66.424146244697411 3.6999951723792783 42.421921207712693 0 0.69465836192734942 -0.71933980857756763 I I #
point $-1 -66.424146244697411 40.359454781626461 4.4599385941198166 #
point $-1 -27.915696679783895 29.978457797303435 15.209775913904672 #
coedge $-1 $283 $171 $227 $281 forward $102 $-1 #
coedge $-1 $172 $283 $284 $285 forward $102 $-1 #
coedge $-1 $284 $273 $174 $236 reversed $286 $-1 #
edge $-1 $237 -15.209775913904672 $287 15.209775913904672 $235 $288 forward 7 unknown #
vertex $-1 $285 $289 #
straight-curve $-1 0 40.359454781626461 15.209775913904672 -1 0 0 I I #
face $-1 $290 $291 $14 $-1 $292 reversed single #
loop $-1 $-1 $246 $178 #
plane-surface $-1 0 0 15.209775913904672 0 0 1 1 0 0 forward_v I I I I #
coedge $-1 $184 $293 $243 $294 forward $179 $-1 #
coedge $-1 $295 $244 $242 $294 reversed $181 $-1 #
coedge $-1 $243 $296 $182 $245 reversed $181 $-1 #
edge $-1 $249 -80.718909563252936 $297 -65.774877283096316 $182 $298 forward 7 unknown #
coedge $-1 $299 $300 $183 $247 forward $240 $-1 #
edge $-1 $250 -0.4342274931098089 $297 9.9467694912132174 $246 $301 forward 7 unknown #
coedge $-1 $302 $184 $300 $303 reversed $179 $-1 #
vertex $-1 $294 $304 #
vertex $-1 $247 $305 #
straight-curve $-1 -27.915696679783895 40.359454781626461 77.404220396734289 0 0 1 I I #
vertex $-1 $186 $306 #
point $-1 -52.421732083293548 30.449725356810085 5.2775490247938732 #
face $-1 $307 $308 $15 $-1 $309 reversed single #
plane-surface $-1 -47.169921462240652 -15.712610712144681 62.52426354794018 0 0.71933980857756763 0.69465836192734942 1 0 0 forward_v I I I I #
coedge $-1 $310 $311 $312 $313 reversed $191 $-1 #
coedge $-1 $257 $257 $-1 $314 forward $193 $-1 #
edge $-1 $315 0 $315 6.2831853071796004 $194 $316 forward 7 unknown #
vertex $-1 $197 $317 #
ellipse-curve $-1 -55.421732083293548 35.168956289464958 9.8348572540122419 0 -0.71933980857756763 -0.69465836192734942 3 0 0 1 I I #
vertex $-1 $198 $318 #
point $-1 -35.918110841187762 30.449725356810085 5.2775490247938732 #
loop $-1 $-1 $319 $190 #
straight-curve $-1 -66.424146244697411 40.359454781626461 0 0 0 -1 I I #
point $-1 -66.424146244697411 -40.359454781626461 -15.209775913904672 #
straight-curve $-1 -66.424146244697411 0 -15.209775913904672 0 1 0 I I #
point $-1 -66.424146244697411 40.359454781626461 -15.209775913904672 #
face $-1 $-1 $286 $13 $-1 $320 reversed single #
plane-surface $-1 -66.424146244697411 0 0 1 0 0 0 0 -1 forward_v I I I I #
coedge $-1 $321 $322 $280 $323 forward $220 $-1 #
coedge $-1 $324 $222 $321 $325 forward $161 $-1 #
coedge $-1 $222 $324 $223 $275 forward $161 $-1 #
coedge $-1 $235 $326 $222 $274 reversed $286 $-1 #
edge $-1 $287 -40.359454781626461 $327 40.359454781626461 $273 $328 forward 7 unknown #
edge $-1 $277 -66.424146244697411 $287 66.424146244697411 $223 $329 forward 7 unknown #
coedge $-1 $280 $224 $324 $330 reversed $228 $-1 #
vertex $-1 $275 $331 #
straight-curve $-1 -66.424146244697411 40.359454781626461 0 0 0 -1 I I #
straight-curve $-1 -23.584960731120326 29.978457797303431 15.209775913904675 -1 0 0 I I #
coedge $-1 $227 $276 $270 $323 reversed $228 $-1 #
edge $-1 $229 -29.978457797303435 $332 40.359454781626461 $227 $333 forward 7 unknown #
point $-1 -66.424146244697411 29.978457797303435 15.209775913904672 #
coedge $-1 $234 $233 $322 $334 forward $102 $-1 #
coedge $-1 $326 $235 $234 $285 reversed $286 $-1 #
edge $-1 $335 -40.359454781626461 $237 40.359454781626461 $284 $336 forward 7 unknown #
loop $-1 $-1 $326 $268 #
vertex $-1 $274 $337 #
straight-curve $-1 66.424146244697411 40.359454781626461 0 0 0 -1 I I #
point $-1 66.424146244697411 40.359454781626461 15.209775913904672 #
face $-1 $338 $339 $14 $-1 $340 reversed single #
loop $-1 $-1 $341 $239 #
plane-surface $-1 0 0 -15.209775913904672 0 0 1 1 0 0 forward_v I I I I #
coedge $-1 $242 $342 $343 $344 reversed $179 $-1 #
edge $-1 $345 -42.839185513577085 $249 -4.3307359486635697 $242 $346 forward 7 unknown #
coedge $-1 $296 $243 $347 $348 reversed $181 $-1 #
coedge $-1 $244 $295 $299 $349 reversed $181 $-1 #
vertex $-1 $349 $350 #
straight-curve $-1 -27.915696679783895 -15.712610712144681 62.52426354794018 0 -0.69465836192734942 0.71933980857756763 I I #
coedge $-1 $351 $246 $296 $349 forward $240 $-1 #
coedge $-1 $246 $352 $248 $303 forward $240 $-1 #
straight-curve $-1 -27.915696679783895 39.925227288516652 15.209775913904679 0 -1 0 I I #
coedge $-1 $342 $248 $353 $354 forward $179 $-1 #
edge $-1 $355 -66.424146244697411 $250 27.915696679783895 $248 $356 forward 7 unknown #
point $-1 -27.915696679783895 40.359454781626461 4.4599385941198193 #
point $-1 -27.915696679783895 40.359454781626461 15.209775913904672 #
point $-1 -55.421732083293548 28.291705931077381 3.1935739390118245 #
face $-1 $357 $358 $15 $-1 $359 forward single #
loop $-1 $-1 $360 $254 #
plane-surface $-1 0 40.359454781626461 0 0 -1 0 0 0 -1 forward_v I I I I #
coedge $-1 $311 $256 $361 $362 forward $191 $-1 #
coedge $-1 $256 $310 $363 $364 reversed $191 $-1 #
coedge $-1 $365 $360 $256 $313 forward $308 $-1 #
edge $-1 $366 -72.944281802614469 $367 -62.194444482829617 $312 $368 forward 7 unknown #
edge $-1 $369 1 $369 0 $257 $-1 forward 7 unknown #
vertex $-1 $258 $370 #
ellipse-curve $-1 -55.421732083293548 30.449725356810085 5.2775490247938732 0 0.71933980857756763 0.69465836192734942 3 0 0 1 I I #
point $-1 -52.421732083293548 35.168956289464973 9.834857254012249 #
point $-1 -38.918110841187762 28.291705931077381 3.1935739390118245 #
coedge $-1 $371 $361 $360 $372 reversed $263 $-1 #
plane-surface $-1 66.424146244697411 0 0 -1 0 0 0 0 1 forward_v I I I I #
coedge $-1 $373 $270 $271 $325 reversed $220 $-1 #
coedge $-1 $270 $373 $283 $334 reversed $220 $-1 #
edge $-1 $332 -15.209775913904672 $374 15.209775913904672 $280 $375 forward 7 unknown #
coedge $-1 $272 $271 $276 $330 forward $161 $-1 #
edge $-1 $327 -66.424146244697411 $374 66.424146244697411 $321 $376 forward 7 unknown #
coedge $-1 $273 $284 $373 $377 forward $286 $-1 #
vertex $-1 $377 $378 #
straight-curve $-1 66.424146244697411 0 -15.209775913904672 0 -1 0 I I #
straight-curve $-1 0 40.359454781626461 -15.209775913904672 1 0 0 I I #
edge $-1 $374 -40.359454781626461 $277 40.359454781626461 $276 $379 forward 7 unknown #
point $-1 -66.424146244697411 40.359454781626461 -15.209775913904672 #
vertex $-1 $281 $380 #
straight-curve $-1 -66.424146244697411 0 15.209775913904672 0 -1 0 I I #
edge $-1 $332 -66.424146244697411 $335 66.424146244697411 $322 $381 forward 7 unknown #
vertex $-1 $285 $382 #
straight-curve $-1 66.424146244697411 0 15.209775913904672 0 1 0 I I #
point $-1 66.424146244697411 40.359454781626461 -15.209775913904672 #
face $-1 $383 $384 $14 $-1 $385 reversed single #
loop $-1 $-1 $386 $290 #
plane-surface $-1 0 -40.359454781626461 0 0 1 0 0 0 1 forward_v I I I I #
coedge $-1 $387 $388 $389 $390 forward $291 $-1 #
coedge $-1 $293 $302 $388 $391 reversed $179 $-1 #
coedge $-1 $392 $347 $293 $344 forward $384 $-1 #
edge $-1 $345 -4.4599385941198166 $393 15.209775913904672 $293 $394 forward 7 unknown #
vertex $-1 $344 $395 #
straight-curve $-1 -23.584960731120326 40.359454781626454 4.4599385941198264 1 0 0 I I #
coedge $-1 $343 $396 $295 $348 forward $384 $-1 #
edge $-1 $397 37.829333187631704 $345 52.773365467788324 $347 $398 forward 7 unknown #
edge $-1 $297 4.3307359486635697 $397 42.839185513577085 $299 $399 forward 7 unknown #
point $-1 -27.915696679783895 29.978457797303435 15.209775913904672 #
coedge $-1 $400 $299 $396 $401 forward $240 $-1 #
coedge $-1 $300 $400 $402 $403 forward $240 $-1 #
coedge $-1 $402 $389 $302 $354 reversed $404 $-1 #
edge $-1 $355 -15.209775913904672 $405 15.209775913904672 $353 $406 forward 7 unknown #
vertex $-1 $403 $407 #
straight-curve $-1 0 40.359454781626461 15.209775913904672 -1 0 0 I I #
face $-1 $408 $409 $15 $-1 $410 reversed single #
loop $-1 $-1 $363 $307 #
plane-surface $-1 0 0 15.209775913904672 0 0 1 1 0 0 forward_v I I I I #
coedge $-1 $312 $411 $319 $372 forward $308 $-1 #
coedge $-1 $319 $412 $310 $362 reversed $263 $-1 #
edge $-1 $366 -80.718909563252936 $413 -65.774877283096316 $310 $414 forward 7 unknown #
coedge $-1 $415 $416 $311 $364 forward $358 $-1 #
edge $-1 $367 -0.4342274931098089 $413 9.9467694912132174 $363 $417 forward 7 unknown #
coedge $-1 $418 $312 $416 $419 reversed $308 $-1 #
vertex $-1 $372 $420 #
vertex $-1 $364 $421 #
straight-curve $-1 -27.915696679783895 40.359454781626461 77.404220396734289 0 0 1 I I #
vertex $-1 $314 $422 #
point $-1 -52.421732083293548 30.449725356810085 5.2775490247938732 #
coedge $-1 $412 $319 $423 $424 reversed $263 $-1 #
edge $-1 $425 -42.839185513577085 $366 -4.3307359486635697 $360 $426 forward 7 unknown #
coedge $-1 $322 $321 $326 $377 reversed $220 $-1 #
vertex $-1 $330 $427 #
straight-curve $-1 -66.424146244697411 -40.359454781626461 0 0 0 -1 I I #
straight-curve $-1 0 -40.359454781626461 -15.209775913904672 -1 0 0 I I #
edge $-1 $335 -15.209775913904672 $327 15.209775913904672 $326 $428 forward 7 unknown #
point $-1 66.424146244697411 -40.359454781626461 -15.209775913904672 #
straight-curve $-1 -66.424146244697411 0 -15.209775913904672 0 1 0 I I #
point $-1 -66.424146244697411 -40.359454781626461 15.209775913904672 #
straight-curve $-1 0 -40.359454781626461 15.209775913904672 1 0 0 I I #
point $-1 66.424146244697411 -40.359454781626461 15.209775913904672 #
face $-1 $-1 $404 $14 $-1 $429 reversed single #
loop $-1 $-1 $347 $338 #
plane-surface $-1 -66.424146244697411 0 0 1 0 0 0 0 -1 forward_v I I I I #
coedge $-1 $430 $431 $432 $433 forward $339 $-1 #
coedge $-1 $434 $341 $430 $435 forward $291 $-1 #
coedge $-1 $341 $434 $342 $391 forward $291 $-1 #
coedge $-1 $353 $436 $341 $390 reversed $404 $-1 #
edge $-1 $405 -40.359454781626461 $437 40.359454781626461 $389 $438 forward 7 unknown #
edge $-1 $393 -66.424146244697411 $405 66.424146244697411 $342 $439 forward 7 unknown #
coedge $-1 $432 $343 $434 $440 reversed $384 $-1 #
vertex $-1 $391 $441 #
straight-curve $-1 -66.424146244697411 40.359454781626461 0 0 0 -1 I I #
point $-1 -66.424146244697411 40.359454781626461 4.4599385941198166 #
coedge $-1 $347 $432 $351 $401 reversed $384 $-1 #
vertex $-1 $401 $442 #
straight-curve $-1 -66.424146244697411 3.6999951723792783 42.421921207712693 0 0.69465836192734942 -0.71933980857756763 I I #
straight-curve $-1 -23.584960731120326 29.978457797303431 15.209775913904675 -1 0 0 I I #
coedge $-1 $352 $351 $431 $443 forward $240 $-1 #
edge $-1 $397 -29.978457797303435 $444 40.359454781626461 $396 $445 forward 7 unknown #
coedge $-1 $436 $353 $352 $403 reversed $404 $-1 #
edge $-1 $446 -40.359454781626461 $355 40.359454781626461 $402 $447 forward 7 unknown #
loop $-1 $-1 $436 $383 #
vertex $-1 $390 $448 #
straight-curve $-1 66.424146244697411 40.359454781626461 0 0 0 -1 I I #
point $-1 66.424146244697411 40.359454781626461 15.209775913904672 #
face $-1 $449 $450 $15 $-1 $451 reversed single #
loop $-1 $-1 $452 $357 #
plane-surface $-1 0 0 -15.209775913904672 0 0 1 1 0 0 forward_v I I I I #
coedge $-1 $360 $453 $454 $455 reversed $308 $-1 #
coedge $-1 $361 $371 $415 $456 reversed $263 $-1 #
vertex $-1 $456 $457 #
straight-curve $-1 -27.915696679783895 -15.712610712144681 62.52426354794018 0 -0.69465836192734942 0.71933980857756763 I I #
coedge $-1 $458 $363 $412 $456 forward $358 $-1 #
coedge $-1 $363 $459 $365 $419 forward $358 $-1 #
straight-curve $-1 -27.915696679783895 39.925227288516652 15.209775913904679 0 -1 0 I I #
coedge $-1 $453 $365 $460 $461 forward $308 $-1 #
edge $-1 $462 -66.424146244697411 $367 27.915696679783895 $365 $463 forward 7 unknown #
point $-1 -27.915696679783895 40.359454781626461 4.4599385941198193 #
point $-1 -27.915696679783895 40.359454781626461 15.209775913904672 #
point $-1 -55.421732083293548 28.291705931077381 3.1935739390118245 #
coedge $-1 $454 $464 $371 $424 forward $465 $-1 #
edge $-1 $466 37.829333187631704 $425 52.773365467788324 $423 $467 forward 7 unknown #
vertex $-1 $455 $468 #
straight-curve $-1 -23.584960731120326 40.359454781626454 4.4599385941198264 1 0 0 I I #
point $-1 -66.424146244697411 -40.359454781626461 -15.209775913904672 #
straight-curve $-1 66.424146244697411 -40.359454781626461 0 0 0 -1 I I #
plane-surface $-1 66.424146244697411 0 0 -1 0 0 0 0 1 forward_v I I I I #
coedge $-1 $469 $386 $387 $435 reversed $339 $-1 #
coedge $-1 $386 $469 $400 $443 reversed $339 $-1 #
coedge $-1 $396 $392 $386 $433 reversed $384 $-1 #
edge $-1 $444 -15.209775913904672 $470 15.209775913904672 $432 $471 forward 7 unknown #
coedge $-1 $388 $387 $392 $440 forward $291 $-1 #
edge $-1 $437 -66.424146244697411 $470 66.424146244697411 $430 $472 forward 7 unknown #
coedge $-1 $389 $402 $469 $473 forward $404 $-1 #
vertex $-1 $473 $474 #
straight-curve $-1 66.424146244697411 0 -15.209775913904672 0 -1 0 I I #
straight-curve $-1 0 40.359454781626461 -15.209775913904672 1 0 0 I I #
edge $-1 $470 -40.359454781626461 $393 40.359454781626461 $392 $475 forward 7 unknown #
point $-1 -66.424146244697411 40.359454781626461 -15.209775913904672 #
point $-1 -66.424146244697411 29.978457797303435 15.209775913904672 #
edge $-1 $444 -66.424146244697411 $446 66.424146244697411 $431 $476 forward 7 unknown #
vertex $-1 $401 $477 #
straight-curve $-1 -66.424146244697411 0 15.209775913904672 0 -1 0 I I #
vertex $-1 $403 $478 #
straight-curve $-1 66.424146244697411 0 15.209775913904672 0 1 0 I I #
point $-1 66.424146244697411 40.359454781626461 -15.209775913904672 #
face $-1 $479 $465 $15 $-1 $480 reversed single #
loop $-1 $-1 $481 $408 #
plane-surface $-1 0 -40.359454781626461 0 0 1 0 0 0 1 forward_v I I I I #
coedge $-1 $482 $483 $484 $485 forward $409 $-1 #
coedge $-1 $411 $418 $483 $486 reversed $308 $-1 #
coedge $-1 $487 $423 $411 $455 forward $465 $-1 #
edge $-1 $425 -4.4599385941198166 $488 15.209775913904672 $411 $489 forward 7 unknown #
edge $-1 $413 4.3307359486635697 $466 42.839185513577085 $415 $490 forward 7 unknown #
point $-1 -27.915696679783895 29.978457797303435 15.209775913904672 #
coedge $-1 $491 $415 $464 $492 forward $358 $-1 #
coedge $-1 $416 $491 $493 $494 forward $358 $-1 #
coedge $-1 $493 $484 $418 $461 reversed $495 $-1 #
edge $-1 $462 -15.209775913904672 $496 15.209775913904672 $460 $497 forward 7 unknown #
vertex $-1 $494 $498 #
straight-curve $-1 0 40.359454781626461 15.209775913904672 -1 0 0 I I #
coedge $-1 $423 $499 $458 $492 reversed $465 $-1 #
loop $-1 $-1 $423 $449 #
vertex $-1 $492 $500 #
straight-curve $-1 -66.424146244697411 3.6999951723792783 42.421921207712693 0 0.69465836192734942 -0.71933980857756763 I I #
point $-1 -66.424146244697411 40.359454781626461 4.4599385941198166 #
coedge $-1 $431 $430 $436 $473 reversed $339 $-1 #
vertex $-1 $440 $501 #
straight-curve $-1 -66.424146244697411 -40.359454781626461 0 0 0 -1 I I #
straight-curve $-1 0 -40.359454781626461 -15.209775913904672 -1 0 0 I I #
edge $-1 $446 -15.209775913904672 $437 15.209775913904672 $436 $502 forward 7 unknown #
point $-1 66.424146244697411 -40.359454781626461 -15.209775913904672 #
straight-curve $-1 -66.424146244697411 0 -15.209775913904672 0 1 0 I I #
straight-curve $-1 0 -40.359454781626461 15.209775913904672 1 0 0 I I #
point $-1 -66.424146244697411 -40.359454781626461 15.209775913904672 #
point $-1 66.424146244697411 -40.359454781626461 15.209775913904672 #
face $-1 $-1 $495 $15 $-1 $503 reversed single #
plane-surface $-1 -66.424146244697411 0 0 1 0 0 0 0 -1 forward_v I I I I #
coedge $-1 $504 $505 $499 $506 forward $450 $-1 #
coedge $-1 $507 $452 $504 $508 forward $409 $-1 #
coedge $-1 $452 $507 $453 $486 forward $409 $-1 #
coedge $-1 $460 $509 $452 $485 reversed $495 $-1 #
edge $-1 $496 -40.359454781626461 $510 40.359454781626461 $484 $511 forward 7 unknown #
edge $-1 $488 -66.424146244697411 $496 66.424146244697411 $453 $512 forward 7 unknown #
coedge $-1 $499 $454 $507 $513 reversed $465 $-1 #
vertex $-1 $486 $514 #
straight-curve $-1 -66.424146244697411 40.359454781626461 0 0 0 -1 I I #
straight-curve $-1 -23.584960731120326 29.978457797303431 15.209775913904675 -1 0 0 I I #
coedge $-1 $459 $458 $505 $515 forward $358 $-1 #
edge $-1 $466 -29.978457797303435 $516 40.359454781626461 $464 $517 forward 7 unknown #
coedge $-1 $509 $460 $459 $494 reversed $495 $-1 #
edge $-1 $518 -40.359454781626461 $462 40.359454781626461 $493 $519 forward 7 unknown #
loop $-1 $-1 $509 $479 #
vertex $-1 $485 $520 #
straight-curve $-1 66.424146244697411 40.359454781626461 0 0 0 -1 I I #
point $-1 66.424146244697411 40.359454781626461 15.209775913904672 #
coedge $-1 $464 $487 $481 $506 reversed $465 $-1 #
point $-1 -66.424146244697411 29.978457797303435 15.209775913904672 #
point $-1 -66.424146244697411 -40.359454781626461 -15.209775913904672 #
straight-curve $-1 66.424146244697411 -40.359454781626461 0 0 0 -1 I I #
plane-surface $-1 66.424146244697411 0 0 -1 0 0 0 0 1 forward_v I I I I #
coedge $-1 $521 $481 $482 $508 reversed $450 $-1 #
coedge $-1 $481 $521 $491 $515 reversed $450 $-1 #
edge $-1 $516 -15.209775913904672 $522 15.209775913904672 $499 $523 forward 7 unknown #
coedge $-1 $483 $482 $487 $513 forward $409 $-1 #
edge $-1 $510 -66.424146244697411 $522 66.424146244697411 $504 $524 forward 7 unknown #
coedge $-1 $484 $493 $521 $525 forward $495 $-1 #
vertex $-1 $525 $526 #
straight-curve $-1 66.424146244697411 0 -15.209775913904672 0 -1 0 I I #
straight-curve $-1 0 40.359454781626461 -15.209775913904672 1 0 0 I I #
edge $-1 $522 -40.359454781626461 $488 40.359454781626461 $487 $527 forward 7 unknown #
point $-1 -66.424146244697411 40.359454781626461 -15.209775913904672 #
edge $-1 $516 -66.424146244697411 $518 66.424146244697411 $505 $528 forward 7 unknown #
vertex $-1 $492 $529 #
straight-curve $-1 -66.424146244697411 0 15.209775913904672 0 -1 0 I I #
vertex $-1 $494 $530 #
straight-curve $-1 66.424146244697411 0 15.209775913904672 0 1 0 I I #
point $-1 66.424146244697411 40.359454781626461 -15.209775913904672 #
coedge $-1 $505 $504 $509 $525 reversed $450 $-1 #
vertex $-1 $513 $531 #
straight-curve $-1 -66.424146244697411 -40.359454781626461 0 0 0 -1 I I #
straight-curve $-1 0 -40.359454781626461 -15.209775913904672 -1 0 0 I I #
edge $-1 $518 -15.209775913904672 $510 15.209775913904672 $509 $532 forward 7 unknown #
point $-1 66.424146244697411 -40.359454781626461 -15.209775913904672 #
straight-curve $-1 -66.424146244697411 0 -15.209775913904672 0 1 0 I I #
straight-curve $-1 0 -40.359454781626461 15.209775913904672 1 0 0 I I #
point $-1 -66.424146244697411 -40.359454781626461 15.209775913904672 #
point $-1 66.424146244697411 -40.359454781626461 15.209775913904672 #
point $-1 -66.424146244697411 -40.359454781626461 -15.209775913904672 #
straight-curve $-1 66.424146244697411 -40.359454781626461 0 0 0 -1 I I #
End-of-ACIS-data 