500 0 9 0           
7 Unknown 11 ACIS 5.0 NT 24 Fri Mar 26 17:05:44 1999 
-1 9.9999999999999995e-007 1e-010 
body $-1 $9 $-1 $10 #
body $-1 $11 $-1 $12 #
body $-1 $13 $-1 $14 #
body $-1 $15 $-1 $16 #
body $-1 $17 $-1 $18 #
body $-1 $19 $-1 $20 #
body $-1 $21 $-1 $22 #
body $-1 $23 $-1 $24 #
body $-1 $25 $-1 $26 #
lump $-1 $-1 $27 $0 #
transform $-1 1 0 0 0 1 0 0 0 1 43.205664235358746 24.448443372488413 11.650522290232782 1 rotate no_reflect no_shear #
lump $-1 $-1 $28 $1 #
transform $-1 1 0 0 0 1 0 0 0 1 43.205664235358746 24.448443372488413 11.650522290232782 1 rotate no_reflect no_shear #
lump $-1 $-1 $29 $2 #
transform $-1 1 0 0 0 1 0 0 0 1 43.205664235358746 24.448443372488413 11.650522290232782 1 rotate no_reflect no_shear #
lump $-1 $-1 $30 $3 #
transform $-1 1 0 0 0 1 0 0 0 1 43.205664235358746 24.448443372488413 11.650522290232782 1 rotate no_reflect no_shear #
lump $-1 $-1 $31 $4 #
transform $-1 1 0 0 0 1 0 0 0 1 43.205664235358746 24.448443372488413 11.650522290232782 1 rotate no_reflect no_shear #
lump $-1 $-1 $32 $5 #
transform $-1 1 0 0 0 1 0 0 0 1 43.205664235358746 24.448443372488413 11.650522290232782 1 rotate no_reflect no_shear #
lump $-1 $-1 $33 $6 #
transform $-1 1 0 0 0 1 0 0 0 1 43.205664235358746 24.448443372488413 11.650522290232782 1 rotate no_reflect no_shear #
lump $-1 $-1 $34 $7 #
transform $-1 1 0 0 0 1 0 0 0 1 43.205664235358746 24.448443372488413 11.650522290232782 1 rotate no_reflect no_shear #
lump $-1 $-1 $35 $8 #
transform $-1 1 0 0 0 1 0 0 0 1 43.205664235358746 24.448443372488413 11.650522290232782 1 rotate no_reflect no_shear #
shell $-1 $-1 $-1 $36 $-1 $9 #
shell $-1 $-1 $-1 $37 $-1 $11 #
shell $-1 $-1 $-1 $38 $-1 $13 #
shell $-1 $-1 $-1 $39 $-1 $15 #
shell $-1 $-1 $-1 $40 $-1 $17 #
shell $-1 $-1 $-1 $41 $-1 $19 #
shell $-1 $-1 $-1 $42 $-1 $21 #
shell $-1 $-1 $-1 $43 $-1 $23 #
shell $-1 $-1 $-1 $44 $-1 $25 #
face $-1 $45 $46 $27 $-1 $47 forward single #
face $-1 $48 $49 $28 $-1 $50 reversed single #
face $-1 $51 $52 $29 $-1 $53 reversed single #
face $-1 $54 $55 $30 $-1 $56 reversed single #
face $-1 $57 $58 $31 $-1 $59 forward single #
face $-1 $60 $61 $32 $-1 $62 forward single #
face $-1 $63 $64 $33 $-1 $65 reversed single #
face $-1 $66 $67 $34 $-1 $68 forward single #
face $-1 $69 $70 $35 $-1 $71 forward single #
face $-1 $72 $73 $27 $-1 $74 reversed single #
loop $-1 $-1 $75 $36 #
plane-surface $-1 0 0 11.650522290232782 0 0 1 1 0 0 forward_v I I I I #
face $-1 $76 $77 $28 $-1 $78 reversed single #
loop $-1 $-1 $79 $37 #
plane-surface $-1 -37.234905784221475 -20.076590838651192 0 0 -1 0 0 0 -1 forward_v I I I I #
face $-1 $80 $81 $29 $-1 $82 reversed single #
loop $-1 $-1 $83 $38 #
plane-surface $-1 31.264147333084203 -22.262517105569803 0 1 0 0 0 0 -1 forward_v I I I I #
face $-1 $84 $85 $30 $-1 $86 reversed single #
loop $-1 $-1 $87 $39 #
plane-surface $-1 16.763773399559202 -75.239748527467981 73.243885990239832 1 0 0 0 0.5877852598018023 -0.80901698891910034 forward_v I I I I #
face $-1 $88 $89 $31 $-1 $90 forward single #
loop $-1 $91 $92 $40 #
cone-surface $-1 20.906737380566348 -17.587491597225494 5.9257546783500308 0 0.5877852598018023 -0.80901698891910034 1 0 0 1 I I 0 1 1 forward I I I I #
face $-1 $93 $94 $32 $-1 $95 forward single #
loop $-1 $96 $97 $41 #
cone-surface $-1 27.121183352077061 -17.587491597225494 5.9257546783500308 0 0.5877852598018023 -0.80901698891910034 1 0 0 1 I I 0 1 1 forward I I I I #
face $-1 $98 $99 $33 $-1 $100 reversed single #
loop $-1 $-1 $101 $42 #
plane-surface $-1 2.1476951219520615 60.830851644931698 100.1930115762766 1 0 0 0 -0.77714596973225614 -0.62932038083071107 forward_v I I I I #
face $-1 $102 $103 $34 $-1 $104 forward single #
loop $-1 $105 $106 $43 #
cone-surface $-1 7.0297594717924667 22.468991544771132 9.3869888215938229 0 -0.77714596973225614 -0.62932038083071107 1 0 0 1 I I 0 1 1 forward I I I I #
face $-1 $107 $108 $35 $-1 $109 forward single #
loop $-1 $110 $111 $44 #
cone-surface $-1 14.352855996553075 22.468991544771132 9.3869888215938229 0 -0.77714596973225614 -0.62932038083071107 1 0 0 1 I I 0 1 1 forward I I I I #
face $-1 $112 $113 $27 $-1 $114 reversed single #
loop $-1 $-1 $115 $45 #
plane-surface $-1 0 0 -11.650522290232782 0 0 1 1 0 0 forward_v I I I I #
coedge $-1 $116 $117 $118 $119 forward $46 $-1 #
face $-1 $120 $121 $28 $-1 $122 forward single #
loop $-1 $-1 $123 $48 #
plane-surface $-1 -31.264147333084203 -22.262517105569803 0 -1 0 0 0 0 1 forward_v I I I I #
coedge $-1 $124 $125 $126 $127 forward $49 $-1 #
face $-1 $128 $129 $29 $-1 $130 forward single #
loop $-1 $-1 $131 $51 #
plane-surface $-1 37.234905784221475 -20.076590838651192 0 0 -1 0 0 0 -1 forward_v I I I I #
coedge $-1 $132 $133 $134 $135 forward $52 $-1 #
face $-1 $136 $137 $30 $-1 $138 forward single #
loop $-1 $-1 $139 $54 #
plane-surface $-1 24.013960366321704 -24.448443372488427 3.3356532223606337 0 -0.5877852598018023 0.80901698891910034 1 0 0 forward_v I I I I #
coedge $-1 $140 $141 $142 $143 reversed $55 $-1 #
face $-1 $-1 $144 $31 $-1 $145 forward single #
loop $-1 $146 $147 $57 #
cone-surface $-1 20.906737380566348 -16.154864808419344 3.9539131059437977 0 0.5877852598018023 -0.80901698891910034 0.5 0 0 1 I I -0.70710678118654746 0.70710678118654746 0.5 forward I I I I #
loop $-1 $-1 $148 $40 #
coedge $-1 $92 $92 $149 $150 reversed $58 $-1 #
face $-1 $-1 $151 $32 $-1 $152 forward single #
loop $-1 $153 $154 $60 #
cone-surface $-1 27.121183352077061 -16.154864808419344 3.9539131059437977 0 0.5877852598018023 -0.80901698891910034 0.5 0 0 1 I I -0.70710678118654746 0.70710678118654746 0.5 forward I I I I #
loop $-1 $-1 $155 $41 #
coedge $-1 $97 $97 $156 $157 reversed $61 $-1 #
face $-1 $158 $159 $33 $-1 $160 reversed single #
loop $-1 $-1 $161 $63 #
plane-surface $-1 10.691307734172767 -6.323364015296562 45.812601434997006 0 0.77714596973225614 0.62932038083071107 1 0 0 forward_v I I I I #
coedge $-1 $162 $163 $164 $165 reversed $64 $-1 #
face $-1 $-1 $166 $34 $-1 $167 forward single #
loop $-1 $168 $169 $66 #
cone-surface $-1 7.0297594717924667 21.654917681888051 8.7277648233140503 0 -0.77714596973225614 -0.62932038083071107 0.5 0 0 1 I I -0.70710678118654746 0.70710678118654746 0.5 forward I I I I #
loop $-1 $-1 $170 $43 #
coedge $-1 $106 $106 $171 $172 reversed $67 $-1 #
face $-1 $-1 $173 $35 $-1 $174 forward single #
loop $-1 $175 $176 $69 #
cone-surface $-1 14.352855996553075 21.654917681888051 8.7277648233140503 0 -0.77714596973225614 -0.62932038083071107 0.5 0 0 1 I I -0.70710678118654746 0.70710678118654746 0.5 forward I I I I #
loop $-1 $-1 $177 $44 #
coedge $-1 $111 $111 $178 $179 reversed $70 $-1 #
face $-1 $180 $181 $27 $-1 $182 reversed single #
loop $-1 $-1 $183 $72 #
plane-surface $-1 0 -24.448443372488413 0 0 1 0 0 0 1 forward_v I I I I #
coedge $-1 $184 $185 $186 $187 forward $73 $-1 #
coedge $-1 $188 $75 $189 $190 forward $46 $-1 #
coedge $-1 $75 $188 $191 $192 forward $46 $-1 #
coedge $-1 $193 $194 $75 $119 reversed $195 $-1 #
edge $-1 $196 -24.448443372488413 $197 24.448443372488413 $118 $198 forward 7 unknown #
face $-1 $199 $200 $28 $-1 $201 reversed single #
loop $-1 $-1 $202 $76 #
plane-surface $-1 0 0 11.650522290232782 0 0 1 1 0 0 forward_v I I I I #
coedge $-1 $203 $204 $205 $206 reversed $77 $-1 #
coedge $-1 $207 $79 $208 $209 reversed $49 $-1 #
coedge $-1 $79 $207 $210 $211 reversed $49 $-1 #
coedge $-1 $204 $203 $79 $127 reversed $77 $-1 #
edge $-1 $212 -11.650522290232782 $213 11.650522290232782 $126 $214 forward 7 unknown #
face $-1 $215 $216 $29 $-1 $217 reversed single #
loop $-1 $-1 $218 $80 #
plane-surface $-1 0 0 11.650522290232782 0 0 1 1 0 0 forward_v I I I I #
coedge $-1 $219 $220 $221 $222 reversed $81 $-1 #
coedge $-1 $223 $83 $224 $225 reversed $52 $-1 #
coedge $-1 $83 $223 $226 $227 reversed $52 $-1 #
coedge $-1 $220 $219 $83 $135 reversed $81 $-1 #
edge $-1 $228 -11.650522290232782 $229 11.650522290232782 $134 $230 forward 7 unknown #
face $-1 $231 $232 $30 $-1 $233 reversed single #
loop $-1 $-1 $234 $84 #
plane-surface $-1 0 0 11.650522290232782 0 0 1 1 0 0 forward_v I I I I #
coedge $-1 $235 $236 $237 $238 reversed $85 $-1 #
coedge $-1 $141 $87 $239 $240 reversed $55 $-1 #
coedge $-1 $87 $140 $235 $241 reversed $55 $-1 #
coedge $-1 $237 $242 $87 $143 forward $232 $-1 #
edge $-1 $243 24.971420704887134 $244 33.286289772759275 $142 $245 forward 7 unknown #
loop $-1 $-1 $149 $88 #
plane-surface $-1 24.013960366321704 -24.448443372488427 3.3356532223606337 0 -0.5877852598018023 0.80901698891910034 1 0 0 forward_v I I I I #
loop $-1 $-1 $246 $57 #
coedge $-1 $147 $147 $148 $247 reversed $89 $-1 #
coedge $-1 $148 $148 $147 $247 forward $91 $-1 #
coedge $-1 $149 $149 $92 $150 forward $144 $-1 #
edge $-1 $248 0 $248 6.2831853071796004 $149 $249 forward 7 unknown #
loop $-1 $-1 $156 $93 #
plane-surface $-1 24.013960366321704 -24.448443372488427 3.3356532223606337 0 -0.5877852598018023 0.80901698891910034 1 0 0 forward_v I I I I #
loop $-1 $-1 $250 $60 #
coedge $-1 $154 $154 $155 $251 reversed $94 $-1 #
coedge $-1 $155 $155 $154 $251 forward $96 $-1 #
coedge $-1 $156 $156 $97 $157 forward $151 $-1 #
edge $-1 $252 0 $252 6.2831853071796004 $156 $253 forward 7 unknown #
face $-1 $254 $255 $33 $-1 $256 reversed single #
loop $-1 $-1 $257 $98 #
plane-surface $-1 19.234920346393473 60.830851644931698 100.1930115762766 -1 0 0 0 0.77714596973225614 0.62932038083071107 forward_v I I I I #
coedge $-1 $258 $259 $260 $261 reversed $99 $-1 #
coedge $-1 $163 $101 $262 $263 reversed $64 $-1 #
coedge $-1 $101 $162 $258 $264 reversed $64 $-1 #
coedge $-1 $260 $265 $101 $165 forward $266 $-1 #
edge $-1 $267 5.9669824499774364 $268 9.0748843493780988 $164 $269 forward 7 unknown #
loop $-1 $-1 $171 $102 #
plane-surface $-1 10.691307734172767 -6.323364015296562 45.812601434997006 0 0.77714596973225614 0.62932038083071107 1 0 0 forward_v I I I I #
loop $-1 $-1 $270 $66 #
coedge $-1 $169 $169 $170 $271 reversed $103 $-1 #
coedge $-1 $170 $170 $169 $271 forward $105 $-1 #
coedge $-1 $171 $171 $106 $172 forward $166 $-1 #
edge $-1 $272 3.3012457501171635e-016 $272 6.2831853071796004 $171 $273 forward 7 unknown #
loop $-1 $-1 $178 $107 #
plane-surface $-1 10.691307734172767 -6.323364015296562 45.812601434997006 0 0.77714596973225614 0.62932038083071107 1 0 0 forward_v I I I I #
loop $-1 $-1 $274 $69 #
coedge $-1 $176 $176 $177 $275 reversed $108 $-1 #
coedge $-1 $177 $177 $176 $275 forward $110 $-1 #
coedge $-1 $178 $178 $111 $179 forward $173 $-1 #
edge $-1 $276 3.3012457501171635e-016 $276 6.2831853071796004 $178 $277 forward 7 unknown #
face $-1 $278 $279 $27 $-1 $280 reversed single #
loop $-1 $-1 $281 $112 #
plane-surface $-1 -43.205664235358746 0 0 1 0 0 0 0 -1 forward_v I I I I #
coedge $-1 $282 $191 $283 $284 forward $113 $-1 #
coedge $-1 $285 $115 $282 $286 forward $73 $-1 #
coedge $-1 $115 $285 $287 $288 forward $73 $-1 #
coedge $-1 $194 $193 $115 $187 reversed $195 $-1 #
edge $-1 $289 -24.448443372488413 $290 24.448443372488413 $186 $291 forward 7 unknown #
coedge $-1 $117 $116 $292 $293 forward $46 $-1 #
coedge $-1 $294 $295 $116 $190 reversed $279 $-1 #
edge $-1 $197 -43.205664235358746 $296 43.205664235358746 $189 $297 forward 7 unknown #
coedge $-1 $183 $298 $117 $192 reversed $113 $-1 #
edge $-1 $299 -43.205664235358746 $196 43.205664235358746 $191 $300 forward 7 unknown #
coedge $-1 $186 $118 $298 $301 forward $195 $-1 #
coedge $-1 $118 $186 $294 $302 reversed $195 $-1 #
loop $-1 $-1 $193 $278 #
vertex $-1 $119 $303 #
vertex $-1 $119 $304 #
straight-curve $-1 43.205664235358746 0 11.650522290232782 0 1 0 I I #
face $-1 $305 $306 $28 $-1 $307 reversed single #
loop $-1 $-1 $308 $120 #
plane-surface $-1 -43.205664235358746 0 0 1 0 0 0 0 -1 forward_v I I I I #
coedge $-1 $210 $309 $204 $310 forward $121 $-1 #
coedge $-1 $126 $123 $311 $312 reversed $77 $-1 #
coedge $-1 $123 $126 $202 $310 reversed $77 $-1 #
coedge $-1 $313 $314 $123 $206 forward $315 $-1 #
edge $-1 $316 -11.650522290232782 $317 11.650522290232782 $205 $318 forward 7 unknown #
coedge $-1 $125 $124 $308 $319 reversed $49 $-1 #
coedge $-1 $311 $320 $124 $209 forward $306 $-1 #
edge $-1 $321 -24.588211343248009 $213 -12.646694440973466 $208 $322 forward 7 unknown #
coedge $-1 $323 $202 $125 $211 forward $121 $-1 #
edge $-1 $212 12.646694440973466 $324 24.588211343248009 $210 $325 forward 7 unknown #
vertex $-1 $211 $326 #
vertex $-1 $209 $327 #
straight-curve $-1 -31.264147333084203 -20.076590838651192 0 0 0 -1 I I #
face $-1 $328 $329 $29 $-1 $330 reversed single #
loop $-1 $-1 $331 $128 #
plane-surface $-1 0 -24.448443372488413 0 0 1 0 0 0 1 forward_v I I I I #
coedge $-1 $226 $332 $220 $333 forward $129 $-1 #
coedge $-1 $134 $131 $334 $335 reversed $81 $-1 #
coedge $-1 $131 $134 $218 $333 reversed $81 $-1 #
coedge $-1 $336 $337 $131 $222 forward $338 $-1 #
edge $-1 $339 -11.650522290232782 $340 11.650522290232782 $221 $341 forward 7 unknown #
coedge $-1 $133 $132 $331 $342 reversed $52 $-1 #
coedge $-1 $334 $343 $132 $225 forward $329 $-1 #
edge $-1 $344 -13.317184819703511 $229 -8.9453322858662911 $224 $345 forward 7 unknown #
coedge $-1 $346 $218 $133 $227 forward $129 $-1 #
edge $-1 $228 8.9453322858662911 $347 13.317184819703511 $226 $348 forward 7 unknown #
vertex $-1 $227 $349 #
vertex $-1 $225 $350 #
straight-curve $-1 31.264147333084203 -20.076590838651192 0 0 0 -1 I I #
face $-1 $-1 $351 $30 $-1 $352 forward single #
loop $-1 $-1 $142 $136 #
plane-surface $-1 0 -24.448443372488413 0 0 1 0 0 0 1 forward_v I I I I #
coedge $-1 $353 $354 $355 $356 forward $137 $-1 #
coedge $-1 $357 $139 $141 $241 forward $85 $-1 #
coedge $-1 $139 $357 $358 $359 reversed $85 $-1 #
coedge $-1 $360 $142 $139 $238 forward $232 $-1 #
edge $-1 $244 4.75679321639835 $361 19.257167149923351 $237 $362 forward 7 unknown #
coedge $-1 $354 $353 $140 $240 forward $137 $-1 #
edge $-1 $363 -24.615866123960913 $243 -13.171430891245578 $239 $364 forward 7 unknown #
edge $-1 $244 1.7500491998158137e-014 $363 14.146100007128238 $141 $365 forward 7 unknown #
coedge $-1 $142 $360 $354 $366 reversed $232 $-1 #
vertex $-1 $366 $367 #
vertex $-1 $143 $368 #
straight-curve $-1 16.763773399559202 -24.448443372488413 36.621942995119916 0 0 -1 I I #
coedge $-1 $246 $246 $-1 $369 reversed $146 $-1 #
edge $-1 $370 0 $370 6.2831853071796004 $147 $371 forward 7 unknown #
vertex $-1 $150 $372 #
ellipse-curve $-1 20.906737380566348 -18.726225756130745 7.4930877562967133 0 -0.5877852598018023 0.80901698891910034 1 0 0 1 I I #
coedge $-1 $250 $250 $-1 $373 reversed $153 $-1 #
edge $-1 $374 0 $374 6.2831853071796004 $154 $375 forward 7 unknown #
vertex $-1 $157 $376 #
ellipse-curve $-1 27.121183352077061 -18.726225756130745 7.4930877562967133 0 -0.5877852598018023 0.80901698891910034 1 0 0 1 I I #
face $-1 $-1 $266 $33 $-1 $377 forward single #
loop $-1 $-1 $378 $158 #
plane-surface $-1 0 24.448443372488413 0 0 -1 0 0 0 -1 forward_v I I I I #
coedge $-1 $379 $380 $381 $382 reversed $159 $-1 #
coedge $-1 $383 $161 $163 $264 forward $99 $-1 #
coedge $-1 $161 $383 $379 $384 forward $99 $-1 #
coedge $-1 $381 $164 $161 $261 forward $266 $-1 #
edge $-1 $268 -3.1979587451343221 $385 13.889266479307089 $260 $386 forward 7 unknown #
coedge $-1 $387 $388 $162 $263 forward $255 $-1 #
edge $-1 $389 -42.283922819454624 $267 -38.445983497905516 $262 $390 forward 7 unknown #
edge $-1 $268 43.958381662242687 $389 48.89688674497684 $163 $391 forward 7 unknown #
coedge $-1 $164 $381 $387 $392 forward $266 $-1 #
loop $-1 $-1 $381 $254 #
vertex $-1 $263 $393 #
vertex $-1 $165 $394 #
straight-curve $-1 2.1476951219520615 30.415425822465849 11.650522290232779 0 -1 0 I I #
coedge $-1 $270 $270 $-1 $395 reversed $168 $-1 #
edge $-1 $396 0 $396 6.2831853071796004 $169 $397 forward 7 unknown #
vertex $-1 $172 $398 #
ellipse-curve $-1 7.0297594717924667 22.89449242278808 9.7315526294582355 0 0.77714596973225614 0.62932038083071107 1 0 0 1 I I #
coedge $-1 $274 $274 $-1 $399 reversed $175 $-1 #
edge $-1 $400 0 $400 6.2831853071796004 $176 $401 forward 7 unknown #
vertex $-1 $179 $402 #
ellipse-curve $-1 14.352855996553075 22.89449242278808 9.7315526294582355 0 0.77714596973225614 0.62932038083071107 1 0 0 1 I I #
face $-1 $-1 $195 $27 $-1 $403 reversed single #
loop $-1 $-1 $294 $180 #
plane-surface $-1 0 24.448443372488413 0 0 -1 0 0 0 -1 forward_v I I I I #
coedge $-1 $404 $292 $295 $405 forward $181 $-1 #
coedge $-1 $298 $183 $184 $286 reversed $113 $-1 #
coedge $-1 $292 $404 $183 $284 reversed $181 $-1 #
edge $-1 $299 -11.650522290232782 $406 11.650522290232782 $283 $407 forward 7 unknown #
coedge $-1 $185 $184 $404 $408 forward $73 $-1 #
edge $-1 $290 -43.205664235358746 $406 43.205664235358746 $282 $409 forward 7 unknown #
coedge $-1 $295 $294 $185 $288 reversed $279 $-1 #
edge $-1 $410 -43.205664235358746 $289 43.205664235358746 $287 $411 forward 7 unknown #
vertex $-1 $187 $412 #
vertex $-1 $301 $413 #
straight-curve $-1 43.205664235358746 0 -11.650522290232782 0 -1 0 I I #
coedge $-1 $281 $283 $188 $293 reversed $181 $-1 #
edge $-1 $296 -24.448443372488413 $299 24.448443372488413 $292 $414 forward 7 unknown #
coedge $-1 $287 $189 $194 $302 forward $279 $-1 #
coedge $-1 $189 $287 $281 $405 reversed $279 $-1 #
vertex $-1 $190 $415 #
straight-curve $-1 0 24.448443372488413 11.650522290232782 -1 0 0 I I #
coedge $-1 $191 $282 $193 $301 reversed $113 $-1 #
vertex $-1 $293 $416 #
straight-curve $-1 0 -24.448443372488413 11.650522290232782 1 0 0 I I #
edge $-1 $196 -11.650522290232782 $290 11.650522290232782 $193 $417 forward 7 unknown #
edge $-1 $197 -11.650522290232782 $289 11.650522290232782 $194 $418 forward 7 unknown #
point $-1 43.205664235358746 -24.448443372488413 11.650522290232782 #
point $-1 43.205664235358746 24.448443372488413 11.650522290232782 #
face $-1 $-1 $315 $28 $-1 $419 reversed single #
loop $-1 $-1 $311 $199 #
plane-surface $-1 0 0 -11.650522290232782 0 0 1 1 0 0 forward_v I I I I #
coedge $-1 $420 $421 $207 $319 forward $200 $-1 #
coedge $-1 $202 $323 $313 $422 forward $121 $-1 #
edge $-1 $317 -13.317184819703511 $212 -8.9453322858662911 $202 $423 forward 7 unknown #
coedge $-1 $424 $208 $203 $312 forward $306 $-1 #
edge $-1 $213 8.9453322858662911 $316 13.317184819703511 $311 $425 forward 7 unknown #
coedge $-1 $426 $205 $309 $422 reversed $315 $-1 #
coedge $-1 $205 $426 $424 $427 reversed $315 $-1 #
loop $-1 $-1 $205 $305 #
vertex $-1 $427 $428 #
vertex $-1 $206 $429 #
straight-curve $-1 -31.264147333084203 -24.448443372488413 0 0 0 1 I I #
edge $-1 $324 -11.650522290232782 $321 11.650522290232782 $308 $430 forward 7 unknown #
coedge $-1 $208 $424 $420 $431 forward $306 $-1 #
vertex $-1 $209 $432 #
straight-curve $-1 -18.617452892110737 -20.076590838651192 -11.650522290232782 1 0 0 I I #
coedge $-1 $309 $210 $421 $433 forward $121 $-1 #
vertex $-1 $433 $434 #
straight-curve $-1 -18.617452892110737 -20.076590838651192 11.650522290232782 -1 0 0 I I #
point $-1 -31.264147333084203 -20.076590838651192 11.650522290232782 #
point $-1 -31.264147333084203 -20.076590838651192 -11.650522290232782 #
face $-1 $-1 $338 $29 $-1 $435 reversed single #
loop $-1 $-1 $334 $215 #
plane-surface $-1 0 0 -11.650522290232782 0 0 1 1 0 0 forward_v I I I I #
coedge $-1 $436 $437 $223 $342 forward $216 $-1 #
coedge $-1 $218 $346 $336 $438 forward $129 $-1 #
edge $-1 $340 -24.588211343248009 $228 -12.646694440973466 $218 $439 forward 7 unknown #
coedge $-1 $440 $224 $219 $335 forward $329 $-1 #
edge $-1 $229 12.646694440973466 $339 24.588211343248009 $334 $441 forward 7 unknown #
coedge $-1 $442 $221 $332 $438 reversed $338 $-1 #
coedge $-1 $221 $442 $440 $443 reversed $338 $-1 #
loop $-1 $-1 $221 $328 #
vertex $-1 $443 $444 #
vertex $-1 $222 $445 #
straight-curve $-1 43.205664235358746 -20.076590838651192 0 0 0 1 I I #
edge $-1 $347 -11.650522290232782 $344 11.650522290232782 $331 $446 forward 7 unknown #
coedge $-1 $224 $440 $436 $447 forward $329 $-1 #
vertex $-1 $225 $448 #
straight-curve $-1 31.264147333084203 -11.131258552784901 -11.650522290232782 0 1 0 I I #
coedge $-1 $332 $226 $437 $449 forward $129 $-1 #
vertex $-1 $449 $450 #
straight-curve $-1 31.264147333084203 -11.131258552784901 11.650522290232782 0 -1 0 I I #
point $-1 31.264147333084203 -20.076590838651192 11.650522290232782 #
point $-1 31.264147333084203 -20.076590838651192 -11.650522290232782 #
loop $-1 $-1 $358 $231 #
plane-surface $-1 31.264147333084203 -22.262517105569803 0 1 0 0 0 0 -1 forward_v I I I I #
coedge $-1 $239 $234 $357 $451 forward $137 $-1 #
coedge $-1 $234 $239 $242 $366 forward $137 $-1 #
coedge $-1 $452 $358 $234 $356 reversed $351 $-1 #
edge $-1 $453 -13.317184819703511 $454 -1.8727495869881743 $234 $455 forward 7 unknown #
coedge $-1 $236 $235 $353 $451 reversed $85 $-1 #
coedge $-1 $355 $452 $236 $359 forward $351 $-1 #
edge $-1 $361 0.096098154726162122 $454 14.242198161854382 $358 $456 forward 7 unknown #
coedge $-1 $242 $237 $452 $457 forward $232 $-1 #
vertex $-1 $457 $458 #
straight-curve $-1 12.006980183160852 -24.448443372488413 3.335653222360643 1 0 0 I I #
vertex $-1 $240 $459 #
straight-curve $-1 16.763773399559202 -37.61987426373399 11.650522290232782 0 -1 0 I I #
straight-curve $-1 16.763773399559202 -24.448443372488427 3.3356532223606337 0 0.80901698891910034 0.5877852598018023 I I #
edge $-1 $243 16.763773399559202 $453 31.264147333084203 $242 $460 forward 7 unknown #
point $-1 16.763773399559202 -24.448443372488413 11.650522290232782 #
point $-1 16.763773399559202 -24.448443372488413 3.3356532223606439 #
edge $-1 $461 1 $461 0 $246 $-1 forward 7 unknown #
vertex $-1 $247 $462 #
ellipse-curve $-1 20.906737380566348 -16.448757438320246 4.3584216004033483 0 -0.5877852598018023 0.80901698891910034 1 0 0 1 I I #
point $-1 21.906737380566348 -18.726225756130745 7.4930877562967133 #
edge $-1 $463 1 $463 0 $250 $-1 forward 7 unknown #
vertex $-1 $251 $464 #
ellipse-curve $-1 27.121183352077061 -16.448757438320246 4.3584216004033483 0 -0.5877852598018023 0.80901698891910034 1 0 0 1 I I #
point $-1 28.121183352077061 -18.726225756130745 7.4930877562967133 #
plane-surface $-1 0 0 11.650522290232782 0 0 1 1 0 0 forward_v I I I I #
coedge $-1 $388 $387 $380 $465 forward $255 $-1 #
coedge $-1 $380 $257 $259 $384 reversed $159 $-1 #
coedge $-1 $257 $379 $378 $465 reversed $159 $-1 #
coedge $-1 $265 $260 $257 $382 forward $266 $-1 #
edge $-1 $385 -9.0748843493780988 $466 -5.9669824499774364 $381 $467 forward 7 unknown #
coedge $-1 $259 $258 $388 $468 reversed $99 $-1 #
edge $-1 $469 -48.89688674497684 $385 -43.958381662242687 $379 $470 forward 7 unknown #
vertex $-1 $261 $471 #
straight-curve $-1 5.3456538670863836 21.340541473087757 11.650522290232782 1 0 0 I I #
coedge $-1 $378 $262 $265 $392 reversed $255 $-1 #
coedge $-1 $262 $378 $383 $468 forward $255 $-1 #
vertex $-1 $263 $472 #
straight-curve $-1 2.1476951219520615 24.448443372488413 50.096505788138302 0 0 1 I I #
straight-curve $-1 2.1476951219520615 -6.323364015296562 45.812601434997006 0 0.62932038083071107 -0.77714596973225614 I I #
edge $-1 $466 -19.234920346393473 $267 -2.1476951219520615 $387 $473 forward 7 unknown #
point $-1 2.1476951219520615 24.448443372488413 11.650522290232782 #
point $-1 2.1476951219520615 21.34054147308775 11.650522290232786 #
edge $-1 $474 1 $474 0 $270 $-1 forward 7 unknown #
vertex $-1 $271 $475 #
ellipse-curve $-1 7.0297594717924667 22.043490666754177 9.0424250137294067 0 0.77714596973225614 0.62932038083071107 1 0 0 1 I I #
point $-1 8.0297594717924667 22.894492422788087 9.7315526294582408 #
edge $-1 $476 1 $476 0 $274 $-1 forward 7 unknown #
vertex $-1 $275 $477 #
ellipse-curve $-1 14.352855996553075 22.043490666754177 9.0424250137294067 0 0.77714596973225614 0.62932038083071107 1 0 0 1 I I #
point $-1 15.352855996553075 22.894492422788087 9.7315526294582408 #
plane-surface $-1 43.205664235358746 0 0 -1 0 0 0 0 1 forward_v I I I I #
coedge $-1 $283 $281 $285 $408 reversed $181 $-1 #
edge $-1 $296 -11.650522290232782 $410 11.650522290232782 $295 $478 forward 7 unknown #
vertex $-1 $408 $479 #
straight-curve $-1 -43.205664235358746 -24.448443372488413 0 0 0 -1 I I #
edge $-1 $406 -24.448443372488413 $410 24.448443372488413 $404 $480 forward 7 unknown #
straight-curve $-1 0 -24.448443372488413 -11.650522290232782 -1 0 0 I I #
vertex $-1 $288 $481 #
straight-curve $-1 0 24.448443372488413 -11.650522290232782 1 0 0 I I #
point $-1 43.205664235358746 24.448443372488413 -11.650522290232782 #
point $-1 43.205664235358746 -24.448443372488413 -11.650522290232782 #
straight-curve $-1 -43.205664235358746 0 11.650522290232782 0 -1 0 I I #
point $-1 -43.205664235358746 24.448443372488413 11.650522290232782 #
point $-1 -43.205664235358746 -24.448443372488413 11.650522290232782 #
straight-curve $-1 43.205664235358746 -24.448443372488413 0 0 0 -1 I I #
straight-curve $-1 43.205664235358746 24.448443372488413 0 0 0 -1 I I #
plane-surface $-1 0 -24.448443372488413 0 0 1 0 0 0 1 forward_v I I I I #
coedge $-1 $482 $308 $320 $431 reversed $200 $-1 #
coedge $-1 $308 $482 $323 $433 reversed $200 $-1 #
edge $-1 $483 -43.205664235358746 $317 -31.264147333084203 $313 $484 forward 7 unknown #
straight-curve $-1 -31.264147333084203 -11.131258552784901 11.650522290232782 0 1 0 I I #
coedge $-1 $320 $311 $314 $427 forward $306 $-1 #
straight-curve $-1 -31.264147333084203 -11.131258552784901 -11.650522290232782 0 -1 0 I I #
coedge $-1 $314 $313 $482 $485 forward $315 $-1 #
edge $-1 $316 31.264147333084203 $486 43.205664235358746 $314 $487 forward 7 unknown #
point $-1 -31.264147333084203 -24.448443372488413 -11.650522290232782 #
point $-1 -31.264147333084203 -24.448443372488413 11.650522290232782 #
straight-curve $-1 -43.205664235358746 -20.076590838651192 0 0 0 -1 I I #
edge $-1 $486 -24.448443372488413 $321 -20.076590838651192 $420 $488 forward 7 unknown #
point $-1 -43.205664235358746 -20.076590838651192 -11.650522290232782 #
edge $-1 $324 20.076590838651192 $483 24.448443372488413 $421 $489 forward 7 unknown #
point $-1 -43.205664235358746 -20.076590838651192 11.650522290232782 #
plane-surface $-1 43.205664235358746 0 0 -1 0 0 0 0 1 forward_v I I I I #
coedge $-1 $490 $331 $343 $447 reversed $216 $-1 #
coedge $-1 $331 $490 $346 $449 reversed $216 $-1 #
edge $-1 $491 -24.448443372488413 $340 -20.076590838651192 $336 $492 forward 7 unknown #
straight-curve $-1 18.617452892110737 -20.076590838651192 11.650522290232782 -1 0 0 I I #
coedge $-1 $343 $334 $337 $443 forward $329 $-1 #
straight-curve $-1 18.617452892110737 -20.076590838651192 -11.650522290232782 1 0 0 I I #
coedge $-1 $337 $336 $490 $493 forward $338 $-1 #
edge $-1 $339 20.076590838651192 $494 24.448443372488413 $337 $495 forward 7 unknown #
point $-1 43.205664235358746 -20.076590838651192 -11.650522290232782 #
point $-1 43.205664235358746 -20.076590838651192 11.650522290232782 #
straight-curve $-1 31.264147333084203 -24.448443372488413 0 0 0 -1 I I #
edge $-1 $494 -43.205664235358746 $344 -31.264147333084203 $436 $496 forward 7 unknown #
point $-1 31.264147333084203 -24.448443372488413 -11.650522290232782 #
edge $-1 $347 31.264147333084203 $491 43.205664235358746 $437 $497 forward 7 unknown #
point $-1 31.264147333084203 -24.448443372488413 11.650522290232782 #
edge $-1 $454 -19.257167149923355 $363 -4.75679321639835 $353 $498 forward 7 unknown #
coedge $-1 $358 $355 $360 $457 reversed $351 $-1 #
vertex $-1 $457 $499 #
vertex $-1 $356 $500 #
straight-curve $-1 31.264147333084203 -11.131258552784901 11.650522290232782 0 1 0 I I #
straight-curve $-1 31.264147333084203 -24.526188412265654 3.2791681435184525 0 0.80901698891910034 0.5877852598018023 I I #
edge $-1 $361 3.3356532223606439 $453 11.650522290232782 $360 $501 forward 7 unknown #
point $-1 31.264147333084203 -24.448443372488413 3.3356532223606439 #
point $-1 16.763773399559202 -13.004008139773076 11.650522290232782 #
straight-curve $-1 0 -24.448443372488413 11.650522290232782 1 0 0 I I #
vertex $-1 $369 $502 #
point $-1 21.906737380566348 -16.448757438320246 4.3584216004033483 #
vertex $-1 $373 $503 #
point $-1 28.121183352077061 -16.448757438320246 4.3584216004033483 #
edge $-1 $466 38.445983497905516 $469 42.283922819454624 $378 $504 forward 7 unknown #
vertex $-1 $392 $505 #
straight-curve $-1 19.234920346393473 30.415425822465849 11.650522290232779 0 1 0 I I #
edge $-1 $469 -13.889266479307089 $389 3.1979587451343221 $388 $506 forward 7 unknown #
vertex $-1 $468 $507 #
straight-curve $-1 19.234920346393473 -6.323364015296562 45.812601434997006 0 -0.62932038083071107 0.77714596973225614 I I #
point $-1 19.234920346393473 21.34054147308775 11.650522290232786 #
point $-1 2.1476951219520615 24.448443372488409 7.8125829686836781 #
straight-curve $-1 0 24.448443372488413 11.650522290232782 -1 0 0 I I #
vertex $-1 $395 $508 #
point $-1 8.0297594717924667 22.043490666754177 9.0424250137294067 #
vertex $-1 $399 $509 #
point $-1 15.352855996553075 22.043490666754177 9.0424250137294067 #
straight-curve $-1 -43.205664235358746 24.448443372488413 0 0 0 -1 I I #
point $-1 -43.205664235358746 -24.448443372488413 -11.650522290232782 #
straight-curve $-1 -43.205664235358746 0 -11.650522290232782 0 1 0 I I #
point $-1 -43.205664235358746 24.448443372488413 -11.650522290232782 #
coedge $-1 $421 $420 $426 $485 reversed $200 $-1 #
vertex $-1 $433 $510 #
straight-curve $-1 0 -24.448443372488413 11.650522290232782 1 0 0 I I #
edge $-1 $483 -11.650522290232782 $486 11.650522290232782 $482 $511 forward 7 unknown #
vertex $-1 $431 $512 #
straight-curve $-1 0 -24.448443372488413 -11.650522290232782 -1 0 0 I I #
straight-curve $-1 -43.205664235358746 0 -11.650522290232782 0 1 0 I I #
straight-curve $-1 -43.205664235358746 0 11.650522290232782 0 -1 0 I I #
coedge $-1 $437 $436 $442 $493 reversed $216 $-1 #
vertex $-1 $438 $513 #
straight-curve $-1 43.205664235358746 0 11.650522290232782 0 1 0 I I #
edge $-1 $491 -11.650522290232782 $494 11.650522290232782 $442 $514 forward 7 unknown #
vertex $-1 $493 $515 #
straight-curve $-1 43.205664235358746 0 -11.650522290232782 0 -1 0 I I #
straight-curve $-1 0 -24.448443372488413 -11.650522290232782 -1 0 0 I I #
straight-curve $-1 0 -24.448443372488413 11.650522290232782 1 0 0 I I #
straight-curve $-1 12.006980183160852 -13.004008139773076 11.650522290232782 -1 0 0 I I #
point $-1 31.264147333084203 -24.448443372488413 11.650522290232782 #
point $-1 31.264147333084207 -13.004008139773076 11.650522290232782 #
straight-curve $-1 31.264147333084203 -24.448443372488413 0 0 0 1 I I #
point $-1 20.906737380566348 -15.860972178518443 3.5494046114842477 #
point $-1 27.121183352077061 -15.860972178518443 3.5494046114842477 #
straight-curve $-1 19.234920346393473 24.448443372488413 50.096505788138302 0 0 -1 I I #
point $-1 19.234920346393473 24.448443372488413 11.650522290232782 #
straight-curve $-1 5.3456538670863836 24.448443372488413 7.8125829686836781 -1 0 0 I I #
point $-1 19.234920346393473 24.448443372488409 7.8125829686836781 #
point $-1 7.0297594717924667 21.266344697021925 8.413104632898694 #
point $-1 14.352855996553075 21.266344697021925 8.413104632898694 #
point $-1 -43.205664235358746 -24.448443372488413 11.650522290232782 #
straight-curve $-1 -43.205664235358746 -24.448443372488413 0 0 0 -1 I I #
point $-1 -43.205664235358746 -24.448443372488413 -11.650522290232782 #
point $-1 43.205664235358746 -24.448443372488413 11.650522290232782 #
straight-curve $-1 43.205664235358746 -24.448443372488413 0 0 0 -1 I I #
point $-1 43.205664235358746 -24.448443372488413 -11.650522290232782 #
End-of-ACIS-data 