500 0 10 0           
7 Unknown 11 ACIS 5.0 NT 24 Fri Mar 26 18:12:21 1999 
-1 9.9999999999999995e-007 1e-010 
body $-1 $10 $-1 $11 #
body $-1 $12 $-1 $13 #
body $-1 $14 $-1 $15 #
body $-1 $16 $-1 $17 #
body $-1 $18 $-1 $19 #
body $-1 $20 $-1 $21 #
body $-1 $22 $-1 $23 #
body $-1 $24 $-1 $25 #
body $-1 $26 $-1 $27 #
body $-1 $28 $-1 $29 #
lump $-1 $-1 $30 $0 #
transform $-1 1 0 0 0 1 0 0 0 1 55.89648121585742 24.030522819899957 8.7920750397158933 1 rotate no_reflect no_shear #
lump $-1 $-1 $31 $1 #
transform $-1 1 0 0 0 1 0 0 0 1 55.89648121585742 24.030522819899957 8.7920750397158933 1 rotate no_reflect no_shear #
lump $-1 $-1 $32 $2 #
transform $-1 1 0 0 0 1 0 0 0 1 55.89648121585742 24.030522819899957 8.7920750397158933 1 rotate no_reflect no_shear #
lump $-1 $-1 $33 $3 #
transform $-1 1 0 0 0 1 0 0 0 1 55.89648121585742 24.030522819899957 8.7920750397158933 1 rotate no_reflect no_shear #
lump $-1 $-1 $34 $4 #
transform $-1 1 0 0 0 1 0 0 0 1 55.89648121585742 24.030522819899957 8.7920750397158933 1 rotate no_reflect no_shear #
lump $-1 $-1 $35 $5 #
transform $-1 1 0 0 0 1 0 0 0 1 55.89648121585742 24.030522819899957 8.7920750397158933 1 rotate no_reflect no_shear #
lump $-1 $-1 $36 $6 #
transform $-1 1 0 0 0 1 0 0 0 1 55.89648121585742 24.030522819899957 8.7920750397158933 1 rotate no_reflect no_shear #
lump $-1 $-1 $37 $7 #
transform $-1 1 0 0 0 1 0 0 0 1 55.89648121585742 24.030522819899957 8.7920750397158933 1 rotate no_reflect no_shear #
lump $-1 $-1 $38 $8 #
transform $-1 1 0 0 0 1 0 0 0 1 55.89648121585742 24.030522819899957 8.7920750397158933 1 rotate no_reflect no_shear #
lump $-1 $-1 $39 $9 #
transform $-1 1 0 0 0 1 0 0 0 1 55.89648121585742 24.030522819899957 8.7920750397158933 1 rotate no_reflect no_shear #
shell $-1 $-1 $-1 $40 $-1 $10 #
shell $-1 $-1 $-1 $41 $-1 $12 #
shell $-1 $-1 $-1 $42 $-1 $14 #
shell $-1 $-1 $-1 $43 $-1 $16 #
shell $-1 $-1 $-1 $44 $-1 $18 #
shell $-1 $-1 $-1 $45 $-1 $20 #
shell $-1 $-1 $-1 $46 $-1 $22 #
shell $-1 $-1 $-1 $47 $-1 $24 #
shell $-1 $-1 $-1 $48 $-1 $26 #
shell $-1 $-1 $-1 $49 $-1 $28 #
face $-1 $50 $51 $30 $-1 $52 forward single #
face $-1 $53 $54 $31 $-1 $55 reversed single #
face $-1 $56 $57 $32 $-1 $58 reversed single #
face $-1 $59 $60 $33 $-1 $61 forward single #
face $-1 $62 $63 $34 $-1 $64 forward single #
face $-1 $65 $66 $35 $-1 $67 forward single #
face $-1 $68 $69 $36 $-1 $70 reversed single #
face $-1 $71 $72 $37 $-1 $73 forward single #
face $-1 $74 $75 $38 $-1 $76 reversed single #
face $-1 $77 $78 $39 $-1 $79 forward single #
face $-1 $80 $81 $30 $-1 $82 reversed single #
loop $-1 $-1 $83 $40 #
plane-surface $-1 0 0 8.7920750397158933 0 0 1 1 0 0 forward_v I I I I #
face $-1 $84 $85 $31 $-1 $86 reversed single #
loop $-1 $-1 $87 $41 #
plane-surface $-1 -54.811230114389105 -20.213218870125083 0 1 0 0 0 0 -1 forward_v I I I I #
face $-1 $88 $89 $32 $-1 $90 reversed single #
loop $-1 $-1 $91 $42 #
plane-surface $-1 53.13727284587695 16.33429377570242 160.22327550265931 0 1 0 0.69465837861970381 0 0.71933979245794832 forward_v I I I I #
face $-1 $92 $93 $33 $-1 $94 forward single #
loop $-1 $95 $96 $43 #
cone-surface $-1 51.942082083271302 17.87353958454193 4.9374262617370741 -0.69465837861970381 0 -0.71933979245794832 0.35966989622897416 0 -0.3473291893098519 1 I I 0 1 0.5 forward I I I I #
face $-1 $97 $98 $34 $-1 $99 forward single #
loop $-1 $100 $101 $44 #
cone-surface $-1 51.942082083271302 20.182408297801189 4.9374262617370741 -0.69465837861970381 0 -0.71933979245794832 0.35966989622897416 0 -0.3473291893098519 1 I I 0 1 0.5 forward I I I I #
face $-1 $102 $103 $35 $-1 $104 forward single #
loop $-1 $105 $106 $45 #
cone-surface $-1 51.942082083271302 22.491277011060447 4.9374262617370741 -0.69465837861970381 0 -0.71933979245794832 0.35966989622897416 0 -0.3473291893098519 1 I I 0 1 0.5 forward I I I I #
face $-1 $107 $108 $36 $-1 $109 reversed single #
loop $-1 $-1 $110 $46 #
plane-surface $-1 -55.896481215857406 -12.211631773994927 0.71872851074205357 -0.84804810408105047 0 0.52991925155115449 0.52991925155115449 0 0.84804810408105047 forward_v I I I I #
face $-1 $111 $112 $37 $-1 $113 forward single #
loop $-1 $114 $115 $47 #
cone-surface $-1 -51.589413400848358 -12.211631773994927 3.640213418968492 0.84804810408105047 0 -0.52991925155115449 0.79487887732673168 0 1.2720721561215758 1 I I 0 1 1.5 forward I I I I #
face $-1 $116 $117 $38 $-1 $118 reversed single #
loop $-1 $-1 $119 $48 #
plane-surface $-1 -150.70229105567728 3.8173039497748711 59.959971491242712 0 1 0 -0.84804810408105047 0 0.52991925155115449 forward_v I I I I #
face $-1 $120 $121 $39 $-1 $122 forward single #
loop $-1 $123 $124 $49 #
cone-surface $-1 -51.589413400848358 8.0015870961301516 3.640213418968492 0.84804810408105047 0 -0.52991925155115449 0.79487887732673168 0 1.2720721561215758 1 I I 0 1 1.5 forward I I I I #
face $-1 $125 $126 $30 $-1 $127 reversed single #
loop $-1 $-1 $128 $50 #
plane-surface $-1 0 0 -8.7920750397158933 0 0 1 1 0 0 forward_v I I I I #
coedge $-1 $129 $130 $131 $132 forward $51 $-1 #
face $-1 $133 $134 $31 $-1 $135 reversed single #
loop $-1 $-1 $136 $53 #
plane-surface $-1 -52.934834351571723 -16.395914920350208 0 0 -1 0 0 0 -1 forward_v I I I I #
coedge $-1 $137 $138 $139 $140 forward $54 $-1 #
face $-1 $141 $142 $32 $-1 $143 reversed single #
loop $-1 $-1 $144 $56 #
plane-surface $-1 -24.520645178031543 20.182408297801189 79.806149108770342 0.69465837861970381 0 0.71933979245794832 0.71933979245794832 0 -0.69465837861970381 forward_v I I I I #
coedge $-1 $145 $146 $147 $148 reversed $57 $-1 #
face $-1 $-1 $149 $33 $-1 $150 forward single #
loop $-1 $151 $152 $59 #
cone-surface $-1 51.253969185604959 17.87353958454193 4.2248645130707878 -0.69465837861970381 0 -0.71933979245794832 0.17983494811448708 0 -0.17366459465492595 1 I I -0.70710678118654746 0.70710678118654746 0.25 forward I I I I #
loop $-1 $-1 $153 $43 #
coedge $-1 $96 $96 $154 $155 reversed $60 $-1 #
face $-1 $-1 $156 $34 $-1 $157 forward single #
loop $-1 $158 $159 $62 #
cone-surface $-1 51.253969185604959 20.182408297801189 4.2248645130707878 -0.69465837861970381 0 -0.71933979245794832 0.17983494811448708 0 -0.17366459465492595 1 I I -0.70710678118654746 0.70710678118654746 0.25 forward I I I I #
loop $-1 $-1 $160 $44 #
coedge $-1 $101 $101 $161 $162 reversed $63 $-1 #
face $-1 $-1 $163 $35 $-1 $164 forward single #
loop $-1 $165 $166 $65 #
cone-surface $-1 51.253969185604959 22.491277011060447 4.2248645130707878 -0.69465837861970381 0 -0.71933979245794832 0.17983494811448708 0 -0.17366459465492595 1 I I -0.70710678118654746 0.70710678118654746 0.25 forward I I I I #
loop $-1 $-1 $167 $45 #
coedge $-1 $106 $106 $168 $169 reversed $66 $-1 #
face $-1 $170 $171 $36 $-1 $172 forward single #
loop $-1 $-1 $173 $68 #
plane-surface $-1 -150.70229105567728 -8.0273486276396468 59.959971491242712 0 -1 0 0.84804810408105047 0 -0.52991925155115449 forward_v I I I I #
coedge $-1 $174 $175 $176 $177 reversed $69 $-1 #
face $-1 $-1 $178 $37 $-1 $179 forward single #
loop $-1 $180 $181 $71 #
cone-surface $-1 -49.168702830491512 -12.211631773994927 2.1275856240446451 0.84804810408105047 0 -0.52991925155115449 0.39743943866336584 0 0.63603607806078788 1 I I -0.70710678118654757 0.70710678118654757 0.75 forward I I I I #
loop $-1 $-1 $182 $47 #
coedge $-1 $115 $115 $183 $184 reversed $72 $-1 #
face $-1 $185 $186 $38 $-1 $187 reversed single #
loop $-1 $-1 $188 $74 #
plane-surface $-1 -55.896481215857406 8.0015870961301516 0.71872851074205357 -0.84804810408105047 0 0.52991925155115449 0.52991925155115449 0 0.84804810408105047 forward_v I I I I #
coedge $-1 $189 $190 $191 $192 reversed $75 $-1 #
face $-1 $-1 $193 $39 $-1 $194 forward single #
loop $-1 $195 $196 $77 #
cone-surface $-1 -49.168702830491512 8.0015870961301516 2.1275856240446451 0.84804810408105047 0 -0.52991925155115449 0.39743943866336584 0 0.63603607806078788 1 I I -0.70710678118654757 0.70710678118654757 0.75 forward I I I I #
loop $-1 $-1 $197 $49 #
coedge $-1 $124 $124 $198 $199 reversed $78 $-1 #
face $-1 $200 $201 $30 $-1 $202 reversed single #
loop $-1 $-1 $203 $80 #
plane-surface $-1 0 -24.030522819899957 0 0 1 0 0 0 1 forward_v I I I I #
coedge $-1 $204 $205 $206 $207 forward $81 $-1 #
coedge $-1 $208 $83 $209 $210 forward $51 $-1 #
coedge $-1 $83 $208 $211 $212 forward $51 $-1 #
coedge $-1 $213 $214 $83 $132 reversed $215 $-1 #
edge $-1 $216 -24.030522819899957 $217 24.030522819899957 $131 $218 forward 7 unknown #
face $-1 $219 $220 $31 $-1 $221 forward single #
loop $-1 $-1 $222 $84 #
plane-surface $-1 -51.058438588754342 -20.213218870125083 0 -1 0 0 0 0 1 forward_v I I I I #
coedge $-1 $223 $224 $225 $226 forward $85 $-1 #
coedge $-1 $227 $87 $228 $229 reversed $54 $-1 #
coedge $-1 $87 $227 $230 $231 reversed $54 $-1 #
coedge $-1 $224 $223 $87 $140 reversed $85 $-1 #
edge $-1 $232 -8.7920750397158933 $233 8.7920750397158933 $139 $234 forward 7 unknown #
face $-1 $235 $236 $32 $-1 $237 reversed single #
loop $-1 $-1 $147 $88 #
plane-surface $-1 55.89648121585742 0 0 -1 0 0 0 0 1 forward_v I I I I #
coedge $-1 $238 $239 $240 $241 reversed $89 $-1 #
coedge $-1 $146 $91 $242 $243 reversed $57 $-1 #
coedge $-1 $91 $145 $238 $244 reversed $57 $-1 #
coedge $-1 $240 $245 $91 $148 forward $142 $-1 #
edge $-1 $246 71.319562711613756 $247 77.963406666467804 $147 $248 forward 7 unknown #
loop $-1 $-1 $154 $92 #
plane-surface $-1 -24.520645178031543 20.182408297801189 79.806149108770342 0.69465837861970381 0 0.71933979245794832 0.71933979245794832 0 -0.69465837861970381 forward_v I I I I #
loop $-1 $-1 $249 $59 #
coedge $-1 $152 $152 $153 $250 reversed $93 $-1 #
coedge $-1 $153 $153 $152 $250 forward $95 $-1 #
coedge $-1 $154 $154 $96 $155 forward $149 $-1 #
edge $-1 $251 0 $251 6.2831853071796004 $154 $252 forward 7 unknown #
loop $-1 $-1 $161 $97 #
plane-surface $-1 -24.520645178031543 20.182408297801189 79.806149108770342 0.69465837861970381 0 0.71933979245794832 0.71933979245794832 0 -0.69465837861970381 forward_v I I I I #
loop $-1 $-1 $253 $62 #
coedge $-1 $159 $159 $160 $254 reversed $98 $-1 #
coedge $-1 $160 $160 $159 $254 forward $100 $-1 #
coedge $-1 $161 $161 $101 $162 forward $156 $-1 #
edge $-1 $255 0 $255 6.2831853071796004 $161 $256 forward 7 unknown #
loop $-1 $-1 $168 $102 #
plane-surface $-1 -24.520645178031543 20.182408297801189 79.806149108770342 0.69465837861970381 0 0.71933979245794832 0.71933979245794832 0 -0.69465837861970381 forward_v I I I I #
loop $-1 $-1 $257 $65 #
coedge $-1 $166 $166 $167 $258 reversed $103 $-1 #
coedge $-1 $167 $167 $166 $258 forward $105 $-1 #
coedge $-1 $168 $168 $106 $169 forward $163 $-1 #
edge $-1 $259 0 $259 6.2831853071796004 $168 $260 forward 7 unknown #
face $-1 $261 $262 $36 $-1 $263 forward single #
loop $-1 $-1 $264 $107 #
plane-surface $-1 -52.934834351571723 -16.395914920350208 0 0 -1 0 0 0 -1 forward_v I I I I #
coedge $-1 $265 $266 $267 $268 reversed $108 $-1 #
coedge $-1 $269 $110 $264 $270 reversed $69 $-1 #
coedge $-1 $110 $269 $265 $271 forward $69 $-1 #
coedge $-1 $267 $272 $110 $177 forward $262 $-1 #
edge $-1 $273 -10.290099033352744 $274 -1.9215327406421832 $176 $275 forward 7 unknown #
loop $-1 $-1 $183 $111 #
plane-surface $-1 -55.896481215857406 -12.211631773994927 0.71872851074205357 -0.84804810408105047 0 0.52991925155115449 0.52991925155115449 0 0.84804810408105047 forward_v I I I I #
loop $-1 $-1 $276 $71 #
coedge $-1 $181 $181 $182 $277 reversed $112 $-1 #
coedge $-1 $182 $182 $181 $277 forward $114 $-1 #
coedge $-1 $183 $183 $115 $184 forward $178 $-1 #
edge $-1 $278 0 $278 6.2831853071796004 $183 $279 forward 7 unknown #
face $-1 $280 $281 $38 $-1 $282 reversed single #
loop $-1 $-1 $283 $116 #
plane-surface $-1 -150.70229105567728 12.185870242485432 59.959971491242712 0 -1 0 0.84804810408105047 0 -0.52991925155115449 forward_v I I I I #
coedge $-1 $284 $285 $286 $287 reversed $117 $-1 #
coedge $-1 $190 $119 $288 $289 reversed $75 $-1 #
coedge $-1 $119 $189 $284 $290 reversed $75 $-1 #
coedge $-1 $286 $291 $119 $192 forward $292 $-1 #
edge $-1 $293 19.454664311981219 $294 24.499450957407241 $191 $295 forward 7 unknown #
loop $-1 $-1 $198 $120 #
plane-surface $-1 -55.896481215857406 8.0015870961301516 0.71872851074205357 -0.84804810408105047 0 0.52991925155115449 0.52991925155115449 0 0.84804810408105047 forward_v I I I I #
loop $-1 $-1 $296 $77 #
coedge $-1 $196 $196 $197 $297 reversed $121 $-1 #
coedge $-1 $197 $197 $196 $297 forward $123 $-1 #
coedge $-1 $198 $198 $124 $199 forward $193 $-1 #
edge $-1 $298 0 $298 6.2831853071796004 $198 $299 forward 7 unknown #
face $-1 $300 $301 $30 $-1 $302 reversed single #
loop $-1 $-1 $303 $125 #
plane-surface $-1 -55.89648121585742 0 0 1 0 0 0 0 -1 forward_v I I I I #
coedge $-1 $304 $211 $305 $306 forward $126 $-1 #
coedge $-1 $307 $128 $304 $308 forward $81 $-1 #
coedge $-1 $128 $307 $309 $310 forward $81 $-1 #
coedge $-1 $214 $213 $128 $207 reversed $215 $-1 #
edge $-1 $311 -24.030522819899957 $312 24.030522819899957 $206 $313 forward 7 unknown #
coedge $-1 $130 $129 $314 $315 forward $51 $-1 #
coedge $-1 $316 $317 $129 $210 reversed $301 $-1 #
edge $-1 $217 -55.89648121585742 $318 55.89648121585742 $209 $319 forward 7 unknown #
coedge $-1 $203 $320 $130 $212 reversed $126 $-1 #
edge $-1 $321 -55.89648121585742 $216 55.89648121585742 $211 $322 forward 7 unknown #
coedge $-1 $206 $131 $320 $323 forward $215 $-1 #
coedge $-1 $131 $206 $316 $324 reversed $215 $-1 #
loop $-1 $-1 $213 $300 #
vertex $-1 $132 $325 #
vertex $-1 $132 $326 #
straight-curve $-1 55.89648121585742 0 8.7920750397158933 0 1 0 I I #
face $-1 $327 $328 $31 $-1 $329 reversed single #
loop $-1 $-1 $330 $133 #
plane-surface $-1 0 0 8.7920750397158933 0 0 1 1 0 0 forward_v I I I I #
coedge $-1 $331 $332 $333 $334 reversed $134 $-1 #
coedge $-1 $139 $136 $335 $336 reversed $85 $-1 #
coedge $-1 $136 $139 $337 $338 reversed $85 $-1 #
coedge $-1 $332 $331 $136 $226 reversed $134 $-1 #
edge $-1 $339 -8.7920750397158933 $340 8.7920750397158933 $225 $341 forward 7 unknown #
coedge $-1 $138 $137 $342 $343 reversed $54 $-1 #
coedge $-1 $335 $344 $137 $229 forward $328 $-1 #
edge $-1 $345 -13.923913384837416 $233 -6.2893054852876666 $228 $346 forward 7 unknown #
coedge $-1 $347 $337 $138 $231 forward $220 $-1 #
edge $-1 $232 6.2893054852876666 $348 13.923913384837416 $230 $349 forward 7 unknown #
vertex $-1 $231 $350 #
vertex $-1 $229 $351 #
straight-curve $-1 -54.811230114389105 -16.395914920350208 0 0 0 -1 I I #
face $-1 $-1 $352 $32 $-1 $353 forward single #
loop $-1 $-1 $354 $141 #
plane-surface $-1 0 24.030522819899957 0 0 -1 0 0 0 -1 forward_v I I I I #
coedge $-1 $355 $144 $146 $244 forward $89 $-1 #
coedge $-1 $144 $355 $354 $356 reversed $89 $-1 #
coedge $-1 $357 $147 $144 $241 forward $142 $-1 #
edge $-1 $247 6.2430896268018259 $358 13.939318670999363 $240 $359 forward 7 unknown #
coedge $-1 $360 $361 $145 $243 forward $352 $-1 #
edge $-1 $362 22.447943133769591 $246 29.327844792918945 $242 $363 forward 7 unknown #
edge $-1 $247 -111.79296243171484 $362 -102.22877353061001 $146 $364 forward 7 unknown #
coedge $-1 $147 $357 $360 $365 reversed $142 $-1 #
vertex $-1 $365 $366 #
vertex $-1 $148 $367 #
straight-curve $-1 55.89648121585742 16.33429377570242 80.111637751329653 0 0 -1 I I #
coedge $-1 $249 $249 $-1 $368 reversed $151 $-1 #
edge $-1 $369 0 $369 6.2831853071796004 $152 $370 forward 7 unknown #
vertex $-1 $155 $371 #
ellipse-curve $-1 52.456530386282729 17.87353958454193 5.4701530622888832 0.69465837861970381 0 0.71933979245794832 0.35966989622897416 0 -0.3473291893098519 1 I I #
coedge $-1 $253 $253 $-1 $372 reversed $158 $-1 #
edge $-1 $373 0 $373 6.2831853071796004 $159 $374 forward 7 unknown #
vertex $-1 $162 $375 #
ellipse-curve $-1 52.456530386282729 20.182408297801189 5.4701530622888832 0.69465837861970381 0 0.71933979245794832 0.35966989622897416 0 -0.3473291893098519 1 I I #
coedge $-1 $257 $257 $-1 $376 reversed $165 $-1 #
edge $-1 $377 0 $377 6.2831853071796004 $166 $378 forward 7 unknown #
vertex $-1 $169 $379 #
ellipse-curve $-1 52.456530386282729 22.491277011060447 5.4701530622888832 0.69465837861970381 0 0.71933979245794832 0.35966989622897416 0 -0.3473291893098519 1 I I #
face $-1 $-1 $380 $36 $-1 $381 reversed single #
loop $-1 $-1 $272 $170 #
plane-surface $-1 0 0 8.7920750397158933 0 0 1 1 0 0 forward_v I I I I #
coedge $-1 $382 $383 $174 $270 forward $171 $-1 #
coedge $-1 $266 $173 $175 $271 reversed $108 $-1 #
coedge $-1 $173 $265 $384 $385 reversed $108 $-1 #
coedge $-1 $386 $176 $173 $268 forward $262 $-1 #
edge $-1 $274 -24.499450957407241 $387 -19.454664311981219 $267 $388 forward 7 unknown #
coedge $-1 $175 $174 $389 $390 reversed $69 $-1 #
edge $-1 $391 -0.4799586693986746 $273 9.0399571114663573 $264 $392 forward 7 unknown #
edge $-1 $393 -2.6831817382962156e-014 $274 9.5199157808650039 $265 $394 forward 7 unknown #
coedge $-1 $176 $386 $382 $395 forward $262 $-1 #
vertex $-1 $177 $396 #
vertex $-1 $177 $397 #
straight-curve $-1 -50.851694570431398 -6.1058158869974637 8.7920750397158933 0 1 0 I I #
coedge $-1 $276 $276 $-1 $398 reversed $180 $-1 #
edge $-1 $399 0 $399 6.2831853071796004 $181 $400 forward 7 unknown #
vertex $-1 $184 $401 #
ellipse-curve $-1 -53.374087893144406 -12.211631773994927 4.7554017752289672 -0.84804810408105047 0 0.52991925155115449 0.79487887732673168 0 1.2720721561215758 1 I I #
face $-1 $-1 $292 $38 $-1 $402 forward single #
loop $-1 $-1 $403 $185 #
plane-surface $-1 -55.89648121585742 0 0 1 0 0 0 0 -1 forward_v I I I I #
coedge $-1 $404 $405 $406 $407 reversed $186 $-1 #
coedge $-1 $408 $188 $190 $290 forward $117 $-1 #
coedge $-1 $188 $408 $404 $409 forward $117 $-1 #
coedge $-1 $406 $191 $188 $287 forward $292 $-1 #
edge $-1 $294 -0.18348959829020473 $410 8.1850766944203563 $286 $411 forward 7 unknown #
coedge $-1 $412 $413 $189 $289 forward $281 $-1 #
edge $-1 $414 -29.261257234879324 $293 -21.187910705905463 $288 $415 forward 7 unknown #
edge $-1 $294 -9.5199157808650039 $414 2.6831817382962156e-014 $190 $416 forward 7 unknown #
coedge $-1 $191 $406 $412 $417 forward $292 $-1 #
loop $-1 $-1 $406 $280 #
vertex $-1 $289 $418 #
vertex $-1 $192 $419 #
straight-curve $-1 -75.351145527838639 3.8173039497748711 8.7920750397158933 1 0 0 I I #
coedge $-1 $296 $296 $-1 $420 reversed $195 $-1 #
edge $-1 $421 0 $421 6.2831853071796004 $196 $422 forward 7 unknown #
vertex $-1 $199 $423 #
ellipse-curve $-1 -53.374087893144406 8.0015870961301516 4.7554017752289672 -0.84804810408105047 0 0.52991925155115449 0.79487887732673168 0 1.2720721561215758 1 I I #
face $-1 $-1 $215 $30 $-1 $424 reversed single #
loop $-1 $-1 $316 $200 #
plane-surface $-1 0 24.030522819899957 0 0 -1 0 0 0 -1 forward_v I I I I #
coedge $-1 $425 $314 $317 $426 forward $201 $-1 #
coedge $-1 $320 $203 $204 $308 reversed $126 $-1 #
coedge $-1 $314 $425 $203 $306 reversed $201 $-1 #
edge $-1 $321 -8.7920750397158933 $427 8.7920750397158933 $305 $428 forward 7 unknown #
coedge $-1 $205 $204 $425 $429 forward $81 $-1 #
edge $-1 $312 -55.89648121585742 $427 55.89648121585742 $304 $430 forward 7 unknown #
coedge $-1 $317 $316 $205 $310 reversed $301 $-1 #
edge $-1 $431 -55.89648121585742 $311 55.89648121585742 $309 $432 forward 7 unknown #
vertex $-1 $207 $433 #
vertex $-1 $323 $434 #
straight-curve $-1 55.89648121585742 0 -8.7920750397158933 0 -1 0 I I #
coedge $-1 $303 $305 $208 $315 reversed $201 $-1 #
edge $-1 $318 -24.030522819899957 $321 24.030522819899957 $314 $435 forward 7 unknown #
coedge $-1 $309 $209 $214 $324 forward $301 $-1 #
coedge $-1 $209 $309 $303 $426 reversed $301 $-1 #
vertex $-1 $210 $436 #
straight-curve $-1 0 24.030522819899957 8.7920750397158933 -1 0 0 I I #
coedge $-1 $211 $304 $213 $323 reversed $126 $-1 #
vertex $-1 $315 $437 #
straight-curve $-1 0 -24.030522819899957 8.7920750397158933 1 0 0 I I #
edge $-1 $216 -8.7920750397158933 $312 8.7920750397158933 $213 $438 forward 7 unknown #
edge $-1 $217 -8.7920750397158933 $311 8.7920750397158933 $214 $439 forward 7 unknown #
point $-1 55.89648121585742 -24.030522819899957 8.7920750397158933 #
point $-1 55.89648121585742 24.030522819899957 8.7920750397158933 #
face $-1 $-1 $440 $31 $-1 $441 reversed single #
loop $-1 $-1 $442 $219 #
plane-surface $-1 0 0 -8.7920750397158933 0 0 1 1 0 0 forward_v I I I I #
coedge $-1 $337 $347 $332 $443 forward $220 $-1 #
coedge $-1 $225 $222 $442 $444 reversed $134 $-1 #
coedge $-1 $222 $225 $330 $443 reversed $134 $-1 #
coedge $-1 $445 $446 $222 $334 forward $440 $-1 #
edge $-1 $447 -8.7920750397158933 $448 8.7920750397158933 $333 $449 forward 7 unknown #
coedge $-1 $442 $228 $223 $336 forward $328 $-1 #
edge $-1 $233 -28.343812938603243 $340 -24.59102141296848 $335 $450 forward 7 unknown #
coedge $-1 $230 $330 $224 $338 forward $220 $-1 #
edge $-1 $339 24.59102141296848 $232 28.343812938603243 $337 $451 forward 7 unknown #
vertex $-1 $338 $452 #
vertex $-1 $336 $453 #
straight-curve $-1 -51.058438588754342 -16.395914920350208 0 0 0 -1 I I #
coedge $-1 $446 $445 $227 $343 forward $440 $-1 #
edge $-1 $348 -8.7920750397158933 $345 8.7920750397158933 $342 $454 forward 7 unknown #
coedge $-1 $228 $442 $446 $455 forward $328 $-1 #
vertex $-1 $229 $456 #
straight-curve $-1 -54.811230114389105 -10.106609435062541 -8.7920750397158933 0 1 0 I I #
coedge $-1 $330 $230 $445 $457 forward $220 $-1 #
vertex $-1 $457 $458 #
straight-curve $-1 -54.811230114389105 -10.106609435062541 8.7920750397158933 0 -1 0 I I #
point $-1 -54.811230114389105 -16.395914920350208 8.7920750397158933 #
point $-1 -54.811230114389105 -16.395914920350208 -8.7920750397158933 #
loop $-1 $-1 $242 $235 #
plane-surface $-1 0 0 8.7920750397158933 0 0 1 1 0 0 forward_v I I I I #
coedge $-1 $459 $460 $239 $356 forward $236 $-1 #
coedge $-1 $239 $238 $361 $461 reversed $89 $-1 #
edge $-1 $358 -75.254619453174371 $462 -65.690430552069543 $354 $463 forward 7 unknown #
coedge $-1 $245 $240 $460 $464 reversed $142 $-1 #
vertex $-1 $356 $465 #
straight-curve $-1 55.896481215857406 10.091204148900594 2.1482310848618624 0 1 0 I I #
coedge $-1 $466 $242 $245 $365 forward $352 $-1 #
coedge $-1 $242 $466 $355 $461 forward $352 $-1 #
vertex $-1 $243 $467 #
straight-curve $-1 26.568636422938475 16.33429377570242 8.7920750397158969 1 0 0 I I #
straight-curve $-1 -24.520645178031543 16.33429377570242 79.806149108770342 -0.71933979245794832 0 0.69465837861970381 I I #
edge $-1 $246 16.33429377570242 $468 24.030522819899957 $245 $469 forward 7 unknown #
point $-1 55.89648121585742 16.33429377570242 8.7920750397158933 #
point $-1 55.89648121585742 16.33429377570242 2.1482310848618482 #
edge $-1 $470 1 $470 0 $249 $-1 forward 7 unknown #
vertex $-1 $250 $471 #
ellipse-curve $-1 51.427633780259882 17.87353958454193 4.4046994611852748 0.69465837861970381 0 0.71933979245794832 0.35966989622897416 0 -0.3473291893098519 1 I I #
point $-1 52.816200282511687 17.87353958454193 5.1228238729790219 #
edge $-1 $472 1 $472 0 $253 $-1 forward 7 unknown #
vertex $-1 $254 $473 #
ellipse-curve $-1 51.427633780259882 20.182408297801189 4.4046994611852748 0.69465837861970381 0 0.71933979245794832 0.35966989622897416 0 -0.3473291893098519 1 I I #
point $-1 52.816200282511687 20.182408297801189 5.1228238729790219 #
edge $-1 $474 1 $474 0 $257 $-1 forward 7 unknown #
vertex $-1 $258 $475 #
ellipse-curve $-1 51.427633780259882 22.491277011060447 4.4046994611852748 0.69465837861970381 0 0.71933979245794832 0.35966989622897416 0 -0.3473291893098519 1 I I #
point $-1 52.816200282511687 22.491277011060447 5.1228238729790219 #
loop $-1 $-1 $476 $261 #
plane-surface $-1 -55.89648121585742 0 0 1 0 0 0 0 -1 forward_v I I I I #
coedge $-1 $383 $264 $272 $395 reversed $171 $-1 #
coedge $-1 $264 $382 $476 $477 reversed $171 $-1 #
coedge $-1 $389 $478 $266 $385 forward $380 $-1 #
edge $-1 $387 21.187910705905463 $393 29.261257234879324 $384 $479 forward 7 unknown #
coedge $-1 $272 $267 $478 $480 forward $262 $-1 #
vertex $-1 $480 $481 #
straight-curve $-1 -75.351145527838639 -8.0273486276396468 8.7920750397158933 -1 0 0 I I #
coedge $-1 $476 $384 $269 $390 forward $380 $-1 #
edge $-1 $393 1.9215327406421832 $391 10.290099033352744 $389 $482 forward 7 unknown #
vertex $-1 $477 $483 #
straight-curve $-1 -55.642141876994188 -16.395914920350208 1.1257565503628413 0.52991925155115449 0 0.84804810408105047 I I #
vertex $-1 $390 $484 #
straight-curve $-1 -55.896481215857406 -8.0273486276396468 0.71872851074205357 0.52991925155115449 0 0.84804810408105047 I I #
edge $-1 $485 19.454664311981219 $273 24.499450957407241 $272 $486 forward 7 unknown #
point $-1 -50.851694570431398 -16.395914920350208 8.7920750397158933 #
point $-1 -50.851694570431398 -8.0273486276396468 8.7920750397158933 #
edge $-1 $487 1 $487 0 $276 $-1 forward 7 unknown #
vertex $-1 $277 $488 #
ellipse-curve $-1 -49.804738908552302 -12.211631773994927 2.5250250627080111 -0.84804810408105047 0 0.52991925155115449 0.79487887732673168 0 1.2720721561215758 1 I I #
point $-1 -52.579209015817682 -12.211631773994927 6.0274739313505492 #
plane-surface $-1 0 0 8.7920750397158933 0 0 1 1 0 0 forward_v I I I I #
coedge $-1 $413 $412 $405 $489 forward $281 $-1 #
coedge $-1 $405 $283 $285 $409 reversed $186 $-1 #
coedge $-1 $283 $404 $403 $489 reversed $186 $-1 #
coedge $-1 $291 $286 $283 $407 forward $292 $-1 #
edge $-1 $410 -24.499450957407241 $490 -19.454664311981219 $406 $491 forward 7 unknown #
coedge $-1 $285 $284 $413 $492 reversed $117 $-1 #
edge $-1 $493 -2.6831817382962156e-014 $410 9.5199157808650039 $404 $494 forward 7 unknown #
vertex $-1 $287 $495 #
straight-curve $-1 -50.851694570431398 4.0007935480650758 8.7920750397158933 0 1 0 I I #
coedge $-1 $403 $288 $291 $417 reversed $281 $-1 #
coedge $-1 $288 $403 $408 $492 forward $281 $-1 #
vertex $-1 $289 $496 #
straight-curve $-1 -55.89648121585742 3.8173039497748711 29.979985745621356 0 0 1 I I #
straight-curve $-1 -55.896481215857406 3.8173039497748711 0.71872851074205357 -0.52991925155115449 0 -0.84804810408105047 I I #
edge $-1 $490 -12.185870242485432 $293 -3.8173039497748711 $412 $497 forward 7 unknown #
point $-1 -55.89648121585742 3.8173039497748711 8.7920750397158933 #
point $-1 -50.851694570431398 3.8173039497748711 8.7920750397158933 #
edge $-1 $498 1 $498 0 $296 $-1 forward 7 unknown #
vertex $-1 $297 $499 #
ellipse-curve $-1 -49.804738908552302 8.0015870961301516 2.5250250627080111 -0.84804810408105047 0 0.52991925155115449 0.79487887732673168 0 1.2720721561215758 1 I I #
point $-1 -52.579209015817682 8.0015870961301516 6.0274739313505492 #
plane-surface $-1 55.89648121585742 0 0 -1 0 0 0 0 1 forward_v I I I I #
coedge $-1 $305 $303 $307 $429 reversed $201 $-1 #
edge $-1 $318 -8.7920750397158933 $431 8.7920750397158933 $317 $500 forward 7 unknown #
vertex $-1 $429 $501 #
straight-curve $-1 -55.89648121585742 -24.030522819899957 0 0 0 -1 I I #
edge $-1 $427 -24.030522819899957 $431 24.030522819899957 $425 $502 forward 7 unknown #
straight-curve $-1 0 -24.030522819899957 -8.7920750397158933 -1 0 0 I I #
vertex $-1 $310 $503 #
straight-curve $-1 0 24.030522819899957 -8.7920750397158933 1 0 0 I I #
point $-1 55.89648121585742 24.030522819899957 -8.7920750397158933 #
point $-1 55.89648121585742 -24.030522819899957 -8.7920750397158933 #
straight-curve $-1 -55.89648121585742 0 8.7920750397158933 0 -1 0 I I #
point $-1 -55.89648121585742 24.030522819899957 8.7920750397158933 #
point $-1 -55.89648121585742 -24.030522819899957 8.7920750397158933 #
straight-curve $-1 55.89648121585742 -24.030522819899957 0 0 0 -1 I I #
straight-curve $-1 55.89648121585742 24.030522819899957 0 0 0 -1 I I #
loop $-1 $-1 $333 $327 #
plane-surface $-1 0 -24.030522819899957 0 0 1 0 0 0 1 forward_v I I I I #
coedge $-1 $344 $335 $331 $444 forward $328 $-1 #
edge $-1 $448 -13.923913384837416 $339 -6.2893054852876666 $330 $504 forward 7 unknown #
edge $-1 $340 6.2893054852876666 $447 13.923913384837416 $442 $505 forward 7 unknown #
coedge $-1 $342 $333 $347 $457 reversed $440 $-1 #
coedge $-1 $333 $342 $344 $455 reversed $440 $-1 #
vertex $-1 $455 $506 #
vertex $-1 $334 $507 #
straight-curve $-1 -51.058438588754342 -24.030522819899957 0 0 0 1 I I #
straight-curve $-1 -26.467417175785862 -16.395914920350208 -8.7920750397158933 1 0 0 I I #
straight-curve $-1 -26.467417175785862 -16.395914920350208 8.7920750397158933 -1 0 0 I I #
point $-1 -51.058438588754342 -16.395914920350208 8.7920750397158933 #
point $-1 -51.058438588754342 -16.395914920350208 -8.7920750397158933 #
straight-curve $-1 -54.811230114389105 -24.030522819899957 0 0 0 -1 I I #
edge $-1 $447 51.058438588754342 $345 54.811230114389105 $446 $508 forward 7 unknown #
point $-1 -54.811230114389105 -24.030522819899957 -8.7920750397158933 #
edge $-1 $348 -54.811230114389105 $448 -51.058438588754342 $445 $509 forward 7 unknown #
point $-1 -54.811230114389105 -24.030522819899957 8.7920750397158933 #
coedge $-1 $460 $354 $466 $510 reversed $236 $-1 #
coedge $-1 $354 $459 $357 $464 forward $236 $-1 #
edge $-1 $462 -13.939318670999363 $362 -6.2430896268018259 $361 $511 forward 7 unknown #
vertex $-1 $356 $512 #
straight-curve $-1 1.7628388769090879 24.030522819899957 54.424483017846782 -0.71933979245794832 0 0.69465837861970381 I I #
edge $-1 $468 -8.7920750397158933 $358 -2.1482310848618593 $357 $513 forward 7 unknown #
point $-1 55.89648121585742 24.030522819899957 2.1482310848618593 #
coedge $-1 $361 $360 $459 $510 forward $352 $-1 #
point $-1 49.016579556708066 16.33429377570242 8.7920750397158969 #
vertex $-1 $365 $514 #
straight-curve $-1 55.89648121585742 0 8.7920750397158933 0 1 0 I I #
vertex $-1 $368 $515 #
point $-1 51.787303676488861 17.87353958454193 4.0573702718754232 #
vertex $-1 $372 $516 #
point $-1 51.787303676488861 20.182408297801189 4.0573702718754232 #
vertex $-1 $376 $517 #
point $-1 51.787303676488861 22.491277011060447 4.0573702718754232 #
coedge $-1 $478 $389 $383 $477 forward $380 $-1 #
edge $-1 $391 -29.261257234879324 $485 -21.187910705905463 $476 $518 forward 7 unknown #
coedge $-1 $384 $476 $386 $480 reversed $380 $-1 #
straight-curve $-1 -55.89648121585742 -8.0273486276396468 29.979985745621356 0 0 -1 I I #
edge $-1 $387 8.0273486276396468 $485 16.395914920350208 $478 $519 forward 7 unknown #
point $-1 -55.89648121585742 -8.0273486276396468 8.7920750397158933 #
straight-curve $-1 -55.89648121585742 -6.1058158869974637 0.71872851074203004 0 -1 0 I I #
point $-1 -55.89648121585742 -16.395914920350208 0.71872851074203081 #
point $-1 -55.89648121585742 -8.0273486276396468 0.71872851074203081 #
vertex $-1 $477 $520 #
straight-curve $-1 -75.351145527838639 -16.395914920350208 8.7920750397158933 1 0 0 I I #
vertex $-1 $398 $521 #
point $-1 -49.009860031225571 -12.211631773994927 3.7970972188295868 #
edge $-1 $490 21.187910705905463 $493 29.261257234879324 $403 $522 forward 7 unknown #
vertex $-1 $417 $523 #
straight-curve $-1 -75.351145527838639 12.185870242485432 8.7920750397158933 -1 0 0 I I #
edge $-1 $493 -8.1850766944203563 $414 0.18348959829020473 $413 $524 forward 7 unknown #
vertex $-1 $492 $525 #
straight-curve $-1 -55.896481215857406 12.185870242485432 0.71872851074205357 0.52991925155115449 0 0.84804810408105047 I I #
point $-1 -50.851694570431398 12.185870242485432 8.7920750397158933 #
point $-1 -55.89648121585742 3.8173039497748711 0.71872851074203081 #
straight-curve $-1 -55.89648121585742 0 8.7920750397158933 0 -1 0 I I #
vertex $-1 $420 $526 #
point $-1 -49.009860031225571 8.0015870961301516 3.7970972188295868 #
straight-curve $-1 -55.89648121585742 24.030522819899957 0 0 0 -1 I I #
point $-1 -55.89648121585742 -24.030522819899957 -8.7920750397158933 #
straight-curve $-1 -55.89648121585742 0 -8.7920750397158933 0 1 0 I I #
point $-1 -55.89648121585742 24.030522819899957 -8.7920750397158933 #
straight-curve $-1 -51.058438588754342 -10.106609435062541 8.7920750397158933 0 1 0 I I #
straight-curve $-1 -51.058438588754342 -10.106609435062541 -8.7920750397158933 0 -1 0 I I #
point $-1 -51.058438588754342 -24.030522819899957 -8.7920750397158933 #
point $-1 -51.058438588754342 -24.030522819899957 8.7920750397158933 #
straight-curve $-1 0 -24.030522819899957 -8.7920750397158933 -1 0 0 I I #
straight-curve $-1 0 -24.030522819899957 8.7920750397158933 1 0 0 I I #
edge $-1 $468 -55.89648121585742 $462 -49.016579556708066 $459 $527 forward 7 unknown #
straight-curve $-1 49.016579556708059 10.091204148900594 8.792075039715904 0 -1 0 I I #
point $-1 49.016579556708066 24.030522819899957 8.7920750397158969 #
straight-curve $-1 55.89648121585742 24.030522819899957 0 0 0 -1 I I #
point $-1 55.89648121585742 24.030522819899957 8.7920750397158933 #
point $-1 51.080304590950036 17.87353958454193 4.0450295649563008 #
point $-1 51.080304590950036 20.182408297801189 4.0450295649563008 #
point $-1 51.080304590950036 22.491277011060447 4.0450295649563008 #
straight-curve $-1 -55.89648121585742 -16.395914920350208 29.979985745621356 0 0 1 I I #
straight-curve $-1 -55.89648121585742 0 8.7920750397158933 0 -1 0 I I #
point $-1 -55.89648121585742 -16.395914920350208 8.7920750397158933 #
point $-1 -48.532666752430721 -12.211631773994927 1.7301461853812792 #
straight-curve $-1 -55.89648121585742 12.185870242485432 29.979985745621356 0 0 -1 I I #
point $-1 -55.89648121585742 12.185870242485432 8.7920750397158933 #
straight-curve $-1 -55.89648121585742 4.0007935480650758 0.71872851074203004 0 -1 0 I I #
point $-1 -55.89648121585742 12.185870242485432 0.71872851074203081 #
point $-1 -48.532666752430721 8.0015870961301516 1.7301461853812792 #
straight-curve $-1 0 24.030522819899957 8.7920750397158933 -1 0 0 I I #
End-of-ACIS-data 