500 0 19 0           
7 Unknown 11 ACIS 5.0 NT 24 Thu Mar 25 21:46:23 1999 
-1 9.9999999999999995e-007 1e-010 
body $-1 $19 $-1 $20 #
body $-1 $21 $-1 $22 #
body $-1 $23 $-1 $24 #
body $-1 $25 $-1 $26 #
body $-1 $27 $-1 $28 #
body $-1 $29 $-1 $30 #
body $-1 $31 $-1 $32 #
body $-1 $33 $-1 $34 #
body $-1 $35 $-1 $36 #
body $-1 $37 $-1 $38 #
body $-1 $39 $-1 $40 #
body $-1 $41 $-1 $42 #
body $-1 $43 $-1 $44 #
body $-1 $45 $-1 $46 #
body $-1 $47 $-1 $48 #
body $-1 $49 $-1 $50 #
body $-1 $51 $-1 $52 #
body $-1 $53 $-1 $54 #
body $-1 $55 $-1 $56 #
lump $-1 $-1 $57 $0 #
transform $-1 1 0 0 0 1 0 0 0 1 70.840784936063727 33.187092781183701 7.0026416665884614 1 rotate no_reflect no_shear #
lump $-1 $-1 $58 $1 #
transform $-1 1 0 0 0 1 0 0 0 1 70.840784936063727 33.187092781183701 7.0026416665884614 1 rotate no_reflect no_shear #
lump $-1 $-1 $59 $2 #
transform $-1 1 0 0 0 1 0 0 0 1 70.840784936063727 33.187092781183701 7.0026416665884614 1 rotate no_reflect no_shear #
lump $-1 $-1 $60 $3 #
transform $-1 1 0 0 0 1 0 0 0 1 70.840784936063727 33.187092781183701 7.0026416665884614 1 rotate no_reflect no_shear #
lump $-1 $-1 $61 $4 #
transform $-1 1 0 0 0 1 0 0 0 1 70.840784936063727 33.187092781183701 7.0026416665884614 1 rotate no_reflect no_shear #
lump $-1 $-1 $62 $5 #
transform $-1 1 0 0 0 1 0 0 0 1 70.840784936063727 33.187092781183701 7.0026416665884614 1 rotate no_reflect no_shear #
lump $-1 $-1 $63 $6 #
transform $-1 1 0 0 0 1 0 0 0 1 70.840784936063727 33.187092781183701 7.0026416665884614 1 rotate no_reflect no_shear #
lump $-1 $-1 $64 $7 #
transform $-1 1 0 0 0 1 0 0 0 1 70.840784936063727 33.187092781183701 7.0026416665884614 1 rotate no_reflect no_shear #
lump $-1 $-1 $65 $8 #
transform $-1 1 0 0 0 1 0 0 0 1 70.840784936063727 33.187092781183701 7.0026416665884614 1 rotate no_reflect no_shear #
lump $-1 $-1 $66 $9 #
transform $-1 1 0 0 0 1 0 0 0 1 70.840784936063727 33.187092781183701 7.0026416665884614 1 rotate no_reflect no_shear #
lump $-1 $-1 $67 $10 #
transform $-1 1 0 0 0 1 0 0 0 1 70.840784936063727 33.187092781183701 7.0026416665884614 1 rotate no_reflect no_shear #
lump $-1 $-1 $68 $11 #
transform $-1 1 0 0 0 1 0 0 0 1 70.840784936063727 33.187092781183701 7.0026416665884614 1 rotate no_reflect no_shear #
lump $-1 $-1 $69 $12 #
transform $-1 1 0 0 0 1 0 0 0 1 70.840784936063727 33.187092781183701 7.0026416665884614 1 rotate no_reflect no_shear #
lump $-1 $-1 $70 $13 #
transform $-1 1 0 0 0 1 0 0 0 1 70.840784936063727 33.187092781183701 7.0026416665884614 1 rotate no_reflect no_shear #
lump $-1 $-1 $71 $14 #
transform $-1 1 0 0 0 1 0 0 0 1 70.840784936063727 33.187092781183701 7.0026416665884614 1 rotate no_reflect no_shear #
lump $-1 $-1 $72 $15 #
transform $-1 1 0 0 0 1 0 0 0 1 70.840784936063727 33.187092781183701 7.0026416665884614 1 rotate no_reflect no_shear #
lump $-1 $-1 $73 $16 #
transform $-1 1 0 0 0 1 0 0 0 1 70.840784936063727 33.187092781183701 7.0026416665884614 1 rotate no_reflect no_shear #
lump $-1 $-1 $74 $17 #
transform $-1 1 0 0 0 1 0 0 0 1 70.840784936063727 33.187092781183701 7.0026416665884614 1 rotate no_reflect no_shear #
lump $-1 $-1 $75 $18 #
transform $-1 1 0 0 0 1 0 0 0 1 70.840784936063727 33.187092781183701 7.0026416665884614 1 rotate no_reflect no_shear #
shell $-1 $-1 $-1 $76 $-1 $19 #
shell $-1 $-1 $-1 $77 $-1 $21 #
shell $-1 $-1 $-1 $78 $-1 $23 #
shell $-1 $-1 $-1 $79 $-1 $25 #
shell $-1 $-1 $-1 $80 $-1 $27 #
shell $-1 $-1 $-1 $81 $-1 $29 #
shell $-1 $-1 $-1 $82 $-1 $31 #
shell $-1 $-1 $-1 $83 $-1 $33 #
shell $-1 $-1 $-1 $84 $-1 $35 #
shell $-1 $-1 $-1 $85 $-1 $37 #
shell $-1 $-1 $-1 $86 $-1 $39 #
shell $-1 $-1 $-1 $87 $-1 $41 #
shell $-1 $-1 $-1 $88 $-1 $43 #
shell $-1 $-1 $-1 $89 $-1 $45 #
shell $-1 $-1 $-1 $90 $-1 $47 #
shell $-1 $-1 $-1 $91 $-1 $49 #
shell $-1 $-1 $-1 $92 $-1 $51 #
shell $-1 $-1 $-1 $93 $-1 $53 #
shell $-1 $-1 $-1 $94 $-1 $55 #
face $-1 $95 $96 $57 $-1 $97 forward single #
face $-1 $98 $99 $58 $-1 $100 forward single #
face $-1 $101 $102 $59 $-1 $103 forward single #
face $-1 $104 $105 $60 $-1 $106 reversed single #
face $-1 $107 $108 $61 $-1 $109 forward single #
face $-1 $110 $111 $62 $-1 $112 forward single #
face $-1 $113 $114 $63 $-1 $115 forward single #
face $-1 $116 $117 $64 $-1 $118 reversed single #
face $-1 $119 $120 $65 $-1 $121 forward single #
face $-1 $122 $123 $66 $-1 $124 forward single #
face $-1 $125 $126 $67 $-1 $127 reversed single #
face $-1 $128 $129 $68 $-1 $130 forward single #
face $-1 $131 $132 $69 $-1 $133 forward single #
face $-1 $134 $135 $70 $-1 $136 reversed single #
face $-1 $137 $138 $71 $-1 $139 forward single #
face $-1 $140 $141 $72 $-1 $142 forward single #
face $-1 $143 $144 $73 $-1 $145 reversed single #
face $-1 $146 $147 $74 $-1 $148 forward single #
face $-1 $149 $150 $75 $-1 $151 forward single #
face $-1 $152 $153 $57 $-1 $154 reversed single #
loop $-1 $-1 $155 $76 #
plane-surface $-1 0 0 7.0026416665884614 0 0 1 1 0 0 forward_v I I I I #
face $-1 $156 $157 $58 $-1 $158 reversed single #
loop $-1 $-1 $159 $77 #
plane-surface $-1 -66.749173060754643 0 -3.3480343381561717 0 0 1 1 0 0 forward_v I I I I #
face $-1 $160 $161 $59 $-1 $162 reversed single #
loop $-1 $-1 $163 $78 #
plane-surface $-1 66.749173060754657 0 -3.3480343381561717 0 0 1 1 0 0 forward_v I I I I #
face $-1 $164 $165 $60 $-1 $166 reversed single #
loop $-1 $-1 $167 $79 #
plane-surface $-1 -28.075173033042908 57.387728882393965 154.85358640063359 -1 0 0 0 0.55919291073839883 0.82903756765294845 forward_v I I I I #
face $-1 $168 $169 $61 $-1 $170 forward single #
loop $-1 $171 $172 $80 #
cone-surface $-1 -48.160777375281455 27.35921114755827 2.3903077287361203 0 -0.55919291073839883 -0.82903756765294845 2 0 0 1 I I 0 1 2 forward I I I I #
face $-1 $173 $174 $62 $-1 $175 forward single #
loop $-1 $176 $177 $81 #
cone-surface $-1 -40.628675746942001 27.35921114755827 2.3903077287361203 0 -0.55919291073839883 -0.82903756765294845 2 0 0 1 I I 0 1 2 forward I I I I #
face $-1 $178 $179 $63 $-1 $180 forward single #
loop $-1 $181 $182 $82 #
cone-surface $-1 -33.096574118602547 27.35921114755827 2.3903077287361203 0 -0.55919291073839883 -0.82903756765294845 2 0 0 1 I I 0 1 2 forward I I I I #
face $-1 $183 $184 $64 $-1 $185 reversed single #
loop $-1 $-1 $186 $83 #
plane-surface $-1 -60.31559990860346 -140.11553207901898 96.23486684769486 1 0 0 0 0.75470958851134928 -0.65605901945558964 forward_v I I I I #
face $-1 $187 $188 $65 $-1 $189 forward single #
loop $-1 $190 $191 $84 #
cone-surface $-1 -55.425737386938749 -30.935652997620465 4.5911134846453558 0 0.75470958851134928 -0.65605901945558964 0.5 0 0 1 I I 0 1 0.5 forward I I I I #
face $-1 $192 $193 $66 $-1 $194 forward single #
loop $-1 $195 $196 $85 #
cone-surface $-1 -48.090943604441684 -30.935652997620465 4.5911134846453558 0 0.75470958851134928 -0.65605901945558964 0.5 0 0 1 I I 0 1 0.5 forward I I I I #
face $-1 $197 $198 $67 $-1 $199 reversed single #
loop $-1 $-1 $200 $86 #
plane-surface $-1 -25.810039578143321 -140.11553207901898 96.23486684769486 1 0 0 0 0.75470958851134928 -0.65605901945558964 forward_v I I I I #
face $-1 $201 $202 $68 $-1 $203 forward single #
loop $-1 $204 $205 $87 #
cone-surface $-1 -20.920177056478607 -30.935652997620465 4.5911134846453558 0 0.75470958851134928 -0.65605901945558964 0.5 0 0 1 I I 0 1 0.5 forward I I I I #
face $-1 $206 $207 $69 $-1 $208 forward single #
loop $-1 $209 $210 $88 #
cone-surface $-1 -13.585383273981542 -30.935652997620465 4.5911134846453558 0 0.75470958851134928 -0.65605901945558964 0.5 0 0 1 I I 0 1 0.5 forward I I I I #
face $-1 $211 $212 $70 $-1 $213 reversed single #
loop $-1 $-1 $214 $89 #
plane-surface $-1 8.6955207523168205 -140.11553207901898 96.23486684769486 1 0 0 0 0.75470958851134928 -0.65605901945558964 forward_v I I I I #
face $-1 $215 $216 $71 $-1 $217 forward single #
loop $-1 $218 $219 $90 #
cone-surface $-1 13.585383273981535 -30.935652997620465 4.5911134846453558 0 0.75470958851134928 -0.65605901945558964 0.5 0 0 1 I I 0 1 0.5 forward I I I I #
face $-1 $220 $221 $72 $-1 $222 forward single #
loop $-1 $223 $224 $91 #
cone-surface $-1 20.920177056478593 -30.935652997620465 4.5911134846453558 0 0.75470958851134928 -0.65605901945558964 0.5 0 0 1 I I 0 1 0.5 forward I I I I #
face $-1 $225 $226 $73 $-1 $227 reversed single #
loop $-1 $-1 $228 $92 #
plane-surface $-1 43.201081082776966 -140.11553207901898 96.23486684769486 1 0 0 0 0.75470958851134928 -0.65605901945558964 forward_v I I I I #
face $-1 $229 $230 $74 $-1 $231 forward single #
loop $-1 $232 $233 $93 #
cone-surface $-1 48.090943604441676 -30.935652997620465 4.5911134846453558 0 0.75470958851134928 -0.65605901945558964 0.5 0 0 1 I I 0 1 0.5 forward I I I I #
face $-1 $234 $235 $75 $-1 $236 forward single #
loop $-1 $237 $238 $94 #
cone-surface $-1 55.425737386938735 -30.935652997620465 4.5911134846453558 0 0.75470958851134928 -0.65605901945558964 0.5 0 0 1 I I 0 1 0.5 forward I I I I #
face $-1 $239 $240 $57 $-1 $241 reversed single #
loop $-1 $-1 $242 $95 #
plane-surface $-1 0 0 -7.0026416665884614 0 0 1 1 0 0 forward_v I I I I #
coedge $-1 $243 $244 $245 $246 forward $96 $-1 #
face $-1 $247 $248 $58 $-1 $249 reversed single #
loop $-1 $-1 $250 $98 #
plane-surface $-1 -66.749173060754643 0 -6.3694262066181722 0 0 1 1 0 0 forward_v I I I I #
coedge $-1 $251 $252 $253 $254 forward $99 $-1 #
face $-1 $255 $256 $59 $-1 $257 reversed single #
loop $-1 $-1 $258 $101 #
plane-surface $-1 66.749173060754657 0 -6.3694262066181722 0 0 1 1 0 0 forward_v I I I I #
coedge $-1 $259 $260 $261 $262 reversed $102 $-1 #
face $-1 $263 $264 $60 $-1 $265 reversed single #
loop $-1 $-1 $266 $104 #
plane-surface $-1 -40.628675746942001 -21.839600572386821 37.394242332593777 0 0.55919291073839883 0.82903756765294845 1 0 0 forward_v I I I I #
coedge $-1 $267 $268 $269 $270 reversed $105 $-1 #
face $-1 $-1 $271 $61 $-1 $272 forward single #
loop $-1 $273 $274 $107 #
cone-surface $-1 -48.160777375281455 25.956783246967426 0.31112290148358035 0 -0.55919291073839883 -0.82903756765294845 1 0 0 1 I I -0.70710678118654768 0.70710678118654735 1 forward I I I I #
loop $-1 $-1 $275 $80 #
coedge $-1 $172 $172 $276 $277 reversed $108 $-1 #
face $-1 $-1 $278 $62 $-1 $279 forward single #
loop $-1 $280 $281 $110 #
cone-surface $-1 -40.628675746942001 25.956783246967426 0.31112290148358035 0 -0.55919291073839883 -0.82903756765294845 1 0 0 1 I I -0.70710678118654768 0.70710678118654735 1 forward I I I I #
loop $-1 $-1 $282 $81 #
coedge $-1 $177 $177 $283 $284 reversed $111 $-1 #
face $-1 $-1 $285 $63 $-1 $286 forward single #
loop $-1 $287 $288 $113 #
cone-surface $-1 -33.096574118602547 25.956783246967426 0.31112290148358035 0 -0.55919291073839883 -0.82903756765294845 1 0 0 1 I I -0.70710678118654768 0.70710678118654735 1 forward I I I I #
loop $-1 $-1 $289 $82 #
coedge $-1 $182 $182 $290 $291 reversed $114 $-1 #
face $-1 $292 $293 $64 $-1 $294 reversed single #
loop $-1 $-1 $295 $116 #
plane-surface $-1 -51.75834049569022 -33.187092781183679 3.2833950424583094 0 -0.75470958851134928 0.65605901945558964 1 0 0 forward_v I I I I #
coedge $-1 $296 $297 $298 $299 reversed $117 $-1 #
face $-1 $-1 $300 $65 $-1 $301 forward single #
loop $-1 $302 $303 $119 #
cone-surface $-1 -55.425737386938749 -30.112081658193507 3.8751938599034315 0 0.75470958851134928 -0.65605901945558964 0.25 0 0 1 I I -0.70710678118654746 0.70710678118654746 0.25 forward I I I I #
loop $-1 $-1 $304 $84 #
coedge $-1 $191 $191 $305 $306 reversed $120 $-1 #
face $-1 $-1 $307 $66 $-1 $308 forward single #
loop $-1 $309 $310 $122 #
cone-surface $-1 -48.090943604441684 -30.112081658193507 3.8751938599034315 0 0.75470958851134928 -0.65605901945558964 0.25 0 0 1 I I -0.70710678118654746 0.70710678118654746 0.25 forward I I I I #
loop $-1 $-1 $311 $85 #
coedge $-1 $196 $196 $312 $313 reversed $123 $-1 #
face $-1 $314 $315 $67 $-1 $316 reversed single #
loop $-1 $-1 $317 $125 #
plane-surface $-1 -17.252780165230078 -33.187092781183679 3.2833950424583094 0 -0.75470958851134928 0.65605901945558964 1 0 0 forward_v I I I I #
coedge $-1 $318 $319 $320 $321 reversed $126 $-1 #
face $-1 $-1 $322 $68 $-1 $323 forward single #
loop $-1 $324 $325 $128 #
cone-surface $-1 -20.920177056478607 -30.112081658193507 3.8751938599034315 0 0.75470958851134928 -0.65605901945558964 0.25 0 0 1 I I -0.70710678118654746 0.70710678118654746 0.25 forward I I I I #
loop $-1 $-1 $326 $87 #
coedge $-1 $205 $205 $327 $328 reversed $129 $-1 #
face $-1 $-1 $329 $69 $-1 $330 forward single #
loop $-1 $331 $332 $131 #
cone-surface $-1 -13.585383273981542 -30.112081658193507 3.8751938599034315 0 0.75470958851134928 -0.65605901945558964 0.25 0 0 1 I I -0.70710678118654746 0.70710678118654746 0.25 forward I I I I #
loop $-1 $-1 $333 $88 #
coedge $-1 $210 $210 $334 $335 reversed $132 $-1 #
face $-1 $336 $337 $70 $-1 $338 reversed single #
loop $-1 $-1 $339 $134 #
plane-surface $-1 17.252780165230064 -33.187092781183679 3.2833950424583094 0 -0.75470958851134928 0.65605901945558964 1 0 0 forward_v I I I I #
coedge $-1 $340 $341 $342 $343 reversed $135 $-1 #
face $-1 $-1 $344 $71 $-1 $345 forward single #
loop $-1 $346 $347 $137 #
cone-surface $-1 13.585383273981535 -30.112081658193507 3.8751938599034315 0 0.75470958851134928 -0.65605901945558964 0.25 0 0 1 I I -0.70710678118654746 0.70710678118654746 0.25 forward I I I I #
loop $-1 $-1 $348 $90 #
coedge $-1 $219 $219 $349 $350 reversed $138 $-1 #
face $-1 $-1 $351 $72 $-1 $352 forward single #
loop $-1 $353 $354 $140 #
cone-surface $-1 20.920177056478593 -30.112081658193507 3.8751938599034315 0 0.75470958851134928 -0.65605901945558964 0.25 0 0 1 I I -0.70710678118654746 0.70710678118654746 0.25 forward I I I I #
loop $-1 $-1 $355 $91 #
coedge $-1 $224 $224 $356 $357 reversed $141 $-1 #
face $-1 $358 $359 $73 $-1 $360 reversed single #
loop $-1 $-1 $361 $143 #
plane-surface $-1 51.758340495690206 -33.187092781183679 3.2833950424583094 0 -0.75470958851134928 0.65605901945558964 1 0 0 forward_v I I I I #
coedge $-1 $362 $363 $364 $365 reversed $144 $-1 #
face $-1 $-1 $366 $74 $-1 $367 forward single #
loop $-1 $368 $369 $146 #
cone-surface $-1 48.090943604441676 -30.112081658193507 3.8751938599034315 0 0.75470958851134928 -0.65605901945558964 0.25 0 0 1 I I -0.70710678118654746 0.70710678118654746 0.25 forward I I I I #
loop $-1 $-1 $370 $93 #
coedge $-1 $233 $233 $371 $372 reversed $147 $-1 #
face $-1 $-1 $373 $75 $-1 $374 forward single #
loop $-1 $375 $376 $149 #
cone-surface $-1 55.425737386938735 -30.112081658193507 3.8751938599034315 0 0.75470958851134928 -0.65605901945558964 0.25 0 0 1 I I -0.70710678118654746 0.70710678118654746 0.25 forward I I I I #
loop $-1 $-1 $377 $94 #
coedge $-1 $238 $238 $378 $379 reversed $150 $-1 #
face $-1 $380 $381 $57 $-1 $382 reversed single #
loop $-1 $-1 $383 $152 #
plane-surface $-1 0 -33.187092781183701 0 0 1 0 0 0 1 forward_v I I I I #
coedge $-1 $384 $385 $386 $387 forward $153 $-1 #
coedge $-1 $388 $155 $389 $390 forward $96 $-1 #
coedge $-1 $155 $388 $391 $392 forward $96 $-1 #
coedge $-1 $393 $394 $155 $246 reversed $395 $-1 #
edge $-1 $396 -33.187092781183701 $397 33.187092781183701 $245 $398 forward 7 unknown #
face $-1 $399 $400 $58 $-1 $401 reversed single #
loop $-1 $-1 $402 $156 #
plane-surface $-1 -62.657561185445559 0 -4.8587302723871719 -1 0 0 0 0 1 forward_v I I I I #
coedge $-1 $403 $404 $405 $406 forward $157 $-1 #
coedge $-1 $407 $159 $408 $409 reversed $99 $-1 #
coedge $-1 $159 $407 $410 $411 reversed $99 $-1 #
coedge $-1 $402 $412 $159 $254 reversed $248 $-1 #
edge $-1 $413 -33.187092781183701 $414 33.187092781183701 $253 $415 forward 7 unknown #
face $-1 $416 $417 $59 $-1 $418 reversed single #
loop $-1 $-1 $419 $160 #
plane-surface $-1 62.657561185445573 0 -4.8587302723871719 1 0 0 0 0 -1 forward_v I I I I #
coedge $-1 $420 $421 $422 $423 reversed $161 $-1 #
coedge $-1 $424 $163 $425 $426 reversed $102 $-1 #
coedge $-1 $163 $424 $427 $428 reversed $102 $-1 #
coedge $-1 $429 $430 $163 $262 forward $431 $-1 #
edge $-1 $432 -33.187092781183701 $433 33.187092781183701 $261 $434 forward 7 unknown #
face $-1 $435 $436 $60 $-1 $437 reversed single #
loop $-1 $-1 $438 $164 #
plane-surface $-1 -53.182178460841094 57.387728882393965 154.85358640063359 1 0 0 0 -0.55919291073839883 -0.82903756765294845 forward_v I I I I #
coedge $-1 $439 $440 $441 $442 reversed $165 $-1 #
coedge $-1 $268 $167 $443 $444 reversed $105 $-1 #
coedge $-1 $167 $267 $439 $445 reversed $105 $-1 #
coedge $-1 $441 $446 $167 $270 forward $436 $-1 #
edge $-1 $447 70.424151533728335 $448 77.148524890233858 $269 $449 forward 7 unknown #
loop $-1 $-1 $276 $168 #
plane-surface $-1 -40.628675746942001 -21.839600572386821 37.394242332593777 0 0.55919291073839883 0.82903756765294845 1 0 0 forward_v I I I I #
loop $-1 $-1 $450 $107 #
coedge $-1 $274 $274 $275 $451 reversed $169 $-1 #
coedge $-1 $275 $275 $274 $451 forward $171 $-1 #
coedge $-1 $276 $276 $172 $277 forward $271 $-1 #
edge $-1 $452 -1.2763030371806006e-015 $452 6.2831853071795996 $276 $453 forward 7 unknown #
loop $-1 $-1 $283 $173 #
plane-surface $-1 -40.628675746942001 -21.839600572386821 37.394242332593777 0 0.55919291073839883 0.82903756765294845 1 0 0 forward_v I I I I #
loop $-1 $-1 $454 $110 #
coedge $-1 $281 $281 $282 $455 reversed $174 $-1 #
coedge $-1 $282 $282 $281 $455 forward $176 $-1 #
coedge $-1 $283 $283 $177 $284 forward $278 $-1 #
edge $-1 $456 -1.2763030371806006e-015 $456 6.2831853071795996 $283 $457 forward 7 unknown #
loop $-1 $-1 $290 $178 #
plane-surface $-1 -40.628675746942001 -21.839600572386821 37.394242332593777 0 0.55919291073839883 0.82903756765294845 1 0 0 forward_v I I I I #
loop $-1 $-1 $458 $113 #
coedge $-1 $288 $288 $289 $459 reversed $179 $-1 #
coedge $-1 $289 $289 $288 $459 forward $181 $-1 #
coedge $-1 $290 $290 $182 $291 forward $285 $-1 #
edge $-1 $460 -1.2763030371806006e-015 $460 6.2831853071795996 $290 $461 forward 7 unknown #
face $-1 $462 $463 $64 $-1 $464 forward single #
loop $-1 $-1 $465 $183 #
plane-surface $-1 -43.20108108277698 -140.11553207901898 96.23486684769486 -1 0 0 0 -0.75470958851134928 0.65605901945558964 forward_v I I I I #
coedge $-1 $466 $467 $468 $469 reversed $184 $-1 #
coedge $-1 $297 $186 $470 $471 reversed $117 $-1 #
coedge $-1 $186 $296 $466 $472 reversed $117 $-1 #
coedge $-1 $468 $473 $186 $299 forward $474 $-1 #
edge $-1 $475 41.114791757258971 $476 44.834038381389142 $298 $477 forward 7 unknown #
loop $-1 $-1 $305 $187 #
plane-surface $-1 -51.75834049569022 -33.187092781183679 3.2833950424583094 0 -0.75470958851134928 0.65605901945558964 1 0 0 forward_v I I I I #
loop $-1 $-1 $478 $119 #
coedge $-1 $303 $303 $304 $479 reversed $188 $-1 #
coedge $-1 $304 $304 $303 $479 forward $190 $-1 #
coedge $-1 $305 $305 $191 $306 forward $300 $-1 #
edge $-1 $480 -5.7840372199106364e-016 $480 6.2831853071795996 $305 $481 forward 7 unknown #
loop $-1 $-1 $312 $192 #
plane-surface $-1 -51.75834049569022 -33.187092781183679 3.2833950424583094 0 -0.75470958851134928 0.65605901945558964 1 0 0 forward_v I I I I #
loop $-1 $-1 $482 $122 #
coedge $-1 $310 $310 $311 $483 reversed $193 $-1 #
coedge $-1 $311 $311 $310 $483 forward $195 $-1 #
coedge $-1 $312 $312 $196 $313 forward $307 $-1 #
edge $-1 $484 -5.7840372199106364e-016 $484 6.2831853071795996 $312 $485 forward 7 unknown #
face $-1 $486 $487 $67 $-1 $488 reversed single #
loop $-1 $-1 $489 $197 #
plane-surface $-1 -8.6955207523168347 -140.11553207901898 96.23486684769486 -1 0 0 0 -0.75470958851134928 0.65605901945558964 forward_v I I I I #
coedge $-1 $490 $491 $492 $493 reversed $198 $-1 #
coedge $-1 $319 $200 $494 $495 reversed $126 $-1 #
coedge $-1 $200 $318 $490 $496 reversed $126 $-1 #
coedge $-1 $492 $497 $200 $321 forward $487 $-1 #
edge $-1 $498 41.114791757258971 $499 44.834038381389142 $320 $500 forward 7 unknown #
loop $-1 $-1 $327 $201 #
plane-surface $-1 -17.252780165230078 -33.187092781183679 3.2833950424583094 0 -0.75470958851134928 0.65605901945558964 1 0 0 forward_v I I I I #
loop $-1 $-1 $501 $128 #
coedge $-1 $325 $325 $326 $502 reversed $202 $-1 #
coedge $-1 $326 $326 $325 $502 forward $204 $-1 #
coedge $-1 $327 $327 $205 $328 forward $322 $-1 #
edge $-1 $503 -5.7840372199106364e-016 $503 6.2831853071795996 $327 $504 forward 7 unknown #
loop $-1 $-1 $334 $206 #
plane-surface $-1 -17.252780165230078 -33.187092781183679 3.2833950424583094 0 -0.75470958851134928 0.65605901945558964 1 0 0 forward_v I I I I #
loop $-1 $-1 $505 $131 #
coedge $-1 $332 $332 $333 $506 reversed $207 $-1 #
coedge $-1 $333 $333 $332 $506 forward $209 $-1 #
coedge $-1 $334 $334 $210 $335 forward $329 $-1 #
edge $-1 $507 -5.7840372199106364e-016 $507 6.2831853071795996 $334 $508 forward 7 unknown #
face $-1 $509 $510 $70 $-1 $511 reversed single #
loop $-1 $-1 $512 $211 #
plane-surface $-1 25.810039578143307 -140.11553207901898 96.23486684769486 -1 0 0 0 -0.75470958851134928 0.65605901945558964 forward_v I I I I #
coedge $-1 $513 $514 $515 $516 reversed $212 $-1 #
coedge $-1 $341 $214 $517 $518 reversed $135 $-1 #
coedge $-1 $214 $340 $513 $519 reversed $135 $-1 #
coedge $-1 $515 $520 $214 $343 forward $510 $-1 #
edge $-1 $521 41.114791757258971 $522 44.834038381389142 $342 $523 forward 7 unknown #
loop $-1 $-1 $349 $215 #
plane-surface $-1 17.252780165230064 -33.187092781183679 3.2833950424583094 0 -0.75470958851134928 0.65605901945558964 1 0 0 forward_v I I I I #
loop $-1 $-1 $524 $137 #
coedge $-1 $347 $347 $348 $525 reversed $216 $-1 #
coedge $-1 $348 $348 $347 $525 forward $218 $-1 #
coedge $-1 $349 $349 $219 $350 forward $344 $-1 #
edge $-1 $526 -5.7840372199106364e-016 $526 6.2831853071795996 $349 $527 forward 7 unknown #
loop $-1 $-1 $356 $220 #
plane-surface $-1 17.252780165230064 -33.187092781183679 3.2833950424583094 0 -0.75470958851134928 0.65605901945558964 1 0 0 forward_v I I I I #
loop $-1 $-1 $528 $140 #
coedge $-1 $354 $354 $355 $529 reversed $221 $-1 #
coedge $-1 $355 $355 $354 $529 forward $223 $-1 #
coedge $-1 $356 $356 $224 $357 forward $351 $-1 #
edge $-1 $530 -5.7840372199106364e-016 $530 6.2831853071795996 $356 $531 forward 7 unknown #
face $-1 $532 $533 $73 $-1 $534 reversed single #
loop $-1 $-1 $535 $225 #
plane-surface $-1 60.315599908603446 -140.11553207901898 96.23486684769486 -1 0 0 0 -0.75470958851134928 0.65605901945558964 forward_v I I I I #
coedge $-1 $536 $537 $538 $539 reversed $226 $-1 #
coedge $-1 $363 $228 $540 $541 reversed $144 $-1 #
coedge $-1 $228 $362 $536 $542 reversed $144 $-1 #
coedge $-1 $538 $543 $228 $365 forward $533 $-1 #
edge $-1 $544 41.114791757258971 $545 44.834038381389142 $364 $546 forward 7 unknown #
loop $-1 $-1 $371 $229 #
plane-surface $-1 51.758340495690206 -33.187092781183679 3.2833950424583094 0 -0.75470958851134928 0.65605901945558964 1 0 0 forward_v I I I I #
loop $-1 $-1 $547 $146 #
coedge $-1 $369 $369 $370 $548 reversed $230 $-1 #
coedge $-1 $370 $370 $369 $548 forward $232 $-1 #
coedge $-1 $371 $371 $233 $372 forward $366 $-1 #
edge $-1 $549 -5.7840372199106364e-016 $549 6.2831853071795996 $371 $550 forward 7 unknown #
loop $-1 $-1 $378 $234 #
plane-surface $-1 51.758340495690206 -33.187092781183679 3.2833950424583094 0 -0.75470958851134928 0.65605901945558964 1 0 0 forward_v I I I I #
loop $-1 $-1 $551 $149 #
coedge $-1 $376 $376 $377 $552 reversed $235 $-1 #
coedge $-1 $377 $377 $376 $552 forward $237 $-1 #
coedge $-1 $378 $378 $238 $379 forward $373 $-1 #
edge $-1 $553 -5.7840372199106364e-016 $553 6.2831853071795996 $378 $554 forward 7 unknown #
face $-1 $555 $556 $57 $-1 $557 reversed single #
loop $-1 $-1 $558 $239 #
plane-surface $-1 -70.840784936063727 0 0 1 0 0 0 0 -1 forward_v I I I I #
coedge $-1 $559 $391 $560 $561 forward $240 $-1 #
coedge $-1 $562 $242 $559 $563 forward $153 $-1 #
coedge $-1 $242 $562 $564 $565 forward $153 $-1 #
coedge $-1 $394 $393 $242 $387 reversed $395 $-1 #
edge $-1 $566 -33.187092781183701 $567 33.187092781183701 $386 $568 forward 7 unknown #
coedge $-1 $244 $243 $569 $570 forward $96 $-1 #
coedge $-1 $571 $572 $243 $390 reversed $556 $-1 #
edge $-1 $397 -70.840784936063727 $573 70.840784936063727 $389 $574 forward 7 unknown #
coedge $-1 $383 $575 $244 $392 reversed $240 $-1 #
edge $-1 $576 -70.840784936063727 $396 70.840784936063727 $391 $577 forward 7 unknown #
coedge $-1 $386 $245 $575 $578 forward $395 $-1 #
coedge $-1 $245 $386 $571 $579 reversed $395 $-1 #
loop $-1 $-1 $393 $555 #
vertex $-1 $246 $580 #
vertex $-1 $246 $581 #
straight-curve $-1 70.840784936063727 0 7.0026416665884614 0 1 0 I I #
face $-1 $582 $583 $58 $-1 $584 reversed single #
loop $-1 $-1 $585 $247 #
plane-surface $-1 0 -33.187092781183701 0 0 1 0 0 0 1 forward_v I I I I #
coedge $-1 $405 $253 $586 $587 reversed $248 $-1 #
coedge $-1 $588 $250 $585 $589 reversed $157 $-1 #
coedge $-1 $250 $588 $590 $591 reversed $157 $-1 #
coedge $-1 $412 $402 $250 $406 reversed $248 $-1 #
edge $-1 $592 -33.187092781183701 $593 33.187092781183701 $405 $594 forward 7 unknown #
coedge $-1 $252 $251 $595 $596 reversed $99 $-1 #
coedge $-1 $597 $598 $251 $409 forward $599 $-1 #
edge $-1 $600 -37.466198405686406 $414 -29.282974655068237 $408 $601 forward 7 unknown #
coedge $-1 $602 $586 $252 $411 forward $400 $-1 #
edge $-1 $413 29.282974655068237 $603 37.466198405686406 $410 $604 forward 7 unknown #
coedge $-1 $253 $405 $597 $605 reversed $248 $-1 #
vertex $-1 $411 $606 #
vertex $-1 $409 $607 #
straight-curve $-1 -62.657561185445559 0 -3.3480343381561717 0 1 0 I I #
face $-1 $608 $609 $59 $-1 $610 reversed single #
loop $-1 $-1 $427 $255 #
plane-surface $-1 0 -33.187092781183701 0 0 1 0 0 0 1 forward_v I I I I #
coedge $-1 $611 $612 $613 $614 reversed $256 $-1 #
coedge $-1 $615 $258 $616 $617 reversed $161 $-1 #
coedge $-1 $258 $615 $618 $619 reversed $161 $-1 #
coedge $-1 $430 $429 $258 $423 forward $431 $-1 #
edge $-1 $620 -33.187092781183701 $621 33.187092781183701 $422 $622 forward 7 unknown #
coedge $-1 $260 $259 $612 $623 forward $102 $-1 #
coedge $-1 $624 $613 $259 $426 forward $609 $-1 #
edge $-1 $625 29.282974655068244 $432 37.466198405686413 $425 $626 forward 7 unknown #
coedge $-1 $627 $628 $260 $428 forward $417 $-1 #
edge $-1 $433 -37.466198405686413 $629 -29.282974655068244 $427 $630 forward 7 unknown #
coedge $-1 $422 $261 $628 $631 forward $431 $-1 #
coedge $-1 $261 $422 $624 $632 reversed $431 $-1 #
loop $-1 $-1 $261 $608 #
vertex $-1 $632 $633 #
vertex $-1 $631 $634 #
straight-curve $-1 70.840784936063727 0 -3.3480343381561717 0 -1 0 I I #
face $-1 $-1 $635 $60 $-1 $636 forward single #
loop $-1 $-1 $269 $263 #
plane-surface $-1 0 33.187092781183701 0 0 -1 0 0 0 -1 forward_v I I I I #
coedge $-1 $637 $638 $639 $640 reversed $264 $-1 #
coedge $-1 $641 $266 $268 $445 forward $165 $-1 #
coedge $-1 $266 $641 $637 $642 forward $165 $-1 #
coedge $-1 $639 $269 $266 $442 forward $436 $-1 #
edge $-1 $448 7.7608351595719078 $643 32.867840587370097 $441 $644 forward 7 unknown #
coedge $-1 $645 $646 $267 $444 forward $635 $-1 #
edge $-1 $647 -5.4760649475592835 $447 4.4932283399867181 $443 $648 forward 7 unknown #
edge $-1 $448 -66.374185562367401 $647 -54.349044993925339 $268 $649 forward 7 unknown #
coedge $-1 $269 $639 $645 $650 reversed $436 $-1 #
vertex $-1 $650 $651 #
vertex $-1 $270 $652 #
straight-curve $-1 -28.075173033042908 33.187092781183701 77.426793200316794 0 0 -1 I I #
coedge $-1 $450 $450 $-1 $653 reversed $273 $-1 #
edge $-1 $654 0 $654 6.2831853071796004 $274 $655 forward 7 unknown #
vertex $-1 $277 $656 #
ellipse-curve $-1 -48.160777375281455 28.202446137410703 3.6404549883356978 0 0.55919291073839883 0.82903756765294845 2 0 0 1 I I #
coedge $-1 $454 $454 $-1 $657 reversed $280 $-1 #
edge $-1 $658 0 $658 6.2831853071796004 $281 $659 forward 7 unknown #
vertex $-1 $284 $660 #
ellipse-curve $-1 -40.628675746942001 28.202446137410703 3.6404549883356978 0 0.55919291073839883 0.82903756765294845 2 0 0 1 I I #
coedge $-1 $458 $458 $-1 $661 reversed $287 $-1 #
edge $-1 $662 0 $662 6.2831853071796004 $288 $663 forward 7 unknown #
vertex $-1 $291 $664 #
ellipse-curve $-1 -33.096574118602547 28.202446137410703 3.6404549883356978 0 0.55919291073839883 0.82903756765294845 2 0 0 1 I I #
face $-1 $-1 $474 $64 $-1 $665 reversed single #
loop $-1 $-1 $666 $292 #
plane-surface $-1 0 0 7.0026416665884614 0 0 1 1 0 0 forward_v I I I I #
coedge $-1 $667 $668 $669 $670 reversed $293 $-1 #
coedge $-1 $671 $295 $297 $472 forward $184 $-1 #
coedge $-1 $295 $671 $667 $672 forward $184 $-1 #
coedge $-1 $669 $298 $295 $469 forward $474 $-1 #
edge $-1 $476 -34.43642966075835 $673 -17.32191083493187 $468 $674 forward 7 unknown #
coedge $-1 $675 $676 $296 $471 forward $463 $-1 #
edge $-1 $677 -40.103764940854035 $475 -36.870673258325787 $470 $678 forward 7 unknown #
edge $-1 $476 -3.2418450280676821e-014 $677 4.9280500483189815 $297 $679 forward 7 unknown #
coedge $-1 $298 $669 $675 $680 reversed $474 $-1 #
loop $-1 $-1 $669 $462 #
vertex $-1 $680 $681 #
vertex $-1 $299 $682 #
straight-curve $-1 -60.31559990860346 -33.187092781183701 48.11743342384743 0 0 -1 I I #
coedge $-1 $478 $478 $-1 $683 reversed $302 $-1 #
edge $-1 $684 0 $684 6.2831853071796004 $303 $685 forward 7 unknown #
vertex $-1 $306 $686 #
ellipse-curve $-1 -55.425737386938749 -31.570546939919577 5.1430183545233747 0 -0.75470958851134928 0.65605901945558964 0.5 0 0 1 I I #
coedge $-1 $482 $482 $-1 $687 reversed $309 $-1 #
edge $-1 $688 0 $688 6.2831853071796004 $310 $689 forward 7 unknown #
vertex $-1 $313 $690 #
ellipse-curve $-1 -48.090943604441684 -31.570546939919577 5.1430183545233747 0 -0.75470958851134928 0.65605901945558964 0.5 0 0 1 I I #
face $-1 $-1 $691 $67 $-1 $692 forward single #
loop $-1 $-1 $320 $314 #
plane-surface $-1 0 -33.187092781183701 0 0 1 0 0 0 1 forward_v I I I I #
coedge $-1 $693 $694 $695 $696 reversed $315 $-1 #
coedge $-1 $697 $317 $319 $496 forward $198 $-1 #
coedge $-1 $317 $697 $693 $698 forward $198 $-1 #
coedge $-1 $695 $320 $317 $493 forward $487 $-1 #
edge $-1 $499 -17.183649495528282 $699 -0.069130669701795711 $492 $700 forward 7 unknown #
coedge $-1 $701 $702 $318 $495 forward $691 $-1 #
edge $-1 $703 -40.103764940854035 $498 -36.870673258325787 $494 $704 forward 7 unknown #
edge $-1 $499 -3.2418450280676821e-014 $703 4.9280500483189815 $319 $705 forward 7 unknown #
coedge $-1 $320 $695 $701 $706 reversed $487 $-1 #
vertex $-1 $706 $707 #
vertex $-1 $321 $708 #
straight-curve $-1 -25.810039578143321 -33.187092781183701 48.11743342384743 0 0 -1 I I #
coedge $-1 $501 $501 $-1 $709 reversed $324 $-1 #
edge $-1 $710 0 $710 6.2831853071796004 $325 $711 forward 7 unknown #
vertex $-1 $328 $712 #
ellipse-curve $-1 -20.920177056478607 -31.570546939919577 5.1430183545233747 0 -0.75470958851134928 0.65605901945558964 0.5 0 0 1 I I #
coedge $-1 $505 $505 $-1 $713 reversed $331 $-1 #
edge $-1 $714 0 $714 6.2831853071796004 $332 $715 forward 7 unknown #
vertex $-1 $335 $716 #
ellipse-curve $-1 -13.585383273981542 -31.570546939919577 5.1430183545233747 0 -0.75470958851134928 0.65605901945558964 0.5 0 0 1 I I #
face $-1 $-1 $717 $70 $-1 $718 forward single #
loop $-1 $-1 $342 $336 #
plane-surface $-1 0 -33.187092781183701 0 0 1 0 0 0 1 forward_v I I I I #
coedge $-1 $719 $720 $721 $722 reversed $337 $-1 #
coedge $-1 $723 $339 $341 $519 forward $212 $-1 #
coedge $-1 $339 $723 $719 $724 forward $212 $-1 #
coedge $-1 $721 $342 $339 $516 forward $510 $-1 #
edge $-1 $522 0.069130669701788605 $725 17.183649495528275 $515 $726 forward 7 unknown #
coedge $-1 $727 $728 $340 $518 forward $717 $-1 #
edge $-1 $729 -40.103764940854035 $521 -36.870673258325787 $517 $730 forward 7 unknown #
edge $-1 $522 -3.2418450280676821e-014 $729 4.9280500483189815 $341 $731 forward 7 unknown #
coedge $-1 $342 $721 $727 $732 reversed $510 $-1 #
vertex $-1 $732 $733 #
vertex $-1 $343 $734 #
straight-curve $-1 8.6955207523168205 -33.187092781183701 48.11743342384743 0 0 -1 I I #
coedge $-1 $524 $524 $-1 $735 reversed $346 $-1 #
edge $-1 $736 0 $736 6.2831853071796004 $347 $737 forward 7 unknown #
vertex $-1 $350 $738 #
ellipse-curve $-1 13.585383273981535 -31.570546939919577 5.1430183545233747 0 -0.75470958851134928 0.65605901945558964 0.5 0 0 1 I I #
coedge $-1 $528 $528 $-1 $739 reversed $353 $-1 #
edge $-1 $740 0 $740 6.2831853071796004 $354 $741 forward 7 unknown #
vertex $-1 $357 $742 #
ellipse-curve $-1 20.920177056478593 -31.570546939919577 5.1430183545233747 0 -0.75470958851134928 0.65605901945558964 0.5 0 0 1 I I #
face $-1 $-1 $743 $73 $-1 $744 forward single #
loop $-1 $-1 $364 $358 #
plane-surface $-1 0 -33.187092781183701 0 0 1 0 0 0 1 forward_v I I I I #
coedge $-1 $745 $746 $747 $748 reversed $359 $-1 #
coedge $-1 $749 $361 $363 $542 forward $226 $-1 #
coedge $-1 $361 $749 $745 $750 forward $226 $-1 #
coedge $-1 $747 $364 $361 $539 forward $533 $-1 #
edge $-1 $545 17.321910834931863 $751 34.436429660758343 $538 $752 forward 7 unknown #
coedge $-1 $753 $754 $362 $541 forward $743 $-1 #
edge $-1 $755 -40.103764940854035 $544 -36.870673258325787 $540 $756 forward 7 unknown #
edge $-1 $545 -3.2418450280676821e-014 $755 4.9280500483189815 $363 $757 forward 7 unknown #
coedge $-1 $364 $747 $753 $758 reversed $533 $-1 #
vertex $-1 $758 $759 #
vertex $-1 $365 $760 #
straight-curve $-1 43.201081082776966 -33.187092781183701 48.11743342384743 0 0 -1 I I #
coedge $-1 $547 $547 $-1 $761 reversed $368 $-1 #
edge $-1 $762 0 $762 6.2831853071796004 $369 $763 forward 7 unknown #
vertex $-1 $372 $764 #
ellipse-curve $-1 48.090943604441676 -31.570546939919577 5.1430183545233747 0 -0.75470958851134928 0.65605901945558964 0.5 0 0 1 I I #
coedge $-1 $551 $551 $-1 $765 reversed $375 $-1 #
edge $-1 $766 0 $766 6.2831853071796004 $376 $767 forward 7 unknown #
vertex $-1 $379 $768 #
ellipse-curve $-1 55.425737386938735 -31.570546939919577 5.1430183545233747 0 -0.75470958851134928 0.65605901945558964 0.5 0 0 1 I I #
face $-1 $-1 $395 $57 $-1 $769 reversed single #
loop $-1 $-1 $571 $380 #
plane-surface $-1 0 33.187092781183701 0 0 -1 0 0 0 -1 forward_v I I I I #
coedge $-1 $770 $569 $572 $771 forward $381 $-1 #
coedge $-1 $575 $383 $384 $563 reversed $240 $-1 #
coedge $-1 $569 $770 $383 $561 reversed $381 $-1 #
edge $-1 $576 -7.0026416665884614 $772 7.0026416665884614 $560 $773 forward 7 unknown #
coedge $-1 $385 $384 $770 $774 forward $153 $-1 #
edge $-1 $567 -70.840784936063727 $772 70.840784936063727 $559 $775 forward 7 unknown #
coedge $-1 $572 $571 $385 $565 reversed $556 $-1 #
edge $-1 $776 -70.840784936063727 $566 70.840784936063727 $564 $777 forward 7 unknown #
vertex $-1 $387 $778 #
vertex $-1 $578 $779 #
straight-curve $-1 70.840784936063727 0 -7.0026416665884614 0 -1 0 I I #
coedge $-1 $558 $560 $388 $570 reversed $381 $-1 #
edge $-1 $573 -33.187092781183701 $576 33.187092781183701 $569 $780 forward 7 unknown #
coedge $-1 $564 $389 $394 $579 forward $556 $-1 #
coedge $-1 $389 $564 $558 $771 reversed $556 $-1 #
vertex $-1 $390 $781 #
straight-curve $-1 0 33.187092781183701 7.0026416665884614 -1 0 0 I I #
coedge $-1 $391 $559 $393 $578 reversed $240 $-1 #
vertex $-1 $570 $782 #
straight-curve $-1 0 -33.187092781183701 7.0026416665884614 1 0 0 I I #
edge $-1 $396 -7.0026416665884614 $567 7.0026416665884614 $393 $783 forward 7 unknown #
edge $-1 $397 -7.0026416665884614 $566 7.0026416665884614 $394 $784 forward 7 unknown #
point $-1 70.840784936063727 -33.187092781183701 7.0026416665884614 #
point $-1 70.840784936063727 33.187092781183701 7.0026416665884614 #
face $-1 $-1 $599 $58 $-1 $785 reversed single #
loop $-1 $-1 $786 $399 #
plane-surface $-1 -70.840784936063727 0 0 1 0 0 0 0 -1 forward_v I I I I #
coedge $-1 $586 $602 $403 $589 forward $400 $-1 #
coedge $-1 $410 $585 $402 $587 forward $400 $-1 #
edge $-1 $593 -3.9400610704245862 $413 -0.91866920196258572 $586 $787 forward 7 unknown #
coedge $-1 $404 $403 $786 $788 reversed $157 $-1 #
edge $-1 $789 -37.466198405686406 $593 -29.282974655068237 $585 $790 forward 7 unknown #
coedge $-1 $598 $597 $404 $591 forward $599 $-1 #
edge $-1 $592 29.282974655068237 $791 37.466198405686406 $590 $792 forward 7 unknown #
vertex $-1 $591 $793 #
vertex $-1 $589 $794 #
straight-curve $-1 -62.657561185445559 0 -6.3694262066181722 0 -1 0 I I #
coedge $-1 $795 $796 $407 $596 forward $583 $-1 #
edge $-1 $603 -33.187092781183701 $600 33.187092781183701 $595 $797 forward 7 unknown #
coedge $-1 $590 $408 $412 $605 forward $599 $-1 #
coedge $-1 $408 $590 $795 $798 reversed $599 $-1 #
loop $-1 $-1 $590 $582 #
vertex $-1 $798 $799 #
straight-curve $-1 -33.374586530377321 33.187092781183701 -3.3480343381561717 1 0 0 I I #
coedge $-1 $585 $410 $796 $800 forward $400 $-1 #
vertex $-1 $800 $801 #
straight-curve $-1 -33.374586530377321 -33.187092781183701 -3.3480343381561717 -1 0 0 I I #
edge $-1 $414 0.91866920196258572 $592 3.9400610704245862 $597 $802 forward 7 unknown #
point $-1 -62.657561185445559 -33.187092781183701 -3.3480343381561717 #
point $-1 -62.657561185445559 33.187092781183701 -3.3480343381561717 #
face $-1 $-1 $431 $59 $-1 $803 reversed single #
loop $-1 $-1 $425 $416 #
plane-surface $-1 0 33.187092781183701 0 0 -1 0 0 0 -1 forward_v I I I I #
coedge $-1 $804 $419 $615 $805 reversed $256 $-1 #
coedge $-1 $419 $804 $424 $623 reversed $256 $-1 #
coedge $-1 $425 $618 $419 $614 forward $609 $-1 #
edge $-1 $806 -3.9400610704245862 $625 -0.91866920196258572 $613 $807 forward 7 unknown #
coedge $-1 $421 $420 $611 $805 forward $161 $-1 #
coedge $-1 $628 $627 $420 $617 forward $417 $-1 #
edge $-1 $808 29.282974655068244 $620 37.466198405686413 $616 $809 forward 7 unknown #
coedge $-1 $613 $624 $421 $619 forward $609 $-1 #
edge $-1 $621 -37.466198405686413 $806 -29.282974655068244 $618 $810 forward 7 unknown #
vertex $-1 $423 $811 #
vertex $-1 $423 $812 #
straight-curve $-1 70.840784936063727 0 -6.3694262066181722 0 1 0 I I #
edge $-1 $625 -33.187092781183701 $629 33.187092781183701 $612 $813 forward 7 unknown #
coedge $-1 $618 $425 $430 $632 forward $609 $-1 #
vertex $-1 $426 $814 #
straight-curve $-1 33.374586530377329 33.187092781183701 -3.3480343381561717 1 0 0 I I #
coedge $-1 $616 $427 $804 $815 forward $417 $-1 #
coedge $-1 $427 $616 $429 $631 reversed $417 $-1 #
vertex $-1 $428 $816 #
straight-curve $-1 33.374586530377329 -33.187092781183701 -3.3480343381561717 -1 0 0 I I #
edge $-1 $433 3.3480343381561717 $620 6.3694262066181722 $429 $817 forward 7 unknown #
edge $-1 $432 3.3480343381561717 $621 6.3694262066181722 $430 $818 forward 7 unknown #
point $-1 70.840784936063741 33.187092781183701 -3.3480343381561717 #
point $-1 70.840784936063741 -33.187092781183701 -3.3480343381561717 #
loop $-1 $-1 $443 $435 #
plane-surface $-1 0 0 7.0026416665884614 0 0 1 1 0 0 forward_v I I I I #
coedge $-1 $638 $438 $440 $642 reversed $264 $-1 #
coedge $-1 $438 $637 $819 $820 reversed $264 $-1 #
coedge $-1 $446 $441 $438 $640 forward $436 $-1 #
edge $-1 $643 -77.148524890233858 $821 -70.424151533728335 $639 $822 forward 7 unknown #
coedge $-1 $440 $439 $646 $823 reversed $165 $-1 #
edge $-1 $824 54.349044993925339 $643 66.374185562367401 $637 $825 forward 7 unknown #
vertex $-1 $442 $826 #
straight-curve $-1 -20.314337873471001 33.187092781183701 0.27826831008293595 -1 0 0 I I #
coedge $-1 $819 $443 $446 $650 forward $635 $-1 #
coedge $-1 $443 $819 $641 $823 forward $635 $-1 #
vertex $-1 $444 $827 #
straight-curve $-1 -28.075173033042908 28.693864441196983 7.0026416665884597 0 1 0 I I #
straight-curve $-1 -28.075173033042908 -21.839600572386821 37.394242332593777 0 -0.82903756765294845 0.55919291073839883 I I #
edge $-1 $447 28.075173033042908 $821 53.182178460841094 $446 $828 forward 7 unknown #
point $-1 -28.075173033042908 33.187092781183701 7.0026416665884614 #
point $-1 -28.075173033042908 33.187092781183701 0.27826831008294306 #
edge $-1 $829 1 $829 0 $450 $-1 forward 7 unknown #
vertex $-1 $451 $830 #
ellipse-curve $-1 -48.160777375281455 26.515976157705825 1.1401604691365286 0 0.55919291073839883 0.82903756765294845 2 0 0 1 I I #
point $-1 -46.160777375281455 28.20244613741071 3.6404549883357129 #
edge $-1 $831 1 $831 0 $454 $-1 forward 7 unknown #
vertex $-1 $455 $832 #
ellipse-curve $-1 -40.628675746942001 26.515976157705825 1.1401604691365286 0 0.55919291073839883 0.82903756765294845 2 0 0 1 I I #
point $-1 -38.628675746942001 28.20244613741071 3.6404549883357129 #
edge $-1 $833 1 $833 0 $458 $-1 forward 7 unknown #
vertex $-1 $459 $834 #
ellipse-curve $-1 -33.096574118602547 26.515976157705825 1.1401604691365286 0 0.55919291073839883 0.82903756765294845 2 0 0 1 I I #
point $-1 -31.096574118602547 28.20244613741071 3.6404549883357129 #
plane-surface $-1 0 -33.187092781183701 0 0 1 0 0 0 1 forward_v I I I I #
coedge $-1 $676 $675 $668 $835 forward $463 $-1 #
coedge $-1 $668 $465 $467 $672 reversed $293 $-1 #
coedge $-1 $465 $667 $666 $835 reversed $293 $-1 #
coedge $-1 $473 $468 $465 $670 forward $474 $-1 #
edge $-1 $673 -44.834038381389142 $836 -41.114791757258971 $669 $837 forward 7 unknown #
coedge $-1 $467 $466 $676 $838 reversed $184 $-1 #
edge $-1 $839 -4.9280500483189815 $673 3.2418450280676821e-014 $667 $840 forward 7 unknown #
vertex $-1 $469 $841 #
straight-curve $-1 -25.87917024784511 -33.187092781183701 3.2833950424582925 1 0 0 I I #
coedge $-1 $666 $470 $473 $680 forward $463 $-1 #
coedge $-1 $470 $666 $671 $838 forward $463 $-1 #
vertex $-1 $471 $842 #
straight-curve $-1 -60.31559990860346 -70.057766039509488 7.0026416665884597 0 -1 0 I I #
straight-curve $-1 -60.31559990860346 -33.187092781183679 3.2833950424583094 0 0.65605901945558964 0.75470958851134928 I I #
edge $-1 $475 -60.31559990860346 $836 -43.20108108277698 $473 $843 forward 7 unknown #
point $-1 -60.31559990860346 -33.187092781183701 7.0026416665884614 #
point $-1 -60.31559990860346 -33.187092781183701 3.283395042458285 #
edge $-1 $844 1 $844 0 $478 $-1 forward 7 unknown #
vertex $-1 $479 $845 #
ellipse-curve $-1 -55.425737386938749 -30.300759055321343 4.039208614767329 0 -0.75470958851134928 0.65605901945558964 0.5 0 0 1 I I #
point $-1 -54.925737386938749 -31.570546939919588 5.1430183545233836 #
edge $-1 $846 1 $846 0 $482 $-1 forward 7 unknown #
vertex $-1 $483 $847 #
ellipse-curve $-1 -48.090943604441684 -30.300759055321343 4.039208614767329 0 -0.75470958851134928 0.65605901945558964 0.5 0 0 1 I I #
point $-1 -47.590943604441684 -31.570546939919588 5.1430183545233836 #
loop $-1 $-1 $494 $486 #
plane-surface $-1 0 0 7.0026416665884614 0 0 1 1 0 0 forward_v I I I I #
coedge $-1 $694 $489 $491 $698 reversed $315 $-1 #
coedge $-1 $489 $693 $848 $849 reversed $315 $-1 #
coedge $-1 $497 $492 $489 $696 forward $487 $-1 #
edge $-1 $699 -44.834038381389142 $850 -41.114791757258971 $695 $851 forward 7 unknown #
coedge $-1 $491 $490 $702 $852 reversed $198 $-1 #
edge $-1 $853 -4.9280500483189815 $699 3.2418450280676821e-014 $693 $854 forward 7 unknown #
vertex $-1 $493 $855 #
straight-curve $-1 -8.626390082615039 -33.187092781183701 3.2833950424582925 1 0 0 I I #
coedge $-1 $848 $494 $497 $706 forward $691 $-1 #
coedge $-1 $494 $848 $697 $852 forward $691 $-1 #
vertex $-1 $495 $856 #
straight-curve $-1 -25.810039578143321 -70.057766039509488 7.0026416665884597 0 -1 0 I I #
straight-curve $-1 -25.810039578143321 -33.187092781183679 3.2833950424583094 0 0.65605901945558964 0.75470958851134928 I I #
edge $-1 $498 -25.810039578143321 $850 -8.6955207523168347 $497 $857 forward 7 unknown #
point $-1 -25.810039578143321 -33.187092781183701 7.0026416665884614 #
point $-1 -25.810039578143321 -33.187092781183701 3.283395042458285 #
edge $-1 $858 1 $858 0 $501 $-1 forward 7 unknown #
vertex $-1 $502 $859 #
ellipse-curve $-1 -20.920177056478607 -30.300759055321343 4.039208614767329 0 -0.75470958851134928 0.65605901945558964 0.5 0 0 1 I I #
point $-1 -20.420177056478607 -31.570546939919588 5.1430183545233836 #
edge $-1 $860 1 $860 0 $505 $-1 forward 7 unknown #
vertex $-1 $506 $861 #
ellipse-curve $-1 -13.585383273981542 -30.300759055321343 4.039208614767329 0 -0.75470958851134928 0.65605901945558964 0.5 0 0 1 I I #
point $-1 -13.085383273981542 -31.570546939919588 5.1430183545233836 #
loop $-1 $-1 $517 $509 #
plane-surface $-1 0 0 7.0026416665884614 0 0 1 1 0 0 forward_v I I I I #
coedge $-1 $720 $512 $514 $724 reversed $337 $-1 #
coedge $-1 $512 $719 $862 $863 reversed $337 $-1 #
coedge $-1 $520 $515 $512 $722 forward $510 $-1 #
edge $-1 $725 -44.834038381389142 $864 -41.114791757258971 $721 $865 forward 7 unknown #
coedge $-1 $514 $513 $728 $866 reversed $212 $-1 #
edge $-1 $867 -4.9280500483189815 $725 3.2418450280676821e-014 $719 $868 forward 7 unknown #
vertex $-1 $516 $869 #
straight-curve $-1 8.6263900826150319 -33.187092781183701 3.2833950424582925 1 0 0 I I #
coedge $-1 $862 $517 $520 $732 forward $717 $-1 #
coedge $-1 $517 $862 $723 $866 forward $717 $-1 #
vertex $-1 $518 $870 #
straight-curve $-1 8.6955207523168205 -70.057766039509488 7.0026416665884597 0 -1 0 I I #
straight-curve $-1 8.6955207523168205 -33.187092781183679 3.2833950424583094 0 0.65605901945558964 0.75470958851134928 I I #
edge $-1 $521 8.6955207523168205 $864 25.810039578143307 $520 $871 forward 7 unknown #
point $-1 8.6955207523168205 -33.187092781183701 7.0026416665884614 #
point $-1 8.6955207523168205 -33.187092781183701 3.283395042458285 #
edge $-1 $872 1 $872 0 $524 $-1 forward 7 unknown #
vertex $-1 $525 $873 #
ellipse-curve $-1 13.585383273981535 -30.300759055321343 4.039208614767329 0 -0.75470958851134928 0.65605901945558964 0.5 0 0 1 I I #
point $-1 14.085383273981535 -31.570546939919588 5.1430183545233836 #
edge $-1 $874 1 $874 0 $528 $-1 forward 7 unknown #
vertex $-1 $529 $875 #
ellipse-curve $-1 20.920177056478593 -30.300759055321343 4.039208614767329 0 -0.75470958851134928 0.65605901945558964 0.5 0 0 1 I I #
point $-1 21.420177056478593 -31.570546939919588 5.1430183545233836 #
loop $-1 $-1 $540 $532 #
plane-surface $-1 0 0 7.0026416665884614 0 0 1 1 0 0 forward_v I I I I #
coedge $-1 $746 $535 $537 $750 reversed $359 $-1 #
coedge $-1 $535 $745 $876 $877 reversed $359 $-1 #
coedge $-1 $543 $538 $535 $748 forward $533 $-1 #
edge $-1 $751 -44.834038381389142 $878 -41.114791757258971 $747 $879 forward 7 unknown #
coedge $-1 $537 $536 $754 $880 reversed $226 $-1 #
edge $-1 $881 -4.9280500483189815 $751 3.2418450280676821e-014 $745 $882 forward 7 unknown #
vertex $-1 $539 $883 #
straight-curve $-1 25.879170247845103 -33.187092781183701 3.2833950424582925 1 0 0 I I #
coedge $-1 $876 $540 $543 $758 forward $743 $-1 #
coedge $-1 $540 $876 $749 $880 forward $743 $-1 #
vertex $-1 $541 $884 #
straight-curve $-1 43.201081082776966 -70.057766039509488 7.0026416665884597 0 -1 0 I I #
straight-curve $-1 43.201081082776966 -33.187092781183679 3.2833950424583094 0 0.65605901945558964 0.75470958851134928 I I #
edge $-1 $544 43.201081082776966 $878 60.315599908603446 $543 $885 forward 7 unknown #
point $-1 43.201081082776966 -33.187092781183701 7.0026416665884614 #
point $-1 43.201081082776966 -33.187092781183701 3.283395042458285 #
edge $-1 $886 1 $886 0 $547 $-1 forward 7 unknown #
vertex $-1 $548 $887 #
ellipse-curve $-1 48.090943604441676 -30.300759055321343 4.039208614767329 0 -0.75470958851134928 0.65605901945558964 0.5 0 0 1 I I #
point $-1 48.590943604441676 -31.570546939919588 5.1430183545233836 #
edge $-1 $888 1 $888 0 $551 $-1 forward 7 unknown #
vertex $-1 $552 $889 #
ellipse-curve $-1 55.425737386938735 -30.300759055321343 4.039208614767329 0 -0.75470958851134928 0.65605901945558964 0.5 0 0 1 I I #
point $-1 55.925737386938735 -31.570546939919588 5.1430183545233836 #
plane-surface $-1 70.840784936063727 0 0 -1 0 0 0 0 1 forward_v I I I I #
coedge $-1 $560 $558 $562 $774 reversed $381 $-1 #
edge $-1 $573 -7.0026416665884614 $776 7.0026416665884614 $572 $890 forward 7 unknown #
vertex $-1 $774 $891 #
straight-curve $-1 -70.840784936063727 -33.187092781183701 0 0 0 -1 I I #
edge $-1 $772 -33.187092781183701 $776 33.187092781183701 $770 $892 forward 7 unknown #
straight-curve $-1 0 -33.187092781183701 -7.0026416665884614 -1 0 0 I I #
vertex $-1 $565 $893 #
straight-curve $-1 0 33.187092781183701 -7.0026416665884614 1 0 0 I I #
point $-1 70.840784936063727 33.187092781183701 -7.0026416665884614 #
point $-1 70.840784936063727 -33.187092781183701 -7.0026416665884614 #
straight-curve $-1 -70.840784936063727 0 7.0026416665884614 0 -1 0 I I #
point $-1 -70.840784936063727 33.187092781183701 7.0026416665884614 #
point $-1 -70.840784936063727 -33.187092781183701 7.0026416665884614 #
straight-curve $-1 70.840784936063727 -33.187092781183701 0 0 0 -1 I I #
straight-curve $-1 70.840784936063727 33.187092781183701 0 0 0 -1 I I #
plane-surface $-1 0 33.187092781183701 0 0 -1 0 0 0 -1 forward_v I I I I #
coedge $-1 $796 $795 $588 $788 forward $583 $-1 #
straight-curve $-1 -62.657561185445559 -33.187092781183701 -2.429365136193586 0 0 1 I I #
edge $-1 $791 -33.187092781183701 $789 33.187092781183701 $786 $894 forward 7 unknown #
vertex $-1 $589 $895 #
straight-curve $-1 -33.374586530377321 -33.187092781183701 -6.3694262066181722 1 0 0 I I #
vertex $-1 $591 $896 #
straight-curve $-1 -33.374586530377321 33.187092781183701 -6.3694262066181722 -1 0 0 I I #
point $-1 -62.657561185445559 33.187092781183701 -6.3694262066181722 #
point $-1 -62.657561185445559 -33.187092781183701 -6.3694262066181722 #
coedge $-1 $786 $595 $598 $798 forward $583 $-1 #
coedge $-1 $595 $786 $602 $800 reversed $583 $-1 #
straight-curve $-1 -70.840784936063727 0 -3.3480343381561717 0 1 0 I I #
edge $-1 $600 3.3480343381561717 $791 6.3694262066181722 $598 $897 forward 7 unknown #
point $-1 -70.840784936063727 33.187092781183701 -3.3480343381561717 #
edge $-1 $603 3.3480343381561717 $789 6.3694262066181722 $796 $898 forward 7 unknown #
point $-1 -70.840784936063727 -33.187092781183701 -3.3480343381561717 #
straight-curve $-1 -62.657561185445559 33.187092781183701 -2.429365136193586 0 0 -1 I I #
plane-surface $-1 70.840784936063727 0 0 -1 0 0 0 0 1 forward_v I I I I #
coedge $-1 $612 $611 $627 $815 reversed $256 $-1 #
edge $-1 $808 -33.187092781183701 $806 33.187092781183701 $611 $899 forward 7 unknown #
vertex $-1 $619 $900 #
straight-curve $-1 62.657561185445573 33.187092781183701 -2.429365136193586 0 0 1 I I #
vertex $-1 $617 $901 #
straight-curve $-1 33.374586530377329 -33.187092781183701 -6.3694262066181722 1 0 0 I I #
straight-curve $-1 33.374586530377329 33.187092781183701 -6.3694262066181722 -1 0 0 I I #
point $-1 70.840784936063741 -33.187092781183701 -6.3694262066181722 #
point $-1 70.840784936063741 33.187092781183701 -6.3694262066181722 #
straight-curve $-1 62.657561185445573 0 -3.3480343381561717 0 -1 0 I I #
point $-1 62.657561185445573 33.187092781183701 -3.3480343381561717 #
edge $-1 $629 0.91866920196258572 $808 3.9400610704245862 $627 $902 forward 7 unknown #
point $-1 62.657561185445573 -33.187092781183701 -3.3480343381561717 #
straight-curve $-1 70.840784936063727 -33.187092781183701 0 0 0 -1 I I #
straight-curve $-1 70.840784936063727 33.187092781183701 0 0 0 -1 I I #
coedge $-1 $646 $645 $638 $820 forward $635 $-1 #
edge $-1 $821 -4.4932283399867181 $824 5.4760649475592835 $819 $903 forward 7 unknown #
vertex $-1 $820 $904 #
straight-curve $-1 -53.182178460841094 33.187092781183701 77.426793200316794 0 0 1 I I #
edge $-1 $824 -32.867840587370097 $647 -7.7608351595719078 $646 $905 forward 7 unknown #
vertex $-1 $823 $906 #
straight-curve $-1 -53.182178460841094 -21.839600572386821 37.394242332593777 0 0.82903756765294845 -0.55919291073839883 I I #
point $-1 -53.182178460841094 33.187092781183701 0.27826831008294306 #
point $-1 -28.075173033042908 23.217799493637699 7.0026416665884597 #
straight-curve $-1 0 33.187092781183701 7.0026416665884614 -1 0 0 I I #
vertex $-1 $653 $907 #
point $-1 -46.160777375281455 26.515976157705825 1.1401604691365286 #
vertex $-1 $657 $908 #
point $-1 -38.628675746942001 26.515976157705825 1.1401604691365286 #
vertex $-1 $661 $909 #
point $-1 -31.096574118602547 26.515976157705825 1.1401604691365286 #
edge $-1 $836 36.870673258325787 $839 40.103764940854035 $666 $910 forward 7 unknown #
vertex $-1 $670 $911 #
straight-curve $-1 -43.20108108277698 -33.187092781183701 48.11743342384743 0 0 1 I I #
edge $-1 $839 17.32191083493187 $677 34.43642966075835 $676 $912 forward 7 unknown #
vertex $-1 $838 $913 #
straight-curve $-1 -43.20108108277698 -33.187092781183679 3.2833950424583094 0 -0.65605901945558964 -0.75470958851134928 I I #
point $-1 -43.20108108277698 -33.187092781183701 3.283395042458285 #
point $-1 -60.31559990860346 -29.954001098655457 7.0026416665884614 #
straight-curve $-1 0 -33.187092781183701 7.0026416665884614 1 0 0 I I #
vertex $-1 $683 $914 #
point $-1 -54.925737386938749 -30.300759055321343 4.039208614767329 #
vertex $-1 $687 $915 #
point $-1 -47.590943604441684 -30.300759055321343 4.039208614767329 #
coedge $-1 $702 $701 $694 $849 forward $691 $-1 #
edge $-1 $850 36.870673258325787 $853 40.103764940854035 $848 $916 forward 7 unknown #
vertex $-1 $849 $917 #
straight-curve $-1 -8.6955207523168347 -33.187092781183701 48.11743342384743 0 0 1 I I #
edge $-1 $853 0.069130669701795711 $703 17.183649495528282 $702 $918 forward 7 unknown #
vertex $-1 $852 $919 #
straight-curve $-1 -8.6955207523168347 -33.187092781183679 3.2833950424583094 0 -0.65605901945558964 -0.75470958851134928 I I #
point $-1 -8.6955207523168347 -33.187092781183701 3.283395042458285 #
point $-1 -25.810039578143321 -29.954001098655457 7.0026416665884614 #
straight-curve $-1 0 -33.187092781183701 7.0026416665884614 1 0 0 I I #
vertex $-1 $709 $920 #
point $-1 -20.420177056478607 -30.300759055321343 4.039208614767329 #
vertex $-1 $713 $921 #
point $-1 -13.085383273981542 -30.300759055321343 4.039208614767329 #
coedge $-1 $728 $727 $720 $863 forward $717 $-1 #
edge $-1 $864 36.870673258325787 $867 40.103764940854035 $862 $922 forward 7 unknown #
vertex $-1 $863 $923 #
straight-curve $-1 25.810039578143307 -33.187092781183701 48.11743342384743 0 0 1 I I #
edge $-1 $867 -17.183649495528275 $729 -0.069130669701788605 $728 $924 forward 7 unknown #
vertex $-1 $866 $925 #
straight-curve $-1 25.810039578143307 -33.187092781183679 3.2833950424583094 0 -0.65605901945558964 -0.75470958851134928 I I #
point $-1 25.810039578143307 -33.187092781183701 3.283395042458285 #
point $-1 8.6955207523168205 -29.954001098655457 7.0026416665884614 #
straight-curve $-1 0 -33.187092781183701 7.0026416665884614 1 0 0 I I #
vertex $-1 $735 $926 #
point $-1 14.085383273981535 -30.300759055321343 4.039208614767329 #
vertex $-1 $739 $927 #
point $-1 21.420177056478593 -30.300759055321343 4.039208614767329 #
coedge $-1 $754 $753 $746 $877 forward $743 $-1 #
edge $-1 $878 36.870673258325787 $881 40.103764940854035 $876 $928 forward 7 unknown #
vertex $-1 $877 $929 #
straight-curve $-1 60.315599908603446 -33.187092781183701 48.11743342384743 0 0 1 I I #
edge $-1 $881 -34.436429660758343 $755 -17.321910834931863 $754 $930 forward 7 unknown #
vertex $-1 $880 $931 #
straight-curve $-1 60.315599908603446 -33.187092781183679 3.2833950424583094 0 -0.65605901945558964 -0.75470958851134928 I I #
point $-1 60.315599908603446 -33.187092781183701 3.283395042458285 #
point $-1 43.201081082776966 -29.954001098655457 7.0026416665884614 #
straight-curve $-1 0 -33.187092781183701 7.0026416665884614 1 0 0 I I #
vertex $-1 $761 $932 #
point $-1 48.590943604441676 -30.300759055321343 4.039208614767329 #
vertex $-1 $765 $933 #
point $-1 55.925737386938735 -30.300759055321343 4.039208614767329 #
straight-curve $-1 -70.840784936063727 33.187092781183701 0 0 0 -1 I I #
point $-1 -70.840784936063727 -33.187092781183701 -7.0026416665884614 #
straight-curve $-1 -70.840784936063727 0 -7.0026416665884614 0 1 0 I I #
point $-1 -70.840784936063727 33.187092781183701 -7.0026416665884614 #
straight-curve $-1 -70.840784936063727 0 -6.3694262066181722 0 -1 0 I I #
point $-1 -70.840784936063727 -33.187092781183701 -6.3694262066181722 #
point $-1 -70.840784936063727 33.187092781183701 -6.3694262066181722 #
straight-curve $-1 -70.840784936063727 33.187092781183701 0 0 0 -1 I I #
straight-curve $-1 -70.840784936063727 -33.187092781183701 0 0 0 -1 I I #
straight-curve $-1 62.657561185445573 0 -6.3694262066181722 0 1 0 I I #
point $-1 62.657561185445573 33.187092781183701 -6.3694262066181722 #
point $-1 62.657561185445573 -33.187092781183701 -6.3694262066181722 #
straight-curve $-1 62.657561185445573 -33.187092781183701 -2.429365136193586 0 0 -1 I I #
straight-curve $-1 -53.182178460841094 28.693864441196983 7.0026416665884597 0 -1 0 I I #
point $-1 -53.182178460841094 33.187092781183701 7.0026416665884614 #
straight-curve $-1 -20.314337873471001 23.217799493637706 7.0026416665884597 1 0 0 I I #
point $-1 -53.182178460841094 23.217799493637699 7.0026416665884597 #
point $-1 -48.160777375281455 25.397590336229026 -0.51791466616936777 #
point $-1 -40.628675746942001 25.397590336229026 -0.51791466616936777 #
point $-1 -33.096574118602547 25.397590336229026 -0.51791466616936777 #
straight-curve $-1 -43.20108108277698 -70.057766039509488 7.0026416665884597 0 1 0 I I #
point $-1 -43.20108108277698 -33.187092781183701 7.0026416665884614 #
straight-curve $-1 -25.87917024784511 -29.954001098655453 7.0026416665884605 -1 0 0 I I #
point $-1 -43.20108108277698 -29.954001098655457 7.0026416665884614 #
point $-1 -55.425737386938749 -29.92340426106567 3.711179105039534 #
point $-1 -48.090943604441684 -29.92340426106567 3.711179105039534 #
straight-curve $-1 -8.6955207523168347 -70.057766039509488 7.0026416665884597 0 1 0 I I #
point $-1 -8.6955207523168347 -33.187092781183701 7.0026416665884614 #
straight-curve $-1 -8.626390082615039 -29.954001098655453 7.0026416665884605 -1 0 0 I I #
point $-1 -8.6955207523168347 -29.954001098655457 7.0026416665884614 #
point $-1 -20.920177056478607 -29.92340426106567 3.711179105039534 #
point $-1 -13.585383273981542 -29.92340426106567 3.711179105039534 #
straight-curve $-1 25.810039578143307 -70.057766039509488 7.0026416665884597 0 1 0 I I #
point $-1 25.810039578143307 -33.187092781183701 7.0026416665884614 #
straight-curve $-1 8.6263900826150319 -29.954001098655453 7.0026416665884605 -1 0 0 I I #
point $-1 25.810039578143307 -29.954001098655457 7.0026416665884614 #
point $-1 13.585383273981535 -29.92340426106567 3.711179105039534 #
point $-1 20.920177056478593 -29.92340426106567 3.711179105039534 #
straight-curve $-1 60.315599908603446 -70.057766039509488 7.0026416665884597 0 1 0 I I #
point $-1 60.315599908603446 -33.187092781183701 7.0026416665884614 #
straight-curve $-1 25.879170247845103 -29.954001098655453 7.0026416665884605 -1 0 0 I I #
point $-1 60.315599908603446 -29.954001098655457 7.0026416665884614 #
point $-1 48.090943604441676 -29.92340426106567 3.711179105039534 #
point $-1 55.425737386938735 -29.92340426106567 3.711179105039534 #
End-of-ACIS-data 