500 0 8 0           
7 Unknown 11 ACIS 5.0 NT 24 Thu Mar 25 18:48:47 1999 
-1 9.9999999999999995e-007 1e-010 
body $-1 $8 $-1 $9 #
body $-1 $10 $-1 $11 #
body $-1 $12 $-1 $13 #
body $-1 $14 $-1 $15 #
body $-1 $16 $-1 $17 #
body $-1 $18 $-1 $19 #
body $-1 $20 $-1 $21 #
body $-1 $22 $-1 $23 #
lump $-1 $-1 $24 $0 #
transform $-1 1 0 0 0 1 0 0 0 1 74.212469862971886 40.491738637994636 14.630879786134376 1 rotate no_reflect no_shear #
lump $-1 $-1 $25 $1 #
transform $-1 1 0 0 0 1 0 0 0 1 74.212469862971886 40.491738637994636 14.630879786134376 1 rotate no_reflect no_shear #
lump $-1 $-1 $26 $2 #
transform $-1 1 0 0 0 1 0 0 0 1 74.212469862971886 40.491738637994636 14.630879786134376 1 rotate no_reflect no_shear #
lump $-1 $-1 $27 $3 #
transform $-1 1 0 0 0 1 0 0 0 1 74.212469862971886 40.491738637994636 14.630879786134376 1 rotate no_reflect no_shear #
lump $-1 $-1 $28 $4 #
transform $-1 1 0 0 0 1 0 0 0 1 74.212469862971886 40.491738637994636 14.630879786134376 1 rotate no_reflect no_shear #
lump $-1 $-1 $29 $5 #
transform $-1 1 0 0 0 1 0 0 0 1 74.212469862971886 40.491738637994636 14.630879786134376 1 rotate no_reflect no_shear #
lump $-1 $-1 $30 $6 #
transform $-1 1 0 0 0 1 0 0 0 1 74.212469862971886 40.491738637994636 14.630879786134376 1 rotate no_reflect no_shear #
lump $-1 $-1 $31 $7 #
transform $-1 1 0 0 0 1 0 0 0 1 74.212469862971886 40.491738637994636 14.630879786134376 1 rotate no_reflect no_shear #
shell $-1 $-1 $-1 $32 $-1 $8 #
shell $-1 $-1 $-1 $33 $-1 $10 #
shell $-1 $-1 $-1 $34 $-1 $12 #
shell $-1 $-1 $-1 $35 $-1 $14 #
shell $-1 $-1 $-1 $36 $-1 $16 #
shell $-1 $-1 $-1 $37 $-1 $18 #
shell $-1 $-1 $-1 $38 $-1 $20 #
shell $-1 $-1 $-1 $39 $-1 $22 #
face $-1 $40 $41 $24 $-1 $42 forward single #
face $-1 $43 $44 $25 $-1 $45 forward single #
face $-1 $46 $47 $26 $-1 $48 reversed single #
face $-1 $49 $50 $27 $-1 $51 forward single #
face $-1 $52 $53 $28 $-1 $54 forward single #
face $-1 $55 $56 $29 $-1 $57 forward single #
face $-1 $58 $59 $30 $-1 $60 reversed single #
face $-1 $61 $62 $31 $-1 $63 forward single #
face $-1 $64 $65 $24 $-1 $66 reversed single #
loop $-1 $-1 $67 $32 #
plane-surface $-1 0 0 14.630879786134376 0 0 1 1 0 0 forward_v I I I I #
face $-1 $68 $69 $25 $-1 $70 reversed single #
loop $-1 $-1 $71 $33 #
plane-surface $-1 -69.331970577373781 0 12.971044419687644 0 0 1 1 0 0 forward_v I I I I #
face $-1 $72 $73 $26 $-1 $74 reversed single #
loop $-1 $-1 $75 $34 #
plane-surface $-1 -8.6500114344243144 104.87502959344408 164.65059384885535 1 0 0 0 -0.77714596973225614 -0.62932038083071107 forward_v I I I I #
face $-1 $76 $77 $27 $-1 $78 forward single #
loop $-1 $79 $80 $35 #
cone-surface $-1 -3.3281632604264644 36.800293027792641 10.553241558534719 0 -0.77714596973225614 -0.62932038083071107 2 0 0 1 I I 0 1 2 forward I I I I #
face $-1 $81 $82 $28 $-1 $83 forward single #
loop $-1 $84 $85 $36 #
cone-surface $-1 4.6546090005703036 36.800293027792641 10.553241558534719 0 -0.77714596973225614 -0.62932038083071107 2 0 0 1 I I 0 1 2 forward I I I I #
face $-1 $86 $87 $29 $-1 $88 forward single #
loop $-1 $89 $90 $37 #
cone-surface $-1 12.637381261567072 36.800293027792641 10.553241558534719 0 -0.77714596973225614 -0.62932038083071107 2 0 0 1 I I 0 1 2 forward I I I I #
face $-1 $91 $92 $30 $-1 $93 reversed single #
loop $-1 $-1 $94 $38 #
plane-surface $-1 59.243075851488321 -135.89745203493499 117.3167573577753 -1 0 0 0 -0.64278761758704617 0.76604443648966558 forward_v I I I I #
face $-1 $95 $96 $31 $-1 $97 forward single #
loop $-1 $98 $99 $39 #
cone-surface $-1 45.352771971081637 -32.498340164747376 7.4192282833312282 0 0.64278761758704617 -0.76604443648966558 3 0 0 1 I I 0 1 3 forward I I I I #
face $-1 $100 $101 $24 $-1 $102 reversed single #
loop $-1 $-1 $103 $40 #
plane-surface $-1 0 0 -14.630879786134376 0 0 1 1 0 0 forward_v I I I I #
coedge $-1 $104 $105 $106 $107 forward $41 $-1 #
face $-1 $108 $109 $25 $-1 $110 reversed single #
loop $-1 $-1 $111 $43 #
plane-surface $-1 -69.331970577373781 0 6.2955910983989654 0 0 1 1 0 0 forward_v I I I I #
coedge $-1 $112 $113 $114 $115 forward $44 $-1 #
face $-1 $116 $117 $26 $-1 $118 reversed single #
loop $-1 $-1 $119 $46 #
plane-surface $-1 4.6546090005703036 -10.472814122326156 71.243754255749081 0 0.77714596973225614 0.62932038083071107 1 0 0 forward_v I I I I #
coedge $-1 $120 $121 $122 $123 reversed $47 $-1 #
face $-1 $-1 $124 $27 $-1 $125 forward single #
loop $-1 $126 $127 $49 #
cone-surface $-1 -3.3281632604264644 34.891877534933791 9.0078372052663944 0 -0.77714596973225614 -0.62932038083071107 1 0 0 1 I I -0.70710678118654746 0.70710678118654746 1 forward I I I I #
loop $-1 $-1 $128 $35 #
coedge $-1 $80 $80 $129 $130 reversed $50 $-1 #
face $-1 $-1 $131 $28 $-1 $132 forward single #
loop $-1 $133 $134 $52 #
cone-surface $-1 4.6546090005703036 34.891877534933791 9.0078372052663944 0 -0.77714596973225614 -0.62932038083071107 1 0 0 1 I I -0.70710678118654746 0.70710678118654746 1 forward I I I I #
loop $-1 $-1 $135 $36 #
coedge $-1 $85 $85 $136 $137 reversed $53 $-1 #
face $-1 $-1 $138 $29 $-1 $139 forward single #
loop $-1 $140 $141 $55 #
cone-surface $-1 12.637381261567072 34.891877534933791 9.0078372052663944 0 -0.77714596973225614 -0.62932038083071107 1 0 0 1 I I -0.70710678118654746 0.70710678118654746 1 forward I I I I #
loop $-1 $-1 $142 $37 #
coedge $-1 $90 $90 $143 $144 reversed $56 $-1 #
face $-1 $145 $146 $30 $-1 $147 reversed single #
loop $-1 $-1 $148 $58 #
plane-surface $-1 45.352771971081637 -40.491738637994658 3.6166580444021292 0 -0.64278761758704617 0.76604443648966558 1 0 0 forward_v I I I I #
coedge $-1 $149 $150 $151 $152 reversed $59 $-1 #
face $-1 $-1 $153 $31 $-1 $154 forward single #
loop $-1 $155 $156 $61 #
cone-surface $-1 45.352771971081637 -30.103879292824633 4.5656209966597281 0 0.64278761758704617 -0.76604443648966558 1.5 0 0 1 I I -0.70710678118654757 0.70710678118654757 1.5 forward I I I I #
loop $-1 $-1 $157 $39 #
coedge $-1 $99 $99 $158 $159 reversed $62 $-1 #
face $-1 $160 $161 $24 $-1 $162 reversed single #
loop $-1 $-1 $163 $64 #
plane-surface $-1 0 -40.491738637994636 0 0 1 0 0 0 1 forward_v I I I I #
coedge $-1 $164 $165 $166 $167 forward $65 $-1 #
coedge $-1 $168 $67 $169 $170 forward $41 $-1 #
coedge $-1 $67 $168 $171 $172 forward $41 $-1 #
coedge $-1 $173 $174 $67 $107 reversed $175 $-1 #
edge $-1 $176 -40.491738637994636 $177 40.491738637994636 $106 $178 forward 7 unknown #
face $-1 $179 $180 $25 $-1 $181 reversed single #
loop $-1 $-1 $182 $68 #
plane-surface $-1 -64.451471291775675 0 9.6333177590433046 -1 0 0 0 0 1 forward_v I I I I #
coedge $-1 $183 $184 $185 $186 forward $69 $-1 #
coedge $-1 $187 $71 $188 $189 reversed $44 $-1 #
coedge $-1 $71 $187 $190 $191 reversed $44 $-1 #
coedge $-1 $182 $192 $71 $115 reversed $109 $-1 #
edge $-1 $193 -40.491738637994636 $194 40.491738637994636 $114 $195 forward 7 unknown #
face $-1 $196 $197 $26 $-1 $198 forward single #
loop $-1 $-1 $199 $72 #
plane-surface $-1 17.959229435564922 104.87502959344408 164.65059384885535 -1 0 0 0 0.77714596973225614 0.62932038083071107 forward_v I I I I #
coedge $-1 $200 $201 $202 $203 reversed $73 $-1 #
coedge $-1 $121 $75 $204 $205 reversed $47 $-1 #
coedge $-1 $75 $120 $200 $206 reversed $47 $-1 #
coedge $-1 $202 $207 $75 $123 forward $197 $-1 #
edge $-1 $208 11.945776158727405 $209 17.066128332878172 $122 $210 forward 7 unknown #
loop $-1 $-1 $129 $76 #
plane-surface $-1 4.6546090005703036 -10.472814122326156 71.243754255749081 0 0.77714596973225614 0.62932038083071107 1 0 0 forward_v I I I I #
loop $-1 $-1 $211 $49 #
coedge $-1 $127 $127 $128 $212 reversed $77 $-1 #
coedge $-1 $128 $128 $127 $212 forward $79 $-1 #
coedge $-1 $129 $129 $80 $130 forward $124 $-1 #
edge $-1 $213 5.2518199176725898e-016 $213 6.2831853071796013 $129 $214 forward 7 unknown #
loop $-1 $-1 $136 $81 #
plane-surface $-1 4.6546090005703036 -10.472814122326156 71.243754255749081 0 0.77714596973225614 0.62932038083071107 1 0 0 forward_v I I I I #
loop $-1 $-1 $215 $52 #
coedge $-1 $134 $134 $135 $216 reversed $82 $-1 #
coedge $-1 $135 $135 $134 $216 forward $84 $-1 #
coedge $-1 $136 $136 $85 $137 forward $131 $-1 #
edge $-1 $217 5.2518199176725898e-016 $217 6.2831853071796013 $136 $218 forward 7 unknown #
loop $-1 $-1 $143 $86 #
plane-surface $-1 4.6546090005703036 -10.472814122326156 71.243754255749081 0 0.77714596973225614 0.62932038083071107 1 0 0 forward_v I I I I #
loop $-1 $-1 $219 $55 #
coedge $-1 $141 $141 $142 $220 reversed $87 $-1 #
coedge $-1 $142 $142 $141 $220 forward $89 $-1 #
coedge $-1 $143 $143 $90 $144 forward $138 $-1 #
edge $-1 $221 5.2518199176725898e-016 $221 6.2831853071796013 $143 $222 forward 7 unknown #
face $-1 $223 $224 $30 $-1 $225 reversed single #
loop $-1 $-1 $226 $91 #
plane-surface $-1 31.462468090674953 -135.89745203493499 117.3167573577753 1 0 0 0 0.64278761758704617 -0.76604443648966558 forward_v I I I I #
coedge $-1 $227 $228 $229 $230 reversed $92 $-1 #
coedge $-1 $150 $94 $231 $232 reversed $59 $-1 #
coedge $-1 $94 $149 $227 $233 reversed $59 $-1 #
coedge $-1 $229 $234 $94 $152 forward $235 $-1 #
edge $-1 $236 27.456987379472857 $237 40.583225434882969 $151 $238 forward 7 unknown #
loop $-1 $-1 $158 $95 #
plane-surface $-1 45.352771971081637 -40.491738637994658 3.6166580444021292 0 -0.64278761758704617 0.76604443648966558 1 0 0 forward_v I I I I #
loop $-1 $-1 $239 $61 #
coedge $-1 $156 $156 $157 $240 reversed $96 $-1 #
coedge $-1 $157 $157 $156 $240 forward $98 $-1 #
coedge $-1 $158 $158 $99 $159 forward $153 $-1 #
edge $-1 $241 -3.5470374365466512e-016 $241 6.2831853071796004 $158 $242 forward 7 unknown #
face $-1 $243 $244 $24 $-1 $245 reversed single #
loop $-1 $-1 $246 $100 #
plane-surface $-1 -74.212469862971886 0 0 1 0 0 0 0 -1 forward_v I I I I #
coedge $-1 $247 $171 $248 $249 forward $101 $-1 #
coedge $-1 $250 $103 $247 $251 forward $65 $-1 #
coedge $-1 $103 $250 $252 $253 forward $65 $-1 #
coedge $-1 $174 $173 $103 $167 reversed $175 $-1 #
edge $-1 $254 -40.491738637994636 $255 40.491738637994636 $166 $256 forward 7 unknown #
coedge $-1 $105 $104 $257 $258 forward $41 $-1 #
coedge $-1 $259 $260 $104 $170 reversed $244 $-1 #
edge $-1 $177 -74.212469862971886 $261 74.212469862971886 $169 $262 forward 7 unknown #
coedge $-1 $163 $263 $105 $172 reversed $101 $-1 #
edge $-1 $264 -74.212469862971886 $176 74.212469862971886 $171 $265 forward 7 unknown #
coedge $-1 $166 $106 $263 $266 forward $175 $-1 #
coedge $-1 $106 $166 $259 $267 reversed $175 $-1 #
loop $-1 $-1 $173 $243 #
vertex $-1 $107 $268 #
vertex $-1 $107 $269 #
straight-curve $-1 74.212469862971886 0 14.630879786134376 0 1 0 I I #
face $-1 $270 $271 $25 $-1 $272 reversed single #
loop $-1 $-1 $273 $108 #
plane-surface $-1 0 -40.491738637994636 0 0 1 0 0 0 1 forward_v I I I I #
coedge $-1 $185 $114 $274 $275 reversed $109 $-1 #
coedge $-1 $276 $111 $273 $277 reversed $69 $-1 #
coedge $-1 $111 $276 $278 $279 reversed $69 $-1 #
coedge $-1 $192 $182 $111 $186 reversed $109 $-1 #
edge $-1 $280 -40.491738637994636 $281 40.491738637994636 $185 $282 forward 7 unknown #
coedge $-1 $113 $112 $283 $284 reversed $44 $-1 #
coedge $-1 $285 $286 $112 $189 forward $287 $-1 #
edge $-1 $288 -39.546484574284996 $194 -29.785486003088785 $188 $289 forward 7 unknown #
coedge $-1 $290 $274 $113 $191 forward $180 $-1 #
edge $-1 $193 29.785486003088785 $291 39.546484574284996 $190 $292 forward 7 unknown #
coedge $-1 $114 $185 $285 $293 reversed $109 $-1 #
vertex $-1 $191 $294 #
vertex $-1 $189 $295 #
straight-curve $-1 -64.451471291775675 0 12.971044419687644 0 1 0 I I #
face $-1 $-1 $296 $26 $-1 $297 reversed single #
loop $-1 $-1 $122 $116 #
plane-surface $-1 0 0 14.630879786134376 0 0 1 1 0 0 forward_v I I I I #
coedge $-1 $298 $299 $300 $301 reversed $117 $-1 #
coedge $-1 $302 $119 $121 $206 forward $73 $-1 #
coedge $-1 $119 $302 $298 $303 forward $73 $-1 #
coedge $-1 $300 $122 $119 $203 forward $197 $-1 #
edge $-1 $209 -10.977315934709466 $304 15.63192493527977 $202 $305 forward 7 unknown #
coedge $-1 $306 $307 $120 $205 forward $296 $-1 #
edge $-1 $308 -74.017525648617394 $208 -67.694417138293304 $204 $309 forward 7 unknown #
edge $-1 $209 72.847157000787234 $308 80.983477275989259 $121 $310 forward 7 unknown #
coedge $-1 $122 $300 $306 $311 forward $197 $-1 #
vertex $-1 $205 $312 #
vertex $-1 $123 $313 #
straight-curve $-1 -8.6500114344243144 52.437514796722041 14.630879786134372 0 -1 0 I I #
coedge $-1 $211 $211 $-1 $314 reversed $126 $-1 #
edge $-1 $315 0 $315 6.2831853071796004 $127 $316 forward 7 unknown #
vertex $-1 $130 $317 #
ellipse-curve $-1 -3.3281632604264644 37.931562550919246 11.469325530972338 0 0.77714596973225614 0.62932038083071107 2 0 0 1 I I #
coedge $-1 $215 $215 $-1 $318 reversed $133 $-1 #
edge $-1 $319 0 $319 6.2831853071796004 $134 $320 forward 7 unknown #
vertex $-1 $137 $321 #
ellipse-curve $-1 4.6546090005703036 37.931562550919246 11.469325530972338 0 0.77714596973225614 0.62932038083071107 2 0 0 1 I I #
coedge $-1 $219 $219 $-1 $322 reversed $140 $-1 #
edge $-1 $323 0 $323 6.2831853071796004 $141 $324 forward 7 unknown #
vertex $-1 $144 $325 #
ellipse-curve $-1 12.637381261567072 37.931562550919246 11.469325530972338 0 0.77714596973225614 0.62932038083071107 2 0 0 1 I I #
face $-1 $-1 $235 $30 $-1 $326 forward single #
loop $-1 $-1 $327 $145 #
plane-surface $-1 0 -40.491738637994636 0 0 1 0 0 0 1 forward_v I I I I #
coedge $-1 $328 $329 $330 $331 reversed $146 $-1 #
coedge $-1 $332 $148 $150 $233 forward $92 $-1 #
coedge $-1 $148 $332 $328 $333 forward $92 $-1 #
coedge $-1 $330 $151 $148 $230 forward $235 $-1 #
edge $-1 $237 -36.566689865947502 $334 -8.7860821051341347 $229 $335 forward 7 unknown #
coedge $-1 $336 $337 $149 $232 forward $224 $-1 #
edge $-1 $338 -55.0417206344855 $236 -44.027498892753272 $231 $339 forward 7 unknown #
edge $-1 $237 -17.135086987329377 $338 -2.7747421096340558e-014 $150 $340 forward 7 unknown #
coedge $-1 $151 $330 $336 $341 forward $235 $-1 #
loop $-1 $-1 $330 $223 #
vertex $-1 $232 $342 #
vertex $-1 $152 $343 #
straight-curve $-1 59.243075851488321 -67.948726017467493 14.630879786134372 0 1 0 I I #
coedge $-1 $239 $239 $-1 $344 reversed $155 $-1 #
edge $-1 $345 0 $345 6.2831853071796004 $156 $346 forward 7 unknown #
vertex $-1 $159 $347 #
ellipse-curve $-1 45.352771971081637 -33.928619610289573 9.1237689152682648 0 -0.64278761758704617 0.76604443648966558 3 0 0 1 I I #
face $-1 $-1 $175 $24 $-1 $348 reversed single #
loop $-1 $-1 $259 $160 #
plane-surface $-1 0 40.491738637994636 0 0 -1 0 0 0 -1 forward_v I I I I #
coedge $-1 $349 $257 $260 $350 forward $161 $-1 #
coedge $-1 $263 $163 $164 $251 reversed $101 $-1 #
coedge $-1 $257 $349 $163 $249 reversed $161 $-1 #
edge $-1 $264 -14.630879786134376 $351 14.630879786134376 $248 $352 forward 7 unknown #
coedge $-1 $165 $164 $349 $353 forward $65 $-1 #
edge $-1 $255 -74.212469862971886 $351 74.212469862971886 $247 $354 forward 7 unknown #
coedge $-1 $260 $259 $165 $253 reversed $244 $-1 #
edge $-1 $355 -74.212469862971886 $254 74.212469862971886 $252 $356 forward 7 unknown #
vertex $-1 $167 $357 #
vertex $-1 $266 $358 #
straight-curve $-1 74.212469862971886 0 -14.630879786134376 0 -1 0 I I #
coedge $-1 $246 $248 $168 $258 reversed $161 $-1 #
edge $-1 $261 -40.491738637994636 $264 40.491738637994636 $257 $359 forward 7 unknown #
coedge $-1 $252 $169 $174 $267 forward $244 $-1 #
coedge $-1 $169 $252 $246 $350 reversed $244 $-1 #
vertex $-1 $170 $360 #
straight-curve $-1 0 40.491738637994636 14.630879786134376 -1 0 0 I I #
coedge $-1 $171 $247 $173 $266 reversed $101 $-1 #
vertex $-1 $258 $361 #
straight-curve $-1 0 -40.491738637994636 14.630879786134376 1 0 0 I I #
edge $-1 $176 -14.630879786134376 $255 14.630879786134376 $173 $362 forward 7 unknown #
edge $-1 $177 -14.630879786134376 $254 14.630879786134376 $174 $363 forward 7 unknown #
point $-1 74.212469862971886 -40.491738637994636 14.630879786134376 #
point $-1 74.212469862971886 40.491738637994636 14.630879786134376 #
face $-1 $-1 $287 $25 $-1 $364 reversed single #
loop $-1 $-1 $365 $179 #
plane-surface $-1 -74.212469862971886 0 0 1 0 0 0 0 -1 forward_v I I I I #
coedge $-1 $274 $290 $183 $277 forward $180 $-1 #
coedge $-1 $190 $273 $182 $275 forward $180 $-1 #
edge $-1 $281 1.4789322188773131 $193 8.1543855401659915 $274 $366 forward 7 unknown #
coedge $-1 $184 $183 $365 $367 reversed $69 $-1 #
edge $-1 $368 -39.546484574284996 $281 -29.785486003088785 $273 $369 forward 7 unknown #
coedge $-1 $286 $285 $184 $279 forward $287 $-1 #
edge $-1 $280 29.785486003088785 $370 39.546484574284996 $278 $371 forward 7 unknown #
vertex $-1 $279 $372 #
vertex $-1 $277 $373 #
straight-curve $-1 -64.451471291775675 0 6.2955910983989654 0 -1 0 I I #
coedge $-1 $374 $375 $187 $284 forward $271 $-1 #
edge $-1 $291 -40.491738637994636 $288 40.491738637994636 $283 $376 forward 7 unknown #
coedge $-1 $278 $188 $192 $293 forward $287 $-1 #
coedge $-1 $188 $278 $374 $377 reversed $287 $-1 #
loop $-1 $-1 $278 $270 #
vertex $-1 $377 $378 #
straight-curve $-1 -34.66598528868689 40.491738637994636 12.971044419687644 1 0 0 I I #
coedge $-1 $273 $190 $375 $379 forward $180 $-1 #
vertex $-1 $379 $380 #
straight-curve $-1 -34.66598528868689 -40.491738637994636 12.971044419687644 -1 0 0 I I #
edge $-1 $194 -8.1543855401659915 $280 -1.4789322188773131 $285 $381 forward 7 unknown #
point $-1 -64.451471291775675 -40.491738637994636 12.971044419687644 #
point $-1 -64.451471291775675 40.491738637994636 12.971044419687644 #
loop $-1 $-1 $204 $196 #
plane-surface $-1 0 40.491738637994636 0 0 -1 0 0 0 -1 forward_v I I I I #
coedge $-1 $299 $199 $201 $303 reversed $117 $-1 #
coedge $-1 $199 $298 $382 $383 reversed $117 $-1 #
coedge $-1 $207 $202 $199 $301 forward $197 $-1 #
edge $-1 $304 -17.066128332878172 $384 -11.945776158727405 $300 $385 forward 7 unknown #
coedge $-1 $201 $200 $307 $386 reversed $73 $-1 #
edge $-1 $387 -80.983477275989259 $304 -72.847157000787234 $298 $388 forward 7 unknown #
vertex $-1 $203 $389 #
straight-curve $-1 2.3273045002851518 35.371386463843869 14.630879786134372 1 0 0 I I #
coedge $-1 $382 $204 $207 $311 reversed $296 $-1 #
coedge $-1 $204 $382 $302 $386 forward $296 $-1 #
vertex $-1 $205 $390 #
straight-curve $-1 -8.6500114344243144 40.491738637994636 82.325296924427676 0 0 1 I I #
straight-curve $-1 -8.6500114344243144 -10.472814122326156 71.243754255749081 0 0.62932038083071107 -0.77714596973225614 I I #
edge $-1 $384 -17.959229435564922 $208 8.6500114344243144 $306 $391 forward 7 unknown #
point $-1 -8.6500114344243144 40.491738637994636 14.630879786134376 #
point $-1 -8.6500114344243144 35.371386463843869 14.630879786134372 #
edge $-1 $392 1 $392 0 $211 $-1 forward 7 unknown #
vertex $-1 $212 $393 #
ellipse-curve $-1 -3.3281632604264644 35.669023504666043 9.6371575860971053 0 0.77714596973225614 0.62932038083071107 2 0 0 1 I I #
point $-1 -1.3281632604264644 37.931562550919239 11.469325530972331 #
edge $-1 $394 1 $394 0 $215 $-1 forward 7 unknown #
vertex $-1 $216 $395 #
ellipse-curve $-1 4.6546090005703036 35.669023504666043 9.6371575860971053 0 0.77714596973225614 0.62932038083071107 2 0 0 1 I I #
point $-1 6.6546090005703036 37.931562550919239 11.469325530972331 #
edge $-1 $396 1 $396 0 $219 $-1 forward 7 unknown #
vertex $-1 $220 $397 #
ellipse-curve $-1 12.637381261567072 35.669023504666043 9.6371575860971053 0 0.77714596973225614 0.62932038083071107 2 0 0 1 I I #
point $-1 14.637381261567072 37.931562550919239 11.469325530972331 #
plane-surface $-1 0 0 14.630879786134376 0 0 1 1 0 0 forward_v I I I I #
coedge $-1 $337 $336 $329 $398 forward $224 $-1 #
coedge $-1 $329 $226 $228 $333 reversed $146 $-1 #
coedge $-1 $226 $328 $327 $398 reversed $146 $-1 #
coedge $-1 $234 $229 $226 $331 forward $235 $-1 #
edge $-1 $334 -40.583225434882969 $399 -27.456987379472857 $330 $400 forward 7 unknown #
coedge $-1 $228 $227 $337 $401 reversed $92 $-1 #
edge $-1 $402 2.7747421096340558e-014 $334 17.135086987329377 $328 $403 forward 7 unknown #
vertex $-1 $230 $404 #
straight-curve $-1 22.676385985540819 -27.365500582584524 14.630879786134376 -1 0 0 I I #
coedge $-1 $327 $231 $234 $341 reversed $224 $-1 #
coedge $-1 $231 $327 $332 $401 forward $224 $-1 #
vertex $-1 $232 $405 #
straight-curve $-1 59.243075851488321 -40.491738637994636 58.658378678887651 0 0 1 I I #
straight-curve $-1 59.243075851488321 -40.491738637994658 3.6166580444021292 0 -0.76604443648966558 -0.64278761758704617 I I #
edge $-1 $399 31.462468090674953 $236 59.243075851488321 $336 $406 forward 7 unknown #
point $-1 59.243075851488321 -40.491738637994636 14.630879786134376 #
point $-1 59.243075851488321 -27.365500582584524 14.630879786134376 #
edge $-1 $407 1 $407 0 $239 $-1 forward 7 unknown #
vertex $-1 $240 $408 #
ellipse-curve $-1 45.352771971081637 -31.068060719205203 5.7146876513942262 0 -0.64278761758704617 0.76604443648966558 3 0 0 1 I I #
point $-1 48.352771971081637 -33.928619610289545 9.1237689152682293 #
plane-surface $-1 74.212469862971886 0 0 -1 0 0 0 0 1 forward_v I I I I #
coedge $-1 $248 $246 $250 $353 reversed $161 $-1 #
edge $-1 $261 -14.630879786134376 $355 14.630879786134376 $260 $409 forward 7 unknown #
vertex $-1 $353 $410 #
straight-curve $-1 -74.212469862971886 -40.491738637994636 0 0 0 -1 I I #
edge $-1 $351 -40.491738637994636 $355 40.491738637994636 $349 $411 forward 7 unknown #
straight-curve $-1 0 -40.491738637994636 -14.630879786134376 -1 0 0 I I #
vertex $-1 $253 $412 #
straight-curve $-1 0 40.491738637994636 -14.630879786134376 1 0 0 I I #
point $-1 74.212469862971886 40.491738637994636 -14.630879786134376 #
point $-1 74.212469862971886 -40.491738637994636 -14.630879786134376 #
straight-curve $-1 -74.212469862971886 0 14.630879786134376 0 -1 0 I I #
point $-1 -74.212469862971886 40.491738637994636 14.630879786134376 #
point $-1 -74.212469862971886 -40.491738637994636 14.630879786134376 #
straight-curve $-1 74.212469862971886 -40.491738637994636 0 0 0 -1 I I #
straight-curve $-1 74.212469862971886 40.491738637994636 0 0 0 -1 I I #
plane-surface $-1 0 40.491738637994636 0 0 -1 0 0 0 -1 forward_v I I I I #
coedge $-1 $375 $374 $276 $367 forward $271 $-1 #
straight-curve $-1 -64.451471291775675 -40.491738637994636 4.8166588795216523 0 0 1 I I #
edge $-1 $370 -40.491738637994636 $368 40.491738637994636 $365 $413 forward 7 unknown #
vertex $-1 $277 $414 #
straight-curve $-1 -34.66598528868689 -40.491738637994636 6.2955910983989654 1 0 0 I I #
vertex $-1 $279 $415 #
straight-curve $-1 -34.66598528868689 40.491738637994636 6.2955910983989654 -1 0 0 I I #
point $-1 -64.451471291775675 40.491738637994636 6.2955910983989654 #
point $-1 -64.451471291775675 -40.491738637994636 6.2955910983989654 #
coedge $-1 $365 $283 $286 $377 forward $271 $-1 #
coedge $-1 $283 $365 $290 $379 reversed $271 $-1 #
straight-curve $-1 -74.212469862971886 0 12.971044419687644 0 1 0 I I #
edge $-1 $288 -12.971044419687644 $370 -6.2955910983989654 $286 $416 forward 7 unknown #
point $-1 -74.212469862971886 40.491738637994636 12.971044419687644 #
edge $-1 $291 -12.971044419687644 $368 -6.2955910983989654 $375 $417 forward 7 unknown #
point $-1 -74.212469862971886 -40.491738637994636 12.971044419687644 #
straight-curve $-1 -64.451471291775675 40.491738637994636 4.8166588795216523 0 0 -1 I I #
coedge $-1 $307 $306 $299 $383 forward $296 $-1 #
edge $-1 $384 67.694417138293304 $387 74.017525648617394 $382 $418 forward 7 unknown #
vertex $-1 $311 $419 #
straight-curve $-1 17.959229435564922 52.437514796722041 14.630879786134372 0 1 0 I I #
edge $-1 $387 -15.63192493527977 $308 10.977315934709466 $307 $420 forward 7 unknown #
vertex $-1 $386 $421 #
straight-curve $-1 17.959229435564922 -10.472814122326156 71.243754255749081 0 -0.62932038083071107 0.77714596973225614 I I #
point $-1 17.959229435564922 35.371386463843869 14.630879786134372 #
point $-1 -8.6500114344243144 40.491738637994644 8.307771275810282 #
straight-curve $-1 0 40.491738637994636 14.630879786134376 -1 0 0 I I #
vertex $-1 $314 $422 #
point $-1 -1.3281632604264644 35.669023504666043 9.6371575860971053 #
vertex $-1 $318 $423 #
point $-1 6.6546090005703036 35.669023504666043 9.6371575860971053 #
vertex $-1 $322 $424 #
point $-1 14.637381261567072 35.669023504666043 9.6371575860971053 #
edge $-1 $399 44.027498892753272 $402 55.0417206344855 $327 $425 forward 7 unknown #
vertex $-1 $341 $426 #
straight-curve $-1 31.462468090674953 -67.948726017467493 14.630879786134372 0 -1 0 I I #
edge $-1 $402 8.7860821051341347 $338 36.566689865947502 $337 $427 forward 7 unknown #
vertex $-1 $401 $428 #
straight-curve $-1 31.462468090674953 -40.491738637994658 3.6166580444021292 0 0.76604443648966558 0.64278761758704617 I I #
point $-1 31.462468090674953 -27.365500582584524 14.630879786134376 #
point $-1 59.243075851488321 -40.491738637994636 3.616658044402147 #
straight-curve $-1 0 -40.491738637994636 14.630879786134376 1 0 0 I I #
vertex $-1 $344 $429 #
point $-1 48.352771971081637 -31.068060719205203 5.7146876513942262 #
straight-curve $-1 -74.212469862971886 40.491738637994636 0 0 0 -1 I I #
point $-1 -74.212469862971886 -40.491738637994636 -14.630879786134376 #
straight-curve $-1 -74.212469862971886 0 -14.630879786134376 0 1 0 I I #
point $-1 -74.212469862971886 40.491738637994636 -14.630879786134376 #
straight-curve $-1 -74.212469862971886 0 6.2955910983989654 0 -1 0 I I #
point $-1 -74.212469862971886 -40.491738637994636 6.2955910983989654 #
point $-1 -74.212469862971886 40.491738637994636 6.2955910983989654 #
straight-curve $-1 -74.212469862971886 40.491738637994636 0 0 0 -1 I I #
straight-curve $-1 -74.212469862971886 -40.491738637994636 0 0 0 -1 I I #
straight-curve $-1 17.959229435564922 40.491738637994636 82.325296924427676 0 0 -1 I I #
point $-1 17.959229435564922 40.491738637994636 14.630879786134376 #
straight-curve $-1 2.3273045002851518 40.491738637994636 8.3077712758102926 -1 0 0 I I #
point $-1 17.959229435564922 40.491738637994644 8.307771275810282 #
point $-1 -3.3281632604264644 34.114731565201538 8.3785168244356836 #
point $-1 4.6546090005703036 34.114731565201538 8.3785168244356836 #
point $-1 12.637381261567072 34.114731565201538 8.3785168244356836 #
straight-curve $-1 31.462468090674953 -40.491738637994636 58.658378678887651 0 0 -1 I I #
point $-1 31.462468090674953 -40.491738637994636 14.630879786134376 #
straight-curve $-1 22.676385985540819 -40.491738637994636 3.6166580444021439 1 0 0 I I #
point $-1 31.462468090674953 -40.491738637994636 3.616658044402147 #
point $-1 45.352771971081637 -29.139697866444063 3.41655434192523 #
End-of-ACIS-data 