500 0 18 0           
7 Unknown 11 ACIS 5.0 NT 24 Fri Mar 26 18:41:50 1999 
-1 9.9999999999999995e-007 1e-010 
body $-1 $18 $-1 $19 #
body $-1 $20 $-1 $21 #
body $-1 $22 $-1 $23 #
body $-1 $24 $-1 $25 #
body $-1 $26 $-1 $27 #
body $-1 $28 $-1 $29 #
body $-1 $30 $-1 $31 #
body $-1 $32 $-1 $33 #
body $-1 $34 $-1 $35 #
body $-1 $36 $-1 $37 #
body $-1 $38 $-1 $39 #
body $-1 $40 $-1 $41 #
body $-1 $42 $-1 $43 #
body $-1 $44 $-1 $45 #
body $-1 $46 $-1 $47 #
body $-1 $48 $-1 $49 #
body $-1 $50 $-1 $51 #
body $-1 $52 $-1 $53 #
lump $-1 $-1 $54 $0 #
transform $-1 1 0 0 0 1 0 0 0 1 60.477919858394117 39.141859011473429 16.246732439873856 1 rotate no_reflect no_shear #
lump $-1 $-1 $55 $1 #
transform $-1 1 0 0 0 1 0 0 0 1 60.477919858394117 39.141859011473429 16.246732439873856 1 rotate no_reflect no_shear #
lump $-1 $-1 $56 $2 #
transform $-1 1 0 0 0 1 0 0 0 1 60.477919858394117 39.141859011473429 16.246732439873856 1 rotate no_reflect no_shear #
lump $-1 $-1 $57 $3 #
transform $-1 1 0 0 0 1 0 0 0 1 60.477919858394117 39.141859011473429 16.246732439873856 1 rotate no_reflect no_shear #
lump $-1 $-1 $58 $4 #
transform $-1 1 0 0 0 1 0 0 0 1 60.477919858394117 39.141859011473429 16.246732439873856 1 rotate no_reflect no_shear #
lump $-1 $-1 $59 $5 #
transform $-1 1 0 0 0 1 0 0 0 1 60.477919858394117 39.141859011473429 16.246732439873856 1 rotate no_reflect no_shear #
lump $-1 $-1 $60 $6 #
transform $-1 1 0 0 0 1 0 0 0 1 60.477919858394117 39.141859011473429 16.246732439873856 1 rotate no_reflect no_shear #
lump $-1 $-1 $61 $7 #
transform $-1 1 0 0 0 1 0 0 0 1 60.477919858394117 39.141859011473429 16.246732439873856 1 rotate no_reflect no_shear #
lump $-1 $-1 $62 $8 #
transform $-1 1 0 0 0 1 0 0 0 1 60.477919858394117 39.141859011473429 16.246732439873856 1 rotate no_reflect no_shear #
lump $-1 $-1 $63 $9 #
transform $-1 1 0 0 0 1 0 0 0 1 60.477919858394117 39.141859011473429 16.246732439873856 1 rotate no_reflect no_shear #
lump $-1 $-1 $64 $10 #
transform $-1 1 0 0 0 1 0 0 0 1 60.477919858394117 39.141859011473429 16.246732439873856 1 rotate no_reflect no_shear #
lump $-1 $-1 $65 $11 #
transform $-1 1 0 0 0 1 0 0 0 1 60.477919858394117 39.141859011473429 16.246732439873856 1 rotate no_reflect no_shear #
lump $-1 $-1 $66 $12 #
transform $-1 1 0 0 0 1 0 0 0 1 60.477919858394117 39.141859011473429 16.246732439873856 1 rotate no_reflect no_shear #
lump $-1 $-1 $67 $13 #
transform $-1 1 0 0 0 1 0 0 0 1 60.477919858394117 39.141859011473429 16.246732439873856 1 rotate no_reflect no_shear #
lump $-1 $-1 $68 $14 #
transform $-1 1 0 0 0 1 0 0 0 1 60.477919858394117 39.141859011473429 16.246732439873856 1 rotate no_reflect no_shear #
lump $-1 $-1 $69 $15 #
transform $-1 1 0 0 0 1 0 0 0 1 60.477919858394117 39.141859011473429 16.246732439873856 1 rotate no_reflect no_shear #
lump $-1 $-1 $70 $16 #
transform $-1 1 0 0 0 1 0 0 0 1 60.477919858394117 39.141859011473429 16.246732439873856 1 rotate no_reflect no_shear #
lump $-1 $-1 $71 $17 #
transform $-1 1 0 0 0 1 0 0 0 1 60.477919858394117 39.141859011473429 16.246732439873856 1 rotate no_reflect no_shear #
shell $-1 $-1 $-1 $72 $-1 $18 #
shell $-1 $-1 $-1 $73 $-1 $20 #
shell $-1 $-1 $-1 $74 $-1 $22 #
shell $-1 $-1 $-1 $75 $-1 $24 #
shell $-1 $-1 $-1 $76 $-1 $26 #
shell $-1 $-1 $-1 $77 $-1 $28 #
shell $-1 $-1 $-1 $78 $-1 $30 #
shell $-1 $-1 $-1 $79 $-1 $32 #
shell $-1 $-1 $-1 $80 $-1 $34 #
shell $-1 $-1 $-1 $81 $-1 $36 #
shell $-1 $-1 $-1 $82 $-1 $38 #
shell $-1 $-1 $-1 $83 $-1 $40 #
shell $-1 $-1 $-1 $84 $-1 $42 #
shell $-1 $-1 $-1 $85 $-1 $44 #
shell $-1 $-1 $-1 $86 $-1 $46 #
shell $-1 $-1 $-1 $87 $-1 $48 #
shell $-1 $-1 $-1 $88 $-1 $50 #
shell $-1 $-1 $-1 $89 $-1 $52 #
face $-1 $90 $91 $54 $-1 $92 forward single #
face $-1 $93 $94 $55 $-1 $95 forward single #
face $-1 $96 $97 $56 $-1 $98 forward single #
face $-1 $99 $100 $57 $-1 $101 reversed single #
face $-1 $102 $103 $58 $-1 $104 forward single #
face $-1 $105 $106 $59 $-1 $107 forward single #
face $-1 $108 $109 $60 $-1 $110 reversed single #
face $-1 $111 $112 $61 $-1 $113 forward single #
face $-1 $114 $115 $62 $-1 $116 forward single #
face $-1 $117 $118 $63 $-1 $119 reversed single #
face $-1 $120 $121 $64 $-1 $122 forward single #
face $-1 $123 $124 $65 $-1 $125 forward single #
face $-1 $126 $127 $66 $-1 $128 reversed single #
face $-1 $129 $130 $67 $-1 $131 forward single #
face $-1 $132 $133 $68 $-1 $134 forward single #
face $-1 $135 $136 $69 $-1 $137 reversed single #
face $-1 $138 $139 $70 $-1 $140 forward single #
face $-1 $141 $142 $71 $-1 $143 forward single #
face $-1 $144 $145 $54 $-1 $146 reversed single #
loop $-1 $-1 $147 $72 #
plane-surface $-1 0 0 16.246732439873856 0 0 1 1 0 0 forward_v I I I I #
face $-1 $148 $149 $55 $-1 $150 reversed single #
loop $-1 $-1 $151 $73 #
plane-surface $-1 0 -39.141859011473429 0 0 1 0 0 0 1 forward_v I I I I #
face $-1 $152 $153 $56 $-1 $154 reversed single #
loop $-1 $-1 $155 $74 #
plane-surface $-1 0 39.141859011473429 0 0 -1 0 0 0 -1 forward_v I I I I #
face $-1 $156 $157 $57 $-1 $158 reversed single #
loop $-1 $-1 $159 $75 #
plane-surface $-1 60.477921843096297 -14.5040309618403 178.11029263323067 0 -1 0 -0.70710678939079041 0 -0.70710677298230451 forward_v I I I I #
face $-1 $160 $161 $58 $-1 $162 forward single #
loop $-1 $163 $164 $76 #
cone-surface $-1 55.268369952053938 -20.22018788835706 11.037182441078084 -0.70710678939079041 0 -0.70710677298230451 0.35355338649115226 0 -0.35355339469539521 1 I I 0 1 0.5 forward I I I I #
face $-1 $165 $166 $59 $-1 $167 forward single #
loop $-1 $168 $169 $77 #
cone-surface $-1 55.268369952053938 -16.790493732447004 11.037182441078084 -0.70710678939079041 0 -0.70710677298230451 0.35355338649115226 0 -0.35355339469539521 1 I I 0 1 0.5 forward I I I I #
face $-1 $170 $171 $60 $-1 $172 reversed single #
loop $-1 $-1 $173 $78 #
plane-surface $-1 60.477921843096297 -2.1671370882389454 178.11029263323067 0 -1 0 -0.70710678939079041 0 -0.70710677298230451 forward_v I I I I #
face $-1 $174 $175 $61 $-1 $176 forward single #
loop $-1 $177 $178 $79 #
cone-surface $-1 55.268369952053938 -7.8832940147557053 11.037182441078084 -0.70710678939079041 0 -0.70710677298230451 0.35355338649115226 0 -0.35355339469539521 1 I I 0 1 0.5 forward I I I I #
face $-1 $179 $180 $62 $-1 $181 forward single #
loop $-1 $182 $183 $80 #
cone-surface $-1 55.268369952053938 -4.4535998588456494 11.037182441078084 -0.70710678939079041 0 -0.70710677298230451 0.35355338649115226 0 -0.35355339469539521 1 I I 0 1 0.5 forward I I I I #
face $-1 $184 $185 $63 $-1 $186 reversed single #
loop $-1 $-1 $187 $81 #
plane-surface $-1 60.477921843096297 10.169756785362409 178.11029263323067 0 -1 0 -0.70710678939079041 0 -0.70710677298230451 forward_v I I I I #
face $-1 $188 $189 $64 $-1 $190 forward single #
loop $-1 $191 $192 $82 #
cone-surface $-1 55.268369952053938 4.4535998588456494 11.037182441078084 -0.70710678939079041 0 -0.70710677298230451 0.35355338649115226 0 -0.35355339469539521 1 I I 0 1 0.5 forward I I I I #
face $-1 $193 $194 $65 $-1 $195 forward single #
loop $-1 $196 $197 $83 #
cone-surface $-1 55.268369952053938 7.8832940147557053 11.037182441078084 -0.70710678939079041 0 -0.70710677298230451 0.35355338649115226 0 -0.35355339469539521 1 I I 0 1 0.5 forward I I I I #
face $-1 $198 $199 $66 $-1 $200 reversed single #
loop $-1 $-1 $201 $84 #
plane-surface $-1 60.477921843096297 22.506650658963764 178.11029263323067 0 -1 0 -0.70710678939079041 0 -0.70710677298230451 forward_v I I I I #
face $-1 $202 $203 $67 $-1 $204 forward single #
loop $-1 $205 $206 $85 #
cone-surface $-1 55.268369952053938 16.790493732447004 11.037182441078084 -0.70710678939079041 0 -0.70710677298230451 0.35355338649115226 0 -0.35355339469539521 1 I I 0 1 0.5 forward I I I I #
face $-1 $207 $208 $68 $-1 $209 forward single #
loop $-1 $210 $211 $86 #
cone-surface $-1 55.268369952053938 20.22018788835706 11.037182441078084 -0.70710678939079041 0 -0.70710677298230451 0.35355338649115226 0 -0.35355339469539521 1 I I 0 1 0.5 forward I I I I #
face $-1 $212 $213 $69 $-1 $214 reversed single #
loop $-1 $-1 $215 $87 #
plane-surface $-1 -155.79242326517402 -24.819318420655442 86.525622264009712 0 1 0 -0.78801076186113728 0 0.61566146476048833 forward_v I I I I #
face $-1 $216 $217 $70 $-1 $218 forward single #
loop $-1 $219 $220 $88 #
cone-surface $-1 -57.757552184962321 -22.434002876196828 13.305354073973751 0.78801076186113728 0 -0.61566146476048833 0.61566146476048833 0 0.78801076186113728 1 I I 0 1 1 forward I I I I #
face $-1 $221 $222 $71 $-1 $223 forward single #
loop $-1 $224 $225 $89 #
cone-surface $-1 -57.757552184962321 -18.856029559508908 13.305354073973751 0.78801076186113728 0 -0.61566146476048833 0.61566146476048833 0 0.78801076186113728 1 I I 0 1 1 forward I I I I #
face $-1 $226 $227 $54 $-1 $228 reversed single #
loop $-1 $-1 $229 $90 #
plane-surface $-1 0 0 -16.246732439873856 0 0 1 1 0 0 forward_v I I I I #
coedge $-1 $230 $231 $232 $233 forward $91 $-1 #
face $-1 $234 $235 $55 $-1 $236 forward single #
loop $-1 $-1 $237 $93 #
plane-surface $-1 -60.477919858394117 0 0 1 0 0 0 0 -1 forward_v I I I I #
coedge $-1 $238 $239 $240 $241 forward $94 $-1 #
face $-1 $242 $243 $56 $-1 $244 forward single #
loop $-1 $-1 $245 $96 #
plane-surface $-1 60.477919858394117 0 0 -1 0 0 0 0 1 forward_v I I I I #
coedge $-1 $246 $247 $248 $249 forward $97 $-1 #
face $-1 $250 $251 $57 $-1 $252 reversed single #
loop $-1 $-1 $253 $99 #
plane-surface $-1 -25.05077363710889 -18.505340810402032 92.581599137727679 0.70710678939079041 0 0.70710677298230451 0.70710677298230451 0 -0.70710678939079041 forward_v I I I I #
coedge $-1 $254 $255 $256 $257 reversed $100 $-1 #
face $-1 $-1 $258 $58 $-1 $259 forward single #
loop $-1 $260 $261 $102 #
cone-surface $-1 54.478957632869864 -20.22018788835706 10.247770140212406 -0.70710678939079041 0 -0.70710677298230451 0.17677669324557613 0 -0.1767766973476976 1 I I -0.70710678118654746 0.70710678118654746 0.25 forward I I I I #
loop $-1 $-1 $262 $76 #
coedge $-1 $164 $164 $263 $264 reversed $103 $-1 #
face $-1 $-1 $265 $59 $-1 $266 forward single #
loop $-1 $267 $268 $105 #
cone-surface $-1 54.478957632869864 -16.790493732447004 10.247770140212406 -0.70710678939079041 0 -0.70710677298230451 0.17677669324557613 0 -0.1767766973476976 1 I I -0.70710678118654746 0.70710678118654746 0.25 forward I I I I #
loop $-1 $-1 $269 $77 #
coedge $-1 $169 $169 $270 $271 reversed $106 $-1 #
face $-1 $272 $273 $60 $-1 $274 reversed single #
loop $-1 $-1 $275 $108 #
plane-surface $-1 -25.05077363710889 -6.1684469368006773 92.581599137727679 0.70710678939079041 0 0.70710677298230451 0.70710677298230451 0 -0.70710678939079041 forward_v I I I I #
coedge $-1 $276 $277 $278 $279 reversed $109 $-1 #
face $-1 $-1 $280 $61 $-1 $281 forward single #
loop $-1 $282 $283 $111 #
cone-surface $-1 54.478957632869864 -7.8832940147557053 10.247770140212406 -0.70710678939079041 0 -0.70710677298230451 0.17677669324557613 0 -0.1767766973476976 1 I I -0.70710678118654746 0.70710678118654746 0.25 forward I I I I #
loop $-1 $-1 $284 $79 #
coedge $-1 $178 $178 $285 $286 reversed $112 $-1 #
face $-1 $-1 $287 $62 $-1 $288 forward single #
loop $-1 $289 $290 $114 #
cone-surface $-1 54.478957632869864 -4.4535998588456494 10.247770140212406 -0.70710678939079041 0 -0.70710677298230451 0.17677669324557613 0 -0.1767766973476976 1 I I -0.70710678118654746 0.70710678118654746 0.25 forward I I I I #
loop $-1 $-1 $291 $80 #
coedge $-1 $183 $183 $292 $293 reversed $115 $-1 #
face $-1 $294 $295 $63 $-1 $296 reversed single #
loop $-1 $-1 $297 $117 #
plane-surface $-1 -25.05077363710889 6.1684469368006773 92.581599137727679 0.70710678939079041 0 0.70710677298230451 0.70710677298230451 0 -0.70710678939079041 forward_v I I I I #
coedge $-1 $298 $299 $300 $301 reversed $118 $-1 #
face $-1 $-1 $302 $64 $-1 $303 forward single #
loop $-1 $304 $305 $120 #
cone-surface $-1 54.478957632869864 4.4535998588456494 10.247770140212406 -0.70710678939079041 0 -0.70710677298230451 0.17677669324557613 0 -0.1767766973476976 1 I I -0.70710678118654746 0.70710678118654746 0.25 forward I I I I #
loop $-1 $-1 $306 $82 #
coedge $-1 $192 $192 $307 $308 reversed $121 $-1 #
face $-1 $-1 $309 $65 $-1 $310 forward single #
loop $-1 $311 $312 $123 #
cone-surface $-1 54.478957632869864 7.8832940147557053 10.247770140212406 -0.70710678939079041 0 -0.70710677298230451 0.17677669324557613 0 -0.1767766973476976 1 I I -0.70710678118654746 0.70710678118654746 0.25 forward I I I I #
loop $-1 $-1 $313 $83 #
coedge $-1 $197 $197 $314 $315 reversed $124 $-1 #
face $-1 $316 $317 $66 $-1 $318 reversed single #
loop $-1 $-1 $319 $126 #
plane-surface $-1 -25.05077363710889 18.505340810402032 92.581599137727679 0.70710678939079041 0 0.70710677298230451 0.70710677298230451 0 -0.70710678939079041 forward_v I I I I #
coedge $-1 $320 $321 $322 $323 reversed $127 $-1 #
face $-1 $-1 $324 $67 $-1 $325 forward single #
loop $-1 $326 $327 $129 #
cone-surface $-1 54.478957632869864 16.790493732447004 10.247770140212406 -0.70710678939079041 0 -0.70710677298230451 0.17677669324557613 0 -0.1767766973476976 1 I I -0.70710678118654746 0.70710678118654746 0.25 forward I I I I #
loop $-1 $-1 $328 $85 #
coedge $-1 $206 $206 $329 $330 reversed $130 $-1 #
face $-1 $-1 $331 $68 $-1 $332 forward single #
loop $-1 $333 $334 $132 #
cone-surface $-1 54.478957632869864 20.22018788835706 10.247770140212406 -0.70710678939079041 0 -0.70710677298230451 0.17677669324557613 0 -0.1767766973476976 1 I I -0.70710678118654746 0.70710678118654746 0.25 forward I I I I #
loop $-1 $-1 $335 $86 #
coedge $-1 $211 $211 $336 $337 reversed $133 $-1 #
face $-1 $338 $339 $69 $-1 $340 reversed single #
loop $-1 $-1 $341 $135 #
plane-surface $-1 -60.477919858394131 -20.64501621785287 12.057772812637026 -0.78801076186113728 0 0.61566146476048833 0.61566146476048833 0 0.78801076186113728 forward_v I I I I #
coedge $-1 $342 $343 $344 $345 reversed $136 $-1 #
face $-1 $-1 $346 $70 $-1 $347 forward single #
loop $-1 $348 $349 $138 #
cone-surface $-1 -56.279566058765816 -22.434002876196828 12.150624789311813 0.78801076186113728 0 -0.61566146476048833 0.30783073238024417 0 0.39400538093056864 1 I I -0.70710678118654746 0.70710678118654746 0.5 forward I I I I #
loop $-1 $-1 $350 $88 #
coedge $-1 $220 $220 $351 $352 reversed $139 $-1 #
face $-1 $-1 $353 $71 $-1 $354 forward single #
loop $-1 $355 $356 $141 #
cone-surface $-1 -56.279566058765816 -18.856029559508908 12.150624789311813 0.78801076186113728 0 -0.61566146476048833 0.30783073238024417 0 0.39400538093056864 1 I I -0.70710678118654746 0.70710678118654746 0.5 forward I I I I #
loop $-1 $-1 $357 $89 #
coedge $-1 $225 $225 $358 $359 reversed $142 $-1 #
face $-1 $360 $361 $54 $-1 $362 reversed single #
loop $-1 $-1 $363 $144 #
plane-surface $-1 0 -39.141859011473429 0 0 1 0 0 0 1 forward_v I I I I #
coedge $-1 $364 $365 $366 $367 forward $145 $-1 #
coedge $-1 $368 $147 $369 $370 forward $91 $-1 #
coedge $-1 $147 $368 $371 $372 forward $91 $-1 #
coedge $-1 $373 $374 $147 $233 reversed $375 $-1 #
edge $-1 $376 -39.141859011473429 $377 39.141859011473429 $232 $378 forward 7 unknown #
face $-1 $379 $380 $55 $-1 $381 reversed single #
loop $-1 $-1 $382 $148 #
plane-surface $-1 0 -46.303129306882425 9.9976749871924575 0 0 1 1 0 0 forward_v I I I I #
coedge $-1 $383 $384 $239 $385 forward $149 $-1 #
coedge $-1 $386 $151 $387 $388 reversed $94 $-1 #
coedge $-1 $151 $386 $237 $385 reversed $94 $-1 #
coedge $-1 $389 $382 $151 $241 reversed $235 $-1 #
edge $-1 $390 -60.477919858394117 $391 60.477919858394117 $240 $392 forward 7 unknown #
face $-1 $393 $394 $56 $-1 $395 reversed single #
loop $-1 $-1 $396 $152 #
plane-surface $-1 0 46.303129306882425 9.9976749871924575 0 0 1 1 0 0 forward_v I I I I #
coedge $-1 $397 $398 $247 $399 forward $153 $-1 #
coedge $-1 $400 $155 $401 $402 reversed $97 $-1 #
coedge $-1 $155 $400 $245 $399 reversed $97 $-1 #
coedge $-1 $396 $403 $155 $249 reversed $243 $-1 #
edge $-1 $404 -60.477919858394117 $405 60.477919858394117 $248 $406 forward 7 unknown #
face $-1 $407 $408 $57 $-1 $409 forward single #
loop $-1 $-1 $410 $156 #
plane-surface $-1 60.477921843096297 -22.506650658963764 178.11029263323067 0 1 0 0.70710678939079041 0 0.70710677298230451 forward_v I I I I #
coedge $-1 $411 $412 $413 $414 reversed $157 $-1 #
coedge $-1 $255 $159 $415 $416 reversed $100 $-1 #
coedge $-1 $159 $254 $411 $417 reversed $100 $-1 #
coedge $-1 $413 $418 $159 $257 forward $408 $-1 #
edge $-1 $419 -30.238958936845968 $420 -21.045130367838347 $256 $421 forward 7 unknown #
loop $-1 $-1 $263 $160 #
plane-surface $-1 -25.05077363710889 -18.505340810402032 92.581599137727679 0.70710678939079041 0 0.70710677298230451 0.70710677298230451 0 -0.70710678939079041 forward_v I I I I #
loop $-1 $-1 $422 $102 #
coedge $-1 $261 $261 $262 $423 reversed $161 $-1 #
coedge $-1 $262 $262 $261 $423 forward $163 $-1 #
coedge $-1 $263 $263 $164 $264 forward $258 $-1 #
edge $-1 $424 0 $424 6.2831853071796004 $263 $425 forward 7 unknown #
loop $-1 $-1 $270 $165 #
plane-surface $-1 -25.05077363710889 -18.505340810402032 92.581599137727679 0.70710678939079041 0 0.70710677298230451 0.70710677298230451 0 -0.70710678939079041 forward_v I I I I #
loop $-1 $-1 $426 $105 #
coedge $-1 $268 $268 $269 $427 reversed $166 $-1 #
coedge $-1 $269 $269 $268 $427 forward $168 $-1 #
coedge $-1 $270 $270 $169 $271 forward $265 $-1 #
edge $-1 $428 0 $428 6.2831853071796004 $270 $429 forward 7 unknown #
face $-1 $430 $431 $60 $-1 $432 reversed single #
loop $-1 $-1 $433 $170 #
plane-surface $-1 60.477921843096297 -10.169756785362409 178.11029263323067 0 1 0 0.70710678939079041 0 0.70710677298230451 forward_v I I I I #
coedge $-1 $434 $435 $436 $437 reversed $171 $-1 #
coedge $-1 $277 $173 $438 $439 reversed $109 $-1 #
coedge $-1 $173 $276 $434 $440 reversed $109 $-1 #
coedge $-1 $436 $441 $173 $279 forward $442 $-1 #
edge $-1 $443 -30.238958936845968 $444 -21.045130367838347 $278 $445 forward 7 unknown #
loop $-1 $-1 $285 $174 #
plane-surface $-1 -25.05077363710889 -6.1684469368006773 92.581599137727679 0.70710678939079041 0 0.70710677298230451 0.70710677298230451 0 -0.70710678939079041 forward_v I I I I #
loop $-1 $-1 $446 $111 #
coedge $-1 $283 $283 $284 $447 reversed $175 $-1 #
coedge $-1 $284 $284 $283 $447 forward $177 $-1 #
coedge $-1 $285 $285 $178 $286 forward $280 $-1 #
edge $-1 $448 0 $448 6.2831853071796004 $285 $449 forward 7 unknown #
loop $-1 $-1 $292 $179 #
plane-surface $-1 -25.05077363710889 -6.1684469368006773 92.581599137727679 0.70710678939079041 0 0.70710677298230451 0.70710677298230451 0 -0.70710678939079041 forward_v I I I I #
loop $-1 $-1 $450 $114 #
coedge $-1 $290 $290 $291 $451 reversed $180 $-1 #
coedge $-1 $291 $291 $290 $451 forward $182 $-1 #
coedge $-1 $292 $292 $183 $293 forward $287 $-1 #
edge $-1 $452 0 $452 6.2831853071796004 $292 $453 forward 7 unknown #
face $-1 $454 $455 $63 $-1 $456 reversed single #
loop $-1 $-1 $457 $184 #
plane-surface $-1 60.477921843096297 2.1671370882389454 178.11029263323067 0 1 0 0.70710678939079041 0 0.70710677298230451 forward_v I I I I #
coedge $-1 $458 $459 $460 $461 reversed $185 $-1 #
coedge $-1 $299 $187 $462 $463 reversed $118 $-1 #
coedge $-1 $187 $298 $458 $464 reversed $118 $-1 #
coedge $-1 $460 $465 $187 $301 forward $466 $-1 #
edge $-1 $467 -30.238958936845968 $468 -21.045130367838347 $300 $469 forward 7 unknown #
loop $-1 $-1 $307 $188 #
plane-surface $-1 -25.05077363710889 6.1684469368006773 92.581599137727679 0.70710678939079041 0 0.70710677298230451 0.70710677298230451 0 -0.70710678939079041 forward_v I I I I #
loop $-1 $-1 $470 $120 #
coedge $-1 $305 $305 $306 $471 reversed $189 $-1 #
coedge $-1 $306 $306 $305 $471 forward $191 $-1 #
coedge $-1 $307 $307 $192 $308 forward $302 $-1 #
edge $-1 $472 0 $472 6.2831853071796004 $307 $473 forward 7 unknown #
loop $-1 $-1 $314 $193 #
plane-surface $-1 -25.05077363710889 6.1684469368006773 92.581599137727679 0.70710678939079041 0 0.70710677298230451 0.70710677298230451 0 -0.70710678939079041 forward_v I I I I #
loop $-1 $-1 $474 $123 #
coedge $-1 $312 $312 $313 $475 reversed $194 $-1 #
coedge $-1 $313 $313 $312 $475 forward $196 $-1 #
coedge $-1 $314 $314 $197 $315 forward $309 $-1 #
edge $-1 $476 0 $476 6.2831853071796004 $314 $477 forward 7 unknown #
face $-1 $478 $479 $66 $-1 $480 reversed single #
loop $-1 $-1 $481 $198 #
plane-surface $-1 60.477921843096297 14.5040309618403 178.11029263323067 0 1 0 0.70710678939079041 0 0.70710677298230451 forward_v I I I I #
coedge $-1 $482 $483 $484 $485 reversed $199 $-1 #
coedge $-1 $321 $201 $486 $487 reversed $127 $-1 #
coedge $-1 $201 $320 $482 $488 reversed $127 $-1 #
coedge $-1 $484 $489 $201 $323 forward $490 $-1 #
edge $-1 $491 -30.238958936845968 $492 -21.045130367838347 $322 $493 forward 7 unknown #
loop $-1 $-1 $329 $202 #
plane-surface $-1 -25.05077363710889 18.505340810402032 92.581599137727679 0.70710678939079041 0 0.70710677298230451 0.70710677298230451 0 -0.70710678939079041 forward_v I I I I #
loop $-1 $-1 $494 $129 #
coedge $-1 $327 $327 $328 $495 reversed $203 $-1 #
coedge $-1 $328 $328 $327 $495 forward $205 $-1 #
coedge $-1 $329 $329 $206 $330 forward $324 $-1 #
edge $-1 $496 0 $496 6.2831853071796004 $329 $497 forward 7 unknown #
loop $-1 $-1 $336 $207 #
plane-surface $-1 -25.05077363710889 18.505340810402032 92.581599137727679 0.70710678939079041 0 0.70710677298230451 0.70710677298230451 0 -0.70710678939079041 forward_v I I I I #
loop $-1 $-1 $498 $132 #
coedge $-1 $334 $334 $335 $499 reversed $208 $-1 #
coedge $-1 $335 $335 $334 $499 forward $210 $-1 #
coedge $-1 $336 $336 $211 $337 forward $331 $-1 #
edge $-1 $500 0 $500 6.2831853071796004 $336 $501 forward 7 unknown #
face $-1 $502 $503 $69 $-1 $504 reversed single #
loop $-1 $-1 $505 $212 #
plane-surface $-1 -155.79242326517402 -16.470714015050298 86.525622264009712 0 -1 0 0.78801076186113728 0 -0.61566146476048833 forward_v I I I I #
coedge $-1 $506 $507 $508 $509 reversed $213 $-1 #
coedge $-1 $343 $215 $510 $511 reversed $136 $-1 #
coedge $-1 $215 $342 $506 $512 reversed $136 $-1 #
coedge $-1 $508 $513 $215 $345 forward $514 $-1 #
edge $-1 $515 17.418291774192895 $516 20.691065630524605 $344 $517 forward 7 unknown #
loop $-1 $-1 $351 $216 #
plane-surface $-1 -60.477919858394131 -20.64501621785287 12.057772812637026 -0.78801076186113728 0 0.61566146476048833 0.61566146476048833 0 0.78801076186113728 forward_v I I I I #
loop $-1 $-1 $518 $138 #
coedge $-1 $349 $349 $350 $519 reversed $217 $-1 #
coedge $-1 $350 $350 $349 $519 forward $219 $-1 #
coedge $-1 $351 $351 $220 $352 forward $346 $-1 #
edge $-1 $520 0 $520 6.2831853071796004 $351 $521 forward 7 unknown #
loop $-1 $-1 $358 $221 #
plane-surface $-1 -60.477919858394131 -20.64501621785287 12.057772812637026 -0.78801076186113728 0 0.61566146476048833 0.61566146476048833 0 0.78801076186113728 forward_v I I I I #
loop $-1 $-1 $522 $141 #
coedge $-1 $356 $356 $357 $523 reversed $222 $-1 #
coedge $-1 $357 $357 $356 $523 forward $224 $-1 #
coedge $-1 $358 $358 $225 $359 forward $353 $-1 #
edge $-1 $524 0 $524 6.2831853071796004 $358 $525 forward 7 unknown #
face $-1 $526 $527 $54 $-1 $528 reversed single #
loop $-1 $-1 $529 $226 #
plane-surface $-1 -60.477919858394117 0 0 1 0 0 0 0 -1 forward_v I I I I #
coedge $-1 $530 $371 $531 $532 forward $227 $-1 #
coedge $-1 $533 $229 $530 $534 forward $145 $-1 #
coedge $-1 $229 $533 $535 $536 forward $145 $-1 #
coedge $-1 $374 $373 $229 $367 reversed $375 $-1 #
edge $-1 $537 -39.141859011473429 $538 39.141859011473429 $366 $539 forward 7 unknown #
coedge $-1 $231 $230 $540 $541 forward $91 $-1 #
coedge $-1 $542 $543 $230 $370 reversed $527 $-1 #
edge $-1 $377 -60.477919858394117 $544 60.477919858394117 $369 $545 forward 7 unknown #
coedge $-1 $363 $546 $231 $372 reversed $227 $-1 #
edge $-1 $547 -60.477919858394117 $376 60.477919858394117 $371 $548 forward 7 unknown #
coedge $-1 $366 $232 $546 $549 forward $375 $-1 #
coedge $-1 $232 $366 $542 $550 reversed $375 $-1 #
loop $-1 $-1 $373 $526 #
vertex $-1 $233 $551 #
vertex $-1 $233 $552 #
straight-curve $-1 60.477919858394117 0 16.246732439873856 0 1 0 I I #
face $-1 $553 $554 $55 $-1 $555 reversed single #
loop $-1 $-1 $556 $234 #
plane-surface $-1 0 -46.303129306882425 0.807142342793707 0 0 1 1 0 0 forward_v I I I I #
coedge $-1 $240 $557 $558 $559 forward $235 $-1 #
coedge $-1 $560 $237 $561 $562 reversed $149 $-1 #
coedge $-1 $237 $560 $389 $563 reversed $149 $-1 #
edge $-1 $390 -9.9976749871924575 $564 -0.807142342793707 $237 $565 forward 7 unknown #
coedge $-1 $239 $238 $566 $567 forward $94 $-1 #
coedge $-1 $558 $568 $238 $388 forward $569 $-1 #
edge $-1 $570 0.807142342793707 $391 9.9976749871924575 $387 $571 forward 7 unknown #
coedge $-1 $557 $240 $384 $563 forward $235 $-1 #
vertex $-1 $385 $572 #
vertex $-1 $559 $573 #
straight-curve $-1 0 -39.141859011473429 9.9976749871924575 1 0 0 I I #
face $-1 $574 $575 $56 $-1 $576 reversed single #
loop $-1 $-1 $577 $242 #
plane-surface $-1 0 46.303129306882425 0.807142342793707 0 0 1 1 0 0 forward_v I I I I #
coedge $-1 $578 $248 $398 $579 forward $243 $-1 #
coedge $-1 $580 $245 $577 $581 reversed $153 $-1 #
coedge $-1 $245 $580 $396 $579 reversed $153 $-1 #
edge $-1 $404 -9.9976749871924575 $582 -0.807142342793707 $245 $583 forward 7 unknown #
coedge $-1 $247 $246 $584 $585 forward $97 $-1 #
coedge $-1 $586 $587 $246 $402 forward $588 $-1 #
edge $-1 $589 0.807142342793707 $405 9.9976749871924575 $401 $590 forward 7 unknown #
coedge $-1 $248 $578 $586 $591 forward $243 $-1 #
vertex $-1 $399 $592 #
vertex $-1 $591 $593 #
straight-curve $-1 0 39.141859011473429 9.9976749871924575 -1 0 0 I I #
face $-1 $-1 $594 $57 $-1 $595 reversed single #
loop $-1 $-1 $256 $250 #
plane-surface $-1 0 0 16.246732439873856 0 0 1 1 0 0 forward_v I I I I #
coedge $-1 $596 $597 $598 $599 reversed $251 $-1 #
coedge $-1 $600 $253 $255 $417 forward $157 $-1 #
coedge $-1 $253 $600 $596 $601 forward $157 $-1 #
coedge $-1 $598 $256 $253 $414 forward $408 $-1 #
edge $-1 $420 5.251360556639284 $602 13.253980253762748 $413 $603 forward 7 unknown #
coedge $-1 $604 $605 $254 $416 forward $594 $-1 #
edge $-1 $606 -82.002242659092843 $419 -72.808413876741483 $415 $607 forward 7 unknown #
edge $-1 $420 107.95380251350767 $606 120.95583971678828 $255 $608 forward 7 unknown #
coedge $-1 $256 $598 $604 $609 forward $408 $-1 #
vertex $-1 $416 $610 #
vertex $-1 $257 $611 #
straight-curve $-1 30.238960921548149 -14.5040309618403 16.246732439873853 -1 0 0 I I #
coedge $-1 $422 $422 $-1 $612 reversed $260 $-1 #
edge $-1 $613 0 $613 6.2831853071796004 $261 $614 forward 7 unknown #
vertex $-1 $264 $615 #
ellipse-curve $-1 55.881005573890299 -20.22018788835706 11.649818048698174 0.70710678939079041 0 0.70710677298230451 0.35355338649115226 0 -0.35355339469539521 1 I I #
coedge $-1 $426 $426 $-1 $616 reversed $267 $-1 #
edge $-1 $617 0 $617 6.2831853071796004 $268 $618 forward 7 unknown #
vertex $-1 $271 $619 #
ellipse-curve $-1 55.881005573890299 -16.790493732447004 11.649818048698174 0.70710678939079041 0 0.70710677298230451 0.35355338649115226 0 -0.35355339469539521 1 I I #
face $-1 $-1 $442 $60 $-1 $620 forward single #
loop $-1 $-1 $621 $272 #
plane-surface $-1 60.477919858394117 0 0 -1 0 0 0 0 1 forward_v I I I I #
coedge $-1 $622 $623 $624 $625 reversed $273 $-1 #
coedge $-1 $626 $275 $277 $440 forward $171 $-1 #
coedge $-1 $275 $626 $622 $627 forward $171 $-1 #
coedge $-1 $624 $278 $275 $437 forward $442 $-1 #
edge $-1 $444 -0.91708638016139332 $628 7.0855333169620707 $436 $629 forward 7 unknown #
coedge $-1 $630 $631 $276 $439 forward $431 $-1 #
edge $-1 $632 -82.002242659092843 $443 -72.808413876741483 $438 $633 forward 7 unknown #
edge $-1 $444 107.95380251350767 $632 120.95583971678828 $277 $634 forward 7 unknown #
coedge $-1 $278 $624 $630 $635 forward $442 $-1 #
loop $-1 $-1 $624 $430 #
vertex $-1 $439 $636 #
vertex $-1 $279 $637 #
straight-curve $-1 30.238960921548149 -2.1671370882389454 16.246732439873853 -1 0 0 I I #
coedge $-1 $446 $446 $-1 $638 reversed $282 $-1 #
edge $-1 $639 0 $639 6.2831853071796004 $283 $640 forward 7 unknown #
vertex $-1 $286 $641 #
ellipse-curve $-1 55.881005573890299 -7.8832940147557053 11.649818048698174 0.70710678939079041 0 0.70710677298230451 0.35355338649115226 0 -0.35355339469539521 1 I I #
coedge $-1 $450 $450 $-1 $642 reversed $289 $-1 #
edge $-1 $643 0 $643 6.2831853071796004 $290 $644 forward 7 unknown #
vertex $-1 $293 $645 #
ellipse-curve $-1 55.881005573890299 -4.4535998588456494 11.649818048698174 0.70710678939079041 0 0.70710677298230451 0.35355338649115226 0 -0.35355339469539521 1 I I #
face $-1 $-1 $466 $63 $-1 $646 forward single #
loop $-1 $-1 $647 $294 #
plane-surface $-1 60.477919858394117 0 0 -1 0 0 0 0 1 forward_v I I I I #
coedge $-1 $648 $649 $650 $651 reversed $295 $-1 #
coedge $-1 $652 $297 $299 $464 forward $185 $-1 #
coedge $-1 $297 $652 $648 $653 forward $185 $-1 #
coedge $-1 $650 $300 $297 $461 forward $466 $-1 #
edge $-1 $468 -7.0855333169620707 $654 0.91708638016139332 $460 $655 forward 7 unknown #
coedge $-1 $656 $657 $298 $463 forward $455 $-1 #
edge $-1 $658 -82.002242659092843 $467 -72.808413876741483 $462 $659 forward 7 unknown #
edge $-1 $468 107.95380251350767 $658 120.95583971678828 $299 $660 forward 7 unknown #
coedge $-1 $300 $650 $656 $661 forward $466 $-1 #
loop $-1 $-1 $650 $454 #
vertex $-1 $463 $662 #
vertex $-1 $301 $663 #
straight-curve $-1 30.238960921548149 10.169756785362409 16.246732439873853 -1 0 0 I I #
coedge $-1 $470 $470 $-1 $664 reversed $304 $-1 #
edge $-1 $665 0 $665 6.2831853071796004 $305 $666 forward 7 unknown #
vertex $-1 $308 $667 #
ellipse-curve $-1 55.881005573890299 4.4535998588456494 11.649818048698174 0.70710678939079041 0 0.70710677298230451 0.35355338649115226 0 -0.35355339469539521 1 I I #
coedge $-1 $474 $474 $-1 $668 reversed $311 $-1 #
edge $-1 $669 0 $669 6.2831853071796004 $312 $670 forward 7 unknown #
vertex $-1 $315 $671 #
ellipse-curve $-1 55.881005573890299 7.8832940147557053 11.649818048698174 0.70710678939079041 0 0.70710677298230451 0.35355338649115226 0 -0.35355339469539521 1 I I #
face $-1 $-1 $490 $66 $-1 $672 forward single #
loop $-1 $-1 $673 $316 #
plane-surface $-1 60.477919858394117 0 0 -1 0 0 0 0 1 forward_v I I I I #
coedge $-1 $674 $675 $676 $677 reversed $317 $-1 #
coedge $-1 $678 $319 $321 $488 forward $199 $-1 #
coedge $-1 $319 $678 $674 $679 forward $199 $-1 #
coedge $-1 $676 $322 $319 $485 forward $490 $-1 #
edge $-1 $492 -13.253980253762748 $680 -5.251360556639284 $484 $681 forward 7 unknown #
coedge $-1 $682 $683 $320 $487 forward $479 $-1 #
edge $-1 $684 -82.002242659092843 $491 -72.808413876741483 $486 $685 forward 7 unknown #
edge $-1 $492 107.95380251350767 $684 120.95583971678828 $321 $686 forward 7 unknown #
coedge $-1 $322 $676 $682 $687 forward $490 $-1 #
loop $-1 $-1 $676 $478 #
vertex $-1 $487 $688 #
vertex $-1 $323 $689 #
straight-curve $-1 30.238960921548149 22.506650658963764 16.246732439873853 -1 0 0 I I #
coedge $-1 $494 $494 $-1 $690 reversed $326 $-1 #
edge $-1 $691 0 $691 6.2831853071796004 $327 $692 forward 7 unknown #
vertex $-1 $330 $693 #
ellipse-curve $-1 55.881005573890299 16.790493732447004 11.649818048698174 0.70710678939079041 0 0.70710677298230451 0.35355338649115226 0 -0.35355339469539521 1 I I #
coedge $-1 $498 $498 $-1 $694 reversed $333 $-1 #
edge $-1 $695 0 $695 6.2831853071796004 $334 $696 forward 7 unknown #
vertex $-1 $337 $697 #
ellipse-curve $-1 55.881005573890299 20.22018788835706 11.649818048698174 0.70710678939079041 0 0.70710677298230451 0.35355338649115226 0 -0.35355339469539521 1 I I #
face $-1 $-1 $514 $69 $-1 $698 forward single #
loop $-1 $-1 $699 $338 #
plane-surface $-1 -60.477919858394117 0 0 1 0 0 0 0 -1 forward_v I I I I #
coedge $-1 $700 $701 $702 $703 reversed $339 $-1 #
coedge $-1 $704 $341 $343 $512 forward $213 $-1 #
coedge $-1 $341 $704 $700 $705 forward $213 $-1 #
coedge $-1 $702 $344 $341 $509 forward $514 $-1 #
edge $-1 $516 -14.496810311729007 $706 -6.148205906123863 $508 $707 forward 7 unknown #
coedge $-1 $708 $709 $342 $511 forward $503 $-1 #
edge $-1 $710 -31.205038319367812 $515 -27.016078692131 $510 $711 forward 7 unknown #
edge $-1 $516 -5.3158660134834612 $710 -2.274695869299009e-014 $343 $712 forward 7 unknown #
coedge $-1 $344 $702 $708 $713 forward $514 $-1 #
loop $-1 $-1 $702 $502 #
vertex $-1 $511 $714 #
vertex $-1 $345 $715 #
straight-curve $-1 -77.896211632587011 -24.819318420655442 16.246732439873853 1 0 0 I I #
coedge $-1 $518 $518 $-1 $716 reversed $348 $-1 #
edge $-1 $717 0 $717 6.2831853071796004 $349 $718 forward 7 unknown #
vertex $-1 $352 $719 #
ellipse-curve $-1 -58.841532930228261 -22.434002876196828 14.152252626255448 -0.78801076186113728 0 0.61566146476048833 0.61566146476048833 0 0.78801076186113728 1 I I #
coedge $-1 $522 $522 $-1 $720 reversed $355 $-1 #
edge $-1 $721 0 $721 6.2831853071796004 $356 $722 forward 7 unknown #
vertex $-1 $359 $723 #
ellipse-curve $-1 -58.841532930228261 -18.856029559508908 14.152252626255448 -0.78801076186113728 0 0.61566146476048833 0.61566146476048833 0 0.78801076186113728 1 I I #
face $-1 $-1 $375 $54 $-1 $724 reversed single #
loop $-1 $-1 $542 $360 #
plane-surface $-1 0 39.141859011473429 0 0 -1 0 0 0 -1 forward_v I I I I #
coedge $-1 $725 $540 $543 $726 forward $361 $-1 #
coedge $-1 $546 $363 $364 $534 reversed $227 $-1 #
coedge $-1 $540 $725 $363 $532 reversed $361 $-1 #
edge $-1 $547 -16.246732439873856 $727 16.246732439873856 $531 $728 forward 7 unknown #
coedge $-1 $365 $364 $725 $729 forward $145 $-1 #
edge $-1 $538 -60.477919858394117 $727 60.477919858394117 $530 $730 forward 7 unknown #
coedge $-1 $543 $542 $365 $536 reversed $527 $-1 #
edge $-1 $731 -60.477919858394117 $537 60.477919858394117 $535 $732 forward 7 unknown #
vertex $-1 $367 $733 #
vertex $-1 $549 $734 #
straight-curve $-1 60.477919858394117 0 -16.246732439873856 0 -1 0 I I #
coedge $-1 $529 $531 $368 $541 reversed $361 $-1 #
edge $-1 $544 -39.141859011473429 $547 39.141859011473429 $540 $735 forward 7 unknown #
coedge $-1 $535 $369 $374 $550 forward $527 $-1 #
coedge $-1 $369 $535 $529 $726 reversed $527 $-1 #
vertex $-1 $370 $736 #
straight-curve $-1 0 39.141859011473429 16.246732439873856 -1 0 0 I I #
coedge $-1 $371 $530 $373 $549 reversed $227 $-1 #
vertex $-1 $541 $737 #
straight-curve $-1 0 -39.141859011473429 16.246732439873856 1 0 0 I I #
edge $-1 $376 -16.246732439873856 $538 16.246732439873856 $373 $738 forward 7 unknown #
edge $-1 $377 -16.246732439873856 $537 16.246732439873856 $374 $739 forward 7 unknown #
point $-1 60.477919858394117 -39.141859011473429 16.246732439873856 #
point $-1 60.477919858394117 39.141859011473429 16.246732439873856 #
face $-1 $-1 $569 $55 $-1 $740 reversed single #
loop $-1 $-1 $741 $379 #
plane-surface $-1 0 -53.464399602291422 5.4024086649930823 0 1 0 0 0 1 forward_v I I I I #
coedge $-1 $742 $566 $568 $743 forward $380 $-1 #
coedge $-1 $382 $389 $744 $745 forward $235 $-1 #
coedge $-1 $746 $387 $382 $559 reversed $569 $-1 #
edge $-1 $747 -7.1612702954089968 $391 7.1612702954089968 $558 $748 forward 7 unknown #
coedge $-1 $384 $383 $741 $749 reversed $149 $-1 #
coedge $-1 $566 $742 $383 $562 forward $380 $-1 #
edge $-1 $750 -7.1612702954089968 $564 7.1612702954089968 $383 $751 forward 7 unknown #
edge $-1 $390 -7.1612702954089968 $752 7.1612702954089968 $384 $753 forward 7 unknown #
vertex $-1 $385 $754 #
straight-curve $-1 -60.477919858394117 -39.141859011473429 0 0 0 -1 I I #
coedge $-1 $556 $561 $386 $567 reversed $380 $-1 #
edge $-1 $570 -60.477919858394117 $564 60.477919858394117 $566 $755 forward 7 unknown #
coedge $-1 $387 $746 $556 $743 reversed $569 $-1 #
loop $-1 $-1 $387 $553 #
vertex $-1 $388 $756 #
straight-curve $-1 60.477919858394117 -39.141859011473429 0 0 0 1 I I #
point $-1 -60.477919858394117 -39.141859011473429 9.9976749871924575 #
point $-1 60.477919858394117 -39.141859011473429 9.9976749871924575 #
face $-1 $-1 $588 $56 $-1 $757 reversed single #
loop $-1 $-1 $758 $393 #
plane-surface $-1 0 53.464399602291422 5.4024086649930823 0 -1 0 0 0 -1 forward_v I I I I #
coedge $-1 $584 $759 $397 $581 forward $394 $-1 #
coedge $-1 $403 $396 $760 $761 forward $243 $-1 #
edge $-1 $404 -7.1612702954089968 $762 7.1612702954089968 $398 $763 forward 7 unknown #
coedge $-1 $398 $397 $758 $764 reversed $153 $-1 #
edge $-1 $765 -7.1612702954089968 $582 7.1612702954089968 $397 $766 forward 7 unknown #
vertex $-1 $399 $767 #
straight-curve $-1 60.477919858394117 39.141859011473429 0 0 0 -1 I I #
coedge $-1 $768 $577 $400 $585 reversed $394 $-1 #
edge $-1 $589 -60.477919858394117 $582 60.477919858394117 $584 $769 forward 7 unknown #
coedge $-1 $770 $401 $403 $591 reversed $588 $-1 #
coedge $-1 $401 $770 $768 $771 reversed $588 $-1 #
loop $-1 $-1 $401 $574 #
vertex $-1 $402 $772 #
straight-curve $-1 -60.477919858394117 39.141859011473429 0 0 0 1 I I #
edge $-1 $773 -7.1612702954089968 $405 7.1612702954089968 $586 $774 forward 7 unknown #
point $-1 60.477919858394117 39.141859011473429 9.9976749871924575 #
point $-1 -60.477919858394117 39.141859011473429 9.9976749871924575 #
loop $-1 $-1 $415 $407 #
plane-surface $-1 60.477919858394117 0 0 -1 0 0 0 0 1 forward_v I I I I #
coedge $-1 $597 $410 $412 $601 reversed $251 $-1 #
coedge $-1 $410 $596 $775 $776 reversed $251 $-1 #
coedge $-1 $418 $413 $410 $599 forward $408 $-1 #
edge $-1 $602 21.045130367838347 $777 30.238958936845968 $598 $778 forward 7 unknown #
coedge $-1 $412 $411 $605 $779 reversed $157 $-1 #
edge $-1 $780 -120.95583971678828 $602 -107.95380251350767 $596 $781 forward 7 unknown #
vertex $-1 $414 $782 #
straight-curve $-1 51.284091289386488 -9.252670405201016 16.246732439873853 0 -1 0 I I #
coedge $-1 $775 $415 $418 $609 reversed $594 $-1 #
coedge $-1 $415 $775 $600 $779 forward $594 $-1 #
vertex $-1 $416 $783 #
straight-curve $-1 60.477919858394117 -14.5040309618403 89.055146316615335 0 0 1 I I #
straight-curve $-1 -25.05077363710889 -14.5040309618403 92.581599137727679 0.70710677298230451 0 -0.70710678939079041 I I #
edge $-1 $777 -22.506650658963764 $419 -14.5040309618403 $604 $784 forward 7 unknown #
point $-1 60.477919858394117 -14.5040309618403 16.246732439873856 #
point $-1 51.284091289386495 -14.5040309618403 16.246732439873853 #
edge $-1 $785 1 $785 0 $422 $-1 forward 7 unknown #
vertex $-1 $423 $786 #
ellipse-curve $-1 54.655734330217562 -20.22018788835706 10.424546833457983 0.70710678939079041 0 0.70710677298230451 0.35355338649115226 0 -0.35355339469539521 1 I I #
point $-1 56.234558960381463 -20.22018788835706 11.296264654002792 #
edge $-1 $787 1 $787 0 $426 $-1 forward 7 unknown #
vertex $-1 $427 $788 #
ellipse-curve $-1 54.655734330217562 -16.790493732447004 10.424546833457983 0.70710678939079041 0 0.70710677298230451 0.35355338649115226 0 -0.35355339469539521 1 I I #
point $-1 56.234558960381463 -16.790493732447004 11.296264654002792 #
plane-surface $-1 0 0 16.246732439873856 0 0 1 1 0 0 forward_v I I I I #
coedge $-1 $631 $630 $623 $789 forward $431 $-1 #
coedge $-1 $623 $433 $435 $627 reversed $273 $-1 #
coedge $-1 $433 $622 $621 $789 reversed $273 $-1 #
coedge $-1 $441 $436 $433 $625 forward $442 $-1 #
edge $-1 $628 21.045130367838347 $790 30.238958936845968 $624 $791 forward 7 unknown #
coedge $-1 $435 $434 $631 $792 reversed $171 $-1 #
edge $-1 $793 -120.95583971678828 $628 -107.95380251350767 $622 $794 forward 7 unknown #
vertex $-1 $437 $795 #
straight-curve $-1 51.284091289386488 -3.0842234684003387 16.246732439873853 0 -1 0 I I #
coedge $-1 $621 $438 $441 $635 reversed $431 $-1 #
coedge $-1 $438 $621 $626 $792 forward $431 $-1 #
vertex $-1 $439 $796 #
straight-curve $-1 60.477919858394117 -2.1671370882389454 89.055146316615335 0 0 1 I I #
straight-curve $-1 -25.05077363710889 -2.1671370882389454 92.581599137727679 0.70710677298230451 0 -0.70710678939079041 I I #
edge $-1 $790 -10.169756785362409 $443 -2.1671370882389454 $630 $797 forward 7 unknown #
point $-1 60.477919858394117 -2.1671370882389454 16.246732439873856 #
point $-1 51.284091289386495 -2.1671370882389454 16.246732439873853 #
edge $-1 $798 1 $798 0 $446 $-1 forward 7 unknown #
vertex $-1 $447 $799 #
ellipse-curve $-1 54.655734330217562 -7.8832940147557053 10.424546833457983 0.70710678939079041 0 0.70710677298230451 0.35355338649115226 0 -0.35355339469539521 1 I I #
point $-1 56.234558960381463 -7.8832940147557053 11.296264654002792 #
edge $-1 $800 1 $800 0 $450 $-1 forward 7 unknown #
vertex $-1 $451 $801 #
ellipse-curve $-1 54.655734330217562 -4.4535998588456494 10.424546833457983 0.70710678939079041 0 0.70710677298230451 0.35355338649115226 0 -0.35355339469539521 1 I I #
point $-1 56.234558960381463 -4.4535998588456494 11.296264654002792 #
plane-surface $-1 0 0 16.246732439873856 0 0 1 1 0 0 forward_v I I I I #
coedge $-1 $657 $656 $649 $802 forward $455 $-1 #
coedge $-1 $649 $457 $459 $653 reversed $295 $-1 #
coedge $-1 $457 $648 $647 $802 reversed $295 $-1 #
coedge $-1 $465 $460 $457 $651 forward $466 $-1 #
edge $-1 $654 21.045130367838347 $803 30.238958936845968 $650 $804 forward 7 unknown #
coedge $-1 $459 $458 $657 $805 reversed $185 $-1 #
edge $-1 $806 -120.95583971678828 $654 -107.95380251350767 $648 $807 forward 7 unknown #
vertex $-1 $461 $808 #
straight-curve $-1 51.284091289386488 3.0842234684003387 16.246732439873853 0 -1 0 I I #
coedge $-1 $647 $462 $465 $661 reversed $455 $-1 #
coedge $-1 $462 $647 $652 $805 forward $455 $-1 #
vertex $-1 $463 $809 #
straight-curve $-1 60.477919858394117 10.169756785362409 89.055146316615335 0 0 1 I I #
straight-curve $-1 -25.05077363710889 10.169756785362409 92.581599137727679 0.70710677298230451 0 -0.70710678939079041 I I #
edge $-1 $803 2.1671370882389454 $467 10.169756785362409 $656 $810 forward 7 unknown #
point $-1 60.477919858394117 10.169756785362409 16.246732439873856 #
point $-1 51.284091289386495 10.169756785362409 16.246732439873853 #
edge $-1 $811 1 $811 0 $470 $-1 forward 7 unknown #
vertex $-1 $471 $812 #
ellipse-curve $-1 54.655734330217562 4.4535998588456494 10.424546833457983 0.70710678939079041 0 0.70710677298230451 0.35355338649115226 0 -0.35355339469539521 1 I I #
point $-1 56.234558960381463 4.4535998588456494 11.296264654002792 #
edge $-1 $813 1 $813 0 $474 $-1 forward 7 unknown #
vertex $-1 $475 $814 #
ellipse-curve $-1 54.655734330217562 7.8832940147557053 10.424546833457983 0.70710678939079041 0 0.70710677298230451 0.35355338649115226 0 -0.35355339469539521 1 I I #
point $-1 56.234558960381463 7.8832940147557053 11.296264654002792 #
plane-surface $-1 0 0 16.246732439873856 0 0 1 1 0 0 forward_v I I I I #
coedge $-1 $683 $682 $675 $815 forward $479 $-1 #
coedge $-1 $675 $481 $483 $679 reversed $317 $-1 #
coedge $-1 $481 $674 $673 $815 reversed $317 $-1 #
coedge $-1 $489 $484 $481 $677 forward $490 $-1 #
edge $-1 $680 21.045130367838347 $816 30.238958936845968 $676 $817 forward 7 unknown #
coedge $-1 $483 $482 $683 $818 reversed $199 $-1 #
edge $-1 $819 -120.95583971678828 $680 -107.95380251350767 $674 $820 forward 7 unknown #
vertex $-1 $485 $821 #
straight-curve $-1 51.284091289386488 9.252670405201016 16.246732439873853 0 -1 0 I I #
coedge $-1 $673 $486 $489 $687 reversed $479 $-1 #
coedge $-1 $486 $673 $678 $818 forward $479 $-1 #
vertex $-1 $487 $822 #
straight-curve $-1 60.477919858394117 22.506650658963764 89.055146316615335 0 0 1 I I #
straight-curve $-1 -25.05077363710889 22.506650658963764 92.581599137727679 0.70710677298230451 0 -0.70710678939079041 I I #
edge $-1 $816 14.5040309618403 $491 22.506650658963764 $682 $823 forward 7 unknown #
point $-1 60.477919858394117 22.506650658963764 16.246732439873856 #
point $-1 51.284091289386495 22.506650658963764 16.246732439873853 #
edge $-1 $824 1 $824 0 $494 $-1 forward 7 unknown #
vertex $-1 $495 $825 #
ellipse-curve $-1 54.655734330217562 16.790493732447004 10.424546833457983 0.70710678939079041 0 0.70710677298230451 0.35355338649115226 0 -0.35355339469539521 1 I I #
point $-1 56.234558960381463 16.790493732447004 11.296264654002792 #
edge $-1 $826 1 $826 0 $498 $-1 forward 7 unknown #
vertex $-1 $499 $827 #
ellipse-curve $-1 54.655734330217562 20.22018788835706 10.424546833457983 0.70710678939079041 0 0.70710677298230451 0.35355338649115226 0 -0.35355339469539521 1 I I #
point $-1 56.234558960381463 20.22018788835706 11.296264654002792 #
plane-surface $-1 0 0 16.246732439873856 0 0 1 1 0 0 forward_v I I I I #
coedge $-1 $709 $708 $701 $828 forward $503 $-1 #
coedge $-1 $701 $505 $507 $705 reversed $339 $-1 #
coedge $-1 $505 $700 $699 $828 reversed $339 $-1 #
coedge $-1 $513 $508 $505 $703 forward $514 $-1 #
edge $-1 $706 -20.691065630524605 $829 -17.418291774192895 $702 $830 forward 7 unknown #
coedge $-1 $507 $506 $709 $831 reversed $213 $-1 #
edge $-1 $832 2.274695869299009e-014 $706 5.3158660134834612 $700 $833 forward 7 unknown #
vertex $-1 $509 $834 #
straight-curve $-1 -57.205146002062406 -10.322508108926435 16.246732439873856 0 1 0 I I #
coedge $-1 $699 $510 $513 $713 reversed $503 $-1 #
coedge $-1 $510 $699 $704 $831 forward $503 $-1 #
vertex $-1 $511 $835 #
straight-curve $-1 -60.477919858394117 -24.819318420655442 43.262811132004856 0 0 1 I I #
straight-curve $-1 -60.477919858394131 -24.819318420655442 12.057772812637026 -0.61566146476048833 0 -0.78801076186113728 I I #
edge $-1 $829 16.470714015050298 $515 24.819318420655442 $708 $836 forward 7 unknown #
point $-1 -60.477919858394117 -24.819318420655442 16.246732439873856 #
point $-1 -57.205146002062406 -24.819318420655442 16.246732439873856 #
edge $-1 $837 1 $837 0 $518 $-1 forward 7 unknown #
vertex $-1 $519 $838 #
ellipse-curve $-1 -56.673571439696381 -22.434002876196828 12.458455521692057 -0.78801076186113728 0 0.61566146476048833 0.61566146476048833 0 0.78801076186113728 1 I I #
point $-1 -58.225871465467769 -22.434002876196828 14.940263388116581 #
edge $-1 $839 1 $839 0 $522 $-1 forward 7 unknown #
vertex $-1 $523 $840 #
ellipse-curve $-1 -56.673571439696381 -18.856029559508908 12.458455521692057 -0.78801076186113728 0 0.61566146476048833 0.61566146476048833 0 0.78801076186113728 1 I I #
point $-1 -58.225871465467769 -18.856029559508908 14.940263388116581 #
plane-surface $-1 60.477919858394117 0 0 -1 0 0 0 0 1 forward_v I I I I #
coedge $-1 $531 $529 $533 $729 reversed $361 $-1 #
edge $-1 $544 -16.246732439873856 $731 16.246732439873856 $543 $841 forward 7 unknown #
vertex $-1 $729 $842 #
straight-curve $-1 -60.477919858394117 -39.141859011473429 0 0 0 -1 I I #
edge $-1 $727 -39.141859011473429 $731 39.141859011473429 $725 $843 forward 7 unknown #
straight-curve $-1 0 -39.141859011473429 -16.246732439873856 -1 0 0 I I #
vertex $-1 $536 $844 #
straight-curve $-1 0 39.141859011473429 -16.246732439873856 1 0 0 I I #
point $-1 60.477919858394117 39.141859011473429 -16.246732439873856 #
point $-1 60.477919858394117 -39.141859011473429 -16.246732439873856 #
straight-curve $-1 -60.477919858394117 0 16.246732439873856 0 -1 0 I I #
point $-1 -60.477919858394117 39.141859011473429 16.246732439873856 #
point $-1 -60.477919858394117 -39.141859011473429 16.246732439873856 #
straight-curve $-1 60.477919858394117 -39.141859011473429 0 0 0 -1 I I #
straight-curve $-1 60.477919858394117 39.141859011473429 0 0 0 -1 I I #
plane-surface $-1 60.477919858394117 0 0 -1 0 0 0 0 1 forward_v I I I I #
coedge $-1 $845 $744 $560 $749 forward $554 $-1 #
coedge $-1 $561 $556 $845 $846 forward $380 $-1 #
edge $-1 $570 -7.1612702954089968 $847 7.1612702954089968 $568 $848 forward 7 unknown #
coedge $-1 $741 $849 $557 $745 reversed $554 $-1 #
edge $-1 $752 -60.477919858394117 $747 60.477919858394117 $744 $850 forward 7 unknown #
coedge $-1 $568 $558 $849 $851 forward $569 $-1 #
vertex $-1 $559 $852 #
straight-curve $-1 60.477919858394117 -46.303129306882425 9.9976749871924575 0 1 0 I I #
edge $-1 $752 -4.5952663221993753 $750 4.5952663221993753 $560 $853 forward 7 unknown #
vertex $-1 $562 $854 #
straight-curve $-1 -60.477919858394117 -46.303129306882425 0.807142342793707 0 1 0 I I #
vertex $-1 $563 $855 #
straight-curve $-1 -60.477919858394117 -46.303129306882425 9.9976749871924575 0 -1 0 I I #
point $-1 -60.477919858394117 -39.141859011473429 0.807142342793707 #
straight-curve $-1 0 -39.141859011473429 0.807142342793707 -1 0 0 I I #
point $-1 60.477919858394117 -39.141859011473429 0.807142342793707 #
plane-surface $-1 -60.477919858394117 0 0 1 0 0 0 0 -1 forward_v I I I I #
coedge $-1 $856 $760 $580 $764 forward $575 $-1 #
coedge $-1 $577 $768 $856 $857 forward $394 $-1 #
coedge $-1 $758 $858 $578 $761 reversed $575 $-1 #
edge $-1 $762 -60.477919858394117 $773 60.477919858394117 $760 $859 forward 7 unknown #
vertex $-1 $579 $860 #
straight-curve $-1 60.477919858394117 46.303129306882425 9.9976749871924575 0 1 0 I I #
edge $-1 $762 -4.5952663221993753 $765 4.5952663221993753 $580 $861 forward 7 unknown #
vertex $-1 $581 $862 #
straight-curve $-1 60.477919858394117 46.303129306882425 0.807142342793707 0 -1 0 I I #
point $-1 60.477919858394117 39.141859011473429 0.807142342793707 #
coedge $-1 $759 $584 $587 $771 forward $394 $-1 #
straight-curve $-1 0 39.141859011473429 0.807142342793707 1 0 0 I I #
coedge $-1 $587 $586 $858 $863 forward $588 $-1 #
edge $-1 $589 -7.1612702954089968 $864 7.1612702954089968 $587 $865 forward 7 unknown #
point $-1 -60.477919858394117 39.141859011473429 0.807142342793707 #
vertex $-1 $761 $866 #
straight-curve $-1 -60.477919858394117 46.303129306882425 9.9976749871924575 0 -1 0 I I #
coedge $-1 $605 $604 $597 $776 forward $594 $-1 #
edge $-1 $777 72.808413876741483 $780 82.002242659092843 $775 $867 forward 7 unknown #
vertex $-1 $609 $868 #
straight-curve $-1 30.238960921548149 -22.506650658963764 16.246732439873853 1 0 0 I I #
edge $-1 $780 -13.253980253762748 $606 -5.251360556639284 $605 $869 forward 7 unknown #
vertex $-1 $779 $870 #
straight-curve $-1 -25.05077363710889 -22.506650658963764 92.581599137727679 -0.70710677298230451 0 0.70710678939079041 I I #
point $-1 51.284091289386495 -22.506650658963764 16.246732439873853 #
point $-1 60.477919858394117 -14.5040309618403 7.0529036575224922 #
straight-curve $-1 60.477919858394117 0 16.246732439873856 0 1 0 I I #
vertex $-1 $612 $871 #
point $-1 55.009287716708712 -20.22018788835706 10.070993438762587 #
vertex $-1 $616 $872 #
point $-1 55.009287716708712 -16.790493732447004 10.070993438762587 #
edge $-1 $790 72.808413876741483 $793 82.002242659092843 $621 $873 forward 7 unknown #
vertex $-1 $635 $874 #
straight-curve $-1 30.238960921548149 -10.169756785362409 16.246732439873853 1 0 0 I I #
edge $-1 $793 -7.0855333169620707 $632 0.91708638016139332 $631 $875 forward 7 unknown #
vertex $-1 $792 $876 #
straight-curve $-1 -25.05077363710889 -10.169756785362409 92.581599137727679 -0.70710677298230451 0 0.70710678939079041 I I #
point $-1 51.284091289386495 -10.169756785362409 16.246732439873853 #
point $-1 60.477919858394117 -2.1671370882389454 7.0529036575224922 #
straight-curve $-1 60.477919858394117 0 16.246732439873856 0 1 0 I I #
vertex $-1 $638 $877 #
point $-1 55.009287716708712 -7.8832940147557053 10.070993438762587 #
vertex $-1 $642 $878 #
point $-1 55.009287716708712 -4.4535998588456494 10.070993438762587 #
edge $-1 $803 72.808413876741483 $806 82.002242659092843 $647 $879 forward 7 unknown #
vertex $-1 $661 $880 #
straight-curve $-1 30.238960921548149 2.1671370882389454 16.246732439873853 1 0 0 I I #
edge $-1 $806 -0.91708638016139332 $658 7.0855333169620707 $657 $881 forward 7 unknown #
vertex $-1 $805 $882 #
straight-curve $-1 -25.05077363710889 2.1671370882389454 92.581599137727679 -0.70710677298230451 0 0.70710678939079041 I I #
point $-1 51.284091289386495 2.1671370882389454 16.246732439873853 #
point $-1 60.477919858394117 10.169756785362409 7.0529036575224922 #
straight-curve $-1 60.477919858394117 0 16.246732439873856 0 1 0 I I #
vertex $-1 $664 $883 #
point $-1 55.009287716708712 4.4535998588456494 10.070993438762587 #
vertex $-1 $668 $884 #
point $-1 55.009287716708712 7.8832940147557053 10.070993438762587 #
edge $-1 $816 72.808413876741483 $819 82.002242659092843 $673 $885 forward 7 unknown #
vertex $-1 $687 $886 #
straight-curve $-1 30.238960921548149 14.5040309618403 16.246732439873853 1 0 0 I I #
edge $-1 $819 5.251360556639284 $684 13.253980253762748 $683 $887 forward 7 unknown #
vertex $-1 $818 $888 #
straight-curve $-1 -25.05077363710889 14.5040309618403 92.581599137727679 -0.70710677298230451 0 0.70710678939079041 I I #
point $-1 51.284091289386495 14.5040309618403 16.246732439873853 #
point $-1 60.477919858394117 22.506650658963764 7.0529036575224922 #
straight-curve $-1 60.477919858394117 0 16.246732439873856 0 1 0 I I #
vertex $-1 $690 $889 #
point $-1 55.009287716708712 16.790493732447004 10.070993438762587 #
vertex $-1 $694 $890 #
point $-1 55.009287716708712 20.22018788835706 10.070993438762587 #
edge $-1 $829 27.016078692131 $832 31.205038319367812 $699 $891 forward 7 unknown #
vertex $-1 $713 $892 #
straight-curve $-1 -77.896211632587011 -16.470714015050298 16.246732439873853 -1 0 0 I I #
edge $-1 $832 6.148205906123863 $710 14.496810311729007 $709 $893 forward 7 unknown #
vertex $-1 $831 $894 #
straight-curve $-1 -60.477919858394131 -16.470714015050298 12.057772812637026 0.61566146476048833 0 0.78801076186113728 I I #
point $-1 -57.205146002062406 -16.470714015050298 16.246732439873856 #
point $-1 -60.477919858394117 -24.819318420655442 12.057772812637044 #
straight-curve $-1 -60.477919858394117 0 16.246732439873856 0 -1 0 I I #
vertex $-1 $716 $895 #
point $-1 -56.057909974935896 -22.434002876196828 13.246466283553195 #
vertex $-1 $720 $896 #
point $-1 -56.057909974935896 -18.856029559508908 13.246466283553195 #
straight-curve $-1 -60.477919858394117 39.141859011473429 0 0 0 -1 I I #
point $-1 -60.477919858394117 -39.141859011473429 -16.246732439873856 #
straight-curve $-1 -60.477919858394117 0 -16.246732439873856 0 1 0 I I #
point $-1 -60.477919858394117 39.141859011473429 -16.246732439873856 #
coedge $-1 $849 $741 $742 $846 reversed $554 $-1 #
edge $-1 $847 -60.477919858394117 $750 60.477919858394117 $845 $897 forward 7 unknown #
vertex $-1 $851 $898 #
straight-curve $-1 60.477919858394117 -46.303129306882425 0.807142342793707 0 -1 0 I I #
coedge $-1 $744 $845 $746 $851 reversed $554 $-1 #
straight-curve $-1 0 -53.464399602291422 9.9976749871924575 1 0 0 I I #
edge $-1 $747 -4.5952663221993753 $847 4.5952663221993753 $746 $899 forward 7 unknown #
point $-1 60.477919858394117 -53.464399602291422 9.9976749871924575 #
straight-curve $-1 -60.477919858394117 -53.464399602291422 5.4024086649930823 0 0 -1 I I #
point $-1 -60.477919858394117 -53.464399602291422 0.807142342793707 #
point $-1 -60.477919858394117 -53.464399602291422 9.9976749871924575 #
coedge $-1 $858 $758 $759 $857 reversed $575 $-1 #
edge $-1 $864 -60.477919858394117 $765 60.477919858394117 $856 $900 forward 7 unknown #
coedge $-1 $760 $856 $770 $863 reversed $575 $-1 #
straight-curve $-1 0 53.464399602291422 9.9976749871924575 -1 0 0 I I #
point $-1 60.477919858394117 53.464399602291422 9.9976749871924575 #
straight-curve $-1 60.477919858394117 53.464399602291422 5.4024086649930823 0 0 -1 I I #
point $-1 60.477919858394117 53.464399602291422 0.807142342793707 #
edge $-1 $773 -4.5952663221993753 $864 4.5952663221993753 $858 $901 forward 7 unknown #
vertex $-1 $857 $902 #
straight-curve $-1 -60.477919858394117 46.303129306882425 0.807142342793707 0 1 0 I I #
point $-1 -60.477919858394117 53.464399602291422 9.9976749871924575 #
straight-curve $-1 60.477919858394117 -22.506650658963764 89.055146316615335 0 0 -1 I I #
point $-1 60.477919858394117 -22.506650658963764 16.246732439873856 #
straight-curve $-1 60.477919858394117 -9.252670405201016 7.052903657522485 0 1 0 I I #
point $-1 60.477919858394117 -22.506650658963764 7.0529036575224922 #
point $-1 54.302180935522166 -20.22018788835706 10.070993446966829 #
point $-1 54.302180935522166 -16.790493732447004 10.070993446966829 #
straight-curve $-1 60.477919858394117 -10.169756785362409 89.055146316615335 0 0 -1 I I #
point $-1 60.477919858394117 -10.169756785362409 16.246732439873856 #
straight-curve $-1 60.477919858394117 -3.0842234684003387 7.052903657522485 0 1 0 I I #
point $-1 60.477919858394117 -10.169756785362409 7.0529036575224922 #
point $-1 54.302180935522166 -7.8832940147557053 10.070993446966829 #
point $-1 54.302180935522166 -4.4535998588456494 10.070993446966829 #
straight-curve $-1 60.477919858394117 2.1671370882389454 89.055146316615335 0 0 -1 I I #
point $-1 60.477919858394117 2.1671370882389454 16.246732439873856 #
straight-curve $-1 60.477919858394117 3.0842234684003387 7.052903657522485 0 1 0 I I #
point $-1 60.477919858394117 2.1671370882389454 7.0529036575224922 #
point $-1 54.302180935522166 4.4535998588456494 10.070993446966829 #
point $-1 54.302180935522166 7.8832940147557053 10.070993446966829 #
straight-curve $-1 60.477919858394117 14.5040309618403 89.055146316615335 0 0 -1 I I #
point $-1 60.477919858394117 14.5040309618403 16.246732439873856 #
straight-curve $-1 60.477919858394117 9.252670405201016 7.052903657522485 0 1 0 I I #
point $-1 60.477919858394117 14.5040309618403 7.0529036575224922 #
point $-1 54.302180935522166 16.790493732447004 10.070993446966829 #
point $-1 54.302180935522166 20.22018788835706 10.070993446966829 #
straight-curve $-1 -60.477919858394117 -16.470714015050298 43.262811132004856 0 0 -1 I I #
point $-1 -60.477919858394117 -16.470714015050298 16.246732439873856 #
straight-curve $-1 -60.477919858394117 -10.322508108926435 12.057772812637044 0 -1 0 I I #
point $-1 -60.477919858394117 -16.470714015050298 12.057772812637044 #
point $-1 -55.885560677835251 -22.434002876196828 11.842794056931568 #
point $-1 -55.885560677835251 -18.856029559508908 11.842794056931568 #
straight-curve $-1 0 -53.464399602291422 0.807142342793707 -1 0 0 I I #
point $-1 60.477919858394117 -53.464399602291422 0.807142342793707 #
straight-curve $-1 60.477919858394117 -53.464399602291422 5.4024086649930823 0 0 -1 I I #
straight-curve $-1 0 53.464399602291422 0.807142342793707 1 0 0 I I #
straight-curve $-1 -60.477919858394117 53.464399602291422 5.4024086649930823 0 0 -1 I I #
point $-1 -60.477919858394117 53.464399602291422 0.807142342793707 #
End-of-ACIS-data 