500 0 15 0           
7 Unknown 11 ACIS 5.0 NT 24 Thu Mar 25 16:51:42 1999 
-1 9.9999999999999995e-007 1e-010 
body $-1 $15 $-1 $16 #
body $-1 $17 $-1 $18 #
body $-1 $19 $-1 $20 #
body $-1 $21 $-1 $22 #
body $-1 $23 $-1 $24 #
body $-1 $25 $-1 $26 #
body $-1 $27 $-1 $28 #
body $-1 $29 $-1 $30 #
body $-1 $31 $-1 $32 #
body $-1 $33 $-1 $34 #
body $-1 $35 $-1 $36 #
body $-1 $37 $-1 $38 #
body $-1 $39 $-1 $40 #
body $-1 $41 $-1 $42 #
body $-1 $43 $-1 $44 #
lump $-1 $-1 $45 $0 #
transform $-1 1 0 0 0 1 0 0 0 1 54.928434095278789 37.218804223774747 10.640759238511974 1 rotate no_reflect no_shear #
lump $-1 $-1 $46 $1 #
transform $-1 1 0 0 0 1 0 0 0 1 54.928434095278789 37.218804223774747 10.640759238511974 1 rotate no_reflect no_shear #
lump $-1 $-1 $47 $2 #
transform $-1 1 0 0 0 1 0 0 0 1 54.928434095278789 37.218804223774747 10.640759238511974 1 rotate no_reflect no_shear #
lump $-1 $-1 $48 $3 #
transform $-1 1 0 0 0 1 0 0 0 1 54.928434095278789 37.218804223774747 10.640759238511974 1 rotate no_reflect no_shear #
lump $-1 $-1 $49 $4 #
transform $-1 1 0 0 0 1 0 0 0 1 54.928434095278789 37.218804223774747 10.640759238511974 1 rotate no_reflect no_shear #
lump $-1 $-1 $50 $5 #
transform $-1 1 0 0 0 1 0 0 0 1 54.928434095278789 37.218804223774747 10.640759238511974 1 rotate no_reflect no_shear #
lump $-1 $-1 $51 $6 #
transform $-1 1 0 0 0 1 0 0 0 1 54.928434095278789 37.218804223774747 10.640759238511974 1 rotate no_reflect no_shear #
lump $-1 $-1 $52 $7 #
transform $-1 1 0 0 0 1 0 0 0 1 54.928434095278789 37.218804223774747 10.640759238511974 1 rotate no_reflect no_shear #
lump $-1 $-1 $53 $8 #
transform $-1 1 0 0 0 1 0 0 0 1 54.928434095278789 37.218804223774747 10.640759238511974 1 rotate no_reflect no_shear #
lump $-1 $-1 $54 $9 #
transform $-1 1 0 0 0 1 0 0 0 1 54.928434095278789 37.218804223774747 10.640759238511974 1 rotate no_reflect no_shear #
lump $-1 $-1 $55 $10 #
transform $-1 1 0 0 0 1 0 0 0 1 54.928434095278789 37.218804223774747 10.640759238511974 1 rotate no_reflect no_shear #
lump $-1 $-1 $56 $11 #
transform $-1 1 0 0 0 1 0 0 0 1 54.928434095278789 37.218804223774747 10.640759238511974 1 rotate no_reflect no_shear #
lump $-1 $-1 $57 $12 #
transform $-1 1 0 0 0 1 0 0 0 1 54.928434095278789 37.218804223774747 10.640759238511974 1 rotate no_reflect no_shear #
lump $-1 $-1 $58 $13 #
transform $-1 1 0 0 0 1 0 0 0 1 54.928434095278789 37.218804223774747 10.640759238511974 1 rotate no_reflect no_shear #
lump $-1 $-1 $59 $14 #
transform $-1 1 0 0 0 1 0 0 0 1 54.928434095278789 37.218804223774747 10.640759238511974 1 rotate no_reflect no_shear #
shell $-1 $-1 $-1 $60 $-1 $15 #
shell $-1 $-1 $-1 $61 $-1 $17 #
shell $-1 $-1 $-1 $62 $-1 $19 #
shell $-1 $-1 $-1 $63 $-1 $21 #
shell $-1 $-1 $-1 $64 $-1 $23 #
shell $-1 $-1 $-1 $65 $-1 $25 #
shell $-1 $-1 $-1 $66 $-1 $27 #
shell $-1 $-1 $-1 $67 $-1 $29 #
shell $-1 $-1 $-1 $68 $-1 $31 #
shell $-1 $-1 $-1 $69 $-1 $33 #
shell $-1 $-1 $-1 $70 $-1 $35 #
shell $-1 $-1 $-1 $71 $-1 $37 #
shell $-1 $-1 $-1 $72 $-1 $39 #
shell $-1 $-1 $-1 $73 $-1 $41 #
shell $-1 $-1 $-1 $74 $-1 $43 #
face $-1 $75 $76 $45 $-1 $77 forward single #
face $-1 $78 $79 $46 $-1 $80 reversed single #
face $-1 $81 $82 $47 $-1 $83 reversed single #
face $-1 $84 $85 $48 $-1 $86 reversed single #
face $-1 $87 $88 $49 $-1 $89 forward single #
face $-1 $90 $91 $50 $-1 $92 forward single #
face $-1 $93 $94 $51 $-1 $95 forward single #
face $-1 $96 $97 $52 $-1 $98 reversed single #
face $-1 $99 $100 $53 $-1 $101 forward single #
face $-1 $102 $103 $54 $-1 $104 forward single #
face $-1 $105 $106 $55 $-1 $107 forward single #
face $-1 $108 $109 $56 $-1 $110 reversed single #
face $-1 $111 $112 $57 $-1 $113 forward single #
face $-1 $114 $115 $58 $-1 $116 forward single #
face $-1 $117 $118 $59 $-1 $119 forward single #
face $-1 $120 $121 $45 $-1 $122 reversed single #
loop $-1 $-1 $123 $60 #
plane-surface $-1 0 0 10.640759238511974 0 0 1 1 0 0 forward_v I I I I #
face $-1 $124 $125 $46 $-1 $126 reversed single #
loop $-1 $-1 $127 $61 #
plane-surface $-1 -51.298576030411155 -32.704617910904609 0 1 0 0 0 0 -1 forward_v I I I I #
face $-1 $128 $129 $47 $-1 $130 reversed single #
loop $-1 $-1 $131 $62 #
plane-surface $-1 -49.798576030411155 28.190431598034472 0 0 1 0 0 0 1 forward_v I I I I #
face $-1 $132 $133 $48 $-1 $134 reversed single #
loop $-1 $-1 $135 $63 #
plane-surface $-1 -133.95285263040557 -13.263385250132956 83.90758079475502 0 1 0 -0.71933980857756763 0 0.69465836192734942 forward_v I I I I #
face $-1 $136 $137 $49 $-1 $138 forward single #
loop $-1 $139 $140 $64 #
cone-surface $-1 -52.841711348026202 -10.610708200106362 8.5229097097640096 0.71933980857756763 0 -0.69465836192734942 0.69465836192734942 0 0.71933980857756763 1 I I 0 1 1 forward I I I I #
face $-1 $141 $142 $50 $-1 $143 forward single #
loop $-1 $144 $145 $65 #
cone-surface $-1 -52.841711348026202 -6.6316926250664743 8.5229097097640096 0.71933980857756763 0 -0.69465836192734942 0.69465836192734942 0 0.71933980857756763 1 I I 0 1 1 forward I I I I #
face $-1 $146 $147 $51 $-1 $148 forward single #
loop $-1 $149 $150 $66 #
cone-surface $-1 -52.841711348026202 -2.6526770500265897 8.5229097097640096 0.71933980857756763 0 -0.69465836192734942 0.69465836192734942 0 0.71933980857756763 1 I I 0 1 1 forward I I I I #
face $-1 $151 $152 $52 $-1 $153 reversed single #
loop $-1 $-1 $154 $67 #
plane-surface $-1 -133.95285263040557 14.927046347901513 83.90758079475502 0 1 0 -0.71933980857756763 0 0.69465836192734942 forward_v I I I I #
face $-1 $155 $156 $53 $-1 $157 forward single #
loop $-1 $158 $159 $68 #
cone-surface $-1 -52.841711348026202 17.579723397928106 8.5229097097640096 0.71933980857756763 0 -0.69465836192734942 0.69465836192734942 0 0.71933980857756763 1 I I 0 1 1 forward I I I I #
face $-1 $160 $161 $54 $-1 $162 forward single #
loop $-1 $163 $164 $69 #
cone-surface $-1 -52.841711348026202 21.558738972967994 8.5229097097640096 0.71933980857756763 0 -0.69465836192734942 0.69465836192734942 0 0.71933980857756763 1 I I 0 1 1 forward I I I I #
face $-1 $165 $166 $55 $-1 $167 forward single #
loop $-1 $168 $169 $70 #
cone-surface $-1 -52.841711348026202 25.537754548007875 8.5229097097640096 0.71933980857756763 0 -0.69465836192734942 0.69465836192734942 0 0.71933980857756763 1 I I 0 1 1 forward I I I I #
face $-1 $170 $171 $56 $-1 $172 reversed single #
loop $-1 $-1 $173 $71 #
plane-surface $-1 68.469045794502264 20.457948726894887 160.48383198045582 0 -1 0 -0.7660444514056185 0 -0.64278759981090561 forward_v I I I I #
face $-1 $174 $175 $57 $-1 $176 forward single #
loop $-1 $177 $178 $72 #
cone-surface $-1 51.451692078277944 11.478107642192327 6.9944765066503507 -0.7660444514056185 0 -0.64278759981090561 0.64278759981090561 0 -0.7660444514056185 1 I I 0 1 1 forward I I I I #
face $-1 $179 $180 $58 $-1 $181 forward single #
loop $-1 $182 $183 $73 #
cone-surface $-1 51.451692078277944 14.845548048955791 6.9944765066503507 -0.7660444514056185 0 -0.64278759981090561 0.64278759981090561 0 -0.7660444514056185 1 I I 0 1 1 forward I I I I #
face $-1 $184 $185 $59 $-1 $186 forward single #
loop $-1 $187 $188 $74 #
cone-surface $-1 51.451692078277944 18.212988455719255 6.9944765066503507 -0.7660444514056185 0 -0.64278759981090561 0.64278759981090561 0 -0.7660444514056185 1 I I 0 1 1 forward I I I I #
face $-1 $189 $190 $45 $-1 $191 reversed single #
loop $-1 $-1 $192 $75 #
plane-surface $-1 0 0 -10.640759238511974 0 0 1 1 0 0 forward_v I I I I #
coedge $-1 $193 $194 $195 $196 forward $76 $-1 #
face $-1 $197 $198 $46 $-1 $199 reversed single #
loop $-1 $-1 $200 $78 #
plane-surface $-1 -49.798576030411155 -28.190431598034468 0 0 -1 0 0 0 -1 forward_v I I I I #
coedge $-1 $201 $202 $203 $204 forward $79 $-1 #
face $-1 $205 $206 $47 $-1 $207 reversed single #
loop $-1 $-1 $208 $81 #
plane-surface $-1 -51.298576030411155 32.704617910904609 0 1 0 0 0 0 -1 forward_v I I I I #
coedge $-1 $209 $210 $211 $212 forward $82 $-1 #
face $-1 $213 $214 $48 $-1 $215 reversed single #
loop $-1 $-1 $216 $84 #
plane-surface $-1 -54.928434095278803 -6.6316926250664743 7.5945886910335503 -0.71933980857756763 0 0.69465836192734942 0.69465836192734942 0 0.71933980857756763 forward_v I I I I #
coedge $-1 $217 $218 $219 $220 reversed $85 $-1 #
face $-1 $-1 $221 $49 $-1 $222 forward single #
loop $-1 $223 $224 $87 #
cone-surface $-1 -51.866145013498347 -10.610708200106362 7.5808162737915818 0.71933980857756763 0 -0.69465836192734942 0.34732918096367471 0 0.35966990428878381 1 I I -0.70710678118654746 0.70710678118654746 0.5 forward I I I I #
loop $-1 $-1 $225 $64 #
coedge $-1 $140 $140 $226 $227 reversed $88 $-1 #
face $-1 $-1 $228 $50 $-1 $229 forward single #
loop $-1 $230 $231 $90 #
cone-surface $-1 -51.866145013498347 -6.6316926250664743 7.5808162737915818 0.71933980857756763 0 -0.69465836192734942 0.34732918096367471 0 0.35966990428878381 1 I I -0.70710678118654746 0.70710678118654746 0.5 forward I I I I #
loop $-1 $-1 $232 $65 #
coedge $-1 $145 $145 $233 $234 reversed $91 $-1 #
face $-1 $-1 $235 $51 $-1 $236 forward single #
loop $-1 $237 $238 $93 #
cone-surface $-1 -51.866145013498347 -2.6526770500265897 7.5808162737915818 0.71933980857756763 0 -0.69465836192734942 0.34732918096367471 0 0.35966990428878381 1 I I -0.70710678118654746 0.70710678118654746 0.5 forward I I I I #
loop $-1 $-1 $239 $66 #
coedge $-1 $150 $150 $240 $241 reversed $94 $-1 #
face $-1 $242 $243 $52 $-1 $244 reversed single #
loop $-1 $-1 $245 $96 #
plane-surface $-1 -54.928434095278803 21.558738972967994 7.5945886910335503 -0.71933980857756763 0 0.69465836192734942 0.69465836192734942 0 0.71933980857756763 forward_v I I I I #
coedge $-1 $246 $247 $248 $249 reversed $97 $-1 #
face $-1 $-1 $250 $53 $-1 $251 forward single #
loop $-1 $252 $253 $99 #
cone-surface $-1 -51.866145013498347 17.579723397928106 7.5808162737915818 0.71933980857756763 0 -0.69465836192734942 0.34732918096367471 0 0.35966990428878381 1 I I -0.70710678118654746 0.70710678118654746 0.5 forward I I I I #
loop $-1 $-1 $254 $68 #
coedge $-1 $159 $159 $255 $256 reversed $100 $-1 #
face $-1 $-1 $257 $54 $-1 $258 forward single #
loop $-1 $259 $260 $102 #
cone-surface $-1 -51.866145013498347 21.558738972967994 7.5808162737915818 0.71933980857756763 0 -0.69465836192734942 0.34732918096367471 0 0.35966990428878381 1 I I -0.70710678118654746 0.70710678118654746 0.5 forward I I I I #
loop $-1 $-1 $261 $69 #
coedge $-1 $164 $164 $262 $263 reversed $103 $-1 #
face $-1 $-1 $264 $55 $-1 $265 forward single #
loop $-1 $266 $267 $105 #
cone-surface $-1 -51.866145013498347 25.537754548007875 7.5808162737915818 0.71933980857756763 0 -0.69465836192734942 0.34732918096367471 0 0.35966990428878381 1 I I -0.70710678118654746 0.70710678118654746 0.5 forward I I I I #
loop $-1 $-1 $268 $70 #
coedge $-1 $169 $169 $269 $270 reversed $106 $-1 #
face $-1 $271 $272 $56 $-1 $273 reversed single #
loop $-1 $-1 $274 $108 #
plane-surface $-1 -15.686198531672758 14.845548048955784 89.869199353504285 0.7660444514056185 0 0.64278759981090561 0.64278759981090561 0 -0.7660444514056185 forward_v I I I I #
coedge $-1 $275 $276 $277 $278 reversed $109 $-1 #
face $-1 $-1 $279 $57 $-1 $280 forward single #
loop $-1 $281 $282 $111 #
cone-surface $-1 49.658967579699762 11.478107642192327 5.4902020804746332 -0.7660444514056185 0 -0.64278759981090561 0.3213937999054528 0 -0.38302222570280925 1 I I -0.70710678118654746 0.70710678118654746 0.5 forward I I I I #
loop $-1 $-1 $283 $72 #
coedge $-1 $178 $178 $284 $285 reversed $112 $-1 #
face $-1 $-1 $286 $58 $-1 $287 forward single #
loop $-1 $288 $289 $114 #
cone-surface $-1 49.658967579699762 14.845548048955791 5.4902020804746332 -0.7660444514056185 0 -0.64278759981090561 0.3213937999054528 0 -0.38302222570280925 1 I I -0.70710678118654746 0.70710678118654746 0.5 forward I I I I #
loop $-1 $-1 $290 $73 #
coedge $-1 $183 $183 $291 $292 reversed $115 $-1 #
face $-1 $-1 $293 $59 $-1 $294 forward single #
loop $-1 $295 $296 $117 #
cone-surface $-1 49.658967579699762 18.212988455719255 5.4902020804746332 -0.7660444514056185 0 -0.64278759981090561 0.3213937999054528 0 -0.38302222570280925 1 I I -0.70710678118654746 0.70710678118654746 0.5 forward I I I I #
loop $-1 $-1 $297 $74 #
coedge $-1 $188 $188 $298 $299 reversed $118 $-1 #
face $-1 $300 $301 $45 $-1 $302 reversed single #
loop $-1 $-1 $303 $120 #
plane-surface $-1 0 -37.218804223774747 0 0 1 0 0 0 1 forward_v I I I I #
coedge $-1 $304 $305 $306 $307 forward $121 $-1 #
coedge $-1 $308 $123 $309 $310 forward $76 $-1 #
coedge $-1 $123 $308 $311 $312 forward $76 $-1 #
coedge $-1 $313 $314 $123 $196 reversed $315 $-1 #
edge $-1 $316 -37.218804223774747 $317 37.218804223774747 $195 $318 forward 7 unknown #
face $-1 $319 $320 $46 $-1 $321 forward single #
loop $-1 $-1 $322 $124 #
plane-surface $-1 -48.298576030411155 -32.704617910904609 0 -1 0 0 0 0 1 forward_v I I I I #
coedge $-1 $323 $324 $325 $326 forward $125 $-1 #
coedge $-1 $327 $127 $328 $329 reversed $79 $-1 #
coedge $-1 $127 $327 $330 $331 reversed $79 $-1 #
coedge $-1 $324 $323 $127 $204 reversed $125 $-1 #
edge $-1 $332 -10.640759238511974 $333 10.640759238511974 $203 $334 forward 7 unknown #
face $-1 $335 $336 $47 $-1 $337 reversed single #
loop $-1 $-1 $338 $128 #
plane-surface $-1 -48.298576030411155 32.704617910904609 0 -1 0 0 0 0 1 forward_v I I I I #
coedge $-1 $339 $340 $341 $342 reversed $129 $-1 #
coedge $-1 $343 $131 $344 $345 reversed $82 $-1 #
coedge $-1 $131 $343 $346 $347 reversed $82 $-1 #
coedge $-1 $340 $339 $131 $212 reversed $129 $-1 #
edge $-1 $348 -10.640759238511974 $349 10.640759238511974 $211 $350 forward 7 unknown #
face $-1 $351 $352 $48 $-1 $353 reversed single #
loop $-1 $-1 $354 $132 #
plane-surface $-1 -133.95285263040557 7.1054273576010019e-015 83.90758079475502 0 -1 0 0.71933980857756763 0 -0.69465836192734942 forward_v I I I I #
coedge $-1 $355 $356 $357 $358 reversed $133 $-1 #
coedge $-1 $218 $135 $359 $360 reversed $85 $-1 #
coedge $-1 $135 $217 $355 $361 reversed $85 $-1 #
coedge $-1 $357 $362 $135 $220 forward $363 $-1 #
edge $-1 $364 12.047992219923998 $365 14.989644853951013 $219 $366 forward 7 unknown #
loop $-1 $-1 $226 $136 #
plane-surface $-1 -54.928434095278803 -6.6316926250664743 7.5945886910335503 -0.71933980857756763 0 0.69465836192734942 0.69465836192734942 0 0.71933980857756763 forward_v I I I I #
loop $-1 $-1 $367 $87 #
coedge $-1 $224 $224 $225 $368 reversed $137 $-1 #
coedge $-1 $225 $225 $224 $368 forward $139 $-1 #
coedge $-1 $226 $226 $140 $227 forward $221 $-1 #
edge $-1 $369 0 $369 6.2831853071796004 $226 $370 forward 7 unknown #
loop $-1 $-1 $233 $141 #
plane-surface $-1 -54.928434095278803 -6.6316926250664743 7.5945886910335503 -0.71933980857756763 0 0.69465836192734942 0.69465836192734942 0 0.71933980857756763 forward_v I I I I #
loop $-1 $-1 $371 $90 #
coedge $-1 $231 $231 $232 $372 reversed $142 $-1 #
coedge $-1 $232 $232 $231 $372 forward $144 $-1 #
coedge $-1 $233 $233 $145 $234 forward $228 $-1 #
edge $-1 $373 0 $373 6.2831853071796004 $233 $374 forward 7 unknown #
loop $-1 $-1 $240 $146 #
plane-surface $-1 -54.928434095278803 -6.6316926250664743 7.5945886910335503 -0.71933980857756763 0 0.69465836192734942 0.69465836192734942 0 0.71933980857756763 forward_v I I I I #
loop $-1 $-1 $375 $93 #
coedge $-1 $238 $238 $239 $376 reversed $147 $-1 #
coedge $-1 $239 $239 $238 $376 forward $149 $-1 #
coedge $-1 $240 $240 $150 $241 forward $235 $-1 #
edge $-1 $377 0 $377 6.2831853071796004 $240 $378 forward 7 unknown #
face $-1 $379 $380 $52 $-1 $381 forward single #
loop $-1 $-1 $382 $151 #
plane-surface $-1 -133.95285263040557 28.190431598034476 83.90758079475502 0 -1 0 0.71933980857756763 0 -0.69465836192734942 forward_v I I I I #
coedge $-1 $383 $384 $385 $386 reversed $152 $-1 #
coedge $-1 $247 $154 $387 $388 reversed $97 $-1 #
coedge $-1 $154 $246 $383 $389 reversed $97 $-1 #
coedge $-1 $385 $390 $154 $249 forward $380 $-1 #
edge $-1 $391 12.047992219923998 $392 14.989644853951013 $248 $393 forward 7 unknown #
loop $-1 $-1 $255 $155 #
plane-surface $-1 -54.928434095278803 21.558738972967994 7.5945886910335503 -0.71933980857756763 0 0.69465836192734942 0.69465836192734942 0 0.71933980857756763 forward_v I I I I #
loop $-1 $-1 $394 $99 #
coedge $-1 $253 $253 $254 $395 reversed $156 $-1 #
coedge $-1 $254 $254 $253 $395 forward $158 $-1 #
coedge $-1 $255 $255 $159 $256 forward $250 $-1 #
edge $-1 $396 0 $396 6.2831853071796004 $255 $397 forward 7 unknown #
loop $-1 $-1 $262 $160 #
plane-surface $-1 -54.928434095278803 21.558738972967994 7.5945886910335503 -0.71933980857756763 0 0.69465836192734942 0.69465836192734942 0 0.71933980857756763 forward_v I I I I #
loop $-1 $-1 $398 $102 #
coedge $-1 $260 $260 $261 $399 reversed $161 $-1 #
coedge $-1 $261 $261 $260 $399 forward $163 $-1 #
coedge $-1 $262 $262 $164 $263 forward $257 $-1 #
edge $-1 $400 0 $400 6.2831853071796004 $262 $401 forward 7 unknown #
loop $-1 $-1 $269 $165 #
plane-surface $-1 -54.928434095278803 21.558738972967994 7.5945886910335503 -0.71933980857756763 0 0.69465836192734942 0.69465836192734942 0 0.71933980857756763 forward_v I I I I #
loop $-1 $-1 $402 $105 #
coedge $-1 $267 $267 $268 $403 reversed $166 $-1 #
coedge $-1 $268 $268 $267 $403 forward $168 $-1 #
coedge $-1 $269 $269 $169 $270 forward $264 $-1 #
edge $-1 $404 0 $404 6.2831853071796004 $269 $405 forward 7 unknown #
face $-1 $406 $407 $56 $-1 $408 forward single #
loop $-1 $-1 $409 $170 #
plane-surface $-1 68.469045794502264 9.2331473710166811 160.48383198045582 0 1 0 0.7660444514056185 0 0.64278759981090561 forward_v I I I I #
coedge $-1 $410 $411 $412 $413 reversed $171 $-1 #
coedge $-1 $276 $173 $414 $415 reversed $109 $-1 #
coedge $-1 $173 $275 $410 $416 reversed $109 $-1 #
coedge $-1 $412 $417 $173 $278 forward $407 $-1 #
edge $-1 $418 -20.693911198027656 $419 -16.559831709776724 $277 $420 forward 7 unknown #
loop $-1 $-1 $284 $174 #
plane-surface $-1 -15.686198531672758 14.845548048955784 89.869199353504285 0.7660444514056185 0 0.64278759981090561 0.64278759981090561 0 -0.7660444514056185 forward_v I I I I #
loop $-1 $-1 $421 $111 #
coedge $-1 $282 $282 $283 $422 reversed $175 $-1 #
coedge $-1 $283 $283 $282 $422 forward $177 $-1 #
coedge $-1 $284 $284 $178 $285 forward $279 $-1 #
edge $-1 $423 0 $423 6.2831853071796004 $284 $424 forward 7 unknown #
loop $-1 $-1 $291 $179 #
plane-surface $-1 -15.686198531672758 14.845548048955784 89.869199353504285 0.7660444514056185 0 0.64278759981090561 0.64278759981090561 0 -0.7660444514056185 forward_v I I I I #
loop $-1 $-1 $425 $114 #
coedge $-1 $289 $289 $290 $426 reversed $180 $-1 #
coedge $-1 $290 $290 $289 $426 forward $182 $-1 #
coedge $-1 $291 $291 $183 $292 forward $286 $-1 #
edge $-1 $427 0 $427 6.2831853071796004 $291 $428 forward 7 unknown #
loop $-1 $-1 $298 $184 #
plane-surface $-1 -15.686198531672758 14.845548048955784 89.869199353504285 0.7660444514056185 0 0.64278759981090561 0.64278759981090561 0 -0.7660444514056185 forward_v I I I I #
loop $-1 $-1 $429 $117 #
coedge $-1 $296 $296 $297 $430 reversed $185 $-1 #
coedge $-1 $297 $297 $296 $430 forward $187 $-1 #
coedge $-1 $298 $298 $188 $299 forward $293 $-1 #
edge $-1 $431 0 $431 6.2831853071796004 $298 $432 forward 7 unknown #
face $-1 $433 $434 $45 $-1 $435 reversed single #
loop $-1 $-1 $436 $189 #
plane-surface $-1 -54.928434095278789 0 0 1 0 0 0 0 -1 forward_v I I I I #
coedge $-1 $437 $311 $438 $439 forward $190 $-1 #
coedge $-1 $440 $192 $437 $441 forward $121 $-1 #
coedge $-1 $192 $440 $442 $443 forward $121 $-1 #
coedge $-1 $314 $313 $192 $307 reversed $315 $-1 #
edge $-1 $444 -37.218804223774747 $445 37.218804223774747 $306 $446 forward 7 unknown #
coedge $-1 $194 $193 $447 $448 forward $76 $-1 #
coedge $-1 $449 $450 $193 $310 reversed $434 $-1 #
edge $-1 $317 -54.928434095278789 $451 54.928434095278789 $309 $452 forward 7 unknown #
coedge $-1 $303 $453 $194 $312 reversed $190 $-1 #
edge $-1 $454 -54.928434095278789 $316 54.928434095278789 $311 $455 forward 7 unknown #
coedge $-1 $306 $195 $453 $456 forward $315 $-1 #
coedge $-1 $195 $306 $449 $457 reversed $315 $-1 #
loop $-1 $-1 $313 $433 #
vertex $-1 $196 $458 #
vertex $-1 $196 $459 #
straight-curve $-1 54.928434095278789 0 10.640759238511974 0 1 0 I I #
face $-1 $460 $461 $46 $-1 $462 reversed single #
loop $-1 $-1 $463 $197 #
plane-surface $-1 0 0 10.640759238511974 0 0 1 1 0 0 forward_v I I I I #
coedge $-1 $464 $465 $466 $467 reversed $198 $-1 #
coedge $-1 $203 $200 $468 $469 reversed $125 $-1 #
coedge $-1 $200 $203 $470 $471 reversed $125 $-1 #
coedge $-1 $465 $464 $200 $326 reversed $198 $-1 #
edge $-1 $472 -10.640759238511974 $473 10.640759238511974 $325 $474 forward 7 unknown #
coedge $-1 $202 $201 $475 $476 reversed $79 $-1 #
coedge $-1 $468 $477 $201 $329 forward $461 $-1 #
edge $-1 $478 -20.866495268322442 $333 -11.838122642582164 $328 $479 forward 7 unknown #
coedge $-1 $480 $470 $202 $331 forward $320 $-1 #
edge $-1 $332 11.838122642582164 $481 20.866495268322442 $330 $482 forward 7 unknown #
vertex $-1 $331 $483 #
vertex $-1 $329 $484 #
straight-curve $-1 -51.298576030411155 -28.190431598034468 0 0 0 -1 I I #
face $-1 $485 $486 $47 $-1 $487 forward single #
loop $-1 $-1 $488 $205 #
plane-surface $-1 0 0 -10.640759238511974 0 0 1 1 0 0 forward_v I I I I #
coedge $-1 $489 $490 $343 $491 forward $206 $-1 #
coedge $-1 $211 $208 $492 $493 reversed $129 $-1 #
coedge $-1 $208 $211 $494 $495 reversed $129 $-1 #
coedge $-1 $496 $497 $208 $342 forward $498 $-1 #
edge $-1 $499 -10.640759238511974 $500 10.640759238511974 $341 $501 forward 7 unknown #
coedge $-1 $210 $209 $338 $491 reversed $82 $-1 #
coedge $-1 $492 $488 $209 $345 forward $336 $-1 #
edge $-1 $502 23.399288015205578 $349 26.399288015205578 $344 $503 forward 7 unknown #
coedge $-1 $504 $494 $210 $347 forward $486 $-1 #
edge $-1 $348 -26.399288015205578 $505 -23.399288015205578 $346 $506 forward 7 unknown #
vertex $-1 $347 $507 #
vertex $-1 $345 $508 #
straight-curve $-1 -51.298576030411155 28.190431598034472 0 0 0 -1 I I #
face $-1 $-1 $363 $48 $-1 $509 forward single #
loop $-1 $-1 $510 $213 #
plane-surface $-1 -54.928434095278789 0 0 1 0 0 0 0 -1 forward_v I I I I #
coedge $-1 $511 $512 $513 $514 reversed $214 $-1 #
coedge $-1 $515 $216 $218 $361 forward $133 $-1 #
coedge $-1 $216 $515 $511 $516 forward $133 $-1 #
coedge $-1 $513 $219 $216 $358 forward $363 $-1 #
edge $-1 $365 -9.9475389375997185 $517 3.3158463125332442 $357 $518 forward 7 unknown #
coedge $-1 $519 $520 $217 $360 forward $352 $-1 #
edge $-1 $521 -34.359201706343946 $364 -31.313031158865535 $359 $522 forward 7 unknown #
edge $-1 $365 -4.2346753386302431 $521 -2.0733024663016622e-014 $218 $523 forward 7 unknown #
coedge $-1 $219 $513 $519 $524 forward $363 $-1 #
loop $-1 $-1 $513 $351 #
vertex $-1 $360 $525 #
vertex $-1 $220 $526 #
straight-curve $-1 -66.976426315202787 -13.263385250132956 10.640759238511976 1 0 0 I I #
coedge $-1 $367 $367 $-1 $527 reversed $223 $-1 #
edge $-1 $528 0 $528 6.2831853071796004 $224 $529 forward 7 unknown #
vertex $-1 $227 $530 #
ellipse-curve $-1 -53.457607778265285 -10.610708200106362 9.11767396477277 -0.71933980857756763 0 0.69465836192734942 0.69465836192734942 0 0.71933980857756763 1 I I #
coedge $-1 $371 $371 $-1 $531 reversed $230 $-1 #
edge $-1 $532 0 $532 6.2831853071796004 $231 $533 forward 7 unknown #
vertex $-1 $234 $534 #
ellipse-curve $-1 -53.457607778265285 -6.6316926250664743 9.11767396477277 -0.71933980857756763 0 0.69465836192734942 0.69465836192734942 0 0.71933980857756763 1 I I #
coedge $-1 $375 $375 $-1 $535 reversed $237 $-1 #
edge $-1 $536 0 $536 6.2831853071796004 $238 $537 forward 7 unknown #
vertex $-1 $241 $538 #
ellipse-curve $-1 -53.457607778265285 -2.6526770500265897 9.11767396477277 -0.71933980857756763 0 0.69465836192734942 0.69465836192734942 0 0.71933980857756763 1 I I #
face $-1 $-1 $539 $52 $-1 $540 reversed single #
loop $-1 $-1 $248 $242 #
plane-surface $-1 0 0 10.640759238511974 0 0 1 1 0 0 forward_v I I I I #
coedge $-1 $541 $542 $543 $544 reversed $243 $-1 #
coedge $-1 $545 $245 $247 $389 forward $152 $-1 #
coedge $-1 $245 $545 $541 $546 forward $152 $-1 #
coedge $-1 $543 $248 $245 $386 forward $380 $-1 #
edge $-1 $392 4.1476768614175157 $547 17.411062111550478 $385 $548 forward 7 unknown #
coedge $-1 $549 $550 $246 $388 forward $539 $-1 #
edge $-1 $551 -34.359201706343946 $391 -31.313031158865535 $387 $552 forward 7 unknown #
edge $-1 $392 -4.2346753386302431 $551 -2.0733024663016622e-014 $247 $553 forward 7 unknown #
coedge $-1 $248 $543 $549 $554 forward $380 $-1 #
vertex $-1 $388 $555 #
vertex $-1 $249 $556 #
straight-curve $-1 -66.976426315202787 14.927046347901513 10.640759238511976 1 0 0 I I #
coedge $-1 $394 $394 $-1 $557 reversed $252 $-1 #
edge $-1 $558 0 $558 6.2831853071796004 $253 $559 forward 7 unknown #
vertex $-1 $256 $560 #
ellipse-curve $-1 -53.457607778265285 17.579723397928106 9.11767396477277 -0.71933980857756763 0 0.69465836192734942 0.69465836192734942 0 0.71933980857756763 1 I I #
coedge $-1 $398 $398 $-1 $561 reversed $259 $-1 #
edge $-1 $562 0 $562 6.2831853071796004 $260 $563 forward 7 unknown #
vertex $-1 $263 $564 #
ellipse-curve $-1 -53.457607778265285 21.558738972967994 9.11767396477277 -0.71933980857756763 0 0.69465836192734942 0.69465836192734942 0 0.71933980857756763 1 I I #
coedge $-1 $402 $402 $-1 $565 reversed $266 $-1 #
edge $-1 $566 0 $566 6.2831853071796004 $267 $567 forward 7 unknown #
vertex $-1 $270 $568 #
ellipse-curve $-1 -53.457607778265285 25.537754548007875 9.11767396477277 -0.71933980857756763 0 0.69465836192734942 0.69465836192734942 0 0.71933980857756763 1 I I #
face $-1 $-1 $569 $56 $-1 $570 reversed single #
loop $-1 $-1 $277 $271 #
plane-surface $-1 0 0 10.640759238511974 0 0 1 1 0 0 forward_v I I I I #
coedge $-1 $571 $572 $573 $574 reversed $272 $-1 #
coedge $-1 $575 $274 $276 $416 forward $171 $-1 #
coedge $-1 $274 $575 $571 $576 forward $171 $-1 #
coedge $-1 $573 $277 $274 $413 forward $407 $-1 #
edge $-1 $419 -13.035174702416995 $577 -1.810373346538789 $412 $578 forward 7 unknown #
coedge $-1 $579 $580 $275 $415 forward $569 $-1 #
edge $-1 $581 -74.527960962898661 $418 -69.601156751715934 $414 $582 forward 7 unknown #
edge $-1 $419 103.42538212973894 $581 109.85686819055762 $276 $583 forward 7 unknown #
coedge $-1 $277 $573 $579 $584 forward $407 $-1 #
vertex $-1 $278 $585 #
vertex $-1 $278 $586 #
straight-curve $-1 34.234522897251132 20.457948726894887 10.640759238511976 -1 0 0 I I #
coedge $-1 $421 $421 $-1 $587 reversed $281 $-1 #
edge $-1 $588 0 $588 6.2831853071796004 $282 $589 forward 7 unknown #
vertex $-1 $285 $590 #
ellipse-curve $-1 52.861394351153308 11.478107642192327 8.1773571329206103 0.7660444514056185 0 0.64278759981090561 0.64278759981090561 0 -0.7660444514056185 1 I I #
coedge $-1 $425 $425 $-1 $591 reversed $288 $-1 #
edge $-1 $592 0 $592 6.2831853071796004 $289 $593 forward 7 unknown #
vertex $-1 $292 $594 #
ellipse-curve $-1 52.861394351153308 14.845548048955791 8.1773571329206103 0.7660444514056185 0 0.64278759981090561 0.64278759981090561 0 -0.7660444514056185 1 I I #
coedge $-1 $429 $429 $-1 $595 reversed $295 $-1 #
edge $-1 $596 0 $596 6.2831853071796004 $296 $597 forward 7 unknown #
vertex $-1 $299 $598 #
ellipse-curve $-1 52.861394351153308 18.212988455719255 8.1773571329206103 0.7660444514056185 0 0.64278759981090561 0.64278759981090561 0 -0.7660444514056185 1 I I #
face $-1 $-1 $315 $45 $-1 $599 reversed single #
loop $-1 $-1 $449 $300 #
plane-surface $-1 0 37.218804223774747 0 0 -1 0 0 0 -1 forward_v I I I I #
coedge $-1 $600 $447 $450 $601 forward $301 $-1 #
coedge $-1 $453 $303 $304 $441 reversed $190 $-1 #
coedge $-1 $447 $600 $303 $439 reversed $301 $-1 #
edge $-1 $454 -10.640759238511974 $602 10.640759238511974 $438 $603 forward 7 unknown #
coedge $-1 $305 $304 $600 $604 forward $121 $-1 #
edge $-1 $445 -54.928434095278789 $602 54.928434095278789 $437 $605 forward 7 unknown #
coedge $-1 $450 $449 $305 $443 reversed $434 $-1 #
edge $-1 $606 -54.928434095278789 $444 54.928434095278789 $442 $607 forward 7 unknown #
vertex $-1 $307 $608 #
vertex $-1 $456 $609 #
straight-curve $-1 54.928434095278789 0 -10.640759238511974 0 -1 0 I I #
coedge $-1 $436 $438 $308 $448 reversed $301 $-1 #
edge $-1 $451 -37.218804223774747 $454 37.218804223774747 $447 $610 forward 7 unknown #
coedge $-1 $442 $309 $314 $457 forward $434 $-1 #
coedge $-1 $309 $442 $436 $601 reversed $434 $-1 #
vertex $-1 $310 $611 #
straight-curve $-1 0 37.218804223774747 10.640759238511974 -1 0 0 I I #
coedge $-1 $311 $437 $313 $456 reversed $190 $-1 #
vertex $-1 $448 $612 #
straight-curve $-1 0 -37.218804223774747 10.640759238511974 1 0 0 I I #
edge $-1 $316 -10.640759238511974 $445 10.640759238511974 $313 $613 forward 7 unknown #
edge $-1 $317 -10.640759238511974 $444 10.640759238511974 $314 $614 forward 7 unknown #
point $-1 54.928434095278789 -37.218804223774747 10.640759238511974 #
point $-1 54.928434095278789 37.218804223774747 10.640759238511974 #
face $-1 $-1 $615 $46 $-1 $616 reversed single #
loop $-1 $-1 $617 $319 #
plane-surface $-1 0 0 -10.640759238511974 0 0 1 1 0 0 forward_v I I I I #
coedge $-1 $470 $480 $465 $618 forward $320 $-1 #
coedge $-1 $325 $322 $617 $619 reversed $198 $-1 #
coedge $-1 $322 $325 $463 $618 reversed $198 $-1 #
coedge $-1 $620 $621 $322 $467 forward $615 $-1 #
edge $-1 $622 -10.640759238511974 $623 10.640759238511974 $466 $624 forward 7 unknown #
coedge $-1 $617 $328 $323 $469 forward $461 $-1 #
edge $-1 $333 -26.399288015205578 $473 -23.399288015205578 $468 $625 forward 7 unknown #
coedge $-1 $330 $463 $324 $471 forward $320 $-1 #
edge $-1 $472 23.399288015205578 $332 26.399288015205578 $470 $626 forward 7 unknown #
vertex $-1 $471 $627 #
vertex $-1 $469 $628 #
straight-curve $-1 -48.298576030411155 -28.190431598034468 0 0 0 -1 I I #
coedge $-1 $621 $620 $327 $476 forward $615 $-1 #
edge $-1 $481 -10.640759238511974 $478 10.640759238511974 $475 $629 forward 7 unknown #
coedge $-1 $328 $617 $621 $630 forward $461 $-1 #
vertex $-1 $329 $631 #
straight-curve $-1 -51.298576030411155 -16.352308955452305 -10.640759238511974 0 1 0 I I #
coedge $-1 $463 $330 $620 $632 forward $320 $-1 #
vertex $-1 $632 $633 #
straight-curve $-1 -51.298576030411155 -16.352308955452305 10.640759238511974 0 -1 0 I I #
point $-1 -51.298576030411155 -28.190431598034468 10.640759238511974 #
point $-1 -51.298576030411155 -28.190431598034468 -10.640759238511974 #
face $-1 $-1 $498 $47 $-1 $634 reversed single #
loop $-1 $-1 $504 $335 #
plane-surface $-1 0 0 10.640759238511974 0 0 1 1 0 0 forward_v I I I I #
coedge $-1 $344 $635 $489 $636 forward $336 $-1 #
coedge $-1 $637 $338 $488 $636 reversed $206 $-1 #
coedge $-1 $338 $637 $504 $638 reversed $206 $-1 #
edge $-1 $505 -10.640759238511974 $502 10.640759238511974 $338 $639 forward 7 unknown #
coedge $-1 $635 $344 $339 $493 forward $336 $-1 #
edge $-1 $349 11.838122642582167 $499 20.866495268322442 $492 $640 forward 7 unknown #
coedge $-1 $346 $641 $340 $495 forward $486 $-1 #
edge $-1 $500 -20.866495268322442 $348 -11.838122642582167 $494 $642 forward 7 unknown #
coedge $-1 $643 $341 $641 $644 reversed $498 $-1 #
coedge $-1 $341 $643 $635 $645 reversed $498 $-1 #
loop $-1 $-1 $643 $485 #
vertex $-1 $645 $646 #
vertex $-1 $342 $647 #
straight-curve $-1 -51.298576030411155 37.218804223774747 0 0 0 1 I I #
vertex $-1 $345 $648 #
straight-curve $-1 -24.899288015205578 28.190431598034472 -10.640759238511974 -1 0 0 I I #
coedge $-1 $641 $346 $490 $638 forward $486 $-1 #
vertex $-1 $347 $649 #
straight-curve $-1 -24.899288015205578 28.190431598034472 10.640759238511974 1 0 0 I I #
point $-1 -51.298576030411155 28.190431598034472 10.640759238511974 #
point $-1 -51.298576030411155 28.190431598034472 -10.640759238511974 #
plane-surface $-1 0 0 10.640759238511974 0 0 1 1 0 0 forward_v I I I I #
coedge $-1 $520 $519 $512 $650 forward $352 $-1 #
coedge $-1 $512 $354 $356 $516 reversed $214 $-1 #
coedge $-1 $354 $511 $510 $650 reversed $214 $-1 #
coedge $-1 $362 $357 $354 $514 forward $363 $-1 #
edge $-1 $517 -14.989644853951013 $651 -12.047992219923998 $513 $652 forward 7 unknown #
coedge $-1 $356 $355 $520 $653 reversed $133 $-1 #
edge $-1 $654 2.0733024663016622e-014 $517 4.2346753386302431 $511 $655 forward 7 unknown #
vertex $-1 $358 $656 #
straight-curve $-1 -51.98678146125178 -3.3158463125332371 10.640759238511976 0 1 0 I I #
coedge $-1 $510 $359 $362 $524 reversed $352 $-1 #
coedge $-1 $359 $510 $515 $653 forward $352 $-1 #
vertex $-1 $360 $657 #
straight-curve $-1 -54.928434095278789 -13.263385250132956 41.95379039737751 0 0 1 I I #
straight-curve $-1 -54.928434095278803 -13.263385250132956 7.5945886910335503 -0.69465836192734942 0 -0.71933980857756763 I I #
edge $-1 $651 -7.1054273576010019e-015 $364 13.263385250132956 $519 $658 forward 7 unknown #
point $-1 -54.928434095278789 -13.263385250132956 10.640759238511974 #
point $-1 -51.986781461251773 -13.263385250132956 10.640759238511974 #
edge $-1 $659 1 $659 0 $367 $-1 forward 7 unknown #
vertex $-1 $368 $660 #
ellipse-curve $-1 -52.225814917787133 -10.610708200106362 7.9281454547552563 -0.71933980857756763 0 0.69465836192734942 0.69465836192734942 0 0.71933980857756763 1 I I #
point $-1 -52.762949416337925 -10.610708200106362 9.8370137733503302 #
edge $-1 $661 1 $661 0 $371 $-1 forward 7 unknown #
vertex $-1 $372 $662 #
ellipse-curve $-1 -52.225814917787133 -6.6316926250664743 7.9281454547552563 -0.71933980857756763 0 0.69465836192734942 0.69465836192734942 0 0.71933980857756763 1 I I #
point $-1 -52.762949416337925 -6.6316926250664743 9.8370137733503302 #
edge $-1 $663 1 $663 0 $375 $-1 forward 7 unknown #
vertex $-1 $376 $664 #
ellipse-curve $-1 -52.225814917787133 -2.6526770500265897 7.9281454547552563 -0.71933980857756763 0 0.69465836192734942 0.69465836192734942 0 0.71933980857756763 1 I I #
point $-1 -52.762949416337925 -2.6526770500265897 9.8370137733503302 #
loop $-1 $-1 $387 $379 #
plane-surface $-1 -54.928434095278789 0 0 1 0 0 0 0 -1 forward_v I I I I #
coedge $-1 $542 $382 $384 $546 reversed $243 $-1 #
coedge $-1 $382 $541 $665 $666 reversed $243 $-1 #
coedge $-1 $390 $385 $382 $544 forward $380 $-1 #
edge $-1 $547 -14.989644853951013 $667 -12.047992219923998 $543 $668 forward 7 unknown #
coedge $-1 $384 $383 $550 $669 reversed $152 $-1 #
edge $-1 $670 2.0733024663016622e-014 $547 4.2346753386302431 $541 $671 forward 7 unknown #
vertex $-1 $386 $672 #
straight-curve $-1 -51.98678146125178 10.779369486483997 10.640759238511976 0 1 0 I I #
coedge $-1 $665 $387 $390 $554 reversed $539 $-1 #
coedge $-1 $387 $665 $545 $669 forward $539 $-1 #
vertex $-1 $388 $673 #
straight-curve $-1 -54.928434095278789 14.927046347901513 41.95379039737751 0 0 1 I I #
straight-curve $-1 -54.928434095278803 14.927046347901513 7.5945886910335503 -0.69465836192734942 0 -0.71933980857756763 I I #
edge $-1 $667 -28.190431598034476 $391 -14.927046347901513 $549 $674 forward 7 unknown #
point $-1 -54.928434095278789 14.927046347901513 10.640759238511974 #
point $-1 -51.986781461251773 14.927046347901513 10.640759238511974 #
edge $-1 $675 1 $675 0 $394 $-1 forward 7 unknown #
vertex $-1 $395 $676 #
ellipse-curve $-1 -52.225814917787133 17.579723397928106 7.9281454547552563 -0.71933980857756763 0 0.69465836192734942 0.69465836192734942 0 0.71933980857756763 1 I I #
point $-1 -52.762949416337925 17.579723397928106 9.8370137733503302 #
edge $-1 $677 1 $677 0 $398 $-1 forward 7 unknown #
vertex $-1 $399 $678 #
ellipse-curve $-1 -52.225814917787133 21.558738972967994 7.9281454547552563 -0.71933980857756763 0 0.69465836192734942 0.69465836192734942 0 0.71933980857756763 1 I I #
point $-1 -52.762949416337925 21.558738972967994 9.8370137733503302 #
edge $-1 $679 1 $679 0 $402 $-1 forward 7 unknown #
vertex $-1 $403 $680 #
ellipse-curve $-1 -52.225814917787133 25.537754548007875 7.9281454547552563 -0.71933980857756763 0 0.69465836192734942 0.69465836192734942 0 0.71933980857756763 1 I I #
point $-1 -52.762949416337925 25.537754548007875 9.8370137733503302 #
loop $-1 $-1 $414 $406 #
plane-surface $-1 54.928434095278789 0 0 -1 0 0 0 0 1 forward_v I I I I #
coedge $-1 $572 $409 $411 $576 reversed $272 $-1 #
coedge $-1 $409 $571 $681 $682 reversed $272 $-1 #
coedge $-1 $417 $412 $409 $574 forward $407 $-1 #
edge $-1 $577 16.559831709776724 $683 20.693911198027656 $573 $684 forward 7 unknown #
coedge $-1 $411 $410 $580 $685 reversed $171 $-1 #
edge $-1 $686 -109.85686819055762 $577 -103.42538212973894 $571 $687 forward 7 unknown #
vertex $-1 $413 $688 #
straight-curve $-1 50.794354607027842 7.4227740244778921 10.640759238511976 0 -1 0 I I #
coedge $-1 $681 $414 $417 $584 reversed $569 $-1 #
coedge $-1 $414 $681 $575 $685 forward $569 $-1 #
vertex $-1 $415 $689 #
straight-curve $-1 54.928434095278789 20.457948726894887 80.241915990227909 0 0 1 I I #
straight-curve $-1 -15.686198531672758 20.457948726894887 89.869199353504285 0.64278759981090561 0 -0.7660444514056185 I I #
edge $-1 $683 9.2331473710166811 $418 20.457948726894887 $579 $690 forward 7 unknown #
point $-1 54.928434095278789 20.457948726894887 10.640759238511974 #
point $-1 50.794354607027856 20.457948726894887 10.640759238511976 #
edge $-1 $691 1 $691 0 $421 $-1 forward 7 unknown #
vertex $-1 $422 $692 #
ellipse-curve $-1 50.041989805402572 11.478107642192327 5.8115958803800858 0.7660444514056185 0 0.64278759981090561 0.64278759981090561 0 -0.7660444514056185 1 I I #
point $-1 53.504181950964224 11.478107642192327 7.4113126815149979 #
edge $-1 $693 1 $693 0 $425 $-1 forward 7 unknown #
vertex $-1 $426 $694 #
ellipse-curve $-1 50.041989805402572 14.845548048955791 5.8115958803800858 0.7660444514056185 0 0.64278759981090561 0.64278759981090561 0 -0.7660444514056185 1 I I #
point $-1 53.504181950964224 14.845548048955791 7.4113126815149979 #
edge $-1 $695 1 $695 0 $429 $-1 forward 7 unknown #
vertex $-1 $430 $696 #
ellipse-curve $-1 50.041989805402572 18.212988455719255 5.8115958803800858 0.7660444514056185 0 0.64278759981090561 0.64278759981090561 0 -0.7660444514056185 1 I I #
point $-1 53.504181950964224 18.212988455719255 7.4113126815149979 #
plane-surface $-1 54.928434095278789 0 0 -1 0 0 0 0 1 forward_v I I I I #
coedge $-1 $438 $436 $440 $604 reversed $301 $-1 #
edge $-1 $451 -10.640759238511974 $606 10.640759238511974 $450 $697 forward 7 unknown #
vertex $-1 $604 $698 #
straight-curve $-1 -54.928434095278789 -37.218804223774747 0 0 0 -1 I I #
edge $-1 $602 -37.218804223774747 $606 37.218804223774747 $600 $699 forward 7 unknown #
straight-curve $-1 0 -37.218804223774747 -10.640759238511974 -1 0 0 I I #
vertex $-1 $443 $700 #
straight-curve $-1 0 37.218804223774747 -10.640759238511974 1 0 0 I I #
point $-1 54.928434095278789 37.218804223774747 -10.640759238511974 #
point $-1 54.928434095278789 -37.218804223774747 -10.640759238511974 #
straight-curve $-1 -54.928434095278789 0 10.640759238511974 0 -1 0 I I #
point $-1 -54.928434095278789 37.218804223774747 10.640759238511974 #
point $-1 -54.928434095278789 -37.218804223774747 10.640759238511974 #
straight-curve $-1 54.928434095278789 -37.218804223774747 0 0 0 -1 I I #
straight-curve $-1 54.928434095278789 37.218804223774747 0 0 0 -1 I I #
loop $-1 $-1 $466 $460 #
plane-surface $-1 0 -37.218804223774747 0 0 1 0 0 0 1 forward_v I I I I #
coedge $-1 $477 $468 $464 $619 forward $461 $-1 #
edge $-1 $623 -20.866495268322442 $472 -11.838122642582164 $463 $701 forward 7 unknown #
edge $-1 $473 11.838122642582164 $622 20.866495268322442 $617 $702 forward 7 unknown #
coedge $-1 $475 $466 $480 $632 reversed $615 $-1 #
coedge $-1 $466 $475 $477 $630 reversed $615 $-1 #
vertex $-1 $630 $703 #
vertex $-1 $467 $704 #
straight-curve $-1 -48.298576030411155 -37.218804223774747 0 0 0 1 I I #
straight-curve $-1 -24.899288015205578 -28.190431598034468 -10.640759238511974 1 0 0 I I #
straight-curve $-1 -24.899288015205578 -28.190431598034468 10.640759238511974 -1 0 0 I I #
point $-1 -48.298576030411155 -28.190431598034468 10.640759238511974 #
point $-1 -48.298576030411155 -28.190431598034468 -10.640759238511974 #
straight-curve $-1 -51.298576030411155 -37.218804223774747 0 0 0 -1 I I #
edge $-1 $622 48.298576030411155 $478 51.298576030411155 $621 $705 forward 7 unknown #
point $-1 -51.298576030411155 -37.218804223774747 -10.640759238511974 #
edge $-1 $481 -51.298576030411155 $623 -48.298576030411155 $620 $706 forward 7 unknown #
point $-1 -51.298576030411155 -37.218804223774747 10.640759238511974 #
plane-surface $-1 0 37.218804223774747 0 0 -1 0 0 0 -1 forward_v I I I I #
coedge $-1 $488 $492 $497 $645 forward $336 $-1 #
edge $-1 $707 -20.866495268322442 $502 -11.838122642582167 $488 $708 forward 7 unknown #
coedge $-1 $490 $489 $643 $709 reversed $206 $-1 #
edge $-1 $505 11.838122642582167 $710 20.866495268322442 $504 $711 forward 7 unknown #
straight-curve $-1 -48.298576030411155 28.190431598034472 0 0 0 -1 I I #
straight-curve $-1 -51.298576030411155 16.352308955452305 -10.640759238511974 0 1 0 I I #
coedge $-1 $494 $504 $496 $644 forward $486 $-1 #
straight-curve $-1 -51.298576030411155 16.352308955452305 10.640759238511974 0 -1 0 I I #
coedge $-1 $497 $496 $637 $709 forward $498 $-1 #
edge $-1 $710 48.298576030411155 $500 51.298576030411155 $496 $712 forward 7 unknown #
edge $-1 $499 -51.298576030411155 $707 -48.298576030411155 $497 $713 forward 7 unknown #
point $-1 -51.298576030411155 37.218804223774747 -10.640759238511974 #
point $-1 -51.298576030411155 37.218804223774747 10.640759238511974 #
point $-1 -48.298576030411155 28.190431598034472 -10.640759238511974 #
point $-1 -48.298576030411155 28.190431598034472 10.640759238511974 #
edge $-1 $651 31.313031158865535 $654 34.359201706343946 $510 $714 forward 7 unknown #
vertex $-1 $524 $715 #
straight-curve $-1 -66.976426315202787 7.1054273576010019e-015 10.640759238511976 -1 0 0 I I #
edge $-1 $654 -3.3158463125332442 $521 9.9475389375997185 $520 $716 forward 7 unknown #
vertex $-1 $653 $717 #
straight-curve $-1 -54.928434095278803 7.1054273576010019e-015 7.5945886910335503 0.69465836192734942 0 0.71933980857756763 I I #
point $-1 -51.986781461251773 7.1054273576010019e-015 10.640759238511974 #
point $-1 -54.928434095278789 -13.263385250132956 7.5945886910335654 #
straight-curve $-1 -54.928434095278789 0 10.640759238511974 0 -1 0 I I #
vertex $-1 $527 $718 #
point $-1 -51.531156555859781 -10.610708200106362 8.6474852633328236 #
vertex $-1 $531 $719 #
point $-1 -51.531156555859781 -6.6316926250664743 8.6474852633328236 #
vertex $-1 $535 $720 #
point $-1 -51.531156555859781 -2.6526770500265897 8.6474852633328236 #
coedge $-1 $550 $549 $542 $666 forward $539 $-1 #
edge $-1 $667 31.313031158865535 $670 34.359201706343946 $665 $721 forward 7 unknown #
vertex $-1 $554 $722 #
straight-curve $-1 -66.976426315202787 28.190431598034476 10.640759238511976 -1 0 0 I I #
edge $-1 $670 -17.411062111550478 $551 -4.1476768614175157 $550 $723 forward 7 unknown #
vertex $-1 $669 $724 #
straight-curve $-1 -54.928434095278803 28.190431598034476 7.5945886910335503 0.69465836192734942 0 0.71933980857756763 I I #
point $-1 -51.986781461251773 28.190431598034476 10.640759238511974 #
point $-1 -54.928434095278789 14.927046347901513 7.5945886910335654 #
straight-curve $-1 -54.928434095278789 0 10.640759238511974 0 -1 0 I I #
vertex $-1 $557 $725 #
point $-1 -51.531156555859781 17.579723397928106 8.6474852633328236 #
vertex $-1 $561 $726 #
point $-1 -51.531156555859781 21.558738972967994 8.6474852633328236 #
vertex $-1 $565 $727 #
point $-1 -51.531156555859781 25.537754548007875 8.6474852633328236 #
coedge $-1 $580 $579 $572 $682 forward $569 $-1 #
edge $-1 $683 69.601156751715934 $686 74.527960962898661 $681 $728 forward 7 unknown #
vertex $-1 $584 $729 #
straight-curve $-1 34.234522897251132 9.2331473710166811 10.640759238511976 1 0 0 I I #
edge $-1 $686 1.810373346538789 $581 13.035174702416995 $580 $730 forward 7 unknown #
vertex $-1 $685 $731 #
straight-curve $-1 -15.686198531672758 9.2331473710166811 89.869199353504285 -0.64278759981090561 0 0.7660444514056185 I I #
point $-1 50.794354607027856 9.2331473710166811 10.640759238511976 #
point $-1 54.928434095278789 20.457948726894887 5.7139550273292485 #
straight-curve $-1 54.928434095278789 0 10.640759238511974 0 1 0 I I #
vertex $-1 $587 $732 #
point $-1 50.684777405213481 11.478107642192327 5.0455514289744672 #
vertex $-1 $591 $733 #
point $-1 50.684777405213481 14.845548048955791 5.0455514289744672 #
vertex $-1 $595 $734 #
point $-1 50.684777405213481 18.212988455719255 5.0455514289744672 #
straight-curve $-1 -54.928434095278789 37.218804223774747 0 0 0 -1 I I #
point $-1 -54.928434095278789 -37.218804223774747 -10.640759238511974 #
straight-curve $-1 -54.928434095278789 0 -10.640759238511974 0 1 0 I I #
point $-1 -54.928434095278789 37.218804223774747 -10.640759238511974 #
straight-curve $-1 -48.298576030411155 -16.352308955452305 10.640759238511974 0 1 0 I I #
straight-curve $-1 -48.298576030411155 -16.352308955452305 -10.640759238511974 0 -1 0 I I #
point $-1 -48.298576030411155 -37.218804223774747 -10.640759238511974 #
point $-1 -48.298576030411155 -37.218804223774747 10.640759238511974 #
straight-curve $-1 0 -37.218804223774747 -10.640759238511974 -1 0 0 I I #
straight-curve $-1 0 -37.218804223774747 10.640759238511974 1 0 0 I I #
vertex $-1 $709 $735 #
straight-curve $-1 -48.298576030411155 16.352308955452305 -10.640759238511974 0 -1 0 I I #
edge $-1 $710 -10.640759238511974 $707 10.640759238511974 $643 $736 forward 7 unknown #
vertex $-1 $644 $737 #
straight-curve $-1 -48.298576030411155 16.352308955452305 10.640759238511974 0 1 0 I I #
straight-curve $-1 0 37.218804223774747 10.640759238511974 -1 0 0 I I #
straight-curve $-1 0 37.218804223774747 -10.640759238511974 1 0 0 I I #
straight-curve $-1 -54.928434095278789 7.1054273576010019e-015 41.95379039737751 0 0 -1 I I #
point $-1 -54.928434095278789 7.1054273576010019e-015 10.640759238511974 #
straight-curve $-1 -54.928434095278789 -3.3158463125332371 7.594588691033568 0 -1 0 I I #
point $-1 -54.928434095278789 7.1054273576010019e-015 7.5945886910335654 #
point $-1 -51.506475109209561 -10.610708200106362 7.2334870928279074 #
point $-1 -51.506475109209561 -6.6316926250664743 7.2334870928279074 #
point $-1 -51.506475109209561 -2.6526770500265897 7.2334870928279074 #
straight-curve $-1 -54.928434095278789 28.190431598034476 41.95379039737751 0 0 -1 I I #
point $-1 -54.928434095278789 28.190431598034476 10.640759238511974 #
straight-curve $-1 -54.928434095278789 10.779369486483997 7.594588691033568 0 -1 0 I I #
point $-1 -54.928434095278789 28.190431598034476 7.5945886910335654 #
point $-1 -51.506475109209561 17.579723397928106 7.2334870928279074 #
point $-1 -51.506475109209561 21.558738972967994 7.2334870928279074 #
point $-1 -51.506475109209561 25.537754548007875 7.2334870928279074 #
straight-curve $-1 54.928434095278789 9.2331473710166811 80.241915990227909 0 0 -1 I I #
point $-1 54.928434095278789 9.2331473710166811 10.640759238511974 #
straight-curve $-1 54.928434095278789 7.4227740244778921 5.7139550273292485 0 1 0 I I #
point $-1 54.928434095278789 9.2331473710166811 5.7139550273292485 #
point $-1 49.275945353996953 11.478107642192327 5.1688082805691806 #
point $-1 49.275945353996953 14.845548048955791 5.1688082805691806 #
point $-1 49.275945353996953 18.212988455719255 5.1688082805691806 #
point $-1 -48.298576030411155 37.218804223774747 -10.640759238511974 #
straight-curve $-1 -48.298576030411155 37.218804223774747 0 0 0 -1 I I #
point $-1 -48.298576030411155 37.218804223774747 10.640759238511974 #
End-of-ACIS-data 