500 0 7 0           
7 Unknown 11 ACIS 5.0 NT 24 Fri Mar 26 17:43:23 1999 
-1 9.9999999999999995e-007 1e-010 
body $-1 $7 $-1 $8 #
body $-1 $9 $-1 $10 #
body $-1 $11 $-1 $12 #
body $-1 $13 $-1 $14 #
body $-1 $15 $-1 $16 #
body $-1 $17 $-1 $18 #
body $-1 $19 $-1 $20 #
lump $-1 $-1 $21 $0 #
transform $-1 1 0 0 0 1 0 0 0 1 42.287667470320748 24.762167219658139 9.6036431000964253 1 rotate no_reflect no_shear #
lump $-1 $-1 $22 $1 #
transform $-1 1 0 0 0 1 0 0 0 1 42.287667470320748 24.762167219658139 9.6036431000964253 1 rotate no_reflect no_shear #
lump $-1 $-1 $23 $2 #
transform $-1 1 0 0 0 1 0 0 0 1 42.287667470320748 24.762167219658139 9.6036431000964253 1 rotate no_reflect no_shear #
lump $-1 $-1 $24 $3 #
transform $-1 1 0 0 0 1 0 0 0 1 42.287667470320748 24.762167219658139 9.6036431000964253 1 rotate no_reflect no_shear #
lump $-1 $-1 $25 $4 #
transform $-1 1 0 0 0 1 0 0 0 1 42.287667470320748 24.762167219658139 9.6036431000964253 1 rotate no_reflect no_shear #
lump $-1 $-1 $26 $5 #
transform $-1 1 0 0 0 1 0 0 0 1 42.287667470320748 24.762167219658139 9.6036431000964253 1 rotate no_reflect no_shear #
lump $-1 $-1 $27 $6 #
transform $-1 1 0 0 0 1 0 0 0 1 42.287667470320748 24.762167219658139 9.6036431000964253 1 rotate no_reflect no_shear #
shell $-1 $-1 $-1 $28 $-1 $7 #
shell $-1 $-1 $-1 $29 $-1 $9 #
shell $-1 $-1 $-1 $30 $-1 $11 #
shell $-1 $-1 $-1 $31 $-1 $13 #
shell $-1 $-1 $-1 $32 $-1 $15 #
shell $-1 $-1 $-1 $33 $-1 $17 #
shell $-1 $-1 $-1 $34 $-1 $19 #
face $-1 $35 $36 $21 $-1 $37 forward single #
face $-1 $38 $39 $22 $-1 $40 reversed single #
face $-1 $41 $42 $23 $-1 $43 forward single #
face $-1 $44 $45 $24 $-1 $46 forward single #
face $-1 $47 $48 $25 $-1 $49 reversed single #
face $-1 $50 $51 $26 $-1 $52 forward single #
face $-1 $53 $54 $27 $-1 $55 forward single #
face $-1 $56 $57 $21 $-1 $58 reversed single #
loop $-1 $-1 $59 $28 #
plane-surface $-1 0 0 9.6036431000964253 0 0 1 1 0 0 forward_v I I I I #
face $-1 $60 $61 $22 $-1 $62 reversed single #
loop $-1 $-1 $63 $29 #
plane-surface $-1 -5.9139650539955753 46.222602698731023 97.32610353492457 1 0 0 0 -0.68199836817093118 -0.7313536940579346 forward_v I I I I #
face $-1 $64 $65 $23 $-1 $66 forward single #
loop $-1 $67 $68 $30 #
cone-surface $-1 0.30128169117254089 19.465287983603705 4.5164006290434857 0 -0.68199836817093118 -0.7313536940579346 1.5 0 0 1 I I 0 1 1.5 forward I I I I #
face $-1 $69 $70 $24 $-1 $71 forward single #
loop $-1 $72 $73 $31 #
cone-surface $-1 9.6241518089247151 19.465287983603705 4.5164006290434857 0 -0.68199836817093118 -0.7313536940579346 1.5 0 0 1 I I 0 1 1.5 forward I I I I #
face $-1 $74 $75 $25 $-1 $76 reversed single #
loop $-1 $-1 $77 $32 #
plane-surface $-1 33.505817107599363 -24.762167219658124 4.0119242894869842 0 -0.51503808176128008 0.85716729658548041 1 0 0 forward_v I I I I #
face $-1 $78 $79 $26 $-1 $80 forward single #
loop $-1 $81 $82 $33 #
cone-surface $-1 29.742166952147336 -18.190292975112815 3.6143927660104245 0 0.51503808176128008 -0.85716729658548041 2 0 0 1 I I 0 1 2 forward I I I I #
face $-1 $83 $84 $27 $-1 $85 forward single #
loop $-1 $86 $87 $34 #
cone-surface $-1 37.269467263051375 -18.190292975112815 3.6143927660104245 0 0.51503808176128008 -0.85716729658548041 2 0 0 1 I I 0 1 2 forward I I I I #
face $-1 $88 $89 $21 $-1 $90 reversed single #
loop $-1 $-1 $91 $35 #
plane-surface $-1 0 0 -9.6036431000964253 0 0 1 1 0 0 forward_v I I I I #
coedge $-1 $92 $93 $94 $95 forward $36 $-1 #
face $-1 $96 $97 $22 $-1 $98 reversed single #
loop $-1 $-1 $99 $38 #
plane-surface $-1 4.9627167500486209 -11.457637718296418 35.471619899899302 0 0.68199836817093118 0.7313536940579346 1 0 0 forward_v I I I I #
coedge $-1 $100 $101 $102 $103 reversed $39 $-1 #
face $-1 $-1 $104 $23 $-1 $105 forward single #
loop $-1 $106 $107 $41 #
cone-surface $-1 0.30128169117254089 17.896808292823067 2.8344121237282334 0 -0.68199836817093118 -0.7313536940579346 0.75 0 0 1 I I -0.70710678118654768 0.70710678118654735 0.75 forward I I I I #
loop $-1 $-1 $108 $30 #
coedge $-1 $68 $68 $109 $110 reversed $42 $-1 #
face $-1 $-1 $111 $24 $-1 $112 forward single #
loop $-1 $113 $114 $44 #
cone-surface $-1 9.6241518089247151 17.896808292823067 2.8344121237282334 0 -0.68199836817093118 -0.7313536940579346 0.75 0 0 1 I I -0.70710678118654768 0.70710678118654735 0.75 forward I I I I #
loop $-1 $-1 $115 $31 #
coedge $-1 $73 $73 $116 $117 reversed $45 $-1 #
face $-1 $118 $119 $25 $-1 $120 reversed single #
loop $-1 $-1 $121 $47 #
plane-surface $-1 24.723966744877977 -68.32168549180389 76.507135498368172 1 0 0 0 0.51503808176128008 -0.85716729658548041 forward_v I I I I #
coedge $-1 $122 $123 $124 $125 reversed $48 $-1 #
face $-1 $-1 $126 $26 $-1 $127 forward single #
loop $-1 $128 $129 $50 #
cone-surface $-1 29.742166952147336 -15.756472008347522 -0.436165459356328 0 0.51503808176128008 -0.85716729658548041 1 0 0 1 I I -0.70710678118654735 0.70710678118654768 1 forward I I I I #
loop $-1 $-1 $130 $33 #
coedge $-1 $82 $82 $131 $132 reversed $51 $-1 #
face $-1 $-1 $133 $27 $-1 $134 forward single #
loop $-1 $135 $136 $53 #
cone-surface $-1 37.269467263051375 -15.756472008347522 -0.436165459356328 0 0.51503808176128008 -0.85716729658548041 1 0 0 1 I I -0.70710678118654735 0.70710678118654768 1 forward I I I I #
loop $-1 $-1 $137 $34 #
coedge $-1 $87 $87 $138 $139 reversed $54 $-1 #
face $-1 $140 $141 $21 $-1 $142 reversed single #
loop $-1 $-1 $143 $56 #
plane-surface $-1 0 -24.762167219658139 0 0 1 0 0 0 1 forward_v I I I I #
coedge $-1 $144 $145 $146 $147 forward $57 $-1 #
coedge $-1 $148 $59 $149 $150 forward $36 $-1 #
coedge $-1 $59 $148 $151 $152 forward $36 $-1 #
coedge $-1 $153 $154 $59 $95 reversed $155 $-1 #
edge $-1 $156 -24.762167219658139 $157 24.762167219658139 $94 $158 forward 7 unknown #
face $-1 $159 $160 $22 $-1 $161 reversed single #
loop $-1 $-1 $162 $60 #
plane-surface $-1 15.839398554092817 46.222602698731023 97.32610353492457 -1 0 0 0 0.68199836817093118 0.7313536940579346 forward_v I I I I #
coedge $-1 $163 $164 $165 $166 reversed $61 $-1 #
coedge $-1 $101 $63 $167 $168 reversed $39 $-1 #
coedge $-1 $63 $100 $163 $169 reversed $39 $-1 #
coedge $-1 $165 $170 $63 $103 forward $171 $-1 #
edge $-1 $172 -1.6508658702926269 $173 6.828930772511363 $102 $174 forward 7 unknown #
loop $-1 $-1 $109 $64 #
plane-surface $-1 4.9627167500486209 -11.457637718296418 35.471619899899302 0 0.68199836817093118 0.7313536940579346 1 0 0 forward_v I I I I #
loop $-1 $-1 $175 $41 #
coedge $-1 $107 $107 $108 $176 reversed $65 $-1 #
coedge $-1 $108 $108 $107 $176 forward $67 $-1 #
coedge $-1 $109 $109 $68 $110 forward $104 $-1 #
edge $-1 $177 4.0382415525341458e-016 $177 6.2831853071796004 $109 $178 forward 7 unknown #
loop $-1 $-1 $116 $69 #
plane-surface $-1 4.9627167500486209 -11.457637718296418 35.471619899899302 0 0.68199836817093118 0.7313536940579346 1 0 0 forward_v I I I I #
loop $-1 $-1 $179 $44 #
coedge $-1 $114 $114 $115 $180 reversed $70 $-1 #
coedge $-1 $115 $115 $114 $180 forward $72 $-1 #
coedge $-1 $116 $116 $73 $117 forward $111 $-1 #
edge $-1 $181 4.0382415525341458e-016 $181 6.2831853071796004 $116 $182 forward 7 unknown #
face $-1 $183 $184 $25 $-1 $185 forward single #
loop $-1 $-1 $186 $74 #
plane-surface $-1 0 -24.762167219658139 0 0 1 0 0 0 1 forward_v I I I I #
coedge $-1 $187 $188 $189 $190 reversed $75 $-1 #
coedge $-1 $191 $77 $192 $193 reversed $48 $-1 #
coedge $-1 $77 $191 $187 $194 forward $48 $-1 #
coedge $-1 $189 $195 $77 $125 forward $184 $-1 #
edge $-1 $196 -25.534758916521067 $197 -7.9710581910782956 $124 $198 forward 7 unknown #
loop $-1 $-1 $131 $78 #
plane-surface $-1 33.505817107599363 -24.762167219658124 4.0119242894869842 0 -0.51503808176128008 0.85716729658548041 1 0 0 forward_v I I I I #
loop $-1 $-1 $199 $50 #
coedge $-1 $129 $129 $130 $200 reversed $79 $-1 #
coedge $-1 $130 $130 $129 $200 forward $81 $-1 #
coedge $-1 $131 $131 $82 $132 forward $126 $-1 #
edge $-1 $201 -1.1436142738602941e-015 $201 6.2831853071795996 $131 $202 forward 7 unknown #
loop $-1 $-1 $138 $83 #
plane-surface $-1 33.505817107599363 -24.762167219658124 4.0119242894869842 0 -0.51503808176128008 0.85716729658548041 1 0 0 forward_v I I I I #
loop $-1 $-1 $203 $53 #
coedge $-1 $136 $136 $137 $204 reversed $84 $-1 #
coedge $-1 $137 $137 $136 $204 forward $86 $-1 #
coedge $-1 $138 $138 $87 $139 forward $133 $-1 #
edge $-1 $205 -1.1436142738602941e-015 $205 6.2831853071795996 $138 $206 forward 7 unknown #
face $-1 $207 $208 $21 $-1 $209 reversed single #
loop $-1 $-1 $210 $88 #
plane-surface $-1 -42.287667470320748 0 0 1 0 0 0 0 -1 forward_v I I I I #
coedge $-1 $211 $151 $212 $213 forward $89 $-1 #
coedge $-1 $214 $91 $211 $215 forward $57 $-1 #
coedge $-1 $91 $214 $216 $217 forward $57 $-1 #
coedge $-1 $154 $153 $91 $147 reversed $155 $-1 #
edge $-1 $218 -24.762167219658139 $219 24.762167219658139 $146 $220 forward 7 unknown #
coedge $-1 $93 $92 $221 $222 forward $36 $-1 #
coedge $-1 $223 $224 $92 $150 reversed $208 $-1 #
edge $-1 $157 -42.287667470320748 $225 42.287667470320748 $149 $226 forward 7 unknown #
coedge $-1 $143 $227 $93 $152 reversed $89 $-1 #
edge $-1 $228 -42.287667470320748 $156 42.287667470320748 $151 $229 forward 7 unknown #
coedge $-1 $146 $94 $227 $230 forward $155 $-1 #
coedge $-1 $94 $146 $223 $231 reversed $155 $-1 #
loop $-1 $-1 $153 $207 #
vertex $-1 $95 $232 #
vertex $-1 $95 $233 #
straight-curve $-1 42.287667470320748 0 9.6036431000964253 0 1 0 I I #
face $-1 $-1 $171 $22 $-1 $234 forward single #
loop $-1 $-1 $235 $96 #
plane-surface $-1 0 24.762167219658139 0 0 -1 0 0 0 -1 forward_v I I I I #
coedge $-1 $236 $237 $238 $239 reversed $97 $-1 #
coedge $-1 $240 $99 $101 $169 forward $61 $-1 #
coedge $-1 $99 $240 $236 $241 forward $61 $-1 #
coedge $-1 $238 $102 $99 $166 forward $171 $-1 #
edge $-1 $173 -8.3953234290198857 $242 13.358040179068507 $165 $243 forward 7 unknown #
coedge $-1 $244 $245 $100 $168 forward $160 $-1 #
edge $-1 $246 -46.966947139928138 $172 -39.059408667365858 $167 $247 forward 7 unknown #
edge $-1 $173 37.929675505205182 $246 49.524334439316284 $101 $248 forward 7 unknown #
coedge $-1 $102 $238 $244 $249 forward $171 $-1 #
loop $-1 $-1 $238 $159 #
vertex $-1 $168 $250 #
vertex $-1 $103 $251 #
straight-curve $-1 -5.9139650539955753 23.111301349365512 9.6036431000964271 0 -1 0 I I #
coedge $-1 $175 $175 $-1 $252 reversed $106 $-1 #
edge $-1 $253 0 $253 6.2831853071796004 $107 $254 forward 7 unknown #
vertex $-1 $110 $255 #
ellipse-curve $-1 0.30128169117254089 20.522268898256144 5.6498738638152881 0 0.68199836817093118 0.7313536940579346 1.5 0 0 1 I I #
coedge $-1 $179 $179 $-1 $256 reversed $113 $-1 #
edge $-1 $257 0 $257 6.2831853071796004 $114 $258 forward 7 unknown #
vertex $-1 $117 $259 #
ellipse-curve $-1 9.6241518089247151 20.522268898256144 5.6498738638152881 0 0.68199836817093118 0.7313536940579346 1.5 0 0 1 I I #
face $-1 $-1 $260 $25 $-1 $261 reversed single #
loop $-1 $-1 $189 $118 #
plane-surface $-1 0 0 9.6036431000964253 0 0 1 1 0 0 forward_v I I I I #
coedge $-1 $262 $263 $188 $264 forward $119 $-1 #
coedge $-1 $188 $121 $123 $194 reversed $75 $-1 #
coedge $-1 $121 $187 $186 $264 reversed $75 $-1 #
coedge $-1 $265 $124 $121 $190 forward $184 $-1 #
edge $-1 $197 -18.704858245326413 $266 -9.3986755262438066 $189 $267 forward 7 unknown #
coedge $-1 $123 $122 $262 $268 reversed $48 $-1 #
coedge $-1 $269 $270 $122 $193 forward $260 $-1 #
edge $-1 $271 -9.5795130715215642 $196 1.2773905412897488 $192 $272 forward 7 unknown #
edge $-1 $273 -1.6755537013839907e-014 $197 10.856903612811296 $187 $274 forward 7 unknown #
coedge $-1 $124 $265 $269 $275 forward $184 $-1 #
vertex $-1 $193 $276 #
vertex $-1 $125 $277 #
straight-curve $-1 16.752908553799681 -15.45598450057553 9.6036431000964253 -1 0 0 I I #
coedge $-1 $199 $199 $-1 $278 reversed $128 $-1 #
edge $-1 $279 0 $279 6.2831853071796004 $129 $280 forward 7 unknown #
vertex $-1 $132 $281 #
ellipse-curve $-1 29.742166952147336 -20.109075860116832 6.8077836947917021 0 -0.51503808176128008 0.85716729658548041 2 0 0 1 I I #
coedge $-1 $203 $203 $-1 $282 reversed $135 $-1 #
edge $-1 $283 0 $283 6.2831853071796004 $136 $284 forward 7 unknown #
vertex $-1 $139 $285 #
ellipse-curve $-1 37.269467263051375 -20.109075860116832 6.8077836947917021 0 -0.51503808176128008 0.85716729658548041 2 0 0 1 I I #
face $-1 $-1 $155 $21 $-1 $286 reversed single #
loop $-1 $-1 $223 $140 #
plane-surface $-1 0 24.762167219658139 0 0 -1 0 0 0 -1 forward_v I I I I #
coedge $-1 $287 $221 $224 $288 forward $141 $-1 #
coedge $-1 $227 $143 $144 $215 reversed $89 $-1 #
coedge $-1 $221 $287 $143 $213 reversed $141 $-1 #
edge $-1 $228 -9.6036431000964253 $289 9.6036431000964253 $212 $290 forward 7 unknown #
coedge $-1 $145 $144 $287 $291 forward $57 $-1 #
edge $-1 $219 -42.287667470320748 $289 42.287667470320748 $211 $292 forward 7 unknown #
coedge $-1 $224 $223 $145 $217 reversed $208 $-1 #
edge $-1 $293 -42.287667470320748 $218 42.287667470320748 $216 $294 forward 7 unknown #
vertex $-1 $147 $295 #
vertex $-1 $230 $296 #
straight-curve $-1 42.287667470320748 0 -9.6036431000964253 0 -1 0 I I #
coedge $-1 $210 $212 $148 $222 reversed $141 $-1 #
edge $-1 $225 -24.762167219658139 $228 24.762167219658139 $221 $297 forward 7 unknown #
coedge $-1 $216 $149 $154 $231 forward $208 $-1 #
coedge $-1 $149 $216 $210 $288 reversed $208 $-1 #
vertex $-1 $150 $298 #
straight-curve $-1 0 24.762167219658139 9.6036431000964253 -1 0 0 I I #
coedge $-1 $151 $211 $153 $230 reversed $89 $-1 #
vertex $-1 $222 $299 #
straight-curve $-1 0 -24.762167219658139 9.6036431000964253 1 0 0 I I #
edge $-1 $156 -9.6036431000964253 $219 9.6036431000964253 $153 $300 forward 7 unknown #
edge $-1 $157 -9.6036431000964253 $218 9.6036431000964253 $154 $301 forward 7 unknown #
point $-1 42.287667470320748 -24.762167219658139 9.6036431000964253 #
point $-1 42.287667470320748 24.762167219658139 9.6036431000964253 #
plane-surface $-1 0 0 9.6036431000964253 0 0 1 1 0 0 forward_v I I I I #
coedge $-1 $245 $244 $237 $302 forward $160 $-1 #
coedge $-1 $237 $162 $164 $241 reversed $97 $-1 #
coedge $-1 $162 $236 $235 $302 reversed $97 $-1 #
coedge $-1 $170 $165 $162 $239 forward $171 $-1 #
edge $-1 $242 -6.828930772511363 $303 1.6508658702926269 $238 $304 forward 7 unknown #
coedge $-1 $164 $163 $245 $305 reversed $61 $-1 #
edge $-1 $306 -49.524334439316284 $242 -37.929675505205182 $236 $307 forward 7 unknown #
vertex $-1 $166 $308 #
straight-curve $-1 2.4813583750243104 16.282370576854152 9.6036431000964235 1 0 0 I I #
coedge $-1 $235 $167 $170 $249 reversed $160 $-1 #
coedge $-1 $167 $235 $240 $305 forward $160 $-1 #
vertex $-1 $168 $309 #
straight-curve $-1 -5.9139650539955753 24.762167219658139 48.663051767462285 0 0 1 I I #
straight-curve $-1 -5.9139650539955753 -11.457637718296418 35.471619899899302 0 0.7313536940579346 -0.68199836817093118 I I #
edge $-1 $303 -15.839398554092817 $172 5.9139650539955753 $244 $310 forward 7 unknown #
point $-1 -5.9139650539955753 24.762167219658139 9.6036431000964253 #
point $-1 -5.9139650539955753 16.282370576854149 9.6036431000964271 #
edge $-1 $311 1 $311 0 $175 $-1 forward 7 unknown #
vertex $-1 $176 $312 #
ellipse-curve $-1 0.30128169117254089 18.408307068951267 3.3829273942716842 0 0.68199836817093118 0.7313536940579346 1.5 0 0 1 I I #
point $-1 1.8012816911725409 20.522268898256144 5.6498738638152872 #
edge $-1 $313 1 $313 0 $179 $-1 forward 7 unknown #
vertex $-1 $180 $314 #
ellipse-curve $-1 9.6241518089247151 18.408307068951267 3.3829273942716842 0 0.68199836817093118 0.7313536940579346 1.5 0 0 1 I I #
point $-1 11.124151808924715 20.522268898256144 5.6498738638152872 #
loop $-1 $-1 $192 $183 #
plane-surface $-1 42.287667470320748 0 0 -1 0 0 0 0 1 forward_v I I I I #
coedge $-1 $315 $186 $191 $268 forward $119 $-1 #
coedge $-1 $186 $315 $265 $316 reversed $119 $-1 #
edge $-1 $266 28.649924649087659 $273 34.241643459697109 $186 $317 forward 7 unknown #
coedge $-1 $195 $189 $263 $316 forward $184 $-1 #
vertex $-1 $316 $318 #
straight-curve $-1 24.723966744877977 -34.160842745901945 9.6036431000964271 0 -1 0 I I #
edge $-1 $273 7.9710581910782956 $271 25.534758916521067 $262 $319 forward 7 unknown #
coedge $-1 $270 $192 $195 $275 reversed $260 $-1 #
coedge $-1 $192 $269 $315 $320 forward $260 $-1 #
vertex $-1 $268 $321 #
straight-curve $-1 42.287667470320748 -16.550921897536728 8.9457383260505505 0 0.85716729658548041 0.51503808176128008 I I #
vertex $-1 $268 $322 #
straight-curve $-1 24.723966744877977 -24.762167219658124 4.0119242894869842 0 0.85716729658548041 0.51503808176128008 I I #
edge $-1 $323 -24.762167219658139 $196 -15.45598450057553 $269 $324 forward 7 unknown #
point $-1 42.287667470320748 -15.45598450057553 9.6036431000964253 #
point $-1 24.723966744877977 -15.45598450057553 9.6036431000964253 #
edge $-1 $325 1 $325 0 $199 $-1 forward 7 unknown #
vertex $-1 $200 $326 #
ellipse-curve $-1 29.742166952147336 -16.271510090108801 0.42100183722915274 0 -0.51503808176128008 0.85716729658548041 2 0 0 1 I I #
point $-1 31.742166952147336 -20.109075860116832 6.8077836947916976 #
edge $-1 $327 1 $327 0 $203 $-1 forward 7 unknown #
vertex $-1 $204 $328 #
ellipse-curve $-1 37.269467263051375 -16.271510090108801 0.42100183722915274 0 -0.51503808176128008 0.85716729658548041 2 0 0 1 I I #
point $-1 39.269467263051375 -20.109075860116832 6.8077836947916976 #
plane-surface $-1 42.287667470320748 0 0 -1 0 0 0 0 1 forward_v I I I I #
coedge $-1 $212 $210 $214 $291 reversed $141 $-1 #
edge $-1 $225 -9.6036431000964253 $293 9.6036431000964253 $224 $329 forward 7 unknown #
vertex $-1 $291 $330 #
straight-curve $-1 -42.287667470320748 -24.762167219658139 0 0 0 -1 I I #
edge $-1 $289 -24.762167219658139 $293 24.762167219658139 $287 $331 forward 7 unknown #
straight-curve $-1 0 -24.762167219658139 -9.6036431000964253 -1 0 0 I I #
vertex $-1 $217 $332 #
straight-curve $-1 0 24.762167219658139 -9.6036431000964253 1 0 0 I I #
point $-1 42.287667470320748 24.762167219658139 -9.6036431000964253 #
point $-1 42.287667470320748 -24.762167219658139 -9.6036431000964253 #
straight-curve $-1 -42.287667470320748 0 9.6036431000964253 0 -1 0 I I #
point $-1 -42.287667470320748 24.762167219658139 9.6036431000964253 #
point $-1 -42.287667470320748 -24.762167219658139 9.6036431000964253 #
straight-curve $-1 42.287667470320748 -24.762167219658139 0 0 0 -1 I I #
straight-curve $-1 42.287667470320748 24.762167219658139 0 0 0 -1 I I #
edge $-1 $303 39.059408667365858 $306 46.966947139928138 $235 $333 forward 7 unknown #
vertex $-1 $249 $334 #
straight-curve $-1 15.839398554092817 23.111301349365512 9.6036431000964271 0 1 0 I I #
edge $-1 $306 -13.358040179068507 $246 8.3953234290198857 $245 $335 forward 7 unknown #
vertex $-1 $305 $336 #
straight-curve $-1 15.839398554092817 -11.457637718296418 35.471619899899302 0 -0.7313536940579346 0.68199836817093118 I I #
point $-1 15.839398554092817 16.282370576854149 9.6036431000964271 #
point $-1 -5.9139650539955753 24.762167219658139 1.6961046275341474 #
straight-curve $-1 0 24.762167219658139 9.6036431000964253 -1 0 0 I I #
vertex $-1 $252 $337 #
point $-1 1.8012816911725409 18.408307068951267 3.3829273942716842 #
vertex $-1 $256 $338 #
point $-1 11.124151808924715 18.408307068951267 3.3829273942716842 #
coedge $-1 $263 $262 $270 $320 reversed $119 $-1 #
edge $-1 $266 24.723966744877977 $323 42.287667470320748 $263 $339 forward 7 unknown #
straight-curve $-1 24.723966744877977 -24.762167219658139 38.253567749184086 0 0 -1 I I #
point $-1 24.723966744877977 -24.762167219658139 9.6036431000964253 #
straight-curve $-1 16.752908553799681 -24.762167219658139 4.0119242894869753 1 0 0 I I #
edge $-1 $323 -9.6036431000964253 $271 -4.0119242894869753 $270 $340 forward 7 unknown #
point $-1 42.287667470320748 -24.762167219658139 4.0119242894869753 #
point $-1 24.723966744877977 -24.762167219658139 4.0119242894869753 #
vertex $-1 $275 $341 #
straight-curve $-1 42.287667470320748 0 9.6036431000964253 0 1 0 I I #
vertex $-1 $278 $342 #
point $-1 31.742166952147336 -16.271510090108801 0.42100183722915274 #
vertex $-1 $282 $343 #
point $-1 39.269467263051375 -16.271510090108801 0.42100183722915274 #
straight-curve $-1 -42.287667470320748 24.762167219658139 0 0 0 -1 I I #
point $-1 -42.287667470320748 -24.762167219658139 -9.6036431000964253 #
straight-curve $-1 -42.287667470320748 0 -9.6036431000964253 0 1 0 I I #
point $-1 -42.287667470320748 24.762167219658139 -9.6036431000964253 #
straight-curve $-1 15.839398554092817 24.762167219658139 48.663051767462285 0 0 -1 I I #
point $-1 15.839398554092817 24.762167219658139 9.6036431000964253 #
straight-curve $-1 2.4813583750243104 24.762167219658139 1.6961046275341474 -1 0 0 I I #
point $-1 15.839398554092817 24.762167219658139 1.6961046275341474 #
point $-1 0.30128169117254089 17.385309516694868 2.2858968531847825 #
point $-1 9.6241518089247151 17.385309516694868 2.2858968531847825 #
straight-curve $-1 0 -24.762167219658139 9.6036431000964253 1 0 0 I I #
straight-curve $-1 42.287667470320748 -24.762167219658139 0 0 0 -1 I I #
point $-1 42.287667470320748 -24.762167219658139 9.6036431000964253 #
point $-1 29.742166952147336 -15.241433926586241 -1.2933327559418086 #
point $-1 37.269467263051375 -15.241433926586241 -1.2933327559418086 #
End-of-ACIS-data 