500 0 20 0           
7 Unknown 11 ACIS 5.0 NT 24 Thu Mar 25 18:41:24 1999 
-1 9.9999999999999995e-007 1e-010 
body $-1 $20 $-1 $21 #
body $-1 $22 $-1 $23 #
body $-1 $24 $-1 $25 #
body $-1 $26 $-1 $27 #
body $-1 $28 $-1 $29 #
body $-1 $30 $-1 $31 #
body $-1 $32 $-1 $33 #
body $-1 $34 $-1 $35 #
body $-1 $36 $-1 $37 #
body $-1 $38 $-1 $39 #
body $-1 $40 $-1 $41 #
body $-1 $42 $-1 $43 #
body $-1 $44 $-1 $45 #
body $-1 $46 $-1 $47 #
body $-1 $48 $-1 $49 #
body $-1 $50 $-1 $51 #
body $-1 $52 $-1 $53 #
body $-1 $54 $-1 $55 #
body $-1 $56 $-1 $57 #
body $-1 $58 $-1 $59 #
lump $-1 $-1 $60 $0 #
transform $-1 1 0 0 0 1 0 0 0 1 49.474166081728569 23.884908006942119 6.7149196618534139 1 rotate no_reflect no_shear #
lump $-1 $-1 $61 $1 #
transform $-1 1 0 0 0 1 0 0 0 1 49.474166081728569 23.884908006942119 6.7149196618534139 1 rotate no_reflect no_shear #
lump $-1 $-1 $62 $2 #
transform $-1 1 0 0 0 1 0 0 0 1 49.474166081728569 23.884908006942119 6.7149196618534139 1 rotate no_reflect no_shear #
lump $-1 $-1 $63 $3 #
transform $-1 1 0 0 0 1 0 0 0 1 49.474166081728569 23.884908006942119 6.7149196618534139 1 rotate no_reflect no_shear #
lump $-1 $-1 $64 $4 #
transform $-1 1 0 0 0 1 0 0 0 1 49.474166081728569 23.884908006942119 6.7149196618534139 1 rotate no_reflect no_shear #
lump $-1 $-1 $65 $5 #
transform $-1 1 0 0 0 1 0 0 0 1 49.474166081728569 23.884908006942119 6.7149196618534139 1 rotate no_reflect no_shear #
lump $-1 $-1 $66 $6 #
transform $-1 1 0 0 0 1 0 0 0 1 49.474166081728569 23.884908006942119 6.7149196618534139 1 rotate no_reflect no_shear #
lump $-1 $-1 $67 $7 #
transform $-1 1 0 0 0 1 0 0 0 1 49.474166081728569 23.884908006942119 6.7149196618534139 1 rotate no_reflect no_shear #
lump $-1 $-1 $68 $8 #
transform $-1 1 0 0 0 1 0 0 0 1 49.474166081728569 23.884908006942119 6.7149196618534139 1 rotate no_reflect no_shear #
lump $-1 $-1 $69 $9 #
transform $-1 1 0 0 0 1 0 0 0 1 49.474166081728569 23.884908006942119 6.7149196618534139 1 rotate no_reflect no_shear #
lump $-1 $-1 $70 $10 #
transform $-1 1 0 0 0 1 0 0 0 1 49.474166081728569 23.884908006942119 6.7149196618534139 1 rotate no_reflect no_shear #
lump $-1 $-1 $71 $11 #
transform $-1 1 0 0 0 1 0 0 0 1 49.474166081728569 23.884908006942119 6.7149196618534139 1 rotate no_reflect no_shear #
lump $-1 $-1 $72 $12 #
transform $-1 1 0 0 0 1 0 0 0 1 49.474166081728569 23.884908006942119 6.7149196618534139 1 rotate no_reflect no_shear #
lump $-1 $-1 $73 $13 #
transform $-1 1 0 0 0 1 0 0 0 1 49.474166081728569 23.884908006942119 6.7149196618534139 1 rotate no_reflect no_shear #
lump $-1 $-1 $74 $14 #
transform $-1 1 0 0 0 1 0 0 0 1 49.474166081728569 23.884908006942119 6.7149196618534139 1 rotate no_reflect no_shear #
lump $-1 $-1 $75 $15 #
transform $-1 1 0 0 0 1 0 0 0 1 49.474166081728569 23.884908006942119 6.7149196618534139 1 rotate no_reflect no_shear #
lump $-1 $-1 $76 $16 #
transform $-1 1 0 0 0 1 0 0 0 1 49.474166081728569 23.884908006942119 6.7149196618534139 1 rotate no_reflect no_shear #
lump $-1 $-1 $77 $17 #
transform $-1 1 0 0 0 1 0 0 0 1 49.474166081728569 23.884908006942119 6.7149196618534139 1 rotate no_reflect no_shear #
lump $-1 $-1 $78 $18 #
transform $-1 1 0 0 0 1 0 0 0 1 49.474166081728569 23.884908006942119 6.7149196618534139 1 rotate no_reflect no_shear #
lump $-1 $-1 $79 $19 #
transform $-1 1 0 0 0 1 0 0 0 1 49.474166081728569 23.884908006942119 6.7149196618534139 1 rotate no_reflect no_shear #
shell $-1 $-1 $-1 $80 $-1 $20 #
shell $-1 $-1 $-1 $81 $-1 $22 #
shell $-1 $-1 $-1 $82 $-1 $24 #
shell $-1 $-1 $-1 $83 $-1 $26 #
shell $-1 $-1 $-1 $84 $-1 $28 #
shell $-1 $-1 $-1 $85 $-1 $30 #
shell $-1 $-1 $-1 $86 $-1 $32 #
shell $-1 $-1 $-1 $87 $-1 $34 #
shell $-1 $-1 $-1 $88 $-1 $36 #
shell $-1 $-1 $-1 $89 $-1 $38 #
shell $-1 $-1 $-1 $90 $-1 $40 #
shell $-1 $-1 $-1 $91 $-1 $42 #
shell $-1 $-1 $-1 $92 $-1 $44 #
shell $-1 $-1 $-1 $93 $-1 $46 #
shell $-1 $-1 $-1 $94 $-1 $48 #
shell $-1 $-1 $-1 $95 $-1 $50 #
shell $-1 $-1 $-1 $96 $-1 $52 #
shell $-1 $-1 $-1 $97 $-1 $54 #
shell $-1 $-1 $-1 $98 $-1 $56 #
shell $-1 $-1 $-1 $99 $-1 $58 #
face $-1 $100 $101 $60 $-1 $102 forward single #
face $-1 $103 $104 $61 $-1 $105 reversed single #
face $-1 $106 $107 $62 $-1 $108 reversed single #
face $-1 $109 $110 $63 $-1 $111 forward single #
face $-1 $112 $113 $64 $-1 $114 forward single #
face $-1 $115 $116 $65 $-1 $117 reversed single #
face $-1 $118 $119 $66 $-1 $120 forward single #
face $-1 $121 $122 $67 $-1 $123 forward single #
face $-1 $124 $125 $68 $-1 $126 reversed single #
face $-1 $127 $128 $69 $-1 $129 forward single #
face $-1 $130 $131 $70 $-1 $132 forward single #
face $-1 $133 $134 $71 $-1 $135 reversed single #
face $-1 $136 $137 $72 $-1 $138 forward single #
face $-1 $139 $140 $73 $-1 $141 forward single #
face $-1 $142 $143 $74 $-1 $144 reversed single #
face $-1 $145 $146 $75 $-1 $147 forward single #
face $-1 $148 $149 $76 $-1 $150 forward single #
face $-1 $151 $152 $77 $-1 $153 reversed single #
face $-1 $154 $155 $78 $-1 $156 forward single #
face $-1 $157 $158 $79 $-1 $159 forward single #
face $-1 $160 $161 $60 $-1 $162 reversed single #
loop $-1 $-1 $163 $80 #
plane-surface $-1 0 0 6.7149196618534139 0 0 1 1 0 0 forward_v I I I I #
face $-1 $164 $165 $61 $-1 $166 reversed single #
loop $-1 $-1 $167 $81 #
plane-surface $-1 -47.200354153542769 0 2.6862137799485621 0 0 1 1 0 0 forward_v I I I I #
face $-1 $168 $169 $62 $-1 $170 reversed single #
loop $-1 $-1 $171 $82 #
plane-surface $-1 0.12410431277716327 -79.216113882135659 85.053750175912867 -1 0 0 0 -0.55919291073839883 0.82903756765294845 forward_v I I I I #
face $-1 $172 $173 $63 $-1 $174 forward single #
loop $-1 $175 $176 $83 #
cone-surface $-1 -8.5566665830851747 -20.494853441882572 3.9010724756066919 0 0.55919291073839883 -0.82903756765294845 1 0 0 1 I I 0 1 1 forward I I I I #
face $-1 $177 $178 $64 $-1 $179 forward single #
loop $-1 $180 $181 $84 #
cone-surface $-1 -3.3482040455677691 -20.494853441882572 3.9010724756066919 0 0.55919291073839883 -0.82903756765294845 1 0 0 1 I I 0 1 1 forward I I I I #
face $-1 $182 $183 $65 $-1 $184 reversed single #
loop $-1 $-1 $185 $85 #
plane-surface $-1 16.576598797801708 -79.216113882135659 85.053750175912867 -1 0 0 0 -0.55919291073839883 0.82903756765294845 forward_v I I I I #
face $-1 $186 $187 $66 $-1 $188 forward single #
loop $-1 $189 $190 $86 #
cone-surface $-1 7.89582790193937 -20.494853441882572 3.9010724756066919 0 0.55919291073839883 -0.82903756765294845 1 0 0 1 I I 0 1 1 forward I I I I #
face $-1 $191 $192 $67 $-1 $193 forward single #
loop $-1 $194 $195 $87 #
cone-surface $-1 13.104290439456776 -20.494853441882572 3.9010724756066919 0 0.55919291073839883 -0.82903756765294845 1 0 0 1 I I 0 1 1 forward I I I I #
face $-1 $196 $197 $68 $-1 $198 reversed single #
loop $-1 $-1 $199 $88 #
plane-surface $-1 -30.238930571688087 72.447223721509857 101.61994940172188 -1 0 0 0 0.78801076186113728 0.61566146476048833 forward_v I I I I #
face $-1 $200 $201 $69 $-1 $202 forward single #
loop $-1 $203 $204 $89 #
cone-surface $-1 -40.730081752880146 21.760662257655948 4.3429505245452056 0 -0.78801076186113728 -0.61566146476048833 0.5 0 0 1 I I 0 1 0.5 forward I I I I #
face $-1 $205 $206 $70 $-1 $207 forward single #
loop $-1 $208 $209 $90 #
cone-surface $-1 -34.435391044164916 21.760662257655948 4.3429505245452056 0 -0.78801076186113728 -0.61566146476048833 0.5 0 0 1 I I 0 1 0.5 forward I I I I #
face $-1 $210 $211 $71 $-1 $212 reversed single #
loop $-1 $-1 $213 $91 #
plane-surface $-1 -6.638753494916708 72.447223721509857 101.61994940172188 -1 0 0 0 0.78801076186113728 0.61566146476048833 forward_v I I I I #
face $-1 $214 $215 $72 $-1 $216 forward single #
loop $-1 $217 $218 $92 #
cone-surface $-1 -17.129904676108765 21.760662257655948 4.3429505245452056 0 -0.78801076186113728 -0.61566146476048833 0.5 0 0 1 I I 0 1 0.5 forward I I I I #
face $-1 $219 $220 $73 $-1 $221 forward single #
loop $-1 $222 $223 $93 #
cone-surface $-1 -10.835213967393528 21.760662257655948 4.3429505245452056 0 -0.78801076186113728 -0.61566146476048833 0.5 0 0 1 I I 0 1 0.5 forward I I I I #
face $-1 $224 $225 $74 $-1 $226 reversed single #
loop $-1 $-1 $227 $94 #
plane-surface $-1 16.961423581854675 72.447223721509857 101.61994940172188 -1 0 0 0 0.78801076186113728 0.61566146476048833 forward_v I I I I #
face $-1 $228 $229 $75 $-1 $230 forward single #
loop $-1 $231 $232 $95 #
cone-surface $-1 6.4702724006626227 21.760662257655948 4.3429505245452056 0 -0.78801076186113728 -0.61566146476048833 0.5 0 0 1 I I 0 1 0.5 forward I I I I #
face $-1 $233 $234 $76 $-1 $235 forward single #
loop $-1 $236 $237 $96 #
cone-surface $-1 12.764963109377859 21.760662257655948 4.3429505245452056 0 -0.78801076186113728 -0.61566146476048833 0.5 0 0 1 I I 0 1 0.5 forward I I I I #
face $-1 $238 $239 $77 $-1 $240 reversed single #
loop $-1 $-1 $241 $97 #
plane-surface $-1 40.561600658626062 72.447223721509857 101.61994940172188 -1 0 0 0 0.78801076186113728 0.61566146476048833 forward_v I I I I #
face $-1 $242 $243 $78 $-1 $244 forward single #
loop $-1 $245 $246 $98 #
cone-surface $-1 30.070449477434011 21.760662257655948 4.3429505245452056 0 -0.78801076186113728 -0.61566146476048833 0.5 0 0 1 I I 0 1 0.5 forward I I I I #
face $-1 $247 $248 $79 $-1 $249 forward single #
loop $-1 $250 $251 $99 #
cone-surface $-1 36.365140186149247 21.760662257655948 4.3429505245452056 0 -0.78801076186113728 -0.61566146476048833 0.5 0 0 1 I I 0 1 0.5 forward I I I I #
face $-1 $252 $253 $60 $-1 $254 reversed single #
loop $-1 $-1 $255 $100 #
plane-surface $-1 0 0 -6.7149196618534139 0 0 1 1 0 0 forward_v I I I I #
coedge $-1 $256 $257 $258 $259 forward $101 $-1 #
face $-1 $260 $261 $61 $-1 $262 reversed single #
loop $-1 $-1 $263 $103 #
plane-surface $-1 -44.926542225356968 0 4.700566720900988 -1 0 0 0 0 1 forward_v I I I I #
coedge $-1 $264 $265 $266 $267 forward $104 $-1 #
face $-1 $268 $269 $62 $-1 $270 reversed single #
loop $-1 $-1 $271 $106 #
plane-surface $-1 -5.9524353143264719 -23.884908006942133 3.0218655558043537 0 -0.55919291073839883 0.82903756765294845 1 0 0 forward_v I I I I #
coedge $-1 $272 $273 $274 $275 reversed $107 $-1 #
face $-1 $-1 $276 $63 $-1 $277 forward single #
loop $-1 $278 $279 $109 #
cone-surface $-1 -8.5566665830851747 -19.562791305803945 2.5192335585580325 0 0.55919291073839883 -0.82903756765294845 0.5 0 0 1 I I -0.70710678118654746 0.70710678118654746 0.5 forward I I I I #
loop $-1 $-1 $280 $83 #
coedge $-1 $176 $176 $281 $282 reversed $110 $-1 #
face $-1 $-1 $283 $64 $-1 $284 forward single #
loop $-1 $285 $286 $112 #
cone-surface $-1 -3.3482040455677691 -19.562791305803945 2.5192335585580325 0 0.55919291073839883 -0.82903756765294845 0.5 0 0 1 I I -0.70710678118654746 0.70710678118654746 0.5 forward I I I I #
loop $-1 $-1 $287 $84 #
coedge $-1 $181 $181 $288 $289 reversed $113 $-1 #
face $-1 $290 $291 $65 $-1 $292 reversed single #
loop $-1 $-1 $293 $115 #
plane-surface $-1 10.500059170698073 -23.884908006942133 3.0218655558043537 0 -0.55919291073839883 0.82903756765294845 1 0 0 forward_v I I I I #
coedge $-1 $294 $295 $296 $297 reversed $116 $-1 #
face $-1 $-1 $298 $66 $-1 $299 forward single #
loop $-1 $300 $301 $118 #
cone-surface $-1 7.89582790193937 -19.562791305803945 2.5192335585580325 0 0.55919291073839883 -0.82903756765294845 0.5 0 0 1 I I -0.70710678118654746 0.70710678118654746 0.5 forward I I I I #
loop $-1 $-1 $302 $86 #
coedge $-1 $190 $190 $303 $304 reversed $119 $-1 #
face $-1 $-1 $305 $67 $-1 $306 forward single #
loop $-1 $307 $308 $121 #
cone-surface $-1 13.104290439456776 -19.562791305803945 2.5192335585580325 0 0.55919291073839883 -0.82903756765294845 0.5 0 0 1 I I -0.70710678118654746 0.70710678118654746 0.5 forward I I I I #
loop $-1 $-1 $309 $87 #
coedge $-1 $195 $195 $310 $311 reversed $122 $-1 #
face $-1 $312 $313 $68 $-1 $314 forward single #
loop $-1 $-1 $315 $124 #
plane-surface $-1 -37.582736398522528 -5.5251268915048826 40.701274286360523 0 0.78801076186113728 0.61566146476048833 1 0 0 forward_v I I I I #
coedge $-1 $316 $317 $318 $319 reversed $125 $-1 #
face $-1 $-1 $320 $69 $-1 $321 forward single #
loop $-1 $322 $323 $127 #
cone-surface $-1 -40.730081752880146 20.867906451290089 3.645453264326961 0 -0.78801076186113728 -0.61566146476048833 0.25 0 0 1 I I -0.70710678118654746 0.70710678118654746 0.25 forward I I I I #
loop $-1 $-1 $324 $89 #
coedge $-1 $204 $204 $325 $326 reversed $128 $-1 #
face $-1 $-1 $327 $70 $-1 $328 forward single #
loop $-1 $329 $330 $130 #
cone-surface $-1 -34.435391044164916 20.867906451290089 3.645453264326961 0 -0.78801076186113728 -0.61566146476048833 0.25 0 0 1 I I -0.70710678118654746 0.70710678118654746 0.25 forward I I I I #
loop $-1 $-1 $331 $90 #
coedge $-1 $209 $209 $332 $333 reversed $131 $-1 #
face $-1 $334 $335 $71 $-1 $336 reversed single #
loop $-1 $-1 $337 $133 #
plane-surface $-1 -13.982559321751147 -5.5251268915048826 40.701274286360523 0 0.78801076186113728 0.61566146476048833 1 0 0 forward_v I I I I #
coedge $-1 $338 $339 $340 $341 reversed $134 $-1 #
face $-1 $-1 $342 $72 $-1 $343 forward single #
loop $-1 $344 $345 $136 #
cone-surface $-1 -17.129904676108765 20.867906451290089 3.645453264326961 0 -0.78801076186113728 -0.61566146476048833 0.25 0 0 1 I I -0.70710678118654746 0.70710678118654746 0.25 forward I I I I #
loop $-1 $-1 $346 $92 #
coedge $-1 $218 $218 $347 $348 reversed $137 $-1 #
face $-1 $-1 $349 $73 $-1 $350 forward single #
loop $-1 $351 $352 $139 #
cone-surface $-1 -10.835213967393528 20.867906451290089 3.645453264326961 0 -0.78801076186113728 -0.61566146476048833 0.25 0 0 1 I I -0.70710678118654746 0.70710678118654746 0.25 forward I I I I #
loop $-1 $-1 $353 $93 #
coedge $-1 $223 $223 $354 $355 reversed $140 $-1 #
face $-1 $356 $357 $74 $-1 $358 reversed single #
loop $-1 $-1 $359 $142 #
plane-surface $-1 9.617617755020234 -5.5251268915048826 40.701274286360523 0 0.78801076186113728 0.61566146476048833 1 0 0 forward_v I I I I #
coedge $-1 $360 $361 $362 $363 reversed $143 $-1 #
face $-1 $-1 $364 $75 $-1 $365 forward single #
loop $-1 $366 $367 $145 #
cone-surface $-1 6.4702724006626227 20.867906451290089 3.645453264326961 0 -0.78801076186113728 -0.61566146476048833 0.25 0 0 1 I I -0.70710678118654746 0.70710678118654746 0.25 forward I I I I #
loop $-1 $-1 $368 $95 #
coedge $-1 $232 $232 $369 $370 reversed $146 $-1 #
face $-1 $-1 $371 $76 $-1 $372 forward single #
loop $-1 $373 $374 $148 #
cone-surface $-1 12.764963109377859 20.867906451290089 3.645453264326961 0 -0.78801076186113728 -0.61566146476048833 0.25 0 0 1 I I -0.70710678118654746 0.70710678118654746 0.25 forward I I I I #
loop $-1 $-1 $375 $96 #
coedge $-1 $237 $237 $376 $377 reversed $149 $-1 #
face $-1 $378 $379 $77 $-1 $380 reversed single #
loop $-1 $-1 $381 $151 #
plane-surface $-1 33.217794831791622 -5.5251268915048826 40.701274286360523 0 0.78801076186113728 0.61566146476048833 1 0 0 forward_v I I I I #
coedge $-1 $382 $383 $384 $385 reversed $152 $-1 #
face $-1 $-1 $386 $78 $-1 $387 forward single #
loop $-1 $388 $389 $154 #
cone-surface $-1 30.070449477434011 20.867906451290089 3.645453264326961 0 -0.78801076186113728 -0.61566146476048833 0.25 0 0 1 I I -0.70710678118654746 0.70710678118654746 0.25 forward I I I I #
loop $-1 $-1 $390 $98 #
coedge $-1 $246 $246 $391 $392 reversed $155 $-1 #
face $-1 $-1 $393 $79 $-1 $394 forward single #
loop $-1 $395 $396 $157 #
cone-surface $-1 36.365140186149247 20.867906451290089 3.645453264326961 0 -0.78801076186113728 -0.61566146476048833 0.25 0 0 1 I I -0.70710678118654746 0.70710678118654746 0.25 forward I I I I #
loop $-1 $-1 $397 $99 #
coedge $-1 $251 $251 $398 $399 reversed $158 $-1 #
face $-1 $400 $401 $60 $-1 $402 reversed single #
loop $-1 $-1 $403 $160 #
plane-surface $-1 0 -23.884908006942119 0 0 1 0 0 0 1 forward_v I I I I #
coedge $-1 $404 $405 $406 $407 forward $161 $-1 #
coedge $-1 $408 $163 $409 $410 forward $101 $-1 #
coedge $-1 $163 $408 $411 $412 forward $101 $-1 #
coedge $-1 $413 $414 $163 $259 reversed $415 $-1 #
edge $-1 $416 -23.884908006942119 $417 23.884908006942119 $258 $418 forward 7 unknown #
face $-1 $419 $420 $61 $-1 $421 reversed single #
loop $-1 $-1 $422 $164 #
plane-surface $-1 0 23.884908006942119 0 0 -1 0 0 0 -1 forward_v I I I I #
coedge $-1 $423 $424 $425 $426 reversed $165 $-1 #
coedge $-1 $427 $167 $428 $429 reversed $104 $-1 #
coedge $-1 $167 $427 $430 $431 reversed $104 $-1 #
coedge $-1 $424 $423 $167 $267 reversed $165 $-1 #
edge $-1 $432 -23.884908006942119 $433 23.884908006942119 $266 $434 forward 7 unknown #
face $-1 $435 $436 $62 $-1 $437 reversed single #
loop $-1 $-1 $438 $168 #
plane-surface $-1 -12.028974941430107 -79.216113882135659 85.053750175912867 1 0 0 0 0.55919291073839883 -0.82903756765294845 forward_v I I I I #
coedge $-1 $439 $440 $441 $442 reversed $169 $-1 #
coedge $-1 $273 $171 $443 $444 reversed $107 $-1 #
coedge $-1 $171 $272 $439 $445 reversed $107 $-1 #
coedge $-1 $441 $446 $171 $275 forward $447 $-1 #
edge $-1 $448 15.72314893412571 $449 21.198326702825913 $274 $450 forward 7 unknown #
loop $-1 $-1 $281 $172 #
plane-surface $-1 -5.9524353143264719 -23.884908006942133 3.0218655558043537 0 -0.55919291073839883 0.82903756765294845 1 0 0 forward_v I I I I #
loop $-1 $-1 $451 $109 #
coedge $-1 $279 $279 $280 $452 reversed $173 $-1 #
coedge $-1 $280 $280 $279 $452 forward $175 $-1 #
coedge $-1 $281 $281 $176 $282 forward $276 $-1 #
edge $-1 $453 -2.5526060743612011e-015 $453 6.2831853071795978 $281 $454 forward 7 unknown #
loop $-1 $-1 $288 $177 #
plane-surface $-1 -5.9524353143264719 -23.884908006942133 3.0218655558043537 0 -0.55919291073839883 0.82903756765294845 1 0 0 forward_v I I I I #
loop $-1 $-1 $455 $112 #
coedge $-1 $286 $286 $287 $456 reversed $178 $-1 #
coedge $-1 $287 $287 $286 $456 forward $180 $-1 #
coedge $-1 $288 $288 $181 $289 forward $283 $-1 #
edge $-1 $457 -2.5526060743612011e-015 $457 6.2831853071795978 $288 $458 forward 7 unknown #
face $-1 $459 $460 $65 $-1 $461 reversed single #
loop $-1 $-1 $462 $182 #
plane-surface $-1 4.4235195435944377 -79.216113882135659 85.053750175912867 1 0 0 0 0.55919291073839883 -0.82903756765294845 forward_v I I I I #
coedge $-1 $463 $464 $465 $466 reversed $183 $-1 #
coedge $-1 $295 $185 $467 $468 reversed $116 $-1 #
coedge $-1 $185 $294 $463 $469 reversed $116 $-1 #
coedge $-1 $465 $470 $185 $297 forward $471 $-1 #
edge $-1 $472 15.72314893412571 $473 21.198326702825913 $296 $474 forward 7 unknown #
loop $-1 $-1 $303 $186 #
plane-surface $-1 10.500059170698073 -23.884908006942133 3.0218655558043537 0 -0.55919291073839883 0.82903756765294845 1 0 0 forward_v I I I I #
loop $-1 $-1 $475 $118 #
coedge $-1 $301 $301 $302 $476 reversed $187 $-1 #
coedge $-1 $302 $302 $301 $476 forward $189 $-1 #
coedge $-1 $303 $303 $190 $304 forward $298 $-1 #
edge $-1 $477 -2.5526060743612011e-015 $477 6.2831853071795978 $303 $478 forward 7 unknown #
loop $-1 $-1 $310 $191 #
plane-surface $-1 10.500059170698073 -23.884908006942133 3.0218655558043537 0 -0.55919291073839883 0.82903756765294845 1 0 0 forward_v I I I I #
loop $-1 $-1 $479 $121 #
coedge $-1 $308 $308 $309 $480 reversed $192 $-1 #
coedge $-1 $309 $309 $308 $480 forward $194 $-1 #
coedge $-1 $310 $310 $195 $311 forward $305 $-1 #
edge $-1 $481 -2.5526060743612011e-015 $481 6.2831853071795978 $310 $482 forward 7 unknown #
face $-1 $483 $484 $68 $-1 $485 forward single #
loop $-1 $-1 $486 $196 #
plane-surface $-1 0 0 6.7149196618534139 0 0 1 1 0 0 forward_v I I I I #
coedge $-1 $487 $488 $489 $490 reversed $197 $-1 #
coedge $-1 $317 $199 $491 $492 reversed $125 $-1 #
coedge $-1 $199 $316 $487 $493 reversed $125 $-1 #
coedge $-1 $489 $494 $199 $319 forward $495 $-1 #
edge $-1 $496 44.095055039007526 $497 47.751829525567693 $318 $498 forward 7 unknown #
loop $-1 $-1 $325 $200 #
plane-surface $-1 -37.582736398522528 -5.5251268915048826 40.701274286360523 0 0.78801076186113728 0.61566146476048833 1 0 0 forward_v I I I I #
loop $-1 $-1 $499 $127 #
coedge $-1 $323 $323 $324 $500 reversed $201 $-1 #
coedge $-1 $324 $324 $323 $500 forward $203 $-1 #
coedge $-1 $325 $325 $204 $326 forward $320 $-1 #
edge $-1 $501 1.5749612020238124e-015 $501 6.2831853071796022 $325 $502 forward 7 unknown #
loop $-1 $-1 $332 $205 #
plane-surface $-1 -37.582736398522528 -5.5251268915048826 40.701274286360523 0 0.78801076186113728 0.61566146476048833 1 0 0 forward_v I I I I #
loop $-1 $-1 $503 $130 #
coedge $-1 $330 $330 $331 $504 reversed $206 $-1 #
coedge $-1 $331 $331 $330 $504 forward $208 $-1 #
coedge $-1 $332 $332 $209 $333 forward $327 $-1 #
edge $-1 $505 1.5749612020238124e-015 $505 6.2831853071796022 $332 $506 forward 7 unknown #
face $-1 $507 $508 $71 $-1 $509 forward single #
loop $-1 $-1 $510 $210 #
plane-surface $-1 -21.326365148585587 72.447223721509857 101.61994940172188 1 0 0 0 -0.78801076186113728 -0.61566146476048833 forward_v I I I I #
coedge $-1 $511 $512 $513 $514 reversed $211 $-1 #
coedge $-1 $339 $213 $515 $516 reversed $134 $-1 #
coedge $-1 $213 $338 $511 $517 reversed $134 $-1 #
coedge $-1 $513 $518 $213 $341 forward $519 $-1 #
edge $-1 $520 44.095055039007526 $521 47.751829525567693 $340 $522 forward 7 unknown #
loop $-1 $-1 $347 $214 #
plane-surface $-1 -13.982559321751147 -5.5251268915048826 40.701274286360523 0 0.78801076186113728 0.61566146476048833 1 0 0 forward_v I I I I #
loop $-1 $-1 $523 $136 #
coedge $-1 $345 $345 $346 $524 reversed $215 $-1 #
coedge $-1 $346 $346 $345 $524 forward $217 $-1 #
coedge $-1 $347 $347 $218 $348 forward $342 $-1 #
edge $-1 $525 1.5749612020238124e-015 $525 6.2831853071796022 $347 $526 forward 7 unknown #
loop $-1 $-1 $354 $219 #
plane-surface $-1 -13.982559321751147 -5.5251268915048826 40.701274286360523 0 0.78801076186113728 0.61566146476048833 1 0 0 forward_v I I I I #
loop $-1 $-1 $527 $139 #
coedge $-1 $352 $352 $353 $528 reversed $220 $-1 #
coedge $-1 $353 $353 $352 $528 forward $222 $-1 #
coedge $-1 $354 $354 $223 $355 forward $349 $-1 #
edge $-1 $529 1.5749612020238124e-015 $529 6.2831853071796022 $354 $530 forward 7 unknown #
face $-1 $531 $532 $74 $-1 $533 forward single #
loop $-1 $-1 $534 $224 #
plane-surface $-1 2.2738119281857951 72.447223721509857 101.61994940172188 1 0 0 0 -0.78801076186113728 -0.61566146476048833 forward_v I I I I #
coedge $-1 $535 $536 $537 $538 reversed $225 $-1 #
coedge $-1 $361 $227 $539 $540 reversed $143 $-1 #
coedge $-1 $227 $360 $535 $541 reversed $143 $-1 #
coedge $-1 $537 $542 $227 $363 forward $543 $-1 #
edge $-1 $544 44.095055039007526 $545 47.751829525567693 $362 $546 forward 7 unknown #
loop $-1 $-1 $369 $228 #
plane-surface $-1 9.617617755020234 -5.5251268915048826 40.701274286360523 0 0.78801076186113728 0.61566146476048833 1 0 0 forward_v I I I I #
loop $-1 $-1 $547 $145 #
coedge $-1 $367 $367 $368 $548 reversed $229 $-1 #
coedge $-1 $368 $368 $367 $548 forward $231 $-1 #
coedge $-1 $369 $369 $232 $370 forward $364 $-1 #
edge $-1 $549 1.5749612020238124e-015 $549 6.2831853071796022 $369 $550 forward 7 unknown #
loop $-1 $-1 $376 $233 #
plane-surface $-1 9.617617755020234 -5.5251268915048826 40.701274286360523 0 0.78801076186113728 0.61566146476048833 1 0 0 forward_v I I I I #
loop $-1 $-1 $551 $148 #
coedge $-1 $374 $374 $375 $552 reversed $234 $-1 #
coedge $-1 $375 $375 $374 $552 forward $236 $-1 #
coedge $-1 $376 $376 $237 $377 forward $371 $-1 #
edge $-1 $553 1.5749612020238124e-015 $553 6.2831853071796022 $376 $554 forward 7 unknown #
face $-1 $555 $556 $77 $-1 $557 forward single #
loop $-1 $-1 $558 $238 #
plane-surface $-1 25.873989004957181 72.447223721509857 101.61994940172188 1 0 0 0 -0.78801076186113728 -0.61566146476048833 forward_v I I I I #
coedge $-1 $559 $560 $561 $562 reversed $239 $-1 #
coedge $-1 $383 $241 $563 $564 reversed $152 $-1 #
coedge $-1 $241 $382 $559 $565 reversed $152 $-1 #
coedge $-1 $561 $566 $241 $385 forward $567 $-1 #
edge $-1 $568 44.095055039007526 $569 47.751829525567693 $384 $570 forward 7 unknown #
loop $-1 $-1 $391 $242 #
plane-surface $-1 33.217794831791622 -5.5251268915048826 40.701274286360523 0 0.78801076186113728 0.61566146476048833 1 0 0 forward_v I I I I #
loop $-1 $-1 $571 $154 #
coedge $-1 $389 $389 $390 $572 reversed $243 $-1 #
coedge $-1 $390 $390 $389 $572 forward $245 $-1 #
coedge $-1 $391 $391 $246 $392 forward $386 $-1 #
edge $-1 $573 1.5749612020238124e-015 $573 6.2831853071796022 $391 $574 forward 7 unknown #
loop $-1 $-1 $398 $247 #
plane-surface $-1 33.217794831791622 -5.5251268915048826 40.701274286360523 0 0.78801076186113728 0.61566146476048833 1 0 0 forward_v I I I I #
loop $-1 $-1 $575 $157 #
coedge $-1 $396 $396 $397 $576 reversed $248 $-1 #
coedge $-1 $397 $397 $396 $576 forward $250 $-1 #
coedge $-1 $398 $398 $251 $399 forward $393 $-1 #
edge $-1 $577 1.5749612020238124e-015 $577 6.2831853071796022 $398 $578 forward 7 unknown #
face $-1 $579 $580 $60 $-1 $581 reversed single #
loop $-1 $-1 $582 $252 #
plane-surface $-1 -49.474166081728569 0 0 1 0 0 0 0 -1 forward_v I I I I #
coedge $-1 $583 $411 $584 $585 forward $253 $-1 #
coedge $-1 $586 $255 $583 $587 forward $161 $-1 #
coedge $-1 $255 $586 $588 $589 forward $161 $-1 #
coedge $-1 $414 $413 $255 $407 reversed $415 $-1 #
edge $-1 $590 -23.884908006942119 $591 23.884908006942119 $406 $592 forward 7 unknown #
coedge $-1 $257 $256 $593 $594 forward $101 $-1 #
coedge $-1 $595 $596 $256 $410 reversed $580 $-1 #
edge $-1 $417 -49.474166081728569 $597 49.474166081728569 $409 $598 forward 7 unknown #
coedge $-1 $403 $599 $257 $412 reversed $253 $-1 #
edge $-1 $600 -49.474166081728569 $416 49.474166081728569 $411 $601 forward 7 unknown #
coedge $-1 $406 $258 $599 $602 forward $415 $-1 #
coedge $-1 $258 $406 $595 $603 reversed $415 $-1 #
loop $-1 $-1 $413 $579 #
vertex $-1 $259 $604 #
vertex $-1 $259 $605 #
straight-curve $-1 49.474166081728569 0 6.7149196618534139 0 1 0 I I #
face $-1 $606 $607 $61 $-1 $608 forward single #
loop $-1 $-1 $609 $260 #
plane-surface $-1 -49.474166081728569 0 0 1 0 0 0 0 -1 forward_v I I I I #
coedge $-1 $430 $610 $424 $611 forward $261 $-1 #
coedge $-1 $266 $263 $612 $613 reversed $165 $-1 #
coedge $-1 $263 $266 $422 $611 reversed $165 $-1 #
coedge $-1 $614 $615 $263 $426 forward $607 $-1 #
edge $-1 $616 -23.884908006942119 $617 23.884908006942119 $425 $618 forward 7 unknown #
coedge $-1 $265 $264 $609 $619 reversed $104 $-1 #
coedge $-1 $612 $620 $264 $429 forward $621 $-1 #
edge $-1 $622 -25.873989004957185 $433 -21.326365148585584 $428 $623 forward 7 unknown #
coedge $-1 $624 $422 $265 $431 forward $261 $-1 #
edge $-1 $432 21.326365148585584 $625 25.873989004957185 $430 $626 forward 7 unknown #
vertex $-1 $431 $627 #
vertex $-1 $429 $628 #
straight-curve $-1 -44.926542225356968 0 2.6862137799485621 0 -1 0 I I #
face $-1 $-1 $447 $62 $-1 $629 forward single #
loop $-1 $-1 $630 $268 #
plane-surface $-1 0 -23.884908006942119 0 0 1 0 0 0 1 forward_v I I I I #
coedge $-1 $631 $632 $633 $634 reversed $269 $-1 #
coedge $-1 $635 $271 $273 $445 forward $169 $-1 #
coedge $-1 $271 $635 $631 $636 forward $169 $-1 #
coedge $-1 $633 $274 $271 $442 forward $447 $-1 #
edge $-1 $449 -3.1003219699403992 $637 9.0527572842668711 $441 $638 forward 7 unknown #
coedge $-1 $639 $640 $272 $444 forward $436 $-1 #
edge $-1 $641 -39.505009532152073 $448 -35.811955426103019 $443 $642 forward 7 unknown #
edge $-1 $449 -6.6042577349066942 $641 -1.7244626260799089e-014 $273 $643 forward 7 unknown #
coedge $-1 $274 $633 $639 $644 forward $447 $-1 #
loop $-1 $-1 $633 $435 #
vertex $-1 $444 $645 #
vertex $-1 $275 $646 #
straight-curve $-1 0.12410431277716327 -39.608056941067829 6.7149196618534148 0 1 0 I I #
coedge $-1 $451 $451 $-1 $647 reversed $278 $-1 #
edge $-1 $648 0 $648 6.2831853071796004 $279 $649 forward 7 unknown #
vertex $-1 $282 $650 #
ellipse-curve $-1 -8.5566665830851747 -21.147319122592009 4.8683926088288922 0 -0.55919291073839883 0.82903756765294845 1 0 0 1 I I #
coedge $-1 $455 $455 $-1 $651 reversed $285 $-1 #
edge $-1 $652 0 $652 6.2831853071796004 $286 $653 forward 7 unknown #
vertex $-1 $289 $654 #
ellipse-curve $-1 -3.3482040455677691 -21.147319122592009 4.8683926088288922 0 -0.55919291073839883 0.82903756765294845 1 0 0 1 I I #
face $-1 $-1 $471 $65 $-1 $655 forward single #
loop $-1 $-1 $656 $290 #
plane-surface $-1 0 -23.884908006942119 0 0 1 0 0 0 1 forward_v I I I I #
coedge $-1 $657 $658 $659 $660 reversed $291 $-1 #
coedge $-1 $661 $293 $295 $469 forward $183 $-1 #
coedge $-1 $293 $661 $657 $662 forward $183 $-1 #
coedge $-1 $659 $296 $293 $466 forward $471 $-1 #
edge $-1 $473 -11.326569212452672 $663 0.82651004175459875 $465 $664 forward 7 unknown #
coedge $-1 $665 $666 $294 $468 forward $460 $-1 #
edge $-1 $667 -39.505009532152073 $472 -35.811955426103019 $467 $668 forward 7 unknown #
edge $-1 $473 -6.6042577349066942 $667 -1.7244626260799089e-014 $295 $669 forward 7 unknown #
coedge $-1 $296 $659 $665 $670 forward $471 $-1 #
loop $-1 $-1 $659 $459 #
vertex $-1 $468 $671 #
vertex $-1 $297 $672 #
straight-curve $-1 16.576598797801708 -39.608056941067829 6.7149196618534148 0 1 0 I I #
coedge $-1 $475 $475 $-1 $673 reversed $300 $-1 #
edge $-1 $674 0 $674 6.2831853071796004 $301 $675 forward 7 unknown #
vertex $-1 $304 $676 #
ellipse-curve $-1 7.89582790193937 -21.147319122592009 4.8683926088288922 0 -0.55919291073839883 0.82903756765294845 1 0 0 1 I I #
coedge $-1 $479 $479 $-1 $677 reversed $307 $-1 #
edge $-1 $678 0 $678 6.2831853071796004 $308 $679 forward 7 unknown #
vertex $-1 $311 $680 #
ellipse-curve $-1 13.104290439456776 -21.147319122592009 4.8683926088288922 0 -0.55919291073839883 0.82903756765294845 1 0 0 1 I I #
face $-1 $-1 $495 $68 $-1 $681 reversed single #
loop $-1 $-1 $682 $312 #
plane-surface $-1 -44.926542225356968 0 4.700566720900988 -1 0 0 0 0 1 forward_v I I I I #
coedge $-1 $491 $683 $684 $685 forward $313 $-1 #
coedge $-1 $684 $315 $317 $493 forward $197 $-1 #
coedge $-1 $315 $684 $682 $686 reversed $197 $-1 #
coedge $-1 $687 $318 $315 $490 forward $495 $-1 #
edge $-1 $497 11.447562372426823 $688 26.135174026095704 $489 $689 forward 7 unknown #
coedge $-1 $690 $486 $316 $492 forward $313 $-1 #
edge $-1 $691 -15.195689120584003 $496 -12.33870385381281 $491 $692 forward 7 unknown #
edge $-1 $497 -47.769816013884238 $691 -43.129302630636104 $317 $693 forward 7 unknown #
coedge $-1 $318 $687 $690 $694 reversed $495 $-1 #
loop $-1 $-1 $489 $483 #
vertex $-1 $694 $695 #
vertex $-1 $319 $696 #
straight-curve $-1 -30.238930571688087 23.884908006942119 50.809974700860941 0 0 -1 I I #
coedge $-1 $499 $499 $-1 $697 reversed $322 $-1 #
edge $-1 $698 0 $698 6.2831853071796004 $323 $699 forward 7 unknown #
vertex $-1 $326 $700 #
ellipse-curve $-1 -40.730081752880146 22.456415373556517 4.8865324185733261 0 0.78801076186113728 0.61566146476048833 0.5 0 0 1 I I #
coedge $-1 $503 $503 $-1 $701 reversed $329 $-1 #
edge $-1 $702 0 $702 6.2831853071796004 $330 $703 forward 7 unknown #
vertex $-1 $333 $704 #
ellipse-curve $-1 -34.435391044164916 22.456415373556517 4.8865324185733261 0 0.78801076186113728 0.61566146476048833 0.5 0 0 1 I I #
face $-1 $-1 $519 $71 $-1 $705 reversed single #
loop $-1 $-1 $706 $334 #
plane-surface $-1 0 0 6.7149196618534139 0 0 1 1 0 0 forward_v I I I I #
coedge $-1 $707 $708 $709 $710 reversed $335 $-1 #
coedge $-1 $711 $337 $339 $517 forward $211 $-1 #
coedge $-1 $337 $711 $707 $712 forward $211 $-1 #
coedge $-1 $709 $340 $337 $514 forward $519 $-1 #
edge $-1 $521 -0.35252616595886543 $713 14.335085487710014 $513 $714 forward 7 unknown #
coedge $-1 $715 $716 $338 $516 forward $508 $-1 #
edge $-1 $717 -15.195689120584003 $520 -12.33870385381281 $515 $718 forward 7 unknown #
edge $-1 $521 -47.769816013884238 $717 -43.129302630636104 $339 $719 forward 7 unknown #
coedge $-1 $340 $709 $715 $720 reversed $519 $-1 #
loop $-1 $-1 $709 $507 #
vertex $-1 $720 $721 #
vertex $-1 $341 $722 #
straight-curve $-1 -6.638753494916708 23.884908006942119 50.809974700860941 0 0 -1 I I #
coedge $-1 $523 $523 $-1 $723 reversed $344 $-1 #
edge $-1 $724 0 $724 6.2831853071796004 $345 $725 forward 7 unknown #
vertex $-1 $348 $726 #
ellipse-curve $-1 -17.129904676108765 22.456415373556517 4.8865324185733261 0 0.78801076186113728 0.61566146476048833 0.5 0 0 1 I I #
coedge $-1 $527 $527 $-1 $727 reversed $351 $-1 #
edge $-1 $728 0 $728 6.2831853071796004 $352 $729 forward 7 unknown #
vertex $-1 $355 $730 #
ellipse-curve $-1 -10.835213967393528 22.456415373556517 4.8865324185733261 0 0.78801076186113728 0.61566146476048833 0.5 0 0 1 I I #
face $-1 $-1 $543 $74 $-1 $731 reversed single #
loop $-1 $-1 $732 $356 #
plane-surface $-1 0 0 6.7149196618534139 0 0 1 1 0 0 forward_v I I I I #
coedge $-1 $733 $734 $735 $736 reversed $357 $-1 #
coedge $-1 $737 $359 $361 $541 forward $225 $-1 #
coedge $-1 $359 $737 $733 $738 forward $225 $-1 #
coedge $-1 $735 $362 $359 $538 forward $543 $-1 #
edge $-1 $545 -12.152614704344558 $739 2.5349969493243218 $537 $740 forward 7 unknown #
coedge $-1 $741 $742 $360 $540 forward $532 $-1 #
edge $-1 $743 -15.195689120584003 $544 -12.33870385381281 $539 $744 forward 7 unknown #
edge $-1 $545 -47.769816013884238 $743 -43.129302630636104 $361 $745 forward 7 unknown #
coedge $-1 $362 $735 $741 $746 reversed $543 $-1 #
loop $-1 $-1 $735 $531 #
vertex $-1 $746 $747 #
vertex $-1 $363 $748 #
straight-curve $-1 16.961423581854675 23.884908006942119 50.809974700860941 0 0 -1 I I #
coedge $-1 $547 $547 $-1 $749 reversed $366 $-1 #
edge $-1 $750 0 $750 6.2831853071796004 $367 $751 forward 7 unknown #
vertex $-1 $370 $752 #
ellipse-curve $-1 6.4702724006626227 22.456415373556517 4.8865324185733261 0 0.78801076186113728 0.61566146476048833 0.5 0 0 1 I I #
coedge $-1 $551 $551 $-1 $753 reversed $373 $-1 #
edge $-1 $754 0 $754 6.2831853071796004 $374 $755 forward 7 unknown #
vertex $-1 $377 $756 #
ellipse-curve $-1 12.764963109377859 22.456415373556517 4.8865324185733261 0 0.78801076186113728 0.61566146476048833 0.5 0 0 1 I I #
face $-1 $-1 $567 $77 $-1 $757 reversed single #
loop $-1 $-1 $758 $378 #
plane-surface $-1 0 0 6.7149196618534139 0 0 1 1 0 0 forward_v I I I I #
coedge $-1 $759 $760 $761 $762 reversed $379 $-1 #
coedge $-1 $763 $381 $383 $565 forward $239 $-1 #
coedge $-1 $381 $763 $759 $764 forward $239 $-1 #
coedge $-1 $761 $384 $381 $562 forward $567 $-1 #
edge $-1 $569 -23.952703242730252 $765 -9.2650915890613703 $561 $766 forward 7 unknown #
coedge $-1 $767 $768 $382 $564 forward $556 $-1 #
edge $-1 $769 -15.195689120584003 $568 -12.33870385381281 $563 $770 forward 7 unknown #
edge $-1 $569 -47.769816013884238 $769 -43.129302630636104 $383 $771 forward 7 unknown #
coedge $-1 $384 $761 $767 $772 reversed $567 $-1 #
loop $-1 $-1 $761 $555 #
vertex $-1 $772 $773 #
vertex $-1 $385 $774 #
straight-curve $-1 40.561600658626062 23.884908006942119 50.809974700860941 0 0 -1 I I #
coedge $-1 $571 $571 $-1 $775 reversed $388 $-1 #
edge $-1 $776 0 $776 6.2831853071796004 $389 $777 forward 7 unknown #
vertex $-1 $392 $778 #
ellipse-curve $-1 30.070449477434011 22.456415373556517 4.8865324185733261 0 0.78801076186113728 0.61566146476048833 0.5 0 0 1 I I #
coedge $-1 $575 $575 $-1 $779 reversed $395 $-1 #
edge $-1 $780 0 $780 6.2831853071796004 $396 $781 forward 7 unknown #
vertex $-1 $399 $782 #
ellipse-curve $-1 36.365140186149247 22.456415373556517 4.8865324185733261 0 0.78801076186113728 0.61566146476048833 0.5 0 0 1 I I #
face $-1 $-1 $415 $60 $-1 $783 reversed single #
loop $-1 $-1 $595 $400 #
plane-surface $-1 0 23.884908006942119 0 0 -1 0 0 0 -1 forward_v I I I I #
coedge $-1 $784 $593 $596 $785 forward $401 $-1 #
coedge $-1 $599 $403 $404 $587 reversed $253 $-1 #
coedge $-1 $593 $784 $403 $585 reversed $401 $-1 #
edge $-1 $600 -6.7149196618534139 $786 6.7149196618534139 $584 $787 forward 7 unknown #
coedge $-1 $405 $404 $784 $788 forward $161 $-1 #
edge $-1 $591 -49.474166081728569 $786 49.474166081728569 $583 $789 forward 7 unknown #
coedge $-1 $596 $595 $405 $589 reversed $580 $-1 #
edge $-1 $790 -49.474166081728569 $590 49.474166081728569 $588 $791 forward 7 unknown #
vertex $-1 $407 $792 #
vertex $-1 $602 $793 #
straight-curve $-1 49.474166081728569 0 -6.7149196618534139 0 -1 0 I I #
coedge $-1 $582 $584 $408 $594 reversed $401 $-1 #
edge $-1 $597 -23.884908006942119 $600 23.884908006942119 $593 $794 forward 7 unknown #
coedge $-1 $588 $409 $414 $603 forward $580 $-1 #
coedge $-1 $409 $588 $582 $785 reversed $580 $-1 #
vertex $-1 $410 $795 #
straight-curve $-1 0 23.884908006942119 6.7149196618534139 -1 0 0 I I #
coedge $-1 $411 $583 $413 $602 reversed $253 $-1 #
vertex $-1 $594 $796 #
straight-curve $-1 0 -23.884908006942119 6.7149196618534139 1 0 0 I I #
edge $-1 $416 -6.7149196618534139 $591 6.7149196618534139 $413 $797 forward 7 unknown #
edge $-1 $417 -6.7149196618534139 $590 6.7149196618534139 $414 $798 forward 7 unknown #
point $-1 49.474166081728569 -23.884908006942119 6.7149196618534139 #
point $-1 49.474166081728569 23.884908006942119 6.7149196618534139 #
face $-1 $-1 $621 $61 $-1 $799 reversed single #
loop $-1 $-1 $425 $419 #
plane-surface $-1 0 0 6.7149196618534139 0 0 1 1 0 0 forward_v I I I I #
coedge $-1 $800 $801 $427 $619 forward $420 $-1 #
coedge $-1 $422 $624 $614 $802 reversed $261 $-1 #
edge $-1 $617 -4.3646363014029195 $432 -0.33593041949806812 $422 $803 forward 7 unknown #
coedge $-1 $804 $428 $423 $613 forward $621 $-1 #
edge $-1 $433 0.33593041949806812 $616 4.3646363014029195 $612 $805 forward 7 unknown #
coedge $-1 $806 $425 $610 $802 forward $607 $-1 #
coedge $-1 $425 $806 $804 $807 forward $607 $-1 #
vertex $-1 $613 $808 #
vertex $-1 $802 $809 #
straight-curve $-1 -44.926542225356968 0 6.7149196618534139 0 1 0 I I #
edge $-1 $625 -23.884908006942119 $622 23.884908006942119 $609 $810 forward 7 unknown #
coedge $-1 $428 $804 $800 $811 forward $621 $-1 #
loop $-1 $-1 $612 $606 #
vertex $-1 $619 $812 #
straight-curve $-1 -23.600177076771384 -23.884908006942119 2.6862137799485621 1 0 0 I I #
coedge $-1 $610 $430 $801 $813 reversed $261 $-1 #
vertex $-1 $619 $814 #
straight-curve $-1 -23.600177076771384 23.884908006942119 2.6862137799485621 -1 0 0 I I #
point $-1 -44.926542225356968 23.884908006942119 2.6862137799485621 #
point $-1 -44.926542225356968 -23.884908006942119 2.6862137799485621 #
plane-surface $-1 0 0 6.7149196618534139 0 0 1 1 0 0 forward_v I I I I #
coedge $-1 $640 $639 $632 $815 forward $436 $-1 #
coedge $-1 $632 $438 $440 $636 reversed $269 $-1 #
coedge $-1 $438 $631 $630 $815 reversed $269 $-1 #
coedge $-1 $446 $441 $438 $634 forward $447 $-1 #
edge $-1 $637 -21.198326702825913 $816 -15.72314893412571 $633 $817 forward 7 unknown #
coedge $-1 $440 $439 $640 $818 reversed $169 $-1 #
edge $-1 $819 1.7244626260799089e-014 $637 6.6042577349066942 $631 $820 forward 7 unknown #
vertex $-1 $442 $821 #
straight-curve $-1 -2.9762176571632359 -18.409730238241913 6.7149196618534139 -1 0 0 I I #
coedge $-1 $630 $443 $446 $644 reversed $436 $-1 #
coedge $-1 $443 $630 $635 $818 forward $436 $-1 #
vertex $-1 $444 $822 #
straight-curve $-1 0.12410431277716327 -23.884908006942119 42.526875087956434 0 0 1 I I #
straight-curve $-1 0.12410431277716327 -23.884908006942133 3.0218655558043537 0 -0.82903756765294845 -0.55919291073839883 I I #
edge $-1 $816 -12.028974941430107 $448 0.12410431277716327 $639 $823 forward 7 unknown #
point $-1 0.12410431277716327 -23.884908006942119 6.7149196618534139 #
point $-1 0.12410431277716327 -18.409730238241917 6.7149196618534139 #
edge $-1 $824 1 $824 0 $451 $-1 forward 7 unknown #
vertex $-1 $452 $825 #
ellipse-curve $-1 -8.5566665830851747 -19.842387761173143 2.9337523423845067 0 -0.55919291073839883 0.82903756765294845 1 0 0 1 I I #
point $-1 -7.5566665830851747 -21.147319122592002 4.8683926088288771 #
edge $-1 $826 1 $826 0 $455 $-1 forward 7 unknown #
vertex $-1 $456 $827 #
ellipse-curve $-1 -3.3482040455677691 -19.842387761173143 2.9337523423845067 0 -0.55919291073839883 0.82903756765294845 1 0 0 1 I I #
point $-1 -2.3482040455677691 -21.147319122592002 4.8683926088288771 #
plane-surface $-1 0 0 6.7149196618534139 0 0 1 1 0 0 forward_v I I I I #
coedge $-1 $666 $665 $658 $828 forward $460 $-1 #
coedge $-1 $658 $462 $464 $662 reversed $291 $-1 #
coedge $-1 $462 $657 $656 $828 reversed $291 $-1 #
coedge $-1 $470 $465 $462 $660 forward $471 $-1 #
edge $-1 $663 -21.198326702825913 $829 -15.72314893412571 $659 $830 forward 7 unknown #
coedge $-1 $464 $463 $666 $831 reversed $183 $-1 #
edge $-1 $832 1.7244626260799089e-014 $663 6.6042577349066942 $657 $833 forward 7 unknown #
vertex $-1 $466 $834 #
straight-curve $-1 5.2500295853490364 -18.409730238241913 6.7149196618534139 -1 0 0 I I #
coedge $-1 $656 $467 $470 $670 reversed $460 $-1 #
coedge $-1 $467 $656 $661 $831 forward $460 $-1 #
vertex $-1 $468 $835 #
straight-curve $-1 16.576598797801708 -23.884908006942119 42.526875087956434 0 0 1 I I #
straight-curve $-1 16.576598797801708 -23.884908006942133 3.0218655558043537 0 -0.82903756765294845 -0.55919291073839883 I I #
edge $-1 $829 4.4235195435944377 $472 16.576598797801708 $665 $836 forward 7 unknown #
point $-1 16.576598797801708 -23.884908006942119 6.7149196618534139 #
point $-1 16.576598797801708 -18.409730238241917 6.7149196618534139 #
edge $-1 $837 1 $837 0 $475 $-1 forward 7 unknown #
vertex $-1 $476 $838 #
ellipse-curve $-1 7.89582790193937 -19.842387761173143 2.9337523423845067 0 -0.55919291073839883 0.82903756765294845 1 0 0 1 I I #
point $-1 8.89582790193937 -21.147319122592002 4.8683926088288771 #
edge $-1 $839 1 $839 0 $479 $-1 forward 7 unknown #
vertex $-1 $480 $840 #
ellipse-curve $-1 13.104290439456776 -19.842387761173143 2.9337523423845067 0 -0.55919291073839883 0.82903756765294845 1 0 0 1 I I #
point $-1 14.104290439456776 -21.147319122592002 4.8683926088288771 #
plane-surface $-1 0 23.884908006942119 0 0 -1 0 0 0 -1 forward_v I I I I #
coedge $-1 $841 $842 $488 $686 forward $484 $-1 #
coedge $-1 $486 $690 $841 $843 forward $313 $-1 #
coedge $-1 $488 $487 $486 $685 reversed $197 $-1 #
edge $-1 $844 -26.135174026095704 $691 -11.447562372426823 $486 $845 forward 7 unknown #
edge $-1 $688 -31.884539658279621 $844 -27.244026275031487 $682 $846 forward 7 unknown #
coedge $-1 $494 $489 $842 $847 forward $495 $-1 #
vertex $-1 $847 $848 #
straight-curve $-1 -18.791368199261264 23.884908006942119 3.0581451752932516 -1 0 0 I I #
coedge $-1 $683 $491 $494 $694 forward $313 $-1 #
vertex $-1 $492 $849 #
straight-curve $-1 -30.238930571688087 36.223611860754929 6.7149196618534148 0 1 0 I I #
straight-curve $-1 -30.238930571688087 -5.5251268915048826 40.701274286360523 0 -0.61566146476048833 0.78801076186113728 I I #
edge $-1 $496 30.238930571688087 $850 44.926542225356968 $494 $851 forward 7 unknown #
point $-1 -30.238930571688087 23.884908006942119 6.7149196618534139 #
point $-1 -30.238930571688087 23.884908006942119 3.058145175293248 #
edge $-1 $852 1 $852 0 $499 $-1 forward 7 unknown #
vertex $-1 $500 $853 #
ellipse-curve $-1 -40.730081752880146 21.064909141755372 3.7993686305170833 0 0.78801076186113728 0.61566146476048833 0.5 0 0 1 I I #
point $-1 -40.230081752880146 22.456415373556521 4.8865324185733279 #
edge $-1 $854 1 $854 0 $503 $-1 forward 7 unknown #
vertex $-1 $504 $855 #
ellipse-curve $-1 -34.435391044164916 21.064909141755372 3.7993686305170833 0 0.78801076186113728 0.61566146476048833 0.5 0 0 1 I I #
point $-1 -33.935391044164916 22.456415373556521 4.8865324185733279 #
plane-surface $-1 0 23.884908006942119 0 0 -1 0 0 0 -1 forward_v I I I I #
coedge $-1 $716 $715 $708 $856 forward $508 $-1 #
coedge $-1 $708 $510 $512 $712 reversed $335 $-1 #
coedge $-1 $510 $707 $706 $856 reversed $335 $-1 #
coedge $-1 $518 $513 $510 $710 forward $519 $-1 #
edge $-1 $713 -47.751829525567693 $857 -44.095055039007526 $709 $858 forward 7 unknown #
coedge $-1 $512 $511 $716 $859 reversed $211 $-1 #
edge $-1 $860 43.129302630636104 $713 47.769816013884238 $707 $861 forward 7 unknown #
vertex $-1 $514 $862 #
straight-curve $-1 -6.9912796608755734 23.884908006942119 3.0581451752932516 -1 0 0 I I #
coedge $-1 $706 $515 $518 $720 forward $508 $-1 #
coedge $-1 $515 $706 $711 $859 forward $508 $-1 #
vertex $-1 $516 $863 #
straight-curve $-1 -6.638753494916708 36.223611860754929 6.7149196618534148 0 1 0 I I #
straight-curve $-1 -6.638753494916708 -5.5251268915048826 40.701274286360523 0 -0.61566146476048833 0.78801076186113728 I I #
edge $-1 $520 6.638753494916708 $857 21.326365148585587 $518 $864 forward 7 unknown #
point $-1 -6.638753494916708 23.884908006942119 6.7149196618534139 #
point $-1 -6.638753494916708 23.884908006942119 3.058145175293248 #
edge $-1 $865 1 $865 0 $523 $-1 forward 7 unknown #
vertex $-1 $524 $866 #
ellipse-curve $-1 -17.129904676108765 21.064909141755372 3.7993686305170833 0 0.78801076186113728 0.61566146476048833 0.5 0 0 1 I I #
point $-1 -16.629904676108765 22.456415373556521 4.8865324185733279 #
edge $-1 $867 1 $867 0 $527 $-1 forward 7 unknown #
vertex $-1 $528 $868 #
ellipse-curve $-1 -10.835213967393528 21.064909141755372 3.7993686305170833 0 0.78801076186113728 0.61566146476048833 0.5 0 0 1 I I #
point $-1 -10.335213967393528 22.456415373556521 4.8865324185733279 #
plane-surface $-1 0 23.884908006942119 0 0 -1 0 0 0 -1 forward_v I I I I #
coedge $-1 $742 $741 $734 $869 forward $532 $-1 #
coedge $-1 $734 $534 $536 $738 reversed $357 $-1 #
coedge $-1 $534 $733 $732 $869 reversed $357 $-1 #
coedge $-1 $542 $537 $534 $736 forward $543 $-1 #
edge $-1 $739 -47.751829525567693 $870 -44.095055039007526 $735 $871 forward 7 unknown #
coedge $-1 $536 $535 $742 $872 reversed $225 $-1 #
edge $-1 $873 43.129302630636104 $739 47.769816013884238 $733 $874 forward 7 unknown #
vertex $-1 $538 $875 #
straight-curve $-1 4.808808877510117 23.884908006942119 3.0581451752932516 -1 0 0 I I #
coedge $-1 $732 $539 $542 $746 forward $532 $-1 #
coedge $-1 $539 $732 $737 $872 forward $532 $-1 #
vertex $-1 $540 $876 #
straight-curve $-1 16.961423581854675 36.223611860754929 6.7149196618534148 0 1 0 I I #
straight-curve $-1 16.961423581854675 -5.5251268915048826 40.701274286360523 0 -0.61566146476048833 0.78801076186113728 I I #
edge $-1 $544 -16.961423581854675 $870 -2.2738119281857951 $542 $877 forward 7 unknown #
point $-1 16.961423581854675 23.884908006942119 6.7149196618534139 #
point $-1 16.961423581854675 23.884908006942119 3.058145175293248 #
edge $-1 $878 1 $878 0 $547 $-1 forward 7 unknown #
vertex $-1 $548 $879 #
ellipse-curve $-1 6.4702724006626227 21.064909141755372 3.7993686305170833 0 0.78801076186113728 0.61566146476048833 0.5 0 0 1 I I #
point $-1 6.9702724006626227 22.456415373556521 4.8865324185733279 #
edge $-1 $880 1 $880 0 $551 $-1 forward 7 unknown #
vertex $-1 $552 $881 #
ellipse-curve $-1 12.764963109377859 21.064909141755372 3.7993686305170833 0 0.78801076186113728 0.61566146476048833 0.5 0 0 1 I I #
point $-1 13.264963109377859 22.456415373556521 4.8865324185733279 #
plane-surface $-1 0 23.884908006942119 0 0 -1 0 0 0 -1 forward_v I I I I #
coedge $-1 $768 $767 $760 $882 forward $556 $-1 #
coedge $-1 $760 $558 $560 $764 reversed $379 $-1 #
coedge $-1 $558 $759 $758 $882 reversed $379 $-1 #
coedge $-1 $566 $561 $558 $762 forward $567 $-1 #
edge $-1 $765 -47.751829525567693 $883 -44.095055039007526 $761 $884 forward 7 unknown #
coedge $-1 $560 $559 $768 $885 reversed $239 $-1 #
edge $-1 $886 43.129302630636104 $765 47.769816013884238 $759 $887 forward 7 unknown #
vertex $-1 $562 $888 #
straight-curve $-1 16.608897415895811 23.884908006942119 3.0581451752932516 -1 0 0 I I #
coedge $-1 $758 $563 $566 $772 forward $556 $-1 #
coedge $-1 $563 $758 $763 $885 forward $556 $-1 #
vertex $-1 $564 $889 #
straight-curve $-1 40.561600658626062 36.223611860754929 6.7149196618534148 0 1 0 I I #
straight-curve $-1 40.561600658626062 -5.5251268915048826 40.701274286360523 0 -0.61566146476048833 0.78801076186113728 I I #
edge $-1 $568 -40.561600658626062 $883 -25.873989004957181 $566 $890 forward 7 unknown #
point $-1 40.561600658626062 23.884908006942119 6.7149196618534139 #
point $-1 40.561600658626062 23.884908006942119 3.058145175293248 #
edge $-1 $891 1 $891 0 $571 $-1 forward 7 unknown #
vertex $-1 $572 $892 #
ellipse-curve $-1 30.070449477434011 21.064909141755372 3.7993686305170833 0 0.78801076186113728 0.61566146476048833 0.5 0 0 1 I I #
point $-1 30.570449477434011 22.456415373556521 4.8865324185733279 #
edge $-1 $893 1 $893 0 $575 $-1 forward 7 unknown #
vertex $-1 $576 $894 #
ellipse-curve $-1 36.365140186149247 21.064909141755372 3.7993686305170833 0 0.78801076186113728 0.61566146476048833 0.5 0 0 1 I I #
point $-1 36.865140186149247 22.456415373556521 4.8865324185733279 #
plane-surface $-1 49.474166081728569 0 0 -1 0 0 0 0 1 forward_v I I I I #
coedge $-1 $584 $582 $586 $788 reversed $401 $-1 #
edge $-1 $597 -6.7149196618534139 $790 6.7149196618534139 $596 $895 forward 7 unknown #
vertex $-1 $788 $896 #
straight-curve $-1 -49.474166081728569 -23.884908006942119 0 0 0 -1 I I #
edge $-1 $786 -23.884908006942119 $790 23.884908006942119 $784 $897 forward 7 unknown #
straight-curve $-1 0 -23.884908006942119 -6.7149196618534139 -1 0 0 I I #
vertex $-1 $589 $898 #
straight-curve $-1 0 23.884908006942119 -6.7149196618534139 1 0 0 I I #
point $-1 49.474166081728569 23.884908006942119 -6.7149196618534139 #
point $-1 49.474166081728569 -23.884908006942119 -6.7149196618534139 #
straight-curve $-1 -49.474166081728569 0 6.7149196618534139 0 -1 0 I I #
point $-1 -49.474166081728569 23.884908006942119 6.7149196618534139 #
point $-1 -49.474166081728569 -23.884908006942119 6.7149196618534139 #
straight-curve $-1 49.474166081728569 -23.884908006942119 0 0 0 -1 I I #
straight-curve $-1 49.474166081728569 23.884908006942119 0 0 0 -1 I I #
plane-surface $-1 0 -23.884908006942119 0 0 1 0 0 0 1 forward_v I I I I #
coedge $-1 $899 $609 $620 $811 reversed $420 $-1 #
coedge $-1 $609 $899 $624 $813 forward $420 $-1 #
edge $-1 $617 44.926542225356968 $900 49.474166081728569 $610 $901 forward 7 unknown #
straight-curve $-1 -44.926542225356968 23.884908006942119 2.350283360450494 0 0 -1 I I #
coedge $-1 $620 $612 $615 $807 reversed $621 $-1 #
straight-curve $-1 -44.926542225356968 -23.884908006942119 2.350283360450494 0 0 1 I I #
coedge $-1 $615 $614 $899 $902 forward $607 $-1 #
edge $-1 $903 -49.474166081728569 $616 -44.926542225356968 $804 $904 forward 7 unknown #
point $-1 -44.926542225356968 -23.884908006942119 6.7149196618534139 #
point $-1 -44.926542225356968 23.884908006942119 6.7149196618534139 #
straight-curve $-1 -49.474166081728569 0 2.6862137799485621 0 -1 0 I I #
edge $-1 $903 -6.7149196618534139 $622 -2.6862137799485621 $800 $905 forward 7 unknown #
point $-1 -49.474166081728569 -23.884908006942119 2.6862137799485621 #
edge $-1 $900 -6.7149196618534139 $625 -2.6862137799485621 $624 $906 forward 7 unknown #
point $-1 -49.474166081728569 23.884908006942119 2.6862137799485621 #
edge $-1 $816 35.811955426103019 $819 39.505009532152073 $630 $907 forward 7 unknown #
vertex $-1 $644 $908 #
straight-curve $-1 -12.028974941430107 -39.608056941067829 6.7149196618534148 0 -1 0 I I #
edge $-1 $819 -9.0527572842668711 $641 3.1003219699403992 $640 $909 forward 7 unknown #
vertex $-1 $818 $910 #
straight-curve $-1 -12.028974941430107 -23.884908006942133 3.0218655558043537 0 0.82903756765294845 0.55919291073839883 I I #
point $-1 -12.028974941430107 -18.409730238241917 6.7149196618534139 #
point $-1 0.12410431277716327 -23.884908006942119 3.0218655558043634 #
straight-curve $-1 0 -23.884908006942119 6.7149196618534139 1 0 0 I I #
vertex $-1 $647 $911 #
point $-1 -7.5566665830851747 -19.842387761173143 2.9337523423845067 #
vertex $-1 $651 $912 #
point $-1 -2.3482040455677691 -19.842387761173143 2.9337523423845067 #
edge $-1 $829 35.811955426103019 $832 39.505009532152073 $656 $913 forward 7 unknown #
vertex $-1 $670 $914 #
straight-curve $-1 4.4235195435944377 -39.608056941067829 6.7149196618534148 0 -1 0 I I #
edge $-1 $832 -0.82651004175459875 $667 11.326569212452672 $666 $915 forward 7 unknown #
vertex $-1 $831 $916 #
straight-curve $-1 4.4235195435944377 -23.884908006942133 3.0218655558043537 0 0.82903756765294845 0.55919291073839883 I I #
point $-1 4.4235195435944377 -18.409730238241917 6.7149196618534139 #
point $-1 16.576598797801708 -23.884908006942119 3.0218655558043634 #
straight-curve $-1 0 -23.884908006942119 6.7149196618534139 1 0 0 I I #
vertex $-1 $673 $917 #
point $-1 8.89582790193937 -19.842387761173143 2.9337523423845067 #
vertex $-1 $677 $918 #
point $-1 14.104290439456776 -19.842387761173143 2.9337523423845067 #
coedge $-1 $842 $682 $683 $843 reversed $484 $-1 #
coedge $-1 $682 $841 $687 $847 reversed $484 $-1 #
edge $-1 $850 -23.884908006942119 $844 -21.027922740170926 $683 $919 forward 7 unknown #
vertex $-1 $686 $920 #
straight-curve $-1 -18.791368199261264 21.027922740170926 6.7149196618534148 1 0 0 I I #
straight-curve $-1 -44.926542225356968 4.2548256177118082 28.183505563005816 0 -0.61566146476048833 0.78801076186113728 I I #
edge $-1 $688 0.70786181484275223 $850 4.3646363014029195 $687 $921 forward 7 unknown #
point $-1 -44.926542225356968 23.884908006942119 3.0581451752932463 #
point $-1 -30.238930571688087 21.027922740170926 6.7149196618534148 #
vertex $-1 $843 $922 #
straight-curve $-1 0 23.884908006942119 6.7149196618534139 -1 0 0 I I #
vertex $-1 $697 $923 #
point $-1 -40.230081752880146 21.064909141755372 3.7993686305170833 #
vertex $-1 $701 $924 #
point $-1 -33.935391044164916 21.064909141755372 3.7993686305170833 #
edge $-1 $857 12.33870385381281 $860 15.195689120584003 $706 $925 forward 7 unknown #
vertex $-1 $710 $926 #
straight-curve $-1 -21.326365148585587 23.884908006942119 50.809974700860941 0 0 1 I I #
edge $-1 $860 -14.335085487710014 $717 0.35252616595886543 $716 $927 forward 7 unknown #
vertex $-1 $859 $928 #
straight-curve $-1 -21.326365148585587 -5.5251268915048826 40.701274286360523 0 0.61566146476048833 -0.78801076186113728 I I #
point $-1 -21.326365148585587 23.884908006942119 3.058145175293248 #
point $-1 -6.638753494916708 21.027922740170926 6.7149196618534148 #
straight-curve $-1 0 23.884908006942119 6.7149196618534139 -1 0 0 I I #
vertex $-1 $723 $929 #
point $-1 -16.629904676108765 21.064909141755372 3.7993686305170833 #
vertex $-1 $727 $930 #
point $-1 -10.335213967393528 21.064909141755372 3.7993686305170833 #
edge $-1 $870 12.33870385381281 $873 15.195689120584003 $732 $931 forward 7 unknown #
vertex $-1 $736 $932 #
straight-curve $-1 2.2738119281857951 23.884908006942119 50.809974700860941 0 0 1 I I #
edge $-1 $873 -2.5349969493243218 $743 12.152614704344558 $742 $933 forward 7 unknown #
vertex $-1 $872 $934 #
straight-curve $-1 2.2738119281857951 -5.5251268915048826 40.701274286360523 0 0.61566146476048833 -0.78801076186113728 I I #
point $-1 2.2738119281857951 23.884908006942119 3.058145175293248 #
point $-1 16.961423581854675 21.027922740170926 6.7149196618534148 #
straight-curve $-1 0 23.884908006942119 6.7149196618534139 -1 0 0 I I #
vertex $-1 $749 $935 #
point $-1 6.9702724006626227 21.064909141755372 3.7993686305170833 #
vertex $-1 $753 $936 #
point $-1 13.264963109377859 21.064909141755372 3.7993686305170833 #
edge $-1 $883 12.33870385381281 $886 15.195689120584003 $758 $937 forward 7 unknown #
vertex $-1 $762 $938 #
straight-curve $-1 25.873989004957181 23.884908006942119 50.809974700860941 0 0 1 I I #
edge $-1 $886 9.2650915890613703 $769 23.952703242730252 $768 $939 forward 7 unknown #
vertex $-1 $885 $940 #
straight-curve $-1 25.873989004957181 -5.5251268915048826 40.701274286360523 0 0.61566146476048833 -0.78801076186113728 I I #
point $-1 25.873989004957181 23.884908006942119 3.058145175293248 #
point $-1 40.561600658626062 21.027922740170926 6.7149196618534148 #
straight-curve $-1 0 23.884908006942119 6.7149196618534139 -1 0 0 I I #
vertex $-1 $775 $941 #
point $-1 30.570449477434011 21.064909141755372 3.7993686305170833 #
vertex $-1 $779 $942 #
point $-1 36.865140186149247 21.064909141755372 3.7993686305170833 #
straight-curve $-1 -49.474166081728569 23.884908006942119 0 0 0 -1 I I #
point $-1 -49.474166081728569 -23.884908006942119 -6.7149196618534139 #
straight-curve $-1 -49.474166081728569 0 -6.7149196618534139 0 1 0 I I #
point $-1 -49.474166081728569 23.884908006942119 -6.7149196618534139 #
coedge $-1 $801 $800 $806 $902 reversed $420 $-1 #
vertex $-1 $802 $943 #
straight-curve $-1 0 23.884908006942119 6.7149196618534139 -1 0 0 I I #
edge $-1 $900 -23.884908006942119 $903 23.884908006942119 $899 $944 forward 7 unknown #
vertex $-1 $902 $945 #
straight-curve $-1 0 -23.884908006942119 6.7149196618534139 1 0 0 I I #
straight-curve $-1 -49.474166081728569 -23.884908006942119 0 0 0 -1 I I #
straight-curve $-1 -49.474166081728569 23.884908006942119 0 0 0 -1 I I #
straight-curve $-1 -12.028974941430107 -23.884908006942119 42.526875087956434 0 0 -1 I I #
point $-1 -12.028974941430107 -23.884908006942119 6.7149196618534139 #
straight-curve $-1 -2.9762176571632359 -23.884908006942119 3.0218655558043621 1 0 0 I I #
point $-1 -12.028974941430107 -23.884908006942119 3.0218655558043634 #
point $-1 -8.5566665830851747 -19.283194850434747 2.1047147747315584 #
point $-1 -3.3482040455677691 -19.283194850434747 2.1047147747315584 #
straight-curve $-1 4.4235195435944377 -23.884908006942119 42.526875087956434 0 0 -1 I I #
point $-1 4.4235195435944377 -23.884908006942119 6.7149196618534139 #
straight-curve $-1 5.2500295853490364 -23.884908006942119 3.0218655558043621 1 0 0 I I #
point $-1 4.4235195435944377 -23.884908006942119 3.0218655558043634 #
point $-1 7.89582790193937 -19.283194850434747 2.1047147747315584 #
point $-1 13.104290439456776 -19.283194850434747 2.1047147747315584 #
straight-curve $-1 -44.926542225356968 0 6.7149196618534139 0 -1 0 I I #
point $-1 -44.926542225356968 21.027922740170926 6.7149196618534148 #
straight-curve $-1 -44.926542225356968 23.884908006942119 2.350283360450494 0 0 1 I I #
point $-1 -44.926542225356968 23.884908006942119 6.7149196618534139 #
point $-1 -40.730081752880146 20.670903760824807 3.4915378981368388 #
point $-1 -34.435391044164916 20.670903760824807 3.4915378981368388 #
straight-curve $-1 -21.326365148585587 36.223611860754929 6.7149196618534148 0 -1 0 I I #
point $-1 -21.326365148585587 23.884908006942119 6.7149196618534139 #
straight-curve $-1 -6.9912796608755734 21.027922740170926 6.7149196618534148 1 0 0 I I #
point $-1 -21.326365148585587 21.027922740170926 6.7149196618534148 #
point $-1 -17.129904676108765 20.670903760824807 3.4915378981368388 #
point $-1 -10.835213967393528 20.670903760824807 3.4915378981368388 #
straight-curve $-1 2.2738119281857951 36.223611860754929 6.7149196618534148 0 -1 0 I I #
point $-1 2.2738119281857951 23.884908006942119 6.7149196618534139 #
straight-curve $-1 4.808808877510117 21.027922740170926 6.7149196618534148 1 0 0 I I #
point $-1 2.2738119281857951 21.027922740170926 6.7149196618534148 #
point $-1 6.4702724006626227 20.670903760824807 3.4915378981368388 #
point $-1 12.764963109377859 20.670903760824807 3.4915378981368388 #
straight-curve $-1 25.873989004957181 36.223611860754929 6.7149196618534148 0 -1 0 I I #
point $-1 25.873989004957181 23.884908006942119 6.7149196618534139 #
straight-curve $-1 16.608897415895811 21.027922740170926 6.7149196618534148 1 0 0 I I #
point $-1 25.873989004957181 21.027922740170926 6.7149196618534148 #
point $-1 30.070449477434011 20.670903760824807 3.4915378981368388 #
point $-1 36.365140186149247 20.670903760824807 3.4915378981368388 #
point $-1 -49.474166081728569 23.884908006942119 6.7149196618534139 #
straight-curve $-1 -49.474166081728569 0 6.7149196618534139 0 -1 0 I I #
point $-1 -49.474166081728569 -23.884908006942119 6.7149196618534139 #
End-of-ACIS-data 