500 0 8 0           
7 Unknown 11 ACIS 5.0 NT 24 Fri Mar 26 00:59:55 1999 
-1 9.9999999999999995e-007 1e-010 
body $-1 $8 $-1 $9 #
body $-1 $10 $-1 $11 #
body $-1 $12 $-1 $13 #
body $-1 $14 $-1 $15 #
body $-1 $16 $-1 $17 #
body $-1 $18 $-1 $19 #
body $-1 $20 $-1 $21 #
body $-1 $22 $-1 $23 #
lump $-1 $-1 $24 $0 #
transform $-1 1 0 0 0 1 0 0 0 1 50.138248847926263 21.922688036561453 4.6832005285294009 1 rotate no_reflect no_shear #
lump $-1 $-1 $25 $1 #
transform $-1 1 0 0 0 1 0 0 0 1 50.138248847926263 21.922688036561453 4.6832005285294009 1 rotate no_reflect no_shear #
lump $-1 $-1 $26 $2 #
transform $-1 1 0 0 0 1 0 0 0 1 50.138248847926263 21.922688036561453 4.6832005285294009 1 rotate no_reflect no_shear #
lump $-1 $-1 $27 $3 #
transform $-1 1 0 0 0 1 0 0 0 1 50.138248847926263 21.922688036561453 4.6832005285294009 1 rotate no_reflect no_shear #
lump $-1 $-1 $28 $4 #
transform $-1 1 0 0 0 1 0 0 0 1 50.138248847926263 21.922688036561453 4.6832005285294009 1 rotate no_reflect no_shear #
lump $-1 $-1 $29 $5 #
transform $-1 1 0 0 0 1 0 0 0 1 50.138248847926263 21.922688036561453 4.6832005285294009 1 rotate no_reflect no_shear #
lump $-1 $-1 $30 $6 #
transform $-1 1 0 0 0 1 0 0 0 1 50.138248847926263 21.922688036561453 4.6832005285294009 1 rotate no_reflect no_shear #
lump $-1 $-1 $31 $7 #
transform $-1 1 0 0 0 1 0 0 0 1 50.138248847926263 21.922688036561453 4.6832005285294009 1 rotate no_reflect no_shear #
shell $-1 $-1 $-1 $32 $-1 $8 #
shell $-1 $-1 $-1 $33 $-1 $10 #
shell $-1 $-1 $-1 $34 $-1 $12 #
shell $-1 $-1 $-1 $35 $-1 $14 #
shell $-1 $-1 $-1 $36 $-1 $16 #
shell $-1 $-1 $-1 $37 $-1 $18 #
shell $-1 $-1 $-1 $38 $-1 $20 #
shell $-1 $-1 $-1 $39 $-1 $22 #
face $-1 $40 $41 $24 $-1 $42 forward single #
face $-1 $43 $44 $25 $-1 $45 forward single #
face $-1 $46 $47 $26 $-1 $48 reversed single #
face $-1 $49 $50 $27 $-1 $51 forward single #
face $-1 $52 $53 $28 $-1 $54 forward single #
face $-1 $55 $56 $29 $-1 $57 reversed single #
face $-1 $58 $59 $30 $-1 $60 forward single #
face $-1 $61 $62 $31 $-1 $63 forward single #
face $-1 $64 $65 $24 $-1 $66 reversed single #
loop $-1 $-1 $67 $32 #
plane-surface $-1 0 0 4.6832005285294009 0 0 1 1 0 0 forward_v I I I I #
face $-1 $68 $69 $25 $-1 $70 reversed single #
loop $-1 $-1 $71 $33 #
plane-surface $-1 -48.422715615345133 0 -0.33480661587373794 0 0 1 1 0 0 forward_v I I I I #
face $-1 $72 $73 $26 $-1 $74 reversed single #
loop $-1 $-1 $75 $34 #
plane-surface $-1 35.830590287647681 -105.0556730802883 57.551630139496325 1 0 0 0 0.82903758062907751 -0.55919289150049634 forward_v I I I I #
face $-1 $76 $77 $27 $-1 $78 forward single #
loop $-1 $79 $80 $35 #
cone-surface $-1 39.918492733441568 -20.248876324263389 2.6806469801687816 0 0.82903758062907751 -0.55919289150049634 0.5 0 0 1 I I 0 1 0.5 forward I I I I #
face $-1 $81 $82 $28 $-1 $83 forward single #
loop $-1 $84 $85 $36 #
cone-surface $-1 46.050346402132391 -20.248876324263389 2.6806469801687816 0 0.82903758062907751 -0.55919289150049634 0.5 0 0 1 I I 0 1 0.5 forward I I I I #
face $-1 $86 $87 $29 $-1 $88 reversed single #
loop $-1 $-1 $89 $37 #
plane-surface $-1 35.830590287647681 80.537650455032022 93.901094640930182 1 0 0 0 -0.82903758062907751 -0.55919289150049634 forward_v I I I I #
face $-1 $90 $91 $30 $-1 $92 forward single #
loop $-1 $93 $94 $38 #
cone-surface $-1 39.918492733441568 20.248876324263392 2.680646980168778 0 -0.82903758062907751 -0.55919289150049634 0.5 0 0 1 I I 0 1 0.5 forward I I I I #
face $-1 $95 $96 $31 $-1 $97 forward single #
loop $-1 $98 $99 $39 #
cone-surface $-1 46.050346402132391 20.248876324263392 2.680646980168778 0 -0.82903758062907751 -0.55919289150049634 0.5 0 0 1 I I 0 1 0.5 forward I I I I #
face $-1 $100 $101 $24 $-1 $102 reversed single #
loop $-1 $-1 $103 $40 #
plane-surface $-1 0 0 -4.6832005285294009 0 0 1 1 0 0 forward_v I I I I #
coedge $-1 $104 $105 $106 $107 forward $41 $-1 #
face $-1 $108 $109 $25 $-1 $110 reversed single #
loop $-1 $-1 $111 $43 #
plane-surface $-1 -48.422715615345133 0 -3.3348066158737382 0 0 1 1 0 0 forward_v I I I I #
coedge $-1 $112 $113 $114 $115 forward $44 $-1 #
face $-1 $116 $117 $26 $-1 $118 forward single #
loop $-1 $-1 $119 $46 #
plane-surface $-1 42.984419567786972 -21.922688036561453 1.4777254434096889 0 -0.82903758062907751 0.55919289150049634 1 0 0 forward_v I I I I #
coedge $-1 $120 $121 $122 $123 reversed $47 $-1 #
face $-1 $-1 $124 $27 $-1 $125 forward single #
loop $-1 $126 $127 $49 #
cone-surface $-1 39.918492733441568 -19.44886530585779 2.1410327514928937 0 0.82903758062907751 -0.55919289150049634 0.25 0 0 1 I I -0.70710678118654746 0.70710678118654746 0.25 forward I I I I #
loop $-1 $-1 $128 $35 #
coedge $-1 $80 $80 $129 $130 reversed $50 $-1 #
face $-1 $-1 $131 $28 $-1 $132 forward single #
loop $-1 $133 $134 $52 #
cone-surface $-1 46.050346402132391 -19.44886530585779 2.1410327514928937 0 0.82903758062907751 -0.55919289150049634 0.25 0 0 1 I I -0.70710678118654746 0.70710678118654746 0.25 forward I I I I #
loop $-1 $-1 $135 $36 #
coedge $-1 $85 $85 $136 $137 reversed $53 $-1 #
face $-1 $138 $139 $29 $-1 $140 reversed single #
loop $-1 $-1 $141 $55 #
plane-surface $-1 42.984419567786972 -2.5953345886948256 37.827189944843546 0 0.82903758062907751 0.55919289150049634 1 0 0 forward_v I I I I #
coedge $-1 $142 $143 $144 $145 reversed $56 $-1 #
face $-1 $-1 $146 $30 $-1 $147 forward single #
loop $-1 $148 $149 $58 #
cone-surface $-1 39.918492733441568 19.448865305857794 2.1410327514928902 0 -0.82903758062907751 -0.55919289150049634 0.25 0 0 1 I I -0.70710678118654746 0.70710678118654746 0.25 forward I I I I #
loop $-1 $-1 $150 $38 #
coedge $-1 $94 $94 $151 $152 reversed $59 $-1 #
face $-1 $-1 $153 $31 $-1 $154 forward single #
loop $-1 $155 $156 $61 #
cone-surface $-1 46.050346402132391 19.448865305857794 2.1410327514928902 0 -0.82903758062907751 -0.55919289150049634 0.25 0 0 1 I I -0.70710678118654746 0.70710678118654746 0.25 forward I I I I #
loop $-1 $-1 $157 $39 #
coedge $-1 $99 $99 $158 $159 reversed $62 $-1 #
face $-1 $160 $161 $24 $-1 $162 reversed single #
loop $-1 $-1 $163 $64 #
plane-surface $-1 0 -21.922688036561453 0 0 1 0 0 0 1 forward_v I I I I #
coedge $-1 $164 $165 $166 $167 forward $65 $-1 #
coedge $-1 $168 $67 $169 $170 forward $41 $-1 #
coedge $-1 $67 $168 $171 $172 forward $41 $-1 #
coedge $-1 $173 $174 $67 $107 reversed $175 $-1 #
edge $-1 $176 -21.922688036561453 $177 21.922688036561453 $106 $178 forward 7 unknown #
face $-1 $179 $180 $25 $-1 $181 reversed single #
loop $-1 $-1 $182 $68 #
plane-surface $-1 -46.707182382764003 0 -1.8348066158737382 -1 0 0 0 0 1 forward_v I I I I #
coedge $-1 $183 $184 $185 $186 forward $69 $-1 #
coedge $-1 $187 $71 $188 $189 reversed $44 $-1 #
coedge $-1 $71 $187 $190 $191 reversed $44 $-1 #
coedge $-1 $182 $192 $71 $115 reversed $109 $-1 #
edge $-1 $193 -21.922688036561453 $194 21.922688036561453 $114 $195 forward 7 unknown #
face $-1 $196 $197 $26 $-1 $198 reversed single #
loop $-1 $-1 $199 $72 #
plane-surface $-1 0 0 4.6832005285294009 0 0 1 1 0 0 forward_v I I I I #
coedge $-1 $200 $201 $202 $203 reversed $73 $-1 #
coedge $-1 $121 $75 $204 $205 reversed $47 $-1 #
coedge $-1 $75 $120 $200 $206 reversed $47 $-1 #
coedge $-1 $202 $207 $75 $123 forward $197 $-1 #
edge $-1 $208 24.092614541218762 $209 27.298089626338474 $122 $210 forward 7 unknown #
loop $-1 $-1 $129 $76 #
plane-surface $-1 42.984419567786972 -21.922688036561453 1.4777254434096889 0 -0.82903758062907751 0.55919289150049634 1 0 0 forward_v I I I I #
loop $-1 $-1 $211 $49 #
coedge $-1 $127 $127 $128 $212 reversed $77 $-1 #
coedge $-1 $128 $128 $127 $212 forward $79 $-1 #
coedge $-1 $129 $129 $80 $130 forward $124 $-1 #
edge $-1 $213 3.2369711812084864e-015 $213 6.283185307179604 $129 $214 forward 7 unknown #
loop $-1 $-1 $136 $81 #
plane-surface $-1 42.984419567786972 -21.922688036561453 1.4777254434096889 0 -0.82903758062907751 0.55919289150049634 1 0 0 forward_v I I I I #
loop $-1 $-1 $215 $52 #
coedge $-1 $134 $134 $135 $216 reversed $82 $-1 #
coedge $-1 $135 $135 $134 $216 forward $84 $-1 #
coedge $-1 $136 $136 $85 $137 forward $131 $-1 #
edge $-1 $217 3.2369711812084864e-015 $217 6.283185307179604 $136 $218 forward 7 unknown #
face $-1 $219 $220 $29 $-1 $221 forward single #
loop $-1 $-1 $222 $86 #
plane-surface $-1 50.138248847926263 0 0 -1 0 0 0 0 1 forward_v I I I I #
coedge $-1 $223 $224 $225 $226 reversed $87 $-1 #
coedge $-1 $143 $89 $227 $228 reversed $56 $-1 #
coedge $-1 $89 $142 $223 $229 reversed $56 $-1 #
coedge $-1 $225 $230 $89 $145 forward $220 $-1 #
edge $-1 $231 18.346137190954558 $232 20.508257369054029 $144 $233 forward 7 unknown #
loop $-1 $-1 $151 $90 #
plane-surface $-1 42.984419567786972 -2.5953345886948256 37.827189944843546 0 0.82903758062907751 0.55919289150049634 1 0 0 forward_v I I I I #
loop $-1 $-1 $234 $58 #
coedge $-1 $149 $149 $150 $235 reversed $91 $-1 #
coedge $-1 $150 $150 $149 $235 forward $93 $-1 #
coedge $-1 $151 $151 $94 $152 forward $146 $-1 #
edge $-1 $236 1.3196093447709273e-015 $236 6.2831853071796013 $151 $237 forward 7 unknown #
loop $-1 $-1 $158 $95 #
plane-surface $-1 42.984419567786972 -2.5953345886948256 37.827189944843546 0 0.82903758062907751 0.55919289150049634 1 0 0 forward_v I I I I #
loop $-1 $-1 $238 $61 #
coedge $-1 $156 $156 $157 $239 reversed $96 $-1 #
coedge $-1 $157 $157 $156 $239 forward $98 $-1 #
coedge $-1 $158 $158 $99 $159 forward $153 $-1 #
edge $-1 $240 1.3196093447709273e-015 $240 6.2831853071796013 $158 $241 forward 7 unknown #
face $-1 $242 $243 $24 $-1 $244 reversed single #
loop $-1 $-1 $245 $100 #
plane-surface $-1 -50.138248847926263 0 0 1 0 0 0 0 -1 forward_v I I I I #
coedge $-1 $246 $171 $247 $248 forward $101 $-1 #
coedge $-1 $249 $103 $246 $250 forward $65 $-1 #
coedge $-1 $103 $249 $251 $252 forward $65 $-1 #
coedge $-1 $174 $173 $103 $167 reversed $175 $-1 #
edge $-1 $253 -21.922688036561453 $254 21.922688036561453 $166 $255 forward 7 unknown #
coedge $-1 $105 $104 $256 $257 forward $41 $-1 #
coedge $-1 $258 $259 $104 $170 reversed $243 $-1 #
edge $-1 $177 -50.138248847926263 $260 50.138248847926263 $169 $261 forward 7 unknown #
coedge $-1 $163 $262 $105 $172 reversed $101 $-1 #
edge $-1 $263 -50.138248847926263 $176 50.138248847926263 $171 $264 forward 7 unknown #
coedge $-1 $166 $106 $262 $265 forward $175 $-1 #
coedge $-1 $106 $166 $258 $266 reversed $175 $-1 #
loop $-1 $-1 $173 $242 #
vertex $-1 $107 $267 #
vertex $-1 $107 $268 #
straight-curve $-1 50.138248847926263 0 4.6832005285294009 0 1 0 I I #
face $-1 $269 $270 $25 $-1 $271 reversed single #
loop $-1 $-1 $272 $108 #
plane-surface $-1 0 -21.922688036561453 0 0 1 0 0 0 1 forward_v I I I I #
coedge $-1 $185 $114 $273 $274 reversed $109 $-1 #
coedge $-1 $275 $111 $272 $276 reversed $69 $-1 #
coedge $-1 $111 $275 $277 $278 reversed $69 $-1 #
coedge $-1 $192 $182 $111 $186 reversed $109 $-1 #
edge $-1 $279 -21.922688036561453 $280 21.922688036561453 $185 $281 forward 7 unknown #
coedge $-1 $113 $112 $282 $283 reversed $44 $-1 #
coedge $-1 $284 $285 $112 $189 forward $286 $-1 #
edge $-1 $287 -25.926891040253697 $194 -22.495824575091437 $188 $288 forward 7 unknown #
coedge $-1 $289 $273 $113 $191 forward $180 $-1 #
edge $-1 $193 22.495824575091437 $290 25.926891040253697 $190 $291 forward 7 unknown #
coedge $-1 $114 $185 $284 $292 reversed $109 $-1 #
vertex $-1 $191 $293 #
vertex $-1 $189 $294 #
straight-curve $-1 -46.707182382764003 0 -0.33480661587373794 0 1 0 I I #
face $-1 $-1 $295 $26 $-1 $296 reversed single #
loop $-1 $-1 $122 $116 #
plane-surface $-1 0 -21.922688036561453 0 0 1 0 0 0 1 forward_v I I I I #
coedge $-1 $204 $297 $298 $299 forward $117 $-1 #
coedge $-1 $298 $119 $121 $206 forward $73 $-1 #
coedge $-1 $119 $298 $300 $301 reversed $73 $-1 #
coedge $-1 $302 $122 $119 $203 forward $197 $-1 #
edge $-1 $209 14.338380503754195 $303 28.646039064032777 $202 $304 forward 7 unknown #
coedge $-1 $305 $199 $120 $205 forward $117 $-1 #
edge $-1 $306 -32.767268681682161 $208 -30.605148503582697 $204 $307 forward 7 unknown #
edge $-1 $209 0 $306 3.8665015434974399 $121 $308 forward 7 unknown #
coedge $-1 $122 $302 $305 $309 reversed $197 $-1 #
vertex $-1 $309 $310 #
vertex $-1 $123 $311 #
straight-curve $-1 35.830590287647681 -21.922688036561453 28.775815069748163 0 0 -1 I I #
coedge $-1 $211 $211 $-1 $312 reversed $126 $-1 #
edge $-1 $313 0 $313 6.2831853071796004 $127 $314 forward 7 unknown #
vertex $-1 $130 $315 #
ellipse-curve $-1 39.918492733441568 -20.841627947511721 3.0804629859695463 0 -0.82903758062907751 0.55919289150049634 0.5 0 0 1 I I #
coedge $-1 $215 $215 $-1 $316 reversed $133 $-1 #
edge $-1 $317 0 $317 6.2831853071796004 $134 $318 forward 7 unknown #
vertex $-1 $137 $319 #
ellipse-curve $-1 46.050346402132391 -20.841627947511721 3.0804629859695463 0 -0.82903758062907751 0.55919289150049634 0.5 0 0 1 I I #
face $-1 $-1 $320 $29 $-1 $321 reversed single #
loop $-1 $-1 $225 $138 #
plane-surface $-1 0 0 4.6832005285294009 0 0 1 1 0 0 forward_v I I I I #
coedge $-1 $322 $323 $224 $324 forward $139 $-1 #
coedge $-1 $325 $141 $143 $229 forward $87 $-1 #
coedge $-1 $141 $325 $222 $324 reversed $87 $-1 #
coedge $-1 $326 $144 $141 $226 forward $220 $-1 #
edge $-1 $232 14.338380503754195 $327 28.646039064032777 $225 $328 forward 7 unknown #
coedge $-1 $329 $330 $142 $228 forward $320 $-1 #
edge $-1 $331 -45.472821877055409 $231 -42.267346791935694 $227 $332 forward 7 unknown #
edge $-1 $232 39.978874529625465 $331 43.845376073122914 $143 $333 forward 7 unknown #
coedge $-1 $144 $326 $329 $334 forward $220 $-1 #
vertex $-1 $228 $335 #
vertex $-1 $145 $336 #
straight-curve $-1 35.830590287647681 40.268825227516011 4.6832005285293974 0 -1 0 I I #
coedge $-1 $234 $234 $-1 $337 reversed $148 $-1 #
edge $-1 $338 0 $338 6.2831853071796004 $149 $339 forward 7 unknown #
vertex $-1 $152 $340 #
ellipse-curve $-1 39.918492733441568 20.841627947511718 3.0804629859695383 0 0.82903758062907751 0.55919289150049634 0.5 0 0 1 I I #
coedge $-1 $238 $238 $-1 $341 reversed $155 $-1 #
edge $-1 $342 0 $342 6.2831853071796004 $156 $343 forward 7 unknown #
vertex $-1 $159 $344 #
ellipse-curve $-1 46.050346402132391 20.841627947511718 3.0804629859695383 0 0.82903758062907751 0.55919289150049634 0.5 0 0 1 I I #
face $-1 $-1 $175 $24 $-1 $345 reversed single #
loop $-1 $-1 $258 $160 #
plane-surface $-1 0 21.922688036561453 0 0 -1 0 0 0 -1 forward_v I I I I #
coedge $-1 $346 $256 $259 $347 forward $161 $-1 #
coedge $-1 $262 $163 $164 $250 reversed $101 $-1 #
coedge $-1 $256 $346 $163 $248 reversed $161 $-1 #
edge $-1 $263 -4.6832005285294009 $348 4.6832005285294009 $247 $349 forward 7 unknown #
coedge $-1 $165 $164 $346 $350 forward $65 $-1 #
edge $-1 $254 -50.138248847926263 $348 50.138248847926263 $246 $351 forward 7 unknown #
coedge $-1 $259 $258 $165 $252 reversed $243 $-1 #
edge $-1 $352 -50.138248847926263 $253 50.138248847926263 $251 $353 forward 7 unknown #
vertex $-1 $167 $354 #
vertex $-1 $265 $355 #
straight-curve $-1 50.138248847926263 0 -4.6832005285294009 0 -1 0 I I #
coedge $-1 $245 $247 $168 $257 reversed $161 $-1 #
edge $-1 $260 -21.922688036561453 $263 21.922688036561453 $256 $356 forward 7 unknown #
coedge $-1 $251 $169 $174 $266 forward $243 $-1 #
coedge $-1 $169 $251 $245 $347 reversed $243 $-1 #
vertex $-1 $170 $357 #
straight-curve $-1 0 21.922688036561453 4.6832005285294009 -1 0 0 I I #
coedge $-1 $171 $246 $173 $265 reversed $101 $-1 #
vertex $-1 $257 $358 #
straight-curve $-1 0 -21.922688036561453 4.6832005285294009 1 0 0 I I #
edge $-1 $176 -4.6832005285294009 $254 4.6832005285294009 $173 $359 forward 7 unknown #
edge $-1 $177 -4.6832005285294009 $253 4.6832005285294009 $174 $360 forward 7 unknown #
point $-1 50.138248847926263 -21.922688036561453 4.6832005285294009 #
point $-1 50.138248847926263 21.922688036561453 4.6832005285294009 #
face $-1 $-1 $286 $25 $-1 $361 reversed single #
loop $-1 $-1 $362 $179 #
plane-surface $-1 -50.138248847926263 0 0 1 0 0 0 0 -1 forward_v I I I I #
coedge $-1 $273 $289 $183 $276 forward $180 $-1 #
coedge $-1 $190 $272 $182 $274 forward $180 $-1 #
edge $-1 $280 -2.4174033079368691 $193 0.58259669206313114 $273 $363 forward 7 unknown #
coedge $-1 $184 $183 $362 $364 reversed $69 $-1 #
edge $-1 $365 -25.926891040253697 $280 -22.495824575091437 $272 $366 forward 7 unknown #
coedge $-1 $285 $284 $184 $278 forward $286 $-1 #
edge $-1 $279 22.495824575091437 $367 25.926891040253697 $277 $368 forward 7 unknown #
vertex $-1 $278 $369 #
vertex $-1 $276 $370 #
straight-curve $-1 -46.707182382764003 0 -3.3348066158737382 0 -1 0 I I #
coedge $-1 $371 $372 $187 $283 forward $270 $-1 #
edge $-1 $290 -21.922688036561453 $287 21.922688036561453 $282 $373 forward 7 unknown #
coedge $-1 $277 $188 $192 $292 forward $286 $-1 #
coedge $-1 $188 $277 $371 $374 reversed $286 $-1 #
loop $-1 $-1 $277 $269 #
vertex $-1 $374 $375 #
straight-curve $-1 -24.211357807672567 21.922688036561453 -0.33480661587373794 1 0 0 I I #
coedge $-1 $272 $190 $372 $376 forward $180 $-1 #
vertex $-1 $376 $377 #
straight-curve $-1 -24.211357807672567 -21.922688036561453 -0.33480661587373794 -1 0 0 I I #
edge $-1 $194 -0.58259669206313114 $279 2.4174033079368691 $284 $378 forward 7 unknown #
point $-1 -46.707182382764003 -21.922688036561453 -0.33480661587373794 #
point $-1 -46.707182382764003 21.922688036561453 -0.33480661587373794 #
loop $-1 $-1 $300 $196 #
plane-surface $-1 50.138248847926263 0 0 -1 0 0 0 0 1 forward_v I I I I #
coedge $-1 $199 $305 $379 $380 forward $117 $-1 #
coedge $-1 $201 $200 $199 $299 reversed $73 $-1 #
edge $-1 $381 -28.646039064032777 $306 -14.338380503754195 $199 $382 forward 7 unknown #
coedge $-1 $379 $383 $201 $301 forward $295 $-1 #
edge $-1 $303 -5.5169606930948687 $381 -1.6504591495974292 $300 $384 forward 7 unknown #
coedge $-1 $207 $202 $383 $385 reversed $197 $-1 #
vertex $-1 $203 $386 #
straight-curve $-1 21.492209783893486 -21.922688036561453 1.4777254434096876 1 0 0 I I #
coedge $-1 $297 $204 $207 $309 forward $117 $-1 #
vertex $-1 $205 $387 #
straight-curve $-1 35.830590287647681 -52.52783654014415 4.6832005285294009 0 -1 0 I I #
straight-curve $-1 35.830590287647681 -21.922688036561453 1.4777254434096889 0 0.55919289150049634 0.82903758062907751 I I #
edge $-1 $208 35.830590287647681 $388 50.138248847926263 $207 $389 forward 7 unknown #
point $-1 35.830590287647681 -21.922688036561453 4.6832005285294009 #
point $-1 35.830590287647681 -21.922688036561453 1.4777254434096889 #
edge $-1 $390 1 $390 0 $211 $-1 forward 7 unknown #
vertex $-1 $212 $391 #
ellipse-curve $-1 39.918492733441568 -19.656124701015059 2.2808309743680177 0 -0.82903758062907751 0.55919289150049634 0.5 0 0 1 I I #
point $-1 40.418492733441568 -20.841627947511718 3.0804629859695458 #
edge $-1 $392 1 $392 0 $215 $-1 forward 7 unknown #
vertex $-1 $216 $393 #
ellipse-curve $-1 46.050346402132391 -19.656124701015059 2.2808309743680177 0 -0.82903758062907751 0.55919289150049634 0.5 0 0 1 I I #
point $-1 46.550346402132391 -20.841627947511718 3.0804629859695458 #
loop $-1 $-1 $227 $219 #
plane-surface $-1 0 21.922688036561453 0 0 -1 0 0 0 -1 forward_v I I I I #
coedge $-1 $323 $222 $394 $395 reversed $139 $-1 #
coedge $-1 $222 $322 $326 $396 reversed $139 $-1 #
edge $-1 $327 23.573147186158877 $397 27.439648729656327 $222 $398 forward 7 unknown #
coedge $-1 $224 $223 $330 $399 reversed $87 $-1 #
coedge $-1 $230 $225 $323 $396 forward $220 $-1 #
vertex $-1 $396 $400 #
straight-curve $-1 21.492209783893486 19.760567858461982 4.6832005285294045 1 0 0 I I #
coedge $-1 $394 $227 $230 $334 reversed $320 $-1 #
coedge $-1 $227 $394 $325 $399 forward $320 $-1 #
vertex $-1 $228 $401 #
straight-curve $-1 35.830590287647681 21.922688036561453 46.950547320465091 0 0 1 I I #
straight-curve $-1 35.830590287647681 -2.5953345886948256 37.827189944843546 0 0.55919289150049634 -0.82903758062907751 I I #
edge $-1 $402 -50.138248847926263 $231 -35.830590287647681 $329 $403 forward 7 unknown #
point $-1 35.830590287647681 21.922688036561453 4.6832005285294009 #
point $-1 35.830590287647681 19.760567858461982 4.6832005285294045 #
edge $-1 $404 1 $404 0 $234 $-1 forward 7 unknown #
vertex $-1 $235 $405 #
ellipse-curve $-1 39.918492733441568 19.656124701015063 2.2808309743680142 0 0.82903758062907751 0.55919289150049634 0.5 0 0 1 I I #
point $-1 40.418492733441568 20.841627947511725 3.0804629859695423 #
edge $-1 $406 1 $406 0 $238 $-1 forward 7 unknown #
vertex $-1 $239 $407 #
ellipse-curve $-1 46.050346402132391 19.656124701015063 2.2808309743680142 0 0.82903758062907751 0.55919289150049634 0.5 0 0 1 I I #
point $-1 46.550346402132391 20.841627947511725 3.0804629859695423 #
plane-surface $-1 50.138248847926263 0 0 -1 0 0 0 0 1 forward_v I I I I #
coedge $-1 $247 $245 $249 $350 reversed $161 $-1 #
edge $-1 $260 -4.6832005285294009 $352 4.6832005285294009 $259 $408 forward 7 unknown #
vertex $-1 $350 $409 #
straight-curve $-1 -50.138248847926263 -21.922688036561453 0 0 0 -1 I I #
edge $-1 $348 -21.922688036561453 $352 21.922688036561453 $346 $410 forward 7 unknown #
straight-curve $-1 0 -21.922688036561453 -4.6832005285294009 -1 0 0 I I #
vertex $-1 $252 $411 #
straight-curve $-1 0 21.922688036561453 -4.6832005285294009 1 0 0 I I #
point $-1 50.138248847926263 21.922688036561453 -4.6832005285294009 #
point $-1 50.138248847926263 -21.922688036561453 -4.6832005285294009 #
straight-curve $-1 -50.138248847926263 0 4.6832005285294009 0 -1 0 I I #
point $-1 -50.138248847926263 21.922688036561453 4.6832005285294009 #
point $-1 -50.138248847926263 -21.922688036561453 4.6832005285294009 #
straight-curve $-1 50.138248847926263 -21.922688036561453 0 0 0 -1 I I #
straight-curve $-1 50.138248847926263 21.922688036561453 0 0 0 -1 I I #
plane-surface $-1 0 21.922688036561453 0 0 -1 0 0 0 -1 forward_v I I I I #
coedge $-1 $372 $371 $275 $364 forward $270 $-1 #
straight-curve $-1 -46.707182382764003 -21.922688036561453 -0.91740330793686908 0 0 1 I I #
edge $-1 $367 -21.922688036561453 $365 21.922688036561453 $362 $412 forward 7 unknown #
vertex $-1 $276 $413 #
straight-curve $-1 -24.211357807672567 -21.922688036561453 -3.3348066158737382 1 0 0 I I #
vertex $-1 $278 $414 #
straight-curve $-1 -24.211357807672567 21.922688036561453 -3.3348066158737382 -1 0 0 I I #
point $-1 -46.707182382764003 21.922688036561453 -3.3348066158737382 #
point $-1 -46.707182382764003 -21.922688036561453 -3.3348066158737382 #
coedge $-1 $362 $282 $285 $374 forward $270 $-1 #
coedge $-1 $282 $362 $289 $376 reversed $270 $-1 #
straight-curve $-1 -50.138248847926263 0 -0.33480661587373794 0 1 0 I I #
edge $-1 $287 0.33480661587373794 $367 3.3348066158737382 $285 $415 forward 7 unknown #
point $-1 -50.138248847926263 21.922688036561453 -0.33480661587373794 #
edge $-1 $290 0.33480661587373794 $365 3.3348066158737382 $372 $416 forward 7 unknown #
point $-1 -50.138248847926263 -21.922688036561453 -0.33480661587373794 #
straight-curve $-1 -46.707182382764003 21.922688036561453 -0.91740330793686908 0 0 -1 I I #
coedge $-1 $383 $300 $297 $380 reversed $295 $-1 #
edge $-1 $388 -21.922688036561453 $381 -19.760567858461989 $379 $417 forward 7 unknown #
vertex $-1 $301 $418 #
straight-curve $-1 21.492209783893486 -19.760567858461989 4.6832005285294009 -1 0 0 I I #
coedge $-1 $300 $379 $302 $385 forward $295 $-1 #
straight-curve $-1 50.138248847926263 -18.837642834295153 6.0514931888387782 0 0.55919289150049634 0.82903758062907751 I I #
edge $-1 $388 -4.6832005285294009 $303 -1.4777254434096889 $383 $419 forward 7 unknown #
point $-1 50.138248847926263 -21.922688036561453 1.4777254434096889 #
point $-1 35.830590287647681 -19.760567858461989 4.6832005285294009 #
vertex $-1 $380 $420 #
straight-curve $-1 0 -21.922688036561453 4.6832005285294009 1 0 0 I I #
vertex $-1 $312 $421 #
point $-1 40.418492733441568 -19.656124701015059 2.2808309743680177 #
vertex $-1 $316 $422 #
point $-1 46.550346402132391 -19.656124701015059 2.2808309743680177 #
coedge $-1 $330 $329 $322 $395 forward $320 $-1 #
edge $-1 $402 -4.6832005285294009 $397 -1.4777254434096818 $322 $423 forward 7 unknown #
edge $-1 $327 19.760567858461982 $402 21.922688036561453 $323 $424 forward 7 unknown #
vertex $-1 $324 $425 #
straight-curve $-1 50.138248847926263 6.5786315216670115 24.226225439555705 0 0.55919289150049634 -0.82903758062907751 I I #
edge $-1 $397 -28.646039064032777 $331 -14.338380503754195 $330 $426 forward 7 unknown #
point $-1 50.138248847926263 19.760567858461982 4.6832005285294045 #
point $-1 35.830590287647681 21.922688036561453 1.4777254434096818 #
vertex $-1 $396 $427 #
straight-curve $-1 0 21.922688036561453 4.6832005285294009 -1 0 0 I I #
vertex $-1 $337 $428 #
point $-1 40.418492733441568 19.656124701015063 2.2808309743680142 #
vertex $-1 $341 $429 #
point $-1 46.550346402132391 19.656124701015063 2.2808309743680142 #
straight-curve $-1 -50.138248847926263 21.922688036561453 0 0 0 -1 I I #
point $-1 -50.138248847926263 -21.922688036561453 -4.6832005285294009 #
straight-curve $-1 -50.138248847926263 0 -4.6832005285294009 0 1 0 I I #
point $-1 -50.138248847926263 21.922688036561453 -4.6832005285294009 #
straight-curve $-1 -50.138248847926263 0 -3.3348066158737382 0 -1 0 I I #
point $-1 -50.138248847926263 -21.922688036561453 -3.3348066158737382 #
point $-1 -50.138248847926263 21.922688036561453 -3.3348066158737382 #
straight-curve $-1 -50.138248847926263 21.922688036561453 0 0 0 -1 I I #
straight-curve $-1 -50.138248847926263 -21.922688036561453 0 0 0 -1 I I #
straight-curve $-1 50.138248847926263 0 4.6832005285294009 0 1 0 I I #
point $-1 50.138248847926263 -19.760567858461989 4.6832005285294009 #
straight-curve $-1 50.138248847926263 -21.922688036561453 0 0 0 -1 I I #
point $-1 50.138248847926263 -21.922688036561453 4.6832005285294009 #
point $-1 39.918492733441568 -19.241605910700521 2.0012345286177697 #
point $-1 46.050346402132391 -19.241605910700521 2.0012345286177697 #
straight-curve $-1 50.138248847926263 21.922688036561453 0 0 0 -1 I I #
straight-curve $-1 50.138248847926263 0 4.6832005285294009 0 1 0 I I #
point $-1 50.138248847926263 21.922688036561453 1.4777254434096818 #
straight-curve $-1 21.492209783893486 21.922688036561453 1.4777254434096818 -1 0 0 I I #
point $-1 50.138248847926263 21.922688036561453 4.6832005285294009 #
point $-1 39.918492733441568 19.241605910700525 2.0012345286177662 #
point $-1 46.050346402132391 19.241605910700525 2.0012345286177662 #
End-of-ACIS-data 