500 0 12 0           
7 Unknown 11 ACIS 5.0 NT 24 Fri Mar 26 20:46:00 1999 
-1 9.9999999999999995e-007 1e-010 
body $-1 $12 $-1 $13 #
body $-1 $14 $-1 $15 #
body $-1 $16 $-1 $17 #
body $-1 $18 $-1 $19 #
body $-1 $20 $-1 $21 #
body $-1 $22 $-1 $23 #
body $-1 $24 $-1 $25 #
body $-1 $26 $-1 $27 #
body $-1 $28 $-1 $29 #
body $-1 $30 $-1 $31 #
body $-1 $32 $-1 $33 #
body $-1 $34 $-1 $35 #
lump $-1 $-1 $36 $0 #
transform $-1 1 0 0 0 1 0 0 0 1 59.424420911282695 30.373066163520352 8.6265736945952387 1 rotate no_reflect no_shear #
lump $-1 $-1 $37 $1 #
transform $-1 1 0 0 0 1 0 0 0 1 59.424420911282695 30.373066163520352 8.6265736945952387 1 rotate no_reflect no_shear #
lump $-1 $-1 $38 $2 #
transform $-1 1 0 0 0 1 0 0 0 1 59.424420911282695 30.373066163520352 8.6265736945952387 1 rotate no_reflect no_shear #
lump $-1 $-1 $39 $3 #
transform $-1 1 0 0 0 1 0 0 0 1 59.424420911282695 30.373066163520352 8.6265736945952387 1 rotate no_reflect no_shear #
lump $-1 $-1 $40 $4 #
transform $-1 1 0 0 0 1 0 0 0 1 59.424420911282695 30.373066163520352 8.6265736945952387 1 rotate no_reflect no_shear #
lump $-1 $-1 $41 $5 #
transform $-1 1 0 0 0 1 0 0 0 1 59.424420911282695 30.373066163520352 8.6265736945952387 1 rotate no_reflect no_shear #
lump $-1 $-1 $42 $6 #
transform $-1 1 0 0 0 1 0 0 0 1 59.424420911282695 30.373066163520352 8.6265736945952387 1 rotate no_reflect no_shear #
lump $-1 $-1 $43 $7 #
transform $-1 1 0 0 0 1 0 0 0 1 59.424420911282695 30.373066163520352 8.6265736945952387 1 rotate no_reflect no_shear #
lump $-1 $-1 $44 $8 #
transform $-1 1 0 0 0 1 0 0 0 1 59.424420911282695 30.373066163520352 8.6265736945952387 1 rotate no_reflect no_shear #
lump $-1 $-1 $45 $9 #
transform $-1 1 0 0 0 1 0 0 0 1 59.424420911282695 30.373066163520352 8.6265736945952387 1 rotate no_reflect no_shear #
lump $-1 $-1 $46 $10 #
transform $-1 1 0 0 0 1 0 0 0 1 59.424420911282695 30.373066163520352 8.6265736945952387 1 rotate no_reflect no_shear #
lump $-1 $-1 $47 $11 #
transform $-1 1 0 0 0 1 0 0 0 1 59.424420911282695 30.373066163520352 8.6265736945952387 1 rotate no_reflect no_shear #
shell $-1 $-1 $-1 $48 $-1 $12 #
shell $-1 $-1 $-1 $49 $-1 $14 #
shell $-1 $-1 $-1 $50 $-1 $16 #
shell $-1 $-1 $-1 $51 $-1 $18 #
shell $-1 $-1 $-1 $52 $-1 $20 #
shell $-1 $-1 $-1 $53 $-1 $22 #
shell $-1 $-1 $-1 $54 $-1 $24 #
shell $-1 $-1 $-1 $55 $-1 $26 #
shell $-1 $-1 $-1 $56 $-1 $28 #
shell $-1 $-1 $-1 $57 $-1 $30 #
shell $-1 $-1 $-1 $58 $-1 $32 #
shell $-1 $-1 $-1 $59 $-1 $34 #
face $-1 $60 $61 $36 $-1 $62 forward single #
face $-1 $63 $64 $37 $-1 $65 reversed single #
face $-1 $66 $67 $38 $-1 $68 reversed single #
face $-1 $69 $70 $39 $-1 $71 reversed single #
face $-1 $72 $73 $40 $-1 $74 forward single #
face $-1 $75 $76 $41 $-1 $77 forward single #
face $-1 $78 $79 $42 $-1 $80 reversed single #
face $-1 $81 $82 $43 $-1 $83 forward single #
face $-1 $84 $85 $44 $-1 $86 forward single #
face $-1 $87 $88 $45 $-1 $89 reversed single #
face $-1 $90 $91 $46 $-1 $92 forward single #
face $-1 $93 $94 $47 $-1 $95 forward single #
face $-1 $96 $97 $36 $-1 $98 reversed single #
loop $-1 $-1 $99 $48 #
plane-surface $-1 0 0 8.6265736945952387 0 0 1 1 0 0 forward_v I I I I #
face $-1 $100 $101 $37 $-1 $102 reversed single #
loop $-1 $-1 $103 $49 #
plane-surface $-1 -47.375934720750664 -26.572363706543481 0 1 0 0 0 0 -1 forward_v I I I I #
face $-1 $104 $105 $38 $-1 $106 reversed single #
loop $-1 $-1 $107 $50 #
plane-surface $-1 -45.770644852810527 22.771661249566609 0 0 1 0 0 0 1 forward_v I I I I #
face $-1 $108 $109 $39 $-1 $110 reversed single #
loop $-1 $-1 $111 $51 #
plane-surface $-1 62.357782260166573 -10.045410316920099 170.06986366911522 0 -1 0 -0.71933980857756763 0 -0.69465836192734942 forward_v I I I I #
face $-1 $112 $113 $40 $-1 $114 forward single #
loop $-1 $115 $116 $52 #
cone-surface $-1 54.826814738744382 -15.524198008566486 3.9638526152600027 -0.71933980857756763 0 -0.69465836192734942 0.69465836192734942 0 -0.71933980857756763 1 I I 0 1 1 forward I I I I #
face $-1 $117 $118 $41 $-1 $119 forward single #
loop $-1 $120 $121 $53 #
cone-surface $-1 54.826814738744382 -12.236925393578655 3.9638526152600027 -0.71933980857756763 0 -0.69465836192734942 0.69465836192734942 0 -0.71933980857756763 1 I I 0 1 1 forward I I I I #
face $-1 $122 $123 $42 $-1 $124 reversed single #
loop $-1 $-1 $125 $54 #
plane-surface $-1 62.357782260166573 17.71571308522504 170.06986366911522 0 -1 0 -0.71933980857756763 0 -0.69465836192734942 forward_v I I I I #
face $-1 $126 $127 $43 $-1 $128 forward single #
loop $-1 $129 $130 $55 #
cone-surface $-1 54.826814738744382 12.236925393578655 3.9638526152600027 -0.71933980857756763 0 -0.69465836192734942 0.69465836192734942 0 -0.71933980857756763 1 I I 0 1 1 forward I I I I #
face $-1 $131 $132 $44 $-1 $133 forward single #
loop $-1 $134 $135 $56 #
cone-surface $-1 54.826814738744382 15.524198008566483 3.9638526152600027 -0.71933980857756763 0 -0.69465836192734942 0.69465836192734942 0 -0.71933980857756763 1 I I 0 1 1 forward I I I I #
face $-1 $136 $137 $45 $-1 $138 reversed single #
loop $-1 $-1 $139 $57 #
plane-surface $-1 -120.63610042312656 16.115908727630796 103.35935896456176 0 1 0 -0.51503808176128008 0 0.85716729658548041 forward_v I I I I #
face $-1 $140 $141 $46 $-1 $142 forward single #
loop $-1 $143 $144 $58 #
cone-surface $-1 -53.217692575821033 18.017552305326742 4.6156137035320812 0.51503808176128008 0 -0.85716729658548041 0.4285836482927402 0 0.25751904088064004 1 I I 0 1 0.5 forward I I I I #
face $-1 $145 $146 $47 $-1 $147 forward single #
loop $-1 $148 $149 $59 #
cone-surface $-1 -53.217692575821033 20.870017671870666 4.6156137035320812 0.51503808176128008 0 -0.85716729658548041 0.4285836482927402 0 0.25751904088064004 1 I I 0 1 0.5 forward I I I I #
face $-1 $150 $151 $36 $-1 $152 reversed single #
loop $-1 $-1 $153 $60 #
plane-surface $-1 0 0 -8.6265736945952387 0 0 1 1 0 0 forward_v I I I I #
coedge $-1 $154 $155 $156 $157 forward $61 $-1 #
face $-1 $158 $159 $37 $-1 $160 reversed single #
loop $-1 $-1 $161 $63 #
plane-surface $-1 -45.770644852810527 -22.771661249566609 0 0 -1 0 0 0 -1 forward_v I I I I #
coedge $-1 $162 $163 $164 $165 forward $64 $-1 #
face $-1 $166 $167 $38 $-1 $168 reversed single #
loop $-1 $-1 $169 $66 #
plane-surface $-1 -47.375934720750664 26.572363706543481 0 1 0 0 0 0 -1 forward_v I I I I #
coedge $-1 $170 $171 $172 $173 forward $67 $-1 #
face $-1 $174 $175 $39 $-1 $176 reversed single #
loop $-1 $-1 $177 $69 #
plane-surface $-1 -23.134920866143233 -13.880561701072569 87.510521891689294 0.71933980857756763 0 0.69465836192734942 0.69465836192734942 0 -0.71933980857756763 forward_v I I I I #
coedge $-1 $178 $179 $180 $181 reversed $70 $-1 #
face $-1 $-1 $182 $40 $-1 $183 forward single #
loop $-1 $184 $185 $72 #
cone-surface $-1 53.060538811475453 -15.524198008566486 2.2581798195689782 -0.71933980857756763 0 -0.69465836192734942 0.34732918096367471 0 -0.35966990428878381 1 I I -0.70710678118654746 0.70710678118654746 0.5 forward I I I I #
loop $-1 $-1 $186 $52 #
coedge $-1 $116 $116 $187 $188 reversed $73 $-1 #
face $-1 $-1 $189 $41 $-1 $190 forward single #
loop $-1 $191 $192 $75 #
cone-surface $-1 53.060538811475453 -12.236925393578655 2.2581798195689782 -0.71933980857756763 0 -0.69465836192734942 0.34732918096367471 0 -0.35966990428878381 1 I I -0.70710678118654746 0.70710678118654746 0.5 forward I I I I #
loop $-1 $-1 $193 $53 #
coedge $-1 $121 $121 $194 $195 reversed $76 $-1 #
face $-1 $196 $197 $42 $-1 $198 reversed single #
loop $-1 $-1 $199 $78 #
plane-surface $-1 -23.134920866143233 13.880561701072569 87.510521891689294 0.71933980857756763 0 0.69465836192734942 0.69465836192734942 0 -0.71933980857756763 forward_v I I I I #
coedge $-1 $200 $201 $202 $203 reversed $79 $-1 #
face $-1 $-1 $204 $43 $-1 $205 forward single #
loop $-1 $206 $207 $81 #
cone-surface $-1 53.060538811475453 12.236925393578655 2.2581798195689782 -0.71933980857756763 0 -0.69465836192734942 0.34732918096367471 0 -0.35966990428878381 1 I I -0.70710678118654746 0.70710678118654746 0.5 forward I I I I #
loop $-1 $-1 $208 $55 #
coedge $-1 $130 $130 $209 $210 reversed $82 $-1 #
face $-1 $-1 $211 $44 $-1 $212 forward single #
loop $-1 $213 $214 $84 #
cone-surface $-1 53.060538811475453 15.524198008566483 2.2581798195689782 -0.71933980857756763 0 -0.69465836192734942 0.34732918096367471 0 -0.35966990428878381 1 I I -0.70710678118654746 0.70710678118654746 0.5 forward I I I I #
loop $-1 $-1 $215 $56 #
coedge $-1 $135 $135 $216 $217 reversed $85 $-1 #
face $-1 $218 $219 $45 $-1 $220 reversed single #
loop $-1 $-1 $221 $87 #
plane-surface $-1 -59.424420911282688 19.443784988598704 1.4860185171980049 -0.51503808176128008 0 0.85716729658548041 0.85716729658548041 0 0.51503808176128008 forward_v I I I I #
coedge $-1 $222 $223 $224 $225 reversed $88 $-1 #
face $-1 $-1 $226 $46 $-1 $227 forward single #
loop $-1 $228 $229 $90 #
cone-surface $-1 -52.824144349507414 18.017552305326742 3.9606394770211679 0.51503808176128008 0 -0.85716729658548041 0.2142918241463701 0 0.12875952044032002 1 I I -0.70710678118654746 0.70710678118654746 0.25 forward I I I I #
loop $-1 $-1 $230 $58 #
coedge $-1 $144 $144 $231 $232 reversed $91 $-1 #
face $-1 $-1 $233 $47 $-1 $234 forward single #
loop $-1 $235 $236 $93 #
cone-surface $-1 -52.824144349507414 20.870017671870666 3.9606394770211679 0.51503808176128008 0 -0.85716729658548041 0.2142918241463701 0 0.12875952044032002 1 I I -0.70710678118654746 0.70710678118654746 0.25 forward I I I I #
loop $-1 $-1 $237 $59 #
coedge $-1 $149 $149 $238 $239 reversed $94 $-1 #
face $-1 $240 $241 $36 $-1 $242 reversed single #
loop $-1 $-1 $243 $96 #
plane-surface $-1 0 -30.373066163520352 0 0 1 0 0 0 1 forward_v I I I I #
coedge $-1 $244 $245 $246 $247 forward $97 $-1 #
coedge $-1 $248 $99 $249 $250 forward $61 $-1 #
coedge $-1 $99 $248 $251 $252 forward $61 $-1 #
coedge $-1 $253 $254 $99 $157 reversed $255 $-1 #
edge $-1 $256 -30.373066163520352 $257 30.373066163520352 $156 $258 forward 7 unknown #
face $-1 $259 $260 $37 $-1 $261 forward single #
loop $-1 $-1 $262 $100 #
plane-surface $-1 -44.16535498487039 -26.572363706543481 0 -1 0 0 0 0 1 forward_v I I I I #
coedge $-1 $263 $264 $265 $266 forward $101 $-1 #
coedge $-1 $267 $103 $268 $269 reversed $64 $-1 #
coedge $-1 $103 $267 $270 $271 reversed $64 $-1 #
coedge $-1 $264 $263 $103 $165 reversed $101 $-1 #
edge $-1 $272 -8.6265736945952387 $273 8.6265736945952387 $164 $274 forward 7 unknown #
face $-1 $275 $276 $38 $-1 $277 reversed single #
loop $-1 $-1 $278 $104 #
plane-surface $-1 -44.16535498487039 26.572363706543481 0 -1 0 0 0 0 1 forward_v I I I I #
coedge $-1 $279 $280 $281 $282 reversed $105 $-1 #
coedge $-1 $283 $107 $284 $285 reversed $67 $-1 #
coedge $-1 $107 $283 $286 $287 reversed $67 $-1 #
coedge $-1 $280 $279 $107 $173 reversed $105 $-1 #
edge $-1 $288 -8.6265736945952387 $289 8.6265736945952387 $172 $290 forward 7 unknown #
face $-1 $291 $292 $39 $-1 $293 forward single #
loop $-1 $-1 $294 $108 #
plane-surface $-1 62.357782260166573 -17.71571308522504 170.06986366911522 0 1 0 0.71933980857756763 0 0.69465836192734942 forward_v I I I I #
coedge $-1 $295 $296 $297 $298 reversed $109 $-1 #
coedge $-1 $179 $111 $299 $300 reversed $70 $-1 #
coedge $-1 $111 $178 $295 $301 reversed $70 $-1 #
coedge $-1 $297 $302 $111 $181 forward $292 $-1 #
edge $-1 $303 -28.245529781199409 $304 -21.863529482083109 $180 $305 forward 7 unknown #
loop $-1 $-1 $187 $112 #
plane-surface $-1 -23.134920866143233 -13.880561701072569 87.510521891689294 0.71933980857756763 0 0.69465836192734942 0.69465836192734942 0 -0.71933980857756763 forward_v I I I I #
loop $-1 $-1 $306 $72 #
coedge $-1 $185 $185 $186 $307 reversed $113 $-1 #
coedge $-1 $186 $186 $185 $307 forward $115 $-1 #
coedge $-1 $187 $187 $116 $188 forward $182 $-1 #
edge $-1 $308 0 $308 6.2831853071796004 $187 $309 forward 7 unknown #
loop $-1 $-1 $194 $117 #
plane-surface $-1 -23.134920866143233 -13.880561701072569 87.510521891689294 0.71933980857756763 0 0.69465836192734942 0.69465836192734942 0 -0.71933980857756763 forward_v I I I I #
loop $-1 $-1 $310 $75 #
coedge $-1 $192 $192 $193 $311 reversed $118 $-1 #
coedge $-1 $193 $193 $192 $311 forward $120 $-1 #
coedge $-1 $194 $194 $121 $195 forward $189 $-1 #
edge $-1 $312 0 $312 6.2831853071796004 $194 $313 forward 7 unknown #
face $-1 $314 $315 $42 $-1 $316 reversed single #
loop $-1 $-1 $317 $122 #
plane-surface $-1 62.357782260166573 10.045410316920099 170.06986366911522 0 1 0 0.71933980857756763 0 0.69465836192734942 forward_v I I I I #
coedge $-1 $318 $319 $320 $321 reversed $123 $-1 #
coedge $-1 $201 $125 $322 $323 reversed $79 $-1 #
coedge $-1 $125 $200 $318 $324 reversed $79 $-1 #
coedge $-1 $320 $325 $125 $203 forward $326 $-1 #
edge $-1 $327 -28.245529781199409 $328 -21.863529482083109 $202 $329 forward 7 unknown #
loop $-1 $-1 $209 $126 #
plane-surface $-1 -23.134920866143233 13.880561701072569 87.510521891689294 0.71933980857756763 0 0.69465836192734942 0.69465836192734942 0 -0.71933980857756763 forward_v I I I I #
loop $-1 $-1 $330 $81 #
coedge $-1 $207 $207 $208 $331 reversed $127 $-1 #
coedge $-1 $208 $208 $207 $331 forward $129 $-1 #
coedge $-1 $209 $209 $130 $210 forward $204 $-1 #
edge $-1 $332 0 $332 6.2831853071796004 $209 $333 forward 7 unknown #
loop $-1 $-1 $216 $131 #
plane-surface $-1 -23.134920866143233 13.880561701072569 87.510521891689294 0.71933980857756763 0 0.69465836192734942 0.69465836192734942 0 -0.71933980857756763 forward_v I I I I #
loop $-1 $-1 $334 $84 #
coedge $-1 $214 $214 $215 $335 reversed $132 $-1 #
coedge $-1 $215 $215 $214 $335 forward $134 $-1 #
coedge $-1 $216 $216 $135 $217 forward $211 $-1 #
edge $-1 $336 0 $336 6.2831853071796004 $216 $337 forward 7 unknown #
face $-1 $338 $339 $45 $-1 $340 reversed single #
loop $-1 $-1 $341 $136 #
plane-surface $-1 -120.63610042312656 22.771661249566613 103.35935896456176 0 -1 0 0.51503808176128008 0 -0.85716729658548041 forward_v I I I I #
coedge $-1 $342 $343 $344 $345 reversed $137 $-1 #
coedge $-1 $223 $139 $346 $347 reversed $88 $-1 #
coedge $-1 $139 $222 $342 $348 reversed $88 $-1 #
coedge $-1 $344 $349 $139 $225 forward $350 $-1 #
edge $-1 $351 0.89362930028058685 $352 12.777508559457317 $224 $353 forward 7 unknown #
loop $-1 $-1 $231 $140 #
plane-surface $-1 -59.424420911282688 19.443784988598704 1.4860185171980049 -0.51503808176128008 0 0.85716729658548041 0.85716729658548041 0 0.51503808176128008 forward_v I I I I #
loop $-1 $-1 $354 $90 #
coedge $-1 $229 $229 $230 $355 reversed $141 $-1 #
coedge $-1 $230 $230 $229 $355 forward $143 $-1 #
coedge $-1 $231 $231 $144 $232 forward $226 $-1 #
edge $-1 $356 0 $356 6.2831853071796004 $231 $357 forward 7 unknown #
loop $-1 $-1 $238 $145 #
plane-surface $-1 -59.424420911282688 19.443784988598704 1.4860185171980049 -0.51503808176128008 0 0.85716729658548041 0.85716729658548041 0 0.51503808176128008 forward_v I I I I #
loop $-1 $-1 $358 $93 #
coedge $-1 $236 $236 $237 $359 reversed $146 $-1 #
coedge $-1 $237 $237 $236 $359 forward $148 $-1 #
coedge $-1 $238 $238 $149 $239 forward $233 $-1 #
edge $-1 $360 0 $360 6.2831853071796004 $238 $361 forward 7 unknown #
face $-1 $362 $363 $36 $-1 $364 reversed single #
loop $-1 $-1 $365 $150 #
plane-surface $-1 -59.424420911282695 0 0 1 0 0 0 0 -1 forward_v I I I I #
coedge $-1 $366 $251 $367 $368 forward $151 $-1 #
coedge $-1 $369 $153 $366 $370 forward $97 $-1 #
coedge $-1 $153 $369 $371 $372 forward $97 $-1 #
coedge $-1 $254 $253 $153 $247 reversed $255 $-1 #
edge $-1 $373 -30.373066163520352 $374 30.373066163520352 $246 $375 forward 7 unknown #
coedge $-1 $155 $154 $376 $377 forward $61 $-1 #
coedge $-1 $378 $379 $154 $250 reversed $363 $-1 #
edge $-1 $257 -59.424420911282695 $380 59.424420911282695 $249 $381 forward 7 unknown #
coedge $-1 $243 $382 $155 $252 reversed $151 $-1 #
edge $-1 $383 -59.424420911282695 $256 59.424420911282695 $251 $384 forward 7 unknown #
coedge $-1 $246 $156 $382 $385 forward $255 $-1 #
coedge $-1 $156 $246 $378 $386 reversed $255 $-1 #
loop $-1 $-1 $253 $362 #
vertex $-1 $157 $387 #
vertex $-1 $157 $388 #
straight-curve $-1 59.424420911282695 0 8.6265736945952387 0 1 0 I I #
face $-1 $389 $390 $37 $-1 $391 reversed single #
loop $-1 $-1 $392 $158 #
plane-surface $-1 0 0 8.6265736945952387 0 0 1 1 0 0 forward_v I I I I #
coedge $-1 $393 $394 $395 $396 reversed $159 $-1 #
coedge $-1 $164 $161 $397 $398 reversed $101 $-1 #
coedge $-1 $161 $164 $399 $400 reversed $101 $-1 #
coedge $-1 $394 $393 $161 $266 reversed $159 $-1 #
edge $-1 $401 -8.6265736945952387 $402 8.6265736945952387 $265 $403 forward 7 unknown #
coedge $-1 $163 $162 $404 $405 reversed $64 $-1 #
coedge $-1 $397 $406 $162 $269 forward $390 $-1 #
edge $-1 $407 -17.086884310248614 $273 -9.4854793962948687 $268 $408 forward 7 unknown #
coedge $-1 $409 $399 $163 $271 forward $260 $-1 #
edge $-1 $272 9.4854793962948687 $410 17.086884310248614 $270 $411 forward 7 unknown #
vertex $-1 $271 $412 #
vertex $-1 $269 $413 #
straight-curve $-1 -47.375934720750664 -22.771661249566609 0 0 0 -1 I I #
face $-1 $414 $415 $38 $-1 $416 forward single #
loop $-1 $-1 $417 $166 #
plane-surface $-1 0 0 -8.6265736945952387 0 0 1 1 0 0 forward_v I I I I #
coedge $-1 $418 $419 $283 $420 forward $167 $-1 #
coedge $-1 $172 $169 $421 $422 reversed $105 $-1 #
coedge $-1 $169 $172 $423 $424 reversed $105 $-1 #
coedge $-1 $425 $426 $169 $282 forward $427 $-1 #
edge $-1 $428 -8.6265736945952387 $429 8.6265736945952387 $281 $430 forward 7 unknown #
coedge $-1 $171 $170 $278 $420 reversed $67 $-1 #
coedge $-1 $421 $417 $170 $285 forward $276 $-1 #
edge $-1 $431 21.280032558465127 $289 24.4906122943454 $284 $432 forward 7 unknown #
coedge $-1 $433 $423 $171 $287 forward $415 $-1 #
edge $-1 $288 -24.4906122943454 $434 -21.280032558465127 $286 $435 forward 7 unknown #
vertex $-1 $287 $436 #
vertex $-1 $285 $437 #
straight-curve $-1 -47.375934720750664 22.771661249566609 0 0 0 -1 I I #
face $-1 $-1 $438 $39 $-1 $439 reversed single #
loop $-1 $-1 $180 $174 #
plane-surface $-1 0 0 8.6265736945952387 0 0 1 1 0 0 forward_v I I I I #
coedge $-1 $440 $441 $442 $443 reversed $175 $-1 #
coedge $-1 $444 $177 $179 $301 forward $109 $-1 #
coedge $-1 $177 $444 $440 $445 forward $109 $-1 #
coedge $-1 $442 $180 $177 $298 forward $292 $-1 #
edge $-1 $304 3.1051294663838149 $446 10.775432234688756 $297 $447 forward 7 unknown #
coedge $-1 $448 $449 $178 $300 forward $438 $-1 #
edge $-1 $450 -83.017113069178123 $303 -76.408358139962374 $299 $451 forward 7 unknown #
edge $-1 $304 109.6615914432433 $450 118.84884182256539 $179 $452 forward 7 unknown #
coedge $-1 $180 $442 $448 $453 forward $292 $-1 #
vertex $-1 $181 $454 #
vertex $-1 $181 $455 #
straight-curve $-1 31.178891130083286 -10.045410316920099 8.6265736945952369 -1 0 0 I I #
coedge $-1 $306 $306 $-1 $456 reversed $184 $-1 #
edge $-1 $457 0 $457 6.2831853071796004 $185 $458 forward 7 unknown #
vertex $-1 $188 $459 #
ellipse-curve $-1 56.233420761724538 -15.524198008566486 5.322196229987358 0.71933980857756763 0 0.69465836192734942 0.69465836192734942 0 -0.71933980857756763 1 I I #
coedge $-1 $310 $310 $-1 $460 reversed $191 $-1 #
edge $-1 $461 0 $461 6.2831853071796004 $192 $462 forward 7 unknown #
vertex $-1 $195 $463 #
ellipse-curve $-1 56.233420761724538 -12.236925393578655 5.322196229987358 0.71933980857756763 0 0.69465836192734942 0.69465836192734942 0 -0.71933980857756763 1 I I #
face $-1 $-1 $326 $42 $-1 $464 forward single #
loop $-1 $-1 $465 $196 #
plane-surface $-1 59.424420911282695 0 0 -1 0 0 0 0 1 forward_v I I I I #
coedge $-1 $466 $467 $468 $469 reversed $197 $-1 #
coedge $-1 $470 $199 $201 $324 forward $123 $-1 #
coedge $-1 $199 $470 $466 $471 forward $123 $-1 #
coedge $-1 $468 $202 $199 $321 forward $326 $-1 #
edge $-1 $328 -10.775432234688756 $472 -3.1051294663838149 $320 $473 forward 7 unknown #
coedge $-1 $474 $475 $200 $323 forward $315 $-1 #
edge $-1 $476 -83.017113069178123 $327 -76.408358139962374 $322 $477 forward 7 unknown #
edge $-1 $328 109.6615914432433 $476 118.84884182256539 $201 $478 forward 7 unknown #
coedge $-1 $202 $468 $474 $479 forward $326 $-1 #
loop $-1 $-1 $468 $314 #
vertex $-1 $323 $480 #
vertex $-1 $203 $481 #
straight-curve $-1 31.178891130083286 17.71571308522504 8.6265736945952369 -1 0 0 I I #
coedge $-1 $330 $330 $-1 $482 reversed $206 $-1 #
edge $-1 $483 0 $483 6.2831853071796004 $207 $484 forward 7 unknown #
vertex $-1 $210 $485 #
ellipse-curve $-1 56.233420761724538 12.236925393578655 5.322196229987358 0.71933980857756763 0 0.69465836192734942 0.69465836192734942 0 -0.71933980857756763 1 I I #
coedge $-1 $334 $334 $-1 $486 reversed $213 $-1 #
edge $-1 $487 0 $487 6.2831853071796004 $214 $488 forward 7 unknown #
vertex $-1 $217 $489 #
ellipse-curve $-1 56.233420761724538 15.524198008566483 5.322196229987358 0.71933980857756763 0 0.69465836192734942 0.69465836192734942 0 -0.71933980857756763 1 I I #
face $-1 $-1 $350 $45 $-1 $490 forward single #
loop $-1 $-1 $491 $218 #
plane-surface $-1 -59.424420911282695 0 0 1 0 0 0 0 -1 forward_v I I I I #
coedge $-1 $492 $493 $494 $495 reversed $219 $-1 #
coedge $-1 $496 $221 $223 $348 forward $137 $-1 #
coedge $-1 $221 $496 $492 $497 forward $137 $-1 #
coedge $-1 $494 $224 $221 $345 forward $350 $-1 #
edge $-1 $352 6.3940162333314436 $498 13.049768755267261 $344 $499 forward 7 unknown #
coedge $-1 $500 $501 $222 $347 forward $339 $-1 #
edge $-1 $502 -50.193660965082884 $351 -43.053105787685645 $346 $503 forward 7 unknown #
edge $-1 $352 -13.864130498814022 $502 8.2634070795339233e-015 $223 $504 forward 7 unknown #
coedge $-1 $224 $494 $500 $505 forward $350 $-1 #
loop $-1 $-1 $494 $338 #
vertex $-1 $347 $506 #
vertex $-1 $225 $507 #
straight-curve $-1 -60.318050211563282 16.115908727630796 8.6265736945952369 1 0 0 I I #
coedge $-1 $354 $354 $-1 $508 reversed $228 $-1 #
edge $-1 $509 0 $509 6.2831853071796004 $229 $510 forward 7 unknown #
vertex $-1 $232 $511 #
ellipse-curve $-1 -53.482481281694334 18.017552305326742 5.0562961058966183 -0.51503808176128008 0 0.85716729658548041 0.4285836482927402 0 0.25751904088064004 1 I I #
coedge $-1 $358 $358 $-1 $512 reversed $235 $-1 #
edge $-1 $513 0 $513 6.2831853071796004 $236 $514 forward 7 unknown #
vertex $-1 $239 $515 #
ellipse-curve $-1 -53.482481281694334 20.870017671870666 5.0562961058966183 -0.51503808176128008 0 0.85716729658548041 0.4285836482927402 0 0.25751904088064004 1 I I #
face $-1 $-1 $255 $36 $-1 $516 reversed single #
loop $-1 $-1 $378 $240 #
plane-surface $-1 0 30.373066163520352 0 0 -1 0 0 0 -1 forward_v I I I I #
coedge $-1 $517 $376 $379 $518 forward $241 $-1 #
coedge $-1 $382 $243 $244 $370 reversed $151 $-1 #
coedge $-1 $376 $517 $243 $368 reversed $241 $-1 #
edge $-1 $383 -8.6265736945952387 $519 8.6265736945952387 $367 $520 forward 7 unknown #
coedge $-1 $245 $244 $517 $521 forward $97 $-1 #
edge $-1 $374 -59.424420911282695 $519 59.424420911282695 $366 $522 forward 7 unknown #
coedge $-1 $379 $378 $245 $372 reversed $363 $-1 #
edge $-1 $523 -59.424420911282695 $373 59.424420911282695 $371 $524 forward 7 unknown #
vertex $-1 $247 $525 #
vertex $-1 $385 $526 #
straight-curve $-1 59.424420911282695 0 -8.6265736945952387 0 -1 0 I I #
coedge $-1 $365 $367 $248 $377 reversed $241 $-1 #
edge $-1 $380 -30.373066163520352 $383 30.373066163520352 $376 $527 forward 7 unknown #
coedge $-1 $371 $249 $254 $386 forward $363 $-1 #
coedge $-1 $249 $371 $365 $518 reversed $363 $-1 #
vertex $-1 $250 $528 #
straight-curve $-1 0 30.373066163520352 8.6265736945952387 -1 0 0 I I #
coedge $-1 $251 $366 $253 $385 reversed $151 $-1 #
vertex $-1 $377 $529 #
straight-curve $-1 0 -30.373066163520352 8.6265736945952387 1 0 0 I I #
edge $-1 $256 -8.6265736945952387 $374 8.6265736945952387 $253 $530 forward 7 unknown #
edge $-1 $257 -8.6265736945952387 $373 8.6265736945952387 $254 $531 forward 7 unknown #
point $-1 59.424420911282695 -30.373066163520352 8.6265736945952387 #
point $-1 59.424420911282695 30.373066163520352 8.6265736945952387 #
face $-1 $-1 $532 $37 $-1 $533 reversed single #
loop $-1 $-1 $534 $259 #
plane-surface $-1 0 0 -8.6265736945952387 0 0 1 1 0 0 forward_v I I I I #
coedge $-1 $399 $409 $394 $535 forward $260 $-1 #
coedge $-1 $265 $262 $534 $536 reversed $159 $-1 #
coedge $-1 $262 $265 $392 $535 reversed $159 $-1 #
coedge $-1 $537 $538 $262 $396 forward $532 $-1 #
edge $-1 $539 -8.6265736945952387 $540 8.6265736945952387 $395 $541 forward 7 unknown #
coedge $-1 $534 $268 $263 $398 forward $390 $-1 #
edge $-1 $273 -24.4906122943454 $402 -21.280032558465127 $397 $542 forward 7 unknown #
coedge $-1 $270 $392 $264 $400 forward $260 $-1 #
edge $-1 $401 21.280032558465127 $272 24.4906122943454 $399 $543 forward 7 unknown #
vertex $-1 $400 $544 #
vertex $-1 $398 $545 #
straight-curve $-1 -44.16535498487039 -22.771661249566609 0 0 0 -1 I I #
coedge $-1 $538 $537 $267 $405 forward $532 $-1 #
edge $-1 $410 -8.6265736945952387 $407 8.6265736945952387 $404 $546 forward 7 unknown #
coedge $-1 $268 $534 $538 $547 forward $390 $-1 #
vertex $-1 $269 $548 #
straight-curve $-1 -47.375934720750664 -13.28618185327174 -8.6265736945952387 0 1 0 I I #
coedge $-1 $392 $270 $537 $549 forward $260 $-1 #
vertex $-1 $549 $550 #
straight-curve $-1 -47.375934720750664 -13.28618185327174 8.6265736945952387 0 -1 0 I I #
point $-1 -47.375934720750664 -22.771661249566609 8.6265736945952387 #
point $-1 -47.375934720750664 -22.771661249566609 -8.6265736945952387 #
face $-1 $-1 $427 $38 $-1 $551 reversed single #
loop $-1 $-1 $433 $275 #
plane-surface $-1 0 0 8.6265736945952387 0 0 1 1 0 0 forward_v I I I I #
coedge $-1 $284 $552 $418 $553 forward $276 $-1 #
coedge $-1 $554 $278 $417 $553 reversed $167 $-1 #
coedge $-1 $278 $554 $433 $555 reversed $167 $-1 #
edge $-1 $434 -8.6265736945952387 $431 8.6265736945952387 $278 $556 forward 7 unknown #
coedge $-1 $552 $284 $279 $422 forward $276 $-1 #
edge $-1 $289 9.4854793962948687 $428 17.086884310248614 $421 $557 forward 7 unknown #
coedge $-1 $286 $558 $280 $424 forward $415 $-1 #
edge $-1 $429 -17.086884310248614 $288 -9.4854793962948687 $423 $559 forward 7 unknown #
coedge $-1 $560 $281 $558 $561 reversed $427 $-1 #
coedge $-1 $281 $560 $552 $562 reversed $427 $-1 #
loop $-1 $-1 $560 $414 #
vertex $-1 $562 $563 #
vertex $-1 $282 $564 #
straight-curve $-1 -47.375934720750664 30.373066163520352 0 0 0 1 I I #
vertex $-1 $285 $565 #
straight-curve $-1 -22.885322426405263 22.771661249566609 -8.6265736945952387 -1 0 0 I I #
coedge $-1 $558 $286 $419 $555 forward $415 $-1 #
vertex $-1 $287 $566 #
straight-curve $-1 -22.885322426405263 22.771661249566609 8.6265736945952387 1 0 0 I I #
point $-1 -47.375934720750664 22.771661249566609 8.6265736945952387 #
point $-1 -47.375934720750664 22.771661249566609 -8.6265736945952387 #
loop $-1 $-1 $299 $291 #
plane-surface $-1 59.424420911282695 0 0 -1 0 0 0 0 1 forward_v I I I I #
coedge $-1 $441 $294 $296 $445 reversed $175 $-1 #
coedge $-1 $294 $440 $567 $568 reversed $175 $-1 #
coedge $-1 $302 $297 $294 $443 forward $292 $-1 #
edge $-1 $446 21.863529482083109 $569 28.245529781199409 $442 $570 forward 7 unknown #
coedge $-1 $296 $295 $449 $571 reversed $109 $-1 #
edge $-1 $572 -118.84884182256539 $446 -109.6615914432433 $440 $573 forward 7 unknown #
vertex $-1 $298 $574 #
straight-curve $-1 53.042420612166389 -6.9402808505362845 8.6265736945952369 0 -1 0 I I #
coedge $-1 $567 $299 $302 $453 reversed $438 $-1 #
coedge $-1 $299 $567 $444 $571 forward $438 $-1 #
vertex $-1 $300 $575 #
straight-curve $-1 59.424420911282695 -10.045410316920099 85.034931834557611 0 0 1 I I #
straight-curve $-1 -23.134920866143233 -10.045410316920099 87.510521891689294 0.69465836192734942 0 -0.71933980857756763 I I #
edge $-1 $569 -17.71571308522504 $303 -10.045410316920099 $448 $576 forward 7 unknown #
point $-1 59.424420911282695 -10.045410316920099 8.6265736945952387 #
point $-1 53.042420612166396 -10.045410316920099 8.6265736945952369 #
edge $-1 $577 1 $577 0 $306 $-1 forward 7 unknown #
vertex $-1 $307 $578 #
ellipse-curve $-1 53.42020871576424 -15.524198008566486 2.6055090005326527 0.71933980857756763 0 0.69465836192734942 0.69465836192734942 0 -0.71933980857756763 1 I I #
point $-1 56.928079123651884 -15.524198008566486 4.6028564214097845 #
edge $-1 $579 1 $579 0 $310 $-1 forward 7 unknown #
vertex $-1 $311 $580 #
ellipse-curve $-1 53.42020871576424 -12.236925393578655 2.6055090005326527 0.71933980857756763 0 0.69465836192734942 0.69465836192734942 0 -0.71933980857756763 1 I I #
point $-1 56.928079123651884 -12.236925393578655 4.6028564214097845 #
plane-surface $-1 0 0 8.6265736945952387 0 0 1 1 0 0 forward_v I I I I #
coedge $-1 $475 $474 $467 $581 forward $315 $-1 #
coedge $-1 $467 $317 $319 $471 reversed $197 $-1 #
coedge $-1 $317 $466 $465 $581 reversed $197 $-1 #
coedge $-1 $325 $320 $317 $469 forward $326 $-1 #
edge $-1 $472 21.863529482083109 $582 28.245529781199409 $468 $583 forward 7 unknown #
coedge $-1 $319 $318 $475 $584 reversed $123 $-1 #
edge $-1 $585 -118.84884182256539 $472 -109.6615914432433 $466 $586 forward 7 unknown #
vertex $-1 $321 $587 #
straight-curve $-1 53.042420612166389 6.9402808505362845 8.6265736945952369 0 -1 0 I I #
coedge $-1 $465 $322 $325 $479 reversed $315 $-1 #
coedge $-1 $322 $465 $470 $584 forward $315 $-1 #
vertex $-1 $323 $588 #
straight-curve $-1 59.424420911282695 17.71571308522504 85.034931834557611 0 0 1 I I #
straight-curve $-1 -23.134920866143233 17.71571308522504 87.510521891689294 0.69465836192734942 0 -0.71933980857756763 I I #
edge $-1 $582 10.045410316920099 $327 17.71571308522504 $474 $589 forward 7 unknown #
point $-1 59.424420911282695 17.71571308522504 8.6265736945952387 #
point $-1 53.042420612166396 17.71571308522504 8.6265736945952369 #
edge $-1 $590 1 $590 0 $330 $-1 forward 7 unknown #
vertex $-1 $331 $591 #
ellipse-curve $-1 53.42020871576424 12.236925393578655 2.6055090005326527 0.71933980857756763 0 0.69465836192734942 0.69465836192734942 0 -0.71933980857756763 1 I I #
point $-1 56.928079123651884 12.236925393578655 4.6028564214097845 #
edge $-1 $592 1 $592 0 $334 $-1 forward 7 unknown #
vertex $-1 $335 $593 #
ellipse-curve $-1 53.42020871576424 15.524198008566483 2.6055090005326527 0.71933980857756763 0 0.69465836192734942 0.69465836192734942 0 -0.71933980857756763 1 I I #
point $-1 56.928079123651884 15.524198008566483 4.6028564214097845 #
plane-surface $-1 0 0 8.6265736945952387 0 0 1 1 0 0 forward_v I I I I #
coedge $-1 $501 $500 $493 $594 forward $339 $-1 #
coedge $-1 $493 $341 $343 $497 reversed $219 $-1 #
coedge $-1 $341 $492 $491 $594 reversed $219 $-1 #
coedge $-1 $349 $344 $341 $495 forward $350 $-1 #
edge $-1 $498 -12.777508559457317 $595 -0.89362930028058685 $494 $596 forward 7 unknown #
coedge $-1 $343 $342 $501 $597 reversed $137 $-1 #
edge $-1 $598 -8.2634070795339233e-015 $498 13.864130498814022 $492 $599 forward 7 unknown #
vertex $-1 $345 $600 #
straight-curve $-1 -47.540541652105965 9.7218924942993521 8.6265736945952387 0 1 0 I I #
coedge $-1 $491 $346 $349 $505 reversed $339 $-1 #
coedge $-1 $346 $491 $496 $597 forward $339 $-1 #
vertex $-1 $347 $601 #
straight-curve $-1 -59.424420911282695 16.115908727630796 51.679679482280882 0 0 1 I I #
straight-curve $-1 -59.424420911282688 16.115908727630796 1.4860185171980049 -0.85716729658548041 0 -0.51503808176128008 I I #
edge $-1 $595 -22.771661249566613 $351 -16.115908727630796 $500 $602 forward 7 unknown #
point $-1 -59.424420911282695 16.115908727630796 8.6265736945952387 #
point $-1 -47.540541652105965 16.115908727630796 8.6265736945952387 #
edge $-1 $603 1 $603 0 $354 $-1 forward 7 unknown #
vertex $-1 $355 $604 #
ellipse-curve $-1 -52.952903869947733 18.017552305326742 4.174931301167538 -0.51503808176128008 0 0.85716729658548041 0.4285836482927402 0 0.25751904088064004 1 I I #
point $-1 -53.053897633401597 18.017552305326742 5.313815146777265 #
edge $-1 $605 1 $605 0 $358 $-1 forward 7 unknown #
vertex $-1 $359 $606 #
ellipse-curve $-1 -52.952903869947733 20.870017671870666 4.174931301167538 -0.51503808176128008 0 0.85716729658548041 0.4285836482927402 0 0.25751904088064004 1 I I #
point $-1 -53.053897633401597 20.870017671870666 5.313815146777265 #
plane-surface $-1 59.424420911282695 0 0 -1 0 0 0 0 1 forward_v I I I I #
coedge $-1 $367 $365 $369 $521 reversed $241 $-1 #
edge $-1 $380 -8.6265736945952387 $523 8.6265736945952387 $379 $607 forward 7 unknown #
vertex $-1 $521 $608 #
straight-curve $-1 -59.424420911282695 -30.373066163520352 0 0 0 -1 I I #
edge $-1 $519 -30.373066163520352 $523 30.373066163520352 $517 $609 forward 7 unknown #
straight-curve $-1 0 -30.373066163520352 -8.6265736945952387 -1 0 0 I I #
vertex $-1 $372 $610 #
straight-curve $-1 0 30.373066163520352 -8.6265736945952387 1 0 0 I I #
point $-1 59.424420911282695 30.373066163520352 -8.6265736945952387 #
point $-1 59.424420911282695 -30.373066163520352 -8.6265736945952387 #
straight-curve $-1 -59.424420911282695 0 8.6265736945952387 0 -1 0 I I #
point $-1 -59.424420911282695 30.373066163520352 8.6265736945952387 #
point $-1 -59.424420911282695 -30.373066163520352 8.6265736945952387 #
straight-curve $-1 59.424420911282695 -30.373066163520352 0 0 0 -1 I I #
straight-curve $-1 59.424420911282695 30.373066163520352 0 0 0 -1 I I #
loop $-1 $-1 $395 $389 #
plane-surface $-1 0 -30.373066163520352 0 0 1 0 0 0 1 forward_v I I I I #
coedge $-1 $406 $397 $393 $536 forward $390 $-1 #
edge $-1 $540 -17.086884310248614 $401 -9.4854793962948687 $392 $611 forward 7 unknown #
edge $-1 $402 9.4854793962948687 $539 17.086884310248614 $534 $612 forward 7 unknown #
coedge $-1 $404 $395 $409 $549 reversed $532 $-1 #
coedge $-1 $395 $404 $406 $547 reversed $532 $-1 #
vertex $-1 $547 $613 #
vertex $-1 $396 $614 #
straight-curve $-1 -44.16535498487039 -30.373066163520352 0 0 0 1 I I #
straight-curve $-1 -22.885322426405263 -22.771661249566609 -8.6265736945952387 1 0 0 I I #
straight-curve $-1 -22.885322426405263 -22.771661249566609 8.6265736945952387 -1 0 0 I I #
point $-1 -44.16535498487039 -22.771661249566609 8.6265736945952387 #
point $-1 -44.16535498487039 -22.771661249566609 -8.6265736945952387 #
straight-curve $-1 -47.375934720750664 -30.373066163520352 0 0 0 -1 I I #
edge $-1 $539 44.16535498487039 $407 47.375934720750664 $538 $615 forward 7 unknown #
point $-1 -47.375934720750664 -30.373066163520352 -8.6265736945952387 #
edge $-1 $410 -47.375934720750664 $540 -44.16535498487039 $537 $616 forward 7 unknown #
point $-1 -47.375934720750664 -30.373066163520352 8.6265736945952387 #
plane-surface $-1 0 30.373066163520352 0 0 -1 0 0 0 -1 forward_v I I I I #
coedge $-1 $417 $421 $426 $562 forward $276 $-1 #
edge $-1 $617 -17.086884310248614 $431 -9.4854793962948687 $417 $618 forward 7 unknown #
coedge $-1 $419 $418 $560 $619 reversed $167 $-1 #
edge $-1 $434 9.4854793962948687 $620 17.086884310248614 $433 $621 forward 7 unknown #
straight-curve $-1 -44.16535498487039 22.771661249566609 0 0 0 -1 I I #
straight-curve $-1 -47.375934720750664 13.28618185327174 -8.6265736945952387 0 1 0 I I #
coedge $-1 $423 $433 $425 $561 forward $415 $-1 #
straight-curve $-1 -47.375934720750664 13.28618185327174 8.6265736945952387 0 -1 0 I I #
coedge $-1 $426 $425 $554 $619 forward $427 $-1 #
edge $-1 $620 44.16535498487039 $429 47.375934720750664 $425 $622 forward 7 unknown #
edge $-1 $428 -47.375934720750664 $617 -44.16535498487039 $426 $623 forward 7 unknown #
point $-1 -47.375934720750664 30.373066163520352 -8.6265736945952387 #
point $-1 -47.375934720750664 30.373066163520352 8.6265736945952387 #
point $-1 -44.16535498487039 22.771661249566609 -8.6265736945952387 #
point $-1 -44.16535498487039 22.771661249566609 8.6265736945952387 #
coedge $-1 $449 $448 $441 $568 forward $438 $-1 #
edge $-1 $569 76.408358139962374 $572 83.017113069178123 $567 $624 forward 7 unknown #
vertex $-1 $453 $625 #
straight-curve $-1 31.178891130083286 -17.71571308522504 8.6265736945952369 1 0 0 I I #
edge $-1 $572 -10.775432234688756 $450 -3.1051294663838149 $449 $626 forward 7 unknown #
vertex $-1 $571 $627 #
straight-curve $-1 -23.134920866143233 -17.71571308522504 87.510521891689294 -0.69465836192734942 0 0.71933980857756763 I I #
point $-1 53.042420612166396 -17.71571308522504 8.6265736945952369 #
point $-1 59.424420911282695 -10.045410316920099 2.0178187653794879 #
straight-curve $-1 59.424420911282695 0 8.6265736945952387 0 1 0 I I #
vertex $-1 $456 $628 #
point $-1 54.114867077691585 -15.524198008566486 1.8861691919550854 #
vertex $-1 $460 $629 #
point $-1 54.114867077691585 -12.236925393578655 1.8861691919550854 #
edge $-1 $582 76.408358139962374 $585 83.017113069178123 $465 $630 forward 7 unknown #
vertex $-1 $479 $631 #
straight-curve $-1 31.178891130083286 10.045410316920099 8.6265736945952369 1 0 0 I I #
edge $-1 $585 3.1051294663838149 $476 10.775432234688756 $475 $632 forward 7 unknown #
vertex $-1 $584 $633 #
straight-curve $-1 -23.134920866143233 10.045410316920099 87.510521891689294 -0.69465836192734942 0 0.71933980857756763 I I #
point $-1 53.042420612166396 10.045410316920099 8.6265736945952369 #
point $-1 59.424420911282695 17.71571308522504 2.0178187653794879 #
straight-curve $-1 59.424420911282695 0 8.6265736945952387 0 1 0 I I #
vertex $-1 $482 $634 #
point $-1 54.114867077691585 12.236925393578655 1.8861691919550854 #
vertex $-1 $486 $635 #
point $-1 54.114867077691585 15.524198008566483 1.8861691919550854 #
edge $-1 $595 43.053105787685645 $598 50.193660965082884 $491 $636 forward 7 unknown #
vertex $-1 $505 $637 #
straight-curve $-1 -60.318050211563282 22.771661249566613 8.6265736945952369 -1 0 0 I I #
edge $-1 $598 -13.049768755267261 $502 -6.3940162333314436 $501 $638 forward 7 unknown #
vertex $-1 $597 $639 #
straight-curve $-1 -59.424420911282688 22.771661249566613 1.4860185171980049 0.85716729658548041 0 0.51503808176128008 I I #
point $-1 -47.540541652105965 22.771661249566613 8.6265736945952387 #
point $-1 -59.424420911282695 16.115908727630796 1.4860185171980007 #
straight-curve $-1 -59.424420911282695 0 8.6265736945952387 0 -1 0 I I #
vertex $-1 $508 $640 #
point $-1 -52.524320221654996 18.017552305326742 4.4324503420481784 #
vertex $-1 $512 $641 #
point $-1 -52.524320221654996 20.870017671870666 4.4324503420481784 #
straight-curve $-1 -59.424420911282695 30.373066163520352 0 0 0 -1 I I #
point $-1 -59.424420911282695 -30.373066163520352 -8.6265736945952387 #
straight-curve $-1 -59.424420911282695 0 -8.6265736945952387 0 1 0 I I #
point $-1 -59.424420911282695 30.373066163520352 -8.6265736945952387 #
straight-curve $-1 -44.16535498487039 -13.28618185327174 8.6265736945952387 0 1 0 I I #
straight-curve $-1 -44.16535498487039 -13.28618185327174 -8.6265736945952387 0 -1 0 I I #
point $-1 -44.16535498487039 -30.373066163520352 -8.6265736945952387 #
point $-1 -44.16535498487039 -30.373066163520352 8.6265736945952387 #
straight-curve $-1 0 -30.373066163520352 -8.6265736945952387 -1 0 0 I I #
straight-curve $-1 0 -30.373066163520352 8.6265736945952387 1 0 0 I I #
vertex $-1 $619 $642 #
straight-curve $-1 -44.16535498487039 13.28618185327174 -8.6265736945952387 0 -1 0 I I #
edge $-1 $620 -8.6265736945952387 $617 8.6265736945952387 $560 $643 forward 7 unknown #
vertex $-1 $561 $644 #
straight-curve $-1 -44.16535498487039 13.28618185327174 8.6265736945952387 0 1 0 I I #
straight-curve $-1 0 30.373066163520352 8.6265736945952387 -1 0 0 I I #
straight-curve $-1 0 30.373066163520352 -8.6265736945952387 1 0 0 I I #
straight-curve $-1 59.424420911282695 -17.71571308522504 85.034931834557611 0 0 -1 I I #
point $-1 59.424420911282695 -17.71571308522504 8.6265736945952387 #
straight-curve $-1 59.424420911282695 -6.9402808505362845 2.017818765379495 0 1 0 I I #
point $-1 59.424420911282695 -17.71571308522504 2.0178187653794879 #
point $-1 52.700868907186667 -15.524198008566486 1.9108506386053035 #
point $-1 52.700868907186667 -12.236925393578655 1.9108506386053035 #
straight-curve $-1 59.424420911282695 10.045410316920099 85.034931834557611 0 0 -1 I I #
point $-1 59.424420911282695 10.045410316920099 8.6265736945952387 #
straight-curve $-1 59.424420911282695 6.9402808505362845 2.017818765379495 0 1 0 I I #
point $-1 59.424420911282695 10.045410316920099 2.0178187653794879 #
point $-1 52.700868907186667 12.236925393578655 1.9108506386053035 #
point $-1 52.700868907186667 15.524198008566483 1.9108506386053035 #
straight-curve $-1 -59.424420911282695 22.771661249566613 51.679679482280882 0 0 -1 I I #
point $-1 -59.424420911282695 22.771661249566613 8.6265736945952387 #
straight-curve $-1 -59.424420911282695 9.7218924942993521 1.4860185171980036 0 -1 0 I I #
point $-1 -59.424420911282695 22.771661249566613 1.4860185171980007 #
point $-1 -52.695384829067095 18.017552305326742 3.7463476528747979 #
point $-1 -52.695384829067095 20.870017671870666 3.7463476528747979 #
point $-1 -44.16535498487039 30.373066163520352 -8.6265736945952387 #
straight-curve $-1 -44.16535498487039 30.373066163520352 0 0 0 -1 I I #
point $-1 -44.16535498487039 30.373066163520352 8.6265736945952387 #
End-of-ACIS-data 