500 0 14 0           
7 Unknown 11 ACIS 5.0 NT 24 Thu Mar 25 22:02:49 1999 
-1 9.9999999999999995e-007 1e-010 
body $-1 $14 $-1 $15 #
body $-1 $16 $-1 $17 #
body $-1 $18 $-1 $19 #
body $-1 $20 $-1 $21 #
body $-1 $22 $-1 $23 #
body $-1 $24 $-1 $25 #
body $-1 $26 $-1 $27 #
body $-1 $28 $-1 $29 #
body $-1 $30 $-1 $31 #
body $-1 $32 $-1 $33 #
body $-1 $34 $-1 $35 #
body $-1 $36 $-1 $37 #
body $-1 $38 $-1 $39 #
body $-1 $40 $-1 $41 #
lump $-1 $-1 $42 $0 #
transform $-1 1 0 0 0 1 0 0 0 1 61.106601153599655 36.473369712274604 13.564616168331577 1 rotate no_reflect no_shear #
lump $-1 $-1 $43 $1 #
transform $-1 1 0 0 0 1 0 0 0 1 61.106601153599655 36.473369712274604 13.564616168331577 1 rotate no_reflect no_shear #
lump $-1 $-1 $44 $2 #
transform $-1 1 0 0 0 1 0 0 0 1 61.106601153599655 36.473369712274604 13.564616168331577 1 rotate no_reflect no_shear #
lump $-1 $-1 $45 $3 #
transform $-1 1 0 0 0 1 0 0 0 1 61.106601153599655 36.473369712274604 13.564616168331577 1 rotate no_reflect no_shear #
lump $-1 $-1 $46 $4 #
transform $-1 1 0 0 0 1 0 0 0 1 61.106601153599655 36.473369712274604 13.564616168331577 1 rotate no_reflect no_shear #
lump $-1 $-1 $47 $5 #
transform $-1 1 0 0 0 1 0 0 0 1 61.106601153599655 36.473369712274604 13.564616168331577 1 rotate no_reflect no_shear #
lump $-1 $-1 $48 $6 #
transform $-1 1 0 0 0 1 0 0 0 1 61.106601153599655 36.473369712274604 13.564616168331577 1 rotate no_reflect no_shear #
lump $-1 $-1 $49 $7 #
transform $-1 1 0 0 0 1 0 0 0 1 61.106601153599655 36.473369712274604 13.564616168331577 1 rotate no_reflect no_shear #
lump $-1 $-1 $50 $8 #
transform $-1 1 0 0 0 1 0 0 0 1 61.106601153599655 36.473369712274604 13.564616168331577 1 rotate no_reflect no_shear #
lump $-1 $-1 $51 $9 #
transform $-1 1 0 0 0 1 0 0 0 1 61.106601153599655 36.473369712274604 13.564616168331577 1 rotate no_reflect no_shear #
lump $-1 $-1 $52 $10 #
transform $-1 1 0 0 0 1 0 0 0 1 61.106601153599655 36.473369712274604 13.564616168331577 1 rotate no_reflect no_shear #
lump $-1 $-1 $53 $11 #
transform $-1 1 0 0 0 1 0 0 0 1 61.106601153599655 36.473369712274604 13.564616168331577 1 rotate no_reflect no_shear #
lump $-1 $-1 $54 $12 #
transform $-1 1 0 0 0 1 0 0 0 1 61.106601153599655 36.473369712274604 13.564616168331577 1 rotate no_reflect no_shear #
lump $-1 $-1 $55 $13 #
transform $-1 1 0 0 0 1 0 0 0 1 61.106601153599655 36.473369712274604 13.564616168331577 1 rotate no_reflect no_shear #
shell $-1 $-1 $-1 $56 $-1 $14 #
shell $-1 $-1 $-1 $57 $-1 $16 #
shell $-1 $-1 $-1 $58 $-1 $18 #
shell $-1 $-1 $-1 $59 $-1 $20 #
shell $-1 $-1 $-1 $60 $-1 $22 #
shell $-1 $-1 $-1 $61 $-1 $24 #
shell $-1 $-1 $-1 $62 $-1 $26 #
shell $-1 $-1 $-1 $63 $-1 $28 #
shell $-1 $-1 $-1 $64 $-1 $30 #
shell $-1 $-1 $-1 $65 $-1 $32 #
shell $-1 $-1 $-1 $66 $-1 $34 #
shell $-1 $-1 $-1 $67 $-1 $36 #
shell $-1 $-1 $-1 $68 $-1 $38 #
shell $-1 $-1 $-1 $69 $-1 $40 #
face $-1 $70 $71 $42 $-1 $72 forward single #
face $-1 $73 $74 $43 $-1 $75 reversed single #
face $-1 $76 $77 $44 $-1 $78 reversed single #
face $-1 $79 $80 $45 $-1 $81 forward single #
face $-1 $82 $83 $46 $-1 $84 forward single #
face $-1 $85 $86 $47 $-1 $87 forward single #
face $-1 $88 $89 $48 $-1 $90 reversed single #
face $-1 $91 $92 $49 $-1 $93 forward single #
face $-1 $94 $95 $50 $-1 $96 forward single #
face $-1 $97 $98 $51 $-1 $99 forward single #
face $-1 $100 $101 $52 $-1 $102 reversed single #
face $-1 $103 $104 $53 $-1 $105 forward single #
face $-1 $106 $107 $54 $-1 $108 reversed single #
face $-1 $109 $110 $55 $-1 $111 forward single #
face $-1 $112 $113 $42 $-1 $114 reversed single #
loop $-1 $-1 $115 $56 #
plane-surface $-1 0 0 13.564616168331577 0 0 1 1 0 0 forward_v I I I I #
face $-1 $116 $117 $43 $-1 $118 reversed single #
loop $-1 $-1 $119 $57 #
plane-surface $-1 0 -29.060599033433615 6.9514155918644924 0 0 1 1 0 0 forward_v I I I I #
face $-1 $120 $121 $44 $-1 $122 reversed single #
loop $-1 $-1 $123 $58 #
plane-surface $-1 -142.88319630199072 -9.2501688000616795 100.12124005321024 0 -1 0 0.66913061440640931 0 -0.74314481823134659 forward_v I I I I #
face $-1 $124 $125 $45 $-1 $126 forward single #
loop $-1 $127 $128 $59 #
cone-surface $-1 -58.111101972199471 -19.168296443686437 10.735687546755322 0.66913061440640931 0 -0.74314481823134659 0.74314481823134659 0 0.66913061440640931 1 I I 0 1 1 forward I I I I #
face $-1 $129 $130 $46 $-1 $131 forward single #
loop $-1 $132 $133 $60 #
cone-surface $-1 -58.111101972199471 -15.448998577327153 10.735687546755322 0.66913061440640931 0 -0.74314481823134659 0.74314481823134659 0 0.66913061440640931 1 I I 0 1 1 forward I I I I #
face $-1 $134 $135 $47 $-1 $136 forward single #
loop $-1 $137 $138 $61 #
cone-surface $-1 -58.111101972199471 -11.729700710967869 10.735687546755322 0.66913061440640931 0 -0.74314481823134659 0.74314481823134659 0 0.66913061440640931 1 I I 0 1 1 forward I I I I #
face $-1 $139 $140 $48 $-1 $141 reversed single #
loop $-1 $-1 $142 $62 #
plane-surface $-1 -142.88319630199072 24.075710157743657 100.12124005321024 0 1 0 -0.66913061440640931 0 0.74314481823134659 forward_v I I I I #
face $-1 $143 $144 $49 $-1 $145 forward single #
loop $-1 $146 $147 $63 #
cone-surface $-1 -58.111101972199471 26.555242068649846 10.735687546755322 0.66913061440640931 0 -0.74314481823134659 0.74314481823134659 0 0.66913061440640931 1 I I 0 1 1 forward I I I I #
face $-1 $148 $149 $50 $-1 $150 forward single #
loop $-1 $151 $152 $64 #
cone-surface $-1 -58.111101972199471 30.27453993500913 10.735687546755322 0.66913061440640931 0 -0.74314481823134659 0.74314481823134659 0 0.66913061440640931 1 I I 0 1 1 forward I I I I #
face $-1 $153 $154 $51 $-1 $155 forward single #
loop $-1 $156 $157 $65 #
cone-surface $-1 -58.111101972199471 33.993837801368414 10.735687546755322 0.66913061440640931 0 -0.74314481823134659 0.74314481823134659 0 0.66913061440640931 1 I I 0 1 1 forward I I I I #
face $-1 $158 $159 $52 $-1 $160 reversed single #
loop $-1 $-1 $161 $66 #
plane-surface $-1 67.138477589389794 -0.028237246741911193 178.43092465605915 0 -1 0 -0.73135370988377701 0 -0.68199835119979291 forward_v I I I I #
face $-1 $162 $163 $53 $-1 $164 forward single #
loop $-1 $165 $166 $67 #
cone-surface $-1 56.643470447155167 -4.9982998582948284 8.8898869615239455 -0.73135370988377701 0 -0.68199835119979291 0.68199835119979291 0 -0.73135370988377701 1 I I 0 1 1 forward I I I I #
face $-1 $167 $168 $54 $-1 $169 reversed single #
loop $-1 $-1 $170 $68 #
plane-surface $-1 67.138477589389794 24.793903827529725 178.43092465605915 0 -1 0 -0.73135370988377701 0 -0.68199835119979291 forward_v I I I I #
face $-1 $171 $172 $55 $-1 $173 forward single #
loop $-1 $174 $175 $69 #
cone-surface $-1 56.643470447155167 19.823841215976806 8.8898869615239455 -0.73135370988377701 0 -0.68199835119979291 0.68199835119979291 0 -0.73135370988377701 1 I I 0 1 1 forward I I I I #
face $-1 $176 $177 $42 $-1 $178 reversed single #
loop $-1 $-1 $179 $70 #
plane-surface $-1 0 0 -13.564616168331577 0 0 1 1 0 0 forward_v I I I I #
coedge $-1 $180 $181 $182 $183 forward $71 $-1 #
face $-1 $184 $185 $43 $-1 $186 reversed single #
loop $-1 $-1 $187 $73 #
plane-surface $-1 0 -21.647828354592626 10.258015880098034 0 -1 0 0 0 -1 forward_v I I I I #
coedge $-1 $188 $189 $190 $191 reversed $74 $-1 #
face $-1 $192 $193 $44 $-1 $194 forward single #
loop $-1 $-1 $195 $76 #
plane-surface $-1 -61.106601153599655 -15.448998577327153 9.2991320391558361 -0.66913061440640931 0 0.74314481823134659 0.74314481823134659 0 0.66913061440640931 forward_v I I I I #
coedge $-1 $196 $197 $198 $199 reversed $77 $-1 #
face $-1 $-1 $200 $45 $-1 $201 forward single #
loop $-1 $202 $203 $79 #
cone-surface $-1 -57.149687459846987 -19.168296443686437 9.6679285806512585 0.66913061440640931 0 -0.74314481823134659 0.3715724091156733 0 0.33456530720320465 1 I I -0.70710678118654746 0.70710678118654746 0.5 forward I I I I #
loop $-1 $-1 $204 $59 #
coedge $-1 $128 $128 $205 $206 reversed $80 $-1 #
face $-1 $-1 $207 $46 $-1 $208 forward single #
loop $-1 $209 $210 $82 #
cone-surface $-1 -57.149687459846987 -15.448998577327153 9.6679285806512585 0.66913061440640931 0 -0.74314481823134659 0.3715724091156733 0 0.33456530720320465 1 I I -0.70710678118654746 0.70710678118654746 0.5 forward I I I I #
loop $-1 $-1 $211 $60 #
coedge $-1 $133 $133 $212 $213 reversed $83 $-1 #
face $-1 $-1 $214 $47 $-1 $215 forward single #
loop $-1 $216 $217 $85 #
cone-surface $-1 -57.149687459846987 -11.729700710967869 9.6679285806512585 0.66913061440640931 0 -0.74314481823134659 0.3715724091156733 0 0.33456530720320465 1 I I -0.70710678118654746 0.70710678118654746 0.5 forward I I I I #
loop $-1 $-1 $218 $61 #
coedge $-1 $138 $138 $219 $220 reversed $86 $-1 #
face $-1 $221 $222 $48 $-1 $223 forward single #
loop $-1 $-1 $224 $88 #
plane-surface $-1 -61.106601153599655 30.27453993500913 9.2991320391558361 -0.66913061440640931 0 0.74314481823134659 0.74314481823134659 0 0.66913061440640931 forward_v I I I I #
coedge $-1 $225 $226 $227 $228 reversed $89 $-1 #
face $-1 $-1 $229 $49 $-1 $230 forward single #
loop $-1 $231 $232 $91 #
cone-surface $-1 -57.149687459846987 26.555242068649846 9.6679285806512585 0.66913061440640931 0 -0.74314481823134659 0.3715724091156733 0 0.33456530720320465 1 I I -0.70710678118654746 0.70710678118654746 0.5 forward I I I I #
loop $-1 $-1 $233 $63 #
coedge $-1 $147 $147 $234 $235 reversed $92 $-1 #
face $-1 $-1 $236 $50 $-1 $237 forward single #
loop $-1 $238 $239 $94 #
cone-surface $-1 -57.149687459846987 30.27453993500913 9.6679285806512585 0.66913061440640931 0 -0.74314481823134659 0.3715724091156733 0 0.33456530720320465 1 I I -0.70710678118654746 0.70710678118654746 0.5 forward I I I I #
loop $-1 $-1 $240 $64 #
coedge $-1 $152 $152 $241 $242 reversed $95 $-1 #
face $-1 $-1 $243 $51 $-1 $244 forward single #
loop $-1 $245 $246 $97 #
cone-surface $-1 -57.149687459846987 33.993837801368414 9.6679285806512585 0.66913061440640931 0 -0.74314481823134659 0.3715724091156733 0 0.33456530720320465 1 I I -0.70710678118654746 0.70710678118654746 0.5 forward I I I I #
loop $-1 $-1 $247 $65 #
coedge $-1 $157 $157 $248 $249 reversed $98 $-1 #
face $-1 $250 $251 $52 $-1 $252 reversed single #
loop $-1 $-1 $253 $100 #
plane-surface $-1 -22.242601314756982 -4.9982998582948284 95.081722187702496 0.73135370988377701 0 0.68199835119979291 0.68199835119979291 0 -0.73135370988377701 forward_v I I I I #
coedge $-1 $254 $255 $256 $257 reversed $101 $-1 #
face $-1 $-1 $258 $53 $-1 $259 forward single #
loop $-1 $260 $261 $103 #
cone-surface $-1 55.481299472701039 -4.9982998582948284 7.8061450215043546 -0.73135370988377701 0 -0.68199835119979291 0.34099917559989645 0 -0.36567685494188851 1 I I -0.70710678118654746 0.70710678118654746 0.5 forward I I I I #
loop $-1 $-1 $262 $67 #
coedge $-1 $166 $166 $263 $264 reversed $104 $-1 #
face $-1 $265 $266 $54 $-1 $267 reversed single #
loop $-1 $-1 $268 $106 #
plane-surface $-1 -22.242601314756982 19.823841215976806 95.081722187702496 0.73135370988377701 0 0.68199835119979291 0.68199835119979291 0 -0.73135370988377701 forward_v I I I I #
coedge $-1 $269 $270 $271 $272 reversed $107 $-1 #
face $-1 $-1 $273 $55 $-1 $274 forward single #
loop $-1 $275 $276 $109 #
cone-surface $-1 55.481299472701039 19.823841215976806 7.8061450215043546 -0.73135370988377701 0 -0.68199835119979291 0.34099917559989645 0 -0.36567685494188851 1 I I -0.70710678118654746 0.70710678118654746 0.5 forward I I I I #
loop $-1 $-1 $277 $69 #
coedge $-1 $175 $175 $278 $279 reversed $110 $-1 #
face $-1 $280 $281 $42 $-1 $282 reversed single #
loop $-1 $-1 $283 $112 #
plane-surface $-1 0 -36.473369712274604 0 0 1 0 0 0 1 forward_v I I I I #
coedge $-1 $284 $285 $286 $287 forward $113 $-1 #
coedge $-1 $288 $115 $289 $290 forward $71 $-1 #
coedge $-1 $115 $288 $291 $292 forward $71 $-1 #
coedge $-1 $293 $294 $115 $183 reversed $295 $-1 #
edge $-1 $296 -36.473369712274604 $297 36.473369712274604 $182 $298 forward 7 unknown #
face $-1 $299 $300 $43 $-1 $301 reversed single #
loop $-1 $-1 $302 $116 #
plane-surface $-1 -61.106601153599655 0 0 1 0 0 0 0 -1 forward_v I I I I #
coedge $-1 $303 $304 $305 $306 reversed $117 $-1 #
coedge $-1 $307 $119 $308 $309 reversed $74 $-1 #
coedge $-1 $119 $307 $310 $311 forward $74 $-1 #
coedge $-1 $312 $313 $119 $191 forward $314 $-1 #
edge $-1 $315 -21.943070195557794 $316 -7.1175288378758186 $190 $317 forward 7 unknown #
face $-1 $318 $319 $44 $-1 $320 forward single #
loop $-1 $-1 $321 $120 #
plane-surface $-1 0 -21.647828354592626 10.258015880098034 0 -1 0 0 0 -1 forward_v I I I I #
coedge $-1 $322 $323 $324 $325 reversed $121 $-1 #
coedge $-1 $197 $123 $326 $327 reversed $77 $-1 #
coedge $-1 $123 $196 $322 $328 reversed $77 $-1 #
coedge $-1 $324 $329 $123 $199 forward $330 $-1 #
edge $-1 $331 36.496003858273546 $332 40.761487987449286 $198 $333 forward 7 unknown #
loop $-1 $-1 $205 $124 #
plane-surface $-1 -61.106601153599655 -15.448998577327153 9.2991320391558361 -0.66913061440640931 0 0.74314481823134659 0.74314481823134659 0 0.66913061440640931 forward_v I I I I #
loop $-1 $-1 $334 $79 #
coedge $-1 $203 $203 $204 $335 reversed $125 $-1 #
coedge $-1 $204 $204 $203 $335 forward $127 $-1 #
coedge $-1 $205 $205 $128 $206 forward $200 $-1 #
edge $-1 $336 0 $336 6.2831853071796004 $205 $337 forward 7 unknown #
loop $-1 $-1 $212 $129 #
plane-surface $-1 -61.106601153599655 -15.448998577327153 9.2991320391558361 -0.66913061440640931 0 0.74314481823134659 0.74314481823134659 0 0.66913061440640931 forward_v I I I I #
loop $-1 $-1 $338 $82 #
coedge $-1 $210 $210 $211 $339 reversed $130 $-1 #
coedge $-1 $211 $211 $210 $339 forward $132 $-1 #
coedge $-1 $212 $212 $133 $213 forward $207 $-1 #
edge $-1 $340 0 $340 6.2831853071796004 $212 $341 forward 7 unknown #
loop $-1 $-1 $219 $134 #
plane-surface $-1 -61.106601153599655 -15.448998577327153 9.2991320391558361 -0.66913061440640931 0 0.74314481823134659 0.74314481823134659 0 0.66913061440640931 forward_v I I I I #
loop $-1 $-1 $342 $85 #
coedge $-1 $217 $217 $218 $343 reversed $135 $-1 #
coedge $-1 $218 $218 $217 $343 forward $137 $-1 #
coedge $-1 $219 $219 $138 $220 forward $214 $-1 #
edge $-1 $344 0 $344 6.2831853071796004 $219 $345 forward 7 unknown #
face $-1 $346 $347 $48 $-1 $348 reversed single #
loop $-1 $-1 $227 $139 #
plane-surface $-1 0 0 13.564616168331577 0 0 1 1 0 0 forward_v I I I I #
coedge $-1 $349 $350 $351 $352 reversed $140 $-1 #
coedge $-1 $226 $142 $353 $354 reversed $89 $-1 #
coedge $-1 $142 $225 $349 $355 reversed $89 $-1 #
coedge $-1 $351 $356 $142 $228 forward $222 $-1 #
edge $-1 $357 10.334996997395706 $358 15.072296949897535 $227 $359 forward 7 unknown #
loop $-1 $-1 $234 $143 #
plane-surface $-1 -61.106601153599655 30.27453993500913 9.2991320391558361 -0.66913061440640931 0 0.74314481823134659 0.74314481823134659 0 0.66913061440640931 forward_v I I I I #
loop $-1 $-1 $360 $91 #
coedge $-1 $232 $232 $233 $361 reversed $144 $-1 #
coedge $-1 $233 $233 $232 $361 forward $146 $-1 #
coedge $-1 $234 $234 $147 $235 forward $229 $-1 #
edge $-1 $362 0 $362 6.2831853071796004 $234 $363 forward 7 unknown #
loop $-1 $-1 $241 $148 #
plane-surface $-1 -61.106601153599655 30.27453993500913 9.2991320391558361 -0.66913061440640931 0 0.74314481823134659 0.74314481823134659 0 0.66913061440640931 forward_v I I I I #
loop $-1 $-1 $364 $94 #
coedge $-1 $239 $239 $240 $365 reversed $149 $-1 #
coedge $-1 $240 $240 $239 $365 forward $151 $-1 #
coedge $-1 $241 $241 $152 $242 forward $236 $-1 #
edge $-1 $366 0 $366 6.2831853071796004 $241 $367 forward 7 unknown #
loop $-1 $-1 $248 $153 #
plane-surface $-1 -61.106601153599655 30.27453993500913 9.2991320391558361 -0.66913061440640931 0 0.74314481823134659 0.74314481823134659 0 0.66913061440640931 forward_v I I I I #
loop $-1 $-1 $368 $97 #
coedge $-1 $246 $246 $247 $369 reversed $154 $-1 #
coedge $-1 $247 $247 $246 $369 forward $156 $-1 #
coedge $-1 $248 $248 $157 $249 forward $243 $-1 #
edge $-1 $370 0 $370 6.2831853071796004 $248 $371 forward 7 unknown #
face $-1 $372 $373 $52 $-1 $374 reversed single #
loop $-1 $-1 $375 $158 #
plane-surface $-1 67.138477589389794 -9.9683624698477455 178.43092465605915 0 1 0 0.73135370988377701 0 0.68199835119979291 forward_v I I I I #
coedge $-1 $376 $377 $378 $379 reversed $159 $-1 #
coedge $-1 $255 $161 $380 $381 reversed $101 $-1 #
coedge $-1 $161 $254 $376 $382 reversed $101 $-1 #
coedge $-1 $378 $383 $161 $257 forward $384 $-1 #
edge $-1 $385 -27.537362358904758 $386 -20.204089185040218 $256 $387 forward 7 unknown #
loop $-1 $-1 $263 $162 #
plane-surface $-1 -22.242601314756982 -4.9982998582948284 95.081722187702496 0.73135370988377701 0 0.68199835119979291 0.68199835119979291 0 -0.73135370988377701 forward_v I I I I #
loop $-1 $-1 $388 $103 #
coedge $-1 $261 $261 $262 $389 reversed $163 $-1 #
coedge $-1 $262 $262 $261 $389 forward $165 $-1 #
coedge $-1 $263 $263 $166 $264 forward $258 $-1 #
edge $-1 $390 0 $390 6.2831853071796004 $263 $391 forward 7 unknown #
face $-1 $392 $393 $54 $-1 $394 reversed single #
loop $-1 $-1 $395 $167 #
plane-surface $-1 67.138477589389794 14.853778604423889 178.43092465605915 0 1 0 0.73135370988377701 0 0.68199835119979291 forward_v I I I I #
coedge $-1 $396 $397 $398 $399 reversed $168 $-1 #
coedge $-1 $270 $170 $400 $401 reversed $107 $-1 #
coedge $-1 $170 $269 $396 $402 reversed $107 $-1 #
coedge $-1 $398 $403 $170 $272 forward $404 $-1 #
edge $-1 $405 -27.537362358904758 $406 -20.204089185040218 $271 $407 forward 7 unknown #
loop $-1 $-1 $278 $171 #
plane-surface $-1 -22.242601314756982 19.823841215976806 95.081722187702496 0.73135370988377701 0 0.68199835119979291 0.68199835119979291 0 -0.73135370988377701 forward_v I I I I #
loop $-1 $-1 $408 $109 #
coedge $-1 $276 $276 $277 $409 reversed $172 $-1 #
coedge $-1 $277 $277 $276 $409 forward $174 $-1 #
coedge $-1 $278 $278 $175 $279 forward $273 $-1 #
edge $-1 $410 0 $410 6.2831853071796004 $278 $411 forward 7 unknown #
face $-1 $412 $413 $42 $-1 $414 reversed single #
loop $-1 $-1 $415 $176 #
plane-surface $-1 -61.106601153599655 0 0 1 0 0 0 0 -1 forward_v I I I I #
coedge $-1 $416 $291 $417 $418 forward $177 $-1 #
coedge $-1 $419 $179 $416 $420 forward $113 $-1 #
coedge $-1 $179 $419 $421 $422 forward $113 $-1 #
coedge $-1 $294 $293 $179 $287 reversed $295 $-1 #
edge $-1 $423 -36.473369712274604 $424 36.473369712274604 $286 $425 forward 7 unknown #
coedge $-1 $181 $180 $426 $427 forward $71 $-1 #
coedge $-1 $428 $429 $180 $290 reversed $413 $-1 #
edge $-1 $297 -61.106601153599655 $430 61.106601153599655 $289 $431 forward 7 unknown #
coedge $-1 $283 $432 $181 $292 reversed $177 $-1 #
edge $-1 $433 -61.106601153599655 $296 61.106601153599655 $291 $434 forward 7 unknown #
coedge $-1 $286 $182 $432 $435 forward $295 $-1 #
coedge $-1 $182 $286 $428 $436 reversed $295 $-1 #
loop $-1 $-1 $293 $412 #
vertex $-1 $183 $437 #
vertex $-1 $183 $438 #
straight-curve $-1 61.106601153599655 0 13.564616168331577 0 1 0 I I #
face $-1 $439 $440 $43 $-1 $441 forward single #
loop $-1 $-1 $308 $184 #
plane-surface $-1 0 -36.473369712274604 0 0 1 0 0 0 1 forward_v I I I I #
coedge $-1 $442 $443 $304 $444 forward $185 $-1 #
coedge $-1 $310 $187 $312 $445 reversed $117 $-1 #
coedge $-1 $187 $310 $302 $444 reversed $117 $-1 #
coedge $-1 $446 $447 $187 $306 forward $440 $-1 #
edge $-1 $448 -61.106601153599655 $449 61.106601153599655 $305 $450 forward 7 unknown #
coedge $-1 $189 $188 $442 $451 reversed $74 $-1 #
coedge $-1 $452 $453 $188 $309 forward $300 $-1 #
edge $-1 $454 -61.106601153599655 $315 61.106601153599655 $308 $455 forward 7 unknown #
coedge $-1 $304 $303 $189 $311 reversed $117 $-1 #
edge $-1 $456 -61.106601153599655 $316 61.106601153599655 $310 $457 forward 7 unknown #
coedge $-1 $458 $190 $303 $445 forward $314 $-1 #
coedge $-1 $190 $458 $452 $459 forward $314 $-1 #
loop $-1 $-1 $312 $439 #
vertex $-1 $309 $460 #
vertex $-1 $191 $461 #
straight-curve $-1 61.106601153599655 -14.530299516716807 6.9514155918644924 0 1 0 I I #
face $-1 $-1 $330 $44 $-1 $462 reversed single #
loop $-1 $-1 $463 $192 #
plane-surface $-1 0 0 13.564616168331577 0 0 1 1 0 0 forward_v I I I I #
coedge $-1 $464 $465 $323 $466 forward $193 $-1 #
coedge $-1 $467 $195 $197 $328 forward $121 $-1 #
coedge $-1 $195 $467 $321 $466 reversed $121 $-1 #
coedge $-1 $468 $198 $195 $325 forward $330 $-1 #
edge $-1 $332 1.5256695113981031 $469 13.92332906592905 $324 $470 forward 7 unknown #
coedge $-1 $471 $463 $196 $327 forward $319 $-1 #
edge $-1 $472 -15.072296949897535 $331 -10.334996997395706 $326 $473 forward 7 unknown #
edge $-1 $332 0 $472 6.3746659282054896 $197 $474 forward 7 unknown #
coedge $-1 $198 $468 $471 $475 reversed $330 $-1 #
loop $-1 $-1 $324 $318 #
vertex $-1 $475 $476 #
vertex $-1 $199 $477 #
straight-curve $-1 -61.106601153599655 -9.2501688000616795 50.060620026605122 0 0 -1 I I #
coedge $-1 $334 $334 $-1 $478 reversed $202 $-1 #
edge $-1 $479 0 $479 6.2831853071796004 $203 $480 forward 7 unknown #
vertex $-1 $206 $481 #
ellipse-curve $-1 -58.737951177348741 -19.168296443686437 11.431874103743706 -0.66913061440640931 0 0.74314481823134659 0.74314481823134659 0 0.66913061440640931 1 I I #
coedge $-1 $338 $338 $-1 $482 reversed $209 $-1 #
edge $-1 $483 0 $483 6.2831853071796004 $210 $484 forward 7 unknown #
vertex $-1 $213 $485 #
ellipse-curve $-1 -58.737951177348741 -15.448998577327153 11.431874103743706 -0.66913061440640931 0 0.74314481823134659 0.74314481823134659 0 0.66913061440640931 1 I I #
coedge $-1 $342 $342 $-1 $486 reversed $216 $-1 #
edge $-1 $487 0 $487 6.2831853071796004 $217 $488 forward 7 unknown #
vertex $-1 $220 $489 #
ellipse-curve $-1 -58.737951177348741 -11.729700710967869 11.431874103743706 -0.66913061440640931 0 0.74314481823134659 0.74314481823134659 0 0.66913061440640931 1 I I #
face $-1 $-1 $490 $48 $-1 $491 reversed single #
loop $-1 $-1 $492 $221 #
plane-surface $-1 0 36.473369712274604 0 0 -1 0 0 0 -1 forward_v I I I I #
coedge $-1 $493 $224 $226 $355 forward $140 $-1 #
coedge $-1 $224 $493 $492 $494 reversed $140 $-1 #
coedge $-1 $495 $227 $224 $352 forward $222 $-1 #
edge $-1 $358 8.938440190239092 $496 21.336099744770038 $351 $497 forward 7 unknown #
coedge $-1 $498 $499 $225 $354 forward $490 $-1 #
edge $-1 $500 -40.761487987449286 $357 -36.496003858273546 $353 $501 forward 7 unknown #
edge $-1 $358 -6.3746659282054896 $500 0 $226 $502 forward 7 unknown #
coedge $-1 $227 $495 $498 $503 forward $222 $-1 #
vertex $-1 $354 $504 #
vertex $-1 $228 $505 #
straight-curve $-1 -71.441598150995361 24.075710157743657 13.564616168331575 1 0 0 I I #
coedge $-1 $360 $360 $-1 $506 reversed $231 $-1 #
edge $-1 $507 0 $507 6.2831853071796004 $232 $508 forward 7 unknown #
vertex $-1 $235 $509 #
ellipse-curve $-1 -58.737951177348741 26.555242068649846 11.431874103743706 -0.66913061440640931 0 0.74314481823134659 0.74314481823134659 0 0.66913061440640931 1 I I #
coedge $-1 $364 $364 $-1 $510 reversed $238 $-1 #
edge $-1 $511 0 $511 6.2831853071796004 $239 $512 forward 7 unknown #
vertex $-1 $242 $513 #
ellipse-curve $-1 -58.737951177348741 30.27453993500913 11.431874103743706 -0.66913061440640931 0 0.74314481823134659 0.74314481823134659 0 0.66913061440640931 1 I I #
coedge $-1 $368 $368 $-1 $514 reversed $245 $-1 #
edge $-1 $515 0 $515 6.2831853071796004 $246 $516 forward 7 unknown #
vertex $-1 $249 $517 #
ellipse-curve $-1 -58.737951177348741 33.993837801368414 11.431874103743706 -0.66913061440640931 0 0.74314481823134659 0.74314481823134659 0 0.66913061440640931 1 I I #
face $-1 $-1 $384 $52 $-1 $518 forward single #
loop $-1 $-1 $519 $250 #
plane-surface $-1 61.106601153599655 0 0 -1 0 0 0 0 1 forward_v I I I I #
coedge $-1 $520 $521 $522 $523 reversed $251 $-1 #
coedge $-1 $524 $253 $255 $382 forward $159 $-1 #
coedge $-1 $253 $524 $520 $525 forward $159 $-1 #
coedge $-1 $522 $256 $253 $379 forward $384 $-1 #
edge $-1 $386 -2.470912682405503 $526 7.4692125407003314 $378 $527 forward 7 unknown #
coedge $-1 $528 $529 $254 $381 forward $373 $-1 #
edge $-1 $530 -83.514819044473853 $385 -75.650846159697991 $380 $531 forward 7 unknown #
edge $-1 $386 111.46057635001972 $530 122.21320230719928 $255 $532 forward 7 unknown #
coedge $-1 $256 $522 $528 $533 forward $384 $-1 #
loop $-1 $-1 $522 $372 #
vertex $-1 $381 $534 #
vertex $-1 $257 $535 #
straight-curve $-1 33.569238794694897 -0.028237246741911193 13.564616168331582 -1 0 0 I I #
coedge $-1 $388 $388 $-1 $536 reversed $260 $-1 #
edge $-1 $537 0 $537 6.2831853071796004 $261 $538 forward 7 unknown #
vertex $-1 $264 $539 #
ellipse-curve $-1 57.439964566667399 -4.9982998582948284 9.6326297259436355 0.73135370988377701 0 0.68199835119979291 0.68199835119979291 0 -0.73135370988377701 1 I I #
face $-1 $-1 $404 $54 $-1 $540 forward single #
loop $-1 $-1 $541 $265 #
plane-surface $-1 61.106601153599655 0 0 -1 0 0 0 0 1 forward_v I I I I #
coedge $-1 $542 $543 $544 $545 reversed $266 $-1 #
coedge $-1 $546 $268 $270 $402 forward $168 $-1 #
coedge $-1 $268 $546 $542 $547 forward $168 $-1 #
coedge $-1 $544 $271 $268 $399 forward $404 $-1 #
edge $-1 $406 -14.881983219541322 $548 -4.9418579964354858 $398 $549 forward 7 unknown #
coedge $-1 $550 $551 $269 $401 forward $393 $-1 #
edge $-1 $552 -83.514819044473853 $405 -75.650846159697991 $400 $553 forward 7 unknown #
edge $-1 $406 111.46057635001972 $552 122.21320230719928 $270 $554 forward 7 unknown #
coedge $-1 $271 $544 $550 $555 forward $404 $-1 #
loop $-1 $-1 $544 $392 #
vertex $-1 $401 $556 #
vertex $-1 $272 $557 #
straight-curve $-1 33.569238794694897 24.793903827529725 13.564616168331582 -1 0 0 I I #
coedge $-1 $408 $408 $-1 $558 reversed $275 $-1 #
edge $-1 $559 0 $559 6.2831853071796004 $276 $560 forward 7 unknown #
vertex $-1 $279 $561 #
ellipse-curve $-1 57.439964566667399 19.823841215976806 9.6326297259436355 0.73135370988377701 0 0.68199835119979291 0.68199835119979291 0 -0.73135370988377701 1 I I #
face $-1 $-1 $295 $42 $-1 $562 reversed single #
loop $-1 $-1 $428 $280 #
plane-surface $-1 0 36.473369712274604 0 0 -1 0 0 0 -1 forward_v I I I I #
coedge $-1 $563 $426 $429 $564 forward $281 $-1 #
coedge $-1 $432 $283 $284 $420 reversed $177 $-1 #
coedge $-1 $426 $563 $283 $418 reversed $281 $-1 #
edge $-1 $433 -13.564616168331577 $565 13.564616168331577 $417 $566 forward 7 unknown #
coedge $-1 $285 $284 $563 $567 forward $113 $-1 #
edge $-1 $424 -61.106601153599655 $565 61.106601153599655 $416 $568 forward 7 unknown #
coedge $-1 $429 $428 $285 $422 reversed $413 $-1 #
edge $-1 $569 -61.106601153599655 $423 61.106601153599655 $421 $570 forward 7 unknown #
vertex $-1 $287 $571 #
vertex $-1 $435 $572 #
straight-curve $-1 61.106601153599655 0 -13.564616168331577 0 -1 0 I I #
coedge $-1 $415 $417 $288 $427 reversed $281 $-1 #
edge $-1 $430 -36.473369712274604 $433 36.473369712274604 $426 $573 forward 7 unknown #
coedge $-1 $421 $289 $294 $436 forward $413 $-1 #
coedge $-1 $289 $421 $415 $564 reversed $413 $-1 #
vertex $-1 $290 $574 #
straight-curve $-1 0 36.473369712274604 13.564616168331577 -1 0 0 I I #
coedge $-1 $291 $416 $293 $435 reversed $177 $-1 #
vertex $-1 $427 $575 #
straight-curve $-1 0 -36.473369712274604 13.564616168331577 1 0 0 I I #
edge $-1 $296 -13.564616168331577 $424 13.564616168331577 $293 $576 forward 7 unknown #
edge $-1 $297 -13.564616168331577 $423 13.564616168331577 $294 $577 forward 7 unknown #
point $-1 61.106601153599655 -36.473369712274604 13.564616168331577 #
point $-1 61.106601153599655 36.473369712274604 13.564616168331577 #
face $-1 $-1 $314 $43 $-1 $578 reversed single #
loop $-1 $-1 $305 $299 #
plane-surface $-1 0 0 13.564616168331577 0 0 1 1 0 0 forward_v I I I I #
coedge $-1 $579 $302 $307 $451 forward $185 $-1 #
coedge $-1 $302 $579 $446 $580 reversed $185 $-1 #
edge $-1 $449 -8.4356082282825575 $456 -1.8224076518154755 $302 $581 forward 7 unknown #
edge $-1 $316 1.8224076518154755 $448 8.4356082282825575 $312 $582 forward 7 unknown #
coedge $-1 $583 $305 $443 $580 forward $440 $-1 #
coedge $-1 $305 $583 $458 $584 forward $440 $-1 #
vertex $-1 $445 $585 #
vertex $-1 $580 $586 #
straight-curve $-1 0 -21.647828354592626 13.564616168331577 -1 0 0 I I #
edge $-1 $456 7.1175288378758186 $454 21.943070195557794 $442 $587 forward 7 unknown #
coedge $-1 $588 $308 $313 $459 reversed $300 $-1 #
coedge $-1 $308 $588 $579 $589 forward $300 $-1 #
vertex $-1 $309 $590 #
straight-curve $-1 0 -36.473369712274604 6.9514155918644924 1 0 0 I I #
vertex $-1 $451 $591 #
straight-curve $-1 0 -21.647828354592626 6.9514155918644924 1 0 0 I I #
coedge $-1 $313 $312 $447 $584 reversed $314 $-1 #
edge $-1 $592 -13.564616168331577 $315 -6.9514155918644924 $313 $593 forward 7 unknown #
point $-1 61.106601153599655 -36.473369712274604 6.9514155918644924 #
point $-1 61.106601153599655 -21.647828354592626 6.9514155918644924 #
plane-surface $-1 -61.106601153599655 0 0 1 0 0 0 0 -1 forward_v I I I I #
coedge $-1 $326 $594 $467 $595 forward $319 $-1 #
coedge $-1 $465 $321 $594 $596 reversed $193 $-1 #
coedge $-1 $321 $464 $468 $597 reversed $193 $-1 #
edge $-1 $469 -23.026336270330617 $598 -16.651670342125133 $321 $599 forward 7 unknown #
coedge $-1 $323 $322 $463 $595 reversed $121 $-1 #
coedge $-1 $329 $324 $465 $597 forward $330 $-1 #
vertex $-1 $597 $600 #
straight-curve $-1 -61.106601153599655 -7.7244992886635764 9.2991320391558379 0 -1 0 I I #
coedge $-1 $594 $326 $329 $475 forward $319 $-1 #
vertex $-1 $327 $601 #
straight-curve $-1 -71.441598150995361 -9.2501688000616795 13.564616168331575 -1 0 0 I I #
straight-curve $-1 -61.106601153599655 -9.2501688000616795 9.2991320391558361 0.74314481823134659 0 0.66913061440640931 I I #
edge $-1 $331 9.2501688000616795 $602 21.647828354592626 $329 $603 forward 7 unknown #
point $-1 -61.106601153599655 -9.2501688000616795 13.564616168331577 #
point $-1 -61.106601153599655 -9.2501688000616795 9.2991320391558361 #
edge $-1 $604 1 $604 0 $334 $-1 forward 7 unknown #
vertex $-1 $335 $605 #
ellipse-curve $-1 -57.484252767050194 -19.168296443686437 10.039500989766932 -0.66913061440640931 0 0.74314481823134659 0.74314481823134659 0 0.66913061440640931 1 I I #
point $-1 -57.994806359117398 -19.168296443686437 12.101004718150119 #
edge $-1 $606 1 $606 0 $338 $-1 forward 7 unknown #
vertex $-1 $339 $607 #
ellipse-curve $-1 -57.484252767050194 -15.448998577327153 10.039500989766932 -0.66913061440640931 0 0.74314481823134659 0.74314481823134659 0 0.66913061440640931 1 I I #
point $-1 -57.994806359117398 -15.448998577327153 12.101004718150119 #
edge $-1 $608 1 $608 0 $342 $-1 forward 7 unknown #
vertex $-1 $343 $609 #
ellipse-curve $-1 -57.484252767050194 -11.729700710967869 10.039500989766932 -0.66913061440640931 0 0.74314481823134659 0.74314481823134659 0 0.66913061440640931 1 I I #
point $-1 -57.994806359117398 -11.729700710967869 12.101004718150119 #
loop $-1 $-1 $353 $346 #
plane-surface $-1 -61.106601153599655 0 0 1 0 0 0 0 -1 forward_v I I I I #
coedge $-1 $610 $611 $350 $494 forward $347 $-1 #
coedge $-1 $350 $349 $499 $612 reversed $140 $-1 #
edge $-1 $496 13.219694107904781 $613 19.59436003611027 $492 $614 forward 7 unknown #
coedge $-1 $356 $351 $611 $615 forward $222 $-1 #
vertex $-1 $615 $616 #
straight-curve $-1 -56.369301201097841 15.137269967504565 13.564616168331575 0 1 0 I I #
coedge $-1 $617 $353 $356 $503 reversed $490 $-1 #
coedge $-1 $353 $617 $493 $612 forward $490 $-1 #
vertex $-1 $354 $618 #
straight-curve $-1 -61.106601153599655 24.075710157743657 50.060620026605122 0 0 1 I I #
straight-curve $-1 -61.106601153599655 24.075710157743657 9.2991320391558361 -0.74314481823134659 0 -0.66913061440640931 I I #
edge $-1 $619 -36.473369712274604 $357 -24.075710157743657 $498 $620 forward 7 unknown #
point $-1 -61.106601153599655 24.075710157743657 13.564616168331577 #
point $-1 -56.369301201097826 24.075710157743657 13.564616168331577 #
edge $-1 $621 1 $621 0 $360 $-1 forward 7 unknown #
vertex $-1 $361 $622 #
ellipse-curve $-1 -57.484252767050194 26.555242068649846 10.039500989766932 -0.66913061440640931 0 0.74314481823134659 0.74314481823134659 0 0.66913061440640931 1 I I #
point $-1 -57.994806359117398 26.555242068649846 12.101004718150119 #
edge $-1 $623 1 $623 0 $364 $-1 forward 7 unknown #
vertex $-1 $365 $624 #
ellipse-curve $-1 -57.484252767050194 30.27453993500913 10.039500989766932 -0.66913061440640931 0 0.74314481823134659 0.74314481823134659 0 0.66913061440640931 1 I I #
point $-1 -57.994806359117398 30.27453993500913 12.101004718150119 #
edge $-1 $625 1 $625 0 $368 $-1 forward 7 unknown #
vertex $-1 $369 $626 #
ellipse-curve $-1 -57.484252767050194 33.993837801368414 10.039500989766932 -0.66913061440640931 0 0.74314481823134659 0.74314481823134659 0 0.66913061440640931 1 I I #
point $-1 -57.994806359117398 33.993837801368414 12.101004718150119 #
plane-surface $-1 0 0 13.564616168331577 0 0 1 1 0 0 forward_v I I I I #
coedge $-1 $529 $528 $521 $627 forward $373 $-1 #
coedge $-1 $521 $375 $377 $525 reversed $251 $-1 #
coedge $-1 $375 $520 $519 $627 reversed $251 $-1 #
coedge $-1 $383 $378 $375 $523 forward $384 $-1 #
edge $-1 $526 20.204089185040218 $628 27.537362358904758 $522 $629 forward 7 unknown #
coedge $-1 $377 $376 $529 $630 reversed $159 $-1 #
edge $-1 $631 -122.21320230719928 $526 -111.46057635001972 $520 $632 forward 7 unknown #
vertex $-1 $379 $633 #
straight-curve $-1 53.773327979735114 -2.4991499291474142 13.564616168331575 0 -1 0 I I #
coedge $-1 $519 $380 $383 $533 reversed $373 $-1 #
coedge $-1 $380 $519 $524 $630 forward $373 $-1 #
vertex $-1 $381 $634 #
straight-curve $-1 61.106601153599655 -0.028237246741911193 89.215462328029574 0 0 1 I I #
straight-curve $-1 -22.242601314756982 -0.028237246741911193 95.081722187702496 0.68199835119979291 0 -0.73135370988377701 I I #
edge $-1 $628 -9.9683624698477455 $385 -0.028237246741911193 $528 $635 forward 7 unknown #
point $-1 61.106601153599655 -0.028237246741911193 13.564616168331577 #
point $-1 53.773327979735114 -0.028237246741911193 13.564616168331582 #
edge $-1 $636 1 $636 0 $388 $-1 forward 7 unknown #
vertex $-1 $389 $637 #
ellipse-curve $-1 55.846976327642928 -4.9982998582948284 8.1471441971042502 0.73135370988377701 0 0.68199835119979291 0.68199835119979291 0 -0.73135370988377701 1 I I #
point $-1 58.121962917867194 -4.9982998582948284 8.9012760160598656 #
plane-surface $-1 0 0 13.564616168331577 0 0 1 1 0 0 forward_v I I I I #
coedge $-1 $551 $550 $543 $638 forward $393 $-1 #
coedge $-1 $543 $395 $397 $547 reversed $266 $-1 #
coedge $-1 $395 $542 $541 $638 reversed $266 $-1 #
coedge $-1 $403 $398 $395 $545 forward $404 $-1 #
edge $-1 $548 20.204089185040218 $639 27.537362358904758 $544 $640 forward 7 unknown #
coedge $-1 $397 $396 $551 $641 reversed $168 $-1 #
edge $-1 $642 -122.21320230719928 $548 -111.46057635001972 $542 $643 forward 7 unknown #
vertex $-1 $399 $644 #
straight-curve $-1 53.773327979735114 9.911920607988403 13.564616168331575 0 -1 0 I I #
coedge $-1 $541 $400 $403 $555 reversed $393 $-1 #
coedge $-1 $400 $541 $546 $641 forward $393 $-1 #
vertex $-1 $401 $645 #
straight-curve $-1 61.106601153599655 24.793903827529725 89.215462328029574 0 0 1 I I #
straight-curve $-1 -22.242601314756982 24.793903827529725 95.081722187702496 0.68199835119979291 0 -0.73135370988377701 I I #
edge $-1 $639 14.853778604423889 $405 24.793903827529725 $550 $646 forward 7 unknown #
point $-1 61.106601153599655 24.793903827529725 13.564616168331577 #
point $-1 53.773327979735114 24.793903827529725 13.564616168331582 #
edge $-1 $647 1 $647 0 $408 $-1 forward 7 unknown #
vertex $-1 $409 $648 #
ellipse-curve $-1 55.846976327642928 19.823841215976806 8.1471441971042502 0.73135370988377701 0 0.68199835119979291 0.68199835119979291 0 -0.73135370988377701 1 I I #
point $-1 58.121962917867194 19.823841215976806 8.9012760160598656 #
plane-surface $-1 61.106601153599655 0 0 -1 0 0 0 0 1 forward_v I I I I #
coedge $-1 $417 $415 $419 $567 reversed $281 $-1 #
edge $-1 $430 -13.564616168331577 $569 13.564616168331577 $429 $649 forward 7 unknown #
vertex $-1 $567 $650 #
straight-curve $-1 -61.106601153599655 -36.473369712274604 0 0 0 -1 I I #
edge $-1 $565 -36.473369712274604 $569 36.473369712274604 $563 $651 forward 7 unknown #
straight-curve $-1 0 -36.473369712274604 -13.564616168331577 -1 0 0 I I #
vertex $-1 $422 $652 #
straight-curve $-1 0 36.473369712274604 -13.564616168331577 1 0 0 I I #
point $-1 61.106601153599655 36.473369712274604 -13.564616168331577 #
point $-1 61.106601153599655 -36.473369712274604 -13.564616168331577 #
straight-curve $-1 -61.106601153599655 0 13.564616168331577 0 -1 0 I I #
point $-1 -61.106601153599655 36.473369712274604 13.564616168331577 #
point $-1 -61.106601153599655 -36.473369712274604 13.564616168331577 #
straight-curve $-1 61.106601153599655 -36.473369712274604 0 0 0 -1 I I #
straight-curve $-1 61.106601153599655 36.473369712274604 0 0 0 -1 I I #
plane-surface $-1 61.106601153599655 0 0 -1 0 0 0 0 1 forward_v I I I I #
coedge $-1 $443 $442 $453 $589 reversed $185 $-1 #
edge $-1 $449 21.647828354592626 $653 36.473369712274604 $443 $654 forward 7 unknown #
straight-curve $-1 -61.106601153599655 -21.647828354592626 5.1290079400490169 0 0 -1 I I #
straight-curve $-1 61.106601153599655 -21.647828354592626 5.1290079400490169 0 0 1 I I #
coedge $-1 $447 $446 $588 $655 forward $440 $-1 #
edge $-1 $592 -36.473369712274604 $448 -21.647828354592626 $458 $656 forward 7 unknown #
point $-1 61.106601153599655 -21.647828354592626 13.564616168331575 #
point $-1 -61.106601153599655 -21.647828354592626 13.564616168331575 #
straight-curve $-1 -61.106601153599655 -14.530299516716807 6.9514155918644924 0 -1 0 I I #
coedge $-1 $453 $452 $583 $655 reversed $300 $-1 #
edge $-1 $653 -13.564616168331577 $454 -6.9514155918644924 $579 $657 forward 7 unknown #
point $-1 -61.106601153599655 -36.473369712274604 6.9514155918644924 #
point $-1 -61.106601153599655 -21.647828354592626 6.9514155918644924 #
vertex $-1 $584 $658 #
straight-curve $-1 61.106601153599655 -36.473369712274604 0 0 0 -1 I I #
coedge $-1 $463 $471 $464 $596 forward $319 $-1 #
edge $-1 $598 -13.92332906592905 $472 -1.5256695113981031 $463 $659 forward 7 unknown #
edge $-1 $602 -61.106601153599655 $598 -56.369301201097834 $594 $660 forward 7 unknown #
edge $-1 $469 4.1701240991068191 $602 8.4356082282825575 $468 $661 forward 7 unknown #
vertex $-1 $466 $662 #
straight-curve $-1 -43.994698671450948 -21.647828354592626 24.706758575250753 0.74314481823134659 0 0.66913061440640931 I I #
point $-1 -61.106601153599655 -21.647828354592626 9.2991320391558361 #
point $-1 -56.369301201097826 -9.2501688000616795 13.564616168331577 #
vertex $-1 $597 $663 #
straight-curve $-1 -61.106601153599655 0 13.564616168331577 0 -1 0 I I #
vertex $-1 $478 $664 #
point $-1 -56.741107948818843 -19.168296443686437 10.708631604173341 #
vertex $-1 $482 $665 #
point $-1 -56.741107948818843 -15.448998577327153 10.708631604173341 #
vertex $-1 $486 $666 #
point $-1 -56.741107948818843 -11.729700710967869 10.708631604173341 #
coedge $-1 $611 $492 $617 $667 reversed $347 $-1 #
coedge $-1 $492 $610 $495 $615 reversed $347 $-1 #
edge $-1 $613 -21.336099744770038 $500 -8.938440190239092 $499 $668 forward 7 unknown #
vertex $-1 $494 $669 #
straight-curve $-1 -46.545154026204926 36.473369712274604 22.410318209018694 -0.74314481823134659 0 -0.66913061440640931 I I #
edge $-1 $496 56.369301201097826 $619 61.106601153599655 $611 $670 forward 7 unknown #
point $-1 -56.369301201097826 36.473369712274604 13.564616168331577 #
coedge $-1 $499 $498 $610 $667 forward $490 $-1 #
point $-1 -61.106601153599655 24.075710157743657 9.2991320391558361 #
vertex $-1 $615 $671 #
straight-curve $-1 -61.106601153599655 0 13.564616168331577 0 -1 0 I I #
vertex $-1 $506 $672 #
point $-1 -56.741107948818843 26.555242068649846 10.708631604173341 #
vertex $-1 $510 $673 #
point $-1 -56.741107948818843 30.27453993500913 10.708631604173341 #
vertex $-1 $514 $674 #
point $-1 -56.741107948818843 33.993837801368414 10.708631604173341 #
edge $-1 $628 75.650846159697991 $631 83.514819044473853 $519 $675 forward 7 unknown #
vertex $-1 $533 $676 #
straight-curve $-1 33.569238794694897 -9.9683624698477455 13.564616168331582 1 0 0 I I #
edge $-1 $631 -7.4692125407003314 $530 2.470912682405503 $529 $677 forward 7 unknown #
vertex $-1 $630 $678 #
straight-curve $-1 -22.242601314756982 -9.9683624698477455 95.081722187702496 -0.68199835119979291 0 0.73135370988377701 I I #
point $-1 53.773327979735114 -9.9683624698477455 13.564616168331582 #
point $-1 61.106601153599655 -0.028237246741911193 5.7006432835557206 #
straight-curve $-1 61.106601153599655 0 13.564616168331577 0 1 0 I I #
vertex $-1 $536 $679 #
point $-1 56.528974678842722 -4.9982998582948284 7.4157904872204741 #
edge $-1 $639 75.650846159697991 $642 83.514819044473853 $541 $680 forward 7 unknown #
vertex $-1 $555 $681 #
straight-curve $-1 33.569238794694897 14.853778604423889 13.564616168331582 1 0 0 I I #
edge $-1 $642 4.9418579964354858 $552 14.881983219541322 $551 $682 forward 7 unknown #
vertex $-1 $641 $683 #
straight-curve $-1 -22.242601314756982 14.853778604423889 95.081722187702496 -0.68199835119979291 0 0.73135370988377701 I I #
point $-1 53.773327979735114 14.853778604423889 13.564616168331582 #
point $-1 61.106601153599655 24.793903827529725 5.7006432835557206 #
straight-curve $-1 61.106601153599655 0 13.564616168331577 0 1 0 I I #
vertex $-1 $558 $684 #
point $-1 56.528974678842722 19.823841215976806 7.4157904872204741 #
straight-curve $-1 -61.106601153599655 36.473369712274604 0 0 0 -1 I I #
point $-1 -61.106601153599655 -36.473369712274604 -13.564616168331577 #
straight-curve $-1 -61.106601153599655 0 -13.564616168331577 0 1 0 I I #
point $-1 -61.106601153599655 36.473369712274604 -13.564616168331577 #
vertex $-1 $580 $685 #
straight-curve $-1 -61.106601153599655 0 13.564616168331577 0 -1 0 I I #
edge $-1 $653 -61.106601153599655 $592 61.106601153599655 $588 $686 forward 7 unknown #
straight-curve $-1 61.106601153599655 0 13.564616168331577 0 1 0 I I #
straight-curve $-1 -61.106601153599655 -36.473369712274604 0 0 0 -1 I I #
point $-1 61.106601153599655 -36.473369712274604 13.564616168331577 #
straight-curve $-1 -56.369301201097841 -7.7244992886635764 13.564616168331575 0 1 0 I I #
straight-curve $-1 0 -21.647828354592626 13.564616168331577 1 0 0 I I #
straight-curve $-1 -61.106601153599655 -21.647828354592626 5.1290079400490169 0 0 1 I I #
point $-1 -56.369301201097834 -21.647828354592626 13.564616168331577 #
point $-1 -61.106601153599655 -21.647828354592626 13.564616168331575 #
point $-1 -56.815122152643781 -19.168296443686437 9.2963561715355851 #
point $-1 -56.815122152643781 -15.448998577327153 9.2963561715355851 #
point $-1 -56.815122152643781 -11.729700710967869 9.2963561715355851 #
edge $-1 $619 -13.564616168331577 $613 -9.2991320391558361 $610 $687 forward 7 unknown #
straight-curve $-1 -61.106601153599655 15.137269967504565 9.2991320391558379 0 -1 0 I I #
point $-1 -61.106601153599655 36.473369712274604 9.2991320391558361 #
straight-curve $-1 0 36.473369712274604 13.564616168331577 -1 0 0 I I #
point $-1 -61.106601153599655 36.473369712274604 13.564616168331577 #
point $-1 -56.815122152643781 26.555242068649846 9.2963561715355851 #
point $-1 -56.815122152643781 30.27453993500913 9.2963561715355851 #
point $-1 -56.815122152643781 33.993837801368414 9.2963561715355851 #
straight-curve $-1 61.106601153599655 -9.9683624698477455 89.215462328029574 0 0 -1 I I #
point $-1 61.106601153599655 -9.9683624698477455 13.564616168331577 #
straight-curve $-1 61.106601153599648 -2.4991499291474142 5.7006432835557277 0 1 0 I I #
point $-1 61.106601153599655 -9.9683624698477455 5.7006432835557206 #
point $-1 55.115622617759151 -4.9982998582948284 7.4651458459044582 #
straight-curve $-1 61.106601153599655 14.853778604423889 89.215462328029574 0 0 -1 I I #
point $-1 61.106601153599655 14.853778604423889 13.564616168331577 #
straight-curve $-1 61.106601153599648 9.911920607988403 5.7006432835557277 0 1 0 I I #
point $-1 61.106601153599655 14.853778604423889 5.7006432835557206 #
point $-1 55.115622617759151 19.823841215976806 7.4651458459044582 #
point $-1 -61.106601153599655 -36.473369712274604 13.564616168331577 #
straight-curve $-1 0 -36.473369712274604 13.564616168331577 1 0 0 I I #
straight-curve $-1 -61.106601153599655 36.473369712274604 0 0 0 -1 I I #
End-of-ACIS-data 