500 0 14 0           
7 Unknown 11 ACIS 5.0 NT 24 Fri Mar 26 01:56:10 1999 
-1 9.9999999999999995e-007 1e-010 
body $-1 $14 $-1 $15 #
body $-1 $16 $-1 $17 #
body $-1 $18 $-1 $19 #
body $-1 $20 $-1 $21 #
body $-1 $22 $-1 $23 #
body $-1 $24 $-1 $25 #
body $-1 $26 $-1 $27 #
body $-1 $28 $-1 $29 #
body $-1 $30 $-1 $31 #
body $-1 $32 $-1 $33 #
body $-1 $34 $-1 $35 #
body $-1 $36 $-1 $37 #
body $-1 $38 $-1 $39 #
body $-1 $40 $-1 $41 #
lump $-1 $-1 $42 $0 #
transform $-1 1 0 0 0 1 0 0 0 1 77.238685262611767 42.727723152690388 21.055207989802579 1 rotate no_reflect no_shear #
lump $-1 $-1 $43 $1 #
transform $-1 1 0 0 0 1 0 0 0 1 77.238685262611767 42.727723152690388 21.055207989802579 1 rotate no_reflect no_shear #
lump $-1 $-1 $44 $2 #
transform $-1 1 0 0 0 1 0 0 0 1 77.238685262611767 42.727723152690388 21.055207989802579 1 rotate no_reflect no_shear #
lump $-1 $-1 $45 $3 #
transform $-1 1 0 0 0 1 0 0 0 1 77.238685262611767 42.727723152690388 21.055207989802579 1 rotate no_reflect no_shear #
lump $-1 $-1 $46 $4 #
transform $-1 1 0 0 0 1 0 0 0 1 77.238685262611767 42.727723152690388 21.055207989802579 1 rotate no_reflect no_shear #
lump $-1 $-1 $47 $5 #
transform $-1 1 0 0 0 1 0 0 0 1 77.238685262611767 42.727723152690388 21.055207989802579 1 rotate no_reflect no_shear #
lump $-1 $-1 $48 $6 #
transform $-1 1 0 0 0 1 0 0 0 1 77.238685262611767 42.727723152690388 21.055207989802579 1 rotate no_reflect no_shear #
lump $-1 $-1 $49 $7 #
transform $-1 1 0 0 0 1 0 0 0 1 77.238685262611767 42.727723152690388 21.055207989802579 1 rotate no_reflect no_shear #
lump $-1 $-1 $50 $8 #
transform $-1 1 0 0 0 1 0 0 0 1 77.238685262611767 42.727723152690388 21.055207989802579 1 rotate no_reflect no_shear #
lump $-1 $-1 $51 $9 #
transform $-1 1 0 0 0 1 0 0 0 1 77.238685262611767 42.727723152690388 21.055207989802579 1 rotate no_reflect no_shear #
lump $-1 $-1 $52 $10 #
transform $-1 1 0 0 0 1 0 0 0 1 77.238685262611767 42.727723152690388 21.055207989802579 1 rotate no_reflect no_shear #
lump $-1 $-1 $53 $11 #
transform $-1 1 0 0 0 1 0 0 0 1 77.238685262611767 42.727723152690388 21.055207989802579 1 rotate no_reflect no_shear #
lump $-1 $-1 $54 $12 #
transform $-1 1 0 0 0 1 0 0 0 1 77.238685262611767 42.727723152690388 21.055207989802579 1 rotate no_reflect no_shear #
lump $-1 $-1 $55 $13 #
transform $-1 1 0 0 0 1 0 0 0 1 77.238685262611767 42.727723152690388 21.055207989802579 1 rotate no_reflect no_shear #
shell $-1 $-1 $-1 $56 $-1 $14 #
shell $-1 $-1 $-1 $57 $-1 $16 #
shell $-1 $-1 $-1 $58 $-1 $18 #
shell $-1 $-1 $-1 $59 $-1 $20 #
shell $-1 $-1 $-1 $60 $-1 $22 #
shell $-1 $-1 $-1 $61 $-1 $24 #
shell $-1 $-1 $-1 $62 $-1 $26 #
shell $-1 $-1 $-1 $63 $-1 $28 #
shell $-1 $-1 $-1 $64 $-1 $30 #
shell $-1 $-1 $-1 $65 $-1 $32 #
shell $-1 $-1 $-1 $66 $-1 $34 #
shell $-1 $-1 $-1 $67 $-1 $36 #
shell $-1 $-1 $-1 $68 $-1 $38 #
shell $-1 $-1 $-1 $69 $-1 $40 #
face $-1 $70 $71 $42 $-1 $72 forward single #
face $-1 $73 $74 $43 $-1 $75 forward single #
face $-1 $76 $77 $44 $-1 $78 forward single #
face $-1 $79 $80 $45 $-1 $81 reversed single #
face $-1 $82 $83 $46 $-1 $84 forward single #
face $-1 $85 $86 $47 $-1 $87 forward single #
face $-1 $88 $89 $48 $-1 $90 reversed single #
face $-1 $91 $92 $49 $-1 $93 forward single #
face $-1 $94 $95 $50 $-1 $96 forward single #
face $-1 $97 $98 $51 $-1 $99 forward single #
face $-1 $100 $101 $52 $-1 $102 reversed single #
face $-1 $103 $104 $53 $-1 $105 forward single #
face $-1 $106 $107 $54 $-1 $108 forward single #
face $-1 $109 $110 $55 $-1 $111 forward single #
face $-1 $112 $113 $42 $-1 $114 reversed single #
loop $-1 $-1 $115 $56 #
plane-surface $-1 0 0 21.055207989802579 0 0 1 1 0 0 forward_v I I I I #
face $-1 $116 $117 $43 $-1 $118 reversed single #
loop $-1 $-1 $119 $57 #
plane-surface $-1 0 -42.727723152690388 0 0 1 0 0 0 1 forward_v I I I I #
face $-1 $120 $121 $44 $-1 $122 reversed single #
loop $-1 $-1 $123 $58 #
plane-surface $-1 0 42.727723152690388 0 0 -1 0 0 0 -1 forward_v I I I I #
face $-1 $124 $125 $45 $-1 $126 reversed single #
loop $-1 $-1 $127 $59 #
plane-surface $-1 -197.29015118112568 -22.599933170247908 112.06348965016265 0 1 0 -0.77714596973225614 0 0.62932038083071107 forward_v I I I I #
face $-1 $128 $129 $46 $-1 $130 forward single #
loop $-1 $131 $132 $60 #
cone-surface $-1 -73.201020562688512 -18.306665931299019 16.717110318358287 0.77714596973225614 0 -0.62932038083071107 0.9439805712460666 0 1.1657189545983841 1 I I 0 1 1.5 forward I I I I #
face $-1 $133 $134 $47 $-1 $135 forward single #
loop $-1 $136 $137 $61 #
cone-surface $-1 -73.201020562688512 -11.86676507287568 16.717110318358287 0.77714596973225614 0 -0.62932038083071107 0.9439805712460666 0 1.1657189545983841 1 I I 0 1 1.5 forward I I I I #
face $-1 $138 $139 $48 $-1 $140 reversed single #
loop $-1 $-1 $141 $62 #
plane-surface $-1 111.41398606046627 -10.725510173004031 220.33511401811356 0 -1 0 -0.80901700255871778 0 -0.5877852410284794 forward_v I I I I #
face $-1 $142 $143 $49 $-1 $144 forward single #
loop $-1 $145 $146 $63 #
cone-surface $-1 70.842223882373247 -20.420037773483102 12.514099516902327 -0.80901700255871778 0 -0.5877852410284794 0.14694631025711985 0 -0.20225425063967944 1 I I 0 1 0.25 forward I I I I #
face $-1 $147 $148 $50 $-1 $149 forward single #
loop $-1 $150 $151 $64 #
cone-surface $-1 70.842223882373247 -16.78458992330345 12.514099516902327 -0.80901700255871778 0 -0.5877852410284794 0.14694631025711985 0 -0.20225425063967944 1 I I 0 1 0.25 forward I I I I #
face $-1 $152 $153 $51 $-1 $154 forward single #
loop $-1 $155 $156 $65 #
cone-surface $-1 70.842223882373247 -13.149142073123798 12.514099516902327 -0.80901700255871778 0 -0.5877852410284794 0.14694631025711985 0 -0.20225425063967944 1 I I 0 1 0.25 forward I I I I #
face $-1 $157 $158 $52 $-1 $159 reversed single #
loop $-1 $-1 $160 $66 #
plane-surface $-1 111.41398606046627 22.843669673602868 220.33511401811356 0 -1 0 -0.80901700255871778 0 -0.5877852410284794 forward_v I I I I #
face $-1 $161 $162 $53 $-1 $163 forward single #
loop $-1 $164 $165 $67 #
cone-surface $-1 70.842223882373247 13.149142073123798 12.514099516902327 -0.80901700255871778 0 -0.5877852410284794 0.14694631025711985 0 -0.20225425063967944 1 I I 0 1 0.25 forward I I I I #
face $-1 $166 $167 $54 $-1 $168 forward single #
loop $-1 $169 $170 $68 #
cone-surface $-1 70.842223882373247 16.78458992330345 12.514099516902327 -0.80901700255871778 0 -0.5877852410284794 0.14694631025711985 0 -0.20225425063967944 1 I I 0 1 0.25 forward I I I I #
face $-1 $171 $172 $55 $-1 $173 forward single #
loop $-1 $174 $175 $69 #
cone-surface $-1 70.842223882373247 20.420037773483102 12.514099516902327 -0.80901700255871778 0 -0.5877852410284794 0.14694631025711985 0 -0.20225425063967944 1 I I 0 1 0.25 forward I I I I #
face $-1 $176 $177 $42 $-1 $178 reversed single #
loop $-1 $-1 $179 $70 #
plane-surface $-1 0 0 -21.055207989802579 0 0 1 1 0 0 forward_v I I I I #
coedge $-1 $180 $181 $182 $183 forward $71 $-1 #
face $-1 $184 $185 $43 $-1 $186 reversed single #
loop $-1 $-1 $187 $73 #
plane-surface $-1 0 0 -21.055207989802579 0 0 1 1 0 0 forward_v I I I I #
coedge $-1 $188 $189 $190 $191 forward $74 $-1 #
face $-1 $192 $193 $44 $-1 $194 reversed single #
loop $-1 $-1 $195 $76 #
plane-surface $-1 0 0 -21.055207989802579 0 0 1 1 0 0 forward_v I I I I #
coedge $-1 $196 $197 $198 $199 forward $77 $-1 #
face $-1 $200 $201 $45 $-1 $202 reversed single #
loop $-1 $-1 $203 $79 #
plane-surface $-1 -77.238685262611796 -15.086715502087351 14.847732001502109 -0.77714596973225614 0 0.62932038083071107 0.62932038083071107 0 0.77714596973225614 forward_v I I I I #
coedge $-1 $204 $205 $206 $207 reversed $80 $-1 #
face $-1 $-1 $208 $46 $-1 $209 forward single #
loop $-1 $210 $211 $82 #
cone-surface $-1 -71.093853788773828 -18.306665931299019 15.010760355441189 0.77714596973225614 0 -0.62932038083071107 0.4719902856230333 0 0.58285947729919207 1 I I -0.70710678118654757 0.70710678118654757 0.75 forward I I I I #
loop $-1 $-1 $212 $60 #
coedge $-1 $132 $132 $213 $214 reversed $83 $-1 #
face $-1 $-1 $215 $47 $-1 $216 forward single #
loop $-1 $217 $218 $85 #
cone-surface $-1 -71.093853788773828 -11.86676507287568 15.010760355441189 0.77714596973225614 0 -0.62932038083071107 0.4719902856230333 0 0.58285947729919207 1 I I -0.70710678118654757 0.70710678118654757 0.75 forward I I I I #
loop $-1 $-1 $219 $61 #
coedge $-1 $137 $137 $220 $221 reversed $86 $-1 #
face $-1 $222 $223 $48 $-1 $224 reversed single #
loop $-1 $-1 $225 $88 #
plane-surface $-1 -13.560833205002496 -16.78458992330345 129.53559555049932 0.80901700255871778 0 0.5877852410284794 0.5877852410284794 0 -0.80901700255871778 forward_v I I I I #
coedge $-1 $226 $227 $228 $229 reversed $89 $-1 #
face $-1 $-1 $230 $49 $-1 $231 forward single #
loop $-1 $232 $233 $91 #
cone-surface $-1 70.336588255774046 -20.420037773483102 12.146733741259528 -0.80901700255871778 0 -0.5877852410284794 0.073473155128559925 0 -0.10112712531983972 1 I I -0.70710678118654746 0.70710678118654746 0.125 forward I I I I #
loop $-1 $-1 $234 $63 #
coedge $-1 $146 $146 $235 $236 reversed $92 $-1 #
face $-1 $-1 $237 $50 $-1 $238 forward single #
loop $-1 $239 $240 $94 #
cone-surface $-1 70.336588255774046 -16.78458992330345 12.146733741259528 -0.80901700255871778 0 -0.5877852410284794 0.073473155128559925 0 -0.10112712531983972 1 I I -0.70710678118654746 0.70710678118654746 0.125 forward I I I I #
loop $-1 $-1 $241 $64 #
coedge $-1 $151 $151 $242 $243 reversed $95 $-1 #
face $-1 $-1 $244 $51 $-1 $245 forward single #
loop $-1 $246 $247 $97 #
cone-surface $-1 70.336588255774046 -13.149142073123798 12.146733741259528 -0.80901700255871778 0 -0.5877852410284794 0.073473155128559925 0 -0.10112712531983972 1 I I -0.70710678118654746 0.70710678118654746 0.125 forward I I I I #
loop $-1 $-1 $248 $65 #
coedge $-1 $156 $156 $249 $250 reversed $98 $-1 #
face $-1 $251 $252 $52 $-1 $253 reversed single #
loop $-1 $-1 $254 $100 #
plane-surface $-1 -13.560833205002496 16.78458992330345 129.53559555049932 0.80901700255871778 0 0.5877852410284794 0.5877852410284794 0 -0.80901700255871778 forward_v I I I I #
coedge $-1 $255 $256 $257 $258 reversed $101 $-1 #
face $-1 $-1 $259 $53 $-1 $260 forward single #
loop $-1 $261 $262 $103 #
cone-surface $-1 70.336588255774046 13.149142073123798 12.146733741259528 -0.80901700255871778 0 -0.5877852410284794 0.073473155128559925 0 -0.10112712531983972 1 I I -0.70710678118654746 0.70710678118654746 0.125 forward I I I I #
loop $-1 $-1 $263 $67 #
coedge $-1 $165 $165 $264 $265 reversed $104 $-1 #
face $-1 $-1 $266 $54 $-1 $267 forward single #
loop $-1 $268 $269 $106 #
cone-surface $-1 70.336588255774046 16.78458992330345 12.146733741259528 -0.80901700255871778 0 -0.5877852410284794 0.073473155128559925 0 -0.10112712531983972 1 I I -0.70710678118654746 0.70710678118654746 0.125 forward I I I I #
loop $-1 $-1 $270 $68 #
coedge $-1 $170 $170 $271 $272 reversed $107 $-1 #
face $-1 $-1 $273 $55 $-1 $274 forward single #
loop $-1 $275 $276 $109 #
cone-surface $-1 70.336588255774046 20.420037773483102 12.146733741259528 -0.80901700255871778 0 -0.5877852410284794 0.073473155128559925 0 -0.10112712531983972 1 I I -0.70710678118654746 0.70710678118654746 0.125 forward I I I I #
loop $-1 $-1 $277 $69 #
coedge $-1 $175 $175 $278 $279 reversed $110 $-1 #
face $-1 $280 $281 $42 $-1 $282 reversed single #
loop $-1 $-1 $283 $112 #
plane-surface $-1 0 -42.727723152690388 0 0 1 0 0 0 1 forward_v I I I I #
coedge $-1 $284 $285 $286 $287 forward $113 $-1 #
coedge $-1 $288 $115 $289 $290 forward $71 $-1 #
coedge $-1 $115 $288 $291 $292 forward $71 $-1 #
coedge $-1 $293 $294 $115 $183 reversed $295 $-1 #
edge $-1 $296 -42.727723152690388 $297 42.727723152690388 $182 $298 forward 7 unknown #
face $-1 $299 $300 $43 $-1 $301 reversed single #
loop $-1 $-1 $302 $116 #
plane-surface $-1 -37.474626653982412 -58.715814487417234 0 0 1 0 0 0 1 forward_v I I I I #
coedge $-1 $303 $304 $189 $305 forward $117 $-1 #
coedge $-1 $306 $119 $307 $308 reversed $74 $-1 #
coedge $-1 $119 $306 $187 $305 reversed $74 $-1 #
coedge $-1 $309 $310 $119 $191 reversed $300 $-1 #
edge $-1 $311 -21.055207989802579 $312 21.055207989802579 $190 $313 forward 7 unknown #
face $-1 $314 $315 $44 $-1 $316 reversed single #
loop $-1 $-1 $317 $120 #
plane-surface $-1 -39.820984024958214 50.721768820053811 0 1 0 0 0 0 -1 forward_v I I I I #
coedge $-1 $318 $319 $197 $320 forward $121 $-1 #
coedge $-1 $321 $123 $322 $323 reversed $77 $-1 #
coedge $-1 $123 $321 $195 $320 reversed $77 $-1 #
coedge $-1 $324 $325 $123 $199 reversed $326 $-1 #
edge $-1 $327 -21.055207989802579 $328 21.055207989802579 $198 $329 forward 7 unknown #
face $-1 $330 $331 $45 $-1 $332 reversed single #
loop $-1 $-1 $333 $124 #
plane-surface $-1 -197.29015118112568 -7.5734978339267922 112.06348965016265 0 -1 0 0.77714596973225614 0 -0.62932038083071107 forward_v I I I I #
coedge $-1 $334 $335 $336 $337 reversed $125 $-1 #
coedge $-1 $205 $127 $338 $339 reversed $80 $-1 #
coedge $-1 $127 $204 $334 $340 reversed $80 $-1 #
coedge $-1 $336 $341 $127 $207 forward $342 $-1 #
edge $-1 $343 21.406390327951073 $344 26.433105134566617 $206 $345 forward 7 unknown #
loop $-1 $-1 $213 $128 #
plane-surface $-1 -77.238685262611796 -15.086715502087351 14.847732001502109 -0.77714596973225614 0 0.62932038083071107 0.62932038083071107 0 0.77714596973225614 forward_v I I I I #
loop $-1 $-1 $346 $82 #
coedge $-1 $211 $211 $212 $347 reversed $129 $-1 #
coedge $-1 $212 $212 $211 $347 forward $131 $-1 #
coedge $-1 $213 $213 $132 $214 forward $208 $-1 #
edge $-1 $348 0 $348 6.2831853071796004 $213 $349 forward 7 unknown #
loop $-1 $-1 $220 $133 #
plane-surface $-1 -77.238685262611796 -15.086715502087351 14.847732001502109 -0.77714596973225614 0 0.62932038083071107 0.62932038083071107 0 0.77714596973225614 forward_v I I I I #
loop $-1 $-1 $350 $85 #
coedge $-1 $218 $218 $219 $351 reversed $134 $-1 #
coedge $-1 $219 $219 $218 $351 forward $136 $-1 #
coedge $-1 $220 $220 $137 $221 forward $215 $-1 #
edge $-1 $352 0 $352 6.2831853071796004 $220 $353 forward 7 unknown #
face $-1 $354 $355 $48 $-1 $356 forward single #
loop $-1 $-1 $357 $138 #
plane-surface $-1 111.41398606046627 -22.843669673602868 220.33511401811356 0 1 0 0.80901700255871778 0 0.5877852410284794 forward_v I I I I #
coedge $-1 $358 $359 $360 $361 reversed $139 $-1 #
coedge $-1 $227 $141 $362 $363 reversed $89 $-1 #
coedge $-1 $141 $226 $358 $364 reversed $89 $-1 #
coedge $-1 $360 $365 $141 $229 forward $355 $-1 #
edge $-1 $366 -21.531692232378632 $367 -9.5477864744603096 $228 $368 forward 7 unknown #
loop $-1 $-1 $235 $142 #
plane-surface $-1 -13.560833205002496 -16.78458992330345 129.53559555049932 0.80901700255871778 0 0.5877852410284794 0.5877852410284794 0 -0.80901700255871778 forward_v I I I I #
loop $-1 $-1 $369 $91 #
coedge $-1 $233 $233 $234 $370 reversed $143 $-1 #
coedge $-1 $234 $234 $233 $370 forward $145 $-1 #
coedge $-1 $235 $235 $146 $236 forward $230 $-1 #
edge $-1 $371 0 $371 6.2831853071796004 $235 $372 forward 7 unknown #
loop $-1 $-1 $242 $147 #
plane-surface $-1 -13.560833205002496 -16.78458992330345 129.53559555049932 0.80901700255871778 0 0.5877852410284794 0.5877852410284794 0 -0.80901700255871778 forward_v I I I I #
loop $-1 $-1 $373 $94 #
coedge $-1 $240 $240 $241 $374 reversed $148 $-1 #
coedge $-1 $241 $241 $240 $374 forward $150 $-1 #
coedge $-1 $242 $242 $151 $243 forward $237 $-1 #
edge $-1 $375 0 $375 6.2831853071796004 $242 $376 forward 7 unknown #
loop $-1 $-1 $249 $152 #
plane-surface $-1 -13.560833205002496 -16.78458992330345 129.53559555049932 0.80901700255871778 0 0.5877852410284794 0.5877852410284794 0 -0.80901700255871778 forward_v I I I I #
loop $-1 $-1 $377 $97 #
coedge $-1 $247 $247 $248 $378 reversed $153 $-1 #
coedge $-1 $248 $248 $247 $378 forward $155 $-1 #
coedge $-1 $249 $249 $156 $250 forward $244 $-1 #
edge $-1 $379 0 $379 6.2831853071796004 $249 $380 forward 7 unknown #
face $-1 $381 $382 $52 $-1 $383 reversed single #
loop $-1 $-1 $384 $157 #
plane-surface $-1 111.41398606046627 10.725510173004031 220.33511401811356 0 1 0 0.80901700255871778 0 0.5877852410284794 forward_v I I I I #
coedge $-1 $385 $386 $387 $388 reversed $158 $-1 #
coedge $-1 $256 $160 $389 $390 reversed $101 $-1 #
coedge $-1 $160 $255 $385 $391 reversed $101 $-1 #
coedge $-1 $387 $392 $160 $258 forward $393 $-1 #
edge $-1 $394 -21.531692232378632 $395 -9.5477864744603096 $257 $396 forward 7 unknown #
loop $-1 $-1 $264 $161 #
plane-surface $-1 -13.560833205002496 16.78458992330345 129.53559555049932 0.80901700255871778 0 0.5877852410284794 0.5877852410284794 0 -0.80901700255871778 forward_v I I I I #
loop $-1 $-1 $397 $103 #
coedge $-1 $262 $262 $263 $398 reversed $162 $-1 #
coedge $-1 $263 $263 $262 $398 forward $164 $-1 #
coedge $-1 $264 $264 $165 $265 forward $259 $-1 #
edge $-1 $399 0 $399 6.2831853071796004 $264 $400 forward 7 unknown #
loop $-1 $-1 $271 $166 #
plane-surface $-1 -13.560833205002496 16.78458992330345 129.53559555049932 0.80901700255871778 0 0.5877852410284794 0.5877852410284794 0 -0.80901700255871778 forward_v I I I I #
loop $-1 $-1 $401 $106 #
coedge $-1 $269 $269 $270 $402 reversed $167 $-1 #
coedge $-1 $270 $270 $269 $402 forward $169 $-1 #
coedge $-1 $271 $271 $170 $272 forward $266 $-1 #
edge $-1 $403 0 $403 6.2831853071796004 $271 $404 forward 7 unknown #
loop $-1 $-1 $278 $171 #
plane-surface $-1 -13.560833205002496 16.78458992330345 129.53559555049932 0.80901700255871778 0 0.5877852410284794 0.5877852410284794 0 -0.80901700255871778 forward_v I I I I #
loop $-1 $-1 $405 $109 #
coedge $-1 $276 $276 $277 $406 reversed $172 $-1 #
coedge $-1 $277 $277 $276 $406 forward $174 $-1 #
coedge $-1 $278 $278 $175 $279 forward $273 $-1 #
edge $-1 $407 0 $407 6.2831853071796004 $278 $408 forward 7 unknown #
face $-1 $409 $410 $42 $-1 $411 reversed single #
loop $-1 $-1 $412 $176 #
plane-surface $-1 -77.238685262611767 0 0 1 0 0 0 0 -1 forward_v I I I I #
coedge $-1 $413 $291 $414 $415 forward $177 $-1 #
coedge $-1 $416 $179 $413 $417 forward $113 $-1 #
coedge $-1 $179 $416 $418 $419 forward $113 $-1 #
coedge $-1 $294 $293 $179 $287 reversed $295 $-1 #
edge $-1 $420 -42.727723152690388 $421 42.727723152690388 $286 $422 forward 7 unknown #
coedge $-1 $181 $180 $423 $424 forward $71 $-1 #
coedge $-1 $425 $426 $180 $290 reversed $410 $-1 #
edge $-1 $297 -77.238685262611767 $427 77.238685262611767 $289 $428 forward 7 unknown #
coedge $-1 $283 $429 $181 $292 reversed $177 $-1 #
edge $-1 $430 -77.238685262611767 $296 77.238685262611767 $291 $431 forward 7 unknown #
coedge $-1 $286 $182 $429 $432 forward $295 $-1 #
coedge $-1 $182 $286 $425 $433 reversed $295 $-1 #
loop $-1 $-1 $293 $409 #
vertex $-1 $183 $434 #
vertex $-1 $183 $435 #
straight-curve $-1 77.238685262611767 0 21.055207989802579 0 1 0 I I #
face $-1 $436 $437 $43 $-1 $438 reversed single #
loop $-1 $-1 $190 $184 #
plane-surface $-1 -39.820984024958214 -50.721768820053811 0 1 0 0 0 0 -1 forward_v I I I I #
coedge $-1 $439 $440 $441 $442 forward $185 $-1 #
coedge $-1 $443 $187 $444 $445 forward $117 $-1 #
coedge $-1 $187 $443 $309 $446 forward $117 $-1 #
edge $-1 $311 -39.820984024958214 $447 -35.12826928300661 $187 $448 forward 7 unknown #
coedge $-1 $189 $188 $449 $450 forward $74 $-1 #
coedge $-1 $451 $452 $188 $308 forward $453 $-1 #
edge $-1 $454 35.12826928300661 $312 39.820984024958214 $307 $455 forward 7 unknown #
coedge $-1 $441 $190 $304 $446 reversed $300 $-1 #
coedge $-1 $190 $441 $451 $456 reversed $300 $-1 #
vertex $-1 $305 $457 #
vertex $-1 $456 $458 #
straight-curve $-1 -39.820984024958214 -42.727723152690388 0 0 0 1 I I #
face $-1 $459 $326 $44 $-1 $460 reversed single #
loop $-1 $-1 $461 $192 #
plane-surface $-1 -37.474626653982412 58.715814487417234 0 0 -1 0 0 0 -1 forward_v I I I I #
coedge $-1 $462 $463 $464 $465 forward $193 $-1 #
coedge $-1 $466 $195 $462 $467 forward $121 $-1 #
coedge $-1 $195 $466 $324 $468 forward $121 $-1 #
edge $-1 $327 35.12826928300661 $469 39.820984024958214 $195 $470 forward 7 unknown #
coedge $-1 $197 $196 $471 $472 forward $77 $-1 #
coedge $-1 $473 $474 $196 $323 forward $475 $-1 #
edge $-1 $476 -39.820984024958214 $328 -35.12826928300661 $322 $477 forward 7 unknown #
coedge $-1 $478 $198 $319 $468 reversed $326 $-1 #
coedge $-1 $198 $478 $473 $479 reversed $326 $-1 #
loop $-1 $-1 $198 $314 #
vertex $-1 $320 $480 #
vertex $-1 $479 $481 #
straight-curve $-1 -35.12826928300661 42.727723152690388 0 0 0 1 I I #
face $-1 $-1 $342 $45 $-1 $482 forward single #
loop $-1 $-1 $483 $200 #
plane-surface $-1 -77.238685262611767 0 0 1 0 0 0 0 -1 forward_v I I I I #
coedge $-1 $484 $485 $486 $487 reversed $201 $-1 #
coedge $-1 $488 $203 $205 $340 forward $125 $-1 #
coedge $-1 $203 $488 $484 $489 forward $125 $-1 #
coedge $-1 $486 $206 $203 $337 forward $342 $-1 #
edge $-1 $344 -15.056575419204233 $490 -0.030140082883116648 $336 $491 forward 7 unknown #
coedge $-1 $492 $493 $204 $339 forward $331 $-1 #
edge $-1 $494 -41.184012823579181 $343 -34.97653683527875 $338 $495 forward 7 unknown #
edge $-1 $344 -7.98752902294415 $494 -4.5496132173526324e-014 $205 $496 forward 7 unknown #
coedge $-1 $206 $486 $492 $497 forward $342 $-1 #
loop $-1 $-1 $486 $330 #
vertex $-1 $339 $498 #
vertex $-1 $207 $499 #
straight-curve $-1 -98.64507559056284 -22.599933170247908 21.055207989802582 1 0 0 I I #
coedge $-1 $346 $346 $-1 $500 reversed $210 $-1 #
edge $-1 $501 0 $501 6.2831853071796004 $211 $502 forward 7 unknown #
vertex $-1 $214 $503 #
ellipse-curve $-1 -74.725327859304002 -18.306665931299019 17.951469995652353 -0.77714596973225614 0 0.62932038083071107 0.9439805712460666 0 1.1657189545983841 1 I I #
coedge $-1 $350 $350 $-1 $504 reversed $217 $-1 #
edge $-1 $505 0 $505 6.2831853071796004 $218 $506 forward 7 unknown #
vertex $-1 $221 $507 #
ellipse-curve $-1 -74.725327859304002 -11.86676507287568 17.951469995652353 -0.77714596973225614 0 0.62932038083071107 0.9439805712460666 0 1.1657189545983841 1 I I #
face $-1 $-1 $508 $48 $-1 $509 reversed single #
loop $-1 $-1 $228 $222 #
plane-surface $-1 0 0 21.055207989802579 0 0 1 1 0 0 forward_v I I I I #
coedge $-1 $510 $511 $512 $513 reversed $223 $-1 #
coedge $-1 $514 $225 $227 $364 forward $139 $-1 #
coedge $-1 $225 $514 $510 $515 forward $139 $-1 #
coedge $-1 $512 $228 $225 $361 forward $355 $-1 #
edge $-1 $367 2.3332152113523055 $516 14.451374711951143 $360 $517 forward 7 unknown #
coedge $-1 $518 $519 $226 $363 forward $508 $-1 #
edge $-1 $520 -105.60678072402627 $366 -89.112349019254196 $362 $521 forward 7 unknown #
edge $-1 $367 134.0891318941388 $520 154.47737052522359 $227 $522 forward 7 unknown #
coedge $-1 $228 $512 $518 $523 forward $355 $-1 #
vertex $-1 $229 $524 #
vertex $-1 $229 $525 #
straight-curve $-1 55.706993030233136 -10.725510173004031 21.055207989802582 -1 0 0 I I #
coedge $-1 $369 $369 $-1 $526 reversed $232 $-1 #
edge $-1 $527 0 $527 6.2831853071796004 $233 $528 forward 7 unknown #
vertex $-1 $236 $529 #
ellipse-curve $-1 71.246732383652599 -20.420037773483102 12.807992137416568 0.80901700255871778 0 0.5877852410284794 0.14694631025711985 0 -0.20225425063967944 1 I I #
coedge $-1 $373 $373 $-1 $530 reversed $239 $-1 #
edge $-1 $531 0 $531 6.2831853071796004 $240 $532 forward 7 unknown #
vertex $-1 $243 $533 #
ellipse-curve $-1 71.246732383652599 -16.78458992330345 12.807992137416568 0.80901700255871778 0 0.5877852410284794 0.14694631025711985 0 -0.20225425063967944 1 I I #
coedge $-1 $377 $377 $-1 $534 reversed $246 $-1 #
edge $-1 $535 0 $535 6.2831853071796004 $247 $536 forward 7 unknown #
vertex $-1 $250 $537 #
ellipse-curve $-1 71.246732383652599 -13.149142073123798 12.807992137416568 0.80901700255871778 0 0.5877852410284794 0.14694631025711985 0 -0.20225425063967944 1 I I #
face $-1 $-1 $393 $52 $-1 $538 forward single #
loop $-1 $-1 $539 $251 #
plane-surface $-1 77.238685262611767 0 0 -1 0 0 0 0 1 forward_v I I I I #
coedge $-1 $540 $541 $542 $543 reversed $252 $-1 #
coedge $-1 $544 $254 $256 $391 forward $158 $-1 #
coedge $-1 $254 $544 $540 $545 forward $158 $-1 #
coedge $-1 $542 $257 $254 $388 forward $393 $-1 #
edge $-1 $395 -14.451374711951143 $546 -2.3332152113523055 $387 $547 forward 7 unknown #
coedge $-1 $548 $549 $255 $390 forward $382 $-1 #
edge $-1 $550 -105.60678072402627 $394 -89.112349019254196 $389 $551 forward 7 unknown #
edge $-1 $395 134.0891318941388 $550 154.47737052522359 $256 $552 forward 7 unknown #
coedge $-1 $257 $542 $548 $553 forward $393 $-1 #
loop $-1 $-1 $542 $381 #
vertex $-1 $390 $554 #
vertex $-1 $258 $555 #
straight-curve $-1 55.706993030233136 22.843669673602868 21.055207989802582 -1 0 0 I I #
coedge $-1 $397 $397 $-1 $556 reversed $261 $-1 #
edge $-1 $557 0 $557 6.2831853071796004 $262 $558 forward 7 unknown #
vertex $-1 $265 $559 #
ellipse-curve $-1 71.246732383652599 13.149142073123798 12.807992137416568 0.80901700255871778 0 0.5877852410284794 0.14694631025711985 0 -0.20225425063967944 1 I I #
coedge $-1 $401 $401 $-1 $560 reversed $268 $-1 #
edge $-1 $561 0 $561 6.2831853071796004 $269 $562 forward 7 unknown #
vertex $-1 $272 $563 #
ellipse-curve $-1 71.246732383652599 16.78458992330345 12.807992137416568 0.80901700255871778 0 0.5877852410284794 0.14694631025711985 0 -0.20225425063967944 1 I I #
coedge $-1 $405 $405 $-1 $564 reversed $275 $-1 #
edge $-1 $565 0 $565 6.2831853071796004 $276 $566 forward 7 unknown #
vertex $-1 $279 $567 #
ellipse-curve $-1 71.246732383652599 20.420037773483102 12.807992137416568 0.80901700255871778 0 0.5877852410284794 0.14694631025711985 0 -0.20225425063967944 1 I I #
face $-1 $-1 $295 $42 $-1 $568 reversed single #
loop $-1 $-1 $425 $280 #
plane-surface $-1 0 42.727723152690388 0 0 -1 0 0 0 -1 forward_v I I I I #
coedge $-1 $569 $423 $426 $570 forward $281 $-1 #
coedge $-1 $429 $283 $284 $417 reversed $177 $-1 #
coedge $-1 $423 $569 $283 $415 reversed $281 $-1 #
edge $-1 $430 -21.055207989802579 $571 21.055207989802579 $414 $572 forward 7 unknown #
coedge $-1 $285 $284 $569 $573 forward $113 $-1 #
edge $-1 $421 -77.238685262611767 $571 77.238685262611767 $413 $574 forward 7 unknown #
coedge $-1 $426 $425 $285 $419 reversed $410 $-1 #
edge $-1 $575 -77.238685262611767 $420 77.238685262611767 $418 $576 forward 7 unknown #
vertex $-1 $287 $577 #
vertex $-1 $432 $578 #
straight-curve $-1 77.238685262611767 0 -21.055207989802579 0 -1 0 I I #
coedge $-1 $412 $414 $288 $424 reversed $281 $-1 #
edge $-1 $427 -42.727723152690388 $430 42.727723152690388 $423 $579 forward 7 unknown #
coedge $-1 $418 $289 $294 $433 forward $410 $-1 #
coedge $-1 $289 $418 $412 $570 reversed $410 $-1 #
vertex $-1 $290 $580 #
straight-curve $-1 0 42.727723152690388 21.055207989802579 -1 0 0 I I #
coedge $-1 $291 $413 $293 $432 reversed $177 $-1 #
vertex $-1 $424 $581 #
straight-curve $-1 0 -42.727723152690388 21.055207989802579 1 0 0 I I #
edge $-1 $296 -21.055207989802579 $421 21.055207989802579 $293 $582 forward 7 unknown #
edge $-1 $297 -21.055207989802579 $420 21.055207989802579 $294 $583 forward 7 unknown #
point $-1 77.238685262611767 -42.727723152690388 21.055207989802579 #
point $-1 77.238685262611767 42.727723152690388 21.055207989802579 #
face $-1 $-1 $453 $43 $-1 $584 forward single #
loop $-1 $-1 $585 $299 #
plane-surface $-1 -35.12826928300661 -50.721768820053811 0 -1 0 0 0 0 1 forward_v I I I I #
coedge $-1 $586 $302 $443 $587 reversed $185 $-1 #
coedge $-1 $302 $586 $588 $589 reversed $185 $-1 #
coedge $-1 $310 $309 $302 $442 reversed $300 $-1 #
edge $-1 $590 -21.055207989802579 $591 21.055207989802579 $441 $592 forward 7 unknown #
coedge $-1 $304 $303 $439 $587 forward $117 $-1 #
coedge $-1 $449 $585 $303 $445 reversed $437 $-1 #
edge $-1 $447 -7.994045667363423 $593 7.994045667363423 $444 $594 forward 7 unknown #
edge $-1 $591 -7.994045667363423 $311 7.994045667363423 $309 $595 forward 7 unknown #
vertex $-1 $445 $596 #
straight-curve $-1 0 -42.727723152690388 -21.055207989802579 1 0 0 I I #
coedge $-1 $597 $444 $306 $450 reversed $437 $-1 #
edge $-1 $454 -21.055207989802579 $447 21.055207989802579 $449 $598 forward 7 unknown #
coedge $-1 $588 $307 $310 $456 forward $453 $-1 #
coedge $-1 $307 $588 $597 $599 forward $453 $-1 #
loop $-1 $-1 $307 $436 #
vertex $-1 $308 $600 #
straight-curve $-1 0 -42.727723152690388 21.055207989802579 -1 0 0 I I #
edge $-1 $312 -7.994045667363423 $590 7.994045667363423 $310 $601 forward 7 unknown #
point $-1 -39.820984024958214 -42.727723152690388 -21.055207989802579 #
point $-1 -39.820984024958214 -42.727723152690388 21.055207989802579 #
face $-1 $-1 $475 $44 $-1 $602 forward single #
plane-surface $-1 -35.12826928300661 50.721768820053811 0 -1 0 0 0 0 1 forward_v I I I I #
coedge $-1 $603 $604 $478 $605 forward $315 $-1 #
coedge $-1 $471 $317 $318 $467 reversed $193 $-1 #
coedge $-1 $317 $471 $474 $606 reversed $193 $-1 #
coedge $-1 $604 $603 $317 $465 reversed $315 $-1 #
edge $-1 $607 -21.055207989802579 $608 21.055207989802579 $464 $609 forward 7 unknown #
coedge $-1 $319 $318 $603 $610 forward $121 $-1 #
edge $-1 $469 -7.994045667363423 $608 7.994045667363423 $462 $611 forward 7 unknown #
edge $-1 $612 -7.994045667363423 $327 7.994045667363423 $324 $613 forward 7 unknown #
vertex $-1 $467 $614 #
straight-curve $-1 0 42.727723152690388 -21.055207989802579 -1 0 0 I I #
coedge $-1 $463 $462 $321 $472 reversed $193 $-1 #
edge $-1 $476 -21.055207989802579 $469 21.055207989802579 $471 $615 forward 7 unknown #
coedge $-1 $616 $322 $325 $479 forward $475 $-1 #
coedge $-1 $322 $616 $463 $606 forward $475 $-1 #
loop $-1 $-1 $322 $459 #
vertex $-1 $323 $617 #
straight-curve $-1 0 42.727723152690388 21.055207989802579 1 0 0 I I #
coedge $-1 $325 $324 $461 $605 reversed $326 $-1 #
edge $-1 $328 -7.994045667363423 $618 7.994045667363423 $325 $619 forward 7 unknown #
point $-1 -35.12826928300661 42.727723152690388 -21.055207989802579 #
point $-1 -35.12826928300661 42.727723152690388 21.055207989802579 #
plane-surface $-1 0 0 21.055207989802579 0 0 1 1 0 0 forward_v I I I I #
coedge $-1 $493 $492 $485 $620 forward $331 $-1 #
coedge $-1 $485 $333 $335 $489 reversed $201 $-1 #
coedge $-1 $333 $484 $483 $620 reversed $201 $-1 #
coedge $-1 $341 $336 $333 $487 forward $342 $-1 #
edge $-1 $490 -26.433105134566617 $621 -21.406390327951073 $486 $622 forward 7 unknown #
coedge $-1 $335 $334 $493 $623 reversed $125 $-1 #
edge $-1 $624 4.5496132173526324e-014 $490 7.98752902294415 $484 $625 forward 7 unknown #
vertex $-1 $337 $626 #
straight-curve $-1 -72.211970455996223 -7.5433577510436756 21.055207989802575 0 1 0 I I #
coedge $-1 $483 $338 $341 $497 reversed $331 $-1 #
coedge $-1 $338 $483 $488 $623 forward $331 $-1 #
vertex $-1 $339 $627 #
straight-curve $-1 -77.238685262611767 -22.599933170247908 56.031744825081326 0 0 1 I I #
straight-curve $-1 -77.238685262611796 -22.599933170247908 14.847732001502109 -0.62932038083071107 0 -0.77714596973225614 I I #
edge $-1 $621 7.5734978339267922 $343 22.599933170247908 $492 $628 forward 7 unknown #
point $-1 -77.238685262611767 -22.599933170247908 21.055207989802579 #
point $-1 -72.211970455996223 -22.599933170247908 21.055207989802579 #
edge $-1 $629 1 $629 0 $346 $-1 forward 7 unknown #
vertex $-1 $347 $630 #
ellipse-curve $-1 -71.676713266073023 -18.306665931299019 15.482750641064221 -0.77714596973225614 0 0.62932038083071107 0.9439805712460666 0 1.1657189545983841 1 I I #
point $-1 -73.78134728805793 -18.306665931299019 19.117188950250736 #
edge $-1 $631 1 $631 0 $350 $-1 forward 7 unknown #
vertex $-1 $351 $632 #
ellipse-curve $-1 -71.676713266073023 -11.86676507287568 15.482750641064221 -0.77714596973225614 0 0.62932038083071107 0.9439805712460666 0 1.1657189545983841 1 I I #
point $-1 -73.78134728805793 -11.86676507287568 19.117188950250736 #
loop $-1 $-1 $362 $354 #
plane-surface $-1 77.238685262611767 0 0 -1 0 0 0 0 1 forward_v I I I I #
coedge $-1 $511 $357 $359 $515 reversed $223 $-1 #
coedge $-1 $357 $510 $633 $634 reversed $223 $-1 #
coedge $-1 $365 $360 $357 $513 forward $355 $-1 #
edge $-1 $516 9.5477864744603096 $635 21.531692232378632 $512 $636 forward 7 unknown #
coedge $-1 $359 $358 $519 $637 reversed $139 $-1 #
edge $-1 $638 -154.47737052522359 $516 -134.0891318941388 $510 $639 forward 7 unknown #
vertex $-1 $361 $640 #
straight-curve $-1 65.254779504693431 -8.3922949616517251 21.055207989802582 0 -1 0 I I #
coedge $-1 $633 $362 $365 $523 reversed $508 $-1 #
coedge $-1 $362 $633 $514 $637 forward $508 $-1 #
vertex $-1 $363 $641 #
straight-curve $-1 77.238685262611767 -10.725510173004031 110.16755700905678 0 0 1 I I #
straight-curve $-1 -13.560833205002496 -10.725510173004031 129.53559555049932 0.5877852410284794 0 -0.80901700255871778 I I #
edge $-1 $635 -22.843669673602868 $366 -10.725510173004031 $518 $642 forward 7 unknown #
point $-1 77.238685262611767 -10.725510173004031 21.055207989802579 #
point $-1 65.254779504693445 -10.725510173004031 21.055207989802582 #
edge $-1 $643 1 $643 0 $369 $-1 forward 7 unknown #
vertex $-1 $370 $644 #
ellipse-curve $-1 70.437715381093881 -20.420037773483102 12.220206896388088 0.80901700255871778 0 0.5877852410284794 0.14694631025711985 0 -0.20225425063967944 1 I I #
point $-1 71.39367869390972 -20.420037773483102 12.605737886776888 #
edge $-1 $645 1 $645 0 $373 $-1 forward 7 unknown #
vertex $-1 $374 $646 #
ellipse-curve $-1 70.437715381093881 -16.78458992330345 12.220206896388088 0.80901700255871778 0 0.5877852410284794 0.14694631025711985 0 -0.20225425063967944 1 I I #
point $-1 71.39367869390972 -16.78458992330345 12.605737886776888 #
edge $-1 $647 1 $647 0 $377 $-1 forward 7 unknown #
vertex $-1 $378 $648 #
ellipse-curve $-1 70.437715381093881 -13.149142073123798 12.220206896388088 0.80901700255871778 0 0.5877852410284794 0.14694631025711985 0 -0.20225425063967944 1 I I #
point $-1 71.39367869390972 -13.149142073123798 12.605737886776888 #
plane-surface $-1 0 0 21.055207989802579 0 0 1 1 0 0 forward_v I I I I #
coedge $-1 $549 $548 $541 $649 forward $382 $-1 #
coedge $-1 $541 $384 $386 $545 reversed $252 $-1 #
coedge $-1 $384 $540 $539 $649 reversed $252 $-1 #
coedge $-1 $392 $387 $384 $543 forward $393 $-1 #
edge $-1 $546 9.5477864744603096 $650 21.531692232378632 $542 $651 forward 7 unknown #
coedge $-1 $386 $385 $549 $652 reversed $158 $-1 #
edge $-1 $653 -154.47737052522359 $546 -134.0891318941388 $540 $654 forward 7 unknown #
vertex $-1 $388 $655 #
straight-curve $-1 65.254779504693431 8.3922949616517251 21.055207989802582 0 -1 0 I I #
coedge $-1 $539 $389 $392 $553 reversed $382 $-1 #
coedge $-1 $389 $539 $544 $652 forward $382 $-1 #
vertex $-1 $390 $656 #
straight-curve $-1 77.238685262611767 22.843669673602868 110.16755700905678 0 0 1 I I #
straight-curve $-1 -13.560833205002496 22.843669673602868 129.53559555049932 0.5877852410284794 0 -0.80901700255871778 I I #
edge $-1 $650 10.725510173004031 $394 22.843669673602868 $548 $657 forward 7 unknown #
point $-1 77.238685262611767 22.843669673602868 21.055207989802579 #
point $-1 65.254779504693445 22.843669673602868 21.055207989802582 #
edge $-1 $658 1 $658 0 $397 $-1 forward 7 unknown #
vertex $-1 $398 $659 #
ellipse-curve $-1 70.437715381093881 13.149142073123798 12.220206896388088 0.80901700255871778 0 0.5877852410284794 0.14694631025711985 0 -0.20225425063967944 1 I I #
point $-1 71.39367869390972 13.149142073123798 12.605737886776888 #
edge $-1 $660 1 $660 0 $401 $-1 forward 7 unknown #
vertex $-1 $402 $661 #
ellipse-curve $-1 70.437715381093881 16.78458992330345 12.220206896388088 0.80901700255871778 0 0.5877852410284794 0.14694631025711985 0 -0.20225425063967944 1 I I #
point $-1 71.39367869390972 16.78458992330345 12.605737886776888 #
edge $-1 $662 1 $662 0 $405 $-1 forward 7 unknown #
vertex $-1 $406 $663 #
ellipse-curve $-1 70.437715381093881 20.420037773483102 12.220206896388088 0.80901700255871778 0 0.5877852410284794 0.14694631025711985 0 -0.20225425063967944 1 I I #
point $-1 71.39367869390972 20.420037773483102 12.605737886776888 #
plane-surface $-1 77.238685262611767 0 0 -1 0 0 0 0 1 forward_v I I I I #
coedge $-1 $414 $412 $416 $573 reversed $281 $-1 #
edge $-1 $427 -21.055207989802579 $575 21.055207989802579 $426 $664 forward 7 unknown #
vertex $-1 $573 $665 #
straight-curve $-1 -77.238685262611767 -42.727723152690388 0 0 0 -1 I I #
edge $-1 $571 -42.727723152690388 $575 42.727723152690388 $569 $666 forward 7 unknown #
straight-curve $-1 0 -42.727723152690388 -21.055207989802579 -1 0 0 I I #
vertex $-1 $419 $667 #
straight-curve $-1 0 42.727723152690388 -21.055207989802579 1 0 0 I I #
point $-1 77.238685262611767 42.727723152690388 -21.055207989802579 #
point $-1 77.238685262611767 -42.727723152690388 -21.055207989802579 #
straight-curve $-1 -77.238685262611767 0 21.055207989802579 0 -1 0 I I #
point $-1 -77.238685262611767 42.727723152690388 21.055207989802579 #
point $-1 -77.238685262611767 -42.727723152690388 21.055207989802579 #
straight-curve $-1 77.238685262611767 -42.727723152690388 0 0 0 -1 I I #
straight-curve $-1 77.238685262611767 42.727723152690388 0 0 0 -1 I I #
plane-surface $-1 0 0 21.055207989802579 0 0 1 1 0 0 forward_v I I I I #
coedge $-1 $444 $597 $586 $668 forward $437 $-1 #
coedge $-1 $440 $439 $585 $668 reversed $185 $-1 #
edge $-1 $593 -2.3463573709758023 $591 2.3463573709758023 $439 $669 forward 7 unknown #
coedge $-1 $452 $451 $440 $589 forward $453 $-1 #
edge $-1 $590 -2.3463573709758023 $670 2.3463573709758023 $440 $671 forward 7 unknown #
vertex $-1 $456 $672 #
vertex $-1 $446 $673 #
straight-curve $-1 -39.820984024958214 -58.715814487417234 0 0 0 -1 I I #
vertex $-1 $668 $674 #
straight-curve $-1 -35.12826928300661 -50.721768820053811 -21.055207989802579 0 -1 0 I I #
straight-curve $-1 -39.820984024958214 -50.721768820053811 -21.055207989802579 0 1 0 I I #
point $-1 -35.12826928300661 -42.727723152690388 -21.055207989802579 #
coedge $-1 $585 $449 $452 $599 reversed $437 $-1 #
straight-curve $-1 -35.12826928300661 -42.727723152690388 0 0 0 -1 I I #
edge $-1 $670 -7.994045667363423 $454 7.994045667363423 $597 $675 forward 7 unknown #
point $-1 -35.12826928300661 -42.727723152690388 21.055207989802579 #
straight-curve $-1 -39.820984024958214 -50.721768820053811 21.055207989802579 0 -1 0 I I #
plane-surface $-1 0 0 21.055207989802579 0 0 1 1 0 0 forward_v I I I I #
coedge $-1 $464 $461 $466 $610 reversed $315 $-1 #
coedge $-1 $461 $464 $616 $676 reversed $315 $-1 #
edge $-1 $618 -21.055207989802579 $612 21.055207989802579 $478 $677 forward 7 unknown #
edge $-1 $607 -7.994045667363423 $476 7.994045667363423 $463 $678 forward 7 unknown #
vertex $-1 $676 $679 #
vertex $-1 $610 $680 #
straight-curve $-1 -39.820984024958214 58.715814487417234 0 0 0 -1 I I #
edge $-1 $608 -2.3463573709758023 $612 2.3463573709758023 $603 $681 forward 7 unknown #
straight-curve $-1 -39.820984024958214 50.721768820053811 -21.055207989802579 0 1 0 I I #
vertex $-1 $468 $682 #
straight-curve $-1 -35.12826928300661 50.721768820053811 -21.055207989802579 0 -1 0 I I #
point $-1 -39.820984024958214 42.727723152690388 -21.055207989802579 #
straight-curve $-1 -39.820984024958214 42.727723152690388 0 0 0 -1 I I #
coedge $-1 $474 $473 $604 $676 forward $475 $-1 #
point $-1 -39.820984024958214 42.727723152690388 21.055207989802579 #
vertex $-1 $479 $683 #
straight-curve $-1 -35.12826928300661 50.721768820053811 21.055207989802579 0 1 0 I I #
edge $-1 $621 34.97653683527875 $624 41.184012823579181 $483 $684 forward 7 unknown #
vertex $-1 $497 $685 #
straight-curve $-1 -98.64507559056284 -7.5734978339267922 21.055207989802582 -1 0 0 I I #
edge $-1 $624 0.030140082883116648 $494 15.056575419204233 $493 $686 forward 7 unknown #
vertex $-1 $623 $687 #
straight-curve $-1 -77.238685262611796 -7.5734978339267922 14.847732001502109 0.62932038083071107 0 0.77714596973225614 I I #
point $-1 -72.211970455996223 -7.5734978339267922 21.055207989802579 #
point $-1 -77.238685262611767 -22.599933170247908 14.847732001502145 #
straight-curve $-1 -77.238685262611767 0 21.055207989802579 0 -1 0 I I #
vertex $-1 $500 $688 #
point $-1 -70.73273269482695 -18.306665931299019 16.648469595662608 #
vertex $-1 $504 $689 #
point $-1 -70.73273269482695 -11.86676507287568 16.648469595662608 #
coedge $-1 $519 $518 $511 $634 forward $508 $-1 #
edge $-1 $635 89.112349019254196 $638 105.60678072402627 $633 $690 forward 7 unknown #
vertex $-1 $523 $691 #
straight-curve $-1 55.706993030233136 -22.843669673602868 21.055207989802582 1 0 0 I I #
edge $-1 $638 -14.451374711951143 $520 -2.3332152113523055 $519 $692 forward 7 unknown #
vertex $-1 $637 $693 #
straight-curve $-1 -13.560833205002496 -22.843669673602868 129.53559555049932 -0.5877852410284794 0 0.80901700255871778 I I #
point $-1 65.254779504693445 -22.843669673602868 21.055207989802582 #
point $-1 77.238685262611767 -10.725510173004031 4.5607762850305136 #
straight-curve $-1 77.238685262611767 0 21.055207989802579 0 1 0 I I #
vertex $-1 $526 $694 #
point $-1 70.584661691351002 -20.420037773483102 12.017952645748409 #
vertex $-1 $530 $695 #
point $-1 70.584661691351002 -16.78458992330345 12.017952645748409 #
vertex $-1 $534 $696 #
point $-1 70.584661691351002 -13.149142073123798 12.017952645748409 #
edge $-1 $650 89.112349019254196 $653 105.60678072402627 $539 $697 forward 7 unknown #
vertex $-1 $553 $698 #
straight-curve $-1 55.706993030233136 10.725510173004031 21.055207989802582 1 0 0 I I #
edge $-1 $653 2.3332152113523055 $550 14.451374711951143 $549 $699 forward 7 unknown #
vertex $-1 $652 $700 #
straight-curve $-1 -13.560833205002496 10.725510173004031 129.53559555049932 -0.5877852410284794 0 0.80901700255871778 I I #
point $-1 65.254779504693445 10.725510173004031 21.055207989802582 #
point $-1 77.238685262611767 22.843669673602868 4.5607762850305136 #
straight-curve $-1 77.238685262611767 0 21.055207989802579 0 1 0 I I #
vertex $-1 $556 $701 #
point $-1 70.584661691351002 13.149142073123798 12.017952645748409 #
vertex $-1 $560 $702 #
point $-1 70.584661691351002 16.78458992330345 12.017952645748409 #
vertex $-1 $564 $703 #
point $-1 70.584661691351002 20.420037773483102 12.017952645748409 #
straight-curve $-1 -77.238685262611767 42.727723152690388 0 0 0 -1 I I #
point $-1 -77.238685262611767 -42.727723152690388 -21.055207989802579 #
straight-curve $-1 -77.238685262611767 0 -21.055207989802579 0 1 0 I I #
point $-1 -77.238685262611767 42.727723152690388 -21.055207989802579 #
edge $-1 $670 -21.055207989802579 $593 21.055207989802579 $585 $704 forward 7 unknown #
straight-curve $-1 -37.474626653982412 -58.715814487417234 -21.055207989802579 -1 0 0 I I #
vertex $-1 $599 $705 #
straight-curve $-1 -37.474626653982412 -58.715814487417234 21.055207989802579 1 0 0 I I #
point $-1 -39.820984024958214 -58.715814487417234 21.055207989802579 #
point $-1 -39.820984024958214 -58.715814487417234 -21.055207989802579 #
point $-1 -35.12826928300661 -58.715814487417234 -21.055207989802579 #
straight-curve $-1 -35.12826928300661 -50.721768820053811 21.055207989802579 0 1 0 I I #
edge $-1 $618 -2.3463573709758023 $607 2.3463573709758023 $604 $706 forward 7 unknown #
straight-curve $-1 -35.12826928300661 58.715814487417234 0 0 0 -1 I I #
straight-curve $-1 -39.820984024958214 50.721768820053811 21.055207989802579 0 -1 0 I I #
point $-1 -39.820984024958214 58.715814487417234 21.055207989802579 #
point $-1 -39.820984024958214 58.715814487417234 -21.055207989802579 #
straight-curve $-1 -37.474626653982412 58.715814487417234 -21.055207989802579 1 0 0 I I #
point $-1 -35.12826928300661 58.715814487417234 -21.055207989802579 #
point $-1 -35.12826928300661 58.715814487417234 21.055207989802579 #
straight-curve $-1 -77.238685262611767 -7.5734978339267922 56.031744825081326 0 0 -1 I I #
point $-1 -77.238685262611767 -7.5734978339267922 21.055207989802579 #
straight-curve $-1 -77.238685262611767 -7.5433577510436756 14.847732001502148 0 -1 0 I I #
point $-1 -77.238685262611767 -7.5734978339267922 14.847732001502145 #
point $-1 -70.510994311474633 -18.306665931299019 14.538770069818156 #
point $-1 -70.510994311474633 -11.86676507287568 14.538770069818156 #
straight-curve $-1 77.238685262611767 -22.843669673602868 110.16755700905678 0 0 -1 I I #
point $-1 77.238685262611767 -22.843669673602868 21.055207989802579 #
straight-curve $-1 77.238685262611767 -8.3922949616517251 4.5607762850305278 0 1 0 I I #
point $-1 77.238685262611767 -22.843669673602868 4.5607762850305136 #
point $-1 70.235461130454212 -20.420037773483102 12.073260586130967 #
point $-1 70.235461130454212 -16.78458992330345 12.073260586130967 #
point $-1 70.235461130454212 -13.149142073123798 12.073260586130967 #
straight-curve $-1 77.238685262611767 10.725510173004031 110.16755700905678 0 0 -1 I I #
point $-1 77.238685262611767 10.725510173004031 21.055207989802579 #
straight-curve $-1 77.238685262611767 8.3922949616517251 4.5607762850305278 0 1 0 I I #
point $-1 77.238685262611767 10.725510173004031 4.5607762850305136 #
point $-1 70.235461130454212 13.149142073123798 12.073260586130967 #
point $-1 70.235461130454212 16.78458992330345 12.073260586130967 #
point $-1 70.235461130454212 20.420037773483102 12.073260586130967 #
straight-curve $-1 -35.12826928300661 -58.715814487417234 0 0 0 -1 I I #
point $-1 -35.12826928300661 -58.715814487417234 21.055207989802579 #
straight-curve $-1 -37.474626653982412 58.715814487417234 21.055207989802579 -1 0 0 I I #
End-of-ACIS-data 