500 0 7 0           
7 Unknown 11 ACIS 5.0 NT 24 Fri Mar 26 03:15:06 1999 
-1 9.9999999999999995e-007 1e-010 
body $-1 $7 $-1 $8 #
body $-1 $9 $-1 $10 #
body $-1 $11 $-1 $12 #
body $-1 $13 $-1 $14 #
body $-1 $15 $-1 $16 #
body $-1 $17 $-1 $18 #
body $-1 $19 $-1 $20 #
lump $-1 $-1 $21 $0 #
transform $-1 1 0 0 0 1 0 0 0 1 54.510940885647145 30.813728796054281 14.896233130707659 1 rotate no_reflect no_shear #
lump $-1 $-1 $22 $1 #
transform $-1 1 0 0 0 1 0 0 0 1 54.510940885647145 30.813728796054281 14.896233130707659 1 rotate no_reflect no_shear #
lump $-1 $-1 $23 $2 #
transform $-1 1 0 0 0 1 0 0 0 1 54.510940885647145 30.813728796054281 14.896233130707659 1 rotate no_reflect no_shear #
lump $-1 $-1 $24 $3 #
transform $-1 1 0 0 0 1 0 0 0 1 54.510940885647145 30.813728796054281 14.896233130707659 1 rotate no_reflect no_shear #
lump $-1 $-1 $25 $4 #
transform $-1 1 0 0 0 1 0 0 0 1 54.510940885647145 30.813728796054281 14.896233130707659 1 rotate no_reflect no_shear #
lump $-1 $-1 $26 $5 #
transform $-1 1 0 0 0 1 0 0 0 1 54.510940885647145 30.813728796054281 14.896233130707659 1 rotate no_reflect no_shear #
lump $-1 $-1 $27 $6 #
transform $-1 1 0 0 0 1 0 0 0 1 54.510940885647145 30.813728796054281 14.896233130707659 1 rotate no_reflect no_shear #
shell $-1 $-1 $-1 $28 $-1 $7 #
shell $-1 $-1 $-1 $29 $-1 $9 #
shell $-1 $-1 $-1 $30 $-1 $11 #
shell $-1 $-1 $-1 $31 $-1 $13 #
shell $-1 $-1 $-1 $32 $-1 $15 #
shell $-1 $-1 $-1 $33 $-1 $17 #
shell $-1 $-1 $-1 $34 $-1 $19 #
face $-1 $35 $36 $21 $-1 $37 forward single #
face $-1 $38 $39 $22 $-1 $40 forward single #
face $-1 $41 $42 $23 $-1 $43 reversed single #
face $-1 $44 $45 $24 $-1 $46 forward single #
face $-1 $47 $48 $25 $-1 $49 reversed single #
face $-1 $50 $51 $26 $-1 $52 forward single #
face $-1 $53 $54 $27 $-1 $55 forward single #
face $-1 $56 $57 $21 $-1 $58 reversed single #
loop $-1 $-1 $59 $28 #
plane-surface $-1 0 0 14.896233130707659 0 0 1 1 0 0 forward_v I I I I #
face $-1 $60 $61 $22 $-1 $62 reversed single #
loop $-1 $-1 $63 $29 #
plane-surface $-1 0 -23.858578578548759 -9.0194789060103133 0 0 1 1 0 0 forward_v I I I I #
face $-1 $64 $65 $23 $-1 $66 reversed single #
loop $-1 $-1 $67 $30 #
plane-surface $-1 -124.58885653427402 18.886518739732438 85.234309793436452 0 1 0 -0.64278761758704617 0 0.76604443648966558 forward_v I I I I #
face $-1 $68 $69 $24 $-1 $70 forward single #
loop $-1 $71 $72 $31 #
cone-surface $-1 -44.898251320965599 24.850123767893361 6.2093794335122627 0.64278761758704617 0 -0.76604443648966558 1.1490666547344983 0 0.96418142638056925 1 I I 0 1 1.5 forward I I I I #
face $-1 $73 $74 $25 $-1 $75 reversed single #
loop $-1 $-1 $76 $32 #
plane-surface $-1 86.56681412222126 19.852605509626571 152.9062076726002 0 1 0 0.83867057594974714 0 0.54463902268945019 forward_v I I I I #
face $-1 $77 $78 $26 $-1 $79 forward single #
loop $-1 $80 $81 $33 #
cone-surface $-1 49.691766083117628 22.984355020034489 8.0653967875361943 -0.83867057594974714 0 -0.54463902268945019 0.54463902268945019 0 -0.83867057594974714 1 I I 0 1 1 forward I I I I #
face $-1 $82 $83 $27 $-1 $84 forward single #
loop $-1 $85 $86 $34 #
cone-surface $-1 49.691766083117628 27.681979285646367 8.0653967875361943 -0.83867057594974714 0 -0.54463902268945019 0.54463902268945019 0 -0.83867057594974714 1 I I 0 1 1 forward I I I I #
face $-1 $87 $88 $21 $-1 $89 reversed single #
loop $-1 $-1 $90 $35 #
plane-surface $-1 0 0 -14.896233130707659 0 0 1 1 0 0 forward_v I I I I #
coedge $-1 $91 $92 $93 $94 forward $36 $-1 #
face $-1 $95 $96 $22 $-1 $97 reversed single #
loop $-1 $-1 $98 $38 #
plane-surface $-1 0 -16.903428361043236 -11.957856018358985 0 -1 0 0 0 -1 forward_v I I I I #
coedge $-1 $99 $100 $101 $102 reversed $39 $-1 #
face $-1 $103 $104 $23 $-1 $105 reversed single #
loop $-1 $-1 $106 $41 #
plane-surface $-1 -54.510940885647145 24.850123767893361 1.7187038069023686 -0.64278761758704617 0 0.76604443648966558 0.76604443648966558 0 0.64278761758704617 forward_v I I I I #
coedge $-1 $107 $108 $109 $110 reversed $42 $-1 #
face $-1 $-1 $111 $24 $-1 $112 forward single #
loop $-1 $113 $114 $44 #
cone-surface $-1 -42.655654835210349 24.850123767893361 3.5367570708522589 0.64278761758704617 0 -0.76604443648966558 0.57453332736724916 0 0.48209071319028463 1 I I -0.70710678118654757 0.70710678118654757 0.75 forward I I I I #
loop $-1 $-1 $115 $31 #
coedge $-1 $72 $72 $116 $117 reversed $45 $-1 #
face $-1 $118 $119 $25 $-1 $120 forward single #
loop $-1 $-1 $121 $47 #
plane-surface $-1 -4.866630254035357 25.333167152840428 93.528636532917687 0.83867057594974714 0 0.54463902268945019 0.54463902268945019 0 -0.83867057594974714 forward_v I I I I #
coedge $-1 $122 $123 $124 $125 reversed $48 $-1 #
face $-1 $-1 $126 $26 $-1 $127 forward single #
loop $-1 $128 $129 $50 #
cone-surface $-1 48.609802463566382 22.984355020034489 7.3627614200432969 -0.83867057594974714 0 -0.54463902268945019 0.2723195113447251 0 -0.41933528797487357 1 I I -0.70710678118654746 0.70710678118654746 0.5 forward I I I I #
loop $-1 $-1 $130 $33 #
coedge $-1 $81 $81 $131 $132 reversed $51 $-1 #
face $-1 $-1 $133 $27 $-1 $134 forward single #
loop $-1 $135 $136 $53 #
cone-surface $-1 48.609802463566382 27.681979285646367 7.3627614200432969 -0.83867057594974714 0 -0.54463902268945019 0.2723195113447251 0 -0.41933528797487357 1 I I -0.70710678118654746 0.70710678118654746 0.5 forward I I I I #
loop $-1 $-1 $137 $34 #
coedge $-1 $86 $86 $138 $139 reversed $54 $-1 #
face $-1 $140 $141 $21 $-1 $142 reversed single #
loop $-1 $-1 $143 $56 #
plane-surface $-1 0 -30.813728796054281 0 0 1 0 0 0 1 forward_v I I I I #
coedge $-1 $144 $145 $146 $147 forward $57 $-1 #
coedge $-1 $148 $59 $149 $150 forward $36 $-1 #
coedge $-1 $59 $148 $151 $152 forward $36 $-1 #
coedge $-1 $153 $154 $59 $94 reversed $155 $-1 #
edge $-1 $156 -30.813728796054281 $157 30.813728796054281 $93 $158 forward 7 unknown #
face $-1 $159 $160 $22 $-1 $161 reversed single #
loop $-1 $-1 $162 $60 #
plane-surface $-1 0 0 -14.896233130707659 0 0 1 1 0 0 forward_v I I I I #
coedge $-1 $163 $164 $165 $166 reversed $61 $-1 #
coedge $-1 $167 $63 $164 $168 forward $39 $-1 #
coedge $-1 $63 $167 $169 $170 reversed $39 $-1 #
coedge $-1 $171 $165 $63 $102 forward $160 $-1 #
edge $-1 $172 4.9741390717688567 $173 18.884439506779902 $101 $174 forward 7 unknown #
face $-1 $175 $176 $23 $-1 $177 reversed single #
loop $-1 $-1 $178 $64 #
plane-surface $-1 0 30.813728796054281 0 0 -1 0 0 0 -1 forward_v I I I I #
coedge $-1 $179 $180 $181 $182 reversed $65 $-1 #
coedge $-1 $108 $67 $183 $184 reversed $42 $-1 #
coedge $-1 $67 $107 $179 $185 reversed $42 $-1 #
coedge $-1 $181 $186 $67 $110 forward $187 $-1 #
edge $-1 $188 7.7834873814898629 $189 23.487854965723017 $109 $190 forward 7 unknown #
loop $-1 $-1 $116 $68 #
plane-surface $-1 -54.510940885647145 24.850123767893361 1.7187038069023686 -0.64278761758704617 0 0.76604443648966558 0.76604443648966558 0 0.64278761758704617 forward_v I I I I #
loop $-1 $-1 $191 $44 #
coedge $-1 $114 $114 $115 $192 reversed $69 $-1 #
coedge $-1 $115 $115 $114 $192 forward $71 $-1 #
coedge $-1 $116 $116 $72 $117 forward $111 $-1 #
edge $-1 $193 0 $193 6.2831853071796004 $116 $194 forward 7 unknown #
face $-1 $195 $196 $25 $-1 $197 reversed single #
loop $-1 $-1 $198 $73 #
plane-surface $-1 0 0 14.896233130707659 0 0 1 1 0 0 forward_v I I I I #
coedge $-1 $199 $200 $201 $202 reversed $74 $-1 #
coedge $-1 $123 $76 $203 $204 reversed $48 $-1 #
coedge $-1 $76 $122 $199 $205 reversed $48 $-1 #
coedge $-1 $201 $206 $76 $125 forward $207 $-1 #
edge $-1 $208 61.556870705592445 $209 74.357911679639017 $124 $210 forward 7 unknown #
loop $-1 $-1 $131 $77 #
plane-surface $-1 -4.866630254035357 25.333167152840428 93.528636532917687 0.83867057594974714 0 0.54463902268945019 0.54463902268945019 0 -0.83867057594974714 forward_v I I I I #
loop $-1 $-1 $211 $50 #
coedge $-1 $129 $129 $130 $212 reversed $78 $-1 #
coedge $-1 $130 $130 $129 $212 forward $80 $-1 #
coedge $-1 $131 $131 $81 $132 forward $126 $-1 #
edge $-1 $213 0 $213 6.2831853071796004 $131 $214 forward 7 unknown #
loop $-1 $-1 $138 $82 #
plane-surface $-1 -4.866630254035357 25.333167152840428 93.528636532917687 0.83867057594974714 0 0.54463902268945019 0.54463902268945019 0 -0.83867057594974714 forward_v I I I I #
loop $-1 $-1 $215 $53 #
coedge $-1 $136 $136 $137 $216 reversed $83 $-1 #
coedge $-1 $137 $137 $136 $216 forward $85 $-1 #
coedge $-1 $138 $138 $86 $139 forward $133 $-1 #
edge $-1 $217 0 $217 6.2831853071796004 $138 $218 forward 7 unknown #
face $-1 $219 $220 $21 $-1 $221 reversed single #
loop $-1 $-1 $222 $87 #
plane-surface $-1 -54.510940885647145 0 0 1 0 0 0 0 -1 forward_v I I I I #
coedge $-1 $223 $151 $224 $225 forward $88 $-1 #
coedge $-1 $226 $90 $223 $227 forward $57 $-1 #
coedge $-1 $90 $226 $228 $229 forward $57 $-1 #
coedge $-1 $154 $153 $90 $147 reversed $155 $-1 #
edge $-1 $230 -30.813728796054281 $231 30.813728796054281 $146 $232 forward 7 unknown #
coedge $-1 $92 $91 $233 $234 forward $36 $-1 #
coedge $-1 $235 $236 $91 $150 reversed $220 $-1 #
edge $-1 $157 -54.510940885647145 $237 54.510940885647145 $149 $238 forward 7 unknown #
coedge $-1 $143 $239 $92 $152 reversed $88 $-1 #
edge $-1 $240 -54.510940885647145 $156 54.510940885647145 $151 $241 forward 7 unknown #
coedge $-1 $146 $93 $239 $242 forward $155 $-1 #
coedge $-1 $93 $146 $235 $243 reversed $155 $-1 #
loop $-1 $-1 $153 $219 #
vertex $-1 $94 $244 #
vertex $-1 $94 $245 #
straight-curve $-1 54.510940885647145 0 14.896233130707659 0 1 0 I I #
face $-1 $246 $247 $22 $-1 $248 reversed single #
loop $-1 $-1 $165 $95 #
plane-surface $-1 54.510940885647145 0 0 -1 0 0 0 0 1 forward_v I I I I #
coedge $-1 $249 $250 $163 $251 forward $96 $-1 #
coedge $-1 $252 $98 $162 $251 reversed $61 $-1 #
coedge $-1 $98 $252 $99 $168 reversed $61 $-1 #
coedge $-1 $101 $253 $98 $166 forward $160 $-1 #
edge $-1 $254 -8.9173051215281642 $172 -3.0405508968308208 $165 $255 forward 7 unknown #
coedge $-1 $100 $99 $256 $257 reversed $39 $-1 #
edge $-1 $172 -54.510940885647145 $258 54.510940885647145 $164 $259 forward 7 unknown #
coedge $-1 $260 $261 $100 $170 forward $247 $-1 #
edge $-1 $173 -54.510940885647145 $262 54.510940885647145 $169 $263 forward 7 unknown #
coedge $-1 $253 $101 $261 $264 forward $160 $-1 #
vertex $-1 $102 $265 #
vertex $-1 $264 $266 #
straight-curve $-1 54.510940885647145 -11.929289289274379 -9.0194789060103133 0 -1 0 I I #
face $-1 $-1 $187 $23 $-1 $267 forward single #
loop $-1 $-1 $268 $103 #
plane-surface $-1 -54.510940885647145 0 0 1 0 0 0 0 -1 forward_v I I I I #
coedge $-1 $269 $270 $180 $271 forward $104 $-1 #
coedge $-1 $272 $106 $108 $185 forward $65 $-1 #
coedge $-1 $106 $272 $178 $271 reversed $65 $-1 #
coedge $-1 $273 $109 $106 $182 forward $187 $-1 #
edge $-1 $189 6.461456855785757 $274 18.388666912107603 $181 $275 forward 7 unknown #
coedge $-1 $276 $268 $107 $184 forward $176 $-1 #
edge $-1 $277 -40.898451089815858 $188 -27.720921766010569 $183 $278 forward 7 unknown #
edge $-1 $189 -20.500596096222697 $277 0 $108 $279 forward 7 unknown #
coedge $-1 $109 $273 $276 $280 forward $187 $-1 #
loop $-1 $-1 $181 $175 #
vertex $-1 $184 $281 #
vertex $-1 $110 $282 #
straight-curve $-1 -62.294428267137008 18.886518739732438 14.896233130707657 1 0 0 I I #
coedge $-1 $191 $191 $-1 $283 reversed $113 $-1 #
edge $-1 $284 0 $284 6.2831853071796004 $114 $285 forward 7 unknown #
vertex $-1 $117 $286 #
ellipse-curve $-1 -46.658757093530561 24.850123767893361 8.3074684688050144 -0.64278761758704617 0 0.76604443648966558 1.1490666547344983 0 0.96418142638056925 1 I I #
face $-1 $-1 $207 $25 $-1 $287 reversed single #
loop $-1 $-1 $288 $118 #
plane-surface $-1 0 30.813728796054281 0 0 -1 0 0 0 -1 forward_v I I I I #
coedge $-1 $203 $289 $290 $291 forward $119 $-1 #
coedge $-1 $290 $121 $123 $205 forward $74 $-1 #
coedge $-1 $121 $290 $288 $292 reversed $74 $-1 #
coedge $-1 $293 $124 $121 $202 forward $207 $-1 #
edge $-1 $209 7.1860219332063568 $294 18.147145219634069 $201 $295 forward 7 unknown #
coedge $-1 $296 $198 $122 $204 forward $119 $-1 #
edge $-1 $297 2.9144408826302097 $208 11.227533824536515 $203 $298 forward 7 unknown #
edge $-1 $209 -109.02188177129428 $297 -93.758390549427915 $123 $299 forward 7 unknown #
coedge $-1 $124 $293 $296 $300 reversed $207 $-1 #
loop $-1 $-1 $201 $195 #
vertex $-1 $300 $301 #
vertex $-1 $125 $302 #
straight-curve $-1 54.510940885647145 19.852605509626571 76.453103836300102 0 0 -1 I I #
coedge $-1 $211 $211 $-1 $303 reversed $128 $-1 #
edge $-1 $304 0 $304 6.2831853071796004 $129 $305 forward 7 unknown #
vertex $-1 $132 $306 #
ellipse-curve $-1 50.354394414693985 22.984355020034489 8.4957126436843584 0.83867057594974714 0 0.54463902268945019 0.54463902268945019 0 -0.83867057594974714 1 I I #
coedge $-1 $215 $215 $-1 $307 reversed $135 $-1 #
edge $-1 $308 0 $308 6.2831853071796004 $136 $309 forward 7 unknown #
vertex $-1 $139 $310 #
ellipse-curve $-1 50.354394414693985 27.681979285646367 8.4957126436843584 0.83867057594974714 0 0.54463902268945019 0.54463902268945019 0 -0.83867057594974714 1 I I #
face $-1 $-1 $155 $21 $-1 $311 reversed single #
loop $-1 $-1 $235 $140 #
plane-surface $-1 0 30.813728796054281 0 0 -1 0 0 0 -1 forward_v I I I I #
coedge $-1 $312 $233 $236 $313 forward $141 $-1 #
coedge $-1 $239 $143 $144 $227 reversed $88 $-1 #
coedge $-1 $233 $312 $143 $225 reversed $141 $-1 #
edge $-1 $240 -14.896233130707659 $314 14.896233130707659 $224 $315 forward 7 unknown #
coedge $-1 $145 $144 $312 $316 forward $57 $-1 #
edge $-1 $231 -54.510940885647145 $314 54.510940885647145 $223 $317 forward 7 unknown #
coedge $-1 $236 $235 $145 $229 reversed $220 $-1 #
edge $-1 $318 -54.510940885647145 $230 54.510940885647145 $228 $319 forward 7 unknown #
vertex $-1 $147 $320 #
vertex $-1 $242 $321 #
straight-curve $-1 54.510940885647145 0 -14.896233130707659 0 -1 0 I I #
coedge $-1 $222 $224 $148 $234 reversed $141 $-1 #
edge $-1 $237 -30.813728796054281 $240 30.813728796054281 $233 $322 forward 7 unknown #
coedge $-1 $228 $149 $154 $243 forward $220 $-1 #
coedge $-1 $149 $228 $222 $313 reversed $220 $-1 #
vertex $-1 $150 $323 #
straight-curve $-1 0 30.813728796054281 14.896233130707659 -1 0 0 I I #
coedge $-1 $151 $223 $153 $242 reversed $88 $-1 #
vertex $-1 $234 $324 #
straight-curve $-1 0 -30.813728796054281 14.896233130707659 1 0 0 I I #
edge $-1 $156 -14.896233130707659 $231 14.896233130707659 $153 $325 forward 7 unknown #
edge $-1 $157 -14.896233130707659 $230 14.896233130707659 $154 $326 forward 7 unknown #
point $-1 54.510940885647145 -30.813728796054281 14.896233130707659 #
point $-1 54.510940885647145 30.813728796054281 14.896233130707659 #
face $-1 $-1 $327 $22 $-1 $328 reversed single #
loop $-1 $-1 $169 $159 #
plane-surface $-1 0 -30.813728796054281 0 0 1 0 0 0 1 forward_v I I I I #
coedge $-1 $329 $162 $253 $330 forward $96 $-1 #
coedge $-1 $162 $329 $331 $332 forward $96 $-1 #
edge $-1 $333 -54.510940885647145 $254 54.510940885647145 $162 $334 forward 7 unknown #
coedge $-1 $164 $163 $335 $336 reversed $61 $-1 #
coedge $-1 $165 $171 $249 $330 reversed $160 $-1 #
vertex $-1 $330 $337 #
straight-curve $-1 54.510940885647145 -16.903428361043236 -5.9789280091794925 0 0 1 I I #
coedge $-1 $335 $338 $167 $257 forward $327 $-1 #
edge $-1 $262 -18.884439506779902 $258 -4.9741390717688567 $256 $339 forward 7 unknown #
vertex $-1 $257 $340 #
straight-curve $-1 0 -16.903428361043236 -9.0194789060103133 -1 0 0 I I #
coedge $-1 $341 $169 $338 $342 forward $247 $-1 #
coedge $-1 $169 $341 $171 $264 reversed $247 $-1 #
vertex $-1 $342 $343 #
straight-curve $-1 0 -30.813728796054281 -9.0194789060103133 -1 0 0 I I #
edge $-1 $173 9.0194789060103133 $344 14.896233130707659 $171 $345 forward 7 unknown #
point $-1 54.510940885647145 -16.903428361043236 -9.0194789060103133 #
point $-1 54.510940885647145 -30.813728796054281 -9.0194789060103133 #
plane-surface $-1 0 0 14.896233130707659 0 0 1 1 0 0 forward_v I I I I #
coedge $-1 $183 $346 $272 $347 forward $176 $-1 #
coedge $-1 $270 $178 $346 $348 reversed $104 $-1 #
coedge $-1 $178 $269 $273 $349 reversed $104 $-1 #
edge $-1 $274 -0.17407536227746043 $350 20.326520733945237 $178 $351 forward 7 unknown #
coedge $-1 $180 $179 $268 $347 reversed $65 $-1 #
coedge $-1 $186 $181 $270 $349 forward $187 $-1 #
vertex $-1 $349 $352 #
straight-curve $-1 -38.806573301413984 12.425061883946681 14.896233130707659 0 1 0 I I #
coedge $-1 $346 $183 $186 $280 reversed $176 $-1 #
vertex $-1 $184 $353 #
straight-curve $-1 -54.510940885647145 18.886518739732438 42.617154896718226 0 0 1 I I #
straight-curve $-1 -54.510940885647145 18.886518739732438 1.7187038069023686 -0.76604443648966558 0 -0.64278761758704617 I I #
edge $-1 $354 -30.813728796054281 $188 -18.886518739732438 $276 $355 forward 7 unknown #
point $-1 -54.510940885647145 18.886518739732438 14.896233130707659 #
point $-1 -38.806573301413991 18.886518739732438 14.896233130707657 #
edge $-1 $356 1 $356 0 $191 $-1 forward 7 unknown #
vertex $-1 $192 $357 #
ellipse-curve $-1 -43.13774554840063 24.850123767893361 4.1112903982195084 -0.64278761758704617 0 0.76604443648966558 1.1490666547344983 0 0.96418142638056925 1 I I #
point $-1 -45.509690438796071 24.850123767893361 9.2716498951855861 #
plane-surface $-1 54.510940885647145 0 0 -1 0 0 0 0 1 forward_v I I I I #
coedge $-1 $358 $359 $200 $292 forward $196 $-1 #
coedge $-1 $198 $296 $358 $360 forward $119 $-1 #
coedge $-1 $200 $199 $198 $291 reversed $74 $-1 #
edge $-1 $361 -18.147145219634069 $297 -7.1860219332063568 $198 $362 forward 7 unknown #
edge $-1 $294 -68.476745664191597 $361 -53.213254442325223 $288 $363 forward 7 unknown #
coedge $-1 $206 $201 $359 $364 reversed $207 $-1 #
vertex $-1 $202 $365 #
straight-curve $-1 54.510940885647145 12.666583576420214 2.0951921566610778 0 1 0 I I #
coedge $-1 $289 $203 $206 $300 forward $119 $-1 #
vertex $-1 $204 $366 #
straight-curve $-1 43.28340706111063 19.852605509626571 14.896233130707657 1 0 0 I I #
straight-curve $-1 -4.866630254035357 19.852605509626571 93.528636532917687 -0.54463902268945019 0 0.83867057594974714 I I #
edge $-1 $208 19.852605509626571 $367 30.813728796054281 $206 $368 forward 7 unknown #
point $-1 54.510940885647145 19.852605509626571 14.896233130707659 #
point $-1 54.510940885647145 19.852605509626571 2.0951921566610849 #
edge $-1 $369 1 $369 0 $211 $-1 forward 7 unknown #
vertex $-1 $212 $370 #
ellipse-curve $-1 49.029137751541256 22.984355020034489 7.6350809313880221 0.83867057594974714 0 0.54463902268945019 0.54463902268945019 0 -0.83867057594974714 1 I I #
point $-1 50.899033437383451 22.984355020034489 7.6570420677346203 #
edge $-1 $371 1 $371 0 $215 $-1 forward 7 unknown #
vertex $-1 $216 $372 #
ellipse-curve $-1 49.029137751541256 27.681979285646367 7.6350809313880221 0.83867057594974714 0 0.54463902268945019 0.54463902268945019 0 -0.83867057594974714 1 I I #
point $-1 50.899033437383451 27.681979285646367 7.6570420677346203 #
plane-surface $-1 54.510940885647145 0 0 -1 0 0 0 0 1 forward_v I I I I #
coedge $-1 $224 $222 $226 $316 reversed $141 $-1 #
edge $-1 $237 -14.896233130707659 $318 14.896233130707659 $236 $373 forward 7 unknown #
vertex $-1 $316 $374 #
straight-curve $-1 -54.510940885647145 -30.813728796054281 0 0 0 -1 I I #
edge $-1 $314 -30.813728796054281 $318 30.813728796054281 $312 $375 forward 7 unknown #
straight-curve $-1 0 -30.813728796054281 -14.896233130707659 -1 0 0 I I #
vertex $-1 $229 $376 #
straight-curve $-1 0 30.813728796054281 -14.896233130707659 1 0 0 I I #
point $-1 54.510940885647145 30.813728796054281 -14.896233130707659 #
point $-1 54.510940885647145 -30.813728796054281 -14.896233130707659 #
straight-curve $-1 -54.510940885647145 0 14.896233130707659 0 -1 0 I I #
point $-1 -54.510940885647145 30.813728796054281 14.896233130707659 #
point $-1 -54.510940885647145 -30.813728796054281 14.896233130707659 #
straight-curve $-1 54.510940885647145 -30.813728796054281 0 0 0 -1 I I #
straight-curve $-1 54.510940885647145 30.813728796054281 0 0 0 -1 I I #
loop $-1 $-1 $335 $246 #
plane-surface $-1 -54.510940885647145 0 0 1 0 0 0 0 -1 forward_v I I I I #
coedge $-1 $250 $249 $341 $377 forward $96 $-1 #
edge $-1 $254 16.903428361043236 $344 30.813728796054281 $253 $378 forward 7 unknown #
coedge $-1 $338 $335 $250 $332 reversed $327 $-1 #
edge $-1 $379 -30.813728796054281 $333 -16.903428361043236 $331 $380 forward 7 unknown #
vertex $-1 $336 $381 #
straight-curve $-1 0 -16.903428361043236 -14.896233130707659 1 0 0 I I #
coedge $-1 $331 $256 $252 $336 forward $327 $-1 #
edge $-1 $258 3.0405508968308208 $333 8.9173051215281642 $335 $382 forward 7 unknown #
point $-1 54.510940885647145 -16.903428361043236 -14.896233130707657 #
coedge $-1 $256 $331 $260 $342 reversed $327 $-1 #
straight-curve $-1 -54.510940885647145 -11.929289289274379 -9.0194789060103133 0 1 0 I I #
point $-1 -54.510940885647145 -16.903428361043236 -9.0194789060103133 #
coedge $-1 $261 $260 $329 $377 reversed $247 $-1 #
edge $-1 $262 9.0194789060103133 $379 14.896233130707659 $338 $383 forward 7 unknown #
point $-1 -54.510940885647145 -30.813728796054281 -9.0194789060103133 #
vertex $-1 $264 $384 #
straight-curve $-1 54.510940885647145 -30.813728796054281 0 0 0 -1 I I #
coedge $-1 $268 $276 $269 $348 forward $176 $-1 #
edge $-1 $350 -18.388666912107603 $277 -6.461456855785757 $268 $385 forward 7 unknown #
edge $-1 $354 -14.896233130707659 $350 -1.7187038069023686 $269 $386 forward 7 unknown #
edge $-1 $274 38.806573301413991 $354 54.510940885647145 $270 $387 forward 7 unknown #
vertex $-1 $271 $388 #
straight-curve $-1 -38.939922764216561 30.813728796054281 14.784339643308725 -0.76604443648966558 0 -0.64278761758704617 I I #
point $-1 -38.806573301413991 30.813728796054285 14.896233130707657 #
point $-1 -54.510940885647145 18.886518739732438 1.7187038069023686 #
vertex $-1 $349 $389 #
straight-curve $-1 -54.510940885647145 0 14.896233130707659 0 -1 0 I I #
vertex $-1 $283 $390 #
point $-1 -41.988678893666133 24.850123767893361 5.0754718246000774 #
coedge $-1 $359 $288 $289 $360 reversed $196 $-1 #
coedge $-1 $288 $358 $293 $364 forward $196 $-1 #
edge $-1 $367 -54.510940885647145 $361 -46.19784794374084 $358 $391 forward 7 unknown #
vertex $-1 $292 $392 #
straight-curve $-1 46.19784794374084 12.666583576420214 14.896233130707657 0 -1 0 I I #
straight-curve $-1 17.215833050147786 30.813728796054281 59.524623882012989 -0.54463902268945019 0 0.83867057594974714 I I #
edge $-1 $367 -14.896233130707659 $294 -2.0951921566610792 $293 $393 forward 7 unknown #
point $-1 54.510940885647145 30.813728796054281 2.0951921566610792 #
point $-1 46.19784794374084 19.852605509626571 14.896233130707657 #
vertex $-1 $300 $394 #
straight-curve $-1 54.510940885647145 0 14.896233130707659 0 1 0 I I #
vertex $-1 $303 $395 #
point $-1 49.573776774230708 22.984355020034489 6.7964103554382751 #
vertex $-1 $307 $396 #
point $-1 49.573776774230708 27.681979285646367 6.7964103554382751 #
straight-curve $-1 -54.510940885647145 30.813728796054281 0 0 0 -1 I I #
point $-1 -54.510940885647145 -30.813728796054281 -14.896233130707659 #
straight-curve $-1 -54.510940885647145 0 -14.896233130707659 0 1 0 I I #
point $-1 -54.510940885647145 30.813728796054281 -14.896233130707659 #
edge $-1 $344 -54.510940885647145 $379 54.510940885647145 $341 $397 forward 7 unknown #
straight-curve $-1 54.510940885647145 0 -14.896233130707659 0 -1 0 I I #
vertex $-1 $332 $398 #
straight-curve $-1 -54.510940885647145 0 -14.896233130707659 0 1 0 I I #
point $-1 -54.510940885647145 -16.903428361043236 -14.896233130707657 #
straight-curve $-1 -54.510940885647145 -16.903428361043236 -5.9789280091794925 0 0 -1 I I #
straight-curve $-1 -54.510940885647145 -30.813728796054281 0 0 0 -1 I I #
point $-1 54.510940885647145 -30.813728796054281 -14.896233130707659 #
straight-curve $-1 -54.510940885647145 12.425061883946681 1.7187038069023663 0 -1 0 I I #
straight-curve $-1 -54.510940885647145 30.813728796054281 0 0 0 -1 I I #
straight-curve $-1 0 30.813728796054281 14.896233130707659 -1 0 0 I I #
point $-1 -54.510940885647145 30.813728796054285 1.7187038069023686 #
point $-1 -54.510940885647145 30.813728796054281 14.896233130707659 #
point $-1 -42.173564122020068 24.850123767893361 2.9622237434850098 #
straight-curve $-1 0 30.813728796054281 14.896233130707659 -1 0 0 I I #
point $-1 46.19784794374084 30.813728796054285 14.896233130707657 #
straight-curve $-1 54.510940885647145 30.813728796054281 0 0 0 -1 I I #
point $-1 54.510940885647145 30.813728796054281 14.896233130707659 #
point $-1 48.190467175591507 22.984355020034489 7.0904419086985717 #
point $-1 48.190467175591507 27.681979285646367 7.0904419086985717 #
straight-curve $-1 0 -30.813728796054281 -14.896233130707659 -1 0 0 I I #
point $-1 -54.510940885647145 -30.813728796054281 -14.896233130707659 #
End-of-ACIS-data 