500 0 9 0           
7 Unknown 11 ACIS 5.0 NT 24 Fri Mar 26 20:10:58 1999 
-1 9.9999999999999995e-007 1e-010 
body $-1 $9 $-1 $10 #
body $-1 $11 $-1 $12 #
body $-1 $13 $-1 $14 #
body $-1 $15 $-1 $16 #
body $-1 $17 $-1 $18 #
body $-1 $19 $-1 $20 #
body $-1 $21 $-1 $22 #
body $-1 $23 $-1 $24 #
body $-1 $25 $-1 $26 #
lump $-1 $-1 $27 $0 #
transform $-1 1 0 0 0 1 0 0 0 1 59.884640034180734 32.869936364963351 11.580465693667712 1 rotate no_reflect no_shear #
lump $-1 $-1 $28 $1 #
transform $-1 1 0 0 0 1 0 0 0 1 59.884640034180734 4.2107417225677999 19.923794160212118 1 rotate no_reflect no_shear #
lump $-1 $-1 $29 $2 #
transform $-1 0.55919289150049634 0 0.82903758062907751 0 1 0 -0.82903758062907751 0 0.55919289150049634 -99.293234181560777 62.503436754234002 82.003855474632076 1 rotate no_reflect no_shear #
lump $-1 $-1 $30 $3 #
transform $-1 0.55919289150049634 0 0.82903758062907751 0 -1 0 0.82903758062907751 0 -0.55919289150049634 3.778580722123916 61.116392764651422 18.396337299428222 1 rotate no_reflect no_shear #
lump $-1 $-1 $31 $4 #
transform $-1 0.55919289150049634 0 0.82903758062907751 0 -1 0 0.82903758062907751 0 -0.55919289150049634 3.778580722123916 63.890480743816589 18.396337299428222 1 rotate no_reflect no_shear #
lump $-1 $-1 $32 $5 #
transform $-1 0.65605901945558964 0 -0.75470958851134928 0 1 0 0.75470958851134928 0 0.65605901945558964 131.58458770250397 36.080895700405947 180.90412551405291 1 rotate no_reflect no_shear #
lump $-1 $-1 $33 $6 #
transform $-1 0.65605901945558964 0 -0.75470958851134928 0 -1 0 -0.75470958851134928 0 -0.65605901945558964 113.09487650095254 31.919166806214275 15.98777696777654 1 rotate no_reflect no_shear #
lump $-1 $-1 $34 $7 #
transform $-1 0.65605901945558964 0 -0.75470958851134928 0 -1 0 -0.75470958851134928 0 -0.65605901945558964 113.09487650095254 36.080895700405947 15.98777696777654 1 rotate no_reflect no_shear #
lump $-1 $-1 $35 $8 #
transform $-1 0.65605901945558964 0 -0.75470958851134928 0 -1 0 -0.75470958851134928 0 -0.65605901945558964 113.09487650095254 40.242624594597615 15.98777696777654 1 rotate no_reflect no_shear #
shell $-1 $-1 $-1 $36 $-1 $9 #
shell $-1 $-1 $-1 $37 $-1 $11 #
shell $-1 $-1 $-1 $38 $-1 $13 #
shell $-1 $-1 $-1 $39 $-1 $15 #
shell $-1 $-1 $-1 $40 $-1 $17 #
shell $-1 $-1 $-1 $41 $-1 $19 #
shell $-1 $-1 $-1 $42 $-1 $21 #
shell $-1 $-1 $-1 $43 $-1 $23 #
shell $-1 $-1 $-1 $44 $-1 $25 #
face $-1 $45 $46 $27 $-1 $47 forward single #
face $-1 $48 $49 $28 $-1 $50 forward single #
face $-1 $51 $52 $29 $-1 $53 forward single #
face $-1 $54 $55 $30 $-1 $56 forward single #
face $-1 $57 $58 $31 $-1 $59 forward single #
face $-1 $60 $61 $32 $-1 $62 forward single #
face $-1 $63 $64 $33 $-1 $65 forward single #
face $-1 $66 $67 $34 $-1 $68 forward single #
face $-1 $69 $70 $35 $-1 $71 forward single #
face $-1 $72 $73 $27 $-1 $74 reversed single #
loop $-1 $-1 $75 $36 #
plane-surface $-1 0 0 11.580465693667712 0 0 1 1 0 0 forward_v I I I I #
face $-1 $76 $77 $28 $-1 $78 reversed single #
loop $-1 $-1 $79 $37 #
plane-surface $-1 0 0 3.2371372271233074 0 0 1 1 0 0 forward_v I I I I #
face $-1 $80 $81 $29 $-1 $82 reversed single #
loop $-1 $-1 $83 $38 #
plane-surface $-1 0 0 119.76928006836147 0 0 1 1 0 0 forward_v I I I I #
face $-1 $84 $85 $30 $-1 $86 forward single #
loop $-1 $87 $88 $39 #
cone-surface $-1 0 0 -0.75 0 0 1 0.5 0 0 1 I I 0 1 0.5 forward I I I I #
face $-1 $89 $90 $31 $-1 $91 forward single #
loop $-1 $92 $93 $40 #
cone-surface $-1 0 0 -0.75 0 0 1 0.5 0 0 1 I I 0 1 0.5 forward I I I I #
face $-1 $94 $95 $32 $-1 $96 reversed single #
loop $-1 $-1 $97 $41 #
plane-surface $-1 0 0 119.76928006836147 0 0 1 1 0 0 forward_v I I I I #
face $-1 $98 $99 $33 $-1 $100 forward single #
loop $-1 $101 $102 $42 #
cone-surface $-1 0 0 -1.4399700918607135 0 0 1 1 0 0 1 I I 0 1 1 forward I I I I #
face $-1 $103 $104 $34 $-1 $105 forward single #
loop $-1 $106 $107 $43 #
cone-surface $-1 0 0 -1.4399700918607135 0 0 1 1 0 0 1 I I 0 1 1 forward I I I I #
face $-1 $108 $109 $35 $-1 $110 forward single #
loop $-1 $111 $112 $44 #
cone-surface $-1 0 0 -1.4399700918607135 0 0 1 1 0 0 1 I I 0 1 1 forward I I I I #
face $-1 $113 $114 $27 $-1 $115 reversed single #
loop $-1 $-1 $116 $45 #
plane-surface $-1 0 0 -11.580465693667712 0 0 1 1 0 0 forward_v I I I I #
coedge $-1 $117 $118 $119 $120 forward $46 $-1 #
face $-1 $121 $122 $28 $-1 $123 reversed single #
loop $-1 $-1 $124 $48 #
plane-surface $-1 0 0 -3.2371372271233074 0 0 1 1 0 0 forward_v I I I I #
coedge $-1 $125 $126 $127 $128 forward $49 $-1 #
face $-1 $129 $130 $29 $-1 $131 reversed single #
loop $-1 $-1 $132 $51 #
plane-surface $-1 0 0 -119.76928006836147 0 0 1 1 0 0 forward_v I I I I #
coedge $-1 $133 $134 $135 $136 forward $52 $-1 #
face $-1 $-1 $137 $30 $-1 $138 forward single #
loop $-1 $-1 $139 $54 #
plane-surface $-1 0 0 -1.25 0 0 -1 -1 0 0 forward_v I I I I #
loop $-1 $-1 $140 $39 #
coedge $-1 $88 $88 $139 $141 reversed $55 $-1 #
face $-1 $-1 $142 $31 $-1 $143 forward single #
loop $-1 $-1 $144 $57 #
plane-surface $-1 0 0 -1.25 0 0 -1 -1 0 0 forward_v I I I I #
loop $-1 $-1 $145 $40 #
coedge $-1 $93 $93 $144 $146 reversed $58 $-1 #
face $-1 $147 $148 $32 $-1 $149 reversed single #
loop $-1 $-1 $150 $60 #
plane-surface $-1 0 0 -119.76928006836147 0 0 1 1 0 0 forward_v I I I I #
coedge $-1 $151 $152 $153 $154 forward $61 $-1 #
face $-1 $-1 $155 $33 $-1 $156 forward single #
loop $-1 $-1 $157 $63 #
plane-surface $-1 0 0 -2.3799401837214269 0 0 -1 -1 0 0 forward_v I I I I #
loop $-1 $-1 $158 $42 #
coedge $-1 $102 $102 $157 $159 reversed $64 $-1 #
face $-1 $-1 $160 $34 $-1 $161 forward single #
loop $-1 $-1 $162 $66 #
plane-surface $-1 0 0 -2.3799401837214269 0 0 -1 -1 0 0 forward_v I I I I #
loop $-1 $-1 $163 $43 #
coedge $-1 $107 $107 $162 $164 reversed $67 $-1 #
face $-1 $-1 $165 $35 $-1 $166 forward single #
loop $-1 $-1 $167 $69 #
plane-surface $-1 0 0 -2.3799401837214269 0 0 -1 -1 0 0 forward_v I I I I #
loop $-1 $-1 $168 $44 #
coedge $-1 $112 $112 $167 $169 reversed $70 $-1 #
face $-1 $170 $171 $27 $-1 $172 reversed single #
loop $-1 $-1 $173 $72 #
plane-surface $-1 0 -32.869936364963351 0 0 1 0 0 0 1 forward_v I I I I #
coedge $-1 $174 $175 $176 $177 forward $73 $-1 #
coedge $-1 $178 $75 $179 $180 forward $46 $-1 #
coedge $-1 $75 $178 $181 $182 forward $46 $-1 #
coedge $-1 $183 $184 $75 $120 reversed $185 $-1 #
edge $-1 $186 -32.869936364963351 $187 32.869936364963351 $119 $188 forward 7 unknown #
face $-1 $189 $190 $28 $-1 $191 reversed single #
loop $-1 $-1 $192 $76 #
plane-surface $-1 0 -4.2107417225677999 0 0 1 0 0 0 1 forward_v I I I I #
coedge $-1 $193 $194 $195 $196 forward $77 $-1 #
coedge $-1 $197 $79 $198 $199 forward $49 $-1 #
coedge $-1 $79 $197 $200 $201 forward $49 $-1 #
coedge $-1 $202 $203 $79 $128 reversed $204 $-1 #
edge $-1 $205 -4.2107417225677999 $206 4.2107417225677999 $127 $207 forward 7 unknown #
face $-1 $208 $209 $29 $-1 $210 reversed single #
loop $-1 $-1 $211 $80 #
plane-surface $-1 0 -3.2364359756926966 0 0 1 0 0 0 1 forward_v I I I I #
coedge $-1 $212 $213 $214 $215 forward $81 $-1 #
coedge $-1 $216 $83 $217 $218 forward $52 $-1 #
coedge $-1 $83 $216 $219 $220 forward $52 $-1 #
coedge $-1 $221 $222 $83 $136 reversed $223 $-1 #
edge $-1 $224 -3.2364359756926966 $225 3.2364359756926966 $135 $226 forward 7 unknown #
loop $-1 $227 $228 $84 #
cone-surface $-1 0 0 0 0 0 1 0.25 0 0 1 I I -0.70710678118654746 0.70710678118654746 0.25 forward I I I I #
coedge $-1 $139 $139 $88 $141 forward $85 $-1 #
coedge $-1 $140 $140 $228 $229 forward $87 $-1 #
edge $-1 $230 0 $230 6.2831853071796004 $139 $231 forward 7 unknown #
loop $-1 $232 $233 $89 #
cone-surface $-1 0 0 0 0 0 1 0.25 0 0 1 I I -0.70710678118654746 0.70710678118654746 0.25 forward I I I I #
coedge $-1 $144 $144 $93 $146 forward $90 $-1 #
coedge $-1 $145 $145 $233 $234 forward $92 $-1 #
edge $-1 $235 0 $235 6.2831853071796004 $144 $236 forward 7 unknown #
face $-1 $237 $238 $32 $-1 $239 reversed single #
loop $-1 $-1 $240 $94 #
plane-surface $-1 0 -6.9362148236527847 0 0 1 0 0 0 1 forward_v I I I I #
coedge $-1 $241 $242 $243 $244 forward $95 $-1 #
coedge $-1 $245 $97 $246 $247 forward $61 $-1 #
coedge $-1 $97 $245 $248 $249 forward $61 $-1 #
coedge $-1 $250 $251 $97 $154 reversed $252 $-1 #
edge $-1 $253 -6.9362148236527847 $254 6.9362148236527847 $153 $255 forward 7 unknown #
loop $-1 $256 $257 $98 #
cone-surface $-1 0 0 0 0 0 1 0.5 0 0 1 I I -0.70710678118654746 0.70710678118654746 0.5 forward I I I I #
coedge $-1 $157 $157 $102 $159 forward $99 $-1 #
coedge $-1 $158 $158 $257 $258 forward $101 $-1 #
edge $-1 $259 0 $259 6.2831853071796004 $157 $260 forward 7 unknown #
loop $-1 $261 $262 $103 #
cone-surface $-1 0 0 0 0 0 1 0.5 0 0 1 I I -0.70710678118654746 0.70710678118654746 0.5 forward I I I I #
coedge $-1 $162 $162 $107 $164 forward $104 $-1 #
coedge $-1 $163 $163 $262 $263 forward $106 $-1 #
edge $-1 $264 0 $264 6.2831853071796004 $162 $265 forward 7 unknown #
loop $-1 $266 $267 $108 #
cone-surface $-1 0 0 0 0 0 1 0.5 0 0 1 I I -0.70710678118654746 0.70710678118654746 0.5 forward I I I I #
coedge $-1 $167 $167 $112 $169 forward $109 $-1 #
coedge $-1 $168 $168 $267 $268 forward $111 $-1 #
edge $-1 $269 0 $269 6.2831853071796004 $167 $270 forward 7 unknown #
face $-1 $271 $272 $27 $-1 $273 reversed single #
loop $-1 $-1 $274 $113 #
plane-surface $-1 -59.884640034180734 0 0 1 0 0 0 0 -1 forward_v I I I I #
coedge $-1 $275 $181 $276 $277 forward $114 $-1 #
coedge $-1 $278 $116 $275 $279 forward $73 $-1 #
coedge $-1 $116 $278 $280 $281 forward $73 $-1 #
coedge $-1 $184 $183 $116 $177 reversed $185 $-1 #
edge $-1 $282 -32.869936364963351 $283 32.869936364963351 $176 $284 forward 7 unknown #
coedge $-1 $118 $117 $285 $286 forward $46 $-1 #
coedge $-1 $287 $288 $117 $180 reversed $272 $-1 #
edge $-1 $187 -59.884640034180734 $289 59.884640034180734 $179 $290 forward 7 unknown #
coedge $-1 $173 $291 $118 $182 reversed $114 $-1 #
edge $-1 $292 -59.884640034180734 $186 59.884640034180734 $181 $293 forward 7 unknown #
coedge $-1 $176 $119 $291 $294 forward $185 $-1 #
coedge $-1 $119 $176 $287 $295 reversed $185 $-1 #
loop $-1 $-1 $183 $271 #
vertex $-1 $120 $296 #
vertex $-1 $120 $297 #
straight-curve $-1 59.884640034180734 0 11.580465693667712 0 1 0 I I #
face $-1 $298 $299 $28 $-1 $300 reversed single #
loop $-1 $-1 $301 $121 #
plane-surface $-1 -59.884640034180734 0 0 1 0 0 0 0 -1 forward_v I I I I #
coedge $-1 $302 $200 $303 $304 forward $122 $-1 #
coedge $-1 $305 $124 $302 $306 forward $77 $-1 #
coedge $-1 $124 $305 $307 $308 forward $77 $-1 #
coedge $-1 $203 $202 $124 $196 reversed $204 $-1 #
edge $-1 $309 -4.2107417225677999 $310 4.2107417225677999 $195 $311 forward 7 unknown #
coedge $-1 $126 $125 $312 $313 forward $49 $-1 #
coedge $-1 $314 $315 $125 $199 reversed $299 $-1 #
edge $-1 $206 -59.884640034180734 $316 59.884640034180734 $198 $317 forward 7 unknown #
coedge $-1 $192 $318 $126 $201 reversed $122 $-1 #
edge $-1 $319 -59.884640034180734 $205 59.884640034180734 $200 $320 forward 7 unknown #
coedge $-1 $195 $127 $318 $321 forward $204 $-1 #
coedge $-1 $127 $195 $314 $322 reversed $204 $-1 #
loop $-1 $-1 $202 $298 #
vertex $-1 $128 $323 #
vertex $-1 $128 $324 #
straight-curve $-1 59.884640034180734 0 3.2371372271233074 0 1 0 I I #
face $-1 $325 $326 $29 $-1 $327 reversed single #
loop $-1 $-1 $328 $129 #
plane-surface $-1 -239.53856013672294 0 0 1 0 0 0 0 -1 forward_v I I I I #
coedge $-1 $329 $219 $330 $331 forward $130 $-1 #
coedge $-1 $332 $132 $329 $333 forward $81 $-1 #
coedge $-1 $132 $332 $334 $335 forward $81 $-1 #
coedge $-1 $222 $221 $132 $215 reversed $223 $-1 #
edge $-1 $336 -3.2364359756926966 $337 3.2364359756926966 $214 $338 forward 7 unknown #
coedge $-1 $134 $133 $339 $340 forward $52 $-1 #
coedge $-1 $341 $342 $133 $218 reversed $326 $-1 #
edge $-1 $225 -239.53856013672294 $343 239.53856013672294 $217 $344 forward 7 unknown #
coedge $-1 $211 $345 $134 $220 reversed $130 $-1 #
edge $-1 $346 -239.53856013672294 $224 239.53856013672294 $219 $347 forward 7 unknown #
coedge $-1 $214 $135 $345 $348 forward $223 $-1 #
coedge $-1 $135 $214 $341 $349 reversed $223 $-1 #
loop $-1 $-1 $221 $325 #
vertex $-1 $136 $350 #
vertex $-1 $136 $351 #
straight-curve $-1 239.53856013672294 0 119.76928006836147 0 1 0 I I #
loop $-1 $-1 $352 $84 #
coedge $-1 $228 $228 $140 $229 reversed $137 $-1 #
edge $-1 $353 0 $353 6.2831853071796004 $228 $354 forward 7 unknown #
vertex $-1 $141 $355 #
ellipse-curve $-1 0 0 -1.25 0 0 -1 0.5 0 0 1 I I #
loop $-1 $-1 $356 $89 #
coedge $-1 $233 $233 $145 $234 reversed $142 $-1 #
edge $-1 $357 0 $357 6.2831853071796004 $233 $358 forward 7 unknown #
vertex $-1 $146 $359 #
ellipse-curve $-1 0 0 -1.25 0 0 -1 0.5 0 0 1 I I #
face $-1 $360 $361 $32 $-1 $362 reversed single #
loop $-1 $-1 $363 $147 #
plane-surface $-1 -239.53856013672294 0 0 1 0 0 0 0 -1 forward_v I I I I #
coedge $-1 $364 $248 $365 $366 forward $148 $-1 #
coedge $-1 $367 $150 $364 $368 forward $95 $-1 #
coedge $-1 $150 $367 $369 $370 forward $95 $-1 #
coedge $-1 $251 $250 $150 $244 reversed $252 $-1 #
edge $-1 $371 -6.9362148236527847 $372 6.9362148236527847 $243 $373 forward 7 unknown #
coedge $-1 $152 $151 $374 $375 forward $61 $-1 #
coedge $-1 $376 $377 $151 $247 reversed $361 $-1 #
edge $-1 $254 -239.53856013672294 $378 239.53856013672294 $246 $379 forward 7 unknown #
coedge $-1 $240 $380 $152 $249 reversed $148 $-1 #
edge $-1 $381 -239.53856013672294 $253 239.53856013672294 $248 $382 forward 7 unknown #
coedge $-1 $243 $153 $380 $383 forward $252 $-1 #
coedge $-1 $153 $243 $376 $384 reversed $252 $-1 #
loop $-1 $-1 $250 $360 #
vertex $-1 $154 $385 #
vertex $-1 $154 $386 #
straight-curve $-1 239.53856013672294 0 119.76928006836147 0 1 0 I I #
loop $-1 $-1 $387 $98 #
coedge $-1 $257 $257 $158 $258 reversed $155 $-1 #
edge $-1 $388 0 $388 6.2831853071796004 $257 $389 forward 7 unknown #
vertex $-1 $159 $390 #
ellipse-curve $-1 0 0 -2.3799401837214269 0 0 -1 1 0 0 1 I I #
loop $-1 $-1 $391 $103 #
coedge $-1 $262 $262 $163 $263 reversed $160 $-1 #
edge $-1 $392 0 $392 6.2831853071796004 $262 $393 forward 7 unknown #
vertex $-1 $164 $394 #
ellipse-curve $-1 0 0 -2.3799401837214269 0 0 -1 1 0 0 1 I I #
loop $-1 $-1 $395 $108 #
coedge $-1 $267 $267 $168 $268 reversed $165 $-1 #
edge $-1 $396 0 $396 6.2831853071796004 $267 $397 forward 7 unknown #
vertex $-1 $169 $398 #
ellipse-curve $-1 0 0 -2.3799401837214269 0 0 -1 1 0 0 1 I I #
face $-1 $-1 $185 $27 $-1 $399 reversed single #
loop $-1 $-1 $287 $170 #
plane-surface $-1 0 32.869936364963351 0 0 -1 0 0 0 -1 forward_v I I I I #
coedge $-1 $400 $285 $288 $401 forward $171 $-1 #
coedge $-1 $291 $173 $174 $279 reversed $114 $-1 #
coedge $-1 $285 $400 $173 $277 reversed $171 $-1 #
edge $-1 $292 -11.580465693667712 $402 11.580465693667712 $276 $403 forward 7 unknown #
coedge $-1 $175 $174 $400 $404 forward $73 $-1 #
edge $-1 $283 -59.884640034180734 $402 59.884640034180734 $275 $405 forward 7 unknown #
coedge $-1 $288 $287 $175 $281 reversed $272 $-1 #
edge $-1 $406 -59.884640034180734 $282 59.884640034180734 $280 $407 forward 7 unknown #
vertex $-1 $177 $408 #
vertex $-1 $294 $409 #
straight-curve $-1 59.884640034180734 0 -11.580465693667712 0 -1 0 I I #
coedge $-1 $274 $276 $178 $286 reversed $171 $-1 #
edge $-1 $289 -32.869936364963351 $292 32.869936364963351 $285 $410 forward 7 unknown #
coedge $-1 $280 $179 $184 $295 forward $272 $-1 #
coedge $-1 $179 $280 $274 $401 reversed $272 $-1 #
vertex $-1 $180 $411 #
straight-curve $-1 0 32.869936364963351 11.580465693667712 -1 0 0 I I #
coedge $-1 $181 $275 $183 $294 reversed $114 $-1 #
vertex $-1 $286 $412 #
straight-curve $-1 0 -32.869936364963351 11.580465693667712 1 0 0 I I #
edge $-1 $186 -11.580465693667712 $283 11.580465693667712 $183 $413 forward 7 unknown #
edge $-1 $187 -11.580465693667712 $282 11.580465693667712 $184 $414 forward 7 unknown #
point $-1 59.884640034180734 -32.869936364963351 11.580465693667712 #
point $-1 59.884640034180734 32.869936364963351 11.580465693667712 #
face $-1 $-1 $204 $28 $-1 $415 reversed single #
loop $-1 $-1 $314 $189 #
plane-surface $-1 0 4.2107417225677999 0 0 -1 0 0 0 -1 forward_v I I I I #
coedge $-1 $416 $312 $315 $417 forward $190 $-1 #
coedge $-1 $318 $192 $193 $306 reversed $122 $-1 #
coedge $-1 $312 $416 $192 $304 reversed $190 $-1 #
edge $-1 $319 -3.2371372271233074 $418 3.2371372271233074 $303 $419 forward 7 unknown #
coedge $-1 $194 $193 $416 $420 forward $77 $-1 #
edge $-1 $310 -59.884640034180734 $418 59.884640034180734 $302 $421 forward 7 unknown #
coedge $-1 $315 $314 $194 $308 reversed $299 $-1 #
edge $-1 $422 -59.884640034180734 $309 59.884640034180734 $307 $423 forward 7 unknown #
vertex $-1 $196 $424 #
vertex $-1 $321 $425 #
straight-curve $-1 59.884640034180734 0 -3.2371372271233074 0 -1 0 I I #
coedge $-1 $301 $303 $197 $313 reversed $190 $-1 #
edge $-1 $316 -4.2107417225677999 $319 4.2107417225677999 $312 $426 forward 7 unknown #
coedge $-1 $307 $198 $203 $322 forward $299 $-1 #
coedge $-1 $198 $307 $301 $417 reversed $299 $-1 #
vertex $-1 $199 $427 #
straight-curve $-1 0 4.2107417225677999 3.2371372271233074 -1 0 0 I I #
coedge $-1 $200 $302 $202 $321 reversed $122 $-1 #
vertex $-1 $313 $428 #
straight-curve $-1 0 -4.2107417225677999 3.2371372271233074 1 0 0 I I #
edge $-1 $205 -3.2371372271233074 $310 3.2371372271233074 $202 $429 forward 7 unknown #
edge $-1 $206 -3.2371372271233074 $309 3.2371372271233074 $203 $430 forward 7 unknown #
point $-1 59.884640034180734 -4.2107417225677999 3.2371372271233074 #
point $-1 59.884640034180734 4.2107417225677999 3.2371372271233074 #
face $-1 $-1 $223 $29 $-1 $431 reversed single #
loop $-1 $-1 $341 $208 #
plane-surface $-1 0 3.2364359756926966 0 0 -1 0 0 0 -1 forward_v I I I I #
coedge $-1 $432 $339 $342 $433 forward $209 $-1 #
coedge $-1 $345 $211 $212 $333 reversed $130 $-1 #
coedge $-1 $339 $432 $211 $331 reversed $209 $-1 #
edge $-1 $346 -119.76928006836147 $434 119.76928006836147 $330 $435 forward 7 unknown #
coedge $-1 $213 $212 $432 $436 forward $81 $-1 #
edge $-1 $337 -239.53856013672294 $434 239.53856013672294 $329 $437 forward 7 unknown #
coedge $-1 $342 $341 $213 $335 reversed $326 $-1 #
edge $-1 $438 -239.53856013672294 $336 239.53856013672294 $334 $439 forward 7 unknown #
vertex $-1 $215 $440 #
vertex $-1 $348 $441 #
straight-curve $-1 239.53856013672294 0 -119.76928006836147 0 -1 0 I I #
coedge $-1 $328 $330 $216 $340 reversed $209 $-1 #
edge $-1 $343 -3.2364359756926966 $346 3.2364359756926966 $339 $442 forward 7 unknown #
coedge $-1 $334 $217 $222 $349 forward $326 $-1 #
coedge $-1 $217 $334 $328 $433 reversed $326 $-1 #
vertex $-1 $218 $443 #
straight-curve $-1 0 3.2364359756926966 119.76928006836147 -1 0 0 I I #
coedge $-1 $219 $329 $221 $348 reversed $130 $-1 #
vertex $-1 $340 $444 #
straight-curve $-1 0 -3.2364359756926966 119.76928006836147 1 0 0 I I #
edge $-1 $224 -119.76928006836147 $337 119.76928006836147 $221 $445 forward 7 unknown #
edge $-1 $225 -119.76928006836147 $336 119.76928006836147 $222 $446 forward 7 unknown #
point $-1 239.53856013672294 -3.2364359756926966 119.76928006836147 #
point $-1 239.53856013672294 3.2364359756926966 119.76928006836147 #
coedge $-1 $352 $352 $-1 $447 reversed $227 $-1 #
vertex $-1 $229 $448 #
ellipse-curve $-1 0 0 -0.25 0 0 -1 0.5 0 0 1 I I #
point $-1 0.5 0 -1.25 #
coedge $-1 $356 $356 $-1 $449 reversed $232 $-1 #
vertex $-1 $234 $450 #
ellipse-curve $-1 0 0 -0.25 0 0 -1 0.5 0 0 1 I I #
point $-1 0.5 0 -1.25 #
face $-1 $-1 $252 $32 $-1 $451 reversed single #
loop $-1 $-1 $376 $237 #
plane-surface $-1 0 6.9362148236527847 0 0 -1 0 0 0 -1 forward_v I I I I #
coedge $-1 $452 $374 $377 $453 forward $238 $-1 #
coedge $-1 $380 $240 $241 $368 reversed $148 $-1 #
coedge $-1 $374 $452 $240 $366 reversed $238 $-1 #
edge $-1 $381 -119.76928006836147 $454 119.76928006836147 $365 $455 forward 7 unknown #
coedge $-1 $242 $241 $452 $456 forward $95 $-1 #
edge $-1 $372 -239.53856013672294 $454 239.53856013672294 $364 $457 forward 7 unknown #
coedge $-1 $377 $376 $242 $370 reversed $361 $-1 #
edge $-1 $458 -239.53856013672294 $371 239.53856013672294 $369 $459 forward 7 unknown #
vertex $-1 $244 $460 #
vertex $-1 $383 $461 #
straight-curve $-1 239.53856013672294 0 -119.76928006836147 0 -1 0 I I #
coedge $-1 $363 $365 $245 $375 reversed $238 $-1 #
edge $-1 $378 -6.9362148236527847 $381 6.9362148236527847 $374 $462 forward 7 unknown #
coedge $-1 $369 $246 $251 $384 forward $361 $-1 #
coedge $-1 $246 $369 $363 $453 reversed $361 $-1 #
vertex $-1 $247 $463 #
straight-curve $-1 0 6.9362148236527847 119.76928006836147 -1 0 0 I I #
coedge $-1 $248 $364 $250 $383 reversed $148 $-1 #
vertex $-1 $375 $464 #
straight-curve $-1 0 -6.9362148236527847 119.76928006836147 1 0 0 I I #
edge $-1 $253 -119.76928006836147 $372 119.76928006836147 $250 $465 forward 7 unknown #
edge $-1 $254 -119.76928006836147 $371 119.76928006836147 $251 $466 forward 7 unknown #
point $-1 239.53856013672294 -6.9362148236527847 119.76928006836147 #
point $-1 239.53856013672294 6.9362148236527847 119.76928006836147 #
coedge $-1 $387 $387 $-1 $467 reversed $256 $-1 #
vertex $-1 $258 $468 #
ellipse-curve $-1 0 0 -0.5 0 0 -1 1 0 0 1 I I #
point $-1 1 0 -2.3799401837214269 #
coedge $-1 $391 $391 $-1 $469 reversed $261 $-1 #
vertex $-1 $263 $470 #
ellipse-curve $-1 0 0 -0.5 0 0 -1 1 0 0 1 I I #
point $-1 1 0 -2.3799401837214269 #
coedge $-1 $395 $395 $-1 $471 reversed $266 $-1 #
vertex $-1 $268 $472 #
ellipse-curve $-1 0 0 -0.5 0 0 -1 1 0 0 1 I I #
point $-1 1 0 -2.3799401837214269 #
plane-surface $-1 59.884640034180734 0 0 -1 0 0 0 0 1 forward_v I I I I #
coedge $-1 $276 $274 $278 $404 reversed $171 $-1 #
edge $-1 $289 -11.580465693667712 $406 11.580465693667712 $288 $473 forward 7 unknown #
vertex $-1 $404 $474 #
straight-curve $-1 -59.884640034180734 -32.869936364963351 0 0 0 -1 I I #
edge $-1 $402 -32.869936364963351 $406 32.869936364963351 $400 $475 forward 7 unknown #
straight-curve $-1 0 -32.869936364963351 -11.580465693667712 -1 0 0 I I #
vertex $-1 $281 $476 #
straight-curve $-1 0 32.869936364963351 -11.580465693667712 1 0 0 I I #
point $-1 59.884640034180734 32.869936364963351 -11.580465693667712 #
point $-1 59.884640034180734 -32.869936364963351 -11.580465693667712 #
straight-curve $-1 -59.884640034180734 0 11.580465693667712 0 -1 0 I I #
point $-1 -59.884640034180734 32.869936364963351 11.580465693667712 #
point $-1 -59.884640034180734 -32.869936364963351 11.580465693667712 #
straight-curve $-1 59.884640034180734 -32.869936364963351 0 0 0 -1 I I #
straight-curve $-1 59.884640034180734 32.869936364963351 0 0 0 -1 I I #
plane-surface $-1 59.884640034180734 0 0 -1 0 0 0 0 1 forward_v I I I I #
coedge $-1 $303 $301 $305 $420 reversed $190 $-1 #
edge $-1 $316 -3.2371372271233074 $422 3.2371372271233074 $315 $477 forward 7 unknown #
vertex $-1 $420 $478 #
straight-curve $-1 -59.884640034180734 -4.2107417225677999 0 0 0 -1 I I #
edge $-1 $418 -4.2107417225677999 $422 4.2107417225677999 $416 $479 forward 7 unknown #
straight-curve $-1 0 -4.2107417225677999 -3.2371372271233074 -1 0 0 I I #
vertex $-1 $308 $480 #
straight-curve $-1 0 4.2107417225677999 -3.2371372271233074 1 0 0 I I #
point $-1 59.884640034180734 4.2107417225677999 -3.2371372271233074 #
point $-1 59.884640034180734 -4.2107417225677999 -3.2371372271233074 #
straight-curve $-1 -59.884640034180734 0 3.2371372271233074 0 -1 0 I I #
point $-1 -59.884640034180734 4.2107417225677999 3.2371372271233074 #
point $-1 -59.884640034180734 -4.2107417225677999 3.2371372271233074 #
straight-curve $-1 59.884640034180734 -4.2107417225677999 0 0 0 -1 I I #
straight-curve $-1 59.884640034180734 4.2107417225677999 0 0 0 -1 I I #
plane-surface $-1 239.53856013672294 0 0 -1 0 0 0 0 1 forward_v I I I I #
coedge $-1 $330 $328 $332 $436 reversed $209 $-1 #
edge $-1 $343 -119.76928006836147 $438 119.76928006836147 $342 $481 forward 7 unknown #
vertex $-1 $436 $482 #
straight-curve $-1 -239.53856013672294 -3.2364359756926966 0 0 0 -1 I I #
edge $-1 $434 -3.2364359756926966 $438 3.2364359756926966 $432 $483 forward 7 unknown #
straight-curve $-1 0 -3.2364359756926966 -119.76928006836147 -1 0 0 I I #
vertex $-1 $335 $484 #
straight-curve $-1 0 3.2364359756926966 -119.76928006836147 1 0 0 I I #
point $-1 239.53856013672294 3.2364359756926966 -119.76928006836147 #
point $-1 239.53856013672294 -3.2364359756926966 -119.76928006836147 #
straight-curve $-1 -239.53856013672294 0 119.76928006836147 0 -1 0 I I #
point $-1 -239.53856013672294 3.2364359756926966 119.76928006836147 #
point $-1 -239.53856013672294 -3.2364359756926966 119.76928006836147 #
straight-curve $-1 239.53856013672294 -3.2364359756926966 0 0 0 -1 I I #
straight-curve $-1 239.53856013672294 3.2364359756926966 0 0 0 -1 I I #
edge $-1 $485 1 $485 0 $352 $-1 forward 7 unknown #
point $-1 0.5 0 -0.25 #
edge $-1 $486 1 $486 0 $356 $-1 forward 7 unknown #
point $-1 0.5 0 -0.25 #
plane-surface $-1 239.53856013672294 0 0 -1 0 0 0 0 1 forward_v I I I I #
coedge $-1 $365 $363 $367 $456 reversed $238 $-1 #
edge $-1 $378 -119.76928006836147 $458 119.76928006836147 $377 $487 forward 7 unknown #
vertex $-1 $456 $488 #
straight-curve $-1 -239.53856013672294 -6.9362148236527847 0 0 0 -1 I I #
edge $-1 $454 -6.9362148236527847 $458 6.9362148236527847 $452 $489 forward 7 unknown #
straight-curve $-1 0 -6.9362148236527847 -119.76928006836147 -1 0 0 I I #
vertex $-1 $370 $490 #
straight-curve $-1 0 6.9362148236527847 -119.76928006836147 1 0 0 I I #
point $-1 239.53856013672294 6.9362148236527847 -119.76928006836147 #
point $-1 239.53856013672294 -6.9362148236527847 -119.76928006836147 #
straight-curve $-1 -239.53856013672294 0 119.76928006836147 0 -1 0 I I #
point $-1 -239.53856013672294 6.9362148236527847 119.76928006836147 #
point $-1 -239.53856013672294 -6.9362148236527847 119.76928006836147 #
straight-curve $-1 239.53856013672294 -6.9362148236527847 0 0 0 -1 I I #
straight-curve $-1 239.53856013672294 6.9362148236527847 0 0 0 -1 I I #
edge $-1 $491 1 $491 0 $387 $-1 forward 7 unknown #
point $-1 1 0 -0.5 #
edge $-1 $492 1 $492 0 $391 $-1 forward 7 unknown #
point $-1 1 0 -0.5 #
edge $-1 $493 1 $493 0 $395 $-1 forward 7 unknown #
point $-1 1 0 -0.5 #
straight-curve $-1 -59.884640034180734 32.869936364963351 0 0 0 -1 I I #
point $-1 -59.884640034180734 -32.869936364963351 -11.580465693667712 #
straight-curve $-1 -59.884640034180734 0 -11.580465693667712 0 1 0 I I #
point $-1 -59.884640034180734 32.869936364963351 -11.580465693667712 #
straight-curve $-1 -59.884640034180734 4.2107417225677999 0 0 0 -1 I I #
point $-1 -59.884640034180734 -4.2107417225677999 -3.2371372271233074 #
straight-curve $-1 -59.884640034180734 0 -3.2371372271233074 0 1 0 I I #
point $-1 -59.884640034180734 4.2107417225677999 -3.2371372271233074 #
straight-curve $-1 -239.53856013672294 3.2364359756926966 0 0 0 -1 I I #
point $-1 -239.53856013672294 -3.2364359756926966 -119.76928006836147 #
straight-curve $-1 -239.53856013672294 0 -119.76928006836147 0 1 0 I I #
point $-1 -239.53856013672294 3.2364359756926966 -119.76928006836147 #
vertex $-1 $447 $494 #
vertex $-1 $449 $495 #
straight-curve $-1 -239.53856013672294 6.9362148236527847 0 0 0 -1 I I #
point $-1 -239.53856013672294 -6.9362148236527847 -119.76928006836147 #
straight-curve $-1 -239.53856013672294 0 -119.76928006836147 0 1 0 I I #
point $-1 -239.53856013672294 6.9362148236527847 -119.76928006836147 #
vertex $-1 $467 $496 #
vertex $-1 $469 $497 #
vertex $-1 $471 $498 #
point $-1 0 0 0.25 #
point $-1 0 0 0.25 #
point $-1 0 0 0.5 #
point $-1 0 0 0.5 #
point $-1 0 0 0.5 #
End-of-ACIS-data 