500 0 13 0           
7 Unknown 11 ACIS 5.0 NT 24 Thu Mar 25 18:19:38 1999 
-1 9.9999999999999995e-007 1e-010 
body $-1 $13 $-1 $14 #
body $-1 $15 $-1 $16 #
body $-1 $17 $-1 $18 #
body $-1 $19 $-1 $20 #
body $-1 $21 $-1 $22 #
body $-1 $23 $-1 $24 #
body $-1 $25 $-1 $26 #
body $-1 $27 $-1 $28 #
body $-1 $29 $-1 $30 #
body $-1 $31 $-1 $32 #
body $-1 $33 $-1 $34 #
body $-1 $35 $-1 $36 #
body $-1 $37 $-1 $38 #
lump $-1 $-1 $39 $0 #
transform $-1 1 0 0 0 1 0 0 0 1 49.641407513657029 21.594550086967597 8.5627561212488583 1 rotate no_reflect no_shear #
lump $-1 $-1 $40 $1 #
transform $-1 1 0 0 0 1 0 0 0 1 49.641407513657029 21.594550086967597 8.5627561212488583 1 rotate no_reflect no_shear #
lump $-1 $-1 $41 $2 #
transform $-1 1 0 0 0 1 0 0 0 1 49.641407513657029 21.594550086967597 8.5627561212488583 1 rotate no_reflect no_shear #
lump $-1 $-1 $42 $3 #
transform $-1 1 0 0 0 1 0 0 0 1 49.641407513657029 21.594550086967597 8.5627561212488583 1 rotate no_reflect no_shear #
lump $-1 $-1 $43 $4 #
transform $-1 1 0 0 0 1 0 0 0 1 49.641407513657029 21.594550086967597 8.5627561212488583 1 rotate no_reflect no_shear #
lump $-1 $-1 $44 $5 #
transform $-1 1 0 0 0 1 0 0 0 1 49.641407513657029 21.594550086967597 8.5627561212488583 1 rotate no_reflect no_shear #
lump $-1 $-1 $45 $6 #
transform $-1 1 0 0 0 1 0 0 0 1 49.641407513657029 21.594550086967597 8.5627561212488583 1 rotate no_reflect no_shear #
lump $-1 $-1 $46 $7 #
transform $-1 1 0 0 0 1 0 0 0 1 49.641407513657029 21.594550086967597 8.5627561212488583 1 rotate no_reflect no_shear #
lump $-1 $-1 $47 $8 #
transform $-1 1 0 0 0 1 0 0 0 1 49.641407513657029 21.594550086967597 8.5627561212488583 1 rotate no_reflect no_shear #
lump $-1 $-1 $48 $9 #
transform $-1 1 0 0 0 1 0 0 0 1 49.641407513657029 21.594550086967597 8.5627561212488583 1 rotate no_reflect no_shear #
lump $-1 $-1 $49 $10 #
transform $-1 1 0 0 0 1 0 0 0 1 49.641407513657029 21.594550086967597 8.5627561212488583 1 rotate no_reflect no_shear #
lump $-1 $-1 $50 $11 #
transform $-1 1 0 0 0 1 0 0 0 1 49.641407513657029 21.594550086967597 8.5627561212488583 1 rotate no_reflect no_shear #
lump $-1 $-1 $51 $12 #
transform $-1 1 0 0 0 1 0 0 0 1 49.641407513657029 21.594550086967597 8.5627561212488583 1 rotate no_reflect no_shear #
shell $-1 $-1 $-1 $52 $-1 $13 #
shell $-1 $-1 $-1 $53 $-1 $15 #
shell $-1 $-1 $-1 $54 $-1 $17 #
shell $-1 $-1 $-1 $55 $-1 $19 #
shell $-1 $-1 $-1 $56 $-1 $21 #
shell $-1 $-1 $-1 $57 $-1 $23 #
shell $-1 $-1 $-1 $58 $-1 $25 #
shell $-1 $-1 $-1 $59 $-1 $27 #
shell $-1 $-1 $-1 $60 $-1 $29 #
shell $-1 $-1 $-1 $61 $-1 $31 #
shell $-1 $-1 $-1 $62 $-1 $33 #
shell $-1 $-1 $-1 $63 $-1 $35 #
shell $-1 $-1 $-1 $64 $-1 $37 #
face $-1 $65 $66 $39 $-1 $67 forward single #
face $-1 $68 $69 $40 $-1 $70 forward single #
face $-1 $71 $72 $41 $-1 $73 reversed single #
face $-1 $74 $75 $42 $-1 $76 forward single #
face $-1 $77 $78 $43 $-1 $79 forward single #
face $-1 $80 $81 $44 $-1 $82 forward single #
face $-1 $83 $84 $45 $-1 $85 reversed single #
face $-1 $86 $87 $46 $-1 $88 forward single #
face $-1 $89 $90 $47 $-1 $91 forward single #
face $-1 $92 $93 $48 $-1 $94 forward single #
face $-1 $95 $96 $49 $-1 $97 reversed single #
face $-1 $98 $99 $50 $-1 $100 forward single #
face $-1 $101 $102 $51 $-1 $103 forward single #
face $-1 $104 $105 $39 $-1 $106 reversed single #
loop $-1 $-1 $107 $52 #
plane-surface $-1 0 0 8.5627561212488583 0 0 1 1 0 0 forward_v I I I I #
face $-1 $108 $109 $40 $-1 $110 reversed single #
loop $-1 $-1 $111 $53 #
plane-surface $-1 0 -21.594550086967597 0 0 1 0 0 0 1 forward_v I I I I #
face $-1 $112 $113 $41 $-1 $114 reversed single #
loop $-1 $-1 $115 $54 #
plane-surface $-1 -131.95059228194572 -9.0940161844923892 56.6962578006763 0 1 0 -0.82903758062907751 0 0.55919289150049634 forward_v I I I I #
face $-1 $116 $117 $42 $-1 $118 forward single #
loop $-1 $119 $120 $55 #
cone-surface $-1 -46.736352867197226 -7.8151243554043788 4.5907883094959931 0.82903758062907751 0 -0.55919289150049634 0.27959644575024817 0 0.41451879031453875 1 I I 0 1 0.5 forward I I I I #
face $-1 $121 $122 $43 $-1 $123 forward single #
loop $-1 $124 $125 $56 #
cone-surface $-1 -46.736352867197226 -5.8967866117723631 4.5907883094959931 0.82903758062907751 0 -0.55919289150049634 0.27959644575024817 0 0.41451879031453875 1 I I 0 1 0.5 forward I I I I #
face $-1 $126 $127 $44 $-1 $128 forward single #
loop $-1 $129 $130 $57 #
cone-surface $-1 -46.736352867197226 -3.9784488681403474 4.5907883094959931 0.82903758062907751 0 -0.55919289150049634 0.27959644575024817 0 0.41451879031453875 1 I I 0 1 0.5 forward I I I I #
face $-1 $131 $132 $45 $-1 $133 reversed single #
loop $-1 $-1 $134 $58 #
plane-surface $-1 -131.95059228194572 12.654691991602146 56.6962578006763 0 1 0 -0.82903758062907751 0 0.55919289150049634 forward_v I I I I #
face $-1 $135 $136 $46 $-1 $137 forward single #
loop $-1 $138 $139 $59 #
cone-surface $-1 -46.736352867197226 13.933583820690163 4.5907883094959931 0.82903758062907751 0 -0.55919289150049634 0.27959644575024817 0 0.41451879031453875 1 I I 0 1 0.5 forward I I I I #
face $-1 $140 $141 $47 $-1 $142 forward single #
loop $-1 $143 $144 $60 #
cone-surface $-1 -46.736352867197226 15.851921564322172 4.5907883094959931 0.82903758062907751 0 -0.55919289150049634 0.27959644575024817 0 0.41451879031453875 1 I I 0 1 0.5 forward I I I I #
face $-1 $145 $146 $48 $-1 $147 forward single #
loop $-1 $148 $149 $61 #
cone-surface $-1 -46.736352867197226 17.770259307954195 4.5907883094959931 0.82903758062907751 0 -0.55919289150049634 0.27959644575024817 0 0.41451879031453875 1 I I 0 1 0.5 forward I I I I #
face $-1 $150 $151 $49 $-1 $152 reversed single #
loop $-1 $-1 $153 $62 #
plane-surface $-1 15.673855962825741 14.774049267347817 136.5616863785514 0 -1 0 -0.51503808176128008 0 -0.85716729658548041 forward_v I I I I #
face $-1 $154 $155 $50 $-1 $156 forward single #
loop $-1 $157 $158 $63 #
cone-surface $-1 41.98435155771304 8.5279836728498672 3.1087309729217849 -0.51503808176128008 0 -0.85716729658548041 0.85716729658548041 0 -0.51503808176128008 1 I I 0 1 1 forward I I I I #
face $-1 $159 $160 $51 $-1 $161 forward single #
loop $-1 $162 $163 $64 #
cone-surface $-1 41.98435155771304 12.275623029548637 3.1087309729217849 -0.51503808176128008 0 -0.85716729658548041 0.85716729658548041 0 -0.51503808176128008 1 I I 0 1 1 forward I I I I #
face $-1 $164 $165 $39 $-1 $166 reversed single #
loop $-1 $-1 $167 $65 #
plane-surface $-1 0 0 -8.5627561212488583 0 0 1 1 0 0 forward_v I I I I #
coedge $-1 $168 $169 $170 $171 forward $66 $-1 #
face $-1 $172 $173 $40 $-1 $174 forward single #
loop $-1 $-1 $175 $68 #
plane-surface $-1 -49.641407513657029 0 0 1 0 0 0 0 -1 forward_v I I I I #
coedge $-1 $176 $177 $178 $179 forward $69 $-1 #
face $-1 $180 $181 $41 $-1 $182 reversed single #
loop $-1 $-1 $183 $71 #
plane-surface $-1 -49.641407513657057 -5.8967866117723631 1.178013389243624 -0.82903758062907751 0 0.55919289150049634 0.55919289150049634 0 0.82903758062907751 forward_v I I I I #
coedge $-1 $184 $185 $186 $187 reversed $72 $-1 #
face $-1 $-1 $188 $42 $-1 $189 forward single #
loop $-1 $190 $191 $74 #
cone-surface $-1 -46.114574681725415 -7.8151243554043788 4.1713936408706207 0.82903758062907751 0 -0.55919289150049634 0.13979822287512408 0 0.20725939515726938 1 I I -0.70710678118654746 0.70710678118654746 0.25 forward I I I I #
loop $-1 $-1 $192 $55 #
coedge $-1 $120 $120 $193 $194 reversed $75 $-1 #
face $-1 $-1 $195 $43 $-1 $196 forward single #
loop $-1 $197 $198 $77 #
cone-surface $-1 -46.114574681725415 -5.8967866117723631 4.1713936408706207 0.82903758062907751 0 -0.55919289150049634 0.13979822287512408 0 0.20725939515726938 1 I I -0.70710678118654746 0.70710678118654746 0.25 forward I I I I #
loop $-1 $-1 $199 $56 #
coedge $-1 $125 $125 $200 $201 reversed $78 $-1 #
face $-1 $-1 $202 $44 $-1 $203 forward single #
loop $-1 $204 $205 $80 #
cone-surface $-1 -46.114574681725415 -3.9784488681403474 4.1713936408706207 0.82903758062907751 0 -0.55919289150049634 0.13979822287512408 0 0.20725939515726938 1 I I -0.70710678118654746 0.70710678118654746 0.25 forward I I I I #
loop $-1 $-1 $206 $57 #
coedge $-1 $130 $130 $207 $208 reversed $81 $-1 #
face $-1 $209 $210 $45 $-1 $211 reversed single #
loop $-1 $-1 $212 $83 #
plane-surface $-1 -49.641407513657057 15.851921564322172 1.178013389243624 -0.82903758062907751 0 0.55919289150049634 0.55919289150049634 0 0.82903758062907751 forward_v I I I I #
coedge $-1 $213 $214 $215 $216 reversed $84 $-1 #
face $-1 $-1 $217 $46 $-1 $218 forward single #
loop $-1 $219 $220 $86 #
cone-surface $-1 -46.114574681725415 13.933583820690163 4.1713936408706207 0.82903758062907751 0 -0.55919289150049634 0.13979822287512408 0 0.20725939515726938 1 I I -0.70710678118654746 0.70710678118654746 0.25 forward I I I I #
loop $-1 $-1 $221 $59 #
coedge $-1 $139 $139 $222 $223 reversed $87 $-1 #
face $-1 $-1 $224 $47 $-1 $225 forward single #
loop $-1 $226 $227 $89 #
cone-surface $-1 -46.114574681725415 15.851921564322172 4.1713936408706207 0.82903758062907751 0 -0.55919289150049634 0.13979822287512408 0 0.20725939515726938 1 I I -0.70710678118654746 0.70710678118654746 0.25 forward I I I I #
loop $-1 $-1 $228 $60 #
coedge $-1 $144 $144 $229 $230 reversed $90 $-1 #
face $-1 $-1 $231 $48 $-1 $232 forward single #
loop $-1 $233 $234 $92 #
cone-surface $-1 -46.114574681725415 17.770259307954195 4.1713936408706207 0.82903758062907751 0 -0.55919289150049634 0.13979822287512408 0 0.20725939515726938 1 I I -0.70710678118654746 0.70710678118654746 0.25 forward I I I I #
loop $-1 $-1 $235 $61 #
coedge $-1 $149 $149 $236 $237 reversed $93 $-1 #
face $-1 $238 $239 $49 $-1 $240 reversed single #
loop $-1 $-1 $241 $95 #
plane-surface $-1 -35.460574640702085 10.401803351199252 51.459704224192294 0.51503808176128008 0 0.85716729658548041 0.85716729658548041 0 -0.51503808176128008 forward_v I I I I #
coedge $-1 $242 $243 $244 $245 reversed $96 $-1 #
face $-1 $-1 $246 $50 $-1 $247 forward single #
loop $-1 $248 $249 $98 #
cone-surface $-1 40.924512992755652 8.5279836728498672 1.3448634265941539 -0.51503808176128008 0 -0.85716729658548041 0.4285836482927402 0 -0.25751904088064004 1 I I -0.70710678118654746 0.70710678118654746 0.5 forward I I I I #
loop $-1 $-1 $250 $63 #
coedge $-1 $158 $158 $251 $252 reversed $99 $-1 #
face $-1 $-1 $253 $51 $-1 $254 forward single #
loop $-1 $255 $256 $101 #
cone-surface $-1 40.924512992755652 12.275623029548637 1.3448634265941539 -0.51503808176128008 0 -0.85716729658548041 0.4285836482927402 0 -0.25751904088064004 1 I I -0.70710678118654746 0.70710678118654746 0.5 forward I I I I #
loop $-1 $-1 $257 $64 #
coedge $-1 $163 $163 $258 $259 reversed $102 $-1 #
face $-1 $260 $261 $39 $-1 $262 reversed single #
loop $-1 $-1 $263 $104 #
plane-surface $-1 0 -21.594550086967597 0 0 1 0 0 0 1 forward_v I I I I #
coedge $-1 $264 $265 $266 $267 forward $105 $-1 #
coedge $-1 $268 $107 $269 $270 forward $66 $-1 #
coedge $-1 $107 $268 $271 $272 forward $66 $-1 #
coedge $-1 $273 $274 $107 $171 reversed $275 $-1 #
edge $-1 $276 -21.594550086967597 $277 21.594550086967597 $170 $278 forward 7 unknown #
face $-1 $279 $280 $40 $-1 $281 reversed single #
loop $-1 $-1 $282 $108 #
plane-surface $-1 0 -26.5721175632425 -0.13430395715991805 0 0 1 1 0 0 forward_v I I I I #
coedge $-1 $283 $284 $177 $285 forward $109 $-1 #
coedge $-1 $286 $111 $287 $288 reversed $69 $-1 #
coedge $-1 $111 $286 $175 $285 reversed $69 $-1 #
coedge $-1 $289 $282 $111 $179 reversed $173 $-1 #
edge $-1 $290 -49.641407513657029 $291 49.641407513657029 $178 $292 forward 7 unknown #
face $-1 $293 $294 $41 $-1 $295 forward single #
loop $-1 $-1 $296 $112 #
plane-surface $-1 -131.95059228194572 -2.6995570390523369 56.6962578006763 0 -1 0 0.82903758062907751 0 -0.55919289150049634 forward_v I I I I #
coedge $-1 $297 $298 $299 $300 reversed $113 $-1 #
coedge $-1 $185 $115 $301 $302 reversed $72 $-1 #
coedge $-1 $115 $184 $297 $303 reversed $72 $-1 #
coedge $-1 $299 $304 $115 $187 forward $294 $-1 #
edge $-1 $305 16.333888627315829 $306 21.314960339606337 $186 $307 forward 7 unknown #
loop $-1 $-1 $193 $116 #
plane-surface $-1 -49.641407513657057 -5.8967866117723631 1.178013389243624 -0.82903758062907751 0 0.55919289150049634 0.55919289150049634 0 0.82903758062907751 forward_v I I I I #
loop $-1 $-1 $308 $74 #
coedge $-1 $191 $191 $192 $309 reversed $117 $-1 #
coedge $-1 $192 $192 $191 $309 forward $119 $-1 #
coedge $-1 $193 $193 $120 $194 forward $188 $-1 #
edge $-1 $310 0 $310 6.2831853071796004 $193 $311 forward 7 unknown #
loop $-1 $-1 $200 $121 #
plane-surface $-1 -49.641407513657057 -5.8967866117723631 1.178013389243624 -0.82903758062907751 0 0.55919289150049634 0.55919289150049634 0 0.82903758062907751 forward_v I I I I #
loop $-1 $-1 $312 $77 #
coedge $-1 $198 $198 $199 $313 reversed $122 $-1 #
coedge $-1 $199 $199 $198 $313 forward $124 $-1 #
coedge $-1 $200 $200 $125 $201 forward $195 $-1 #
edge $-1 $314 0 $314 6.2831853071796004 $200 $315 forward 7 unknown #
loop $-1 $-1 $207 $126 #
plane-surface $-1 -49.641407513657057 -5.8967866117723631 1.178013389243624 -0.82903758062907751 0 0.55919289150049634 0.55919289150049634 0 0.82903758062907751 forward_v I I I I #
loop $-1 $-1 $316 $80 #
coedge $-1 $205 $205 $206 $317 reversed $127 $-1 #
coedge $-1 $206 $206 $205 $317 forward $129 $-1 #
coedge $-1 $207 $207 $130 $208 forward $202 $-1 #
edge $-1 $318 0 $318 6.2831853071796004 $207 $319 forward 7 unknown #
face $-1 $320 $321 $45 $-1 $322 forward single #
loop $-1 $-1 $323 $131 #
plane-surface $-1 -131.95059228194572 19.049151137042198 56.6962578006763 0 -1 0 0.82903758062907751 0 -0.55919289150049634 forward_v I I I I #
coedge $-1 $324 $325 $326 $327 reversed $132 $-1 #
coedge $-1 $214 $134 $328 $329 reversed $84 $-1 #
coedge $-1 $134 $213 $324 $330 reversed $84 $-1 #
coedge $-1 $326 $331 $134 $216 forward $321 $-1 #
edge $-1 $332 16.333888627315829 $333 21.314960339606337 $215 $334 forward 7 unknown #
loop $-1 $-1 $222 $135 #
plane-surface $-1 -49.641407513657057 15.851921564322172 1.178013389243624 -0.82903758062907751 0 0.55919289150049634 0.55919289150049634 0 0.82903758062907751 forward_v I I I I #
loop $-1 $-1 $335 $86 #
coedge $-1 $220 $220 $221 $336 reversed $136 $-1 #
coedge $-1 $221 $221 $220 $336 forward $138 $-1 #
coedge $-1 $222 $222 $139 $223 forward $217 $-1 #
edge $-1 $337 0 $337 6.2831853071796004 $222 $338 forward 7 unknown #
loop $-1 $-1 $229 $140 #
plane-surface $-1 -49.641407513657057 15.851921564322172 1.178013389243624 -0.82903758062907751 0 0.55919289150049634 0.55919289150049634 0 0.82903758062907751 forward_v I I I I #
loop $-1 $-1 $339 $89 #
coedge $-1 $227 $227 $228 $340 reversed $141 $-1 #
coedge $-1 $228 $228 $227 $340 forward $143 $-1 #
coedge $-1 $229 $229 $144 $230 forward $224 $-1 #
edge $-1 $341 0 $341 6.2831853071796004 $229 $342 forward 7 unknown #
loop $-1 $-1 $236 $145 #
plane-surface $-1 -49.641407513657057 15.851921564322172 1.178013389243624 -0.82903758062907751 0 0.55919289150049634 0.55919289150049634 0 0.82903758062907751 forward_v I I I I #
loop $-1 $-1 $343 $92 #
coedge $-1 $234 $234 $235 $344 reversed $146 $-1 #
coedge $-1 $235 $235 $234 $344 forward $148 $-1 #
coedge $-1 $236 $236 $149 $237 forward $231 $-1 #
edge $-1 $345 0 $345 6.2831853071796004 $236 $346 forward 7 unknown #
face $-1 $347 $348 $49 $-1 $349 reversed single #
loop $-1 $-1 $350 $150 #
plane-surface $-1 15.673855962825741 6.0295574350506875 136.5616863785514 0 1 0 0.51503808176128008 0 0.85716729658548041 forward_v I I I I #
coedge $-1 $351 $352 $353 $354 reversed $151 $-1 #
coedge $-1 $243 $153 $355 $356 reversed $96 $-1 #
coedge $-1 $153 $242 $351 $357 reversed $96 $-1 #
coedge $-1 $353 $358 $153 $245 forward $359 $-1 #
edge $-1 $360 -41.804479532244159 $361 -28.095006668509676 $244 $362 forward 7 unknown #
loop $-1 $-1 $251 $154 #
plane-surface $-1 -35.460574640702085 10.401803351199252 51.459704224192294 0.51503808176128008 0 0.85716729658548041 0.85716729658548041 0 -0.51503808176128008 forward_v I I I I #
loop $-1 $-1 $363 $98 #
coedge $-1 $249 $249 $250 $364 reversed $155 $-1 #
coedge $-1 $250 $250 $249 $364 forward $157 $-1 #
coedge $-1 $251 $251 $158 $252 forward $246 $-1 #
edge $-1 $365 0 $365 6.2831853071796004 $251 $366 forward 7 unknown #
loop $-1 $-1 $258 $159 #
plane-surface $-1 -35.460574640702085 10.401803351199252 51.459704224192294 0.51503808176128008 0 0.85716729658548041 0.85716729658548041 0 -0.51503808176128008 forward_v I I I I #
loop $-1 $-1 $367 $101 #
coedge $-1 $256 $256 $257 $368 reversed $160 $-1 #
coedge $-1 $257 $257 $256 $368 forward $162 $-1 #
coedge $-1 $258 $258 $163 $259 forward $253 $-1 #
edge $-1 $369 0 $369 6.2831853071796004 $258 $370 forward 7 unknown #
face $-1 $371 $372 $39 $-1 $373 reversed single #
loop $-1 $-1 $374 $164 #
plane-surface $-1 -49.641407513657029 0 0 1 0 0 0 0 -1 forward_v I I I I #
coedge $-1 $375 $271 $376 $377 forward $165 $-1 #
coedge $-1 $378 $167 $375 $379 forward $105 $-1 #
coedge $-1 $167 $378 $380 $381 forward $105 $-1 #
coedge $-1 $274 $273 $167 $267 reversed $275 $-1 #
edge $-1 $382 -21.594550086967597 $383 21.594550086967597 $266 $384 forward 7 unknown #
coedge $-1 $169 $168 $385 $386 forward $66 $-1 #
coedge $-1 $387 $388 $168 $270 reversed $372 $-1 #
edge $-1 $277 -49.641407513657029 $389 49.641407513657029 $269 $390 forward 7 unknown #
coedge $-1 $263 $391 $169 $272 reversed $165 $-1 #
edge $-1 $392 -49.641407513657029 $276 49.641407513657029 $271 $393 forward 7 unknown #
coedge $-1 $266 $170 $391 $394 forward $275 $-1 #
coedge $-1 $170 $266 $387 $395 reversed $275 $-1 #
loop $-1 $-1 $273 $371 #
vertex $-1 $171 $396 #
vertex $-1 $171 $397 #
straight-curve $-1 49.641407513657029 0 8.5627561212488583 0 1 0 I I #
face $-1 $398 $399 $40 $-1 $400 reversed single #
loop $-1 $-1 $401 $172 #
plane-surface $-1 0 -26.5721175632425 -3.3238502556398157 0 0 1 1 0 0 forward_v I I I I #
coedge $-1 $178 $402 $403 $404 forward $173 $-1 #
coedge $-1 $405 $175 $406 $407 reversed $109 $-1 #
coedge $-1 $175 $405 $289 $408 reversed $109 $-1 #
edge $-1 $290 0.13430395715991805 $409 3.3238502556398157 $175 $410 forward 7 unknown #
coedge $-1 $177 $176 $411 $412 forward $69 $-1 #
coedge $-1 $403 $413 $176 $288 forward $414 $-1 #
edge $-1 $415 -3.3238502556398157 $291 -0.13430395715991805 $287 $416 forward 7 unknown #
coedge $-1 $402 $178 $284 $408 forward $173 $-1 #
vertex $-1 $285 $417 #
vertex $-1 $404 $418 #
straight-curve $-1 0 -21.594550086967597 -0.13430395715991805 1 0 0 I I #
face $-1 $-1 $419 $41 $-1 $420 reversed single #
loop $-1 $-1 $186 $180 #
plane-surface $-1 0 0 8.5627561212488583 0 0 1 1 0 0 forward_v I I I I #
coedge $-1 $421 $422 $423 $424 reversed $181 $-1 #
coedge $-1 $425 $183 $185 $303 forward $113 $-1 #
coedge $-1 $183 $425 $421 $426 forward $113 $-1 #
coedge $-1 $423 $186 $183 $300 forward $294 $-1 #
edge $-1 $306 -6.1456228786062077 $427 0.24883626683384463 $299 $428 forward 7 unknown #
coedge $-1 $429 $430 $184 $302 forward $419 $-1 #
edge $-1 $431 -27.170115511094483 $305 -19.785372779089293 $301 $432 forward 7 unknown #
edge $-1 $306 -8.9076091416768559 $431 -5.0869049068944123e-014 $185 $433 forward 7 unknown #
coedge $-1 $186 $423 $429 $434 forward $294 $-1 #
vertex $-1 $302 $435 #
vertex $-1 $187 $436 #
straight-curve $-1 -65.975296140972858 -9.0940161844923892 8.5627561212488601 1 0 0 I I #
coedge $-1 $308 $308 $-1 $437 reversed $190 $-1 #
edge $-1 $438 0 $438 6.2831853071796004 $191 $439 forward 7 unknown #
vertex $-1 $194 $440 #
ellipse-curve $-1 -47.150871657511779 -7.8151243554043788 4.8703847552462527 -0.82903758062907751 0 0.55919289150049634 0.27959644575024817 0 0.41451879031453875 1 I I #
coedge $-1 $312 $312 $-1 $441 reversed $197 $-1 #
edge $-1 $442 0 $442 6.2831853071796004 $198 $443 forward 7 unknown #
vertex $-1 $201 $444 #
ellipse-curve $-1 -47.150871657511779 -5.8967866117723631 4.8703847552462527 -0.82903758062907751 0 0.55919289150049634 0.27959644575024817 0 0.41451879031453875 1 I I #
coedge $-1 $316 $316 $-1 $445 reversed $204 $-1 #
edge $-1 $446 0 $446 6.2831853071796004 $205 $447 forward 7 unknown #
vertex $-1 $208 $448 #
ellipse-curve $-1 -47.150871657511779 -3.9784488681403474 4.8703847552462527 -0.82903758062907751 0 0.55919289150049634 0.27959644575024817 0 0.41451879031453875 1 I I #
face $-1 $-1 $449 $45 $-1 $450 reversed single #
loop $-1 $-1 $215 $209 #
plane-surface $-1 0 0 8.5627561212488583 0 0 1 1 0 0 forward_v I I I I #
coedge $-1 $451 $452 $453 $454 reversed $210 $-1 #
coedge $-1 $455 $212 $214 $330 forward $132 $-1 #
coedge $-1 $212 $455 $451 $456 forward $132 $-1 #
coedge $-1 $453 $215 $212 $327 forward $321 $-1 #
edge $-1 $333 4.7287312094410598 $457 11.123190354881112 $326 $458 forward 7 unknown #
coedge $-1 $459 $460 $213 $329 forward $449 $-1 #
edge $-1 $461 -27.170115511094483 $332 -19.785372779089293 $328 $462 forward 7 unknown #
edge $-1 $333 -8.9076091416768559 $461 -5.0869049068944123e-014 $214 $463 forward 7 unknown #
coedge $-1 $215 $453 $459 $464 forward $321 $-1 #
vertex $-1 $216 $465 #
vertex $-1 $216 $466 #
straight-curve $-1 -65.975296140972858 12.654691991602146 8.5627561212488601 1 0 0 I I #
coedge $-1 $335 $335 $-1 $467 reversed $219 $-1 #
edge $-1 $468 0 $468 6.2831853071796004 $220 $469 forward 7 unknown #
vertex $-1 $223 $470 #
ellipse-curve $-1 -47.150871657511779 13.933583820690163 4.8703847552462527 -0.82903758062907751 0 0.55919289150049634 0.27959644575024817 0 0.41451879031453875 1 I I #
coedge $-1 $339 $339 $-1 $471 reversed $226 $-1 #
edge $-1 $472 0 $472 6.2831853071796004 $227 $473 forward 7 unknown #
vertex $-1 $230 $474 #
ellipse-curve $-1 -47.150871657511779 15.851921564322172 4.8703847552462527 -0.82903758062907751 0 0.55919289150049634 0.27959644575024817 0 0.41451879031453875 1 I I #
coedge $-1 $343 $343 $-1 $475 reversed $233 $-1 #
edge $-1 $476 0 $476 6.2831853071796004 $234 $477 forward 7 unknown #
vertex $-1 $237 $478 #
ellipse-curve $-1 -47.150871657511779 17.770259307954195 4.8703847552462527 -0.82903758062907751 0 0.55919289150049634 0.27959644575024817 0 0.41451879031453875 1 I I #
face $-1 $-1 $359 $49 $-1 $479 forward single #
loop $-1 $-1 $480 $238 #
plane-surface $-1 49.641407513657029 0 0 -1 0 0 0 0 1 forward_v I I I I #
coedge $-1 $481 $482 $483 $484 reversed $239 $-1 #
coedge $-1 $485 $241 $243 $357 forward $151 $-1 #
coedge $-1 $241 $485 $481 $486 forward $151 $-1 #
coedge $-1 $483 $244 $241 $354 forward $359 $-1 #
edge $-1 $361 -9.5731475917481905 $487 -0.82865575945106151 $353 $488 forward 7 unknown #
coedge $-1 $489 $490 $242 $356 forward $348 $-1 #
edge $-1 $491 -67.955569568611253 $360 -59.71808706802684 $355 $492 forward 7 unknown #
edge $-1 $361 83.288886049451676 $491 99.282815027314086 $243 $493 forward 7 unknown #
coedge $-1 $244 $483 $489 $494 forward $359 $-1 #
loop $-1 $-1 $483 $347 #
vertex $-1 $356 $495 #
vertex $-1 $245 $496 #
straight-curve $-1 7.8369279814128703 14.774049267347817 8.5627561212488601 -1 0 0 I I #
coedge $-1 $363 $363 $-1 $497 reversed $248 $-1 #
edge $-1 $498 0 $498 6.2831853071796004 $249 $499 forward 7 unknown #
vertex $-1 $252 $500 #
ellipse-curve $-1 42.786671081789784 8.5279836728498672 4.4440148709566678 0.51503808176128008 0 0.85716729658548041 0.85716729658548041 0 -0.51503808176128008 1 I I #
coedge $-1 $367 $367 $-1 $501 reversed $255 $-1 #
edge $-1 $502 0 $502 6.2831853071796004 $256 $503 forward 7 unknown #
vertex $-1 $259 $504 #
ellipse-curve $-1 42.786671081789784 12.275623029548637 4.4440148709566678 0.51503808176128008 0 0.85716729658548041 0.85716729658548041 0 -0.51503808176128008 1 I I #
face $-1 $-1 $275 $39 $-1 $505 reversed single #
loop $-1 $-1 $387 $260 #
plane-surface $-1 0 21.594550086967597 0 0 -1 0 0 0 -1 forward_v I I I I #
coedge $-1 $506 $385 $388 $507 forward $261 $-1 #
coedge $-1 $391 $263 $264 $379 reversed $165 $-1 #
coedge $-1 $385 $506 $263 $377 reversed $261 $-1 #
edge $-1 $392 -8.5627561212488583 $508 8.5627561212488583 $376 $509 forward 7 unknown #
coedge $-1 $265 $264 $506 $510 forward $105 $-1 #
edge $-1 $383 -49.641407513657029 $508 49.641407513657029 $375 $511 forward 7 unknown #
coedge $-1 $388 $387 $265 $381 reversed $372 $-1 #
edge $-1 $512 -49.641407513657029 $382 49.641407513657029 $380 $513 forward 7 unknown #
vertex $-1 $267 $514 #
vertex $-1 $394 $515 #
straight-curve $-1 49.641407513657029 0 -8.5627561212488583 0 -1 0 I I #
coedge $-1 $374 $376 $268 $386 reversed $261 $-1 #
edge $-1 $389 -21.594550086967597 $392 21.594550086967597 $385 $516 forward 7 unknown #
coedge $-1 $380 $269 $274 $395 forward $372 $-1 #
coedge $-1 $269 $380 $374 $507 reversed $372 $-1 #
vertex $-1 $270 $517 #
straight-curve $-1 0 21.594550086967597 8.5627561212488583 -1 0 0 I I #
coedge $-1 $271 $375 $273 $394 reversed $165 $-1 #
vertex $-1 $386 $518 #
straight-curve $-1 0 -21.594550086967597 8.5627561212488583 1 0 0 I I #
edge $-1 $276 -8.5627561212488583 $383 8.5627561212488583 $273 $519 forward 7 unknown #
edge $-1 $277 -8.5627561212488583 $382 8.5627561212488583 $274 $520 forward 7 unknown #
point $-1 49.641407513657029 -21.594550086967597 8.5627561212488583 #
point $-1 49.641407513657029 21.594550086967597 8.5627561212488583 #
face $-1 $-1 $414 $40 $-1 $521 reversed single #
loop $-1 $-1 $522 $279 #
plane-surface $-1 0 -31.549685039517403 -1.7290771063998669 0 1 0 0 0 1 forward_v I I I I #
coedge $-1 $523 $411 $413 $524 forward $280 $-1 #
coedge $-1 $282 $289 $525 $526 forward $173 $-1 #
coedge $-1 $527 $287 $282 $404 reversed $414 $-1 #
edge $-1 $528 -4.9775674762749027 $291 4.9775674762749027 $403 $529 forward 7 unknown #
coedge $-1 $284 $283 $522 $530 reversed $109 $-1 #
coedge $-1 $411 $523 $283 $407 forward $280 $-1 #
edge $-1 $531 -4.9775674762749027 $409 4.9775674762749027 $283 $532 forward 7 unknown #
edge $-1 $290 -4.9775674762749027 $533 4.9775674762749027 $284 $534 forward 7 unknown #
vertex $-1 $285 $535 #
straight-curve $-1 -49.641407513657029 -21.594550086967597 0 0 0 -1 I I #
coedge $-1 $401 $406 $286 $412 reversed $280 $-1 #
edge $-1 $415 -49.641407513657029 $409 49.641407513657029 $411 $536 forward 7 unknown #
coedge $-1 $287 $527 $401 $524 reversed $414 $-1 #
loop $-1 $-1 $287 $398 #
vertex $-1 $288 $537 #
straight-curve $-1 49.641407513657029 -21.594550086967597 0 0 0 1 I I #
point $-1 -49.641407513657029 -21.594550086967597 -0.13430395715991805 #
point $-1 49.641407513657029 -21.594550086967597 -0.13430395715991805 #
loop $-1 $-1 $301 $293 #
plane-surface $-1 -49.641407513657029 0 0 1 0 0 0 0 -1 forward_v I I I I #
coedge $-1 $422 $296 $298 $426 reversed $181 $-1 #
coedge $-1 $296 $421 $538 $539 reversed $181 $-1 #
coedge $-1 $304 $299 $296 $424 forward $294 $-1 #
edge $-1 $427 -21.314960339606337 $540 -16.333888627315829 $423 $541 forward 7 unknown #
coedge $-1 $298 $297 $430 $542 reversed $113 $-1 #
edge $-1 $543 5.0869049068944123e-014 $427 8.9076091416768559 $421 $544 forward 7 unknown #
vertex $-1 $300 $545 #
straight-curve $-1 -44.660335801366529 -2.9483933058861815 8.5627561212488583 0 1 0 I I #
coedge $-1 $538 $301 $304 $434 reversed $419 $-1 #
coedge $-1 $301 $538 $425 $542 forward $419 $-1 #
vertex $-1 $302 $546 #
straight-curve $-1 -49.641407513657029 -9.0940161844923892 28.34812890033815 0 0 1 I I #
straight-curve $-1 -49.641407513657057 -9.0940161844923892 1.178013389243624 -0.55919289150049634 0 -0.82903758062907751 I I #
edge $-1 $540 2.6995570390523369 $305 9.0940161844923892 $429 $547 forward 7 unknown #
point $-1 -49.641407513657029 -9.0940161844923892 8.5627561212488583 #
point $-1 -44.660335801366521 -9.0940161844923892 8.5627561212488583 #
edge $-1 $548 1 $548 0 $308 $-1 forward 7 unknown #
vertex $-1 $309 $549 #
ellipse-curve $-1 -46.321834076882688 -7.8151243554043788 4.3111918637457451 -0.82903758062907751 0 0.55919289150049634 0.27959644575024817 0 0.41451879031453875 1 I I #
point $-1 -46.871275211761514 -7.8151243554043788 5.2849035455607805 #
edge $-1 $550 1 $550 0 $312 $-1 forward 7 unknown #
vertex $-1 $313 $551 #
ellipse-curve $-1 -46.321834076882688 -5.8967866117723631 4.3111918637457451 -0.82903758062907751 0 0.55919289150049634 0.27959644575024817 0 0.41451879031453875 1 I I #
point $-1 -46.871275211761514 -5.8967866117723631 5.2849035455607805 #
edge $-1 $552 1 $552 0 $316 $-1 forward 7 unknown #
vertex $-1 $317 $553 #
ellipse-curve $-1 -46.321834076882688 -3.9784488681403474 4.3111918637457451 -0.82903758062907751 0 0.55919289150049634 0.27959644575024817 0 0.41451879031453875 1 I I #
point $-1 -46.871275211761514 -3.9784488681403474 5.2849035455607805 #
loop $-1 $-1 $328 $320 #
plane-surface $-1 -49.641407513657029 0 0 1 0 0 0 0 -1 forward_v I I I I #
coedge $-1 $452 $323 $325 $456 reversed $210 $-1 #
coedge $-1 $323 $451 $554 $555 reversed $210 $-1 #
coedge $-1 $331 $326 $323 $454 forward $321 $-1 #
edge $-1 $457 -21.314960339606337 $556 -16.333888627315829 $453 $557 forward 7 unknown #
coedge $-1 $325 $324 $460 $558 reversed $132 $-1 #
edge $-1 $559 5.0869049068944123e-014 $457 8.9076091416768559 $451 $560 forward 7 unknown #
vertex $-1 $327 $561 #
straight-curve $-1 -44.660335801366529 7.925960782161086 8.5627561212488583 0 1 0 I I #
coedge $-1 $554 $328 $331 $464 reversed $449 $-1 #
coedge $-1 $328 $554 $455 $558 forward $449 $-1 #
vertex $-1 $329 $562 #
straight-curve $-1 -49.641407513657029 12.654691991602146 28.34812890033815 0 0 1 I I #
straight-curve $-1 -49.641407513657057 12.654691991602146 1.178013389243624 -0.55919289150049634 0 -0.82903758062907751 I I #
edge $-1 $556 -19.049151137042198 $332 -12.654691991602146 $459 $563 forward 7 unknown #
point $-1 -49.641407513657029 12.654691991602146 8.5627561212488583 #
point $-1 -44.660335801366521 12.654691991602146 8.5627561212488583 #
edge $-1 $564 1 $564 0 $335 $-1 forward 7 unknown #
vertex $-1 $336 $565 #
ellipse-curve $-1 -46.321834076882688 13.933583820690163 4.3111918637457451 -0.82903758062907751 0 0.55919289150049634 0.27959644575024817 0 0.41451879031453875 1 I I #
point $-1 -46.871275211761514 13.933583820690163 5.2849035455607805 #
edge $-1 $566 1 $566 0 $339 $-1 forward 7 unknown #
vertex $-1 $340 $567 #
ellipse-curve $-1 -46.321834076882688 15.851921564322172 4.3111918637457451 -0.82903758062907751 0 0.55919289150049634 0.27959644575024817 0 0.41451879031453875 1 I I #
point $-1 -46.871275211761514 15.851921564322172 5.2849035455607805 #
edge $-1 $568 1 $568 0 $343 $-1 forward 7 unknown #
vertex $-1 $344 $569 #
ellipse-curve $-1 -46.321834076882688 17.770259307954195 4.3111918637457451 -0.82903758062907751 0 0.55919289150049634 0.27959644575024817 0 0.41451879031453875 1 I I #
point $-1 -46.871275211761514 17.770259307954195 5.2849035455607805 #
plane-surface $-1 0 0 8.5627561212488583 0 0 1 1 0 0 forward_v I I I I #
coedge $-1 $490 $489 $482 $570 forward $348 $-1 #
coedge $-1 $482 $350 $352 $486 reversed $239 $-1 #
coedge $-1 $350 $481 $480 $570 reversed $239 $-1 #
coedge $-1 $358 $353 $350 $484 forward $359 $-1 #
edge $-1 $487 28.095006668509676 $571 41.804479532244159 $483 $572 forward 7 unknown #
coedge $-1 $352 $351 $490 $573 reversed $151 $-1 #
edge $-1 $574 -99.282815027314086 $487 -83.288886049451676 $481 $575 forward 7 unknown #
vertex $-1 $354 $576 #
straight-curve $-1 35.931934649922539 5.200901675599626 8.5627561212488565 0 -1 0 I I #
coedge $-1 $480 $355 $358 $494 reversed $348 $-1 #
coedge $-1 $355 $480 $485 $573 forward $348 $-1 #
vertex $-1 $356 $577 #
straight-curve $-1 49.641407513657029 14.774049267347817 68.2808431892757 0 0 1 I I #
straight-curve $-1 -35.460574640702085 14.774049267347817 51.459704224192294 0.85716729658548041 0 -0.51503808176128008 I I #
edge $-1 $571 6.0295574350506875 $360 14.774049267347817 $489 $578 forward 7 unknown #
point $-1 49.641407513657029 14.774049267347817 8.5627561212488583 #
point $-1 35.931934649922546 14.774049267347817 8.5627561212488601 #
edge $-1 $579 1 $579 0 $363 $-1 forward 7 unknown #
vertex $-1 $364 $580 #
ellipse-curve $-1 41.18203203363629 8.5279836728498672 1.773447074886894 0.51503808176128008 0 0.85716729658548041 0.85716729658548041 0 -0.51503808176128008 1 I I #
point $-1 43.643838378375264 8.5279836728498672 3.9289767891953957 #
edge $-1 $581 1 $581 0 $367 $-1 forward 7 unknown #
vertex $-1 $368 $582 #
ellipse-curve $-1 41.18203203363629 12.275623029548637 1.773447074886894 0.51503808176128008 0 0.85716729658548041 0.85716729658548041 0 -0.51503808176128008 1 I I #
point $-1 43.643838378375264 12.275623029548637 3.9289767891953957 #
plane-surface $-1 49.641407513657029 0 0 -1 0 0 0 0 1 forward_v I I I I #
coedge $-1 $376 $374 $378 $510 reversed $261 $-1 #
edge $-1 $389 -8.5627561212488583 $512 8.5627561212488583 $388 $583 forward 7 unknown #
vertex $-1 $510 $584 #
straight-curve $-1 -49.641407513657029 -21.594550086967597 0 0 0 -1 I I #
edge $-1 $508 -21.594550086967597 $512 21.594550086967597 $506 $585 forward 7 unknown #
straight-curve $-1 0 -21.594550086967597 -8.5627561212488583 -1 0 0 I I #
vertex $-1 $381 $586 #
straight-curve $-1 0 21.594550086967597 -8.5627561212488583 1 0 0 I I #
point $-1 49.641407513657029 21.594550086967597 -8.5627561212488583 #
point $-1 49.641407513657029 -21.594550086967597 -8.5627561212488583 #
straight-curve $-1 -49.641407513657029 0 8.5627561212488583 0 -1 0 I I #
point $-1 -49.641407513657029 21.594550086967597 8.5627561212488583 #
point $-1 -49.641407513657029 -21.594550086967597 8.5627561212488583 #
straight-curve $-1 49.641407513657029 -21.594550086967597 0 0 0 -1 I I #
straight-curve $-1 49.641407513657029 21.594550086967597 0 0 0 -1 I I #
plane-surface $-1 49.641407513657029 0 0 -1 0 0 0 0 1 forward_v I I I I #
coedge $-1 $587 $525 $405 $530 forward $399 $-1 #
coedge $-1 $406 $401 $587 $588 forward $280 $-1 #
edge $-1 $415 -4.9775674762749027 $589 4.9775674762749027 $413 $590 forward 7 unknown #
coedge $-1 $522 $591 $402 $526 reversed $399 $-1 #
edge $-1 $533 -49.641407513657029 $528 49.641407513657029 $525 $592 forward 7 unknown #
coedge $-1 $413 $403 $591 $593 forward $414 $-1 #
vertex $-1 $404 $594 #
straight-curve $-1 49.641407513657029 -26.5721175632425 -0.13430395715991805 0 1 0 I I #
edge $-1 $533 -1.5947731492399488 $531 1.5947731492399488 $405 $595 forward 7 unknown #
vertex $-1 $407 $596 #
straight-curve $-1 -49.641407513657029 -26.5721175632425 -3.3238502556398157 0 1 0 I I #
vertex $-1 $408 $597 #
straight-curve $-1 -49.641407513657029 -26.5721175632425 -0.13430395715991805 0 -1 0 I I #
point $-1 -49.641407513657029 -21.594550086967597 -3.3238502556398157 #
straight-curve $-1 0 -21.594550086967597 -3.3238502556398157 -1 0 0 I I #
point $-1 49.641407513657029 -21.594550086967597 -3.3238502556398157 #
coedge $-1 $430 $429 $422 $539 forward $419 $-1 #
edge $-1 $540 19.785372779089293 $543 27.170115511094483 $538 $598 forward 7 unknown #
vertex $-1 $434 $599 #
straight-curve $-1 -65.975296140972858 -2.6995570390523369 8.5627561212488601 -1 0 0 I I #
edge $-1 $543 -0.24883626683384463 $431 6.1456228786062077 $430 $600 forward 7 unknown #
vertex $-1 $542 $601 #
straight-curve $-1 -49.641407513657057 -2.6995570390523369 1.178013389243624 0.55919289150049634 0 0.82903758062907751 I I #
point $-1 -44.660335801366521 -2.6995570390523369 8.5627561212488583 #
point $-1 -49.641407513657029 -9.0940161844923892 1.1780133892436662 #
straight-curve $-1 -49.641407513657029 0 8.5627561212488583 0 -1 0 I I #
vertex $-1 $437 $602 #
point $-1 -46.042237631132437 -7.8151243554043788 4.7257106540602836 #
vertex $-1 $441 $603 #
point $-1 -46.042237631132437 -5.8967866117723631 4.7257106540602836 #
vertex $-1 $445 $604 #
point $-1 -46.042237631132437 -3.9784488681403474 4.7257106540602836 #
coedge $-1 $460 $459 $452 $555 forward $449 $-1 #
edge $-1 $556 19.785372779089293 $559 27.170115511094483 $554 $605 forward 7 unknown #
vertex $-1 $464 $606 #
straight-curve $-1 -65.975296140972858 19.049151137042198 8.5627561212488601 -1 0 0 I I #
edge $-1 $559 -11.123190354881112 $461 -4.7287312094410598 $460 $607 forward 7 unknown #
vertex $-1 $558 $608 #
straight-curve $-1 -49.641407513657057 19.049151137042198 1.178013389243624 0.55919289150049634 0 0.82903758062907751 I I #
point $-1 -44.660335801366521 19.049151137042198 8.5627561212488583 #
point $-1 -49.641407513657029 12.654691991602146 1.1780133892436662 #
straight-curve $-1 -49.641407513657029 0 8.5627561212488583 0 -1 0 I I #
vertex $-1 $467 $609 #
point $-1 -46.042237631132437 13.933583820690163 4.7257106540602836 #
vertex $-1 $471 $610 #
point $-1 -46.042237631132437 15.851921564322172 4.7257106540602836 #
vertex $-1 $475 $611 #
point $-1 -46.042237631132437 17.770259307954195 4.7257106540602836 #
edge $-1 $571 59.71808706802684 $574 67.955569568611253 $480 $612 forward 7 unknown #
vertex $-1 $494 $613 #
straight-curve $-1 7.8369279814128703 6.0295574350506875 8.5627561212488601 1 0 0 I I #
edge $-1 $574 0.82865575945106151 $491 9.5731475917481905 $490 $614 forward 7 unknown #
vertex $-1 $573 $615 #
straight-curve $-1 -35.460574640702085 6.0295574350506875 51.459704224192294 -0.85716729658548041 0 0.51503808176128008 I I #
point $-1 35.931934649922546 6.0295574350506875 8.5627561212488601 #
point $-1 49.641407513657036 14.774049267347817 0.3252736206644542 #
straight-curve $-1 49.641407513657029 0 8.5627561212488583 0 1 0 I I #
vertex $-1 $497 $616 #
point $-1 42.03919933022177 8.5279836728498672 1.2584089931256139 #
vertex $-1 $501 $617 #
point $-1 42.03919933022177 12.275623029548637 1.2584089931256139 #
straight-curve $-1 -49.641407513657029 21.594550086967597 0 0 0 -1 I I #
point $-1 -49.641407513657029 -21.594550086967597 -8.5627561212488583 #
straight-curve $-1 -49.641407513657029 0 -8.5627561212488583 0 1 0 I I #
point $-1 -49.641407513657029 21.594550086967597 -8.5627561212488583 #
coedge $-1 $591 $522 $523 $588 reversed $399 $-1 #
edge $-1 $589 -49.641407513657029 $531 49.641407513657029 $587 $618 forward 7 unknown #
vertex $-1 $593 $619 #
straight-curve $-1 49.641407513657029 -26.5721175632425 -3.3238502556398157 0 -1 0 I I #
coedge $-1 $525 $587 $527 $593 reversed $399 $-1 #
straight-curve $-1 0 -31.549685039517403 -0.13430395715991805 1 0 0 I I #
edge $-1 $528 -1.5947731492399488 $589 1.5947731492399488 $527 $620 forward 7 unknown #
point $-1 49.641407513657029 -31.549685039517403 -0.13430395715991805 #
straight-curve $-1 -49.641407513657029 -31.549685039517403 -1.7290771063998669 0 0 -1 I I #
point $-1 -49.641407513657029 -31.549685039517403 -3.3238502556398157 #
point $-1 -49.641407513657029 -31.549685039517403 -0.13430395715991805 #
straight-curve $-1 -49.641407513657029 -2.6995570390523369 28.34812890033815 0 0 -1 I I #
point $-1 -49.641407513657029 -2.6995570390523369 8.5627561212488583 #
straight-curve $-1 -49.641407513657029 -2.9483933058861815 1.1780133892436644 0 -1 0 I I #
point $-1 -49.641407513657029 -2.6995570390523369 1.1780133892436662 #
point $-1 -45.907315286568142 -7.8151243554043788 4.0315954179954963 #
point $-1 -45.907315286568142 -5.8967866117723631 4.0315954179954963 #
point $-1 -45.907315286568142 -3.9784488681403474 4.0315954179954963 #
straight-curve $-1 -49.641407513657029 19.049151137042198 28.34812890033815 0 0 -1 I I #
point $-1 -49.641407513657029 19.049151137042198 8.5627561212488583 #
straight-curve $-1 -49.641407513657029 7.925960782161086 1.1780133892436644 0 -1 0 I I #
point $-1 -49.641407513657029 19.049151137042198 1.1780133892436662 #
point $-1 -45.907315286568142 13.933583820690163 4.0315954179954963 #
point $-1 -45.907315286568142 15.851921564322172 4.0315954179954963 #
point $-1 -45.907315286568142 17.770259307954195 4.0315954179954963 #
straight-curve $-1 49.641407513657029 6.0295574350506875 68.2808431892757 0 0 -1 I I #
point $-1 49.641407513657029 6.0295574350506875 8.5627561212488583 #
straight-curve $-1 49.641407513657022 5.200901675599626 0.3252736206644613 0 1 0 I I #
point $-1 49.641407513657036 6.0295574350506875 0.3252736206644542 #
point $-1 40.666993951875014 8.5279836728498672 0.91627977830141372 #
point $-1 40.666993951875014 12.275623029548637 0.91627977830141372 #
straight-curve $-1 0 -31.549685039517403 -3.3238502556398157 -1 0 0 I I #
point $-1 49.641407513657029 -31.549685039517403 -3.3238502556398157 #
straight-curve $-1 49.641407513657029 -31.549685039517403 -1.7290771063998669 0 0 -1 I I #
End-of-ACIS-data 