500 0 14 0           
7 Unknown 11 ACIS 5.0 NT 24 Fri Mar 26 17:13:57 1999 
-1 9.9999999999999995e-007 1e-010 
body $-1 $14 $-1 $15 #
body $-1 $16 $-1 $17 #
body $-1 $18 $-1 $19 #
body $-1 $20 $-1 $21 #
body $-1 $22 $-1 $23 #
body $-1 $24 $-1 $25 #
body $-1 $26 $-1 $27 #
body $-1 $28 $-1 $29 #
body $-1 $30 $-1 $31 #
body $-1 $32 $-1 $33 #
body $-1 $34 $-1 $35 #
body $-1 $36 $-1 $37 #
body $-1 $38 $-1 $39 #
body $-1 $40 $-1 $41 #
lump $-1 $-1 $42 $0 #
transform $-1 1 0 0 0 1 0 0 0 1 75.336771752067619 40.194019707927062 17.599772227040166 1 rotate no_reflect no_shear #
lump $-1 $-1 $43 $1 #
transform $-1 1 0 0 0 1 0 0 0 1 75.336771752067619 40.194019707927062 17.599772227040166 1 rotate no_reflect no_shear #
lump $-1 $-1 $44 $2 #
transform $-1 1 0 0 0 1 0 0 0 1 75.336771752067619 40.194019707927062 17.599772227040166 1 rotate no_reflect no_shear #
lump $-1 $-1 $45 $3 #
transform $-1 1 0 0 0 1 0 0 0 1 75.336771752067619 40.194019707927062 17.599772227040166 1 rotate no_reflect no_shear #
lump $-1 $-1 $46 $4 #
transform $-1 1 0 0 0 1 0 0 0 1 75.336771752067619 40.194019707927062 17.599772227040166 1 rotate no_reflect no_shear #
lump $-1 $-1 $47 $5 #
transform $-1 1 0 0 0 1 0 0 0 1 75.336771752067619 40.194019707927062 17.599772227040166 1 rotate no_reflect no_shear #
lump $-1 $-1 $48 $6 #
transform $-1 1 0 0 0 1 0 0 0 1 75.336771752067619 40.194019707927062 17.599772227040166 1 rotate no_reflect no_shear #
lump $-1 $-1 $49 $7 #
transform $-1 1 0 0 0 1 0 0 0 1 75.336771752067619 40.194019707927062 17.599772227040166 1 rotate no_reflect no_shear #
lump $-1 $-1 $50 $8 #
transform $-1 1 0 0 0 1 0 0 0 1 75.336771752067619 40.194019707927062 17.599772227040166 1 rotate no_reflect no_shear #
lump $-1 $-1 $51 $9 #
transform $-1 1 0 0 0 1 0 0 0 1 75.336771752067619 40.194019707927062 17.599772227040166 1 rotate no_reflect no_shear #
lump $-1 $-1 $52 $10 #
transform $-1 1 0 0 0 1 0 0 0 1 75.336771752067619 40.194019707927062 17.599772227040166 1 rotate no_reflect no_shear #
lump $-1 $-1 $53 $11 #
transform $-1 1 0 0 0 1 0 0 0 1 75.336771752067619 40.194019707927062 17.599772227040166 1 rotate no_reflect no_shear #
lump $-1 $-1 $54 $12 #
transform $-1 1 0 0 0 1 0 0 0 1 75.336771752067619 40.194019707927062 17.599772227040166 1 rotate no_reflect no_shear #
lump $-1 $-1 $55 $13 #
transform $-1 1 0 0 0 1 0 0 0 1 75.336771752067619 40.194019707927062 17.599772227040166 1 rotate no_reflect no_shear #
shell $-1 $-1 $-1 $56 $-1 $14 #
shell $-1 $-1 $-1 $57 $-1 $16 #
shell $-1 $-1 $-1 $58 $-1 $18 #
shell $-1 $-1 $-1 $59 $-1 $20 #
shell $-1 $-1 $-1 $60 $-1 $22 #
shell $-1 $-1 $-1 $61 $-1 $24 #
shell $-1 $-1 $-1 $62 $-1 $26 #
shell $-1 $-1 $-1 $63 $-1 $28 #
shell $-1 $-1 $-1 $64 $-1 $30 #
shell $-1 $-1 $-1 $65 $-1 $32 #
shell $-1 $-1 $-1 $66 $-1 $34 #
shell $-1 $-1 $-1 $67 $-1 $36 #
shell $-1 $-1 $-1 $68 $-1 $38 #
shell $-1 $-1 $-1 $69 $-1 $40 #
face $-1 $70 $71 $42 $-1 $72 forward single #
face $-1 $73 $74 $43 $-1 $75 forward single #
face $-1 $76 $77 $44 $-1 $78 reversed single #
face $-1 $79 $80 $45 $-1 $81 forward single #
face $-1 $82 $83 $46 $-1 $84 forward single #
face $-1 $85 $86 $47 $-1 $87 reversed single #
face $-1 $88 $89 $48 $-1 $90 forward single #
face $-1 $91 $92 $49 $-1 $93 forward single #
face $-1 $94 $95 $50 $-1 $96 reversed single #
face $-1 $97 $98 $51 $-1 $99 forward single #
face $-1 $100 $101 $52 $-1 $102 forward single #
face $-1 $103 $104 $53 $-1 $105 reversed single #
face $-1 $106 $107 $54 $-1 $108 forward single #
face $-1 $109 $110 $55 $-1 $111 forward single #
face $-1 $112 $113 $42 $-1 $114 reversed single #
loop $-1 $-1 $115 $56 #
plane-surface $-1 0 0 17.599772227040166 0 0 1 1 0 0 forward_v I I I I #
face $-1 $116 $117 $43 $-1 $118 reversed single #
loop $-1 $-1 $119 $57 #
plane-surface $-1 -66.461549353487428 0 -11.460611589794656 0 0 1 1 0 0 forward_v I I I I #
face $-1 $120 $121 $44 $-1 $122 reversed single #
loop $-1 $-1 $123 $58 #
plane-surface $-1 -17.206638870618711 72.542714531505027 176.30458969642453 1 0 0 0 -0.62932039886446345 -0.77714595512881146 forward_v I I I I #
face $-1 $124 $125 $45 $-1 $126 forward single #
loop $-1 $127 $128 $59 #
cone-surface $-1 -12.858759077102796 33.615351735674693 11.833005457517068 0 -0.62932039886446345 -0.77714595512881146 1.5 0 0 1 I I 0 1 1.5 forward I I I I #
face $-1 $129 $130 $46 $-1 $131 forward single #
loop $-1 $132 $133 $60 #
cone-surface $-1 -6.3369393868289308 33.615351735674693 11.833005457517068 0 -0.62932039886446345 -0.77714595512881146 1.5 0 0 1 I I 0 1 1.5 forward I I I I #
face $-1 $134 $135 $47 $-1 $136 reversed single #
loop $-1 $-1 $137 $61 #
plane-surface $-1 19.739504390473407 72.542714531505027 176.30458969642453 1 0 0 0 -0.62932039886446345 -0.77714595512881146 forward_v I I I I #
face $-1 $138 $139 $48 $-1 $140 forward single #
loop $-1 $141 $142 $62 #
cone-surface $-1 24.087384183989315 33.615351735674693 11.833005457517068 0 -0.62932039886446345 -0.77714595512881146 1.5 0 0 1 I I 0 1 1.5 forward I I I I #
face $-1 $143 $144 $49 $-1 $145 forward single #
loop $-1 $146 $147 $63 #
cone-surface $-1 30.609203874263187 33.615351735674693 11.833005457517068 0 -0.62932039886446345 -0.77714595512881146 1.5 0 0 1 I I 0 1 1.5 forward I I I I #
face $-1 $148 $149 $50 $-1 $150 reversed single #
loop $-1 $-1 $151 $64 #
plane-surface $-1 -1.9890595933130513 -135.01595420427151 125.71475666730701 -1 0 0 0 -0.62932039886446345 0.77714595512881146 forward_v I I I I #
face $-1 $152 $153 $51 $-1 $154 forward single #
loop $-1 $155 $156 $65 #
cone-surface $-1 -12.858759077102796 -33.6153517356747 11.833005457517061 0 0.62932039886446345 -0.77714595512881146 1.5 0 0 1 I I 0 1 1.5 forward I I I I #
face $-1 $157 $158 $52 $-1 $159 forward single #
loop $-1 $160 $161 $66 #
cone-surface $-1 -6.3369393868289308 -33.6153517356747 11.833005457517061 0 0.62932039886446345 -0.77714595512881146 1.5 0 0 1 I I 0 1 1.5 forward I I I I #
face $-1 $162 $163 $53 $-1 $164 reversed single #
loop $-1 $-1 $165 $67 #
plane-surface $-1 34.957083667779067 -135.01595420427151 125.71475666730701 -1 0 0 0 -0.62932039886446345 0.77714595512881146 forward_v I I I I #
face $-1 $166 $167 $54 $-1 $168 forward single #
loop $-1 $169 $170 $68 #
cone-surface $-1 24.087384183989315 -33.6153517356747 11.833005457517061 0 0.62932039886446345 -0.77714595512881146 1.5 0 0 1 I I 0 1 1.5 forward I I I I #
face $-1 $171 $172 $55 $-1 $173 forward single #
loop $-1 $174 $175 $69 #
cone-surface $-1 30.609203874263187 -33.6153517356747 11.833005457517061 0 0.62932039886446345 -0.77714595512881146 1.5 0 0 1 I I 0 1 1.5 forward I I I I #
face $-1 $176 $177 $42 $-1 $178 reversed single #
loop $-1 $-1 $179 $70 #
plane-surface $-1 0 0 -17.599772227040166 0 0 1 1 0 0 forward_v I I I I #
coedge $-1 $180 $181 $182 $183 forward $71 $-1 #
face $-1 $184 $185 $43 $-1 $186 reversed single #
loop $-1 $-1 $187 $73 #
plane-surface $-1 -57.586326954907236 0 -14.530191908417411 -1 0 0 0 0 1 forward_v I I I I #
coedge $-1 $188 $189 $190 $191 forward $74 $-1 #
face $-1 $192 $193 $44 $-1 $194 reversed single #
loop $-1 $-1 $195 $76 #
plane-surface $-1 -9.5978492319658812 -22.279219964839442 59.209254817260828 0 0.62932039886446345 0.77714595512881146 1 0 0 forward_v I I I I #
coedge $-1 $196 $197 $198 $199 reversed $77 $-1 #
face $-1 $-1 $200 $45 $-1 $201 forward single #
loop $-1 $202 $203 $79 #
cone-surface $-1 -12.858759077102796 32.109597961109635 9.9735544410957786 0 -0.62932039886446345 -0.77714595512881146 0.75 0 0 1 I I -0.70710678118654757 0.70710678118654757 0.75 forward I I I I #
loop $-1 $-1 $204 $59 #
coedge $-1 $128 $128 $205 $206 reversed $80 $-1 #
face $-1 $-1 $207 $46 $-1 $208 forward single #
loop $-1 $209 $210 $82 #
cone-surface $-1 -6.3369393868289308 32.109597961109635 9.9735544410957786 0 -0.62932039886446345 -0.77714595512881146 0.75 0 0 1 I I -0.70710678118654757 0.70710678118654757 0.75 forward I I I I #
loop $-1 $-1 $211 $60 #
coedge $-1 $133 $133 $212 $213 reversed $83 $-1 #
face $-1 $214 $215 $47 $-1 $216 reversed single #
loop $-1 $-1 $217 $85 #
plane-surface $-1 27.348294029126237 -22.279219964839442 59.209254817260828 0 0.62932039886446345 0.77714595512881146 1 0 0 forward_v I I I I #
coedge $-1 $218 $219 $220 $221 reversed $86 $-1 #
face $-1 $-1 $222 $48 $-1 $223 forward single #
loop $-1 $224 $225 $88 #
cone-surface $-1 24.087384183989315 32.109597961109635 9.9735544410957786 0 -0.62932039886446345 -0.77714595512881146 0.75 0 0 1 I I -0.70710678118654757 0.70710678118654757 0.75 forward I I I I #
loop $-1 $-1 $226 $62 #
coedge $-1 $142 $142 $227 $228 reversed $89 $-1 #
face $-1 $-1 $229 $49 $-1 $230 forward single #
loop $-1 $231 $232 $91 #
cone-surface $-1 30.609203874263187 32.109597961109635 9.9735544410957786 0 -0.62932039886446345 -0.77714595512881146 0.75 0 0 1 I I -0.70710678118654757 0.70710678118654757 0.75 forward I I I I #
loop $-1 $-1 $233 $63 #
coedge $-1 $147 $147 $234 $235 reversed $92 $-1 #
face $-1 $236 $237 $50 $-1 $238 reversed single #
loop $-1 $-1 $239 $94 #
plane-surface $-1 -9.5978492319658812 -40.19401970792704 8.6194217881433133 0 -0.62932039886446345 0.77714595512881146 1 0 0 forward_v I I I I #
coedge $-1 $240 $241 $242 $243 reversed $95 $-1 #
face $-1 $-1 $244 $51 $-1 $245 forward single #
loop $-1 $246 $247 $97 #
cone-surface $-1 -12.858759077102796 -32.109597961109642 9.9735544410957715 0 0.62932039886446345 -0.77714595512881146 0.75 0 0 1 I I -0.70710678118654757 0.70710678118654757 0.75 forward I I I I #
loop $-1 $-1 $248 $65 #
coedge $-1 $156 $156 $249 $250 reversed $98 $-1 #
face $-1 $-1 $251 $52 $-1 $252 forward single #
loop $-1 $253 $254 $100 #
cone-surface $-1 -6.3369393868289308 -32.109597961109642 9.9735544410957715 0 0.62932039886446345 -0.77714595512881146 0.75 0 0 1 I I -0.70710678118654757 0.70710678118654757 0.75 forward I I I I #
loop $-1 $-1 $255 $66 #
coedge $-1 $161 $161 $256 $257 reversed $101 $-1 #
face $-1 $258 $259 $53 $-1 $260 reversed single #
loop $-1 $-1 $261 $103 #
plane-surface $-1 27.348294029126237 -40.19401970792704 8.6194217881433133 0 -0.62932039886446345 0.77714595512881146 1 0 0 forward_v I I I I #
coedge $-1 $262 $263 $264 $265 reversed $104 $-1 #
face $-1 $-1 $266 $54 $-1 $267 forward single #
loop $-1 $268 $269 $106 #
cone-surface $-1 24.087384183989315 -32.109597961109642 9.9735544410957715 0 0.62932039886446345 -0.77714595512881146 0.75 0 0 1 I I -0.70710678118654757 0.70710678118654757 0.75 forward I I I I #
loop $-1 $-1 $270 $68 #
coedge $-1 $170 $170 $271 $272 reversed $107 $-1 #
face $-1 $-1 $273 $55 $-1 $274 forward single #
loop $-1 $275 $276 $109 #
cone-surface $-1 30.609203874263187 -32.109597961109642 9.9735544410957715 0 0.62932039886446345 -0.77714595512881146 0.75 0 0 1 I I -0.70710678118654757 0.70710678118654757 0.75 forward I I I I #
loop $-1 $-1 $277 $69 #
coedge $-1 $175 $175 $278 $279 reversed $110 $-1 #
face $-1 $280 $281 $42 $-1 $282 reversed single #
loop $-1 $-1 $283 $112 #
plane-surface $-1 0 -40.194019707927062 0 0 1 0 0 0 1 forward_v I I I I #
coedge $-1 $284 $285 $286 $287 forward $113 $-1 #
coedge $-1 $288 $115 $289 $290 forward $71 $-1 #
coedge $-1 $115 $288 $291 $292 forward $71 $-1 #
coedge $-1 $293 $294 $115 $183 reversed $295 $-1 #
edge $-1 $296 -40.194019707927062 $297 40.194019707927062 $182 $298 forward 7 unknown #
face $-1 $299 $300 $43 $-1 $301 reversed single #
loop $-1 $-1 $302 $116 #
plane-surface $-1 0 0 -17.599772227040166 0 0 1 1 0 0 forward_v I I I I #
coedge $-1 $303 $190 $304 $305 reversed $117 $-1 #
coedge $-1 $306 $119 $307 $308 reversed $74 $-1 #
coedge $-1 $119 $306 $309 $310 reversed $74 $-1 #
coedge $-1 $187 $311 $119 $191 reversed $117 $-1 #
edge $-1 $312 -40.194019707927062 $313 40.194019707927062 $190 $314 forward 7 unknown #
face $-1 $315 $316 $44 $-1 $317 reversed single #
loop $-1 $-1 $318 $120 #
plane-surface $-1 -1.9890595933130513 72.542714531505027 176.30458969642453 -1 0 0 0 0.62932039886446345 0.77714595512881146 forward_v I I I I #
coedge $-1 $319 $320 $321 $322 reversed $121 $-1 #
coedge $-1 $197 $123 $323 $324 reversed $77 $-1 #
coedge $-1 $123 $196 $319 $325 reversed $77 $-1 #
coedge $-1 $321 $326 $123 $199 forward $327 $-1 #
edge $-1 $328 -3.9226624421745484 $329 7.1671465514967707 $198 $330 forward 7 unknown #
loop $-1 $-1 $205 $124 #
plane-surface $-1 -9.5978492319658812 -22.279219964839442 59.209254817260828 0 0.62932039886446345 0.77714595512881146 1 0 0 forward_v I I I I #
loop $-1 $-1 $331 $79 #
coedge $-1 $203 $203 $204 $332 reversed $125 $-1 #
coedge $-1 $204 $204 $203 $332 forward $127 $-1 #
coedge $-1 $205 $205 $128 $206 forward $200 $-1 #
edge $-1 $333 1.400485002177712e-015 $333 6.2831853071796022 $205 $334 forward 7 unknown #
loop $-1 $-1 $212 $129 #
plane-surface $-1 -9.5978492319658812 -22.279219964839442 59.209254817260828 0 0.62932039886446345 0.77714595512881146 1 0 0 forward_v I I I I #
loop $-1 $-1 $335 $82 #
coedge $-1 $210 $210 $211 $336 reversed $130 $-1 #
coedge $-1 $211 $211 $210 $336 forward $132 $-1 #
coedge $-1 $212 $212 $133 $213 forward $207 $-1 #
edge $-1 $337 1.400485002177712e-015 $337 6.2831853071796022 $212 $338 forward 7 unknown #
face $-1 $339 $340 $47 $-1 $341 forward single #
loop $-1 $-1 $342 $134 #
plane-surface $-1 34.957083667779067 72.542714531505027 176.30458969642453 -1 0 0 0 0.62932039886446345 0.77714595512881146 forward_v I I I I #
coedge $-1 $343 $344 $345 $346 reversed $135 $-1 #
coedge $-1 $219 $137 $347 $348 reversed $86 $-1 #
coedge $-1 $137 $218 $343 $349 reversed $86 $-1 #
coedge $-1 $345 $350 $137 $221 forward $340 $-1 #
edge $-1 $351 -3.9226624421745484 $352 7.1671465514967707 $220 $353 forward 7 unknown #
loop $-1 $-1 $227 $138 #
plane-surface $-1 27.348294029126237 -22.279219964839442 59.209254817260828 0 0.62932039886446345 0.77714595512881146 1 0 0 forward_v I I I I #
loop $-1 $-1 $354 $88 #
coedge $-1 $225 $225 $226 $355 reversed $139 $-1 #
coedge $-1 $226 $226 $225 $355 forward $141 $-1 #
coedge $-1 $227 $227 $142 $228 forward $222 $-1 #
edge $-1 $356 1.400485002177712e-015 $356 6.2831853071796022 $227 $357 forward 7 unknown #
loop $-1 $-1 $234 $143 #
plane-surface $-1 27.348294029126237 -22.279219964839442 59.209254817260828 0 0.62932039886446345 0.77714595512881146 1 0 0 forward_v I I I I #
loop $-1 $-1 $358 $91 #
coedge $-1 $232 $232 $233 $359 reversed $144 $-1 #
coedge $-1 $233 $233 $232 $359 forward $146 $-1 #
coedge $-1 $234 $234 $147 $235 forward $229 $-1 #
edge $-1 $360 1.400485002177712e-015 $360 6.2831853071796022 $234 $361 forward 7 unknown #
face $-1 $362 $363 $50 $-1 $364 forward single #
loop $-1 $-1 $365 $148 #
plane-surface $-1 -17.206638870618711 -135.01595420427151 125.71475666730701 1 0 0 0 0.62932039886446345 -0.77714595512881146 forward_v I I I I #
coedge $-1 $366 $367 $368 $369 reversed $149 $-1 #
coedge $-1 $241 $151 $370 $371 reversed $95 $-1 #
coedge $-1 $151 $240 $366 $372 reversed $95 $-1 #
coedge $-1 $368 $373 $151 $243 forward $363 $-1 #
edge $-1 $374 27.313957394208693 $375 38.403766387880012 $242 $376 forward 7 unknown #
loop $-1 $-1 $249 $152 #
plane-surface $-1 -9.5978492319658812 -40.19401970792704 8.6194217881433133 0 -0.62932039886446345 0.77714595512881146 1 0 0 forward_v I I I I #
loop $-1 $-1 $377 $97 #
coedge $-1 $247 $247 $248 $378 reversed $153 $-1 #
coedge $-1 $248 $248 $247 $378 forward $155 $-1 #
coedge $-1 $249 $249 $156 $250 forward $244 $-1 #
edge $-1 $379 -2.1457500653090345e-015 $379 6.2831853071795987 $249 $380 forward 7 unknown #
loop $-1 $-1 $256 $157 #
plane-surface $-1 -9.5978492319658812 -40.19401970792704 8.6194217881433133 0 -0.62932039886446345 0.77714595512881146 1 0 0 forward_v I I I I #
loop $-1 $-1 $381 $100 #
coedge $-1 $254 $254 $255 $382 reversed $158 $-1 #
coedge $-1 $255 $255 $254 $382 forward $160 $-1 #
coedge $-1 $256 $256 $161 $257 forward $251 $-1 #
edge $-1 $383 -2.1457500653090345e-015 $383 6.2831853071795987 $256 $384 forward 7 unknown #
face $-1 $385 $386 $53 $-1 $387 reversed single #
loop $-1 $-1 $388 $162 #
plane-surface $-1 19.739504390473407 -135.01595420427151 125.71475666730701 1 0 0 0 0.62932039886446345 -0.77714595512881146 forward_v I I I I #
coedge $-1 $389 $390 $391 $392 reversed $163 $-1 #
coedge $-1 $263 $165 $393 $394 reversed $104 $-1 #
coedge $-1 $165 $262 $389 $395 reversed $104 $-1 #
coedge $-1 $391 $396 $165 $265 forward $397 $-1 #
edge $-1 $398 27.313957394208693 $399 38.403766387880012 $264 $400 forward 7 unknown #
loop $-1 $-1 $271 $166 #
plane-surface $-1 27.348294029126237 -40.19401970792704 8.6194217881433133 0 -0.62932039886446345 0.77714595512881146 1 0 0 forward_v I I I I #
loop $-1 $-1 $401 $106 #
coedge $-1 $269 $269 $270 $402 reversed $167 $-1 #
coedge $-1 $270 $270 $269 $402 forward $169 $-1 #
coedge $-1 $271 $271 $170 $272 forward $266 $-1 #
edge $-1 $403 -2.1457500653090345e-015 $403 6.2831853071795987 $271 $404 forward 7 unknown #
loop $-1 $-1 $278 $171 #
plane-surface $-1 27.348294029126237 -40.19401970792704 8.6194217881433133 0 -0.62932039886446345 0.77714595512881146 1 0 0 forward_v I I I I #
loop $-1 $-1 $405 $109 #
coedge $-1 $276 $276 $277 $406 reversed $172 $-1 #
coedge $-1 $277 $277 $276 $406 forward $174 $-1 #
coedge $-1 $278 $278 $175 $279 forward $273 $-1 #
edge $-1 $407 -2.1457500653090345e-015 $407 6.2831853071795987 $278 $408 forward 7 unknown #
face $-1 $409 $410 $42 $-1 $411 reversed single #
loop $-1 $-1 $412 $176 #
plane-surface $-1 -75.336771752067619 0 0 1 0 0 0 0 -1 forward_v I I I I #
coedge $-1 $413 $291 $414 $415 forward $177 $-1 #
coedge $-1 $416 $179 $413 $417 forward $113 $-1 #
coedge $-1 $179 $416 $418 $419 forward $113 $-1 #
coedge $-1 $294 $293 $179 $287 reversed $295 $-1 #
edge $-1 $420 -40.194019707927062 $421 40.194019707927062 $286 $422 forward 7 unknown #
coedge $-1 $181 $180 $423 $424 forward $71 $-1 #
coedge $-1 $425 $426 $180 $290 reversed $410 $-1 #
edge $-1 $297 -75.336771752067619 $427 75.336771752067619 $289 $428 forward 7 unknown #
coedge $-1 $283 $429 $181 $292 reversed $177 $-1 #
edge $-1 $430 -75.336771752067619 $296 75.336771752067619 $291 $431 forward 7 unknown #
coedge $-1 $286 $182 $429 $432 forward $295 $-1 #
coedge $-1 $182 $286 $425 $433 reversed $295 $-1 #
loop $-1 $-1 $293 $409 #
vertex $-1 $183 $434 #
vertex $-1 $183 $435 #
straight-curve $-1 75.336771752067619 0 17.599772227040166 0 1 0 I I #
face $-1 $436 $437 $43 $-1 $438 reversed single #
loop $-1 $-1 $304 $184 #
plane-surface $-1 0 -40.194019707927062 0 0 1 0 0 0 1 forward_v I I I I #
coedge $-1 $439 $440 $303 $441 forward $185 $-1 #
coedge $-1 $311 $187 $302 $441 reversed $117 $-1 #
coedge $-1 $309 $442 $187 $305 forward $300 $-1 #
edge $-1 $443 -10.334676272831461 $312 -4.1955156355859504 $304 $444 forward 7 unknown #
coedge $-1 $189 $188 $445 $446 reversed $74 $-1 #
coedge $-1 $447 $448 $188 $308 forward $449 $-1 #
edge $-1 $450 -42.105997075323906 $313 -24.355552278163522 $307 $451 forward 7 unknown #
coedge $-1 $452 $304 $189 $310 forward $300 $-1 #
edge $-1 $312 24.355552278163522 $453 42.105997075323906 $309 $454 forward 7 unknown #
coedge $-1 $190 $303 $447 $455 reversed $117 $-1 #
vertex $-1 $310 $456 #
vertex $-1 $308 $457 #
straight-curve $-1 -57.586326954907236 0 -11.460611589794656 0 1 0 I I #
face $-1 $-1 $327 $44 $-1 $458 forward single #
loop $-1 $-1 $459 $192 #
plane-surface $-1 0 40.194019707927062 0 0 -1 0 0 0 -1 forward_v I I I I #
coedge $-1 $460 $461 $462 $463 reversed $193 $-1 #
coedge $-1 $464 $195 $197 $325 forward $121 $-1 #
coedge $-1 $195 $464 $460 $465 forward $121 $-1 #
coedge $-1 $462 $198 $195 $322 forward $327 $-1 #
edge $-1 $329 -12.407714254635771 $466 2.8098650226698894 $321 $467 forward 7 unknown #
coedge $-1 $468 $469 $196 $324 forward $316 $-1 #
edge $-1 $470 -79.532873060068965 $328 -70.552522621172102 $323 $471 forward 7 unknown #
edge $-1 $329 66.118121493122118 $470 80.388039415854138 $197 $472 forward 7 unknown #
coedge $-1 $198 $462 $468 $473 forward $327 $-1 #
loop $-1 $-1 $462 $315 #
vertex $-1 $324 $474 #
vertex $-1 $199 $475 #
straight-curve $-1 -17.206638870618711 36.271357265752513 17.599772227040162 0 -1 0 I I #
coedge $-1 $331 $331 $-1 $476 reversed $202 $-1 #
edge $-1 $477 0 $477 6.2831853071796004 $203 $478 forward 7 unknown #
vertex $-1 $206 $479 #
ellipse-curve $-1 -12.858759077102796 34.649115211091399 13.109597007591734 0 0.62932039886446345 0.77714595512881146 1.5 0 0 1 I I #
coedge $-1 $335 $335 $-1 $480 reversed $209 $-1 #
edge $-1 $481 0 $481 6.2831853071796004 $210 $482 forward 7 unknown #
vertex $-1 $213 $483 #
ellipse-curve $-1 -6.3369393868289308 34.649115211091399 13.109597007591734 0 0.62932039886446345 0.77714595512881146 1.5 0 0 1 I I #
face $-1 $-1 $484 $47 $-1 $485 reversed single #
loop $-1 $-1 $220 $214 #
plane-surface $-1 0 0 17.599772227040166 0 0 1 1 0 0 forward_v I I I I #
coedge $-1 $486 $487 $488 $489 reversed $215 $-1 #
coedge $-1 $490 $217 $219 $349 forward $135 $-1 #
coedge $-1 $217 $490 $486 $491 forward $135 $-1 #
coedge $-1 $488 $220 $217 $346 forward $340 $-1 #
edge $-1 $352 6.0653573759102883 $492 21.282936653215948 $345 $493 forward 7 unknown #
coedge $-1 $494 $495 $218 $348 forward $484 $-1 #
edge $-1 $496 -79.532873060068965 $351 -70.552522621172102 $347 $497 forward 7 unknown #
edge $-1 $352 66.118121493122118 $496 80.388039415854138 $219 $498 forward 7 unknown #
coedge $-1 $220 $488 $494 $499 forward $340 $-1 #
vertex $-1 $221 $500 #
vertex $-1 $221 $501 #
straight-curve $-1 19.739504390473407 36.271357265752513 17.599772227040162 0 -1 0 I I #
coedge $-1 $354 $354 $-1 $502 reversed $224 $-1 #
edge $-1 $503 0 $503 6.2831853071796004 $225 $504 forward 7 unknown #
vertex $-1 $228 $505 #
ellipse-curve $-1 24.087384183989315 34.649115211091399 13.109597007591734 0 0.62932039886446345 0.77714595512881146 1.5 0 0 1 I I #
coedge $-1 $358 $358 $-1 $506 reversed $231 $-1 #
edge $-1 $507 0 $507 6.2831853071796004 $232 $508 forward 7 unknown #
vertex $-1 $235 $509 #
ellipse-curve $-1 30.609203874263187 34.649115211091399 13.109597007591734 0 0.62932039886446345 0.77714595512881146 1.5 0 0 1 I I #
face $-1 $-1 $510 $50 $-1 $511 reversed single #
loop $-1 $-1 $242 $236 #
plane-surface $-1 0 0 17.599772227040166 0 0 1 1 0 0 forward_v I I I I #
coedge $-1 $512 $513 $514 $515 reversed $237 $-1 #
coedge $-1 $516 $239 $241 $372 forward $149 $-1 #
coedge $-1 $239 $516 $512 $517 forward $149 $-1 #
coedge $-1 $514 $242 $239 $369 forward $363 $-1 #
edge $-1 $375 -2.8098650226698894 $518 12.407714254635771 $368 $519 forward 7 unknown #
coedge $-1 $520 $521 $240 $371 forward $510 $-1 #
edge $-1 $522 -54.237956545510215 $374 -45.257606106613338 $370 $523 forward 7 unknown #
edge $-1 $375 -14.269917922731992 $522 2.7744838338233485e-014 $241 $524 forward 7 unknown #
coedge $-1 $242 $514 $520 $525 forward $363 $-1 #
vertex $-1 $243 $526 #
vertex $-1 $243 $527 #
straight-curve $-1 -1.9890595933130513 -67.507977102135754 17.599772227040162 0 1 0 I I #
coedge $-1 $377 $377 $-1 $528 reversed $246 $-1 #
edge $-1 $529 0 $529 6.2831853071796004 $247 $530 forward 7 unknown #
vertex $-1 $250 $531 #
ellipse-curve $-1 -12.858759077102796 -34.649115211091406 13.109597007591729 0 -0.62932039886446345 0.77714595512881146 1.5 0 0 1 I I #
coedge $-1 $381 $381 $-1 $532 reversed $253 $-1 #
edge $-1 $533 0 $533 6.2831853071796004 $254 $534 forward 7 unknown #
vertex $-1 $257 $535 #
ellipse-curve $-1 -6.3369393868289308 -34.649115211091406 13.109597007591729 0 -0.62932039886446345 0.77714595512881146 1.5 0 0 1 I I #
face $-1 $-1 $397 $53 $-1 $536 forward single #
loop $-1 $-1 $537 $258 #
plane-surface $-1 0 -40.194019707927062 0 0 1 0 0 0 1 forward_v I I I I #
coedge $-1 $538 $539 $540 $541 reversed $259 $-1 #
coedge $-1 $542 $261 $263 $395 forward $163 $-1 #
coedge $-1 $261 $542 $538 $543 forward $163 $-1 #
coedge $-1 $540 $264 $261 $392 forward $397 $-1 #
edge $-1 $399 -21.282936653215948 $544 -6.0653573759102883 $391 $545 forward 7 unknown #
coedge $-1 $546 $547 $262 $394 forward $386 $-1 #
edge $-1 $548 -54.237956545510215 $398 -45.257606106613338 $393 $549 forward 7 unknown #
edge $-1 $399 -14.269917922731992 $548 2.7744838338233485e-014 $263 $550 forward 7 unknown #
coedge $-1 $264 $540 $546 $551 forward $397 $-1 #
loop $-1 $-1 $540 $385 #
vertex $-1 $394 $552 #
vertex $-1 $265 $553 #
straight-curve $-1 34.957083667779067 -67.507977102135754 17.599772227040162 0 1 0 I I #
coedge $-1 $401 $401 $-1 $554 reversed $268 $-1 #
edge $-1 $555 0 $555 6.2831853071796004 $269 $556 forward 7 unknown #
vertex $-1 $272 $557 #
ellipse-curve $-1 24.087384183989315 -34.649115211091406 13.109597007591729 0 -0.62932039886446345 0.77714595512881146 1.5 0 0 1 I I #
coedge $-1 $405 $405 $-1 $558 reversed $275 $-1 #
edge $-1 $559 0 $559 6.2831853071796004 $276 $560 forward 7 unknown #
vertex $-1 $279 $561 #
ellipse-curve $-1 30.609203874263187 -34.649115211091406 13.109597007591729 0 -0.62932039886446345 0.77714595512881146 1.5 0 0 1 I I #
face $-1 $-1 $295 $42 $-1 $562 reversed single #
loop $-1 $-1 $425 $280 #
plane-surface $-1 0 40.194019707927062 0 0 -1 0 0 0 -1 forward_v I I I I #
coedge $-1 $563 $423 $426 $564 forward $281 $-1 #
coedge $-1 $429 $283 $284 $417 reversed $177 $-1 #
coedge $-1 $423 $563 $283 $415 reversed $281 $-1 #
edge $-1 $430 -17.599772227040166 $565 17.599772227040166 $414 $566 forward 7 unknown #
coedge $-1 $285 $284 $563 $567 forward $113 $-1 #
edge $-1 $421 -75.336771752067619 $565 75.336771752067619 $413 $568 forward 7 unknown #
coedge $-1 $426 $425 $285 $419 reversed $410 $-1 #
edge $-1 $569 -75.336771752067619 $420 75.336771752067619 $418 $570 forward 7 unknown #
vertex $-1 $287 $571 #
vertex $-1 $432 $572 #
straight-curve $-1 75.336771752067619 0 -17.599772227040166 0 -1 0 I I #
coedge $-1 $412 $414 $288 $424 reversed $281 $-1 #
edge $-1 $427 -40.194019707927062 $430 40.194019707927062 $423 $573 forward 7 unknown #
coedge $-1 $418 $289 $294 $433 forward $410 $-1 #
coedge $-1 $289 $418 $412 $564 reversed $410 $-1 #
vertex $-1 $290 $574 #
straight-curve $-1 0 40.194019707927062 17.599772227040166 -1 0 0 I I #
coedge $-1 $291 $413 $293 $432 reversed $177 $-1 #
vertex $-1 $424 $575 #
straight-curve $-1 0 -40.194019707927062 17.599772227040166 1 0 0 I I #
edge $-1 $296 -17.599772227040166 $421 17.599772227040166 $293 $576 forward 7 unknown #
edge $-1 $297 -17.599772227040166 $420 17.599772227040166 $294 $577 forward 7 unknown #
point $-1 75.336771752067619 -40.194019707927062 17.599772227040166 #
point $-1 75.336771752067619 40.194019707927062 17.599772227040166 #
face $-1 $-1 $449 $43 $-1 $578 reversed single #
loop $-1 $-1 $445 $299 #
plane-surface $-1 -75.336771752067619 0 0 1 0 0 0 0 -1 forward_v I I I I #
coedge $-1 $579 $302 $442 $580 forward $185 $-1 #
coedge $-1 $302 $579 $581 $582 forward $185 $-1 #
edge $-1 $583 -40.194019707927062 $443 40.194019707927062 $302 $584 forward 7 unknown #
coedge $-1 $304 $452 $439 $580 reversed $300 $-1 #
vertex $-1 $580 $585 #
straight-curve $-1 -57.586326954907236 -40.194019707927062 -7.2650959542087055 0 0 1 I I #
coedge $-1 $586 $587 $306 $446 forward $437 $-1 #
edge $-1 $453 -40.194019707927062 $450 40.194019707927062 $445 $588 forward 7 unknown #
coedge $-1 $581 $307 $311 $455 forward $449 $-1 #
coedge $-1 $307 $581 $586 $589 reversed $449 $-1 #
loop $-1 $-1 $447 $436 #
vertex $-1 $589 $590 #
straight-curve $-1 -33.230774676743714 40.194019707927062 -11.460611589794656 1 0 0 I I #
coedge $-1 $442 $309 $587 $591 forward $300 $-1 #
vertex $-1 $591 $592 #
straight-curve $-1 -33.230774676743714 -40.194019707927062 -11.460611589794656 -1 0 0 I I #
edge $-1 $313 4.1955156355859504 $583 10.334676272831461 $447 $593 forward 7 unknown #
point $-1 -57.586326954907236 -40.194019707927062 -11.460611589794656 #
point $-1 -57.586326954907236 40.194019707927062 -11.460611589794656 #
plane-surface $-1 0 0 17.599772227040166 0 0 1 1 0 0 forward_v I I I I #
coedge $-1 $469 $468 $461 $594 forward $316 $-1 #
coedge $-1 $461 $318 $320 $465 reversed $193 $-1 #
coedge $-1 $318 $460 $459 $594 reversed $193 $-1 #
coedge $-1 $326 $321 $318 $463 forward $327 $-1 #
edge $-1 $466 -7.1671465514967707 $595 3.9226624421745484 $462 $596 forward 7 unknown #
coedge $-1 $320 $319 $469 $597 reversed $121 $-1 #
edge $-1 $598 -80.388039415854138 $466 -66.118121493122118 $460 $599 forward 7 unknown #
vertex $-1 $322 $600 #
straight-curve $-1 -4.7989246159829406 29.104210714255739 17.599772227040166 1 0 0 I I #
coedge $-1 $459 $323 $326 $473 reversed $316 $-1 #
coedge $-1 $323 $459 $464 $597 forward $316 $-1 #
vertex $-1 $324 $601 #
straight-curve $-1 -17.206638870618711 40.194019707927062 88.152294848212264 0 0 1 I I #
straight-curve $-1 -17.206638870618711 -22.279219964839442 59.209254817260828 0 0.77714595512881146 -0.62932039886446345 I I #
edge $-1 $595 1.9890595933130513 $328 17.206638870618711 $468 $602 forward 7 unknown #
point $-1 -17.206638870618711 40.194019707927062 17.599772227040166 #
point $-1 -17.206638870618711 29.104210714255743 17.599772227040162 #
edge $-1 $603 1 $603 0 $331 $-1 forward 7 unknown #
vertex $-1 $332 $604 #
ellipse-curve $-1 -12.858759077102796 32.58158826025798 10.556413907442387 0 0.62932039886446345 0.77714595512881146 1.5 0 0 1 I I #
point $-1 -11.358759077102796 34.649115211091413 13.109597007591749 #
edge $-1 $605 1 $605 0 $335 $-1 forward 7 unknown #
vertex $-1 $336 $606 #
ellipse-curve $-1 -6.3369393868289308 32.58158826025798 10.556413907442387 0 0.62932039886446345 0.77714595512881146 1.5 0 0 1 I I #
point $-1 -4.8369393868289308 34.649115211091413 13.109597007591749 #
loop $-1 $-1 $347 $339 #
plane-surface $-1 0 40.194019707927062 0 0 -1 0 0 0 -1 forward_v I I I I #
coedge $-1 $487 $342 $344 $491 reversed $215 $-1 #
coedge $-1 $342 $486 $607 $608 reversed $215 $-1 #
coedge $-1 $350 $345 $342 $489 forward $340 $-1 #
edge $-1 $492 -7.1671465514967707 $609 3.9226624421745484 $488 $610 forward 7 unknown #
coedge $-1 $344 $343 $495 $611 reversed $135 $-1 #
edge $-1 $612 -80.388039415854138 $492 -66.118121493122118 $486 $613 forward 7 unknown #
vertex $-1 $346 $614 #
straight-curve $-1 13.674147014563118 29.104210714255739 17.599772227040166 1 0 0 I I #
coedge $-1 $607 $347 $350 $499 reversed $484 $-1 #
coedge $-1 $347 $607 $490 $611 forward $484 $-1 #
vertex $-1 $348 $615 #
straight-curve $-1 19.739504390473407 40.194019707927062 88.152294848212264 0 0 1 I I #
straight-curve $-1 19.739504390473407 -22.279219964839442 59.209254817260828 0 0.77714595512881146 -0.62932039886446345 I I #
edge $-1 $609 -34.957083667779067 $351 -19.739504390473407 $494 $616 forward 7 unknown #
point $-1 19.739504390473407 40.194019707927062 17.599772227040166 #
point $-1 19.739504390473407 29.104210714255743 17.599772227040162 #
edge $-1 $617 1 $617 0 $354 $-1 forward 7 unknown #
vertex $-1 $355 $618 #
ellipse-curve $-1 24.087384183989315 32.58158826025798 10.556413907442387 0 0.62932039886446345 0.77714595512881146 1.5 0 0 1 I I #
point $-1 25.587384183989315 34.649115211091413 13.109597007591749 #
edge $-1 $619 1 $619 0 $358 $-1 forward 7 unknown #
vertex $-1 $359 $620 #
ellipse-curve $-1 30.609203874263187 32.58158826025798 10.556413907442387 0 0.62932039886446345 0.77714595512881146 1.5 0 0 1 I I #
point $-1 32.109203874263187 34.649115211091413 13.109597007591749 #
loop $-1 $-1 $370 $362 #
plane-surface $-1 0 -40.194019707927062 0 0 1 0 0 0 1 forward_v I I I I #
coedge $-1 $513 $365 $367 $517 reversed $237 $-1 #
coedge $-1 $365 $512 $621 $622 reversed $237 $-1 #
coedge $-1 $373 $368 $365 $515 forward $363 $-1 #
edge $-1 $518 -38.403766387880012 $623 -27.313957394208693 $514 $624 forward 7 unknown #
coedge $-1 $367 $366 $521 $625 reversed $149 $-1 #
edge $-1 $626 -2.7744838338233485e-014 $518 14.269917922731992 $512 $627 forward 7 unknown #
vertex $-1 $369 $628 #
straight-curve $-1 -4.7989246159829406 -29.104210714255743 17.599772227040166 -1 0 0 I I #
coedge $-1 $621 $370 $373 $525 reversed $510 $-1 #
coedge $-1 $370 $621 $516 $625 forward $510 $-1 #
vertex $-1 $371 $629 #
straight-curve $-1 -1.9890595933130513 -40.194019707927062 62.857378333653507 0 0 1 I I #
straight-curve $-1 -1.9890595933130513 -40.19401970792704 8.6194217881433133 0 -0.77714595512881146 -0.62932039886446345 I I #
edge $-1 $623 -17.206638870618711 $374 -1.9890595933130513 $520 $630 forward 7 unknown #
point $-1 -1.9890595933130513 -40.194019707927062 17.599772227040166 #
point $-1 -1.9890595933130513 -29.104210714255743 17.599772227040166 #
edge $-1 $631 1 $631 0 $377 $-1 forward 7 unknown #
vertex $-1 $378 $632 #
ellipse-curve $-1 -12.858759077102796 -32.581588260257988 10.55641390744238 0 -0.62932039886446345 0.77714595512881146 1.5 0 0 1 I I #
point $-1 -11.358759077102796 -34.64911521109142 13.109597007591741 #
edge $-1 $633 1 $633 0 $381 $-1 forward 7 unknown #
vertex $-1 $382 $634 #
ellipse-curve $-1 -6.3369393868289308 -32.581588260257988 10.55641390744238 0 -0.62932039886446345 0.77714595512881146 1.5 0 0 1 I I #
point $-1 -4.8369393868289308 -34.64911521109142 13.109597007591741 #
plane-surface $-1 0 0 17.599772227040166 0 0 1 1 0 0 forward_v I I I I #
coedge $-1 $547 $546 $539 $635 forward $386 $-1 #
coedge $-1 $539 $388 $390 $543 reversed $259 $-1 #
coedge $-1 $388 $538 $537 $635 reversed $259 $-1 #
coedge $-1 $396 $391 $388 $541 forward $397 $-1 #
edge $-1 $544 -38.403766387880012 $636 -27.313957394208693 $540 $637 forward 7 unknown #
coedge $-1 $390 $389 $547 $638 reversed $163 $-1 #
edge $-1 $639 -2.7744838338233485e-014 $544 14.269917922731992 $538 $640 forward 7 unknown #
vertex $-1 $392 $641 #
straight-curve $-1 13.674147014563118 -29.104210714255743 17.599772227040166 -1 0 0 I I #
coedge $-1 $537 $393 $396 $551 reversed $386 $-1 #
coedge $-1 $393 $537 $542 $638 forward $386 $-1 #
vertex $-1 $394 $642 #
straight-curve $-1 34.957083667779067 -40.194019707927062 62.857378333653507 0 0 1 I I #
straight-curve $-1 34.957083667779067 -40.19401970792704 8.6194217881433133 0 -0.77714595512881146 -0.62932039886446345 I I #
edge $-1 $636 19.739504390473407 $398 34.957083667779067 $546 $643 forward 7 unknown #
point $-1 34.957083667779067 -40.194019707927062 17.599772227040166 #
point $-1 34.957083667779067 -29.104210714255743 17.599772227040166 #
edge $-1 $644 1 $644 0 $401 $-1 forward 7 unknown #
vertex $-1 $402 $645 #
ellipse-curve $-1 24.087384183989315 -32.581588260257988 10.55641390744238 0 -0.62932039886446345 0.77714595512881146 1.5 0 0 1 I I #
point $-1 25.587384183989315 -34.64911521109142 13.109597007591741 #
edge $-1 $646 1 $646 0 $405 $-1 forward 7 unknown #
vertex $-1 $406 $647 #
ellipse-curve $-1 30.609203874263187 -32.581588260257988 10.55641390744238 0 -0.62932039886446345 0.77714595512881146 1.5 0 0 1 I I #
point $-1 32.109203874263187 -34.64911521109142 13.109597007591741 #
plane-surface $-1 75.336771752067619 0 0 -1 0 0 0 0 1 forward_v I I I I #
coedge $-1 $414 $412 $416 $567 reversed $281 $-1 #
edge $-1 $427 -17.599772227040166 $569 17.599772227040166 $426 $648 forward 7 unknown #
vertex $-1 $567 $649 #
straight-curve $-1 -75.336771752067619 -40.194019707927062 0 0 0 -1 I I #
edge $-1 $565 -40.194019707927062 $569 40.194019707927062 $563 $650 forward 7 unknown #
straight-curve $-1 0 -40.194019707927062 -17.599772227040166 -1 0 0 I I #
vertex $-1 $419 $651 #
straight-curve $-1 0 40.194019707927062 -17.599772227040166 1 0 0 I I #
point $-1 75.336771752067619 40.194019707927062 -17.599772227040166 #
point $-1 75.336771752067619 -40.194019707927062 -17.599772227040166 #
straight-curve $-1 -75.336771752067619 0 17.599772227040166 0 -1 0 I I #
point $-1 -75.336771752067619 40.194019707927062 17.599772227040166 #
point $-1 -75.336771752067619 -40.194019707927062 17.599772227040166 #
straight-curve $-1 75.336771752067619 -40.194019707927062 0 0 0 -1 I I #
straight-curve $-1 75.336771752067619 40.194019707927062 0 0 0 -1 I I #
plane-surface $-1 0 40.194019707927062 0 0 -1 0 0 0 -1 forward_v I I I I #
coedge $-1 $440 $439 $652 $653 forward $185 $-1 #
edge $-1 $443 57.586326954907236 $654 75.336771752067619 $442 $655 forward 7 unknown #
coedge $-1 $448 $447 $440 $582 reversed $449 $-1 #
edge $-1 $656 -75.336771752067619 $583 -57.586326954907236 $581 $657 forward 7 unknown #
vertex $-1 $455 $658 #
straight-curve $-1 -57.586326954907236 0 -17.599772227040166 0 -1 0 I I #
point $-1 -57.586326954907236 -40.194019707927062 -17.599772227040166 #
coedge $-1 $652 $445 $448 $589 forward $437 $-1 #
coedge $-1 $445 $652 $452 $591 reversed $437 $-1 #
straight-curve $-1 -75.336771752067619 0 -11.460611589794656 0 1 0 I I #
edge $-1 $450 11.460611589794656 $656 17.599772227040166 $448 $659 forward 7 unknown #
point $-1 -75.336771752067619 40.194019707927062 -11.460611589794656 #
edge $-1 $453 11.460611589794656 $654 17.599772227040166 $587 $660 forward 7 unknown #
point $-1 -75.336771752067619 -40.194019707927062 -11.460611589794656 #
straight-curve $-1 -57.586326954907236 40.194019707927062 -7.2650959542087055 0 0 -1 I I #
edge $-1 $595 70.552522621172102 $598 79.532873060068965 $459 $661 forward 7 unknown #
vertex $-1 $473 $662 #
straight-curve $-1 -1.9890595933130513 36.271357265752513 17.599772227040162 0 1 0 I I #
edge $-1 $598 -2.8098650226698894 $470 12.407714254635771 $469 $663 forward 7 unknown #
vertex $-1 $597 $664 #
straight-curve $-1 -1.9890595933130513 -22.279219964839442 59.209254817260828 0 -0.77714595512881146 0.62932039886446345 I I #
point $-1 -1.9890595933130513 29.104210714255743 17.599772227040162 #
point $-1 -17.206638870618711 40.194019707927062 8.619421788143292 #
straight-curve $-1 0 40.194019707927062 17.599772227040166 -1 0 0 I I #
vertex $-1 $476 $665 #
point $-1 -11.358759077102796 32.58158826025798 10.556413907442387 #
vertex $-1 $480 $666 #
point $-1 -4.8369393868289308 32.58158826025798 10.556413907442387 #
coedge $-1 $495 $494 $487 $608 forward $484 $-1 #
edge $-1 $609 70.552522621172102 $612 79.532873060068965 $607 $667 forward 7 unknown #
vertex $-1 $499 $668 #
straight-curve $-1 34.957083667779067 36.271357265752513 17.599772227040162 0 1 0 I I #
edge $-1 $612 -21.282936653215948 $496 -6.0653573759102883 $495 $669 forward 7 unknown #
vertex $-1 $611 $670 #
straight-curve $-1 34.957083667779067 -22.279219964839442 59.209254817260828 0 -0.77714595512881146 0.62932039886446345 I I #
point $-1 34.957083667779067 29.104210714255743 17.599772227040162 #
point $-1 19.739504390473407 40.194019707927062 8.619421788143292 #
straight-curve $-1 0 40.194019707927062 17.599772227040166 -1 0 0 I I #
vertex $-1 $502 $671 #
point $-1 25.587384183989315 32.58158826025798 10.556413907442387 #
vertex $-1 $506 $672 #
point $-1 32.109203874263187 32.58158826025798 10.556413907442387 #
coedge $-1 $521 $520 $513 $622 forward $510 $-1 #
edge $-1 $623 45.257606106613338 $626 54.237956545510215 $621 $673 forward 7 unknown #
vertex $-1 $525 $674 #
straight-curve $-1 -17.206638870618711 -67.507977102135754 17.599772227040162 0 -1 0 I I #
edge $-1 $626 -12.407714254635771 $522 2.8098650226698894 $521 $675 forward 7 unknown #
vertex $-1 $625 $676 #
straight-curve $-1 -17.206638870618711 -40.19401970792704 8.6194217881433133 0 0.77714595512881146 0.62932039886446345 I I #
point $-1 -17.206638870618711 -29.104210714255743 17.599772227040166 #
point $-1 -1.9890595933130513 -40.194019707927062 8.6194217881432955 #
straight-curve $-1 0 -40.194019707927062 17.599772227040166 1 0 0 I I #
vertex $-1 $528 $677 #
point $-1 -11.358759077102796 -32.581588260257988 10.55641390744238 #
vertex $-1 $532 $678 #
point $-1 -4.8369393868289308 -32.581588260257988 10.55641390744238 #
edge $-1 $636 45.257606106613338 $639 54.237956545510215 $537 $679 forward 7 unknown #
vertex $-1 $551 $680 #
straight-curve $-1 19.739504390473407 -67.507977102135754 17.599772227040162 0 -1 0 I I #
edge $-1 $639 6.0653573759102883 $548 21.282936653215948 $547 $681 forward 7 unknown #
vertex $-1 $638 $682 #
straight-curve $-1 19.739504390473407 -40.19401970792704 8.6194217881433133 0 0.77714595512881146 0.62932039886446345 I I #
point $-1 19.739504390473407 -29.104210714255743 17.599772227040166 #
point $-1 34.957083667779067 -40.194019707927062 8.6194217881432955 #
straight-curve $-1 0 -40.194019707927062 17.599772227040166 1 0 0 I I #
vertex $-1 $554 $683 #
point $-1 25.587384183989315 -32.581588260257988 10.55641390744238 #
vertex $-1 $558 $684 #
point $-1 32.109203874263187 -32.581588260257988 10.55641390744238 #
straight-curve $-1 -75.336771752067619 40.194019707927062 0 0 0 -1 I I #
point $-1 -75.336771752067619 -40.194019707927062 -17.599772227040166 #
straight-curve $-1 -75.336771752067619 0 -17.599772227040166 0 1 0 I I #
point $-1 -75.336771752067619 40.194019707927062 -17.599772227040166 #
coedge $-1 $587 $586 $579 $653 reversed $437 $-1 #
edge $-1 $654 -40.194019707927062 $656 40.194019707927062 $652 $685 forward 7 unknown #
vertex $-1 $653 $686 #
straight-curve $-1 0 -40.194019707927062 -17.599772227040166 -1 0 0 I I #
vertex $-1 $582 $687 #
straight-curve $-1 0 40.194019707927062 -17.599772227040166 1 0 0 I I #
point $-1 -57.586326954907236 40.194019707927062 -17.599772227040166 #
straight-curve $-1 -75.336771752067619 40.194019707927062 0 0 0 -1 I I #
straight-curve $-1 -75.336771752067619 -40.194019707927062 0 0 0 -1 I I #
straight-curve $-1 -1.9890595933130513 40.194019707927062 88.152294848212264 0 0 -1 I I #
point $-1 -1.9890595933130513 40.194019707927062 17.599772227040166 #
straight-curve $-1 -4.7989246159829406 40.194019707927055 8.6194217881432955 -1 0 0 I I #
point $-1 -1.9890595933130513 40.194019707927062 8.619421788143292 #
point $-1 -12.858759077102796 31.637607661961287 9.3906949747491701 #
point $-1 -6.3369393868289308 31.637607661961287 9.3906949747491701 #
straight-curve $-1 34.957083667779067 40.194019707927062 88.152294848212264 0 0 -1 I I #
point $-1 34.957083667779067 40.194019707927062 17.599772227040166 #
straight-curve $-1 13.674147014563118 40.194019707927055 8.6194217881432955 -1 0 0 I I #
point $-1 34.957083667779067 40.194019707927062 8.619421788143292 #
point $-1 24.087384183989315 31.637607661961287 9.3906949747491701 #
point $-1 30.609203874263187 31.637607661961287 9.3906949747491701 #
straight-curve $-1 -17.206638870618711 -40.194019707927062 62.857378333653507 0 0 -1 I I #
point $-1 -17.206638870618711 -40.194019707927062 17.599772227040166 #
straight-curve $-1 -4.7989246159829406 -40.194019707927062 8.6194217881433026 1 0 0 I I #
point $-1 -17.206638870618711 -40.194019707927062 8.6194217881432955 #
point $-1 -12.858759077102796 -31.637607661961294 9.390694974749163 #
point $-1 -6.3369393868289308 -31.637607661961294 9.390694974749163 #
straight-curve $-1 19.739504390473407 -40.194019707927062 62.857378333653507 0 0 -1 I I #
point $-1 19.739504390473407 -40.194019707927062 17.599772227040166 #
straight-curve $-1 13.674147014563118 -40.194019707927062 8.6194217881433026 1 0 0 I I #
point $-1 19.739504390473407 -40.194019707927062 8.6194217881432955 #
point $-1 24.087384183989315 -31.637607661961294 9.390694974749163 #
point $-1 30.609203874263187 -31.637607661961294 9.390694974749163 #
straight-curve $-1 -75.336771752067619 0 -17.599772227040166 0 1 0 I I #
point $-1 -75.336771752067619 -40.194019707927062 -17.599772227040166 #
point $-1 -75.336771752067619 40.194019707927062 -17.599772227040166 #
End-of-ACIS-data 