500 0 6 0           
7 Unknown 11 ACIS 5.0 NT 24 Fri Mar 26 15:48:37 1999 
-1 9.9999999999999995e-007 1e-010 
body $-1 $6 $-1 $7 #
body $-1 $8 $-1 $9 #
body $-1 $10 $-1 $11 #
body $-1 $12 $-1 $13 #
body $-1 $14 $-1 $15 #
body $-1 $16 $-1 $17 #
lump $-1 $-1 $18 $0 #
transform $-1 1 0 0 0 1 0 0 0 1 41.96417126987518 28.79592267125124 7.4043143062947534 1 rotate no_reflect no_shear #
lump $-1 $-1 $19 $1 #
transform $-1 1 0 0 0 1 0 0 0 1 41.96417126987518 28.79592267125124 7.4043143062947534 1 rotate no_reflect no_shear #
lump $-1 $-1 $20 $2 #
transform $-1 1 0 0 0 1 0 0 0 1 41.96417126987518 28.79592267125124 7.4043143062947534 1 rotate no_reflect no_shear #
lump $-1 $-1 $21 $3 #
transform $-1 1 0 0 0 1 0 0 0 1 41.96417126987518 28.79592267125124 7.4043143062947534 1 rotate no_reflect no_shear #
lump $-1 $-1 $22 $4 #
transform $-1 1 0 0 0 1 0 0 0 1 41.96417126987518 28.79592267125124 7.4043143062947534 1 rotate no_reflect no_shear #
lump $-1 $-1 $23 $5 #
transform $-1 1 0 0 0 1 0 0 0 1 41.96417126987518 28.79592267125124 7.4043143062947534 1 rotate no_reflect no_shear #
shell $-1 $-1 $-1 $24 $-1 $6 #
shell $-1 $-1 $-1 $25 $-1 $8 #
shell $-1 $-1 $-1 $26 $-1 $10 #
shell $-1 $-1 $-1 $27 $-1 $12 #
shell $-1 $-1 $-1 $28 $-1 $14 #
shell $-1 $-1 $-1 $29 $-1 $16 #
face $-1 $30 $31 $18 $-1 $32 forward single #
face $-1 $33 $34 $19 $-1 $35 forward single #
face $-1 $36 $37 $20 $-1 $38 reversed single #
face $-1 $39 $40 $21 $-1 $41 forward single #
face $-1 $42 $43 $22 $-1 $44 reversed single #
face $-1 $45 $46 $23 $-1 $47 forward single #
face $-1 $48 $49 $18 $-1 $50 reversed single #
loop $-1 $-1 $51 $24 #
plane-surface $-1 0 0 7.4043143062947534 0 0 1 1 0 0 forward_v I I I I #
face $-1 $52 $53 $19 $-1 $54 reversed single #
loop $-1 $-1 $55 $25 #
plane-surface $-1 0 -28.79592267125124 0 0 1 0 0 0 1 forward_v I I I I #
face $-1 $56 $57 $20 $-1 $58 reversed single #
loop $-1 $-1 $59 $26 #
plane-surface $-1 46.106484719676843 -12.373950301592441 120.96015929406668 0 -1 0 -0.73135370988377701 0 -0.68199835119979291 forward_v I I I I #
face $-1 $60 $61 $21 $-1 $62 forward single #
loop $-1 $63 $64 $27 #
cone-surface $-1 38.978937970558626 -15.873775139633313 4.2902974409392733 -0.73135370988377701 0 -0.68199835119979291 1.0229975267996894 0 -1.0970305648256655 1 I I 0 1 1.5 forward I I I I #
face $-1 $65 $66 $22 $-1 $67 reversed single #
loop $-1 $-1 $68 $28 #
plane-surface $-1 -103.34547595071803 -19.373599977674186 59.578854613223839 0 1 0 -0.73135370988377701 0 0.68199835119979291 forward_v I I I I #
face $-1 $69 $70 $23 $-1 $71 forward single #
loop $-1 $72 $73 $29 #
cone-surface $-1 -38.978937970558626 -15.873775139633313 4.2902974409392804 0.73135370988377701 0 -0.68199835119979291 1.0229975267996894 0 1.0970305648256655 1 I I 0 1 1.5 forward I I I I #
face $-1 $74 $75 $18 $-1 $76 reversed single #
loop $-1 $-1 $77 $30 #
plane-surface $-1 0 0 -7.4043143062947534 0 0 1 1 0 0 forward_v I I I I #
coedge $-1 $78 $79 $80 $81 forward $31 $-1 #
face $-1 $82 $83 $19 $-1 $84 reversed single #
loop $-1 $-1 $85 $33 #
plane-surface $-1 0 0 -7.4043143062947534 0 0 1 1 0 0 forward_v I I I I #
coedge $-1 $86 $87 $88 $89 forward $34 $-1 #
face $-1 $90 $91 $20 $-1 $92 reversed single #
loop $-1 $-1 $93 $36 #
plane-surface $-1 -15.274819961166003 -15.873775139633313 63.721168063025502 0.73135370988377701 0 0.68199835119979291 0.68199835119979291 0 -0.73135370988377701 forward_v I I I I #
coedge $-1 $94 $95 $96 $97 reversed $37 $-1 #
face $-1 $-1 $98 $21 $-1 $99 forward single #
loop $-1 $100 $101 $39 #
cone-surface $-1 37.806527776328224 -15.873775139633313 3.1970072742400051 -0.73135370988377701 0 -0.68199835119979291 0.51149876339984468 0 -0.54851528241283276 1 I I -0.70710678118654724 0.70710678118654768 0.75 forward I I I I #
loop $-1 $-1 $102 $27 #
coedge $-1 $64 $64 $103 $104 reversed $40 $-1 #
face $-1 $105 $106 $22 $-1 $107 reversed single #
loop $-1 $-1 $108 $42 #
plane-surface $-1 -41.96417126987518 -15.873775139633313 2.3398633821826564 -0.73135370988377701 0 0.68199835119979291 0.68199835119979291 0 0.73135370988377701 forward_v I I I I #
coedge $-1 $109 $110 $111 $112 reversed $43 $-1 #
face $-1 $-1 $113 $23 $-1 $114 forward single #
loop $-1 $115 $116 $45 #
cone-surface $-1 -37.806527776328224 -15.873775139633313 3.1970072742400122 0.73135370988377701 0 -0.68199835119979291 0.51149876339984468 0 0.54851528241283276 1 I I -0.70710678118654724 0.70710678118654768 0.75 forward I I I I #
loop $-1 $-1 $117 $29 #
coedge $-1 $73 $73 $118 $119 reversed $46 $-1 #
face $-1 $120 $121 $18 $-1 $122 reversed single #
loop $-1 $-1 $123 $48 #
plane-surface $-1 0 -28.79592267125124 0 0 1 0 0 0 1 forward_v I I I I #
coedge $-1 $124 $125 $126 $127 forward $49 $-1 #
coedge $-1 $128 $51 $129 $130 forward $31 $-1 #
coedge $-1 $51 $128 $131 $132 forward $31 $-1 #
coedge $-1 $133 $134 $51 $81 reversed $135 $-1 #
edge $-1 $136 -28.79592267125124 $137 28.79592267125124 $80 $138 forward 7 unknown #
face $-1 $139 $140 $19 $-1 $141 forward single #
loop $-1 $-1 $142 $52 #
plane-surface $-1 41.96417126987518 0 0 -1 0 0 0 0 1 forward_v I I I I #
coedge $-1 $143 $144 $145 $146 forward $53 $-1 #
coedge $-1 $145 $55 $142 $147 reversed $34 $-1 #
coedge $-1 $55 $145 $148 $149 reversed $34 $-1 #
coedge $-1 $150 $151 $55 $89 reversed $140 $-1 #
edge $-1 $152 -41.96417126987518 $153 41.96417126987518 $88 $154 forward 7 unknown #
face $-1 $155 $156 $20 $-1 $157 reversed single #
loop $-1 $-1 $158 $56 #
plane-surface $-1 46.106484719676843 -19.373599977674186 120.96015929406668 0 1 0 0.73135370988377701 0 0.68199835119979291 forward_v I I I I #
coedge $-1 $159 $160 $161 $162 reversed $57 $-1 #
coedge $-1 $95 $59 $163 $164 reversed $37 $-1 #
coedge $-1 $59 $94 $159 $165 reversed $37 $-1 #
coedge $-1 $161 $166 $59 $97 forward $167 $-1 #
edge $-1 $168 -18.910928910036759 $169 -14.188252135038795 $96 $170 forward 7 unknown #
loop $-1 $-1 $103 $60 #
plane-surface $-1 -15.274819961166003 -15.873775139633313 63.721168063025502 0.73135370988377701 0 0.68199835119979291 0.68199835119979291 0 -0.73135370988377701 forward_v I I I I #
loop $-1 $-1 $171 $39 #
coedge $-1 $101 $101 $102 $172 reversed $61 $-1 #
coedge $-1 $102 $102 $101 $172 forward $63 $-1 #
coedge $-1 $103 $103 $64 $104 forward $98 $-1 #
edge $-1 $173 0 $173 6.2831853071796004 $103 $174 forward 7 unknown #
face $-1 $175 $176 $22 $-1 $177 forward single #
loop $-1 $-1 $178 $65 #
plane-surface $-1 -103.34547595071803 -12.373950301592441 59.578854613223839 0 -1 0 0.73135370988377701 0 -0.68199835119979291 forward_v I I I I #
coedge $-1 $179 $180 $181 $182 reversed $66 $-1 #
coedge $-1 $110 $68 $183 $184 reversed $43 $-1 #
coedge $-1 $68 $109 $179 $185 reversed $43 $-1 #
coedge $-1 $181 $186 $68 $112 forward $176 $-1 #
edge $-1 $187 9.7085667054838325 $188 14.431243480481804 $111 $189 forward 7 unknown #
loop $-1 $-1 $118 $69 #
plane-surface $-1 -41.96417126987518 -15.873775139633313 2.3398633821826564 -0.73135370988377701 0 0.68199835119979291 0.68199835119979291 0 0.73135370988377701 forward_v I I I I #
loop $-1 $-1 $190 $45 #
coedge $-1 $116 $116 $117 $191 reversed $70 $-1 #
coedge $-1 $117 $117 $116 $191 forward $72 $-1 #
coedge $-1 $118 $118 $73 $119 forward $113 $-1 #
edge $-1 $192 0 $192 6.2831853071796004 $118 $193 forward 7 unknown #
face $-1 $194 $195 $18 $-1 $196 reversed single #
loop $-1 $-1 $197 $74 #
plane-surface $-1 -41.96417126987518 0 0 1 0 0 0 0 -1 forward_v I I I I #
coedge $-1 $198 $131 $199 $200 forward $75 $-1 #
coedge $-1 $201 $77 $198 $202 forward $49 $-1 #
coedge $-1 $77 $201 $203 $204 forward $49 $-1 #
coedge $-1 $134 $133 $77 $127 reversed $135 $-1 #
edge $-1 $205 -28.79592267125124 $206 28.79592267125124 $126 $207 forward 7 unknown #
coedge $-1 $79 $78 $208 $209 forward $31 $-1 #
coedge $-1 $210 $211 $78 $130 reversed $195 $-1 #
edge $-1 $137 -41.96417126987518 $212 41.96417126987518 $129 $213 forward 7 unknown #
coedge $-1 $123 $214 $79 $132 reversed $75 $-1 #
edge $-1 $215 -41.96417126987518 $136 41.96417126987518 $131 $216 forward 7 unknown #
coedge $-1 $126 $80 $214 $217 forward $135 $-1 #
coedge $-1 $80 $126 $210 $218 reversed $135 $-1 #
loop $-1 $-1 $133 $194 #
vertex $-1 $81 $219 #
vertex $-1 $81 $220 #
straight-curve $-1 41.96417126987518 0 7.4043143062947534 0 1 0 I I #
face $-1 $221 $222 $19 $-1 $223 reversed single #
loop $-1 $-1 $151 $82 #
plane-surface $-1 0 -33.50708401803977 -3.081127549949346 0 0 1 1 0 0 forward_v I I I I #
coedge $-1 $224 $225 $86 $147 forward $83 $-1 #
coedge $-1 $226 $85 $225 $227 forward $53 $-1 #
coedge $-1 $85 $226 $228 $229 forward $53 $-1 #
coedge $-1 $87 $86 $85 $146 reversed $34 $-1 #
edge $-1 $230 -41.96417126987518 $231 41.96417126987518 $85 $232 forward 7 unknown #
edge $-1 $231 -7.4043143062947534 $153 -3.081127549949346 $142 $233 forward 7 unknown #
coedge $-1 $228 $234 $87 $149 forward $235 $-1 #
edge $-1 $152 3.081127549949346 $230 7.4043143062947534 $148 $236 forward 7 unknown #
coedge $-1 $237 $88 $234 $238 forward $140 $-1 #
coedge $-1 $88 $237 $224 $239 forward $140 $-1 #
vertex $-1 $149 $240 #
vertex $-1 $239 $241 #
straight-curve $-1 0 -28.79592267125124 -3.081127549949346 1 0 0 I I #
face $-1 $-1 $167 $20 $-1 $242 forward single #
loop $-1 $-1 $243 $90 #
plane-surface $-1 41.96417126987518 0 0 -1 0 0 0 0 1 forward_v I I I I #
coedge $-1 $244 $245 $246 $247 reversed $91 $-1 #
coedge $-1 $248 $93 $95 $165 forward $57 $-1 #
coedge $-1 $93 $248 $244 $249 forward $57 $-1 #
coedge $-1 $246 $96 $93 $162 forward $167 $-1 #
edge $-1 $169 4.437062731775784 $250 11.436712407857529 $161 $251 forward 7 unknown #
coedge $-1 $252 $253 $94 $164 forward $156 $-1 #
edge $-1 $254 -58.140216264850686 $168 -53.075765340738592 $163 $255 forward 7 unknown #
edge $-1 $169 77.00357979407849 $254 83.928342539750361 $95 $256 forward 7 unknown #
coedge $-1 $96 $246 $252 $257 forward $167 $-1 #
loop $-1 $-1 $246 $155 #
vertex $-1 $164 $258 #
vertex $-1 $97 $259 #
straight-curve $-1 23.053242359838421 -12.373950301592441 7.4043143062947507 -1 0 0 I I #
coedge $-1 $171 $171 $-1 $260 reversed $100 $-1 #
edge $-1 $261 0 $261 6.2831853071796004 $101 $262 forward 7 unknown #
vertex $-1 $104 $263 #
ellipse-curve $-1 39.602832882376205 -15.873775139633313 4.8720888442387045 0.73135370988377701 0 0.68199835119979291 1.0229975267996894 0 -1.0970305648256655 1 I I #
face $-1 $-1 $264 $22 $-1 $265 reversed single #
loop $-1 $-1 $111 $105 #
plane-surface $-1 0 0 7.4043143062947534 0 0 1 1 0 0 forward_v I I I I #
coedge $-1 $266 $267 $268 $269 reversed $106 $-1 #
coedge $-1 $270 $108 $110 $185 forward $66 $-1 #
coedge $-1 $108 $270 $266 $271 forward $66 $-1 #
coedge $-1 $268 $111 $108 $182 forward $176 $-1 #
edge $-1 $188 -11.436712407857529 $272 -4.437062731775784 $181 $273 forward 7 unknown #
coedge $-1 $274 $275 $109 $184 forward $264 $-1 #
edge $-1 $276 -27.449563924429263 $187 -22.385113000317165 $183 $277 forward 7 unknown #
edge $-1 $188 -6.9247627456718774 $276 0 $110 $278 forward 7 unknown #
coedge $-1 $111 $268 $274 $279 forward $176 $-1 #
vertex $-1 $184 $280 #
vertex $-1 $112 $281 #
straight-curve $-1 -51.672737975359013 -19.373599977674186 7.4043143062947543 1 0 0 I I #
coedge $-1 $190 $190 $-1 $282 reversed $115 $-1 #
edge $-1 $283 0 $283 6.2831853071796004 $116 $284 forward 7 unknown #
vertex $-1 $119 $285 #
ellipse-curve $-1 -39.602832882376198 -15.873775139633313 4.8720888442387045 -0.73135370988377701 0 0.68199835119979291 1.0229975267996894 0 1.0970305648256655 1 I I #
face $-1 $-1 $135 $18 $-1 $286 reversed single #
loop $-1 $-1 $210 $120 #
plane-surface $-1 0 28.79592267125124 0 0 -1 0 0 0 -1 forward_v I I I I #
coedge $-1 $287 $208 $211 $288 forward $121 $-1 #
coedge $-1 $214 $123 $124 $202 reversed $75 $-1 #
coedge $-1 $208 $287 $123 $200 reversed $121 $-1 #
edge $-1 $215 -7.4043143062947534 $289 7.4043143062947534 $199 $290 forward 7 unknown #
coedge $-1 $125 $124 $287 $291 forward $49 $-1 #
edge $-1 $206 -41.96417126987518 $289 41.96417126987518 $198 $292 forward 7 unknown #
coedge $-1 $211 $210 $125 $204 reversed $195 $-1 #
edge $-1 $293 -41.96417126987518 $205 41.96417126987518 $203 $294 forward 7 unknown #
vertex $-1 $127 $295 #
vertex $-1 $217 $296 #
straight-curve $-1 41.96417126987518 0 -7.4043143062947534 0 -1 0 I I #
coedge $-1 $197 $199 $128 $209 reversed $121 $-1 #
edge $-1 $212 -28.79592267125124 $215 28.79592267125124 $208 $297 forward 7 unknown #
coedge $-1 $203 $129 $134 $218 forward $195 $-1 #
coedge $-1 $129 $203 $197 $288 reversed $195 $-1 #
vertex $-1 $130 $298 #
straight-curve $-1 0 28.79592267125124 7.4043143062947534 -1 0 0 I I #
coedge $-1 $131 $198 $133 $217 reversed $75 $-1 #
vertex $-1 $209 $299 #
straight-curve $-1 0 -28.79592267125124 7.4043143062947534 1 0 0 I I #
edge $-1 $136 -7.4043143062947534 $206 7.4043143062947534 $133 $300 forward 7 unknown #
edge $-1 $137 -7.4043143062947534 $205 7.4043143062947534 $134 $301 forward 7 unknown #
point $-1 41.96417126987518 -28.79592267125124 7.4043143062947534 #
point $-1 41.96417126987518 28.79592267125124 7.4043143062947534 #
face $-1 $-1 $235 $19 $-1 $302 reversed single #
loop $-1 $-1 $303 $139 #
plane-surface $-1 0 -38.218245364828299 -5.2427209281220497 0 1 0 0 0 1 forward_v I I I I #
coedge $-1 $304 $142 $151 $239 reversed $83 $-1 #
coedge $-1 $142 $304 $143 $227 reversed $83 $-1 #
coedge $-1 $144 $143 $305 $306 forward $53 $-1 #
edge $-1 $231 28.79592267125124 $307 38.218245364828299 $225 $308 forward 7 unknown #
coedge $-1 $309 $148 $144 $229 reversed $235 $-1 #
edge $-1 $310 -38.218245364828299 $230 -28.79592267125124 $228 $311 forward 7 unknown #
vertex $-1 $149 $312 #
vertex $-1 $227 $313 #
straight-curve $-1 0 -28.79592267125124 -7.4043143062947534 1 0 0 I I #
straight-curve $-1 41.96417126987518 -28.79592267125124 0 0 0 1 I I #
coedge $-1 $148 $309 $150 $238 reversed $235 $-1 #
loop $-1 $-1 $148 $221 #
straight-curve $-1 -41.96417126987518 -28.79592267125124 0 0 0 -1 I I #
coedge $-1 $151 $150 $314 $315 forward $140 $-1 #
edge $-1 $152 -4.7111613467885292 $316 4.7111613467885292 $234 $317 forward 7 unknown #
edge $-1 $318 -4.7111613467885292 $153 4.7111613467885292 $224 $319 forward 7 unknown #
point $-1 -41.96417126987518 -28.79592267125124 -3.081127549949346 #
point $-1 41.96417126987518 -28.79592267125124 -3.081127549949346 #
plane-surface $-1 0 0 7.4043143062947534 0 0 1 1 0 0 forward_v I I I I #
coedge $-1 $253 $252 $245 $320 forward $156 $-1 #
coedge $-1 $245 $158 $160 $249 reversed $91 $-1 #
coedge $-1 $158 $244 $243 $320 reversed $91 $-1 #
coedge $-1 $166 $161 $158 $247 forward $167 $-1 #
edge $-1 $250 14.188252135038795 $321 18.910928910036759 $246 $322 forward 7 unknown #
coedge $-1 $160 $159 $253 $323 reversed $57 $-1 #
edge $-1 $324 -83.928342539750361 $250 -77.00357979407849 $244 $325 forward 7 unknown #
vertex $-1 $162 $326 #
straight-curve $-1 37.241494494877209 -7.9368875698166566 7.4043143062947507 0 -1 0 I I #
coedge $-1 $243 $163 $166 $257 reversed $156 $-1 #
coedge $-1 $163 $243 $248 $323 forward $156 $-1 #
vertex $-1 $164 $327 #
straight-curve $-1 41.96417126987518 -12.373950301592441 60.480079647033342 0 0 1 I I #
straight-curve $-1 -15.274819961166003 -12.373950301592441 63.721168063025502 0.68199835119979291 0 -0.73135370988377701 I I #
edge $-1 $321 -19.373599977674186 $168 -12.373950301592441 $252 $328 forward 7 unknown #
point $-1 41.96417126987518 -12.373950301592441 7.4043143062947534 #
point $-1 37.241494494877216 -12.373950301592441 7.4043143062947507 #
edge $-1 $329 1 $329 0 $171 $-1 forward 7 unknown #
vertex $-1 $172 $330 #
ellipse-curve $-1 38.35504305874106 -15.873775139633313 3.7085060376398502 0.73135370988377701 0 0.68199835119979291 1.0229975267996894 0 -1.0970305648256655 1 I I #
point $-1 40.625830409175883 -15.873775139633313 3.7750582794130318 #
loop $-1 $-1 $183 $175 #
plane-surface $-1 -41.96417126987518 0 0 1 0 0 0 0 -1 forward_v I I I I #
coedge $-1 $267 $178 $180 $271 reversed $106 $-1 #
coedge $-1 $178 $266 $331 $332 reversed $106 $-1 #
coedge $-1 $186 $181 $178 $269 forward $176 $-1 #
edge $-1 $272 -14.431243480481804 $333 -9.7085667054838325 $268 $334 forward 7 unknown #
coedge $-1 $180 $179 $275 $335 reversed $66 $-1 #
edge $-1 $336 0 $272 6.9247627456718774 $266 $337 forward 7 unknown #
vertex $-1 $182 $338 #
straight-curve $-1 -37.241494494877209 -7.9368875698166566 7.4043143062947534 0 1 0 I I #
coedge $-1 $331 $183 $186 $279 reversed $264 $-1 #
coedge $-1 $183 $331 $270 $335 forward $264 $-1 #
vertex $-1 $184 $339 #
straight-curve $-1 -41.96417126987518 -19.373599977674186 29.78942730661192 0 0 1 I I #
straight-curve $-1 -41.96417126987518 -19.373599977674186 2.3398633821826564 -0.68199835119979291 0 -0.73135370988377701 I I #
edge $-1 $333 12.373950301592441 $187 19.373599977674186 $274 $340 forward 7 unknown #
point $-1 -41.96417126987518 -19.373599977674186 7.4043143062947534 #
point $-1 -37.241494494877209 -19.373599977674186 7.4043143062947534 #
edge $-1 $341 1 $341 0 $190 $-1 forward 7 unknown #
vertex $-1 $191 $342 #
ellipse-curve $-1 -38.35504305874106 -15.873775139633313 3.7085060376398573 -0.73135370988377701 0 0.68199835119979291 1.0229975267996894 0 1.0970305648256655 1 I I #
point $-1 -38.579835355576506 -15.873775139633313 5.96911940906437 #
plane-surface $-1 41.96417126987518 0 0 -1 0 0 0 0 1 forward_v I I I I #
coedge $-1 $199 $197 $201 $291 reversed $121 $-1 #
edge $-1 $212 -7.4043143062947534 $293 7.4043143062947534 $211 $343 forward 7 unknown #
vertex $-1 $291 $344 #
straight-curve $-1 -41.96417126987518 -28.79592267125124 0 0 0 -1 I I #
edge $-1 $289 -28.79592267125124 $293 28.79592267125124 $287 $345 forward 7 unknown #
straight-curve $-1 0 -28.79592267125124 -7.4043143062947534 -1 0 0 I I #
vertex $-1 $204 $346 #
straight-curve $-1 0 28.79592267125124 -7.4043143062947534 1 0 0 I I #
point $-1 41.96417126987518 28.79592267125124 -7.4043143062947534 #
point $-1 41.96417126987518 -28.79592267125124 -7.4043143062947534 #
straight-curve $-1 -41.96417126987518 0 7.4043143062947534 0 -1 0 I I #
point $-1 -41.96417126987518 28.79592267125124 7.4043143062947534 #
point $-1 -41.96417126987518 -28.79592267125124 7.4043143062947534 #
straight-curve $-1 41.96417126987518 -28.79592267125124 0 0 0 -1 I I #
straight-curve $-1 41.96417126987518 28.79592267125124 0 0 0 -1 I I #
plane-surface $-1 -41.96417126987518 0 0 1 0 0 0 0 -1 forward_v I I I I #
coedge $-1 $305 $314 $309 $347 forward $222 $-1 #
coedge $-1 $225 $224 $348 $349 forward $83 $-1 #
coedge $-1 $348 $303 $226 $306 reversed $222 $-1 #
edge $-1 $307 -41.96417126987518 $310 41.96417126987518 $305 $350 forward 7 unknown #
vertex $-1 $349 $351 #
straight-curve $-1 41.96417126987518 0 -7.4043143062947534 0 -1 0 I I #
coedge $-1 $234 $228 $303 $347 reversed $235 $-1 #
vertex $-1 $229 $352 #
straight-curve $-1 -41.96417126987518 0 -7.4043143062947534 0 1 0 I I #
point $-1 -41.96417126987518 -28.79592267125124 -7.4043143062947534 #
point $-1 41.96417126987518 -28.79592267125124 -7.4043143062947534 #
coedge $-1 $303 $348 $237 $315 reversed $222 $-1 #
edge $-1 $316 -41.96417126987518 $318 41.96417126987518 $314 $353 forward 7 unknown #
vertex $-1 $238 $354 #
straight-curve $-1 -41.96417126987518 -33.50708401803977 -3.081127549949346 0 -1 0 I I #
vertex $-1 $239 $355 #
straight-curve $-1 41.96417126987518 -33.50708401803977 -3.081127549949346 0 1 0 I I #
edge $-1 $321 53.075765340738592 $324 58.140216264850686 $243 $356 forward 7 unknown #
vertex $-1 $257 $357 #
straight-curve $-1 23.053242359838421 -19.373599977674186 7.4043143062947507 1 0 0 I I #
edge $-1 $324 -11.436712407857529 $254 -4.437062731775784 $253 $358 forward 7 unknown #
vertex $-1 $323 $359 #
straight-curve $-1 -15.274819961166003 -19.373599977674186 63.721168063025502 -0.68199835119979291 0 0.73135370988377701 I I #
point $-1 37.241494494877216 -19.373599977674186 7.4043143062947507 #
point $-1 41.96417126987518 -12.373950301592441 2.3398633821826564 #
straight-curve $-1 41.96417126987518 0 7.4043143062947534 0 1 0 I I #
vertex $-1 $260 $360 #
point $-1 39.378040585540745 -15.873775139633313 2.6114754728141847 #
coedge $-1 $275 $274 $267 $332 forward $264 $-1 #
edge $-1 $333 22.385113000317165 $336 27.449563924429263 $331 $361 forward 7 unknown #
vertex $-1 $279 $362 #
straight-curve $-1 -51.672737975359013 -12.373950301592441 7.4043143062947543 -1 0 0 I I #
edge $-1 $336 4.437062731775784 $276 11.436712407857529 $275 $363 forward 7 unknown #
vertex $-1 $335 $364 #
straight-curve $-1 -41.96417126987518 -12.373950301592441 2.3398633821826564 0.68199835119979291 0 0.73135370988377701 I I #
point $-1 -37.241494494877209 -12.373950301592441 7.4043143062947534 #
point $-1 -41.96417126987518 -19.373599977674186 2.3398633821826564 #
straight-curve $-1 -41.96417126987518 0 7.4043143062947534 0 -1 0 I I #
vertex $-1 $282 $365 #
point $-1 -37.332045531941368 -15.873775139633313 4.8055366024655228 #
straight-curve $-1 -41.96417126987518 28.79592267125124 0 0 0 -1 I I #
point $-1 -41.96417126987518 -28.79592267125124 -7.4043143062947534 #
straight-curve $-1 -41.96417126987518 0 -7.4043143062947534 0 1 0 I I #
point $-1 -41.96417126987518 28.79592267125124 -7.4043143062947534 #
edge $-1 $316 -2.1615933781727037 $310 2.1615933781727037 $309 $366 forward 7 unknown #
coedge $-1 $314 $305 $304 $349 reversed $222 $-1 #
edge $-1 $318 -2.1615933781727037 $307 2.1615933781727037 $304 $367 forward 7 unknown #
straight-curve $-1 0 -38.218245364828299 -7.4043143062947534 -1 0 0 I I #
point $-1 41.96417126987518 -38.218245364828299 -7.4043143062947534 #
point $-1 -41.96417126987518 -38.218245364828299 -7.4043143062947534 #
straight-curve $-1 0 -38.218245364828299 -3.081127549949346 1 0 0 I I #
point $-1 -41.96417126987518 -38.218245364828299 -3.081127549949346 #
point $-1 41.96417126987518 -38.218245364828299 -3.081127549949346 #
straight-curve $-1 41.96417126987518 -19.373599977674186 60.480079647033342 0 0 -1 I I #
point $-1 41.96417126987518 -19.373599977674186 7.4043143062947534 #
straight-curve $-1 41.96417126987518 -7.9368875698166566 2.3398633821826671 0 1 0 I I #
point $-1 41.96417126987518 -19.373599977674186 2.3398633821826564 #
point $-1 37.258012493915388 -15.873775139633313 2.68550851084016 #
straight-curve $-1 -41.96417126987518 -12.373950301592441 29.78942730661192 0 0 -1 I I #
point $-1 -41.96417126987518 -12.373950301592441 7.4043143062947534 #
straight-curve $-1 -41.96417126987518 -7.9368875698166566 2.3398633821826529 0 -1 0 I I #
point $-1 -41.96417126987518 -12.373950301592441 2.3398633821826564 #
point $-1 -37.258012493915388 -15.873775139633313 2.6855085108401671 #
straight-curve $-1 -41.96417126987518 -38.218245364828299 -5.2427209281220497 0 0 -1 I I #
straight-curve $-1 41.96417126987518 -38.218245364828299 -5.2427209281220497 0 0 -1 I I #
End-of-ACIS-data 