500 0 14 0           
7 Unknown 11 ACIS 5.0 NT 24 Fri Mar 26 17:07:35 1999 
-1 9.9999999999999995e-007 1e-010 
body $-1 $14 $-1 $15 #
body $-1 $16 $-1 $17 #
body $-1 $18 $-1 $19 #
body $-1 $20 $-1 $21 #
body $-1 $22 $-1 $23 #
body $-1 $24 $-1 $25 #
body $-1 $26 $-1 $27 #
body $-1 $28 $-1 $29 #
body $-1 $30 $-1 $31 #
body $-1 $32 $-1 $33 #
body $-1 $34 $-1 $35 #
body $-1 $36 $-1 $37 #
body $-1 $38 $-1 $39 #
body $-1 $40 $-1 $41 #
lump $-1 $-1 $42 $0 #
transform $-1 1 0 0 0 1 0 0 0 1 70.909146397289959 33.661881256278726 7.4600202373949172 1 rotate no_reflect no_shear #
lump $-1 $-1 $43 $1 #
transform $-1 1 0 0 0 1 0 0 0 1 70.909146397289959 33.661881256278726 7.4600202373949172 1 rotate no_reflect no_shear #
lump $-1 $-1 $44 $2 #
transform $-1 1 0 0 0 1 0 0 0 1 70.909146397289959 33.661881256278726 7.4600202373949172 1 rotate no_reflect no_shear #
lump $-1 $-1 $45 $3 #
transform $-1 1 0 0 0 1 0 0 0 1 70.909146397289959 33.661881256278726 7.4600202373949172 1 rotate no_reflect no_shear #
lump $-1 $-1 $46 $4 #
transform $-1 1 0 0 0 1 0 0 0 1 70.909146397289959 33.661881256278726 7.4600202373949172 1 rotate no_reflect no_shear #
lump $-1 $-1 $47 $5 #
transform $-1 1 0 0 0 1 0 0 0 1 70.909146397289959 33.661881256278726 7.4600202373949172 1 rotate no_reflect no_shear #
lump $-1 $-1 $48 $6 #
transform $-1 1 0 0 0 1 0 0 0 1 70.909146397289959 33.661881256278726 7.4600202373949172 1 rotate no_reflect no_shear #
lump $-1 $-1 $49 $7 #
transform $-1 1 0 0 0 1 0 0 0 1 70.909146397289959 33.661881256278726 7.4600202373949172 1 rotate no_reflect no_shear #
lump $-1 $-1 $50 $8 #
transform $-1 1 0 0 0 1 0 0 0 1 70.909146397289959 33.661881256278726 7.4600202373949172 1 rotate no_reflect no_shear #
lump $-1 $-1 $51 $9 #
transform $-1 1 0 0 0 1 0 0 0 1 70.909146397289959 33.661881256278726 7.4600202373949172 1 rotate no_reflect no_shear #
lump $-1 $-1 $52 $10 #
transform $-1 1 0 0 0 1 0 0 0 1 70.909146397289959 33.661881256278726 7.4600202373949172 1 rotate no_reflect no_shear #
lump $-1 $-1 $53 $11 #
transform $-1 1 0 0 0 1 0 0 0 1 70.909146397289959 33.661881256278726 7.4600202373949172 1 rotate no_reflect no_shear #
lump $-1 $-1 $54 $12 #
transform $-1 1 0 0 0 1 0 0 0 1 70.909146397289959 33.661881256278726 7.4600202373949172 1 rotate no_reflect no_shear #
lump $-1 $-1 $55 $13 #
transform $-1 1 0 0 0 1 0 0 0 1 70.909146397289959 33.661881256278726 7.4600202373949172 1 rotate no_reflect no_shear #
shell $-1 $-1 $-1 $56 $-1 $14 #
shell $-1 $-1 $-1 $57 $-1 $16 #
shell $-1 $-1 $-1 $58 $-1 $18 #
shell $-1 $-1 $-1 $59 $-1 $20 #
shell $-1 $-1 $-1 $60 $-1 $22 #
shell $-1 $-1 $-1 $61 $-1 $24 #
shell $-1 $-1 $-1 $62 $-1 $26 #
shell $-1 $-1 $-1 $63 $-1 $28 #
shell $-1 $-1 $-1 $64 $-1 $30 #
shell $-1 $-1 $-1 $65 $-1 $32 #
shell $-1 $-1 $-1 $66 $-1 $34 #
shell $-1 $-1 $-1 $67 $-1 $36 #
shell $-1 $-1 $-1 $68 $-1 $38 #
shell $-1 $-1 $-1 $69 $-1 $40 #
face $-1 $70 $71 $42 $-1 $72 forward single #
face $-1 $73 $74 $43 $-1 $75 forward single #
face $-1 $76 $77 $44 $-1 $78 reversed single #
face $-1 $79 $80 $45 $-1 $81 forward single #
face $-1 $82 $83 $46 $-1 $84 forward single #
face $-1 $85 $86 $47 $-1 $87 reversed single #
face $-1 $88 $89 $48 $-1 $90 forward single #
face $-1 $91 $92 $49 $-1 $93 forward single #
face $-1 $94 $95 $50 $-1 $96 reversed single #
face $-1 $97 $98 $51 $-1 $99 forward single #
face $-1 $100 $101 $52 $-1 $102 forward single #
face $-1 $103 $104 $53 $-1 $105 reversed single #
face $-1 $106 $107 $54 $-1 $108 forward single #
face $-1 $109 $110 $55 $-1 $111 forward single #
face $-1 $112 $113 $42 $-1 $114 reversed single #
loop $-1 $-1 $115 $56 #
plane-surface $-1 0 0 7.4600202373949172 0 0 1 1 0 0 forward_v I I I I #
face $-1 $116 $117 $43 $-1 $118 reversed single #
loop $-1 $-1 $119 $57 #
plane-surface $-1 0 -29.692352283528368 6.1587724949002345 0 0 1 1 0 0 forward_v I I I I #
face $-1 $120 $121 $44 $-1 $122 reversed single #
loop $-1 $-1 $123 $58 #
plane-surface $-1 -54.91244375053904 65.243114472332678 154.2380468476299 -1 0 0 0 0.6018150307709319 0.79863550430605224 forward_v I I I I #
face $-1 $124 $125 $45 $-1 $126 forward single #
loop $-1 $127 $128 $59 #
cone-surface $-1 -66.338659926789703 28.13674888542527 2.7914182215083638 0 -0.6018150307709319 -0.79863550430605224 1 0 0 1 I I 0 1 1 forward I I I I #
face $-1 $129 $130 $46 $-1 $131 forward single #
loop $-1 $132 $133 $60 #
cone-surface $-1 -59.482930221039304 28.13674888542527 2.7914182215083638 0 -0.6018150307709319 -0.79863550430605224 1 0 0 1 I I 0 1 1 forward I I I I #
face $-1 $134 $135 $47 $-1 $136 reversed single #
loop $-1 $-1 $137 $61 #
plane-surface $-1 -12.971913701262707 65.243114472332678 154.2380468476299 -1 0 0 0 0.6018150307709319 0.79863550430605224 forward_v I I I I #
face $-1 $138 $139 $48 $-1 $140 forward single #
loop $-1 $141 $142 $62 #
cone-surface $-1 -24.398129877513362 28.13674888542527 2.7914182215083638 0 -0.6018150307709319 -0.79863550430605224 1 0 0 1 I I 0 1 1 forward I I I I #
face $-1 $143 $144 $49 $-1 $145 forward single #
loop $-1 $146 $147 $63 #
cone-surface $-1 -17.542400171762971 28.13674888542527 2.7914182215083638 0 -0.6018150307709319 -0.79863550430605224 1 0 0 1 I I 0 1 1 forward I I I I #
face $-1 $148 $149 $50 $-1 $150 reversed single #
loop $-1 $-1 $151 $64 #
plane-surface $-1 28.968616348013626 65.243114472332678 154.2380468476299 -1 0 0 0 0.6018150307709319 0.79863550430605224 forward_v I I I I #
face $-1 $152 $153 $51 $-1 $154 forward single #
loop $-1 $155 $156 $65 #
cone-surface $-1 17.542400171762978 28.13674888542527 2.7914182215083638 0 -0.6018150307709319 -0.79863550430605224 1 0 0 1 I I 0 1 1 forward I I I I #
face $-1 $157 $158 $52 $-1 $159 forward single #
loop $-1 $160 $161 $66 #
cone-surface $-1 24.398129877513355 28.13674888542527 2.7914182215083638 0 -0.6018150307709319 -0.79863550430605224 1 0 0 1 I I 0 1 1 forward I I I I #
face $-1 $162 $163 $53 $-1 $164 reversed single #
loop $-1 $-1 $165 $67 #
plane-surface $-1 62.9107950739145 -20.105265769718471 40.976923061807199 0 0.6018150307709319 0.79863550430605224 1 0 0 forward_v I I I I #
face $-1 $166 $167 $54 $-1 $168 forward single #
loop $-1 $169 $170 $68 #
cone-surface $-1 59.482930221039311 28.13674888542527 2.7914182215083638 0 -0.6018150307709319 -0.79863550430605224 1 0 0 1 I I 0 1 1 forward I I I I #
face $-1 $171 $172 $55 $-1 $173 forward single #
loop $-1 $174 $175 $69 #
cone-surface $-1 66.338659926789688 28.13674888542527 2.7914182215083638 0 -0.6018150307709319 -0.79863550430605224 1 0 0 1 I I 0 1 1 forward I I I I #
face $-1 $176 $177 $42 $-1 $178 reversed single #
loop $-1 $-1 $179 $70 #
plane-surface $-1 0 0 -7.4600202373949172 0 0 1 1 0 0 forward_v I I I I #
coedge $-1 $180 $181 $182 $183 forward $71 $-1 #
face $-1 $184 $185 $43 $-1 $186 reversed single #
loop $-1 $-1 $187 $73 #
plane-surface $-1 0 -29.692352283528368 3.1587724949002345 0 0 1 1 0 0 forward_v I I I I #
coedge $-1 $188 $189 $190 $191 reversed $74 $-1 #
face $-1 $192 $193 $44 $-1 $194 reversed single #
loop $-1 $-1 $195 $76 #
plane-surface $-1 -62.9107950739145 -20.105265769718471 40.976923061807199 0 0.6018150307709319 0.79863550430605224 1 0 0 forward_v I I I I #
coedge $-1 $196 $197 $198 $199 reversed $77 $-1 #
face $-1 $-1 $200 $45 $-1 $201 forward single #
loop $-1 $202 $203 $79 #
cone-surface $-1 -66.338659926789703 26.955066788658065 1.2232731453174681 0 -0.6018150307709319 -0.79863550430605224 0.5 0 0 1 I I -0.70710678118654735 0.70710678118654768 0.5 forward I I I I #
loop $-1 $-1 $204 $59 #
coedge $-1 $128 $128 $205 $206 reversed $80 $-1 #
face $-1 $-1 $207 $46 $-1 $208 forward single #
loop $-1 $209 $210 $82 #
cone-surface $-1 -59.482930221039304 26.955066788658065 1.2232731453174681 0 -0.6018150307709319 -0.79863550430605224 0.5 0 0 1 I I -0.70710678118654735 0.70710678118654768 0.5 forward I I I I #
loop $-1 $-1 $211 $60 #
coedge $-1 $133 $133 $212 $213 reversed $83 $-1 #
face $-1 $214 $215 $47 $-1 $216 reversed single #
loop $-1 $-1 $217 $85 #
plane-surface $-1 -20.970265024638167 -20.105265769718471 40.976923061807199 0 0.6018150307709319 0.79863550430605224 1 0 0 forward_v I I I I #
coedge $-1 $218 $219 $220 $221 reversed $86 $-1 #
face $-1 $-1 $222 $48 $-1 $223 forward single #
loop $-1 $224 $225 $88 #
cone-surface $-1 -24.398129877513362 26.955066788658065 1.2232731453174681 0 -0.6018150307709319 -0.79863550430605224 0.5 0 0 1 I I -0.70710678118654735 0.70710678118654768 0.5 forward I I I I #
loop $-1 $-1 $226 $62 #
coedge $-1 $142 $142 $227 $228 reversed $89 $-1 #
face $-1 $-1 $229 $49 $-1 $230 forward single #
loop $-1 $231 $232 $91 #
cone-surface $-1 -17.542400171762971 26.955066788658065 1.2232731453174681 0 -0.6018150307709319 -0.79863550430605224 0.5 0 0 1 I I -0.70710678118654735 0.70710678118654768 0.5 forward I I I I #
loop $-1 $-1 $233 $63 #
coedge $-1 $147 $147 $234 $235 reversed $92 $-1 #
face $-1 $236 $237 $50 $-1 $238 reversed single #
loop $-1 $-1 $239 $94 #
plane-surface $-1 20.970265024638167 -20.105265769718471 40.976923061807199 0 0.6018150307709319 0.79863550430605224 1 0 0 forward_v I I I I #
coedge $-1 $240 $241 $242 $243 reversed $95 $-1 #
face $-1 $-1 $244 $51 $-1 $245 forward single #
loop $-1 $246 $247 $97 #
cone-surface $-1 17.542400171762978 26.955066788658065 1.2232731453174681 0 -0.6018150307709319 -0.79863550430605224 0.5 0 0 1 I I -0.70710678118654735 0.70710678118654768 0.5 forward I I I I #
loop $-1 $-1 $248 $65 #
coedge $-1 $156 $156 $249 $250 reversed $98 $-1 #
face $-1 $-1 $251 $52 $-1 $252 forward single #
loop $-1 $253 $254 $100 #
cone-surface $-1 24.398129877513355 26.955066788658065 1.2232731453174681 0 -0.6018150307709319 -0.79863550430605224 0.5 0 0 1 I I -0.70710678118654735 0.70710678118654768 0.5 forward I I I I #
loop $-1 $-1 $255 $66 #
coedge $-1 $161 $161 $256 $257 reversed $101 $-1 #
face $-1 $258 $259 $53 $-1 $260 forward single #
loop $-1 $-1 $261 $103 #
plane-surface $-1 54.91244375053904 65.243114472332678 154.2380468476299 1 0 0 0 -0.6018150307709319 -0.79863550430605224 forward_v I I I I #
coedge $-1 $262 $263 $264 $265 reversed $104 $-1 #
face $-1 $-1 $266 $54 $-1 $267 forward single #
loop $-1 $268 $269 $106 #
cone-surface $-1 59.482930221039311 26.955066788658065 1.2232731453174681 0 -0.6018150307709319 -0.79863550430605224 0.5 0 0 1 I I -0.70710678118654735 0.70710678118654768 0.5 forward I I I I #
loop $-1 $-1 $270 $68 #
coedge $-1 $170 $170 $271 $272 reversed $107 $-1 #
face $-1 $-1 $273 $55 $-1 $274 forward single #
loop $-1 $275 $276 $109 #
cone-surface $-1 66.338659926789688 26.955066788658065 1.2232731453174681 0 -0.6018150307709319 -0.79863550430605224 0.5 0 0 1 I I -0.70710678118654735 0.70710678118654768 0.5 forward I I I I #
loop $-1 $-1 $277 $69 #
coedge $-1 $175 $175 $278 $279 reversed $110 $-1 #
face $-1 $280 $281 $42 $-1 $282 reversed single #
loop $-1 $-1 $283 $112 #
plane-surface $-1 0 -33.661881256278726 0 0 1 0 0 0 1 forward_v I I I I #
coedge $-1 $284 $285 $286 $287 forward $113 $-1 #
coedge $-1 $288 $115 $289 $290 forward $71 $-1 #
coedge $-1 $115 $288 $291 $292 forward $71 $-1 #
coedge $-1 $293 $294 $115 $183 reversed $295 $-1 #
edge $-1 $296 -33.661881256278726 $297 33.661881256278726 $182 $298 forward 7 unknown #
face $-1 $299 $300 $43 $-1 $301 reversed single #
loop $-1 $-1 $302 $116 #
plane-surface $-1 0 -25.722823310778011 4.6587724949002345 0 -1 0 0 0 -1 forward_v I I I I #
coedge $-1 $303 $304 $305 $306 reversed $117 $-1 #
coedge $-1 $307 $119 $308 $309 forward $74 $-1 #
coedge $-1 $119 $307 $310 $311 reversed $74 $-1 #
coedge $-1 $312 $313 $119 $191 forward $314 $-1 #
edge $-1 $315 10.876647169013827 $316 18.815705114514543 $190 $317 forward 7 unknown #
face $-1 $318 $319 $44 $-1 $320 forward single #
loop $-1 $-1 $198 $120 #
plane-surface $-1 0 33.661881256278726 0 0 -1 0 0 0 -1 forward_v I I I I #
coedge $-1 $321 $322 $323 $324 reversed $121 $-1 #
coedge $-1 $197 $123 $325 $326 reversed $77 $-1 #
coedge $-1 $123 $196 $321 $327 reversed $77 $-1 #
coedge $-1 $323 $328 $123 $199 forward $193 $-1 #
edge $-1 $329 69.659003186420037 $330 76.658552570117408 $198 $331 forward 7 unknown #
loop $-1 $-1 $205 $124 #
plane-surface $-1 -62.9107950739145 -20.105265769718471 40.976923061807199 0 0.6018150307709319 0.79863550430605224 1 0 0 forward_v I I I I #
loop $-1 $-1 $332 $79 #
coedge $-1 $203 $203 $204 $333 reversed $125 $-1 #
coedge $-1 $204 $204 $203 $333 forward $127 $-1 #
coedge $-1 $205 $205 $128 $206 forward $200 $-1 #
edge $-1 $334 -1.0690382459638171e-015 $334 6.2831853071795996 $205 $335 forward 7 unknown #
loop $-1 $-1 $212 $129 #
plane-surface $-1 -62.9107950739145 -20.105265769718471 40.976923061807199 0 0.6018150307709319 0.79863550430605224 1 0 0 forward_v I I I I #
loop $-1 $-1 $336 $82 #
coedge $-1 $210 $210 $211 $337 reversed $130 $-1 #
coedge $-1 $211 $211 $210 $337 forward $132 $-1 #
coedge $-1 $212 $212 $133 $213 forward $207 $-1 #
edge $-1 $338 -1.0690382459638171e-015 $338 6.2831853071795996 $212 $339 forward 7 unknown #
face $-1 $340 $341 $47 $-1 $342 forward single #
loop $-1 $-1 $343 $134 #
plane-surface $-1 -28.968616348013626 65.243114472332678 154.2380468476299 1 0 0 0 -0.6018150307709319 -0.79863550430605224 forward_v I I I I #
coedge $-1 $344 $345 $346 $347 reversed $135 $-1 #
coedge $-1 $219 $137 $348 $349 reversed $86 $-1 #
coedge $-1 $137 $218 $344 $350 reversed $86 $-1 #
coedge $-1 $346 $351 $137 $221 forward $352 $-1 #
edge $-1 $353 69.659003186420037 $354 76.658552570117408 $220 $355 forward 7 unknown #
loop $-1 $-1 $227 $138 #
plane-surface $-1 -20.970265024638167 -20.105265769718471 40.976923061807199 0 0.6018150307709319 0.79863550430605224 1 0 0 forward_v I I I I #
loop $-1 $-1 $356 $88 #
coedge $-1 $225 $225 $226 $357 reversed $139 $-1 #
coedge $-1 $226 $226 $225 $357 forward $141 $-1 #
coedge $-1 $227 $227 $142 $228 forward $222 $-1 #
edge $-1 $358 -1.0690382459638171e-015 $358 6.2831853071795996 $227 $359 forward 7 unknown #
loop $-1 $-1 $234 $143 #
plane-surface $-1 -20.970265024638167 -20.105265769718471 40.976923061807199 0 0.6018150307709319 0.79863550430605224 1 0 0 forward_v I I I I #
loop $-1 $-1 $360 $91 #
coedge $-1 $232 $232 $233 $361 reversed $144 $-1 #
coedge $-1 $233 $233 $232 $361 forward $146 $-1 #
coedge $-1 $234 $234 $147 $235 forward $229 $-1 #
edge $-1 $362 -1.0690382459638171e-015 $362 6.2831853071795996 $234 $363 forward 7 unknown #
face $-1 $364 $365 $50 $-1 $366 forward single #
loop $-1 $-1 $367 $148 #
plane-surface $-1 12.971913701262707 65.243114472332678 154.2380468476299 1 0 0 0 -0.6018150307709319 -0.79863550430605224 forward_v I I I I #
coedge $-1 $368 $369 $370 $371 reversed $149 $-1 #
coedge $-1 $241 $151 $372 $373 reversed $95 $-1 #
coedge $-1 $151 $240 $368 $374 reversed $95 $-1 #
coedge $-1 $370 $375 $151 $243 forward $376 $-1 #
edge $-1 $377 69.659003186420037 $378 76.658552570117408 $242 $379 forward 7 unknown #
loop $-1 $-1 $249 $152 #
plane-surface $-1 20.970265024638167 -20.105265769718471 40.976923061807199 0 0.6018150307709319 0.79863550430605224 1 0 0 forward_v I I I I #
loop $-1 $-1 $380 $97 #
coedge $-1 $247 $247 $248 $381 reversed $153 $-1 #
coedge $-1 $248 $248 $247 $381 forward $155 $-1 #
coedge $-1 $249 $249 $156 $250 forward $244 $-1 #
edge $-1 $382 -1.0690382459638171e-015 $382 6.2831853071795996 $249 $383 forward 7 unknown #
loop $-1 $-1 $256 $157 #
plane-surface $-1 20.970265024638167 -20.105265769718471 40.976923061807199 0 0.6018150307709319 0.79863550430605224 1 0 0 forward_v I I I I #
loop $-1 $-1 $384 $100 #
coedge $-1 $254 $254 $255 $385 reversed $158 $-1 #
coedge $-1 $255 $255 $254 $385 forward $160 $-1 #
coedge $-1 $256 $256 $161 $257 forward $251 $-1 #
edge $-1 $386 -1.0690382459638171e-015 $386 6.2831853071795996 $256 $387 forward 7 unknown #
face $-1 $388 $389 $53 $-1 $390 reversed single #
loop $-1 $-1 $391 $162 #
plane-surface $-1 0 0 7.4600202373949172 0 0 1 1 0 0 forward_v I I I I #
coedge $-1 $392 $393 $394 $395 reversed $163 $-1 #
coedge $-1 $396 $165 $397 $398 reversed $104 $-1 #
coedge $-1 $165 $396 $392 $399 forward $104 $-1 #
coedge $-1 $394 $400 $165 $265 forward $401 $-1 #
edge $-1 $402 -39.453748860332709 $403 -23.457046213581791 $264 $404 forward 7 unknown #
loop $-1 $-1 $271 $166 #
plane-surface $-1 62.9107950739145 -20.105265769718471 40.976923061807199 0 0.6018150307709319 0.79863550430605224 1 0 0 forward_v I I I I #
loop $-1 $-1 $405 $106 #
coedge $-1 $269 $269 $270 $406 reversed $167 $-1 #
coedge $-1 $270 $270 $269 $406 forward $169 $-1 #
coedge $-1 $271 $271 $170 $272 forward $266 $-1 #
edge $-1 $407 -1.0690382459638171e-015 $407 6.2831853071795996 $271 $408 forward 7 unknown #
loop $-1 $-1 $278 $171 #
plane-surface $-1 62.9107950739145 -20.105265769718471 40.976923061807199 0 0.6018150307709319 0.79863550430605224 1 0 0 forward_v I I I I #
loop $-1 $-1 $409 $109 #
coedge $-1 $276 $276 $277 $410 reversed $172 $-1 #
coedge $-1 $277 $277 $276 $410 forward $174 $-1 #
coedge $-1 $278 $278 $175 $279 forward $273 $-1 #
edge $-1 $411 -1.0690382459638171e-015 $411 6.2831853071795996 $278 $412 forward 7 unknown #
face $-1 $413 $414 $42 $-1 $415 reversed single #
loop $-1 $-1 $416 $176 #
plane-surface $-1 -70.909146397289959 0 0 1 0 0 0 0 -1 forward_v I I I I #
coedge $-1 $417 $291 $418 $419 forward $177 $-1 #
coedge $-1 $420 $179 $417 $421 forward $113 $-1 #
coedge $-1 $179 $420 $422 $423 forward $113 $-1 #
coedge $-1 $294 $293 $179 $287 reversed $295 $-1 #
edge $-1 $424 -33.661881256278726 $425 33.661881256278726 $286 $426 forward 7 unknown #
coedge $-1 $181 $180 $427 $428 forward $71 $-1 #
coedge $-1 $429 $430 $180 $290 reversed $414 $-1 #
edge $-1 $297 -70.909146397289959 $431 70.909146397289959 $289 $432 forward 7 unknown #
coedge $-1 $283 $433 $181 $292 reversed $177 $-1 #
edge $-1 $434 -70.909146397289959 $296 70.909146397289959 $291 $435 forward 7 unknown #
coedge $-1 $286 $182 $433 $436 forward $295 $-1 #
coedge $-1 $182 $286 $429 $437 reversed $295 $-1 #
loop $-1 $-1 $293 $413 #
vertex $-1 $183 $438 #
vertex $-1 $183 $439 #
straight-curve $-1 70.909146397289959 0 7.4600202373949172 0 1 0 I I #
face $-1 $440 $441 $43 $-1 $442 reversed single #
loop $-1 $-1 $443 $184 #
plane-surface $-1 -70.909146397289959 0 0 1 0 0 0 0 -1 forward_v I I I I #
coedge $-1 $444 $308 $313 $445 reversed $185 $-1 #
coedge $-1 $446 $187 $447 $448 reversed $117 $-1 #
coedge $-1 $187 $446 $444 $449 forward $117 $-1 #
coedge $-1 $313 $312 $187 $306 forward $314 $-1 #
edge $-1 $450 -18.815705114514543 $451 -10.876647169013827 $305 $452 forward 7 unknown #
coedge $-1 $189 $188 $443 $453 reversed $74 $-1 #
coedge $-1 $302 $454 $188 $309 reversed $185 $-1 #
edge $-1 $315 -70.909146397289959 $455 70.909146397289959 $308 $456 forward 7 unknown #
coedge $-1 $457 $458 $189 $311 forward $441 $-1 #
edge $-1 $316 -70.909146397289959 $459 70.909146397289959 $310 $460 forward 7 unknown #
coedge $-1 $305 $190 $458 $461 forward $314 $-1 #
coedge $-1 $190 $305 $302 $445 forward $314 $-1 #
loop $-1 $-1 $190 $440 #
vertex $-1 $191 $462 #
vertex $-1 $461 $463 #
straight-curve $-1 70.909146397289959 -14.846176141764184 6.1587724949002345 0 -1 0 I I #
face $-1 $-1 $464 $44 $-1 $465 reversed single #
loop $-1 $-1 $325 $192 #
plane-surface $-1 0 0 7.4600202373949172 0 0 1 1 0 0 forward_v I I I I #
coedge $-1 $466 $195 $197 $327 forward $121 $-1 #
coedge $-1 $195 $466 $467 $468 reversed $121 $-1 #
coedge $-1 $469 $198 $195 $324 forward $193 $-1 #
edge $-1 $330 23.457046213581791 $470 39.453748860332709 $323 $471 forward 7 unknown #
coedge $-1 $472 $473 $196 $326 forward $319 $-1 #
edge $-1 $474 -8.2483915588310381 $329 1.0403240201123864 $325 $475 forward 7 unknown #
edge $-1 $330 -67.323762512557423 $474 -55.693030434079979 $197 $476 forward 7 unknown #
coedge $-1 $198 $469 $472 $477 reversed $193 $-1 #
vertex $-1 $477 $478 #
vertex $-1 $199 $479 #
straight-curve $-1 -54.91244375053904 33.661881256278726 77.119023423814951 0 0 -1 I I #
coedge $-1 $332 $332 $-1 $480 reversed $202 $-1 #
edge $-1 $481 0 $481 6.2831853071796004 $203 $482 forward 7 unknown #
vertex $-1 $206 $483 #
ellipse-curve $-1 -66.338659926789703 29.017523466807006 3.9602455455462318 0 0.6018150307709319 0.79863550430605224 1 0 0 1 I I #
coedge $-1 $336 $336 $-1 $484 reversed $209 $-1 #
edge $-1 $485 0 $485 6.2831853071796004 $210 $486 forward 7 unknown #
vertex $-1 $213 $487 #
ellipse-curve $-1 -59.482930221039304 29.017523466807006 3.9602455455462318 0 0.6018150307709319 0.79863550430605224 1 0 0 1 I I #
face $-1 $-1 $352 $47 $-1 $488 reversed single #
loop $-1 $-1 $489 $214 #
plane-surface $-1 0 0 7.4600202373949172 0 0 1 1 0 0 forward_v I I I I #
coedge $-1 $490 $491 $492 $493 reversed $215 $-1 #
coedge $-1 $494 $217 $219 $350 forward $135 $-1 #
coedge $-1 $217 $494 $490 $495 forward $135 $-1 #
coedge $-1 $492 $220 $217 $347 forward $352 $-1 #
edge $-1 $354 2.486781188943624 $496 18.483483835694543 $346 $497 forward 7 unknown #
coedge $-1 $498 $499 $218 $349 forward $341 $-1 #
edge $-1 $500 -8.2483915588310381 $353 1.0403240201123864 $348 $501 forward 7 unknown #
edge $-1 $354 -67.323762512557423 $500 -55.693030434079979 $219 $502 forward 7 unknown #
coedge $-1 $220 $492 $498 $503 reversed $352 $-1 #
loop $-1 $-1 $492 $340 #
vertex $-1 $503 $504 #
vertex $-1 $221 $505 #
straight-curve $-1 -12.971913701262707 33.661881256278726 77.119023423814951 0 0 -1 I I #
coedge $-1 $356 $356 $-1 $506 reversed $224 $-1 #
edge $-1 $507 0 $507 6.2831853071796004 $225 $508 forward 7 unknown #
vertex $-1 $228 $509 #
ellipse-curve $-1 -24.398129877513362 29.017523466807006 3.9602455455462318 0 0.6018150307709319 0.79863550430605224 1 0 0 1 I I #
coedge $-1 $360 $360 $-1 $510 reversed $231 $-1 #
edge $-1 $511 0 $511 6.2831853071796004 $232 $512 forward 7 unknown #
vertex $-1 $235 $513 #
ellipse-curve $-1 -17.542400171762971 29.017523466807006 3.9602455455462318 0 0.6018150307709319 0.79863550430605224 1 0 0 1 I I #
face $-1 $-1 $376 $50 $-1 $514 reversed single #
loop $-1 $-1 $515 $236 #
plane-surface $-1 0 0 7.4600202373949172 0 0 1 1 0 0 forward_v I I I I #
coedge $-1 $516 $517 $518 $519 reversed $237 $-1 #
coedge $-1 $520 $239 $241 $374 forward $149 $-1 #
coedge $-1 $239 $520 $516 $521 forward $149 $-1 #
coedge $-1 $518 $242 $239 $371 forward $376 $-1 #
edge $-1 $378 -18.483483835694543 $522 -2.486781188943624 $370 $523 forward 7 unknown #
coedge $-1 $524 $525 $240 $373 forward $365 $-1 #
edge $-1 $526 -8.2483915588310381 $377 1.0403240201123864 $372 $527 forward 7 unknown #
edge $-1 $378 -67.323762512557423 $526 -55.693030434079979 $241 $528 forward 7 unknown #
coedge $-1 $242 $518 $524 $529 reversed $376 $-1 #
loop $-1 $-1 $518 $364 #
vertex $-1 $529 $530 #
vertex $-1 $243 $531 #
straight-curve $-1 28.968616348013626 33.661881256278726 77.119023423814951 0 0 -1 I I #
coedge $-1 $380 $380 $-1 $532 reversed $246 $-1 #
edge $-1 $533 0 $533 6.2831853071796004 $247 $534 forward 7 unknown #
vertex $-1 $250 $535 #
ellipse-curve $-1 17.542400171762978 29.017523466807006 3.9602455455462318 0 0.6018150307709319 0.79863550430605224 1 0 0 1 I I #
coedge $-1 $384 $384 $-1 $536 reversed $253 $-1 #
edge $-1 $537 0 $537 6.2831853071796004 $254 $538 forward 7 unknown #
vertex $-1 $257 $539 #
ellipse-curve $-1 24.398129877513355 29.017523466807006 3.9602455455462318 0 0.6018150307709319 0.79863550430605224 1 0 0 1 I I #
face $-1 $-1 $401 $53 $-1 $540 reversed single #
loop $-1 $-1 $397 $258 #
plane-surface $-1 70.909146397289959 0 0 -1 0 0 0 0 1 forward_v I I I I #
coedge $-1 $541 $542 $393 $543 forward $259 $-1 #
coedge $-1 $393 $261 $263 $399 reversed $163 $-1 #
coedge $-1 $261 $392 $391 $543 reversed $163 $-1 #
coedge $-1 $544 $264 $261 $395 forward $401 $-1 #
edge $-1 $403 -76.658552570117408 $545 -69.659003186420037 $394 $546 forward 7 unknown #
coedge $-1 $263 $262 $541 $547 reversed $104 $-1 #
coedge $-1 $548 $549 $262 $398 forward $389 $-1 #
edge $-1 $550 35.33437679380701 $402 46.965108872284461 $397 $551 forward 7 unknown #
edge $-1 $552 55.693030434079979 $403 67.323762512557423 $392 $553 forward 7 unknown #
coedge $-1 $264 $544 $548 $554 forward $401 $-1 #
loop $-1 $-1 $394 $388 #
vertex $-1 $398 $555 #
vertex $-1 $265 $556 #
straight-curve $-1 31.45539753695725 33.661881256278726 0.46047085369754015 -1 0 0 I I #
coedge $-1 $405 $405 $-1 $557 reversed $268 $-1 #
edge $-1 $558 0 $558 6.2831853071796004 $269 $559 forward 7 unknown #
vertex $-1 $272 $560 #
ellipse-curve $-1 59.482930221039311 29.017523466807006 3.9602455455462318 0 0.6018150307709319 0.79863550430605224 1 0 0 1 I I #
coedge $-1 $409 $409 $-1 $561 reversed $275 $-1 #
edge $-1 $562 0 $562 6.2831853071796004 $276 $563 forward 7 unknown #
vertex $-1 $279 $564 #
ellipse-curve $-1 66.338659926789688 29.017523466807006 3.9602455455462318 0 0.6018150307709319 0.79863550430605224 1 0 0 1 I I #
face $-1 $-1 $295 $42 $-1 $565 reversed single #
loop $-1 $-1 $429 $280 #
plane-surface $-1 0 33.661881256278726 0 0 -1 0 0 0 -1 forward_v I I I I #
coedge $-1 $566 $427 $430 $567 forward $281 $-1 #
coedge $-1 $433 $283 $284 $421 reversed $177 $-1 #
coedge $-1 $427 $566 $283 $419 reversed $281 $-1 #
edge $-1 $434 -7.4600202373949172 $568 7.4600202373949172 $418 $569 forward 7 unknown #
coedge $-1 $285 $284 $566 $570 forward $113 $-1 #
edge $-1 $425 -70.909146397289959 $568 70.909146397289959 $417 $571 forward 7 unknown #
coedge $-1 $430 $429 $285 $423 reversed $414 $-1 #
edge $-1 $572 -70.909146397289959 $424 70.909146397289959 $422 $573 forward 7 unknown #
vertex $-1 $287 $574 #
vertex $-1 $436 $575 #
straight-curve $-1 70.909146397289959 0 -7.4600202373949172 0 -1 0 I I #
coedge $-1 $416 $418 $288 $428 reversed $281 $-1 #
edge $-1 $431 -33.661881256278726 $434 33.661881256278726 $427 $576 forward 7 unknown #
coedge $-1 $422 $289 $294 $437 forward $414 $-1 #
coedge $-1 $289 $422 $416 $567 reversed $414 $-1 #
vertex $-1 $290 $577 #
straight-curve $-1 0 33.661881256278726 7.4600202373949172 -1 0 0 I I #
coedge $-1 $291 $417 $293 $436 reversed $177 $-1 #
vertex $-1 $428 $578 #
straight-curve $-1 0 -33.661881256278726 7.4600202373949172 1 0 0 I I #
edge $-1 $296 -7.4600202373949172 $425 7.4600202373949172 $293 $579 forward 7 unknown #
edge $-1 $297 -7.4600202373949172 $424 7.4600202373949172 $294 $580 forward 7 unknown #
point $-1 70.909146397289959 -33.661881256278726 7.4600202373949172 #
point $-1 70.909146397289959 33.661881256278726 7.4600202373949172 #
face $-1 $-1 $314 $43 $-1 $581 reversed single #
loop $-1 $-1 $310 $299 #
plane-surface $-1 0 -33.661881256278726 0 0 1 0 0 0 1 forward_v I I I I #
coedge $-1 $582 $583 $307 $453 forward $300 $-1 #
coedge $-1 $454 $302 $304 $449 reversed $185 $-1 #
edge $-1 $451 0.82938624745011724 $315 3.8293862474501172 $313 $584 forward 7 unknown #
coedge $-1 $304 $303 $585 $586 reversed $117 $-1 #
coedge $-1 $458 $457 $303 $448 forward $441 $-1 #
edge $-1 $587 -70.909146397289959 $450 70.909146397289959 $447 $588 forward 7 unknown #
edge $-1 $589 -70.909146397289959 $451 70.909146397289959 $444 $590 forward 7 unknown #
vertex $-1 $448 $591 #
vertex $-1 $306 $592 #
straight-curve $-1 70.909146397289959 -14.846176141764184 3.1587724949002345 0 1 0 I I #
edge $-1 $459 -18.815705114514543 $455 -10.876647169013827 $443 $593 forward 7 unknown #
coedge $-1 $308 $444 $582 $594 reversed $185 $-1 #
vertex $-1 $453 $595 #
straight-curve $-1 0 -25.722823310778011 6.1587724949002345 -1 0 0 I I #
coedge $-1 $447 $310 $583 $596 forward $441 $-1 #
coedge $-1 $310 $447 $312 $461 reversed $441 $-1 #
vertex $-1 $596 $597 #
straight-curve $-1 0 -33.661881256278726 6.1587724949002345 -1 0 0 I I #
edge $-1 $316 -6.1587724949002345 $450 -3.1587724949002345 $312 $598 forward 7 unknown #
point $-1 70.909146397289959 -25.722823310778011 6.1587724949002345 #
point $-1 70.909146397289959 -33.661881256278726 6.1587724949002345 #
loop $-1 $-1 $467 $318 #
plane-surface $-1 -70.909146397289959 0 0 1 0 0 0 0 -1 forward_v I I I I #
coedge $-1 $322 $321 $473 $599 reversed $121 $-1 #
coedge $-1 $600 $601 $322 $468 forward $464 $-1 #
edge $-1 $470 -46.965108872284475 $602 -35.33437679380701 $467 $603 forward 7 unknown #
coedge $-1 $328 $323 $601 $604 reversed $193 $-1 #
vertex $-1 $324 $605 #
straight-curve $-1 -31.45539753695725 33.661881256278726 0.46047085369754015 -1 0 0 I I #
coedge $-1 $606 $325 $328 $477 forward $319 $-1 #
coedge $-1 $325 $606 $466 $599 forward $319 $-1 #
vertex $-1 $326 $607 #
straight-curve $-1 -54.91244375053904 32.621557236166339 7.4600202373949145 0 1 0 I I #
straight-curve $-1 -54.91244375053904 -20.105265769718471 40.976923061807199 0 -0.79863550430605224 0.6018150307709319 I I #
edge $-1 $329 54.91244375053904 $608 70.909146397289959 $328 $609 forward 7 unknown #
point $-1 -54.91244375053904 33.661881256278726 7.4600202373949172 #
point $-1 -54.91244375053904 33.661881256278718 0.4604708536975437 #
edge $-1 $610 1 $610 0 $332 $-1 forward 7 unknown #
vertex $-1 $333 $611 #
ellipse-curve $-1 -66.338659926789703 27.25597430404353 1.6225908974704943 0 0.6018150307709319 0.79863550430605224 1 0 0 1 I I #
point $-1 -65.338659926789703 29.017523466807006 3.9602455455462335 #
edge $-1 $612 1 $612 0 $336 $-1 forward 7 unknown #
vertex $-1 $337 $613 #
ellipse-curve $-1 -59.482930221039304 27.25597430404353 1.6225908974704943 0 0.6018150307709319 0.79863550430605224 1 0 0 1 I I #
point $-1 -58.482930221039304 29.017523466807006 3.9602455455462335 #
plane-surface $-1 0 33.661881256278726 0 0 -1 0 0 0 -1 forward_v I I I I #
coedge $-1 $499 $498 $491 $614 forward $341 $-1 #
coedge $-1 $491 $343 $345 $495 reversed $215 $-1 #
coedge $-1 $343 $490 $489 $614 reversed $215 $-1 #
coedge $-1 $351 $346 $343 $493 forward $352 $-1 #
edge $-1 $496 -76.658552570117408 $615 -69.659003186420037 $492 $616 forward 7 unknown #
coedge $-1 $345 $344 $499 $617 reversed $135 $-1 #
edge $-1 $618 55.693030434079979 $496 67.323762512557423 $490 $619 forward 7 unknown #
vertex $-1 $347 $620 #
straight-curve $-1 -10.485132512319083 33.661881256278726 0.46047085369754015 -1 0 0 I I #
coedge $-1 $489 $348 $351 $503 forward $341 $-1 #
coedge $-1 $348 $489 $494 $617 forward $341 $-1 #
vertex $-1 $349 $621 #
straight-curve $-1 -12.971913701262707 32.621557236166339 7.4600202373949145 0 1 0 I I #
straight-curve $-1 -12.971913701262707 -20.105265769718471 40.976923061807199 0 -0.79863550430605224 0.6018150307709319 I I #
edge $-1 $353 12.971913701262707 $615 28.968616348013626 $351 $622 forward 7 unknown #
point $-1 -12.971913701262707 33.661881256278726 7.4600202373949172 #
point $-1 -12.971913701262707 33.661881256278718 0.4604708536975437 #
edge $-1 $623 1 $623 0 $356 $-1 forward 7 unknown #
vertex $-1 $357 $624 #
ellipse-curve $-1 -24.398129877513362 27.25597430404353 1.6225908974704943 0 0.6018150307709319 0.79863550430605224 1 0 0 1 I I #
point $-1 -23.398129877513362 29.017523466807006 3.9602455455462335 #
edge $-1 $625 1 $625 0 $360 $-1 forward 7 unknown #
vertex $-1 $361 $626 #
ellipse-curve $-1 -17.542400171762971 27.25597430404353 1.6225908974704943 0 0.6018150307709319 0.79863550430605224 1 0 0 1 I I #
point $-1 -16.542400171762971 29.017523466807006 3.9602455455462335 #
plane-surface $-1 0 33.661881256278726 0 0 -1 0 0 0 -1 forward_v I I I I #
coedge $-1 $525 $524 $517 $627 forward $365 $-1 #
coedge $-1 $517 $367 $369 $521 reversed $237 $-1 #
coedge $-1 $367 $516 $515 $627 reversed $237 $-1 #
coedge $-1 $375 $370 $367 $519 forward $376 $-1 #
edge $-1 $522 -76.658552570117408 $628 -69.659003186420037 $518 $629 forward 7 unknown #
coedge $-1 $369 $368 $525 $630 reversed $149 $-1 #
edge $-1 $631 55.693030434079979 $522 67.323762512557423 $516 $632 forward 7 unknown #
vertex $-1 $371 $633 #
straight-curve $-1 10.485132512319083 33.661881256278726 0.46047085369754015 -1 0 0 I I #
coedge $-1 $515 $372 $375 $529 forward $365 $-1 #
coedge $-1 $372 $515 $520 $630 forward $365 $-1 #
vertex $-1 $373 $634 #
straight-curve $-1 28.968616348013626 32.621557236166339 7.4600202373949145 0 1 0 I I #
straight-curve $-1 28.968616348013626 -20.105265769718471 40.976923061807199 0 -0.79863550430605224 0.6018150307709319 I I #
edge $-1 $377 -28.968616348013626 $628 -12.971913701262707 $375 $635 forward 7 unknown #
point $-1 28.968616348013626 33.661881256278726 7.4600202373949172 #
point $-1 28.968616348013626 33.661881256278718 0.4604708536975437 #
edge $-1 $636 1 $636 0 $380 $-1 forward 7 unknown #
vertex $-1 $381 $637 #
ellipse-curve $-1 17.542400171762978 27.25597430404353 1.6225908974704943 0 0.6018150307709319 0.79863550430605224 1 0 0 1 I I #
point $-1 18.542400171762978 29.017523466807006 3.9602455455462335 #
edge $-1 $638 1 $638 0 $384 $-1 forward 7 unknown #
vertex $-1 $385 $639 #
ellipse-curve $-1 24.398129877513355 27.25597430404353 1.6225908974704943 0 0.6018150307709319 0.79863550430605224 1 0 0 1 I I #
point $-1 25.398129877513355 29.017523466807006 3.9602455455462335 #
plane-surface $-1 0 33.661881256278726 0 0 -1 0 0 0 -1 forward_v I I I I #
coedge $-1 $640 $391 $396 $547 forward $259 $-1 #
coedge $-1 $391 $640 $544 $641 forward $259 $-1 #
edge $-1 $545 -1.0403240201123864 $552 8.2483915588310381 $391 $642 forward 7 unknown #
coedge $-1 $400 $394 $542 $641 reversed $401 $-1 #
vertex $-1 $395 $643 #
straight-curve $-1 54.91244375053904 33.661881256278726 77.119023423814951 0 0 1 I I #
edge $-1 $552 23.457046213581791 $550 39.453748860332709 $541 $644 forward 7 unknown #
coedge $-1 $549 $397 $400 $554 reversed $389 $-1 #
coedge $-1 $397 $548 $640 $645 reversed $389 $-1 #
vertex $-1 $645 $646 #
straight-curve $-1 70.909146397289959 -3.8461221527268261 28.724779294831585 0 0.79863550430605224 -0.6018150307709319 I I #
vertex $-1 $547 $647 #
straight-curve $-1 54.91244375053904 -20.105265769718471 40.976923061807199 0 0.79863550430605224 -0.6018150307709319 I I #
edge $-1 $648 -7.4600202373949172 $402 -0.4604708536975437 $548 $649 forward 7 unknown #
point $-1 70.909146397289959 33.661881256278718 0.4604708536975437 #
point $-1 54.91244375053904 33.661881256278718 0.4604708536975437 #
edge $-1 $650 1 $650 0 $405 $-1 forward 7 unknown #
vertex $-1 $406 $651 #
ellipse-curve $-1 59.482930221039311 27.25597430404353 1.6225908974704943 0 0.6018150307709319 0.79863550430605224 1 0 0 1 I I #
point $-1 60.482930221039311 29.017523466807006 3.9602455455462335 #
edge $-1 $652 1 $652 0 $409 $-1 forward 7 unknown #
vertex $-1 $410 $653 #
ellipse-curve $-1 66.338659926789688 27.25597430404353 1.6225908974704943 0 0.6018150307709319 0.79863550430605224 1 0 0 1 I I #
point $-1 67.338659926789688 29.017523466807006 3.9602455455462335 #
plane-surface $-1 70.909146397289959 0 0 -1 0 0 0 0 1 forward_v I I I I #
coedge $-1 $418 $416 $420 $570 reversed $281 $-1 #
edge $-1 $431 -7.4600202373949172 $572 7.4600202373949172 $430 $654 forward 7 unknown #
vertex $-1 $570 $655 #
straight-curve $-1 -70.909146397289959 -33.661881256278726 0 0 0 -1 I I #
edge $-1 $568 -33.661881256278726 $572 33.661881256278726 $566 $656 forward 7 unknown #
straight-curve $-1 0 -33.661881256278726 -7.4600202373949172 -1 0 0 I I #
vertex $-1 $423 $657 #
straight-curve $-1 0 33.661881256278726 -7.4600202373949172 1 0 0 I I #
point $-1 70.909146397289959 33.661881256278726 -7.4600202373949172 #
point $-1 70.909146397289959 -33.661881256278726 -7.4600202373949172 #
straight-curve $-1 -70.909146397289959 0 7.4600202373949172 0 -1 0 I I #
point $-1 -70.909146397289959 33.661881256278726 7.4600202373949172 #
point $-1 -70.909146397289959 -33.661881256278726 7.4600202373949172 #
straight-curve $-1 70.909146397289959 -33.661881256278726 0 0 0 -1 I I #
straight-curve $-1 70.909146397289959 33.661881256278726 0 0 0 -1 I I #
plane-surface $-1 70.909146397289959 0 0 -1 0 0 0 0 1 forward_v I I I I #
coedge $-1 $585 $443 $454 $594 forward $300 $-1 #
coedge $-1 $443 $585 $457 $596 reversed $300 $-1 #
straight-curve $-1 70.909146397289959 -25.722823310778011 2.3293862474501172 0 0 1 I I #
coedge $-1 $583 $582 $446 $586 forward $300 $-1 #
edge $-1 $589 10.876647169013827 $587 18.815705114514543 $585 $658 forward 7 unknown #
vertex $-1 $448 $659 #
straight-curve $-1 0 -33.661881256278726 3.1587724949002345 1 0 0 I I #
vertex $-1 $586 $660 #
straight-curve $-1 0 -25.722823310778011 3.1587724949002345 1 0 0 I I #
point $-1 70.909146397289959 -33.661881256278726 3.1587724949002345 #
point $-1 70.909146397289959 -25.722823310778011 3.1587724949002345 #
straight-curve $-1 -70.909146397289959 -14.846176141764184 6.1587724949002345 0 1 0 I I #
edge $-1 $455 -3.8293862474501172 $589 -0.82938624745011724 $582 $661 forward 7 unknown #
point $-1 -70.909146397289959 -25.722823310778011 6.1587724949002345 #
edge $-1 $459 -6.1587724949002345 $587 -3.1587724949002345 $583 $662 forward 7 unknown #
point $-1 -70.909146397289959 -33.661881256278726 6.1587724949002345 #
straight-curve $-1 70.909146397289959 -33.661881256278726 0 0 0 -1 I I #
edge $-1 $602 -39.453748860332709 $474 -23.457046213581791 $473 $663 forward 7 unknown #
coedge $-1 $601 $467 $606 $664 reversed $464 $-1 #
coedge $-1 $467 $600 $469 $604 forward $464 $-1 #
vertex $-1 $468 $665 #
straight-curve $-1 -70.909146397289959 -3.8461221527268261 28.724779294831585 0 -0.79863550430605224 0.6018150307709319 I I #
edge $-1 $608 -7.4600202373949172 $470 -0.46047085369753959 $469 $666 forward 7 unknown #
point $-1 -70.909146397289959 33.661881256278726 0.46047085369753959 #
coedge $-1 $473 $472 $600 $664 forward $319 $-1 #
point $-1 -54.91244375053904 24.373165677335301 7.4600202373949145 #
vertex $-1 $477 $667 #
straight-curve $-1 0 33.661881256278726 7.4600202373949172 -1 0 0 I I #
vertex $-1 $480 $668 #
point $-1 -65.338659926789703 27.25597430404353 1.6225908974704943 #
vertex $-1 $484 $669 #
point $-1 -58.482930221039304 27.25597430404353 1.6225908974704943 #
edge $-1 $615 -1.0403240201123864 $618 8.2483915588310381 $489 $670 forward 7 unknown #
vertex $-1 $614 $671 #
straight-curve $-1 -28.968616348013626 33.661881256278726 77.119023423814951 0 0 1 I I #
edge $-1 $618 -18.483483835694543 $500 -2.486781188943624 $499 $672 forward 7 unknown #
vertex $-1 $617 $673 #
straight-curve $-1 -28.968616348013626 -20.105265769718471 40.976923061807199 0 0.79863550430605224 -0.6018150307709319 I I #
point $-1 -28.968616348013626 33.661881256278718 0.4604708536975437 #
point $-1 -12.971913701262707 24.373165677335301 7.4600202373949145 #
straight-curve $-1 0 33.661881256278726 7.4600202373949172 -1 0 0 I I #
vertex $-1 $506 $674 #
point $-1 -23.398129877513362 27.25597430404353 1.6225908974704943 #
vertex $-1 $510 $675 #
point $-1 -16.542400171762971 27.25597430404353 1.6225908974704943 #
edge $-1 $628 -1.0403240201123864 $631 8.2483915588310381 $515 $676 forward 7 unknown #
vertex $-1 $519 $677 #
straight-curve $-1 12.971913701262707 33.661881256278726 77.119023423814951 0 0 1 I I #
edge $-1 $631 2.486781188943624 $526 18.483483835694543 $525 $678 forward 7 unknown #
vertex $-1 $630 $679 #
straight-curve $-1 12.971913701262707 -20.105265769718471 40.976923061807199 0 0.79863550430605224 -0.6018150307709319 I I #
point $-1 12.971913701262707 33.661881256278718 0.4604708536975437 #
point $-1 28.968616348013626 24.373165677335301 7.4600202373949145 #
straight-curve $-1 0 33.661881256278726 7.4600202373949172 -1 0 0 I I #
vertex $-1 $532 $680 #
point $-1 18.542400171762978 27.25597430404353 1.6225908974704943 #
vertex $-1 $536 $681 #
point $-1 25.398129877513355 27.25597430404353 1.6225908974704943 #
coedge $-1 $542 $541 $549 $645 forward $259 $-1 #
edge $-1 $648 -70.909146397289959 $545 -54.91244375053904 $544 $682 forward 7 unknown #
straight-curve $-1 54.91244375053904 32.621557236166339 7.4600202373949145 0 -1 0 I I #
point $-1 54.91244375053904 33.661881256278726 7.4600202373949172 #
straight-curve $-1 31.45539753695725 24.373165677335294 7.460020237394918 1 0 0 I I #
edge $-1 $550 24.373165677335301 $648 33.661881256278726 $549 $683 forward 7 unknown #
point $-1 70.909146397289959 24.373165677335301 7.4600202373949145 #
point $-1 54.91244375053904 24.373165677335301 7.4600202373949145 #
vertex $-1 $645 $684 #
straight-curve $-1 70.909146397289959 33.661881256278726 0 0 0 -1 I I #
vertex $-1 $557 $685 #
point $-1 60.482930221039311 27.25597430404353 1.6225908974704943 #
vertex $-1 $561 $686 #
point $-1 67.338659926789688 27.25597430404353 1.6225908974704943 #
straight-curve $-1 -70.909146397289959 33.661881256278726 0 0 0 -1 I I #
point $-1 -70.909146397289959 -33.661881256278726 -7.4600202373949172 #
straight-curve $-1 -70.909146397289959 0 -7.4600202373949172 0 1 0 I I #
point $-1 -70.909146397289959 33.661881256278726 -7.4600202373949172 #
straight-curve $-1 -70.909146397289959 -14.846176141764184 3.1587724949002345 0 -1 0 I I #
point $-1 -70.909146397289959 -33.661881256278726 3.1587724949002345 #
point $-1 -70.909146397289959 -25.722823310778011 3.1587724949002345 #
straight-curve $-1 -70.909146397289959 -25.722823310778011 2.3293862474501172 0 0 -1 I I #
straight-curve $-1 -70.909146397289959 -33.661881256278726 0 0 0 -1 I I #
straight-curve $-1 -31.45539753695725 24.373165677335294 7.460020237394918 1 0 0 I I #
edge $-1 $608 -33.661881256278726 $602 -24.373165677335301 $600 $687 forward 7 unknown #
point $-1 -70.909146397289959 24.373165677335301 7.4600202373949145 #
straight-curve $-1 -70.909146397289959 33.661881256278726 0 0 0 -1 I I #
point $-1 -70.909146397289959 33.661881256278726 7.4600202373949172 #
point $-1 -66.338659926789703 26.654159273272601 0.82395539316444188 #
point $-1 -59.482930221039304 26.654159273272601 0.82395539316444188 #
straight-curve $-1 -28.968616348013626 32.621557236166339 7.4600202373949145 0 -1 0 I I #
point $-1 -28.968616348013626 33.661881256278726 7.4600202373949172 #
straight-curve $-1 -10.485132512319083 24.373165677335294 7.460020237394918 1 0 0 I I #
point $-1 -28.968616348013626 24.373165677335301 7.4600202373949145 #
point $-1 -24.398129877513362 26.654159273272601 0.82395539316444188 #
point $-1 -17.542400171762971 26.654159273272601 0.82395539316444188 #
straight-curve $-1 12.971913701262707 32.621557236166339 7.4600202373949145 0 -1 0 I I #
point $-1 12.971913701262707 33.661881256278726 7.4600202373949172 #
straight-curve $-1 10.485132512319083 24.373165677335294 7.460020237394918 1 0 0 I I #
point $-1 12.971913701262707 24.373165677335301 7.4600202373949145 #
point $-1 17.542400171762978 26.654159273272601 0.82395539316444188 #
point $-1 24.398129877513355 26.654159273272601 0.82395539316444188 #
straight-curve $-1 0 33.661881256278726 7.4600202373949172 -1 0 0 I I #
straight-curve $-1 70.909146397289959 0 7.4600202373949172 0 1 0 I I #
point $-1 70.909146397289959 33.661881256278726 7.4600202373949172 #
point $-1 59.482930221039311 26.654159273272601 0.82395539316444188 #
point $-1 66.338659926789688 26.654159273272601 0.82395539316444188 #
straight-curve $-1 -70.909146397289959 0 7.4600202373949172 0 -1 0 I I #
End-of-ACIS-data 