500 0 10 0           
7 Unknown 11 ACIS 5.0 NT 24 Thu Mar 25 18:32:16 1999 
-1 9.9999999999999995e-007 1e-010 
body $-1 $10 $-1 $11 #
body $-1 $12 $-1 $13 #
body $-1 $14 $-1 $15 #
body $-1 $16 $-1 $17 #
body $-1 $18 $-1 $19 #
body $-1 $20 $-1 $21 #
body $-1 $22 $-1 $23 #
body $-1 $24 $-1 $25 #
body $-1 $26 $-1 $27 #
body $-1 $28 $-1 $29 #
lump $-1 $-1 $30 $0 #
transform $-1 1 0 0 0 1 0 0 0 1 63.85204626606037 43.654089188887724 10.819931191367891 1 rotate no_reflect no_shear #
lump $-1 $-1 $31 $1 #
transform $-1 1 0 0 0 1 0 0 0 1 63.85204626606037 43.654089188887724 10.819931191367891 1 rotate no_reflect no_shear #
lump $-1 $-1 $32 $2 #
transform $-1 1 0 0 0 1 0 0 0 1 63.85204626606037 43.654089188887724 10.819931191367891 1 rotate no_reflect no_shear #
lump $-1 $-1 $33 $3 #
transform $-1 1 0 0 0 1 0 0 0 1 63.85204626606037 43.654089188887724 10.819931191367891 1 rotate no_reflect no_shear #
lump $-1 $-1 $34 $4 #
transform $-1 1 0 0 0 1 0 0 0 1 63.85204626606037 43.654089188887724 10.819931191367891 1 rotate no_reflect no_shear #
lump $-1 $-1 $35 $5 #
transform $-1 1 0 0 0 1 0 0 0 1 63.85204626606037 43.654089188887724 10.819931191367891 1 rotate no_reflect no_shear #
lump $-1 $-1 $36 $6 #
transform $-1 1 0 0 0 1 0 0 0 1 63.85204626606037 43.654089188887724 10.819931191367891 1 rotate no_reflect no_shear #
lump $-1 $-1 $37 $7 #
transform $-1 1 0 0 0 1 0 0 0 1 63.85204626606037 43.654089188887724 10.819931191367891 1 rotate no_reflect no_shear #
lump $-1 $-1 $38 $8 #
transform $-1 1 0 0 0 1 0 0 0 1 63.85204626606037 43.654089188887724 10.819931191367891 1 rotate no_reflect no_shear #
lump $-1 $-1 $39 $9 #
transform $-1 1 0 0 0 1 0 0 0 1 63.85204626606037 43.654089188887724 10.819931191367891 1 rotate no_reflect no_shear #
shell $-1 $-1 $-1 $40 $-1 $10 #
shell $-1 $-1 $-1 $41 $-1 $12 #
shell $-1 $-1 $-1 $42 $-1 $14 #
shell $-1 $-1 $-1 $43 $-1 $16 #
shell $-1 $-1 $-1 $44 $-1 $18 #
shell $-1 $-1 $-1 $45 $-1 $20 #
shell $-1 $-1 $-1 $46 $-1 $22 #
shell $-1 $-1 $-1 $47 $-1 $24 #
shell $-1 $-1 $-1 $48 $-1 $26 #
shell $-1 $-1 $-1 $49 $-1 $28 #
face $-1 $50 $51 $30 $-1 $52 forward single #
face $-1 $53 $54 $31 $-1 $55 reversed single #
face $-1 $56 $57 $32 $-1 $58 reversed single #
face $-1 $59 $60 $33 $-1 $61 forward single #
face $-1 $62 $63 $34 $-1 $64 forward single #
face $-1 $65 $66 $35 $-1 $67 forward single #
face $-1 $68 $69 $36 $-1 $70 reversed single #
face $-1 $71 $72 $37 $-1 $73 forward single #
face $-1 $74 $75 $38 $-1 $76 forward single #
face $-1 $77 $78 $39 $-1 $79 forward single #
face $-1 $80 $81 $30 $-1 $82 reversed single #
loop $-1 $-1 $83 $40 #
plane-surface $-1 0 0 10.819931191367891 0 0 1 1 0 0 forward_v I I I I #
face $-1 $84 $85 $31 $-1 $86 reversed single #
loop $-1 $-1 $87 $41 #
plane-surface $-1 -58.76952830264694 -43.154089188887724 0 0 1 0 0 0 1 forward_v I I I I #
face $-1 $88 $89 $32 $-1 $90 reversed single #
loop $-1 $-1 $91 $42 #
plane-surface $-1 -26.448382500961159 -34.006344965287489 97.689832683745806 0.70710678939079041 0 0.70710677298230451 0.70710677298230451 0 -0.70710678939079041 forward_v I I I I #
face $-1 $92 $93 $33 $-1 $94 forward single #
loop $-1 $95 $96 $43 #
cone-surface $-1 61.78322822613066 -39.794991499447633 8.7511131198395447 -0.70710678939079041 0 -0.70710677298230451 0.17677669324557613 0 -0.1767766973476976 1 I I 0 1 0.25 forward I I I I #
face $-1 $97 $98 $34 $-1 $99 forward single #
loop $-1 $100 $101 $44 #
cone-surface $-1 61.78322822613066 -34.006344965287489 8.7511131198395447 -0.70710678939079041 0 -0.70710677298230451 0.17677669324557613 0 -0.1767766973476976 1 I I 0 1 0.25 forward I I I I #
face $-1 $102 $103 $35 $-1 $104 forward single #
loop $-1 $105 $106 $45 #
cone-surface $-1 61.78322822613066 -28.217698431127353 8.7511131198395447 -0.70710678939079041 0 -0.70710677298230451 0.17677669324557613 0 -0.1767766973476976 1 I I 0 1 0.25 forward I I I I #
face $-1 $107 $108 $36 $-1 $109 reversed single #
loop $-1 $-1 $110 $46 #
plane-surface $-1 63.852048361491157 24.358600741687248 187.99026145076732 0 1 0 0.70710678939079041 0 0.70710677298230451 forward_v I I I I #
face $-1 $111 $112 $37 $-1 $113 forward single #
loop $-1 $114 $115 $47 #
cone-surface $-1 61.78322822613066 28.217698431127346 8.7511131198395447 -0.70710678939079041 0 -0.70710677298230451 0.17677669324557613 0 -0.1767766973476976 1 I I 0 1 0.25 forward I I I I #
face $-1 $116 $117 $38 $-1 $118 forward single #
loop $-1 $119 $120 $48 #
cone-surface $-1 61.78322822613066 34.006344965287482 8.7511131198395447 -0.70710678939079041 0 -0.70710677298230451 0.17677669324557613 0 -0.1767766973476976 1 I I 0 1 0.25 forward I I I I #
face $-1 $121 $122 $39 $-1 $123 forward single #
loop $-1 $124 $125 $49 #
cone-surface $-1 61.78322822613066 39.794991499447633 8.7511131198395447 -0.70710678939079041 0 -0.70710677298230451 0.17677669324557613 0 -0.1767766973476976 1 I I 0 1 0.25 forward I I I I #
face $-1 $126 $127 $30 $-1 $128 reversed single #
loop $-1 $-1 $129 $50 #
plane-surface $-1 0 0 -10.819931191367891 0 0 1 1 0 0 forward_v I I I I #
coedge $-1 $130 $131 $132 $133 forward $51 $-1 #
face $-1 $134 $135 $31 $-1 $136 reversed single #
loop $-1 $-1 $137 $53 #
plane-surface $-1 -58.76952830264694 -38.851278575092181 0 0 -1 0 0 0 -1 forward_v I I I I #
coedge $-1 $138 $139 $140 $141 reversed $54 $-1 #
face $-1 $142 $143 $32 $-1 $144 reversed single #
loop $-1 $-1 $145 $56 #
plane-surface $-1 63.852048361491157 -24.358600741687255 187.99026145076732 0 -1 0 -0.70710678939079041 0 -0.70710677298230451 forward_v I I I I #
coedge $-1 $146 $147 $148 $149 reversed $57 $-1 #
face $-1 $-1 $150 $33 $-1 $151 forward single #
loop $-1 $152 $153 $59 #
cone-surface $-1 61.341286482761419 -39.794991499447633 8.3091713867256036 -0.70710678939079041 0 -0.70710677298230451 0.088388346622788064 0 -0.088388348673848802 1 I I -0.70710678118654746 0.70710678118654746 0.125 forward I I I I #
loop $-1 $-1 $154 $43 #
coedge $-1 $96 $96 $155 $156 reversed $60 $-1 #
face $-1 $-1 $157 $34 $-1 $158 forward single #
loop $-1 $159 $160 $62 #
cone-surface $-1 61.341286482761419 -34.006344965287489 8.3091713867256036 -0.70710678939079041 0 -0.70710677298230451 0.088388346622788064 0 -0.088388348673848802 1 I I -0.70710678118654746 0.70710678118654746 0.125 forward I I I I #
loop $-1 $-1 $161 $44 #
coedge $-1 $101 $101 $162 $163 reversed $63 $-1 #
face $-1 $-1 $164 $35 $-1 $165 forward single #
loop $-1 $166 $167 $65 #
cone-surface $-1 61.341286482761419 -28.217698431127353 8.3091713867256036 -0.70710678939079041 0 -0.70710677298230451 0.088388346622788064 0 -0.088388348673848802 1 I I -0.70710678118654746 0.70710678118654746 0.125 forward I I I I #
loop $-1 $-1 $168 $45 #
coedge $-1 $106 $106 $169 $170 reversed $66 $-1 #
face $-1 $171 $172 $36 $-1 $173 reversed single #
loop $-1 $-1 $174 $68 #
plane-surface $-1 -26.448382500961159 34.006344965287482 97.689832683745806 0.70710678939079041 0 0.70710677298230451 0.70710677298230451 0 -0.70710678939079041 forward_v I I I I #
coedge $-1 $175 $176 $177 $178 reversed $69 $-1 #
face $-1 $-1 $179 $37 $-1 $180 forward single #
loop $-1 $181 $182 $71 #
cone-surface $-1 61.341286482761419 28.217698431127346 8.3091713867256036 -0.70710678939079041 0 -0.70710677298230451 0.088388346622788064 0 -0.088388348673848802 1 I I -0.70710678118654746 0.70710678118654746 0.125 forward I I I I #
loop $-1 $-1 $183 $47 #
coedge $-1 $115 $115 $184 $185 reversed $72 $-1 #
face $-1 $-1 $186 $38 $-1 $187 forward single #
loop $-1 $188 $189 $74 #
cone-surface $-1 61.341286482761419 34.006344965287482 8.3091713867256036 -0.70710678939079041 0 -0.70710677298230451 0.088388346622788064 0 -0.088388348673848802 1 I I -0.70710678118654746 0.70710678118654746 0.125 forward I I I I #
loop $-1 $-1 $190 $48 #
coedge $-1 $120 $120 $191 $192 reversed $75 $-1 #
face $-1 $-1 $193 $39 $-1 $194 forward single #
loop $-1 $195 $196 $77 #
cone-surface $-1 61.341286482761419 39.794991499447633 8.3091713867256036 -0.70710678939079041 0 -0.70710677298230451 0.088388346622788064 0 -0.088388348673848802 1 I I -0.70710678118654746 0.70710678118654746 0.125 forward I I I I #
loop $-1 $-1 $197 $49 #
coedge $-1 $125 $125 $198 $199 reversed $78 $-1 #
face $-1 $200 $201 $30 $-1 $202 reversed single #
loop $-1 $-1 $203 $80 #
plane-surface $-1 0 -43.654089188887724 0 0 1 0 0 0 1 forward_v I I I I #
coedge $-1 $204 $205 $206 $207 forward $81 $-1 #
coedge $-1 $208 $83 $209 $210 forward $51 $-1 #
coedge $-1 $83 $208 $211 $212 forward $51 $-1 #
coedge $-1 $213 $214 $83 $133 reversed $215 $-1 #
edge $-1 $216 -43.654089188887724 $217 43.654089188887724 $132 $218 forward 7 unknown #
face $-1 $219 $220 $31 $-1 $221 reversed single #
loop $-1 $-1 $222 $84 #
plane-surface $-1 -53.68701033923351 -41.002683881989952 0 -1 0 0 0 0 1 forward_v I I I I #
coedge $-1 $223 $224 $225 $226 forward $85 $-1 #
coedge $-1 $227 $87 $228 $229 reversed $54 $-1 #
coedge $-1 $87 $227 $230 $231 reversed $54 $-1 #
coedge $-1 $232 $233 $87 $141 forward $234 $-1 #
edge $-1 $235 -10.819931191367891 $236 10.819931191367891 $140 $237 forward 7 unknown #
face $-1 $238 $239 $32 $-1 $240 forward single #
loop $-1 $-1 $148 $88 #
plane-surface $-1 63.85204626606037 0 0 -1 0 0 0 0 1 forward_v I I I I #
coedge $-1 $241 $242 $243 $244 reversed $89 $-1 #
coedge $-1 $245 $91 $246 $247 reversed $57 $-1 #
coedge $-1 $91 $245 $241 $248 forward $57 $-1 #
coedge $-1 $243 $249 $91 $149 forward $143 $-1 #
edge $-1 $250 -26.650916706243979 $251 -7.3554282590435101 $148 $252 forward 7 unknown #
loop $-1 $-1 $155 $92 #
plane-surface $-1 -26.448382500961159 -34.006344965287489 97.689832683745806 0.70710678939079041 0 0.70710677298230451 0.70710677298230451 0 -0.70710678939079041 forward_v I I I I #
loop $-1 $-1 $253 $59 #
coedge $-1 $153 $153 $154 $254 reversed $93 $-1 #
coedge $-1 $154 $154 $153 $254 forward $95 $-1 #
coedge $-1 $155 $155 $96 $156 forward $150 $-1 #
edge $-1 $255 0 $255 6.2831853071796004 $155 $256 forward 7 unknown #
loop $-1 $-1 $162 $97 #
plane-surface $-1 -26.448382500961159 -34.006344965287489 97.689832683745806 0.70710678939079041 0 0.70710677298230451 0.70710677298230451 0 -0.70710678939079041 forward_v I I I I #
loop $-1 $-1 $257 $62 #
coedge $-1 $160 $160 $161 $258 reversed $98 $-1 #
coedge $-1 $161 $161 $160 $258 forward $100 $-1 #
coedge $-1 $162 $162 $101 $163 forward $157 $-1 #
edge $-1 $259 0 $259 6.2831853071796004 $162 $260 forward 7 unknown #
loop $-1 $-1 $169 $102 #
plane-surface $-1 -26.448382500961159 -34.006344965287489 97.689832683745806 0.70710678939079041 0 0.70710677298230451 0.70710677298230451 0 -0.70710678939079041 forward_v I I I I #
loop $-1 $-1 $261 $65 #
coedge $-1 $167 $167 $168 $262 reversed $103 $-1 #
coedge $-1 $168 $168 $167 $262 forward $105 $-1 #
coedge $-1 $169 $169 $106 $170 forward $164 $-1 #
edge $-1 $263 0 $263 6.2831853071796004 $169 $264 forward 7 unknown #
face $-1 $265 $266 $36 $-1 $267 reversed single #
loop $-1 $-1 $177 $107 #
plane-surface $-1 63.85204626606037 0 0 -1 0 0 0 0 1 forward_v I I I I #
coedge $-1 $268 $269 $270 $271 reversed $108 $-1 #
coedge $-1 $176 $110 $272 $273 reversed $69 $-1 #
coedge $-1 $110 $175 $268 $274 reversed $69 $-1 #
coedge $-1 $270 $275 $110 $178 forward $172 $-1 #
edge $-1 $276 83.175199534015775 $277 86.605728904090185 $177 $278 forward 7 unknown #
loop $-1 $-1 $184 $111 #
plane-surface $-1 -26.448382500961159 34.006344965287482 97.689832683745806 0.70710678939079041 0 0.70710677298230451 0.70710677298230451 0 -0.70710678939079041 forward_v I I I I #
loop $-1 $-1 $279 $71 #
coedge $-1 $182 $182 $183 $280 reversed $112 $-1 #
coedge $-1 $183 $183 $182 $280 forward $114 $-1 #
coedge $-1 $184 $184 $115 $185 forward $179 $-1 #
edge $-1 $281 0 $281 6.2831853071796004 $184 $282 forward 7 unknown #
loop $-1 $-1 $191 $116 #
plane-surface $-1 -26.448382500961159 34.006344965287482 97.689832683745806 0.70710678939079041 0 0.70710677298230451 0.70710677298230451 0 -0.70710678939079041 forward_v I I I I #
loop $-1 $-1 $283 $74 #
coedge $-1 $189 $189 $190 $284 reversed $117 $-1 #
coedge $-1 $190 $190 $189 $284 forward $119 $-1 #
coedge $-1 $191 $191 $120 $192 forward $186 $-1 #
edge $-1 $285 0 $285 6.2831853071796004 $191 $286 forward 7 unknown #
loop $-1 $-1 $198 $121 #
plane-surface $-1 -26.448382500961159 34.006344965287482 97.689832683745806 0.70710678939079041 0 0.70710677298230451 0.70710677298230451 0 -0.70710678939079041 forward_v I I I I #
loop $-1 $-1 $287 $77 #
coedge $-1 $196 $196 $197 $288 reversed $122 $-1 #
coedge $-1 $197 $197 $196 $288 forward $124 $-1 #
coedge $-1 $198 $198 $125 $199 forward $193 $-1 #
edge $-1 $289 0 $289 6.2831853071796004 $198 $290 forward 7 unknown #
face $-1 $291 $292 $30 $-1 $293 reversed single #
loop $-1 $-1 $294 $126 #
plane-surface $-1 -63.85204626606037 0 0 1 0 0 0 0 -1 forward_v I I I I #
coedge $-1 $295 $211 $296 $297 forward $127 $-1 #
coedge $-1 $298 $129 $295 $299 forward $81 $-1 #
coedge $-1 $129 $298 $300 $301 forward $81 $-1 #
coedge $-1 $214 $213 $129 $207 reversed $215 $-1 #
edge $-1 $302 -43.654089188887724 $303 43.654089188887724 $206 $304 forward 7 unknown #
coedge $-1 $131 $130 $305 $306 forward $51 $-1 #
coedge $-1 $307 $308 $130 $210 reversed $292 $-1 #
edge $-1 $217 -63.85204626606037 $309 63.85204626606037 $209 $310 forward 7 unknown #
coedge $-1 $203 $311 $131 $212 reversed $127 $-1 #
edge $-1 $312 -63.85204626606037 $216 63.85204626606037 $211 $313 forward 7 unknown #
coedge $-1 $206 $132 $311 $314 forward $215 $-1 #
coedge $-1 $132 $206 $307 $315 reversed $215 $-1 #
loop $-1 $-1 $213 $291 #
vertex $-1 $133 $316 #
vertex $-1 $133 $317 #
straight-curve $-1 63.85204626606037 0 10.819931191367891 0 1 0 I I #
face $-1 $318 $319 $31 $-1 $320 forward single #
loop $-1 $-1 $321 $134 #
plane-surface $-1 0 0 -10.819931191367891 0 0 1 1 0 0 forward_v I I I I #
coedge $-1 $322 $323 $227 $324 forward $135 $-1 #
coedge $-1 $325 $137 $321 $326 reversed $85 $-1 #
coedge $-1 $137 $325 $327 $328 reversed $85 $-1 #
coedge $-1 $323 $322 $137 $226 reversed $135 $-1 #
edge $-1 $329 -10.819931191367891 $330 10.819931191367891 $225 $331 forward 7 unknown #
coedge $-1 $139 $138 $222 $324 reversed $54 $-1 #
coedge $-1 $332 $333 $138 $229 forward $220 $-1 #
edge $-1 $334 24.30224618791004 $235 34.467282114736904 $228 $335 forward 7 unknown #
coedge $-1 $336 $337 $139 $231 forward $319 $-1 #
edge $-1 $236 -34.467282114736904 $338 -24.30224618791004 $230 $339 forward 7 unknown #
coedge $-1 $340 $140 $337 $341 reversed $234 $-1 #
coedge $-1 $140 $340 $332 $342 reversed $234 $-1 #
loop $-1 $-1 $340 $318 #
vertex $-1 $342 $343 #
vertex $-1 $141 $344 #
straight-curve $-1 -63.85204626606037 -43.154089188887724 0 0 0 1 I I #
face $-1 $-1 $345 $32 $-1 $346 reversed single #
loop $-1 $-1 $347 $142 #
plane-surface $-1 0 0 10.819931191367891 0 0 1 1 0 0 forward_v I I I I #
coedge $-1 $242 $145 $147 $248 reversed $89 $-1 #
coedge $-1 $145 $241 $348 $349 reversed $89 $-1 #
coedge $-1 $350 $148 $145 $244 forward $143 $-1 #
edge $-1 $251 -86.605728904090185 $351 -83.175199534015775 $243 $352 forward 7 unknown #
coedge $-1 $147 $146 $347 $353 reversed $57 $-1 #
coedge $-1 $354 $355 $146 $247 forward $345 $-1 #
edge $-1 $356 78.963104254140461 $250 83.814605359129132 $246 $357 forward 7 unknown #
edge $-1 $358 122.85259142713213 $251 127.7040925321208 $241 $359 forward 7 unknown #
coedge $-1 $148 $350 $354 $360 forward $143 $-1 #
vertex $-1 $247 $361 #
vertex $-1 $149 $362 #
straight-curve $-1 63.85204626606037 -17.003172482643745 7.3894018212934824 0 1 0 I I #
coedge $-1 $253 $253 $-1 $363 reversed $152 $-1 #
edge $-1 $364 0 $364 6.2831853071796004 $153 $365 forward 7 unknown #
vertex $-1 $156 $366 #
ellipse-curve $-1 62.136781620826049 -39.794991499447633 9.1046665063306911 0.70710678939079041 0 0.70710677298230451 0.17677669324557613 0 -0.1767766973476976 1 I I #
coedge $-1 $257 $257 $-1 $367 reversed $159 $-1 #
edge $-1 $368 0 $368 6.2831853071796004 $160 $369 forward 7 unknown #
vertex $-1 $163 $370 #
ellipse-curve $-1 62.136781620826049 -34.006344965287489 9.1046665063306911 0.70710678939079041 0 0.70710677298230451 0.17677669324557613 0 -0.1767766973476976 1 I I #
coedge $-1 $261 $261 $-1 $371 reversed $166 $-1 #
edge $-1 $372 0 $372 6.2831853071796004 $167 $373 forward 7 unknown #
vertex $-1 $170 $374 #
ellipse-curve $-1 62.136781620826049 -28.217698431127353 9.1046665063306911 0.70710678939079041 0 0.70710677298230451 0.17677669324557613 0 -0.1767766973476976 1 I I #
face $-1 $-1 $375 $36 $-1 $376 forward single #
loop $-1 $-1 $377 $171 #
plane-surface $-1 0 43.654089188887724 0 0 -1 0 0 0 -1 forward_v I I I I #
coedge $-1 $378 $174 $176 $274 forward $108 $-1 #
coedge $-1 $174 $378 $377 $379 reversed $108 $-1 #
coedge $-1 $380 $177 $174 $271 forward $172 $-1 #
edge $-1 $277 7.3554282590435065 $381 26.650916706243976 $270 $382 forward 7 unknown #
coedge $-1 $383 $384 $175 $273 forward $375 $-1 #
edge $-1 $385 28.495492794846164 $276 31.926022085314791 $272 $386 forward 7 unknown #
edge $-1 $277 -127.7040925321208 $385 -122.85259142713213 $176 $387 forward 7 unknown #
coedge $-1 $177 $380 $383 $388 reversed $172 $-1 #
vertex $-1 $388 $389 #
vertex $-1 $178 $390 #
straight-curve $-1 63.85204626606037 24.358600741687248 93.99513072538366 0 0 -1 I I #
coedge $-1 $279 $279 $-1 $391 reversed $181 $-1 #
edge $-1 $392 0 $392 6.2831853071796004 $182 $393 forward 7 unknown #
vertex $-1 $185 $394 #
ellipse-curve $-1 62.136781620826049 28.217698431127346 9.1046665063306911 0.70710678939079041 0 0.70710677298230451 0.17677669324557613 0 -0.1767766973476976 1 I I #
coedge $-1 $283 $283 $-1 $395 reversed $188 $-1 #
edge $-1 $396 0 $396 6.2831853071796004 $189 $397 forward 7 unknown #
vertex $-1 $192 $398 #
ellipse-curve $-1 62.136781620826049 34.006344965287482 9.1046665063306911 0.70710678939079041 0 0.70710677298230451 0.17677669324557613 0 -0.1767766973476976 1 I I #
coedge $-1 $287 $287 $-1 $399 reversed $195 $-1 #
edge $-1 $400 0 $400 6.2831853071796004 $196 $401 forward 7 unknown #
vertex $-1 $199 $402 #
ellipse-curve $-1 62.136781620826049 39.794991499447633 9.1046665063306911 0.70710678939079041 0 0.70710677298230451 0.17677669324557613 0 -0.1767766973476976 1 I I #
face $-1 $-1 $215 $30 $-1 $403 reversed single #
loop $-1 $-1 $307 $200 #
plane-surface $-1 0 43.654089188887724 0 0 -1 0 0 0 -1 forward_v I I I I #
coedge $-1 $404 $305 $308 $405 forward $201 $-1 #
coedge $-1 $311 $203 $204 $299 reversed $127 $-1 #
coedge $-1 $305 $404 $203 $297 reversed $201 $-1 #
edge $-1 $312 -10.819931191367891 $406 10.819931191367891 $296 $407 forward 7 unknown #
coedge $-1 $205 $204 $404 $408 forward $81 $-1 #
edge $-1 $303 -63.85204626606037 $406 63.85204626606037 $295 $409 forward 7 unknown #
coedge $-1 $308 $307 $205 $301 reversed $292 $-1 #
edge $-1 $410 -63.85204626606037 $302 63.85204626606037 $300 $411 forward 7 unknown #
vertex $-1 $207 $412 #
vertex $-1 $314 $413 #
straight-curve $-1 63.85204626606037 0 -10.819931191367891 0 -1 0 I I #
coedge $-1 $294 $296 $208 $306 reversed $201 $-1 #
edge $-1 $309 -43.654089188887724 $312 43.654089188887724 $305 $414 forward 7 unknown #
coedge $-1 $300 $209 $214 $315 forward $292 $-1 #
coedge $-1 $209 $300 $294 $405 reversed $292 $-1 #
vertex $-1 $210 $415 #
straight-curve $-1 0 43.654089188887724 10.819931191367891 -1 0 0 I I #
coedge $-1 $211 $295 $213 $314 reversed $127 $-1 #
vertex $-1 $306 $416 #
straight-curve $-1 0 -43.654089188887724 10.819931191367891 1 0 0 I I #
edge $-1 $216 -10.819931191367891 $303 10.819931191367891 $213 $417 forward 7 unknown #
edge $-1 $217 -10.819931191367891 $302 10.819931191367891 $214 $418 forward 7 unknown #
point $-1 63.85204626606037 -43.654089188887724 10.819931191367891 #
point $-1 63.85204626606037 43.654089188887724 10.819931191367891 #
face $-1 $-1 $234 $31 $-1 $419 reversed single #
loop $-1 $-1 $327 $219 #
plane-surface $-1 0 0 10.819931191367891 0 0 1 1 0 0 forward_v I I I I #
coedge $-1 $333 $332 $223 $326 forward $220 $-1 #
coedge $-1 $225 $222 $333 $420 reversed $135 $-1 #
coedge $-1 $222 $225 $336 $421 reversed $135 $-1 #
edge $-1 $338 -10.819931191367891 $334 10.819931191367891 $222 $422 forward 7 unknown #
coedge $-1 $224 $223 $340 $423 reversed $85 $-1 #
edge $-1 $424 -34.467282114736904 $330 -24.30224618791004 $321 $425 forward 7 unknown #
coedge $-1 $337 $336 $224 $328 forward $319 $-1 #
edge $-1 $329 24.30224618791004 $426 34.467282114736904 $327 $427 forward 7 unknown #
vertex $-1 $328 $428 #
vertex $-1 $326 $429 #
straight-curve $-1 -53.68701033923351 -38.851278575092181 0 0 0 -1 I I #
coedge $-1 $321 $228 $233 $342 forward $220 $-1 #
coedge $-1 $228 $321 $322 $420 forward $220 $-1 #
vertex $-1 $229 $430 #
straight-curve $-1 -29.38476415132347 -43.154089188887724 -10.819931191367891 -1 0 0 I I #
coedge $-1 $327 $230 $323 $421 forward $319 $-1 #
coedge $-1 $230 $327 $232 $341 forward $319 $-1 #
vertex $-1 $231 $431 #
straight-curve $-1 -29.38476415132347 -43.154089188887724 10.819931191367891 1 0 0 I I #
coedge $-1 $233 $232 $325 $423 forward $234 $-1 #
edge $-1 $426 38.851278575092181 $236 43.154089188887724 $232 $432 forward 7 unknown #
edge $-1 $235 -43.154089188887724 $424 -38.851278575092181 $233 $433 forward 7 unknown #
point $-1 -63.85204626606037 -43.154089188887724 -10.819931191367891 #
point $-1 -63.85204626606037 -43.154089188887724 10.819931191367891 #
loop $-1 $-1 $246 $238 #
plane-surface $-1 0 -43.654089188887724 0 0 1 0 0 0 1 forward_v I I I I #
coedge $-1 $434 $348 $245 $353 forward $239 $-1 #
coedge $-1 $347 $435 $242 $349 forward $239 $-1 #
edge $-1 $351 -31.926022085314791 $358 -28.495492794846164 $348 $436 forward 7 unknown #
coedge $-1 $249 $243 $435 $437 reversed $143 $-1 #
vertex $-1 $244 $438 #
straight-curve $-1 63.85204626606037 -24.358600741687255 93.99513072538366 0 0 1 I I #
edge $-1 $358 7.3554282590435101 $356 26.650916706243979 $347 $439 forward 7 unknown #
coedge $-1 $355 $246 $249 $360 reversed $345 $-1 #
coedge $-1 $246 $354 $434 $440 reversed $345 $-1 #
vertex $-1 $440 $441 #
straight-curve $-1 4.586171141781211 -43.654089188887724 66.655278320843394 0.70710677298230462 0 -0.70710678939079052 I I #
vertex $-1 $353 $442 #
straight-curve $-1 -26.448382500961159 -24.358600741687255 97.689832683745806 0.70710677298230451 0 -0.70710678939079041 I I #
edge $-1 $443 -10.819931191367891 $250 -7.389401821293478 $249 $444 forward 7 unknown #
point $-1 63.85204626606037 -43.654089188887724 7.389401821293478 #
point $-1 63.85204626606037 -24.358600741687255 7.3894018212934753 #
edge $-1 $445 1 $445 0 $253 $-1 forward 7 unknown #
vertex $-1 $254 $446 #
ellipse-curve $-1 61.429674831435264 -39.794991499447633 8.3975597333483911 0.70710678939079041 0 0.70710677298230451 0.17677669324557613 0 -0.1767766973476976 1 I I #
point $-1 62.313558314071635 -39.794991499447633 8.9278898089829983 #
edge $-1 $447 1 $447 0 $257 $-1 forward 7 unknown #
vertex $-1 $258 $448 #
ellipse-curve $-1 61.429674831435264 -34.006344965287489 8.3975597333483911 0.70710678939079041 0 0.70710677298230451 0.17677669324557613 0 -0.1767766973476976 1 I I #
point $-1 62.313558314071635 -34.006344965287489 8.9278898089829983 #
edge $-1 $449 1 $449 0 $261 $-1 forward 7 unknown #
vertex $-1 $262 $450 #
ellipse-curve $-1 61.429674831435264 -28.217698431127353 8.3975597333483911 0.70710678939079041 0 0.70710677298230451 0.17677669324557613 0 -0.1767766973476976 1 I I #
point $-1 62.313558314071635 -28.217698431127353 8.9278898089829983 #
loop $-1 $-1 $272 $265 #
plane-surface $-1 0 0 10.819931191367891 0 0 1 1 0 0 forward_v I I I I #
coedge $-1 $451 $452 $269 $379 forward $266 $-1 #
coedge $-1 $269 $268 $384 $453 reversed $108 $-1 #
edge $-1 $381 -83.814605359129132 $454 -78.963104254140461 $377 $455 forward 7 unknown #
coedge $-1 $275 $270 $452 $456 reversed $172 $-1 #
vertex $-1 $379 $457 #
straight-curve $-1 63.85204626606037 17.003172482643741 7.3894018212934824 0 1 0 I I #
coedge $-1 $458 $272 $275 $388 forward $375 $-1 #
coedge $-1 $272 $458 $378 $453 forward $375 $-1 #
vertex $-1 $273 $459 #
straight-curve $-1 31.926024180745578 24.358600741687248 10.819931191367886 1 0 0 I I #
straight-curve $-1 -26.448382500961159 24.358600741687248 97.689832683745806 -0.70710677298230451 0 0.70710678939079041 I I #
edge $-1 $276 24.358600741687248 $460 43.654089188887724 $275 $461 forward 7 unknown #
point $-1 63.85204626606037 24.358600741687248 10.819931191367891 #
point $-1 63.85204626606037 24.358600741687248 7.3894018212934753 #
edge $-1 $462 1 $462 0 $279 $-1 forward 7 unknown #
vertex $-1 $280 $463 #
ellipse-curve $-1 61.429674831435264 28.217698431127346 8.3975597333483911 0.70710678939079041 0 0.70710677298230451 0.17677669324557613 0 -0.1767766973476976 1 I I #
point $-1 62.313558314071635 28.217698431127346 8.9278898089829983 #
edge $-1 $464 1 $464 0 $283 $-1 forward 7 unknown #
vertex $-1 $284 $465 #
ellipse-curve $-1 61.429674831435264 34.006344965287482 8.3975597333483911 0.70710678939079041 0 0.70710677298230451 0.17677669324557613 0 -0.1767766973476976 1 I I #
point $-1 62.313558314071635 34.006344965287482 8.9278898089829983 #
edge $-1 $466 1 $466 0 $287 $-1 forward 7 unknown #
vertex $-1 $288 $467 #
ellipse-curve $-1 61.429674831435264 39.794991499447633 8.3975597333483911 0.70710678939079041 0 0.70710677298230451 0.17677669324557613 0 -0.1767766973476976 1 I I #
point $-1 62.313558314071635 39.794991499447633 8.9278898089829983 #
plane-surface $-1 63.85204626606037 0 0 -1 0 0 0 0 1 forward_v I I I I #
coedge $-1 $296 $294 $298 $408 reversed $201 $-1 #
edge $-1 $309 -10.819931191367891 $410 10.819931191367891 $308 $468 forward 7 unknown #
vertex $-1 $408 $469 #
straight-curve $-1 -63.85204626606037 -43.654089188887724 0 0 0 -1 I I #
edge $-1 $406 -43.654089188887724 $410 43.654089188887724 $404 $470 forward 7 unknown #
straight-curve $-1 0 -43.654089188887724 -10.819931191367891 -1 0 0 I I #
vertex $-1 $301 $471 #
straight-curve $-1 0 43.654089188887724 -10.819931191367891 1 0 0 I I #
point $-1 63.85204626606037 43.654089188887724 -10.819931191367891 #
point $-1 63.85204626606037 -43.654089188887724 -10.819931191367891 #
straight-curve $-1 -63.85204626606037 0 10.819931191367891 0 -1 0 I I #
point $-1 -63.85204626606037 43.654089188887724 10.819931191367891 #
point $-1 -63.85204626606037 -43.654089188887724 10.819931191367891 #
straight-curve $-1 63.85204626606037 -43.654089188887724 0 0 0 -1 I I #
straight-curve $-1 63.85204626606037 43.654089188887724 0 0 0 -1 I I #
plane-surface $-1 -63.85204626606037 0 0 1 0 0 0 0 -1 forward_v I I I I #
edge $-1 $330 18.349936634097205 $334 22.652747247892748 $333 $472 forward 7 unknown #
edge $-1 $338 -22.652747247892748 $329 -18.349936634097205 $336 $473 forward 7 unknown #
straight-curve $-1 -53.68701033923351 -43.154089188887724 0 0 0 -1 I I #
edge $-1 $426 -10.819931191367891 $424 10.819931191367891 $340 $474 forward 7 unknown #
vertex $-1 $423 $475 #
straight-curve $-1 -29.38476415132347 -38.851278575092181 -10.819931191367891 1 0 0 I I #
vertex $-1 $341 $476 #
straight-curve $-1 -29.38476415132347 -38.851278575092181 10.819931191367891 -1 0 0 I I #
point $-1 -53.68701033923351 -38.851278575092181 10.819931191367891 #
point $-1 -53.68701033923351 -38.851278575092181 -10.819931191367891 #
point $-1 -53.68701033923351 -43.154089188887724 -10.819931191367891 #
point $-1 -53.68701033923351 -43.154089188887724 10.819931191367891 #
straight-curve $-1 -63.85204626606037 0 10.819931191367891 0 -1 0 I I #
straight-curve $-1 -63.85204626606037 0 -10.819931191367891 0 1 0 I I #
coedge $-1 $435 $347 $355 $440 forward $239 $-1 #
coedge $-1 $348 $434 $350 $437 forward $239 $-1 #
straight-curve $-1 31.926024180745578 -24.358600741687255 10.819931191367886 -1 0 0 I I #
edge $-1 $443 -43.654089188887724 $351 -24.358600741687255 $350 $477 forward 7 unknown #
point $-1 63.85204626606037 -24.358600741687255 10.819931191367891 #
straight-curve $-1 60.421516975591736 -17.003172482643745 10.819931191367886 0 -1 0 I I #
edge $-1 $356 60.421516975591743 $443 63.85204626606037 $355 $478 forward 7 unknown #
point $-1 60.421516975591743 -43.654089188887724 10.819931191367886 #
point $-1 60.421516975591743 -24.358600741687255 10.819931191367886 #
vertex $-1 $437 $479 #
straight-curve $-1 63.85204626606037 -43.654089188887724 0 0 0 -1 I I #
vertex $-1 $363 $480 #
point $-1 61.606451524680843 -39.794991499447633 8.2207830360006948 #
vertex $-1 $367 $481 #
point $-1 61.606451524680843 -34.006344965287489 8.2207830360006948 #
vertex $-1 $371 $482 #
point $-1 61.606451524680843 -28.217698431127353 8.2207830360006948 #
coedge $-1 $452 $377 $458 $483 reversed $266 $-1 #
coedge $-1 $377 $451 $380 $456 forward $266 $-1 #
edge $-1 $454 -26.650916706243976 $385 -7.3554282590435065 $384 $484 forward 7 unknown #
vertex $-1 $379 $485 #
straight-curve $-1 4.586171141781211 43.654089188887724 66.655278320843394 -0.70710677298230462 0 0.70710678939079052 I I #
edge $-1 $460 -10.819931191367891 $381 -7.3894018212934753 $380 $486 forward 7 unknown #
point $-1 63.85204626606037 43.654089188887717 7.3894018212934753 #
coedge $-1 $384 $383 $451 $483 forward $375 $-1 #
point $-1 60.421516975591743 24.358600741687248 10.819931191367886 #
vertex $-1 $388 $487 #
straight-curve $-1 63.85204626606037 0 10.819931191367891 0 1 0 I I #
vertex $-1 $391 $488 #
point $-1 61.606451524680843 28.217698431127346 8.2207830360006948 #
vertex $-1 $395 $489 #
point $-1 61.606451524680843 34.006344965287482 8.2207830360006948 #
vertex $-1 $399 $490 #
point $-1 61.606451524680843 39.794991499447633 8.2207830360006948 #
straight-curve $-1 -63.85204626606037 43.654089188887724 0 0 0 -1 I I #
point $-1 -63.85204626606037 -43.654089188887724 -10.819931191367891 #
straight-curve $-1 -63.85204626606037 0 -10.819931191367891 0 1 0 I I #
point $-1 -63.85204626606037 43.654089188887724 -10.819931191367891 #
straight-curve $-1 -53.68701033923351 -20.501341940994976 -10.819931191367891 0 -1 0 I I #
straight-curve $-1 -53.68701033923351 -20.501341940994976 10.819931191367891 0 1 0 I I #
straight-curve $-1 -63.85204626606037 -38.851278575092181 0 0 0 -1 I I #
point $-1 -63.85204626606037 -38.851278575092181 -10.819931191367891 #
point $-1 -63.85204626606037 -38.851278575092181 10.819931191367891 #
straight-curve $-1 63.85204626606037 0 10.819931191367891 0 1 0 I I #
straight-curve $-1 0 -43.654089188887724 10.819931191367891 1 0 0 I I #
point $-1 63.85204626606037 -43.654089188887724 10.819931191367891 #
point $-1 61.252898134087573 -39.794991499447633 8.2207830401028161 #
point $-1 61.252898134087573 -34.006344965287489 8.2207830401028161 #
point $-1 61.252898134087573 -28.217698431127353 8.2207830401028161 #
edge $-1 $460 -63.85204626606037 $454 -60.421516975591743 $451 $491 forward 7 unknown #
straight-curve $-1 60.421516975591736 17.003172482643741 10.819931191367886 0 -1 0 I I #
point $-1 60.421516975591743 43.654089188887717 10.819931191367886 #
straight-curve $-1 63.85204626606037 43.654089188887724 0 0 0 -1 I I #
point $-1 63.85204626606037 43.654089188887724 10.819931191367891 #
point $-1 61.252898134087573 28.217698431127346 8.2207830401028161 #
point $-1 61.252898134087573 34.006344965287482 8.2207830401028161 #
point $-1 61.252898134087573 39.794991499447633 8.2207830401028161 #
straight-curve $-1 0 43.654089188887724 10.819931191367891 -1 0 0 I I #
End-of-ACIS-data 