500 0 18 0           
7 Unknown 11 ACIS 5.0 NT 24 Fri Mar 26 19:11:07 1999 
-1 9.9999999999999995e-007 1e-010 
body $-1 $18 $-1 $19 #
body $-1 $20 $-1 $21 #
body $-1 $22 $-1 $23 #
body $-1 $24 $-1 $25 #
body $-1 $26 $-1 $27 #
body $-1 $28 $-1 $29 #
body $-1 $30 $-1 $31 #
body $-1 $32 $-1 $33 #
body $-1 $34 $-1 $35 #
body $-1 $36 $-1 $37 #
body $-1 $38 $-1 $39 #
body $-1 $40 $-1 $41 #
body $-1 $42 $-1 $43 #
body $-1 $44 $-1 $45 #
body $-1 $46 $-1 $47 #
body $-1 $48 $-1 $49 #
body $-1 $50 $-1 $51 #
body $-1 $52 $-1 $53 #
lump $-1 $-1 $54 $0 #
transform $-1 1 0 0 0 1 0 0 0 1 71.481673635059664 47.289772643940729 9.7051769798488792 1 rotate no_reflect no_shear #
lump $-1 $-1 $55 $1 #
transform $-1 1 0 0 0 1 0 0 0 1 71.481673635059664 47.289772643940729 9.7051769798488792 1 rotate no_reflect no_shear #
lump $-1 $-1 $56 $2 #
transform $-1 1 0 0 0 1 0 0 0 1 71.481673635059664 47.289772643940729 9.7051769798488792 1 rotate no_reflect no_shear #
lump $-1 $-1 $57 $3 #
transform $-1 1 0 0 0 1 0 0 0 1 71.481673635059664 47.289772643940729 9.7051769798488792 1 rotate no_reflect no_shear #
lump $-1 $-1 $58 $4 #
transform $-1 1 0 0 0 1 0 0 0 1 71.481673635059664 47.289772643940729 9.7051769798488792 1 rotate no_reflect no_shear #
lump $-1 $-1 $59 $5 #
transform $-1 1 0 0 0 1 0 0 0 1 71.481673635059664 47.289772643940729 9.7051769798488792 1 rotate no_reflect no_shear #
lump $-1 $-1 $60 $6 #
transform $-1 1 0 0 0 1 0 0 0 1 71.481673635059664 47.289772643940729 9.7051769798488792 1 rotate no_reflect no_shear #
lump $-1 $-1 $61 $7 #
transform $-1 1 0 0 0 1 0 0 0 1 71.481673635059664 47.289772643940729 9.7051769798488792 1 rotate no_reflect no_shear #
lump $-1 $-1 $62 $8 #
transform $-1 1 0 0 0 1 0 0 0 1 71.481673635059664 47.289772643940729 9.7051769798488792 1 rotate no_reflect no_shear #
lump $-1 $-1 $63 $9 #
transform $-1 1 0 0 0 1 0 0 0 1 71.481673635059664 47.289772643940729 9.7051769798488792 1 rotate no_reflect no_shear #
lump $-1 $-1 $64 $10 #
transform $-1 1 0 0 0 1 0 0 0 1 71.481673635059664 47.289772643940729 9.7051769798488792 1 rotate no_reflect no_shear #
lump $-1 $-1 $65 $11 #
transform $-1 1 0 0 0 1 0 0 0 1 71.481673635059664 47.289772643940729 9.7051769798488792 1 rotate no_reflect no_shear #
lump $-1 $-1 $66 $12 #
transform $-1 1 0 0 0 1 0 0 0 1 71.481673635059664 47.289772643940729 9.7051769798488792 1 rotate no_reflect no_shear #
lump $-1 $-1 $67 $13 #
transform $-1 1 0 0 0 1 0 0 0 1 71.481673635059664 47.289772643940729 9.7051769798488792 1 rotate no_reflect no_shear #
lump $-1 $-1 $68 $14 #
transform $-1 1 0 0 0 1 0 0 0 1 71.481673635059664 47.289772643940729 9.7051769798488792 1 rotate no_reflect no_shear #
lump $-1 $-1 $69 $15 #
transform $-1 1 0 0 0 1 0 0 0 1 71.481673635059664 47.289772643940729 9.7051769798488792 1 rotate no_reflect no_shear #
lump $-1 $-1 $70 $16 #
transform $-1 1 0 0 0 1 0 0 0 1 71.481673635059664 47.289772643940729 9.7051769798488792 1 rotate no_reflect no_shear #
lump $-1 $-1 $71 $17 #
transform $-1 1 0 0 0 1 0 0 0 1 71.481673635059664 47.289772643940729 9.7051769798488792 1 rotate no_reflect no_shear #
shell $-1 $-1 $-1 $72 $-1 $18 #
shell $-1 $-1 $-1 $73 $-1 $20 #
shell $-1 $-1 $-1 $74 $-1 $22 #
shell $-1 $-1 $-1 $75 $-1 $24 #
shell $-1 $-1 $-1 $76 $-1 $26 #
shell $-1 $-1 $-1 $77 $-1 $28 #
shell $-1 $-1 $-1 $78 $-1 $30 #
shell $-1 $-1 $-1 $79 $-1 $32 #
shell $-1 $-1 $-1 $80 $-1 $34 #
shell $-1 $-1 $-1 $81 $-1 $36 #
shell $-1 $-1 $-1 $82 $-1 $38 #
shell $-1 $-1 $-1 $83 $-1 $40 #
shell $-1 $-1 $-1 $84 $-1 $42 #
shell $-1 $-1 $-1 $85 $-1 $44 #
shell $-1 $-1 $-1 $86 $-1 $46 #
shell $-1 $-1 $-1 $87 $-1 $48 #
shell $-1 $-1 $-1 $88 $-1 $50 #
shell $-1 $-1 $-1 $89 $-1 $52 #
face $-1 $90 $91 $54 $-1 $92 forward single #
face $-1 $93 $94 $55 $-1 $95 forward single #
face $-1 $96 $97 $56 $-1 $98 reversed single #
face $-1 $99 $100 $57 $-1 $101 forward single #
face $-1 $102 $103 $58 $-1 $104 forward single #
face $-1 $105 $106 $59 $-1 $107 forward single #
face $-1 $108 $109 $60 $-1 $110 reversed single #
face $-1 $111 $112 $61 $-1 $113 forward single #
face $-1 $114 $115 $62 $-1 $116 forward single #
face $-1 $117 $118 $63 $-1 $119 forward single #
face $-1 $120 $121 $64 $-1 $122 reversed single #
face $-1 $123 $124 $65 $-1 $125 forward single #
face $-1 $126 $127 $66 $-1 $128 forward single #
face $-1 $129 $130 $67 $-1 $131 forward single #
face $-1 $132 $133 $68 $-1 $134 reversed single #
face $-1 $135 $136 $69 $-1 $137 forward single #
face $-1 $138 $139 $70 $-1 $140 forward single #
face $-1 $141 $142 $71 $-1 $143 forward single #
face $-1 $144 $145 $54 $-1 $146 reversed single #
loop $-1 $-1 $147 $72 #
plane-surface $-1 0 0 9.7051769798488792 0 0 1 1 0 0 forward_v I I I I #
face $-1 $148 $149 $55 $-1 $150 reversed single #
loop $-1 $-1 $151 $73 #
plane-surface $-1 -66.811859511494518 0 -4.3524165985132406 0 0 1 1 0 0 forward_v I I I I #
face $-1 $152 $153 $56 $-1 $154 reversed single #
loop $-1 $-1 $155 $74 #
plane-surface $-1 -44.78293083535867 -127.23386293282329 124.4868040621509 1 0 0 0 0.55919291073839883 -0.82903756765294845 forward_v I I I I #
face $-1 $156 $157 $57 $-1 $158 forward single #
loop $-1 $159 $160 $75 #
cone-surface $-1 -41.57356779472336 -43.409939959980051 6.1935389692724172 0 0.55919291073839883 -0.82903756765294845 1.5 0 0 1 I I 0 1 1.5 forward I I I I #
face $-1 $161 $162 $58 $-1 $163 forward single #
loop $-1 $164 $165 $76 #
cone-surface $-1 -36.759523233770395 -43.409939959980051 6.1935389692724172 0 0.55919291073839883 -0.82903756765294845 1.5 0 0 1 I I 0 1 1.5 forward I I I I #
face $-1 $166 $167 $59 $-1 $168 forward single #
loop $-1 $169 $170 $77 #
cone-surface $-1 -31.94547867281743 -43.409939959980051 6.1935389692724172 0 0.55919291073839883 -0.82903756765294845 1.5 0 0 1 I I 0 1 1.5 forward I I I I #
face $-1 $171 $172 $60 $-1 $173 reversed single #
loop $-1 $-1 $174 $78 #
plane-surface $-1 -11.377001079611421 -127.23386293282329 124.4868040621509 1 0 0 0 0.55919291073839883 -0.82903756765294845 forward_v I I I I #
face $-1 $175 $176 $61 $-1 $177 forward single #
loop $-1 $178 $179 $79 #
cone-surface $-1 -8.1676380389761007 -43.409939959980051 6.1935389692724172 0 0.55919291073839883 -0.82903756765294845 1.5 0 0 1 I I 0 1 1.5 forward I I I I #
face $-1 $180 $181 $62 $-1 $182 forward single #
loop $-1 $183 $184 $80 #
cone-surface $-1 -3.3535934780231429 -43.409939959980051 6.1935389692724172 0 0.55919291073839883 -0.82903756765294845 1.5 0 0 1 I I 0 1 1.5 forward I I I I #
face $-1 $185 $186 $63 $-1 $187 forward single #
loop $-1 $188 $189 $81 #
cone-surface $-1 1.4604510829298221 -43.409939959980051 6.1935389692724172 0 0.55919291073839883 -0.82903756765294845 1.5 0 0 1 I I 0 1 1.5 forward I I I I #
face $-1 $190 $191 $64 $-1 $192 reversed single #
loop $-1 $-1 $193 $82 #
plane-surface $-1 22.028928676135831 -127.23386293282329 124.4868040621509 1 0 0 0 0.55919291073839883 -0.82903756765294845 forward_v I I I I #
face $-1 $194 $195 $65 $-1 $196 forward single #
loop $-1 $197 $198 $83 #
cone-surface $-1 25.238291716771158 -43.409939959980051 6.1935389692724172 0 0.55919291073839883 -0.82903756765294845 1.5 0 0 1 I I 0 1 1.5 forward I I I I #
face $-1 $199 $200 $66 $-1 $201 forward single #
loop $-1 $202 $203 $84 #
cone-surface $-1 30.052336277724109 -43.409939959980051 6.1935389692724172 0 0.55919291073839883 -0.82903756765294845 1.5 0 0 1 I I 0 1 1.5 forward I I I I #
face $-1 $204 $205 $67 $-1 $206 forward single #
loop $-1 $207 $208 $85 #
cone-surface $-1 34.866380838677074 -43.409939959980051 6.1935389692724172 0 0.55919291073839883 -0.82903756765294845 1.5 0 0 1 I I 0 1 1.5 forward I I I I #
face $-1 $209 $210 $68 $-1 $211 reversed single #
loop $-1 $-1 $212 $86 #
plane-surface $-1 55.434858431883086 -127.23386293282329 124.4868040621509 1 0 0 0 0.55919291073839883 -0.82903756765294845 forward_v I I I I #
face $-1 $213 $214 $69 $-1 $215 forward single #
loop $-1 $216 $217 $87 #
cone-surface $-1 58.644221472518424 -43.409939959980051 6.1935389692724172 0 0.55919291073839883 -0.82903756765294845 1.5 0 0 1 I I 0 1 1.5 forward I I I I #
face $-1 $218 $219 $70 $-1 $220 forward single #
loop $-1 $221 $222 $88 #
cone-surface $-1 63.458266033471361 -43.409939959980051 6.1935389692724172 0 0.55919291073839883 -0.82903756765294845 1.5 0 0 1 I I 0 1 1.5 forward I I I I #
face $-1 $223 $224 $71 $-1 $225 forward single #
loop $-1 $226 $227 $89 #
cone-surface $-1 68.272310594424326 -43.409939959980051 6.1935389692724172 0 0.55919291073839883 -0.82903756765294845 1.5 0 0 1 I I 0 1 1.5 forward I I I I #
face $-1 $228 $229 $54 $-1 $230 reversed single #
loop $-1 $-1 $231 $90 #
plane-surface $-1 0 0 -9.7051769798488792 0 0 1 1 0 0 forward_v I I I I #
coedge $-1 $232 $233 $234 $235 forward $91 $-1 #
face $-1 $236 $237 $55 $-1 $238 reversed single #
loop $-1 $-1 $239 $93 #
plane-surface $-1 -62.142045387929372 0 -7.0287967891810599 -1 0 0 0 0 1 forward_v I I I I #
coedge $-1 $240 $241 $242 $243 forward $94 $-1 #
face $-1 $244 $245 $56 $-1 $246 reversed single #
loop $-1 $-1 $247 $96 #
plane-surface $-1 -36.759523233770395 -47.289772643940736 5.9648183778073758 0 -0.55919291073839883 0.82903756765294845 1 0 0 forward_v I I I I #
coedge $-1 $248 $249 $250 $251 reversed $97 $-1 #
face $-1 $-1 $252 $57 $-1 $253 forward single #
loop $-1 $254 $255 $99 #
cone-surface $-1 -41.57356779472336 -41.883367376349369 3.9303020839769864 0 0.55919291073839883 -0.82903756765294845 0.75 0 0 1 I I -0.70710678118654757 0.70710678118654757 0.75 forward I I I I #
loop $-1 $-1 $256 $75 #
coedge $-1 $160 $160 $257 $258 reversed $100 $-1 #
face $-1 $-1 $259 $58 $-1 $260 forward single #
loop $-1 $261 $262 $102 #
cone-surface $-1 -36.759523233770395 -41.883367376349369 3.9303020839769864 0 0.55919291073839883 -0.82903756765294845 0.75 0 0 1 I I -0.70710678118654757 0.70710678118654757 0.75 forward I I I I #
loop $-1 $-1 $263 $76 #
coedge $-1 $165 $165 $264 $265 reversed $103 $-1 #
face $-1 $-1 $266 $59 $-1 $267 forward single #
loop $-1 $268 $269 $105 #
cone-surface $-1 -31.94547867281743 -41.883367376349369 3.9303020839769864 0 0.55919291073839883 -0.82903756765294845 0.75 0 0 1 I I -0.70710678118654757 0.70710678118654757 0.75 forward I I I I #
loop $-1 $-1 $270 $77 #
coedge $-1 $170 $170 $271 $272 reversed $106 $-1 #
face $-1 $273 $274 $60 $-1 $275 reversed single #
loop $-1 $-1 $276 $108 #
plane-surface $-1 -3.3535934780231429 -47.289772643940736 5.9648183778073758 0 -0.55919291073839883 0.82903756765294845 1 0 0 forward_v I I I I #
coedge $-1 $277 $278 $279 $280 reversed $109 $-1 #
face $-1 $-1 $281 $61 $-1 $282 forward single #
loop $-1 $283 $284 $111 #
cone-surface $-1 -8.1676380389761007 -41.883367376349369 3.9303020839769864 0 0.55919291073839883 -0.82903756765294845 0.75 0 0 1 I I -0.70710678118654757 0.70710678118654757 0.75 forward I I I I #
loop $-1 $-1 $285 $79 #
coedge $-1 $179 $179 $286 $287 reversed $112 $-1 #
face $-1 $-1 $288 $62 $-1 $289 forward single #
loop $-1 $290 $291 $114 #
cone-surface $-1 -3.3535934780231429 -41.883367376349369 3.9303020839769864 0 0.55919291073839883 -0.82903756765294845 0.75 0 0 1 I I -0.70710678118654757 0.70710678118654757 0.75 forward I I I I #
loop $-1 $-1 $292 $80 #
coedge $-1 $184 $184 $293 $294 reversed $115 $-1 #
face $-1 $-1 $295 $63 $-1 $296 forward single #
loop $-1 $297 $298 $117 #
cone-surface $-1 1.4604510829298221 -41.883367376349369 3.9303020839769864 0 0.55919291073839883 -0.82903756765294845 0.75 0 0 1 I I -0.70710678118654757 0.70710678118654757 0.75 forward I I I I #
loop $-1 $-1 $299 $81 #
coedge $-1 $189 $189 $300 $301 reversed $118 $-1 #
face $-1 $302 $303 $64 $-1 $304 reversed single #
loop $-1 $-1 $305 $120 #
plane-surface $-1 30.052336277724109 -47.289772643940736 5.9648183778073758 0 -0.55919291073839883 0.82903756765294845 1 0 0 forward_v I I I I #
coedge $-1 $306 $307 $308 $309 reversed $121 $-1 #
face $-1 $-1 $310 $65 $-1 $311 forward single #
loop $-1 $312 $313 $123 #
cone-surface $-1 25.238291716771158 -41.883367376349369 3.9303020839769864 0 0.55919291073839883 -0.82903756765294845 0.75 0 0 1 I I -0.70710678118654757 0.70710678118654757 0.75 forward I I I I #
loop $-1 $-1 $314 $83 #
coedge $-1 $198 $198 $315 $316 reversed $124 $-1 #
face $-1 $-1 $317 $66 $-1 $318 forward single #
loop $-1 $319 $320 $126 #
cone-surface $-1 30.052336277724109 -41.883367376349369 3.9303020839769864 0 0.55919291073839883 -0.82903756765294845 0.75 0 0 1 I I -0.70710678118654757 0.70710678118654757 0.75 forward I I I I #
loop $-1 $-1 $321 $84 #
coedge $-1 $203 $203 $322 $323 reversed $127 $-1 #
face $-1 $-1 $324 $67 $-1 $325 forward single #
loop $-1 $326 $327 $129 #
cone-surface $-1 34.866380838677074 -41.883367376349369 3.9303020839769864 0 0.55919291073839883 -0.82903756765294845 0.75 0 0 1 I I -0.70710678118654757 0.70710678118654757 0.75 forward I I I I #
loop $-1 $-1 $328 $85 #
coedge $-1 $208 $208 $329 $330 reversed $130 $-1 #
face $-1 $331 $332 $68 $-1 $333 reversed single #
loop $-1 $-1 $334 $132 #
plane-surface $-1 63.458266033471361 -47.289772643940736 5.9648183778073758 0 -0.55919291073839883 0.82903756765294845 1 0 0 forward_v I I I I #
coedge $-1 $335 $336 $337 $338 reversed $133 $-1 #
face $-1 $-1 $339 $69 $-1 $340 forward single #
loop $-1 $341 $342 $135 #
cone-surface $-1 58.644221472518424 -41.883367376349369 3.9303020839769864 0 0.55919291073839883 -0.82903756765294845 0.75 0 0 1 I I -0.70710678118654757 0.70710678118654757 0.75 forward I I I I #
loop $-1 $-1 $343 $87 #
coedge $-1 $217 $217 $344 $345 reversed $136 $-1 #
face $-1 $-1 $346 $70 $-1 $347 forward single #
loop $-1 $348 $349 $138 #
cone-surface $-1 63.458266033471361 -41.883367376349369 3.9303020839769864 0 0.55919291073839883 -0.82903756765294845 0.75 0 0 1 I I -0.70710678118654757 0.70710678118654757 0.75 forward I I I I #
loop $-1 $-1 $350 $88 #
coedge $-1 $222 $222 $351 $352 reversed $139 $-1 #
face $-1 $-1 $353 $71 $-1 $354 forward single #
loop $-1 $355 $356 $141 #
cone-surface $-1 68.272310594424326 -41.883367376349369 3.9303020839769864 0 0.55919291073839883 -0.82903756765294845 0.75 0 0 1 I I -0.70710678118654757 0.70710678118654757 0.75 forward I I I I #
loop $-1 $-1 $357 $89 #
coedge $-1 $227 $227 $358 $359 reversed $142 $-1 #
face $-1 $360 $361 $54 $-1 $362 reversed single #
loop $-1 $-1 $363 $144 #
plane-surface $-1 0 -47.289772643940729 0 0 1 0 0 0 1 forward_v I I I I #
coedge $-1 $364 $365 $366 $367 forward $145 $-1 #
coedge $-1 $368 $147 $369 $370 forward $91 $-1 #
coedge $-1 $147 $368 $371 $372 forward $91 $-1 #
coedge $-1 $373 $374 $147 $235 reversed $375 $-1 #
edge $-1 $376 -47.289772643940729 $377 47.289772643940729 $234 $378 forward 7 unknown #
face $-1 $379 $380 $55 $-1 $381 reversed single #
loop $-1 $-1 $382 $148 #
plane-surface $-1 0 0 -9.7051769798488792 0 0 1 1 0 0 forward_v I I I I #
coedge $-1 $383 $242 $384 $385 reversed $149 $-1 #
coedge $-1 $386 $151 $387 $388 reversed $94 $-1 #
coedge $-1 $151 $386 $389 $390 reversed $94 $-1 #
coedge $-1 $239 $391 $151 $243 reversed $149 $-1 #
edge $-1 $392 -47.289772643940729 $393 47.289772643940729 $242 $394 forward 7 unknown #
face $-1 $395 $396 $56 $-1 $397 forward single #
loop $-1 $-1 $398 $152 #
plane-surface $-1 -28.736115632182116 -127.23386293282329 124.4868040621509 -1 0 0 0 -0.55919291073839883 0.82903756765294845 forward_v I I I I #
coedge $-1 $399 $400 $401 $402 reversed $153 $-1 #
coedge $-1 $249 $155 $403 $404 reversed $97 $-1 #
coedge $-1 $155 $248 $399 $405 reversed $97 $-1 #
coedge $-1 $401 $406 $155 $251 forward $407 $-1 #
edge $-1 $408 52.538225051226568 $409 56.278583653268065 $250 $410 forward 7 unknown #
loop $-1 $-1 $257 $156 #
plane-surface $-1 -36.759523233770395 -47.289772643940736 5.9648183778073758 0 -0.55919291073839883 0.82903756765294845 1 0 0 forward_v I I I I #
loop $-1 $-1 $411 $99 #
coedge $-1 $255 $255 $256 $412 reversed $157 $-1 #
coedge $-1 $256 $256 $255 $412 forward $159 $-1 #
coedge $-1 $257 $257 $160 $258 forward $252 $-1 #
edge $-1 $413 -2.8491492016110993e-016 $413 6.2831853071796004 $257 $414 forward 7 unknown #
loop $-1 $-1 $264 $161 #
plane-surface $-1 -36.759523233770395 -47.289772643940736 5.9648183778073758 0 -0.55919291073839883 0.82903756765294845 1 0 0 forward_v I I I I #
loop $-1 $-1 $415 $102 #
coedge $-1 $262 $262 $263 $416 reversed $162 $-1 #
coedge $-1 $263 $263 $262 $416 forward $164 $-1 #
coedge $-1 $264 $264 $165 $265 forward $259 $-1 #
edge $-1 $417 -2.8491492016110993e-016 $417 6.2831853071796004 $264 $418 forward 7 unknown #
loop $-1 $-1 $271 $166 #
plane-surface $-1 -36.759523233770395 -47.289772643940736 5.9648183778073758 0 -0.55919291073839883 0.82903756765294845 1 0 0 forward_v I I I I #
loop $-1 $-1 $419 $105 #
coedge $-1 $269 $269 $270 $420 reversed $167 $-1 #
coedge $-1 $270 $270 $269 $420 forward $169 $-1 #
coedge $-1 $271 $271 $170 $272 forward $266 $-1 #
edge $-1 $421 -2.8491492016110993e-016 $421 6.2831853071796004 $271 $422 forward 7 unknown #
face $-1 $423 $424 $60 $-1 $425 reversed single #
loop $-1 $-1 $426 $171 #
plane-surface $-1 4.6698141235651356 -127.23386293282329 124.4868040621509 -1 0 0 0 -0.55919291073839883 0.82903756765294845 forward_v I I I I #
coedge $-1 $427 $428 $429 $430 reversed $172 $-1 #
coedge $-1 $278 $174 $431 $432 reversed $109 $-1 #
coedge $-1 $174 $277 $427 $433 reversed $109 $-1 #
coedge $-1 $429 $434 $174 $280 forward $424 $-1 #
edge $-1 $435 52.538225051226568 $436 56.278583653268065 $279 $437 forward 7 unknown #
loop $-1 $-1 $286 $175 #
plane-surface $-1 -3.3535934780231429 -47.289772643940736 5.9648183778073758 0 -0.55919291073839883 0.82903756765294845 1 0 0 forward_v I I I I #
loop $-1 $-1 $438 $111 #
coedge $-1 $284 $284 $285 $439 reversed $176 $-1 #
coedge $-1 $285 $285 $284 $439 forward $178 $-1 #
coedge $-1 $286 $286 $179 $287 forward $281 $-1 #
edge $-1 $440 -2.8491492016110993e-016 $440 6.2831853071796004 $286 $441 forward 7 unknown #
loop $-1 $-1 $293 $180 #
plane-surface $-1 -3.3535934780231429 -47.289772643940736 5.9648183778073758 0 -0.55919291073839883 0.82903756765294845 1 0 0 forward_v I I I I #
loop $-1 $-1 $442 $114 #
coedge $-1 $291 $291 $292 $443 reversed $181 $-1 #
coedge $-1 $292 $292 $291 $443 forward $183 $-1 #
coedge $-1 $293 $293 $184 $294 forward $288 $-1 #
edge $-1 $444 -2.8491492016110993e-016 $444 6.2831853071796004 $293 $445 forward 7 unknown #
loop $-1 $-1 $300 $185 #
plane-surface $-1 -3.3535934780231429 -47.289772643940736 5.9648183778073758 0 -0.55919291073839883 0.82903756765294845 1 0 0 forward_v I I I I #
loop $-1 $-1 $446 $117 #
coedge $-1 $298 $298 $299 $447 reversed $186 $-1 #
coedge $-1 $299 $299 $298 $447 forward $188 $-1 #
coedge $-1 $300 $300 $189 $301 forward $295 $-1 #
edge $-1 $448 -2.8491492016110993e-016 $448 6.2831853071796004 $300 $449 forward 7 unknown #
face $-1 $450 $451 $64 $-1 $452 reversed single #
loop $-1 $-1 $453 $190 #
plane-surface $-1 38.075743879312384 -127.23386293282329 124.4868040621509 -1 0 0 0 -0.55919291073839883 0.82903756765294845 forward_v I I I I #
coedge $-1 $454 $455 $456 $457 reversed $191 $-1 #
coedge $-1 $307 $193 $458 $459 reversed $121 $-1 #
coedge $-1 $193 $306 $454 $460 reversed $121 $-1 #
coedge $-1 $456 $461 $193 $309 forward $451 $-1 #
edge $-1 $462 52.538225051226568 $463 56.278583653268065 $308 $464 forward 7 unknown #
loop $-1 $-1 $315 $194 #
plane-surface $-1 30.052336277724109 -47.289772643940736 5.9648183778073758 0 -0.55919291073839883 0.82903756765294845 1 0 0 forward_v I I I I #
loop $-1 $-1 $465 $123 #
coedge $-1 $313 $313 $314 $466 reversed $195 $-1 #
coedge $-1 $314 $314 $313 $466 forward $197 $-1 #
coedge $-1 $315 $315 $198 $316 forward $310 $-1 #
edge $-1 $467 -2.8491492016110993e-016 $467 6.2831853071796004 $315 $468 forward 7 unknown #
loop $-1 $-1 $322 $199 #
plane-surface $-1 30.052336277724109 -47.289772643940736 5.9648183778073758 0 -0.55919291073839883 0.82903756765294845 1 0 0 forward_v I I I I #
loop $-1 $-1 $469 $126 #
coedge $-1 $320 $320 $321 $470 reversed $200 $-1 #
coedge $-1 $321 $321 $320 $470 forward $202 $-1 #
coedge $-1 $322 $322 $203 $323 forward $317 $-1 #
edge $-1 $471 -2.8491492016110993e-016 $471 6.2831853071796004 $322 $472 forward 7 unknown #
loop $-1 $-1 $329 $204 #
plane-surface $-1 30.052336277724109 -47.289772643940736 5.9648183778073758 0 -0.55919291073839883 0.82903756765294845 1 0 0 forward_v I I I I #
loop $-1 $-1 $473 $129 #
coedge $-1 $327 $327 $328 $474 reversed $205 $-1 #
coedge $-1 $328 $328 $327 $474 forward $207 $-1 #
coedge $-1 $329 $329 $208 $330 forward $324 $-1 #
edge $-1 $475 -2.8491492016110993e-016 $475 6.2831853071796004 $329 $476 forward 7 unknown #
face $-1 $477 $478 $68 $-1 $479 forward single #
loop $-1 $-1 $337 $209 #
plane-surface $-1 0 -47.289772643940729 0 0 1 0 0 0 1 forward_v I I I I #
coedge $-1 $480 $481 $482 $483 reversed $210 $-1 #
coedge $-1 $336 $212 $484 $485 reversed $133 $-1 #
coedge $-1 $212 $335 $480 $486 reversed $133 $-1 #
coedge $-1 $482 $487 $212 $338 forward $332 $-1 #
edge $-1 $488 52.538225051226568 $489 56.278583653268065 $337 $490 forward 7 unknown #
loop $-1 $-1 $344 $213 #
plane-surface $-1 63.458266033471361 -47.289772643940736 5.9648183778073758 0 -0.55919291073839883 0.82903756765294845 1 0 0 forward_v I I I I #
loop $-1 $-1 $491 $135 #
coedge $-1 $342 $342 $343 $492 reversed $214 $-1 #
coedge $-1 $343 $343 $342 $492 forward $216 $-1 #
coedge $-1 $344 $344 $217 $345 forward $339 $-1 #
edge $-1 $493 -2.8491492016110993e-016 $493 6.2831853071796004 $344 $494 forward 7 unknown #
loop $-1 $-1 $351 $218 #
plane-surface $-1 63.458266033471361 -47.289772643940736 5.9648183778073758 0 -0.55919291073839883 0.82903756765294845 1 0 0 forward_v I I I I #
loop $-1 $-1 $495 $138 #
coedge $-1 $349 $349 $350 $496 reversed $219 $-1 #
coedge $-1 $350 $350 $349 $496 forward $221 $-1 #
coedge $-1 $351 $351 $222 $352 forward $346 $-1 #
edge $-1 $497 -2.8491492016110993e-016 $497 6.2831853071796004 $351 $498 forward 7 unknown #
loop $-1 $-1 $358 $223 #
plane-surface $-1 63.458266033471361 -47.289772643940736 5.9648183778073758 0 -0.55919291073839883 0.82903756765294845 1 0 0 forward_v I I I I #
loop $-1 $-1 $499 $141 #
coedge $-1 $356 $356 $357 $500 reversed $224 $-1 #
coedge $-1 $357 $357 $356 $500 forward $226 $-1 #
coedge $-1 $358 $358 $227 $359 forward $353 $-1 #
edge $-1 $501 -2.8491492016110993e-016 $501 6.2831853071796004 $358 $502 forward 7 unknown #
face $-1 $503 $504 $54 $-1 $505 reversed single #
loop $-1 $-1 $506 $228 #
plane-surface $-1 -71.481673635059664 0 0 1 0 0 0 0 -1 forward_v I I I I #
coedge $-1 $507 $371 $508 $509 forward $229 $-1 #
coedge $-1 $510 $231 $507 $511 forward $145 $-1 #
coedge $-1 $231 $510 $512 $513 forward $145 $-1 #
coedge $-1 $374 $373 $231 $367 reversed $375 $-1 #
edge $-1 $514 -47.289772643940729 $515 47.289772643940729 $366 $516 forward 7 unknown #
coedge $-1 $233 $232 $517 $518 forward $91 $-1 #
coedge $-1 $519 $520 $232 $370 reversed $504 $-1 #
edge $-1 $377 -71.481673635059664 $521 71.481673635059664 $369 $522 forward 7 unknown #
coedge $-1 $363 $523 $233 $372 reversed $229 $-1 #
edge $-1 $524 -71.481673635059664 $376 71.481673635059664 $371 $525 forward 7 unknown #
coedge $-1 $366 $234 $523 $526 forward $375 $-1 #
coedge $-1 $234 $366 $519 $527 reversed $375 $-1 #
loop $-1 $-1 $373 $503 #
vertex $-1 $235 $528 #
vertex $-1 $235 $529 #
straight-curve $-1 71.481673635059664 0 9.7051769798488792 0 1 0 I I #
face $-1 $530 $531 $55 $-1 $532 reversed single #
loop $-1 $-1 $384 $236 #
plane-surface $-1 0 -47.289772643940729 0 0 1 0 0 0 1 forward_v I I I I #
coedge $-1 $533 $534 $383 $535 forward $237 $-1 #
coedge $-1 $391 $239 $382 $535 reversed $149 $-1 #
coedge $-1 $389 $536 $239 $385 forward $380 $-1 #
edge $-1 $537 -6.1907785852583492 $392 -0.83801820392271065 $384 $538 forward 7 unknown #
coedge $-1 $241 $240 $539 $540 reversed $94 $-1 #
coedge $-1 $541 $542 $240 $388 forward $543 $-1 #
edge $-1 $544 -38.075743879312405 $393 -28.736115632182113 $387 $545 forward 7 unknown #
coedge $-1 $546 $384 $241 $390 forward $380 $-1 #
edge $-1 $392 28.736115632182113 $547 38.075743879312405 $389 $548 forward 7 unknown #
coedge $-1 $242 $383 $541 $549 reversed $149 $-1 #
vertex $-1 $390 $550 #
vertex $-1 $388 $551 #
straight-curve $-1 -62.142045387929372 0 -4.3524165985132406 0 1 0 I I #
face $-1 $-1 $407 $56 $-1 $552 reversed single #
loop $-1 $-1 $553 $244 #
plane-surface $-1 0 0 9.7051769798488792 0 0 1 1 0 0 forward_v I I I I #
coedge $-1 $554 $555 $556 $557 reversed $245 $-1 #
coedge $-1 $558 $247 $249 $405 forward $153 $-1 #
coedge $-1 $247 $558 $554 $559 forward $153 $-1 #
coedge $-1 $556 $250 $247 $402 forward $407 $-1 #
edge $-1 $409 -26.403169218473472 $560 -10.356354015296919 $401 $561 forward 7 unknown #
coedge $-1 $562 $563 $248 $404 forward $396 $-1 #
edge $-1 $564 -21.87246838923852 $408 -16.327158822470913 $403 $565 forward 7 unknown #
edge $-1 $409 8.3739815925159718e-015 $564 6.6888519689966444 $249 $566 forward 7 unknown #
coedge $-1 $250 $556 $562 $567 reversed $407 $-1 #
loop $-1 $-1 $556 $395 #
vertex $-1 $567 $568 #
vertex $-1 $251 $569 #
straight-curve $-1 -44.78293083535867 -47.289772643940729 62.243402031075448 0 0 -1 I I #
coedge $-1 $411 $411 $-1 $570 reversed $254 $-1 #
edge $-1 $571 0 $571 6.2831853071796004 $255 $572 forward 7 unknown #
vertex $-1 $258 $573 #
ellipse-curve $-1 -41.57356779472336 -44.51711786055693 7.8349976788281275 0 -0.55919291073839883 0.82903756765294845 1.5 0 0 1 I I #
coedge $-1 $415 $415 $-1 $574 reversed $261 $-1 #
edge $-1 $575 0 $575 6.2831853071796004 $262 $576 forward 7 unknown #
vertex $-1 $265 $577 #
ellipse-curve $-1 -36.759523233770395 -44.51711786055693 7.8349976788281275 0 -0.55919291073839883 0.82903756765294845 1.5 0 0 1 I I #
coedge $-1 $419 $419 $-1 $578 reversed $268 $-1 #
edge $-1 $579 0 $579 6.2831853071796004 $269 $580 forward 7 unknown #
vertex $-1 $272 $581 #
ellipse-curve $-1 -31.94547867281743 -44.51711786055693 7.8349976788281275 0 -0.55919291073839883 0.82903756765294845 1.5 0 0 1 I I #
face $-1 $-1 $582 $60 $-1 $583 forward single #
loop $-1 $-1 $279 $273 #
plane-surface $-1 0 -47.289772643940729 0 0 1 0 0 0 1 forward_v I I I I #
coedge $-1 $584 $585 $586 $587 reversed $274 $-1 #
coedge $-1 $588 $276 $278 $433 forward $172 $-1 #
coedge $-1 $276 $588 $584 $589 forward $172 $-1 #
coedge $-1 $586 $279 $276 $430 forward $424 $-1 #
edge $-1 $436 -9.7002043405998499 $590 6.346610862576707 $429 $591 forward 7 unknown #
coedge $-1 $592 $593 $277 $432 forward $582 $-1 #
edge $-1 $594 -21.87246838923852 $435 -16.327158822470913 $431 $595 forward 7 unknown #
edge $-1 $436 8.3739815925159718e-015 $594 6.6888519689966444 $278 $596 forward 7 unknown #
coedge $-1 $279 $586 $592 $597 reversed $424 $-1 #
vertex $-1 $597 $598 #
vertex $-1 $280 $599 #
straight-curve $-1 -11.377001079611421 -47.289772643940729 62.243402031075448 0 0 -1 I I #
coedge $-1 $438 $438 $-1 $600 reversed $283 $-1 #
edge $-1 $601 0 $601 6.2831853071796004 $284 $602 forward 7 unknown #
vertex $-1 $287 $603 #
ellipse-curve $-1 -8.1676380389761007 -44.51711786055693 7.8349976788281275 0 -0.55919291073839883 0.82903756765294845 1.5 0 0 1 I I #
coedge $-1 $442 $442 $-1 $604 reversed $290 $-1 #
edge $-1 $605 0 $605 6.2831853071796004 $291 $606 forward 7 unknown #
vertex $-1 $294 $607 #
ellipse-curve $-1 -3.3535934780231429 -44.51711786055693 7.8349976788281275 0 -0.55919291073839883 0.82903756765294845 1.5 0 0 1 I I #
coedge $-1 $446 $446 $-1 $608 reversed $297 $-1 #
edge $-1 $609 0 $609 6.2831853071796004 $298 $610 forward 7 unknown #
vertex $-1 $301 $611 #
ellipse-curve $-1 1.4604510829298221 -44.51711786055693 7.8349976788281275 0 -0.55919291073839883 0.82903756765294845 1.5 0 0 1 I I #
face $-1 $-1 $612 $64 $-1 $613 forward single #
loop $-1 $-1 $308 $302 #
plane-surface $-1 0 -47.289772643940729 0 0 1 0 0 0 1 forward_v I I I I #
coedge $-1 $614 $615 $616 $617 reversed $303 $-1 #
coedge $-1 $618 $305 $307 $460 forward $191 $-1 #
coedge $-1 $305 $618 $614 $619 forward $191 $-1 #
coedge $-1 $616 $308 $305 $457 forward $451 $-1 #
edge $-1 $463 7.002760537273776 $620 23.049575740450329 $456 $621 forward 7 unknown #
coedge $-1 $622 $623 $306 $459 forward $612 $-1 #
edge $-1 $624 -21.87246838923852 $462 -16.327158822470913 $458 $625 forward 7 unknown #
edge $-1 $463 8.3739815925159718e-015 $624 6.6888519689966444 $307 $626 forward 7 unknown #
coedge $-1 $308 $616 $622 $627 reversed $451 $-1 #
vertex $-1 $627 $628 #
vertex $-1 $309 $629 #
straight-curve $-1 22.028928676135831 -47.289772643940729 62.243402031075448 0 0 -1 I I #
coedge $-1 $465 $465 $-1 $630 reversed $312 $-1 #
edge $-1 $631 0 $631 6.2831853071796004 $313 $632 forward 7 unknown #
vertex $-1 $316 $633 #
ellipse-curve $-1 25.238291716771158 -44.51711786055693 7.8349976788281275 0 -0.55919291073839883 0.82903756765294845 1.5 0 0 1 I I #
coedge $-1 $469 $469 $-1 $634 reversed $319 $-1 #
edge $-1 $635 0 $635 6.2831853071796004 $320 $636 forward 7 unknown #
vertex $-1 $323 $637 #
ellipse-curve $-1 30.052336277724109 -44.51711786055693 7.8349976788281275 0 -0.55919291073839883 0.82903756765294845 1.5 0 0 1 I I #
coedge $-1 $473 $473 $-1 $638 reversed $326 $-1 #
edge $-1 $639 0 $639 6.2831853071796004 $327 $640 forward 7 unknown #
vertex $-1 $330 $641 #
ellipse-curve $-1 34.866380838677074 -44.51711786055693 7.8349976788281275 0 -0.55919291073839883 0.82903756765294845 1.5 0 0 1 I I #
face $-1 $-1 $642 $68 $-1 $643 reversed single #
loop $-1 $-1 $484 $331 #
plane-surface $-1 0 0 9.7051769798488792 0 0 1 1 0 0 forward_v I I I I #
coedge $-1 $644 $334 $336 $486 forward $210 $-1 #
coedge $-1 $334 $644 $645 $646 reversed $210 $-1 #
coedge $-1 $647 $337 $334 $483 forward $332 $-1 #
edge $-1 $489 23.705725415147405 $648 39.752540618323955 $482 $649 forward 7 unknown #
coedge $-1 $650 $651 $335 $485 forward $478 $-1 #
edge $-1 $652 -21.87246838923852 $488 -16.327158822470913 $484 $653 forward 7 unknown #
edge $-1 $489 8.3739815925159718e-015 $652 6.6888519689966444 $336 $654 forward 7 unknown #
coedge $-1 $337 $647 $650 $655 reversed $332 $-1 #
vertex $-1 $655 $656 #
vertex $-1 $338 $657 #
straight-curve $-1 55.434858431883086 -47.289772643940729 62.243402031075448 0 0 -1 I I #
coedge $-1 $491 $491 $-1 $658 reversed $341 $-1 #
edge $-1 $659 0 $659 6.2831853071796004 $342 $660 forward 7 unknown #
vertex $-1 $345 $661 #
ellipse-curve $-1 58.644221472518424 -44.51711786055693 7.8349976788281275 0 -0.55919291073839883 0.82903756765294845 1.5 0 0 1 I I #
coedge $-1 $495 $495 $-1 $662 reversed $348 $-1 #
edge $-1 $663 0 $663 6.2831853071796004 $349 $664 forward 7 unknown #
vertex $-1 $352 $665 #
ellipse-curve $-1 63.458266033471361 -44.51711786055693 7.8349976788281275 0 -0.55919291073839883 0.82903756765294845 1.5 0 0 1 I I #
coedge $-1 $499 $499 $-1 $666 reversed $355 $-1 #
edge $-1 $667 0 $667 6.2831853071796004 $356 $668 forward 7 unknown #
vertex $-1 $359 $669 #
ellipse-curve $-1 68.272310594424326 -44.51711786055693 7.8349976788281275 0 -0.55919291073839883 0.82903756765294845 1.5 0 0 1 I I #
face $-1 $-1 $375 $54 $-1 $670 reversed single #
loop $-1 $-1 $519 $360 #
plane-surface $-1 0 47.289772643940729 0 0 -1 0 0 0 -1 forward_v I I I I #
coedge $-1 $671 $517 $520 $672 forward $361 $-1 #
coedge $-1 $523 $363 $364 $511 reversed $229 $-1 #
coedge $-1 $517 $671 $363 $509 reversed $361 $-1 #
edge $-1 $524 -9.7051769798488792 $673 9.7051769798488792 $508 $674 forward 7 unknown #
coedge $-1 $365 $364 $671 $675 forward $145 $-1 #
edge $-1 $515 -71.481673635059664 $673 71.481673635059664 $507 $676 forward 7 unknown #
coedge $-1 $520 $519 $365 $513 reversed $504 $-1 #
edge $-1 $677 -71.481673635059664 $514 71.481673635059664 $512 $678 forward 7 unknown #
vertex $-1 $367 $679 #
vertex $-1 $526 $680 #
straight-curve $-1 71.481673635059664 0 -9.7051769798488792 0 -1 0 I I #
coedge $-1 $506 $508 $368 $518 reversed $361 $-1 #
edge $-1 $521 -47.289772643940729 $524 47.289772643940729 $517 $681 forward 7 unknown #
coedge $-1 $512 $369 $374 $527 forward $504 $-1 #
coedge $-1 $369 $512 $506 $672 reversed $504 $-1 #
vertex $-1 $370 $682 #
straight-curve $-1 0 47.289772643940729 9.7051769798488792 -1 0 0 I I #
coedge $-1 $371 $507 $373 $526 reversed $229 $-1 #
vertex $-1 $518 $683 #
straight-curve $-1 0 -47.289772643940729 9.7051769798488792 1 0 0 I I #
edge $-1 $376 -9.7051769798488792 $515 9.7051769798488792 $373 $684 forward 7 unknown #
edge $-1 $377 -9.7051769798488792 $514 9.7051769798488792 $374 $685 forward 7 unknown #
point $-1 71.481673635059664 -47.289772643940729 9.7051769798488792 #
point $-1 71.481673635059664 47.289772643940729 9.7051769798488792 #
face $-1 $-1 $543 $55 $-1 $686 reversed single #
loop $-1 $-1 $539 $379 #
plane-surface $-1 -71.481673635059664 0 0 1 0 0 0 0 -1 forward_v I I I I #
coedge $-1 $687 $382 $536 $688 forward $237 $-1 #
coedge $-1 $382 $687 $689 $690 forward $237 $-1 #
edge $-1 $691 -47.289772643940729 $537 47.289772643940729 $382 $692 forward 7 unknown #
coedge $-1 $384 $546 $533 $688 reversed $380 $-1 #
vertex $-1 $688 $693 #
straight-curve $-1 -62.142045387929372 -47.289772643940729 -3.5143983945905299 0 0 1 I I #
coedge $-1 $694 $695 $386 $540 forward $531 $-1 #
edge $-1 $547 -47.289772643940729 $544 47.289772643940729 $539 $696 forward 7 unknown #
coedge $-1 $689 $387 $391 $549 forward $543 $-1 #
coedge $-1 $387 $689 $694 $697 reversed $543 $-1 #
loop $-1 $-1 $541 $530 #
vertex $-1 $697 $698 #
straight-curve $-1 -33.405929755747259 47.289772643940729 -4.3524165985132406 1 0 0 I I #
coedge $-1 $536 $389 $695 $699 forward $380 $-1 #
vertex $-1 $699 $700 #
straight-curve $-1 -33.405929755747259 -47.289772643940729 -4.3524165985132406 -1 0 0 I I #
edge $-1 $393 0.83801820392271065 $691 6.1907785852583492 $541 $701 forward 7 unknown #
point $-1 -62.142045387929372 -47.289772643940729 -4.3524165985132406 #
point $-1 -62.142045387929372 47.289772643940729 -4.3524165985132406 #
plane-surface $-1 0 -47.289772643940729 0 0 1 0 0 0 1 forward_v I I I I #
coedge $-1 $563 $562 $555 $702 forward $396 $-1 #
coedge $-1 $555 $398 $400 $559 reversed $245 $-1 #
coedge $-1 $398 $554 $553 $702 reversed $245 $-1 #
coedge $-1 $406 $401 $398 $557 forward $407 $-1 #
edge $-1 $560 -56.278583653268065 $703 -52.538225051226568 $556 $704 forward 7 unknown #
coedge $-1 $400 $399 $563 $705 reversed $153 $-1 #
edge $-1 $706 -6.6888519689966444 $560 -8.3739815925159718e-015 $554 $707 forward 7 unknown #
vertex $-1 $402 $708 #
straight-curve $-1 -18.379761616885197 -47.289772643940729 5.9648183778073847 1 0 0 I I #
coedge $-1 $553 $403 $406 $567 forward $396 $-1 #
coedge $-1 $403 $553 $558 $705 forward $396 $-1 #
vertex $-1 $404 $709 #
straight-curve $-1 -44.78293083535867 -63.616931466411643 9.7051769798488792 0 -1 0 I I #
straight-curve $-1 -44.78293083535867 -47.289772643940736 5.9648183778073758 0 0.82903756765294845 0.55919291073839883 I I #
edge $-1 $408 -44.78293083535867 $703 -28.736115632182116 $406 $710 forward 7 unknown #
point $-1 -44.78293083535867 -47.289772643940729 9.7051769798488792 #
point $-1 -44.78293083535867 -47.289772643940729 5.9648183778073802 #
edge $-1 $711 1 $711 0 $411 $-1 forward 7 unknown #
vertex $-1 $412 $712 #
ellipse-curve $-1 -41.57356779472336 -42.302762059403172 4.5520802597166981 0 -0.55919291073839883 0.82903756765294845 1.5 0 0 1 I I #
point $-1 -40.07356779472336 -44.517117860556937 7.8349976788281372 #
edge $-1 $713 1 $713 0 $415 $-1 forward 7 unknown #
vertex $-1 $416 $714 #
ellipse-curve $-1 -36.759523233770395 -42.302762059403172 4.5520802597166981 0 -0.55919291073839883 0.82903756765294845 1.5 0 0 1 I I #
point $-1 -35.259523233770395 -44.517117860556937 7.8349976788281372 #
edge $-1 $715 1 $715 0 $419 $-1 forward 7 unknown #
vertex $-1 $420 $716 #
ellipse-curve $-1 -31.94547867281743 -42.302762059403172 4.5520802597166981 0 -0.55919291073839883 0.82903756765294845 1.5 0 0 1 I I #
point $-1 -30.44547867281743 -44.517117860556937 7.8349976788281372 #
loop $-1 $-1 $431 $423 #
plane-surface $-1 0 0 9.7051769798488792 0 0 1 1 0 0 forward_v I I I I #
coedge $-1 $585 $426 $428 $589 reversed $274 $-1 #
coedge $-1 $426 $584 $717 $718 reversed $274 $-1 #
coedge $-1 $434 $429 $426 $587 forward $424 $-1 #
edge $-1 $590 -56.278583653268065 $719 -52.538225051226568 $586 $720 forward 7 unknown #
coedge $-1 $428 $427 $593 $721 reversed $172 $-1 #
edge $-1 $722 -6.6888519689966444 $590 -8.3739815925159718e-015 $584 $723 forward 7 unknown #
vertex $-1 $430 $724 #
straight-curve $-1 -1.6767967390115714 -47.289772643940729 5.9648183778073847 1 0 0 I I #
coedge $-1 $717 $431 $434 $597 forward $582 $-1 #
coedge $-1 $431 $717 $588 $721 forward $582 $-1 #
vertex $-1 $432 $725 #
straight-curve $-1 -11.377001079611421 -63.616931466411643 9.7051769798488792 0 -1 0 I I #
straight-curve $-1 -11.377001079611421 -47.289772643940736 5.9648183778073758 0 0.82903756765294845 0.55919291073839883 I I #
edge $-1 $435 -11.377001079611421 $719 4.6698141235651356 $434 $726 forward 7 unknown #
point $-1 -11.377001079611421 -47.289772643940729 9.7051769798488792 #
point $-1 -11.377001079611421 -47.289772643940729 5.9648183778073802 #
edge $-1 $727 1 $727 0 $438 $-1 forward 7 unknown #
vertex $-1 $439 $728 #
ellipse-curve $-1 -8.1676380389761007 -42.302762059403172 4.5520802597166981 0 -0.55919291073839883 0.82903756765294845 1.5 0 0 1 I I #
point $-1 -6.6676380389761007 -44.517117860556937 7.8349976788281372 #
edge $-1 $729 1 $729 0 $442 $-1 forward 7 unknown #
vertex $-1 $443 $730 #
ellipse-curve $-1 -3.3535934780231429 -42.302762059403172 4.5520802597166981 0 -0.55919291073839883 0.82903756765294845 1.5 0 0 1 I I #
point $-1 -1.8535934780231429 -44.517117860556937 7.8349976788281372 #
edge $-1 $731 1 $731 0 $446 $-1 forward 7 unknown #
vertex $-1 $447 $732 #
ellipse-curve $-1 1.4604510829298221 -42.302762059403172 4.5520802597166981 0 -0.55919291073839883 0.82903756765294845 1.5 0 0 1 I I #
point $-1 2.9604510829298221 -44.517117860556937 7.8349976788281372 #
loop $-1 $-1 $458 $450 #
plane-surface $-1 0 0 9.7051769798488792 0 0 1 1 0 0 forward_v I I I I #
coedge $-1 $615 $453 $455 $619 reversed $303 $-1 #
coedge $-1 $453 $614 $733 $734 reversed $303 $-1 #
coedge $-1 $461 $456 $453 $617 forward $451 $-1 #
edge $-1 $620 -56.278583653268065 $735 -52.538225051226568 $616 $736 forward 7 unknown #
coedge $-1 $455 $454 $623 $737 reversed $191 $-1 #
edge $-1 $738 -6.6888519689966444 $620 -8.3739815925159718e-015 $614 $739 forward 7 unknown #
vertex $-1 $457 $740 #
straight-curve $-1 15.026168138862054 -47.289772643940729 5.9648183778073847 1 0 0 I I #
coedge $-1 $733 $458 $461 $627 forward $612 $-1 #
coedge $-1 $458 $733 $618 $737 forward $612 $-1 #
vertex $-1 $459 $741 #
straight-curve $-1 22.028928676135831 -63.616931466411643 9.7051769798488792 0 -1 0 I I #
straight-curve $-1 22.028928676135831 -47.289772643940736 5.9648183778073758 0 0.82903756765294845 0.55919291073839883 I I #
edge $-1 $462 22.028928676135831 $735 38.075743879312384 $461 $742 forward 7 unknown #
point $-1 22.028928676135831 -47.289772643940729 9.7051769798488792 #
point $-1 22.028928676135831 -47.289772643940729 5.9648183778073802 #
edge $-1 $743 1 $743 0 $465 $-1 forward 7 unknown #
vertex $-1 $466 $744 #
ellipse-curve $-1 25.238291716771158 -42.302762059403172 4.5520802597166981 0 -0.55919291073839883 0.82903756765294845 1.5 0 0 1 I I #
point $-1 26.738291716771158 -44.517117860556937 7.8349976788281372 #
edge $-1 $745 1 $745 0 $469 $-1 forward 7 unknown #
vertex $-1 $470 $746 #
ellipse-curve $-1 30.052336277724109 -42.302762059403172 4.5520802597166981 0 -0.55919291073839883 0.82903756765294845 1.5 0 0 1 I I #
point $-1 31.552336277724109 -44.517117860556937 7.8349976788281372 #
edge $-1 $747 1 $747 0 $473 $-1 forward 7 unknown #
vertex $-1 $474 $748 #
ellipse-curve $-1 34.866380838677074 -42.302762059403172 4.5520802597166981 0 -0.55919291073839883 0.82903756765294845 1.5 0 0 1 I I #
point $-1 36.366380838677074 -44.517117860556937 7.8349976788281372 #
loop $-1 $-1 $645 $477 #
plane-surface $-1 71.481673635059664 0 0 -1 0 0 0 0 1 forward_v I I I I #
coedge $-1 $481 $480 $651 $749 reversed $210 $-1 #
coedge $-1 $750 $751 $481 $646 forward $642 $-1 #
edge $-1 $648 -17.93475696844078 $752 -11.245904999444141 $645 $753 forward 7 unknown #
coedge $-1 $487 $482 $751 $754 reversed $332 $-1 #
vertex $-1 $483 $755 #
straight-curve $-1 31.72913301673568 -47.289772643940729 5.9648183778073847 1 0 0 I I #
coedge $-1 $756 $484 $487 $655 forward $478 $-1 #
coedge $-1 $484 $756 $644 $749 forward $478 $-1 #
vertex $-1 $485 $757 #
straight-curve $-1 55.434858431883086 -63.616931466411643 9.7051769798488792 0 -1 0 I I #
straight-curve $-1 55.434858431883086 -47.289772643940736 5.9648183778073758 0 0.82903756765294845 0.55919291073839883 I I #
edge $-1 $488 55.434858431883086 $758 71.481673635059664 $487 $759 forward 7 unknown #
point $-1 55.434858431883086 -47.289772643940729 9.7051769798488792 #
point $-1 55.434858431883086 -47.289772643940729 5.9648183778073802 #
edge $-1 $760 1 $760 0 $491 $-1 forward 7 unknown #
vertex $-1 $492 $761 #
ellipse-curve $-1 58.644221472518424 -42.302762059403172 4.5520802597166981 0 -0.55919291073839883 0.82903756765294845 1.5 0 0 1 I I #
point $-1 60.144221472518424 -44.517117860556937 7.8349976788281372 #
edge $-1 $762 1 $762 0 $495 $-1 forward 7 unknown #
vertex $-1 $496 $763 #
ellipse-curve $-1 63.458266033471361 -42.302762059403172 4.5520802597166981 0 -0.55919291073839883 0.82903756765294845 1.5 0 0 1 I I #
point $-1 64.958266033471361 -44.517117860556937 7.8349976788281372 #
edge $-1 $764 1 $764 0 $499 $-1 forward 7 unknown #
vertex $-1 $500 $765 #
ellipse-curve $-1 68.272310594424326 -42.302762059403172 4.5520802597166981 0 -0.55919291073839883 0.82903756765294845 1.5 0 0 1 I I #
point $-1 69.772310594424326 -44.517117860556937 7.8349976788281372 #
plane-surface $-1 71.481673635059664 0 0 -1 0 0 0 0 1 forward_v I I I I #
coedge $-1 $508 $506 $510 $675 reversed $361 $-1 #
edge $-1 $521 -9.7051769798488792 $677 9.7051769798488792 $520 $766 forward 7 unknown #
vertex $-1 $675 $767 #
straight-curve $-1 -71.481673635059664 -47.289772643940729 0 0 0 -1 I I #
edge $-1 $673 -47.289772643940729 $677 47.289772643940729 $671 $768 forward 7 unknown #
straight-curve $-1 0 -47.289772643940729 -9.7051769798488792 -1 0 0 I I #
vertex $-1 $513 $769 #
straight-curve $-1 0 47.289772643940729 -9.7051769798488792 1 0 0 I I #
point $-1 71.481673635059664 47.289772643940729 -9.7051769798488792 #
point $-1 71.481673635059664 -47.289772643940729 -9.7051769798488792 #
straight-curve $-1 -71.481673635059664 0 9.7051769798488792 0 -1 0 I I #
point $-1 -71.481673635059664 47.289772643940729 9.7051769798488792 #
point $-1 -71.481673635059664 -47.289772643940729 9.7051769798488792 #
straight-curve $-1 71.481673635059664 -47.289772643940729 0 0 0 -1 I I #
straight-curve $-1 71.481673635059664 47.289772643940729 0 0 0 -1 I I #
plane-surface $-1 0 47.289772643940729 0 0 -1 0 0 0 -1 forward_v I I I I #
coedge $-1 $534 $533 $770 $771 forward $237 $-1 #
edge $-1 $537 62.142045387929372 $772 71.481673635059664 $536 $773 forward 7 unknown #
coedge $-1 $542 $541 $534 $690 reversed $543 $-1 #
edge $-1 $774 -71.481673635059664 $691 -62.142045387929372 $689 $775 forward 7 unknown #
vertex $-1 $549 $776 #
straight-curve $-1 -62.142045387929372 0 -9.7051769798488792 0 -1 0 I I #
point $-1 -62.142045387929372 -47.289772643940729 -9.7051769798488792 #
coedge $-1 $770 $539 $542 $697 forward $531 $-1 #
coedge $-1 $539 $770 $546 $699 reversed $531 $-1 #
straight-curve $-1 -71.481673635059664 0 -4.3524165985132406 0 1 0 I I #
edge $-1 $544 4.3524165985132406 $774 9.7051769798488792 $542 $777 forward 7 unknown #
point $-1 -71.481673635059664 47.289772643940729 -4.3524165985132406 #
edge $-1 $547 4.3524165985132406 $772 9.7051769798488792 $695 $778 forward 7 unknown #
point $-1 -71.481673635059664 -47.289772643940729 -4.3524165985132406 #
straight-curve $-1 -62.142045387929372 47.289772643940729 -3.5143983945905299 0 0 -1 I I #
edge $-1 $703 16.327158822470913 $706 21.87246838923852 $553 $779 forward 7 unknown #
vertex $-1 $557 $780 #
straight-curve $-1 -28.736115632182116 -47.289772643940729 62.243402031075448 0 0 1 I I #
edge $-1 $706 10.356354015296919 $564 26.403169218473472 $563 $781 forward 7 unknown #
vertex $-1 $705 $782 #
straight-curve $-1 -28.736115632182116 -47.289772643940736 5.9648183778073758 0 -0.82903756765294845 -0.55919291073839883 I I #
point $-1 -28.736115632182116 -47.289772643940729 5.9648183778073802 #
point $-1 -44.78293083535867 -41.744463077173123 9.7051769798488792 #
straight-curve $-1 0 -47.289772643940729 9.7051769798488792 1 0 0 I I #
vertex $-1 $570 $783 #
point $-1 -40.07356779472336 -42.302762059403172 4.5520802597166981 #
vertex $-1 $574 $784 #
point $-1 -35.259523233770395 -42.302762059403172 4.5520802597166981 #
vertex $-1 $578 $785 #
point $-1 -30.44547867281743 -42.302762059403172 4.5520802597166981 #
coedge $-1 $593 $592 $585 $718 forward $582 $-1 #
edge $-1 $719 16.327158822470913 $722 21.87246838923852 $717 $786 forward 7 unknown #
vertex $-1 $718 $787 #
straight-curve $-1 4.6698141235651356 -47.289772643940729 62.243402031075448 0 0 1 I I #
edge $-1 $722 -6.346610862576707 $594 9.7002043405998499 $593 $788 forward 7 unknown #
vertex $-1 $721 $789 #
straight-curve $-1 4.6698141235651356 -47.289772643940736 5.9648183778073758 0 -0.82903756765294845 -0.55919291073839883 I I #
point $-1 4.6698141235651356 -47.289772643940729 5.9648183778073802 #
point $-1 -11.377001079611421 -41.744463077173123 9.7051769798488792 #
straight-curve $-1 0 -47.289772643940729 9.7051769798488792 1 0 0 I I #
vertex $-1 $600 $790 #
point $-1 -6.6676380389761007 -42.302762059403172 4.5520802597166981 #
vertex $-1 $604 $791 #
point $-1 -1.8535934780231429 -42.302762059403172 4.5520802597166981 #
vertex $-1 $608 $792 #
point $-1 2.9604510829298221 -42.302762059403172 4.5520802597166981 #
coedge $-1 $623 $622 $615 $734 forward $612 $-1 #
edge $-1 $735 16.327158822470913 $738 21.87246838923852 $733 $793 forward 7 unknown #
vertex $-1 $734 $794 #
straight-curve $-1 38.075743879312384 -47.289772643940729 62.243402031075448 0 0 1 I I #
edge $-1 $738 -23.049575740450329 $624 -7.002760537273776 $623 $795 forward 7 unknown #
vertex $-1 $737 $796 #
straight-curve $-1 38.075743879312384 -47.289772643940736 5.9648183778073758 0 -0.82903756765294845 -0.55919291073839883 I I #
point $-1 38.075743879312384 -47.289772643940729 5.9648183778073802 #
point $-1 22.028928676135831 -41.744463077173123 9.7051769798488792 #
straight-curve $-1 0 -47.289772643940729 9.7051769798488792 1 0 0 I I #
vertex $-1 $630 $797 #
point $-1 26.738291716771158 -42.302762059403172 4.5520802597166981 #
vertex $-1 $634 $798 #
point $-1 31.552336277724109 -42.302762059403172 4.5520802597166981 #
vertex $-1 $638 $799 #
point $-1 36.366380838677074 -42.302762059403172 4.5520802597166981 #
edge $-1 $752 -39.752540618323955 $652 -23.705725415147405 $651 $800 forward 7 unknown #
coedge $-1 $751 $645 $756 $801 reversed $642 $-1 #
coedge $-1 $645 $750 $647 $754 forward $642 $-1 #
vertex $-1 $646 $802 #
straight-curve $-1 71.481673635059664 -32.421185350377819 15.99380733037556 0 0.82903756765294845 0.55919291073839883 I I #
edge $-1 $758 -9.7051769798488792 $648 -5.9648183778073802 $751 $803 forward 7 unknown #
point $-1 71.481673635059636 -47.289772643940729 5.9648183778073802 #
coedge $-1 $651 $650 $750 $801 forward $478 $-1 #
point $-1 55.434858431883086 -41.744463077173123 9.7051769798488792 #
vertex $-1 $801 $804 #
straight-curve $-1 0 -47.289772643940729 9.7051769798488792 1 0 0 I I #
vertex $-1 $658 $805 #
point $-1 60.144221472518424 -42.302762059403172 4.5520802597166981 #
vertex $-1 $662 $806 #
point $-1 64.958266033471361 -42.302762059403172 4.5520802597166981 #
vertex $-1 $666 $807 #
point $-1 69.772310594424326 -42.302762059403172 4.5520802597166981 #
straight-curve $-1 -71.481673635059664 47.289772643940729 0 0 0 -1 I I #
point $-1 -71.481673635059664 -47.289772643940729 -9.7051769798488792 #
straight-curve $-1 -71.481673635059664 0 -9.7051769798488792 0 1 0 I I #
point $-1 -71.481673635059664 47.289772643940729 -9.7051769798488792 #
coedge $-1 $695 $694 $687 $771 reversed $531 $-1 #
edge $-1 $772 -47.289772643940729 $774 47.289772643940729 $770 $808 forward 7 unknown #
vertex $-1 $771 $809 #
straight-curve $-1 0 -47.289772643940729 -9.7051769798488792 -1 0 0 I I #
vertex $-1 $690 $810 #
straight-curve $-1 0 47.289772643940729 -9.7051769798488792 1 0 0 I I #
point $-1 -62.142045387929372 47.289772643940729 -9.7051769798488792 #
straight-curve $-1 -71.481673635059664 47.289772643940729 0 0 0 -1 I I #
straight-curve $-1 -71.481673635059664 -47.289772643940729 0 0 0 -1 I I #
straight-curve $-1 -28.736115632182116 -63.616931466411643 9.7051769798488792 0 1 0 I I #
point $-1 -28.736115632182116 -47.289772643940729 9.7051769798488792 #
straight-curve $-1 -18.379761616885197 -41.744463077173123 9.7051769798488792 -1 0 0 I I #
point $-1 -28.736115632182116 -41.744463077173123 9.7051769798488792 #
point $-1 -41.57356779472336 -41.463972693295567 3.3085239082372748 #
point $-1 -36.759523233770395 -41.463972693295567 3.3085239082372748 #
point $-1 -31.94547867281743 -41.463972693295567 3.3085239082372748 #
straight-curve $-1 4.6698141235651356 -63.616931466411643 9.7051769798488792 0 1 0 I I #
point $-1 4.6698141235651356 -47.289772643940729 9.7051769798488792 #
straight-curve $-1 -1.6767967390115714 -41.744463077173123 9.7051769798488792 -1 0 0 I I #
point $-1 4.6698141235651356 -41.744463077173123 9.7051769798488792 #
point $-1 -8.1676380389761007 -41.463972693295567 3.3085239082372748 #
point $-1 -3.3535934780231429 -41.463972693295567 3.3085239082372748 #
point $-1 1.4604510829298221 -41.463972693295567 3.3085239082372748 #
straight-curve $-1 38.075743879312384 -63.616931466411643 9.7051769798488792 0 1 0 I I #
point $-1 38.075743879312384 -47.289772643940729 9.7051769798488792 #
straight-curve $-1 15.026168138862054 -41.744463077173123 9.7051769798488792 -1 0 0 I I #
point $-1 38.075743879312384 -41.744463077173123 9.7051769798488792 #
point $-1 25.238291716771158 -41.463972693295567 3.3085239082372748 #
point $-1 30.052336277724109 -41.463972693295567 3.3085239082372748 #
point $-1 34.866380838677074 -41.463972693295567 3.3085239082372748 #
straight-curve $-1 31.72913301673568 -41.744463077173123 9.7051769798488792 -1 0 0 I I #
edge $-1 $758 -47.289772643940729 $752 -41.744463077173123 $750 $811 forward 7 unknown #
point $-1 71.481673635059636 -41.744463077173123 9.7051769798488792 #
straight-curve $-1 71.481673635059664 -47.289772643940729 0 0 0 -1 I I #
point $-1 71.481673635059664 -47.289772643940729 9.7051769798488792 #
point $-1 58.644221472518424 -41.463972693295567 3.3085239082372748 #
point $-1 63.458266033471361 -41.463972693295567 3.3085239082372748 #
point $-1 68.272310594424326 -41.463972693295567 3.3085239082372748 #
straight-curve $-1 -71.481673635059664 0 -9.7051769798488792 0 1 0 I I #
point $-1 -71.481673635059664 -47.289772643940729 -9.7051769798488792 #
point $-1 -71.481673635059664 47.289772643940729 -9.7051769798488792 #
straight-curve $-1 71.481673635059664 0 9.7051769798488792 0 1 0 I I #
End-of-ACIS-data 