500 0 6 0           
7 Unknown 11 ACIS 5.0 NT 24 Fri Mar 26 17:54:34 1999 
-1 9.9999999999999995e-007 1e-010 
body $-1 $6 $-1 $7 #
body $-1 $8 $-1 $9 #
body $-1 $10 $-1 $11 #
body $-1 $12 $-1 $13 #
body $-1 $14 $-1 $15 #
body $-1 $16 $-1 $17 #
lump $-1 $-1 $18 $0 #
transform $-1 1 0 0 0 1 0 0 0 1 74.26984466078676 45.350911982373106 18.586441605959859 1 rotate no_reflect no_shear #
lump $-1 $-1 $19 $1 #
transform $-1 1 0 0 0 1 0 0 0 1 74.26984466078676 45.350911982373106 18.586441605959859 1 rotate no_reflect no_shear #
lump $-1 $-1 $20 $2 #
transform $-1 1 0 0 0 1 0 0 0 1 74.26984466078676 45.350911982373106 18.586441605959859 1 rotate no_reflect no_shear #
lump $-1 $-1 $21 $3 #
transform $-1 1 0 0 0 1 0 0 0 1 74.26984466078676 45.350911982373106 18.586441605959859 1 rotate no_reflect no_shear #
lump $-1 $-1 $22 $4 #
transform $-1 1 0 0 0 1 0 0 0 1 74.26984466078676 45.350911982373106 18.586441605959859 1 rotate no_reflect no_shear #
lump $-1 $-1 $23 $5 #
transform $-1 1 0 0 0 1 0 0 0 1 74.26984466078676 45.350911982373106 18.586441605959859 1 rotate no_reflect no_shear #
shell $-1 $-1 $-1 $24 $-1 $6 #
shell $-1 $-1 $-1 $25 $-1 $8 #
shell $-1 $-1 $-1 $26 $-1 $10 #
shell $-1 $-1 $-1 $27 $-1 $12 #
shell $-1 $-1 $-1 $28 $-1 $14 #
shell $-1 $-1 $-1 $29 $-1 $16 #
face $-1 $30 $31 $18 $-1 $32 forward single #
face $-1 $33 $34 $19 $-1 $35 forward single #
face $-1 $36 $37 $20 $-1 $38 reversed single #
face $-1 $39 $40 $21 $-1 $41 reversed single #
face $-1 $42 $43 $22 $-1 $44 forward single #
face $-1 $45 $46 $23 $-1 $47 forward single #
face $-1 $48 $49 $18 $-1 $50 reversed single #
loop $-1 $-1 $51 $24 #
plane-surface $-1 0 0 18.586441605959859 0 0 1 1 0 0 forward_v I I I I #
face $-1 $52 $53 $19 $-1 $54 reversed single #
loop $-1 $-1 $55 $25 #
plane-surface $-1 -65.109333104247767 0 11.419958684909162 0 0 1 1 0 0 forward_v I I I I #
face $-1 $56 $57 $20 $-1 $58 reversed single #
loop $-1 $-1 $59 $26 #
plane-surface $-1 65.755686580170959 -12.957853253524199 0 0 1 0 0 0 1 forward_v I I I I #
face $-1 $60 $61 $21 $-1 $62 reversed single #
loop $-1 $-1 $63 $27 #
plane-surface $-1 43.060177016385119 80.319623693893703 181.81698899565973 1 0 0 0 -0.68199836817093118 -0.7313536940579346 forward_v I I I I #
face $-1 $64 $65 $22 $-1 $66 forward single #
loop $-1 $67 $68 $28 #
cone-surface $-1 47.111991725862268 40.13882541508179 13.541795866495049 0 -0.68199836817093118 -0.7313536940579346 1.5 0 0 1 I I 0 1 1.5 forward I I I I #
face $-1 $69 $70 $23 $-1 $71 forward single #
loop $-1 $72 $73 $29 #
cone-surface $-1 53.189713790078002 40.13882541508179 13.541795866495049 0 -0.68199836817093118 -0.7313536940579346 1.5 0 0 1 I I 0 1 1.5 forward I I I I #
face $-1 $74 $75 $18 $-1 $76 reversed single #
loop $-1 $-1 $77 $30 #
plane-surface $-1 0 0 -18.586441605959859 0 0 1 1 0 0 forward_v I I I I #
coedge $-1 $78 $79 $80 $81 forward $31 $-1 #
face $-1 $82 $83 $19 $-1 $84 reversed single #
loop $-1 $-1 $85 $33 #
plane-surface $-1 -65.109333104247767 0 1.0107118844401128 0 0 1 1 0 0 forward_v I I I I #
coedge $-1 $86 $87 $88 $89 forward $34 $-1 #
face $-1 $90 $91 $20 $-1 $92 reversed single #
loop $-1 $-1 $93 $36 #
plane-surface $-1 57.241528499555159 -10.567941011988793 0 1 0 0 0 0 -1 forward_v I I I I #
coedge $-1 $94 $95 $96 $97 forward $37 $-1 #
face $-1 $98 $99 $21 $-1 $100 reversed single #
loop $-1 $-1 $101 $39 #
plane-surface $-1 50.150852757970142 -20.984202032036535 73.181938496108998 0 0.68199836817093118 0.7313536940579346 1 0 0 forward_v I I I I #
coedge $-1 $102 $103 $104 $105 reversed $40 $-1 #
face $-1 $-1 $106 $22 $-1 $107 forward single #
loop $-1 $108 $109 $42 #
cone-surface $-1 47.111991725862268 38.309546442927399 11.580134378454208 0 -0.68199836817093118 -0.7313536940579346 0.75 0 0 1 I I -0.70710678118654757 0.70710678118654757 0.75 forward I I I I #
loop $-1 $-1 $110 $28 #
coedge $-1 $68 $68 $111 $112 reversed $43 $-1 #
face $-1 $-1 $113 $23 $-1 $114 forward single #
loop $-1 $115 $116 $45 #
cone-surface $-1 53.189713790078002 38.309546442927399 11.580134378454208 0 -0.68199836817093118 -0.7313536940579346 0.75 0 0 1 I I -0.70710678118654757 0.70710678118654757 0.75 forward I I I I #
loop $-1 $-1 $117 $29 #
coedge $-1 $73 $73 $118 $119 reversed $46 $-1 #
face $-1 $120 $121 $18 $-1 $122 reversed single #
loop $-1 $-1 $123 $48 #
plane-surface $-1 0 -45.350911982373106 0 0 1 0 0 0 1 forward_v I I I I #
coedge $-1 $124 $125 $126 $127 forward $49 $-1 #
coedge $-1 $128 $51 $129 $130 forward $31 $-1 #
coedge $-1 $51 $128 $131 $132 forward $31 $-1 #
coedge $-1 $133 $134 $51 $81 reversed $135 $-1 #
edge $-1 $136 -45.350911982373106 $137 45.350911982373106 $80 $138 forward 7 unknown #
face $-1 $139 $140 $19 $-1 $141 reversed single #
loop $-1 $-1 $142 $52 #
plane-surface $-1 -55.948821547708782 0 6.2153352846746373 -1 0 0 0 0 1 forward_v I I I I #
coedge $-1 $143 $144 $145 $146 forward $53 $-1 #
coedge $-1 $147 $55 $148 $149 reversed $34 $-1 #
coedge $-1 $55 $147 $150 $151 reversed $34 $-1 #
coedge $-1 $142 $152 $55 $89 reversed $83 $-1 #
edge $-1 $153 -45.350911982373106 $154 45.350911982373106 $88 $155 forward 7 unknown #
face $-1 $156 $157 $20 $-1 $158 reversed single #
loop $-1 $-1 $159 $56 #
plane-surface $-1 65.755686580170959 -8.1780287704533876 0 0 -1 0 0 0 -1 forward_v I I I I #
coedge $-1 $160 $161 $162 $163 forward $57 $-1 #
coedge $-1 $164 $59 $165 $166 reversed $37 $-1 #
coedge $-1 $59 $164 $167 $168 reversed $37 $-1 #
coedge $-1 $161 $160 $59 $97 reversed $57 $-1 #
edge $-1 $169 -18.586441605959859 $170 18.586441605959859 $96 $171 forward 7 unknown #
face $-1 $172 $173 $21 $-1 $174 forward single #
loop $-1 $-1 $175 $60 #
plane-surface $-1 57.241528499555166 80.319623693893703 181.81698899565973 -1 0 0 0 0.68199836817093118 0.7313536940579346 forward_v I I I I #
coedge $-1 $176 $177 $178 $179 reversed $61 $-1 #
coedge $-1 $103 $63 $180 $181 reversed $40 $-1 #
coedge $-1 $63 $102 $176 $182 reversed $40 $-1 #
coedge $-1 $178 $183 $63 $105 forward $173 $-1 #
edge $-1 $184 -5.1911001354262538 $185 2.5975126071040577 $104 $186 forward 7 unknown #
loop $-1 $-1 $111 $64 #
plane-surface $-1 50.150852757970142 -20.984202032036535 73.181938496108998 0 0.68199836817093118 0.7313536940579346 1 0 0 forward_v I I I I #
loop $-1 $-1 $187 $42 #
coedge $-1 $109 $109 $110 $188 reversed $65 $-1 #
coedge $-1 $110 $110 $109 $188 forward $67 $-1 #
coedge $-1 $111 $111 $68 $112 forward $106 $-1 #
edge $-1 $189 -2.7630056649595471e-015 $189 6.2831853071795978 $111 $190 forward 7 unknown #
loop $-1 $-1 $118 $69 #
plane-surface $-1 50.150852757970142 -20.984202032036535 73.181938496108998 0 0.68199836817093118 0.7313536940579346 1 0 0 forward_v I I I I #
loop $-1 $-1 $191 $45 #
coedge $-1 $116 $116 $117 $192 reversed $70 $-1 #
coedge $-1 $117 $117 $116 $192 forward $72 $-1 #
coedge $-1 $118 $118 $73 $119 forward $113 $-1 #
edge $-1 $193 -2.7630056649595471e-015 $193 6.2831853071795978 $118 $194 forward 7 unknown #
face $-1 $195 $196 $18 $-1 $197 reversed single #
loop $-1 $-1 $198 $74 #
plane-surface $-1 -74.26984466078676 0 0 1 0 0 0 0 -1 forward_v I I I I #
coedge $-1 $199 $131 $200 $201 forward $75 $-1 #
coedge $-1 $202 $77 $199 $203 forward $49 $-1 #
coedge $-1 $77 $202 $204 $205 forward $49 $-1 #
coedge $-1 $134 $133 $77 $127 reversed $135 $-1 #
edge $-1 $206 -45.350911982373106 $207 45.350911982373106 $126 $208 forward 7 unknown #
coedge $-1 $79 $78 $209 $210 forward $31 $-1 #
coedge $-1 $211 $212 $78 $130 reversed $196 $-1 #
edge $-1 $137 -74.26984466078676 $213 74.26984466078676 $129 $214 forward 7 unknown #
coedge $-1 $123 $215 $79 $132 reversed $75 $-1 #
edge $-1 $216 -74.26984466078676 $136 74.26984466078676 $131 $217 forward 7 unknown #
coedge $-1 $126 $80 $215 $218 forward $135 $-1 #
coedge $-1 $80 $126 $211 $219 reversed $135 $-1 #
loop $-1 $-1 $133 $195 #
vertex $-1 $81 $220 #
vertex $-1 $81 $221 #
straight-curve $-1 74.26984466078676 0 18.586441605959859 0 1 0 I I #
face $-1 $222 $223 $19 $-1 $224 reversed single #
loop $-1 $-1 $225 $82 #
plane-surface $-1 0 -45.350911982373106 0 0 1 0 0 0 1 forward_v I I I I #
coedge $-1 $145 $88 $226 $227 reversed $83 $-1 #
coedge $-1 $228 $85 $225 $229 reversed $53 $-1 #
coedge $-1 $85 $228 $230 $231 reversed $53 $-1 #
coedge $-1 $152 $142 $85 $146 reversed $83 $-1 #
edge $-1 $232 -45.350911982373106 $233 45.350911982373106 $145 $234 forward 7 unknown #
coedge $-1 $87 $86 $235 $236 reversed $34 $-1 #
coedge $-1 $237 $238 $86 $149 forward $239 $-1 #
edge $-1 $240 -41.715178108662876 $154 -23.394154995584898 $148 $241 forward 7 unknown #
coedge $-1 $242 $226 $87 $151 forward $140 $-1 #
edge $-1 $153 23.394154995584898 $243 41.715178108662876 $150 $244 forward 7 unknown #
coedge $-1 $88 $145 $237 $245 reversed $83 $-1 #
vertex $-1 $151 $246 #
vertex $-1 $149 $247 #
straight-curve $-1 -55.948821547708782 0 11.419958684909162 0 1 0 I I #
face $-1 $248 $249 $20 $-1 $250 reversed single #
loop $-1 $-1 $251 $90 #
plane-surface $-1 74.26984466078676 0 0 -1 0 0 0 0 1 forward_v I I I I #
coedge $-1 $252 $253 $254 $255 reversed $91 $-1 #
coedge $-1 $96 $93 $256 $257 reversed $57 $-1 #
coedge $-1 $93 $96 $258 $259 reversed $57 $-1 #
coedge $-1 $253 $252 $93 $163 reversed $91 $-1 #
edge $-1 $260 -18.586441605959859 $261 18.586441605959859 $162 $262 forward 7 unknown #
coedge $-1 $95 $94 $251 $263 reversed $37 $-1 #
coedge $-1 $256 $264 $94 $166 forward $249 $-1 #
edge $-1 $265 -41.39200137070128 $170 -24.363685209469679 $165 $266 forward 7 unknown #
coedge $-1 $267 $258 $95 $168 forward $268 $-1 #
edge $-1 $169 24.363685209469679 $269 41.39200137070128 $167 $270 forward 7 unknown #
vertex $-1 $168 $271 #
vertex $-1 $166 $272 #
straight-curve $-1 57.241528499555159 -12.957853253524199 0 0 0 -1 I I #
face $-1 $-1 $273 $21 $-1 $274 reversed single #
loop $-1 $-1 $104 $98 #
plane-surface $-1 0 0 18.586441605959859 0 0 1 1 0 0 forward_v I I I I #
coedge $-1 $275 $276 $277 $278 reversed $99 $-1 #
coedge $-1 $279 $101 $103 $182 forward $61 $-1 #
coedge $-1 $101 $279 $275 $280 forward $61 $-1 #
coedge $-1 $277 $104 $101 $179 forward $173 $-1 #
edge $-1 $185 17.984750637400047 $281 32.166102120570095 $178 $282 forward 7 unknown #
coedge $-1 $283 $284 $102 $181 forward $273 $-1 #
edge $-1 $285 -79.585051935804842 $184 -72.322052891870001 $180 $286 forward 7 unknown #
edge $-1 $185 80.052239767919374 $285 90.701823964746211 $103 $287 forward 7 unknown #
coedge $-1 $104 $277 $283 $288 forward $173 $-1 #
vertex $-1 $181 $289 #
vertex $-1 $105 $290 #
straight-curve $-1 43.060177016385119 40.159811846946852 18.586441605959862 0 -1 0 I I #
coedge $-1 $187 $187 $-1 $291 reversed $108 $-1 #
edge $-1 $292 0 $292 6.2831853071796004 $109 $293 forward 7 unknown #
vertex $-1 $112 $294 #
ellipse-curve $-1 47.111991725862268 41.456605611107967 14.954942083992421 0 0.68199836817093118 0.7313536940579346 1.5 0 0 1 I I #
coedge $-1 $191 $191 $-1 $295 reversed $115 $-1 #
edge $-1 $296 0 $296 6.2831853071796004 $116 $297 forward 7 unknown #
vertex $-1 $119 $298 #
ellipse-curve $-1 53.189713790078002 41.456605611107967 14.954942083992421 0 0.68199836817093118 0.7313536940579346 1.5 0 0 1 I I #
face $-1 $-1 $135 $18 $-1 $299 reversed single #
loop $-1 $-1 $211 $120 #
plane-surface $-1 0 45.350911982373106 0 0 -1 0 0 0 -1 forward_v I I I I #
coedge $-1 $300 $209 $212 $301 forward $121 $-1 #
coedge $-1 $215 $123 $124 $203 reversed $75 $-1 #
coedge $-1 $209 $300 $123 $201 reversed $121 $-1 #
edge $-1 $216 -18.586441605959859 $302 18.586441605959859 $200 $303 forward 7 unknown #
coedge $-1 $125 $124 $300 $304 forward $49 $-1 #
edge $-1 $207 -74.26984466078676 $302 74.26984466078676 $199 $305 forward 7 unknown #
coedge $-1 $212 $211 $125 $205 reversed $196 $-1 #
edge $-1 $306 -74.26984466078676 $206 74.26984466078676 $204 $307 forward 7 unknown #
vertex $-1 $127 $308 #
vertex $-1 $218 $309 #
straight-curve $-1 74.26984466078676 0 -18.586441605959859 0 -1 0 I I #
coedge $-1 $198 $200 $128 $210 reversed $121 $-1 #
edge $-1 $213 -45.350911982373106 $216 45.350911982373106 $209 $310 forward 7 unknown #
coedge $-1 $204 $129 $134 $219 forward $196 $-1 #
coedge $-1 $129 $204 $198 $301 reversed $196 $-1 #
vertex $-1 $130 $311 #
straight-curve $-1 0 45.350911982373106 18.586441605959859 -1 0 0 I I #
coedge $-1 $131 $199 $133 $218 reversed $75 $-1 #
vertex $-1 $210 $312 #
straight-curve $-1 0 -45.350911982373106 18.586441605959859 1 0 0 I I #
edge $-1 $136 -18.586441605959859 $207 18.586441605959859 $133 $313 forward 7 unknown #
edge $-1 $137 -18.586441605959859 $206 18.586441605959859 $134 $314 forward 7 unknown #
point $-1 74.26984466078676 -45.350911982373106 18.586441605959859 #
point $-1 74.26984466078676 45.350911982373106 18.586441605959859 #
face $-1 $-1 $239 $19 $-1 $315 reversed single #
loop $-1 $-1 $316 $139 #
plane-surface $-1 -74.26984466078676 0 0 1 0 0 0 0 -1 forward_v I I I I #
coedge $-1 $226 $242 $143 $229 forward $140 $-1 #
coedge $-1 $150 $225 $142 $227 forward $140 $-1 #
edge $-1 $233 -2.0969557578972058 $153 8.312291042571843 $226 $317 forward 7 unknown #
coedge $-1 $144 $143 $316 $318 reversed $53 $-1 #
edge $-1 $319 -41.715178108662876 $233 -23.394154995584898 $225 $320 forward 7 unknown #
coedge $-1 $238 $237 $144 $231 forward $239 $-1 #
edge $-1 $232 23.394154995584898 $321 41.715178108662876 $230 $322 forward 7 unknown #
vertex $-1 $231 $323 #
vertex $-1 $229 $324 #
straight-curve $-1 -55.948821547708782 0 1.0107118844401128 0 -1 0 I I #
coedge $-1 $325 $326 $147 $236 forward $223 $-1 #
edge $-1 $243 -45.350911982373106 $240 45.350911982373106 $235 $327 forward 7 unknown #
coedge $-1 $230 $148 $152 $245 forward $239 $-1 #
coedge $-1 $148 $230 $325 $328 reversed $239 $-1 #
loop $-1 $-1 $230 $222 #
vertex $-1 $328 $329 #
straight-curve $-1 -32.554666552123884 45.350911982373106 11.419958684909162 1 0 0 I I #
coedge $-1 $225 $150 $326 $330 forward $140 $-1 #
vertex $-1 $330 $331 #
straight-curve $-1 -32.554666552123884 -45.350911982373106 11.419958684909162 -1 0 0 I I #
edge $-1 $154 -8.312291042571843 $232 2.0969557578972058 $237 $332 forward 7 unknown #
point $-1 -55.948821547708782 -45.350911982373106 11.419958684909162 #
point $-1 -55.948821547708782 45.350911982373106 11.419958684909162 #
face $-1 $-1 $268 $20 $-1 $333 forward single #
loop $-1 $-1 $165 $156 #
plane-surface $-1 0 0 -18.586441605959859 0 0 1 1 0 0 forward_v I I I I #
coedge $-1 $334 $335 $164 $263 forward $157 $-1 #
coedge $-1 $162 $159 $336 $337 reversed $91 $-1 #
coedge $-1 $159 $162 $338 $339 reversed $91 $-1 #
coedge $-1 $335 $334 $159 $255 forward $157 $-1 #
edge $-1 $340 -18.586441605959859 $341 18.586441605959859 $254 $342 forward 7 unknown #
coedge $-1 $336 $165 $160 $257 forward $249 $-1 #
edge $-1 $170 -7.6738827475298024 $261 -2.8940582644589909 $256 $343 forward 7 unknown #
coedge $-1 $167 $338 $161 $259 forward $268 $-1 #
edge $-1 $260 2.8940582644589909 $169 7.6738827475298024 $258 $344 forward 7 unknown #
vertex $-1 $259 $345 #
vertex $-1 $257 $346 #
straight-curve $-1 57.241528499555159 -8.1780287704533876 0 0 0 -1 I I #
edge $-1 $269 -18.586441605959859 $265 18.586441605959859 $251 $347 forward 7 unknown #
coedge $-1 $165 $336 $334 $348 forward $249 $-1 #
vertex $-1 $263 $349 #
straight-curve $-1 32.87784329008548 -12.957853253524199 -18.586441605959859 -1 0 0 I I #
coedge $-1 $338 $167 $335 $350 forward $268 $-1 #
loop $-1 $-1 $167 $248 #
vertex $-1 $350 $351 #
straight-curve $-1 32.87784329008548 -12.957853253524199 18.586441605959859 1 0 0 I I #
point $-1 57.241528499555159 -12.957853253524199 18.586441605959859 #
point $-1 57.241528499555159 -12.957853253524199 -18.586441605959859 #
loop $-1 $-1 $180 $172 #
plane-surface $-1 0 45.350911982373106 0 0 -1 0 0 0 -1 forward_v I I I I #
coedge $-1 $276 $175 $177 $280 reversed $99 $-1 #
coedge $-1 $175 $275 $352 $353 reversed $99 $-1 #
coedge $-1 $183 $178 $175 $278 forward $173 $-1 #
edge $-1 $281 -2.5975126071040577 $354 5.1911001354262538 $277 $355 forward 7 unknown #
coedge $-1 $177 $176 $284 $356 reversed $61 $-1 #
edge $-1 $357 -90.701823964746211 $281 -80.052239767919374 $275 $358 forward 7 unknown #
vertex $-1 $179 $359 #
straight-curve $-1 25.075426378985071 37.562299239842801 18.586441605959855 1 0 0 I I #
coedge $-1 $352 $180 $183 $288 reversed $273 $-1 #
coedge $-1 $180 $352 $279 $356 forward $273 $-1 #
vertex $-1 $181 $360 #
straight-curve $-1 43.060177016385119 45.350911982373106 90.908494497829864 0 0 1 I I #
straight-curve $-1 43.060177016385119 -20.984202032036535 73.181938496108998 0 0.7313536940579346 -0.68199836817093118 I I #
edge $-1 $354 -57.241528499555166 $184 -43.060177016385119 $283 $361 forward 7 unknown #
point $-1 43.060177016385119 45.350911982373106 18.586441605959859 #
point $-1 43.060177016385119 37.562299239842794 18.586441605959862 #
edge $-1 $362 1 $362 0 $187 $-1 forward 7 unknown #
vertex $-1 $188 $363 #
ellipse-curve $-1 47.111991725862268 38.821045219055598 12.128649648997659 0 0.68199836817093118 0.7313536940579346 1.5 0 0 1 I I #
point $-1 48.611991725862268 41.456605611107982 14.954942083992442 #
edge $-1 $364 1 $364 0 $191 $-1 forward 7 unknown #
vertex $-1 $192 $365 #
ellipse-curve $-1 53.189713790078002 38.821045219055598 12.128649648997659 0 0.68199836817093118 0.7313536940579346 1.5 0 0 1 I I #
point $-1 54.689713790078002 41.456605611107982 14.954942083992442 #
plane-surface $-1 74.26984466078676 0 0 -1 0 0 0 0 1 forward_v I I I I #
coedge $-1 $200 $198 $202 $304 reversed $121 $-1 #
edge $-1 $213 -18.586441605959859 $306 18.586441605959859 $212 $366 forward 7 unknown #
vertex $-1 $304 $367 #
straight-curve $-1 -74.26984466078676 -45.350911982373106 0 0 0 -1 I I #
edge $-1 $302 -45.350911982373106 $306 45.350911982373106 $300 $368 forward 7 unknown #
straight-curve $-1 0 -45.350911982373106 -18.586441605959859 -1 0 0 I I #
vertex $-1 $205 $369 #
straight-curve $-1 0 45.350911982373106 -18.586441605959859 1 0 0 I I #
point $-1 74.26984466078676 45.350911982373106 -18.586441605959859 #
point $-1 74.26984466078676 -45.350911982373106 -18.586441605959859 #
straight-curve $-1 -74.26984466078676 0 18.586441605959859 0 -1 0 I I #
point $-1 -74.26984466078676 45.350911982373106 18.586441605959859 #
point $-1 -74.26984466078676 -45.350911982373106 18.586441605959859 #
straight-curve $-1 74.26984466078676 -45.350911982373106 0 0 0 -1 I I #
straight-curve $-1 74.26984466078676 45.350911982373106 0 0 0 -1 I I #
plane-surface $-1 0 45.350911982373106 0 0 -1 0 0 0 -1 forward_v I I I I #
coedge $-1 $326 $325 $228 $318 forward $223 $-1 #
straight-curve $-1 -55.948821547708782 -45.350911982373106 3.1076676423373186 0 0 1 I I #
edge $-1 $321 -45.350911982373106 $319 45.350911982373106 $316 $370 forward 7 unknown #
vertex $-1 $229 $371 #
straight-curve $-1 -32.554666552123884 -45.350911982373106 1.0107118844401128 1 0 0 I I #
vertex $-1 $231 $372 #
straight-curve $-1 -32.554666552123884 45.350911982373106 1.0107118844401128 -1 0 0 I I #
point $-1 -55.948821547708782 45.350911982373106 1.0107118844401128 #
point $-1 -55.948821547708782 -45.350911982373106 1.0107118844401128 #
coedge $-1 $316 $235 $238 $328 forward $223 $-1 #
coedge $-1 $235 $316 $242 $330 reversed $223 $-1 #
straight-curve $-1 -74.26984466078676 0 11.419958684909162 0 1 0 I I #
edge $-1 $240 -11.419958684909162 $321 -1.0107118844401128 $238 $373 forward 7 unknown #
point $-1 -74.26984466078676 45.350911982373106 11.419958684909162 #
edge $-1 $243 -11.419958684909162 $319 -1.0107118844401128 $326 $374 forward 7 unknown #
point $-1 -74.26984466078676 -45.350911982373106 11.419958684909162 #
straight-curve $-1 -55.948821547708782 45.350911982373106 3.1076676423373186 0 0 -1 I I #
plane-surface $-1 0 0 18.586441605959859 0 0 1 1 0 0 forward_v I I I I #
coedge $-1 $254 $251 $264 $348 reversed $157 $-1 #
coedge $-1 $251 $254 $267 $350 reversed $157 $-1 #
coedge $-1 $264 $256 $252 $337 forward $249 $-1 #
edge $-1 $261 24.363685209469679 $340 41.39200137070128 $336 $375 forward 7 unknown #
coedge $-1 $258 $267 $253 $339 forward $268 $-1 #
edge $-1 $341 -41.39200137070128 $260 -24.363685209469679 $338 $376 forward 7 unknown #
vertex $-1 $348 $377 #
vertex $-1 $255 $378 #
straight-curve $-1 74.26984466078676 -8.1780287704533876 0 0 0 1 I I #
straight-curve $-1 57.241528499555159 -5.2839705059943967 -18.586441605959859 0 1 0 I I #
straight-curve $-1 57.241528499555159 -5.2839705059943967 18.586441605959859 0 -1 0 I I #
point $-1 57.241528499555159 -8.1780287704533876 18.586441605959859 #
point $-1 57.241528499555159 -8.1780287704533876 -18.586441605959859 #
straight-curve $-1 74.26984466078676 -12.957853253524199 0 0 0 -1 I I #
edge $-1 $340 8.1780287704533876 $265 12.957853253524199 $334 $379 forward 7 unknown #
point $-1 74.26984466078676 -12.957853253524199 -18.586441605959859 #
edge $-1 $269 -12.957853253524199 $341 -8.1780287704533876 $335 $380 forward 7 unknown #
point $-1 74.26984466078676 -12.957853253524199 18.586441605959859 #
coedge $-1 $284 $283 $276 $353 forward $273 $-1 #
edge $-1 $354 72.322052891870001 $357 79.585051935804842 $352 $381 forward 7 unknown #
vertex $-1 $288 $382 #
straight-curve $-1 57.241528499555166 40.159811846946852 18.586441605959862 0 1 0 I I #
edge $-1 $357 -32.166102120570095 $285 -17.984750637400047 $284 $383 forward 7 unknown #
vertex $-1 $356 $384 #
straight-curve $-1 57.241528499555166 -20.984202032036535 73.181938496108998 0 -0.7313536940579346 0.68199836817093118 I I #
point $-1 57.241528499555166 37.562299239842794 18.586441605959862 #
point $-1 43.060177016385119 45.350911982373106 11.323442562025022 #
straight-curve $-1 0 45.350911982373106 18.586441605959859 -1 0 0 I I #
vertex $-1 $291 $385 #
point $-1 48.611991725862268 38.821045219055598 12.128649648997659 #
vertex $-1 $295 $386 #
point $-1 54.689713790078002 38.821045219055598 12.128649648997659 #
straight-curve $-1 -74.26984466078676 45.350911982373106 0 0 0 -1 I I #
point $-1 -74.26984466078676 -45.350911982373106 -18.586441605959859 #
straight-curve $-1 -74.26984466078676 0 -18.586441605959859 0 1 0 I I #
point $-1 -74.26984466078676 45.350911982373106 -18.586441605959859 #
straight-curve $-1 -74.26984466078676 0 1.0107118844401128 0 -1 0 I I #
point $-1 -74.26984466078676 -45.350911982373106 1.0107118844401128 #
point $-1 -74.26984466078676 45.350911982373106 1.0107118844401128 #
straight-curve $-1 -74.26984466078676 45.350911982373106 0 0 0 -1 I I #
straight-curve $-1 -74.26984466078676 -45.350911982373106 0 0 0 -1 I I #
straight-curve $-1 32.87784329008548 -8.1780287704533876 -18.586441605959859 1 0 0 I I #
straight-curve $-1 32.87784329008548 -8.1780287704533876 18.586441605959859 -1 0 0 I I #
point $-1 74.26984466078676 -8.1780287704533876 -18.586441605959859 #
point $-1 74.26984466078676 -8.1780287704533876 18.586441605959859 #
straight-curve $-1 74.26984466078676 0 -18.586441605959859 0 -1 0 I I #
straight-curve $-1 74.26984466078676 0 18.586441605959859 0 1 0 I I #
straight-curve $-1 57.241528499555166 45.350911982373106 90.908494497829864 0 0 -1 I I #
point $-1 57.241528499555166 45.350911982373106 18.586441605959859 #
straight-curve $-1 25.075426378985071 45.350911982373106 11.323442562025026 -1 0 0 I I #
point $-1 57.241528499555166 45.350911982373106 11.323442562025022 #
point $-1 47.111991725862268 37.798047666799199 11.031619107910757 #
point $-1 53.189713790078002 37.798047666799199 11.031619107910757 #
End-of-ACIS-data 